<?xml version="1.0" encoding="utf-8" standalone="no"?>
<!DOCTYPE svg PUBLIC "-//W3C//DTD SVG 1.1//EN"
  "http://www.w3.org/Graphics/SVG/1.1/DTD/svg11.dtd">
<svg xmlns:xlink="http://www.w3.org/1999/xlink" width="272.067187pt" height="197.398125pt" viewBox="0 0 272.067187 197.398125" xmlns="http://www.w3.org/2000/svg" version="1.1">
 <metadata>
  <rdf:RDF xmlns:dc="http://purl.org/dc/elements/1.1/" xmlns:cc="http://creativecommons.org/ns#" xmlns:rdf="http://www.w3.org/1999/02/22-rdf-syntax-ns#">
   <cc:Work>
    <dc:type rdf:resource="http://purl.org/dc/dcmitype/StillImage"/>
    <dc:date>2025-12-19T10:00:56.077956</dc:date>
    <dc:format>image/svg+xml</dc:format>
    <dc:creator>
     <cc:Agent>
      <dc:title>Matplotlib v3.10.7, https://matplotlib.org/</dc:title>
     </cc:Agent>
    </dc:creator>
   </cc:Work>
  </rdf:RDF>
 </metadata>
 <defs>
  <style type="text/css">*{stroke-linejoin: round; stroke-linecap: butt}</style>
 </defs>
 <g id="figure_1">
  <g id="patch_1">
   <path d="M 0 197.398125 
L 272.067187 197.398125 
L 272.067187 0 
L 0 0 
z
" style="fill: #ffffff"/>
  </g>
  <g id="axes_1">
   <g id="patch_2">
    <path d="M 41.667188 173.52 
L 264.867188 173.52 
L 264.867188 7.2 
L 41.667188 7.2 
z
" style="fill: #ffffff"/>
   </g>
   <g id="matplotlib.axis_1">
    <g id="xtick_1">
     <g id="line2d_1">
      <defs>
       <path id="m4e22b1642e" d="M 0 0 
L 0 3.5 
" style="stroke: #000000; stroke-width: 0.8"/>
      </defs>
      <g>
       <use xlink:href="#m4e22b1642e" x="46.832545" y="173.52" style="stroke: #000000; stroke-width: 0.8"/>
      </g>
     </g>
     <g id="text_1">
      <!-- 0.4 -->
      <g transform="translate(38.880982 188.118438) scale(0.1 -0.1)">
       <defs>
        <path id="DejaVuSans-30" d="M 2034 4250 
Q 1547 4250 1301 3770 
Q 1056 3291 1056 2328 
Q 1056 1369 1301 889 
Q 1547 409 2034 409 
Q 2525 409 2770 889 
Q 3016 1369 3016 2328 
Q 3016 3291 2770 3770 
Q 2525 4250 2034 4250 
z
M 2034 4750 
Q 2819 4750 3233 4129 
Q 3647 3509 3647 2328 
Q 3647 1150 3233 529 
Q 2819 -91 2034 -91 
Q 1250 -91 836 529 
Q 422 1150 422 2328 
Q 422 3509 836 4129 
Q 1250 4750 2034 4750 
z
" transform="scale(0.015625)"/>
        <path id="DejaVuSans-2e" d="M 684 794 
L 1344 794 
L 1344 0 
L 684 0 
L 684 794 
z
" transform="scale(0.015625)"/>
        <path id="DejaVuSans-34" d="M 2419 4116 
L 825 1625 
L 2419 1625 
L 2419 4116 
z
M 2253 4666 
L 3047 4666 
L 3047 1625 
L 3713 1625 
L 3713 1100 
L 3047 1100 
L 3047 0 
L 2419 0 
L 2419 1100 
L 313 1100 
L 313 1709 
L 2253 4666 
z
" transform="scale(0.015625)"/>
       </defs>
       <use xlink:href="#DejaVuSans-30"/>
       <use xlink:href="#DejaVuSans-2e" transform="translate(63.623047 0)"/>
       <use xlink:href="#DejaVuSans-34" transform="translate(95.410156 0)"/>
      </g>
     </g>
    </g>
    <g id="xtick_2">
     <g id="line2d_2">
      <g>
       <use xlink:href="#m4e22b1642e" x="86.673324" y="173.52" style="stroke: #000000; stroke-width: 0.8"/>
      </g>
     </g>
     <g id="text_2">
      <!-- 0.6 -->
      <g transform="translate(78.721762 188.118438) scale(0.1 -0.1)">
       <defs>
        <path id="DejaVuSans-36" d="M 2113 2584 
Q 1688 2584 1439 2293 
Q 1191 2003 1191 1497 
Q 1191 994 1439 701 
Q 1688 409 2113 409 
Q 2538 409 2786 701 
Q 3034 994 3034 1497 
Q 3034 2003 2786 2293 
Q 2538 2584 2113 2584 
z
M 3366 4563 
L 3366 3988 
Q 3128 4100 2886 4159 
Q 2644 4219 2406 4219 
Q 1781 4219 1451 3797 
Q 1122 3375 1075 2522 
Q 1259 2794 1537 2939 
Q 1816 3084 2150 3084 
Q 2853 3084 3261 2657 
Q 3669 2231 3669 1497 
Q 3669 778 3244 343 
Q 2819 -91 2113 -91 
Q 1303 -91 875 529 
Q 447 1150 447 2328 
Q 447 3434 972 4092 
Q 1497 4750 2381 4750 
Q 2619 4750 2861 4703 
Q 3103 4656 3366 4563 
z
" transform="scale(0.015625)"/>
       </defs>
       <use xlink:href="#DejaVuSans-30"/>
       <use xlink:href="#DejaVuSans-2e" transform="translate(63.623047 0)"/>
       <use xlink:href="#DejaVuSans-36" transform="translate(95.410156 0)"/>
      </g>
     </g>
    </g>
    <g id="xtick_3">
     <g id="line2d_3">
      <g>
       <use xlink:href="#m4e22b1642e" x="126.514104" y="173.52" style="stroke: #000000; stroke-width: 0.8"/>
      </g>
     </g>
     <g id="text_3">
      <!-- 0.8 -->
      <g transform="translate(118.562541 188.118438) scale(0.1 -0.1)">
       <defs>
        <path id="DejaVuSans-38" d="M 2034 2216 
Q 1584 2216 1326 1975 
Q 1069 1734 1069 1313 
Q 1069 891 1326 650 
Q 1584 409 2034 409 
Q 2484 409 2743 651 
Q 3003 894 3003 1313 
Q 3003 1734 2745 1975 
Q 2488 2216 2034 2216 
z
M 1403 2484 
Q 997 2584 770 2862 
Q 544 3141 544 3541 
Q 544 4100 942 4425 
Q 1341 4750 2034 4750 
Q 2731 4750 3128 4425 
Q 3525 4100 3525 3541 
Q 3525 3141 3298 2862 
Q 3072 2584 2669 2484 
Q 3125 2378 3379 2068 
Q 3634 1759 3634 1313 
Q 3634 634 3220 271 
Q 2806 -91 2034 -91 
Q 1263 -91 848 271 
Q 434 634 434 1313 
Q 434 1759 690 2068 
Q 947 2378 1403 2484 
z
M 1172 3481 
Q 1172 3119 1398 2916 
Q 1625 2713 2034 2713 
Q 2441 2713 2670 2916 
Q 2900 3119 2900 3481 
Q 2900 3844 2670 4047 
Q 2441 4250 2034 4250 
Q 1625 4250 1398 4047 
Q 1172 3844 1172 3481 
z
" transform="scale(0.015625)"/>
       </defs>
       <use xlink:href="#DejaVuSans-30"/>
       <use xlink:href="#DejaVuSans-2e" transform="translate(63.623047 0)"/>
       <use xlink:href="#DejaVuSans-38" transform="translate(95.410156 0)"/>
      </g>
     </g>
    </g>
    <g id="xtick_4">
     <g id="line2d_4">
      <g>
       <use xlink:href="#m4e22b1642e" x="166.354884" y="173.52" style="stroke: #000000; stroke-width: 0.8"/>
      </g>
     </g>
     <g id="text_4">
      <!-- 1.0 -->
      <g transform="translate(158.403321 188.118438) scale(0.1 -0.1)">
       <defs>
        <path id="DejaVuSans-31" d="M 794 531 
L 1825 531 
L 1825 4091 
L 703 3866 
L 703 4441 
L 1819 4666 
L 2450 4666 
L 2450 531 
L 3481 531 
L 3481 0 
L 794 0 
L 794 531 
z
" transform="scale(0.015625)"/>
       </defs>
       <use xlink:href="#DejaVuSans-31"/>
       <use xlink:href="#DejaVuSans-2e" transform="translate(63.623047 0)"/>
       <use xlink:href="#DejaVuSans-30" transform="translate(95.410156 0)"/>
      </g>
     </g>
    </g>
    <g id="xtick_5">
     <g id="line2d_5">
      <g>
       <use xlink:href="#m4e22b1642e" x="206.195663" y="173.52" style="stroke: #000000; stroke-width: 0.8"/>
      </g>
     </g>
     <g id="text_5">
      <!-- 1.2 -->
      <g transform="translate(198.244101 188.118438) scale(0.1 -0.1)">
       <defs>
        <path id="DejaVuSans-32" d="M 1228 531 
L 3431 531 
L 3431 0 
L 469 0 
L 469 531 
Q 828 903 1448 1529 
Q 2069 2156 2228 2338 
Q 2531 2678 2651 2914 
Q 2772 3150 2772 3378 
Q 2772 3750 2511 3984 
Q 2250 4219 1831 4219 
Q 1534 4219 1204 4116 
Q 875 4013 500 3803 
L 500 4441 
Q 881 4594 1212 4672 
Q 1544 4750 1819 4750 
Q 2544 4750 2975 4387 
Q 3406 4025 3406 3419 
Q 3406 3131 3298 2873 
Q 3191 2616 2906 2266 
Q 2828 2175 2409 1742 
Q 1991 1309 1228 531 
z
" transform="scale(0.015625)"/>
       </defs>
       <use xlink:href="#DejaVuSans-31"/>
       <use xlink:href="#DejaVuSans-2e" transform="translate(63.623047 0)"/>
       <use xlink:href="#DejaVuSans-32" transform="translate(95.410156 0)"/>
      </g>
     </g>
    </g>
    <g id="xtick_6">
     <g id="line2d_6">
      <g>
       <use xlink:href="#m4e22b1642e" x="246.036443" y="173.52" style="stroke: #000000; stroke-width: 0.8"/>
      </g>
     </g>
     <g id="text_6">
      <!-- 1.4 -->
      <g transform="translate(238.08488 188.118438) scale(0.1 -0.1)">
       <use xlink:href="#DejaVuSans-31"/>
       <use xlink:href="#DejaVuSans-2e" transform="translate(63.623047 0)"/>
       <use xlink:href="#DejaVuSans-34" transform="translate(95.410156 0)"/>
      </g>
     </g>
    </g>
   </g>
   <g id="matplotlib.axis_2">
    <g id="ytick_1">
     <g id="line2d_7">
      <defs>
       <path id="m17736c7ee3" d="M 0 0 
L -3.5 0 
" style="stroke: #000000; stroke-width: 0.8"/>
      </defs>
      <g>
       <use xlink:href="#m17736c7ee3" x="41.667188" y="173.216756" style="stroke: #000000; stroke-width: 0.8"/>
      </g>
     </g>
     <g id="text_7">
      <!-- −100 -->
      <g transform="translate(7.2 177.015975) scale(0.1 -0.1)">
       <defs>
        <path id="DejaVuSans-2212" d="M 678 2272 
L 4684 2272 
L 4684 1741 
L 678 1741 
L 678 2272 
z
" transform="scale(0.015625)"/>
       </defs>
       <use xlink:href="#DejaVuSans-2212"/>
       <use xlink:href="#DejaVuSans-31" transform="translate(83.789062 0)"/>
       <use xlink:href="#DejaVuSans-30" transform="translate(147.412109 0)"/>
       <use xlink:href="#DejaVuSans-30" transform="translate(211.035156 0)"/>
      </g>
     </g>
    </g>
    <g id="ytick_2">
     <g id="line2d_8">
      <g>
       <use xlink:href="#m17736c7ee3" x="41.667188" y="147.933427" style="stroke: #000000; stroke-width: 0.8"/>
      </g>
     </g>
     <g id="text_8">
      <!-- −80 -->
      <g transform="translate(13.5625 151.732646) scale(0.1 -0.1)">
       <use xlink:href="#DejaVuSans-2212"/>
       <use xlink:href="#DejaVuSans-38" transform="translate(83.789062 0)"/>
       <use xlink:href="#DejaVuSans-30" transform="translate(147.412109 0)"/>
      </g>
     </g>
    </g>
    <g id="ytick_3">
     <g id="line2d_9">
      <g>
       <use xlink:href="#m17736c7ee3" x="41.667188" y="122.650098" style="stroke: #000000; stroke-width: 0.8"/>
      </g>
     </g>
     <g id="text_9">
      <!-- −60 -->
      <g transform="translate(13.5625 126.449317) scale(0.1 -0.1)">
       <use xlink:href="#DejaVuSans-2212"/>
       <use xlink:href="#DejaVuSans-36" transform="translate(83.789062 0)"/>
       <use xlink:href="#DejaVuSans-30" transform="translate(147.412109 0)"/>
      </g>
     </g>
    </g>
    <g id="ytick_4">
     <g id="line2d_10">
      <g>
       <use xlink:href="#m17736c7ee3" x="41.667188" y="97.366769" style="stroke: #000000; stroke-width: 0.8"/>
      </g>
     </g>
     <g id="text_10">
      <!-- −40 -->
      <g transform="translate(13.5625 101.165987) scale(0.1 -0.1)">
       <use xlink:href="#DejaVuSans-2212"/>
       <use xlink:href="#DejaVuSans-34" transform="translate(83.789062 0)"/>
       <use xlink:href="#DejaVuSans-30" transform="translate(147.412109 0)"/>
      </g>
     </g>
    </g>
    <g id="ytick_5">
     <g id="line2d_11">
      <g>
       <use xlink:href="#m17736c7ee3" x="41.667188" y="72.083439" style="stroke: #000000; stroke-width: 0.8"/>
      </g>
     </g>
     <g id="text_11">
      <!-- −20 -->
      <g transform="translate(13.5625 75.882658) scale(0.1 -0.1)">
       <use xlink:href="#DejaVuSans-2212"/>
       <use xlink:href="#DejaVuSans-32" transform="translate(83.789062 0)"/>
       <use xlink:href="#DejaVuSans-30" transform="translate(147.412109 0)"/>
      </g>
     </g>
    </g>
    <g id="ytick_6">
     <g id="line2d_12">
      <g>
       <use xlink:href="#m17736c7ee3" x="41.667188" y="46.80011" style="stroke: #000000; stroke-width: 0.8"/>
      </g>
     </g>
     <g id="text_12">
      <!-- 0 -->
      <g transform="translate(28.304688 50.599329) scale(0.1 -0.1)">
       <use xlink:href="#DejaVuSans-30"/>
      </g>
     </g>
    </g>
    <g id="ytick_7">
     <g id="line2d_13">
      <g>
       <use xlink:href="#m17736c7ee3" x="41.667188" y="21.516781" style="stroke: #000000; stroke-width: 0.8"/>
      </g>
     </g>
     <g id="text_13">
      <!-- 20 -->
      <g transform="translate(21.942188 25.316) scale(0.1 -0.1)">
       <use xlink:href="#DejaVuSans-32"/>
       <use xlink:href="#DejaVuSans-30" transform="translate(63.623047 0)"/>
      </g>
     </g>
    </g>
   </g>
   <g id="line2d_14">
    <path d="M 51.812642 131.130609 
L 52.051687 131.207768 
L 52.470015 131.157615 
L 53.286751 131.211626 
L 53.446114 131.234773 
L 53.665238 131.246347 
L 53.924203 131.223199 
L 54.143328 131.254063 
L 54.541735 131.230915 
L 54.76086 131.196194 
L 55.219029 131.173046 
L 56.79274 131.27721 
L 56.952103 131.223199 
L 57.33059 131.18462 
L 57.529794 131.254063 
L 57.649316 131.207768 
L 57.888361 131.161472 
L 59.262868 131.261779 
L 59.481992 131.261779 
L 59.8804 131.219341 
L 60.657295 131.323506 
L 60.856499 131.342795 
L 60.995942 131.288784 
L 61.553713 131.292642 
L 61.693155 131.292642 
L 62.051722 131.207768 
L 62.211086 131.180762 
L 62.45013 131.200052 
L 62.748936 131.246347 
L 64.920259 131.146041 
L 65.099542 131.142183 
L 70.956137 131.045735 
L 71.195181 130.922281 
L 71.573669 130.957002 
L 72.370484 131.003297 
L 72.64937 131.011013 
L 72.968096 130.98015 
L 73.007937 130.571209 
L 73.067698 129.490989 
L 73.127459 130.019525 
L 73.406345 131.917627 
L 74.063717 134.768637 
L 74.820692 137.395887 
L 77.888432 145.968207 
L 79.780869 150.092334 
L 80.019914 150.412543 
L 80.31872 150.917931 
L 80.697207 151.685659 
L 82.430281 154.490374 
L 82.968132 155.273534 
L 83.525903 156.122279 
L 87.788866 160.906112 
L 90.876527 163.163001 
L 91.952228 163.695395 
L 92.171352 163.753264 
L 92.509998 163.923013 
L 92.768964 163.992456 
L 93.147451 164.100478 
L 93.685301 164.285658 
L 94.004028 164.39368 
L 94.462197 164.536424 
L 95.219172 164.791047 
L 95.597659 164.891353 
L 96.195271 164.99166 
L 96.553838 165.134403 
L 97.17137 165.261715 
L 97.788902 165.365879 
L 98.107628 165.423748 
L 98.585717 165.527912 
L 98.864603 165.608928 
L 99.023966 165.589639 
L 100.338712 165.73624 
L 100.717199 165.767104 
L 100.916403 165.794109 
L 102.80884 165.894415 
L 102.968203 165.886699 
L 103.565815 165.894415 
L 104.103665 165.902131 
L 104.32279 165.944568 
L 104.721197 165.840404 
L 105.000083 165.844262 
L 105.458252 165.821115 
L 106.414431 165.740098 
L 106.573794 165.701519 
L 106.792918 165.689945 
L 107.290928 165.674513 
L 108.864639 165.281004 
L 109.263046 164.86049 
L 109.661454 164.61744 
L 109.98018 164.659878 
L 110.637553 164.802621 
L 111.095722 164.825769 
L 111.354687 164.764042 
L 111.912458 164.7679 
L 112.131582 164.74861 
L 112.310866 164.744752 
L 113.107682 164.798763 
L 113.286965 164.818053 
L 113.784975 164.806479 
L 113.984179 164.845058 
L 114.203303 164.760184 
L 114.382587 164.675309 
L 115.099721 164.710031 
L 115.617651 164.625156 
L 116.553909 164.520992 
L 116.932396 164.420686 
L 117.669451 164.455407 
L 117.928416 164.470839 
L 118.247142 164.520992 
L 118.506107 164.463123 
L 119.004117 164.470839 
L 119.322843 164.478555 
L 122.111698 164.374391 
L 122.330822 164.401396 
L 123.74517 164.293374 
L 123.904533 164.343527 
L 124.28302 164.304948 
L 124.442383 164.270227 
L 126.095776 164.166063 
L 126.414502 164.034893 
L 126.713308 164.081188 
L 127.390601 164.104336 
L 127.530044 164.123625 
L 130.816908 164.031035 
L 130.996192 164.00403 
L 131.195396 163.992456 
L 131.394599 163.996314 
L 134.362738 163.89215 
L 134.721305 163.869002 
L 135.259155 163.865144 
L 136.155573 163.803417 
L 136.454378 163.803417 
L 136.832866 163.772554 
L 137.211353 163.811133 
L 137.410557 163.787985 
L 137.589841 163.799559 
L 138.107771 163.799559 
L 138.306975 163.78027 
L 138.645621 163.733974 
L 138.884666 163.749406 
L 139.183472 163.757122 
L 139.761163 163.753264 
L 140.040049 163.791843 
L 140.61774 163.799559 
L 140.896625 163.803417 
L 141.175511 163.799559 
L 142.410575 163.695395 
L 142.629699 163.502499 
L 142.888664 163.301886 
L 143.107789 163.286455 
L 143.605798 163.367471 
L 143.785082 163.386761 
L 144.004206 163.440772 
L 144.322932 163.379045 
L 146.434494 163.278739 
L 146.832902 162.804213 
L 146.992265 162.781066 
L 148.346851 162.622891 
L 148.605816 162.646038 
L 149.581915 162.727055 
L 150.199447 162.711623 
L 150.438492 162.723197 
L 151.414591 162.646038 
L 153.207426 162.75406 
L 153.506232 162.769492 
L 153.745277 162.750202 
L 153.984322 162.77335 
L 154.781137 162.727055 
L 155.040102 162.723197 
L 155.179545 162.757918 
L 155.538112 162.781066 
L 156.115803 162.777208 
L 156.673574 162.777208 
L 157.231345 162.781066 
L 157.530151 162.730913 
L 158.187524 162.711623 
L 158.546091 162.738629 
L 159.641712 162.634464 
L 160.478369 162.688475 
L 162.131761 162.476289 
L 162.689532 162.480147 
L 162.888736 162.518727 
L 164.083959 162.622891 
L 164.303083 162.634464 
L 164.741332 162.576595 
L 166.115839 162.734771 
L 166.354884 162.757918 
L 166.653689 162.761776 
L 171.115857 162.665328 
L 171.315061 162.588169 
L 171.892752 162.592027 
L 172.111876 162.622891 
L 172.589966 162.634464 
L 172.669647 164.050325 
L 172.729408 163.579657 
L 173.028214 161.54267 
L 173.526224 159.447814 
L 175.677626 152.738874 
L 176.733407 150.192641 
L 178.147754 147.171881 
L 178.486401 146.535323 
L 179.562102 144.502194 
L 180.139793 143.61487 
L 181.215494 141.971392 
L 181.5143 141.570167 
L 181.753345 141.246101 
L 185.418697 136.45841 
L 185.657741 136.257798 
L 185.936627 135.972311 
L 186.335035 135.617381 
L 186.713522 135.289457 
L 188.705561 133.507094 
L 188.864924 133.341203 
L 189.243412 133.06729 
L 191.833062 131.196194 
L 192.350992 130.883702 
L 192.550196 130.810401 
L 192.7494 130.706237 
L 194.183668 130.000236 
L 194.462554 129.791907 
L 194.641837 129.734038 
L 194.841041 129.668454 
L 196.175707 129.016463 
L 196.454593 128.916157 
L 196.83308 128.819709 
L 197.888861 128.507217 
L 198.307189 128.31432 
L 198.546234 128.271883 
L 198.765358 128.167719 
L 199.223527 128.067413 
L 199.661775 127.8668 
L 199.781298 127.839795 
L 199.980502 127.801216 
L 200.279308 127.704762 
L 200.598034 127.592882 
L 204.741475 126.099864 
L 204.960599 125.991842 
L 205.677733 125.822093 
L 206.096061 125.791229 
L 206.414788 125.609907 
L 206.594071 125.594475 
L 206.813195 125.625338 
L 207.07216 125.648486 
L 207.530329 125.625338 
L 208.147862 125.482595 
L 208.366986 125.513458 
L 208.725553 125.474879 
L 209.741493 125.390005 
L 209.960617 125.297414 
L 210.11998 125.270409 
L 210.478547 125.308988 
L 210.63791 125.316704 
L 211.195681 125.21254 
L 211.534328 125.185534 
L 211.753452 125.158529 
L 212.052258 125.112234 
L 212.490506 125.139239 
L 213.845093 125.031217 
L 213.984536 125.027359 
L 214.163819 125.008069 
L 218.566225 125.112234 
L 218.725589 125.065938 
L 219.044315 125.116092 
L 220.896911 125.21254 
L 221.155876 125.274267 
L 221.394921 125.258835 
L 221.693727 125.254977 
L 222.610065 125.154671 
L 222.88895 125.116092 
L 223.167835 125.150813 
L 223.40688 125.135381 
L 225.080193 125.235687 
L 225.259476 125.220256 
L 225.598123 125.258835 
L 226.135974 125.351425 
L 226.355098 125.409294 
L 226.653904 125.471021 
L 226.95271 125.471021 
L 227.47064 125.559753 
L 228.147933 125.66006 
L 228.466659 125.721787 
L 229.681803 125.825951 
L 230.458698 126.011131 
L 231.375036 126.084432 
L 231.773444 126.041995 
L 232.6101 126.092148 
L 232.869065 126.142301 
L 233.327234 126.285044 
L 234.084209 126.381493 
L 234.383015 126.477941 
L 234.900945 126.377635 
L 235.179831 126.327481 
L 235.817283 126.458651 
L 236.036407 126.489515 
L 237.052347 126.775001 
L 237.21171 126.809723 
L 239.602157 126.917745 
L 240.219689 126.925461 
L 240.618097 126.952466 
L 241.056346 127.010335 
L 241.81332 127.118357 
L 245.438831 127.708625 
L 246.653975 127.812789 
L 246.992622 127.835937 
L 247.450791 127.859084 
L 248.187845 127.889948 
L 248.486651 127.943959 
L 249.263546 127.839795 
L 249.602193 127.820505 
L 250.538451 127.901522 
L 250.737655 127.909238 
L 251.49463 127.943959 
L 253.865156 128.051981 
L 254.223723 128.075129 
L 254.383086 128.105992 
L 254.721733 128.10985 
L 254.721733 128.10985 
" clip-path="url(#p41071e3f1a)" style="fill: none; stroke: #000000; stroke-opacity: 0.5; stroke-width: 1.5; stroke-linecap: square"/>
   </g>
   <g id="line2d_15">
    <path d="M 51.812642 129.471699 
L 56.513854 129.367535 
L 56.772819 129.379109 
L 57.091545 129.436978 
L 58.067644 129.348245 
L 58.306689 129.363677 
L 58.685177 129.32124 
L 58.983982 129.32124 
L 60.258887 129.429262 
L 60.537773 129.514136 
L 60.956101 129.398399 
L 61.454111 129.386825 
L 61.872439 129.417688 
L 62.370449 129.402256 
L 62.629414 129.379109 
L 63.047742 129.487131 
L 64.063682 129.572005 
L 64.402328 129.556574 
L 64.820657 129.602869 
L 65.139383 129.583579 
L 65.418268 129.633732 
L 65.657313 129.622158 
L 65.956119 129.668454 
L 66.414288 129.73018 
L 66.932218 129.830487 
L 67.211103 129.865208 
L 68.027839 129.815055 
L 68.446168 129.86135 
L 68.964098 129.865208 
L 69.442187 129.934651 
L 70.517888 130.042673 
L 70.756933 130.019525 
L 71.374465 130.031099 
L 71.772873 129.923077 
L 72.410325 129.938509 
L 72.729051 129.930793 
L 73.007937 129.84206 
L 73.067698 129.475557 
L 73.127459 129.633732 
L 73.466106 130.436182 
L 74.163319 131.319648 
L 78.545805 135.409053 
L 79.661347 136.14206 
L 80.139436 136.342672 
L 85.199215 139.155103 
L 89.860587 140.852592 
L 90.159392 140.902745 
L 91.394457 141.246101 
L 91.55382 141.234527 
L 91.832705 141.184374 
L 92.788884 141.442856 
L 93.62554 141.550878 
L 93.844665 141.608747 
L 94.043869 141.631894 
L 94.322754 141.712911 
L 94.780923 141.7322 
L 95.11957 141.801643 
L 95.278933 141.817075 
L 95.517977 141.874944 
L 96.17535 141.97525 
L 96.832723 142.233731 
L 97.091688 142.245305 
L 97.390494 142.337895 
L 97.729141 142.357185 
L 97.988106 142.372617 
L 99.362613 142.526934 
L 99.920384 142.530792 
L 100.557836 142.661961 
L 101.095687 142.658104 
L 101.314811 142.700541 
L 101.514015 142.735262 
L 102.131547 142.746836 
L 102.370591 142.808563 
L 102.589716 142.847142 
L 103.32677 142.881863 
L 103.605656 142.885721 
L 104.462232 142.939732 
L 107.031963 143.043896 
L 107.271007 143.05547 
L 108.247106 143.132629 
L 108.625594 143.163492 
L 108.864639 143.182782 
L 109.382569 143.18664 
L 109.96026 143.306236 
L 110.199305 143.283088 
L 110.378588 143.337099 
L 110.617633 143.283088 
L 110.796916 143.283088 
L 111.792936 143.194356 
L 112.051901 143.229077 
L 112.908478 142.854858 
L 113.506089 142.874148 
L 113.705293 142.820137 
L 115.537969 142.712115 
L 115.737173 142.688967 
L 116.235183 142.700541 
L 116.474227 142.712115 
L 116.952317 142.731404 
L 117.530008 142.73912 
L 117.808894 142.700541 
L 118.067859 142.727546 
L 118.386585 142.681251 
L 118.585789 142.658104 
L 119.024037 142.71983 
L 119.402525 142.75841 
L 125.199358 142.658104 
L 125.338801 142.677393 
L 129.860729 142.781557 
L 130.020093 142.800847 
L 130.697386 142.773841 
L 131.195396 142.854858 
L 132.470301 142.746836 
L 132.888629 142.773841 
L 133.585842 142.796989 
L 133.864728 142.789273 
L 134.044011 142.816279 
L 135.298996 142.685109 
L 135.797006 142.669677 
L 136.055971 142.592519 
L 136.275095 142.650388 
L 136.713344 142.631098 
L 137.131672 142.584803 
L 137.669522 142.580945 
L 138.466338 142.53465 
L 138.625701 142.492213 
L 138.824905 142.299316 
L 139.004188 142.222157 
L 139.203392 142.264595 
L 139.342835 142.233731 
L 139.402596 142.187436 
L 139.442437 142.233731 
L 139.58188 142.245305 
L 139.940447 142.280026 
L 140.398616 142.345611 
L 140.777103 142.38419 
L 141.175511 142.349469 
L 141.63368 142.357185 
L 141.812963 142.368759 
L 145.139668 142.264595 
L 145.318952 142.280026 
L 145.557997 142.2916 
L 146.115768 142.191294 
L 146.952424 142.083272 
L 147.071946 142.172004 
L 147.27115 142.191294 
L 148.207408 142.117993 
L 148.685498 142.10642 
L 149.024144 142.090988 
L 149.223348 142.090988 
L 149.82096 142.08713 
L 152.569974 141.986824 
L 152.809019 141.971392 
L 160.797095 142.06784 
L 160.936538 142.040835 
L 161.215423 142.094846 
L 161.852876 142.10642 
L 162.60985 142.071698 
L 163.267223 142.090988 
L 163.526188 142.056266 
L 163.805074 142.056266 
L 164.044118 142.040835 
L 164.62181 142.044693 
L 165.239342 141.917381 
L 165.458466 141.95596 
L 165.67759 141.952102 
L 166.414645 141.921239 
L 166.892734 141.998398 
L 167.609868 141.963676 
L 167.948515 141.982966 
L 172.589966 142.006113 
L 172.669647 142.507644 
L 172.749329 142.2916 
L 173.048135 141.6589 
L 173.725428 140.814013 
L 174.761288 139.583333 
L 175.000333 139.324852 
L 175.239377 139.101092 
L 176.076034 138.314074 
L 176.833009 137.731527 
L 177.052133 137.488477 
L 177.510302 137.048673 
L 177.90871 136.778618 
L 178.825048 136.045612 
L 183.944588 133.198459 
L 184.123871 133.090437 
L 184.601961 132.885967 
L 184.960528 132.689213 
L 185.478458 132.372862 
L 185.916706 132.237835 
L 186.135831 132.179966 
L 186.354955 132.110523 
L 186.793204 132.002501 
L 187.032248 131.906053 
L 187.092009 131.902195 
L 187.11193 131.867474 
L 187.231452 131.817321 
L 187.251373 131.83661 
L 187.370895 131.798031 
L 187.64978 131.643714 
L 187.809143 131.608992 
L 188.207551 131.50097 
L 189.582058 131.076598 
L 189.761342 131.003297 
L 190.080068 130.887559 
L 191.19561 130.563493 
L 191.753381 130.362881 
L 191.932664 130.339733 
L 193.366932 129.899929 
L 193.566136 129.899929 
L 194.024305 129.745612 
L 194.183668 129.710891 
L 194.462554 129.633732 
L 195.000404 129.529568 
L 195.498414 129.436978 
L 195.657777 129.409972 
L 196.076105 129.363677 
L 196.992443 129.259513 
L 197.35101 129.178497 
L 198.38687 129.074332 
L 199.163766 128.87372 
L 199.36297 128.904583 
L 199.681696 128.947021 
L 199.8809 128.912299 
L 200.119944 128.819709 
L 200.378909 128.811993 
L 201.394849 128.719403 
L 201.673735 128.723261 
L 201.892859 128.711687 
L 202.052222 128.680824 
L 202.609993 128.580517 
L 203.207605 128.568944 
L 203.406809 128.565086 
L 204.542271 128.457064 
L 205.51837 128.360615 
L 205.697654 128.329752 
L 206.653832 128.410768 
L 206.992479 128.395337 
L 207.311205 128.345184 
L 207.610011 128.298888 
L 207.908817 128.295031 
L 208.347065 128.20244 
L 208.546269 128.160003 
L 209.482528 128.09056 
L 209.741493 128.121424 
L 210.538308 128.063555 
L 210.657831 128.051981 
L 210.996477 127.982538 
L 211.414805 127.959391 
L 212.072178 127.820505 
L 212.251462 127.824363 
L 212.829153 127.932385 
L 213.068198 127.951675 
L 214.880953 127.851369 
L 215.080157 127.828221 
L 215.677769 127.820505 
L 215.896893 127.801216 
L 216.175779 127.762636 
L 216.335142 127.778068 
L 216.633948 127.758778 
L 216.813231 127.758778 
L 217.231559 127.789642 
L 217.371002 127.758778 
L 217.530365 127.77421 
L 218.725589 127.878374 
L 219.203678 127.951675 
L 219.502484 127.951675 
L 219.761449 128.036549 
L 220.060255 127.986396 
L 220.299299 128.036549 
L 220.538344 128.125282 
L 221.454682 128.055839 
L 221.614045 128.059697 
L 222.291338 128.036549 
L 222.610065 128.094418 
L 223.127995 128.102134 
L 223.765447 128.117566 
L 224.223616 128.140713 
L 224.661865 128.194724 
L 224.841148 128.175435 
L 225.239556 128.287315 
L 227.51048 128.190866 
L 227.869047 127.924669 
L 228.406898 127.920811 
L 228.685783 127.97868 
L 230.657902 128.252593 
L 230.916867 128.31432 
L 231.295355 128.279599 
L 231.634001 128.190866 
L 231.972648 128.271883 
L 232.171852 128.248735 
L 233.466677 128.387621 
L 235.877044 128.295031 
L 236.096168 128.237162 
L 236.295372 128.260309 
L 236.454735 128.244877 
L 236.713701 128.271883 
L 237.052347 128.256451 
L 237.251551 128.279599 
L 238.22765 128.20244 
L 238.446774 128.179293 
L 239.143988 128.156145 
L 239.402953 128.148429 
L 239.781441 128.179293 
L 240.020485 128.20244 
L 240.438813 128.233304 
L 242.231649 128.325894 
L 242.410932 128.391479 
L 242.789419 128.356757 
L 242.928862 128.325894 
L 243.367111 128.271883 
L 243.82528 128.295031 
L 244.642016 128.349042 
L 244.88106 128.318178 
L 245.159946 128.3529 
L 245.837239 128.379905 
L 246.056363 128.372189 
L 246.39501 128.399195 
L 246.753577 128.376047 
L 247.211746 128.457064 
L 247.41095 128.430058 
L 247.729676 128.441632 
L 247.90896 128.391479 
L 250.000601 128.484069 
L 250.179884 128.526506 
L 251.474709 128.634528 
L 252.669933 128.754124 
L 253.128102 128.684681 
L 253.367146 128.696255 
L 253.606191 128.707829 
L 253.865156 128.738692 
L 254.04444 128.757982 
L 254.721733 128.707829 
L 254.721733 128.707829 
" clip-path="url(#p41071e3f1a)" style="fill: none; stroke: #000000; stroke-opacity: 0.5; stroke-width: 1.5; stroke-linecap: square"/>
   </g>
   <g id="line2d_16">
    <path d="M 51.812642 129.20936 
L 52.051687 129.271087 
L 52.669219 129.259513 
L 53.167229 129.344387 
L 53.326592 129.363677 
L 53.525796 129.348245 
L 53.724999 129.294234 
L 54.023805 129.30195 
L 54.183168 129.305808 
L 54.442134 129.298092 
L 54.800701 129.34053 
L 55.597516 129.386825 
L 55.736959 129.398399 
L 56.29473 129.394541 
L 56.553695 129.363677 
L 57.450112 129.463983 
L 57.709077 129.487131 
L 58.764858 129.595153 
L 58.964062 129.591295 
L 65.876437 129.483273 
L 66.135402 129.448552 
L 66.294765 129.417688 
L 68.087601 129.521852 
L 68.386406 129.529568 
L 68.625451 129.510278 
L 68.884416 129.537284 
L 69.960117 129.641448 
L 70.179241 129.668454 
L 71.215102 129.757186 
L 71.513908 129.745612 
L 71.912315 129.853634 
L 72.988016 129.884498 
L 73.067698 130.359023 
L 73.127459 130.21628 
L 73.505947 129.386825 
L 74.581648 127.920811 
L 75.916314 126.531952 
L 76.21512 126.234891 
L 81.474103 120.991964 
L 81.772908 120.760489 
L 81.892431 120.629319 
L 82.131475 120.359264 
L 88.107592 114.425768 
L 88.645443 113.449712 
L 88.884488 113.002192 
L 89.741064 111.115664 
L 90.657402 107.404335 
L 90.737084 105.602682 
L 90.796845 84.330054 
L 90.936288 14.76 
L 90.976128 18.073962 
L 91.613581 109.734525 
L 91.713183 109.908132 
L 91.733103 109.884984 
L 91.892466 109.279289 
L 92.629521 105.861163 
L 93.08769 104.84267 
L 93.645461 104.252407 
L 93.824744 104.329565 
L 94.14347 104.175248 
L 94.382515 104.109663 
L 94.661401 104.017073 
L 94.800843 104.009357 
L 95.219172 103.916767 
L 95.517977 103.727728 
L 95.876544 103.550263 
L 96.015987 103.534832 
L 96.135509 103.503968 
L 96.314793 103.515542 
L 96.613599 103.573411 
L 96.772962 103.403662 
L 96.992086 103.272493 
L 97.290892 103.226197 
L 98.147469 102.844262 
L 98.386513 102.786393 
L 98.525956 102.558775 
L 98.72516 102.234709 
L 98.745081 102.242425 
L 98.864603 102.19613 
L 99.103648 101.964654 
L 99.22317 102.034097 
L 99.382533 102.076534 
L 99.601657 102.061103 
L 99.780941 102.026381 
L 99.960224 101.980086 
L 100.039906 101.926075 
L 100.199269 101.667594 
L 100.25903 101.702315 
L 100.438314 101.679167 
L 100.517995 101.598151 
L 100.796881 101.173779 
L 101.016005 100.923013 
L 101.27497 100.533362 
L 101.374572 100.433056 
L 101.812821 100.000968 
L 102.27099 97.879107 
L 102.31083 96.741017 
L 102.370591 84.071573 
L 102.549875 18.826258 
L 102.609636 22.487434 
L 103.406452 106.405132 
L 103.645496 108.060184 
L 103.944302 108.615725 
L 104.123586 108.889638 
L 105.757058 112.288475 
L 106.852679 114.576227 
L 107.251087 115.20507 
L 108.326788 116.674941 
L 108.844718 117.326931 
L 109.302887 117.909478 
L 109.681375 118.24126 
L 110.000101 118.542179 
L 110.557872 119.101579 
L 110.936359 119.483514 
L 111.633573 119.861591 
L 111.892538 120.039056 
L 112.350707 120.324543 
L 112.569831 120.444138 
L 112.848717 120.498149 
L 114.920437 121.589944 
L 114.960278 121.574512 
L 115.020039 121.640097 
L 118.545948 122.218786 
L 118.984197 122.164775 
L 120.378624 122.326808 
L 120.557907 122.36153 
L 120.717271 122.326808 
L 121.035997 122.369245 
L 121.155519 122.346098 
L 121.314882 122.295945 
L 121.573847 122.326808 
L 123.924453 122.222644 
L 124.203339 122.187923 
L 124.422463 122.157059 
L 124.741189 122.060611 
L 124.980234 121.832993 
L 125.378642 121.87543 
L 125.657527 121.87543 
L 126.115696 121.863857 
L 126.275059 121.867715 
L 127.131636 121.921726 
L 128.964312 121.454916 
L 129.36272 121.281309 
L 129.940411 121.173287 
L 130.099774 121.042118 
L 130.259137 120.976533 
L 130.89659 120.995822 
L 131.773087 120.768205 
L 131.892609 120.718051 
L 132.251176 120.521297 
L 132.589823 120.444138 
L 133.047992 120.343832 
L 133.585842 120.154794 
L 133.864728 120.147078 
L 135.00019 120.039056 
L 135.139633 120.081493 
L 135.577881 119.977329 
L 135.757165 119.977329 
L 136.03605 119.931034 
L 136.215334 119.934892 
L 136.494219 119.981187 
L 136.733264 119.965755 
L 136.972309 119.915602 
L 137.251194 119.834586 
L 137.808965 119.730421 
L 138.247214 119.668695 
L 138.506179 119.610826 
L 139.283074 119.421787 
L 140.059969 119.313765 
L 141.275113 118.954977 
L 141.534078 118.947262 
L 142.291053 118.700354 
L 142.470336 118.619338 
L 142.988266 118.627053 
L 143.745241 118.669491 
L 143.884684 118.704212 
L 144.083888 118.681064 
L 144.283092 118.638627 
L 145.079907 118.681064 
L 145.73728 118.654059 
L 145.916564 118.657917 
L 146.195449 118.650201 
L 146.514175 118.642485 
L 147.530115 118.333851 
L 147.928523 118.218113 
L 148.207408 118.171818 
L 148.366772 118.160244 
L 148.924543 118.14867 
L 149.163587 118.202681 
L 149.581915 118.013643 
L 149.741278 117.978921 
L 150.438492 118.013643 
L 150.617776 118.002069 
L 150.797059 118.029074 
L 151.255228 118.098517 
L 151.474352 118.083085 
L 151.773158 118.12938 
L 154.900659 118.029074 
L 155.119784 118.025216 
L 155.239306 117.971205 
L 155.378749 118.025216 
L 155.577953 118.017501 
L 155.717395 118.075369 
L 156.534131 118.121665 
L 156.813017 118.079227 
L 157.251265 117.975063 
L 157.390708 117.998211 
L 157.569992 118.029074 
L 158.884737 117.867041 
L 159.044101 117.874757 
L 159.621792 117.766735 
L 160.06004 117.820746 
L 160.498289 117.716582 
L 160.896697 117.542975 
L 161.235343 117.558407 
L 161.633751 117.581554 
L 161.852876 117.612418 
L 162.111841 117.596986 
L 162.450487 117.527543 
L 162.988338 117.527543 
L 163.446507 117.670287 
L 164.183561 117.70115 
L 166.095919 117.593128 
L 166.334963 117.581554 
L 166.574008 117.612418 
L 166.773212 117.600844 
L 166.992336 117.631708 
L 167.629789 117.654855 
L 167.848913 117.650997 
L 168.127798 117.689576 
L 168.884773 117.732014 
L 169.482385 117.616276 
L 169.701509 117.616276 
L 169.920633 117.577697 
L 170.817051 117.51597 
L 170.976414 117.523686 
L 171.753309 117.566123 
L 172.072036 117.500538 
L 172.29116 117.442669 
L 172.450523 117.36551 
L 172.470443 117.380942 
L 172.570045 117.419521 
L 172.589966 117.392516 
L 172.669647 116.917991 
L 172.729408 117.080024 
L 173.068055 117.863183 
L 173.386781 118.438015 
L 173.665667 118.854671 
L 174.024234 119.309907 
L 174.542164 120.004334 
L 176.39476 121.948731 
L 176.852929 122.384677 
L 177.151735 122.666306 
L 177.490382 123.052099 
L 177.90871 123.42246 
L 178.745366 124.089882 
L 178.94457 124.240341 
L 179.721465 124.819031 
L 179.98043 124.950201 
L 183.984429 127.149221 
L 187.848984 128.53808 
L 188.048188 128.565086 
L 188.327074 128.646102 
L 190.378874 129.155349 
L 191.076087 129.317382 
L 191.315132 129.290376 
L 191.69362 129.390683 
L 191.952585 129.45241 
L 194.143827 129.764902 
L 195.876901 129.869066 
L 196.414752 129.969372 
L 196.613956 129.977088 
L 196.892841 130.081252 
L 197.649816 130.262575 
L 197.888861 130.32816 
L 198.38687 130.312728 
L 198.765358 130.339733 
L 199.044243 130.428466 
L 199.323129 130.428466 
L 201.115964 130.6638 
L 202.012381 130.764106 
L 202.211585 130.764106 
L 202.629914 130.794969 
L 202.888879 130.779537 
L 203.96458 130.875986 
L 204.183704 130.922281 
L 205.159803 130.845122 
L 205.359007 130.841264 
L 205.53829 130.837406 
L 205.857017 130.82969 
L 206.793275 130.899133 
L 207.151842 130.84898 
L 207.311205 130.864412 
L 208.028339 130.891417 
L 208.187702 130.899133 
L 208.58611 130.933855 
L 208.845075 130.968576 
L 209.123961 130.933855 
L 209.701652 130.957002 
L 209.980537 130.798827 
L 210.259423 130.856696 
L 210.398866 130.86827 
L 210.697671 130.918423 
L 211.275363 131.030303 
L 211.713611 131.057308 
L 213.267402 131.16533 
L 213.466606 131.20391 
L 214.064217 131.196194 
L 214.263421 131.161472 
L 214.841112 131.157615 
L 215.080157 131.134467 
L 216.016415 131.065024 
L 218.048295 130.96086 
L 218.227579 130.976292 
L 218.964633 131.018729 
L 219.701688 130.717811 
L 222.570224 130.609788 
L 222.749507 130.648368 
L 223.147915 130.694663 
L 223.367039 130.6638 
L 223.964651 130.667657 
L 224.562263 130.656084 
L 224.861069 130.667657 
L 225.060272 130.671515 
L 231.673842 130.567351 
L 231.952727 130.575067 
L 232.291374 130.53263 
L 232.789384 130.548062 
L 233.267473 130.528772 
L 235.896965 130.424608 
L 236.355134 130.355165 
L 236.753541 130.324302 
L 239.24359 129.950082 
L 239.462714 129.926935 
L 240.27945 129.726323 
L 240.638017 129.753328 
L 241.175868 129.65688 
L 241.474674 129.707033 
L 241.673878 129.626016 
L 241.952763 129.575863 
L 242.171887 129.517994 
L 242.33125 129.490989 
L 242.590216 129.502563 
L 242.968703 129.467841 
L 243.187827 129.463983 
L 243.8452 129.564289 
L 244.084245 129.575863 
L 244.681856 129.676169 
L 244.86114 129.683885 
L 245.060344 129.691601 
L 245.578274 129.703175 
L 245.677876 129.63759 
L 245.837239 129.587437 
L 248.665934 129.687743 
L 248.805377 129.65688 
L 248.96474 129.641448 
L 249.502591 129.737896 
L 249.661954 129.76876 
L 250.339247 129.745612 
L 250.697814 129.76876 
L 251.076302 129.73018 
L 251.51455 129.676169 
L 252.03248 129.687743 
L 252.291445 129.683885 
L 252.51057 129.63759 
L 252.689853 129.641448 
L 254.343246 129.533426 
L 254.721733 129.483273 
L 254.721733 129.483273 
" clip-path="url(#p41071e3f1a)" style="fill: none; stroke: #000000; stroke-opacity: 0.5; stroke-width: 1.5; stroke-linecap: square"/>
   </g>
   <g id="line2d_17">
    <path d="M 51.812642 128.881436 
L 51.991926 128.896868 
L 54.043726 128.788846 
L 54.26285 128.784988 
L 54.661258 128.819709 
L 55.059666 128.792704 
L 55.318631 128.800419 
L 55.557675 128.811993 
L 55.7768 128.842857 
L 60.39833 128.939305 
L 60.597534 128.958594 
L 60.816658 128.950879 
L 62.748936 129.213218 
L 63.685194 129.132201 
L 63.904319 129.143775 
L 64.402328 129.151491 
L 64.860497 129.220934 
L 65.159303 129.220934 
L 66.394367 129.11677 
L 66.812696 129.001032 
L 67.56967 129.043469 
L 67.788795 129.058901 
L 67.987999 129.085906 
L 72.828653 128.977884 
L 72.968096 128.908441 
L 72.988016 128.9856 
L 73.067698 131.327363 
L 73.127459 130.486335 
L 73.446185 126.798149 
L 74.123479 122.079901 
L 75.2191 113.746772 
L 75.418304 110.455958 
L 75.458145 107.454489 
L 75.537826 61.163184 
L 75.637428 17.468267 
L 75.677269 20.446589 
L 76.274881 108.993803 
L 76.354562 109.248426 
L 76.394403 109.190557 
L 76.533846 108.592578 
L 77.031856 105.182168 
L 77.78883 100.672248 
L 78.127477 98.025708 
L 78.227079 96.532689 
L 78.28684 89.194906 
L 78.505964 27.618482 
L 78.585646 32.695517 
L 79.3227 102.51248 
L 79.541825 103.685291 
L 79.701188 103.61199 
L 79.82071 103.349651 
L 80.199198 102.427606 
L 81.992033 97.612909 
L 82.709167 94.109909 
L 82.808769 92.39313 
L 82.88845 80.298518 
L 83.127495 28.193313 
L 83.167336 29.204091 
L 83.346619 43.200661 
L 84.023912 97.393007 
L 84.282877 101.223932 
L 84.561763 102.547202 
L 84.94025 103.044875 
L 85.43826 103.033301 
L 86.4542 102.018665 
L 88.107592 100.622095 
L 88.625522 99.43771 
L 89.223134 98.176167 
L 89.701224 96.582842 
L 90.139472 94.395396 
L 90.278915 92.609174 
L 90.338676 86.293741 
L 90.597641 25.018236 
L 90.677323 28.772003 
L 91.05581 67.347447 
L 91.414377 96.04659 
L 91.673342 101.737036 
L 91.952228 103.615848 
L 92.310795 104.472309 
L 92.529919 104.626626 
L 93.027929 104.93526 
L 93.286894 104.962266 
L 93.466177 104.985413 
L 93.62554 105.043282 
L 93.964187 105.2709 
L 94.840684 105.332627 
L 95.179331 105.15902 
L 96.055828 104.534036 
L 96.255032 104.429871 
L 97.848663 103.056448 
L 98.605638 102.17684 
L 98.964205 101.374391 
L 99.282931 100.896008 
L 99.940304 99.973962 
L 100.557836 97.852101 
L 100.996085 94.302806 
L 101.055846 87.200354 
L 101.27497 22.981249 
L 101.374572 28.363062 
L 102.191308 101.540282 
L 102.430353 103.878188 
L 102.749079 104.800233 
L 103.207248 105.521666 
L 103.705258 106.100355 
L 104.063825 106.343405 
L 104.282949 106.497722 
L 104.701277 106.486148 
L 104.84072 106.50158 
L 105.020003 106.509296 
L 106.195306 106.169798 
L 106.454271 105.96147 
L 106.693316 105.814868 
L 106.992122 105.822584 
L 108.047903 105.506234 
L 108.286947 105.340343 
L 108.565833 105.17831 
L 109.282967 104.877391 
L 109.422409 104.858102 
L 109.780976 104.441445 
L 110.159464 104.051794 
L 110.298907 103.990067 
L 110.896518 103.449957 
L 111.075802 103.345793 
L 111.613652 102.794109 
L 111.872617 102.543344 
L 112.171423 102.246283 
L 113.426408 99.846651 
L 114.482188 95.857551 
L 114.601711 94.206357 
L 114.661472 86.675676 
L 114.880596 22.757489 
L 114.960278 26.723442 
L 115.378606 79.503784 
L 115.657491 99.449284 
L 115.896536 103.554121 
L 116.135581 104.723074 
L 116.673431 105.702988 
L 118.008097 107.095701 
L 119.004117 107.184433 
L 119.442366 107.122707 
L 119.601729 107.111133 
L 121.115678 106.70605 
L 121.932414 106.281678 
L 122.251141 105.988475 
L 122.709309 105.695272 
L 123.207319 105.062572 
L 123.466284 104.796375 
L 123.585807 104.726932 
L 123.864692 104.37586 
L 124.741189 103.527116 
L 125.199358 103.218482 
L 125.378642 103.187618 
L 126.175457 102.608929 
L 126.414502 102.427606 
L 126.653547 102.246283 
L 126.81291 102.061103 
L 126.852751 102.08425 
L 126.952353 101.980086 
L 127.231238 101.74861 
L 128.904551 99.642181 
L 129.781048 97.948549 
L 130.478262 94.229505 
L 130.538023 90.537466 
L 130.637625 57.000478 
L 130.796988 22.595456 
L 130.816908 23.104702 
L 130.93643 34.385291 
L 131.553963 99.673044 
L 131.793007 103.993925 
L 132.051972 105.205315 
L 132.350778 105.768573 
L 132.549982 106.061776 
L 132.828868 106.270104 
L 133.346798 106.586454 
L 133.546002 106.698334 
L 133.884648 106.733056 
L 134.044011 106.748487 
L 134.243215 106.81793 
L 134.462339 106.794783 
L 134.661543 106.806356 
L 135.757165 106.493864 
L 136.135652 106.212235 
L 136.394617 106.05406 
L 136.633662 105.791721 
L 136.832866 105.749284 
L 137.03207 105.618114 
L 137.410557 105.278616 
L 137.868726 104.892823 
L 138.06793 104.811807 
L 138.665542 104.815664 
L 139.322915 104.453019 
L 139.462357 104.464593 
L 140.09981 104.101947 
L 140.318934 104.009357 
L 140.418536 103.897477 
L 140.737262 103.561837 
L 141.195431 103.075738 
L 141.613759 102.608929 
L 141.773123 102.508622 
L 141.972326 102.416032 
L 142.251212 102.134403 
L 142.510177 101.737036 
L 143.287072 100.733975 
L 144.163569 99.557306 
L 144.70142 98.419217 
L 145.159589 96.987925 
L 145.657599 93.585231 
L 145.71736 91.170166 
L 145.797041 70.487802 
L 145.976325 22.66104 
L 145.996245 22.803784 
L 146.095847 30.384617 
L 146.832902 100.926871 
L 147.071946 103.839608 
L 147.291071 104.607336 
L 147.74924 105.336485 
L 148.984304 106.381984 
L 149.263189 106.327973 
L 149.442473 106.347263 
L 149.940482 106.455285 
L 150.259209 106.517012 
L 151.215387 106.420563 
L 151.434512 106.366552 
L 151.793079 106.459143 
L 152.191486 106.486148 
L 152.35085 106.478432 
L 152.609815 106.270104 
L 152.828939 106.123503 
L 153.087904 106.061776 
L 154.263207 105.490802 
L 154.621774 105.128157 
L 154.820978 104.981555 
L 156.932539 103.210766 
L 157.191504 102.975432 
L 158.087922 101.582719 
L 158.346887 101.169921 
L 159.322986 99.156081 
L 159.482349 98.936179 
L 159.940518 98.426933 
L 160.0202 98.322768 
L 160.597891 96.320503 
L 160.956458 93.870717 
L 161.016219 90.718789 
L 161.115821 59.766614 
L 161.275184 23.01597 
L 161.295105 23.343894 
L 161.414627 33.617562 
L 162.09192 99.854367 
L 162.350885 103.735444 
L 162.629771 105.093435 
L 163.048099 106.03477 
L 164.223402 106.821788 
L 164.801093 106.806356 
L 165.000297 106.83722 
L 165.15966 106.844936 
L 166.075998 106.748487 
L 166.354884 106.667471 
L 166.793132 106.563307 
L 167.251301 106.343405 
L 167.589948 106.104213 
L 167.908674 105.903601 
L 168.107878 105.872737 
L 168.20748 105.814868 
L 168.645728 105.405928 
L 168.844932 105.263184 
L 168.884773 105.297906 
L 169.024216 105.166736 
L 169.661668 104.576473 
L 169.840952 104.468451 
L 170.25928 104.105805 
L 170.578006 103.766308 
L 170.77721 103.72387 
L 170.936573 103.577269 
L 171.115857 103.415236 
L 171.514265 102.882842 
L 171.753309 102.616644 
L 172.390762 101.987802 
L 172.589966 101.74861 
L 172.669647 99.294967 
L 172.729408 100.043405 
L 173.048135 103.635138 
L 173.785189 108.523135 
L 174.621845 112.481371 
L 176.613884 119.398639 
L 177.968471 122.766612 
L 178.526242 123.831401 
L 179.681624 126.041995 
L 180.179634 126.782717 
L 180.657724 127.473287 
L 180.896768 127.731773 
L 181.5143 128.484069 
L 182.350957 129.271087 
L 182.570081 129.506421 
L 182.988409 129.876782 
L 184.641801 131.018729 
L 186.295194 131.859758 
L 186.753363 131.963922 
L 187.450576 132.241693 
L 188.088029 132.465453 
L 188.346994 132.569617 
L 188.725481 132.60048 
L 188.924685 132.669923 
L 189.641819 132.831956 
L 189.761342 132.855104 
L 190.040227 132.939978 
L 190.418715 132.970842 
L 190.757361 133.051858 
L 190.956565 133.036426 
L 191.374893 133.063432 
L 192.350992 133.14059 
L 192.590037 133.156022 
L 193.048206 133.136733 
L 193.506375 133.152164 
L 193.884862 133.183028 
L 194.183668 133.17917 
L 197.510373 133.071148 
L 197.968542 133.090437 
L 198.187667 133.06729 
L 198.486472 133.001705 
L 198.725517 133.017137 
L 199.621935 132.920688 
L 199.781298 132.932262 
L 200.219546 132.905257 
L 200.378909 132.905257 
L 201.096044 132.932262 
L 202.43071 132.828098 
L 202.609993 132.84353 
L 203.187684 132.743224 
L 203.347048 132.766371 
L 203.625933 132.758655 
L 206.0363 132.399868 
L 206.474549 132.380578 
L 206.653832 132.399868 
L 207.251444 132.403726 
L 207.928737 132.37672 
L 208.0881 132.372862 
L 210.63791 131.971638 
L 210.797273 131.979354 
L 211.15584 131.894479 
L 211.833134 131.921485 
L 212.15186 131.863616 
L 212.590108 131.844326 
L 212.769392 131.840468 
L 213.207641 131.774883 
L 213.287322 131.782599 
L 213.327163 131.747878 
L 214.064217 131.639856 
L 214.681749 131.63214 
L 215.777371 131.527976 
L 215.976575 131.558839 
L 216.076177 131.601276 
L 216.116017 131.547265 
L 216.335142 131.423812 
L 216.793311 131.273352 
L 217.709649 131.338937 
L 218.506464 131.230915 
L 218.884952 131.200052 
L 219.223598 131.099746 
L 219.482563 131.068882 
L 219.940732 131.138325 
L 220.876991 131.065024 
L 221.056274 131.07274 
L 221.534363 131.09203 
L 221.713647 131.045735 
L 222.251498 130.949286 
L 223.088154 130.845122 
L 223.267437 130.86827 
L 227.052311 130.764106 
L 227.311277 130.725526 
L 227.51048 130.686947 
L 232.211692 130.594357 
L 232.410896 130.540346 
L 233.187792 130.582783 
L 233.466677 130.640652 
L 233.586199 130.602073 
L 233.785403 130.598215 
L 233.904926 130.540346 
L 234.084209 130.486335 
L 234.761502 130.505624 
L 235.13999 130.470903 
L 235.518477 130.432324 
L 235.777442 130.405318 
L 236.215691 130.509482 
L 236.355134 130.467045 
L 242.371091 130.370597 
L 242.630056 130.297296 
L 243.885041 130.40146 
L 244.283449 130.451613 
L 244.562334 130.409176 
L 245.239627 130.436182 
L 245.598194 130.347449 
L 245.996602 130.386029 
L 246.215726 130.324302 
L 246.41493 130.359023 
L 247.849198 130.258717 
L 248.048402 130.220138 
L 248.526492 130.204706 
L 248.825298 130.200848 
L 249.383068 130.19699 
L 253.008579 130.092826 
L 253.207783 129.946225 
L 253.646032 129.926935 
L 253.885077 129.942367 
L 254.642051 129.984804 
L 254.721733 129.934651 
L 254.721733 129.934651 
" clip-path="url(#p41071e3f1a)" style="fill: none; stroke: #000000; stroke-opacity: 0.5; stroke-width: 1.5; stroke-linecap: square"/>
   </g>
   <g id="line2d_18">
    <path d="M 51.812642 128.676966 
L 51.991926 128.700113 
L 55.577596 128.796561 
L 55.736959 128.788846 
L 56.334571 128.784988 
L 56.474013 128.78113 
L 56.693138 128.723261 
L 57.011864 128.734835 
L 58.625415 128.835141 
L 58.764858 128.792704 
L 59.163266 128.823567 
L 59.641355 128.815851 
L 59.8804 128.792704 
L 60.816658 128.87372 
L 60.976021 128.904583 
L 62.250926 129.012606 
L 62.987981 129.047327 
L 63.505911 129.058901 
L 63.764876 129.043469 
L 64.203125 129.066617 
L 65.039781 129.128343 
L 65.238985 129.136059 
L 67.430228 129.028037 
L 67.669272 129.016463 
L 68.04776 129.047327 
L 68.984018 129.120628 
L 69.302744 129.051185 
L 69.701152 129.093622 
L 69.920276 129.124485 
L 70.657331 129.085906 
L 70.856535 129.089764 
L 71.215102 129.008748 
L 71.61351 128.977884 
L 71.991997 128.943163 
L 72.17128 128.935447 
L 72.390405 128.927731 
L 72.748972 128.889152 
L 72.968096 128.831283 
L 72.988016 128.943163 
L 73.067698 132.477027 
L 73.127459 131.269494 
L 73.426265 126.130727 
L 74.561727 110.726013 
L 74.621488 95.116829 
L 74.760931 18.695088 
L 74.820692 24.092332 
L 75.338622 107.871145 
L 75.438224 108.584862 
L 75.478065 108.542425 
L 75.637428 107.527789 
L 76.354562 101.277943 
L 76.772891 96.872187 
L 76.852572 94.777331 
L 76.932254 80.252223 
L 77.131458 30.982596 
L 77.171298 31.962511 
L 77.330661 48.983699 
L 77.828671 99.256388 
L 78.047795 102.06496 
L 78.127477 102.226994 
L 78.167318 102.17684 
L 78.426283 101.405254 
L 79.143417 97.902254 
L 80.039834 91.490375 
L 80.119516 89.040589 
L 80.239038 68.06888 
L 80.478083 33.945487 
L 80.517924 34.350569 
L 80.657367 40.92834 
L 81.593625 96.710154 
L 81.85259 98.720135 
L 82.051794 99.148365 
L 82.310759 98.994048 
L 83.247017 97.36986 
L 84.621524 92.512726 
L 84.960171 89.665574 
L 85.039852 87.354674 
L 85.159375 67.270288 
L 85.398419 33.837464 
L 85.41834 33.717869 
L 85.45818 34.122951 
L 85.597623 39.389026 
L 86.075713 69.785659 
L 86.494041 92.042059 
L 86.792847 97.867533 
L 87.071732 99.742487 
L 87.310777 100.236302 
L 87.47014 100.409909 
L 87.649423 100.544936 
L 87.669344 100.517931 
L 87.948229 100.24016 
L 88.426319 99.850509 
L 89.043851 98.99019 
L 89.50202 98.303479 
L 90.358596 95.491048 
L 91.115571 91.880026 
L 91.255014 89.827607 
L 91.314775 85.267531 
L 91.633501 30.511929 
L 91.733103 33.166185 
L 92.07175 56.17488 
L 92.689282 94.237221 
L 92.988088 99.125218 
L 93.247053 100.321176 
L 93.685301 100.880576 
L 93.924346 100.896008 
L 94.820764 100.610521 
L 95.099649 100.390619 
L 95.737102 99.484005 
L 95.996067 99.217808 
L 97.012007 97.23869 
L 97.70922 95.309725 
L 97.968185 94.51885 
L 98.346673 92.805929 
L 98.525956 90.599193 
L 98.585717 85.556876 
L 98.884523 29.393129 
L 98.984125 33.08131 
L 99.442294 69.588904 
L 99.820782 93.060552 
L 100.099667 98.442364 
L 100.418393 100.541078 
L 100.717199 101.277943 
L 101.215209 101.459265 
L 101.673378 101.069615 
L 101.972184 100.849713 
L 102.868601 99.842793 
L 102.968203 99.738629 
L 102.988124 99.769492 
L 103.247089 100.085842 
L 103.386531 99.989394 
L 103.525974 100.020258 
L 103.725178 99.981678 
L 103.884541 99.90452 
L 104.282949 99.36441 
L 104.681357 98.824299 
L 104.820799 98.747141 
L 105.557854 97.566614 
L 106.474192 95.182414 
L 107.071803 92.493436 
L 107.251087 90.502745 
L 107.310848 85.626319 
L 107.609654 28.467226 
L 107.709256 32.502621 
L 108.127584 69.318849 
L 108.486151 92.852224 
L 108.765037 98.592824 
L 109.083763 100.471635 
L 109.541932 101.598151 
L 109.741136 101.67531 
L 109.96026 101.764042 
L 110.119623 101.856632 
L 110.836757 101.567288 
L 111.075802 101.517134 
L 112.251105 100.471635 
L 113.087761 99.348978 
L 113.406487 98.797294 
L 114.163462 97.420013 
L 114.621631 96.077453 
L 115.020039 94.673167 
L 115.458288 92.798213 
L 115.637571 90.595335 
L 115.697332 86.197292 
L 115.996138 28.957183 
L 116.11566 33.656142 
L 116.533989 70.877453 
L 116.892556 94.333669 
L 117.151521 99.179229 
L 117.450327 101.007888 
L 117.928416 101.995518 
L 118.187381 102.107398 
L 118.64555 101.964654 
L 119.103719 101.856632 
L 119.601729 101.56343 
L 120.039977 101.07733 
L 120.358703 100.838139 
L 120.757111 100.413766 
L 121.055917 99.99711 
L 121.673449 99.02877 
L 122.330822 98.11444 
L 122.689389 97.431587 
L 122.948354 97.157674 
L 124.203339 94.271942 
L 124.860712 90.591477 
L 124.940393 87.462696 
L 125.059915 60.96643 
L 125.259119 28.262756 
L 125.29896 28.779718 
L 125.438403 37.62981 
L 126.235218 96.239486 
L 126.514104 99.823503 
L 126.81291 101.092762 
L 127.510123 101.875922 
L 127.86869 101.852774 
L 128.187417 101.679167 
L 129.342799 100.915297 
L 129.621685 100.814991 
L 129.820889 100.598947 
L 129.840809 100.622095 
L 129.920491 100.672248 
L 129.960331 100.637526 
L 130.39858 100.058837 
L 131.95237 97.161532 
L 132.310937 96.25106 
L 132.43046 96.081311 
L 133.167514 94.102193 
L 133.406559 93.006541 
L 134.123693 89.117748 
L 134.183454 87.339242 
L 134.283056 71.066491 
L 134.522101 29.528157 
L 134.542021 29.535873 
L 134.621703 32.606785 
L 134.98027 61.865327 
L 135.418518 92.157797 
L 135.697404 98.048855 
L 136.01613 100.406051 
L 136.275095 101.162205 
L 136.753184 101.922217 
L 136.992229 102.091966 
L 137.609761 102.21542 
L 137.928487 102.111256 
L 138.107771 102.095824 
L 138.267134 102.022523 
L 138.605781 101.737036 
L 139.024109 101.370533 
L 139.641641 100.818849 
L 139.801004 100.676106 
L 140.279093 99.954673 
L 141.235272 98.268757 
L 141.912565 96.744875 
L 142.191451 96.185475 
L 142.470336 95.50648 
L 142.848824 93.901581 
L 143.207391 91.652408 
L 143.306993 89.87776 
L 143.386674 79.955162 
L 143.66556 28.760429 
L 143.7054 29.57831 
L 143.864763 39.651365 
L 144.641659 95.163124 
L 144.920544 99.468574 
L 145.21935 101.112052 
L 145.637678 101.929933 
L 145.996245 102.346589 
L 146.354812 102.597355 
L 146.514175 102.666798 
L 146.534096 102.647508 
L 146.852822 102.53177 
L 147.151628 102.435322 
L 147.78908 102.06496 
L 148.028125 102.007092 
L 148.26717 101.690741 
L 148.80502 100.950019 
L 149.024144 100.799559 
L 149.28311 100.193864 
L 149.761199 99.499437 
L 150.239288 98.78572 
L 151.812999 95.406173 
L 151.892681 95.174698 
L 152.111805 94.599866 
L 152.311009 93.870717 
L 152.530133 92.84065 
L 152.988302 88.928709 
L 153.067984 79.426626 
L 153.346869 28.903172 
L 153.38671 29.724911 
L 153.546073 40.465389 
L 154.303048 95.193987 
L 154.562013 99.356694 
L 154.880739 101.081188 
L 155.199465 101.868206 
L 155.916599 102.666798 
L 156.374768 102.809541 
L 156.713415 102.686087 
L 156.892698 102.585781 
L 157.071982 102.458469 
L 157.291106 102.392885 
L 157.629753 102.21542 
L 159.00426 101.015604 
L 159.382747 100.413766 
L 159.681553 100.058837 
L 159.860837 99.788782 
L 160.179563 99.318114 
L 160.478369 99.129076 
L 160.697493 99.163797 
L 161.374786 98.318911 
L 161.494309 98.13373 
L 162.111841 96.714012 
L 162.370806 96.301213 
L 163.346905 93.562083 
L 163.844915 90.275127 
L 163.964437 88.19956 
L 164.044118 78.342547 
L 164.303083 28.868451 
L 164.362845 29.867655 
L 164.562049 43.343405 
L 165.299103 95.722524 
L 165.577988 99.669186 
L 165.916635 101.41297 
L 166.334963 102.566491 
L 166.69353 102.925279 
L 167.111858 103.187618 
L 167.291142 103.079596 
L 167.629789 103.056448 
L 167.948515 103.017869 
L 168.765251 102.423748 
L 170.079997 101.065757 
L 170.199519 100.926871 
L 170.558086 100.309602 
L 170.797131 100.205438 
L 171.79315 98.862879 
L 171.992354 98.465512 
L 172.231399 98.056571 
L 172.570045 97.420013 
L 172.609886 96.401519 
L 172.669647 93.60452 
L 172.729408 94.711746 
L 173.048135 100.008684 
L 173.566065 105.132015 
L 174.462482 111.381861 
L 175.3589 115.94965 
L 176.653725 120.984249 
L 177.271257 122.936361 
L 179.542182 127.936243 
L 179.840988 128.441632 
L 180.279236 129.11677 
L 181.095972 130.235569 
L 181.872867 131.119035 
L 182.01231 131.254063 
L 183.327056 132.384436 
L 183.605941 132.542611 
L 184.781244 133.318055 
L 186.554159 133.892887 
L 186.813124 133.94304 
L 187.11193 134.043346 
L 187.410736 134.097357 
L 188.745402 134.467718 
L 189.283252 134.564167 
L 189.741421 134.571882 
L 190.020307 134.649041 
L 190.358953 134.695336 
L 190.597998 134.587314 
L 191.155769 134.375128 
L 191.434654 134.409849 
L 192.331072 134.510156 
L 192.590037 134.579598 
L 192.928684 134.510156 
L 193.287251 134.59503 
L 194.721519 134.498582 
L 194.900802 134.487008 
L 196.096026 134.583456 
L 196.29523 134.610462 
L 199.701616 134.50244 
L 199.920741 134.50244 
L 200.219546 134.50244 
L 200.717556 134.425281 
L 202.092063 134.317259 
L 202.271347 134.224669 
L 202.570152 134.186089 
L 202.908799 134.008625 
L 203.307207 134.03563 
L 203.48649 134.031772 
L 203.685694 134.039488 
L 205.578131 133.935324 
L 205.996459 133.885171 
L 206.155823 133.85045 
L 207.430727 133.715422 
L 208.645871 133.611258 
L 208.984518 133.595826 
L 210.936716 133.491662 
L 211.13592 133.483946 
L 211.355044 133.534099 
L 211.494487 133.553389 
L 211.813213 133.568821 
L 212.072178 133.537957 
L 214.681749 133.429935 
L 214.940714 133.441509 
L 216.992515 133.333487 
L 217.311241 133.318055 
L 217.649887 133.337345 
L 217.849091 133.318055 
L 218.367021 133.306481 
L 218.606066 133.229323 
L 219.143917 133.125159 
L 219.363041 133.086579 
L 219.582165 133.055716 
L 219.861051 133.013279 
L 220.737548 132.905257 
L 222.86903 132.588907 
L 223.048313 132.608196 
L 223.347119 132.558043 
L 223.526402 132.585049 
L 224.183775 132.604338 
L 224.661865 132.531038 
L 225.239556 132.426873 
L 225.637964 132.388294 
L 228.446739 132.287988 
L 228.725624 132.253267 
L 229.960688 132.149103 
L 230.159892 132.179966 
L 230.299335 132.15296 
L 230.976628 132.122097 
L 231.235593 132.160676 
L 231.57424 132.141387 
L 233.785403 132.033365 
L 233.984607 132.014075 
L 234.223652 132.04108 
L 234.582219 132.006359 
L 234.781423 132.033365 
L 236.634019 131.925343 
L 236.932825 131.925343 
L 237.092188 131.902195 
L 237.669879 131.697725 
L 237.789402 131.620566 
L 237.809322 131.63214 
L 238.068287 131.663003 
L 238.74558 131.554981 
L 239.004545 131.562697 
L 239.24359 131.543408 
L 243.048385 131.439243 
L 243.247588 131.412238 
L 246.195806 131.308074 
L 246.41493 131.308074 
L 246.89302 131.200052 
L 247.171905 131.20391 
L 248.247606 131.304216 
L 248.506571 131.269494 
L 249.004581 131.261779 
L 249.303387 131.254063 
L 249.502591 131.246347 
L 249.920919 131.200052 
L 250.916938 131.09203 
L 251.116142 131.099746 
L 252.928898 130.999439 
L 253.148022 130.96086 
L 253.387067 130.976292 
L 253.745634 130.949286 
L 253.984679 130.976292 
L 254.163962 131.022587 
L 254.721733 130.910707 
L 254.721733 130.910707 
" clip-path="url(#p41071e3f1a)" style="fill: none; stroke: #000000; stroke-opacity: 0.5; stroke-width: 1.5; stroke-linecap: square"/>
   </g>
   <g id="line2d_19">
    <path d="M 51.812642 129.170781 
L 52.071607 129.147633 
L 52.450095 129.186212 
L 52.689139 129.170781 
L 52.987945 129.11677 
L 53.466034 129.043469 
L 53.645318 129.070474 
L 54.103487 129.055043 
L 54.24293 129.09748 
L 55.318631 129.201644 
L 55.557675 129.251797 
L 56.095526 129.255655 
L 56.29473 129.244081 
L 56.553695 129.247939 
L 57.031784 129.328956 
L 57.489953 129.255655 
L 57.948122 129.325098 
L 58.88438 129.251797 
L 59.103505 129.263371 
L 59.36247 129.271087 
L 59.501913 129.255655 
L 59.701116 129.240223 
L 60.019843 129.305808 
L 64.561692 129.406114 
L 65.139383 129.626016 
L 65.418268 129.626016 
L 65.577631 129.579721 
L 66.075641 129.591295 
L 66.613492 129.587437 
L 67.450148 129.537284 
L 67.689193 129.552716 
L 68.127441 129.533426 
L 68.466088 129.514136 
L 69.322665 129.406114 
L 69.60155 129.325098 
L 70.219082 129.332814 
L 70.418286 129.367535 
L 71.1155 129.394541 
L 71.414306 129.394541 
L 72.968096 129.406114 
L 72.988016 129.564289 
L 73.067698 134.243958 
L 73.127459 132.604338 
L 73.446185 125.413152 
L 74.18324 111.574758 
L 74.243001 92.528158 
L 74.382444 19.659571 
L 74.442205 26.561408 
L 74.920294 107.404335 
L 75.039817 108.646589 
L 75.079657 108.557856 
L 75.23902 107.24616 
L 75.995995 96.845181 
L 76.095597 93.808991 
L 76.195199 73.057183 
L 76.374483 36.17537 
L 76.414323 36.970104 
L 76.553766 49.639547 
L 77.071696 98.862879 
L 77.2709 100.961593 
L 77.330661 101.019461 
L 77.370502 100.969308 
L 77.549786 100.298029 
L 77.908353 97.848243 
L 78.426283 93.106847 
L 78.605566 90.039793 
L 78.685248 82.999069 
L 79.043815 41.013215 
L 79.083656 41.236975 
L 79.203178 44.786271 
L 79.541825 64.477146 
L 80.039834 91.62926 
L 80.2988 95.514196 
L 80.557765 96.602132 
L 80.697207 96.536547 
L 81.195217 95.251856 
L 82.310759 89.353082 
L 82.529883 86.980452 
L 82.609565 83.292271 
L 83.107574 40.534831 
L 83.127495 40.619706 
L 83.247017 42.479228 
L 83.505982 50.916522 
L 84.023912 76.093374 
L 84.482081 92.566737 
L 84.800808 97.254122 
L 85.059773 98.446222 
L 85.179295 98.504091 
L 85.199215 98.484802 
L 85.537862 98.010276 
L 85.756986 97.485598 
L 86.254996 96.297355 
L 86.633483 95.066676 
L 87.310777 91.243467 
L 87.509981 89.237344 
L 87.629503 86.594659 
L 87.729105 74.388169 
L 88.047831 36.217807 
L 88.087672 36.017195 
L 88.127513 36.41842 
L 88.286876 41.418297 
L 88.665363 60.626932 
L 89.302816 93.569799 
L 89.581701 97.821238 
L 89.880507 99.267961 
L 90.159392 99.611317 
L 90.637482 99.360552 
L 90.996049 98.588966 
L 91.633501 97.138384 
L 92.111591 95.776535 
L 92.310795 95.302009 
L 93.047849 91.309052 
L 93.207212 87.917932 
L 93.306814 73.682168 
L 93.5857 34.813521 
L 93.60562 34.682351 
L 93.645461 35.048854 
L 93.784903 40.044874 
L 94.243072 68.014869 
L 94.681321 91.320626 
L 94.980127 96.845181 
L 95.259012 98.747141 
L 95.438296 98.955469 
L 95.856624 99.032628 
L 96.872564 97.477882 
L 97.430335 96.038874 
L 98.22715 93.442487 
L 98.844682 89.137037 
L 98.924364 86.914867 
L 99.023966 73.431402 
L 99.322772 35.835872 
L 99.342692 35.704703 
L 99.382533 36.024911 
L 99.502055 40.014011 
L 99.940304 66.672308 
L 100.398473 90.028219 
L 100.697279 95.737955 
L 100.956244 97.366002 
L 101.27497 98.118298 
L 101.454254 98.141446 
L 101.613617 98.126014 
L 102.131547 97.612909 
L 104.123586 92.296682 
L 104.422392 91.046713 
L 104.820799 88.562206 
L 104.940322 86.224298 
L 105.039924 76.498457 
L 105.398491 37.787985 
L 105.418411 37.7224 
L 105.438331 37.791843 
L 105.537933 39.71695 
L 105.796899 50.947385 
L 106.693316 92.690191 
L 107.012042 95.849835 
L 107.41045 97.516461 
L 107.709256 97.832811 
L 107.988141 97.875249 
L 108.286947 97.732505 
L 108.844718 96.876045 
L 108.96424 96.69858 
L 109.282967 96.100601 
L 110.119623 94.453265 
L 110.418429 93.793559 
L 110.836757 92.782781 
L 111.773015 88.546774 
L 112.01206 85.969675 
L 112.091742 81.745241 
L 112.51007 37.6491 
L 112.569831 38.108193 
L 112.729194 42.899743 
L 113.187363 67.258715 
L 113.665452 89.800601 
L 113.984179 95.15155 
L 114.342746 97.447018 
L 114.721233 98.176167 
L 115.657491 98.079719 
L 116.035979 97.744079 
L 116.215262 97.493314 
L 116.932396 95.749529 
L 117.330804 94.74261 
L 118.326824 90.911685 
L 118.745152 87.563002 
L 118.884595 85.263673 
L 118.964276 80.317807 
L 119.362684 36.757918 
L 119.402525 37.062694 
L 119.541968 41.148242 
L 119.860694 58.042119 
L 120.438385 88.743529 
L 120.737191 94.302806 
L 121.055917 96.798886 
L 121.314882 97.68621 
L 121.613688 98.072003 
L 121.912494 98.222462 
L 122.74915 97.963981 
L 123.147558 97.354428 
L 123.585807 96.470962 
L 123.944374 95.73024 
L 124.362702 94.711746 
L 124.601747 94.140772 
L 125.358721 91.625402 
L 125.81689 88.751244 
L 125.976253 85.981248 
L 126.075855 75.769308 
L 126.414502 36.970104 
L 126.434422 36.827361 
L 126.474263 37.062694 
L 126.593786 40.496252 
L 126.932432 58.605377 
L 127.530044 88.809113 
L 127.84877 94.399254 
L 128.147576 96.413093 
L 128.804949 97.875249 
L 129.422481 97.774942 
L 130.318898 96.185475 
L 130.89659 95.201703 
L 131.055953 94.985659 
L 131.454361 94.017319 
L 131.553963 93.835996 
L 132.071893 92.74806 
L 132.45038 91.868452 
L 132.808947 91.054429 
L 133.047992 90.298274 
L 133.346798 89.341508 
L 133.645604 88.172555 
L 134.123693 85.209662 
L 134.263136 83.288413 
L 134.342817 79.438199 
L 134.781066 37.733974 
L 134.840827 38.339669 
L 135.02011 44.118849 
L 135.478279 69.793375 
L 135.936448 90.155531 
L 136.255175 95.722524 
L 136.55398 97.454734 
L 137.03207 98.588966 
L 137.55 98.681556 
L 138.287054 98.280331 
L 139.801004 96.042732 
L 140.896625 92.763492 
L 141.673521 89.484251 
L 142.13169 86.104702 
L 142.271132 82.833178 
L 142.390655 67.818114 
L 142.66954 36.99711 
L 142.709381 36.746344 
L 142.749222 37.085842 
L 142.888664 40.909051 
L 143.227311 59.076044 
L 143.805002 88.326872 
L 144.123729 94.067472 
L 144.442455 96.463246 
L 144.801022 97.477882 
L 145.059987 97.697784 
L 145.697439 97.601336 
L 145.876723 97.531893 
L 146.016166 97.516461 
L 146.25521 97.207827 
L 146.713379 96.420809 
L 147.25123 95.294294 
L 147.569956 94.553571 
L 147.649638 94.360674 
L 148.526135 91.988048 
L 148.824941 91.247325 
L 149.203428 90.286701 
L 149.502234 88.789824 
L 150.060005 84.758285 
L 150.179527 82.053876 
L 150.299049 68.913767 
L 150.597855 39.369737 
L 150.677537 38.598151 
L 150.717378 38.914501 
L 150.85682 42.321053 
L 151.215387 60.430178 
L 151.832919 89.183333 
L 152.151646 94.503418 
L 152.450452 96.258776 
L 152.749257 97.003356 
L 153.008222 97.211685 
L 153.466391 97.296559 
L 153.88472 96.972493 
L 154.562013 96.459388 
L 155.199465 95.556633 
L 155.617794 94.862205 
L 155.737316 94.584434 
L 156.016201 93.928586 
L 156.673574 91.98419 
L 157.430549 87.975801 
L 157.649673 84.681126 
L 157.749275 75.927483 
L 158.127763 38.578861 
L 158.147683 38.424544 
L 158.187524 38.575003 
L 158.326967 41.780943 
L 158.665613 56.958041 
L 159.362827 88.967289 
L 159.701473 94.25651 
L 159.980359 96.019584 
L 160.378767 97.138384 
L 160.777174 97.674636 
L 160.956458 97.697784 
L 161.315025 97.589762 
L 162.072 96.868329 
L 162.530169 96.590558 
L 163.048099 95.718666 
L 163.267223 95.286578 
L 163.585949 94.514992 
L 163.864835 93.901581 
L 164.14372 93.226443 
L 164.462447 92.508868 
L 164.801093 91.953326 
L 165.378785 90.390865 
L 166.255282 84.742853 
L 166.334963 80.881065 
L 166.773212 37.869002 
L 166.852893 38.690741 
L 167.032177 44.882719 
L 167.550107 73.844201 
L 167.928594 88.697233 
L 168.247321 93.6431 
L 168.566047 96.035016 
L 168.944534 97.377576 
L 169.283181 97.863675 
L 169.581987 97.956265 
L 169.76127 98.060429 
L 169.960474 98.037282 
L 170.856892 97.003356 
L 171.434583 96.598274 
L 171.613867 96.463246 
L 172.570045 94.839058 
L 172.609886 93.461777 
L 172.669647 89.738874 
L 172.729408 91.309052 
L 173.028214 98.029566 
L 173.526224 103.951488 
L 174.582005 112.377207 
L 175.538183 117.461959 
L 176.852929 122.58529 
L 177.510302 124.475675 
L 178.028232 125.837524 
L 178.725446 127.419276 
L 178.844968 127.608314 
L 179.840988 129.475557 
L 182.052151 132.291846 
L 183.04817 133.102011 
L 183.207533 133.198459 
L 183.486419 133.360492 
L 183.625862 133.433793 
L 184.502359 133.985477 
L 184.641801 134.03563 
L 184.920687 134.155226 
L 185.040209 134.209237 
L 185.876866 134.568025 
L 186.11591 134.668331 
L 186.374875 134.764779 
L 186.912726 134.872801 
L 187.211532 134.980823 
L 187.390815 134.988539 
L 187.769303 135.081129 
L 188.366914 135.189151 
L 188.924685 135.185293 
L 189.064128 135.227731 
L 189.382854 135.289457 
L 189.641819 135.304889 
L 189.880864 135.355042 
L 191.813142 135.632813 
L 191.972505 135.648245 
L 192.21155 135.671392 
L 192.510355 135.671392 
L 192.7494 135.609666 
L 193.24741 135.60195 
L 193.884862 135.459206 
L 194.123907 135.436059 
L 194.701598 135.436059 
L 195.956583 135.544081 
L 196.255389 135.551797 
L 196.514354 135.567228 
L 197.012364 135.644387 
L 197.291249 135.598092 
L 197.988463 135.621239 
L 198.785278 135.416769 
L 198.984482 135.405195 
L 199.323129 135.428343 
L 199.90082 135.420627 
L 200.239467 135.443775 
L 200.697636 135.374332 
L 201.335088 135.401337 
L 201.534292 135.37819 
L 202.151824 135.366616 
L 202.410789 135.324179 
L 202.570152 135.312605 
L 202.709595 135.277884 
L 203.665774 135.204583 
L 204.044261 135.235446 
L 206.394867 135.131282 
L 206.653832 135.138998 
L 206.912797 135.131282 
L 207.131922 135.115851 
L 207.331126 135.077271 
L 207.809215 135.06184 
L 208.546269 135.02326 
L 208.825155 135.015544 
L 209.004438 134.980823 
L 209.303244 134.926812 
L 209.502448 134.907522 
L 215.299281 134.7995 
L 215.598087 134.737773 
L 215.817212 134.737773 
L 216.116017 134.737773 
L 216.454664 134.695336 
L 216.653868 134.695336 
L 216.992515 134.714626 
L 217.211639 134.656757 
L 217.709649 134.645183 
L 218.247499 134.652899 
L 218.446703 134.676047 
L 218.645907 134.606604 
L 220.558264 134.348123 
L 221.295319 134.247816 
L 221.633965 134.178374 
L 222.470622 134.116647 
L 222.709666 134.135936 
L 223.088154 134.105073 
L 223.586164 134.089641 
L 224.004492 134.043346 
L 224.303298 134.093499 
L 226.713665 133.985477 
L 227.052311 133.966187 
L 227.251515 133.935324 
L 227.649923 133.96233 
L 227.829207 133.970045 
L 231.793364 133.862023 
L 232.669861 133.603542 
L 233.008508 133.217749 
L 233.287393 133.14059 
L 233.904926 133.148306 
L 234.104129 133.15988 
L 234.263493 133.167596 
L 234.940786 133.186886 
L 235.239592 133.136733 
L 236.773462 133.240897 
L 236.952745 133.240897 
L 237.112108 133.217749 
L 237.430835 133.267902 
L 237.649959 133.27176 
L 238.347173 133.248613 
L 239.22367 133.144448 
L 239.522476 133.098153 
L 239.721679 133.094295 
L 239.980644 132.997847 
L 240.120087 133.032568 
L 240.299371 133.071148 
L 240.837221 133.06729 
L 241.414913 133.06729 
L 241.673878 133.055716 
L 241.992604 133.044142 
L 242.410932 132.93612 
L 242.889021 132.747082 
L 243.088225 132.646775 
L 243.32727 132.669923 
L 243.86512 132.565759 
L 244.064324 132.60048 
L 244.34321 132.635202 
L 245.000583 132.608196 
L 245.299389 132.658349 
L 245.697796 132.61977 
L 248.187845 132.727792 
L 248.646014 132.704644 
L 252.211764 132.608196 
L 252.391047 132.588907 
L 252.709774 132.596622 
L 252.908977 132.627486 
L 253.04842 132.60048 
L 253.227704 132.523322 
L 253.865156 132.50789 
L 254.403007 132.511748 
L 254.721733 132.434589 
L 254.721733 132.434589 
" clip-path="url(#p41071e3f1a)" style="fill: none; stroke: #000000; stroke-opacity: 0.5; stroke-width: 1.5; stroke-linecap: square"/>
   </g>
   <g id="patch_3">
    <path d="M 41.667188 173.52 
L 41.667188 7.2 
" style="fill: none; stroke: #000000; stroke-width: 0.8; stroke-linejoin: miter; stroke-linecap: square"/>
   </g>
   <g id="patch_4">
    <path d="M 41.667188 173.52 
L 264.867188 173.52 
" style="fill: none; stroke: #000000; stroke-width: 0.8; stroke-linejoin: miter; stroke-linecap: square"/>
   </g>
  </g>
 </g>
 <defs>
  <clipPath id="p41071e3f1a">
   <rect x="41.667188" y="7.2" width="223.2" height="166.32"/>
  </clipPath>
 </defs>
</svg>
