<?xml version="1.0" encoding="utf-8" standalone="no"?>
<!DOCTYPE svg PUBLIC "-//W3C//DTD SVG 1.1//EN"
  "http://www.w3.org/Graphics/SVG/1.1/DTD/svg11.dtd">
<svg xmlns:xlink="http://www.w3.org/1999/xlink" width="265.704687pt" height="197.398125pt" viewBox="0 0 265.704687 197.398125" xmlns="http://www.w3.org/2000/svg" version="1.1">
 <metadata>
  <rdf:RDF xmlns:dc="http://purl.org/dc/elements/1.1/" xmlns:cc="http://creativecommons.org/ns#" xmlns:rdf="http://www.w3.org/1999/02/22-rdf-syntax-ns#">
   <cc:Work>
    <dc:type rdf:resource="http://purl.org/dc/dcmitype/StillImage"/>
    <dc:date>2025-12-19T10:00:54.798862</dc:date>
    <dc:format>image/svg+xml</dc:format>
    <dc:creator>
     <cc:Agent>
      <dc:title>Matplotlib v3.10.7, https://matplotlib.org/</dc:title>
     </cc:Agent>
    </dc:creator>
   </cc:Work>
  </rdf:RDF>
 </metadata>
 <defs>
  <style type="text/css">*{stroke-linejoin: round; stroke-linecap: butt}</style>
 </defs>
 <g id="figure_1">
  <g id="patch_1">
   <path d="M 0 197.398125 
L 265.704687 197.398125 
L 265.704687 0 
L 0 0 
z
" style="fill: #ffffff"/>
  </g>
  <g id="axes_1">
   <g id="patch_2">
    <path d="M 35.304688 173.52 
L 258.504687 173.52 
L 258.504687 7.2 
L 35.304688 7.2 
z
" style="fill: #ffffff"/>
   </g>
   <g id="matplotlib.axis_1">
    <g id="xtick_1">
     <g id="line2d_1">
      <defs>
       <path id="mb6ee955abf" d="M 0 0 
L 0 3.5 
" style="stroke: #000000; stroke-width: 0.8"/>
      </defs>
      <g>
       <use xlink:href="#mb6ee955abf" x="40.470045" y="173.52" style="stroke: #000000; stroke-width: 0.8"/>
      </g>
     </g>
     <g id="text_1">
      <!-- 0.4 -->
      <g transform="translate(32.518482 188.118438) scale(0.1 -0.1)">
       <defs>
        <path id="DejaVuSans-30" d="M 2034 4250 
Q 1547 4250 1301 3770 
Q 1056 3291 1056 2328 
Q 1056 1369 1301 889 
Q 1547 409 2034 409 
Q 2525 409 2770 889 
Q 3016 1369 3016 2328 
Q 3016 3291 2770 3770 
Q 2525 4250 2034 4250 
z
M 2034 4750 
Q 2819 4750 3233 4129 
Q 3647 3509 3647 2328 
Q 3647 1150 3233 529 
Q 2819 -91 2034 -91 
Q 1250 -91 836 529 
Q 422 1150 422 2328 
Q 422 3509 836 4129 
Q 1250 4750 2034 4750 
z
" transform="scale(0.015625)"/>
        <path id="DejaVuSans-2e" d="M 684 794 
L 1344 794 
L 1344 0 
L 684 0 
L 684 794 
z
" transform="scale(0.015625)"/>
        <path id="DejaVuSans-34" d="M 2419 4116 
L 825 1625 
L 2419 1625 
L 2419 4116 
z
M 2253 4666 
L 3047 4666 
L 3047 1625 
L 3713 1625 
L 3713 1100 
L 3047 1100 
L 3047 0 
L 2419 0 
L 2419 1100 
L 313 1100 
L 313 1709 
L 2253 4666 
z
" transform="scale(0.015625)"/>
       </defs>
       <use xlink:href="#DejaVuSans-30"/>
       <use xlink:href="#DejaVuSans-2e" transform="translate(63.623047 0)"/>
       <use xlink:href="#DejaVuSans-34" transform="translate(95.410156 0)"/>
      </g>
     </g>
    </g>
    <g id="xtick_2">
     <g id="line2d_2">
      <g>
       <use xlink:href="#mb6ee955abf" x="80.310824" y="173.52" style="stroke: #000000; stroke-width: 0.8"/>
      </g>
     </g>
     <g id="text_2">
      <!-- 0.6 -->
      <g transform="translate(72.359262 188.118438) scale(0.1 -0.1)">
       <defs>
        <path id="DejaVuSans-36" d="M 2113 2584 
Q 1688 2584 1439 2293 
Q 1191 2003 1191 1497 
Q 1191 994 1439 701 
Q 1688 409 2113 409 
Q 2538 409 2786 701 
Q 3034 994 3034 1497 
Q 3034 2003 2786 2293 
Q 2538 2584 2113 2584 
z
M 3366 4563 
L 3366 3988 
Q 3128 4100 2886 4159 
Q 2644 4219 2406 4219 
Q 1781 4219 1451 3797 
Q 1122 3375 1075 2522 
Q 1259 2794 1537 2939 
Q 1816 3084 2150 3084 
Q 2853 3084 3261 2657 
Q 3669 2231 3669 1497 
Q 3669 778 3244 343 
Q 2819 -91 2113 -91 
Q 1303 -91 875 529 
Q 447 1150 447 2328 
Q 447 3434 972 4092 
Q 1497 4750 2381 4750 
Q 2619 4750 2861 4703 
Q 3103 4656 3366 4563 
z
" transform="scale(0.015625)"/>
       </defs>
       <use xlink:href="#DejaVuSans-30"/>
       <use xlink:href="#DejaVuSans-2e" transform="translate(63.623047 0)"/>
       <use xlink:href="#DejaVuSans-36" transform="translate(95.410156 0)"/>
      </g>
     </g>
    </g>
    <g id="xtick_3">
     <g id="line2d_3">
      <g>
       <use xlink:href="#mb6ee955abf" x="120.151604" y="173.52" style="stroke: #000000; stroke-width: 0.8"/>
      </g>
     </g>
     <g id="text_3">
      <!-- 0.8 -->
      <g transform="translate(112.200041 188.118438) scale(0.1 -0.1)">
       <defs>
        <path id="DejaVuSans-38" d="M 2034 2216 
Q 1584 2216 1326 1975 
Q 1069 1734 1069 1313 
Q 1069 891 1326 650 
Q 1584 409 2034 409 
Q 2484 409 2743 651 
Q 3003 894 3003 1313 
Q 3003 1734 2745 1975 
Q 2488 2216 2034 2216 
z
M 1403 2484 
Q 997 2584 770 2862 
Q 544 3141 544 3541 
Q 544 4100 942 4425 
Q 1341 4750 2034 4750 
Q 2731 4750 3128 4425 
Q 3525 4100 3525 3541 
Q 3525 3141 3298 2862 
Q 3072 2584 2669 2484 
Q 3125 2378 3379 2068 
Q 3634 1759 3634 1313 
Q 3634 634 3220 271 
Q 2806 -91 2034 -91 
Q 1263 -91 848 271 
Q 434 634 434 1313 
Q 434 1759 690 2068 
Q 947 2378 1403 2484 
z
M 1172 3481 
Q 1172 3119 1398 2916 
Q 1625 2713 2034 2713 
Q 2441 2713 2670 2916 
Q 2900 3119 2900 3481 
Q 2900 3844 2670 4047 
Q 2441 4250 2034 4250 
Q 1625 4250 1398 4047 
Q 1172 3844 1172 3481 
z
" transform="scale(0.015625)"/>
       </defs>
       <use xlink:href="#DejaVuSans-30"/>
       <use xlink:href="#DejaVuSans-2e" transform="translate(63.623047 0)"/>
       <use xlink:href="#DejaVuSans-38" transform="translate(95.410156 0)"/>
      </g>
     </g>
    </g>
    <g id="xtick_4">
     <g id="line2d_4">
      <g>
       <use xlink:href="#mb6ee955abf" x="159.992384" y="173.52" style="stroke: #000000; stroke-width: 0.8"/>
      </g>
     </g>
     <g id="text_4">
      <!-- 1.0 -->
      <g transform="translate(152.040821 188.118438) scale(0.1 -0.1)">
       <defs>
        <path id="DejaVuSans-31" d="M 794 531 
L 1825 531 
L 1825 4091 
L 703 3866 
L 703 4441 
L 1819 4666 
L 2450 4666 
L 2450 531 
L 3481 531 
L 3481 0 
L 794 0 
L 794 531 
z
" transform="scale(0.015625)"/>
       </defs>
       <use xlink:href="#DejaVuSans-31"/>
       <use xlink:href="#DejaVuSans-2e" transform="translate(63.623047 0)"/>
       <use xlink:href="#DejaVuSans-30" transform="translate(95.410156 0)"/>
      </g>
     </g>
    </g>
    <g id="xtick_5">
     <g id="line2d_5">
      <g>
       <use xlink:href="#mb6ee955abf" x="199.833163" y="173.52" style="stroke: #000000; stroke-width: 0.8"/>
      </g>
     </g>
     <g id="text_5">
      <!-- 1.2 -->
      <g transform="translate(191.881601 188.118438) scale(0.1 -0.1)">
       <defs>
        <path id="DejaVuSans-32" d="M 1228 531 
L 3431 531 
L 3431 0 
L 469 0 
L 469 531 
Q 828 903 1448 1529 
Q 2069 2156 2228 2338 
Q 2531 2678 2651 2914 
Q 2772 3150 2772 3378 
Q 2772 3750 2511 3984 
Q 2250 4219 1831 4219 
Q 1534 4219 1204 4116 
Q 875 4013 500 3803 
L 500 4441 
Q 881 4594 1212 4672 
Q 1544 4750 1819 4750 
Q 2544 4750 2975 4387 
Q 3406 4025 3406 3419 
Q 3406 3131 3298 2873 
Q 3191 2616 2906 2266 
Q 2828 2175 2409 1742 
Q 1991 1309 1228 531 
z
" transform="scale(0.015625)"/>
       </defs>
       <use xlink:href="#DejaVuSans-31"/>
       <use xlink:href="#DejaVuSans-2e" transform="translate(63.623047 0)"/>
       <use xlink:href="#DejaVuSans-32" transform="translate(95.410156 0)"/>
      </g>
     </g>
    </g>
    <g id="xtick_6">
     <g id="line2d_6">
      <g>
       <use xlink:href="#mb6ee955abf" x="239.673943" y="173.52" style="stroke: #000000; stroke-width: 0.8"/>
      </g>
     </g>
     <g id="text_6">
      <!-- 1.4 -->
      <g transform="translate(231.72238 188.118438) scale(0.1 -0.1)">
       <use xlink:href="#DejaVuSans-31"/>
       <use xlink:href="#DejaVuSans-2e" transform="translate(63.623047 0)"/>
       <use xlink:href="#DejaVuSans-34" transform="translate(95.410156 0)"/>
      </g>
     </g>
    </g>
   </g>
   <g id="matplotlib.axis_2">
    <g id="ytick_1">
     <g id="line2d_7">
      <defs>
       <path id="ma37bd32dfa" d="M 0 0 
L -3.5 0 
" style="stroke: #000000; stroke-width: 0.8"/>
      </defs>
      <g>
       <use xlink:href="#ma37bd32dfa" x="35.304688" y="148.929571" style="stroke: #000000; stroke-width: 0.8"/>
      </g>
     </g>
     <g id="text_7">
      <!-- −60 -->
      <g transform="translate(7.2 152.72879) scale(0.1 -0.1)">
       <defs>
        <path id="DejaVuSans-2212" d="M 678 2272 
L 4684 2272 
L 4684 1741 
L 678 1741 
L 678 2272 
z
" transform="scale(0.015625)"/>
       </defs>
       <use xlink:href="#DejaVuSans-2212"/>
       <use xlink:href="#DejaVuSans-36" transform="translate(83.789062 0)"/>
       <use xlink:href="#DejaVuSans-30" transform="translate(147.412109 0)"/>
      </g>
     </g>
    </g>
    <g id="ytick_2">
     <g id="line2d_8">
      <g>
       <use xlink:href="#ma37bd32dfa" x="35.304688" y="118.167612" style="stroke: #000000; stroke-width: 0.8"/>
      </g>
     </g>
     <g id="text_8">
      <!-- −40 -->
      <g transform="translate(7.2 121.966831) scale(0.1 -0.1)">
       <use xlink:href="#DejaVuSans-2212"/>
       <use xlink:href="#DejaVuSans-34" transform="translate(83.789062 0)"/>
       <use xlink:href="#DejaVuSans-30" transform="translate(147.412109 0)"/>
      </g>
     </g>
    </g>
    <g id="ytick_3">
     <g id="line2d_9">
      <g>
       <use xlink:href="#ma37bd32dfa" x="35.304688" y="87.405653" style="stroke: #000000; stroke-width: 0.8"/>
      </g>
     </g>
     <g id="text_9">
      <!-- −20 -->
      <g transform="translate(7.2 91.204872) scale(0.1 -0.1)">
       <use xlink:href="#DejaVuSans-2212"/>
       <use xlink:href="#DejaVuSans-32" transform="translate(83.789062 0)"/>
       <use xlink:href="#DejaVuSans-30" transform="translate(147.412109 0)"/>
      </g>
     </g>
    </g>
    <g id="ytick_4">
     <g id="line2d_10">
      <g>
       <use xlink:href="#ma37bd32dfa" x="35.304688" y="56.643694" style="stroke: #000000; stroke-width: 0.8"/>
      </g>
     </g>
     <g id="text_10">
      <!-- 0 -->
      <g transform="translate(21.942187 60.442913) scale(0.1 -0.1)">
       <use xlink:href="#DejaVuSans-30"/>
      </g>
     </g>
    </g>
    <g id="ytick_5">
     <g id="line2d_11">
      <g>
       <use xlink:href="#ma37bd32dfa" x="35.304688" y="25.881735" style="stroke: #000000; stroke-width: 0.8"/>
      </g>
     </g>
     <g id="text_11">
      <!-- 20 -->
      <g transform="translate(15.579687 29.680954) scale(0.1 -0.1)">
       <use xlink:href="#DejaVuSans-32"/>
       <use xlink:href="#DejaVuSans-30" transform="translate(63.623047 0)"/>
      </g>
     </g>
    </g>
   </g>
   <g id="line2d_12">
    <path d="M 45.450142 155.666272 
L 45.589585 155.525455 
L 46.087595 155.300148 
L 46.486002 155.370556 
L 47.223057 155.271984 
L 47.661305 155.084228 
L 47.800748 155.018508 
L 48.019872 154.995038 
L 48.39836 154.891772 
L 48.657325 154.891772 
L 49.713105 154.807282 
L 49.872469 154.675853 
L 49.912309 154.713404 
L 50.191195 154.736873 
L 50.828647 154.417688 
L 51.207135 154.520954 
L 51.306737 154.445851 
L 51.545781 154.309728 
L 51.804746 154.262789 
L 51.924269 154.305034 
L 52.262915 154.328504 
L 52.442199 154.403606 
L 52.462119 154.366055 
L 52.641403 154.21585 
L 52.661323 154.229932 
L 53.039811 154.380137 
L 53.378457 154.328504 
L 53.756945 154.464627 
L 53.876467 154.520954 
L 54.294795 154.596056 
L 54.633442 154.769731 
L 54.912327 155.018508 
L 55.430257 155.257902 
L 56.426277 155.131167 
L 56.56572 155.103004 
L 56.725083 155.051365 
L 57.422296 155.103004 
L 57.741023 155.140555 
L 57.980067 155.239127 
L 58.09959 155.229739 
L 58.378475 155.154637 
L 58.697201 155.318923 
L 58.876485 155.356474 
L 58.996007 155.281372 
L 59.374495 155.225045 
L 59.573698 155.356474 
L 59.752982 155.426883 
L 60.410355 155.492598 
L 60.569718 155.431577 
L 60.589638 155.450352 
L 60.928285 155.642802 
L 61.087648 155.656884 
L 61.266932 155.59117 
L 61.326693 155.553618 
L 61.366534 155.605251 
L 61.505976 155.600557 
L 61.804782 155.699129 
L 62.023906 155.830559 
L 62.22311 155.755456 
L 62.462155 155.76015 
L 62.601598 155.793007 
L 62.7012 155.839946 
L 62.74104 155.788313 
L 62.900404 155.788313 
L 63.119528 155.609945 
L 63.338652 155.145249 
L 64.294831 155.257902 
L 64.952204 155.210963 
L 65.410373 155.304841 
L 65.669338 155.271984 
L 65.908382 155.121779 
L 66.207188 155.201576 
L 66.366551 155.243821 
L 66.605596 155.29076 
L 66.645437 154.802588 
L 66.725118 153.070538 
L 66.78488 153.380336 
L 67.103606 154.314422 
L 67.30281 154.995038 
L 68.33867 157.609548 
L 69.553814 159.69364 
L 69.992062 159.90956 
L 70.529913 160.688748 
L 71.127525 161.223852 
L 71.247047 161.308343 
L 71.804818 161.345894 
L 71.984101 161.242628 
L 72.143464 161.383445 
L 72.382509 161.547732 
L 72.521952 161.599365 
L 73.45821 162.38794 
L 74.095663 163.120189 
L 74.294867 163.218761 
L 75.310806 164.0355 
L 76.227144 164.157541 
L 76.426348 164.082439 
L 76.665393 164.148154 
L 76.824756 164.105909 
L 77.00404 164.115296 
L 77.183323 164.152848 
L 77.56181 164.176317 
L 77.980139 164.25142 
L 78.239104 164.148154 
L 78.498069 164.091827 
L 78.697273 164.171623 
L 79.374566 163.739784 
L 79.59369 163.472232 
L 79.832735 163.37366 
L 80.031939 163.35019 
L 80.231143 163.293863 
L 80.350665 163.303251 
L 80.669391 163.336109 
L 80.888516 163.336109 
L 81.10764 163.48162 
L 81.525968 163.486313 
L 81.844694 163.528559 
L 82.342704 163.406517 
L 82.920395 163.429987 
L 83.17936 163.303251 
L 83.378564 163.35019 
L 84.294902 163.021617 
L 84.514027 163.035699 
L 85.370603 162.932433 
L 85.490126 162.923045 
L 85.510046 162.955902 
L 85.669409 163.026311 
L 85.948295 162.951209 
L 86.20726 162.98876 
L 86.346702 162.918351 
L 86.366623 162.932433 
L 86.804871 162.923045 
L 87.402483 162.68835 
L 87.601687 162.571002 
L 87.78097 162.613248 
L 88.239139 162.524063 
L 88.418423 162.397328 
L 88.876592 162.392634 
L 90.111656 163.138965 
L 90.350701 163.021617 
L 90.549905 162.923045 
L 90.788949 162.801004 
L 90.928392 162.693044 
L 91.087755 162.646105 
L 91.446322 162.542839 
L 91.645526 162.204878 
L 91.804889 162.064061 
L 92.083775 162.233041 
L 92.402501 162.139163 
L 92.561864 162.186102 
L 92.701307 162.19549 
L 93.298918 162.233041 
L 93.35868 162.223654 
L 93.39852 162.275287 
L 94.314858 162.98876 
L 95.251117 163.068556 
L 95.330798 163.176516 
L 95.390559 163.143659 
L 95.510082 163.176516 
L 96.346738 163.261006 
L 96.844748 163.354884 
L 97.063872 163.505089 
L 97.44236 163.645906 
L 97.601723 163.678763 
L 98.059892 164.002643 
L 98.279016 164.152848 
L 98.956309 164.105909 
L 99.314876 164.293665 
L 99.51408 164.279583 
L 99.852727 164.509584 
L 100.071851 164.565911 
L 100.450338 164.791218 
L 100.928428 164.791218 
L 101.366676 165.058771 
L 101.725243 165.110404 
L 102.004129 164.78183 
L 102.223253 164.669177 
L 102.283014 164.673871 
L 102.302935 164.641013 
L 102.621661 164.270195 
L 103.119671 164.617544 
L 103.259113 164.439176 
L 103.498158 163.936928 
L 103.956327 163.838356 
L 104.155531 163.744478 
L 104.673461 163.303251 
L 104.872665 163.317333 
L 105.510117 163.500395 
L 105.888605 163.589579 
L 106.028048 163.62713 
L 106.047968 163.608355 
L 106.366694 163.500395 
L 106.545978 163.476926 
L 106.804943 163.415905 
L 107.980246 163.307945 
L 108.378654 163.153046 
L 108.518096 163.106107 
L 108.796982 163.148352 
L 108.936424 163.148352 
L 109.115708 163.153046 
L 109.294991 163.275088 
L 110.171489 163.383048 
L 110.450374 163.364272 
L 110.649578 163.2657 
L 111.008145 163.312639 
L 111.227269 163.331415 
L 111.446394 163.425293 
L 111.725279 163.54264 
L 112.103766 163.261006 
L 112.26313 163.153046 
L 112.581856 163.162434 
L 112.741219 163.237537 
L 113.020104 163.143659 
L 113.29899 162.974678 
L 113.916522 162.801004 
L 114.135646 162.810391 
L 114.275089 162.768146 
L 114.633656 162.824473 
L 114.83286 162.805698 
L 114.972303 162.894882 
L 115.291029 163.176516 
L 115.510153 163.087332 
L 116.187446 162.448961 
L 116.346809 162.4959 
L 116.785058 162.406716 
L 116.984262 162.289368 
L 117.561953 161.890387 
L 118.059963 161.89508 
L 118.557973 161.547732 
L 119.036062 161.852835 
L 119.43447 161.956101 
L 119.673515 162.012428 
L 119.872718 161.951407 
L 120.071922 162.045285 
L 120.609773 161.909162 
L 121.087862 162.012428 
L 121.346827 161.913856 
L 121.705394 162.284674 
L 121.844837 162.32692 
L 121.98428 162.41141 
L 122.183484 162.505288 
L 122.283086 162.514676 
L 122.303006 162.538145 
L 122.761175 162.735289 
L 123.199424 162.829167 
L 123.438468 162.998148 
L 123.896637 163.214067 
L 124.056 163.232843 
L 124.593851 163.214067 
L 124.912577 163.476926 
L 125.211383 163.580191 
L 125.55003 163.749172 
L 126.127721 163.922846 
L 126.247243 163.885295 
L 126.267164 163.904071 
L 126.785094 164.242032 
L 127.661591 164.14346 
L 127.820954 164.171623 
L 128.059999 164.176317 
L 128.199441 164.260807 
L 128.219362 164.246726 
L 128.378725 164.185705 
L 128.597849 164.293665 
L 128.856814 164.349991 
L 129.374744 164.213868 
L 129.713391 164.321828 
L 130.211401 164.317134 
L 130.450445 164.354685 
L 131.087898 164.401624 
L 131.406624 164.293665 
L 131.765191 164.265501 
L 132.522166 164.157541 
L 132.681529 164.049582 
L 132.860813 163.979173 
L 133.040096 163.753866 
L 133.060017 163.767948 
L 133.119778 163.777335 
L 133.139698 163.739784 
L 133.418584 163.383048 
L 133.876753 163.162434 
L 134.155638 162.998148 
L 134.315001 163.07325 
L 134.494285 163.077944 
L 134.633727 163.059168 
L 134.832931 163.07325 
L 134.952454 163.162434 
L 135.071976 163.24223 
L 135.111817 163.190598 
L 135.27118 163.092026 
L 135.370782 163.031005 
L 135.490304 163.063862 
L 135.848871 163.251618 
L 136.147677 163.303251 
L 136.486324 162.946515 
L 136.566005 162.96529 
L 136.585926 162.998148 
L 136.725368 163.021617 
L 136.745289 162.998148 
L 136.924572 162.923045 
L 137.123776 162.937127 
L 137.223378 162.998148 
L 137.283139 163.031005 
L 137.32298 162.993454 
L 137.522184 162.979372 
L 137.920592 163.223455 
L 138.179557 163.167128 
L 138.35884 163.171822 
L 138.518203 163.045087 
L 138.538124 163.063862 
L 138.956452 163.148352 
L 139.315019 163.48162 
L 139.414621 163.467538 
L 139.434541 163.495701 
L 139.813029 163.974479 
L 139.972392 164.101215 
L 140.490322 164.345298 
L 140.769207 164.439176 
L 141.42658 165.049383 
L 141.665625 164.99775 
L 142.044112 165.002444 
L 142.243316 165.044689 
L 142.621804 164.814688 
L 142.781167 164.809994 
L 143.020211 164.730198 
L 143.179575 164.838157 
L 143.657664 164.941423 
L 143.757266 165.007138 
L 143.936549 165.143261 
L 143.95647 165.119791 
L 144.075992 165.204282 
L 144.713445 165.246527 
L 144.813047 165.180812 
L 144.852887 165.223057 
L 145.111852 165.227751 
L 145.330977 165.185506 
L 145.550101 165.218363 
L 145.689544 165.326323 
L 145.888748 165.434283 
L 146.307076 165.542243 
L 148.000309 165.842652 
L 148.159672 165.368568 
L 148.797125 163.368966 
L 149.334975 162.561615 
L 149.57402 162.514676 
L 149.912666 162.237735 
L 150.151711 161.937326 
L 150.271233 162.073449 
L 150.470437 162.30345 
L 150.649721 162.331613 
L 151.008288 162.463043 
L 151.327014 162.420798 
L 151.665661 162.650799 
L 151.864865 162.594472 
L 152.243352 162.730595 
L 152.880804 162.693044 
L 153.17961 162.824473 
L 153.338973 162.777534 
L 153.458496 162.824473 
L 153.67762 162.871412 
L 154.095948 162.613248 
L 154.474436 162.763452 
L 154.71348 162.758759 
L 155.450535 163.171822 
L 155.609898 163.171822 
L 155.908704 163.195291 
L 156.625838 163.110801 
L 157.024246 162.721207 
L 157.143768 162.650799 
L 157.362892 162.425491 
L 157.542176 162.355083 
L 157.7613 162.143857 
L 157.960504 161.91855 
L 158.020265 161.946713 
L 158.060106 161.899774 
L 158.976444 161.791815 
L 159.095966 161.923244 
L 159.27525 161.965489 
L 159.534215 161.965489 
L 159.633817 162.045285 
L 159.892782 162.341001 
L 160.091986 162.406716 
L 160.251349 162.162633 
L 160.470473 162.045285 
L 160.589995 162.092224 
L 160.609916 162.073449 
L 160.729438 162.092224 
L 161.088005 162.092224 
L 161.32705 162.242429 
L 161.825059 162.247123 
L 162.044184 162.101612 
L 162.203547 161.998346 
L 162.502353 162.040591 
L 162.761318 161.829366 
L 162.960522 161.899774 
L 163.259328 161.730794 
L 163.657735 161.331812 
L 163.9167 161.505487 
L 165.350968 163.026311 
L 165.510332 163.129577 
L 165.689615 163.256312 
L 165.709536 163.218761 
L 165.908739 163.026311 
L 165.92866 163.040393 
L 166.227466 163.326721 
L 166.327068 165.49061 
L 166.406749 165.016526 
L 166.765316 163.697539 
L 167.442609 161.819978 
L 167.801176 161.190995 
L 167.920699 161.078341 
L 168.51831 159.562211 
L 168.717514 159.266495 
L 168.976479 159.172617 
L 169.215524 159.097515 
L 169.394808 158.989555 
L 169.932658 158.844044 
L 170.092021 158.829962 
L 170.231464 158.73139 
L 170.609951 158.332409 
L 170.968518 157.820773 
L 171.207563 157.586078 
L 171.247404 157.623629 
L 171.406767 157.628323 
L 171.645812 157.473424 
L 172.203583 156.849135 
L 172.841035 156.886687 
L 173.060159 156.816278 
L 173.916736 156.717706 
L 174.394825 156.497093 
L 174.534268 156.544032 
L 174.554189 156.515868 
L 174.653791 156.44546 
L 174.693631 156.468929 
L 174.992437 156.440766 
L 175.191641 156.370357 
L 175.390845 156.398521 
L 175.550208 156.328112 
L 176.207581 156.276479 
L 176.526307 156.370357 
L 176.745431 156.262398 
L 176.924715 156.234234 
L 177.522327 156.182601 
L 177.582088 156.210765 
L 177.641849 156.16852 
L 177.781292 156.215459 
L 179.096037 156.431378 
L 179.255401 156.417296 
L 179.414764 156.42199 
L 180.052216 156.098111 
L 180.430704 155.999539 
L 180.550226 155.999539 
L 180.649828 156.06056 
L 180.669748 156.03709 
L 180.888873 155.9526 
L 181.307201 156.116887 
L 181.486484 156.215459 
L 181.645847 156.215459 
L 181.80521 156.215459 
L 181.944653 156.126274 
L 182.163778 156.023009 
L 182.860991 155.947906 
L 182.960593 156.051172 
L 183.000434 155.985457 
L 183.458603 155.257902 
L 183.81717 155.093616 
L 184.255418 154.417688 
L 184.534304 154.248708 
L 185.171756 154.290953 
L 185.84905 153.920134 
L 185.968572 153.891971 
L 186.247457 153.995237 
L 186.566184 154.21585 
L 186.705626 154.10789 
L 186.825149 154.089115 
L 186.845069 154.121972 
L 187.223557 154.403606 
L 188.598063 154.934017 
L 188.697665 154.92463 
L 188.717586 154.962181 
L 188.976551 155.20627 
L 189.295277 155.229739 
L 189.534322 155.389332 
L 189.872968 155.356474 
L 190.032332 155.295454 
L 190.131933 155.220351 
L 190.311217 155.103004 
L 190.689704 155.117085 
L 191.088112 155.26729 
L 191.50644 155.164024 
L 192.104052 154.614832 
L 192.243495 154.535036 
L 192.701664 154.164217 
L 192.821186 154.103197 
L 193.00047 153.999931 
L 193.279355 153.981155 
L 193.637922 154.272177 
L 193.857046 154.422382 
L 194.315215 154.53973 
L 194.434738 154.563199 
L 194.892907 154.844833 
L 195.430757 155.220351 
L 195.629961 155.257902 
L 195.809245 155.35178 
L 196.10805 155.548924 
L 196.386936 155.37525 
L 196.964627 155.670966 
L 197.163831 155.689741 
L 197.382955 155.713211 
L 197.721602 155.76015 
L 197.960647 155.769538 
L 198.080169 155.750762 
L 198.219612 155.722599 
L 198.478577 155.680354 
L 198.65786 155.713211 
L 199.355074 155.802395 
L 199.494517 155.825865 
L 199.892924 155.595863 
L 200.251491 155.5677 
L 200.450695 155.525455 
L 200.928785 155.619333 
L 201.068227 155.647496 
L 201.426794 155.78362 
L 201.586158 155.76015 
L 202.522416 156.079335 
L 202.72162 156.004233 
L 202.880983 156.013621 
L 202.940744 156.004233 
L 202.980585 156.051172 
L 203.339152 156.187295 
L 203.438754 156.055866 
L 203.518435 155.994845 
L 203.578197 156.03709 
L 203.877002 156.06056 
L 204.135968 156.201377 
L 204.653898 156.426684 
L 204.833181 156.468929 
L 205.171828 156.431378 
L 205.390952 156.346888 
L 205.610076 156.093417 
L 206.386972 156.346888 
L 206.745539 156.154438 
L 206.904902 156.126274 
L 207.183787 155.919743 
L 207.442752 155.825865 
L 207.582195 155.746068 
L 207.622036 155.797701 
L 207.86108 155.966682 
L 208.219647 155.938518 
L 209.036383 155.835252 
L 209.215667 155.746068 
L 209.713677 155.656884 
L 210.191766 155.164024 
L 210.39097 155.056059 
L 210.610094 154.995038 
L 211.048343 155.079528 
L 211.805318 154.844833 
L 211.964681 154.919936 
L 212.303327 154.81667 
L 212.721656 154.403606 
L 213.139984 154.314422 
L 213.578232 154.661771 
L 214.175844 154.821364 
L 214.295366 154.858915 
L 214.434809 154.92463 
L 214.793376 154.971569 
L 214.99258 154.887078 
L 215.191784 154.736873 
L 215.53043 154.614832 
L 216.406928 154.915242 
L 216.665893 154.957487 
L 216.825256 154.957487 
L 217.02446 154.976262 
L 217.124062 154.934017 
L 217.163902 154.990344 
L 217.303345 155.060753 
L 217.482629 154.971569 
L 217.801355 154.704016 
L 218.140002 154.581975 
L 218.57825 154.929323 
L 218.797374 154.783812 
L 218.996578 154.666465 
L 219.733633 154.727486 
L 219.892996 154.736873 
L 220.231643 154.826058 
L 220.450767 154.915242 
L 220.530448 154.999732 
L 220.769493 155.225045 
L 221.486627 155.506679 
L 221.745592 155.558312 
L 221.924876 155.647496 
L 222.104159 155.703823 
L 222.462726 155.793007 
L 222.701771 155.957294 
L 224.893014 156.867911 
L 224.992616 156.943013 
L 225.052377 157.008728 
L 225.112138 156.947707 
L 225.171899 156.943013 
L 225.19182 156.980565 
L 225.331262 157.032198 
L 225.968715 157.21526 
L 226.506565 157.079137 
L 226.825292 157.041585 
L 226.944814 156.989952 
L 226.964734 157.018116 
L 227.203779 157.111994 
L 227.741629 157.088524 
L 228.159958 157.168321 
L 229.713748 156.689543 
L 230.052395 156.389133 
L 230.510564 156.389133 
L 230.749608 156.393827 
L 231.207777 156.398521 
L 231.406981 156.295255 
L 231.626105 156.309337 
L 232.064354 156.201377 
L 232.86117 156.107499 
L 233.120135 156.248316 
L 233.140055 156.224846 
L 233.418941 156.210765 
L 233.737667 156.243622 
L 234.574323 156.154438 
L 234.733686 156.14505 
L 236.088273 155.624027 
L 236.347238 155.525455 
L 236.44684 155.558312 
L 236.646044 155.666272 
L 236.785486 155.656884 
L 236.924929 155.755456 
L 236.94485 155.741374 
L 237.163974 155.638109 
L 237.283496 155.633415 
L 237.422939 155.614639 
L 238.020551 155.450352 
L 238.677923 155.506679 
L 238.99665 155.384638 
L 239.195854 155.511373 
L 239.315376 155.5677 
L 239.494659 155.54423 
L 239.634102 155.525455 
L 239.992669 155.501985 
L 240.809405 155.239127 
L 240.928928 155.15933 
L 241.167972 154.910548 
L 241.446858 154.872997 
L 241.685902 154.87769 
L 242.024549 154.849527 
L 242.502638 154.53973 
L 243.179932 154.43177 
L 243.59826 154.009319 
L 243.936906 153.66197 
L 244.215792 153.544622 
L 244.713802 153.55401 
L 245.411015 152.751353 
L 245.66998 152.59176 
L 245.889105 152.460331 
L 245.968786 152.404004 
L 246.307433 152.033186 
L 247.582338 152.436861 
L 247.72178 152.474412 
L 248.040507 152.511964 
L 248.259631 152.493188 
L 248.359233 152.526045 
L 248.359233 152.526045 
" clip-path="url(#pe95c845654)" style="fill: none; stroke: #000000; stroke-opacity: 0.5; stroke-width: 1.5; stroke-linecap: square"/>
   </g>
   <g id="line2d_13">
    <path d="M 45.450142 157.018116 
L 45.609505 157.060361 
L 45.928231 157.093218 
L 46.625445 157.19179 
L 46.964092 157.426485 
L 47.163296 157.417098 
L 47.601544 157.219954 
L 47.780828 157.187096 
L 47.960111 157.19179 
L 48.179235 157.027504 
L 48.39836 156.971177 
L 48.637404 156.825666 
L 48.856529 156.572195 
L 49.075653 156.590971 
L 49.374459 156.55342 
L 49.553742 156.487705 
L 49.772867 156.595665 
L 50.729045 156.487705 
L 51.346577 156.31403 
L 51.98403 156.351582 
L 52.242995 156.346888 
L 53.099572 156.436072 
L 53.258935 156.417296 
L 53.936228 156.61444 
L 54.832646 156.93832 
L 55.05177 157.046279 
L 55.390417 157.140157 
L 55.529859 157.135463 
L 55.788824 157.177709 
L 56.027869 157.224648 
L 56.685242 157.177709 
L 56.864525 157.182402 
L 57.342615 157.182402 
L 58.09959 157.093218 
L 58.298793 156.900768 
L 58.497997 156.961789 
L 58.996007 157.074443 
L 59.13545 157.069749 
L 59.374495 157.154239 
L 60.609559 157.257505 
L 61.247011 157.440567 
L 61.426295 157.379546 
L 61.446215 157.403016 
L 61.665339 157.4922 
L 62.023906 157.595466 
L 62.163349 157.567302 
L 62.581677 157.403016 
L 62.880483 157.482812 
L 63.677299 157.403016 
L 64.23507 157.647099 
L 64.77292 157.895876 
L 65.350611 158.04608 
L 65.609577 157.895876 
L 65.888462 157.722201 
L 65.948223 157.70812 
L 65.988064 157.76914 
L 66.466153 157.881794 
L 66.645437 157.736283 
L 66.725118 157.173015 
L 66.78488 157.295056 
L 67.30281 157.96159 
L 68.019944 158.23853 
L 68.438272 158.656288 
L 69.334689 158.75486 
L 69.494053 158.848738 
L 69.653416 158.872207 
L 70.111585 158.86282 
L 70.529913 159.045882 
L 70.689276 159.074045 
L 70.88848 159.088127 
L 71.027923 159.120984 
L 71.685295 159.167923 
L 72.004022 159.11629 
L 72.183305 159.191393 
L 72.402429 159.149148 
L 72.780917 159.22425 
L 72.980121 159.13976 
L 73.000041 159.163229 
L 73.577732 159.135066 
L 73.737096 159.078739 
L 73.896459 159.069351 
L 74.414389 159.177311 
L 74.872558 159.177311 
L 75.031921 159.111596 
L 75.051841 159.135066 
L 75.171364 159.111596 
L 76.326746 158.952004 
L 76.745074 159.275883 
L 76.904438 159.407312 
L 77.183323 159.623232 
L 77.681333 159.853233 
L 78.079741 160.144255 
L 78.278945 160.327317 
L 78.816795 160.46344 
L 78.996079 160.496298 
L 79.454248 160.599563 
L 79.673372 160.637115 
L 79.733133 160.54793 
L 79.792894 160.604257 
L 79.932337 160.576094 
L 79.992098 160.538543 
L 80.031939 160.585482 
L 80.151461 160.54793 
L 80.390506 160.599563 
L 80.569789 160.669972 
L 80.58971 160.623033 
L 80.808834 160.289766 
L 80.968197 160.336705 
L 81.167401 160.35548 
L 81.585729 160.458746 
L 82.043898 160.566706 
L 82.203261 160.491604 
L 82.462226 160.651196 
L 82.681351 160.820177 
L 83.478166 161.313037 
L 83.537927 161.327118 
L 83.577768 161.289567 
L 83.876574 161.209771 
L 84.115619 161.247322 
L 84.454265 161.209771 
L 85.549887 160.838952 
L 86.087737 160.707523 
L 86.326782 160.599563 
L 86.466225 160.5714 
L 86.486145 160.59487 
L 86.824792 160.76385 
L 87.063836 160.768544 
L 87.302881 160.533849 
L 87.581767 159.77813 
L 88.398503 157.783222 
L 88.657468 157.567302 
L 89.334761 157.356077 
L 89.514044 157.40771 
L 89.733169 157.464037 
L 90.450303 157.745671 
L 90.928392 157.966284 
L 91.147516 158.027305 
L 91.86465 158.243224 
L 92.063854 158.224449 
L 92.282979 158.290163 
L 92.402501 158.341796 
L 93.697326 158.829962 
L 93.87661 158.881595 
L 94.135575 159.017718 
L 94.91247 159.120984 
L 95.290957 159.182005 
L 95.41048 159.243026 
L 95.90849 159.463639 
L 96.227216 159.510578 
L 96.42642 159.4167 
L 96.725225 159.519966 
L 96.94435 159.482415 
L 97.44236 159.834457 
L 97.581802 159.923641 
L 97.601723 159.900172 
L 97.820847 159.867315 
L 98.239175 160.036295 
L 99.593762 160.261602 
L 99.792966 160.224051 
L 100.091771 160.317929 
L 100.390577 160.449359 
L 100.928428 160.712217 
L 101.127632 160.608951 
L 101.864686 160.54793 
L 102.183412 160.721605 
L 102.342775 160.669972 
L 102.482218 160.67936 
L 102.641581 160.632421 
L 102.980228 160.332011 
L 103.637601 160.383644 
L 103.777043 160.346093 
L 103.796964 160.37895 
L 103.916486 160.393032 
L 104.09577 160.388338 
L 104.334814 160.435277 
L 104.494178 160.454052 
L 104.713302 160.637115 
L 104.852745 160.618339 
L 105.709321 160.524461 
L 105.848764 160.510379 
L 106.366694 160.613645 
L 107.063908 161.12528 
L 107.283032 161.068954 
L 107.741201 160.853034 
L 107.940405 160.923443 
L 108.21929 160.899973 
L 108.418494 160.998545 
L 108.657539 161.167526 
L 108.777061 161.209771 
L 108.796982 161.190995 
L 108.916504 161.252016 
L 109.414514 161.261404 
L 109.75316 161.284873 
L 109.972285 161.355282 
L 110.23125 161.298955 
L 110.609737 161.402221 
L 110.789021 161.378751 
L 110.928463 161.350588 
L 111.127667 161.359976 
L 111.366712 161.435078 
L 111.844801 161.022015 
L 112.123687 160.975076 
L 112.362732 160.698135 
L 112.502174 160.74038 
L 112.701378 160.759156 
L 113.000184 160.730993 
L 113.099786 160.65589 
L 113.398592 160.576094 
L 113.617716 160.472828 
L 113.797 160.313235 
L 114.514134 160.397726 
L 114.713338 160.505685 
L 115.33087 160.759156 
L 115.510153 160.890585 
L 115.86872 160.909361 
L 116.028083 160.87181 
L 116.446411 160.693441 
L 116.665536 160.684054 
L 116.804978 160.665278 
L 117.561953 160.430583 
L 118.099804 160.411807 
L 118.299008 160.421195 
L 118.657575 160.364868 
L 119.075903 160.5714 
L 119.255186 160.613645 
L 119.474311 160.543237 
L 119.852798 160.519767 
L 119.9524 160.421195 
L 120.012161 160.48691 
L 120.310967 160.576094 
L 120.629693 160.599563 
L 120.808977 160.604257 
L 121.087862 160.496298 
L 121.207385 160.524461 
L 121.605792 160.693441 
L 121.705394 160.299154 
L 121.924519 159.796906 
L 122.083882 159.77813 
L 123.916558 160.317929 
L 124.155602 160.393032 
L 124.514169 160.416501 
L 124.653612 160.407113 
L 124.812975 160.468134 
L 124.932498 160.458746 
L 125.091861 160.444665 
L 125.231303 160.435277 
L 125.868756 160.383644 
L 126.028119 160.454052 
L 126.645651 160.205276 
L 126.765173 160.219357 
L 126.884696 160.205276 
L 127.044059 160.242827 
L 127.62175 160.27099 
L 127.840874 160.20997 
L 128.916575 160.59487 
L 129.195461 160.562012 
L 129.693471 160.336705 
L 130.012197 160.439971 
L 130.311003 160.458746 
L 130.450445 160.444665 
L 130.649649 160.454052 
L 131.546067 160.76385 
L 133.139698 160.280378 
L 133.597867 159.82507 
L 133.816991 159.646701 
L 134.79309 159.30874 
L 134.952454 159.313434 
L 135.231339 159.487109 
L 135.350861 159.463639 
L 135.510225 159.477721 
L 135.629747 159.519966 
L 135.649667 159.50119 
L 135.848871 159.580987 
L 136.008234 159.651395 
L 136.366801 159.458945 
L 136.566005 159.397924 
L 136.82497 159.402618 
L 137.621786 159.318128 
L 137.900671 159.548129 
L 138.518203 159.44017 
L 138.777168 159.426088 
L 139.235337 159.670171 
L 139.255258 159.63262 
L 139.434541 159.637313 
L 139.733347 159.604456 
L 139.932551 159.618538 
L 141.326978 159.402618 
L 141.526182 159.435476 
L 141.705466 159.388537 
L 142.143714 159.491802 
L 142.402679 159.543435 
L 142.542122 159.552823 
L 143.817027 160.040989 
L 144.354878 160.003438 
L 144.554081 160.10201 
L 144.753285 160.031601 
L 145.032171 160.200582 
L 145.410658 160.411807 
L 148.498319 160.510379 
L 148.677602 160.515073 
L 149.05609 160.37895 
L 149.832985 160.289766 
L 150.11187 160.407113 
L 150.410676 160.369562 
L 150.58996 160.27099 
L 150.948527 160.468134 
L 151.486377 160.599563 
L 151.765263 160.529155 
L 152.781203 160.632421 
L 152.960486 160.67936 
L 153.319053 160.707523 
L 154.056107 160.599563 
L 155.23141 160.435277 
L 155.410694 160.482216 
L 155.609898 160.435277 
L 156.566077 160.327317 
L 156.825042 160.322623 
L 157.024246 160.332011 
L 157.24337 160.280378 
L 157.681618 160.181806 
L 157.940583 160.247521 
L 158.438593 160.01752 
L 158.597956 160.012826 
L 159.076046 159.806294 
L 159.27525 159.69364 
L 159.593976 159.58568 
L 160.271269 158.905065 
L 160.291189 158.92384 
L 160.649756 159.120984 
L 163.35893 159.867315 
L 163.717497 160.008132 
L 163.9167 159.99405 
L 164.215506 160.10201 
L 164.534233 160.285072 
L 165.052163 160.529155 
L 165.171685 160.576094 
L 165.829058 160.618339 
L 166.068103 160.613645 
L 166.267306 161.083035 
L 166.327068 161.411609 
L 166.386829 161.303649 
L 167.004361 160.482216 
L 167.48245 160.134867 
L 167.900778 159.88609 
L 168.47847 159.665477 
L 168.737435 159.407312 
L 168.876877 159.299352 
L 169.653773 158.881595 
L 169.753375 158.806493 
L 170.191623 158.618737 
L 170.350986 158.585879 
L 170.729474 158.365266 
L 170.968518 158.262 
L 171.0482 158.304245 
L 171.147802 158.34649 
L 171.187643 158.313633 
L 171.506369 158.107101 
L 171.665732 158.04608 
L 172.283264 157.609548 
L 172.502388 157.459343 
L 172.701592 157.38424 
L 172.880876 157.38424 
L 173.159761 157.262199 
L 173.717532 157.487506 
L 173.896816 157.553221 
L 174.255383 157.647099 
L 174.494427 157.764446 
L 174.653791 157.825467 
L 174.872915 157.919345 
L 175.032278 157.914651 
L 176.088059 157.773834 
L 176.426705 157.881794 
L 177.084078 157.539139 
L 177.283282 157.553221 
L 177.562167 157.712813 
L 177.781292 157.834855 
L 178.339063 157.994448 
L 178.498426 157.942815 
L 179.096037 157.975672 
L 179.374923 157.966284 
L 180.390863 157.834855 
L 180.530306 157.830161 
L 180.948634 157.665874 
L 181.26736 157.689344 
L 181.446643 157.68465 
L 182.044255 157.712813 
L 183.040275 157.562609 
L 183.239479 157.66118 
L 183.418762 157.68465 
L 183.936692 157.694038 
L 184.434702 157.464037 
L 185.052234 157.633017 
L 185.749448 157.698732 
L 185.84905 157.750365 
L 186.008413 157.750365 
L 186.725547 157.806691 
L 186.88491 157.811385 
L 187.044273 157.736283 
L 188.677745 157.449955 
L 188.797267 157.510976 
L 188.817188 157.487506 
L 189.016392 157.393628 
L 189.474561 157.4922 
L 190.052252 157.464037 
L 190.351058 157.553221 
L 190.888908 157.449955 
L 191.127953 157.412404 
L 192.562221 157.520363 
L 192.920788 157.567302 
L 193.438718 157.675262 
L 193.578161 157.703426 
L 193.777365 157.694038 
L 194.912827 157.848937 
L 195.191712 157.825467 
L 196.127971 158.144652 
L 196.446697 158.327715 
L 196.705662 158.440368 
L 196.865025 158.501389 
L 197.163831 158.6469 
L 197.363035 158.604655 
L 197.522398 158.707921 
L 198.000487 158.829962 
L 198.279373 158.764248 
L 198.498497 158.707921 
L 199.255472 158.628124 
L 199.594119 158.872207 
L 199.753482 158.905065 
L 200.211651 159.097515 
L 200.968626 159.388537 
L 201.20767 159.477721 
L 201.7256 159.243026 
L 201.984565 159.191393 
L 202.402894 159.11629 
L 202.582177 159.167923 
L 202.781381 159.22425 
L 203.000505 159.266495 
L 203.25947 159.252413 
L 203.637958 159.388537 
L 204.215649 159.430782 
L 204.554296 159.186699 
L 204.892942 159.163229 
L 204.972624 159.111596 
L 205.012465 159.163229 
L 205.151907 159.20078 
L 205.78936 159.013024 
L 207.801319 159.388537 
L 207.980603 159.39323 
L 208.159886 159.322822 
L 208.478612 159.341598 
L 208.618055 159.477721 
L 208.677816 159.407312 
L 210.251527 159.144454 
L 211.128024 159.454251 
L 211.327228 159.430782 
L 211.586193 159.534048 
L 211.745556 159.642007 
L 212.522452 159.712416 
L 212.622054 159.782824 
L 213.080223 159.679559 
L 213.578232 159.557517 
L 214.355127 159.627926 
L 214.47465 159.656089 
L 214.634013 159.731191 
L 214.873058 159.829763 
L 215.191784 159.979968 
L 215.849157 159.881396 
L 216.02844 159.792212 
L 216.406928 159.792212 
L 216.52645 159.815682 
L 216.765495 159.731191 
L 216.865097 159.674865 
L 217.203743 159.257107 
L 217.881036 159.473027 
L 218.100161 159.444863 
L 218.638011 159.552823 
L 218.857136 159.534048 
L 219.295384 159.24772 
L 219.514508 158.928534 
L 219.733633 158.928534 
L 219.912916 159.017718 
L 220.11212 159.106902 
L 220.371085 159.252413 
L 221.12806 159.491802 
L 221.367105 159.543435 
L 221.606149 159.63262 
L 221.885035 159.674865 
L 222.183841 159.63262 
L 224.972695 159.731191 
L 225.19182 159.8016 
L 225.510546 159.083433 
L 225.74959 158.73139 
L 226.068317 158.308939 
L 226.526486 157.938121 
L 226.845212 157.76914 
L 227.163938 157.811385 
L 227.482664 157.712813 
L 227.78147 157.755059 
L 227.920913 157.722201 
L 228.140037 157.726895 
L 228.598206 157.942815 
L 228.757569 157.905263 
L 228.976694 158.031999 
L 229.29542 158.139959 
L 229.494624 158.182204 
L 230.450802 158.510777 
L 230.82929 158.707921 
L 231.008573 158.736084 
L 231.227698 158.62343 
L 232.283478 158.759554 
L 233.279498 158.86282 
L 233.438861 158.937922 
L 233.458781 158.919146 
L 233.618144 158.876901 
L 234.056393 158.970779 
L 234.255597 158.876901 
L 234.594244 158.829962 
L 234.773527 158.876901 
L 235.132094 158.829962 
L 236.46676 158.62343 
L 237.602222 158.783023 
L 237.940869 158.247918 
L 237.98071 158.280776 
L 238.259595 158.449756 
L 238.857207 158.609349 
L 239.175933 158.632818 
L 239.295456 158.595267 
L 239.414978 158.585879 
L 240.869166 158.81588 
L 243.857225 158.740778 
L 244.09627 158.45445 
L 244.972767 158.355878 
L 245.13213 158.36996 
L 245.430936 158.205673 
L 245.63014 157.872406 
L 245.789503 157.909957 
L 245.988707 158.003835 
L 246.367194 158.299551 
L 246.725761 158.407511 
L 246.964806 158.520165 
L 247.124169 158.487307 
L 247.323373 158.45445 
L 247.662019 158.567104 
L 248.19987 158.402817 
L 248.339313 158.459144 
L 248.359233 158.440368 
" clip-path="url(#pe95c845654)" style="fill: none; stroke: #000000; stroke-opacity: 0.5; stroke-width: 1.5; stroke-linecap: square"/>
   </g>
   <g id="line2d_14">
    <path d="M 45.450142 154.638301 
L 47.043773 154.736873 
L 47.262898 154.802588 
L 47.581624 154.530342 
L 47.840589 154.276871 
L 47.960111 154.244014 
L 48.159315 154.145442 
L 48.258917 154.15483 
L 48.278837 154.117278 
L 48.458121 153.896665 
L 48.91629 153.999931 
L 49.713105 154.253401 
L 49.872469 154.32381 
L 50.071672 154.342586 
L 51.545781 154.23932 
L 51.705144 154.182993 
L 51.824667 154.145442 
L 51.944189 154.173605 
L 52.262915 154.211156 
L 53.358537 154.056258 
L 53.677263 154.319116 
L 54.095591 154.412994 
L 54.354556 154.520954 
L 54.653362 154.563199 
L 55.490019 154.647689 
L 55.808745 154.68524 
L 56.06771 154.633608 
L 56.187232 154.661771 
L 56.326675 154.638301 
L 56.725083 154.403606 
L 57.08365 154.591362 
L 57.701182 154.549117 
L 57.940226 154.633608 
L 58.398395 154.638301 
L 58.796803 154.328504 
L 59.15537 154.140748 
L 59.434256 154.150136 
L 59.812743 154.164217 
L 60.051788 154.244014 
L 60.290832 154.21585 
L 60.569718 153.737072 
L 60.589638 153.751154 
L 60.788842 153.774623 
L 60.868524 153.784011 
L 60.888444 153.826256 
L 61.326693 154.089115 
L 61.984066 154.182993 
L 62.382473 154.412994 
L 62.760961 154.394219 
L 63.119528 154.32381 
L 63.358573 154.4083 
L 63.876503 154.398912 
L 65.091646 154.295647 
L 65.191248 154.234626 
L 65.231089 154.281565 
L 65.370532 154.276871 
L 66.107586 154.342586 
L 66.28687 154.4083 
L 66.645437 154.619526 
L 66.725118 155.239127 
L 66.78488 155.140555 
L 67.262969 154.642995 
L 67.422332 154.445851 
L 67.760979 154.098503 
L 68.378511 153.666664 
L 68.83668 153.333397 
L 69.055804 153.155028 
L 69.195247 153.028293 
L 69.553814 152.643393 
L 69.772938 152.300738 
L 70.091664 151.878287 
L 70.768958 151.530938 
L 71.665375 151.216447 
L 71.964181 151.085017 
L 73.358608 150.850322 
L 73.577732 150.953588 
L 73.717175 151.000527 
L 74.075742 150.972364 
L 74.274946 150.864404 
L 74.653434 150.920731 
L 75.828737 151.089711 
L 76.00802 151.117875 
L 76.306826 151.216447 
L 76.565791 151.207059 
L 77.322766 151.488693 
L 77.502049 151.587265 
L 77.880537 151.526244 
L 78.179343 151.709306 
L 78.896477 151.779715 
L 79.07576 151.751551 
L 79.255044 151.779715 
L 80.330745 152.136451 
L 80.569789 152.249105 
L 80.649471 152.211554 
L 80.689312 152.267881 
L 80.868595 152.366453 
L 81.087719 152.371147 
L 81.306844 152.188084 
L 81.784933 152.300738 
L 81.884535 152.357065 
L 82.043898 152.39931 
L 82.203261 152.474412 
L 83.278962 152.840537 
L 83.617609 152.896864 
L 83.816813 152.817067 
L 84.115619 152.859312 
L 84.314823 152.89217 
L 84.852673 152.643393 
L 85.70925 152.741965 
L 85.888533 152.78421 
L 86.506066 153.042375 
L 86.645508 153.023599 
L 87.004075 153.051762 
L 87.721209 153.117477 
L 88.000095 153.103395 
L 89.81285 153.643194 
L 89.992134 153.6385 
L 90.609666 153.737072 
L 90.928392 153.840338 
L 91.067835 153.840338 
L 91.207278 153.849726 
L 91.725208 153.600949 
L 91.964252 153.6385 
L 92.143536 153.605643 
L 92.462262 153.572786 
L 93.39852 153.239519 
L 93.498122 153.201967 
L 93.816849 153.230131 
L 93.996132 153.234825 
L 94.115654 153.286458 
L 94.314858 153.328703 
L 94.753107 153.319315 
L 95.091754 153.281764 
L 95.689365 153.319315 
L 95.888569 153.281764 
L 96.067853 153.267682 
L 96.247136 153.291151 
L 96.486181 153.286458 
L 96.645544 153.262988 
L 96.924429 153.309927 
L 97.063872 153.309927 
L 97.302917 153.300539 
L 97.46228 153.347478 
L 97.561882 153.394417 
L 97.601723 153.356866 
L 97.860688 153.295845 
L 98.49814 153.342784 
L 98.916468 153.173804 
L 99.075831 153.211355 
L 99.215274 153.19258 
L 99.414478 153.244212 
L 99.613682 153.206661 
L 99.832806 153.230131 
L 100.131612 153.333397 
L 100.390577 153.521153 
L 100.689383 153.539928 
L 101.306915 153.647888 
L 101.466278 153.718297 
L 101.745164 153.652582 
L 102.163492 153.760542 
L 102.322855 153.727684 
L 102.60174 153.427275 
L 102.860706 152.878088 
L 103.09975 152.831149 
L 103.57784 152.920333 
L 103.757123 152.967272 
L 104.374655 153.159722 
L 104.573859 153.089314 
L 104.852745 153.155028 
L 105.271073 153.234825 
L 108.398574 153.126865 
L 109.135628 153.065844 
L 109.992205 152.957884 
L 110.211329 152.971966 
L 110.350772 152.962578 
L 111.526075 153.065844 
L 111.78504 153.070538 
L 112.123687 153.032987 
L 112.223289 153.009517 
L 112.482254 152.80768 
L 112.980264 152.704414 
L 113.199388 152.59176 
L 113.338831 152.577678 
L 113.518114 152.56829 
L 113.617716 152.535433 
L 113.83684 152.404004 
L 114.295009 152.37584 
L 114.454372 152.455637 
L 115.33087 152.544821 
L 115.490233 152.577678 
L 115.709357 152.544821 
L 115.968322 152.267881 
L 116.466332 152.37584 
L 116.765138 152.338289 
L 116.924501 152.380534 
L 117.203386 152.338289 
L 117.38267 152.333595 
L 118.797017 152.441555 
L 119.514151 152.709108 
L 119.673515 152.756047 
L 120.171524 152.770128 
L 120.609773 152.685638 
L 121.625713 153.047069 
L 121.944439 152.896864 
L 122.303006 152.915639 
L 122.52213 152.948497 
L 123.398627 152.845231 
L 123.876717 152.629311 
L 124.872736 152.540127 
L 125.111781 152.192778 
L 127.004218 152.530739 
L 127.163581 152.530739 
L 127.322944 152.572984 
L 127.561989 152.497882 
L 127.900636 152.530739 
L 129.793073 152.864006 
L 129.912595 152.943803 
L 130.091878 152.967272 
L 130.530127 152.751353 
L 130.68949 152.718495 
L 130.828933 152.624617 
L 131.107818 152.50727 
L 131.506226 152.516658 
L 131.72535 152.502576 
L 132.502246 152.394616 
L 132.641688 152.42278 
L 132.820972 152.493188 
L 133.000255 152.563597 
L 133.139698 152.516658 
L 133.318982 152.582372 
L 133.498265 152.685638 
L 133.518186 152.666862 
L 133.916593 152.59176 
L 134.195479 152.549515 
L 134.673568 152.338289 
L 135.311021 152.300738 
L 135.510225 152.239717 
L 135.868792 151.967471 
L 136.924572 152.328901 
L 137.064015 152.31482 
L 137.382741 152.145839 
L 137.701467 152.174003 
L 137.880751 152.112982 
L 138.159636 152.047267 
L 138.677566 151.944001 
L 138.797089 151.976859 
L 140.151675 152.404004 
L 140.470402 152.497882 
L 140.968411 152.389922 
L 141.765227 152.310126 
L 141.964431 152.42278 
L 142.402679 152.530739 
L 142.621804 152.59176 
L 143.060052 152.582372 
L 143.936549 152.272575 
L 144.115833 152.03788 
L 144.135753 152.051961 
L 144.534161 152.070737 
L 144.852887 152.164615 
L 145.171614 152.136451 
L 145.350897 152.047267 
L 145.749305 151.981553 
L 147.203493 152.084819 
L 147.442538 152.080125 
L 148.358876 151.972165 
L 148.498319 151.972165 
L 148.797125 152.220942 
L 150.58996 152.943803 
L 150.729402 152.967272 
L 150.848925 152.948497 
L 150.888765 152.929721 
L 150.948527 153.00013 
L 151.087969 153.070538 
L 151.307094 153.178498 
L 151.506298 153.244212 
L 151.6059 153.155028 
L 151.825024 153.19258 
L 151.964467 153.300539 
L 152.004307 153.267682 
L 152.103909 153.352172 
L 152.482397 153.568092 
L 152.681601 153.591561 
L 153.398735 153.66197 
L 153.637779 153.539928 
L 153.876824 153.558704 
L 154.17563 153.370948 
L 154.69356 153.492989 
L 154.952525 153.488295 
L 155.350933 153.394417 
L 155.470455 153.403805 
L 155.7095 153.44605 
L 156.287191 153.347478 
L 156.566077 153.159722 
L 156.74536 153.136253 
L 156.984405 153.089314 
L 158.817081 153.197273 
L 158.976444 153.155028 
L 159.135807 153.230131 
L 159.414692 153.19258 
L 159.693578 153.075232 
L 160.390791 153.009517 
L 160.789199 153.159722 
L 160.988403 153.14564 
L 161.386811 153.131559 
L 162.103945 152.906251 
L 162.323069 152.859312 
L 162.482432 152.873394 
L 162.801159 152.906251 
L 163.37885 152.680944 
L 163.518293 152.643393 
L 163.757337 152.638699 
L 163.936621 152.605842 
L 164.41471 152.502576 
L 164.534233 152.511964 
L 164.833038 152.610536 
L 164.972481 152.662169 
L 165.211526 152.610536 
L 165.530252 152.577678 
L 166.008341 152.713801 
L 166.167704 152.666862 
L 166.227466 152.662169 
L 166.327068 151.986247 
L 166.406749 152.136451 
L 166.665714 152.530739 
L 166.825077 152.638699 
L 167.422689 153.037681 
L 167.46253 152.967272 
L 167.701574 153.014211 
L 167.880858 153.094008 
L 167.98046 153.047069 
L 168.677674 151.540326 
L 169.115922 151.441754 
L 169.255365 151.422978 
L 169.952579 151.526244 
L 170.291225 151.704612 
L 170.490429 151.812572 
L 170.749394 151.995634 
L 170.968518 151.864205 
L 171.127882 151.925226 
L 171.327085 152.033186 
L 171.825095 152.385228 
L 172.123901 152.680944 
L 173.020319 153.19258 
L 173.259363 153.197273 
L 173.518328 153.267682 
L 173.697612 153.300539 
L 173.896816 153.394417 
L 173.996418 153.436662 
L 174.354985 153.694827 
L 174.773313 153.784011 
L 174.912756 153.751154 
L 175.410765 153.863808 
L 175.590049 153.816869 
L 177.283282 154.497484 
L 177.721531 154.21585 
L 178.020336 154.32381 
L 178.1797 154.290953 
L 178.71755 154.87769 
L 179.793251 155.26729 
L 179.932694 155.309535 
L 180.032296 155.281372 
L 180.291261 154.905854 
L 180.629907 155.004426 
L 181.028315 155.229739 
L 181.645847 155.408107 
L 181.944653 155.389332 
L 182.143857 155.539537 
L 182.562185 155.797701 
L 183.000434 155.694435 
L 183.179717 155.722599 
L 184.115976 155.854028 
L 184.295259 155.67566 
L 184.474543 155.647496 
L 185.052234 155.67566 
L 185.789288 155.131167 
L 186.287298 155.013814 
L 187.323158 155.384638 
L 187.602044 155.417495 
L 187.821168 155.445659 
L 188.139894 155.539537 
L 188.4387 155.670966 
L 188.697665 155.624027 
L 189.155834 155.426883 
L 189.315197 155.426883 
L 189.673764 155.440965 
L 189.912809 155.520761 
L 190.131933 155.572394 
L 190.351058 155.638109 
L 191.287316 155.539537 
L 191.665803 155.314229 
L 192.00445 155.29076 
L 192.143893 155.318923 
L 192.382938 155.262596 
L 192.641903 155.257902 
L 193.00047 155.35178 
L 193.299275 155.487904 
L 193.498479 155.595863 
L 193.677763 155.619333 
L 194.155852 155.619333 
L 195.07219 155.731987 
L 195.510439 155.647496 
L 195.669802 155.713211 
L 195.928767 155.746068 
L 196.06821 155.713211 
L 196.685742 155.971376 
L 196.825184 155.9526 
L 197.223592 156.027702 
L 197.502478 156.008927 
L 197.60208 155.957294 
L 198.259453 155.769538 
L 198.398895 155.755456 
L 198.697701 155.656884 
L 199.394915 155.872804 
L 199.793323 155.670966 
L 200.15189 155.54423 
L 200.291332 155.464434 
L 200.410855 155.511373 
L 201.466635 156.14505 
L 201.7256 156.14505 
L 202.522416 156.407909 
L 202.920824 156.42199 
L 203.199709 156.534644 
L 203.438754 156.483011 
L 203.877002 156.210765 
L 204.135968 156.384439 
L 204.27541 156.403215 
L 204.454694 156.50648 
L 205.032385 156.656685 
L 205.151907 156.684849 
L 205.371032 156.717706 
L 205.570236 156.816278 
L 205.78936 156.839748 
L 206.406892 156.881993 
L 206.586175 156.91485 
L 206.785379 157.013422 
L 207.084185 157.1073 
L 207.34315 157.097912 
L 207.462673 157.060361 
L 207.602115 157.018116 
L 209.096145 156.431378 
L 209.87304 156.332806 
L 210.291368 156.16852 
L 210.948741 156.116887 
L 211.088184 156.074641 
L 211.745556 155.73668 
L 211.865079 155.835252 
L 212.183805 155.938518 
L 212.44277 155.933824 
L 212.701735 155.938518 
L 213.398949 155.830559 
L 213.518471 155.854028 
L 214.096162 155.896273 
L 214.315287 155.764844 
L 214.773456 155.661578 
L 215.171863 155.59117 
L 215.630032 155.487904 
L 215.888998 155.394026 
L 216.128042 155.39872 
L 216.247565 155.295454 
L 216.446768 155.079528 
L 216.486609 155.117085 
L 216.645972 155.079528 
L 216.805335 155.09831 
L 217.163902 155.046671 
L 217.701753 154.957487 
L 217.821275 154.976262 
L 218.020479 155.084228 
L 218.179842 155.201576 
L 218.319285 155.210963 
L 218.916897 155.314229 
L 219.09618 155.37525 
L 219.295384 155.436271 
L 220.132041 155.708517 
L 220.271483 155.727293 
L 220.63005 155.699129 
L 220.928856 155.619333 
L 221.227662 155.65219 
L 221.665911 155.750762 
L 221.904955 155.755456 
L 222.223681 155.717905 
L 222.462726 155.825865 
L 222.881054 155.994845 
L 223.080258 156.06056 
L 223.299383 156.224846 
L 223.65795 156.351582 
L 223.757552 156.403215 
L 223.956755 156.55342 
L 224.1958 156.558113 
L 224.494606 156.651991 
L 224.793412 156.628522 
L 224.952775 156.567501 
L 225.132058 156.558113 
L 226.546406 156.778727 
L 226.825292 156.661379 
L 227.004575 156.605052 
L 227.303381 156.412602 
L 227.522505 156.431378 
L 227.681868 156.431378 
L 227.940833 156.271785 
L 228.27948 155.919743 
L 228.737649 156.027702 
L 229.076296 156.210765 
L 229.195818 156.182601 
L 229.414942 156.149744 
L 229.634067 156.25301 
L 229.873111 156.149744 
L 229.972713 155.957294 
L 230.271519 155.713211 
L 230.351201 155.638109 
L 230.550404 155.497291 
L 231.267538 155.717905 
L 231.506583 155.774232 
L 234.195836 155.882191 
L 234.594244 155.877498 
L 234.733686 155.863416 
L 234.893049 155.938518 
L 234.91297 155.919743 
L 235.052413 155.915049 
L 235.331298 156.027702 
L 235.550422 156.088723 
L 235.889069 156.135662 
L 236.287477 156.149744 
L 237.522541 156.55342 
L 238.120153 156.713012 
L 238.259595 156.717706 
L 238.797446 156.609746 
L 238.956809 156.576889 
L 239.434898 156.351582 
L 239.634102 156.187295 
L 239.813386 156.215459 
L 239.992669 156.210765 
L 240.271555 156.102805 
L 240.450838 156.130968 
L 240.610201 156.055866 
L 240.948848 155.685048 
L 241.148052 155.347087 
L 241.367176 155.455046 
L 241.885106 155.553618 
L 242.58232 155.915049 
L 243.040489 155.807089 
L 243.160011 155.816477 
L 243.996668 156.098111 
L 244.175951 156.03709 
L 244.6142 155.933824 
L 244.913006 155.793007 
L 245.411015 155.910355 
L 245.550458 155.971376 
L 245.889105 156.149744 
L 246.028547 155.938518 
L 246.426955 154.995038 
L 246.666 154.689934 
L 247.084328 154.412994 
L 247.223771 154.4083 
L 247.72178 154.309728 
L 247.920984 154.258095 
L 248.259631 154.380137 
L 248.359233 154.319116 
L 248.359233 154.319116 
" clip-path="url(#pe95c845654)" style="fill: none; stroke: #000000; stroke-opacity: 0.5; stroke-width: 1.5; stroke-linecap: square"/>
   </g>
   <g id="line2d_15">
    <path d="M 45.450142 151.540326 
L 45.609505 151.465223 
L 45.968072 151.479305 
L 46.107515 151.451142 
L 46.466082 151.46053 
L 46.824649 151.671755 
L 47.123455 151.582571 
L 47.342579 151.54502 
L 48.258917 150.625015 
L 48.776847 150.502973 
L 49.235016 150.49828 
L 49.852548 150.66726 
L 49.95215 150.714199 
L 50.131434 150.765832 
L 50.211115 150.789301 
L 50.231036 150.822159 
L 50.350558 150.793995 
L 50.689205 150.671954 
L 52.023871 151.422978 
L 52.52188 151.746858 
L 53.179253 151.793797 
L 53.338616 151.704612 
L 53.358537 151.723388 
L 53.53782 151.864205 
L 53.956149 151.803184 
L 54.195193 151.422978 
L 54.215114 151.432366 
L 54.374477 151.418284 
L 54.573681 151.371345 
L 54.912327 151.65298 
L 55.450178 151.920532 
L 55.54978 151.939308 
L 55.928267 152.225636 
L 56.227073 152.267881 
L 57.043809 152.535433 
L 57.243013 152.587066 
L 57.501978 152.643393 
L 57.999988 152.624617 
L 58.298793 152.756047 
L 59.035848 152.319514 
L 59.175291 152.159921 
L 59.195211 152.169309 
L 59.414335 152.192778 
L 60.051788 151.981553 
L 60.370514 152.258493 
L 60.509957 152.20686 
L 60.649399 152.178697 
L 62.063747 152.39931 
L 62.621518 152.357065 
L 62.760961 152.404004 
L 62.960165 152.352371 
L 63.438254 152.469719 
L 63.836662 152.216248 
L 63.956184 152.197472 
L 64.055786 152.192778 
L 64.075707 152.220942 
L 64.414353 152.328901 
L 64.812761 152.39931 
L 65.171328 152.127064 
L 65.470134 152.20686 
L 66.027905 152.347677 
L 66.366551 152.235023 
L 66.605596 152.267881 
L 66.625516 152.37584 
L 66.725118 155.957294 
L 66.8048 155.112391 
L 67.30281 151.82196 
L 68.139466 147.883776 
L 68.637476 146.339482 
L 69.255008 144.682534 
L 69.912381 142.88477 
L 70.350629 141.481293 
L 70.988082 139.706998 
L 71.446251 137.824743 
L 72.103624 133.684721 
L 72.163385 132.295326 
L 72.203226 122.733847 
L 72.342668 14.76 
L 72.42235 43.510154 
L 72.741076 153.887277 
L 72.92036 157.074443 
L 72.980121 157.126076 
L 73.019962 157.08383 
L 73.179325 156.572195 
L 74.195265 152.493188 
L 74.533911 151.422978 
L 75.529931 148.512759 
L 76.107622 147.20316 
L 79.673372 140.716187 
L 79.952257 140.603533 
L 80.051859 140.556594 
L 80.649471 140.012101 
L 80.828754 139.97455 
L 81.286923 139.86659 
L 81.426366 139.824345 
L 81.665411 139.650671 
L 81.844694 139.575569 
L 82.163421 139.195362 
L 82.402465 139.148423 
L 82.561828 139.176587 
L 83.378564 138.876177 
L 83.577768 138.561686 
L 83.757052 138.284745 
L 83.776972 138.298827 
L 84.135539 138.35046 
L 84.69331 138.087601 
L 84.932355 137.928009 
L 85.171399 137.852906 
L 85.410444 137.74964 
L 85.629568 137.707395 
L 85.828772 137.782498 
L 85.968215 137.838825 
L 86.167419 137.909233 
L 86.685349 138.035969 
L 86.884553 137.937397 
L 87.023996 137.956172 
L 87.183359 137.885764 
L 87.382563 137.904539 
L 88.677388 138.984137 
L 89.354681 138.782299 
L 90.33078 139.115566 
L 90.470223 139.190669 
L 90.510064 139.139036 
L 90.629586 139.054545 
L 90.649507 139.078015 
L 91.067835 139.406588 
L 92.163456 139.810264 
L 92.581784 139.819651 
L 92.86067 139.899448 
L 93.000113 139.965162 
L 93.3786 140.317205 
L 93.458282 140.345369 
L 93.478202 140.373532 
L 94.075814 140.791289 
L 94.294938 140.85231 
L 94.792948 140.96027 
L 94.89255 140.871086 
L 95.350719 140.664554 
L 95.549922 140.645778 
L 95.769047 140.500267 
L 96.008091 140.514349 
L 96.147534 140.486186 
L 96.46626 140.387614 
L 96.745146 140.321899 
L 97.024031 140.218633 
L 97.143554 140.044959 
L 98.039971 138.965361 
L 98.199334 138.974749 
L 98.537981 138.664951 
L 98.717264 138.514747 
L 99.135593 138.106377 
L 100.330816 136.83433 
L 100.848746 136.289837 
L 101.127632 136.04106 
L 101.944368 135.421465 
L 102.58182 134.839421 
L 102.960308 134.562481 
L 103.139591 134.60942 
L 103.518078 134.243295 
L 103.637601 134.219826 
L 103.856725 134.158805 
L 104.075849 134.064927 
L 104.135611 134.03207 
L 104.175451 134.074315 
L 104.354735 134.074315 
L 104.892585 134.158805 
L 105.051948 134.22452 
L 105.171471 134.271459 
L 105.350754 134.412276 
L 106.406535 135.031871 
L 106.924465 135.590445 
L 107.18343 135.590445 
L 107.621679 135.881467 
L 107.900564 136.308612 
L 108.358733 136.956371 
L 108.458335 137.064331 
L 108.577857 137.256781 
L 108.637619 137.191066 
L 108.757141 137.130045 
L 108.777061 137.158209 
L 109.115708 137.561884 
L 109.494195 137.909233 
L 109.773081 137.937397 
L 109.992205 137.88107 
L 110.330852 137.904539 
L 110.74918 138.195561 
L 110.7691 138.172092 
L 110.948384 138.101683 
L 111.306951 138.233112 
L 111.526075 138.176786 
L 111.904563 138.096989 
L 112.342811 138.54291 
L 112.761139 138.632094 
L 112.960343 138.744748 
L 113.358751 138.946586 
L 113.657557 139.28924 
L 113.876681 139.364343 
L 114.155567 139.354955 
L 114.454372 139.434751 
L 114.653576 139.406588 
L 114.793019 139.486384 
L 114.85278 139.566181 
L 114.912541 139.514548 
L 115.151586 139.476997 
L 115.251188 139.401894 
L 115.510153 139.007606 
L 115.789039 139.031076 
L 116.147606 138.984137 
L 116.466332 138.829238 
L 116.665536 138.65087 
L 116.785058 138.589849 
L 116.824899 138.552298 
L 116.86474 138.603931 
L 117.103784 138.838626 
L 117.681476 139.124954 
L 118.139645 139.218832 
L 118.91654 139.838427 
L 119.075903 139.800876 
L 119.494231 140.012101 
L 119.872718 140.152919 
L 120.749216 140.265572 
L 120.888658 140.218633 
L 120.98826 140.303123 
L 121.028101 140.246797 
L 121.167544 140.218633 
L 122.820936 139.730467 
L 123.119742 139.547405 
L 123.398627 139.293934 
L 123.777115 138.937198 
L 124.653612 138.838626 
L 124.912577 138.303521 
L 125.131701 138.275358 
L 126.904616 138.378623 
L 127.12374 138.364542 
L 127.442467 138.209643 
L 127.701432 138.256582 
L 128.000238 138.223725 
L 128.259203 137.702701 
L 128.876735 137.392904 
L 129.115779 137.435149 
L 129.255222 137.336577 
L 129.514187 137.238005 
L 129.63371 137.144127 
L 129.952436 136.989228 
L 130.470366 136.627798 
L 130.868774 136.242898 
L 131.486306 135.9331 
L 131.72535 135.782895 
L 131.984316 135.557588 
L 132.243281 135.581058 
L 132.581927 135.928406 
L 133.299061 136.388409 
L 134.016195 137.078412 
L 134.115797 137.050249 
L 134.135718 137.073719 
L 134.374762 137.444537 
L 134.573966 137.655762 
L 134.912613 137.674538 
L 135.251259 138.035969 
L 135.530145 138.068826 
L 135.78911 138.322297 
L 136.32696 138.336378 
L 136.466403 138.26597 
L 136.486324 138.294133 
L 136.546085 138.322297 
L 136.605846 138.26597 
L 136.705448 138.336378 
L 136.884731 138.383317 
L 137.064015 138.331684 
L 137.581945 138.688421 
L 137.880751 138.880871 
L 138.299079 139.195362 
L 138.498283 139.322098 
L 138.717407 139.486384 
L 138.87677 139.678834 
L 139.016213 139.706998 
L 139.155656 139.491078 
L 139.334939 139.345567 
L 139.633745 139.31271 
L 140.131755 138.599237 
L 140.251277 138.603931 
L 140.530163 138.392705 
L 140.729367 138.355154 
L 140.988332 138.369236 
L 141.645705 138.172092 
L 142.263237 138.209643 
L 142.44252 138.26597 
L 142.601883 138.251888 
L 142.92061 138.15801 
L 143.179575 138.064132 
L 143.43854 137.951478 
L 143.617823 137.94209 
L 144.036151 137.613517 
L 144.315037 137.590048 
L 144.534161 137.655762 
L 145.291136 137.74964 
L 145.350897 137.716783 
L 145.390738 137.763722 
L 145.49034 137.801273 
L 145.51026 137.782498 
L 145.689544 137.77311 
L 145.868827 137.74964 
L 146.207474 137.641681 
L 146.406678 137.702701 
L 146.665643 137.852906 
L 146.844926 137.782498 
L 147.004289 137.763722 
L 148.020229 137.397598 
L 149.016249 137.524333 
L 149.155692 137.594742 
L 149.275214 137.575966 
L 149.394736 137.585354 
L 149.872826 137.885764 
L 150.330995 137.787192 
L 150.58996 137.68862 
L 150.829004 137.730865 
L 151.10789 137.632293 
L 151.346934 137.547803 
L 151.62582 137.66515 
L 151.964467 137.38821 
L 152.183591 137.327189 
L 152.542158 137.223923 
L 152.940566 136.965759 
L 153.13977 137.064331 
L 153.378814 137.00331 
L 153.637779 137.054943 
L 153.916665 136.890656 
L 154.19555 136.515144 
L 154.334993 136.482287 
L 154.494356 136.482287 
L 154.932605 136.299225 
L 155.390774 136.294531 
L 155.570057 136.23351 
L 155.669659 136.195959 
L 155.988385 135.989427 
L 156.127828 136.012897 
L 156.486395 136.111469 
L 156.805121 136.21004 
L 157.24337 135.782895 
L 157.382813 135.637384 
L 157.402733 135.646772 
L 157.502335 135.57167 
L 157.641778 135.604527 
L 157.940583 135.651466 
L 158.29915 135.074116 
L 158.558116 134.97085 
L 158.757319 134.956769 
L 158.956523 134.839421 
L 159.036205 134.820645 
L 159.056125 134.783094 
L 159.195568 134.736155 
L 159.354931 134.759625 
L 159.494374 134.80187 
L 159.693578 135.017789 
L 159.872861 135.060034 
L 160.589995 134.989626 
L 160.84896 135.177382 
L 161.008324 135.27126 
L 161.486413 135.590445 
L 161.825059 135.599833 
L 162.004343 135.670242 
L 162.243388 135.951876 
L 162.522273 136.242898 
L 162.721477 136.350858 
L 162.980442 136.505756 
L 163.219487 136.670043 
L 164.056143 136.951677 
L 164.175665 136.965759 
L 164.554153 136.890656 
L 164.773277 137.045555 
L 165.012322 137.120658 
L 165.350968 137.209842 
L 165.390809 137.256781 
L 165.45057 137.17229 
L 165.649774 136.839023 
L 166.147784 136.81086 
L 166.207545 136.881269 
L 166.227466 136.801472 
L 166.327068 133.356148 
L 166.406749 134.191662 
L 167.103963 139.631895 
L 167.940619 144.10049 
L 169.295206 148.508065 
L 170.669713 151.169508 
L 171.06812 151.901756 
L 171.386847 152.446249 
L 171.705573 152.610536 
L 171.964538 152.690332 
L 172.263344 153.004823 
L 172.482468 152.878088 
L 172.721513 152.502576 
L 172.900796 152.502576 
L 173.1 152.648087 
L 173.677691 153.27707 
L 173.896816 153.258294 
L 174.09602 153.352172 
L 174.733472 153.807481 
L 174.952596 153.816869 
L 175.271323 153.91544 
L 175.510367 153.807481 
L 175.988457 153.807481 
L 177.323123 153.704215 
L 177.841053 153.563398 
L 178.020336 153.591561 
L 178.139859 153.483601 
L 178.538267 152.380534 
L 179.056197 152.50727 
L 179.255401 152.357065 
L 179.474525 151.948695 
L 179.494445 151.967471 
L 179.773331 152.075431 
L 180.25142 152.220942 
L 180.570146 151.854817 
L 180.809191 151.73747 
L 180.928713 151.676449 
L 181.26736 151.634204 
L 181.904812 151.836042 
L 182.104016 151.770327 
L 182.462583 151.79849 
L 182.721548 151.976859 
L 182.980514 152.019104 
L 183.159797 152.094206 
L 183.398842 152.01441 
L 183.777329 152.211554 
L 183.916772 152.277269 
L 183.936692 152.253799 
L 184.115976 152.18339 
L 184.255418 152.263187 
L 184.494463 152.338289 
L 184.653826 152.50727 
L 184.793269 152.634005 
L 184.813189 152.610536 
L 185.231518 152.042573 
L 185.35104 152.12237 
L 185.470562 152.056655 
L 185.590085 152.051961 
L 185.610005 152.084819 
L 185.769368 152.084819 
L 186.028333 152.075431 
L 186.207617 152.042573 
L 186.685706 152.03788 
L 187.781327 152.446249 
L 188.339098 152.296044 
L 188.757427 152.37584 
L 188.896869 152.42278 
L 189.056232 152.465025 
L 189.215596 152.450943 
L 190.032332 152.727883 
L 190.47058 152.460331 
L 190.669784 152.563597 
L 191.068192 152.718495 
L 191.327157 152.671556 
L 191.665803 152.634005 
L 191.98453 152.680944 
L 192.123972 152.671556 
L 193.139912 153.032987 
L 193.418798 152.925027 
L 193.637922 152.798292 
L 194.016409 152.80768 
L 194.295295 152.878088 
L 194.57418 152.845231 
L 194.853066 152.97666 
L 194.992509 153.047069 
L 195.231553 153.08462 
L 196.247493 153.216049 
L 196.486538 153.216049 
L 197.044309 153.244212 
L 197.562239 153.103395 
L 197.821204 153.206661 
L 198.219612 153.220743 
L 198.378975 153.267682 
L 199.215631 153.352172 
L 200.17181 153.455438 
L 200.869024 153.826256 
L 201.406874 153.798093 
L 201.566237 153.784011 
L 201.845123 153.821562 
L 202.024406 153.816869 
L 202.22361 153.755848 
L 203.73756 153.507071 
L 203.936764 153.488295 
L 204.295331 153.408499 
L 204.653898 153.873195 
L 204.833181 154.014012 
L 205.012465 154.079727 
L 206.108086 154.441158 
L 206.207688 154.43177 
L 206.386972 154.34728 
L 207.582195 154.244014 
L 207.741558 154.276871 
L 208.020444 154.286259 
L 208.777418 154.220544 
L 208.896941 154.173605 
L 209.076224 154.168911 
L 209.992562 154.276871 
L 210.291368 154.309728 
L 210.37105 154.305034 
L 210.39097 154.281565 
L 210.530413 154.290953 
L 210.709696 154.361361 
L 210.829218 154.328504 
L 210.9089 154.403606 
L 210.968661 154.441158 
L 211.028422 154.389525 
L 211.40691 154.469321 
L 211.526432 154.403606 
L 211.546353 154.422382 
L 212.203725 154.520954 
L 212.46269 154.671159 
L 212.661894 154.605444 
L 213.97664 154.502178 
L 214.255526 154.375443 
L 214.554331 154.394219 
L 215.410908 154.502178 
L 215.789396 154.563199 
L 216.327246 154.530342 
L 216.54637 154.60075 
L 217.183823 154.689934 
L 217.54239 154.943405 
L 218.518489 155.295454 
L 218.657932 155.276678 
L 218.857136 155.422189 
L 219.295384 155.417495 
L 219.57427 155.333005 
L 220.052359 155.633415 
L 220.211722 155.5677 
L 221.088219 155.253209 
L 221.327264 155.337699 
L 221.984637 155.149943 
L 222.562328 155.300148 
L 223.020497 155.295454 
L 223.319303 155.140555 
L 223.398984 155.168718 
L 223.438825 155.131167 
L 223.976676 155.117085 
L 224.335243 155.023201 
L 224.574287 154.934017 
L 225.570307 155.027895 
L 225.809352 155.103004 
L 225.988635 155.131167 
L 226.267521 155.103004 
L 226.426884 155.056059 
L 226.76553 155.187494 
L 227.24362 154.887078 
L 227.801391 155.037283 
L 228.677888 154.741567 
L 228.996614 154.769731 
L 229.29542 154.807282 
L 229.534465 154.887078 
L 229.693828 154.840139 
L 229.79343 154.840139 
L 229.81335 154.858915 
L 230.251599 154.750955 
L 230.410962 154.769731 
L 230.570325 154.704016 
L 231.008573 154.586669 
L 231.167937 154.628914 
L 231.526504 154.614832 
L 231.606185 154.450545 
L 231.84523 154.009319 
L 232.562364 154.229932 
L 233.418941 154.333198 
L 233.737667 154.436464 
L 234.375119 154.253401 
L 234.753607 154.34728 
L 235.052413 154.483403 
L 235.351218 154.586669 
L 235.490661 154.596056 
L 235.630104 154.619526 
L 235.92891 154.704016 
L 237.004611 154.610138 
L 237.263576 154.502178 
L 238.00063 154.563199 
L 238.658003 154.305034 
L 238.797446 154.319116 
L 240.351236 154.422382 
L 240.55044 154.417688 
L 240.769564 154.34728 
L 241.128131 154.328504 
L 241.785504 154.126666 
L 242.044469 154.272177 
L 242.303434 154.272177 
L 242.622161 154.309728 
L 243.936906 154.103197 
L 244.13611 154.145442 
L 245.849264 154.441158 
L 246.068388 154.450545 
L 246.16799 154.427076 
L 246.646079 153.840338 
L 247.024567 153.44605 
L 247.642099 152.887476 
L 247.861223 152.779516 
L 248.359233 152.59176 
L 248.359233 152.59176 
" clip-path="url(#pe95c845654)" style="fill: none; stroke: #000000; stroke-opacity: 0.5; stroke-width: 1.5; stroke-linecap: square"/>
   </g>
   <g id="line2d_16">
    <path d="M 45.450142 154.079727 
L 45.629426 154.145442 
L 45.86847 154.192381 
L 46.107515 154.197075 
L 46.466082 154.474015 
L 46.665286 154.591362 
L 47.043773 154.614832 
L 47.262898 154.675853 
L 47.462101 154.661771 
L 47.721066 154.62422 
L 47.980032 154.567893 
L 48.657325 154.619526 
L 49.195175 154.596056 
L 49.354538 154.553811 
L 49.533822 154.488097 
L 49.792787 154.53973 
L 50.111513 154.436464 
L 50.410319 154.253401 
L 50.888408 153.943604 
L 51.127453 153.774623 
L 51.346577 153.704215 
L 51.525861 153.676051 
L 51.96411 153.319315 
L 52.083632 153.258294 
L 52.442199 153.366254 
L 52.741005 153.44605 
L 53.079651 153.394417 
L 53.258935 153.389723 
L 53.737024 153.16911 
L 53.976069 153.112783 
L 54.972088 153.690133 
L 55.211133 153.605643 
L 55.370496 153.549316 
L 56.486038 153.920134 
L 56.764923 154.089115 
L 56.944207 154.173605 
L 57.08365 154.197075 
L 57.521898 154.098503 
L 57.860545 153.863808 
L 57.880465 153.887277 
L 58.09959 153.981155 
L 58.537838 154.065645 
L 58.936246 153.859114 
L 59.334654 153.788705 
L 59.513937 153.704215 
L 59.733062 153.563398 
L 59.992027 153.516459 
L 60.131469 153.511765 
L 60.450196 153.666664 
L 60.68924 153.619725 
L 61.087648 153.539928 
L 61.20717 153.478908 
L 61.386454 153.44605 
L 61.70518 153.55401 
L 61.904384 153.525847 
L 62.123508 153.488295 
L 62.840642 153.55401 
L 62.980085 153.572786 
L 63.258971 153.685439 
L 63.398413 153.737072 
L 63.796821 153.807481 
L 64.27491 153.906053 
L 64.414353 153.882583 
L 64.633477 153.901359 
L 64.792841 153.802787 
L 65.031885 153.624419 
L 65.509975 153.737072 
L 65.609577 153.784011 
L 65.76894 153.816869 
L 66.127507 153.760542 
L 66.426313 153.788705 
L 66.605596 153.826256 
L 66.625516 153.981155 
L 66.725118 159.177311 
L 66.8048 157.952202 
L 67.163367 154.34728 
L 67.84066 149.531336 
L 69.155406 140.500267 
L 69.533893 136.14902 
L 69.573734 132.66145 
L 69.653416 62.098009 
L 69.713177 18.731041 
L 69.772938 31.629885 
L 70.131505 157.623629 
L 70.290868 159.388537 
L 70.37055 159.214862 
L 70.609594 157.609548 
L 71.38649 152.413392 
L 72.402429 147.278262 
L 73.896459 141.415578 
L 74.075742 140.669248 
L 74.932319 137.510251 
L 75.410408 135.444934 
L 75.868577 132.098182 
L 75.9881 130.042253 
L 76.02794 122.715071 
L 76.167383 19.20982 
L 76.266985 47.922423 
L 76.585711 152.089512 
L 76.764995 155.900967 
L 76.824756 155.999539 
L 76.884517 155.919743 
L 77.063801 155.196882 
L 78.099661 150.409095 
L 79.135521 146.714994 
L 79.992098 144.264777 
L 80.270983 143.429262 
L 80.908436 141.579865 
L 81.227162 140.758432 
L 82.223182 138.261276 
L 82.860634 136.853105 
L 83.17936 135.980039 
L 83.637529 135.407383 
L 84.294902 134.266765 
L 84.533947 133.834926 
L 84.772992 133.478189 
L 84.892514 133.34676 
L 85.151479 132.806961 
L 85.410444 132.356347 
L 85.68933 132.135733 
L 85.928374 132.116958 
L 86.147498 131.882262 
L 86.386543 131.840017 
L 86.506066 131.821242 
L 86.525986 131.844711 
L 86.665429 131.769609 
L 86.964234 131.63818 
L 87.123598 131.708588 
L 87.442324 131.97614 
L 88.338741 133.811456 
L 89.354681 135.290036 
L 90.091736 135.9331 
L 90.31086 136.200653 
L 90.669427 136.266367 
L 90.928392 136.163101 
L 91.087755 136.158408 
L 91.665446 135.919019 
L 91.904491 135.792283 
L 92.482182 135.5482 
L 93.956291 134.628195 
L 94.155495 134.60942 
L 95.171435 134.468603 
L 95.330798 134.506154 
L 95.968251 134.858197 
L 96.187375 134.703298 
L 96.207295 134.722073 
L 96.585783 134.698604 
L 96.765066 134.543705 
L 96.984191 134.421664 
L 97.123633 134.459215 
L 97.502121 134.449827 
L 97.721245 134.407582 
L 97.920449 134.426358 
L 98.020051 134.506154 
L 98.318857 134.839421 
L 98.956309 134.876972 
L 99.434399 134.872278 
L 99.673443 134.919217 
L 100.131612 134.543705 
L 100.211294 134.665747 
L 100.310896 134.689216 
L 100.330816 134.661053 
L 100.649542 134.318398 
L 100.868667 134.163499 
L 101.964288 133.75513 
L 102.223253 133.81615 
L 102.302935 133.73166 
L 102.60174 133.478189 
L 103.09975 133.464108 
L 103.737203 133.656558 
L 104.314894 133.26227 
L 104.733222 132.839819 
L 105.11171 132.116958 
L 105.290993 131.924508 
L 105.589799 131.516138 
L 106.506137 128.610612 
L 106.944385 125.43284 
L 106.984226 122.888745 
L 107.043987 96.687379 
L 107.16351 17.224299 
L 107.223271 25.800059 
L 107.70136 149.667459 
L 107.900564 152.404004 
L 108.079848 152.685638 
L 108.21929 152.605842 
L 108.597778 151.892369 
L 111.346792 145.818459 
L 112.044005 144.025388 
L 113.259149 141.701906 
L 113.418512 141.457823 
L 113.976283 140.519043 
L 114.215328 140.143531 
L 114.573895 139.387812 
L 114.912541 139.031076 
L 115.549994 138.472501 
L 115.8488 138.040662 
L 116.207367 137.55719 
L 116.585854 137.139433 
L 116.86474 137.017392 
L 116.944421 136.956371 
L 117.223307 136.7029 
L 117.92052 136.078611 
L 118.119724 136.012897 
L 118.239247 135.87208 
L 118.378689 135.815753 
L 118.856779 135.815753 
L 119.314948 135.524731 
L 119.41455 135.46371 
L 119.553992 135.412077 
L 119.872718 135.153912 
L 120.052002 135.031871 
L 120.071922 135.050647 
L 120.589853 135.074116 
L 121.008181 134.90983 
L 122.581892 134.637583 
L 122.761175 134.69391 
L 122.860777 134.618808 
L 123.059981 134.52493 
L 123.318946 134.459215 
L 123.498229 134.571869 
L 124.175523 134.675134 
L 124.613771 135.430853 
L 124.773134 135.618609 
L 125.291065 136.397797 
L 125.470348 136.552695 
L 125.669552 136.655961 
L 125.828915 136.72637 
L 125.948437 136.792084 
L 126.08788 136.83433 
L 126.287084 136.843717 
L 126.765173 137.313108 
L 127.283104 137.763722 
L 129.056018 138.477195 
L 129.334904 138.444338 
L 130.091878 137.871682 
L 130.330923 137.820049 
L 130.809013 137.599436 
L 130.968376 137.524333 
L 131.227341 137.350659 
L 131.406624 137.345965 
L 131.546067 137.266169 
L 132.004236 136.885962 
L 132.163599 136.83433 
L 132.402644 136.580859 
L 132.661609 136.336776 
L 132.72137 136.275755 
L 132.900653 136.050448 
L 133.856832 135.482486 
L 134.075956 135.135137 
L 134.454444 134.449827 
L 134.653648 133.985131 
L 135.071976 133.205943 
L 135.410623 132.445531 
L 135.928553 130.502255 
L 136.28712 127.737547 
L 136.346881 126.165089 
L 136.406642 107.126621 
L 136.546085 15.220002 
L 136.605846 27.128433 
L 137.064015 149.21215 
L 137.263219 152.03788 
L 137.442502 152.37584 
L 137.542104 152.29135 
L 137.900671 151.624816 
L 138.259238 150.75175 
L 140.430561 146.405197 
L 140.928571 145.654172 
L 141.38674 144.687228 
L 142.083953 143.180486 
L 142.601883 141.847417 
L 143.060052 140.612921 
L 144.434559 137.94209 
L 144.653683 137.660456 
L 144.832967 137.49617 
L 145.888748 136.651267 
L 146.147713 136.599634 
L 146.765245 136.430654 
L 146.964449 136.411878 
L 147.183573 136.42596 
L 147.303095 136.435348 
L 147.56206 136.336776 
L 147.821025 136.388409 
L 147.980389 136.346164 
L 148.358876 136.360245 
L 148.498319 136.350858 
L 148.637761 136.458817 
L 149.016249 136.735758 
L 149.135771 136.665349 
L 149.255294 136.655961 
L 149.275214 136.679431 
L 149.474418 136.7029 
L 149.693542 136.7029 
L 150.072029 136.989228 
L 150.330995 137.092494 
L 150.550119 137.294332 
L 150.729402 137.289638 
L 151.685581 137.618211 
L 151.884785 137.636987 
L 152.16367 137.899845 
L 152.362874 137.923315 
L 152.462476 137.96556 
L 152.801123 138.012499 
L 152.920645 138.07352 
L 152.980406 138.139234 
L 153.040168 138.078214 
L 153.617859 137.979642 
L 153.856904 137.928009 
L 154.016267 137.923315 
L 154.17563 137.77311 
L 154.574038 137.68862 
L 154.69356 137.820049 
L 154.733401 137.777804 
L 154.852923 137.791886 
L 155.649739 137.890458 
L 155.868863 137.951478 
L 155.988385 138.059438 
L 156.147748 137.98903 
L 157.084007 137.636987 
L 157.283211 137.730865 
L 157.801141 137.777804 
L 158.040185 137.519639 
L 158.378832 137.68862 
L 158.558116 137.716783 
L 159.095966 137.740253 
L 159.414692 137.641681 
L 159.952543 137.543109 
L 160.430632 137.228617 
L 160.570075 137.120658 
L 160.82904 136.928208 
L 161.147766 136.660655 
L 163.159726 134.905136 
L 163.35893 134.750237 
L 164.454551 134.107172 
L 164.972481 133.999212 
L 165.370889 133.53921 
L 166.008341 133.351454 
L 166.207545 133.393699 
L 166.227466 133.257576 
L 166.327068 128.005099 
L 166.406749 129.19735 
L 167.123883 138.261276 
L 167.781256 143.405793 
L 168.458549 147.048261 
L 169.733454 151.446448 
L 170.490429 152.802986 
L 170.948598 153.380336 
L 171.327085 153.737072 
L 171.605971 153.910747 
L 172.283264 154.4083 
L 172.422707 154.506872 
L 172.880876 154.788506 
L 173.856975 155.149943 
L 174.016338 155.149943 
L 174.394825 155.140555 
L 174.514348 155.168718 
L 174.693631 155.168718 
L 174.892835 155.225045 
L 175.171721 155.365862 
L 175.490447 155.257902 
L 175.609969 155.1828 
L 175.749412 155.164024 
L 176.088059 155.149943 
L 176.287263 155.041977 
L 176.486466 155.07014 
L 176.705591 155.00912 
L 178.100018 154.915242 
L 178.279301 154.87769 
L 178.578107 155.018508 
L 180.072137 155.276678 
L 180.331102 155.126473 
L 181.24744 155.455046 
L 181.526325 155.614639 
L 182.004414 155.825865 
L 182.442663 155.628721 
L 182.78131 155.337699 
L 183.378921 155.046671 
L 183.777329 154.840139 
L 184.036294 154.736873 
L 184.235498 154.783812 
L 184.374941 154.769731 
L 184.713587 154.807282 
L 184.872951 154.741567 
L 185.072154 154.675853 
L 185.510403 154.671159 
L 185.649846 154.661771 
L 185.84905 154.704016 
L 186.088094 154.821364 
L 186.845069 155.056059 
L 189.155834 155.492598 
L 189.374959 155.455046 
L 189.833128 155.67566 
L 190.191695 155.722599 
L 190.590102 155.741374 
L 190.769386 155.741374 
L 190.98851 155.713211 
L 193.438718 156.177907 
L 193.558241 156.126274 
L 193.578161 156.149744 
L 193.857046 156.159132 
L 194.355056 156.163826 
L 194.872986 156.065254 
L 195.430757 155.78362 
L 195.649881 155.769538 
L 196.227573 155.661578 
L 196.367015 155.689741 
L 196.60606 155.802395 
L 196.884946 155.825865 
L 197.044309 155.830559 
L 197.223592 155.807089 
L 197.462637 155.769538 
L 201.088148 155.872804 
L 201.267431 155.86811 
L 201.526396 155.825865 
L 201.665839 155.830559 
L 202.562257 155.938518 
L 202.841142 155.891579 
L 203.797321 155.769538 
L 204.25549 155.863416 
L 205.510474 155.971376 
L 205.988564 155.97607 
L 207.223628 155.516067 
L 207.82124 155.699129 
L 207.900921 155.680354 
L 207.920842 155.703823 
L 208.100125 155.774232 
L 208.817259 155.999539 
L 209.295348 155.774232 
L 209.554314 155.534843 
L 209.693756 155.520761 
L 209.813279 155.455046 
L 210.669855 155.553618 
L 211.108104 155.731987 
L 212.124044 155.370556 
L 212.283407 155.39872 
L 212.42285 155.417495 
L 212.881019 155.422189 
L 213.120063 155.333005 
L 213.279426 155.262596 
L 213.418869 155.121779 
L 213.737595 154.445851 
L 214.255526 153.891971 
L 215.032421 153.417887 
L 215.052341 153.455438 
L 215.331227 153.685439 
L 215.610112 153.591561 
L 215.789396 153.502377 
L 215.968679 153.6385 
L 216.167883 153.859114 
L 216.387007 153.957686 
L 216.865097 154.445851 
L 217.841196 154.783812 
L 218.100161 154.736873 
L 218.857136 154.671159 
L 219.434827 154.572587 
L 219.61411 154.577281 
L 220.171881 154.671159 
L 220.749573 155.07014 
L 221.10814 155.173412 
L 221.446786 155.229739 
L 221.685831 155.107698 
L 222.422885 155.168718 
L 222.701771 155.20627 
L 223.618109 155.520761 
L 224.275482 155.619333 
L 224.574287 155.807089 
L 224.873093 155.915049 
L 225.032456 155.943212 
L 225.251581 155.924437 
L 225.72967 155.919743 
L 226.008556 155.872804 
L 226.287441 155.961988 
L 226.426884 155.990151 
L 226.76553 155.858722 
L 227.004575 155.943212 
L 227.721709 156.051172 
L 227.861152 156.004233 
L 228.140037 155.825865 
L 228.359162 155.722599 
L 228.79741 155.722599 
L 229.116136 155.764844 
L 229.375101 155.656884 
L 229.594226 155.548924 
L 230.84921 155.079528 
L 231.028494 155.041977 
L 231.148016 155.041977 
L 231.785469 155.093616 
L 231.944832 155.093616 
L 233.777508 155.422189 
L 233.956791 155.408107 
L 234.136075 155.408107 
L 234.753607 155.506679 
L 234.893049 155.501985 
L 235.052413 155.464434 
L 235.570343 155.478516 
L 235.729706 155.525455 
L 236.705805 155.417495 
L 236.905009 154.962181 
L 237.104213 154.741567 
L 237.343257 154.619526 
L 237.363178 154.642995 
L 237.661984 154.774425 
L 238.060391 154.87769 
L 238.339277 154.995038 
L 238.936889 154.92463 
L 239.156013 154.614832 
L 239.434898 154.661771 
L 239.614182 154.567893 
L 239.793465 154.441158 
L 240.769564 155.013814 
L 241.167972 155.032589 
L 241.367176 155.065447 
L 241.56638 154.957487 
L 241.984708 154.943405 
L 242.303434 154.910548 
L 242.522559 154.896466 
L 242.681922 154.821364 
L 242.701842 154.840139 
L 243.478737 154.73218 
L 244.13611 154.483403 
L 244.315394 154.4083 
L 244.574359 154.511566 
L 244.693881 154.469321 
L 244.813404 154.474015 
L 245.311413 154.488097 
L 245.709821 154.412994 
L 246.944885 154.591362 
L 247.422975 154.586669 
L 247.841303 154.577281 
L 248.000666 154.605444 
L 248.359233 154.73218 
L 248.359233 154.73218 
" clip-path="url(#pe95c845654)" style="fill: none; stroke: #000000; stroke-opacity: 0.5; stroke-width: 1.5; stroke-linecap: square"/>
   </g>
   <g id="line2d_17">
    <path d="M 45.450142 155.661578 
L 45.729028 155.76015 
L 46.127435 155.910355 
L 46.426241 155.943212 
L 47.103534 156.149744 
L 48.159315 156.013621 
L 48.737006 156.112193 
L 49.015892 156.191989 
L 49.155335 156.14505 
L 49.175255 156.16852 
L 50.031832 156.454848 
L 51.585622 156.196683 
L 51.744985 156.206071 
L 52.741005 156.074641 
L 53.219094 156.187295 
L 53.338616 156.16852 
L 53.358537 156.201377 
L 53.478059 156.191989 
L 53.717104 156.182601 
L 54.55376 155.703823 
L 54.972088 155.957294 
L 55.310735 155.933824 
L 55.410337 155.985457 
L 55.689222 156.356276 
L 55.729063 156.323418 
L 56.007949 156.342194 
L 56.207153 156.468929 
L 56.326675 156.572195 
L 56.60556 156.684849 
L 56.764923 156.61444 
L 56.884446 156.680155 
L 57.183252 156.511174 
L 57.362535 156.257704 
L 57.581659 156.224846 
L 57.860545 156.25301 
L 58.13943 156.041784 
L 59.095609 155.924437 
L 59.414335 155.9526 
L 59.553778 156.023009 
L 59.772902 156.093417 
L 60.071708 156.069948 
L 60.250992 156.177907 
L 61.466135 156.572195 
L 61.605578 156.680155 
L 61.625499 156.666073 
L 61.824702 156.628522 
L 62.103588 156.562807 
L 62.342633 156.713012 
L 62.561757 156.900768 
L 62.960165 157.210566 
L 63.199209 157.318526 
L 63.458174 157.412404 
L 64.892443 157.966284 
L 65.091646 157.881794 
L 65.470134 157.867712 
L 65.988064 157.740977 
L 66.30679 157.830161 
L 66.446233 157.909957 
L 66.486074 157.872406 
L 66.605596 157.891182 
L 66.625516 158.083632 
L 66.725118 164.894484 
L 66.8048 163.331415 
L 67.203208 158.078938 
L 67.84066 152.089512 
L 69.075724 141.941295 
L 69.35461 138.068826 
L 69.394451 132.74594 
L 69.533893 21.575546 
L 69.633495 61.586374 
L 69.89246 157.947509 
L 70.051823 161.106505 
L 70.091664 161.054872 
L 70.251027 160.07854 
L 71.466171 149.930317 
L 72.183305 145.339681 
L 73.43829 137.94209 
L 73.796857 134.590644 
L 73.896459 131.689812 
L 73.95622 104.437012 
L 74.075742 22.946166 
L 74.115583 33.099078 
L 74.513991 156.074641 
L 74.673354 157.759752 
L 74.753035 157.633017 
L 74.952239 156.52995 
L 75.908418 150.343381 
L 76.964199 145.231721 
L 78.976158 135.754732 
L 79.374566 132.093488 
L 79.474168 129.131636 
L 79.533929 104.127214 
L 79.653451 21.6882 
L 79.713213 33.948675 
L 80.131541 153.427275 
L 80.310824 155.670966 
L 80.350665 155.689741 
L 80.390506 155.619333 
L 80.529949 155.013814 
L 82.183341 146.991934 
L 82.741112 144.776412 
L 84.772992 137.073719 
L 85.111638 135.815753 
L 86.067817 129.080003 
L 86.147498 127.244687 
L 86.20726 112.735834 
L 86.346702 21.542689 
L 86.426384 37.90094 
L 86.844712 150.709505 
L 87.043916 153.57748 
L 87.103677 153.6385 
L 87.163438 153.582173 
L 87.302881 153.183192 
L 91.127596 138.312909 
L 91.565845 136.89535 
L 92.482182 132.342265 
L 92.960272 127.761016 
L 93.000113 126.169783 
L 93.059874 107.36601 
L 93.199316 21.378402 
L 93.259078 31.761315 
L 93.717247 149.643989 
L 93.916451 152.366453 
L 93.976212 152.460331 
L 94.035973 152.39931 
L 94.135575 152.220942 
L 96.167455 145.419477 
L 96.386579 144.696616 
L 99.49416 134.074315 
L 100.450338 127.939384 
L 100.53002 125.855292 
L 100.589781 109.722349 
L 100.729224 21.763302 
L 100.808905 34.86868 
L 101.267074 148.770923 
L 101.466278 151.385427 
L 101.605721 151.662367 
L 101.645562 151.624816 
L 101.804925 151.277467 
L 102.263094 149.808276 
L 103.139591 146.555401 
L 103.498158 145.452334 
L 103.896566 144.311716 
L 105.13163 140.885167 
L 105.868684 138.669645 
L 106.466296 136.482287 
L 107.322873 133.276351 
L 108.059927 128.713878 
L 108.21929 126.432642 
L 108.279052 124.113854 
L 108.338813 105.455589 
L 108.478255 21.805548 
L 108.538017 30.174776 
L 109.055947 149.04317 
L 109.255151 151.033384 
L 109.394593 151.070936 
L 109.534036 150.864404 
L 110.291011 149.000925 
L 111.78504 144.781106 
L 112.024085 143.950286 
L 112.402572 143.063138 
L 112.542015 142.720483 
L 113.079866 141.115169 
L 114.653576 137.524333 
L 114.972303 136.801472 
L 115.749198 134.689216 
L 116.167526 133.675333 
L 116.446411 132.835125 
L 117.342829 129.49776 
L 117.561953 128.164692 
L 117.761157 124.667734 
L 117.820918 111.905014 
L 117.980281 22.082488 
L 118.059963 37.04665 
L 118.518132 147.461325 
L 118.717336 150.596851 
L 118.856779 150.981751 
L 118.876699 150.972364 
L 119.354788 150.376238 
L 120.350808 147.653775 
L 120.669534 147.057649 
L 121.227305 145.377232 
L 124.255204 137.223923 
L 125.629711 133.37023 
L 127.223342 128.540204 
L 127.820954 125.362432 
L 127.940476 123.494259 
L 128.000238 115.42544 
L 128.179521 23.063513 
L 128.279123 44.218933 
L 128.697451 145.921725 
L 128.896655 149.625214 
L 129.056018 150.169706 
L 129.075939 150.150931 
L 129.713391 149.066639 
L 131.267181 145.123761 
L 131.68551 144.170899 
L 131.904634 143.753142 
L 132.422564 142.410686 
L 132.940494 141.556395 
L 133.139698 141.166801 
L 134.454444 138.35046 
L 134.832931 137.79658 
L 135.012215 137.491476 
L 135.370782 136.923514 
L 135.550065 136.627798 
L 135.828951 136.120856 
L 136.844891 133.994519 
L 137.223378 133.107371 
L 137.562025 132.253081 
L 138.318999 129.976538 
L 138.597885 128.784287 
L 139.315019 124.597326 
L 139.454462 121.597922 
L 139.514223 107.117233 
L 139.673586 22.885145 
L 139.733347 32.080501 
L 140.251277 147.686632 
L 140.450481 150.1744 
L 140.669605 150.704811 
L 140.769207 150.657872 
L 141.068013 150.061747 
L 142.103874 147.902551 
L 142.581963 146.635198 
L 143.797107 143.776611 
L 144.056072 143.302527 
L 144.713445 141.772315 
L 145.370817 140.49088 
L 145.709464 139.692916 
L 146.605882 138.031275 
L 146.725404 137.909233 
L 148.538159 132.018386 
L 149.235373 127.376116 
L 149.354895 125.029165 
L 149.414657 112.876651 
L 149.57402 21.059217 
L 149.653701 35.985828 
L 150.11187 146.780709 
L 150.311074 149.798888 
L 150.490358 150.268278 
L 150.510278 150.263584 
L 150.6298 150.216645 
L 151.406696 148.74276 
L 152.323034 146.095399 
L 152.542158 145.325599 
L 152.801123 144.663759 
L 153.020247 144.109878 
L 153.717461 142.462319 
L 153.956506 141.875581 
L 154.275232 141.298231 
L 154.733401 140.486186 
L 155.23141 139.599038 
L 155.72942 138.430256 
L 156.566077 135.750038 
L 157.641778 131.286137 
L 158.080026 128.094283 
L 158.179628 125.813047 
L 158.239389 110.398271 
L 158.398752 21.157789 
L 158.458514 32.061726 
L 158.936603 147.250099 
L 159.135807 150.122767 
L 159.29517 150.324605 
L 159.454533 150.235421 
L 160.271269 148.475208 
L 160.928642 146.813566 
L 161.34697 145.917031 
L 161.904741 144.33988 
L 162.621875 142.063337 
L 163.259328 140.340675 
L 166.207545 134.041458 
L 166.247386 132.30002 
L 166.327068 126.545295 
L 166.386829 127.653056 
L 166.825077 134.675134 
L 167.422689 141.279455 
L 168.040221 145.353762 
L 168.797196 148.564392 
L 169.49441 150.629709 
L 170.311146 152.272575 
L 170.490429 152.577678 
L 171.008359 153.324009 
L 171.127882 153.492989 
L 171.56613 154.014012 
L 171.785254 154.178299 
L 172.08406 154.427076 
L 172.343025 154.661771 
L 172.542229 154.727486 
L 173.856975 155.225045 
L 174.335064 155.220351 
L 175.211561 155.511373 
L 175.62989 155.713211 
L 175.769332 155.741374 
L 175.968536 155.67566 
L 176.327103 155.572394 
L 176.825113 155.445659 
L 177.143839 155.539537 
L 177.621929 155.54423 
L 177.880894 155.586476 
L 178.060177 155.581782 
L 178.21954 155.65219 
L 179.096037 155.947906 
L 179.374923 155.835252 
L 179.71357 155.727293 
L 180.012375 155.699129 
L 180.171739 155.689741 
L 180.510385 155.229739 
L 180.729509 155.074834 
L 180.928713 155.103004 
L 181.088076 155.103004 
L 181.546245 155.440965 
L 182.064176 155.689741 
L 182.562185 155.680354 
L 183.239479 155.882191 
L 183.478523 155.797701 
L 184.135896 155.985457 
L 184.394861 155.919743 
L 184.733508 155.961988 
L 185.092075 155.5677 
L 185.968572 155.67566 
L 186.506423 155.811783 
L 187.203636 155.722599 
L 187.362999 155.689741 
L 187.721566 155.73668 
L 188.020372 155.628721 
L 188.817188 155.35178 
L 189.016392 155.389332 
L 189.614003 155.685048 
L 189.95265 155.581782 
L 190.231535 155.511373 
L 190.45066 155.586476 
L 190.789306 155.548924 
L 190.96859 155.614639 
L 191.088112 155.586476 
L 191.267396 155.337699 
L 191.307236 155.370556 
L 191.625963 155.59117 
L 192.183734 155.347087 
L 192.462619 155.079528 
L 192.562221 154.976262 
L 192.741505 154.952793 
L 194.57418 155.497291 
L 194.813225 155.65219 
L 195.470598 155.910355 
L 195.669802 156.041784 
L 196.028369 156.093417 
L 197.323194 155.990151 
L 197.542318 155.797701 
L 197.741522 155.703823 
L 198.040328 155.572394 
L 198.418816 155.492598 
L 198.65786 155.609945 
L 199.036348 155.67566 
L 199.215631 155.656884 
L 199.514437 155.548924 
L 199.952686 155.558312 
L 200.351093 155.666272 
L 200.66982 155.830559 
L 200.809262 155.933824 
L 200.908864 156.023009 
L 200.948705 155.97607 
L 201.147909 155.877498 
L 201.845123 155.92913 
L 202.064247 155.97607 
L 202.482575 156.140356 
L 203.000505 155.985457 
L 203.339152 156.299949 
L 203.418833 156.351582 
L 203.578197 156.403215 
L 203.916843 156.454848 
L 204.195729 156.342194 
L 204.434773 156.346888 
L 205.072226 156.25301 
L 205.231589 156.12158 
L 205.251509 156.140356 
L 205.649917 156.295255 
L 205.869041 156.191989 
L 205.948723 156.149744 
L 205.988564 156.191989 
L 206.167847 156.201377 
L 206.426812 156.06056 
L 206.645937 156.023009 
L 207.223628 156.407909 
L 207.422832 156.511174 
L 208.179807 156.403215 
L 208.259488 156.356276 
L 208.299329 156.389133 
L 208.936781 156.651991 
L 209.215667 156.825666 
L 209.673836 156.717706 
L 210.211686 156.980565 
L 210.490572 156.91485 
L 210.649935 156.896074 
L 212.104123 157.140157 
L 212.263487 157.158933 
L 212.522452 157.257505 
L 213.219665 157.313832 
L 213.47863 157.262199 
L 215.052341 157.158933 
L 215.191784 157.102606 
L 215.410908 157.102606 
L 215.51051 157.144851 
L 215.729634 157.318526 
L 216.307326 157.08383 
L 216.486609 156.989952 
L 216.645972 156.985259 
L 216.904937 157.008728 
L 217.084221 157.074443 
L 217.402947 157.168321 
L 217.761514 157.271587 
L 217.960718 157.29975 
L 218.179842 157.309138 
L 218.478648 157.280974 
L 218.797374 157.182402 
L 219.07626 157.257505 
L 219.653951 157.365465 
L 219.773474 157.327913 
L 220.530448 157.417098 
L 220.749573 157.520363 
L 220.948777 157.449955 
L 221.486627 157.421791 
L 221.765513 157.4922 
L 222.721691 157.370159 
L 223.040417 157.46873 
L 223.15994 157.435873 
L 223.17986 157.464037 
L 223.578268 157.614241 
L 223.757552 157.647099 
L 224.096198 157.839549 
L 224.235641 157.891182 
L 224.414924 158.027305 
L 224.554367 158.078938 
L 224.753571 157.975672 
L 225.391023 157.867712 
L 225.829272 157.675262 
L 225.988635 157.694038 
L 226.207759 157.656487 
L 226.74561 157.675262 
L 226.944814 157.665874 
L 227.323301 157.656487 
L 227.462744 157.32322 
L 227.701789 157.074443 
L 228.020515 157.257505 
L 228.319321 157.445261 
L 228.578286 157.501588 
L 229.136057 157.595466 
L 229.29542 157.614241 
L 230.211758 157.501588 
L 230.410962 157.473424 
L 230.570325 157.464037 
L 231.805389 157.285668 
L 231.984673 157.196484 
L 232.243638 157.018116 
L 232.482682 156.896074 
L 232.622125 156.928932 
L 232.761568 156.961789 
L 233.3791 156.863217 
L 233.558383 156.844441 
L 234.454801 156.952401 
L 234.893049 157.046279 
L 235.570343 156.980565 
L 235.689865 156.952401 
L 235.92891 156.783421 
L 236.187875 156.567501 
L 236.347238 156.567501 
L 236.506601 156.534644 
L 236.685885 156.55342 
L 236.96477 156.623828 
L 237.084292 156.52995 
L 237.363178 156.356276 
L 237.50262 156.483011 
L 237.661984 156.534644 
L 238.359197 156.628522 
L 238.578322 156.694237 
L 238.757605 156.74587 
L 238.897048 156.755257 
L 239.156013 156.689543 
L 239.494659 156.736482 
L 239.614182 156.74587 
L 239.733704 156.778727 
L 239.753625 156.759951 
L 239.912988 156.778727 
L 240.112192 156.835054 
L 240.510599 157.074443 
L 241.327335 157.177709 
L 241.446858 157.201178 
L 242.144071 156.689543 
L 242.980728 156.407909 
L 243.199852 156.44546 
L 243.319374 156.50648 
L 243.976747 156.69893 
L 244.713802 156.792809 
L 244.913006 156.849135 
L 245.391095 156.835054 
L 245.490697 156.839748 
L 245.510617 156.820972 
L 245.809423 156.680155 
L 246.426955 156.727094 
L 246.745681 156.572195 
L 247.542497 156.318724 
L 247.841303 156.276479 
L 248.140109 156.318724 
L 248.359233 156.299949 
L 248.359233 156.299949 
" clip-path="url(#pe95c845654)" style="fill: none; stroke: #000000; stroke-opacity: 0.5; stroke-width: 1.5; stroke-linecap: square"/>
   </g>
   <g id="patch_3">
    <path d="M 35.304688 173.52 
L 35.304688 7.2 
" style="fill: none; stroke: #000000; stroke-width: 0.8; stroke-linejoin: miter; stroke-linecap: square"/>
   </g>
   <g id="patch_4">
    <path d="M 35.304688 173.52 
L 258.504687 173.52 
" style="fill: none; stroke: #000000; stroke-width: 0.8; stroke-linejoin: miter; stroke-linecap: square"/>
   </g>
  </g>
 </g>
 <defs>
  <clipPath id="pe95c845654">
   <rect x="35.304688" y="7.2" width="223.2" height="166.32"/>
  </clipPath>
 </defs>
</svg>
