<?xml version="1.0" encoding="utf-8" standalone="no"?>
<!DOCTYPE svg PUBLIC "-//W3C//DTD SVG 1.1//EN"
  "http://www.w3.org/Graphics/SVG/1.1/DTD/svg11.dtd">
<svg height="345.6pt" version="1.1" viewBox="0 0 460.8 345.6" width="460.8pt" xmlns="http://www.w3.org/2000/svg" xmlns:xlink="http://www.w3.org/1999/xlink">
 <metadata>
  <rdf:RDF xmlns:cc="http://creativecommons.org/ns#" xmlns:dc="http://purl.org/dc/elements/1.1/" xmlns:rdf="http://www.w3.org/1999/02/22-rdf-syntax-ns#">
   <cc:Work>
    <dc:type rdf:resource="http://purl.org/dc/dcmitype/StillImage"/>
    <dc:date>2024-08-06T14:40:10.877258</dc:date>
    <dc:format>image/svg+xml</dc:format>
    <dc:creator>
     <cc:Agent>
      <dc:title>Matplotlib v3.4.2, https://matplotlib.org/</dc:title>
     </cc:Agent>
    </dc:creator>
   </cc:Work>
  </rdf:RDF>
 </metadata>
 <defs>
  <style type="text/css">*{stroke-linecap:butt;stroke-linejoin:round;}</style>
 </defs>
 <g id="figure_1">
  <g id="patch_1">
   <path d="M 0 345.6 
L 460.8 345.6 
L 460.8 0 
L 0 0 
z
" style="fill:#ffffff;"/>
  </g>
  <g id="axes_1">
   <g id="patch_2">
    <path d="M 57.6 307.584 
L 414.72 307.584 
L 414.72 41.472 
L 57.6 41.472 
z
" style="fill:#ffffff;"/>
   </g>
   <g id="matplotlib.axis_1">
    <g id="xtick_1">
     <g id="line2d_1">
      <defs>
       <path d="M 0 0 
L 0 3.5 
" id="mb0dee88afb" style="stroke:#000000;stroke-width:0.8;"/>
      </defs>
      <g>
       <use style="stroke:#000000;stroke-width:0.8;" x="73.831806" xlink:href="#mb0dee88afb" y="307.584"/>
      </g>
     </g>
     <g id="text_1">
      <!-- 0.5 -->
      <g transform="translate(65.880243 322.182437)scale(0.1 -0.1)">
       <defs>
        <path d="M 2034 4250 
Q 1547 4250 1301 3770 
Q 1056 3291 1056 2328 
Q 1056 1369 1301 889 
Q 1547 409 2034 409 
Q 2525 409 2770 889 
Q 3016 1369 3016 2328 
Q 3016 3291 2770 3770 
Q 2525 4250 2034 4250 
z
M 2034 4750 
Q 2819 4750 3233 4129 
Q 3647 3509 3647 2328 
Q 3647 1150 3233 529 
Q 2819 -91 2034 -91 
Q 1250 -91 836 529 
Q 422 1150 422 2328 
Q 422 3509 836 4129 
Q 1250 4750 2034 4750 
z
" id="DejaVuSans-30" transform="scale(0.015625)"/>
        <path d="M 684 794 
L 1344 794 
L 1344 0 
L 684 0 
L 684 794 
z
" id="DejaVuSans-2e" transform="scale(0.015625)"/>
        <path d="M 691 4666 
L 3169 4666 
L 3169 4134 
L 1269 4134 
L 1269 2991 
Q 1406 3038 1543 3061 
Q 1681 3084 1819 3084 
Q 2600 3084 3056 2656 
Q 3513 2228 3513 1497 
Q 3513 744 3044 326 
Q 2575 -91 1722 -91 
Q 1428 -91 1123 -41 
Q 819 9 494 109 
L 494 744 
Q 775 591 1075 516 
Q 1375 441 1709 441 
Q 2250 441 2565 725 
Q 2881 1009 2881 1497 
Q 2881 1984 2565 2268 
Q 2250 2553 1709 2553 
Q 1456 2553 1204 2497 
Q 953 2441 691 2322 
L 691 4666 
z
" id="DejaVuSans-35" transform="scale(0.015625)"/>
       </defs>
       <use xlink:href="#DejaVuSans-30"/>
       <use x="63.623047" xlink:href="#DejaVuSans-2e"/>
       <use x="95.410156" xlink:href="#DejaVuSans-35"/>
      </g>
     </g>
    </g>
    <g id="xtick_2">
     <g id="line2d_2">
      <g>
       <use style="stroke:#000000;stroke-width:0.8;" x="119.20798" xlink:href="#mb0dee88afb" y="307.584"/>
      </g>
     </g>
     <g id="text_2">
      <!-- 1.0 -->
      <g transform="translate(111.256417 322.182437)scale(0.1 -0.1)">
       <defs>
        <path d="M 794 531 
L 1825 531 
L 1825 4091 
L 703 3866 
L 703 4441 
L 1819 4666 
L 2450 4666 
L 2450 531 
L 3481 531 
L 3481 0 
L 794 0 
L 794 531 
z
" id="DejaVuSans-31" transform="scale(0.015625)"/>
       </defs>
       <use xlink:href="#DejaVuSans-31"/>
       <use x="63.623047" xlink:href="#DejaVuSans-2e"/>
       <use x="95.410156" xlink:href="#DejaVuSans-30"/>
      </g>
     </g>
    </g>
    <g id="xtick_3">
     <g id="line2d_3">
      <g>
       <use style="stroke:#000000;stroke-width:0.8;" x="164.584153" xlink:href="#mb0dee88afb" y="307.584"/>
      </g>
     </g>
     <g id="text_3">
      <!-- 1.5 -->
      <g transform="translate(156.632591 322.182437)scale(0.1 -0.1)">
       <use xlink:href="#DejaVuSans-31"/>
       <use x="63.623047" xlink:href="#DejaVuSans-2e"/>
       <use x="95.410156" xlink:href="#DejaVuSans-35"/>
      </g>
     </g>
    </g>
    <g id="xtick_4">
     <g id="line2d_4">
      <g>
       <use style="stroke:#000000;stroke-width:0.8;" x="209.960327" xlink:href="#mb0dee88afb" y="307.584"/>
      </g>
     </g>
     <g id="text_4">
      <!-- 2.0 -->
      <g transform="translate(202.008765 322.182437)scale(0.1 -0.1)">
       <defs>
        <path d="M 1228 531 
L 3431 531 
L 3431 0 
L 469 0 
L 469 531 
Q 828 903 1448 1529 
Q 2069 2156 2228 2338 
Q 2531 2678 2651 2914 
Q 2772 3150 2772 3378 
Q 2772 3750 2511 3984 
Q 2250 4219 1831 4219 
Q 1534 4219 1204 4116 
Q 875 4013 500 3803 
L 500 4441 
Q 881 4594 1212 4672 
Q 1544 4750 1819 4750 
Q 2544 4750 2975 4387 
Q 3406 4025 3406 3419 
Q 3406 3131 3298 2873 
Q 3191 2616 2906 2266 
Q 2828 2175 2409 1742 
Q 1991 1309 1228 531 
z
" id="DejaVuSans-32" transform="scale(0.015625)"/>
       </defs>
       <use xlink:href="#DejaVuSans-32"/>
       <use x="63.623047" xlink:href="#DejaVuSans-2e"/>
       <use x="95.410156" xlink:href="#DejaVuSans-30"/>
      </g>
     </g>
    </g>
    <g id="xtick_5">
     <g id="line2d_5">
      <g>
       <use style="stroke:#000000;stroke-width:0.8;" x="255.336501" xlink:href="#mb0dee88afb" y="307.584"/>
      </g>
     </g>
     <g id="text_5">
      <!-- 2.5 -->
      <g transform="translate(247.384939 322.182437)scale(0.1 -0.1)">
       <use xlink:href="#DejaVuSans-32"/>
       <use x="63.623047" xlink:href="#DejaVuSans-2e"/>
       <use x="95.410156" xlink:href="#DejaVuSans-35"/>
      </g>
     </g>
    </g>
    <g id="xtick_6">
     <g id="line2d_6">
      <g>
       <use style="stroke:#000000;stroke-width:0.8;" x="300.712675" xlink:href="#mb0dee88afb" y="307.584"/>
      </g>
     </g>
     <g id="text_6">
      <!-- 3.0 -->
      <g transform="translate(292.761113 322.182437)scale(0.1 -0.1)">
       <defs>
        <path d="M 2597 2516 
Q 3050 2419 3304 2112 
Q 3559 1806 3559 1356 
Q 3559 666 3084 287 
Q 2609 -91 1734 -91 
Q 1441 -91 1130 -33 
Q 819 25 488 141 
L 488 750 
Q 750 597 1062 519 
Q 1375 441 1716 441 
Q 2309 441 2620 675 
Q 2931 909 2931 1356 
Q 2931 1769 2642 2001 
Q 2353 2234 1838 2234 
L 1294 2234 
L 1294 2753 
L 1863 2753 
Q 2328 2753 2575 2939 
Q 2822 3125 2822 3475 
Q 2822 3834 2567 4026 
Q 2313 4219 1838 4219 
Q 1578 4219 1281 4162 
Q 984 4106 628 3988 
L 628 4550 
Q 988 4650 1302 4700 
Q 1616 4750 1894 4750 
Q 2613 4750 3031 4423 
Q 3450 4097 3450 3541 
Q 3450 3153 3228 2886 
Q 3006 2619 2597 2516 
z
" id="DejaVuSans-33" transform="scale(0.015625)"/>
       </defs>
       <use xlink:href="#DejaVuSans-33"/>
       <use x="63.623047" xlink:href="#DejaVuSans-2e"/>
       <use x="95.410156" xlink:href="#DejaVuSans-30"/>
      </g>
     </g>
    </g>
    <g id="xtick_7">
     <g id="line2d_7">
      <g>
       <use style="stroke:#000000;stroke-width:0.8;" x="346.088849" xlink:href="#mb0dee88afb" y="307.584"/>
      </g>
     </g>
     <g id="text_7">
      <!-- 3.5 -->
      <g transform="translate(338.137286 322.182437)scale(0.1 -0.1)">
       <use xlink:href="#DejaVuSans-33"/>
       <use x="63.623047" xlink:href="#DejaVuSans-2e"/>
       <use x="95.410156" xlink:href="#DejaVuSans-35"/>
      </g>
     </g>
    </g>
    <g id="xtick_8">
     <g id="line2d_8">
      <g>
       <use style="stroke:#000000;stroke-width:0.8;" x="391.465023" xlink:href="#mb0dee88afb" y="307.584"/>
      </g>
     </g>
     <g id="text_8">
      <!-- 4.0 -->
      <g transform="translate(383.51346 322.182437)scale(0.1 -0.1)">
       <defs>
        <path d="M 2419 4116 
L 825 1625 
L 2419 1625 
L 2419 4116 
z
M 2253 4666 
L 3047 4666 
L 3047 1625 
L 3713 1625 
L 3713 1100 
L 3047 1100 
L 3047 0 
L 2419 0 
L 2419 1100 
L 313 1100 
L 313 1709 
L 2253 4666 
z
" id="DejaVuSans-34" transform="scale(0.015625)"/>
       </defs>
       <use xlink:href="#DejaVuSans-34"/>
       <use x="63.623047" xlink:href="#DejaVuSans-2e"/>
       <use x="95.410156" xlink:href="#DejaVuSans-30"/>
      </g>
     </g>
    </g>
   </g>
   <g id="matplotlib.axis_2">
    <g id="ytick_1">
     <g id="line2d_9">
      <defs>
       <path d="M 0 0 
L -3.5 0 
" id="m34c1d81b43" style="stroke:#000000;stroke-width:0.8;"/>
      </defs>
      <g>
       <use style="stroke:#000000;stroke-width:0.8;" x="57.6" xlink:href="#m34c1d81b43" y="287.885536"/>
      </g>
     </g>
     <g id="text_9">
      <!-- −60 -->
      <g transform="translate(29.495313 291.684755)scale(0.1 -0.1)">
       <defs>
        <path d="M 678 2272 
L 4684 2272 
L 4684 1741 
L 678 1741 
L 678 2272 
z
" id="DejaVuSans-2212" transform="scale(0.015625)"/>
        <path d="M 2113 2584 
Q 1688 2584 1439 2293 
Q 1191 2003 1191 1497 
Q 1191 994 1439 701 
Q 1688 409 2113 409 
Q 2538 409 2786 701 
Q 3034 994 3034 1497 
Q 3034 2003 2786 2293 
Q 2538 2584 2113 2584 
z
M 3366 4563 
L 3366 3988 
Q 3128 4100 2886 4159 
Q 2644 4219 2406 4219 
Q 1781 4219 1451 3797 
Q 1122 3375 1075 2522 
Q 1259 2794 1537 2939 
Q 1816 3084 2150 3084 
Q 2853 3084 3261 2657 
Q 3669 2231 3669 1497 
Q 3669 778 3244 343 
Q 2819 -91 2113 -91 
Q 1303 -91 875 529 
Q 447 1150 447 2328 
Q 447 3434 972 4092 
Q 1497 4750 2381 4750 
Q 2619 4750 2861 4703 
Q 3103 4656 3366 4563 
z
" id="DejaVuSans-36" transform="scale(0.015625)"/>
       </defs>
       <use xlink:href="#DejaVuSans-2212"/>
       <use x="83.789062" xlink:href="#DejaVuSans-36"/>
       <use x="147.412109" xlink:href="#DejaVuSans-30"/>
      </g>
     </g>
    </g>
    <g id="ytick_2">
     <g id="line2d_10">
      <g>
       <use style="stroke:#000000;stroke-width:0.8;" x="57.6" xlink:href="#m34c1d81b43" y="250.944552"/>
      </g>
     </g>
     <g id="text_10">
      <!-- −40 -->
      <g transform="translate(29.495313 254.743771)scale(0.1 -0.1)">
       <use xlink:href="#DejaVuSans-2212"/>
       <use x="83.789062" xlink:href="#DejaVuSans-34"/>
       <use x="147.412109" xlink:href="#DejaVuSans-30"/>
      </g>
     </g>
    </g>
    <g id="ytick_3">
     <g id="line2d_11">
      <g>
       <use style="stroke:#000000;stroke-width:0.8;" x="57.6" xlink:href="#m34c1d81b43" y="214.003568"/>
      </g>
     </g>
     <g id="text_11">
      <!-- −20 -->
      <g transform="translate(29.495313 217.802787)scale(0.1 -0.1)">
       <use xlink:href="#DejaVuSans-2212"/>
       <use x="83.789062" xlink:href="#DejaVuSans-32"/>
       <use x="147.412109" xlink:href="#DejaVuSans-30"/>
      </g>
     </g>
    </g>
    <g id="ytick_4">
     <g id="line2d_12">
      <g>
       <use style="stroke:#000000;stroke-width:0.8;" x="57.6" xlink:href="#m34c1d81b43" y="177.062584"/>
      </g>
     </g>
     <g id="text_12">
      <!-- 0 -->
      <g transform="translate(44.2375 180.861803)scale(0.1 -0.1)">
       <use xlink:href="#DejaVuSans-30"/>
      </g>
     </g>
    </g>
    <g id="ytick_5">
     <g id="line2d_13">
      <g>
       <use style="stroke:#000000;stroke-width:0.8;" x="57.6" xlink:href="#m34c1d81b43" y="140.1216"/>
      </g>
     </g>
     <g id="text_13">
      <!-- 20 -->
      <g transform="translate(37.875 143.920819)scale(0.1 -0.1)">
       <use xlink:href="#DejaVuSans-32"/>
       <use x="63.623047" xlink:href="#DejaVuSans-30"/>
      </g>
     </g>
    </g>
    <g id="ytick_6">
     <g id="line2d_14">
      <g>
       <use style="stroke:#000000;stroke-width:0.8;" x="57.6" xlink:href="#m34c1d81b43" y="103.180616"/>
      </g>
     </g>
     <g id="text_14">
      <!-- 40 -->
      <g transform="translate(37.875 106.979835)scale(0.1 -0.1)">
       <use xlink:href="#DejaVuSans-34"/>
       <use x="63.623047" xlink:href="#DejaVuSans-30"/>
      </g>
     </g>
    </g>
    <g id="ytick_7">
     <g id="line2d_15">
      <g>
       <use style="stroke:#000000;stroke-width:0.8;" x="57.6" xlink:href="#m34c1d81b43" y="66.239632"/>
      </g>
     </g>
     <g id="text_15">
      <!-- 60 -->
      <g transform="translate(37.875 70.038851)scale(0.1 -0.1)">
       <use xlink:href="#DejaVuSans-36"/>
       <use x="63.623047" xlink:href="#DejaVuSans-30"/>
      </g>
     </g>
    </g>
   </g>
   <g id="line2d_16">
    <path clip-path="url(#p57baf217ef)" d="M 73.832727 282.249762 
L 74.04804 282.160067 
L 74.173639 282.180951 
L 74.31718 282.275409 
L 74.442779 282.204555 
L 74.586321 282.276558 
L 74.729862 282.330156 
L 74.747805 282.275022 
L 74.783691 282.371812 
L 74.837519 282.327648 
L 74.891347 282.250495 
L 74.927232 282.346185 
L 74.945175 282.26973 
L 74.98106 282.397388 
L 75.034888 282.361602 
L 75.268144 282.401961 
L 75.447571 282.360214 
L 75.555227 282.365372 
L 75.573169 282.340126 
L 75.591112 282.314916 
L 75.626998 282.420351 
L 75.64494 282.412847 
L 76.129393 282.371163 
L 76.165279 282.441108 
L 76.237049 282.390032 
L 77.798065 282.403906 
L 78.03132 282.41377 
L 78.210747 282.484849 
L 78.228689 282.531754 
L 78.264575 282.429264 
L 78.30046 282.45625 
L 78.49783 282.404061 
L 78.515773 282.463 
L 78.587544 282.397656 
L 78.605486 282.367887 
L 78.659314 282.471046 
L 78.677257 282.430842 
L 78.713142 282.502387 
L 78.766971 282.420273 
L 78.874627 282.34837 
L 78.802856 282.468066 
L 78.892569 282.417709 
L 79.000226 282.439396 
L 79.16171 282.378646 
L 79.215538 282.509863 
L 79.305252 282.459054 
L 79.412908 282.413143 
L 79.430851 282.432378 
L 79.664106 282.454178 
L 79.699991 282.433675 
L 79.771762 282.48931 
L 79.843533 282.459695 
L 79.879418 282.47793 
L 79.897361 282.489584 
L 79.951189 282.399854 
L 80.040902 282.412622 
L 80.094731 282.316318 
L 80.166501 282.455891 
L 80.274158 282.37797 
L 80.2921 282.402637 
L 80.417699 282.406633 
L 80.435642 282.378435 
L 80.48947 282.434478 
L 80.561241 282.390349 
L 80.776553 282.480791 
L 80.920095 282.440925 
L 81.045694 282.478381 
L 81.261006 282.064545 
L 81.278949 282.103862 
L 81.35072 282.011976 
L 81.386605 282.127226 
L 83.432073 282.26243 
L 83.521787 282.192253 
L 83.557672 282.226313 
L 83.701214 282.247599 
L 83.737099 282.192535 
L 83.755042 282.275 
L 83.772985 282.26706 
L 83.80887 282.380175 
L 83.880641 282.312879 
L 84.042125 282.279404 
L 84.078011 282.255899 
L 84.167724 282.307694 
L 84.27538 282.237826 
L 84.293323 282.249839 
L 84.454807 282.249269 
L 84.544521 282.239989 
L 85.979937 268.722859 
L 87.648608 258.77913 
L 88.079233 256.604424 
L 88.294546 255.519181 
L 88.366317 255.217495 
L 88.886655 252.535707 
L 88.940483 252.332235 
L 89.676134 247.949312 
L 90.555326 241.35374 
L 91.003894 232.077772 
L 91.021837 235.055609 
L 91.075665 199.995032 
L 91.11155 53.568 
L 91.183321 148.765569 
L 91.362748 251.619503 
L 91.470404 252.978446 
L 91.488347 252.759092 
L 91.50629 252.858777 
L 91.560118 252.719874 
L 91.793373 251.316127 
L 91.811316 251.321404 
L 91.829258 251.253897 
L 92.044571 250.62001 
L 92.098399 250.651822 
L 92.116341 250.706505 
L 92.17017 250.583068 
L 92.277826 250.435991 
L 92.295768 250.505154 
L 92.385482 250.516751 
L 92.403425 250.438859 
L 92.475196 250.349108 
L 92.511081 250.434349 
L 93.318503 249.714586 
L 93.426159 249.546963 
L 93.444101 249.624835 
L 93.462044 249.662143 
L 93.49793 249.59031 
L 93.623529 249.364149 
L 93.641471 249.436814 
L 93.713242 249.39134 
L 93.838841 249.151313 
L 93.856784 249.200994 
L 93.874726 249.265429 
L 93.946497 249.114984 
L 94.036211 248.935496 
L 94.072096 249.009521 
L 94.16181 248.962996 
L 94.287409 248.806922 
L 94.305351 248.825875 
L 94.843632 248.189874 
L 95.148658 247.498619 
L 95.184544 247.524322 
L 95.202486 247.442075 
L 95.399856 247.074869 
L 95.579283 246.809231 
L 95.615169 246.877477 
L 95.668997 246.751228 
L 95.830481 246.591539 
L 96.009908 246.150147 
L 97.301783 242.928464 
L 97.319725 243.018173 
L 97.337668 243.025184 
L 97.355611 242.916049 
L 97.786236 241.456266 
L 97.911834 240.928469 
L 97.94772 241.013957 
L 98.898683 234.769055 
L 99.131938 230.317113 
L 99.149881 231.854205 
L 99.203709 227.064334 
L 99.221652 226.840763 
L 99.257537 122.519188 
L 99.27548 59.389604 
L 99.347251 138.920413 
L 99.562563 249.991343 
L 99.616391 250.41133 
L 99.688162 251.117502 
L 99.74199 250.990133 
L 99.903475 251.366273 
L 99.957303 251.332572 
L 100.011131 251.402432 
L 100.064959 251.371931 
L 100.154672 251.717837 
L 100.369985 252.134082 
L 100.692953 252.918978 
L 100.728839 252.935902 
L 100.746782 252.982962 
L 100.836495 253.14306 
L 100.87238 253.086735 
L 101.123578 253.269119 
L 101.320948 253.505383 
L 102.038656 254.048793 
L 102.056599 254.027902 
L 102.20014 253.513239 
L 102.236026 253.529924 
L 102.343682 253.436932 
L 102.379567 253.55791 
L 102.469281 253.711413 
L 102.487224 253.672533 
L 102.523109 253.59085 
L 102.558995 253.745741 
L 102.576937 253.709496 
L 102.846078 253.858793 
L 102.953734 253.955836 
L 102.971677 253.944929 
L 103.186989 254.000585 
L 103.204932 253.970337 
L 103.25876 254.052549 
L 103.276703 254.076329 
L 103.312588 254.01164 
L 103.348473 253.997724 
L 103.438187 253.948332 
L 103.45613 254.004066 
L 103.474072 254.086376 
L 103.5279 253.97529 
L 103.563786 254.017629 
L 103.779098 253.836619 
L 103.814984 253.869333 
L 103.832926 253.787897 
L 103.868812 253.784134 
L 104.012353 253.631392 
L 104.084124 253.730839 
L 104.137952 253.695764 
L 104.335322 253.55629 
L 104.442978 253.685745 
L 104.460921 253.667538 
L 104.550635 253.519052 
L 104.568577 253.622028 
L 104.58652 253.658568 
L 104.604463 253.557015 
L 104.640348 253.608394 
L 104.730062 253.508081 
L 104.765947 253.52757 
L 104.78389 253.550124 
L 104.819775 253.419444 
L 104.837718 253.463438 
L 105.698968 252.946739 
L 105.734853 253.02435 
L 105.752796 252.9148 
L 105.842509 252.999851 
L 105.932223 252.870812 
L 105.950165 252.938714 
L 105.986051 252.907789 
L 106.075764 253.006411 
L 106.129592 252.842452 
L 106.237249 252.835413 
L 106.201363 252.910375 
L 106.255191 252.852612 
L 106.273134 252.888307 
L 106.326962 252.768357 
L 106.506389 252.687737 
L 106.542275 252.710446 
L 106.614045 252.636894 
L 106.631988 252.712433 
L 106.703759 252.605237 
L 106.739644 252.533114 
L 106.77553 252.612938 
L 106.793472 252.673223 
L 106.847301 252.56041 
L 106.883186 252.62295 
L 107.026728 252.449648 
L 107.134384 252.504508 
L 107.170269 252.481306 
L 107.259983 252.530909 
L 107.349696 252.528506 
L 107.367639 252.593301 
L 107.385582 252.616073 
L 107.43941 252.559445 
L 107.547066 252.5056 
L 107.565009 252.530571 
L 108.210946 252.195311 
L 108.318602 252.087685 
L 108.336545 252.116707 
L 108.515972 252.023095 
L 108.677456 251.835208 
L 108.749227 251.924473 
L 108.785112 251.839153 
L 108.892769 251.779157 
L 109.090138 251.520459 
L 109.108081 251.635463 
L 109.197795 251.531993 
L 109.359279 251.253214 
L 109.520763 251.250755 
L 109.987274 250.672918 
L 110.09493 250.84407 
L 110.041102 250.626351 
L 110.148758 250.746766 
L 111.907143 249.494964 
L 112.032742 249.260539 
L 112.050684 249.291168 
L 112.068627 249.287941 
L 112.194226 249.16167 
L 112.678679 248.755642 
L 112.822221 248.539825 
L 112.840163 248.553141 
L 112.858106 248.561773 
L 112.876049 248.465067 
L 113.055476 248.278089 
L 113.091361 248.366769 
L 113.145189 248.239315 
L 113.163132 248.273354 
L 113.181075 248.306837 
L 113.21696 248.181194 
L 113.468158 247.762891 
L 113.504043 247.884828 
L 113.557871 247.695813 
L 113.862897 247.412095 
L 113.934668 247.328685 
L 116.321048 243.779817 
L 116.33899 243.847226 
L 116.356933 243.91815 
L 116.410761 243.790281 
L 116.518417 243.696746 
L 116.53636 243.736168 
L 116.554303 243.743777 
L 116.572245 243.68104 
L 116.841386 242.94002 
L 116.877271 242.952695 
L 117.307896 242.151988 
L 117.487323 241.68931 
L 117.505266 241.74016 
L 117.989719 240.556556 
L 118.133261 240.156939 
L 118.187089 240.005903 
L 118.474172 238.898183 
L 118.617714 238.53214 
L 118.635656 238.548627 
L 118.653599 238.447159 
L 119.38925 234.138095 
L 119.65839 227.927443 
L 119.676333 229.794168 
L 119.730161 201.38255 
L 119.766047 61.093649 
L 119.837817 141.540458 
L 120.035187 249.818845 
L 120.2505 252.782977 
L 120.268442 252.734938 
L 120.376098 252.865866 
L 120.860551 254.525289 
L 120.91438 254.547314 
L 121.165577 255.245432 
L 121.488546 255.824559 
L 121.506489 255.792394 
L 121.524431 255.78458 
L 121.542374 255.835008 
L 121.721801 256.218391 
L 121.8474 256.481719 
L 121.901228 256.46631 
L 122.008884 256.419539 
L 122.224197 256.62306 
L 122.260082 256.683064 
L 122.439509 257.031837 
L 122.457452 257.019606 
L 122.959848 257.552285 
L 122.97779 257.521015 
L 123.013676 257.595526 
L 123.049561 257.610499 
L 123.17516 257.630995 
L 123.318702 257.882965 
L 123.444301 257.886826 
L 123.534014 257.897451 
L 123.498129 257.944835 
L 123.551957 257.918314 
L 123.731384 258.048136 
L 123.83904 257.977402 
L 123.767269 258.126994 
L 123.856983 258.065652 
L 123.892868 258.029027 
L 123.910811 258.108343 
L 123.928754 258.163668 
L 124.000524 258.083746 
L 124.018467 258.070817 
L 124.03641 258.174244 
L 124.197894 258.313605 
L 124.23378 258.198313 
L 124.287608 258.258971 
L 124.359378 258.191034 
L 124.484977 258.219239 
L 124.664404 258.020093 
L 124.772061 258.040646 
L 124.807946 258.137584 
L 124.879717 258.041639 
L 124.915602 258.067371 
L 124.96943 258.19875 
L 125.041201 258.150492 
L 125.059144 258.213363 
L 125.130915 258.107378 
L 125.148857 258.165916 
L 125.1668 258.180226 
L 125.202686 258.094477 
L 125.220628 258.071514 
L 125.256514 258.168706 
L 125.292399 258.157482 
L 125.310342 258.227441 
L 125.346227 258.115911 
L 125.400055 258.156918 
L 125.758909 258.041111 
L 125.956279 257.844677 
L 126.045993 257.834024 
L 126.207477 257.678316 
L 126.22542 257.729765 
L 126.261305 257.649737 
L 126.279248 257.677217 
L 126.404847 257.558767 
L 126.476617 257.525334 
L 126.548388 257.674356 
L 126.745758 257.356345 
L 126.763701 257.375305 
L 126.781643 257.396922 
L 126.835471 257.290162 
L 127.032841 257.229863 
L 127.104612 257.187017 
L 127.15844 257.238452 
L 127.248154 257.137089 
L 127.409638 256.931355 
L 127.427581 256.965549 
L 127.481409 256.870309 
L 127.571122 256.869795 
L 127.535237 256.916009 
L 127.589065 256.8923 
L 127.660836 256.921188 
L 127.678779 256.897732 
L 127.804377 256.798384 
L 127.82232 256.837355 
L 127.840263 256.861939 
L 127.858206 256.777437 
L 127.894091 256.790634 
L 128.037633 256.610089 
L 128.055575 256.620369 
L 128.145289 256.584012 
L 128.28883 256.433285 
L 128.468257 256.289309 
L 128.809169 256.001405 
L 128.845054 256.046752 
L 128.934768 255.963166 
L 129.114195 255.704524 
L 129.239794 255.676601 
L 129.34745 255.514714 
L 129.365393 255.522049 
L 129.419221 255.61421 
L 129.455106 255.528489 
L 129.61659 255.381201 
L 129.760132 255.360655 
L 129.921616 255.260151 
L 130.28047 255.117718 
L 130.441955 254.972515 
L 130.621382 254.867341 
L 130.764923 254.711034 
L 130.782866 254.733348 
L 130.998179 254.511401 
L 131.123777 254.428774 
L 131.159663 254.482513 
L 131.177606 254.398765 
L 131.231434 254.410715 
L 131.823543 253.885807 
L 131.985027 253.680524 
L 132.00297 253.743324 
L 132.074741 253.670427 
L 132.164454 253.441793 
L 132.218282 253.473662 
L 132.379767 253.327868 
L 132.559194 253.116764 
L 132.738621 252.933443 
L 132.828334 252.914511 
L 132.846277 252.889801 
L 132.953933 252.799303 
L 132.971876 252.821758 
L 133.061589 252.885031 
L 133.097475 252.855177 
L 133.187188 252.763319 
L 133.348673 252.570514 
L 133.366615 252.608161 
L 135.286485 250.811039 
L 135.430026 250.571745 
L 135.447969 250.59921 
L 135.681224 250.276189 
L 135.842708 250.196972 
L 136.022135 249.820789 
L 136.093906 249.75584 
L 136.273333 249.551797 
L 136.291276 249.565064 
L 136.596302 249.12673 
L 136.775729 248.683019 
L 136.793672 248.770149 
L 136.883385 248.796473 
L 136.829557 248.700556 
L 136.901328 248.773975 
L 137.062812 248.51131 
L 137.080755 248.5691 
L 137.11664 248.430845 
L 137.152526 248.452983 
L 137.367838 248.101744 
L 137.493437 248.010689 
L 137.654921 247.831645 
L 137.672864 247.903387 
L 137.726692 247.779921 
L 137.744635 247.782394 
L 138.264973 247.331729 
L 138.408515 247.076589 
L 138.426458 247.093456 
L 138.480286 247.07625 
L 138.498228 247.036582 
L 138.767369 246.471188 
L 138.892968 246.251263 
L 139.000624 246.173328 
L 139.215936 245.817607 
L 139.233879 245.831107 
L 139.323593 245.732866 
L 139.485077 245.630523 
L 139.610676 245.541794 
L 139.861874 244.985687 
L 139.879816 245.030964 
L 139.951587 245.117453 
L 139.987473 244.968826 
L 141.315233 242.456718 
L 141.530545 242.151164 
L 141.548488 242.225132 
L 141.602316 242.011866 
L 142.050883 240.705705 
L 142.068826 240.721248 
L 142.15854 240.443998 
L 142.194425 240.563814 
L 142.212368 240.567816 
L 142.571222 238.946236 
L 142.607107 238.911359 
L 143.558071 233.258421 
L 143.576013 233.272872 
L 143.845154 225.473319 
L 143.863096 225.578698 
L 143.898982 119.074456 
L 143.916925 62.146671 
L 143.988695 139.031591 
L 144.204008 249.582968 
L 144.455206 252.60654 
L 144.473148 252.600981 
L 144.849945 254.072686 
L 144.867888 254.065112 
L 144.885831 254.126158 
L 146.034164 256.771878 
L 146.14182 256.791071 
L 146.626273 257.931053 
L 146.662158 257.897613 
L 147.882262 259.455892 
L 147.900205 259.42985 
L 147.971975 259.391753 
L 147.989918 259.443992 
L 148.13346 259.534778 
L 148.169345 259.47951 
L 148.223173 259.561962 
L 148.330829 259.621302 
L 148.348772 259.56051 
L 148.528199 259.653876 
L 148.546142 259.62913 
L 148.582027 259.594443 
L 148.59997 259.653798 
L 148.617913 259.728647 
L 148.707626 259.670335 
L 148.779397 259.578632 
L 148.833225 259.625234 
L 149.012652 259.744825 
L 149.030595 259.723356 
L 149.102366 259.642997 
L 149.138251 259.731071 
L 149.694475 259.775693 
L 149.873902 259.71836 
L 150.376298 259.606661 
L 150.537782 259.469653 
L 150.627495 259.560045 
L 150.681324 259.495314 
L 150.968407 259.27169 
L 151.004292 259.389703 
L 151.094006 259.339627 
L 151.811714 258.445378 
L 151.883485 258.482778 
L 151.901427 258.442828 
L 152.044969 258.354 
L 152.278224 258.316544 
L 152.349995 258.392499 
L 152.38588 258.333158 
L 152.511479 258.273472 
L 152.565307 258.290107 
L 152.58325 258.234064 
L 152.708849 258.124591 
L 152.726792 258.221219 
L 152.762677 258.102904 
L 152.816505 258.19579 
L 152.97799 258.039772 
L 152.995932 258.066807 
L 153.04976 258.06196 
L 153.175359 257.780278 
L 153.193302 257.790403 
L 153.354786 257.679753 
L 153.480385 257.584985 
L 153.498328 257.612154 
L 153.516271 257.667986 
L 153.588041 257.551672 
L 153.605984 257.598394 
L 153.71364 257.491141 
L 153.731583 257.551757 
L 154.000724 257.538863 
L 154.072494 257.480184 
L 154.10838 257.541174 
L 156.046192 256.080016 
L 156.064134 256.050726 
L 156.117963 256.119199 
L 156.153848 256.138342 
L 156.189733 256.032696 
L 157.553379 254.911328 
L 157.69692 254.683026 
L 157.804577 254.538725 
L 157.732806 254.714564 
L 157.822519 254.551309 
L 157.912233 254.697851 
L 157.948118 254.610763 
L 158.253144 254.241021 
L 158.271087 254.258361 
L 158.28903 254.303779 
L 158.342858 254.210913 
L 158.378743 254.26659 
L 159.455305 253.083508 
L 159.491191 253.125734 
L 159.527076 253.032206 
L 159.652675 252.793377 
L 159.706503 252.842205 
L 160.567753 251.856134 
L 160.585696 251.959258 
L 160.603638 251.999336 
L 160.657466 251.895274 
L 160.74718 251.887221 
L 160.765123 251.947619 
L 160.854836 251.893717 
L 161.195747 251.565856 
L 161.482831 251.553772 
L 161.698143 251.317902 
L 161.716086 251.329296 
L 162.003169 251.138844 
L 162.146711 250.994416 
L 162.523507 250.512954 
L 162.882361 250.125434 
L 162.900304 250.158416 
L 163.00796 250.197726 
L 163.025903 250.146544 
L 163.187387 249.910336 
L 163.330929 249.941028 
L 164.515147 248.848542 
L 164.586918 248.605429 
L 164.640746 248.662832 
L 164.712517 248.468992 
L 164.784288 248.536013 
L 164.909887 248.651059 
L 164.945772 248.582297 
L 164.963715 248.600074 
L 164.981658 248.528135 
L 164.9996 248.527311 
L 165.143142 248.349577 
L 165.268741 248.408291 
L 165.19697 248.2939 
L 165.286684 248.386921 
L 165.412283 248.238667 
L 165.430225 248.301876 
L 165.448168 248.309317 
L 165.484053 248.215754 
L 165.66348 247.891711 
L 165.699366 247.980624 
L 165.717309 248.014395 
L 165.771137 247.894311 
L 165.896736 247.929971 
L 166.022334 247.934706 
L 166.040277 247.899251 
L 166.165876 247.779174 
L 166.435017 247.606668 
L 166.596501 247.200371 
L 166.793871 247.151085 
L 166.973298 246.800804 
L 167.045069 246.752919 
L 167.260381 246.398262 
L 167.58335 246.108682 
L 167.673063 246.066596 
L 167.780719 245.98487 
L 167.85249 246.045367 
L 167.870433 245.93891 
L 168.175459 245.293108 
L 168.229287 245.346692 
L 168.24723 245.421978 
L 168.283115 245.185509 
L 168.695797 244.654013 
L 168.71374 244.741221 
L 168.731683 244.768242 
L 168.749625 244.644945 
L 169.503219 243.233081 
L 168.803453 244.670649 
L 169.521162 243.26588 
L 169.664703 243.006928 
L 170.23887 241.833336 
L 170.292698 241.804032 
L 170.525953 241.041126 
L 170.561838 241.115193 
L 170.597724 240.924854 
L 170.615666 240.945788 
L 170.651552 240.836731 
L 170.866864 240.257449 
L 170.920692 240.338626 
L 170.956578 240.239151 
L 171.441031 238.748774 
L 171.458973 238.773012 
L 171.476916 238.832304 
L 171.512802 238.650512 
L 171.781942 237.646219 
L 171.817827 237.722492 
L 171.853713 237.623891 
L 172.535536 234.473865 
L 172.912332 230.337036 
L 172.930275 230.452304 
L 173.091759 222.384942 
L 173.145588 68.971693 
L 173.217358 148.825065 
L 173.396785 249.209068 
L 173.55827 252.028245 
L 173.701811 252.753603 
L 173.719754 252.744056 
L 173.737697 252.734586 
L 173.755639 252.812063 
L 174.060665 254.269275 
L 174.383634 255.578642 
L 174.509233 255.87524 
L 175.173113 257.417081 
L 175.388425 257.749881 
L 175.585795 258.022982 
L 175.657566 258.005233 
L 175.675509 258.084613 
L 176.285561 258.760684 
L 176.303503 258.720015 
L 176.321446 258.701315 
L 176.339389 258.794885 
L 176.518816 259.023765 
L 176.572644 258.985104 
L 176.698243 259.045072 
L 176.985326 259.255964 
L 177.003269 259.220826 
L 177.326237 259.182073 
L 177.415951 259.277877 
L 177.469779 259.236693 
L 177.613321 259.417992 
L 177.667149 259.332919 
L 177.720977 259.364499 
L 177.774805 259.322506 
L 177.936289 259.494722 
L 177.954232 259.440927 
L 178.061888 259.353952 
L 178.097773 259.410763 
L 178.348971 259.382924 
L 178.528398 259.506369 
L 178.600169 259.433585 
L 178.653997 259.463939 
L 178.743711 259.482004 
L 178.761653 259.455948 
L 178.851367 259.42143 
L 178.86931 259.433747 
L 178.941081 259.511146 
L 178.959023 259.404668 
L 178.976966 259.407212 
L 179.120508 259.426884 
L 179.13845 259.367268 
L 179.246106 259.373335 
L 179.264049 259.398383 
L 179.299935 259.293575 
L 179.317877 259.271951 
L 179.371705 259.37943 
L 179.389648 259.351429 
L 179.515247 259.344686 
L 179.551132 259.426651 
L 179.622903 259.344968 
L 179.748502 259.281153 
L 180.161184 259.065421 
L 180.232955 258.831622 
L 180.322669 258.91425 
L 180.376497 259.001049 
L 180.430325 258.881677 
L 180.520038 258.820567 
L 180.555924 258.849406 
L 180.627695 258.861201 
L 180.645637 258.799775 
L 180.807122 258.748769 
L 180.896835 258.711186 
L 180.86095 258.807793 
L 180.914778 258.728547 
L 180.932721 258.78457 
L 181.004491 258.677584 
L 181.022434 258.734191 
L 181.076262 258.624486 
L 181.201861 258.58233 
L 181.219804 258.601319 
L 181.381288 258.563313 
L 181.471002 258.454672 
L 181.506887 258.47779 
L 181.686314 258.406534 
L 181.776028 258.436881 
L 181.740142 258.341021 
L 181.79397 258.416673 
L 181.955455 258.368979 
L 182.063111 258.275374 
L 182.098996 258.367373 
L 182.170767 258.269033 
L 182.18871 258.324921 
L 182.224595 258.218302 
L 182.260481 258.218006 
L 182.296366 258.248966 
L 182.421965 258.187349 
L 184.090636 257.488597 
L 184.162407 257.575001 
L 184.198292 257.506233 
L 184.341834 257.31848 
L 184.557147 257.645432 
L 184.700688 257.558239 
L 184.754516 257.474984 
L 184.808344 257.546437 
L 184.898058 257.603791 
L 184.933943 257.505874 
L 185.041599 257.454762 
L 185.454282 257.062487 
L 185.543995 257.053539 
L 185.490167 257.009008 
L 185.561938 257.018584 
L 185.723422 256.844944 
L 185.795193 256.89175 
L 185.813136 256.827597 
L 185.938735 256.573112 
L 185.956677 256.57698 
L 185.992563 256.678392 
L 186.028448 256.537882 
L 186.082276 256.62788 
L 186.279646 256.412225 
L 186.315531 256.47196 
L 186.36936 256.402988 
L 186.405245 256.330915 
L 186.494958 256.38011 
L 187.912432 255.486298 
L 188.020088 255.383061 
L 188.038031 255.418784 
L 188.145687 255.424286 
L 188.414828 255.194124 
L 188.486598 255.263505 
L 188.468656 255.148628 
L 188.540427 255.187712 
L 188.666025 255.049429 
L 188.701911 255.148008 
L 188.791624 255.116612 
L 188.917223 254.994668 
L 188.935166 255.044236 
L 189.222249 254.803822 
L 189.311963 254.806661 
L 189.329905 254.773299 
L 189.455504 254.58315 
L 189.473447 254.619683 
L 189.49139 254.687106 
L 189.563161 254.579796 
L 189.778473 254.296599 
L 189.9579 254.285614 
L 190.137327 254.101779 
L 190.227041 254.125932 
L 190.244983 254.072743 
L 190.262926 254.003622 
L 190.280869 254.120958 
L 190.35264 254.071453 
L 190.567952 253.938045 
L 190.585895 253.962903 
L 190.62178 253.831602 
L 190.639723 253.856432 
L 190.801207 253.600059 
L 190.855035 253.636155 
L 191.465087 252.879105 
L 191.48303 252.893465 
L 191.500973 252.950396 
L 191.554801 252.824844 
L 191.788056 252.56561 
L 191.895712 252.581435 
L 192.093082 252.361109 
L 192.649306 252.010341 
L 192.667248 252.065067 
L 192.721076 252.008446 
L 192.864618 251.786048 
L 192.936389 251.830628 
L 192.900503 251.75883 
L 192.972274 251.759971 
L 193.169644 251.504443 
L 193.456727 251.157333 
L 193.582326 251.24349 
L 193.761753 250.933406 
L 193.779696 250.945856 
L 194.030894 250.521592 
L 194.048836 250.55914 
L 194.102664 250.442607 
L 194.228263 250.153949 
L 194.246206 250.246392 
L 194.389748 250.035902 
L 194.425633 250.073273 
L 194.658888 249.746293 
L 194.676831 249.794395 
L 194.712716 249.595876 
L 194.748602 249.569095 
L 194.766544 249.637532 
L 194.80243 249.651779 
L 194.820373 249.659952 
L 194.856258 249.556616 
L 195.161284 249.181935 
L 195.215112 249.239387 
L 195.250997 249.134945 
L 195.26894 249.098595 
L 195.304826 249.22817 
L 195.322768 249.245137 
L 195.358654 249.149636 
L 195.376596 249.166793 
L 195.825164 248.743945 
L 195.843107 248.815039 
L 195.968706 248.821549 
L 196.13019 248.666278 
L 196.148133 248.770917 
L 196.219903 248.624031 
L 196.39933 248.466596 
L 196.686414 247.866233 
L 196.79407 247.812557 
L 196.937611 247.589772 
L 197.762976 246.771535 
L 197.780919 246.84222 
L 197.834747 246.724412 
L 197.978288 246.490818 
L 197.996231 246.604898 
L 198.085944 246.47748 
L 198.175658 246.441651 
L 198.3192 246.159314 
L 198.373028 246.172003 
L 198.39097 246.218218 
L 198.444799 246.300542 
L 198.480684 246.206535 
L 198.678054 245.892555 
L 198.713939 245.957652 
L 198.749824 245.825477 
L 198.965137 245.334284 
L 198.98308 245.37787 
L 199.018965 245.417299 
L 199.05485 245.270349 
L 199.108679 245.146122 
L 199.359876 244.6155 
L 199.377819 244.631805 
L 199.395762 244.688961 
L 199.44959 244.51747 
L 199.772559 243.855364 
L 199.844329 243.903812 
L 200.005814 243.476138 
L 200.274954 242.963638 
L 200.472324 242.364959 
L 200.633808 242.186859 
L 200.813235 241.664656 
L 200.867063 241.762595 
L 200.920892 241.640256 
L 201.118261 241.207291 
L 201.172089 241.156433 
L 201.925683 238.255566 
L 202.140995 237.265873 
L 202.158938 237.318147 
L 202.194823 237.155139 
L 202.248652 236.849198 
L 202.428079 235.693013 
L 202.912532 229.709335 
L 203.002245 224.857706 
L 202.948417 229.719421 
L 203.020188 225.831507 
L 203.074016 62.65037 
L 203.163729 160.747147 
L 203.343156 249.384047 
L 203.576412 252.68215 
L 204.078807 254.009639 
L 204.473547 255.362733 
L 204.617088 255.899112 
L 204.904172 256.703335 
L 205.065656 256.986786 
L 205.280968 257.407386 
L 206.590786 259.138642 
L 206.608728 259.084607 
L 206.662556 259.00119 
L 206.716385 259.045995 
L 207.182895 259.224032 
L 207.326436 259.363823 
L 207.380265 259.357031 
L 207.398207 259.398672 
L 207.595577 259.590441 
L 207.757061 259.574954 
L 207.88266 259.679269 
L 207.900603 259.669574 
L 207.918546 259.629849 
L 207.972374 259.725491 
L 208.08003 259.819505 
L 208.097973 259.758374 
L 208.205629 259.769887 
L 208.438884 259.846561 
L 208.564483 259.832194 
L 208.582426 259.851409 
L 208.708025 259.901273 
L 208.725967 259.819209 
L 208.815681 259.901202 
L 208.959222 259.966349 
L 208.977165 259.929358 
L 209.120707 259.968237 
L 209.264248 260.021652 
L 209.371905 259.951898 
L 209.479561 260.065549 
L 209.497503 259.98829 
L 209.641045 260.040564 
L 209.964014 259.989086 
L 209.981956 260.04477 
L 210.017842 259.950122 
L 210.07167 259.992757 
L 210.161383 259.979187 
L 210.179326 259.928843 
L 210.286982 259.926596 
L 210.412581 260.006504 
L 210.430524 259.962474 
L 210.502295 260.06137 
L 210.520238 260.031587 
L 210.627894 259.961339 
L 210.753493 260.033243 
L 210.968805 260.015706 
L 211.058519 260.108754 
L 211.022633 259.971725 
L 211.076461 260.014698 
L 211.327659 259.903013 
L 211.489143 259.852522 
L 211.507086 259.884031 
L 211.525029 259.811902 
L 211.578857 259.796993 
L 211.614742 259.82982 
L 211.650628 259.714168 
L 212.135081 259.602729 
L 212.224794 259.461057 
L 212.278622 259.490699 
L 212.422164 259.529128 
L 212.745133 258.870248 
L 212.763075 258.900609 
L 212.781018 258.942807 
L 212.852789 258.835787 
L 214.9162 257.439973 
L 215.18534 257.099521 
L 215.203283 257.124322 
L 215.275054 257.090255 
L 215.400653 256.830923 
L 215.436538 256.861298 
L 215.508309 256.764127 
L 215.687736 256.526299 
L 215.705679 256.553728 
L 215.777449 256.453803 
L 215.813335 256.539263 
L 215.956876 256.380391 
L 216.118361 256.137159 
L 216.208074 256.180541 
L 216.226017 256.118501 
L 216.297788 256.056835 
L 216.351616 256.116817 
L 216.369559 256.158917 
L 216.405444 256.048782 
L 216.441329 256.07545 
L 216.548986 255.956959 
L 216.854012 255.859316 
L 216.871954 255.886035 
L 216.889897 255.823713 
L 216.925782 255.814314 
L 217.069324 255.629485 
L 217.141095 255.671105 
L 217.159038 255.592191 
L 217.302579 255.42039 
L 217.320522 255.42924 
L 217.464064 255.355906 
L 217.607605 255.221131 
L 217.733204 255.128118 
L 217.822918 255.030334 
L 217.84086 255.036344 
L 217.858803 255.081044 
L 217.894688 254.983408 
L 217.948517 255.020329 
L 218.289428 254.651813 
L 218.307371 254.665524 
L 218.325313 254.684717 
L 218.343256 254.648867 
L 218.486798 254.462904 
L 218.648282 254.279978 
L 218.809766 254.109255 
L 219.025079 253.892895 
L 219.16862 253.802707 
L 219.330105 253.547341 
L 219.348047 253.592252 
L 219.383933 253.502579 
L 219.437761 253.535561 
L 219.545417 253.406634 
L 219.599245 253.534236 
L 219.760729 253.960776 
L 219.868386 253.838226 
L 219.886328 253.899631 
L 219.976042 253.917774 
L 219.940157 253.797402 
L 219.993985 253.879444 
L 220.047813 254.008878 
L 220.137526 253.906458 
L 220.263125 253.834597 
L 220.281068 253.932599 
L 220.316953 253.778124 
L 220.352839 253.789503 
L 220.657865 253.712442 
L 220.711693 253.559129 
L 220.765521 253.613601 
L 220.783464 253.69618 
L 220.819349 253.527211 
L 220.855234 253.572242 
L 220.944948 253.444964 
L 220.998776 253.503917 
L 221.052604 253.450044 
L 221.106432 253.486443 
L 221.806198 252.837809 
L 221.82414 252.913376 
L 221.842083 252.920211 
L 221.877968 252.823661 
L 222.039453 252.708777 
L 222.129166 252.54121 
L 222.182994 252.483229 
L 222.236822 252.51855 
L 222.254765 252.525019 
L 222.272708 252.469581 
L 222.41625 252.204436 
L 222.434192 252.227553 
L 222.470078 252.29418 
L 222.505963 252.178915 
L 222.541848 252.25363 
L 222.667447 252.04419 
L 222.721275 252.169298 
L 222.775104 251.996898 
L 222.864817 251.942912 
L 222.88276 251.961393 
L 222.900702 252.01211 
L 222.954531 251.884099 
L 223.223671 251.621948 
L 223.313385 251.539835 
L 223.510754 251.276789 
L 223.54664 251.3435 
L 223.618411 251.231068 
L 223.690181 251.095004 
L 223.74401 251.124632 
L 223.833723 251.079496 
L 223.977265 250.917299 
L 223.995207 250.932849 
L 224.102864 250.978725 
L 224.120806 250.909745 
L 224.282291 250.746181 
L 224.300233 250.759526 
L 224.443775 250.790007 
L 224.623202 250.590854 
L 224.8744 250.581391 
L 224.928228 250.457263 
L 224.982056 250.489103 
L 225.107655 250.274329 
L 225.161483 250.298962 
L 225.179426 250.263309 
L 225.34091 250.07037 
L 225.430624 250.120002 
L 225.448566 250.055179 
L 225.574165 249.943572 
L 225.592108 249.931544 
L 225.610051 250.010846 
L 225.627993 250.051628 
L 225.681821 249.940542 
L 226.184217 249.705701 
L 226.238045 249.745363 
L 226.327759 249.637997 
L 226.417472 249.743333 
L 226.453358 249.690912 
L 226.578957 249.487777 
L 226.596899 249.49266 
L 226.704555 249.399675 
L 227.009581 249.175586 
L 227.027524 249.227627 
L 227.045467 249.273384 
L 227.099295 249.161776 
L 227.350493 249.010556 
L 227.368436 249.041474 
L 227.404321 248.902007 
L 227.565805 248.830653 
L 227.655519 248.707786 
L 227.888774 248.484155 
L 227.906717 248.535759 
L 227.942602 248.353572 
L 227.978487 248.430204 
L 228.104086 248.25655 
L 228.139972 248.37781 
L 228.1938 248.237765 
L 228.39117 248.059912 
L 228.427055 248.108339 
L 228.444998 248.156075 
L 228.480883 247.992518 
L 228.516768 248.064055 
L 228.570597 248.00005 
L 228.624425 248.030326 
L 228.696196 247.919726 
L 228.732081 247.998943 
L 228.750024 247.898433 
L 228.785909 247.916471 
L 228.983279 247.555944 
L 229.144763 247.427349 
L 229.162706 247.535857 
L 229.252419 247.448325 
L 229.378018 247.281724 
L 229.413904 247.373723 
L 229.449789 247.264306 
L 229.485674 247.341628 
L 229.629216 247.017149 
L 229.647159 247.075983 
L 229.700987 247.164212 
L 229.736872 247.112882 
L 229.880414 246.877287 
L 229.898357 246.88799 
L 229.952185 247.026809 
L 229.98807 246.865168 
L 230.023956 246.920824 
L 230.38281 246.432773 
L 230.436638 246.490839 
L 230.45458 246.463296 
L 230.472523 246.302741 
L 230.562237 246.323364 
L 230.598122 246.377223 
L 230.65195 246.297956 
L 230.903148 246.021763 
L 231.082575 245.914742 
L 231.100518 245.829275 
L 231.136403 245.960921 
L 231.190231 245.895662 
L 231.31583 245.674828 
L 231.5132 245.408485 
L 231.567028 245.40394 
L 231.584971 245.376616 
L 231.656741 245.281989 
L 231.71057 245.302119 
L 231.854111 245.210156 
L 231.872054 245.331515 
L 231.943825 245.153471 
L 232.069424 245.148293 
L 232.123252 245.191118 
L 232.141194 245.15257 
L 232.302679 244.894315 
L 232.392392 244.838885 
L 232.428278 244.947329 
L 232.464163 244.889545 
L 232.571819 244.794629 
L 232.553877 244.918666 
L 232.589762 244.798483 
L 232.607705 244.818768 
L 232.625647 244.785512 
L 232.661533 244.615838 
L 232.751246 244.667661 
L 232.858903 244.586619 
L 233.020387 244.380272 
L 233.181871 244.520683 
L 233.522783 243.927261 
L 233.540725 243.940049 
L 233.666324 244.002814 
L 233.684267 244.040256 
L 233.720152 243.891686 
L 233.738095 243.934497 
L 233.899579 243.655901 
L 233.97135 243.770404 
L 234.025178 243.733321 
L 234.114892 243.622468 
L 234.150777 243.713184 
L 234.186663 243.740818 
L 234.204605 243.642541 
L 234.63523 242.596861 
L 234.653173 242.608677 
L 234.671116 242.67684 
L 234.742886 242.533314 
L 234.8326 242.418888 
L 234.868485 242.47069 
L 235.083798 242.220813 
L 235.227339 241.928773 
L 235.424709 241.62677 
L 235.622079 241.201309 
L 235.640022 241.244225 
L 235.675907 241.098649 
L 235.801506 240.935261 
L 235.819449 241.071227 
L 235.873277 240.837555 
L 235.998876 240.604426 
L 236.016818 240.649549 
L 236.034761 240.692536 
L 236.070646 240.507489 
L 236.232131 240.255561 
L 236.411558 239.847355 
L 236.662756 239.147222 
L 236.752469 238.840688 
L 237.02161 237.649827 
L 237.218979 236.988827 
L 237.559891 235.100964 
L 237.595776 234.991963 
L 237.793146 233.164868 
L 237.811089 233.22881 
L 238.044344 223.962266 
L 238.062286 224.616094 
L 238.116115 66.772474 
L 238.187885 146.523789 
L 238.367312 248.985149 
L 238.546739 253.359581 
L 238.61851 253.677592 
L 238.779995 254.265759 
L 239.228562 255.833035 
L 239.246505 255.820099 
L 239.264447 255.91195 
L 239.47976 256.359296 
L 239.713015 256.951563 
L 239.874499 257.353104 
L 239.964213 257.446068 
L 240.125697 257.823124 
L 240.14364 257.790839 
L 240.161583 257.77338 
L 240.179525 257.908499 
L 240.233353 258.010729 
L 240.269239 257.983778 
L 240.61015 258.451501 
L 240.628093 258.432055 
L 240.663978 258.543592 
L 240.789577 258.751714 
L 241.417572 259.390548 
L 241.507285 259.429618 
L 241.66877 259.556261 
L 241.902025 259.584685 
L 242.081452 259.761284 
L 242.207051 259.722242 
L 242.224993 259.74753 
L 243.086243 259.76127 
L 243.104186 259.708411 
L 243.175957 259.824881 
L 243.26567 259.863873 
L 243.283613 259.851852 
L 243.409212 259.796859 
L 243.480983 259.782239 
L 243.498925 259.845807 
L 243.642467 259.886962 
L 243.678352 259.765025 
L 243.714238 259.913159 
L 243.768066 259.806209 
L 243.857779 259.861005 
L 243.893665 259.791307 
L 244.055149 259.74381 
L 244.216633 259.757352 
L 244.288404 259.884877 
L 244.342232 259.78889 
L 244.449889 259.859765 
L 244.467831 259.826311 
L 244.575488 259.78989 
L 244.539602 259.865162 
L 244.59343 259.80709 
L 244.719029 259.79354 
L 244.844628 259.905796 
L 245.024055 259.744444 
L 245.041998 259.773037 
L 245.149654 259.81551 
L 245.25731 259.85267 
L 245.400852 259.764405 
L 245.418795 259.707235 
L 245.490565 259.809358 
L 245.508508 259.768154 
L 245.616164 259.822541 
L 245.634107 259.783465 
L 245.65205 259.696588 
L 245.705878 259.808971 
L 245.759706 259.721179 
L 246.082675 259.528987 
L 246.172388 259.518932 
L 246.190331 259.479954 
L 246.369758 259.41578 
L 246.441529 259.437009 
L 246.459471 259.358461 
L 246.638898 258.887335 
L 246.854211 258.904801 
L 247.123351 258.818559 
L 247.24895 258.645257 
L 247.266893 258.687308 
L 247.356606 258.682044 
L 247.374549 258.649915 
L 247.518091 258.534277 
L 247.751346 258.51197 
L 247.823117 258.552026 
L 247.841059 258.473731 
L 247.859002 258.444174 
L 247.91283 258.540597 
L 248.038429 258.478445 
L 248.146085 258.324851 
L 248.164028 258.352541 
L 248.181971 258.444935 
L 248.217856 258.300049 
L 248.271684 258.33728 
L 248.325512 258.40528 
L 248.469054 258.304269 
L 248.558768 258.233514 
L 248.630538 258.245239 
L 248.648481 258.265686 
L 248.666424 258.300507 
L 248.756137 258.253546 
L 249.097049 257.960837 
L 249.114991 257.978508 
L 249.24059 258.066497 
L 249.43796 257.861418 
L 249.455903 257.90256 
L 249.473845 257.828155 
L 249.509731 257.844452 
L 249.617387 257.719069 
L 249.63533 257.726306 
L 249.778871 257.698911 
L 249.796814 257.735275 
L 249.832699 257.666394 
L 249.850642 257.681346 
L 249.976241 257.580406 
L 250.065955 257.571957 
L 250.012126 257.623033 
L 250.083897 257.595012 
L 250.10184 257.624316 
L 250.119783 257.54302 
L 250.155668 257.545641 
L 250.245382 257.449894 
L 250.281267 257.466445 
L 250.622178 257.283377 
L 250.676006 257.309031 
L 250.729835 257.26176 
L 250.909262 257.037615 
L 250.945147 257.084231 
L 251.860225 256.662187 
L 252.003767 256.549078 
L 252.111423 256.592389 
L 252.075537 256.494352 
L 252.147308 256.559147 
L 252.362621 256.414071 
L 252.524105 256.406884 
L 252.649704 256.300892 
L 252.667647 256.322904 
L 252.721475 256.224648 
L 252.793245 256.159537 
L 252.847074 256.207209 
L 253.008558 256.094263 
L 253.116214 256.173199 
L 253.259756 255.948448 
L 253.277698 255.993619 
L 253.349469 255.90644 
L 253.493011 255.825841 
L 253.654495 255.696196 
L 253.672438 255.727156 
L 253.780094 255.71293 
L 253.995407 255.620361 
L 254.156891 255.51167 
L 254.318375 255.409617 
L 254.390146 255.425231 
L 254.354261 255.390417 
L 254.426031 255.379185 
L 254.587516 255.210985 
L 254.731057 255.111687 
L 254.766943 254.986621 
L 254.874599 255.034822 
L 254.964312 255.037387 
L 254.982255 254.998268 
L 255.197568 254.819597 
L 255.233453 254.846069 
L 255.251396 254.788158 
L 255.376995 254.64335 
L 255.466708 254.696033 
L 255.484651 254.626532 
L 255.592307 254.477665 
L 255.538479 254.642096 
L 255.61025 254.549456 
L 255.646135 254.595966 
L 255.664078 254.513078 
L 255.699963 254.53733 
L 255.861448 254.321964 
L 255.933218 254.29197 
L 255.951161 254.251667 
L 256.07676 254.175817 
L 256.561213 253.648211 
L 256.597098 253.688084 
L 256.668869 253.631646 
L 256.812411 253.478284 
L 256.830354 253.52249 
L 256.93801 253.474536 
L 257.081551 253.303961 
L 257.117437 253.371411 
L 257.171265 253.244528 
L 257.512176 253.042268 
L 257.530119 253.129391 
L 257.60189 253.011449 
L 257.619832 253.031262 
L 257.835145 252.823893 
L 257.942801 252.767871 
L 258.086343 252.620033 
L 258.158114 252.610084 
L 258.301655 252.392752 
L 258.409311 252.347588 
L 258.481082 252.469687 
L 258.53491 252.407274 
L 258.750223 252.342973 
L 258.768165 252.386503 
L 258.804051 252.27276 
L 258.821994 252.284964 
L 259.001421 252.043182 
L 259.055249 252.119687 
L 259.109077 252.05435 
L 259.180848 252.019057 
L 259.216733 252.077785 
L 259.252618 251.98988 
L 259.306447 252.019896 
L 259.378217 252.130735 
L 259.414103 251.996771 
L 259.665301 251.902243 
L 259.737071 251.840119 
L 259.772957 251.870388 
L 259.7909 251.927368 
L 259.826785 251.785308 
L 259.844728 251.815937 
L 259.952384 251.696283 
L 259.988269 251.742955 
L 260.113868 251.664816 
L 260.383009 251.540237 
L 260.418894 251.473787 
L 260.490665 251.546057 
L 260.52655 251.476696 
L 260.670092 251.28096 
L 260.813634 251.175793 
L 260.993061 250.997488 
L 261.082774 250.80858 
L 261.11866 250.939254 
L 262.033737 250.132227 
L 262.05168 250.181943 
L 262.069623 250.061803 
L 262.105508 250.107615 
L 262.24905 249.686762 
L 262.266993 249.690651 
L 262.410534 249.858485 
L 262.428477 249.782699 
L 262.554076 249.558991 
L 262.589961 249.593896 
L 262.661732 249.400373 
L 262.733503 249.458938 
L 262.769388 249.474066 
L 262.823216 249.404347 
L 263.020586 249.310678 
L 263.038529 249.359161 
L 263.092357 249.232933 
L 263.164128 249.142661 
L 263.200013 249.22259 
L 263.307669 249.24985 
L 263.469154 249.084687 
L 263.702409 248.999529 
L 263.720351 248.938554 
L 263.792122 249.015164 
L 263.828008 249.029665 
L 263.84595 248.9845 
L 263.881836 248.899992 
L 263.917721 249.039867 
L 263.953607 248.928154 
L 263.971549 248.942098 
L 264.025377 248.849078 
L 264.133034 248.76824 
L 264.150976 248.786214 
L 264.186862 248.838734 
L 264.24069 248.710223 
L 264.384231 248.441414 
L 264.43806 248.493864 
L 264.50983 248.571045 
L 264.473945 248.426871 
L 264.527773 248.484176 
L 264.653372 248.358561 
L 264.778971 248.313248 
L 265.10194 247.903379 
L 265.119882 247.981026 
L 265.155768 247.885095 
L 265.945247 247.205395 
L 265.963189 247.257084 
L 265.981132 247.292511 
L 266.017017 247.122021 
L 266.03496 247.089863 
L 266.088788 247.196715 
L 266.106731 247.248819 
L 266.142616 247.125396 
L 266.196444 247.171392 
L 266.357929 246.895733 
L 266.4297 246.951396 
L 266.447642 246.902328 
L 266.591184 246.685673 
L 266.609127 246.69372 
L 266.662955 246.615348 
L 266.770611 246.385312 
L 266.824439 246.451177 
L 267.344777 245.921422 
L 267.434491 245.878632 
L 267.470376 245.90745 
L 267.506262 246.014484 
L 267.542147 245.834278 
L 267.613918 245.60358 
L 267.667746 245.658637 
L 267.703631 245.772598 
L 267.775402 245.756991 
L 267.901001 245.694648 
L 267.936887 245.725164 
L 267.972772 245.641142 
L 268.008657 245.676209 
L 268.49311 245.114479 
L 268.511053 245.14627 
L 268.600767 245.258829 
L 268.618709 245.195317 
L 268.762251 244.955791 
L 268.941678 244.834579 
L 269.139048 244.594757 
L 269.372303 244.249055 
L 269.408188 244.286948 
L 269.444074 244.359691 
L 269.479959 244.261816 
L 270.036183 243.160564 
L 270.125896 243.329927 
L 270.143839 243.262202 
L 270.287381 242.931896 
L 270.305323 242.948714 
L 270.341209 242.853122 
L 270.574464 242.34027 
L 270.592407 242.358941 
L 270.933318 241.714246 
L 271.381886 240.262487 
L 271.417771 240.077165 
L 271.704854 239.192527 
L 271.722797 239.245217 
L 271.758682 239.016421 
L 272.153422 237.71942 
L 272.835245 232.439567 
L 273.0685 224.447104 
L 273.086442 214.627894 
L 273.122328 66.144315 
L 273.194099 136.379819 
L 273.409411 249.738739 
L 273.768265 253.16264 
L 273.822093 253.32073 
L 274.055348 254.289391 
L 274.342432 255.393763 
L 274.360374 255.385682 
L 274.378317 255.439541 
L 274.629515 256.121348 
L 275.149853 257.30827 
L 275.436936 258.056753 
L 275.939332 258.664697 
L 276.011103 258.735403 
L 276.316129 258.978354 
L 276.334072 258.956314 
L 276.513499 258.925812 
L 276.800582 259.163437 
L 276.85441 259.092068 
L 276.872353 259.145427 
L 276.997952 259.245085 
L 277.033837 259.221164 
L 277.087665 259.295498 
L 277.141493 259.281886 
L 277.159436 259.339218 
L 277.195321 259.287086 
L 277.267092 259.409762 
L 277.374748 259.344214 
L 277.51829 259.436058 
L 277.554175 259.358116 
L 277.608003 259.451749 
L 277.733602 259.487035 
L 277.913029 259.511555 
L 278.110399 259.719946 
L 278.146285 259.634211 
L 278.200113 259.77899 
L 278.37954 259.801657 
L 278.523081 259.944873 
L 278.576909 259.852184 
L 278.953706 259.906141 
L 278.989592 259.864563 
L 279.04342 259.963256 
L 279.294618 260.035582 
L 279.31256 259.94686 
L 279.456102 260.013676 
L 279.599643 260.104266 
L 279.814956 259.93448 
L 279.832899 259.974466 
L 279.850841 260.036886 
L 279.904669 259.945817 
L 279.940555 259.981103 
L 279.958498 259.890027 
L 280.048211 259.964552 
L 280.227638 259.836746 
L 280.299409 259.853558 
L 280.317352 259.813297 
L 280.37118 259.721876 
L 280.442951 259.748482 
L 280.694148 259.759466 
L 280.819747 259.73928 
L 280.855633 259.622747 
L 280.891518 259.762461 
L 280.909461 259.749616 
L 280.927403 259.781858 
L 280.945346 259.695447 
L 281.017117 259.731092 
L 281.160659 259.682673 
L 281.178601 259.725991 
L 281.214487 259.570191 
L 281.250372 259.638981 
L 281.591283 259.438545 
L 281.609226 259.383615 
L 281.680997 259.454744 
L 281.734825 259.500944 
L 281.752768 259.47629 
L 281.896309 259.098135 
L 281.914252 259.109063 
L 281.96808 259.026069 
L 282.093679 258.846172 
L 282.003966 259.047362 
L 282.129565 258.870685 
L 284.013548 257.800062 
L 284.031491 257.842077 
L 284.049434 257.898487 
L 284.085319 257.786668 
L 284.139147 257.81512 
L 284.264746 257.701018 
L 284.282689 257.744273 
L 284.300632 257.746964 
L 284.426231 257.604594 
L 284.838913 257.204857 
L 285.01834 257.061599 
L 285.161881 257.031302 
L 285.269538 256.869133 
L 285.28748 256.921568 
L 285.305423 256.95541 
L 285.341308 256.832606 
L 285.359251 256.868435 
L 285.664277 256.642465 
L 285.700162 256.700411 
L 285.736048 256.78115 
L 285.807819 256.689687 
L 286.076959 256.43301 
L 286.112845 256.50168 
L 286.184615 256.4135 
L 286.292272 256.348671 
L 286.453756 256.152921 
L 286.471699 256.165963 
L 286.543469 256.282009 
L 286.579355 256.185452 
L 287.368834 255.791189 
L 287.386777 255.885246 
L 287.458547 255.734188 
L 287.47649 255.765035 
L 287.620032 255.68741 
L 287.763573 255.423469 
L 287.781516 255.459199 
L 287.978886 255.222371 
L 287.996828 255.238133 
L 288.014771 255.279845 
L 288.050657 255.213261 
L 288.086542 255.238992 
L 288.283912 254.782395 
L 288.319797 254.855102 
L 288.373625 254.710794 
L 288.409511 254.74818 
L 288.535109 254.502946 
L 288.553052 254.564823 
L 288.624823 254.526494 
L 288.750422 254.385533 
L 288.786307 254.42382 
L 288.80425 254.296169 
L 288.840135 254.36839 
L 288.929849 254.310014 
L 288.893964 254.397616 
L 288.947792 254.336796 
L 288.983677 254.295472 
L 289.055448 254.305604 
L 289.127219 254.116406 
L 289.19899 254.13407 
L 289.288703 254.067226 
L 289.432245 253.914674 
L 289.450187 253.948135 
L 289.844927 253.420409 
L 289.86287 253.437354 
L 290.078182 253.632315 
L 290.096125 253.593422 
L 290.239666 253.50317 
L 291.2624 252.905295 
L 291.352114 252.883523 
L 291.370057 252.920718 
L 291.908338 252.572917 
L 292.033937 252.459379 
L 292.051879 252.50262 
L 292.087765 252.405583 
L 292.195421 252.249163 
L 292.231306 252.257689 
L 292.482504 251.819037 
L 292.715759 251.680141 
L 292.841358 251.39261 
L 292.877244 251.422006 
L 292.9849 251.359072 
L 293.002843 251.395196 
L 293.128441 251.469615 
L 293.164327 251.40778 
L 293.433467 251.074973 
L 293.523181 251.07846 
L 293.469353 251.012877 
L 293.541124 251.051221 
L 293.630837 250.811701 
L 293.684665 250.848263 
L 293.702608 250.909943 
L 293.756436 250.812328 
L 293.91792 250.532119 
L 294.31266 250.185311 
L 294.366488 250.088979 
L 294.438259 250.119664 
L 294.886826 249.975286 
L 295.030368 249.82105 
L 295.048311 249.838778 
L 295.209795 249.729819 
L 295.353337 249.477413 
L 295.371279 249.552311 
L 295.44305 249.418488 
L 295.855732 248.875627 
L 295.891618 248.93167 
L 295.945446 248.831583 
L 296.071045 248.735279 
L 296.10693 248.705101 
L 296.160758 248.758742 
L 296.178701 248.794606 
L 296.214586 248.67004 
L 296.232529 248.665066 
L 296.394013 248.535794 
L 296.555498 248.41199 
L 296.681097 248.342341 
L 296.716982 248.43961 
L 296.77081 248.29915 
L 296.788753 248.327136 
L 296.806696 248.361097 
L 296.842581 248.225949 
L 296.878466 248.273432 
L 297.039951 248.062526 
L 297.075836 248.154229 
L 297.129664 248.002107 
L 297.16555 248.031862 
L 297.219378 247.944408 
L 297.380862 247.713287 
L 297.398805 247.721017 
L 297.596174 247.618992 
L 297.721773 247.413109 
L 297.739716 247.465214 
L 298.547138 246.677944 
L 298.56508 246.568753 
L 298.654794 246.666283 
L 298.905992 246.402814 
L 298.923934 246.492114 
L 298.95982 246.354458 
L 299.013648 246.415194 
L 299.318674 246.116115 
L 299.354559 246.164027 
L 299.372502 246.110056 
L 299.533986 245.816888 
L 299.910783 245.238361 
L 300.48495 244.496065 
L 300.502892 244.520162 
L 300.682319 244.418792 
L 300.807918 244.110532 
L 300.969403 243.618515 
L 300.987345 243.69621 
L 301.005288 243.710168 
L 301.041173 243.601062 
L 301.256486 243.120177 
L 301.274429 243.13801 
L 301.292371 243.04766 
L 301.400027 242.969549 
L 301.41797 243.043461 
L 301.471798 242.884314 
L 301.597397 242.627835 
L 301.633283 242.708871 
L 301.651225 242.769022 
L 301.687111 242.587504 
L 301.705053 242.605098 
L 301.758881 242.522865 
L 301.81271 242.604992 
L 301.830652 242.671252 
L 301.866538 242.581537 
L 301.88448 242.589062 
L 302.063907 242.067014 
L 302.08185 242.094916 
L 302.099793 242.137805 
L 302.117736 242.024309 
L 302.153621 242.05505 
L 302.584246 241.295992 
L 302.656017 241.005629 
L 303.032813 240.26799 
L 303.194298 239.592764 
L 303.21224 239.641395 
L 303.248126 239.537848 
L 303.427553 239.056498 
L 303.481381 239.158798 
L 303.499324 239.072387 
L 303.660808 238.562839 
L 303.965834 237.696513 
L 303.983777 237.782819 
L 304.019662 237.541277 
L 304.109376 236.976031 
L 304.288803 236.100521 
L 304.414402 234.987165 
L 304.862969 229.714443 
L 304.880912 230.768624 
L 304.970625 214.214848 
L 305.006511 66.979195 
L 305.078282 136.018003 
L 305.293594 249.221857 
L 305.562734 252.691042 
L 305.813932 253.449318 
L 305.831875 253.422459 
L 306.047187 254.467195 
L 306.423984 255.806261 
L 306.45987 255.884231 
L 306.639297 256.616522 
L 306.657239 256.556448 
L 306.711067 256.730088 
L 306.92638 257.333558 
L 306.998151 257.428622 
L 307.715859 258.872947 
L 307.733802 258.851471 
L 307.805572 259.021884 
L 307.931171 259.145998 
L 307.949114 259.139114 
L 308.002942 259.244169 
L 308.128541 259.422685 
L 308.164426 259.379528 
L 308.792421 259.8759 
L 308.882135 259.812226 
L 308.900077 259.858102 
L 308.971848 260.035688 
L 309.025676 259.979997 
L 309.223046 260.016671 
L 309.348645 260.107648 
L 309.420416 260.097093 
L 309.546015 260.229888 
L 309.563957 260.188768 
L 309.599843 260.270501 
L 309.617785 260.273382 
L 309.689556 260.431493 
L 309.743384 260.349373 
L 309.761327 260.282098 
L 309.815155 260.420262 
L 309.833098 260.419212 
L 310.066353 260.519046 
L 310.191952 260.489411 
L 310.263723 260.527635 
L 310.317551 260.502065 
L 310.389322 260.463334 
L 310.425207 260.534505 
L 310.51492 260.514995 
L 310.532863 260.480117 
L 310.568749 260.528163 
L 310.658462 260.426498 
L 310.71229 260.386505 
L 310.802004 260.51856 
L 310.819946 260.425039 
L 310.90966 260.485944 
L 311.017316 260.42902 
L 311.035259 260.507949 
L 311.071144 260.439159 
L 311.142915 260.541995 
L 311.214686 260.413491 
L 311.268514 260.462749 
L 311.322342 260.405296 
L 311.394113 260.513536 
L 311.555597 260.410109 
L 311.609425 260.488093 
L 311.663253 260.450968 
L 311.77091 260.38003 
L 311.788852 260.454273 
L 311.824738 260.351374 
L 311.860623 260.359406 
L 311.986222 260.361118 
L 312.004165 260.420304 
L 312.04005 260.219354 
L 312.057993 260.281513 
L 312.111821 260.369841 
L 312.255363 260.22311 
L 312.470675 260.325015 
L 312.488618 260.215098 
L 312.560389 260.17283 
L 312.524503 260.259558 
L 312.596274 260.215592 
L 312.70393 260.245734 
L 312.865415 260.035371 
L 313.008956 260.09345 
L 313.026899 260.023188 
L 313.116612 259.871024 
L 313.17044 259.916893 
L 313.188383 259.992602 
L 313.224269 259.855798 
L 313.260154 259.870341 
L 313.493409 259.804842 
L 313.511352 259.737906 
L 313.601065 259.768281 
L 313.76255 259.654482 
L 313.834321 259.691487 
L 313.906091 259.524717 
L 313.959919 259.610508 
L 314.013748 259.571051 
L 314.22906 259.40352 
L 314.247003 259.493031 
L 314.318773 259.383382 
L 314.336716 259.409044 
L 314.390544 259.477805 
L 314.444372 259.387342 
L 314.605857 259.247509 
L 314.659685 259.267815 
L 314.677628 259.224025 
L 314.821169 259.070275 
L 314.874997 259.136141 
L 314.928825 259.096606 
L 315.126195 258.985527 
L 315.197966 258.889653 
L 316.507783 258.047981 
L 316.525726 258.091447 
L 316.543669 258.104989 
L 316.561611 258.007939 
L 316.597497 257.938219 
L 316.669268 257.981009 
L 316.956351 257.822948 
L 317.064007 257.746732 
L 316.992236 257.834228 
L 317.08195 257.752002 
L 317.781715 257.099112 
L 317.799658 257.138414 
L 317.835543 257.060867 
L 317.853486 257.07028 
L 317.925257 257.016061 
L 317.943199 257.117995 
L 317.961142 257.064101 
L 319.07359 256.302611 
L 319.091532 256.335079 
L 319.199189 256.170782 
L 319.217131 256.199149 
L 319.235074 256.234167 
L 319.270959 256.12814 
L 319.414501 255.979605 
L 319.432444 256.011967 
L 319.504215 255.914218 
L 319.665699 255.751006 
L 319.683642 255.769291 
L 319.773355 255.853151 
L 319.809241 255.772969 
L 319.934839 255.589767 
L 319.970725 255.63441 
L 320.042496 255.564247 
L 320.078381 255.63031 
L 320.20398 255.457515 
L 320.311636 255.45798 
L 320.903745 255.060019 
L 320.921688 255.083728 
L 321.06523 254.998564 
L 321.262599 254.809 
L 321.33437 254.894848 
L 321.388198 254.880171 
L 321.495855 254.746728 
L 321.513797 254.783001 
L 321.53174 254.819943 
L 321.585568 254.683357 
L 321.800881 254.67746 
L 321.962365 254.471091 
L 321.980308 254.494449 
L 322.016193 254.401069 
L 322.052078 254.430225 
L 322.321219 254.216895 
L 322.464761 254.052507 
L 322.590359 254.080444 
L 322.698016 253.863077 
L 322.751844 253.881002 
L 322.823615 253.870179 
L 322.841557 253.821985 
L 323.074812 253.58832 
L 323.092755 253.62856 
L 323.146583 253.551731 
L 323.182469 253.474388 
L 323.254239 253.586531 
L 323.648979 253.233861 
L 323.666922 253.276334 
L 323.738692 253.181192 
L 323.810463 253.141925 
L 323.828406 253.036821 
L 323.91812 253.081746 
L 323.971948 253.100664 
L 323.98989 253.036863 
L 324.169317 252.841409 
L 324.18726 252.863991 
L 324.348744 252.786782 
L 324.456401 252.696171 
L 324.492286 252.848864 
L 324.546114 252.661491 
L 324.65377 252.33072 
L 324.797312 252.089967 
L 324.815255 252.123295 
L 324.869083 251.996771 
L 324.958796 251.972251 
L 325.120281 251.773584 
L 325.371478 251.59454 
L 325.497077 251.548037 
L 325.658562 251.408893 
L 325.694447 251.44146 
L 325.748275 251.364004 
L 325.90976 251.230624 
L 326.125072 251.230427 
L 326.232728 251.145657 
L 326.250671 251.192083 
L 326.268614 251.222423 
L 326.322442 251.127718 
L 326.537754 250.832001 
L 326.663353 250.796996 
L 326.896608 250.63501 
L 327.004264 250.676645 
L 327.111921 250.645326 
L 327.129863 250.704025 
L 327.165749 250.495402 
L 327.183691 250.462012 
L 327.219577 250.568018 
L 327.255462 250.524587 
L 327.273405 250.557104 
L 327.327233 250.449343 
L 327.668144 250.186072 
L 327.70403 250.257278 
L 327.775801 250.226945 
L 327.9014 250.156451 
L 327.919342 250.169359 
L 328.080827 250.023466 
L 328.098769 250.080185 
L 328.134655 249.949512 
L 328.152597 250.013644 
L 328.296139 249.830034 
L 328.349967 249.678553 
L 328.475566 249.508401 
L 328.493509 249.517511 
L 328.56528 249.513411 
L 328.583222 249.460841 
L 328.690878 249.292323 
L 328.708821 249.363424 
L 329.049733 248.970733 
L 329.067675 249.013558 
L 329.103561 248.937187 
L 329.139446 248.964878 
L 329.372701 248.639947 
L 329.516243 248.412674 
L 329.570071 248.466018 
L 329.767441 248.292639 
L 329.839211 248.160521 
L 329.875097 248.279851 
L 330.269836 247.684568 
L 330.377493 247.708898 
L 330.395435 247.660175 
L 330.646633 247.446394 
L 330.808117 247.520757 
L 331.02343 247.056747 
L 331.041373 247.066062 
L 331.077258 247.10411 
L 331.29257 246.838542 
L 331.364341 246.780025 
L 331.579654 246.549489 
L 331.651424 246.645236 
L 331.669367 246.561918 
L 331.794966 246.474387 
L 332.010278 246.33647 
L 332.028221 246.402272 
L 332.046164 246.431787 
L 332.064107 246.326915 
L 332.207648 246.153381 
L 332.225591 246.19231 
L 332.494731 245.940108 
L 332.62033 245.784491 
L 332.674158 245.821017 
L 332.692101 245.767214 
L 332.853586 245.521234 
L 332.997127 245.320756 
L 333.033013 245.143685 
L 333.122726 245.215807 
L 333.427752 244.89533 
L 333.499523 244.766995 
L 333.535408 244.819987 
L 333.607179 244.813519 
L 333.750721 244.429798 
L 333.768663 244.449625 
L 333.804549 244.551192 
L 333.858377 244.374656 
L 333.87632 244.314949 
L 333.930148 244.452937 
L 333.94809 244.464534 
L 333.983976 244.355738 
L 334.001919 244.373945 
L 334.199288 243.906369 
L 334.253116 244.064212 
L 334.306944 243.937245 
L 334.486371 243.563528 
L 334.558142 243.472579 
L 334.791397 243.0302 
L 335.347621 242.219059 
L 335.365564 242.232333 
L 335.383507 242.32906 
L 335.455277 242.164171 
L 335.527048 242.095402 
L 335.706475 241.774953 
L 335.724418 241.789693 
L 335.760303 241.690134 
L 336.029444 241.051639 
L 336.047387 241.088574 
L 336.065329 241.139629 
L 336.083272 240.955406 
L 336.101215 240.984956 
L 336.226814 240.598261 
L 336.495954 239.970708 
L 336.513897 240.011039 
L 336.549782 239.819946 
L 336.585668 239.799591 
L 336.711267 239.407935 
L 336.729209 239.456869 
L 336.747152 239.536453 
L 336.818923 239.384233 
L 336.944522 239.101677 
L 336.99835 239.083837 
L 337.034235 239.168219 
L 337.177777 238.85094 
L 337.213662 238.848918 
L 337.375147 238.32253 
L 337.393089 238.347727 
L 337.66223 237.187099 
L 338.039027 235.002589 
L 338.487594 228.441112 
L 338.505537 229.323415 
L 338.59525 210.177401 
L 338.631136 65.938503 
L 338.702907 135.706717 
L 338.918219 250.021739 
L 339.384729 253.879719 
L 339.402672 253.83867 
L 339.420615 253.919317 
L 339.761526 255.496796 
L 340.640719 257.770505 
L 340.658661 257.708578 
L 340.712489 257.903412 
L 340.891916 258.384262 
L 340.963687 258.487858 
L 341.125172 258.748812 
L 341.376369 259.108373 
L 341.519911 259.365768 
L 341.537854 259.336168 
L 341.591682 259.452383 
L 341.824937 259.73143 
L 341.84288 259.682391 
L 341.896708 259.768767 
L 342.040249 259.864514 
L 342.399103 260.078703 
L 342.50676 260.12162 
L 342.686187 260.227781 
L 342.847671 260.189564 
L 342.991213 260.262553 
L 343.062983 260.379142 
L 343.080926 260.402598 
L 343.116812 260.3064 
L 343.152697 260.329891 
L 343.224468 260.264321 
L 343.296239 260.317102 
L 343.421837 260.490418 
L 343.547436 260.416704 
L 343.690978 260.641793 
L 343.708921 260.629836 
L 343.726863 260.559863 
L 343.816577 260.597044 
L 343.996004 260.869109 
L 344.121603 260.927619 
L 344.372801 261.153328 
L 344.480457 261.122107 
L 344.641941 261.2582 
L 344.785483 261.22507 
L 344.803426 261.281338 
L 344.893139 261.237196 
L 344.911082 261.195075 
L 345.000795 261.263378 
L 345.090509 261.217707 
L 345.126394 261.244143 
L 345.23405 261.356829 
L 345.251993 261.348345 
L 345.449363 261.284263 
L 345.467306 261.317519 
L 345.521134 261.355884 
L 345.539076 261.277118 
L 345.718503 261.205285 
L 346.077358 261.003623 
L 346.113243 261.04785 
L 346.149128 260.987016 
L 346.29267 260.816004 
L 346.364441 260.918057 
L 346.418269 260.87686 
L 346.615639 260.848704 
L 346.741238 260.766393 
L 346.902722 260.72137 
L 346.992435 260.754091 
L 346.95655 260.69232 
L 347.010378 260.729135 
L 347.135977 260.683125 
L 347.15392 260.76032 
L 347.189805 260.582304 
L 347.207748 260.613067 
L 347.387175 260.457443 
L 347.530716 260.433882 
L 347.674258 260.286051 
L 347.728086 260.311254 
L 347.763972 260.240999 
L 348.033112 259.994117 
L 348.051055 260.033525 
L 348.302253 260.021617 
L 348.553451 259.8749 
L 348.643164 259.942801 
L 348.661107 259.929027 
L 348.768763 259.768774 
L 348.840534 259.813783 
L 349.109674 259.58863 
L 349.127617 259.613193 
L 349.594127 259.38618 
L 349.737669 259.265095 
L 349.80944 259.160822 
L 349.845325 259.28166 
L 349.863268 259.303221 
L 349.899153 259.195094 
L 349.935039 259.225088 
L 350.07858 259.089792 
L 350.150351 259.213484 
L 350.204179 259.153932 
L 350.27595 259.18995 
L 350.258007 259.112826 
L 350.293893 259.121718 
L 350.455377 258.905774 
L 350.527148 258.950036 
L 350.545091 258.842783 
L 350.580976 258.857284 
L 350.688632 258.730274 
L 350.724518 258.718613 
L 350.74246 258.656327 
L 350.796288 258.695255 
L 350.957773 258.495165 
L 351.029543 258.451142 
L 351.083372 258.494171 
L 351.1372 258.430265 
L 351.244856 258.474196 
L 351.262799 258.400827 
L 351.388398 258.206796 
L 351.40634 258.282448 
L 351.424283 258.342839 
L 351.460168 258.239679 
L 351.496054 258.23493 
L 351.621653 258.109555 
L 352.482902 257.385557 
L 351.657538 258.153388 
L 352.536731 257.471729 
L 352.680272 257.45539 
L 352.787928 257.346896 
L 352.805871 257.386262 
L 353.039126 257.24907 
L 353.200611 257.116931 
L 353.236496 257.161102 
L 353.254439 257.082047 
L 353.290324 257.088902 
L 353.451808 256.891785 
L 353.59535 256.80047 
L 353.703006 256.847734 
L 353.954204 260.210321 
L 354.941053 268.788612 
L 355.981729 275.407315 
L 356.304698 277.146653 
L 356.968578 280.035746 
L 357.165948 280.820142 
L 357.363318 281.390764 
L 357.470974 281.755567 
L 358.314281 284.618915 
L 358.601364 285.589957 
L 359.139645 287.16602 
L 359.229359 287.372642 
L 359.444671 287.904884 
L 360.503291 290.391218 
L 360.521233 290.356637 
L 360.557119 290.467399 
L 361.023629 291.242205 
L 361.328655 291.778654 
L 361.472197 292.029926 
L 361.490139 292.006189 
L 362.064306 292.90978 
L 362.082248 292.844887 
L 362.136077 293.004886 
L 362.154019 292.992725 
L 362.728186 293.715983 
L 362.746128 293.696973 
L 362.799957 293.751854 
L 362.961441 293.912325 
L 362.979384 293.897007 
L 362.997326 293.890025 
L 363.140868 294.165929 
L 363.248524 294.16273 
L 363.374123 294.426572 
L 363.392066 294.411184 
L 363.410008 294.398311 
L 363.445894 294.496024 
L 363.715034 294.615636 
L 363.858576 294.694247 
L 364.038003 294.794983 
L 365.293992 295.360004 
L 365.437534 295.286529 
L 365.563133 295.270858 
L 365.706674 295.1993 
L 365.74256 295.262523 
L 366.065528 295.346701 
L 366.262898 295.409297 
L 366.370554 295.458759 
L 366.352612 295.372334 
L 366.388497 295.446485 
L 366.514096 295.380465 
L 366.585867 295.488 
L 366.639695 295.422135 
L 366.657638 295.333243 
L 366.693523 295.460817 
L 366.747351 295.443033 
L 366.890893 295.426954 
L 366.980606 295.408874 
L 366.944721 295.366739 
L 366.998549 295.387046 
L 367.447117 295.394402 
L 367.518887 295.345503 
L 367.554773 295.412975 
L 367.7342 295.347095 
L 367.752143 295.401631 
L 369.636126 295.084486 
L 369.672012 295.19775 
L 369.743783 295.135224 
L 369.833496 295.064694 
L 369.851439 294.946506 
L 369.887324 295.11899 
L 369.941152 295.027372 
L 369.977038 295.117828 
L 370.048809 295.027915 
L 370.156465 294.991536 
L 370.264121 294.872143 
L 370.282064 294.907401 
L 370.317949 294.863061 
L 370.443548 294.953996 
L 370.551204 294.81672 
L 370.569147 294.845707 
L 370.65886 294.903596 
L 370.694746 294.867331 
L 370.838287 294.849533 
L 370.874173 294.813472 
L 370.928001 294.879105 
L 370.963886 294.921838 
L 370.981829 294.836681 
L 371.0536 294.76377 
L 371.107428 294.788945 
L 371.304798 294.776185 
L 371.394511 294.647188 
L 371.430397 294.700532 
L 371.502167 294.691394 
L 371.484225 294.622485 
L 371.52011 294.666888 
L 371.663652 294.501217 
L 371.681594 294.528379 
L 371.825136 294.471321 
L 371.878964 294.442278 
L 371.950735 294.479191 
L 371.98662 294.409239 
L 372.058391 294.453812 
L 372.273704 294.435746 
L 372.309589 294.366097 
L 372.327532 294.451078 
L 372.38136 294.385438 
L 372.453131 294.403469 
L 372.471073 294.375433 
L 372.614615 294.317205 
L 372.776099 294.27338 
L 372.901698 294.156001 
L 373.04524 294.114409 
L 373.170839 294.016633 
L 373.188782 294.024785 
L 373.278495 294.099641 
L 373.296438 294.021826 
L 373.404094 293.921055 
L 373.439979 293.9858 
L 373.493807 293.973392 
L 373.51175 293.929665 
L 373.529693 293.882697 
L 373.565578 294.007981 
L 373.619406 293.957377 
L 373.637349 293.977986 
L 373.673234 293.887784 
L 373.691177 293.885966 
L 373.834719 293.838927 
L 373.870604 293.905624 
L 373.924432 293.835926 
L 374.067974 293.750656 
L 374.319172 293.60136 
L 374.337114 293.641536 
L 374.498599 293.52854 
L 374.785682 293.376975 
L 374.803625 293.458109 
L 374.893338 293.435548 
L 375.108651 293.274767 
L 375.144536 293.317338 
L 375.180422 293.243884 
L 375.216307 293.264606 
L 375.593104 293.120757 
L 375.628989 293.146369 
L 375.664875 293.096216 
L 375.826359 292.952302 
L 375.987843 292.963054 
L 376.185213 292.793734 
L 376.292869 292.869456 
L 376.310812 292.850968 
L 376.508182 292.737324 
L 376.56201 292.68171 
L 376.63378 292.737775 
L 376.813207 292.619213 
L 376.849093 292.693216 
L 376.920864 292.640795 
L 377.136176 292.53586 
L 377.154119 292.451921 
L 377.243832 292.499749 
L 377.315603 292.426619 
L 377.351489 292.442846 
L 377.423259 292.349953 
L 377.459145 292.423554 
L 377.512973 292.294783 
L 377.584744 292.322861 
L 377.602686 292.237542 
L 378.140967 292.081136 
L 378.284509 292.117127 
L 378.535707 291.97265 
L 378.571592 291.985509 
L 378.607478 291.943304 
L 378.715134 291.899795 
L 378.733077 291.917177 
L 378.751019 291.930684 
L 378.786905 291.830512 
L 379.145759 291.633297 
L 379.271358 291.584806 
L 379.307243 291.624165 
L 379.343129 291.531173 
L 379.379014 291.558652 
L 379.630212 291.482429 
L 379.666097 291.529855 
L 379.68404 291.44214 
L 379.737868 291.468936 
L 379.827582 291.474284 
L 379.845524 291.427633 
L 379.95318 291.359315 
L 379.989066 291.449525 
L 380.042894 291.361845 
L 380.15055 291.322035 
L 380.168493 291.332731 
L 380.204378 291.271516 
L 380.240264 291.296522 
L 380.401748 291.180736 
L 380.563232 291.181483 
L 380.670889 291.062668 
L 380.688831 291.114927 
L 380.760602 291.172345 
L 380.778545 291.099419 
L 380.81443 291.12718 
L 380.975915 291.003242 
L 381.585966 290.82801 
L 381.747451 290.835035 
L 381.908935 290.68094 
L 381.94482 290.746347 
L 381.998649 290.652496 
L 382.626643 290.430901 
L 382.734299 290.403084 
L 382.859898 290.314037 
L 382.985497 290.357264 
L 383.164924 290.274573 
L 383.20081 290.232396 
L 383.272581 290.284486 
L 383.416122 290.126686 
L 383.434065 290.150276 
L 383.631435 290.104857 
L 383.66732 290.044495 
L 383.757033 290.09982 
L 383.792919 290.121718 
L 383.828804 290.039795 
L 383.86469 290.075751 
L 383.972346 290.047194 
L 384.115888 290.008258 
L 384.205601 290.036477 
L 384.169716 289.919521 
L 384.223544 290.017798 
L 384.385028 289.897756 
L 384.420913 289.920106 
L 384.438856 289.85243 
L 384.456799 289.855791 
L 384.582398 289.83101 
L 384.923309 289.57692 
L 384.941252 289.590272 
L 384.977137 289.508278 
L 385.138622 289.399905 
L 385.264221 289.434916 
L 385.318049 289.349266 
L 385.371877 289.391767 
L 385.46159 289.413602 
L 385.479533 289.382262 
L 385.569246 289.334645 
L 385.587189 289.40848 
L 385.605132 289.445689 
L 385.641017 289.332849 
L 385.676903 289.343107 
L 386.286955 289.236016 
L 386.358725 289.136274 
L 386.430496 289.194657 
L 387.004663 289.069782 
L 387.094376 289.079357 
L 387.112319 289.062165 
L 387.219975 289.083472 
L 387.273803 289.028084 
L 387.327631 289.070817 
L 387.489116 288.99229 
L 387.596772 289.040139 
L 387.668543 288.934112 
L 387.704428 289.026759 
L 387.776199 289.034982 
L 387.794142 288.968968 
L 387.973569 288.896423 
L 388.063282 288.87952 
L 388.027397 288.960478 
L 388.081225 288.893577 
L 388.099168 288.912974 
L 388.135053 288.817051 
L 388.170938 288.829226 
L 388.224766 288.882395 
L 388.332423 288.763136 
L 388.475964 288.78874 
L 388.619506 288.831587 
L 388.691277 288.875751 
L 388.655391 288.769618 
L 388.727162 288.822653 
L 388.78099 288.866119 
L 388.852761 288.773127 
L 388.97836 288.781561 
L 389.014245 288.712193 
L 389.086016 288.767497 
L 389.319271 288.695375 
L 389.337214 288.626374 
L 389.426928 288.711496 
L 389.534584 288.592342 
L 389.462813 288.745817 
L 389.588412 288.642333 
L 389.64224 288.608097 
L 389.714011 288.652543 
L 389.893438 288.5476 
L 390.072865 288.610873 
L 390.090808 288.577517 
L 390.162578 288.532438 
L 390.198464 288.588777 
L 390.647031 288.41749 
L 390.808516 288.273866 
L 390.898229 288.329071 
L 390.916172 288.282328 
L 390.987943 288.226602 
L 390.952057 288.302317 
L 391.041771 288.269681 
L 391.185312 288.223079 
L 391.203255 288.255941 
L 391.257083 288.264601 
L 391.275026 288.169565 
L 391.364739 288.213363 
L 391.400625 288.084204 
L 391.580052 288.211058 
L 391.741536 288.033423 
L 391.759479 288.07987 
L 391.867135 288.069076 
L 392.943697 287.733577 
L 392.96164 287.779051 
L 392.997525 287.700813 
L 393.033411 287.740771 
L 393.087239 287.77321 
L 393.15901 287.708789 
L 393.320494 287.788845 
L 393.535807 287.708296 
L 393.571692 287.739087 
L 393.643463 287.684727 
L 393.751119 287.656255 
L 393.858775 287.68472 
L 394.002317 287.558936 
L 394.074088 287.634426 
L 394.127916 287.611626 
L 394.307343 287.511658 
L 394.414999 287.535769 
L 394.522655 287.487857 
L 394.540598 287.506606 
L 395.042994 287.472863 
L 395.15065 287.450246 
L 395.078879 287.530231 
L 395.168592 287.459342 
L 395.383905 287.472581 
L 395.509504 287.37076 
L 395.61716 287.425521 
L 395.653045 287.376348 
L 395.724816 287.440607 
L 395.993957 287.407153 
L 396.029842 287.453036 
L 396.101613 287.412754 
L 396.119556 287.351596 
L 396.155441 287.463894 
L 396.209269 287.432546 
L 396.263097 287.473377 
L 396.316925 287.408174 
L 396.424582 287.454537 
L 396.388696 287.367287 
L 396.442524 287.412592 
L 396.460467 287.357127 
L 396.496353 287.440903 
L 396.532238 287.421688 
L 396.604009 287.459109 
L 396.568123 287.388784 
L 396.639894 287.389108 
L 396.783436 287.389728 
L 396.962863 287.320854 
L 397.124347 287.244497 
L 397.267889 287.224494 
L 397.393488 287.085076 
L 397.554972 287.219153 
L 397.626743 287.146087 
L 397.662628 287.171283 
L 397.734399 287.211713 
L 397.770284 287.150772 
L 397.87794 287.122701 
L 397.985598 287.170092 
L 398.00354 287.150526 
L 398.02148 287.12528 
L 398.057361 287.202616 
L 398.093249 287.196853 
L 398.111195 287.234598 
L 398.147067 287.138992 
L 398.200923 287.186206 
L 398.326517 287.122694 
L 398.344492 287.181951 
L 398.380491 287.082392 
L 398.416432 287.088641 
L 398.487273 287.124336 
L 398.487273 287.124336 
" style="fill:none;stroke:#000000;stroke-linecap:square;stroke-width:1.5;"/>
   </g>
   <g id="patch_3">
    <path d="M 57.6 307.584 
L 57.6 41.472 
" style="fill:none;stroke:#000000;stroke-linecap:square;stroke-linejoin:miter;stroke-width:0.8;"/>
   </g>
   <g id="patch_4">
    <path d="M 414.72 307.584 
L 414.72 41.472 
" style="fill:none;stroke:#000000;stroke-linecap:square;stroke-linejoin:miter;stroke-width:0.8;"/>
   </g>
   <g id="patch_5">
    <path d="M 57.6 307.584 
L 414.72 307.584 
" style="fill:none;stroke:#000000;stroke-linecap:square;stroke-linejoin:miter;stroke-width:0.8;"/>
   </g>
   <g id="patch_6">
    <path d="M 57.6 41.472 
L 414.72 41.472 
" style="fill:none;stroke:#000000;stroke-linecap:square;stroke-linejoin:miter;stroke-width:0.8;"/>
   </g>
  </g>
 </g>
 <defs>
  <clipPath id="p57baf217ef">
   <rect height="266.112" width="357.12" x="57.6" y="41.472"/>
  </clipPath>
 </defs>
</svg>
