<?xml version="1.0" encoding="utf-8" standalone="no"?>
<!DOCTYPE svg PUBLIC "-//W3C//DTD SVG 1.1//EN"
  "http://www.w3.org/Graphics/SVG/1.1/DTD/svg11.dtd">
<svg xmlns:xlink="http://www.w3.org/1999/xlink" width="272.067187pt" height="198.567824pt" viewBox="0 0 272.067187 198.567824" xmlns="http://www.w3.org/2000/svg" version="1.1">
 <metadata>
  <rdf:RDF xmlns:dc="http://purl.org/dc/elements/1.1/" xmlns:cc="http://creativecommons.org/ns#" xmlns:rdf="http://www.w3.org/1999/02/22-rdf-syntax-ns#">
   <cc:Work>
    <dc:type rdf:resource="http://purl.org/dc/dcmitype/StillImage"/>
    <dc:date>2025-12-19T12:29:39.609775</dc:date>
    <dc:format>image/svg+xml</dc:format>
    <dc:creator>
     <cc:Agent>
      <dc:title>Matplotlib v3.10.7, https://matplotlib.org/</dc:title>
     </cc:Agent>
    </dc:creator>
   </cc:Work>
  </rdf:RDF>
 </metadata>
 <defs>
  <style type="text/css">*{stroke-linejoin: round; stroke-linecap: butt}</style>
 </defs>
 <g id="figure_1">
  <g id="patch_1">
   <path d="M 0 198.567824 
L 272.067187 198.567824 
L 272.067187 0 
L 0 0 
z
" style="fill: #ffffff"/>
  </g>
  <g id="axes_1">
   <g id="patch_2">
    <path d="M 41.667188 174.689699 
L 264.867188 174.689699 
L 264.867188 8.369699 
L 41.667188 8.369699 
z
" style="fill: #ffffff"/>
   </g>
   <g id="matplotlib.axis_1">
    <g id="xtick_1">
     <g id="line2d_1">
      <defs>
       <path id="m2baf029a8c" d="M 0 0 
L 0 3.5 
" style="stroke: #000000; stroke-width: 0.8"/>
      </defs>
      <g>
       <use xlink:href="#m2baf029a8c" x="82.712896" y="174.689699" style="stroke: #000000; stroke-width: 0.8"/>
      </g>
     </g>
     <g id="text_1">
      <!-- 1 -->
      <g transform="translate(79.531646 189.288136) scale(0.1 -0.1)">
       <defs>
        <path id="DejaVuSans-31" d="M 794 531 
L 1825 531 
L 1825 4091 
L 703 3866 
L 703 4441 
L 1819 4666 
L 2450 4666 
L 2450 531 
L 3481 531 
L 3481 0 
L 794 0 
L 794 531 
z
" transform="scale(0.015625)"/>
       </defs>
       <use xlink:href="#DejaVuSans-31"/>
      </g>
     </g>
    </g>
    <g id="xtick_2">
     <g id="line2d_2">
      <g>
       <use xlink:href="#m2baf029a8c" x="134.213319" y="174.689699" style="stroke: #000000; stroke-width: 0.8"/>
      </g>
     </g>
     <g id="text_2">
      <!-- 2 -->
      <g transform="translate(131.032069 189.288136) scale(0.1 -0.1)">
       <defs>
        <path id="DejaVuSans-32" d="M 1228 531 
L 3431 531 
L 3431 0 
L 469 0 
L 469 531 
Q 828 903 1448 1529 
Q 2069 2156 2228 2338 
Q 2531 2678 2651 2914 
Q 2772 3150 2772 3378 
Q 2772 3750 2511 3984 
Q 2250 4219 1831 4219 
Q 1534 4219 1204 4116 
Q 875 4013 500 3803 
L 500 4441 
Q 881 4594 1212 4672 
Q 1544 4750 1819 4750 
Q 2544 4750 2975 4387 
Q 3406 4025 3406 3419 
Q 3406 3131 3298 2873 
Q 3191 2616 2906 2266 
Q 2828 2175 2409 1742 
Q 1991 1309 1228 531 
z
" transform="scale(0.015625)"/>
       </defs>
       <use xlink:href="#DejaVuSans-32"/>
      </g>
     </g>
    </g>
    <g id="xtick_3">
     <g id="line2d_3">
      <g>
       <use xlink:href="#m2baf029a8c" x="185.713741" y="174.689699" style="stroke: #000000; stroke-width: 0.8"/>
      </g>
     </g>
     <g id="text_3">
      <!-- 3 -->
      <g transform="translate(182.532491 189.288136) scale(0.1 -0.1)">
       <defs>
        <path id="DejaVuSans-33" d="M 2597 2516 
Q 3050 2419 3304 2112 
Q 3559 1806 3559 1356 
Q 3559 666 3084 287 
Q 2609 -91 1734 -91 
Q 1441 -91 1130 -33 
Q 819 25 488 141 
L 488 750 
Q 750 597 1062 519 
Q 1375 441 1716 441 
Q 2309 441 2620 675 
Q 2931 909 2931 1356 
Q 2931 1769 2642 2001 
Q 2353 2234 1838 2234 
L 1294 2234 
L 1294 2753 
L 1863 2753 
Q 2328 2753 2575 2939 
Q 2822 3125 2822 3475 
Q 2822 3834 2567 4026 
Q 2313 4219 1838 4219 
Q 1578 4219 1281 4162 
Q 984 4106 628 3988 
L 628 4550 
Q 988 4650 1302 4700 
Q 1616 4750 1894 4750 
Q 2613 4750 3031 4423 
Q 3450 4097 3450 3541 
Q 3450 3153 3228 2886 
Q 3006 2619 2597 2516 
z
" transform="scale(0.015625)"/>
       </defs>
       <use xlink:href="#DejaVuSans-33"/>
      </g>
     </g>
    </g>
    <g id="xtick_4">
     <g id="line2d_4">
      <g>
       <use xlink:href="#m2baf029a8c" x="237.214164" y="174.689699" style="stroke: #000000; stroke-width: 0.8"/>
      </g>
     </g>
     <g id="text_4">
      <!-- 4 -->
      <g transform="translate(234.032914 189.288136) scale(0.1 -0.1)">
       <defs>
        <path id="DejaVuSans-34" d="M 2419 4116 
L 825 1625 
L 2419 1625 
L 2419 4116 
z
M 2253 4666 
L 3047 4666 
L 3047 1625 
L 3713 1625 
L 3713 1100 
L 3047 1100 
L 3047 0 
L 2419 0 
L 2419 1100 
L 313 1100 
L 313 1709 
L 2253 4666 
z
" transform="scale(0.015625)"/>
       </defs>
       <use xlink:href="#DejaVuSans-34"/>
      </g>
     </g>
    </g>
   </g>
   <g id="matplotlib.axis_2">
    <g id="ytick_1">
     <g id="line2d_5">
      <defs>
       <path id="m36b03c3ab6" d="M 0 0 
L -3.5 0 
" style="stroke: #000000; stroke-width: 0.8"/>
      </defs>
      <g>
       <use xlink:href="#m36b03c3ab6" x="41.667188" y="171.006833" style="stroke: #000000; stroke-width: 0.8"/>
      </g>
     </g>
     <g id="text_5">
      <!-- −120 -->
      <g transform="translate(7.2 174.806052) scale(0.1 -0.1)">
       <defs>
        <path id="DejaVuSans-2212" d="M 678 2272 
L 4684 2272 
L 4684 1741 
L 678 1741 
L 678 2272 
z
" transform="scale(0.015625)"/>
        <path id="DejaVuSans-30" d="M 2034 4250 
Q 1547 4250 1301 3770 
Q 1056 3291 1056 2328 
Q 1056 1369 1301 889 
Q 1547 409 2034 409 
Q 2525 409 2770 889 
Q 3016 1369 3016 2328 
Q 3016 3291 2770 3770 
Q 2525 4250 2034 4250 
z
M 2034 4750 
Q 2819 4750 3233 4129 
Q 3647 3509 3647 2328 
Q 3647 1150 3233 529 
Q 2819 -91 2034 -91 
Q 1250 -91 836 529 
Q 422 1150 422 2328 
Q 422 3509 836 4129 
Q 1250 4750 2034 4750 
z
" transform="scale(0.015625)"/>
       </defs>
       <use xlink:href="#DejaVuSans-2212"/>
       <use xlink:href="#DejaVuSans-31" transform="translate(83.789062 0)"/>
       <use xlink:href="#DejaVuSans-32" transform="translate(147.412109 0)"/>
       <use xlink:href="#DejaVuSans-30" transform="translate(211.035156 0)"/>
      </g>
     </g>
    </g>
    <g id="ytick_2">
     <g id="line2d_6">
      <g>
       <use xlink:href="#m36b03c3ab6" x="41.667188" y="148.148603" style="stroke: #000000; stroke-width: 0.8"/>
      </g>
     </g>
     <g id="text_6">
      <!-- −100 -->
      <g transform="translate(7.2 151.947821) scale(0.1 -0.1)">
       <use xlink:href="#DejaVuSans-2212"/>
       <use xlink:href="#DejaVuSans-31" transform="translate(83.789062 0)"/>
       <use xlink:href="#DejaVuSans-30" transform="translate(147.412109 0)"/>
       <use xlink:href="#DejaVuSans-30" transform="translate(211.035156 0)"/>
      </g>
     </g>
    </g>
    <g id="ytick_3">
     <g id="line2d_7">
      <g>
       <use xlink:href="#m36b03c3ab6" x="41.667188" y="125.290372" style="stroke: #000000; stroke-width: 0.8"/>
      </g>
     </g>
     <g id="text_7">
      <!-- −80 -->
      <g transform="translate(13.5625 129.089591) scale(0.1 -0.1)">
       <defs>
        <path id="DejaVuSans-38" d="M 2034 2216 
Q 1584 2216 1326 1975 
Q 1069 1734 1069 1313 
Q 1069 891 1326 650 
Q 1584 409 2034 409 
Q 2484 409 2743 651 
Q 3003 894 3003 1313 
Q 3003 1734 2745 1975 
Q 2488 2216 2034 2216 
z
M 1403 2484 
Q 997 2584 770 2862 
Q 544 3141 544 3541 
Q 544 4100 942 4425 
Q 1341 4750 2034 4750 
Q 2731 4750 3128 4425 
Q 3525 4100 3525 3541 
Q 3525 3141 3298 2862 
Q 3072 2584 2669 2484 
Q 3125 2378 3379 2068 
Q 3634 1759 3634 1313 
Q 3634 634 3220 271 
Q 2806 -91 2034 -91 
Q 1263 -91 848 271 
Q 434 634 434 1313 
Q 434 1759 690 2068 
Q 947 2378 1403 2484 
z
M 1172 3481 
Q 1172 3119 1398 2916 
Q 1625 2713 2034 2713 
Q 2441 2713 2670 2916 
Q 2900 3119 2900 3481 
Q 2900 3844 2670 4047 
Q 2441 4250 2034 4250 
Q 1625 4250 1398 4047 
Q 1172 3844 1172 3481 
z
" transform="scale(0.015625)"/>
       </defs>
       <use xlink:href="#DejaVuSans-2212"/>
       <use xlink:href="#DejaVuSans-38" transform="translate(83.789062 0)"/>
       <use xlink:href="#DejaVuSans-30" transform="translate(147.412109 0)"/>
      </g>
     </g>
    </g>
    <g id="ytick_4">
     <g id="line2d_8">
      <g>
       <use xlink:href="#m36b03c3ab6" x="41.667188" y="102.432141" style="stroke: #000000; stroke-width: 0.8"/>
      </g>
     </g>
     <g id="text_8">
      <!-- −60 -->
      <g transform="translate(13.5625 106.23136) scale(0.1 -0.1)">
       <defs>
        <path id="DejaVuSans-36" d="M 2113 2584 
Q 1688 2584 1439 2293 
Q 1191 2003 1191 1497 
Q 1191 994 1439 701 
Q 1688 409 2113 409 
Q 2538 409 2786 701 
Q 3034 994 3034 1497 
Q 3034 2003 2786 2293 
Q 2538 2584 2113 2584 
z
M 3366 4563 
L 3366 3988 
Q 3128 4100 2886 4159 
Q 2644 4219 2406 4219 
Q 1781 4219 1451 3797 
Q 1122 3375 1075 2522 
Q 1259 2794 1537 2939 
Q 1816 3084 2150 3084 
Q 2853 3084 3261 2657 
Q 3669 2231 3669 1497 
Q 3669 778 3244 343 
Q 2819 -91 2113 -91 
Q 1303 -91 875 529 
Q 447 1150 447 2328 
Q 447 3434 972 4092 
Q 1497 4750 2381 4750 
Q 2619 4750 2861 4703 
Q 3103 4656 3366 4563 
z
" transform="scale(0.015625)"/>
       </defs>
       <use xlink:href="#DejaVuSans-2212"/>
       <use xlink:href="#DejaVuSans-36" transform="translate(83.789062 0)"/>
       <use xlink:href="#DejaVuSans-30" transform="translate(147.412109 0)"/>
      </g>
     </g>
    </g>
    <g id="ytick_5">
     <g id="line2d_9">
      <g>
       <use xlink:href="#m36b03c3ab6" x="41.667188" y="79.573911" style="stroke: #000000; stroke-width: 0.8"/>
      </g>
     </g>
     <g id="text_9">
      <!-- −40 -->
      <g transform="translate(13.5625 83.373129) scale(0.1 -0.1)">
       <use xlink:href="#DejaVuSans-2212"/>
       <use xlink:href="#DejaVuSans-34" transform="translate(83.789062 0)"/>
       <use xlink:href="#DejaVuSans-30" transform="translate(147.412109 0)"/>
      </g>
     </g>
    </g>
    <g id="ytick_6">
     <g id="line2d_10">
      <g>
       <use xlink:href="#m36b03c3ab6" x="41.667188" y="56.71568" style="stroke: #000000; stroke-width: 0.8"/>
      </g>
     </g>
     <g id="text_10">
      <!-- −20 -->
      <g transform="translate(13.5625 60.514899) scale(0.1 -0.1)">
       <use xlink:href="#DejaVuSans-2212"/>
       <use xlink:href="#DejaVuSans-32" transform="translate(83.789062 0)"/>
       <use xlink:href="#DejaVuSans-30" transform="translate(147.412109 0)"/>
      </g>
     </g>
    </g>
    <g id="ytick_7">
     <g id="line2d_11">
      <g>
       <use xlink:href="#m36b03c3ab6" x="41.667188" y="33.857449" style="stroke: #000000; stroke-width: 0.8"/>
      </g>
     </g>
     <g id="text_11">
      <!-- 0 -->
      <g transform="translate(28.304688 37.656668) scale(0.1 -0.1)">
       <use xlink:href="#DejaVuSans-30"/>
      </g>
     </g>
    </g>
    <g id="ytick_8">
     <g id="line2d_12">
      <g>
       <use xlink:href="#m36b03c3ab6" x="41.667188" y="10.999219" style="stroke: #000000; stroke-width: 0.8"/>
      </g>
     </g>
     <g id="text_12">
      <!-- 20 -->
      <g transform="translate(21.942188 14.798438) scale(0.1 -0.1)">
       <use xlink:href="#DejaVuSans-32"/>
       <use xlink:href="#DejaVuSans-30" transform="translate(63.623047 0)"/>
      </g>
     </g>
    </g>
   </g>
   <g id="line2d_13">
    <path d="M 51.812642 110.346861 
L 52.108769 110.451498 
L 52.111344 110.486377 
L 52.14997 110.346861 
L 52.21177 110.346861 
L 52.309621 110.277103 
L 52.229795 110.416619 
L 52.325071 110.311982 
L 52.402322 110.346861 
L 52.381722 110.207346 
L 52.430647 110.242224 
L 52.451247 110.172467 
L 52.446097 110.311982 
L 52.543948 110.207346 
L 53.076977 110.172467 
L 53.174828 110.032951 
L 53.187703 110.137588 
L 53.419455 110.242224 
L 53.465806 110.346861 
L 53.429755 110.207346 
L 53.532756 110.277103 
L 53.805708 110.346861 
L 53.821159 110.311982 
L 53.919009 110.416619 
L 54.014285 110.277103 
L 54.03231 110.346861 
L 54.050335 110.416619 
L 54.083811 110.207346 
L 54.143036 110.346861 
L 54.171361 110.277103 
L 54.199687 110.416619 
L 54.251187 110.416619 
L 54.925843 110.346861 
L 55.023693 110.207346 
L 54.961893 110.38174 
L 55.039144 110.277103 
L 55.371321 110.38174 
L 55.373896 110.416619 
L 55.397071 110.277103 
L 55.479472 110.346861 
L 55.628823 110.277103 
L 55.736974 110.137588 
L 55.742124 110.172467 
L 55.834825 110.277103 
L 55.855425 110.207346 
L 56.226228 110.277103 
L 56.313779 110.416619 
L 56.339529 110.346861 
L 56.44253 110.242224 
L 56.486305 110.137588 
L 56.460555 110.277103 
L 56.550681 110.207346 
L 56.630507 110.311982 
L 56.576431 110.172467 
L 56.661407 110.207346 
L 56.962684 110.277103 
L 57.122336 122.3452 
L 57.354088 132.215927 
L 57.356663 132.215927 
L 57.554939 138.180218 
L 57.804716 143.865477 
L 57.809866 143.935235 
L 58.082819 148.329975 
L 58.407271 151.259802 
L 58.409846 151.190045 
L 58.489672 151.748107 
L 58.499972 151.748107 
L 58.680223 152.689837 
L 58.690524 152.620079 
L 58.775499 152.968868 
L 58.780649 152.933989 
L 58.91455 153.282778 
L 58.917125 153.247899 
L 58.986651 153.457173 
L 59.009826 153.457173 
L 59.025276 153.422294 
L 59.136002 153.666446 
L 59.156602 153.52693 
L 59.220978 153.701325 
L 59.246728 153.666446 
L 59.398654 153.771083 
L 59.50938 153.84084 
L 59.414104 153.736204 
L 59.511955 153.805961 
L 59.571181 153.84084 
L 59.663882 154.015235 
L 59.684482 153.945477 
L 59.962584 153.875719 
L 60.008934 153.666446 
L 60.07846 153.701325 
L 60.325662 153.771083 
L 60.431238 153.84084 
L 60.353987 153.736204 
L 60.436388 153.805961 
L 60.480163 153.805961 
L 60.583164 153.666446 
L 60.590889 153.701325 
L 60.616639 153.771083 
L 60.67329 153.596688 
L 60.696465 153.631567 
L 60.809766 153.457173 
L 60.71449 153.736204 
L 60.814916 153.52693 
L 60.874141 153.422294 
L 60.974567 153.282778 
L 60.907617 153.492051 
L 60.992592 153.317657 
L 61.044093 153.387415 
L 61.008043 153.282778 
L 61.103318 153.317657 
L 61.126494 153.21302 
L 61.111043 153.352536 
L 61.216619 153.282778 
L 61.242369 153.317657 
L 61.28357 153.178141 
L 61.317045 153.21302 
L 61.363395 153.108384 
L 61.420046 153.247899 
L 61.427771 153.21302 
L 61.523047 153.178141 
L 61.620898 152.515442 
L 61.646648 152.654958 
L 61.687848 152.724716 
L 61.806299 153.003747 
L 61.808874 152.933989 
L 61.8887 153.178141 
L 61.9093 153.178141 
L 62.120452 153.143263 
L 62.202852 153.038626 
L 62.179677 153.178141 
L 62.231178 153.108384 
L 62.233753 153.073505 
L 62.308428 153.282778 
L 62.334178 153.178141 
L 62.362504 153.282778 
L 62.401129 153.073505 
L 62.442329 153.143263 
L 62.501555 153.038626 
L 62.56078 153.003747 
L 62.586531 153.143263 
L 62.604556 153.108384 
L 62.643181 153.143263 
L 62.668931 152.968868 
L 62.710132 153.038626 
L 63.021709 153.108384 
L 63.026859 153.178141 
L 63.062909 153.003747 
L 63.12986 153.073505 
L 63.240586 153.003747 
L 63.18651 153.143263 
L 63.243161 153.038626 
L 63.320412 152.933989 
L 63.353887 152.794474 
L 63.436287 152.864231 
L 63.549588 152.968868 
L 63.454313 152.829352 
L 63.552163 152.933989 
L 63.71439 152.829352 
L 63.832841 152.724716 
L 63.856016 152.829352 
L 63.928117 152.620079 
L 63.940992 152.724716 
L 63.948717 152.689837 
L 64.031117 152.864231 
L 64.043992 152.794474 
L 64.080043 152.89911 
L 64.108368 152.759595 
L 64.154718 152.794474 
L 64.33497 152.89911 
L 64.368445 152.968868 
L 64.352995 152.864231 
L 64.445696 152.89911 
L 64.502346 152.794474 
L 64.510071 152.829352 
L 64.615647 152.689837 
L 64.690323 152.794474 
L 64.728948 152.759595 
L 64.9607 152.864231 
L 65.01735 152.933989 
L 65.0019 152.794474 
L 65.068851 152.829352 
L 65.174427 152.794474 
L 65.081726 152.89911 
L 65.177002 152.829352 
L 65.236227 152.933989 
L 65.228502 152.794474 
L 65.287728 152.829352 
L 65.802732 152.864231 
L 65.872257 152.968868 
L 65.828482 152.829352 
L 65.913458 152.89911 
L 65.988133 152.968868 
L 66.031909 152.794474 
L 66.065384 152.89911 
L 66.12461 152.724716 
L 66.14006 152.829352 
L 66.235335 152.689837 
L 66.253361 152.759595 
L 66.286836 152.654958 
L 66.366662 152.794474 
L 66.969216 152.724716 
L 67.077367 152.5852 
L 66.982092 152.759595 
L 67.082517 152.620079 
L 67.188093 152.515442 
L 67.195818 152.550321 
L 67.283369 149.794889 
L 67.515121 136.54091 
L 68.097076 123.775235 
L 68.107376 123.670598 
L 68.552854 119.136342 
L 68.568305 119.031705 
L 68.825807 117.043609 
L 68.838682 116.973851 
L 68.977733 116.206515 
L 69.155409 115.264785 
L 69.163134 115.299664 
L 69.22751 114.881117 
L 69.23781 114.881117 
L 69.402611 114.14866 
L 69.405186 114.218418 
L 69.492737 113.799872 
L 69.500462 113.799872 
L 69.654964 113.102294 
L 69.657539 113.137173 
L 69.660114 113.172051 
L 69.742514 112.858141 
L 69.747664 112.89302 
L 69.860965 112.509352 
L 69.86869 112.613989 
L 70.010316 112.195442 
L 70.020617 112.230321 
L 70.092717 111.916411 
L 70.097867 111.95129 
L 70.218893 111.63738 
L 70.272969 111.532743 
L 70.393995 111.149076 
L 70.409445 111.183955 
L 70.46352 111.079318 
L 70.587121 110.800287 
L 70.592271 110.835166 
L 70.638622 110.730529 
L 70.643772 110.765408 
L 70.759648 110.591013 
L 70.793123 110.486377 
L 70.821448 110.521256 
L 70.916724 110.311982 
L 70.921874 110.346861 
L 70.965649 110.207346 
L 71.0223 110.242224 
L 71.055775 110.172467 
L 71.176801 109.858557 
L 71.426578 109.823678 
L 71.527004 109.649283 
L 71.537304 109.684162 
L 71.539879 109.75392 
L 71.62228 109.579526 
L 71.645455 109.684162 
L 71.745881 109.474889 
L 71.761331 109.544647 
L 71.799956 109.579526 
L 71.823131 109.474889 
L 71.869482 109.544647 
L 71.993083 109.370252 
L 71.995658 109.44001 
L 72.057458 109.230737 
L 72.098659 109.265615 
L 72.21196 109.160979 
L 72.214535 109.265615 
L 72.29436 109.1261 
L 72.322685 109.160979 
L 72.500362 109.056342 
L 72.502937 108.986584 
L 72.533837 109.195858 
L 72.608513 109.1261 
L 72.770739 109.021463 
L 72.87889 108.986584 
L 72.817089 109.1261 
L 72.881465 109.021463 
L 72.956141 109.091221 
L 72.912365 108.916827 
L 72.989616 108.986584 
L 73.288318 108.881948 
L 73.375869 108.777311 
L 73.303768 108.951705 
L 73.404194 108.81219 
L 73.829073 108.707553 
L 73.919199 108.777311 
L 73.939799 108.672674 
L 74.032499 108.81219 
L 74.0531 108.742432 
L 74.1252 108.707553 
L 74.081425 108.81219 
L 74.158676 108.81219 
L 74.174126 108.881948 
L 74.230776 108.707553 
L 74.269401 108.81219 
L 74.300302 108.742432 
L 74.277126 108.847069 
L 74.380127 108.777311 
L 74.483128 108.847069 
L 74.395577 108.742432 
L 74.493428 108.81219 
L 74.604154 108.637795 
L 74.606729 108.777311 
L 74.68398 108.602917 
L 74.71488 108.672674 
L 74.738055 108.602917 
L 74.789556 108.742432 
L 74.823031 108.707553 
L 75.186109 108.81219 
L 75.191259 108.881948 
L 75.27366 108.672674 
L 75.29426 108.777311 
L 75.379236 108.672674 
L 75.410136 108.707553 
L 75.415286 108.777311 
L 75.464211 108.602917 
L 75.518287 108.672674 
L 75.564637 108.533159 
L 75.531162 108.707553 
L 75.631588 108.602917 
L 75.639313 108.637795 
L 75.744889 108.568038 
L 75.86334 108.707553 
L 75.91999 108.602917 
L 75.90454 108.742432 
L 75.974065 108.707553 
L 77.179175 108.602917 
L 77.18175 108.568038 
L 77.215226 108.742432 
L 77.289901 108.602917 
L 77.683879 108.707553 
L 77.789455 108.777311 
L 77.691605 108.637795 
L 77.794605 108.742432 
L 77.815206 108.777311 
L 77.905331 108.637795 
L 78.016057 108.81219 
L 78.018632 108.777311 
L 78.119058 108.637795 
L 78.129358 108.672674 
L 78.155108 108.81219 
L 78.240084 108.672674 
L 78.546512 108.777311 
L 78.628912 108.81219 
L 78.556812 108.707553 
L 78.657237 108.777311 
L 78.850364 108.742432 
L 78.95594 108.602917 
L 78.96109 108.742432 
L 79.066666 108.602917 
L 79.076966 108.672674 
L 79.365368 108.568038 
L 79.393693 108.533159 
L 79.401419 108.672674 
L 79.473519 108.602917 
L 79.494119 108.568038 
L 79.589395 108.707553 
L 79.687246 108.602917 
L 79.702696 108.637795 
L 79.805697 108.707553 
L 79.749046 108.533159 
L 79.810847 108.637795 
L 79.893248 108.533159 
L 79.921573 108.602917 
L 79.996248 108.672674 
L 80.006549 108.533159 
L 80.032299 108.602917 
L 80.158475 108.672674 
L 80.264051 108.777311 
L 80.24345 108.602917 
L 80.269201 108.707553 
L 80.323276 108.777311 
L 80.387652 108.847069 
L 80.331001 108.742432 
L 80.431427 108.742432 
L 80.537003 108.707553 
L 80.621979 108.49828 
L 80.650304 108.602917 
L 80.663179 108.637795 
L 80.768755 108.49828 
L 80.79708 108.568038 
L 80.82283 108.428522 
L 80.876906 108.463401 
L 80.941281 108.533159 
L 80.949006 108.49828 
L 81.054582 108.602917 
L 81.152433 108.49828 
L 81.126683 108.637795 
L 81.170458 108.533159 
L 81.180758 108.672674 
L 81.281184 108.568038 
L 81.38676 108.672674 
L 81.39191 108.602917 
L 81.461435 108.568038 
L 81.41766 108.672674 
L 81.502636 108.602917 
L 81.536111 108.707553 
L 81.559286 108.568038 
L 81.613362 108.602917 
L 81.631387 108.672674 
L 81.726663 108.533159 
L 81.829663 108.672674 
L 81.839964 108.637795 
L 81.922364 108.742432 
L 81.857989 108.602917 
L 81.945539 108.672674 
L 81.948114 108.568038 
L 82.04854 108.81219 
L 82.05369 108.777311 
L 82.148966 108.742432 
L 82.138666 108.881948 
L 82.164416 108.777311 
L 82.331793 108.707553 
L 82.334368 108.637795 
L 82.378143 108.847069 
L 82.439943 108.707553 
L 82.517194 108.742432 
L 82.514619 108.602917 
L 82.548094 108.707553 
L 82.65367 108.602917 
L 82.63307 108.742432 
L 82.661395 108.672674 
L 82.712896 108.672674 
L 82.867397 126.46091 
L 83.166099 144.353782 
L 84.026157 164.688176 
L 84.033882 164.653297 
L 84.098257 165.211359 
L 84.134307 165.315996 
L 84.286234 165.908937 
L 84.291384 165.874058 
L 84.358334 166.15309 
L 84.381509 166.118211 
L 84.41241 166.187968 
L 84.533436 166.641394 
L 84.536011 166.606515 
L 84.538586 166.571636 
L 84.623561 166.885546 
L 84.628711 166.850667 
L 84.713687 166.885546 
L 84.811538 167.025062 
L 84.824413 166.955304 
L 84.834713 166.885546 
L 84.839863 167.025062 
L 84.929989 166.990183 
L 84.978914 167.129699 
L 85.04329 167.059941 
L 85.123116 166.955304 
L 85.10509 167.09482 
L 85.156591 167.025062 
L 85.231266 166.955304 
L 85.308517 166.885546 
L 85.244142 166.990183 
L 85.339417 166.920425 
L 85.414093 167.025062 
L 85.437268 166.885546 
L 85.450143 166.920425 
L 85.656145 166.885546 
L 85.671595 166.746031 
L 85.70507 166.920425 
L 85.766871 166.850667 
L 85.826096 166.990183 
L 85.774596 166.78091 
L 85.880172 166.920425 
L 85.934247 166.815788 
L 85.893047 166.955304 
L 85.993473 166.850667 
L 86.047548 166.955304 
L 86.088748 166.78091 
L 86.101624 166.850667 
L 86.212349 166.711152 
L 86.214924 166.746031 
L 86.22265 166.641394 
L 86.30505 166.850667 
L 86.323075 166.78091 
L 86.353976 166.850667 
L 86.390026 166.676273 
L 86.428651 166.746031 
L 86.459552 166.711152 
L 86.498177 166.850667 
L 86.534227 166.78091 
L 86.619203 166.711152 
L 86.650103 166.850667 
L 86.670703 166.78091 
L 86.750529 166.955304 
L 86.83293 166.990183 
L 86.799454 166.815788 
L 86.856105 166.920425 
L 86.94623 166.850667 
L 86.86898 166.990183 
L 86.969406 166.885546 
L 87.000306 166.78091 
L 87.059531 166.850667 
L 87.113607 166.711152 
L 87.211458 166.815788 
L 87.226908 166.78091 
L 87.386559 166.711152 
L 87.389134 166.606515 
L 87.396859 166.746031 
L 87.497285 166.711152 
L 87.615736 166.536757 
L 87.528185 166.746031 
L 87.618311 166.571636 
L 87.690412 166.676273 
L 87.654361 166.536757 
L 87.729037 166.606515 
L 87.824313 166.571636 
L 87.793412 166.711152 
L 87.834613 166.606515 
L 87.911863 166.711152 
L 87.909288 166.536757 
L 87.945339 166.641394 
L 88.202841 166.536757 
L 88.334167 166.222847 
L 88.336742 166.292605 
L 88.419143 166.013574 
L 88.434593 166.083332 
L 88.540169 165.839179 
L 88.547894 165.908937 
L 88.578794 165.874058 
L 88.697245 165.560148 
L 88.722995 165.629906 
L 88.792521 165.420633 
L 88.802821 165.490391 
L 88.923847 165.211359 
L 88.970197 165.106723 
L 89.098948 164.86257 
L 89.142724 164.792813 
L 89.227699 164.513782 
L 89.261175 164.54866 
L 89.322975 164.478903 
L 89.436276 164.199872 
L 89.438851 164.269629 
L 89.557302 163.92084 
L 89.570177 163.990598 
L 89.572752 164.025477 
L 89.657728 163.676688 
L 89.662878 163.746446 
L 89.778754 163.467415 
L 89.799354 163.537173 
L 89.87403 163.327899 
L 89.88433 163.397657 
L 90.002781 162.97911 
L 90.018231 163.013989 
L 90.051706 162.839595 
L 90.105781 162.874474 
L 90.216507 162.560564 
L 90.226807 162.595442 
L 90.237108 162.630321 
L 90.298908 162.455927 
L 90.329808 162.525685 
L 90.455984 162.176896 
L 90.461134 162.211775 
L 90.48431 162.246654 
L 90.55641 162.002501 
L 90.558985 162.072259 
L 90.685161 161.758349 
L 90.690311 161.793228 
L 90.708336 161.72347 
L 90.806187 161.479318 
L 90.824212 161.514197 
L 90.865413 161.40956 
L 90.994164 160.956135 
L 91.004464 161.025892 
L 91.045664 160.921256 
L 91.169265 160.711982 
L 91.213041 160.78174 
L 91.272266 160.607346 
L 91.277416 160.642224 
L 91.323766 160.537588 
L 91.336642 160.607346 
L 91.439642 160.398072 
L 91.470543 160.46783 
L 91.542643 160.258557 
L 91.545218 160.293436 
L 91.578694 160.188799 
L 91.702295 159.909768 
L 91.707445 159.944647 
L 91.71002 159.979526 
L 91.779545 159.700494 
L 91.80272 159.805131 
L 91.918596 159.421463 
L 91.926321 159.456342 
L 91.975247 159.386584 
L 92.091123 159.21219 
L 92.150348 159.107553 
L 92.155498 159.142432 
L 92.268799 158.968038 
L 92.312575 159.002917 
L 92.34605 158.828522 
L 92.36665 158.828522 
L 92.503126 158.479733 
L 92.510851 158.514612 
L 92.582952 158.305339 
L 92.600977 158.305339 
L 92.729728 157.782155 
L 92.732303 157.817034 
L 92.812129 157.503124 
L 92.819854 157.538003 
L 92.94088 157.293851 
L 92.94603 157.32873 
L 93.090231 157.258972 
L 93.208682 157.049699 
L 93.226707 157.084577 
L 93.285933 156.910183 
L 93.311683 156.979941 
L 93.430134 156.666031 
L 93.432709 156.70091 
L 93.56146 156.421878 
L 93.564035 156.456757 
L 93.61296 156.212605 
L 93.659311 156.247484 
L 93.674761 156.282363 
L 93.790637 155.968453 
L 93.836987 156.038211 
L 93.891063 155.863816 
L 93.898788 155.898695 
L 94.014664 155.619664 
L 94.024964 155.689422 
L 94.089339 155.480148 
L 94.120239 155.480148 
L 94.130539 155.515027 
L 94.21294 155.305754 
L 94.215515 155.375512 
L 94.331391 155.096481 
L 94.333966 155.166238 
L 94.424092 154.887207 
L 94.434392 154.922086 
L 94.568293 154.538418 
L 94.570868 154.573297 
L 94.573443 154.608176 
L 94.666144 154.364024 
L 94.668719 154.433782 
L 94.78717 154.189629 
L 94.79232 154.294266 
L 94.830945 154.084993 
L 94.895321 154.119872 
L 94.939096 154.050114 
L 95.062697 153.701325 
L 95.119348 153.631567 
L 95.240374 153.352536 
L 95.253249 153.387415 
L 95.327924 153.108384 
L 95.338224 153.178141 
L 95.461825 152.864231 
L 95.466975 152.933989 
L 95.531351 152.829352 
L 95.536501 152.864231 
L 95.665252 152.515442 
L 95.691002 152.5852 
L 95.739928 152.445685 
L 95.770828 152.445685 
L 95.904729 152.131775 
L 95.922754 152.166654 
L 95.98198 151.922501 
L 96.005155 151.992259 
L 96.118456 151.64347 
L 96.126181 151.713228 
L 96.169956 151.608591 
L 96.180256 151.64347 
L 96.309007 151.224923 
L 96.311582 151.294681 
L 96.383683 150.980771 
L 96.412008 151.085408 
L 96.533034 150.771498 
L 96.540759 150.841256 
L 96.61286 150.631982 
L 96.636035 150.666861 
L 96.697836 150.562224 
L 96.831737 150.213436 
L 96.842037 150.318072 
L 96.924437 150.039041 
L 96.937313 150.039041 
L 96.970788 150.108799 
L 97.030013 149.864647 
L 97.035163 149.864647 
L 97.040313 149.899526 
L 97.158764 149.690252 
L 97.161339 149.76001 
L 97.21799 149.550737 
L 97.26434 149.550737 
L 97.272065 149.585615 
L 97.326141 149.376342 
L 97.362191 149.411221 
L 97.467767 149.167069 
L 97.485792 149.201948 
L 97.514117 149.236827 
L 97.552743 149.027553 
L 97.583643 149.062432 
L 97.714969 148.748522 
L 97.722694 148.81828 
L 97.79222 148.539249 
L 97.810245 148.539249 
L 97.841145 148.434612 
L 97.977621 148.050944 
L 97.995646 148.120702 
L 98.072897 147.911429 
L 98.078047 147.946308 
L 98.206798 147.667276 
L 98.209373 147.702155 
L 98.281474 147.423124 
L 98.302074 147.492882 
L 98.420525 147.178972 
L 98.4231 147.213851 
L 98.49005 147.109214 
L 98.621376 146.725546 
L 98.623951 146.760425 
L 98.626526 146.830183 
L 98.719227 146.516273 
L 98.724377 146.516273 
L 98.783603 146.481394 
L 98.894329 146.202363 
L 98.899479 146.237242 
L 99.030805 145.923332 
L 99.077155 145.958211 
L 99.11578 145.679179 
L 99.12608 145.748937 
L 99.247106 145.504785 
L 99.249682 145.539664 
L 99.252257 145.574543 
L 99.329507 145.260633 
L 99.342382 145.295512 
L 99.463408 144.981602 
L 99.473708 145.016481 
L 99.476283 145.051359 
L 99.553534 144.807207 
L 99.566409 144.842086 
L 99.69001 144.493297 
L 99.70546 144.528176 
L 99.782711 144.318903 
L 99.793011 144.38866 
L 99.821336 144.284024 
L 99.939787 144.07475 
L 99.831636 144.318903 
L 99.942362 144.144508 
L 99.975837 144.07475 
L 100.096863 143.795719 
L 100.22819 143.481809 
L 100.235915 143.551567 
L 100.30544 143.202778 
L 100.318315 143.237657 
L 100.444491 142.958626 
L 100.447066 142.993505 
L 100.498567 142.888868 
L 100.511442 142.923747 
L 100.624743 142.609837 
L 100.635043 142.714474 
L 100.701993 142.5052 
L 100.732894 142.540079 
L 100.84362 142.295927 
L 100.738044 142.574958 
L 100.84877 142.330806 
L 100.866795 142.365685 
L 100.933745 142.086654 
L 100.94147 142.086654 
L 100.985246 141.982017 
L 101.132022 141.493712 
L 101.142322 141.528591 
L 101.216998 141.214681 
L 101.224723 141.24956 
L 101.348324 140.865892 
L 101.361199 140.900771 
L 101.363774 140.970529 
L 101.441025 140.691498 
L 101.4642 140.726377 
L 101.497675 140.62174 
L 101.618701 140.342709 
L 101.623851 140.377588 
L 101.639301 140.412467 
L 101.701102 140.203193 
L 101.719127 140.238072 
L 101.835003 139.924162 
L 101.840153 139.959041 
L 101.853028 139.99392 
L 101.917403 139.749768 
L 101.935429 139.784647 
L 102.056455 139.435858 
L 102.06418 139.505615 
L 102.149155 139.156827 
L 102.15688 139.156827 
L 102.164605 139.226584 
L 102.244431 138.982432 
L 102.254731 138.982432 
L 102.319107 138.877795 
L 102.445283 138.633643 
L 102.455583 138.703401 
L 102.540559 138.354612 
L 102.545709 138.389491 
L 102.67446 138.075581 
L 102.677035 138.11046 
L 102.718235 138.005823 
L 102.849561 137.657034 
L 102.859861 137.726792 
L 102.937112 137.378003 
L 102.949987 137.378003 
L 102.965437 137.447761 
L 103.040113 137.16873 
L 103.042688 137.16873 
L 103.158564 136.85482 
L 103.050413 137.203609 
L 103.171439 136.889699 
L 103.174014 136.924577 
L 103.258989 136.645546 
L 103.266714 136.680425 
L 103.38774 136.296757 
L 103.400616 136.331636 
L 103.403191 136.366515 
L 103.483016 136.122363 
L 103.493316 136.122363 
L 103.627217 135.773574 
L 103.637518 135.808453 
L 103.717343 135.494543 
L 103.719918 135.529422 
L 103.761119 135.494543 
L 103.882145 135.075996 
L 103.887295 135.145754 
L 103.95682 134.831844 
L 103.974845 134.831844 
L 104.008321 134.727207 
L 104.139647 134.413297 
L 104.152522 134.448176 
L 104.214322 134.273782 
L 104.240072 134.30866 
L 104.348223 133.924993 
L 104.361098 133.99475 
L 104.384274 133.890114 
L 104.518175 133.541325 
L 104.52075 133.611083 
L 104.608301 133.332051 
L 104.621176 133.332051 
L 104.762802 132.913505 
L 104.804002 132.808868 
L 104.925028 132.460079 
L 104.927603 132.494958 
L 105.007429 132.215927 
L 105.020304 132.250806 
L 105.035754 132.146169 
L 105.046054 132.250806 
L 105.164505 131.867138 
L 105.17223 131.936896 
L 105.252056 131.622986 
L 105.257206 131.657865 
L 105.401407 131.204439 
L 105.427157 131.134681 
L 105.553333 130.681256 
L 105.579083 130.576619 
L 105.718135 130.088314 
L 105.723285 130.123193 
L 105.728435 130.158072 
L 105.80826 129.879041 
L 105.815985 129.879041 
L 105.864911 129.774404 
L 106.006537 129.355858 
L 106.011687 129.425615 
L 106.058037 129.146584 
L 106.101813 129.146584 
L 106.135288 129.076827 
L 106.261464 128.65828 
L 106.292364 128.553643 
L 106.302664 128.588522 
L 106.444291 127.995581 
L 106.485491 127.890944 
L 106.637417 127.332882 
L 106.639992 127.367761 
L 106.706943 127.053851 
L 106.727543 127.053851 
L 106.848569 126.600425 
L 106.866594 126.635304 
L 106.900069 126.670183 
L 106.94127 126.46091 
L 106.96702 126.530667 
L 107.106071 126.077242 
L 107.108646 126.112121 
L 107.111221 126.147 
L 107.185897 125.902847 
L 107.201347 125.937726 
L 107.327523 125.484301 
L 107.353273 125.519179 
L 107.415074 125.240148 
L 107.422799 125.275027 
L 107.569575 124.751844 
L 107.57215 124.786723 
L 107.659701 124.507692 
L 107.670001 124.54257 
L 107.796177 124.158903 
L 107.801327 124.193782 
L 107.850252 123.91475 
L 107.886302 123.91475 
L 108.045954 123.252051 
L 108.087154 123.147415 
L 108.236505 122.589352 
L 108.23908 122.65911 
L 108.331781 122.240564 
L 108.465682 121.856896 
L 108.468257 121.926654 
L 108.550658 121.508107 
L 108.563533 121.508107 
L 108.615033 121.40347 
L 108.76181 120.915166 
L 108.78241 120.810529 
L 108.929186 120.287346 
L 108.934336 120.322224 
L 109.001287 120.043193 
L 109.019312 120.043193 
L 109.142913 119.659526 
L 109.168663 119.589768 
L 109.294839 119.136342 
L 109.305139 119.2061 
L 109.395265 118.857311 
L 109.43904 118.752674 
L 109.562641 118.369006 
L 109.567791 118.403885 
L 109.639892 118.124854 
L 109.655342 118.124854 
L 109.804693 117.601671 
L 109.807268 117.671429 
L 109.892244 117.32264 
L 109.905119 117.32264 
L 109.930869 117.218003 
L 110.04932 116.869214 
L 110.051895 116.904093 
L 110.072495 116.799456 
L 110.219272 116.276273 
L 110.224422 116.346031 
L 110.293947 115.997242 
L 110.309397 116.067 
L 110.438148 115.578695 
L 110.463899 115.508937 
L 110.59265 114.985754 
L 110.639 114.881117 
L 110.790926 114.323055 
L 110.824402 114.218418 
L 110.973753 113.660356 
L 110.984053 113.695235 
L 111.061303 113.346446 
L 111.063879 113.381325 
L 111.205505 112.89302 
L 111.076754 113.416204 
L 111.20808 112.927899 
L 111.251855 112.858141 
L 111.383181 112.300079 
L 111.393481 112.334958 
L 111.468157 111.95129 
L 111.470732 112.021048 
L 111.607208 111.32347 
L 111.609783 111.358349 
L 111.679309 110.974681 
L 111.692184 110.974681 
L 111.715359 110.904923 
L 111.846685 110.311982 
L 111.867285 110.242224 
L 111.993461 109.544647 
L 112.001186 109.614404 
L 112.029511 109.509768 
L 112.184013 108.916827 
L 112.212338 108.81219 
L 112.222638 108.847069 
L 112.343664 108.219249 
L 112.374564 108.114612 
L 112.536791 107.382155 
L 112.539366 107.417034 
L 112.608891 107.033366 
L 112.621766 107.103124 
L 112.747942 106.475304 
L 112.894719 105.987 
L 112.930769 105.882363 
L 113.05952 105.394058 
L 113.232046 104.556965 
L 113.265522 104.522086 
L 113.391698 103.859387 
L 113.396848 103.894266 
L 113.468948 103.475719 
L 113.474098 103.475719 
L 113.618299 102.81302 
L 113.631175 102.847899 
L 113.63375 102.882778 
L 113.711 102.568868 
L 113.7213 102.568868 
L 113.739325 102.603747 
L 113.868077 102.045685 
L 113.875802 102.080564 
L 113.945327 101.696896 
L 113.958202 101.766654 
L 114.092103 101.103955 
L 114.110129 101.069076 
L 114.228579 100.441256 
L 114.23373 100.476135 
L 114.236305 100.511013 
L 114.30068 100.162224 
L 114.31613 100.162224 
L 114.437156 99.639041 
L 114.442306 99.67392 
L 114.447456 99.708799 
L 114.522132 99.36001 
L 114.529857 99.36001 
L 114.674058 98.767069 
L 114.679208 98.801948 
L 114.684358 98.836827 
L 114.759034 98.453159 
L 114.761609 98.488038 
L 114.898085 97.720702 
L 114.90066 97.755581 
L 114.970186 97.337034 
L 114.980486 97.337034 
L 115.142712 96.604577 
L 115.145287 96.639456 
L 115.222538 96.22091 
L 115.227688 96.255788 
L 115.346139 95.558211 
L 115.361589 95.627968 
L 115.52124 94.965269 
L 115.52639 95.035027 
L 115.611366 94.511844 
L 115.613941 94.511844 
L 115.619091 94.581602 
L 115.786467 93.639872 
L 115.789042 93.709629 
L 115.881743 93.221325 
L 116.067145 92.209837 
L 116.077445 92.279595 
L 116.149545 91.826169 
L 116.154695 91.895927 
L 116.319497 91.128591 
L 116.322072 91.233228 
L 116.419922 90.744923 
L 116.445673 90.640287 
L 116.618199 89.803193 
L 116.620774 89.838072 
L 116.68515 89.489283 
L 116.703175 89.524162 
L 116.847376 88.582432 
L 116.873126 88.477795 
L 117.025052 87.849975 
L 117.027627 87.954612 
L 117.115178 87.326792 
L 117.122903 87.361671 
L 117.243929 86.908245 
L 117.261954 86.978003 
L 117.264529 87.012882 
L 117.35208 86.698972 
L 117.38298 86.594335 
L 117.522032 85.722363 
L 117.524607 85.792121 
L 117.607007 85.059664 
L 117.740908 84.431844 
L 117.753783 84.501602 
L 117.815584 84.117934 
L 117.831034 84.152813 
L 118.096261 81.990321 
L 118.098836 82.0252 
L 118.124586 81.955442 
L 118.299688 80.211498 
L 118.340888 80.351013 
L 118.392389 79.82783 
L 118.394964 79.82783 
L 118.53144 77.979249 
L 118.56749 78.118764 
L 118.570065 78.153643 
L 118.621566 77.421186 
L 118.624141 77.421186 
L 118.657616 72.189352 
L 118.698816 15.929699 
L 118.770917 67.166792 
L 118.917693 87.640702 
L 118.964043 87.815096 
L 119.010394 87.466308 
L 119.015544 87.501186 
L 119.355447 84.396965 
L 119.358022 84.431844 
L 119.414672 83.804024 
L 119.422397 83.804024 
L 119.448147 83.699387 
L 119.669599 82.199595 
L 119.679899 82.129837 
L 119.81895 81.08347 
L 119.826675 81.153228 
L 119.847276 81.08347 
L 119.994052 80.071982 
L 120.030102 80.037103 
L 120.151128 79.234889 
L 120.158853 79.269768 
L 120.184603 79.20001 
L 120.297904 78.851221 
L 120.305629 78.920979 
L 120.315929 78.851221 
L 120.462706 77.874612 
L 120.475581 77.804854 
L 120.534806 74.840148 
L 120.583732 20.254681 
L 120.658407 62.981325 
L 120.810334 83.420356 
L 120.869559 83.350598 
L 121.026635 81.990321 
L 121.02921 82.0252 
L 121.031785 82.0252 
L 121.152811 80.874197 
L 121.160536 81.013712 
L 121.199162 80.909076 
L 121.369113 79.269768 
L 121.371688 79.304647 
L 121.418039 78.851221 
L 121.459239 79.025615 
L 121.63949 77.979249 
L 121.642065 78.049006 
L 121.680691 77.94437 
L 121.930468 75.886515 
L 121.938193 75.956273 
L 121.956218 75.886515 
L 122.059219 74.770391 
L 122.105569 74.840148 
L 122.154495 74.770391 
L 122.26522 74.212328 
L 122.280671 74.316965 
L 122.350196 74.212328 
L 122.460922 61.655927 
L 122.507272 25.207484 
L 122.576798 54.156965 
L 122.739024 80.071982 
L 122.7622 80.14174 
L 122.921851 79.095373 
L 122.929576 79.025615 
L 123.094377 77.560702 
L 123.114977 77.490944 
L 123.261754 76.479456 
L 123.300379 76.37482 
L 123.47033 75.467968 
L 123.47548 75.502847 
L 123.519256 75.398211 
L 123.712382 73.165961 
L 124.196486 65.562363 
L 124.255712 29.916135 
L 124.325237 53.66866 
L 124.495189 77.281671 
L 124.497764 77.246792 
L 124.572439 77.735096 
L 124.60849 77.665339 
L 124.757841 76.618972 
L 125.27542 71.108107 
L 125.28572 71.038349 
L 125.432496 69.364162 
L 125.453097 69.468799 
L 125.481422 69.399041 
L 125.610173 68.875858 
L 125.687424 69.085131 
L 125.635923 68.840979 
L 125.713174 68.840979 
L 125.715749 68.771221 
L 125.785274 69.573436 
L 125.798149 69.538557 
L 125.847075 69.74783 
L 125.914025 69.468799 
L 125.924326 69.364162 
L 126.071102 68.352674 
L 126.122602 68.248038 
L 126.248778 69.294404 
L 126.472805 64.829906 
L 126.50113 48.227553 
L 126.544906 33.543539 
L 126.606706 50.145892 
L 126.781808 74.944785 
L 126.794683 75.049422 
L 126.817858 75.258695 
L 126.884808 74.840148 
L 126.887383 74.840148 
L 127.03931 73.131083 
L 127.05476 73.096204 
L 127.198961 71.596411 
L 127.201536 71.63129 
L 127.227286 71.526654 
L 127.582639 67.794612 
L 127.600664 67.969006 
L 127.70109 68.073643 
L 127.840141 68.701463 
L 127.853016 68.666584 
L 128.035843 67.655096 
L 128.138844 67.794612 
L 128.102793 67.480702 
L 128.151719 67.759733 
L 128.293345 66.469214 
L 128.200644 67.794612 
L 128.355145 66.504093 
L 128.440121 66.957519 
L 128.463296 66.469214 
L 128.465871 66.504093 
L 128.483897 66.60873 
L 128.581747 67.724854 
L 128.664148 67.55046 
L 128.682173 67.445823 
L 129.109627 62.248868 
L 129.155977 62.527899 
L 129.426354 65.736757 
L 129.49073 65.632121 
L 129.513905 65.667 
L 129.614331 65.248453 
L 129.691581 65.143816 
L 129.936208 60.400287 
L 129.982559 43.344508 
L 130.021184 36.752397 
L 130.08041 46.658003 
L 130.281261 70.271013 
L 130.386837 70.863955 
L 130.417737 70.68956 
L 130.600564 67.724854 
L 130.989392 63.260356 
L 131.022867 63.504508 
L 131.143893 64.446238 
L 131.174794 64.06257 
L 131.246894 64.132328 
L 131.35247 65.108937 
L 131.385945 64.934543 
L 131.396245 65.004301 
L 131.537872 65.841394 
L 131.576497 65.98091 
L 131.630572 65.632121 
L 131.937 62.841809 
L 131.94215 62.876688 
L 131.98335 62.841809 
L 132.058026 63.155719 
L 132.137852 62.80693 
L 132.173902 62.981325 
L 132.191927 62.911567 
L 132.243427 62.667415 
L 132.297503 63.016204 
L 132.364453 63.469629 
L 132.397929 62.841809 
L 132.400504 62.876688 
L 132.52153 62.213989 
L 132.524105 62.283747 
L 132.60393 62.876688 
L 132.655431 62.562778 
L 132.712081 62.248868 
L 132.758432 62.597657 
L 132.766157 62.562778 
L 132.776457 62.702294 
L 132.848557 62.144231 
L 132.864007 62.213989 
L 132.892333 62.318626 
L 132.915508 62.388384 
L 132.969583 61.969837 
L 132.972158 61.969837 
L 132.974733 61.900079 
L 133.039109 62.283747 
L 133.080309 61.969837 
L 133.17301 62.49302 
L 133.206485 62.213989 
L 133.342961 61.376896 
L 133.260561 62.318626 
L 133.355837 61.55129 
L 133.435662 62.144231 
L 133.471712 61.830321 
L 133.533513 61.272259 
L 133.597889 61.411775 
L 133.649389 61.342017 
L 133.765265 59.458557 
L 133.816765 59.807346 
L 133.927491 61.097865 
L 133.976417 60.470045 
L 134.079417 59.35392 
L 134.112893 59.772467 
L 134.156668 59.877103 
L 134.267394 60.225892 
L 134.275119 60.121256 
L 134.287994 60.086377 
L 134.35752 59.423678 
L 134.40387 59.737588 
L 134.468246 60.470045 
L 134.535196 60.29565 
L 134.568671 60.191013 
L 134.591847 60.016619 
L 134.645922 60.365408 
L 134.679397 60.191013 
L 134.715448 60.29565 
L 134.728323 60.365408 
L 134.784973 59.772467 
L 134.787548 59.807346 
L 134.916299 59.144647 
L 134.797848 59.877103 
L 134.939475 59.214404 
L 134.9884 59.702709 
L 135.078526 59.598072 
L 135.086251 59.493436 
L 135.140326 60.191013 
L 135.142901 60.191013 
L 135.215002 60.60956 
L 135.256202 60.29565 
L 135.261352 60.260771 
L 135.325728 60.679318 
L 135.338603 60.679318 
L 135.384953 60.749076 
L 135.464779 60.92347 
L 135.408128 60.714197 
L 135.498254 60.818833 
L 135.534304 60.888591 
L 135.542029 60.749076 
L 135.60898 60.853712 
L 135.807257 59.66783 
L 135.814982 59.563193 
L 136.041584 57.889006 
L 136.046734 57.923885 
L 136.082784 58.168038 
L 136.149734 57.854128 
L 136.152309 57.854128 
L 136.296511 57.261186 
L 136.301661 57.330944 
L 136.337711 57.400702 
L 136.394361 57.086792 
L 136.396936 57.121671 
L 136.435562 57.051913 
L 136.474187 56.912397 
L 136.538563 57.261186 
L 136.546288 57.330944 
L 136.695639 58.900494 
L 136.84499 59.946861 
L 136.994341 58.900494 
L 137.017517 59.109768 
L 137.069017 58.41219 
L 137.092192 58.586584 
L 137.115367 58.691221 
L 137.195193 59.005131 
L 137.226093 58.795858 
L 137.357419 58.307553 
L 137.365144 58.342432 
L 137.37287 58.41219 
L 137.457845 57.958764 
L 137.46042 57.958764 
L 137.529946 58.028522 
L 137.578871 57.854128 
L 137.602046 57.749491 
L 137.650972 57.609975 
L 137.699897 57.889006 
L 137.705047 57.854128 
L 137.751398 58.09828 
L 137.800323 57.714612 
L 137.872424 56.807761 
L 137.939374 56.947276 
L 137.949674 56.877519 
L 138.011475 57.435581 
L 138.171126 59.35392 
L 138.258677 59.284162 
L 138.341077 58.691221 
L 138.263827 59.319041 
L 138.382278 58.900494 
L 138.395153 58.795858 
L 138.462103 58.481948 
L 138.408028 58.830737 
L 138.511029 58.7261 
L 138.567679 58.900494 
L 138.606305 58.551705 
L 138.699005 58.377311 
L 138.65008 58.691221 
L 138.719606 58.481948 
L 138.722181 58.516827 
L 138.794281 57.993643 
L 138.876682 57.78437 
L 138.814881 58.09828 
L 138.905007 57.958764 
L 138.979683 58.168038 
L 139.008008 57.889006 
L 139.170234 56.389214 
L 139.172809 56.424093 
L 139.23976 56.703124 
L 139.185684 56.389214 
L 139.288685 56.493851 
L 139.322161 56.52873 
L 139.414861 56.738003 
L 139.353061 56.424093 
L 139.432886 56.563609 
L 139.443187 56.493851 
L 139.543612 56.249699 
L 139.448337 56.52873 
L 139.561637 56.284577 
L 139.574513 56.145062 
L 139.646613 56.598487 
L 139.649188 56.598487 
L 139.713564 56.668245 
L 139.788239 57.051913 
L 139.826865 56.84264 
L 139.878365 56.738003 
L 139.965916 56.040425 
L 140.004541 56.284577 
L 140.102392 57.400702 
L 140.169342 57.017034 
L 140.280068 56.563609 
L 140.287793 56.598487 
L 140.298094 56.633366 
L 140.347019 55.935788 
L 140.349594 55.935788 
L 140.42427 54.959179 
L 140.493795 55.412605 
L 140.637996 56.354335 
L 140.656021 56.458972 
L 140.849148 57.609975 
L 140.856873 57.505339 
L 140.931549 57.819249 
L 140.959874 57.609975 
L 140.965024 57.609975 
L 141.05515 56.633366 
L 141.08605 57.017034 
L 141.289477 58.272674 
L 141.297202 58.342432 
L 141.330677 58.586584 
L 141.400203 58.133159 
L 141.433678 57.819249 
L 141.510928 58.09828 
L 141.526379 58.168038 
L 141.580454 57.575096 
L 141.719505 55.098695 
L 141.750405 55.168453 
L 141.763281 55.238211 
L 141.830231 54.889422 
L 141.840531 54.889422 
L 141.892032 54.645269 
L 141.956407 54.819664 
L 142.092883 55.517242 
L 142.183009 55.656757 
L 142.128934 55.412605 
L 142.195884 55.412605 
L 142.206184 55.342847 
L 142.30661 54.331359 
L 142.33236 54.645269 
L 142.455961 55.238211 
L 142.458536 55.203332 
L 142.535787 55.656757 
L 142.548662 55.726515 
L 142.620763 56.249699 
L 142.667113 55.935788 
L 142.718613 55.796273 
L 142.764964 56.040425 
L 142.767539 56.040425 
L 142.780414 56.110183 
L 142.831914 55.587 
L 142.847364 55.621878 
L 142.852514 55.587 
L 142.96324 54.959179 
L 142.97354 55.028937 
L 143.017316 55.203332 
L 143.068816 54.680148 
L 143.269668 52.482778 
L 143.115167 54.715027 
L 143.303143 52.971083 
L 143.493695 56.284577 
L 143.49627 56.249699 
L 143.560645 56.84264 
L 143.56322 56.84264 
L 143.56837 56.912397 
L 143.632746 56.319456 
L 143.635321 56.354335 
L 143.722872 56.52873 
L 143.766647 56.075304 
L 143.771797 56.145062 
L 143.849048 55.342847 
L 144.067924 53.877934 
L 144.0911 53.947692 
L 144.276501 56.075304 
L 144.407827 55.517242 
L 144.505678 54.819664 
L 144.552028 55.028937 
L 144.590654 55.27309 
L 144.637004 54.680148 
L 144.649879 54.680148 
L 144.77348 53.319872 
L 144.832706 53.703539 
L 145.028407 54.854543 
L 145.046433 54.959179 
L 145.069608 55.098695 
L 145.128833 54.645269 
L 145.146858 54.715027 
L 145.167459 54.645269 
L 145.288484 54.366238 
L 145.303935 54.401117 
L 145.355435 53.773297 
L 145.486761 52.796688 
L 145.509936 53.145477 
L 145.775163 55.482363 
L 145.785464 55.412605 
L 145.950265 53.843055 
L 145.95284 53.877934 
L 146.079016 53.04084 
L 146.104766 53.284993 
L 146.200042 54.645269 
L 146.266993 53.98257 
L 146.269568 53.912813 
L 146.305618 54.226723 
L 146.375143 53.947692 
L 146.411194 54.156965 
L 146.444669 53.912813 
L 146.488444 54.017449 
L 146.55282 53.738418 
L 146.575995 54.052328 
L 146.596595 54.052328 
L 146.627495 54.156965 
L 146.668696 53.808176 
L 146.699596 53.947692 
L 146.727921 54.017449 
L 146.818047 54.122086 
L 146.751097 53.947692 
L 146.836072 53.98257 
L 146.843797 53.877934 
L 146.987998 52.796688 
L 147.011174 53.04084 
L 147.14765 54.575512 
L 147.1734 54.505754 
L 147.175975 54.435996 
L 147.217175 54.889422 
L 147.271251 54.854543 
L 147.284126 54.889422 
L 147.348501 55.447484 
L 147.397427 55.028937 
L 147.400002 55.063816 
L 147.464377 54.505754 
L 147.469527 54.540633 
L 147.505578 54.749906 
L 147.585403 54.366238 
L 147.624029 54.296481 
L 147.73218 54.156965 
L 147.636904 54.331359 
L 147.73733 54.226723 
L 147.896981 53.319872 
L 147.904706 53.459387 
L 147.920156 53.564024 
L 148.059207 54.505754 
L 148.061782 54.401117 
L 148.095258 54.540633 
L 148.149333 54.156965 
L 148.34246 51.924716 
L 148.448035 51.959595 
L 148.391385 51.715442 
L 148.453185 51.924716 
L 148.45576 51.889837 
L 148.520136 52.517657 
L 148.651462 53.633782 
L 148.664337 53.529145 
L 148.800813 52.796688 
L 148.813688 52.901325 
L 148.875489 52.308384 
L 148.883214 52.203747 
L 148.919264 51.7852 
L 148.996515 51.924716 
L 149.05059 51.7852 
L 149.138141 52.343263 
L 149.145866 52.447899 
L 149.277192 53.284993 
L 149.284917 53.215235 
L 149.290067 53.145477 
L 149.295217 53.005961 
L 149.385343 53.494266 
L 149.434269 53.738418 
L 149.501219 53.564024 
L 149.65572 51.959595 
L 149.712371 52.168868 
L 149.714946 52.203747 
L 149.789621 51.889837 
L 149.807647 51.959595 
L 149.890047 51.192259 
L 149.931248 51.541048 
L 150.075449 53.005961 
L 150.124374 52.692051 
L 150.237675 51.924716 
L 150.268575 52.203747 
L 150.438527 53.564024 
L 150.469427 53.424508 
L 150.479727 53.389629 
L 150.577578 52.203747 
L 150.618778 52.238626 
L 150.649679 52.343263 
L 150.652254 52.41302 
L 150.742379 51.924716 
L 150.747529 51.994474 
L 150.77843 51.680564 
L 150.85053 52.133989 
L 150.853105 52.09911 
L 150.974131 52.482778 
L 150.987006 52.447899 
L 150.989581 52.41302 
L 151.069407 52.761809 
L 151.077132 52.72693 
L 151.110607 53.075719 
L 151.177558 52.482778 
L 151.198158 52.587415 
L 151.234208 52.796688 
L 151.277984 52.517657 
L 151.314034 52.657173 
L 151.324334 52.692051 
L 151.458235 51.715442 
L 151.46596 51.645685 
L 151.553511 51.087622 
L 151.581836 51.47129 
L 151.723462 52.41302 
L 151.749213 52.273505 
L 151.888264 51.47129 
L 151.903714 51.366654 
L 151.970664 50.738833 
L 152.027315 51.017865 
L 152.179241 52.692051 
L 152.204991 52.72693 
L 152.305417 52.064231 
L 152.307992 52.09911 
L 152.351767 51.645685 
L 152.390393 51.715442 
L 152.426443 51.506169 
L 152.490819 51.7852 
L 152.498544 51.750321 
L 152.508844 51.680564 
L 152.63502 50.703955 
L 152.550044 51.7852 
L 152.65047 50.808591 
L 152.68137 50.913228 
L 152.776646 51.262017 
L 152.70197 50.878349 
L 152.802396 51.052743 
L 152.838446 51.052743 
L 152.851322 50.913228 
L 152.925997 51.506169 
L 152.941447 51.47129 
L 152.967198 51.575927 
L 153.031573 51.750321 
L 153.070198 51.506169 
L 153.198949 50.982986 
L 153.211825 51.087622 
L 153.309675 51.296896 
L 153.25045 50.878349 
L 153.332851 51.227138 
L 153.456452 50.320287 
L 153.361176 51.47129 
L 153.474477 50.355166 
L 153.616103 51.227138 
L 153.654728 51.331775 
L 153.703654 51.680564 
L 153.742279 51.017865 
L 153.853005 50.52956 
L 153.86073 50.599318 
L 153.989481 50.913228 
L 153.919955 50.250529 
L 153.992056 50.878349 
L 154.053856 50.773712 
L 154.154282 50.285408 
L 154.095057 50.948107 
L 154.192908 50.320287 
L 154.195483 50.424923 
L 154.265008 49.866861 
L 154.298483 50.145892 
L 154.45556 50.773712 
L 154.494185 50.669076 
L 154.51221 50.494681 
L 154.540535 50.808591 
L 154.599761 50.703955 
L 154.602336 50.738833 
L 154.651261 49.90174 
L 154.736237 49.308799 
L 154.764562 49.657588 
L 154.816063 50.390045 
L 154.913914 50.180771 
L 155.019489 49.064647 
L 154.924214 50.250529 
L 155.089015 49.27392 
L 155.094165 49.343678 
L 155.125065 48.994889 
L 155.192016 49.169283 
L 155.207466 49.134404 
L 155.261541 49.727346 
L 155.374842 50.982986 
L 155.408318 50.738833 
L 155.428918 50.564439 
L 155.488143 50.982986 
L 155.503593 50.913228 
L 155.611744 51.331775 
L 155.637494 51.227138 
L 155.642645 51.122501 
L 155.683845 51.017865 
L 155.719895 51.401532 
L 155.730195 51.401532 
L 155.905297 52.343263 
L 155.74307 51.366654 
L 155.907872 52.308384 
L 155.928472 52.203747 
L 156.052073 51.436411 
L 155.949072 52.238626 
L 156.064948 51.47129 
L 156.067523 51.506169 
L 156.116448 50.773712 
L 156.121598 50.773712 
L 156.240049 50.076135 
L 156.134474 50.878349 
L 156.245199 50.180771 
L 156.252925 50.076135 
L 156.3688 49.692467 
L 156.371375 49.727346 
L 156.402276 50.076135 
L 156.466651 49.622709 
L 156.474376 49.657588 
L 156.484676 49.58783 
L 156.543902 49.936619 
L 156.572227 49.90174 
L 156.685528 50.424923 
L 156.698403 50.390045 
L 156.816854 49.518072 
L 156.827154 49.622709 
L 156.94303 49.727346 
L 157.020281 49.936619 
L 157.046031 49.657588 
L 157.089806 49.134404 
L 157.167057 49.518072 
L 157.174782 49.622709 
L 157.282933 49.971498 
L 157.298383 49.831982 
L 157.352459 49.483193 
L 157.409109 49.797103 
L 157.416834 49.866861 
L 157.483785 50.459802 
L 157.530135 50.111013 
L 157.566185 49.762224 
L 157.648586 49.797103 
L 157.818537 48.785615 
L 157.694936 49.866861 
L 157.828837 48.855373 
L 157.852013 48.96001 
L 157.895788 49.343678 
L 157.965314 48.994889 
L 158.050289 48.611221 
L 158.09149 48.750737 
L 158.264016 50.564439 
L 158.307791 50.180771 
L 158.333542 50.076135 
L 158.397917 50.459802 
L 158.480318 50.948107 
L 158.536968 50.878349 
L 158.645119 50.494681 
L 158.663144 50.634197 
L 158.719795 51.087622 
L 158.781595 50.773712 
L 158.987597 48.157795 
L 159.270849 50.913228 
L 159.008197 48.053159 
L 159.288874 50.738833 
L 159.438226 49.413436 
L 159.482001 49.552951 
L 159.595302 50.006377 
L 159.494876 49.518072 
L 159.605602 49.936619 
L 159.613327 50.041256 
L 159.621052 50.076135 
L 159.672553 49.413436 
L 159.675128 49.413436 
L 159.734353 48.680979 
L 159.811604 48.715858 
L 159.878554 48.471705 
L 159.924905 48.820494 
L 159.96353 48.33219 
L 160.027906 48.994889 
L 160.030481 48.994889 
L 160.166957 50.250529 
L 160.169532 50.180771 
L 160.174682 50.250529 
L 160.226182 49.448314 
L 160.390983 47.983401 
L 160.437334 48.053159 
L 160.478534 48.297311 
L 160.535185 47.70437 
L 160.62016 47.006792 
L 160.681961 47.216065 
L 160.839037 48.541463 
L 160.846762 48.506584 
L 160.918863 48.96001 
L 160.980663 49.204162 
L 161.037314 49.099526 
L 161.063064 49.204162 
L 161.263916 47.529975 
L 161.287091 47.599733 
L 161.420992 48.367069 
L 161.423567 48.33219 
L 161.433867 48.436827 
L 161.529143 48.576342 
L 161.544593 48.471705 
L 161.588368 48.297311 
L 161.637294 48.576342 
L 161.665619 48.33219 
L 161.791795 48.925131 
L 161.693944 48.297311 
L 161.80982 48.785615 
L 161.827845 48.680979 
L 161.972046 47.111429 
L 162.036422 47.355581 
L 162.111098 48.157795 
L 162.172898 47.739249 
L 162.175473 47.70437 
L 162.214098 48.053159 
L 162.263024 47.983401 
L 162.335124 48.506584 
L 162.38405 48.367069 
L 162.469026 47.495096 
L 162.517951 47.739249 
L 162.538551 47.634612 
L 162.592627 48.157795 
L 162.597777 48.088038 
L 162.602927 48.192674 
L 162.662152 47.739249 
L 162.705927 48.01828 
L 162.844979 47.564854 
L 162.847554 47.599733 
L 162.875879 47.669491 
L 162.935104 47.948522 
L 162.97888 47.564854 
L 163.03038 46.692882 
L 163.097331 47.320702 
L 163.223507 48.192674 
L 163.416633 49.343678 
L 163.681861 47.250944 
L 163.702461 47.320702 
L 163.753961 46.937034 
L 163.769411 46.971913 
L 163.774561 46.902155 
L 163.846662 47.425339 
L 163.849237 47.39046 
L 163.874987 47.425339 
L 163.898162 47.181186 
L 163.947088 47.320702 
L 164.034638 46.588245 
L 164.070689 46.797519 
L 164.073264 46.76264 
L 164.145364 47.285823 
L 164.153089 47.146308 
L 164.24064 48.01828 
L 164.284415 47.70437 
L 164.338491 47.146308 
L 164.413167 47.425339 
L 164.449217 47.70437 
L 164.526467 47.564854 
L 164.632043 47.39046 
L 164.539343 47.634612 
L 164.644918 47.460218 
L 164.709294 47.843885 
L 164.747919 47.285823 
L 164.750494 47.320702 
L 164.87152 46.309214 
L 164.899846 46.76264 
L 165.007996 47.599733 
L 165.026022 47.39046 
L 165.110997 47.320702 
L 165.049197 47.529975 
L 165.129022 47.460218 
L 165.134172 47.529975 
L 165.185673 47.146308 
L 165.221723 47.285823 
L 165.270649 46.937034 
L 165.332449 47.285823 
L 165.386525 47.216065 
L 165.407125 47.111429 
L 165.468925 47.878764 
L 165.602826 48.680979 
L 165.605401 48.611221 
L 165.811403 45.855788 
L 165.870628 46.483609 
L 166.001955 47.320702 
L 166.02513 47.181186 
L 166.089505 47.599733 
L 166.09208 47.599733 
L 166.233706 48.96001 
L 166.267182 48.576342 
L 166.272332 48.471705 
L 166.336707 48.855373 
L 166.370183 48.855373 
L 166.385633 48.785615 
L 166.586484 46.065062 
L 166.398508 48.820494 
L 166.591634 46.13482 
L 166.72296 46.797519 
L 166.725535 46.76264 
L 166.728111 46.797519 
L 166.764161 46.204577 
L 166.833686 46.76264 
L 166.836261 46.727761 
L 166.900637 47.146308 
L 166.918662 47.111429 
L 166.936687 47.146308 
L 166.965012 47.529975 
L 167.013938 46.797519 
L 167.039688 46.867276 
L 167.055138 46.797519 
L 167.199339 45.786031 
L 167.201914 45.82091 
L 167.28689 45.332605 
L 167.338391 45.437242 
L 167.415641 45.855788 
L 167.343541 45.367484 
L 167.464567 45.716273 
L 167.485167 45.507 
L 167.559842 46.13482 
L 167.631943 47.041671 
L 167.698893 46.937034 
L 167.83022 46.518487 
L 167.758119 47.111429 
L 167.832795 46.588245 
L 167.90747 46.902155 
L 167.948671 46.727761 
L 168.069697 46.239456 
L 168.082572 46.309214 
L 168.085147 46.413851 
L 168.149522 46.13482 
L 168.185572 46.169699 
L 168.213898 45.855788 
L 168.283423 46.797519 
L 168.311749 47.006792 
L 168.363249 46.378972 
L 168.378699 46.378972 
L 168.50745 45.541878 
L 168.566676 45.681394 
L 168.515175 45.437242 
L 168.613026 45.472121 
L 168.705727 44.914058 
L 168.636201 45.507 
L 168.736627 45.297726 
L 168.852503 46.274335 
L 168.865378 46.13482 
L 168.914303 45.925546 
L 168.981254 46.065062 
L 168.991554 45.995304 
L 169.04048 45.507 
L 169.001854 46.030183 
L 169.110005 45.716273 
L 169.279956 46.553366 
L 169.364932 46.413851 
L 169.334032 46.658003 
L 169.388107 46.588245 
L 169.475658 47.285823 
L 169.395832 46.553366 
L 169.511708 46.937034 
L 169.66621 45.786031 
L 169.69711 45.890667 
L 169.709985 45.960425 
L 169.766635 45.611636 
L 169.797536 45.646515 
L 169.851611 45.716273 
L 170.006112 47.041671 
L 170.008687 47.006792 
L 170.119413 45.890667 
L 170.186364 45.995304 
L 170.315115 46.971913 
L 170.31769 46.867276 
L 170.32284 46.902155 
L 170.36919 46.065062 
L 170.508242 45.088453 
L 170.510817 45.158211 
L 170.526267 45.262847 
L 170.575192 44.948937 
L 170.611242 45.018695 
L 170.698793 44.914058 
L 170.660168 45.088453 
L 170.721968 44.983816 
L 170.809519 45.297726 
L 170.835269 45.053574 
L 170.884195 44.704785 
L 170.93312 45.297726 
L 171.028396 45.82091 
L 171.056721 45.681394 
L 171.064446 45.576757 
L 171.213797 44.809422 
L 171.221522 44.948937 
L 171.231822 44.914058 
L 171.280748 44.669906 
L 171.332248 45.123332 
L 171.334823 45.123332 
L 171.5537 46.76264 
L 171.339973 45.088453 
L 171.561425 46.727761 
L 171.700476 45.507 
L 171.703051 45.541878 
L 171.746827 44.704785 
L 171.749402 44.704785 
L 171.836952 44.007207 
L 171.883303 44.390875 
L 171.896178 44.495512 
L 172.066129 46.344093 
L 172.115055 45.995304 
L 172.176855 46.204577 
L 172.233506 45.786031 
L 172.266981 45.890667 
L 172.333932 46.030183 
L 172.369982 45.716273 
L 172.372557 45.751152 
L 172.375132 45.786031 
L 172.436932 45.19309 
L 172.439507 45.262847 
L 172.485858 44.879179 
L 172.557958 44.914058 
L 172.594009 44.565269 
L 172.666109 44.844301 
L 172.766535 45.646515 
L 172.792285 45.507 
L 172.941637 44.425754 
L 173.072963 44.983816 
L 173.093563 45.088453 
L 173.111588 45.262847 
L 173.191414 44.914058 
L 173.193989 44.914058 
L 173.242914 44.565269 
L 173.294414 45.018695 
L 173.302139 44.983816 
L 173.33304 44.844301 
L 173.36394 45.227968 
L 173.41544 44.948937 
L 173.428316 44.983816 
L 173.482391 44.390875 
L 173.484966 44.390875 
L 173.502991 44.286238 
L 173.521016 44.076965 
L 173.559642 45.018695 
L 173.667792 45.541878 
L 173.678093 45.402363 
L 173.819719 44.809422 
L 173.827444 44.879179 
L 173.832594 44.983816 
L 173.891819 44.669906 
L 173.920145 44.704785 
L 174.069496 43.553782 
L 174.072071 43.58866 
L 174.087521 43.658418 
L 174.247172 45.018695 
L 174.252322 44.983816 
L 174.324423 45.437242 
L 174.326998 45.437242 
L 174.337298 45.541878 
L 174.409399 45.262847 
L 174.429999 45.332605 
L 174.450599 45.402363 
L 174.587075 44.042086 
L 174.636 44.181602 
L 174.669476 43.832813 
L 174.697801 44.042086 
L 174.777627 43.553782 
L 174.705526 44.076965 
L 174.808527 44.042086 
L 174.921828 45.576757 
L 174.965603 45.367484 
L 175.127829 43.972328 
L 175.23083 44.042086 
L 175.192205 43.728176 
L 175.23598 44.007207 
L 175.259156 43.763055 
L 175.341556 44.076965 
L 175.344131 44.076965 
L 175.351856 44.181602 
L 175.395632 44.042086 
L 175.475457 44.704785 
L 175.485757 44.739664 
L 175.544983 45.646515 
L 175.606783 45.19309 
L 175.75356 44.216481 
L 175.761285 44.146723 
L 175.900336 43.27475 
L 175.902911 43.309629 
L 176.003337 44.007207 
L 176.034237 43.58866 
L 176.075437 43.170114 
L 176.129513 43.972328 
L 176.142388 44.042086 
L 176.276289 45.82091 
L 176.309764 45.576757 
L 176.325214 45.681394 
L 176.332939 45.751152 
L 176.397315 45.158211 
L 176.412765 45.053574 
L 176.623917 43.658418 
L 176.765543 44.530391 
L 176.775843 44.425754 
L 176.788718 44.460633 
L 176.917469 43.58866 
L 176.932919 43.484024 
L 176.992145 43.065477 
L 177.05137 43.379387 
L 177.05652 43.449145 
L 177.203297 44.914058 
L 177.216172 44.844301 
L 177.324323 44.181602 
L 177.334623 44.286238 
L 177.450499 44.042086 
L 177.393848 44.460633 
L 177.453074 44.076965 
L 177.483974 44.181602 
L 177.525174 43.58866 
L 177.538049 43.728176 
L 177.548349 43.797934 
L 177.659075 43.972328 
L 177.602425 43.623539 
L 177.66165 43.90257 
L 177.684825 43.797934 
L 177.700276 43.728176 
L 177.762076 43.972328 
L 177.787826 43.867692 
L 177.818727 43.90257 
L 177.867652 43.449145 
L 177.998978 42.751567 
L 178.011853 42.96084 
L 178.132879 44.146723 
L 178.166354 43.623539 
L 178.26678 43.170114 
L 178.28738 43.309629 
L 178.382656 43.972328 
L 178.423857 43.693297 
L 178.557758 42.786446 
L 178.565483 42.856204 
L 178.668484 42.751567 
L 178.707109 42.472536 
L 178.748309 43.100356 
L 178.905385 44.390875 
L 178.967186 43.832813 
L 179.049587 43.867692 
L 179.052162 43.937449 
L 179.131987 43.344508 
L 179.139712 43.379387 
L 179.157738 43.414266 
L 179.278764 42.925961 
L 179.412665 43.693297 
L 179.327689 42.612051 
L 179.41524 43.658418 
L 179.438415 43.58866 
L 179.464165 43.344508 
L 179.510515 43.867692 
L 179.541416 43.728176 
L 179.572316 43.832813 
L 179.636691 43.309629 
L 179.814368 41.426169 
L 179.966294 42.542294 
L 180.120795 43.484024 
L 180.138821 43.379387 
L 180.167146 43.27475 
L 180.208346 42.64693 
L 180.280447 43.170114 
L 180.411773 43.867692 
L 180.293322 43.135235 
L 180.414348 43.832813 
L 180.499324 43.518903 
L 180.473573 43.867692 
L 180.537949 43.658418 
L 180.540524 43.693297 
L 180.599749 43.27475 
L 180.633225 43.449145 
L 180.751676 42.612051 
L 180.64095 43.484024 
L 180.798026 42.64693 
L 180.800601 42.716688 
L 180.888152 42.33302 
L 180.895877 42.367899 
L 180.960252 42.053989 
L 181.022053 42.123747 
L 181.150804 43.484024 
L 181.163679 43.379387 
L 181.184279 43.484024 
L 181.25123 43.065477 
L 181.269255 43.170114 
L 181.300155 43.344508 
L 181.343931 42.751567 
L 181.454656 41.530806 
L 181.495857 41.600564 
L 181.506157 41.495927 
L 181.516457 41.39129 
L 181.565382 42.088868 
L 181.658083 42.577173 
L 181.683833 42.472536 
L 181.694133 42.577173 
L 181.853785 41.635442 
L 181.951636 41.7052 
L 181.889835 41.461048 
L 181.961936 41.600564 
L 182.008286 41.426169 
L 182.072661 41.600564 
L 182.157637 41.495927 
L 182.198838 41.809837 
L 182.206563 41.914474 
L 182.247763 42.263263 
L 182.332739 42.158626 
L 182.358489 42.053989 
L 182.407414 42.507415 
L 182.430589 42.298141 
L 182.510415 42.088868 
L 182.567066 42.64693 
L 182.577366 42.751567 
L 182.726717 43.90257 
L 182.876068 42.542294 
L 182.883793 42.64693 
L 182.909543 42.542294 
L 182.950744 42.472536 
L 182.994519 42.856204 
L 183.07177 43.309629 
L 183.11297 43.100356 
L 183.169621 42.925961 
L 183.200521 43.379387 
L 183.257171 43.728176 
L 183.303522 43.309629 
L 183.308672 43.309629 
L 183.483773 42.437657 
L 183.514673 42.542294 
L 183.532698 42.716688 
L 183.602224 41.949352 
L 183.756725 40.589076 
L 183.779901 40.937865 
L 183.911227 42.088868 
L 183.934402 41.984231 
L 183.983327 42.612051 
L 184.140403 43.90257 
L 184.161004 43.623539 
L 184.279455 41.356411 
L 184.320655 41.565685 
L 184.330955 41.635442 
L 184.390181 41.112259 
L 184.395331 41.112259 
L 184.488031 40.902986 
L 184.441681 41.216896 
L 184.506056 41.112259 
L 184.580732 41.740079 
L 184.621932 41.321532 
L 184.714633 40.44956 
L 184.750683 41.07738 
L 184.879435 41.879595 
L 184.894885 41.984231 
L 184.925785 42.263263 
L 184.977285 41.949352 
L 185.005611 41.984231 
L 185.008186 41.914474 
L 185.080286 42.542294 
L 185.095736 42.542294 
L 185.286288 40.902986 
L 185.152387 42.751567 
L 185.304313 41.216896 
L 185.306888 41.216896 
L 185.348088 41.565685 
L 185.422764 41.495927 
L 185.443364 41.774958 
L 185.484565 41.461048 
L 185.536065 41.565685 
L 185.58499 41.635442 
L 185.716316 40.589076 
L 185.718891 40.658833 
L 185.767817 39.961256 
L 185.827042 40.589076 
L 186.012444 42.263263 
L 186.051069 42.123747 
L 186.061369 42.228384 
L 186.071669 42.33302 
L 186.13347 41.7052 
L 186.177245 41.670321 
L 186.17982 41.565685 
L 186.239046 42.053989 
L 186.287971 41.635442 
L 186.305996 41.565685 
L 186.427022 40.76347 
L 186.442472 40.833228 
L 186.537748 40.833228 
L 186.589249 41.600564 
L 186.651049 41.07738 
L 186.658774 40.972743 
L 186.756625 39.298557 
L 186.797825 39.751982 
L 187.034727 41.809837 
L 187.055327 41.740079 
L 187.204679 40.833228 
L 187.075928 41.844716 
L 187.227854 40.902986 
L 187.245879 40.798349 
L 187.310254 40.554197 
L 187.35918 40.693712 
L 187.575482 42.263263 
L 187.580632 42.228384 
L 187.585782 42.298141 
L 187.735133 41.600564 
L 187.737708 41.635442 
L 187.796933 40.937865 
L 187.820109 40.868107 
L 187.93856 40.379802 
L 187.941135 40.484439 
L 187.982335 39.891498 
L 188.03641 40.031013 
L 188.051861 39.891498 
L 188.129111 40.13565 
L 188.147136 40.031013 
L 188.149711 40.065892 
L 188.193487 39.717103 
L 188.237262 39.751982 
L 188.257862 39.786861 
L 188.399488 41.042501 
L 188.556565 40.344923 
L 188.417514 41.182017 
L 188.55914 40.379802 
L 188.561715 40.44956 
L 188.63639 39.82174 
L 188.649265 39.856619 
L 188.765141 39.751982 
L 188.829517 39.50783 
L 188.778017 39.856619 
L 188.865567 39.717103 
L 188.981443 40.170529 
L 188.989168 40.275166 
L 189.074144 40.937865 
L 189.120494 40.554197 
L 189.171995 40.623955 
L 189.264696 41.007622 
L 189.285296 40.76347 
L 189.313621 40.519318 
L 189.380571 40.833228 
L 189.393447 40.728591 
L 189.486147 41.042501 
L 189.426922 40.658833 
L 189.506748 40.833228 
L 189.519623 40.728591 
L 189.643224 39.926377 
L 189.674124 40.065892 
L 189.8209 41.495927 
L 189.833775 41.426169 
L 189.980551 40.100771 
L 189.988276 40.170529 
L 189.993427 40.240287 
L 190.080977 39.786861 
L 190.083552 39.82174 
L 190.235479 38.635858 
L 190.469805 40.519318 
L 190.477531 40.414681 
L 190.650057 39.298557 
L 190.662932 39.403193 
L 190.735033 39.786861 
L 190.781383 39.50783 
L 190.838033 39.228799 
L 190.863784 39.50783 
L 191.002835 78.990737 
L 191.265487 91.407622 
L 191.492089 94.546723 
L 191.494664 94.511844 
L 191.553889 95.104785 
L 191.559039 95.104785 
L 191.801091 96.883609 
L 191.824267 96.988245 
L 191.973618 98.069491 
L 191.989068 98.174128 
L 192.128119 98.941463 
L 192.153869 99.0461 
L 192.164169 99.011221 
L 192.285195 99.639041 
L 192.28777 99.604162 
L 192.357296 100.057588 
L 192.367596 100.022709 
L 192.496347 100.859802 
L 192.511797 100.824923 
L 192.581323 101.208591 
L 192.748699 101.975927 
L 192.751274 101.941048 
L 192.828525 102.324716 
L 192.8311 102.324716 
L 192.83625 102.289837 
L 192.995901 103.092051 
L 192.998476 103.057173 
L 193.049977 103.301325 
L 193.083452 103.266446 
L 193.199328 103.75475 
L 193.201903 103.719872 
L 193.227653 103.789629 
L 193.237953 103.75475 
L 193.351254 104.208176 
L 193.356404 104.138418 
L 193.44138 104.556965 
L 193.449105 104.522086 
L 193.577856 105.045269 
L 193.580431 104.975512 
L 193.675707 105.359179 
L 193.698882 105.463816 
L 193.709182 105.428937 
L 193.840508 105.882363 
L 193.871408 105.987 
L 193.884283 105.952121 
L 194.01561 106.440425 
L 194.018185 106.405546 
L 194.09286 106.649699 
L 194.11346 106.61482 
L 194.139211 106.719456 
L 194.265387 107.138003 
L 194.285987 107.103124 
L 194.358087 107.382155 
L 194.360662 107.347276 
L 194.432763 107.451913 
L 194.450788 107.382155 
L 194.556364 107.661186 
L 194.558939 107.626308 
L 194.64649 107.87046 
L 194.654215 107.835581 
L 194.68769 107.940218 
L 194.819016 108.219249 
L 194.867942 108.149491 
L 194.916867 108.323885 
L 194.924592 108.219249 
L 195.043043 108.533159 
L 195.063643 108.463401 
L 195.122869 108.707553 
L 195.146044 108.707553 
L 195.200119 108.777311 
L 195.295395 109.021463 
L 195.315995 108.951705 
L 195.406121 109.056342 
L 195.527147 109.230737 
L 195.560622 109.160979 
L 195.594098 109.300494 
L 195.632723 109.265615 
L 195.746024 109.509768 
L 195.758899 109.474889 
L 195.784649 109.44001 
L 195.794949 109.544647 
L 195.864475 109.544647 
L 195.980351 109.614404 
L 196.098802 109.823678 
L 196.124552 109.75392 
L 196.194077 109.928314 
L 196.201802 109.928314 
L 196.294503 110.032951 
L 196.356304 110.172467 
L 196.302228 109.998072 
L 196.407804 110.06783 
L 196.51338 109.928314 
L 196.415529 110.102709 
L 196.52368 109.963193 
L 196.55973 110.102709 
L 196.636981 110.032951 
L 196.721957 109.998072 
L 196.706507 110.102709 
L 196.747707 110.032951 
L 196.758007 109.998072 
L 196.871308 110.207346 
L 196.922808 110.137588 
L 196.927958 110.277103 
L 196.979459 110.277103 
L 197.07216 110.416619 
L 197.012934 110.242224 
L 197.09791 110.38174 
L 197.409487 110.416619 
L 197.417212 110.38174 
L 197.522788 110.521256 
L 197.582014 110.38174 
L 197.566564 110.556135 
L 197.636089 110.486377 
L 197.71849 110.556135 
L 197.813766 110.486377 
L 197.829216 110.625892 
L 197.860116 110.521256 
L 197.927067 110.660771 
L 197.937367 110.660771 
L 198.040368 110.730529 
L 197.973417 110.556135 
L 198.048093 110.660771 
L 198.138218 110.625892 
L 198.073843 110.730529 
L 198.156244 110.660771 
L 198.266969 110.730529 
L 198.161394 110.625892 
L 198.269544 110.69565 
L 198.38027 110.625892 
L 198.274695 110.730529 
L 198.382845 110.660771 
L 198.462671 110.730529 
L 198.416321 110.625892 
L 198.496146 110.69565 
L 198.588847 110.591013 
L 198.552797 110.730529 
L 198.604297 110.660771 
L 198.691848 110.625892 
L 198.715023 110.730529 
L 198.812874 110.660771 
L 198.758798 110.800287 
L 198.820599 110.69565 
L 198.8927 110.800287 
L 198.872099 110.660771 
L 198.931325 110.730529 
L 198.982825 110.660771 
L 199.083251 110.591013 
L 198.987975 110.69565 
L 199.090976 110.69565 
L 199.106426 110.730529 
L 199.152777 110.591013 
L 199.196552 110.625892 
L 199.250628 110.556135 
L 199.232602 110.69565 
L 199.304703 110.660771 
L 199.672931 110.765408 
L 199.721856 110.800287 
L 199.747607 110.69565 
L 199.781082 110.730529 
L 200.442862 110.765408 
L 200.445437 110.870045 
L 200.540713 110.69565 
L 200.551013 110.765408 
L 200.623114 110.660771 
L 200.579338 110.800287 
L 200.661739 110.765408 
L 200.702939 110.765408 
L 200.80079 110.591013 
L 200.81624 110.625892 
L 202.0368 110.730529 
L 202.04195 110.69565 
L 202.155251 110.835166 
L 202.227352 110.870045 
L 202.268552 110.730529 
L 202.356103 110.800287 
L 202.320053 110.69565 
L 202.379278 110.730529 
L 202.58013 110.660771 
L 202.659956 110.486377 
L 202.693431 110.591013 
L 203.038484 110.69565 
L 203.053934 110.730529 
L 203.105434 110.556135 
L 203.141484 110.625892 
L 203.144059 110.591013 
L 203.18526 110.69565 
L 203.25221 110.625892 
L 203.321736 110.660771 
L 203.350061 110.521256 
L 203.360361 110.591013 
L 203.383536 110.625892 
L 203.471087 110.521256 
L 203.584388 110.625892 
L 203.504562 110.486377 
L 203.586963 110.591013 
L 203.607563 110.556135 
L 203.666789 110.69565 
L 203.687389 110.69565 
L 203.79554 110.765408 
L 203.736314 110.591013 
L 203.798115 110.730529 
L 203.865065 110.660771 
L 203.903691 110.765408 
L 203.906266 110.730529 
L 203.944891 110.800287 
L 203.919141 110.69565 
L 204.019567 110.765408 
L 204.403245 110.870045 
L 204.408395 110.939802 
L 204.41612 110.800287 
L 204.513971 110.870045 
L 204.658172 110.870045 
L 204.660747 110.730529 
L 204.740573 110.939802 
L 204.766323 110.904923 
L 205.283902 110.800287 
L 205.384328 110.870045 
L 205.392053 110.765408 
L 205.497629 110.904923 
L 205.505354 110.870045 
L 205.67273 110.939802 
L 205.742256 111.044439 
L 205.719081 110.904923 
L 205.783456 110.974681 
L 207.361944 111.044439 
L 207.369669 111.114197 
L 207.400569 110.974681 
L 207.470095 110.974681 
L 207.678672 111.00956 
L 207.740472 110.835166 
L 207.789398 110.904923 
L 207.882098 111.00956 
L 207.853773 110.835166 
L 207.902699 110.939802 
L 207.941324 110.974681 
L 208.02115 110.835166 
L 208.049475 110.904923 
L 208.0984 110.974681 
L 208.07265 110.835166 
L 208.160201 110.904923 
L 208.502678 110.835166 
L 208.587654 110.730529 
L 208.556754 110.870045 
L 208.615979 110.765408 
L 208.706105 110.835166 
L 208.66748 110.69565 
L 208.72413 110.765408 
L 208.801381 110.69565 
L 208.749881 110.835166 
L 208.832281 110.800287 
L 209.089783 110.870045 
L 209.092358 110.939802 
L 209.146434 110.765408 
L 209.197934 110.835166 
L 209.30351 110.730529 
L 209.31381 110.765408 
L 209.741264 110.835166 
L 209.808214 110.939802 
L 209.754139 110.800287 
L 209.84684 110.800287 
L 209.849415 110.730529 
L 209.92409 110.904923 
L 209.95499 110.870045 
L 210.024516 110.974681 
L 209.978166 110.835166 
L 210.068291 110.939802 
L 210.189317 110.835166 
L 210.209918 110.939802 
L 210.302618 110.765408 
L 210.354119 110.870045 
L 210.310343 110.730529 
L 210.413344 110.765408 
L 210.915473 110.835166 
L 210.961824 110.904923 
L 211.015899 110.765408 
L 211.026199 110.835166 
L 211.342927 110.800287 
L 211.345502 110.69565 
L 211.373827 110.870045 
L 211.453653 110.800287 
L 211.533478 110.835166 
L 211.530903 110.69565 
L 211.561804 110.765408 
L 212.697388 110.69565 
L 212.810689 110.591013 
L 212.851889 110.69565 
L 212.854464 110.730529 
L 212.92914 110.556135 
L 212.95489 110.660771 
L 213.060466 110.556135 
L 212.98579 110.69565 
L 213.068191 110.591013 
L 213.099091 110.556135 
L 213.181492 110.69565 
L 213.184067 110.591013 
L 213.189217 110.730529 
L 213.289643 110.69565 
L 213.400369 110.765408 
L 213.307668 110.660771 
L 213.402944 110.730529 
L 213.634696 110.660771 
L 213.732546 110.486377 
L 213.642421 110.69565 
L 213.747997 110.556135 
L 214.219225 110.660771 
L 214.317076 110.69565 
L 214.270726 110.591013 
L 214.327376 110.625892 
L 214.407202 110.521256 
L 214.371152 110.660771 
L 214.440677 110.591013 
L 214.474153 110.69565 
L 214.520503 110.556135 
L 214.553978 110.625892 
L 214.664704 110.486377 
L 214.572003 110.660771 
L 214.667279 110.521256 
L 214.705904 110.625892 
L 214.77543 110.521256 
L 214.79088 110.591013 
L 214.886156 110.486377 
L 214.965982 110.625892 
L 214.996882 110.591013 
L 215.002032 110.521256 
L 215.079282 110.660771 
L 215.105033 110.625892 
L 215.133358 110.660771 
L 215.197733 110.521256 
L 215.213184 110.591013 
L 216.155641 110.521256 
L 216.266367 110.38174 
L 216.163366 110.556135 
L 216.268942 110.451498 
L 216.341043 110.311982 
L 216.286967 110.521256 
L 216.387393 110.346861 
L 216.449194 110.311982 
L 216.503269 110.451498 
L 216.552195 110.346861 
L 216.57537 110.486377 
L 216.613995 110.451498 
L 217.2732 110.486377 
L 217.275776 110.591013 
L 217.335001 110.416619 
L 217.381351 110.416619 
L 217.414827 110.451498 
L 217.435427 110.346861 
L 217.489502 110.38174 
L 217.638853 110.451498 
L 217.690354 110.556135 
L 217.744429 110.416619 
L 217.749579 110.451498 
L 217.914381 110.346861 
L 218.022532 110.277103 
L 217.934981 110.416619 
L 218.025107 110.346861 
L 218.086907 110.277103 
L 218.202783 110.102709 
L 218.241408 110.242224 
L 218.316084 110.172467 
L 218.496336 110.137588 
L 218.596761 110.032951 
L 218.607061 110.137588 
L 218.728087 109.998072 
L 218.751263 110.102709 
L 218.820788 109.893436 
L 218.836238 109.963193 
L 218.846538 110.032951 
L 218.954689 109.823678 
L 218.98559 109.928314 
L 219.03709 109.788799 
L 219.065415 109.858557 
L 219.170991 109.75392 
L 219.178716 109.823678 
L 219.66797 109.788799 
L 219.69887 109.823678 
L 219.778696 109.684162 
L 219.832772 109.75392 
L 219.853372 109.649283 
L 219.886847 109.684162 
L 219.948647 109.614404 
L 219.987273 109.75392 
L 219.997573 109.684162 
L 220.085124 109.823678 
L 220.110874 109.75392 
L 220.170099 109.684162 
L 220.180399 109.823678 
L 220.2216 109.75392 
L 220.2628 109.858557 
L 220.324601 109.684162 
L 220.332326 109.75392 
L 220.360651 109.788799 
L 220.450777 109.649283 
L 220.476527 109.75392 
L 220.502277 109.614404 
L 220.561502 109.684162 
L 220.584678 109.719041 
L 220.679953 109.544647 
L 220.798404 109.649283 
L 220.90398 109.579526 
L 220.901405 109.719041 
L 220.90913 109.614404 
L 220.947756 109.579526 
L 221.027581 109.75392 
L 221.055907 109.649283 
L 221.135732 109.823678 
L 221.166632 109.75392 
L 221.231008 109.928314 
L 221.243883 109.858557 
L 221.256758 109.788799 
L 221.357184 109.928314 
L 221.475635 109.823678 
L 221.807813 109.893436 
L 221.918539 109.998072 
L 221.892788 109.858557 
L 221.921114 109.963193 
L 222.289342 109.998072 
L 222.291917 110.102709 
L 222.387192 109.823678 
L 222.397493 109.998072 
L 222.497918 109.893436 
L 222.510793 109.928314 
L 222.63697 110.137588 
L 222.732245 110.06783 
L 222.660145 110.172467 
L 222.75027 110.102709 
L 222.801771 110.207346 
L 222.855846 110.311982 
L 222.809496 110.172467 
L 222.915072 110.277103 
L 222.925372 110.172467 
L 222.966572 110.311982 
L 223.023223 110.277103 
L 223.056698 110.311982 
L 223.103048 110.172467 
L 223.126224 110.242224 
L 223.218924 110.172467 
L 223.131374 110.277103 
L 223.236949 110.242224 
L 223.643803 110.311982 
L 223.679853 110.416619 
L 223.757104 110.38174 
L 223.795729 110.416619 
L 223.870405 110.277103 
L 223.92448 110.416619 
L 223.983706 110.346861 
L 224.024906 110.451498 
L 224.058381 110.277103 
L 224.094432 110.346861 
L 224.254083 110.38174 
L 224.277258 110.346861 
L 224.362234 110.486377 
L 224.460085 110.346861 
L 224.47296 110.416619 
L 224.936463 110.311982 
L 224.998264 110.277103 
L 225.013714 110.38174 
L 225.042039 110.346861 
L 225.13474 110.416619 
L 225.057489 110.277103 
L 225.152765 110.346861 
L 225.211991 110.277103 
L 225.248041 110.416619 
L 225.263491 110.346861 
L 225.281516 110.277103 
L 225.379367 110.451498 
L 225.425717 110.486377 
L 225.492668 110.38174 
L 225.546743 110.486377 
L 225.520993 110.346861 
L 225.605969 110.451498 
L 225.72442 110.311982 
L 225.73987 110.416619 
L 225.79137 110.277103 
L 225.829996 110.277103 
L 225.840296 110.242224 
L 225.881496 110.38174 
L 225.940722 110.277103 
L 226.110673 110.346861 
L 226.113248 110.416619 
L 226.141573 110.242224 
L 226.218824 110.277103 
L 226.252299 110.346861 
L 226.32955 110.242224 
L 226.3347 110.346861 
L 226.342425 110.207346 
L 226.445426 110.311982 
L 226.507226 110.207346 
L 226.473751 110.346861 
L 226.558727 110.277103 
L 226.594777 110.311982 
L 226.623102 110.172467 
L 226.661728 110.207346 
L 226.664303 110.102709 
L 226.687478 110.277103 
L 226.772453 110.172467 
L 226.888329 110.311982 
L 227.00163 110.207346 
L 226.97073 110.38174 
L 227.004205 110.242224 
L 227.112356 110.38174 
L 227.120081 110.311982 
L 227.426509 110.416619 
L 227.429084 110.486377 
L 227.511485 110.242224 
L 227.53466 110.346861 
L 227.624785 110.242224 
L 227.645386 110.277103 
L 227.658261 110.346861 
L 227.730361 110.207346 
L 227.753537 110.242224 
L 227.913188 110.311982 
L 227.915763 110.38174 
L 227.949238 110.242224 
L 228.021339 110.242224 
L 228.132065 110.38174 
L 228.137215 110.311982 
L 228.268541 110.207346 
L 228.296866 110.277103 
L 228.386992 110.102709 
L 228.407592 110.207346 
L 228.399867 110.06783 
L 228.495143 110.06783 
L 228.672819 110.137588 
L 228.677969 110.102709 
L 228.788695 110.311982 
L 228.824745 110.207346 
L 228.80157 110.346861 
L 228.904571 110.242224 
L 228.971522 110.311982 
L 228.979247 110.172467 
L 229.012722 110.207346 
L 229.182673 110.102709 
L 229.290824 109.963193 
L 229.216149 110.137588 
L 229.298549 110.032951 
L 229.306274 110.06783 
L 229.308849 109.928314 
L 229.4067 109.998072 
L 229.798103 110.06783 
L 229.808403 110.137588 
L 229.877929 109.998072 
L 229.906254 110.06783 
L 229.968055 109.963193 
L 229.911404 110.102709 
L 230.019555 110.032951 
L 230.03243 110.06783 
L 230.05303 109.928314 
L 230.125131 109.963193 
L 230.830687 109.893436 
L 230.833262 109.823678 
L 230.864162 109.963193 
L 230.941413 109.893436 
L 231.144839 109.823678 
L 231.23754 109.75392 
L 231.245265 109.858557 
L 231.255565 109.823678 
L 231.355991 109.893436 
L 231.291616 109.75392 
L 231.366291 109.823678 
L 231.477017 109.75392 
L 231.415217 109.893436 
L 231.479592 109.788799 
L 231.765419 109.75392 
L 231.767995 109.649283 
L 231.793745 109.788799 
L 231.876145 109.75392 
L 232.056397 109.684162 
L 232.110472 109.579526 
L 232.167123 109.649283 
L 232.550801 109.579526 
L 232.646077 109.474889 
L 232.579126 109.649283 
L 232.664102 109.509768 
L 232.759378 109.614404 
L 232.769678 109.579526 
L 232.875254 109.719041 
L 232.888129 109.75392 
L 232.98598 109.649283 
L 233.096705 109.788799 
L 233.09928 109.684162 
L 233.137906 109.823678 
L 233.207431 109.788799 
L 233.235757 109.858557 
L 233.310432 109.719041 
L 233.313007 109.823678 
L 233.405708 109.684162 
L 233.423733 109.75392 
L 233.506134 109.684162 
L 233.614285 109.544647 
L 233.619435 109.579526 
L 233.660635 109.509768 
L 233.732736 109.649283 
L 233.758486 109.579526 
L 233.838311 109.75392 
L 233.840887 109.719041 
L 233.858912 109.684162 
L 233.959337 109.893436 
L 234.028863 109.788799 
L 234.072638 109.823678 
L 234.170489 109.928314 
L 234.188514 109.893436 
L 234.412541 109.963193 
L 234.417691 109.893436 
L 234.525842 110.032951 
L 234.82712 110.06783 
L 234.917245 110.172467 
L 234.937846 110.102709 
L 235.027971 110.032951 
L 234.950721 110.137588 
L 235.048571 110.102709 
L 235.071747 110.172467 
L 235.164447 109.998072 
L 235.259723 110.102709 
L 235.275173 110.032951 
L 235.306074 109.998072 
L 235.326674 110.137588 
L 235.383324 110.06783 
L 235.445125 110.207346 
L 235.501775 110.172467 
L 235.50435 110.102709 
L 235.537825 110.277103 
L 235.609926 110.207346 
L 235.733527 110.416619 
L 235.846828 110.346861 
L 235.872578 110.311982 
L 235.960129 110.416619 
L 236.065705 110.311982 
L 236.029654 110.486377 
L 236.070855 110.38174 
L 236.10948 110.451498 
L 236.142955 110.346861 
L 236.181581 110.38174 
L 236.274281 110.346861 
L 236.194456 110.416619 
L 236.292307 110.38174 
L 236.619334 110.486377 
L 236.696585 110.556135 
L 236.722335 110.416619 
L 236.73006 110.486377 
L 236.887137 110.416619 
L 236.997862 110.311982 
L 237.000437 110.346861 
L 237.247639 110.416619 
L 237.337765 110.521256 
L 237.25279 110.346861 
L 237.358365 110.486377 
L 237.399566 110.556135 
L 237.466516 110.451498 
L 237.548917 110.521256 
L 237.502567 110.416619 
L 237.574667 110.451498 
L 237.680243 110.38174 
L 237.646768 110.521256 
L 237.685393 110.451498 
L 237.687968 110.486377 
L 237.778094 110.277103 
L 237.785819 110.38174 
L 237.793544 110.277103 
L 237.875945 110.416619 
L 237.896545 110.38174 
L 238.117997 110.451498 
L 238.141172 110.556135 
L 238.172072 110.38174 
L 238.228723 110.486377 
L 238.465624 110.556135 
L 238.53515 110.625892 
L 238.4991 110.486377 
L 238.573775 110.486377 
L 238.607251 110.625892 
L 238.684501 110.556135 
L 238.782352 110.486377 
L 238.689651 110.591013 
L 238.792652 110.521256 
L 238.795227 110.591013 
L 238.867328 110.451498 
L 238.903378 110.521256 
L 239.021829 110.416619 
L 239.500783 110.311982 
L 239.554858 110.277103 
L 239.521383 110.38174 
L 239.611509 110.311982 
L 239.78146 110.277103 
L 239.861286 110.311982 
L 239.892186 110.172467 
L 239.923086 110.277103 
L 239.964287 110.137588 
L 240.002912 110.207346 
L 240.113638 110.06783 
L 240.013212 110.242224 
L 240.118788 110.102709 
L 240.216639 110.172467 
L 240.149688 110.032951 
L 240.229514 110.137588 
L 240.265564 109.963193 
L 240.32994 110.172467 
L 240.337665 110.102709 
L 240.34024 110.172467 
L 240.422641 109.963193 
L 240.443241 109.998072 
L 240.505041 109.858557 
L 240.561692 109.893436 
L 240.690443 109.928314 
L 240.693018 110.032951 
L 240.741943 109.858557 
L 240.801169 109.963193 
L 240.875844 110.032951 
L 240.94537 109.928314 
L 240.989145 110.102709 
L 241.089571 109.998072 
L 241.099871 110.06783 
L 241.57625 110.172467 
L 241.578825 110.207346 
L 241.661226 110.032951 
L 241.679251 110.172467 
L 241.681826 110.06783 
L 241.689551 110.207346 
L 241.789977 110.137588 
L 241.998553 110.137588 
L 242.111854 109.963193 
L 242.323006 110.032951 
L 242.423432 110.172467 
L 242.433732 110.06783 
L 242.539308 110.102709 
L 242.619134 110.242224 
L 242.552183 110.06783 
L 242.650034 110.172467 
L 242.665484 110.06783 
L 242.655184 110.207346 
L 242.76591 110.102709 
L 242.789085 110.172467 
L 242.858611 109.998072 
L 242.871486 110.06783 
L 243.000237 109.823678 
L 243.051737 109.928314 
L 243.007962 109.788799 
L 243.116113 109.893436 
L 243.358165 109.963193 
L 243.44314 110.032951 
L 243.38649 109.928314 
L 243.468891 109.998072 
L 243.638842 109.893436 
L 243.698067 109.858557 
L 243.643992 109.963193 
L 243.746993 109.928314 
L 243.808793 109.998072 
L 243.793343 109.858557 
L 243.855144 109.928314 
L 243.857719 109.893436 
L 243.868019 109.998072 
L 243.963295 109.928314 
L 244.081746 110.06783 
L 244.156421 109.963193 
L 244.138396 110.137588 
L 244.192472 110.06783 
L 244.442249 109.998072 
L 244.444824 109.928314 
L 244.527224 110.06783 
L 244.552974 109.998072 
L 244.655975 109.963193 
L 244.6019 110.06783 
L 244.661125 110.032951 
L 244.825927 109.963193 
L 244.851677 109.858557 
L 244.905752 109.998072 
L 244.934078 109.998072 
L 245.266255 110.102709 
L 245.281705 110.06783 
L 245.379556 110.207346 
L 245.418182 110.032951 
L 245.492857 110.102709 
L 245.498007 110.137588 
L 245.608733 109.998072 
L 245.724609 110.137588 
L 245.83791 110.032951 
L 245.933186 110.102709 
L 245.886835 109.963193 
L 245.948636 110.032951 
L 246.445615 109.963193 
L 246.46364 109.998072 
L 246.558916 109.858557 
L 246.612991 110.032951 
L 246.672217 109.963193 
L 246.674792 109.963193 
L 246.677367 109.823678 
L 246.734017 110.032951 
L 246.782943 109.998072 
L 246.883369 110.102709 
L 246.829293 109.963193 
L 246.898819 110.06783 
L 246.983794 109.928314 
L 247.01212 109.963193 
L 247.10997 109.893436 
L 247.120271 109.963193 
L 247.223271 109.823678 
L 247.230996 109.893436 
L 247.264472 109.788799 
L 247.333997 109.858557 
L 247.406098 109.788799 
L 247.434423 109.928314 
L 247.444723 109.858557 
L 247.717675 109.893436 
L 247.738276 110.032951 
L 247.782051 109.858557 
L 247.825826 109.893436 
L 247.941702 109.75392 
L 248.042128 109.823678 
L 247.985478 109.684162 
L 248.052428 109.75392 
L 248.070453 109.823678 
L 248.165729 109.684162 
L 248.25843 109.788799 
L 248.261005 109.649283 
L 248.276455 109.684162 
L 248.353706 109.788799 
L 248.433531 109.823678 
L 248.405206 109.649283 
L 248.454131 109.684162 
L 248.505632 109.649283 
L 248.500482 109.788799 
L 248.559707 109.75392 
L 248.82751 109.719041 
L 248.94081 109.544647 
L 248.948536 109.649283 
L 249.000036 109.509768 
L 249.048961 109.579526 
L 249.051536 109.474889 
L 249.126212 109.614404 
L 249.157112 109.544647 
L 249.231788 109.649283 
L 249.267838 109.614404 
L 249.329639 109.509768 
L 249.373414 109.719041 
L 249.375989 109.684162 
L 249.481565 109.579526 
L 249.412039 109.75392 
L 249.491865 109.614404 
L 250.11502 109.684162 
L 250.12532 109.649283 
L 250.228321 109.75392 
L 250.266946 109.649283 
L 250.238621 109.788799 
L 250.339047 109.75392 
L 250.442048 109.719041 
L 250.344197 109.788799 
L 250.447198 109.75392 
L 250.467798 109.823678 
L 250.483248 109.684162 
L 250.555349 109.719041 
L 251.163054 109.823678 
L 251.186229 109.858557 
L 251.227429 109.719041 
L 251.27378 109.823678 
L 251.654883 109.75392 
L 251.657458 109.684162 
L 251.726983 109.858557 
L 251.760459 109.823678 
L 251.858309 109.963193 
L 251.765609 109.788799 
L 251.876335 109.893436 
L 252.870293 109.963193 
L 252.903768 110.032951 
L 252.893468 109.928314 
L 252.978444 109.963193 
L 253.055694 109.893436 
L 252.996469 109.998072 
L 253.091745 109.928314 
L 253.12522 110.06783 
L 253.207621 109.998072 
L 253.539798 110.06783 
L 253.642799 110.172467 
L 253.650524 110.102709 
L 253.712325 110.207346 
L 253.817901 110.277103 
L 253.722625 110.137588 
L 253.823051 110.242224 
L 253.902876 110.207346 
L 253.923476 110.346861 
L 253.933776 110.242224 
L 253.962102 110.346861 
L 254.003302 110.137588 
L 254.041927 110.277103 
L 254.157803 110.137588 
L 254.219604 110.277103 
L 254.271104 110.242224 
L 254.384405 110.137588 
L 254.518306 110.207346 
L 254.551782 110.277103 
L 254.523456 110.137588 
L 254.626457 110.207346 
L 254.698558 110.06783 
L 254.721733 110.137588 
" clip-path="url(#pd0a92f0ba5)" style="fill: none; stroke: #000000; stroke-opacity: 0.5; stroke-width: 1.5; stroke-linecap: square"/>
   </g>
   <g id="patch_3">
    <path d="M 41.667188 174.689699 
L 41.667188 8.369699 
" style="fill: none; stroke: #000000; stroke-width: 0.8; stroke-linejoin: miter; stroke-linecap: square"/>
   </g>
   <g id="patch_4">
    <path d="M 41.667188 174.689699 
L 264.867187 174.689699 
" style="fill: none; stroke: #000000; stroke-width: 0.8; stroke-linejoin: miter; stroke-linecap: square"/>
   </g>
  </g>
 </g>
 <defs>
  <clipPath id="pd0a92f0ba5">
   <rect x="41.667188" y="8.369699" width="223.2" height="166.32"/>
  </clipPath>
 </defs>
</svg>
