<?xml version="1.0" encoding="utf-8" standalone="no"?>
<!DOCTYPE svg PUBLIC "-//W3C//DTD SVG 1.1//EN"
  "http://www.w3.org/Graphics/SVG/1.1/DTD/svg11.dtd">
<svg xmlns:xlink="http://www.w3.org/1999/xlink" width="272.067187pt" height="197.398125pt" viewBox="0 0 272.067187 197.398125" xmlns="http://www.w3.org/2000/svg" version="1.1">
 <metadata>
  <rdf:RDF xmlns:dc="http://purl.org/dc/elements/1.1/" xmlns:cc="http://creativecommons.org/ns#" xmlns:rdf="http://www.w3.org/1999/02/22-rdf-syntax-ns#">
   <cc:Work>
    <dc:type rdf:resource="http://purl.org/dc/dcmitype/StillImage"/>
    <dc:date>2025-12-19T12:27:10.358227</dc:date>
    <dc:format>image/svg+xml</dc:format>
    <dc:creator>
     <cc:Agent>
      <dc:title>Matplotlib v3.10.7, https://matplotlib.org/</dc:title>
     </cc:Agent>
    </dc:creator>
   </cc:Work>
  </rdf:RDF>
 </metadata>
 <defs>
  <style type="text/css">*{stroke-linejoin: round; stroke-linecap: butt}</style>
 </defs>
 <g id="figure_1">
  <g id="patch_1">
   <path d="M 0 197.398125 
L 272.067187 197.398125 
L 272.067187 0 
L 0 0 
z
" style="fill: #ffffff"/>
  </g>
  <g id="axes_1">
   <g id="patch_2">
    <path d="M 41.667188 173.52 
L 264.867188 173.52 
L 264.867188 7.2 
L 41.667188 7.2 
z
" style="fill: #ffffff"/>
   </g>
   <g id="matplotlib.axis_1">
    <g id="xtick_1">
     <g id="line2d_1">
      <defs>
       <path id="mb8a7f22f21" d="M 0 0 
L 0 3.5 
" style="stroke: #000000; stroke-width: 0.8"/>
      </defs>
      <g>
       <use xlink:href="#mb8a7f22f21" x="82.712896" y="173.52" style="stroke: #000000; stroke-width: 0.8"/>
      </g>
     </g>
     <g id="text_1">
      <!-- 1 -->
      <g transform="translate(79.531646 188.118438) scale(0.1 -0.1)">
       <defs>
        <path id="DejaVuSans-31" d="M 794 531 
L 1825 531 
L 1825 4091 
L 703 3866 
L 703 4441 
L 1819 4666 
L 2450 4666 
L 2450 531 
L 3481 531 
L 3481 0 
L 794 0 
L 794 531 
z
" transform="scale(0.015625)"/>
       </defs>
       <use xlink:href="#DejaVuSans-31"/>
      </g>
     </g>
    </g>
    <g id="xtick_2">
     <g id="line2d_2">
      <g>
       <use xlink:href="#mb8a7f22f21" x="134.213319" y="173.52" style="stroke: #000000; stroke-width: 0.8"/>
      </g>
     </g>
     <g id="text_2">
      <!-- 2 -->
      <g transform="translate(131.032069 188.118438) scale(0.1 -0.1)">
       <defs>
        <path id="DejaVuSans-32" d="M 1228 531 
L 3431 531 
L 3431 0 
L 469 0 
L 469 531 
Q 828 903 1448 1529 
Q 2069 2156 2228 2338 
Q 2531 2678 2651 2914 
Q 2772 3150 2772 3378 
Q 2772 3750 2511 3984 
Q 2250 4219 1831 4219 
Q 1534 4219 1204 4116 
Q 875 4013 500 3803 
L 500 4441 
Q 881 4594 1212 4672 
Q 1544 4750 1819 4750 
Q 2544 4750 2975 4387 
Q 3406 4025 3406 3419 
Q 3406 3131 3298 2873 
Q 3191 2616 2906 2266 
Q 2828 2175 2409 1742 
Q 1991 1309 1228 531 
z
" transform="scale(0.015625)"/>
       </defs>
       <use xlink:href="#DejaVuSans-32"/>
      </g>
     </g>
    </g>
    <g id="xtick_3">
     <g id="line2d_3">
      <g>
       <use xlink:href="#mb8a7f22f21" x="185.713741" y="173.52" style="stroke: #000000; stroke-width: 0.8"/>
      </g>
     </g>
     <g id="text_3">
      <!-- 3 -->
      <g transform="translate(182.532491 188.118438) scale(0.1 -0.1)">
       <defs>
        <path id="DejaVuSans-33" d="M 2597 2516 
Q 3050 2419 3304 2112 
Q 3559 1806 3559 1356 
Q 3559 666 3084 287 
Q 2609 -91 1734 -91 
Q 1441 -91 1130 -33 
Q 819 25 488 141 
L 488 750 
Q 750 597 1062 519 
Q 1375 441 1716 441 
Q 2309 441 2620 675 
Q 2931 909 2931 1356 
Q 2931 1769 2642 2001 
Q 2353 2234 1838 2234 
L 1294 2234 
L 1294 2753 
L 1863 2753 
Q 2328 2753 2575 2939 
Q 2822 3125 2822 3475 
Q 2822 3834 2567 4026 
Q 2313 4219 1838 4219 
Q 1578 4219 1281 4162 
Q 984 4106 628 3988 
L 628 4550 
Q 988 4650 1302 4700 
Q 1616 4750 1894 4750 
Q 2613 4750 3031 4423 
Q 3450 4097 3450 3541 
Q 3450 3153 3228 2886 
Q 3006 2619 2597 2516 
z
" transform="scale(0.015625)"/>
       </defs>
       <use xlink:href="#DejaVuSans-33"/>
      </g>
     </g>
    </g>
    <g id="xtick_4">
     <g id="line2d_4">
      <g>
       <use xlink:href="#mb8a7f22f21" x="237.214164" y="173.52" style="stroke: #000000; stroke-width: 0.8"/>
      </g>
     </g>
     <g id="text_4">
      <!-- 4 -->
      <g transform="translate(234.032914 188.118438) scale(0.1 -0.1)">
       <defs>
        <path id="DejaVuSans-34" d="M 2419 4116 
L 825 1625 
L 2419 1625 
L 2419 4116 
z
M 2253 4666 
L 3047 4666 
L 3047 1625 
L 3713 1625 
L 3713 1100 
L 3047 1100 
L 3047 0 
L 2419 0 
L 2419 1100 
L 313 1100 
L 313 1709 
L 2253 4666 
z
" transform="scale(0.015625)"/>
       </defs>
       <use xlink:href="#DejaVuSans-34"/>
      </g>
     </g>
    </g>
   </g>
   <g id="matplotlib.axis_2">
    <g id="ytick_1">
     <g id="line2d_5">
      <defs>
       <path id="m4f997ef94a" d="M 0 0 
L -3.5 0 
" style="stroke: #000000; stroke-width: 0.8"/>
      </defs>
      <g>
       <use xlink:href="#m4f997ef94a" x="41.667188" y="171.913168" style="stroke: #000000; stroke-width: 0.8"/>
      </g>
     </g>
     <g id="text_5">
      <!-- −100 -->
      <g transform="translate(7.2 175.712387) scale(0.1 -0.1)">
       <defs>
        <path id="DejaVuSans-2212" d="M 678 2272 
L 4684 2272 
L 4684 1741 
L 678 1741 
L 678 2272 
z
" transform="scale(0.015625)"/>
        <path id="DejaVuSans-30" d="M 2034 4250 
Q 1547 4250 1301 3770 
Q 1056 3291 1056 2328 
Q 1056 1369 1301 889 
Q 1547 409 2034 409 
Q 2525 409 2770 889 
Q 3016 1369 3016 2328 
Q 3016 3291 2770 3770 
Q 2525 4250 2034 4250 
z
M 2034 4750 
Q 2819 4750 3233 4129 
Q 3647 3509 3647 2328 
Q 3647 1150 3233 529 
Q 2819 -91 2034 -91 
Q 1250 -91 836 529 
Q 422 1150 422 2328 
Q 422 3509 836 4129 
Q 1250 4750 2034 4750 
z
" transform="scale(0.015625)"/>
       </defs>
       <use xlink:href="#DejaVuSans-2212"/>
       <use xlink:href="#DejaVuSans-31" transform="translate(83.789062 0)"/>
       <use xlink:href="#DejaVuSans-30" transform="translate(147.412109 0)"/>
       <use xlink:href="#DejaVuSans-30" transform="translate(211.035156 0)"/>
      </g>
     </g>
    </g>
    <g id="ytick_2">
     <g id="line2d_6">
      <g>
       <use xlink:href="#m4f997ef94a" x="41.667188" y="150.334242" style="stroke: #000000; stroke-width: 0.8"/>
      </g>
     </g>
     <g id="text_6">
      <!-- −80 -->
      <g transform="translate(13.5625 154.133461) scale(0.1 -0.1)">
       <defs>
        <path id="DejaVuSans-38" d="M 2034 2216 
Q 1584 2216 1326 1975 
Q 1069 1734 1069 1313 
Q 1069 891 1326 650 
Q 1584 409 2034 409 
Q 2484 409 2743 651 
Q 3003 894 3003 1313 
Q 3003 1734 2745 1975 
Q 2488 2216 2034 2216 
z
M 1403 2484 
Q 997 2584 770 2862 
Q 544 3141 544 3541 
Q 544 4100 942 4425 
Q 1341 4750 2034 4750 
Q 2731 4750 3128 4425 
Q 3525 4100 3525 3541 
Q 3525 3141 3298 2862 
Q 3072 2584 2669 2484 
Q 3125 2378 3379 2068 
Q 3634 1759 3634 1313 
Q 3634 634 3220 271 
Q 2806 -91 2034 -91 
Q 1263 -91 848 271 
Q 434 634 434 1313 
Q 434 1759 690 2068 
Q 947 2378 1403 2484 
z
M 1172 3481 
Q 1172 3119 1398 2916 
Q 1625 2713 2034 2713 
Q 2441 2713 2670 2916 
Q 2900 3119 2900 3481 
Q 2900 3844 2670 4047 
Q 2441 4250 2034 4250 
Q 1625 4250 1398 4047 
Q 1172 3844 1172 3481 
z
" transform="scale(0.015625)"/>
       </defs>
       <use xlink:href="#DejaVuSans-2212"/>
       <use xlink:href="#DejaVuSans-38" transform="translate(83.789062 0)"/>
       <use xlink:href="#DejaVuSans-30" transform="translate(147.412109 0)"/>
      </g>
     </g>
    </g>
    <g id="ytick_3">
     <g id="line2d_7">
      <g>
       <use xlink:href="#m4f997ef94a" x="41.667188" y="128.755316" style="stroke: #000000; stroke-width: 0.8"/>
      </g>
     </g>
     <g id="text_7">
      <!-- −60 -->
      <g transform="translate(13.5625 132.554534) scale(0.1 -0.1)">
       <defs>
        <path id="DejaVuSans-36" d="M 2113 2584 
Q 1688 2584 1439 2293 
Q 1191 2003 1191 1497 
Q 1191 994 1439 701 
Q 1688 409 2113 409 
Q 2538 409 2786 701 
Q 3034 994 3034 1497 
Q 3034 2003 2786 2293 
Q 2538 2584 2113 2584 
z
M 3366 4563 
L 3366 3988 
Q 3128 4100 2886 4159 
Q 2644 4219 2406 4219 
Q 1781 4219 1451 3797 
Q 1122 3375 1075 2522 
Q 1259 2794 1537 2939 
Q 1816 3084 2150 3084 
Q 2853 3084 3261 2657 
Q 3669 2231 3669 1497 
Q 3669 778 3244 343 
Q 2819 -91 2113 -91 
Q 1303 -91 875 529 
Q 447 1150 447 2328 
Q 447 3434 972 4092 
Q 1497 4750 2381 4750 
Q 2619 4750 2861 4703 
Q 3103 4656 3366 4563 
z
" transform="scale(0.015625)"/>
       </defs>
       <use xlink:href="#DejaVuSans-2212"/>
       <use xlink:href="#DejaVuSans-36" transform="translate(83.789062 0)"/>
       <use xlink:href="#DejaVuSans-30" transform="translate(147.412109 0)"/>
      </g>
     </g>
    </g>
    <g id="ytick_4">
     <g id="line2d_8">
      <g>
       <use xlink:href="#m4f997ef94a" x="41.667188" y="107.176389" style="stroke: #000000; stroke-width: 0.8"/>
      </g>
     </g>
     <g id="text_8">
      <!-- −40 -->
      <g transform="translate(13.5625 110.975608) scale(0.1 -0.1)">
       <use xlink:href="#DejaVuSans-2212"/>
       <use xlink:href="#DejaVuSans-34" transform="translate(83.789062 0)"/>
       <use xlink:href="#DejaVuSans-30" transform="translate(147.412109 0)"/>
      </g>
     </g>
    </g>
    <g id="ytick_5">
     <g id="line2d_9">
      <g>
       <use xlink:href="#m4f997ef94a" x="41.667188" y="85.597463" style="stroke: #000000; stroke-width: 0.8"/>
      </g>
     </g>
     <g id="text_9">
      <!-- −20 -->
      <g transform="translate(13.5625 89.396682) scale(0.1 -0.1)">
       <use xlink:href="#DejaVuSans-2212"/>
       <use xlink:href="#DejaVuSans-32" transform="translate(83.789062 0)"/>
       <use xlink:href="#DejaVuSans-30" transform="translate(147.412109 0)"/>
      </g>
     </g>
    </g>
    <g id="ytick_6">
     <g id="line2d_10">
      <g>
       <use xlink:href="#m4f997ef94a" x="41.667188" y="64.018537" style="stroke: #000000; stroke-width: 0.8"/>
      </g>
     </g>
     <g id="text_10">
      <!-- 0 -->
      <g transform="translate(28.304688 67.817755) scale(0.1 -0.1)">
       <use xlink:href="#DejaVuSans-30"/>
      </g>
     </g>
    </g>
    <g id="ytick_7">
     <g id="line2d_11">
      <g>
       <use xlink:href="#m4f997ef94a" x="41.667188" y="42.43961" style="stroke: #000000; stroke-width: 0.8"/>
      </g>
     </g>
     <g id="text_11">
      <!-- 20 -->
      <g transform="translate(21.942188 46.238829) scale(0.1 -0.1)">
       <use xlink:href="#DejaVuSans-32"/>
       <use xlink:href="#DejaVuSans-30" transform="translate(63.623047 0)"/>
      </g>
     </g>
    </g>
    <g id="ytick_8">
     <g id="line2d_12">
      <g>
       <use xlink:href="#m4f997ef94a" x="41.667188" y="20.860684" style="stroke: #000000; stroke-width: 0.8"/>
      </g>
     </g>
     <g id="text_12">
      <!-- 40 -->
      <g transform="translate(21.942188 24.659903) scale(0.1 -0.1)">
       <use xlink:href="#DejaVuSans-34"/>
       <use xlink:href="#DejaVuSans-30" transform="translate(63.623047 0)"/>
      </g>
     </g>
    </g>
   </g>
   <g id="line2d_13">
    <path d="M 51.812642 135.140488 
L 52.121645 135.041707 
L 52.147395 134.942927 
L 52.17572 135.107561 
L 52.234946 135.00878 
L 53.311304 135.107561 
L 53.313879 135.140488 
L 53.367955 135.00878 
L 53.419455 135.074634 
L 55.041719 135.140488 
L 55.075194 135.041707 
L 55.155019 135.206341 
L 55.17047 135.173415 
L 55.260595 135.074634 
L 55.22197 135.206341 
L 55.281196 135.140488 
L 55.322396 135.239268 
L 55.348146 135.107561 
L 55.391921 135.173415 
L 55.420247 135.206341 
L 55.507797 135.107561 
L 56.097477 135.206341 
L 56.100052 135.239268 
L 56.136103 135.107561 
L 56.200478 135.140488 
L 56.203053 135.107561 
L 56.233953 135.206341 
L 56.308629 135.173415 
L 56.414205 135.107561 
L 56.419355 135.041707 
L 56.465705 135.173415 
L 56.524931 135.074634 
L 56.540381 135.173415 
L 56.558406 135.041707 
L 56.635657 135.074634 
L 56.962684 135.041707 
L 57.08886 139.552683 
L 57.09401 139.618537 
L 57.261387 141.857561 
L 57.276837 141.956341 
L 57.65794 145.446585 
L 57.660515 145.413659 
L 57.724891 145.940488 
L 57.727466 145.907561 
L 57.881967 147.027073 
L 57.897417 147.092927 
L 58.041618 147.949024 
L 58.23217 149.03561 
L 58.234745 148.969756 
L 58.31972 149.496585 
L 58.322295 149.496585 
L 58.497397 150.319756 
L 58.525722 150.418537 
L 58.680223 151.077073 
L 58.685373 151.044146 
L 58.693099 151.11 
L 58.8167 151.636829 
L 58.82185 151.603902 
L 58.84245 151.669756 
L 58.973776 152.196585 
L 58.991801 152.163659 
L 59.063902 152.46 
L 59.069052 152.394146 
L 59.197803 152.855122 
L 59.233853 152.953902 
L 59.239003 152.920976 
L 59.375479 153.349024 
L 59.380629 153.316098 
L 59.429555 153.546585 
L 59.470755 153.546585 
L 59.589206 153.875854 
L 59.591781 153.842927 
L 59.681907 154.106341 
L 59.684482 154.073415 
L 59.692207 154.040488 
L 59.818383 154.402683 
L 59.836408 154.303902 
L 59.893058 154.600244 
L 59.916234 154.567317 
L 59.985759 154.666098 
L 60.11451 154.896585 
L 60.176311 154.995366 
L 60.274162 155.225854 
L 60.184036 154.962439 
L 60.302487 155.192927 
L 60.372012 155.225854 
L 60.487888 155.522195 
L 60.498188 155.423415 
L 60.554839 155.588049 
L 60.593464 155.522195 
L 60.655265 155.719756 
L 60.706765 155.653902 
L 60.760841 155.78561 
L 60.722215 155.620976 
L 60.822641 155.719756 
L 60.856116 155.818537 
L 60.866416 155.752683 
L 60.974567 155.983171 
L 61.087868 155.917317 
L 61.198594 156.049024 
L 61.206319 156.016098 
L 61.31447 156.081951 
L 61.32992 156.049024 
L 61.425196 156.180732 
L 61.468971 156.081951 
L 61.479271 156.213659 
L 61.535922 156.147805 
L 61.638923 156.213659 
L 61.579697 156.081951 
L 61.646648 156.147805 
L 61.739349 156.279512 
L 61.685273 156.114878 
L 61.762524 156.246585 
L 61.788274 156.213659 
L 61.777974 156.279512 
L 61.8681 156.279512 
L 61.978826 156.41122 
L 61.91445 156.213659 
L 61.983976 156.345366 
L 62.159077 156.41122 
L 62.161652 156.477073 
L 62.256928 156.312439 
L 62.267228 156.41122 
L 62.321303 156.312439 
L 62.362504 156.444146 
L 62.375379 156.41122 
L 62.411429 156.345366 
L 62.491255 156.477073 
L 62.57623 156.345366 
L 62.604556 156.41122 
L 62.699831 156.477073 
L 62.689531 156.378293 
L 62.715282 156.444146 
L 62.810557 156.378293 
L 62.769357 156.51 
L 62.826007 156.444146 
L 62.841458 156.41122 
L 62.941883 156.542927 
L 62.977934 156.41122 
L 63.052609 156.542927 
L 63.055184 156.575854 
L 63.062909 156.477073 
L 63.163335 156.542927 
L 63.276636 156.444146 
L 63.351312 156.575854 
L 63.299811 156.41122 
L 63.387362 156.477073 
L 63.536713 156.378293 
L 63.559888 156.477073 
L 63.650014 156.345366 
L 63.722115 156.41122 
L 63.68349 156.312439 
L 63.76074 156.345366 
L 64.34012 156.279512 
L 64.422521 156.213659 
L 64.36587 156.312439 
L 64.448271 156.279512 
L 64.551272 156.312439 
L 64.466296 156.213659 
L 64.556422 156.279512 
L 64.651697 156.213659 
L 64.569297 156.345366 
L 64.664573 156.312439 
L 64.682598 156.378293 
L 64.752123 156.213659 
L 64.772723 156.312439 
L 64.893749 156.147805 
L 64.98645 156.279512 
L 65.004475 156.180732 
L 65.032801 156.246585 
L 65.115201 156.114878 
L 65.202752 156.180732 
L 65.130651 156.081951 
L 65.225927 156.114878 
L 65.738356 156.049024 
L 65.843932 155.950244 
L 65.748656 156.081951 
L 65.851657 155.983171 
L 66.340911 155.950244 
L 66.343486 155.851463 
L 66.364087 155.983171 
L 66.451637 155.950244 
L 66.528888 155.983171 
L 66.464512 155.851463 
L 66.554638 155.851463 
L 67.170068 155.818537 
L 67.409545 150.879512 
L 67.419845 150.780732 
L 67.630997 148.179512 
L 67.636147 148.179512 
L 67.762323 146.862439 
L 67.764898 146.928293 
L 68.066175 144.491707 
L 68.068751 144.524634 
L 68.130551 144.063659 
L 68.138276 144.063659 
L 68.285052 143.141707 
L 68.478179 142.055122 
L 68.480754 142.088049 
L 68.55543 141.627073 
L 68.58118 141.528293 
L 68.745981 140.836829 
L 68.771731 140.738049 
L 68.928808 140.112439 
L 68.933958 140.145366 
L 69.011208 139.816098 
L 69.016358 139.849024 
L 69.173435 139.256341 
L 69.194035 139.190488 
L 69.204335 139.223415 
L 69.320211 138.762439 
L 69.322786 138.828293 
L 69.410337 138.466098 
L 69.418062 138.466098 
L 69.466987 138.367317 
L 69.603463 138.005122 
L 69.613763 138.038049 
L 69.688439 137.70878 
L 69.698739 137.807561 
L 69.819765 137.51122 
L 69.82234 137.544146 
L 69.915041 137.313659 
L 69.917616 137.346585 
L 70.054092 137.017317 
L 70.090142 136.918537 
L 70.208593 136.688049 
L 70.100442 136.951463 
L 70.213743 136.720976 
L 70.216318 136.753902 
L 70.293569 136.523415 
L 70.309019 136.523415 
L 70.43262 136.26 
L 70.435195 136.292927 
L 70.481545 136.325854 
L 70.515021 136.16122 
L 70.538196 136.227073 
L 70.656647 135.996585 
L 70.679822 136.062439 
L 70.754498 135.897805 
L 70.762223 135.930732 
L 70.867798 135.766098 
L 70.878099 135.799024 
L 70.898699 135.766098 
L 71.00685 135.53561 
L 71.012 135.601463 
L 71.076375 135.502683 
L 71.181951 135.370976 
L 71.194826 135.403902 
L 71.261777 135.338049 
L 71.377653 135.206341 
L 71.382803 135.239268 
L 71.493529 135.107561 
L 71.545029 135.206341 
L 71.596529 135.074634 
L 71.604255 135.140488 
L 71.64803 135.041707 
L 71.758756 134.975854 
L 71.671205 135.107561 
L 71.761331 135.00878 
L 72.000808 134.91 
L 72.093509 134.81122 
L 72.036858 134.975854 
L 72.116684 134.844146 
L 72.327835 134.778293 
L 72.33041 134.712439 
L 72.379336 134.844146 
L 72.435986 134.778293 
L 72.466887 134.679512 
L 72.546712 134.81122 
L 72.654863 134.679512 
L 72.665163 134.712439 
L 72.685763 134.778293 
L 72.732114 134.613659 
L 72.778464 134.745366 
L 72.86859 134.613659 
L 72.89434 134.646585 
L 72.938115 134.745366 
L 72.902065 134.613659 
L 73.005066 134.646585 
L 73.236818 134.712439 
L 73.332094 134.81122 
L 73.244543 134.679512 
L 73.347544 134.712439 
L 73.391319 134.81122 
L 73.406769 134.679512 
L 73.45827 134.745366 
L 73.558696 134.679512 
L 73.49432 134.778293 
L 73.566421 134.712439 
L 73.612771 134.81122 
L 73.584446 134.646585 
L 73.677147 134.712439 
L 73.754397 134.613659 
L 73.684872 134.745366 
L 73.793023 134.646585 
L 73.798173 134.712439 
L 73.885723 134.580732 
L 73.903748 134.646585 
L 73.980999 134.613659 
L 73.968124 134.712439 
L 74.009324 134.712439 
L 74.786981 134.81122 
L 74.866806 134.91 
L 74.817881 134.745366 
L 74.895132 134.778293 
L 74.944057 134.844146 
L 74.998132 134.91 
L 74.985257 134.745366 
L 75.054783 134.844146 
L 75.142334 134.877073 
L 75.065083 134.778293 
L 75.165509 134.844146 
L 75.242759 134.712439 
L 75.281385 134.778293 
L 75.36121 134.844146 
L 75.430736 134.91 
L 75.384386 134.778293 
L 75.469361 134.844146 
L 75.549187 134.778293 
L 75.479661 134.91 
L 75.574937 134.877073 
L 75.683088 134.942927 
L 75.587812 134.778293 
L 75.685663 134.877073 
L 75.92514 134.975854 
L 76.002391 135.00878 
L 75.97149 134.91 
L 76.035866 134.975854 
L 77.444402 135.074634 
L 77.490753 135.107561 
L 77.472728 134.975854 
L 77.549978 135.00878 
L 77.980007 134.942927 
L 78.034082 134.877073 
L 78.003182 135.00878 
L 78.090733 134.942927 
L 78.278709 135.041707 
L 78.296734 134.975854 
L 78.39201 135.107561 
L 78.456386 134.975854 
L 78.502736 135.074634 
L 78.505311 135.107561 
L 78.515611 134.975854 
L 78.608312 135.00878 
L 79.236617 135.074634 
L 79.337043 135.173415 
L 79.254642 135.00878 
L 79.347343 135.107561 
L 79.867497 135.173415 
L 79.875222 135.140488 
L 79.980798 135.272195 
L 80.029724 135.173415 
L 80.006549 135.338049 
L 80.088949 135.272195 
L 80.16105 135.370976 
L 80.15075 135.239268 
L 80.204825 135.338049 
L 80.318126 135.239268 
L 80.22285 135.370976 
L 80.320701 135.272195 
L 80.874331 135.370976 
L 80.961881 135.436829 
L 80.902656 135.305122 
L 80.985057 135.403902 
L 81.067457 135.370976 
L 81.031407 135.469756 
L 81.093207 135.403902 
L 81.157583 135.502683 
L 81.100933 135.370976 
L 81.206508 135.436829 
L 81.211658 135.469756 
L 81.322384 135.338049 
L 81.35071 135.469756 
L 81.43311 135.370976 
L 81.809063 135.338049 
L 81.917214 135.206341 
L 81.919789 135.239268 
L 82.01249 135.338049 
L 81.935239 135.206341 
L 82.03309 135.305122 
L 82.082016 135.370976 
L 82.141241 135.239268 
L 82.205617 135.403902 
L 82.254542 135.338049 
L 82.259692 135.272195 
L 82.272567 135.436829 
L 82.360118 135.403902 
L 82.712896 135.469756 
L 82.841647 142.219756 
L 83.178975 148.014878 
L 83.1867 148.113659 
L 83.85878 155.291707 
L 83.861355 155.25878 
L 83.923156 155.818537 
L 83.925731 155.818537 
L 84.082807 157.003902 
L 84.098257 157.102683 
L 84.330009 158.650244 
L 84.332584 158.617317 
L 84.39181 159.11122 
L 84.40211 159.11122 
L 84.600386 160.230732 
L 84.608111 160.197805 
L 84.680212 160.592927 
L 84.682787 160.592927 
L 84.703387 160.625854 
L 84.826988 161.251463 
L 84.829563 161.218537 
L 84.981489 161.975854 
L 84.996939 161.942927 
L 85.014965 162.00878 
L 85.143716 162.502683 
L 85.174616 162.601463 
L 85.303367 163.062439 
L 85.450143 163.523415 
L 85.481043 163.490488 
L 85.540269 163.753902 
L 85.545419 163.720976 
L 85.596919 163.819756 
L 85.717945 164.181951 
L 85.72052 164.149024 
L 85.787471 164.247805 
L 85.918797 164.544146 
L 85.931672 164.478293 
L 86.006348 164.741707 
L 86.011498 164.741707 
L 86.029523 164.70878 
L 86.140249 164.972195 
L 86.145399 164.906341 
L 86.23295 165.103902 
L 86.240675 165.103902 
L 86.323075 165.202683 
L 86.436376 165.367317 
L 86.444101 165.33439 
L 86.456976 165.268537 
L 86.472427 165.400244 
L 86.552252 165.367317 
L 86.678428 165.564878 
L 86.840655 165.663659 
L 86.959106 165.795366 
L 86.982281 165.762439 
L 87.026056 165.894146 
L 87.067256 165.828293 
L 87.175407 165.927073 
L 87.180557 165.894146 
L 87.270683 165.828293 
L 87.242358 165.96 
L 87.291283 165.86122 
L 87.340209 165.96 
L 87.389134 165.795366 
L 87.399434 165.86122 
L 87.47926 165.795366 
L 87.427759 165.927073 
L 87.51016 165.86122 
L 87.656936 165.795366 
L 87.757362 165.630732 
L 87.770237 165.729512 
L 87.880963 165.597805 
L 87.886113 165.663659 
L 87.947914 165.696585 
L 87.968514 165.531951 
L 87.989114 165.564878 
L 88.09469 165.466098 
L 88.169366 165.33439 
L 88.12044 165.531951 
L 88.210566 165.367317 
L 88.223441 165.433171 
L 88.259491 165.268537 
L 88.310992 165.268537 
L 88.419143 165.136829 
L 88.323867 165.33439 
L 88.429443 165.169756 
L 88.455193 165.23561 
L 88.519568 165.070976 
L 88.535019 165.103902 
L 88.553044 165.136829 
L 88.65347 165.005122 
L 88.67922 165.103902 
L 88.712695 164.906341 
L 88.759045 164.972195 
L 88.779646 165.005122 
L 88.874921 164.807561 
L 88.895522 164.906341 
L 88.921272 164.70878 
L 88.980497 164.741707 
L 88.990797 164.774634 
L 89.106673 164.544146 
L 89.199374 164.445366 
L 89.307525 164.247805 
L 89.322975 164.280732 
L 89.423401 164.181951 
L 89.449151 164.247805 
L 89.539277 164.050244 
L 89.603652 163.951463 
L 89.613952 164.017317 
L 89.729828 163.753902 
L 89.832829 163.655122 
L 89.96158 163.35878 
L 89.964155 163.391707 
L 89.97703 163.490488 
L 90.051706 163.227073 
L 90.064581 163.26 
L 90.152132 163.16122 
L 90.257708 162.930732 
L 90.278308 162.963659 
L 90.301483 163.029512 
L 90.363284 162.831951 
L 90.381309 162.897805 
L 90.507485 162.63439 
L 90.51006 162.667317 
L 90.543535 162.63439 
L 90.636236 162.436829 
L 90.656836 162.469756 
L 90.708336 162.370976 
L 90.821637 162.074634 
L 90.829362 162.107561 
L 90.844813 162.173415 
L 90.875713 162.00878 
L 90.937513 162.041707 
L 90.978714 161.975854 
L 90.999314 162.00878 
L 91.09459 161.745366 
L 91.097165 161.844146 
L 91.14094 161.646585 
L 91.200165 161.646585 
L 91.218191 161.679512 
L 91.323766 161.481951 
L 91.326341 161.547805 
L 91.421617 161.28439 
L 91.429342 161.350244 
L 91.555518 161.053902 
L 91.560668 161.086829 
L 91.568393 161.119756 
L 91.596719 160.922195 
L 91.658519 160.955122 
L 91.697145 160.988049 
L 91.78727 160.724634 
L 91.789845 160.757561 
L 91.874821 160.56 
L 91.887696 160.592927 
L 91.977822 160.494146 
L 92.000997 160.527073 
L 92.101423 160.296585 
L 92.155498 160.329512 
L 92.191549 160.131951 
L 92.201849 160.164878 
L 92.32545 159.967317 
L 92.353775 160.000244 
L 92.389825 159.83561 
L 92.425875 159.901463 
L 92.539176 159.605122 
L 92.546901 159.638049 
L 92.554627 159.703902 
L 92.590677 159.506341 
L 92.649902 159.506341 
L 92.768353 159.30878 
L 92.773503 159.341707 
L 92.776078 159.374634 
L 92.814704 159.21 
L 92.871354 159.21 
L 92.989805 159.012439 
L 93.097956 158.814878 
L 93.005255 159.045366 
L 93.108256 158.880732 
L 93.113406 158.913659 
L 93.182932 158.716098 
L 93.208682 158.749024 
L 93.231857 158.683171 
L 93.347733 158.518537 
L 93.350308 158.58439 
L 93.427559 158.320976 
L 93.453309 158.386829 
L 93.509959 158.320976 
L 93.58721 158.123415 
L 93.625835 158.156341 
L 93.710811 158.090488 
L 93.721111 158.123415 
L 93.829262 157.86 
L 93.857587 157.892927 
L 93.932263 157.76122 
L 94.053289 157.629512 
L 94.068739 157.530732 
L 94.179465 157.366098 
L 94.073889 157.563659 
L 94.189765 157.399024 
L 94.20779 157.464878 
L 94.267016 157.23439 
L 94.287616 157.267317 
L 94.408642 157.102683 
L 94.413792 157.168537 
L 94.480742 156.970976 
L 94.509068 156.970976 
L 94.627519 156.872195 
L 94.74597 156.740488 
L 94.748545 156.839268 
L 94.810345 156.575854 
L 94.85412 156.674634 
L 94.988022 156.378293 
L 95.075572 156.279512 
L 95.196598 156.081951 
L 95.199173 156.114878 
L 95.258399 156.016098 
L 95.3717 155.818537 
L 95.271274 156.049024 
L 95.379425 155.88439 
L 95.474701 155.78561 
L 95.593151 155.620976 
L 95.487576 155.818537 
L 95.595727 155.653902 
L 95.598302 155.719756 
L 95.654952 155.522195 
L 95.701302 155.522195 
L 95.819753 155.291707 
L 95.709027 155.555122 
L 95.824903 155.357561 
L 95.830053 155.423415 
L 95.881554 155.192927 
L 95.930479 155.291707 
L 95.96653 155.192927 
L 95.974255 155.225854 
L 96.095281 154.962439 
L 96.121031 155.028293 
L 96.162231 154.863659 
L 96.198281 154.863659 
L 96.290982 154.699024 
L 96.208582 154.896585 
L 96.316732 154.764878 
L 96.321882 154.797805 
L 96.375958 154.633171 
L 96.419733 154.666098 
L 96.538184 154.43561 
L 96.543334 154.468537 
L 96.57681 154.501463 
L 96.63861 154.369756 
L 96.64891 154.402683 
L 96.757061 154.205122 
L 96.769936 154.238049 
L 96.780236 154.303902 
L 96.847187 154.073415 
L 96.870362 154.106341 
L 96.921862 154.040488 
L 97.035163 153.81 
L 97.037738 153.875854 
L 97.089239 153.777073 
L 97.19739 153.645366 
L 97.20254 153.678293 
L 97.313266 153.579512 
L 97.434292 153.447805 
L 97.480642 153.381951 
L 97.593943 153.250244 
L 97.707244 153.019756 
L 97.717544 153.08561 
L 97.799945 153.019756 
L 97.877195 152.789268 
L 97.915821 152.822195 
L 97.959596 152.888049 
L 97.982771 152.690488 
L 98.023971 152.789268 
L 98.150147 152.591707 
L 98.204223 152.525854 
L 98.296924 152.36122 
L 98.211948 152.55878 
L 98.317524 152.394146 
L 98.320099 152.46 
L 98.4231 152.262439 
L 98.451425 152.295366 
L 98.518376 152.097805 
L 98.523526 152.130732 
L 98.590476 152.031951 
L 98.703777 151.867317 
L 98.603351 152.064878 
L 98.706352 151.933171 
L 98.708927 151.966098 
L 98.773303 151.801463 
L 98.804203 151.83439 
L 98.920079 151.603902 
L 98.922654 151.636829 
L 99.06428 151.538049 
L 99.205906 151.142927 
L 99.226506 151.175854 
L 99.280582 150.978293 
L 99.303757 150.978293 
L 99.411908 150.879512 
L 99.517484 150.681951 
L 99.532934 150.747805 
L 99.65396 150.649024 
L 99.762111 150.550244 
L 99.65911 150.681951 
L 99.767261 150.583171 
L 99.769836 150.649024 
L 99.867687 150.451463 
L 99.872837 150.48439 
L 99.965537 150.418537 
L 100.081413 150.188049 
L 100.083988 150.220976 
L 100.168964 149.957561 
L 100.176689 149.990488 
L 100.27454 149.792927 
L 100.22304 150.056341 
L 100.297715 149.85878 
L 100.439341 149.76 
L 100.547492 149.694146 
L 100.447066 149.825854 
L 100.552642 149.727073 
L 100.617018 149.66122 
L 100.725169 149.529512 
L 100.627318 149.694146 
L 100.730319 149.595366 
L 100.84362 149.430732 
L 100.84877 149.463659 
L 100.85907 149.496585 
L 100.902845 149.331951 
L 100.949195 149.331951 
L 101.052196 149.167317 
L 100.967221 149.364878 
L 101.070221 149.200244 
L 101.090822 149.233171 
L 101.155197 149.002683 
L 101.165497 149.068537 
L 101.273648 148.903902 
L 101.278798 148.969756 
L 101.371499 148.903902 
L 101.4848 148.673415 
L 101.48995 148.706341 
L 101.587801 148.541707 
L 101.5054 148.739268 
L 101.610976 148.574634 
L 101.621276 148.640488 
L 101.672776 148.41 
L 101.716552 148.475854 
L 101.835003 148.278293 
L 101.853028 148.344146 
L 101.932854 148.146585 
L 101.940579 148.146585 
L 102.035854 148.047805 
L 102.051305 148.113659 
L 102.15688 147.883171 
L 102.16718 147.981951 
L 102.247006 147.817317 
L 102.265031 147.850244 
L 102.277906 147.883171 
L 102.388632 147.68561 
L 102.409232 147.78439 
L 102.486483 147.619756 
L 102.494208 147.652683 
L 102.612659 147.455122 
L 102.615234 147.488049 
L 102.620384 147.553902 
L 102.692485 147.323415 
L 102.72081 147.422195 
L 102.839261 147.125854 
L 102.846986 147.191707 
L 102.849561 147.224634 
L 102.924237 147.06 
L 102.949987 147.092927 
L 102.986037 147.027073 
L 103.096763 146.895366 
L 102.996337 147.06 
L 103.099338 146.928293 
L 103.163714 146.829512 
L 103.26929 146.664878 
L 103.174014 146.895366 
L 103.282165 146.730732 
L 103.37744 146.631951 
L 103.493316 146.401463 
L 103.501041 146.467317 
L 103.586017 146.401463 
L 103.699318 146.138049 
L 103.704468 146.203902 
L 103.779144 146.236829 
L 103.820344 146.138049 
L 103.822919 146.170976 
L 103.89502 145.973415 
L 103.923345 146.039268 
L 104.016046 145.907561 
L 103.93107 146.072195 
L 104.036646 145.940488 
L 104.044371 145.973415 
L 104.085571 145.80878 
L 104.137072 145.841707 
L 104.224622 145.677073 
L 104.155097 145.874634 
L 104.258098 145.71 
L 104.299298 145.644146 
L 104.417749 145.446585 
L 104.487275 145.413659 
L 104.60315 145.216098 
L 104.719026 145.018537 
L 104.726751 145.051463 
L 104.832327 144.952683 
L 104.860653 144.98561 
L 104.953353 144.820976 
L 105.048629 144.722195 
L 105.159355 144.590488 
L 105.056354 144.788049 
L 105.16708 144.623415 
L 105.226306 144.557561 
L 105.342182 144.36 
L 105.380807 144.392927 
L 105.434882 144.195366 
L 105.440032 144.26122 
L 105.543033 144.096585 
L 105.553333 144.129512 
L 105.602259 144.030732 
L 105.630584 144.096585 
L 105.723285 143.866098 
L 105.759335 143.964878 
L 105.785085 143.800244 
L 105.828861 143.866098 
L 105.947311 143.668537 
L 105.973062 143.73439 
L 106.014262 143.536829 
L 106.052887 143.602683 
L 106.184213 143.339268 
L 106.282064 143.240488 
L 106.400515 143.075854 
L 106.40309 143.10878 
L 106.464891 143.01 
L 106.472616 143.042927 
L 106.585917 142.878293 
L 106.616817 142.977073 
L 106.681193 142.746585 
L 106.694068 142.845366 
L 106.807369 142.647805 
L 106.809944 142.680732 
L 106.817669 142.713659 
L 106.902644 142.483171 
L 106.910369 142.549024 
L 106.938695 142.483171 
L 106.959295 142.516098 
L 107.054571 142.351463 
L 107.116371 142.28561 
L 107.229672 142.120976 
L 107.232247 142.153902 
L 107.294048 142.055122 
L 107.304348 142.120976 
L 107.415074 141.890488 
L 107.482024 141.923415 
L 107.507774 141.75878 
L 107.518074 141.857561 
L 107.6288 141.692927 
L 107.63395 141.725854 
L 107.754976 141.56122 
L 107.770426 141.594146 
L 107.839952 141.429512 
L 107.855402 141.495366 
L 107.968703 141.264878 
L 107.973853 141.297805 
L 108.102604 141.067317 
L 108.179855 141.100244 
L 108.200455 140.93561 
L 108.210755 141.03439 
L 108.221055 141.067317 
L 108.336931 140.803902 
L 108.365256 140.869756 
L 108.393582 140.738049 
L 108.442507 140.738049 
L 108.553233 140.540488 
L 108.455382 140.770976 
L 108.558383 140.573415 
L 108.638209 140.606341 
L 108.651084 140.441707 
L 108.661384 140.474634 
L 108.75666 140.244146 
L 108.666534 140.540488 
L 108.784985 140.31 
L 108.78756 140.342927 
L 108.880261 140.145366 
L 108.882836 140.21122 
L 108.998712 139.980732 
L 109.001287 140.013659 
L 109.003862 140.046585 
L 109.060512 139.881951 
L 109.101712 139.881951 
L 109.166088 139.849024 
L 109.276814 139.618537 
L 109.184113 139.881951 
L 109.279389 139.651463 
L 109.281964 139.717317 
L 109.36694 139.519756 
L 109.384965 139.519756 
L 109.38754 139.552683 
L 109.45449 139.388049 
L 109.485391 139.420976 
L 109.616717 139.157561 
L 109.673367 139.091707 
L 109.742893 138.894146 
L 109.789243 138.927073 
L 109.794393 138.992927 
L 109.866494 138.795366 
L 109.892244 138.86122 
L 110.010695 138.663659 
L 110.077645 138.564878 
L 110.188371 138.400244 
L 110.196096 138.433171 
L 110.198671 138.466098 
L 110.291372 138.301463 
L 110.296522 138.301463 
L 110.360898 138.23561 
L 110.474199 137.972195 
L 110.366048 138.268537 
L 110.476774 138.005122 
L 110.538574 138.070976 
L 110.559174 137.906341 
L 110.584925 137.939268 
L 110.5875 137.972195 
L 110.6802 137.741707 
L 110.68535 137.840488 
L 110.801226 137.642927 
L 110.814101 137.70878 
L 110.845002 137.544146 
L 110.909377 137.577073 
L 111.025253 137.313659 
L 111.038128 137.346585 
L 111.097354 137.280732 
L 111.21838 137.017317 
L 111.220955 137.083171 
L 111.311081 136.852683 
L 111.321381 136.852683 
L 111.331681 136.918537 
L 111.444982 136.688049 
L 111.447557 136.753902 
L 111.547982 136.556341 
L 111.553133 136.622195 
L 111.681884 136.391707 
L 111.692184 136.457561 
L 111.777159 136.26 
L 111.787459 136.325854 
L 111.90076 136.128293 
L 111.921361 136.194146 
L 111.970286 135.996585 
L 112.003761 136.029512 
L 112.127362 135.733171 
L 112.129937 135.799024 
L 112.132512 135.897805 
L 112.178863 135.667317 
L 112.238088 135.700244 
L 112.341089 135.469756 
L 112.353964 135.53561 
L 112.377139 135.436829 
L 112.503315 135.206341 
L 112.52134 135.305122 
L 112.534216 135.140488 
L 112.611466 135.173415 
L 112.735067 134.975854 
L 112.742792 135.074634 
L 112.807168 134.877073 
L 112.838068 134.91 
L 112.959094 134.580732 
L 112.964244 134.679512 
L 112.974544 134.712439 
L 113.04922 134.481951 
L 113.05952 134.481951 
L 113.167671 134.383171 
L 113.288697 134.18561 
L 113.314447 134.251463 
L 113.342772 134.086829 
L 113.394273 134.119756 
L 113.409723 134.152683 
L 113.517874 133.922195 
L 113.523024 134.020976 
L 113.605424 133.790488 
L 113.62345 133.790488 
L 113.72645 133.724634 
L 113.844901 133.527073 
L 113.968502 133.263659 
L 113.971077 133.329512 
L 113.978802 133.395366 
L 114.056053 133.164878 
L 114.068928 133.164878 
L 114.166779 133.066098 
L 114.292955 132.802683 
L 114.29553 132.83561 
L 114.367631 132.736829 
L 114.486082 132.572195 
L 114.372781 132.769756 
L 114.488657 132.605122 
L 114.545307 132.506341 
L 114.671483 132.30878 
L 114.728134 132.21 
L 114.84916 131.979512 
L 114.738434 132.275854 
L 114.851735 132.012439 
L 114.86461 132.045366 
L 114.923835 131.847805 
L 114.949585 131.847805 
L 115.024261 131.781951 
L 115.132412 131.551463 
L 115.140137 131.58439 
L 115.165887 131.650244 
L 115.235413 131.419756 
L 115.248288 131.518537 
L 115.340989 131.419756 
L 115.351289 131.452683 
L 115.46459 131.189268 
L 115.46974 131.288049 
L 115.565015 131.057561 
L 115.570166 131.090488 
L 115.611366 130.991707 
L 115.701492 130.827073 
L 115.655141 131.024634 
L 115.732392 130.86 
L 115.799342 130.827073 
L 115.915218 130.596585 
L 115.940969 130.629512 
L 115.974444 130.464878 
L 116.018219 130.497805 
L 116.082595 130.399024 
L 116.198471 130.23439 
L 116.221646 130.300244 
L 116.255121 130.168537 
L 116.301472 130.168537 
L 116.419922 129.938049 
L 116.425073 130.003902 
L 116.463698 129.905122 
L 116.512623 129.970976 
L 116.589874 129.707561 
L 116.646524 129.740488 
L 116.68515 129.60878 
L 116.692875 129.60878 
L 116.708325 129.641707 
L 116.819051 129.378293 
L 116.821626 129.444146 
L 116.919477 129.213659 
L 116.922052 129.246585 
L 117.027627 129.081951 
L 116.942652 129.279512 
L 117.040503 129.114878 
L 117.063678 129.147805 
L 117.084278 128.983171 
L 117.143503 129.016098 
L 117.192429 128.950244 
L 117.308305 128.719756 
L 117.31088 128.752683 
L 117.431906 128.588049 
L 117.437056 128.653902 
L 117.529757 128.423415 
L 117.532332 128.489268 
L 117.542632 128.522195 
L 117.653358 128.324634 
L 117.666233 128.423415 
L 117.738333 128.225854 
L 117.758933 128.324634 
L 117.818159 128.06122 
L 117.874809 128.127073 
L 117.985535 127.896585 
L 118.000985 127.929512 
L 118.026736 127.863659 
L 118.142612 127.699024 
L 118.191537 127.633171 
L 118.312563 127.369756 
L 118.315138 127.402683 
L 118.371789 127.172195 
L 118.407839 127.172195 
L 118.438739 127.073415 
L 118.534015 126.90878 
L 118.449039 127.139268 
L 118.559765 126.941707 
L 118.649891 126.875854 
L 118.657616 126.90878 
L 118.768342 126.678293 
L 118.804392 126.579512 
L 118.920268 126.447805 
L 118.809542 126.612439 
L 118.922843 126.480732 
L 118.961468 126.414878 
L 119.056744 126.151463 
L 119.079919 126.18439 
L 119.082494 126.250244 
L 119.15202 125.986829 
L 119.18292 125.986829 
L 119.291071 125.855122 
L 119.21897 126.052683 
L 119.296221 125.888049 
L 119.355447 125.789268 
L 119.468748 125.525854 
L 119.471323 125.624634 
L 119.509948 125.525854 
L 119.636124 125.262439 
L 119.638699 125.295366 
L 119.643849 125.36122 
L 119.710799 125.196585 
L 119.7417 125.196585 
L 119.7932 125.097805 
L 119.914226 124.933171 
L 119.932251 124.999024 
L 119.991477 124.73561 
L 120.009502 124.768537 
L 120.127953 124.505122 
L 120.133103 124.538049 
L 120.135678 124.603902 
L 120.228379 124.373415 
L 120.238679 124.439268 
L 120.292754 124.373415 
L 120.411205 124.175854 
L 120.41893 124.20878 
L 120.485881 124.01122 
L 120.511631 124.077073 
L 120.637807 123.681951 
L 120.689308 123.616098 
L 120.702183 123.681951 
L 120.810334 123.319756 
L 120.843809 123.38561 
L 120.910759 123.188049 
L 121.01891 123.122195 
L 120.918484 123.220976 
L 121.021485 123.188049 
L 121.042085 123.089268 
L 121.060111 123.155122 
L 121.163111 122.924634 
L 121.181137 123.023415 
L 121.260962 122.825854 
L 121.273837 122.957561 
L 121.384563 122.792927 
L 121.389713 122.825854 
L 121.392288 122.85878 
L 121.482414 122.66122 
L 121.490139 122.694146 
L 121.62404 122.299024 
L 121.62919 122.331951 
L 121.662666 122.233171 
L 121.768241 121.772195 
L 121.801717 121.870976 
L 121.804292 121.903902 
L 121.891842 121.607561 
L 121.894417 121.640488 
L 122.025744 121.31122 
L 122.028319 121.344146 
L 122.059219 121.245366 
L 122.18797 120.949024 
L 122.064369 121.278293 
L 122.190545 120.981951 
L 122.221445 121.014878 
L 122.272946 120.78439 
L 122.288396 120.817317 
L 122.324446 120.718537 
L 122.450622 120.323415 
L 122.463497 120.356341 
L 122.484097 120.290488 
L 122.597398 120.125854 
L 122.599973 120.191707 
L 122.687524 119.928293 
L 122.700399 119.928293 
L 122.824 119.664878 
L 122.82915 119.697805 
L 122.937301 119.599024 
L 122.952751 119.631951 
L 123.066052 119.33561 
L 123.076352 119.401463 
L 123.148453 119.039268 
L 123.153603 119.039268 
L 123.169053 118.940488 
L 123.336429 118.183171 
L 123.339004 118.216098 
L 123.416255 117.853902 
L 123.41883 117.853902 
L 123.586206 117.129512 
L 123.617107 117.162439 
L 123.668607 116.767317 
L 123.689207 116.668537 
L 123.802508 108.930732 
L 123.835983 14.76 
L 123.913234 106.592927 
L 124.02396 124.966098 
L 124.047135 124.801463 
L 124.06516 124.702683 
L 124.206786 123.813659 
L 124.209361 123.846585 
L 124.381888 123.056341 
L 124.394763 122.957561 
L 124.580164 122.002683 
L 124.582739 122.068537 
L 124.66514 121.41 
L 124.67544 121.442927 
L 124.842817 120.553902 
L 124.865992 120.488049 
L 124.999893 119.862439 
L 125.010193 119.763659 
L 125.190444 118.80878 
L 125.205895 118.874634 
L 125.288295 118.479512 
L 125.29602 118.545366 
L 125.373271 118.150244 
L 125.378421 118.216098 
L 125.538072 117.45878 
L 125.553522 117.36 
L 125.749224 116.207561 
L 125.751799 116.273415 
L 125.831625 115.647805 
L 125.836775 115.647805 
L 126.004151 111.136829 
L 126.040201 16.175854 
L 126.120027 103.695366 
L 126.241053 123.155122 
L 126.253928 123.122195 
L 126.338904 123.155122 
L 126.310579 123.023415 
L 126.362079 123.122195 
L 126.49083 122.891707 
L 126.534606 122.792927 
L 126.681382 122.299024 
L 126.683957 122.331951 
L 126.758632 121.969756 
L 126.766357 122.002683 
L 126.933734 121.245366 
L 126.936309 121.278293 
L 127.008409 120.850244 
L 127.018709 120.916098 
L 127.142311 120.323415 
L 127.157761 120.356341 
L 127.219561 119.96122 
L 127.227286 119.994146 
L 127.384362 119.401463 
L 127.402388 119.302683 
L 127.577489 118.479512 
L 127.590364 118.380732 
L 127.773191 117.294146 
L 127.783491 117.327073 
L 127.793791 117.36 
L 127.860741 116.931951 
L 127.863316 116.931951 
L 127.891642 116.833171 
L 128.084768 115.779512 
L 128.097643 115.680732 
L 128.277895 114.75878 
L 128.28047 114.791707 
L 128.349995 114.297805 
L 128.35257 114.297805 
L 128.517372 110.774634 
L 128.555997 17.46 
L 128.633248 101.291707 
L 128.769724 122.266098 
L 128.865 122.430732 
L 128.883025 122.331951 
L 128.970576 122.299024 
L 128.913925 122.430732 
L 128.986026 122.364878 
L 128.988601 122.430732 
L 129.083876 122.068537 
L 129.140527 121.969756 
L 129.264128 121.541707 
L 129.266703 121.574634 
L 129.444379 120.718537 
L 129.46498 120.652683 
L 129.598881 120.06 
L 129.601456 120.125854 
L 129.691581 119.599024 
L 129.704457 119.664878 
L 129.755957 119.269756 
L 129.776557 119.302683 
L 129.946509 118.545366 
L 129.954234 118.578293 
L 130.023759 118.117317 
L 130.026334 118.150244 
L 130.201436 117.195366 
L 130.206586 117.26122 
L 130.229761 117.162439 
L 130.446063 115.812439 
L 130.471813 115.713659 
L 130.634039 114.396585 
L 130.909566 110.181951 
L 130.935317 38.763659 
L 130.950767 18.250244 
L 131.025442 98.163659 
L 131.159343 121.377073 
L 131.37307 121.278293 
L 131.486371 120.981951 
L 131.496671 121.113659 
L 131.499246 121.146585 
L 131.573922 120.78439 
L 131.581647 120.817317 
L 131.705248 120.455122 
L 131.743873 120.389268 
L 131.864899 119.829512 
L 131.867474 119.862439 
L 131.880349 119.796585 
L 132.011675 119.170976 
L 132.014251 119.203902 
L 132.197077 118.216098 
L 132.199652 118.249024 
L 132.212527 118.150244 
L 132.392779 117.195366 
L 132.395354 117.228293 
L 132.415954 117.129512 
L 132.642556 115.647805 
L 132.668306 115.549024 
L 132.809932 114.75878 
L 132.817657 114.66 
L 133.077734 112.750244 
L 133.085459 112.68439 
L 133.239961 111.564878 
L 133.399612 108.173415 
L 133.443387 19.567317 
L 133.518063 98.756341 
L 133.654539 119.994146 
L 133.716339 119.895366 
L 133.739515 120.027073 
L 133.765265 119.994146 
L 133.82449 120.06 
L 133.80389 119.928293 
L 133.868266 119.928293 
L 133.999592 119.566098 
L 134.002167 119.664878 
L 134.094868 119.33561 
L 134.102593 119.33561 
L 134.120618 119.236829 
L 134.290569 118.413659 
L 134.125768 119.269756 
L 134.293144 118.446585 
L 134.300869 118.380732 
L 134.437345 117.557561 
L 134.43992 117.590488 
L 134.447645 117.623415 
L 134.512021 117.129512 
L 134.514596 117.162439 
L 134.656222 116.273415 
L 134.658797 116.306341 
L 134.882824 114.857561 
L 134.900849 114.75878 
L 135.166076 112.783171 
L 135.184102 112.68439 
L 135.60898 106.527073 
L 135.652755 20.851463 
L 135.730006 98.492927 
L 135.863907 118.841707 
L 135.936008 118.907561 
L 136.000383 118.973415 
L 135.961758 118.841707 
L 136.046734 118.907561 
L 136.149734 118.841707 
L 136.27076 118.413659 
L 136.288786 118.446585 
L 136.348011 118.051463 
L 136.353161 118.08439 
L 136.358311 118.117317 
L 136.551438 116.964878 
L 136.569463 116.899024 
L 136.713664 115.977073 
L 136.716239 116.01 
L 136.78319 115.483171 
L 137.009792 113.902683 
L 137.014942 113.93561 
L 137.025242 113.836829 
L 137.231243 112.618537 
L 137.233818 112.68439 
L 137.308494 111.894146 
L 137.311069 111.894146 
L 137.499046 109.88561 
L 137.509346 109.819756 
L 137.632947 104.320976 
L 137.674147 22.069756 
L 137.748823 94.640488 
L 137.872424 117.788049 
L 137.885299 117.755122 
L 137.887874 117.722195 
L 137.962549 118.018537 
L 137.975424 118.018537 
L 138.04495 118.117317 
L 138.109326 118.249024 
L 138.0501 118.08439 
L 138.153101 118.117317 
L 138.171126 118.150244 
L 138.276702 117.689268 
L 138.287002 117.788049 
L 138.374553 117.36 
L 138.382278 117.392927 
L 138.454378 116.964878 
L 138.487854 116.866098 
L 138.632055 116.01 
L 138.840632 114.692927 
L 138.843207 114.791707 
L 138.930757 114.133171 
L 138.935907 114.133171 
L 138.966808 114.03439 
L 139.26551 111.597805 
L 139.27581 111.630732 
L 139.337611 111.169756 
L 139.340186 111.169756 
L 139.589963 109.35878 
L 139.592538 109.424634 
L 139.662063 108.53561 
L 139.669788 108.568537 
L 139.83974 105.045366 
L 139.857765 87.594146 
L 139.89124 22.662439 
L 139.963341 94.50878 
L 140.081792 116.833171 
L 140.097242 116.73439 
L 140.148742 116.866098 
L 140.207968 116.833171 
L 140.318694 116.701463 
L 140.213118 116.866098 
L 140.323844 116.767317 
L 140.380494 116.701463 
L 140.504095 116.075854 
L 140.514395 116.10878 
L 140.51697 116.141707 
L 140.594221 115.845366 
L 140.604521 115.878293 
L 140.789923 114.890488 
L 140.797648 114.923415 
L 140.864598 114.429512 
L 140.867173 114.495366 
L 141.021674 113.342927 
L 141.047425 113.244146 
L 141.181326 112.355122 
L 141.528954 109.325854 
L 141.541829 109.227073 
L 141.835381 104.452683 
L 141.858556 78.440488 
L 141.886882 24.078293 
L 141.961557 94.278293 
L 142.095458 115.516098 
L 142.098033 115.483171 
L 142.219059 115.779512 
L 142.360685 115.713659 
L 142.471411 115.516098 
L 142.473986 115.549024 
L 142.499737 115.450244 
L 142.651663 114.857561 
L 142.654238 114.890488 
L 142.661963 114.857561 
L 142.785564 114.166098 
L 142.788139 114.199024 
L 142.803589 114.100244 
L 142.994141 113.079512 
L 143.012166 113.013659 
L 143.169242 111.828293 
L 143.171817 111.86122 
L 143.238768 111.367317 
L 143.246493 111.400244 
L 143.259368 111.301463 
L 143.49627 109.688049 
L 143.514295 109.622195 
L 143.686821 108.041707 
L 143.975224 103.036829 
L 143.993249 94.739268 
L 144.034449 25.066098 
L 144.10655 91.479512 
L 144.235301 114.594146 
L 144.243026 114.56122 
L 144.333152 114.495366 
L 144.361477 114.66 
L 144.469628 114.462439 
L 144.477353 114.56122 
L 144.485078 114.594146 
L 144.567479 114.297805 
L 144.611254 114.199024 
L 144.77348 113.540488 
L 144.776055 113.573415 
L 144.848156 113.145366 
L 144.855881 113.178293 
L 144.997507 112.388049 
L 145.203509 110.972195 
L 145.216384 111.005122 
L 145.231834 110.906341 
L 145.512511 108.733171 
L 145.530536 108.667317 
L 145.672163 107.481951 
L 145.674738 107.514878 
L 145.736538 106.889268 
L 146.182017 99.777073 
L 146.210342 69.122195 
L 146.238667 26.580732 
L 146.310768 91.80878 
L 146.447244 113.277073 
L 146.493594 113.145366 
L 146.53222 113.342927 
L 146.555395 113.342927 
L 146.666121 113.31 
L 146.787147 112.881951 
L 146.939073 112.355122 
L 146.957098 112.289268 
L 147.096149 111.564878 
L 147.286701 110.478293 
L 147.101299 111.597805 
L 147.289276 110.51122 
L 147.297001 110.412439 
L 147.533903 108.766098 
L 147.536478 108.799024 
L 147.595703 108.173415 
L 147.745055 107.152683 
L 147.750205 107.086829 
L 147.891831 105.802683 
L 147.894406 105.83561 
L 147.951056 105.30878 
L 147.958781 105.30878 
L 148.139033 103.399024 
L 148.141608 103.431951 
L 148.149333 103.333171 
L 148.283234 91.545366 
L 148.329584 27.864878 
L 148.396535 86.40878 
L 148.527861 111.663659 
L 148.535586 111.630732 
L 148.553611 111.696585 
L 148.599962 111.564878 
L 148.646312 111.630732 
L 148.746738 111.894146 
L 148.772488 111.86122 
L 148.885789 111.499024 
L 148.893514 111.564878 
L 148.924414 111.466098 
L 149.096941 110.675854 
L 149.114966 110.741707 
L 149.176766 110.346585 
L 149.184491 110.379512 
L 149.331268 109.457561 
L 149.351868 109.35878 
L 149.516669 107.975854 
L 149.542419 107.877073 
L 149.704646 106.56 
L 149.712371 106.592927 
L 149.766446 106.000244 
L 149.771596 106.000244 
L 149.792196 105.901463 
L 149.938973 104.353902 
L 149.941548 104.386829 
L 150.299476 98.492927 
L 150.322651 86.40878 
L 150.363851 29.577073 
L 150.433377 85.256341 
L 150.567278 110.675854 
L 150.572428 110.642927 
L 150.662554 110.51122 
L 150.590453 110.741707 
L 150.688304 110.577073 
L 150.768129 110.70878 
L 150.698604 110.544146 
L 150.80418 110.642927 
L 150.917481 110.577073 
L 150.961256 110.675854 
L 151.038507 110.313659 
L 151.053957 110.379512 
L 151.200733 109.655122 
L 151.229058 109.589268 
L 151.368109 108.799024 
L 151.380985 108.864878 
L 151.442785 108.370976 
L 151.594711 107.317317 
L 151.599861 107.383171 
L 151.659087 106.922195 
L 151.674537 106.922195 
L 152.037615 103.530732 
L 152.04019 103.596585 
L 152.047915 103.695366 
L 152.109715 102.60878 
L 152.112291 102.60878 
L 152.138041 102.542927 
L 152.302842 100.468537 
L 152.431593 94.442927 
L 152.488244 30.696585 
L 152.555194 84.367317 
L 152.694245 109.688049 
L 152.841022 109.753902 
L 152.949172 109.819756 
L 152.879647 109.688049 
L 152.951747 109.753902 
L 152.980073 109.688049 
L 153.103674 109.325854 
L 153.124274 109.227073 
L 153.31225 108.239268 
L 153.314825 108.272195 
L 153.374051 107.877073 
L 153.397226 107.942927 
L 153.531127 107.053902 
L 153.549152 106.988049 
L 153.701079 105.93439 
L 153.713954 105.83561 
L 154.46071 95.03561 
L 154.494185 77.847805 
L 154.53281 32.672195 
L 154.599761 83.214878 
L 154.743962 107.547805 
L 154.746537 107.514878 
L 154.816063 107.877073 
L 154.831513 107.81122 
L 154.952539 108.173415 
L 154.967989 108.140488 
L 155.022064 108.074634 
L 155.03494 108.140488 
L 155.14309 107.778293 
L 155.145665 107.81122 
L 155.225491 107.514878 
L 155.230641 107.514878 
L 155.400593 106.757561 
L 155.416043 106.65878 
L 155.609169 105.605122 
L 155.622044 105.539268 
L 155.773971 104.48561 
L 155.794571 104.386829 
L 156.185974 100.764878 
L 156.188549 100.797805 
L 156.252925 100.205122 
L 156.258075 100.172195 
L 156.417726 98.295366 
L 156.420301 98.328293 
L 156.461501 97.538049 
L 156.464076 97.538049 
L 156.659778 89.931951 
L 156.724153 35.833171 
L 156.788529 81.041707 
L 156.92243 105.078293 
L 156.930155 105.012439 
L 157.071781 105.407561 
L 157.079506 105.341707 
L 157.149032 105.83561 
L 157.182507 105.93439 
L 157.311258 106.395366 
L 157.321558 106.329512 
L 157.450309 106.000244 
L 157.455459 106.033171 
L 157.458034 106.066098 
L 157.52241 105.83561 
L 157.550735 105.83561 
L 157.666611 105.30878 
L 157.674336 105.341707 
L 157.694936 105.242927 
L 157.844288 104.716098 
L 157.846863 104.781951 
L 157.934413 104.189268 
L 157.936988 104.222195 
L 158.003939 103.794146 
L 158.014239 103.827073 
L 158.233116 102.444146 
L 158.253716 102.477073 
L 158.302641 102.016098 
L 158.307791 102.016098 
L 158.853696 93.652683 
L 158.897471 86.375854 
L 158.954122 34.91122 
L 159.018497 77.781951 
L 159.165273 105.341707 
L 159.188449 105.407561 
L 159.319775 105.967317 
L 159.345525 106.033171 
L 159.438226 106.395366 
L 159.469126 106.362439 
L 159.515476 106.263659 
L 159.626202 106.099024 
L 159.559252 106.329512 
L 159.631352 106.131951 
L 159.639077 106.197805 
L 159.726628 105.769756 
L 159.729203 105.802683 
L 159.734353 105.868537 
L 159.806454 105.473415 
L 159.816754 105.539268 
L 159.878554 105.572195 
L 159.935205 105.177073 
L 159.966105 105.078293 
L 160.105156 104.320976 
L 160.107731 104.353902 
L 160.174682 103.827073 
L 160.179832 103.892927 
L 160.455359 101.78561 
L 160.457934 101.818537 
L 160.514585 101.192927 
L 160.519735 101.192927 
L 160.52746 101.16 
L 160.671661 99.875854 
L 160.674236 99.90878 
L 160.730886 99.316098 
L 160.743761 99.381951 
L 161.238165 91.677073 
L 161.279366 86.342927 
L 161.343741 37.973415 
L 161.405542 78.177073 
L 161.549743 103.003902 
L 161.552318 102.970976 
L 161.565193 103.036829 
L 161.675919 103.431951 
L 161.575493 102.970976 
L 161.686219 103.333171 
L 161.706819 103.300244 
L 161.77892 103.530732 
L 161.78407 103.497805 
L 161.902521 103.991707 
L 161.910246 103.925854 
L 162.005522 103.991707 
L 162.033847 103.728293 
L 162.046722 103.76122 
L 162.126548 103.497805 
L 162.278474 102.938049 
L 162.281049 102.970976 
L 162.350575 102.60878 
L 162.3583 102.641707 
L 162.489626 101.851463 
L 162.492201 101.88439 
L 162.559151 101.390488 
L 162.561726 101.423415 
L 162.718803 100.238049 
L 162.726528 100.139268 
L 162.888754 98.789268 
L 162.891329 98.822195 
L 162.960855 98.328293 
L 163.535084 89.602683 
L 163.602035 81.107561 
L 163.66641 42.616098 
L 163.725636 75.60878 
L 163.877562 100.007561 
L 163.882712 99.974634 
L 164.008888 100.53439 
L 164.186565 101.390488 
L 164.191715 101.291707 
L 164.25609 101.620976 
L 164.28184 101.588049 
L 164.341066 101.686829 
L 164.369391 101.752683 
L 164.377116 101.620976 
L 164.446642 101.620976 
L 164.462092 101.555122 
L 164.583118 101.25878 
L 164.595993 101.16 
L 164.624318 101.25878 
L 164.753069 100.567317 
L 164.781395 100.468537 
L 164.910146 99.777073 
L 164.920446 99.678293 
L 165.080097 99.052683 
L 165.134172 98.953902 
L 165.141897 98.986829 
L 165.345324 97.669756 
L 165.368499 97.702683 
L 165.412275 97.241707 
L 165.417425 97.241707 
L 165.577076 95.990488 
L 165.579651 96.023415 
L 165.646602 95.463659 
L 165.659477 95.397805 
L 165.927279 91.380732 
L 166.058605 88.318537 
L 166.153881 78.045366 
L 166.220831 45.974634 
L 166.277482 72.118537 
L 166.434558 97.966098 
L 166.720385 100.205122 
L 166.735836 100.172195 
L 166.813086 100.402683 
L 166.818236 100.336829 
L 166.918662 100.303902 
L 166.941837 100.501463 
L 166.946987 100.43561 
L 166.949562 100.369756 
L 167.024238 100.731951 
L 167.044838 100.731951 
L 167.083463 100.699024 
L 167.199339 100.303902 
L 167.201914 100.336829 
L 167.25599 100.238049 
L 167.405341 99.612439 
L 167.413066 99.645366 
L 167.461992 99.546585 
L 167.480017 99.579512 
L 167.644818 98.591707 
L 167.665418 98.657561 
L 167.732369 98.328293 
L 167.90747 97.472195 
L 167.910045 97.505122 
L 167.966696 96.912439 
L 167.971846 96.912439 
L 168.128922 95.727073 
L 168.149522 95.628293 
L 168.368399 94.245366 
L 168.373549 94.212439 
L 168.520325 92.829512 
L 168.965804 85.717317 
L 169.05078 80.745366 
L 169.13318 56.445366 
L 169.156355 51.275854 
L 169.207856 69.155122 
L 169.377807 94.541707 
L 169.380382 94.50878 
L 169.439608 95.167317 
L 169.442183 95.13439 
L 169.586384 96.418537 
L 169.604409 96.517317 
L 169.771786 97.505122 
L 169.787236 97.439268 
L 169.820711 97.538049 
L 169.908262 97.768537 
L 169.941737 97.669756 
L 169.962337 97.768537 
L 170.065338 97.801463 
L 169.970062 97.669756 
L 170.070488 97.768537 
L 170.075638 97.73561 
L 170.158039 98.064878 
L 170.199239 97.966098 
L 170.31254 97.83439 
L 170.34344 97.933171 
L 170.405241 97.669756 
L 170.407816 97.702683 
L 170.515967 97.373415 
L 170.528842 97.439268 
L 170.649868 97.01122 
L 170.667893 97.077073 
L 170.670468 97.142927 
L 170.760594 96.649024 
L 170.788919 96.583171 
L 170.91252 96.056341 
L 170.92282 95.957561 
L 171.128822 94.706341 
L 171.170022 94.772195 
L 171.213797 94.377073 
L 171.216372 94.41 
L 171.231822 94.31122 
L 171.378599 93.356341 
L 171.383749 93.323415 
L 171.520225 92.33561 
L 171.679876 91.08439 
L 171.862703 89.73439 
L 171.687601 91.117317 
L 171.883303 89.899024 
L 171.885878 89.931951 
L 171.950253 89.405122 
L 171.955403 89.405122 
L 172.104755 88.417317 
L 173.031762 77.024634 
L 173.067813 77.48561 
L 173.206864 78.769756 
L 173.222314 78.605122 
L 173.232614 78.703902 
L 173.569942 81.63439 
L 173.572517 81.601463 
L 173.624017 82.35878 
L 173.675518 83.181951 
L 173.757918 82.951463 
L 173.907269 81.930732 
L 173.91242 81.963659 
L 173.966495 81.305122 
L 174.332148 74.127073 
L 174.352748 74.225854 
L 174.61025 78.901463 
L 174.842002 83.544146 
L 175.563008 91.347805 
L 175.568158 91.249024 
L 175.650559 91.644146 
L 175.681459 91.742927 
L 175.797335 92.269756 
L 175.81021 92.203902 
L 175.938961 92.631951 
L 175.853985 92.170976 
L 175.949261 92.566098 
L 175.993037 92.500244 
L 176.088312 92.138049 
L 176.114063 92.170976 
L 176.121788 92.203902 
L 176.170713 91.775854 
L 176.188738 91.775854 
L 176.340664 90.722195 
L 176.35354 90.755122 
L 176.42049 90.392927 
L 176.423065 90.392927 
L 176.876269 83.181951 
L 177.141496 77.255122 
L 177.275397 75.575854 
L 177.301147 75.872195 
L 177.522599 80.251463 
L 177.525174 80.218537 
L 178.086529 91.742927 
L 178.624708 97.20878 
L 178.629858 97.142927 
L 178.712259 97.636829 
L 178.719984 97.603902 
L 178.750884 97.702683 
L 178.84101 97.966098 
L 178.864185 97.900244 
L 178.925986 97.966098 
L 178.987786 97.73561 
L 179.026411 97.801463 
L 179.072762 97.603902 
L 179.093362 97.669756 
L 179.201513 97.603902 
L 179.103662 97.702683 
L 179.204088 97.636829 
L 179.206663 97.669756 
L 179.294214 97.406341 
L 179.296789 97.406341 
L 179.50279 96.188049 
L 179.541416 96.089268 
L 179.546566 96.122195 
L 179.698492 95.496585 
L 179.724242 95.595366 
L 179.796343 95.200244 
L 179.889044 95.101463 
L 180.058995 94.31122 
L 180.079595 94.344146 
L 180.149121 94.113659 
L 180.159421 94.212439 
L 180.288172 93.488049 
L 180.295897 93.422195 
L 180.422073 92.796585 
L 180.581724 91.907561 
L 180.427223 92.829512 
L 180.599749 91.940488 
L 180.66155 92.138049 
L 180.700175 91.841707 
L 180.908752 90.327073 
L 180.921627 90.392927 
L 180.934502 90.425854 
L 180.988578 90.030732 
L 181.006603 90.096585 
L 181.011753 90.129512 
L 181.274405 88.088049 
L 181.310455 88.186829 
L 181.31818 88.219756 
L 181.382556 87.725854 
L 181.385131 87.75878 
L 181.83576 83.379512 
L 181.838335 83.412439 
L 181.874385 82.951463 
L 181.915585 82.98439 
L 181.954211 82.951463 
L 182.018586 82.819756 
L 182.059786 83.083171 
L 182.209138 84.103902 
L 182.211713 84.005122 
L 182.304413 84.696585 
L 182.317289 84.762439 
L 182.464065 86.31 
L 182.484665 86.244146 
L 182.48724 86.178293 
L 182.556765 86.738049 
L 182.574791 86.672195 
L 182.682942 86.93561 
L 182.585091 86.639268 
L 182.690667 86.869756 
L 182.693242 86.836829 
L 182.778217 87.166098 
L 182.961044 88.120976 
L 182.963619 88.088049 
L 183.020269 88.581951 
L 183.038294 88.549024 
L 183.08207 88.417317 
L 183.156745 88.647805 
L 183.177346 88.713659 
L 183.221121 88.91122 
L 183.277771 88.483171 
L 183.411672 88.120976 
L 183.414248 88.153902 
L 183.429698 88.186829 
L 183.442573 88.28561 
L 183.524973 87.923415 
L 183.532698 87.923415 
L 183.542999 87.824634 
L 183.548149 87.791707 
L 183.612524 88.153902 
L 183.643424 87.956341 
L 183.658875 88.088049 
L 183.730975 87.857561 
L 183.746425 87.890488 
L 183.772175 87.824634 
L 183.841701 88.088049 
L 183.934402 88.516098 
L 183.973027 88.351463 
L 184.096628 88.088049 
L 184.099203 88.153902 
L 184.176454 88.055122 
L 184.269155 87.857561 
L 184.220229 88.120976 
L 184.29748 87.923415 
L 184.315505 87.824634 
L 184.431381 87.067317 
L 184.444256 87.100244 
L 184.475156 87.001463 
L 184.611632 86.573415 
L 184.614207 86.606341 
L 184.681158 86.770976 
L 184.714633 86.540488 
L 184.735233 86.738049 
L 184.797034 86.803902 
L 184.856259 86.606341 
L 184.96441 86.705122 
L 185.080286 86.93561 
L 184.977285 86.639268 
L 185.085436 86.836829 
L 185.206462 86.178293 
L 185.209037 86.21122 
L 185.270838 85.947805 
L 185.306888 86.046585 
L 185.355813 86.145366 
L 185.466539 86.441707 
L 185.484565 86.40878 
L 185.48714 86.375854 
L 185.556665 86.573415 
L 185.59014 86.474634 
L 185.726616 86.836829 
L 185.729192 86.803902 
L 185.816742 87.100244 
L 185.881118 87.001463 
L 185.968668 86.738049 
L 185.893993 87.100244 
L 185.999569 86.869756 
L 186.002144 86.902683 
L 186.066519 86.40878 
L 186.074244 86.40878 
L 186.10257 86.507561 
L 186.19012 86.902683 
L 186.231321 86.738049 
L 186.282821 86.836829 
L 186.390972 87.03439 
L 186.398697 86.93561 
L 186.414147 86.770976 
L 186.491398 87.166098 
L 186.493973 87.133171 
L 186.535173 87.03439 
L 186.581524 87.001463 
L 186.622724 87.199024 
L 186.640749 87.100244 
L 186.71285 87.199024 
L 186.7695 87.396585 
L 186.836451 87.363659 
L 186.893101 87.100244 
L 186.949752 87.330732 
L 187.019277 87.264878 
L 187.034727 87.166098 
L 187.086228 87.363659 
L 187.124853 87.330732 
L 187.137728 87.363659 
L 187.196954 87.133171 
L 187.233004 87.297805 
L 187.33343 86.705122 
L 187.245879 87.330732 
L 187.361755 86.836829 
L 187.39523 86.474634 
L 187.480206 86.738049 
L 187.505956 86.836829 
L 187.513681 86.869756 
L 187.596082 86.606341 
L 187.601232 86.639268 
L 187.704233 86.738049 
L 187.727408 86.869756 
L 187.763458 86.672195 
L 187.814959 86.738049 
L 187.866459 86.836829 
L 187.987485 87.133171 
L 187.905084 86.803902 
L 187.992635 87.067317 
L 188.064736 86.803902 
L 188.00551 87.100244 
L 188.105936 87.001463 
L 188.154861 87.199024 
L 188.201212 86.968537 
L 188.216662 87.067317 
L 188.342838 86.639268 
L 188.448414 86.573415 
L 188.59004 85.453902 
L 188.461289 86.606341 
L 188.597765 85.519756 
L 188.60034 85.58561 
L 188.675016 85.025854 
L 188.687891 85.025854 
L 188.793467 84.86122 
L 188.703341 85.05878 
L 188.801192 84.927073 
L 188.904193 85.256341 
L 188.932518 85.190488 
L 189.030369 84.86122 
L 188.937668 85.223415 
L 189.058694 84.927073 
L 189.071569 85.05878 
L 189.16942 84.927073 
L 189.398597 83.379512 
L 189.470697 83.51122 
L 189.437222 83.280732 
L 189.504173 83.346585 
L 189.614898 83.017317 
L 189.625199 83.050244 
L 189.692149 82.819756 
L 189.738499 83.116098 
L 189.746224 83.050244 
L 189.813175 83.544146 
L 189.941926 84.038049 
L 189.959951 84.136829 
L 189.996002 84.301463 
L 190.065527 83.939268 
L 190.070677 84.005122 
L 190.165953 83.741707 
L 190.168528 83.741707 
L 190.202003 83.478293 
L 190.284404 83.577073 
L 190.37453 84.268537 
L 190.41058 84.169756 
L 190.433755 84.103902 
L 190.492981 84.564878 
L 190.505856 84.564878 
L 190.523881 84.663659 
L 190.660357 84.992927 
L 190.727308 84.663659 
L 190.673232 85.025854 
L 190.773658 84.927073 
L 190.863784 85.190488 
L 190.992535 107.778293 
L 191.239737 118.347805 
L 191.247462 118.446585 
L 191.432863 122.299024 
L 192.084344 129.213659 
L 192.097219 129.312439 
L 192.29807 130.497805 
L 192.305796 130.431951 
L 192.377896 130.892927 
L 192.383046 130.794146 
L 192.516947 131.419756 
L 192.537547 131.518537 
L 192.552998 131.48561 
L 192.697199 132.144146 
L 192.720374 132.11122 
L 192.769299 132.374634 
L 192.784749 132.374634 
L 192.9032 132.703902 
L 192.913501 132.605122 
L 192.993326 132.967317 
L 193.006201 132.93439 
L 193.070577 133.033171 
L 193.209628 133.428293 
L 193.230228 133.329512 
L 193.307479 133.592927 
L 193.315204 133.527073 
L 193.374429 133.625854 
L 193.382154 133.592927 
L 193.495455 133.790488 
L 193.516055 133.757561 
L 193.557256 133.922195 
L 193.598456 133.889268 
L 193.634506 133.988049 
L 193.745232 134.119756 
L 193.647382 133.955122 
L 193.750382 134.053902 
L 193.855958 134.119756 
L 193.966684 134.251463 
L 193.969259 134.218537 
L 193.974409 134.152683 
L 193.997584 134.317317 
L 194.07226 134.251463 
L 194.134061 134.383171 
L 194.185561 134.317317 
L 194.280837 134.416098 
L 194.298862 134.350244 
L 194.327187 134.383171 
L 194.414738 134.28439 
L 194.466238 134.383171 
L 194.432763 134.251463 
L 194.528039 134.317317 
L 194.965792 134.416098 
L 194.973517 134.449024 
L 195.014718 134.317317 
L 195.071368 134.416098 
L 195.179519 134.251463 
L 195.184669 134.28439 
L 195.26192 134.383171 
L 195.189819 134.251463 
L 195.29797 134.350244 
L 195.408696 134.218537 
L 195.416421 134.251463 
L 195.797524 134.18561 
L 195.890225 133.955122 
L 195.810399 134.218537 
L 195.9134 133.988049 
L 195.985501 134.020976 
L 195.94945 133.889268 
L 196.018976 133.955122 
L 196.127127 133.856341 
L 196.132277 133.889268 
L 196.227553 133.757561 
L 196.142577 133.922195 
L 196.248153 133.823415 
L 196.250728 133.856341 
L 196.284203 133.724634 
L 196.351154 133.724634 
L 196.49793 133.625854 
L 196.54943 133.527073 
L 196.50823 133.65878 
L 196.608656 133.592927 
L 196.688481 133.65878 
L 196.624106 133.527073 
L 196.716807 133.56 
L 196.786332 133.46122 
L 196.770882 133.592927 
L 196.827533 133.56 
L 197.005209 133.494146 
L 197.10821 133.395366 
L 197.054134 133.527073 
L 197.115935 133.428293 
L 197.157135 133.56 
L 197.12881 133.395366 
L 197.226661 133.428293 
L 197.69789 133.527073 
L 197.700465 133.56 
L 197.76999 133.395366 
L 197.803466 133.46122 
L 197.834366 133.395366 
L 197.836941 133.329512 
L 197.870416 133.46122 
L 197.945092 133.395366 
L 198.568247 133.362439 
L 198.588847 133.230732 
L 198.681548 133.263659 
L 199.052351 133.164878 
L 199.098701 133.131951 
L 199.067801 133.230732 
L 199.160502 133.197805 
L 199.206852 133.131951 
L 199.276378 133.263659 
L 199.356203 133.099024 
L 199.389679 133.131951 
L 199.436029 133.230732 
L 199.500405 133.131951 
L 199.587955 133.033171 
L 199.51328 133.164878 
L 199.613706 133.099024 
L 199.660056 133.197805 
L 199.636881 133.033171 
L 199.721856 133.164878 
L 199.819707 133.000244 
L 199.835157 133.066098 
L 199.917558 132.967317 
L 199.948458 133.000244 
L 200.010259 132.967317 
L 200.061759 133.099024 
L 200.095234 133.000244 
L 200.131285 133.131951 
L 200.172485 133.066098 
L 200.270336 133.131951 
L 200.223986 133.000244 
L 200.283211 133.099024 
L 200.368187 133.000244 
L 200.288361 133.131951 
L 200.393937 133.066098 
L 200.491788 133.164878 
L 200.409387 133.033171 
L 200.504663 133.131951 
L 200.566463 133.000244 
L 200.620539 133.066098 
L 200.630839 133.033171 
L 200.633414 132.93439 
L 200.643714 133.099024 
L 200.741565 133.033171 
L 200.860016 132.93439 
L 200.973317 133.066098 
L 201.081468 132.967317 
L 201.084043 133.033171 
L 201.132968 132.93439 
L 201.091768 133.099024 
L 201.192193 133.000244 
L 201.272019 133.066098 
L 201.212794 132.967317 
L 201.300344 132.967317 
L 201.488321 132.93439 
L 201.490896 132.83561 
L 201.511496 132.967317 
L 201.599047 132.901463 
L 202.688281 132.83561 
L 202.734631 132.769756 
L 202.701156 132.93439 
L 202.796432 132.901463 
L 202.881407 132.93439 
L 202.832482 132.83561 
L 202.907158 132.901463 
L 203.113159 132.83561 
L 203.20071 132.736829 
L 203.133759 132.868537 
L 203.223885 132.769756 
L 203.293411 132.83561 
L 203.24706 132.736829 
L 203.332036 132.736829 
L 203.357786 132.802683 
L 203.360361 132.868537 
L 203.373236 132.703902 
L 203.468512 132.802683 
L 203.504562 132.736829 
L 203.550913 132.868537 
L 203.576663 132.83561 
L 203.980941 132.769756 
L 203.983516 132.703902 
L 204.014417 132.868537 
L 204.089092 132.83561 
L 204.197243 132.736829 
L 204.199818 132.703902 
L 204.256469 132.83561 
L 204.302819 132.769756 
L 204.398095 132.83561 
L 204.325994 132.703902 
L 204.41612 132.802683 
L 204.640147 132.703902 
L 204.732848 132.670976 
L 204.660747 132.769756 
L 204.748298 132.736829 
L 205.268452 132.769756 
L 205.271027 132.868537 
L 205.294202 132.736829 
L 205.376603 132.83561 
L 205.453853 132.736829 
L 205.404928 132.868537 
L 205.487329 132.802683 
L 205.582605 132.736829 
L 205.520804 132.868537 
L 205.59033 132.83561 
L 205.67273 132.93439 
L 205.598055 132.802683 
L 205.703631 132.901463 
L 205.775731 132.83561 
L 205.778306 132.736829 
L 205.832382 132.868537 
L 205.886457 132.802683 
L 206.141384 132.83561 
L 206.161984 132.93439 
L 206.154259 132.802683 
L 206.25211 132.868537 
L 206.27271 132.93439 
L 206.334511 132.802683 
L 206.362836 132.868537 
L 206.844365 132.967317 
L 206.942216 133.066098 
L 206.864965 132.901463 
L 206.957666 133.000244 
L 207.274393 133.099024 
L 207.292419 133.131951 
L 207.356794 132.967317 
L 207.379969 133.066098 
L 207.42117 133.000244 
L 207.454645 133.131951 
L 207.490695 133.066098 
L 207.830598 133.164878 
L 207.933599 133.230732 
L 207.864073 133.066098 
L 207.938749 133.197805 
L 207.956774 133.131951 
L 208.008274 133.263659 
L 208.044325 133.230732 
L 208.06235 133.296585 
L 208.049475 133.197805 
L 208.152476 133.230732 
L 208.170501 133.296585 
L 208.268352 133.164878 
L 208.379077 133.329512 
L 208.386803 133.263659 
L 208.502678 133.362439 
L 208.543879 133.263659 
L 208.615979 133.428293 
L 208.680355 133.329512 
L 208.70353 133.494146 
L 208.726705 133.395366 
L 208.737005 133.329512 
L 208.840006 133.46122 
L 208.858031 133.494146 
L 208.953307 133.329512 
L 209.066608 133.46122 
L 209.071758 133.428293 
L 209.550712 133.527073 
L 209.589337 133.428293 
L 209.661438 133.56 
L 209.666588 133.592927 
L 209.772164 133.527073 
L 209.785039 133.625854 
L 209.805639 133.494146 
L 209.885465 133.592927 
L 209.91379 133.527073 
L 209.998766 133.625854 
L 210.096617 133.527073 
L 210.003916 133.65878 
L 210.114642 133.56 
L 210.312918 133.625854 
L 210.356694 133.56 
L 210.423644 133.691707 
L 210.454545 133.56 
L 210.500895 133.724634 
L 210.53952 133.625854 
L 211.523178 133.691707 
L 211.525753 133.757561 
L 211.600429 133.592927 
L 211.631329 133.65878 
L 211.72403 133.56 
L 211.646779 133.691707 
L 211.742055 133.625854 
L 211.778105 133.691707 
L 211.839906 133.527073 
L 211.850206 133.625854 
L 211.868231 133.56 
L 211.878531 133.65878 
L 211.960932 133.625854 
L 213.052741 133.691707 
L 213.155742 133.823415 
L 213.068191 133.65878 
L 213.163467 133.724634 
L 213.305093 133.691707 
L 213.361743 133.592927 
L 213.320543 133.724634 
L 213.415819 133.625854 
L 213.547145 133.592927 
L 213.54972 133.494146 
L 213.61152 133.625854 
L 213.657871 133.527073 
L 214.270726 133.46122 
L 214.273301 133.395366 
L 214.337676 133.592927 
L 214.378877 133.494146 
L 214.708479 133.592927 
L 214.79088 133.625854 
L 214.74968 133.494146 
L 214.814055 133.56 
L 214.922206 133.494146 
L 214.82178 133.592927 
L 214.924781 133.56 
L 215.014907 133.592927 
L 215.025207 133.494146 
L 215.032932 133.527073 
L 215.135933 133.428293 
L 215.053532 133.592927 
L 215.146233 133.494146 
L 215.226059 133.592927 
L 215.249234 133.46122 
L 215.259534 133.527073 
L 215.622612 133.625854 
L 215.730763 133.691707 
L 215.630337 133.592927 
L 215.735913 133.65878 
L 215.795138 133.592927 
L 215.818314 133.724634 
L 215.846639 133.625854 
L 215.913589 133.691707 
L 215.854364 133.592927 
L 215.957365 133.65878 
L 216.075816 133.56 
L 216.091266 133.527073 
L 216.199417 133.724634 
L 216.243192 133.625854 
L 216.245767 133.592927 
L 216.274092 133.724634 
L 216.351343 133.625854 
L 216.464644 133.757561 
L 216.472369 133.65878 
L 216.547045 133.823415 
L 216.57537 133.724634 
L 216.675796 133.856341 
L 216.688671 133.790488 
L 216.758196 133.724634 
L 216.714421 133.823415 
L 216.799397 133.757561 
L 216.858622 133.724634 
L 216.910123 133.856341 
L 217.000248 133.724634 
L 217.020848 133.823415 
L 217.044024 133.889268 
L 217.139299 133.724634 
L 217.2423 133.889268 
L 217.2526 133.823415 
L 217.270625 133.922195 
L 217.275776 133.988049 
L 217.316976 133.823415 
L 217.381351 133.922195 
L 217.708379 133.823415 
L 217.710954 133.790488 
L 217.77018 133.955122 
L 217.819105 133.823415 
L 217.834555 133.790488 
L 217.934981 133.955122 
L 218.027682 133.790488 
L 218.045707 133.823415 
L 218.128108 133.889268 
L 218.086907 133.757561 
L 218.159008 133.856341 
L 218.354709 133.955122 
L 218.444835 133.988049 
L 218.43196 133.856341 
L 218.460285 133.889268 
L 219.024215 133.823415 
L 219.106616 133.757561 
L 219.075715 133.922195 
L 219.132366 133.889268 
L 219.217341 133.790488 
L 219.245667 133.856341 
L 219.420768 133.757561 
L 219.521194 133.724634 
L 219.477419 133.856341 
L 219.528919 133.757561 
L 219.557244 133.889268 
L 219.64222 133.823415 
L 219.70402 133.724634 
L 219.66282 133.856341 
L 219.758096 133.757561 
L 219.845647 133.922195 
L 219.873972 133.856341 
L 219.922897 133.757561 
L 219.884272 133.889268 
L 219.982123 133.856341 
L 220.002723 133.922195 
L 220.018173 133.757561 
L 220.092849 133.889268 
L 220.201 133.790488 
L 220.208725 133.823415 
L 220.22675 133.922195 
L 220.2525 133.790488 
L 220.319451 133.856341 
L 220.422451 133.724634 
L 220.432751 133.790488 
L 220.525452 133.823415 
L 220.489402 133.691707 
L 220.538327 133.757561 
L 220.613003 133.856341 
L 220.649053 133.724634 
L 220.723729 133.823415 
L 220.739179 133.65878 
L 220.759779 133.724634 
L 220.782954 133.691707 
L 220.798404 133.823415 
L 220.865355 133.757561 
L 220.929731 133.856341 
L 220.981231 133.823415 
L 221.138307 133.757561 
L 221.156332 133.691707 
L 221.236158 133.856341 
L 221.249033 133.757561 
L 221.279933 133.856341 
L 221.274783 133.691707 
L 221.359759 133.757561 
L 221.558036 133.856341 
L 221.666187 133.922195 
L 221.581211 133.757561 
L 221.668762 133.889268 
L 221.970039 133.790488 
L 221.975189 133.724634 
L 221.985489 133.856341 
L 222.07819 133.823415 
L 222.830096 133.922195 
L 222.920222 133.955122 
L 222.842971 133.856341 
L 222.938247 133.922195 
L 222.994897 133.856341 
L 223.041248 134.020976 
L 223.046398 133.955122 
L 223.105623 133.856341 
L 223.157124 133.988049 
L 223.193174 133.889268 
L 223.249825 134.053902 
L 223.2627 133.955122 
L 223.36055 134.053902 
L 223.316775 133.922195 
L 223.373426 134.020976 
L 223.424926 133.922195 
L 223.486727 133.955122 
L 223.641228 133.856341 
L 223.715903 133.823415 
L 223.703028 133.988049 
L 223.746804 133.889268 
L 223.844654 133.955122 
L 223.754529 133.856341 
L 223.854955 133.889268 
L 223.870405 133.823415 
L 223.947655 133.955122 
L 223.963105 133.889268 
L 224.058381 133.988049 
L 224.078981 133.955122 
L 224.145932 133.889268 
L 224.169107 134.053902 
L 224.192282 133.922195 
L 224.274683 134.152683 
L 224.200007 133.889268 
L 224.308158 134.053902 
L 224.310733 134.020976 
L 224.359659 134.152683 
L 224.413734 134.053902 
L 224.485835 134.152683 
L 224.444634 134.020976 
L 224.52446 134.053902 
L 224.606861 134.18561 
L 224.52961 134.020976 
L 224.640336 134.119756 
L 224.884963 134.218537 
L 224.926163 134.119756 
L 224.995689 134.251463 
L 225.044614 134.18561 
L 225.052339 134.28439 
L 225.106415 134.251463 
L 225.17079 134.350244 
L 225.16564 134.218537 
L 225.219716 134.28439 
L 225.505543 134.218537 
L 225.557044 134.152683 
L 225.608544 134.317317 
L 225.611119 134.317317 
L 225.649744 134.28439 
L 225.711545 134.18561 
L 225.675494 134.350244 
L 225.76047 134.28439 
L 225.827421 134.218537 
L 225.860896 134.383171 
L 225.871196 134.28439 
L 226.069473 134.383171 
L 226.154448 134.481951 
L 226.090073 134.28439 
L 226.177624 134.350244 
L 226.28835 134.28439 
L 226.234274 134.449024 
L 226.290925 134.317317 
L 226.357875 134.383171 
L 226.342425 134.218537 
L 226.40165 134.350244 
L 226.422251 134.218537 
L 226.458301 134.383171 
L 226.514951 134.28439 
L 226.617952 134.383171 
L 226.525251 134.251463 
L 226.625677 134.350244 
L 226.648852 134.28439 
L 226.664303 134.416098 
L 226.738978 134.317317 
L 226.849704 134.383171 
L 226.911505 134.481951 
L 226.916655 134.350244 
L 226.96043 134.416098 
L 227.042831 134.350244 
L 226.978455 134.481951 
L 227.071156 134.416098 
L 227.150982 134.350244 
L 227.112356 134.481951 
L 227.181882 134.416098 
L 227.261708 134.514878 
L 227.212782 134.383171 
L 227.290033 134.383171 
L 227.650536 134.416098 
L 227.738086 134.514878 
L 227.761262 134.416098 
L 228.508018 134.514878 
L 228.603294 134.416098 
L 228.621319 134.547805 
L 228.708869 134.416098 
L 228.737195 134.481951 
L 228.82732 134.547805 
L 228.762945 134.383171 
L 228.845346 134.449024 
L 228.938046 134.383171 
L 228.863371 134.514878 
L 228.956071 134.416098 
L 229.043622 134.514878 
L 229.002422 134.383171 
L 229.071947 134.481951 
L 229.177523 134.350244 
L 229.187823 134.416098 
L 229.409275 134.514878 
L 229.41185 134.547805 
L 229.473651 134.416098 
L 229.517426 134.514878 
L 229.615277 134.547805 
L 229.633302 134.449024 
L 229.638452 134.416098 
L 229.746603 134.547805 
L 229.800678 134.416098 
L 229.754328 134.580732 
L 229.859904 134.514878 
L 230.289932 134.416098 
L 230.387783 134.152683 
L 230.416108 134.218537 
L 231.005788 134.28439 
L 231.008363 134.350244 
L 231.036688 134.18561 
L 231.113939 134.218537 
L 231.229815 134.350244 
L 231.137114 134.18561 
L 231.23239 134.317317 
L 231.260715 134.251463 
L 231.317366 134.18561 
L 231.340541 134.350244 
L 231.368866 134.251463 
L 231.397191 134.350244 
L 231.420367 134.218537 
L 231.482167 134.28439 
L 231.585168 134.251463 
L 231.556843 134.383171 
L 231.590318 134.317317 
L 231.940521 134.350244 
L 232.028072 134.481951 
L 232.010046 134.317317 
L 232.051247 134.416098 
L 232.599726 134.481951 
L 232.602301 134.547805 
L 232.622902 134.383171 
L 232.710452 134.481951 
L 232.800578 134.514878 
L 232.761953 134.383171 
L 232.818603 134.449024 
L 233.261507 134.350244 
L 233.282107 134.317317 
L 233.333607 134.481951 
L 233.364508 134.416098 
L 233.369658 134.383171 
L 233.477809 134.514878 
L 233.493259 134.383171 
L 233.580809 134.547805 
L 233.588534 134.481951 
L 233.69411 134.547805 
L 233.603985 134.383171 
L 233.696685 134.449024 
L 233.750761 134.547805 
L 233.758486 134.449024 
L 233.861487 134.580732 
L 233.943887 134.449024 
L 233.979938 134.481951 
L 234.085514 134.416098 
L 234.188514 134.350244 
L 234.106114 134.449024 
L 234.196239 134.383171 
L 235.272598 134.481951 
L 235.367874 134.547805 
L 235.285473 134.416098 
L 235.380749 134.449024 
L 235.383324 134.416098 
L 235.403924 134.580732 
L 235.486325 134.481951 
L 235.566151 134.580732 
L 235.584176 134.449024 
L 235.597051 134.514878 
L 235.633101 134.416098 
L 235.620226 134.547805 
L 235.712927 134.449024 
L 236.215056 134.481951 
L 236.312907 134.580732 
L 236.325782 134.547805 
L 236.361832 134.449024 
L 236.410758 134.580732 
L 236.436508 134.547805 
L 236.68886 134.449024 
L 236.70946 134.383171 
L 236.737785 134.547805 
L 236.794436 134.514878 
L 236.863961 134.416098 
L 236.905162 134.547805 
L 236.977262 134.383171 
L 237.023613 134.514878 
L 237.082838 134.317317 
L 237.093138 134.449024 
L 237.433041 134.350244 
L 237.435616 134.317317 
L 237.443341 134.416098 
L 237.538617 134.383171 
L 237.631318 134.416098 
L 237.548917 134.317317 
L 237.646768 134.350244 
L 238.717977 134.416098 
L 238.802952 134.481951 
L 238.756602 134.317317 
L 238.828702 134.416098 
L 238.864753 134.514878 
L 238.918828 134.350244 
L 238.934278 134.383171 
L 238.965179 134.481951 
L 239.047579 134.350244 
L 239.168605 134.481951 
L 239.227831 134.449024 
L 239.330832 134.317317 
L 239.338557 134.383171 
L 239.446708 134.449024 
L 239.451858 134.416098 
L 239.817511 134.514878 
L 239.838111 134.580732 
L 239.884461 134.449024 
L 239.925661 134.481951 
L 240.224364 134.547805 
L 240.234664 134.646585 
L 240.265564 134.481951 
L 240.33509 134.547805 
L 240.510191 134.613659 
L 240.623492 134.745366 
L 240.731643 134.580732 
L 240.741943 134.646585 
L 240.901594 134.679512 
L 240.90417 134.81122 
L 240.942795 134.613659 
L 241.009745 134.646585 
L 241.267247 134.745366 
L 241.316173 134.81122 
L 241.339348 134.646585 
L 241.380548 134.778293 
L 241.488699 134.712439 
L 241.462949 134.844146 
L 241.491274 134.745366 
L 241.51445 134.877073 
L 241.609725 134.844146 
L 241.723026 134.712439 
L 241.743626 134.844146 
L 241.836327 134.778293 
L 241.880103 134.679512 
L 241.905853 134.81122 
L 241.947053 134.745366 
L 242.050054 134.712439 
L 242.057779 134.81122 
L 242.109279 134.745366 
L 242.14533 134.877073 
L 242.16593 134.844146 
L 242.482657 134.745366 
L 242.521283 134.712439 
L 242.575358 134.844146 
L 242.590808 134.778293 
L 242.845735 134.844146 
L 242.850885 134.942927 
L 242.902386 134.81122 
L 242.956461 134.844146 
L 243.95042 134.942927 
L 244.040545 134.975854 
L 243.99162 134.81122 
L 244.055995 134.91 
L 244.153846 134.778293 
L 244.174446 134.81122 
L 244.390748 134.712439 
L 244.434523 134.679512 
L 244.467999 134.844146 
L 244.496324 134.778293 
L 244.918627 134.877073 
L 244.985578 134.91 
L 244.931503 134.81122 
L 245.029353 134.877073 
L 245.104029 134.745366 
L 245.142654 134.81122 
L 245.23793 134.975854 
L 245.261105 134.91 
L 245.317756 134.844146 
L 245.292006 135.00878 
L 245.371831 134.91 
L 245.696284 134.942927 
L 245.698859 135.041707 
L 245.773534 134.877073 
L 245.804435 134.91 
L 246.010436 134.81122 
L 246.118587 134.778293 
L 246.054212 134.91 
L 246.121162 134.81122 
L 246.170088 134.91 
L 246.175238 134.942927 
L 246.208713 134.778293 
L 246.275664 134.844146 
L 246.430165 134.778293 
L 246.43274 134.712439 
L 246.515141 134.877073 
L 246.535741 134.844146 
L 246.540891 134.877073 
L 246.584666 134.745366 
L 246.643892 134.844146 
L 246.757193 134.712439 
L 246.806118 134.844146 
L 246.857618 134.679512 
L 246.867918 134.745366 
L 246.878219 134.646585 
L 246.885944 134.778293 
L 246.976069 134.745366 
L 247.009545 134.778293 
L 247.02242 134.646585 
L 247.08422 134.712439 
L 247.207821 134.646585 
L 247.272197 134.580732 
L 247.254172 134.712439 
L 247.318547 134.613659 
L 247.63785 134.547805 
L 247.746001 134.449024 
L 247.6533 134.613659 
L 247.748576 134.481951 
L 247.771751 134.580732 
L 247.841276 134.416098 
L 247.859302 134.514878 
L 247.879902 134.416098 
L 247.905652 134.547805 
L 247.970028 134.514878 
L 249.579416 134.481951 
L 249.600016 134.383171 
L 249.690142 134.449024 
L 249.937344 134.383171 
L 249.963094 134.481951 
L 250.04807 134.317317 
L 250.055795 134.383171 
L 250.112445 134.251463 
L 250.153645 134.28439 
L 250.174246 134.251463 
L 250.230896 134.383171 
L 250.259221 134.350244 
L 250.328747 134.251463 
L 250.372522 134.383171 
L 250.444623 134.251463 
L 250.485823 134.317317 
L 250.797401 134.383171 
L 250.890101 134.449024 
L 250.802551 134.350244 
L 250.908127 134.416098 
L 250.977652 134.350244 
L 250.931302 134.449024 
L 251.016278 134.416098 
L 251.106403 134.514878 
L 251.026578 134.383171 
L 251.132153 134.481951 
L 251.173354 134.350244 
L 251.211979 134.514878 
L 251.248029 134.383171 
L 251.27378 134.28439 
L 251.358755 134.416098 
L 251.446306 134.449024 
L 251.472056 134.350244 
L 251.572482 134.547805 
L 251.587932 134.481951 
L 252.450564 134.580732 
L 252.455714 134.613659 
L 252.507215 134.449024 
L 252.55614 134.547805 
L 252.617941 134.481951 
L 252.574165 134.646585 
L 252.664291 134.580732 
L 252.875443 134.481951 
L 252.903768 134.580732 
L 252.986169 134.449024 
L 253.09947 134.547805 
L 253.102045 134.449024 
L 253.20247 134.613659 
L 253.210196 134.481951 
L 253.382722 134.580732 
L 253.459973 134.613659 
L 253.472848 134.514878 
L 253.490873 134.547805 
L 254.224754 134.613659 
L 254.294279 134.712439 
L 254.338055 134.679512 
L 254.721733 134.646585 
L 254.721733 134.646585 
" clip-path="url(#p7429c9a199)" style="fill: none; stroke: #000000; stroke-opacity: 0.5; stroke-width: 1.5; stroke-linecap: square"/>
   </g>
   <g id="patch_3">
    <path d="M 41.667188 173.52 
L 41.667188 7.2 
" style="fill: none; stroke: #000000; stroke-width: 0.8; stroke-linejoin: miter; stroke-linecap: square"/>
   </g>
   <g id="patch_4">
    <path d="M 41.667188 173.52 
L 264.867187 173.52 
" style="fill: none; stroke: #000000; stroke-width: 0.8; stroke-linejoin: miter; stroke-linecap: square"/>
   </g>
  </g>
 </g>
 <defs>
  <clipPath id="p7429c9a199">
   <rect x="41.667188" y="7.2" width="223.2" height="166.32"/>
  </clipPath>
 </defs>
</svg>
