<?xml version="1.0" encoding="utf-8" standalone="no"?>
<!DOCTYPE svg PUBLIC "-//W3C//DTD SVG 1.1//EN"
  "http://www.w3.org/Graphics/SVG/1.1/DTD/svg11.dtd">
<svg xmlns:xlink="http://www.w3.org/1999/xlink" width="272.067187pt" height="197.398125pt" viewBox="0 0 272.067187 197.398125" xmlns="http://www.w3.org/2000/svg" version="1.1">
 <metadata>
  <rdf:RDF xmlns:dc="http://purl.org/dc/elements/1.1/" xmlns:cc="http://creativecommons.org/ns#" xmlns:rdf="http://www.w3.org/1999/02/22-rdf-syntax-ns#">
   <cc:Work>
    <dc:type rdf:resource="http://purl.org/dc/dcmitype/StillImage"/>
    <dc:date>2025-12-19T12:28:04.917353</dc:date>
    <dc:format>image/svg+xml</dc:format>
    <dc:creator>
     <cc:Agent>
      <dc:title>Matplotlib v3.10.7, https://matplotlib.org/</dc:title>
     </cc:Agent>
    </dc:creator>
   </cc:Work>
  </rdf:RDF>
 </metadata>
 <defs>
  <style type="text/css">*{stroke-linejoin: round; stroke-linecap: butt}</style>
 </defs>
 <g id="figure_1">
  <g id="patch_1">
   <path d="M 0 197.398125 
L 272.067187 197.398125 
L 272.067187 0 
L 0 0 
z
" style="fill: #ffffff"/>
  </g>
  <g id="axes_1">
   <g id="patch_2">
    <path d="M 41.667188 173.52 
L 264.867188 173.52 
L 264.867188 7.2 
L 41.667188 7.2 
z
" style="fill: #ffffff"/>
   </g>
   <g id="matplotlib.axis_1">
    <g id="xtick_1">
     <g id="line2d_1">
      <defs>
       <path id="mbf1456b423" d="M 0 0 
L 0 3.5 
" style="stroke: #000000; stroke-width: 0.8"/>
      </defs>
      <g>
       <use xlink:href="#mbf1456b423" x="82.712896" y="173.52" style="stroke: #000000; stroke-width: 0.8"/>
      </g>
     </g>
     <g id="text_1">
      <!-- 1 -->
      <g transform="translate(79.531646 188.118438) scale(0.1 -0.1)">
       <defs>
        <path id="DejaVuSans-31" d="M 794 531 
L 1825 531 
L 1825 4091 
L 703 3866 
L 703 4441 
L 1819 4666 
L 2450 4666 
L 2450 531 
L 3481 531 
L 3481 0 
L 794 0 
L 794 531 
z
" transform="scale(0.015625)"/>
       </defs>
       <use xlink:href="#DejaVuSans-31"/>
      </g>
     </g>
    </g>
    <g id="xtick_2">
     <g id="line2d_2">
      <g>
       <use xlink:href="#mbf1456b423" x="134.213319" y="173.52" style="stroke: #000000; stroke-width: 0.8"/>
      </g>
     </g>
     <g id="text_2">
      <!-- 2 -->
      <g transform="translate(131.032069 188.118438) scale(0.1 -0.1)">
       <defs>
        <path id="DejaVuSans-32" d="M 1228 531 
L 3431 531 
L 3431 0 
L 469 0 
L 469 531 
Q 828 903 1448 1529 
Q 2069 2156 2228 2338 
Q 2531 2678 2651 2914 
Q 2772 3150 2772 3378 
Q 2772 3750 2511 3984 
Q 2250 4219 1831 4219 
Q 1534 4219 1204 4116 
Q 875 4013 500 3803 
L 500 4441 
Q 881 4594 1212 4672 
Q 1544 4750 1819 4750 
Q 2544 4750 2975 4387 
Q 3406 4025 3406 3419 
Q 3406 3131 3298 2873 
Q 3191 2616 2906 2266 
Q 2828 2175 2409 1742 
Q 1991 1309 1228 531 
z
" transform="scale(0.015625)"/>
       </defs>
       <use xlink:href="#DejaVuSans-32"/>
      </g>
     </g>
    </g>
    <g id="xtick_3">
     <g id="line2d_3">
      <g>
       <use xlink:href="#mbf1456b423" x="185.713741" y="173.52" style="stroke: #000000; stroke-width: 0.8"/>
      </g>
     </g>
     <g id="text_3">
      <!-- 3 -->
      <g transform="translate(182.532491 188.118438) scale(0.1 -0.1)">
       <defs>
        <path id="DejaVuSans-33" d="M 2597 2516 
Q 3050 2419 3304 2112 
Q 3559 1806 3559 1356 
Q 3559 666 3084 287 
Q 2609 -91 1734 -91 
Q 1441 -91 1130 -33 
Q 819 25 488 141 
L 488 750 
Q 750 597 1062 519 
Q 1375 441 1716 441 
Q 2309 441 2620 675 
Q 2931 909 2931 1356 
Q 2931 1769 2642 2001 
Q 2353 2234 1838 2234 
L 1294 2234 
L 1294 2753 
L 1863 2753 
Q 2328 2753 2575 2939 
Q 2822 3125 2822 3475 
Q 2822 3834 2567 4026 
Q 2313 4219 1838 4219 
Q 1578 4219 1281 4162 
Q 984 4106 628 3988 
L 628 4550 
Q 988 4650 1302 4700 
Q 1616 4750 1894 4750 
Q 2613 4750 3031 4423 
Q 3450 4097 3450 3541 
Q 3450 3153 3228 2886 
Q 3006 2619 2597 2516 
z
" transform="scale(0.015625)"/>
       </defs>
       <use xlink:href="#DejaVuSans-33"/>
      </g>
     </g>
    </g>
    <g id="xtick_4">
     <g id="line2d_4">
      <g>
       <use xlink:href="#mbf1456b423" x="237.214164" y="173.52" style="stroke: #000000; stroke-width: 0.8"/>
      </g>
     </g>
     <g id="text_4">
      <!-- 4 -->
      <g transform="translate(234.032914 188.118438) scale(0.1 -0.1)">
       <defs>
        <path id="DejaVuSans-34" d="M 2419 4116 
L 825 1625 
L 2419 1625 
L 2419 4116 
z
M 2253 4666 
L 3047 4666 
L 3047 1625 
L 3713 1625 
L 3713 1100 
L 3047 1100 
L 3047 0 
L 2419 0 
L 2419 1100 
L 313 1100 
L 313 1709 
L 2253 4666 
z
" transform="scale(0.015625)"/>
       </defs>
       <use xlink:href="#DejaVuSans-34"/>
      </g>
     </g>
    </g>
   </g>
   <g id="matplotlib.axis_2">
    <g id="ytick_1">
     <g id="line2d_5">
      <defs>
       <path id="m046366b26b" d="M 0 0 
L -3.5 0 
" style="stroke: #000000; stroke-width: 0.8"/>
      </defs>
      <g>
       <use xlink:href="#m046366b26b" x="41.667188" y="172.354027" style="stroke: #000000; stroke-width: 0.8"/>
      </g>
     </g>
     <g id="text_5">
      <!-- −125 -->
      <g transform="translate(7.2 176.153246) scale(0.1 -0.1)">
       <defs>
        <path id="DejaVuSans-2212" d="M 678 2272 
L 4684 2272 
L 4684 1741 
L 678 1741 
L 678 2272 
z
" transform="scale(0.015625)"/>
        <path id="DejaVuSans-35" d="M 691 4666 
L 3169 4666 
L 3169 4134 
L 1269 4134 
L 1269 2991 
Q 1406 3038 1543 3061 
Q 1681 3084 1819 3084 
Q 2600 3084 3056 2656 
Q 3513 2228 3513 1497 
Q 3513 744 3044 326 
Q 2575 -91 1722 -91 
Q 1428 -91 1123 -41 
Q 819 9 494 109 
L 494 744 
Q 775 591 1075 516 
Q 1375 441 1709 441 
Q 2250 441 2565 725 
Q 2881 1009 2881 1497 
Q 2881 1984 2565 2268 
Q 2250 2553 1709 2553 
Q 1456 2553 1204 2497 
Q 953 2441 691 2322 
L 691 4666 
z
" transform="scale(0.015625)"/>
       </defs>
       <use xlink:href="#DejaVuSans-2212"/>
       <use xlink:href="#DejaVuSans-31" transform="translate(83.789062 0)"/>
       <use xlink:href="#DejaVuSans-32" transform="translate(147.412109 0)"/>
       <use xlink:href="#DejaVuSans-35" transform="translate(211.035156 0)"/>
      </g>
     </g>
    </g>
    <g id="ytick_2">
     <g id="line2d_6">
      <g>
       <use xlink:href="#m046366b26b" x="41.667188" y="146.67761" style="stroke: #000000; stroke-width: 0.8"/>
      </g>
     </g>
     <g id="text_6">
      <!-- −100 -->
      <g transform="translate(7.2 150.476828) scale(0.1 -0.1)">
       <defs>
        <path id="DejaVuSans-30" d="M 2034 4250 
Q 1547 4250 1301 3770 
Q 1056 3291 1056 2328 
Q 1056 1369 1301 889 
Q 1547 409 2034 409 
Q 2525 409 2770 889 
Q 3016 1369 3016 2328 
Q 3016 3291 2770 3770 
Q 2525 4250 2034 4250 
z
M 2034 4750 
Q 2819 4750 3233 4129 
Q 3647 3509 3647 2328 
Q 3647 1150 3233 529 
Q 2819 -91 2034 -91 
Q 1250 -91 836 529 
Q 422 1150 422 2328 
Q 422 3509 836 4129 
Q 1250 4750 2034 4750 
z
" transform="scale(0.015625)"/>
       </defs>
       <use xlink:href="#DejaVuSans-2212"/>
       <use xlink:href="#DejaVuSans-31" transform="translate(83.789062 0)"/>
       <use xlink:href="#DejaVuSans-30" transform="translate(147.412109 0)"/>
       <use xlink:href="#DejaVuSans-30" transform="translate(211.035156 0)"/>
      </g>
     </g>
    </g>
    <g id="ytick_3">
     <g id="line2d_7">
      <g>
       <use xlink:href="#m046366b26b" x="41.667188" y="121.001192" style="stroke: #000000; stroke-width: 0.8"/>
      </g>
     </g>
     <g id="text_7">
      <!-- −75 -->
      <g transform="translate(13.5625 124.800411) scale(0.1 -0.1)">
       <defs>
        <path id="DejaVuSans-37" d="M 525 4666 
L 3525 4666 
L 3525 4397 
L 1831 0 
L 1172 0 
L 2766 4134 
L 525 4134 
L 525 4666 
z
" transform="scale(0.015625)"/>
       </defs>
       <use xlink:href="#DejaVuSans-2212"/>
       <use xlink:href="#DejaVuSans-37" transform="translate(83.789062 0)"/>
       <use xlink:href="#DejaVuSans-35" transform="translate(147.412109 0)"/>
      </g>
     </g>
    </g>
    <g id="ytick_4">
     <g id="line2d_8">
      <g>
       <use xlink:href="#m046366b26b" x="41.667188" y="95.324775" style="stroke: #000000; stroke-width: 0.8"/>
      </g>
     </g>
     <g id="text_8">
      <!-- −50 -->
      <g transform="translate(13.5625 99.123994) scale(0.1 -0.1)">
       <use xlink:href="#DejaVuSans-2212"/>
       <use xlink:href="#DejaVuSans-35" transform="translate(83.789062 0)"/>
       <use xlink:href="#DejaVuSans-30" transform="translate(147.412109 0)"/>
      </g>
     </g>
    </g>
    <g id="ytick_5">
     <g id="line2d_9">
      <g>
       <use xlink:href="#m046366b26b" x="41.667188" y="69.648358" style="stroke: #000000; stroke-width: 0.8"/>
      </g>
     </g>
     <g id="text_9">
      <!-- −25 -->
      <g transform="translate(13.5625 73.447576) scale(0.1 -0.1)">
       <use xlink:href="#DejaVuSans-2212"/>
       <use xlink:href="#DejaVuSans-32" transform="translate(83.789062 0)"/>
       <use xlink:href="#DejaVuSans-35" transform="translate(147.412109 0)"/>
      </g>
     </g>
    </g>
    <g id="ytick_6">
     <g id="line2d_10">
      <g>
       <use xlink:href="#m046366b26b" x="41.667188" y="43.97194" style="stroke: #000000; stroke-width: 0.8"/>
      </g>
     </g>
     <g id="text_10">
      <!-- 0 -->
      <g transform="translate(28.304688 47.771159) scale(0.1 -0.1)">
       <use xlink:href="#DejaVuSans-30"/>
      </g>
     </g>
    </g>
    <g id="ytick_7">
     <g id="line2d_11">
      <g>
       <use xlink:href="#m046366b26b" x="41.667188" y="18.295523" style="stroke: #000000; stroke-width: 0.8"/>
      </g>
     </g>
     <g id="text_11">
      <!-- 25 -->
      <g transform="translate(21.942188 22.094742) scale(0.1 -0.1)">
       <use xlink:href="#DejaVuSans-32"/>
       <use xlink:href="#DejaVuSans-35" transform="translate(63.623047 0)"/>
      </g>
     </g>
    </g>
   </g>
   <g id="line2d_12">
    <path d="M 51.812642 110.889851 
L 51.964568 110.795821 
L 52.049544 110.764478 
L 52.023794 110.858507 
L 52.072719 110.795821 
L 52.077869 110.858507 
L 52.162845 110.607761 
L 52.17572 110.639104 
L 52.381722 110.733134 
L 52.392022 110.701791 
L 52.502748 110.858507 
L 52.587723 110.827164 
L 52.518198 110.921194 
L 52.603174 110.889851 
L 52.639224 111.046567 
L 52.716474 111.015224 
L 52.829775 110.858507 
L 52.737075 111.07791 
L 52.834925 110.889851 
L 52.912176 110.983881 
L 52.883851 110.858507 
L 52.948226 110.921194 
L 53.061527 110.764478 
L 52.973977 110.983881 
L 53.069252 110.795821 
L 53.182553 110.952537 
L 53.185128 110.921194 
L 53.190278 110.858507 
L 53.298429 110.952537 
L 53.393705 110.858507 
L 53.308729 110.983881 
L 53.41173 110.889851 
L 53.41688 110.952537 
L 53.460656 110.764478 
L 53.517306 110.827164 
L 53.630607 110.733134 
L 53.658932 110.795821 
L 53.687257 110.670448 
L 53.741333 110.764478 
L 53.854634 110.576418 
L 53.751633 110.795821 
L 53.857209 110.607761 
L 53.911284 110.576418 
L 54.003985 110.482388 
L 53.952485 110.607761 
L 54.02201 110.513731 
L 54.076086 110.576418 
L 54.114711 110.419701 
L 54.127586 110.482388 
L 54.235737 110.325672 
L 54.246037 110.357015 
L 54.248612 110.388358 
L 54.331013 110.200299 
L 54.346463 110.231642 
L 54.395388 110.012239 
L 54.467489 110.074925 
L 54.58079 110.168955 
L 54.583365 110.137612 
L 54.686366 110.012239 
L 54.699241 110.043582 
L 54.701816 110.106269 
L 54.789366 109.918209 
L 54.804817 110.012239 
L 54.915543 109.886866 
L 54.815117 110.043582 
L 54.918118 109.949552 
L 55.070044 109.855522 
L 55.18077 109.730149 
L 55.095794 109.886866 
L 55.183345 109.761493 
L 55.291496 109.855522 
L 55.193645 109.698806 
L 55.294071 109.792836 
L 55.319821 109.886866 
L 55.407372 109.730149 
L 55.518097 109.824179 
L 55.520672 109.792836 
L 55.639123 109.573433 
L 55.546423 109.855522 
L 55.644274 109.636119 
L 55.718949 109.730149 
L 55.708649 109.573433 
L 55.749849 109.604776 
L 55.803925 109.54209 
L 55.767875 109.636119 
L 55.858 109.636119 
L 56.246828 109.54209 
L 56.288029 109.510746 
L 56.334379 109.636119 
L 56.352404 109.604776 
L 56.743808 109.667463 
L 56.854533 109.761493 
L 56.782433 109.636119 
L 56.857108 109.730149 
L 56.859683 109.698806 
L 56.921484 109.855522 
L 56.962684 109.761493 
L 57.106886 117.84806 
L 57.418463 127.658507 
L 57.843342 135.306269 
L 57.845917 135.274925 
L 57.894842 135.995821 
L 58.095694 138.189851 
L 58.105994 138.283881 
L 58.417571 140.76 
L 58.420146 140.728657 
L 58.484522 141.230149 
L 58.489672 141.230149 
L 58.626148 141.857015 
L 58.798674 142.609254 
L 58.801249 142.57791 
L 58.88365 142.922687 
L 58.886225 142.891343 
L 59.012401 143.298806 
L 59.035576 143.361493 
L 59.151452 143.486866 
L 59.215828 143.580896 
L 59.336854 143.768955 
L 59.233853 143.549552 
L 59.339429 143.737612 
L 59.49908 143.800299 
L 59.620106 144.145075 
L 59.627831 144.082388 
L 59.710232 144.301791 
L 59.723107 144.301791 
L 59.810658 144.427164 
L 59.838983 144.395821 
L 59.957434 144.270448 
L 60.06301 144.364478 
L 59.972884 144.239104 
L 60.070735 144.333134 
L 60.111935 144.427164 
L 60.235536 144.583881 
L 60.330812 144.395821 
L 60.348837 144.458507 
L 60.351412 144.521194 
L 60.415788 144.333134 
L 60.451838 144.364478 
L 60.557414 144.207761 
L 60.485313 144.395821 
L 60.565139 144.270448 
L 60.598614 144.333134 
L 60.634664 144.176418 
L 60.670715 144.207761 
L 60.848391 144.301791 
L 60.881867 144.270448 
L 60.961692 144.395821 
L 60.992592 144.301791 
L 61.036368 144.489851 
L 61.067268 144.458507 
L 61.098168 144.552537 
L 61.208894 144.77194 
L 61.126494 144.521194 
L 61.214044 144.740597 
L 61.34537 144.427164 
L 61.347945 144.458507 
L 61.373696 144.489851 
L 61.399446 144.301791 
L 61.445796 144.333134 
L 61.571972 143.988358 
L 61.577122 144.082388 
L 61.608022 143.988358 
L 61.623473 144.019701 
L 61.734199 143.737612 
L 61.842349 143.862985 
L 61.785699 143.706269 
L 61.847499 143.800299 
L 61.947925 143.894328 
L 62.074101 144.145075 
L 62.076676 144.113731 
L 62.220877 144.207761 
L 62.347054 144.458507 
L 62.398554 144.395821 
L 62.375379 144.521194 
L 62.457779 144.458507 
L 62.49898 144.239104 
L 62.57623 144.364478 
L 62.635456 144.458507 
L 62.681806 144.552537 
L 62.640606 144.427164 
L 62.748757 144.489851 
L 63.044884 144.521194 
L 63.14531 144.67791 
L 63.055184 144.489851 
L 63.15561 144.583881 
L 63.387362 144.67791 
L 63.505813 144.86597 
L 63.508388 144.834627 
L 63.613964 144.803284 
L 63.601089 144.897313 
L 63.616539 144.86597 
L 63.701515 144.96 
L 63.804516 145.085373 
L 63.72984 144.928657 
L 63.814816 145.022687 
L 63.843141 144.991343 
L 63.845716 145.116716 
L 63.915241 145.05403 
L 63.920391 145.14806 
L 64.002792 144.991343 
L 64.023392 145.022687 
L 64.031117 145.05403 
L 64.144418 144.86597 
L 64.252569 144.928657 
L 64.177894 144.803284 
L 64.255144 144.897313 
L 64.36072 144.86597 
L 64.268019 144.96 
L 64.36587 144.897313 
L 64.484321 145.05403 
L 64.569297 144.897313 
L 64.597622 144.96 
L 64.610497 144.86597 
L 64.710923 144.991343 
L 64.726373 144.928657 
L 64.808774 145.085373 
L 64.821649 144.96 
L 64.9195 145.05403 
L 64.937525 145.022687 
L 65.004475 144.991343 
L 65.097176 144.834627 
L 65.117776 144.86597 
L 65.158977 144.77194 
L 65.246527 144.489851 
L 65.277428 144.583881 
L 65.465404 144.67791 
L 65.537505 144.77194 
L 65.568405 144.583881 
L 65.578705 144.709254 
L 65.60188 144.67791 
L 65.702306 144.458507 
L 65.715181 144.521194 
L 65.849082 144.458507 
L 65.964958 144.239104 
L 65.988133 144.301791 
L 66.070534 144.113731 
L 66.178685 144.176418 
L 66.116884 144.051045 
L 66.183835 144.145075 
L 66.250786 144.207761 
L 66.366662 144.364478 
L 66.485113 144.176418 
L 66.562363 144.082388 
L 66.701414 143.706269 
L 66.706564 143.737612 
L 66.78639 143.549552 
L 66.799265 143.580896 
L 66.879091 143.518209 
L 66.82244 143.643582 
L 66.909991 143.580896 
L 67.015567 143.612239 
L 66.958916 143.518209 
L 67.020717 143.580896 
L 67.064492 143.674925 
L 67.182943 143.800299 
L 67.262769 143.957015 
L 67.296244 141.073433 
L 67.618122 128.222687 
L 68.194927 116.876418 
L 68.207802 116.813731 
L 68.367453 114.964478 
L 68.377753 114.870448 
L 68.547704 113.428657 
L 68.56058 113.36597 
L 68.715081 112.237612 
L 68.717656 112.268955 
L 68.782031 111.861493 
L 68.789756 111.861493 
L 68.915932 111.17194 
L 68.918507 111.26597 
L 69.013783 110.827164 
L 69.016358 110.827164 
L 69.018933 110.858507 
L 69.085884 110.545075 
L 69.103909 110.545075 
L 69.119359 110.482388 
L 69.25326 109.918209 
L 69.266135 109.980896 
L 69.312486 109.761493 
L 69.348536 109.761493 
L 69.353686 109.792836 
L 69.474712 109.54209 
L 69.503037 109.573433 
L 69.567413 109.416716 
L 69.577713 109.44806 
L 69.639513 109.385373 
L 69.737364 109.197313 
L 69.752814 109.291343 
L 69.80689 109.35403 
L 69.850665 109.197313 
L 69.85839 109.26 
L 69.945941 109.197313 
L 69.886715 109.291343 
L 69.969116 109.26 
L 70.092717 109.103284 
L 70.221468 109.040597 
L 70.339919 108.852537 
L 70.42747 108.789851 
L 70.543346 108.539104 
L 70.545921 108.601791 
L 70.702997 108.539104 
L 70.800848 108.476418 
L 70.739047 108.601791 
L 70.813723 108.507761 
L 70.839473 108.601791 
L 70.888399 108.507761 
L 70.952774 108.633134 
L 71.04805 108.539104 
L 71.066075 108.570448 
L 71.130451 108.633134 
L 71.08925 108.476418 
L 71.169076 108.507761 
L 71.194826 108.570448 
L 71.279802 108.413731 
L 71.377653 108.539104 
L 71.344177 108.382388 
L 71.393103 108.476418 
L 71.411128 108.507761 
L 71.429153 108.382388 
L 71.498679 108.445075 
L 71.61198 108.351045 
L 71.511554 108.476418 
L 71.614555 108.382388 
L 71.807681 108.319701 
L 71.923557 108.006269 
L 71.928707 108.037612 
L 71.985358 108.100299 
L 72.098659 108.194328 
L 72.168184 108.068955 
L 72.124409 108.225672 
L 72.21196 108.131642 
L 72.276335 108.162985 
L 72.23771 108.037612 
L 72.322685 108.131642 
L 72.479762 108.037612 
L 72.559587 107.849552 
L 72.600788 107.880896 
L 72.639413 107.974925 
L 72.660013 107.818209 
L 72.711514 107.880896 
L 72.819665 107.724179 
L 72.824815 107.786866 
L 72.93554 107.724179 
L 73.002491 107.630149 
L 73.043691 107.724179 
L 73.151842 107.943582 
L 73.164717 107.880896 
L 73.265143 107.818209 
L 73.244543 107.943582 
L 73.278018 107.849552 
L 73.301193 107.912239 
L 73.378444 107.755522 
L 73.386169 107.818209 
L 73.401619 107.755522 
L 73.429945 107.880896 
L 73.48917 107.880896 
L 73.589596 107.974925 
L 73.502045 107.849552 
L 73.602471 107.912239 
L 73.965549 107.849552 
L 73.980999 107.786866 
L 73.975849 107.912239 
L 74.076275 107.849552 
L 74.1252 107.692836 
L 74.086575 107.912239 
L 74.192151 107.755522 
L 74.274551 107.849552 
L 74.230776 107.724179 
L 74.308027 107.818209 
L 74.393002 107.755522 
L 74.395577 107.692836 
L 74.470253 107.818209 
L 74.503728 107.724179 
L 74.588704 107.818209 
L 74.511453 107.661493 
L 74.617029 107.755522 
L 74.732905 107.567463 
L 74.738055 107.598806 
L 74.820456 107.692836 
L 74.75608 107.567463 
L 74.851356 107.630149 
L 74.859081 107.567463 
L 74.913157 107.692836 
L 74.954357 107.661493 
L 74.956932 107.724179 
L 75.003282 107.44209 
L 75.059933 107.567463 
L 75.175809 107.44209 
L 75.28911 107.34806 
L 75.376661 107.285373 
L 75.32001 107.44209 
L 75.402411 107.316716 
L 75.528587 107.410746 
L 75.531162 107.44209 
L 75.585237 107.25403 
L 75.626438 107.25403 
L 75.747464 107.097313 
L 75.860764 107.222687 
L 75.86334 107.191343 
L 75.865915 107.16 
L 75.917415 107.34806 
L 75.958615 107.316716 
L 76.077066 107.567463 
L 76.149167 107.473433 
L 76.187792 107.536119 
L 76.259893 107.473433 
L 76.303668 107.379403 
L 76.272768 107.536119 
L 76.373194 107.410746 
L 76.468469 107.598806 
L 76.48907 107.536119 
L 76.548295 107.473433 
L 76.57147 107.598806 
L 76.594646 107.567463 
L 76.669321 107.598806 
L 76.625546 107.473433 
L 76.695071 107.473433 
L 76.702796 107.379403 
L 76.749147 107.536119 
L 76.803222 107.504776 
L 77.122525 107.598806 
L 77.194625 107.692836 
L 77.14055 107.567463 
L 77.238401 107.661493 
L 77.310501 107.598806 
L 77.405777 107.504776 
L 77.423802 107.536119 
L 77.689029 107.473433 
L 77.80748 107.285373 
L 77.946532 107.222687 
L 78.039232 107.097313 
L 78.003182 107.285373 
L 78.059833 107.16 
L 78.067558 107.06597 
L 78.149958 107.25403 
L 78.165408 107.222687 
L 78.206609 107.128657 
L 78.29931 107.034627 
L 78.214334 107.16 
L 78.317335 107.097313 
L 78.31991 107.128657 
L 78.368835 106.97194 
L 78.41776 107.034627 
L 78.458961 106.940597 
L 78.464111 107.06597 
L 78.525911 107.06597 
L 78.610887 107.097313 
L 78.693288 107.222687 
L 78.721613 107.128657 
L 78.785989 107.222687 
L 78.796289 107.25403 
L 78.865814 107.06597 
L 78.883839 107.06597 
L 78.92504 106.97194 
L 78.989415 107.128657 
L 78.99199 107.097313 
L 79.094991 107.034627 
L 79.131041 106.940597 
L 79.172242 107.097313 
L 79.205717 107.003284 
L 79.347343 106.940597 
L 79.383393 106.97194 
L 79.460644 106.815224 
L 79.506994 106.909254 
L 79.481244 106.783881 
L 79.57137 106.846567 
L 79.658921 106.721194 
L 79.684671 106.752537 
L 79.723296 106.815224 
L 79.761922 106.658507 
L 79.792822 106.721194 
L 79.872647 106.627164 
L 79.906123 106.689851 
L 79.942173 106.721194 
L 79.913848 106.627164 
L 80.011699 106.658507 
L 80.019424 106.564478 
L 80.052899 106.689851 
L 80.127575 106.595821 
L 80.1662 106.689851 
L 80.282076 106.752537 
L 80.284651 106.689851 
L 80.312976 106.846567 
L 80.390227 106.815224 
L 81.559286 106.752537 
L 81.567011 106.783881 
L 81.675162 106.595821 
L 81.760138 106.501791 
L 81.878589 106.313731 
L 81.883739 106.345075 
L 81.888889 106.313731 
L 81.891464 106.219701 
L 81.901764 106.407761 
L 81.999615 106.313731 
L 82.112916 106.219701 
L 82.221067 106.125672 
L 82.118066 106.251045 
L 82.226217 106.188358 
L 82.540369 106.094328 
L 82.656245 105.874925 
L 82.56612 106.125672 
L 82.661395 105.937612 
L 82.725771 108.068955 
L 82.978123 125.401791 
L 83.487977 144.834627 
L 83.81758 152.858507 
L 83.820155 152.827164 
L 83.85878 153.64209 
L 84.134307 157.65403 
L 84.649312 162.668955 
L 84.654462 162.637612 
L 84.667337 162.731642 
L 84.881064 164.016716 
L 84.904239 163.95403 
L 84.978914 164.330149 
L 85.03299 164.392836 
L 85.143716 164.706269 
L 85.154016 164.643582 
L 85.238991 164.706269 
L 85.354867 165.113731 
L 85.365168 165.082388 
L 85.411518 165.176418 
L 85.499069 165.364478 
L 85.416668 165.145075 
L 85.535119 165.333134 
L 85.67932 165.301791 
L 85.687045 165.207761 
L 85.764296 165.364478 
L 85.790046 165.301791 
L 85.905922 165.427164 
L 85.931672 165.364478 
L 85.929097 165.521194 
L 86.014073 165.458507 
L 86.109349 165.552537 
L 86.021798 165.427164 
L 86.127374 165.521194 
L 86.147974 165.489851 
L 86.196899 165.646567 
L 86.23295 165.583881 
L 86.2587 165.67791 
L 86.323075 165.458507 
L 86.338526 165.458507 
L 86.353976 165.552537 
L 86.451826 165.427164 
L 86.588303 165.834627 
L 86.652678 165.615224 
L 86.701603 165.67791 
L 86.87413 165.583881 
L 86.977131 165.427164 
L 86.87928 165.615224 
L 86.992581 165.489851 
L 87.018331 165.427164 
L 87.020906 165.364478 
L 87.062106 165.521194 
L 87.129057 165.395821 
L 87.226908 165.521194 
L 87.247508 165.489851 
L 87.329909 165.427164 
L 87.280983 165.552537 
L 87.358234 165.489851 
L 87.461235 165.615224 
L 87.386559 165.395821 
L 87.47411 165.552537 
L 87.47926 165.489851 
L 87.512735 165.709254 
L 87.574536 165.67791 
L 87.638911 165.803284 
L 87.690412 165.740597 
L 87.814013 165.834627 
L 87.906713 165.96 
L 87.824313 165.77194 
L 87.927314 165.86597 
L 88.14104 165.803284 
L 88.259491 165.583881 
L 88.300692 165.740597 
L 88.357342 165.521194 
L 88.365067 165.521194 
L 88.501543 165.207761 
L 88.504118 165.239104 
L 88.578794 164.925672 
L 88.589094 164.957015 
L 88.72557 164.643582 
L 88.753895 164.706269 
L 88.813121 164.518209 
L 88.828571 164.549552 
L 88.949597 164.267463 
L 88.952172 164.298806 
L 89.034573 164.110746 
L 89.050023 164.14209 
L 89.168474 163.891343 
L 89.176199 163.95403 
L 89.225124 163.86 
L 89.33585 163.797313 
L 89.338425 163.828657 
L 89.34615 163.891343 
L 89.433701 163.640597 
L 89.436276 163.67194 
L 89.444001 163.734627 
L 89.567602 163.358507 
L 89.570177 163.421194 
L 89.660303 163.076418 
L 89.668028 163.139104 
L 89.696353 163.045075 
L 89.850854 162.512239 
L 89.868879 162.449552 
L 89.98733 162.136119 
L 89.989905 162.167463 
L 90.046556 162.073433 
L 90.126382 161.822687 
L 90.175307 161.85403 
L 90.260283 161.76 
L 90.376159 161.47791 
L 90.389034 161.509254 
L 90.399334 161.603284 
L 90.486885 161.352537 
L 90.49461 161.383881 
L 90.53066 161.289851 
L 90.543535 161.352537 
L 90.664561 161.007761 
L 90.677436 161.070448 
L 90.759837 160.819701 
L 90.762412 160.882388 
L 90.914338 160.349552 
L 90.983864 160.380896 
L 91.012189 160.224179 
L 91.017339 160.286866 
L 91.158965 159.816716 
L 91.164115 159.84806 
L 91.218191 159.785373 
L 91.341792 159.37791 
L 91.344367 159.409254 
L 91.367542 159.440597 
L 91.488568 159.001791 
L 91.491143 159.033134 
L 91.550368 158.751045 
L 91.578694 158.751045 
L 91.691994 158.406269 
L 91.712595 158.468955 
L 91.74092 158.374925 
L 91.900571 157.685373 
L 91.905721 157.716716 
L 91.908296 157.74806 
L 91.985547 157.434627 
L 91.995847 157.46597 
L 92.132323 156.807761 
L 92.199274 156.870448 
L 92.227599 156.682388 
L 92.232749 156.745075 
L 92.353775 156.368955 
L 92.37695 156.306269 
L 92.497976 155.961493 
L 92.500551 155.992836 
L 92.673078 155.240597 
L 92.701403 155.146567 
L 92.855904 154.613731 
L 92.876504 154.551045 
L 93.000105 154.143582 
L 93.00268 154.174925 
L 93.090231 154.112239 
L 93.211257 153.861493 
L 93.237007 153.767463 
L 93.399233 153.046567 
L 93.404384 153.07791 
L 93.443009 153.015224 
L 93.56146 152.607761 
L 93.564035 152.639104 
L 93.60781 152.576418 
L 93.731411 152.231642 
L 93.780337 152.137612 
L 93.906513 151.761493 
L 93.919388 151.792836 
L 93.947713 151.698806 
L 93.958013 151.761493 
L 94.071314 151.510746 
L 94.076464 151.54209 
L 94.16144 151.26 
L 94.169165 151.291343 
L 94.297916 150.915224 
L 94.300491 150.97791 
L 94.400917 150.758507 
L 94.491042 150.664478 
L 94.622369 150.225672 
L 94.627519 150.319701 
L 94.630094 150.351045 
L 94.717644 150.100299 
L 94.722794 150.131642 
L 94.836095 150.006269 
L 94.740819 150.162985 
L 94.841245 150.037612 
L 94.84382 150.068955 
L 94.910771 149.849552 
L 94.936521 149.849552 
L 94.993172 149.818209 
L 95.116773 149.316716 
L 95.121923 149.34806 
L 95.271274 148.752537 
L 95.278999 148.815224 
L 95.35625 148.439104 
L 95.46955 148.188358 
L 95.374275 148.470448 
L 95.474701 148.219701 
L 95.487576 148.282388 
L 95.564826 148.031642 
L 95.572551 148.062985 
L 95.701302 147.749552 
L 95.706452 147.780896 
L 95.750228 147.686866 
L 95.768253 147.718209 
L 95.868679 147.467463 
L 95.927904 147.404776 
L 96.056655 146.934627 
L 96.06953 146.96597 
L 96.139056 146.652537 
L 96.144206 146.683881 
L 96.290982 146.213731 
L 96.296132 146.276418 
L 96.378533 146.025672 
L 96.388833 146.057015 
L 96.445483 145.962985 
L 96.59226 145.524179 
L 96.62316 145.430149 
L 96.782811 144.803284 
L 96.785386 144.834627 
L 96.854912 144.583881 
L 96.875512 144.583881 
L 96.908987 144.489851 
L 97.048038 144.082388 
L 97.050613 144.113731 
L 97.084089 144.019701 
L 97.21799 143.612239 
L 97.225715 143.643582 
L 97.25404 143.549552 
L 97.398241 143.14209 
L 97.439442 143.04806 
L 97.591368 142.515224 
L 97.593943 142.57791 
L 97.678919 142.327164 
L 97.691794 142.327164 
L 97.815395 142.013731 
L 97.944146 141.700299 
L 97.949296 141.731642 
L 97.954446 141.762985 
L 98.036847 141.449552 
L 98.183623 141.010746 
L 98.247998 140.916716 
L 98.374174 140.47791 
L 98.392199 140.509254 
L 98.435975 140.415224 
L 98.544126 140.133134 
L 98.446275 140.446567 
L 98.564726 140.164478 
L 98.587901 140.195821 
L 98.634251 140.007761 
L 98.667727 140.070448 
L 98.786178 139.851045 
L 98.791328 139.913731 
L 98.819653 139.851045 
L 98.938104 139.506269 
L 98.940679 139.537612 
L 99.015355 139.224179 
L 99.025655 139.255522 
L 99.195606 138.47194 
L 99.198181 138.503284 
L 99.200756 138.534627 
L 99.278007 138.158507 
L 99.283157 138.189851 
L 99.427358 137.751045 
L 99.432508 137.782388 
L 99.509759 137.500299 
L 99.520059 137.531642 
L 99.538084 137.437612 
L 99.70031 136.810746 
L 99.72091 136.84209 
L 99.782711 136.685373 
L 99.803311 136.716716 
L 99.942362 136.340597 
L 99.960387 136.403284 
L 100.045363 136.152537 
L 100.050513 136.183881 
L 100.138064 135.933134 
L 100.140639 135.964478 
L 100.28999 135.494328 
L 100.323465 135.431642 
L 100.449641 135.055522 
L 100.457366 135.086866 
L 100.532042 134.867463 
L 100.542342 134.867463 
L 100.678818 134.428657 
L 100.681393 134.491343 
L 100.689118 134.522687 
L 100.771519 134.240597 
L 100.88997 133.864478 
L 100.776669 134.27194 
L 100.907995 133.927164 
L 100.94147 133.833134 
L 101.067646 133.425672 
L 101.085672 133.331642 
L 101.214423 133.112239 
L 101.219573 133.143582 
L 101.286523 132.892836 
L 101.307123 132.924179 
L 101.44875 132.54806 
L 101.4848 132.485373 
L 101.608401 132.17194 
L 101.636726 132.203284 
L 101.680501 131.983881 
L 101.703677 132.015224 
L 101.847878 131.607761 
L 101.886503 131.513731 
L 102.046154 130.918209 
L 102.082205 130.855522 
L 102.087355 130.886866 
L 102.205806 130.54209 
L 102.218681 130.573433 
L 102.350007 130.103284 
L 102.355157 130.16597 
L 102.434983 129.852537 
L 102.437558 129.852537 
L 102.556009 129.507761 
L 102.561159 129.539104 
L 102.628109 129.351045 
L 102.651284 129.351045 
L 102.787761 128.912239 
L 102.795486 128.943582 
L 102.798061 128.974925 
L 102.888186 128.786866 
L 102.890761 128.818209 
L 103.014362 128.473433 
L 103.050413 128.379403 
L 103.199764 127.909254 
L 103.225514 127.815224 
L 103.233239 127.87791 
L 103.38259 127.251045 
L 103.400616 127.219701 
L 103.519067 126.874925 
L 103.537092 126.937612 
L 103.604042 126.718209 
L 103.614342 126.718209 
L 103.624642 126.749552 
L 103.750818 126.404776 
L 103.753393 126.467463 
L 103.848669 126.15403 
L 103.974845 125.746567 
L 103.985145 125.840597 
L 104.018621 125.746567 
L 104.152522 125.370448 
L 104.034071 125.77791 
L 104.157672 125.401791 
L 104.183422 125.307761 
L 104.325048 124.931642 
L 104.327623 124.962985 
L 104.412599 124.712239 
L 104.415174 124.712239 
L 104.53105 124.492836 
L 104.533625 124.524179 
L 104.670101 124.14806 
L 104.675251 124.210746 
L 104.767952 123.928657 
L 104.770527 123.991343 
L 104.904428 123.427164 
L 104.907003 123.458507 
L 104.984254 123.176418 
L 104.994554 123.176418 
L 105.169655 122.392836 
L 105.17223 122.424179 
L 105.252056 122.079403 
L 105.259781 122.14209 
L 105.295831 122.079403 
L 105.422007 121.515224 
L 105.427157 121.546567 
L 105.440032 121.57791 
L 105.501833 121.233134 
L 105.514708 121.264478 
L 105.656334 120.825672 
L 105.658909 120.857015 
L 105.687234 120.762985 
L 105.828861 120.355522 
L 105.852036 120.386866 
L 105.916411 120.136119 
L 105.921561 120.136119 
L 105.947311 120.073433 
L 106.073488 119.697313 
L 106.124988 119.634627 
L 106.248589 119.289851 
L 106.251164 119.321194 
L 106.34129 119.070448 
L 106.385065 119.007761 
L 106.506091 118.725672 
L 106.562742 118.662985 
L 106.686343 118.318209 
L 106.732693 118.224179 
L 106.874319 117.785373 
L 106.897494 117.84806 
L 106.96702 117.56597 
L 106.974745 117.628657 
L 107.098346 117.252537 
L 107.113796 117.315224 
L 107.191047 117.001791 
L 107.201347 117.064478 
L 107.324948 116.657015 
L 107.327523 116.688358 
L 107.332673 116.719701 
L 107.471724 116.280896 
L 107.494899 116.186866 
L 107.505199 116.218209 
L 107.636525 115.810746 
L 107.662276 115.716716 
L 107.809052 115.27791 
L 107.855402 115.183881 
L 108.015053 114.588358 
L 108.022779 114.682388 
L 108.102604 114.368955 
L 108.115479 114.400299 
L 108.226205 114.055522 
L 108.23908 114.086866 
L 108.396157 113.522687 
L 108.432207 113.428657 
L 108.594433 112.801791 
L 108.620183 112.707761 
L 108.774685 112.143582 
L 108.779835 112.206269 
L 108.862235 111.767463 
L 108.86996 111.798806 
L 108.903436 111.704776 
L 109.073387 110.983881 
L 109.078537 111.07791 
L 109.158363 110.795821 
L 109.168663 110.827164 
L 109.318014 110.357015 
L 109.36694 110.451045 
L 109.41844 110.231642 
L 109.547191 109.918209 
L 109.552341 109.949552 
L 109.557491 109.980896 
L 109.619292 109.698806 
L 109.639892 109.698806 
L 109.789243 109.228657 
L 109.804693 109.26 
L 109.827868 109.07194 
L 109.887094 109.07194 
L 109.938594 108.97791 
L 110.072495 108.695821 
L 110.077645 108.758507 
L 110.157471 108.382388 
L 110.162621 108.476418 
L 110.291372 108.131642 
L 110.296522 108.162985 
L 110.304247 108.194328 
L 110.394373 108.006269 
L 110.435573 107.943582 
L 110.556599 107.692836 
L 110.6287 107.598806 
L 110.731701 107.473433 
L 110.636425 107.661493 
L 110.742001 107.504776 
L 110.829552 107.410746 
L 110.955728 107.16 
L 110.958303 107.191343 
L 110.960878 107.191343 
L 111.058728 106.87791 
L 111.076754 106.940597 
L 111.200355 106.595821 
L 111.22868 106.501791 
L 111.23383 106.533134 
L 111.372881 106.062985 
L 111.375456 106.125672 
L 111.455282 105.843582 
L 111.473307 105.937612 
L 111.596908 105.436119 
L 111.674159 105.373433 
L 111.792609 105.028657 
L 111.805485 105.091343 
L 111.882735 104.87194 
L 111.893035 104.903284 
L 112.014061 104.715224 
L 111.916211 104.934627 
L 112.016636 104.746567 
L 112.050112 104.652537 
L 112.062987 104.683881 
L 112.191738 104.276418 
L 112.199463 104.339104 
L 112.276713 103.962985 
L 112.397739 103.586866 
L 112.400314 103.649552 
L 112.43379 103.586866 
L 112.554816 103.304776 
L 112.606316 103.210746 
L 112.747942 102.803284 
L 112.755667 102.86597 
L 112.827768 102.521194 
L 112.835493 102.521194 
L 112.861243 102.427164 
L 112.992569 102.176418 
L 113.005444 102.113731 
L 113.12647 101.831642 
L 113.188271 101.768955 
L 113.298997 101.486866 
L 113.309297 101.518209 
L 113.394273 101.424179 
L 113.407148 101.455522 
L 113.517874 101.236119 
L 113.520449 101.267463 
L 113.595124 101.016716 
L 113.607999 101.016716 
L 113.68525 100.828657 
L 113.72645 100.922687 
L 113.762501 100.828657 
L 113.880952 100.67194 
L 113.767651 100.86 
L 113.883527 100.703284 
L 113.958202 100.609254 
L 114.084378 100.170448 
L 114.110129 100.233134 
L 114.153904 100.076418 
L 114.187379 100.076418 
L 114.313555 99.668955 
L 114.344455 99.606269 
L 114.470631 99.198806 
L 114.504107 99.292836 
L 114.560757 98.979403 
L 114.563332 99.010746 
L 114.686933 98.603284 
L 114.689508 98.634627 
L 114.789934 98.446567 
L 114.813109 98.47791 
L 114.84401 98.383881 
L 114.970186 98.007761 
L 115.013961 97.945075 
L 115.088637 97.694328 
L 115.132412 97.725672 
L 115.153012 97.788358 
L 115.227688 97.568955 
L 115.364164 97.130149 
L 115.369314 97.161493 
L 115.45429 97.192836 
L 115.46974 97.036119 
L 115.621666 96.346567 
L 115.631966 96.409254 
L 115.760717 96.66 
L 115.814793 96.47194 
L 115.874018 96.534627 
L 115.886893 96.628657 
L 115.953844 96.221194 
L 115.956419 96.221194 
L 116.08517 95.939104 
L 116.13667 96.127164 
L 116.188171 95.782388 
L 116.190746 95.813731 
L 116.283446 95.939104 
L 116.201046 95.782388 
L 116.301472 95.876418 
L 116.414772 95.562985 
L 116.422498 95.594328 
L 116.453398 95.657015 
L 116.517773 95.406269 
L 116.535798 95.374925 
L 116.589874 95.437612 
L 116.651674 95.155522 
L 116.793301 94.716716 
L 116.795876 94.74806 
L 116.798451 94.779403 
L 116.826776 94.622687 
L 116.896301 94.622687 
L 116.958102 94.56 
L 117.102303 93.713731 
L 117.120328 93.619701 
L 117.243929 93.337612 
L 117.249079 93.400299 
L 117.318605 93.462985 
L 117.34693 93.243582 
L 117.35723 93.180896 
L 117.488556 92.46 
L 117.496281 92.491343 
L 117.532332 92.55403 
L 117.570957 92.836119 
L 117.637907 92.428657 
L 117.673958 89.795821 
L 117.707433 15.794328 
L 117.779534 94.215224 
L 117.908285 100.452537 
L 117.91086 100.421194 
L 117.96751 100.891343 
L 117.98296 100.86 
L 118.137462 101.424179 
L 118.258488 101.14209 
L 118.309988 101.079403 
L 118.431014 100.734627 
L 118.433589 100.76597 
L 118.590665 100.201791 
L 118.600965 100.107761 
L 118.799242 99.04209 
L 118.835292 98.94806 
L 119.007819 98.195821 
L 119.049019 98.101791 
L 119.206095 96.910746 
L 119.20867 96.973433 
L 119.293646 96.346567 
L 119.303946 96.252537 
L 119.329696 94.152537 
L 119.365747 15.167463 
L 119.437847 94.46597 
L 119.566598 100.107761 
L 119.75715 101.267463 
L 119.76745 101.236119 
L 119.847276 101.173433 
L 119.79835 101.298806 
L 119.875601 101.236119 
L 119.878176 101.267463 
L 119.950276 101.04806 
L 119.973452 101.079403 
L 120.161428 100.139104 
L 120.176878 100.045075 
L 120.313354 99.324179 
L 120.315929 99.355522 
L 120.32623 99.292836 
L 120.491031 97.945075 
L 120.501331 97.851045 
L 120.717633 96.56597 
L 120.725358 96.503284 
L 120.869559 95.531642 
L 120.874709 95.562985 
L 120.879859 95.625672 
L 120.94166 95.092836 
L 121.085861 94.058507 
L 121.093586 94.089851 
L 121.351088 91.049552 
L 121.387138 15.324179 
L 121.459239 92.930149 
L 121.585415 99.480896 
L 121.58799 99.449552 
L 121.711591 99.919701 
L 121.714166 99.825672 
L 121.830042 100.295821 
L 121.858367 100.233134 
L 122.010293 99.731642 
L 122.069519 99.668955 
L 122.21887 98.603284 
L 122.221445 98.634627 
L 122.242045 98.540597 
L 122.406847 97.224179 
L 122.424872 97.130149 
L 122.736449 94.685373 
L 122.744174 94.685373 
L 122.862625 94.152537 
L 122.8652 94.183881 
L 122.978501 93.243582 
L 123.048027 93.274925 
L 123.050602 93.306269 
L 123.091802 92.522687 
L 123.102102 89.294328 
L 123.135578 14.885373 
L 123.207678 92.27194 
L 123.336429 99.292836 
L 123.48063 100.013731 
L 123.503806 99.982388 
L 123.614532 99.888358 
L 123.557881 100.076418 
L 123.619682 99.919701 
L 123.622257 99.982388 
L 123.712382 99.606269 
L 123.717532 99.637612 
L 124.03941 97.067463 
L 124.04971 97.004776 
L 124.199061 95.531642 
L 124.201636 95.562985 
L 124.253137 94.84209 
L 124.286612 91.551045 
L 124.322662 15.104776 
L 124.394763 92.27194 
L 124.523514 99.073433 
L 124.693465 99.825672 
L 124.765566 99.762985 
L 124.781016 99.888358 
L 124.804191 99.825672 
L 124.842817 99.731642 
L 125.028218 98.76 
L 125.030793 98.791343 
L 125.038518 98.728657 
L 125.195595 97.600299 
L 125.200745 97.662985 
L 125.262545 97.067463 
L 125.445372 95.312239 
L 125.465972 95.218209 
L 125.749224 90.422687 
L 125.785274 14.885373 
L 125.857375 91.801791 
L 125.975826 98.822687 
L 125.986126 98.791343 
L 126.076252 99.292836 
L 126.112302 99.167463 
L 126.127752 99.261493 
L 126.225603 99.355522 
L 126.163802 99.198806 
L 126.241053 99.324179 
L 126.41873 98.509254 
L 126.421305 98.540597 
L 126.49083 98.039104 
L 126.52688 97.945075 
L 126.701982 96.315224 
L 126.704557 96.346567 
L 126.771507 95.907761 
L 126.779233 95.907761 
L 126.923434 94.37194 
L 126.931159 94.403284 
L 127.093385 93.118209 
L 127.09596 93.149552 
L 127.152611 92.585373 
L 127.157761 92.616716 
L 127.253036 87.633134 
L 127.286512 14.94806 
L 127.358612 91.112239 
L 127.479638 98.415224 
L 127.487363 98.321194 
L 127.616114 98.885373 
L 127.618689 98.822687 
L 127.631565 98.916716 
L 127.693365 99.04209 
L 127.74229 98.979403 
L 127.752591 99.010746 
L 127.948292 97.819701 
L 127.950867 97.851045 
L 128.004943 97.161493 
L 128.28047 95.092836 
L 128.283045 95.155522 
L 128.360296 94.434627 
L 128.362871 94.46597 
L 128.558572 88.604776 
L 128.594622 14.76 
L 128.666723 91.801791 
L 128.798049 98.415224 
L 128.805774 98.383881 
L 128.8753 98.728657 
L 128.883025 98.728657 
L 128.903625 98.791343 
L 129.019501 98.916716 
L 129.050401 98.822687 
L 129.189452 98.101791 
L 129.192027 98.164478 
L 129.266703 97.537612 
L 129.271853 97.537612 
L 129.416054 96.283881 
L 129.423779 96.189851 
L 129.54738 90.924179 
L 129.583431 15.04209 
L 129.658106 91.080896 
L 129.784282 98.728657 
L 129.789432 98.66597 
L 129.802307 98.728657 
L 129.931058 99.418209 
L 129.938783 99.355522 
L 129.961959 99.449552 
L 129.982559 99.480896 
L 130.054659 99.292836 
L 130.062384 99.324179 
L 130.119035 99.230149 
L 130.288986 97.788358 
L 130.304436 97.725672 
L 130.469238 96.409254 
L 130.814291 92.021194 
L 130.852916 14.85403 
L 130.925017 90.015224 
L 131.035742 97.882388 
L 131.056343 97.851045 
L 131.076943 97.945075 
L 131.231444 98.47791 
L 131.35762 98.383881 
L 131.522421 97.600299 
L 131.530147 97.631642 
L 131.532722 97.662985 
L 131.602247 97.161493 
L 131.761898 94.183881 
L 131.803099 15.574925 
L 131.877774 90.736119 
L 132.0091 98.070448 
L 132.014251 97.976418 
L 132.096651 98.603284 
L 132.166177 98.697313 
L 132.101801 98.57194 
L 132.209952 98.634627 
L 132.297503 98.540597 
L 132.524105 97.130149 
L 132.53183 97.098806 
L 132.616805 91.488358 
L 132.652856 15.606269 
L 132.727531 90.07791 
L 132.861432 98.352537 
L 132.874308 98.289851 
L 132.941258 98.728657 
L 132.974733 98.822687 
L 133.11121 99.324179 
L 133.11636 99.230149 
L 133.319786 98.070448 
L 133.322361 98.101791 
L 133.384162 97.506269 
L 133.559263 95.845075 
L 133.561838 95.876418 
L 133.574713 95.782388 
L 133.860541 93.651045 
L 133.873416 93.588358 
L 134.025342 92.585373 
L 134.061392 91.425672 
L 134.089718 35.101791 
L 134.102593 14.979403 
L 134.182418 91.801791 
L 134.308594 97.286866 
L 134.311169 97.224179 
L 134.344645 97.318209 
L 134.468246 97.662985 
L 134.475971 97.600299 
L 134.483696 97.631642 
L 134.599572 97.380896 
L 134.602147 97.443582 
L 134.692272 96.94209 
L 134.707723 96.879403 
L 134.921449 91.237612 
L 134.960075 15.355522 
L 135.032175 89.294328 
L 135.163501 97.380896 
L 135.178951 97.474925 
L 135.330878 97.976418 
L 135.444179 97.913731 
L 135.565205 97.412239 
L 135.56778 97.443582 
L 135.843307 95.437612 
L 135.858757 95.374925 
L 135.987508 87.445075 
L 136.023558 15.167463 
L 136.095659 89.137612 
L 136.22441 97.224179 
L 136.23986 97.192836 
L 136.293936 97.474925 
L 136.317111 97.443582 
L 136.427837 97.506269 
L 136.430412 97.568955 
L 136.525688 97.224179 
L 136.528263 97.255522 
L 136.77804 95.531642 
L 136.780615 95.562985 
L 136.832115 94.936119 
L 136.837265 94.967463 
L 136.909366 90.516716 
L 136.947991 15.418209 
L 137.020092 88.949552 
L 137.097342 97.224179 
L 137.148843 97.098806 
L 137.151418 97.067463 
L 137.223518 97.412239 
L 137.233818 97.412239 
L 137.362569 97.757015 
L 137.367719 97.725672 
L 137.509346 97.255522 
L 137.514496 97.286866 
L 137.537671 97.192836 
L 137.815773 93.557015 
L 137.859549 15.574925 
L 137.934224 89.701791 
L 138.062975 96.628657 
L 138.220051 97.286866 
L 138.222626 97.224179 
L 138.268977 97.161493 
L 138.390003 96.910746 
L 138.717031 94.27791 
L 138.732481 94.215224 
L 138.884407 93.180896 
L 138.886982 93.212239 
L 138.943632 92.64806 
L 138.946207 92.64806 
L 138.984833 88.980896 
L 139.023458 15.480896 
L 139.095559 88.291343 
L 139.177959 96.56597 
L 139.22431 96.440597 
L 139.26036 96.346567 
L 139.319585 96.56597 
L 139.322161 96.56597 
L 139.386536 96.785373 
L 139.327311 96.534627 
L 139.438036 96.691343 
L 139.463787 96.628657 
L 139.600263 96.001791 
L 139.92729 93.368955 
L 139.942741 93.306269 
L 140.115267 91.112239 
L 140.138442 91.237612 
L 140.156467 91.331642 
L 140.225993 90.986866 
L 140.408819 88.479403 
L 140.45002 15.512239 
L 140.52212 86.880896 
L 140.637996 95.876418 
L 140.653446 95.782388 
L 140.676622 95.813731 
L 140.733272 95.531642 
L 140.740997 95.531642 
L 140.751297 95.594328 
L 140.862023 95.406269 
L 140.887773 95.312239 
L 141.1118 93.870448 
L 140.900648 95.343582 
L 141.114375 93.901791 
L 141.13755 93.839104 
L 141.279177 92.679403 
L 141.297202 92.585373 
L 141.307502 92.616716 
L 141.369302 90.861493 
L 141.400203 32.343582 
L 141.413078 15.668955 
L 141.487753 88.040597 
L 141.611354 95.343582 
L 141.616504 95.312239 
L 141.65513 95.406269 
L 141.70148 95.562985 
L 141.768431 95.500299 
L 141.812206 95.406269 
L 141.969282 94.74806 
L 141.817356 95.437612 
L 141.971857 94.810746 
L 141.984732 94.74806 
L 141.989882 94.779403 
L 142.123784 94.027164 
L 142.144384 93.964478 
L 142.262835 88.824179 
L 142.304035 15.762985 
L 142.373561 86.316716 
L 142.499737 96.095821 
L 142.502312 96.064478 
L 142.618188 96.158507 
L 142.636213 96.189851 
L 142.672263 96.033134 
L 142.726338 96.127164 
L 142.88599 95.312239 
L 142.90144 95.343582 
L 142.91689 95.249552 
L 143.076541 93.933134 
L 143.079116 93.964478 
L 143.081691 93.995821 
L 143.143492 93.651045 
L 143.161517 93.651045 
L 143.331468 92.17791 
L 143.354644 92.083881 
L 143.426744 87.789851 
L 143.46537 15.198806 
L 143.53747 86.567463 
L 143.619871 95.625672 
L 143.668796 95.562985 
L 143.686821 95.657015 
L 143.779522 95.845075 
L 143.797547 95.688358 
L 143.810422 95.719701 
L 143.946898 95.186866 
L 143.949474 95.218209 
L 144.011274 94.622687 
L 144.1735 93.337612 
L 144.1838 93.243582 
L 144.291951 90.892836 
L 144.335727 15.919701 
L 144.407827 86.34806 
L 144.531428 95.688358 
L 144.536578 95.657015 
L 144.549453 95.719701 
L 144.608679 95.437612 
L 144.626704 95.468955 
L 144.74773 94.967463 
L 144.750305 94.998806 
L 144.889356 94.246567 
L 144.891931 94.27791 
L 144.948582 93.745075 
L 144.961457 93.807761 
L 145.113383 92.804776 
L 145.270459 90.36 
L 145.314235 15.762985 
L 145.386335 86.128657 
L 145.450711 95.437612 
L 145.515086 95.092836 
L 145.625812 94.74806 
L 145.636112 94.84209 
L 145.818939 93.933134 
L 145.821514 93.964478 
L 145.875589 93.368955 
L 145.878164 93.368955 
L 145.885889 93.400299 
L 146.022366 92.522687 
L 146.040391 92.46 
L 146.161417 91.676418 
L 146.171717 91.707761 
L 146.323643 87.100299 
L 146.362268 16.264478 
L 146.434369 85.470448 
L 146.51162 94.74806 
L 146.56312 94.56 
L 146.612045 94.340597 
L 146.686721 94.403284 
L 146.707321 94.309254 
L 146.879848 93.557015 
L 146.897873 93.462985 
L 147.155375 91.676418 
L 147.170825 91.739104 
L 147.2249 91.268955 
L 147.23005 91.300299 
L 147.361377 86.473433 
L 147.400002 16.264478 
L 147.472102 84.718209 
L 147.541628 94.622687 
L 147.603428 94.497313 
L 147.77853 93.713731 
L 147.78883 93.745075 
L 147.853206 93.337612 
L 147.858356 93.368955 
L 148.012857 92.27194 
L 148.015432 92.303284 
L 148.087532 91.864478 
L 148.229159 89.012239 
L 148.272934 16.515224 
L 148.345035 84.561493 
L 148.463486 94.46597 
L 148.476361 94.340597 
L 148.571636 94.434627 
L 148.535586 94.246567 
L 148.584512 94.340597 
L 148.628287 94.403284 
L 148.715838 94.027164 
L 148.718413 94.121194 
L 148.800813 93.400299 
L 148.805963 93.400299 
L 148.99394 91.457015 
L 148.996515 91.519701 
L 149.048015 90.203284 
L 149.063465 80.831642 
L 149.099516 17.04806 
L 149.169041 84.028657 
L 149.274617 94.246567 
L 149.300367 94.183881 
L 149.367318 94.309254 
L 149.421393 94.027164 
L 149.429118 94.089851 
L 149.511519 93.870448 
L 149.521819 93.901791 
L 149.66087 93.180896 
L 149.67117 93.086866 
L 149.949273 91.049552 
L 149.951848 91.080896 
L 150.016223 90.610746 
L 150.018798 90.610746 
L 150.080599 85.282388 
L 150.119224 16.264478 
L 150.191325 84.06 
L 150.268575 94.183881 
L 150.322651 93.713731 
L 150.448827 93.431642 
L 150.453977 93.462985 
L 150.461702 93.494328 
L 150.523502 93.024179 
L 150.531228 93.055522 
L 150.652254 92.55403 
L 150.654829 92.585373 
L 150.726929 92.115224 
L 150.729504 92.146567 
L 150.884005 89.325672 
L 150.930356 17.079403 
L 151.002456 84.812239 
L 151.077132 94.089851 
L 151.133782 93.807761 
L 151.257383 93.400299 
L 151.259959 93.462985 
L 151.352659 93.149552 
L 151.355234 93.180896 
L 151.483985 92.397313 
L 151.48656 92.428657 
L 151.648787 91.143582 
L 151.651362 91.206269 
L 151.733762 90.516716 
L 151.741487 90.422687 
L 151.826463 87.288358 
L 151.870239 16.609254 
L 151.942339 83.589851 
L 152.027315 93.901791 
L 152.073665 93.557015 
L 152.083965 93.588358 
L 152.225591 93.024179 
L 152.246192 93.055522 
L 152.302842 92.679403 
L 152.307992 92.679403 
L 152.326017 92.616716 
L 152.452193 91.895821 
L 152.454768 91.927164 
L 152.465068 91.864478 
L 152.61442 90.830149 
L 152.616995 90.861493 
L 152.774071 88.103284 
L 152.820421 16.95403 
L 152.892522 83.652537 
L 152.964623 93.557015 
L 153.023848 93.243582 
L 153.191224 92.55403 
L 153.222125 92.46 
L 153.464177 89.074925 
L 153.497652 38.14209 
L 153.513102 18.145075 
L 153.590353 84.937612 
L 153.721679 93.118209 
L 153.739704 93.024179 
L 153.883905 92.585373 
L 153.88648 92.616716 
L 153.953431 92.27194 
L 153.971456 92.303284 
L 154.105357 91.739104 
L 154.120807 91.645075 
L 154.308784 88.416716 
L 154.355134 17.518209 
L 154.427235 82.586866 
L 154.509635 93.839104 
L 154.558561 93.619701 
L 154.720787 92.992836 
L 154.723362 93.024179 
L 154.798038 92.616716 
L 154.805763 92.679403 
L 154.857263 92.585373 
L 155.05554 89.074925 
L 155.104465 17.925672 
L 155.176566 82.461493 
L 155.310467 93.086866 
L 155.346517 93.149552 
L 155.426343 92.804776 
L 155.428918 92.836119 
L 155.501018 92.522687 
L 155.513893 92.55403 
L 155.70702 91.519701 
L 155.709595 91.551045 
L 155.781696 91.080896 
L 155.977397 88.761493 
L 155.985122 88.824179 
L 156.039198 88.730149 
L 156.134474 88.009254 
L 156.193699 88.16597 
L 156.196274 88.197313 
L 156.268375 87.727164 
L 156.2967 84.561493 
L 156.3379 17.110746 
L 156.410001 81.552537 
L 156.502702 92.710746 
L 156.543902 92.64806 
L 156.682953 91.613731 
L 156.91728 89.576418 
L 156.690678 91.645075 
L 156.955905 89.607761 
L 156.95848 89.639104 
L 157.012556 88.980896 
L 157.038306 87.883881 
L 157.069206 48.579403 
L 157.089806 18.77194 
L 157.164482 82.712239 
L 157.257183 92.616716 
L 157.295808 92.36597 
L 157.416834 91.958507 
L 157.437434 91.864478 
L 157.749012 89.419701 
L 157.761887 89.325672 
L 157.859738 86.974925 
L 157.908663 18.270448 
L 157.980764 81.67791 
L 158.063164 92.303284 
L 158.11209 92.083881 
L 158.245991 91.519701 
L 158.248566 91.551045 
L 158.323242 91.206269 
L 158.330967 91.237612 
L 158.539543 84.06 
L 158.583319 19.116716 
L 158.652844 79.264478 
L 158.77902 92.55403 
L 158.786745 92.46 
L 158.830521 92.36597 
L 158.969572 91.645075 
L 158.974722 91.707761 
L 159.031372 91.268955 
L 159.049397 91.268955 
L 159.085448 91.206269 
L 159.299175 84.122687 
L 159.34295 18.364478 
L 159.412475 80.173433 
L 159.500026 92.491343 
L 159.546377 92.209254 
L 159.693153 91.331642 
L 160.027906 85.909254 
L 160.076831 19.743582 
L 160.146356 79.483881 
L 160.254507 91.770448 
L 160.280258 91.582388 
L 160.421884 90.986866 
L 160.432184 91.018209 
L 160.447634 91.080896 
L 160.512009 90.673433 
L 160.52746 90.673433 
L 160.818437 88.291343 
L 160.535185 90.704776 
L 160.828737 88.35403 
L 160.839037 88.416716 
L 160.908563 87.758507 
L 160.913713 87.789851 
L 160.996113 77.76 
L 161.032164 18.395821 
L 161.104264 79.327164 
L 161.212415 91.676418 
L 161.238165 91.519701 
L 161.405542 90.109254 
L 161.408117 90.140597 
L 161.480217 89.733134 
L 161.485367 89.733134 
L 161.704244 88.416716 
L 161.73772 88.54209 
L 161.791795 87.883881 
L 161.82012 82.712239 
L 161.863896 18.834627 
L 161.933421 78.637612 
L 162.026122 91.645075 
L 162.064747 91.425672 
L 162.252724 90.485373 
L 162.263024 90.45403 
L 162.4098 89.137612 
L 162.412375 89.168955 
L 162.466451 88.636119 
L 162.474176 88.636119 
L 162.615802 84.028657 
L 162.662152 19.492836 
L 162.731678 78.512239 
L 162.850129 91.582388 
L 162.865579 91.488358 
L 162.875879 91.425672 
L 163.04068 90.07791 
L 163.043255 90.140597 
L 163.115356 89.451045 
L 163.120506 89.451045 
L 163.210632 83.025672 
L 163.259557 21.06 
L 163.329083 77.195821 
L 163.457834 91.362985 
L 163.465559 91.237612 
L 163.475859 91.268955 
L 163.519634 90.892836 
L 163.545384 90.892836 
L 163.553109 90.924179 
L 163.717911 90.140597 
L 163.730786 90.07791 
L 163.911037 84.122687 
L 163.957388 20.307761 
L 164.029488 77.227164 
L 164.150514 90.704776 
L 164.163389 90.673433 
L 164.196865 90.579403 
L 164.444067 88.855522 
L 164.446642 88.886866 
L 164.454367 88.824179 
L 164.619168 87.507761 
L 164.655218 87.570448 
L 164.688694 87.006269 
L 164.714444 83.370448 
L 164.760794 19.712239 
L 164.83032 76.819701 
L 164.935896 90.798806 
L 164.964221 90.579403 
L 164.969371 90.610746 
L 165.033747 90.109254 
L 165.036322 90.140597 
L 165.175373 89.419701 
L 165.177948 89.451045 
L 165.237173 88.918209 
L 165.247473 88.949552 
L 165.4818 84.843582 
L 165.530726 20.433134 
L 165.602826 77.446567 
L 165.721277 90.64209 
L 165.736727 90.54806 
L 165.950454 89.231642 
L 165.953029 89.262985 
L 165.986504 89.168955 
L 166.164181 87.539104 
L 166.197656 87.476418 
L 166.256882 83.370448 
L 166.305807 20.276418 
L 166.375333 78.073433 
L 166.468033 90.892836 
L 166.509234 90.54806 
L 166.910937 85.188358 
L 166.965012 21.310746 
L 167.037113 77.195821 
L 167.142689 90.36 
L 167.171014 90.07791 
L 167.482592 87.633134 
L 167.485167 87.664478 
L 167.549542 87.131642 
L 167.601043 85.533134 
L 167.634518 50.083881 
L 167.655118 21.34209 
L 167.729794 77.415224 
L 167.814769 89.764478 
L 167.863695 89.607761 
L 167.879145 89.545075 
L 168.015621 88.918209 
L 168.031071 88.855522 
L 168.203598 87.351045 
L 168.216473 87.257015 
L 168.4817 83.276418 
L 168.5332 20.433134 
L 168.602726 76.819701 
L 168.690277 89.795821 
L 168.736627 89.357015 
L 168.893703 88.134627 
L 168.896278 88.16597 
L 169.058505 85.125672 
L 169.11773 21.937612 
L 169.189831 75.47194 
L 169.318582 89.231642 
L 169.326307 89.106269 
L 169.545184 87.789851 
L 169.563209 87.695821 
L 169.694535 84.780896 
L 169.75376 22.564478 
L 169.825861 74.312239 
L 169.944312 89.294328 
L 169.964912 89.231642 
L 169.970062 89.262985 
L 170.044738 88.855522 
L 170.055038 88.792836 
L 170.258465 81.709254 
L 170.31254 23.379403 
L 170.382066 71.992836 
L 170.497941 89.137612 
L 170.521117 89.043582 
L 170.536567 88.949552 
L 170.791494 87.194328 
L 170.801794 87.100299 
L 171.000071 84.968955 
L 171.043846 83.307761 
L 171.087621 30.557015 
L 171.100496 21.592836 
L 171.167447 72.588358 
L 171.280748 88.980896 
L 171.303923 88.792836 
L 171.314223 88.824179 
L 171.365724 88.228657 
L 171.677301 85.721194 
L 171.679876 85.752537 
L 171.690176 85.689851 
L 171.795752 81.521194 
L 171.849828 21.968955 
L 171.916778 72.619701 
L 172.035229 88.761493 
L 172.053254 88.667463 
L 172.066129 88.573433 
L 172.506458 84.467463 
L 172.511608 84.498806 
L 172.537358 84.404776 
L 172.575984 81.301791 
L 172.630059 22.689851 
L 172.699585 71.930149 
L 172.823186 88.291343 
L 172.836061 88.134627 
L 173.003437 86.755522 
L 173.268664 82.398806 
L 173.32789 23.598806 
L 173.397415 73.058507 
L 173.492691 88.009254 
L 173.533891 87.946567 
L 173.551917 87.852537 
L 173.868644 83.433134 
L 173.92272 27.26597 
L 173.930445 24.100299 
L 173.981945 58.421194 
L 174.113271 88.103284 
L 174.131296 87.946567 
L 174.504674 82.210746 
L 174.566475 24.633134 
L 174.638575 71.836119 
L 174.757026 88.07194 
L 174.777627 87.915224 
L 174.798227 87.821194 
L 174.952728 86.191343 
L 175.089204 83.370448 
L 175.127829 53.688358 
L 175.156155 25.291343 
L 175.22568 70.237612 
L 175.351856 87.476418 
L 175.364731 87.382388 
L 175.498633 86.191343 
L 175.503783 86.25403 
L 175.506358 86.285373 
L 175.565583 85.689851 
L 175.581033 85.721194 
L 175.681459 83.276418 
L 175.730384 39.646567 
L 175.74841 25.44806 
L 175.82051 70.362985 
L 175.941536 87.288358 
L 175.962136 87.225672 
L 176.284014 82.649552 
L 176.350965 25.510746 
L 176.423065 71.55403 
L 176.538941 87.068955 
L 176.562116 86.943582 
L 176.752668 84.968955 
L 176.765543 84.874925 
L 176.99472 83.401791 
L 176.997295 83.433134 
L 177.033345 82.618209 
L 177.059095 71.898806 
L 177.105446 24.288358 
L 177.172396 68.733134 
L 177.298572 86.755522 
L 177.311447 86.661493 
L 177.669375 81.427164 
L 177.736326 25.824179 
L 177.808426 70.394328 
L 177.914002 86.661493 
L 177.947478 86.379403 
L 178.328581 80.925672 
L 178.392956 25.35403 
L 178.462482 69.297313 
L 178.580933 86.880896 
L 178.604108 86.630149 
L 178.614408 86.536119 
L 178.84616 83.589851 
L 178.923411 81.364478 
L 178.972336 44.003284 
L 178.992936 26.357015 
L 179.065037 69.140597 
L 179.180913 86.097313 
L 179.206663 85.909254 
L 179.222113 85.846567 
L 179.422965 83.652537 
L 179.453865 83.589851 
L 179.51309 80.079403 
L 179.582616 27.986866 
L 179.652142 65.849552 
L 179.762868 86.06597 
L 179.798918 85.909254 
L 179.822093 85.846567 
L 179.999769 83.339104 
L 180.007495 83.245075 
L 180.053845 81.333134 
L 180.11307 43.940597 
L 180.133671 28.613731 
L 180.203196 66.351045 
L 180.334522 85.658507 
L 180.349972 85.595821 
L 180.378298 85.501791 
L 180.6255 81.270448 
L 180.705325 28.801791 
L 180.774851 66.570448 
L 180.908752 85.376418 
L 180.921627 85.313731 
L 180.944802 85.251045 
L 181.109604 83.934627 
L 181.119904 83.96597 
L 181.23063 81.270448 
L 181.28213 47.074925 
L 181.30788 28.174925 
L 181.374831 65.379403 
L 181.501007 85.282388 
L 181.519032 85.251045 
L 181.539632 85.157015 
L 181.87181 80.330149 
L 181.931035 34.161493 
L 181.946485 27.516716 
L 182.008286 61.994328 
L 182.142187 85.313731 
L 182.155062 85.219701 
L 182.170512 85.251045 
L 182.448615 80.800299 
L 182.525865 29.27194 
L 182.600541 67.35403 
L 182.747317 84.812239 
L 182.881218 83.934627 
L 182.883793 83.96597 
L 182.953319 83.527164 
L 182.958469 83.527164 
L 183.105245 75.033134 
L 183.169621 28.425672 
L 183.233996 62.715224 
L 183.373047 85.188358 
L 183.383347 85.094328 
L 183.385922 85.125672 
L 183.447723 84.592836 
L 183.450298 84.592836 
L 183.720675 80.330149 
L 183.782476 39.86597 
L 183.800501 29.585373 
L 183.867451 63.906269 
L 184.011652 85.094328 
L 184.016802 85.031642 
L 184.019377 85.094328 
L 184.101778 84.404776 
L 184.256279 82.774925 
L 184.279455 82.680896 
L 184.310355 82.806269 
L 184.536957 80.894328 
L 184.552407 80.800299 
L 184.609057 75.033134 
L 184.670858 26.733134 
L 184.735233 65.44209 
L 184.861409 85.000299 
L 184.879435 84.812239 
L 185.386714 79.107761 
L 185.453664 79.170448 
L 185.469114 79.264478 
L 185.57984 79.797313 
L 185.615891 79.734627 
L 185.762667 76.913731 
L 185.816742 38.267463 
L 185.834767 27.610746 
L 185.901718 63.874925 
L 186.040769 84.122687 
L 186.048494 84.06 
L 186.051069 84.091343 
L 186.105145 83.558507 
L 186.110295 83.558507 
L 186.321446 79.86 
L 186.329171 79.76597 
L 186.375522 76.224179 
L 186.455347 30.713731 
L 186.522298 62.276418 
L 186.666499 83.746567 
L 186.674224 83.683881 
L 186.985802 79.013731 
L 187.052752 42.718209 
L 187.075928 31.089851 
L 187.140303 62.057015 
L 187.281929 83.621194 
L 187.292229 83.589851 
L 187.325705 83.495821 
L 187.495656 81.991343 
L 187.498231 82.022687 
L 187.544581 81.270448 
L 187.611532 77.321194 
L 187.693933 30.839104 
L 187.758308 61.179403 
L 187.879334 83.558507 
L 187.910234 83.370448 
L 188.252712 77.85403 
L 188.293913 69.17194 
L 188.366013 31.685373 
L 188.427814 60.176418 
L 188.57974 83.401791 
L 188.592615 83.307761 
L 188.927368 77.979403 
L 188.973718 63.24806 
L 189.027794 32.406269 
L 189.089594 59.079403 
L 189.244095 82.680896 
L 189.480997 78.574925 
L 189.558248 54.001791 
L 189.599448 35.164478 
L 189.658674 58.076418 
L 189.8209 81.583881 
L 189.859525 81.77194 
L 189.934201 81.521194 
L 189.939351 81.552537 
L 189.990852 80.862985 
L 190.207153 73.591343 
L 190.307579 33.47194 
L 190.366805 56.195821 
L 190.531606 82.492836 
L 190.776233 79.201791 
L 190.796833 79.139104 
L 190.863784 78.543582 
L 190.997685 106.094328 
L 191.242312 115.904776 
L 191.463764 118.600299 
L 191.479214 118.662985 
L 191.62084 119.415224 
L 191.623415 119.383881 
L 191.700666 119.697313 
L 191.713541 119.634627 
L 191.850017 119.979403 
L 191.852592 119.94806 
L 191.873192 120.136119 
L 191.955593 120.04209 
L 191.981343 120.104776 
L 192.097219 120.230149 
L 192.099794 120.167463 
L 192.19507 120.324179 
L 192.202795 120.324179 
L 192.316096 120.386866 
L 192.429397 120.512239 
L 192.473172 120.418209 
L 192.568448 120.386866 
L 192.519522 120.512239 
L 192.578748 120.480896 
L 192.599348 120.543582 
L 192.710074 120.668955 
L 192.712649 120.637612 
L 192.941826 120.606269 
L 193.055127 120.512239 
L 193.060277 120.606269 
L 193.109202 120.386866 
L 193.160703 120.386866 
L 193.225078 120.512239 
L 193.173578 120.355522 
L 193.274003 120.418209 
L 193.343529 120.512239 
L 193.348679 120.480896 
L 193.47228 120.762985 
L 193.49803 120.700299 
L 193.559831 120.857015 
L 193.577856 120.825672 
L 193.683432 120.731642 
L 193.758107 120.574925 
L 193.688582 120.762985 
L 193.804458 120.606269 
L 193.837933 120.668955 
L 193.910034 120.480896 
L 194.07226 120.574925 
L 194.170111 120.668955 
L 194.07741 120.543582 
L 194.188136 120.637612 
L 194.311737 120.668955 
L 194.373537 120.825672 
L 194.425038 120.762985 
L 194.510014 120.731642 
L 194.491988 120.825672 
L 194.530614 120.825672 
L 194.594989 120.857015 
L 194.543489 120.762985 
L 194.64134 120.825672 
L 194.669665 120.762985 
L 194.73919 120.919701 
L 194.752066 120.825672 
L 194.870517 120.951045 
L 194.986393 120.857015 
L 195.102268 121.045075 
L 195.259345 121.139104 
L 195.357196 121.170448 
L 195.26707 121.076418 
L 195.367496 121.107761 
L 195.439596 121.013731 
L 195.457621 121.170448 
L 195.478222 121.076418 
L 195.570922 121.170448 
L 195.591522 121.139104 
L 195.666198 121.170448 
L 195.709973 121.013731 
L 195.774349 121.076418 
L 195.779499 120.951045 
L 195.820699 121.013731 
L 195.86705 120.888358 
L 195.934 120.982388 
L 196.049876 121.139104 
L 196.137427 121.076418 
L 196.062751 121.170448 
L 196.160602 121.139104 
L 196.214678 121.233134 
L 196.255878 121.264478 
L 196.297078 121.139104 
L 196.317678 121.170448 
L 196.392354 121.107761 
L 196.340854 121.201791 
L 196.428404 121.170448 
L 196.636981 121.139104 
L 196.752857 120.951045 
L 196.824958 121.201791 
L 196.866158 121.107761 
L 196.894483 121.139104 
L 196.987184 120.982388 
L 197.018084 121.076418 
L 197.07731 120.919701 
L 197.090185 120.919701 
L 197.10306 120.982388 
L 197.206061 120.857015 
L 197.283311 120.951045 
L 197.394037 121.045075 
L 197.327087 120.888358 
L 197.396612 121.013731 
L 197.499613 121.139104 
L 197.512488 121.107761 
L 197.587164 121.045075 
L 197.563989 121.170448 
L 197.620639 121.107761 
L 197.636089 121.170448 
L 197.69789 121.013731 
L 197.731365 121.107761 
L 197.849816 121.045075 
L 197.885866 120.951045 
L 197.914192 121.107761 
L 197.957967 121.076418 
L 198.166544 120.982388 
L 198.184569 120.919701 
L 198.261819 121.076418 
L 198.272119 121.045075 
L 198.362245 121.139104 
L 198.326195 120.951045 
L 198.38542 121.076418 
L 198.735623 121.107761 
L 198.781974 121.201791 
L 198.799999 121.076418 
L 198.846349 121.107761 
L 198.848924 121.139104 
L 198.9442 120.982388 
L 198.951925 121.076418 
L 199.065226 120.919701 
L 199.070376 120.951045 
L 199.098701 120.982388 
L 199.157927 120.857015 
L 199.175952 120.919701 
L 199.214577 120.825672 
L 199.250628 120.951045 
L 199.286678 120.919701 
L 199.304703 120.888358 
L 199.407704 121.045075 
L 199.448904 121.076418 
L 199.526155 120.951045 
L 199.642031 121.076418 
L 199.719281 121.013731 
L 199.652331 121.139104 
L 199.752757 121.076418 
L 200.605089 121.170448 
L 200.651439 121.201791 
L 200.674614 121.045075 
L 200.710665 121.107761 
L 200.75959 120.982388 
L 200.731265 121.139104 
L 200.823965 121.045075 
L 200.896066 121.139104 
L 200.970742 121.327164 
L 201.017092 121.264478 
L 201.024817 121.233134 
L 201.107218 121.483881 
L 201.117518 121.358507 
L 201.179318 121.421194 
L 201.150993 121.295821 
L 201.225669 121.295821 
L 201.228244 121.264478 
L 201.290044 121.452537 
L 201.326095 121.389851 
L 201.429095 121.483881 
L 201.33382 121.358507 
L 201.43682 121.421194 
L 201.537246 121.358507 
L 201.490896 121.515224 
L 201.544971 121.389851 
L 201.635097 121.483881 
L 201.622222 121.358507 
L 201.655697 121.421194 
L 201.668572 121.483881 
L 201.768998 121.389851 
L 201.771573 121.452537 
L 201.823074 121.295821 
L 201.877149 121.389851 
L 201.9338 121.233134 
L 201.882299 121.421194 
L 201.9956 121.264478 
L 202.119201 121.515224 
L 202.124351 121.483881 
L 202.219627 121.389851 
L 202.322628 121.233134 
L 202.232502 121.452537 
L 202.338078 121.264478 
L 202.353528 121.327164 
L 202.402453 121.107761 
L 202.443654 121.201791 
L 202.551805 121.045075 
L 202.556955 121.076418 
L 202.58528 121.170448 
L 202.64708 120.951045 
L 202.65738 120.951045 
L 202.760381 120.731642 
L 202.675406 120.982388 
L 202.778406 120.825672 
L 202.788707 120.794328 
L 202.907158 121.076418 
L 203.023034 120.888358 
L 203.030759 120.919701 
L 203.079684 120.857015 
L 203.16981 120.731642 
L 203.19041 120.794328 
L 203.298561 120.982388 
L 203.203285 120.762985 
L 203.308861 120.919701 
L 203.324311 120.825672 
L 203.419587 120.919701 
L 203.463362 121.013731 
L 203.525163 120.857015 
L 203.579238 120.794328 
L 203.679664 120.731642 
L 203.594688 120.825672 
L 203.689964 120.794328 
L 203.738889 120.700299 
L 203.762065 120.888358 
L 203.792965 120.888358 
L 203.85219 120.982388 
L 203.965491 121.107761 
L 204.078792 120.919701 
L 204.089092 120.951045 
L 204.145743 121.013731 
L 204.174068 120.888358 
L 204.189518 120.888358 
L 204.192093 120.825672 
L 204.264194 120.951045 
L 204.297669 120.919701 
L 204.336294 120.825672 
L 204.40582 120.731642 
L 204.349169 120.857015 
L 204.449595 120.794328 
L 204.501096 120.731642 
L 204.616972 120.480896 
L 204.663322 120.418209 
L 204.730273 120.606269 
L 204.756023 120.668955 
L 204.771473 120.637612 
L 204.871899 120.888358 
L 204.900224 120.731642 
L 204.9852 120.794328 
L 205.00065 120.825672 
L 205.047 120.668955 
L 205.09335 120.762985 
L 205.113951 120.700299 
L 205.229827 120.574925 
L 205.314802 120.668955 
L 205.281327 120.512239 
L 205.345703 120.637612 
L 205.464154 120.731642 
L 205.574879 120.888358 
L 205.582605 120.857015 
L 205.695905 120.731642 
L 205.623805 120.888358 
L 205.701055 120.762985 
L 205.726806 120.668955 
L 205.739681 120.700299 
L 205.842682 120.480896 
L 205.945682 120.637612 
L 205.958558 120.543582 
L 206.131084 120.637612 
L 206.25211 121.045075 
L 206.324211 121.139104 
L 206.429786 121.233134 
L 206.347386 121.107761 
L 206.437512 121.170448 
L 206.445237 121.233134 
L 206.561113 121.013731 
L 206.651238 121.107761 
L 206.617763 120.982388 
L 206.671838 121.013731 
L 206.728489 121.107761 
L 206.682139 120.951045 
L 206.785139 121.076418 
L 206.844365 120.951045 
L 206.895865 120.982388 
L 206.921616 121.076418 
L 206.944791 120.951045 
L 207.006591 120.982388 
L 207.114742 121.139104 
L 207.122467 121.076418 
L 207.233193 120.982388 
L 207.135342 121.139104 
L 207.235768 121.045075 
L 207.727597 121.107761 
L 207.781673 121.201791 
L 207.820298 121.076418 
L 207.838323 121.170448 
L 207.840898 121.107761 
L 207.943899 121.295821 
L 207.972224 121.327164 
L 208.06235 121.201791 
L 208.167926 121.264478 
L 208.070075 121.170448 
L 208.175651 121.233134 
L 208.675205 121.170448 
L 208.68293 121.076418 
L 208.773056 121.233134 
L 208.783356 121.201791 
L 208.973907 121.264478 
L 209.035708 121.327164 
L 209.074333 121.170448 
L 209.082058 121.201791 
L 209.159309 121.107761 
L 209.169609 121.045075 
L 209.239135 121.201791 
L 209.259735 121.139104 
L 209.362736 121.295821 
L 209.373036 121.264478 
L 209.393636 121.295821 
L 209.406511 121.201791 
L 209.481187 121.233134 
L 209.973016 121.139104 
L 210.078591 121.013731 
L 209.980741 121.170448 
L 210.088892 121.076418 
L 210.130092 121.013731 
L 210.132667 120.951045 
L 210.145542 121.107761 
L 210.238243 121.045075 
L 210.269143 121.139104 
L 210.333519 121.013731 
L 210.346394 121.045075 
L 210.356694 121.013731 
L 210.397894 121.170448 
L 210.446819 121.170448 
L 210.48802 121.264478 
L 210.49832 121.201791 
L 210.614196 121.452537 
L 210.789297 121.358507 
L 210.863973 121.233134 
L 210.822773 121.389851 
L 210.907748 121.264478 
L 211.214176 121.358507 
L 211.216751 121.389851 
L 211.291426 121.233134 
L 211.317177 121.264478 
L 211.319752 121.233134 
L 211.397002 121.389851 
L 211.422752 121.295821 
L 211.538628 121.452537 
L 211.541203 121.389851 
L 211.646779 121.483881 
L 211.67253 121.546567 
L 211.654504 121.421194 
L 211.757505 121.483881 
L 211.989257 121.421194 
L 212.035607 121.295821 
L 212.002132 121.452537 
L 212.102558 121.358507 
L 212.197834 121.421194 
L 212.215859 121.389851 
L 212.231309 121.358507 
L 212.254484 121.452537 
L 212.32401 121.389851 
L 212.33431 121.358507 
L 212.437311 121.483881 
L 212.473361 121.389851 
L 212.532587 121.546567 
L 212.553187 121.421194 
L 212.558337 121.452537 
L 212.607262 121.264478 
L 212.656188 121.358507 
L 212.736013 121.327164 
L 212.751463 121.452537 
L 212.764338 121.389851 
L 212.769489 121.452537 
L 212.815839 121.295821 
L 212.869914 121.327164 
L 213.055316 121.264478 
L 213.158317 121.201791 
L 213.111966 121.327164 
L 213.163467 121.264478 
L 213.248442 121.327164 
L 213.186642 121.201791 
L 213.271618 121.264478 
L 213.377194 121.170448 
L 213.382344 121.201791 
L 213.426119 121.264478 
L 213.464744 121.139104 
L 213.490494 121.139104 
L 213.547145 121.045075 
L 213.652721 120.982388 
L 213.608945 121.076418 
L 213.655296 121.045075 
L 213.660446 121.013731 
L 213.771172 121.107761 
L 214.384027 121.201791 
L 214.448402 121.295821 
L 214.389177 121.139104 
L 214.492178 121.201791 
L 214.566853 121.170448 
L 214.517928 121.295821 
L 214.597754 121.233134 
L 214.654404 121.327164 
L 214.608054 121.170448 
L 214.711054 121.295821 
L 215.33936 121.233134 
L 215.452661 121.107761 
L 215.465536 121.076418 
L 215.565961 121.170448 
L 215.666387 121.107761 
L 215.612312 121.233134 
L 215.674112 121.201791 
L 215.792563 121.358507 
L 215.707588 121.170448 
L 215.795138 121.327164 
L 215.880114 121.107761 
L 215.913589 121.170448 
L 215.929039 121.139104 
L 216.029465 121.295821 
L 216.091266 121.264478 
L 216.142766 121.076418 
L 216.204567 121.107761 
L 216.382243 121.201791 
L 216.498119 121.327164 
L 216.562495 121.421194 
L 216.603695 121.295821 
L 216.61142 121.358507 
L 216.709271 121.264478 
L 216.61657 121.452537 
L 216.724721 121.327164 
L 216.853472 121.264478 
L 216.971923 120.951045 
L 216.974498 120.982388 
L 217.213975 121.076418 
L 217.298951 121.139104 
L 217.23715 121.045075 
L 217.319551 121.076418 
L 217.383926 121.013731 
L 217.355601 121.170448 
L 217.430277 121.076418 
L 217.502377 121.107761 
L 217.456027 120.951045 
L 217.538428 121.045075 
L 217.551303 120.951045 
L 217.574478 121.076418 
L 217.649154 120.982388 
L 217.754729 121.045075 
L 217.747004 120.919701 
L 217.762455 121.013731 
L 217.772755 120.888358 
L 217.788205 121.045075 
L 217.875755 120.982388 
L 218.210508 120.919701 
L 218.213083 120.825672 
L 218.264584 121.045075 
L 218.318659 120.982388 
L 218.323809 120.919701 
L 218.352134 121.076418 
L 218.42166 121.076418 
L 218.632812 121.170448 
L 218.650837 121.076418 
L 218.751263 121.264478 
L 218.923789 121.233134 
L 218.970139 121.107761 
L 219.034515 121.170448 
L 219.129791 121.327164 
L 219.147816 121.264478 
L 219.227642 121.358507 
L 219.255967 121.295821 
L 219.343517 121.421194 
L 219.441368 121.295821 
L 219.456818 121.327164 
L 220.201 121.264478 
L 220.234475 121.170448 
L 220.311725 121.233134 
L 220.486827 121.139104 
L 220.522877 121.201791 
L 220.602703 121.076418 
L 220.716004 121.139104 
L 220.723729 121.170448 
L 220.829305 121.045075 
L 221.184658 121.107761 
L 221.264483 121.201791 
L 221.282508 121.045075 
L 221.297959 121.170448 
L 221.596661 121.076418 
L 221.689362 120.951045 
L 221.709962 120.982388 
L 221.815538 121.076418 
L 221.727987 120.919701 
L 221.820688 121.045075 
L 221.892788 120.951045 
L 221.825838 121.076418 
L 221.933989 121.013731 
L 222.629244 120.982388 
L 222.732245 120.857015 
L 222.73997 120.888358 
L 222.814646 120.951045 
L 222.840396 120.825672 
L 222.850696 120.888358 
L 222.961422 120.762985 
L 222.868721 120.919701 
L 222.963997 120.825672 
L 223.036098 120.919701 
L 222.982022 120.731642 
L 223.077298 120.857015 
L 223.133949 120.762985 
L 223.211199 120.668955 
L 223.244675 120.762985 
L 223.3348 120.668955 
L 223.442951 120.574925 
L 223.450676 120.606269 
L 223.504752 120.700299 
L 223.540802 120.543582 
L 223.563977 120.637612 
L 223.842079 120.574925 
L 223.844654 120.512239 
L 223.87298 120.731642 
L 223.947655 120.637612 
L 224.048081 120.825672 
L 223.957955 120.606269 
L 224.063531 120.794328 
L 224.161382 120.731642 
L 224.091856 120.825672 
L 224.176832 120.762985 
L 224.200007 120.857015 
L 224.210307 120.731642 
L 224.287558 120.762985 
L 224.470385 120.668955 
L 224.568235 120.512239 
L 224.588836 120.543582 
L 224.684111 120.637612 
L 224.601711 120.512239 
L 224.691836 120.512239 
L 224.694411 120.418209 
L 224.753637 120.637612 
L 224.799987 120.606269 
L 224.908138 120.637612 
L 224.859213 120.480896 
L 224.910713 120.606269 
L 224.915863 120.574925 
L 224.990539 120.731642 
L 225.018864 120.606269 
L 225.137315 120.731642 
L 225.227441 120.418209 
L 225.258341 120.449552 
L 225.327867 120.574925 
L 225.369067 120.449552 
L 225.392242 120.512239 
L 225.459193 120.324179 
L 225.469493 120.355522 
L 225.577644 120.292836 
L 225.515843 120.418209 
L 225.582794 120.324179 
L 225.623994 120.449552 
L 225.68322 120.261493 
L 225.763045 120.167463 
L 225.701245 120.355522 
L 225.793945 120.230149 
L 226.030847 120.167463 
L 226.131273 120.04209 
L 226.041147 120.198806 
L 226.144148 120.104776 
L 226.149298 120.073433 
L 226.175049 120.230149 
L 226.252299 120.136119 
L 226.378475 120.324179 
L 226.422251 120.104776 
L 226.491776 120.261493 
L 226.599927 120.355522 
L 226.633402 120.324179 
L 226.715803 120.418209 
L 226.813654 120.324179 
L 226.836829 120.261493 
L 226.847129 120.386866 
L 226.92438 120.324179 
L 227.01708 120.543582 
L 227.040256 120.449552 
L 227.148407 120.386866 
L 227.055706 120.512239 
L 227.150982 120.449552 
L 227.202482 120.355522 
L 227.287458 120.230149 
L 227.207632 120.386866 
L 227.315783 120.292836 
L 227.323508 120.324179 
L 227.405909 120.104776 
L 227.408484 120.167463 
L 227.490884 119.916716 
L 227.52436 119.979403 
L 227.62221 120.073433 
L 227.532085 119.94806 
L 227.635086 119.979403 
L 227.637661 119.94806 
L 227.714911 120.104776 
L 227.740661 119.979403 
L 227.823062 120.198806 
L 227.853962 120.136119 
L 227.856537 120.04209 
L 227.959538 120.230149 
L 227.962113 120.230149 
L 227.967263 120.167463 
L 228.049664 120.292836 
L 228.072839 120.230149 
L 228.085714 120.261493 
L 228.15524 120.073433 
L 228.178415 120.167463 
L 228.283991 120.010746 
L 228.299441 120.04209 
L 228.474542 120.136119 
L 228.572393 120.230149 
L 228.482268 120.073433 
L 228.585268 120.167463 
L 228.680544 120.073433 
L 228.603294 120.230149 
L 228.695994 120.136119 
L 228.81187 120.324179 
L 228.819595 120.292836 
L 228.922596 120.198806 
L 229.046197 120.04209 
L 229.259924 119.94806 
L 229.272799 119.979403 
L 229.378375 119.822687 
L 229.4273 119.94806 
L 229.460776 119.76 
L 229.486526 119.822687 
L 229.494251 119.791343 
L 229.550901 119.979403 
L 229.592102 119.885373 
L 229.669352 119.791343 
L 229.713128 119.76 
L 229.754328 119.916716 
L 229.774928 119.85403 
L 229.973205 119.791343 
L 230.05303 119.728657 
L 229.978355 119.822687 
L 230.083931 119.791343 
L 230.163756 119.76 
L 230.117406 119.85403 
L 230.192082 119.822687 
L 230.243582 119.885373 
L 230.295082 119.979403 
L 230.325983 119.791343 
L 230.356883 119.94806 
L 230.483059 120.198806 
L 230.485634 120.167463 
L 230.534559 120.230149 
L 230.537134 120.292836 
L 230.588635 120.04209 
L 230.634985 120.073433 
L 230.719961 119.885373 
L 230.645285 120.104776 
L 230.748286 120.010746 
L 230.781761 119.916716 
L 230.838412 119.85403 
L 230.861587 119.979403 
L 230.882187 119.979403 
L 230.967163 120.167463 
L 230.995488 120.104776 
L 231.077889 120.073433 
L 231.059864 120.167463 
L 231.103639 120.136119 
L 231.19634 120.04209 
L 231.22209 120.104776 
L 231.309641 119.94806 
L 231.332816 120.010746 
L 231.363716 119.85403 
L 231.415217 119.885373 
L 231.500192 119.76 
L 231.528518 119.791343 
L 231.634093 120.010746 
L 231.652119 119.979403 
L 231.713919 119.885373 
L 231.690744 120.010746 
L 231.762844 119.979403 
L 231.834945 119.94806 
L 231.84782 120.04209 
L 231.86842 120.010746 
L 231.896746 120.073433 
L 231.950821 119.885373 
L 231.968846 119.885373 
L 232.002321 119.94806 
L 232.010046 120.04209 
L 232.102747 119.85403 
L 232.110472 119.916716 
L 232.179998 119.822687 
L 232.203173 119.791343 
L 232.257249 119.979403 
L 232.277849 119.979403 
L 232.566251 120.073433 
L 232.579126 120.104776 
L 232.651227 119.916716 
L 232.666677 119.979403 
L 232.805728 119.47791 
L 232.813453 119.540597 
L 232.841778 119.446567 
L 232.854653 119.509254 
L 232.960229 119.352537 
L 233.00143 119.446567 
L 233.07353 119.415224 
L 233.210006 119.352537 
L 233.225456 119.258507 
L 233.307857 119.47791 
L 233.315582 119.47791 
L 233.385108 119.415224 
L 233.356783 119.509254 
L 233.428883 119.446567 
L 233.495834 119.540597 
L 233.552484 119.509254 
L 233.614285 119.634627 
L 233.712135 119.728657 
L 233.768786 119.791343 
L 233.804836 119.634627 
L 233.815136 119.728657 
L 233.931012 119.47791 
L 233.941312 119.540597 
L 233.990238 119.352537 
L 234.036588 119.446567 
L 234.044313 119.352537 
L 234.103539 119.509254 
L 234.144739 119.47791 
L 234.165339 119.57194 
L 234.21684 119.634627 
L 234.265765 119.47791 
L 234.27349 119.540597 
L 234.327566 119.47791 
L 234.435716 119.289851 
L 234.440866 119.321194 
L 234.479492 119.352537 
L 234.543867 119.227164 
L 234.546442 119.289851 
L 234.641718 119.164478 
L 234.569618 119.383881 
L 234.664893 119.195821 
L 234.762744 119.133134 
L 234.87862 118.945075 
L 234.994496 118.662985 
L 234.886345 118.976418 
L 235.004796 118.757015 
L 235.082047 118.662985 
L 235.177322 118.631642 
L 235.123247 118.725672 
L 235.187623 118.694328 
L 235.200498 118.725672 
L 235.254573 118.568955 
L 235.293198 118.631642 
L 235.306074 118.568955 
L 235.349849 118.757015 
L 235.393624 118.662985 
L 235.517225 119.164478 
L 235.617651 119.227164 
L 235.700052 119.352537 
L 235.730952 119.321194 
L 235.851978 119.133134 
L 235.960129 119.289851 
L 235.864853 119.101791 
L 235.967854 119.258507 
L 235.973004 119.227164 
L 236.039955 119.446567 
L 236.065705 119.383881 
L 236.132655 119.509254 
L 236.181581 119.47791 
L 236.225356 119.352537 
L 236.279432 119.509254 
L 236.289732 119.509254 
L 236.387582 119.603284 
L 236.454533 119.697313 
L 236.395307 119.57194 
L 236.498308 119.603284 
L 236.637359 119.540597 
L 236.737785 119.321194 
L 236.75066 119.383881 
L 236.768686 119.321194 
L 236.884562 119.164478 
L 236.905162 119.227164 
L 236.987562 119.101791 
L 236.992712 119.101791 
L 237.036488 119.289851 
L 237.113738 119.227164 
L 237.219314 118.976418 
L 237.229614 119.039104 
L 237.30429 119.227164 
L 237.35064 119.195821 
L 237.402141 119.321194 
L 237.466516 119.133134 
L 237.566942 119.164478 
L 237.476816 119.070448 
L 237.577242 119.133134 
L 237.582392 119.101791 
L 237.602992 119.258507 
L 237.687968 119.133134 
L 237.790969 119.101791 
L 237.839894 119.007761 
L 237.901695 119.039104 
L 238.017571 119.321194 
L 238.020146 119.258507 
L 238.022721 119.227164 
L 238.084521 119.446567 
L 238.120572 119.383881 
L 238.161772 119.47791 
L 238.223573 119.289851 
L 238.295673 119.195821 
L 238.424424 118.788358 
L 238.308548 119.227164 
L 238.437299 118.819701 
L 238.622701 118.882388 
L 238.720552 118.945075 
L 238.638151 118.851045 
L 238.733427 118.882388 
L 238.797802 118.945075 
L 238.867328 119.195821 
L 238.913678 119.070448 
L 239.029554 119.195821 
L 239.148005 118.851045 
L 239.269031 118.757015 
L 239.297356 118.694328 
L 239.335982 118.851045 
L 239.379757 118.725672 
L 239.482758 118.819701 
L 239.410657 118.694328 
L 239.493058 118.788358 
L 239.588334 118.725672 
L 239.606359 118.757015 
L 239.642409 118.851045 
L 239.69391 118.631642 
L 239.711935 118.694328 
L 239.799485 118.631642 
L 239.717085 118.725672 
L 239.822661 118.694328 
L 239.850986 118.757015 
L 239.853561 118.819701 
L 239.894761 118.631642 
L 239.959137 118.725672 
L 239.961712 118.662985 
L 240.005487 118.819701 
L 240.069863 118.725672 
L 240.288739 118.819701 
L 240.332515 118.757015 
L 240.40204 118.882388 
L 240.505041 118.788358 
L 240.510191 118.851045 
L 240.512766 118.913731 
L 240.602892 118.662985 
L 240.613192 118.725672 
L 240.641517 118.600299 
L 240.711043 118.757015 
L 240.731643 118.631642 
L 241.00717 118.631642 
L 241.092146 118.506269 
L 241.117896 118.600299 
L 241.233772 118.443582 
L 241.313598 118.600299 
L 241.287848 118.412239 
L 241.349648 118.537612 
L 241.359948 118.443582 
L 241.442349 118.694328 
L 241.447499 118.694328 
L 241.522175 118.757015 
L 241.583975 118.851045 
L 241.625175 118.694328 
L 241.630325 118.725672 
L 241.844052 118.631642 
L 241.952203 118.568955 
L 241.859502 118.662985 
L 241.957353 118.600299 
L 241.998553 118.694328 
L 241.965078 118.537612 
L 242.068079 118.600299 
L 242.111854 118.506269 
L 242.14533 118.662985 
L 242.178805 118.600299 
L 242.286956 118.662985 
L 242.19683 118.537612 
L 242.289531 118.631642 
L 242.369357 118.537612 
L 242.302406 118.662985 
L 242.402832 118.568955 
L 242.420857 118.662985 
L 242.492958 118.537612 
L 242.510983 118.600299 
L 242.521283 118.506269 
L 242.541883 118.631642 
L 242.621709 118.600299 
L 242.675784 118.631642 
L 242.773635 118.882388 
L 242.789085 118.851045 
L 242.858611 118.788358 
L 242.886936 118.913731 
L 242.899811 118.851045 
L 242.907536 118.882388 
L 243.018262 118.725672 
L 243.031137 118.788358 
L 243.054312 118.662985 
L 243.128988 118.725672 
L 243.183063 118.662985 
L 243.206238 118.757015 
L 243.239714 118.725672 
L 243.280914 118.788358 
L 243.34014 118.913731 
L 243.39164 118.819701 
L 243.409665 118.882388 
L 243.507516 118.725672 
L 243.522966 118.662985 
L 243.620817 118.851045 
L 243.703217 118.694328 
L 243.643992 118.882388 
L 243.736693 118.725672 
L 243.767593 118.819701 
L 243.808793 118.694328 
L 243.844844 118.757015 
L 243.95042 118.631642 
L 243.906644 118.819701 
L 243.958145 118.662985 
L 244.025095 118.725672 
L 243.98647 118.600299 
L 244.066295 118.662985 
L 244.166721 118.537612 
L 244.084321 118.694328 
L 244.179596 118.568955 
L 244.238822 118.474925 
L 244.246547 118.506269 
L 244.352123 118.380896 
L 244.419073 118.474925 
L 244.431948 118.349552 
L 244.462849 118.380896 
L 244.58645 118.286866 
L 244.697176 118.224179 
L 244.599325 118.349552 
L 244.699751 118.255522 
L 244.743526 118.161493 
L 244.856827 117.910746 
L 244.867127 117.973433 
L 244.880002 118.036119 
L 244.952103 117.785373 
L 244.962403 117.816716 
L 245.080854 117.691343 
L 245.165829 117.722687 
L 245.178705 117.597313 
L 245.18643 117.628657 
L 245.299731 117.534627 
L 245.379556 117.597313 
L 245.400156 117.440597 
L 245.407881 117.534627 
L 245.413032 117.47194 
L 245.498007 117.691343 
L 245.508307 117.66 
L 245.634483 117.56597 
L 245.709159 117.440597 
L 245.680834 117.628657 
L 245.747784 117.503284 
L 245.855935 117.628657 
L 245.763234 117.47194 
L 245.866235 117.597313 
L 246.072237 117.691343 
L 246.177813 117.816716 
L 246.079962 117.628657 
L 246.188113 117.75403 
L 246.237038 117.691343 
L 246.247338 117.628657 
L 246.329739 117.785373 
L 246.345189 117.75403 
L 246.347764 117.785373 
L 246.363214 117.66 
L 246.455915 117.75403 
L 246.561491 117.628657 
L 246.481665 117.785373 
L 246.569216 117.66 
L 246.597541 117.722687 
L 246.623291 117.56597 
L 246.677367 117.66 
L 246.710842 117.628657 
L 246.775218 117.816716 
L 246.780368 117.75403 
L 246.782943 117.785373 
L 246.837018 117.628657 
L 246.891094 117.75403 
L 246.976069 117.66 
L 247.081645 117.597313 
L 246.999245 117.75403 
L 247.086795 117.628657 
L 247.171771 117.691343 
L 247.115121 117.56597 
L 247.194946 117.628657 
L 247.241297 117.75403 
L 247.308247 117.597313 
L 247.380348 117.691343 
L 247.390648 117.56597 
L 247.418973 117.597313 
L 247.465323 117.503284 
L 247.586349 117.315224 
L 247.588924 117.346567 
L 247.6327 117.252537 
L 247.743426 117.158507 
L 247.66875 117.283881 
L 247.748576 117.189851 
L 247.872177 117.127164 
L 247.918527 117.189851 
L 247.982903 117.064478 
L 247.990628 117.033134 
L 248.096204 117.158507 
L 248.21208 116.907761 
L 248.29963 117.001791 
L 248.32023 116.876418 
L 248.322805 116.907761 
L 248.467007 117.001791 
L 248.469582 117.033134 
L 248.508207 116.907761 
L 248.572582 116.939104 
L 248.629233 116.907761 
L 248.636958 117.001791 
L 248.683308 116.939104 
L 248.781159 117.033134 
L 248.729659 116.907761 
L 248.794034 116.939104 
L 248.806909 116.970448 
L 248.91506 116.782388 
L 248.989736 116.813731 
L 248.976861 116.719701 
L 249.023211 116.751045 
L 249.087587 116.688358 
L 249.113337 116.876418 
L 249.131362 116.782388 
L 249.54079 116.719701 
L 249.543365 116.657015 
L 249.561391 116.782388 
L 249.651516 116.719701 
L 249.687567 116.751045 
L 249.741642 116.594328 
L 249.757092 116.657015 
L 249.842068 116.562985 
L 249.909018 116.531642 
L 249.860093 116.625672 
L 249.950219 116.594328 
L 250.035194 116.500299 
L 250.07382 116.468955 
L 250.10472 116.562985 
L 250.14592 116.500299 
L 250.179396 116.562985 
L 250.158795 116.468955 
L 250.256646 116.531642 
L 250.269521 116.500299 
L 250.308147 116.657015 
L 250.362222 116.594328 
L 250.573374 116.500299 
L 250.611999 116.531642 
L 250.6944 116.374925 
L 250.805126 116.280896 
L 250.913277 116.249552 
L 250.877226 116.374925 
L 250.915852 116.280896 
L 250.951902 116.374925 
L 250.977652 116.312239 
L 251.062628 116.437612 
L 251.170779 116.218209 
L 251.181079 116.249552 
L 251.32013 116.186866 
L 251.322705 116.124179 
L 251.397381 116.280896 
L 251.425706 116.249552 
L 251.438581 116.218209 
L 251.536432 116.280896 
L 251.539007 116.218209 
L 251.621408 116.468955 
L 251.642008 116.374925 
L 251.729558 116.468955 
L 251.853159 116.688358 
L 251.763034 116.437612 
L 251.855734 116.657015 
L 251.927835 116.751045 
L 251.932985 116.719701 
L 252.048861 116.876418 
L 252.164737 116.751045 
L 252.249713 116.657015 
L 252.275463 116.688358 
L 252.375889 116.468955 
L 252.386189 116.562985 
L 252.422239 116.437612 
L 252.48404 116.437612 
L 252.543265 116.374925 
L 252.57674 116.312239 
L 252.646266 116.500299 
L 252.651416 116.437612 
L 252.682316 116.562985 
L 252.764717 116.468955 
L 252.862568 116.374925 
L 252.932093 116.312239 
L 252.955268 116.437612 
L 252.968144 116.437612 
L 253.08402 116.531642 
L 253.091745 116.562985 
L 253.14067 116.437612 
L 253.184445 116.468955 
L 253.261696 116.406269 
L 253.295171 116.437612 
L 253.400747 116.531642 
L 253.315771 116.406269 
L 253.408472 116.500299 
L 253.413622 116.468955 
L 253.444522 116.625672 
L 253.516623 116.531642 
L 253.565548 116.562985 
L 253.557823 116.437612 
L 253.624774 116.500299 
L 254.018752 116.406269 
L 254.049652 116.374925 
L 254.088278 116.500299 
L 254.121753 116.468955 
L 254.204154 116.562985 
L 254.137203 116.437612 
L 254.237629 116.531642 
L 254.477106 116.437612 
L 254.538906 116.468955 
L 254.592982 116.312239 
L 254.605857 116.406269 
L 254.688258 116.249552 
L 254.701133 116.249552 
L 254.721733 116.186866 
L 254.721733 116.186866 
" clip-path="url(#p5b93a339b9)" style="fill: none; stroke: #000000; stroke-opacity: 0.5; stroke-width: 1.5; stroke-linecap: square"/>
   </g>
   <g id="patch_3">
    <path d="M 41.667188 173.52 
L 41.667188 7.2 
" style="fill: none; stroke: #000000; stroke-width: 0.8; stroke-linejoin: miter; stroke-linecap: square"/>
   </g>
   <g id="patch_4">
    <path d="M 41.667188 173.52 
L 264.867187 173.52 
" style="fill: none; stroke: #000000; stroke-width: 0.8; stroke-linejoin: miter; stroke-linecap: square"/>
   </g>
  </g>
 </g>
 <defs>
  <clipPath id="p5b93a339b9">
   <rect x="41.667188" y="7.2" width="223.2" height="166.32"/>
  </clipPath>
 </defs>
</svg>
