<?xml version="1.0" encoding="utf-8" standalone="no"?>
<!DOCTYPE svg PUBLIC "-//W3C//DTD SVG 1.1//EN"
  "http://www.w3.org/Graphics/SVG/1.1/DTD/svg11.dtd">
<svg xmlns:xlink="http://www.w3.org/1999/xlink" width="265.704687pt" height="197.398125pt" viewBox="0 0 265.704687 197.398125" xmlns="http://www.w3.org/2000/svg" version="1.1">
 <metadata>
  <rdf:RDF xmlns:dc="http://purl.org/dc/elements/1.1/" xmlns:cc="http://creativecommons.org/ns#" xmlns:rdf="http://www.w3.org/1999/02/22-rdf-syntax-ns#">
   <cc:Work>
    <dc:type rdf:resource="http://purl.org/dc/dcmitype/StillImage"/>
    <dc:date>2025-12-19T12:28:50.541333</dc:date>
    <dc:format>image/svg+xml</dc:format>
    <dc:creator>
     <cc:Agent>
      <dc:title>Matplotlib v3.10.7, https://matplotlib.org/</dc:title>
     </cc:Agent>
    </dc:creator>
   </cc:Work>
  </rdf:RDF>
 </metadata>
 <defs>
  <style type="text/css">*{stroke-linejoin: round; stroke-linecap: butt}</style>
 </defs>
 <g id="figure_1">
  <g id="patch_1">
   <path d="M 0 197.398125 
L 265.704687 197.398125 
L 265.704687 0 
L 0 0 
z
" style="fill: #ffffff"/>
  </g>
  <g id="axes_1">
   <g id="patch_2">
    <path d="M 35.304688 173.52 
L 258.504687 173.52 
L 258.504687 7.2 
L 35.304688 7.2 
z
" style="fill: #ffffff"/>
   </g>
   <g id="matplotlib.axis_1">
    <g id="xtick_1">
     <g id="line2d_1">
      <defs>
       <path id="m3211ad3836" d="M 0 0 
L 0 3.5 
" style="stroke: #000000; stroke-width: 0.8"/>
      </defs>
      <g>
       <use xlink:href="#m3211ad3836" x="76.350396" y="173.52" style="stroke: #000000; stroke-width: 0.8"/>
      </g>
     </g>
     <g id="text_1">
      <!-- 1 -->
      <g transform="translate(73.169146 188.118438) scale(0.1 -0.1)">
       <defs>
        <path id="DejaVuSans-31" d="M 794 531 
L 1825 531 
L 1825 4091 
L 703 3866 
L 703 4441 
L 1819 4666 
L 2450 4666 
L 2450 531 
L 3481 531 
L 3481 0 
L 794 0 
L 794 531 
z
" transform="scale(0.015625)"/>
       </defs>
       <use xlink:href="#DejaVuSans-31"/>
      </g>
     </g>
    </g>
    <g id="xtick_2">
     <g id="line2d_2">
      <g>
       <use xlink:href="#m3211ad3836" x="127.850819" y="173.52" style="stroke: #000000; stroke-width: 0.8"/>
      </g>
     </g>
     <g id="text_2">
      <!-- 2 -->
      <g transform="translate(124.669569 188.118438) scale(0.1 -0.1)">
       <defs>
        <path id="DejaVuSans-32" d="M 1228 531 
L 3431 531 
L 3431 0 
L 469 0 
L 469 531 
Q 828 903 1448 1529 
Q 2069 2156 2228 2338 
Q 2531 2678 2651 2914 
Q 2772 3150 2772 3378 
Q 2772 3750 2511 3984 
Q 2250 4219 1831 4219 
Q 1534 4219 1204 4116 
Q 875 4013 500 3803 
L 500 4441 
Q 881 4594 1212 4672 
Q 1544 4750 1819 4750 
Q 2544 4750 2975 4387 
Q 3406 4025 3406 3419 
Q 3406 3131 3298 2873 
Q 3191 2616 2906 2266 
Q 2828 2175 2409 1742 
Q 1991 1309 1228 531 
z
" transform="scale(0.015625)"/>
       </defs>
       <use xlink:href="#DejaVuSans-32"/>
      </g>
     </g>
    </g>
    <g id="xtick_3">
     <g id="line2d_3">
      <g>
       <use xlink:href="#m3211ad3836" x="179.351241" y="173.52" style="stroke: #000000; stroke-width: 0.8"/>
      </g>
     </g>
     <g id="text_3">
      <!-- 3 -->
      <g transform="translate(176.169991 188.118438) scale(0.1 -0.1)">
       <defs>
        <path id="DejaVuSans-33" d="M 2597 2516 
Q 3050 2419 3304 2112 
Q 3559 1806 3559 1356 
Q 3559 666 3084 287 
Q 2609 -91 1734 -91 
Q 1441 -91 1130 -33 
Q 819 25 488 141 
L 488 750 
Q 750 597 1062 519 
Q 1375 441 1716 441 
Q 2309 441 2620 675 
Q 2931 909 2931 1356 
Q 2931 1769 2642 2001 
Q 2353 2234 1838 2234 
L 1294 2234 
L 1294 2753 
L 1863 2753 
Q 2328 2753 2575 2939 
Q 2822 3125 2822 3475 
Q 2822 3834 2567 4026 
Q 2313 4219 1838 4219 
Q 1578 4219 1281 4162 
Q 984 4106 628 3988 
L 628 4550 
Q 988 4650 1302 4700 
Q 1616 4750 1894 4750 
Q 2613 4750 3031 4423 
Q 3450 4097 3450 3541 
Q 3450 3153 3228 2886 
Q 3006 2619 2597 2516 
z
" transform="scale(0.015625)"/>
       </defs>
       <use xlink:href="#DejaVuSans-33"/>
      </g>
     </g>
    </g>
    <g id="xtick_4">
     <g id="line2d_4">
      <g>
       <use xlink:href="#m3211ad3836" x="230.851664" y="173.52" style="stroke: #000000; stroke-width: 0.8"/>
      </g>
     </g>
     <g id="text_4">
      <!-- 4 -->
      <g transform="translate(227.670414 188.118438) scale(0.1 -0.1)">
       <defs>
        <path id="DejaVuSans-34" d="M 2419 4116 
L 825 1625 
L 2419 1625 
L 2419 4116 
z
M 2253 4666 
L 3047 4666 
L 3047 1625 
L 3713 1625 
L 3713 1100 
L 3047 1100 
L 3047 0 
L 2419 0 
L 2419 1100 
L 313 1100 
L 313 1709 
L 2253 4666 
z
" transform="scale(0.015625)"/>
       </defs>
       <use xlink:href="#DejaVuSans-34"/>
      </g>
     </g>
    </g>
   </g>
   <g id="matplotlib.axis_2">
    <g id="ytick_1">
     <g id="line2d_5">
      <defs>
       <path id="mfa73fcd9aa" d="M 0 0 
L -3.5 0 
" style="stroke: #000000; stroke-width: 0.8"/>
      </defs>
      <g>
       <use xlink:href="#mfa73fcd9aa" x="35.304688" y="160.178987" style="stroke: #000000; stroke-width: 0.8"/>
      </g>
     </g>
     <g id="text_5">
      <!-- −80 -->
      <g transform="translate(7.2 163.978206) scale(0.1 -0.1)">
       <defs>
        <path id="DejaVuSans-2212" d="M 678 2272 
L 4684 2272 
L 4684 1741 
L 678 1741 
L 678 2272 
z
" transform="scale(0.015625)"/>
        <path id="DejaVuSans-38" d="M 2034 2216 
Q 1584 2216 1326 1975 
Q 1069 1734 1069 1313 
Q 1069 891 1326 650 
Q 1584 409 2034 409 
Q 2484 409 2743 651 
Q 3003 894 3003 1313 
Q 3003 1734 2745 1975 
Q 2488 2216 2034 2216 
z
M 1403 2484 
Q 997 2584 770 2862 
Q 544 3141 544 3541 
Q 544 4100 942 4425 
Q 1341 4750 2034 4750 
Q 2731 4750 3128 4425 
Q 3525 4100 3525 3541 
Q 3525 3141 3298 2862 
Q 3072 2584 2669 2484 
Q 3125 2378 3379 2068 
Q 3634 1759 3634 1313 
Q 3634 634 3220 271 
Q 2806 -91 2034 -91 
Q 1263 -91 848 271 
Q 434 634 434 1313 
Q 434 1759 690 2068 
Q 947 2378 1403 2484 
z
M 1172 3481 
Q 1172 3119 1398 2916 
Q 1625 2713 2034 2713 
Q 2441 2713 2670 2916 
Q 2900 3119 2900 3481 
Q 2900 3844 2670 4047 
Q 2441 4250 2034 4250 
Q 1625 4250 1398 4047 
Q 1172 3844 1172 3481 
z
" transform="scale(0.015625)"/>
        <path id="DejaVuSans-30" d="M 2034 4250 
Q 1547 4250 1301 3770 
Q 1056 3291 1056 2328 
Q 1056 1369 1301 889 
Q 1547 409 2034 409 
Q 2525 409 2770 889 
Q 3016 1369 3016 2328 
Q 3016 3291 2770 3770 
Q 2525 4250 2034 4250 
z
M 2034 4750 
Q 2819 4750 3233 4129 
Q 3647 3509 3647 2328 
Q 3647 1150 3233 529 
Q 2819 -91 2034 -91 
Q 1250 -91 836 529 
Q 422 1150 422 2328 
Q 422 3509 836 4129 
Q 1250 4750 2034 4750 
z
" transform="scale(0.015625)"/>
       </defs>
       <use xlink:href="#DejaVuSans-2212"/>
       <use xlink:href="#DejaVuSans-38" transform="translate(83.789062 0)"/>
       <use xlink:href="#DejaVuSans-30" transform="translate(147.412109 0)"/>
      </g>
     </g>
    </g>
    <g id="ytick_2">
     <g id="line2d_6">
      <g>
       <use xlink:href="#mfa73fcd9aa" x="35.304688" y="137.156117" style="stroke: #000000; stroke-width: 0.8"/>
      </g>
     </g>
     <g id="text_6">
      <!-- −60 -->
      <g transform="translate(7.2 140.955336) scale(0.1 -0.1)">
       <defs>
        <path id="DejaVuSans-36" d="M 2113 2584 
Q 1688 2584 1439 2293 
Q 1191 2003 1191 1497 
Q 1191 994 1439 701 
Q 1688 409 2113 409 
Q 2538 409 2786 701 
Q 3034 994 3034 1497 
Q 3034 2003 2786 2293 
Q 2538 2584 2113 2584 
z
M 3366 4563 
L 3366 3988 
Q 3128 4100 2886 4159 
Q 2644 4219 2406 4219 
Q 1781 4219 1451 3797 
Q 1122 3375 1075 2522 
Q 1259 2794 1537 2939 
Q 1816 3084 2150 3084 
Q 2853 3084 3261 2657 
Q 3669 2231 3669 1497 
Q 3669 778 3244 343 
Q 2819 -91 2113 -91 
Q 1303 -91 875 529 
Q 447 1150 447 2328 
Q 447 3434 972 4092 
Q 1497 4750 2381 4750 
Q 2619 4750 2861 4703 
Q 3103 4656 3366 4563 
z
" transform="scale(0.015625)"/>
       </defs>
       <use xlink:href="#DejaVuSans-2212"/>
       <use xlink:href="#DejaVuSans-36" transform="translate(83.789062 0)"/>
       <use xlink:href="#DejaVuSans-30" transform="translate(147.412109 0)"/>
      </g>
     </g>
    </g>
    <g id="ytick_3">
     <g id="line2d_7">
      <g>
       <use xlink:href="#mfa73fcd9aa" x="35.304688" y="114.133248" style="stroke: #000000; stroke-width: 0.8"/>
      </g>
     </g>
     <g id="text_7">
      <!-- −40 -->
      <g transform="translate(7.2 117.932467) scale(0.1 -0.1)">
       <use xlink:href="#DejaVuSans-2212"/>
       <use xlink:href="#DejaVuSans-34" transform="translate(83.789062 0)"/>
       <use xlink:href="#DejaVuSans-30" transform="translate(147.412109 0)"/>
      </g>
     </g>
    </g>
    <g id="ytick_4">
     <g id="line2d_8">
      <g>
       <use xlink:href="#mfa73fcd9aa" x="35.304688" y="91.110379" style="stroke: #000000; stroke-width: 0.8"/>
      </g>
     </g>
     <g id="text_8">
      <!-- −20 -->
      <g transform="translate(7.2 94.909597) scale(0.1 -0.1)">
       <use xlink:href="#DejaVuSans-2212"/>
       <use xlink:href="#DejaVuSans-32" transform="translate(83.789062 0)"/>
       <use xlink:href="#DejaVuSans-30" transform="translate(147.412109 0)"/>
      </g>
     </g>
    </g>
    <g id="ytick_5">
     <g id="line2d_9">
      <g>
       <use xlink:href="#mfa73fcd9aa" x="35.304688" y="68.087509" style="stroke: #000000; stroke-width: 0.8"/>
      </g>
     </g>
     <g id="text_9">
      <!-- 0 -->
      <g transform="translate(21.942187 71.886728) scale(0.1 -0.1)">
       <use xlink:href="#DejaVuSans-30"/>
      </g>
     </g>
    </g>
    <g id="ytick_6">
     <g id="line2d_10">
      <g>
       <use xlink:href="#mfa73fcd9aa" x="35.304688" y="45.06464" style="stroke: #000000; stroke-width: 0.8"/>
      </g>
     </g>
     <g id="text_10">
      <!-- 20 -->
      <g transform="translate(15.579687 48.863859) scale(0.1 -0.1)">
       <use xlink:href="#DejaVuSans-32"/>
       <use xlink:href="#DejaVuSans-30" transform="translate(63.623047 0)"/>
      </g>
     </g>
    </g>
    <g id="ytick_7">
     <g id="line2d_11">
      <g>
       <use xlink:href="#mfa73fcd9aa" x="35.304688" y="22.041771" style="stroke: #000000; stroke-width: 0.8"/>
      </g>
     </g>
     <g id="text_11">
      <!-- 40 -->
      <g transform="translate(15.579687 25.840989) scale(0.1 -0.1)">
       <use xlink:href="#DejaVuSans-34"/>
       <use xlink:href="#DejaVuSans-30" transform="translate(63.623047 0)"/>
      </g>
     </g>
    </g>
   </g>
   <g id="line2d_12">
    <path d="M 45.450142 143.441599 
L 45.468167 143.371338 
L 45.524818 143.546989 
L 45.558293 143.406468 
L 45.625243 143.546989 
L 45.581468 143.371338 
L 45.669019 143.441599 
L 47.322182 143.546989 
L 47.342783 143.617249 
L 47.386558 143.476729 
L 47.432908 143.546989 
L 47.726461 143.617249 
L 47.749636 143.687509 
L 47.772811 143.511859 
L 47.837187 143.652379 
L 48.511842 143.722639 
L 48.622568 143.82803 
L 48.565918 143.687509 
L 48.625143 143.7929 
L 48.81827 143.86316 
L 48.913545 144.00368 
L 48.898095 143.82803 
L 48.928996 143.93342 
L 48.954746 143.86316 
L 48.977921 144.00368 
L 49.037146 143.96855 
L 49.134997 144.03881 
L 49.122122 143.93342 
L 49.147872 143.96855 
L 49.606226 144.03881 
L 49.608801 144.109071 
L 49.629401 143.93342 
L 49.714377 144.00368 
L 49.953854 143.89829 
L 50.031105 143.82803 
L 49.964154 143.93342 
L 50.06458 143.89829 
L 50.340107 143.7929 
L 50.352982 143.722639 
L 50.360707 143.86316 
L 50.448258 143.7929 
L 50.466283 143.722639 
L 50.561559 143.86316 
L 50.595034 143.82803 
L 50.602759 144.530632 
L 50.74181 147.692342 
L 51.043088 150.29197 
L 51.066263 150.397361 
L 51.261965 151.556654 
L 51.277415 151.626914 
L 51.411316 152.259257 
L 51.581267 153.067249 
L 51.591567 153.032119 
L 51.663668 153.45368 
L 51.666243 153.41855 
L 51.820744 154.086022 
L 51.823319 154.050892 
L 51.825894 154.015762 
L 51.89027 154.331933 
L 51.91087 154.296803 
L 52.034471 154.753494 
L 52.047346 154.683234 
L 52.132322 154.999405 
L 52.134897 154.999405 
L 52.165797 155.069665 
L 52.281673 155.420967 
L 52.286823 155.385836 
L 52.322873 155.491227 
L 52.456775 155.807398 
L 52.492825 155.877658 
L 52.611276 156.123569 
L 52.655051 156.193829 
L 52.765777 156.51 
L 52.776077 156.47487 
L 52.899678 156.791041 
L 52.786377 156.43974 
L 52.902253 156.685651 
L 52.961479 156.791041 
L 53.077355 156.966691 
L 52.979504 156.755911 
L 53.082505 156.931561 
L 53.144305 157.036952 
L 53.149455 157.001822 
L 53.265331 157.247732 
L 53.280781 157.177472 
L 53.363182 157.388253 
L 53.370907 157.282862 
L 53.484208 157.423383 
L 53.486783 157.388253 
L 53.579484 157.599033 
L 53.582059 157.528773 
L 53.677335 157.704424 
L 53.697935 157.669294 
L 53.826686 157.739554 
L 53.932262 157.844944 
L 53.939987 157.809814 
L 53.942562 157.774684 
L 54.022387 157.950335 
L 54.040413 157.915204 
L 54.133113 158.020595 
L 54.153714 157.985465 
L 54.171739 157.915204 
L 54.230964 158.125985 
L 54.256714 158.055725 
L 54.36744 158.196245 
L 54.277315 157.985465 
L 54.375165 158.161115 
L 54.470441 158.266506 
L 54.555417 158.161115 
L 54.581167 158.301636 
L 54.599192 158.196245 
L 54.684168 158.407026 
L 54.820644 158.477286 
L 54.869569 158.547546 
L 54.848969 158.407026 
L 54.928795 158.442156 
L 55.054971 158.512416 
L 55.139947 158.582677 
L 55.075571 158.477286 
L 55.165697 158.512416 
L 55.237797 158.652937 
L 55.178572 158.477286 
L 55.284148 158.617807 
L 55.667826 158.688067 
L 55.670401 158.758327 
L 55.706451 158.582677 
L 55.775977 158.617807 
L 55.953653 158.723197 
L 56.041204 158.758327 
L 55.971678 158.617807 
L 56.059229 158.652937 
L 56.298706 158.723197 
L 56.327031 158.828587 
L 56.352782 158.652937 
L 56.406857 158.723197 
L 56.515008 158.652937 
L 56.435182 158.793457 
L 56.517583 158.688067 
L 56.540758 158.758327 
L 56.612859 158.652937 
L 56.628309 158.688067 
L 56.74161 158.582677 
L 56.744185 158.547546 
L 56.82401 158.723197 
L 56.847186 158.652937 
L 56.988812 158.652937 
L 56.991387 158.512416 
L 56.996537 158.688067 
L 57.099538 158.582677 
L 57.189663 158.652937 
L 57.117563 158.547546 
L 57.210264 158.582677 
L 57.256614 158.512416 
L 57.215414 158.617807 
L 57.315839 158.582677 
L 57.318414 158.688067 
L 57.364765 158.477286 
L 57.42399 158.512416 
L 57.727843 158.442156 
L 57.810244 158.336766 
L 57.776768 158.477286 
L 57.838569 158.407026 
L 57.869469 158.336766 
L 57.949295 158.442156 
L 57.97762 158.336766 
L 58.000795 158.512416 
L 58.062596 158.371896 
L 58.358723 158.266506 
L 58.464299 158.161115 
L 58.363873 158.336766 
L 58.474599 158.196245 
L 58.518374 158.266506 
L 58.5776 158.125985 
L 58.585325 158.196245 
L 58.716651 158.161115 
L 58.719226 158.055725 
L 58.783602 158.196245 
L 58.824802 158.125985 
L 58.902052 158.266506 
L 58.829952 158.090855 
L 58.935528 158.125985 
L 58.981878 158.196245 
L 59.048829 158.090855 
L 59.164705 158.266506 
L 59.16728 158.196245 
L 60.156088 158.090855 
L 60.197288 157.985465 
L 60.220463 158.125985 
L 60.269389 158.020595 
L 60.374965 158.090855 
L 60.315739 157.985465 
L 60.380115 158.020595 
L 60.550066 158.090855 
L 60.552641 158.161115 
L 60.578391 158.020595 
L 60.658217 158.090855 
L 60.732893 158.055725 
L 60.699417 158.196245 
L 60.768943 158.090855 
L 60.776668 158.196245 
L 60.781818 158.055725 
L 60.882244 158.125985 
L 60.900269 158.090855 
L 61.026445 154.402193 
L 61.03417 154.331933 
L 61.209271 152.540297 
L 61.224722 152.434907 
L 61.448748 150.889182 
L 61.469349 150.783792 
L 61.6599 149.694758 
L 61.698525 149.589368 
L 61.832427 148.957026 
L 61.986928 148.219294 
L 61.992078 148.289554 
L 62.002378 148.184164 
L 62.141429 147.692342 
L 62.007528 148.219294 
L 62.146579 147.727472 
L 62.172329 147.622082 
L 62.321681 147.02487 
L 62.324256 147.06 
L 62.329406 147.09513 
L 62.375756 146.849219 
L 62.419531 146.849219 
L 62.558583 146.427658 
L 62.561158 146.462788 
L 62.635833 146.181747 
L 62.651283 146.216877 
L 62.767159 145.795316 
L 62.774884 145.865576 
L 62.785184 145.900706 
L 62.857285 145.619665 
L 62.867585 145.654796 
L 62.975736 145.373755 
L 62.986036 145.408885 
L 63.027236 145.303494 
L 63.155987 145.022454 
L 63.166287 145.127844 
L 63.246113 144.881933 
L 63.264138 144.952193 
L 63.282163 144.917063 
L 63.382589 144.600892 
L 63.398039 144.636022 
L 63.49074 144.530632 
L 63.49589 144.565762 
L 63.616916 144.319851 
L 63.691592 144.249591 
L 63.753392 144.073941 
L 63.709617 144.284721 
L 63.802318 144.214461 
L 63.835793 144.144201 
L 63.951669 143.93342 
L 63.972269 144.00368 
L 63.990294 143.86316 
L 64.05982 143.93342 
L 64.157671 143.7929 
L 64.06497 143.96855 
L 64.175696 143.82803 
L 64.270972 143.86316 
L 64.219471 143.75777 
L 64.281272 143.7929 
L 64.391998 143.617249 
L 64.402298 143.652379 
L 64.404873 143.687509 
L 64.484698 143.511859 
L 64.507874 143.582119 
L 64.551649 143.476729 
L 64.569674 143.546989 
L 64.6701 143.371338 
L 64.6804 143.476729 
L 64.767951 143.265948 
L 64.778251 143.301078 
L 65.064078 143.265948 
L 65.167079 143.160558 
L 65.092403 143.301078 
L 65.174804 143.230818 
L 65.210854 143.160558 
L 65.228879 143.195688 
L 65.324155 143.090297 
L 65.440031 143.195688 
L 65.545607 143.055167 
L 65.550757 143.125428 
L 65.88551 143.195688 
L 65.91641 143.265948 
L 65.939585 143.125428 
L 65.993661 143.195688 
L 66.058036 143.125428 
L 66.034861 143.265948 
L 66.104387 143.195688 
L 67.780725 143.090297 
L 67.888876 143.055167 
L 67.868276 143.160558 
L 67.891451 143.090297 
L 68.195304 143.055167 
L 68.197879 142.949777 
L 68.205604 143.090297 
L 68.303455 143.090297 
L 69.348913 143.090297 
L 69.431314 142.914647 
L 69.459639 143.055167 
L 69.529165 142.949777 
L 69.53174 142.914647 
L 69.57294 143.055167 
L 69.637316 142.984907 
L 69.655341 143.125428 
L 69.706841 142.914647 
L 69.750617 143.020037 
L 69.768642 142.949777 
L 69.827867 143.090297 
L 69.858767 143.055167 
L 70.036444 142.984907 
L 70.039019 142.914647 
L 70.051894 143.090297 
L 70.144595 143.055167 
L 70.149745 143.020037 
L 70.257896 143.090297 
L 70.649299 143.160558 
L 70.739425 143.301078 
L 70.659599 143.125428 
L 70.760025 143.265948 
L 70.7626 143.160558 
L 70.860451 143.336208 
L 70.870751 143.265948 
L 71.202928 143.371338 
L 71.205504 143.406468 
L 71.244129 143.265948 
L 71.308504 143.301078 
L 71.553131 143.230818 
L 71.558281 143.160558 
L 71.640682 143.301078 
L 71.663857 143.230818 
L 71.849259 143.336208 
L 71.931659 143.371338 
L 71.903334 143.195688 
L 71.95741 143.301078 
L 72.61404 143.406468 
L 72.717041 143.476729 
L 72.65009 143.301078 
L 72.724766 143.406468 
L 72.727341 143.301078 
L 72.783991 143.476729 
L 72.832917 143.441599 
L 73.337621 143.371338 
L 73.342771 143.301078 
L 73.363371 143.441599 
L 73.443197 143.441599 
L 73.525598 143.476729 
L 73.517872 143.371338 
L 73.551348 143.406468 
L 74.41398 143.476729 
L 74.416555 143.582119 
L 74.511831 143.406468 
L 74.524706 143.476729 
L 74.625132 143.441599 
L 74.550456 143.511859 
L 74.635432 143.476729 
L 74.645732 143.546989 
L 74.671482 143.406468 
L 74.746158 143.476729 
L 74.851733 143.301078 
L 74.862034 143.336208 
L 74.864609 143.441599 
L 74.903234 143.301078 
L 74.972759 143.336208 
L 75.186486 143.441599 
L 75.212236 143.476729 
L 75.214811 143.371338 
L 75.297212 143.441599 
L 75.366738 143.371338 
L 75.335837 143.511859 
L 75.405363 143.476729 
L 75.433688 143.511859 
L 75.480039 143.371338 
L 75.510939 143.441599 
L 75.59849 143.371338 
L 75.552139 143.476729 
L 75.62424 143.406468 
L 76.350396 143.441599 
L 76.476572 148.886766 
L 76.479147 148.851636 
L 76.525497 149.694758 
L 77.019901 154.999405 
L 77.022476 154.964275 
L 77.035351 155.069665 
L 77.269678 156.755911 
L 77.282553 156.861301 
L 77.478255 158.055725 
L 77.48083 158.020595 
L 77.555506 158.512416 
L 77.735757 159.460929 
L 77.758932 159.53119 
L 77.892833 160.163532 
L 77.916009 160.268922 
L 78.083385 161.112045 
L 78.098835 161.041784 
L 78.170936 161.428216 
L 78.183811 161.393086 
L 78.304837 161.920037 
L 78.312562 161.884907 
L 78.335737 161.955167 
L 78.456763 162.482119 
L 78.464488 162.446989 
L 78.492813 162.552379 
L 78.629289 163.149591 
L 78.63959 163.044201 
L 78.67564 163.149591 
L 78.683365 163.114461 
L 78.817266 163.571152 
L 78.819841 163.500892 
L 78.912542 163.781933 
L 78.920267 163.781933 
L 78.984642 163.887323 
L 79.097943 164.168364 
L 79.113393 164.133234 
L 79.157169 164.238625 
L 79.167469 164.203494 
L 79.278195 164.519665 
L 79.28077 164.379145 
L 79.368321 164.660186 
L 79.386346 164.625056 
L 79.520247 164.941227 
L 79.530547 164.870967 
L 79.589772 165.046617 
L 79.625823 164.976357 
L 79.751999 165.187138 
L 79.834399 165.257398 
L 79.844699 165.222268 
L 79.950275 165.397918 
L 80.102202 165.468178 
L 80.212927 165.573569 
L 80.215502 165.538439 
L 80.318503 165.573569 
L 80.434379 165.81948 
L 80.462705 165.678959 
L 80.545105 165.81948 
L 80.789732 165.92487 
L 80.869558 165.96 
L 80.797457 165.85461 
L 80.897883 165.92487 
L 80.993159 165.749219 
L 81.011184 165.81948 
L 81.034359 165.749219 
L 81.036934 165.678959 
L 81.139935 165.85461 
L 81.14251 165.81948 
L 81.253236 165.678959 
L 81.204311 165.85461 
L 81.260961 165.714089 
L 81.374262 165.85461 
L 81.379412 165.81948 
L 81.428337 165.749219 
L 81.407737 165.85461 
L 81.492713 165.784349 
L 81.70644 165.714089 
L 81.791415 165.784349 
L 81.819741 165.608699 
L 81.866091 165.714089 
L 81.896991 165.538439 
L 81.927892 165.608699 
L 81.943342 165.643829 
L 82.041192 165.503309 
L 82.046343 165.573569 
L 82.097843 165.362788 
L 82.151918 165.538439 
L 82.260069 165.397918 
L 82.157068 165.573569 
L 82.267794 165.433048 
L 82.35277 165.468178 
L 82.314145 165.362788 
L 82.37337 165.397918 
L 82.489246 165.187138 
L 82.538172 165.257398 
L 82.576797 165.116877 
L 82.594822 165.152007 
L 82.715848 164.976357 
L 82.785374 165.046617 
L 82.769923 164.941227 
L 82.823999 164.976357 
L 82.90125 164.835836 
L 82.939875 164.870967 
L 82.94245 164.906097 
L 82.991375 164.730446 
L 83.042876 164.800706 
L 83.161327 164.625056 
L 83.053176 164.835836 
L 83.163902 164.660186 
L 83.181927 164.695316 
L 83.236002 164.554796 
L 83.269478 164.589926 
L 83.295228 164.625056 
L 83.385353 164.414275 
L 83.413679 164.484535 
L 83.439429 164.273755 
L 83.490929 164.344015 
L 83.498654 164.308885 
L 83.51668 164.344015 
L 83.611955 164.168364 
L 83.797357 164.098104 
L 83.902933 163.887323 
L 83.913233 163.957584 
L 83.915808 163.992714 
L 83.923533 163.852193 
L 84.018809 163.922454 
L 84.12696 163.711673 
L 84.13211 163.746803 
L 84.18876 163.641413 
L 84.286611 163.430632 
L 84.245411 163.676543 
L 84.309786 163.465762 
L 84.320086 163.536022 
L 84.376737 163.360372 
L 84.415362 163.465762 
L 84.533813 163.219851 
L 84.538963 163.290112 
L 84.613639 163.114461 
L 84.639389 163.184721 
L 84.76814 162.93881 
L 84.80934 163.044201 
L 84.84024 162.83342 
L 84.876291 162.86855 
L 84.961266 162.79829 
L 85.071992 162.587509 
L 85.077142 162.622639 
L 85.108043 162.6929 
L 85.128643 162.517249 
L 85.180143 162.552379 
L 85.293444 162.306468 
L 85.296019 162.341599 
L 85.301169 162.411859 
L 85.350095 162.271338 
L 85.406745 162.341599 
L 85.525196 162.095688 
L 85.581847 162.165948 
L 85.623047 162.025428 
L 85.628197 162.060558 
L 85.744073 161.849777 
L 85.756948 161.884907 
L 85.870249 161.638996 
L 85.916599 161.568736 
L 86.02475 161.428216 
L 85.95265 161.603866 
L 86.027325 161.463346 
L 86.117451 161.533606 
L 86.068526 161.357955 
L 86.135476 161.428216 
L 86.148351 161.463346 
L 86.264227 161.182305 
L 86.310578 161.182305 
L 86.403278 160.971524 
L 86.323453 161.217435 
L 86.423878 161.006654 
L 86.434179 161.112045 
L 86.526879 160.901264 
L 86.586105 160.795874 
L 86.611855 160.866134 
L 86.704556 160.655353 
L 86.707131 160.690483 
L 86.753481 160.514833 
L 86.804982 160.514833 
L 86.866782 160.409442 
L 86.987808 160.128401 
L 86.990383 160.198662 
L 87.021283 160.304052 
L 87.090809 160.093271 
L 87.095959 160.163532 
L 87.20926 159.987881 
L 87.119134 160.198662 
L 87.216985 160.023011 
L 87.232435 160.058141 
L 87.317411 159.882491 
L 87.319986 159.917621 
L 87.461612 159.847361 
L 87.551738 159.67171 
L 87.469337 159.882491 
L 87.574913 159.70684 
L 87.590363 159.74197 
L 87.613538 159.60145 
L 87.680489 159.67171 
L 87.801515 159.390669 
L 87.806665 159.496059 
L 87.88134 159.285279 
L 87.909666 159.355539 
L 87.945716 159.390669 
L 88.028117 159.179888 
L 88.030692 159.285279 
L 88.097642 159.074498 
L 88.136268 159.215019 
L 88.244418 159.004238 
L 88.249568 159.039368 
L 88.252143 159.074498 
L 88.316519 158.898848 
L 88.352569 158.969108 
L 88.362869 159.004238 
L 88.47617 158.793457 
L 88.478745 158.828587 
L 88.517371 158.688067 
L 88.579171 158.688067 
L 88.707922 158.582677 
L 88.816073 158.442156 
L 88.718222 158.617807 
L 88.826373 158.477286 
L 88.898474 158.442156 
L 88.991175 158.231375 
L 89.011775 158.266506 
L 89.022075 158.407026 
L 89.1019 158.196245 
L 89.122501 158.266506 
L 89.168851 158.161115 
L 89.271852 157.915204 
L 89.176576 158.196245 
L 89.292452 157.950335 
L 89.295027 158.020595 
L 89.380003 157.844944 
L 89.398028 157.880074 
L 89.501029 157.739554 
L 89.513904 157.774684 
L 89.539654 157.809814 
L 89.59888 157.669294 
L 89.61433 157.704424 
L 89.725056 157.528773 
L 89.730206 157.563903 
L 89.856382 157.353123 
L 89.871832 157.423383 
L 89.954232 157.247732 
L 89.961957 157.247732 
L 90.098434 157.142342 
L 90.21946 156.896431 
L 90.222035 156.966691 
L 90.30186 156.861301 
L 90.415161 156.755911 
L 90.309585 156.896431 
L 90.417736 156.791041 
L 90.438336 156.826171 
L 90.500137 156.65052 
L 90.520737 156.720781 
L 90.631463 156.47487 
L 90.636613 156.54513 
L 90.770514 156.47487 
L 90.909565 155.702007 
L 91.071792 154.999405 
L 91.125867 155.034535 
L 91.146467 154.929145 
L 91.179942 154.964275 
L 91.926699 154.929145 
L 91.929274 154.823755 
L 91.965324 154.964275 
L 92.037425 154.929145 
L 92.282052 154.823755 
L 92.289777 154.858885 
L 92.397927 154.753494 
L 92.526679 154.648104 
L 92.637404 154.542714 
L 92.552429 154.718364 
L 92.639979 154.577844 
L 92.64513 154.648104 
L 92.694055 154.472454 
L 92.745555 154.507584 
L 92.869156 154.437323 
L 92.977307 154.331933 
L 92.892332 154.472454 
L 92.979882 154.402193 
L 93.121508 154.296803 
L 93.206484 154.191413 
L 93.131809 154.331933 
L 93.237384 154.226543 
L 93.407336 154.156283 
L 93.523212 154.015762 
L 93.636513 153.910372 
L 93.747239 153.840112 
L 93.688013 154.015762 
L 93.749814 153.875242 
L 93.752389 153.910372 
L 93.798739 153.769851 
L 93.852814 153.769851 
L 93.945515 153.664461 
L 94.053666 153.594201 
L 93.981565 153.734721 
L 94.056241 153.629331 
L 94.058816 153.699591 
L 94.092291 153.523941 
L 94.164392 153.559071 
L 94.282843 153.38342 
L 94.285418 153.41855 
L 94.367819 153.34829 
L 94.398719 153.45368 
L 94.514595 153.27803 
L 94.57382 153.34829 
L 94.591846 153.172639 
L 94.622746 153.27803 
L 94.738622 153.137509 
L 94.792697 153.20777 
L 94.759222 153.102379 
L 94.849348 153.137509 
L 94.936898 153.067249 
L 95.047624 152.856468 
L 94.949773 153.102379 
L 95.050199 152.961859 
L 95.052774 152.996989 
L 95.1017 152.821338 
L 95.1532 152.856468 
L 95.245901 152.751078 
L 95.261351 152.821338 
L 95.366927 152.610558 
L 95.413277 152.715948 
L 95.472503 152.540297 
L 95.475078 152.575428 
L 95.487953 152.610558 
L 95.596104 152.434907 
L 95.642454 152.505167 
L 95.665629 152.329517 
L 95.70168 152.434907 
L 95.817556 152.259257 
L 95.881931 152.294387 
L 95.840731 152.188996 
L 95.923131 152.224126 
L 96.031282 152.048476 
L 95.948882 152.294387 
L 96.036432 152.153866 
L 96.129133 151.978216 
L 96.072483 152.188996 
L 96.149733 152.083606 
L 96.152308 152.118736 
L 96.221834 151.943086 
L 96.252734 151.978216 
L 96.309385 151.872825 
L 96.32226 151.943086 
L 96.430411 151.732305 
L 96.605512 151.662045 
L 96.718813 151.416134 
L 96.723963 151.451264 
L 96.870739 151.345874 
L 96.873314 151.275613 
L 96.91194 151.451264 
L 96.981465 151.310743 
L 97.107641 151.205353 
L 97.192617 151.275613 
L 97.226092 151.064833 
L 97.259567 151.205353 
L 97.331668 150.994572 
L 97.336818 151.064833 
L 97.455269 150.959442 
L 97.504194 150.818922 
L 97.57372 150.854052 
L 97.782297 150.783792 
L 97.895598 150.573011 
L 97.898173 150.643271 
L 98.003749 150.608141 
L 98.106749 150.467621 
L 98.114474 150.502751 
L 98.14795 150.537881 
L 98.184 150.397361 
L 98.217475 150.432491 
L 98.323051 150.36223 
L 98.227775 150.467621 
L 98.328201 150.397361 
L 98.330776 150.432491 
L 98.392577 150.25684 
L 98.431202 150.29197 
L 98.503303 150.22171 
L 98.526478 150.25684 
L 98.619179 150.08119 
L 98.791705 149.975799 
L 98.910156 149.800149 
L 98.83033 150.046059 
L 98.912731 149.835279 
L 98.971956 149.870409 
L 99.002857 149.729888 
L 99.020882 149.800149 
L 99.067232 149.694758 
L 99.175383 149.554238 
L 99.080107 149.765019 
L 99.185683 149.589368 
L 99.234609 149.659628 
L 99.262934 149.483978 
L 99.293834 149.554238 
L 99.407135 149.448848 
L 99.34276 149.589368 
L 99.40971 149.483978 
L 99.502411 149.378587 
L 99.520436 149.413717 
L 99.626012 149.167807 
L 99.713563 149.238067 
L 99.651762 149.132677 
L 99.734163 149.167807 
L 99.847464 148.957026 
L 99.875789 149.062416 
L 99.919564 148.886766 
L 99.950465 148.921896 
L 99.96334 148.957026 
L 100.06634 148.746245 
L 100.231142 148.675985 
L 100.339293 148.535465 
L 100.344443 148.570595 
L 100.450019 148.465204 
L 100.529844 148.324684 
L 100.455169 148.500335 
L 100.565895 148.394944 
L 100.63027 148.289554 
L 100.740996 148.184164 
L 100.637995 148.324684 
L 100.743571 148.219294 
L 100.771896 148.254424 
L 100.797646 148.113903 
L 100.849147 148.149033 
L 100.965023 148.113903 
L 101.073174 147.938253 
L 101.078324 147.973383 
L 101.083474 148.008513 
L 101.152999 147.832862 
L 101.181325 147.867993 
L 101.2457 147.797732 
L 101.258575 147.832862 
L 101.361576 147.622082 
L 101.464577 147.516691 
L 101.577878 147.376171 
L 101.474877 147.551822 
L 101.580453 147.411301 
L 101.583028 147.481561 
L 101.670579 147.270781 
L 101.683454 147.270781 
L 101.701479 147.341041 
L 101.79933 147.16539 
L 101.81478 147.235651 
L 101.858555 147.02487 
L 101.907481 147.09513 
L 101.966706 146.98974 
L 101.979581 147.02487 
L 102.085157 146.884349 
L 102.157258 146.814089 
L 102.265409 146.603309 
L 102.270559 146.673569 
L 102.273134 146.708699 
L 102.322059 146.568178 
L 102.376134 146.638439 
L 102.494585 146.392528 
L 102.50231 146.427658 
L 102.571836 146.497918 
L 102.592436 146.392528 
L 102.610461 146.392528 
L 102.700587 146.252007 
L 102.649087 146.462788 
L 102.723762 146.322268 
L 102.728912 146.357398 
L 102.844788 146.181747 
L 102.847363 146.252007 
L 102.932339 146.111487 
L 102.952939 146.181747 
L 103.048215 145.970967 
L 103.07654 146.006097 
L 103.143491 145.935836 
L 103.236191 145.725056 
L 103.153791 145.970967 
L 103.256792 145.795316 
L 103.279967 145.900706 
L 103.352067 145.654796 
L 103.359792 145.725056 
L 103.475668 145.549405 
L 103.478243 145.584535 
L 103.516869 145.654796 
L 103.558069 145.479145 
L 103.583819 145.549405 
L 103.694545 145.373755 
L 103.596694 145.619665 
L 103.70227 145.444015 
L 103.820721 145.338625 
L 103.843896 145.408885 
L 103.941747 145.162974 
L 103.980373 145.268364 
L 104.044748 145.092714 
L 104.049898 145.092714 
L 104.083373 145.162974 
L 104.147749 145.022454 
L 104.158049 145.092714 
L 104.268775 144.987323 
L 104.273925 145.022454 
L 104.366626 144.987323 
L 104.454176 144.776543 
L 104.479927 144.846803 
L 104.639578 144.741413 
L 104.765754 144.495502 
L 104.832705 144.600892 
L 104.806954 144.460372 
L 104.87648 144.530632 
L 104.915105 144.425242 
L 104.92283 144.495502 
L 105.030981 144.284721 
L 105.056731 144.425242 
L 105.090207 144.249591 
L 105.139132 144.319851 
L 105.255008 144.179331 
L 105.363159 144.00368 
L 105.265308 144.249591 
L 105.373459 144.073941 
L 105.520235 143.96855 
L 105.607786 143.7929 
L 105.525385 144.00368 
L 105.638686 143.82803 
L 105.710787 143.86316 
L 105.667011 143.722639 
L 105.744262 143.75777 
L 105.770012 143.82803 
L 105.862713 143.617249 
L 105.934814 143.652379 
L 105.957989 143.511859 
L 105.968289 143.582119 
L 106.040389 143.406468 
L 106.014639 143.617249 
L 106.08674 143.441599 
L 106.10734 143.511859 
L 106.14854 143.371338 
L 106.192316 143.406468 
L 106.313342 143.265948 
L 106.372567 143.336208 
L 106.318492 143.230818 
L 106.421493 143.301078 
L 106.539944 143.090297 
L 106.630069 143.020037 
L 106.730495 142.914647 
L 106.68157 143.055167 
L 106.740795 142.949777 
L 106.818046 142.879517 
L 106.918472 142.703866 
L 106.933922 142.738996 
L 106.951947 142.809257 
L 107.052373 142.633606 
L 107.101298 142.528216 
L 107.217174 142.387695 
L 107.109023 142.598476 
L 107.219749 142.422825 
L 107.3279 142.317435 
L 107.3382 142.352565 
L 107.443776 142.212045 
L 107.459226 142.247175 
L 107.487551 142.106654 
L 107.546777 142.106654 
L 107.660078 141.966134 
L 107.562227 142.141784 
L 107.662653 142.001264 
L 107.747629 142.071524 
L 107.760504 141.931004 
L 107.768229 141.966134 
L 107.88153 141.860743 
L 107.783679 142.001264 
L 107.884105 141.895874 
L 107.956205 141.790483 
L 108.043756 141.649963 
L 107.961355 141.895874 
L 108.069506 141.755353 
L 108.123582 141.649963 
L 108.244608 141.439182 
L 108.275508 141.614833 
L 108.355334 141.474312 
L 108.406834 141.439182 
L 108.49181 141.228401 
L 108.51756 141.298662 
L 108.520135 141.368922 
L 108.605111 141.123011 
L 108.620561 141.123011 
L 108.793087 141.052751 
L 108.906388 140.84197 
L 108.908963 140.91223 
L 108.937288 140.947361 
L 108.978489 140.77171 
L 109.006814 140.77171 
L 109.014539 140.84197 
L 109.12784 140.63119 
L 109.15359 140.73658 
L 109.225691 140.560929 
L 109.230841 140.63119 
L 109.344142 140.455539 
L 109.441992 140.420409 
L 109.557868 140.209628 
L 109.591344 140.279888 
L 109.635119 140.104238 
L 109.666019 140.139368 
L 109.79992 140.033978 
L 109.890046 139.893457 
L 109.81022 140.069108 
L 109.913221 139.963717 
L 110.023947 139.788067 
L 110.031672 139.823197 
L 110.034247 139.858327 
L 110.067723 139.682677 
L 110.134673 139.717807 
L 110.139823 139.752937 
L 110.258274 139.542156 
L 110.3999 139.436766 
L 110.492601 139.296245 
L 110.40505 139.471896 
L 110.515776 139.331375 
L 110.544101 139.401636 
L 110.608477 139.190855 
L 110.618777 139.225985 
L 110.623927 139.261115 
L 110.739803 139.050335 
L 110.755253 139.120595 
L 110.842804 138.944944 
L 110.94838 138.839554 
L 111.046231 138.734164 
L 110.956105 138.874684 
L 111.064256 138.769294 
L 111.174982 138.699033 
L 111.195582 138.769294 
L 111.290858 138.453123 
L 111.388708 138.593643 
L 111.401584 138.488253 
L 111.414459 138.523383 
L 111.517459 138.347732 
L 111.612735 138.277472 
L 111.705436 138.031561 
L 111.728611 138.136952 
L 111.839337 137.961301 
L 111.849637 137.996431 
L 111.973238 137.926171 
L 112.081389 137.820781 
L 111.988688 137.961301 
L 112.083964 137.855911 
L 112.117439 137.926171 
L 112.15349 137.71539 
L 112.18954 137.785651 
L 112.349191 137.75052 
L 112.436742 137.57487 
L 112.459917 137.64513 
L 112.508843 137.68026 
L 112.521718 137.53974 
L 112.562918 137.53974 
L 112.663344 137.434349 
L 112.668494 137.46948 
L 112.781795 137.328959 
L 112.907971 137.223569 
L 113.026422 136.977658 
L 113.034147 137.012788 
L 113.052172 137.083048 
L 113.126848 136.907398 
L 113.139723 136.942528 
L 113.144873 136.977658 
L 113.263324 136.766877 
L 113.276199 136.837138 
L 113.35345 136.591227 
L 113.366325 136.661487 
L 113.371475 136.696617 
L 113.479626 136.556097 
L 113.610952 136.450706 
L 113.726828 136.275056 
L 113.739703 136.345316 
L 113.814378 136.169665 
L 113.832403 136.204796 
L 113.927679 136.169665 
L 113.930254 136.310186 
L 113.937979 136.239926 
L 113.940554 136.310186 
L 114.007505 136.064275 
L 114.043555 136.134535 
L 114.138831 135.923755 
L 114.156856 135.958885 
L 114.221232 135.888625 
L 114.324233 135.712974 
L 114.334533 135.783234 
L 114.349983 135.818364 
L 114.375733 135.677844 
L 114.440108 135.748104 
L 114.561134 135.607584 
L 114.697611 135.537323 
L 114.813487 135.396803 
L 114.834087 135.502193 
L 114.870137 135.291413 
L 114.913912 135.291413 
L 115.022063 135.186022 
L 114.924212 135.326543 
L 115.027213 135.221152 
L 115.065839 135.256283 
L 115.099314 135.080632 
L 115.130214 135.115762 
L 115.24609 134.940112 
L 115.143089 135.186022 
L 115.248665 134.975242 
L 115.343941 135.010372 
L 115.320766 134.869851 
L 115.356816 134.940112 
L 115.413466 134.904981 
L 115.513892 134.764461 
L 115.524192 134.869851 
L 115.642643 134.694201 
L 115.645218 134.729331 
L 115.683844 134.799591 
L 115.750794 134.58881 
L 115.843495 134.48342 
L 115.954221 134.37803 
L 115.89242 134.55368 
L 115.959371 134.41316 
L 115.964521 134.44829 
L 116.046922 134.237509 
L 116.059797 134.30777 
L 116.183398 134.061859 
L 116.185973 134.096989 
L 116.211723 134.132119 
L 116.234898 133.991599 
L 116.288974 134.061859 
L 116.40485 133.921338 
L 116.412575 133.991599 
L 116.428025 133.851078 
L 116.513 133.921338 
L 116.613426 133.675428 
L 116.631451 133.710558 
L 116.734452 133.780818 
L 116.708702 133.605167 
L 116.742177 133.710558 
L 116.803978 133.640297 
L 116.914704 133.429517 
L 116.919854 133.499777 
L 117.04088 133.288996 
L 117.043455 133.324126 
L 117.115555 133.359257 
L 117.105255 133.253866 
L 117.149031 133.288996 
L 117.277782 133.007955 
L 117.306107 133.078216 
L 117.375633 132.902565 
L 117.383358 132.972825 
L 117.491509 132.762045 
L 117.401383 133.043086 
L 117.504384 132.797175 
L 117.514684 132.902565 
L 117.579059 132.621524 
L 117.604809 132.691784 
L 117.66661 132.516134 
L 117.71811 132.586394 
L 117.751586 132.481004 
L 117.800511 132.551264 
L 117.882912 132.199963 
L 117.885487 132.235093 
L 117.967887 131.848662 
L 117.970462 131.883792 
L 118.130114 131.778401 
L 118.158439 131.673011 
L 118.191914 131.813532 
L 118.238265 131.778401 
L 118.26659 131.813532 
L 118.253715 131.673011 
L 118.346416 131.778401 
L 118.356716 131.813532 
L 118.457141 131.708141 
L 118.518942 131.778401 
L 118.534392 131.637881 
L 118.565292 131.673011 
L 118.676018 131.602751 
L 118.773869 131.497361 
L 118.712069 131.637881 
L 118.786744 131.602751 
L 118.799619 131.532491 
L 118.90777 131.39197 
L 118.91292 131.4271 
L 118.946395 131.497361 
L 118.94897 131.567621 
L 119.005621 131.35684 
L 119.051971 131.39197 
L 119.167847 131.35684 
L 119.281148 131.146059 
L 119.299173 131.21632 
L 119.366124 131.005539 
L 119.386724 131.040669 
L 119.546375 130.970409 
L 119.556675 130.865019 
L 119.613326 131.040669 
L 119.657101 130.935279 
L 119.659676 131.005539 
L 119.721477 130.829888 
L 119.762677 130.829888 
L 119.875978 130.689368 
L 119.912028 130.794758 
L 119.940354 130.619108 
L 119.986704 130.689368 
L 120.10773 130.583978 
L 120.208156 130.408327 
L 120.13348 130.654238 
L 120.223606 130.443457 
L 120.228756 130.548848 
L 120.293132 130.338067 
L 120.324032 130.373197 
L 120.434758 130.162416 
L 120.439908 130.197546 
L 120.463083 130.267807 
L 120.514583 130.127286 
L 120.545484 130.127286 
L 120.594409 130.057026 
L 120.70771 129.846245 
L 120.710285 129.916506 
L 120.77466 129.705725 
L 120.826161 129.811115 
L 120.828736 129.846245 
L 120.890536 129.635465 
L 120.924012 129.635465 
L 121.014137 129.494944 
L 120.942037 129.670595 
L 121.037313 129.565204 
L 121.109413 129.494944 
L 121.222714 129.319294 
L 121.122288 129.530074 
L 121.225289 129.354424 
L 121.243314 129.389554 
L 121.299965 129.178773 
L 121.32829 129.249033 
L 121.449316 129.108513 
L 121.513692 129.038253 
L 121.531717 129.073383 
L 121.629567 128.897732 
L 121.706818 128.932862 
L 121.645018 128.827472 
L 121.737718 128.862602 
L 121.781494 128.757212 
L 121.809819 128.827472 
L 121.89737 128.616691 
L 121.899945 128.686952 
L 121.966895 128.476171 
L 122.005521 128.546431 
L 122.033846 128.441041 
L 122.141997 128.26539 
L 122.154872 128.30052 
L 122.232122 128.19513 
L 122.299073 128.08974 
L 122.237272 128.26539 
L 122.345423 128.12487 
L 122.391774 128.19513 
L 122.440699 127.984349 
L 122.448424 128.01948 
L 122.56945 127.843829 
L 122.572025 127.878959 
L 122.631251 127.633048 
L 122.664726 127.633048 
L 122.752277 127.562788 
L 122.690476 127.703309 
L 122.770302 127.703309 
L 122.783177 127.597918 
L 122.832102 127.633048 
L 122.906778 127.387138 
L 122.942828 127.492528 
L 122.991754 127.211487 
L 123.007204 127.246617 
L 123.11278 127.176357 
L 123.208055 127.035836 
L 123.223506 127.106097 
L 123.254406 127.211487 
L 123.298181 127.000706 
L 123.331656 127.070967 
L 123.344532 127.106097 
L 123.455257 126.895316 
L 123.576283 126.789926 
L 123.699884 126.544015 
L 123.70246 126.579145 
L 123.751385 126.473755 
L 123.877561 126.262974 
L 123.880136 126.298104 
L 123.970262 126.017063 
L 124.070688 125.911673 
L 124.189139 125.630632 
L 124.075838 125.946803 
L 124.194289 125.736022 
L 124.240639 125.700892 
L 124.356515 125.490112 
L 124.35909 125.525242 
L 124.433766 125.314461 
L 124.456941 125.349591 
L 124.583117 125.279331 
L 124.698993 125.03342 
L 124.593417 125.349591 
L 124.701568 125.06855 
L 124.817444 124.96316 
L 124.925595 124.682119 
L 124.941045 124.752379 
L 124.97967 124.822639 
L 125.028595 124.541599 
L 125.03632 124.541599 
L 125.044046 124.611859 
L 125.154771 124.295688 
L 125.177947 124.330818 
L 125.232022 124.155167 
L 125.260347 124.260558 
L 125.268072 124.295688 
L 125.399398 123.838996 
L 125.481799 123.768736 
L 125.515274 123.944387 
L 125.6363 123.628216 
L 125.644025 123.698476 
L 125.734151 123.452565 
L 125.868052 123.347175 
L 125.916978 123.382305 
L 125.991653 123.136394 
L 125.996803 123.206654 
L 126.040579 122.890483 
L 126.084354 122.925613 
L 126.228555 122.468922 
L 126.23628 122.504052 
L 126.316106 122.223011 
L 126.323831 122.258141 
L 126.365031 122.152751 
L 126.486057 121.83658 
L 126.491207 121.90684 
L 126.601933 122.01223 
L 126.519533 121.76632 
L 126.604508 121.94197 
L 126.648284 121.87171 
L 126.751285 121.660929 
L 126.676609 121.90684 
L 126.761585 121.73119 
L 126.892911 121.204238 
L 126.903211 121.309628 
L 126.936686 121.204238 
L 127.060287 120.817807 
L 126.949561 121.239368 
L 127.070587 120.888067 
L 127.073162 120.923197 
L 127.147838 120.466506 
L 127.150413 120.501636 
L 127.258564 120.220595 
L 127.268864 120.290855 
L 127.44139 119.412602 
L 127.449115 119.482862 
L 127.531516 119.131561 
L 127.541816 119.166691 
L 127.719492 118.183048 
L 127.557266 119.201822 
L 127.722068 118.218178 
L 127.732368 118.183048 
L 127.866269 117.129145 
L 127.868844 117.164275 
L 127.917769 116.531933 
L 127.933219 116.602193 
L 128.126346 106.09829 
L 128.157246 14.76 
L 128.231922 113.089182 
L 128.347798 131.989182 
L 128.363248 131.848662 
L 128.437923 131.813532 
L 128.479124 131.989182 
L 128.61045 131.673011 
L 128.628475 131.813532 
L 128.703151 131.567621 
L 128.713451 131.567621 
L 128.746926 131.46223 
L 128.883402 131.075799 
L 128.885977 131.110929 
L 128.970953 130.794758 
L 128.976103 130.829888 
L 129.130604 130.232677 
L 129.135754 130.267807 
L 129.20013 129.916506 
L 129.218155 129.916506 
L 129.259355 129.811115 
L 129.421581 129.108513 
L 129.426732 129.178773 
L 129.503982 128.757212 
L 129.511707 128.827472 
L 129.668783 128.05461 
L 129.673934 128.08974 
L 129.676509 128.12487 
L 129.748609 127.703309 
L 129.756334 127.738439 
L 129.90311 127.176357 
L 129.905685 127.211487 
L 129.934011 127.106097 
L 130.106537 126.192714 
L 130.109112 126.227844 
L 130.137437 126.122454 
L 130.266188 125.630632 
L 130.438715 124.787509 
L 130.479915 124.717249 
L 130.618966 123.874126 
L 130.629266 123.979517 
L 130.709092 123.593086 
L 130.711667 123.628216 
L 130.879043 122.855353 
L 130.891919 122.749963 
L 130.915094 122.785093 
L 131.04127 122.223011 
L 131.06187 122.117621 
L 131.254997 120.958327 
L 131.270447 120.993457 
L 131.339972 120.712416 
L 131.350272 120.747546 
L 131.563999 119.342342 
L 131.569149 119.377472 
L 131.638675 118.85052 
L 131.6567 118.74513 
L 131.785451 118.007398 
L 131.934802 116.883234 
L 131.942527 116.918364 
L 131.994028 116.180632 
L 131.999178 116.145502 
L 132.161404 113.299963 
L 132.218054 109.014089 
L 132.23608 70.968178 
L 132.25668 15.567993 
L 132.33908 117.866877 
L 132.467831 130.373197 
L 132.470406 130.267807 
L 132.583707 130.513717 
L 132.586282 130.443457 
L 132.774259 130.408327 
L 132.884985 130.092156 
L 132.890135 130.162416 
L 133.049786 129.494944 
L 133.078111 129.389554 
L 133.237763 128.722082 
L 133.255788 128.616691 
L 133.268663 128.651822 
L 133.428314 127.773569 
L 133.464365 127.703309 
L 133.611141 126.719665 
L 133.613716 126.754796 
L 133.688391 126.333234 
L 133.690967 126.333234 
L 133.824868 125.595502 
L 133.827443 125.665762 
L 133.907268 125.06855 
L 133.914993 125.10368 
L 134.041169 124.471338 
L 134.218846 123.487695 
L 134.221421 123.522825 
L 134.239446 123.417435 
L 134.370772 122.539182 
L 134.381072 122.574312 
L 134.435148 122.152751 
L 134.445448 122.152751 
L 134.558749 121.625799 
L 134.563899 121.660929 
L 134.7802 120.220595 
L 134.808526 120.115204 
L 134.986202 119.166691 
L 134.988777 119.201822 
L 135.050578 118.534349 
L 135.073753 118.428959 
L 135.377605 115.723941 
L 135.382755 115.829331 
L 135.457431 115.161859 
L 135.465156 115.161859 
L 135.732958 105.887509 
L 135.769009 17.640669 
L 135.841109 106.906283 
L 135.97501 128.862602 
L 136.078011 129.143643 
L 136.103761 129.108513 
L 136.219637 129.178773 
L 136.222212 129.249033 
L 136.302038 128.967993 
L 136.322638 128.967993 
L 136.338088 129.003123 
L 136.453964 128.686952 
L 136.461689 128.722082 
L 136.531215 128.335651 
L 136.53894 128.405911 
L 136.672841 127.738439 
L 136.693441 127.633048 
L 136.855667 126.895316 
L 136.858243 126.930446 
L 136.922618 126.508885 
L 136.938068 126.508885 
L 136.945793 126.544015 
L 137.12347 125.454981 
L 137.12862 125.490112 
L 137.20072 125.06855 
L 137.208445 125.10368 
L 137.229046 125.03342 
L 137.375822 124.049777 
L 137.398997 123.944387 
L 137.594699 122.714833 
L 137.599849 122.785093 
L 137.656499 122.223011 
L 137.687399 122.258141 
L 137.702849 122.152751 
L 137.890826 121.063717 
L 137.906276 121.098848 
L 137.962927 120.677286 
L 137.973227 120.712416 
L 138.127728 119.482862 
L 138.132878 119.517993 
L 138.199829 118.955911 
L 138.202404 118.991041 
L 138.356905 117.761487 
L 138.35948 117.796617 
L 138.42643 117.199405 
L 138.812684 113.335093 
L 138.817834 113.370223 
L 138.825559 113.299963 
L 139.03156 105.465948 
L 139.052161 66.998476 
L 139.072761 18.835093 
L 139.152586 113.510743 
L 139.260737 127.878959 
L 139.286487 127.843829 
L 139.301938 127.738439 
L 139.356013 127.984349 
L 139.394638 127.878959 
L 139.513089 128.16 
L 139.634115 127.843829 
L 139.685616 127.738439 
L 139.816942 127.316877 
L 139.701066 127.808699 
L 139.819517 127.352007 
L 139.827242 127.422268 
L 139.912218 126.930446 
L 140.089894 125.946803 
L 140.092469 126.017063 
L 140.172295 125.454981 
L 140.182595 125.454981 
L 140.321646 124.682119 
L 140.329371 124.717249 
L 140.396322 124.225428 
L 140.401472 124.260558 
L 140.615198 122.785093 
L 140.622923 122.855353 
L 140.705324 122.363532 
L 140.707899 122.363532 
L 140.8418 121.239368 
L 140.844375 121.344758 
L 140.934501 120.642156 
L 141.089002 119.447732 
L 141.130203 119.342342 
L 141.418605 116.918364 
L 141.428905 116.812974 
L 141.938759 108.452007 
L 141.977385 99.599219 
L 142.01086 20.240297 
L 142.08296 104.060743 
L 142.216862 126.825056 
L 142.345613 127.070967 
L 142.366213 127.176357 
L 142.458913 127.000706 
L 142.546464 126.895316 
L 142.685515 126.333234 
L 142.69324 126.403494 
L 142.708691 126.333234 
L 142.845167 125.490112 
L 142.847742 125.525242 
L 142.878642 125.454981 
L 143.017693 124.541599 
L 143.020268 124.611859 
L 143.21082 123.522825 
L 143.21597 123.557955 
L 143.28292 123.066134 
L 143.28807 123.066134 
L 143.313821 122.960743 
L 143.512097 121.485279 
L 143.527547 121.555539 
L 143.542997 121.450149 
L 143.795349 119.517993 
L 143.818525 119.447732 
L 143.967876 118.393829 
L 143.978176 118.288439 
L 144.233103 116.321152 
L 144.243403 116.215762 
L 144.42623 114.248476 
L 144.727507 108.662788 
L 144.789308 102.339368 
L 144.830508 21.786022 
L 144.897459 100.055911 
L 145.03136 125.209071 
L 145.131785 125.384721 
L 145.03651 125.173941 
L 145.152386 125.349591 
L 145.162686 125.314461 
L 145.214186 125.490112 
L 145.252811 125.454981 
L 145.273412 125.490112 
L 145.345512 125.209071 
L 145.394438 125.10368 
L 145.528339 124.471338 
L 145.554089 124.365948 
L 145.742065 123.312045 
L 145.767816 123.206654 
L 145.986692 121.73119 
L 145.996993 121.660929 
L 146.138619 120.747546 
L 146.141194 120.817807 
L 146.221019 120.185465 
L 146.226169 120.185465 
L 146.460496 118.323569 
L 146.465646 118.393829 
L 146.468221 118.428959 
L 146.537747 117.866877 
L 146.854475 115.021338 
L 146.85705 115.056468 
L 146.92915 114.564647 
L 146.931725 114.564647 
L 147.297378 108.100706 
L 147.361754 101.671896 
L 147.395229 29.760558 
L 147.405529 23.156097 
L 147.46218 85.231004 
L 147.601231 123.768736 
L 147.727407 123.874126 
L 147.768607 124.084907 
L 147.843283 123.944387 
L 147.943709 123.838996 
L 148.080185 123.312045 
L 148.085335 123.347175 
L 148.090485 123.452565 
L 148.18061 123.031004 
L 148.185761 123.066134 
L 148.188336 123.101264 
L 148.260436 122.609442 
L 148.263011 122.644572 
L 148.476738 121.239368 
L 148.499913 121.133978 
L 148.505063 121.204238 
L 148.695615 119.939554 
L 148.705915 119.974684 
L 148.75999 119.377472 
L 148.906766 118.218178 
L 148.911916 118.253309 
L 149.190019 115.969851 
L 149.197744 115.864461 
L 149.882699 105.149777 
L 149.9342 93.205539 
L 149.97025 24.947732 
L 150.037201 97.596803 
L 150.171102 121.87171 
L 150.199427 121.80145 
L 150.266378 122.01223 
L 150.274103 121.94197 
L 150.395129 122.398662 
L 150.397704 122.328401 
L 150.51873 122.117621 
L 150.431179 122.433792 
L 150.521305 122.152751 
L 150.541905 122.047361 
L 150.698981 121.415019 
L 150.745332 121.309628 
L 150.879233 120.642156 
L 150.907558 120.536766 
L 151.105834 119.342342 
L 151.10841 119.377472 
L 151.18051 118.885651 
L 151.183085 118.920781 
L 151.471487 116.496803 
L 151.489513 116.391413 
L 151.79594 113.721524 
L 151.81139 113.616134 
L 151.973617 112.175799 
L 151.989067 112.105539 
L 152.161593 110.384164 
L 152.169318 110.313903 
L 152.486046 93.697361 
L 152.527246 27.617621 
L 152.591622 93.205539 
L 152.728098 120.150335 
L 152.771873 120.255725 
L 152.916074 120.712416 
L 152.983025 120.817807 
L 153.044825 120.923197 
L 153.088601 120.747546 
L 153.091176 120.782677 
L 153.222502 120.466506 
L 153.232802 120.536766 
L 153.307478 120.150335 
L 153.312628 120.185465 
L 153.490304 119.272082 
L 153.521204 119.166691 
L 153.724631 117.726357 
L 153.734931 117.761487 
L 153.737506 117.796617 
L 153.807032 117.269665 
L 153.951233 116.321152 
L 153.974408 116.250892 
L 154.131484 114.915948 
L 154.141784 114.951078 
L 154.203585 114.388996 
L 154.20616 114.424126 
L 154.520313 111.578587 
L 154.522888 111.613717 
L 154.528038 111.543457 
L 154.700564 109.716691 
L 154.703139 109.751822 
L 154.716014 109.646431 
L 155.091967 96.78881 
L 155.122867 61.026357 
L 155.143468 29.303866 
L 155.218143 100.442342 
L 155.354619 118.499219 
L 155.521996 119.272082 
L 155.527146 119.201822 
L 155.586371 119.412602 
L 155.630147 119.272082 
L 155.681647 119.377472 
L 155.727997 119.201822 
L 155.738298 119.272082 
L 155.846448 118.885651 
L 155.769198 119.307212 
L 155.861899 118.920781 
L 155.885074 118.81539 
L 156.018975 118.183048 
L 156.039575 118.077658 
L 156.243002 116.812974 
L 156.245577 116.848104 
L 156.317677 116.426543 
L 156.325402 116.461673 
L 156.546854 114.951078 
L 156.557154 114.845688 
L 156.770881 113.370223 
L 156.773456 113.405353 
L 156.786331 113.299963 
L 157.548537 101.496245 
L 157.612913 90.50052 
L 157.654113 31.657584 
L 157.721064 91.940855 
L 157.860115 116.637323 
L 157.988866 117.375056 
L 158.130492 117.831747 
L 158.248943 117.585836 
L 158.274693 117.480446 
L 158.321044 117.515576 
L 158.418895 117.023755 
L 158.42662 117.058885 
L 158.50387 116.742714 
L 158.506445 116.742714 
L 158.650646 115.829331 
L 158.671247 115.759071 
L 158.818023 114.740297 
L 158.830898 114.634907 
L 159.016299 113.581004 
L 159.0266 113.616134 
L 159.08325 113.124312 
L 159.09355 113.124312 
L 159.116725 113.018922 
L 159.405128 110.594944 
L 159.410278 110.630074 
L 159.482378 110.138253 
L 159.495253 110.173383 
L 159.737305 108.170967 
L 159.742455 108.100706 
L 159.966482 104.833606 
L 159.969057 104.868736 
L 159.971632 104.903866 
L 160.020558 104.060743 
L 160.211109 91.905725 
L 160.254885 37.664833 
L 160.26261 34.151822 
L 160.311535 72.830074 
L 160.463461 114.529517 
L 160.476336 114.494387 
L 160.540712 114.986208 
L 160.543287 114.915948 
L 160.684913 115.829331 
L 160.690063 115.759071 
L 160.775039 116.075242 
L 160.782764 116.004981 
L 160.88834 116.075242 
L 160.87289 115.934721 
L 160.89349 116.004981 
L 160.993916 115.759071 
L 161.019666 115.794201 
L 161.060866 115.68881 
L 161.243693 114.705167 
L 161.274593 114.599777 
L 161.403344 113.967435 
L 161.405919 114.002565 
L 161.408494 114.037695 
L 161.470295 113.510743 
L 161.47802 113.510743 
L 161.702046 111.929888 
L 161.704622 112.000149 
L 161.776722 111.192156 
L 161.787022 111.262416 
L 162.008474 109.751822 
L 162.018774 109.716691 
L 162.147525 108.662788 
L 162.526053 104.974126 
L 162.531203 105.009257 
L 162.585279 104.271524 
L 162.608454 104.166134 
L 162.76553 100.582862 
L 162.883981 85.863346 
L 162.927757 37.278401 
L 162.989557 86.003866 
L 163.115733 111.508327 
L 163.133758 111.402937 
L 163.280534 112.45684 
L 163.283109 112.42171 
L 163.37066 112.737881 
L 163.383535 112.808141 
L 163.507136 113.229703 
L 163.540612 113.159442 
L 163.563787 113.335093 
L 163.612712 113.264833 
L 163.615287 113.299963 
L 163.695113 112.948662 
L 163.697688 112.948662 
L 163.777514 112.702751 
L 163.718288 112.983792 
L 163.821289 112.737881 
L 163.829014 112.843271 
L 163.906265 112.45684 
L 163.91914 112.49197 
L 164.053041 111.824498 
L 164.068491 111.719108 
L 164.248742 110.735465 
L 164.251317 110.770595 
L 164.320843 110.243643 
L 164.323418 110.278773 
L 164.452169 109.18974 
L 164.454744 109.26 
L 164.542295 108.697918 
L 164.54487 108.697918 
L 164.61697 108.592528 
L 164.758597 107.714275 
L 164.761172 107.749405 
L 164.817822 107.117063 
L 164.822972 107.117063 
L 165.322526 98.791227 
L 165.451277 86.038996 
L 165.502778 40.580632 
L 165.564578 84.528401 
L 165.698479 108.978959 
L 165.706204 108.943829 
L 165.711354 108.908699 
L 165.783455 109.36539 
L 165.788605 109.29513 
L 165.922506 110.349033 
L 165.925081 110.278773 
L 166.012632 110.911115 
L 166.079582 111.157026 
L 166.025507 110.875985 
L 166.133658 111.051636 
L 166.192883 111.157026 
L 166.195458 111.227286 
L 166.270134 110.981375 
L 166.295884 111.051636 
L 166.308759 111.086766 
L 166.419485 110.700335 
L 166.530211 110.524684 
L 166.42721 110.735465 
L 166.540511 110.559814 
L 166.573986 110.454424 
L 166.702738 109.681561 
L 166.738788 109.611301 
L 166.885564 108.592528 
L 166.901014 108.522268 
L 167.03234 107.749405 
L 167.03749 107.784535 
L 167.04779 107.714275 
L 167.184266 106.906283 
L 167.186842 106.976543 
L 167.269242 106.344201 
L 167.271817 106.344201 
L 167.480394 104.798476 
L 167.490694 104.868736 
L 167.500994 104.798476 
L 167.645195 103.814833 
L 167.64777 103.849963 
L 167.706996 103.182491 
L 167.709571 103.182491 
L 168.20655 94.891784 
L 168.309551 81.120781 
L 168.358476 46.833792 
L 168.417702 81.577472 
L 168.561903 104.376914 
L 168.626278 104.201264 
L 168.664904 104.482305 
L 168.667479 104.447175 
L 168.693229 104.482305 
L 168.82198 105.255167 
L 168.971331 106.09829 
L 168.989356 106.02803 
L 169.100082 106.13342 
L 169.218533 106.309071 
L 169.282909 105.9929 
L 169.331834 106.13342 
L 169.352434 106.20368 
L 169.360159 106.273941 
L 169.450285 105.852379 
L 169.470885 105.95777 
L 169.542986 105.782119 
L 169.555861 105.782119 
L 169.697487 105.711859 
L 169.818513 104.868736 
L 169.836538 104.938996 
L 169.975589 104.552565 
L 169.978164 104.587695 
L 170.029665 104.306654 
L 170.065715 104.306654 
L 170.202191 103.604052 
L 170.227941 103.709442 
L 170.230517 103.779703 
L 170.330942 103.498662 
L 170.464843 102.690669 
L 170.467418 102.760929 
L 170.472568 102.690669 
L 170.62192 101.636766 
L 170.629645 101.531375 
L 170.809896 99.634349 
L 170.825346 99.528959 
L 171.301725 91.519294 
L 171.399576 85.828216 
L 171.487127 61.483048 
L 171.505152 58.81316 
L 171.554077 73.673197 
L 171.690553 97.140112 
L 171.716304 97.034721 
L 171.736904 96.929331 
L 171.89398 93.275799 
L 172.313709 80.523569 
L 172.378084 80.87487 
L 172.329159 80.383048 
L 172.419284 80.523569 
L 172.44246 80.242528 
L 172.50941 81.085651 
L 172.576361 83.474498 
L 172.810688 90.21948 
L 172.895663 92.889368 
L 173.400368 103.639182 
L 173.791771 107.468364 
L 173.807221 107.538625 
L 173.946272 108.311487 
L 174.005498 108.381747 
L 174.126523 108.733048 
L 174.183174 108.557398 
L 174.242399 108.592528 
L 174.301625 108.908699 
L 174.368575 108.803309 
L 174.407201 108.733048 
L 174.520502 108.487138 
L 174.523077 108.522268 
L 174.608052 108.452007 
L 174.736804 107.925056 
L 174.757404 107.960186 
L 174.816629 107.749405 
L 174.842379 107.854796 
L 174.850104 107.889926 
L 174.994306 107.292714 
L 175.007181 107.187323 
L 175.146232 106.344201 
L 175.156532 106.484721 
L 175.246658 106.09829 
L 175.249233 106.13342 
L 175.259533 106.02803 
L 175.401159 105.149777 
L 175.470685 105.044387 
L 175.594286 104.306654 
L 175.604586 104.412045 
L 175.614886 104.412045 
L 175.733337 103.744572 
L 175.735912 103.779703 
L 175.766812 103.709442 
L 175.908438 102.83119 
L 175.916163 102.725799 
L 176.137615 101.180074 
L 176.14019 101.250335 
L 176.19169 100.758513 
L 176.232891 100.758513 
L 176.353917 100.161301 
L 176.261216 100.828773 
L 176.379667 100.196431 
L 176.389967 100.336952 
L 176.474943 99.81 
L 176.477518 99.84513 
L 176.598544 99.107398 
L 176.613994 99.142528 
L 176.621719 99.072268 
L 176.742745 98.334535 
L 176.753045 98.439926 
L 176.768495 98.580446 
L 176.817421 97.807584 
L 176.889521 97.737323 
L 176.977072 96.894201 
L 177.025997 96.964461 
L 177.041447 97.140112 
L 177.098098 96.5429 
L 177.121273 96.57803 
L 177.149598 96.472639 
L 177.293799 95.524126 
L 177.34015 95.418736 
L 177.481776 94.821524 
L 177.358175 95.559257 
L 177.489501 94.856654 
L 177.494651 94.962045 
L 177.584777 94.540483 
L 177.587352 94.575613 
L 177.811379 93.029888 
L 177.821679 93.135279 
L 177.896354 92.678587 
L 177.911805 92.678587 
L 177.932405 92.573197 
L 178.200207 90.39513 
L 178.228532 90.46539 
L 178.285183 90.078959 
L 178.287758 90.114089 
L 178.413934 89.481747 
L 178.331533 90.149219 
L 178.419084 89.516877 
L 178.480884 89.411487 
L 178.62251 88.533234 
L 178.486034 89.446617 
L 178.645686 88.638625 
L 178.650836 88.673755 
L 178.704911 88.217063 
L 178.735811 88.392714 
L 178.758987 88.217063 
L 178.825937 88.814275 
L 178.831087 88.779145 
L 178.967563 89.833048 
L 179.052539 90.32487 
L 179.088589 90.149219 
L 179.098889 90.043829 
L 179.178715 90.605911 
L 179.183865 90.570781 
L 179.21734 90.676171 
L 179.304891 91.273383 
L 179.338366 91.167993 
L 179.348666 91.273383 
L 179.495443 92.397546 
L 179.498018 92.362416 
L 179.534068 92.467807 
L 179.541793 92.397546 
L 179.696294 93.170409 
L 179.711744 93.100149 
L 179.76582 93.59197 
L 179.77612 93.59197 
L 179.994997 95.207955 
L 180.000147 95.137695 
L 180.010447 95.102565 
L 180.059372 95.699777 
L 180.064522 95.699777 
L 180.190698 96.367249 
L 180.195848 96.296989 
L 180.219024 96.402379 
L 180.3555 97.245502 
L 180.358075 97.175242 
L 180.3658 97.104981 
L 180.450775 97.421152 
L 180.579526 97.912974 
L 180.582101 97.877844 
L 180.669652 98.194015 
L 180.672227 98.158885 
L 180.723728 98.264275 
L 180.795828 98.580446 
L 180.734028 98.229145 
L 180.855054 98.545316 
L 180.857629 98.510186 
L 180.945179 98.826357 
L 181.084231 99.247918 
L 181.094531 99.142528 
L 181.146031 99.423569 
L 181.194957 99.212788 
L 181.218132 99.283048 
L 181.339158 99.634349 
L 181.359758 99.423569 
L 181.452459 99.528959 
L 181.547734 99.91539 
L 181.467909 99.458699 
L 181.578635 99.81 
L 181.686786 99.458699 
L 181.694511 99.493829 
L 181.707386 99.564089 
L 181.779486 99.177658 
L 181.782061 99.177658 
L 181.794936 99.107398 
L 181.915962 98.826357 
L 181.995788 99.002007 
L 182.011238 98.791227 
L 182.024113 98.791227 
L 182.060164 98.896617 
L 182.106514 99.212788 
L 182.188915 99.142528 
L 182.224965 99.037138 
L 182.245565 99.283048 
L 182.299641 99.142528 
L 182.348566 99.212788 
L 182.382041 99.037138 
L 182.407791 99.072268 
L 182.415517 99.107398 
L 182.564868 98.369665 
L 182.644693 98.545316 
L 182.570018 98.334535 
L 182.680744 98.510186 
L 182.693619 98.580446 
L 182.757994 98.229145 
L 182.77602 98.299405 
L 182.80177 98.194015 
L 182.933096 97.842714 
L 182.935671 97.877844 
L 182.958846 97.842714 
L 183.077297 97.386022 
L 183.079872 97.421152 
L 183.087597 97.491413 
L 183.151973 97.034721 
L 183.175148 97.069851 
L 183.309049 96.75368 
L 183.329649 96.823941 
L 183.375999 96.61316 
L 183.414625 96.71855 
L 183.612901 95.524126 
L 183.641227 95.418736 
L 183.849803 94.083792 
L 183.854953 94.013532 
L 183.999155 93.100149 
L 184.06353 93.065019 
L 184.189706 92.081375 
L 184.194856 92.151636 
L 184.215456 92.046245 
L 184.308157 91.589554 
L 184.331332 91.730074 
L 184.344207 91.659814 
L 184.467808 90.746431 
L 184.362233 91.730074 
L 184.483259 90.886952 
L 184.501284 90.781561 
L 184.62746 110.630074 
L 184.864362 121.028587 
L 185.27379 129.178773 
L 185.639443 132.656654 
L 185.654893 132.762045 
L 185.806819 133.886208 
L 185.819694 133.956468 
L 185.963896 134.904981 
L 185.979346 135.010372 
L 186.118397 135.818364 
L 186.138997 135.888625 
L 186.278048 136.661487 
L 186.311524 136.731747 
L 186.445425 137.364089 
L 186.47375 137.46948 
L 186.612801 137.996431 
L 186.617951 137.961301 
L 186.620526 137.926171 
L 186.692627 138.242342 
L 186.708077 138.242342 
L 186.733827 138.347732 
L 186.875453 138.769294 
L 186.878028 138.734164 
L 186.970729 138.980074 
L 187.001629 139.085465 
L 187.127805 139.471896 
L 187.019654 139.050335 
L 187.13553 139.436766 
L 187.143255 139.401636 
L 187.225656 139.682677 
L 187.228231 139.682677 
L 187.266856 139.788067 
L 187.393032 140.033978 
L 187.400757 139.963717 
L 187.465133 140.174498 
L 187.496033 140.139368 
L 187.619634 140.490669 
L 187.650535 140.420409 
L 187.712335 140.63119 
L 187.722635 140.596059 
L 187.727785 140.560929 
L 187.851386 140.84197 
L 187.977562 140.947361 
L 187.982712 140.91223 
L 188.101163 141.123011 
L 188.183564 141.193271 
L 188.29429 141.333792 
L 188.193864 141.158141 
L 188.296865 141.298662 
L 188.37669 141.404052 
L 188.495141 141.614833 
L 188.384416 141.368922 
L 188.500292 141.579703 
L 188.567242 141.544572 
L 188.598142 141.685093 
L 188.608442 141.614833 
L 188.706293 141.825613 
L 188.724318 141.790483 
L 188.819594 141.755353 
L 188.768094 141.860743 
L 188.827319 141.825613 
L 188.832469 141.790483 
L 188.94062 141.931004 
L 189.352624 142.036394 
L 189.458199 142.071524 
L 189.386099 141.931004 
L 189.463349 142.036394 
L 189.481375 141.931004 
L 189.4891 142.071524 
L 189.5715 142.036394 
L 189.692526 142.176914 
L 189.787802 142.106654 
L 189.728577 142.212045 
L 189.803252 142.176914 
L 189.877928 142.247175 
L 189.919128 142.106654 
L 190.501083 142.176914 
L 190.568033 142.247175 
L 190.550008 142.106654 
L 190.609234 142.212045 
L 190.72511 142.001264 
L 190.75086 141.966134 
L 190.843561 142.106654 
L 190.941412 141.931004 
L 190.882186 142.141784 
L 190.964587 141.966134 
L 190.980037 142.036394 
L 191.026387 141.895874 
L 191.072738 142.001264 
L 191.126813 141.860743 
L 191.147413 142.036394 
L 191.186039 141.931004 
L 191.464141 142.001264 
L 191.543966 142.071524 
L 191.469291 141.895874 
L 191.572292 142.001264 
L 191.659842 141.825613 
L 191.688168 141.895874 
L 191.791169 142.036394 
L 191.804044 141.966134 
L 192.347373 141.860743 
L 192.434924 141.825613 
L 192.383423 141.966134 
L 192.452949 141.931004 
L 192.494149 141.966134 
L 192.478699 141.825613 
L 192.5611 141.895874 
L 192.947353 142.001264 
L 192.949928 142.036394 
L 192.991128 141.860743 
L 193.052929 141.931004 
L 193.614283 141.860743 
L 193.616859 141.790483 
L 193.627159 141.931004 
L 193.719859 141.931004 
L 193.727584 142.036394 
L 193.748185 141.895874 
L 193.830585 141.966134 
L 193.851185 141.895874 
L 193.912986 142.071524 
L 193.936161 142.001264 
L 194.008262 142.071524 
L 193.941311 141.966134 
L 194.046887 142.036394 
L 194.062337 141.895874 
L 194.090662 142.071524 
L 194.160188 141.966134 
L 194.250314 142.071524 
L 194.167913 141.931004 
L 194.268339 142.001264 
L 194.35589 141.931004 
L 194.278639 142.036394 
L 194.379065 142.001264 
L 194.489791 142.106654 
L 194.39709 141.966134 
L 194.492366 142.071524 
L 194.883769 142.141784 
L 194.886344 142.212045 
L 194.930119 142.036394 
L 194.99192 142.176914 
L 195.06917 142.071524 
L 195.035695 142.212045 
L 195.102646 142.141784 
L 195.141271 142.212045 
L 195.182471 142.071524 
L 195.210797 142.106654 
L 195.437398 142.212045 
L 195.532674 142.317435 
L 195.473449 142.141784 
L 195.550699 142.247175 
L 195.785026 142.176914 
L 195.787601 142.106654 
L 195.797901 142.247175 
L 195.893177 142.212045 
L 195.911202 142.282305 
L 195.947253 142.141784 
L 196.006478 142.247175 
L 196.117204 142.141784 
L 196.070854 142.282305 
L 196.119779 142.212045 
L 196.410756 142.176914 
L 196.413331 142.071524 
L 196.423632 142.212045 
L 196.521482 142.141784 
L 196.712034 142.247175 
L 196.815035 142.282305 
L 196.766109 142.141784 
L 196.81761 142.247175 
L 196.905161 142.282305 
L 196.930911 142.176914 
L 196.959236 142.247175 
L 197.021036 142.036394 
L 197.033912 142.106654 
L 197.103437 141.966134 
L 197.144637 142.036394 
L 197.147212 142.141784 
L 197.224463 141.966134 
L 197.252788 141.966134 
L 197.41759 142.071524 
L 197.420165 142.106654 
L 197.430465 141.966134 
L 197.528316 142.071524 
L 197.662217 142.106654 
L 197.687967 142.071524 
L 197.772943 142.212045 
L 197.811568 142.106654 
L 197.883669 142.176914 
L 197.930019 142.247175 
L 197.896544 142.141784 
L 197.991819 142.176914 
L 198.076795 142.141784 
L 198.05877 142.282305 
L 198.102545 142.176914 
L 198.354897 142.071524 
L 198.357472 142.001264 
L 198.398673 142.176914 
L 198.463048 142.106654 
L 198.535149 142.036394 
L 198.6433 141.966134 
L 198.553174 142.141784 
L 198.645875 142.001264 
L 198.777201 142.106654 
L 198.882777 142.141784 
L 198.805526 142.036394 
L 198.885352 142.071524 
L 199.212379 141.966134 
L 199.214954 141.895874 
L 199.23298 142.071524 
L 199.323105 141.966134 
L 199.405506 142.071524 
L 199.379756 141.931004 
L 199.438981 142.036394 
L 199.544557 141.966134 
L 199.457006 142.071524 
L 199.549707 142.001264 
L 199.657858 142.106654 
L 199.575457 141.966134 
L 199.663008 142.071524 
L 199.688758 142.106654 
L 199.778884 141.966134 
L 199.802059 142.106654 
L 199.87416 141.931004 
L 199.892185 142.036394 
L 200.121362 142.141784 
L 200.193463 142.176914 
L 200.131662 142.036394 
L 200.232088 142.141784 
L 200.332514 142.001264 
L 200.252688 142.176914 
L 200.342814 142.141784 
L 200.476715 142.212045 
L 200.569416 142.282305 
L 200.48444 142.176914 
L 200.587441 142.247175 
L 201.455223 142.317435 
L 201.457798 142.387695 
L 201.506723 142.212045 
L 201.563374 142.317435 
L 201.6741 142.212045 
L 201.576249 142.352565 
L 201.676675 142.247175 
L 202.505831 142.317435 
L 202.544457 142.387695 
L 202.562482 142.247175 
L 202.616557 142.317435 
L 202.773634 142.247175 
L 202.789084 142.176914 
L 202.863759 142.352565 
L 202.87921 142.317435 
L 202.98221 142.352565 
L 202.91526 142.247175 
L 202.989935 142.317435 
L 203.046586 142.247175 
L 203.002811 142.387695 
L 203.103236 142.282305 
L 203.208812 142.387695 
L 203.110961 142.247175 
L 203.219112 142.352565 
L 203.898918 142.457955 
L 203.958143 142.493086 
L 203.960718 142.352565 
L 204.004494 142.422825 
L 204.09977 142.528216 
L 204.11522 142.387695 
L 204.215646 142.563346 
L 204.231096 142.493086 
L 204.344397 142.352565 
L 204.246546 142.563346 
L 204.346972 142.422825 
L 204.449972 142.493086 
L 204.473148 142.598476 
L 204.488598 142.457955 
L 204.560698 142.493086 
L 204.676574 142.598476 
L 204.733225 142.493086 
L 204.689449 142.633606 
L 204.784725 142.598476 
L 204.815625 142.703866 
L 204.831076 142.528216 
L 204.895451 142.633606 
L 204.954677 142.703866 
L 204.975277 142.563346 
L 205.003602 142.633606 
L 205.137503 142.212045 
L 205.142653 142.247175 
L 205.145228 142.282305 
L 205.222479 141.895874 
L 205.225054 141.931004 
L 205.333205 141.649963 
L 205.338355 141.685093 
L 205.343505 141.755353 
L 205.433631 141.509442 
L 205.441356 141.509442 
L 205.503156 141.439182 
L 205.603582 141.333792 
L 205.510881 141.474312 
L 205.613882 141.368922 
L 205.639632 141.509442 
L 205.624182 141.333792 
L 205.727183 141.439182 
L 205.799284 141.333792 
L 205.752933 141.474312 
L 205.840484 141.404052 
L 205.94606 141.579703 
L 205.95636 141.544572 
L 205.96151 141.509442 
L 206.082536 141.755353 
L 206.085111 141.720223 
L 206.144336 141.895874 
L 206.190687 141.790483 
L 206.340038 141.895874 
L 206.440464 142.036394 
L 206.455914 141.966134 
L 206.636165 142.036394 
L 206.741741 142.141784 
L 206.682516 141.966134 
L 206.746891 142.106654 
L 206.780367 142.036394 
L 206.852467 142.176914 
L 206.855042 142.071524 
L 206.896243 142.212045 
L 206.929718 142.036394 
L 206.965768 142.141784 
L 207.024994 142.071524 
L 206.981218 142.212045 
L 207.076494 142.141784 
L 207.18207 142.282305 
L 207.084219 142.106654 
L 207.19237 142.247175 
L 207.236145 142.176914 
L 207.277346 142.317435 
L 207.300521 142.282305 
L 207.460172 142.387695 
L 207.539998 142.457955 
L 207.475622 142.317435 
L 207.568323 142.387695 
L 207.570898 142.282305 
L 207.653299 142.457955 
L 207.679049 142.387695 
L 207.704799 142.352565 
L 207.77175 142.493086 
L 207.784625 142.457955 
L 208.206928 142.563346 
L 208.248129 142.528216 
L 208.325379 142.668736 
L 208.533956 142.703866 
L 208.608632 142.844387 
L 208.644682 142.738996 
L 208.696182 142.879517 
L 208.660132 142.703866 
L 208.757983 142.774126 
L 209.06956 142.879517 
L 209.087586 142.809257 
L 209.182861 142.914647 
L 209.213762 142.844387 
L 209.265262 142.984907 
L 209.293587 142.879517 
L 209.672115 142.914647 
L 209.682415 143.020037 
L 209.697866 142.879517 
L 209.782841 142.949777 
L 209.826617 142.879517 
L 209.852367 142.984907 
L 209.893567 142.949777 
L 210.20772 142.879517 
L 210.29012 142.809257 
L 210.25407 142.949777 
L 210.315871 142.879517 
L 210.418871 142.914647 
L 210.336471 142.844387 
L 210.424022 142.844387 
L 211.137302 142.949777 
L 211.230003 142.844387 
L 211.242878 143.020037 
L 211.345879 142.879517 
L 211.353604 142.949777 
L 211.436005 143.090297 
L 211.371629 142.879517 
L 211.466905 142.984907 
L 212.077185 142.879517 
L 212.09006 142.844387 
L 212.11581 142.984907 
L 212.182761 142.914647 
L 212.203361 142.984907 
L 212.265162 142.844387 
L 212.293487 142.914647 
L 212.844541 142.844387 
L 212.854841 142.774126 
L 212.890892 142.914647 
L 212.952692 142.879517 
L 214.935459 142.984907 
L 215.046184 143.055167 
L 214.943184 142.879517 
L 215.048759 143.020037 
L 215.223861 143.090297 
L 215.285661 143.195688 
L 215.334587 143.125428 
L 215.744015 143.230818 
L 215.854741 143.301078 
L 215.749165 143.195688 
L 215.857316 143.265948 
L 215.947442 143.230818 
L 215.957742 143.371338 
L 215.965467 143.301078 
L 216.655573 143.406468 
L 216.712223 143.511859 
L 216.676173 143.336208 
L 216.768874 143.441599 
L 217.319928 143.336208 
L 217.361128 143.441599 
L 217.433229 143.265948 
L 217.523355 143.336208 
L 217.51563 143.230818 
L 217.543955 143.301078 
L 217.652106 143.230818 
L 217.649531 143.371338 
L 217.654681 143.301078 
L 217.701031 143.230818 
L 217.747382 143.406468 
L 217.762832 143.336208 
L 218.089859 143.265948 
L 218.092434 143.195688 
L 218.128485 143.371338 
L 218.200585 143.265948 
L 218.460662 143.160558 
L 218.463238 143.090297 
L 218.532763 143.265948 
L 218.568813 143.195688 
L 218.664089 143.301078 
L 218.679539 143.230818 
L 219.302694 143.301078 
L 219.395395 143.371338 
L 219.31557 143.265948 
L 219.410845 143.301078 
L 219.446896 143.265948 
L 219.480371 143.441599 
L 219.511271 143.406468 
L 219.555046 143.336208 
L 219.624572 143.441599 
L 219.876924 143.441599 
L 219.918124 143.301078 
L 219.9619 143.476729 
L 219.98765 143.406468 
L 220.005675 143.511859 
L 220.064901 143.371338 
L 220.098376 143.476729 
L 220.193652 143.406468 
L 220.129276 143.511859 
L 220.206527 143.511859 
L 220.306953 143.546989 
L 220.278627 143.406468 
L 220.314678 143.476729 
L 221.045984 143.406468 
L 221.143835 143.336208 
L 221.084609 143.476729 
L 221.15671 143.406468 
L 221.272586 143.511859 
L 221.378161 143.406468 
L 221.357561 143.546989 
L 221.383311 143.476729 
L 221.488887 143.441599 
L 221.491462 143.336208 
L 221.553263 143.546989 
L 221.599613 143.441599 
L 221.710339 143.511859 
L 221.682014 143.336208 
L 221.712914 143.476729 
L 221.86999 143.371338 
L 221.957541 143.336208 
L 221.888016 143.476729 
L 221.978141 143.371338 
L 222.050242 143.511859 
L 222.088867 143.406468 
L 222.194443 143.371338 
L 222.150668 143.511859 
L 222.197018 143.441599 
L 223.250202 143.371338 
L 223.252777 143.301078 
L 223.273377 143.476729 
L 223.360928 143.371338 
L 223.427878 143.441599 
L 223.474229 143.336208 
L 224.084509 143.441599 
L 224.092234 143.336208 
L 224.19781 143.476729 
L 224.246735 143.301078 
L 224.311111 143.336208 
L 224.424411 143.441599 
L 224.432137 143.265948 
L 224.537712 143.371338 
L 224.766889 143.336208 
L 224.862165 143.230818 
L 224.877615 143.301078 
L 225.166018 143.230818 
L 225.168593 143.160558 
L 225.207218 143.301078 
L 225.274168 143.265948 
L 225.578021 143.371338 
L 225.580596 143.406468 
L 225.634671 143.265948 
L 225.686172 143.336208 
L 226.63378 143.441599 
L 226.70073 143.511859 
L 226.667255 143.371338 
L 226.747081 143.476729 
L 227.256935 143.371338 
L 227.362511 143.301078 
L 227.318735 143.476729 
L 227.367661 143.371338 
L 227.470661 143.441599 
L 227.447486 143.336208 
L 227.478387 143.406468 
L 227.532462 143.336208 
L 227.535037 143.265948 
L 227.609713 143.476729 
L 227.638038 143.406468 
L 227.686963 143.336208 
L 227.748764 143.441599 
L 227.856915 143.336208 
L 227.828589 143.476729 
L 227.862065 143.406468 
L 228.639721 143.336208 
L 228.650021 143.265948 
L 228.732422 143.476729 
L 228.747872 143.406468 
L 228.902373 143.476729 
L 228.966749 143.546989 
L 228.930698 143.371338 
L 229.013099 143.476729 
L 229.404502 143.371338 
L 229.412227 143.441599 
L 229.520378 143.301078 
L 229.698055 143.230818 
L 229.713505 143.125428 
L 229.770155 143.301078 
L 229.808781 143.195688 
L 230.195034 143.160558 
L 230.236234 143.055167 
L 230.256834 143.230818 
L 230.30576 143.125428 
L 230.370135 143.195688 
L 230.406186 143.055167 
L 230.416486 143.125428 
L 230.529787 143.195688 
L 230.537512 143.265948 
L 230.568412 143.090297 
L 230.637937 143.160558 
L 230.712613 143.265948 
L 230.715188 143.301078 
L 230.769264 143.160558 
L 230.820764 143.230818 
L 230.864539 143.125428 
L 230.843939 143.265948 
L 230.93149 143.195688 
L 231.026766 143.265948 
L 230.959815 143.125428 
L 231.044791 143.230818 
L 231.067966 143.125428 
L 231.152942 143.195688 
L 231.266243 143.301078 
L 232.144325 143.406468 
L 232.200975 143.301078 
L 232.252476 143.441599 
L 232.355477 143.336208 
L 232.337451 143.476729 
L 232.365777 143.371338 
L 232.391527 143.441599 
L 232.476503 143.336208 
L 232.587228 143.476729 
L 232.589803 143.441599 
L 233.102233 143.511859 
L 233.140858 143.406468 
L 233.212959 143.617249 
L 233.328835 143.441599 
L 233.493636 143.476729 
L 233.496211 143.617249 
L 233.604362 143.476729 
L 233.609512 143.441599 
L 233.720238 143.546989 
L 234.845522 143.476729 
L 234.848097 143.406468 
L 234.853247 143.511859 
L 234.956248 143.476729 
L 235.267825 143.441599 
L 235.345076 143.301078 
L 235.280701 143.511859 
L 235.378551 143.371338 
L 235.486702 143.265948 
L 235.494427 143.336208 
L 235.605153 143.160558 
L 235.883256 143.090297 
L 235.888406 143.020037 
L 235.957931 143.160558 
L 235.991406 143.125428 
L 236.035182 143.090297 
L 236.107282 143.195688 
L 236.534736 143.265948 
L 236.560486 143.230818 
L 236.645462 143.371338 
L 236.694387 143.441599 
L 236.758763 143.301078 
L 236.766488 143.371338 
L 236.769063 143.441599 
L 236.797388 143.265948 
L 236.872064 143.265948 
L 236.933864 143.336208 
L 236.97764 143.265948 
L 237.04459 143.406468 
L 237.083215 143.265948 
L 237.160466 143.336208 
L 237.402518 143.441599 
L 237.495219 143.511859 
L 237.428268 143.336208 
L 237.513244 143.441599 
L 238.272875 143.546989 
L 238.370726 143.582119 
L 238.314075 143.441599 
L 238.381026 143.511859 
L 238.857405 143.582119 
L 238.957831 143.687509 
L 238.932081 143.546989 
L 238.970706 143.652379 
L 239.009331 143.687509 
L 239.084007 143.582119 
L 239.096882 143.546989 
L 239.112332 143.687509 
L 239.189583 143.617249 
L 239.199883 143.582119 
L 239.305459 143.687509 
L 239.42391 143.582119 
L 239.436785 143.546989 
L 239.539786 143.687509 
L 239.650511 143.546989 
L 239.653086 143.582119 
L 239.735487 143.652379 
L 239.671112 143.511859 
L 239.763812 143.617249 
L 239.841063 143.511859 
L 239.779263 143.652379 
L 239.877113 143.582119 
L 240.629019 143.476729 
L 240.683095 143.371338 
L 240.72172 143.511859 
L 240.74232 143.441599 
L 241.218699 143.546989 
L 241.221274 143.582119 
L 241.252175 143.406468 
L 241.32685 143.511859 
L 241.401526 143.546989 
L 241.445301 143.406468 
L 241.538002 143.546989 
L 241.561177 143.476729 
L 241.736279 143.406468 
L 241.772329 143.336208 
L 241.780054 143.476729 
L 241.844429 143.371338 
L 241.94743 143.441599 
L 241.872755 143.336208 
L 241.955155 143.406468 
L 242.248708 143.301078 
L 242.313083 143.195688 
L 242.271883 143.371338 
L 242.359434 143.301078 
L 242.45986 143.371338 
L 242.377459 143.230818 
L 242.467585 143.265948 
L 242.55256 143.336208 
L 242.555135 143.406468 
L 242.624661 143.230818 
L 242.663286 143.336208 
L 242.704487 143.265948 
L 242.707062 143.195688 
L 242.732812 143.336208 
L 242.812637 143.301078 
L 243.371417 143.195688 
L 243.373992 143.160558 
L 243.410042 143.301078 
L 243.476993 143.265948 
L 244.197999 143.371338 
L 244.282974 143.476729 
L 244.205724 143.301078 
L 244.308725 143.371338 
L 244.409151 143.336208 
L 244.34735 143.476729 
L 244.414301 143.441599 
L 244.679528 143.371338 
L 244.710428 143.301078 
L 244.736178 143.441599 
L 244.790254 143.371338 
L 244.880379 143.406468 
L 244.818579 143.301078 
L 244.898405 143.371338 
L 245.006555 143.301078 
L 244.94733 143.406468 
L 245.00913 143.336208 
L 245.052906 143.406468 
L 245.055481 143.511859 
L 245.086381 143.336208 
L 245.161057 143.406468 
L 245.186807 143.301078 
L 245.228007 143.441599 
L 245.271783 143.406468 
L 245.328433 143.371338 
L 245.385084 143.476729 
L 245.503535 143.336208 
L 245.513835 143.476729 
L 245.61426 143.336208 
L 245.681211 143.441599 
L 245.632286 143.301078 
L 245.727561 143.406468 
L 245.794512 143.336208 
L 245.740436 143.476729 
L 245.838287 143.406468 
L 245.897513 143.441599 
L 245.853737 143.336208 
L 245.943863 143.371338 
L 246.018539 143.265948 
L 245.985063 143.406468 
L 246.057164 143.336208 
L 246.16274 143.441599 
L 246.095789 143.301078 
L 246.16789 143.371338 
L 246.873446 143.265948 
L 246.979022 143.230818 
L 246.932671 143.406468 
L 246.984172 143.265948 
L 247.092323 143.371338 
L 247.097473 143.336208 
L 247.205623 143.230818 
L 247.123223 143.371338 
L 247.208199 143.301078 
L 247.308624 143.336208 
L 247.254549 143.230818 
L 247.316349 143.265948 
L 247.496601 143.371338 
L 247.532651 143.265948 
L 247.604752 143.406468 
L 247.625352 143.301078 
L 247.707753 143.476729 
L 247.712903 143.406468 
L 247.810753 143.476729 
L 247.738653 143.336208 
L 247.826204 143.441599 
L 248.359233 143.441599 
L 248.359233 143.441599 
" clip-path="url(#pf949e15089)" style="fill: none; stroke: #000000; stroke-opacity: 0.5; stroke-width: 1.5; stroke-linecap: square"/>
   </g>
   <g id="patch_3">
    <path d="M 35.304688 173.52 
L 35.304688 7.2 
" style="fill: none; stroke: #000000; stroke-width: 0.8; stroke-linejoin: miter; stroke-linecap: square"/>
   </g>
   <g id="patch_4">
    <path d="M 35.304688 173.52 
L 258.504687 173.52 
" style="fill: none; stroke: #000000; stroke-width: 0.8; stroke-linejoin: miter; stroke-linecap: square"/>
   </g>
  </g>
 </g>
 <defs>
  <clipPath id="pf949e15089">
   <rect x="35.304688" y="7.2" width="223.2" height="166.32"/>
  </clipPath>
 </defs>
</svg>
