<?xml version="1.0" encoding="utf-8" standalone="no"?>
<!DOCTYPE svg PUBLIC "-//W3C//DTD SVG 1.1//EN"
  "http://www.w3.org/Graphics/SVG/1.1/DTD/svg11.dtd">
<svg xmlns:xlink="http://www.w3.org/1999/xlink" width="265.704687pt" height="197.398125pt" viewBox="0 0 265.704687 197.398125" xmlns="http://www.w3.org/2000/svg" version="1.1">
 <metadata>
  <rdf:RDF xmlns:dc="http://purl.org/dc/elements/1.1/" xmlns:cc="http://creativecommons.org/ns#" xmlns:rdf="http://www.w3.org/1999/02/22-rdf-syntax-ns#">
   <cc:Work>
    <dc:type rdf:resource="http://purl.org/dc/dcmitype/StillImage"/>
    <dc:date>2024-09-14T23:02:55.881961</dc:date>
    <dc:format>image/svg+xml</dc:format>
    <dc:creator>
     <cc:Agent>
      <dc:title>Matplotlib v3.9.2, https://matplotlib.org/</dc:title>
     </cc:Agent>
    </dc:creator>
   </cc:Work>
  </rdf:RDF>
 </metadata>
 <defs>
  <style type="text/css">*{stroke-linejoin: round; stroke-linecap: butt}</style>
 </defs>
 <g id="figure_1">
  <g id="patch_1">
   <path d="M 0 197.398125 
L 265.704687 197.398125 
L 265.704687 0 
L 0 0 
z
" style="fill: #ffffff"/>
  </g>
  <g id="axes_1">
   <g id="patch_2">
    <path d="M 35.304688 173.52 
L 258.504687 173.52 
L 258.504687 7.2 
L 35.304688 7.2 
z
" style="fill: #ffffff"/>
   </g>
   <g id="matplotlib.axis_1">
    <g id="xtick_1">
     <g id="line2d_1">
      <defs>
       <path id="mb615f93292" d="M 0 0 
L 0 3.5 
" style="stroke: #000000; stroke-width: 0.8"/>
      </defs>
      <g>
       <use xlink:href="#mb615f93292" x="65.409722" y="173.52" style="stroke: #000000; stroke-width: 0.8"/>
      </g>
     </g>
     <g id="text_1">
      <!-- 0.1 -->
      <g transform="translate(57.45816 188.118438) scale(0.1 -0.1)">
       <defs>
        <path id="DejaVuSans-30" d="M 2034 4250 
Q 1547 4250 1301 3770 
Q 1056 3291 1056 2328 
Q 1056 1369 1301 889 
Q 1547 409 2034 409 
Q 2525 409 2770 889 
Q 3016 1369 3016 2328 
Q 3016 3291 2770 3770 
Q 2525 4250 2034 4250 
z
M 2034 4750 
Q 2819 4750 3233 4129 
Q 3647 3509 3647 2328 
Q 3647 1150 3233 529 
Q 2819 -91 2034 -91 
Q 1250 -91 836 529 
Q 422 1150 422 2328 
Q 422 3509 836 4129 
Q 1250 4750 2034 4750 
z
" transform="scale(0.015625)"/>
        <path id="DejaVuSans-2e" d="M 684 794 
L 1344 794 
L 1344 0 
L 684 0 
L 684 794 
z
" transform="scale(0.015625)"/>
        <path id="DejaVuSans-31" d="M 794 531 
L 1825 531 
L 1825 4091 
L 703 3866 
L 703 4441 
L 1819 4666 
L 2450 4666 
L 2450 531 
L 3481 531 
L 3481 0 
L 794 0 
L 794 531 
z
" transform="scale(0.015625)"/>
       </defs>
       <use xlink:href="#DejaVuSans-30"/>
       <use xlink:href="#DejaVuSans-2e" x="63.623047"/>
       <use xlink:href="#DejaVuSans-31" x="95.410156"/>
      </g>
     </g>
    </g>
    <g id="xtick_2">
     <g id="line2d_2">
      <g>
       <use xlink:href="#mb615f93292" x="98.675689" y="173.52" style="stroke: #000000; stroke-width: 0.8"/>
      </g>
     </g>
     <g id="text_2">
      <!-- 0.2 -->
      <g transform="translate(90.724126 188.118438) scale(0.1 -0.1)">
       <defs>
        <path id="DejaVuSans-32" d="M 1228 531 
L 3431 531 
L 3431 0 
L 469 0 
L 469 531 
Q 828 903 1448 1529 
Q 2069 2156 2228 2338 
Q 2531 2678 2651 2914 
Q 2772 3150 2772 3378 
Q 2772 3750 2511 3984 
Q 2250 4219 1831 4219 
Q 1534 4219 1204 4116 
Q 875 4013 500 3803 
L 500 4441 
Q 881 4594 1212 4672 
Q 1544 4750 1819 4750 
Q 2544 4750 2975 4387 
Q 3406 4025 3406 3419 
Q 3406 3131 3298 2873 
Q 3191 2616 2906 2266 
Q 2828 2175 2409 1742 
Q 1991 1309 1228 531 
z
" transform="scale(0.015625)"/>
       </defs>
       <use xlink:href="#DejaVuSans-30"/>
       <use xlink:href="#DejaVuSans-2e" x="63.623047"/>
       <use xlink:href="#DejaVuSans-32" x="95.410156"/>
      </g>
     </g>
    </g>
    <g id="xtick_3">
     <g id="line2d_3">
      <g>
       <use xlink:href="#mb615f93292" x="131.941656" y="173.52" style="stroke: #000000; stroke-width: 0.8"/>
      </g>
     </g>
     <g id="text_3">
      <!-- 0.3 -->
      <g transform="translate(123.990093 188.118438) scale(0.1 -0.1)">
       <defs>
        <path id="DejaVuSans-33" d="M 2597 2516 
Q 3050 2419 3304 2112 
Q 3559 1806 3559 1356 
Q 3559 666 3084 287 
Q 2609 -91 1734 -91 
Q 1441 -91 1130 -33 
Q 819 25 488 141 
L 488 750 
Q 750 597 1062 519 
Q 1375 441 1716 441 
Q 2309 441 2620 675 
Q 2931 909 2931 1356 
Q 2931 1769 2642 2001 
Q 2353 2234 1838 2234 
L 1294 2234 
L 1294 2753 
L 1863 2753 
Q 2328 2753 2575 2939 
Q 2822 3125 2822 3475 
Q 2822 3834 2567 4026 
Q 2313 4219 1838 4219 
Q 1578 4219 1281 4162 
Q 984 4106 628 3988 
L 628 4550 
Q 988 4650 1302 4700 
Q 1616 4750 1894 4750 
Q 2613 4750 3031 4423 
Q 3450 4097 3450 3541 
Q 3450 3153 3228 2886 
Q 3006 2619 2597 2516 
z
" transform="scale(0.015625)"/>
       </defs>
       <use xlink:href="#DejaVuSans-30"/>
       <use xlink:href="#DejaVuSans-2e" x="63.623047"/>
       <use xlink:href="#DejaVuSans-33" x="95.410156"/>
      </g>
     </g>
    </g>
    <g id="xtick_4">
     <g id="line2d_4">
      <g>
       <use xlink:href="#mb615f93292" x="165.207622" y="173.52" style="stroke: #000000; stroke-width: 0.8"/>
      </g>
     </g>
     <g id="text_4">
      <!-- 0.4 -->
      <g transform="translate(157.25606 188.118438) scale(0.1 -0.1)">
       <defs>
        <path id="DejaVuSans-34" d="M 2419 4116 
L 825 1625 
L 2419 1625 
L 2419 4116 
z
M 2253 4666 
L 3047 4666 
L 3047 1625 
L 3713 1625 
L 3713 1100 
L 3047 1100 
L 3047 0 
L 2419 0 
L 2419 1100 
L 313 1100 
L 313 1709 
L 2253 4666 
z
" transform="scale(0.015625)"/>
       </defs>
       <use xlink:href="#DejaVuSans-30"/>
       <use xlink:href="#DejaVuSans-2e" x="63.623047"/>
       <use xlink:href="#DejaVuSans-34" x="95.410156"/>
      </g>
     </g>
    </g>
    <g id="xtick_5">
     <g id="line2d_5">
      <g>
       <use xlink:href="#mb615f93292" x="198.473589" y="173.52" style="stroke: #000000; stroke-width: 0.8"/>
      </g>
     </g>
     <g id="text_5">
      <!-- 0.5 -->
      <g transform="translate(190.522027 188.118438) scale(0.1 -0.1)">
       <defs>
        <path id="DejaVuSans-35" d="M 691 4666 
L 3169 4666 
L 3169 4134 
L 1269 4134 
L 1269 2991 
Q 1406 3038 1543 3061 
Q 1681 3084 1819 3084 
Q 2600 3084 3056 2656 
Q 3513 2228 3513 1497 
Q 3513 744 3044 326 
Q 2575 -91 1722 -91 
Q 1428 -91 1123 -41 
Q 819 9 494 109 
L 494 744 
Q 775 591 1075 516 
Q 1375 441 1709 441 
Q 2250 441 2565 725 
Q 2881 1009 2881 1497 
Q 2881 1984 2565 2268 
Q 2250 2553 1709 2553 
Q 1456 2553 1204 2497 
Q 953 2441 691 2322 
L 691 4666 
z
" transform="scale(0.015625)"/>
       </defs>
       <use xlink:href="#DejaVuSans-30"/>
       <use xlink:href="#DejaVuSans-2e" x="63.623047"/>
       <use xlink:href="#DejaVuSans-35" x="95.410156"/>
      </g>
     </g>
    </g>
    <g id="xtick_6">
     <g id="line2d_6">
      <g>
       <use xlink:href="#mb615f93292" x="231.739556" y="173.52" style="stroke: #000000; stroke-width: 0.8"/>
      </g>
     </g>
     <g id="text_6">
      <!-- 0.6 -->
      <g transform="translate(223.787993 188.118438) scale(0.1 -0.1)">
       <defs>
        <path id="DejaVuSans-36" d="M 2113 2584 
Q 1688 2584 1439 2293 
Q 1191 2003 1191 1497 
Q 1191 994 1439 701 
Q 1688 409 2113 409 
Q 2538 409 2786 701 
Q 3034 994 3034 1497 
Q 3034 2003 2786 2293 
Q 2538 2584 2113 2584 
z
M 3366 4563 
L 3366 3988 
Q 3128 4100 2886 4159 
Q 2644 4219 2406 4219 
Q 1781 4219 1451 3797 
Q 1122 3375 1075 2522 
Q 1259 2794 1537 2939 
Q 1816 3084 2150 3084 
Q 2853 3084 3261 2657 
Q 3669 2231 3669 1497 
Q 3669 778 3244 343 
Q 2819 -91 2113 -91 
Q 1303 -91 875 529 
Q 447 1150 447 2328 
Q 447 3434 972 4092 
Q 1497 4750 2381 4750 
Q 2619 4750 2861 4703 
Q 3103 4656 3366 4563 
z
" transform="scale(0.015625)"/>
       </defs>
       <use xlink:href="#DejaVuSans-30"/>
       <use xlink:href="#DejaVuSans-2e" x="63.623047"/>
       <use xlink:href="#DejaVuSans-36" x="95.410156"/>
      </g>
     </g>
    </g>
   </g>
   <g id="matplotlib.axis_2">
    <g id="ytick_1">
     <g id="line2d_7">
      <defs>
       <path id="mfc66ee76cd" d="M 0 0 
L -3.5 0 
" style="stroke: #000000; stroke-width: 0.8"/>
      </defs>
      <g>
       <use xlink:href="#mfc66ee76cd" x="35.304688" y="167.483444" style="stroke: #000000; stroke-width: 0.8"/>
      </g>
     </g>
     <g id="text_7">
      <!-- −80 -->
      <g transform="translate(7.2 171.282663) scale(0.1 -0.1)">
       <defs>
        <path id="DejaVuSans-2212" d="M 678 2272 
L 4684 2272 
L 4684 1741 
L 678 1741 
L 678 2272 
z
" transform="scale(0.015625)"/>
        <path id="DejaVuSans-38" d="M 2034 2216 
Q 1584 2216 1326 1975 
Q 1069 1734 1069 1313 
Q 1069 891 1326 650 
Q 1584 409 2034 409 
Q 2484 409 2743 651 
Q 3003 894 3003 1313 
Q 3003 1734 2745 1975 
Q 2488 2216 2034 2216 
z
M 1403 2484 
Q 997 2584 770 2862 
Q 544 3141 544 3541 
Q 544 4100 942 4425 
Q 1341 4750 2034 4750 
Q 2731 4750 3128 4425 
Q 3525 4100 3525 3541 
Q 3525 3141 3298 2862 
Q 3072 2584 2669 2484 
Q 3125 2378 3379 2068 
Q 3634 1759 3634 1313 
Q 3634 634 3220 271 
Q 2806 -91 2034 -91 
Q 1263 -91 848 271 
Q 434 634 434 1313 
Q 434 1759 690 2068 
Q 947 2378 1403 2484 
z
M 1172 3481 
Q 1172 3119 1398 2916 
Q 1625 2713 2034 2713 
Q 2441 2713 2670 2916 
Q 2900 3119 2900 3481 
Q 2900 3844 2670 4047 
Q 2441 4250 2034 4250 
Q 1625 4250 1398 4047 
Q 1172 3844 1172 3481 
z
" transform="scale(0.015625)"/>
       </defs>
       <use xlink:href="#DejaVuSans-2212"/>
       <use xlink:href="#DejaVuSans-38" x="83.789062"/>
       <use xlink:href="#DejaVuSans-30" x="147.412109"/>
      </g>
     </g>
    </g>
    <g id="ytick_2">
     <g id="line2d_8">
      <g>
       <use xlink:href="#mfc66ee76cd" x="35.304688" y="143.702848" style="stroke: #000000; stroke-width: 0.8"/>
      </g>
     </g>
     <g id="text_8">
      <!-- −60 -->
      <g transform="translate(7.2 147.502067) scale(0.1 -0.1)">
       <use xlink:href="#DejaVuSans-2212"/>
       <use xlink:href="#DejaVuSans-36" x="83.789062"/>
       <use xlink:href="#DejaVuSans-30" x="147.412109"/>
      </g>
     </g>
    </g>
    <g id="ytick_3">
     <g id="line2d_9">
      <g>
       <use xlink:href="#mfc66ee76cd" x="35.304688" y="119.922252" style="stroke: #000000; stroke-width: 0.8"/>
      </g>
     </g>
     <g id="text_9">
      <!-- −40 -->
      <g transform="translate(7.2 123.721471) scale(0.1 -0.1)">
       <use xlink:href="#DejaVuSans-2212"/>
       <use xlink:href="#DejaVuSans-34" x="83.789062"/>
       <use xlink:href="#DejaVuSans-30" x="147.412109"/>
      </g>
     </g>
    </g>
    <g id="ytick_4">
     <g id="line2d_10">
      <g>
       <use xlink:href="#mfc66ee76cd" x="35.304688" y="96.141656" style="stroke: #000000; stroke-width: 0.8"/>
      </g>
     </g>
     <g id="text_10">
      <!-- −20 -->
      <g transform="translate(7.2 99.940875) scale(0.1 -0.1)">
       <use xlink:href="#DejaVuSans-2212"/>
       <use xlink:href="#DejaVuSans-32" x="83.789062"/>
       <use xlink:href="#DejaVuSans-30" x="147.412109"/>
      </g>
     </g>
    </g>
    <g id="ytick_5">
     <g id="line2d_11">
      <g>
       <use xlink:href="#mfc66ee76cd" x="35.304688" y="72.361061" style="stroke: #000000; stroke-width: 0.8"/>
      </g>
     </g>
     <g id="text_11">
      <!-- 0 -->
      <g transform="translate(21.942187 76.160279) scale(0.1 -0.1)">
       <use xlink:href="#DejaVuSans-30"/>
      </g>
     </g>
    </g>
    <g id="ytick_6">
     <g id="line2d_12">
      <g>
       <use xlink:href="#mfc66ee76cd" x="35.304688" y="48.580465" style="stroke: #000000; stroke-width: 0.8"/>
      </g>
     </g>
     <g id="text_12">
      <!-- 20 -->
      <g transform="translate(15.579687 52.379683) scale(0.1 -0.1)">
       <use xlink:href="#DejaVuSans-32"/>
       <use xlink:href="#DejaVuSans-30" x="63.623047"/>
      </g>
     </g>
    </g>
    <g id="ytick_7">
     <g id="line2d_13">
      <g>
       <use xlink:href="#mfc66ee76cd" x="35.304688" y="24.799869" style="stroke: #000000; stroke-width: 0.8"/>
      </g>
     </g>
     <g id="text_13">
      <!-- 40 -->
      <g transform="translate(15.579687 28.599087) scale(0.1 -0.1)">
       <use xlink:href="#DejaVuSans-34"/>
       <use xlink:href="#DejaVuSans-30" x="63.623047"/>
      </g>
     </g>
    </g>
   </g>
   <g id="line2d_14">
    <path d="M 45.450142 161.73895 
L 45.563246 161.761248 
L 45.5699 161.753809 
L 45.69631 161.820685 
L 45.583206 161.746379 
L 45.702963 161.798396 
L 45.789455 161.72409 
L 45.722923 161.805834 
L 45.829374 161.761248 
L 45.909212 161.813264 
L 45.955785 161.776098 
L 48.889843 161.672065 
L 49.34226 160.884334 
L 49.348913 160.906632 
L 49.355567 160.921483 
L 49.395486 160.847177 
L 49.435405 160.847177 
L 49.601735 160.54249 
L 49.608388 160.549911 
L 49.621694 160.587068 
L 49.67492 160.505324 
L 49.714839 160.549911 
L 49.881169 160.371555 
L 49.894475 160.386432 
L 49.947701 160.289811 
L 49.96766 160.304679 
L 50.094071 160.163489 
L 50.107377 160.178339 
L 50.15395 160.178339 
L 50.193869 160.118902 
L 50.366852 159.992562 
L 50.373505 160.01486 
L 50.453343 159.925677 
L 50.459997 159.933107 
L 50.626326 159.829065 
L 50.786003 159.739882 
L 50.905761 159.606122 
L 50.912414 159.62099 
L 50.972293 159.628411 
L 50.998905 159.568965 
L 51.018865 159.598701 
L 51.178542 159.450064 
L 51.371484 159.383179 
L 51.391444 159.398047 
L 51.451322 159.293996 
L 51.597693 159.22713 
L 51.677531 159.241989 
L 51.697491 159.197402 
L 51.797289 159.100781 
L 51.823901 159.123079 
L 51.897086 159.100781 
L 51.843861 159.085921 
L 51.917046 159.078492 
L 52.043457 159.004187 
L 52.05011 159.011607 
L 52.302931 158.870417 
L 52.396076 158.915004 
L 52.349504 158.84068 
L 52.416035 158.877838 
L 52.52914 158.84068 
L 52.628938 158.69949 
L 52.682163 158.736648 
L 52.69547 158.781243 
L 52.762002 158.69949 
L 52.788614 158.729209 
L 53.034782 158.602878 
L 53.114621 158.610317 
L 53.068048 158.573151 
L 53.141234 158.58058 
L 53.214419 158.498845 
L 53.260991 158.543432 
L 53.407361 158.454258 
L 53.414014 158.476547 
L 53.433974 158.431961 
L 53.500506 158.417101 
L 53.61361 158.372514 
L 53.533772 158.439381 
L 53.620263 158.394803 
L 53.680142 158.379935 
L 53.660183 158.357637 
L 53.713408 158.342787 
L 53.746674 158.372514 
L 53.846472 158.30563 
L 54.079334 158.209008 
L 54.119253 158.223877 
L 54.199091 158.164422 
L 54.285583 158.112405 
L 54.318849 158.179281 
L 54.332155 158.18672 
L 54.465219 158.119835 
L 54.57167 158.112405 
L 54.578323 158.097537 
L 54.684774 158.04552 
L 54.711387 158.067809 
L 54.784572 158.067809 
L 54.817838 158.030652 
L 54.997475 157.963776 
L 54.831145 158.04552 
L 55.004128 157.978645 
L 55.110579 158.000943 
L 55.130538 157.963776 
L 55.310175 157.896892 
L 55.3634 157.956347 
L 55.423279 157.934058 
L 55.54969 157.844875 
L 55.562996 157.852305 
L 55.928922 157.78542 
L 56.022066 157.740833 
L 55.975494 157.79285 
L 56.042026 157.748263 
L 56.188396 157.748263 
L 56.32146 157.688817 
L 56.368032 157.725965 
L 56.394645 157.666528 
L 56.427911 157.681378 
L 57.040005 157.599643 
L 57.159762 157.517899 
L 57.086577 157.636791 
L 57.166416 157.540188 
L 57.239601 157.577345 
L 57.266213 157.532759 
L 57.346052 157.480733 
L 57.372665 157.555056 
L 57.459156 157.495601 
L 57.485769 157.540188 
L 57.532341 157.547609 
L 57.558954 157.488172 
L 57.585567 157.495601 
L 58.483748 157.39898 
L 58.616812 157.339543 
L 58.623465 157.354393 
L 59.202293 157.25779 
L 59.32205 157.25779 
L 59.34201 157.294956 
L 59.428501 157.25779 
L 60.306723 157.168607 
L 60.339989 157.198335 
L 60.439787 157.109161 
L 60.579504 157.190905 
L 60.699261 157.13145 
L 60.819019 157.064565 
L 60.832325 157.094302 
L 60.972042 157.109161 
L 60.978695 157.094302 
L 62.848243 156.99026 
L 62.954694 156.953094 
L 62.968 156.99026 
L 63.160943 156.901086 
L 63.167596 156.908507 
L 63.207515 156.960533 
L 63.2807 156.915937 
L 66.267984 156.849061 
L 66.354476 156.797035 
L 66.314556 156.86392 
L 66.381088 156.834202 
L 66.500846 156.826763 
L 66.593991 156.804465 
L 66.61395 156.819333 
L 68.876036 156.737589 
L 68.882689 156.707871 
L 68.969181 156.782176 
L 68.975834 156.782176 
L 69.128857 156.752449 
L 69.13551 156.767317 
L 75.203223 156.86392 
L 75.229835 156.826763 
L 75.32298 156.886218 
L 75.362899 156.804465 
L 75.449391 156.849061 
L 75.555842 156.849061 
L 75.562495 156.86392 
L 79.368122 156.960533 
L 79.374775 156.982821 
L 79.408041 156.901086 
L 79.46792 156.923384 
L 79.481226 156.938235 
L 79.600984 156.915937 
L 79.727394 156.99026 
L 93.519464 157.094302 
L 93.625915 157.079443 
L 93.546077 157.027417 
L 93.632568 157.072013 
L 93.752326 157.042277 
L 93.645875 157.079443 
L 93.758979 157.049715 
L 93.86543 157.072013 
L 93.878736 157.057145 
L 94.065026 157.012558 
L 94.224703 157.042277 
L 94.277928 157.064565 
L 94.34446 157.005119 
L 94.444258 157.012558 
L 94.397686 157.064565 
L 94.457564 157.034856 
L 94.583975 157.079443 
L 94.590628 157.072013 
L 103.878486 157.176037 
L 103.984937 157.213194 
L 103.931712 157.153748 
L 103.99159 157.183485 
L 104.131307 157.138889 
L 104.251065 157.153748 
L 104.370822 157.190905 
L 104.477273 157.138889 
L 104.49058 157.161187 
L 104.503886 157.205774 
L 104.550459 157.12403 
L 104.603684 157.161187 
L 104.650257 157.12403 
L 104.723442 157.146328 
L 104.82324 157.176037 
L 104.770014 157.1166 
L 104.843199 157.161187 
L 105.022835 157.12403 
L 113.49235 157.213194 
L 113.518963 157.235492 
L 113.578842 157.161187 
L 113.592148 157.176037 
L 113.598802 157.153748 
L 113.671987 157.213194 
L 113.691946 157.198335 
L 113.711906 157.228071 
L 113.771785 157.146328 
L 113.805051 157.190905 
L 137.457153 157.280079 
L 137.490419 157.309806 
L 137.563604 157.280079 
L 137.623483 157.272658 
L 137.643442 157.317245 
L 137.663402 157.317245 
L 137.690015 157.280079 
L 137.7632 157.280079 
L 137.836385 157.332104 
L 137.876304 157.287508 
L 155.933071 157.361832 
L 155.939724 157.39898 
L 156.026216 157.302377 
L 156.032869 157.317245 
L 156.232465 157.39155 
L 156.352222 157.309806 
L 156.365528 157.346964 
L 156.478633 157.369262 
L 156.485286 157.324666 
L 156.545165 157.317245 
L 156.558471 157.376691 
L 156.585084 157.346964 
L 156.698188 157.413848 
L 156.711495 157.38413 
L 156.811292 157.332104 
L 156.837905 157.361832 
L 156.977622 157.39898 
L 156.984275 157.376691 
L 157.057461 157.294956 
L 157.104033 157.324666 
L 157.123992 157.294956 
L 157.22379 157.376691 
L 157.283669 157.324666 
L 157.336895 157.376691 
L 157.543144 157.280079 
L 157.662901 157.339543 
L 157.716127 157.287508 
L 157.689514 157.354393 
L 157.769352 157.346964 
L 157.855844 157.309806 
L 157.862497 157.287508 
L 159.186482 157.369262 
L 159.193136 157.413848 
L 159.266321 157.332104 
L 159.292934 157.339543 
L 159.392731 157.354393 
L 159.406038 157.324666 
L 159.479223 157.317245 
L 159.45261 157.346964 
L 159.505836 157.346964 
L 159.579021 157.369262 
L 159.59898 157.309806 
L 159.61894 157.339543 
L 179.232554 157.421278 
L 179.252514 157.451015 
L 179.325699 157.38413 
L 179.332352 157.38413 
L 179.445456 157.376691 
L 179.458763 157.406428 
L 179.571867 157.421278 
L 179.585173 157.39898 
L 179.678318 157.361832 
L 179.625092 157.428717 
L 179.691624 157.39155 
L 179.771463 157.421278 
L 179.74485 157.369262 
L 179.804729 157.39898 
L 179.851301 157.376691 
L 179.884567 157.443576 
L 179.91118 157.428717 
L 180.004324 157.361832 
L 179.924486 157.443576 
L 180.03759 157.38413 
L 180.090816 157.473303 
L 180.157348 157.428717 
L 180.20392 157.376691 
L 180.263799 157.443576 
L 180.376903 157.436137 
L 180.383556 157.421278 
L 180.543233 157.376691 
L 180.549886 157.38413 
L 180.656337 157.428717 
L 180.569846 157.376691 
L 180.662991 157.406428 
L 180.729523 157.376691 
L 180.696257 157.428717 
L 180.782748 157.406428 
L 180.922465 157.421278 
L 181.002303 157.39898 
L 181.01561 157.451015 
L 181.035569 157.421278 
L 181.102101 157.39898 
L 181.148674 157.451015 
L 181.235165 157.39155 
L 181.255125 157.436137 
L 181.321657 157.495601 
L 181.368229 157.421278 
L 181.454721 157.39155 
L 181.487987 157.436137 
L 181.534559 157.406428 
L 181.561172 157.465874 
L 181.594438 157.428717 
L 181.654316 157.495601 
L 181.714195 157.428717 
L 181.78738 157.421278 
L 181.727502 157.39898 
L 181.813993 157.376691 
L 183.770032 157.458435 
L 183.783338 157.488172 
L 183.796645 157.436137 
L 183.876483 157.451015 
L 183.903096 157.406428 
L 183.949668 157.495601 
L 183.982934 157.480733 
L 186.07869 157.39155 
L 186.145222 157.346964 
L 186.185141 157.413848 
L 191.421204 157.339543 
L 191.447817 157.302377 
L 191.534309 157.332104 
L 191.64076 157.38413 
L 191.560921 157.324666 
L 191.654066 157.369262 
L 215.219677 157.443576 
L 215.379353 157.800288 
L 215.479151 157.90433 
L 215.712013 158.31305 
L 215.745279 158.283332 
L 215.785198 158.357637 
L 215.805158 158.357637 
L 216.556969 159.041335 
L 216.563622 159.026475 
L 216.623501 159.115658 
L 216.64346 159.100781 
L 217.129143 159.50208 
L 217.155756 159.442634 
L 217.228941 159.539237 
L 217.548295 159.732453 
L 217.554948 159.717594 
L 217.60152 159.799338 
L 217.62148 159.77704 
L 217.688012 159.903389 
L 217.741237 159.866222 
L 218.040631 160.052017 
L 218.093856 160.044579 
L 218.120469 160.089165 
L 218.140429 160.081745 
L 218.286799 160.200637 
L 218.493048 160.297249 
L 218.626112 160.378993 
L 218.699297 160.334397 
L 218.739216 160.386432 
L 218.865627 160.490474 
L 219.078529 160.564788 
L 219.138408 160.624234 
L 219.18498 160.587068 
L 219.324697 160.68368 
L 219.33135 160.661382 
L 219.437801 160.653953 
L 219.364616 160.705969 
L 219.451108 160.68368 
L 219.617438 160.787722 
L 219.66401 160.824888 
L 219.730542 160.787722 
L 219.890219 160.884334 
L 219.896872 160.869475 
L 219.950097 160.93636 
L 219.990016 160.928921 
L 220.103121 160.951219 
L 220.242838 161.032954 
L 220.502312 161.129576 
L 220.628723 161.189012 
L 220.708561 161.151864 
L 220.741827 161.166724 
L 220.801706 161.241047 
L 220.854932 161.203881 
L 220.861585 161.181583 
L 220.91481 161.293054 
L 220.948076 161.241047 
L 221.061181 161.315352 
L 221.067834 161.300493 
L 221.467025 161.404526 
L 221.606742 161.404526 
L 221.673274 161.419403 
L 221.693234 161.463981 
L 221.866217 161.523436 
L 221.87287 161.501147 
L 222.025894 161.493709 
L 222.438392 161.590321 
L 222.564802 161.627469 
L 222.571456 161.620039 
L 222.697866 161.634908 
L 222.884156 161.731511 
L 222.897462 161.709213 
L 222.937381 161.657206 
L 222.99726 161.73895 
L 223.170243 161.783536 
L 223.176896 161.776098 
L 223.961973 161.86528 
L 224.015198 161.924726 
L 224.08173 161.895008 
L 224.221447 161.895008 
L 224.41439 161.961893 
L 224.540801 161.939604 
L 224.667211 162.00648 
L 225.512167 162.110521 
L 225.625271 162.155108 
L 225.631924 162.14767 
L 225.718416 162.080785 
L 225.751682 162.103083 
L 225.791601 162.140249 
L 225.884746 162.110521 
L 225.911359 162.088224 
L 225.99785 162.125381 
L 226.01781 162.073364 
L 226.057729 162.192256 
L 226.104301 162.14767 
L 226.902684 162.251721 
L 226.95591 162.288878 
L 227.015789 162.251721 
L 227.042401 162.207134 
L 227.115587 162.296298 
L 227.188772 162.281439 
L 227.148853 162.251721 
L 227.215384 162.259141 
L 228.798844 162.363183 
L 228.878683 162.392911 
L 228.911949 162.333465 
L 228.918602 162.311176 
L 228.938562 162.370613 
L 229.005093 162.385481 
L 229.031706 162.422647 
L 229.111545 162.370613 
L 229.251262 162.318596 
L 229.35106 162.415199 
L 229.377672 162.400349 
L 229.490777 162.348324 
L 229.524043 162.392911 
L 229.62384 162.400349 
L 229.570615 162.363183 
L 229.630494 162.363183 
L 229.803477 162.40777 
L 229.81013 162.400349 
L 229.97646 162.370613 
L 230.10287 162.40777 
L 230.262547 162.437497 
L 230.349039 162.40777 
L 230.375651 162.444936 
L 230.462143 162.444936 
L 230.43553 162.40777 
L 230.475449 162.422647 
L 230.541981 162.385481 
L 230.568594 162.444936 
L 230.588554 162.415199 
L 231.812741 162.519241 
L 231.899233 162.548978 
L 231.85266 162.489523 
L 231.925845 162.519241 
L 232.052256 162.511821 
L 231.945805 162.496953 
L 232.058909 162.504382 
L 232.198626 162.489523 
L 232.251852 162.511821 
L 232.311731 162.489523 
L 232.471407 162.452357 
L 232.47806 162.459795 
L 232.651043 162.489523 
L 235.804657 162.586126 
L 235.891149 162.600994 
L 235.864536 162.534119 
L 235.917761 162.578706 
L 236.024212 162.504382 
L 236.044172 162.511821 
L 236.137317 162.534119 
L 236.064132 162.489523 
L 236.150623 162.496953 
L 236.177236 162.534119 
L 236.277034 162.504382 
L 236.383485 162.534119 
L 236.396791 162.511821 
L 239.084681 162.415199 
L 239.104641 162.392911 
L 239.157867 162.489523 
L 239.16452 162.489523 
L 239.257664 162.482084 
L 239.191133 162.452357 
L 239.264318 162.467234 
L 239.270971 162.422647 
L 239.370769 162.474655 
L 239.503833 162.474655 
L 239.404035 162.422647 
L 239.510486 162.467234 
L 239.603631 162.422647 
L 239.64355 162.474655 
L 239.750001 162.534119 
L 239.76996 162.459795 
L 239.942943 162.422647 
L 240.089314 162.489523 
L 240.12258 162.52668 
L 240.222377 162.444936 
L 240.328829 162.437497 
L 240.335482 162.430068 
L 248.359233 162.430068 
L 248.359233 162.430068 
" clip-path="url(#pe48671267b)" style="fill: none; stroke: #000000; stroke-opacity: 0.5; stroke-width: 1.5; stroke-linecap: square"/>
   </g>
   <g id="line2d_15">
    <path d="M 45.450142 162.125381 
L 45.54994 162.14767 
L 45.463448 162.117951 
L 45.563246 162.117951 
L 48.796698 162.14767 
L 48.803351 162.326026 
L 48.896496 161.86528 
L 49.202543 160.111454 
L 49.661613 158.56573 
L 51.617652 154.463563 
L 51.923699 153.965669 
L 52.116642 153.653543 
L 52.123295 153.668403 
L 52.176521 153.579229 
L 52.389423 153.229946 
L 52.396076 153.259683 
L 52.462608 153.133352 
L 52.475914 153.133352 
L 55.3634 150.049297 
L 55.396666 150.064165 
L 55.449892 149.989842 
L 55.456545 149.99728 
L 55.589609 149.885809 
L 55.596262 149.900668 
L 55.682753 149.811485 
L 55.835777 149.685155 
L 56.048679 149.536535 
L 55.849083 149.700014 
L 56.075292 149.581122 
L 56.081945 149.588542 
L 56.128517 149.4845 
L 56.148477 149.499378 
L 56.314807 149.328442 
L 56.501096 149.239268 
L 56.647466 149.046053 
L 56.667426 149.068342 
L 56.940207 148.889986 
L 56.94686 148.897424 
L 56.993433 148.942011 
L 57.040005 148.852828 
L 57.159762 148.748805 
L 57.173069 148.763655 
L 57.286173 148.674481 
L 57.42589 148.592737 
L 57.439196 148.615035 
L 57.492422 148.548141 
L 57.525688 148.570439 
L 57.618833 148.466406 
L 57.658752 148.503554 
L 57.692018 148.444104 
L 57.75855 148.451538 
L 57.931533 148.362364 
L 57.958146 148.392087 
L 57.984758 148.384653 
L 58.004718 148.325212 
L 58.031331 148.325212 
L 58.131129 148.236025 
L 58.157741 148.258322 
L 58.297458 148.191438 
L 58.304112 148.206306 
L 58.370644 148.139421 
L 58.397256 148.146851 
L 58.55028 148.065102 
L 58.67669 147.975929 
L 58.689997 147.95364 
L 58.809754 147.968495 
L 58.962778 147.834725 
L 58.976084 147.849589 
L 59.022656 147.864457 
L 59.069229 147.805002 
L 59.215599 147.738117 
L 59.455114 147.63408 
L 59.661363 147.492885 
L 59.681323 147.515183 
L 59.694629 147.5672 
L 59.774467 147.470597 
L 59.787774 147.485451 
L 60.033942 147.37398 
L 60.399868 147.269938 
L 60.579504 147.232785 
L 60.586157 147.247649 
L 60.626076 147.17333 
L 60.679302 147.203053 
L 60.799059 147.076727 
L 60.805712 147.106445 
L 61.125066 147.024706 
L 61.198251 146.913234 
L 61.244823 146.957821 
L 61.344621 146.965251 
L 61.357927 146.950387 
L 61.490991 146.913234 
L 61.690587 146.816618 
L 61.723853 146.838915 
L 61.816998 146.786894 
L 61.956715 146.809192 
L 61.963368 146.794329 
L 62.076472 146.727453 
L 62.089779 146.749742 
L 62.143004 146.727453 
L 62.162964 146.682857 
L 62.182923 146.690287 
L 62.495623 146.601113 
L 62.622034 146.526794 
L 62.741792 146.571381 
L 62.881509 146.489642 
L 62.894815 146.497071 
L 63.274047 146.407893 
L 63.360539 146.370736 
L 63.387151 146.407893 
L 63.852875 146.318715 
L 63.972632 146.288992 
L 64.025858 146.259264 
L 64.105696 146.318715 
L 64.40509 146.214678 
L 64.431703 146.229537 
L 64.538154 146.17752 
L 64.657911 146.192384 
L 64.69783 146.132929 
L 64.771016 146.155222 
L 64.777669 146.162657 
L 64.837547 146.066044 
L 64.850854 146.080913 
L 65.682503 145.991734 
L 65.802261 145.932284 
L 65.868792 145.991734 
L 65.922018 145.947148 
L 66.028469 145.902552 
L 65.948631 145.976871 
L 66.041775 145.939713 
L 66.048429 145.969441 
L 66.114961 145.902552 
L 66.148227 145.91742 
L 66.221412 145.850535 
L 66.261331 145.90999 
L 67.472212 145.813374 
L 67.545397 145.761362 
L 67.585316 145.791085 
L 68.097612 145.709341 
L 68.110919 145.679613 
L 68.170797 145.746498 
L 68.204063 145.724205 
L 68.250636 145.776221 
L 68.323821 145.724205 
L 68.397006 145.709341 
L 68.357087 145.739064 
L 68.430272 145.739064 
L 68.536723 145.746498 
L 68.463538 145.694472 
L 68.543376 145.731634 
L 68.589949 145.672179 
L 68.649827 145.739064 
L 68.65648 145.768791 
L 68.683093 145.687047 
L 68.742972 145.679613 
L 68.862729 145.687047 
L 68.909302 145.709341 
L 68.889342 145.664749 
L 68.969181 145.672179 
L 69.075632 145.672179 
L 69.095591 145.709341 
L 69.182083 145.649886 
L 69.248615 145.642456 
L 69.202042 145.672179 
L 69.295187 145.65732 
L 69.428251 145.687047 
L 69.548008 145.642456 
L 69.701032 145.664749 
L 69.827442 145.605294 
L 69.834096 145.612733 
L 69.953853 145.620163 
L 72.229245 145.516121 
L 72.242552 145.530984 
L 72.395575 145.493827 
L 72.48872 145.553278 
L 72.515333 145.530984 
L 72.528639 145.508687 
L 72.535292 145.560712 
L 72.615131 145.568142 
L 77.511881 145.664749 
L 77.558453 145.716766 
L 77.624985 145.649886 
L 80.066707 145.753928 
L 80.199771 145.753928 
L 80.332835 145.724205 
L 80.439286 145.731634 
L 80.445939 145.724205 
L 80.539084 145.724205 
L 80.55239 145.761362 
L 80.645535 145.731634 
L 80.612269 145.694472 
L 80.658841 145.716766 
L 82.002786 145.813374 
L 82.122544 145.843106 
L 84.737249 145.924845 
L 84.743902 145.954577 
L 84.783821 145.872833 
L 84.837047 145.887693 
L 84.896925 145.850535 
L 84.950151 145.887693 
L 85.089868 145.932284 
L 85.269504 145.895127 
L 85.369302 145.924845 
L 85.382609 145.887693 
L 86.90619 145.984305 
L 86.979375 145.962007 
L 87.019294 146.014028 
L 87.099132 145.939713 
L 87.145705 145.969441 
L 87.258809 145.999164 
L 87.285422 145.969441 
L 87.351954 145.962007 
L 87.298728 145.999164 
L 87.391873 146.006598 
L 87.53159 146.043751 
L 87.544896 146.028892 
L 87.618082 145.969441 
L 87.664654 146.006598 
L 87.777758 146.006598 
L 87.917475 146.006598 
L 87.950741 146.073478 
L 88.037233 146.036321 
L 88.170297 146.051185 
L 89.900127 146.147793 
L 89.920086 146.170091 
L 89.940046 146.080913 
L 89.999925 146.103206 
L 90.106376 146.095776 
L 90.113029 146.103206 
L 90.232787 146.11807 
L 90.325931 146.080913 
L 90.359197 146.132929 
L 90.372504 146.170091 
L 90.465648 146.11807 
L 90.631978 146.17752 
L 90.638631 146.147793 
L 90.651938 146.155222 
L 90.765042 146.080913 
L 90.871493 146.17752 
L 90.911412 146.140363 
L 90.924719 146.051185 
L 91.024517 146.125499 
L 91.184193 146.095776 
L 91.217459 146.147793 
L 91.297297 146.110631 
L 91.483587 146.192384 
L 91.496893 146.17752 
L 91.590038 146.147793 
L 91.609998 146.18495 
L 91.716449 146.192384 
L 91.65657 146.155222 
L 91.723102 146.17752 
L 91.862819 146.155222 
L 91.776327 146.236971 
L 91.876125 146.170091 
L 91.995883 146.192384 
L 92.002536 146.18495 
L 92.1356 146.162657 
L 92.029149 146.229537 
L 92.148906 146.17752 
L 92.275317 146.199814 
L 93.938615 146.281562 
L 93.971881 146.311285 
L 94.045066 146.281562 
L 94.191437 146.244405 
L 94.204743 146.266698 
L 94.224703 146.244405 
L 94.384379 146.303856 
L 94.557362 146.259264 
L 94.650507 146.318715 
L 94.670466 146.266698 
L 94.776918 146.311285 
L 94.80353 146.296417 
L 94.956554 146.311285 
L 95.089618 146.296417 
L 95.102924 146.311285 
L 95.162803 146.348442 
L 95.13619 146.288992 
L 95.216028 146.303856 
L 95.30252 146.318715 
L 95.329133 146.296417 
L 95.44889 146.296417 
L 95.455543 146.311285 
L 95.61522 146.348442 
L 95.648486 146.37817 
L 95.734977 146.333579 
L 95.768243 146.370736 
L 95.848082 146.318715 
L 95.961186 146.363306 
L 95.967839 146.355877 
L 96.140822 146.318715 
L 96.253926 146.341008 
L 96.26058 146.333579 
L 96.280539 146.311285 
L 96.293846 146.355877 
L 96.360378 146.363306 
L 96.466829 146.348442 
L 96.473482 146.326149 
L 97.850693 146.422757 
L 97.930531 146.430191 
L 97.890612 146.370736 
L 97.950491 146.400463 
L 98.030329 146.370736 
L 98.063595 146.415327 
L 98.143433 146.437616 
L 98.176699 146.415327 
L 98.216619 146.3856 
L 98.269844 146.44505 
L 98.289804 146.415327 
L 98.402908 146.459909 
L 98.409561 146.44505 
L 100.578502 146.526794 
L 100.585155 146.556522 
L 100.631728 146.511935 
L 100.684953 146.519365 
L 100.818017 146.526794 
L 100.957734 146.563956 
L 100.971041 146.541663 
L 101.104104 146.549088 
L 101.230515 146.541663 
L 101.363579 146.482203 
L 101.370232 146.489642 
L 101.529909 146.534228 
L 101.536562 146.526794 
L 101.556522 146.541663 
L 101.649666 146.526794 
L 101.789383 146.549088 
L 101.669626 146.504501 
L 101.80269 146.534228 
L 101.909141 146.497071 
L 101.922447 146.526794 
L 103.99159 146.615977 
L 104.064775 146.6457 
L 104.03151 146.57882 
L 104.098041 146.601113 
L 105.767993 146.697721 
L 105.861138 146.675423 
L 105.821219 146.6457 
L 105.874444 146.667989 
L 109.174428 146.757171 
L 109.181081 146.779465 
L 109.227654 146.712585 
L 109.274226 146.72001 
L 109.400637 146.705155 
L 109.413943 146.727453 
L 114.550208 146.816618 
L 114.610087 146.84635 
L 114.576821 146.801763 
L 114.656659 146.801763 
L 118.76168 146.898366 
L 118.768333 146.913234 
L 118.781639 146.861213 
L 118.854824 146.868648 
L 118.861478 146.838915 
L 118.934663 146.913234 
L 118.961275 146.890936 
L 126.84531 146.994974 
L 126.938454 147.039561 
L 126.871922 146.957821 
L 126.97172 146.972685 
L 138.767832 147.061859 
L 138.86763 147.069293 
L 138.84767 147.03214 
L 138.880936 147.054429 
L 141.056531 146.950387 
L 141.182941 146.965251 
L 141.309352 146.98011 
L 141.316005 146.957821 
L 141.40915 146.950387 
L 141.422456 146.957821 
L 141.442416 147.017272 
L 141.53556 146.98011 
L 141.635358 146.965251 
L 141.582133 147.024706 
L 141.648665 146.972685 
L 141.748463 147.009842 
L 141.761769 146.98011 
L 141.788382 147.002408 
L 141.881527 146.950387 
L 142.027897 147.009842 
L 142.101082 146.98011 
L 142.087776 146.942953 
L 142.114388 146.942953 
L 142.194227 146.972685 
L 142.147654 146.987549 
L 142.207533 146.994974 
L 142.300678 146.98011 
L 142.247452 146.920664 
L 142.313984 146.965251 
L 142.32729 146.935532 
L 142.407129 147.017272 
L 142.420435 146.987549 
L 142.533539 147.03214 
L 142.540193 147.017272 
L 142.65995 146.972685 
L 142.673257 146.98011 
L 148.441575 147.069293 
L 148.454882 147.099025 
L 148.481494 147.024706 
L 148.548026 147.039561 
L 151.016361 147.143612 
L 151.136118 147.128743 
L 151.029667 147.121314 
L 151.142772 147.121314 
L 159.818536 147.203053 
L 159.885068 147.225351 
L 159.851802 147.17333 
L 159.918334 147.17333 
L 160.038091 147.180764 
L 160.044744 147.188189 
L 160.157849 147.180764 
L 160.211074 147.217921 
L 160.277606 147.17333 
L 160.39071 147.195628 
L 160.310872 147.151032 
L 160.397364 147.188189 
L 160.503815 147.091582 
L 160.523774 147.136177 
L 160.683451 147.1659 
L 160.690104 147.158466 
L 178.207962 147.061859 
L 178.254535 147.099025 
L 178.321067 147.061859 
L 178.520662 147.1659 
L 178.527316 147.136177 
L 178.647073 147.054429 
L 178.673686 147.069293 
L 178.78679 147.106445 
L 178.800096 147.084156 
L 178.899894 147.151032 
L 178.93316 147.076727 
L 179.006345 147.03214 
L 178.959773 147.121314 
L 179.032958 147.11388 
L 179.066224 147.084156 
L 179.152716 147.11388 
L 179.172675 147.076727 
L 179.192635 147.136177 
L 179.26582 147.11388 
L 179.372271 147.084156 
L 179.392231 147.136177 
L 202.24595 147.232785 
L 202.259256 147.255074 
L 202.339095 147.158466 
L 202.345748 147.188189 
L 213.968877 147.106445 
L 213.97553 147.076727 
L 214.042062 147.158466 
L 214.068674 147.143612 
L 214.195085 147.158466 
L 214.201738 147.136177 
L 214.294883 147.143612 
L 214.314843 147.17333 
L 214.354762 147.180764 
L 214.334802 147.151032 
L 214.41464 147.128743 
L 214.574317 147.17333 
L 214.4346 147.099025 
L 214.587623 147.158466 
L 215.126532 147.11388 
L 215.133185 146.935532 
L 215.22633 147.388844 
L 215.445885 148.733927 
L 215.805158 150.116172 
L 216.064632 150.955928 
L 216.250922 151.46127 
L 216.729952 152.702316 
L 216.736605 152.687457 
L 216.776524 152.850954 
L 216.97612 153.252244 
L 217.12249 153.571799 
L 217.395271 154.099439 
L 217.561601 154.433844 
L 217.76785 154.864871 
L 217.821075 154.968913 
L 218.053937 155.385072 
L 218.300105 155.838378 
L 218.306759 155.830958 
L 218.359984 155.912702 
L 218.546274 156.254546 
L 218.566233 156.247116 
L 218.599499 156.351158 
L 218.612805 156.34372 
L 219.005344 157.005119 
L 219.065223 157.034856 
L 219.03861 157.064565 
L 219.078529 157.086863 
L 219.291431 157.436137 
L 219.298084 157.421278 
L 219.37127 157.495601 
L 219.550906 157.800288 
L 219.637397 157.896892 
L 219.936791 158.327919 
L 219.950097 158.298191 
L 220.009976 158.409672 
L 220.029936 158.409672 
L 222.212183 160.713417 
L 222.218836 160.705969 
L 222.225489 160.68368 
L 222.298675 160.780293 
L 222.431738 160.899194 
L 222.438392 160.869475 
L 222.511577 160.995806 
L 222.51823 160.988367 
L 222.544843 160.958649 
L 222.890809 161.248468 
L 222.910768 161.203881 
L 222.950688 161.300493 
L 222.99726 161.270766 
L 223.383145 161.582882 
L 223.389798 161.568032 
L 223.423064 161.553155 
L 223.482943 161.634908 
L 223.662579 161.805834 
L 223.669232 161.798396 
L 223.775684 161.776098 
L 223.689192 161.813264 
L 223.782337 161.790975 
L 223.908747 161.924726 
L 223.915401 161.917306 
L 224.108343 162.013909 
L 224.274673 162.117951 
L 224.58072 162.340885 
L 224.587373 162.318596 
L 224.613986 162.288878 
L 224.633945 162.340885 
L 224.693824 162.326026 
L 224.800275 162.430068 
L 224.880114 162.489523 
L 224.920033 162.467234 
L 224.933339 162.459795 
L 225.066403 162.556408 
L 225.073056 162.52668 
L 225.152895 162.608424 
L 225.166201 162.593565 
L 225.325878 162.697598 
L 225.512167 162.794219 
L 225.51882 162.749623 
L 225.718416 162.838806 
L 225.844827 162.957698 
L 225.85148 162.950277 
L 226.224059 163.054319 
L 226.270631 163.039451 
L 226.337163 163.084038 
L 226.663169 163.165791 
L 226.709742 163.225228 
L 226.776274 163.18808 
L 226.93595 163.299551 
L 226.989176 163.262385 
L 227.049055 163.306972 
L 227.10228 163.351568 
L 227.162159 163.314411 
L 227.401674 163.440741 
L 227.408327 163.433321 
L 227.514778 163.381295 
L 227.421633 163.440741 
L 227.528085 163.396154 
L 227.754293 163.500205 
L 227.814172 163.492767 
L 227.780906 163.515065 
L 227.860744 163.515065 
L 227.987155 163.552213 
L 227.993808 163.544792 
L 228.0803 163.522494 
L 228.106912 163.559652 
L 228.37304 163.656255 
L 228.432919 163.671123 
L 228.419612 163.633957 
L 228.479491 163.633957 
L 228.572636 163.648834 
L 228.492798 163.663684 
L 228.585942 163.678544 
L 229.084932 163.767726 
L 229.211342 163.834611 
L 229.304487 163.827181 
L 229.317794 163.864339 
L 230.202668 163.953521 
L 230.282507 163.998108 
L 230.309119 163.946083 
L 230.335732 163.97581 
L 230.408917 163.97581 
L 230.442183 164.012958 
L 230.515368 163.946083 
L 230.93452 164.027827 
L 230.967786 164.072413 
L 231.047624 164.042695 
L 231.167381 163.953521 
L 231.193994 163.97581 
L 231.287139 163.968371 
L 231.24722 163.908934 
L 231.300445 163.946083 
L 231.37363 163.968371 
L 231.420203 163.901487 
L 232.897212 163.998108 
L 232.97705 163.953521 
L 233.010316 163.998108 
L 233.096807 163.953521 
L 233.14338 164.012958 
L 237.215134 164.117 
L 237.221787 164.131878 
L 237.275013 164.035256 
L 237.308279 164.072413 
L 237.348198 164.027827 
L 237.428036 164.072413 
L 237.547794 164.064993 
L 237.447996 164.035256 
L 237.554447 164.057554 
L 237.674204 164.057554 
L 237.58106 164.087282 
L 237.687511 164.072413 
L 237.774002 164.057554 
L 237.793962 164.027827 
L 240.428626 163.938653 
L 240.455239 163.916364 
L 240.488505 163.960951 
L 240.535078 163.968371 
L 240.548384 163.946083 
L 240.688101 163.97581 
L 242.284867 163.901487 
L 242.344746 163.849479 
L 242.391319 163.886637 
L 242.417931 163.938653 
L 242.49777 163.879198 
L 242.62418 163.8569 
L 242.637487 163.879198 
L 242.797163 163.916364 
L 242.803817 163.901487 
L 244.214293 163.797463 
L 244.314091 163.804893 
L 244.267519 163.84205 
L 244.320745 163.812313 
L 244.447155 163.790015 
L 244.513687 163.782595 
L 244.467115 163.812313 
L 244.553606 163.804893 
L 244.646751 163.797463 
L 244.666711 163.767726 
L 244.773162 163.790015 
L 244.693323 163.804893 
L 244.779815 163.797463 
L 244.906226 163.84205 
L 244.926185 163.812313 
L 245.052596 163.760306 
L 245.172353 163.804893 
L 246.063881 163.700842 
L 246.1038 163.678544 
L 246.163679 163.745428 
L 246.176986 163.708271 
L 246.223558 163.790015 
L 246.303396 163.760306 
L 247.021941 163.663684 
L 247.135045 163.678544 
L 248.359233 163.663684 
L 248.359233 163.663684 
" clip-path="url(#pe48671267b)" style="fill: none; stroke: #000000; stroke-opacity: 0.5; stroke-width: 1.5; stroke-linecap: square"/>
   </g>
   <g id="line2d_16">
    <path d="M 45.450142 162.370613 
L 45.583206 162.392911 
L 45.470102 162.348324 
L 45.589859 162.363183 
L 45.649738 162.370613 
L 45.669697 162.422647 
L 45.676351 162.422647 
L 45.722923 162.400349 
L 45.796108 162.422647 
L 45.922519 162.363183 
L 45.935825 162.378051 
L 46.042276 162.415199 
L 45.962438 162.355762 
L 46.048929 162.400349 
L 46.1953 162.326026 
L 46.374936 162.370613 
L 46.48804 162.326026 
L 46.501347 162.355762 
L 48.796698 162.370613 
L 48.803351 162.64559 
L 48.889843 161.924726 
L 49.275728 158.535993 
L 51.078744 150.970788 
L 51.178542 150.710687 
L 51.531161 149.640568 
L 52.03015 148.35493 
L 52.036803 148.369799 
L 52.076723 148.228595 
L 52.289625 147.663808 
L 52.535793 147.069293 
L 52.682163 146.742308 
L 52.69547 146.749742 
L 54.325502 143.338706 
L 54.531751 142.944841 
L 54.771266 142.521253 
L 54.844451 142.417211 
L 55.07066 142.038209 
L 55.483158 141.413972 
L 55.656141 141.146433 
L 55.995454 140.6411 
L 56.022066 140.633666 
L 56.061985 140.559356 
L 56.068639 140.566781 
L 56.414605 140.046585 
L 56.48779 140.016858 
L 56.494443 139.994564 
L 56.667426 139.7196 
L 56.747264 139.615563 
L 57.791816 138.300193 
L 57.92488 138.114407 
L 57.958146 138.114407 
L 57.998065 138.047523 
L 58.244233 137.765134 
L 60.180312 135.743782 
L 60.186965 135.758641 
L 60.313376 135.691761 
L 60.44644 135.520839 
L 60.466399 135.550562 
L 60.532931 135.43909 
L 60.539585 135.446525 
L 60.566197 135.461384 
L 60.59281 135.379644 
L 60.61277 135.379644 
L 60.812365 135.18642 
L 60.898857 135.164131 
L 60.918817 135.141838 
L 61.118412 134.956052 
L 61.204904 134.866873 
L 61.324661 134.747972 
L 61.344621 134.762836 
L 61.351274 134.770261 
L 61.391193 134.703381 
L 61.411153 134.695947 
L 61.537564 134.584475 
L 61.544217 134.591909 
L 61.943408 134.25749 
L 61.950062 134.287222 
L 61.970021 134.302082 
L 62.023247 134.198044 
L 62.0299 134.198044 
L 62.182923 134.108866 
L 62.296028 134.041986 
L 62.302681 134.05685 
L 62.449051 133.952808 
L 62.582115 133.819038 
L 62.588768 133.833907 
L 62.721832 133.715001 
L 62.735138 133.722435 
L 63.227475 133.313701 
L 63.234128 133.321136 
L 63.240781 133.335995 
L 63.274047 133.246821 
L 63.320619 133.261681 
L 63.486949 133.083324 
L 63.513562 133.120486 
L 63.566788 133.046172 
L 63.586747 133.046172 
L 63.77969 132.964423 
L 63.786343 132.971857 
L 63.792996 132.986716 
L 63.839568 132.882679 
L 63.859528 132.882679 
L 64.019205 132.734046 
L 64.07243 132.741485 
L 64.099043 132.6746 
L 64.132309 132.711752 
L 64.252066 132.585422 
L 64.338558 132.533405 
L 64.265373 132.533405 
L 64.345211 132.525967 
L 64.731096 132.228709 
L 64.73775 132.243577 
L 64.744403 132.265871 
L 64.784322 132.154395 
L 64.824241 132.191556 
L 64.937345 132.161833 
L 64.990571 132.139535 
L 64.957305 132.124676 
L 65.017184 132.094949 
L 65.210126 132.028064 
L 65.21678 132.050362 
L 65.289965 131.95375 
L 65.303271 131.95375 
L 65.396416 131.924022 
L 65.336537 131.901729 
L 65.409722 131.909163 
L 65.649237 131.805121 
L 65.782301 131.693645 
L 65.795607 131.74567 
L 65.96859 131.641633 
L 66.101654 131.545021 
L 65.995203 131.671351 
L 66.108307 131.55988 
L 66.241371 131.493004 
L 66.248024 131.500434 
L 66.307903 131.500434 
L 66.274637 131.463272 
L 66.341169 131.463272 
L 66.401048 131.411256 
L 66.44762 131.448413 
L 66.454273 131.470706 
L 66.540765 131.381533 
L 66.554071 131.411256 
L 66.833505 131.21804 
L 66.919997 131.128862 
L 67.059714 131.032254 
L 67.252657 130.965369 
L 67.279269 130.913344 
L 67.332495 130.987663 
L 67.365761 130.928208 
L 67.631889 130.76472 
L 67.638542 130.787018 
L 67.651848 130.809311 
L 67.698421 130.712703 
L 67.731687 130.727558 
L 67.851444 130.742426 
L 67.86475 130.720128 
L 67.984508 130.638389 
L 67.997814 130.660682 
L 68.090959 130.668112 
L 68.097612 130.63095 
L 68.443578 130.348561 
L 68.450231 130.378284 
L 68.463538 130.408012 
L 68.523417 130.348561 
L 68.556683 130.363425 
L 68.683093 130.222226 
L 68.796198 130.251953 
L 68.82281 130.222226 
L 68.935915 130.133048 
L 68.942568 130.147907 
L 69.108898 130.043874 
L 69.148817 129.984414 
L 69.228655 130.021576 
L 69.241961 130.051299 
L 69.281881 129.962121 
L 69.30184 129.947262 
L 69.481476 129.895241 
L 69.315147 129.962121 
L 69.48813 129.902675 
L 69.607887 129.820926 
L 69.740951 129.702025 
L 69.774217 129.664864 
L 69.854055 129.664864 
L 70.020385 129.597988 
L 70.033691 129.612843 
L 70.133489 129.597988 
L 70.073611 129.553397 
L 70.140143 129.583124 
L 70.299819 129.449355 
L 70.306472 129.471648 
L 70.379658 129.50881 
L 70.40627 129.471648 
L 70.526028 129.389904 
L 70.532681 129.419632 
L 70.59256 129.345317 
L 70.625826 129.360176 
L 70.938526 129.159531 
L 71.03167 129.159531 
L 70.978445 129.122374 
L 71.038324 129.137238 
L 71.07159 129.077787 
L 71.118162 129.159531 
L 71.151428 129.114945 
L 71.257879 129.085212 
L 71.264532 129.077787 
L 71.404249 128.958882 
L 71.484088 129.010898 
L 71.524007 128.996039 
L 71.69699 128.862274 
L 71.816747 128.906861 
L 71.84336 128.862274 
L 71.923198 128.78796 
L 71.956464 128.735934 
L 72.022996 128.817687 
L 72.029649 128.802819 
L 72.17602 128.817687 
L 72.062915 128.765666 
L 72.182673 128.810248 
L 72.309084 128.713641 
L 72.435494 128.691347 
L 72.448801 128.721075 
L 72.721582 128.639331 
L 72.841339 128.572442 
L 72.847992 128.57988 
L 72.867952 128.617033 
L 72.887911 128.542723 
L 72.94779 128.535289 
L 73.42682 128.438677 
L 73.533271 128.379231 
L 73.553231 128.416383 
L 73.699601 128.446115 
L 73.712907 128.431252 
L 73.73952 128.46097 
L 73.845971 128.401524 
L 74.258469 128.304916 
L 74.38488 128.215738 
L 74.398186 128.245466 
L 74.411493 128.252891 
L 74.438105 128.193445 
L 74.484678 128.178576 
L 74.597782 128.096837 
L 74.511291 128.193445 
L 74.604435 128.12656 
L 74.71754 128.089398 
L 75.17661 127.985365 
L 75.329633 127.970497 
L 75.436084 128.022518 
L 75.356246 127.955633 
L 75.462697 128.007659 
L 76.314306 127.911051 
L 76.340919 127.940774 
L 76.42741 127.859025 
L 76.440717 127.911051 
L 76.520555 127.754988 
L 76.953013 127.65838 
L 77.05281 127.584061 
L 77.086076 127.621223 
L 77.2391 127.524615 
L 77.345551 127.472594 
L 77.365511 127.502322 
L 77.412083 127.561768 
L 77.485268 127.509747 
L 77.505228 127.539475 
L 77.611679 127.457731 
L 77.651598 127.509747 
L 77.691517 127.428008 
L 77.724783 127.480029 
L 77.84454 127.353689 
L 77.857847 127.383416 
L 77.891113 127.413144 
L 77.931032 127.316536 
L 77.937685 127.323961 
L 78.037483 127.264515 
L 78.057443 127.294243 
L 78.084055 127.279374 
L 78.1772 127.323961 
L 78.310264 127.219928 
L 78.416715 127.257081 
L 78.430022 127.249651 
L 78.622964 127.167903 
L 78.736068 127.108457 
L 78.742722 127.115882 
L 78.769334 127.078729 
L 78.882439 127.123311 
L 79.008849 127.048997 
L 78.902398 127.13075 
L 79.015503 127.056436 
L 79.44796 126.952394 
L 79.454613 126.922671 
L 79.507839 127.011844 
L 79.547758 127.00441 
L 79.660862 127.056436 
L 79.59433 126.989551 
L 79.667515 127.048997 
L 79.800579 126.974687 
L 79.807233 126.996985 
L 79.820539 127.026704 
L 79.90703 126.944964 
L 80.119933 126.848356 
L 80.126586 126.87808 
L 80.213077 126.796331 
L 80.226384 126.818624 
L 80.505818 126.647707 
L 80.512471 126.662571 
L 80.73868 126.565954 
L 80.845131 126.536235 
L 80.851784 126.565954 
L 80.911663 126.573392 
L 80.944929 126.521367 
L 81.064686 126.447053 
L 81.204403 126.439627 
L 81.330814 126.499074 
L 81.337467 126.551099 
L 81.430612 126.424759 
L 81.749965 126.20925 
L 81.756618 126.21668 
L 81.763271 126.246403 
L 81.783231 126.134936 
L 81.849763 126.172089 
L 81.869722 126.105208 
L 81.956214 126.157229 
L 82.095931 126.238973 
L 82.102584 126.21668 
L 82.787863 126.112642 
L 82.980806 126.038324 
L 83.107216 126.08291 
L 83.147136 126.08291 
L 83.187055 126.008596 
L 83.519714 125.919422 
L 83.666085 125.800517 
L 83.692697 125.852538 
L 83.765883 125.7485 
L 83.779189 125.763364 
L 84.018704 125.629599 
L 84.045317 125.68162 
L 84.085236 125.592437 
L 84.125155 125.614731 
L 84.145115 125.570144 
L 84.284832 125.629599 
L 84.404589 125.547851 
L 84.417896 125.562714 
L 84.817087 125.466107 
L 84.950151 125.317473 
L 84.970111 125.376928 
L 84.996723 125.376928 
L 85.023336 125.310048 
L 85.049949 125.310048 
L 85.1564 125.272887 
L 85.17636 125.29518 
L 85.30277 125.310048 
L 85.575551 125.466107 
L 85.728575 125.287755 
L 85.735228 125.280321 
L 85.775147 125.369499 
L 85.808413 125.362065 
L 86.054581 125.272887 
L 86.227564 125.079671 
L 86.334015 125.094535 
L 86.340668 125.146556 
L 86.447119 125.131687 
L 86.513651 125.183708 
L 86.560224 125.109394 
L 86.626756 125.146556 
L 86.679981 125.116828 
L 86.693288 125.131687 
L 87.005988 124.916183 
L 87.431792 124.812137 
L 87.731186 124.537177 
L 87.777758 124.589198 
L 87.944088 124.663512 
L 87.957394 124.633785 
L 88.097111 124.544611 
L 88.482997 124.23992 
L 88.496303 124.254779 
L 88.589448 124.269647 
L 88.616061 124.232485 
L 88.709205 124.195333 
L 88.729165 124.232485 
L 88.749124 124.269647 
L 88.795697 124.150742 
L 88.82231 124.165601 
L 89.001946 123.950092 
L 89.048518 123.994683 
L 89.108397 123.927794 
L 89.321299 123.83862 
L 89.327952 123.853484 
L 89.374525 123.771736 
L 89.401137 123.771736 
L 89.407791 123.756876 
L 89.441057 123.816322 
L 89.487629 123.831191 
L 89.607386 123.853484 
L 89.627346 123.823761 
L 89.780369 123.682562 
L 89.846901 123.593384 
L 89.986618 123.474483 
L 89.993272 123.489342 
L 90.345891 123.221812 
L 90.359197 123.236671 
L 90.419076 123.288692 
L 90.465648 123.229246 
L 90.638631 122.872534 
L 90.651938 122.909691 
L 90.725123 122.805653 
L 91.443668 121.839567 
L 91.590038 121.259916 
L 91.709795 119.357461 
L 91.769674 92.121251 
L 91.882778 14.76 
L 91.955964 31.421281 
L 92.355155 134.116296 
L 92.541445 137.713113 
L 92.581364 137.757704 
L 92.61463 137.653658 
L 93.71906 132.102378 
L 93.951922 131.671351 
L 93.958575 131.67879 
L 94.337807 131.374094 
L 94.351113 131.396387 
L 94.464217 131.470706 
L 94.484177 131.403826 
L 94.517443 131.418685 
L 94.597281 131.388962 
L 94.723692 131.463272 
L 94.949901 131.574744 
L 94.956554 131.55988 
L 94.963207 131.522727 
L 94.996473 131.574744 
L 95.063005 131.574744 
L 95.255947 131.67879 
L 95.375705 131.74567 
L 95.754937 132.028064 
L 95.76159 132.013205 
L 95.914614 132.109808 
L 96.021065 132.198986 
L 96.041024 132.191556 
L 96.047678 132.161833 
L 96.140822 132.251002 
L 96.24062 132.288164 
L 96.247273 132.295594 
L 96.393644 132.414495 
L 96.480135 132.429363 
L 96.413603 132.444227 
L 96.493441 132.459086 
L 96.613199 132.563128 
L 96.646465 132.533405 
L 96.69969 132.659736 
L 96.905939 132.748914 
L 97.019044 132.830663 
L 97.039003 132.815799 
L 97.444848 133.157643 
L 97.458154 133.142779 
L 97.557952 133.113056 
L 97.504727 133.172502 
L 97.571259 133.142779 
L 97.717629 133.298842 
L 97.817427 133.291404 
L 97.837387 133.328565 
L 97.97045 133.447466 
L 97.983757 133.440037 
L 97.99041 133.425173 
L 98.056942 133.499487 
L 98.070248 133.499487 
L 98.096861 133.477189 
L 98.229925 133.5961 
L 98.46944 133.677839 
L 98.61581 133.833907 
L 98.708955 133.819038 
L 98.675689 133.885918 
L 98.728914 133.841332 
L 98.861978 133.952808 
L 98.881938 133.937939 
L 98.908551 133.930514 
L 98.941817 134.004824 
L 98.968429 134.012258 
L 99.207944 134.146019 
L 99.214598 134.131164 
L 99.221251 134.108866 
L 99.301089 134.18318 
L 99.321049 134.160887 
L 99.55391 134.25749 
L 99.746853 134.361537 
L 99.879917 134.435851 
L 99.893223 134.428421 
L 100.232536 134.532454 
L 100.34564 134.584475 
L 100.265802 134.502736 
L 100.358947 134.562182 
L 100.38556 134.532454 
L 100.405519 134.599344 
L 100.458745 134.591909 
L 100.565196 134.65136 
L 100.585155 134.614207 
L 100.731526 134.703381 
L 100.771445 134.688522 
L 100.851283 134.762836 
L 100.904509 134.733109 
L 100.957734 134.807423 
L 101.237168 134.896601 
L 101.32366 134.970915 
L 101.356926 134.941188 
L 101.576481 135.037796 
L 101.682932 135.052659 
L 101.629707 135.000634 
L 101.696239 135.045225 
L 101.815996 135.037796 
L 101.729505 135.082387 
L 101.829303 135.060094 
L 102.015592 135.126974 
L 102.022245 135.112105 
L 102.414784 135.216152 
L 102.554501 135.260739 
L 102.601073 135.283037 
L 102.667605 135.260739 
L 102.880507 135.349917 
L 102.88716 135.342483 
L 102.90712 135.320189 
L 102.980305 135.401938 
L 103.040184 135.342483 
L 103.086756 135.387074 
L 103.253086 135.327623 
L 103.266392 135.349917 
L 103.379497 135.394504 
L 103.392803 135.379644 
L 103.51256 135.394504 
L 103.519214 135.401938 
L 103.665584 135.461384 
L 103.805301 135.431665 
L 103.818607 135.453959 
L 103.931712 135.476252 
L 103.86518 135.416797 
L 103.938365 135.468823 
L 104.064775 135.446525 
L 104.084735 135.468823 
L 105.288963 135.557996 
L 105.335535 135.632311 
L 105.408721 135.617451 
L 105.468599 135.684331 
L 105.521825 135.617451 
L 105.528478 135.580294 
L 105.601663 135.654608 
L 105.628276 135.624876 
L 107.038753 135.728923 
L 107.052059 135.758641 
L 107.078672 135.714054 
L 107.145204 135.728923 
L 107.231696 135.706625 
L 107.251655 135.751216 
L 107.271615 135.706625 
L 107.364759 135.736348 
L 107.524436 135.77351 
L 107.531089 135.76608 
L 107.610928 135.728923 
L 107.650847 135.751216 
L 107.690766 135.721489 
L 107.770604 135.751216 
L 107.903668 135.751216 
L 108.003466 135.721489 
L 108.016772 135.736348 
L 108.050038 135.77351 
L 108.123223 135.714054 
L 108.13653 135.699195 
L 108.189755 135.758641 
L 108.216368 135.76608 
L 110.238939 135.662038 
L 110.312124 135.654608 
L 110.305471 135.699195 
L 110.34539 135.684331 
L 112.687314 135.587724 
L 112.733886 135.617451 
L 112.813725 135.543137 
L 112.926829 135.602583 
L 112.940135 135.557996 
L 114.277427 135.461384 
L 114.297387 135.476252 
L 114.383878 135.461384 
L 114.483676 135.505975 
L 114.503636 135.476252 
L 114.610087 135.446525 
L 114.523595 135.513409 
L 114.623393 135.476252 
L 114.663313 135.468823 
L 114.743151 135.520839 
L 114.989319 135.401938 
L 115.109076 135.461384 
L 115.11573 135.446525 
L 115.24214 135.461384 
L 115.288713 135.394504 
L 115.361898 135.409367 
L 115.388511 135.43909 
L 115.528228 135.379644 
L 115.601413 135.424231 
L 115.647985 135.401938 
L 115.747783 135.401938 
L 115.72117 135.453959 
L 115.754436 135.416797 
L 115.827621 135.394504 
L 115.767743 135.401938 
L 115.840928 135.37221 
L 115.894153 135.349917 
L 115.90746 135.401938 
L 115.954032 135.379644 
L 116.093749 135.335053 
L 116.107055 135.357351 
L 116.213507 135.379644 
L 116.160281 135.320189 
L 116.226813 135.364776 
L 116.878826 135.260739 
L 116.978624 135.290466 
L 116.898785 135.283037 
L 116.985277 135.30533 
L 117.025196 135.297891 
L 117.071769 135.238445 
L 117.870152 135.149267 
L 117.94999 135.231011 
L 117.983256 135.141838 
L 119.653208 135.037796 
L 119.753005 135.030366 
L 119.67982 135.082387 
L 119.772965 135.067519 
L 119.879416 135.052659 
L 119.892722 135.037796 
L 120.917314 134.956052 
L 120.97054 134.970915 
L 121.030419 134.948617 
L 121.110257 134.941188 
L 121.076991 134.970915 
L 121.130216 134.993209 
L 121.13687 135.015502 
L 121.196748 134.911465 
L 121.216708 134.918894 
L 121.316506 134.889167 
L 121.329812 134.911465 
L 121.369731 134.948617 
L 121.436263 134.881733 
L 121.469529 134.911465 
L 121.549368 134.896601 
L 121.675778 134.904026 
L 121.795536 134.85201 
L 122.633838 134.762836 
L 122.726983 134.740534 
L 122.693717 134.785129 
L 122.746942 134.762836 
L 122.766902 134.725679 
L 122.853394 134.725679 
L 122.999764 134.688522 
L 123.006417 134.71824 
L 123.099562 134.71824 
L 123.112868 134.681088 
L 123.265892 134.673653 
L 123.438875 134.703381 
L 123.532019 134.688522 
L 123.558632 134.733109 
L 124.064275 134.65136 
L 124.084234 134.584475 
L 124.170726 134.64393 
L 124.184032 134.636501 
L 124.297136 134.673653 
L 124.436854 134.629062 
L 124.549958 134.658794 
L 124.629796 134.584475 
L 124.589877 134.673653 
L 124.676369 134.614207 
L 126.206603 134.532454 
L 126.239869 134.487868 
L 126.293094 134.584475 
L 126.313054 134.539888 
L 126.452771 134.532454 
L 127.543895 134.435851 
L 127.61708 134.368966 
L 127.656999 134.406124 
L 128.442076 134.309516 
L 128.528567 134.25749 
L 128.55518 134.294652 
L 129.446708 134.198044 
L 129.573119 134.18318 
L 129.726142 134.198044 
L 129.905778 134.138594 
L 129.912432 134.153457 
L 129.965657 134.18318 
L 130.018883 134.123725 
L 130.065455 134.086573 
L 130.125334 134.146019 
L 130.650936 134.041986 
L 130.790653 134.049411 
L 130.917064 134.064279 
L 130.983596 134.034552 
L 131.003555 134.101436 
L 131.023515 134.071704 
L 131.030168 134.086573 
L 131.043475 134.019692 
L 131.123313 134.027118 
L 131.302949 133.967672 
L 131.309602 134.004824 
L 131.396094 133.937939 
L 131.4094 133.975101 
L 131.529158 133.930514 
L 131.582383 133.967672 
L 131.622302 133.878493 
L 131.628956 133.893357 
L 131.655568 133.92308 
L 131.728753 133.908216 
L 131.748713 133.967672 
L 131.781979 133.885918 
L 131.835205 133.900787 
L 131.988228 133.930514 
L 131.994881 133.915646 
L 132.088026 133.878493 
L 132.114639 133.915646 
L 132.194477 133.92308 
L 132.214437 133.885918 
L 132.314234 133.8562 
L 132.320888 133.885918 
L 132.433992 133.930514 
L 132.36746 133.8562 
L 132.447298 133.915646 
L 132.68016 133.819038 
L 132.793264 133.833907 
L 132.806571 133.796745 
L 134.569667 133.707567 
L 134.589627 133.66298 
L 134.676118 133.72986 
L 135.51442 133.633252 
L 135.620872 133.618393 
L 135.547686 133.66298 
L 135.627525 133.625823 
L 135.707363 133.640686 
L 135.674097 133.5961 
L 135.733976 133.618393 
L 135.747282 133.625823 
L 135.84708 133.603529 
L 135.880346 133.66298 
L 135.933572 133.581236 
L 135.960184 133.603529 
L 136.066636 133.603529 
L 136.086595 133.625823 
L 136.106555 133.603529 
L 136.219659 133.633252 
L 136.239619 133.640686 
L 136.339416 133.5961 
L 136.445868 133.5961 
L 136.459174 133.566368 
L 137.230944 133.462335 
L 137.337395 133.432607 
L 137.344049 133.440037 
L 137.383968 133.425173 
L 137.463806 133.484628 
L 137.556951 133.432607 
L 137.57691 133.447466 
L 137.696668 133.46976 
L 137.709974 133.447466 
L 137.789813 133.46976 
L 137.843038 133.343429 
L 138.002715 133.402875 
L 138.022674 133.380582 
L 138.149085 133.365722 
L 139.918834 133.261681 
L 140.025286 133.254251 
L 139.932141 133.276549 
L 140.031939 133.26911 
L 140.131737 133.283978 
L 140.071858 133.246821 
L 140.13839 133.26911 
L 140.178309 133.224528 
L 140.204922 133.298842 
L 140.244841 133.261681 
L 140.351292 133.298842 
L 140.364598 133.276549 
L 140.863588 133.187371 
L 140.883548 133.217089 
L 140.976692 133.194796 
L 141.069837 133.179937 
L 141.023265 133.231958 
L 141.089797 133.202234 
L 142.18092 133.098193 
L 142.194227 133.068465 
L 142.220839 133.165077 
L 142.287371 133.127916 
L 142.407129 133.127916 
L 142.420435 133.113056 
L 143.924057 133.023878 
L 143.970629 132.986716 
L 144.017202 133.083324 
L 144.023855 133.061031 
L 144.090387 133.053601 
L 144.070427 133.016449 
L 144.123653 133.016449 
L 144.163572 132.971857 
L 144.230104 133.046172 
L 144.329902 132.986716 
L 144.369821 133.046172 
L 144.496232 133.061031 
L 144.509538 133.046172 
L 144.609336 133.016449 
L 144.615989 133.038742 
L 144.735746 133.098193 
L 144.968608 133.001585 
L 146.112957 132.897538 
L 146.13957 132.956993 
L 146.212755 132.94213 
L 146.365779 132.949564 
L 146.445617 132.92727 
L 146.478883 132.956993 
L 146.518802 132.979291 
L 146.585334 132.94213 
L 146.778277 132.86782 
L 146.818196 132.94213 
L 146.898034 132.897538 
L 146.944607 132.9347 
L 147.017792 132.882679 
L 147.11759 132.904977 
L 147.084324 132.852952 
L 147.137549 132.897538 
L 147.450249 132.793505 
L 147.456903 132.763778 
L 147.490169 132.852952 
L 147.543394 132.852952 
L 147.563354 132.875245 
L 147.629886 132.800931 
L 147.656498 132.845522 
L 147.782909 132.823224 
L 147.789562 132.830663 
L 147.836135 132.890113 
L 147.902667 132.875245 
L 148.215367 132.778637 
L 148.22202 132.763778 
L 148.288552 132.86782 
L 148.315164 132.815799 
L 149.872012 132.711752 
L 149.945197 132.719191 
L 149.965156 132.763778 
L 150.710314 132.682034 
L 150.716967 132.652306 
L 150.750233 132.719191 
L 150.816765 132.689459 
L 150.983095 132.711752 
L 152.333693 132.615145 
L 152.400225 132.644872 
L 152.446798 132.600285 
L 152.533289 132.615145 
L 152.559902 132.600285 
L 152.613127 132.652306 
L 152.666353 132.615145 
L 152.779457 132.667166 
L 152.719578 132.585422 
L 152.792764 132.659736 
L 156.571777 132.570558 
L 156.591737 132.533405 
L 156.684882 132.563128 
L 156.804639 132.511107 
L 156.831252 132.563128 
L 159.026806 132.48138 
L 159.060072 132.444227 
L 159.133257 132.48138 
L 159.226402 132.46652 
L 159.239708 132.436788 
L 159.253014 132.407065 
L 159.266321 132.451657 
L 159.339506 132.46652 
L 159.465917 132.47395 
L 159.47257 132.459086 
L 159.559061 132.511107 
L 159.585674 132.46652 
L 159.692125 132.496248 
L 159.59898 132.451657 
L 159.712085 132.451657 
L 159.805229 132.46652 
L 159.825189 132.488814 
L 159.938293 132.451657 
L 163.477792 132.369913 
L 163.491099 132.325321 
L 163.550977 132.414495 
L 163.584243 132.369913 
L 163.710654 132.384772 
L 163.717307 132.355049 
L 163.89029 132.288164 
L 163.730613 132.377342 
L 163.896943 132.317887 
L 163.976782 132.2733 
L 164.010048 132.303028 
L 164.129805 132.258441 
L 164.136458 132.2733 
L 164.256216 132.377342 
L 164.302788 132.303028 
L 164.462465 132.288164 
L 167.003985 132.362474 
L 167.030597 132.347619 
L 167.117089 132.384772 
L 167.196927 132.377342 
L 167.22354 132.340181 
L 167.316685 132.325321 
L 167.290072 132.369913 
L 167.336644 132.332756 
L 167.449749 132.347619 
L 167.469708 132.377342 
L 167.489668 132.332756 
L 167.562853 132.340181 
L 167.642691 132.355049 
L 167.589466 132.288164 
L 167.669304 132.332756 
L 167.735836 132.369913 
L 167.802368 132.295594 
L 167.982004 132.347619 
L 168.088455 132.295594 
L 168.01527 132.392206 
L 168.095108 132.310462 
L 168.221519 132.377342 
L 168.135027 132.288164 
L 168.228172 132.369913 
L 168.354583 132.310462 
L 168.407808 132.332756 
L 168.367889 132.288164 
L 168.467687 132.303028 
L 168.560832 132.288164 
L 168.574138 132.310462 
L 168.587445 132.355049 
L 168.634017 132.295594 
L 168.687243 132.325321 
L 168.780387 132.332756 
L 168.800347 132.355049 
L 168.880185 132.384772 
L 168.913451 132.355049 
L 169.053168 132.362474 
L 169.186232 132.288164 
L 169.61869 132.384772 
L 169.625343 132.407065 
L 169.705181 132.310462 
L 169.76506 132.369913 
L 169.798326 132.355049 
L 169.904777 132.377342 
L 169.858205 132.332756 
L 169.91143 132.362474 
L 171.308601 132.258441 
L 171.441665 132.176688 
L 171.448318 132.206416 
L 171.548116 132.2733 
L 171.574728 132.243577 
L 171.667873 132.206416 
L 171.634607 132.280735 
L 171.687833 132.251002 
L 175.114227 132.161833 
L 175.174106 132.206416 
L 175.233985 132.132101 
L 179.09949 132.035498 
L 179.199288 132.013205 
L 179.11945 132.072655 
L 179.212594 132.050362 
L 179.219248 132.102378 
L 179.28578 132.028064 
L 179.319046 132.050362 
L 179.445456 131.983477 
L 179.565214 132.042923 
L 179.704931 132.028064 
L 179.804729 132.035498 
L 179.738197 131.990902 
L 179.818035 132.02063 
L 181.514599 131.916592 
L 181.62105 131.961184 
L 181.694236 131.95375 
L 181.667623 131.872006 
L 181.714195 131.924022 
L 181.800687 131.894299 
L 181.833953 131.924022 
L 181.986976 131.879431 
L 181.993629 131.886869 
L 182.10008 131.93889 
L 182.040202 131.872006 
L 182.113387 131.901729 
L 182.785359 131.81255 
L 182.811972 131.849712 
L 182.905117 131.767959 
L 182.978302 131.842278 
L 183.011568 131.782823 
L 183.038181 131.753104 
L 183.071447 131.827419 
L 183.118019 131.81255 
L 183.264389 131.81255 
L 186.218407 131.715943 
L 186.24502 131.67879 
L 186.278286 131.760529 
L 186.331511 131.701083 
L 186.444616 131.760529 
L 186.457922 131.723377 
L 186.531107 131.693645 
L 186.484535 131.74567 
L 186.564373 131.74567 
L 189.831091 131.656492 
L 189.89097 131.626765 
L 189.87101 131.671351 
L 189.944195 131.649058 
L 189.964155 131.634199 
L 190.063953 131.671351 
L 190.163751 131.634199 
L 190.177057 131.671351 
L 190.310121 131.67879 
L 190.356693 131.611905 
L 190.429878 131.649058 
L 190.463144 131.626765 
L 190.53633 131.671351 
L 190.656087 131.589612 
L 190.66274 131.597042 
L 190.822417 131.574744 
L 190.908908 131.626765 
L 190.935521 131.574744 
L 191.128464 131.634199 
L 191.234915 131.574744 
L 191.254874 131.604471 
L 191.314753 131.611905 
L 191.348019 131.55988 
L 191.354672 131.567319 
L 191.47443 131.574744 
L 191.501043 131.634199 
L 191.580881 131.567319 
L 191.667372 131.55988 
L 191.693985 131.582173 
L 191.820396 131.619335 
L 191.727251 131.545021 
L 191.827049 131.611905 
L 191.986726 131.589612 
L 192.026645 131.55245 
L 192.106483 131.604471 
L 192.272813 131.567319 
L 192.279466 131.574744 
L 195.173605 131.47814 
L 195.293363 131.433549 
L 195.300016 131.455847 
L 195.426427 131.493004 
L 195.439733 131.426119 
L 195.539531 131.470706 
L 195.652635 131.545021 
L 195.665942 131.515298 
L 195.74578 131.47814 
L 195.785699 131.515298 
L 195.799005 131.545021 
L 195.845578 131.440979 
L 195.89215 131.493004 
L 196.018561 131.522727 
L 196.07844 131.485565 
L 196.131665 131.515298 
L 196.278035 131.463272 
L 196.284689 131.47814 
L 196.39114 131.500434 
L 196.357874 131.448413 
L 196.397793 131.493004 
L 197.169563 131.388962 
L 197.196176 131.374094 
L 197.249402 131.455847 
L 197.282668 131.418685 
L 197.375812 131.440979 
L 197.462304 131.426119 
L 197.395772 131.455847 
L 197.482263 131.455847 
L 197.615327 131.47814 
L 197.701819 131.396387 
L 197.728432 131.403826 
L 197.854842 131.507859 
L 197.868149 131.485565 
L 197.987906 131.507859 
L 198.001212 131.47814 
L 198.081051 131.470706 
L 198.061091 131.545021 
L 198.107664 131.507859 
L 198.147583 131.574744 
L 198.220768 131.500434 
L 198.340525 131.418685 
L 198.353832 131.470706 
L 198.373791 131.448413 
L 198.466936 131.440979 
L 198.586693 131.433549 
L 198.593347 131.448413 
L 198.713104 131.500434 
L 198.74637 131.463272 
L 198.806249 131.545021 
L 198.826208 131.500434 
L 198.839515 131.485565 
L 198.959272 131.485565 
L 199.07903 131.507859 
L 199.172174 131.522727 
L 199.192134 131.47814 
L 199.318545 131.426119 
L 199.20544 131.493004 
L 199.338504 131.455847 
L 199.418343 131.470706 
L 199.37177 131.440979 
L 199.444955 131.448413 
L 199.564713 131.448413 
L 199.578019 131.463272 
L 200.369749 131.55988 
L 200.442934 131.574744 
L 200.482854 131.545021 
L 200.615917 131.463272 
L 200.755635 131.507859 
L 200.882045 131.433549 
L 201.015109 131.537591 
L 201.041722 131.55245 
L 201.128213 131.522727 
L 201.28789 131.55988 
L 201.294543 131.55245 
L 201.500792 131.463272 
L 201.507445 131.47814 
L 202.771552 131.574744 
L 202.798165 131.604471 
L 202.824778 131.545021 
L 202.878003 131.567319 
L 203.077599 131.47814 
L 203.084252 131.485565 
L 203.210663 131.500434 
L 203.303808 131.537591 
L 203.33042 131.470706 
L 203.35038 131.440979 
L 203.423565 131.522727 
L 209.191884 131.433549 
L 209.258416 131.396387 
L 209.211843 131.455847 
L 209.298335 131.463272 
L 209.391479 131.530157 
L 209.431399 131.500434 
L 209.597728 131.411256 
L 209.617688 131.455847 
L 209.677567 131.493004 
L 209.730792 131.470706 
L 215.126532 131.485565 
L 215.133185 131.195747 
L 215.22633 131.872006 
L 215.652134 135.751216 
L 216.057979 138.062391 
L 217.834382 145.501261 
L 217.894261 145.716766 
L 218.180348 146.690287 
L 218.426516 147.500315 
L 218.699297 148.399517 
L 219.710582 151.409244 
L 219.757155 151.505857 
L 219.990016 152.182115 
L 220.023282 152.263859 
L 220.222878 152.798928 
L 220.229531 152.784069 
L 220.269451 152.947557 
L 222.611375 157.91176 
L 222.6646 158.015802 
L 222.930728 158.461679 
L 223.090405 158.729209 
L 223.576088 159.546667 
L 223.655926 159.650709 
L 224.294633 160.527622 
L 224.567414 160.876896 
L 224.667211 160.966069 
L 224.820235 161.21131 
L 224.926686 161.300493 
L 225.073056 161.456561 
L 226.536759 162.942839 
L 226.576678 162.9354 
L 226.583331 162.965137 
L 226.636557 162.987435 
L 226.769621 163.121195 
L 226.776274 163.106336 
L 227.295223 163.537363 
L 227.308529 163.507626 
L 227.361755 163.58937 
L 227.395021 163.58937 
L 227.568004 163.678544 
L 227.694414 163.804893 
L 227.780906 163.84205 
L 227.714374 163.834611 
L 227.787559 163.8569 
L 227.907317 163.953521 
L 227.91397 163.931223 
L 227.987155 164.035256 
L 228.007114 163.998108 
L 228.126872 164.087282 
L 228.133525 164.079843 
L 228.319815 164.183885 
L 228.579289 164.347382 
L 228.353081 164.146728 
L 228.592595 164.332523 
L 228.639168 164.339943 
L 228.68574 164.391978 
L 228.845417 164.481151 
L 228.925255 164.585184 
L 228.965174 164.562886 
L 228.971828 164.540597 
L 229.051666 164.62978 
L 229.058319 164.62978 
L 229.18473 164.696665 
L 229.091585 164.614921 
L 229.191383 164.689226 
L 229.277874 164.659508 
L 229.304487 164.696665 
L 229.577268 164.837855 
L 229.583921 164.808136 
L 229.617187 164.867573 
L 229.677066 164.867573 
L 229.830089 164.971615 
L 229.836743 164.956756 
L 230.049645 165.053368 
L 230.12283 165.083087 
L 230.096217 165.008782 
L 230.162749 165.04593 
L 230.309119 165.105385 
L 230.541981 165.209436 
L 230.608513 165.246593 
L 230.655085 165.201997 
L 230.841375 165.320898 
L 230.867988 165.276302 
L 230.967786 165.276302 
L 230.887947 165.2986 
L 230.974439 165.2986 
L 231.040971 165.372915 
L 231.107503 165.335767 
L 231.320405 165.42494 
L 231.360324 165.387774 
L 231.433509 165.43237 
L 231.752862 165.536412 
L 231.846007 165.55128 
L 231.799435 165.499246 
L 231.865967 165.536412 
L 231.99903 165.528982 
L 231.892579 165.573569 
L 232.005684 165.536412 
L 232.152054 165.618165 
L 232.258505 165.603297 
L 232.265158 165.610717 
L 232.384916 165.662752 
L 232.398222 165.655313 
L 232.47806 165.618165 
L 232.504673 165.662752 
L 232.524633 165.633015 
L 232.631084 165.677602 
L 232.66435 165.640454 
L 232.757495 165.662752 
L 232.764148 165.647883 
L 232.837333 165.729636 
L 232.857292 165.707338 
L 232.930478 165.737057 
L 232.883905 165.69247 
L 232.970397 165.6999 
L 233.150033 165.751925 
L 233.256484 165.744487 
L 233.263137 165.766784 
L 233.349629 165.766784 
L 233.369588 165.796512 
L 233.376242 165.81881 
L 233.43612 165.729636 
L 233.469386 165.774223 
L 233.582491 165.737057 
L 233.535918 165.811371 
L 233.595797 165.759346 
L 233.782086 165.81881 
L 233.881884 165.796512 
L 233.888537 165.81881 
L 234.014948 165.855958 
L 234.108093 165.848528 
L 234.054867 165.878256 
L 234.128052 165.863397 
L 238.552426 165.759346 
L 238.572386 165.811371 
L 238.66553 165.789073 
L 238.805247 165.811371 
L 238.8119 165.796512 
L 238.97823 165.759346 
L 238.984884 165.766784 
L 238.99819 165.789073 
L 239.071375 165.707338 
L 239.078028 165.707338 
L 239.097988 165.781644 
L 239.171173 165.766784 
L 239.809879 165.677602 
L 239.883065 165.662752 
L 239.843145 165.714759 
L 239.909677 165.6999 
L 239.942943 165.729636 
L 239.969556 165.662752 
L 240.016128 165.68504 
L 240.135886 165.647883 
L 240.195765 165.610717 
L 240.262297 165.68504 
L 240.308869 165.69247 
L 240.328829 165.633015 
L 240.362095 165.662752 
L 240.441933 165.618165 
L 240.481852 165.662752 
L 241.087293 165.588428 
L 241.093946 165.543841 
L 241.127212 165.625594 
L 241.193744 165.581008 
L 241.300195 165.573569 
L 241.306848 165.55871 
L 241.386686 165.506693 
L 241.346767 165.573569 
L 241.426605 165.528982 
L 241.486484 165.56613 
L 241.513097 165.499246 
L 241.533057 165.514123 
L 241.66612 165.469536 
L 241.679427 165.491825 
L 241.765918 165.514123 
L 241.719346 165.469536 
L 241.792531 165.491825 
L 242.537689 165.387774 
L 242.604221 165.410072 
L 242.62418 165.454659 
L 242.630833 165.469536 
L 242.657446 165.380353 
L 242.710672 165.402651 
L 242.830429 165.343187 
L 242.870348 165.417502 
L 242.943534 165.343187 
L 242.970146 165.417502 
L 243.069944 165.358065 
L 243.209661 165.350617 
L 243.382644 165.320898 
L 244.074576 165.216856 
L 244.087883 165.194558 
L 244.114496 165.261443 
L 244.174374 165.261443 
L 244.387277 165.15741 
L 244.400583 165.149972 
L 244.427196 165.209436 
L 244.460462 165.216856 
L 244.493728 165.254014 
L 244.546953 165.187138 
L 244.566913 165.194558 
L 244.626791 165.142551 
L 244.68667 165.179708 
L 244.799775 165.209436 
L 244.739896 165.135121 
L 244.813081 165.194558 
L 244.966104 165.135121 
L 244.979411 165.16484 
L 245.105821 165.187138 
L 245.112475 165.16484 
L 245.238885 165.083087 
L 245.245538 165.090526 
L 246.369928 164.986493 
L 246.449766 164.971615 
L 246.483032 164.993913 
L 246.516298 164.964195 
L 246.60279 165.023641 
L 246.802386 164.941897 
L 246.888877 164.979045 
L 246.91549 164.934458 
L 247.028594 164.904731 
L 247.035247 164.919608 
L 247.893509 164.837855 
L 247.999961 164.815566 
L 247.913469 164.845285 
L 248.006614 164.830425 
L 248.359233 164.793268 
L 248.359233 164.793268 
" clip-path="url(#pe48671267b)" style="fill: none; stroke: #000000; stroke-opacity: 0.5; stroke-width: 1.5; stroke-linecap: square"/>
   </g>
   <g id="patch_3">
    <path d="M 35.304688 173.52 
L 35.304688 7.2 
" style="fill: none; stroke: #000000; stroke-width: 0.8; stroke-linejoin: miter; stroke-linecap: square"/>
   </g>
   <g id="patch_4">
    <path d="M 35.304688 173.52 
L 258.504687 173.52 
" style="fill: none; stroke: #000000; stroke-width: 0.8; stroke-linejoin: miter; stroke-linecap: square"/>
   </g>
  </g>
 </g>
 <defs>
  <clipPath id="pe48671267b">
   <rect x="35.304688" y="7.2" width="223.2" height="166.32"/>
  </clipPath>
 </defs>
</svg>
