<?xml version="1.0" encoding="utf-8" standalone="no"?>
<!DOCTYPE svg PUBLIC "-//W3C//DTD SVG 1.1//EN"
  "http://www.w3.org/Graphics/SVG/1.1/DTD/svg11.dtd">
<svg height="345.6pt" version="1.1" viewBox="0 0 460.8 345.6" width="460.8pt" xmlns="http://www.w3.org/2000/svg" xmlns:xlink="http://www.w3.org/1999/xlink">
 <metadata>
  <rdf:RDF xmlns:cc="http://creativecommons.org/ns#" xmlns:dc="http://purl.org/dc/elements/1.1/" xmlns:rdf="http://www.w3.org/1999/02/22-rdf-syntax-ns#">
   <cc:Work>
    <dc:type rdf:resource="http://purl.org/dc/dcmitype/StillImage"/>
    <dc:date>2024-08-06T14:41:12.482112</dc:date>
    <dc:format>image/svg+xml</dc:format>
    <dc:creator>
     <cc:Agent>
      <dc:title>Matplotlib v3.4.2, https://matplotlib.org/</dc:title>
     </cc:Agent>
    </dc:creator>
   </cc:Work>
  </rdf:RDF>
 </metadata>
 <defs>
  <style type="text/css">*{stroke-linecap:butt;stroke-linejoin:round;}</style>
 </defs>
 <g id="figure_1">
  <g id="patch_1">
   <path d="M 0 345.6 
L 460.8 345.6 
L 460.8 0 
L 0 0 
z
" style="fill:#ffffff;"/>
  </g>
  <g id="axes_1">
   <g id="patch_2">
    <path d="M 57.6 307.584 
L 414.72 307.584 
L 414.72 41.472 
L 57.6 41.472 
z
" style="fill:#ffffff;"/>
   </g>
   <g id="matplotlib.axis_1">
    <g id="xtick_1">
     <g id="line2d_1">
      <defs>
       <path d="M 0 0 
L 0 3.5 
" id="m565c9e39aa" style="stroke:#000000;stroke-width:0.8;"/>
      </defs>
      <g>
       <use style="stroke:#000000;stroke-width:0.8;" x="95.211629" xlink:href="#m565c9e39aa" y="307.584"/>
      </g>
     </g>
     <g id="text_1">
      <!-- 0.2 -->
      <g transform="translate(87.260067 322.182437)scale(0.1 -0.1)">
       <defs>
        <path d="M 2034 4250 
Q 1547 4250 1301 3770 
Q 1056 3291 1056 2328 
Q 1056 1369 1301 889 
Q 1547 409 2034 409 
Q 2525 409 2770 889 
Q 3016 1369 3016 2328 
Q 3016 3291 2770 3770 
Q 2525 4250 2034 4250 
z
M 2034 4750 
Q 2819 4750 3233 4129 
Q 3647 3509 3647 2328 
Q 3647 1150 3233 529 
Q 2819 -91 2034 -91 
Q 1250 -91 836 529 
Q 422 1150 422 2328 
Q 422 3509 836 4129 
Q 1250 4750 2034 4750 
z
" id="DejaVuSans-30" transform="scale(0.015625)"/>
        <path d="M 684 794 
L 1344 794 
L 1344 0 
L 684 0 
L 684 794 
z
" id="DejaVuSans-2e" transform="scale(0.015625)"/>
        <path d="M 1228 531 
L 3431 531 
L 3431 0 
L 469 0 
L 469 531 
Q 828 903 1448 1529 
Q 2069 2156 2228 2338 
Q 2531 2678 2651 2914 
Q 2772 3150 2772 3378 
Q 2772 3750 2511 3984 
Q 2250 4219 1831 4219 
Q 1534 4219 1204 4116 
Q 875 4013 500 3803 
L 500 4441 
Q 881 4594 1212 4672 
Q 1544 4750 1819 4750 
Q 2544 4750 2975 4387 
Q 3406 4025 3406 3419 
Q 3406 3131 3298 2873 
Q 3191 2616 2906 2266 
Q 2828 2175 2409 1742 
Q 1991 1309 1228 531 
z
" id="DejaVuSans-32" transform="scale(0.015625)"/>
       </defs>
       <use xlink:href="#DejaVuSans-30"/>
       <use x="63.623047" xlink:href="#DejaVuSans-2e"/>
       <use x="95.410156" xlink:href="#DejaVuSans-32"/>
      </g>
     </g>
    </g>
    <g id="xtick_2">
     <g id="line2d_2">
      <g>
       <use style="stroke:#000000;stroke-width:0.8;" x="139.20545" xlink:href="#m565c9e39aa" y="307.584"/>
      </g>
     </g>
     <g id="text_2">
      <!-- 0.4 -->
      <g transform="translate(131.253887 322.182437)scale(0.1 -0.1)">
       <defs>
        <path d="M 2419 4116 
L 825 1625 
L 2419 1625 
L 2419 4116 
z
M 2253 4666 
L 3047 4666 
L 3047 1625 
L 3713 1625 
L 3713 1100 
L 3047 1100 
L 3047 0 
L 2419 0 
L 2419 1100 
L 313 1100 
L 313 1709 
L 2253 4666 
z
" id="DejaVuSans-34" transform="scale(0.015625)"/>
       </defs>
       <use xlink:href="#DejaVuSans-30"/>
       <use x="63.623047" xlink:href="#DejaVuSans-2e"/>
       <use x="95.410156" xlink:href="#DejaVuSans-34"/>
      </g>
     </g>
    </g>
    <g id="xtick_3">
     <g id="line2d_3">
      <g>
       <use style="stroke:#000000;stroke-width:0.8;" x="183.19927" xlink:href="#m565c9e39aa" y="307.584"/>
      </g>
     </g>
     <g id="text_3">
      <!-- 0.6 -->
      <g transform="translate(175.247707 322.182437)scale(0.1 -0.1)">
       <defs>
        <path d="M 2113 2584 
Q 1688 2584 1439 2293 
Q 1191 2003 1191 1497 
Q 1191 994 1439 701 
Q 1688 409 2113 409 
Q 2538 409 2786 701 
Q 3034 994 3034 1497 
Q 3034 2003 2786 2293 
Q 2538 2584 2113 2584 
z
M 3366 4563 
L 3366 3988 
Q 3128 4100 2886 4159 
Q 2644 4219 2406 4219 
Q 1781 4219 1451 3797 
Q 1122 3375 1075 2522 
Q 1259 2794 1537 2939 
Q 1816 3084 2150 3084 
Q 2853 3084 3261 2657 
Q 3669 2231 3669 1497 
Q 3669 778 3244 343 
Q 2819 -91 2113 -91 
Q 1303 -91 875 529 
Q 447 1150 447 2328 
Q 447 3434 972 4092 
Q 1497 4750 2381 4750 
Q 2619 4750 2861 4703 
Q 3103 4656 3366 4563 
z
" id="DejaVuSans-36" transform="scale(0.015625)"/>
       </defs>
       <use xlink:href="#DejaVuSans-30"/>
       <use x="63.623047" xlink:href="#DejaVuSans-2e"/>
       <use x="95.410156" xlink:href="#DejaVuSans-36"/>
      </g>
     </g>
    </g>
    <g id="xtick_4">
     <g id="line2d_4">
      <g>
       <use style="stroke:#000000;stroke-width:0.8;" x="227.19309" xlink:href="#m565c9e39aa" y="307.584"/>
      </g>
     </g>
     <g id="text_4">
      <!-- 0.8 -->
      <g transform="translate(219.241528 322.182437)scale(0.1 -0.1)">
       <defs>
        <path d="M 2034 2216 
Q 1584 2216 1326 1975 
Q 1069 1734 1069 1313 
Q 1069 891 1326 650 
Q 1584 409 2034 409 
Q 2484 409 2743 651 
Q 3003 894 3003 1313 
Q 3003 1734 2745 1975 
Q 2488 2216 2034 2216 
z
M 1403 2484 
Q 997 2584 770 2862 
Q 544 3141 544 3541 
Q 544 4100 942 4425 
Q 1341 4750 2034 4750 
Q 2731 4750 3128 4425 
Q 3525 4100 3525 3541 
Q 3525 3141 3298 2862 
Q 3072 2584 2669 2484 
Q 3125 2378 3379 2068 
Q 3634 1759 3634 1313 
Q 3634 634 3220 271 
Q 2806 -91 2034 -91 
Q 1263 -91 848 271 
Q 434 634 434 1313 
Q 434 1759 690 2068 
Q 947 2378 1403 2484 
z
M 1172 3481 
Q 1172 3119 1398 2916 
Q 1625 2713 2034 2713 
Q 2441 2713 2670 2916 
Q 2900 3119 2900 3481 
Q 2900 3844 2670 4047 
Q 2441 4250 2034 4250 
Q 1625 4250 1398 4047 
Q 1172 3844 1172 3481 
z
" id="DejaVuSans-38" transform="scale(0.015625)"/>
       </defs>
       <use xlink:href="#DejaVuSans-30"/>
       <use x="63.623047" xlink:href="#DejaVuSans-2e"/>
       <use x="95.410156" xlink:href="#DejaVuSans-38"/>
      </g>
     </g>
    </g>
    <g id="xtick_5">
     <g id="line2d_5">
      <g>
       <use style="stroke:#000000;stroke-width:0.8;" x="271.18691" xlink:href="#m565c9e39aa" y="307.584"/>
      </g>
     </g>
     <g id="text_5">
      <!-- 1.0 -->
      <g transform="translate(263.235348 322.182437)scale(0.1 -0.1)">
       <defs>
        <path d="M 794 531 
L 1825 531 
L 1825 4091 
L 703 3866 
L 703 4441 
L 1819 4666 
L 2450 4666 
L 2450 531 
L 3481 531 
L 3481 0 
L 794 0 
L 794 531 
z
" id="DejaVuSans-31" transform="scale(0.015625)"/>
       </defs>
       <use xlink:href="#DejaVuSans-31"/>
       <use x="63.623047" xlink:href="#DejaVuSans-2e"/>
       <use x="95.410156" xlink:href="#DejaVuSans-30"/>
      </g>
     </g>
    </g>
    <g id="xtick_6">
     <g id="line2d_6">
      <g>
       <use style="stroke:#000000;stroke-width:0.8;" x="315.18073" xlink:href="#m565c9e39aa" y="307.584"/>
      </g>
     </g>
     <g id="text_6">
      <!-- 1.2 -->
      <g transform="translate(307.229168 322.182437)scale(0.1 -0.1)">
       <use xlink:href="#DejaVuSans-31"/>
       <use x="63.623047" xlink:href="#DejaVuSans-2e"/>
       <use x="95.410156" xlink:href="#DejaVuSans-32"/>
      </g>
     </g>
    </g>
    <g id="xtick_7">
     <g id="line2d_7">
      <g>
       <use style="stroke:#000000;stroke-width:0.8;" x="359.174551" xlink:href="#m565c9e39aa" y="307.584"/>
      </g>
     </g>
     <g id="text_7">
      <!-- 1.4 -->
      <g transform="translate(351.222988 322.182437)scale(0.1 -0.1)">
       <use xlink:href="#DejaVuSans-31"/>
       <use x="63.623047" xlink:href="#DejaVuSans-2e"/>
       <use x="95.410156" xlink:href="#DejaVuSans-34"/>
      </g>
     </g>
    </g>
    <g id="xtick_8">
     <g id="line2d_8">
      <g>
       <use style="stroke:#000000;stroke-width:0.8;" x="403.168371" xlink:href="#m565c9e39aa" y="307.584"/>
      </g>
     </g>
     <g id="text_8">
      <!-- 1.6 -->
      <g transform="translate(395.216808 322.182437)scale(0.1 -0.1)">
       <use xlink:href="#DejaVuSans-31"/>
       <use x="63.623047" xlink:href="#DejaVuSans-2e"/>
       <use x="95.410156" xlink:href="#DejaVuSans-36"/>
      </g>
     </g>
    </g>
   </g>
   <g id="matplotlib.axis_2">
    <g id="ytick_1">
     <g id="line2d_9">
      <defs>
       <path d="M 0 0 
L -3.5 0 
" id="m6ed6a9ddc9" style="stroke:#000000;stroke-width:0.8;"/>
      </defs>
      <g>
       <use style="stroke:#000000;stroke-width:0.8;" x="57.6" xlink:href="#m6ed6a9ddc9" y="300.927726"/>
      </g>
     </g>
     <g id="text_9">
      <!-- −100 -->
      <g transform="translate(23.132812 304.726944)scale(0.1 -0.1)">
       <defs>
        <path d="M 678 2272 
L 4684 2272 
L 4684 1741 
L 678 1741 
L 678 2272 
z
" id="DejaVuSans-2212" transform="scale(0.015625)"/>
       </defs>
       <use xlink:href="#DejaVuSans-2212"/>
       <use x="83.789062" xlink:href="#DejaVuSans-31"/>
       <use x="147.412109" xlink:href="#DejaVuSans-30"/>
       <use x="211.035156" xlink:href="#DejaVuSans-30"/>
      </g>
     </g>
    </g>
    <g id="ytick_2">
     <g id="line2d_10">
      <g>
       <use style="stroke:#000000;stroke-width:0.8;" x="57.6" xlink:href="#m6ed6a9ddc9" y="256.078628"/>
      </g>
     </g>
     <g id="text_10">
      <!-- −80 -->
      <g transform="translate(29.495313 259.877846)scale(0.1 -0.1)">
       <use xlink:href="#DejaVuSans-2212"/>
       <use x="83.789062" xlink:href="#DejaVuSans-38"/>
       <use x="147.412109" xlink:href="#DejaVuSans-30"/>
      </g>
     </g>
    </g>
    <g id="ytick_3">
     <g id="line2d_11">
      <g>
       <use style="stroke:#000000;stroke-width:0.8;" x="57.6" xlink:href="#m6ed6a9ddc9" y="211.22953"/>
      </g>
     </g>
     <g id="text_11">
      <!-- −60 -->
      <g transform="translate(29.495313 215.028749)scale(0.1 -0.1)">
       <use xlink:href="#DejaVuSans-2212"/>
       <use x="83.789062" xlink:href="#DejaVuSans-36"/>
       <use x="147.412109" xlink:href="#DejaVuSans-30"/>
      </g>
     </g>
    </g>
    <g id="ytick_4">
     <g id="line2d_12">
      <g>
       <use style="stroke:#000000;stroke-width:0.8;" x="57.6" xlink:href="#m6ed6a9ddc9" y="166.380432"/>
      </g>
     </g>
     <g id="text_12">
      <!-- −40 -->
      <g transform="translate(29.495313 170.179651)scale(0.1 -0.1)">
       <use xlink:href="#DejaVuSans-2212"/>
       <use x="83.789062" xlink:href="#DejaVuSans-34"/>
       <use x="147.412109" xlink:href="#DejaVuSans-30"/>
      </g>
     </g>
    </g>
    <g id="ytick_5">
     <g id="line2d_13">
      <g>
       <use style="stroke:#000000;stroke-width:0.8;" x="57.6" xlink:href="#m6ed6a9ddc9" y="121.531334"/>
      </g>
     </g>
     <g id="text_13">
      <!-- −20 -->
      <g transform="translate(29.495313 125.330553)scale(0.1 -0.1)">
       <use xlink:href="#DejaVuSans-2212"/>
       <use x="83.789062" xlink:href="#DejaVuSans-32"/>
       <use x="147.412109" xlink:href="#DejaVuSans-30"/>
      </g>
     </g>
    </g>
    <g id="ytick_6">
     <g id="line2d_14">
      <g>
       <use style="stroke:#000000;stroke-width:0.8;" x="57.6" xlink:href="#m6ed6a9ddc9" y="76.682236"/>
      </g>
     </g>
     <g id="text_14">
      <!-- 0 -->
      <g transform="translate(44.2375 80.481455)scale(0.1 -0.1)">
       <use xlink:href="#DejaVuSans-30"/>
      </g>
     </g>
    </g>
   </g>
   <g id="line2d_15">
    <path clip-path="url(#p31a23fd591)" d="M 73.832727 219.078401 
L 74.702532 219.147589 
L 75.354885 219.180375 
L 77.746848 219.421071 
L 77.964299 219.321765 
L 78.18175 219.351762 
L 78.834103 219.175661 
L 79.051555 219.330932 
L 81.226066 241.209379 
L 82.313322 248.924089 
L 83.400577 255.268151 
L 85.140186 263.39339 
L 86.227442 267.324672 
L 88.184502 273.493898 
L 91.881172 282.06008 
L 92.968427 283.853204 
L 93.403329 284.513183 
L 94.708036 286.379405 
L 96.447645 288.416536 
L 97.099999 289.037104 
L 97.969803 289.968164 
L 99.27451 290.941958 
L 102.536277 292.792903 
L 102.971179 292.927368 
L 104.058435 293.469669 
L 107.102751 294.602421 
L 108.624909 294.841506 
L 109.059811 295.015796 
L 110.147067 295.254188 
L 111.886676 295.111297 
L 114.713541 295.441295 
L 116.235699 295.249215 
L 118.627661 295.405832 
L 120.149819 295.272984 
L 120.584721 295.279985 
L 120.802173 295.228254 
L 121.237075 295.372828 
L 123.629037 294.932411 
L 125.586098 295.137807 
L 127.108255 294.94406 
L 127.760609 295.149049 
L 129.93512 295.027356 
L 131.239827 294.372887 
L 131.674729 294.334452 
L 132.109632 294.304062 
L 132.544534 294.228436 
L 132.979436 294.301611 
L 133.414338 294.354636 
L 134.501594 294.438552 
L 136.458654 294.342807 
L 136.893557 294.330891 
L 138.415715 294.505887 
L 138.850617 294.458665 
L 142.112384 294.675097 
L 142.547286 294.660889 
L 143.417091 294.818519 
L 144.286895 294.722808 
L 144.504346 294.781474 
L 144.939249 294.622342 
L 146.243955 294.676431 
L 146.896309 294.530359 
L 147.331211 294.596378 
L 147.766113 294.601378 
L 147.983565 294.689078 
L 148.418467 294.646018 
L 149.505722 294.769104 
L 151.245332 294.403958 
L 152.115136 294.442191 
L 152.550038 294.323568 
L 154.289647 294.558282 
L 155.159452 294.481902 
L 155.811805 294.484426 
L 156.899061 294.305739 
L 157.333963 294.118606 
L 158.203768 294.283174 
L 159.073572 294.338003 
L 159.943377 294.321687 
L 160.813182 294.493642 
L 161.465535 294.459307 
L 161.900437 294.5341 
L 162.770242 294.453936 
L 163.205144 294.487162 
L 167.119264 294.127424 
L 168.641422 293.774092 
L 169.293776 293.917459 
L 170.381031 294.033558 
L 171.033385 294.204019 
L 171.903189 294.445275 
L 172.772994 294.562308 
L 173.86025 294.626583 
L 174.730054 294.798819 
L 176.034761 294.785363 
L 176.469663 294.832727 
L 176.904566 294.800358 
L 179.948881 294.731555 
L 180.383784 294.685063 
L 183.4281 294.597917 
L 183.863002 294.504984 
L 186.689867 294.358162 
L 187.34222 294.292634 
L 188.429476 293.977148 
L 189.29928 293.877356 
L 190.603987 293.803626 
L 194.083205 293.965381 
L 194.518108 294.075404 
L 195.605363 294.015294 
L 196.475168 293.905217 
L 197.779875 293.801423 
L 198.649679 293.750557 
L 201.041642 294.087586 
L 201.476544 294.104736 
L 201.911446 294.104791 
L 202.128897 294.035592 
L 202.5638 294.086611 
L 203.216153 293.969001 
L 204.52086 294.291023 
L 206.043018 294.251332 
L 206.695371 294.304574 
L 208.000078 294.390593 
L 208.43498 294.462891 
L 209.087334 294.723617 
L 210.174589 294.709085 
L 210.609492 294.60591 
L 211.044394 294.65012 
L 211.479296 294.605083 
L 211.914198 294.602774 
L 212.566552 294.405896 
L 213.001454 294.339841 
L 214.741063 294.188831 
L 215.393417 293.892614 
L 218.00283 293.542025 
L 220.177342 293.349217 
L 220.829695 293.547646 
L 222.786755 293.295301 
L 223.221657 293.298253 
L 223.65656 293.162466 
L 224.743815 293.482921 
L 225.178718 293.444722 
L 225.61362 293.492581 
L 226.265973 293.31347 
L 227.57068 292.576946 
L 228.657936 292.280227 
L 229.092838 292.222611 
L 229.745191 292.045125 
L 230.180094 292.009883 
L 230.832447 292.146795 
L 232.137154 291.879897 
L 232.572056 291.822565 
L 233.659312 292.185028 
L 234.529116 292.260689 
L 234.746568 292.343291 
L 236.051274 292.129058 
L 236.921079 292.533269 
L 238.660688 292.480134 
L 239.313041 292.639775 
L 240.617748 292.883109 
L 241.052651 292.865973 
L 241.487553 293.149114 
L 243.444613 293.567005 
L 244.096966 293.569955 
L 244.966771 293.688379 
L 245.401673 293.567406 
L 246.271478 293.690077 
L 246.70638 293.611393 
L 247.141282 293.686618 
L 247.576185 293.659654 
L 248.66344 293.577883 
L 249.098343 293.454373 
L 249.750696 293.570062 
L 250.185598 293.673788 
L 251.925207 293.196831 
L 252.577561 293.285354 
L 253.882268 293.473083 
L 254.534621 293.660818 
L 254.969523 293.626755 
L 256.056779 293.902444 
L 256.491681 293.904665 
L 257.578937 294.095613 
L 258.013839 294.171119 
L 259.318546 294.456974 
L 260.623253 294.455378 
L 262.797764 294.791086 
L 264.754824 294.227063 
L 265.189727 294.282876 
L 265.624629 294.230384 
L 267.146787 294.474552 
L 268.668945 294.472754 
L 269.7562 294.694519 
L 271.060907 294.681518 
L 271.49581 294.69907 
L 272.365614 294.466568 
L 272.800516 294.394029 
L 273.45287 294.322386 
L 274.105223 294.459444 
L 275.40993 294.377935 
L 275.844832 294.254153 
L 276.714637 294.316797 
L 280.193855 293.768173 
L 280.411306 293.765556 
L 280.846208 293.578881 
L 281.498562 293.577735 
L 281.716013 293.531407 
L 282.150915 293.683457 
L 282.368366 293.595696 
L 284.107975 293.86047 
L 284.325427 293.631772 
L 284.760329 291.741254 
L 285.195231 290.985005 
L 285.630133 290.828391 
L 286.282487 290.950606 
L 287.152291 291.06568 
L 287.804645 291.141263 
L 288.239547 291.25642 
L 288.674449 291.423132 
L 288.8919 291.433255 
L 289.544254 291.730038 
L 290.631509 292.174005 
L 291.283863 292.565168 
L 292.371119 292.770061 
L 293.023472 292.810878 
L 294.110728 292.919267 
L 294.763081 293.22969 
L 294.980532 293.154066 
L 295.197983 292.943353 
L 296.285239 292.858086 
L 296.50269 292.717806 
L 298.894653 269.186578 
L 300.416811 260.181082 
L 301.721517 254.207416 
L 302.808773 249.94525 
L 303.678578 246.83544 
L 305.418187 242.096217 
L 308.0276 235.962212 
L 309.767209 232.710557 
L 310.419563 231.784071 
L 311.289367 230.255227 
L 312.376623 228.5244 
L 313.463879 226.803633 
L 314.551134 225.39797 
L 314.986037 224.653479 
L 317.377999 220.283005 
L 318.465255 218.117004 
L 319.335059 216.229378 
L 319.552511 215.844861 
L 320.422315 213.312759 
L 320.639766 212.847624 
L 320.857217 211.942375 
L 321.074668 211.613085 
L 321.509571 210.075846 
L 321.727022 209.540887 
L 321.944473 208.544557 
L 322.161924 208.417724 
L 322.379375 206.861708 
L 322.596826 206.929166 
L 323.031729 204.537282 
L 323.24918 204.052663 
L 323.466631 201.411026 
L 323.684082 202.677294 
L 323.901533 198.487034 
L 324.118984 200.159139 
L 324.336435 195.78283 
L 324.553887 195.495642 
L 324.771338 190.381146 
L 324.988789 114.705887 
L 325.20624 90.30254 
L 325.423691 152.948727 
L 325.641142 181.119427 
L 326.076045 198.524421 
L 326.293496 197.366628 
L 326.510947 199.770316 
L 326.728398 197.150272 
L 326.945849 197.246268 
L 327.380751 194.473138 
L 327.598203 193.979324 
L 327.815654 192.225341 
L 328.033105 191.958889 
L 328.250556 190.584774 
L 328.468007 190.035983 
L 328.902909 187.801305 
L 329.12036 187.375197 
L 329.555263 186.053931 
L 330.425067 183.179621 
L 331.294872 180.871956 
L 331.947225 180.26787 
L 332.382128 179.772278 
L 332.599579 179.532639 
L 333.034481 179.371785 
L 333.469383 179.236988 
L 333.686834 179.313812 
L 334.121737 179.773177 
L 334.556639 179.718159 
L 335.426443 180.64595 
L 335.861346 181.359944 
L 336.296248 181.599548 
L 337.166052 183.205233 
L 339.340564 186.901295 
L 339.992917 188.255145 
L 340.42782 189.245687 
L 341.080173 190.743647 
L 341.515075 191.716288 
L 342.38488 193.582459 
L 343.037233 195.227272 
L 343.472135 195.853063 
L 344.34194 197.187557 
L 344.559391 197.359071 
L 345.646647 199.149299 
L 346.951354 201.48276 
L 348.908414 204.269422 
L 349.343316 204.682474 
L 351.082925 206.543743 
L 352.387632 207.466758 
L 352.822534 207.92147 
L 358.258813 212.332646 
L 358.476264 212.438852 
L 358.911166 212.924865 
L 359.998422 213.574507 
L 360.868226 214.176507 
L 361.52058 214.367012 
L 362.172933 214.754277 
L 366.087054 215.891919 
L 366.956858 215.868834 
L 367.826663 215.534494 
L 369.783723 215.953585 
L 370.218625 215.933747 
L 370.653527 215.980086 
L 371.305881 215.779403 
L 371.523332 215.755305 
L 371.740783 215.888586 
L 372.610588 215.802926 
L 373.262941 215.969735 
L 376.307257 216.794627 
L 376.742159 216.76217 
L 376.95961 216.833098 
L 377.394513 216.75017 
L 377.829415 216.783127 
L 379.134122 216.521108 
L 379.786475 216.358926 
L 380.65628 216.241623 
L 380.873731 216.2711 
L 381.308633 216.53084 
L 382.178438 216.550213 
L 382.61334 216.599649 
L 383.265693 216.686721 
L 384.5704 216.931968 
L 386.52746 217.015675 
L 388.267069 216.876521 
L 388.48452 216.975195 
L 388.919423 216.914102 
L 389.571776 217.105607 
L 390.441581 217.143202 
L 391.311385 217.41211 
L 391.746288 217.39036 
L 392.833543 217.405965 
L 393.268445 217.25996 
L 393.485897 217.281363 
L 393.920799 217.118516 
L 394.790603 217.152929 
L 395.225506 217.30367 
L 396.530213 217.692734 
L 396.965115 217.82447 
L 397.834919 217.807529 
L 398.487273 217.858053 
L 398.487273 217.858053 
" style="fill:none;stroke:#000000;stroke-linecap:square;stroke-width:1.5;"/>
   </g>
   <g id="line2d_16">
    <path clip-path="url(#p31a23fd591)" d="M 73.832727 231.495658 
L 74.919983 231.441546 
L 75.354885 231.246799 
L 75.789787 231.379301 
L 76.007239 231.252302 
L 76.442141 231.224148 
L 76.659592 231.196124 
L 76.877043 231.471048 
L 77.094494 231.155159 
L 77.311945 231.279542 
L 77.529397 231.137854 
L 77.746848 231.268423 
L 77.964299 231.661389 
L 78.18175 231.059323 
L 78.399201 231.916503 
L 78.616652 231.051417 
L 78.834103 231.687589 
L 79.051555 231.420222 
L 80.356261 203.523005 
L 80.573712 200.546681 
L 80.791164 193.362826 
L 81.008615 195.521014 
L 81.226066 182.641225 
L 81.443517 191.933135 
L 81.660968 156.523936 
L 81.878419 69.95633 
L 82.09587 110.166693 
L 82.313322 176.943191 
L 82.748224 191.439366 
L 83.183126 185.26442 
L 83.400577 184.853203 
L 83.618028 179.177606 
L 84.052931 174.443499 
L 84.270382 167.477199 
L 84.487833 172.008435 
L 84.922735 61.033859 
L 85.357637 163.739819 
L 85.79254 186.243928 
L 86.009991 184.133709 
L 86.227442 185.514534 
L 86.662344 180.889009 
L 87.532149 169.961368 
L 87.7496 170.065199 
L 87.967051 162.405993 
L 88.184502 166.401156 
L 88.401953 125.761469 
L 88.619404 59.975618 
L 88.836856 94.326073 
L 89.054307 152.465189 
L 89.489209 186.775322 
L 89.70666 186.898079 
L 89.924111 188.575013 
L 91.228818 175.146305 
L 91.446269 175.354543 
L 91.66372 170.923058 
L 91.881172 171.518269 
L 92.098623 166.204721 
L 92.316074 166.304368 
L 92.533525 155.229578 
L 92.750976 81.010543 
L 92.968427 66.983241 
L 93.403329 168.66012 
L 93.620781 184.359408 
L 93.838232 189.432332 
L 94.055683 188.71599 
L 94.273134 189.76683 
L 94.490585 186.019761 
L 94.708036 185.756137 
L 94.925487 182.234126 
L 95.36039 179.180077 
L 95.577841 176.229678 
L 95.795292 176.081468 
L 96.012743 172.148383 
L 96.230194 172.591392 
L 96.447645 168.058443 
L 96.665097 167.202344 
L 96.882548 164.510948 
L 97.099999 159.912945 
L 97.31745 160.736123 
L 97.752352 57.482343 
L 98.187254 167.679389 
L 98.622157 191.508821 
L 98.839608 189.677084 
L 99.057059 191.347293 
L 99.27451 188.2392 
L 99.491961 187.565946 
L 100.361766 178.641101 
L 100.579217 178.702091 
L 100.796668 175.462397 
L 101.014119 174.766207 
L 101.23157 172.830299 
L 101.449021 169.018986 
L 101.666473 169.701539 
L 101.883924 161.955928 
L 102.101375 167.612612 
L 102.318826 128.008128 
L 102.536277 58.490934 
L 102.753728 92.402984 
L 102.971179 155.974869 
L 103.406082 190.059647 
L 103.840984 191.390282 
L 104.058435 190.956767 
L 104.275886 188.188565 
L 104.493337 187.505984 
L 104.92824 183.100813 
L 105.145691 181.369598 
L 105.363142 178.441395 
L 105.580593 177.819752 
L 105.798044 174.728468 
L 106.015495 174.123753 
L 106.232946 172.437098 
L 106.450398 168.716056 
L 106.667849 169.884174 
L 106.8853 162.22568 
L 107.102751 167.295897 
L 107.320202 133.108482 
L 107.537653 60.53514 
L 107.755104 86.887488 
L 107.972556 152.742522 
L 108.407458 188.781671 
L 108.624909 190.234423 
L 108.84236 190.870745 
L 109.059811 190.715353 
L 109.277262 188.340007 
L 109.494714 187.491108 
L 109.929616 183.521335 
L 111.451774 171.128106 
L 111.669225 170.731731 
L 112.104127 165.670331 
L 112.321578 165.896528 
L 112.539029 158.688796 
L 112.756481 163.95985 
L 113.191383 56.551086 
L 113.408834 95.64493 
L 113.626285 155.638808 
L 114.061187 189.011051 
L 114.278638 189.891792 
L 114.49609 191.86819 
L 114.713541 190.861716 
L 115.365894 185.359724 
L 115.583345 184.76737 
L 115.800796 182.301931 
L 116.018248 181.487403 
L 116.888052 174.9573 
L 117.105503 174.313082 
L 117.322954 171.569842 
L 117.540406 171.207781 
L 117.757857 168.746006 
L 117.975308 168.090499 
L 118.192759 166.404149 
L 118.41021 163.34285 
L 118.627661 164.063463 
L 118.845112 156.789896 
L 119.062563 162.219801 
L 119.280015 123.590299 
L 119.497466 57.322778 
L 119.714917 92.782134 
L 119.932368 155.604612 
L 120.36727 188.731342 
L 120.584721 189.630333 
L 120.802173 191.060153 
L 121.019624 190.486257 
L 121.237075 188.828782 
L 121.454526 188.601433 
L 121.671977 186.032323 
L 121.889428 185.684885 
L 122.324331 182.202174 
L 122.976684 178.575254 
L 123.194135 176.447147 
L 123.411586 175.844081 
L 123.846488 172.780485 
L 124.06394 172.01451 
L 124.281391 169.760993 
L 124.498842 169.950071 
L 124.716293 166.976302 
L 124.933744 166.797347 
L 125.368646 162.071621 
L 125.586098 162.06788 
L 125.803549 155.573937 
L 126.021 160.699491 
L 126.455902 55.399293 
L 127.108255 178.213418 
L 127.325707 189.40294 
L 127.543158 189.557505 
L 127.760609 191.136605 
L 128.847865 184.683044 
L 129.065316 182.597027 
L 129.500218 180.048508 
L 130.370023 175.006756 
L 130.587474 173.462012 
L 130.804925 172.85319 
L 131.022376 170.554101 
L 131.239827 169.988959 
L 131.457278 167.33067 
L 131.674729 167.085402 
L 132.109632 163.053592 
L 132.327083 163.657076 
L 132.544534 156.991193 
L 132.761985 162.055339 
L 133.196887 55.64797 
L 133.414338 94.735116 
L 133.63179 155.676021 
L 134.066692 187.896292 
L 134.284143 188.372878 
L 134.501594 189.982192 
L 134.719045 189.193922 
L 134.936496 187.805218 
L 135.153948 187.282062 
L 135.371399 185.084936 
L 135.58885 184.81229 
L 135.806301 182.841941 
L 136.023752 182.047903 
L 136.458654 179.186874 
L 136.676105 178.539671 
L 136.893557 176.754365 
L 137.111008 176.181024 
L 137.328459 174.165257 
L 137.54591 173.681943 
L 138.415715 167.157354 
L 138.633166 167.780772 
L 138.850617 163.954939 
L 139.068068 164.975949 
L 139.285519 161.158751 
L 139.50297 160.2622 
L 139.720421 153.372016 
L 139.937872 84.372522 
L 140.155324 61.270094 
L 140.590226 166.52316 
L 140.807677 183.28623 
L 141.025128 190.514046 
L 141.242579 190.282369 
L 141.46003 191.928763 
L 141.677482 189.563054 
L 141.894933 189.116781 
L 142.329835 186.010111 
L 142.547286 185.130532 
L 142.764737 183.252136 
L 142.982188 182.536582 
L 143.19964 180.691472 
L 143.417091 179.908715 
L 143.851993 177.815545 
L 144.069444 176.908013 
L 144.286895 175.251161 
L 144.504346 174.75344 
L 144.721797 172.684217 
L 144.939249 172.095625 
L 145.374151 168.823936 
L 145.591602 167.89421 
L 145.809053 165.504314 
L 146.026504 166.021617 
L 146.243955 161.886349 
L 146.461407 163.294133 
L 146.678858 158.408366 
L 146.896309 157.431376 
L 147.11376 149.531028 
L 147.331211 79.637366 
L 147.548662 62.626374 
L 147.983565 167.986268 
L 148.201016 182.859074 
L 148.418467 188.870491 
L 148.635918 188.624103 
L 148.853369 190.533813 
L 149.07082 188.102096 
L 149.288271 187.763802 
L 149.723174 184.490378 
L 149.940625 183.561273 
L 150.158076 181.734528 
L 150.375527 181.306007 
L 150.810429 178.695567 
L 151.02788 177.75011 
L 151.245332 176.109486 
L 151.462783 175.534658 
L 151.897685 173.036746 
L 152.115136 172.217872 
L 152.332587 170.347664 
L 152.550038 169.985369 
L 152.767489 167.923451 
L 153.202392 165.743996 
L 153.419843 163.726623 
L 153.637294 163.877302 
L 153.854745 159.864194 
L 154.072196 161.311936 
L 154.289647 156.106206 
L 154.507099 157.069477 
L 154.72455 144.360446 
L 154.942001 74.627387 
L 155.159452 66.901438 
L 155.594354 168.343237 
L 155.811805 184.204656 
L 156.029257 190.245508 
L 156.246708 190.592903 
L 156.464159 191.731442 
L 156.68161 189.292102 
L 156.899061 189.166853 
L 157.333963 185.860679 
L 157.551414 184.733537 
L 157.768866 182.833566 
L 157.986317 181.937215 
L 158.203768 179.976517 
L 158.421219 179.1668 
L 158.856121 176.466349 
L 159.073572 175.466321 
L 159.291024 173.881483 
L 159.508475 173.543346 
L 159.725926 171.719477 
L 159.943377 171.295375 
L 160.378279 168.299029 
L 160.59573 167.865645 
L 160.813182 165.524629 
L 161.030633 166.219436 
L 161.248084 162.322204 
L 161.465535 163.081807 
L 161.682986 159.485289 
L 161.900437 157.786613 
L 162.117888 153.063505 
L 162.335339 86.155921 
L 162.552791 59.122642 
L 162.987693 165.976152 
L 163.205144 182.052815 
L 163.422595 189.55715 
L 163.640046 189.561444 
L 163.857497 191.392586 
L 164.074949 189.331755 
L 164.2924 188.901674 
L 166.901813 172.153726 
L 167.119264 171.553282 
L 167.554167 168.59282 
L 167.771618 167.691572 
L 167.989069 165.236296 
L 168.20652 166.004651 
L 168.423971 162.121442 
L 168.641422 162.788362 
L 169.293776 152.327707 
L 169.511227 85.195298 
L 169.728678 58.065525 
L 170.16358 165.131465 
L 170.381031 182.195841 
L 170.598483 189.806238 
L 170.815934 189.491094 
L 171.033385 191.199443 
L 171.250836 188.774517 
L 171.468287 188.042687 
L 171.903189 184.643569 
L 172.120641 183.730768 
L 172.338092 181.815976 
L 172.555543 181.110604 
L 172.990445 178.418519 
L 173.86025 173.875357 
L 174.077701 173.012395 
L 174.295152 171.499817 
L 174.512603 171.14532 
L 174.730054 168.850721 
L 174.947505 168.259713 
L 175.382408 165.60965 
L 175.599859 164.95083 
L 175.81731 161.743697 
L 176.034761 163.227247 
L 176.252212 156.867779 
L 176.469663 161.000271 
L 176.687114 132.302609 
L 176.904566 61.681795 
L 177.122017 79.874066 
L 177.339468 146.698341 
L 177.77437 187.406236 
L 177.991821 190.3007 
L 178.426723 191.774138 
L 178.644175 189.643179 
L 178.861626 189.061383 
L 179.079077 186.830017 
L 179.296528 186.062272 
L 180.166333 180.161831 
L 180.601235 177.87304 
L 181.253588 174.083263 
L 181.688491 172.360724 
L 181.905942 170.750534 
L 182.123393 170.407937 
L 182.340844 168.343879 
L 182.558295 167.78351 
L 182.993197 164.986975 
L 183.210648 164.650176 
L 183.4281 160.932737 
L 183.645551 161.995276 
L 183.863002 155.665399 
L 184.080453 159.184102 
L 184.297904 136.321692 
L 184.515355 66.405311 
L 184.732806 75.597405 
L 184.950258 140.573108 
L 185.38516 184.926922 
L 185.602611 189.152506 
L 186.037513 191.452064 
L 186.254964 189.53003 
L 186.472416 189.300214 
L 186.689867 187.104306 
L 186.907318 186.327752 
L 187.559671 182.259297 
L 188.212025 178.637269 
L 188.429476 177.763236 
L 188.864378 175.546401 
L 189.516731 172.078885 
L 189.734183 170.252469 
L 189.951634 169.95493 
L 190.169085 167.867823 
L 190.386536 167.30001 
L 190.821438 164.463084 
L 191.038889 164.41347 
L 191.25634 160.75455 
L 191.473792 162.424912 
L 191.691243 156.091144 
L 191.908694 159.170941 
L 192.126145 137.638843 
L 192.343596 66.053985 
L 192.561047 72.130354 
L 192.778498 137.884172 
L 193.213401 184.244363 
L 193.430852 188.164049 
L 193.865754 190.204526 
L 194.083205 188.351845 
L 194.300656 188.340189 
L 194.518108 186.295159 
L 194.735559 185.647744 
L 195.170461 182.703046 
L 195.387912 182.050424 
L 195.605363 180.527329 
L 195.822814 179.819382 
L 196.257717 177.550951 
L 198.432228 167.349089 
L 198.649679 165.451693 
L 198.86713 165.806014 
L 199.084581 163.631054 
L 199.302033 163.816906 
L 199.736935 159.925701 
L 199.954386 159.836808 
L 200.171837 153.370102 
L 200.389288 157.316525 
L 200.82419 55.030422 
L 201.476544 176.116733 
L 201.693995 188.213053 
L 201.911446 188.944094 
L 202.128897 190.464197 
L 202.346348 189.670403 
L 204.52086 177.269937 
L 204.738311 176.514232 
L 205.173213 174.256483 
L 205.390664 173.770237 
L 205.608115 172.296982 
L 205.825567 171.89707 
L 206.260469 169.578509 
L 206.47792 168.901982 
L 206.695371 166.790161 
L 206.912822 166.855353 
L 207.130273 164.634075 
L 207.347725 165.031973 
L 207.782627 161.220393 
L 208.000078 160.869939 
L 208.217529 154.997487 
L 208.43498 158.64943 
L 208.869882 54.435597 
L 209.522236 175.884045 
L 209.739687 187.662931 
L 209.957138 188.357522 
L 210.174589 189.910223 
L 210.826943 187.209253 
L 211.044394 185.25396 
L 211.261845 185.031607 
L 211.696747 182.523626 
L 212.349101 179.606804 
L 212.784003 177.368103 
L 213.436356 174.522134 
L 213.871259 172.296272 
L 214.08871 171.620693 
L 214.306161 170.061744 
L 214.523612 169.707322 
L 214.741063 167.793694 
L 214.958514 167.074011 
L 215.393417 163.949071 
L 215.610868 163.876504 
L 215.828319 160.530256 
L 216.04577 161.808713 
L 216.263221 155.777669 
L 216.480672 157.965361 
L 216.698123 139.616311 
L 216.915574 69.935156 
L 217.133026 69.648601 
L 217.567928 168.289236 
L 217.785379 184.172701 
L 218.00283 188.951675 
L 218.437732 190.725906 
L 218.655184 188.61793 
L 218.872635 188.407013 
L 219.090086 186.479881 
L 219.307537 185.745353 
L 221.699499 173.107386 
L 221.916951 172.54198 
L 222.786755 167.618325 
L 223.004206 167.609641 
L 223.221657 165.356029 
L 223.439109 165.07366 
L 223.65656 163.394222 
L 223.874011 160.782365 
L 224.091462 161.588812 
L 224.308913 155.269772 
L 224.526364 159.558105 
L 224.743815 121.649616 
L 224.961267 56.972726 
L 225.178718 86.198301 
L 225.396169 146.601755 
L 225.831071 185.641588 
L 226.265973 189.638794 
L 226.483424 189.351867 
L 226.700876 187.883815 
L 226.918327 187.645099 
L 227.135778 185.549911 
L 227.353229 185.126571 
L 227.788131 182.569003 
L 229.092838 176.431021 
L 229.745191 173.423673 
L 230.614996 170.38291 
L 231.049898 168.275875 
L 231.267349 167.679869 
L 231.484801 166.383465 
L 231.702252 165.924427 
L 231.919703 164.102968 
L 232.137154 163.876139 
L 232.572056 161.332334 
L 232.789507 161.162752 
L 233.006959 158.106939 
L 233.22441 159.868561 
L 233.441861 153.992454 
L 233.659312 156.930033 
L 233.876763 133.921022 
L 234.094214 65.232155 
L 234.311665 73.613118 
L 234.529116 138.519873 
L 234.746568 169.562241 
L 234.964019 184.452832 
L 235.18147 188.502582 
L 235.616372 190.116814 
L 235.833823 188.002565 
L 236.051274 187.626106 
L 236.268726 185.503223 
L 236.486177 184.719685 
L 236.921079 181.599789 
L 237.13853 180.838762 
L 237.790884 177.08548 
L 238.878139 172.219863 
L 239.747944 168.648168 
L 239.965395 168.440556 
L 240.400297 166.409921 
L 240.617748 165.873242 
L 240.835199 164.342173 
L 241.052651 164.557387 
L 241.270102 162.489475 
L 241.487553 162.549259 
L 241.922455 158.836013 
L 242.139906 158.477329 
L 242.357357 153.121445 
L 242.574809 155.771786 
L 243.009711 53.773366 
L 243.662064 175.62963 
L 243.879515 187.292429 
L 244.096966 188.533486 
L 244.314418 190.430924 
L 244.966771 187.613828 
L 245.184222 185.592876 
L 245.401673 185.201188 
L 245.836576 182.356395 
L 247.576185 173.447584 
L 247.793636 171.802173 
L 248.011087 171.576835 
L 248.445989 169.015731 
L 248.66344 168.176419 
L 248.880891 166.499146 
L 249.098343 166.076529 
L 249.315794 163.42021 
L 249.533245 163.746898 
L 249.750696 160.96173 
L 250.185598 158.813389 
L 250.403049 154.551673 
L 250.620501 156.330434 
L 251.055403 53.568 
L 251.707756 176.037222 
L 251.925207 187.414441 
L 252.142658 188.032678 
L 252.36011 189.813619 
L 253.664816 182.816726 
L 253.882268 182.267756 
L 255.186974 176.755207 
L 256.27423 172.775411 
L 257.144035 168.389572 
L 257.361486 168.298007 
L 257.578937 166.555857 
L 257.796388 166.079184 
L 258.23129 163.755911 
L 258.448741 163.535444 
L 258.666193 160.348454 
L 258.883644 161.484931 
L 259.101095 156.143513 
L 259.318546 159.022128 
L 259.535997 135.260648 
L 259.753448 65.822343 
L 259.970899 71.446329 
L 260.405802 167.646663 
L 260.623253 183.546804 
L 260.840704 188.112841 
L 261.275606 189.990951 
L 261.493057 188.235982 
L 261.710508 187.886261 
L 261.92796 185.96929 
L 262.145411 185.33778 
L 263.667569 177.802368 
L 264.319922 175.250119 
L 265.407178 170.88125 
L 266.276982 167.226404 
L 266.494433 167.108746 
L 266.929336 164.703758 
L 267.146787 164.126727 
L 267.364238 162.366439 
L 267.581689 162.863447 
L 267.79914 159.321227 
L 268.016591 159.958232 
L 268.234043 155.692678 
L 268.451494 155.530068 
L 268.668945 145.905518 
L 268.886396 79.870368 
L 269.103847 61.707162 
L 269.538749 164.090508 
L 269.7562 180.903013 
L 269.973652 187.834869 
L 270.191103 188.291522 
L 270.408554 189.964044 
L 270.626005 188.321937 
L 270.843456 188.121853 
L 271.278358 185.607184 
L 271.49581 184.705835 
L 271.713261 183.073256 
L 271.930712 182.481157 
L 272.365614 180.381523 
L 273.45287 176.025557 
L 275.627381 167.078071 
L 275.844832 166.762373 
L 276.062283 165.334451 
L 276.279735 164.978993 
L 276.714637 162.874914 
L 276.932088 162.3617 
L 277.149539 160.359255 
L 277.36699 161.044534 
L 277.584441 158.010385 
L 277.801892 158.90302 
L 278.019344 155.379899 
L 278.236795 154.727478 
L 278.454246 145.880559 
L 278.671697 81.053202 
L 278.889148 60.639904 
L 279.32405 161.87413 
L 279.541502 179.029088 
L 279.758953 186.850341 
L 279.976404 187.719226 
L 280.193855 189.567391 
L 280.411306 187.867224 
L 280.628757 187.6807 
L 281.06366 184.963613 
L 281.281111 184.112352 
L 281.498562 182.470031 
L 281.716013 182.02495 
L 282.150915 180.035059 
L 282.803269 177.065969 
L 283.238171 174.96313 
L 283.890524 172.748955 
L 284.542878 170.001488 
L 284.760329 168.997525 
L 284.97778 168.617688 
L 285.195231 167.322619 
L 285.412682 167.022004 
L 285.630133 166.160399 
L 285.847584 164.449518 
L 286.065036 163.967597 
L 286.282487 161.729179 
L 286.499938 162.415834 
L 286.717389 159.952313 
L 286.93484 159.406024 
L 287.152291 157.399407 
L 287.369742 154.158985 
L 287.587194 153.594929 
L 288.022096 55.190721 
L 288.456998 155.614018 
L 288.8919 186.010417 
L 289.109352 187.022373 
L 289.326803 188.947992 
L 289.761705 186.90525 
L 290.196607 184.58251 
L 290.414058 184.374187 
L 290.631509 182.840725 
L 290.848961 182.201488 
L 291.718765 178.32325 
L 292.371119 175.756806 
L 293.458374 172.310157 
L 294.110728 170.139543 
L 294.980532 166.585177 
L 295.850337 162.928437 
L 296.50269 159.864852 
L 296.720141 163.202116 
L 297.372495 177.420035 
L 298.242299 191.354907 
L 299.112104 201.011369 
L 299.981908 208.128038 
L 301.286615 216.039216 
L 302.591322 221.897095 
L 303.678578 225.790925 
L 304.548382 228.192364 
L 306.07054 231.416597 
L 306.722894 232.28414 
L 308.0276 233.46338 
L 312.811525 237.046861 
L 314.986037 237.895545 
L 316.725646 238.092347 
L 317.160548 238.354674 
L 318.247804 238.369373 
L 319.117608 238.492476 
L 320.204864 238.407838 
L 321.944473 238.329561 
L 323.24918 238.045502 
L 329.12036 237.941924 
L 332.81703 238.284944 
L 333.686834 238.096998 
L 334.77409 238.042396 
L 335.208992 238.109723 
L 335.643895 238.073212 
L 335.861346 238.208912 
L 336.296248 238.194432 
L 336.513699 238.263549 
L 337.383504 238.0948 
L 339.123113 237.937134 
L 339.775466 237.76325 
L 340.210368 237.862017 
L 341.297624 237.753709 
L 341.732526 237.769298 
L 342.167429 237.716652 
L 342.819782 237.850799 
L 343.472135 237.809639 
L 343.907038 237.815663 
L 344.559391 237.700586 
L 345.211745 237.598013 
L 345.864098 237.639134 
L 346.299 237.747453 
L 347.603707 237.469556 
L 348.038609 237.37385 
L 348.690963 237.361559 
L 349.995669 237.355676 
L 350.430572 237.410124 
L 352.387632 237.17945 
L 353.692339 237.035933 
L 354.562143 236.918371 
L 355.86685 236.522847 
L 357.389008 236.375185 
L 358.911166 236.372654 
L 360.215873 236.443509 
L 361.303129 236.534682 
L 363.042738 236.436284 
L 364.999798 236.519512 
L 367.826663 236.186669 
L 369.348821 235.721222 
L 369.783723 235.49497 
L 371.523332 235.212647 
L 372.610588 235.165772 
L 373.480392 235.042245 
L 373.915294 235.048606 
L 374.567648 235.138121 
L 375.00255 235.189786 
L 375.437452 235.172049 
L 375.872355 235.123704 
L 379.569024 235.336423 
L 380.873731 235.100883 
L 384.5704 234.998085 
L 385.657656 234.812296 
L 386.092558 234.792954 
L 386.962363 234.53926 
L 387.397265 234.528763 
L 387.832167 234.429112 
L 390.659032 234.533121 
L 391.093934 234.658975 
L 391.746288 234.62966 
L 392.616092 234.559015 
L 393.268445 234.618253 
L 395.008055 234.429063 
L 395.442957 234.464052 
L 396.312761 234.476933 
L 396.965115 234.556667 
L 398.487273 234.594499 
L 398.487273 234.594499 
" style="fill:none;stroke:#000000;stroke-linecap:square;stroke-width:1.5;"/>
   </g>
   <g id="line2d_17">
    <path clip-path="url(#p31a23fd591)" d="M 73.832727 216.518473 
L 74.485081 216.607563 
L 75.572336 216.822915 
L 75.789787 216.923101 
L 78.399201 215.64723 
L 79.051555 215.682584 
L 79.486457 217.634094 
L 80.356261 221.103764 
L 81.878419 226.053905 
L 83.183126 229.631553 
L 84.922735 234.152931 
L 88.184502 241.038871 
L 89.924111 244.046139 
L 92.316074 247.82287 
L 94.055683 250.095549 
L 94.490585 250.591686 
L 95.36039 251.516163 
L 95.795292 251.908757 
L 96.230194 252.42452 
L 97.31745 253.621532 
L 98.187254 254.529575 
L 98.622157 254.770259 
L 99.709412 255.771486 
L 102.318826 257.523895 
L 103.188631 258.097833 
L 104.493337 259.078306 
L 105.580593 259.89428 
L 106.450398 260.49441 
L 107.537653 261.407408 
L 112.973932 264.283794 
L 114.49609 264.959007 
L 115.148443 265.299187 
L 115.583345 265.506118 
L 116.235699 265.615472 
L 116.670601 265.653046 
L 117.105503 265.889086 
L 117.540406 265.975541 
L 120.149819 266.794621 
L 120.584721 266.801927 
L 121.671977 267.157162 
L 123.846488 267.573672 
L 124.281391 267.596226 
L 125.803549 267.973605 
L 128.847865 268.285231 
L 129.93512 268.585513 
L 131.674729 268.628787 
L 132.979436 268.681038 
L 133.414338 268.731074 
L 134.066692 268.715464 
L 134.501594 268.741979 
L 135.371399 268.515536 
L 135.806301 268.460644 
L 139.720421 268.966575 
L 139.937872 268.957352 
L 140.590226 269.19556 
L 141.242579 269.293395 
L 142.764737 269.441587 
L 143.19964 269.45407 
L 146.461407 269.580758 
L 146.896309 269.445409 
L 147.331211 269.308113 
L 149.07082 269.264453 
L 149.723174 269.234506 
L 151.680234 269.414771 
L 152.550038 269.324984 
L 152.984941 269.105437 
L 153.419843 269.107648 
L 154.289647 268.801594 
L 154.72455 268.61462 
L 156.246708 268.609355 
L 158.203768 268.275247 
L 159.073572 268.400187 
L 161.030633 268.210933 
L 161.900437 268.107942 
L 162.770242 268.047847 
L 164.509851 268.219476 
L 166.24946 268.324442 
L 167.336716 268.42699 
L 167.771618 268.362387 
L 168.20652 268.49508 
L 169.076325 268.511027 
L 169.511227 268.599028 
L 171.250836 268.5508 
L 172.555543 268.557164 
L 173.207896 268.617355 
L 174.295152 268.649164 
L 176.252212 268.44734 
L 176.904566 268.449552 
L 177.991821 268.423742 
L 179.079077 268.169632 
L 179.513979 268.133111 
L 179.948881 268.074739 
L 180.383784 268.081863 
L 181.253588 267.959443 
L 182.123393 267.826435 
L 182.558295 267.767867 
L 182.993197 267.864293 
L 183.4281 267.847699 
L 183.645551 267.922282 
L 184.297904 267.621943 
L 185.602611 266.32375 
L 186.472416 266.03665 
L 187.124769 266.051898 
L 187.559671 266.138435 
L 187.994573 266.218805 
L 190.386536 266.555306 
L 190.821438 266.565059 
L 191.25634 266.648175 
L 192.126145 266.75904 
L 192.343596 266.846757 
L 193.430852 266.719388 
L 194.300656 266.824852 
L 194.735559 266.956328 
L 195.387912 267.098068 
L 195.822814 267.149772 
L 196.475168 267.232267 
L 197.344972 267.143773 
L 197.779875 267.150774 
L 198.214777 267.20405 
L 198.649679 267.207029 
L 200.171837 267.041174 
L 201.259093 267.01334 
L 201.911446 267.089174 
L 202.5638 267.05419 
L 203.868506 266.747274 
L 204.085957 266.401874 
L 204.52086 265.329414 
L 204.955762 264.753845 
L 205.390664 264.494739 
L 206.043018 264.459232 
L 210.174589 264.79574 
L 211.261845 264.763969 
L 211.914198 264.821592 
L 212.349101 264.767102 
L 212.784003 264.845103 
L 213.653807 264.662014 
L 214.306161 264.713104 
L 217.350477 264.879881 
L 218.00283 264.924773 
L 218.437732 264.848851 
L 219.742439 264.897597 
L 220.829695 264.681674 
L 222.569304 264.123195 
L 224.091462 263.914211 
L 225.831071 263.813269 
L 226.265973 263.863778 
L 227.353229 263.912699 
L 228.440485 263.929528 
L 229.962643 263.888865 
L 230.614996 263.853847 
L 231.484801 263.807352 
L 232.789507 263.731742 
L 233.659312 263.706609 
L 234.311665 263.665109 
L 235.18147 263.796766 
L 236.268726 263.861601 
L 237.573432 263.85177 
L 238.008335 263.996366 
L 239.313041 263.760816 
L 239.747944 263.640641 
L 240.182846 263.562852 
L 240.835199 263.580193 
L 241.270102 263.484328 
L 241.705004 263.660225 
L 243.444613 263.53547 
L 244.096966 263.454183 
L 245.619124 263.555428 
L 246.488929 263.646554 
L 247.141282 263.742086 
L 248.228538 263.975759 
L 248.66344 263.968756 
L 249.750696 264.213683 
L 249.968147 264.155061 
L 250.403049 264.277495 
L 251.055403 264.218697 
L 252.795012 264.145844 
L 253.664816 264.183569 
L 253.882268 264.221822 
L 254.31717 263.893288 
L 254.752072 263.738124 
L 255.621877 263.796411 
L 256.709132 263.969853 
L 257.578937 264.151141 
L 258.23129 264.146938 
L 258.666193 264.179316 
L 263.015215 264.424698 
L 264.972275 264.326634 
L 265.407178 264.248825 
L 270.191103 264.13129 
L 270.626005 263.989671 
L 271.49581 264.041624 
L 271.930712 264.043189 
L 272.365614 264.036958 
L 272.800516 264.067156 
L 275.627381 264.310166 
L 276.497186 264.145084 
L 277.584441 264.03917 
L 278.019344 264.155716 
L 279.758953 264.117366 
L 280.193855 264.127998 
L 280.846208 264.244107 
L 281.281111 264.253935 
L 282.368366 264.47871 
L 287.369742 263.884897 
L 288.456998 263.625281 
L 288.8919 263.588643 
L 289.544254 263.433216 
L 290.848961 263.114885 
L 291.718765 262.614738 
L 291.936216 262.477138 
L 294.110728 262.576262 
L 294.763081 262.447747 
L 295.197983 262.372026 
L 295.632886 262.305143 
L 296.285239 262.45858 
L 296.50269 262.367499 
L 298.677201 253.723134 
L 300.416811 248.810095 
L 301.938969 244.971404 
L 303.026224 242.51458 
L 305.200736 238.345242 
L 306.287991 236.564208 
L 307.157796 235.309916 
L 308.462503 233.435124 
L 309.332307 232.165713 
L 309.767209 231.520922 
L 310.202112 230.75929 
L 311.071916 229.822736 
L 311.506818 229.260292 
L 312.159172 228.642097 
L 312.811525 227.991706 
L 313.246428 227.704247 
L 314.116232 226.715723 
L 316.073292 224.62904 
L 317.59545 223.203058 
L 318.682706 222.431313 
L 319.335059 221.941915 
L 320.857217 220.999601 
L 321.944473 220.407721 
L 322.161924 220.358261 
L 322.596826 220.050242 
L 323.031729 219.829358 
L 323.684082 219.30739 
L 324.118984 218.921031 
L 325.641142 218.060124 
L 326.293496 217.781148 
L 327.815654 216.794605 
L 329.990165 216.126415 
L 331.947225 214.855878 
L 333.034481 214.510559 
L 333.469383 214.324595 
L 334.121737 214.166567 
L 335.643895 213.776536 
L 336.078797 213.796657 
L 338.253308 213.292864 
L 339.340564 213.113146 
L 340.42782 213.478753 
L 341.080173 213.496164 
L 342.38488 213.396396 
L 344.559391 213.769773 
L 344.994293 213.690011 
L 345.646647 213.771657 
L 346.081549 214.003253 
L 349.125865 213.796246 
L 349.560767 213.962526 
L 350.865474 213.896947 
L 351.735279 213.869189 
L 353.692339 213.671897 
L 355.214497 213.781865 
L 355.649399 213.821764 
L 357.171557 213.504741 
L 358.693715 213.449844 
L 360.215873 213.547069 
L 361.085677 213.546056 
L 361.303129 213.58575 
L 361.738031 213.460057 
L 362.390384 213.453899 
L 363.042738 213.428638 
L 364.129993 213.546068 
L 366.739407 214.006966 
L 367.39176 214.016217 
L 368.913918 214.299366 
L 369.348821 214.274449 
L 370.436076 214.595348 
L 371.305881 214.600133 
L 371.958234 214.545549 
L 373.697843 215.001783 
L 375.654903 214.80595 
L 376.089806 214.819018 
L 376.95961 214.617099 
L 378.046866 214.395816 
L 378.481768 214.187307 
L 378.916671 214.152081 
L 380.221377 214.546232 
L 380.65628 214.420091 
L 381.091182 214.460014 
L 381.526084 214.440735 
L 382.178438 214.395064 
L 382.61334 214.566554 
L 383.483144 214.720865 
L 383.918047 214.674351 
L 384.5704 214.463609 
L 385.005302 214.366786 
L 385.657656 214.257812 
L 388.049618 214.462922 
L 388.48452 214.374681 
L 390.659032 214.490709 
L 392.18119 214.381488 
L 392.833543 214.427238 
L 393.703348 214.507263 
L 396.965115 214.46532 
L 398.269822 214.748611 
L 398.487273 214.732777 
L 398.487273 214.732777 
" style="fill:none;stroke:#000000;stroke-linecap:square;stroke-width:1.5;"/>
   </g>
   <g id="line2d_18">
    <path clip-path="url(#p31a23fd591)" d="M 73.832727 217.030394 
L 74.702532 217.040461 
L 75.354885 216.871824 
L 76.442141 216.80808 
L 77.094494 216.726763 
L 78.399201 216.665307 
L 78.616652 216.53421 
L 79.051555 216.539772 
L 80.573712 210.398849 
L 82.09587 205.879129 
L 84.705284 199.811298 
L 86.879795 196.018636 
L 87.967051 194.371348 
L 90.359014 190.548779 
L 90.793916 189.987923 
L 91.228818 188.979902 
L 92.316074 187.804199 
L 92.533525 187.783784 
L 93.185878 187.108728 
L 93.620781 186.754441 
L 94.055683 186.268537 
L 94.925487 185.717816 
L 95.36039 185.683037 
L 96.230194 184.71577 
L 96.447645 184.584178 
L 97.099999 183.817873 
L 97.534901 183.382148 
L 97.752352 183.097317 
L 97.969803 183.085611 
L 99.27451 180.732989 
L 99.491961 180.63206 
L 99.709412 179.783637 
L 99.926864 179.774841 
L 100.361766 178.169402 
L 100.579217 178.246386 
L 100.796668 176.348901 
L 101.014119 176.95879 
L 101.23157 175.258015 
L 101.449021 175.34048 
L 101.666473 174.822801 
L 101.883924 173.328262 
L 102.101375 175.912765 
L 102.318826 171.161827 
L 102.536277 175.627548 
L 102.753728 169.479854 
L 102.971179 173.420029 
L 103.188631 166.299935 
L 103.406082 90.898348 
L 103.623533 101.38492 
L 103.840984 176.087127 
L 104.275886 203.799902 
L 104.493337 206.302539 
L 104.710789 204.914255 
L 104.92824 207.089531 
L 105.145691 203.771083 
L 105.363142 205.072675 
L 105.580593 202.920813 
L 105.798044 203.145193 
L 106.015495 202.92884 
L 106.232946 201.893371 
L 106.450398 202.430337 
L 106.667849 201.19883 
L 106.8853 201.371274 
L 107.320202 200.524365 
L 107.537653 200.518182 
L 107.755104 200.083013 
L 107.972556 200.128032 
L 108.190007 199.631098 
L 108.624909 199.485813 
L 109.277262 198.611683 
L 110.147067 197.781717 
L 111.234323 196.394985 
L 111.669225 195.849738 
L 112.756481 194.892079 
L 113.191383 194.392448 
L 113.843736 193.890732 
L 114.278638 193.422716 
L 114.930992 192.990311 
L 115.800796 192.497366 
L 116.018248 192.455258 
L 116.670601 191.853595 
L 117.322954 191.48886 
L 117.757857 190.884107 
L 120.149819 189.054918 
L 120.802173 188.580419 
L 121.237075 188.22352 
L 121.454526 187.888711 
L 121.671977 187.96508 
L 122.324331 187.208744 
L 122.541782 186.969794 
L 122.759233 187.130841 
L 122.976684 186.568735 
L 123.194135 187.019137 
L 123.411586 186.237491 
L 123.629037 186.175794 
L 123.846488 186.530029 
L 124.06394 185.268792 
L 124.281391 185.248483 
L 124.716293 175.618438 
L 124.933744 173.169257 
L 125.151195 172.570153 
L 125.368646 173.580826 
L 125.586098 169.586446 
L 125.803549 174.159937 
L 126.021 165.741576 
L 126.238451 172.992313 
L 126.455902 155.350192 
L 126.673353 82.314621 
L 126.890804 109.986766 
L 127.108255 178.083283 
L 127.543158 202.341045 
L 127.97806 203.504041 
L 128.195511 205.241178 
L 128.412962 202.909162 
L 128.630413 204.264354 
L 128.847865 202.19861 
L 129.065316 203.042164 
L 129.500218 201.692337 
L 129.717669 202.031881 
L 129.93512 201.05445 
L 130.152571 201.509841 
L 130.370023 200.995673 
L 130.587474 200.988829 
L 130.804925 200.855588 
L 131.022376 200.477075 
L 131.239827 200.508801 
L 131.457278 200.076715 
L 131.674729 200.093309 
L 132.109632 199.744337 
L 132.327083 199.679893 
L 132.544534 199.484606 
L 132.761985 199.476837 
L 133.63179 198.59863 
L 134.066692 198.202147 
L 135.806301 196.356101 
L 136.241203 196.018376 
L 136.893557 195.326848 
L 137.980812 194.796179 
L 139.50297 193.207796 
L 139.937872 192.740644 
L 140.372775 192.241541 
L 141.677482 191.364902 
L 141.894933 191.037801 
L 143.634542 190.238575 
L 144.069444 190.436063 
L 145.591602 189.638786 
L 146.026504 189.46597 
L 146.461407 189.402188 
L 146.896309 189.331362 
L 147.11376 189.330739 
L 147.548662 188.981237 
L 147.983565 188.881437 
L 148.418467 188.673839 
L 149.07082 188.312818 
L 149.505722 188.184476 
L 150.592978 187.208478 
L 151.02788 187.022418 
L 152.550038 186.820281 
L 152.984941 186.418361 
L 153.637294 186.273487 
L 154.72455 185.65266 
L 155.159452 185.343809 
L 155.376903 185.381364 
L 155.811805 185.60016 
L 156.464159 185.418066 
L 157.116512 185.542423 
L 157.333963 185.488577 
L 157.768866 185.26078 
L 157.986317 185.276479 
L 158.63867 184.79436 
L 159.508475 183.602107 
L 159.943377 183.593137 
L 160.59573 183.919266 
L 161.248084 183.783589 
L 161.682986 183.839256 
L 162.770242 183.810651 
L 163.205144 184.154568 
L 163.640046 184.475573 
L 163.857497 184.604591 
L 164.2924 184.476506 
L 164.944753 184.095736 
L 165.814558 184.375069 
L 166.901813 183.837425 
L 167.336716 183.410349 
L 167.554167 183.354297 
L 167.989069 182.960551 
L 168.20652 182.960804 
L 168.641422 182.670339 
L 169.076325 182.782274 
L 170.16358 182.664258 
L 170.381031 182.568025 
L 170.815934 182.199663 
L 171.033385 182.250501 
L 171.685738 181.958308 
L 172.120641 181.590326 
L 172.772994 181.190056 
L 173.642799 180.312031 
L 173.86025 180.198249 
L 174.295152 179.773218 
L 174.512603 179.69963 
L 174.947505 179.260461 
L 175.382408 179.440797 
L 175.599859 179.368234 
L 176.252212 179.43517 
L 177.77437 177.972414 
L 177.991821 177.891322 
L 178.426723 177.386512 
L 179.079077 176.417593 
L 179.513979 175.866136 
L 179.948881 175.703178 
L 180.818686 175.683068 
L 181.253588 175.543576 
L 181.905942 174.94676 
L 183.210648 173.643435 
L 184.080453 173.193332 
L 184.950258 172.349313 
L 185.602611 172.031606 
L 185.820062 171.691104 
L 186.037513 171.691573 
L 186.254964 171.350561 
L 186.472416 171.454598 
L 186.907318 170.821285 
L 187.124769 170.979236 
L 187.34222 169.879852 
L 187.559671 170.344741 
L 187.777122 169.381739 
L 188.212025 169.429255 
L 188.429476 167.917045 
L 188.646927 169.41097 
L 188.864378 167.054316 
L 189.081829 169.262659 
L 189.29928 166.852139 
L 189.516731 166.652137 
L 189.734183 167.965102 
L 189.951634 161.526966 
L 190.169085 170.651461 
L 190.603987 74.750075 
L 191.038889 186.387959 
L 191.473792 206.05659 
L 191.691243 204.019176 
L 191.908694 207.861716 
L 192.126145 206.511054 
L 192.561047 206.689943 
L 192.778498 205.416119 
L 192.99595 206.481685 
L 193.213401 205.070732 
L 193.430852 205.601187 
L 193.865754 204.838378 
L 194.083205 205.047358 
L 194.300656 204.404125 
L 194.518108 204.618196 
L 194.735559 204.173083 
L 194.95301 204.19352 
L 195.170461 204.044743 
L 195.387912 203.660424 
L 195.605363 203.639371 
L 196.040265 203.200602 
L 196.91007 202.591785 
L 197.127521 202.532824 
L 197.562423 202.146536 
L 198.432228 201.700501 
L 199.519484 200.773927 
L 201.041642 199.324141 
L 204.085957 196.39846 
L 204.52086 195.936547 
L 204.955762 195.462998 
L 205.825567 194.988075 
L 206.695371 194.491894 
L 206.912822 194.30629 
L 207.347725 194.233909 
L 208.217529 193.461192 
L 208.43498 193.430437 
L 209.957138 192.479134 
L 210.39204 192.215069 
L 210.826943 191.862696 
L 211.479296 191.676759 
L 214.523612 189.390284 
L 215.175965 189.108202 
L 215.610868 188.899384 
L 215.828319 188.818638 
L 216.480672 188.913355 
L 217.567928 188.859863 
L 219.524988 187.845621 
L 220.394793 187.554181 
L 220.829695 187.257662 
L 221.264597 187.213818 
L 221.699499 186.882026 
L 221.916951 186.875664 
L 222.786755 186.49898 
L 223.439109 186.720598 
L 224.743815 186.139654 
L 226.918327 185.434134 
L 227.135778 185.229502 
L 227.353229 185.203732 
L 227.788131 185.442672 
L 228.223034 185.560487 
L 228.657936 185.681314 
L 229.092838 185.783064 
L 229.310289 185.825812 
L 230.397545 185.420639 
L 230.614996 185.446701 
L 230.832447 185.341103 
L 231.267349 185.415109 
L 231.484801 185.277112 
L 232.572056 185.246531 
L 233.006959 185.235018 
L 233.441861 185.531268 
L 233.876763 185.703247 
L 234.529116 185.897707 
L 234.746568 185.907855 
L 235.18147 185.613904 
L 236.486177 185.411768 
L 236.703628 185.205562 
L 237.790884 185.166383 
L 238.660688 185.24659 
L 239.313041 184.940442 
L 239.747944 184.858196 
L 240.400297 184.503354 
L 241.052651 184.398189 
L 241.705004 184.515808 
L 242.139906 184.326289 
L 243.662064 184.145298 
L 243.879515 184.108753 
L 244.314418 184.2146 
L 244.74932 184.086851 
L 245.401673 184.075524 
L 246.271478 183.707112 
L 247.358733 183.408975 
L 248.228538 182.798142 
L 248.66344 182.885696 
L 249.968147 182.480952 
L 250.620501 182.504889 
L 250.837952 182.616012 
L 251.490305 182.257779 
L 252.36011 182.394627 
L 252.577561 182.359704 
L 254.31717 183.087988 
L 254.752072 183.397967 
L 254.969523 183.438573 
L 255.839328 184.091153 
L 256.709132 184.258669 
L 256.926583 184.285902 
L 257.144035 184.084194 
L 258.013839 182.790288 
L 258.448741 182.489039 
L 258.883644 182.697966 
L 259.970899 182.225163 
L 260.18835 182.039931 
L 260.623253 181.903997 
L 261.275606 181.627024 
L 261.710508 181.598468 
L 262.362862 181.339331 
L 262.797764 181.331522 
L 263.450118 180.94817 
L 263.88502 181.14823 
L 264.537373 181.244943 
L 266.494433 182.359473 
L 266.711885 182.25349 
L 268.016591 182.498257 
L 268.668945 181.859358 
L 269.321298 181.849441 
L 270.191103 182.239814 
L 270.626005 182.624031 
L 271.278358 182.916519 
L 272.148163 183.340724 
L 272.365614 183.164374 
L 274.105223 183.703719 
L 274.757577 184.02194 
L 275.844832 184.636042 
L 276.279735 184.780564 
L 277.149539 185.240381 
L 277.36699 185.266079 
L 277.801892 185.622348 
L 278.236795 185.714099 
L 278.671697 185.931529 
L 279.106599 186.207831 
L 279.541502 186.08774 
L 280.193855 186.17336 
L 280.628757 186.451711 
L 280.846208 186.452515 
L 281.498562 186.714924 
L 282.368366 186.700538 
L 283.02072 186.804209 
L 283.455622 187.055706 
L 283.890524 187.207724 
L 284.97778 187.88649 
L 285.630133 188.182394 
L 286.282487 188.614023 
L 286.717389 188.651716 
L 287.369742 188.909912 
L 287.804645 189.140018 
L 288.239547 189.224829 
L 289.326803 189.350049 
L 290.414058 188.996574 
L 291.066412 189.340764 
L 291.501314 189.262777 
L 291.936216 189.082484 
L 292.371119 188.957067 
L 293.023472 188.611259 
L 293.893277 188.425662 
L 295.197983 188.507147 
L 296.50269 189.083517 
L 298.024848 195.897123 
L 299.112104 199.499408 
L 300.851713 203.93887 
L 303.461126 209.090507 
L 304.983284 211.408998 
L 305.200736 211.549722 
L 305.418187 211.441015 
L 305.635638 211.57067 
L 306.505442 212.772079 
L 309.332307 214.660806 
L 311.071916 215.365706 
L 311.941721 215.725054 
L 313.028976 216.031062 
L 313.463879 216.139761 
L 314.986037 216.801121 
L 315.855841 216.754384 
L 316.290743 216.920916 
L 317.59545 216.655526 
L 318.465255 216.394001 
L 319.117608 216.424248 
L 321.074668 216.437814 
L 321.727022 216.529237 
L 323.684082 216.546489 
L 325.641142 216.577986 
L 326.076045 216.609496 
L 329.555263 216.811919 
L 330.207616 216.633994 
L 331.512323 216.813987 
L 332.382128 216.83351 
L 332.81703 216.741011 
L 334.121737 216.772501 
L 334.991541 216.877131 
L 336.948601 217.033611 
L 337.383504 217.02235 
L 338.253308 217.044366 
L 339.340564 217.310217 
L 339.775466 217.269808 
L 340.862722 217.322621 
L 341.515075 217.324079 
L 343.472135 217.333396 
L 345.211745 216.558939 
L 345.864098 216.585045 
L 347.603707 216.485903 
L 348.25606 216.30703 
L 349.778218 216.286137 
L 351.300376 216.385699 
L 353.474888 216.592303 
L 354.127241 216.361237 
L 354.779594 216.31389 
L 357.82391 216.507878 
L 358.258813 216.545919 
L 358.476264 216.475637 
L 358.911166 216.484375 
L 359.346068 216.305497 
L 359.998422 213.609251 
L 360.433324 213.032432 
L 360.868226 213.024972 
L 362.825286 213.781157 
L 364.347444 214.423083 
L 367.609211 215.436523 
L 368.044114 215.435645 
L 369.566272 215.634723 
L 370.870979 215.867805 
L 371.305881 215.937466 
L 371.523332 215.887133 
L 371.958234 216.103148 
L 372.610588 216.19276 
L 373.480392 216.304233 
L 374.567648 216.390751 
L 375.654903 216.447601 
L 376.307257 216.389709 
L 377.177061 216.121092 
L 378.046866 216.01421 
L 378.481768 216.05158 
L 378.916671 216.095646 
L 379.351573 216.177041 
L 380.221377 216.016814 
L 380.65628 216.042691 
L 381.526084 215.871089 
L 385.440205 215.611905 
L 387.832167 215.520469 
L 388.919423 215.268465 
L 390.659032 215.615672 
L 391.093934 215.603125 
L 391.528836 215.603786 
L 391.963739 215.588443 
L 392.398641 215.650081 
L 394.573152 215.60215 
L 395.008055 215.761389 
L 395.660408 215.714792 
L 398.487273 216.382317 
L 398.487273 216.382317 
" style="fill:none;stroke:#000000;stroke-linecap:square;stroke-width:1.5;"/>
   </g>
   <g id="patch_3">
    <path d="M 57.6 307.584 
L 57.6 41.472 
" style="fill:none;stroke:#000000;stroke-linecap:square;stroke-linejoin:miter;stroke-width:0.8;"/>
   </g>
   <g id="patch_4">
    <path d="M 414.72 307.584 
L 414.72 41.472 
" style="fill:none;stroke:#000000;stroke-linecap:square;stroke-linejoin:miter;stroke-width:0.8;"/>
   </g>
   <g id="patch_5">
    <path d="M 57.6 307.584 
L 414.72 307.584 
" style="fill:none;stroke:#000000;stroke-linecap:square;stroke-linejoin:miter;stroke-width:0.8;"/>
   </g>
   <g id="patch_6">
    <path d="M 57.6 41.472 
L 414.72 41.472 
" style="fill:none;stroke:#000000;stroke-linecap:square;stroke-linejoin:miter;stroke-width:0.8;"/>
   </g>
  </g>
 </g>
 <defs>
  <clipPath id="p31a23fd591">
   <rect height="266.112" width="357.12" x="57.6" y="41.472"/>
  </clipPath>
 </defs>
</svg>
