<?xml version="1.0" encoding="utf-8" standalone="no"?>
<!DOCTYPE svg PUBLIC "-//W3C//DTD SVG 1.1//EN"
  "http://www.w3.org/Graphics/SVG/1.1/DTD/svg11.dtd">
<svg height="345.6pt" version="1.1" viewBox="0 0 460.8 345.6" width="460.8pt" xmlns="http://www.w3.org/2000/svg" xmlns:xlink="http://www.w3.org/1999/xlink">
 <metadata>
  <rdf:RDF xmlns:cc="http://creativecommons.org/ns#" xmlns:dc="http://purl.org/dc/elements/1.1/" xmlns:rdf="http://www.w3.org/1999/02/22-rdf-syntax-ns#">
   <cc:Work>
    <dc:type rdf:resource="http://purl.org/dc/dcmitype/StillImage"/>
    <dc:date>2024-08-06T14:44:38.368640</dc:date>
    <dc:format>image/svg+xml</dc:format>
    <dc:creator>
     <cc:Agent>
      <dc:title>Matplotlib v3.4.2, https://matplotlib.org/</dc:title>
     </cc:Agent>
    </dc:creator>
   </cc:Work>
  </rdf:RDF>
 </metadata>
 <defs>
  <style type="text/css">*{stroke-linecap:butt;stroke-linejoin:round;}</style>
 </defs>
 <g id="figure_1">
  <g id="patch_1">
   <path d="M 0 345.6 
L 460.8 345.6 
L 460.8 0 
L 0 0 
z
" style="fill:#ffffff;"/>
  </g>
  <g id="axes_1">
   <g id="patch_2">
    <path d="M 57.6 307.584 
L 414.72 307.584 
L 414.72 41.472 
L 57.6 41.472 
z
" style="fill:#ffffff;"/>
   </g>
   <g id="matplotlib.axis_1">
    <g id="xtick_1">
     <g id="line2d_1">
      <defs>
       <path d="M 0 0 
L 0 3.5 
" id="m617bd6e4b7" style="stroke:#000000;stroke-width:0.8;"/>
      </defs>
      <g>
       <use style="stroke:#000000;stroke-width:0.8;" x="95.211629" xlink:href="#m617bd6e4b7" y="307.584"/>
      </g>
     </g>
     <g id="text_1">
      <!-- 0.2 -->
      <g transform="translate(87.260067 322.182437)scale(0.1 -0.1)">
       <defs>
        <path d="M 2034 4250 
Q 1547 4250 1301 3770 
Q 1056 3291 1056 2328 
Q 1056 1369 1301 889 
Q 1547 409 2034 409 
Q 2525 409 2770 889 
Q 3016 1369 3016 2328 
Q 3016 3291 2770 3770 
Q 2525 4250 2034 4250 
z
M 2034 4750 
Q 2819 4750 3233 4129 
Q 3647 3509 3647 2328 
Q 3647 1150 3233 529 
Q 2819 -91 2034 -91 
Q 1250 -91 836 529 
Q 422 1150 422 2328 
Q 422 3509 836 4129 
Q 1250 4750 2034 4750 
z
" id="DejaVuSans-30" transform="scale(0.015625)"/>
        <path d="M 684 794 
L 1344 794 
L 1344 0 
L 684 0 
L 684 794 
z
" id="DejaVuSans-2e" transform="scale(0.015625)"/>
        <path d="M 1228 531 
L 3431 531 
L 3431 0 
L 469 0 
L 469 531 
Q 828 903 1448 1529 
Q 2069 2156 2228 2338 
Q 2531 2678 2651 2914 
Q 2772 3150 2772 3378 
Q 2772 3750 2511 3984 
Q 2250 4219 1831 4219 
Q 1534 4219 1204 4116 
Q 875 4013 500 3803 
L 500 4441 
Q 881 4594 1212 4672 
Q 1544 4750 1819 4750 
Q 2544 4750 2975 4387 
Q 3406 4025 3406 3419 
Q 3406 3131 3298 2873 
Q 3191 2616 2906 2266 
Q 2828 2175 2409 1742 
Q 1991 1309 1228 531 
z
" id="DejaVuSans-32" transform="scale(0.015625)"/>
       </defs>
       <use xlink:href="#DejaVuSans-30"/>
       <use x="63.623047" xlink:href="#DejaVuSans-2e"/>
       <use x="95.410156" xlink:href="#DejaVuSans-32"/>
      </g>
     </g>
    </g>
    <g id="xtick_2">
     <g id="line2d_2">
      <g>
       <use style="stroke:#000000;stroke-width:0.8;" x="139.20545" xlink:href="#m617bd6e4b7" y="307.584"/>
      </g>
     </g>
     <g id="text_2">
      <!-- 0.4 -->
      <g transform="translate(131.253887 322.182437)scale(0.1 -0.1)">
       <defs>
        <path d="M 2419 4116 
L 825 1625 
L 2419 1625 
L 2419 4116 
z
M 2253 4666 
L 3047 4666 
L 3047 1625 
L 3713 1625 
L 3713 1100 
L 3047 1100 
L 3047 0 
L 2419 0 
L 2419 1100 
L 313 1100 
L 313 1709 
L 2253 4666 
z
" id="DejaVuSans-34" transform="scale(0.015625)"/>
       </defs>
       <use xlink:href="#DejaVuSans-30"/>
       <use x="63.623047" xlink:href="#DejaVuSans-2e"/>
       <use x="95.410156" xlink:href="#DejaVuSans-34"/>
      </g>
     </g>
    </g>
    <g id="xtick_3">
     <g id="line2d_3">
      <g>
       <use style="stroke:#000000;stroke-width:0.8;" x="183.19927" xlink:href="#m617bd6e4b7" y="307.584"/>
      </g>
     </g>
     <g id="text_3">
      <!-- 0.6 -->
      <g transform="translate(175.247707 322.182437)scale(0.1 -0.1)">
       <defs>
        <path d="M 2113 2584 
Q 1688 2584 1439 2293 
Q 1191 2003 1191 1497 
Q 1191 994 1439 701 
Q 1688 409 2113 409 
Q 2538 409 2786 701 
Q 3034 994 3034 1497 
Q 3034 2003 2786 2293 
Q 2538 2584 2113 2584 
z
M 3366 4563 
L 3366 3988 
Q 3128 4100 2886 4159 
Q 2644 4219 2406 4219 
Q 1781 4219 1451 3797 
Q 1122 3375 1075 2522 
Q 1259 2794 1537 2939 
Q 1816 3084 2150 3084 
Q 2853 3084 3261 2657 
Q 3669 2231 3669 1497 
Q 3669 778 3244 343 
Q 2819 -91 2113 -91 
Q 1303 -91 875 529 
Q 447 1150 447 2328 
Q 447 3434 972 4092 
Q 1497 4750 2381 4750 
Q 2619 4750 2861 4703 
Q 3103 4656 3366 4563 
z
" id="DejaVuSans-36" transform="scale(0.015625)"/>
       </defs>
       <use xlink:href="#DejaVuSans-30"/>
       <use x="63.623047" xlink:href="#DejaVuSans-2e"/>
       <use x="95.410156" xlink:href="#DejaVuSans-36"/>
      </g>
     </g>
    </g>
    <g id="xtick_4">
     <g id="line2d_4">
      <g>
       <use style="stroke:#000000;stroke-width:0.8;" x="227.19309" xlink:href="#m617bd6e4b7" y="307.584"/>
      </g>
     </g>
     <g id="text_4">
      <!-- 0.8 -->
      <g transform="translate(219.241528 322.182437)scale(0.1 -0.1)">
       <defs>
        <path d="M 2034 2216 
Q 1584 2216 1326 1975 
Q 1069 1734 1069 1313 
Q 1069 891 1326 650 
Q 1584 409 2034 409 
Q 2484 409 2743 651 
Q 3003 894 3003 1313 
Q 3003 1734 2745 1975 
Q 2488 2216 2034 2216 
z
M 1403 2484 
Q 997 2584 770 2862 
Q 544 3141 544 3541 
Q 544 4100 942 4425 
Q 1341 4750 2034 4750 
Q 2731 4750 3128 4425 
Q 3525 4100 3525 3541 
Q 3525 3141 3298 2862 
Q 3072 2584 2669 2484 
Q 3125 2378 3379 2068 
Q 3634 1759 3634 1313 
Q 3634 634 3220 271 
Q 2806 -91 2034 -91 
Q 1263 -91 848 271 
Q 434 634 434 1313 
Q 434 1759 690 2068 
Q 947 2378 1403 2484 
z
M 1172 3481 
Q 1172 3119 1398 2916 
Q 1625 2713 2034 2713 
Q 2441 2713 2670 2916 
Q 2900 3119 2900 3481 
Q 2900 3844 2670 4047 
Q 2441 4250 2034 4250 
Q 1625 4250 1398 4047 
Q 1172 3844 1172 3481 
z
" id="DejaVuSans-38" transform="scale(0.015625)"/>
       </defs>
       <use xlink:href="#DejaVuSans-30"/>
       <use x="63.623047" xlink:href="#DejaVuSans-2e"/>
       <use x="95.410156" xlink:href="#DejaVuSans-38"/>
      </g>
     </g>
    </g>
    <g id="xtick_5">
     <g id="line2d_5">
      <g>
       <use style="stroke:#000000;stroke-width:0.8;" x="271.18691" xlink:href="#m617bd6e4b7" y="307.584"/>
      </g>
     </g>
     <g id="text_5">
      <!-- 1.0 -->
      <g transform="translate(263.235348 322.182437)scale(0.1 -0.1)">
       <defs>
        <path d="M 794 531 
L 1825 531 
L 1825 4091 
L 703 3866 
L 703 4441 
L 1819 4666 
L 2450 4666 
L 2450 531 
L 3481 531 
L 3481 0 
L 794 0 
L 794 531 
z
" id="DejaVuSans-31" transform="scale(0.015625)"/>
       </defs>
       <use xlink:href="#DejaVuSans-31"/>
       <use x="63.623047" xlink:href="#DejaVuSans-2e"/>
       <use x="95.410156" xlink:href="#DejaVuSans-30"/>
      </g>
     </g>
    </g>
    <g id="xtick_6">
     <g id="line2d_6">
      <g>
       <use style="stroke:#000000;stroke-width:0.8;" x="315.18073" xlink:href="#m617bd6e4b7" y="307.584"/>
      </g>
     </g>
     <g id="text_6">
      <!-- 1.2 -->
      <g transform="translate(307.229168 322.182437)scale(0.1 -0.1)">
       <use xlink:href="#DejaVuSans-31"/>
       <use x="63.623047" xlink:href="#DejaVuSans-2e"/>
       <use x="95.410156" xlink:href="#DejaVuSans-32"/>
      </g>
     </g>
    </g>
    <g id="xtick_7">
     <g id="line2d_7">
      <g>
       <use style="stroke:#000000;stroke-width:0.8;" x="359.174551" xlink:href="#m617bd6e4b7" y="307.584"/>
      </g>
     </g>
     <g id="text_7">
      <!-- 1.4 -->
      <g transform="translate(351.222988 322.182437)scale(0.1 -0.1)">
       <use xlink:href="#DejaVuSans-31"/>
       <use x="63.623047" xlink:href="#DejaVuSans-2e"/>
       <use x="95.410156" xlink:href="#DejaVuSans-34"/>
      </g>
     </g>
    </g>
    <g id="xtick_8">
     <g id="line2d_8">
      <g>
       <use style="stroke:#000000;stroke-width:0.8;" x="403.168371" xlink:href="#m617bd6e4b7" y="307.584"/>
      </g>
     </g>
     <g id="text_8">
      <!-- 1.6 -->
      <g transform="translate(395.216808 322.182437)scale(0.1 -0.1)">
       <use xlink:href="#DejaVuSans-31"/>
       <use x="63.623047" xlink:href="#DejaVuSans-2e"/>
       <use x="95.410156" xlink:href="#DejaVuSans-36"/>
      </g>
     </g>
    </g>
   </g>
   <g id="matplotlib.axis_2">
    <g id="ytick_1">
     <g id="line2d_9">
      <defs>
       <path d="M 0 0 
L -3.5 0 
" id="m009311fb85" style="stroke:#000000;stroke-width:0.8;"/>
      </defs>
      <g>
       <use style="stroke:#000000;stroke-width:0.8;" x="57.6" xlink:href="#m009311fb85" y="292.025773"/>
      </g>
     </g>
     <g id="text_9">
      <!-- −140 -->
      <g transform="translate(23.132812 295.824992)scale(0.1 -0.1)">
       <defs>
        <path d="M 678 2272 
L 4684 2272 
L 4684 1741 
L 678 1741 
L 678 2272 
z
" id="DejaVuSans-2212" transform="scale(0.015625)"/>
       </defs>
       <use xlink:href="#DejaVuSans-2212"/>
       <use x="83.789062" xlink:href="#DejaVuSans-31"/>
       <use x="147.412109" xlink:href="#DejaVuSans-34"/>
       <use x="211.035156" xlink:href="#DejaVuSans-30"/>
      </g>
     </g>
    </g>
    <g id="ytick_2">
     <g id="line2d_10">
      <g>
       <use style="stroke:#000000;stroke-width:0.8;" x="57.6" xlink:href="#m009311fb85" y="262.230619"/>
      </g>
     </g>
     <g id="text_10">
      <!-- −120 -->
      <g transform="translate(23.132812 266.029837)scale(0.1 -0.1)">
       <use xlink:href="#DejaVuSans-2212"/>
       <use x="83.789062" xlink:href="#DejaVuSans-31"/>
       <use x="147.412109" xlink:href="#DejaVuSans-32"/>
       <use x="211.035156" xlink:href="#DejaVuSans-30"/>
      </g>
     </g>
    </g>
    <g id="ytick_3">
     <g id="line2d_11">
      <g>
       <use style="stroke:#000000;stroke-width:0.8;" x="57.6" xlink:href="#m009311fb85" y="232.435464"/>
      </g>
     </g>
     <g id="text_11">
      <!-- −100 -->
      <g transform="translate(23.132812 236.234682)scale(0.1 -0.1)">
       <use xlink:href="#DejaVuSans-2212"/>
       <use x="83.789062" xlink:href="#DejaVuSans-31"/>
       <use x="147.412109" xlink:href="#DejaVuSans-30"/>
       <use x="211.035156" xlink:href="#DejaVuSans-30"/>
      </g>
     </g>
    </g>
    <g id="ytick_4">
     <g id="line2d_12">
      <g>
       <use style="stroke:#000000;stroke-width:0.8;" x="57.6" xlink:href="#m009311fb85" y="202.640309"/>
      </g>
     </g>
     <g id="text_12">
      <!-- −80 -->
      <g transform="translate(29.495313 206.439527)scale(0.1 -0.1)">
       <use xlink:href="#DejaVuSans-2212"/>
       <use x="83.789062" xlink:href="#DejaVuSans-38"/>
       <use x="147.412109" xlink:href="#DejaVuSans-30"/>
      </g>
     </g>
    </g>
    <g id="ytick_5">
     <g id="line2d_13">
      <g>
       <use style="stroke:#000000;stroke-width:0.8;" x="57.6" xlink:href="#m009311fb85" y="172.845154"/>
      </g>
     </g>
     <g id="text_13">
      <!-- −60 -->
      <g transform="translate(29.495313 176.644372)scale(0.1 -0.1)">
       <use xlink:href="#DejaVuSans-2212"/>
       <use x="83.789062" xlink:href="#DejaVuSans-36"/>
       <use x="147.412109" xlink:href="#DejaVuSans-30"/>
      </g>
     </g>
    </g>
    <g id="ytick_6">
     <g id="line2d_14">
      <g>
       <use style="stroke:#000000;stroke-width:0.8;" x="57.6" xlink:href="#m009311fb85" y="143.049999"/>
      </g>
     </g>
     <g id="text_14">
      <!-- −40 -->
      <g transform="translate(29.495313 146.849218)scale(0.1 -0.1)">
       <use xlink:href="#DejaVuSans-2212"/>
       <use x="83.789062" xlink:href="#DejaVuSans-34"/>
       <use x="147.412109" xlink:href="#DejaVuSans-30"/>
      </g>
     </g>
    </g>
    <g id="ytick_7">
     <g id="line2d_15">
      <g>
       <use style="stroke:#000000;stroke-width:0.8;" x="57.6" xlink:href="#m009311fb85" y="113.254844"/>
      </g>
     </g>
     <g id="text_15">
      <!-- −20 -->
      <g transform="translate(29.495313 117.054063)scale(0.1 -0.1)">
       <use xlink:href="#DejaVuSans-2212"/>
       <use x="83.789062" xlink:href="#DejaVuSans-32"/>
       <use x="147.412109" xlink:href="#DejaVuSans-30"/>
      </g>
     </g>
    </g>
    <g id="ytick_8">
     <g id="line2d_16">
      <g>
       <use style="stroke:#000000;stroke-width:0.8;" x="57.6" xlink:href="#m009311fb85" y="83.459689"/>
      </g>
     </g>
     <g id="text_16">
      <!-- 0 -->
      <g transform="translate(44.2375 87.258908)scale(0.1 -0.1)">
       <use xlink:href="#DejaVuSans-30"/>
      </g>
     </g>
    </g>
    <g id="ytick_9">
     <g id="line2d_17">
      <g>
       <use style="stroke:#000000;stroke-width:0.8;" x="57.6" xlink:href="#m009311fb85" y="53.664534"/>
      </g>
     </g>
     <g id="text_17">
      <!-- 20 -->
      <g transform="translate(37.875 57.463753)scale(0.1 -0.1)">
       <use xlink:href="#DejaVuSans-32"/>
       <use x="63.623047" xlink:href="#DejaVuSans-30"/>
      </g>
     </g>
    </g>
   </g>
   <g id="line2d_18">
    <path clip-path="url(#pbbb1efaba9)" d="M 73.832727 185.994423 
L 74.26763 186.022894 
L 74.702532 186.097498 
L 75.572336 186.035268 
L 79.051555 186.496166 
L 80.13881 196.440523 
L 81.226066 203.584375 
L 82.530773 211.184193 
L 84.487833 220.529803 
L 86.662344 229.061256 
L 89.054307 237.811491 
L 91.228818 244.687144 
L 94.055683 252.460982 
L 96.665097 258.289705 
L 98.839608 262.366895 
L 101.449021 266.796892 
L 102.536277 268.416837 
L 103.188631 269.282795 
L 104.493337 271.212065 
L 105.145691 272.080715 
L 108.624909 276.314641 
L 113.843736 280.678434 
L 114.278638 281.046545 
L 115.148443 281.808952 
L 118.192759 284.194971 
L 118.627661 284.495018 
L 121.019624 286.433364 
L 122.541782 287.443638 
L 123.411586 287.981433 
L 123.846488 288.280312 
L 124.933744 288.954519 
L 125.586098 289.404558 
L 126.021 289.623425 
L 129.065316 291.417606 
L 129.93512 291.66046 
L 130.587474 291.920498 
L 131.89218 292.195976 
L 132.761985 292.35126 
L 138.850617 293.881405 
L 139.285519 293.948741 
L 140.372775 294.253236 
L 141.025128 292.779237 
L 141.46003 292.311763 
L 141.894933 292.205221 
L 145.1567 292.507142 
L 145.374151 292.473249 
L 146.243955 292.766099 
L 146.896309 292.844115 
L 147.548662 293.034562 
L 148.635918 293.301048 
L 152.332587 293.593311 
L 152.767489 293.592987 
L 153.637294 293.753036 
L 154.072196 293.77494 
L 154.942001 293.933743 
L 158.203768 294.220149 
L 158.856121 294.089877 
L 161.030633 294.298131 
L 161.465535 294.366431 
L 161.900437 294.441933 
L 164.2924 294.452178 
L 164.944753 294.400169 
L 166.032009 294.475042 
L 168.423971 294.745887 
L 168.858874 294.892958 
L 169.511227 294.832718 
L 169.946129 294.734739 
L 170.381031 294.70587 
L 170.815934 294.698499 
L 171.903189 295.11806 
L 172.555543 295.20372 
L 173.86025 295.112442 
L 174.512603 295.030941 
L 177.556919 294.689469 
L 178.209272 294.623238 
L 180.818686 294.918258 
L 182.993197 294.796438 
L 184.515355 294.962184 
L 186.037513 294.871378 
L 186.907318 294.976333 
L 187.777122 295.194405 
L 188.212025 295.345406 
L 189.29928 295.255936 
L 189.734183 295.265798 
L 190.169085 295.197027 
L 190.821438 295.31641 
L 191.691243 295.27142 
L 192.778498 295.424372 
L 194.735559 295.264214 
L 195.387912 295.141043 
L 195.822814 295.179986 
L 196.257717 295.214357 
L 197.344972 295.342361 
L 198.432228 295.332088 
L 199.302033 295.190367 
L 199.736935 295.034291 
L 200.606739 294.696588 
L 201.041642 294.517954 
L 201.476544 294.514534 
L 201.911446 294.260067 
L 202.5638 294.213722 
L 203.216153 294.287989 
L 203.651055 294.203483 
L 205.173213 294.053024 
L 205.825567 294.05329 
L 207.565176 293.662466 
L 207.782627 293.695347 
L 208.217529 293.44189 
L 208.652431 293.417773 
L 211.261845 292.573082 
L 213.218905 292.442882 
L 215.610868 291.890829 
L 216.04577 291.904934 
L 216.480672 291.693646 
L 217.133026 291.461437 
L 217.567928 291.110231 
L 218.220281 290.604265 
L 219.090086 290.129407 
L 220.394793 290.233189 
L 220.829695 289.387212 
L 221.264597 288.496501 
L 221.699499 288.216933 
L 222.134402 288.080735 
L 222.351853 287.899813 
L 223.874011 284.352608 
L 224.526364 284.615584 
L 224.743815 284.381603 
L 225.831071 281.006153 
L 226.265973 279.963094 
L 226.918327 278.345603 
L 227.135778 278.034737 
L 227.57068 276.678977 
L 228.005582 275.593291 
L 228.440485 273.279507 
L 228.875387 273.174567 
L 229.310289 272.533805 
L 229.52774 271.884057 
L 229.962643 271.656808 
L 230.180094 271.770432 
L 230.397545 271.556945 
L 230.832447 268.92621 
L 231.267349 268.83012 
L 231.919703 268.943449 
L 232.572056 269.261613 
L 233.006959 269.103523 
L 233.659312 268.090238 
L 233.876763 268.078704 
L 234.094214 267.900955 
L 234.529116 266.749754 
L 234.746568 266.771543 
L 235.18147 267.008037 
L 235.398921 266.393831 
L 235.833823 264.592939 
L 236.268726 263.34474 
L 236.486177 263.065458 
L 236.921079 262.942484 
L 237.355981 262.170243 
L 237.573432 262.20921 
L 238.225786 262.936415 
L 238.443237 262.789099 
L 238.878139 262.732984 
L 239.09559 262.483164 
L 240.182846 262.777922 
L 240.617748 262.987105 
L 241.052651 263.080696 
L 241.487553 263.239088 
L 241.705004 263.194117 
L 241.922455 263.277654 
L 242.139906 263.028725 
L 242.79226 261.650864 
L 243.227162 261.368645 
L 243.444613 261.126642 
L 243.879515 261.106358 
L 245.184222 262.014125 
L 246.054027 263.10124 
L 246.488929 263.468275 
L 247.141282 263.781243 
L 247.576185 264.124489 
L 248.228538 264.816369 
L 248.880891 264.485062 
L 249.533245 265.38837 
L 249.750696 265.477445 
L 250.185598 264.970177 
L 250.620501 264.604626 
L 251.055403 264.971033 
L 252.36011 266.346198 
L 252.795012 266.232734 
L 253.012463 266.054456 
L 253.447365 265.399185 
L 254.534621 265.519424 
L 256.926583 268.07943 
L 257.361486 268.262786 
L 259.753448 269.969418 
L 260.405802 269.426688 
L 261.92796 270.207934 
L 262.362862 270.558211 
L 262.580313 270.640387 
L 263.667569 271.723282 
L 264.754824 272.413265 
L 265.624629 272.72913 
L 266.059531 272.95849 
L 266.711885 273.511066 
L 267.146787 273.663924 
L 268.886396 274.969989 
L 270.843456 275.801287 
L 271.713261 276.03403 
L 274.975028 277.464461 
L 275.40993 277.647206 
L 277.149539 278.033349 
L 277.584441 278.223358 
L 278.671697 278.2674 
L 279.32405 278.322361 
L 279.758953 278.14059 
L 279.976404 278.015566 
L 281.281111 278.053593 
L 282.150915 277.641049 
L 282.585817 277.651302 
L 283.238171 277.556616 
L 283.890524 277.420913 
L 284.107975 277.245941 
L 284.542878 277.160702 
L 284.97778 276.70629 
L 285.412682 276.564163 
L 286.065036 275.884162 
L 286.499938 275.747469 
L 287.152291 275.916603 
L 287.369742 275.892809 
L 288.8919 274.809424 
L 290.631509 273.809657 
L 290.848961 273.334362 
L 291.283863 273.104395 
L 291.501314 272.751478 
L 292.153667 272.766206 
L 293.023472 271.772356 
L 293.240923 271.963401 
L 293.458374 271.364604 
L 294.110728 267.977333 
L 294.328179 267.643237 
L 294.980532 267.752385 
L 295.197983 267.681493 
L 295.415434 267.762486 
L 295.850337 267.489467 
L 296.285239 267.740612 
L 296.50269 267.602604 
L 296.937592 262.256096 
L 297.589946 255.771373 
L 298.242299 250.00079 
L 299.764457 240.158673 
L 302.15642 228.553814 
L 304.765833 219.053482 
L 305.635638 215.351229 
L 307.810149 205.148107 
L 308.679954 203.167865 
L 310.637014 200.074236 
L 314.986037 195.222643 
L 316.725646 192.010885 
L 317.160548 191.510811 
L 318.682706 190.606376 
L 319.552511 190.008874 
L 320.204864 189.800782 
L 320.857217 189.642183 
L 321.29212 189.449921 
L 321.944473 189.149484 
L 322.379375 189.05199 
L 323.031729 188.676679 
L 324.553887 187.991579 
L 324.988789 187.814476 
L 325.641142 187.502603 
L 328.250556 186.959647 
L 328.902909 186.789209 
L 333.034481 186.080453 
L 333.904285 185.999575 
L 334.339188 185.820709 
L 334.77409 185.692687 
L 335.426443 185.648685 
L 336.078797 185.677477 
L 338.035857 185.407526 
L 338.253308 185.497363 
L 338.905662 185.424501 
L 339.340564 185.459582 
L 342.819782 185.450278 
L 344.34194 184.798773 
L 344.776842 184.723887 
L 345.429196 184.789597 
L 346.081549 184.830205 
L 346.516451 184.996595 
L 347.168805 185.108262 
L 349.343316 185.432741 
L 350.648023 185.312288 
L 351.082925 184.764426 
L 351.735279 184.680002 
L 352.387632 184.808552 
L 353.692339 185.151456 
L 354.562143 185.207296 
L 355.431948 185.209756 
L 356.084301 185.161708 
L 358.258813 184.972417 
L 358.693715 184.980759 
L 359.998422 184.533476 
L 360.650775 184.488498 
L 362.390384 184.510671 
L 362.825286 184.453476 
L 363.260189 184.577867 
L 364.347444 184.725318 
L 364.999798 184.773204 
L 366.087054 184.66941 
L 366.739407 184.61316 
L 368.044114 184.608229 
L 369.566272 184.554367 
L 370.218625 184.403533 
L 374.567648 184.481993 
L 375.00255 184.475896 
L 375.437452 184.559155 
L 376.089806 184.557512 
L 376.742159 184.60824 
L 379.351573 184.491689 
L 380.438828 184.528416 
L 380.873731 184.406504 
L 382.178438 184.47729 
L 382.395889 184.376526 
L 382.830791 183.716003 
L 383.265693 183.315842 
L 383.700596 183.183418 
L 386.092558 183.49244 
L 386.52746 183.520723 
L 387.397265 183.543161 
L 387.832167 183.542384 
L 388.267069 183.523847 
L 388.701972 183.572339 
L 389.354325 183.448537 
L 390.876483 183.289098 
L 391.311385 183.280413 
L 391.746288 183.15696 
L 392.616092 183.273786 
L 393.268445 183.271316 
L 393.920799 183.455357 
L 394.790603 183.588553 
L 396.09531 183.674394 
L 397.617468 183.817078 
L 398.487273 183.775326 
L 398.487273 183.775326 
" style="fill:none;stroke:#000000;stroke-linecap:square;stroke-width:1.5;"/>
   </g>
   <g id="line2d_19">
    <path clip-path="url(#pbbb1efaba9)" d="M 73.832727 178.407244 
L 74.485081 178.281851 
L 75.137434 178.117473 
L 76.22469 177.988086 
L 76.877043 177.640585 
L 77.311945 177.359555 
L 78.616652 177.694376 
L 78.834103 177.653738 
L 79.051555 177.792606 
L 80.356261 182.672726 
L 81.226066 184.974605 
L 81.878419 186.528287 
L 82.313322 187.16516 
L 85.79254 191.190473 
L 86.444893 192.075696 
L 87.097247 192.760976 
L 87.532149 193.231674 
L 88.184502 193.718779 
L 88.401953 193.937346 
L 89.054307 194.928304 
L 89.489209 195.207521 
L 89.924111 195.571995 
L 90.359014 195.92179 
L 92.750976 196.456601 
L 93.620781 197.346335 
L 94.055683 197.777036 
L 94.708036 198.109842 
L 95.577841 198.426312 
L 96.012743 198.806531 
L 96.665097 199.383271 
L 97.31745 199.789914 
L 97.752352 199.641062 
L 97.969803 199.654908 
L 98.404706 199.470559 
L 99.057059 199.587918 
L 99.709412 199.953985 
L 100.144315 200.12434 
L 101.014119 200.51242 
L 101.883924 200.47126 
L 102.318826 200.587588 
L 102.753728 200.893574 
L 103.188631 201.174526 
L 104.710789 202.803641 
L 105.145691 203.196207 
L 105.798044 203.860898 
L 106.450398 204.142355 
L 107.320202 204.666902 
L 107.755104 204.397478 
L 108.190007 204.447838 
L 108.84236 204.070785 
L 109.277262 204.14149 
L 110.147067 204.573498 
L 111.016871 204.800539 
L 111.451774 204.701971 
L 111.886676 204.998183 
L 112.756481 204.92637 
L 113.191383 204.934218 
L 114.278638 205.418037 
L 114.930992 205.623565 
L 115.583345 205.920162 
L 116.018248 205.86577 
L 116.888052 206.221712 
L 117.975308 207.091024 
L 118.41021 207.186171 
L 119.932368 207.874083 
L 121.237075 208.477285 
L 122.324331 208.943866 
L 122.976684 209.460094 
L 123.411586 209.72209 
L 123.629037 209.920109 
L 124.716293 210.059105 
L 125.151195 210.257857 
L 126.238451 210.317971 
L 127.97806 210.921793 
L 129.717669 211.27738 
L 129.93512 211.092113 
L 130.370023 210.404688 
L 130.804925 210.163107 
L 133.196887 209.785141 
L 133.63179 209.855389 
L 134.284143 209.73079 
L 136.458654 209.773332 
L 137.328459 209.682366 
L 137.980812 209.77875 
L 138.633166 209.991806 
L 139.285519 209.790662 
L 142.112384 209.746227 
L 142.982188 210.025806 
L 143.417091 209.905654 
L 143.851993 209.763996 
L 144.721797 209.906295 
L 145.591602 210.149121 
L 146.026504 210.167343 
L 146.678858 210.298873 
L 147.11376 210.244892 
L 147.766113 210.025414 
L 148.418467 209.928191 
L 149.07082 209.747696 
L 150.158076 209.733758 
L 151.245332 210.06347 
L 152.115136 209.930738 
L 152.550038 209.778481 
L 154.289647 209.908097 
L 155.811805 209.900843 
L 156.899061 210.565399 
L 157.551414 210.835865 
L 157.986317 211.037225 
L 158.63867 211.24038 
L 159.073572 211.433597 
L 161.248084 211.66524 
L 161.682986 211.448643 
L 163.205144 211.15145 
L 164.2924 210.84713 
L 164.509851 210.86027 
L 164.944753 211.0763 
L 165.379655 211.128248 
L 166.684362 211.395122 
L 167.336716 211.436024 
L 168.858874 212.121068 
L 170.16358 211.47212 
L 171.250836 211.576123 
L 171.903189 211.766787 
L 172.555543 211.965908 
L 173.86025 212.056296 
L 174.730054 212.23803 
L 175.382408 212.157195 
L 176.687114 211.981165 
L 177.122017 212.033333 
L 177.77437 212.001383 
L 178.426723 212.004984 
L 179.296528 212.104292 
L 179.948881 212.120111 
L 182.775746 212.170447 
L 183.210648 212.2253 
L 183.863002 212.200322 
L 185.167709 211.097486 
L 186.254964 210.772255 
L 187.559671 210.80017 
L 188.864378 211.07836 
L 189.734183 211.249544 
L 191.038889 211.66261 
L 192.561047 212.110667 
L 194.95301 213.167507 
L 195.387912 213.372898 
L 195.822814 213.507995 
L 196.257717 213.601973 
L 197.127521 213.671282 
L 197.562423 213.932068 
L 199.302033 214.338279 
L 200.171837 214.371062 
L 200.82419 214.450545 
L 201.476544 214.628834 
L 202.128897 214.701394 
L 202.781251 214.866985 
L 205.608115 215.057535 
L 206.912822 215.329024 
L 207.565176 215.229438 
L 208.217529 215.180407 
L 210.174589 214.930613 
L 211.696747 214.186957 
L 212.13165 214.205798 
L 212.566552 214.165808 
L 213.001454 214.188981 
L 213.871259 213.856371 
L 214.306161 213.791404 
L 214.958514 213.727455 
L 215.828319 214.012723 
L 216.480672 214.084001 
L 218.437732 214.409366 
L 218.872635 214.363759 
L 219.307537 214.437293 
L 221.264597 214.366598 
L 222.134402 214.409667 
L 222.786755 214.246784 
L 225.178718 214.187607 
L 225.61362 214.308332 
L 226.483424 214.242263 
L 226.918327 213.983862 
L 228.875387 214.040802 
L 229.52774 214.019423 
L 229.745191 213.906976 
L 230.180094 213.952739 
L 230.832447 213.713274 
L 231.484801 213.559455 
L 231.919703 213.317767 
L 232.354605 213.458615 
L 233.22441 213.493712 
L 233.876763 213.728782 
L 234.311665 213.777205 
L 234.964019 213.978321 
L 236.051274 213.696942 
L 236.268726 213.464579 
L 236.703628 213.32325 
L 237.13853 213.069614 
L 237.573432 213.046732 
L 238.225786 213.02202 
L 238.660688 213.149837 
L 239.313041 213.186527 
L 240.182846 213.401397 
L 240.400297 213.356983 
L 243.662064 214.510035 
L 244.531869 214.914123 
L 246.054027 215.081367 
L 246.488929 214.945957 
L 248.228538 215.391732 
L 248.66344 215.548805 
L 249.098343 215.679339 
L 250.620501 216.10402 
L 251.707756 216.57328 
L 252.36011 216.637304 
L 253.229914 216.940485 
L 253.664816 216.891271 
L 254.099719 217.033097 
L 255.186974 217.039398 
L 255.621877 217.12075 
L 256.709132 216.849811 
L 257.578937 216.60048 
L 258.013839 216.563714 
L 258.666193 216.592752 
L 259.318546 216.727594 
L 259.970899 216.724281 
L 260.840704 216.854713 
L 261.275606 216.76965 
L 261.710508 216.582329 
L 263.015215 216.635127 
L 263.450118 216.626293 
L 263.88502 216.545167 
L 265.189727 216.61316 
L 266.059531 216.579535 
L 266.276982 216.601088 
L 267.364238 216.183324 
L 268.016591 216.163724 
L 268.234043 216.05264 
L 269.103847 216.058586 
L 269.538749 216.094122 
L 270.191103 216.27163 
L 271.278358 216.466223 
L 274.540125 215.931786 
L 274.975028 215.952818 
L 278.454246 215.754051 
L 278.889148 215.514767 
L 279.32405 215.377035 
L 279.976404 215.151188 
L 280.846208 215.136367 
L 281.933464 215.129505 
L 282.368366 215.290636 
L 283.890524 214.988004 
L 284.97778 214.95742 
L 285.412682 214.76284 
L 285.847584 214.814202 
L 286.282487 214.846302 
L 287.152291 215.089055 
L 288.022096 215.083456 
L 288.674449 214.856446 
L 289.109352 214.807452 
L 290.196607 214.917456 
L 293.240923 214.946173 
L 293.675825 214.764447 
L 294.54563 214.601928 
L 294.980532 214.496204 
L 295.415434 214.58382 
L 295.850337 214.396144 
L 296.067788 214.3246 
L 296.50269 214.374908 
L 297.589946 210.435142 
L 300.416811 202.932926 
L 301.069164 201.45183 
L 301.504066 200.504987 
L 303.243675 197.871302 
L 304.548382 195.948436 
L 305.418187 194.837275 
L 305.853089 194.077603 
L 309.549758 190.133337 
L 310.419563 189.757765 
L 311.289367 189.335347 
L 312.376623 188.883322 
L 313.246428 188.522674 
L 314.551134 187.722119 
L 316.725646 186.391693 
L 317.160548 186.326359 
L 317.812901 185.967714 
L 321.727022 184.824059 
L 322.161924 184.766448 
L 322.814278 184.564799 
L 324.988789 184.206993 
L 325.858593 184.124251 
L 326.510947 183.854407 
L 326.945849 183.750702 
L 328.033105 183.760599 
L 329.555263 183.468421 
L 332.164676 183.057621 
L 333.034481 182.563742 
L 333.469383 182.288515 
L 333.904285 182.092777 
L 334.556639 181.616005 
L 334.77409 181.518807 
L 335.208992 181.513908 
L 335.861346 181.279825 
L 336.73115 181.0431 
L 337.166052 180.985173 
L 338.68821 181.281756 
L 339.340564 181.578445 
L 339.992917 181.915372 
L 342.38488 182.411807 
L 343.037233 182.168421 
L 344.124489 182.319966 
L 344.776842 182.355325 
L 345.429196 182.364847 
L 346.516451 182.428875 
L 347.386256 182.368554 
L 347.821158 182.292727 
L 348.690963 182.35526 
L 349.995669 182.588181 
L 353.039985 182.742071 
L 353.90979 182.976217 
L 355.86685 183.116956 
L 356.301752 183.129662 
L 359.998422 183.363698 
L 360.433324 183.521948 
L 361.085677 183.561955 
L 361.738031 183.701386 
L 362.172933 183.797131 
L 362.607835 183.871476 
L 363.042738 184.006312 
L 365.4347 184.27598 
L 367.39176 184.240802 
L 367.826663 184.360975 
L 369.783723 183.928844 
L 370.436076 183.858095 
L 371.08843 183.679709 
L 371.523332 183.675092 
L 373.480392 183.424458 
L 375.654903 183.31081 
L 376.307257 183.26632 
L 378.699219 183.21535 
L 379.569024 183.036127 
L 384.135498 182.864388 
L 385.222753 183.022318 
L 387.397265 182.990873 
L 387.832167 182.849857 
L 388.701972 182.824152 
L 389.136874 182.821567 
L 389.571776 182.873707 
L 390.006678 182.807887 
L 391.093934 182.779502 
L 391.528836 182.788145 
L 391.963739 182.855183 
L 392.616092 182.786695 
L 393.485897 182.59555 
L 394.13825 182.610671 
L 394.573152 182.682613 
L 395.225506 182.694425 
L 396.09531 182.643054 
L 397.182566 182.718288 
L 398.487273 182.801091 
L 398.487273 182.801091 
" style="fill:none;stroke:#000000;stroke-linecap:square;stroke-width:1.5;"/>
   </g>
   <g id="line2d_20">
    <path clip-path="url(#pbbb1efaba9)" d="M 73.832727 181.500418 
L 75.137434 181.482184 
L 76.22469 181.389984 
L 76.659592 181.521185 
L 77.529397 181.347535 
L 78.616652 181.289381 
L 78.834103 181.351738 
L 79.051555 181.244349 
L 80.356261 176.609952 
L 81.008615 174.889319 
L 82.530773 171.779698 
L 84.487833 167.999906 
L 85.357637 165.867387 
L 86.009991 164.8924 
L 87.097247 163.659094 
L 87.532149 163.313239 
L 87.967051 162.900146 
L 88.619404 162.286267 
L 91.011367 160.188783 
L 91.66372 159.752246 
L 91.881172 159.395884 
L 92.316074 158.424123 
L 92.968427 157.688777 
L 94.273134 157.05128 
L 95.142939 156.92933 
L 95.795292 156.722702 
L 96.230194 156.462736 
L 96.665097 156.045894 
L 97.969803 155.400609 
L 99.27451 155.574254 
L 99.926864 155.597714 
L 100.579217 155.430326 
L 101.23157 155.324898 
L 102.753728 154.59741 
L 103.188631 154.432517 
L 103.623533 154.396891 
L 104.058435 154.413888 
L 104.92824 154.740661 
L 105.363142 154.80422 
L 105.798044 154.807745 
L 106.232946 154.735951 
L 107.102751 154.66085 
L 107.537653 154.511501 
L 107.972556 154.49946 
L 109.059811 154.2987 
L 109.929616 153.978462 
L 110.364518 153.87004 
L 110.79942 153.867787 
L 111.451774 153.747744 
L 112.321578 153.586011 
L 112.973932 153.652161 
L 113.843736 153.35525 
L 114.713541 153.303203 
L 115.148443 153.48534 
L 116.235699 153.650193 
L 117.105503 153.775031 
L 117.540406 153.791193 
L 117.757857 153.914003 
L 117.975308 153.900693 
L 118.41021 153.697032 
L 119.062563 153.465439 
L 119.714917 153.223458 
L 120.36727 153.456706 
L 120.584721 153.537738 
L 121.237075 153.374576 
L 122.324331 153.569911 
L 124.281391 153.064711 
L 124.716293 152.954671 
L 125.586098 153.199333 
L 126.238451 153.548121 
L 127.108255 153.712798 
L 127.760609 153.623496 
L 128.195511 153.55465 
L 130.152571 153.676558 
L 131.022376 153.622882 
L 131.457278 153.347858 
L 132.109632 153.363065 
L 132.761985 153.047836 
L 133.414338 153.011794 
L 134.284143 152.892156 
L 134.719045 153.037682 
L 137.54591 153.082837 
L 137.980812 153.020606 
L 138.415715 153.016436 
L 139.285519 152.902857 
L 139.720421 152.859546 
L 140.590226 152.559115 
L 141.242579 152.502411 
L 141.677482 152.387468 
L 142.112384 152.347187 
L 142.547286 152.269683 
L 142.982188 152.121131 
L 143.417091 152.107574 
L 143.634542 152.016159 
L 144.721797 152.144529 
L 145.1567 152.043012 
L 145.374151 152.085145 
L 146.243955 151.844759 
L 146.678858 151.866882 
L 147.11376 151.811018 
L 148.635918 151.385842 
L 149.07082 151.277624 
L 149.505722 151.17346 
L 150.375527 151.29861 
L 152.332587 150.67368 
L 152.984941 150.625004 
L 153.419843 150.481571 
L 154.289647 150.208158 
L 154.72455 150.131626 
L 155.376903 150.115515 
L 156.029257 150.072779 
L 156.464159 150.125923 
L 157.333963 149.838746 
L 157.986317 149.8089 
L 160.160828 149.40571 
L 160.59573 149.300128 
L 161.248084 149.551772 
L 161.682986 149.607134 
L 162.335339 149.545704 
L 163.857497 149.512037 
L 164.509851 149.357637 
L 165.379655 149.487959 
L 166.24946 150.178885 
L 166.684362 150.205487 
L 167.119264 150.201677 
L 167.336716 150.243152 
L 167.771618 150.109402 
L 169.728678 150.315284 
L 169.946129 150.276112 
L 170.381031 149.982403 
L 170.815934 149.940859 
L 172.555543 149.859215 
L 173.207896 149.713993 
L 173.642799 149.719662 
L 174.077701 149.73711 
L 174.512603 149.840101 
L 175.382408 149.430069 
L 176.687114 149.218119 
L 177.77437 149.030932 
L 178.209272 149.211146 
L 182.775746 149.316556 
L 183.210648 149.314949 
L 183.645551 149.183815 
L 183.863002 149.202895 
L 184.297904 149.052171 
L 185.38516 149.058979 
L 186.037513 149.177205 
L 186.472416 149.286451 
L 188.212025 150.268143 
L 188.646927 150.269479 
L 189.081829 150.326364 
L 190.386536 150.11369 
L 191.908694 149.465969 
L 192.343596 149.422288 
L 193.648303 149.643356 
L 193.865754 149.676811 
L 194.518108 149.531582 
L 194.95301 149.486133 
L 195.387912 149.538643 
L 195.822814 149.581616 
L 197.562423 150.346339 
L 198.86713 150.346488 
L 199.519484 150.350795 
L 199.954386 150.390031 
L 200.389288 150.329456 
L 200.82419 150.027794 
L 201.476544 150.008761 
L 201.693995 150.059264 
L 202.128897 150.393321 
L 202.5638 150.403404 
L 202.998702 150.278599 
L 203.651055 150.309851 
L 204.52086 150.336121 
L 206.260469 150.199796 
L 207.130273 150.324248 
L 208.000078 150.190089 
L 208.652431 150.195871 
L 209.087334 150.183361 
L 209.522236 150.342109 
L 210.609492 150.31485 
L 211.044394 150.387988 
L 211.696747 150.485768 
L 215.175965 151.74552 
L 217.567928 152.121204 
L 218.00283 152.280877 
L 218.872635 152.099243 
L 219.307537 152.092493 
L 220.612244 151.757364 
L 221.264597 151.798246 
L 221.916951 151.91173 
L 223.221657 151.9408 
L 224.091462 151.878391 
L 225.178718 151.887076 
L 226.700876 152.456531 
L 227.135778 152.342839 
L 228.005582 152.339118 
L 230.614996 152.324895 
L 230.832447 152.316637 
L 231.484801 151.960812 
L 231.919703 151.888501 
L 232.789507 152.095601 
L 233.659312 152.585713 
L 234.529116 152.807527 
L 234.964019 152.805938 
L 236.268726 152.398944 
L 237.13853 152.222213 
L 238.225786 152.442337 
L 238.660688 152.463802 
L 239.09559 152.584984 
L 241.052651 153.063087 
L 242.139906 153.097133 
L 242.79226 153.131027 
L 243.444613 153.047264 
L 243.879515 152.979525 
L 244.531869 152.818 
L 246.054027 152.17555 
L 247.141282 151.91544 
L 247.793636 151.920174 
L 249.750696 152.464326 
L 250.620501 152.540327 
L 251.055403 152.635291 
L 252.142658 153.268707 
L 252.577561 153.280485 
L 253.229914 153.458193 
L 253.882268 153.461368 
L 254.31717 153.561407 
L 254.534621 153.520675 
L 255.621877 153.796946 
L 258.013839 153.713825 
L 258.448741 153.546457 
L 262.362862 153.027624 
L 263.450118 152.603775 
L 264.319922 152.263201 
L 264.754824 152.213124 
L 265.189727 152.288093 
L 268.234043 151.520249 
L 269.321298 151.606246 
L 269.7562 151.551969 
L 270.191103 151.531616 
L 270.626005 151.380359 
L 273.235419 151.530937 
L 274.540125 151.56001 
L 276.279735 152.29409 
L 277.584441 152.448605 
L 278.236795 152.389084 
L 278.671697 152.268833 
L 279.106599 152.271114 
L 279.758953 152.528067 
L 280.628757 152.606692 
L 282.803269 151.424543 
L 283.890524 151.413345 
L 284.760329 151.197989 
L 285.195231 151.023763 
L 286.282487 150.830798 
L 286.717389 150.862968 
L 287.152291 150.705374 
L 287.804645 150.229528 
L 288.239547 150.168077 
L 288.8919 149.965 
L 289.544254 149.925939 
L 290.196607 150.151519 
L 290.631509 150.232832 
L 292.371119 150.413703 
L 292.806021 150.557174 
L 293.675825 150.620178 
L 294.110728 150.828386 
L 295.415434 150.645975 
L 295.850337 150.496444 
L 296.50269 150.695477 
L 297.589946 154.940949 
L 298.894653 158.302125 
L 302.808773 163.583155 
L 306.287991 166.824082 
L 306.940345 167.18442 
L 307.810149 168.156704 
L 308.245051 168.658392 
L 308.897405 169.294659 
L 309.549758 169.899999 
L 310.637014 171.013106 
L 312.811525 172.731486 
L 314.333683 173.285378 
L 314.768586 173.348434 
L 316.073292 174.381177 
L 317.160548 175.194609 
L 317.59545 175.377462 
L 318.247804 175.85393 
L 319.117608 176.178468 
L 320.857217 176.421361 
L 321.29212 176.395525 
L 321.944473 176.503241 
L 323.466631 176.736456 
L 324.118984 176.738283 
L 324.553887 176.801285 
L 325.20624 176.755319 
L 326.076045 176.583014 
L 326.510947 176.525041 
L 328.685458 176.855992 
L 329.772714 176.911753 
L 330.207616 177.214233 
L 331.294872 177.347962 
L 331.729774 177.40209 
L 332.164676 177.282996 
L 332.599579 177.411123 
L 333.034481 177.47932 
L 335.861346 177.728944 
L 336.73115 177.917062 
L 339.775466 177.760493 
L 340.42782 177.833169 
L 341.080173 177.770992 
L 341.949977 177.93949 
L 342.602331 178.062922 
L 343.907038 177.750467 
L 344.34194 177.438907 
L 347.386256 177.114554 
L 347.821158 176.915188 
L 348.25606 177.040378 
L 348.908414 177.245933 
L 349.560767 177.32803 
L 350.648023 177.659167 
L 351.082925 177.663288 
L 351.95273 177.995097 
L 352.605083 178.345631 
L 353.474888 178.83303 
L 353.90979 178.909534 
L 354.779594 179.37176 
L 356.519204 179.697828 
L 357.171557 179.770466 
L 357.606459 179.728254 
L 364.999798 180.698904 
L 366.087054 180.5338 
L 366.739407 180.731065 
L 367.39176 180.793828 
L 367.826663 180.949151 
L 369.566272 180.819236 
L 370.436076 180.87975 
L 371.08843 180.88857 
L 371.523332 180.942035 
L 372.175685 180.925041 
L 373.262941 181.197518 
L 375.220001 181.395044 
L 375.654903 181.345507 
L 376.089806 181.396262 
L 376.742159 181.273883 
L 377.177061 181.278649 
L 378.699219 181.291 
L 380.438828 181.233056 
L 383.048242 181.206772 
L 385.875107 180.933584 
L 386.52746 180.85305 
L 386.962363 180.823551 
L 387.832167 180.743176 
L 388.267069 180.855169 
L 389.136874 180.869526 
L 389.789227 180.8772 
L 392.18119 180.748834 
L 395.877859 181.147395 
L 396.965115 181.150835 
L 397.400017 181.124597 
L 398.269822 181.180293 
L 398.487273 181.140893 
L 398.487273 181.140893 
" style="fill:none;stroke:#000000;stroke-linecap:square;stroke-width:1.5;"/>
   </g>
   <g id="line2d_21">
    <path clip-path="url(#pbbb1efaba9)" d="M 73.832727 181.359864 
L 75.137434 181.370075 
L 76.007239 181.489681 
L 77.311945 181.50506 
L 78.18175 181.586897 
L 78.399201 181.845442 
L 78.616652 181.728972 
L 78.834103 181.98763 
L 79.051555 181.601885 
L 80.356261 153.843972 
L 81.443517 139.144467 
L 82.748224 124.619217 
L 83.618028 116.72881 
L 84.705284 108.866778 
L 86.662344 99.396475 
L 86.879795 96.878434 
L 87.314698 69.23447 
L 87.532149 68.711421 
L 88.401953 101.377417 
L 88.836856 107.690381 
L 89.271758 110.113335 
L 89.70666 110.134968 
L 89.924111 110.550276 
L 90.141562 110.565537 
L 91.228818 108.494292 
L 91.446269 108.269985 
L 91.881172 107.282385 
L 92.750976 104.898859 
L 93.620781 102.705671 
L 93.838232 102.587516 
L 94.490585 101.087266 
L 95.795292 99.169438 
L 96.230194 98.26248 
L 96.447645 98.058215 
L 96.665097 98.108295 
L 96.882548 98.304579 
L 97.099999 98.223396 
L 97.752352 97.122469 
L 99.709412 92.897434 
L 99.926864 92.81087 
L 100.144315 93.13393 
L 100.361766 93.226308 
L 100.796668 92.55729 
L 101.014119 91.169154 
L 101.23157 87.128729 
L 101.883924 58.916644 
L 102.101375 61.964754 
L 102.971179 96.018997 
L 103.406082 102.744011 
L 103.840984 105.526228 
L 104.058435 106.588158 
L 104.493337 106.875204 
L 104.710789 106.438382 
L 106.232946 101.536319 
L 106.450398 101.169616 
L 107.320202 98.552878 
L 107.755104 97.72529 
L 108.190007 96.512484 
L 108.84236 95.008722 
L 109.277262 93.894175 
L 109.494714 93.585195 
L 110.147067 91.767427 
L 110.581969 90.346142 
L 111.016871 89.415996 
L 111.451774 87.762568 
L 111.886676 85.836045 
L 112.104127 83.488632 
L 112.321578 78.635822 
L 112.973932 56.087418 
L 113.191383 58.47916 
L 113.626285 75.095001 
L 114.061187 89.498456 
L 114.49609 97.427383 
L 114.930992 101.189477 
L 115.365894 102.438084 
L 115.583345 102.430144 
L 116.235699 101.485148 
L 117.540406 97.952003 
L 117.757857 97.546011 
L 118.192759 96.259687 
L 118.627661 95.604463 
L 119.280015 93.93781 
L 119.714917 93.736361 
L 120.36727 92.673356 
L 120.802173 90.817023 
L 121.889428 85.821972 
L 122.106879 82.934588 
L 122.324331 78.283352 
L 122.976684 55.830585 
L 123.194135 55.715404 
L 123.411586 60.599505 
L 124.281391 89.327138 
L 124.716293 96.642359 
L 125.151195 100.402958 
L 125.586098 101.902307 
L 125.803549 102.09568 
L 126.455902 100.725823 
L 127.108255 99.021559 
L 127.543158 98.56335 
L 128.195511 97.191776 
L 129.065316 94.263911 
L 131.022376 86.454959 
L 131.239827 84.805029 
L 131.457278 81.607992 
L 131.89218 67.879961 
L 132.109632 59.596198 
L 132.327083 55.672022 
L 132.544534 57.442047 
L 132.979436 72.153875 
L 133.414338 87.176056 
L 133.849241 96.76176 
L 134.284143 101.174354 
L 134.719045 102.676432 
L 134.936496 102.999023 
L 135.153948 103.078115 
L 135.58885 102.857153 
L 135.806301 102.588775 
L 136.241203 101.353064 
L 136.893557 99.338924 
L 137.763361 96.448357 
L 139.937872 88.337032 
L 140.372775 86.583672 
L 140.590226 86.226165 
L 140.807677 85.402848 
L 141.025128 83.976879 
L 141.242579 81.440344 
L 141.677482 71.275025 
L 142.112384 57.413109 
L 142.329835 55.218597 
L 142.547286 57.741174 
L 143.634542 91.479094 
L 144.069444 97.752552 
L 144.504346 100.196084 
L 144.721797 100.93487 
L 145.374151 101.177908 
L 146.026504 100.39201 
L 146.461407 99.475656 
L 149.505722 90.419136 
L 150.375527 87.096412 
L 151.245332 85.24297 
L 151.680234 83.043249 
L 152.115136 77.867401 
L 152.550038 68.340805 
L 152.984941 56.415404 
L 153.202392 54.583229 
L 153.419843 56.620524 
L 154.072196 77.070148 
L 154.507099 89.042511 
L 154.942001 96.134877 
L 155.376903 99.048832 
L 155.811805 99.908611 
L 156.029257 100.424739 
L 156.246708 100.518175 
L 156.68161 100.012776 
L 157.333963 99.049192 
L 159.073572 92.8375 
L 159.943377 90.992428 
L 160.378279 89.685078 
L 160.813182 88.85118 
L 161.248084 87.525356 
L 161.900437 84.684888 
L 162.335339 81.609994 
L 162.770242 76.151026 
L 163.205144 67.883545 
L 163.640046 56.927036 
L 163.857497 54.202854 
L 164.074949 54.928822 
L 164.2924 59.532704 
L 165.162204 86.283153 
L 165.597106 93.825594 
L 166.032009 97.460724 
L 166.466911 99.33962 
L 166.684362 99.915115 
L 166.901813 99.921702 
L 167.119264 99.706124 
L 167.336716 99.709685 
L 167.554167 99.491407 
L 167.989069 98.402592 
L 168.641422 96.376025 
L 169.511227 94.307788 
L 171.033385 89.32312 
L 171.468287 87.461465 
L 172.338092 84.633565 
L 172.772994 83.097314 
L 172.990445 82.072451 
L 173.207896 80.511624 
L 173.642799 74.526774 
L 174.077701 64.818157 
L 174.512603 54.908671 
L 174.730054 53.568 
L 174.947505 55.829455 
L 175.382408 68.111887 
L 176.034761 86.256084 
L 176.469663 92.974834 
L 176.904566 96.665274 
L 177.339468 97.798332 
L 177.556919 97.779492 
L 177.77437 97.503327 
L 177.991821 97.420186 
L 178.644175 96.584805 
L 179.513979 94.873 
L 180.166333 93.984437 
L 180.818686 91.964969 
L 181.471039 89.528362 
L 181.905942 88.549328 
L 182.123393 88.258452 
L 182.775746 86.390052 
L 183.210648 85.334797 
L 183.863002 82.766128 
L 184.732806 79.567832 
L 184.950258 79.243058 
L 185.820062 75.473258 
L 186.254964 71.655678 
L 187.34222 57.56154 
L 187.559671 56.414091 
L 187.777122 56.631193 
L 187.994573 58.38502 
L 188.429476 67.353242 
L 189.081829 82.347625 
L 189.516731 89.95304 
L 189.951634 94.034732 
L 190.386536 95.954341 
L 190.821438 97.044555 
L 191.25634 97.669172 
L 191.473792 97.593224 
L 192.126145 96.89576 
L 192.561047 96.481518 
L 193.213401 95.955541 
L 193.430852 95.799753 
L 193.865754 95.181372 
L 194.300656 94.125286 
L 194.735559 92.904914 
L 194.95301 92.847722 
L 195.387912 92.087776 
L 195.605363 91.908152 
L 196.91007 88.394063 
L 197.127521 88.439089 
L 197.997326 87.097924 
L 198.214777 87.138386 
L 198.86713 86.157094 
L 199.302033 85.490254 
L 200.171837 83.816841 
L 200.82419 81.79859 
L 201.041642 81.532406 
L 201.476544 80.405149 
L 201.911446 79.976034 
L 202.346348 80.156794 
L 203.433604 78.098519 
L 203.868506 78.453705 
L 204.303409 78.485591 
L 205.173213 79.806788 
L 205.390664 79.917458 
L 205.825567 80.787378 
L 206.043018 80.544053 
L 206.47792 80.980911 
L 206.695371 80.732929 
L 206.912822 80.70563 
L 207.130273 80.824387 
L 207.565176 81.399331 
L 208.000078 81.578096 
L 208.43498 81.139551 
L 208.652431 81.147494 
L 208.869882 81.40737 
L 209.087334 81.460773 
L 209.304785 81.7636 
L 209.522236 81.8609 
L 209.739687 81.686394 
L 209.957138 81.965089 
L 210.826943 82.266212 
L 211.479296 83.345656 
L 211.696747 83.199348 
L 211.914198 83.222834 
L 212.13165 83.457461 
L 212.784003 83.579813 
L 213.436356 82.77419 
L 214.306161 82.71184 
L 214.741063 83.637962 
L 214.958514 83.684879 
L 215.175965 83.850218 
L 215.393417 83.826503 
L 215.610868 83.685532 
L 215.828319 83.769178 
L 216.263221 83.460889 
L 216.480672 83.471459 
L 216.698123 83.354795 
L 217.785379 83.862328 
L 218.00283 84.191817 
L 218.220281 84.242153 
L 218.437732 83.823918 
L 218.872635 83.662978 
L 219.090086 83.409998 
L 219.524988 83.443272 
L 219.95989 82.904293 
L 220.394793 83.244776 
L 220.829695 83.043758 
L 221.482048 83.272113 
L 221.699499 83.420202 
L 221.916951 83.762938 
L 222.351853 83.80007 
L 222.569304 84.051584 
L 222.786755 84.097619 
L 223.221657 83.67776 
L 223.439109 83.582406 
L 223.65656 83.275456 
L 223.874011 83.2929 
L 224.308913 84.189958 
L 224.743815 85.426889 
L 225.178718 86.039299 
L 226.265973 86.487493 
L 226.483424 86.302829 
L 226.700876 86.273477 
L 226.918327 86.635219 
L 227.353229 86.925648 
L 228.223034 88.0251 
L 229.092838 88.677118 
L 229.310289 88.330271 
L 229.745191 88.440573 
L 229.962643 88.244404 
L 230.180094 88.455715 
L 230.832447 87.910863 
L 231.049898 87.363204 
L 231.267349 87.184767 
L 231.484801 86.845114 
L 231.702252 86.858549 
L 231.919703 87.141153 
L 232.354605 87.076171 
L 232.572056 87.22922 
L 232.789507 87.223154 
L 233.006959 86.902915 
L 233.22441 87.040021 
L 233.441861 87.407692 
L 233.659312 87.508267 
L 233.876763 87.757997 
L 234.311665 87.81796 
L 234.746568 88.318685 
L 235.398921 88.120428 
L 235.616372 88.376972 
L 235.833823 88.451694 
L 236.268726 87.706703 
L 237.573432 85.487586 
L 237.790884 85.55705 
L 238.225786 85.282049 
L 238.443237 85.511765 
L 238.660688 85.461829 
L 239.09559 84.996272 
L 239.747944 84.397456 
L 240.400297 83.509512 
L 240.617748 83.68652 
L 240.835199 84.00965 
L 241.922455 84.599871 
L 242.139906 84.898862 
L 242.574809 84.675877 
L 242.79226 84.986598 
L 243.879515 85.467668 
L 244.314418 85.719085 
L 244.74932 85.415729 
L 244.966771 85.499672 
L 245.619124 85.186924 
L 246.054027 84.92791 
L 246.70638 85.152945 
L 247.358733 85.242939 
L 247.576185 85.201637 
L 248.228538 86.038056 
L 248.66344 86.388343 
L 248.880891 86.655214 
L 249.315794 86.557288 
L 249.968147 86.996326 
L 250.403049 87.544964 
L 250.837952 88.218899 
L 251.272854 88.350656 
L 251.490305 88.381143 
L 251.925207 88.679776 
L 252.142658 88.630815 
L 253.012463 89.288245 
L 254.31717 88.254837 
L 254.534621 87.970724 
L 254.969523 87.005536 
L 255.186974 86.731616 
L 255.839328 85.306155 
L 256.491681 84.67801 
L 256.709132 84.543159 
L 257.144035 84.607103 
L 257.796388 83.909529 
L 258.013839 83.936313 
L 258.448741 83.425685 
L 258.666193 83.311972 
L 259.101095 82.940067 
L 259.535997 82.756405 
L 259.970899 82.359793 
L 260.405802 82.315333 
L 260.840704 82.087669 
L 261.058155 82.25868 
L 261.493057 82.958209 
L 262.145411 83.378298 
L 262.580313 82.991698 
L 262.797764 82.805188 
L 263.232666 82.795408 
L 263.450118 82.681774 
L 263.667569 82.703165 
L 264.102471 82.384206 
L 264.319922 82.624872 
L 264.537373 82.668274 
L 264.754824 82.49763 
L 265.189727 82.549783 
L 266.276982 82.883778 
L 266.711885 83.364844 
L 266.929336 83.39806 
L 267.146787 83.247163 
L 267.581689 83.476612 
L 268.451494 84.932524 
L 269.973652 86.518938 
L 270.408554 86.680651 
L 270.843456 86.990136 
L 271.060907 87.345031 
L 271.930712 87.530785 
L 272.365614 87.277139 
L 273.235419 86.707844 
L 273.45287 86.932663 
L 273.887772 86.951212 
L 274.540125 87.497154 
L 274.757577 87.555878 
L 274.975028 87.36911 
L 275.40993 87.48545 
L 275.844832 86.956995 
L 276.497186 86.651113 
L 276.932088 86.270233 
L 277.36699 85.541246 
L 277.584441 85.676995 
L 277.801892 85.613631 
L 278.236795 85.049214 
L 279.32405 84.577115 
L 279.541502 84.623531 
L 279.758953 85.107654 
L 279.976404 85.212941 
L 280.193855 84.925196 
L 280.628757 84.695414 
L 281.281111 84.488909 
L 281.498562 84.585049 
L 281.716013 84.494165 
L 282.150915 83.916607 
L 282.368366 84.005015 
L 282.803269 84.712605 
L 283.02072 84.704138 
L 283.455622 84.495559 
L 283.890524 84.98535 
L 285.195231 85.039121 
L 285.412682 85.235609 
L 286.065036 85.34364 
L 286.282487 85.374174 
L 286.499938 85.53278 
L 286.717389 85.537386 
L 287.152291 85.314738 
L 287.369742 85.375357 
L 287.587194 85.248954 
L 287.804645 85.273516 
L 288.239547 85.698603 
L 288.456998 85.70382 
L 288.8919 85.32782 
L 289.326803 84.835967 
L 289.544254 84.941404 
L 289.761705 85.176604 
L 290.196607 85.005021 
L 290.414058 85.097274 
L 290.631509 84.797843 
L 291.283863 84.788491 
L 291.718765 84.628806 
L 292.153667 85.276412 
L 292.58857 84.795073 
L 293.240923 83.807645 
L 293.893277 83.821457 
L 294.110728 84.154493 
L 294.980532 84.697348 
L 295.197983 85.231872 
L 295.632886 85.655075 
L 296.285239 84.83905 
L 296.50269 84.891278 
L 298.024848 114.180586 
L 298.677201 121.867487 
L 299.547006 129.533964 
L 301.069164 139.090009 
L 302.373871 145.537416 
L 304.330931 153.11498 
L 305.635638 156.923672 
L 306.505442 159.15079 
L 307.592698 161.577921 
L 308.462503 163.257911 
L 309.332307 164.750186 
L 313.028976 169.925267 
L 313.68133 170.602542 
L 314.116232 171.091873 
L 319.117608 175.542905 
L 321.074668 176.729021 
L 322.814278 178.090337 
L 323.24918 178.323962 
L 324.336435 178.914818 
L 324.771338 179.101265 
L 325.641142 179.314353 
L 326.293496 179.548342 
L 326.728398 179.609996 
L 327.380751 179.913586 
L 330.642518 181.129873 
L 333.034481 181.470703 
L 333.469383 181.609937 
L 335.426443 181.597228 
L 335.861346 181.667852 
L 337.818406 181.949832 
L 338.470759 182.131852 
L 338.905662 182.196647 
L 339.340564 182.413606 
L 340.210368 182.463984 
L 340.645271 182.660231 
L 341.080173 182.642653 
L 341.949977 182.804205 
L 342.602331 182.819519 
L 343.037233 182.886716 
L 343.689587 182.988336 
L 344.559391 183.172387 
L 346.733902 183.674312 
L 347.386256 183.630024 
L 349.125865 183.974061 
L 352.170181 184.220813 
L 353.90979 184.207732 
L 354.344692 184.130776 
L 355.86685 183.919312 
L 356.519204 183.871268 
L 357.606459 183.820537 
L 358.476264 183.802784 
L 358.911166 183.893368 
L 359.346068 183.926946 
L 359.780971 183.991768 
L 363.47764 184.198945 
L 363.912542 184.254694 
L 364.347444 184.210042 
L 364.782347 184.270613 
L 365.4347 184.270912 
L 366.087054 184.316535 
L 366.956858 184.403968 
L 368.913918 184.61128 
L 370.870979 184.822266 
L 373.04549 184.807447 
L 374.350197 184.835203 
L 375.00255 184.846658 
L 375.872355 184.926157 
L 376.524708 184.924213 
L 376.95961 184.954591 
L 377.611964 184.809691 
L 379.351573 184.591091 
L 380.003926 184.459792 
L 380.873731 184.295018 
L 381.308633 184.219932 
L 381.960986 184.151942 
L 384.135498 183.859486 
L 387.614716 182.878397 
L 388.049618 182.823566 
L 388.48452 182.795969 
L 389.789227 182.783133 
L 390.22413 182.865696 
L 391.093934 182.893781 
L 391.528836 182.982813 
L 391.963739 182.974147 
L 393.050994 182.590688 
L 393.920799 182.48381 
L 394.790603 182.436397 
L 395.225506 182.450285 
L 396.09531 182.483217 
L 396.965115 182.518755 
L 397.400017 182.669486 
L 398.269822 182.707504 
L 398.487273 182.772118 
L 398.487273 182.772118 
" style="fill:none;stroke:#000000;stroke-linecap:square;stroke-width:1.5;"/>
   </g>
   <g id="patch_3">
    <path d="M 57.6 307.584 
L 57.6 41.472 
" style="fill:none;stroke:#000000;stroke-linecap:square;stroke-linejoin:miter;stroke-width:0.8;"/>
   </g>
   <g id="patch_4">
    <path d="M 414.72 307.584 
L 414.72 41.472 
" style="fill:none;stroke:#000000;stroke-linecap:square;stroke-linejoin:miter;stroke-width:0.8;"/>
   </g>
   <g id="patch_5">
    <path d="M 57.6 307.584 
L 414.72 307.584 
" style="fill:none;stroke:#000000;stroke-linecap:square;stroke-linejoin:miter;stroke-width:0.8;"/>
   </g>
   <g id="patch_6">
    <path d="M 57.6 41.472 
L 414.72 41.472 
" style="fill:none;stroke:#000000;stroke-linecap:square;stroke-linejoin:miter;stroke-width:0.8;"/>
   </g>
  </g>
 </g>
 <defs>
  <clipPath id="pbbb1efaba9">
   <rect height="266.112" width="357.12" x="57.6" y="41.472"/>
  </clipPath>
 </defs>
</svg>
