<?xml version="1.0" encoding="utf-8" standalone="no"?>
<!DOCTYPE svg PUBLIC "-//W3C//DTD SVG 1.1//EN"
  "http://www.w3.org/Graphics/SVG/1.1/DTD/svg11.dtd">
<svg xmlns:xlink="http://www.w3.org/1999/xlink" width="272.067188pt" height="197.398125pt" viewBox="0 0 272.067188 197.398125" xmlns="http://www.w3.org/2000/svg" version="1.1">
 <metadata>
  <rdf:RDF xmlns:dc="http://purl.org/dc/elements/1.1/" xmlns:cc="http://creativecommons.org/ns#" xmlns:rdf="http://www.w3.org/1999/02/22-rdf-syntax-ns#">
   <cc:Work>
    <dc:type rdf:resource="http://purl.org/dc/dcmitype/StillImage"/>
    <dc:date>2025-12-17T23:50:33.042225</dc:date>
    <dc:format>image/svg+xml</dc:format>
    <dc:creator>
     <cc:Agent>
      <dc:title>Matplotlib v3.10.7, https://matplotlib.org/</dc:title>
     </cc:Agent>
    </dc:creator>
   </cc:Work>
  </rdf:RDF>
 </metadata>
 <defs>
  <style type="text/css">*{stroke-linejoin: round; stroke-linecap: butt}</style>
 </defs>
 <g id="figure_1">
  <g id="patch_1">
   <path d="M 0 197.398125 
L 272.067188 197.398125 
L 272.067188 0 
L 0 0 
z
" style="fill: #ffffff"/>
  </g>
  <g id="axes_1">
   <g id="patch_2">
    <path d="M 41.667188 173.52 
L 264.867188 173.52 
L 264.867188 7.2 
L 41.667188 7.2 
z
" style="fill: #ffffff"/>
   </g>
   <g id="matplotlib.axis_1">
    <g id="xtick_1">
     <g id="line2d_1">
      <defs>
       <path id="m3386e6370d" d="M 0 0 
L 0 3.5 
" style="stroke: #000000; stroke-width: 0.8"/>
      </defs>
      <g>
       <use xlink:href="#m3386e6370d" x="72.080192" y="173.52" style="stroke: #000000; stroke-width: 0.8"/>
      </g>
     </g>
     <g id="text_1">
      <!-- 0.25 -->
      <g transform="translate(60.947379 188.118438) scale(0.1 -0.1)">
       <defs>
        <path id="DejaVuSans-30" d="M 2034 4250 
Q 1547 4250 1301 3770 
Q 1056 3291 1056 2328 
Q 1056 1369 1301 889 
Q 1547 409 2034 409 
Q 2525 409 2770 889 
Q 3016 1369 3016 2328 
Q 3016 3291 2770 3770 
Q 2525 4250 2034 4250 
z
M 2034 4750 
Q 2819 4750 3233 4129 
Q 3647 3509 3647 2328 
Q 3647 1150 3233 529 
Q 2819 -91 2034 -91 
Q 1250 -91 836 529 
Q 422 1150 422 2328 
Q 422 3509 836 4129 
Q 1250 4750 2034 4750 
z
" transform="scale(0.015625)"/>
        <path id="DejaVuSans-2e" d="M 684 794 
L 1344 794 
L 1344 0 
L 684 0 
L 684 794 
z
" transform="scale(0.015625)"/>
        <path id="DejaVuSans-32" d="M 1228 531 
L 3431 531 
L 3431 0 
L 469 0 
L 469 531 
Q 828 903 1448 1529 
Q 2069 2156 2228 2338 
Q 2531 2678 2651 2914 
Q 2772 3150 2772 3378 
Q 2772 3750 2511 3984 
Q 2250 4219 1831 4219 
Q 1534 4219 1204 4116 
Q 875 4013 500 3803 
L 500 4441 
Q 881 4594 1212 4672 
Q 1544 4750 1819 4750 
Q 2544 4750 2975 4387 
Q 3406 4025 3406 3419 
Q 3406 3131 3298 2873 
Q 3191 2616 2906 2266 
Q 2828 2175 2409 1742 
Q 1991 1309 1228 531 
z
" transform="scale(0.015625)"/>
        <path id="DejaVuSans-35" d="M 691 4666 
L 3169 4666 
L 3169 4134 
L 1269 4134 
L 1269 2991 
Q 1406 3038 1543 3061 
Q 1681 3084 1819 3084 
Q 2600 3084 3056 2656 
Q 3513 2228 3513 1497 
Q 3513 744 3044 326 
Q 2575 -91 1722 -91 
Q 1428 -91 1123 -41 
Q 819 9 494 109 
L 494 744 
Q 775 591 1075 516 
Q 1375 441 1709 441 
Q 2250 441 2565 725 
Q 2881 1009 2881 1497 
Q 2881 1984 2565 2268 
Q 2250 2553 1709 2553 
Q 1456 2553 1204 2497 
Q 953 2441 691 2322 
L 691 4666 
z
" transform="scale(0.015625)"/>
       </defs>
       <use xlink:href="#DejaVuSans-30"/>
       <use xlink:href="#DejaVuSans-2e" transform="translate(63.623047 0)"/>
       <use xlink:href="#DejaVuSans-32" transform="translate(95.410156 0)"/>
       <use xlink:href="#DejaVuSans-35" transform="translate(159.033203 0)"/>
      </g>
     </g>
    </g>
    <g id="xtick_2">
     <g id="line2d_2">
      <g>
       <use xlink:href="#m3386e6370d" x="106.431971" y="173.52" style="stroke: #000000; stroke-width: 0.8"/>
      </g>
     </g>
     <g id="text_2">
      <!-- 0.50 -->
      <g transform="translate(95.299159 188.118438) scale(0.1 -0.1)">
       <use xlink:href="#DejaVuSans-30"/>
       <use xlink:href="#DejaVuSans-2e" transform="translate(63.623047 0)"/>
       <use xlink:href="#DejaVuSans-35" transform="translate(95.410156 0)"/>
       <use xlink:href="#DejaVuSans-30" transform="translate(159.033203 0)"/>
      </g>
     </g>
    </g>
    <g id="xtick_3">
     <g id="line2d_3">
      <g>
       <use xlink:href="#m3386e6370d" x="140.783751" y="173.52" style="stroke: #000000; stroke-width: 0.8"/>
      </g>
     </g>
     <g id="text_3">
      <!-- 0.75 -->
      <g transform="translate(129.650938 188.118438) scale(0.1 -0.1)">
       <defs>
        <path id="DejaVuSans-37" d="M 525 4666 
L 3525 4666 
L 3525 4397 
L 1831 0 
L 1172 0 
L 2766 4134 
L 525 4134 
L 525 4666 
z
" transform="scale(0.015625)"/>
       </defs>
       <use xlink:href="#DejaVuSans-30"/>
       <use xlink:href="#DejaVuSans-2e" transform="translate(63.623047 0)"/>
       <use xlink:href="#DejaVuSans-37" transform="translate(95.410156 0)"/>
       <use xlink:href="#DejaVuSans-35" transform="translate(159.033203 0)"/>
      </g>
     </g>
    </g>
    <g id="xtick_4">
     <g id="line2d_4">
      <g>
       <use xlink:href="#m3386e6370d" x="175.13553" y="173.52" style="stroke: #000000; stroke-width: 0.8"/>
      </g>
     </g>
     <g id="text_4">
      <!-- 1.00 -->
      <g transform="translate(164.002718 188.118438) scale(0.1 -0.1)">
       <defs>
        <path id="DejaVuSans-31" d="M 794 531 
L 1825 531 
L 1825 4091 
L 703 3866 
L 703 4441 
L 1819 4666 
L 2450 4666 
L 2450 531 
L 3481 531 
L 3481 0 
L 794 0 
L 794 531 
z
" transform="scale(0.015625)"/>
       </defs>
       <use xlink:href="#DejaVuSans-31"/>
       <use xlink:href="#DejaVuSans-2e" transform="translate(63.623047 0)"/>
       <use xlink:href="#DejaVuSans-30" transform="translate(95.410156 0)"/>
       <use xlink:href="#DejaVuSans-30" transform="translate(159.033203 0)"/>
      </g>
     </g>
    </g>
    <g id="xtick_5">
     <g id="line2d_5">
      <g>
       <use xlink:href="#m3386e6370d" x="209.48731" y="173.52" style="stroke: #000000; stroke-width: 0.8"/>
      </g>
     </g>
     <g id="text_5">
      <!-- 1.25 -->
      <g transform="translate(198.354497 188.118438) scale(0.1 -0.1)">
       <use xlink:href="#DejaVuSans-31"/>
       <use xlink:href="#DejaVuSans-2e" transform="translate(63.623047 0)"/>
       <use xlink:href="#DejaVuSans-32" transform="translate(95.410156 0)"/>
       <use xlink:href="#DejaVuSans-35" transform="translate(159.033203 0)"/>
      </g>
     </g>
    </g>
    <g id="xtick_6">
     <g id="line2d_6">
      <g>
       <use xlink:href="#m3386e6370d" x="243.839089" y="173.52" style="stroke: #000000; stroke-width: 0.8"/>
      </g>
     </g>
     <g id="text_6">
      <!-- 1.50 -->
      <g transform="translate(232.706277 188.118438) scale(0.1 -0.1)">
       <use xlink:href="#DejaVuSans-31"/>
       <use xlink:href="#DejaVuSans-2e" transform="translate(63.623047 0)"/>
       <use xlink:href="#DejaVuSans-35" transform="translate(95.410156 0)"/>
       <use xlink:href="#DejaVuSans-30" transform="translate(159.033203 0)"/>
      </g>
     </g>
    </g>
   </g>
   <g id="matplotlib.axis_2">
    <g id="ytick_1">
     <g id="line2d_7">
      <defs>
       <path id="m312cf8513f" d="M 0 0 
L -3.5 0 
" style="stroke: #000000; stroke-width: 0.8"/>
      </defs>
      <g>
       <use xlink:href="#m312cf8513f" x="41.667188" y="148.25668" style="stroke: #000000; stroke-width: 0.8"/>
      </g>
     </g>
     <g id="text_7">
      <!-- −200 -->
      <g transform="translate(7.2 152.055899) scale(0.1 -0.1)">
       <defs>
        <path id="DejaVuSans-2212" d="M 678 2272 
L 4684 2272 
L 4684 1741 
L 678 1741 
L 678 2272 
z
" transform="scale(0.015625)"/>
       </defs>
       <use xlink:href="#DejaVuSans-2212"/>
       <use xlink:href="#DejaVuSans-32" transform="translate(83.789062 0)"/>
       <use xlink:href="#DejaVuSans-30" transform="translate(147.412109 0)"/>
       <use xlink:href="#DejaVuSans-30" transform="translate(211.035156 0)"/>
      </g>
     </g>
    </g>
    <g id="ytick_2">
     <g id="line2d_8">
      <g>
       <use xlink:href="#m312cf8513f" x="41.667188" y="115.497348" style="stroke: #000000; stroke-width: 0.8"/>
      </g>
     </g>
     <g id="text_8">
      <!-- −150 -->
      <g transform="translate(7.2 119.296566) scale(0.1 -0.1)">
       <use xlink:href="#DejaVuSans-2212"/>
       <use xlink:href="#DejaVuSans-31" transform="translate(83.789062 0)"/>
       <use xlink:href="#DejaVuSans-35" transform="translate(147.412109 0)"/>
       <use xlink:href="#DejaVuSans-30" transform="translate(211.035156 0)"/>
      </g>
     </g>
    </g>
    <g id="ytick_3">
     <g id="line2d_9">
      <g>
       <use xlink:href="#m312cf8513f" x="41.667188" y="82.738015" style="stroke: #000000; stroke-width: 0.8"/>
      </g>
     </g>
     <g id="text_9">
      <!-- −100 -->
      <g transform="translate(7.2 86.537234) scale(0.1 -0.1)">
       <use xlink:href="#DejaVuSans-2212"/>
       <use xlink:href="#DejaVuSans-31" transform="translate(83.789062 0)"/>
       <use xlink:href="#DejaVuSans-30" transform="translate(147.412109 0)"/>
       <use xlink:href="#DejaVuSans-30" transform="translate(211.035156 0)"/>
      </g>
     </g>
    </g>
    <g id="ytick_4">
     <g id="line2d_10">
      <g>
       <use xlink:href="#m312cf8513f" x="41.667188" y="49.978682" style="stroke: #000000; stroke-width: 0.8"/>
      </g>
     </g>
     <g id="text_10">
      <!-- −50 -->
      <g transform="translate(13.5625 53.777901) scale(0.1 -0.1)">
       <use xlink:href="#DejaVuSans-2212"/>
       <use xlink:href="#DejaVuSans-35" transform="translate(83.789062 0)"/>
       <use xlink:href="#DejaVuSans-30" transform="translate(147.412109 0)"/>
      </g>
     </g>
    </g>
    <g id="ytick_5">
     <g id="line2d_11">
      <g>
       <use xlink:href="#m312cf8513f" x="41.667188" y="17.219349" style="stroke: #000000; stroke-width: 0.8"/>
      </g>
     </g>
     <g id="text_11">
      <!-- 0 -->
      <g transform="translate(28.304688 21.018568) scale(0.1 -0.1)">
       <use xlink:href="#DejaVuSans-30"/>
      </g>
     </g>
    </g>
   </g>
   <g id="line2d_12">
    <path d="M 51.812642 49.490812 
L 54.024897 49.590786 
L 54.121082 49.590786 
L 54.052378 49.570791 
L 54.134822 49.570791 
L 55.344005 49.570791 
L 55.934856 55.189304 
L 57.693667 69.585496 
L 61.0464 93.199249 
L 61.279992 94.698852 
L 61.967028 98.917736 
L 62.255583 100.657276 
L 62.832693 104.056377 
L 64.385393 112.454155 
L 64.550282 113.273938 
L 65.374725 117.432838 
L 65.539613 118.252621 
L 66.515204 122.991367 
L 66.858721 124.730907 
L 67.051091 125.610674 
L 67.751868 129.049765 
L 70.527491 140.686686 
L 70.678639 141.08658 
L 71.777896 144.625644 
L 72.176377 145.885311 
L 73.20693 148.904512 
L 73.289375 148.784544 
L 73.605411 148.484623 
L 74.127558 149.424375 
L 77.013107 157.522232 
L 77.026848 157.502238 
L 77.06807 157.622206 
L 77.603958 158.861878 
L 77.658921 158.941857 
L 77.865032 159.38174 
L 78.043661 159.801629 
L 78.277253 160.341486 
L 78.648252 161.061296 
L 78.978029 161.701127 
L 79.032992 161.781106 
L 79.294066 162.220989 
L 79.349028 162.280973 
L 79.541398 162.640878 
L 79.884916 163.300704 
L 80.008583 163.300704 
L 80.187212 163.480656 
L 80.283397 163.580629 
L 80.420804 163.660608 
L 80.503248 163.760582 
L 80.654396 163.960529 
L 80.695618 163.860555 
L 80.764322 163.600624 
L 81.080358 162.300968 
L 81.149062 162.320963 
L 81.162802 162.360952 
L 81.245247 162.280973 
L 81.465098 161.601153 
L 81.863579 160.841354 
L 82.165874 159.581687 
L 82.179615 159.601682 
L 82.262059 159.701656 
L 82.784206 160.621412 
L 82.976576 161.041301 
L 82.990317 161.021307 
L 83.017799 161.141275 
L 83.526205 162.061031 
L 83.608649 162.14101 
L 83.636131 162.081026 
L 83.787278 162.181 
L 84.268203 163.040772 
L 84.474314 163.460661 
L 84.529277 163.54064 
L 84.859054 164.160476 
L 84.872795 164.140481 
L 84.914017 164.22046 
L 84.927757 164.22046 
L 85.147609 164.540376 
L 85.243794 164.620354 
L 85.449904 164.880286 
L 85.55983 164.94027 
L 85.697237 165.100227 
L 86.13694 165.180206 
L 86.288088 165.28018 
L 86.466717 165.380153 
L 86.535421 165.400148 
L 86.576643 165.360159 
L 86.975123 165.460132 
L 87.140012 165.62009 
L 87.249938 165.720063 
L 87.428567 165.800042 
L 87.799566 165.900016 
L 87.909492 165.96 
L 87.936973 165.920011 
L 88.088121 165.520116 
L 88.362935 164.800307 
L 88.527824 164.380418 
L 88.788897 163.680603 
L 88.885082 163.580629 
L 89.063712 163.500651 
L 89.970599 163.420672 
L 90.135487 163.080762 
L 90.533968 162.320963 
L 90.781301 161.50118 
L 91.014893 161.661137 
L 91.248485 161.761111 
L 91.262226 161.821095 
L 91.34467 161.741116 
L 92.292779 161.84109 
L 92.677519 162.280973 
L 92.69126 162.260979 
L 92.787445 162.260979 
L 92.869889 162.320963 
L 92.911111 162.280973 
L 93.117222 162.021042 
L 93.227147 162.021042 
L 93.268369 162.041037 
L 93.323332 161.981053 
L 93.460739 161.641143 
L 94.505034 154.942915 
L 94.82107 152.183645 
L 95.480624 146.60512 
L 95.741698 145.025538 
L 96.291326 142.066321 
L 96.332548 142.126305 
L 96.456215 142.326252 
L 96.483696 142.246273 
L 96.676066 141.386501 
L 96.93714 140.266797 
L 97.047065 139.946882 
L 97.253176 139.227072 
L 97.500509 139.04712 
L 97.830286 138.967141 
L 98.1051 138.487268 
L 98.118841 138.507263 
L 98.146322 138.427284 
L 98.613506 135.927945 
L 98.957024 134.2084 
L 99.039468 134.108426 
L 99.396727 132.728791 
L 100.111244 127.950056 
L 100.42728 125.830616 
L 101.141797 122.291552 
L 101.554019 121.43178 
L 101.608982 121.491764 
L 101.663944 121.43178 
L 102.089906 121.351801 
L 102.557091 118.852462 
L 103.546422 111.174494 
L 103.986125 107.195546 
L 104.357124 104.516255 
L 104.590716 103.036646 
L 106.074713 93.039291 
L 107.393821 87.740693 
L 107.503747 87.660714 
L 107.531228 87.700704 
L 107.654895 87.880656 
L 107.723598 87.820672 
L 107.929709 87.540746 
L 108.039635 87.440772 
L 108.548041 86.860926 
L 108.561782 86.88092 
L 108.589263 86.820936 
L 108.603004 86.820936 
L 108.754152 86.620989 
L 108.960262 86.481026 
L 108.987744 86.501021 
L 109.028966 86.441037 
L 109.152632 86.341063 
L 109.166373 86.361058 
L 109.235077 86.281079 
L 109.276299 86.161111 
L 109.372484 86.221095 
L 109.564854 86.341063 
L 110.169445 85.641248 
L 110.279371 85.56127 
L 110.458 85.361322 
L 110.471741 85.401312 
L 110.540444 85.301338 
L 110.966406 84.861455 
L 111.158776 84.761481 
L 111.296183 84.701497 
L 112.093145 84.601523 
L 112.76644 82.961957 
L 112.848884 82.881978 
L 113.137439 82.382111 
L 113.74203 81.682296 
L 114.12677 81.582322 
L 114.552732 81.122444 
L 114.731361 81.202423 
L 114.992435 81.302396 
L 115.29473 81.862248 
L 115.308471 81.842253 
L 115.349693 81.942227 
L 115.830618 82.502079 
L 116.24284 81.622312 
L 116.352765 81.522338 
L 116.503913 81.142439 
L 116.586357 80.962486 
L 116.64132 80.982481 
L 117.122245 80.882507 
L 117.658133 79.942756 
L 117.98791 78.963015 
L 118.015391 78.98301 
L 118.207761 78.823052 
L 118.303946 78.923026 
L 118.496316 79.162962 
L 118.839834 79.102978 
L 119.059686 78.623105 
L 119.183352 78.403163 
L 119.265796 78.483142 
L 119.774203 79.082983 
L 119.787943 79.062989 
L 119.870388 79.162962 
L 120.090239 79.462883 
L 120.200165 79.442888 
L 120.337572 79.502872 
L 120.626127 79.762803 
L 120.736052 79.762803 
L 121.175755 80.582587 
L 121.587976 81.442359 
L 122.000198 81.542333 
L 122.096383 81.542333 
L 122.110124 81.522338 
L 122.714715 81.622312 
L 122.907085 81.762275 
L 122.920826 81.722285 
L 123.00327 81.802264 
L 123.126936 81.882243 
L 123.140677 81.862248 
L 123.319306 81.942227 
L 123.38801 81.942227 
L 123.415491 81.982216 
L 123.59412 82.08219 
L 123.951379 82.542068 
L 124.006342 82.502079 
L 124.130008 82.502079 
L 125.256747 82.402105 
L 125.366672 82.382111 
L 125.71019 83.041936 
L 126.039967 83.401841 
L 126.067449 83.381846 
L 126.177374 83.461825 
L 126.424707 83.841724 
L 126.878151 84.341592 
L 127.24915 83.981687 
L 127.345335 84.021677 
L 127.372816 83.981687 
L 127.44152 83.981687 
L 127.469001 84.001682 
L 127.620149 84.041672 
L 127.716334 84.021677 
L 127.743815 84.041672 
L 128.087333 84.12165 
L 128.238481 84.321597 
L 128.40337 84.381582 
L 128.595739 84.281608 
L 128.939257 83.601788 
L 129.172849 83.261878 
L 129.502626 82.961957 
L 129.777441 83.041936 
L 129.914848 83.301867 
L 129.95607 83.241883 
L 130.189662 83.161904 
L 130.382032 82.921968 
L 131.165253 82.821994 
L 131.330141 82.742015 
L 131.632437 83.021941 
L 132.113362 82.482084 
L 132.127102 82.502079 
L 132.182065 82.402105 
L 132.388176 82.142174 
L 132.525583 81.942227 
L 132.580546 82.022206 
L 132.951545 82.742015 
L 133.322544 83.48182 
L 133.336285 83.461825 
L 133.391248 83.561798 
L 133.569877 84.001682 
L 133.844691 84.46156 
L 133.954617 84.521545 
L 134.133246 84.821465 
L 134.449283 85.401312 
L 135.095096 86.2011 
L 135.108837 86.161111 
L 135.1638 86.24109 
L 135.191281 86.24109 
L 135.521058 86.581 
L 135.534799 86.561005 
L 135.672206 86.54101 
L 135.823354 86.441037 
L 135.988242 86.381053 
L 136.221835 86.54101 
L 136.304279 86.640984 
L 136.510389 86.92091 
L 136.592834 87.020883 
L 136.785204 87.240825 
L 136.991314 87.360793 
L 138.516533 84.981423 
L 138.777607 84.321597 
L 139.066162 83.721756 
L 139.299754 83.161904 
L 139.560827 82.602052 
L 139.684494 82.502079 
L 139.698235 82.522074 
L 140.028012 82.4221 
L 140.096715 82.402105 
L 140.137937 82.442095 
L 140.316567 82.742015 
L 140.701307 82.821994 
L 140.934899 83.301867 
L 140.96238 83.281873 
L 141.525749 82.462089 
L 141.580712 82.562063 
L 141.786823 83.041936 
L 142.020415 83.78174 
L 142.70745 85.441301 
L 142.776154 85.52128 
L 142.968524 85.741222 
L 143.07845 85.821201 
L 143.229598 85.941169 
L 143.339523 85.941169 
L 143.573115 86.281079 
L 143.628078 86.341063 
L 143.765485 86.521016 
L 143.902892 86.501021 
L 144.713594 87.860661 
L 144.878483 88.120592 
L 144.988409 88.220566 
L 145.428111 89.620196 
L 145.551778 89.560212 
L 145.661704 89.540217 
L 145.730407 89.580206 
L 145.78537 89.560212 
L 145.950258 89.620196 
L 146.307517 89.720169 
L 146.376221 89.720169 
L 146.403702 89.68018 
L 147.269367 88.540481 
L 147.296848 88.560476 
L 147.393033 88.66045 
L 147.640366 88.840402 
L 147.846477 88.680444 
L 147.860217 88.700439 
L 148.052587 88.780418 
L 148.231217 89.180312 
L 148.437327 89.520222 
L 148.451068 89.500227 
L 148.533512 89.400254 
L 148.657179 89.380259 
L 148.849549 89.500227 
L 148.959474 89.480233 
L 148.973215 89.500227 
L 149.083141 89.600201 
L 149.344214 89.800148 
L 149.481621 89.700175 
L 149.660251 89.580206 
L 149.673991 89.600201 
L 151.034322 91.399725 
L 151.089285 91.359736 
L 151.144248 91.41972 
L 151.487765 91.519693 
L 151.803802 91.839609 
L 151.817542 91.799619 
L 151.872505 91.899593 
L 151.886246 91.899593 
L 152.380912 92.479439 
L 152.394652 92.459445 
L 152.5458 92.379466 
L 152.669467 92.299487 
L 152.848096 92.479439 
L 152.93054 92.479439 
L 152.958021 92.499434 
L 153.177873 92.39946 
L 153.70002 91.459709 
L 154.043538 90.779889 
L 154.098501 90.719905 
L 154.290871 90.320011 
L 154.400796 90.300016 
L 154.496981 90.300016 
L 154.510722 90.320011 
L 154.758055 90.220037 
L 154.895462 90.060079 
L 154.909203 90.080074 
L 155.129054 90.260026 
L 155.142795 90.240032 
L 155.747386 90.340005 
L 156.104644 90.679915 
L 156.448162 90.779889 
L 156.530607 90.899857 
L 156.585569 90.839873 
L 156.59931 90.859868 
L 156.640532 90.799884 
L 156.668014 90.799884 
L 156.929087 90.36 
L 156.98405 90.36 
L 157.011531 90.320011 
L 157.286346 90.040085 
L 157.300086 90.080074 
L 157.437494 90.200042 
L 157.464975 90.140058 
L 158.097048 89.320275 
L 158.110788 89.360264 
L 158.275677 89.780153 
L 158.646676 90.539952 
L 158.756602 90.639926 
L 158.825305 90.719905 
L 158.880268 90.659921 
L 159.017675 90.599937 
L 159.127601 90.499963 
L 159.347452 90.36 
L 159.402415 90.399989 
L 159.429897 90.320011 
L 159.842118 89.540217 
L 159.979525 89.400254 
L 159.993266 89.440243 
L 160.336784 89.520222 
L 160.487932 89.660185 
L 160.666561 89.240296 
L 161.023819 88.160582 
L 161.174967 87.760688 
L 161.958188 85.821201 
L 162.301705 85.141381 
L 162.988741 83.48182 
L 163.291037 83.761746 
L 163.442185 83.641777 
L 163.469666 83.681767 
L 163.662036 83.941698 
L 163.689517 83.961693 
L 163.758221 83.961693 
L 163.923109 84.061666 
L 163.93685 84.041672 
L 164.033035 84.141645 
L 164.376553 84.46156 
L 164.390294 84.441566 
L 164.458997 84.521545 
L 164.678849 84.741486 
L 164.70633 84.701497 
L 164.8987 84.801471 
L 166.43766 89.620196 
L 166.671252 90.180048 
L 166.946066 90.120063 
L 167.083473 89.960106 
L 167.289584 89.880127 
L 167.60562 89.260291 
L 167.619361 89.280286 
L 167.660583 89.180312 
L 167.674324 89.180312 
L 167.921657 88.800413 
L 167.99036 88.740428 
L 168.114027 88.600465 
L 168.155249 88.640455 
L 168.210212 88.560476 
L 169.117099 88.460503 
L 169.172061 88.380524 
L 169.227024 88.420513 
L 169.556801 89.040349 
L 169.749171 88.800413 
L 169.804134 88.860397 
L 170.271318 88.940376 
L 170.436207 89.080339 
L 170.614836 88.860397 
L 170.628577 88.880391 
L 170.68354 88.800413 
L 170.69728 88.800413 
L 170.88965 88.700439 
L 170.985835 88.700439 
L 171.191946 88.96037 
L 171.439279 89.180312 
L 171.45302 89.140323 
L 171.535464 89.240296 
L 171.906463 89.68018 
L 171.933944 89.660185 
L 172.126314 89.560212 
L 172.140055 89.580206 
L 172.195018 89.480233 
L 172.566017 88.32054 
L 173.19809 87.560741 
L 173.349238 87.660714 
L 173.679015 87.560741 
L 173.788941 87.540746 
L 173.802681 87.560741 
L 173.885126 87.660714 
L 174.077495 88.100598 
L 174.242384 88.360529 
L 174.36605 88.300545 
L 174.393532 88.32054 
L 174.585902 88.540481 
L 174.654605 88.640455 
L 175.011864 89.020354 
L 175.355382 88.340534 
L 175.630196 88.240561 
L 175.795084 88.180577 
L 175.90501 88.080603 
L 176.069899 87.94064 
L 176.083639 87.960635 
L 176.138602 87.860661 
L 176.330972 87.420778 
L 177.155415 84.301603 
L 177.210378 84.221624 
L 178.240931 81.562327 
L 179.147818 80.422629 
L 179.216522 80.34265 
L 180.219594 77.763332 
L 180.302038 77.763332 
L 180.315779 77.783327 
L 180.53563 77.92329 
L 180.618074 77.843311 
L 180.741741 77.743338 
L 180.755481 77.763332 
L 181.126481 78.503137 
L 181.786035 79.642835 
L 182.239478 80.622576 
L 182.637959 80.72255 
L 182.816588 80.802528 
L 183.077662 80.902502 
L 183.201328 81.242412 
L 183.572327 82.382111 
L 184.630362 85.801206 
L 185.083806 87.820672 
L 185.839545 90.340005 
L 186.169322 91.619667 
L 186.347951 91.919587 
L 186.691469 92.599408 
L 187.474689 94.538894 
L 187.831948 94.918794 
L 188.367836 93.059286 
L 188.601428 92.539423 
L 188.931205 91.259762 
L 189.068612 90.519958 
L 190.167869 86.2011 
L 190.442683 85.621254 
L 190.854905 84.081661 
L 191.294607 82.642042 
L 191.390792 82.542068 
L 191.445755 82.582058 
L 191.569422 82.622047 
L 191.583162 82.602052 
L 191.92668 82.502079 
L 192.174013 81.442359 
L 192.393864 80.662565 
L 192.407605 80.68256 
L 192.490049 80.72255 
L 192.517531 80.662565 
L 192.572494 80.582587 
L 192.806086 79.602846 
L 193.493121 72.864628 
L 195.100785 61.927522 
L 195.169488 61.647596 
L 195.884005 59.008294 
L 196.200041 58.728368 
L 196.378671 58.828342 
L 196.529819 58.928315 
L 196.639744 58.928315 
L 196.832114 58.788352 
L 196.845855 58.808347 
L 196.983262 58.908321 
L 197.189373 59.028289 
L 197.313039 59.128262 
L 199.470331 62.127469 
L 199.511553 62.08748 
L 199.580257 62.147464 
L 199.690182 62.167458 
L 199.827589 62.187453 
L 199.978737 62.147464 
L 200.171107 62.04749 
L 200.294774 62.027495 
L 200.41844 62.027495 
L 200.816921 62.127469 
L 201.091735 62.347411 
L 201.174179 62.42739 
L 201.311586 62.507368 
L 201.448993 62.487374 
L 201.888696 62.3874 
L 202.177251 62.107474 
L 202.190992 62.127469 
L 202.397102 62.027495 
L 202.699398 61.407659 
L 203.015435 60.507897 
L 203.221545 60.227971 
L 203.372693 60.287956 
L 203.5101 60.227971 
L 203.798655 60.327945 
L 204.389506 61.007765 
L 204.581876 61.107739 
L 204.801727 61.247702 
L 204.966616 61.347675 
L 205.200208 61.507633 
L 205.4338 61.607606 
L 205.63991 61.727575 
L 205.83228 61.827548 
L 206.02465 61.927522 
L 206.20328 62.027495 
L 206.615501 62.447384 
L 206.835352 62.527363 
L 206.931537 62.607342 
L 206.945278 62.587347 
L 206.959019 62.567353 
L 206.9865 62.627337 
L 207.027722 62.647331 
L 207.192611 62.7673 
L 207.220092 62.747305 
L 207.412462 62.647331 
L 207.591092 62.547358 
L 207.659795 62.567353 
L 207.687277 62.547358 
L 207.824684 62.42739 
L 207.920869 62.507368 
L 207.934609 62.487374 
L 208.401794 61.987506 
L 208.539201 62.08748 
L 208.868978 62.42739 
L 208.882718 62.407395 
L 209.157533 62.347411 
L 209.29494 62.187453 
L 209.459828 62.08748 
L 209.734643 61.747569 
L 209.789605 61.787559 
L 210.284271 61.887532 
L 210.394197 61.927522 
L 210.407937 61.907527 
L 210.902603 61.36767 
L 211.067492 61.427654 
L 211.493454 61.347675 
L 211.630861 61.287691 
L 211.740786 61.327681 
L 211.754527 61.307686 
L 211.782009 61.327681 
L 211.905675 61.247702 
L 211.974379 61.247702 
L 212.00186 61.227707 
L 212.139267 61.207712 
L 212.317896 61.387665 
L 212.441563 61.387665 
L 212.551488 61.447649 
L 212.57897 61.427654 
L 212.606451 61.447649 
L 212.688896 61.447649 
L 213.169821 61.547622 
L 213.34845 61.687585 
L 213.375931 61.667591 
L 213.499598 61.667591 
L 213.637005 61.70758 
L 213.650745 61.687585 
L 213.691968 61.747569 
L 213.73319 61.747569 
L 214.365262 61.647596 
L 214.69504 61.347675 
L 214.804965 61.247702 
L 214.956113 61.02776 
L 215.024817 60.927786 
L 215.533223 60.367934 
L 215.890481 60.707844 
L 216.027889 60.807818 
L 216.233999 61.067749 
L 216.343925 61.167723 
L 216.550036 61.287691 
L 217.250812 61.187718 
L 217.553108 60.927786 
L 217.566848 60.947781 
L 217.649293 60.887797 
L 217.841663 60.527892 
L 218.281365 60.068014 
L 218.74855 60.147993 
L 218.899697 60.267961 
L 219.174512 60.367934 
L 219.201993 60.34794 
L 219.311919 60.387929 
L 219.353141 60.367934 
L 219.408104 60.407924 
L 219.435585 60.387929 
L 219.930251 60.98777 
L 220.040176 61.087744 
L 220.314991 61.327681 
L 220.328731 61.307686 
L 220.383694 61.407659 
L 220.795916 61.827548 
L 220.87836 61.827548 
L 220.892101 61.847543 
L 221.015767 61.847543 
L 221.153174 61.927522 
L 221.304322 62.127469 
L 221.496692 62.267432 
L 221.510433 62.247437 
L 222.03258 62.147464 
L 222.183727 62.04749 
L 222.211209 62.067485 
L 222.41732 61.967511 
L 222.513505 61.907527 
L 222.540986 61.927522 
L 222.705874 61.827548 
L 223.118096 61.407659 
L 223.214281 61.307686 
L 223.544058 61.007765 
L 223.750169 60.907792 
L 224.093686 60.587876 
L 224.698278 60.507897 
L 224.794463 60.447913 
L 224.821944 60.467908 
L 225.110499 60.727839 
L 225.234165 60.707844 
L 225.728831 60.627866 
L 225.866238 60.547887 
L 225.879979 60.587876 
L 225.934942 60.507897 
L 225.962423 60.507897 
L 226.09983 60.34794 
L 226.154793 60.387929 
L 226.305941 60.547887 
L 226.319682 60.527892 
L 226.512052 60.427919 
L 226.745644 60.267961 
L 226.828088 60.267961 
L 226.841829 60.227971 
L 226.965495 60.127998 
L 227.171606 60.00803 
L 227.240309 60.068014 
L 227.281532 60.028024 
L 227.44642 59.888061 
L 227.707494 59.988035 
L 227.858641 60.387929 
L 228.449492 61.767564 
L 229.164009 62.987241 
L 229.425083 63.40713 
L 230.125859 64.246908 
L 230.277007 64.346882 
L 230.441895 64.486845 
L 230.675487 64.646802 
L 230.881598 64.746776 
L 231.087709 64.866744 
L 231.348782 64.966718 
L 231.554893 65.086686 
L 231.870929 64.986713 
L 232.008336 64.626808 
L 232.46178 63.10721 
L 232.516743 63.007236 
L 232.901483 62.227442 
L 233.121334 62.027495 
L 233.148815 62.04749 
L 233.753407 62.747305 
L 233.82211 62.827284 
L 234.028221 63.127204 
L 234.083184 63.127204 
L 234.096925 63.187189 
L 234.110665 63.187189 
L 234.303035 63.287162 
L 234.495405 63.507104 
L 234.59159 63.607077 
L 234.811442 63.74704 
L 235.347329 63.847014 
L 235.484736 63.867009 
L 236.185513 63.78703 
L 236.281698 63.74704 
L 236.295438 63.78703 
L 236.803845 63.887003 
L 236.954993 63.926993 
L 238.232879 64.026966 
L 238.397767 64.12694 
L 238.411508 64.106945 
L 239.41458 64.006972 
L 239.579469 63.847014 
L 239.689394 63.74704 
L 239.950468 63.087215 
L 240.211541 62.527363 
L 240.5688 61.447649 
L 240.816133 61.067749 
L 240.898577 60.967776 
L 241.187132 60.467908 
L 242.245167 59.108268 
L 242.368833 59.048284 
L 242.533722 58.768358 
L 242.629907 58.668384 
L 242.822277 58.448442 
L 242.945943 58.468437 
L 242.973424 58.488432 
L 243.097091 58.428448 
L 243.454349 58.328474 
L 243.578016 58.288485 
L 243.729164 58.388458 
L 243.811608 58.328474 
L 243.85283 58.348469 
L 243.949015 58.368463 
L 243.962756 58.348469 
L 244.402458 57.808611 
L 244.42994 57.828606 
L 244.636051 57.948574 
L 245.116975 58.048548 
L 245.268123 58.088537 
L 245.666604 58.188511 
L 245.749048 58.248495 
L 245.804011 58.208506 
L 246.642194 58.108532 
L 246.999453 57.768622 
L 247.549081 57.868596 
L 247.837636 58.108532 
L 248.703301 58.188511 
L 248.840708 58.308479 
L 248.854449 58.288485 
L 249.143004 58.388458 
L 249.362855 58.528421 
L 249.541485 58.448442 
L 249.63767 58.368463 
L 249.83004 58.148522 
L 250.324705 58.068543 
L 250.393409 58.028553 
L 250.434631 58.048548 
L 250.558297 58.128527 
L 250.572038 58.108532 
L 250.80563 58.26849 
L 251.025481 58.348469 
L 251.162889 58.428448 
L 251.300296 58.408453 
L 251.547629 58.308479 
L 251.671295 58.26849 
L 251.753739 58.288485 
L 251.781221 58.26849 
L 252.110998 58.168516 
L 252.454516 57.848601 
L 253.141551 57.788617 
L 253.169033 57.728633 
L 253.251477 57.768622 
L 253.402625 57.728633 
L 253.485069 57.768622 
L 253.51255 57.748627 
L 253.526291 57.728633 
L 253.581254 57.828606 
L 253.594995 57.788617 
L 253.70492 57.908585 
L 253.718661 57.88859 
L 254.07592 57.788617 
L 254.309512 57.628659 
L 254.515622 57.54868 
L 254.625548 57.448707 
L 254.653029 57.468701 
L 254.721733 57.488696 
L 254.721733 57.488696 
" clip-path="url(#p52e53fff52)" style="fill: none; stroke: #000000; stroke-opacity: 0.5; stroke-width: 1.5; stroke-linecap: square"/>
   </g>
   <g id="line2d_13">
    <path d="M 51.812642 46.051722 
L 52.183641 46.151695 
L 52.417233 46.311653 
L 52.444715 46.331648 
L 52.513418 46.311653 
L 52.623344 46.391632 
L 52.650825 46.371637 
L 52.760751 46.371637 
L 52.966862 46.491605 
L 53.11801 46.571584 
L 53.241676 46.651563 
L 53.255417 46.631568 
L 53.475268 46.731542 
L 53.557712 46.771531 
L 53.585194 46.751537 
L 53.598935 46.711547 
L 53.681379 46.751537 
L 53.818786 46.811521 
L 53.997415 46.8915 
L 54.313452 46.991473 
L 54.533303 47.131436 
L 55.082931 47.23141 
L 55.234079 47.271399 
L 55.289042 47.271399 
L 55.330264 47.311389 
L 55.357746 47.371373 
L 55.756226 49.050928 
L 56.168448 50.570526 
L 56.457003 51.670235 
L 56.484484 51.73022 
L 56.951668 53.289807 
L 59.589885 60.627866 
L 59.713551 60.947781 
L 59.905921 61.447649 
L 60.606698 63.167194 
L 60.634179 63.247173 
L 61.060141 64.186924 
L 61.073882 64.166929 
L 61.101363 64.266903 
L 61.115104 64.246908 
L 61.870843 66.106416 
L 63.368581 68.105887 
L 63.492247 68.205861 
L 63.684617 68.425803 
L 63.808283 68.525776 
L 65.525872 70.845163 
L 65.539613 70.825168 
L 65.553354 70.865157 
L 65.608317 70.885152 
L 65.759465 70.925141 
L 66.157945 71.00512 
L 66.322834 71.145083 
L 66.336574 71.125089 
L 66.350315 71.165078 
L 66.419019 71.185073 
L 66.570167 71.305041 
L 66.693833 71.405015 
L 67.147276 71.884888 
L 67.21598 71.984861 
L 67.518276 72.244792 
L 67.641942 72.344766 
L 67.889275 72.764655 
L 67.903016 72.74466 
L 67.957978 72.844634 
L 68.164089 72.924613 
L 68.328978 73.104565 
L 68.342718 73.08457 
L 68.397681 73.164549 
L 69.029754 73.924348 
L 69.043495 73.904353 
L 69.084717 73.984332 
L 69.400753 74.564179 
L 69.469457 74.664152 
L 70.554973 76.403692 
L 70.761084 76.843576 
L 70.829787 76.923555 
L 71.104601 77.383433 
L 71.118342 77.363438 
L 71.173305 77.443417 
L 71.187046 77.443417 
L 71.393156 77.723343 
L 71.46186 77.823317 
L 72.492413 79.502872 
L 72.835931 80.182692 
L 72.849672 80.162698 
L 72.890894 80.262671 
L 72.904635 80.262671 
L 73.413041 81.162433 
L 73.59167 81.482349 
L 76.037517 84.861455 
L 76.133702 84.941433 
L 76.312331 85.121386 
L 77.136774 86.141116 
L 77.219218 86.24109 
L 77.631439 86.660979 
L 77.865032 86.760952 
L 78.057402 86.980894 
L 78.277253 87.080867 
L 78.648252 87.440772 
L 78.785659 87.540746 
L 79.472695 88.380524 
L 79.486436 88.360529 
L 79.527658 88.440508 
L 79.555139 88.420513 
L 79.747509 88.640455 
L 79.981101 88.800413 
L 80.297138 88.900386 
L 80.489508 89.120328 
L 80.571952 89.220302 
L 80.764322 89.440243 
L 81.066617 89.700175 
L 81.162802 89.800148 
L 82.303281 91.279757 
L 82.317022 91.259762 
L 82.344504 91.319746 
L 82.371985 91.319746 
L 82.523133 91.499698 
L 83.113983 92.179519 
L 83.347576 92.279492 
L 83.691093 92.599408 
L 83.801019 92.699381 
L 84.268203 93.199249 
L 84.680425 93.099275 
L 84.817832 93.019296 
L 84.831572 93.039291 
L 85.092646 93.239238 
L 85.202572 93.319217 
L 85.339979 93.49917 
L 85.422423 93.519164 
L 85.436164 93.539159 
L 85.55983 93.599143 
L 85.573571 93.579148 
L 85.683497 93.559154 
L 85.697237 93.579148 
L 85.848385 93.619138 
L 85.985792 93.559154 
L 86.123199 93.45918 
L 86.246866 93.339212 
L 86.288088 93.379201 
L 86.32931 93.339212 
L 86.384273 93.379201 
L 86.617865 93.039291 
L 86.892679 92.77936 
L 87.016346 92.839344 
L 87.071308 92.819349 
L 87.126271 92.859339 
L 87.236197 92.919323 
L 87.263678 92.899328 
L 87.373604 92.859339 
L 87.401086 92.879334 
L 87.620937 93.019296 
L 87.86827 92.919323 
L 88.005677 92.899328 
L 88.156825 92.999302 
L 88.720194 93.639133 
L 88.84386 93.719111 
L 89.02249 93.899064 
L 89.132415 93.979043 
L 89.352267 94.278963 
L 89.462192 94.378937 
L 90.272894 95.378672 
L 90.286635 95.358678 
L 90.341598 95.458651 
L 90.424042 95.53863 
L 90.616412 95.778567 
L 90.712597 95.87854 
L 90.918708 96.138471 
L 91.028633 96.238445 
L 91.275966 96.618344 
L 91.358411 96.718318 
L 91.550781 96.93826 
L 92.347742 97.918001 
L 92.430186 97.997979 
L 92.636297 98.257911 
L 93.158444 98.877747 
L 93.172185 98.837757 
L 93.240888 98.917736 
L 93.268369 98.897741 
L 93.625628 99.237651 
L 93.914183 99.337625 
L 94.134034 99.637546 
L 94.24396 99.737519 
L 94.395108 99.937466 
L 94.669922 100.197398 
L 94.683663 100.177403 
L 94.958477 100.277376 
L 95.082143 100.33736 
L 95.095884 100.317366 
L 95.288254 100.217392 
L 95.645513 100.117419 
L 95.920327 99.897477 
L 96.071475 99.797503 
L 96.250104 99.717524 
L 96.428733 99.617551 
L 96.731029 99.057699 
L 96.854695 99.057699 
L 96.978362 98.97772 
L 97.005843 98.997715 
L 97.198213 99.097688 
L 97.294398 99.177667 
L 97.473027 99.377614 
L 97.596694 99.477588 
L 97.789064 99.597556 
L 97.802804 99.557567 
L 97.871508 99.637546 
L 97.885249 99.617551 
L 98.324951 100.097424 
L 98.338692 100.077429 
L 98.393655 100.157408 
L 98.407396 100.157408 
L 98.531062 100.237387 
L 98.668469 100.417339 
L 98.68221 100.397345 
L 98.709691 100.457329 
L 98.764654 100.457329 
L 98.915802 100.597292 
L 99.039468 100.597292 
L 99.204357 100.737255 
L 99.341764 100.837228 
L 99.753985 101.257117 
L 99.891393 101.357091 
L 100.289873 101.756985 
L 100.42728 101.856958 
L 100.60591 101.936937 
L 100.784539 102.036911 
L 100.853242 102.036911 
L 100.880724 101.996921 
L 101.00439 101.956932 
L 101.018131 101.976927 
L 101.444093 102.0769 
L 101.732648 102.316837 
L 101.870055 102.41681 
L 102.144869 102.656747 
L 102.15861 102.636752 
L 102.213573 102.716731 
L 102.227314 102.716731 
L 102.804423 103.396551 
L 102.818164 103.376556 
L 102.886868 103.456535 
L 103.065497 103.676477 
L 103.106719 103.656482 
L 103.161682 103.696472 
L 103.436496 103.956403 
L 103.450237 103.936408 
L 104.453309 104.036382 
L 104.631938 104.116361 
L 105.044159 104.036382 
L 105.566307 102.856694 
L 106.253342 102.036911 
L 106.363268 102.036911 
L 106.569379 101.896948 
L 106.583119 101.936937 
L 106.665563 101.876953 
L 106.912896 101.697001 
L 107.709858 101.597027 
L 107.847265 101.517048 
L 107.902228 101.537043 
L 107.94345 101.477059 
L 108.108338 101.417075 
L 108.314449 101.317101 
L 108.932781 100.597292 
L 109.427447 100.517313 
L 109.564854 100.417339 
L 109.578594 100.437334 
L 109.619817 100.357355 
L 109.633557 100.357355 
L 109.894631 100.157408 
L 109.922112 100.137413 
L 109.990816 100.137413 
L 110.141964 100.097424 
L 110.26563 100.097424 
L 110.403037 99.99745 
L 110.526703 99.99745 
L 111.268702 100.097424 
L 111.43359 100.157408 
L 111.598479 100.097424 
L 112.807662 99.99745 
L 113.027513 99.837493 
L 113.123698 99.857487 
L 113.137439 99.837493 
L 113.508438 99.117683 
L 113.810734 97.977985 
L 114.044326 97.638075 
L 114.31914 97.558096 
L 114.607695 97.058228 
L 114.868768 96.858281 
L 115.528323 96.958254 
L 115.720693 97.078223 
L 115.830618 97.058228 
L 115.844359 97.078223 
L 116.119173 96.998244 
L 116.25658 96.93826 
L 116.503913 97.038233 
L 116.682542 97.218186 
L 116.847431 97.138207 
L 117.039801 97.23818 
L 117.534467 96.698323 
L 117.740577 96.838286 
L 117.781799 96.798297 
L 117.850503 96.858281 
L 118.015391 96.958254 
L 118.029132 96.93826 
L 118.331428 97.038233 
L 118.523798 97.138207 
L 118.633723 97.23818 
L 118.798612 97.378143 
L 119.087167 97.61808 
L 119.197093 97.718053 
L 119.458166 97.95799 
L 119.471907 97.937995 
L 119.623055 98.037969 
L 119.801684 98.217921 
L 119.870388 98.217921 
L 119.897869 98.237916 
L 120.158942 98.437863 
L 120.598645 98.517842 
L 120.736052 98.597821 
L 120.914682 98.697794 
L 121.07957 98.797768 
L 121.093311 98.777773 
L 121.244459 98.877747 
L 121.46431 99.01771 
L 121.670421 99.097688 
L 121.684161 99.137678 
L 121.780346 99.077694 
L 121.84905 99.077694 
L 121.835309 99.117683 
L 121.876531 99.117683 
L 122.000198 99.197662 
L 122.151346 99.31763 
L 122.261271 99.417604 
L 122.522345 99.617551 
L 122.742196 99.717524 
L 122.948307 99.837493 
L 123.044492 99.817498 
L 123.071973 99.837493 
L 123.19564 99.837493 
L 123.511676 99.937466 
L 123.690305 100.03744 
L 123.800231 100.057435 
L 123.992601 100.157408 
L 124.033823 100.197398 
L 124.088786 100.177403 
L 124.34986 100.37735 
L 124.3636 100.357355 
L 124.391082 100.417339 
L 124.432304 100.417339 
L 124.693377 100.617286 
L 124.858266 100.71726 
L 125.064377 100.837228 
L 125.311709 100.937202 
L 125.490339 101.017181 
L 125.641486 101.117154 
L 125.847597 101.257117 
L 125.943782 101.237122 
L 125.971264 101.257117 
L 126.424707 101.357091 
L 126.713262 101.617022 
L 126.727003 101.597027 
L 126.768225 101.657011 
L 126.809447 101.657011 
L 126.960595 101.756985 
L 127.345335 102.136884 
L 127.45526 102.236858 
L 127.702593 102.41681 
L 127.812519 102.436805 
L 128.004889 102.536779 
L 128.444592 102.636752 
L 128.636962 102.736726 
L 128.650702 102.716731 
L 128.691924 102.776715 
L 128.719406 102.776715 
L 128.898035 102.956668 
L 129.021702 103.056641 
L 129.296516 103.276583 
L 129.392701 103.376556 
L 129.681256 103.616493 
L 129.694996 103.596498 
L 129.708737 103.656482 
L 129.777441 103.656482 
L 130.395773 103.756456 
L 130.601883 103.876424 
L 130.807994 103.956403 
L 130.93166 103.996392 
L 131.000364 103.996392 
L 131.027845 104.016387 
L 131.261438 104.176345 
L 131.742362 104.276318 
L 131.866029 104.356297 
L 131.87977 104.336303 
L 132.030917 104.436276 
L 132.195806 104.576239 
L 132.26451 104.636223 
L 132.401917 104.816176 
L 132.649249 104.996128 
L 132.786657 105.056112 
L 132.937804 105.236065 
L 132.951545 105.21607 
L 133.020249 105.276054 
L 133.198878 105.356033 
L 133.350026 105.456006 
L 133.542396 105.575975 
L 133.597359 105.595969 
L 133.679803 105.51599 
L 133.81721 105.535985 
L 133.940876 105.635959 
L 134.105765 105.695943 
L 134.353098 105.795916 
L 134.504246 105.835906 
L 134.820282 105.915885 
L 134.957689 105.995864 
L 135.067615 106.015858 
L 135.17754 106.075842 
L 135.218763 106.035853 
L 135.287466 106.075842 
L 135.672206 106.175816 
L 135.878317 106.295784 
L 136.029465 106.375763 
L 136.208094 106.57571 
L 136.31802 106.675684 
L 136.496649 106.875631 
L 136.675278 106.975604 
L 136.90887 107.155557 
L 136.963833 107.155557 
L 137.005055 107.195546 
L 137.169944 107.275525 
L 137.321091 107.375499 
L 138.049349 107.275525 
L 138.544015 106.715673 
L 138.667681 106.755663 
L 138.681422 106.735668 
L 139.450902 106.835641 
L 139.725716 107.055583 
L 140.921158 107.155557 
L 141.086047 107.29552 
L 141.470786 107.675419 
L 141.594453 107.775393 
L 141.896748 108.055319 
L 141.92423 108.075313 
L 141.992933 108.075313 
L 142.199044 108.195282 
L 142.528821 108.295255 
L 142.652488 108.335245 
L 142.817376 108.275261 
L 143.009746 108.175287 
L 143.147153 108.135298 
L 143.229598 108.135298 
L 143.174635 108.115303 
L 143.243338 108.095308 
L 143.944115 108.195282 
L 144.095262 108.255266 
L 144.218929 108.255266 
L 144.411299 108.355239 
L 144.534965 108.415223 
L 144.562447 108.395229 
L 145.139556 108.295255 
L 145.304445 108.235271 
L 145.331926 108.215276 
L 145.40063 108.215276 
L 145.593 108.115303 
L 145.909036 108.015329 
L 146.115147 107.895361 
L 146.321258 107.97534 
L 146.431183 108.015329 
L 146.499887 107.97534 
L 146.541109 108.015329 
L 147.461737 107.915356 
L 147.489218 107.93535 
L 147.599144 107.895361 
L 147.626625 107.875366 
L 147.750292 107.93535 
L 148.519772 108.015329 
L 148.643438 108.055319 
L 148.780845 108.035324 
L 148.87703 108.015329 
L 149.055659 107.835377 
L 149.138104 107.815382 
L 149.110622 107.795387 
L 149.151844 107.795387 
L 149.990028 107.895361 
L 150.237361 108.095308 
L 150.251101 108.075313 
L 150.319805 108.135298 
L 150.498434 108.215276 
L 150.635841 108.195282 
L 150.80073 108.255266 
L 150.938137 108.235271 
L 151.858765 108.335245 
L 151.996172 108.395229 
L 152.257245 108.495202 
L 152.449615 108.615171 
L 152.463356 108.595176 
L 152.504578 108.65516 
L 152.532059 108.65516 
L 152.710689 108.755134 
L 152.793133 108.755134 
L 152.806874 108.775128 
L 152.944281 108.835112 
L 153.164132 108.935086 
L 153.397724 109.135033 
L 153.411465 109.115038 
L 153.590094 109.215012 
L 153.782464 109.314985 
L 153.864908 109.33498 
L 153.878649 109.354975 
L 154.002316 109.454948 
L 154.153463 109.634901 
L 154.290871 109.734874 
L 154.48324 109.854843 
L 154.496981 109.834848 
L 154.565685 109.914827 
L 154.703092 109.994806 
L 154.86798 110.134769 
L 154.977906 110.234742 
L 155.403868 110.69462 
L 155.417609 110.674626 
L 155.472572 110.754605 
L 155.486312 110.754605 
L 155.747386 110.954552 
L 155.953497 111.034531 
L 156.049682 111.07452 
L 156.077163 111.054525 
L 156.338237 110.854578 
L 156.448162 110.774599 
L 156.585569 110.69462 
L 156.764199 110.774599 
L 157.107716 110.874573 
L 157.272605 110.934557 
L 157.616123 110.614642 
L 158.124529 110.514668 
L 158.152011 110.554657 
L 158.220714 110.534663 
L 158.344381 110.534663 
L 158.495528 110.454684 
L 158.509269 110.474679 
L 158.797824 110.574652 
L 158.894009 110.634636 
L 158.935231 110.594647 
L 159.402415 110.494673 
L 159.4986 110.494673 
L 159.512341 110.514668 
L 160.213117 110.614642 
L 160.378006 110.69462 
L 160.46045 110.674626 
L 160.487932 110.714615 
L 161.106264 110.614642 
L 161.216189 110.554657 
L 161.22993 110.594647 
L 161.257411 110.574652 
L 161.367337 110.614642 
L 161.491004 110.714615 
L 161.587188 110.754605 
L 161.61467 110.73461 
L 161.724596 110.754605 
L 162.123076 110.854578 
L 162.274224 110.914562 
L 162.329187 110.954552 
L 162.38415 110.934557 
L 162.535298 111.034531 
L 162.700186 111.114509 
L 162.713927 111.094515 
L 162.796371 111.154499 
L 162.920038 111.154499 
L 164.156702 111.234478 
L 164.294109 111.294462 
L 164.857478 111.194488 
L 165.338403 110.674626 
L 166.547585 110.774599 
L 166.657511 110.774599 
L 166.83614 110.674626 
L 166.932325 110.654631 
L 167.097214 110.534663 
L 167.110955 110.554657 
L 167.138436 110.534663 
L 167.234621 110.554657 
L 167.289584 110.594647 
L 167.330806 110.554657 
L 167.454472 110.634636 
L 167.468213 110.614642 
L 167.633102 110.674626 
L 167.756768 110.674626 
L 167.894175 110.69462 
L 168.278915 110.794594 
L 168.485026 110.914562 
L 169.254506 110.814589 
L 169.680468 110.374705 
L 169.804134 110.3947 
L 169.969023 110.334716 
L 170.10643 110.35471 
L 170.546133 110.254737 
L 170.958354 109.834848 
L 171.08202 109.734874 
L 171.384316 109.454948 
L 171.398057 109.474943 
L 171.45302 109.394964 
L 171.46676 109.414959 
L 171.590427 109.394964 
L 171.65913 109.394964 
L 171.686612 109.37497 
L 171.810278 109.294991 
L 171.865241 109.274996 
L 171.933944 109.314985 
L 172.04387 109.294991 
L 172.057611 109.314985 
L 172.318684 109.414959 
L 172.42861 109.494938 
L 172.456092 109.474943 
L 172.566017 109.494938 
L 172.785869 109.394964 
L 172.937016 109.354975 
L 173.308016 109.294991 
L 173.431682 109.155028 
L 173.445423 109.175022 
L 173.679015 109.015065 
L 173.706496 109.03506 
L 173.761459 108.99507 
L 173.926348 108.855107 
L 174.228643 108.595176 
L 174.833235 108.495202 
L 174.956901 108.415223 
L 174.970642 108.455213 
L 175.066827 108.415223 
L 175.561492 108.515197 
L 175.630196 108.555186 
L 175.685159 108.515197 
L 176.028677 108.615171 
L 176.056158 108.595176 
L 176.166084 108.635165 
L 176.619527 108.735139 
L 176.743194 108.755134 
L 176.825638 108.775128 
L 176.839379 108.795123 
L 177.347785 108.895097 
L 177.718784 109.255001 
L 177.82871 109.354975 
L 178.007339 109.534927 
L 178.185968 109.634901 
L 178.254672 109.654896 
L 178.282153 109.594911 
L 178.666893 109.694885 
L 178.927967 109.894832 
L 179.079115 109.974811 
L 179.244003 110.114774 
L 179.38141 110.134769 
L 179.738669 110.034795 
L 179.889817 109.67489 
L 180.095927 109.095044 
L 180.508149 108.675155 
L 180.576852 108.575181 
L 180.714259 108.495202 
L 180.782963 108.555186 
L 180.824185 108.515197 
L 181.140221 108.235271 
L 181.153962 108.255266 
L 181.208925 108.155292 
L 181.360073 108.035324 
L 182.08833 108.135298 
L 182.239478 108.175287 
L 182.47307 108.255266 
L 182.514293 108.295255 
L 182.569255 108.215276 
L 182.720403 108.115303 
L 182.747885 108.135298 
L 182.912773 108.195282 
L 183.05018 108.175287 
L 183.462402 108.275261 
L 183.668512 108.395229 
L 183.695994 108.415223 
L 183.764697 108.395229 
L 183.929586 108.535192 
L 184.080734 108.595176 
L 184.176919 108.575181 
L 184.190659 108.595176 
L 184.424251 108.755134 
L 185.056324 108.65516 
L 185.207472 108.615171 
L 185.35862 108.65516 
L 185.523508 108.755134 
L 185.839545 109.03506 
L 186.265507 108.935086 
L 186.444136 108.835112 
L 186.554062 108.835112 
L 186.732691 108.755134 
L 187.144912 108.675155 
L 187.158653 108.615171 
L 187.254838 108.65516 
L 187.694541 108.755134 
L 187.818207 108.815118 
L 187.914392 108.815118 
L 187.928133 108.835112 
L 188.079281 108.915091 
L 188.093022 108.895097 
L 188.312873 108.99507 
L 188.656391 109.314985 
L 188.697613 109.294991 
L 188.752576 109.354975 
L 188.889983 109.434954 
L 189.109834 109.734874 
L 189.206019 109.834848 
L 189.439611 110.0148 
L 189.508315 110.0148 
L 189.535796 110.034795 
L 189.755648 110.194753 
L 189.79687 110.154763 
L 189.865573 110.214747 
L 190.016721 110.274732 
L 190.18161 110.214747 
L 190.676275 110.314721 
L 190.813682 110.35471 
L 190.909867 110.334716 
L 190.937349 110.35471 
L 191.074756 110.434689 
L 191.239645 110.534663 
L 191.432014 110.634636 
L 191.651866 110.714615 
L 191.775532 110.754605 
L 192.174013 110.674626 
L 192.297679 110.614642 
L 192.435086 110.634636 
L 192.723641 110.554657 
L 192.916011 109.654896 
L 193.328233 107.455477 
L 194.138935 103.456535 
L 194.372527 102.556773 
L 194.6336 101.657011 
L 194.674822 101.577033 
L 195.183229 99.837493 
L 195.320636 99.477588 
L 195.636672 98.557831 
L 195.78782 98.157937 
L 196.639744 96.018503 
L 196.845855 95.53863 
L 198.384815 91.399725 
L 198.577185 90.939847 
L 199.813849 87.680709 
L 200.143626 87.020883 
L 200.404699 86.600994 
L 203.743692 81.922232 
L 203.839877 81.822259 
L 204.307061 81.302396 
L 204.320802 81.322391 
L 204.375765 81.242412 
L 205.24143 80.162698 
L 205.406318 80.062724 
L 205.557466 79.962751 
L 205.81854 79.742809 
L 205.873503 79.762803 
L 205.914725 79.702819 
L 206.162058 79.522867 
L 206.21702 79.522867 
L 206.244502 79.482878 
L 206.533057 79.202952 
L 206.546797 79.222946 
L 206.656723 79.122973 
L 206.862834 78.863042 
L 206.9865 78.763068 
L 207.192611 78.503137 
L 207.316277 78.403163 
L 207.701017 78.023264 
L 207.797202 77.92329 
L 208.085757 77.683354 
L 208.209424 77.58338 
L 208.484238 77.363438 
L 208.607904 77.263465 
L 208.965163 76.923555 
L 209.143792 76.823581 
L 209.432347 76.56365 
L 209.528532 76.543655 
L 209.665939 76.383697 
L 209.789605 76.283724 
L 210.091901 76.023793 
L 210.201827 75.923819 
L 210.435419 75.763861 
L 210.627789 75.663888 
L 210.765196 75.54392 
L 210.778937 75.583909 
L 210.84764 75.463941 
L 210.861381 75.483935 
L 211.163677 75.184015 
L 211.177417 75.224004 
L 211.259862 75.124031 
L 211.369787 75.044052 
L 211.548417 74.844105 
L 211.672083 74.744131 
L 211.988119 74.464205 
L 212.084304 74.364232 
L 212.551488 73.864364 
L 212.661414 73.76439 
L 213.059895 73.364496 
L 213.15608 73.264523 
L 213.430894 73.024586 
L 213.444635 73.044581 
L 213.513338 72.964602 
L 213.678227 72.864628 
L 213.994263 72.584702 
L 214.145411 72.484729 
L 214.3103 72.344766 
L 214.983594 71.544978 
L 215.134742 71.445004 
L 215.272149 71.305041 
L 215.684371 70.885152 
L 215.849259 70.785179 
L 216.096592 70.605226 
L 216.179036 70.525247 
L 216.330184 70.385284 
L 216.343925 70.405279 
L 216.385147 70.3253 
L 216.398888 70.3253 
L 216.701183 70.065369 
L 216.714924 70.085364 
L 216.742406 70.02538 
L 216.783628 70.005385 
L 217.030961 69.805438 
L 217.044701 69.825432 
L 217.085923 69.765448 
L 217.113405 69.765448 
L 217.319515 69.605491 
L 217.333256 69.64548 
L 217.429441 69.585496 
L 217.566848 69.505517 
L 217.717996 69.405544 
L 217.827922 69.385549 
L 218.088995 69.185602 
L 218.267625 69.085628 
L 218.528698 68.885681 
L 218.55618 68.865686 
L 218.624883 68.865686 
L 218.844734 68.725723 
L 218.927179 68.705729 
L 219.064586 68.62575 
L 219.256956 68.525776 
L 219.476807 68.385813 
L 219.518029 68.425803 
L 219.586733 68.365819 
L 219.792844 68.28584 
L 219.91651 68.205861 
L 220.136361 68.105887 
L 220.342472 67.985919 
L 220.631027 67.90594 
L 220.768434 67.785972 
L 220.795916 67.805967 
L 220.850878 67.725988 
L 220.864619 67.745983 
L 221.166915 67.646009 
L 221.400507 67.486051 
L 221.634099 67.406072 
L 221.785247 67.306099 
L 221.963876 67.22612 
L 222.22495 67.146141 
L 222.362357 67.046168 
L 222.389838 67.026173 
L 222.472282 67.026173 
L 222.637171 66.926199 
L 222.650912 66.946194 
L 222.664652 66.986184 
L 222.733356 66.906205 
L 222.747097 66.926199 
L 222.953207 66.806231 
L 223.00817 66.806231 
L 223.049392 66.766242 
L 223.653984 66.666268 
L 223.805131 66.626279 
L 224.299797 66.526305 
L 224.437204 66.50631 
L 224.821944 66.426332 
L 224.918129 66.386342 
L 224.945611 66.406337 
L 224.973092 66.426332 
L 225.000573 66.366348 
L 225.041796 66.366348 
L 225.412795 66.266374 
L 225.550202 66.20639 
L 225.563943 66.226385 
L 225.632646 66.246379 
L 225.591424 66.186395 
L 225.673868 66.20639 
L 226.09983 66.106416 
L 226.237237 66.046432 
L 226.333422 66.026437 
L 226.47083 65.986448 
L 226.580755 65.966453 
L 226.855569 65.86648 
L 227.020458 65.806496 
L 227.102902 65.786501 
L 227.047939 65.786501 
L 227.116643 65.766506 
L 227.418939 65.666533 
L 227.570086 65.606549 
L 227.666271 65.586554 
L 227.83116 65.52657 
L 228.916676 65.426596 
L 229.054083 65.406601 
L 229.136528 65.446591 
L 229.17775 65.426596 
L 230.744191 65.326623 
L 230.881598 65.306628 
L 231.046487 65.386607 
L 231.156412 65.366612 
L 231.170153 65.386607 
L 233.258741 65.466586 
L 233.368667 65.52657 
L 233.382408 65.506575 
L 233.849592 65.606549 
L 233.973258 65.626543 
L 234.083184 65.606549 
L 234.234332 65.706522 
L 234.357998 65.706522 
L 235.539699 65.806496 
L 235.704588 65.86648 
L 236.350401 65.946459 
L 236.487808 66.026437 
L 237.051178 66.126411 
L 237.202325 66.1664 
L 237.312251 66.146406 
L 237.325992 66.1664 
L 237.47714 66.20639 
L 237.958065 66.286369 
L 238.081731 66.326358 
L 242.258907 66.226385 
L 242.355092 66.20639 
L 242.382574 66.226385 
L 242.547462 66.286369 
L 242.657388 66.266374 
L 242.671129 66.306363 
L 242.767314 66.266374 
L 242.918462 66.226385 
L 243.028387 66.246379 
L 243.042128 66.226385 
L 243.179535 66.20639 
L 243.619238 66.106416 
L 243.770386 66.066427 
L 249.019338 65.966453 
L 249.170485 65.926464 
L 250.077372 65.846485 
L 250.146076 65.806496 
L 250.201039 65.82649 
L 250.214779 65.846485 
L 250.242261 65.786501 
L 250.297224 65.786501 
L 250.517075 65.646538 
L 250.530816 65.666533 
L 250.599519 65.586554 
L 252.097257 65.686527 
L 252.234664 65.706522 
L 253.485069 65.806496 
L 253.581254 65.846485 
L 253.608735 65.82649 
L 254.721733 65.806496 
L 254.721733 65.806496 
" clip-path="url(#p52e53fff52)" style="fill: none; stroke: #000000; stroke-opacity: 0.5; stroke-width: 1.5; stroke-linecap: square"/>
   </g>
   <g id="line2d_14">
    <path d="M 51.812642 49.870711 
L 51.922568 49.890706 
L 51.936308 49.870711 
L 55.357746 49.770738 
L 56.058522 47.19142 
L 56.649373 45.131965 
L 57.707407 40.033314 
L 58.298258 33.73498 
L 58.669257 28.136461 
L 59.095219 22.637916 
L 59.150182 22.597926 
L 59.177664 22.677905 
L 59.370034 23.957567 
L 59.795996 28.636329 
L 60.400587 33.714985 
L 60.895253 35.394541 
L 61.128845 35.734451 
L 61.541066 35.634478 
L 61.664732 35.514509 
L 61.760917 35.514509 
L 61.774658 35.494515 
L 61.994509 35.394541 
L 62.228102 35.234583 
L 62.475434 35.154605 
L 62.599101 35.114615 
L 62.722767 35.014642 
L 63.038804 34.734716 
L 63.148729 34.634742 
L 64.247986 33.215118 
L 64.371653 33.115144 
L 64.618985 32.895202 
L 64.632726 32.915197 
L 64.976244 32.815223 
L 65.09991 32.775234 
L 65.113651 32.795229 
L 65.512132 32.695255 
L 65.745724 32.535298 
L 65.883131 32.435324 
L 66.144204 32.235377 
L 66.350315 32.135403 
L 66.625129 31.915462 
L 66.63887 31.935456 
L 66.707574 31.855477 
L 66.913684 31.755504 
L 67.051091 31.715514 
L 67.161017 31.715514 
L 67.312165 31.675525 
L 67.40835 31.675525 
L 67.422091 31.65553 
L 67.834312 31.555557 
L 67.98546 31.515567 
L 68.878606 31.435588 
L 69.029754 31.295625 
L 69.084717 31.295625 
L 69.057235 31.275631 
L 69.125939 31.255636 
L 69.606864 31.35561 
L 69.744271 31.375604 
L 69.895419 31.335615 
L 70.664899 31.415594 
L 70.747343 31.435588 
L 70.719861 31.395599 
L 70.774824 31.395599 
L 70.802306 31.435588 
L 70.871009 31.375604 
L 70.967194 31.375604 
L 70.980935 31.395599 
L 71.420638 31.295625 
L 71.516823 31.235641 
L 71.558045 31.275631 
L 72.190118 31.375604 
L 72.42371 31.535562 
L 72.657302 31.635536 
L 72.780968 31.635536 
L 73.069523 31.69552 
L 73.19319 31.775499 
L 73.261893 31.735509 
L 73.316856 31.775499 
L 73.522967 31.915462 
L 73.605411 31.915462 
L 73.550448 31.935456 
L 73.619152 31.935456 
L 73.893966 32.155398 
L 74.278706 32.095414 
L 74.402372 31.99544 
L 75.460407 31.895467 
L 75.652777 31.675525 
L 75.831406 31.575551 
L 76.078739 31.395599 
L 76.449738 31.31562 
L 76.614627 31.175657 
L 76.738293 31.115673 
L 76.765775 31.135668 
L 77.631439 31.235641 
L 77.83755 31.35561 
L 78.002439 31.435588 
L 78.139846 31.515567 
L 78.236031 31.535562 
L 78.428401 31.635536 
L 78.593289 31.715514 
L 78.730696 31.795493 
L 79.170399 31.875472 
L 79.335288 32.015435 
L 79.431473 32.115409 
L 79.665065 32.275366 
L 79.857435 32.355345 
L 80.008583 32.475313 
L 81.011655 32.37534 
L 81.039136 32.395335 
L 81.176543 32.315356 
L 81.31395 32.33535 
L 81.547542 32.175393 
L 81.561283 32.195387 
L 81.629987 32.135403 
L 81.863579 31.975446 
L 82.440689 31.895467 
L 82.591836 31.795493 
L 82.839169 31.69552 
L 83.031539 31.595546 
L 83.04528 31.615541 
L 83.072761 31.535562 
L 83.113983 31.535562 
L 83.265131 31.495573 
L 83.292613 31.475578 
L 83.375057 31.475578 
L 83.993389 31.575551 
L 84.103315 31.595546 
L 84.117055 31.575551 
L 84.226981 31.555557 
L 84.240722 31.575551 
L 84.350648 31.595546 
L 84.488055 31.535562 
L 84.694165 31.65553 
L 85.587312 31.555557 
L 85.7522 31.495573 
L 85.930829 31.575551 
L 86.109459 31.675525 
L 86.301829 31.775499 
L 86.425495 31.755504 
L 86.535421 31.795493 
L 86.562902 31.775499 
L 86.659087 31.795493 
L 86.823976 31.855477 
L 88.033158 31.775499 
L 88.143084 31.65553 
L 88.156825 31.675525 
L 88.335454 31.595546 
L 88.472861 31.515567 
L 88.555305 31.535562 
L 88.582787 31.495573 
L 89.159897 31.415594 
L 89.297304 31.335615 
L 89.544637 31.235641 
L 89.682044 31.215647 
L 89.888154 31.335615 
L 90.149228 31.415594 
L 90.314116 31.555557 
L 90.726338 31.975446 
L 90.836264 32.075419 
L 91.097337 32.275366 
L 91.193522 32.295361 
L 91.372151 32.395335 
L 91.440855 32.395335 
L 91.427114 32.435324 
L 91.468336 32.415329 
L 91.592003 32.515303 
L 92.279038 32.435324 
L 92.402705 32.395335 
L 92.49889 32.475313 
L 92.526371 32.415329 
L 92.705 32.495308 
L 92.732482 32.475313 
L 92.801185 32.535298 
L 93.172185 32.635271 
L 93.295851 32.695255 
L 93.405777 32.675261 
L 93.419517 32.695255 
L 94.024109 32.795229 
L 94.175256 32.895202 
L 94.367626 32.995176 
L 94.381367 32.975181 
L 94.43633 33.05516 
L 94.450071 33.05516 
L 94.985958 32.955186 
L 95.356958 32.595282 
L 95.370698 32.615276 
L 95.39818 32.535298 
L 95.439402 32.555292 
L 95.631772 32.33535 
L 95.769179 32.235377 
L 96.016512 32.055424 
L 96.043993 32.03543 
L 96.140178 32.055424 
L 96.318808 31.975446 
L 96.414992 31.99544 
L 96.442474 31.975446 
L 96.648585 31.875472 
L 96.785992 31.815488 
L 96.799732 31.835483 
L 96.95088 31.755504 
L 97.088287 31.615541 
L 97.102028 31.635536 
L 97.52799 31.555557 
L 97.651657 31.535562 
L 97.747842 31.535562 
L 97.679138 31.555557 
L 97.761582 31.555557 
L 98.269989 31.635536 
L 98.407396 31.735509 
L 98.448618 31.69552 
L 98.434877 31.755504 
L 98.503581 31.775499 
L 98.668469 31.875472 
L 98.87458 31.99544 
L 99.369246 32.095414 
L 99.506653 32.155398 
L 99.520393 32.135403 
L 100.42728 32.03543 
L 100.454762 32.055424 
L 100.537206 32.055424 
L 100.688354 32.095414 
L 103.216645 32.195387 
L 103.354052 32.215382 
L 103.628866 32.315356 
L 103.821236 32.415329 
L 104.686901 32.515303 
L 104.700642 32.535298 
L 104.728123 32.475313 
L 104.755605 32.495308 
L 104.893012 32.355345 
L 106.074713 32.255372 
L 106.363268 31.99544 
L 106.377009 32.015435 
L 106.418231 31.955451 
L 106.445712 31.955451 
L 106.610601 31.895467 
L 106.720526 31.795493 
L 106.844193 31.795493 
L 107.132748 31.69552 
L 107.297636 31.635536 
L 107.586191 31.715514 
L 107.682376 31.755504 
L 107.696117 31.735509 
L 107.819783 31.735509 
L 108.369412 31.815488 
L 108.5343 31.955451 
L 108.671707 32.03543 
L 108.850337 32.215382 
L 109.028966 32.315356 
L 109.290039 32.515303 
L 109.647298 32.435324 
L 109.784705 32.33535 
L 109.88089 32.33535 
L 109.894631 32.315356 
L 110.004556 32.315356 
L 110.169445 32.37534 
L 110.870221 32.275366 
L 111.007628 32.195387 
L 111.03511 32.215382 
L 111.254961 32.115409 
L 111.474813 31.975446 
L 111.62596 31.875472 
L 111.777108 31.775499 
L 111.969478 31.675525 
L 112.244292 31.575551 
L 112.409181 31.515567 
L 113.343549 31.615541 
L 113.563401 31.755504 
L 114.484028 31.855477 
L 114.690139 31.975446 
L 115.363434 32.03543 
L 115.4871 32.095414 
L 115.610767 32.135403 
L 116.160395 32.055424 
L 116.311543 31.955451 
L 116.325284 31.975446 
L 116.352765 31.915462 
L 116.407728 31.915462 
L 116.874912 31.815488 
L 117.039801 31.755504 
L 117.493244 31.65553 
L 117.768059 31.435588 
L 117.781799 31.455583 
L 117.79554 31.395599 
L 117.850503 31.375604 
L 118.001651 31.275631 
L 118.166539 31.195652 
L 118.221502 31.215647 
L 118.262724 31.155663 
L 118.455094 31.055689 
L 118.674946 30.915726 
L 118.688686 30.935721 
L 118.702427 30.895731 
L 118.771131 30.875737 
L 120.021535 30.97571 
L 120.282609 31.175657 
L 120.406275 31.275631 
L 120.557423 31.395599 
L 120.736052 31.495573 
L 120.914682 31.595546 
L 120.997126 31.595546 
L 121.024607 31.615541 
L 121.299422 31.715514 
L 121.478051 31.895467 
L 121.752865 31.99544 
L 121.890272 32.03543 
L 122.000198 31.99544 
L 122.027679 32.015435 
L 122.481123 31.915462 
L 122.700974 31.775499 
L 123.305565 31.69552 
L 123.40175 31.65553 
L 123.429232 31.675525 
L 123.566639 31.69552 
L 125.160562 31.795493 
L 125.462857 32.055424 
L 125.490339 32.075419 
L 125.572783 32.075419 
L 125.765153 32.175393 
L 125.875079 32.155398 
L 125.888819 32.175393 
L 126.562114 32.275366 
L 126.740743 32.37534 
L 126.781966 32.355345 
L 126.836928 32.395335 
L 126.988076 32.475313 
L 127.029298 32.435324 
L 127.098002 32.495308 
L 127.152965 32.495308 
L 127.139224 32.535298 
L 127.194187 32.535298 
L 127.235409 32.555292 
L 127.276631 32.515303 
L 127.359075 32.435324 
L 127.400298 32.495308 
L 127.565186 32.415329 
L 127.64763 32.435324 
L 127.675112 32.395335 
L 127.936185 32.295361 
L 128.114815 32.195387 
L 128.238481 32.195387 
L 128.472073 32.095414 
L 128.884294 31.65553 
L 128.898035 31.675525 
L 128.939257 31.615541 
L 128.980479 31.615541 
L 129.117887 31.495573 
L 129.131627 31.515567 
L 129.18659 31.435588 
L 129.200331 31.435588 
L 129.351479 31.335615 
L 129.502626 31.295625 
L 131.30266 31.395599 
L 131.440067 31.475578 
L 131.783585 31.575551 
L 131.934732 31.615541 
L 132.044658 31.595546 
L 132.058399 31.615541 
L 132.374435 31.535562 
L 132.47062 31.475578 
L 132.498102 31.495573 
L 132.608027 31.495573 
L 132.800397 31.395599 
L 132.814138 31.435588 
L 132.896582 31.35561 
L 133.116434 31.215647 
L 134.284394 31.31562 
L 134.476764 31.435588 
L 134.517986 31.395599 
L 134.572949 31.435588 
L 134.710356 31.495573 
L 134.875245 31.555557 
L 135.136318 31.65553 
L 135.466095 31.99544 
L 135.479836 31.975446 
L 135.630984 32.055424 
L 135.768391 32.175393 
L 135.809613 32.155398 
L 135.837095 32.235377 
L 135.850835 32.235377 
L 136.111909 32.315356 
L 136.263057 32.415329 
L 136.579093 32.515303 
L 136.592834 32.555292 
L 136.689019 32.515303 
L 136.90887 32.415329 
L 137.183684 32.155398 
L 137.197425 32.175393 
L 137.650869 32.075419 
L 137.774535 32.015435 
L 137.802016 32.03543 
L 138.296682 31.935456 
L 138.475311 31.815488 
L 138.489052 31.855477 
L 138.585237 31.815488 
L 139.286013 31.895467 
L 139.40968 31.935456 
L 139.547087 31.915462 
L 139.629531 31.915462 
L 139.588309 31.875472 
L 139.643272 31.895467 
L 139.79442 31.855477 
L 139.890605 31.855477 
L 139.904345 31.835483 
L 140.399011 31.755504 
L 140.57764 31.555557 
L 140.687566 31.455583 
L 140.838714 31.295625 
L 140.852454 31.335615 
L 140.921158 31.255636 
L 140.934899 31.255636 
L 141.099787 31.115673 
L 141.718119 31.215647 
L 142.020415 31.475578 
L 142.102859 31.475578 
L 142.047896 31.495573 
L 142.130341 31.495573 
L 142.30897 31.615541 
L 142.363933 31.575551 
L 142.418896 31.615541 
L 142.762413 31.715514 
L 142.858598 31.755504 
L 142.88608 31.735509 
L 143.023487 31.715514 
L 144.081522 31.815488 
L 144.191447 31.835483 
L 144.205188 31.815488 
L 144.425039 31.715514 
L 144.589928 31.65553 
L 144.851002 31.555557 
L 145.002149 31.515567 
L 145.070853 31.515567 
L 145.098334 31.495573 
L 145.249482 31.435588 
L 145.359408 31.455583 
L 145.373149 31.435588 
L 146.073925 31.535562 
L 146.211332 31.615541 
L 146.321258 31.615541 
L 146.417443 31.635536 
L 146.431183 31.615541 
L 146.541109 31.575551 
L 146.568591 31.595546 
L 147.008293 31.495573 
L 147.13196 31.475578 
L 147.200663 31.515567 
L 147.255626 31.475578 
L 147.434255 31.395599 
L 147.585403 31.435588 
L 147.860217 31.535562 
L 147.887699 31.515567 
L 148.066328 31.65553 
L 148.203735 31.635536 
L 148.506031 31.535562 
L 148.698401 31.435588 
L 148.904512 31.335615 
L 149.055659 31.275631 
L 149.179326 31.335615 
L 149.206807 31.31562 
L 150.017509 31.415594 
L 150.278583 31.615541 
L 150.429731 31.715514 
L 150.594619 31.775499 
L 152.380912 31.875472 
L 152.559541 31.975446 
L 152.683207 31.975446 
L 152.765652 32.015435 
L 152.793133 31.975446 
L 152.93054 31.955451 
L 153.548872 31.875472 
L 153.645057 31.835483 
L 153.658798 31.855477 
L 153.796205 31.875472 
L 153.809946 31.855477 
L 153.837427 31.915462 
L 153.878649 31.915462 
L 154.263389 32.295361 
L 154.703092 32.395335 
L 154.840499 32.415329 
L 155.280202 32.315356 
L 155.403868 32.255372 
L 155.43135 32.275366 
L 156.997791 32.175393 
L 157.190161 32.075419 
L 157.217642 32.095414 
L 157.286346 32.03543 
L 157.533679 31.935456 
L 157.739789 31.775499 
L 157.75353 31.795493 
L 158.028344 31.69552 
L 158.165751 31.675525 
L 158.53675 31.595546 
L 158.674158 31.535562 
L 159.11386 31.635536 
L 159.251267 31.65553 
L 159.526082 31.755504 
L 159.745933 31.915462 
L 159.8696 31.895467 
L 160.020747 31.935456 
L 160.26808 32.03543 
L 160.446709 32.115409 
L 160.803968 32.015435 
L 160.927634 32.015435 
L 161.312374 31.935456 
L 161.463522 31.835483 
L 161.655892 31.735509 
L 161.848262 31.595546 
L 161.862003 31.615541 
L 162.040632 31.515567 
L 162.19178 31.455583 
L 162.329187 31.475578 
L 162.439113 31.435588 
L 162.452853 31.455583 
L 163.194852 31.555557 
L 163.346 31.675525 
L 163.593332 31.775499 
L 163.813184 31.915462 
L 164.101739 31.99544 
L 164.225405 32.095414 
L 164.239146 32.075419 
L 165.118551 31.975446 
L 165.242218 31.915462 
L 165.255959 31.935456 
L 165.393366 31.975446 
L 165.517032 31.975446 
L 165.654439 32.015435 
L 165.764365 31.975446 
L 165.791846 31.99544 
L 166.478882 31.895467 
L 166.767437 31.65553 
L 166.863622 31.65553 
L 166.877363 31.635536 
L 167.536917 31.535562 
L 167.729287 31.415594 
L 167.852953 31.435588 
L 167.99036 31.375604 
L 168.004101 31.395599 
L 168.223952 31.295625 
L 168.388841 31.235641 
L 169.117099 31.335615 
L 169.227024 31.375604 
L 169.254506 31.35561 
L 169.419394 31.455583 
L 169.72169 31.715514 
L 169.831616 31.795493 
L 170.023986 32.015435 
L 170.2988 32.235377 
L 170.711021 32.33535 
L 170.958354 32.515303 
L 171.095761 32.615276 
L 171.301872 32.735245 
L 171.45302 32.695255 
L 171.617908 32.755239 
L 171.741574 32.755239 
L 172.23624 32.655266 
L 172.469832 32.495308 
L 172.593499 32.395335 
L 172.730906 32.315356 
L 172.81335 32.315356 
L 172.827091 32.295361 
L 172.950757 32.275366 
L 173.280534 32.355345 
L 173.376719 32.415329 
L 173.404201 32.37534 
L 173.610311 32.275366 
L 173.96757 31.935456 
L 174.063755 31.855477 
L 174.242384 31.675525 
L 174.379791 31.575551 
L 174.572161 31.335615 
L 174.682087 31.235641 
L 174.874457 30.995705 
L 174.888197 31.0157 
L 174.94316 30.935721 
L 175.163012 30.775763 
L 175.300419 30.795758 
L 176.935564 30.895731 
L 177.155415 31.035694 
L 177.512673 31.135668 
L 177.760006 31.35561 
L 177.773747 31.335615 
L 177.952376 31.435588 
L 178.131005 31.515567 
L 178.295894 31.455583 
L 178.460783 31.555557 
L 178.474523 31.535562 
L 178.61193 31.635536 
L 178.735597 31.69552 
L 178.763078 31.675525 
L 179.010411 31.595546 
L 179.1753 31.35561 
L 179.340188 31.275631 
L 179.518817 31.35561 
L 179.793632 31.435588 
L 179.917298 31.455583 
L 180.549371 31.535562 
L 180.686778 31.65553 
L 181.318851 31.555557 
L 181.483739 31.415594 
L 181.511221 31.455583 
L 181.731072 31.555557 
L 181.840998 31.615541 
L 181.868479 31.595546 
L 181.992145 31.595546 
L 182.198256 31.755504 
L 182.321923 31.715514 
L 182.376885 31.775499 
L 182.445589 31.715514 
L 182.6517 31.635536 
L 182.734144 31.595546 
L 182.775366 31.615541 
L 182.830329 31.595546 
L 182.885292 31.635536 
L 183.105143 31.795493 
L 183.24255 31.775499 
L 184.259363 31.675525 
L 184.424251 31.615541 
L 184.561659 31.515567 
L 184.726547 31.435588 
L 184.850214 31.435588 
L 184.960139 31.335615 
L 185.097546 31.31562 
L 185.344879 31.415594 
L 185.496027 31.535562 
L 185.605953 31.615541 
L 185.757101 31.715514 
L 185.784582 31.69552 
L 185.908248 31.755504 
L 186.018174 31.755504 
L 186.169322 31.855477 
L 186.306729 31.955451 
L 186.485358 32.03543 
L 186.622765 32.135403 
L 186.815135 32.255372 
L 186.842617 32.275366 
L 186.91132 32.275366 
L 187.062468 32.355345 
L 187.076209 32.33535 
L 187.612097 32.435324 
L 187.653319 32.475313 
L 187.639578 32.415329 
L 187.722022 32.415329 
L 187.804467 32.435324 
L 187.831948 32.395335 
L 188.230429 32.295361 
L 188.395317 32.135403 
L 188.615169 32.03543 
L 188.766316 31.99544 
L 189.577018 32.095414 
L 189.714426 32.175393 
L 190.00298 32.275366 
L 190.167869 32.33535 
L 190.497646 32.435324 
L 190.58009 32.495308 
L 190.607572 32.475313 
L 190.703757 32.435324 
L 190.717497 32.475313 
L 190.882386 32.535298 
L 190.978571 32.515303 
L 190.992312 32.535298 
L 191.184682 32.435324 
L 191.322089 32.37534 
L 191.459496 32.355345 
L 191.693088 32.435324 
L 191.775532 32.475313 
L 191.803014 32.435324 
L 192.792345 32.515303 
L 193.245788 34.174864 
L 193.781676 36.034372 
L 194.716045 38.413742 
L 196.200041 40.393219 
L 196.213782 40.373224 
L 196.268745 40.473198 
L 196.516078 40.65315 
L 196.694707 40.753124 
L 196.887077 40.973065 
L 196.983262 41.053044 
L 197.161891 41.252991 
L 197.340521 41.352965 
L 197.71152 41.71287 
L 197.72526 41.692875 
L 197.780223 41.792848 
L 197.793964 41.772854 
L 197.931371 41.852833 
L 198.082519 41.952806 
L 198.137482 41.992796 
L 198.178704 41.972801 
L 198.412296 42.132759 
L 198.604666 42.232732 
L 198.797036 42.332706 
L 198.810777 42.312711 
L 198.893221 42.372695 
L 199.030628 42.492663 
L 199.044369 42.472669 
L 199.415368 42.832573 
L 199.511553 42.932547 
L 199.731404 43.092505 
L 199.786367 43.132494 
L 199.813849 43.112499 
L 199.978737 43.252462 
L 200.006219 43.232468 
L 200.198589 43.392425 
L 200.404699 43.492399 
L 200.555847 43.592372 
L 200.748217 43.692346 
L 200.968068 43.832309 
L 201.091735 43.832309 
L 201.215401 43.892293 
L 201.325327 43.912288 
L 201.462734 44.012261 
L 201.57266 43.992267 
L 201.5864 44.012261 
L 201.751289 44.112235 
L 201.943659 44.212208 
L 202.177251 44.312182 
L 202.452065 44.532124 
L 202.520769 44.512129 
L 202.561991 44.552118 
L 202.795583 44.652092 
L 202.91925 44.712076 
L 203.001694 44.732071 
L 203.015435 44.752066 
L 203.235286 44.892029 
L 203.358952 44.892029 
L 203.661248 44.992002 
L 203.812396 45.091976 
L 203.963544 45.171955 
L 203.977284 45.131965 
L 204.045988 45.211944 
L 204.059729 45.211944 
L 204.362024 45.291923 
L 204.499431 45.431886 
L 204.513172 45.411891 
L 204.66432 45.49187 
L 204.815468 45.591843 
L 204.911653 45.611838 
L 205.117763 45.731806 
L 205.310133 45.83178 
L 205.475022 45.891764 
L 205.873503 45.971743 
L 206.02465 46.071716 
L 206.134576 46.071716 
L 206.326946 46.17169 
L 206.656723 46.251669 
L 206.79413 46.331648 
L 207.068944 46.431621 
L 207.220092 46.491605 
L 207.330018 46.5116 
L 207.591092 46.611574 
L 207.742239 46.711547 
L 207.865906 46.751537 
L 207.879646 46.731542 
L 208.223164 46.831515 
L 208.388053 46.911494 
L 208.484238 46.911494 
L 208.607904 46.991473 
L 208.621645 46.971478 
L 208.786533 47.031463 
L 209.130051 47.131436 
L 209.281199 47.171426 
L 209.88579 47.271399 
L 210.023198 47.291394 
L 210.119383 47.291394 
L 210.133123 47.311389 
L 212.840043 47.391367 
L 212.96371 47.431357 
L 216.000407 47.53133 
L 216.124074 47.551325 
L 216.261481 47.53133 
L 219.229474 47.611309 
L 219.325659 47.631304 
L 219.3394 47.611309 
L 222.760837 47.711283 
L 222.898244 47.771267 
L 224.231094 47.87124 
L 224.395982 47.931225 
L 224.533389 47.91123 
L 224.670796 47.951219 
L 224.794463 47.91123 
L 224.808203 47.931225 
L 227.899864 47.831251 
L 227.996049 47.811256 
L 228.009789 47.831251 
L 228.051011 47.87124 
L 228.119715 47.811256 
L 232.104521 47.891235 
L 232.214447 47.91123 
L 232.338113 47.87124 
L 232.503002 47.931225 
L 232.571706 47.891235 
L 232.626668 47.931225 
L 233.478593 48.031198 
L 233.506074 48.011203 
L 233.588518 48.071188 
L 233.712185 48.011203 
L 233.863332 48.051193 
L 234.00074 48.031198 
L 234.028221 48.011203 
L 234.110665 48.011203 
L 236.570253 48.111177 
L 236.597734 48.091182 
L 236.721401 48.171161 
L 236.845067 48.151166 
L 238.507693 48.25114 
L 238.6451 48.271135 
L 238.755026 48.271135 
L 238.906174 48.311124 
L 240.664985 48.391103 
L 240.77491 48.411098 
L 240.926058 48.371108 
L 241.063465 48.391103 
L 244.306273 48.491076 
L 244.443681 48.531066 
L 244.581088 48.511071 
L 246.917009 48.411098 
L 247.054416 48.351113 
L 247.13686 48.391103 
L 247.178082 48.371108 
L 247.672748 48.271135 
L 247.851377 48.171161 
L 247.865118 48.21115 
L 247.961303 48.171161 
L 248.387265 48.091182 
L 248.469709 48.051193 
L 248.510931 48.071188 
L 248.662079 48.031198 
L 249.610188 47.951219 
L 249.733855 47.891235 
L 249.83004 47.91123 
L 249.84378 47.891235 
L 249.994928 47.851246 
L 250.063632 47.891235 
L 250.104854 47.87124 
L 250.242261 47.851246 
L 250.310964 47.91123 
L 250.365927 47.891235 
L 253.12781 47.991209 
L 253.265218 48.011203 
L 253.581254 48.091182 
L 253.663698 48.151166 
L 253.70492 48.131172 
L 254.405697 48.231145 
L 254.543104 48.271135 
L 254.66677 48.25114 
L 254.721733 48.271135 
L 254.721733 48.271135 
" clip-path="url(#p52e53fff52)" style="fill: none; stroke: #000000; stroke-opacity: 0.5; stroke-width: 1.5; stroke-linecap: square"/>
   </g>
   <g id="line2d_15">
    <path d="M 51.812642 37.653943 
L 52.15616 37.753917 
L 52.334789 37.833896 
L 52.513418 37.933869 
L 52.692048 38.013848 
L 52.911899 38.113822 
L 53.076788 38.213795 
L 53.090528 38.193801 
L 53.31038 38.273779 
L 53.420305 38.353758 
L 53.434046 38.313769 
L 53.681379 38.413742 
L 53.860008 38.493721 
L 53.969934 38.493721 
L 54.162304 38.593695 
L 54.28597 38.5737 
L 54.464599 38.653679 
L 55.344005 38.713663 
L 55.962337 27.616599 
L 56.745558 15.799725 
L 56.965409 14.76 
L 57.020372 14.799989 
L 57.089075 14.899963 
L 57.37763 16.639503 
L 58.449406 23.637651 
L 58.696739 24.077535 
L 58.710479 24.05754 
L 58.999034 23.957567 
L 59.356293 23.277747 
L 59.562403 22.677905 
L 59.631107 22.597926 
L 60.084551 21.618186 
L 60.304402 21.118318 
L 60.565475 20.678434 
L 60.66166 20.578461 
L 60.757845 20.578461 
L 60.771586 20.598455 
L 60.991438 20.698429 
L 61.760917 21.698165 
L 61.788399 21.67817 
L 61.884584 21.658175 
L 61.912065 21.67817 
L 62.090694 21.778143 
L 62.338027 21.97809 
L 62.365509 21.958096 
L 62.434212 22.01808 
L 62.860174 21.938101 
L 63.011322 21.798138 
L 63.025063 21.818133 
L 63.080026 21.738154 
L 63.093766 21.738154 
L 63.341099 21.358254 
L 63.602173 21.278276 
L 63.643395 21.238286 
L 63.698358 21.29827 
L 63.73958 21.33826 
L 63.780802 21.238286 
L 63.918209 21.158307 
L 63.93195 21.178302 
L 64.096838 21.278276 
L 64.110579 21.258281 
L 64.247986 21.198297 
L 64.357912 21.218291 
L 64.660208 21.318265 
L 64.811355 21.418239 
L 64.852578 21.378249 
L 64.948763 21.458228 
L 64.962503 21.418239 
L 65.031207 21.518212 
L 65.251058 21.718159 
L 65.27854 21.698165 
L 65.429687 21.63818 
L 65.512132 21.658175 
L 65.539613 21.618186 
L 65.924353 21.518212 
L 66.089242 21.378249 
L 66.116723 21.398244 
L 66.322834 21.518212 
L 66.432759 21.518212 
L 66.570167 21.598191 
L 66.803759 21.698165 
L 67.078573 21.918106 
L 67.174758 22.01808 
L 67.353387 22.337995 
L 67.490794 22.437969 
L 67.586979 22.517948 
L 67.628201 22.477958 
L 67.765608 22.457964 
L 67.875534 22.35799 
L 68.287755 21.918106 
L 68.301496 21.938101 
L 68.356459 21.838127 
L 68.837384 21.318265 
L 68.878606 21.278276 
L 68.96105 21.318265 
L 68.974791 21.29827 
L 69.016013 21.358254 
L 69.043495 21.358254 
L 69.098457 21.378249 
L 69.13968 21.318265 
L 69.222124 21.218291 
L 69.387012 21.058334 
L 69.991604 21.158307 
L 70.183974 21.29827 
L 70.266418 21.258281 
L 70.293899 21.278276 
L 71.049639 22.557937 
L 71.214527 22.837863 
L 71.242009 22.797874 
L 71.448119 22.877852 
L 71.585526 22.957831 
L 71.956526 22.577932 
L 71.970266 22.617921 
L 72.025229 22.477958 
L 72.03897 22.477958 
L 72.135155 22.397979 
L 72.602339 21.378249 
L 73.124486 20.758413 
L 73.138227 20.778408 
L 73.303115 20.878381 
L 73.715337 21.29827 
L 74.031373 21.378249 
L 74.182521 21.478223 
L 74.402372 21.578196 
L 74.567261 21.63818 
L 74.993223 21.718159 
L 75.144371 21.838127 
L 75.419185 21.938101 
L 75.570333 22.01808 
L 75.584073 21.97809 
L 75.666518 22.058069 
L 75.680258 22.038075 
L 75.817666 22.178038 
L 75.982554 22.258016 
L 76.312331 21.958096 
L 76.422257 21.858122 
L 76.600886 21.658175 
L 76.752034 21.558202 
L 77.06807 20.978355 
L 77.109292 20.918371 
L 77.301662 20.538471 
L 77.755106 19.978619 
L 77.768847 20.018609 
L 77.878772 19.998614 
L 78.016179 20.078593 
L 78.181068 20.218556 
L 78.552067 20.938366 
L 78.854363 21.778143 
L 78.895585 21.838127 
L 79.074214 22.138048 
L 79.225362 22.238022 
L 79.527658 22.138048 
L 79.651324 22.078064 
L 79.678806 22.098059 
L 79.720028 22.01808 
L 79.747509 22.038075 
L 79.95362 21.918106 
L 80.14599 22.01808 
L 80.310878 22.098059 
L 80.503248 22.457964 
L 80.887988 22.917842 
L 80.91547 22.897847 
L 81.039136 22.897847 
L 81.327691 23.137784 
L 81.533802 23.057805 
L 81.739912 22.617921 
L 81.89106 22.238022 
L 82.165874 21.518212 
L 82.358244 21.278276 
L 82.440689 21.29827 
L 82.46817 21.258281 
L 83.223909 20.158572 
L 83.292613 20.238551 
L 83.361316 20.338524 
L 83.526205 20.578461 
L 83.594908 20.678434 
L 83.869723 21.158307 
L 83.910945 21.258281 
L 84.721647 23.297741 
L 85.436164 23.197768 
L 86.109459 22.038075 
L 86.411754 21.178302 
L 86.823976 20.758413 
L 86.975123 20.65844 
L 87.085049 20.61845 
L 87.09879 20.638445 
L 87.277419 20.718424 
L 87.428567 20.638445 
L 87.497271 20.678434 
L 87.552233 20.65844 
L 87.648418 20.698429 
L 87.6759 20.678434 
L 87.854529 20.558466 
L 87.86827 20.578461 
L 88.280491 20.99835 
L 88.431639 21.098323 
L 88.541565 21.138313 
L 88.555305 21.118318 
L 88.665231 21.038339 
L 88.582787 21.138313 
L 88.706453 21.078328 
L 88.788897 21.178302 
L 89.475933 21.998085 
L 89.640822 22.098059 
L 89.819451 22.178038 
L 90.011821 22.278011 
L 90.176709 22.437969 
L 90.369079 22.337995 
L 90.520227 22.457964 
L 90.95993 22.517948 
L 91.097337 22.677905 
L 91.248485 22.577932 
L 91.660706 22.158043 
L 91.72941 22.058069 
L 91.92178 21.938101 
L 91.93552 21.958096 
L 92.017965 21.898112 
L 92.182853 21.718159 
L 92.196594 21.738154 
L 92.237816 21.63818 
L 92.567593 20.99835 
L 92.759963 20.61845 
L 92.814926 20.538471 
L 93.062259 20.138577 
L 93.144703 20.038604 
L 93.392036 19.838656 
L 93.529443 19.898641 
L 93.763035 19.998614 
L 94.326404 20.99835 
L 94.793589 22.01808 
L 94.807329 21.998085 
L 94.876033 22.078064 
L 94.889773 22.058069 
L 95.040921 22.138048 
L 95.164588 22.318001 
L 95.20581 22.278011 
L 95.343217 22.35799 
L 95.425661 22.417974 
L 95.466883 22.377985 
L 95.521846 22.397979 
L 95.576809 22.35799 
L 95.97529 22.278011 
L 96.16766 22.058069 
L 96.428733 21.518212 
L 96.593622 21.278276 
L 96.607362 21.29827 
L 96.648585 21.198297 
L 97.280657 20.458492 
L 97.376842 20.458492 
L 97.390583 20.418503 
L 97.473027 20.518477 
L 98.132581 20.61845 
L 99.06695 21.898112 
L 99.094431 21.838127 
L 99.204357 21.918106 
L 99.437949 22.457964 
L 99.863911 22.937837 
L 99.960096 22.917842 
L 99.973837 22.937837 
L 100.22117 23.117789 
L 100.550947 23.017815 
L 100.908205 22.677905 
L 101.045612 22.577932 
L 101.128057 22.537942 
L 101.169279 22.577932 
L 101.375389 22.477958 
L 101.512797 22.417974 
L 101.650204 22.258016 
L 101.691426 22.337995 
L 102.076166 22.717895 
L 102.639535 22.637916 
L 102.708238 22.577932 
L 102.763201 22.597926 
L 102.886868 22.517948 
L 103.12046 22.178038 
L 103.491459 21.818133 
L 103.71131 21.758149 
L 103.848718 21.618186 
L 104.041088 21.518212 
L 104.219717 21.418239 
L 104.357124 21.378249 
L 104.48079 21.398244 
L 104.65942 21.318265 
L 104.893012 21.238286 
L 105.044159 21.118318 
L 105.291492 21.29827 
L 105.978528 21.198297 
L 106.102194 21.138313 
L 106.129676 21.158307 
L 106.21212 21.258281 
L 107.228933 22.597926 
L 107.393821 22.457964 
L 107.861005 21.958096 
L 108.204523 21.878117 
L 108.34193 21.818133 
L 108.5343 21.97809 
L 108.369412 21.798138 
L 108.561782 21.958096 
L 108.754152 21.838127 
L 108.91904 21.938101 
L 108.932781 21.918106 
L 109.125151 22.01808 
L 109.276299 22.118053 
L 109.564854 22.457964 
L 109.606076 22.417974 
L 109.908371 22.318001 
L 110.059519 22.218027 
L 110.169445 22.118053 
L 110.334334 21.97809 
L 110.732814 21.558202 
L 110.787777 21.578196 
L 110.828999 21.538207 
L 111.03511 21.278276 
L 111.172517 21.378249 
L 111.268702 21.438233 
L 111.309924 21.398244 
L 111.378628 21.29827 
L 111.516035 21.218291 
L 111.543516 21.238286 
L 111.722145 21.33826 
L 111.735886 21.318265 
L 111.749627 21.378249 
L 111.81833 21.378249 
L 112.106885 21.458228 
L 112.271774 21.618186 
L 112.299255 21.598191 
L 112.326737 21.658175 
L 112.367959 21.658175 
L 112.519107 21.758149 
L 112.711477 21.918106 
L 112.738958 21.898112 
L 112.931328 21.998085 
L 113.068735 22.098059 
L 113.096217 22.058069 
L 113.274846 21.958096 
L 113.494697 21.63818 
L 113.590882 21.538207 
L 113.714549 21.498217 
L 113.728289 21.518212 
L 113.879437 21.418239 
L 114.167992 20.918371 
L 114.360362 20.798403 
L 114.456547 20.858387 
L 114.484028 20.838392 
L 114.635176 20.798403 
L 114.800065 20.858387 
L 114.827546 20.838392 
L 114.89625 20.898376 
L 115.074879 20.99835 
L 115.239768 21.158307 
L 115.555804 21.238286 
L 115.748174 21.478223 
L 115.803137 21.458228 
L 115.830618 21.518212 
L 115.940544 21.618186 
L 115.995507 21.578196 
L 116.311543 21.658175 
L 116.44895 21.758149 
L 116.572617 21.758149 
L 116.83369 21.998085 
L 116.847431 21.97809 
L 117.190949 22.078064 
L 117.342097 22.178038 
L 117.644392 22.078064 
L 118.111576 21.578196 
L 118.166539 21.478223 
L 118.661205 20.898376 
L 118.674946 20.918371 
L 118.812353 20.818397 
L 118.908538 20.818397 
L 118.922278 20.838392 
L 119.004723 20.838392 
L 118.94976 20.818397 
L 119.032204 20.818397 
L 119.169611 20.798403 
L 119.471907 20.898376 
L 119.623055 21.098323 
L 120.062757 21.558202 
L 120.365053 21.658175 
L 120.516201 21.898112 
L 120.653608 21.858122 
L 120.791015 21.998085 
L 120.997126 22.098059 
L 121.216977 22.238022 
L 121.354384 22.198032 
L 121.629199 22.477958 
L 121.381866 22.178038 
L 121.642939 22.437969 
L 121.904013 22.35799 
L 122.137605 21.97809 
L 122.151346 21.998085 
L 122.192568 21.918106 
L 122.23379 21.938101 
L 122.357456 21.938101 
L 122.494863 22.038075 
L 122.700974 22.178038 
L 122.838381 22.158043 
L 122.989529 22.238022 
L 123.00327 22.218027 
L 123.621602 22.318001 
L 123.800231 22.417974 
L 123.937638 22.397979 
L 124.075045 22.318001 
L 124.239934 22.178038 
L 124.665896 22.078064 
L 125.105599 21.618186 
L 125.32545 21.538207 
L 125.490339 21.398244 
L 125.847597 21.478223 
L 125.916301 21.538207 
L 125.957523 21.498217 
L 125.985004 21.458228 
L 126.039967 21.538207 
L 126.232337 21.778143 
L 126.369744 21.878117 
L 126.905632 22.477958 
L 127.015558 22.437969 
L 127.043039 22.457964 
L 127.276631 22.35799 
L 127.537705 22.158043 
L 127.551445 22.178038 
L 127.592668 22.098059 
L 127.620149 22.098059 
L 128.142296 21.498217 
L 128.22474 21.518212 
L 128.252222 21.498217 
L 128.375888 21.378249 
L 128.472073 21.378249 
L 128.485814 21.358254 
L 128.678184 21.258281 
L 129.282775 21.358254 
L 129.461404 21.438233 
L 129.7637 21.538207 
L 129.942329 21.658175 
L 129.95607 21.618186 
L 130.052255 21.658175 
L 130.189662 21.818133 
L 130.244625 21.778143 
L 130.258366 21.758149 
L 130.272106 21.798138 
L 130.327069 21.818133 
L 130.382032 21.838127 
L 130.423254 21.798138 
L 130.615624 21.67817 
L 130.780513 21.838127 
L 130.91792 21.938101 
L 131.137771 22.078064 
L 131.233956 22.098059 
L 131.357623 22.218027 
L 131.385104 22.198032 
L 131.563733 22.318001 
L 131.577474 22.278011 
L 131.673659 22.318001 
L 131.811066 22.337995 
L 131.866029 22.258016 
L 132.099621 21.878117 
L 132.113362 21.898112 
L 132.168325 21.798138 
L 132.401917 21.63818 
L 132.415657 21.67817 
L 132.511842 21.618186 
L 132.745434 21.458228 
L 132.85536 21.358254 
L 133.212619 20.99835 
L 133.267581 21.018344 
L 133.308804 20.95836 
L 133.721025 20.498482 
L 133.734766 20.518477 
L 134.298135 20.61845 
L 134.669134 20.978355 
L 134.682875 20.95836 
L 134.737838 21.058334 
L 134.861504 21.158307 
L 135.012652 21.198297 
L 135.136318 21.178302 
L 135.411133 21.418239 
L 135.424873 21.378249 
L 135.507318 21.458228 
L 135.617243 21.558202 
L 136.482908 22.637916 
L 137.018796 22.557937 
L 137.169944 22.417974 
L 137.238647 22.417974 
L 137.211166 22.377985 
L 137.266129 22.377985 
L 137.431017 22.238022 
L 137.623387 22.138048 
L 137.67835 22.138048 
L 137.719572 22.098059 
L 137.843239 22.078064 
L 137.939424 22.098059 
L 137.966905 22.078064 
L 138.131793 21.97809 
L 139.176088 20.638445 
L 140.330307 20.738418 
L 140.550159 21.238286 
L 140.866195 21.838127 
L 141.127269 21.738154 
L 141.209713 21.67817 
L 141.237194 21.738154 
L 141.457046 21.818133 
L 141.676897 22.118053 
L 141.869267 22.218027 
L 142.212785 22.118053 
L 142.721191 21.498217 
L 142.748673 21.518212 
L 143.86167 21.618186 
L 143.944115 21.63818 
L 143.957855 21.598191 
L 144.150225 21.438233 
L 144.177707 21.458228 
L 144.466262 21.358254 
L 144.589928 21.33826 
L 144.658632 21.33826 
L 144.686113 21.358254 
L 144.851002 21.418239 
L 145.029631 21.29827 
L 145.139556 21.33826 
L 145.276964 21.438233 
L 145.730407 21.918106 
L 145.867814 22.01808 
L 145.881555 22.058069 
L 145.97774 22.01808 
L 146.101406 21.998085 
L 146.128888 22.01808 
L 146.197591 21.958096 
L 146.293776 21.858122 
L 146.513628 21.558202 
L 147.035775 20.898376 
L 147.063256 20.938366 
L 147.351811 21.038339 
L 147.599144 21.218291 
L 147.805255 21.138313 
L 147.90144 21.058334 
L 147.928921 21.098323 
L 148.162513 21.198297 
L 148.217476 21.198297 
L 148.258698 21.158307 
L 148.547253 21.058334 
L 148.657179 20.99835 
L 148.670919 21.038339 
L 148.753364 21.098323 
L 148.808327 21.058334 
L 148.904512 20.95836 
L 149.385436 20.438498 
L 149.797658 20.538471 
L 150.374768 21.218291 
L 150.512175 21.158307 
L 150.525915 21.178302 
L 150.635841 21.278276 
L 150.924396 21.518212 
L 151.103025 21.598191 
L 151.858765 23.477694 
L 151.982431 23.577667 
L 152.119838 23.597662 
L 152.339689 23.517683 
L 152.435874 23.477694 
L 152.367171 23.537678 
L 152.463356 23.497688 
L 153.342761 22.038075 
L 153.645057 21.498217 
L 153.713761 21.418239 
L 153.988575 20.918371 
L 154.002316 20.938366 
L 154.029797 20.858387 
L 154.057278 20.858387 
L 154.180945 20.738418 
L 154.235908 20.778408 
L 154.387056 20.818397 
L 154.66187 20.918371 
L 154.840499 21.058334 
L 154.86798 21.038339 
L 154.950425 21.118318 
L 155.156535 21.538207 
L 155.596238 22.477958 
L 156.200829 23.197768 
L 156.379459 23.0778 
L 156.393199 23.097794 
L 156.530607 23.157778 
L 156.544347 23.137784 
L 156.819161 22.917842 
L 157.107716 22.817868 
L 157.355049 22.637916 
L 157.849715 22.537942 
L 158.055826 22.377985 
L 158.069566 22.397979 
L 158.495528 22.337995 
L 158.632935 22.178038 
L 158.646676 22.198032 
L 158.71538 22.118053 
L 158.72912 22.138048 
L 158.935231 21.97809 
L 159.058898 21.998085 
L 159.48486 21.898112 
L 159.732192 21.67817 
L 159.745933 21.698165 
L 160.364265 21.798138 
L 160.529154 21.998085 
L 160.542894 21.97809 
L 160.639079 21.998085 
L 160.776486 21.858122 
L 160.913894 21.758149 
L 161.065041 21.698165 
L 161.092523 21.658175 
L 161.147486 21.67817 
L 161.271152 21.63818 
L 161.367337 21.658175 
L 161.394819 21.63818 
L 161.916966 21.578196 
L 162.068113 21.398244 
L 162.150558 21.418239 
L 162.178039 21.378249 
L 162.329187 21.278276 
L 162.672705 20.95836 
L 162.713927 20.938366 
L 162.796371 20.978355 
L 162.878815 21.038339 
L 163.071185 21.398244 
L 163.607073 22.01808 
L 163.74448 21.97809 
L 163.868147 22.038075 
L 163.881887 21.998085 
L 164.32159 21.938101 
L 164.458997 21.818133 
L 164.623886 21.738154 
L 164.843737 21.438233 
L 165.352144 20.878381 
L 165.709402 20.978355 
L 165.833068 21.058334 
L 165.86055 21.018344 
L 166.039179 20.878381 
L 166.066661 20.898376 
L 166.176586 20.938366 
L 166.190327 20.898376 
L 166.423919 20.978355 
L 166.575067 21.098323 
L 166.83614 21.178302 
L 166.849881 21.238286 
L 166.946066 21.198297 
L 167.688065 22.098059 
L 167.701805 22.078064 
L 167.756768 22.158043 
L 167.770509 22.158043 
L 168.045323 22.617921 
L 168.223952 22.717895 
L 168.498767 22.937837 
L 168.649914 22.897847 
L 168.801062 22.817868 
L 168.993432 22.597926 
L 169.680468 21.778143 
L 169.817875 21.67817 
L 169.982763 21.618186 
L 170.10643 21.658175 
L 170.271318 21.578196 
L 170.436207 21.398244 
L 170.449948 21.418239 
L 170.49117 21.358254 
L 170.518651 21.358254 
L 170.820947 21.078328 
L 170.972095 21.118318 
L 171.439279 21.218291 
L 171.672871 21.558202 
L 171.975167 21.818133 
L 172.744646 21.898112 
L 172.895794 21.998085 
L 173.088164 22.098059 
L 173.294275 22.218027 
L 173.417941 22.178038 
L 173.431682 22.198032 
L 173.871385 22.118053 
L 173.995051 22.098059 
L 174.15994 21.998085 
L 174.462235 21.738154 
L 174.517198 21.658175 
L 174.764531 21.258281 
L 175.039345 21.358254 
L 175.31416 21.598191 
L 175.410345 21.598191 
L 175.424085 21.618186 
L 175.643937 21.758149 
L 175.863788 21.858122 
L 176.028677 22.058069 
L 176.042417 22.01808 
L 176.124862 22.118053 
L 176.207306 22.098059 
L 176.234787 22.138048 
L 176.399676 22.218027 
L 176.605786 22.098059 
L 176.798156 21.998085 
L 176.908082 22.01808 
L 177.114193 21.918106 
L 177.320303 21.798138 
L 177.485192 21.898112 
L 177.663821 21.97809 
L 177.869932 22.078064 
L 177.966117 22.078064 
L 177.979858 22.058069 
L 178.117265 21.97809 
L 178.21345 21.898112 
L 178.254672 21.918106 
L 178.282153 21.938101 
L 178.543227 21.67817 
L 178.653153 21.578196 
L 178.859263 21.158307 
L 179.1753 20.878381 
L 179.477595 20.95836 
L 179.821113 21.63818 
L 179.876076 21.718159 
L 180.123409 22.118053 
L 180.618074 22.01808 
L 180.865407 21.838127 
L 181.854738 21.738154 
L 182.102071 21.318265 
L 182.184515 21.358254 
L 182.211997 21.33826 
L 182.26696 21.278276 
L 182.308182 21.318265 
L 182.45933 21.518212 
L 182.582996 21.618186 
L 182.775366 21.998085 
L 183.03644 22.098059 
L 183.160106 22.098059 
L 183.338735 21.998085 
L 183.43492 21.97809 
L 183.462402 21.998085 
L 183.503624 21.958096 
L 183.599809 22.01808 
L 183.641031 22.058069 
L 183.709734 22.038075 
L 183.81966 22.058069 
L 183.833401 22.038075 
L 184.58914 21.938101 
L 184.78151 21.818133 
L 184.891436 21.818133 
L 184.960139 21.798138 
L 184.918917 21.838127 
L 184.987621 21.858122 
L 186.828876 21.958096 
L 186.842617 21.998085 
L 186.870098 21.918106 
L 186.925061 21.938101 
L 187.021246 21.858122 
L 187.048727 21.898112 
L 187.241097 21.798138 
L 187.419727 21.618186 
L 187.570874 21.518212 
L 187.983096 21.098323 
L 188.395317 21.198297 
L 189.041131 21.998085 
L 189.054871 21.97809 
L 189.192278 22.058069 
L 189.343426 22.218027 
L 189.357167 22.198032 
L 189.645722 21.958096 
L 189.783129 21.858122 
L 189.948018 21.718159 
L 190.016721 21.67817 
L 190.057943 21.738154 
L 190.635053 22.417974 
L 190.882386 22.238022 
L 190.978571 22.138048 
L 191.225904 21.938101 
L 191.239645 21.958096 
L 191.267126 21.898112 
L 191.322089 21.898112 
L 191.651866 21.558202 
L 191.706829 21.538207 
L 191.775532 21.578196 
L 191.940421 21.67817 
L 192.064087 21.598191 
L 192.077828 21.618186 
L 192.641197 21.518212 
L 192.751123 21.418239 
L 193.369455 31.055689 
L 194.001528 36.374282 
L 194.702304 38.973594 
L 194.977118 39.553441 
L 195.334377 40.253256 
L 196.859596 42.292716 
L 197.189373 42.372695 
L 197.340521 42.492663 
L 197.368002 42.472669 
L 197.395483 42.532653 
L 197.436706 42.532653 
L 197.560372 42.672616 
L 197.587853 42.652621 
L 197.945112 42.752595 
L 198.082519 42.772589 
L 198.192445 42.792584 
L 198.371074 42.912552 
L 198.467259 42.892558 
L 198.481 42.912552 
L 198.604666 42.952542 
L 198.618407 42.932547 
L 199.181776 43.03252 
L 199.332924 43.092505 
L 199.415368 43.03252 
L 199.45659 43.092505 
L 199.855071 43.192478 
L 199.978737 43.252462 
L 200.006219 43.232468 
L 200.528366 43.312446 
L 200.665773 43.372431 
L 200.830661 43.312446 
L 201.476475 43.41242 
L 201.5864 43.392425 
L 202.452065 43.492399 
L 202.603213 43.532388 
L 202.616954 43.512394 
L 202.699398 43.572378 
L 207.233833 43.672351 
L 207.398722 43.732335 
L 211.163677 43.832309 
L 211.287343 43.892293 
L 211.42475 43.872298 
L 213.15608 43.972272 
L 213.183561 43.952277 
L 213.307228 44.012261 
L 217.333256 44.09224 
L 217.456923 44.112235 
L 218.020292 44.212208 
L 218.130217 44.232203 
L 218.143958 44.212208 
L 218.734809 44.112235 
L 218.76229 44.13223 
L 218.844734 44.112235 
L 218.968401 44.13223 
L 219.092067 44.072245 
L 219.119549 44.09224 
L 219.504289 43.992267 
L 219.627955 43.952277 
L 219.641696 43.972272 
L 220.905841 43.872298 
L 221.002026 43.812314 
L 221.043248 43.852304 
L 221.345544 43.75233 
L 221.482951 43.672351 
L 221.496692 43.712341 
L 222.870763 43.812314 
L 223.00817 43.832309 
L 224.341019 43.912288 
L 224.464686 43.952277 
L 224.602093 43.912288 
L 224.753241 43.952277 
L 225.632646 44.052251 
L 225.728831 44.072245 
L 225.756313 44.052251 
L 226.388385 44.152224 
L 226.402126 44.192214 
L 226.498311 44.152224 
L 228.229641 44.052251 
L 228.353307 44.012261 
L 228.971639 44.112235 
L 229.095305 44.112235 
L 229.232713 44.09224 
L 229.342638 44.072245 
L 229.809822 44.012261 
L 229.933489 43.952277 
L 230.057155 43.972272 
L 230.194562 43.912288 
L 230.222044 43.952277 
L 230.318229 43.912288 
L 230.675487 43.812314 
L 230.799154 43.792319 
L 230.92282 43.852304 
L 230.936561 43.812314 
L 232.901483 43.75233 
L 233.011408 43.672351 
L 233.025149 43.692346 
L 235.045034 43.592372 
L 235.209922 43.512394 
L 235.319848 43.492399 
L 236.652697 43.41242 
L 236.790104 43.332441 
L 237.66951 43.232468 
L 237.793176 43.232468 
L 237.930583 43.272457 
L 238.05425 43.272457 
L 238.700063 43.352436 
L 238.796248 43.372431 
L 238.809989 43.352436 
L 244.842161 43.272457 
L 244.965828 43.252462 
L 246.642194 43.152489 
L 246.765861 43.112499 
L 246.779602 43.132494 
L 247.810155 43.232468 
L 247.947562 43.292452 
L 249.170485 43.372431 
L 249.197967 43.352436 
L 249.280411 43.392425 
L 249.376596 43.372431 
L 249.404077 43.392425 
L 252.866737 43.492399 
L 252.949181 43.492399 
L 252.976663 43.472404 
L 253.773624 43.572378 
L 253.911031 43.592372 
L 254.034697 43.572378 
L 254.144623 43.612367 
L 254.172104 43.592372 
L 254.721733 43.632362 
L 254.721733 43.632362 
" clip-path="url(#p52e53fff52)" style="fill: none; stroke: #000000; stroke-opacity: 0.5; stroke-width: 1.5; stroke-linecap: square"/>
   </g>
   <g id="patch_3">
    <path d="M 41.667188 173.52 
L 41.667188 7.2 
" style="fill: none; stroke: #000000; stroke-width: 0.8; stroke-linejoin: miter; stroke-linecap: square"/>
   </g>
   <g id="patch_4">
    <path d="M 41.667188 173.52 
L 264.867188 173.52 
" style="fill: none; stroke: #000000; stroke-width: 0.8; stroke-linejoin: miter; stroke-linecap: square"/>
   </g>
  </g>
 </g>
 <defs>
  <clipPath id="p52e53fff52">
   <rect x="41.667188" y="7.2" width="223.2" height="166.32"/>
  </clipPath>
 </defs>
</svg>
