<?xml version="1.0" encoding="utf-8" standalone="no"?>
<!DOCTYPE svg PUBLIC "-//W3C//DTD SVG 1.1//EN"
  "http://www.w3.org/Graphics/SVG/1.1/DTD/svg11.dtd">
<svg height="345.6pt" version="1.1" viewBox="0 0 460.8 345.6" width="460.8pt" xmlns="http://www.w3.org/2000/svg" xmlns:xlink="http://www.w3.org/1999/xlink">
 <metadata>
  <rdf:RDF xmlns:cc="http://creativecommons.org/ns#" xmlns:dc="http://purl.org/dc/elements/1.1/" xmlns:rdf="http://www.w3.org/1999/02/22-rdf-syntax-ns#">
   <cc:Work>
    <dc:type rdf:resource="http://purl.org/dc/dcmitype/StillImage"/>
    <dc:date>2024-08-06T14:44:38.020082</dc:date>
    <dc:format>image/svg+xml</dc:format>
    <dc:creator>
     <cc:Agent>
      <dc:title>Matplotlib v3.4.2, https://matplotlib.org/</dc:title>
     </cc:Agent>
    </dc:creator>
   </cc:Work>
  </rdf:RDF>
 </metadata>
 <defs>
  <style type="text/css">*{stroke-linecap:butt;stroke-linejoin:round;}</style>
 </defs>
 <g id="figure_1">
  <g id="patch_1">
   <path d="M 0 345.6 
L 460.8 345.6 
L 460.8 0 
L 0 0 
z
" style="fill:#ffffff;"/>
  </g>
  <g id="axes_1">
   <g id="patch_2">
    <path d="M 57.6 307.584 
L 414.72 307.584 
L 414.72 41.472 
L 57.6 41.472 
z
" style="fill:#ffffff;"/>
   </g>
   <g id="matplotlib.axis_1">
    <g id="xtick_1">
     <g id="line2d_1">
      <defs>
       <path d="M 0 0 
L 0 3.5 
" id="ma71e77d295" style="stroke:#000000;stroke-width:0.8;"/>
      </defs>
      <g>
       <use style="stroke:#000000;stroke-width:0.8;" x="95.211629" xlink:href="#ma71e77d295" y="307.584"/>
      </g>
     </g>
     <g id="text_1">
      <!-- 0.2 -->
      <g transform="translate(87.260067 322.182437)scale(0.1 -0.1)">
       <defs>
        <path d="M 2034 4250 
Q 1547 4250 1301 3770 
Q 1056 3291 1056 2328 
Q 1056 1369 1301 889 
Q 1547 409 2034 409 
Q 2525 409 2770 889 
Q 3016 1369 3016 2328 
Q 3016 3291 2770 3770 
Q 2525 4250 2034 4250 
z
M 2034 4750 
Q 2819 4750 3233 4129 
Q 3647 3509 3647 2328 
Q 3647 1150 3233 529 
Q 2819 -91 2034 -91 
Q 1250 -91 836 529 
Q 422 1150 422 2328 
Q 422 3509 836 4129 
Q 1250 4750 2034 4750 
z
" id="DejaVuSans-30" transform="scale(0.015625)"/>
        <path d="M 684 794 
L 1344 794 
L 1344 0 
L 684 0 
L 684 794 
z
" id="DejaVuSans-2e" transform="scale(0.015625)"/>
        <path d="M 1228 531 
L 3431 531 
L 3431 0 
L 469 0 
L 469 531 
Q 828 903 1448 1529 
Q 2069 2156 2228 2338 
Q 2531 2678 2651 2914 
Q 2772 3150 2772 3378 
Q 2772 3750 2511 3984 
Q 2250 4219 1831 4219 
Q 1534 4219 1204 4116 
Q 875 4013 500 3803 
L 500 4441 
Q 881 4594 1212 4672 
Q 1544 4750 1819 4750 
Q 2544 4750 2975 4387 
Q 3406 4025 3406 3419 
Q 3406 3131 3298 2873 
Q 3191 2616 2906 2266 
Q 2828 2175 2409 1742 
Q 1991 1309 1228 531 
z
" id="DejaVuSans-32" transform="scale(0.015625)"/>
       </defs>
       <use xlink:href="#DejaVuSans-30"/>
       <use x="63.623047" xlink:href="#DejaVuSans-2e"/>
       <use x="95.410156" xlink:href="#DejaVuSans-32"/>
      </g>
     </g>
    </g>
    <g id="xtick_2">
     <g id="line2d_2">
      <g>
       <use style="stroke:#000000;stroke-width:0.8;" x="139.20545" xlink:href="#ma71e77d295" y="307.584"/>
      </g>
     </g>
     <g id="text_2">
      <!-- 0.4 -->
      <g transform="translate(131.253887 322.182437)scale(0.1 -0.1)">
       <defs>
        <path d="M 2419 4116 
L 825 1625 
L 2419 1625 
L 2419 4116 
z
M 2253 4666 
L 3047 4666 
L 3047 1625 
L 3713 1625 
L 3713 1100 
L 3047 1100 
L 3047 0 
L 2419 0 
L 2419 1100 
L 313 1100 
L 313 1709 
L 2253 4666 
z
" id="DejaVuSans-34" transform="scale(0.015625)"/>
       </defs>
       <use xlink:href="#DejaVuSans-30"/>
       <use x="63.623047" xlink:href="#DejaVuSans-2e"/>
       <use x="95.410156" xlink:href="#DejaVuSans-34"/>
      </g>
     </g>
    </g>
    <g id="xtick_3">
     <g id="line2d_3">
      <g>
       <use style="stroke:#000000;stroke-width:0.8;" x="183.19927" xlink:href="#ma71e77d295" y="307.584"/>
      </g>
     </g>
     <g id="text_3">
      <!-- 0.6 -->
      <g transform="translate(175.247707 322.182437)scale(0.1 -0.1)">
       <defs>
        <path d="M 2113 2584 
Q 1688 2584 1439 2293 
Q 1191 2003 1191 1497 
Q 1191 994 1439 701 
Q 1688 409 2113 409 
Q 2538 409 2786 701 
Q 3034 994 3034 1497 
Q 3034 2003 2786 2293 
Q 2538 2584 2113 2584 
z
M 3366 4563 
L 3366 3988 
Q 3128 4100 2886 4159 
Q 2644 4219 2406 4219 
Q 1781 4219 1451 3797 
Q 1122 3375 1075 2522 
Q 1259 2794 1537 2939 
Q 1816 3084 2150 3084 
Q 2853 3084 3261 2657 
Q 3669 2231 3669 1497 
Q 3669 778 3244 343 
Q 2819 -91 2113 -91 
Q 1303 -91 875 529 
Q 447 1150 447 2328 
Q 447 3434 972 4092 
Q 1497 4750 2381 4750 
Q 2619 4750 2861 4703 
Q 3103 4656 3366 4563 
z
" id="DejaVuSans-36" transform="scale(0.015625)"/>
       </defs>
       <use xlink:href="#DejaVuSans-30"/>
       <use x="63.623047" xlink:href="#DejaVuSans-2e"/>
       <use x="95.410156" xlink:href="#DejaVuSans-36"/>
      </g>
     </g>
    </g>
    <g id="xtick_4">
     <g id="line2d_4">
      <g>
       <use style="stroke:#000000;stroke-width:0.8;" x="227.19309" xlink:href="#ma71e77d295" y="307.584"/>
      </g>
     </g>
     <g id="text_4">
      <!-- 0.8 -->
      <g transform="translate(219.241528 322.182437)scale(0.1 -0.1)">
       <defs>
        <path d="M 2034 2216 
Q 1584 2216 1326 1975 
Q 1069 1734 1069 1313 
Q 1069 891 1326 650 
Q 1584 409 2034 409 
Q 2484 409 2743 651 
Q 3003 894 3003 1313 
Q 3003 1734 2745 1975 
Q 2488 2216 2034 2216 
z
M 1403 2484 
Q 997 2584 770 2862 
Q 544 3141 544 3541 
Q 544 4100 942 4425 
Q 1341 4750 2034 4750 
Q 2731 4750 3128 4425 
Q 3525 4100 3525 3541 
Q 3525 3141 3298 2862 
Q 3072 2584 2669 2484 
Q 3125 2378 3379 2068 
Q 3634 1759 3634 1313 
Q 3634 634 3220 271 
Q 2806 -91 2034 -91 
Q 1263 -91 848 271 
Q 434 634 434 1313 
Q 434 1759 690 2068 
Q 947 2378 1403 2484 
z
M 1172 3481 
Q 1172 3119 1398 2916 
Q 1625 2713 2034 2713 
Q 2441 2713 2670 2916 
Q 2900 3119 2900 3481 
Q 2900 3844 2670 4047 
Q 2441 4250 2034 4250 
Q 1625 4250 1398 4047 
Q 1172 3844 1172 3481 
z
" id="DejaVuSans-38" transform="scale(0.015625)"/>
       </defs>
       <use xlink:href="#DejaVuSans-30"/>
       <use x="63.623047" xlink:href="#DejaVuSans-2e"/>
       <use x="95.410156" xlink:href="#DejaVuSans-38"/>
      </g>
     </g>
    </g>
    <g id="xtick_5">
     <g id="line2d_5">
      <g>
       <use style="stroke:#000000;stroke-width:0.8;" x="271.18691" xlink:href="#ma71e77d295" y="307.584"/>
      </g>
     </g>
     <g id="text_5">
      <!-- 1.0 -->
      <g transform="translate(263.235348 322.182437)scale(0.1 -0.1)">
       <defs>
        <path d="M 794 531 
L 1825 531 
L 1825 4091 
L 703 3866 
L 703 4441 
L 1819 4666 
L 2450 4666 
L 2450 531 
L 3481 531 
L 3481 0 
L 794 0 
L 794 531 
z
" id="DejaVuSans-31" transform="scale(0.015625)"/>
       </defs>
       <use xlink:href="#DejaVuSans-31"/>
       <use x="63.623047" xlink:href="#DejaVuSans-2e"/>
       <use x="95.410156" xlink:href="#DejaVuSans-30"/>
      </g>
     </g>
    </g>
    <g id="xtick_6">
     <g id="line2d_6">
      <g>
       <use style="stroke:#000000;stroke-width:0.8;" x="315.18073" xlink:href="#ma71e77d295" y="307.584"/>
      </g>
     </g>
     <g id="text_6">
      <!-- 1.2 -->
      <g transform="translate(307.229168 322.182437)scale(0.1 -0.1)">
       <use xlink:href="#DejaVuSans-31"/>
       <use x="63.623047" xlink:href="#DejaVuSans-2e"/>
       <use x="95.410156" xlink:href="#DejaVuSans-32"/>
      </g>
     </g>
    </g>
    <g id="xtick_7">
     <g id="line2d_7">
      <g>
       <use style="stroke:#000000;stroke-width:0.8;" x="359.174551" xlink:href="#ma71e77d295" y="307.584"/>
      </g>
     </g>
     <g id="text_7">
      <!-- 1.4 -->
      <g transform="translate(351.222988 322.182437)scale(0.1 -0.1)">
       <use xlink:href="#DejaVuSans-31"/>
       <use x="63.623047" xlink:href="#DejaVuSans-2e"/>
       <use x="95.410156" xlink:href="#DejaVuSans-34"/>
      </g>
     </g>
    </g>
    <g id="xtick_8">
     <g id="line2d_8">
      <g>
       <use style="stroke:#000000;stroke-width:0.8;" x="403.168371" xlink:href="#ma71e77d295" y="307.584"/>
      </g>
     </g>
     <g id="text_8">
      <!-- 1.6 -->
      <g transform="translate(395.216808 322.182437)scale(0.1 -0.1)">
       <use xlink:href="#DejaVuSans-31"/>
       <use x="63.623047" xlink:href="#DejaVuSans-2e"/>
       <use x="95.410156" xlink:href="#DejaVuSans-36"/>
      </g>
     </g>
    </g>
   </g>
   <g id="matplotlib.axis_2">
    <g id="ytick_1">
     <g id="line2d_9">
      <defs>
       <path d="M 0 0 
L -3.5 0 
" id="m567ae3bde6" style="stroke:#000000;stroke-width:0.8;"/>
      </defs>
      <g>
       <use style="stroke:#000000;stroke-width:0.8;" x="57.6" xlink:href="#m567ae3bde6" y="269.621103"/>
      </g>
     </g>
     <g id="text_9">
      <!-- −200 -->
      <g transform="translate(23.132812 273.420321)scale(0.1 -0.1)">
       <defs>
        <path d="M 678 2272 
L 4684 2272 
L 4684 1741 
L 678 1741 
L 678 2272 
z
" id="DejaVuSans-2212" transform="scale(0.015625)"/>
       </defs>
       <use xlink:href="#DejaVuSans-2212"/>
       <use x="83.789062" xlink:href="#DejaVuSans-32"/>
       <use x="147.412109" xlink:href="#DejaVuSans-30"/>
       <use x="211.035156" xlink:href="#DejaVuSans-30"/>
      </g>
     </g>
    </g>
    <g id="ytick_2">
     <g id="line2d_10">
      <g>
       <use style="stroke:#000000;stroke-width:0.8;" x="57.6" xlink:href="#m567ae3bde6" y="216.606467"/>
      </g>
     </g>
     <g id="text_10">
      <!-- −150 -->
      <g transform="translate(23.132812 220.405686)scale(0.1 -0.1)">
       <defs>
        <path d="M 691 4666 
L 3169 4666 
L 3169 4134 
L 1269 4134 
L 1269 2991 
Q 1406 3038 1543 3061 
Q 1681 3084 1819 3084 
Q 2600 3084 3056 2656 
Q 3513 2228 3513 1497 
Q 3513 744 3044 326 
Q 2575 -91 1722 -91 
Q 1428 -91 1123 -41 
Q 819 9 494 109 
L 494 744 
Q 775 591 1075 516 
Q 1375 441 1709 441 
Q 2250 441 2565 725 
Q 2881 1009 2881 1497 
Q 2881 1984 2565 2268 
Q 2250 2553 1709 2553 
Q 1456 2553 1204 2497 
Q 953 2441 691 2322 
L 691 4666 
z
" id="DejaVuSans-35" transform="scale(0.015625)"/>
       </defs>
       <use xlink:href="#DejaVuSans-2212"/>
       <use x="83.789062" xlink:href="#DejaVuSans-31"/>
       <use x="147.412109" xlink:href="#DejaVuSans-35"/>
       <use x="211.035156" xlink:href="#DejaVuSans-30"/>
      </g>
     </g>
    </g>
    <g id="ytick_3">
     <g id="line2d_11">
      <g>
       <use style="stroke:#000000;stroke-width:0.8;" x="57.6" xlink:href="#m567ae3bde6" y="163.591831"/>
      </g>
     </g>
     <g id="text_11">
      <!-- −100 -->
      <g transform="translate(23.132812 167.39105)scale(0.1 -0.1)">
       <use xlink:href="#DejaVuSans-2212"/>
       <use x="83.789062" xlink:href="#DejaVuSans-31"/>
       <use x="147.412109" xlink:href="#DejaVuSans-30"/>
       <use x="211.035156" xlink:href="#DejaVuSans-30"/>
      </g>
     </g>
    </g>
    <g id="ytick_4">
     <g id="line2d_12">
      <g>
       <use style="stroke:#000000;stroke-width:0.8;" x="57.6" xlink:href="#m567ae3bde6" y="110.577195"/>
      </g>
     </g>
     <g id="text_12">
      <!-- −50 -->
      <g transform="translate(29.495313 114.376414)scale(0.1 -0.1)">
       <use xlink:href="#DejaVuSans-2212"/>
       <use x="83.789062" xlink:href="#DejaVuSans-35"/>
       <use x="147.412109" xlink:href="#DejaVuSans-30"/>
      </g>
     </g>
    </g>
    <g id="ytick_5">
     <g id="line2d_13">
      <g>
       <use style="stroke:#000000;stroke-width:0.8;" x="57.6" xlink:href="#m567ae3bde6" y="57.56256"/>
      </g>
     </g>
     <g id="text_13">
      <!-- 0 -->
      <g transform="translate(44.2375 61.361778)scale(0.1 -0.1)">
       <use xlink:href="#DejaVuSans-30"/>
      </g>
     </g>
    </g>
   </g>
   <g id="line2d_14">
    <path clip-path="url(#pf9459c4206)" d="M 73.832727 109.231922 
L 74.485081 109.283137 
L 79.051555 109.340546 
L 79.703908 115.287665 
L 81.008615 126.687971 
L 83.183126 144.199647 
L 85.575089 161.961569 
L 87.314698 173.915863 
L 90.359014 192.996273 
L 92.750976 206.46626 
L 95.142939 218.769547 
L 97.969803 232.778284 
L 99.926864 241.885531 
L 102.101375 251.315969 
L 103.188631 255.269466 
L 104.058435 257.667531 
L 106.232946 264.984857 
L 107.320202 268.189728 
L 107.972556 267.568632 
L 108.190007 267.716345 
L 108.624909 268.505241 
L 110.147067 273.051379 
L 111.886676 278.055933 
L 112.539029 279.625355 
L 114.49609 284.466961 
L 117.105503 289.716303 
L 117.975308 291.252959 
L 118.192759 291.327679 
L 119.062563 292.248253 
L 119.280015 291.957047 
L 119.714917 289.966379 
L 119.932368 289.734946 
L 120.149819 289.298858 
L 120.36727 288.582819 
L 120.802173 288.210011 
L 121.019624 287.616008 
L 121.454526 285.3799 
L 121.671977 285.410424 
L 123.846488 289.364425 
L 124.06394 289.424588 
L 125.368646 291.835597 
L 126.021 292.881933 
L 126.890804 293.935457 
L 127.325707 294.181723 
L 127.97806 294.381828 
L 128.412962 294.595095 
L 128.847865 294.546089 
L 129.500218 295.04493 
L 129.93512 295.303744 
L 130.370023 295.402935 
L 130.587474 295.488 
L 130.804925 295.145479 
L 131.239827 293.857599 
L 131.457278 293.485732 
L 132.109632 291.78457 
L 132.327083 291.585777 
L 132.761985 291.706583 
L 133.196887 291.475313 
L 133.849241 291.43849 
L 134.719045 290.009184 
L 134.936496 288.767757 
L 135.153948 288.350912 
L 135.806301 288.798602 
L 137.328459 288.787468 
L 137.54591 288.90727 
L 138.198263 289.600678 
L 138.415715 289.643397 
L 138.633166 289.545213 
L 138.850617 289.259209 
L 139.285519 289.102057 
L 140.372775 282.774984 
L 142.329835 267.58938 
L 142.764737 263.15552 
L 143.417091 260.101288 
L 143.851993 257.468795 
L 144.069444 257.540689 
L 144.286895 257.356272 
L 144.721797 255.034583 
L 145.591602 252.544432 
L 145.809053 252.443365 
L 146.243955 252.476402 
L 146.678858 251.669997 
L 146.896309 251.300237 
L 147.11376 250.462393 
L 147.983565 245.262125 
L 148.635918 243.221694 
L 149.505722 237.93557 
L 150.810429 228.948646 
L 151.897685 224.790175 
L 152.115136 224.409749 
L 152.550038 224.319094 
L 152.984941 224.290352 
L 153.419843 222.911799 
L 153.637294 221.728723 
L 154.507099 214.631 
L 155.159452 209.660489 
L 156.899061 195.583656 
L 157.551414 191.064266 
L 158.421219 184.330261 
L 159.508475 178.375508 
L 161.248084 170.797465 
L 161.465535 170.340348 
L 161.682986 170.375589 
L 161.900437 170.536654 
L 162.770242 169.452594 
L 163.205144 169.004802 
L 164.509851 167.937636 
L 164.944753 168.116176 
L 165.814558 167.077099 
L 166.466911 166.416321 
L 166.901813 165.938876 
L 167.554167 165.553886 
L 167.989069 165.36265 
L 168.423971 165.567414 
L 168.641422 165.538136 
L 168.858874 165.381032 
L 169.511227 163.823389 
L 169.946129 162.788818 
L 171.250836 160.834518 
L 171.685738 160.646102 
L 171.903189 160.709587 
L 172.338092 160.30102 
L 172.772994 159.811975 
L 172.990445 159.876143 
L 173.207896 159.823389 
L 173.425347 159.947643 
L 174.295152 161.592972 
L 174.730054 161.915258 
L 174.947505 161.813454 
L 175.382408 160.747797 
L 175.599859 160.510876 
L 176.034761 159.592652 
L 176.687114 159.543751 
L 177.122017 159.173947 
L 177.556919 158.232636 
L 177.991821 156.973071 
L 178.209272 156.387294 
L 178.426723 156.183004 
L 178.644175 156.178834 
L 179.079077 156.67549 
L 179.296528 156.80441 
L 179.513979 156.701145 
L 180.166333 155.507588 
L 181.688491 157.144511 
L 181.905942 157.168302 
L 182.340844 157.606951 
L 182.558295 157.641216 
L 182.775746 157.797598 
L 183.863002 160.225673 
L 184.080453 160.415147 
L 185.602611 160.55293 
L 186.472416 161.058332 
L 186.907318 161.167734 
L 187.124769 161.37007 
L 187.559671 162.03665 
L 188.429476 161.95561 
L 188.646927 162.086642 
L 189.29928 161.928933 
L 189.516731 162.076801 
L 189.734183 161.865951 
L 189.951634 161.884852 
L 190.603987 163.06573 
L 190.821438 163.371191 
L 191.038889 163.42694 
L 191.473792 163.944219 
L 191.908694 164.759816 
L 192.343596 164.903201 
L 192.778498 164.393548 
L 194.083205 164.509625 
L 194.735559 165.042057 
L 194.95301 164.930679 
L 196.040265 163.149829 
L 196.475168 162.725974 
L 196.692619 162.75802 
L 197.344972 163.185076 
L 197.779875 162.779698 
L 197.997326 162.56612 
L 198.86713 162.663276 
L 199.302033 162.398762 
L 199.736935 162.829798 
L 199.954386 162.756003 
L 200.606739 161.930053 
L 201.259093 161.162702 
L 201.911446 162.372696 
L 203.216153 164.999388 
L 203.651055 165.49775 
L 204.955762 167.612515 
L 205.390664 167.943092 
L 205.825567 168.458558 
L 206.260469 168.43589 
L 206.695371 168.205523 
L 207.130273 168.53321 
L 208.000078 169.607964 
L 208.217529 169.761127 
L 208.43498 169.572601 
L 208.869882 168.899546 
L 209.087334 168.699348 
L 209.739687 167.584885 
L 210.609492 166.359515 
L 211.044394 164.953945 
L 211.261845 164.830534 
L 212.566552 161.992762 
L 212.784003 162.045913 
L 213.218905 161.865211 
L 213.653807 162.453856 
L 213.871259 162.324782 
L 214.08871 162.34388 
L 214.523612 163.290956 
L 214.741063 163.052618 
L 215.175965 162.145943 
L 215.393417 161.956419 
L 215.610868 162.146234 
L 217.567928 167.004138 
L 219.524988 168.718135 
L 220.829695 171.032758 
L 221.047146 171.347582 
L 221.482048 173.203877 
L 221.699499 173.380205 
L 221.916951 173.26672 
L 223.004206 173.559503 
L 223.221657 173.446022 
L 223.65656 172.692979 
L 224.526364 171.696812 
L 225.178718 172.093847 
L 225.61362 171.869625 
L 226.048522 172.619452 
L 226.265973 173.113897 
L 226.483424 173.153657 
L 226.700876 172.983754 
L 227.788131 173.664867 
L 228.005582 173.595635 
L 228.223034 173.350625 
L 228.440485 173.465154 
L 230.180094 175.94932 
L 230.397545 176.031447 
L 230.614996 176.251767 
L 231.049898 176.212756 
L 232.572056 177.891725 
L 232.789507 177.887492 
L 233.006959 177.733137 
L 233.22441 177.784863 
L 233.441861 177.972737 
L 233.876763 177.871672 
L 234.311665 177.083983 
L 234.746568 176.285344 
L 234.964019 175.635728 
L 235.833823 174.468367 
L 236.268726 174.446578 
L 236.703628 174.10651 
L 237.13853 174.381592 
L 237.790884 174.374372 
L 238.660688 175.097682 
L 238.878139 175.06741 
L 239.313041 175.374194 
L 239.747944 174.864653 
L 240.182846 174.290676 
L 240.400297 174.148148 
L 240.617748 174.224022 
L 240.835199 174.066811 
L 241.487553 172.950589 
L 241.705004 172.944313 
L 242.574809 174.858454 
L 242.79226 175.050103 
L 243.227162 174.91974 
L 243.662064 174.61922 
L 243.879515 174.422991 
L 244.74932 173.080117 
L 244.966771 172.990996 
L 245.184222 173.095761 
L 245.401673 173.461097 
L 245.619124 173.21047 
L 248.011087 167.082965 
L 248.445989 165.913391 
L 248.880891 164.949405 
L 249.533245 163.624198 
L 249.750696 163.923056 
L 250.185598 163.91422 
L 250.620501 164.360762 
L 250.837952 164.407253 
L 251.055403 164.599741 
L 251.272854 164.983505 
L 252.36011 165.509673 
L 252.577561 165.893052 
L 254.534621 172.014321 
L 255.186974 174.211831 
L 255.621877 174.26209 
L 255.839328 173.996363 
L 256.27423 173.75426 
L 256.926583 172.544154 
L 257.361486 171.942627 
L 257.796388 171.663847 
L 258.23129 171.747496 
L 258.448741 171.629959 
L 258.883644 171.744541 
L 259.318546 171.487898 
L 259.753448 172.387639 
L 260.18835 172.107261 
L 260.405802 172.24332 
L 260.840704 172.227639 
L 261.058155 172.439784 
L 261.275606 172.478762 
L 261.710508 171.998964 
L 262.145411 171.947258 
L 262.797764 172.64952 
L 263.015215 172.792546 
L 263.450118 173.433777 
L 263.88502 173.360533 
L 264.102471 172.853969 
L 264.537373 171.480252 
L 264.972275 170.76149 
L 265.407178 170.123272 
L 265.84208 170.207137 
L 266.059531 170.301244 
L 266.494433 170.046962 
L 266.711885 170.264714 
L 267.146787 171.257877 
L 267.581689 171.406479 
L 268.451494 172.352422 
L 269.103847 171.367142 
L 269.321298 171.320635 
L 270.408554 170.386973 
L 270.843456 168.527947 
L 271.49581 165.761897 
L 272.583065 162.518039 
L 273.017967 161.212867 
L 273.235419 161.066983 
L 275.40993 157.982218 
L 276.062283 156.014215 
L 276.497186 154.88716 
L 276.714637 154.461509 
L 276.932088 154.494897 
L 277.149539 154.673289 
L 277.36699 154.483763 
L 277.584441 154.464388 
L 278.019344 155.49894 
L 278.454246 155.877596 
L 278.889148 156.488896 
L 279.758953 158.777232 
L 279.976404 158.993611 
L 280.411306 158.951309 
L 280.628757 159.223807 
L 280.846208 159.272701 
L 281.06366 159.162544 
L 281.281111 159.528066 
L 283.02072 164.966092 
L 284.107975 169.180324 
L 284.542878 170.805748 
L 284.760329 171.156236 
L 284.97778 171.72757 
L 286.282487 176.936573 
L 286.499938 177.154112 
L 286.93484 178.138415 
L 288.456998 181.70423 
L 288.674449 181.844572 
L 288.8919 181.453178 
L 289.326803 179.739081 
L 290.196607 177.245526 
L 290.631509 175.349982 
L 291.283863 171.691661 
L 291.936216 169.686169 
L 292.371119 168.159796 
L 293.023472 166.59518 
L 294.110728 162.645585 
L 294.328179 162.095702 
L 294.980532 162.246499 
L 295.197983 162.085148 
L 295.415434 161.401664 
L 295.850337 159.330947 
L 296.50269 158.501775 
L 297.807397 146.057355 
L 298.242299 143.308785 
L 299.112104 136.413726 
L 299.764457 131.507094 
L 300.416811 128.451863 
L 300.851713 126.597665 
L 301.286615 125.218759 
L 301.721517 123.981536 
L 302.15642 124.023899 
L 302.591322 124.307835 
L 303.026224 124.121832 
L 303.678578 124.515672 
L 304.548382 125.604907 
L 306.07054 128.157938 
L 306.505442 128.811993 
L 307.157796 129.385927 
L 307.810149 129.489698 
L 308.679954 129.246941 
L 309.332307 129.391513 
L 310.202112 130.012754 
L 311.071916 129.813739 
L 311.72427 129.306679 
L 311.941721 129.097386 
L 312.376623 127.921867 
L 312.811525 126.761726 
L 313.028976 126.401844 
L 313.463879 126.432677 
L 313.68133 126.308802 
L 313.898781 126.355254 
L 314.333683 127.058522 
L 314.551134 127.38619 
L 318.030353 129.426139 
L 318.682706 129.992421 
L 319.335059 130.359733 
L 319.552511 130.37243 
L 320.204864 130.01066 
L 320.639766 129.924943 
L 321.29212 129.19403 
L 321.727022 129.517066 
L 322.161924 129.904444 
L 322.379375 129.855058 
L 323.24918 128.93467 
L 323.466631 128.834123 
L 324.553887 129.028453 
L 324.988789 128.51043 
L 325.20624 128.254435 
L 325.423691 128.214215 
L 325.858593 128.263903 
L 326.510947 128.090714 
L 326.728398 128.088817 
L 327.1633 127.933857 
L 327.815654 128.272184 
L 329.772714 128.763863 
L 330.207616 128.651774 
L 330.642518 128.671461 
L 331.077421 128.40588 
L 331.947225 127.237279 
L 332.382128 126.693449 
L 332.599579 126.578691 
L 333.251932 127.201098 
L 334.121737 128.024305 
L 334.556639 128.083774 
L 335.426443 127.795822 
L 336.078797 127.142123 
L 336.73115 126.189958 
L 337.166052 126.143496 
L 337.818406 126.339273 
L 338.253308 126.52871 
L 338.905662 126.739085 
L 339.775466 127.76849 
L 340.210368 128.154921 
L 341.080173 128.947295 
L 341.297624 128.971009 
L 341.732526 129.428395 
L 341.949977 129.59913 
L 342.819782 129.446636 
L 344.34194 128.524674 
L 345.429196 127.550667 
L 345.864098 127.147514 
L 346.081549 126.952772 
L 346.951354 126.960252 
L 347.168805 126.742211 
L 347.386256 126.846311 
L 347.603707 127.090077 
L 348.473512 127.197916 
L 349.125865 126.747803 
L 349.343316 126.612822 
L 349.560767 126.808893 
L 349.778218 126.836646 
L 350.213121 126.457632 
L 350.430572 126.418985 
L 351.082925 126.043555 
L 351.735279 125.79215 
L 352.170181 126.789373 
L 353.257437 129.264283 
L 354.562143 131.410407 
L 355.431948 132.540082 
L 356.301752 133.254513 
L 358.041362 134.209771 
L 358.258813 134.253935 
L 358.476264 133.953725 
L 359.998422 129.732336 
L 360.215873 129.337999 
L 360.433324 129.244867 
L 360.868226 129.587621 
L 361.955482 131.052135 
L 362.607835 131.610145 
L 363.042738 131.959904 
L 364.129993 132.18542 
L 366.087054 132.138371 
L 366.521956 132.261507 
L 366.956858 132.165606 
L 369.566272 132.604972 
L 370.218625 132.522746 
L 370.653527 132.188695 
L 370.870979 131.851185 
L 372.393136 128.061804 
L 373.262941 126.63335 
L 373.697843 125.973633 
L 373.915294 125.71043 
L 374.350197 124.931649 
L 374.785099 124.611035 
L 375.00255 124.52156 
L 375.654903 123.653657 
L 376.089806 123.530655 
L 376.95961 123.323475 
L 377.394513 123.373455 
L 377.611964 123.300877 
L 378.046866 122.566653 
L 378.264317 122.495094 
L 378.916671 122.76533 
L 379.351573 122.831644 
L 380.438828 123.168736 
L 381.308633 123.108712 
L 381.526084 123.237111 
L 382.61334 122.437774 
L 383.048242 122.54018 
L 383.265693 122.602604 
L 383.700596 122.956042 
L 385.657656 123.298931 
L 386.092558 123.634731 
L 386.310009 123.59099 
L 387.179814 122.922139 
L 388.049618 123.010678 
L 388.919423 123.451798 
L 389.136874 123.487461 
L 389.789227 123.260919 
L 390.441581 123.087373 
L 391.093934 122.543064 
L 391.963739 122.540795 
L 392.18119 122.412545 
L 392.833543 122.517094 
L 393.050994 122.660725 
L 393.485897 122.524918 
L 393.920799 122.230414 
L 395.225506 121.838499 
L 395.660408 121.920347 
L 396.312761 121.963766 
L 396.747664 121.773142 
L 396.965115 121.753988 
L 397.834919 120.89388 
L 398.487273 121.085501 
L 398.487273 121.085501 
" style="fill:none;stroke:#000000;stroke-linecap:square;stroke-width:1.5;"/>
   </g>
   <g id="line2d_15">
    <path clip-path="url(#pf9459c4206)" d="M 73.832727 103.731489 
L 75.354885 104.410843 
L 76.22469 104.799281 
L 76.659592 104.910786 
L 78.18175 105.48554 
L 78.399201 105.462244 
L 79.051555 105.700401 
L 79.703908 108.295538 
L 81.443517 114.61675 
L 82.530773 118.020723 
L 87.967051 132.280993 
L 88.836856 134.315144 
L 89.489209 135.914672 
L 91.228818 138.357643 
L 93.185878 140.607545 
L 94.925487 143.211039 
L 95.577841 143.496658 
L 96.230194 143.62182 
L 97.752352 144.997463 
L 98.404706 145.618498 
L 99.926864 147.233963 
L 100.144315 147.394311 
L 101.666473 149.820842 
L 102.536277 151.267227 
L 103.406082 152.76016 
L 104.275886 154.057594 
L 104.92824 155.041354 
L 105.798044 156.342316 
L 108.190007 160.744946 
L 109.059811 162.041133 
L 110.364518 163.813697 
L 111.669225 165.639983 
L 112.321578 166.222649 
L 113.408834 167.620889 
L 114.278638 168.565226 
L 114.713541 168.811519 
L 115.148443 169.219258 
L 115.583345 169.533588 
L 117.105503 171.178795 
L 117.975308 172.049464 
L 118.41021 172.164112 
L 118.845112 172.53327 
L 119.497466 173.259998 
L 119.932368 173.639564 
L 120.802173 174.836426 
L 122.759233 177.227321 
L 123.194135 177.543176 
L 123.629037 177.844299 
L 124.498842 178.699701 
L 124.933744 179.106804 
L 125.803549 178.887512 
L 126.890804 179.721251 
L 127.543158 179.731195 
L 128.412962 179.1688 
L 128.847865 178.533903 
L 129.282767 178.53842 
L 129.717669 178.606877 
L 130.370023 178.830906 
L 130.587474 178.666889 
L 130.804925 178.661472 
L 131.239827 178.950003 
L 132.327083 180.186964 
L 132.761985 180.613422 
L 138.633166 187.879368 
L 139.720421 188.779162 
L 140.155324 188.96763 
L 141.025128 190.071953 
L 141.46003 190.298856 
L 142.112384 190.45323 
L 142.547286 190.31703 
L 142.764737 190.258757 
L 143.634542 189.610445 
L 144.069444 189.391654 
L 144.721797 188.467988 
L 145.1567 188.415141 
L 146.678858 189.636961 
L 147.548662 190.533456 
L 148.201016 190.986929 
L 148.635918 191.283577 
L 149.505722 192.091706 
L 149.940625 192.551826 
L 151.02788 193.249524 
L 151.462783 193.138647 
L 152.115136 193.348884 
L 154.072196 195.255663 
L 154.72455 195.899496 
L 155.594354 196.439179 
L 156.464159 196.382448 
L 157.551414 196.616127 
L 157.768866 196.41763 
L 158.203768 195.446443 
L 158.63867 194.41518 
L 159.291024 193.457503 
L 159.725926 193.268834 
L 160.378279 192.913774 
L 160.59573 192.715708 
L 161.682986 192.68879 
L 162.987693 192.024361 
L 163.422595 191.317478 
L 164.074949 190.847787 
L 164.944753 190.625793 
L 165.597106 190.185066 
L 166.032009 190.0987 
L 166.466911 189.977745 
L 167.119264 189.945423 
L 167.989069 190.18845 
L 168.20652 190.087053 
L 169.293776 190.233357 
L 169.728678 190.223441 
L 170.815934 189.496641 
L 171.033385 189.030593 
L 171.468287 187.102707 
L 171.903189 186.304498 
L 172.338092 186.167616 
L 172.990445 185.152849 
L 173.207896 185.005267 
L 174.295152 185.109125 
L 174.730054 185.309803 
L 175.164956 185.222138 
L 175.599859 185.097046 
L 175.81731 185.207658 
L 176.034761 185.449633 
L 176.687114 185.543652 
L 176.904566 185.455327 
L 177.339468 184.829527 
L 177.556919 184.731883 
L 179.296528 185.63421 
L 181.036137 187.081506 
L 183.210648 188.091548 
L 184.080453 188.556814 
L 184.297904 188.53623 
L 184.950258 189.005479 
L 185.38516 189.347872 
L 186.254964 189.746047 
L 186.689867 189.753996 
L 188.429476 190.680122 
L 189.516731 191.400565 
L 191.691243 192.263334 
L 192.126145 192.626393 
L 192.561047 192.962145 
L 193.430852 193.74311 
L 194.083205 194.051238 
L 194.735559 194.186763 
L 195.605363 194.805713 
L 196.692619 195.768275 
L 197.344972 195.935327 
L 197.997326 196.08602 
L 199.302033 196.669635 
L 199.736935 196.699221 
L 200.82419 197.442949 
L 201.259093 197.885226 
L 202.998702 198.862263 
L 203.216153 198.824773 
L 203.651055 199.103376 
L 204.303409 199.306086 
L 206.47792 200.010685 
L 206.912822 200.334435 
L 207.565176 200.989972 
L 208.869882 201.787944 
L 209.304785 201.694732 
L 209.957138 201.655256 
L 210.609492 200.827454 
L 211.044394 200.777745 
L 211.914198 200.775802 
L 212.784003 201.324034 
L 213.436356 201.229571 
L 214.08871 201.380146 
L 214.523612 201.457523 
L 216.698123 203.126362 
L 217.350477 203.31196 
L 218.220281 202.939081 
L 218.655184 202.868752 
L 219.090086 203.012935 
L 219.95989 203.333494 
L 220.394793 203.458759 
L 220.829695 203.423654 
L 222.786755 202.646456 
L 223.65656 202.862973 
L 224.526364 202.735049 
L 225.396169 202.696646 
L 226.265973 202.758211 
L 226.918327 202.873075 
L 228.005582 202.488669 
L 228.657936 202.500585 
L 229.745191 203.132773 
L 231.702252 203.257342 
L 235.18147 205.11827 
L 235.833823 205.671146 
L 236.486177 206.110581 
L 238.443237 207.682668 
L 238.878139 207.404699 
L 239.313041 207.109601 
L 240.400297 207.453792 
L 241.052651 206.971388 
L 241.487553 206.893794 
L 242.357357 206.732863 
L 243.009711 206.942117 
L 243.662064 206.797515 
L 244.096966 206.771136 
L 244.314418 206.669407 
L 244.966771 206.922702 
L 245.401673 207.1025 
L 246.923831 207.002025 
L 247.358733 207.180943 
L 248.228538 207.397755 
L 249.750696 207.929688 
L 249.968147 207.930618 
L 250.403049 207.73201 
L 251.707756 208.046623 
L 252.36011 207.963254 
L 253.012463 207.162353 
L 253.447365 207.027716 
L 254.31717 207.050748 
L 254.752072 207.073469 
L 255.186974 207.240163 
L 256.27423 206.906218 
L 258.883644 207.59877 
L 259.101095 207.552245 
L 260.405802 206.534632 
L 261.275606 206.509218 
L 262.797764 205.077465 
L 263.88502 204.907667 
L 264.537373 205.173792 
L 264.754824 205.156796 
L 265.189727 204.954323 
L 265.624629 204.913051 
L 266.929336 204.007735 
L 267.364238 203.667924 
L 267.79914 203.640034 
L 268.016591 203.649921 
L 268.668945 203.429543 
L 269.103847 203.545859 
L 269.973652 203.754301 
L 270.843456 203.936746 
L 272.148163 204.196098 
L 273.45287 205.393392 
L 273.887772 205.336507 
L 274.757577 205.889555 
L 275.192479 206.182832 
L 275.627381 206.225225 
L 275.844832 206.155752 
L 276.062283 205.869392 
L 276.497186 204.56236 
L 277.36699 203.657797 
L 277.584441 203.629785 
L 278.671697 202.86317 
L 278.889148 202.927535 
L 279.32405 202.862028 
L 280.193855 203.234646 
L 281.06366 203.086094 
L 281.498562 203.117898 
L 282.150915 203.399221 
L 283.673073 203.994793 
L 284.107975 203.965253 
L 284.542878 203.775939 
L 284.97778 203.930881 
L 285.847584 204.503115 
L 286.065036 204.471876 
L 286.717389 204.115223 
L 288.022096 203.844933 
L 289.544254 204.41497 
L 291.501314 206.088072 
L 292.153667 206.434049 
L 292.58857 206.395052 
L 294.110728 206.830115 
L 294.763081 207.138327 
L 295.197983 207.198769 
L 295.415434 207.169162 
L 295.850337 207.004759 
L 296.285239 206.970436 
L 296.50269 206.7975 
L 297.155044 203.765705 
L 297.807397 200.349832 
L 299.112104 194.051007 
L 300.851713 188.412055 
L 302.373871 184.453611 
L 304.765833 178.058353 
L 307.592698 170.53634 
L 308.897405 168.236803 
L 311.071916 164.85602 
L 313.463879 161.615685 
L 316.508195 158.137781 
L 318.465255 156.674922 
L 319.987413 155.037755 
L 322.814278 152.624549 
L 323.684082 151.887285 
L 324.553887 151.215891 
L 325.20624 150.762087 
L 327.598203 148.521919 
L 328.902909 147.192818 
L 330.85997 145.526191 
L 333.034481 143.286875 
L 333.686834 142.758113 
L 335.208992 141.542909 
L 336.948601 140.514263 
L 337.600955 140.113892 
L 341.297624 138.280403 
L 341.949977 137.95802 
L 343.907038 137.102266 
L 344.776842 136.783847 
L 345.646647 136.628756 
L 347.168805 136.291912 
L 348.690963 135.935335 
L 350.430572 135.451594 
L 351.95273 134.884123 
L 357.389008 134.611293 
L 358.476264 134.715043 
L 358.911166 134.717885 
L 359.563519 134.635642 
L 360.868226 134.82155 
L 362.390384 135.133096 
L 363.695091 135.229857 
L 365.652151 135.586994 
L 366.087054 135.72218 
L 366.739407 135.825181 
L 370.436076 136.217051 
L 371.305881 136.226338 
L 371.958234 136.24953 
L 375.00255 135.951383 
L 375.654903 136.032125 
L 377.829415 135.733999 
L 384.135498 135.661161 
L 385.222753 135.581074 
L 387.614716 135.250991 
L 388.267069 134.897223 
L 391.093934 135.194871 
L 391.528836 135.233965 
L 392.398641 135.251189 
L 393.050994 135.278344 
L 394.355701 135.291516 
L 397.400017 135.137605 
L 398.487273 134.834087 
L 398.487273 134.834087 
" style="fill:none;stroke:#000000;stroke-linecap:square;stroke-width:1.5;"/>
   </g>
   <g id="line2d_16">
    <path clip-path="url(#pf9459c4206)" d="M 73.832727 109.792743 
L 74.919983 109.722965 
L 78.399201 109.805476 
L 79.051555 109.703647 
L 79.703908 107.352389 
L 82.09587 98.421976 
L 82.748224 95.105815 
L 83.618028 85.502764 
L 84.052931 80.389186 
L 84.922735 66.542836 
L 85.140186 66.160208 
L 85.357637 67.32693 
L 86.009991 74.335144 
L 86.662344 80.878116 
L 87.097247 83.985773 
L 87.532149 85.803799 
L 87.967051 86.817042 
L 88.401953 87.237577 
L 89.271758 86.795802 
L 90.793916 86.01951 
L 91.881172 84.868806 
L 93.403329 82.96359 
L 94.055683 82.53758 
L 95.142939 82.326264 
L 95.577841 82.067714 
L 96.882548 81.126486 
L 97.534901 80.786601 
L 99.926864 80.441438 
L 100.361766 80.385125 
L 101.014119 79.945055 
L 101.23157 79.930129 
L 101.883924 80.204796 
L 102.318826 80.155549 
L 103.406082 80.290707 
L 103.840984 80.207054 
L 104.058435 80.332197 
L 104.275886 80.303935 
L 104.710789 80.020522 
L 105.363142 80.154141 
L 105.798044 80.250898 
L 106.667849 80.639348 
L 107.320202 80.819602 
L 107.755104 80.997759 
L 108.84236 81.446693 
L 109.277262 81.213792 
L 110.581969 81.128376 
L 110.79942 81.123558 
L 112.756481 79.888714 
L 113.191383 79.805451 
L 114.49609 80.052641 
L 116.018248 80.857697 
L 116.888052 81.092392 
L 117.975308 81.877735 
L 118.192759 81.959215 
L 119.062563 81.850374 
L 119.714917 81.822431 
L 120.802173 81.347563 
L 121.237075 81.135945 
L 121.889428 81.051632 
L 123.411586 80.376761 
L 124.06394 80.320849 
L 124.498842 80.529283 
L 125.368646 80.553748 
L 125.803549 80.740447 
L 126.673353 80.598234 
L 127.325707 80.444029 
L 128.847865 80.96575 
L 130.370023 80.936019 
L 130.804925 80.810306 
L 131.674729 80.415954 
L 133.63179 80.046849 
L 134.719045 80.771344 
L 135.58885 81.617917 
L 136.241203 81.915098 
L 136.676105 82.057881 
L 137.111008 82.049571 
L 137.54591 81.873422 
L 138.198263 81.973816 
L 139.068068 82.29192 
L 140.155324 82.414262 
L 141.025128 82.893749 
L 141.46003 82.942287 
L 141.894933 82.699439 
L 142.329835 82.282689 
L 143.19964 81.450505 
L 143.634542 81.269126 
L 144.721797 80.931879 
L 145.374151 80.572074 
L 145.809053 80.509361 
L 146.026504 80.448654 
L 146.461407 80.501516 
L 146.678858 80.48143 
L 147.548662 80.944654 
L 147.983565 81.189146 
L 148.635918 81.33423 
L 149.288271 81.469102 
L 150.592978 81.303206 
L 151.680234 81.450179 
L 152.332587 81.467417 
L 152.984941 81.366475 
L 153.419843 81.396922 
L 154.072196 81.478744 
L 154.942001 81.53783 
L 155.376903 81.64497 
L 156.029257 81.896056 
L 157.333963 81.931217 
L 157.768866 81.673389 
L 159.073572 81.755053 
L 159.725926 81.315087 
L 160.378279 80.927765 
L 161.465535 80.669527 
L 162.117888 80.793115 
L 162.770242 80.863531 
L 163.205144 81.05904 
L 164.509851 82.036235 
L 165.814558 81.771165 
L 166.901813 81.699867 
L 169.076325 80.544155 
L 169.511227 80.450556 
L 170.381031 80.443202 
L 170.815934 80.560503 
L 171.685738 80.954518 
L 172.555543 80.954177 
L 173.207896 81.204095 
L 173.642799 81.140416 
L 174.730054 81.458414 
L 175.164956 81.36929 
L 175.81731 81.058102 
L 176.252212 81.000844 
L 176.904566 80.751867 
L 177.339468 80.714483 
L 179.296528 79.489055 
L 179.73143 79.401792 
L 180.383784 79.483553 
L 181.036137 79.352506 
L 181.905942 79.922071 
L 182.775746 80.535186 
L 183.4281 80.732363 
L 183.863002 81.124781 
L 184.297904 81.209198 
L 184.950258 81.220242 
L 185.38516 81.04226 
L 185.820062 80.801055 
L 186.472416 80.745141 
L 186.907318 80.699769 
L 187.559671 80.798865 
L 189.29928 80.709614 
L 189.734183 81.032958 
L 190.169085 81.324732 
L 190.821438 81.469094 
L 191.473792 81.489302 
L 192.778498 82.052842 
L 193.865754 81.709259 
L 194.95301 81.233154 
L 195.822814 80.401401 
L 196.475168 80.071758 
L 197.562423 80.194208 
L 199.084581 80.110827 
L 199.519484 80.36157 
L 199.954386 80.477224 
L 200.389288 80.592384 
L 200.82419 80.520736 
L 202.781251 79.850383 
L 203.868506 80.063497 
L 205.608115 80.874598 
L 206.260469 81.414162 
L 207.130273 81.880917 
L 207.782627 82.04737 
L 208.217529 81.821914 
L 208.652431 81.472504 
L 211.479296 80.923049 
L 212.784003 80.976669 
L 213.653807 80.811633 
L 214.958514 79.730161 
L 215.393417 79.700593 
L 215.828319 80.01238 
L 216.480672 80.455916 
L 217.350477 80.71422 
L 217.785379 80.781781 
L 218.437732 80.693702 
L 219.742439 80.917118 
L 221.916951 80.212237 
L 222.351853 80.240334 
L 223.004206 80.593867 
L 223.65656 80.558726 
L 225.396169 80.383287 
L 225.831071 80.650727 
L 226.265973 80.583321 
L 228.005582 79.970525 
L 228.875387 80.236802 
L 229.745191 80.845779 
L 230.832447 80.883472 
L 231.484801 80.897817 
L 232.572056 80.986927 
L 233.006959 81.181536 
L 234.094214 81.132423 
L 234.746568 80.972102 
L 235.18147 81.200816 
L 235.616372 81.64053 
L 236.486177 81.871307 
L 237.13853 81.774125 
L 237.573432 81.662023 
L 239.09559 81.682703 
L 240.182846 81.384636 
L 241.705004 80.69274 
L 242.139906 80.714015 
L 242.574809 80.470631 
L 243.879515 80.7267 
L 244.314418 81.043729 
L 244.966771 81.17809 
L 245.619124 81.405356 
L 246.054027 81.242812 
L 246.70638 81.109402 
L 248.445989 80.339617 
L 249.098343 80.351415 
L 249.968147 80.643349 
L 250.837952 81.10394 
L 251.272854 81.268055 
L 251.490305 81.381034 
L 252.36011 81.19867 
L 254.534621 81.163841 
L 255.186974 80.874813 
L 255.621877 80.615489 
L 256.709132 80.454058 
L 257.144035 80.264592 
L 257.796388 80.034871 
L 258.666193 79.884656 
L 260.18835 80.814066 
L 261.058155 81.579081 
L 261.493057 81.651966 
L 262.797764 82.353966 
L 263.88502 82.407783 
L 264.972275 81.700063 
L 265.407178 81.683932 
L 265.84208 81.81701 
L 266.276982 81.632732 
L 266.929336 80.981406 
L 268.668945 79.278152 
L 269.103847 79.327124 
L 269.538749 79.422325 
L 270.191103 79.215325 
L 270.843456 79.337724 
L 272.583065 79.97391 
L 273.235419 80.364168 
L 274.540125 80.679395 
L 274.757577 80.560638 
L 275.192479 80.092922 
L 275.627381 80.175592 
L 276.062283 80.336263 
L 276.497186 80.341533 
L 276.932088 80.452437 
L 277.36699 80.585697 
L 277.801892 80.79281 
L 278.236795 80.642163 
L 278.671697 80.319091 
L 280.193855 80.776855 
L 280.628757 80.589707 
L 281.06366 80.704615 
L 281.281111 80.856346 
L 282.150915 80.755354 
L 282.585817 80.805228 
L 282.803269 80.877418 
L 284.325427 80.123107 
L 284.760329 80.229915 
L 285.630133 80.767292 
L 286.065036 80.939742 
L 287.152291 81.614002 
L 287.804645 81.791159 
L 288.239547 81.832024 
L 288.674449 81.880325 
L 289.326803 81.683443 
L 289.979156 81.271358 
L 290.631509 81.140572 
L 291.066412 81.146628 
L 293.240923 81.97267 
L 293.893277 82.02557 
L 294.328179 81.78628 
L 294.763081 81.87332 
L 295.197983 81.927352 
L 296.067788 81.867387 
L 296.50269 81.781014 
L 296.937592 83.281114 
L 298.677201 89.313256 
L 299.547006 91.244884 
L 300.416811 92.791591 
L 301.286615 93.896001 
L 302.373871 94.949622 
L 303.026224 95.472499 
L 303.678578 96.108628 
L 304.11348 96.46875 
L 304.765833 96.997702 
L 306.287991 97.830039 
L 306.940345 98.397621 
L 307.810149 99.08381 
L 309.549758 100.110942 
L 310.419563 100.408318 
L 311.289367 100.821521 
L 312.376623 101.439444 
L 314.986037 102.549987 
L 316.073292 103.166456 
L 319.335059 104.335578 
L 323.031729 105.504367 
L 325.423691 105.717738 
L 325.858593 105.712784 
L 326.293496 105.796562 
L 326.728398 105.746188 
L 329.990165 105.959438 
L 330.85997 105.986895 
L 331.294872 106.023426 
L 331.947225 105.983657 
L 333.686834 106.055206 
L 335.861346 105.92649 
L 338.68821 106.189559 
L 340.210368 106.204604 
L 341.515075 106.308737 
L 343.907038 106.31207 
L 344.776842 106.439956 
L 350.213121 106.77302 
L 354.344692 106.452457 
L 357.606459 106.479779 
L 358.911166 106.665867 
L 359.563519 106.676027 
L 363.912542 106.879925 
L 364.564896 106.814158 
L 367.174309 107.110159 
L 369.348821 107.245233 
L 370.001174 107.297561 
L 370.870979 107.324631 
L 371.740783 107.381173 
L 375.00255 107.396252 
L 375.437452 107.377328 
L 376.307257 107.459194 
L 378.046866 107.582848 
L 378.481768 107.637614 
L 383.048242 107.365358 
L 384.5704 106.931505 
L 387.614716 106.614304 
L 388.919423 106.690451 
L 389.789227 106.675248 
L 390.876483 106.659575 
L 391.963739 106.764216 
L 394.355701 107.216189 
L 395.008055 107.35613 
L 395.877859 107.477659 
L 397.400017 107.606893 
L 398.487273 107.56927 
L 398.487273 107.56927 
" style="fill:none;stroke:#000000;stroke-linecap:square;stroke-width:1.5;"/>
   </g>
   <g id="line2d_17">
    <path clip-path="url(#pf9459c4206)" d="M 73.832727 90.313895 
L 76.007239 91.326065 
L 78.399201 91.941513 
L 78.616652 91.835861 
L 78.834103 92.001431 
L 79.051555 91.854574 
L 79.486457 84.325371 
L 81.226066 56.08571 
L 81.443517 54.319237 
L 81.660968 53.568 
L 81.878419 53.900796 
L 82.313322 56.598491 
L 83.618028 66.597733 
L 84.052931 67.970866 
L 84.270382 68.443269 
L 84.487833 68.580667 
L 84.705284 68.528111 
L 85.140186 67.945566 
L 85.575089 66.829916 
L 86.879795 63.931057 
L 87.314698 63.153172 
L 87.532149 62.939642 
L 87.967051 63.048558 
L 88.401953 63.716382 
L 89.054307 64.646322 
L 89.70666 64.81431 
L 90.576465 65.347888 
L 90.793916 65.283279 
L 92.098623 64.028636 
L 92.316074 64.08132 
L 92.533525 63.934379 
L 93.838232 64.073001 
L 94.708036 64.690459 
L 95.142939 64.646746 
L 96.230194 64.298641 
L 97.752352 65.178327 
L 98.404706 65.984393 
L 98.622157 65.990802 
L 99.057059 65.655892 
L 99.491961 65.239513 
L 100.361766 64.15236 
L 100.579217 64.084843 
L 100.796668 64.184204 
L 101.883924 63.577055 
L 102.753728 64.051294 
L 103.188631 64.737838 
L 103.623533 65.388107 
L 104.058435 66.337574 
L 104.493337 66.590995 
L 104.710789 66.723656 
L 104.92824 66.683313 
L 105.798044 65.570049 
L 106.8853 63.417964 
L 107.102751 63.256982 
L 107.320202 63.243214 
L 108.190007 64.088777 
L 108.624909 64.203833 
L 109.059811 64.425515 
L 109.712165 64.660514 
L 109.929616 64.638166 
L 111.234323 65.284276 
L 111.669225 65.605394 
L 112.321578 65.123987 
L 113.408834 63.739626 
L 113.843736 62.890254 
L 114.49609 62.053809 
L 114.713541 61.986906 
L 115.148443 62.247669 
L 115.583345 63.025593 
L 116.018248 64.142247 
L 116.45315 65.124043 
L 116.670601 65.472352 
L 116.888052 65.598194 
L 117.540406 65.356854 
L 117.975308 65.06235 
L 118.627661 65.433957 
L 119.280015 66.524065 
L 120.149819 67.017335 
L 120.36727 67.046448 
L 120.584721 66.798224 
L 121.454526 64.682874 
L 121.671977 64.171506 
L 122.106879 63.932732 
L 122.759233 62.995804 
L 122.976684 62.497564 
L 123.194135 62.317125 
L 123.629037 62.817257 
L 124.281391 63.951345 
L 125.586098 67.277389 
L 126.455902 67.286744 
L 126.890804 66.958625 
L 127.325707 66.494189 
L 127.97806 64.670781 
L 128.412962 63.615489 
L 128.847865 63.254717 
L 129.282767 63.010775 
L 129.500218 63.119543 
L 130.587474 62.985806 
L 130.804925 63.107407 
L 131.457278 63.778794 
L 131.89218 63.735197 
L 132.979436 65.127174 
L 133.849241 65.585488 
L 134.066692 65.824795 
L 134.284143 65.888606 
L 134.501594 65.810919 
L 134.936496 65.935707 
L 135.371399 66.011129 
L 135.806301 66.239016 
L 136.458654 65.570673 
L 136.893557 65.180261 
L 137.328459 64.844165 
L 137.763361 64.128165 
L 138.415715 62.840732 
L 139.068068 61.878157 
L 139.285519 61.767829 
L 139.937872 62.016691 
L 140.590226 63.159825 
L 141.677482 65.296921 
L 142.547286 65.833574 
L 143.19964 65.838704 
L 143.851993 65.02812 
L 144.286895 64.154419 
L 145.1567 62.994251 
L 145.591602 62.728173 
L 146.026504 62.968902 
L 146.461407 62.732448 
L 146.678858 62.838502 
L 148.201016 65.032741 
L 148.418467 64.966205 
L 149.288271 66.500897 
L 149.940625 66.885133 
L 150.375527 67.033718 
L 150.592978 66.919333 
L 151.02788 66.359369 
L 151.462783 66.112218 
L 151.680234 66.133165 
L 152.550038 65.793494 
L 152.984941 66.307345 
L 153.419843 66.368823 
L 153.854745 66.264019 
L 154.289647 66.087705 
L 154.942001 65.333232 
L 155.376903 64.867148 
L 156.246708 64.379229 
L 156.68161 64.214652 
L 157.116512 64.125957 
L 157.768866 63.799653 
L 158.421219 64.1271 
L 158.856121 64.137094 
L 159.291024 63.864184 
L 159.508475 63.901601 
L 160.378279 65.181812 
L 161.030633 66.098821 
L 161.248084 66.144595 
L 161.682986 65.635253 
L 162.117888 65.140257 
L 162.987693 64.937522 
L 163.205144 65.108322 
L 163.640046 64.975151 
L 164.509851 65.46925 
L 164.944753 65.912143 
L 165.814558 65.446513 
L 167.119264 64.160159 
L 167.336716 64.103454 
L 167.554167 64.285898 
L 167.989069 63.950059 
L 168.423971 64.183263 
L 168.858874 64.281355 
L 169.728678 64.921474 
L 170.381031 65.275752 
L 170.598483 65.31988 
L 171.468287 64.418139 
L 171.685738 64.3375 
L 172.338092 63.375435 
L 172.990445 63.30679 
L 173.642799 63.643175 
L 173.86025 63.852205 
L 174.295152 63.933133 
L 174.947505 64.523464 
L 175.382408 64.513619 
L 175.81731 64.803212 
L 176.034761 64.856401 
L 176.469663 65.184667 
L 176.687114 65.083586 
L 177.339468 65.472568 
L 177.77437 65.28451 
L 178.426723 64.509327 
L 178.861626 63.717794 
L 179.079077 63.51076 
L 180.383784 63.261765 
L 180.818686 63.750269 
L 181.253588 64.387261 
L 181.471039 64.50227 
L 181.905942 64.575717 
L 182.340844 65.040487 
L 182.558295 65.090819 
L 183.210648 65.51275 
L 183.645551 65.591165 
L 183.863002 65.865034 
L 184.080453 65.950831 
L 184.515355 65.663646 
L 184.950258 65.090659 
L 185.167709 65.11681 
L 185.602611 65.469685 
L 186.907318 65.567608 
L 187.559671 65.877708 
L 187.994573 65.600816 
L 188.429476 65.393203 
L 188.646927 65.422597 
L 188.864378 65.24975 
L 189.29928 64.703211 
L 190.386536 64.168924 
L 190.603987 64.360758 
L 190.821438 64.403264 
L 191.691243 65.253445 
L 192.343596 66.001315 
L 192.778498 65.929618 
L 194.735559 64.21641 
L 195.387912 64.013954 
L 196.257717 64.285944 
L 196.692619 64.315816 
L 197.127521 64.614349 
L 197.779875 64.921259 
L 198.214777 64.739312 
L 199.302033 65.466619 
L 199.954386 65.777702 
L 200.171837 65.658936 
L 200.82419 64.706607 
L 201.259093 64.579101 
L 202.5638 63.427647 
L 203.216153 62.836656 
L 204.085957 63.04239 
L 204.52086 63.52007 
L 205.173213 63.927298 
L 205.390664 63.919895 
L 206.043018 64.418972 
L 206.260469 64.629185 
L 207.130273 65.978605 
L 207.565176 66.268897 
L 208.217529 66.211437 
L 209.087334 65.576363 
L 209.522236 65.358661 
L 209.957138 65.275149 
L 210.39204 64.892423 
L 211.261845 63.495357 
L 211.696747 63.033155 
L 212.13165 63.025419 
L 212.349101 63.100647 
L 213.218905 63.014241 
L 213.436356 63.050793 
L 213.653807 63.286479 
L 214.306161 64.804407 
L 214.523612 64.958677 
L 214.958514 64.760506 
L 215.175965 64.796239 
L 215.393417 64.99077 
L 215.828319 65.509952 
L 216.263221 65.622491 
L 216.480672 65.524567 
L 217.350477 64.418459 
L 217.785379 64.553131 
L 218.00283 64.454609 
L 218.437732 64.484916 
L 218.655184 64.293901 
L 218.872635 64.360822 
L 219.090086 64.561092 
L 219.307537 64.5798 
L 219.95989 64.236053 
L 220.394793 64.155857 
L 220.829695 64.237432 
L 221.047146 64.132108 
L 221.264597 64.175864 
L 222.351853 65.240063 
L 222.786755 65.204536 
L 223.221657 64.710896 
L 224.091462 63.523409 
L 224.526364 63.561056 
L 225.178718 63.948925 
L 225.61362 63.719603 
L 226.048522 63.915744 
L 226.700876 63.681922 
L 226.918327 63.722685 
L 227.135778 63.582475 
L 227.57068 62.891678 
L 228.223034 62.589533 
L 228.440485 62.679177 
L 229.310289 63.909188 
L 229.745191 63.907639 
L 230.397545 64.434505 
L 230.614996 64.575268 
L 230.832447 64.868521 
L 231.919703 67.664618 
L 232.137154 67.780274 
L 232.572056 67.676525 
L 233.006959 67.477973 
L 233.441861 66.814048 
L 234.964019 63.829585 
L 235.398921 63.283837 
L 236.051274 63.283165 
L 236.921079 64.229169 
L 238.225786 66.755329 
L 238.660688 67.09692 
L 239.530493 66.830631 
L 239.965395 66.581146 
L 242.79226 65.334496 
L 243.009711 65.199683 
L 243.662064 65.141 
L 244.096966 64.871575 
L 244.531869 64.678527 
L 245.184222 64.798035 
L 245.619124 65.223384 
L 246.70638 64.664516 
L 247.141282 64.669318 
L 247.358733 64.763079 
L 247.576185 64.660283 
L 248.011087 64.280502 
L 248.66344 63.84921 
L 249.098343 63.501971 
L 249.533245 64.182532 
L 250.185598 65.186362 
L 251.272854 65.146355 
L 251.925207 64.872664 
L 252.36011 64.339625 
L 252.795012 63.688942 
L 253.229914 63.423218 
L 253.664816 63.557123 
L 253.882268 63.671044 
L 254.31717 63.444973 
L 254.752072 63.469669 
L 255.186974 63.779424 
L 255.839328 64.039164 
L 256.056779 64.2607 
L 256.491681 64.982217 
L 256.926583 65.380961 
L 257.361486 66.152193 
L 258.448741 66.639053 
L 258.883644 66.249808 
L 259.535997 65.377854 
L 260.405802 64.621155 
L 260.840704 64.641332 
L 261.710508 63.795321 
L 262.580313 63.808796 
L 262.797764 63.950175 
L 263.232666 64.561405 
L 263.88502 65.030315 
L 265.189727 65.198925 
L 265.84208 65.525971 
L 266.494433 65.52324 
L 267.581689 64.826755 
L 268.016591 64.078774 
L 268.234043 63.99062 
L 270.626005 65.537035 
L 270.843456 65.489216 
L 271.278358 65.225789 
L 271.713261 65.122686 
L 272.148163 64.895538 
L 273.017967 65.344474 
L 273.235419 65.286329 
L 273.670321 65.064721 
L 274.105223 64.684599 
L 274.975028 63.51193 
L 275.192479 63.292093 
L 275.40993 63.350285 
L 276.714637 65.400953 
L 278.236795 64.889333 
L 278.671697 65.054529 
L 279.32405 64.710452 
L 279.758953 64.123015 
L 279.976404 64.151031 
L 280.411306 64.579889 
L 280.846208 65.236304 
L 281.498562 65.290182 
L 281.716013 65.171942 
L 282.585817 65.258349 
L 283.673073 65.075924 
L 283.890524 64.916632 
L 284.107975 64.911639 
L 284.542878 65.108245 
L 284.97778 65.078949 
L 285.412682 65.030985 
L 286.065036 65.031915 
L 286.499938 64.994109 
L 287.587194 65.017873 
L 288.022096 64.689433 
L 288.456998 64.287881 
L 289.109352 63.677923 
L 289.326803 63.677008 
L 289.544254 63.811741 
L 290.631509 65.165375 
L 290.848961 65.262034 
L 291.066412 65.499287 
L 291.283863 65.461338 
L 291.718765 65.096518 
L 292.153667 64.751791 
L 292.371119 64.854125 
L 292.806021 65.540805 
L 293.240923 65.806988 
L 293.458374 65.733951 
L 294.328179 64.967024 
L 294.980532 64.515754 
L 295.197983 64.662378 
L 295.632886 64.633154 
L 296.067788 64.708094 
L 296.285239 64.401621 
L 296.50269 64.432739 
L 297.155044 74.494833 
L 297.807397 82.839288 
L 298.242299 86.466006 
L 298.894653 90.056247 
L 299.764457 92.65601 
L 300.851713 94.766554 
L 302.15642 96.739719 
L 303.026224 97.668815 
L 304.765833 98.423496 
L 305.200736 98.538486 
L 305.635638 98.677488 
L 309.114856 99.368612 
L 309.767209 99.337228 
L 310.419563 99.459851 
L 311.071916 99.458015 
L 313.028976 99.741773 
L 313.898781 99.769904 
L 314.333683 99.755562 
L 314.986037 99.773966 
L 315.855841 99.70404 
L 317.160548 99.831655 
L 318.682706 99.805712 
L 319.335059 99.840155 
L 319.987413 99.986754 
L 320.639766 99.977207 
L 321.509571 100.055174 
L 322.596826 100.016194 
L 325.423691 100.061901 
L 325.858593 100.198803 
L 326.293496 100.181833 
L 326.728398 100.246773 
L 328.468007 100.322705 
L 329.12036 100.436686 
L 329.772714 100.473916 
L 330.85997 100.509757 
L 331.294872 100.424772 
L 332.164676 100.556494 
L 333.251932 100.454779 
L 334.556639 100.508858 
L 335.208992 100.528266 
L 336.73115 100.763036 
L 337.383504 100.661464 
L 337.818406 100.59261 
L 338.470759 100.514906 
L 339.775466 100.308421 
L 340.42782 100.323309 
L 340.862722 100.231504 
L 341.732526 100.037436 
L 342.167429 99.905491 
L 343.472135 99.941616 
L 343.907038 100.086114 
L 349.343316 100.521642 
L 350.213121 100.69644 
L 351.735279 100.666571 
L 353.039985 100.458869 
L 353.90979 100.586459 
L 354.779594 100.521727 
L 355.649399 100.30226 
L 357.389008 100.082953 
L 359.998422 99.989555 
L 360.433324 99.909942 
L 361.085677 99.946732 
L 361.52058 99.935689 
L 361.955482 100.049918 
L 363.042738 99.882607 
L 364.782347 99.538564 
L 365.4347 99.481106 
L 365.869602 99.519889 
L 366.304505 99.354331 
L 367.174309 99.245549 
L 367.826663 99.179985 
L 370.436076 99.426559 
L 371.523332 99.399841 
L 374.567648 99.283474 
L 375.220001 99.30451 
L 379.351573 99.178287 
L 379.786475 99.077574 
L 380.65628 99.094065 
L 381.308633 99.096793 
L 381.743535 99.074506 
L 382.395889 98.998118 
L 383.265693 99.032969 
L 384.352949 99.342704 
L 385.657656 99.376249 
L 386.962363 99.527215 
L 390.006678 99.364725 
L 390.876483 99.432833 
L 391.963739 99.565033 
L 393.920799 99.760752 
L 394.355701 99.760217 
L 395.008055 99.782278 
L 398.05237 99.762583 
L 398.487273 99.788809 
L 398.487273 99.788809 
" style="fill:none;stroke:#000000;stroke-linecap:square;stroke-width:1.5;"/>
   </g>
   <g id="patch_3">
    <path d="M 57.6 307.584 
L 57.6 41.472 
" style="fill:none;stroke:#000000;stroke-linecap:square;stroke-linejoin:miter;stroke-width:0.8;"/>
   </g>
   <g id="patch_4">
    <path d="M 414.72 307.584 
L 414.72 41.472 
" style="fill:none;stroke:#000000;stroke-linecap:square;stroke-linejoin:miter;stroke-width:0.8;"/>
   </g>
   <g id="patch_5">
    <path d="M 57.6 307.584 
L 414.72 307.584 
" style="fill:none;stroke:#000000;stroke-linecap:square;stroke-linejoin:miter;stroke-width:0.8;"/>
   </g>
   <g id="patch_6">
    <path d="M 57.6 41.472 
L 414.72 41.472 
" style="fill:none;stroke:#000000;stroke-linecap:square;stroke-linejoin:miter;stroke-width:0.8;"/>
   </g>
  </g>
 </g>
 <defs>
  <clipPath id="pf9459c4206">
   <rect height="266.112" width="357.12" x="57.6" y="41.472"/>
  </clipPath>
 </defs>
</svg>
