<?xml version="1.0" encoding="utf-8" standalone="no"?>
<!DOCTYPE svg PUBLIC "-//W3C//DTD SVG 1.1//EN"
  "http://www.w3.org/Graphics/SVG/1.1/DTD/svg11.dtd">
<svg height="345.6pt" version="1.1" viewBox="0 0 460.8 345.6" width="460.8pt" xmlns="http://www.w3.org/2000/svg" xmlns:xlink="http://www.w3.org/1999/xlink">
 <metadata>
  <rdf:RDF xmlns:cc="http://creativecommons.org/ns#" xmlns:dc="http://purl.org/dc/elements/1.1/" xmlns:rdf="http://www.w3.org/1999/02/22-rdf-syntax-ns#">
   <cc:Work>
    <dc:type rdf:resource="http://purl.org/dc/dcmitype/StillImage"/>
    <dc:date>2024-08-06T14:44:45.349852</dc:date>
    <dc:format>image/svg+xml</dc:format>
    <dc:creator>
     <cc:Agent>
      <dc:title>Matplotlib v3.4.2, https://matplotlib.org/</dc:title>
     </cc:Agent>
    </dc:creator>
   </cc:Work>
  </rdf:RDF>
 </metadata>
 <defs>
  <style type="text/css">*{stroke-linecap:butt;stroke-linejoin:round;}</style>
 </defs>
 <g id="figure_1">
  <g id="patch_1">
   <path d="M 0 345.6 
L 460.8 345.6 
L 460.8 0 
L 0 0 
z
" style="fill:#ffffff;"/>
  </g>
  <g id="axes_1">
   <g id="patch_2">
    <path d="M 57.6 307.584 
L 414.72 307.584 
L 414.72 41.472 
L 57.6 41.472 
z
" style="fill:#ffffff;"/>
   </g>
   <g id="matplotlib.axis_1">
    <g id="xtick_1">
     <g id="line2d_1">
      <defs>
       <path d="M 0 0 
L 0 3.5 
" id="m1e81af936e" style="stroke:#000000;stroke-width:0.8;"/>
      </defs>
      <g>
       <use style="stroke:#000000;stroke-width:0.8;" x="95.211629" xlink:href="#m1e81af936e" y="307.584"/>
      </g>
     </g>
     <g id="text_1">
      <!-- 0.2 -->
      <g transform="translate(87.260067 322.182437)scale(0.1 -0.1)">
       <defs>
        <path d="M 2034 4250 
Q 1547 4250 1301 3770 
Q 1056 3291 1056 2328 
Q 1056 1369 1301 889 
Q 1547 409 2034 409 
Q 2525 409 2770 889 
Q 3016 1369 3016 2328 
Q 3016 3291 2770 3770 
Q 2525 4250 2034 4250 
z
M 2034 4750 
Q 2819 4750 3233 4129 
Q 3647 3509 3647 2328 
Q 3647 1150 3233 529 
Q 2819 -91 2034 -91 
Q 1250 -91 836 529 
Q 422 1150 422 2328 
Q 422 3509 836 4129 
Q 1250 4750 2034 4750 
z
" id="DejaVuSans-30" transform="scale(0.015625)"/>
        <path d="M 684 794 
L 1344 794 
L 1344 0 
L 684 0 
L 684 794 
z
" id="DejaVuSans-2e" transform="scale(0.015625)"/>
        <path d="M 1228 531 
L 3431 531 
L 3431 0 
L 469 0 
L 469 531 
Q 828 903 1448 1529 
Q 2069 2156 2228 2338 
Q 2531 2678 2651 2914 
Q 2772 3150 2772 3378 
Q 2772 3750 2511 3984 
Q 2250 4219 1831 4219 
Q 1534 4219 1204 4116 
Q 875 4013 500 3803 
L 500 4441 
Q 881 4594 1212 4672 
Q 1544 4750 1819 4750 
Q 2544 4750 2975 4387 
Q 3406 4025 3406 3419 
Q 3406 3131 3298 2873 
Q 3191 2616 2906 2266 
Q 2828 2175 2409 1742 
Q 1991 1309 1228 531 
z
" id="DejaVuSans-32" transform="scale(0.015625)"/>
       </defs>
       <use xlink:href="#DejaVuSans-30"/>
       <use x="63.623047" xlink:href="#DejaVuSans-2e"/>
       <use x="95.410156" xlink:href="#DejaVuSans-32"/>
      </g>
     </g>
    </g>
    <g id="xtick_2">
     <g id="line2d_2">
      <g>
       <use style="stroke:#000000;stroke-width:0.8;" x="139.20545" xlink:href="#m1e81af936e" y="307.584"/>
      </g>
     </g>
     <g id="text_2">
      <!-- 0.4 -->
      <g transform="translate(131.253887 322.182437)scale(0.1 -0.1)">
       <defs>
        <path d="M 2419 4116 
L 825 1625 
L 2419 1625 
L 2419 4116 
z
M 2253 4666 
L 3047 4666 
L 3047 1625 
L 3713 1625 
L 3713 1100 
L 3047 1100 
L 3047 0 
L 2419 0 
L 2419 1100 
L 313 1100 
L 313 1709 
L 2253 4666 
z
" id="DejaVuSans-34" transform="scale(0.015625)"/>
       </defs>
       <use xlink:href="#DejaVuSans-30"/>
       <use x="63.623047" xlink:href="#DejaVuSans-2e"/>
       <use x="95.410156" xlink:href="#DejaVuSans-34"/>
      </g>
     </g>
    </g>
    <g id="xtick_3">
     <g id="line2d_3">
      <g>
       <use style="stroke:#000000;stroke-width:0.8;" x="183.19927" xlink:href="#m1e81af936e" y="307.584"/>
      </g>
     </g>
     <g id="text_3">
      <!-- 0.6 -->
      <g transform="translate(175.247707 322.182437)scale(0.1 -0.1)">
       <defs>
        <path d="M 2113 2584 
Q 1688 2584 1439 2293 
Q 1191 2003 1191 1497 
Q 1191 994 1439 701 
Q 1688 409 2113 409 
Q 2538 409 2786 701 
Q 3034 994 3034 1497 
Q 3034 2003 2786 2293 
Q 2538 2584 2113 2584 
z
M 3366 4563 
L 3366 3988 
Q 3128 4100 2886 4159 
Q 2644 4219 2406 4219 
Q 1781 4219 1451 3797 
Q 1122 3375 1075 2522 
Q 1259 2794 1537 2939 
Q 1816 3084 2150 3084 
Q 2853 3084 3261 2657 
Q 3669 2231 3669 1497 
Q 3669 778 3244 343 
Q 2819 -91 2113 -91 
Q 1303 -91 875 529 
Q 447 1150 447 2328 
Q 447 3434 972 4092 
Q 1497 4750 2381 4750 
Q 2619 4750 2861 4703 
Q 3103 4656 3366 4563 
z
" id="DejaVuSans-36" transform="scale(0.015625)"/>
       </defs>
       <use xlink:href="#DejaVuSans-30"/>
       <use x="63.623047" xlink:href="#DejaVuSans-2e"/>
       <use x="95.410156" xlink:href="#DejaVuSans-36"/>
      </g>
     </g>
    </g>
    <g id="xtick_4">
     <g id="line2d_4">
      <g>
       <use style="stroke:#000000;stroke-width:0.8;" x="227.19309" xlink:href="#m1e81af936e" y="307.584"/>
      </g>
     </g>
     <g id="text_4">
      <!-- 0.8 -->
      <g transform="translate(219.241528 322.182437)scale(0.1 -0.1)">
       <defs>
        <path d="M 2034 2216 
Q 1584 2216 1326 1975 
Q 1069 1734 1069 1313 
Q 1069 891 1326 650 
Q 1584 409 2034 409 
Q 2484 409 2743 651 
Q 3003 894 3003 1313 
Q 3003 1734 2745 1975 
Q 2488 2216 2034 2216 
z
M 1403 2484 
Q 997 2584 770 2862 
Q 544 3141 544 3541 
Q 544 4100 942 4425 
Q 1341 4750 2034 4750 
Q 2731 4750 3128 4425 
Q 3525 4100 3525 3541 
Q 3525 3141 3298 2862 
Q 3072 2584 2669 2484 
Q 3125 2378 3379 2068 
Q 3634 1759 3634 1313 
Q 3634 634 3220 271 
Q 2806 -91 2034 -91 
Q 1263 -91 848 271 
Q 434 634 434 1313 
Q 434 1759 690 2068 
Q 947 2378 1403 2484 
z
M 1172 3481 
Q 1172 3119 1398 2916 
Q 1625 2713 2034 2713 
Q 2441 2713 2670 2916 
Q 2900 3119 2900 3481 
Q 2900 3844 2670 4047 
Q 2441 4250 2034 4250 
Q 1625 4250 1398 4047 
Q 1172 3844 1172 3481 
z
" id="DejaVuSans-38" transform="scale(0.015625)"/>
       </defs>
       <use xlink:href="#DejaVuSans-30"/>
       <use x="63.623047" xlink:href="#DejaVuSans-2e"/>
       <use x="95.410156" xlink:href="#DejaVuSans-38"/>
      </g>
     </g>
    </g>
    <g id="xtick_5">
     <g id="line2d_5">
      <g>
       <use style="stroke:#000000;stroke-width:0.8;" x="271.18691" xlink:href="#m1e81af936e" y="307.584"/>
      </g>
     </g>
     <g id="text_5">
      <!-- 1.0 -->
      <g transform="translate(263.235348 322.182437)scale(0.1 -0.1)">
       <defs>
        <path d="M 794 531 
L 1825 531 
L 1825 4091 
L 703 3866 
L 703 4441 
L 1819 4666 
L 2450 4666 
L 2450 531 
L 3481 531 
L 3481 0 
L 794 0 
L 794 531 
z
" id="DejaVuSans-31" transform="scale(0.015625)"/>
       </defs>
       <use xlink:href="#DejaVuSans-31"/>
       <use x="63.623047" xlink:href="#DejaVuSans-2e"/>
       <use x="95.410156" xlink:href="#DejaVuSans-30"/>
      </g>
     </g>
    </g>
    <g id="xtick_6">
     <g id="line2d_6">
      <g>
       <use style="stroke:#000000;stroke-width:0.8;" x="315.18073" xlink:href="#m1e81af936e" y="307.584"/>
      </g>
     </g>
     <g id="text_6">
      <!-- 1.2 -->
      <g transform="translate(307.229168 322.182437)scale(0.1 -0.1)">
       <use xlink:href="#DejaVuSans-31"/>
       <use x="63.623047" xlink:href="#DejaVuSans-2e"/>
       <use x="95.410156" xlink:href="#DejaVuSans-32"/>
      </g>
     </g>
    </g>
    <g id="xtick_7">
     <g id="line2d_7">
      <g>
       <use style="stroke:#000000;stroke-width:0.8;" x="359.174551" xlink:href="#m1e81af936e" y="307.584"/>
      </g>
     </g>
     <g id="text_7">
      <!-- 1.4 -->
      <g transform="translate(351.222988 322.182437)scale(0.1 -0.1)">
       <use xlink:href="#DejaVuSans-31"/>
       <use x="63.623047" xlink:href="#DejaVuSans-2e"/>
       <use x="95.410156" xlink:href="#DejaVuSans-34"/>
      </g>
     </g>
    </g>
    <g id="xtick_8">
     <g id="line2d_8">
      <g>
       <use style="stroke:#000000;stroke-width:0.8;" x="403.168371" xlink:href="#m1e81af936e" y="307.584"/>
      </g>
     </g>
     <g id="text_8">
      <!-- 1.6 -->
      <g transform="translate(395.216808 322.182437)scale(0.1 -0.1)">
       <use xlink:href="#DejaVuSans-31"/>
       <use x="63.623047" xlink:href="#DejaVuSans-2e"/>
       <use x="95.410156" xlink:href="#DejaVuSans-36"/>
      </g>
     </g>
    </g>
   </g>
   <g id="matplotlib.axis_2">
    <g id="ytick_1">
     <g id="line2d_9">
      <defs>
       <path d="M 0 0 
L -3.5 0 
" id="mbf544d817e" style="stroke:#000000;stroke-width:0.8;"/>
      </defs>
      <g>
       <use style="stroke:#000000;stroke-width:0.8;" x="57.6" xlink:href="#mbf544d817e" y="300.167074"/>
      </g>
     </g>
     <g id="text_9">
      <!-- −120 -->
      <g transform="translate(23.132812 303.966293)scale(0.1 -0.1)">
       <defs>
        <path d="M 678 2272 
L 4684 2272 
L 4684 1741 
L 678 1741 
L 678 2272 
z
" id="DejaVuSans-2212" transform="scale(0.015625)"/>
       </defs>
       <use xlink:href="#DejaVuSans-2212"/>
       <use x="83.789062" xlink:href="#DejaVuSans-31"/>
       <use x="147.412109" xlink:href="#DejaVuSans-32"/>
       <use x="211.035156" xlink:href="#DejaVuSans-30"/>
      </g>
     </g>
    </g>
    <g id="ytick_2">
     <g id="line2d_10">
      <g>
       <use style="stroke:#000000;stroke-width:0.8;" x="57.6" xlink:href="#mbf544d817e" y="262.920007"/>
      </g>
     </g>
     <g id="text_10">
      <!-- −100 -->
      <g transform="translate(23.132812 266.719226)scale(0.1 -0.1)">
       <use xlink:href="#DejaVuSans-2212"/>
       <use x="83.789062" xlink:href="#DejaVuSans-31"/>
       <use x="147.412109" xlink:href="#DejaVuSans-30"/>
       <use x="211.035156" xlink:href="#DejaVuSans-30"/>
      </g>
     </g>
    </g>
    <g id="ytick_3">
     <g id="line2d_11">
      <g>
       <use style="stroke:#000000;stroke-width:0.8;" x="57.6" xlink:href="#mbf544d817e" y="225.67294"/>
      </g>
     </g>
     <g id="text_11">
      <!-- −80 -->
      <g transform="translate(29.495313 229.472158)scale(0.1 -0.1)">
       <use xlink:href="#DejaVuSans-2212"/>
       <use x="83.789062" xlink:href="#DejaVuSans-38"/>
       <use x="147.412109" xlink:href="#DejaVuSans-30"/>
      </g>
     </g>
    </g>
    <g id="ytick_4">
     <g id="line2d_12">
      <g>
       <use style="stroke:#000000;stroke-width:0.8;" x="57.6" xlink:href="#mbf544d817e" y="188.425872"/>
      </g>
     </g>
     <g id="text_12">
      <!-- −60 -->
      <g transform="translate(29.495313 192.225091)scale(0.1 -0.1)">
       <use xlink:href="#DejaVuSans-2212"/>
       <use x="83.789062" xlink:href="#DejaVuSans-36"/>
       <use x="147.412109" xlink:href="#DejaVuSans-30"/>
      </g>
     </g>
    </g>
    <g id="ytick_5">
     <g id="line2d_13">
      <g>
       <use style="stroke:#000000;stroke-width:0.8;" x="57.6" xlink:href="#mbf544d817e" y="151.178805"/>
      </g>
     </g>
     <g id="text_13">
      <!-- −40 -->
      <g transform="translate(29.495313 154.978024)scale(0.1 -0.1)">
       <use xlink:href="#DejaVuSans-2212"/>
       <use x="83.789062" xlink:href="#DejaVuSans-34"/>
       <use x="147.412109" xlink:href="#DejaVuSans-30"/>
      </g>
     </g>
    </g>
    <g id="ytick_6">
     <g id="line2d_14">
      <g>
       <use style="stroke:#000000;stroke-width:0.8;" x="57.6" xlink:href="#mbf544d817e" y="113.931738"/>
      </g>
     </g>
     <g id="text_14">
      <!-- −20 -->
      <g transform="translate(29.495313 117.730957)scale(0.1 -0.1)">
       <use xlink:href="#DejaVuSans-2212"/>
       <use x="83.789062" xlink:href="#DejaVuSans-32"/>
       <use x="147.412109" xlink:href="#DejaVuSans-30"/>
      </g>
     </g>
    </g>
    <g id="ytick_7">
     <g id="line2d_15">
      <g>
       <use style="stroke:#000000;stroke-width:0.8;" x="57.6" xlink:href="#mbf544d817e" y="76.684671"/>
      </g>
     </g>
     <g id="text_15">
      <!-- 0 -->
      <g transform="translate(44.2375 80.483889)scale(0.1 -0.1)">
       <use xlink:href="#DejaVuSans-30"/>
      </g>
     </g>
    </g>
   </g>
   <g id="line2d_16">
    <path clip-path="url(#p9bd99a351a)" d="M 73.832727 184.680945 
L 74.26763 184.651867 
L 74.702532 184.665957 
L 76.007239 184.732677 
L 76.442141 184.669026 
L 76.659592 184.725291 
L 77.094494 184.674453 
L 77.746848 184.662861 
L 78.18175 184.804474 
L 78.399201 184.613022 
L 79.051555 184.683735 
L 80.13881 193.287929 
L 81.660968 202.698179 
L 83.183126 210.774339 
L 86.444893 225.581863 
L 88.184502 232.60475 
L 91.66372 244.520111 
L 94.273134 252.330553 
L 95.795292 256.19571 
L 96.665097 258.511348 
L 99.057059 264.016763 
L 102.101375 269.885229 
L 106.232946 276.524877 
L 106.667849 277.098204 
L 107.320202 278.141362 
L 108.624909 279.816428 
L 109.277262 280.44676 
L 112.104127 283.151621 
L 113.191383 283.880097 
L 113.843736 284.385358 
L 115.583345 285.835827 
L 117.757857 286.981534 
L 119.497466 288.207763 
L 119.932368 288.427764 
L 121.671977 289.750967 
L 123.411586 290.526867 
L 124.498842 290.978223 
L 124.716293 291.021937 
L 125.368646 291.48796 
L 126.238451 291.742449 
L 126.890804 291.845626 
L 128.847865 292.385717 
L 130.152571 292.83004 
L 130.804925 292.830384 
L 131.674729 293.033548 
L 132.109632 293.04349 
L 132.761985 293.211863 
L 134.936496 293.415506 
L 139.50297 294.126472 
L 139.937872 294.228069 
L 141.894933 294.337282 
L 142.764737 294.144378 
L 143.19964 294.308488 
L 143.634542 294.441312 
L 144.286895 294.427142 
L 144.939249 294.454773 
L 145.1567 294.369556 
L 145.809053 294.484529 
L 146.896309 294.734575 
L 147.766113 294.809082 
L 147.983565 294.806345 
L 148.418467 295.008353 
L 148.853369 294.934412 
L 149.723174 294.972097 
L 150.158076 294.909448 
L 150.810429 295.087532 
L 152.550038 295.131191 
L 152.984941 295.251737 
L 153.202392 295.13774 
L 153.637294 294.24615 
L 154.072196 294.001361 
L 154.942001 293.952458 
L 156.68161 294.323712 
L 158.203768 294.606697 
L 159.073572 294.796479 
L 159.943377 294.806361 
L 161.248084 294.746558 
L 162.117888 294.897927 
L 162.552791 294.94234 
L 162.987693 295.053086 
L 163.640046 295.120819 
L 166.466911 295.488 
L 166.901813 295.322927 
L 167.336716 295.386978 
L 167.771618 295.471608 
L 168.858874 294.866638 
L 169.511227 294.282129 
L 170.16358 293.903159 
L 170.815934 293.504082 
L 172.120641 292.990604 
L 172.555543 292.946757 
L 173.425347 292.763345 
L 173.642799 292.814889 
L 174.295152 292.602941 
L 174.730054 292.575976 
L 175.81731 292.654912 
L 176.252212 292.744221 
L 179.079077 293.074713 
L 179.513979 293.199235 
L 181.036137 293.051491 
L 182.993197 293.139106 
L 183.645551 293.321237 
L 184.732806 293.396133 
L 185.38516 293.355656 
L 186.472416 293.444607 
L 186.907318 293.610392 
L 187.777122 293.673963 
L 188.212025 293.682795 
L 189.734183 293.670652 
L 190.169085 293.757995 
L 190.603987 293.930598 
L 191.908694 293.947276 
L 192.561047 293.924189 
L 194.083205 294.123041 
L 194.735559 294.198113 
L 196.040265 293.43496 
L 196.91007 293.402327 
L 197.344972 293.353455 
L 197.997326 293.430698 
L 199.302033 293.615563 
L 199.954386 293.511589 
L 200.389288 293.537216 
L 201.259093 293.689422 
L 202.5638 293.669903 
L 204.52086 293.647698 
L 204.955762 293.87705 
L 205.390664 293.866273 
L 206.260469 294.044542 
L 207.565176 294.091516 
L 208.000078 294.170192 
L 210.174589 294.240368 
L 210.609492 294.198326 
L 211.479296 294.211373 
L 211.914198 294.181339 
L 212.349101 294.301629 
L 214.523612 294.396485 
L 215.175965 294.408371 
L 215.610868 294.450777 
L 215.828319 294.539346 
L 216.263221 294.498492 
L 217.350477 294.515789 
L 217.785379 294.41293 
L 218.220281 294.430083 
L 220.612244 294.277593 
L 221.047146 294.221908 
L 221.482048 294.139284 
L 223.004206 294.067895 
L 223.874011 294.248297 
L 225.61362 294.29561 
L 226.483424 294.42113 
L 226.918327 294.455064 
L 227.353229 294.441876 
L 227.788131 294.360175 
L 228.440485 294.240223 
L 228.875387 294.25801 
L 230.832447 294.580458 
L 231.484801 294.472255 
L 231.919703 294.512204 
L 232.572056 294.367772 
L 236.268726 294.598301 
L 238.660688 294.608216 
L 239.09559 294.617717 
L 239.530493 294.593165 
L 241.705004 294.489609 
L 243.227162 294.098282 
L 244.096966 294.058819 
L 244.314418 294.004512 
L 244.74932 294.165627 
L 247.141282 294.198934 
L 247.793636 294.253136 
L 248.66344 294.390672 
L 251.272854 294.648504 
L 251.925207 294.661817 
L 253.664816 294.682037 
L 254.31717 294.693648 
L 256.056779 294.696099 
L 257.796388 294.596724 
L 260.18835 293.583154 
L 260.840704 293.462328 
L 261.275606 293.31046 
L 262.145411 293.311323 
L 262.580313 293.18985 
L 263.015215 293.247082 
L 263.450118 293.098948 
L 264.537373 292.867583 
L 264.972275 292.788153 
L 267.146787 292.934027 
L 268.234043 292.820538 
L 268.451494 292.718503 
L 268.886396 292.713502 
L 269.538749 292.541595 
L 269.973652 292.619417 
L 270.408554 292.665838 
L 272.148163 292.766462 
L 272.800516 292.880033 
L 273.45287 292.993722 
L 273.887772 293.177785 
L 274.322674 293.104621 
L 274.757577 293.155458 
L 275.192479 293.273273 
L 275.844832 293.365474 
L 276.497186 293.513815 
L 276.932088 293.529281 
L 277.584441 293.774525 
L 281.06366 294.055024 
L 281.716013 294.110617 
L 282.150915 294.087988 
L 282.585817 294.11785 
L 283.02072 294.012141 
L 283.890524 294.161594 
L 284.325427 294.189927 
L 284.97778 294.305155 
L 286.065036 294.268607 
L 287.152291 294.14577 
L 289.326803 294.205917 
L 290.414058 293.820393 
L 290.848961 293.792675 
L 292.371119 293.966846 
L 293.458374 293.978732 
L 294.110728 293.954136 
L 295.197983 293.880958 
L 295.632886 294.029754 
L 296.50269 294.008362 
L 297.807397 283.900852 
L 298.894653 277.812129 
L 301.721517 264.45845 
L 303.026224 259.159978 
L 305.200736 251.3655 
L 306.287991 248.177436 
L 309.767209 239.032558 
L 311.72427 234.569522 
L 312.811525 232.228997 
L 313.463879 231.025298 
L 313.898781 230.289408 
L 315.855841 226.754417 
L 317.377999 224.376855 
L 320.639766 219.869239 
L 321.074668 219.357543 
L 321.944473 218.312189 
L 322.379375 217.821772 
L 322.814278 217.212129 
L 323.24918 216.728992 
L 324.118984 215.740144 
L 324.771338 215.09458 
L 327.815654 211.803554 
L 328.250556 211.475889 
L 329.12036 210.56895 
L 329.555263 210.248459 
L 329.990165 209.766927 
L 330.85997 209.219829 
L 331.294872 208.797354 
L 331.729774 208.598177 
L 332.81703 207.978372 
L 333.251932 207.74089 
L 334.339188 206.889392 
L 334.991541 205.788977 
L 336.078797 205.054829 
L 337.383504 204.581794 
L 337.818406 204.515513 
L 338.68821 204.333021 
L 339.123113 204.319292 
L 339.558015 204.196526 
L 340.42782 204.095558 
L 340.862722 203.906987 
L 341.949977 203.784914 
L 342.167429 203.634954 
L 343.254684 203.597814 
L 343.689587 203.497428 
L 344.124489 203.475673 
L 344.559391 203.365044 
L 345.429196 203.3879 
L 346.081549 203.311796 
L 346.516451 203.261271 
L 347.821158 202.887218 
L 348.25606 202.714779 
L 349.125865 202.608094 
L 349.560767 202.569641 
L 350.213121 202.622585 
L 351.082925 202.603363 
L 352.387632 202.46016 
L 355.214497 202.523595 
L 356.084301 202.499719 
L 357.389008 202.456938 
L 358.041362 202.29826 
L 358.476264 202.279789 
L 358.911166 202.134899 
L 359.346068 202.108586 
L 359.998422 201.738432 
L 360.433324 201.45862 
L 361.085677 201.326205 
L 362.390384 201.272588 
L 362.825286 201.256093 
L 365.652151 201.080997 
L 366.521956 200.902587 
L 368.913918 200.758589 
L 369.348821 200.854306 
L 370.001174 200.634979 
L 370.436076 200.686844 
L 370.870979 200.618551 
L 371.08843 200.503286 
L 372.828039 200.664334 
L 373.262941 200.614939 
L 373.697843 200.54688 
L 374.132746 200.492307 
L 375.00255 200.40167 
L 375.437452 200.411997 
L 375.872355 200.353583 
L 376.742159 200.078505 
L 377.177061 199.914324 
L 379.134122 199.807985 
L 380.438828 199.82514 
L 380.873731 199.739515 
L 381.743535 199.718922 
L 381.960986 199.563695 
L 382.61334 199.69642 
L 383.048242 199.668731 
L 383.700596 199.813424 
L 384.135498 199.760132 
L 384.5704 199.666246 
L 385.005302 199.763803 
L 385.657656 199.736386 
L 386.310009 199.896817 
L 386.744911 199.889473 
L 386.962363 199.815138 
L 387.397265 199.885525 
L 387.832167 199.709576 
L 388.049618 199.637203 
L 388.701972 199.698973 
L 389.354325 199.54522 
L 389.789227 199.679512 
L 390.22413 199.532906 
L 391.528836 199.254709 
L 392.833543 198.970026 
L 393.485897 198.989971 
L 393.920799 198.931879 
L 394.573152 198.870548 
L 395.008055 198.754894 
L 395.442957 198.687629 
L 398.487273 198.830782 
L 398.487273 198.830782 
" style="fill:none;stroke:#000000;stroke-linecap:square;stroke-width:1.5;"/>
   </g>
   <g id="line2d_17">
    <path clip-path="url(#p9bd99a351a)" d="M 73.832727 187.377728 
L 74.26763 187.574715 
L 77.311945 187.900403 
L 78.18175 188.104361 
L 78.616652 188.12561 
L 78.834103 188.136622 
L 79.051555 188.285952 
L 80.13881 191.850046 
L 81.443517 195.209782 
L 85.575089 203.501372 
L 87.314698 206.494188 
L 89.271758 209.724131 
L 89.924111 210.438305 
L 91.881172 211.896587 
L 92.316074 212.432999 
L 92.533525 212.558188 
L 93.403329 213.437908 
L 94.273134 214.191106 
L 94.708036 214.772159 
L 95.577841 215.736255 
L 96.012743 216.297675 
L 96.665097 216.879841 
L 97.534901 217.774817 
L 98.187254 218.465993 
L 103.623533 223.939379 
L 105.145691 224.503852 
L 106.015495 225.284778 
L 106.450398 225.689636 
L 106.8853 226.171494 
L 107.537653 226.699159 
L 109.712165 228.436026 
L 110.147067 228.788524 
L 111.886676 229.906703 
L 112.321578 230.133821 
L 113.191383 230.62323 
L 113.626285 230.770511 
L 114.061187 231.151892 
L 114.930992 231.544876 
L 118.627661 233.719423 
L 120.36727 234.646567 
L 121.019624 235.003624 
L 121.454526 235.374263 
L 124.716293 236.763882 
L 125.368646 237.055782 
L 126.021 237.171237 
L 126.890804 237.194863 
L 127.760609 237.402079 
L 128.195511 237.556701 
L 128.630413 237.867246 
L 129.93512 238.271639 
L 130.370023 238.279573 
L 131.022376 238.591203 
L 131.89218 238.780583 
L 132.327083 238.898729 
L 134.066692 239.264776 
L 134.719045 239.562732 
L 135.371399 239.808311 
L 135.806301 240.104309 
L 136.676105 240.35745 
L 137.111008 240.605582 
L 137.763361 240.739944 
L 138.198263 240.945611 
L 139.50297 241.238236 
L 140.155324 241.196926 
L 142.982188 241.689369 
L 144.069444 241.863635 
L 144.504346 241.886341 
L 145.1567 241.943639 
L 145.809053 242.108894 
L 146.461407 242.315603 
L 146.896309 242.428579 
L 147.983565 242.660081 
L 149.07082 242.659199 
L 152.550038 242.966017 
L 154.072196 243.229879 
L 154.507099 243.220099 
L 154.942001 243.25092 
L 155.376903 243.356758 
L 156.029257 243.402634 
L 157.116512 243.464531 
L 157.551414 243.639945 
L 160.59573 243.662953 
L 161.248084 243.795741 
L 162.335339 243.840449 
L 162.770242 243.759478 
L 163.205144 243.73406 
L 167.989069 244.095075 
L 168.641422 244.269344 
L 171.250836 244.5195 
L 171.685738 244.566901 
L 172.120641 244.687723 
L 172.990445 244.826067 
L 173.425347 244.908235 
L 173.86025 244.834761 
L 174.512603 244.949331 
L 175.382408 244.987009 
L 175.81731 245.156345 
L 178.861626 245.106962 
L 179.296528 245.299594 
L 179.73143 245.286641 
L 182.558295 245.589167 
L 182.993197 245.676257 
L 183.645551 245.672561 
L 184.950258 245.776283 
L 185.38516 245.759987 
L 187.994573 245.842402 
L 188.429476 245.684313 
L 189.081829 245.708875 
L 189.29928 245.47239 
L 189.734183 244.673359 
L 190.386536 244.129659 
L 191.038889 243.835947 
L 191.691243 243.84822 
L 192.126145 243.821069 
L 193.430852 244.07618 
L 193.865754 244.199498 
L 194.300656 244.21604 
L 197.127521 244.586688 
L 197.344972 244.743147 
L 198.432228 244.847139 
L 198.86713 244.913996 
L 199.302033 244.931043 
L 199.736935 245.03629 
L 202.5638 245.546424 
L 203.651055 245.546706 
L 204.303409 245.394794 
L 204.52086 245.562904 
L 207.782627 245.723097 
L 208.43498 245.876024 
L 210.609492 245.867839 
L 211.044394 245.936924 
L 211.479296 245.885534 
L 211.914198 246.032193 
L 212.784003 246.056574 
L 214.523612 246.152994 
L 215.175965 246.118559 
L 215.610868 246.162843 
L 218.872635 246.402332 
L 219.524988 246.438291 
L 220.394793 246.551367 
L 221.047146 246.473067 
L 221.699499 246.522012 
L 222.569304 246.611461 
L 222.786755 246.706809 
L 223.221657 246.696689 
L 224.091462 246.834332 
L 224.526364 246.708809 
L 225.178718 246.700582 
L 226.048522 246.570367 
L 226.483424 246.654557 
L 227.135778 246.613502 
L 228.875387 246.478232 
L 229.310289 246.52548 
L 229.745191 246.522008 
L 230.614996 246.666537 
L 231.049898 246.692898 
L 231.484801 246.718049 
L 231.919703 246.672822 
L 232.572056 246.8484 
L 234.964019 247.455643 
L 236.051274 247.427139 
L 237.355981 247.462301 
L 238.225786 247.558996 
L 238.443237 247.618267 
L 239.313041 247.470367 
L 240.400297 247.412516 
L 241.052651 247.556853 
L 242.357357 247.520914 
L 242.79226 247.374568 
L 243.662064 247.307121 
L 244.314418 247.283816 
L 244.74932 247.286301 
L 247.576185 247.082692 
L 248.880891 247.418018 
L 249.533245 247.431437 
L 249.968147 247.283704 
L 250.403049 247.343849 
L 251.055403 247.338196 
L 253.012463 247.389562 
L 253.447365 247.199026 
L 254.752072 247.016348 
L 257.361486 246.642624 
L 258.013839 246.648595 
L 258.666193 246.609828 
L 259.101095 246.74226 
L 259.970899 246.802518 
L 260.405802 246.81419 
L 261.058155 246.776625 
L 261.710508 246.805831 
L 262.145411 246.714258 
L 262.797764 246.920536 
L 263.667569 246.789523 
L 263.88502 246.837765 
L 264.972275 246.594475 
L 267.79914 246.630201 
L 268.234043 246.574874 
L 269.103847 246.581327 
L 269.538749 246.528316 
L 269.973652 246.641664 
L 270.843456 246.726659 
L 271.49581 246.703155 
L 271.713261 246.623538 
L 272.800516 246.883548 
L 273.235419 246.926881 
L 273.887772 247.111599 
L 274.540125 247.137646 
L 274.975028 247.150944 
L 275.40993 247.066671 
L 275.844832 247.080002 
L 276.714637 246.940178 
L 277.36699 246.998669 
L 278.019344 246.992901 
L 278.454246 246.991889 
L 280.193855 246.655386 
L 280.846208 246.765559 
L 281.716013 246.681041 
L 282.150915 246.743642 
L 282.585817 246.603301 
L 283.238171 246.659543 
L 283.673073 246.666825 
L 284.325427 246.726902 
L 285.195231 246.754989 
L 285.847584 246.755971 
L 286.282487 246.700837 
L 286.717389 246.721412 
L 287.804645 246.642504 
L 288.022096 246.709734 
L 288.674449 246.615113 
L 289.979156 246.496734 
L 290.631509 246.549401 
L 291.283863 246.609587 
L 291.501314 246.715561 
L 293.675825 246.28685 
L 296.50269 246.106503 
L 297.372495 243.12549 
L 298.242299 240.964356 
L 301.286615 234.818251 
L 303.243675 231.555481 
L 305.635638 227.655885 
L 307.592698 225.37109 
L 308.0276 224.824529 
L 308.462503 224.379405 
L 309.549758 223.182228 
L 309.984661 222.808227 
L 310.637014 222.068808 
L 311.289367 221.446548 
L 312.159172 220.570636 
L 316.725646 216.578364 
L 317.160548 216.347017 
L 320.204864 214.06925 
L 320.639766 213.831075 
L 321.509571 213.056467 
L 321.944473 212.806543 
L 322.596826 212.268079 
L 323.24918 211.897612 
L 323.684082 211.592317 
L 324.336435 211.353116 
L 324.988789 210.810446 
L 325.641142 210.521092 
L 326.076045 210.19789 
L 326.510947 209.919218 
L 327.380751 209.326458 
L 328.033105 209.189054 
L 328.685458 208.838969 
L 329.337812 208.530375 
L 330.207616 208.101885 
L 330.642518 207.853557 
L 331.077421 207.60237 
L 331.512323 207.51212 
L 332.599579 206.932434 
L 334.339188 206.046762 
L 334.556639 205.884112 
L 335.208992 205.797462 
L 336.078797 205.326671 
L 336.296248 205.306264 
L 337.383504 204.660814 
L 339.992917 204.04103 
L 341.949977 203.625763 
L 342.38488 203.703186 
L 343.254684 203.584909 
L 343.689587 203.575938 
L 344.124489 203.382085 
L 347.603707 203.332065 
L 348.25606 203.227156 
L 349.125865 203.124545 
L 349.778218 203.164522 
L 351.082925 202.908857 
L 351.517827 202.703051 
L 351.95273 202.64666 
L 352.822534 202.447484 
L 353.474888 202.347496 
L 354.127241 202.188635 
L 354.562143 202.165779 
L 354.997046 201.945211 
L 355.431948 201.987538 
L 356.084301 201.871324 
L 359.346068 201.254396 
L 359.563519 201.279879 
L 359.998422 201.142361 
L 360.433324 201.172369 
L 361.52058 201.059352 
L 361.955482 201.077542 
L 362.390384 201.071131 
L 363.912542 201.077777 
L 364.347444 201.174415 
L 364.782347 201.253505 
L 365.217249 201.204382 
L 365.4347 201.203932 
L 365.869602 200.931168 
L 370.436076 201.122621 
L 371.08843 201.096936 
L 371.523332 201.044181 
L 372.175685 200.927876 
L 372.828039 200.928784 
L 373.262941 200.837645 
L 374.785099 201.003187 
L 375.00255 201.047718 
L 375.437452 200.929433 
L 376.307257 201.01455 
L 376.95961 200.920036 
L 377.829415 200.836642 
L 378.264317 200.855158 
L 378.699219 200.978405 
L 379.134122 200.893701 
L 380.003926 200.878353 
L 380.221377 200.717783 
L 381.308633 200.577759 
L 381.743535 200.506929 
L 382.395889 200.527721 
L 383.048242 200.410671 
L 385.005302 200.3578 
L 385.222753 200.2951 
L 385.875107 200.417964 
L 387.614716 200.180388 
L 388.701972 200.060604 
L 389.136874 200.006941 
L 389.571776 200.08248 
L 390.441581 199.993544 
L 390.876483 199.9771 
L 391.311385 199.788045 
L 392.18119 199.691786 
L 392.616092 199.46643 
L 393.268445 199.657825 
L 393.703348 199.503924 
L 394.573152 199.34288 
L 395.225506 199.184054 
L 396.312761 198.988877 
L 396.747664 198.999435 
L 397.182566 198.896586 
L 398.269822 198.73961 
L 398.487273 198.601559 
L 398.487273 198.601559 
" style="fill:none;stroke:#000000;stroke-linecap:square;stroke-width:1.5;"/>
   </g>
   <g id="line2d_18">
    <path clip-path="url(#p9bd99a351a)" d="M 73.832727 192.852345 
L 74.26763 192.824046 
L 74.702532 192.851885 
L 77.094494 192.703452 
L 79.051555 192.667406 
L 80.13881 189.185131 
L 84.922735 177.652995 
L 85.357637 176.33253 
L 85.575089 175.85556 
L 85.79254 174.908544 
L 86.009991 174.881249 
L 86.227442 173.640207 
L 86.444893 173.839706 
L 86.662344 172.78042 
L 86.879795 172.384356 
L 87.097247 172.412906 
L 87.314698 170.319252 
L 87.532149 171.959352 
L 87.7496 167.682678 
L 87.967051 171.741284 
L 88.184502 151.103317 
L 88.401953 83.099494 
L 88.619404 60.131833 
L 89.489209 157.960519 
L 89.924111 173.853089 
L 90.359014 179.229081 
L 90.576465 179.693954 
L 90.793916 180.759835 
L 91.011367 180.749433 
L 91.446269 181.350025 
L 91.66372 180.978861 
L 91.881172 181.049527 
L 92.098623 180.731204 
L 92.316074 180.698475 
L 93.838232 179.072651 
L 96.012743 176.686009 
L 97.31745 174.380573 
L 99.27451 171.515765 
L 99.491961 171.384377 
L 100.144315 170.652523 
L 100.361766 170.100218 
L 100.579217 169.96587 
L 100.796668 169.443965 
L 101.014119 169.233516 
L 101.23157 168.844132 
L 101.449021 168.176522 
L 101.666473 168.260224 
L 101.883924 167.246085 
L 102.101375 167.486277 
L 102.318826 166.789765 
L 102.753728 166.652694 
L 102.971179 165.001264 
L 103.188631 166.237733 
L 103.406082 162.424757 
L 103.623533 165.72473 
L 103.840984 144.631503 
L 104.058435 81.870739 
L 104.275886 59.401705 
L 104.710789 106.222151 
L 105.145691 150.69863 
L 105.580593 169.262782 
L 106.015495 176.277064 
L 106.667849 178.908017 
L 107.102751 179.569028 
L 107.320202 179.438072 
L 107.537653 179.663095 
L 107.755104 179.419269 
L 108.190007 179.380479 
L 108.84236 178.782924 
L 109.277262 178.588067 
L 109.712165 178.545726 
L 111.016871 177.671551 
L 111.886676 176.771237 
L 114.061187 174.97122 
L 117.322954 170.835748 
L 117.540406 170.272856 
L 117.757857 170.200168 
L 118.192759 169.405466 
L 118.41021 169.276654 
L 118.627661 168.340364 
L 118.845112 168.678362 
L 119.062563 167.746272 
L 119.280015 168.108824 
L 119.714917 166.570068 
L 119.932368 166.988904 
L 120.149819 163.80249 
L 120.36727 166.615567 
L 120.584721 134.358413 
L 120.802173 73.588373 
L 121.019624 61.848615 
L 122.106879 161.814673 
L 122.541782 172.133039 
L 122.759233 174.914051 
L 123.411586 177.610551 
L 123.846488 178.384695 
L 124.06394 178.478458 
L 124.281391 178.737047 
L 125.803549 177.777015 
L 126.238451 177.426582 
L 126.673353 177.09833 
L 127.325707 176.50391 
L 127.97806 176.085331 
L 128.847865 175.310004 
L 129.282767 174.924477 
L 129.717669 174.457453 
L 130.370023 173.837441 
L 131.022376 173.090918 
L 131.457278 172.775691 
L 132.761985 171.138641 
L 133.414338 170.170144 
L 133.849241 169.764787 
L 135.153948 168.076085 
L 135.58885 167.380737 
L 135.806301 167.168399 
L 136.023752 166.70952 
L 136.241203 166.583168 
L 136.676105 165.819696 
L 137.111008 164.709387 
L 137.328459 164.699511 
L 137.54591 163.868026 
L 137.763361 164.131517 
L 137.980812 163.316772 
L 138.198263 163.378355 
L 138.415715 163.307007 
L 138.633166 162.03849 
L 138.850617 162.772508 
L 139.068068 159.447716 
L 139.285519 162.042546 
L 139.50297 138.710818 
L 139.720421 79.888904 
L 139.937872 59.733644 
L 140.372775 101.388361 
L 140.807677 145.49221 
L 141.242579 165.010236 
L 141.677482 172.523917 
L 142.329835 176.055107 
L 142.764737 177.053556 
L 142.982188 177.064124 
L 143.19964 177.270165 
L 143.417091 177.178732 
L 143.634542 177.254487 
L 144.939249 176.591009 
L 145.591602 176.02459 
L 146.026504 175.688293 
L 151.02788 169.828007 
L 152.984941 166.757568 
L 153.202392 166.562616 
L 153.637294 165.577167 
L 153.854745 165.192725 
L 154.072196 164.561912 
L 154.289647 164.401558 
L 154.507099 163.657065 
L 154.72455 163.469242 
L 155.159452 162.430838 
L 155.376903 162.235718 
L 155.594354 161.19601 
L 155.811805 161.810012 
L 156.029257 160.192644 
L 156.246708 160.686058 
L 156.68161 158.395593 
L 156.899061 155.613652 
L 157.333963 62.966063 
L 157.551414 65.60437 
L 158.63867 158.510395 
L 159.073572 168.560844 
L 159.508475 172.843781 
L 159.725926 174.225632 
L 159.943377 174.71515 
L 160.160828 175.595851 
L 160.813182 176.038164 
L 161.900437 175.910201 
L 163.857497 174.633834 
L 164.2924 174.320329 
L 166.684362 171.812532 
L 167.554167 170.556997 
L 167.989069 170.05141 
L 168.641422 169.070617 
L 170.815934 166.272945 
L 171.468287 165.101225 
L 171.685738 164.961827 
L 171.903189 164.61169 
L 172.338092 164.310765 
L 172.555543 163.820316 
L 172.772994 163.787189 
L 172.990445 162.855177 
L 173.207896 162.815746 
L 173.642799 161.52444 
L 173.86025 161.293845 
L 174.077701 159.824713 
L 174.295152 160.581833 
L 174.512603 157.655616 
L 174.730054 159.635074 
L 174.947505 141.324213 
L 175.164956 85.416683 
L 175.382408 58.754363 
L 175.599859 71.488614 
L 176.469663 152.990954 
L 176.904566 166.7103 
L 177.122017 170.732034 
L 177.556919 174.284977 
L 177.991821 175.720766 
L 178.209272 176.358151 
L 178.426723 176.533947 
L 178.644175 176.920037 
L 179.73143 177.11597 
L 181.036137 176.299553 
L 181.253588 176.195892 
L 181.688491 175.79138 
L 182.123393 175.55064 
L 182.993197 174.856683 
L 183.4281 174.598076 
L 184.080453 174.066068 
L 184.515355 173.683316 
L 184.950258 173.29362 
L 185.38516 172.739101 
L 185.820062 172.436436 
L 186.689867 171.481893 
L 187.34222 170.975214 
L 188.212025 170.061714 
L 188.646927 169.671687 
L 189.516731 168.60042 
L 190.386536 167.886379 
L 191.25634 166.663177 
L 191.908694 165.898675 
L 192.126145 165.094589 
L 192.343596 164.960426 
L 192.561047 164.287003 
L 192.778498 164.373229 
L 192.99595 164.129871 
L 193.213401 163.461595 
L 193.430852 163.458213 
L 193.648303 161.614749 
L 193.865754 162.26438 
L 194.083205 159.35993 
L 194.300656 160.466407 
L 194.518108 148.681694 
L 194.95301 59.149818 
L 195.170461 68.438911 
L 196.257717 159.493088 
L 196.692619 169.623787 
L 197.127521 173.847252 
L 197.344972 174.910789 
L 197.562423 175.296744 
L 197.779875 175.949294 
L 197.997326 176.006571 
L 198.214777 176.223442 
L 199.302033 176.338374 
L 199.736935 176.179648 
L 200.171837 176.24689 
L 201.911446 175.531475 
L 202.346348 175.383513 
L 202.998702 175.096722 
L 203.433604 174.577015 
L 204.085957 174.258515 
L 204.955762 173.416567 
L 205.390664 173.14898 
L 207.565176 171.250122 
L 208.000078 170.569751 
L 209.304785 169.408152 
L 209.739687 169.131766 
L 210.826943 167.586221 
L 211.479296 166.870548 
L 212.349101 165.59848 
L 213.001454 164.499173 
L 213.218905 164.43314 
L 213.871259 163.807244 
L 214.08871 163.217706 
L 214.306161 163.253831 
L 214.741063 162.16873 
L 214.958514 161.724454 
L 215.175965 161.017917 
L 215.393417 161.444943 
L 215.610868 159.801634 
L 215.828319 160.642705 
L 216.04577 158.484241 
L 216.263221 158.858355 
L 216.480672 149.7978 
L 216.915574 59.653755 
L 217.133026 66.006574 
L 218.220281 158.266707 
L 218.655184 168.894196 
L 219.090086 173.274204 
L 219.524988 175.230595 
L 219.742439 176.146921 
L 220.612244 177.08977 
L 221.047146 177.379443 
L 221.916951 177.641327 
L 223.004206 177.345258 
L 223.439109 177.058402 
L 223.874011 176.66761 
L 224.308913 176.449348 
L 225.61362 175.58324 
L 226.048522 175.276531 
L 226.700876 174.886898 
L 227.57068 173.873706 
L 228.657936 172.650819 
L 229.310289 172.105295 
L 232.137154 168.333802 
L 234.094214 166.224668 
L 234.746568 165.215003 
L 234.964019 165.0755 
L 235.398921 164.386998 
L 235.616372 164.176662 
L 235.833823 163.595346 
L 236.051274 163.567204 
L 236.268726 162.676018 
L 236.486177 162.496808 
L 236.921079 161.422847 
L 237.13853 161.636289 
L 237.355981 160.169611 
L 237.573432 161.063048 
L 237.790884 158.231646 
L 238.008335 159.650288 
L 238.225786 144.890944 
L 238.660688 57.878678 
L 238.878139 67.271123 
L 239.965395 158.228272 
L 240.400297 168.810703 
L 240.835199 173.639079 
L 241.270102 175.937562 
L 241.487553 176.718531 
L 241.705004 176.942303 
L 241.922455 177.385222 
L 242.574809 177.68814 
L 243.662064 177.638811 
L 246.488929 176.214753 
L 246.923831 175.814508 
L 247.141282 175.759354 
L 249.315794 172.960066 
L 249.750696 172.517268 
L 250.620501 171.640907 
L 251.055403 171.333217 
L 255.839328 165.581134 
L 256.056779 165.526148 
L 256.27423 165.006172 
L 256.491681 164.909225 
L 256.926583 164.142701 
L 257.144035 164.009825 
L 257.361486 163.215404 
L 257.578937 163.082964 
L 257.796388 161.989 
L 258.013839 162.222287 
L 258.448741 160.835933 
L 258.666193 160.983573 
L 258.883644 158.361892 
L 259.101095 159.574797 
L 259.318546 129.225544 
L 259.535997 73.903002 
L 259.753448 59.215221 
L 260.18835 93.52519 
L 260.623253 136.411886 
L 261.058155 158.595899 
L 261.493057 168.473288 
L 261.92796 173.033405 
L 262.580313 175.744778 
L 263.015215 176.507512 
L 264.102471 176.579616 
L 265.624629 175.997184 
L 266.059531 175.703711 
L 266.711885 175.296273 
L 267.79914 174.213485 
L 268.886396 173.371818 
L 270.191103 172.787812 
L 270.408554 172.697585 
L 271.278358 171.983187 
L 271.930712 171.558239 
L 272.365614 171.274293 
L 272.583065 171.188521 
L 273.017967 170.712278 
L 273.45287 170.38359 
L 275.192479 168.876302 
L 275.627381 168.715273 
L 277.36699 167.497917 
L 277.584441 167.430678 
L 278.454246 166.486284 
L 279.32405 165.071206 
L 279.541502 164.464221 
L 279.758953 164.391694 
L 280.628757 162.542063 
L 280.846208 162.58018 
L 281.06366 161.686131 
L 281.281111 161.891273 
L 281.716013 160.451671 
L 281.933464 160.663185 
L 282.150915 158.277364 
L 282.368366 159.539158 
L 282.585817 129.222461 
L 282.803269 73.753678 
L 283.02072 59.20727 
L 283.455622 95.583919 
L 283.890524 138.184228 
L 284.325427 159.937654 
L 284.760329 169.424039 
L 285.195231 173.770199 
L 285.847584 176.582094 
L 286.282487 177.302299 
L 286.499938 177.245884 
L 286.717389 177.388732 
L 287.369742 177.364246 
L 288.022096 176.816134 
L 288.674449 176.379454 
L 293.023472 172.054248 
L 293.675825 171.613202 
L 294.328179 171.25657 
L 295.197983 170.70605 
L 295.850337 170.202509 
L 296.50269 169.696283 
L 297.372495 171.947365 
L 299.547006 175.726677 
L 299.981908 176.183408 
L 300.851713 177.600661 
L 301.286615 178.241367 
L 301.938969 179.174941 
L 303.243675 180.575761 
L 303.678578 180.880436 
L 304.11348 181.322933 
L 304.983284 181.97099 
L 305.418187 182.356049 
L 306.505442 183.138857 
L 306.940345 183.41647 
L 307.375247 183.742707 
L 309.332307 185.059139 
L 310.202112 185.516071 
L 311.071916 185.46239 
L 311.506818 185.629052 
L 313.028976 186.574233 
L 313.898781 186.976098 
L 314.333683 186.977303 
L 314.768586 187.21793 
L 315.420939 187.292086 
L 316.508195 187.602064 
L 317.377999 187.855282 
L 317.812901 187.882731 
L 318.682706 187.977322 
L 320.422315 188.3216 
L 320.639766 188.311459 
L 321.29212 188.521666 
L 322.161924 188.589749 
L 322.596826 188.752625 
L 323.031729 188.927143 
L 323.466631 189.102772 
L 324.553887 189.086532 
L 325.641142 189.214038 
L 326.076045 188.91727 
L 326.510947 188.894513 
L 327.1633 189.138965 
L 328.250556 189.352077 
L 328.902909 189.275113 
L 329.337812 189.412146 
L 330.425067 189.650576 
L 330.85997 189.72332 
L 331.294872 189.714371 
L 331.729774 189.800605 
L 331.947225 189.895318 
L 333.034481 189.714964 
L 333.469383 189.730787 
L 333.904285 189.704889 
L 334.339188 189.83913 
L 334.77409 189.758404 
L 335.643895 189.800338 
L 336.078797 189.642231 
L 336.513699 189.707815 
L 337.600955 189.578245 
L 338.035857 189.715 
L 338.470759 189.679061 
L 338.905662 189.535801 
L 339.558015 189.516031 
L 339.992917 189.45186 
L 341.297624 189.549919 
L 341.732526 189.611058 
L 342.38488 189.616288 
L 346.081549 189.918071 
L 346.516451 190.031278 
L 346.951354 189.98421 
L 349.560767 190.214917 
L 353.90979 190.608482 
L 354.344692 190.452174 
L 354.779594 190.472654 
L 355.431948 189.819066 
L 355.649399 189.762388 
L 356.084301 189.830315 
L 356.519204 189.862124 
L 357.82391 189.987897 
L 358.911166 190.245381 
L 362.172933 190.704131 
L 362.390384 190.766754 
L 362.825286 190.7368 
L 363.260189 190.915591 
L 364.129993 190.951541 
L 364.564896 190.921042 
L 364.999798 190.77822 
L 366.304505 190.87417 
L 368.261565 191.290108 
L 368.696467 191.211593 
L 369.131369 191.298009 
L 369.783723 191.325727 
L 370.653527 191.603433 
L 371.523332 191.656463 
L 371.958234 191.705218 
L 372.393136 191.685019 
L 373.04549 191.813886 
L 373.697843 191.873684 
L 374.132746 192.125758 
L 375.00255 192.297231 
L 375.437452 192.511833 
L 377.177061 192.473154 
L 378.264317 192.625111 
L 378.699219 192.608258 
L 379.134122 192.727176 
L 379.569024 192.658295 
L 380.438828 192.772587 
L 381.091182 192.824364 
L 381.960986 192.868654 
L 383.700596 192.751966 
L 385.440205 192.791442 
L 385.875107 192.834886 
L 389.571776 192.892494 
L 389.789227 192.958039 
L 390.441581 192.819598 
L 391.093934 192.879172 
L 391.528836 192.992885 
L 391.963739 193.05684 
L 392.616092 193.146243 
L 393.703348 193.102078 
L 394.355701 192.922819 
L 395.660408 193.026143 
L 396.09531 193.061758 
L 396.747664 192.851436 
L 398.487273 192.958358 
L 398.487273 192.958358 
" style="fill:none;stroke:#000000;stroke-linecap:square;stroke-width:1.5;"/>
   </g>
   <g id="line2d_19">
    <path clip-path="url(#p9bd99a351a)" d="M 73.832727 207.47151 
L 74.26763 207.562237 
L 77.746848 207.594552 
L 77.964299 207.754312 
L 78.18175 207.585891 
L 78.616652 207.708355 
L 79.051555 207.640386 
L 79.921359 192.712808 
L 80.13881 190.522121 
L 80.573712 185.006909 
L 81.008615 179.547363 
L 81.226066 177.603532 
L 81.443517 173.70843 
L 81.660968 173.593889 
L 81.878419 166.906639 
L 82.09587 169.821757 
L 82.313322 145.256909 
L 82.530773 74.490521 
L 82.748224 56.690582 
L 83.400577 143.456327 
L 83.83548 163.251232 
L 84.052931 167.496998 
L 84.487833 170.193143 
L 84.705284 169.398412 
L 84.922735 169.888695 
L 86.009991 166.195101 
L 86.444893 164.046245 
L 86.662344 163.528254 
L 86.879795 161.938871 
L 87.097247 161.735831 
L 87.314698 160.231656 
L 87.532149 159.625553 
L 87.7496 158.65465 
L 87.967051 156.900097 
L 88.184502 157.239806 
L 88.401953 153.603264 
L 88.619404 156.115726 
L 88.836856 130.767179 
L 89.054307 72.204134 
L 89.271758 57.504199 
L 90.141562 146.169862 
L 90.576465 161.372674 
L 91.011367 166.227247 
L 91.228818 166.318427 
L 91.446269 166.881427 
L 91.66372 166.691598 
L 92.098623 166.5364 
L 93.620781 162.147082 
L 95.142939 156.064316 
L 95.36039 155.68325 
L 95.577841 154.354697 
L 95.795292 154.660218 
L 96.012743 153.134197 
L 96.230194 152.841416 
L 96.447645 151.728907 
L 96.882548 148.578323 
L 97.31745 59.500103 
L 97.534901 58.389791 
L 98.404706 141.995307 
L 98.839608 157.472344 
L 99.27451 163.121813 
L 99.709412 164.99937 
L 99.926864 164.899684 
L 100.144315 164.987836 
L 100.796668 163.820932 
L 102.536277 158.227256 
L 102.753728 157.257976 
L 102.971179 156.93358 
L 103.188631 155.868667 
L 103.406082 155.406302 
L 103.840984 153.663186 
L 104.058435 153.328687 
L 104.275886 151.61496 
L 104.493337 151.976601 
L 104.710789 148.962573 
L 104.92824 149.74219 
L 105.145691 134.963615 
L 105.580593 53.568 
L 105.798044 64.57148 
L 106.667849 143.377729 
L 107.102751 156.832523 
L 107.320202 160.279806 
L 107.755104 162.897764 
L 107.972556 163.147663 
L 108.407458 163.142076 
L 109.277262 161.273257 
L 111.886676 153.421142 
L 112.104127 152.067417 
L 112.321578 151.979936 
L 112.539029 150.476428 
L 112.756481 150.1457 
L 113.191383 147.435402 
L 113.408834 142.458839 
L 113.843736 59.149031 
L 114.061187 57.667916 
L 114.49609 97.203695 
L 114.930992 135.119902 
L 115.365894 152.611118 
L 115.800796 159.146969 
L 116.235699 161.472447 
L 116.45315 161.458776 
L 116.670601 161.657019 
L 117.322954 160.626221 
L 118.845112 156.045015 
L 119.497466 153.163012 
L 119.932368 151.777769 
L 120.149819 150.471819 
L 120.36727 149.922919 
L 120.584721 147.23328 
L 120.802173 146.504926 
L 121.019624 123.894194 
L 121.237075 76.033496 
L 121.454526 55.188797 
L 121.671977 64.676126 
L 122.541782 136.66458 
L 122.976684 151.097769 
L 123.411586 157.036892 
L 123.629037 158.672943 
L 124.06394 159.732063 
L 124.281391 159.844202 
L 124.498842 159.608883 
L 124.716293 159.640052 
L 125.151195 158.892167 
L 125.803549 157.230616 
L 126.673353 154.132423 
L 127.325707 152.072883 
L 128.195511 147.847427 
L 128.412962 146.928392 
L 128.847865 142.79068 
L 129.065316 115.367054 
L 129.282767 69.952998 
L 129.500218 55.409843 
L 129.717669 67.245448 
L 130.587474 138.609502 
L 131.022376 151.558615 
L 131.457278 157.155582 
L 131.89218 159.502307 
L 132.109632 160.02331 
L 132.327083 160.16071 
L 132.979436 159.237745 
L 133.63179 157.802877 
L 136.023752 149.343984 
L 136.241203 147.050893 
L 136.458654 146.309449 
L 136.676105 129.025388 
L 137.111008 55.967101 
L 137.328459 59.839213 
L 137.763361 97.062179 
L 138.198263 130.789583 
L 138.633166 147.81549 
L 139.068068 155.127586 
L 139.50297 158.399859 
L 139.937872 159.502594 
L 140.372775 159.184702 
L 141.025128 158.029866 
L 141.894933 155.709035 
L 144.069444 147.976472 
L 144.504346 145.970228 
L 144.721797 144.416156 
L 144.939249 139.95145 
L 145.591602 54.384862 
L 145.809053 64.593254 
L 146.678858 135.881882 
L 147.11376 149.962148 
L 147.548662 155.844051 
L 147.766113 157.288805 
L 148.201016 158.240874 
L 148.418467 158.294431 
L 148.853369 157.971361 
L 149.505722 156.764131 
L 151.02788 152.382656 
L 151.897685 148.908926 
L 152.550038 145.917035 
L 152.984941 142.402795 
L 153.202392 123.581516 
L 153.637294 55.682815 
L 153.854745 58.912834 
L 154.289647 95.019157 
L 154.72455 128.280506 
L 155.159452 145.890002 
L 155.594354 154.029538 
L 156.029257 157.290178 
L 156.464159 158.355591 
L 157.116512 157.97995 
L 157.551414 157.554096 
L 158.63867 154.786557 
L 159.508475 151.559104 
L 160.59573 147.567649 
L 161.030633 144.41625 
L 161.248084 130.360681 
L 161.682986 57.924548 
L 161.900437 56.761755 
L 162.117888 69.172198 
L 162.770242 124.840587 
L 163.205144 143.878377 
L 163.640046 152.524738 
L 164.074949 156.534613 
L 164.509851 158.187914 
L 164.944753 158.378235 
L 165.379655 157.96879 
L 166.032009 157.01274 
L 167.119264 154.441915 
L 167.989069 152.160989 
L 168.20652 151.741424 
L 169.076325 148.783953 
L 169.293776 148.12787 
L 169.511227 146.922594 
L 169.728678 146.502783 
L 170.16358 143.154568 
L 170.381031 125.378662 
L 170.815934 55.21839 
L 171.033385 58.259094 
L 171.468287 92.110018 
L 171.903189 125.858488 
L 172.338092 143.999723 
L 172.772994 152.107282 
L 173.207896 155.756273 
L 173.642799 157.273034 
L 174.077701 157.618054 
L 174.512603 157.289743 
L 174.730054 157.014145 
L 175.81731 154.196331 
L 176.687114 151.63563 
L 176.904566 151.291705 
L 177.77437 148.18761 
L 177.991821 147.847315 
L 178.861626 142.877789 
L 179.079077 133.665385 
L 179.513979 61.595835 
L 179.73143 56.249234 
L 179.948881 67.529684 
L 180.818686 133.866422 
L 181.253588 147.145225 
L 181.688491 153.412033 
L 182.123393 156.255014 
L 182.340844 156.920866 
L 182.775746 157.443631 
L 182.993197 157.389466 
L 183.645551 156.46097 
L 184.297904 155.35901 
L 184.515355 154.862359 
L 184.950258 153.523673 
L 185.820062 151.000182 
L 186.689867 148.31324 
L 187.124769 146.64655 
L 187.559671 142.261147 
L 187.777122 119.602473 
L 188.212025 54.971988 
L 188.429476 58.854966 
L 188.864378 93.335443 
L 189.29928 126.380588 
L 189.734183 144.033625 
L 190.169085 152.233744 
L 190.603987 155.853764 
L 191.038889 157.302437 
L 191.473792 157.654353 
L 191.908694 157.072297 
L 192.343596 156.173164 
L 194.735559 149.538115 
L 195.822814 145.206007 
L 196.257717 141.344841 
L 196.475168 123.567322 
L 196.91007 56.533384 
L 197.127521 57.710203 
L 197.344972 69.84997 
L 197.997326 122.817214 
L 198.432228 141.707535 
L 198.86713 150.589503 
L 199.302033 155.002428 
L 199.736935 156.95333 
L 200.171837 157.241868 
L 200.606739 156.721218 
L 201.041642 155.975895 
L 202.998702 150.791322 
L 204.085957 147.17211 
L 204.955762 142.344111 
L 205.173213 133.394353 
L 205.608115 62.917305 
L 205.825567 55.747425 
L 206.043018 64.19949 
L 207.130273 136.528157 
L 207.565176 147.564512 
L 208.000078 152.633554 
L 208.43498 155.140865 
L 209.087334 156.342779 
L 209.522236 156.465454 
L 210.174589 155.441669 
L 210.826943 154.114056 
L 211.261845 152.894689 
L 213.218905 146.919524 
L 214.08871 141.033182 
L 214.306161 123.972677 
L 214.741063 57.776423 
L 214.958514 57.962721 
L 215.175965 69.159008 
L 216.04577 130.810963 
L 216.480672 143.826206 
L 216.915574 150.486033 
L 217.350477 153.76608 
L 217.567928 154.819896 
L 218.00283 155.439151 
L 218.220281 155.425778 
L 218.872635 154.369169 
L 219.090086 154.026371 
L 220.394793 150.360863 
L 222.351853 142.68564 
L 222.569304 140.919821 
L 222.786755 137.727957 
L 223.004206 116.842117 
L 223.439109 57.895312 
L 223.65656 58.492393 
L 223.874011 69.949581 
L 224.526364 118.436599 
L 224.961267 137.077649 
L 225.396169 146.386412 
L 225.831071 151.22982 
L 226.265973 153.704196 
L 226.700876 154.852225 
L 227.135778 155.132621 
L 227.57068 155.055659 
L 227.788131 154.893654 
L 228.223034 154.140267 
L 229.092838 151.979027 
L 230.614996 146.716805 
L 231.702252 142.008565 
L 232.137154 138.004739 
L 232.354605 120.197374 
L 232.789507 57.954263 
L 233.006959 57.31326 
L 233.22441 67.751491 
L 234.094214 128.142269 
L 234.529116 142.64783 
L 234.964019 150.117358 
L 235.398921 153.439887 
L 235.833823 155.223307 
L 236.051274 155.663717 
L 236.268726 155.686843 
L 236.486177 155.597198 
L 237.13853 154.774596 
L 237.790884 153.470039 
L 238.225786 152.382251 
L 239.313041 148.78298 
L 240.617748 143.245997 
L 241.052651 139.817694 
L 241.270102 128.393652 
L 241.705004 63.041533 
L 241.922455 56.630202 
L 242.139906 64.316692 
L 243.227162 132.893127 
L 243.662064 144.065402 
L 244.096966 149.441067 
L 244.531869 152.066799 
L 244.966771 152.911685 
L 245.184222 153.146442 
L 245.619124 153.193386 
L 246.054027 152.96305 
L 246.70638 152.239711 
L 248.011087 149.292446 
L 249.533245 144.30883 
L 250.185598 140.476347 
L 250.403049 136.925653 
L 250.620501 117.735544 
L 251.055403 58.607558 
L 251.272854 57.405975 
L 251.490305 67.517916 
L 252.142658 116.694359 
L 252.577561 135.397274 
L 253.012463 145.064326 
L 253.447365 149.982782 
L 253.882268 152.541526 
L 254.31717 153.452724 
L 255.186974 153.86047 
L 255.621877 153.449468 
L 255.839328 153.239979 
L 256.926583 151.112324 
L 258.23129 147.236051 
L 259.318546 142.807584 
L 259.753448 139.579927 
L 259.970899 127.20762 
L 260.405802 63.686754 
L 260.623253 56.637454 
L 260.840704 63.58478 
L 261.92796 131.139647 
L 262.362862 142.927318 
L 262.797764 149.040807 
L 263.232666 151.881545 
L 263.667569 153.302423 
L 263.88502 153.589219 
L 264.102471 153.568048 
L 264.972275 152.739836 
L 265.407178 152.073838 
L 267.364238 147.347922 
L 268.234043 144.681604 
L 268.668945 142.843235 
L 268.886396 141.373903 
L 269.103847 136.260297 
L 269.321298 113.128714 
L 269.7562 57.539565 
L 269.973652 58.814153 
L 270.408554 87.574011 
L 270.843456 119.829349 
L 271.278358 138.280556 
L 271.713261 147.323835 
L 272.148163 151.714413 
L 272.583065 153.713792 
L 273.017967 154.342654 
L 273.45287 154.631993 
L 273.670321 154.481343 
L 274.540125 152.801615 
L 275.40993 150.889927 
L 276.279735 148.019913 
L 277.36699 143.177986 
L 277.801892 139.060586 
L 278.019344 126.639519 
L 278.454246 62.800969 
L 278.671697 56.64952 
L 278.889148 64.483896 
L 279.758953 125.765727 
L 280.193855 140.951317 
L 280.628757 148.945692 
L 281.06366 152.920802 
L 281.498562 154.545386 
L 281.933464 155.205618 
L 282.368366 155.187629 
L 283.02072 154.554253 
L 283.455622 153.644691 
L 285.630133 147.152081 
L 286.717389 142.868163 
L 287.152291 139.018097 
L 287.369742 125.367431 
L 287.804645 61.256315 
L 288.022096 56.788645 
L 288.239547 65.038089 
L 289.109352 122.875622 
L 289.544254 138.092684 
L 289.979156 146.265883 
L 290.414058 150.553043 
L 290.848961 152.537872 
L 291.283863 153.501179 
L 291.718765 153.872348 
L 292.153667 153.664215 
L 292.58857 153.257135 
L 293.240923 151.965769 
L 295.197983 146.881909 
L 296.285239 142.621037 
L 296.720141 140.713739 
L 296.937592 126.772892 
L 297.372495 69.517456 
L 297.589946 66.585376 
L 297.807397 75.679494 
L 298.677201 137.038554 
L 299.112104 153.59498 
L 299.547006 163.470914 
L 300.199359 172.347915 
L 301.069164 179.202472 
L 302.15642 184.684878 
L 302.808773 187.015595 
L 303.678578 189.629377 
L 304.983284 192.390906 
L 306.07054 194.201786 
L 307.592698 196.202168 
L 309.549758 197.862738 
L 310.202112 198.41543 
L 311.071916 199.042134 
L 311.941721 199.464128 
L 313.246428 200.393124 
L 314.116232 200.920939 
L 315.420939 201.463395 
L 317.812901 202.098333 
L 320.204864 202.654696 
L 320.857217 202.929444 
L 321.727022 203.06464 
L 322.161924 203.160614 
L 322.596826 203.176769 
L 323.466631 203.400281 
L 323.901533 203.509803 
L 324.336435 203.602682 
L 325.641142 203.684743 
L 326.076045 203.512123 
L 326.945849 203.547139 
L 327.598203 203.533254 
L 328.033105 203.624113 
L 330.425067 203.220816 
L 331.077421 203.13393 
L 331.512323 203.222322 
L 332.164676 203.18528 
L 333.034481 203.144152 
L 333.469383 203.101639 
L 335.208992 203.059376 
L 335.861346 202.957469 
L 337.383504 202.821174 
L 338.470759 202.703414 
L 339.340564 202.731064 
L 340.645271 202.566816 
L 341.297624 202.648911 
L 343.037233 202.631104 
L 343.907038 202.669763 
L 344.124489 202.594565 
L 344.994293 202.737853 
L 345.429196 202.701158 
L 346.516451 202.966144 
L 347.603707 202.950788 
L 348.473512 202.869729 
L 348.908414 202.865302 
L 349.343316 202.899698 
L 351.082925 202.898102 
L 351.517827 202.855839 
L 351.95273 202.880189 
L 352.822534 202.781738 
L 353.257437 202.916158 
L 354.344692 202.954459 
L 354.997046 202.937246 
L 356.301752 202.742054 
L 357.82391 202.430653 
L 358.258813 202.485856 
L 358.693715 202.425736 
L 359.780971 202.485708 
L 361.303129 202.562172 
L 361.955482 202.547608 
L 362.390384 202.445531 
L 364.564896 202.68478 
L 364.999798 202.639561 
L 365.4347 202.747904 
L 366.087054 202.686524 
L 366.956858 202.790991 
L 367.609211 202.697709 
L 368.261565 202.502733 
L 368.696467 202.316856 
L 369.131369 202.196137 
L 369.566272 202.143107 
L 370.870979 202.440418 
L 371.305881 202.669182 
L 374.132746 202.978828 
L 374.567648 203.027465 
L 375.220001 203.196182 
L 376.089806 203.21104 
L 376.524708 203.187464 
L 376.742159 203.103172 
L 377.611964 203.272889 
L 378.699219 203.350751 
L 379.134122 203.375929 
L 379.569024 203.308187 
L 380.003926 203.295107 
L 380.438828 203.141502 
L 381.308633 203.246285 
L 381.743535 203.204868 
L 382.395889 203.294602 
L 382.830791 203.264693 
L 383.048242 203.161212 
L 383.700596 203.278981 
L 384.135498 203.194141 
L 385.005302 203.299444 
L 385.440205 203.262264 
L 385.875107 203.32221 
L 386.310009 203.218942 
L 386.962363 203.311502 
L 387.179814 203.342465 
L 387.614716 203.19436 
L 388.049618 203.282785 
L 388.267069 203.214677 
L 388.701972 203.276977 
L 388.919423 203.239827 
L 389.354325 203.456791 
L 390.441581 203.464603 
L 390.876483 203.490446 
L 392.833543 203.668402 
L 393.268445 203.779844 
L 394.573152 203.731003 
L 395.008055 203.692512 
L 395.660408 203.85569 
L 396.09531 203.677389 
L 398.05237 203.93259 
L 398.487273 203.75879 
L 398.487273 203.75879 
" style="fill:none;stroke:#000000;stroke-linecap:square;stroke-width:1.5;"/>
   </g>
   <g id="patch_3">
    <path d="M 57.6 307.584 
L 57.6 41.472 
" style="fill:none;stroke:#000000;stroke-linecap:square;stroke-linejoin:miter;stroke-width:0.8;"/>
   </g>
   <g id="patch_4">
    <path d="M 414.72 307.584 
L 414.72 41.472 
" style="fill:none;stroke:#000000;stroke-linecap:square;stroke-linejoin:miter;stroke-width:0.8;"/>
   </g>
   <g id="patch_5">
    <path d="M 57.6 307.584 
L 414.72 307.584 
" style="fill:none;stroke:#000000;stroke-linecap:square;stroke-linejoin:miter;stroke-width:0.8;"/>
   </g>
   <g id="patch_6">
    <path d="M 57.6 41.472 
L 414.72 41.472 
" style="fill:none;stroke:#000000;stroke-linecap:square;stroke-linejoin:miter;stroke-width:0.8;"/>
   </g>
  </g>
 </g>
 <defs>
  <clipPath id="p9bd99a351a">
   <rect height="266.112" width="357.12" x="57.6" y="41.472"/>
  </clipPath>
 </defs>
</svg>
