<?xml version="1.0" encoding="utf-8" standalone="no"?>
<!DOCTYPE svg PUBLIC "-//W3C//DTD SVG 1.1//EN"
  "http://www.w3.org/Graphics/SVG/1.1/DTD/svg11.dtd">
<svg height="345.6pt" version="1.1" viewBox="0 0 460.8 345.6" width="460.8pt" xmlns="http://www.w3.org/2000/svg" xmlns:xlink="http://www.w3.org/1999/xlink">
 <metadata>
  <rdf:RDF xmlns:cc="http://creativecommons.org/ns#" xmlns:dc="http://purl.org/dc/elements/1.1/" xmlns:rdf="http://www.w3.org/1999/02/22-rdf-syntax-ns#">
   <cc:Work>
    <dc:type rdf:resource="http://purl.org/dc/dcmitype/StillImage"/>
    <dc:date>2024-08-06T14:45:04.934369</dc:date>
    <dc:format>image/svg+xml</dc:format>
    <dc:creator>
     <cc:Agent>
      <dc:title>Matplotlib v3.4.2, https://matplotlib.org/</dc:title>
     </cc:Agent>
    </dc:creator>
   </cc:Work>
  </rdf:RDF>
 </metadata>
 <defs>
  <style type="text/css">*{stroke-linecap:butt;stroke-linejoin:round;}</style>
 </defs>
 <g id="figure_1">
  <g id="patch_1">
   <path d="M 0 345.6 
L 460.8 345.6 
L 460.8 0 
L 0 0 
z
" style="fill:#ffffff;"/>
  </g>
  <g id="axes_1">
   <g id="patch_2">
    <path d="M 57.6 307.584 
L 414.72 307.584 
L 414.72 41.472 
L 57.6 41.472 
z
" style="fill:#ffffff;"/>
   </g>
   <g id="matplotlib.axis_1">
    <g id="xtick_1">
     <g id="line2d_1">
      <defs>
       <path d="M 0 0 
L 0 3.5 
" id="m55b6cfc838" style="stroke:#000000;stroke-width:0.8;"/>
      </defs>
      <g>
       <use style="stroke:#000000;stroke-width:0.8;" x="59.701804" xlink:href="#m55b6cfc838" y="307.584"/>
      </g>
     </g>
     <g id="text_1">
      <!-- 0.75 -->
      <g transform="translate(48.568992 322.182437)scale(0.1 -0.1)">
       <defs>
        <path d="M 2034 4250 
Q 1547 4250 1301 3770 
Q 1056 3291 1056 2328 
Q 1056 1369 1301 889 
Q 1547 409 2034 409 
Q 2525 409 2770 889 
Q 3016 1369 3016 2328 
Q 3016 3291 2770 3770 
Q 2525 4250 2034 4250 
z
M 2034 4750 
Q 2819 4750 3233 4129 
Q 3647 3509 3647 2328 
Q 3647 1150 3233 529 
Q 2819 -91 2034 -91 
Q 1250 -91 836 529 
Q 422 1150 422 2328 
Q 422 3509 836 4129 
Q 1250 4750 2034 4750 
z
" id="DejaVuSans-30" transform="scale(0.015625)"/>
        <path d="M 684 794 
L 1344 794 
L 1344 0 
L 684 0 
L 684 794 
z
" id="DejaVuSans-2e" transform="scale(0.015625)"/>
        <path d="M 525 4666 
L 3525 4666 
L 3525 4397 
L 1831 0 
L 1172 0 
L 2766 4134 
L 525 4134 
L 525 4666 
z
" id="DejaVuSans-37" transform="scale(0.015625)"/>
        <path d="M 691 4666 
L 3169 4666 
L 3169 4134 
L 1269 4134 
L 1269 2991 
Q 1406 3038 1543 3061 
Q 1681 3084 1819 3084 
Q 2600 3084 3056 2656 
Q 3513 2228 3513 1497 
Q 3513 744 3044 326 
Q 2575 -91 1722 -91 
Q 1428 -91 1123 -41 
Q 819 9 494 109 
L 494 744 
Q 775 591 1075 516 
Q 1375 441 1709 441 
Q 2250 441 2565 725 
Q 2881 1009 2881 1497 
Q 2881 1984 2565 2268 
Q 2250 2553 1709 2553 
Q 1456 2553 1204 2497 
Q 953 2441 691 2322 
L 691 4666 
z
" id="DejaVuSans-35" transform="scale(0.015625)"/>
       </defs>
       <use xlink:href="#DejaVuSans-30"/>
       <use x="63.623047" xlink:href="#DejaVuSans-2e"/>
       <use x="95.410156" xlink:href="#DejaVuSans-37"/>
       <use x="159.033203" xlink:href="#DejaVuSans-35"/>
      </g>
     </g>
    </g>
    <g id="xtick_2">
     <g id="line2d_2">
      <g>
       <use style="stroke:#000000;stroke-width:0.8;" x="99.713241" xlink:href="#m55b6cfc838" y="307.584"/>
      </g>
     </g>
     <g id="text_2">
      <!-- 1.00 -->
      <g transform="translate(88.580428 322.182437)scale(0.1 -0.1)">
       <defs>
        <path d="M 794 531 
L 1825 531 
L 1825 4091 
L 703 3866 
L 703 4441 
L 1819 4666 
L 2450 4666 
L 2450 531 
L 3481 531 
L 3481 0 
L 794 0 
L 794 531 
z
" id="DejaVuSans-31" transform="scale(0.015625)"/>
       </defs>
       <use xlink:href="#DejaVuSans-31"/>
       <use x="63.623047" xlink:href="#DejaVuSans-2e"/>
       <use x="95.410156" xlink:href="#DejaVuSans-30"/>
       <use x="159.033203" xlink:href="#DejaVuSans-30"/>
      </g>
     </g>
    </g>
    <g id="xtick_3">
     <g id="line2d_3">
      <g>
       <use style="stroke:#000000;stroke-width:0.8;" x="139.724677" xlink:href="#m55b6cfc838" y="307.584"/>
      </g>
     </g>
     <g id="text_3">
      <!-- 1.25 -->
      <g transform="translate(128.591864 322.182437)scale(0.1 -0.1)">
       <defs>
        <path d="M 1228 531 
L 3431 531 
L 3431 0 
L 469 0 
L 469 531 
Q 828 903 1448 1529 
Q 2069 2156 2228 2338 
Q 2531 2678 2651 2914 
Q 2772 3150 2772 3378 
Q 2772 3750 2511 3984 
Q 2250 4219 1831 4219 
Q 1534 4219 1204 4116 
Q 875 4013 500 3803 
L 500 4441 
Q 881 4594 1212 4672 
Q 1544 4750 1819 4750 
Q 2544 4750 2975 4387 
Q 3406 4025 3406 3419 
Q 3406 3131 3298 2873 
Q 3191 2616 2906 2266 
Q 2828 2175 2409 1742 
Q 1991 1309 1228 531 
z
" id="DejaVuSans-32" transform="scale(0.015625)"/>
       </defs>
       <use xlink:href="#DejaVuSans-31"/>
       <use x="63.623047" xlink:href="#DejaVuSans-2e"/>
       <use x="95.410156" xlink:href="#DejaVuSans-32"/>
       <use x="159.033203" xlink:href="#DejaVuSans-35"/>
      </g>
     </g>
    </g>
    <g id="xtick_4">
     <g id="line2d_4">
      <g>
       <use style="stroke:#000000;stroke-width:0.8;" x="179.736113" xlink:href="#m55b6cfc838" y="307.584"/>
      </g>
     </g>
     <g id="text_4">
      <!-- 1.50 -->
      <g transform="translate(168.6033 322.182437)scale(0.1 -0.1)">
       <use xlink:href="#DejaVuSans-31"/>
       <use x="63.623047" xlink:href="#DejaVuSans-2e"/>
       <use x="95.410156" xlink:href="#DejaVuSans-35"/>
       <use x="159.033203" xlink:href="#DejaVuSans-30"/>
      </g>
     </g>
    </g>
    <g id="xtick_5">
     <g id="line2d_5">
      <g>
       <use style="stroke:#000000;stroke-width:0.8;" x="219.747549" xlink:href="#m55b6cfc838" y="307.584"/>
      </g>
     </g>
     <g id="text_5">
      <!-- 1.75 -->
      <g transform="translate(208.614737 322.182437)scale(0.1 -0.1)">
       <use xlink:href="#DejaVuSans-31"/>
       <use x="63.623047" xlink:href="#DejaVuSans-2e"/>
       <use x="95.410156" xlink:href="#DejaVuSans-37"/>
       <use x="159.033203" xlink:href="#DejaVuSans-35"/>
      </g>
     </g>
    </g>
    <g id="xtick_6">
     <g id="line2d_6">
      <g>
       <use style="stroke:#000000;stroke-width:0.8;" x="259.758985" xlink:href="#m55b6cfc838" y="307.584"/>
      </g>
     </g>
     <g id="text_6">
      <!-- 2.00 -->
      <g transform="translate(248.626173 322.182437)scale(0.1 -0.1)">
       <use xlink:href="#DejaVuSans-32"/>
       <use x="63.623047" xlink:href="#DejaVuSans-2e"/>
       <use x="95.410156" xlink:href="#DejaVuSans-30"/>
       <use x="159.033203" xlink:href="#DejaVuSans-30"/>
      </g>
     </g>
    </g>
    <g id="xtick_7">
     <g id="line2d_7">
      <g>
       <use style="stroke:#000000;stroke-width:0.8;" x="299.770421" xlink:href="#m55b6cfc838" y="307.584"/>
      </g>
     </g>
     <g id="text_7">
      <!-- 2.25 -->
      <g transform="translate(288.637609 322.182437)scale(0.1 -0.1)">
       <use xlink:href="#DejaVuSans-32"/>
       <use x="63.623047" xlink:href="#DejaVuSans-2e"/>
       <use x="95.410156" xlink:href="#DejaVuSans-32"/>
       <use x="159.033203" xlink:href="#DejaVuSans-35"/>
      </g>
     </g>
    </g>
    <g id="xtick_8">
     <g id="line2d_8">
      <g>
       <use style="stroke:#000000;stroke-width:0.8;" x="339.781858" xlink:href="#m55b6cfc838" y="307.584"/>
      </g>
     </g>
     <g id="text_8">
      <!-- 2.50 -->
      <g transform="translate(328.649045 322.182437)scale(0.1 -0.1)">
       <use xlink:href="#DejaVuSans-32"/>
       <use x="63.623047" xlink:href="#DejaVuSans-2e"/>
       <use x="95.410156" xlink:href="#DejaVuSans-35"/>
       <use x="159.033203" xlink:href="#DejaVuSans-30"/>
      </g>
     </g>
    </g>
    <g id="xtick_9">
     <g id="line2d_9">
      <g>
       <use style="stroke:#000000;stroke-width:0.8;" x="379.793294" xlink:href="#m55b6cfc838" y="307.584"/>
      </g>
     </g>
     <g id="text_9">
      <!-- 2.75 -->
      <g transform="translate(368.660481 322.182437)scale(0.1 -0.1)">
       <use xlink:href="#DejaVuSans-32"/>
       <use x="63.623047" xlink:href="#DejaVuSans-2e"/>
       <use x="95.410156" xlink:href="#DejaVuSans-37"/>
       <use x="159.033203" xlink:href="#DejaVuSans-35"/>
      </g>
     </g>
    </g>
   </g>
   <g id="matplotlib.axis_2">
    <g id="ytick_1">
     <g id="line2d_10">
      <defs>
       <path d="M 0 0 
L -3.5 0 
" id="m4e26d871dc" style="stroke:#000000;stroke-width:0.8;"/>
      </defs>
      <g>
       <use style="stroke:#000000;stroke-width:0.8;" x="57.6" xlink:href="#m4e26d871dc" y="305.140559"/>
      </g>
     </g>
     <g id="text_10">
      <!-- −80 -->
      <g transform="translate(29.495313 308.939778)scale(0.1 -0.1)">
       <defs>
        <path d="M 678 2272 
L 4684 2272 
L 4684 1741 
L 678 1741 
L 678 2272 
z
" id="DejaVuSans-2212" transform="scale(0.015625)"/>
        <path d="M 2034 2216 
Q 1584 2216 1326 1975 
Q 1069 1734 1069 1313 
Q 1069 891 1326 650 
Q 1584 409 2034 409 
Q 2484 409 2743 651 
Q 3003 894 3003 1313 
Q 3003 1734 2745 1975 
Q 2488 2216 2034 2216 
z
M 1403 2484 
Q 997 2584 770 2862 
Q 544 3141 544 3541 
Q 544 4100 942 4425 
Q 1341 4750 2034 4750 
Q 2731 4750 3128 4425 
Q 3525 4100 3525 3541 
Q 3525 3141 3298 2862 
Q 3072 2584 2669 2484 
Q 3125 2378 3379 2068 
Q 3634 1759 3634 1313 
Q 3634 634 3220 271 
Q 2806 -91 2034 -91 
Q 1263 -91 848 271 
Q 434 634 434 1313 
Q 434 1759 690 2068 
Q 947 2378 1403 2484 
z
M 1172 3481 
Q 1172 3119 1398 2916 
Q 1625 2713 2034 2713 
Q 2441 2713 2670 2916 
Q 2900 3119 2900 3481 
Q 2900 3844 2670 4047 
Q 2441 4250 2034 4250 
Q 1625 4250 1398 4047 
Q 1172 3844 1172 3481 
z
" id="DejaVuSans-38" transform="scale(0.015625)"/>
       </defs>
       <use xlink:href="#DejaVuSans-2212"/>
       <use x="83.789062" xlink:href="#DejaVuSans-38"/>
       <use x="147.412109" xlink:href="#DejaVuSans-30"/>
      </g>
     </g>
    </g>
    <g id="ytick_2">
     <g id="line2d_11">
      <g>
       <use style="stroke:#000000;stroke-width:0.8;" x="57.6" xlink:href="#m4e26d871dc" y="251.931713"/>
      </g>
     </g>
     <g id="text_11">
      <!-- −60 -->
      <g transform="translate(29.495313 255.730932)scale(0.1 -0.1)">
       <defs>
        <path d="M 2113 2584 
Q 1688 2584 1439 2293 
Q 1191 2003 1191 1497 
Q 1191 994 1439 701 
Q 1688 409 2113 409 
Q 2538 409 2786 701 
Q 3034 994 3034 1497 
Q 3034 2003 2786 2293 
Q 2538 2584 2113 2584 
z
M 3366 4563 
L 3366 3988 
Q 3128 4100 2886 4159 
Q 2644 4219 2406 4219 
Q 1781 4219 1451 3797 
Q 1122 3375 1075 2522 
Q 1259 2794 1537 2939 
Q 1816 3084 2150 3084 
Q 2853 3084 3261 2657 
Q 3669 2231 3669 1497 
Q 3669 778 3244 343 
Q 2819 -91 2113 -91 
Q 1303 -91 875 529 
Q 447 1150 447 2328 
Q 447 3434 972 4092 
Q 1497 4750 2381 4750 
Q 2619 4750 2861 4703 
Q 3103 4656 3366 4563 
z
" id="DejaVuSans-36" transform="scale(0.015625)"/>
       </defs>
       <use xlink:href="#DejaVuSans-2212"/>
       <use x="83.789062" xlink:href="#DejaVuSans-36"/>
       <use x="147.412109" xlink:href="#DejaVuSans-30"/>
      </g>
     </g>
    </g>
    <g id="ytick_3">
     <g id="line2d_12">
      <g>
       <use style="stroke:#000000;stroke-width:0.8;" x="57.6" xlink:href="#m4e26d871dc" y="198.722867"/>
      </g>
     </g>
     <g id="text_12">
      <!-- −40 -->
      <g transform="translate(29.495313 202.522086)scale(0.1 -0.1)">
       <defs>
        <path d="M 2419 4116 
L 825 1625 
L 2419 1625 
L 2419 4116 
z
M 2253 4666 
L 3047 4666 
L 3047 1625 
L 3713 1625 
L 3713 1100 
L 3047 1100 
L 3047 0 
L 2419 0 
L 2419 1100 
L 313 1100 
L 313 1709 
L 2253 4666 
z
" id="DejaVuSans-34" transform="scale(0.015625)"/>
       </defs>
       <use xlink:href="#DejaVuSans-2212"/>
       <use x="83.789062" xlink:href="#DejaVuSans-34"/>
       <use x="147.412109" xlink:href="#DejaVuSans-30"/>
      </g>
     </g>
    </g>
    <g id="ytick_4">
     <g id="line2d_13">
      <g>
       <use style="stroke:#000000;stroke-width:0.8;" x="57.6" xlink:href="#m4e26d871dc" y="145.514021"/>
      </g>
     </g>
     <g id="text_13">
      <!-- −20 -->
      <g transform="translate(29.495313 149.31324)scale(0.1 -0.1)">
       <use xlink:href="#DejaVuSans-2212"/>
       <use x="83.789062" xlink:href="#DejaVuSans-32"/>
       <use x="147.412109" xlink:href="#DejaVuSans-30"/>
      </g>
     </g>
    </g>
    <g id="ytick_5">
     <g id="line2d_14">
      <g>
       <use style="stroke:#000000;stroke-width:0.8;" x="57.6" xlink:href="#m4e26d871dc" y="92.305175"/>
      </g>
     </g>
     <g id="text_14">
      <!-- 0 -->
      <g transform="translate(44.2375 96.104394)scale(0.1 -0.1)">
       <use xlink:href="#DejaVuSans-30"/>
      </g>
     </g>
    </g>
   </g>
   <g id="line2d_15">
    <path clip-path="url(#p62b4511772)" d="M 73.832727 213.309305 
L 74.149155 213.355004 
L 74.78201 213.276463 
L 75.098437 213.328342 
L 75.573078 213.539536 
L 75.889506 213.663213 
L 76.205933 213.518486 
L 76.52236 213.55896 
L 77.313429 213.597599 
L 78.262711 214.054506 
L 79.370207 213.588344 
L 79.686635 213.310496 
L 80.003062 213.318434 
L 80.477703 212.942142 
L 80.794131 212.806423 
L 80.952344 212.755929 
L 81.585199 213.013898 
L 81.901627 212.955852 
L 82.218054 212.877026 
L 82.534482 212.662461 
L 82.850909 212.771367 
L 84.433046 213.041706 
L 85.065901 212.8261 
L 87.597321 213.541694 
L 87.913748 213.621986 
L 89.337671 214.027135 
L 89.495885 214.054575 
L 90.12874 213.758731 
L 90.603381 213.83529 
L 91.078022 213.410875 
L 91.236236 213.365511 
L 91.552663 213.439986 
L 91.869091 213.42633 
L 92.185518 213.576333 
L 92.976587 213.151313 
L 93.293014 213.149367 
L 93.609442 212.954767 
L 94.084083 213.122486 
L 94.40051 213.260921 
L 94.716938 213.260275 
L 94.875152 213.253855 
L 95.824434 212.566881 
L 95.982648 212.514367 
L 96.299075 212.21326 
L 97.564785 212.672406 
L 97.881212 212.495999 
L 98.514067 212.414063 
L 98.830494 212.316171 
L 100.887273 212.798556 
L 101.2037 212.96731 
L 101.361914 212.970257 
L 101.994769 213.362706 
L 102.627624 212.992524 
L 103.418692 212.930948 
L 103.73512 212.857041 
L 104.367974 212.61937 
L 104.526188 212.615697 
L 104.684402 212.494323 
L 104.842616 212.552063 
L 105.000829 212.433541 
L 105.317257 212.482478 
L 105.47547 212.223126 
L 105.791898 218.834974 
L 106.266539 226.171605 
L 107.057608 234.034571 
L 108.00689 242.024566 
L 108.956172 248.505712 
L 110.221882 256.376177 
L 112.120447 265.473411 
L 112.753301 268.128714 
L 113.227943 269.896383 
L 116.234003 281.370051 
L 116.866858 283.064674 
L 117.183285 283.676069 
L 117.657927 285.028239 
L 119.872919 289.541055 
L 120.34756 290.291696 
L 122.246124 293.242664 
L 122.720766 293.718513 
L 123.35362 294.455107 
L 123.986475 294.363744 
L 124.302903 294.292905 
L 124.777544 294.536271 
L 125.252185 294.485251 
L 125.726826 294.750564 
L 126.201467 294.72788 
L 126.834322 295.166622 
L 127.308963 295.360291 
L 127.625391 295.488 
L 128.258246 295.41426 
L 129.840383 294.047324 
L 130.473238 293.788845 
L 130.789665 293.725557 
L 131.264306 293.854069 
L 131.738947 293.829079 
L 131.897161 293.87101 
L 132.213589 293.631446 
L 132.530016 293.639928 
L 132.846443 293.56766 
L 133.162871 293.156305 
L 133.795726 292.865122 
L 134.270367 292.864446 
L 134.745008 292.83262 
L 135.219649 292.796362 
L 135.536077 292.800302 
L 135.852504 292.74503 
L 136.010718 292.739994 
L 136.327145 292.479571 
L 136.643573 292.502955 
L 136.96 292.515339 
L 137.592855 292.55505 
L 137.909282 292.335006 
L 138.22571 292.303185 
L 138.542137 292.171393 
L 140.440702 290.494501 
L 140.915343 290.036241 
L 141.23177 289.808629 
L 141.706411 289.819878 
L 142.022839 289.693805 
L 142.49748 289.537834 
L 142.813907 289.284304 
L 142.972121 289.219742 
L 143.76319 288.372782 
L 144.079617 288.239166 
L 144.870686 287.865609 
L 145.978182 287.136349 
L 146.611037 286.242529 
L 147.402105 285.521958 
L 147.718533 285.357186 
L 148.03496 285.069275 
L 148.351388 284.803921 
L 148.826029 284.176485 
L 149.142456 283.87009 
L 149.775311 283.54829 
L 151.199234 283.332041 
L 151.515662 282.972926 
L 151.832089 282.72272 
L 152.148517 282.659143 
L 152.623158 282.482295 
L 152.939585 282.455359 
L 153.730654 281.396848 
L 154.996364 280.466179 
L 155.312791 280.279888 
L 155.945646 279.93678 
L 156.578501 279.665448 
L 156.894928 279.455304 
L 158.951707 278.532661 
L 159.742775 277.942879 
L 159.900989 277.805247 
L 160.217416 277.249881 
L 160.533844 277.126159 
L 160.850271 277.185815 
L 161.166699 277.039683 
L 161.64134 276.846975 
L 162.274195 277.049351 
L 163.223477 276.960201 
L 163.381691 277.061311 
L 163.856332 277.015204 
L 164.172759 277.173893 
L 164.6474 276.93153 
L 165.438469 277.091476 
L 165.91311 276.868003 
L 166.071324 276.863142 
L 166.387751 276.61815 
L 166.545965 276.564509 
L 166.862392 276.28063 
L 167.020606 276.300981 
L 167.653461 275.814803 
L 168.128102 275.956542 
L 168.760957 275.841013 
L 169.077384 275.402633 
L 169.393812 275.244705 
L 169.710239 275.349532 
L 170.343094 275.379057 
L 170.659522 275.538395 
L 170.975949 275.419479 
L 172.399872 273.98406 
L 172.874514 273.465325 
L 173.190941 273.576095 
L 173.349155 273.542872 
L 173.823796 273.762497 
L 174.456651 274.033393 
L 175.089506 274.032639 
L 175.564147 273.543578 
L 176.038788 273.63215 
L 176.197002 273.518356 
L 176.513429 273.549813 
L 177.620925 272.820068 
L 177.937352 272.831306 
L 178.728421 273.095708 
L 179.361276 272.961445 
L 179.994131 272.470946 
L 180.310558 272.343866 
L 180.785199 271.87427 
L 182.683764 272.146818 
L 183.474833 271.53643 
L 183.79126 271.521664 
L 185.689825 271.805075 
L 186.164466 271.56228 
L 186.797321 271.460331 
L 187.430175 271.018446 
L 187.904817 271.050278 
L 188.854099 270.757265 
L 189.645167 270.590826 
L 189.961595 270.363064 
L 190.278022 270.153051 
L 192.176587 269.916698 
L 192.651228 269.839493 
L 192.967656 270.057475 
L 193.442297 270.438321 
L 193.916938 270.48225 
L 194.391579 270.810854 
L 195.815502 270.77899 
L 197.39764 271.070379 
L 197.714067 271.007551 
L 198.505136 270.385043 
L 198.821563 270.393592 
L 200.087273 269.631902 
L 200.561914 269.710529 
L 201.036555 269.374765 
L 201.352982 269.145357 
L 201.66941 269.059152 
L 202.144051 269.183586 
L 202.460478 269.308551 
L 203.093333 269.625552 
L 203.251547 269.489647 
L 204.517257 269.672772 
L 204.67547 269.687784 
L 204.991898 269.93861 
L 205.624753 270.002498 
L 205.94118 269.865544 
L 206.415821 269.855678 
L 206.732249 269.710208 
L 207.048676 269.626691 
L 207.365104 269.587377 
L 208.789027 269.099592 
L 210.212951 269.280425 
L 210.529378 269.286501 
L 211.162233 268.989716 
L 211.953301 269.130315 
L 212.427943 268.712783 
L 212.74437 268.727059 
L 213.535439 268.608163 
L 214.01008 268.250804 
L 214.168293 268.286291 
L 214.801148 267.657267 
L 215.117576 267.74694 
L 216.225072 267.821498 
L 216.541499 267.623917 
L 217.01614 267.491173 
L 217.965423 268.280422 
L 218.28185 268.607795 
L 218.598278 268.555367 
L 218.756491 268.606588 
L 219.231132 268.019327 
L 219.705774 268.140885 
L 220.496842 267.994902 
L 220.81327 268.068749 
L 221.129697 267.79701 
L 221.446124 267.836607 
L 221.920766 268.009834 
L 223.81933 268.376168 
L 223.977544 268.460111 
L 224.768612 268.102531 
L 225.243254 267.936095 
L 226.667177 268.300075 
L 227.300032 267.908072 
L 227.616459 268.163116 
L 227.932887 268.367427 
L 228.249314 268.658839 
L 228.882169 269.169486 
L 229.515024 269.414668 
L 229.673238 269.376461 
L 230.147879 269.71377 
L 230.62252 269.795381 
L 230.938947 269.697854 
L 231.255375 269.861505 
L 232.521085 269.883439 
L 233.153939 270.304023 
L 234.419649 270.531592 
L 234.577863 270.630824 
L 235.368931 270.316642 
L 235.685359 270.42896 
L 236.001786 270.189619 
L 236.634641 270.322517 
L 237.267496 270.036167 
L 237.583923 269.790078 
L 238.691419 269.857359 
L 239.324274 270.369722 
L 239.798915 270.569872 
L 240.115343 270.771985 
L 241.539266 270.27095 
L 242.013907 270.456426 
L 242.646762 270.136534 
L 242.96319 269.688942 
L 243.279617 269.660077 
L 243.437831 269.710103 
L 244.2289 269.060712 
L 244.703541 268.856986 
L 245.336396 269.238452 
L 246.760319 269.402644 
L 247.076746 269.300494 
L 248.342456 268.178079 
L 249.291738 268.410506 
L 249.608166 268.422749 
L 249.924593 268.676572 
L 250.557448 268.72129 
L 251.664944 267.96258 
L 251.981372 267.951244 
L 253.563509 267.997859 
L 253.879936 267.930307 
L 254.03815 267.974546 
L 254.987432 267.147393 
L 255.145646 267.209279 
L 255.462073 266.963274 
L 255.778501 267.093602 
L 256.094928 266.689045 
L 256.411356 266.390884 
L 257.993493 266.030485 
L 258.468134 266.107382 
L 258.784561 266.17812 
L 259.100989 266.364179 
L 260.050271 266.638507 
L 260.366699 266.737766 
L 260.84134 266.822915 
L 260.999553 266.869885 
L 261.632408 266.154895 
L 262.107049 266.27247 
L 262.739904 266.588262 
L 262.898118 266.808892 
L 263.056332 266.797556 
L 263.689187 267.143809 
L 264.954896 246.961451 
L 265.745965 240.359741 
L 266.853461 232.78009 
L 269.226667 219.467933 
L 270.967018 210.925298 
L 273.18201 199.946695 
L 273.340223 198.43888 
L 273.498437 197.998042 
L 273.814864 195.538497 
L 273.973078 194.417042 
L 274.131292 192.394362 
L 274.289506 192.193201 
L 274.447719 189.258411 
L 274.605933 189.836867 
L 274.764147 186.540269 
L 275.080574 184.332841 
L 275.238788 179.217174 
L 275.397002 184.22878 
L 275.713429 102.085624 
L 276.029856 168.185278 
L 276.346284 191.581575 
L 276.504498 192.802554 
L 276.662711 197.176577 
L 276.820925 196.174267 
L 276.979139 196.488813 
L 277.137352 195.357574 
L 277.295566 193.357974 
L 277.45378 193.210106 
L 277.611994 190.1906 
L 277.770207 189.88022 
L 278.086635 185.878573 
L 278.244848 184.71895 
L 278.403062 181.919526 
L 278.561276 182.376162 
L 278.71949 177.806601 
L 278.877703 178.616091 
L 279.035917 173.878315 
L 279.194131 172.779555 
L 279.352344 168.893552 
L 279.510558 115.853353 
L 279.668772 101.093943 
L 279.985199 162.951821 
L 280.301627 186.244015 
L 280.618054 194.286056 
L 280.776268 194.28177 
L 280.934482 195.934693 
L 281.250909 195.168452 
L 281.409123 194.826356 
L 283.465901 179.790781 
L 283.624115 177.460026 
L 283.782329 177.716554 
L 283.940542 173.898885 
L 284.098756 174.670111 
L 284.25697 170.293172 
L 284.415183 169.284392 
L 284.573397 165.736036 
L 284.889825 97.833779 
L 285.206252 160.952955 
L 285.522679 185.806082 
L 285.997321 194.917223 
L 286.155534 196.901948 
L 286.313748 196.699582 
L 286.630175 197.050745 
L 286.788389 196.14805 
L 286.946603 196.119621 
L 287.579458 192.322661 
L 287.895885 190.45188 
L 289.003381 183.829101 
L 289.161595 182.214381 
L 289.319809 181.799817 
L 289.478022 179.715512 
L 289.636236 179.145761 
L 289.952663 175.975357 
L 290.110877 175.569421 
L 290.269091 171.785791 
L 290.427305 173.099504 
L 290.585518 166.95805 
L 290.743732 169.967675 
L 290.901946 155.90092 
L 291.060159 100.975475 
L 291.218373 103.910681 
L 291.534801 162.649481 
L 291.851228 185.412944 
L 292.167656 195.079692 
L 292.325869 195.971687 
L 292.484083 197.984468 
L 292.642297 197.502553 
L 292.80051 198.121972 
L 293.116938 197.173023 
L 293.275152 197.121327 
L 293.433365 196.167527 
L 293.591579 195.968539 
L 297.072281 179.313771 
L 297.546922 175.903343 
L 298.021563 172.443215 
L 298.179777 172.402726 
L 298.33799 170.109618 
L 298.496204 169.935639 
L 298.812632 166.440865 
L 298.970845 166.908976 
L 299.129059 160.728877 
L 299.287273 165.954131 
L 299.6037 90.263798 
L 300.236555 182.23995 
L 300.711196 195.769521 
L 301.027624 198.948982 
L 301.185837 198.775576 
L 301.344051 199.815174 
L 301.502265 199.163799 
L 301.660478 199.312326 
L 301.818692 199.137356 
L 301.976906 198.647575 
L 302.13512 198.561231 
L 302.293333 197.888581 
L 302.451547 197.711571 
L 303.717257 194.178294 
L 304.350112 192.423354 
L 305.457608 189.782805 
L 305.774035 189.146099 
L 306.248676 187.769618 
L 306.565104 187.17538 
L 308.621882 181.982687 
L 309.887592 177.61775 
L 310.362233 175.337491 
L 311.469729 170.673351 
L 311.627943 169.109538 
L 311.786156 169.510238 
L 311.94437 165.972597 
L 312.102584 167.544304 
L 312.260797 162.759856 
L 312.419011 163.375807 
L 312.577225 156.531099 
L 312.735439 104.159371 
L 312.893652 96.475013 
L 313.21008 159.625912 
L 313.526507 186.103713 
L 313.842935 197.426298 
L 314.001148 198.829182 
L 314.159362 201.555424 
L 314.317576 202.0002 
L 314.634003 203.447323 
L 314.792217 203.212205 
L 314.950431 203.650329 
L 315.108644 203.2657 
L 315.266858 203.563868 
L 315.583285 203.039214 
L 315.741499 202.959894 
L 316.374354 202.020066 
L 317.798278 199.943799 
L 318.272919 199.373652 
L 318.589346 198.781389 
L 319.222201 197.752009 
L 320.329697 196.829802 
L 321.75362 195.587956 
L 322.544689 194.74001 
L 323.01933 194.52202 
L 324.126826 193.513593 
L 324.443254 193.2809 
L 324.917895 192.940275 
L 326.025391 192.23672 
L 326.974673 191.853031 
L 327.449314 191.193402 
L 327.923955 190.866068 
L 328.55681 191.194481 
L 329.347879 190.850155 
L 330.297161 190.197631 
L 330.771802 190.191358 
L 330.930016 190.095795 
L 331.246443 190.21443 
L 331.879298 190.169885 
L 332.353939 190.364587 
L 332.512153 190.12183 
L 333.145008 190.05367 
L 333.936077 189.468207 
L 334.252504 189.550008 
L 335.043573 189.397984 
L 335.992855 189.048587 
L 336.62571 189.068578 
L 337.258565 189.374258 
L 337.416778 189.437655 
L 338.049633 188.771824 
L 338.366061 188.593256 
L 338.840702 188.214344 
L 339.473557 188.390912 
L 339.63177 188.505668 
L 340.106411 188.4478 
L 340.422839 188.35934 
L 341.213907 187.968919 
L 342.321404 187.695663 
L 342.637831 187.732861 
L 343.112472 187.404927 
L 343.903541 187.291414 
L 344.061754 187.219878 
L 344.378182 187.243916 
L 344.852823 186.988303 
L 347.067815 185.064384 
L 347.384242 184.794342 
L 348.96638 183.180861 
L 349.441021 182.253399 
L 349.915662 181.905912 
L 350.073876 181.955656 
L 351.023158 181.389308 
L 351.339585 181.322397 
L 351.656013 181.115848 
L 351.814226 180.913012 
L 352.130654 180.985805 
L 352.447081 180.981635 
L 353.23815 180.259129 
L 353.554577 179.986863 
L 353.871005 179.735639 
L 354.345646 179.6092 
L 354.662073 179.489858 
L 354.978501 179.601267 
L 355.294928 179.401732 
L 355.927783 179.097954 
L 356.402424 178.739917 
L 357.035279 178.75741 
L 357.351707 178.253997 
L 357.826348 178.272254 
L 358.142775 178.101905 
L 358.459203 177.694196 
L 359.092057 176.491444 
L 359.724912 175.345218 
L 361.781691 172.263508 
L 362.098118 171.973632 
L 362.572759 171.000117 
L 362.730973 170.790164 
L 363.363828 168.637712 
L 363.522041 168.768799 
L 363.838469 167.776876 
L 363.996683 167.72714 
L 364.154896 166.327842 
L 364.31311 166.889888 
L 364.471324 165.404762 
L 364.629537 166.354193 
L 364.945965 163.98634 
L 365.104179 164.327345 
L 365.262392 158.735505 
L 365.420606 163.513411 
L 365.737033 88.137042 
L 366.211675 167.491957 
L 366.528102 188.798888 
L 366.84453 198.416588 
L 367.160957 202.864614 
L 367.319171 203.260748 
L 367.477384 204.816318 
L 367.635598 204.705369 
L 367.952026 205.911371 
L 368.426667 206.61414 
L 368.58488 207.148031 
L 368.743094 207.223448 
L 369.059522 207.626246 
L 369.217735 207.581533 
L 369.375949 207.697551 
L 369.534163 207.651796 
L 370.008804 208.023595 
L 370.325231 208.345523 
L 370.799872 208.613154 
L 371.274514 208.814665 
L 371.432727 208.733853 
L 371.749155 208.942587 
L 372.540223 208.85093 
L 372.856651 208.829183 
L 373.805933 208.996676 
L 374.597002 209.400316 
L 375.704498 209.577425 
L 376.65378 210.293595 
L 377.286635 210.3651 
L 377.444848 210.282869 
L 378.235917 210.569987 
L 378.394131 210.551359 
L 379.026986 210.833205 
L 379.185199 210.905289 
L 379.343413 210.81139 
L 379.659841 210.97966 
L 380.134482 210.906665 
L 381.083764 210.900895 
L 381.558405 211.249127 
L 382.349474 211.561454 
L 382.982329 211.442894 
L 383.298756 211.659795 
L 383.45697 211.665367 
L 384.089825 212.044559 
L 385.039107 212.262855 
L 385.513748 212.260305 
L 386.621244 212.963903 
L 386.937671 212.973417 
L 387.254099 212.966741 
L 387.72874 213.155483 
L 388.361595 213.214908 
L 388.678022 213.479439 
L 389.469091 213.53718 
L 390.260159 213.937844 
L 390.576587 213.847994 
L 390.893014 213.888091 
L 391.209442 213.770426 
L 391.684083 213.90361 
L 392.158724 214.284456 
L 392.949793 214.56613 
L 393.26622 214.414769 
L 393.424434 214.457044 
L 393.899075 214.156232 
L 394.215502 213.847968 
L 394.53193 213.945354 
L 394.848357 213.661526 
L 395.639426 213.213943 
L 395.955853 213.266641 
L 396.588708 213.034888 
L 398.012632 213.20178 
L 398.487273 213.208637 
L 398.487273 213.208637 
" style="fill:none;stroke:#000000;stroke-linecap:square;stroke-width:1.5;"/>
   </g>
   <g id="line2d_16">
    <path clip-path="url(#p62b4511772)" d="M 73.832727 213.669754 
L 74.149155 213.701129 
L 74.623796 214.01094 
L 74.78201 213.959669 
L 75.414864 214.198985 
L 75.731292 214.056219 
L 76.52236 213.94388 
L 76.997002 213.875685 
L 77.313429 213.887255 
L 77.629856 213.68866 
L 78.737352 213.992355 
L 79.05378 213.89292 
L 80.161276 214.16734 
L 80.794131 214.533131 
L 81.110558 214.599947 
L 81.268772 214.705351 
L 81.901627 214.599421 
L 82.376268 214.636349 
L 82.692695 214.473779 
L 83.32555 214.607977 
L 84.274833 215.065618 
L 84.749474 215.226369 
L 85.065901 215.344914 
L 85.382329 215.064855 
L 85.85697 215.157933 
L 86.015183 215.091428 
L 86.331611 214.834643 
L 86.648038 214.818148 
L 86.806252 214.916477 
L 87.280893 214.623648 
L 87.755534 214.426123 
L 88.230175 213.995717 
L 88.704817 214.040642 
L 89.021244 213.915387 
L 89.812313 214.223151 
L 90.445167 214.006284 
L 90.761595 213.896949 
L 91.078022 213.909363 
L 91.552663 214.049123 
L 92.185518 214.132086 
L 92.501946 213.903799 
L 93.451228 214.011556 
L 94.242297 213.857215 
L 94.716938 213.992567 
L 95.349793 214.093933 
L 95.66622 214.216407 
L 96.299075 213.933364 
L 97.090144 213.986113 
L 97.722998 213.835407 
L 98.19764 214.146192 
L 98.988708 213.61202 
L 99.146922 213.660981 
L 99.621563 213.510959 
L 100.729059 213.467588 
L 101.2037 213.186429 
L 101.994769 213.177762 
L 102.152982 212.997271 
L 102.785837 212.91795 
L 103.102265 212.544364 
L 103.576906 212.57653 
L 104.209761 212.48793 
L 105.47547 212.339578 
L 105.791898 214.971374 
L 106.266539 217.918803 
L 108.00689 225.277602 
L 108.797959 227.428968 
L 109.905455 230.038691 
L 110.696523 232.013107 
L 113.069729 237.142494 
L 113.860797 238.338017 
L 114.177225 238.860043 
L 114.81008 239.733104 
L 115.284721 240.434442 
L 116.075789 241.214583 
L 116.392217 241.262532 
L 118.448995 243.373299 
L 119.556491 243.828728 
L 120.505774 244.054172 
L 120.822201 244.033733 
L 121.771483 244.125209 
L 122.087911 244.357272 
L 122.720766 244.341527 
L 123.037193 244.402504 
L 123.35362 244.331895 
L 123.828262 244.401072 
L 124.61933 244.848607 
L 124.935758 244.605293 
L 125.410399 244.530949 
L 125.88504 244.551259 
L 126.043254 244.718396 
L 126.834322 244.724524 
L 127.308963 245.010088 
L 127.467177 244.922878 
L 127.941818 245.154047 
L 128.732887 245.58845 
L 129.365742 245.564901 
L 129.682169 245.420513 
L 129.840383 245.463275 
L 131.106093 244.913215 
L 131.42252 244.924419 
L 132.055375 244.693279 
L 132.371802 244.755535 
L 133.321085 244.9177 
L 133.795726 245.053823 
L 134.586794 245.370932 
L 134.903222 245.385279 
L 135.219649 245.470024 
L 135.377863 245.450826 
L 135.852504 245.714934 
L 136.168931 245.887843 
L 136.327145 245.841627 
L 136.96 246.177497 
L 137.751069 246.263456 
L 138.383923 246.076776 
L 139.174992 246.111886 
L 139.491419 246.332448 
L 139.649633 246.311564 
L 139.807847 246.418277 
L 140.598915 246.112179 
L 140.915343 245.79132 
L 142.339266 245.587714 
L 143.446762 245.154538 
L 143.921404 245.137334 
L 144.554258 245.023203 
L 144.712472 244.95723 
L 145.0289 244.620079 
L 145.503541 244.432682 
L 145.661754 244.467122 
L 145.978182 244.290076 
L 146.294609 244.17859 
L 147.243892 243.876451 
L 148.03496 243.99144 
L 148.351388 243.801887 
L 148.826029 243.376317 
L 149.30067 243.328905 
L 149.775311 243.651594 
L 150.091738 243.785434 
L 150.724593 243.9299 
L 151.673876 243.742752 
L 151.990303 243.755941 
L 153.414226 243.350504 
L 153.730654 243.388683 
L 154.047081 243.374133 
L 154.363509 243.436482 
L 154.996364 243.654556 
L 155.629219 243.84558 
L 156.10386 243.696631 
L 156.420287 243.326026 
L 156.736715 243.1323 
L 156.894928 243.191682 
L 157.211356 243.571248 
L 158.477065 243.489622 
L 158.793493 243.596093 
L 159.268134 243.471287 
L 159.426348 243.47869 
L 159.584561 243.36529 
L 160.059203 243.362022 
L 160.533844 243.28807 
L 161.324912 243.454381 
L 161.64134 243.659701 
L 161.957767 243.685172 
L 162.274195 243.710248 
L 162.590622 243.637011 
L 163.223477 242.999625 
L 163.856332 242.788983 
L 164.172759 242.678967 
L 164.489187 242.434862 
L 166.071324 242.091169 
L 166.387751 242.132846 
L 166.704179 242.007031 
L 167.17882 242.002743 
L 167.653461 242.219566 
L 168.286316 242.257316 
L 168.760957 242.274502 
L 169.235598 242.063795 
L 169.868453 242.008904 
L 170.343094 241.83681 
L 170.659522 241.770775 
L 173.032727 240.868893 
L 173.507368 240.650084 
L 173.98201 240.634155 
L 174.931292 240.69907 
L 175.247719 240.745306 
L 175.405933 240.688599 
L 175.564147 240.786832 
L 176.513429 240.594327 
L 177.304498 241.175214 
L 178.095566 241.275741 
L 178.411994 241.492469 
L 179.203062 241.384694 
L 179.835917 241.268842 
L 182.050909 240.782415 
L 182.683764 240.838603 
L 183.000191 240.557662 
L 183.474833 240.659194 
L 183.79126 240.710462 
L 184.265901 240.811872 
L 184.582329 240.585899 
L 184.740542 240.590708 
L 184.898756 240.48093 
L 185.215183 240.493322 
L 186.006252 240.016058 
L 186.164466 240.067437 
L 187.588389 238.984806 
L 187.904817 238.808289 
L 188.221244 238.402963 
L 188.854099 238.318027 
L 189.32874 238.244815 
L 189.486954 238.304774 
L 190.119809 238.086426 
L 190.278022 238.162382 
L 190.752663 238.093058 
L 192.018373 238.726471 
L 192.176587 238.720602 
L 192.493014 238.538272 
L 192.967656 238.412045 
L 193.60051 238.551435 
L 194.233365 238.612482 
L 194.708006 238.844456 
L 195.973716 239.429515 
L 196.606571 239.461959 
L 196.922998 239.316942 
L 197.239426 239.094209 
L 197.872281 238.888584 
L 198.346922 239.064647 
L 198.821563 239.065171 
L 199.13799 239.134766 
L 199.454418 239.139131 
L 200.245486 239.235809 
L 200.561914 239.318312 
L 200.878341 239.334166 
L 201.194769 239.341157 
L 201.66941 239.058279 
L 202.144051 238.599621 
L 202.460478 238.542951 
L 202.93512 238.823291 
L 203.409761 238.601329 
L 204.517257 238.332178 
L 204.67547 238.474543 
L 204.991898 238.399847 
L 205.308325 238.68713 
L 205.624753 238.993636 
L 205.782967 239.021505 
L 206.099394 238.901694 
L 206.257608 238.920996 
L 206.732249 238.658095 
L 207.20689 238.841505 
L 207.523317 239.05735 
L 207.839745 239.106609 
L 207.997959 239.213565 
L 208.314386 239.075024 
L 208.630813 239.278207 
L 209.738309 239.561503 
L 210.054737 239.902167 
L 211.320447 240.108754 
L 211.47866 240.129426 
L 211.795088 239.953455 
L 212.586156 239.865426 
L 213.060797 239.75878 
L 213.377225 239.724499 
L 213.851866 239.582295 
L 214.326507 239.652829 
L 215.275789 239.382228 
L 215.592217 239.150041 
L 216.225072 239.293293 
L 216.699713 239.143316 
L 217.01614 239.203026 
L 217.332568 238.932439 
L 217.965423 238.732374 
L 218.28185 238.576105 
L 218.598278 238.673003 
L 219.231132 238.743809 
L 220.022201 239.102711 
L 220.180415 239.094631 
L 220.496842 239.323416 
L 220.81327 239.118159 
L 221.287911 239.242817 
L 221.762552 239.022141 
L 222.078979 238.915752 
L 222.237193 238.910368 
L 222.55362 238.657214 
L 223.186475 238.900833 
L 223.502903 238.579667 
L 224.768612 238.501176 
L 225.401467 238.098016 
L 225.717895 238.048059 
L 226.192536 238.249633 
L 226.508963 238.363889 
L 226.825391 238.320391 
L 227.141818 238.408269 
L 227.458246 238.494591 
L 227.774673 238.362836 
L 228.0911 238.577746 
L 228.249314 238.571539 
L 228.407528 238.693355 
L 228.723955 238.581038 
L 229.040383 238.733656 
L 229.198596 238.691452 
L 229.515024 238.462818 
L 230.147879 238.289624 
L 230.464306 238.06839 
L 230.62252 238.152973 
L 230.938947 238.135718 
L 231.097161 238.162584 
L 231.413589 237.884222 
L 231.730016 237.766707 
L 232.046443 237.561289 
L 232.995726 237.744689 
L 233.312153 237.551927 
L 233.945008 237.065862 
L 234.89429 237.155081 
L 235.368931 237.299242 
L 235.685359 237.091258 
L 236.001786 237.070281 
L 236.634641 236.887139 
L 236.792855 236.899252 
L 237.109282 236.70341 
L 237.583923 236.738915 
L 238.216778 236.686955 
L 239.957129 237.625071 
L 240.748198 237.424839 
L 241.064625 237.11425 
L 241.381053 236.897839 
L 241.69748 236.948003 
L 242.013907 236.761743 
L 242.330335 236.65187 
L 242.646762 236.552144 
L 243.279617 236.735654 
L 243.596045 236.451008 
L 243.912472 236.530461 
L 244.2289 236.433686 
L 244.703541 236.641014 
L 245.178182 236.883029 
L 245.811037 236.741343 
L 246.285678 236.511806 
L 247.393174 236.252082 
L 247.551388 236.301558 
L 248.026029 236.032166 
L 248.817097 235.339678 
L 249.133525 235.137195 
L 249.449952 234.988607 
L 249.76638 234.795433 
L 250.399234 234.392522 
L 250.873876 234.547535 
L 251.348517 234.709699 
L 251.823158 235.021521 
L 252.297799 235.168485 
L 252.614226 235.176813 
L 252.930654 235.45897 
L 253.405295 235.326805 
L 254.196364 235.333161 
L 254.987432 235.662441 
L 255.30386 235.533742 
L 255.462073 235.575865 
L 255.620287 235.440299 
L 256.253142 235.493735 
L 256.727783 235.390462 
L 257.202424 235.508214 
L 257.518852 235.640013 
L 258.151707 235.635351 
L 258.468134 235.695359 
L 258.784561 235.57388 
L 259.259203 235.715396 
L 259.57563 235.565142 
L 260.524912 235.471894 
L 260.84134 235.664648 
L 262.107049 235.948957 
L 262.423477 235.931271 
L 262.898118 236.356115 
L 263.056332 236.333634 
L 263.214545 236.489557 
L 263.689187 236.520674 
L 264.796683 229.265 
L 265.587751 226.587816 
L 267.011675 223.345921 
L 267.486316 222.038922 
L 268.593812 219.762989 
L 269.068453 218.985827 
L 269.859522 217.183203 
L 273.023796 212.565878 
L 273.18201 212.573228 
L 273.340223 212.459405 
L 273.656651 212.074244 
L 273.973078 211.739975 
L 276.820925 209.213171 
L 277.137352 209.065098 
L 277.45378 208.794435 
L 277.928421 208.300901 
L 278.086635 208.281082 
L 278.244848 208.145499 
L 278.71949 208.10065 
L 279.035917 208.00113 
L 279.826986 208.299877 
L 280.301627 208.265233 
L 281.092695 207.49714 
L 281.250909 207.468954 
L 281.567337 207.044708 
L 281.883764 207.078913 
L 282.358405 206.750152 
L 282.833046 206.440472 
L 283.940542 205.787016 
L 284.731611 206.047439 
L 285.522679 205.566574 
L 285.839107 205.364554 
L 286.313748 205.391992 
L 286.471962 205.494508 
L 287.26303 205.279685 
L 287.579458 205.27281 
L 288.054099 205.085513 
L 288.686954 205.205092 
L 289.003381 205.190021 
L 289.319809 205.262665 
L 289.478022 205.192251 
L 289.79445 205.479753 
L 290.585518 205.613149 
L 291.218373 205.235507 
L 291.693014 205.198829 
L 292.167656 205.247888 
L 292.325869 205.392456 
L 292.642297 205.440627 
L 292.80051 205.556178 
L 293.116938 205.475061 
L 293.275152 205.534171 
L 293.591579 205.411627 
L 293.908006 205.609794 
L 294.224434 205.387723 
L 294.540861 205.290668 
L 295.33193 205.14446 
L 296.281212 205.42045 
L 296.59764 205.292157 
L 296.755853 205.155481 
L 298.33799 205.779864 
L 298.970845 205.903987 
L 299.287273 205.993666 
L 299.761914 206.497915 
L 300.394769 206.841076 
L 300.711196 206.936278 
L 301.344051 207.43866 
L 301.660478 207.235883 
L 301.976906 207.294524 
L 302.13512 207.296201 
L 302.451547 207.565228 
L 303.717257 207.965115 
L 304.033684 207.88087 
L 304.666539 207.691667 
L 304.982967 207.937147 
L 305.299394 207.925235 
L 306.248676 208.096408 
L 306.565104 208.293981 
L 307.197959 208.601125 
L 307.6726 208.916976 
L 308.463668 209.155813 
L 309.096523 209.597605 
L 309.412951 209.586771 
L 309.887592 209.191782 
L 310.204019 209.257021 
L 310.520447 209.065135 
L 311.627943 209.126669 
L 311.786156 209.20003 
L 312.102584 209.11624 
L 312.419011 209.157167 
L 312.577225 209.034352 
L 313.21008 209.154552 
L 313.526507 209.365584 
L 313.842935 209.405645 
L 315.899713 210.212364 
L 316.532568 210.58375 
L 316.848995 210.480344 
L 317.165423 210.547457 
L 317.48185 210.494675 
L 317.640064 210.605964 
L 317.956491 210.587574 
L 318.272919 210.762632 
L 318.589346 210.786608 
L 318.905774 211.100949 
L 320.487911 211.233739 
L 321.437193 211.93953 
L 321.595407 211.955764 
L 321.911834 212.099116 
L 322.070048 212.135087 
L 322.386475 212.335066 
L 323.01933 212.171613 
L 323.177544 212.043528 
L 324.28504 212.21045 
L 324.601467 212.086259 
L 325.392536 211.808117 
L 325.55075 211.850354 
L 326.341818 211.443453 
L 327.132887 211.864948 
L 327.2911 211.85733 
L 327.607528 212.057342 
L 328.082169 211.770545 
L 330.455375 211.598503 
L 331.562871 212.055632 
L 332.828581 212.286484 
L 333.145008 212.260532 
L 333.619649 212.361385 
L 333.936077 212.320341 
L 334.252504 212.199053 
L 335.36 212.370438 
L 335.676427 212.565091 
L 335.992855 212.615539 
L 336.62571 212.722892 
L 336.942137 212.663085 
L 337.258565 212.785634 
L 337.574992 212.606069 
L 338.366061 212.645884 
L 338.524274 212.5602 
L 339.157129 212.784669 
L 339.473557 212.655443 
L 339.789984 212.577567 
L 340.106411 212.625356 
L 340.264625 212.594722 
L 340.739266 212.192985 
L 341.846762 211.627884 
L 343.745327 210.510106 
L 344.378182 210.327897 
L 344.694609 210.562873 
L 345.643892 210.801217 
L 345.802105 210.691427 
L 346.118533 210.753158 
L 346.43496 210.661549 
L 347.384242 210.851066 
L 347.858884 211.148302 
L 348.808166 211.080336 
L 349.124593 211.041451 
L 349.757448 211.188071 
L 350.548517 211.375102 
L 351.023158 211.288698 
L 351.497799 211.006535 
L 351.814226 210.678097 
L 352.130654 210.791386 
L 352.447081 211.035542 
L 353.079936 210.683613 
L 353.712791 210.714943 
L 354.187432 210.899063 
L 354.50386 210.871578 
L 354.978501 211.001872 
L 355.136715 210.988719 
L 355.611356 210.708956 
L 356.085997 210.777738 
L 356.402424 210.717195 
L 356.718852 210.794777 
L 357.035279 210.911495 
L 357.351707 211.058301 
L 358.77563 211.377609 
L 359.092057 211.31911 
L 359.250271 211.383925 
L 359.724912 211.20146 
L 360.832408 211.546265 
L 361.307049 211.777666 
L 361.781691 211.74401 
L 362.098118 211.765027 
L 362.572759 211.68253 
L 362.889187 211.550718 
L 363.363828 211.665668 
L 363.680255 211.781729 
L 364.154896 211.650054 
L 365.104179 211.528268 
L 365.895247 211.194731 
L 366.369888 211.138573 
L 367.002743 211.07344 
L 367.952026 211.19027 
L 368.426667 211.560357 
L 369.375949 212.023841 
L 369.534163 211.917504 
L 369.85059 212.052735 
L 370.799872 211.427647 
L 371.1163 211.3501 
L 371.274514 211.352145 
L 371.432727 211.469729 
L 372.540223 211.029509 
L 373.014864 211.143652 
L 373.805933 211.190154 
L 375.229856 211.005096 
L 375.546284 210.697483 
L 376.811994 210.697844 
L 377.603062 210.526881 
L 377.91949 210.50956 
L 378.077703 210.379456 
L 378.552344 210.502526 
L 378.868772 210.799295 
L 379.185199 210.694002 
L 379.818054 210.985637 
L 380.134482 211.053375 
L 380.450909 211.115057 
L 381.716619 211.19105 
L 382.033046 211.420622 
L 382.349474 211.352388 
L 382.507687 211.486556 
L 382.824115 211.510018 
L 383.140542 211.518578 
L 383.45697 211.407843 
L 383.773397 211.629778 
L 384.722679 212.2167 
L 385.671962 212.051928 
L 386.46303 211.409198 
L 386.937671 211.746254 
L 388.361595 211.996985 
L 389.152663 211.8116 
L 389.310877 211.922318 
L 389.469091 211.893067 
L 390.418373 212.331703 
L 391.209442 212.482264 
L 391.525869 212.668916 
L 391.842297 212.732171 
L 392.158724 212.758943 
L 392.949793 212.91889 
L 393.582648 213.148533 
L 395.006571 213.182182 
L 395.79764 213.667903 
L 396.430494 213.559305 
L 396.588708 213.39771 
L 397.221563 213.66145 
L 397.53799 213.574904 
L 398.487273 213.915172 
L 398.487273 213.915172 
" style="fill:none;stroke:#000000;stroke-linecap:square;stroke-width:1.5;"/>
   </g>
   <g id="line2d_17">
    <path clip-path="url(#p62b4511772)" d="M 73.832727 214.339412 
L 74.307368 214.160842 
L 74.78201 213.939072 
L 75.414864 214.026488 
L 75.731292 213.869851 
L 80.477703 214.655659 
L 81.743413 214.513341 
L 82.218054 214.07284 
L 82.692695 213.961896 
L 82.850909 213.961178 
L 83.009123 214.114925 
L 83.32555 213.953499 
L 83.641978 213.911628 
L 84.59126 214.097949 
L 85.382329 214.346595 
L 86.331611 214.291159 
L 86.964466 214.565588 
L 87.597321 214.432348 
L 88.388389 214.56839 
L 89.337671 214.204021 
L 89.654099 214.279852 
L 90.445167 214.562337 
L 90.919809 214.479643 
L 91.236236 214.417499 
L 91.39445 214.332147 
L 91.710877 214.54616 
L 91.869091 214.507709 
L 92.185518 214.57013 
L 92.660159 214.503989 
L 92.976587 214.619384 
L 93.609442 214.752359 
L 93.925869 214.773299 
L 94.40051 214.796294 
L 94.716938 214.891523 
L 95.033365 214.750761 
L 95.191579 214.67765 
L 95.349793 214.743302 
L 95.66622 214.630952 
L 95.982648 214.730535 
L 96.457289 214.705063 
L 96.773716 214.625293 
L 97.248357 214.597056 
L 97.881212 214.454388 
L 98.672281 214.237694 
L 98.988708 214.356048 
L 99.621563 214.343451 
L 99.93799 214.153825 
L 100.412632 214.314758 
L 100.887273 214.539684 
L 101.836555 214.656157 
L 102.785837 214.346581 
L 103.260478 214.367885 
L 103.576906 214.310141 
L 103.73512 214.281565 
L 104.051547 213.840301 
L 104.684402 213.887567 
L 105.47547 214.127572 
L 105.791898 211.332295 
L 106.266539 208.143887 
L 108.00689 201.37315 
L 109.2726 197.738009 
L 110.854737 193.965021 
L 111.329378 193.078417 
L 112.911515 189.519612 
L 113.702584 187.854585 
L 114.177225 186.951549 
L 115.126507 185.269388 
L 115.442935 185.077414 
L 116.234003 183.919995 
L 116.708644 183.303465 
L 117.183285 182.437857 
L 117.341499 182.297596 
L 117.974354 181.167284 
L 118.448995 180.292175 
L 118.923636 179.372531 
L 119.398278 179.040551 
L 119.714705 178.864928 
L 120.189346 178.561587 
L 120.505774 178.081998 
L 120.822201 178.01204 
L 121.296842 177.451334 
L 121.61327 177.259942 
L 121.929697 176.899132 
L 122.404338 176.298203 
L 122.878979 175.63091 
L 123.35362 174.906503 
L 123.986475 173.982143 
L 124.144689 174.025738 
L 124.302903 173.473632 
L 124.461116 173.368885 
L 124.777544 171.870575 
L 124.935758 171.493048 
L 125.093971 170.498376 
L 125.252185 170.968449 
L 125.410399 169.594394 
L 125.568612 170.012104 
L 125.88504 168.507169 
L 126.043254 168.770935 
L 126.201467 165.79337 
L 126.359681 168.686223 
L 126.517895 162.625756 
L 126.676108 167.748797 
L 126.834322 151.909691 
L 126.992536 96.852842 
L 127.15075 109.018326 
L 127.467177 168.471433 
L 127.783604 191.135469 
L 128.100032 200.542009 
L 128.258246 201.384291 
L 128.416459 203.839082 
L 128.574673 203.547202 
L 128.732887 204.775746 
L 129.049314 204.586687 
L 129.207528 204.726037 
L 129.365742 204.072766 
L 129.523955 204.316068 
L 129.840383 203.497179 
L 130.789665 201.363282 
L 131.106093 200.503494 
L 133.953939 195.09334 
L 135.536077 192.625649 
L 135.69429 192.501962 
L 135.852504 192.532127 
L 137.434641 190.825881 
L 138.700351 189.424923 
L 139.016778 189.020239 
L 139.333206 188.735983 
L 139.807847 188.392649 
L 140.440702 188.021714 
L 141.706411 186.718216 
L 142.022839 186.635105 
L 142.339266 186.584864 
L 143.130335 186.268948 
L 143.288549 186.225112 
L 143.604976 185.964379 
L 143.921404 185.795681 
L 144.554258 185.274758 
L 145.0289 185.141923 
L 145.819968 184.852275 
L 148.03496 182.924628 
L 148.351388 182.49903 
L 148.984242 182.120267 
L 149.142456 182.135598 
L 150.091738 181.502993 
L 150.408166 181.118526 
L 151.673876 180.807169 
L 152.623158 179.948374 
L 153.256013 179.432706 
L 153.57244 179.571816 
L 154.047081 179.370253 
L 154.679936 179.445523 
L 154.996364 179.849342 
L 156.10386 179.812211 
L 156.420287 179.945528 
L 156.578501 179.869058 
L 157.053142 180.00559 
L 157.369569 179.854137 
L 157.685997 179.910129 
L 157.844211 179.841396 
L 158.160638 179.907468 
L 158.318852 179.849021 
L 158.793493 180.201588 
L 159.426348 180.397207 
L 159.584561 180.618083 
L 159.742775 180.628497 
L 160.059203 180.486305 
L 160.533844 180.925882 
L 161.166699 181.053189 
L 161.483126 181.09646 
L 162.115981 181.425142 
L 162.274195 181.475131 
L 162.907049 181.298357 
L 163.539904 181.203265 
L 164.172759 181.62846 
L 165.754896 181.645603 
L 166.387751 181.319908 
L 166.545965 181.356422 
L 166.862392 181.107607 
L 167.020606 181.160718 
L 167.337033 180.797917 
L 167.653461 180.668266 
L 168.286316 179.924118 
L 169.077384 179.600778 
L 169.235598 179.692876 
L 169.552026 179.593068 
L 169.868453 179.562007 
L 171.45059 179.548446 
L 171.767018 179.640497 
L 172.083445 179.481665 
L 172.399872 179.409603 
L 172.874514 179.281571 
L 173.823796 179.909209 
L 174.140223 179.839345 
L 174.773078 180.113027 
L 175.247719 180.115812 
L 175.564147 180.151481 
L 176.513429 179.901672 
L 176.829856 179.57164 
L 177.304498 179.2888 
L 177.620925 179.078822 
L 177.937352 178.932513 
L 178.25378 178.997944 
L 178.570207 178.92005 
L 178.886635 178.979497 
L 179.51949 178.498346 
L 179.835917 178.79366 
L 180.152344 178.75353 
L 180.468772 178.849446 
L 180.785199 178.985257 
L 181.259841 178.993363 
L 181.576268 179.204137 
L 181.892695 179.272472 
L 182.683764 178.806757 
L 183.000191 179.166809 
L 183.316619 179.264517 
L 184.424115 179.557847 
L 184.582329 179.37997 
L 185.05697 179.533307 
L 186.164466 180.045639 
L 186.955534 180.099771 
L 187.430175 179.950063 
L 187.746603 180.048502 
L 188.06303 179.948161 
L 188.221244 179.842244 
L 188.695885 180.028846 
L 189.012313 179.958696 
L 189.486954 180.139275 
L 189.645167 180.196662 
L 189.961595 180.039796 
L 190.436236 180.380754 
L 190.910877 180.076262 
L 191.543732 180.319848 
L 192.651228 180.114479 
L 192.967656 180.135215 
L 193.758724 179.746818 
L 194.075152 179.719043 
L 194.233365 179.596932 
L 194.86622 179.888952 
L 195.657289 180.245117 
L 195.973716 180.27657 
L 196.290144 180.067845 
L 196.606571 180.03321 
L 197.239426 179.813608 
L 197.39764 179.782272 
L 197.714067 180.007707 
L 197.872281 180.063733 
L 198.505136 180.703816 
L 198.663349 180.806996 
L 199.454418 180.516295 
L 200.4037 180.799555 
L 200.720128 180.839666 
L 200.878341 180.980952 
L 201.352982 181.000836 
L 201.511196 181.038205 
L 202.618692 182.273313 
L 202.93512 182.479244 
L 203.251547 182.622132 
L 204.359043 182.901736 
L 204.517257 183.054566 
L 204.833684 182.921223 
L 205.150112 183.238557 
L 205.308325 183.264528 
L 206.415821 184.177423 
L 207.048676 184.418133 
L 207.997959 184.629703 
L 208.314386 184.645271 
L 208.630813 184.81431 
L 209.105455 184.87511 
L 209.738309 185.186368 
L 210.529378 185.556044 
L 211.47866 186.003054 
L 211.795088 185.8532 
L 212.111515 185.797128 
L 212.427943 185.807857 
L 213.219011 185.440925 
L 213.377225 185.535608 
L 213.693652 185.513022 
L 214.01008 185.79351 
L 214.326507 185.81084 
L 214.642935 186.038725 
L 216.225072 186.602843 
L 216.857927 187.033687 
L 217.174354 187.152835 
L 217.490781 187.08837 
L 218.756491 186.883375 
L 219.072919 186.615964 
L 219.389346 186.609155 
L 219.705774 186.734475 
L 220.022201 186.690078 
L 220.338628 186.754082 
L 221.129697 186.369813 
L 221.287911 186.457568 
L 221.604338 186.244737 
L 221.762552 186.295594 
L 222.395407 185.777599 
L 222.711834 185.63027 
L 223.028262 185.222599 
L 223.344689 184.837744 
L 224.293971 184.598666 
L 225.08504 184.764157 
L 225.401467 184.529998 
L 225.559681 184.628138 
L 227.141818 184.344554 
L 227.458246 184.368295 
L 227.774673 184.11807 
L 228.407528 184.159452 
L 228.882169 183.988145 
L 229.35681 183.950231 
L 229.515024 183.944723 
L 230.306093 184.471163 
L 230.62252 184.627336 
L 230.780734 184.7199 
L 231.255375 184.636097 
L 231.88823 184.466289 
L 232.204657 184.090068 
L 232.521085 183.932542 
L 232.837512 183.640636 
L 233.312153 183.343271 
L 234.103222 182.52859 
L 234.736077 182.489963 
L 235.052504 182.713319 
L 235.527145 183.187527 
L 236.318214 183.918208 
L 236.476427 183.971835 
L 236.951069 184.477589 
L 237.267496 184.694769 
L 237.583923 184.719028 
L 238.533206 185.676141 
L 239.007847 185.944374 
L 239.166061 185.925515 
L 239.482488 186.297258 
L 239.640702 186.355666 
L 239.798915 186.535375 
L 240.115343 186.449463 
L 240.43177 186.744554 
L 241.064625 186.991235 
L 241.539266 187.16052 
L 241.855694 187.050574 
L 242.488549 187.082364 
L 242.646762 186.935218 
L 242.96319 187.009471 
L 243.279617 186.762071 
L 243.912472 186.854437 
L 244.545327 186.752455 
L 244.861754 186.974239 
L 245.178182 186.987943 
L 245.652823 187.253424 
L 245.96925 187.427118 
L 246.285678 187.659037 
L 246.760319 187.695596 
L 247.709601 187.577636 
L 248.026029 187.36542 
L 248.342456 187.320749 
L 248.658884 187.196962 
L 249.449952 187.376904 
L 249.76638 187.084398 
L 250.241021 186.956613 
L 250.715662 186.431349 
L 252.139585 186.419854 
L 252.456013 186.360338 
L 252.77244 186.462331 
L 253.088868 186.42707 
L 253.563509 186.242234 
L 253.879936 186.075019 
L 254.354577 185.7165 
L 254.671005 185.988837 
L 254.987432 185.894824 
L 256.253142 186.500413 
L 256.885997 186.611466 
L 257.677065 186.534678 
L 257.993493 186.817873 
L 258.942775 187.023091 
L 259.733844 186.625819 
L 260.050271 186.697972 
L 260.366699 186.647717 
L 261.315981 186.773661 
L 261.632408 187.057729 
L 262.265263 187.160772 
L 262.423477 187.097688 
L 262.898118 186.573956 
L 263.530973 186.427928 
L 263.689187 186.264464 
L 264.954896 193.861355 
L 266.062392 197.889077 
L 268.752026 204.317827 
L 271.9163 210.45055 
L 272.232727 211.04022 
L 273.023796 212.306413 
L 274.289506 214.224663 
L 275.238788 215.580929 
L 275.555215 216.084633 
L 276.18807 216.706703 
L 276.504498 216.926667 
L 276.662711 217.108134 
L 276.979139 217.192839 
L 277.45378 217.497302 
L 278.561276 218.180276 
L 278.71949 218.18541 
L 279.510558 218.775631 
L 279.668772 218.816514 
L 279.985199 219.112253 
L 280.934482 219.181697 
L 281.409123 219.074817 
L 281.883764 219.597225 
L 282.833046 220.081728 
L 283.149474 220.130057 
L 283.624115 220.012907 
L 283.940542 219.775149 
L 284.25697 219.820454 
L 284.731611 219.959171 
L 285.048038 219.820667 
L 285.839107 219.950718 
L 286.155534 219.889393 
L 287.421244 220.182786 
L 288.054099 220.759555 
L 288.370526 220.73943 
L 288.52874 220.636199 
L 288.845167 220.712078 
L 289.478022 220.524938 
L 290.110877 220.421368 
L 290.269091 220.418886 
L 290.585518 220.596762 
L 290.743732 220.569381 
L 290.901946 220.672504 
L 291.851228 220.094845 
L 292.642297 220.43501 
L 292.958724 220.469919 
L 293.433365 220.683086 
L 293.749793 220.604409 
L 294.06622 220.675316 
L 294.699075 220.791888 
L 295.015502 220.930605 
L 295.33193 220.915483 
L 295.964785 220.777294 
L 296.59764 220.883155 
L 296.755853 220.907492 
L 297.230494 220.634424 
L 297.705136 220.888767 
L 298.021563 221.109747 
L 298.33799 221.172994 
L 298.654418 221.274142 
L 299.6037 221.301142 
L 299.920128 221.054812 
L 300.078341 221.080162 
L 300.394769 220.981342 
L 300.86941 220.871838 
L 301.027624 220.967454 
L 301.660478 220.876844 
L 302.609761 221.107889 
L 303.242616 221.527556 
L 303.400829 221.467523 
L 303.717257 221.576401 
L 304.033684 221.412485 
L 304.508325 221.273613 
L 304.824753 221.327722 
L 305.299394 221.010688 
L 305.615821 220.96445 
L 306.090463 220.677753 
L 306.40689 220.754626 
L 306.723317 220.726333 
L 307.039745 220.81691 
L 307.197959 220.897358 
L 307.830813 220.557599 
L 309.096523 220.755207 
L 309.571164 220.738032 
L 310.045805 220.805456 
L 312.735439 219.911848 
L 313.051866 219.648074 
L 313.684721 219.548457 
L 313.842935 219.480816 
L 314.475789 219.656716 
L 315.266858 219.673677 
L 316.690781 218.837231 
L 317.007209 218.861163 
L 317.48185 218.764554 
L 317.798278 218.871001 
L 317.956491 218.932655 
L 318.272919 218.714168 
L 318.589346 218.800212 
L 318.905774 219.000499 
L 319.063987 218.953227 
L 319.696842 219.185712 
L 320.329697 218.846633 
L 321.278979 218.220222 
L 321.911834 218.164944 
L 322.544689 218.544417 
L 322.861116 218.53868 
L 323.177544 218.752125 
L 323.493971 218.649893 
L 323.968612 218.915397 
L 324.601467 218.822683 
L 325.708963 219.20288 
L 326.816459 219.055018 
L 327.132887 218.853755 
L 327.765742 218.64931 
L 328.240383 218.411366 
L 329.189665 218.315125 
L 329.506093 218.120712 
L 329.82252 218.079081 
L 330.613589 218.307778 
L 330.930016 218.283367 
L 331.562871 218.156962 
L 331.879298 218.343395 
L 332.195726 218.416054 
L 332.353939 218.324761 
L 332.986794 218.631098 
L 333.461435 218.555831 
L 334.410718 218.80425 
L 334.727145 219.071104 
L 335.201786 219.146381 
L 335.676427 219.331034 
L 335.992855 219.297445 
L 336.467496 219.61058 
L 337.416778 219.653691 
L 338.524274 218.9467 
L 339.315343 218.771564 
L 339.948198 218.280989 
L 340.264625 218.157569 
L 341.372121 217.947238 
L 341.688549 218.137778 
L 342.16319 218.022713 
L 342.479617 218.096078 
L 342.796045 218.290782 
L 344.219968 218.560702 
L 344.852823 218.121638 
L 345.327464 218.077963 
L 345.643892 217.854873 
L 348.017097 217.914855 
L 348.333525 217.74702 
L 348.649952 217.716231 
L 349.124593 217.455828 
L 349.282807 217.232579 
L 350.390303 217.241037 
L 350.70673 217.34826 
L 351.023158 217.205967 
L 351.339585 217.232167 
L 352.288868 217.080093 
L 352.605295 216.861791 
L 352.763509 216.900826 
L 353.079936 216.663957 
L 353.23815 216.668608 
L 353.554577 216.487401 
L 353.871005 216.558765 
L 354.345646 216.254953 
L 354.662073 216.053955 
L 354.978501 216.016247 
L 355.294928 216.10634 
L 355.927783 216.254153 
L 356.560638 216.197537 
L 357.035279 216.082397 
L 357.826348 215.61996 
L 358.142775 215.600953 
L 358.77563 215.157805 
L 359.092057 215.092007 
L 359.883126 215.087538 
L 360.199553 215.060387 
L 361.465263 215.226838 
L 363.0474 215.347817 
L 363.363828 215.395552 
L 363.838469 215.135267 
L 364.154896 215.1004 
L 364.471324 215.223208 
L 364.787751 215.285597 
L 365.104179 215.374767 
L 366.053461 215.279341 
L 366.369888 215.256615 
L 366.686316 215.161758 
L 367.952026 215.397754 
L 369.059522 215.334356 
L 370.325231 214.828152 
L 370.483445 214.920302 
L 371.1163 214.686225 
L 371.590941 214.993534 
L 372.223796 214.818523 
L 373.173078 215.120625 
L 373.647719 215.098388 
L 374.12236 215.285074 
L 374.755215 215.042809 
L 375.546284 215.553062 
L 375.704498 215.568139 
L 376.020925 215.818851 
L 376.337352 215.729086 
L 376.65378 215.830881 
L 377.761276 215.794489 
L 378.077703 215.926999 
L 378.394131 215.808656 
L 378.710558 215.715982 
L 379.185199 215.476102 
L 379.976268 215.272871 
L 380.450909 215.083053 
L 380.92555 214.967551 
L 381.241978 214.758366 
L 381.558405 214.502249 
L 381.716619 214.564005 
L 382.033046 214.873595 
L 382.665901 214.899115 
L 382.982329 215.057044 
L 383.140542 215.216532 
L 383.615183 215.078493 
L 384.406252 214.829786 
L 384.880893 214.897526 
L 385.039107 214.857501 
L 385.513748 215.057979 
L 386.304817 215.43794 
L 386.621244 215.670149 
L 387.412313 215.995012 
L 388.203381 216.167593 
L 388.519809 216.144557 
L 388.99445 216.238697 
L 389.469091 216.09381 
L 390.418373 215.755024 
L 390.893014 215.877565 
L 391.525869 215.680106 
L 391.842297 215.796143 
L 392.316938 215.754943 
L 392.791579 215.763466 
L 393.108006 215.634444 
L 393.424434 215.777131 
L 394.373716 216.36285 
L 395.164785 216.416224 
L 397.063349 217.266007 
L 398.012632 216.876177 
L 398.329059 216.549801 
L 398.487273 216.533468 
L 398.487273 216.533468 
" style="fill:none;stroke:#000000;stroke-linecap:square;stroke-width:1.5;"/>
   </g>
   <g id="line2d_18">
    <path clip-path="url(#p62b4511772)" d="M 73.832727 219.653307 
L 74.78201 219.624218 
L 75.256651 219.546459 
L 75.573078 219.678842 
L 75.889506 219.595067 
L 76.205933 219.732061 
L 76.364147 219.697474 
L 76.52236 219.780256 
L 76.838788 219.712072 
L 77.155215 219.785343 
L 77.471643 219.684792 
L 77.78807 219.91282 
L 77.946284 219.889108 
L 78.262711 219.981974 
L 79.05378 219.87031 
L 79.528421 219.79984 
L 80.477703 220.316237 
L 80.952344 220.358918 
L 81.585199 220.600347 
L 82.059841 220.570751 
L 82.376268 220.588109 
L 83.167337 220.079309 
L 83.800191 219.925661 
L 84.116619 220.08113 
L 84.907687 220.126938 
L 85.224115 220.226345 
L 85.540542 220.304325 
L 86.331611 220.69408 
L 86.806252 220.614785 
L 87.122679 220.555212 
L 87.280893 220.616572 
L 87.597321 220.435971 
L 88.071962 220.525755 
L 88.230175 220.53038 
L 88.546603 220.406454 
L 89.021244 220.305916 
L 89.495885 220.201168 
L 90.445167 220.280224 
L 90.919809 220.039337 
L 91.39445 220.021205 
L 91.710877 220.005583 
L 92.343732 220.045813 
L 92.660159 219.985525 
L 92.976587 220.093302 
L 93.293014 219.981901 
L 93.925869 220.390346 
L 94.242297 220.427691 
L 95.349793 220.787801 
L 95.66622 220.597062 
L 96.773716 220.262467 
L 96.93193 220.124604 
L 97.248357 220.096469 
L 98.830494 218.713568 
L 99.779777 218.836643 
L 101.836555 217.871196 
L 102.46941 218.053518 
L 102.785837 218.352812 
L 102.944051 218.409357 
L 103.260478 218.86124 
L 103.576906 218.943885 
L 103.73512 218.785561 
L 104.051547 219.064683 
L 104.209761 219.047189 
L 104.367974 219.28297 
L 104.526188 219.22284 
L 104.684402 219.488654 
L 104.842616 219.363676 
L 105.159043 219.84421 
L 105.317257 219.67568 
L 105.47547 220.287549 
L 106.74118 180.966602 
L 108.165104 152.315748 
L 108.323317 94.557828 
L 108.481531 82.097442 
L 108.797959 147.14459 
L 109.114386 168.907936 
L 109.430813 174.315436 
L 109.589027 172.707866 
L 109.747241 173.253646 
L 111.012951 159.543309 
L 111.171164 156.348551 
L 111.329378 156.107541 
L 111.645805 151.054579 
L 111.804019 149.192968 
L 111.962233 143.510555 
L 112.120447 146.763443 
L 112.436874 68.303216 
L 112.911515 147.82759 
L 113.069729 160.529118 
L 113.54437 169.009451 
L 113.702584 169.67328 
L 113.860797 169.230174 
L 114.019011 167.645572 
L 114.177225 167.321854 
L 114.335439 164.916872 
L 114.493652 164.359836 
L 115.126507 156.499176 
L 115.284721 155.826689 
L 115.442935 152.579115 
L 115.601148 152.20446 
L 115.917576 147.510903 
L 116.075789 145.954526 
L 116.234003 140.526083 
L 116.392217 143.12561 
L 116.708644 64.61226 
L 117.183285 143.744197 
L 117.499713 161.603607 
L 117.657927 166.825983 
L 117.974354 168.244487 
L 118.132568 168.127656 
L 118.290781 167.085513 
L 118.448995 166.803925 
L 118.765423 164.160351 
L 119.398278 157.437886 
L 119.556491 156.407915 
L 120.031132 149.895183 
L 120.34756 146.847446 
L 120.505774 143.765626 
L 120.663987 143.901294 
L 120.822201 137.520267 
L 120.980415 140.784763 
L 121.138628 113.886929 
L 121.296842 65.131053 
L 121.455056 82.58656 
L 121.771483 137.660803 
L 122.087911 158.967542 
L 122.404338 166.53724 
L 122.720766 167.76518 
L 122.878979 166.687979 
L 123.037193 166.484666 
L 125.093971 147.408818 
L 125.252185 143.584144 
L 125.410399 143.141143 
L 125.88504 134.398815 
L 126.201467 62.743419 
L 126.517895 126.88335 
L 126.834322 155.521838 
L 127.15075 165.495609 
L 127.308963 166.017755 
L 127.467177 167.182269 
L 127.625391 166.741851 
L 128.258246 163.425322 
L 129.840383 149.756779 
L 129.998596 147.135084 
L 130.15681 146.53217 
L 130.473238 141.966725 
L 130.631451 140.889103 
L 130.789665 135.457586 
L 130.947879 138.047816 
L 131.264306 60.894939 
L 131.897161 151.058549 
L 132.213589 163.281631 
L 132.530016 165.984153 
L 132.68823 166.451897 
L 132.846443 165.489058 
L 133.004657 165.569936 
L 135.69429 144.066418 
L 135.852504 140.201706 
L 136.010718 140.285151 
L 136.168931 134.661817 
L 136.327145 134.29397 
L 136.485359 124.586749 
L 136.643573 73.868223 
L 136.801786 64.704078 
L 137.118214 127.178583 
L 137.434641 154.428408 
L 137.751069 164.630816 
L 138.067496 167.212551 
L 138.542137 165.581759 
L 140.598915 148.020086 
L 141.073557 142.916786 
L 141.23177 142.70499 
L 141.389984 139.405018 
L 141.548198 138.600218 
L 142.022839 130.034336 
L 142.339266 58.234932 
L 142.813907 139.105145 
L 143.130335 157.661694 
L 143.288549 163.314612 
L 143.604976 166.240379 
L 143.76319 166.305034 
L 144.237831 164.163323 
L 144.396045 163.514163 
L 145.978182 150.616588 
L 146.611037 143.804187 
L 146.76925 143.383024 
L 146.927464 139.748586 
L 147.085678 139.573812 
L 147.560319 128.452151 
L 147.876746 59.883996 
L 148.193174 121.392987 
L 148.509601 151.618451 
L 148.826029 163.014806 
L 149.142456 166.007773 
L 149.458884 165.328333 
L 149.617097 164.704591 
L 151.357448 151.85843 
L 151.832089 147.251786 
L 152.148517 144.644797 
L 152.30673 142.585021 
L 152.464944 142.24244 
L 152.623158 138.923433 
L 152.781372 139.139691 
L 152.939585 134.91148 
L 153.097799 134.090268 
L 153.256013 126.195394 
L 153.57244 60.713917 
L 153.888868 121.105797 
L 154.205295 150.41399 
L 154.521722 162.207585 
L 154.83815 165.301973 
L 155.154577 165.104943 
L 155.312791 164.64788 
L 155.945646 160.722405 
L 156.894928 153.720816 
L 158.477065 140.431867 
L 158.635279 140.38148 
L 158.793493 137.121968 
L 158.951707 136.482679 
L 159.426348 125.882655 
L 159.742775 56.954326 
L 160.217416 137.705544 
L 160.533844 156.766113 
L 160.692057 162.634409 
L 161.008485 165.880271 
L 161.166699 165.928969 
L 161.324912 165.831418 
L 161.483126 165.554062 
L 164.330973 143.508433 
L 164.489187 141.32094 
L 164.6474 140.874647 
L 164.805614 137.648381 
L 164.963828 137.238757 
L 165.438469 124.07336 
L 165.754896 57.931361 
L 166.071324 119.893412 
L 166.387751 150.025095 
L 166.704179 161.733206 
L 167.020606 164.863104 
L 167.337033 164.834131 
L 167.495247 164.592008 
L 169.868453 147.370206 
L 170.18488 144.467309 
L 170.817735 137.383412 
L 170.975949 137.563536 
L 171.134163 132.237266 
L 171.292376 133.359077 
L 171.45059 114.59741 
L 171.608804 64.794625 
L 171.767018 65.896422 
L 172.083445 125.769213 
L 172.399872 152.997837 
L 172.7163 163.398618 
L 173.032727 166.094845 
L 173.190941 165.681924 
L 173.349155 165.818203 
L 173.823796 163.619139 
L 175.880574 146.846912 
L 176.355215 141.464473 
L 176.513429 140.989864 
L 177.146284 129.828139 
L 177.304498 129.860935 
L 177.620925 55.96079 
L 178.25378 146.371359 
L 178.570207 159.287629 
L 178.886635 163.628981 
L 179.044848 164.292988 
L 179.203062 163.837997 
L 179.361276 163.875224 
L 180.785199 155.074123 
L 182.209123 144.816368 
L 182.367337 143.012596 
L 182.52555 142.550022 
L 182.841978 139.65904 
L 183.316619 135.555745 
L 183.474833 130.142961 
L 183.633046 131.591037 
L 183.79126 107.342065 
L 183.949474 60.228654 
L 184.107687 69.30563 
L 184.424115 125.992234 
L 184.740542 151.360304 
L 185.05697 161.819218 
L 185.373397 164.928802 
L 185.531611 164.55716 
L 185.689825 164.950998 
L 186.164466 163.229863 
L 186.955534 158.082955 
L 188.854099 144.784921 
L 189.32874 140.263812 
L 189.486954 139.70512 
L 189.803381 135.346609 
L 189.961595 133.783584 
L 190.119809 129.307007 
L 190.278022 129.725718 
L 190.59445 55.172129 
L 191.385518 154.328395 
L 191.701946 163.398116 
L 192.018373 166.110634 
L 192.176587 165.819659 
L 192.334801 165.968745 
L 192.967656 162.821565 
L 193.284083 160.757699 
L 195.024434 149.890726 
L 195.657289 144.251378 
L 195.815502 143.442979 
L 195.973716 141.258679 
L 196.13193 141.010138 
L 196.922998 129.389898 
L 197.239426 54.987969 
L 197.872281 147.713629 
L 198.188708 161.307286 
L 198.505136 165.223687 
L 198.663349 165.553841 
L 198.821563 165.244869 
L 198.979777 165.318958 
L 199.454418 162.746212 
L 200.561914 156.224504 
L 201.511196 149.794411 
L 201.985837 146.675075 
L 203.093333 137.548719 
L 203.251547 134.85872 
L 203.409761 134.426419 
L 203.567974 129.189737 
L 203.726188 130.659915 
L 203.884402 105.407366 
L 204.042616 59.008383 
L 204.200829 68.769304 
L 204.517257 126.069057 
L 204.833684 151.857509 
L 205.150112 161.853935 
L 205.466539 164.591394 
L 205.624753 164.272626 
L 205.782967 164.520672 
L 206.890463 158.365439 
L 207.681531 153.162423 
L 208.4726 148.274498 
L 210.054737 136.665435 
L 210.212951 133.638145 
L 210.371164 133.660548 
L 210.529378 128.700146 
L 210.687592 129.731121 
L 210.845805 112.248803 
L 211.004019 63.944672 
L 211.162233 63.00907 
L 211.47866 121.952997 
L 211.795088 150.740487 
L 212.111515 162.736926 
L 212.427943 165.946206 
L 212.586156 165.717502 
L 212.74437 165.824089 
L 213.219011 164.389772 
L 214.168293 159.220318 
L 214.642935 156.35569 
L 215.908644 148.256336 
L 216.066858 147.650152 
L 216.699713 143.258253 
L 216.857927 142.538113 
L 217.332568 138.138132 
L 217.648995 135.573865 
L 217.807209 133.059668 
L 217.965423 133.082825 
L 218.123636 127.982891 
L 218.28185 129.541427 
L 218.440064 105.377939 
L 218.598278 58.638949 
L 218.756491 67.687135 
L 219.072919 125.500207 
L 219.389346 151.726547 
L 219.705774 162.402838 
L 220.022201 165.644702 
L 220.180415 165.330808 
L 220.338628 165.688778 
L 221.446124 160.024226 
L 222.55362 152.773776 
L 223.502903 145.745319 
L 223.661116 145.199516 
L 224.452185 139.425543 
L 224.610399 136.209775 
L 224.768612 135.334166 
L 225.243254 126.091133 
L 225.559681 54.617265 
L 226.034322 133.521638 
L 226.35075 154.058546 
L 226.667177 162.881624 
L 226.825391 165.115463 
L 227.141818 165.844026 
L 227.300032 166.104875 
L 228.0911 162.372703 
L 229.040383 155.93759 
L 230.147879 148.851839 
L 231.571802 138.243271 
L 231.730016 135.369034 
L 231.88823 135.519085 
L 232.046443 130.650632 
L 232.204657 130.740019 
L 232.362871 117.674389 
L 232.521085 68.33275 
L 232.679298 59.556942 
L 232.995726 120.593538 
L 233.312153 149.878359 
L 233.628581 161.83119 
L 233.945008 165.491692 
L 234.103222 165.610793 
L 234.261435 166.119582 
L 234.419649 165.951572 
L 235.052504 163.4215 
L 235.843573 158.401338 
L 237.742137 145.007077 
L 238.216778 140.647353 
L 238.849633 134.985687 
L 239.007847 130.589017 
L 239.166061 130.059247 
L 239.324274 118.931065 
L 239.482488 70.121474 
L 239.640702 57.701725 
L 239.957129 119.858751 
L 240.273557 149.195607 
L 240.589984 160.456337 
L 240.906411 163.822503 
L 241.064625 163.907381 
L 241.222839 164.135757 
L 241.381053 163.777764 
L 242.172121 159.897074 
L 245.811037 137.577898 
L 246.602105 126.306625 
L 246.918533 53.568 
L 247.551388 144.907877 
L 248.026029 162.739598 
L 248.342456 166.142032 
L 248.658884 166.486783 
L 248.975311 165.280492 
L 249.449952 162.858751 
L 250.557448 155.383142 
L 251.981372 145.746392 
L 253.088868 136.823433 
L 253.563509 128.742556 
L 253.721722 129.847986 
L 254.03815 56.208984 
L 254.196364 69.519936 
L 254.512791 126.308559 
L 254.829219 151.754622 
L 255.145646 162.190525 
L 255.462073 165.433824 
L 255.620287 165.406283 
L 255.778501 165.890678 
L 256.569569 162.867076 
L 257.202424 158.858636 
L 257.835279 155.498568 
L 259.733844 144.095947 
L 259.892057 142.372836 
L 260.050271 141.884726 
L 260.366699 139.257314 
L 260.524912 137.871693 
L 260.683126 135.369245 
L 260.84134 135.035587 
L 260.999553 129.561159 
L 261.157767 130.63111 
L 261.315981 106.301023 
L 261.474195 58.919022 
L 261.632408 66.661542 
L 261.948836 124.187124 
L 262.265263 150.30191 
L 262.581691 161.317822 
L 262.898118 164.977027 
L 263.056332 165.016245 
L 263.214545 165.434467 
L 263.530973 164.83781 
L 263.689187 164.029432 
L 263.8474 168.4104 
L 264.163828 180.895971 
L 264.638469 190.733182 
L 265.11311 196.573111 
L 266.220606 206.220075 
L 267.169888 212.532311 
L 268.119171 217.14095 
L 269.701308 223.207058 
L 270.65059 225.48207 
L 272.390941 229.352152 
L 275.871643 234.95321 
L 276.504498 235.516646 
L 276.820925 235.780938 
L 277.45378 236.002596 
L 277.928421 236.17485 
L 278.244848 236.430796 
L 278.71949 236.59674 
L 279.035917 236.641095 
L 279.985199 236.821131 
L 280.143413 236.733517 
L 280.459841 236.925243 
L 282.516619 236.727159 
L 282.833046 236.972668 
L 283.149474 236.881258 
L 283.782329 236.510794 
L 284.731611 235.652395 
L 284.889825 235.64547 
L 285.206252 235.452722 
L 285.680893 235.53804 
L 286.630175 235.36712 
L 287.26303 235.053177 
L 287.737671 235.224359 
L 287.895885 235.277604 
L 288.52874 235.053426 
L 288.686954 235.169772 
L 289.161595 235.042997 
L 289.478022 234.5588 
L 290.269091 234.498415 
L 290.585518 234.407216 
L 290.901946 234.490149 
L 291.376587 234.39148 
L 291.693014 234.431344 
L 292.009442 234.274834 
L 292.325869 234.293678 
L 292.642297 234.227622 
L 292.80051 234.245965 
L 293.116938 233.837703 
L 293.433365 233.791857 
L 293.908006 233.251515 
L 294.224434 233.124573 
L 294.857289 233.03495 
L 295.173716 233.018083 
L 295.490144 232.946019 
L 295.648357 232.809014 
L 295.964785 232.916805 
L 296.281212 232.742598 
L 297.388708 233.297899 
L 297.705136 233.30535 
L 298.021563 233.222677 
L 298.654418 233.36968 
L 299.129059 233.088127 
L 300.078341 233.07018 
L 301.818692 232.200065 
L 302.293333 232.228095 
L 302.609761 232.043938 
L 302.926188 232.151899 
L 303.400829 231.982223 
L 303.717257 231.80166 
L 304.033684 231.85581 
L 304.982967 231.14169 
L 305.299394 230.842616 
L 305.774035 230.892544 
L 305.932249 230.972143 
L 306.248676 230.679991 
L 306.40689 230.865944 
L 306.723317 230.750779 
L 307.989027 230.190818 
L 308.147241 230.283928 
L 308.463668 230.139768 
L 308.621882 230.298581 
L 308.938309 230.257146 
L 309.254737 230.511481 
L 309.412951 230.451272 
L 309.729378 230.044898 
L 310.995088 229.831994 
L 312.735439 228.697452 
L 313.051866 228.811655 
L 313.368293 228.733888 
L 313.842935 228.607162 
L 314.159362 228.463168 
L 314.634003 228.690717 
L 314.950431 228.601253 
L 316.057927 229.032401 
L 316.374354 229.249963 
L 316.848995 229.300932 
L 317.165423 229.582905 
L 317.640064 229.552193 
L 318.272919 229.66682 
L 318.589346 229.806478 
L 318.905774 229.884861 
L 319.063987 229.91978 
L 319.538628 229.743033 
L 319.696842 229.797151 
L 320.646124 229.345723 
L 322.861116 229.273883 
L 323.177544 229.375789 
L 324.126826 229.274233 
L 324.917895 229.131787 
L 326.341818 228.754191 
L 326.816459 228.910851 
L 327.132887 228.992077 
L 327.449314 228.715036 
L 327.765742 228.604883 
L 328.082169 228.250244 
L 328.398596 228.037152 
L 329.189665 227.578106 
L 329.664306 227.656037 
L 330.613589 227.587531 
L 331.08823 227.475639 
L 331.404657 227.496337 
L 331.721085 227.43897 
L 332.037512 227.581473 
L 332.670367 227.48537 
L 332.986794 227.671043 
L 333.461435 227.462793 
L 334.09429 227.601878 
L 334.568931 227.280481 
L 335.043573 227.158156 
L 335.676427 226.834351 
L 335.992855 226.822071 
L 336.309282 226.799462 
L 336.467496 226.804414 
L 336.942137 226.547276 
L 338.366061 227.349985 
L 338.998915 227.344874 
L 339.948198 226.846923 
L 340.739266 226.668449 
L 340.89748 226.810646 
L 341.530335 226.67026 
L 341.688549 226.519149 
L 341.846762 226.549602 
L 342.16319 226.31746 
L 342.954258 226.514854 
L 343.112472 226.339474 
L 343.270686 226.390367 
L 343.587113 226.593857 
L 344.061754 226.56325 
L 344.536396 226.723735 
L 344.852823 226.62916 
L 345.16925 226.816997 
L 345.643892 226.695794 
L 346.909601 226.91246 
L 347.226029 226.6671 
L 347.542456 226.585192 
L 347.858884 226.86721 
L 348.649952 227.029722 
L 349.757448 226.542318 
L 350.390303 226.369366 
L 351.023158 226.148504 
L 351.497799 226.2463 
L 351.814226 226.147698 
L 352.130654 226.116874 
L 352.763509 225.865442 
L 353.079936 225.930923 
L 353.396364 225.859868 
L 353.712791 225.399141 
L 354.029219 225.341931 
L 354.345646 225.119483 
L 354.978501 225.180323 
L 355.294928 225.109662 
L 355.611356 225.071292 
L 356.560638 225.266406 
L 356.877065 225.398502 
L 358.142775 225.85866 
L 358.459203 226.078501 
L 359.566699 226.106419 
L 360.199553 225.853189 
L 360.515981 225.596771 
L 360.990622 225.747296 
L 361.781691 225.307411 
L 362.098118 225.23537 
L 362.572759 224.938125 
L 363.363828 224.553457 
L 363.680255 224.640679 
L 363.996683 224.577561 
L 364.31311 224.352585 
L 364.945965 224.810352 
L 365.57882 225.005621 
L 367.002743 224.910029 
L 367.319171 225.098392 
L 367.635598 224.886696 
L 367.952026 224.87008 
L 369.059522 224.815305 
L 369.375949 224.944898 
L 369.534163 224.902244 
L 369.85059 225.012892 
L 370.325231 224.706874 
L 371.274514 224.782931 
L 371.749155 225.080567 
L 373.014864 224.656024 
L 373.173078 224.545357 
L 374.438788 224.682448 
L 376.495566 223.527535 
L 376.970207 223.561269 
L 378.710558 223.833716 
L 379.026986 223.585974 
L 379.818054 223.343127 
L 380.134482 223.248424 
L 380.450909 223.476744 
L 381.083764 223.464189 
L 383.45697 224.089191 
L 383.773397 224.188992 
L 384.248038 224.187625 
L 384.722679 224.513703 
L 385.039107 224.487581 
L 385.830175 224.807523 
L 386.304817 224.843858 
L 386.779458 225.099249 
L 386.937671 225.058148 
L 387.412313 225.37292 
L 388.519809 225.396384 
L 388.836236 225.267 
L 389.943732 225.211134 
L 390.418373 224.861006 
L 390.734801 224.73513 
L 391.051228 224.911506 
L 391.367656 224.792624 
L 391.842297 224.893191 
L 392.791579 224.873507 
L 393.26622 224.669985 
L 393.740861 224.514458 
L 393.899075 224.384498 
L 394.215502 224.367551 
L 394.848357 224.247678 
L 395.164785 224.244534 
L 395.79764 224.436163 
L 396.114067 224.45938 
L 397.221563 225.043555 
L 397.53799 224.94388 
L 398.012632 225.099735 
L 398.487273 225.158457 
L 398.487273 225.158457 
" style="fill:none;stroke:#000000;stroke-linecap:square;stroke-width:1.5;"/>
   </g>
   <g id="patch_3">
    <path d="M 57.6 307.584 
L 57.6 41.472 
" style="fill:none;stroke:#000000;stroke-linecap:square;stroke-linejoin:miter;stroke-width:0.8;"/>
   </g>
   <g id="patch_4">
    <path d="M 414.72 307.584 
L 414.72 41.472 
" style="fill:none;stroke:#000000;stroke-linecap:square;stroke-linejoin:miter;stroke-width:0.8;"/>
   </g>
   <g id="patch_5">
    <path d="M 57.6 307.584 
L 414.72 307.584 
" style="fill:none;stroke:#000000;stroke-linecap:square;stroke-linejoin:miter;stroke-width:0.8;"/>
   </g>
   <g id="patch_6">
    <path d="M 57.6 41.472 
L 414.72 41.472 
" style="fill:none;stroke:#000000;stroke-linecap:square;stroke-linejoin:miter;stroke-width:0.8;"/>
   </g>
  </g>
 </g>
 <defs>
  <clipPath id="p62b4511772">
   <rect height="266.112" width="357.12" x="57.6" y="41.472"/>
  </clipPath>
 </defs>
</svg>
