<?xml version="1.0" encoding="utf-8" standalone="no"?>
<!DOCTYPE svg PUBLIC "-//W3C//DTD SVG 1.1//EN"
  "http://www.w3.org/Graphics/SVG/1.1/DTD/svg11.dtd">
<svg height="345.6pt" version="1.1" viewBox="0 0 460.8 345.6" width="460.8pt" xmlns="http://www.w3.org/2000/svg" xmlns:xlink="http://www.w3.org/1999/xlink">
 <metadata>
  <rdf:RDF xmlns:cc="http://creativecommons.org/ns#" xmlns:dc="http://purl.org/dc/elements/1.1/" xmlns:rdf="http://www.w3.org/1999/02/22-rdf-syntax-ns#">
   <cc:Work>
    <dc:type rdf:resource="http://purl.org/dc/dcmitype/StillImage"/>
    <dc:date>2024-08-06T14:41:05.148882</dc:date>
    <dc:format>image/svg+xml</dc:format>
    <dc:creator>
     <cc:Agent>
      <dc:title>Matplotlib v3.4.2, https://matplotlib.org/</dc:title>
     </cc:Agent>
    </dc:creator>
   </cc:Work>
  </rdf:RDF>
 </metadata>
 <defs>
  <style type="text/css">*{stroke-linecap:butt;stroke-linejoin:round;}</style>
 </defs>
 <g id="figure_1">
  <g id="patch_1">
   <path d="M 0 345.6 
L 460.8 345.6 
L 460.8 0 
L 0 0 
z
" style="fill:#ffffff;"/>
  </g>
  <g id="axes_1">
   <g id="patch_2">
    <path d="M 57.6 307.584 
L 414.72 307.584 
L 414.72 41.472 
L 57.6 41.472 
z
" style="fill:#ffffff;"/>
   </g>
   <g id="matplotlib.axis_1">
    <g id="xtick_1">
     <g id="line2d_1">
      <defs>
       <path d="M 0 0 
L 0 3.5 
" id="m9acb708ed3" style="stroke:#000000;stroke-width:0.8;"/>
      </defs>
      <g>
       <use style="stroke:#000000;stroke-width:0.8;" x="95.211629" xlink:href="#m9acb708ed3" y="307.584"/>
      </g>
     </g>
     <g id="text_1">
      <!-- 0.2 -->
      <g transform="translate(87.260067 322.182437)scale(0.1 -0.1)">
       <defs>
        <path d="M 2034 4250 
Q 1547 4250 1301 3770 
Q 1056 3291 1056 2328 
Q 1056 1369 1301 889 
Q 1547 409 2034 409 
Q 2525 409 2770 889 
Q 3016 1369 3016 2328 
Q 3016 3291 2770 3770 
Q 2525 4250 2034 4250 
z
M 2034 4750 
Q 2819 4750 3233 4129 
Q 3647 3509 3647 2328 
Q 3647 1150 3233 529 
Q 2819 -91 2034 -91 
Q 1250 -91 836 529 
Q 422 1150 422 2328 
Q 422 3509 836 4129 
Q 1250 4750 2034 4750 
z
" id="DejaVuSans-30" transform="scale(0.015625)"/>
        <path d="M 684 794 
L 1344 794 
L 1344 0 
L 684 0 
L 684 794 
z
" id="DejaVuSans-2e" transform="scale(0.015625)"/>
        <path d="M 1228 531 
L 3431 531 
L 3431 0 
L 469 0 
L 469 531 
Q 828 903 1448 1529 
Q 2069 2156 2228 2338 
Q 2531 2678 2651 2914 
Q 2772 3150 2772 3378 
Q 2772 3750 2511 3984 
Q 2250 4219 1831 4219 
Q 1534 4219 1204 4116 
Q 875 4013 500 3803 
L 500 4441 
Q 881 4594 1212 4672 
Q 1544 4750 1819 4750 
Q 2544 4750 2975 4387 
Q 3406 4025 3406 3419 
Q 3406 3131 3298 2873 
Q 3191 2616 2906 2266 
Q 2828 2175 2409 1742 
Q 1991 1309 1228 531 
z
" id="DejaVuSans-32" transform="scale(0.015625)"/>
       </defs>
       <use xlink:href="#DejaVuSans-30"/>
       <use x="63.623047" xlink:href="#DejaVuSans-2e"/>
       <use x="95.410156" xlink:href="#DejaVuSans-32"/>
      </g>
     </g>
    </g>
    <g id="xtick_2">
     <g id="line2d_2">
      <g>
       <use style="stroke:#000000;stroke-width:0.8;" x="139.20545" xlink:href="#m9acb708ed3" y="307.584"/>
      </g>
     </g>
     <g id="text_2">
      <!-- 0.4 -->
      <g transform="translate(131.253887 322.182437)scale(0.1 -0.1)">
       <defs>
        <path d="M 2419 4116 
L 825 1625 
L 2419 1625 
L 2419 4116 
z
M 2253 4666 
L 3047 4666 
L 3047 1625 
L 3713 1625 
L 3713 1100 
L 3047 1100 
L 3047 0 
L 2419 0 
L 2419 1100 
L 313 1100 
L 313 1709 
L 2253 4666 
z
" id="DejaVuSans-34" transform="scale(0.015625)"/>
       </defs>
       <use xlink:href="#DejaVuSans-30"/>
       <use x="63.623047" xlink:href="#DejaVuSans-2e"/>
       <use x="95.410156" xlink:href="#DejaVuSans-34"/>
      </g>
     </g>
    </g>
    <g id="xtick_3">
     <g id="line2d_3">
      <g>
       <use style="stroke:#000000;stroke-width:0.8;" x="183.19927" xlink:href="#m9acb708ed3" y="307.584"/>
      </g>
     </g>
     <g id="text_3">
      <!-- 0.6 -->
      <g transform="translate(175.247707 322.182437)scale(0.1 -0.1)">
       <defs>
        <path d="M 2113 2584 
Q 1688 2584 1439 2293 
Q 1191 2003 1191 1497 
Q 1191 994 1439 701 
Q 1688 409 2113 409 
Q 2538 409 2786 701 
Q 3034 994 3034 1497 
Q 3034 2003 2786 2293 
Q 2538 2584 2113 2584 
z
M 3366 4563 
L 3366 3988 
Q 3128 4100 2886 4159 
Q 2644 4219 2406 4219 
Q 1781 4219 1451 3797 
Q 1122 3375 1075 2522 
Q 1259 2794 1537 2939 
Q 1816 3084 2150 3084 
Q 2853 3084 3261 2657 
Q 3669 2231 3669 1497 
Q 3669 778 3244 343 
Q 2819 -91 2113 -91 
Q 1303 -91 875 529 
Q 447 1150 447 2328 
Q 447 3434 972 4092 
Q 1497 4750 2381 4750 
Q 2619 4750 2861 4703 
Q 3103 4656 3366 4563 
z
" id="DejaVuSans-36" transform="scale(0.015625)"/>
       </defs>
       <use xlink:href="#DejaVuSans-30"/>
       <use x="63.623047" xlink:href="#DejaVuSans-2e"/>
       <use x="95.410156" xlink:href="#DejaVuSans-36"/>
      </g>
     </g>
    </g>
    <g id="xtick_4">
     <g id="line2d_4">
      <g>
       <use style="stroke:#000000;stroke-width:0.8;" x="227.19309" xlink:href="#m9acb708ed3" y="307.584"/>
      </g>
     </g>
     <g id="text_4">
      <!-- 0.8 -->
      <g transform="translate(219.241528 322.182437)scale(0.1 -0.1)">
       <defs>
        <path d="M 2034 2216 
Q 1584 2216 1326 1975 
Q 1069 1734 1069 1313 
Q 1069 891 1326 650 
Q 1584 409 2034 409 
Q 2484 409 2743 651 
Q 3003 894 3003 1313 
Q 3003 1734 2745 1975 
Q 2488 2216 2034 2216 
z
M 1403 2484 
Q 997 2584 770 2862 
Q 544 3141 544 3541 
Q 544 4100 942 4425 
Q 1341 4750 2034 4750 
Q 2731 4750 3128 4425 
Q 3525 4100 3525 3541 
Q 3525 3141 3298 2862 
Q 3072 2584 2669 2484 
Q 3125 2378 3379 2068 
Q 3634 1759 3634 1313 
Q 3634 634 3220 271 
Q 2806 -91 2034 -91 
Q 1263 -91 848 271 
Q 434 634 434 1313 
Q 434 1759 690 2068 
Q 947 2378 1403 2484 
z
M 1172 3481 
Q 1172 3119 1398 2916 
Q 1625 2713 2034 2713 
Q 2441 2713 2670 2916 
Q 2900 3119 2900 3481 
Q 2900 3844 2670 4047 
Q 2441 4250 2034 4250 
Q 1625 4250 1398 4047 
Q 1172 3844 1172 3481 
z
" id="DejaVuSans-38" transform="scale(0.015625)"/>
       </defs>
       <use xlink:href="#DejaVuSans-30"/>
       <use x="63.623047" xlink:href="#DejaVuSans-2e"/>
       <use x="95.410156" xlink:href="#DejaVuSans-38"/>
      </g>
     </g>
    </g>
    <g id="xtick_5">
     <g id="line2d_5">
      <g>
       <use style="stroke:#000000;stroke-width:0.8;" x="271.18691" xlink:href="#m9acb708ed3" y="307.584"/>
      </g>
     </g>
     <g id="text_5">
      <!-- 1.0 -->
      <g transform="translate(263.235348 322.182437)scale(0.1 -0.1)">
       <defs>
        <path d="M 794 531 
L 1825 531 
L 1825 4091 
L 703 3866 
L 703 4441 
L 1819 4666 
L 2450 4666 
L 2450 531 
L 3481 531 
L 3481 0 
L 794 0 
L 794 531 
z
" id="DejaVuSans-31" transform="scale(0.015625)"/>
       </defs>
       <use xlink:href="#DejaVuSans-31"/>
       <use x="63.623047" xlink:href="#DejaVuSans-2e"/>
       <use x="95.410156" xlink:href="#DejaVuSans-30"/>
      </g>
     </g>
    </g>
    <g id="xtick_6">
     <g id="line2d_6">
      <g>
       <use style="stroke:#000000;stroke-width:0.8;" x="315.18073" xlink:href="#m9acb708ed3" y="307.584"/>
      </g>
     </g>
     <g id="text_6">
      <!-- 1.2 -->
      <g transform="translate(307.229168 322.182437)scale(0.1 -0.1)">
       <use xlink:href="#DejaVuSans-31"/>
       <use x="63.623047" xlink:href="#DejaVuSans-2e"/>
       <use x="95.410156" xlink:href="#DejaVuSans-32"/>
      </g>
     </g>
    </g>
    <g id="xtick_7">
     <g id="line2d_7">
      <g>
       <use style="stroke:#000000;stroke-width:0.8;" x="359.174551" xlink:href="#m9acb708ed3" y="307.584"/>
      </g>
     </g>
     <g id="text_7">
      <!-- 1.4 -->
      <g transform="translate(351.222988 322.182437)scale(0.1 -0.1)">
       <use xlink:href="#DejaVuSans-31"/>
       <use x="63.623047" xlink:href="#DejaVuSans-2e"/>
       <use x="95.410156" xlink:href="#DejaVuSans-34"/>
      </g>
     </g>
    </g>
    <g id="xtick_8">
     <g id="line2d_8">
      <g>
       <use style="stroke:#000000;stroke-width:0.8;" x="403.168371" xlink:href="#m9acb708ed3" y="307.584"/>
      </g>
     </g>
     <g id="text_8">
      <!-- 1.6 -->
      <g transform="translate(395.216808 322.182437)scale(0.1 -0.1)">
       <use xlink:href="#DejaVuSans-31"/>
       <use x="63.623047" xlink:href="#DejaVuSans-2e"/>
       <use x="95.410156" xlink:href="#DejaVuSans-36"/>
      </g>
     </g>
    </g>
   </g>
   <g id="matplotlib.axis_2">
    <g id="ytick_1">
     <g id="line2d_9">
      <defs>
       <path d="M 0 0 
L -3.5 0 
" id="mcd2717293d" style="stroke:#000000;stroke-width:0.8;"/>
      </defs>
      <g>
       <use style="stroke:#000000;stroke-width:0.8;" x="57.6" xlink:href="#mcd2717293d" y="284.39411"/>
      </g>
     </g>
     <g id="text_9">
      <!-- −100 -->
      <g transform="translate(23.132812 288.193329)scale(0.1 -0.1)">
       <defs>
        <path d="M 678 2272 
L 4684 2272 
L 4684 1741 
L 678 1741 
L 678 2272 
z
" id="DejaVuSans-2212" transform="scale(0.015625)"/>
       </defs>
       <use xlink:href="#DejaVuSans-2212"/>
       <use x="83.789062" xlink:href="#DejaVuSans-31"/>
       <use x="147.412109" xlink:href="#DejaVuSans-30"/>
       <use x="211.035156" xlink:href="#DejaVuSans-30"/>
      </g>
     </g>
    </g>
    <g id="ytick_2">
     <g id="line2d_10">
      <g>
       <use style="stroke:#000000;stroke-width:0.8;" x="57.6" xlink:href="#mcd2717293d" y="241.283102"/>
      </g>
     </g>
     <g id="text_10">
      <!-- −80 -->
      <g transform="translate(29.495313 245.082321)scale(0.1 -0.1)">
       <use xlink:href="#DejaVuSans-2212"/>
       <use x="83.789062" xlink:href="#DejaVuSans-38"/>
       <use x="147.412109" xlink:href="#DejaVuSans-30"/>
      </g>
     </g>
    </g>
    <g id="ytick_3">
     <g id="line2d_11">
      <g>
       <use style="stroke:#000000;stroke-width:0.8;" x="57.6" xlink:href="#mcd2717293d" y="198.172094"/>
      </g>
     </g>
     <g id="text_11">
      <!-- −60 -->
      <g transform="translate(29.495313 201.971312)scale(0.1 -0.1)">
       <use xlink:href="#DejaVuSans-2212"/>
       <use x="83.789062" xlink:href="#DejaVuSans-36"/>
       <use x="147.412109" xlink:href="#DejaVuSans-30"/>
      </g>
     </g>
    </g>
    <g id="ytick_4">
     <g id="line2d_12">
      <g>
       <use style="stroke:#000000;stroke-width:0.8;" x="57.6" xlink:href="#mcd2717293d" y="155.061085"/>
      </g>
     </g>
     <g id="text_12">
      <!-- −40 -->
      <g transform="translate(29.495313 158.860304)scale(0.1 -0.1)">
       <use xlink:href="#DejaVuSans-2212"/>
       <use x="83.789062" xlink:href="#DejaVuSans-34"/>
       <use x="147.412109" xlink:href="#DejaVuSans-30"/>
      </g>
     </g>
    </g>
    <g id="ytick_5">
     <g id="line2d_13">
      <g>
       <use style="stroke:#000000;stroke-width:0.8;" x="57.6" xlink:href="#mcd2717293d" y="111.950077"/>
      </g>
     </g>
     <g id="text_13">
      <!-- −20 -->
      <g transform="translate(29.495313 115.749296)scale(0.1 -0.1)">
       <use xlink:href="#DejaVuSans-2212"/>
       <use x="83.789062" xlink:href="#DejaVuSans-32"/>
       <use x="147.412109" xlink:href="#DejaVuSans-30"/>
      </g>
     </g>
    </g>
    <g id="ytick_6">
     <g id="line2d_14">
      <g>
       <use style="stroke:#000000;stroke-width:0.8;" x="57.6" xlink:href="#mcd2717293d" y="68.839068"/>
      </g>
     </g>
     <g id="text_14">
      <!-- 0 -->
      <g transform="translate(44.2375 72.638287)scale(0.1 -0.1)">
       <use xlink:href="#DejaVuSans-30"/>
      </g>
     </g>
    </g>
   </g>
   <g id="line2d_15">
    <path clip-path="url(#p9db2339173)" d="M 73.832727 203.60668 
L 74.919983 203.798284 
L 77.529397 203.278661 
L 78.18175 203.371566 
L 78.399201 203.347775 
L 78.616652 203.473181 
L 78.834103 203.311779 
L 79.051555 203.424567 
L 80.356261 217.544637 
L 81.443517 225.819188 
L 84.487833 245.32073 
L 86.662344 257.101936 
L 89.271758 269.454243 
L 91.228818 276.665342 
L 92.316074 280.192434 
L 94.273134 284.837786 
L 95.142939 286.525628 
L 96.012743 288.043382 
L 96.665097 288.532744 
L 97.969803 289.716958 
L 98.622157 290.507841 
L 99.491961 291.399427 
L 100.361766 292.165208 
L 101.23157 293.001482 
L 102.101375 293.34626 
L 104.493337 295.023928 
L 104.92824 295.182339 
L 107.537653 295.488 
L 107.972556 295.308017 
L 108.407458 295.253442 
L 108.84236 295.226844 
L 109.059811 295.292114 
L 109.494714 295.210445 
L 110.147067 295.411978 
L 111.016871 295.254409 
L 111.451774 295.216761 
L 111.669225 295.153833 
L 112.104127 295.232481 
L 114.061187 295.254857 
L 114.49609 295.130418 
L 115.148443 295.213287 
L 116.018248 295.172775 
L 116.45315 295.282881 
L 116.888052 295.181227 
L 119.062563 295.127525 
L 119.280015 295.221425 
L 119.932368 295.228741 
L 120.584721 295.173108 
L 121.019624 295.109765 
L 121.237075 295.119536 
L 121.671977 294.85293 
L 122.106879 294.957745 
L 122.541782 295.056588 
L 123.411586 295.022466 
L 124.498842 294.964954 
L 125.368646 294.921638 
L 126.455902 294.940072 
L 129.93512 294.276479 
L 130.370023 294.089261 
L 130.804925 294.210494 
L 131.457278 294.296832 
L 132.109632 294.411371 
L 133.849241 293.861859 
L 134.066692 293.673187 
L 134.719045 293.535403 
L 134.936496 293.473409 
L 135.371399 293.532635 
L 135.58885 293.456143 
L 136.023752 293.522878 
L 136.458654 293.389271 
L 136.893557 293.30581 
L 137.111008 293.185831 
L 138.633166 293.262371 
L 139.285519 293.283218 
L 139.720421 293.350903 
L 140.590226 293.267563 
L 141.242579 293.003326 
L 142.112384 293.014352 
L 142.982188 292.933324 
L 143.417091 292.799179 
L 144.721797 293.188009 
L 145.809053 293.207945 
L 146.461407 293.077438 
L 147.331211 293.186404 
L 147.983565 293.333637 
L 149.07082 293.230099 
L 149.505722 293.095852 
L 149.940625 292.777633 
L 150.375527 292.784116 
L 150.810429 292.458321 
L 151.245332 292.256823 
L 151.680234 292.134598 
L 152.550038 291.903387 
L 154.289647 291.788081 
L 154.507099 291.691443 
L 154.942001 291.844119 
L 156.246708 291.680207 
L 156.68161 291.692153 
L 157.333963 291.6372 
L 157.768866 291.580132 
L 158.421219 291.779551 
L 158.856121 291.725032 
L 159.291024 291.752833 
L 159.725926 291.766631 
L 160.378279 291.37152 
L 162.335339 291.037755 
L 162.552791 290.848664 
L 163.857497 290.917676 
L 164.2924 290.774395 
L 164.944753 290.816829 
L 166.684362 290.921206 
L 167.119264 291.176168 
L 167.554167 291.196023 
L 167.989069 291.126248 
L 168.423971 291.071897 
L 168.858874 290.91268 
L 169.511227 290.91927 
L 171.468287 291.05472 
L 172.338092 291.025735 
L 172.772994 290.969673 
L 173.207896 290.805183 
L 173.642799 290.854598 
L 174.947505 290.573127 
L 175.81731 290.786309 
L 176.252212 290.788243 
L 176.904566 290.922067 
L 177.339468 290.852062 
L 177.77437 291.077608 
L 178.209272 290.943906 
L 178.644175 290.888595 
L 178.861626 290.861736 
L 179.513979 291.068986 
L 179.948881 291.095138 
L 180.383784 291.192419 
L 181.036137 291.158568 
L 182.340844 290.797455 
L 184.080453 290.870803 
L 184.515355 290.931124 
L 185.602611 290.636901 
L 187.34222 290.720197 
L 187.994573 290.86521 
L 189.081829 290.666178 
L 189.734183 290.815922 
L 189.951634 290.82941 
L 190.603987 290.595292 
L 191.908694 290.684642 
L 195.387912 290.979852 
L 195.822814 290.914391 
L 196.91007 290.959513 
L 197.562423 290.902433 
L 198.86713 291.086984 
L 199.302033 291.047066 
L 199.736935 291.148749 
L 201.041642 291.173287 
L 201.693995 291.021396 
L 202.128897 291.031247 
L 202.5638 291.01223 
L 204.303409 290.618266 
L 204.738311 290.487588 
L 204.955762 290.510524 
L 205.390664 290.714693 
L 206.260469 290.760611 
L 207.347725 290.729738 
L 207.565176 290.806899 
L 208.43498 290.543936 
L 209.087334 290.598345 
L 210.174589 290.836336 
L 211.261845 290.959463 
L 211.696747 290.734515 
L 212.13165 290.783768 
L 212.784003 290.861253 
L 214.958514 290.937099 
L 215.828319 290.608253 
L 216.263221 290.831841 
L 219.95989 290.724569 
L 221.047146 290.387879 
L 221.482048 290.282426 
L 221.916951 290.237993 
L 224.091462 290.322354 
L 224.526364 290.249947 
L 225.396169 290.133895 
L 226.048522 290.106965 
L 226.483424 290.0368 
L 227.135778 290.256453 
L 227.788131 290.130856 
L 229.962643 290.226488 
L 230.614996 290.200444 
L 231.049898 290.239383 
L 231.919703 290.001709 
L 232.354605 290.053098 
L 232.572056 289.931274 
L 234.964019 290.257322 
L 235.398921 290.217048 
L 236.703628 290.340425 
L 238.660688 290.750429 
L 240.400297 290.783907 
L 240.617748 290.667328 
L 241.052651 290.6908 
L 241.270102 290.566266 
L 242.139906 290.564147 
L 242.574809 290.335858 
L 243.444613 290.292364 
L 244.096966 290.18698 
L 244.966771 290.106967 
L 245.401673 290.182216 
L 246.271478 290.108575 
L 246.70638 290.244211 
L 248.228538 289.850479 
L 249.968147 289.799817 
L 250.403049 289.503363 
L 250.837952 289.314828 
L 254.752072 289.530233 
L 255.186974 289.405669 
L 257.144035 289.623192 
L 258.013839 289.561631 
L 259.535997 289.556619 
L 260.840704 289.384604 
L 261.493057 289.21443 
L 262.580313 289.201831 
L 264.102471 289.158914 
L 264.972275 289.062657 
L 265.407178 289.041925 
L 265.84208 288.981574 
L 269.321298 289.297759 
L 271.713261 289.213092 
L 271.930712 289.250219 
L 272.583065 289.016213 
L 273.45287 288.990219 
L 273.887772 288.929192 
L 274.105223 288.940688 
L 274.757577 288.698438 
L 275.40993 288.647763 
L 275.844832 288.684373 
L 276.279735 288.613884 
L 278.236795 288.801222 
L 279.758953 288.612507 
L 282.585817 288.794266 
L 283.02072 288.628737 
L 283.890524 288.737401 
L 284.542878 288.7874 
L 284.760329 288.726629 
L 285.195231 288.788029 
L 285.630133 288.745568 
L 286.065036 288.755834 
L 287.804645 288.831268 
L 288.456998 288.828635 
L 289.326803 289.13235 
L 290.414058 289.281843 
L 291.718765 289.292395 
L 292.371119 289.247601 
L 292.806021 289.243521 
L 293.240923 289.297201 
L 293.893277 289.19278 
L 294.328179 289.048202 
L 295.632886 289.191124 
L 295.850337 289.426576 
L 296.50269 289.476232 
L 298.024848 273.824564 
L 299.329555 265.319591 
L 300.416811 259.762277 
L 301.504066 255.131016 
L 302.373871 251.892055 
L 305.200736 243.095097 
L 309.984661 232.538319 
L 310.637014 231.284257 
L 311.506818 229.541772 
L 311.941721 228.811815 
L 312.594074 227.536603 
L 316.508195 221.399249 
L 318.030353 219.165333 
L 320.857217 215.792239 
L 321.727022 214.879325 
L 322.379375 214.122271 
L 322.814278 213.86712 
L 323.466631 213.288249 
L 324.118984 212.900066 
L 325.423691 212.171836 
L 326.076045 211.874052 
L 326.510947 211.668884 
L 328.250556 210.368964 
L 328.902909 210.024989 
L 329.337812 209.759826 
L 330.642518 209.245433 
L 331.077421 209.012021 
L 331.512323 208.90576 
L 331.947225 208.759843 
L 332.599579 208.510808 
L 333.034481 208.32598 
L 334.339188 207.578207 
L 334.991541 207.509282 
L 335.426443 207.436794 
L 335.861346 207.523153 
L 336.296248 207.558144 
L 336.948601 207.278488 
L 339.123113 206.294567 
L 340.42782 206.094565 
L 341.297624 205.672863 
L 342.167429 205.516347 
L 344.34194 204.575412 
L 344.776842 204.494841 
L 345.211745 204.335052 
L 345.646647 204.176318 
L 346.733902 203.917713 
L 347.168805 203.876604 
L 347.821158 203.65474 
L 349.343316 203.195117 
L 349.995669 202.995306 
L 350.430572 203.033283 
L 351.300376 202.895474 
L 351.735279 202.882672 
L 352.822534 202.489985 
L 355.649399 201.701828 
L 356.301752 201.369188 
L 357.389008 201.026371 
L 358.041362 200.772911 
L 359.128617 200.01833 
L 359.998422 199.766821 
L 360.868226 199.671285 
L 361.303129 199.518019 
L 362.172933 199.368892 
L 362.607835 199.273526 
L 364.782347 198.95006 
L 365.217249 199.056127 
L 365.652151 198.963243 
L 366.087054 198.911853 
L 366.521956 198.893675 
L 367.39176 198.658579 
L 367.826663 198.60246 
L 368.261565 198.392681 
L 368.913918 198.315882 
L 369.566272 198.318891 
L 371.08843 198.141807 
L 371.523332 198.045324 
L 371.958234 198.033196 
L 372.610588 197.781638 
L 374.567648 196.690096 
L 376.742159 196.525747 
L 377.829415 196.280888 
L 378.699219 196.328047 
L 379.569024 196.187879 
L 381.091182 196.097257 
L 382.395889 195.655625 
L 384.135498 195.524179 
L 384.5704 195.381376 
L 385.657656 194.804762 
L 386.744911 194.529593 
L 387.832167 194.072302 
L 388.267069 193.867394 
L 388.701972 193.699164 
L 389.136874 193.633077 
L 389.571776 193.672455 
L 390.006678 193.554271 
L 390.22413 193.515675 
L 390.876483 193.041182 
L 392.18119 192.904467 
L 392.398641 192.897227 
L 393.268445 192.475367 
L 393.920799 192.348522 
L 396.965115 190.579575 
L 398.05237 189.903585 
L 398.487273 189.829489 
L 398.487273 189.829489 
" style="fill:none;stroke:#000000;stroke-linecap:square;stroke-width:1.5;"/>
   </g>
   <g id="line2d_16">
    <path clip-path="url(#p9db2339173)" d="M 73.832727 224.411406 
L 75.137434 224.435976 
L 75.789787 224.208134 
L 76.22469 224.195929 
L 76.659592 224.288224 
L 77.746848 224.306217 
L 77.964299 224.400486 
L 78.18175 224.327673 
L 78.399201 224.52126 
L 78.616652 224.403721 
L 78.834103 224.639028 
L 79.051555 224.299874 
L 80.356261 197.017758 
L 81.443517 181.044311 
L 82.530773 167.894951 
L 83.400577 160.311385 
L 83.83548 158.057673 
L 84.705284 155.069328 
L 85.140186 154.607295 
L 85.575089 153.70465 
L 86.444893 150.450211 
L 87.097247 148.003324 
L 87.314698 147.149427 
L 87.532149 146.937779 
L 87.7496 145.999531 
L 87.967051 145.610095 
L 88.401953 143.821024 
L 88.619404 143.754739 
L 88.836856 141.958581 
L 89.054307 142.090409 
L 89.271758 140.378623 
L 89.489209 140.408998 
L 89.70666 139.991228 
L 89.924111 137.535394 
L 90.141562 138.876322 
L 90.359014 132.802224 
L 90.576465 137.118685 
L 90.793916 110.726426 
L 91.011367 59.115162 
L 91.228818 85.648529 
L 91.446269 136.253677 
L 91.881172 167.278957 
L 92.316074 169.674427 
L 92.533525 168.897756 
L 93.620781 158.383435 
L 94.490585 150.366124 
L 94.708036 149.075238 
L 94.925487 146.589684 
L 95.142939 145.546273 
L 95.795292 139.817479 
L 96.012743 133.73081 
L 96.230194 136.027607 
L 96.447645 106.790959 
L 96.665097 57.854084 
L 96.882548 81.27809 
L 97.099999 128.707537 
L 97.534901 163.263035 
L 97.969803 168.09555 
L 98.187254 167.627373 
L 99.057059 160.655564 
L 99.709412 154.449909 
L 99.926864 152.798971 
L 100.579217 146.008945 
L 101.23157 138.71532 
L 101.449021 138.34017 
L 101.666473 132.317694 
L 101.883924 132.30164 
L 102.101375 115.151565 
L 102.318826 63.42205 
L 102.536277 67.652964 
L 102.971179 144.065943 
L 103.188631 159.903436 
L 103.406082 165.149712 
L 103.623533 166.874235 
L 103.840984 167.581154 
L 105.798044 152.01458 
L 106.015495 149.482583 
L 106.232946 148.376415 
L 106.450398 145.474235 
L 106.667849 144.224574 
L 107.320202 136.972676 
L 107.537653 131.470532 
L 107.755104 131.594957 
L 108.190007 54.823573 
L 108.407458 82.794152 
L 108.84236 148.307467 
L 109.059811 161.266541 
L 109.494714 167.95392 
L 109.712165 167.898197 
L 110.147067 165.511657 
L 111.016871 158.534482 
L 113.191383 142.236322 
L 113.408834 141.790532 
L 113.626285 138.490086 
L 113.843736 138.056994 
L 114.061187 133.448616 
L 114.278638 131.376658 
L 114.49609 121.668421 
L 114.713541 72.683411 
L 114.930992 58.923991 
L 115.365894 135.646734 
L 115.800796 163.711325 
L 116.235699 168.85808 
L 116.45315 167.926002 
L 116.670601 167.491326 
L 119.932368 142.358998 
L 120.149819 140.693231 
L 120.36727 137.296014 
L 120.584721 136.618773 
L 120.802173 131.220253 
L 121.019624 131.925043 
L 121.237075 108.355854 
L 121.454526 59.595449 
L 121.671977 70.493213 
L 122.106879 142.540786 
L 122.324331 158.554327 
L 122.759233 167.275146 
L 122.976684 168.048049 
L 123.846488 163.497525 
L 125.151195 153.517217 
L 125.586098 150.528204 
L 126.890804 141.683736 
L 127.325707 138.653584 
L 127.543158 137.415392 
L 127.760609 134.476266 
L 127.97806 133.737122 
L 128.195511 128.182855 
L 128.412962 127.744618 
L 128.630413 105.571832 
L 128.847865 59.421362 
L 129.065316 68.769469 
L 129.500218 140.816112 
L 129.717669 156.908493 
L 130.152571 166.459744 
L 130.370023 167.5739 
L 130.587474 166.939544 
L 130.804925 166.7451 
L 131.239827 164.23066 
L 133.63179 149.142021 
L 134.284143 146.215072 
L 134.936496 143.124698 
L 135.153948 141.344111 
L 135.371399 140.647888 
L 135.806301 137.959172 
L 136.023752 136.878738 
L 136.241203 134.170339 
L 136.458654 133.529268 
L 136.676105 127.640385 
L 136.893557 127.051497 
L 137.111008 105.730469 
L 137.328459 60.259509 
L 137.54591 68.931282 
L 137.980812 140.674475 
L 138.198263 157.312867 
L 138.633166 167.134066 
L 138.850617 168.563766 
L 139.285519 167.542612 
L 139.937872 162.743653 
L 141.677482 151.567898 
L 143.634542 140.250826 
L 143.851993 139.730358 
L 144.069444 137.895061 
L 144.286895 137.227845 
L 144.939249 130.383134 
L 145.374151 122.545407 
L 145.809053 53.70114 
L 146.678858 158.692017 
L 147.11376 167.065025 
L 147.331211 167.316934 
L 147.548662 167.11613 
L 147.766113 166.471323 
L 149.07082 159.302126 
L 150.810429 150.992105 
L 151.462783 147.695412 
L 152.332587 143.664693 
L 152.550038 143.018438 
L 153.419843 137.18762 
L 153.637294 136.590111 
L 153.854745 133.728136 
L 154.072196 133.47351 
L 154.289647 129.198289 
L 154.507099 127.529575 
L 154.72455 115.633083 
L 154.942001 69.930659 
L 155.159452 58.837113 
L 155.594354 131.353839 
L 156.029257 160.83676 
L 156.464159 167.381232 
L 156.899061 166.527893 
L 157.333963 163.923024 
L 158.203768 158.56824 
L 159.725926 150.600212 
L 161.900437 140.687235 
L 162.987693 133.829556 
L 163.205144 131.343729 
L 163.422595 130.543323 
L 163.640046 125.850112 
L 163.857497 124.44238 
L 164.074949 100.633726 
L 164.2924 58.803741 
L 164.509851 65.713929 
L 164.944753 133.49248 
L 165.162204 151.68374 
L 165.597106 164.165517 
L 165.814558 165.732967 
L 166.032009 165.586078 
L 166.24946 165.263678 
L 166.901813 161.718066 
L 169.511227 148.488803 
L 170.16358 146.121537 
L 171.250836 141.066032 
L 171.685738 138.299214 
L 172.120641 135.432888 
L 172.338092 134.613009 
L 172.555543 131.985276 
L 172.772994 130.873006 
L 172.990445 125.537607 
L 173.207896 124.202468 
L 173.425347 105.584973 
L 173.642799 61.17971 
L 173.86025 63.102987 
L 174.295152 135.453748 
L 174.512603 152.72243 
L 174.947505 165.021787 
L 175.164956 167.107753 
L 175.599859 166.636106 
L 176.469663 161.565765 
L 176.904566 159.088244 
L 179.513979 145.820079 
L 179.73143 144.965638 
L 180.166333 142.422241 
L 180.383784 141.765374 
L 180.601235 140.235288 
L 180.818686 139.654331 
L 181.036137 137.882318 
L 181.253588 137.33062 
L 181.471039 136.096114 
L 181.905942 132.414362 
L 182.123393 127.435705 
L 182.340844 125.692186 
L 182.558295 98.738617 
L 182.775746 57.195193 
L 182.993197 69.8018 
L 183.4281 137.945272 
L 183.645551 154.647458 
L 184.080453 164.947623 
L 184.297904 166.107568 
L 184.732806 165.124409 
L 185.38516 161.448783 
L 187.777122 149.085211 
L 190.169085 139.195228 
L 190.821438 135.018803 
L 191.038889 134.253283 
L 191.473792 130.507403 
L 191.691243 128.827324 
L 191.908694 123.950164 
L 192.126145 122.428989 
L 192.343596 96.754693 
L 192.561047 57.343125 
L 192.778498 67.75709 
L 193.213401 134.141082 
L 193.430852 151.999534 
L 193.865754 165.10748 
L 194.083205 166.874306 
L 194.300656 166.937177 
L 194.518108 166.569744 
L 195.605363 161.025541 
L 196.475168 156.812652 
L 198.214777 149.464184 
L 198.86713 147.348899 
L 199.736935 144.065166 
L 200.171837 142.494514 
L 200.82419 140.02938 
L 201.041642 139.795858 
L 202.128897 134.503496 
L 202.346348 131.563559 
L 202.5638 130.659708 
L 202.998702 123.815484 
L 203.216153 110.858995 
L 203.433604 68.820396 
L 203.651055 57.95405 
L 204.303409 146.621378 
L 204.52086 157.59822 
L 204.955762 165.619426 
L 205.390664 166.186888 
L 206.695371 160.394359 
L 207.565176 156.578052 
L 208.652431 151.733514 
L 211.696747 139.169666 
L 212.349101 134.867036 
L 212.566552 134.2797 
L 213.218905 128.390932 
L 213.653807 118.813382 
L 214.08871 55.321963 
L 214.958514 153.256852 
L 215.393417 163.214262 
L 215.610868 164.30291 
L 215.828319 164.763128 
L 216.04577 164.41284 
L 218.00283 155.68294 
L 218.655184 152.928769 
L 220.829695 144.614735 
L 222.134402 139.406496 
L 222.786755 135.080807 
L 223.004206 134.03144 
L 223.65656 128.607341 
L 224.091462 121.067939 
L 224.526364 56.215448 
L 224.743815 71.528466 
L 225.178718 137.015288 
L 225.396169 153.577334 
L 225.831071 165.339821 
L 226.048522 166.79411 
L 226.265973 166.996873 
L 226.483424 166.779809 
L 227.135778 163.736606 
L 229.962643 152.018584 
L 231.702252 145.842498 
L 232.137154 144.188354 
L 232.572056 142.779606 
L 233.441861 139.640151 
L 233.659312 139.001519 
L 234.094214 137.194895 
L 234.746568 134.789969 
L 234.964019 133.206804 
L 235.18147 132.830316 
L 235.833823 127.13944 
L 236.268726 118.183112 
L 236.703628 53.59967 
L 236.921079 76.43167 
L 237.355981 139.535106 
L 237.573432 154.664851 
L 238.008335 165.272 
L 238.225786 166.26911 
L 238.443237 166.629705 
L 238.660688 166.226351 
L 239.747944 161.789024 
L 241.270102 155.517814 
L 242.79226 149.872122 
L 243.662064 147.539791 
L 246.054027 141.445219 
L 246.271478 140.234914 
L 246.70638 139.038863 
L 248.011087 133.729247 
L 248.66344 128.765486 
L 249.098343 121.856018 
L 249.533245 57.175497 
L 249.750696 68.318908 
L 250.185598 134.945759 
L 250.403049 152.430321 
L 250.837952 164.542975 
L 251.055403 166.320394 
L 251.272854 166.75675 
L 251.490305 166.642558 
L 253.882268 156.089275 
L 254.969523 152.659397 
L 255.404426 151.288536 
L 256.709132 146.928227 
L 258.23129 143.103512 
L 258.666193 141.858721 
L 259.318546 140.114294 
L 259.970899 137.375993 
L 260.840704 133.92747 
L 261.058155 131.555643 
L 261.275606 130.786293 
L 261.710508 124.748141 
L 261.92796 110.287266 
L 262.145411 68.299853 
L 262.362862 56.613446 
L 263.015215 144.658513 
L 263.232666 156.525976 
L 263.667569 165.473452 
L 263.88502 165.939684 
L 264.102471 166.046288 
L 265.624629 159.681057 
L 266.711885 154.913567 
L 269.103847 146.263539 
L 271.49581 139.62403 
L 271.930712 137.853535 
L 272.583065 135.35739 
L 272.800516 133.74221 
L 273.017967 133.267082 
L 273.45287 129.407089 
L 273.670321 127.363547 
L 274.105223 117.839237 
L 274.540125 53.568 
L 274.757577 76.71308 
L 275.192479 138.142657 
L 275.40993 152.876487 
L 275.844832 163.83499 
L 276.062283 165.128884 
L 276.279735 165.683849 
L 276.497186 165.456516 
L 278.019344 158.806823 
L 279.758953 151.062933 
L 280.411306 148.729928 
L 281.06366 146.598013 
L 281.716013 144.508926 
L 283.238171 139.764677 
L 284.325427 135.578755 
L 284.760329 132.878358 
L 285.195231 129.464513 
L 285.412682 127.826761 
L 285.847584 120.36377 
L 286.065036 95.674191 
L 286.282487 57.446078 
L 286.499938 65.655014 
L 286.93484 132.050389 
L 287.152291 150.293563 
L 287.587194 163.712702 
L 287.804645 165.730268 
L 288.022096 166.312244 
L 288.239547 166.453888 
L 289.326803 162.190279 
L 289.979156 159.418036 
L 294.328179 144.828663 
L 295.197983 142.455559 
L 295.850337 140.156565 
L 296.50269 138.914545 
L 297.807397 163.87741 
L 298.45975 171.951926 
L 299.547006 182.217335 
L 300.416811 188.733269 
L 301.721517 196.421621 
L 302.591322 200.615778 
L 303.896029 205.390827 
L 305.418187 209.669666 
L 307.592698 214.638555 
L 309.767209 218.486578 
L 312.376623 221.683565 
L 312.811525 222.049932 
L 313.246428 222.433257 
L 314.768586 223.665633 
L 318.682706 225.945268 
L 319.769962 226.421769 
L 320.422315 226.824528 
L 320.857217 226.965408 
L 321.944473 227.2535 
L 322.814278 227.654439 
L 323.24918 227.877826 
L 324.336435 228.063713 
L 324.771338 228.042502 
L 325.858593 228.203156 
L 326.510947 228.220831 
L 326.945849 228.269093 
L 327.598203 228.298083 
L 328.033105 228.353297 
L 328.468007 228.183415 
L 329.772714 228.323956 
L 330.85997 228.624952 
L 334.121737 228.880844 
L 335.861346 229.069899 
L 336.948601 229.005516 
L 337.600955 229.07116 
L 338.253308 229.062264 
L 339.340564 229.0277 
L 339.558015 229.142676 
L 340.645271 229.162504 
L 341.080173 229.173667 
L 341.515075 229.076898 
L 341.949977 229.165901 
L 345.211745 228.980596 
L 345.429196 229.06482 
L 345.864098 229.01764 
L 346.299 229.136002 
L 346.733902 229.178734 
L 347.386256 229.302128 
L 348.038609 229.227042 
L 349.995669 229.157249 
L 350.430572 229.115075 
L 351.300376 229.170938 
L 351.735279 229.092967 
L 352.822534 229.01911 
L 353.474888 229.09228 
L 353.692339 229.021572 
L 354.562143 229.195111 
L 355.214497 229.022481 
L 357.389008 229.210451 
L 358.476264 229.306058 
L 359.128617 229.25231 
L 359.563519 229.32071 
L 360.433324 229.245119 
L 361.303129 229.253304 
L 362.390384 229.092163 
L 362.825286 229.082429 
L 365.217249 228.878683 
L 366.956858 228.999688 
L 367.826663 229.136568 
L 368.261565 229.121429 
L 368.696467 229.270269 
L 369.566272 229.384407 
L 370.870979 229.680866 
L 371.305881 229.759754 
L 371.740783 229.790233 
L 373.915294 230.151217 
L 374.567648 230.138779 
L 375.00255 230.207232 
L 375.437452 230.125433 
L 376.742159 230.193736 
L 377.177061 230.289654 
L 381.743535 230.542578 
L 382.830791 230.791916 
L 383.700596 230.853213 
L 384.135498 230.797955 
L 384.787851 230.928335 
L 385.875107 230.966138 
L 386.744911 230.874929 
L 388.267069 230.993998 
L 388.701972 230.982993 
L 389.136874 230.899124 
L 390.441581 230.867241 
L 390.876483 231.005841 
L 391.528836 231.053347 
L 391.746288 231.12202 
L 392.398641 231.055743 
L 393.050994 231.037794 
L 393.920799 231.072017 
L 395.660408 231.022482 
L 396.747664 230.942244 
L 397.182566 230.87105 
L 398.269822 231.038152 
L 398.487273 231.044879 
L 398.487273 231.044879 
" style="fill:none;stroke:#000000;stroke-linecap:square;stroke-width:1.5;"/>
   </g>
   <g id="line2d_17">
    <path clip-path="url(#p9db2339173)" d="M 73.832727 196.225381 
L 74.485081 196.300593 
L 75.137434 196.420754 
L 75.572336 196.41986 
L 76.007239 196.29538 
L 76.22469 196.349745 
L 77.529397 195.920176 
L 78.399201 195.917487 
L 78.834103 195.975103 
L 79.051555 196.102225 
L 80.573712 201.461424 
L 84.052931 209.318597 
L 89.054307 218.202922 
L 89.70666 218.984673 
L 90.359014 219.783526 
L 93.403329 223.322769 
L 93.838232 223.604578 
L 95.142939 225.073726 
L 96.230194 225.986204 
L 96.665097 226.162275 
L 97.752352 227.172346 
L 97.969803 227.241727 
L 99.27451 228.243124 
L 99.709412 228.62314 
L 99.926864 228.820166 
L 100.361766 228.958126 
L 101.23157 229.742437 
L 101.449021 229.905895 
L 101.883924 229.978776 
L 102.318826 230.173791 
L 102.753728 230.338205 
L 105.145691 231.690237 
L 105.580593 231.759613 
L 106.232946 231.843935 
L 107.102751 231.86507 
L 107.537653 232.135052 
L 107.972556 232.189509 
L 108.624909 232.433267 
L 109.929616 232.561793 
L 110.581969 232.849633 
L 111.016871 232.729385 
L 112.321578 232.505701 
L 112.973932 232.551839 
L 113.843736 232.956658 
L 114.278638 232.977959 
L 114.930992 233.157528 
L 115.365894 233.115181 
L 116.018248 233.265441 
L 117.105503 233.029348 
L 117.757857 233.032644 
L 118.627661 233.02764 
L 118.845112 233.090002 
L 119.280015 232.981825 
L 119.714917 233.095135 
L 120.36727 233.155362 
L 120.802173 233.087879 
L 121.237075 233.16334 
L 121.889428 232.995267 
L 123.194135 233.314375 
L 123.629037 233.164922 
L 124.498842 232.852903 
L 125.368646 233.177184 
L 125.803549 233.099141 
L 126.238451 233.165898 
L 126.455902 233.162233 
L 126.890804 233.463969 
L 127.325707 233.525903 
L 127.760609 233.454491 
L 128.195511 233.499135 
L 128.630413 233.404141 
L 128.847865 233.428994 
L 129.282767 233.292423 
L 129.717669 233.46867 
L 130.587474 233.450871 
L 131.022376 233.637388 
L 131.89218 233.341547 
L 132.327083 233.390093 
L 133.196887 232.985888 
L 133.63179 232.991839 
L 135.371399 232.593798 
L 137.111008 233.004099 
L 137.763361 233.368613 
L 140.590226 233.74993 
L 141.025128 233.526005 
L 142.112384 233.840554 
L 142.982188 233.797805 
L 143.851993 233.866032 
L 144.286895 233.967946 
L 144.721797 234.057701 
L 145.591602 234.183112 
L 146.896309 234.559169 
L 147.548662 234.396959 
L 147.983565 234.205663 
L 148.201016 234.094268 
L 148.635918 234.125972 
L 149.723174 233.516677 
L 150.158076 233.48894 
L 150.592978 233.51259 
L 151.02788 233.423259 
L 152.115136 233.604516 
L 152.984941 233.866466 
L 153.202392 233.692622 
L 154.072196 233.789674 
L 154.72455 233.590056 
L 155.376903 233.798226 
L 156.029257 233.621034 
L 156.68161 233.799199 
L 157.116512 233.558206 
L 157.768866 233.854225 
L 158.63867 233.856037 
L 161.465535 234.292563 
L 161.900437 234.314404 
L 163.422595 234.143981 
L 163.857497 234.249818 
L 164.509851 234.00202 
L 166.032009 234.085225 
L 166.466911 234.295921 
L 166.901813 234.201822 
L 168.641422 234.848062 
L 169.076325 234.659275 
L 169.728678 234.801209 
L 170.16358 234.973999 
L 170.598483 234.973882 
L 171.468287 234.805908 
L 172.120641 235.037344 
L 172.555543 235.096881 
L 172.990445 235.047682 
L 173.642799 235.162007 
L 174.295152 235.188084 
L 175.382408 235.204248 
L 175.81731 235.096546 
L 177.122017 234.896027 
L 178.644175 235.173609 
L 179.079077 235.38472 
L 183.645551 235.325272 
L 184.080453 235.149116 
L 185.820062 235.160295 
L 187.34222 235.469154 
L 187.777122 235.651276 
L 188.212025 235.74087 
L 188.646927 235.946544 
L 190.603987 236.139937 
L 191.038889 236.008196 
L 191.691243 236.114984 
L 192.778498 235.92843 
L 193.213401 235.890964 
L 193.865754 236.070249 
L 194.518108 236.184703 
L 194.95301 236.259117 
L 195.605363 236.016815 
L 196.257717 235.728613 
L 196.475168 235.751852 
L 196.91007 235.64932 
L 197.562423 235.776513 
L 197.997326 235.667824 
L 198.432228 235.746663 
L 198.86713 235.612345 
L 199.954386 235.051422 
L 201.259093 234.96955 
L 201.693995 234.803753 
L 201.911446 234.880769 
L 202.998702 234.478718 
L 203.433604 234.325555 
L 203.868506 234.283966 
L 204.085957 234.184033 
L 204.738311 234.326067 
L 205.825567 234.267593 
L 206.912822 233.757902 
L 207.565176 233.930355 
L 208.217529 233.997423 
L 208.869882 233.885627 
L 209.304785 234.241072 
L 209.739687 234.103013 
L 210.826943 233.558431 
L 211.261845 232.180635 
L 211.914198 231.054401 
L 212.13165 230.925461 
L 213.218905 231.108933 
L 213.871259 231.381214 
L 216.480672 232.108032 
L 217.133026 232.460588 
L 217.567928 232.555141 
L 217.785379 232.538782 
L 219.524988 233.331431 
L 219.95989 233.281482 
L 220.612244 233.387069 
L 221.264597 233.269769 
L 221.699499 233.178866 
L 222.134402 232.93053 
L 223.221657 232.765198 
L 224.961267 232.817636 
L 225.831071 232.47455 
L 226.483424 232.642792 
L 227.57068 232.311487 
L 228.440485 232.537314 
L 229.52774 232.255734 
L 229.962643 232.419538 
L 230.614996 232.403309 
L 231.919703 232.315654 
L 232.572056 232.230559 
L 233.006959 232.33669 
L 233.876763 232.23173 
L 234.529116 232.643269 
L 234.964019 232.785156 
L 235.398921 232.758493 
L 235.833823 232.422609 
L 236.051274 232.233907 
L 236.486177 232.1387 
L 236.703628 232.026769 
L 237.790884 232.236331 
L 238.225786 232.305446 
L 239.965395 232.92566 
L 240.182846 232.956215 
L 240.617748 233.261382 
L 241.052651 233.224143 
L 241.705004 233.210299 
L 242.574809 233.091864 
L 243.227162 233.401009 
L 243.662064 233.569498 
L 244.314418 233.538871 
L 244.74932 233.694127 
L 245.184222 233.768117 
L 246.054027 233.77344 
L 246.271478 233.742433 
L 246.70638 233.446995 
L 246.923831 233.390737 
L 247.576185 232.826485 
L 248.011087 232.685469 
L 249.533245 232.556412 
L 250.185598 232.370181 
L 251.272854 232.752343 
L 251.925207 232.975823 
L 252.36011 233.12938 
L 253.229914 233.252681 
L 253.664816 233.272874 
L 254.31717 233.163794 
L 254.752072 232.799967 
L 255.839328 232.505722 
L 256.056779 232.281713 
L 256.709132 232.485338 
L 257.361486 232.746181 
L 258.883644 232.691897 
L 259.101095 232.589959 
L 259.535997 232.684062 
L 259.753448 232.69469 
L 260.405802 233.055998 
L 264.972275 233.845608 
L 265.624629 233.581709 
L 267.146787 233.503543 
L 267.581689 233.439652 
L 268.016591 233.332233 
L 268.451494 233.414114 
L 268.886396 233.641432 
L 269.321298 233.406814 
L 270.843456 233.842569 
L 271.278358 233.794795 
L 272.148163 233.536495 
L 272.583065 233.74813 
L 273.235419 233.869493 
L 273.670321 234.099158 
L 274.322674 234.195356 
L 274.540125 234.330051 
L 276.062283 233.970407 
L 276.497186 233.936493 
L 278.889148 233.744985 
L 279.106599 233.865692 
L 280.411306 233.344054 
L 281.933464 233.365031 
L 282.368366 233.106063 
L 282.803269 233.114158 
L 283.890524 232.885374 
L 284.760329 233.21925 
L 285.412682 233.642582 
L 286.717389 233.743843 
L 287.804645 233.675738 
L 288.456998 233.782344 
L 289.326803 233.857969 
L 289.761705 233.84295 
L 290.631509 233.714464 
L 291.066412 233.669636 
L 291.501314 233.665627 
L 291.936216 233.482416 
L 292.371119 233.576848 
L 292.806021 233.744611 
L 293.893277 233.47339 
L 294.54563 233.604187 
L 294.980532 233.762767 
L 295.197983 233.714074 
L 295.632886 233.866891 
L 296.067788 233.752973 
L 296.50269 233.909615 
L 297.807397 229.140623 
L 299.329555 224.650459 
L 300.416811 222.025051 
L 303.461126 215.567395 
L 303.896029 214.982182 
L 304.548382 213.91231 
L 306.505442 211.309968 
L 307.157796 210.310742 
L 308.245051 208.819587 
L 309.114856 207.865954 
L 309.332307 207.845073 
L 309.984661 207.335204 
L 310.854465 206.067666 
L 311.506818 205.145163 
L 312.594074 204.07035 
L 313.028976 203.456038 
L 313.463879 203.069252 
L 314.116232 202.626037 
L 314.551134 202.301905 
L 315.420939 201.947302 
L 316.725646 201.912645 
L 317.160548 201.813607 
L 317.812901 201.723983 
L 318.247804 201.617031 
L 318.682706 201.617514 
L 319.552511 201.388433 
L 319.987413 201.235577 
L 320.422315 201.122991 
L 320.857217 200.881412 
L 322.379375 200.272448 
L 323.684082 199.916785 
L 324.988789 199.429278 
L 325.423691 199.430498 
L 326.293496 199.003141 
L 326.728398 198.934349 
L 327.1633 198.70939 
L 327.380751 198.710303 
L 328.033105 198.379024 
L 329.990165 197.758242 
L 330.425067 197.842761 
L 331.947225 197.615057 
L 332.164676 197.483882 
L 332.599579 197.664427 
L 333.251932 197.532061 
L 333.686834 197.628568 
L 334.121737 197.847136 
L 334.339188 197.726182 
L 334.77409 197.347118 
L 335.426443 197.136182 
L 335.861346 196.748528 
L 336.73115 196.531949 
L 337.166052 196.468843 
L 337.383504 196.358854 
L 338.253308 196.572462 
L 339.992917 196.368245 
L 340.42782 196.223719 
L 341.949977 196.321414 
L 342.38488 196.262528 
L 343.037233 196.125606 
L 344.34194 196.210642 
L 344.994293 196.079808 
L 345.864098 196.174806 
L 346.733902 196.085053 
L 347.168805 196.17963 
L 348.038609 195.86034 
L 348.473512 195.97827 
L 348.908414 195.769422 
L 350.213121 195.88261 
L 350.430572 195.824084 
L 351.082925 196.026445 
L 351.517827 196.055557 
L 351.95273 196.067002 
L 352.605083 195.680179 
L 354.344692 196.033866 
L 355.214497 196.228787 
L 355.649399 196.141911 
L 356.519204 196.063153 
L 357.606459 195.807251 
L 358.041362 195.998138 
L 359.780971 196.111312 
L 360.215873 196.308614 
L 360.650775 196.370747 
L 360.868226 196.40532 
L 361.303129 196.208837 
L 361.52058 196.228228 
L 361.955482 196.015399 
L 362.390384 196.042417 
L 362.825286 196.007975 
L 364.347444 196.266212 
L 364.999798 195.967918 
L 365.4347 196.017992 
L 368.696467 196.274922 
L 369.348821 196.413579 
L 369.566272 196.391594 
L 370.001174 196.220553 
L 370.653527 196.167671 
L 371.08843 196.058534 
L 372.828039 195.964898 
L 373.915294 195.747264 
L 378.046866 195.348537 
L 379.134122 195.365234 
L 379.569024 195.266651 
L 380.003926 195.344668 
L 381.308633 195.518455 
L 383.265693 195.3055 
L 383.700596 195.216881 
L 384.352949 195.376665 
L 384.787851 195.289779 
L 385.657656 195.548399 
L 386.092558 195.489882 
L 386.962363 195.786738 
L 389.136874 195.432765 
L 389.354325 195.186001 
L 390.006678 195.042911 
L 392.18119 195.184567 
L 392.616092 195.177479 
L 393.268445 195.500341 
L 393.703348 195.506049 
L 394.573152 195.833146 
L 395.008055 195.830032 
L 395.442957 195.902134 
L 396.09531 195.714131 
L 396.747664 195.668017 
L 398.487273 196.05991 
L 398.487273 196.05991 
" style="fill:none;stroke:#000000;stroke-linecap:square;stroke-width:1.5;"/>
   </g>
   <g id="line2d_18">
    <path clip-path="url(#p9db2339173)" d="M 73.832727 192.146417 
L 74.919983 192.314414 
L 76.442141 192.439819 
L 77.311945 192.587955 
L 77.529397 192.610795 
L 77.746848 192.504641 
L 78.399201 192.62675 
L 79.051555 192.293897 
L 79.921359 188.504646 
L 80.791164 185.858321 
L 82.09587 182.785876 
L 82.965675 181.09395 
L 84.270382 179.188042 
L 85.140186 177.897505 
L 87.097247 175.802594 
L 87.7496 175.313205 
L 89.489209 173.654373 
L 90.359014 173.305651 
L 90.793916 173.110757 
L 94.055683 170.866318 
L 95.795292 170.33427 
L 96.230194 170.007353 
L 97.31745 169.710577 
L 97.969803 169.480923 
L 98.404706 169.170013 
L 98.839608 168.943186 
L 99.27451 168.62428 
L 99.491961 168.660835 
L 99.926864 168.509288 
L 100.361766 168.603298 
L 100.579217 168.605305 
L 101.23157 168.296317 
L 101.883924 167.500757 
L 102.971179 167.061647 
L 103.406082 166.849312 
L 104.493337 166.542049 
L 105.145691 166.231806 
L 106.232946 165.986487 
L 106.450398 165.937178 
L 106.667849 165.749181 
L 108.407458 165.375751 
L 109.929616 164.254025 
L 110.364518 163.902756 
L 111.234323 163.629384 
L 111.451774 163.662564 
L 112.104127 163.486735 
L 112.539029 163.728039 
L 113.408834 163.917991 
L 113.843736 163.655206 
L 114.278638 163.712958 
L 114.713541 163.620783 
L 115.365894 163.130634 
L 115.800796 162.915018 
L 116.235699 162.778749 
L 119.062563 160.479275 
L 119.714917 160.539259 
L 120.36727 160.471063 
L 121.671977 160.319142 
L 122.759233 159.904504 
L 123.411586 159.816003 
L 123.629037 159.858361 
L 124.716293 159.152894 
L 125.151195 159.178447 
L 126.021 158.607 
L 126.455902 157.860239 
L 127.108255 157.628814 
L 127.325707 157.582104 
L 127.97806 156.894602 
L 128.412962 156.274335 
L 128.847865 156.169725 
L 129.500218 155.778997 
L 129.717669 155.722032 
L 130.587474 154.821297 
L 131.022376 154.370773 
L 131.457278 153.975299 
L 132.109632 153.278558 
L 132.327083 153.172818 
L 132.761985 153.331456 
L 133.196887 153.655401 
L 133.414338 153.816085 
L 133.849241 153.788784 
L 134.284143 153.86961 
L 134.936496 153.493793 
L 135.153948 153.185876 
L 135.371399 153.077821 
L 135.58885 152.845468 
L 136.241203 151.716695 
L 136.676105 151.103257 
L 137.328459 150.863213 
L 137.54591 150.918789 
L 138.415715 150.285536 
L 138.850617 150.2662 
L 139.720421 149.377316 
L 139.937872 148.953397 
L 140.372775 148.855542 
L 140.807677 148.691941 
L 141.025128 148.405377 
L 141.242579 148.531473 
L 141.46003 148.030932 
L 142.112384 147.439194 
L 142.329835 147.660325 
L 142.547286 146.780471 
L 142.764737 146.866171 
L 143.19964 145.716154 
L 143.417091 145.67552 
L 143.634542 143.916307 
L 143.851993 144.764746 
L 144.069444 142.482011 
L 144.286895 143.368481 
L 144.721797 139.690199 
L 144.939249 140.435225 
L 145.1567 132.97807 
L 145.374151 139.152156 
L 145.809053 61.688354 
L 146.243955 163.313879 
L 146.678858 185.120722 
L 146.896309 183.966259 
L 147.11376 186.343993 
L 147.548662 183.907827 
L 147.766113 183.644686 
L 147.983565 181.783983 
L 148.201016 182.054833 
L 148.418467 180.425899 
L 148.635918 180.136184 
L 149.07082 178.587988 
L 149.288271 178.506415 
L 149.505722 177.603656 
L 149.723174 177.316496 
L 150.158076 176.127456 
L 151.02788 174.701788 
L 151.897685 173.871564 
L 152.550038 173.137966 
L 153.637294 172.387241 
L 154.072196 171.916323 
L 154.507099 171.368353 
L 156.899061 169.367191 
L 157.333963 169.157155 
L 158.856121 168.423106 
L 159.943377 168.061548 
L 160.378279 167.765611 
L 160.813182 167.720536 
L 161.248084 167.585752 
L 162.117888 167.601789 
L 162.552791 167.635928 
L 163.640046 167.276563 
L 164.074949 166.95131 
L 164.2924 166.922229 
L 164.509851 166.737284 
L 164.944753 166.642847 
L 165.379655 166.367111 
L 166.684362 166.284554 
L 169.728678 165.873064 
L 170.598483 165.464241 
L 171.468287 164.815873 
L 171.685738 164.823693 
L 172.338092 164.434858 
L 172.555543 164.457634 
L 172.990445 164.256664 
L 174.077701 164.271098 
L 175.164956 164.177898 
L 175.599859 164.037736 
L 176.034761 164.102954 
L 176.469663 163.732935 
L 176.904566 163.428868 
L 177.556919 163.401085 
L 178.209272 162.915113 
L 178.644175 162.545643 
L 179.296528 162.306802 
L 179.73143 162.356918 
L 180.166333 162.206633 
L 181.253588 162.306343 
L 182.558295 161.585638 
L 182.993197 161.137899 
L 183.4281 160.966528 
L 184.080453 160.582025 
L 184.515355 160.543457 
L 184.950258 159.995032 
L 186.907318 158.726134 
L 187.124769 158.614259 
L 187.34222 158.337197 
L 188.212025 158.103016 
L 188.646927 158.174882 
L 189.081829 158.143334 
L 189.951634 158.129931 
L 190.603987 158.167817 
L 191.25634 158.416057 
L 191.473792 158.428032 
L 192.126145 157.904166 
L 192.561047 157.426634 
L 193.213401 157.2031 
L 193.865754 157.467633 
L 194.083205 157.482929 
L 194.735559 157.112731 
L 195.170461 157.042876 
L 195.605363 157.047045 
L 196.257717 156.762486 
L 196.91007 156.510857 
L 197.127521 156.347788 
L 197.779875 156.262461 
L 198.86713 155.744946 
L 199.302033 155.579367 
L 199.736935 155.393818 
L 200.82419 155.576209 
L 201.476544 155.26754 
L 201.911446 155.237529 
L 202.781251 154.722953 
L 203.216153 154.111107 
L 204.085957 153.426531 
L 205.173213 152.675487 
L 206.260469 151.543652 
L 206.912822 150.403407 
L 207.347725 149.512872 
L 207.565176 149.481445 
L 208.000078 148.829042 
L 208.217529 147.941453 
L 208.43498 147.652578 
L 208.869882 146.689216 
L 209.087334 146.759953 
L 209.304785 145.310446 
L 209.522236 145.391388 
L 209.739687 143.726462 
L 210.174589 143.325343 
L 210.39204 141.842975 
L 210.609492 142.950113 
L 210.826943 138.828634 
L 211.044394 140.57512 
L 211.261845 134.865911 
L 211.479296 135.28562 
L 211.696747 126.623926 
L 211.914198 70.224485 
L 212.13165 80.759677 
L 212.349101 145.617395 
L 212.784003 179.82298 
L 213.001454 184.213324 
L 213.218905 184.246911 
L 213.436356 186.359022 
L 213.653807 184.328663 
L 213.871259 185.195693 
L 214.08871 183.541119 
L 214.306161 183.276516 
L 214.523612 182.73855 
L 214.741063 181.542728 
L 214.958514 181.55291 
L 215.175965 180.442031 
L 215.393417 180.265967 
L 215.828319 179.173521 
L 216.04577 178.850366 
L 216.263221 178.226002 
L 216.480672 177.959313 
L 216.915574 176.918708 
L 217.567928 176.036575 
L 218.437732 174.989642 
L 220.177342 173.131003 
L 220.829695 172.870772 
L 221.264597 172.305297 
L 221.916951 171.907011 
L 222.351853 171.53852 
L 222.786755 171.037132 
L 223.221657 170.600557 
L 223.65656 169.979922 
L 224.743815 169.233046 
L 225.396169 168.819548 
L 225.831071 168.502131 
L 226.918327 168.224858 
L 227.788131 167.449324 
L 228.223034 167.309183 
L 228.875387 167.43487 
L 229.092838 167.458271 
L 229.52774 167.281582 
L 229.745191 167.225346 
L 229.962643 167.051845 
L 230.397545 166.915441 
L 231.049898 166.488331 
L 231.484801 166.605494 
L 231.919703 166.65156 
L 233.22441 165.775806 
L 233.659312 165.638204 
L 234.094214 165.579486 
L 234.746568 165.1914 
L 235.616372 164.952766 
L 236.051274 164.462851 
L 236.921079 164.035187 
L 237.573432 163.515475 
L 238.225786 163.050016 
L 238.878139 162.864188 
L 239.313041 162.604592 
L 240.182846 162.054574 
L 240.835199 162.12019 
L 241.487553 161.90471 
L 241.922455 161.549497 
L 243.227162 161.584566 
L 243.662064 161.689671 
L 244.531869 161.421439 
L 245.184222 161.080932 
L 246.054027 161.306735 
L 246.70638 161.074935 
L 247.793636 161.061993 
L 248.228538 161.247656 
L 249.315794 160.993112 
L 249.533245 160.87996 
L 249.968147 161.017855 
L 251.272854 161.006431 
L 252.577561 161.148282 
L 253.012463 160.97669 
L 253.664816 161.098555 
L 254.752072 160.178562 
L 255.839328 159.52371 
L 256.27423 159.386012 
L 256.491681 159.317043 
L 257.144035 158.799662 
L 258.013839 158.786943 
L 259.970899 158.206637 
L 261.275606 157.031034 
L 261.710508 156.851267 
L 262.362862 156.382901 
L 262.580313 156.286826 
L 263.232666 156.316538 
L 264.537373 155.21401 
L 266.059531 153.579452 
L 266.711885 153.193621 
L 267.146787 152.506106 
L 268.234043 152.12172 
L 269.103847 151.721165 
L 269.538749 151.097574 
L 269.973652 150.622986 
L 270.408554 150.288901 
L 271.060907 149.898537 
L 271.278358 149.859019 
L 271.930712 149.23039 
L 272.148163 148.779529 
L 272.583065 148.580213 
L 272.800516 148.299983 
L 273.017967 148.227598 
L 273.235419 147.814579 
L 273.45287 147.671794 
L 273.670321 147.373051 
L 274.105223 147.499379 
L 274.322674 147.28299 
L 274.540125 147.446396 
L 274.757577 146.463611 
L 274.975028 146.368321 
L 275.40993 144.130941 
L 275.627381 143.993957 
L 275.844832 142.30402 
L 276.062283 142.939808 
L 276.279735 141.201065 
L 276.497186 141.575161 
L 276.714637 140.325003 
L 276.932088 137.852678 
L 277.149539 138.527411 
L 277.36699 130.974052 
L 277.584441 135.906448 
L 278.019344 60.839762 
L 278.454246 157.153386 
L 278.889148 182.210253 
L 279.106599 182.291335 
L 279.32405 184.414022 
L 279.541502 184.079702 
L 279.758953 182.995275 
L 279.976404 183.139592 
L 280.193855 181.367968 
L 280.411306 181.637435 
L 280.628757 180.293018 
L 281.06366 179.345946 
L 281.281111 178.520389 
L 281.498562 178.386146 
L 281.716013 177.496182 
L 281.933464 177.270131 
L 282.368366 176.190919 
L 284.760329 172.904015 
L 285.195231 172.496612 
L 285.630133 172.185617 
L 286.93484 171.244807 
L 287.369742 171.004303 
L 287.804645 170.71787 
L 288.456998 170.25608 
L 289.544254 169.356987 
L 291.718765 168.144539 
L 292.153667 167.965727 
L 294.328179 166.307693 
L 296.067788 166.052137 
L 296.50269 166.03139 
L 297.589946 170.143324 
L 298.45975 172.349232 
L 298.894653 173.231741 
L 299.329555 174.326319 
L 300.634262 176.050111 
L 301.286615 176.650991 
L 301.938969 177.530767 
L 303.678578 179.571019 
L 305.635638 181.199783 
L 307.157796 182.073435 
L 307.592698 182.264653 
L 308.0276 182.509402 
L 308.679954 182.757877 
L 309.114856 183.017354 
L 309.549758 183.146186 
L 310.202112 183.702385 
L 310.419563 183.756532 
L 310.854465 184.059422 
L 311.071916 184.055852 
L 311.506818 184.246251 
L 311.72427 184.287862 
L 312.594074 184.97454 
L 313.463879 185.343256 
L 315.63839 186.207191 
L 316.290743 186.587979 
L 318.030353 187.245928 
L 318.900157 187.452005 
L 320.422315 187.998368 
L 321.944473 188.344161 
L 322.596826 188.626232 
L 323.031729 188.809527 
L 324.118984 188.83224 
L 324.988789 189.021145 
L 325.423691 189.053882 
L 325.641142 189.165234 
L 326.945849 189.007584 
L 327.815654 189.165363 
L 328.902909 189.700052 
L 329.337812 189.830181 
L 331.077421 190.683358 
L 331.729774 190.689694 
L 332.164676 190.796822 
L 332.599579 190.770678 
L 333.034481 190.75854 
L 333.686834 191.162246 
L 334.121737 191.341422 
L 336.73115 191.583394 
L 337.166052 191.75625 
L 337.383504 191.692304 
L 338.253308 191.964407 
L 339.558015 192.401777 
L 339.992917 192.694836 
L 340.862722 192.836857 
L 341.732526 192.920126 
L 342.38488 193.090043 
L 343.037233 193.228338 
L 343.689587 193.349873 
L 344.34194 193.709169 
L 344.994293 193.723911 
L 345.211745 193.61587 
L 346.081549 193.865635 
L 347.386256 193.862187 
L 348.908414 194.004383 
L 349.778218 194.057842 
L 350.213121 194.156741 
L 352.822534 193.978109 
L 353.257437 193.92224 
L 354.127241 193.96767 
L 355.214497 193.794984 
L 355.649399 193.721419 
L 356.301752 193.714936 
L 358.476264 194.137532 
L 358.911166 194.106102 
L 359.998422 194.444756 
L 360.433324 194.57641 
L 360.650775 194.686606 
L 361.303129 194.557866 
L 361.738031 194.512442 
L 362.172933 194.537918 
L 363.695091 194.429276 
L 364.129993 194.365332 
L 364.999798 194.57287 
L 366.087054 194.308168 
L 366.521956 194.129628 
L 366.956858 194.062665 
L 368.044114 193.780289 
L 368.479016 193.868405 
L 368.696467 193.87822 
L 369.131369 194.076053 
L 369.783723 194.179118 
L 370.436076 194.218699 
L 371.740783 194.477971 
L 372.393136 194.481195 
L 373.262941 194.687031 
L 373.480392 194.774384 
L 374.350197 194.651292 
L 374.567648 194.651714 
L 375.00255 194.411657 
L 375.872355 194.66412 
L 376.524708 194.742504 
L 377.177061 194.922004 
L 377.829415 195.184976 
L 378.264317 195.330869 
L 379.786475 195.84361 
L 381.308633 196.620061 
L 381.743535 196.618717 
L 381.960986 196.685241 
L 382.395889 196.604091 
L 382.830791 196.709571 
L 385.875107 196.608794 
L 386.52746 196.629034 
L 386.962363 196.443657 
L 387.397265 196.231028 
L 387.832167 196.286894 
L 388.267069 196.253029 
L 388.701972 196.383732 
L 392.18119 196.724083 
L 393.485897 196.573193 
L 393.920799 196.601199 
L 395.008055 196.346842 
L 395.877859 196.322757 
L 396.530213 196.504829 
L 396.965115 196.639882 
L 398.05237 196.27185 
L 398.487273 196.374453 
L 398.487273 196.374453 
" style="fill:none;stroke:#000000;stroke-linecap:square;stroke-width:1.5;"/>
   </g>
   <g id="patch_3">
    <path d="M 57.6 307.584 
L 57.6 41.472 
" style="fill:none;stroke:#000000;stroke-linecap:square;stroke-linejoin:miter;stroke-width:0.8;"/>
   </g>
   <g id="patch_4">
    <path d="M 414.72 307.584 
L 414.72 41.472 
" style="fill:none;stroke:#000000;stroke-linecap:square;stroke-linejoin:miter;stroke-width:0.8;"/>
   </g>
   <g id="patch_5">
    <path d="M 57.6 307.584 
L 414.72 307.584 
" style="fill:none;stroke:#000000;stroke-linecap:square;stroke-linejoin:miter;stroke-width:0.8;"/>
   </g>
   <g id="patch_6">
    <path d="M 57.6 41.472 
L 414.72 41.472 
" style="fill:none;stroke:#000000;stroke-linecap:square;stroke-linejoin:miter;stroke-width:0.8;"/>
   </g>
  </g>
 </g>
 <defs>
  <clipPath id="p9db2339173">
   <rect height="266.112" width="357.12" x="57.6" y="41.472"/>
  </clipPath>
 </defs>
</svg>
