<?xml version="1.0" encoding="utf-8" standalone="no"?>
<!DOCTYPE svg PUBLIC "-//W3C//DTD SVG 1.1//EN"
  "http://www.w3.org/Graphics/SVG/1.1/DTD/svg11.dtd">
<svg xmlns:xlink="http://www.w3.org/1999/xlink" width="272.067187pt" height="197.398125pt" viewBox="0 0 272.067187 197.398125" xmlns="http://www.w3.org/2000/svg" version="1.1">
 <metadata>
  <rdf:RDF xmlns:dc="http://purl.org/dc/elements/1.1/" xmlns:cc="http://creativecommons.org/ns#" xmlns:rdf="http://www.w3.org/1999/02/22-rdf-syntax-ns#">
   <cc:Work>
    <dc:type rdf:resource="http://purl.org/dc/dcmitype/StillImage"/>
    <dc:date>2025-12-19T12:14:06.850493</dc:date>
    <dc:format>image/svg+xml</dc:format>
    <dc:creator>
     <cc:Agent>
      <dc:title>Matplotlib v3.10.7, https://matplotlib.org/</dc:title>
     </cc:Agent>
    </dc:creator>
   </cc:Work>
  </rdf:RDF>
 </metadata>
 <defs>
  <style type="text/css">*{stroke-linejoin: round; stroke-linecap: butt}</style>
 </defs>
 <g id="figure_1">
  <g id="patch_1">
   <path d="M 0 197.398125 
L 272.067187 197.398125 
L 272.067187 0 
L 0 0 
z
" style="fill: #ffffff"/>
  </g>
  <g id="axes_1">
   <g id="patch_2">
    <path d="M 41.667188 173.52 
L 264.867188 173.52 
L 264.867188 7.2 
L 41.667188 7.2 
z
" style="fill: #ffffff"/>
   </g>
   <g id="matplotlib.axis_1">
    <g id="xtick_1">
     <g id="line2d_1">
      <defs>
       <path id="m983a5ed9c1" d="M 0 0 
L 0 3.5 
" style="stroke: #000000; stroke-width: 0.8"/>
      </defs>
      <g>
       <use xlink:href="#m983a5ed9c1" x="82.712896" y="173.52" style="stroke: #000000; stroke-width: 0.8"/>
      </g>
     </g>
     <g id="text_1">
      <!-- 1 -->
      <g transform="translate(79.531646 188.118438) scale(0.1 -0.1)">
       <defs>
        <path id="DejaVuSans-31" d="M 794 531 
L 1825 531 
L 1825 4091 
L 703 3866 
L 703 4441 
L 1819 4666 
L 2450 4666 
L 2450 531 
L 3481 531 
L 3481 0 
L 794 0 
L 794 531 
z
" transform="scale(0.015625)"/>
       </defs>
       <use xlink:href="#DejaVuSans-31"/>
      </g>
     </g>
    </g>
    <g id="xtick_2">
     <g id="line2d_2">
      <g>
       <use xlink:href="#m983a5ed9c1" x="134.213319" y="173.52" style="stroke: #000000; stroke-width: 0.8"/>
      </g>
     </g>
     <g id="text_2">
      <!-- 2 -->
      <g transform="translate(131.032069 188.118438) scale(0.1 -0.1)">
       <defs>
        <path id="DejaVuSans-32" d="M 1228 531 
L 3431 531 
L 3431 0 
L 469 0 
L 469 531 
Q 828 903 1448 1529 
Q 2069 2156 2228 2338 
Q 2531 2678 2651 2914 
Q 2772 3150 2772 3378 
Q 2772 3750 2511 3984 
Q 2250 4219 1831 4219 
Q 1534 4219 1204 4116 
Q 875 4013 500 3803 
L 500 4441 
Q 881 4594 1212 4672 
Q 1544 4750 1819 4750 
Q 2544 4750 2975 4387 
Q 3406 4025 3406 3419 
Q 3406 3131 3298 2873 
Q 3191 2616 2906 2266 
Q 2828 2175 2409 1742 
Q 1991 1309 1228 531 
z
" transform="scale(0.015625)"/>
       </defs>
       <use xlink:href="#DejaVuSans-32"/>
      </g>
     </g>
    </g>
    <g id="xtick_3">
     <g id="line2d_3">
      <g>
       <use xlink:href="#m983a5ed9c1" x="185.713741" y="173.52" style="stroke: #000000; stroke-width: 0.8"/>
      </g>
     </g>
     <g id="text_3">
      <!-- 3 -->
      <g transform="translate(182.532491 188.118438) scale(0.1 -0.1)">
       <defs>
        <path id="DejaVuSans-33" d="M 2597 2516 
Q 3050 2419 3304 2112 
Q 3559 1806 3559 1356 
Q 3559 666 3084 287 
Q 2609 -91 1734 -91 
Q 1441 -91 1130 -33 
Q 819 25 488 141 
L 488 750 
Q 750 597 1062 519 
Q 1375 441 1716 441 
Q 2309 441 2620 675 
Q 2931 909 2931 1356 
Q 2931 1769 2642 2001 
Q 2353 2234 1838 2234 
L 1294 2234 
L 1294 2753 
L 1863 2753 
Q 2328 2753 2575 2939 
Q 2822 3125 2822 3475 
Q 2822 3834 2567 4026 
Q 2313 4219 1838 4219 
Q 1578 4219 1281 4162 
Q 984 4106 628 3988 
L 628 4550 
Q 988 4650 1302 4700 
Q 1616 4750 1894 4750 
Q 2613 4750 3031 4423 
Q 3450 4097 3450 3541 
Q 3450 3153 3228 2886 
Q 3006 2619 2597 2516 
z
" transform="scale(0.015625)"/>
       </defs>
       <use xlink:href="#DejaVuSans-33"/>
      </g>
     </g>
    </g>
    <g id="xtick_4">
     <g id="line2d_4">
      <g>
       <use xlink:href="#m983a5ed9c1" x="237.214164" y="173.52" style="stroke: #000000; stroke-width: 0.8"/>
      </g>
     </g>
     <g id="text_4">
      <!-- 4 -->
      <g transform="translate(234.032914 188.118438) scale(0.1 -0.1)">
       <defs>
        <path id="DejaVuSans-34" d="M 2419 4116 
L 825 1625 
L 2419 1625 
L 2419 4116 
z
M 2253 4666 
L 3047 4666 
L 3047 1625 
L 3713 1625 
L 3713 1100 
L 3047 1100 
L 3047 0 
L 2419 0 
L 2419 1100 
L 313 1100 
L 313 1709 
L 2253 4666 
z
" transform="scale(0.015625)"/>
       </defs>
       <use xlink:href="#DejaVuSans-34"/>
      </g>
     </g>
    </g>
   </g>
   <g id="matplotlib.axis_2">
    <g id="ytick_1">
     <g id="line2d_5">
      <defs>
       <path id="m374fe1a082" d="M 0 0 
L -3.5 0 
" style="stroke: #000000; stroke-width: 0.8"/>
      </defs>
      <g>
       <use xlink:href="#m374fe1a082" x="41.667188" y="161.20617" style="stroke: #000000; stroke-width: 0.8"/>
      </g>
     </g>
     <g id="text_5">
      <!-- −100 -->
      <g transform="translate(7.2 165.005389) scale(0.1 -0.1)">
       <defs>
        <path id="DejaVuSans-2212" d="M 678 2272 
L 4684 2272 
L 4684 1741 
L 678 1741 
L 678 2272 
z
" transform="scale(0.015625)"/>
        <path id="DejaVuSans-30" d="M 2034 4250 
Q 1547 4250 1301 3770 
Q 1056 3291 1056 2328 
Q 1056 1369 1301 889 
Q 1547 409 2034 409 
Q 2525 409 2770 889 
Q 3016 1369 3016 2328 
Q 3016 3291 2770 3770 
Q 2525 4250 2034 4250 
z
M 2034 4750 
Q 2819 4750 3233 4129 
Q 3647 3509 3647 2328 
Q 3647 1150 3233 529 
Q 2819 -91 2034 -91 
Q 1250 -91 836 529 
Q 422 1150 422 2328 
Q 422 3509 836 4129 
Q 1250 4750 2034 4750 
z
" transform="scale(0.015625)"/>
       </defs>
       <use xlink:href="#DejaVuSans-2212"/>
       <use xlink:href="#DejaVuSans-31" transform="translate(83.789062 0)"/>
       <use xlink:href="#DejaVuSans-30" transform="translate(147.412109 0)"/>
       <use xlink:href="#DejaVuSans-30" transform="translate(211.035156 0)"/>
      </g>
     </g>
    </g>
    <g id="ytick_2">
     <g id="line2d_6">
      <g>
       <use xlink:href="#m374fe1a082" x="41.667188" y="139.141946" style="stroke: #000000; stroke-width: 0.8"/>
      </g>
     </g>
     <g id="text_6">
      <!-- −80 -->
      <g transform="translate(13.5625 142.941165) scale(0.1 -0.1)">
       <defs>
        <path id="DejaVuSans-38" d="M 2034 2216 
Q 1584 2216 1326 1975 
Q 1069 1734 1069 1313 
Q 1069 891 1326 650 
Q 1584 409 2034 409 
Q 2484 409 2743 651 
Q 3003 894 3003 1313 
Q 3003 1734 2745 1975 
Q 2488 2216 2034 2216 
z
M 1403 2484 
Q 997 2584 770 2862 
Q 544 3141 544 3541 
Q 544 4100 942 4425 
Q 1341 4750 2034 4750 
Q 2731 4750 3128 4425 
Q 3525 4100 3525 3541 
Q 3525 3141 3298 2862 
Q 3072 2584 2669 2484 
Q 3125 2378 3379 2068 
Q 3634 1759 3634 1313 
Q 3634 634 3220 271 
Q 2806 -91 2034 -91 
Q 1263 -91 848 271 
Q 434 634 434 1313 
Q 434 1759 690 2068 
Q 947 2378 1403 2484 
z
M 1172 3481 
Q 1172 3119 1398 2916 
Q 1625 2713 2034 2713 
Q 2441 2713 2670 2916 
Q 2900 3119 2900 3481 
Q 2900 3844 2670 4047 
Q 2441 4250 2034 4250 
Q 1625 4250 1398 4047 
Q 1172 3844 1172 3481 
z
" transform="scale(0.015625)"/>
       </defs>
       <use xlink:href="#DejaVuSans-2212"/>
       <use xlink:href="#DejaVuSans-38" transform="translate(83.789062 0)"/>
       <use xlink:href="#DejaVuSans-30" transform="translate(147.412109 0)"/>
      </g>
     </g>
    </g>
    <g id="ytick_3">
     <g id="line2d_7">
      <g>
       <use xlink:href="#m374fe1a082" x="41.667188" y="117.077722" style="stroke: #000000; stroke-width: 0.8"/>
      </g>
     </g>
     <g id="text_7">
      <!-- −60 -->
      <g transform="translate(13.5625 120.876941) scale(0.1 -0.1)">
       <defs>
        <path id="DejaVuSans-36" d="M 2113 2584 
Q 1688 2584 1439 2293 
Q 1191 2003 1191 1497 
Q 1191 994 1439 701 
Q 1688 409 2113 409 
Q 2538 409 2786 701 
Q 3034 994 3034 1497 
Q 3034 2003 2786 2293 
Q 2538 2584 2113 2584 
z
M 3366 4563 
L 3366 3988 
Q 3128 4100 2886 4159 
Q 2644 4219 2406 4219 
Q 1781 4219 1451 3797 
Q 1122 3375 1075 2522 
Q 1259 2794 1537 2939 
Q 1816 3084 2150 3084 
Q 2853 3084 3261 2657 
Q 3669 2231 3669 1497 
Q 3669 778 3244 343 
Q 2819 -91 2113 -91 
Q 1303 -91 875 529 
Q 447 1150 447 2328 
Q 447 3434 972 4092 
Q 1497 4750 2381 4750 
Q 2619 4750 2861 4703 
Q 3103 4656 3366 4563 
z
" transform="scale(0.015625)"/>
       </defs>
       <use xlink:href="#DejaVuSans-2212"/>
       <use xlink:href="#DejaVuSans-36" transform="translate(83.789062 0)"/>
       <use xlink:href="#DejaVuSans-30" transform="translate(147.412109 0)"/>
      </g>
     </g>
    </g>
    <g id="ytick_4">
     <g id="line2d_8">
      <g>
       <use xlink:href="#m374fe1a082" x="41.667188" y="95.013498" style="stroke: #000000; stroke-width: 0.8"/>
      </g>
     </g>
     <g id="text_8">
      <!-- −40 -->
      <g transform="translate(13.5625 98.812717) scale(0.1 -0.1)">
       <use xlink:href="#DejaVuSans-2212"/>
       <use xlink:href="#DejaVuSans-34" transform="translate(83.789062 0)"/>
       <use xlink:href="#DejaVuSans-30" transform="translate(147.412109 0)"/>
      </g>
     </g>
    </g>
    <g id="ytick_5">
     <g id="line2d_9">
      <g>
       <use xlink:href="#m374fe1a082" x="41.667188" y="72.949274" style="stroke: #000000; stroke-width: 0.8"/>
      </g>
     </g>
     <g id="text_9">
      <!-- −20 -->
      <g transform="translate(13.5625 76.748493) scale(0.1 -0.1)">
       <use xlink:href="#DejaVuSans-2212"/>
       <use xlink:href="#DejaVuSans-32" transform="translate(83.789062 0)"/>
       <use xlink:href="#DejaVuSans-30" transform="translate(147.412109 0)"/>
      </g>
     </g>
    </g>
    <g id="ytick_6">
     <g id="line2d_10">
      <g>
       <use xlink:href="#m374fe1a082" x="41.667188" y="50.88505" style="stroke: #000000; stroke-width: 0.8"/>
      </g>
     </g>
     <g id="text_10">
      <!-- 0 -->
      <g transform="translate(28.304688 54.684269) scale(0.1 -0.1)">
       <use xlink:href="#DejaVuSans-30"/>
      </g>
     </g>
    </g>
    <g id="ytick_7">
     <g id="line2d_11">
      <g>
       <use xlink:href="#m374fe1a082" x="41.667188" y="28.820826" style="stroke: #000000; stroke-width: 0.8"/>
      </g>
     </g>
     <g id="text_11">
      <!-- 20 -->
      <g transform="translate(21.942188 32.620045) scale(0.1 -0.1)">
       <use xlink:href="#DejaVuSans-32"/>
       <use xlink:href="#DejaVuSans-30" transform="translate(63.623047 0)"/>
      </g>
     </g>
    </g>
   </g>
   <g id="line2d_12">
    <path d="M 51.812642 124.27984 
L 51.915643 124.448176 
L 51.925943 124.414509 
L 51.990319 124.347174 
L 52.013494 124.481844 
L 52.036669 124.380842 
L 52.14482 124.582846 
L 52.157695 124.549178 
L 52.19117 124.481844 
L 52.204045 124.616513 
L 52.263271 124.549178 
L 52.289021 124.616513 
L 52.345671 124.414509 
L 52.368847 124.448176 
L 52.422922 124.347174 
L 52.520773 124.246172 
L 52.484723 124.414509 
L 52.533648 124.313507 
L 52.639224 124.414509 
L 52.549098 124.246172 
L 52.646949 124.347174 
L 52.74995 124.414509 
L 52.7551 124.380842 
L 52.865826 124.549178 
L 52.889001 124.414509 
L 52.968827 124.65018 
L 52.973977 124.582846 
L 53.221179 124.549178 
L 53.306154 124.448176 
L 53.277829 124.582846 
L 53.329329 124.515511 
L 53.362805 124.582846 
L 53.378255 124.448176 
L 53.43748 124.448176 
L 53.509581 124.515511 
L 53.514731 124.616513 
L 53.540481 124.481844 
L 53.620307 124.549178 
L 53.790258 124.616513 
L 53.888109 124.717515 
L 53.900984 124.65018 
L 53.908709 124.717515 
L 54.019435 124.481844 
L 54.029735 124.616513 
L 54.086386 124.448176 
L 54.130161 124.549178 
L 54.235737 124.414509 
L 54.243462 124.515511 
L 54.809967 124.616513 
L 54.820267 124.549178 
L 54.928418 124.717515 
L 55.018543 124.683848 
L 54.969618 124.78485 
L 55.031418 124.78485 
L 55.054594 124.885852 
L 55.082919 124.717515 
L 55.139569 124.78485 
L 55.23227 124.717515 
L 55.20137 124.852184 
L 55.24772 124.751182 
L 55.26832 124.852184 
L 55.278621 124.717515 
L 55.358446 124.78485 
L 56.336954 124.717515 
L 56.439955 124.616513 
L 56.383305 124.751182 
L 56.44768 124.65018 
L 56.45798 124.616513 
L 56.560981 124.717515 
L 56.589306 124.65018 
L 56.638232 124.818517 
L 56.666557 124.78485 
L 56.774708 124.885852 
L 56.684582 124.751182 
L 56.779858 124.852184 
L 56.818483 124.78485 
L 56.792733 124.885852 
L 56.888009 124.885852 
L 56.898309 124.852184 
L 56.99616 127.747575 
L 57.297437 137.713106 
L 57.302587 137.780441 
L 57.727466 145.995271 
L 57.730041 145.961603 
L 57.778966 146.735952 
L 57.781541 146.735952 
L 57.987543 149.227335 
L 58.296545 151.853387 
L 58.29912 151.819719 
L 58.371221 152.324729 
L 58.373796 152.291062 
L 58.394396 152.392064 
L 58.579798 153.368417 
L 58.620998 153.469419 
L 58.775499 154.109098 
L 58.778074 154.041764 
L 58.8579 154.378437 
L 58.875925 154.378437 
L 58.886225 154.412104 
L 58.996951 154.748778 
L 59.004676 154.71511 
L 59.136002 154.984449 
L 59.352304 155.085451 
L 59.45273 155.152786 
L 59.375479 155.018116 
L 59.46303 155.085451 
L 59.49908 155.152786 
L 59.604656 155.253788 
L 59.506805 155.119118 
L 59.612381 155.22012 
L 59.720532 155.287455 
L 59.653581 155.186453 
L 59.725682 155.253788 
L 59.782332 155.186453 
L 59.754007 155.321122 
L 59.833833 155.287455 
L 59.970309 155.186453 
L 60.008934 155.287455 
L 60.08361 155.152786 
L 60.09906 155.186453 
L 60.171161 154.950782 
L 60.178886 154.984449 
L 60.269011 154.782445 
L 60.292187 154.816112 
L 60.410638 154.748778 
L 60.516214 154.647776 
L 60.521364 154.681443 
L 60.616639 154.748778 
L 60.552264 154.580441 
L 60.629514 154.681443 
L 60.717065 154.580441 
L 60.655265 154.71511 
L 60.737665 154.681443 
L 60.830366 154.71511 
L 60.796891 154.614108 
L 60.848391 154.681443 
L 60.961692 154.580441 
L 60.879291 154.782445 
L 60.964267 154.614108 
L 61.044093 154.546774 
L 61.064693 154.647776 
L 61.154819 154.479439 
L 61.237219 154.614108 
L 61.26812 154.580441 
L 61.376271 154.243768 
L 61.383996 154.34477 
L 61.494722 154.445772 
L 61.571972 154.34477 
L 61.561672 154.479439 
L 61.608022 154.378437 
L 61.729048 154.243768 
L 61.731623 154.277435 
L 61.765099 154.142766 
L 61.834624 154.2101 
L 61.88355 153.974429 
L 61.9505 154.008096 
L 62.058651 154.075431 
L 62.048351 153.940762 
L 62.061226 154.041764 
L 62.151352 153.907094 
L 62.079251 154.109098 
L 62.177102 153.974429 
L 62.465505 154.008096 
L 62.46808 154.109098 
L 62.553055 153.907094 
L 62.57623 154.008096 
L 62.650906 153.940762 
L 62.635456 154.075431 
L 62.686956 154.008096 
L 62.756482 153.907094 
L 62.859483 153.873427 
L 62.782232 154.008096 
L 62.864633 153.907094 
L 62.905833 153.974429 
L 62.872358 153.806092 
L 62.977934 153.940762 
L 63.003684 153.83976 
L 63.062909 153.974429 
L 63.08866 153.873427 
L 63.18651 154.008096 
L 63.201961 153.940762 
L 63.281786 153.974429 
L 63.209686 153.873427 
L 63.310111 153.907094 
L 63.611389 153.806092 
L 63.639714 153.873427 
L 63.72469 153.738758 
L 63.817391 153.83976 
L 63.763315 153.70509 
L 63.837991 153.806092 
L 63.845716 153.83976 
L 63.956442 153.70509 
L 64.036267 153.83976 
L 64.013092 153.671423 
L 64.067168 153.738758 
L 64.103218 153.806092 
L 64.177894 153.671423 
L 64.180469 153.738758 
L 64.280894 153.503086 
L 64.450846 153.402084 
L 64.561572 153.301082 
L 64.474021 153.469419 
L 64.564147 153.334749 
L 64.602772 153.402084 
L 64.649122 153.267415 
L 64.672298 153.267415 
L 64.692898 153.301082 
L 64.728948 153.166413 
L 64.777873 153.20008 
L 64.855124 153.166413 
L 64.834524 153.267415 
L 64.886024 153.233747 
L 64.90405 153.334749 
L 64.952975 153.132745 
L 64.994175 153.233747 
L 65.081726 153.132745 
L 64.999325 153.267415 
L 65.107476 153.166413 
L 65.187302 153.20008 
L 65.120351 153.099078 
L 65.213052 153.132745 
L 65.331503 152.930741 
L 65.218202 153.166413 
L 65.334078 152.998076 
L 65.516905 153.099078 
L 65.54008 153.065411 
L 65.632781 153.20008 
L 65.704881 153.132745 
L 65.733206 153.301082 
L 65.740931 153.20008 
L 65.787282 153.132745 
L 65.851657 153.267415 
L 65.934058 153.20008 
L 65.864532 153.301082 
L 65.962383 153.267415 
L 66.14521 153.20008 
L 66.248211 153.065411 
L 66.163235 153.233747 
L 66.255936 153.099078 
L 66.356361 153.166413 
L 66.281686 153.031743 
L 66.366662 153.132745 
L 66.418162 153.065411 
L 66.387262 153.166413 
L 66.469662 153.166413 
L 66.472237 153.233747 
L 66.562363 152.897074 
L 66.570088 152.964409 
L 66.685964 152.829739 
L 66.582963 152.998076 
L 66.688539 152.863407 
L 67.072217 152.930741 
L 67.170068 152.998076 
L 67.131443 152.829739 
L 67.180368 152.964409 
L 67.216419 152.998076 
L 68.125401 127.107896 
L 68.158876 23.98485 
L 68.246427 108.388858 
L 68.609505 121.586453 
L 68.879882 125.761202 
L 69.106484 127.276232 
L 69.109059 127.242565 
L 69.18116 127.68024 
L 69.18631 127.68024 
L 69.325361 128.084248 
L 69.333086 128.050581 
L 69.394886 128.218918 
L 69.425787 128.218918 
L 69.456687 128.353587 
L 69.531363 128.185251 
L 69.536513 128.252585 
L 69.652389 128.084248 
L 69.657539 128.117916 
L 69.660114 128.151583 
L 69.698739 127.915912 
L 69.755389 128.016914 
L 69.876415 127.713908 
L 69.88414 127.781242 
L 69.969116 127.579238 
L 69.981991 127.612906 
L 70.015466 127.545571 
L 70.090142 127.242565 
L 70.133917 127.276232 
L 70.169968 127.3099 
L 70.231768 127.107896 
L 70.373394 126.703888 
L 70.43777 126.67022 
L 70.553646 126.333547 
L 70.556221 126.367214 
L 70.684972 126.064208 
L 70.687547 126.097876 
L 70.731322 125.996874 
L 70.852348 125.79487 
L 70.854923 125.862204 
L 70.924449 125.592866 
L 70.955349 125.592866 
L 71.086675 125.323527 
L 71.174226 125.222525 
L 71.292677 124.986854 
L 71.300402 125.020521 
L 71.375078 124.953186 
L 71.483229 124.751182 
L 71.490954 124.78485 
L 71.591379 124.683848 
L 71.61713 124.717515 
L 71.70983 124.549178 
L 71.730431 124.65018 
L 71.799956 124.481844 
L 71.815406 124.515511 
L 71.923557 124.347174 
L 71.833431 124.549178 
L 71.928707 124.380842 
L 71.998233 124.414509 
L 71.985358 124.313507 
L 72.036858 124.380842 
L 72.142434 124.178838 
L 72.160459 124.212505 
L 72.219685 124.178838 
L 72.332986 124.010501 
L 72.387061 124.111503 
L 72.369036 123.976834 
L 72.446286 124.077836 
L 72.461737 124.010501 
L 72.554437 124.111503 
L 72.557012 124.044168 
L 72.649713 124.111503 
L 72.569887 124.010501 
L 72.667738 124.044168 
L 72.850565 123.943166 
L 72.953566 123.808497 
L 72.876315 123.976834 
L 72.969016 123.842164 
L 73.038541 123.976834 
L 72.999916 123.808497 
L 73.087467 123.943166 
L 73.195618 123.808497 
L 73.105492 123.976834 
L 73.203343 123.842164 
L 73.285743 123.875832 
L 73.221368 123.77483 
L 73.306344 123.842164 
L 73.386169 123.741162 
L 73.414494 123.842164 
L 73.47887 123.909499 
L 73.424794 123.741162 
L 73.52007 123.77483 
L 73.589596 123.875832 
L 73.623071 123.909499 
L 73.602471 123.808497 
L 73.697747 123.842164 
L 73.821348 123.606493 
L 73.702897 123.875832 
L 73.823923 123.64016 
L 73.867698 123.539158 
L 73.872848 123.572826 
L 73.983574 123.438156 
L 74.081425 123.539158 
L 74.065975 123.404489 
L 74.0943 123.471824 
L 74.194726 123.404489 
L 74.205026 123.471824 
L 74.369827 123.404489 
L 74.462528 123.303487 
L 74.436778 123.438156 
L 74.480553 123.370822 
L 74.562954 123.26982 
L 74.588704 123.236152 
L 74.619604 123.370822 
L 74.66853 123.337154 
L 74.74578 123.404489 
L 74.815306 123.505491 
L 74.76638 123.370822 
L 74.856506 123.404489 
L 74.972382 123.539158 
L 74.974957 123.505491 
L 74.985257 123.572826 
L 75.088258 123.438156 
L 75.139759 123.505491 
L 75.137184 123.370822 
L 75.193834 123.370822 
L 75.232459 123.26982 
L 75.343185 123.168818 
L 75.240184 123.303487 
L 75.34576 123.202485 
L 75.384386 123.13515 
L 75.461636 123.26982 
L 75.487386 123.202485 
L 75.520862 123.337154 
L 75.569787 123.337154 
L 75.963765 123.26982 
L 76.010116 123.168818 
L 76.038441 123.303487 
L 76.071916 123.303487 
L 76.223842 123.202485 
L 76.331993 123.067816 
L 76.254743 123.26982 
L 76.342293 123.101483 
L 76.406669 123.034148 
L 76.427269 123.067816 
L 76.51997 122.899479 
L 76.543145 122.966814 
L 76.617821 122.76481 
L 76.628121 122.832144 
L 76.718247 122.731142 
L 76.651296 122.933146 
L 76.743997 122.76481 
L 76.865023 122.966814 
L 76.965449 122.865812 
L 76.931973 123.000481 
L 76.975749 122.966814 
L 77.006649 122.865812 
L 77.016949 123.000481 
L 77.086475 122.966814 
L 77.10965 122.933146 
L 77.127675 122.832144 
L 77.1354 122.966814 
L 77.220376 122.899479 
L 77.521653 122.966814 
L 77.544828 123.067816 
L 77.526803 122.933146 
L 77.632379 122.966814 
L 77.712205 123.000481 
L 77.71478 123.101483 
L 77.73023 122.933146 
L 77.822931 123.000481 
L 78.531061 122.899479 
L 78.613462 122.865812 
L 78.628912 123.034148 
L 78.636637 122.933146 
L 78.713888 123.034148 
L 78.662387 122.899479 
L 78.747363 122.966814 
L 78.749938 122.933146 
L 78.827189 123.13515 
L 78.850364 123.067816 
L 78.894139 123.13515 
L 78.873539 123.000481 
L 78.95594 123.034148 
L 79.035766 122.933146 
L 78.97139 123.067816 
L 79.071816 122.966814 
L 79.097566 123.067816 
L 79.182542 123.13515 
L 79.146491 123.000481 
L 79.210867 123.101483 
L 79.365368 123.202485 
L 79.473519 123.370822 
L 79.481244 123.337154 
L 79.501844 123.370822 
L 79.594545 123.236152 
L 79.674371 123.303487 
L 79.682096 123.202485 
L 79.702696 123.26982 
L 79.810847 123.202485 
L 79.718146 123.303487 
L 79.813422 123.26982 
L 79.926723 123.000481 
L 79.937023 123.101483 
L 80.112124 123.000481 
L 80.2074 122.933146 
L 80.122424 123.101483 
L 80.22285 123.000481 
L 80.325851 123.101483 
L 80.274351 122.933146 
L 80.336151 123.034148 
L 80.338726 123.000481 
L 80.436577 123.168818 
L 80.603953 123.236152 
L 80.668329 123.303487 
L 80.616829 123.202485 
L 80.712104 123.236152 
L 80.768755 123.168818 
L 80.809955 123.337154 
L 80.82283 123.236152 
L 80.830555 123.26982 
L 80.83313 123.370822 
L 80.874331 123.202485 
L 80.941281 123.26982 
L 81.049432 123.236152 
L 80.985057 123.370822 
L 81.052007 123.26982 
L 81.152433 123.303487 
L 81.229684 123.471824 
L 81.265734 123.404489 
L 81.273459 123.337154 
L 81.304359 123.505491 
L 81.373885 123.438156 
L 81.595337 123.370822 
L 81.708637 123.236152 
L 81.803913 123.404489 
L 81.824513 123.303487 
L 82.01249 123.303487 
L 82.015065 123.438156 
L 82.05369 123.168818 
L 82.120641 123.236152 
L 82.161841 123.26982 
L 82.264842 123.505491 
L 82.275142 123.438156 
L 82.465694 123.471824 
L 82.545519 123.572826 
L 82.478569 123.438156 
L 82.57642 123.505491 
L 82.712896 123.539158 
L 82.846797 133.942365 
L 82.887997 135.928737 
L 83.091424 144.412906 
L 83.84333 161.246573 
L 83.845905 161.179238 
L 83.918006 162.020922 
L 83.923156 161.987255 
L 84.093107 163.569619 
L 84.111132 163.670621 
L 84.283659 164.646974 
L 84.291384 164.613307 
L 84.293959 164.579639 
L 84.368634 164.983647 
L 84.373784 164.983647 
L 84.40211 165.050982 
L 84.517986 165.421323 
L 84.525711 165.387655 
L 84.561761 165.488657 
L 84.667337 165.690661 
L 84.685362 165.656994 
L 84.747162 165.724329 
L 84.760038 165.690661 
L 84.863038 165.892665 
L 84.942864 165.757996 
L 84.976339 165.791663 
L 85.097365 165.858998 
L 85.133416 165.96 
L 85.10509 165.825331 
L 85.208091 165.858998 
L 85.269892 165.892665 
L 85.305942 165.724329 
L 85.311092 165.791663 
L 85.416668 165.757996 
L 85.362592 165.892665 
L 85.421818 165.791663 
L 85.792621 165.690661 
L 85.913647 165.522325 
L 85.923947 165.589659 
L 86.011498 165.387655 
L 86.014073 165.45499 
L 86.129949 165.252986 
L 86.142824 165.320321 
L 86.189174 165.151984 
L 86.235525 165.185651 
L 86.657828 165.084649 
L 86.812329 164.478637 
L 86.814904 164.512305 
L 86.88443 164.007295 
L 86.88958 164.040962 
L 86.974556 163.805291 
L 87.013181 163.872625 
L 87.121332 163.973627 
L 87.239783 164.175631 
L 87.309308 164.242966 
L 87.427759 164.44497 
L 87.47411 164.377635 
L 87.476685 164.478637 
L 87.53591 164.478637 
L 87.739337 164.512305 
L 87.847488 164.613307 
L 87.744487 164.411303 
L 87.850063 164.579639 
L 87.862938 164.613307 
L 87.965939 164.478637 
L 87.999414 164.545972 
L 88.05864 164.377635 
L 88.071515 164.44497 
L 88.177091 164.377635 
L 88.092115 164.478637 
L 88.182241 164.411303 
L 88.244041 164.44497 
L 88.197691 164.310301 
L 88.285241 164.310301 
L 88.375367 164.209299 
L 88.390817 164.242966 
L 88.493818 164.040962 
L 88.496393 164.141964 
L 88.532444 163.906293 
L 88.601969 163.973627 
L 88.71527 163.771623 
L 88.717845 163.805291 
L 88.807971 163.737956 
L 88.926422 163.535952 
L 88.949597 163.636954 
L 88.967622 163.468617 
L 89.037148 163.603287 
L 89.060323 163.636954 
L 89.155599 163.367615 
L 89.158174 163.401283 
L 89.253449 163.199279 
L 89.256024 163.232946 
L 89.3822 162.92994 
L 89.384776 162.963607 
L 89.387351 163.030942 
L 89.472326 162.727936 
L 89.485201 162.727936 
L 89.601077 162.525932 
L 89.608802 162.559599 
L 89.619102 162.626934 
L 89.706653 162.42493 
L 89.714378 162.458597 
L 89.729828 162.559599 
L 89.832829 162.290261 
L 89.88433 162.357595 
L 89.87403 162.222926 
L 89.938405 162.222926 
L 90.049131 161.987255 
L 89.95128 162.256593 
L 90.054281 162.020922 
L 90.056856 162.088257 
L 90.159857 161.886253 
L 90.170157 161.91992 
L 90.275733 161.684248 
L 90.278308 161.717916 
L 90.365859 161.515912 
L 90.373584 161.515912 
L 90.476584 161.41491 
L 90.589885 161.246573 
L 90.492035 161.448577 
L 90.59761 161.28024 
L 90.643961 161.179238 
L 90.664561 161.28024 
L 90.770137 160.943567 
L 90.798462 161.010902 
L 90.865413 160.808898 
L 90.867988 160.808898 
L 90.986439 160.573226 
L 90.873138 160.842565 
L 90.994164 160.606894 
L 90.996739 160.674228 
L 91.092015 160.40489 
L 91.097165 160.438557 
L 91.117765 160.472224 
L 91.231066 160.135551 
L 91.295441 160.068216 
L 91.413892 159.866212 
L 91.444792 159.76521 
L 91.558093 159.563206 
L 91.460243 159.832545 
L 91.565818 159.630541 
L 91.568393 159.664208 
L 91.653369 159.428537 
L 91.663669 159.495872 
L 91.79757 159.192866 
L 91.872246 159.091864 
L 91.890271 159.125531 
L 91.995847 158.923527 
L 92.006147 158.990862 
L 92.085973 158.687856 
L 92.098848 158.721523 
L 92.119448 158.788858 
L 92.199274 158.586854 
L 92.284249 158.519519 
L 92.400125 158.283848 
L 92.4027 158.351182 
L 92.490251 158.048176 
L 92.503126 158.115511 
L 92.544326 158.115511 
L 92.660202 157.812505 
L 92.670502 157.87984 
L 92.752903 157.610501 
L 92.758053 157.644168 
L 92.822429 157.576834 
L 92.93573 157.37483 
L 92.835304 157.677836 
L 92.938305 157.408497 
L 92.94088 157.442164 
L 93.02843 157.206493 
L 93.036155 157.273828 
L 93.159757 157.038156 
L 93.162332 157.071824 
L 93.188082 157.105491 
L 93.224132 156.903487 
L 93.257607 156.903487 
L 93.378633 156.768818 
L 93.419834 156.836152 
L 93.479059 156.600481 
L 93.484209 156.667816 
L 93.53571 156.600481 
L 93.656736 156.297475 
L 93.705661 156.331142 
L 93.728836 156.162806 
L 93.757161 156.196473 
L 93.873037 156.028136 
L 93.945138 155.960802 
L 94.048139 155.792465 
L 94.061014 155.826132 
L 94.063589 155.893467 
L 94.14599 155.657796 
L 94.164015 155.691463 
L 94.285041 155.489459 
L 94.287616 155.523126 
L 94.333966 155.489459 
L 94.452417 155.152786 
L 94.537393 155.085451 
L 94.658419 154.782445 
L 94.722794 154.816112 
L 94.740819 154.647776 
L 94.76142 154.681443 
L 94.82837 154.614108 
L 94.946821 154.412104 
L 94.962271 154.445772 
L 95.021497 154.2101 
L 95.044672 154.243768 
L 95.173423 153.974429 
L 95.175998 154.041764 
L 95.240374 153.772425 
L 95.276424 153.772425 
L 95.299599 153.806092 
L 95.3511 153.604088 
L 95.374275 153.604088 
L 95.44895 153.536754 
L 95.569976 153.267415 
L 95.603452 153.166413 
L 95.739928 152.829739 
L 95.812028 152.897074 
L 95.827478 152.762405 
L 95.840354 152.762405 
L 95.848079 152.796072 
L 95.956229 152.594068 
L 96.030905 152.526733 
L 96.139056 152.324729 
L 96.04893 152.560401 
L 96.144206 152.392064 
L 96.149356 152.425731 
L 96.229182 152.156393 
L 96.242057 152.223727 
L 96.296132 152.19006 
L 96.401708 151.853387 
L 96.412008 151.887054 
L 96.445483 151.954389 
L 96.494409 151.718717 
L 96.509859 151.752385 
L 96.636035 151.550381 
L 96.69011 151.449379 
L 96.808561 151.247375 
L 96.700411 151.483046 
L 96.811136 151.281042 
L 96.813712 151.314709 
L 96.898687 151.045371 
L 96.903837 151.045371 
L 97.027438 150.742365 
L 96.924437 151.112705 
L 97.035163 150.776032 
L 97.068639 150.708697 
L 97.189665 150.405691 
L 97.277215 150.338357 
L 97.387941 150.136353 
L 97.393091 150.17002 
L 97.413691 150.069018 
L 97.516692 149.934349 
L 97.418841 150.102685 
L 97.532142 149.968016 
L 97.555318 149.867014 
L 97.560468 149.900681 
L 97.678919 149.698677 
L 97.735569 149.597675 
L 97.740719 149.631343 
L 97.86432 149.362004 
L 97.866895 149.496673 
L 97.969896 149.227335 
L 97.972471 149.227335 
L 98.029121 149.126333 
L 98.147572 148.924329 
L 98.049722 149.16 
L 98.152723 148.957996 
L 98.173323 148.991663 
L 98.211948 148.789659 
L 98.247998 148.789659 
L 98.363874 148.621323 
L 98.253148 148.823327 
L 98.369024 148.65499 
L 98.4128 148.587655 
L 98.526101 148.385651 
L 98.441125 148.621323 
L 98.528676 148.419319 
L 98.577601 148.318317 
L 98.587901 148.351984 
L 98.706352 148.082645 
L 98.721802 148.14998 
L 98.786178 147.914309 
L 98.804203 147.914309 
L 98.920079 147.64497 
L 98.953554 147.611303 
L 99.072005 147.308297 
L 99.08488 147.375631 
L 99.144106 147.173627 
L 99.175006 147.240962 
L 99.278007 147.005291 
L 99.293457 147.038958 
L 99.362982 147.005291 
L 99.478858 146.803287 
L 99.489158 146.836954 
L 99.615335 146.432946 
L 99.625635 146.500281 
L 99.692585 146.197275 
L 99.71061 146.264609 
L 99.839361 145.961603 
L 99.841936 145.995271 
L 99.885712 145.894269 
L 100.006738 145.591263 
L 100.009313 145.692265 
L 100.096863 145.389259 
L 100.112314 145.456593 
L 100.246215 145.153587 
L 100.26939 145.187255 
L 100.333765 144.951583 
L 100.344065 144.985251 
L 100.462516 144.749579 
L 100.495992 144.648577 
L 100.598993 144.345571 
L 100.501142 144.715912 
L 100.624743 144.379238 
L 100.640193 144.446573 
L 100.709718 144.244569 
L 100.725169 144.278236 
L 100.84877 144.042565 
L 100.851345 144.076232 
L 100.871945 144.042565 
L 100.987821 143.773226 
L 100.990396 143.840561 
L 101.062496 143.672224 
L 101.093397 143.705892 
L 101.103697 143.739559 
L 101.227298 143.402886 
L 101.268498 143.301884 
L 101.397249 142.998878 
L 101.399824 143.032545 
L 101.402399 143.066212 
L 101.492525 142.830541 
L 101.4951 142.864208 
L 101.51055 142.897876 
L 101.613551 142.628537 
L 101.683076 142.527535 
L 101.703677 142.561202 
L 101.809253 142.291864 
L 101.835003 142.392866 
L 101.904528 142.157194 
L 101.907103 142.224529 
L 102.025554 141.887856 
L 102.159455 141.551182 
L 102.177481 141.618517 
L 102.241856 141.349178 
L 102.257306 141.382846 
L 102.373182 141.180842 
L 102.380907 141.214509 
L 102.434983 141.113507 
L 102.535408 140.844168 
L 102.558584 140.911503 
L 102.566309 140.94517 
L 102.635834 140.709499 
L 102.656434 140.743166 
L 102.66931 140.810501 
L 102.77231 140.608497 
L 102.774885 140.675832 
L 102.867586 140.406493 
L 102.875311 140.473828 
L 102.996337 140.137154 
L 103.001487 140.204489 
L 103.091613 139.93515 
L 103.094188 139.968818 
L 103.228089 139.665812 
L 103.230664 139.699479 
L 103.307915 139.43014 
L 103.318215 139.43014 
L 103.446966 139.093467 
L 103.449541 139.194469 
L 103.519067 138.958798 
L 103.552542 138.992465 
L 103.562842 139.026132 
L 103.668418 138.790461 
L 103.670993 138.857796 
L 103.758544 138.55479 
L 103.771419 138.588457 
L 103.792019 138.622124 
L 103.848669 138.319118 
L 103.866694 138.386453 
L 103.99802 138.117114 
L 104.046946 138.016112 
L 104.160247 137.814108 
L 104.059821 138.083447 
L 104.167972 137.881443 
L 104.219472 137.847776 
L 104.335348 137.612104 
L 104.340498 137.679439 
L 104.425474 137.4101 
L 104.428049 137.4101 
L 104.554225 137.208096 
L 104.56195 137.241764 
L 104.636626 137.03976 
L 104.654651 137.073427 
L 104.773102 136.804088 
L 104.775677 136.837756 
L 104.832327 136.669419 
L 104.873528 136.669419 
L 104.950778 136.568417 
L 105.084679 136.265411 
L 105.089829 136.366413 
L 105.17223 136.130741 
L 105.185105 136.130741 
L 105.231456 136.029739 
L 105.349907 135.827735 
L 105.236606 136.097074 
L 105.352482 135.89507 
L 105.380807 135.794068 
L 105.517283 135.356393 
L 105.522433 135.39006 
L 105.530158 135.423727 
L 105.607409 135.053387 
L 105.609984 135.120721 
L 105.73616 134.851383 
L 105.738735 134.88505 
L 105.749035 134.817715 
L 105.870061 134.514709 
L 105.872636 134.548377 
L 105.952462 134.312705 
L 105.965337 134.312705 
L 106.045162 134.245371 
L 106.166188 133.942365 
L 106.197089 133.976032 
L 106.235714 133.807695 
L 106.271764 133.87503 
L 106.405665 133.572024 
L 106.41339 133.639359 
L 106.506091 133.437355 
L 106.511241 133.471022 
L 106.516391 133.504689 
L 106.629692 133.269018 
L 106.652867 133.336353 
L 106.719818 133.134349 
L 106.735268 133.168016 
L 106.781618 133.067014 
L 106.902644 132.831343 
L 106.815094 133.134349 
L 106.905219 132.898677 
L 106.912944 132.932345 
L 107.000495 132.696673 
L 107.093196 132.595671 
L 107.111221 132.629339 
L 107.221947 132.36 
L 107.227097 132.427335 
L 107.299198 132.191663 
L 107.322373 132.258998 
L 107.461424 131.821323 
L 107.463999 131.888657 
L 107.548975 131.585651 
L 107.559275 131.585651 
L 107.675151 131.248978 
L 107.564425 131.619319 
L 107.680301 131.282645 
L 107.695751 131.181643 
L 107.816777 130.84497 
L 107.827077 130.878637 
L 107.834802 130.912305 
L 107.896603 130.642966 
L 107.919778 130.642966 
L 108.066554 130.171623 
L 108.069129 130.205291 
L 108.138654 130.003287 
L 108.164405 130.036954 
L 108.300881 129.700281 
L 108.308606 129.733948 
L 108.388432 129.498277 
L 108.398732 129.565611 
L 108.517183 129.262605 
L 108.604733 129.195271 
L 108.609883 129.228938 
L 108.720609 129.026934 
L 108.730909 129.060601 
L 108.810735 128.892265 
L 108.82361 128.925932 
L 108.931761 128.690261 
L 108.83391 128.959599 
L 108.942061 128.723928 
L 108.947211 128.757595 
L 109.024462 128.555591 
L 109.039912 128.555591 
L 109.052787 128.622926 
L 109.158363 128.353587 
L 109.194413 128.252585 
L 109.328314 127.882244 
L 109.333464 127.949579 
L 109.42874 127.646573 
L 109.511141 127.612906 
L 109.616717 127.377234 
L 109.627017 127.410902 
L 109.686242 127.3099 
L 109.809843 126.939559 
L 109.691392 127.343567 
L 109.822718 126.973226 
L 109.825293 127.006894 
L 109.894819 126.737555 
L 109.917994 126.771222 
L 109.969495 126.737555 
L 110.06477 126.468216 
L 110.082795 126.535551 
L 110.08537 126.569218 
L 110.136871 126.367214 
L 110.180646 126.400882 
L 110.278497 126.16521 
L 110.304247 126.232545 
L 110.322272 126.131543 
L 110.335148 126.232545 
L 110.448448 125.929539 
L 110.541149 125.828537 
L 110.548874 125.862204 
L 110.672475 125.559198 
L 110.67505 125.592866 
L 110.729126 125.357194 
L 110.767751 125.357194 
L 110.819251 125.256192 
L 110.937702 124.919519 
L 110.950578 124.986854 
L 110.955728 125.020521 
L 111.030403 124.852184 
L 111.053578 124.885852 
L 111.184904 124.616513 
L 111.21323 124.683848 
L 111.28533 124.481844 
L 111.29563 124.515511 
L 111.411506 124.27984 
L 111.414081 124.313507 
L 111.488757 124.111503 
L 111.509357 124.111503 
L 111.594333 124.010501 
L 111.720509 123.64016 
L 111.728234 123.673828 
L 111.730809 123.741162 
L 111.820935 123.370822 
L 111.82866 123.438156 
L 111.88016 123.370822 
L 112.001186 123.067816 
L 112.026936 123.168818 
L 112.086162 122.933146 
L 112.099037 122.933146 
L 112.214913 122.731142 
L 112.106762 123.000481 
L 112.217488 122.76481 
L 112.227788 122.832144 
L 112.320489 122.562806 
L 112.330789 122.596473 
L 112.371989 122.394469 
L 112.41834 122.394469 
L 112.539366 122.12513 
L 112.585716 122.158798 
L 112.634641 121.923126 
L 112.637216 121.956794 
L 112.768543 121.889459 
L 112.791718 121.923126 
L 112.886993 121.687455 
L 112.946219 121.586453 
L 113.062095 121.350782 
L 112.951369 121.62012 
L 113.06982 121.418116 
L 113.072395 121.451784 
L 113.157371 121.11511 
L 113.208871 121.014108 
L 113.214021 121.047776 
L 113.347922 120.6101 
L 113.350497 120.677435 
L 113.422598 120.307094 
L 113.445773 120.307094 
L 113.453498 120.374429 
L 113.574524 120.037756 
L 113.582249 120.071423 
L 113.6698 119.835752 
L 113.672375 119.869419 
L 113.718725 119.768417 
L 113.839751 119.566413 
L 113.73675 119.835752 
L 113.842326 119.60008 
L 113.891252 119.532745 
L 113.914427 119.566413 
L 114.007128 119.398076 
L 114.128154 119.196072 
L 114.130729 119.229739 
L 114.143604 119.297074 
L 114.207979 119.027735 
L 114.228579 119.09507 
L 114.34703 118.792064 
L 114.367631 118.825731 
L 114.411406 118.59006 
L 114.444881 118.724729 
L 114.565907 118.253387 
L 114.583932 118.287054 
L 114.650883 117.984048 
L 114.656033 117.984048 
L 114.712683 117.916713 
L 114.836284 117.546373 
L 114.86461 117.58004 
L 114.92641 117.411703 
L 114.939285 117.445371 
L 115.021686 117.344369 
L 115.142712 117.041363 
L 115.050011 117.378036 
L 115.150437 117.07503 
L 115.181337 117.108697 
L 115.243138 116.906693 
L 115.250863 116.940361 
L 115.292063 116.839359 
L 115.407939 116.57002 
L 115.297213 116.873026 
L 115.410514 116.603687 
L 115.467165 116.536353 
L 115.577891 116.300681 
L 115.585616 116.334349 
L 115.593341 116.368016 
L 115.716942 115.997675 
L 115.719517 116.06501 
L 115.807067 115.829339 
L 115.822518 115.896673 
L 115.917793 115.795671 
L 116.002769 115.492665 
L 116.046544 115.56 
L 116.054269 115.593667 
L 116.134095 115.357996 
L 116.139245 115.391663 
L 116.247396 115.189659 
L 116.255121 115.256994 
L 116.291171 115.155992 
L 116.404472 114.953988 
L 116.298896 115.189659 
L 116.412197 114.987655 
L 116.430223 115.05499 
L 116.471423 114.852986 
L 116.515198 114.920321 
L 116.610474 114.819319 
L 116.546099 114.987655 
L 116.631074 114.852986 
L 116.661974 114.886653 
L 116.72635 114.718317 
L 116.734075 114.785651 
L 116.865401 114.448978 
L 116.867976 114.482645 
L 116.875701 114.617315 
L 116.942652 114.246974 
L 116.963252 114.280641 
L 117.097153 113.977635 
L 117.102303 114.011303 
L 117.169254 113.708297 
L 117.187279 113.708297 
L 117.197579 113.607295 
L 117.323755 113.270621 
L 117.202729 113.674629 
L 117.32633 113.337956 
L 117.33148 113.270621 
L 117.442206 113.438958 
L 117.529757 113.236954 
L 117.555507 113.337956 
L 117.558082 113.371623 
L 117.653358 113.169619 
L 117.658508 113.236954 
L 117.784684 112.832946 
L 117.913435 112.52994 
L 117.91601 112.563607 
L 117.959785 112.462605 
L 118.062786 112.294269 
L 118.080811 112.327936 
L 118.142612 112.260601 
L 118.255913 111.957595 
L 118.152912 112.294269 
L 118.263638 111.991263 
L 118.317713 111.923928 
L 118.425864 111.654589 
L 118.433589 111.721924 
L 118.464489 111.755591 
L 118.528865 111.553587 
L 118.53144 111.587255 
L 118.652466 111.351583 
L 118.554615 111.654589 
L 118.657616 111.385251 
L 118.693666 111.452585 
L 118.760617 111.284248 
L 118.891943 111.216914 
L 119.005244 110.913908 
L 119.010394 110.947575 
L 119.012969 110.981242 
L 119.036144 110.779238 
L 119.108245 110.812906 
L 119.12112 110.88024 
L 119.226696 110.610902 
L 119.234421 110.711904 
L 119.321971 110.442565 
L 119.327121 110.476232 
L 119.422397 110.37523 
L 119.553723 110.105892 
L 119.602649 110.00489 
L 119.615524 110.038557 
L 119.73655 109.668216 
L 119.739125 109.701884 
L 119.8035 109.533547 
L 119.839551 109.567214 
L 119.865301 109.49988 
L 119.952851 109.264208 
L 119.981177 109.297876 
L 119.986327 109.331543 
L 120.055852 108.8602 
L 120.061002 108.927535 
L 120.153703 108.8602 
L 120.081603 108.99487 
L 120.171728 108.893868 
L 120.207779 108.99487 
L 120.272154 108.792866 
L 120.274729 108.792866 
L 120.385455 108.557194 
L 120.38803 108.590862 
L 120.390605 108.691864 
L 120.43953 108.523527 
L 120.496181 108.557194 
L 120.617207 108.422525 
L 120.733083 108.35519 
L 120.846384 108.153186 
L 120.761408 108.388858 
L 120.848959 108.186854 
L 120.94166 108.085852 
L 121.109036 107.34517 
L 121.111611 107.378838 
L 121.175987 107.176834 
L 121.214612 107.277836 
L 121.232637 107.311503 
L 121.351088 106.907495 
L 121.363963 106.941162 
L 121.438639 106.638156 
L 121.441214 106.638156 
L 121.539065 106.436152 
L 121.461814 106.671824 
L 121.56224 106.503487 
L 121.62404 106.570822 
L 121.59829 106.436152 
L 121.665241 106.436152 
L 121.781116 106.200481 
L 121.788842 106.234148 
L 121.840342 106.301483 
L 121.884117 106.032144 
L 121.886692 106.065812 
L 121.945918 106.032144 
L 122.023168 105.931142 
L 122.056644 105.998477 
L 122.072094 106.065812 
L 122.133894 105.863808 
L 122.164795 105.931142 
L 122.290971 105.695471 
L 122.306421 105.729138 
L 122.378521 105.426132 
L 122.383671 105.4598 
L 122.507272 105.022124 
L 122.538173 105.089459 
L 122.602548 104.887455 
L 122.612848 104.921122 
L 122.677224 104.82012 
L 122.636024 104.95479 
L 122.728724 104.853788 
L 122.749324 104.921122 
L 122.7725 104.988457 
L 122.842025 104.550782 
L 122.8446 104.618116 
L 122.965626 104.012104 
L 122.973351 104.079439 
L 123.011977 104.113106 
L 123.068627 103.94477 
L 123.081502 104.045772 
L 123.158753 103.978437 
L 123.130428 104.079439 
L 123.192228 104.012104 
L 123.254029 103.94477 
L 123.331279 103.843768 
L 123.272054 103.978437 
L 123.362179 103.94477 
L 123.467755 104.214108 
L 123.483205 104.113106 
L 123.601656 103.94477 
L 123.545006 104.146774 
L 123.604231 103.978437 
L 123.617107 103.94477 
L 123.740708 103.43976 
L 123.784483 103.338758 
L 123.938984 102.732745 
L 123.944134 102.80008 
L 124.01366 102.530741 
L 124.04971 102.732745 
L 124.196486 102.261403 
L 124.206786 102.328737 
L 124.247987 102.126733 
L 124.304637 102.194068 
L 124.332962 102.093066 
L 124.438538 101.891062 
L 124.453988 101.958397 
L 124.538964 102.025731 
L 124.495189 101.857395 
L 124.556989 101.857395 
L 124.575014 101.722725 
L 124.63939 102.025731 
L 124.65999 101.958397 
L 124.69604 101.992064 
L 124.739816 101.621723 
L 124.747541 101.655391 
L 124.920067 100.78004 
L 124.943242 100.914709 
L 125.020493 100.645371 
L 125.025643 100.645371 
L 125.051393 100.544369 
L 125.113194 100.207695 
L 125.169844 100.342365 
L 125.205895 100.241363 
L 125.24967 100.039359 
L 125.319196 100.106693 
L 125.326921 100.174028 
L 125.404171 99.534349 
L 125.406746 99.534349 
L 125.473697 99.399679 
L 125.496872 99.635351 
L 125.512322 99.568016 
L 125.574123 99.837355 
L 125.517472 99.534349 
L 125.620473 99.568016 
L 125.728624 99.063006 
L 125.764674 99.130341 
L 125.8033 99.231343 
L 125.841925 99.096673 
L 125.8754 99.164008 
L 125.896 99.063006 
L 126.104577 97.716313 
L 126.107152 97.74998 
L 126.166377 97.985651 
L 126.207578 97.682645 
L 126.223028 97.817315 
L 126.243628 97.918317 
L 126.246203 97.951984 
L 126.289979 97.581643 
L 126.326029 97.615311 
L 126.385254 97.076633 
L 126.333754 97.648978 
L 126.44448 97.278637 
L 126.48053 97.446974 
L 126.514005 96.807295 
L 126.532031 94.71992 
L 126.560356 16.409699 
L 126.637606 98.692665 
L 126.779233 114.04497 
L 127.152611 121.014108 
L 127.155186 120.980441 
L 127.157761 120.946774 
L 127.206686 121.283447 
L 127.247886 121.216112 
L 127.250461 121.283447 
L 127.345737 120.980441 
L 127.348312 120.980441 
L 127.386938 120.913106 
L 127.523414 120.23976 
L 127.778341 118.354389 
L 127.780916 118.388056 
L 127.832416 117.815711 
L 127.845291 117.815711 
L 128.022968 116.031343 
L 128.033268 115.930341 
L 128.038418 115.964008 
L 128.450421 110.072224 
L 128.481322 18.968417 
L 128.566297 104.416112 
L 128.761999 114.54998 
L 129.071001 119.734749 
L 129.073576 119.667415 
L 129.155977 120.037756 
L 129.168852 120.037756 
L 129.238378 120.10509 
L 129.302753 120.172425 
L 129.336229 119.970421 
L 129.343954 120.004088 
L 129.385154 119.903086 
L 129.598881 118.556393 
L 129.601456 118.59006 
L 129.660681 118.051383 
L 129.670981 118.051383 
L 129.681281 117.950381 
L 129.990284 115.357996 
L 130.005734 115.256994 
L 130.337912 110.240561 
L 130.368812 19.237756 
L 130.451213 103.843768 
L 130.605714 112.125932 
L 130.989392 119.297074 
L 131.004842 119.263407 
L 131.071793 119.532745 
L 131.084668 119.499078 
L 131.208269 119.398076 
L 131.360195 118.825731 
L 131.36277 118.859399 
L 131.434871 118.354389 
L 131.460621 118.253387 
L 131.694948 116.637355 
L 131.700098 116.671022 
L 131.764473 116.132345 
L 131.767048 116.166012 
L 131.939575 114.54998 
L 131.96275 114.448978 
L 132.179052 111.284248 
L 132.212527 19.069419 
L 132.297503 104.382445 
L 132.477754 113.53996 
L 132.714656 118.522725 
L 132.884608 119.431743 
L 132.892333 119.398076 
L 133.036534 119.330741 
L 133.165285 118.825731 
L 133.170435 118.926733 
L 133.242536 118.489058 
L 133.250261 118.489058 
L 133.463987 117.108697 
L 133.466562 117.142365 
L 133.530938 116.536353 
L 133.533513 116.57002 
L 133.548963 116.469018 
L 133.677714 115.391663 
L 133.680289 115.425331 
L 133.74209 114.785651 
L 133.754965 114.718317 
L 133.927491 113.102285 
L 134.112893 110.307896 
L 134.138643 30.751984 
L 134.146368 19.069419 
L 134.221044 101.655391 
L 134.36782 111.418918 
L 134.743773 118.354389 
L 134.836474 118.691062 
L 134.751498 118.320721 
L 134.875099 118.623727 
L 134.99355 118.287054 
L 135.032175 118.186052 
L 135.186677 117.445371 
L 135.0399 118.219719 
L 135.194402 117.479038 
L 135.196977 117.512705 
L 135.269077 117.007695 
L 135.284527 116.940361 
L 135.426154 116.098677 
L 135.449329 115.997675 
L 135.606405 114.785651 
L 135.835582 111.149579 
L 135.869057 19.136754 
L 135.954033 103.574429 
L 136.142009 112.799279 
L 136.363461 117.209699 
L 136.373761 117.310701 
L 136.533413 118.118717 
L 136.541138 118.08505 
L 136.597788 118.051383 
L 136.551438 118.186052 
L 136.649289 118.118717 
L 136.687914 118.017715 
L 136.837265 117.479038 
L 136.842415 117.546373 
L 136.917091 117.108697 
L 136.919666 117.108697 
L 137.151418 115.526333 
L 137.161718 115.425331 
L 137.499046 112.428938 
L 137.501621 112.496273 
L 137.578871 111.688257 
L 137.581446 111.721924 
L 137.741098 110.442565 
L 137.753973 110.341563 
L 137.972849 108.893868 
L 137.975424 108.927535 
L 138.03465 108.388858 
L 138.042375 108.388858 
L 138.243227 107.210501 
L 138.250952 107.143166 
L 138.418328 105.661804 
L 138.454378 105.594469 
L 138.60373 104.44978 
L 138.606305 104.483447 
L 138.621755 104.416112 
L 138.794281 102.766413 
L 138.822606 102.665411 
L 138.884407 101.083046 
L 138.915307 17.722725 
L 138.995133 100.712705 
L 139.147059 110.37523 
L 139.471512 115.964008 
L 139.492112 115.896673 
L 139.538462 116.132345 
L 139.574513 116.06501 
L 139.654338 116.031343 
L 139.775364 115.492665 
L 139.783089 115.526333 
L 139.85004 115.021323 
L 139.86549 114.920321 
L 140.272343 111.048577 
L 140.287793 110.947575 
L 140.431995 109.600882 
L 140.43457 109.634549 
L 140.493795 108.99487 
L 140.49637 109.028537 
L 140.679197 107.143166 
L 140.692072 107.042164 
L 140.885198 104.752786 
L 140.887773 104.786453 
L 140.895498 104.719118 
L 140.931549 101.419719 
L 140.959874 17.722725 
L 141.042275 101.049379 
L 141.196776 110.476232 
L 141.384752 114.516313 
L 141.606204 115.997675 
L 141.719505 115.863006 
L 141.631954 116.031343 
L 141.72208 115.930341 
L 141.73238 115.829339 
L 141.740105 115.863006 
L 141.925507 114.751984 
L 141.930657 114.684649 
L 142.077433 113.53996 
L 142.082583 113.607295 
L 142.453386 110.173226 
L 142.455961 110.274228 
L 142.538362 109.230541 
L 142.546087 109.129539 
L 142.571837 107.311503 
L 142.605312 18.328737 
L 142.687713 101.554389 
L 142.839639 110.5099 
L 143.164092 116.098677 
L 143.171817 116.06501 
L 143.228468 116.233347 
L 143.269668 116.166012 
L 143.352069 116.098677 
L 143.47567 115.458998 
L 143.48597 115.492665 
L 143.712572 113.977635 
L 143.717722 114.011303 
L 143.776947 113.506293 
L 143.784672 113.506293 
L 144.194101 107.008497 
L 144.225001 18.194068 
L 144.307401 100.881042 
L 144.461903 110.341563 
L 144.688505 114.886653 
L 144.871331 115.896673 
L 144.873906 115.863006 
L 144.894506 115.930341 
L 144.994932 115.728337 
L 144.997507 115.795671 
L 145.095358 115.458998 
L 145.108233 115.492665 
L 145.170034 115.021323 
L 145.172609 115.05499 
L 145.314235 114.213307 
L 145.33741 114.112305 
L 145.692763 110.913908 
L 145.703063 110.812906 
L 145.893614 107.715511 
L 145.92709 17.891062 
L 146.012065 101.251383 
L 146.176867 110.610902 
L 146.478144 115.593667 
L 146.53737 115.56 
L 146.575995 115.762004 
L 146.58372 115.661002 
L 146.59402 115.694669 
L 146.663546 115.492665 
L 146.681571 115.526333 
L 146.815472 114.852986 
L 146.820622 114.886653 
L 146.890148 114.448978 
L 146.895298 114.482645 
L 147.047224 113.371623 
L 147.057524 113.337956 
L 147.196575 112.193267 
L 147.433477 108.085852 
L 147.466952 18.126733 
L 147.549353 100.914709 
L 147.698704 110.206894 
L 147.925306 114.751984 
L 148.059207 115.526333 
L 148.064357 115.492665 
L 148.154483 115.458998 
L 148.069507 115.56 
L 148.169933 115.56 
L 148.224009 115.526333 
L 148.345035 114.987655 
L 148.34761 115.05499 
L 148.437735 114.516313 
L 148.44546 114.54998 
L 148.512411 114.112305 
L 148.517561 114.112305 
L 148.533011 114.04497 
L 148.687512 112.866613 
L 148.695237 112.799279 
L 148.854889 111.486253 
L 148.860039 111.418918 
L 149.02484 109.971222 
L 149.037715 109.87022 
L 149.127841 107.547174 
L 149.161316 17.756393 
L 149.243717 100.443367 
L 149.395643 109.971222 
L 149.617095 114.650982 
L 149.62482 114.617315 
L 149.748421 115.088657 
L 149.750996 115.05499 
L 149.910647 114.987655 
L 149.915797 115.021323 
L 150.044549 114.347976 
L 150.067724 114.246974 
L 150.278875 112.900281 
L 150.28145 112.933948 
L 150.350976 112.395271 
L 150.366426 112.361603 
L 150.500327 111.115912 
L 150.520927 111.01491 
L 150.670279 109.903888 
L 150.672854 109.937555 
L 151.012756 105.628136 
L 151.046232 17.722725 
L 151.128632 100.477034 
L 151.275409 108.893868 
L 151.277984 108.8602 
L 151.463385 112.832946 
L 151.651362 113.842966 
L 151.736337 113.775631 
L 151.767238 113.809299 
L 151.857363 113.438958 
L 151.872814 113.506293 
L 151.937189 113.03495 
L 151.939764 113.068617 
L 152.158641 111.620922 
L 152.166366 111.688257 
L 152.230741 111.115912 
L 152.233317 111.149579 
L 152.516569 106.671824 
L 152.550044 17.689058 
L 152.632445 99.77002 
L 152.781796 109.49988 
L 152.974923 113.842966 
L 152.980073 113.809299 
L 153.052173 114.280641 
L 153.054748 114.246974 
L 153.144874 114.516313 
L 153.170624 114.448978 
L 153.304525 114.078637 
L 153.3071 114.112305 
L 153.31225 114.145972 
L 153.389501 113.809299 
L 153.394651 113.809299 
L 153.417826 113.741964 
L 153.559452 112.866613 
L 153.562027 112.900281 
L 153.628978 112.395271 
L 153.631553 112.428938 
L 153.796354 110.981242 
L 153.814379 110.88024 
L 153.81953 110.913908 
L 154.035831 107.075832 
L 154.069307 17.588056 
L 154.151707 99.669018 
L 154.303634 109.432545 
L 154.52766 113.943968 
L 154.54311 114.011303 
L 154.661561 114.381643 
L 154.679587 114.448978 
L 154.813488 113.842966 
L 154.841813 113.775631 
L 154.978289 113.068617 
L 154.980864 113.135952 
L 155.063265 112.630942 
L 155.07099 112.630942 
L 155.282142 111.284248 
L 155.284717 111.317916 
L 155.351667 110.779238 
L 155.354242 110.812906 
L 155.629769 108.658196 
L 155.65037 108.557194 
L 155.887272 106.84016 
L 155.889847 106.907495 
L 155.969672 106.200481 
L 156.111298 105.392465 
L 156.116448 105.426132 
L 156.188549 105.123126 
L 156.201424 105.123126 
L 156.209149 105.022124 
L 156.425451 102.025731 
L 156.458926 16.847375 
L 156.538752 98.322325 
L 156.685528 107.715511 
L 156.87093 111.721924 
L 156.878655 111.688257 
L 156.94303 112.193267 
L 157.051181 112.496273 
L 157.071781 112.428938 
L 157.133582 112.361603 
L 157.275208 111.553587 
L 157.285508 111.587255 
L 157.352459 111.115912 
L 157.367909 111.01491 
L 157.609961 109.230541 
L 157.612536 109.297876 
L 157.687211 108.456192 
L 157.689786 108.456192 
L 157.774762 106.537154 
L 157.808237 17.049379 
L 157.893213 99.164008 
L 158.047714 109.49988 
L 158.305216 113.506293 
L 158.310366 113.472625 
L 158.351567 113.640962 
L 158.328392 113.438958 
L 158.426242 113.53996 
L 158.431392 113.573627 
L 158.596194 112.765611 
L 158.614219 112.698277 
L 158.76872 111.51992 
L 158.771295 111.587255 
L 158.853696 110.947575 
L 158.858846 111.01491 
L 159.018497 109.701884 
L 159.033947 109.634549 
L 159.183299 104.651784 
L 159.214199 17.150381 
L 159.2966 98.322325 
L 159.445951 108.893868 
L 159.615902 112.765611 
L 159.618477 112.731944 
L 159.680278 113.270621 
L 159.693153 113.203287 
L 159.829629 113.607295 
L 159.832204 113.573627 
L 159.94808 113.337956 
L 159.837354 113.607295 
L 159.950655 113.371623 
L 160.118031 112.52994 
L 160.120606 112.563607 
L 160.123181 112.597275 
L 160.190132 112.125932 
L 160.195282 112.159599 
L 160.329183 111.250581 
L 160.339483 111.284248 
L 160.401284 110.779238 
L 160.403859 110.779238 
L 160.419309 110.678236 
L 160.55321 109.769218 
L 160.681961 107.446172 
L 160.718011 17.217715 
L 160.802987 99.669018 
L 160.967788 109.49988 
L 161.15834 113.001283 
L 161.166065 112.933948 
L 161.284516 113.472625 
L 161.294816 113.438958 
L 161.444167 112.933948 
L 161.446742 112.967615 
L 161.518843 112.496273 
L 161.521418 112.496273 
L 161.709394 111.486253 
L 161.73772 111.385251 
L 161.887071 110.341563 
L 161.899946 110.240561 
L 162.105948 108.961202 
L 162.108523 108.99487 
L 162.172898 108.422525 
L 162.175473 108.422525 
L 162.301649 106.436152 
L 162.329974 24.523527 
L 162.337699 16.78004 
L 162.402075 90.477836 
L 162.538551 107.277836 
L 162.698202 111.284248 
L 162.700777 111.250581 
L 162.754853 111.991263 
L 162.770303 112.092265 
L 162.891329 112.428938 
L 163.002055 112.193267 
L 163.007205 112.226934 
L 163.166856 111.587255 
L 163.192606 111.486253 
L 163.408908 110.105892 
L 163.437233 110.00489 
L 163.66641 108.422525 
L 163.668985 108.456192 
L 163.723061 107.715511 
L 163.733361 103.170421 
L 163.764261 16.679038 
L 163.846662 97.379639 
L 163.993438 107.883848 
L 164.274115 112.361603 
L 164.28184 112.294269 
L 164.330766 112.496273 
L 164.382266 112.395271 
L 164.387416 112.428938 
L 164.474967 112.159599 
L 164.503292 112.092265 
L 164.639768 111.418918 
L 164.680969 111.317916 
L 164.874095 110.139559 
L 164.879245 110.173226 
L 164.88182 110.206894 
L 164.941046 109.533547 
L 164.943621 109.567214 
L 164.971946 109.466212 
L 165.110997 108.658196 
L 165.113572 108.691864 
L 165.175373 108.085852 
L 165.177948 108.085852 
L 165.371074 106.97483 
L 165.376224 107.008497 
L 165.4406 106.503487 
L 165.443175 106.537154 
L 165.569351 105.796473 
L 165.571926 105.83014 
L 165.589951 105.796473 
L 165.710977 105.32513 
L 165.718702 105.392465 
L 165.793378 104.853788 
L 165.801103 104.853788 
L 165.953029 104.281443 
L 165.955604 104.31511 
L 166.00453 103.94477 
L 166.038005 103.978437 
L 166.246582 102.665411 
L 166.249157 102.699078 
L 166.328982 102.29507 
L 166.349582 102.194068 
L 166.589059 100.477034 
L 166.591634 100.510701 
L 166.65601 99.972024 
L 166.658585 99.972024 
L 166.70236 100.005691 
L 166.805361 99.467014 
L 166.846561 99.568016 
L 166.895487 99.298677 
L 166.905787 99.332345 
L 167.078313 98.490661 
L 167.080888 98.524329 
L 167.127239 97.817315 
L 167.137539 97.918317 
L 167.274015 96.874629 
L 167.392466 96.066613 
L 167.433666 96.201283 
L 167.456841 96.403287 
L 167.492892 96.032946 
L 167.536667 96.032946 
L 167.559842 95.931944 
L 167.716919 95.325932 
L 167.732369 95.22493 
L 167.737519 95.258597 
L 167.778719 93.777234 
L 167.799319 37.855792 
L 167.812194 14.76 
L 167.894595 94.383246 
L 168.036221 105.729138 
L 168.231923 109.062204 
L 168.252523 109.129539 
L 168.291148 109.297876 
L 168.363249 109.163206 
L 168.504875 108.35519 
L 168.723752 106.941162 
L 168.739202 106.873828 
L 168.878253 105.762806 
L 168.883403 105.796473 
L 168.937479 105.257796 
L 168.942629 105.257796 
L 169.030179 98.625331 
L 169.06108 15.568016 
L 169.140905 94.71992 
L 169.282531 106.638156 
L 169.444758 110.072224 
L 169.457633 110.173226 
L 169.596684 110.610902 
L 169.599259 110.577234 
L 169.668785 110.5099 
L 169.800111 109.971222 
L 169.807836 110.038557 
L 169.872211 109.533547 
L 170.029288 108.254188 
L 170.031863 108.287856 
L 170.098813 107.715511 
L 170.29709 103.978437 
L 170.330565 16.342365 
L 170.415541 96.032946 
L 170.564892 107.143166 
L 170.858444 110.947575 
L 170.940845 110.610902 
L 170.97432 110.5099 
L 171.144272 109.735551 
L 171.170022 109.634549 
L 171.319373 108.48986 
L 171.321948 108.523527 
L 171.342548 108.422525 
L 171.561425 104.247776 
L 171.5949 16.342365 
L 171.677301 95.426934 
L 171.824077 106.873828 
L 171.999179 110.240561 
L 172.120205 110.846573 
L 172.15368 110.812906 
L 172.266981 110.610902 
L 172.274706 110.678236 
L 172.339082 110.240561 
L 172.349382 110.274228 
L 172.568258 108.792866 
L 172.570833 108.826533 
L 172.586284 108.725531 
L 172.830911 106.941162 
L 172.833486 106.97483 
L 172.910736 106.537154 
L 172.921036 106.46982 
L 173.039487 103.237756 
L 173.072963 16.005691 
L 173.155363 95.494269 
L 173.302139 106.301483 
L 173.30729 106.402485 
L 173.505566 109.87022 
L 173.539041 109.971222 
L 173.631742 110.307896 
L 173.544191 109.937555 
L 173.657492 110.240561 
L 173.672943 110.307896 
L 173.786243 110.00489 
L 173.788818 110.072224 
L 173.878944 109.533547 
L 173.896969 109.432545 
L 174.087521 108.35519 
L 174.090096 108.388858 
L 174.159622 107.85018 
L 174.399098 104.012104 
L 174.435149 16.409699 
L 174.517549 95.628938 
L 174.672051 106.772826 
L 174.677201 106.873828 
L 174.865177 110.038557 
L 174.867752 109.971222 
L 174.942428 110.408898 
L 174.963028 110.37523 
L 175.009379 110.408898 
L 175.048004 110.274228 
L 175.066029 110.307896 
L 175.071179 110.341563 
L 175.23083 109.600882 
L 175.233405 109.634549 
L 175.305506 109.163206 
L 175.483182 108.119519 
L 175.490907 108.186854 
L 175.498633 108.085852 
L 175.714934 106.671824 
L 175.717509 106.705491 
L 175.78961 106.267816 
L 175.79476 106.267816 
L 175.82051 106.166814 
L 176.034237 104.82012 
L 176.049687 104.752786 
L 176.062562 104.786453 
L 176.178438 104.247776 
L 176.181013 104.281443 
L 176.250539 103.8101 
L 176.258264 103.843768 
L 176.278864 103.742766 
L 176.44109 103.035752 
L 176.443665 103.069419 
L 176.520916 102.631743 
L 176.523491 102.665411 
L 176.549241 102.564409 
L 176.672842 102.194068 
L 176.698592 102.126733 
L 176.837644 101.352385 
L 176.855669 101.28505 
L 176.98957 100.645371 
L 177.002445 100.544369 
L 177.180121 97.682645 
L 177.213597 15.029339 
L 177.293422 92.800882 
L 177.437623 104.651784 
L 177.674525 107.98485 
L 177.780101 107.883848 
L 177.785251 107.917515 
L 177.957778 106.97483 
L 177.960353 107.042164 
L 178.053053 106.570822 
L 178.068504 106.503487 
L 178.21528 105.493467 
L 178.217855 105.527134 
L 178.274505 104.887455 
L 178.27708 104.887455 
L 178.356906 100.948377 
L 178.390381 15.500681 
L 178.472782 93.642565 
L 178.616983 105.089459 
L 178.869335 108.826533 
L 178.982636 108.624529 
L 178.88736 108.8602 
L 178.992936 108.658196 
L 179.031562 108.557194 
L 179.186063 107.883848 
L 179.191213 107.917515 
L 179.211813 107.816513 
L 179.402365 106.705491 
L 179.40494 106.739158 
L 179.417815 106.638156 
L 179.639267 105.156794 
L 179.641842 105.190461 
L 179.703642 104.719118 
L 179.716517 104.719118 
L 179.950844 101.655391 
L 179.986894 15.433347 
L 180.069295 94.450581 
L 180.210921 105.022124 
L 180.383448 108.254188 
L 180.398898 108.186854 
L 180.468423 108.523527 
L 180.478723 108.388858 
L 180.525074 108.456192 
L 180.573999 108.287856 
L 180.584299 108.321523 
L 180.756826 107.513507 
L 180.759401 107.547174 
L 180.836651 107.176834 
L 180.841801 107.176834 
L 181.070978 105.560802 
L 181.073553 105.594469 
L 181.104454 105.527134 
L 181.168829 101.453387 
L 181.202304 15.77002 
L 181.284705 93.373226 
L 181.428906 105.32513 
L 181.668383 108.759198 
L 181.735334 108.725531 
L 181.768809 108.893868 
L 181.771384 108.826533 
L 181.773959 108.8602 
L 181.853785 108.523527 
L 181.858935 108.557194 
L 182.023736 107.85018 
L 182.026311 107.883848 
L 182.098412 107.446172 
L 182.100987 107.446172 
L 182.240038 106.570822 
L 182.242613 106.604489 
L 182.260638 106.537154 
L 182.409989 105.493467 
L 182.417714 105.527134 
L 182.479515 105.224128 
L 182.49754 105.224128 
L 182.765342 101.655391 
L 182.798817 15.534349 
L 182.883793 94.181242 
L 183.027994 104.651784 
L 183.254596 107.715511 
L 183.257171 107.681844 
L 183.306097 107.917515 
L 183.355022 107.782846 
L 183.419398 107.917515 
L 183.455448 107.681844 
L 183.460598 107.749178 
L 183.589349 107.277836 
L 183.615099 107.176834 
L 183.75415 106.436152 
L 184.034828 102.29507 
L 184.070878 15.534349 
L 184.153279 93.002886 
L 184.29748 104.416112 
L 184.488031 107.681844 
L 184.490606 107.648176 
L 184.609057 107.883848 
L 184.611632 107.85018 
L 184.737808 107.446172 
L 184.750683 107.412505 
L 184.871709 106.84016 
L 184.874284 106.907495 
L 185.075136 105.729138 
L 185.103461 105.661804 
L 185.116336 105.695471 
L 185.221912 105.224128 
L 185.368689 104.618116 
L 185.373839 104.651784 
L 185.376414 104.685451 
L 185.451089 104.214108 
L 185.461389 104.146774 
L 185.525765 101.621723 
L 185.561815 15.669018 
L 185.644216 93.036553 
L 185.788417 104.281443 
L 186.105145 107.446172 
L 186.130895 107.378838 
L 186.246771 107.075832 
L 186.15407 107.446172 
L 186.249346 107.109499 
L 186.251921 107.143166 
L 186.326596 106.671824 
L 186.329171 106.739158 
L 186.470798 105.931142 
L 186.473373 105.96481 
L 186.542898 105.4598 
L 186.545473 105.4598 
L 186.566073 105.358798 
L 186.705125 104.786453 
L 186.718 104.82012 
L 186.730875 104.719118 
L 186.924001 103.641764 
L 186.960052 103.540762 
L 187.109403 103.035752 
L 187.114553 103.069419 
L 187.191804 102.665411 
L 187.230429 102.564409 
L 187.441581 98.423327 
L 187.475056 14.827335 
L 187.554882 91.757194 
L 187.693933 103.271423 
L 187.93341 106.705491 
L 188.03126 106.671824 
L 188.00036 106.84016 
L 188.041561 106.739158 
L 188.062161 106.638156 
L 188.219237 106.032144 
L 188.242412 105.96481 
L 188.381463 105.224128 
L 188.59519 102.126733 
L 188.63124 15.26501 
L 188.716216 92.767214 
L 188.857842 104.045772 
L 189.081869 107.075832 
L 189.141095 107.042164 
L 189.15397 107.210501 
L 189.187445 107.143166 
L 189.19517 107.176834 
L 189.262121 106.873828 
L 189.280146 106.907495 
L 189.457822 106.032144 
L 189.473272 105.931142 
L 189.604598 105.4598 
L 189.614898 105.493467 
L 189.617473 105.560802 
L 189.702449 104.95479 
L 189.903301 103.675431 
L 189.908451 103.709098 
L 189.918751 103.709098 
L 190.039777 103.103086 
L 190.052652 103.136754 
L 190.111877 102.598076 
L 190.114453 102.631743 
L 190.220028 100.376032 
L 190.256079 14.962004 
L 190.338479 91.891864 
L 190.480106 103.204088 
L 190.660357 106.133146 
L 190.662932 106.099479 
L 190.665507 106.065812 
L 190.729883 106.301483 
L 190.760783 106.234148 
L 190.763358 106.301483 
L 190.861209 105.998477 
L 190.863784 105.96481 
L 190.98996 128.050581 
L 191.229437 134.88505 
L 191.234587 134.88505 
L 191.365913 136.130741 
L 191.368488 136.097074 
L 191.504964 136.871423 
L 191.507539 136.837756 
L 191.543589 136.804088 
L 191.597665 137.03976 
L 191.60024 137.03976 
L 191.713541 137.309098 
L 191.60539 137.006092 
L 191.726416 137.241764 
L 191.739291 137.309098 
L 191.754741 137.275431 
L 191.855167 137.477435 
L 191.937567 137.443768 
L 191.950443 137.612104 
L 191.960743 137.511102 
L 192.012243 137.679439 
L 192.074044 137.612104 
L 192.169319 137.54477 
L 192.177044 137.679439 
L 192.182194 137.645772 
L 192.390771 137.578437 
L 192.506647 137.309098 
L 192.509222 137.342766 
L 192.527247 137.477435 
L 192.622523 137.4101 
L 192.697199 137.309098 
L 192.735824 137.477435 
L 192.833675 137.376433 
L 192.84655 137.443768 
L 192.849125 137.477435 
L 192.88775 137.309098 
L 192.952126 137.4101 
L 192.977876 137.443768 
L 193.075727 137.241764 
L 193.181303 137.275431 
L 193.116927 137.174429 
L 193.183878 137.208096 
L 193.258553 137.107094 
L 193.299754 136.972425 
L 193.266278 137.140762 
L 193.369279 137.03976 
L 193.46713 137.241764 
L 193.485155 137.208096 
L 193.48773 137.107094 
L 193.557256 137.309098 
L 193.595881 137.208096 
L 193.709182 137.4101 
L 193.716907 137.342766 
L 193.827633 137.208096 
L 193.830208 137.241764 
L 193.910034 137.174429 
L 194.007884 137.03976 
L 193.966684 137.208096 
L 194.023335 137.073427 
L 194.08771 136.972425 
L 194.177836 136.90509 
L 194.126335 137.073427 
L 194.201011 136.938758 
L 194.435338 136.871423 
L 194.543489 136.770421 
L 194.504864 136.938758 
L 194.546064 136.804088 
L 194.571814 136.871423 
L 194.600139 136.703086 
L 194.654215 136.736754 
L 195.218144 136.635752 
L 195.33402 136.501082 
L 195.521997 136.433747 
L 195.540022 136.467415 
L 195.632723 136.366413 
L 195.643023 136.433747 
L 195.727999 136.231743 
L 195.733149 136.231743 
L 195.8619 136.164409 
L 195.869625 136.097074 
L 195.962326 136.265411 
L 195.970051 136.198076 
L 195.985501 136.130741 
L 196.078201 136.063407 
L 196.003526 136.164409 
L 196.093652 136.130741 
L 196.181202 136.198076 
L 196.111677 136.029739 
L 196.204378 136.130741 
L 196.268753 136.130741 
L 196.327979 135.928737 
L 196.382054 135.996072 
L 196.387204 136.063407 
L 196.454155 135.928737 
L 196.490205 135.962405 
L 196.531405 135.89507 
L 196.541705 136.029739 
L 196.600931 135.962405 
L 196.714232 135.827735 
L 196.606081 135.996072 
L 196.716807 135.89507 
L 197.048984 135.794068 
L 197.08761 135.726733 
L 197.141685 135.928737 
L 197.151985 135.89507 
L 197.17001 135.861403 
L 197.206061 135.760401 
L 197.221511 135.89507 
L 197.280736 135.861403 
L 197.404337 135.760401 
L 197.494463 135.693066 
L 197.435238 135.794068 
L 197.517638 135.726733 
L 197.607764 135.794068 
L 197.582014 135.592064 
L 197.625789 135.693066 
L 197.746815 135.39006 
L 198.259244 135.356393 
L 198.295295 135.39006 
L 198.372545 135.188056 
L 198.400871 135.255391 
L 198.429196 135.087054 
L 198.483271 135.221723 
L 198.570822 134.986052 
L 198.604297 135.053387 
L 198.630047 135.087054 
L 198.689273 134.918717 
L 198.709873 135.019719 
L 198.825749 134.851383 
L 198.828324 134.918717 
L 198.836049 134.817715 
L 198.931325 134.750381 
L 198.864374 134.918717 
L 198.94935 134.784048 
L 199.186252 134.716713 
L 199.299553 134.548377 
L 199.397404 134.649379 
L 199.387104 134.481042 
L 199.407704 134.514709 
L 199.54418 134.413707 
L 199.551905 134.481042 
L 199.654906 134.346373 
L 199.737307 134.481042 
L 199.763057 134.312705 
L 199.765632 134.346373 
L 199.770782 134.312705 
L 199.806832 134.514709 
L 199.866058 134.447375 
L 199.958758 134.548377 
L 199.881508 134.413707 
L 199.981934 134.514709 
L 200.084934 134.413707 
L 200.20081 134.279038 
L 200.203385 134.312705 
L 200.21626 134.279038 
L 200.298661 134.077034 
L 200.329561 134.144369 
L 200.435137 134.009699 
L 200.445437 134.043367 
L 200.486638 133.976032 
L 200.561313 134.110701 
L 200.571613 134.144369 
L 200.690064 133.87503 
L 200.72354 133.942365 
L 200.76474 133.807695 
L 200.798215 133.841363 
L 200.932116 133.740361 
L 200.960442 133.807695 
L 201.047992 133.639359 
L 201.073742 133.706693 
L 201.102068 133.538357 
L 201.156143 133.639359 
L 201.163868 133.572024 
L 201.187043 133.706693 
L 201.266869 133.605691 
L 201.38017 133.706693 
L 201.292619 133.572024 
L 201.382745 133.673026 
L 201.483171 133.572024 
L 201.454846 133.774028 
L 201.493471 133.605691 
L 201.586172 133.706693 
L 201.606772 133.639359 
L 201.702048 133.504689 
L 201.619647 133.673026 
L 201.725223 133.538357 
L 201.830799 133.504689 
L 201.856549 133.538357 
L 201.9441 133.403687 
L 202.008475 133.37002 
L 202.072851 133.269018 
L 202.108901 133.437355 
L 202.116626 133.37002 
L 202.211902 133.437355 
L 202.124351 133.302685 
L 202.227352 133.403687 
L 202.281427 133.302685 
L 202.291727 133.504689 
L 202.338078 133.403687 
L 202.719181 133.302685 
L 202.827332 133.201683 
L 202.757806 133.37002 
L 202.832482 133.235351 
L 202.847932 133.201683 
L 202.943208 133.302685 
L 203.020458 133.168016 
L 203.056509 133.235351 
L 203.102859 133.168016 
L 203.105434 133.100681 
L 203.144059 133.269018 
L 203.213585 133.168016 
L 203.290836 133.134349 
L 203.22131 133.269018 
L 203.319161 133.235351 
L 203.417012 133.168016 
L 203.522588 132.932345 
L 203.532888 133.033347 
L 203.579238 132.898677 
L 203.648764 132.966012 
L 203.947466 132.86501 
L 203.960341 132.898677 
L 204.063342 132.764008 
L 204.091667 132.831343 
L 204.125143 132.663006 
L 204.174068 132.764008 
L 204.282219 132.629339 
L 204.212693 132.797675 
L 204.287369 132.696673 
L 204.40582 132.528337 
L 204.408395 132.562004 
L 204.42127 132.696673 
L 204.44702 132.528337 
L 204.516546 132.562004 
L 204.550021 132.595671 
L 204.632422 132.427335 
L 204.694222 132.562004 
L 204.743148 132.427335 
L 204.750873 132.528337 
L 204.794648 131.652986 
L 204.799798 131.585651 
L 204.925974 130.811303 
L 204.938849 130.84497 
L 205.070175 130.945972 
L 205.191201 131.248978 
L 205.193776 131.215311 
L 205.271027 131.417315 
L 205.294202 131.34998 
L 205.335402 131.450982 
L 205.343128 131.484649 
L 205.399778 130.878637 
L 205.525954 130.474629 
L 205.654705 130.710301 
L 205.65728 130.642966 
L 205.734531 130.945972 
L 205.757706 130.878637 
L 205.780881 130.979639 
L 205.919932 131.34998 
L 205.968858 131.417315 
L 206.077009 131.686653 
L 206.087309 131.652986 
L 206.115634 131.551984 
L 206.192885 131.720321 
L 206.198035 131.619319 
L 206.311335 131.753988 
L 206.339661 131.652986 
L 206.378286 131.821323 
L 206.422061 131.753988 
L 206.527637 131.821323 
L 206.628063 131.888657 
L 206.566263 131.720321 
L 206.638363 131.85499 
L 206.676989 131.922325 
L 206.772264 131.551984 
L 206.828915 131.619319 
L 206.839215 131.484649 
L 206.88299 131.551984 
L 207.222893 131.518317 
L 207.225468 131.417315 
L 207.331044 131.585651 
L 207.336194 131.619319 
L 207.392844 130.945972 
L 207.395419 130.979639 
L 207.51387 130.676633 
L 207.521595 130.777635 
L 207.755922 130.811303 
L 207.866648 131.013307 
L 207.869223 130.945972 
L 207.918149 131.013307 
L 208.028875 131.215311 
L 208.034025 131.181643 
L 208.100975 131.282645 
L 208.224576 131.551984 
L 208.227151 131.518317 
L 208.229726 131.484649 
L 208.288952 131.652986 
L 208.327577 131.619319 
L 208.407403 131.720321 
L 208.340452 131.551984 
L 208.440878 131.652986 
L 208.541304 131.585651 
L 208.64173 131.518317 
L 208.551604 131.619319 
L 208.65203 131.585651 
L 208.664905 131.551984 
L 208.773056 131.720321 
L 208.819406 131.619319 
L 208.997083 130.676633 
L 208.999658 130.710301 
L 209.046008 130.743968 
L 209.066608 130.609299 
L 209.107808 130.676633 
L 209.149009 130.743968 
L 209.182484 130.811303 
L 209.203084 130.676633 
L 209.259735 130.777635 
L 209.31381 129.498277 
L 209.342135 52.097074 
L 209.352435 25.129539 
L 209.439986 108.388858 
L 209.815939 125.828537 
L 210.46742 132.898677 
L 210.475145 132.831343 
L 210.557545 133.168016 
L 210.56012 133.134349 
L 210.56527 133.100681 
L 210.683721 133.471022 
L 210.686296 133.37002 
L 210.776422 133.605691 
L 210.791872 133.572024 
L 210.905173 133.471022 
L 210.825348 133.639359 
L 210.907748 133.504689 
L 211.046799 133.403687 
L 211.16525 133.269018 
L 211.209026 133.302685 
L 211.265676 133.201683 
L 211.273401 133.269018 
L 211.391852 133.033347 
L 211.404727 133.033347 
L 211.407302 133.168016 
L 211.456228 132.932345 
L 211.512878 132.966012 
L 211.73433 132.86501 
L 211.839906 132.629339 
L 211.747205 132.932345 
L 211.852781 132.663006 
L 211.873381 132.764008 
L 211.863081 132.629339 
L 211.960932 132.663006 
L 211.986682 132.696673 
L 212.074233 132.595671 
L 212.166934 132.696673 
L 212.169509 132.528337 
L 212.182384 132.562004 
L 212.40126 132.461002 
L 212.519711 132.292665 
L 212.424436 132.494669 
L 212.522286 132.326333 
L 212.604687 132.393667 
L 212.532587 132.258998 
L 212.630437 132.292665 
L 212.653613 132.191663 
L 212.679363 132.36 
L 212.738588 132.292665 
L 212.741163 132.36 
L 212.833864 132.191663 
L 212.846739 132.225331 
L 213.083641 132.124329 
L 213.196942 131.955992 
L 213.101666 132.157996 
L 213.204667 131.989659 
L 213.384919 131.955992 
L 213.511095 131.080641 
L 213.516245 131.147976 
L 213.747997 131.046974 
L 213.856147 131.013307 
L 213.763447 131.147976 
L 213.858722 131.046974 
L 213.928248 131.080641 
L 213.938548 131.215311 
L 214.038974 131.147976 
L 214.067299 131.080641 
L 214.1394 131.282645 
L 214.141975 131.248978 
L 214.505053 131.147976 
L 214.546253 131.080641 
L 214.515353 131.215311 
L 214.618354 131.114309 
L 214.677579 131.080641 
L 214.752255 130.912305 
L 214.79088 130.979639 
L 214.906756 131.114309 
L 215.249234 131.215311 
L 215.298159 131.282645 
L 215.282709 131.147976 
L 215.35996 131.248978 
L 215.43206 131.282645 
L 215.473261 131.147976 
L 215.504161 131.215311 
L 215.594287 131.282645 
L 215.524761 131.181643 
L 215.612312 131.181643 
L 215.663812 131.248978 
L 215.666387 131.316313 
L 215.720463 131.147976 
L 215.771963 131.215311 
L 215.921314 131.147976 
L 216.019165 131.181643 
L 216.03204 131.080641 
L 216.04749 131.114309 
L 216.124741 130.878637 
L 216.129891 130.945972 
L 216.248342 130.777635 
L 216.142766 130.979639 
L 216.250917 130.811303 
L 216.747896 130.912305 
L 216.801972 131.046974 
L 216.763346 130.878637 
L 216.858622 130.945972 
L 216.876647 131.046974 
L 216.971923 130.84497 
L 217.059474 130.979639 
L 217.085224 130.912305 
L 217.090374 130.84497 
L 217.110974 130.979639 
L 217.193375 130.945972 
L 217.250025 130.84497 
L 217.342726 130.743968 
L 217.2732 130.878637 
L 217.363326 130.811303 
L 217.373626 130.912305 
L 217.407102 130.743968 
L 217.471477 130.777635 
L 217.600228 130.710301 
L 217.710954 130.541964 
L 217.613103 130.777635 
L 217.716104 130.575631 
L 217.78048 130.474629 
L 217.870605 130.373627 
L 217.83198 130.508297 
L 217.891206 130.474629 
L 217.934981 130.508297 
L 217.978756 130.373627 
L 217.994206 130.373627 
L 218.099782 130.373627 
L 218.184758 130.205291 
L 218.210508 130.272625 
L 218.290334 130.33996 
L 218.264584 130.171623 
L 218.318659 130.306293 
L 218.42681 130.171623 
L 218.429385 130.272625 
L 218.643112 130.171623 
L 218.671437 130.104289 
L 218.740963 130.272625 
L 218.748688 130.205291 
L 218.787313 130.272625 
L 218.854263 130.137956 
L 219.03194 130.070621 
L 219.04739 129.969619 
L 219.07829 130.171623 
L 219.142666 130.003287 
L 219.230217 130.070621 
L 219.173566 129.935952 
L 219.255967 130.036954 
L 219.361543 129.868617 
L 219.376993 129.902285 
L 219.389868 129.868617 
L 219.492869 129.969619 
L 219.513469 129.868617 
L 219.562394 130.036954 
L 219.603595 129.935952 
L 219.619045 129.902285 
L 219.719471 130.003287 
L 219.778696 130.070621 
L 219.830196 129.969619 
L 219.879122 130.036954 
L 219.904872 129.902285 
L 219.938347 130.003287 
L 220.046498 129.868617 
L 220.051648 129.935952 
L 220.167524 129.868617 
L 220.182974 129.801283 
L 220.2422 129.935952 
L 220.27825 129.868617 
L 220.345201 129.969619 
L 220.306575 129.83495 
L 220.388976 129.868617 
L 220.417301 129.969619 
L 220.401851 129.83495 
L 220.499702 129.868617 
L 220.610428 129.767615 
L 220.504852 129.935952 
L 220.613003 129.801283 
L 220.667078 129.700281 
L 220.770079 129.599279 
L 220.697979 129.733948 
L 220.777804 129.632946 
L 220.891105 129.733948 
L 220.89368 129.700281 
L 221.068782 129.733948 
L 221.071357 129.83495 
L 221.148607 129.666613 
L 221.176933 129.767615 
L 221.182083 129.801283 
L 221.290233 129.666613 
L 221.346884 129.733948 
L 221.364909 129.632946 
L 221.400959 129.700281 
L 221.47821 129.632946 
L 221.45246 129.733948 
L 221.511685 129.700281 
L 221.697087 129.632946 
L 221.709962 129.700281 
L 221.807813 129.531944 
L 221.885063 129.632946 
L 221.851588 129.498277 
L 221.915964 129.531944 
L 222.02669 129.430942 
L 221.954589 129.565611 
L 222.03184 129.464609 
L 222.05244 129.565611 
L 222.101365 129.363607 
L 222.142565 129.464609 
L 222.250716 129.430942 
L 222.168316 129.498277 
L 222.253291 129.464609 
L 222.322817 129.397275 
L 222.428393 129.296273 
L 222.433543 129.363607 
L 222.526244 129.464609 
L 222.448993 129.296273 
L 222.541694 129.363607 
L 222.649845 129.161603 
L 222.546844 129.397275 
L 222.660145 129.228938 
L 222.665295 129.262605 
L 222.706495 129.127936 
L 222.768296 129.195271 
L 222.799196 129.228938 
L 222.884172 129.127936 
L 223.2421 129.228938 
L 223.265275 129.161603 
L 223.3554 129.262605 
L 223.455826 129.094269 
L 223.373426 129.32994 
L 223.473851 129.127936 
L 223.509902 129.195271 
L 223.558827 129.026934 
L 223.582002 129.094269 
L 223.731354 128.993267 
L 223.800879 128.925932 
L 223.751954 129.060601 
L 223.836929 128.959599 
L 223.921905 129.094269 
L 223.947655 129.026934 
L 224.094432 128.959599 
L 224.122757 129.026934 
L 224.205157 128.892265 
L 224.261808 128.959599 
L 224.218033 128.858597 
L 224.315883 128.892265 
L 224.426609 128.791263 
L 224.429184 128.757595 
L 224.49871 128.925932 
L 224.532185 128.858597 
L 224.648061 129.060601 
L 224.578535 128.82493 
L 224.655786 129.026934 
L 224.694411 128.959599 
L 224.725312 129.127936 
L 224.763937 129.094269 
L 224.874663 128.925932 
L 224.882388 128.993267 
L 224.926163 128.892265 
L 224.990539 128.791263 
L 225.005989 128.925932 
L 225.042039 128.82493 
L 225.106415 128.858597 
L 225.116715 128.723928 
L 225.14504 128.757595 
L 225.260916 128.589259 
L 225.443743 128.488257 
L 225.541593 128.387255 
L 225.554468 128.454589 
L 225.665194 128.555591 
L 225.590519 128.387255 
L 225.667769 128.521924 
L 225.827421 128.454589 
L 225.848021 128.286253 
L 225.940722 128.387255 
L 225.963897 128.488257 
L 226.038572 128.151583 
L 226.043723 128.185251 
L 226.131273 127.949579 
L 226.162173 127.983246 
L 226.218824 127.949579 
L 226.177624 128.084248 
L 226.267749 128.050581 
L 226.357875 128.117916 
L 226.290925 127.949579 
L 226.378475 128.050581 
L 226.435126 128.117916 
L 226.548427 128.286253 
L 226.445426 128.084248 
L 226.551002 128.252585 
L 226.563877 128.286253 
L 226.674603 128.084248 
L 226.749278 128.185251 
L 226.764728 128.050581 
L 226.782754 128.084248 
L 226.870304 128.050581 
L 226.816229 128.185251 
L 226.888329 128.117916 
L 227.004205 128.31992 
L 226.95013 128.084248 
L 227.009355 128.252585 
L 227.060856 128.218918 
L 227.073731 128.353587 
L 227.114931 128.31992 
L 227.498609 128.252585 
L 227.593885 128.151583 
L 227.511485 128.286253 
L 227.609335 128.252585 
L 227.730361 128.050581 
L 227.735511 128.117916 
L 227.756112 127.983246 
L 227.838512 127.983246 
L 227.871988 128.117916 
L 227.954388 128.050581 
L 228.013614 127.949579 
L 228.072839 128.016914 
L 228.12434 127.915912 
L 228.22219 128.016914 
L 228.23249 127.882244 
L 228.237641 127.983246 
L 228.356091 127.882244 
L 228.562093 127.781242 
L 228.649644 127.747575 
L 228.572393 127.848577 
L 228.667669 127.781242 
L 228.778395 127.949579 
L 228.78097 127.915912 
L 228.876246 127.781242 
L 228.798995 127.949579 
L 228.894271 127.848577 
L 228.896846 127.81491 
L 228.974097 127.983246 
L 228.999847 127.915912 
L 229.002422 127.983246 
L 229.056497 127.781242 
L 229.105423 127.781242 
L 229.229024 127.68024 
L 229.347475 127.478236 
L 229.35005 127.511904 
L 229.42215 127.3099 
L 229.445325 127.343567 
L 229.543176 127.3099 
L 229.499401 127.410902 
L 229.556051 127.343567 
L 229.790378 127.444569 
L 229.890804 127.579238 
L 229.818703 127.377234 
L 229.908829 127.545571 
L 229.98093 127.478236 
L 229.926854 127.579238 
L 230.01698 127.545571 
L 230.122556 127.646573 
L 230.060755 127.478236 
L 230.130281 127.612906 
L 230.225557 127.478236 
L 230.153456 127.646573 
L 230.241007 127.545571 
L 230.459884 127.444569 
L 230.462459 127.377234 
L 230.472759 127.478236 
L 230.57061 127.410902 
L 230.64786 127.545571 
L 230.583485 127.377234 
L 230.683911 127.478236 
L 230.699361 127.410902 
L 230.722536 127.545571 
L 230.792061 127.478236 
L 230.815237 127.545571 
L 230.874462 127.410902 
L 230.900212 127.444569 
L 231.008363 127.343567 
L 230.910512 127.511904 
L 231.013513 127.410902 
L 231.054714 127.3099 
L 231.144839 127.141563 
L 231.111364 127.343567 
L 231.168015 127.208898 
L 231.173165 127.242565 
L 231.23239 127.040561 
L 231.271015 127.107896 
L 231.404917 127.074228 
L 231.407492 126.973226 
L 231.474442 127.141563 
L 231.513067 127.141563 
L 231.520792 127.074228 
L 231.582593 127.276232 
L 231.613493 127.276232 
L 231.747394 127.343567 
L 231.78087 127.3099 
L 231.86327 127.478236 
L 231.958546 127.579238 
L 231.986871 127.511904 
L 232.071847 127.612906 
L 232.777403 127.545571 
L 232.870104 127.410902 
L 232.821178 127.579238 
L 232.888129 127.444569 
L 232.998855 127.545571 
L 232.903579 127.410902 
L 233.00143 127.511904 
L 233.014305 127.478236 
L 233.119881 127.646573 
L 233.194556 127.545571 
L 233.150781 127.68024 
L 233.230607 127.646573 
L 233.287257 127.713908 
L 233.289832 127.781242 
L 233.331032 127.612906 
L 233.397983 127.713908 
L 233.416008 127.747575 
L 233.513859 127.612906 
L 233.570509 127.68024 
L 233.583384 127.545571 
L 233.62201 127.579238 
L 233.737886 127.511904 
L 233.809986 127.410902 
L 233.755911 127.545571 
L 233.848612 127.511904 
L 234.203965 127.612906 
L 234.250315 127.713908 
L 234.214265 127.579238 
L 234.317265 127.68024 
L 234.438291 127.478236 
L 234.440866 127.511904 
L 234.489792 127.545571 
L 234.518117 127.410902 
L 234.546442 127.478236 
L 234.659743 127.343567 
L 234.662318 127.377234 
L 234.677768 127.410902 
L 234.736994 127.242565 
L 234.767894 127.3099 
L 234.81682 127.242565 
L 234.773044 127.343567 
L 234.87347 127.276232 
L 234.876045 127.377234 
L 234.968746 127.141563 
L 234.981621 127.208898 
L 235.084622 127.107896 
L 235.009946 127.276232 
L 235.094922 127.17523 
L 235.110372 127.276232 
L 235.182473 127.107896 
L 235.203073 127.141563 
L 235.236548 127.074228 
L 235.213373 127.17523 
L 235.313799 127.141563 
L 235.347274 127.107896 
L 235.349849 126.973226 
L 235.403924 127.17523 
L 235.458 127.040561 
L 235.542975 127.141563 
L 235.4889 127.006894 
L 235.568726 127.107896 
L 235.671727 126.939559 
L 235.679452 127.040561 
L 235.808203 126.939559 
L 235.916354 126.838557 
L 235.818503 127.006894 
L 235.921504 126.872224 
L 235.944679 126.905892 
L 235.998754 126.703888 
L 236.024504 126.771222 
L 236.137805 126.67022 
L 236.220206 126.602886 
L 236.142955 126.703888 
L 236.243381 126.67022 
L 236.266556 126.737555 
L 236.341232 126.535551 
L 236.348957 126.535551 
L 236.385007 126.602886 
L 236.408183 126.468216 
L 236.457108 126.501884 
L 236.485433 126.569218 
L 236.567834 126.434549 
L 236.66826 126.569218 
L 236.675985 126.501884 
L 236.67856 126.400882 
L 236.722335 126.602886 
L 236.786711 126.468216 
L 236.804736 126.434549 
L 236.866536 126.636553 
L 236.887137 126.569218 
L 236.925762 126.67022 
L 236.900012 126.535551 
L 236.997862 126.602886 
L 237.018463 126.602886 
L 237.021038 126.737555 
L 237.129189 126.67022 
L 237.131764 126.703888 
L 237.139489 126.569218 
L 237.234764 126.636553 
L 237.26309 126.67022 
L 237.35579 126.501884 
L 237.456216 126.434549 
L 237.507717 126.501884 
L 237.569517 126.367214 
L 237.667368 126.535551 
L 237.682818 126.468216 
L 237.762644 126.602886 
L 237.698268 126.434549 
L 237.796119 126.569218 
L 237.85792 126.468216 
L 237.821869 126.602886 
L 237.90942 126.535551 
L 238.051046 126.501884 
L 238.053621 126.400882 
L 238.156622 126.636553 
L 238.159197 126.535551 
L 238.182372 126.602886 
L 238.272498 126.737555 
L 238.192672 126.535551 
L 238.293098 126.67022 
L 238.401249 126.602886 
L 238.303398 126.737555 
L 238.406399 126.636553 
L 238.697376 126.569218 
L 238.699951 126.468216 
L 238.707676 126.602886 
L 238.805527 126.569218 
L 238.911103 126.80489 
L 238.921403 126.771222 
L 238.949728 126.737555 
L 238.978054 126.838557 
L 239.026979 126.80489 
L 239.142855 126.939559 
L 239.220106 127.006894 
L 239.328257 127.141563 
L 239.251006 126.939559 
L 239.333407 127.107896 
L 239.356582 127.040561 
L 239.346282 127.17523 
L 239.441558 127.141563 
L 239.596059 127.074228 
L 239.678459 127.006894 
L 239.606359 127.107896 
L 239.706785 127.040561 
L 239.982312 127.074228 
L 239.984887 127.17523 
L 240.020937 127.006894 
L 240.093038 127.107896 
L 240.37629 127.040561 
L 240.466416 126.905892 
L 240.489591 126.973226 
L 240.592592 126.771222 
L 240.499891 127.006894 
L 240.610617 126.838557 
L 240.662118 126.872224 
L 240.677568 126.737555 
L 240.716193 126.771222 
L 240.801169 126.636553 
L 240.826919 126.737555 
L 240.868119 126.838557 
L 240.893869 126.67022 
L 240.942795 126.80489 
L 241.043221 126.67022 
L 240.95567 126.838557 
L 241.058671 126.703888 
L 241.164247 126.771222 
L 241.112746 126.67022 
L 241.171972 126.737555 
L 241.274973 126.67022 
L 241.197722 126.771222 
L 241.282698 126.737555 
L 241.372823 126.602886 
L 241.398574 126.636553 
L 241.432049 126.771222 
L 241.462949 126.602886 
L 241.509299 126.636553 
L 241.689551 126.737555 
L 241.697276 126.80489 
L 241.735901 126.67022 
L 241.797702 126.737555 
L 241.862077 126.602886 
L 241.882678 126.838557 
L 241.905853 126.771222 
L 242.19168 126.67022 
L 242.23803 126.535551 
L 242.266356 126.703888 
L 242.307556 126.602886 
L 242.397682 126.501884 
L 242.402832 126.434549 
L 242.451757 126.569218 
L 242.508408 126.501884 
L 242.969336 126.400882 
L 242.974487 126.434549 
L 243.090362 126.266212 
L 243.162463 126.367214 
L 243.183063 126.232545 
L 243.203663 126.29988 
L 243.234564 126.198878 
L 243.316964 126.266212 
L 243.419965 126.333547 
L 243.38649 126.198878 
L 243.42769 126.266212 
L 243.538416 126.16521 
L 243.450865 126.29988 
L 243.540991 126.198878 
L 243.656867 126.367214 
L 243.551291 126.16521 
L 243.659442 126.333547 
L 243.754718 126.266212 
L 243.672317 126.400882 
L 243.767593 126.367214 
L 243.777893 126.333547 
L 243.883469 126.468216 
L 243.958145 126.333547 
L 243.994195 126.468216 
L 244.074021 126.367214 
L 244.171871 126.232545 
L 244.079171 126.400882 
L 244.189896 126.266212 
L 244.231097 126.333547 
L 244.264572 126.16521 
L 244.295472 126.198878 
L 244.367573 126.097876 
L 244.431948 125.963206 
L 244.398473 126.16521 
L 244.475724 126.097876 
L 244.480874 126.131543 
L 244.534949 125.996874 
L 244.578725 126.030541 
L 244.692026 125.895872 
L 244.6328 126.097876 
L 244.697176 125.929539 
L 244.936653 125.862204 
L 245.042228 125.727535 
L 244.962403 125.895872 
L 245.049954 125.761202 
L 245.150379 125.6602 
L 245.152954 125.626533 
L 245.178705 125.79487 
L 245.25338 125.761202 
L 245.361531 125.862204 
L 245.26368 125.6602 
L 245.369256 125.828537 
L 245.423332 125.963206 
L 245.482557 125.79487 
L 245.516032 125.929539 
L 245.593283 125.862204 
L 245.709159 125.626533 
L 245.719459 125.6602 
L 245.763234 125.559198 
L 245.845635 125.525531 
L 245.85851 125.6602 
L 245.871385 125.592866 
L 246.512566 125.491864 
L 246.625866 125.357194 
L 246.628442 125.390862 
L 246.739167 125.491864 
L 246.654192 125.28986 
L 246.744317 125.458196 
L 246.849893 125.357194 
L 246.752043 125.491864 
L 246.857618 125.390862 
L 246.873069 125.424529 
L 246.893669 125.323527 
L 246.963194 125.357194 
L 247.04302 125.188858 
L 247.07907 125.256192 
L 247.107395 125.28986 
L 247.117696 125.15519 
L 247.184646 125.222525 
L 247.264472 125.15519 
L 247.246447 125.256192 
L 247.292797 125.222525 
L 247.388073 125.256192 
L 247.315972 125.188858 
L 247.403523 125.222525 
L 247.676475 125.28986 
L 247.784626 125.390862 
L 247.789776 125.357194 
L 247.802651 125.424529 
L 247.903077 125.592866 
L 247.825826 125.390862 
L 247.918527 125.559198 
L 247.921102 125.491864 
L 247.959727 125.693868 
L 248.026678 125.626533 
L 248.039553 125.592866 
L 248.083328 125.761202 
L 248.129679 125.693868 
L 248.165729 125.79487 
L 248.209504 125.626533 
L 248.23783 125.727535 
L 248.32538 125.592866 
L 248.340831 125.761202 
L 248.345981 125.727535 
L 248.454131 125.761202 
L 248.374306 125.626533 
L 248.456707 125.727535 
L 249.087587 125.626533 
L 249.180287 125.424529 
L 249.206038 125.458196 
L 249.208613 125.525531 
L 249.242088 125.357194 
L 249.311614 125.357194 
L 249.491865 125.256192 
L 249.594866 125.188858 
L 249.497015 125.28986 
L 249.602591 125.256192 
L 249.690142 125.357194 
L 249.623191 125.188858 
L 249.718467 125.323527 
L 249.723617 125.256192 
L 249.764817 125.357194 
L 249.826618 125.323527 
L 249.914168 125.390862 
L 249.836918 125.28986 
L 249.937344 125.323527 
L 250.171671 125.222525 
L 250.189696 125.28986 
L 250.279821 125.188858 
L 250.302997 125.28986 
L 250.331322 125.15519 
L 250.390547 125.222525 
L 250.508998 124.986854 
L 250.398272 125.28986 
L 250.511573 125.054188 
L 250.552774 125.087856 
L 250.521873 124.986854 
L 250.617149 124.986854 
L 250.810276 124.885852 
L 250.900402 124.818517 
L 250.846326 124.986854 
L 250.921002 124.885852 
L 251.026578 124.919519 
L 250.946752 124.78485 
L 251.029153 124.885852 
L 251.119278 124.78485 
L 251.088378 124.919519 
L 251.142454 124.852184 
L 251.253179 124.953186 
L 251.155329 124.818517 
L 251.255754 124.919519 
L 251.30983 124.751182 
L 251.37163 124.852184 
L 251.554457 124.78485 
L 251.557032 124.717515 
L 251.623983 124.885852 
L 251.665183 124.78485 
L 251.721833 124.852184 
L 251.765609 124.65018 
L 251.770759 124.717515 
L 251.845434 124.616513 
L 251.881485 124.717515 
L 251.943285 124.616513 
L 251.974185 124.683848 
L 252.064311 124.481844 
L 252.162162 124.549178 
L 252.198212 124.65018 
L 252.223962 124.515511 
L 252.272888 124.549178 
L 252.48404 124.448176 
L 252.48919 124.481844 
L 252.599916 124.313507 
L 252.641116 124.414509 
L 252.690041 124.27984 
L 252.710641 124.347174 
L 252.811067 124.313507 
L 252.744117 124.448176 
L 252.818792 124.347174 
L 252.926943 124.448176 
L 252.831667 124.313507 
L 252.934668 124.414509 
L 252.970719 124.448176 
L 253.037669 124.616513 
L 253.001619 124.380842 
L 253.08402 124.582846 
L 253.117495 124.549178 
L 253.174145 124.717515 
L 253.18702 124.65018 
L 253.223071 124.717515 
L 253.235946 124.582846 
L 253.295171 124.65018 
L 253.403322 124.481844 
L 253.344097 124.717515 
L 253.408472 124.549178 
L 253.503748 124.65018 
L 253.514048 124.515511 
L 253.516623 124.515511 
L 253.6943 124.414509 
L 253.784425 124.380842 
L 253.69945 124.481844 
L 253.80245 124.414509 
L 253.820476 124.549178 
L 253.871976 124.380842 
L 253.913176 124.481844 
L 253.928626 124.380842 
L 254.005877 124.549178 
L 254.021327 124.481844 
L 254.137203 124.65018 
L 254.505431 124.582846 
L 254.549207 124.481844 
L 254.562082 124.616513 
L 254.616157 124.515511 
L 254.685683 124.616513 
L 254.629032 124.481844 
L 254.721733 124.481844 
" clip-path="url(#p5da39e12b8)" style="fill: none; stroke: #000000; stroke-opacity: 0.5; stroke-width: 1.5; stroke-linecap: square"/>
   </g>
   <g id="patch_3">
    <path d="M 41.667188 173.52 
L 41.667188 7.2 
" style="fill: none; stroke: #000000; stroke-width: 0.8; stroke-linejoin: miter; stroke-linecap: square"/>
   </g>
   <g id="patch_4">
    <path d="M 41.667188 173.52 
L 264.867187 173.52 
" style="fill: none; stroke: #000000; stroke-width: 0.8; stroke-linejoin: miter; stroke-linecap: square"/>
   </g>
  </g>
 </g>
 <defs>
  <clipPath id="p5da39e12b8">
   <rect x="41.667188" y="7.2" width="223.2" height="166.32"/>
  </clipPath>
 </defs>
</svg>
