<?xml version="1.0" encoding="utf-8" standalone="no"?>
<!DOCTYPE svg PUBLIC "-//W3C//DTD SVG 1.1//EN"
  "http://www.w3.org/Graphics/SVG/1.1/DTD/svg11.dtd">
<svg xmlns:xlink="http://www.w3.org/1999/xlink" width="265.704687pt" height="197.398125pt" viewBox="0 0 265.704687 197.398125" xmlns="http://www.w3.org/2000/svg" version="1.1">
 <metadata>
  <rdf:RDF xmlns:dc="http://purl.org/dc/elements/1.1/" xmlns:cc="http://creativecommons.org/ns#" xmlns:rdf="http://www.w3.org/1999/02/22-rdf-syntax-ns#">
   <cc:Work>
    <dc:type rdf:resource="http://purl.org/dc/dcmitype/StillImage"/>
    <dc:date>2025-12-19T12:13:29.830077</dc:date>
    <dc:format>image/svg+xml</dc:format>
    <dc:creator>
     <cc:Agent>
      <dc:title>Matplotlib v3.10.7, https://matplotlib.org/</dc:title>
     </cc:Agent>
    </dc:creator>
   </cc:Work>
  </rdf:RDF>
 </metadata>
 <defs>
  <style type="text/css">*{stroke-linejoin: round; stroke-linecap: butt}</style>
 </defs>
 <g id="figure_1">
  <g id="patch_1">
   <path d="M 0 197.398125 
L 265.704687 197.398125 
L 265.704687 0 
L 0 0 
z
" style="fill: #ffffff"/>
  </g>
  <g id="axes_1">
   <g id="patch_2">
    <path d="M 35.304688 173.52 
L 258.504687 173.52 
L 258.504687 7.2 
L 35.304688 7.2 
z
" style="fill: #ffffff"/>
   </g>
   <g id="matplotlib.axis_1">
    <g id="xtick_1">
     <g id="line2d_1">
      <defs>
       <path id="mc7fd851744" d="M 0 0 
L 0 3.5 
" style="stroke: #000000; stroke-width: 0.8"/>
      </defs>
      <g>
       <use xlink:href="#mc7fd851744" x="76.350396" y="173.52" style="stroke: #000000; stroke-width: 0.8"/>
      </g>
     </g>
     <g id="text_1">
      <!-- 1 -->
      <g transform="translate(73.169146 188.118438) scale(0.1 -0.1)">
       <defs>
        <path id="DejaVuSans-31" d="M 794 531 
L 1825 531 
L 1825 4091 
L 703 3866 
L 703 4441 
L 1819 4666 
L 2450 4666 
L 2450 531 
L 3481 531 
L 3481 0 
L 794 0 
L 794 531 
z
" transform="scale(0.015625)"/>
       </defs>
       <use xlink:href="#DejaVuSans-31"/>
      </g>
     </g>
    </g>
    <g id="xtick_2">
     <g id="line2d_2">
      <g>
       <use xlink:href="#mc7fd851744" x="127.850819" y="173.52" style="stroke: #000000; stroke-width: 0.8"/>
      </g>
     </g>
     <g id="text_2">
      <!-- 2 -->
      <g transform="translate(124.669569 188.118438) scale(0.1 -0.1)">
       <defs>
        <path id="DejaVuSans-32" d="M 1228 531 
L 3431 531 
L 3431 0 
L 469 0 
L 469 531 
Q 828 903 1448 1529 
Q 2069 2156 2228 2338 
Q 2531 2678 2651 2914 
Q 2772 3150 2772 3378 
Q 2772 3750 2511 3984 
Q 2250 4219 1831 4219 
Q 1534 4219 1204 4116 
Q 875 4013 500 3803 
L 500 4441 
Q 881 4594 1212 4672 
Q 1544 4750 1819 4750 
Q 2544 4750 2975 4387 
Q 3406 4025 3406 3419 
Q 3406 3131 3298 2873 
Q 3191 2616 2906 2266 
Q 2828 2175 2409 1742 
Q 1991 1309 1228 531 
z
" transform="scale(0.015625)"/>
       </defs>
       <use xlink:href="#DejaVuSans-32"/>
      </g>
     </g>
    </g>
    <g id="xtick_3">
     <g id="line2d_3">
      <g>
       <use xlink:href="#mc7fd851744" x="179.351241" y="173.52" style="stroke: #000000; stroke-width: 0.8"/>
      </g>
     </g>
     <g id="text_3">
      <!-- 3 -->
      <g transform="translate(176.169991 188.118438) scale(0.1 -0.1)">
       <defs>
        <path id="DejaVuSans-33" d="M 2597 2516 
Q 3050 2419 3304 2112 
Q 3559 1806 3559 1356 
Q 3559 666 3084 287 
Q 2609 -91 1734 -91 
Q 1441 -91 1130 -33 
Q 819 25 488 141 
L 488 750 
Q 750 597 1062 519 
Q 1375 441 1716 441 
Q 2309 441 2620 675 
Q 2931 909 2931 1356 
Q 2931 1769 2642 2001 
Q 2353 2234 1838 2234 
L 1294 2234 
L 1294 2753 
L 1863 2753 
Q 2328 2753 2575 2939 
Q 2822 3125 2822 3475 
Q 2822 3834 2567 4026 
Q 2313 4219 1838 4219 
Q 1578 4219 1281 4162 
Q 984 4106 628 3988 
L 628 4550 
Q 988 4650 1302 4700 
Q 1616 4750 1894 4750 
Q 2613 4750 3031 4423 
Q 3450 4097 3450 3541 
Q 3450 3153 3228 2886 
Q 3006 2619 2597 2516 
z
" transform="scale(0.015625)"/>
       </defs>
       <use xlink:href="#DejaVuSans-33"/>
      </g>
     </g>
    </g>
    <g id="xtick_4">
     <g id="line2d_4">
      <g>
       <use xlink:href="#mc7fd851744" x="230.851664" y="173.52" style="stroke: #000000; stroke-width: 0.8"/>
      </g>
     </g>
     <g id="text_4">
      <!-- 4 -->
      <g transform="translate(227.670414 188.118438) scale(0.1 -0.1)">
       <defs>
        <path id="DejaVuSans-34" d="M 2419 4116 
L 825 1625 
L 2419 1625 
L 2419 4116 
z
M 2253 4666 
L 3047 4666 
L 3047 1625 
L 3713 1625 
L 3713 1100 
L 3047 1100 
L 3047 0 
L 2419 0 
L 2419 1100 
L 313 1100 
L 313 1709 
L 2253 4666 
z
" transform="scale(0.015625)"/>
       </defs>
       <use xlink:href="#DejaVuSans-34"/>
      </g>
     </g>
    </g>
   </g>
   <g id="matplotlib.axis_2">
    <g id="ytick_1">
     <g id="line2d_5">
      <defs>
       <path id="md06089f7d1" d="M 0 0 
L -3.5 0 
" style="stroke: #000000; stroke-width: 0.8"/>
      </defs>
      <g>
       <use xlink:href="#md06089f7d1" x="35.304688" y="154.955357" style="stroke: #000000; stroke-width: 0.8"/>
      </g>
     </g>
     <g id="text_5">
      <!-- −80 -->
      <g transform="translate(7.2 158.754575) scale(0.1 -0.1)">
       <defs>
        <path id="DejaVuSans-2212" d="M 678 2272 
L 4684 2272 
L 4684 1741 
L 678 1741 
L 678 2272 
z
" transform="scale(0.015625)"/>
        <path id="DejaVuSans-38" d="M 2034 2216 
Q 1584 2216 1326 1975 
Q 1069 1734 1069 1313 
Q 1069 891 1326 650 
Q 1584 409 2034 409 
Q 2484 409 2743 651 
Q 3003 894 3003 1313 
Q 3003 1734 2745 1975 
Q 2488 2216 2034 2216 
z
M 1403 2484 
Q 997 2584 770 2862 
Q 544 3141 544 3541 
Q 544 4100 942 4425 
Q 1341 4750 2034 4750 
Q 2731 4750 3128 4425 
Q 3525 4100 3525 3541 
Q 3525 3141 3298 2862 
Q 3072 2584 2669 2484 
Q 3125 2378 3379 2068 
Q 3634 1759 3634 1313 
Q 3634 634 3220 271 
Q 2806 -91 2034 -91 
Q 1263 -91 848 271 
Q 434 634 434 1313 
Q 434 1759 690 2068 
Q 947 2378 1403 2484 
z
M 1172 3481 
Q 1172 3119 1398 2916 
Q 1625 2713 2034 2713 
Q 2441 2713 2670 2916 
Q 2900 3119 2900 3481 
Q 2900 3844 2670 4047 
Q 2441 4250 2034 4250 
Q 1625 4250 1398 4047 
Q 1172 3844 1172 3481 
z
" transform="scale(0.015625)"/>
        <path id="DejaVuSans-30" d="M 2034 4250 
Q 1547 4250 1301 3770 
Q 1056 3291 1056 2328 
Q 1056 1369 1301 889 
Q 1547 409 2034 409 
Q 2525 409 2770 889 
Q 3016 1369 3016 2328 
Q 3016 3291 2770 3770 
Q 2525 4250 2034 4250 
z
M 2034 4750 
Q 2819 4750 3233 4129 
Q 3647 3509 3647 2328 
Q 3647 1150 3233 529 
Q 2819 -91 2034 -91 
Q 1250 -91 836 529 
Q 422 1150 422 2328 
Q 422 3509 836 4129 
Q 1250 4750 2034 4750 
z
" transform="scale(0.015625)"/>
       </defs>
       <use xlink:href="#DejaVuSans-2212"/>
       <use xlink:href="#DejaVuSans-38" transform="translate(83.789062 0)"/>
       <use xlink:href="#DejaVuSans-30" transform="translate(147.412109 0)"/>
      </g>
     </g>
    </g>
    <g id="ytick_2">
     <g id="line2d_6">
      <g>
       <use xlink:href="#md06089f7d1" x="35.304688" y="133.334054" style="stroke: #000000; stroke-width: 0.8"/>
      </g>
     </g>
     <g id="text_6">
      <!-- −60 -->
      <g transform="translate(7.2 137.133273) scale(0.1 -0.1)">
       <defs>
        <path id="DejaVuSans-36" d="M 2113 2584 
Q 1688 2584 1439 2293 
Q 1191 2003 1191 1497 
Q 1191 994 1439 701 
Q 1688 409 2113 409 
Q 2538 409 2786 701 
Q 3034 994 3034 1497 
Q 3034 2003 2786 2293 
Q 2538 2584 2113 2584 
z
M 3366 4563 
L 3366 3988 
Q 3128 4100 2886 4159 
Q 2644 4219 2406 4219 
Q 1781 4219 1451 3797 
Q 1122 3375 1075 2522 
Q 1259 2794 1537 2939 
Q 1816 3084 2150 3084 
Q 2853 3084 3261 2657 
Q 3669 2231 3669 1497 
Q 3669 778 3244 343 
Q 2819 -91 2113 -91 
Q 1303 -91 875 529 
Q 447 1150 447 2328 
Q 447 3434 972 4092 
Q 1497 4750 2381 4750 
Q 2619 4750 2861 4703 
Q 3103 4656 3366 4563 
z
" transform="scale(0.015625)"/>
       </defs>
       <use xlink:href="#DejaVuSans-2212"/>
       <use xlink:href="#DejaVuSans-36" transform="translate(83.789062 0)"/>
       <use xlink:href="#DejaVuSans-30" transform="translate(147.412109 0)"/>
      </g>
     </g>
    </g>
    <g id="ytick_3">
     <g id="line2d_7">
      <g>
       <use xlink:href="#md06089f7d1" x="35.304688" y="111.712751" style="stroke: #000000; stroke-width: 0.8"/>
      </g>
     </g>
     <g id="text_7">
      <!-- −40 -->
      <g transform="translate(7.2 115.51197) scale(0.1 -0.1)">
       <use xlink:href="#DejaVuSans-2212"/>
       <use xlink:href="#DejaVuSans-34" transform="translate(83.789062 0)"/>
       <use xlink:href="#DejaVuSans-30" transform="translate(147.412109 0)"/>
      </g>
     </g>
    </g>
    <g id="ytick_4">
     <g id="line2d_8">
      <g>
       <use xlink:href="#md06089f7d1" x="35.304688" y="90.091449" style="stroke: #000000; stroke-width: 0.8"/>
      </g>
     </g>
     <g id="text_8">
      <!-- −20 -->
      <g transform="translate(7.2 93.890668) scale(0.1 -0.1)">
       <use xlink:href="#DejaVuSans-2212"/>
       <use xlink:href="#DejaVuSans-32" transform="translate(83.789062 0)"/>
       <use xlink:href="#DejaVuSans-30" transform="translate(147.412109 0)"/>
      </g>
     </g>
    </g>
    <g id="ytick_5">
     <g id="line2d_9">
      <g>
       <use xlink:href="#md06089f7d1" x="35.304688" y="68.470146" style="stroke: #000000; stroke-width: 0.8"/>
      </g>
     </g>
     <g id="text_9">
      <!-- 0 -->
      <g transform="translate(21.942187 72.269365) scale(0.1 -0.1)">
       <use xlink:href="#DejaVuSans-30"/>
      </g>
     </g>
    </g>
    <g id="ytick_6">
     <g id="line2d_10">
      <g>
       <use xlink:href="#md06089f7d1" x="35.304688" y="46.848844" style="stroke: #000000; stroke-width: 0.8"/>
      </g>
     </g>
     <g id="text_10">
      <!-- 20 -->
      <g transform="translate(15.579687 50.648062) scale(0.1 -0.1)">
       <use xlink:href="#DejaVuSans-32"/>
       <use xlink:href="#DejaVuSans-30" transform="translate(63.623047 0)"/>
      </g>
     </g>
    </g>
    <g id="ytick_7">
     <g id="line2d_11">
      <g>
       <use xlink:href="#md06089f7d1" x="35.304688" y="25.227541" style="stroke: #000000; stroke-width: 0.8"/>
      </g>
     </g>
     <g id="text_11">
      <!-- 40 -->
      <g transform="translate(15.579687 29.02676) scale(0.1 -0.1)">
       <use xlink:href="#DejaVuSans-34"/>
       <use xlink:href="#DejaVuSans-30" transform="translate(63.623047 0)"/>
      </g>
     </g>
    </g>
   </g>
   <g id="line2d_12">
    <path d="M 45.450142 141.084416 
L 45.511943 141.183391 
L 45.506793 141.051425 
L 45.563443 141.150399 
L 45.656144 141.018433 
L 45.568593 141.216382 
L 45.676744 141.051425 
L 45.705069 141.150399 
L 45.77717 140.919459 
L 46.153123 140.853476 
L 46.155698 140.754501 
L 46.178873 140.95245 
L 46.263849 140.787493 
L 46.521351 140.72151 
L 46.523926 140.655527 
L 46.606327 140.853476 
L 46.629502 140.787493 
L 46.724778 140.72151 
L 46.639802 140.820484 
L 46.742803 140.754501 
L 46.848379 140.853476 
L 46.747953 140.72151 
L 46.856104 140.787493 
L 46.899879 140.853476 
L 46.964254 140.95245 
L 46.910179 140.820484 
L 47.01318 140.919459 
L 47.291282 141.018433 
L 47.337633 140.95245 
L 47.407158 141.117408 
L 47.499859 140.919459 
L 47.530759 140.95245 
L 47.626035 141.051425 
L 47.723886 141.183391 
L 47.65951 141.018433 
L 47.739336 141.084416 
L 47.860362 141.084416 
L 47.927312 140.95245 
L 47.878387 141.117408 
L 47.971088 141.051425 
L 48.153914 140.985442 
L 48.231165 140.886467 
L 48.26464 140.95245 
L 49.472325 140.919459 
L 49.4955 140.820484 
L 49.513525 140.985442 
L 49.583051 140.886467 
L 49.624251 141.018433 
L 49.660302 140.853476 
L 49.696352 140.95245 
L 49.773603 140.886467 
L 49.884328 140.754501 
L 49.886903 140.787493 
L 49.904929 140.72151 
L 50.005354 140.886467 
L 50.216506 140.820484 
L 50.249981 140.688518 
L 50.327232 140.754501 
L 50.396758 140.853476 
L 50.363282 140.72151 
L 50.437958 140.754501 
L 50.458558 140.787493 
L 50.564134 140.886467 
L 50.484308 140.754501 
L 50.569284 140.853476 
L 50.600184 140.853476 
L 50.728935 145.439293 
L 50.734085 145.538268 
L 50.952962 148.309553 
L 51.298015 151.311778 
L 51.31604 151.410753 
L 51.532342 152.763404 
L 51.547792 152.829387 
L 51.552942 152.796395 
L 51.681693 153.489217 
L 51.684268 153.456225 
L 51.761519 153.885115 
L 51.764094 153.852123 
L 51.789844 153.951098 
L 51.92117 154.478961 
L 52.078246 155.1058 
L 52.080821 155.072808 
L 52.160647 155.435715 
L 52.163222 155.435715 
L 52.188972 155.501698 
L 52.315148 155.897595 
L 52.358924 155.963578 
L 52.4748 156.326485 
L 52.482525 156.293493 
L 52.503125 156.260502 
L 52.55205 156.425459 
L 52.582951 156.392468 
L 52.703977 156.689391 
L 52.706552 156.590417 
L 52.791527 156.854349 
L 52.809552 156.854349 
L 52.835303 156.920332 
L 52.855903 156.854349 
L 52.953754 157.151272 
L 53.036154 157.217255 
L 53.149455 157.382213 
L 53.16748 157.283238 
L 53.221556 157.481187 
L 53.257606 157.448196 
L 53.280781 157.415204 
L 53.373482 157.580161 
L 53.376057 157.514178 
L 53.424983 157.712127 
L 53.481633 157.646144 
L 53.530558 157.580161 
L 53.592359 157.745119 
L 53.594934 157.679136 
L 53.661884 157.811102 
L 53.70051 157.745119 
L 53.808661 157.943068 
L 53.816386 157.910076 
L 53.860161 157.844093 
L 53.914237 157.976059 
L 53.927112 157.910076 
L 54.019812 158.009051 
L 54.066163 158.108025 
L 54.104788 157.943068 
L 54.133113 158.042042 
L 54.145988 158.075034 
L 54.248989 157.943068 
L 54.35199 158.042042 
L 54.354565 157.910076 
L 54.359715 157.943068 
L 54.38804 157.877085 
L 54.436966 158.009051 
L 54.465291 157.943068 
L 54.552842 158.075034 
L 54.519367 157.877085 
L 54.573442 157.976059 
L 54.581167 157.910076 
L 54.591467 158.075034 
L 54.681593 158.042042 
L 54.709918 157.976059 
L 54.717643 157.910076 
L 54.740818 158.075034 
L 54.818069 158.042042 
L 54.843819 158.141017 
L 54.833519 157.976059 
L 54.92622 158.009051 
L 54.944245 158.108025 
L 55.042096 157.943068 
L 55.175997 157.910076 
L 55.217197 157.811102 
L 55.201747 157.943068 
L 55.286723 157.877085 
L 55.394874 157.811102 
L 55.340798 157.943068 
L 55.397449 157.877085 
L 55.479849 157.811102 
L 55.490149 157.877085 
L 55.590575 157.745119 
L 55.670401 157.877085 
L 55.703876 157.77811 
L 55.806877 157.646144 
L 55.817177 157.679136 
L 56.103005 157.613153 
L 56.211155 157.481187 
L 56.216305 157.514178 
L 56.278106 157.54717 
L 56.280681 157.415204 
L 56.321881 157.481187 
L 56.332181 157.382213 
L 56.388832 157.580161 
L 56.432607 157.448196 
L 56.73646 157.349221 
L 56.76736 157.382213 
L 56.847186 157.283238 
L 56.865211 157.382213 
L 56.945036 157.184264 
L 56.955337 157.250247 
L 57.068637 157.184264 
L 57.156188 157.052298 
L 57.081513 157.217255 
L 57.179363 157.184264 
L 57.228289 157.118281 
L 57.238589 157.250247 
L 57.290089 157.184264 
L 57.635142 157.118281 
L 57.730418 156.920332 
L 57.655742 157.151272 
L 57.751018 156.986315 
L 58.523524 156.88734 
L 58.631675 156.788366 
L 58.575025 156.986315 
L 58.63425 156.854349 
L 58.665151 156.788366 
L 58.744976 156.88734 
L 58.860852 156.722383 
L 58.863427 156.788366 
L 58.914928 156.88734 
L 58.943253 156.722383 
L 58.974153 156.821357 
L 59.002478 156.755374 
L 59.030804 156.88734 
L 59.082304 156.854349 
L 59.275431 156.788366 
L 59.301181 156.821357 
L 59.391307 156.590417 
L 59.453107 156.755374 
L 59.504607 156.689391 
L 59.607608 156.557425 
L 59.623058 156.590417 
L 59.713184 156.6564 
L 59.635934 156.557425 
L 59.733784 156.623408 
L 59.744084 156.524434 
L 59.749234 156.6564 
L 59.847085 156.590417 
L 59.87026 156.491442 
L 59.955236 156.623408 
L 60.042787 156.524434 
L 60.068537 156.557425 
L 60.186988 156.425459 
L 60.295139 156.491442 
L 60.271964 156.359476 
L 60.297714 156.425459 
L 60.879669 156.359476 
L 61.309697 148.144595 
L 61.312272 148.177587 
L 61.374073 147.550748 
L 61.394673 147.451774 
L 61.6496 145.571259 
L 61.652175 145.637242 
L 61.732001 145.010404 
L 61.737151 145.010404 
L 61.873627 144.185616 
L 61.876202 144.218608 
L 61.883927 144.251599 
L 61.948302 143.756727 
L 61.950878 143.789719 
L 62.120829 142.898948 
L 62.125979 142.93194 
L 62.128554 142.964931 
L 62.210955 142.602025 
L 62.21353 142.635016 
L 62.362881 142.107153 
L 62.386056 142.140144 
L 62.450432 141.876212 
L 62.455582 141.909204 
L 62.589483 141.61228 
L 62.592058 141.645272 
L 62.671883 141.38134 
L 62.682184 141.38134 
L 62.816085 140.985442 
L 62.81866 141.018433 
L 62.857285 141.084416 
L 62.898485 140.853476 
L 62.919085 140.919459 
L 63.040111 140.622535 
L 63.094187 140.556552 
L 63.099337 140.589544 
L 63.215213 140.292621 
L 63.274438 140.193646 
L 63.395464 140.028689 
L 63.416065 140.094672 
L 63.48559 139.863731 
L 63.50104 139.962706 
L 63.622066 139.731765 
L 63.624641 139.764757 
L 63.634941 139.797748 
L 63.704467 139.632791 
L 63.727642 139.665782 
L 63.812618 139.566808 
L 63.913044 139.500825 
L 63.828068 139.632791 
L 63.923344 139.566808 
L 64.013469 139.500825 
L 64.09587 139.368859 
L 64.018619 139.533816 
L 64.12677 139.40185 
L 64.211746 139.269884 
L 64.237496 139.368859 
L 64.283847 139.40185 
L 64.294147 139.269884 
L 64.345647 139.335867 
L 64.466673 139.203901 
L 64.471823 139.17091 
L 64.590274 139.368859 
L 64.70615 139.17091 
L 64.734475 139.236893 
L 64.749925 139.071935 
L 64.811726 139.104927 
L 64.827176 139.17091 
L 64.912152 139.269884 
L 64.850351 139.137918 
L 64.940477 139.236893 
L 64.989402 139.302876 
L 65.004853 139.137918 
L 65.051203 139.269884 
L 65.149054 139.17091 
L 65.064078 139.302876 
L 65.167079 139.203901 
L 65.403981 139.137918 
L 65.476081 139.071935 
L 65.447756 139.203901 
L 65.512132 139.137918 
L 65.525007 139.236893 
L 65.561057 139.071935 
L 65.628008 139.203901 
L 65.710408 139.137918 
L 65.669208 139.236893 
L 65.736159 139.203901 
L 65.834009 139.302876 
L 65.805684 139.17091 
L 65.852035 139.269884 
L 65.862335 139.17091 
L 65.893235 139.137918 
L 65.94731 139.269884 
L 65.970486 139.17091 
L 66.032286 139.137918 
L 66.081211 139.236893 
L 66.135287 139.104927 
L 66.197087 139.137918 
L 66.235713 139.17091 
L 66.264038 139.038944 
L 66.300088 139.104927 
L 66.403089 139.038944 
L 66.382489 139.17091 
L 66.408239 139.071935 
L 66.433989 139.203901 
L 66.426264 139.038944 
L 66.52154 139.137918 
L 66.629691 139.038944 
L 66.619391 139.17091 
L 66.634841 139.071935 
L 66.712092 139.17091 
L 66.722392 139.038944 
L 66.745567 139.104927 
L 66.773892 139.071935 
L 66.797067 139.203901 
L 66.851143 139.137918 
L 66.894918 139.203901 
L 66.918093 139.038944 
L 66.959294 139.104927 
L 67.180745 139.17091 
L 67.265721 139.302876 
L 67.198771 139.137918 
L 67.294046 139.236893 
L 67.435673 139.269884 
L 67.453698 139.203901 
L 67.548973 139.368859 
L 67.966127 139.302876 
L 67.981577 139.236893 
L 68.015052 139.40185 
L 68.074278 139.269884 
L 68.102603 139.368859 
L 68.112903 139.17091 
L 68.182429 139.269884 
L 68.197879 139.17091 
L 68.282855 139.368859 
L 68.288005 139.335867 
L 68.460531 139.368859 
L 68.524906 139.533816 
L 68.527482 139.335867 
L 68.573832 139.467833 
L 68.617607 139.566808 
L 68.692283 139.632791 
L 68.705158 139.467833 
L 68.728333 139.566808 
L 68.779834 139.467833 
L 68.805584 139.599799 
L 68.839059 139.566808 
L 68.893135 139.632791 
L 68.944635 139.500825 
L 68.949785 139.599799 
L 68.97811 139.533816 
L 69.027036 139.698774 
L 69.055361 139.632791 
L 69.168662 139.764757 
L 69.091411 139.566808 
L 69.173812 139.731765 
L 69.266513 139.764757 
L 69.269088 139.863731 
L 69.305138 139.698774 
L 69.377238 139.764757 
L 69.969493 139.863731 
L 70.008119 139.995697 
L 69.984943 139.83074 
L 70.085369 139.962706 
L 70.175495 139.764757 
L 70.196095 139.896723 
L 70.293946 139.995697 
L 70.20382 139.863731 
L 70.306821 139.929714 
L 70.579773 139.995697 
L 70.664749 140.160655 
L 70.693074 140.127663 
L 70.713674 140.028689 
L 70.806375 140.06168 
L 70.837275 140.193646 
L 70.821825 140.028689 
L 70.922251 140.160655 
L 71.032977 140.028689 
L 70.932551 140.193646 
L 71.035552 140.127663 
L 71.177178 140.193646 
L 71.280179 140.292621 
L 71.182328 140.160655 
L 71.287904 140.259629 
L 71.385755 140.226638 
L 71.360005 140.391595 
L 71.39348 140.292621 
L 71.460431 140.325612 
L 71.488756 140.193646 
L 71.504206 140.292621 
L 71.550556 140.226638 
L 71.591757 140.358604 
L 71.609782 140.358604 
L 71.823509 140.424587 
L 71.867284 140.358604 
L 71.93681 140.523561 
L 72.021785 140.391595 
L 71.94711 140.589544 
L 72.052685 140.457578 
L 72.060411 140.424587 
L 72.168561 140.556552 
L 72.271562 140.457578 
L 72.279287 140.523561 
L 72.315338 140.622535 
L 72.369413 140.424587 
L 72.387438 140.523561 
L 72.423489 140.457578 
L 72.480139 140.622535 
L 72.495589 140.556552 
L 72.596015 140.622535 
L 72.701591 140.72151 
L 72.62949 140.589544 
L 72.706741 140.688518 
L 72.758241 140.589544 
L 72.747941 140.72151 
L 72.817467 140.622535 
L 72.840642 140.688518 
L 72.886992 140.556552 
L 72.923043 140.556552 
L 72.925618 140.490569 
L 72.938493 140.655527 
L 73.031193 140.589544 
L 73.103294 140.490569 
L 73.144494 140.391595 
L 73.17282 140.556552 
L 73.21402 140.457578 
L 73.304146 140.523561 
L 73.26552 140.391595 
L 73.322171 140.457578 
L 73.412297 140.358604 
L 73.329896 140.490569 
L 73.432897 140.391595 
L 73.450922 140.457578 
L 73.471522 140.292621 
L 73.541048 140.358604 
L 73.595123 140.292621 
L 73.553923 140.424587 
L 73.649199 140.325612 
L 73.700699 140.457578 
L 73.754774 140.292621 
L 73.759924 140.391595 
L 73.801125 140.292621 
L 73.78825 140.424587 
L 73.8758 140.325612 
L 73.904126 140.391595 
L 73.947901 140.259629 
L 73.983951 140.292621 
L 74.074077 140.193646 
L 74.001976 140.325612 
L 74.097252 140.259629 
L 74.110127 140.193646 
L 74.215703 140.358604 
L 74.295529 140.259629 
L 74.282654 140.391595 
L 74.329004 140.325612 
L 74.395955 140.424587 
L 74.498956 140.457578 
L 74.457755 140.292621 
L 74.506681 140.424587 
L 74.545306 140.457578 
L 74.625132 140.325612 
L 75.227687 140.391595 
L 75.330687 140.457578 
L 75.281762 140.358604 
L 75.338412 140.424587 
L 75.395063 140.523561 
L 75.451713 140.556552 
L 75.405363 140.457578 
L 75.505789 140.523561 
L 75.61394 140.391595 
L 75.546989 140.556552 
L 75.61909 140.457578 
L 75.70149 140.490569 
L 75.66544 140.358604 
L 75.727241 140.424587 
L 76.26027 140.490569 
L 76.26542 140.457578 
L 76.638798 150.783914 
L 76.641373 150.783914 
L 76.801024 153.324259 
L 77.401004 159.592642 
L 77.416454 159.658625 
L 77.568381 160.714353 
L 77.583831 160.813328 
L 77.802708 162.19897 
L 77.831033 162.297945 
L 78.008709 163.155723 
L 78.052485 163.254698 
L 78.206986 163.848545 
L 78.214711 163.815553 
L 78.291962 164.145468 
L 78.307412 164.112477 
L 78.425863 164.475383 
L 78.428438 164.4094 
L 78.523714 164.739315 
L 78.528864 164.673332 
L 78.66534 165.06923 
L 78.673065 164.937264 
L 78.765766 165.234187 
L 78.770916 165.201196 
L 78.899667 165.465128 
L 78.909967 165.333162 
L 78.951167 165.498119 
L 79.007818 165.465128 
L 79.126269 165.630085 
L 79.128844 165.597094 
L 79.180344 165.663077 
L 79.208669 165.630085 
L 79.293645 165.72906 
L 79.319395 165.663077 
L 79.383771 165.828034 
L 79.399221 165.795043 
L 79.499647 165.861026 
L 79.406946 165.762051 
L 79.512522 165.828034 
L 79.607797 165.72906 
L 79.582047 165.927009 
L 79.628398 165.762051 
L 79.751999 165.795043 
L 79.8653 165.927009 
L 79.983751 165.861026 
L 80.091901 165.762051 
L 80.053276 165.927009 
L 80.094476 165.795043 
L 80.122802 165.894017 
L 80.205202 165.828034 
L 80.228378 165.861026 
L 80.321078 165.72906 
L 80.372579 165.795043 
L 80.382879 165.663077 
L 80.429229 165.696068 
L 80.478155 165.663077 
L 80.591456 165.531111 
L 80.810332 165.531111 
L 80.887583 165.333162 
L 80.923633 165.366153 
L 80.939083 165.432136 
L 81.039509 165.267179 
L 81.062684 165.30017 
L 81.08071 165.168204 
L 81.14766 165.234187 
L 81.214611 165.135213 
L 81.317612 165.036238 
L 81.224911 165.168204 
L 81.325337 165.102221 
L 81.572539 165.003247 
L 81.68584 164.838289 
L 81.693565 164.871281 
L 81.703865 164.805298 
L 81.76309 164.871281 
L 81.814591 164.706323 
L 81.819741 164.772306 
L 81.912441 164.574357 
L 81.920166 164.607349 
L 81.981967 164.4094 
L 82.036042 164.508374 
L 82.059218 164.574357 
L 82.131318 164.376408 
L 82.141618 164.442391 
L 82.169944 164.4094 
L 82.285819 164.17846 
L 82.30127 164.244443 
L 82.350195 164.079485 
L 82.39397 164.145468 
L 82.514996 163.914528 
L 82.520146 163.947519 
L 82.563922 163.848545 
L 82.666923 163.716579 
L 82.579372 163.914528 
L 82.682373 163.74957 
L 82.767348 163.650596 
L 82.90125 163.353672 
L 82.903825 163.386664 
L 82.98365 163.155723 
L 83.00425 163.254698 
L 83.027426 163.188715 
L 83.109826 163.023757 
L 83.140726 163.08974 
L 83.158752 163.122732 
L 83.212827 162.957774 
L 83.243727 162.990766 
L 83.359603 162.759825 
L 83.369903 162.792817 
L 83.380203 162.825808 
L 83.426554 162.627859 
L 83.472904 162.693842 
L 83.56303 162.462902 
L 83.59908 162.495894 
L 83.640281 162.396919 
L 83.648006 162.429911 
L 83.761307 162.231962 
L 83.771607 162.297945 
L 83.833407 162.132987 
L 83.866882 162.165979 
L 83.959583 161.935038 
L 83.877183 162.19897 
L 83.982758 161.96803 
L 83.990483 162.034013 
L 84.052284 161.869055 
L 84.083184 161.869055 
L 84.201635 161.638115 
L 84.266011 161.572132 
L 84.374162 161.341191 
L 84.384462 161.374183 
L 84.397337 161.407174 
L 84.508063 161.176234 
L 84.541538 161.242217 
L 84.605914 161.044268 
L 84.613639 161.110251 
L 84.662564 161.077259 
L 84.75784 160.846319 
L 84.775865 160.912302 
L 84.82994 160.945293 
L 84.868566 160.813328 
L 84.881441 160.846319 
L 84.891741 160.87931 
L 85.012767 160.582387 
L 85.025642 160.64837 
L 85.102893 160.483413 
L 85.120918 160.516404 
L 85.126068 160.582387 
L 85.208468 160.351447 
L 85.216194 160.351447 
L 85.344945 160.120506 
L 85.406745 160.021532 
L 85.530346 159.856574 
L 85.592147 159.790591 
L 85.702873 159.625634 
L 85.708023 159.658625 
L 85.803298 159.493668 
L 85.718323 159.724608 
L 85.826474 159.559651 
L 85.829049 159.592642 
L 85.906299 159.32871 
L 85.924324 159.394693 
L 86.037625 159.196744 
L 86.047925 159.229736 
L 86.073676 159.196744 
L 86.176676 158.998796 
L 86.186977 159.09777 
L 86.246202 158.998796 
L 86.277102 159.031787 
L 86.362078 158.899821 
L 86.367228 158.998796 
L 86.418728 158.767855 
L 86.470229 158.833838 
L 86.596405 158.734864 
L 86.709706 158.602898 
L 86.712281 158.668881 
L 86.756056 158.569906 
L 86.869357 158.338966 
L 86.771506 158.635889 
L 86.877082 158.43794 
L 86.949183 158.338966 
L 86.956908 158.371957 
L 87.067634 158.239991 
L 87.196385 158.141017 
L 87.201535 158.207 
L 87.312261 158.075034 
L 87.314836 158.174008 
L 87.381786 157.976059 
L 87.417837 158.042042 
L 87.428137 158.075034 
L 87.533713 157.811102 
L 87.582638 157.712127 
L 87.703664 157.514178 
L 87.706239 157.54717 
L 87.79379 157.481187 
L 87.912241 157.283238 
L 87.927691 157.31623 
L 88.038417 157.085289 
L 88.138843 157.118281 
L 88.136268 156.986315 
L 88.141418 157.019306 
L 88.257293 156.88734 
L 88.159443 157.118281 
L 88.259869 156.920332 
L 88.262444 156.986315 
L 88.362869 156.788366 
L 88.365444 156.788366 
L 88.468445 156.722383 
L 88.571446 156.557425 
L 88.584321 156.590417 
L 88.643547 156.557425 
L 88.754273 156.293493 
L 88.759423 156.359476 
L 88.929374 156.260502 
L 89.037525 156.128536 
L 88.962849 156.326485 
L 89.04525 156.194519 
L 89.181726 156.095544 
L 89.189451 156.128536 
L 89.300177 155.99657 
L 89.380003 155.897595 
L 89.457253 155.732638 
L 89.387728 155.930587 
L 89.490729 155.76563 
L 89.493304 155.831612 
L 89.526779 155.666655 
L 89.596304 155.666655 
L 89.758531 155.600672 
L 89.840931 155.435715 
L 89.776556 155.666655 
L 89.871832 155.501698 
L 89.910457 155.402723 
L 89.949082 155.468706 
L 90.026333 155.303749 
L 90.039208 155.369732 
L 90.116459 155.204774 
L 90.129334 155.204774 
L 90.137059 155.303749 
L 90.242635 155.072808 
L 90.27096 155.1058 
L 90.335336 154.940842 
L 90.348211 155.006825 
L 90.469237 154.841868 
L 90.520737 154.907851 
L 90.554212 154.775885 
L 90.574813 154.808876 
L 90.690688 154.643919 
L 90.693263 154.709902 
L 90.778239 154.610927 
L 90.88124 154.511953 
L 90.783389 154.643919 
L 90.894115 154.544944 
L 90.961066 154.478961 
L 91.058916 154.314004 
L 90.971366 154.544944 
L 91.076942 154.346995 
L 91.107842 154.44597 
L 91.138742 154.248021 
L 91.185093 154.248021 
L 91.267493 154.281012 
L 91.272643 154.116055 
L 91.288093 154.149046 
L 91.411694 153.984089 
L 91.416844 154.083063 
L 91.51727 153.885115 
L 91.627996 153.78614 
L 91.658896 153.885115 
L 91.743872 153.720157 
L 91.746447 153.819132 
L 91.810823 153.621183 
L 91.852023 153.621183 
L 91.890648 153.654174 
L 91.918974 153.522208 
L 91.955024 153.522208 
L 92.021974 153.456225 
L 92.135275 153.258276 
L 92.0503 153.489217 
L 92.13785 153.324259 
L 92.1533 153.357251 
L 92.222826 153.192293 
L 92.240851 153.225285 
L 92.338702 153.12631 
L 92.433978 152.928361 
L 92.351577 153.159302 
L 92.459728 152.961353 
L 92.495778 152.994344 
L 92.472603 152.89537 
L 92.570454 152.961353 
L 92.678605 152.730412 
L 92.69663 152.763404 
L 92.709505 152.862378 
L 92.789331 152.664429 
L 92.799631 152.664429 
L 92.889757 152.565455 
L 92.897482 152.598446 
L 93.010783 152.433489 
L 93.134384 152.367506 
L 93.250259 152.23554 
L 93.278585 152.268532 
L 93.28116 152.367506 
L 93.32751 152.202549 
L 93.389311 152.268532 
L 93.409911 152.301523 
L 93.435661 152.169557 
L 93.492311 152.169557 
L 93.600462 152.037591 
L 93.502612 152.23554 
L 93.605612 152.103574 
L 93.608187 152.136566 
L 93.641663 151.971608 
L 93.708613 152.0046 
L 93.827064 151.707676 
L 93.837364 151.773659 
L 93.868265 151.740668 
L 93.97899 151.608702 
L 93.981565 151.641693 
L 94.100016 151.443744 
L 94.192717 151.410753 
L 94.210742 151.443744 
L 94.306018 151.311778 
L 94.334343 151.34477 
L 94.401294 151.146821 
L 94.403869 151.146821 
L 94.52232 151.080838 
L 94.635621 150.91588 
L 94.651071 150.981863 
L 94.694846 150.783914 
L 94.741197 150.816906 
L 94.800422 150.717931 
L 94.911148 150.552974 
L 94.810722 150.783914 
L 94.921448 150.585966 
L 94.988399 150.486991 
L 95.114575 150.289042 
L 95.140325 150.355025 
L 95.191825 150.190068 
L 95.220151 150.223059 
L 95.302551 150.124085 
L 95.410702 149.959127 
L 95.418427 150.02511 
L 95.441602 150.058102 
L 95.513703 149.926136 
L 95.521428 149.959127 
L 95.634729 149.827161 
L 95.639879 149.860153 
L 95.771205 149.761178 
L 95.866481 149.662204 
L 95.776355 149.79417 
L 95.879356 149.761178 
L 95.881931 149.79417 
L 95.902531 149.629212 
L 95.982357 149.662204 
L 95.990082 149.695195 
L 96.105958 149.497246 
L 96.221834 149.431263 
L 96.319685 149.167331 
L 96.340285 149.233314 
L 96.34801 149.332289 
L 96.438136 149.035365 
L 96.443286 149.035365 
L 96.559162 148.870408 
L 96.474186 149.101348 
L 96.564312 148.9034 
L 96.569462 148.936391 
L 96.641562 148.771434 
L 96.667313 148.804425 
L 96.685338 148.837417 
L 96.790914 148.639468 
L 96.868164 148.573485 
L 96.96859 148.408527 
L 96.881039 148.639468 
L 96.98404 148.441519 
L 97.117941 148.375536 
L 97.228667 148.210578 
L 97.233817 148.24357 
L 97.339393 148.078612 
L 97.354843 148.111604 
L 97.426944 148.045621 
L 97.535095 147.946646 
L 97.540245 147.979638 
L 97.666421 147.781689 
L 97.694746 147.880663 
L 97.733371 147.682714 
L 97.771997 147.715706 
L 97.869847 147.550748 
L 97.885298 147.58374 
L 97.949673 147.517757 
L 98.029499 147.319808 
L 98.062974 147.418782 
L 98.065549 147.451774 
L 98.1428 147.220834 
L 98.1634 147.286816 
L 98.279276 147.088868 
L 98.317901 147.154851 
L 98.371977 146.92391 
L 98.377127 146.92391 
L 98.390002 146.989893 
L 98.490428 146.890919 
L 98.624329 146.791944 
L 98.637204 146.857927 
L 98.740205 146.725961 
L 98.750505 146.758953 
L 98.80458 146.593995 
L 98.843205 146.626987 
L 98.951356 146.528012 
L 98.984832 146.593995 
L 99.067232 146.396046 
L 99.080107 146.462029 
L 99.157358 146.297072 
L 99.172808 146.330063 
L 99.365935 146.231089 
L 99.37881 146.26408 
L 99.481811 146.132114 
L 99.494686 146.165106 
L 99.510136 146.03314 
L 99.589962 146.099123 
L 99.713563 145.901174 
L 99.757338 145.967157 
L 99.793388 145.802199 
L 99.816563 145.802199 
L 99.919564 145.637242 
L 99.929864 145.670233 
L 99.932439 145.703225 
L 100.00969 145.472285 
L 100.022565 145.472285 
L 100.125566 145.340319 
L 100.03029 145.505276 
L 100.138441 145.37331 
L 100.177066 145.406302 
L 100.220842 145.208353 
L 100.244017 145.307327 
L 100.334143 145.274336 
L 100.447444 145.076387 
L 100.462894 145.109378 
L 100.529844 144.911429 
L 100.547869 144.944421 
L 100.674045 144.647497 
L 100.67662 144.71348 
L 100.792496 144.647497 
L 100.903222 144.515531 
L 100.905797 144.548523 
L 101.011373 144.48254 
L 101.070599 144.350574 
L 101.037123 144.548523 
L 101.122099 144.383565 
L 101.132399 144.515531 
L 101.2148 144.251599 
L 101.227675 144.317582 
L 101.28175 144.350574 
L 101.343551 144.218608 
L 101.374451 144.251599 
L 101.402776 144.119633 
L 101.449127 144.185616 
L 101.572728 144.020659 
L 101.781305 143.954676 
L 101.89718 143.789719 
L 101.922931 143.82271 
L 101.979581 143.624761 
L 101.992456 143.657753 
L 102.105757 143.492795 
L 102.108332 143.525787 
L 102.234508 143.327838 
L 102.324634 143.228863 
L 102.43536 143.096897 
L 102.337509 143.261855 
L 102.443085 143.129889 
L 102.47656 143.195872 
L 102.525486 142.997923 
L 102.543511 143.063906 
L 102.651662 142.865957 
L 102.656812 142.964931 
L 102.674837 142.93194 
L 102.785563 142.733991 
L 102.788138 142.766982 
L 102.945214 142.700999 
L 103.05079 142.569033 
L 103.058515 142.635016 
L 103.094565 142.536042 
L 103.182116 142.338093 
L 103.215591 142.404076 
L 103.254217 142.305101 
L 103.357217 142.140144 
L 103.259367 142.338093 
L 103.370093 142.173136 
L 103.406143 142.206127 
L 103.470518 142.074161 
L 103.478243 142.140144 
L 103.542619 142.04117 
L 103.663645 141.909204 
L 103.833596 141.810229 
L 103.957197 141.579289 
L 103.838746 141.843221 
L 103.959772 141.61228 
L 104.013848 141.546297 
L 104.132299 141.348348 
L 104.232725 141.282365 
L 104.263625 141.315357 
L 104.351176 141.018433 
L 104.382076 141.051425 
L 104.412976 140.919459 
L 104.454176 140.919459 
L 104.461902 140.95245 
L 104.577777 140.754501 
L 104.629278 140.853476 
L 104.670478 140.688518 
L 104.680778 140.754501 
L 104.794079 140.589544 
L 104.879055 140.490569 
L 104.992356 140.325612 
L 104.994931 140.358604 
L 105.018106 140.391595 
L 105.108232 140.226638 
L 105.110807 140.325612 
L 105.182907 140.06168 
L 105.216383 140.127663 
L 105.329684 139.995697 
L 105.332259 140.06168 
L 105.370884 140.028689 
L 105.376034 140.06168 
L 105.484185 139.929714 
L 105.49706 139.962706 
L 105.566586 139.797748 
L 105.582036 139.896723 
L 105.695337 139.698774 
L 105.705637 139.83074 
L 105.744262 139.632791 
L 105.806063 139.698774 
L 105.932239 139.434842 
L 105.939964 139.500825 
L 106.035239 139.302876 
L 106.037814 139.335867 
L 106.068715 139.269884 
L 106.166566 139.17091 
L 106.073865 139.302876 
L 106.179441 139.269884 
L 106.205191 139.17091 
L 106.295317 139.005952 
L 106.323642 139.038944 
L 106.429218 139.104927 
L 106.331367 139.005952 
L 106.434368 139.038944 
L 106.506468 138.939969 
L 106.529644 138.972961 
L 106.627494 138.775012 
L 106.65067 138.873986 
L 106.73307 138.676038 
L 106.843796 138.544072 
L 106.740795 138.775012 
L 106.851521 138.577063 
L 106.895297 138.643046 
L 106.951947 138.478089 
L 106.954522 138.51108 
L 106.962247 138.544072 
L 107.078123 138.313131 
L 107.109023 138.478089 
L 107.188849 138.313131 
L 107.299575 138.28014 
L 107.415451 138.016208 
L 107.425751 138.115182 
L 107.477251 137.950225 
L 107.523602 138.016208 
L 107.642053 137.719284 
L 107.675528 137.752276 
L 107.678103 137.62031 
L 107.745053 137.653301 
L 107.863504 137.422361 
L 107.868655 137.488344 
L 108.043756 137.389369 
L 108.054056 137.422361 
L 108.172507 137.125437 
L 108.187957 137.158429 
L 108.265208 136.993472 
L 108.272933 136.993472 
L 108.319283 136.927489 
L 108.430009 136.72954 
L 108.432584 136.762531 
L 108.49181 136.762531 
L 108.602536 136.498599 
L 108.605111 136.564582 
L 108.715836 136.498599 
L 108.818837 136.333642 
L 108.829137 136.366633 
L 108.849738 136.399625 
L 108.878063 136.267659 
L 108.934713 136.333642 
L 109.053164 136.168684 
L 109.055739 136.201676 
L 109.060889 136.267659 
L 109.10724 136.102701 
L 109.15874 136.135693 
L 109.233416 136.003727 
L 109.272041 136.06971 
L 109.377617 136.465608 
L 109.411092 136.432616 
L 109.508943 136.366633 
L 109.575894 136.201676 
L 109.537268 136.399625 
L 109.622244 136.267659 
L 109.74842 136.168684 
L 109.874596 135.970735 
L 109.877171 136.003727 
L 109.944122 135.805778 
L 109.967297 135.805778 
L 110.085748 135.574837 
L 110.093473 135.64082 
L 110.178448 135.376889 
L 110.188749 135.376889 
L 110.204199 135.442871 
L 110.281449 135.17894 
L 110.286599 135.211931 
L 110.392175 135.17894 
L 110.508051 134.915008 
L 110.523501 135.17894 
L 110.538951 134.684067 
L 110.611052 134.882016 
L 110.683153 134.618084 
L 110.729503 134.651076 
L 110.773278 134.552101 
L 110.778428 134.585093 
L 110.899454 134.354152 
L 111.002455 134.255178 
L 111.035931 134.354152 
L 111.123481 134.123212 
L 111.146656 134.156203 
L 111.218757 133.991246 
L 111.226482 134.024237 
L 111.296008 133.925263 
L 111.308883 133.958254 
L 111.419609 133.694322 
L 111.424759 133.793297 
L 111.514884 133.496374 
L 111.525185 133.496374 
L 111.617885 133.397399 
L 111.633335 133.430391 
L 111.736336 133.133467 
L 111.795562 133.166459 
L 111.826462 133.034493 
L 111.841912 133.067484 
L 111.955213 132.770561 
L 111.962938 132.803552 
L 112.009289 132.704578 
L 112.019589 132.770561 
L 112.125164 132.572612 
L 112.212715 132.638595 
L 112.176665 132.506629 
L 112.233315 132.506629 
L 112.287391 132.638595 
L 112.338891 132.440646 
L 112.344041 132.506629 
L 112.462492 132.275688 
L 112.467642 132.30868 
L 112.526868 132.341671 
L 112.552618 132.143722 
L 112.568068 132.176714 
L 112.596393 132.077739 
L 112.725144 131.714833 
L 112.730294 131.747825 
L 112.732869 131.813808 
L 112.77407 131.64885 
L 112.838445 131.681842 
L 112.915696 131.516884 
L 112.84617 131.714833 
L 112.951746 131.582867 
L 112.954321 131.64885 
L 113.013547 131.384918 
L 113.054747 131.41791 
L 113.155173 131.318935 
L 113.245299 131.153978 
L 113.271049 131.186969 
L 113.281349 131.252952 
L 113.3689 131.055003 
L 113.37405 131.087995 
L 113.4101 131.153978 
L 113.412675 130.857054 
L 113.520826 131.055003 
L 113.556876 130.75808 
L 113.636702 130.857054 
L 113.639277 130.890046 
L 113.703652 130.75808 
L 113.737128 130.75808 
L 113.853004 130.527139 
L 113.765453 130.824063 
L 113.855579 130.560131 
L 113.891629 130.461156 
L 114.01523 130.09825 
L 114.022955 130.197225 
L 114.02553 130.230216 
L 114.095056 130.032267 
L 114.120806 130.032267 
L 114.185181 129.999276 
L 114.257282 129.735344 
L 114.216082 130.032267 
L 114.301057 129.801327 
L 114.347408 129.735344 
L 114.360283 129.768335 
L 114.463284 129.603378 
L 114.561134 129.537395 
L 114.67701 129.372437 
L 114.679585 129.43842 
L 114.702761 129.306454 
L 114.785161 129.306454 
L 114.841812 129.372437 
L 114.795461 129.240471 
L 114.895887 129.306454 
L 115.022063 129.075514 
L 115.055539 129.108505 
L 115.091589 128.976539 
L 115.122489 129.009531 
L 115.197165 128.877565 
L 115.161114 129.042522 
L 115.23579 128.943548 
L 115.364541 128.679616 
L 115.377416 128.811582 
L 115.444367 128.580642 
L 115.467542 128.580642 
L 115.565393 128.54765 
L 115.678694 128.085769 
L 115.663244 128.877565 
L 115.681269 128.349701 
L 115.704444 128.514659 
L 115.773969 128.283718 
L 115.791995 128.349701 
L 115.82032 128.415684 
L 115.858945 128.250727 
L 115.894995 128.283718 
L 116.016021 128.085769 
L 116.085547 128.184744 
L 116.121597 127.953803 
L 116.124172 128.019786 
L 116.216873 127.854829 
L 116.137047 128.085769 
L 116.242623 127.88782 
L 116.263223 127.920812 
L 116.319874 127.755854 
L 116.343049 127.755854 
L 116.4512 127.65688 
L 116.515576 127.491922 
L 116.47695 127.755854 
L 116.564501 127.557905 
L 116.579951 127.623888 
L 116.618576 127.458931 
L 116.664927 127.458931 
L 116.688102 127.491922 
L 116.785953 127.326965 
L 116.796253 127.22799 
L 116.909554 126.99705 
L 116.811703 127.326965 
L 116.919854 127.063033 
L 116.958479 127.030041 
L 117.07178 126.667135 
L 117.07693 126.700127 
L 117.110405 126.634144 
L 117.187656 126.370212 
L 117.228856 126.436195 
L 117.385933 126.33722 
L 117.514684 126.073288 
L 117.517259 126.139271 
L 117.543009 125.941322 
L 117.62026 125.974314 
L 117.66661 125.908331 
L 117.785061 125.644399 
L 117.792786 125.743373 
L 117.846861 125.512433 
L 117.885487 125.545424 
L 117.975612 125.380467 
L 118.003938 125.413458 
L 118.050288 125.44645 
L 118.086338 125.281492 
L 118.112089 125.380467 
L 118.24599 125.017561 
L 118.300065 125.149527 
L 118.356716 125.017561 
L 118.482892 124.588671 
L 118.565292 124.489697 
L 118.681168 124.258756 
L 118.591043 124.588671 
L 118.691468 124.291748 
L 118.704343 124.225765 
L 118.730094 124.291748 
L 118.83052 123.796875 
L 118.833095 123.862858 
L 118.90262 123.466961 
L 118.92837 123.499952 
L 119.028796 123.400978 
L 119.062271 123.269012 
L 119.134372 123.466961 
L 119.139522 123.400978 
L 119.160122 123.334995 
L 119.191022 123.367986 
L 119.275998 123.071063 
L 119.278573 123.104054 
L 119.350674 122.774139 
L 119.363549 122.807131 
L 119.484575 122.510207 
L 119.510325 122.444224 
L 119.682852 120.860633 
L 119.693152 120.79465 
L 119.901728 118.287297 
L 119.909453 118.287297 
L 119.950654 115.05413 
L 119.978979 14.76 
L 120.05623 119.112084 
L 120.179831 132.506629 
L 120.187556 132.473637 
L 120.195281 132.53962 
L 120.321457 133.265433 
L 120.344632 133.133467 
L 120.414158 133.397399 
L 120.427033 133.397399 
L 120.607284 133.298425 
L 120.68711 133.166459 
L 120.725735 133.19945 
L 120.766935 133.100476 
L 120.890536 132.638595 
L 120.77466 133.133467 
L 120.893111 132.671586 
L 120.918862 132.671586 
L 121.039888 132.077739 
L 121.045038 132.209705 
L 121.140313 131.681842 
L 121.168639 131.615859 
L 121.30254 130.98902 
L 121.305115 131.087995 
L 121.400391 130.527139 
L 121.420991 130.428165 
L 121.580642 129.636369 
L 121.588367 129.702352 
L 121.590942 129.735344 
L 121.655318 129.240471 
L 121.660468 129.240471 
L 121.838144 128.349701 
L 121.851019 128.415684 
L 121.935995 128.019786 
L 122.100796 127.194999 
L 122.108521 127.22799 
L 122.126547 127.162007 
L 122.278473 126.10628 
L 122.304223 126.007305 
L 122.48705 125.083544 
L 122.494775 124.984569 
L 122.499925 125.017561 
L 122.662151 124.225765 
L 122.664726 124.291748 
L 122.754852 123.796875 
L 122.757427 123.829867 
L 122.937678 122.906105 
L 122.940253 122.939097 
L 123.004629 122.378241 
L 123.223506 120.959607 
L 123.238956 120.992599 
L 123.293031 120.497726 
L 123.298181 120.497726 
L 123.627784 115.186096 
L 123.638084 100.20796 
L 123.661259 15.386838 
L 123.74366 119.837897 
L 123.877561 131.846799 
L 124.039787 132.572612 
L 124.042362 132.53962 
L 124.145363 132.605603 
L 124.147938 132.671586 
L 124.238064 132.374663 
L 124.248364 132.473637 
L 124.41574 131.714833 
L 124.418315 131.780816 
L 124.511016 131.351927 
L 124.552216 131.252952 
L 124.688693 130.560131 
L 124.696418 130.461156 
L 124.863794 129.702352 
L 124.868944 129.735344 
L 124.93847 129.273463 
L 124.941045 129.273463 
L 124.95907 129.20748 
L 125.098121 128.448676 
L 125.116146 128.349701 
L 125.347898 126.799101 
L 125.373648 126.733118 
L 125.510124 125.842348 
L 125.515274 125.875339 
L 125.517849 125.941322 
L 125.6054 125.347475 
L 125.623425 125.248501 
L 125.765051 124.357731 
L 125.767626 124.390722 
L 125.770201 124.456705 
L 125.852602 123.763884 
L 126.107529 121.91636 
L 126.120404 121.817386 
L 126.576183 114.922165 
L 126.589058 81.006913 
L 126.609658 16.145643 
L 126.692059 119.540973 
L 126.82596 131.450901 
L 126.975311 132.044748 
L 126.980461 132.011756 
L 127.101487 131.813808 
L 127.034537 132.110731 
L 127.104062 131.846799 
L 127.124663 131.780816 
L 127.212213 131.384918 
L 127.137538 131.813808 
L 127.245689 131.483893 
L 127.271439 131.41791 
L 127.413065 130.560131 
L 127.418215 130.626114 
L 127.498041 130.065259 
L 127.503191 130.065259 
L 127.709192 128.844573 
L 127.716917 128.877565 
L 127.783868 128.382693 
L 127.786443 128.415684 
L 128.02077 126.799101 
L 128.023345 126.832093 
L 128.085145 126.271237 
L 128.234497 125.281492 
L 128.252522 125.182518 
L 128.510024 123.302003 
L 128.512599 123.334995 
L 128.5744 122.741148 
L 128.57955 122.774139 
L 128.901427 120.002854 
L 128.904002 120.035846 
L 128.914302 119.936871 
L 129.22588 114.757207 
L 129.238755 99.77907 
L 129.264505 16.97043 
L 129.344331 116.571739 
L 129.478232 130.923037 
L 129.483382 130.890046 
L 129.550333 131.252952 
L 129.560633 131.252952 
L 129.653333 131.41791 
L 129.673934 131.351927 
L 129.797535 131.022012 
L 129.838735 131.022012 
L 129.964911 130.197225 
L 130.170913 128.910556 
L 130.173488 128.976539 
L 130.250738 128.31671 
L 130.255888 128.31671 
L 130.397514 127.425939 
L 130.400089 127.458931 
L 130.42069 127.359956 
L 130.580341 126.073288 
L 130.582916 126.10628 
L 130.639566 125.545424 
L 130.649867 125.545424 
L 130.812093 124.225765 
L 130.827543 124.12679 
L 130.989769 122.807131 
L 131.540824 114.460284 
L 131.553699 108.059935 
L 131.582024 17.465302 
L 131.66185 114.097377 
L 131.795751 129.636369 
L 131.914202 130.032267 
L 131.919352 129.966284 
L 132.009478 130.131242 
L 132.032653 129.999276 
L 132.104753 129.900301 
L 132.23093 129.20748 
L 132.24123 129.240471 
L 132.254105 129.141497 
L 132.400881 128.085769 
L 132.403456 128.118761 
L 132.413756 128.052778 
L 132.568257 126.931067 
L 132.570832 126.964058 
L 132.637783 126.403203 
L 132.926185 124.12679 
L 132.936485 124.027816 
L 133.410289 119.343024 
L 133.412864 119.376016 
L 133.474665 118.749177 
L 133.747617 113.866437 
L 133.770792 107.861986 
L 133.799117 18.257098 
L 133.878943 112.711735 
L 134.012844 128.646624 
L 134.025719 128.712607 
L 134.162195 129.43842 
L 134.16992 129.471412 
L 134.290946 129.20748 
L 134.321847 129.108505 
L 134.494373 128.31671 
L 134.517548 128.250727 
L 134.654024 127.194999 
L 134.659174 127.22799 
L 134.7287 126.733118 
L 134.885776 125.479441 
L 134.888351 125.512433 
L 134.947577 124.885595 
L 134.950152 124.918586 
L 135.220529 122.873114 
L 135.230829 122.774139 
L 135.606782 119.376016 
L 135.619657 119.310033 
L 135.853984 116.14285 
L 135.856559 116.14285 
L 135.951835 106.872241 
L 135.98016 18.949919 
L 136.059986 111.820964 
L 136.188737 127.953803 
L 136.193887 127.88782 
L 136.299463 128.31671 
L 136.317488 128.283718 
L 136.384439 128.118761 
L 136.438514 128.151752 
L 136.451389 128.184744 
L 136.520915 127.920812 
L 136.531215 127.920812 
L 136.726916 126.832093 
L 136.747517 126.733118 
L 136.752667 126.76611 
L 136.904593 125.545424 
L 137.177545 123.433969 
L 137.182695 123.499952 
L 137.244496 122.873114 
L 137.257371 122.774139 
L 137.419597 121.45448 
L 137.429897 121.355505 
L 137.597274 119.90388 
L 138.027302 113.04165 
L 138.045327 102.088475 
L 138.073652 19.477783 
L 138.150903 110.666262 
L 138.284804 127.359956 
L 138.43158 127.854829 
L 138.43673 127.88782 
L 138.555181 127.458931 
L 138.557756 127.491922 
L 138.632432 127.096024 
L 138.637582 127.096024 
L 138.776633 126.271237 
L 138.779208 126.304229 
L 139.039285 124.390722 
L 139.04186 124.423714 
L 139.106236 123.862858 
L 139.459014 120.761658 
L 139.466739 120.662684 
L 140.033244 112.084896 
L 140.051269 101.626594 
L 140.079594 19.939664 
L 140.156845 108.653781 
L 140.288171 126.436195 
L 140.290746 126.403203 
L 140.404047 126.931067 
L 140.419497 126.898075 
L 140.501897 126.832093 
L 140.507047 126.865084 
L 140.630648 126.33722 
L 140.638374 126.370212 
L 140.700174 125.908331 
L 140.707899 125.941322 
L 140.8624 124.78662 
L 140.864975 124.819612 
L 140.929351 124.225765 
L 140.944801 124.12679 
L 141.269254 121.355505 
L 141.271829 121.388497 
L 141.336204 120.79465 
L 141.341354 120.761658 
L 141.490706 119.277041 
L 141.493281 119.310033 
L 141.549931 118.617211 
L 141.562806 118.518237 
L 142.039185 111.095152 
L 142.05721 106.608309 
L 142.08811 20.467528 
L 142.165361 106.6413 
L 142.296687 125.908331 
L 142.299262 125.875339 
L 142.428013 126.205254 
L 142.430588 126.139271 
L 142.482089 126.073288 
L 142.603115 125.611407 
L 142.608265 125.644399 
L 142.61084 125.710382 
L 142.68809 125.182518 
L 142.700965 125.182518 
L 142.726716 125.083544 
L 142.868342 124.291748 
L 142.881217 124.225765 
L 143.035718 123.071063 
L 143.053743 122.972088 
L 143.208245 121.784395 
L 143.21082 121.817386 
L 143.270045 121.289522 
L 143.275195 121.289522 
L 143.445147 119.738922 
L 143.452872 119.639948 
L 143.993626 111.293101 
L 144.021951 105.354632 
L 144.052852 21.193341 
L 144.130102 107.07019 
L 144.264003 125.380467 
L 144.287179 125.44645 
L 144.330954 125.644399 
L 144.397904 125.545424 
L 144.534381 125.215509 
L 144.536956 125.281492 
L 144.619356 124.852603 
L 144.627081 124.852603 
L 144.768707 124.060807 
L 144.771282 124.093799 
L 144.830508 123.532943 
L 144.838233 123.565935 
L 145.005609 122.114309 
L 145.536064 116.736696 
L 145.546364 116.637722 
L 145.842491 111.49105 
L 145.870817 102.517364 
L 145.901717 21.39129 
L 145.978967 106.905232 
L 146.112868 124.654654 
L 146.24677 125.050552 
L 146.25192 125.017561 
L 146.32917 124.918586 
L 146.342045 124.984569 
L 146.457921 124.423714 
L 146.468221 124.357731 
L 146.614998 123.367986 
L 146.617573 123.400978 
L 146.679373 122.840122 
L 146.681948 122.840122 
L 147.150602 118.254305 
L 147.153177 118.287297 
L 147.214978 117.726441 
L 147.449304 114.559258 
L 147.593506 111.293101 
L 147.634706 107.268139 
L 147.668181 21.886162 
L 147.745432 104.100956 
L 147.881908 124.060807 
L 147.907658 124.159782 
L 147.969459 124.390722 
L 148.023534 124.291748 
L 148.090485 124.225765 
L 148.211511 123.631918 
L 148.214086 123.664909 
L 148.224386 123.565935 
L 148.234686 123.598926 
L 148.461288 121.91636 
L 148.463863 121.949352 
L 148.533388 121.421488 
L 149.465546 108.158909 
L 149.480996 90.673419 
L 149.506746 22.644966 
L 149.586572 105.057709 
L 149.720473 123.631918 
L 149.738498 123.730892 
L 149.864674 124.093799 
L 149.872399 124.060807 
L 149.885274 124.12679 
L 150.0063 123.763884 
L 150.019176 123.664909 
L 150.026901 123.697901 
L 150.263803 121.91636 
L 150.266378 121.949352 
L 150.325603 121.322514 
L 151.193385 108.818739 
L 151.213985 98.8883 
L 151.244886 22.809924 
L 151.322136 104.034973 
L 151.456037 123.038071 
L 151.579638 123.466961 
L 151.597664 123.433969 
L 151.605389 123.466961 
L 151.736715 122.972088 
L 151.73929 123.071063 
L 151.829415 122.543199 
L 151.834565 122.543199 
L 151.847441 122.477216 
L 152.007092 121.223539 
L 152.965 107.532071 
L 152.983025 91.531198 
L 153.01135 23.007873 
L 153.088601 103.07822 
L 153.222502 122.510207 
L 153.248252 122.609182 
L 153.338378 122.873114 
L 153.366703 122.807131 
L 153.469704 122.477216 
L 153.485154 122.510207 
L 153.629355 121.619437 
L 153.64738 121.520463 
L 153.997583 118.452254 
L 154.007883 118.35328 
L 154.20616 116.043875 
L 154.208735 116.076867 
L 154.26796 115.48302 
L 154.270535 115.48302 
L 154.502287 112.38182 
L 154.605288 109.643526 
L 154.654214 104.892751 
L 154.690264 23.073856 
L 154.767515 100.504883 
L 154.903991 122.015335 
L 154.988966 122.312258 
L 155.022442 122.213284 
L 155.153768 121.751403 
L 155.032742 122.279267 
L 155.166643 121.784395 
L 155.189818 121.68542 
L 155.393245 120.464735 
L 155.398395 120.497726 
L 155.46277 120.002854 
L 155.465345 120.002854 
L 156.044725 113.965411 
L 156.0473 114.031394 
L 156.116826 113.107633 
L 156.124551 113.173616 
L 156.382053 99.614113 
L 156.415528 23.40377 
L 156.490204 98.954283 
L 156.62668 121.520463 
L 156.63183 121.487471 
L 156.70393 121.850377 
L 156.714231 121.817386 
L 156.791481 121.91636 
L 156.817231 121.718412 
L 156.822381 121.784395 
L 156.940832 121.322514 
L 156.943407 121.388497 
L 157.21121 119.376016 
L 157.21636 119.310033 
L 157.378586 117.990373 
L 157.394036 117.92439 
L 157.587163 115.812935 
L 157.597463 115.71396 
L 157.85754 111.886947 
L 157.975991 108.983696 
L 158.022341 100.966764 
L 158.055817 23.436762 
L 158.133067 99.581122 
L 158.269543 121.388497 
L 158.400869 121.883369 
L 158.413744 121.817386 
L 158.439495 121.751403 
L 158.575971 121.091573 
L 158.905574 118.221314 
L 158.908149 118.287297 
L 158.985399 117.429518 
L 158.987974 117.528492 
L 159.142475 115.845926 
L 159.644605 108.026943 
L 159.685805 103.507109 
L 159.721855 24.228558 
L 159.799106 97.667615 
L 159.935582 120.497726 
L 159.938157 120.464735 
L 160.017983 120.79465 
L 160.110683 121.02559 
L 160.133859 120.959607 
L 160.33471 119.804905 
L 160.352735 119.705931 
L 160.803364 115.318062 
L 160.805939 115.351054 
L 160.860015 114.625241 
L 161.215367 108.653781 
L 161.279743 100.86779 
L 161.313218 24.49249 
L 161.390469 97.007785 
L 161.526945 120.101828 
L 161.532095 120.068837 
L 161.593896 120.431743 
L 161.614496 120.398752 
L 161.653121 120.464735 
L 161.681446 120.233794 
L 161.712347 120.299777 
L 161.856548 119.441999 
L 162.201601 116.439773 
L 162.209326 116.37379 
L 162.420477 113.800454 
L 162.435928 113.734471 
L 162.667679 110.633271 
L 162.675404 110.534296 
L 162.912306 102.715313 
L 162.950932 24.888388 
L 163.030757 98.624368 
L 163.167234 119.837897 
L 163.187834 119.936871 
L 163.265084 120.530718 
L 163.280534 119.804905 
L 163.306285 120.167811 
L 163.31401 120.101828 
L 163.32431 120.167811 
L 163.453061 119.310033 
L 163.455636 119.343024 
L 163.520011 118.81516 
L 163.525161 118.81516 
L 163.859914 115.845926 
L 163.865064 115.878918 
L 163.877939 115.779943 
L 164.055616 114.064386 
L 164.058191 114.097377 
L 164.122566 113.536522 
L 164.127716 113.602505 
L 164.634996 105.684547 
L 164.668471 98.294453 
L 164.704521 25.119328 
L 164.779197 95.12727 
L 164.918248 118.947126 
L 165.046999 119.606956 
L 165.052149 119.540973 
L 165.101074 119.47499 
L 165.2221 118.848152 
L 165.224675 118.914135 
L 165.247851 118.848152 
L 165.404927 117.594475 
L 165.407502 117.660458 
L 165.484753 116.868662 
L 166.252109 105.651556 
L 166.280434 101.692577 
L 166.319059 25.251294 
L 166.39631 93.609662 
L 166.535361 118.749177 
L 166.633212 119.178067 
L 166.674412 119.145075 
L 166.798013 118.650203 
L 167.125041 115.878918 
L 167.135341 115.779943 
L 167.163666 115.878918 
L 167.825447 105.51959 
L 167.866647 98.954283 
L 167.902697 25.548217 
L 167.979948 93.213764 
L 168.116424 118.58422 
L 168.118999 118.551228 
L 168.183375 118.848152 
L 168.234875 118.782169 
L 168.240025 118.81516 
L 168.327576 118.617211 
L 168.330151 118.650203 
L 168.464052 118.023365 
L 168.474352 117.92439 
L 168.961031 113.107633 
L 168.971331 113.008658 
L 169.172183 110.666262 
L 169.177333 110.567288 
L 169.42711 105.981471 
L 169.49406 92.421968 
L 169.527536 25.977107 
L 169.602211 91.564189 
L 169.741262 117.594475 
L 169.867439 118.386271 
L 169.903489 118.254305 
L 170.07859 117.429518 
L 170.09404 117.363535 
L 170.263992 115.812935 
L 170.274292 115.746952 
L 170.433943 114.460284 
L 170.446818 114.361309 
L 170.639945 112.249854 
L 170.64767 112.282845 
L 170.961823 106.740275 
L 171.044223 100.603858 
L 171.082849 26.04309 
L 171.160099 91.597181 
L 171.291425 117.429518 
L 171.29915 117.297552 
L 171.407301 117.627467 
L 171.3043 117.198577 
L 171.420176 117.561484 
L 171.430476 117.594475 
L 171.505152 117.330543 
L 171.512877 117.363535 
L 171.639053 116.703705 
L 171.659653 116.604731 
L 171.89913 114.922165 
L 171.901705 114.955156 
L 171.955781 114.295326 
L 171.960931 114.328318 
L 172.558336 105.321641 
L 172.609836 97.535649 
L 172.645886 26.076081 
L 172.723137 91.069317 
L 172.864763 116.538748 
L 173.016689 117.429518 
L 173.03214 117.330543 
L 173.160891 116.802679 
L 173.163466 116.868662 
L 173.248441 116.274816 
L 173.251016 116.274816 
L 173.253591 116.307807 
L 173.315392 115.746952 
L 173.317967 115.746952 
L 174.170299 103.474117 
L 174.196049 95.55616 
L 174.232099 26.603945 
L 174.30935 91.102309 
L 174.448401 116.439773 
L 174.494752 116.37379 
L 174.551402 116.538748 
L 174.608052 116.637722 
L 174.610627 116.670714 
L 174.695603 116.538748 
L 174.711053 116.538748 
L 174.857829 115.614986 
L 174.86813 115.516011 
L 175.658661 104.034973 
L 175.712737 92.949832 
L 175.748787 26.999843 
L 175.826037 89.254785 
L 175.967664 116.010884 
L 175.988264 116.109858 
L 176.055214 116.604731 
L 176.127315 116.538748 
L 176.256066 116.076867 
L 176.271516 115.977892 
L 176.276666 116.010884 
L 176.477518 114.724216 
L 176.480093 114.757207 
L 176.536743 114.097377 
L 177.268049 103.30916 
L 177.31955 92.718892 
L 177.3556 27.527707 
L 177.430276 87.275296 
L 177.574477 115.384045 
L 177.685203 116.14285 
L 177.736703 116.043875 
L 177.801079 115.977892 
L 177.947855 114.988148 
L 177.95558 115.021139 
L 178.01738 114.493275 
L 178.019955 114.493275 
L 178.398484 111.06216 
L 178.401059 111.095152 
L 178.460284 110.501305 
L 178.674011 107.796003 
L 178.676586 107.828994 
L 178.728086 107.136173 
L 178.921213 99.515139 
L 178.944388 67.777325 
L 178.967563 27.857622 
L 179.047389 90.706411 
L 179.18129 114.922165 
L 179.189015 114.889173 
L 179.289441 115.285071 
L 179.317766 115.120113 
L 179.353816 115.153105 
L 179.438792 114.955156 
L 179.443942 115.021139 
L 179.510893 114.526267 
L 179.513468 114.559258 
L 179.660244 113.635496 
L 179.678269 113.536522 
L 179.845645 112.084896 
L 179.853371 112.117888 
L 180.4379 103.07822 
L 180.491976 94.797355 
L 180.530601 27.956596 
L 180.607852 86.615466 
L 180.754628 115.05413 
L 180.757203 114.955156 
L 180.849904 115.581994 
L 180.878229 115.647977 
L 180.885954 115.71396 
L 180.973505 115.318062 
L 180.97608 115.318062 
L 181.004405 115.285071 
L 181.135731 114.460284 
L 181.57606 110.237373 
L 181.58636 110.138398 
L 182.049864 102.781296 
L 182.111664 98.393428 
L 182.137414 58.638682 
L 182.158014 28.25352 
L 182.23784 88.067091 
L 182.384616 114.295326 
L 182.521092 114.856182 
L 182.533968 114.82319 
L 182.691044 114.196352 
L 182.701344 114.262335 
L 182.765719 113.734471 
L 182.945971 111.919939 
L 182.958846 111.820964 
L 183.579426 102.517364 
L 183.638652 94.038551 
L 183.679852 28.418477 
L 183.754528 84.602985 
L 183.901304 113.602505 
L 184.045505 114.493275 
L 184.223181 113.635496 
L 184.233481 113.536522 
L 184.501284 111.227118 
L 184.624885 128.811582 
L 184.856637 135.046974 
L 185.333016 139.731765 
L 185.345891 139.797748 
L 185.472067 140.424587 
L 185.479792 140.391595 
L 185.495242 140.457578 
L 185.623993 141.117408 
L 185.629143 141.084416 
L 185.647168 141.051425 
L 185.714119 141.348348 
L 185.721844 141.315357 
L 185.760469 141.414331 
L 185.860895 141.744246 
L 185.881495 141.711255 
L 185.938145 141.810229 
L 186.056596 142.04117 
L 186.102947 142.140144 
L 186.126122 142.074161 
L 186.229123 142.371084 
L 186.252298 142.305101 
L 186.326974 142.470059 
L 186.337274 142.371084 
L 186.391349 142.338093 
L 186.4583 142.569033 
L 186.507225 142.50305 
L 186.532975 142.668008 
L 186.566451 142.602025 
L 186.635976 142.766982 
L 186.587051 142.536042 
L 186.682327 142.700999 
L 186.710652 142.635016 
L 186.744127 142.799974 
L 186.790477 142.766982 
L 186.813653 142.700999 
L 186.875453 142.865957 
L 186.896053 142.832965 
L 187.011929 142.964931 
L 186.924379 142.766982 
L 187.014504 142.93194 
L 187.04283 142.865957 
L 187.029954 142.964931 
L 187.122655 142.964931 
L 187.153555 142.93194 
L 187.238531 143.030914 
L 187.266856 142.964931 
L 187.377582 142.832965 
L 187.277156 142.997923 
L 187.380157 142.898948 
L 187.478008 142.766982 
L 187.387882 142.93194 
L 187.496033 142.832965 
L 187.614484 142.93194 
L 187.712335 142.865957 
L 187.635084 142.964931 
L 187.72006 142.93194 
L 187.722635 142.997923 
L 187.825636 142.799974 
L 187.828211 142.865957 
L 187.928637 142.766982 
L 187.859111 142.898948 
L 187.941512 142.799974 
L 188.016188 142.865957 
L 188.029063 142.766982 
L 188.049663 142.799974 
L 188.059963 142.832965 
L 188.173264 142.602025 
L 188.245364 142.733991 
L 188.281415 142.602025 
L 188.28914 142.635016 
L 188.399866 142.437067 
L 188.443641 142.536042 
L 188.487416 142.338093 
L 188.510592 142.437067 
L 188.582692 142.27211 
L 188.623893 142.305101 
L 188.665093 142.404076 
L 188.701143 142.239118 
L 188.737193 142.338093 
L 188.855644 142.206127 
L 188.90972 142.27211 
L 188.912295 142.107153 
L 188.963795 142.173136 
L 189.028171 142.04117 
L 188.994696 142.206127 
L 189.074521 142.107153 
L 189.126022 142.173136 
L 189.100271 142.04117 
L 189.182672 142.107153 
L 189.272798 142.008178 
L 189.295973 142.04117 
L 189.398974 142.107153 
L 189.306273 142.008178 
L 189.406699 142.04117 
L 189.409274 142.074161 
L 189.476225 141.876212 
L 189.512275 141.975187 
L 190.325981 141.876212 
L 190.436707 141.777238 
L 190.333707 141.909204 
L 190.439282 141.810229 
L 190.552583 141.678263 
L 190.465033 141.876212 
L 190.555158 141.744246 
L 190.557733 141.777238 
L 190.616959 141.61228 
L 190.660734 141.711255 
L 190.774035 141.513306 
L 190.78176 141.579289 
L 190.784335 141.61228 
L 190.864161 141.414331 
L 190.884761 141.480314 
L 190.980037 141.348348 
L 191.000637 141.38134 
L 191.034112 141.447323 
L 191.054712 141.315357 
L 191.111363 141.414331 
L 191.121663 141.480314 
L 191.224664 141.348348 
L 191.250414 141.447323 
L 191.278739 141.315357 
L 191.33539 141.38134 
L 191.440966 141.216382 
L 191.456416 141.249374 
L 191.577442 141.150399 
L 191.690743 141.051425 
L 191.610917 141.216382 
L 191.693318 141.084416 
L 191.734518 141.051425 
L 191.806619 141.150399 
L 191.878719 141.084416 
L 191.891594 141.216382 
L 191.91477 141.150399 
L 192.02292 141.282365 
L 191.968845 141.084416 
L 192.030645 141.216382 
L 192.089871 141.117408 
L 192.097596 141.249374 
L 192.136221 141.216382 
L 192.236647 141.315357 
L 192.149096 141.183391 
L 192.249522 141.282365 
L 192.349948 141.216382 
L 192.272697 141.315357 
L 192.362823 141.249374 
L 192.442649 141.183391 
L 192.458099 141.117408 
L 192.488999 141.282365 
L 192.548225 141.216382 
L 192.640926 141.282365 
L 192.61775 141.150399 
L 192.658951 141.216382 
L 192.792852 141.117408 
L 192.872677 141.018433 
L 192.810877 141.183391 
L 192.903578 141.117408 
L 192.911303 141.018433 
L 192.913878 140.985442 
L 192.939628 141.117408 
L 193.014304 141.117408 
L 193.016879 141.183391 
L 193.117304 140.95245 
L 193.122454 141.051425 
L 193.14563 141.117408 
L 193.210005 140.985442 
L 193.22803 141.018433 
L 193.313006 140.919459 
L 193.279531 141.084416 
L 193.338756 140.985442 
L 193.441757 141.084416 
L 193.449482 141.018433 
L 193.488107 141.084416 
L 193.567933 140.919459 
L 193.637459 140.95245 
L 193.743035 141.117408 
L 193.75076 141.051425 
L 193.758485 141.150399 
L 193.77651 140.95245 
L 193.858911 141.018433 
L 193.972211 140.95245 
L 194.049462 140.853476 
L 194.082937 140.919459 
L 194.667467 140.985442 
L 194.752443 141.084416 
L 194.688067 140.919459 
L 194.778193 141.018433 
L 194.847719 141.084416 
L 194.927544 141.216382 
L 194.958445 141.117408 
L 195.419373 141.183391 
L 195.522374 141.282365 
L 195.476024 141.117408 
L 195.530099 141.249374 
L 195.56615 141.150399 
L 195.542974 141.282365 
L 195.640825 141.216382 
L 196.009053 141.150399 
L 196.099179 141.084416 
L 196.021928 141.183391 
L 196.119779 141.150399 
L 196.29488 141.216382 
L 196.410756 141.348348 
L 196.439082 141.282365 
L 196.495732 141.414331 
L 196.518907 141.38134 
L 196.593583 141.447323 
L 196.560108 141.315357 
L 196.624483 141.315357 
L 196.745509 141.282365 
L 196.82276 141.117408 
L 196.856235 141.216382 
L 196.930911 141.282365 
L 196.866535 141.117408 
L 196.966961 141.216382 
L 197.206438 141.150399 
L 197.209013 141.084416 
L 197.245063 141.216382 
L 197.317164 141.117408 
L 197.373814 141.216382 
L 197.43304 141.183391 
L 197.680242 141.084416 
L 197.772943 140.985442 
L 197.687967 141.150399 
L 197.793543 141.051425 
L 197.865643 141.117408 
L 197.881094 140.95245 
L 197.901694 141.051425 
L 198.004695 140.985442 
L 197.935169 141.117408 
L 198.01242 141.018433 
L 198.097395 141.150399 
L 198.081945 140.985442 
L 198.125721 141.117408 
L 198.148896 141.018433 
L 198.164346 141.150399 
L 198.236446 141.051425 
L 198.254472 141.018433 
L 198.352322 141.150399 
L 198.426998 141.051425 
L 198.388373 141.216382 
L 198.460473 141.117408 
L 198.506824 141.183391 
L 198.545449 141.051425 
L 198.571199 141.150399 
L 198.666475 141.051425 
L 198.681925 141.117408 
L 198.795226 141.216382 
L 198.687075 141.084416 
L 198.797801 141.183391 
L 198.885352 141.084416 
L 198.802951 141.216382 
L 198.911102 141.117408 
L 198.972902 141.216382 
L 199.068178 141.249374 
L 198.980628 141.117408 
L 199.081053 141.183391 
L 199.261305 141.117408 
L 199.33083 141.018433 
L 199.372031 141.051425 
L 199.377181 141.117408 
L 199.428681 140.95245 
L 199.475032 140.95245 
L 200.265563 140.886467 
L 200.270713 140.919459 
L 200.378864 140.787493 
L 200.450965 140.886467 
L 200.445815 140.754501 
L 200.48959 140.787493 
L 200.592591 140.72151 
L 200.502465 140.853476 
L 200.600316 140.787493 
L 200.695592 140.853476 
L 200.659541 140.688518 
L 200.711042 140.787493 
L 200.796017 140.688518 
L 200.850093 140.655527 
L 200.860393 140.754501 
L 200.906743 140.688518 
L 201.071545 140.787493 
L 201.102445 140.820484 
L 201.10502 140.688518 
L 201.179696 140.754501 
L 201.411448 140.820484 
L 201.470673 140.886467 
L 201.432048 140.787493 
L 201.522173 140.820484 
L 201.604574 140.754501 
L 201.540199 140.853476 
L 201.625174 140.853476 
L 201.627749 140.919459 
L 201.73075 140.72151 
L 201.733325 140.787493 
L 201.849201 140.787493 
L 201.934177 140.589544 
L 201.962502 140.622535 
L 202.006277 140.72151 
L 202.016577 140.589544 
L 202.070653 140.655527 
L 202.165929 140.556552 
L 202.078378 140.688518 
L 202.181379 140.622535 
L 202.297255 140.754501 
L 202.302405 140.655527 
L 202.31013 140.787493 
L 202.407981 140.754501 
L 202.693808 140.820484 
L 202.747883 140.754501 
L 202.807109 140.886467 
L 202.838009 140.886467 
L 202.92556 140.754501 
L 202.948735 140.853476 
L 203.412239 140.787493 
L 203.448289 140.72151 
L 203.419964 140.820484 
L 203.522965 140.754501 
L 203.976169 140.820484 
L 204.089469 140.919459 
L 204.117795 140.886467 
L 204.133245 141.018433 
L 204.19762 140.95245 
L 204.988152 141.051425 
L 204.990727 141.084416 
L 204.993302 140.919459 
L 205.093728 140.985442 
L 205.122053 140.95245 
L 205.152953 141.084416 
L 205.201879 141.018433 
L 205.814734 141.117408 
L 205.837909 141.183391 
L 205.863659 141.018433 
L 205.92031 141.051425 
L 206.051636 141.117408 
L 206.054211 141.216382 
L 206.136611 141.051425 
L 206.159786 141.084416 
L 206.360638 141.018433 
L 206.440464 140.95245 
L 206.466214 141.084416 
L 206.471364 141.018433 
L 206.512564 140.985442 
L 206.55119 141.117408 
L 206.57694 141.084416 
L 206.641315 141.018433 
L 206.654191 141.084416 
L 206.752041 140.95245 
L 206.857617 141.051425 
L 206.764916 140.919459 
L 206.865342 141.018433 
L 206.940018 140.95245 
L 206.958043 141.084416 
L 206.976068 141.018433 
L 206.996668 141.084416 
L 207.045594 140.919459 
L 207.086794 141.018433 
L 207.444722 141.018433 
L 207.552873 141.216382 
L 207.558023 141.183391 
L 208.196628 141.084416 
L 208.268729 141.018433 
L 208.212078 141.117408 
L 208.309929 141.051425 
L 208.41808 141.183391 
L 208.425805 141.117408 
L 208.606057 141.117408 
L 208.608632 140.985442 
L 208.714207 141.150399 
L 208.716782 141.183391 
L 208.768283 140.95245 
L 208.817208 141.117408 
L 208.925359 140.95245 
L 208.933084 140.985442 
L 208.97686 140.886467 
L 209.046385 141.018433 
L 209.157111 140.820484 
L 209.159686 140.886467 
L 209.265262 140.95245 
L 209.216337 140.853476 
L 209.272987 140.919459 
L 209.303887 140.853476 
L 209.327062 140.985442 
L 209.386288 140.886467 
L 209.646365 140.787493 
L 209.757091 140.622535 
L 209.651515 140.853476 
L 209.764816 140.655527 
L 209.824042 140.72151 
L 209.777691 140.556552 
L 209.875542 140.655527 
L 209.927042 140.589544 
L 209.929617 140.523561 
L 210.012018 140.688518 
L 210.037768 140.589544 
L 210.055793 140.688518 
L 210.094419 140.457578 
L 210.148494 140.589544 
L 210.25922 140.490569 
L 210.351921 140.457578 
L 210.28497 140.589544 
L 210.369946 140.490569 
L 210.678949 140.556552 
L 210.740749 140.622535 
L 210.774224 140.457578 
L 210.789675 140.556552 
L 210.8489 140.622535 
L 210.86435 140.556552 
L 210.962201 140.688518 
L 210.995676 140.556552 
L 211.072927 140.655527 
L 211.137302 140.754501 
L 211.080652 140.622535 
L 211.183653 140.655527 
L 211.902084 140.622535 
L 211.904659 140.523561 
L 211.917534 140.688518 
L 212.01281 140.622535 
L 212.072035 140.589544 
L 212.180186 140.457578 
L 212.182761 140.523561 
L 212.656565 140.424587 
L 212.687465 140.523561 
L 212.769866 140.391595 
L 212.865142 140.457578 
L 212.795616 140.358604 
L 212.880592 140.391595 
L 213.22822 140.292621 
L 213.302895 140.160655 
L 213.24367 140.325612 
L 213.34152 140.193646 
L 213.439371 140.292621 
L 213.454821 140.259629 
L 213.575847 140.226638 
L 213.629923 140.127663 
L 213.588722 140.292621 
L 213.686573 140.160655 
L 213.714899 140.292621 
L 213.781849 140.094672 
L 213.794724 140.127663 
L 213.841075 140.06168 
L 213.8591 140.160655 
L 213.90545 140.094672 
L 213.918325 140.028689 
L 214.021326 140.193646 
L 214.047076 140.127663 
L 214.098577 140.292621 
L 214.126902 140.226638 
L 214.242778 140.325612 
L 214.291703 140.259629 
L 214.268528 140.391595 
L 214.345779 140.358604 
L 214.44878 140.424587 
L 214.384404 140.292621 
L 214.456505 140.358604 
L 214.592981 140.424587 
L 214.636756 140.490569 
L 214.685681 140.358604 
L 214.703707 140.457578 
L 215.092535 140.490569 
L 215.200686 140.754501 
L 215.205836 140.622535 
L 215.277936 140.72151 
L 215.231586 140.556552 
L 215.316562 140.655527 
L 215.411837 140.589544 
L 215.388662 140.72151 
L 215.427288 140.655527 
L 215.659039 140.754501 
L 215.733715 140.820484 
L 215.759465 140.655527 
L 215.769765 140.754501 
L 215.805816 140.655527 
L 215.816116 140.787493 
L 215.880491 140.72151 
L 215.996367 140.853476 
L 216.099368 140.754501 
L 216.058168 140.919459 
L 216.107093 140.820484 
L 216.307945 140.853476 
L 216.398071 140.985442 
L 216.418671 140.919459 
L 216.457296 140.853476 
L 216.516522 141.018433 
L 216.526822 140.919459 
L 216.529397 140.985442 
L 216.616947 140.787493 
L 216.632397 140.853476 
L 216.637548 140.787493 
L 216.663298 140.919459 
L 216.740548 140.853476 
L 216.789474 140.95245 
L 216.853849 140.919459 
L 216.892475 140.95245 
L 216.96715 140.820484 
L 217.054701 140.95245 
L 217.077876 140.886467 
L 217.152552 140.820484 
L 217.083026 140.95245 
L 217.188602 140.886467 
L 217.214352 140.95245 
L 217.240102 140.820484 
L 217.299328 140.886467 
L 217.394604 140.754501 
L 217.399754 140.919459 
L 217.412629 140.787493 
L 217.484729 140.72151 
L 217.523355 140.655527 
L 217.55168 140.787493 
L 217.595455 140.72151 
L 217.685581 140.787493 
L 217.773132 140.853476 
L 217.765407 140.688518 
L 217.796307 140.787493 
L 217.809182 140.688518 
L 217.834932 140.886467 
L 217.907033 140.787493 
L 217.953383 140.820484 
L 217.984284 140.72151 
L 218.012609 140.754501 
L 218.11561 140.655527 
L 218.051234 140.820484 
L 218.128485 140.688518 
L 218.288136 140.589544 
L 218.331911 140.523561 
L 218.321611 140.655527 
L 218.396287 140.622535 
L 218.988542 140.589544 
L 219.101843 140.424587 
L 219.215144 140.523561 
L 219.217719 140.490569 
L 219.318145 140.358604 
L 219.228019 140.523561 
L 219.33102 140.391595 
L 219.452046 140.490569 
L 219.506121 140.523561 
L 219.542171 140.358604 
L 219.557621 140.424587 
L 219.575647 140.391595 
L 219.650322 140.556552 
L 219.663197 140.424587 
L 219.686373 140.589544 
L 219.773923 140.457578 
L 219.851174 140.556552 
L 219.887224 140.490569 
L 219.995375 140.358604 
L 220.0031 140.391595 
L 220.088076 140.490569 
L 220.118976 140.457578 
L 220.203952 140.523561 
L 220.306953 140.655527 
L 220.314678 140.622535 
L 220.381628 140.523561 
L 220.366178 140.655527 
L 220.425404 140.589544 
L 220.525829 140.72151 
L 220.543855 140.688518 
L 220.58763 140.655527 
L 220.636555 140.820484 
L 220.652005 140.72151 
L 220.700931 140.820484 
L 220.773031 140.72151 
L 220.814232 140.853476 
L 220.901783 140.787493 
L 220.945558 140.688518 
L 220.953283 140.820484 
L 221.012508 140.754501 
L 221.038259 140.853476 
L 221.112934 140.688518 
L 221.123234 140.754501 
L 221.16701 140.655527 
L 221.20821 140.853476 
L 221.226235 140.754501 
L 221.339536 140.919459 
L 221.419362 140.820484 
L 221.452837 140.853476 
L 221.568713 140.95245 
L 221.671714 141.018433 
L 221.682014 140.886467 
L 221.705189 140.985442 
L 221.738664 140.853476 
L 221.79274 140.919459 
L 221.893166 140.886467 
L 221.877716 140.985442 
L 221.903466 140.919459 
L 222.063117 141.018433 
L 222.065692 141.084416 
L 222.109467 140.919459 
L 222.171268 140.985442 
L 223.015875 141.084416 
L 223.093126 141.117408 
L 223.082825 140.985442 
L 223.121451 141.018433 
L 223.332602 140.95245 
L 223.391828 140.985442 
L 223.448478 140.820484 
L 223.839882 140.820484 
L 223.842457 140.688518 
L 223.883657 140.886467 
L 223.950608 140.754501 
L 224.421836 140.820484 
L 224.483637 140.95245 
L 224.429561 140.787493 
L 224.532562 140.853476 
L 224.648438 140.95245 
L 224.651013 141.018433 
L 224.671613 140.853476 
L 224.759164 140.95245 
L 225.073317 140.919459 
L 225.075892 140.820484 
L 225.119667 140.985442 
L 225.181468 140.919459 
L 225.269018 141.117408 
L 225.199493 140.886467 
L 225.294769 141.051425 
L 225.402919 140.886467 
L 225.312794 141.084416 
L 225.415795 140.919459 
L 225.52652 141.051425 
L 225.642396 140.919459 
L 225.753122 140.985442 
L 225.650122 140.886467 
L 225.755697 140.95245 
L 225.935949 140.919459 
L 226.03895 140.820484 
L 225.971999 140.95245 
L 226.046675 140.919459 
L 226.188301 140.853476 
L 226.252676 140.754501 
L 226.273277 140.886467 
L 226.299027 140.820484 
L 226.399453 140.886467 
L 226.304177 140.787493 
L 226.409753 140.820484 
L 226.747081 140.754501 
L 226.808881 140.655527 
L 226.857806 140.688518 
L 227.141059 140.622535 
L 227.223459 140.72151 
L 227.25436 140.556552 
L 227.33676 140.688518 
L 227.372811 140.655527 
L 227.668938 140.688518 
L 227.679238 140.820484 
L 227.756489 140.655527 
L 227.779664 140.688518 
L 227.810564 140.655527 
L 227.89554 140.787493 
L 227.977941 140.655527 
L 228.008841 140.72151 
L 228.104117 140.787493 
L 228.016566 140.688518 
L 228.116992 140.72151 
L 228.155617 140.787493 
L 228.227718 140.655527 
L 228.261193 140.754501 
L 228.297243 140.622535 
L 228.335869 140.655527 
L 228.356469 140.72151 
L 228.449169 140.589544 
L 228.55732 140.688518 
L 228.49552 140.523561 
L 228.56247 140.655527 
L 228.670621 140.556552 
L 228.606246 140.688518 
L 228.678346 140.589544 
L 228.753022 140.655527 
L 228.704097 140.523561 
L 228.789072 140.622535 
L 228.827698 140.523561 
L 228.863748 140.655527 
L 228.902373 140.556552 
L 229.018249 140.72151 
L 229.020824 140.688518 
L 229.123825 140.556552 
L 229.025974 140.72151 
L 229.139275 140.589544 
L 229.221676 140.688518 
L 229.15215 140.556552 
L 229.250001 140.589544 
L 229.68518 140.655527 
L 229.78818 140.72151 
L 229.703205 140.622535 
L 229.793331 140.655527 
L 229.847406 140.556552 
L 229.875731 140.688518 
L 229.906631 140.622535 
L 230.328935 140.688518 
L 230.33151 140.754501 
L 230.339235 140.622535 
L 230.439661 140.688518 
L 230.954665 140.787493 
L 231.060241 140.853476 
L 230.995865 140.72151 
L 231.067966 140.820484 
L 231.389844 140.886467 
L 231.503145 141.018433 
L 231.51602 140.919459 
L 231.508295 141.051425 
L 231.61387 141.018433 
L 231.858497 141.117408 
L 231.863648 141.051425 
L 231.974373 141.183391 
L 231.994974 141.249374 
L 232.087674 141.117408 
L 232.1984 141.282365 
L 232.200975 141.249374 
L 232.234451 141.183391 
L 232.275651 141.315357 
L 232.306551 141.249374 
L 232.412127 141.414331 
L 232.340026 141.216382 
L 232.417277 141.315357 
L 232.419852 141.282365 
L 232.432727 141.38134 
L 232.522853 141.38134 
L 232.800955 141.282365 
L 232.849881 141.38134 
L 232.909106 141.249374 
L 233.009532 141.447323 
L 233.024982 141.38134 
L 233.058457 141.315357 
L 233.089358 141.414331 
L 233.133133 141.38134 
L 233.233559 141.513306 
L 233.171758 141.348348 
L 233.246434 141.414331 
L 233.339135 141.315357 
L 233.251584 141.480314 
L 233.359735 141.38134 
L 233.43956 141.282365 
L 233.537411 141.216382 
L 233.470461 141.348348 
L 233.550286 141.249374 
L 233.632687 141.315357 
L 233.560586 141.216382 
L 233.658437 141.249374 
L 233.663587 141.150399 
L 233.699638 141.315357 
L 233.769163 141.249374 
L 233.836114 141.183391 
L 233.805213 141.348348 
L 233.877314 141.249374 
L 233.985465 141.38134 
L 233.93139 141.216382 
L 233.99319 141.315357 
L 234.503044 141.249374 
L 234.523644 141.183391 
L 234.559695 141.348348 
L 234.611195 141.282365 
L 234.636945 141.249374 
L 234.724496 141.348348 
L 234.840372 141.216382 
L 234.943373 141.315357 
L 234.884147 141.183391 
L 234.951098 141.249374 
L 235.018048 141.315357 
L 235.064399 141.117408 
L 235.144224 141.249374 
L 235.1777 141.183391 
L 235.432627 141.150399 
L 235.545928 141.051425 
L 235.708154 141.084416 
L 235.800855 141.183391 
L 235.81888 141.150399 
L 236.040332 141.216382 
L 236.115007 141.282365 
L 236.073807 141.183391 
L 236.151058 141.249374 
L 236.241183 141.150399 
L 236.261784 141.117408 
L 236.284959 141.249374 
L 236.351909 141.150399 
L 236.43431 141.249374 
L 236.411135 141.117408 
L 236.46521 141.183391 
L 237.245442 141.084416 
L 237.248017 141.051425 
L 237.281492 141.183391 
L 237.353593 141.084416 
L 237.459168 141.150399 
L 237.363893 141.051425 
L 237.466894 141.117408 
L 237.572469 141.018433 
L 237.479769 141.150399 
L 237.580194 141.051425 
L 237.69607 141.183391 
L 237.763021 141.018433 
L 237.809371 141.051425 
L 238.133824 140.95245 
L 238.144124 140.919459 
L 238.22395 141.084416 
L 238.2394 141.018433 
L 238.674578 140.95245 
L 238.767279 140.853476 
L 238.682304 140.985442 
L 238.785304 140.919459 
L 238.82908 140.985442 
L 238.805905 140.853476 
L 238.893455 140.919459 
L 238.981006 140.787493 
L 238.90633 140.95245 
L 239.009331 140.853476 
L 239.027356 140.886467 
L 239.078857 140.72151 
L 239.114907 140.820484 
L 239.143232 140.72151 
L 239.171558 140.853476 
L 239.223058 140.820484 
L 239.318334 140.886467 
L 239.290008 140.754501 
L 239.336359 140.853476 
L 239.362109 140.787493 
L 239.382709 140.886467 
L 239.44451 140.886467 
L 239.768962 140.985442 
L 239.843638 141.051425 
L 239.802438 140.886467 
L 239.877113 140.985442 
L 239.995564 140.886467 
L 240.11144 141.084416 
L 240.114015 141.018433 
L 240.198991 140.919459 
L 240.180966 141.084416 
L 240.227316 140.95245 
L 240.330317 141.051425 
L 240.338042 141.018433 
L 240.443618 140.95245 
L 240.402418 141.084416 
L 240.451343 140.985442 
L 240.538894 141.051425 
L 240.479668 140.95245 
L 240.562069 140.985442 
L 240.590394 140.919459 
L 240.569794 141.018433 
L 240.67537 140.95245 
L 240.806696 141.051425 
L 240.809271 141.084416 
L 240.827296 140.95245 
L 240.909697 140.985442 
L 240.989522 140.919459 
L 240.945747 141.084416 
L 241.017848 141.018433 
L 241.177499 140.95245 
L 241.272775 140.886467 
L 241.203249 140.985442 
L 241.288225 140.95245 
L 241.329425 140.985442 
L 241.378351 140.853476 
L 241.388651 140.886467 
L 241.453026 140.820484 
L 241.483927 140.95245 
L 241.496802 140.886467 
L 241.499377 140.919459 
L 241.532852 140.754501 
L 241.602377 140.820484 
L 241.622978 140.886467 
L 241.630703 140.853476 
L 241.736279 140.985442 
L 241.787779 140.886467 
L 241.810954 141.018433 
L 241.847004 140.985442 
L 241.89593 141.051425 
L 241.85988 140.919459 
L 241.95773 141.018433 
L 242.004081 140.919459 
L 241.96288 141.051425 
L 242.068456 141.018433 
L 242.45986 141.117408 
L 242.565435 141.183391 
L 242.49076 141.051425 
L 242.570585 141.117408 
L 242.588611 141.084416 
L 242.683886 141.216382 
L 242.717362 141.084416 
L 242.784312 141.249374 
L 242.794612 141.216382 
L 243.088165 141.183391 
L 243.10619 141.051425 
L 243.155115 141.249374 
L 243.198891 141.150399 
L 243.605744 141.216382 
L 243.662394 141.282365 
L 243.631494 141.150399 
L 243.71647 141.216382 
L 243.78857 141.216382 
L 243.888996 141.051425 
L 243.899296 141.084416 
L 243.997147 141.183391 
L 243.955947 141.018433 
L 244.015172 141.150399 
L 244.120748 140.95245 
L 244.131048 140.985442 
L 244.401425 141.051425 
L 244.404 141.117408 
L 244.427176 140.985442 
L 244.512151 141.051425 
L 244.630602 140.853476 
L 244.700128 140.919459 
L 244.664078 140.787493 
L 244.738753 140.853476 
L 244.821154 140.688518 
L 244.751628 140.886467 
L 244.849479 140.787493 
L 244.862354 140.853476 
L 244.882954 140.72151 
L 244.960205 140.787493 
L 245.052906 140.853476 
L 245.037456 140.754501 
L 245.073506 140.820484 
L 245.088956 140.754501 
L 245.081231 140.886467 
L 245.181657 140.853476 
L 245.248607 140.95245 
L 245.251182 141.018433 
L 245.279508 140.853476 
L 245.359333 140.95245 
L 245.701811 140.985442 
L 245.704386 141.084416 
L 245.794512 140.886467 
L 245.809962 140.95245 
L 245.843437 141.018433 
L 245.925838 140.886467 
L 246.036564 140.985442 
L 246.095789 141.018433 
L 246.134415 140.853476 
L 246.144715 140.95245 
L 246.170465 140.886467 
L 246.19364 141.051425 
L 246.250291 141.018433 
L 246.355867 141.084416 
L 246.263166 140.95245 
L 246.361017 141.051425 
L 246.469167 140.95245 
L 246.476893 140.985442 
L 246.680319 140.919459 
L 246.682894 140.853476 
L 246.708644 140.985442 
L 246.78847 140.919459 
L 246.83482 140.985442 
L 246.870871 140.853476 
L 246.899196 140.919459 
L 246.901771 140.853476 
L 246.966147 141.018433 
L 247.007347 140.919459 
L 247.063997 140.886467 
L 247.125798 141.051425 
L 247.233949 140.919459 
L 247.239099 140.95245 
L 247.311199 140.985442 
L 247.298324 140.886467 
L 247.344675 140.886467 
L 247.4245 140.985442 
L 247.427075 141.018433 
L 247.455401 140.853476 
L 247.522351 140.886467 
L 247.524926 140.820484 
L 247.571276 140.95245 
L 247.633077 140.853476 
L 247.679427 140.820484 
L 247.743803 140.95245 
L 247.851954 140.820484 
L 247.756678 140.985442 
L 247.857104 140.886467 
L 248.202157 140.820484 
L 248.289707 140.886467 
L 248.312883 140.754501 
L 248.356658 140.820484 
L 248.325758 140.72151 
L 248.359233 140.754501 
" clip-path="url(#pc068d3e40e)" style="fill: none; stroke: #000000; stroke-opacity: 0.5; stroke-width: 1.5; stroke-linecap: square"/>
   </g>
   <g id="patch_3">
    <path d="M 35.304688 173.52 
L 35.304688 7.2 
" style="fill: none; stroke: #000000; stroke-width: 0.8; stroke-linejoin: miter; stroke-linecap: square"/>
   </g>
   <g id="patch_4">
    <path d="M 35.304688 173.52 
L 258.504687 173.52 
" style="fill: none; stroke: #000000; stroke-width: 0.8; stroke-linejoin: miter; stroke-linecap: square"/>
   </g>
  </g>
 </g>
 <defs>
  <clipPath id="pc068d3e40e">
   <rect x="35.304688" y="7.2" width="223.2" height="166.32"/>
  </clipPath>
 </defs>
</svg>
