<?xml version="1.0" encoding="utf-8" standalone="no"?>
<!DOCTYPE svg PUBLIC "-//W3C//DTD SVG 1.1//EN"
  "http://www.w3.org/Graphics/SVG/1.1/DTD/svg11.dtd">
<svg height="345.6pt" version="1.1" viewBox="0 0 460.8 345.6" width="460.8pt" xmlns="http://www.w3.org/2000/svg" xmlns:xlink="http://www.w3.org/1999/xlink">
 <metadata>
  <rdf:RDF xmlns:cc="http://creativecommons.org/ns#" xmlns:dc="http://purl.org/dc/elements/1.1/" xmlns:rdf="http://www.w3.org/1999/02/22-rdf-syntax-ns#">
   <cc:Work>
    <dc:type rdf:resource="http://purl.org/dc/dcmitype/StillImage"/>
    <dc:date>2024-08-06T14:41:16.469548</dc:date>
    <dc:format>image/svg+xml</dc:format>
    <dc:creator>
     <cc:Agent>
      <dc:title>Matplotlib v3.4.2, https://matplotlib.org/</dc:title>
     </cc:Agent>
    </dc:creator>
   </cc:Work>
  </rdf:RDF>
 </metadata>
 <defs>
  <style type="text/css">*{stroke-linecap:butt;stroke-linejoin:round;}</style>
 </defs>
 <g id="figure_1">
  <g id="patch_1">
   <path d="M 0 345.6 
L 460.8 345.6 
L 460.8 0 
L 0 0 
z
" style="fill:#ffffff;"/>
  </g>
  <g id="axes_1">
   <g id="patch_2">
    <path d="M 57.6 307.584 
L 414.72 307.584 
L 414.72 41.472 
L 57.6 41.472 
z
" style="fill:#ffffff;"/>
   </g>
   <g id="matplotlib.axis_1">
    <g id="xtick_1">
     <g id="line2d_1">
      <defs>
       <path d="M 0 0 
L 0 3.5 
" id="md46c6e6b61" style="stroke:#000000;stroke-width:0.8;"/>
      </defs>
      <g>
       <use style="stroke:#000000;stroke-width:0.8;" x="95.211629" xlink:href="#md46c6e6b61" y="307.584"/>
      </g>
     </g>
     <g id="text_1">
      <!-- 0.2 -->
      <g transform="translate(87.260067 322.182437)scale(0.1 -0.1)">
       <defs>
        <path d="M 2034 4250 
Q 1547 4250 1301 3770 
Q 1056 3291 1056 2328 
Q 1056 1369 1301 889 
Q 1547 409 2034 409 
Q 2525 409 2770 889 
Q 3016 1369 3016 2328 
Q 3016 3291 2770 3770 
Q 2525 4250 2034 4250 
z
M 2034 4750 
Q 2819 4750 3233 4129 
Q 3647 3509 3647 2328 
Q 3647 1150 3233 529 
Q 2819 -91 2034 -91 
Q 1250 -91 836 529 
Q 422 1150 422 2328 
Q 422 3509 836 4129 
Q 1250 4750 2034 4750 
z
" id="DejaVuSans-30" transform="scale(0.015625)"/>
        <path d="M 684 794 
L 1344 794 
L 1344 0 
L 684 0 
L 684 794 
z
" id="DejaVuSans-2e" transform="scale(0.015625)"/>
        <path d="M 1228 531 
L 3431 531 
L 3431 0 
L 469 0 
L 469 531 
Q 828 903 1448 1529 
Q 2069 2156 2228 2338 
Q 2531 2678 2651 2914 
Q 2772 3150 2772 3378 
Q 2772 3750 2511 3984 
Q 2250 4219 1831 4219 
Q 1534 4219 1204 4116 
Q 875 4013 500 3803 
L 500 4441 
Q 881 4594 1212 4672 
Q 1544 4750 1819 4750 
Q 2544 4750 2975 4387 
Q 3406 4025 3406 3419 
Q 3406 3131 3298 2873 
Q 3191 2616 2906 2266 
Q 2828 2175 2409 1742 
Q 1991 1309 1228 531 
z
" id="DejaVuSans-32" transform="scale(0.015625)"/>
       </defs>
       <use xlink:href="#DejaVuSans-30"/>
       <use x="63.623047" xlink:href="#DejaVuSans-2e"/>
       <use x="95.410156" xlink:href="#DejaVuSans-32"/>
      </g>
     </g>
    </g>
    <g id="xtick_2">
     <g id="line2d_2">
      <g>
       <use style="stroke:#000000;stroke-width:0.8;" x="139.20545" xlink:href="#md46c6e6b61" y="307.584"/>
      </g>
     </g>
     <g id="text_2">
      <!-- 0.4 -->
      <g transform="translate(131.253887 322.182437)scale(0.1 -0.1)">
       <defs>
        <path d="M 2419 4116 
L 825 1625 
L 2419 1625 
L 2419 4116 
z
M 2253 4666 
L 3047 4666 
L 3047 1625 
L 3713 1625 
L 3713 1100 
L 3047 1100 
L 3047 0 
L 2419 0 
L 2419 1100 
L 313 1100 
L 313 1709 
L 2253 4666 
z
" id="DejaVuSans-34" transform="scale(0.015625)"/>
       </defs>
       <use xlink:href="#DejaVuSans-30"/>
       <use x="63.623047" xlink:href="#DejaVuSans-2e"/>
       <use x="95.410156" xlink:href="#DejaVuSans-34"/>
      </g>
     </g>
    </g>
    <g id="xtick_3">
     <g id="line2d_3">
      <g>
       <use style="stroke:#000000;stroke-width:0.8;" x="183.19927" xlink:href="#md46c6e6b61" y="307.584"/>
      </g>
     </g>
     <g id="text_3">
      <!-- 0.6 -->
      <g transform="translate(175.247707 322.182437)scale(0.1 -0.1)">
       <defs>
        <path d="M 2113 2584 
Q 1688 2584 1439 2293 
Q 1191 2003 1191 1497 
Q 1191 994 1439 701 
Q 1688 409 2113 409 
Q 2538 409 2786 701 
Q 3034 994 3034 1497 
Q 3034 2003 2786 2293 
Q 2538 2584 2113 2584 
z
M 3366 4563 
L 3366 3988 
Q 3128 4100 2886 4159 
Q 2644 4219 2406 4219 
Q 1781 4219 1451 3797 
Q 1122 3375 1075 2522 
Q 1259 2794 1537 2939 
Q 1816 3084 2150 3084 
Q 2853 3084 3261 2657 
Q 3669 2231 3669 1497 
Q 3669 778 3244 343 
Q 2819 -91 2113 -91 
Q 1303 -91 875 529 
Q 447 1150 447 2328 
Q 447 3434 972 4092 
Q 1497 4750 2381 4750 
Q 2619 4750 2861 4703 
Q 3103 4656 3366 4563 
z
" id="DejaVuSans-36" transform="scale(0.015625)"/>
       </defs>
       <use xlink:href="#DejaVuSans-30"/>
       <use x="63.623047" xlink:href="#DejaVuSans-2e"/>
       <use x="95.410156" xlink:href="#DejaVuSans-36"/>
      </g>
     </g>
    </g>
    <g id="xtick_4">
     <g id="line2d_4">
      <g>
       <use style="stroke:#000000;stroke-width:0.8;" x="227.19309" xlink:href="#md46c6e6b61" y="307.584"/>
      </g>
     </g>
     <g id="text_4">
      <!-- 0.8 -->
      <g transform="translate(219.241528 322.182437)scale(0.1 -0.1)">
       <defs>
        <path d="M 2034 2216 
Q 1584 2216 1326 1975 
Q 1069 1734 1069 1313 
Q 1069 891 1326 650 
Q 1584 409 2034 409 
Q 2484 409 2743 651 
Q 3003 894 3003 1313 
Q 3003 1734 2745 1975 
Q 2488 2216 2034 2216 
z
M 1403 2484 
Q 997 2584 770 2862 
Q 544 3141 544 3541 
Q 544 4100 942 4425 
Q 1341 4750 2034 4750 
Q 2731 4750 3128 4425 
Q 3525 4100 3525 3541 
Q 3525 3141 3298 2862 
Q 3072 2584 2669 2484 
Q 3125 2378 3379 2068 
Q 3634 1759 3634 1313 
Q 3634 634 3220 271 
Q 2806 -91 2034 -91 
Q 1263 -91 848 271 
Q 434 634 434 1313 
Q 434 1759 690 2068 
Q 947 2378 1403 2484 
z
M 1172 3481 
Q 1172 3119 1398 2916 
Q 1625 2713 2034 2713 
Q 2441 2713 2670 2916 
Q 2900 3119 2900 3481 
Q 2900 3844 2670 4047 
Q 2441 4250 2034 4250 
Q 1625 4250 1398 4047 
Q 1172 3844 1172 3481 
z
" id="DejaVuSans-38" transform="scale(0.015625)"/>
       </defs>
       <use xlink:href="#DejaVuSans-30"/>
       <use x="63.623047" xlink:href="#DejaVuSans-2e"/>
       <use x="95.410156" xlink:href="#DejaVuSans-38"/>
      </g>
     </g>
    </g>
    <g id="xtick_5">
     <g id="line2d_5">
      <g>
       <use style="stroke:#000000;stroke-width:0.8;" x="271.18691" xlink:href="#md46c6e6b61" y="307.584"/>
      </g>
     </g>
     <g id="text_5">
      <!-- 1.0 -->
      <g transform="translate(263.235348 322.182437)scale(0.1 -0.1)">
       <defs>
        <path d="M 794 531 
L 1825 531 
L 1825 4091 
L 703 3866 
L 703 4441 
L 1819 4666 
L 2450 4666 
L 2450 531 
L 3481 531 
L 3481 0 
L 794 0 
L 794 531 
z
" id="DejaVuSans-31" transform="scale(0.015625)"/>
       </defs>
       <use xlink:href="#DejaVuSans-31"/>
       <use x="63.623047" xlink:href="#DejaVuSans-2e"/>
       <use x="95.410156" xlink:href="#DejaVuSans-30"/>
      </g>
     </g>
    </g>
    <g id="xtick_6">
     <g id="line2d_6">
      <g>
       <use style="stroke:#000000;stroke-width:0.8;" x="315.18073" xlink:href="#md46c6e6b61" y="307.584"/>
      </g>
     </g>
     <g id="text_6">
      <!-- 1.2 -->
      <g transform="translate(307.229168 322.182437)scale(0.1 -0.1)">
       <use xlink:href="#DejaVuSans-31"/>
       <use x="63.623047" xlink:href="#DejaVuSans-2e"/>
       <use x="95.410156" xlink:href="#DejaVuSans-32"/>
      </g>
     </g>
    </g>
    <g id="xtick_7">
     <g id="line2d_7">
      <g>
       <use style="stroke:#000000;stroke-width:0.8;" x="359.174551" xlink:href="#md46c6e6b61" y="307.584"/>
      </g>
     </g>
     <g id="text_7">
      <!-- 1.4 -->
      <g transform="translate(351.222988 322.182437)scale(0.1 -0.1)">
       <use xlink:href="#DejaVuSans-31"/>
       <use x="63.623047" xlink:href="#DejaVuSans-2e"/>
       <use x="95.410156" xlink:href="#DejaVuSans-34"/>
      </g>
     </g>
    </g>
    <g id="xtick_8">
     <g id="line2d_8">
      <g>
       <use style="stroke:#000000;stroke-width:0.8;" x="403.168371" xlink:href="#md46c6e6b61" y="307.584"/>
      </g>
     </g>
     <g id="text_8">
      <!-- 1.6 -->
      <g transform="translate(395.216808 322.182437)scale(0.1 -0.1)">
       <use xlink:href="#DejaVuSans-31"/>
       <use x="63.623047" xlink:href="#DejaVuSans-2e"/>
       <use x="95.410156" xlink:href="#DejaVuSans-36"/>
      </g>
     </g>
    </g>
   </g>
   <g id="matplotlib.axis_2">
    <g id="ytick_1">
     <g id="line2d_9">
      <defs>
       <path d="M 0 0 
L -3.5 0 
" id="m88533336c1" style="stroke:#000000;stroke-width:0.8;"/>
      </defs>
      <g>
       <use style="stroke:#000000;stroke-width:0.8;" x="57.6" xlink:href="#m88533336c1" y="275.950965"/>
      </g>
     </g>
     <g id="text_9">
      <!-- −100 -->
      <g transform="translate(23.132812 279.750184)scale(0.1 -0.1)">
       <defs>
        <path d="M 678 2272 
L 4684 2272 
L 4684 1741 
L 678 1741 
L 678 2272 
z
" id="DejaVuSans-2212" transform="scale(0.015625)"/>
       </defs>
       <use xlink:href="#DejaVuSans-2212"/>
       <use x="83.789062" xlink:href="#DejaVuSans-31"/>
       <use x="147.412109" xlink:href="#DejaVuSans-30"/>
       <use x="211.035156" xlink:href="#DejaVuSans-30"/>
      </g>
     </g>
    </g>
    <g id="ytick_2">
     <g id="line2d_10">
      <g>
       <use style="stroke:#000000;stroke-width:0.8;" x="57.6" xlink:href="#m88533336c1" y="236.934322"/>
      </g>
     </g>
     <g id="text_10">
      <!-- −80 -->
      <g transform="translate(29.495313 240.733541)scale(0.1 -0.1)">
       <use xlink:href="#DejaVuSans-2212"/>
       <use x="83.789062" xlink:href="#DejaVuSans-38"/>
       <use x="147.412109" xlink:href="#DejaVuSans-30"/>
      </g>
     </g>
    </g>
    <g id="ytick_3">
     <g id="line2d_11">
      <g>
       <use style="stroke:#000000;stroke-width:0.8;" x="57.6" xlink:href="#m88533336c1" y="197.917679"/>
      </g>
     </g>
     <g id="text_11">
      <!-- −60 -->
      <g transform="translate(29.495313 201.716898)scale(0.1 -0.1)">
       <use xlink:href="#DejaVuSans-2212"/>
       <use x="83.789062" xlink:href="#DejaVuSans-36"/>
       <use x="147.412109" xlink:href="#DejaVuSans-30"/>
      </g>
     </g>
    </g>
    <g id="ytick_4">
     <g id="line2d_12">
      <g>
       <use style="stroke:#000000;stroke-width:0.8;" x="57.6" xlink:href="#m88533336c1" y="158.901036"/>
      </g>
     </g>
     <g id="text_12">
      <!-- −40 -->
      <g transform="translate(29.495313 162.700255)scale(0.1 -0.1)">
       <use xlink:href="#DejaVuSans-2212"/>
       <use x="83.789062" xlink:href="#DejaVuSans-34"/>
       <use x="147.412109" xlink:href="#DejaVuSans-30"/>
      </g>
     </g>
    </g>
    <g id="ytick_5">
     <g id="line2d_13">
      <g>
       <use style="stroke:#000000;stroke-width:0.8;" x="57.6" xlink:href="#m88533336c1" y="119.884393"/>
      </g>
     </g>
     <g id="text_13">
      <!-- −20 -->
      <g transform="translate(29.495313 123.683612)scale(0.1 -0.1)">
       <use xlink:href="#DejaVuSans-2212"/>
       <use x="83.789062" xlink:href="#DejaVuSans-32"/>
       <use x="147.412109" xlink:href="#DejaVuSans-30"/>
      </g>
     </g>
    </g>
    <g id="ytick_6">
     <g id="line2d_14">
      <g>
       <use style="stroke:#000000;stroke-width:0.8;" x="57.6" xlink:href="#m88533336c1" y="80.86775"/>
      </g>
     </g>
     <g id="text_14">
      <!-- 0 -->
      <g transform="translate(44.2375 84.666968)scale(0.1 -0.1)">
       <use xlink:href="#DejaVuSans-30"/>
      </g>
     </g>
    </g>
    <g id="ytick_7">
     <g id="line2d_15">
      <g>
       <use style="stroke:#000000;stroke-width:0.8;" x="57.6" xlink:href="#m88533336c1" y="41.851107"/>
      </g>
     </g>
     <g id="text_15">
      <!-- 20 -->
      <g transform="translate(37.875 45.650325)scale(0.1 -0.1)">
       <use xlink:href="#DejaVuSans-32"/>
       <use x="63.623047" xlink:href="#DejaVuSans-30"/>
      </g>
     </g>
    </g>
   </g>
   <g id="line2d_16">
    <path clip-path="url(#p36f7821b40)" d="M 73.832727 162.189346 
L 74.26763 162.333986 
L 74.702532 162.418618 
L 75.354885 162.420072 
L 75.789787 162.504333 
L 76.442141 162.295212 
L 78.616652 162.33481 
L 78.834103 162.189508 
L 79.051555 162.447022 
L 80.573712 186.302106 
L 81.443517 195.481163 
L 82.530773 204.765399 
L 83.618028 212.373233 
L 84.922735 220.225466 
L 87.314698 231.144524 
L 88.401953 235.343598 
L 90.359014 241.435056 
L 90.793916 242.559066 
L 91.66372 244.653187 
L 93.838232 249.823882 
L 96.230194 254.697455 
L 96.665097 255.228732 
L 97.969803 257.824402 
L 98.404706 258.402695 
L 99.057059 258.871831 
L 99.491961 259.511893 
L 99.926864 260.357682 
L 101.23157 261.550222 
L 102.971179 262.913693 
L 103.840984 263.945808 
L 104.275886 264.213873 
L 104.92824 264.725321 
L 105.363142 264.81863 
L 105.798044 265.222611 
L 106.015495 265.333371 
L 107.102751 266.519067 
L 107.755104 266.812702 
L 108.190007 267.047073 
L 108.624909 267.052277 
L 109.059811 267.211679 
L 111.234323 267.971563 
L 113.191383 268.237912 
L 113.843736 268.566166 
L 114.278638 268.677258 
L 114.49609 268.616969 
L 115.800796 269.269039 
L 116.235699 268.735873 
L 116.670601 268.657222 
L 117.322954 268.972437 
L 118.41021 268.485238 
L 118.845112 268.49289 
L 119.062563 268.665305 
L 119.280015 268.647377 
L 119.932368 268.29333 
L 120.149819 268.203581 
L 120.36727 267.947841 
L 121.237075 267.736981 
L 122.976684 268.045155 
L 123.846488 267.679778 
L 124.06394 267.527378 
L 124.498842 267.552574 
L 124.716293 267.462988 
L 125.586098 267.774912 
L 126.238451 267.42617 
L 126.455902 267.611806 
L 126.673353 267.632707 
L 126.890804 267.402699 
L 127.325707 267.638365 
L 127.543158 267.777266 
L 127.760609 268.075845 
L 128.630413 267.75253 
L 128.847865 267.608872 
L 129.065316 267.609001 
L 129.500218 267.831286 
L 129.717669 267.866744 
L 129.93512 267.78165 
L 130.152571 267.56078 
L 130.370023 267.609685 
L 130.587474 267.539269 
L 131.022376 267.058258 
L 131.239827 266.922056 
L 131.457278 267.013506 
L 131.674729 267.303815 
L 131.89218 267.378539 
L 132.544534 267.037509 
L 133.849241 266.975793 
L 134.501594 266.632577 
L 135.153948 266.689004 
L 135.806301 266.396596 
L 136.023752 266.455551 
L 136.458654 266.308307 
L 136.893557 266.406676 
L 137.328459 266.268678 
L 137.763361 265.806613 
L 137.980812 265.781144 
L 138.415715 265.497547 
L 139.285519 265.644306 
L 139.720421 265.423396 
L 140.155324 265.049717 
L 141.46003 265.223943 
L 141.894933 265.157626 
L 142.112384 265.248457 
L 142.547286 265.132459 
L 144.069444 264.986143 
L 144.504346 265.159941 
L 144.939249 265.226645 
L 145.809053 265.942957 
L 146.243955 265.864093 
L 146.896309 265.605733 
L 147.331211 265.550911 
L 147.766113 265.343807 
L 148.201016 265.41001 
L 148.635918 265.705377 
L 149.07082 265.722588 
L 149.505722 265.617304 
L 149.940625 265.794718 
L 150.810429 265.734771 
L 151.02788 265.857271 
L 151.245332 265.813007 
L 151.680234 265.557007 
L 152.115136 265.436679 
L 152.332587 265.401232 
L 153.202392 265.734428 
L 153.419843 265.538283 
L 153.637294 265.506645 
L 154.72455 265.874938 
L 155.159452 265.861018 
L 155.594354 266.029805 
L 156.029257 265.908131 
L 156.899061 265.3536 
L 157.333963 265.466997 
L 158.63867 266.46603 
L 159.508475 267.261067 
L 160.59573 267.571534 
L 160.813182 267.509319 
L 161.030633 267.596413 
L 161.248084 267.852753 
L 161.465535 267.922607 
L 161.682986 267.84753 
L 162.770242 268.191291 
L 162.987693 268.012358 
L 163.205144 267.646014 
L 163.640046 267.570162 
L 164.509851 267.510691 
L 164.944753 267.29619 
L 165.379655 267.069698 
L 165.814558 267.038506 
L 166.24946 267.136085 
L 167.119264 267.011225 
L 167.554167 266.878382 
L 167.771618 266.890931 
L 168.20652 266.723831 
L 168.423971 266.765134 
L 169.293776 266.222556 
L 169.728678 266.138152 
L 170.381031 266.257894 
L 171.250836 265.755582 
L 171.685738 265.707573 
L 172.120641 265.981412 
L 172.555543 266.005716 
L 172.990445 266.092924 
L 173.642799 266.354495 
L 174.077701 266.474366 
L 174.295152 266.429569 
L 175.382408 266.771527 
L 175.599859 266.764841 
L 176.904566 267.521064 
L 177.122017 267.442254 
L 177.556919 267.526615 
L 177.991821 267.520339 
L 178.426723 267.639871 
L 178.644175 267.745233 
L 179.079077 267.606359 
L 179.513979 267.858756 
L 179.73143 267.815562 
L 179.948881 267.56721 
L 180.601235 267.40094 
L 181.253588 267.23766 
L 181.688491 267.403462 
L 183.645551 266.712433 
L 184.297904 266.918119 
L 184.515355 267.076952 
L 184.950258 266.912893 
L 186.037513 267.152058 
L 186.472416 267.172537 
L 186.907318 267.458447 
L 187.124769 267.313118 
L 188.212025 267.186249 
L 188.646927 267.084368 
L 189.081829 267.30657 
L 189.516731 267.330306 
L 190.169085 267.50308 
L 190.603987 267.833479 
L 191.473792 267.797584 
L 192.126145 268.329413 
L 192.561047 268.52455 
L 192.778498 268.660204 
L 193.430852 268.579148 
L 193.865754 268.788037 
L 194.518108 269.329838 
L 195.170461 269.467639 
L 195.605363 269.400788 
L 196.040265 269.275231 
L 196.475168 269.205389 
L 196.91007 269.241894 
L 197.344972 269.598229 
L 197.997326 270.241054 
L 198.86713 270.440674 
L 199.302033 270.369375 
L 200.389288 270.396494 
L 200.606739 270.587824 
L 202.781251 270.717503 
L 204.52086 269.971527 
L 204.738311 270.097163 
L 204.955762 270.092015 
L 205.390664 269.747401 
L 206.695371 269.829336 
L 207.130273 269.691765 
L 207.565176 269.912766 
L 207.782627 269.916182 
L 208.43498 269.462824 
L 208.652431 269.535718 
L 209.087334 269.370736 
L 209.522236 269.514795 
L 210.174589 269.379601 
L 210.826943 269.622245 
L 211.696747 269.711337 
L 211.914198 269.604576 
L 212.784003 269.762082 
L 213.001454 269.721659 
L 213.653807 269.990747 
L 214.08871 269.904619 
L 214.958514 270.229418 
L 215.393417 270.213766 
L 216.04577 270.266937 
L 216.480672 270.165973 
L 216.915574 269.870556 
L 218.437732 269.747894 
L 218.872635 269.691789 
L 219.307537 269.816319 
L 219.742439 269.774631 
L 220.177342 269.573087 
L 220.829695 269.730623 
L 221.482048 269.545839 
L 222.786755 270.158158 
L 223.221657 269.916138 
L 223.65656 269.521203 
L 224.091462 269.451676 
L 224.308913 269.512907 
L 224.743815 269.363938 
L 225.831071 269.882606 
L 226.265973 269.708456 
L 226.700876 269.823078 
L 227.57068 269.818287 
L 228.440485 269.703446 
L 230.180094 269.57648 
L 230.614996 269.706458 
L 231.049898 269.654676 
L 231.702252 269.842597 
L 232.354605 269.524343 
L 232.789507 269.557031 
L 233.22441 269.816255 
L 233.659312 269.81518 
L 234.311665 270.02491 
L 234.529116 270.182671 
L 234.746568 270.167381 
L 235.18147 270.478151 
L 235.833823 270.156954 
L 236.486177 270.196187 
L 236.921079 270.294571 
L 237.13853 270.232179 
L 238.008335 270.566696 
L 238.443237 270.781836 
L 238.878139 270.812802 
L 239.313041 270.690711 
L 239.965395 270.826126 
L 240.400297 271.123644 
L 241.270102 271.047315 
L 243.227162 270.419343 
L 243.662064 270.807325 
L 244.096966 270.798517 
L 244.531869 270.693345 
L 246.271478 270.898525 
L 246.488929 270.940922 
L 246.923831 271.283473 
L 247.358733 271.227053 
L 247.793636 271.098405 
L 248.011087 270.994016 
L 248.66344 270.261053 
L 249.098343 269.985726 
L 249.750696 269.262627 
L 251.055403 268.331942 
L 251.707756 268.169456 
L 252.577561 267.458165 
L 253.012463 267.317896 
L 253.229914 267.385822 
L 254.099719 267.189235 
L 254.752072 267.139335 
L 255.186974 266.880213 
L 256.056779 267.104219 
L 256.491681 267.048113 
L 256.709132 267.212764 
L 256.926583 267.604894 
L 257.144035 267.705214 
L 257.361486 267.672292 
L 258.666193 268.707169 
L 258.883644 268.697991 
L 259.318546 268.87267 
L 260.18835 268.697573 
L 260.840704 269.2269 
L 261.92796 269.063657 
L 262.580313 268.921826 
L 263.232666 268.855616 
L 263.667569 269.041722 
L 264.319922 269.185789 
L 264.972275 268.962653 
L 265.84208 268.829219 
L 266.276982 268.871481 
L 266.711885 268.854631 
L 267.146787 268.78739 
L 267.581689 268.825477 
L 267.79914 269.072658 
L 268.234043 269.109271 
L 268.886396 269.380698 
L 269.321298 269.42688 
L 269.7562 269.335058 
L 270.191103 269.600065 
L 271.278358 270.415341 
L 271.930712 270.454866 
L 273.017967 271.109578 
L 273.45287 270.674379 
L 274.975028 270.573341 
L 275.192479 270.618705 
L 275.844832 270.176366 
L 276.062283 270.000837 
L 276.932088 269.95315 
L 277.149539 269.818165 
L 277.36699 269.913819 
L 277.801892 269.826588 
L 278.019344 269.961489 
L 278.454246 269.851502 
L 279.32405 270.557983 
L 279.541502 270.775801 
L 279.758953 270.832778 
L 280.193855 271.249742 
L 280.628757 271.099588 
L 281.06366 271.135517 
L 281.498562 271.055639 
L 282.803269 271.389121 
L 283.238171 271.438612 
L 283.890524 271.33665 
L 284.325427 270.827487 
L 284.97778 270.659575 
L 285.847584 270.247812 
L 286.065036 270.241951 
L 286.499938 270.006175 
L 286.93484 270.160299 
L 287.587194 270.736387 
L 288.022096 270.818215 
L 288.8919 271.391438 
L 289.326803 271.414691 
L 289.979156 271.26926 
L 290.414058 271.365895 
L 290.848961 271.360786 
L 291.501314 270.989771 
L 292.153667 271.023469 
L 292.806021 270.672375 
L 293.023472 270.579284 
L 293.240923 270.636315 
L 293.675825 270.373789 
L 294.110728 270.459293 
L 294.54563 270.400112 
L 295.415434 270.840337 
L 296.067788 270.730312 
L 296.285239 271.029117 
L 296.50269 270.980175 
L 298.242299 245.16656 
L 299.112104 236.583435 
L 300.199359 227.967491 
L 301.504066 219.438076 
L 303.461126 208.580376 
L 304.765833 202.684218 
L 306.07054 197.538662 
L 308.0276 190.708412 
L 309.549758 186.509718 
L 310.637014 183.865392 
L 311.941721 180.695244 
L 312.594074 179.429093 
L 314.768586 175.06831 
L 318.465255 168.942839 
L 319.335059 167.654543 
L 320.422315 166.043384 
L 321.944473 163.818272 
L 322.596826 162.651698 
L 323.466631 160.724936 
L 324.336435 158.119216 
L 324.553887 157.864821 
L 324.771338 156.749724 
L 324.988789 156.593636 
L 325.20624 154.989032 
L 325.423691 154.541411 
L 325.641142 150.945202 
L 326.076045 124.165831 
L 327.380751 158.729174 
L 327.815654 163.626442 
L 328.468007 167.374395 
L 328.902909 168.794471 
L 329.555263 169.729929 
L 329.772714 169.826913 
L 330.85997 169.424447 
L 331.294872 169.143388 
L 331.729774 169.007895 
L 332.164676 168.488788 
L 333.034481 167.368661 
L 334.556639 166.121084 
L 335.208992 165.429853 
L 337.383504 163.220959 
L 340.210368 160.1144 
L 341.297624 159.339544 
L 343.254684 157.538822 
L 343.689587 157.015234 
L 345.211745 154.697081 
L 345.646647 154.404808 
L 346.516451 153.381728 
L 347.168805 152.539756 
L 347.821158 151.346584 
L 349.343316 148.24301 
L 349.560767 147.839137 
L 349.778218 147.771335 
L 349.995669 147.354767 
L 350.213121 147.402467 
L 350.648023 146.695095 
L 350.865474 145.921771 
L 351.300376 142.870362 
L 351.735279 116.724884 
L 351.95273 117.620764 
L 353.039985 149.34858 
L 353.692339 158.46536 
L 354.344692 163.11028 
L 354.997046 165.757183 
L 355.649399 167.147765 
L 356.301752 167.866357 
L 357.171557 168.388196 
L 357.82391 168.636714 
L 358.258813 168.804367 
L 358.476264 168.901524 
L 359.563519 168.840383 
L 360.215873 168.764206 
L 361.738031 168.452883 
L 362.172933 168.419991 
L 362.825286 168.219107 
L 363.695091 168.223888 
L 364.999798 168.085235 
L 366.521956 167.280434 
L 367.609211 166.878871 
L 368.261565 166.791753 
L 369.783723 166.307793 
L 370.218625 166.220983 
L 370.653527 166.030177 
L 371.08843 165.864561 
L 371.523332 165.747767 
L 371.740783 165.738328 
L 372.175685 165.557088 
L 372.393136 165.539316 
L 373.262941 164.980913 
L 374.785099 164.514059 
L 375.437452 164.234913 
L 377.394513 163.139748 
L 377.829415 163.089422 
L 378.046866 163.170408 
L 378.481768 163.106012 
L 378.916671 163.215582 
L 379.786475 162.98872 
L 380.438828 163.067346 
L 383.265693 162.18033 
L 383.700596 161.907327 
L 383.918047 161.836266 
L 384.5704 161.370702 
L 385.440205 160.74219 
L 385.875107 160.559273 
L 386.310009 160.590384 
L 387.832167 160.010373 
L 388.267069 159.733555 
L 388.919423 158.872001 
L 389.354325 158.65653 
L 390.659032 158.808247 
L 391.093934 158.999137 
L 392.18119 158.878485 
L 392.833543 159.062711 
L 393.703348 159.0521 
L 394.355701 159.104803 
L 394.573152 158.75313 
L 396.530213 149.708872 
L 396.747664 149.217085 
L 397.182566 147.002978 
L 397.400017 144.143024 
L 397.834919 118.801693 
L 398.05237 121.600711 
L 398.487273 135.703402 
L 398.487273 135.703402 
" style="fill:none;stroke:#000000;stroke-linecap:square;stroke-width:1.5;"/>
   </g>
   <g id="line2d_17">
    <path clip-path="url(#p36f7821b40)" d="M 73.832727 165.868298 
L 74.26763 165.939631 
L 74.919983 165.570051 
L 75.354885 165.514582 
L 76.007239 165.479871 
L 76.877043 165.44148 
L 77.094494 165.367394 
L 77.529397 165.39694 
L 78.18175 165.363634 
L 78.399201 165.660618 
L 78.616652 165.290652 
L 78.834103 165.770788 
L 79.051555 165.101464 
L 80.356261 121.309063 
L 81.008615 80.767659 
L 81.443517 86.331674 
L 81.878419 92.221591 
L 82.09587 93.847537 
L 82.313322 94.454976 
L 82.530773 94.316554 
L 82.748224 94.007274 
L 83.183126 92.039612 
L 83.618028 88.312651 
L 84.052931 81.991671 
L 84.487833 67.239236 
L 84.922735 55.196694 
L 85.140186 54.85628 
L 85.575089 60.363862 
L 86.009991 66.606211 
L 86.444893 69.963071 
L 86.879795 71.324299 
L 87.097247 71.469599 
L 87.314698 71.246057 
L 87.532149 70.597226 
L 88.184502 66.590505 
L 89.054307 59.618786 
L 89.70666 55.566975 
L 90.576465 53.568 
L 91.011367 54.300227 
L 91.228818 54.365071 
L 91.446269 54.84351 
L 92.750976 59.550411 
L 93.403329 60.247751 
L 93.838232 60.32748 
L 94.055683 59.783213 
L 94.708036 58.926779 
L 95.142939 57.397613 
L 95.795292 54.659871 
L 96.012743 54.423345 
L 96.230194 54.406909 
L 96.882548 55.157586 
L 97.099999 55.13717 
L 97.31745 55.246207 
L 97.534901 55.503739 
L 97.752352 55.489288 
L 97.969803 55.797808 
L 98.187254 55.88911 
L 98.404706 55.596335 
L 99.057059 55.678223 
L 99.27451 55.70339 
L 99.491961 55.551401 
L 99.709412 55.615118 
L 100.144315 56.14588 
L 100.361766 56.349294 
L 100.796668 57.078844 
L 101.23157 57.235397 
L 101.449021 57.312062 
L 101.883924 57.021194 
L 102.318826 57.738308 
L 103.840984 57.801354 
L 104.493337 56.935601 
L 105.145691 56.563688 
L 105.363142 56.639521 
L 106.015495 57.619854 
L 106.232946 57.748229 
L 106.450398 57.71063 
L 106.667849 57.818444 
L 107.102751 57.379049 
L 107.537653 57.525033 
L 108.190007 58.597007 
L 108.84236 58.840125 
L 109.059811 58.702166 
L 109.277262 58.884649 
L 109.494714 58.886141 
L 109.712165 58.761466 
L 109.929616 58.858691 
L 110.364518 58.70281 
L 110.79942 58.196813 
L 111.234323 57.648846 
L 111.669225 57.674175 
L 112.539029 57.857627 
L 112.973932 58.003367 
L 113.191383 57.894852 
L 113.626285 57.088955 
L 114.061187 56.777824 
L 114.278638 56.456955 
L 114.713541 55.425966 
L 115.148443 55.216814 
L 115.583345 55.353687 
L 115.800796 55.645574 
L 116.670601 57.416453 
L 116.888052 57.835501 
L 117.540406 58.206201 
L 117.757857 58.084726 
L 118.41021 58.428331 
L 118.627661 59.143627 
L 118.845112 59.390354 
L 119.497466 59.463901 
L 119.714917 59.583372 
L 120.149819 59.35194 
L 120.36727 59.425525 
L 121.237075 58.642134 
L 121.454526 58.29987 
L 121.671977 58.202573 
L 121.889428 58.437829 
L 122.106879 58.411967 
L 122.324331 58.568763 
L 122.759233 59.272901 
L 123.194135 59.10094 
L 123.629037 59.696153 
L 123.846488 60.042478 
L 124.06394 59.892164 
L 124.281391 59.441474 
L 124.716293 59.40772 
L 125.151195 58.95698 
L 125.586098 58.280155 
L 126.021 57.870864 
L 126.238451 57.930158 
L 126.890804 57.492943 
L 127.108255 57.189867 
L 127.325707 57.309032 
L 127.760609 58.148436 
L 128.195511 58.623382 
L 128.630413 59.063767 
L 129.065316 59.699573 
L 129.282767 60.295473 
L 129.500218 60.467381 
L 129.717669 60.285422 
L 129.93512 60.336442 
L 130.804925 59.673668 
L 131.022376 59.819428 
L 131.457278 59.90609 
L 131.89218 59.946656 
L 132.544534 61.104563 
L 132.979436 61.147047 
L 133.414338 61.714905 
L 133.849241 62.765106 
L 134.066692 62.821217 
L 134.719045 62.451974 
L 135.153948 61.611223 
L 135.58885 60.844396 
L 135.806301 60.831832 
L 136.676105 59.745886 
L 137.54591 59.43972 
L 137.980812 59.459821 
L 138.415715 59.096538 
L 138.850617 59.340598 
L 139.285519 59.27406 
L 139.720421 59.267885 
L 140.155324 59.276209 
L 140.590226 58.957787 
L 140.807677 59.240718 
L 141.025128 59.286199 
L 141.242579 59.218164 
L 141.46003 59.457178 
L 142.982188 59.74708 
L 143.417091 59.440359 
L 143.634542 59.632908 
L 144.069444 59.541096 
L 144.286895 59.524896 
L 144.721797 59.114735 
L 144.939249 59.092079 
L 145.1567 59.206167 
L 145.374151 59.156275 
L 145.809053 58.629541 
L 146.243955 57.789136 
L 146.678858 57.651158 
L 148.201016 58.489471 
L 149.07082 58.293038 
L 149.723174 58.401292 
L 149.940625 58.71864 
L 150.158076 58.636588 
L 150.592978 58.23562 
L 151.245332 57.913014 
L 152.550038 56.106546 
L 152.984941 56.112461 
L 153.419843 55.77545 
L 153.637294 55.750692 
L 153.854745 55.894434 
L 154.289647 56.65154 
L 155.159452 57.107463 
L 155.811805 58.143982 
L 156.029257 58.322637 
L 156.464159 58.352711 
L 156.899061 58.511067 
L 157.333963 58.262911 
L 157.986317 58.22569 
L 158.203768 58.333249 
L 158.421219 58.306872 
L 159.073572 58.93019 
L 159.291024 58.700134 
L 159.508475 58.723253 
L 159.943377 59.278469 
L 160.59573 59.676559 
L 160.813182 60.128404 
L 161.030633 60.26516 
L 161.465535 60.202809 
L 162.117888 59.824829 
L 162.552791 60.233822 
L 162.770242 60.230666 
L 163.205144 60.725451 
L 163.422595 60.689916 
L 163.640046 60.904725 
L 163.857497 60.959061 
L 164.509851 59.7908 
L 165.162204 59.312103 
L 165.379655 59.326573 
L 165.597106 59.13271 
L 166.032009 59.456342 
L 166.466911 59.148342 
L 166.901813 59.264323 
L 167.554167 58.279994 
L 168.20652 58.624203 
L 168.641422 59.567305 
L 168.858874 59.719862 
L 169.728678 61.242211 
L 170.16358 61.416668 
L 170.381031 61.799704 
L 170.598483 61.931963 
L 170.815934 61.911581 
L 171.250836 62.472171 
L 171.468287 62.42371 
L 171.903189 61.992814 
L 172.338092 62.554767 
L 172.990445 62.504728 
L 173.642799 61.469623 
L 174.077701 61.07176 
L 174.512603 60.435912 
L 174.730054 60.278703 
L 175.81731 58.431709 
L 176.687114 57.45191 
L 177.122017 58.204443 
L 177.77437 59.130115 
L 177.991821 59.220666 
L 178.426723 59.623369 
L 178.861626 59.157142 
L 179.079077 59.257554 
L 179.513979 59.139276 
L 179.73143 59.423574 
L 180.383784 60.777265 
L 180.818686 61.138284 
L 181.036137 61.153093 
L 181.471039 60.718585 
L 181.905942 61.057416 
L 182.340844 60.849136 
L 182.558295 60.840508 
L 183.210648 59.900781 
L 183.645551 58.538548 
L 184.732806 55.911581 
L 185.38516 55.762996 
L 185.602611 55.796595 
L 186.037513 56.304015 
L 186.472416 56.760565 
L 186.689867 56.713815 
L 187.994573 58.219801 
L 188.429476 58.484944 
L 189.081829 59.100326 
L 189.516731 59.084166 
L 189.734183 58.980999 
L 189.951634 59.011537 
L 190.386536 58.705935 
L 190.821438 58.920838 
L 191.038889 59.246629 
L 191.473792 60.272916 
L 192.126145 60.703606 
L 192.561047 60.242209 
L 192.99595 60.739175 
L 193.430852 60.78876 
L 194.083205 60.000294 
L 194.300656 59.993022 
L 194.735559 59.246796 
L 195.387912 59.053539 
L 195.822814 58.329165 
L 196.040265 58.285767 
L 196.475168 58.603091 
L 196.692619 58.597545 
L 197.127521 58.183296 
L 197.344972 58.24753 
L 197.562423 58.123032 
L 198.432228 56.626804 
L 198.649679 56.770311 
L 198.86713 56.667389 
L 199.302033 56.336227 
L 199.519484 56.538016 
L 199.736935 56.478312 
L 199.954386 56.212514 
L 200.389288 56.183887 
L 200.606739 56.407979 
L 200.82419 56.85671 
L 201.476544 57.092632 
L 203.433604 58.894746 
L 203.868506 59.722152 
L 204.085957 59.738469 
L 204.303409 59.962411 
L 204.738311 60.690461 
L 205.173213 60.795304 
L 205.390664 60.859351 
L 205.825567 60.277075 
L 206.043018 60.273366 
L 207.130273 58.82561 
L 207.565176 57.867805 
L 208.000078 56.486456 
L 208.43498 55.57979 
L 208.869882 55.17198 
L 209.087334 55.269993 
L 209.957138 56.519252 
L 210.174589 56.681167 
L 210.609492 57.908214 
L 211.044394 59.014628 
L 211.261845 59.267 
L 211.479296 59.882294 
L 211.914198 61.542361 
L 212.784003 62.595858 
L 213.001454 62.457561 
L 213.218905 62.539862 
L 213.436356 62.492114 
L 213.653807 62.274789 
L 213.871259 62.314071 
L 214.08871 62.19716 
L 214.741063 60.853718 
L 214.958514 60.761645 
L 215.175965 60.399542 
L 215.828319 58.557152 
L 216.04577 58.431223 
L 216.263221 58.539063 
L 216.698123 59.042646 
L 217.350477 59.588023 
L 218.00283 58.963734 
L 219.090086 58.579063 
L 219.307537 58.591056 
L 219.95989 59.270063 
L 220.612244 58.708272 
L 221.047146 58.692859 
L 221.264597 58.665859 
L 222.134402 57.839123 
L 222.351853 57.467217 
L 222.569304 57.375976 
L 222.786755 57.633917 
L 223.004206 58.092109 
L 223.221657 58.172592 
L 223.439109 58.030112 
L 223.874011 58.19335 
L 224.308913 58.193676 
L 224.526364 58.293172 
L 224.743815 58.549821 
L 224.961267 58.609905 
L 225.831071 58.166482 
L 226.483424 57.215545 
L 226.918327 57.258043 
L 227.788131 58.055936 
L 228.005582 57.976687 
L 228.875387 60.218501 
L 229.092838 60.272434 
L 229.310289 59.962369 
L 229.962643 58.406763 
L 230.397545 57.607788 
L 230.832447 56.883236 
L 231.267349 56.753487 
L 231.484801 56.844471 
L 232.789507 58.307386 
L 234.094214 61.605734 
L 234.529116 61.625279 
L 234.964019 61.952295 
L 235.18147 61.966078 
L 235.616372 62.181377 
L 235.833823 62.173656 
L 236.268726 62.394165 
L 236.486177 62.362331 
L 236.703628 62.162479 
L 237.13853 61.542882 
L 238.225786 60.382849 
L 238.660688 59.390868 
L 238.878139 59.201262 
L 239.313041 58.395554 
L 239.530493 58.363871 
L 240.400297 58.828863 
L 240.835199 58.543978 
L 241.052651 58.356594 
L 241.487553 58.453096 
L 241.922455 58.284226 
L 242.357357 58.207403 
L 242.79226 57.451056 
L 243.009711 57.232971 
L 243.444613 56.078095 
L 243.662064 56.31984 
L 243.879515 56.272472 
L 244.096966 55.978613 
L 244.314418 55.930506 
L 244.966771 56.78053 
L 245.401673 57.298394 
L 245.836576 58.050429 
L 246.488929 59.259984 
L 246.70638 59.628458 
L 246.923831 59.703785 
L 247.141282 59.648348 
L 247.358733 59.825984 
L 247.793636 59.77777 
L 248.011087 59.875999 
L 248.445989 59.510644 
L 249.098343 58.882566 
L 249.968147 58.764839 
L 250.185598 58.853336 
L 250.403049 59.073289 
L 250.837952 59.044067 
L 251.707756 59.649096 
L 251.925207 60.000117 
L 252.142658 60.010771 
L 252.577561 59.605259 
L 252.795012 59.695108 
L 253.229914 60.558701 
L 253.664816 60.531683 
L 254.099719 60.609582 
L 254.31717 60.243753 
L 255.404426 57.344803 
L 255.839328 56.877665 
L 256.491681 56.522917 
L 257.144035 56.059846 
L 257.578937 57.106894 
L 257.796388 56.898513 
L 258.013839 56.973527 
L 258.448741 57.359969 
L 258.666193 57.126267 
L 259.101095 56.430325 
L 259.535997 55.892869 
L 259.753448 55.799394 
L 260.18835 55.889647 
L 260.405802 55.530902 
L 260.623253 55.459219 
L 261.058155 55.686377 
L 261.275606 56.172743 
L 261.710508 56.593863 
L 261.92796 57.034804 
L 262.145411 57.028861 
L 262.362862 56.705152 
L 262.580313 56.626551 
L 262.797764 56.82496 
L 263.232666 56.943338 
L 264.537373 58.313456 
L 264.754824 58.375794 
L 264.972275 58.249423 
L 265.407178 57.790108 
L 265.84208 57.724459 
L 266.711885 57.298806 
L 266.929336 57.353114 
L 267.364238 56.806625 
L 267.79914 56.863234 
L 268.234043 56.45535 
L 268.451494 56.087079 
L 268.668945 55.953935 
L 268.886396 56.007183 
L 269.538749 56.46109 
L 269.7562 56.894689 
L 269.973652 56.955386 
L 270.191103 56.859077 
L 270.408554 57.167659 
L 270.843456 57.966494 
L 271.278358 58.460106 
L 271.930712 58.132374 
L 272.365614 57.803437 
L 272.583065 57.882678 
L 273.017967 58.358402 
L 273.45287 58.665296 
L 273.670321 58.626077 
L 274.105223 58.791622 
L 274.540125 58.341905 
L 274.757577 58.396618 
L 274.975028 58.32515 
L 275.40993 57.882073 
L 275.844832 57.563565 
L 276.279735 57.746382 
L 276.932088 57.333978 
L 277.584441 57.787389 
L 277.801892 57.609051 
L 278.236795 56.794511 
L 278.671697 56.909138 
L 278.889148 57.272622 
L 279.106599 57.885985 
L 279.541502 58.145318 
L 280.411306 60.050438 
L 280.846208 59.883541 
L 281.281111 60.148947 
L 281.716013 59.728717 
L 282.150915 60.306612 
L 282.803269 60.367724 
L 283.02072 60.635316 
L 283.238171 60.673275 
L 283.455622 60.312472 
L 283.890524 60.166035 
L 284.325427 59.683783 
L 284.542878 59.556362 
L 285.195231 58.758328 
L 285.630133 58.81403 
L 286.065036 58.253044 
L 286.717389 58.20499 
L 287.587194 57.86608 
L 288.022096 58.251925 
L 288.239547 58.267277 
L 288.456998 58.725871 
L 288.8919 60.258851 
L 289.109352 60.435214 
L 289.761705 60.201354 
L 290.414058 60.63575 
L 290.848961 61.246184 
L 291.283863 61.499786 
L 291.718765 61.354115 
L 291.936216 61.30351 
L 292.371119 61.640613 
L 293.240923 61.165596 
L 293.458374 61.291977 
L 293.675825 60.941816 
L 293.893277 60.175196 
L 294.110728 60.087826 
L 294.328179 60.165478 
L 294.763081 59.641683 
L 295.197983 59.9495 
L 295.415434 59.953759 
L 295.632886 60.389286 
L 295.850337 60.277625 
L 296.067788 60.501054 
L 296.285239 60.085342 
L 296.50269 60.429016 
L 298.024848 107.964184 
L 298.894653 123.769375 
L 299.764457 134.718563 
L 300.634262 142.848245 
L 301.286615 146.876734 
L 302.15642 150.945195 
L 303.243675 155.328828 
L 304.983284 160.753914 
L 305.635638 162.480803 
L 307.157796 165.853875 
L 308.245051 167.832177 
L 309.114856 168.953339 
L 309.549758 169.283382 
L 311.289367 170.911223 
L 311.72427 171.069929 
L 312.376623 171.431625 
L 314.116232 172.104428 
L 314.551134 172.061298 
L 316.290743 172.672546 
L 316.725646 172.629431 
L 317.59545 172.831069 
L 318.247804 172.739557 
L 318.682706 172.778847 
L 320.422315 172.613844 
L 321.29212 172.708011 
L 321.727022 172.710677 
L 322.161924 172.866079 
L 322.596826 172.822516 
L 323.466631 172.856711 
L 327.380751 172.522656 
L 328.033105 172.532551 
L 328.468007 172.498783 
L 329.772714 172.489328 
L 330.207616 172.594543 
L 331.729774 172.738397 
L 332.382128 172.909804 
L 334.121737 172.865325 
L 334.556639 172.920831 
L 335.208992 172.885684 
L 336.513699 172.886129 
L 336.948601 172.799532 
L 338.035857 172.962468 
L 338.68821 172.898153 
L 339.992917 172.795142 
L 340.645271 172.61844 
L 345.211745 172.075475 
L 345.646647 171.931647 
L 346.081549 171.894231 
L 347.168805 171.50258 
L 347.821158 171.505383 
L 348.908414 171.312663 
L 349.343316 170.896991 
L 349.778218 170.148041 
L 350.430572 167.912517 
L 350.865474 166.44201 
L 351.300376 165.44568 
L 351.735279 164.982272 
L 351.95273 164.771908 
L 352.387632 164.671092 
L 353.257437 162.935197 
L 353.692339 162.624153 
L 354.344692 162.495127 
L 356.084301 163.58205 
L 359.998422 166.084774 
L 360.868226 166.414585 
L 361.303129 166.61774 
L 361.52058 166.669268 
L 361.955482 167.026055 
L 363.260189 167.519235 
L 364.347444 167.858545 
L 364.782347 167.967092 
L 365.4347 168.10895 
L 367.174309 168.547108 
L 367.609211 168.463358 
L 368.479016 168.619577 
L 368.913918 168.652307 
L 369.566272 168.786099 
L 370.218625 168.834197 
L 370.653527 168.953699 
L 371.305881 168.894335 
L 373.480392 168.873076 
L 373.697843 168.768068 
L 374.567648 169.007844 
L 376.089806 169.677981 
L 376.524708 169.917224 
L 377.829415 170.35475 
L 378.264317 170.305838 
L 379.351573 170.148331 
L 379.786475 170.058235 
L 380.221377 170.086982 
L 381.091182 169.951291 
L 381.743535 170.015075 
L 383.700596 170.084615 
L 386.744911 169.109376 
L 387.179814 169.148668 
L 388.919423 169.366604 
L 389.789227 169.177207 
L 390.006678 169.219636 
L 390.659032 168.985284 
L 391.093934 168.998566 
L 391.311385 168.943721 
L 391.746288 169.006715 
L 392.18119 168.958848 
L 393.268445 169.138178 
L 394.573152 169.920566 
L 395.225506 170.204332 
L 395.877859 170.567017 
L 396.965115 171.227454 
L 397.400017 171.536017 
L 398.487273 171.933962 
L 398.487273 171.933962 
" style="fill:none;stroke:#000000;stroke-linecap:square;stroke-width:1.5;"/>
   </g>
   <g id="line2d_18">
    <path clip-path="url(#p36f7821b40)" d="M 73.832727 243.068809 
L 74.919983 242.788687 
L 75.789787 243.191745 
L 76.22469 243.501401 
L 76.442141 243.509201 
L 77.094494 243.879201 
L 77.311945 243.864285 
L 78.18175 244.224655 
L 78.399201 244.165597 
L 78.616652 244.251248 
L 78.834103 244.170403 
L 79.051555 244.308218 
L 81.226066 259.809759 
L 82.748224 267.606386 
L 84.705284 274.658702 
L 85.79254 277.072296 
L 87.097247 279.329063 
L 87.532149 279.49228 
L 87.967051 280.091243 
L 88.401953 280.408411 
L 88.836856 280.514604 
L 89.271758 280.715821 
L 89.924111 280.842345 
L 90.359014 281.263942 
L 91.011367 282.278969 
L 91.66372 283.51484 
L 92.750976 284.564836 
L 93.620781 284.595421 
L 94.490585 284.293185 
L 94.925487 284.11261 
L 95.795292 283.745479 
L 96.230194 283.417828 
L 96.447645 283.332753 
L 96.882548 282.923642 
L 97.099999 282.859022 
L 97.534901 282.621969 
L 97.752352 282.601003 
L 98.187254 282.344152 
L 99.27451 282.012335 
L 99.709412 281.502514 
L 100.144315 281.470344 
L 100.796668 282.102986 
L 101.014119 282.367311 
L 101.666473 282.553431 
L 102.101375 282.917102 
L 102.318826 282.931926 
L 103.188631 283.524451 
L 103.840984 284.296232 
L 104.275886 284.167746 
L 104.710789 284.224689 
L 105.363142 284.267395 
L 105.580593 284.217046 
L 107.102751 284.653427 
L 107.972556 284.894129 
L 109.059811 285.429961 
L 109.929616 285.430671 
L 110.364518 285.311834 
L 110.581969 285.168456 
L 111.016871 285.068834 
L 111.451774 285.094944 
L 111.886676 285.303674 
L 112.321578 285.669116 
L 112.973932 286.397785 
L 113.408834 286.494302 
L 115.148443 285.836187 
L 115.583345 286.018731 
L 116.018248 286.146499 
L 116.670601 287.000944 
L 117.105503 287.739608 
L 117.540406 288.021381 
L 119.280015 288.223581 
L 119.714917 288.427561 
L 120.149819 288.485779 
L 121.237075 288.863081 
L 121.671977 289.226325 
L 122.324331 289.166137 
L 122.759233 288.931037 
L 122.976684 288.958409 
L 123.846488 289.697601 
L 124.06394 289.822708 
L 124.498842 289.838983 
L 125.368646 290.101202 
L 126.238451 290.795888 
L 126.455902 290.816062 
L 126.890804 291.124697 
L 127.543158 290.869279 
L 127.760609 290.972312 
L 127.97806 290.859897 
L 128.412962 291.121711 
L 128.847865 290.739224 
L 129.717669 290.33773 
L 130.370023 290.624716 
L 130.804925 290.474365 
L 131.239827 290.634061 
L 131.674729 290.655922 
L 132.327083 290.446182 
L 133.63179 290.716711 
L 134.936496 291.522174 
L 136.023752 291.502356 
L 136.458654 291.427671 
L 136.676105 291.571104 
L 137.980812 291.475683 
L 138.850617 289.702655 
L 139.285519 289.237859 
L 139.720421 288.950844 
L 140.155324 288.742897 
L 140.590226 288.052141 
L 141.242579 286.675918 
L 141.894933 286.02236 
L 142.547286 285.741037 
L 144.069444 284.920671 
L 144.504346 284.919623 
L 144.939249 284.943485 
L 145.374151 284.782783 
L 146.678858 284.301293 
L 148.201016 283.720254 
L 148.635918 283.473323 
L 149.288271 283.52655 
L 149.505722 283.605758 
L 149.940625 283.353686 
L 150.375527 283.787165 
L 150.592978 283.718462 
L 151.462783 282.918272 
L 152.550038 282.566848 
L 152.984941 282.685709 
L 153.419843 283.077045 
L 153.637294 283.058708 
L 154.289647 282.695982 
L 154.72455 282.925937 
L 154.942001 282.915109 
L 155.811805 283.718987 
L 156.246708 284.39651 
L 156.899061 284.920054 
L 157.333963 285.32836 
L 157.768866 286.015107 
L 158.421219 287.197903 
L 158.856121 287.817258 
L 159.508475 288.468489 
L 160.160828 288.96468 
L 160.813182 289.269282 
L 161.248084 289.670995 
L 161.465535 289.957331 
L 161.900437 289.951966 
L 162.335339 289.641942 
L 162.552791 289.697413 
L 162.770242 289.601483 
L 163.205144 289.758105 
L 163.640046 289.464185 
L 164.074949 289.312945 
L 164.727302 289.466371 
L 165.814558 289.271048 
L 166.466911 289.254388 
L 166.901813 289.776886 
L 167.119264 289.931448 
L 167.989069 289.903964 
L 168.858874 290.603903 
L 169.728678 291.026673 
L 170.16358 291.369576 
L 170.598483 291.429322 
L 171.685738 291.214364 
L 173.425347 289.896129 
L 173.86025 289.90037 
L 174.295152 289.838508 
L 174.512603 289.787611 
L 174.947505 289.975177 
L 175.382408 289.794231 
L 175.81731 289.792481 
L 176.252212 289.802211 
L 176.904566 289.974769 
L 177.556919 290.744872 
L 178.426723 291.130879 
L 178.861626 291.193501 
L 179.513979 291.660693 
L 179.948881 292.014667 
L 180.601235 291.924271 
L 181.253588 291.702338 
L 181.688491 291.610686 
L 182.340844 291.13921 
L 183.210648 291.02785 
L 183.645551 290.717726 
L 184.297904 290.879032 
L 184.732806 291.254908 
L 185.38516 291.139642 
L 185.820062 291.114979 
L 186.907318 291.067611 
L 187.34222 291.466099 
L 188.429476 292.406005 
L 188.646927 292.488137 
L 189.29928 292.394543 
L 189.516731 292.396825 
L 189.951634 291.892945 
L 190.386536 291.294917 
L 191.038889 291.419637 
L 191.473792 291.316757 
L 192.126145 290.854463 
L 192.778498 291.156871 
L 192.99595 291.265187 
L 193.648303 290.97937 
L 193.865754 290.90505 
L 194.083205 290.99554 
L 195.170461 290.615102 
L 195.387912 290.403194 
L 196.257717 290.38191 
L 196.692619 290.580269 
L 197.127521 290.498497 
L 197.344972 290.539376 
L 197.779875 290.436403 
L 197.997326 290.401656 
L 198.432228 290.144285 
L 199.302033 290.210196 
L 199.736935 290.135354 
L 199.954386 290.293864 
L 201.041642 290.314361 
L 201.476544 290.201093 
L 202.346348 289.84793 
L 202.5638 289.894302 
L 203.868506 290.881247 
L 204.303409 290.794342 
L 204.738311 290.632219 
L 205.825567 290.943302 
L 206.260469 291.153279 
L 206.912822 291.293148 
L 207.130273 291.168726 
L 207.347725 291.185872 
L 208.000078 291.67328 
L 208.217529 291.834243 
L 209.739687 291.835912 
L 210.39204 291.567145 
L 210.609492 291.343446 
L 211.479296 291.327107 
L 212.566552 290.796027 
L 213.436356 290.792299 
L 214.08871 291.154285 
L 214.523612 291.121209 
L 215.175965 290.881902 
L 215.828319 290.764707 
L 216.698123 291.104999 
L 217.350477 291.509487 
L 218.220281 291.70389 
L 218.655184 291.996613 
L 219.090086 292.550178 
L 219.524988 292.615591 
L 219.95989 292.761006 
L 220.394793 292.765663 
L 220.612244 292.811364 
L 221.047146 292.685135 
L 221.264597 292.733322 
L 223.221657 294.450776 
L 223.439109 294.35317 
L 223.65656 293.899673 
L 224.308913 293.412997 
L 224.743815 292.971943 
L 225.178718 292.775578 
L 226.048522 292.781382 
L 227.135778 293.202456 
L 227.353229 293.196906 
L 227.788131 293.528876 
L 228.005582 293.489293 
L 228.440485 293.785829 
L 228.875387 294.13758 
L 229.745191 294.375169 
L 231.267349 294.689617 
L 231.702252 294.958659 
L 232.137154 295.063059 
L 232.354605 295.037939 
L 232.789507 295.422674 
L 233.659312 295.39675 
L 234.311665 295.310297 
L 234.964019 294.737857 
L 235.833823 294.677166 
L 236.051274 294.533079 
L 236.703628 294.597302 
L 237.573432 294.511528 
L 238.008335 294.579455 
L 239.313041 294.223883 
L 239.530493 294.047399 
L 239.965395 294.313141 
L 241.052651 293.990558 
L 241.922455 294.11598 
L 242.574809 293.99979 
L 243.227162 293.504516 
L 243.879515 293.464805 
L 244.531869 293.109815 
L 244.966771 293.17392 
L 245.401673 292.82553 
L 245.836576 292.785862 
L 246.70638 292.228692 
L 247.141282 292.283616 
L 248.445989 291.61626 
L 248.66344 291.582266 
L 249.098343 291.27035 
L 249.533245 291.144318 
L 250.185598 290.334199 
L 250.620501 289.616706 
L 252.577561 288.117708 
L 253.012463 287.653715 
L 253.664816 287.550327 
L 253.882268 287.574624 
L 254.31717 287.212751 
L 254.534621 287.153212 
L 254.969523 286.925637 
L 255.186974 286.831918 
L 255.621877 286.293551 
L 255.839328 286.169888 
L 256.27423 285.335404 
L 257.361486 282.914705 
L 257.796388 282.583497 
L 258.448741 282.323885 
L 258.883644 282.604824 
L 259.753448 283.185692 
L 260.18835 283.105385 
L 261.058155 283.414674 
L 261.493057 283.280802 
L 262.145411 283.662643 
L 262.362862 283.753573 
L 263.232666 283.727605 
L 263.667569 283.123616 
L 264.102471 283.03024 
L 264.537373 283.310485 
L 264.972275 283.272195 
L 266.059531 282.60612 
L 266.929336 282.649108 
L 268.234043 282.187496 
L 269.103847 282.065406 
L 269.321298 282.17846 
L 269.7562 282.01217 
L 270.191103 281.587361 
L 271.060907 281.330059 
L 271.49581 281.444716 
L 271.930712 281.654378 
L 272.365614 281.425128 
L 272.800516 281.418634 
L 273.017967 281.396275 
L 273.670321 281.727486 
L 273.887772 281.783052 
L 274.322674 281.631862 
L 274.757577 281.875461 
L 275.627381 282.870752 
L 275.844832 283.026912 
L 276.279735 283.61487 
L 276.714637 283.732709 
L 276.932088 283.867273 
L 277.584441 283.866041 
L 277.801892 284.038708 
L 278.236795 284.071373 
L 278.671697 284.189468 
L 279.32405 284.264632 
L 280.628757 284.196525 
L 281.933464 284.328496 
L 282.368366 284.545914 
L 283.238171 285.229652 
L 283.890524 285.997096 
L 285.412682 287.198297 
L 285.630133 287.225971 
L 286.065036 286.873988 
L 286.282487 286.900016 
L 286.93484 286.53575 
L 287.587194 286.968766 
L 287.804645 287.173776 
L 288.674449 287.266808 
L 289.109352 287.008137 
L 289.761705 287.46 
L 289.979156 287.496494 
L 290.414058 287.254564 
L 290.848961 287.310469 
L 291.718765 287.123176 
L 292.371119 286.881916 
L 293.458374 285.201598 
L 294.328179 284.563136 
L 294.980532 284.699822 
L 295.632886 284.70565 
L 296.067788 284.520925 
L 296.285239 284.674156 
L 296.50269 284.469651 
L 296.937592 280.70331 
L 297.807397 273.452523 
L 299.329555 265.062853 
L 300.199359 261.401909 
L 300.634262 259.917317 
L 301.721517 257.146877 
L 302.373871 255.356546 
L 305.635638 249.42975 
L 306.940345 248.358501 
L 307.375247 247.810203 
L 307.810149 247.412575 
L 308.245051 247.316874 
L 308.679954 246.939612 
L 309.332307 246.433206 
L 309.767209 246.17356 
L 310.419563 245.626024 
L 310.854465 244.999802 
L 312.376623 244.152221 
L 313.246428 243.961207 
L 314.116232 243.332879 
L 314.768586 242.883493 
L 315.63839 242.441066 
L 316.290743 242.525655 
L 316.508195 242.487326 
L 316.943097 242.698768 
L 318.247804 242.234402 
L 318.465255 242.258385 
L 318.900157 242.072518 
L 319.117608 242.090381 
L 319.552511 241.921672 
L 319.987413 241.975328 
L 320.422315 241.852336 
L 321.509571 240.857793 
L 321.944473 240.685082 
L 323.466631 239.933731 
L 323.901533 240.016569 
L 324.988789 239.537589 
L 325.641142 239.071167 
L 328.468007 237.43167 
L 328.902909 236.874216 
L 330.207616 236.253735 
L 330.85997 236.366688 
L 331.512323 236.343307 
L 331.947225 236.414902 
L 332.81703 236.736807 
L 333.251932 237.024892 
L 333.904285 237.503159 
L 334.991541 238.241533 
L 335.643895 238.323354 
L 335.861346 238.363867 
L 336.296248 238.26277 
L 336.948601 238.545592 
L 337.383504 238.742787 
L 337.818406 238.875977 
L 339.340564 239.306001 
L 340.210368 238.920428 
L 341.080173 238.167169 
L 341.949977 238.437114 
L 343.689587 237.613089 
L 344.124489 237.497325 
L 346.299 236.637289 
L 346.516451 236.585702 
L 347.386256 237.02287 
L 347.603707 237.105132 
L 348.038609 237.584291 
L 348.908414 238.168794 
L 349.995669 239.039882 
L 350.213121 239.156205 
L 350.648023 239.000764 
L 351.735279 239.290773 
L 352.170181 239.015467 
L 353.692339 238.92971 
L 354.997046 238.902067 
L 355.431948 238.907738 
L 355.649399 238.888219 
L 356.519204 239.381502 
L 357.389008 239.795762 
L 358.041362 239.848086 
L 359.346068 240.175927 
L 359.780971 240.539398 
L 361.52058 240.756897 
L 361.955482 240.635363 
L 362.390384 240.416472 
L 364.999798 239.765343 
L 365.869602 239.923113 
L 366.739407 240.509651 
L 367.39176 240.723917 
L 367.826663 240.611307 
L 368.261565 240.7691 
L 368.479016 240.664957 
L 369.131369 239.832091 
L 370.001174 239.168787 
L 370.436076 239.285476 
L 371.08843 239.363352 
L 371.740783 239.473296 
L 372.175685 239.624654 
L 372.828039 239.554568 
L 374.350197 238.703094 
L 375.220001 237.793368 
L 375.872355 237.650583 
L 378.481768 238.573078 
L 379.134122 238.814792 
L 380.221377 238.838008 
L 381.091182 239.379503 
L 382.830791 241.525414 
L 384.135498 242.636343 
L 386.092558 243.07478 
L 386.962363 243.411187 
L 387.614716 243.944566 
L 388.267069 243.986522 
L 388.701972 243.894211 
L 389.136874 243.648346 
L 390.22413 243.636491 
L 390.441581 243.622264 
L 391.963739 244.313925 
L 392.616092 244.477086 
L 393.485897 244.775036 
L 395.225506 245.604937 
L 395.660408 245.65944 
L 396.530213 246.319076 
L 396.965115 246.383949 
L 397.617468 246.502375 
L 398.05237 246.521044 
L 398.487273 246.660231 
L 398.487273 246.660231 
" style="fill:none;stroke:#000000;stroke-linecap:square;stroke-width:1.5;"/>
   </g>
   <g id="line2d_19">
    <path clip-path="url(#p36f7821b40)" d="M 73.832727 226.422816 
L 74.26763 226.120355 
L 74.702532 226.002129 
L 75.137434 225.674545 
L 75.572336 225.791916 
L 76.007239 225.949426 
L 77.094494 227.17217 
L 77.746848 228.113535 
L 78.399201 228.605756 
L 78.834103 228.769115 
L 79.051555 228.465501 
L 80.573712 215.595768 
L 81.226066 212.070566 
L 82.313322 207.246841 
L 83.183126 204.51658 
L 83.618028 203.435715 
L 84.270382 201.883266 
L 86.444893 197.496578 
L 87.097247 196.625102 
L 88.401953 194.95595 
L 89.70666 193.67922 
L 91.011367 193.213069 
L 91.446269 193.023309 
L 91.881172 192.740971 
L 93.838232 192.089971 
L 94.708036 192.451782 
L 95.142939 192.619048 
L 95.795292 192.49924 
L 96.882548 192.042885 
L 97.31745 191.977854 
L 98.187254 191.738637 
L 99.491961 191.876016 
L 100.796668 191.149679 
L 101.23157 190.810123 
L 102.536277 190.474706 
L 103.406082 190.044 
L 105.363142 189.84789 
L 107.320202 188.9931 
L 108.190007 188.096233 
L 108.624909 187.526624 
L 109.059811 187.040363 
L 109.712165 186.403293 
L 110.147067 186.118276 
L 111.451774 185.617861 
L 112.104127 185.024268 
L 112.539029 184.875063 
L 113.191383 184.538343 
L 113.843736 184.091781 
L 114.49609 183.583361 
L 115.583345 183.049222 
L 117.105503 182.361953 
L 117.757857 182.33015 
L 118.41021 182.065335 
L 118.845112 181.845982 
L 119.280015 181.712652 
L 120.36727 181.675605 
L 120.584721 181.538871 
L 121.237075 181.495518 
L 122.976684 180.20782 
L 123.411586 179.968928 
L 124.498842 179.039668 
L 124.933744 178.87856 
L 125.151195 178.753409 
L 125.586098 178.80576 
L 126.238451 178.481351 
L 126.673353 178.109169 
L 127.108255 177.777417 
L 127.543158 177.478314 
L 127.97806 177.252387 
L 128.412962 177.16946 
L 129.500218 176.176861 
L 130.152571 176.106881 
L 131.457278 176.427603 
L 134.284143 176.614706 
L 134.501594 176.553849 
L 136.241203 175.006777 
L 137.111008 174.701876 
L 138.198263 174.763902 
L 139.50297 174.592104 
L 139.937872 174.718611 
L 141.677482 175.304159 
L 142.329835 175.344075 
L 142.982188 175.605099 
L 143.417091 175.653067 
L 144.286895 176.047998 
L 144.721797 176.093245 
L 145.374151 176.277235 
L 146.461407 176.528617 
L 147.331211 176.218176 
L 148.418467 176.00642 
L 149.723174 175.642449 
L 150.375527 175.778348 
L 152.984941 175.089129 
L 153.637294 174.546626 
L 154.289647 174.097 
L 155.376903 174.129036 
L 156.029257 174.158877 
L 156.68161 173.977163 
L 157.116512 173.898324 
L 157.768866 173.612181 
L 158.63867 173.225361 
L 159.508475 172.955499 
L 160.813182 172.684339 
L 161.248084 172.527937 
L 161.900437 172.553582 
L 162.335339 172.54563 
L 162.987693 172.762871 
L 163.422595 172.901857 
L 163.857497 172.59424 
L 164.074949 171.929411 
L 164.509851 169.221044 
L 164.944753 167.904517 
L 165.597106 167.465903 
L 166.24946 167.233428 
L 166.466911 167.23838 
L 166.901813 167.465336 
L 167.336716 167.390697 
L 168.858874 166.709292 
L 169.293776 166.772456 
L 169.728678 167.036977 
L 170.16358 167.203178 
L 171.685738 168.316145 
L 172.338092 168.404147 
L 174.077701 168.791797 
L 174.730054 168.939688 
L 175.164956 168.95791 
L 175.382408 169.036993 
L 176.687114 168.839926 
L 177.339468 168.862776 
L 177.991821 168.936457 
L 178.426723 168.983642 
L 178.861626 168.971606 
L 179.73143 169.193652 
L 180.601235 169.847424 
L 183.645551 171.407217 
L 184.080453 171.508168 
L 184.515355 171.647564 
L 185.167709 171.901827 
L 186.037513 172.036479 
L 186.472416 172.095555 
L 187.34222 172.197999 
L 189.951634 172.252088 
L 191.691243 171.241932 
L 193.865754 171.028035 
L 194.300656 171.267202 
L 194.95301 171.680046 
L 195.822814 172.388545 
L 196.257717 172.359036 
L 196.91007 172.48824 
L 197.997326 172.680549 
L 198.432228 172.694509 
L 199.084581 172.793716 
L 200.389288 172.793519 
L 200.606739 172.615628 
L 201.693995 171.068481 
L 202.128897 170.886419 
L 202.998702 170.527959 
L 203.868506 170.529697 
L 204.085957 170.582203 
L 204.52086 170.858506 
L 205.390664 171.145475 
L 206.260469 171.905363 
L 207.565176 172.894772 
L 208.000078 173.050638 
L 209.304785 172.768083 
L 209.739687 172.767774 
L 210.826943 172.364628 
L 211.696747 171.97653 
L 212.349101 171.830868 
L 212.784003 171.958406 
L 213.218905 172.205161 
L 214.306161 172.644379 
L 215.393417 173.041132 
L 215.828319 173.119441 
L 216.263221 173.464422 
L 217.785379 175.193326 
L 219.742439 176.788365 
L 220.394793 177.102376 
L 221.482048 177.212736 
L 222.134402 177.55645 
L 222.569304 177.976322 
L 223.004206 178.186143 
L 224.961267 179.970441 
L 225.61362 180.323314 
L 230.180094 182.538885 
L 230.832447 182.94023 
L 232.354605 184.284054 
L 232.789507 184.380948 
L 233.22441 184.265752 
L 234.094214 184.362527 
L 234.964019 184.463681 
L 235.18147 184.449827 
L 235.833823 184.863782 
L 236.703628 185.047371 
L 237.13853 185.193186 
L 238.008335 185.184616 
L 238.443237 185.398575 
L 240.617748 186.902454 
L 242.79226 187.943673 
L 243.227162 187.885044 
L 243.879515 187.6333 
L 246.054027 187.908396 
L 247.141282 188.274675 
L 247.576185 187.972998 
L 248.011087 187.535065 
L 248.66344 186.735287 
L 250.837952 184.551775 
L 252.577561 182.317254 
L 253.664816 181.264628 
L 255.404426 179.944824 
L 256.27423 179.225966 
L 257.578937 178.283801 
L 258.448741 177.488599 
L 259.101095 176.995159 
L 259.535997 176.663856 
L 260.405802 176.168223 
L 260.840704 176.001119 
L 261.275606 175.772351 
L 262.362862 175.072154 
L 263.015215 174.052432 
L 264.102471 173.245016 
L 265.84208 172.931039 
L 266.929336 173.118967 
L 268.451494 173.176548 
L 268.886396 173.140289 
L 269.321298 172.843203 
L 269.7562 172.669966 
L 270.191103 172.588361 
L 271.930712 172.550751 
L 272.365614 172.716288 
L 272.800516 172.857197 
L 273.45287 172.869641 
L 273.887772 172.734058 
L 274.540125 172.909249 
L 275.192479 173.229314 
L 276.279735 173.714418 
L 279.32405 174.23504 
L 280.193855 173.861094 
L 281.06366 173.578562 
L 281.933464 173.531943 
L 282.368366 173.418856 
L 283.02072 173.449749 
L 283.673073 173.331876 
L 284.325427 173.834719 
L 285.195231 174.377575 
L 286.065036 174.608434 
L 286.499938 174.836566 
L 287.152291 174.931867 
L 288.674449 174.579964 
L 289.109352 174.676863 
L 290.196607 175.220676 
L 290.848961 175.082043 
L 291.283863 175.215398 
L 291.936216 175.317829 
L 292.806021 175.391759 
L 293.458374 175.123176 
L 295.415434 175.156108 
L 295.850337 175.188804 
L 296.50269 175.337244 
L 296.937592 178.868639 
L 297.807397 185.20889 
L 298.894653 191.676367 
L 299.981908 197.110436 
L 301.069164 200.942895 
L 302.373871 204.308714 
L 303.461126 206.750482 
L 304.11348 208.398944 
L 309.549758 219.771479 
L 310.419563 220.903029 
L 311.071916 221.336919 
L 313.028976 223.095461 
L 314.116232 223.788654 
L 314.768586 224.158667 
L 315.420939 224.207523 
L 316.508195 223.738678 
L 316.943097 223.230712 
L 317.59545 222.906403 
L 318.247804 222.735659 
L 319.117608 222.981605 
L 320.204864 223.004115 
L 320.422315 223.048891 
L 320.857217 222.856828 
L 321.29212 222.824915 
L 321.727022 222.561548 
L 322.161924 222.270792 
L 323.031729 222.026792 
L 323.466631 222.292428 
L 324.988789 222.738058 
L 325.641142 223.153937 
L 326.293496 223.291324 
L 327.815654 223.314782 
L 328.250556 223.351235 
L 329.12036 223.413288 
L 330.207616 223.237685 
L 330.642518 223.233458 
L 331.077421 223.122994 
L 332.382128 222.933873 
L 333.251932 223.082903 
L 333.686834 223.644715 
L 334.121737 223.850923 
L 334.556639 223.86991 
L 337.166052 225.884894 
L 337.600955 226.147997 
L 338.035857 226.439386 
L 338.905662 226.979067 
L 339.340564 227.571639 
L 340.210368 228.127574 
L 341.080173 228.93301 
L 341.515075 228.952127 
L 341.732526 228.924627 
L 344.124489 229.95747 
L 344.34194 230.009149 
L 344.776842 229.86149 
L 344.994293 229.890169 
L 345.429196 229.723316 
L 346.081549 229.498593 
L 346.299 229.447245 
L 346.516451 229.51597 
L 346.951354 229.426596 
L 347.168805 229.475533 
L 347.603707 229.360264 
L 348.690963 229.885404 
L 349.125865 229.970488 
L 349.560767 230.08033 
L 351.300376 231.433917 
L 351.95273 231.629568 
L 352.387632 231.697634 
L 353.474888 231.934647 
L 354.127241 232.196489 
L 354.779594 232.68516 
L 356.301752 234.127895 
L 357.389008 234.732394 
L 358.258813 235.476406 
L 359.128617 236.057279 
L 360.650775 236.900085 
L 361.085677 237.129804 
L 361.303129 237.196664 
L 361.738031 237.508492 
L 362.172933 237.594095 
L 362.607835 237.726499 
L 363.042738 237.74422 
L 363.47764 237.689123 
L 364.347444 237.59553 
L 365.4347 237.51892 
L 365.869602 237.486178 
L 366.087054 237.55256 
L 369.131369 236.608044 
L 370.001174 236.562368 
L 370.436076 236.425596 
L 371.523332 235.596469 
L 371.958234 235.505614 
L 372.393136 235.560883 
L 372.828039 235.671583 
L 373.262941 235.831661 
L 374.132746 236.137102 
L 375.00255 236.26192 
L 375.437452 236.353206 
L 375.872355 236.461633 
L 376.307257 236.621266 
L 377.829415 236.328321 
L 378.916671 235.816878 
L 379.569024 235.956255 
L 380.873731 236.08748 
L 381.308633 236.25825 
L 381.743535 236.238374 
L 381.960986 236.397643 
L 382.178438 236.412915 
L 382.61334 236.138286 
L 383.918047 234.835369 
L 385.005302 234.380122 
L 385.440205 234.459705 
L 386.744911 235.165088 
L 387.179814 235.447337 
L 387.397265 235.479125 
L 387.832167 235.70667 
L 388.049618 235.74315 
L 388.919423 236.320312 
L 389.354325 236.449027 
L 389.789227 236.505761 
L 390.441581 236.864516 
L 391.093934 237.311017 
L 392.18119 237.857306 
L 392.616092 237.747546 
L 393.050994 237.773629 
L 394.13825 237.655034 
L 394.790603 237.738966 
L 395.008055 237.812992 
L 397.182566 237.405705 
L 397.834919 237.362806 
L 398.269822 237.08948 
L 398.487273 237.080773 
L 398.487273 237.080773 
" style="fill:none;stroke:#000000;stroke-linecap:square;stroke-width:1.5;"/>
   </g>
   <g id="patch_3">
    <path d="M 57.6 307.584 
L 57.6 41.472 
" style="fill:none;stroke:#000000;stroke-linecap:square;stroke-linejoin:miter;stroke-width:0.8;"/>
   </g>
   <g id="patch_4">
    <path d="M 414.72 307.584 
L 414.72 41.472 
" style="fill:none;stroke:#000000;stroke-linecap:square;stroke-linejoin:miter;stroke-width:0.8;"/>
   </g>
   <g id="patch_5">
    <path d="M 57.6 307.584 
L 414.72 307.584 
" style="fill:none;stroke:#000000;stroke-linecap:square;stroke-linejoin:miter;stroke-width:0.8;"/>
   </g>
   <g id="patch_6">
    <path d="M 57.6 41.472 
L 414.72 41.472 
" style="fill:none;stroke:#000000;stroke-linecap:square;stroke-linejoin:miter;stroke-width:0.8;"/>
   </g>
  </g>
 </g>
 <defs>
  <clipPath id="p36f7821b40">
   <rect height="266.112" width="357.12" x="57.6" y="41.472"/>
  </clipPath>
 </defs>
</svg>
