<?xml version="1.0" encoding="utf-8" standalone="no"?>
<!DOCTYPE svg PUBLIC "-//W3C//DTD SVG 1.1//EN"
  "http://www.w3.org/Graphics/SVG/1.1/DTD/svg11.dtd">
<svg xmlns:xlink="http://www.w3.org/1999/xlink" width="265.704687pt" height="197.398125pt" viewBox="0 0 265.704687 197.398125" xmlns="http://www.w3.org/2000/svg" version="1.1">
 <metadata>
  <rdf:RDF xmlns:dc="http://purl.org/dc/elements/1.1/" xmlns:cc="http://creativecommons.org/ns#" xmlns:rdf="http://www.w3.org/1999/02/22-rdf-syntax-ns#">
   <cc:Work>
    <dc:type rdf:resource="http://purl.org/dc/dcmitype/StillImage"/>
    <dc:date>2024-09-04T19:47:49.938364</dc:date>
    <dc:format>image/svg+xml</dc:format>
    <dc:creator>
     <cc:Agent>
      <dc:title>Matplotlib v3.9.2, https://matplotlib.org/</dc:title>
     </cc:Agent>
    </dc:creator>
   </cc:Work>
  </rdf:RDF>
 </metadata>
 <defs>
  <style type="text/css">*{stroke-linejoin: round; stroke-linecap: butt}</style>
 </defs>
 <g id="figure_1">
  <g id="patch_1">
   <path d="M 0 197.398125 
L 265.704687 197.398125 
L 265.704687 0 
L 0 0 
z
" style="fill: #ffffff"/>
  </g>
  <g id="axes_1">
   <g id="patch_2">
    <path d="M 35.304688 173.52 
L 258.504687 173.52 
L 258.504687 7.2 
L 35.304688 7.2 
z
" style="fill: #ffffff"/>
   </g>
   <g id="matplotlib.axis_1">
    <g id="xtick_1">
     <g id="line2d_1">
      <defs>
       <path id="m2b35e354ae" d="M 0 0 
L 0 3.5 
" style="stroke: #000000; stroke-width: 0.8"/>
      </defs>
      <g>
       <use xlink:href="#m2b35e354ae" x="75.147053" y="173.52" style="stroke: #000000; stroke-width: 0.8"/>
      </g>
     </g>
     <g id="text_1">
      <!-- 0.2 -->
      <g transform="translate(67.19549 188.118438) scale(0.1 -0.1)">
       <defs>
        <path id="DejaVuSans-30" d="M 2034 4250 
Q 1547 4250 1301 3770 
Q 1056 3291 1056 2328 
Q 1056 1369 1301 889 
Q 1547 409 2034 409 
Q 2525 409 2770 889 
Q 3016 1369 3016 2328 
Q 3016 3291 2770 3770 
Q 2525 4250 2034 4250 
z
M 2034 4750 
Q 2819 4750 3233 4129 
Q 3647 3509 3647 2328 
Q 3647 1150 3233 529 
Q 2819 -91 2034 -91 
Q 1250 -91 836 529 
Q 422 1150 422 2328 
Q 422 3509 836 4129 
Q 1250 4750 2034 4750 
z
" transform="scale(0.015625)"/>
        <path id="DejaVuSans-2e" d="M 684 794 
L 1344 794 
L 1344 0 
L 684 0 
L 684 794 
z
" transform="scale(0.015625)"/>
        <path id="DejaVuSans-32" d="M 1228 531 
L 3431 531 
L 3431 0 
L 469 0 
L 469 531 
Q 828 903 1448 1529 
Q 2069 2156 2228 2338 
Q 2531 2678 2651 2914 
Q 2772 3150 2772 3378 
Q 2772 3750 2511 3984 
Q 2250 4219 1831 4219 
Q 1534 4219 1204 4116 
Q 875 4013 500 3803 
L 500 4441 
Q 881 4594 1212 4672 
Q 1544 4750 1819 4750 
Q 2544 4750 2975 4387 
Q 3406 4025 3406 3419 
Q 3406 3131 3298 2873 
Q 3191 2616 2906 2266 
Q 2828 2175 2409 1742 
Q 1991 1309 1228 531 
z
" transform="scale(0.015625)"/>
       </defs>
       <use xlink:href="#DejaVuSans-30"/>
       <use xlink:href="#DejaVuSans-2e" x="63.623047"/>
       <use xlink:href="#DejaVuSans-32" x="95.410156"/>
      </g>
     </g>
    </g>
    <g id="xtick_2">
     <g id="line2d_2">
      <g>
       <use xlink:href="#m2b35e354ae" x="124.641904" y="173.52" style="stroke: #000000; stroke-width: 0.8"/>
      </g>
     </g>
     <g id="text_2">
      <!-- 0.4 -->
      <g transform="translate(116.690341 188.118438) scale(0.1 -0.1)">
       <defs>
        <path id="DejaVuSans-34" d="M 2419 4116 
L 825 1625 
L 2419 1625 
L 2419 4116 
z
M 2253 4666 
L 3047 4666 
L 3047 1625 
L 3713 1625 
L 3713 1100 
L 3047 1100 
L 3047 0 
L 2419 0 
L 2419 1100 
L 313 1100 
L 313 1709 
L 2253 4666 
z
" transform="scale(0.015625)"/>
       </defs>
       <use xlink:href="#DejaVuSans-30"/>
       <use xlink:href="#DejaVuSans-2e" x="63.623047"/>
       <use xlink:href="#DejaVuSans-34" x="95.410156"/>
      </g>
     </g>
    </g>
    <g id="xtick_3">
     <g id="line2d_3">
      <g>
       <use xlink:href="#m2b35e354ae" x="174.136754" y="173.52" style="stroke: #000000; stroke-width: 0.8"/>
      </g>
     </g>
     <g id="text_3">
      <!-- 0.6 -->
      <g transform="translate(166.185192 188.118438) scale(0.1 -0.1)">
       <defs>
        <path id="DejaVuSans-36" d="M 2113 2584 
Q 1688 2584 1439 2293 
Q 1191 2003 1191 1497 
Q 1191 994 1439 701 
Q 1688 409 2113 409 
Q 2538 409 2786 701 
Q 3034 994 3034 1497 
Q 3034 2003 2786 2293 
Q 2538 2584 2113 2584 
z
M 3366 4563 
L 3366 3988 
Q 3128 4100 2886 4159 
Q 2644 4219 2406 4219 
Q 1781 4219 1451 3797 
Q 1122 3375 1075 2522 
Q 1259 2794 1537 2939 
Q 1816 3084 2150 3084 
Q 2853 3084 3261 2657 
Q 3669 2231 3669 1497 
Q 3669 778 3244 343 
Q 2819 -91 2113 -91 
Q 1303 -91 875 529 
Q 447 1150 447 2328 
Q 447 3434 972 4092 
Q 1497 4750 2381 4750 
Q 2619 4750 2861 4703 
Q 3103 4656 3366 4563 
z
" transform="scale(0.015625)"/>
       </defs>
       <use xlink:href="#DejaVuSans-30"/>
       <use xlink:href="#DejaVuSans-2e" x="63.623047"/>
       <use xlink:href="#DejaVuSans-36" x="95.410156"/>
      </g>
     </g>
    </g>
    <g id="xtick_4">
     <g id="line2d_4">
      <g>
       <use xlink:href="#m2b35e354ae" x="223.631605" y="173.52" style="stroke: #000000; stroke-width: 0.8"/>
      </g>
     </g>
     <g id="text_4">
      <!-- 0.8 -->
      <g transform="translate(215.680043 188.118438) scale(0.1 -0.1)">
       <defs>
        <path id="DejaVuSans-38" d="M 2034 2216 
Q 1584 2216 1326 1975 
Q 1069 1734 1069 1313 
Q 1069 891 1326 650 
Q 1584 409 2034 409 
Q 2484 409 2743 651 
Q 3003 894 3003 1313 
Q 3003 1734 2745 1975 
Q 2488 2216 2034 2216 
z
M 1403 2484 
Q 997 2584 770 2862 
Q 544 3141 544 3541 
Q 544 4100 942 4425 
Q 1341 4750 2034 4750 
Q 2731 4750 3128 4425 
Q 3525 4100 3525 3541 
Q 3525 3141 3298 2862 
Q 3072 2584 2669 2484 
Q 3125 2378 3379 2068 
Q 3634 1759 3634 1313 
Q 3634 634 3220 271 
Q 2806 -91 2034 -91 
Q 1263 -91 848 271 
Q 434 634 434 1313 
Q 434 1759 690 2068 
Q 947 2378 1403 2484 
z
M 1172 3481 
Q 1172 3119 1398 2916 
Q 1625 2713 2034 2713 
Q 2441 2713 2670 2916 
Q 2900 3119 2900 3481 
Q 2900 3844 2670 4047 
Q 2441 4250 2034 4250 
Q 1625 4250 1398 4047 
Q 1172 3844 1172 3481 
z
" transform="scale(0.015625)"/>
       </defs>
       <use xlink:href="#DejaVuSans-30"/>
       <use xlink:href="#DejaVuSans-2e" x="63.623047"/>
       <use xlink:href="#DejaVuSans-38" x="95.410156"/>
      </g>
     </g>
    </g>
   </g>
   <g id="matplotlib.axis_2">
    <g id="ytick_1">
     <g id="line2d_5">
      <defs>
       <path id="m746ffcef1d" d="M 0 0 
L -3.5 0 
" style="stroke: #000000; stroke-width: 0.8"/>
      </defs>
      <g>
       <use xlink:href="#m746ffcef1d" x="35.304688" y="164.834064" style="stroke: #000000; stroke-width: 0.8"/>
      </g>
     </g>
     <g id="text_5">
      <!-- −80 -->
      <g transform="translate(7.2 168.633283) scale(0.1 -0.1)">
       <defs>
        <path id="DejaVuSans-2212" d="M 678 2272 
L 4684 2272 
L 4684 1741 
L 678 1741 
L 678 2272 
z
" transform="scale(0.015625)"/>
       </defs>
       <use xlink:href="#DejaVuSans-2212"/>
       <use xlink:href="#DejaVuSans-38" x="83.789062"/>
       <use xlink:href="#DejaVuSans-30" x="147.412109"/>
      </g>
     </g>
    </g>
    <g id="ytick_2">
     <g id="line2d_6">
      <g>
       <use xlink:href="#m746ffcef1d" x="35.304688" y="143.191885" style="stroke: #000000; stroke-width: 0.8"/>
      </g>
     </g>
     <g id="text_6">
      <!-- −60 -->
      <g transform="translate(7.2 146.991104) scale(0.1 -0.1)">
       <use xlink:href="#DejaVuSans-2212"/>
       <use xlink:href="#DejaVuSans-36" x="83.789062"/>
       <use xlink:href="#DejaVuSans-30" x="147.412109"/>
      </g>
     </g>
    </g>
    <g id="ytick_3">
     <g id="line2d_7">
      <g>
       <use xlink:href="#m746ffcef1d" x="35.304688" y="121.549707" style="stroke: #000000; stroke-width: 0.8"/>
      </g>
     </g>
     <g id="text_7">
      <!-- −40 -->
      <g transform="translate(7.2 125.348925) scale(0.1 -0.1)">
       <use xlink:href="#DejaVuSans-2212"/>
       <use xlink:href="#DejaVuSans-34" x="83.789062"/>
       <use xlink:href="#DejaVuSans-30" x="147.412109"/>
      </g>
     </g>
    </g>
    <g id="ytick_4">
     <g id="line2d_8">
      <g>
       <use xlink:href="#m746ffcef1d" x="35.304688" y="99.907528" style="stroke: #000000; stroke-width: 0.8"/>
      </g>
     </g>
     <g id="text_8">
      <!-- −20 -->
      <g transform="translate(7.2 103.706747) scale(0.1 -0.1)">
       <use xlink:href="#DejaVuSans-2212"/>
       <use xlink:href="#DejaVuSans-32" x="83.789062"/>
       <use xlink:href="#DejaVuSans-30" x="147.412109"/>
      </g>
     </g>
    </g>
    <g id="ytick_5">
     <g id="line2d_9">
      <g>
       <use xlink:href="#m746ffcef1d" x="35.304688" y="78.265349" style="stroke: #000000; stroke-width: 0.8"/>
      </g>
     </g>
     <g id="text_9">
      <!-- 0 -->
      <g transform="translate(21.942187 82.064568) scale(0.1 -0.1)">
       <use xlink:href="#DejaVuSans-30"/>
      </g>
     </g>
    </g>
    <g id="ytick_6">
     <g id="line2d_10">
      <g>
       <use xlink:href="#m746ffcef1d" x="35.304688" y="56.623171" style="stroke: #000000; stroke-width: 0.8"/>
      </g>
     </g>
     <g id="text_10">
      <!-- 20 -->
      <g transform="translate(15.579687 60.42239) scale(0.1 -0.1)">
       <use xlink:href="#DejaVuSans-32"/>
       <use xlink:href="#DejaVuSans-30" x="63.623047"/>
      </g>
     </g>
    </g>
    <g id="ytick_7">
     <g id="line2d_11">
      <g>
       <use xlink:href="#m746ffcef1d" x="35.304688" y="34.980992" style="stroke: #000000; stroke-width: 0.8"/>
      </g>
     </g>
     <g id="text_11">
      <!-- 40 -->
      <g transform="translate(15.579687 38.780211) scale(0.1 -0.1)">
       <use xlink:href="#DejaVuSans-34"/>
       <use xlink:href="#DejaVuSans-30" x="63.623047"/>
      </g>
     </g>
    </g>
    <g id="ytick_8">
     <g id="line2d_12">
      <g>
       <use xlink:href="#m746ffcef1d" x="35.304688" y="13.338814" style="stroke: #000000; stroke-width: 0.8"/>
      </g>
     </g>
     <g id="text_12">
      <!-- 60 -->
      <g transform="translate(15.579687 17.138032) scale(0.1 -0.1)">
       <use xlink:href="#DejaVuSans-36"/>
       <use xlink:href="#DejaVuSans-30" x="63.623047"/>
      </g>
     </g>
    </g>
   </g>
   <g id="line2d_13">
    <path d="M 45.450142 138.526168 
L 46.370746 138.552213 
L 47.380441 138.556151 
L 47.835794 138.581386 
L 48.469328 138.596967 
L 48.7366 138.538176 
L 49.518619 138.63825 
L 49.815588 138.673285 
L 50.280839 138.674676 
L 50.360031 139.483091 
L 50.795586 145.323808 
L 51.379625 148.804671 
L 51.91417 150.932831 
L 53.06245 154.47993 
L 54.032549 156.718164 
L 54.329518 157.306505 
L 55.151133 158.8485 
L 56.893352 161.335764 
L 57.724865 162.173845 
L 58.595974 163.029589 
L 60.001628 164.044719 
L 60.912333 164.462654 
L 63.614752 165.315996 
L 63.971115 165.342288 
L 64.277983 165.39329 
L 65.099598 165.473922 
L 65.564849 165.590189 
L 66.465656 165.624018 
L 66.782423 165.751177 
L 67.435755 165.696724 
L 67.752522 165.744107 
L 68.049491 165.821312 
L 68.425652 165.836283 
L 68.702823 165.798648 
L 69.445246 165.762352 
L 69.959992 165.855996 
L 71.276555 165.944899 
L 71.61312 165.923494 
L 72.791098 165.718251 
L 73.088067 165.700425 
L 73.523621 165.629573 
L 73.939378 165.525609 
L 74.216549 165.537469 
L 75.107457 165.585875 
L 75.513315 165.507509 
L 75.958768 165.520264 
L 76.354727 165.551933 
L 77.928663 165.533825 
L 78.176137 165.500866 
L 78.770076 165.334427 
L 79.670882 165.391871 
L 81.066637 165.368176 
L 81.353707 165.326639 
L 81.581383 165.299485 
L 87.431675 165.085849 
L 87.698947 165.082237 
L 88.104805 164.96755 
L 88.827429 164.93285 
L 89.322378 164.945871 
L 89.718337 164.725438 
L 90.054902 164.622813 
L 90.708234 164.66884 
L 90.906213 164.645258 
L 91.737727 164.505441 
L 92.688028 164.596771 
L 92.895906 164.586903 
L 94.054086 164.525097 
L 94.568832 164.529354 
L 94.885599 164.48352 
L 95.103377 164.534635 
L 95.687416 164.563353 
L 96.528828 164.386376 
L 96.687212 164.437371 
L 96.924787 164.482947 
L 97.320746 164.544342 
L 97.795896 164.461783 
L 101.89407 164.44869 
L 102.220736 164.444514 
L 102.814674 164.319612 
L 103.309623 164.278994 
L 103.636289 164.325062 
L 104.032248 164.252606 
L 104.58659 164.248535 
L 104.883559 164.217575 
L 105.170629 164.262869 
L 105.507194 164.255831 
L 106.150627 164.141628 
L 109.77365 163.925735 
L 110.298296 163.913867 
L 111.020921 163.93965 
L 112.357282 163.851214 
L 113.861925 163.793311 
L 114.19849 163.791771 
L 114.475661 163.767543 
L 114.733034 163.823085 
L 115.020105 163.876877 
L 115.416063 163.785998 
L 115.623942 163.751161 
L 116.267375 163.808016 
L 116.613839 163.887422 
L 117.187979 163.687073 
L 117.435453 163.684477 
L 117.702725 163.717444 
L 117.940301 163.741196 
L 118.276866 163.740325 
L 118.653027 163.66957 
L 120.969386 163.58935 
L 121.107971 163.625517 
L 121.355445 163.668038 
L 121.899889 163.580739 
L 122.414635 163.619696 
L 122.761099 163.594622 
L 123.869784 163.612368 
L 124.740893 163.639562 
L 125.027963 163.548973 
L 126.700889 163.563897 
L 127.235434 163.541975 
L 127.631393 163.525254 
L 131.897849 163.526375 
L 132.066131 163.473155 
L 132.343302 163.443953 
L 133.065927 163.47297 
L 133.362896 163.427885 
L 133.768754 163.440374 
L 133.99643 163.491505 
L 134.323096 163.428127 
L 134.699257 163.15121 
L 135.214004 163.178751 
L 135.669356 163.223908 
L 137.758039 163.273717 
L 138.015412 163.295977 
L 139.490359 163.295493 
L 140.401064 163.206921 
L 141.074194 163.279546 
L 141.78692 163.25153 
L 142.054192 163.256165 
L 142.55904 163.305144 
L 143.222271 163.30304 
L 143.657825 163.167584 
L 144.489339 163.24067 
L 144.984287 163.173671 
L 145.281256 163.17039 
L 145.697013 163.224174 
L 145.964285 163.187869 
L 146.647314 163.157273 
L 147.063071 163.227568 
L 147.300646 163.204623 
L 148.023271 163.140374 
L 148.488523 163.151395 
L 149.884278 163.140495 
L 150.15155 163.24433 
L 150.309933 163.245676 
L 150.616801 163.198842 
L 151.052356 163.169326 
L 156.793759 163.116671 
L 157.694565 163.130385 
L 159.882237 163.06982 
L 160.545468 163.125862 
L 161.020619 162.971879 
L 161.327487 162.989624 
L 161.693749 163.044416 
L 162.386677 163.006144 
L 162.782636 162.979232 
L 164.069502 163.034846 
L 164.27738 162.992535 
L 164.505056 162.991148 
L 164.861419 163.019455 
L 165.287075 163.0268 
L 165.514751 163.045746 
L 166.049296 162.935615 
L 166.504648 163.005056 
L 166.78182 163.009933 
L 167.949898 162.874502 
L 168.256766 162.890812 
L 168.533937 162.871221 
L 168.900199 162.831603 
L 169.08828 162.843204 
L 169.979187 162.824024 
L 171.256154 162.865448 
L 171.553123 162.840245 
L 172.562818 162.671654 
L 173.166655 162.732291 
L 173.483422 162.72934 
L 173.770493 162.720012 
L 175.354328 162.837625 
L 175.750287 162.853822 
L 176.977759 162.816099 
L 177.35392 162.786131 
L 177.858767 162.875889 
L 178.403211 162.85633 
L 179.066442 162.848066 
L 179.670279 162.904736 
L 180.531489 162.768208 
L 182.006436 162.8421 
L 183.382393 162.803884 
L 183.709059 162.747625 
L 183.877341 162.76891 
L 184.253502 162.821541 
L 184.540572 162.744779 
L 185.085016 162.739023 
L 185.837337 162.751124 
L 186.035317 162.786889 
L 186.500568 162.838544 
L 187.114304 162.760928 
L 187.480566 162.790581 
L 188.381373 162.679289 
L 189.628643 162.66992 
L 190.351268 162.627561 
L 191.786618 162.589507 
L 192.063789 162.64321 
L 192.53894 162.6507 
L 193.340757 162.549622 
L 193.518938 162.602455 
L 193.98419 162.683441 
L 194.251462 162.619329 
L 195.23146 162.603535 
L 195.924388 162.722269 
L 198.319939 162.549864 
L 198.577312 162.580735 
L 198.735695 162.575655 
L 198.745594 162.554782 
L 198.814887 162.096019 
L 199.55731 153.890298 
L 200.200743 151.077445 
L 201.230236 147.973226 
L 202.576496 145.055087 
L 203.180333 144.013864 
L 205.061137 141.427687 
L 206.664771 139.879093 
L 208.11002 138.869518 
L 208.525777 138.638758 
L 208.991029 138.283656 
L 209.16921 138.153433 
L 209.396886 138.052364 
L 209.584967 138.004288 
L 210.040319 137.851995 
L 210.2284 137.717793 
L 212.53486 136.723158 
L 213.366373 136.646812 
L 213.732635 136.438505 
L 214.306776 136.342588 
L 214.514654 136.269494 
L 214.801724 136.257328 
L 215.207582 136.181014 
L 215.583743 136.206592 
L 215.791621 136.147564 
L 215.9896 136.12376 
L 216.672629 136.051719 
L 217.236871 136.011278 
L 217.989192 136.000777 
L 218.276263 135.971768 
L 218.563333 135.910527 
L 218.979089 135.871424 
L 219.563129 135.968237 
L 219.74131 135.97399 
L 220.077875 135.821386 
L 220.463935 135.743394 
L 221.453832 135.793982 
L 222.087366 135.733175 
L 222.384335 135.733212 
L 223.720696 135.686882 
L 224.255241 135.713572 
L 224.750189 135.781122 
L 225.868773 135.687236 
L 226.18554 135.718244 
L 226.561701 135.743229 
L 226.898266 135.678686 
L 227.5318 135.692513 
L 228.076243 135.625491 
L 228.284121 135.651177 
L 228.501899 135.627011 
L 229.105736 135.710371 
L 229.422503 135.753424 
L 230.31341 135.665702 
L 230.976641 135.761898 
L 232.293204 135.796086 
L 232.728759 135.860113 
L 232.966334 135.815214 
L 233.352394 135.871247 
L 233.956231 136.004965 
L 234.174009 136.048933 
L 234.520473 136.007936 
L 235.431178 136.080263 
L 235.896429 136.206322 
L 236.282489 136.176431 
L 236.688347 136.157529 
L 236.955619 136.237301 
L 237.371376 136.353298 
L 238.212789 136.22208 
L 238.638444 136.311092 
L 239.16309 136.429862 
L 239.440261 136.378546 
L 239.766927 136.376445 
L 240.152987 136.403168 
L 240.360865 136.498062 
L 240.687531 136.507188 
L 241.024096 136.417156 
L 241.212176 136.440077 
L 241.55864 136.480232 
L 242.677224 136.446273 
L 243.132577 136.515799 
L 243.696818 136.574323 
L 245.12227 136.586969 
L 245.587521 136.663618 
L 246.676408 136.66292 
L 246.904084 136.711367 
L 247.51782 136.599502 
L 248.032567 136.666331 
L 248.359233 136.756851 
L 248.359233 136.756851 
" clip-path="url(#pcde27e2450)" style="fill: none; stroke: #000000; stroke-opacity: 0.5; stroke-width: 1.5; stroke-linecap: square"/>
   </g>
   <g id="line2d_14">
    <path d="M 45.450142 139.124812 
L 46.380645 139.108474 
L 48.192157 139.215445 
L 48.400035 139.15326 
L 48.647509 139.142146 
L 49.805689 139.25843 
L 50.063062 139.268947 
L 50.300637 139.29787 
L 50.439223 139.754034 
L 50.75599 140.557063 
L 51.577605 141.495551 
L 52.339825 141.996884 
L 52.597199 142.11898 
L 52.854572 142.303309 
L 53.418813 142.558168 
L 53.567298 142.635437 
L 53.794974 142.719334 
L 55.329314 143.37094 
L 55.725273 143.533856 
L 57.170523 143.915459 
L 57.507088 143.982864 
L 58.279207 144.098204 
L 59.249306 144.326102 
L 59.605669 144.401666 
L 60.140214 144.482056 
L 61.625059 144.807742 
L 62.506068 144.94639 
L 63.218794 145.000186 
L 63.515763 145.049548 
L 64.970911 145.235635 
L 65.673738 145.219603 
L 66.079596 145.243548 
L 66.515151 145.277341 
L 68.296965 145.322252 
L 72.880188 145.342908 
L 73.850288 145.29145 
L 74.246246 145.362217 
L 75.117356 145.2777 
L 76.097354 145.302713 
L 76.671494 145.25856 
L 77.136746 145.262535 
L 77.413917 145.316822 
L 77.799977 145.274366 
L 78.017754 145.254154 
L 80.106437 145.116364 
L 80.324214 145.156559 
L 81.027041 145.217744 
L 83.481986 145.274971 
L 83.699763 145.32769 
L 83.996732 145.313517 
L 84.521377 145.207622 
L 86.89713 145.285339 
L 87.372281 145.281586 
L 87.689048 145.25024 
L 88.490864 145.244854 
L 88.896722 145.202402 
L 89.163994 145.100151 
L 89.58965 145.084055 
L 89.777731 145.114216 
L 90.054902 145.15595 
L 90.579547 145.119892 
L 90.906213 145.106387 
L 91.381364 145.099889 
L 93.866005 145.030295 
L 94.222368 144.934917 
L 94.628226 144.9332 
L 95.034084 145.082422 
L 95.974486 144.987839 
L 96.162566 145.035443 
L 96.60802 145.126575 
L 97.875088 145.064407 
L 98.251249 145.122322 
L 98.894682 144.993498 
L 99.082763 145.024123 
L 99.280742 145.00115 
L 99.58761 145.048528 
L 100.102356 145.106125 
L 100.636901 144.991233 
L 101.171445 145.137072 
L 102.992856 144.954319 
L 103.260128 144.95363 
L 103.784773 144.878973 
L 106.210021 144.998545 
L 106.536687 144.9627 
L 107.298908 144.83727 
L 108.516481 144.925174 
L 109.417287 144.932902 
L 109.734054 144.943371 
L 110.15971 144.918728 
L 111.466374 145.019189 
L 111.872232 144.930165 
L 113.208593 144.960007 
L 113.861925 144.854838 
L 117.069191 144.71199 
L 117.781917 144.801595 
L 118.316462 144.778181 
L 119.365752 144.917027 
L 119.801307 144.909573 
L 124.829984 144.862038 
L 125.037862 144.894928 
L 126.235638 144.982739 
L 127.433413 144.964696 
L 127.938261 144.893957 
L 128.165937 144.908501 
L 128.779673 144.955025 
L 131.917647 144.887051 
L 132.135424 144.925468 
L 132.521484 144.899858 
L 135.065519 144.932866 
L 135.293195 144.888111 
L 135.877235 144.870237 
L 136.184103 144.813696 
L 136.471173 144.821492 
L 137.035414 144.94687 
L 137.282888 144.872442 
L 138.282684 144.888994 
L 138.70834 144.895251 
L 139.856621 144.819614 
L 140.401064 144.871781 
L 141.470153 144.79791 
L 141.826516 144.794367 
L 142.568939 144.699384 
L 142.915403 144.67966 
L 143.32126 144.69761 
L 143.746916 144.625102 
L 144.459642 144.592961 
L 144.647722 144.560966 
L 144.835803 144.595884 
L 145.063479 144.588741 
L 145.924689 144.486861 
L 150.230741 144.538403 
L 150.775185 144.584855 
L 151.042457 144.651208 
L 151.982859 144.548796 
L 152.547101 144.644101 
L 152.784676 144.637215 
L 155.259418 144.798079 
L 155.605882 144.844672 
L 156.615577 144.723886 
L 157.377798 144.815816 
L 157.724262 144.838314 
L 158.41719 144.877868 
L 159.060623 144.865839 
L 159.852541 144.823117 
L 162.366879 144.850787 
L 162.901423 144.886439 
L 169.315956 144.855266 
L 169.573329 144.883226 
L 171.879789 144.729517 
L 172.206455 144.750169 
L 172.998373 144.779084 
L 173.384433 144.779145 
L 173.790291 144.708708 
L 174.790087 144.788239 
L 176.076953 144.734439 
L 176.274932 144.70735 
L 177.314324 144.780342 
L 177.551899 144.784248 
L 178.41311 144.753716 
L 178.898159 144.811406 
L 179.353512 144.88462 
L 180.244419 144.858144 
L 181.927244 144.783357 
L 182.511283 144.815244 
L 183.174514 144.597109 
L 188.876321 144.875591 
L 189.133694 144.841124 
L 189.975107 144.755966 
L 190.390864 144.766693 
L 191.756921 144.697973 
L 192.113284 144.699251 
L 192.519142 144.736733 
L 193.429847 144.754373 
L 193.69712 144.750931 
L 198.834685 144.679797 
L 199.468219 143.196834 
L 200.022562 142.587031 
L 200.834277 142.011493 
L 201.141145 141.836238 
L 201.903366 141.499587 
L 202.616092 141.084167 
L 203.249626 140.843074 
L 205.170026 140.290284 
L 205.70457 140.111961 
L 208.426787 139.543599 
L 208.892039 139.390845 
L 209.436482 139.252185 
L 209.931431 139.247932 
L 210.139309 139.268346 
L 211.792437 139.10327 
L 212.030012 139.043072 
L 212.416072 138.960147 
L 212.732839 138.931385 
L 212.970415 138.931731 
L 213.267384 138.979791 
L 214.970007 138.962227 
L 215.286774 138.924536 
L 216.147984 138.881499 
L 216.395458 138.827699 
L 216.702326 138.826558 
L 216.930003 138.861851 
L 217.187376 138.82832 
L 217.652627 138.789548 
L 220.22636 138.696412 
L 220.652015 138.616571 
L 221.582519 138.563641 
L 221.919084 138.576674 
L 222.315042 138.550008 
L 222.7209 138.565971 
L 223.00797 138.609411 
L 223.334636 138.570583 
L 223.888979 138.652879 
L 224.146352 138.632655 
L 224.987764 138.60661 
L 225.324329 138.636444 
L 226.452812 138.673495 
L 226.749781 138.59477 
L 232.471386 138.586671 
L 232.807951 138.545517 
L 233.015829 138.544578 
L 233.322697 138.535205 
L 233.629565 138.531086 
L 235.747945 138.628027 
L 236.094409 138.630651 
L 236.440873 138.572683 
L 238.440465 138.556059 
L 238.697838 138.554974 
L 239.776826 138.605311 
L 240.271774 138.653133 
L 240.707329 138.669967 
L 241.004298 138.567156 
L 241.291368 138.515634 
L 242.499043 138.580939 
L 245.033179 138.610346 
L 245.260855 138.671197 
L 245.716208 138.725279 
L 246.112167 138.717233 
L 246.617014 138.749865 
L 248.181051 138.750563 
L 248.329536 138.816162 
L 248.359233 138.862694 
L 248.359233 138.862694 
" clip-path="url(#pcde27e2450)" style="fill: none; stroke: #000000; stroke-opacity: 0.5; stroke-width: 1.5; stroke-linecap: square"/>
   </g>
   <g id="line2d_15">
    <path d="M 45.450142 139.33137 
L 47.87539 139.272809 
L 48.598015 139.213172 
L 49.805689 139.267947 
L 50.013567 139.32311 
L 50.845081 139.380989 
L 51.6172 139.257434 
L 52.379421 139.401262 
L 52.686289 139.432584 
L 53.309924 139.336114 
L 54.735376 139.374616 
L 56.982442 139.393953 
L 57.398199 139.408945 
L 60.100618 139.393441 
L 60.46688 139.477326 
L 60.951929 139.408357 
L 63.337581 139.448588 
L 63.525662 139.50313 
L 63.981014 139.558905 
L 64.673942 139.483393 
L 65.990505 139.569188 
L 66.475555 139.571841 
L 69.326458 139.444412 
L 69.623427 139.473247 
L 70.682617 139.383013 
L 70.959788 139.400891 
L 71.514131 139.413436 
L 71.731908 139.400488 
L 71.99918 139.454123 
L 72.167463 139.387854 
L 72.494129 139.342524 
L 73.127663 139.419753 
L 73.691904 139.402294 
L 74.40463 139.383343 
L 74.968871 139.416633 
L 75.572708 139.242091 
L 77.077352 139.315938 
L 77.592098 139.196075 
L 78.63149 139.408248 
L 79.11654 139.384258 
L 79.443206 139.39892 
L 79.69068 139.336912 
L 80.403406 139.130387 
L 80.93795 139.085464 
L 81.561585 139.143912 
L 83.679965 139.169957 
L 84.066025 139.077301 
L 85.105417 139.195309 
L 86.016122 139.235625 
L 86.313091 139.31664 
L 86.679353 139.233102 
L 89.233287 139.420216 
L 89.599549 139.449846 
L 89.995508 139.370681 
L 90.945809 139.499098 
L 91.22298 139.5055 
L 91.648636 139.441654 
L 91.945605 139.466519 
L 92.400958 139.452039 
L 92.806815 139.501223 
L 93.806611 139.513973 
L 94.8757 139.545288 
L 95.103377 139.513018 
L 95.469638 139.523019 
L 95.667618 139.600486 
L 96.004183 139.690567 
L 97.310847 139.683948 
L 97.617715 139.697597 
L 98.191855 139.570563 
L 99.280742 139.741392 
L 99.716297 139.697222 
L 100.953668 139.706123 
L 101.339728 139.686185 
L 101.656495 139.698117 
L 103.101744 139.707861 
L 103.616491 139.650308 
L 104.418307 139.682138 
L 105.220124 139.594899 
L 105.467598 139.619078 
L 105.942749 139.522302 
L 107.358302 139.5821 
L 107.75426 139.596064 
L 107.981937 139.632828 
L 108.3383 139.580766 
L 108.862945 139.55031 
L 109.051026 139.61158 
L 109.526176 139.627648 
L 109.793448 139.551741 
L 110.882335 139.655774 
L 111.288193 139.685016 
L 111.971222 139.610089 
L 113.218492 139.658414 
L 113.446168 139.650888 
L 117.286969 139.525019 
L 117.554241 139.589526 
L 119.167773 139.499885 
L 119.662722 139.506234 
L 120.355649 139.49899 
L 120.622922 139.532182 
L 120.989184 139.573885 
L 121.682111 139.525253 
L 121.919687 139.566725 
L 122.94918 139.522274 
L 123.800491 139.560437 
L 124.038066 139.519266 
L 125.295236 139.615152 
L 125.493215 139.587913 
L 126.037658 139.586168 
L 126.344526 139.530626 
L 126.799879 139.490169 
L 127.27503 139.563097 
L 127.641292 139.490871 
L 127.839271 139.488214 
L 128.334219 139.382336 
L 129.828964 139.280363 
L 130.066539 139.306183 
L 130.521892 139.376257 
L 131.135628 139.387286 
L 131.581082 139.354065 
L 131.917647 139.395812 
L 132.125525 139.412694 
L 132.313605 139.407442 
L 132.699665 139.370464 
L 133.056028 139.418362 
L 133.541078 139.464269 
L 136.2138 139.422538 
L 136.570163 139.451103 
L 138.015412 139.310682 
L 138.23319 139.387673 
L 138.530159 139.413226 
L 138.99541 139.368557 
L 139.628944 139.375853 
L 140.074398 139.406769 
L 140.470357 139.37002 
L 142.341262 139.634497 
L 142.667928 139.679135 
L 143.687522 139.703495 
L 144.717015 139.67913 
L 145.043681 139.740803 
L 145.518832 139.670802 
L 145.756407 139.673422 
L 145.924689 139.63176 
L 146.132568 139.60665 
L 147.092768 139.64928 
L 147.696605 139.660974 
L 148.369735 139.766998 
L 149.448723 139.76158 
L 149.696197 139.752937 
L 150.399024 139.65841 
L 150.814781 139.649804 
L 151.250335 139.633828 
L 153.566694 139.59059 
L 154.081441 139.546223 
L 154.269521 139.51736 
L 154.804066 139.527865 
L 155.576185 139.465587 
L 155.883053 139.468103 
L 156.49679 139.471924 
L 157.54608 139.477229 
L 157.813353 139.511474 
L 159.219006 139.429117 
L 160.2386 139.384654 
L 160.495974 139.341355 
L 160.961225 139.379119 
L 161.97092 139.429262 
L 162.238192 139.43464 
L 162.871726 139.499731 
L 163.762634 139.378736 
L 164.574349 139.459839 
L 165.544448 139.373153 
L 165.999801 139.470114 
L 166.474952 139.434442 
L 169.078381 139.448761 
L 169.365451 139.450478 
L 169.989086 139.453538 
L 170.345449 139.460238 
L 171.097771 139.419862 
L 171.929284 139.369545 
L 172.473727 139.454788 
L 172.92908 139.390886 
L 173.60221 139.49108 
L 174.473319 139.443867 
L 174.76039 139.429383 
L 175.938367 139.511285 
L 176.96786 139.583402 
L 177.195536 139.659204 
L 177.819171 139.508995 
L 178.106242 139.489383 
L 178.482402 139.536862 
L 178.858563 139.577557 
L 179.808864 139.482071 
L 180.076137 139.484643 
L 181.155124 139.435507 
L 181.640174 139.434717 
L 181.947042 139.482014 
L 182.748859 139.39478 
L 183.184413 139.432233 
L 183.728857 139.52978 
L 184.045624 139.469348 
L 185.966024 139.501876 
L 186.371882 139.498869 
L 186.777739 139.643527 
L 189.618744 139.570805 
L 190.034501 139.612717 
L 191.222377 139.53735 
L 192.291466 139.585736 
L 194.726612 139.736313 
L 195.04338 139.770956 
L 195.587823 139.661635 
L 196.161963 139.747423 
L 196.37974 139.784977 
L 196.86479 139.658193 
L 197.429031 139.640177 
L 197.904182 139.740654 
L 198.369434 139.762213 
L 198.814887 139.664336 
L 199.606805 139.714169 
L 199.804784 139.717048 
L 200.299733 139.527413 
L 200.626399 139.583729 
L 201.537104 139.675539 
L 201.834073 139.641314 
L 202.061749 139.609915 
L 202.299325 139.556462 
L 202.487405 139.616551 
L 202.814071 139.726884 
L 203.289222 139.720071 
L 203.754473 139.659241 
L 204.625583 139.792173 
L 205.496692 139.700524 
L 205.684772 139.753151 
L 205.991641 139.805455 
L 206.981538 139.673519 
L 207.377496 139.764164 
L 207.832849 139.818544 
L 208.862342 139.726436 
L 209.307796 139.85493 
L 209.545371 139.820862 
L 210.03042 139.750785 
L 210.376884 139.716129 
L 210.663954 139.766575 
L 211.604357 139.799953 
L 212.069608 139.700544 
L 212.732839 139.715746 
L 213.059505 139.728637 
L 213.39607 139.701975 
L 213.732635 139.810635 
L 214.187988 139.871966 
L 214.603745 139.831654 
L 215.662934 139.857304 
L 215.999499 139.782437 
L 216.494448 139.729141 
L 216.880508 139.762112 
L 218.553434 139.717967 
L 219.117675 139.74922 
L 219.899694 139.684681 
L 220.275855 139.665291 
L 221.414236 139.611185 
L 221.938882 139.600434 
L 222.216053 139.613983 
L 222.899082 139.498796 
L 226.116247 139.47346 
L 226.492408 139.511647 
L 227.898062 139.481946 
L 228.303919 139.521552 
L 228.957251 139.601075 
L 229.55119 139.484119 
L 237.965314 139.579206 
L 238.20289 139.581467 
L 238.57905 139.603985 
L 239.192787 139.587268 
L 239.578846 139.660571 
L 239.895613 139.703366 
L 240.954803 139.583547 
L 248.359233 139.756509 
L 248.359233 139.756509 
" clip-path="url(#pcde27e2450)" style="fill: none; stroke: #000000; stroke-opacity: 0.5; stroke-width: 1.5; stroke-linecap: square"/>
   </g>
   <g id="line2d_16">
    <path d="M 45.450142 141.04712 
L 46.251959 140.951323 
L 46.697412 140.942955 
L 47.222058 141.056759 
L 48.657408 141.046072 
L 49.399831 140.975103 
L 49.993769 140.855547 
L 50.270941 140.939887 
L 50.290738 140.873328 
L 50.379829 139.969338 
L 50.736192 135.95595 
L 51.231141 133.367246 
L 51.943866 131.111774 
L 53.973155 126.026929 
L 55.784667 122.31587 
L 58.813752 116.517173 
L 59.427488 114.544883 
L 59.566074 113.187786 
L 59.635366 108.724377 
L 59.724457 81.738754 
L 59.853144 34.838697 
L 59.902639 42.035823 
L 60.308496 129.888975 
L 60.377789 130.345211 
L 60.437183 130.168742 
L 60.724253 127.95307 
L 61.159808 125.222775 
L 61.585463 123.933046 
L 62.278391 122.640589 
L 62.545664 122.346422 
L 62.96142 122.091737 
L 63.198996 122.095917 
L 64.089903 121.666731 
L 64.347276 121.55027 
L 64.862023 121.348188 
L 65.0798 121.186945 
L 67.138786 119.002619 
L 67.910905 118.193309 
L 68.15838 118.073898 
L 68.574136 117.636052 
L 68.762217 117.593935 
L 69.385852 116.954337 
L 69.752114 116.638056 
L 70.148073 116.092643 
L 70.375749 115.773217 
L 71.13797 114.570453 
L 71.385444 114.081448 
L 72.018978 112.451972 
L 72.325846 111.064242 
L 72.395139 107.364807 
L 72.48423 83.188996 
L 72.622815 35.042944 
L 72.67231 42.843621 
L 73.068269 128.9668 
L 73.167259 129.796169 
L 73.216753 129.668038 
L 73.394935 128.201519 
L 73.899782 124.387577 
L 74.285842 122.82333 
L 74.869881 121.59787 
L 75.671698 120.794301 
L 76.117152 120.832444 
L 76.988261 120.1041 
L 77.275331 120.083013 
L 77.651492 120.050155 
L 77.908865 120.005312 
L 78.106845 119.90234 
L 79.344216 119.201876 
L 79.542195 119.101226 
L 81.353707 117.826126 
L 81.531888 117.652665 
L 81.937746 117.314393 
L 82.977138 116.548644 
L 83.293905 116.159632 
L 83.452289 115.794771 
L 83.709662 115.370471 
L 83.967035 115.175257 
L 85.293497 112.911961 
L 85.669658 111.279748 
L 85.738951 109.366351 
L 85.818142 96.478294 
L 85.996324 35.254746 
L 86.065617 49.660539 
L 86.402182 127.451701 
L 86.540767 129.49369 
L 86.560565 129.46623 
L 86.669454 128.842233 
L 87.481169 123.210822 
L 88.005815 121.434043 
L 88.698743 120.277847 
L 90.203386 119.504782 
L 90.371669 119.453251 
L 91.064597 118.985942 
L 91.401162 118.774971 
L 92.717725 118.439299 
L 92.9553 118.386987 
L 93.252269 118.275896 
L 93.895702 117.982274 
L 94.846003 116.927433 
L 95.578527 116.447756 
L 96.845595 115.207148 
L 97.18216 114.960222 
L 97.894886 114.271388 
L 98.221552 113.986961 
L 98.439329 113.814153 
L 99.043167 112.82904 
L 99.359934 112.031346 
L 99.597509 111.398117 
L 99.815286 110.08909 
L 99.884579 107.300397 
L 99.963771 91.265865 
L 100.122154 35.151217 
L 100.191447 47.069452 
L 100.54781 127.699195 
L 100.676497 129.491179 
L 100.706194 129.4566 
L 100.815082 128.779254 
L 101.517909 123.752788 
L 102.022757 122.455622 
L 102.448412 121.791386 
L 102.874068 121.45486 
L 103.448208 121.120027 
L 103.755076 120.990216 
L 103.992652 120.881257 
L 104.269823 120.777019 
L 106.596081 119.826215 
L 106.823757 119.792878 
L 107.150423 119.605924 
L 107.298908 119.5226 
L 107.823553 119.138127 
L 109.150015 118.340624 
L 109.466782 118.098504 
L 109.763751 117.922661 
L 110.199306 117.576057 
L 110.436881 117.476112 
L 110.565568 117.400023 
L 110.83284 117.203988 
L 111.783141 116.477075 
L 112.208797 116.048271 
L 112.436473 115.824421 
L 112.723543 115.542795 
L 113.386774 114.758942 
L 114.228187 114.470738 
L 114.733034 113.96073 
L 115.386366 112.643916 
L 115.812022 111.961548 
L 115.980305 111.088513 
L 116.089193 109.628726 
L 116.158486 103.922256 
L 116.267375 65.358507 
L 116.366364 35.508681 
L 116.415859 42.008778 
L 116.841515 128.696829 
L 116.910808 129.106448 
L 116.970202 128.945608 
L 117.207777 127.088755 
L 117.781917 123.570543 
L 118.227371 122.130763 
L 118.573835 121.600224 
L 119.316258 121.117326 
L 119.840903 120.97341 
L 120.009185 120.944389 
L 120.316054 120.811744 
L 120.721911 120.714911 
L 121.40494 120.514445 
L 122.939281 120.153498 
L 123.13726 120.106982 
L 123.612411 119.960651 
L 123.968774 119.857469 
L 124.523116 119.696569 
L 124.730994 119.627233 
L 125.998062 118.839703 
L 127.106747 118.418684 
L 127.453211 118.244707 
L 127.829372 118.057753 
L 128.225331 117.691626 
L 128.700481 117.449107 
L 129.492399 116.574549 
L 129.749772 116.267462 
L 130.294216 115.580208 
L 130.551589 115.402087 
L 131.234618 114.894232 
L 131.818657 114.412161 
L 132.452191 114.581804 
L 132.65017 114.278882 
L 133.451987 113.10688 
L 133.897441 112.505006 
L 134.332995 111.45221 
L 134.550773 110.058793 
L 134.620065 106.904715 
L 134.709156 85.972202 
L 134.857641 35.20149 
L 134.917035 45.246557 
L 135.293195 128.058054 
L 135.411983 129.428313 
L 135.451579 129.372711 
L 135.580266 128.638204 
L 136.253396 123.967988 
L 136.68895 122.622521 
L 137.084909 122.007493 
L 137.401676 121.768481 
L 137.837231 121.25691 
L 138.52026 121.089673 
L 138.945915 121.060878 
L 139.916015 120.820217 
L 140.371367 120.732293 
L 140.698033 120.687737 
L 140.995002 120.584486 
L 142.212576 120.170284 
L 142.588736 119.866987 
L 143.123281 119.518411 
L 144.212168 119.029019 
L 144.95459 118.662634 
L 145.370347 118.447777 
L 146.409739 117.553143 
L 146.97398 117.341318 
L 148.072766 116.182026 
L 148.785492 115.307842 
L 150.349529 113.907978 
L 150.785084 113.253026 
L 151.577001 112.001944 
L 151.873971 111.680979 
L 152.022455 111.322384 
L 152.329323 110.13441 
L 152.398616 108.557292 
L 152.467909 100.069167 
L 152.665888 35.180318 
L 152.754979 55.895612 
L 153.061847 126.655126 
L 153.210332 129.46465 
L 153.230129 129.448872 
L 153.31922 129.023273 
L 154.309117 122.736639 
L 154.695177 122.050776 
L 155.734569 121.386895 
L 156.328507 121.244752 
L 156.813557 121.071024 
L 157.219414 120.836056 
L 157.833151 120.637202 
L 158.89234 120.465845 
L 159.199208 120.325371 
L 160.218802 119.907681 
L 160.733549 119.732918 
L 161.565062 119.245731 
L 161.87193 119.07778 
L 164.138795 117.135035 
L 164.356572 117.020477 
L 164.554551 116.97511 
L 164.802026 116.95963 
L 165.14849 116.843202 
L 165.465257 116.52112 
L 165.752327 116.244073 
L 166.069094 116.078513 
L 167.276768 115.243884 
L 167.524242 114.962685 
L 167.781616 114.744877 
L 168.613129 113.916746 
L 168.840805 113.770608 
L 169.018987 113.673453 
L 169.266461 113.597606 
L 169.395148 113.47678 
L 170.988882 110.789665 
L 171.39474 109.227244 
L 171.464033 106.916468 
L 171.543224 93.187277 
L 171.711507 34.975785 
L 171.7808 47.056957 
L 172.137163 127.70198 
L 172.275748 129.467302 
L 172.295546 129.445091 
L 172.404435 128.907768 
L 173.186453 124.160755 
L 173.631907 122.907488 
L 174.126856 122.16566 
L 175.6216 121.328092 
L 176.235336 121.327915 
L 176.621396 121.166966 
L 177.06685 121.121071 
L 177.957757 120.887594 
L 178.838765 120.389321 
L 179.482198 120.209535 
L 180.125631 119.768985 
L 181.016539 119.42151 
L 181.501588 119.154195 
L 181.67977 119.005759 
L 182.263809 118.672555 
L 182.550879 118.468582 
L 184.154512 117.4317 
L 185.451277 116.767553 
L 185.659156 116.695641 
L 186.629255 115.82026 
L 186.847032 115.675271 
L 187.124203 115.48082 
L 187.401375 115.279801 
L 188.054707 114.69146 
L 188.341777 114.214029 
L 188.757533 113.539779 
L 189.014907 113.270848 
L 189.529653 112.648467 
L 190.380965 111.277817 
L 190.588843 110.229919 
L 190.658136 108.487385 
L 190.737327 96.930898 
L 190.915509 35.354417 
L 190.994701 50.795355 
L 191.321367 126.530123 
L 191.469851 129.233083 
L 191.489649 129.220663 
L 191.57874 128.776715 
L 192.489445 122.919392 
L 192.82601 122.237439 
L 193.142777 121.994303 
L 193.766412 121.379788 
L 194.281159 121.06661 
L 194.627623 121.004877 
L 194.934491 121.005119 
L 195.647217 120.710835 
L 196.755901 120.630422 
L 198.745594 119.44976 
L 198.765392 119.49466 
L 198.844584 120.113674 
L 199.299937 124.812466 
L 199.765188 127.012598 
L 200.477914 129.173841 
L 201.636094 131.709749 
L 202.388415 132.833684 
L 202.873465 133.725367 
L 203.239727 134.20928 
L 203.794069 134.935548 
L 204.694875 136.121571 
L 206.357902 137.962586 
L 207.476486 138.68968 
L 208.258505 139.38933 
L 209.367189 140.108019 
L 209.693855 140.256769 
L 210.376884 140.498502 
L 211.723144 141.274788 
L 212.089406 141.433975 
L 212.82193 141.773634 
L 213.554454 141.944567 
L 213.861322 142.032689 
L 214.306776 142.140539 
L 215.435258 142.355638 
L 215.732227 142.540685 
L 215.959904 142.57116 
L 216.336064 142.61323 
L 218.157475 143.065055 
L 218.870201 143.126011 
L 219.186968 143.155108 
L 219.493836 143.138164 
L 221.117267 143.300971 
L 221.503327 143.294336 
L 222.968374 143.415565 
L 223.39403 143.350422 
L 223.740494 143.412224 
L 224.136453 143.454261 
L 224.374028 143.445211 
L 224.690795 143.465955 
L 224.938269 143.465629 
L 225.581703 143.593292 
L 226.096449 143.453527 
L 226.591398 143.487389 
L 231.818054 143.9073 
L 232.095225 143.878904 
L 232.699062 143.759344 
L 233.253404 143.819831 
L 233.77805 143.839757 
L 235.450976 143.755159 
L 235.668753 143.762266 
L 235.926126 143.737358 
L 237.797032 143.66445 
L 238.668141 143.693724 
L 239.123494 143.634087 
L 240.004502 143.730243 
L 240.944904 143.563203 
L 241.806115 143.632104 
L 242.954395 143.658842 
L 243.281061 143.621772 
L 243.8651 143.502937 
L 244.072979 143.503719 
L 244.340251 143.52485 
L 244.696614 143.606494 
L 246.409136 143.472082 
L 246.824893 143.448423 
L 247.161458 143.412965 
L 248.270142 143.46939 
L 248.359233 143.579695 
L 248.359233 143.579695 
" clip-path="url(#pcde27e2450)" style="fill: none; stroke: #000000; stroke-opacity: 0.5; stroke-width: 1.5; stroke-linecap: square"/>
   </g>
   <g id="line2d_17">
    <path d="M 45.450142 141.914785 
L 45.925293 141.905388 
L 46.657816 141.885571 
L 47.014179 141.866222 
L 47.519027 141.692474 
L 48.182258 141.7656 
L 49.083064 141.803654 
L 49.498821 141.835734 
L 49.785891 141.843341 
L 50.261042 141.739732 
L 50.330334 141.20363 
L 51.072757 131.643267 
L 51.676594 128.311957 
L 52.518007 124.549827 
L 54.844265 115.691247 
L 55.349112 112.596038 
L 55.418405 110.716987 
L 55.487698 101.032964 
L 55.675778 33.867931 
L 55.764869 54.945485 
L 56.061838 125.972492 
L 56.200424 128.589866 
L 56.220222 128.565195 
L 56.319211 127.93938 
L 57.190321 121.101988 
L 58.150521 117.86516 
L 58.764257 116.398798 
L 60.150113 113.510186 
L 60.912333 111.013503 
L 61.011323 109.541066 
L 61.080616 102.861347 
L 61.199404 57.235218 
L 61.288494 35.322591 
L 61.337989 43.369318 
L 61.733948 126.567162 
L 61.823039 127.386328 
L 61.872534 127.251501 
L 62.080412 125.606723 
L 62.614956 121.67499 
L 63.238591 118.985954 
L 64.000812 117.066694 
L 66.693332 112.284747 
L 67.326866 110.683959 
L 67.495149 110.094725 
L 67.584239 108.962785 
L 67.653532 103.44338 
L 67.762421 65.651801 
L 67.861411 35.113147 
L 67.920804 43.073297 
L 68.326662 126.612702 
L 68.425652 127.420847 
L 68.465248 127.313924 
L 68.613732 126.01573 
L 69.138378 121.453562 
L 69.682821 119.055883 
L 70.93999 116.121502 
L 71.335949 115.460402 
L 71.910089 114.474031 
L 73.038572 112.485459 
L 73.810692 109.428506 
L 73.889883 107.627573 
L 73.969075 96.616845 
L 74.147257 34.929721 
L 74.236347 52.016673 
L 74.553114 124.028577 
L 74.711498 126.92619 
L 74.721397 126.918337 
L 74.800589 126.550255 
L 75.226244 122.701891 
L 75.671698 119.820197 
L 76.206242 117.698245 
L 76.889271 116.03392 
L 79.274923 112.036995 
L 79.542195 111.194739 
L 80.047043 108.662297 
L 80.116336 105.460545 
L 80.205426 84.903471 
L 80.353911 34.961168 
L 80.413305 44.189709 
L 80.799365 125.79562 
L 80.908253 126.96447 
L 80.947849 126.864126 
L 81.126031 125.532203 
L 81.80906 120.464535 
L 82.353503 118.380581 
L 82.789058 117.317098 
L 82.947441 117.259936 
L 83.284006 117.336133 
L 83.927439 116.711786 
L 85.105417 115.14766 
L 85.333093 115.026237 
L 86.372485 113.529359 
L 86.99612 112.628207 
L 87.877128 110.689321 
L 88.253289 109.438344 
L 88.550258 107.357865 
L 88.619551 103.234466 
L 88.708642 79.381747 
L 88.847227 34.903563 
L 88.896722 42.062174 
L 89.312479 126.077415 
L 89.40157 126.842515 
L 89.451065 126.733496 
L 89.639145 125.314552 
L 90.173689 121.441687 
L 90.678537 119.457686 
L 91.331869 117.632364 
L 92.579139 115.527706 
L 93.133481 114.769633 
L 93.994692 113.589153 
L 94.331257 113.056974 
L 95.281558 111.67753 
L 95.598325 110.951669 
L 96.063577 109.752729 
L 96.429839 107.541824 
L 96.499131 104.982144 
L 96.578323 90.334238 
L 96.746606 35.042255 
L 96.805999 44.698719 
L 97.192059 125.505352 
L 97.310847 126.76733 
L 97.340544 126.714441 
L 97.459331 125.934901 
L 98.172057 120.518359 
L 98.62741 118.832133 
L 99.270843 117.528061 
L 99.77569 116.874798 
L 102.973058 112.234232 
L 103.755076 109.762853 
L 103.893662 108.449071 
L 103.962955 104.515102 
L 104.052046 81.438131 
L 104.190631 34.806242 
L 104.250025 43.170694 
L 104.655883 125.928895 
L 104.764771 126.929479 
L 104.804367 126.856273 
L 104.962751 125.85381 
L 105.754668 120.442775 
L 106.111031 119.257639 
L 107.27911 116.876616 
L 107.66517 116.436904 
L 108.150219 115.938519 
L 110.238902 112.852033 
L 111.238698 111.444966 
L 111.614859 110.251751 
L 111.89203 109.076 
L 112.010818 107.589577 
L 112.08011 102.484854 
L 112.1791 71.544523 
L 112.297888 34.724599 
L 112.347383 41.124819 
L 112.782937 126.414804 
L 112.862129 126.944878 
L 112.921523 126.797188 
L 113.129401 125.181068 
L 113.723339 121.060225 
L 114.218288 119.220375 
L 114.931014 117.652996 
L 116.772222 115.200242 
L 116.99 114.969155 
L 117.534443 114.325619 
L 117.940301 113.908434 
L 119.147975 112.151722 
L 119.979489 110.575416 
L 120.355649 109.875351 
L 120.64272 108.839594 
L 120.860497 107.252003 
L 120.92979 104.051903 
L 121.01888 83.4594 
L 121.167365 34.884761 
L 121.226759 44.098851 
L 121.612819 125.736136 
L 121.731606 127.059352 
L 121.771202 126.98486 
L 121.909788 126.048814 
L 122.582918 120.94347 
L 123.275846 118.435188 
L 124.622106 115.696407 
L 125.661497 114.622439 
L 127.007757 112.833563 
L 127.482908 111.827296 
L 127.789776 110.915913 
L 128.047149 110.434372 
L 128.462906 109.240859 
L 128.631189 108.25912 
L 128.720279 106.464082 
L 128.799471 96.870458 
L 128.987551 34.839761 
L 129.076642 51.625208 
L 129.403308 123.830965 
L 129.571591 126.645362 
L 129.640883 126.423451 
L 129.908156 124.407757 
L 130.422902 120.880294 
L 130.987143 118.849943 
L 132.016636 117.010439 
L 133.867744 114.920499 
L 134.273602 114.428043 
L 134.600268 113.992177 
L 135.016024 113.503269 
L 135.520872 112.493187 
L 135.857437 111.936901 
L 136.372183 111.214524 
L 136.589961 110.618392 
L 137.114606 107.885056 
L 137.183899 103.183724 
L 137.282888 73.54705 
L 137.401676 34.968134 
L 137.46107 42.650459 
L 137.876827 125.844804 
L 137.975816 126.691531 
L 138.025311 126.589345 
L 138.183695 125.465459 
L 138.70834 121.670105 
L 139.223087 119.31023 
L 139.648742 118.032748 
L 139.985307 117.375986 
L 140.608942 116.363968 
L 141.004901 115.792941 
L 143.509341 113.038717 
L 143.756815 112.723375 
L 144.014188 112.351531 
L 144.350753 111.855375 
L 145.023883 110.475588 
L 145.558428 108.989221 
L 145.993982 106.694284 
L 146.063275 104.360969 
L 146.142467 90.990728 
L 146.310749 35.0165 
L 146.380042 45.753456 
L 146.756203 125.074557 
L 146.88489 126.675701 
L 146.914586 126.634833 
L 147.033374 125.941847 
L 147.825292 120.458585 
L 148.379634 118.635371 
L 149.369531 116.866397 
L 150.547509 115.44541 
L 151.042457 115.144661 
L 151.626496 114.497424 
L 151.88387 114.246411 
L 152.289727 113.538058 
L 152.705484 112.926646 
L 153.210332 112.188378 
L 153.487503 111.420251 
L 153.734977 110.929845 
L 154.031946 110.689016 
L 155.011944 108.679861 
L 155.477196 106.356224 
L 155.546488 102.604499 
L 155.635579 80.419005 
L 155.774165 35.047137 
L 155.833559 42.834926 
L 156.249315 125.826737 
L 156.348305 126.685457 
L 156.387901 126.594957 
L 156.536385 125.424515 
L 157.090728 121.175146 
L 157.684666 118.836567 
L 158.476584 117.117979 
L 159.941631 115.30134 
L 160.416782 114.821087 
L 161.089912 114.102849 
L 161.49577 113.528101 
L 162.861827 111.564429 
L 163.267685 110.797495 
L 163.723038 110.012985 
L 163.871522 109.649321 
L 164.326875 107.257866 
L 164.396168 103.624319 
L 164.485259 81.643986 
L 164.633743 34.772691 
L 164.683238 41.989343 
L 165.108894 125.881367 
L 165.217782 126.729654 
L 165.257378 126.645955 
L 165.405863 125.620099 
L 166.118589 120.656838 
L 166.692729 118.885401 
L 167.534141 117.46859 
L 168.464645 116.273763 
L 169.048684 115.578289 
L 170.157368 114.322838 
L 170.305853 114.2496 
L 170.850296 113.434872 
L 171.285851 112.70444 
L 172.582616 110.023065 
L 173.226049 108.530315 
L 173.50322 107.227324 
L 173.572513 105.676712 
L 173.651705 95.5481 
L 173.839785 34.833807 
L 173.918977 49.656516 
L 174.255542 123.963111 
L 174.413926 126.636345 
L 174.423825 126.633019 
L 174.493117 126.332362 
L 175.512711 119.772367 
L 176.037357 118.193866 
L 176.601598 117.426541 
L 177.076749 116.823957 
L 179.016947 114.609398 
L 179.353512 114.294817 
L 179.798965 113.865998 
L 180.13553 113.51787 
L 181.066034 112.4452 
L 181.956941 111.254604 
L 182.531081 110.02293 
L 182.808252 109.512262 
L 182.956737 109.345651 
L 183.273504 108.794596 
L 183.530877 107.427562 
L 183.629867 105.913481 
L 183.69916 99.95772 
L 183.808048 62.830027 
L 183.907038 34.68363 
L 183.956533 40.255461 
L 184.411886 125.842978 
L 184.491077 126.254589 
L 184.540572 126.127458 
L 184.738552 124.671347 
L 185.302793 121.063986 
L 185.827438 119.003494 
L 186.470871 117.758463 
L 186.926224 117.099911 
L 187.381577 116.646033 
L 188.31208 116.075381 
L 189.242583 114.669914 
L 189.598946 114.463103 
L 190.588843 113.387812 
L 190.965004 112.782129 
L 191.182781 112.489841 
L 191.588639 111.82856 
L 191.935103 111.105521 
L 192.291466 110.456829 
L 192.736919 109.708662 
L 193.083383 108.496173 
L 193.301161 107.232157 
L 193.380353 105.038326 
L 193.459544 93.011775 
L 193.637726 34.620897 
L 193.716918 48.885482 
L 194.063381 123.943741 
L 194.221765 126.352373 
L 194.231664 126.344403 
L 194.320755 126.000069 
L 194.647421 123.47261 
L 195.122571 120.36821 
L 195.568025 118.757242 
L 196.102569 117.733792 
L 197.597314 115.583357 
L 197.785394 115.300925 
L 198.409029 114.190716 
L 198.725796 113.845447 
L 198.765392 113.947488 
L 198.844584 114.877753 
L 199.299937 121.901365 
L 199.725592 124.582266 
L 200.378924 127.267759 
L 201.200539 129.710249 
L 202.24983 132.111294 
L 204.130634 135.372519 
L 206.318307 137.970898 
L 207.139921 138.734498 
L 207.674465 139.175746 
L 208.050626 139.24378 
L 208.119919 139.277231 
L 208.139717 139.318192 
L 208.426787 139.712823 
L 208.951433 140.244929 
L 209.575068 140.509044 
L 209.901734 140.625903 
L 210.376884 141.009937 
L 210.70355 141.123148 
L 210.980722 141.152382 
L 211.307388 141.301358 
L 212.742738 141.944821 
L 213.267384 142.057549 
L 213.772231 142.378273 
L 215.722328 142.976539 
L 215.950005 142.97133 
L 216.18758 143.00073 
L 217.207174 143.340271 
L 218.464343 143.532385 
L 219.097877 143.595646 
L 220.117471 143.84108 
L 220.394642 143.827583 
L 220.859894 143.809145 
L 221.285549 143.901878 
L 221.988376 144.080519 
L 223.126758 144.147114 
L 223.374232 144.212326 
L 224.185948 144.253807 
L 224.403725 144.216736 
L 224.6413 144.274527 
L 225.195643 144.440208 
L 225.631197 144.354364 
L 226.75968 144.479859 
L 227.997051 144.484523 
L 228.343515 144.566356 
L 228.77907 144.508718 
L 229.35321 144.547397 
L 229.689775 144.64275 
L 230.857854 144.461622 
L 231.045934 144.510939 
L 231.511186 144.593542 
L 232.788153 144.514728 
L 233.293 144.560248 
L 233.570171 144.504634 
L 234.134413 144.415001 
L 235.064916 144.435621 
L 235.470774 144.351595 
L 235.926126 144.424043 
L 236.430974 144.431775 
L 239.192787 144.299061 
L 239.469958 144.342489 
L 240.608339 144.319825 
L 241.033995 144.365329 
L 241.519045 144.25375 
L 241.736822 144.240899 
L 241.974397 144.153475 
L 242.261467 144.192948 
L 243.993787 144.229781 
L 244.330352 144.30104 
L 244.647119 144.253033 
L 245.330148 144.214467 
L 246.032975 144.300734 
L 246.527923 144.191574 
L 247.201053 144.205018 
L 248.359233 144.135984 
L 248.359233 144.135984 
" clip-path="url(#pcde27e2450)" style="fill: none; stroke: #000000; stroke-opacity: 0.5; stroke-width: 1.5; stroke-linecap: square"/>
   </g>
   <g id="line2d_18">
    <path d="M 45.450142 144.725051 
L 46.133171 144.718649 
L 46.657816 144.710603 
L 47.241856 144.727582 
L 47.469532 144.71588 
L 47.994177 144.604732 
L 49.350336 144.580727 
L 49.726497 144.539262 
L 50.08286 144.492871 
L 50.251143 144.360726 
L 50.320435 143.565964 
L 50.478819 137.205387 
L 50.765889 130.461179 
L 51.290534 123.468563 
L 52.171543 115.404312 
L 52.547704 111.206881 
L 52.616996 106.321185 
L 52.715986 74.620974 
L 52.834774 32.4476 
L 52.894168 40.703477 
L 53.280227 123.01169 
L 53.359419 123.77577 
L 53.418813 123.601648 
L 53.606893 121.853241 
L 54.339417 114.716853 
L 55.279819 107.981356 
L 55.359011 104.84176 
L 55.448102 86.397011 
L 55.606485 35.712606 
L 55.665879 44.112395 
L 56.071737 121.360156 
L 56.180626 122.415964 
L 56.220222 122.32877 
L 56.378605 121.141638 
L 57.210119 114.052677 
L 58.209915 106.372762 
L 58.289106 100.664813 
L 58.397995 66.307337 
L 58.506884 35.376112 
L 58.556379 40.29963 
L 59.041428 121.234634 
L 59.090923 121.412364 
L 59.150317 121.234795 
L 59.368094 119.426533 
L 60.011527 114.089353 
L 61.14001 106.718758 
L 61.219202 104.86504 
L 61.298393 95.277136 
L 61.496373 35.58148 
L 61.585463 51.200448 
L 61.922028 118.196167 
L 62.090311 121.126921 
L 62.139806 121.033406 
L 62.298189 119.951057 
L 63.06041 114.210135 
L 64.070105 108.3003 
L 64.297781 105.896284 
L 64.376973 100.165404 
L 64.485862 66.33239 
L 64.604649 35.537073 
L 64.644245 40.001315 
L 65.139194 120.727 
L 65.188689 120.869325 
L 65.248082 120.713379 
L 65.436163 119.299349 
L 66.04 114.541642 
L 66.81212 110.104037 
L 67.445654 106.014176 
L 67.524846 103.566625 
L 67.604037 91.591204 
L 67.792118 35.448996 
L 67.861411 46.007837 
L 68.24747 119.308887 
L 68.386056 121.158581 
L 68.405854 121.127163 
L 68.504844 120.501336 
L 69.425448 113.183367 
L 70.306456 108.365063 
L 70.890495 104.378291 
L 70.969687 99.410369 
L 71.068677 72.421363 
L 71.197364 35.305265 
L 71.246858 40.023451 
L 71.751706 120.507479 
L 71.801201 120.661583 
L 71.850696 120.531436 
L 72.028877 119.087322 
L 72.622815 114.094863 
L 73.05837 111.896062 
L 73.879984 108.331542 
L 74.295741 105.788579 
L 74.444226 103.768522 
L 74.523417 96.523441 
L 74.662003 49.047021 
L 74.731296 35.524056 
L 74.79069 41.979922 
L 75.246042 119.939265 
L 75.345032 120.663437 
L 75.394527 120.565568 
L 75.55291 119.527389 
L 76.285434 113.891604 
L 76.958564 110.567809 
L 78.077148 105.683178 
L 78.195935 103.974512 
L 78.275127 97.163649 
L 78.403814 53.81893 
L 78.492905 35.133275 
L 78.542399 40.90487 
L 79.007651 120.068634 
L 79.096742 120.634259 
L 79.146237 120.516932 
L 79.334317 119.061752 
L 80.136134 112.821493 
L 80.848859 109.224029 
L 81.640777 105.157747 
L 81.729868 103.116204 
L 81.80906 93.422147 
L 82.007039 35.289168 
L 82.09613 50.141205 
L 82.442594 117.633065 
L 82.610876 120.444169 
L 82.67027 120.319993 
L 82.838552 119.17294 
L 83.640369 113.05464 
L 85.105417 106.428858 
L 85.313295 105.120104 
L 85.46178 103.099839 
L 85.540971 95.782048 
L 85.679557 48.473289 
L 85.74885 35.232095 
L 85.808244 41.727414 
L 86.263596 119.495542 
L 86.372485 120.209035 
L 86.412081 120.138522 
L 86.560565 119.285345 
L 87.659351 111.655772 
L 89.065005 104.745853 
L 89.144196 102.437794 
L 89.223388 91.541077 
L 89.411469 35.322006 
L 89.49066 46.612156 
L 89.866821 117.852954 
L 90.025205 120.192508 
L 90.035104 120.18863 
L 90.104397 119.940305 
L 90.391467 117.535265 
L 91.044799 112.841597 
L 92.153483 107.848648 
L 92.559341 106.270324 
L 92.965199 104.084225 
L 93.044391 101.444087 
L 93.133481 86.280336 
L 93.301764 35.292728 
L 93.371057 43.781303 
L 93.786813 118.924164 
L 93.905601 120.227196 
L 93.945197 120.151075 
L 94.093682 119.016938 
L 94.747014 113.855327 
L 95.717113 108.824887 
L 96.756505 104.385758 
L 97.023777 101.850003 
L 97.102968 96.102633 
L 97.211857 63.83301 
L 97.320746 35.535174 
L 97.370241 39.87231 
L 97.884987 119.845803 
L 97.924583 119.949432 
L 97.974078 119.814477 
L 98.181956 118.181768 
L 98.795692 113.495577 
L 100.765587 103.265873 
L 100.844779 100.674681 
L 100.93387 85.866441 
L 101.112051 35.337127 
L 101.171445 43.210308 
L 101.597101 118.568805 
L 101.745586 120.050014 
L 101.765383 120.038182 
L 101.854474 119.712053 
L 102.121746 117.612615 
L 102.834472 112.384873 
L 103.715481 108.476793 
L 104.68558 105.051063 
L 104.923155 103.871462 
L 105.022145 101.91687 
L 105.101336 93.452427 
L 105.309215 35.382465 
L 105.398306 50.896199 
L 105.744769 117.165478 
L 105.922951 120.238781 
L 105.982345 120.092857 
L 106.160526 118.713661 
L 106.764363 113.875479 
L 107.397897 110.271075 
L 108.130421 107.057978 
L 108.546178 105.65394 
L 109.01143 102.921851 
L 109.120318 100.84774 
L 109.19951 92.361195 
L 109.397489 35.305579 
L 109.496479 51.366762 
L 109.833044 116.472161 
L 110.011226 119.836991 
L 110.040923 119.823301 
L 110.06072 119.767336 
L 110.219104 118.693348 
L 111.11991 112.205998 
L 112.327585 107.577098 
L 112.693847 106.062366 
L 113.357078 102.361019 
L 113.436269 97.632632 
L 113.535259 71.89485 
L 113.673845 35.315455 
L 113.723339 41.364435 
L 114.188591 119.450135 
L 114.287581 120.082537 
L 114.327177 119.996552 
L 114.475661 118.92959 
L 115.079498 114.290278 
L 115.713032 111.1488 
L 117.059292 105.984341 
L 117.435453 104.339813 
L 117.801715 101.671596 
L 117.871008 99.057991 
L 117.960099 83.032529 
L 118.128381 35.202317 
L 118.187775 42.559536 
L 118.62333 118.520979 
L 118.742117 119.554333 
L 118.781713 119.492116 
L 118.930198 118.615732 
L 119.949792 111.539593 
L 120.593225 108.717863 
L 122.117666 102.620162 
L 122.196858 99.715031 
L 122.285949 83.926842 
L 122.454231 35.409845 
L 122.513625 42.350226 
L 122.959079 118.907173 
L 123.087765 120.052033 
L 123.117462 120.000471 
L 123.23625 119.254821 
L 124.156854 112.19384 
L 124.612207 110.35889 
L 126.50291 103.049812 
L 126.631597 101.326008 
L 126.710788 94.645538 
L 126.839475 53.087491 
L 126.928566 35.157329 
L 126.978061 40.545217 
L 127.46311 119.873126 
L 127.552201 120.324754 
L 127.601696 120.197954 
L 127.769978 118.893778 
L 128.542098 112.576652 
L 129.155834 109.640104 
L 130.551589 104.724129 
L 130.789164 103.89666 
L 130.917851 102.499028 
L 130.997042 97.501117 
L 131.105931 67.298393 
L 131.224719 35.4889 
L 131.274214 39.6625 
L 131.808758 119.26142 
L 131.878051 119.484271 
L 131.927546 119.38498 
L 132.085929 118.397722 
L 132.937241 112.13091 
L 133.52128 109.536866 
L 134.273602 107.046744 
L 134.501278 106.382008 
L 135.510973 102.941102 
L 135.699053 101.396501 
L 135.778245 98.186559 
L 135.867336 81.6037 
L 136.035618 35.199088 
L 136.095012 42.875261 
L 136.530567 118.306206 
L 136.649354 119.574928 
L 136.68895 119.516142 
L 136.837435 118.602602 
L 137.817433 111.332055 
L 138.431169 108.81079 
L 140.15359 102.095502 
L 140.272377 100.603025 
L 140.351569 94.890706 
L 140.470357 59.46053 
L 140.579246 35.477436 
L 140.62874 41.188197 
L 141.11379 119.012153 
L 141.202881 119.46776 
L 141.252376 119.357874 
L 141.420658 118.206346 
L 142.153182 112.807743 
L 142.766918 109.90107 
L 143.192574 108.445822 
L 144.499238 104.027222 
L 144.806106 102.954566 
L 145.013984 101.521814 
L 145.132772 99.451965 
L 145.211964 91.389665 
L 145.419842 35.531034 
L 145.508933 49.99049 
L 145.865296 116.744712 
L 146.033578 119.478035 
L 146.092972 119.326181 
L 146.340446 117.690506 
L 147.142263 112.134098 
L 148.429129 107.239294 
L 149.052764 105.540856 
L 149.438824 103.38647 
L 149.518016 101.785299 
L 149.597207 93.486915 
L 149.805086 35.268887 
L 149.894176 49.65912 
L 150.250539 117.059946 
L 150.428721 119.897023 
L 150.488115 119.741375 
L 150.666296 118.296439 
L 151.190942 114.153835 
L 151.913566 110.559094 
L 152.814373 107.192938 
L 153.507301 105.040829 
L 154.259622 102.055516 
L 154.358612 100.099006 
L 154.437804 91.70841 
L 154.645682 35.480084 
L 154.734773 50.606904 
L 155.081237 116.459362 
L 155.249519 119.612527 
L 155.259418 119.611479 
L 155.328711 119.384109 
L 155.556387 117.505531 
L 156.120629 113.415772 
L 156.892748 110.04547 
L 157.585676 107.828764 
L 157.981635 106.867913 
L 159.120017 102.450547 
L 159.219006 100.537692 
L 159.298198 92.506036 
L 159.506077 35.385207 
L 159.595167 50.006832 
L 159.941631 116.001981 
L 160.119813 119.251286 
L 160.169308 119.166946 
L 160.327691 118.049759 
L 160.990922 113.482138 
L 161.911526 109.397532 
L 162.64405 107.363894 
L 163.376574 105.550597 
L 164.227885 102.09994 
L 164.326875 100.034826 
L 164.406067 91.432625 
L 164.604046 35.474566 
L 164.703036 50.784364 
L 165.0495 116.266628 
L 165.227681 119.662199 
L 165.257378 119.675506 
L 165.296974 119.575481 
L 165.455358 118.429895 
L 166.088892 113.775123 
L 166.999597 109.219798 
L 168.098383 105.677619 
L 168.355756 104.666588 
L 168.761614 101.840256 
L 168.840805 99.333429 
L 168.929896 85.454556 
L 169.108078 35.314339 
L 169.17737 44.351286 
L 169.593127 117.81313 
L 169.741612 119.547097 
L 169.76141 119.523857 
L 169.860399 118.972393 
L 170.741408 112.803131 
L 171.909486 108.479486 
L 172.83009 105.645924 
L 173.631907 101.713125 
L 173.730897 99.793826 
L 173.810088 91.343317 
L 174.017967 35.549259 
L 174.107058 50.56033 
L 174.453522 115.592024 
L 174.631703 119.086475 
L 174.671299 119.046615 
L 174.681198 119.016833 
L 174.829682 118.088213 
L 175.572105 112.81622 
L 176.175942 110.217539 
L 176.858971 107.999932 
L 177.670687 106.31537 
L 177.957757 105.929196 
L 178.205231 105.534063 
L 178.878361 103.983855 
L 179.511895 101.974343 
L 179.699976 100.798706 
L 179.818763 98.590053 
L 179.897955 90.568604 
L 180.105834 35.655952 
L 180.194924 50.204283 
L 180.551287 116.352081 
L 180.729469 119.196994 
L 180.788862 119.048429 
L 180.986842 117.639431 
L 181.630275 112.899117 
L 182.115324 110.703831 
L 182.600374 108.755307 
L 182.92704 107.774434 
L 183.204211 107.003132 
L 184.778147 101.809026 
L 184.926632 100.416221 
L 185.005824 97.387383 
L 185.094914 81.659902 
L 185.263197 35.648035 
L 185.322591 42.966902 
L 185.758145 117.850728 
L 185.876933 118.942188 
L 185.90663 118.901546 
L 186.045216 118.21513 
L 187.173698 111.311834 
L 188.321979 107.268111 
L 188.896119 105.785372 
L 190.311672 101.585946 
L 190.687833 99.141476 
L 190.767024 95.557109 
L 190.866014 74.199891 
L 191.014499 35.553504 
L 191.063994 40.684687 
L 191.568841 118.828493 
L 191.667831 119.340117 
L 191.707427 119.258518 
L 191.855911 118.304009 
L 192.63793 112.824392 
L 193.31106 109.957972 
L 194.518734 106.036635 
L 195.033481 104.797716 
L 195.340349 104.279041 
L 195.835297 102.013119 
L 196.053074 100.685229 
L 196.142165 98.441179 
L 196.221357 88.418085 
L 196.419336 35.195911 
L 196.498528 47.632566 
L 196.874689 117.304106 
L 197.023174 119.561863 
L 197.042972 119.548911 
L 197.132062 119.149338 
L 197.429031 116.442226 
L 197.874485 113.393319 
L 198.636706 109.795748 
L 198.735695 109.521467 
L 198.765392 109.622073 
L 198.834685 110.844192 
L 199.299937 122.275756 
L 199.715693 125.955456 
L 200.200743 128.468499 
L 201.180741 132.197537 
L 201.636094 133.45011 
L 202.92296 136.325544 
L 203.4971 137.267644 
L 205.783762 140.31487 
L 206.140125 140.711465 
L 206.644973 141.177577 
L 206.892447 141.380095 
L 207.456688 141.798163 
L 207.714061 141.971608 
L 208.278303 142.384787 
L 208.812847 142.772795 
L 209.525573 143.254786 
L 209.931431 143.334579 
L 210.297693 143.462589 
L 212.069608 144.257266 
L 212.752637 144.454257 
L 213.326777 144.582242 
L 213.673241 144.634454 
L 213.970211 144.673843 
L 214.257281 144.780632 
L 214.514654 144.849836 
L 215.831217 145.104916 
L 216.167782 145.174163 
L 216.395458 145.174139 
L 217.514042 145.386864 
L 217.850607 145.421943 
L 218.424747 145.400336 
L 219.563129 145.508621 
L 219.919492 145.513628 
L 220.51343 145.587713 
L 224.611603 145.606825 
L 224.958067 145.617576 
L 227.482305 145.840298 
L 227.898062 145.815881 
L 228.541495 145.863574 
L 228.788969 145.893659 
L 229.214625 145.914983 
L 230.51139 145.915733 
L 230.847955 145.974064 
L 231.352802 146.001887 
L 231.610175 145.932132 
L 231.85765 145.944951 
L 232.71886 145.987149 
L 234.203706 146.029832 
L 234.431382 146.015432 
L 235.005522 146.014642 
L 236.08451 145.504808 
L 236.411176 145.496294 
L 236.599256 145.506606 
L 237.024912 145.589596 
L 237.272386 145.539379 
L 237.757436 145.56378 
L 238.96511 145.635148 
L 239.539251 145.732529 
L 240.113391 145.775255 
L 240.440057 145.685316 
L 240.935005 145.606075 
L 242.063488 145.68143 
L 242.667325 145.640868 
L 243.597828 145.709124 
L 243.973989 145.696659 
L 246.08247 145.701106 
L 246.310146 145.716392 
L 246.745701 145.777037 
L 247.052569 145.763581 
L 247.478225 145.835815 
L 247.676204 145.712135 
L 247.923678 145.698127 
L 248.359233 145.700291 
L 248.359233 145.700291 
" clip-path="url(#pcde27e2450)" style="fill: none; stroke: #000000; stroke-opacity: 0.5; stroke-width: 1.5; stroke-linecap: square"/>
   </g>
   <g id="line2d_19">
    <path d="M 45.450142 144.773884 
L 45.816404 144.743888 
L 46.083676 144.702508 
L 46.261858 144.735262 
L 46.440039 144.694668 
L 46.628119 144.729005 
L 46.934988 144.797688 
L 47.469532 144.761303 
L 48.182258 144.749177 
L 49.02367 144.772828 
L 49.993769 144.768926 
L 50.211547 144.818159 
L 50.221446 144.793222 
L 50.280839 144.183261 
L 50.36993 139.38086 
L 50.736192 116.006569 
L 51.052959 101.690083 
L 51.161848 65.570902 
L 51.280635 28.795929 
L 51.33013 34.414807 
L 51.775584 111.501259 
L 51.81518 111.641388 
L 51.864675 111.404104 
L 52.062654 108.758874 
L 52.77538 95.653305 
L 52.864471 83.311253 
L 53.052551 37.215112 
L 53.121844 44.1203 
L 53.557399 106.251646 
L 53.676186 107.312416 
L 53.715782 107.224792 
L 53.854368 106.126643 
L 54.537397 97.933238 
L 54.725477 93.49966 
L 54.824467 81.344704 
L 55.022446 39.622946 
L 55.091739 45.114607 
L 55.596586 104.509499 
L 55.705475 105.240655 
L 55.745071 105.190896 
L 55.873758 104.490149 
L 56.408302 99.720489 
L 56.893352 93.920165 
L 56.992341 88.203174 
L 57.121028 60.912612 
L 57.249715 40.289576 
L 57.28931 42.174886 
L 57.467492 69.912588 
L 57.764461 101.202533 
L 57.96244 104.432635 
L 58.002036 104.476165 
L 58.051531 104.376997 
L 58.209915 103.393929 
L 58.823651 97.712703 
L 59.189913 93.116946 
L 59.279003 88.495196 
L 59.397791 66.037978 
L 59.546276 40.190434 
L 59.59577 42.513432 
L 59.79375 73.259929 
L 60.070921 100.331794 
L 60.2689 103.393685 
L 60.298597 103.402485 
L 60.338193 103.331259 
L 60.506476 102.553821 
L 60.872738 99.348654 
L 61.565666 92.105367 
L 61.654756 87.652112 
L 61.783443 64.330377 
L 61.931927 41.964132 
L 61.971523 43.546891 
L 62.139806 65.55141 
L 62.466472 98.014476 
L 62.67435 101.600762 
L 62.743643 101.733164 
L 62.793138 101.635092 
L 62.981218 100.507995 
L 63.882025 92.940437 
L 64.02061 90.188351 
L 64.1196 81.885164 
L 64.367074 43.456794 
L 64.446266 48.509787 
L 65.020406 99.804348 
L 65.198588 100.929455 
L 65.26788 100.788973 
L 65.495557 99.5374 
L 66.158788 93.937297 
L 66.52505 89.112332 
L 66.624039 82.593795 
L 66.881413 45.079818 
L 66.990301 51.728593 
L 67.514947 97.234719 
L 67.712926 99.093435 
L 67.752522 99.108709 
L 67.792118 99.049848 
L 67.950501 98.368324 
L 68.425652 95.043719 
L 68.989893 89.294147 
L 69.098782 84.395217 
L 69.247266 62.207213 
L 69.395751 46.0966 
L 69.435347 47.149952 
L 69.583831 61.196796 
L 69.97979 95.174987 
L 70.187669 98.431815 
L 70.296557 98.666846 
L 70.336153 98.634791 
L 70.46484 98.185885 
L 70.801405 95.983488 
L 71.52403 89.377948 
L 71.672514 86.137675 
L 71.781403 76.910869 
L 72.018978 47.323782 
L 72.078372 49.280359 
L 72.296149 70.416221 
L 72.622815 93.652484 
L 72.840593 96.977063 
L 72.949481 97.230659 
L 72.989077 97.183898 
L 73.15736 96.585311 
L 73.424632 94.997864 
L 74.40463 86.740589 
L 74.513519 82.13056 
L 74.681801 59.941518 
L 74.820387 48.847609 
L 74.859982 49.548837 
L 74.988669 58.330011 
L 75.493517 94.266425 
L 75.721193 96.971852 
L 75.849879 97.175703 
L 75.879576 97.161299 
L 75.988465 96.927326 
L 76.285434 95.387298 
L 76.829878 91.315965 
L 77.107049 87.46573 
L 77.235735 82.583068 
L 77.394119 62.693192 
L 77.542603 49.201332 
L 77.582199 49.804435 
L 77.710886 58.548978 
L 78.205834 93.277553 
L 78.433511 96.528498 
L 78.572096 96.741019 
L 78.591894 96.73535 
L 78.779975 96.566083 
L 78.997752 95.712978 
L 79.265024 93.784971 
L 79.839164 87.665965 
L 79.957952 83.845767 
L 80.096538 68.430655 
L 80.294517 48.158245 
L 80.324214 48.723679 
L 80.443002 56.990135 
L 80.957748 94.83352 
L 81.175525 97.358228 
L 81.264616 97.483303 
L 81.314111 97.43762 
L 81.482394 96.949737 
L 81.799161 95.345781 
L 82.521785 89.610625 
L 82.739563 86.268423 
L 82.848451 79.497876 
L 83.125623 48.794603 
L 83.214713 51.868939 
L 83.511682 79.428525 
L 83.798753 94.760327 
L 84.01653 97.335927 
L 84.125419 97.411455 
L 84.155115 97.39451 
L 84.264004 97.156514 
L 84.551074 95.59064 
L 85.600365 88.207491 
L 85.74885 85.171909 
L 85.867637 76.887372 
L 86.125011 48.866283 
L 86.194303 50.948741 
L 86.42198 70.804387 
L 86.768444 93.57485 
L 86.986221 96.696076 
L 87.144604 96.956913 
L 87.154503 96.952581 
L 87.253493 96.75377 
L 87.510866 95.41492 
L 88.154299 90.813317 
L 88.431471 87.915596 
L 88.639349 83.358883 
L 88.768036 73.334341 
L 89.005611 49.758698 
L 89.055106 50.630341 
L 89.20359 60.512172 
L 89.708438 94.123584 
L 89.926215 96.651197 
L 90.064801 96.790915 
L 90.084599 96.781756 
L 90.203386 96.57809 
L 90.500355 95.507153 
L 91.12399 91.454029 
L 91.698131 86.591875 
L 91.826817 83.117541 
L 91.955504 71.465147 
L 92.18318 48.98634 
L 92.222776 49.698994 
L 92.351463 58.202612 
L 92.876108 94.778328 
L 93.103785 97.394899 
L 93.212673 97.575847 
L 93.252269 97.540584 
L 93.410653 97.130928 
L 93.697723 95.666654 
L 94.410449 90.69613 
L 94.836104 86.55551 
L 94.964791 82.261319 
L 95.113275 66.083758 
L 95.301356 48.908335 
L 95.331053 49.41658 
L 95.44984 56.715255 
L 96.014082 95.147385 
L 96.231859 97.242561 
L 96.291253 97.283266 
L 96.340748 97.211401 
L 96.617919 96.265714 
L 97.18216 93.203295 
L 97.66721 89.455325 
L 97.914684 85.949365 
L 98.033472 80.322275 
L 98.231451 54.438942 
L 98.330441 48.643206 
L 98.379936 49.684057 
L 98.538319 61.188899 
L 99.003571 93.812561 
L 99.221348 96.746538 
L 99.350035 97.038183 
L 99.389631 97.008512 
L 99.538115 96.601612 
L 100.042963 94.377526 
L 100.6468 89.661553 
L 100.963567 84.780882 
L 101.082355 77.921887 
L 101.359526 48.858239 
L 101.448616 52.002272 
L 101.775282 80.233831 
L 102.052454 93.685879 
L 102.28013 96.242567 
L 102.37912 96.401968 
L 102.418715 96.359284 
L 102.5672 95.886649 
L 103.111643 92.82401 
L 103.62639 89.489192 
L 103.903561 86.038923 
L 104.032248 80.697291 
L 104.230227 58.027317 
L 104.358914 50.350891 
L 104.39851 50.933125 
L 104.527196 58.349611 
L 105.091437 93.106663 
L 105.329013 95.67391 
L 105.437901 95.828449 
L 105.477497 95.799215 
L 105.606184 95.447673 
L 106.259516 92.675085 
L 107.269211 85.298577 
L 107.417695 81.889387 
L 107.546382 71.843219 
L 107.783957 50.109549 
L 107.823553 50.692702 
L 107.95224 57.989174 
L 108.516481 92.99768 
L 108.744157 95.699762 
L 108.843147 95.840424 
L 108.882743 95.803123 
L 109.070823 95.338321 
L 109.367793 94.164226 
L 110.050821 89.712044 
L 110.397285 84.630659 
L 110.525972 78.798456 
L 110.842739 50.608436 
L 110.941729 54.01598 
L 111.31789 83.17219 
L 111.595061 93.922739 
L 111.822737 95.895304 
L 111.951424 96.053721 
L 111.981121 96.034801 
L 112.099908 95.753139 
L 112.436473 94.147707 
L 113.376875 88.952849 
L 113.594653 86.380706 
L 113.753036 81.497082 
L 113.901521 66.967808 
L 114.109399 49.073677 
L 114.139096 49.534895 
L 114.257884 56.282884 
L 114.851822 94.002015 
L 115.079498 96.22508 
L 115.188387 96.447855 
L 115.227983 96.409145 
L 115.386366 95.937043 
L 115.752628 93.724737 
L 116.950404 84.702031 
L 117.088989 80.093744 
L 117.237474 64.752862 
L 117.415655 49.946532 
L 117.445352 50.209114 
L 117.544342 55.039032 
L 118.217472 95.266049 
L 118.415451 96.44774 
L 118.504542 96.370896 
L 118.672825 95.751706 
L 119.702317 89.920868 
L 119.96959 86.921041 
L 120.147771 82.782343 
L 120.276458 73.126129 
L 120.523932 50.020714 
L 120.573427 50.999649 
L 120.73181 61.358177 
L 121.21686 92.629116 
L 121.444536 95.479136 
L 121.573223 95.756795 
L 121.612819 95.723129 
L 121.761303 95.289151 
L 122.414635 92.507355 
L 122.830392 90.008973 
L 123.097664 87.870798 
L 123.493623 82.970239 
L 123.62231 76.736875 
L 123.919279 49.934499 
L 124.008369 52.571906 
L 124.285541 73.923941 
L 124.612207 92.003272 
L 124.849782 95.307048 
L 124.998266 95.616357 
L 125.018064 95.607287 
L 125.126953 95.377555 
L 125.433821 94.029265 
L 125.869376 91.322141 
L 126.69099 85.154508 
L 126.849374 80.585837 
L 127.007757 66.837067 
L 127.215636 51.471683 
L 127.245333 51.730012 
L 127.354221 56.206034 
L 128.096644 93.885479 
L 128.304523 94.86697 
L 128.42331 94.84104 
L 128.433209 94.827082 
L 128.601492 94.353747 
L 129.106339 91.949272 
L 129.987347 85.659904 
L 130.264519 80.838121 
L 130.403104 72.905999 
L 130.680275 52.692458 
L 130.72977 53.528474 
L 130.878255 61.596676 
L 131.4029 91.030541 
L 131.640475 94.151028 
L 131.818657 94.585969 
L 131.838455 94.579607 
L 131.97704 94.375319 
L 132.234414 93.577931 
L 132.877847 90.254977 
L 133.372795 86.73242 
L 133.541078 83.981621 
L 133.669764 77.524101 
L 133.976632 51.788539 
L 134.065723 54.070995 
L 134.323096 71.426577 
L 134.689358 91.338344 
L 134.936833 94.724998 
L 135.115014 95.06917 
L 135.223903 94.994314 
L 135.411983 94.384225 
L 135.986123 91.424435 
L 136.738445 85.477557 
L 136.906728 81.035401 
L 137.065111 68.419181 
L 137.282888 52.756368 
L 137.312585 52.960432 
L 137.411575 56.633558 
L 138.203493 93.705242 
L 138.401472 94.443055 
L 138.540058 94.363757 
L 138.747936 93.889901 
L 139.114198 92.507737 
L 139.599248 89.217228 
L 140.331771 83.062175 
L 140.500054 78.627297 
L 140.658437 67.046489 
L 140.866316 53.417053 
L 140.896013 53.631209 
L 140.995002 57.109812 
L 141.806718 93.652403 
L 141.984899 94.271011 
L 141.994798 94.267365 
L 142.123485 94.061023 
L 142.529343 92.528793 
L 143.03419 90.166085 
L 143.80631 84.720151 
L 144.083481 80.214935 
L 144.231966 73.225419 
L 144.519036 54.181093 
L 144.57843 55.028612 
L 144.736813 62.652041 
L 145.301054 90.695634 
L 145.548529 93.365511 
L 145.706912 93.742905 
L 145.736609 93.727826 
L 145.904892 93.440924 
L 146.102871 92.48668 
L 147.033374 87.112188 
L 147.379838 83.784863 
L 147.577817 80.287566 
L 147.726302 72.8243 
L 148.023271 54.502127 
L 148.062867 54.855491 
L 148.181655 58.974073 
L 148.943875 91.352025 
L 149.171552 92.505998 
L 149.28044 92.640182 
L 149.320036 92.609455 
L 149.518016 92.211883 
L 149.844682 90.78481 
L 151.072154 84.174815 
L 151.408719 80.419924 
L 151.5869 75.050552 
L 151.943263 57.416203 
L 152.032354 58.624047 
L 152.230333 66.938122 
L 152.764878 89.129195 
L 153.042049 92.344061 
L 153.210332 92.763736 
L 153.230129 92.756456 
L 153.358816 92.54943 
L 153.794371 91.155501 
L 154.754571 87.047981 
L 155.209923 83.688337 
L 155.516792 79.333833 
L 155.665276 73.375606 
L 155.982043 55.297354 
L 156.031538 55.90707 
L 156.180023 61.741976 
L 156.833355 90.771092 
L 157.080829 92.867232 
L 157.219414 93.124533 
L 157.249111 93.09806 
L 157.635171 92.370307 
L 157.961837 90.939405 
L 158.684462 86.61768 
L 159.060623 82.064454 
L 159.209107 76.930805 
L 159.56547 54.992196 
L 159.66446 56.847766 
L 159.902035 69.134172 
L 160.33759 89.329533 
L 160.614761 92.900387 
L 160.812741 93.461776 
L 160.951326 93.434461 
L 161.119609 93.018499 
L 161.693749 90.838134 
L 163.020211 83.092519 
L 163.188493 80.277123 
L 163.366675 72.764965 
L 163.663644 55.524331 
L 163.723038 56.232777 
L 163.881421 62.875056 
L 164.495158 90.188084 
L 164.752531 92.611114 
L 164.940611 92.973483 
L 165.079197 92.835681 
L 165.405863 91.930309 
L 165.841417 90.578969 
L 166.098791 89.794329 
L 166.385861 88.313273 
L 166.940203 84.171904 
L 167.227273 80.889398 
L 167.395556 76.093063 
L 167.613333 60.191283 
L 167.751919 55.29603 
L 167.791515 55.636462 
L 167.910302 59.793922 
L 168.682422 92.602364 
L 168.910098 93.848725 
L 169.028886 93.977254 
L 169.068482 93.938047 
L 169.513935 93.041717 
L 169.909894 90.868492 
L 170.295954 89.167534 
L 170.72161 87.377356 
L 171.097771 84.417904 
L 171.305649 81.659454 
L 171.464033 76.196176 
L 171.800598 53.675786 
L 171.909486 56.206973 
L 172.206455 74.760225 
L 172.552919 90.46556 
L 172.810292 93.864244 
L 173.008272 94.446999 
L 173.107262 94.343548 
L 173.493321 93.250251 
L 174.572309 88.392973 
L 175.077157 84.092353 
L 175.275136 80.831286 
L 175.423621 73.584191 
L 175.710691 52.633778 
L 175.779984 53.776369 
L 175.968064 64.1472 
L 176.48281 91.114619 
L 176.720386 94.006765 
L 176.898567 94.367162 
L 177.017355 94.231155 
L 177.304425 93.42347 
L 177.858767 90.834809 
L 178.383413 87.636109 
L 179.026846 82.522244 
L 179.195128 77.450776 
L 179.383209 61.964149 
L 179.551491 53.531187 
L 179.581188 53.752712 
L 179.680178 56.981105 
L 180.095935 82.465113 
L 180.383005 91.68084 
L 180.640378 94.261429 
L 180.71957 94.383926 
L 180.769065 94.340582 
L 180.996741 93.82521 
L 181.313508 92.330674 
L 182.560778 85.599839 
L 182.82805 82.898789 
L 183.006232 78.156871 
L 183.184413 65.101198 
L 183.392292 54.003243 
L 183.41209 54.096182 
L 183.491281 56.096064 
L 183.728857 70.404021 
L 184.124815 89.452183 
L 184.392088 93.316144 
L 184.609865 93.987903 
L 184.718754 93.935022 
L 184.887036 93.520858 
L 185.876933 88.993339 
L 186.322387 85.856797 
L 186.609457 82.597357 
L 186.827234 77.423904 
L 186.995517 65.337423 
L 187.193496 54.068528 
L 187.213294 54.172023 
L 187.292486 56.357056 
L 187.53996 71.694437 
L 187.916121 90.203665 
L 188.163595 93.33036 
L 188.341777 93.651301 
L 188.460564 93.514682 
L 188.98521 92.13366 
L 189.480158 90.116725 
L 190.569045 82.422503 
L 190.747226 78.524717 
L 190.90561 69.261023 
L 191.153084 54.153657 
L 191.182781 54.353439 
L 191.281771 57.552834 
L 191.667831 81.239428 
L 191.9648 91.477747 
L 192.192476 93.438096 
L 192.410253 93.823739 
L 192.53894 93.700465 
L 192.756717 93.133233 
L 193.380353 90.077657 
L 194.033685 85.941236 
L 194.281159 82.189971 
L 194.429643 76.122444 
L 194.756309 53.469057 
L 194.8454 55.048534 
L 195.053278 66.120673 
L 195.51853 89.503566 
L 195.775903 93.243177 
L 195.954085 93.660093 
L 196.072872 93.601204 
L 196.399538 92.855446 
L 196.884588 90.907579 
L 197.419132 87.138587 
L 197.785394 83.100136 
L 197.983374 78.974242 
L 198.141757 69.413275 
L 198.39913 54.593673 
L 198.418928 54.694577 
L 198.508019 56.891611 
L 198.755493 70.799851 
L 198.943574 94.18449 
L 199.191048 111.678157 
L 199.468219 117.719474 
L 199.784986 120.398464 
L 200.448217 123.433681 
L 201.309428 126.600185 
L 202.071648 129.123984 
L 202.863566 131.255582 
L 206.041135 136.808151 
L 206.664771 137.554881 
L 207.139921 138.119414 
L 207.555678 138.498534 
L 207.72396 138.616595 
L 208.139717 138.946719 
L 208.911837 139.60091 
L 209.74335 140.13281 
L 209.911633 140.268959 
L 210.366985 140.659309 
L 211.643953 141.061935 
L 211.871629 141.226882 
L 212.713041 141.57426 
L 213.267384 141.836395 
L 213.603949 142.050067 
L 214.415664 142.301362 
L 214.950209 142.50511 
L 215.266976 142.606393 
L 215.712429 142.672931 
L 216.28657 142.740457 
L 216.534044 142.82302 
L 216.870609 143.00306 
L 217.910001 143.099614 
L 218.117879 143.140736 
L 218.553434 143.353231 
L 219.8403 143.486498 
L 220.087774 143.527813 
L 224.136453 143.991406 
L 224.463119 143.955057 
L 224.868977 144.05917 
L 225.136249 144.092072 
L 226.175641 144.113542 
L 228.818666 144.47457 
L 229.224524 144.399719 
L 229.521493 144.488006 
L 229.897654 144.495649 
L 231.362701 144.729114 
L 231.610175 144.703032 
L 231.917043 144.632789 
L 232.293204 144.650418 
L 232.600072 144.734044 
L 232.976233 144.802828 
L 233.698858 144.806005 
L 234.144312 144.844696 
L 235.351986 144.849199 
L 235.69845 144.782789 
L 236.005318 144.928375 
L 236.678448 145.006793 
L 237.52976 145.039349 
L 238.480061 145.158841 
L 239.529352 145.239376 
L 240.053997 145.232458 
L 240.588541 145.216184 
L 240.88551 145.331641 
L 241.321065 145.337438 
L 243.399849 145.336636 
L 244.577826 145.318483 
L 245.538026 145.292607 
L 245.7954 145.284726 
L 248.359233 145.341675 
L 248.359233 145.341675 
" clip-path="url(#pcde27e2450)" style="fill: none; stroke: #000000; stroke-opacity: 0.5; stroke-width: 1.5; stroke-linecap: square"/>
   </g>
   <g id="line2d_20">
    <path d="M 45.450142 143.755732 
L 45.856 143.77985 
L 46.261858 143.695534 
L 47.043876 143.742663 
L 47.311148 143.773799 
L 48.241652 143.716351 
L 49.102862 143.785191 
L 49.587912 143.62107 
L 49.726497 143.679031 
L 49.924477 143.674036 
L 50.221446 143.545933 
L 50.280839 142.33083 
L 50.36993 132.577922 
L 50.736192 44.909412 
L 50.845081 14.76 
L 50.894576 21.46675 
L 51.290534 93.42655 
L 51.320231 93.52513 
L 51.359827 93.294711 
L 51.518211 90.462684 
L 51.924069 78.752217 
L 52.032957 65.555146 
L 52.221038 32.784534 
L 52.280431 36.319471 
L 52.805077 85.092677 
L 52.844673 85.181071 
L 52.894168 85.025689 
L 53.022854 83.63978 
L 53.438611 75.767312 
L 53.557399 69.65597 
L 53.83457 39.790006 
L 53.933559 44.473927 
L 54.478003 79.365009 
L 54.576993 79.825915 
L 54.616588 79.745116 
L 54.774972 78.680823 
L 55.071941 75.321616 
L 55.299617 71.034542 
L 55.438203 63.361839 
L 55.695576 45.37504 
L 55.735172 45.797253 
L 55.85396 51.018073 
L 56.339009 74.223747 
L 56.517191 75.3737 
L 56.606281 75.230463 
L 56.754766 74.518951 
L 57.022038 71.814238 
L 57.348704 66.286998 
L 57.516987 58.599575 
L 57.734764 50.317492 
L 57.754562 50.377089 
L 57.833754 51.710495 
L 58.16042 63.348325 
L 58.467288 70.406573 
L 58.694964 71.728 
L 58.774156 71.699353 
L 58.793954 71.665647 
L 58.92264 71.157728 
L 59.259205 68.260569 
L 59.79375 61.278233 
L 60.150113 55.238168 
L 60.219406 55.560075 
L 60.387688 58.198968 
L 60.912333 66.491327 
L 61.060818 66.842193 
L 61.080616 66.83514 
L 61.179606 66.656216 
L 62.139806 63.031324 
L 62.476371 60.793921 
L 62.694148 60.026755 
L 62.882229 60.07219 
L 63.030713 60.359409 
L 63.218794 61.287332 
L 63.684045 63.727004 
L 63.92162 64.081759 
L 64.070105 63.964712 
L 64.317579 63.175534 
L 64.475963 62.926223 
L 64.50566 62.947231 
L 64.69374 63.08872 
L 64.723437 63.056308 
L 64.98081 62.789548 
L 65.020406 62.834407 
L 65.228284 62.958431 
L 65.584647 62.748877 
L 65.901414 62.274101 
L 65.980606 62.347842 
L 66.495353 63.239042 
L 66.752726 63.430666 
L 66.881413 63.281985 
L 67.297169 62.191944 
L 67.693128 61.061747 
L 67.742623 61.096454 
L 67.970299 61.460331 
L 68.326662 62.888082 
L 68.623631 63.927759 
L 68.841409 64.227713 
L 69.217569 64.780719 
L 69.603629 64.724645 
L 69.722417 64.394602 
L 70.049083 63.500715 
L 70.237163 63.298906 
L 70.761809 62.290535 
L 71.197364 62.167023 
L 71.444838 62.668054 
L 71.533928 62.522932 
L 71.722009 62.340723 
L 71.731908 62.345634 
L 71.840797 62.567469 
L 72.038776 62.890247 
L 72.058574 62.878756 
L 72.246654 62.560156 
L 72.444634 62.372912 
L 72.979178 62.691207 
L 73.335541 63.047912 
L 73.454329 62.820532 
L 73.701803 62.48715 
L 73.810692 62.613292 
L 74.325438 63.604308 
L 74.355135 63.581835 
L 74.820387 63.181304 
L 74.840185 63.202434 
L 75.186648 63.615827 
L 75.236143 63.537371 
L 75.473719 62.701272 
L 75.760789 62.076922 
L 75.988465 62.087239 
L 76.117152 62.566755 
L 76.572504 64.529753 
L 76.770484 64.84697 
L 76.81008 64.821742 
L 76.918968 64.543651 
L 77.354523 63.180189 
L 77.592098 62.910207 
L 77.948461 61.567055 
L 78.186036 60.973503 
L 78.195935 60.976081 
L 78.562197 61.304897 
L 78.750278 61.504072 
L 79.086843 61.382223 
L 79.225428 61.18474 
L 79.265024 61.238155 
L 79.59169 62.159238 
L 79.740175 62.463385 
L 79.779771 62.428275 
L 79.918356 62.335493 
L 79.948053 62.367111 
L 80.690476 63.400983 
L 80.779567 63.314539 
L 80.878556 63.393573 
L 81.155728 63.707476 
L 81.264616 63.635181 
L 81.442798 62.958623 
L 81.80906 62.096132 
L 81.987241 61.944102 
L 82.393099 61.651197 
L 82.521785 61.716563 
L 82.888047 62.091674 
L 83.333501 62.568204 
L 83.759157 63.693366 
L 84.125419 63.735556 
L 84.59067 62.414513 
L 84.679761 62.581966 
L 84.907437 62.934881 
L 85.006427 63.036807 
L 85.293497 63.449608 
L 85.432083 63.717665 
L 85.679557 64.051515 
L 85.818142 63.905282 
L 86.32299 63.030952 
L 86.639757 62.063922 
L 86.956524 61.577089 
L 87.025817 61.674773 
L 87.38218 62.197182 
L 87.698947 62.144952 
L 87.906825 62.40457 
L 87.946421 62.372095 
L 88.035512 62.357181 
L 88.065209 62.404379 
L 88.381976 63.305141 
L 88.81753 64.779946 
L 88.91652 64.632832 
L 89.777731 62.120232 
L 90.183588 61.109853 
L 90.193487 61.114985 
L 90.302376 61.343407 
L 90.589446 61.850909 
L 90.668638 61.800034 
L 90.678537 61.77834 
L 90.926011 61.394981 
L 90.945809 61.404495 
L 91.163586 61.644634 
L 91.411061 61.935615 
L 91.807019 62.460209 
L 91.945605 62.493641 
L 92.193079 62.492498 
L 92.460351 62.287827 
L 92.757321 61.726065 
L 92.9553 61.598552 
L 93.351259 61.780871 
L 93.509642 61.544755 
L 93.569036 61.635449 
L 93.72742 61.721909 
L 93.826409 61.79349 
L 94.48964 63.020738 
L 94.954892 63.209166 
L 95.16277 63.345167 
L 95.311255 63.436153 
L 95.717113 63.694799 
L 95.816102 63.554745 
L 96.311051 62.56912 
L 96.439737 62.499614 
L 96.469434 62.537628 
L 96.964383 63.205788 
L 97.162362 63.27595 
L 97.18216 63.244295 
L 97.429635 63.024909 
L 97.785997 62.740683 
L 98.122562 61.81333 
L 98.181956 61.852717 
L 98.52842 62.272324 
L 98.963975 62.983875 
L 99.10256 63.187661 
L 99.320338 63.454814 
L 99.538115 63.612407 
L 99.835084 64.094418 
L 99.894478 64.011851 
L 100.062761 63.30965 
L 100.409225 62.342145 
L 100.567608 62.289383 
L 100.676497 62.223954 
L 100.983365 61.919488 
L 101.250637 62.223417 
L 101.943565 62.96795 
L 102.488008 62.746792 
L 102.784977 63.113961 
L 103.091845 63.653547 
L 103.438309 63.699104 
L 103.566996 63.701774 
L 103.576895 63.689511 
L 103.91346 63.038819 
L 104.517297 61.662512 
L 104.606388 61.745307 
L 105.071639 62.518963 
L 105.239922 62.580432 
L 106.180324 63.736875 
L 106.695071 63.637101 
L 106.873252 63.833688 
L 106.922747 63.790097 
L 107.209817 63.351636 
L 107.615675 62.277523 
L 107.694867 62.223572 
L 107.734462 62.26511 
L 108.219512 62.866183 
L 108.328401 62.952103 
L 108.575875 63.225138 
L 108.585774 63.219603 
L 109.229207 62.962436 
L 109.367793 62.895927 
L 109.664762 62.302618 
L 109.803347 62.071396 
L 109.842943 62.120355 
L 110.070619 62.363301 
L 110.080518 62.357975 
L 110.2587 62.115246 
L 110.35769 62.033095 
L 110.397285 62.080875 
L 110.575467 62.387277 
L 110.634861 62.331423 
L 110.73385 62.321355 
L 110.753648 62.347774 
L 111.535667 63.431476 
L 111.763343 63.475094 
L 111.921727 63.223673 
L 112.456271 62.342681 
L 112.476069 62.355208 
L 112.644352 62.408795 
L 112.66415 62.383548 
L 112.842331 62.197563 
L 112.881927 62.232508 
L 113.020513 62.546639 
L 113.23829 62.885813 
L 113.386774 63.319353 
L 113.475865 63.437266 
L 113.52536 63.391229 
L 113.842127 63.172225 
L 114.238086 63.275937 
L 114.346975 63.305556 
L 114.376671 63.268242 
L 114.653843 62.931785 
L 114.68354 62.951584 
L 115.020105 63.358266 
L 115.277478 63.730489 
L 115.515053 63.725303 
L 115.73283 63.283295 
L 116.049597 62.803738 
L 116.207981 62.623653 
L 116.247577 62.663166 
L 116.544546 63.163742 
L 116.623738 63.091994 
L 117.187979 62.64878 
L 117.36616 62.559684 
L 117.504746 62.586515 
L 118.049189 63.154944 
L 118.365956 63.135087 
L 118.583734 63.47414 
L 118.752016 63.513569 
L 119.00939 63.341201 
L 119.761711 61.64743 
L 119.791408 61.669166 
L 119.949792 61.739484 
L 119.979489 61.709874 
L 120.038882 61.709246 
L 120.068579 61.761669 
L 120.771406 63.324365 
L 120.801103 63.307659 
L 121.296052 62.841824 
L 121.464334 62.804764 
L 121.771202 62.726576 
L 121.880091 62.796662 
L 122.107767 62.946213 
L 122.36514 62.973555 
L 122.899685 62.719087 
L 123.206553 63.26063 
L 123.691602 64.395167 
L 123.820289 64.35922 
L 124.008369 63.832042 
L 124.414227 62.55275 
L 124.77059 61.922328 
L 124.928974 61.687005 
L 124.96857 61.72123 
L 125.166549 62.142549 
L 125.582306 63.174188 
L 125.790184 63.304831 
L 126.136648 63.123118 
L 126.31483 62.904871 
L 126.354425 62.933432 
L 126.819677 63.440437 
L 127.057252 63.720703 
L 127.334423 64.041637 
L 127.552201 64.208096 
L 127.997654 63.785732 
L 128.304523 62.629643 
L 128.670784 61.280436 
L 128.779673 61.407718 
L 129.165733 62.072367 
L 129.29442 61.926006 
L 129.442904 61.937847 
L 129.561692 61.837314 
L 129.848762 61.611201 
L 130.026943 61.592672 
L 130.185327 61.696918 
L 131.135628 63.175099 
L 131.491991 63.645376 
L 131.88795 64.328233 
L 131.986939 64.176154 
L 132.313605 62.925148 
L 132.521484 62.539899 
L 132.679867 62.439813 
L 133.273806 61.507005 
L 133.293603 61.524257 
L 133.719259 62.178237 
L 134.055824 63.150922 
L 134.303298 63.409352 
L 134.342894 63.377711 
L 134.501278 63.387561 
L 134.728954 63.422081 
L 135.115014 63.218935 
L 135.580266 62.407047 
L 135.649558 62.533003 
L 135.916831 62.982052 
L 135.92673 62.977135 
L 136.372183 62.544424 
L 136.649354 62.248539 
L 136.817637 62.146474 
L 136.956222 61.950464 
L 137.005717 62.003032 
L 137.302686 62.252881 
L 137.609554 62.506777 
L 137.916423 63.056141 
L 138.064907 63.402622 
L 138.272785 63.796888 
L 138.282684 63.793706 
L 138.381674 63.623372 
L 139.124097 61.750153 
L 139.133996 61.755923 
L 139.440864 62.148476 
L 139.817025 62.628276 
L 140.074398 62.858876 
L 140.133792 62.789747 
L 140.371367 62.699339 
L 140.618841 62.496393 
L 140.816821 62.139756 
L 140.856417 62.166235 
L 141.390961 62.536518 
L 141.49985 62.598078 
L 141.806718 62.924469 
L 141.945303 62.79931 
L 142.123485 62.786896 
L 142.252172 62.626686 
L 142.568939 62.228688 
L 142.865908 62.507406 
L 143.03419 62.629364 
L 143.053988 62.615403 
L 143.242069 62.588326 
L 143.638027 62.965696 
L 143.826108 63.089191 
L 144.19237 63.435417 
L 144.212168 63.417571 
L 144.350753 63.325467 
L 144.390349 63.384797 
L 144.558632 63.584056 
L 144.588328 63.561858 
L 144.875399 63.412854 
L 145.043681 63.32362 
L 145.419842 62.855182 
L 145.924689 62.402247 
L 146.033578 62.551001 
L 146.261254 62.859362 
L 146.271153 62.855049 
L 146.508729 62.618056 
L 146.825496 62.303067 
L 146.835395 62.310742 
L 146.983879 62.365597 
L 147.013576 62.327289 
L 147.270949 62.05043 
L 147.300646 62.083237 
L 147.587716 62.316425 
L 147.7461 62.556833 
L 148.023271 62.77156 
L 148.171756 62.721655 
L 148.310341 62.773936 
L 148.478624 62.78196 
L 149.072562 62.747623 
L 149.498218 62.978524 
L 149.943671 63.190298 
L 150.15155 63.363214 
L 150.171348 63.345187 
L 150.577205 63.04125 
L 150.874175 63.320151 
L 150.933568 63.201602 
L 151.151346 62.911881 
L 151.448315 63.06231 
L 151.626496 63.1555 
L 151.646294 63.137216 
L 151.864072 63.078054 
L 152.042253 63.0383 
L 152.210536 62.52651 
L 152.467909 62.051347 
L 152.715383 61.866135 
L 152.992554 61.70154 
L 153.477604 62.28283 
L 153.824068 62.895316 
L 153.853765 62.876631 
L 153.99235 62.811996 
L 154.022047 62.852127 
L 154.348713 63.214829 
L 154.675379 63.150244 
L 154.893156 62.809345 
L 154.912954 62.816846 
L 155.130732 63.00098 
L 155.308913 63.28566 
L 155.358408 63.245299 
L 155.506893 63.1758 
L 155.53659 63.206513 
L 155.813761 63.372609 
L 155.942447 63.423255 
L 156.338406 63.990382 
L 156.437396 63.952474 
L 156.447295 63.936398 
L 156.635375 63.825196 
L 156.764062 63.685912 
L 157.140223 63.357388 
L 157.298606 63.42322 
L 157.93214 63.590232 
L 158.120221 63.2112 
L 158.526079 62.371045 
L 158.644866 62.47943 
L 158.951734 62.901954 
L 159.070522 62.758188 
L 159.308097 62.528991 
L 159.456582 62.618968 
L 159.614965 63.05888 
L 159.822844 63.393219 
L 160.090116 63.397689 
L 160.416782 63.124919 
L 160.654357 62.837195 
L 160.901831 62.750377 
L 161.337386 62.657969 
L 161.713547 63.049244 
L 161.772941 62.992329 
L 161.941223 62.670679 
L 162.228293 62.146664 
L 162.713343 61.586415 
L 162.733141 61.60961 
L 163.138999 62.523089 
L 163.366675 63.205024 
L 163.574553 63.55929 
L 163.822028 63.688164 
L 163.851724 63.645218 
L 164.079401 63.489069 
L 164.316976 63.588963 
L 164.336774 63.554898 
L 164.604046 63.27167 
L 164.742632 63.11499 
L 165.267277 62.058499 
L 165.504852 62.033522 
L 166.059195 61.768173 
L 166.247275 61.698878 
L 166.445255 61.817091 
L 166.663032 61.971352 
L 166.791719 62.052366 
L 167.138183 62.523397 
L 167.445051 62.373742 
L 167.623232 62.327089 
L 168.088484 62.460613 
L 168.652725 62.55321 
L 168.929896 62.703678 
L 169.058583 62.656232 
L 169.17737 62.703516 
L 169.523834 62.968701 
L 169.692117 63.090995 
L 169.939591 63.220906 
L 170.157368 63.068072 
L 170.474136 62.071541 
L 170.672115 61.635194 
L 170.889892 61.546126 
L 171.176962 61.503906 
L 171.335346 61.798293 
L 172.018375 63.358799 
L 172.246051 63.536215 
L 173.295342 62.639876 
L 173.839785 62.176117 
L 174.493117 62.713401 
L 174.740592 62.813876 
L 174.938571 62.872871 
L 175.156348 63.087213 
L 175.166247 63.082023 
L 175.492913 63.012669 
L 175.651297 62.843169 
L 175.770085 62.814015 
L 175.799781 62.841618 
L 175.958165 62.852722 
L 176.156144 62.804853 
L 176.166043 62.817394 
L 176.453114 63.028372 
L 176.621396 63.035424 
L 176.858971 63.159304 
L 177.007456 63.129306 
L 177.601394 62.35605 
L 178.086444 61.78969 
L 178.244827 61.574737 
L 178.274524 61.595076 
L 178.393312 61.886325 
L 178.719978 62.68073 
L 178.917957 63.042475 
L 179.145633 63.355779 
L 179.620784 63.163124 
L 180.383005 61.938173 
L 180.630479 61.938709 
L 181.224417 62.661433 
L 181.402599 62.84111 
L 181.541184 62.717302 
L 181.897547 62.194878 
L 182.263809 61.769765 
L 182.550879 61.225006 
L 182.649869 61.274819 
L 183.035929 61.807247 
L 183.184413 62.064468 
L 183.550675 62.716377 
L 183.560574 62.712339 
L 183.837745 62.692353 
L 183.98623 63.090626 
L 184.124815 63.371284 
L 184.164411 63.350272 
L 184.342593 63.346324 
L 184.451481 63.276183 
L 184.609865 62.720994 
L 184.807844 62.395054 
L 185.213702 62.385936 
L 186.065014 63.750456 
L 186.164003 63.728108 
L 186.173902 63.716194 
L 187.084607 62.722168 
L 187.381577 62.716907 
L 187.599354 62.756742 
L 187.718142 62.810439 
L 187.896323 63.022432 
L 187.935919 62.992993 
L 188.173494 62.908043 
L 188.341777 62.89637 
L 188.440766 62.972015 
L 188.589251 63.144336 
L 188.628847 63.111001 
L 188.846624 63.023076 
L 189.005008 62.966635 
L 189.292078 62.793305 
L 189.866218 62.624569 
L 190.064198 62.751945 
L 190.757125 62.520088 
L 190.925408 62.6814 
L 190.965004 62.635329 
L 191.09369 62.515375 
L 191.133286 62.561287 
L 191.410457 62.949026 
L 191.450053 62.91557 
L 191.618336 62.748658 
L 191.667831 62.812547 
L 191.836113 62.885576 
L 192.35086 62.866237 
L 192.489445 62.880389 
L 192.608233 62.942108 
L 192.746818 63.014022 
L 192.776515 62.987911 
L 192.964596 62.959093 
L 193.11308 62.893189 
L 193.340757 62.523509 
L 193.40015 62.587507 
L 193.647625 62.859151 
L 193.677322 62.833868 
L 194.469239 62.103688 
L 194.479138 62.113198 
L 194.726612 62.567246 
L 195.082975 63.088828 
L 195.241359 62.975474 
L 195.607621 62.591059 
L 195.785802 62.814435 
L 195.934287 62.848833 
L 195.944186 62.839323 
L 196.617316 62.207053 
L 196.647013 62.242807 
L 196.904386 62.54934 
L 196.943982 62.516214 
L 197.280547 62.18397 
L 197.330042 62.242278 
L 197.993273 63.094323 
L 198.329838 63.014901 
L 198.478322 62.996292 
L 198.59711 62.944773 
L 198.686201 62.836187 
L 198.715897 62.934866 
L 198.775291 64.381324 
L 198.864382 74.761592 
L 199.161351 108.664001 
L 199.448421 116.691041 
L 199.775087 120.215251 
L 200.398722 123.744585 
L 200.972863 125.894307 
L 202.744778 131.095649 
L 204.26922 134.017102 
L 205.269016 135.574448 
L 206.991437 137.613261 
L 207.832849 138.389773 
L 208.753453 139.202888 
L 209.189008 139.459037 
L 209.84234 139.957946 
L 210.317491 140.229329 
L 211.238095 140.641697 
L 211.525165 140.815517 
L 212.911021 141.403084 
L 213.326777 141.602357 
L 214.316674 141.867524 
L 214.574048 141.939863 
L 215.80152 142.391241 
L 216.583539 142.651735 
L 216.949801 142.740268 
L 218.612828 142.998553 
L 219.038483 143.070457 
L 219.26616 143.128466 
L 219.622522 143.310118 
L 219.929391 143.290918 
L 220.137269 143.305228 
L 221.671609 143.608929 
L 222.225952 143.708571 
L 223.6811 143.776387 
L 224.146352 143.763343 
L 224.611603 143.8789 
L 225.928167 143.96636 
L 226.363721 144.028335 
L 226.957659 144.017721 
L 227.413012 144.098603 
L 228.234627 144.134424 
L 230.550986 144.201003 
L 231.18452 144.220465 
L 231.75866 144.364551 
L 232.788153 144.27545 
L 233.302899 144.467169 
L 233.500879 144.41374 
L 233.708757 144.349797 
L 235.173805 144.41669 
L 235.648955 144.357791 
L 236.302287 144.575881 
L 236.589357 144.58142 
L 239.667937 144.493287 
L 239.994603 144.475723 
L 242.380255 144.393543 
L 242.568335 144.439817 
L 242.805911 144.512967 
L 243.142476 144.514716 
L 243.667121 144.547445 
L 244.270958 144.635075 
L 244.627321 144.711889 
L 245.221259 144.605406 
L 245.59742 144.598561 
L 245.98348 144.6957 
L 246.240853 144.654042 
L 246.527923 144.646052 
L 247.240649 144.667832 
L 247.735598 144.73173 
L 247.933577 144.694103 
L 248.359233 144.52069 
L 248.359233 144.52069 
" clip-path="url(#pcde27e2450)" style="fill: none; stroke: #000000; stroke-opacity: 0.5; stroke-width: 1.5; stroke-linecap: square"/>
   </g>
   <g id="patch_3">
    <path d="M 35.304688 173.52 
L 35.304688 7.2 
" style="fill: none; stroke: #000000; stroke-width: 0.8; stroke-linejoin: miter; stroke-linecap: square"/>
   </g>
   <g id="patch_4">
    <path d="M 35.304688 173.52 
L 258.504687 173.52 
" style="fill: none; stroke: #000000; stroke-width: 0.8; stroke-linejoin: miter; stroke-linecap: square"/>
   </g>
  </g>
 </g>
 <defs>
  <clipPath id="pcde27e2450">
   <rect x="35.304688" y="7.2" width="223.2" height="166.32"/>
  </clipPath>
 </defs>
</svg>
