<?xml version="1.0" encoding="utf-8" standalone="no"?>
<!DOCTYPE svg PUBLIC "-//W3C//DTD SVG 1.1//EN"
  "http://www.w3.org/Graphics/SVG/1.1/DTD/svg11.dtd">
<svg height="345.6pt" version="1.1" viewBox="0 0 460.8 345.6" width="460.8pt" xmlns="http://www.w3.org/2000/svg" xmlns:xlink="http://www.w3.org/1999/xlink">
 <metadata>
  <rdf:RDF xmlns:cc="http://creativecommons.org/ns#" xmlns:dc="http://purl.org/dc/elements/1.1/" xmlns:rdf="http://www.w3.org/1999/02/22-rdf-syntax-ns#">
   <cc:Work>
    <dc:type rdf:resource="http://purl.org/dc/dcmitype/StillImage"/>
    <dc:date>2024-08-06T14:45:01.558903</dc:date>
    <dc:format>image/svg+xml</dc:format>
    <dc:creator>
     <cc:Agent>
      <dc:title>Matplotlib v3.4.2, https://matplotlib.org/</dc:title>
     </cc:Agent>
    </dc:creator>
   </cc:Work>
  </rdf:RDF>
 </metadata>
 <defs>
  <style type="text/css">*{stroke-linecap:butt;stroke-linejoin:round;}</style>
 </defs>
 <g id="figure_1">
  <g id="patch_1">
   <path d="M 0 345.6 
L 460.8 345.6 
L 460.8 0 
L 0 0 
z
" style="fill:#ffffff;"/>
  </g>
  <g id="axes_1">
   <g id="patch_2">
    <path d="M 57.6 307.584 
L 414.72 307.584 
L 414.72 41.472 
L 57.6 41.472 
z
" style="fill:#ffffff;"/>
   </g>
   <g id="matplotlib.axis_1">
    <g id="xtick_1">
     <g id="line2d_1">
      <defs>
       <path d="M 0 0 
L 0 3.5 
" id="md76666df6e" style="stroke:#000000;stroke-width:0.8;"/>
      </defs>
      <g>
       <use style="stroke:#000000;stroke-width:0.8;" x="59.701804" xlink:href="#md76666df6e" y="307.584"/>
      </g>
     </g>
     <g id="text_1">
      <!-- 0.75 -->
      <g transform="translate(48.568992 322.182437)scale(0.1 -0.1)">
       <defs>
        <path d="M 2034 4250 
Q 1547 4250 1301 3770 
Q 1056 3291 1056 2328 
Q 1056 1369 1301 889 
Q 1547 409 2034 409 
Q 2525 409 2770 889 
Q 3016 1369 3016 2328 
Q 3016 3291 2770 3770 
Q 2525 4250 2034 4250 
z
M 2034 4750 
Q 2819 4750 3233 4129 
Q 3647 3509 3647 2328 
Q 3647 1150 3233 529 
Q 2819 -91 2034 -91 
Q 1250 -91 836 529 
Q 422 1150 422 2328 
Q 422 3509 836 4129 
Q 1250 4750 2034 4750 
z
" id="DejaVuSans-30" transform="scale(0.015625)"/>
        <path d="M 684 794 
L 1344 794 
L 1344 0 
L 684 0 
L 684 794 
z
" id="DejaVuSans-2e" transform="scale(0.015625)"/>
        <path d="M 525 4666 
L 3525 4666 
L 3525 4397 
L 1831 0 
L 1172 0 
L 2766 4134 
L 525 4134 
L 525 4666 
z
" id="DejaVuSans-37" transform="scale(0.015625)"/>
        <path d="M 691 4666 
L 3169 4666 
L 3169 4134 
L 1269 4134 
L 1269 2991 
Q 1406 3038 1543 3061 
Q 1681 3084 1819 3084 
Q 2600 3084 3056 2656 
Q 3513 2228 3513 1497 
Q 3513 744 3044 326 
Q 2575 -91 1722 -91 
Q 1428 -91 1123 -41 
Q 819 9 494 109 
L 494 744 
Q 775 591 1075 516 
Q 1375 441 1709 441 
Q 2250 441 2565 725 
Q 2881 1009 2881 1497 
Q 2881 1984 2565 2268 
Q 2250 2553 1709 2553 
Q 1456 2553 1204 2497 
Q 953 2441 691 2322 
L 691 4666 
z
" id="DejaVuSans-35" transform="scale(0.015625)"/>
       </defs>
       <use xlink:href="#DejaVuSans-30"/>
       <use x="63.623047" xlink:href="#DejaVuSans-2e"/>
       <use x="95.410156" xlink:href="#DejaVuSans-37"/>
       <use x="159.033203" xlink:href="#DejaVuSans-35"/>
      </g>
     </g>
    </g>
    <g id="xtick_2">
     <g id="line2d_2">
      <g>
       <use style="stroke:#000000;stroke-width:0.8;" x="99.713241" xlink:href="#md76666df6e" y="307.584"/>
      </g>
     </g>
     <g id="text_2">
      <!-- 1.00 -->
      <g transform="translate(88.580428 322.182437)scale(0.1 -0.1)">
       <defs>
        <path d="M 794 531 
L 1825 531 
L 1825 4091 
L 703 3866 
L 703 4441 
L 1819 4666 
L 2450 4666 
L 2450 531 
L 3481 531 
L 3481 0 
L 794 0 
L 794 531 
z
" id="DejaVuSans-31" transform="scale(0.015625)"/>
       </defs>
       <use xlink:href="#DejaVuSans-31"/>
       <use x="63.623047" xlink:href="#DejaVuSans-2e"/>
       <use x="95.410156" xlink:href="#DejaVuSans-30"/>
       <use x="159.033203" xlink:href="#DejaVuSans-30"/>
      </g>
     </g>
    </g>
    <g id="xtick_3">
     <g id="line2d_3">
      <g>
       <use style="stroke:#000000;stroke-width:0.8;" x="139.724677" xlink:href="#md76666df6e" y="307.584"/>
      </g>
     </g>
     <g id="text_3">
      <!-- 1.25 -->
      <g transform="translate(128.591864 322.182437)scale(0.1 -0.1)">
       <defs>
        <path d="M 1228 531 
L 3431 531 
L 3431 0 
L 469 0 
L 469 531 
Q 828 903 1448 1529 
Q 2069 2156 2228 2338 
Q 2531 2678 2651 2914 
Q 2772 3150 2772 3378 
Q 2772 3750 2511 3984 
Q 2250 4219 1831 4219 
Q 1534 4219 1204 4116 
Q 875 4013 500 3803 
L 500 4441 
Q 881 4594 1212 4672 
Q 1544 4750 1819 4750 
Q 2544 4750 2975 4387 
Q 3406 4025 3406 3419 
Q 3406 3131 3298 2873 
Q 3191 2616 2906 2266 
Q 2828 2175 2409 1742 
Q 1991 1309 1228 531 
z
" id="DejaVuSans-32" transform="scale(0.015625)"/>
       </defs>
       <use xlink:href="#DejaVuSans-31"/>
       <use x="63.623047" xlink:href="#DejaVuSans-2e"/>
       <use x="95.410156" xlink:href="#DejaVuSans-32"/>
       <use x="159.033203" xlink:href="#DejaVuSans-35"/>
      </g>
     </g>
    </g>
    <g id="xtick_4">
     <g id="line2d_4">
      <g>
       <use style="stroke:#000000;stroke-width:0.8;" x="179.736113" xlink:href="#md76666df6e" y="307.584"/>
      </g>
     </g>
     <g id="text_4">
      <!-- 1.50 -->
      <g transform="translate(168.6033 322.182437)scale(0.1 -0.1)">
       <use xlink:href="#DejaVuSans-31"/>
       <use x="63.623047" xlink:href="#DejaVuSans-2e"/>
       <use x="95.410156" xlink:href="#DejaVuSans-35"/>
       <use x="159.033203" xlink:href="#DejaVuSans-30"/>
      </g>
     </g>
    </g>
    <g id="xtick_5">
     <g id="line2d_5">
      <g>
       <use style="stroke:#000000;stroke-width:0.8;" x="219.747549" xlink:href="#md76666df6e" y="307.584"/>
      </g>
     </g>
     <g id="text_5">
      <!-- 1.75 -->
      <g transform="translate(208.614737 322.182437)scale(0.1 -0.1)">
       <use xlink:href="#DejaVuSans-31"/>
       <use x="63.623047" xlink:href="#DejaVuSans-2e"/>
       <use x="95.410156" xlink:href="#DejaVuSans-37"/>
       <use x="159.033203" xlink:href="#DejaVuSans-35"/>
      </g>
     </g>
    </g>
    <g id="xtick_6">
     <g id="line2d_6">
      <g>
       <use style="stroke:#000000;stroke-width:0.8;" x="259.758985" xlink:href="#md76666df6e" y="307.584"/>
      </g>
     </g>
     <g id="text_6">
      <!-- 2.00 -->
      <g transform="translate(248.626173 322.182437)scale(0.1 -0.1)">
       <use xlink:href="#DejaVuSans-32"/>
       <use x="63.623047" xlink:href="#DejaVuSans-2e"/>
       <use x="95.410156" xlink:href="#DejaVuSans-30"/>
       <use x="159.033203" xlink:href="#DejaVuSans-30"/>
      </g>
     </g>
    </g>
    <g id="xtick_7">
     <g id="line2d_7">
      <g>
       <use style="stroke:#000000;stroke-width:0.8;" x="299.770421" xlink:href="#md76666df6e" y="307.584"/>
      </g>
     </g>
     <g id="text_7">
      <!-- 2.25 -->
      <g transform="translate(288.637609 322.182437)scale(0.1 -0.1)">
       <use xlink:href="#DejaVuSans-32"/>
       <use x="63.623047" xlink:href="#DejaVuSans-2e"/>
       <use x="95.410156" xlink:href="#DejaVuSans-32"/>
       <use x="159.033203" xlink:href="#DejaVuSans-35"/>
      </g>
     </g>
    </g>
    <g id="xtick_8">
     <g id="line2d_8">
      <g>
       <use style="stroke:#000000;stroke-width:0.8;" x="339.781858" xlink:href="#md76666df6e" y="307.584"/>
      </g>
     </g>
     <g id="text_8">
      <!-- 2.50 -->
      <g transform="translate(328.649045 322.182437)scale(0.1 -0.1)">
       <use xlink:href="#DejaVuSans-32"/>
       <use x="63.623047" xlink:href="#DejaVuSans-2e"/>
       <use x="95.410156" xlink:href="#DejaVuSans-35"/>
       <use x="159.033203" xlink:href="#DejaVuSans-30"/>
      </g>
     </g>
    </g>
    <g id="xtick_9">
     <g id="line2d_9">
      <g>
       <use style="stroke:#000000;stroke-width:0.8;" x="379.793294" xlink:href="#md76666df6e" y="307.584"/>
      </g>
     </g>
     <g id="text_9">
      <!-- 2.75 -->
      <g transform="translate(368.660481 322.182437)scale(0.1 -0.1)">
       <use xlink:href="#DejaVuSans-32"/>
       <use x="63.623047" xlink:href="#DejaVuSans-2e"/>
       <use x="95.410156" xlink:href="#DejaVuSans-37"/>
       <use x="159.033203" xlink:href="#DejaVuSans-35"/>
      </g>
     </g>
    </g>
   </g>
   <g id="matplotlib.axis_2">
    <g id="ytick_1">
     <g id="line2d_10">
      <defs>
       <path d="M 0 0 
L -3.5 0 
" id="m6c0977c1a9" style="stroke:#000000;stroke-width:0.8;"/>
      </defs>
      <g>
       <use style="stroke:#000000;stroke-width:0.8;" x="57.6" xlink:href="#m6c0977c1a9" y="270.198025"/>
      </g>
     </g>
     <g id="text_10">
      <!-- −100 -->
      <g transform="translate(23.132812 273.997244)scale(0.1 -0.1)">
       <defs>
        <path d="M 678 2272 
L 4684 2272 
L 4684 1741 
L 678 1741 
L 678 2272 
z
" id="DejaVuSans-2212" transform="scale(0.015625)"/>
       </defs>
       <use xlink:href="#DejaVuSans-2212"/>
       <use x="83.789062" xlink:href="#DejaVuSans-31"/>
       <use x="147.412109" xlink:href="#DejaVuSans-30"/>
       <use x="211.035156" xlink:href="#DejaVuSans-30"/>
      </g>
     </g>
    </g>
    <g id="ytick_2">
     <g id="line2d_11">
      <g>
       <use style="stroke:#000000;stroke-width:0.8;" x="57.6" xlink:href="#m6c0977c1a9" y="229.014894"/>
      </g>
     </g>
     <g id="text_11">
      <!-- −80 -->
      <g transform="translate(29.495313 232.814112)scale(0.1 -0.1)">
       <defs>
        <path d="M 2034 2216 
Q 1584 2216 1326 1975 
Q 1069 1734 1069 1313 
Q 1069 891 1326 650 
Q 1584 409 2034 409 
Q 2484 409 2743 651 
Q 3003 894 3003 1313 
Q 3003 1734 2745 1975 
Q 2488 2216 2034 2216 
z
M 1403 2484 
Q 997 2584 770 2862 
Q 544 3141 544 3541 
Q 544 4100 942 4425 
Q 1341 4750 2034 4750 
Q 2731 4750 3128 4425 
Q 3525 4100 3525 3541 
Q 3525 3141 3298 2862 
Q 3072 2584 2669 2484 
Q 3125 2378 3379 2068 
Q 3634 1759 3634 1313 
Q 3634 634 3220 271 
Q 2806 -91 2034 -91 
Q 1263 -91 848 271 
Q 434 634 434 1313 
Q 434 1759 690 2068 
Q 947 2378 1403 2484 
z
M 1172 3481 
Q 1172 3119 1398 2916 
Q 1625 2713 2034 2713 
Q 2441 2713 2670 2916 
Q 2900 3119 2900 3481 
Q 2900 3844 2670 4047 
Q 2441 4250 2034 4250 
Q 1625 4250 1398 4047 
Q 1172 3844 1172 3481 
z
" id="DejaVuSans-38" transform="scale(0.015625)"/>
       </defs>
       <use xlink:href="#DejaVuSans-2212"/>
       <use x="83.789062" xlink:href="#DejaVuSans-38"/>
       <use x="147.412109" xlink:href="#DejaVuSans-30"/>
      </g>
     </g>
    </g>
    <g id="ytick_3">
     <g id="line2d_12">
      <g>
       <use style="stroke:#000000;stroke-width:0.8;" x="57.6" xlink:href="#m6c0977c1a9" y="187.831762"/>
      </g>
     </g>
     <g id="text_12">
      <!-- −60 -->
      <g transform="translate(29.495313 191.63098)scale(0.1 -0.1)">
       <defs>
        <path d="M 2113 2584 
Q 1688 2584 1439 2293 
Q 1191 2003 1191 1497 
Q 1191 994 1439 701 
Q 1688 409 2113 409 
Q 2538 409 2786 701 
Q 3034 994 3034 1497 
Q 3034 2003 2786 2293 
Q 2538 2584 2113 2584 
z
M 3366 4563 
L 3366 3988 
Q 3128 4100 2886 4159 
Q 2644 4219 2406 4219 
Q 1781 4219 1451 3797 
Q 1122 3375 1075 2522 
Q 1259 2794 1537 2939 
Q 1816 3084 2150 3084 
Q 2853 3084 3261 2657 
Q 3669 2231 3669 1497 
Q 3669 778 3244 343 
Q 2819 -91 2113 -91 
Q 1303 -91 875 529 
Q 447 1150 447 2328 
Q 447 3434 972 4092 
Q 1497 4750 2381 4750 
Q 2619 4750 2861 4703 
Q 3103 4656 3366 4563 
z
" id="DejaVuSans-36" transform="scale(0.015625)"/>
       </defs>
       <use xlink:href="#DejaVuSans-2212"/>
       <use x="83.789062" xlink:href="#DejaVuSans-36"/>
       <use x="147.412109" xlink:href="#DejaVuSans-30"/>
      </g>
     </g>
    </g>
    <g id="ytick_4">
     <g id="line2d_13">
      <g>
       <use style="stroke:#000000;stroke-width:0.8;" x="57.6" xlink:href="#m6c0977c1a9" y="146.64863"/>
      </g>
     </g>
     <g id="text_13">
      <!-- −40 -->
      <g transform="translate(29.495313 150.447848)scale(0.1 -0.1)">
       <defs>
        <path d="M 2419 4116 
L 825 1625 
L 2419 1625 
L 2419 4116 
z
M 2253 4666 
L 3047 4666 
L 3047 1625 
L 3713 1625 
L 3713 1100 
L 3047 1100 
L 3047 0 
L 2419 0 
L 2419 1100 
L 313 1100 
L 313 1709 
L 2253 4666 
z
" id="DejaVuSans-34" transform="scale(0.015625)"/>
       </defs>
       <use xlink:href="#DejaVuSans-2212"/>
       <use x="83.789062" xlink:href="#DejaVuSans-34"/>
       <use x="147.412109" xlink:href="#DejaVuSans-30"/>
      </g>
     </g>
    </g>
    <g id="ytick_5">
     <g id="line2d_14">
      <g>
       <use style="stroke:#000000;stroke-width:0.8;" x="57.6" xlink:href="#m6c0977c1a9" y="105.465498"/>
      </g>
     </g>
     <g id="text_14">
      <!-- −20 -->
      <g transform="translate(29.495313 109.264717)scale(0.1 -0.1)">
       <use xlink:href="#DejaVuSans-2212"/>
       <use x="83.789062" xlink:href="#DejaVuSans-32"/>
       <use x="147.412109" xlink:href="#DejaVuSans-30"/>
      </g>
     </g>
    </g>
    <g id="ytick_6">
     <g id="line2d_15">
      <g>
       <use style="stroke:#000000;stroke-width:0.8;" x="57.6" xlink:href="#m6c0977c1a9" y="64.282366"/>
      </g>
     </g>
     <g id="text_15">
      <!-- 0 -->
      <g transform="translate(44.2375 68.081585)scale(0.1 -0.1)">
       <use xlink:href="#DejaVuSans-30"/>
      </g>
     </g>
    </g>
   </g>
   <g id="line2d_16">
    <path clip-path="url(#p0bf530c6af)" d="M 73.832727 161.33383 
L 74.623796 161.408417 
L 75.573078 161.528693 
L 76.205933 161.468336 
L 76.52236 161.407591 
L 76.838788 161.247221 
L 77.313429 161.336274 
L 78.737352 161.812848 
L 79.211994 161.87807 
L 79.686635 162.059703 
L 80.31949 162.192372 
L 80.952344 162.316872 
L 81.426986 162.410923 
L 81.743413 162.462876 
L 81.901627 162.355688 
L 82.218054 162.383274 
L 82.692695 162.339897 
L 84.116619 162.467233 
L 84.749474 162.702244 
L 87.122679 162.962911 
L 87.597321 162.96427 
L 87.913748 163.076894 
L 88.388389 162.957602 
L 89.970526 163.438091 
L 90.286954 163.457266 
L 90.603381 163.46401 
L 90.919809 163.392067 
L 91.078022 163.451565 
L 91.39445 163.321386 
L 92.027305 163.74874 
L 94.40051 163.834465 
L 94.875152 163.998391 
L 95.349793 163.926975 
L 95.66622 163.981112 
L 96.140861 163.682451 
L 96.615502 163.647429 
L 96.93193 163.756666 
L 97.248357 163.810415 
L 97.564785 163.778877 
L 98.19764 163.702539 
L 98.514067 163.776592 
L 98.672281 163.726186 
L 99.305136 164.086392 
L 99.779777 164.181457 
L 100.096204 164.294581 
L 101.361914 164.399736 
L 102.152982 164.721011 
L 104.051547 165.198904 
L 104.209761 165.128585 
L 104.684402 165.214543 
L 105.159043 165.200179 
L 105.317257 165.246314 
L 105.47547 165.150867 
L 105.791898 170.356122 
L 106.582967 181.695951 
L 107.690463 193.657974 
L 109.114386 206.320022 
L 110.538309 217.435592 
L 111.962233 226.994334 
L 112.911515 232.257493 
L 114.019011 237.65133 
L 114.968293 242.023219 
L 117.499713 253.737492 
L 121.296842 265.673249 
L 122.246124 267.990092 
L 123.35362 270.12366 
L 123.986475 271.400436 
L 125.726826 274.214319 
L 126.517895 276.886191 
L 126.992536 278.055261 
L 127.467177 279.661112 
L 129.207528 285.130811 
L 129.840383 286.611285 
L 130.789665 286.930686 
L 131.106093 287.11191 
L 131.264306 287.101616 
L 132.213589 287.87349 
L 132.846443 287.761851 
L 133.479298 287.919116 
L 133.795726 288.056418 
L 134.112153 288.182465 
L 134.270367 288.347349 
L 134.586794 288.367699 
L 134.903222 288.535861 
L 135.219649 288.376049 
L 136.010718 288.442497 
L 136.327145 288.583687 
L 136.801786 288.532516 
L 137.276427 288.703217 
L 137.592855 288.819442 
L 138.067496 289.124424 
L 138.22571 289.074417 
L 138.858565 289.296446 
L 139.174992 289.140079 
L 139.491419 288.883014 
L 140.282488 288.566372 
L 140.598915 289.025171 
L 141.548198 290.487198 
L 142.655694 291.729401 
L 143.604976 292.058754 
L 144.079617 292.56577 
L 144.396045 292.76393 
L 144.712472 292.96183 
L 144.870686 293.029223 
L 145.187113 292.913657 
L 145.978182 293.299781 
L 146.611037 293.780799 
L 147.085678 294.124142 
L 147.718533 294.788018 
L 148.509601 295.102361 
L 149.142456 295.425735 
L 150.091738 295.365968 
L 150.882807 295.488 
L 152.623158 294.997369 
L 153.256013 294.83018 
L 153.57244 294.635611 
L 153.888868 294.699619 
L 154.83815 294.275168 
L 155.471005 294.080857 
L 155.945646 293.80368 
L 156.420287 293.712286 
L 157.053142 293.274377 
L 157.527783 293.149878 
L 157.844211 292.901699 
L 159.268134 292.532766 
L 160.059203 291.957851 
L 160.533844 291.778083 
L 161.166699 291.682884 
L 161.957767 291.277764 
L 162.432408 290.770312 
L 162.748836 290.536003 
L 163.223477 290.331577 
L 163.856332 290.16086 
L 164.172759 289.990284 
L 164.805614 290.165639 
L 165.596683 290.263494 
L 165.91311 290.050244 
L 166.387751 289.958069 
L 169.077384 289.108275 
L 169.393812 288.796075 
L 169.868453 288.554777 
L 170.026667 288.442035 
L 170.343094 288.418811 
L 170.975949 287.861207 
L 171.292376 287.780077 
L 171.608804 287.489407 
L 173.032727 287.036061 
L 173.507368 286.558207 
L 174.614864 286.465411 
L 175.089506 286.237191 
L 175.405933 286.224152 
L 175.880574 286.157793 
L 176.513429 285.812521 
L 176.829856 285.621503 
L 177.779139 284.881835 
L 178.25378 284.674689 
L 178.411994 284.733689 
L 178.886635 284.603844 
L 179.51949 284.637303 
L 180.310558 284.506991 
L 180.626986 284.236827 
L 182.52555 283.583988 
L 183.000191 283.232653 
L 184.898756 282.14604 
L 185.05697 282.027339 
L 185.215183 282.052637 
L 185.531611 282.222234 
L 185.848038 282.160267 
L 186.639107 282.254152 
L 187.271962 282.255987 
L 187.588389 282.339598 
L 187.904817 282.241141 
L 188.221244 282.276779 
L 188.695885 282.294471 
L 189.170526 282.315177 
L 189.961595 282.231281 
L 190.59445 281.788571 
L 190.910877 281.819015 
L 192.176587 281.548357 
L 192.334801 281.597992 
L 193.284083 281.033624 
L 193.758724 280.798473 
L 194.075152 280.911816 
L 194.549793 280.653553 
L 195.024434 280.808108 
L 195.182648 280.798227 
L 195.499075 280.633158 
L 195.815502 280.52903 
L 196.290144 280.143759 
L 197.239426 280.290177 
L 197.555853 280.266409 
L 197.872281 280.212563 
L 198.030494 280.25455 
L 198.505136 279.99067 
L 198.821563 279.933255 
L 200.245486 279.44803 
L 200.561914 279.341218 
L 200.878341 279.172169 
L 201.827624 279.246778 
L 202.618692 278.845332 
L 202.93512 278.807429 
L 203.251547 278.570375 
L 203.567974 278.374943 
L 204.042616 278.501341 
L 204.517257 278.331281 
L 207.681531 277.884897 
L 208.947241 277.422699 
L 209.263668 277.380345 
L 209.738309 277.093323 
L 210.054737 277.182094 
L 211.162233 277.087783 
L 211.795088 277.024754 
L 212.111515 276.926994 
L 212.586156 276.855949 
L 212.902584 276.607626 
L 213.219011 276.788381 
L 213.535439 277.064897 
L 213.851866 277.057373 
L 214.01008 277.02123 
L 214.642935 277.30504 
L 215.434003 277.190781 
L 216.225072 276.81198 
L 216.699713 276.769115 
L 217.965423 276.765439 
L 218.914705 276.419616 
L 219.54756 276.501997 
L 219.863987 276.438212 
L 220.180415 276.320285 
L 223.186475 276.882979 
L 223.81933 276.722506 
L 224.452185 276.877114 
L 224.768612 276.754478 
L 225.08504 276.741937 
L 225.401467 276.585894 
L 225.717895 276.683862 
L 226.667177 276.68152 
L 227.141818 276.724457 
L 227.932887 276.780696 
L 228.407528 276.621419 
L 229.040383 276.509424 
L 229.673238 276.696725 
L 230.306093 276.483221 
L 230.62252 276.397053 
L 231.730016 276.497765 
L 232.204657 276.37313 
L 232.679298 276.328038 
L 233.312153 276.220355 
L 233.628581 276.280767 
L 233.786794 276.31087 
L 234.103222 276.078601 
L 235.052504 276.458292 
L 235.527145 276.388195 
L 236.001786 276.533177 
L 238.216778 276.673381 
L 238.849633 276.621515 
L 239.166061 276.568106 
L 239.482488 276.444392 
L 239.957129 276.634216 
L 240.906411 276.595683 
L 241.064625 276.458632 
L 242.804976 276.590772 
L 243.754258 276.464155 
L 244.387113 276.520215 
L 244.861754 276.451858 
L 245.652823 276.175649 
L 245.96925 276.264697 
L 246.602105 276.19828 
L 246.918533 276.012482 
L 247.076746 276.035 
L 247.393174 275.865932 
L 248.184242 275.895603 
L 248.50067 275.868264 
L 248.817097 275.954622 
L 249.449952 275.756764 
L 249.76638 275.668082 
L 250.082807 275.412405 
L 250.399234 275.451604 
L 250.557448 275.334863 
L 251.823158 275.427723 
L 252.139585 275.387785 
L 252.614226 275.638014 
L 252.930654 275.663559 
L 253.247081 275.59242 
L 253.721722 275.765959 
L 254.196364 275.983994 
L 254.987432 276.240139 
L 255.30386 276.331547 
L 255.462073 276.311781 
L 256.727783 277.139865 
L 257.202424 276.971706 
L 257.518852 276.942593 
L 257.835279 276.724516 
L 258.784561 276.899245 
L 259.100989 276.851547 
L 260.366699 276.718801 
L 260.84134 276.500854 
L 261.315981 276.624616 
L 261.790622 276.675201 
L 262.423477 276.432431 
L 262.898118 276.55896 
L 263.056332 276.465205 
L 263.214545 276.5553 
L 263.372759 276.4805 
L 263.689187 276.775608 
L 264.005614 271.534854 
L 264.796683 260.434453 
L 266.062392 246.70213 
L 268.119171 229.618382 
L 269.543094 219.794514 
L 273.498437 196.292156 
L 274.605933 185.077779 
L 275.713429 163.074125 
L 275.871643 153.267743 
L 276.029856 151.779283 
L 276.18807 120.992813 
L 276.346284 65.988507 
L 276.504498 80.82478 
L 276.820925 139.814868 
L 276.979139 154.763892 
L 277.295566 161.706437 
L 277.45378 161.732005 
L 278.086635 153.276441 
L 278.877703 136.184124 
L 279.194131 124.442082 
L 279.826986 91.697485 
L 280.143413 103.81174 
L 280.776268 130.571007 
L 281.250909 140.238072 
L 281.567337 142.809889 
L 281.883764 142.842065 
L 282.358405 141.08669 
L 282.833046 137.388666 
L 283.624115 129.219833 
L 284.573397 117.291116 
L 284.889825 115.512012 
L 285.048038 115.099857 
L 285.206252 115.3215 
L 285.522679 117.716173 
L 286.313748 126.145543 
L 286.946603 132.050404 
L 287.421244 134.742332 
L 287.895885 136.460529 
L 288.370526 136.602403 
L 289.161595 135.737996 
L 289.636236 134.468002 
L 290.110877 132.605953 
L 290.427305 131.332867 
L 290.585518 131.095697 
L 291.693014 127.745178 
L 292.167656 127.939261 
L 293.116938 129.838211 
L 293.749793 132.05625 
L 295.648357 138.1086 
L 295.964785 138.384854 
L 296.122998 138.671076 
L 296.439426 138.672931 
L 296.755853 138.683478 
L 297.072281 138.408883 
L 297.230494 138.36258 
L 297.863349 138.66324 
L 298.179777 138.391842 
L 298.496204 138.466644 
L 298.654418 138.469651 
L 299.6037 137.142702 
L 300.078341 136.401715 
L 300.394769 136.144562 
L 300.711196 135.706434 
L 301.185837 135.456964 
L 301.660478 134.760811 
L 301.818692 134.651765 
L 302.609761 134.917256 
L 302.926188 134.700143 
L 303.400829 134.890466 
L 303.87547 135.404433 
L 304.191898 135.662467 
L 304.824753 136.08108 
L 305.14118 136.427688 
L 305.615821 136.430291 
L 305.774035 136.44594 
L 306.090463 136.711017 
L 307.197959 139.037364 
L 307.514386 139.261399 
L 307.830813 139.472402 
L 308.147241 139.675906 
L 309.412951 139.823651 
L 309.887592 140.186324 
L 310.045805 140.456154 
L 310.204019 140.481818 
L 310.520447 140.300979 
L 310.836874 140.522073 
L 311.469729 141.125664 
L 312.102584 142.155151 
L 312.419011 141.984124 
L 312.735439 141.891908 
L 313.051866 142.244007 
L 313.368293 142.091195 
L 313.684721 142.150714 
L 314.475789 141.185974 
L 314.634003 141.181988 
L 316.532568 139.676274 
L 316.848995 139.376204 
L 317.48185 139.650288 
L 317.956491 139.571651 
L 318.114705 139.662026 
L 318.272919 139.609623 
L 318.905774 139.884214 
L 319.222201 139.890371 
L 319.538628 140.220535 
L 319.696842 140.271064 
L 320.329697 140.877129 
L 321.120766 140.752608 
L 321.437193 141.153467 
L 321.75362 141.379768 
L 322.070048 141.446145 
L 322.702903 141.853379 
L 323.177544 141.77014 
L 323.335758 141.691664 
L 323.652185 141.807377 
L 323.968612 141.784198 
L 324.28504 142.006282 
L 324.601467 142.232548 
L 325.076108 142.331588 
L 325.392536 142.23785 
L 326.500032 143.044689 
L 326.974673 143.11753 
L 327.449314 143.39587 
L 327.923955 143.349175 
L 328.398596 143.013752 
L 328.715024 143.013715 
L 329.031451 142.850681 
L 329.347879 143.133195 
L 329.664306 143.318075 
L 330.138947 143.250477 
L 330.771802 143.614998 
L 331.246443 143.40786 
L 331.562871 143.365296 
L 332.670367 142.618718 
L 332.986794 142.689204 
L 333.303222 142.724629 
L 334.09429 142.169762 
L 334.410718 142.009814 
L 334.727145 141.772262 
L 335.834641 142.049292 
L 336.467496 142.706615 
L 336.62571 142.706974 
L 337.258565 143.204525 
L 337.891419 143.424027 
L 338.207847 143.456686 
L 338.524274 143.63608 
L 338.998915 143.683704 
L 339.315343 143.822071 
L 340.264625 143.534254 
L 340.739266 143.293935 
L 341.055694 143.029238 
L 341.372121 142.638095 
L 342.16319 142.135251 
L 343.270686 142.117558 
L 343.587113 142.074626 
L 344.694609 142.436961 
L 345.485678 142.13635 
L 346.43496 141.858603 
L 347.384242 141.674587 
L 347.858884 141.933408 
L 348.175311 142.14894 
L 348.491738 142.057125 
L 348.808166 141.735318 
L 348.96638 141.868278 
L 349.599234 141.526829 
L 349.915662 141.742016 
L 350.864944 141.910264 
L 351.339585 141.327487 
L 351.814226 140.762515 
L 352.130654 140.704096 
L 352.605295 140.689189 
L 353.554577 140.851365 
L 353.871005 140.990041 
L 354.029219 140.988957 
L 354.50386 141.34104 
L 354.978501 141.348345 
L 355.294928 141.250587 
L 355.769569 141.50233 
L 356.244211 141.654916 
L 357.193493 141.865249 
L 357.50992 141.856051 
L 357.826348 141.926759 
L 359.250271 142.799852 
L 359.566699 143.23956 
L 359.883126 143.226001 
L 360.199553 143.306701 
L 360.515981 143.474485 
L 361.148836 143.606318 
L 361.307049 143.467788 
L 361.465263 143.519853 
L 361.939904 144.093039 
L 362.730973 144.509637 
L 363.0474 144.648749 
L 363.522041 144.593328 
L 364.31311 144.823918 
L 364.945965 144.564711 
L 365.737033 144.60265 
L 366.053461 145.036207 
L 366.369888 145.352727 
L 366.528102 145.526732 
L 366.84453 145.531774 
L 368.110239 144.682941 
L 368.743094 144.003069 
L 369.059522 143.857789 
L 370.008804 143.541726 
L 370.641659 142.879884 
L 370.958086 142.774059 
L 371.1163 142.89066 
L 371.590941 142.796602 
L 372.065582 143.027764 
L 372.856651 142.876683 
L 373.173078 142.737896 
L 373.647719 142.782808 
L 374.280574 142.717058 
L 374.597002 142.69132 
L 375.546284 142.697248 
L 376.020925 142.502712 
L 376.65378 142.530057 
L 377.761276 142.514228 
L 378.077703 142.357991 
L 378.394131 142.138031 
L 380.134482 141.897678 
L 380.92555 142.601823 
L 381.558405 143.295897 
L 382.982329 144.614953 
L 383.615183 145.142634 
L 383.931611 145.382511 
L 384.089825 145.383802 
L 384.722679 145.813487 
L 385.197321 145.848749 
L 385.513748 145.717346 
L 386.779458 144.875965 
L 387.412313 144.505764 
L 388.045167 144.096438 
L 388.203381 144.088686 
L 388.678022 143.798739 
L 388.99445 143.799696 
L 389.152663 143.773548 
L 389.469091 143.59523 
L 389.785518 143.44654 
L 390.418373 143.065481 
L 391.051228 142.741971 
L 391.367656 142.726888 
L 391.842297 142.221009 
L 392.158724 142.261031 
L 393.26622 142.649358 
L 393.582648 143.035097 
L 393.899075 143.045881 
L 394.373716 142.763437 
L 394.53193 142.750252 
L 394.848357 142.98494 
L 395.164785 142.927189 
L 395.79764 142.849162 
L 396.272281 142.916516 
L 396.588708 143.303706 
L 396.905136 143.346105 
L 397.53799 143.474414 
L 398.329059 143.299724 
L 398.487273 143.289528 
L 398.487273 143.289528 
" style="fill:none;stroke:#000000;stroke-linecap:square;stroke-width:1.5;"/>
   </g>
   <g id="line2d_17">
    <path clip-path="url(#p0bf530c6af)" d="M 73.832727 154.685507 
L 74.149155 154.650845 
L 74.465582 154.726508 
L 75.098437 154.837292 
L 75.414864 154.733593 
L 76.838788 152.804558 
L 77.313429 152.704355 
L 77.629856 152.873122 
L 78.262711 152.882968 
L 78.579139 152.846826 
L 79.844848 153.145841 
L 80.161276 153.457358 
L 80.477703 153.535767 
L 80.635917 153.623636 
L 81.268772 153.141868 
L 81.743413 152.982431 
L 82.059841 152.94686 
L 83.167337 153.478766 
L 83.483764 153.683558 
L 84.433046 153.618117 
L 84.749474 153.45158 
L 85.065901 153.409076 
L 85.540542 153.798723 
L 87.597321 153.831398 
L 87.913748 153.414522 
L 88.546603 153.116904 
L 89.337671 152.632105 
L 89.654099 152.68327 
L 90.12874 152.779377 
L 90.445167 152.942564 
L 90.761595 153.041957 
L 92.976587 153.792209 
L 93.293014 153.725404 
L 94.242297 153.867543 
L 95.191579 153.623141 
L 95.508006 153.771954 
L 96.140861 153.62858 
L 96.615502 153.595475 
L 96.773716 153.376614 
L 97.722998 150.884075 
L 98.355853 150.045751 
L 98.672281 149.959008 
L 100.570845 150.020718 
L 100.729059 149.891462 
L 101.994769 150.112642 
L 102.785837 150.97526 
L 103.260478 150.907318 
L 103.576906 151.031702 
L 103.73512 150.990397 
L 104.051547 151.145231 
L 104.526188 151.095019 
L 104.842616 151.160399 
L 105.159043 151.182462 
L 105.47547 151.311144 
L 105.791898 153.375112 
L 106.899394 160.206699 
L 109.114386 170.374724 
L 110.221882 174.142883 
L 111.012951 176.56498 
L 112.436874 181.077257 
L 115.126507 188.830256 
L 118.923636 198.0194 
L 119.714705 200.174736 
L 122.087911 205.548806 
L 123.35362 208.183666 
L 124.144689 209.870292 
L 124.777544 211.048956 
L 125.568612 212.66308 
L 126.201467 213.824541 
L 126.834322 215.070123 
L 127.783604 217.035209 
L 129.523955 220.432498 
L 130.315024 221.874636 
L 132.371802 225.153027 
L 133.004657 226.367048 
L 133.321085 226.795171 
L 135.377863 229.747542 
L 135.69429 229.97973 
L 136.327145 230.862584 
L 136.643573 231.192271 
L 137.118214 231.84009 
L 137.592855 232.259096 
L 138.542137 233.137331 
L 139.016778 233.724207 
L 139.649633 234.321975 
L 140.282488 235.286306 
L 140.757129 235.779785 
L 141.23177 236.129259 
L 141.548198 236.398138 
L 141.864625 236.528811 
L 142.339266 236.843326 
L 143.288549 237.837918 
L 144.079617 238.593842 
L 144.237831 238.634903 
L 145.661754 240.073203 
L 145.978182 240.227972 
L 148.03496 241.936928 
L 148.193174 242.000058 
L 148.667815 242.495327 
L 149.142456 242.880713 
L 149.933525 243.105131 
L 150.724593 243.592217 
L 151.357448 244.253173 
L 153.730654 245.157313 
L 154.205295 245.45084 
L 154.521722 245.631676 
L 155.471005 245.984634 
L 155.945646 246.245949 
L 156.420287 246.380715 
L 157.053142 246.920288 
L 158.002424 247.396446 
L 158.318852 247.576742 
L 158.635279 247.612544 
L 159.268134 247.933305 
L 159.742775 248.101348 
L 161.166699 248.58282 
L 161.64134 248.88001 
L 161.957767 248.983146 
L 162.748836 248.914878 
L 162.907049 249.029383 
L 163.065263 248.911679 
L 163.381691 248.583821 
L 163.698118 248.367927 
L 164.330973 248.753702 
L 164.489187 248.900706 
L 164.805614 248.864587 
L 165.438469 249.202833 
L 167.969888 249.841253 
L 168.286316 249.674059 
L 169.710239 249.90125 
L 170.817735 249.788818 
L 171.292376 249.670162 
L 172.241659 249.784204 
L 173.032727 250.071421 
L 173.665582 250.0774 
L 174.140223 249.973518 
L 174.456651 249.832833 
L 174.931292 249.973046 
L 175.880574 250.04558 
L 177.779139 250.05173 
L 178.25378 249.961994 
L 178.728421 249.916806 
L 179.361276 250.042228 
L 179.677703 250.000324 
L 180.310558 250.181281 
L 181.418054 249.714897 
L 182.050909 249.419105 
L 182.683764 249.495174 
L 183.316619 249.261899 
L 184.107687 249.107976 
L 184.424115 249.053604 
L 184.740542 249.013432 
L 185.215183 248.813628 
L 185.531611 248.713706 
L 185.848038 248.367661 
L 186.164466 248.29294 
L 186.955534 247.818577 
L 187.430175 247.643186 
L 187.746603 247.477604 
L 188.06303 247.351183 
L 188.379458 247.227134 
L 189.803381 247.213249 
L 193.125869 246.598725 
L 194.233365 246.616787 
L 194.549793 246.519144 
L 194.86622 246.573991 
L 196.448357 246.383142 
L 196.764785 246.394251 
L 197.39764 246.157721 
L 198.188708 246.003006 
L 198.979777 245.905195 
L 199.454418 245.629849 
L 199.612632 245.489476 
L 200.245486 245.556045 
L 200.720128 245.463138 
L 201.036555 245.54613 
L 201.985837 245.122174 
L 202.302265 245.093857 
L 202.93512 244.881419 
L 203.567974 244.916795 
L 204.517257 244.666723 
L 204.833684 244.757987 
L 205.308325 244.661058 
L 205.624753 244.610165 
L 206.574035 244.046988 
L 207.048676 243.911298 
L 207.523317 243.934695 
L 207.839745 244.064114 
L 208.314386 243.924401 
L 214.326507 243.473763 
L 215.434003 243.387076 
L 215.908644 243.467284 
L 216.541499 243.517439 
L 217.965423 243.468714 
L 218.28185 243.436606 
L 219.705774 243.217944 
L 220.81327 242.844004 
L 221.129697 242.769098 
L 221.604338 242.923756 
L 222.078979 242.928821 
L 222.711834 242.817549 
L 223.186475 242.761216 
L 223.661116 242.493169 
L 224.610399 242.433915 
L 225.243254 242.413403 
L 227.300032 241.614723 
L 227.616459 241.541144 
L 228.0911 241.428277 
L 228.407528 241.405867 
L 228.723955 241.281127 
L 229.040383 241.341747 
L 229.673238 241.316574 
L 230.147879 241.433749 
L 230.464306 241.419101 
L 231.255375 241.353786 
L 231.413589 241.267066 
L 231.730016 241.34523 
L 233.786794 241.251653 
L 234.577863 241.302041 
L 238.374992 241.553744 
L 239.007847 241.471314 
L 239.324274 241.293143 
L 239.482488 241.322908 
L 239.798915 241.060822 
L 240.273557 241.049859 
L 240.748198 240.857649 
L 241.222839 240.499565 
L 241.539266 240.311282 
L 241.855694 240.36229 
L 242.172121 240.498959 
L 242.646762 240.275005 
L 242.96319 240.194955 
L 244.2289 240.082365 
L 244.861754 240.247764 
L 245.178182 240.244236 
L 245.494609 240.231307 
L 248.026029 239.776044 
L 249.924593 240.002846 
L 250.241021 239.849543 
L 250.557448 239.858988 
L 250.873876 239.823695 
L 251.348517 239.886506 
L 252.614226 239.726798 
L 252.930654 239.69314 
L 253.405295 239.56948 
L 254.03815 239.63562 
L 254.829219 239.587719 
L 257.044211 239.088305 
L 257.360638 238.968016 
L 258.626348 238.455277 
L 260.999553 238.341111 
L 261.315981 238.307178 
L 263.372759 238.157879 
L 263.689187 238.21521 
L 265.429537 228.902192 
L 266.537033 224.654209 
L 267.960957 219.988758 
L 269.068453 216.679591 
L 271.758086 209.6518 
L 272.390941 208.267332 
L 273.023796 206.916652 
L 274.764147 203.138212 
L 278.561276 193.135273 
L 279.510558 189.650771 
L 280.776268 182.898445 
L 281.883764 174.141032 
L 282.99126 161.870312 
L 283.940542 140.565405 
L 284.098756 135.305881 
L 284.415183 57.891634 
L 284.889825 144.491455 
L 285.206252 160.467322 
L 285.364466 164.871261 
L 285.680893 165.861483 
L 285.839107 165.118096 
L 286.471962 159.328569 
L 287.579458 142.271663 
L 288.054099 132.160457 
L 288.370526 121.729547 
L 288.686954 95.500162 
L 288.845167 81.772967 
L 289.003381 82.018196 
L 289.952663 141.256415 
L 290.269091 147.95407 
L 290.743732 152.500605 
L 290.901946 153.027052 
L 291.060159 153.054893 
L 291.534801 151.934052 
L 291.851228 150.695266 
L 292.642297 145.162536 
L 293.433365 138.98517 
L 295.490144 122.684226 
L 295.648357 122.716239 
L 296.122998 123.71711 
L 296.439426 125.24287 
L 298.021563 137.436477 
L 298.496204 139.437424 
L 298.812632 140.238727 
L 299.129059 140.770587 
L 299.920128 141.957996 
L 300.236555 141.765044 
L 300.552982 141.312581 
L 301.027624 140.443647 
L 301.344051 140.253675 
L 301.660478 140.204743 
L 302.13512 140.273955 
L 302.767974 139.542552 
L 303.084402 139.008915 
L 303.242616 139.057546 
L 303.87547 138.751495 
L 304.191898 138.78832 
L 305.14118 138.26602 
L 305.774035 138.504529 
L 306.090463 138.269518 
L 306.881531 137.625447 
L 307.197959 137.696388 
L 308.147241 138.799123 
L 308.305455 138.847787 
L 308.621882 139.371554 
L 309.729378 141.447239 
L 310.520447 142.495343 
L 310.836874 142.585353 
L 311.786156 142.268692 
L 312.419011 142.427398 
L 312.893652 142.538678 
L 313.526507 142.213586 
L 314.159362 141.743136 
L 315.108644 141.578008 
L 316.057927 142.034545 
L 316.21614 142.296094 
L 316.374354 142.29969 
L 316.532568 142.182322 
L 316.848995 142.242315 
L 317.165423 141.900076 
L 317.323636 141.673877 
L 317.640064 141.776582 
L 317.956491 141.406248 
L 318.114705 141.465515 
L 318.589346 141.27863 
L 319.380415 141.726851 
L 319.696842 142.011914 
L 320.171483 142.66688 
L 321.278979 143.695675 
L 322.070048 144.423068 
L 322.386475 144.711835 
L 322.861116 145.298345 
L 323.335758 145.575548 
L 323.968612 145.58938 
L 324.126826 145.604399 
L 324.601467 145.947517 
L 325.234322 146.168472 
L 325.392536 146.158237 
L 325.867177 145.844373 
L 326.658246 145.676003 
L 326.974673 145.787624 
L 327.2911 145.796588 
L 327.449314 145.828737 
L 327.765742 145.588752 
L 327.923955 145.699033 
L 328.240383 146.158165 
L 328.873238 146.602006 
L 329.189665 146.658205 
L 329.506093 146.540548 
L 330.297161 145.944933 
L 330.613589 146.148903 
L 330.930016 146.230157 
L 331.404657 146.325085 
L 331.721085 146.311902 
L 332.195726 146.003379 
L 332.986794 145.436841 
L 333.303222 145.073874 
L 333.619649 144.864764 
L 334.568931 144.221659 
L 334.727145 144.241186 
L 335.36 143.930961 
L 335.518214 143.929638 
L 336.783923 144.979833 
L 337.258565 145.694147 
L 338.049633 146.037784 
L 338.366061 146.161432 
L 339.157129 146.353027 
L 339.315343 146.322785 
L 341.055694 147.48731 
L 342.16319 147.394854 
L 342.796045 147.722664 
L 343.4289 147.507139 
L 344.219968 146.591933 
L 344.536396 146.617056 
L 344.852823 146.226212 
L 345.802105 146.502739 
L 346.118533 146.738742 
L 346.43496 146.6958 
L 347.384242 146.883438 
L 348.175311 146.641387 
L 348.649952 146.744522 
L 349.441021 146.642426 
L 350.073876 146.274059 
L 350.390303 146.325951 
L 350.548517 146.220204 
L 350.864944 145.810717 
L 351.97244 145.123142 
L 352.605295 145.390077 
L 353.23815 145.913355 
L 353.554577 146.120204 
L 353.871005 146.520153 
L 354.187432 147.203213 
L 354.50386 147.482371 
L 354.662073 147.468601 
L 355.453142 148.137813 
L 356.718852 149.669998 
L 357.035279 149.864786 
L 357.668134 150.343079 
L 357.984561 150.242894 
L 358.617416 150.521679 
L 358.933844 150.436842 
L 359.250271 150.44766 
L 359.566699 150.193392 
L 360.04134 150.164566 
L 360.515981 149.792977 
L 361.307049 149.331664 
L 361.781691 149.229279 
L 361.939904 149.211046 
L 362.414545 149.388114 
L 362.889187 149.572928 
L 363.363828 149.644646 
L 363.680255 149.611758 
L 364.154896 149.371807 
L 364.471324 149.41977 
L 365.57882 148.524805 
L 365.895247 148.232956 
L 366.211675 148.012366 
L 366.369888 147.922288 
L 367.002743 147.174121 
L 367.319171 147.060912 
L 367.477384 146.914138 
L 367.635598 146.923836 
L 367.952026 146.677398 
L 368.268453 146.758249 
L 368.743094 146.798422 
L 369.059522 146.872157 
L 369.375949 146.723742 
L 370.167018 146.977348 
L 370.483445 147.040889 
L 370.641659 147.059076 
L 371.274514 147.581219 
L 371.590941 147.636448 
L 372.223796 147.669602 
L 372.540223 147.56704 
L 373.331292 147.654701 
L 373.964147 147.951076 
L 374.438788 147.967618 
L 374.755215 147.877633 
L 375.071643 147.928758 
L 375.546284 148.220982 
L 375.704498 148.214615 
L 376.337352 148.556924 
L 376.65378 148.589486 
L 376.970207 148.559396 
L 377.603062 149.005509 
L 378.235917 149.768529 
L 378.710558 149.900099 
L 379.818054 149.244352 
L 380.134482 149.317326 
L 380.450909 149.442035 
L 380.609123 149.321944 
L 381.241978 149.391517 
L 381.874833 149.270881 
L 382.665901 148.824772 
L 384.089825 149.493291 
L 384.248038 149.489134 
L 384.722679 149.729897 
L 385.039107 149.789799 
L 385.355534 149.584913 
L 385.513748 149.645925 
L 385.988389 149.302297 
L 386.46303 149.155248 
L 386.779458 149.233894 
L 386.937671 149.240904 
L 387.886954 149.936941 
L 388.203381 149.971869 
L 388.519809 150.040281 
L 388.836236 150.002986 
L 391.209442 149.422645 
L 391.684083 149.053283 
L 391.842297 149.094543 
L 392.158724 148.836827 
L 392.475152 148.887966 
L 393.582648 148.079751 
L 393.899075 147.810183 
L 395.164785 147.60733 
L 395.639426 147.279093 
L 396.588708 147.476513 
L 397.379777 146.647417 
L 398.012632 146.413414 
L 398.487273 146.62728 
L 398.487273 146.62728 
" style="fill:none;stroke:#000000;stroke-linecap:square;stroke-width:1.5;"/>
   </g>
   <g id="line2d_18">
    <path clip-path="url(#p0bf530c6af)" d="M 73.832727 179.024268 
L 74.307368 179.030522 
L 75.414864 179.33618 
L 76.52236 179.266018 
L 76.838788 179.098678 
L 77.471643 179.196547 
L 77.78807 179.037757 
L 78.262711 179.017405 
L 78.895566 178.832434 
L 79.211994 178.876241 
L 79.844848 178.919509 
L 80.161276 178.949654 
L 80.477703 178.886438 
L 80.794131 178.88424 
L 81.110558 178.725988 
L 82.218054 178.548248 
L 82.850909 178.485723 
L 83.167337 178.511044 
L 83.641978 178.599098 
L 84.907687 178.866538 
L 85.224115 179.012303 
L 86.015183 178.940557 
L 86.964466 178.973997 
L 87.122679 179.056296 
L 87.597321 178.859972 
L 87.913748 178.851898 
L 88.071962 178.858681 
L 88.388389 178.761397 
L 89.021244 178.953297 
L 89.654099 178.812374 
L 90.445167 178.673957 
L 90.761595 178.592025 
L 92.660159 178.060335 
L 92.976587 178.154395 
L 93.134801 178.161465 
L 93.451228 178.335946 
L 95.191579 178.539627 
L 95.66622 178.72991 
L 96.773716 178.729254 
L 97.881212 178.559004 
L 98.19764 178.568474 
L 98.830494 178.693025 
L 100.412632 178.500647 
L 100.729059 178.397295 
L 101.836555 178.344788 
L 102.311196 178.467128 
L 103.102265 178.383784 
L 104.051547 178.563199 
L 104.526188 178.705565 
L 105.317257 178.852902 
L 105.47547 178.957461 
L 105.791898 176.905717 
L 106.582967 172.670605 
L 107.690463 167.983532 
L 108.639745 164.221389 
L 111.487592 152.954791 
L 112.753301 147.606311 
L 113.386156 143.963907 
L 113.54437 143.388145 
L 113.860797 140.923796 
L 114.651866 133.016042 
L 114.968293 125.394398 
L 115.284721 55.072781 
L 115.442935 69.533737 
L 115.759362 135.657593 
L 116.075789 161.320084 
L 116.392217 168.970172 
L 116.708644 170.545782 
L 116.866858 169.918409 
L 117.025072 170.194945 
L 119.398278 161.829123 
L 120.505774 158.028908 
L 121.455056 154.701315 
L 121.929697 153.012342 
L 124.935758 143.827006 
L 125.726826 141.096909 
L 126.359681 139.138216 
L 127.308963 134.391505 
L 127.783604 130.276541 
L 128.100032 126.44909 
L 128.416459 119.633003 
L 128.574673 113.854187 
L 128.732887 103.009932 
L 129.049314 63.924528 
L 129.207528 70.540921 
L 129.682169 133.32895 
L 129.998596 153.295924 
L 130.315024 161.628384 
L 130.631451 164.695606 
L 130.947879 165.87377 
L 131.264306 166.110968 
L 131.42252 166.002894 
L 131.738947 165.351721 
L 132.213589 164.034846 
L 133.795726 159.303266 
L 134.586794 157.024009 
L 135.852504 153.558021 
L 136.327145 152.456492 
L 139.807847 141.948289 
L 140.598915 139.738676 
L 140.915343 138.941911 
L 141.864625 135.11139 
L 143.288549 125.015805 
L 143.76319 118.022611 
L 144.079617 108.269694 
L 144.712472 77.284819 
L 144.870686 82.638342 
L 145.661754 140.139432 
L 145.978182 150.538431 
L 146.294609 155.388676 
L 146.611037 157.746233 
L 146.927464 158.80864 
L 147.243892 159.147191 
L 147.718533 158.847564 
L 148.667815 157.936227 
L 149.617097 156.446781 
L 150.56638 154.138884 
L 151.515662 152.276832 
L 151.990303 151.361554 
L 152.939585 149.653776 
L 153.256013 148.829434 
L 153.57244 148.269055 
L 154.205295 146.795116 
L 156.262073 142.265208 
L 156.736715 140.931409 
L 158.635279 136.20438 
L 159.742775 131.643236 
L 160.217416 129.483861 
L 160.692057 128.160104 
L 161.64134 124.60232 
L 161.957767 123.598508 
L 162.432408 121.426224 
L 163.223477 117.002492 
L 163.381691 117.015854 
L 163.698118 117.373924 
L 164.172759 119.431411 
L 164.805614 123.189959 
L 166.071324 132.033579 
L 167.17882 137.590115 
L 167.653461 138.995903 
L 168.44453 140.525947 
L 168.919171 140.883113 
L 169.393812 140.839182 
L 170.18488 140.095055 
L 170.501308 139.775864 
L 170.659522 139.699419 
L 170.975949 139.386024 
L 171.45059 139.098285 
L 172.558086 138.383957 
L 174.931292 136.373092 
L 175.564147 135.566584 
L 175.880574 135.367048 
L 176.671643 134.329028 
L 177.462711 133.875851 
L 177.620925 133.827265 
L 177.937352 134.038797 
L 178.25378 133.790413 
L 178.570207 134.015077 
L 178.886635 134.292114 
L 179.51949 133.78623 
L 179.994131 133.064997 
L 180.310558 132.869964 
L 180.785199 133.074657 
L 181.101627 133.083987 
L 181.418054 133.520068 
L 182.683764 135.265483 
L 183.000191 135.431545 
L 183.316619 135.155672 
L 184.265901 133.999241 
L 184.582329 133.992064 
L 184.740542 134.169462 
L 185.05697 134.129567 
L 185.215183 134.201102 
L 186.006252 133.164876 
L 186.164466 133.122651 
L 186.480893 133.343244 
L 186.955534 133.446374 
L 187.430175 133.699433 
L 187.746603 133.808998 
L 188.06303 134.009863 
L 188.379458 134.515176 
L 188.695885 134.63864 
L 188.854099 134.655962 
L 189.486954 135.195002 
L 189.961595 135.173902 
L 190.119809 135.231051 
L 190.436236 134.922359 
L 190.910877 134.318837 
L 191.227305 133.941388 
L 193.60051 130.071592 
L 194.075152 128.802351 
L 194.391579 128.102092 
L 194.708006 127.868388 
L 195.182648 128.12718 
L 195.499075 128.184756 
L 196.922998 130.621776 
L 197.39764 131.8004 
L 197.714067 132.139461 
L 199.296204 133.831309 
L 199.612632 134.359153 
L 199.929059 134.677225 
L 200.561914 134.76926 
L 200.878341 134.851256 
L 201.352982 135.102195 
L 202.460478 135.002752 
L 202.776906 134.7205 
L 202.93512 134.679472 
L 203.567974 134.034074 
L 204.042616 133.777396 
L 204.67547 133.026944 
L 205.308325 132.122482 
L 205.782967 131.620107 
L 206.099394 131.211672 
L 206.890463 130.684063 
L 207.681531 131.62656 
L 208.156172 132.132957 
L 209.896523 130.665014 
L 210.529378 130.789401 
L 210.845805 131.145318 
L 211.162233 131.21563 
L 211.47866 131.138866 
L 212.269729 132.210203 
L 212.902584 132.92167 
L 213.851866 134.58159 
L 214.326507 135.166393 
L 215.117576 135.820788 
L 215.434003 136.063355 
L 215.908644 135.648148 
L 216.383285 135.196822 
L 216.699713 134.902288 
L 217.174354 134.508037 
L 217.332568 134.512417 
L 217.807209 134.186794 
L 219.072919 133.445265 
L 219.705774 132.513174 
L 220.180415 131.997624 
L 220.338628 132.031082 
L 220.81327 131.734899 
L 221.129697 131.247245 
L 222.237193 131.300191 
L 222.55362 131.635506 
L 223.028262 131.425209 
L 223.344689 131.626341 
L 223.661116 131.586974 
L 224.135758 131.834516 
L 224.452185 131.465357 
L 224.768612 131.762497 
L 225.243254 132.46089 
L 226.35075 132.447263 
L 226.983604 132.192978 
L 227.300032 132.058254 
L 227.932887 131.611451 
L 228.249314 131.775482 
L 228.723955 132.12094 
L 229.040383 132.551344 
L 229.35681 132.626731 
L 229.673238 132.797258 
L 230.306093 133.618329 
L 230.938947 133.618076 
L 231.413589 133.929488 
L 232.521085 134.852997 
L 232.995726 134.96888 
L 233.312153 135.245682 
L 233.628581 135.342862 
L 234.103222 135.757331 
L 234.261435 135.841576 
L 234.89429 135.507954 
L 235.368931 135.594891 
L 235.685359 135.513358 
L 236.16 135.832058 
L 236.792855 135.752553 
L 237.583923 135.634073 
L 238.058565 135.87153 
L 238.374992 136.231782 
L 238.691419 136.16492 
L 239.007847 135.813118 
L 239.324274 135.650272 
L 239.957129 135.506906 
L 240.589984 135.085145 
L 241.064625 134.577152 
L 241.222839 134.551513 
L 241.69748 134.778929 
L 242.013907 134.613922 
L 243.912472 132.730532 
L 244.387113 132.797202 
L 244.861754 132.459518 
L 245.494609 132.241103 
L 245.811037 132.451467 
L 246.285678 132.194683 
L 246.760319 131.86902 
L 247.076746 131.822754 
L 247.393174 131.611659 
L 247.551388 131.351981 
L 248.026029 131.283407 
L 248.975311 132.353688 
L 249.449952 133.105549 
L 250.557448 134.257602 
L 251.348517 134.069497 
L 251.981372 133.960991 
L 252.456013 133.937794 
L 253.088868 134.15505 
L 253.247081 134.266546 
L 253.879936 134.076055 
L 254.829219 133.394863 
L 255.30386 133.680921 
L 256.253142 134.676568 
L 256.885997 134.91902 
L 257.518852 135.106098 
L 257.993493 135.737418 
L 258.151707 135.782945 
L 258.468134 136.03008 
L 259.100989 135.736124 
L 259.259203 135.613962 
L 259.57563 135.797844 
L 259.733844 135.732853 
L 260.050271 135.903924 
L 260.524912 135.759609 
L 260.84134 135.331391 
L 260.999553 135.143279 
L 261.790622 135.345978 
L 262.265263 135.787609 
L 262.898118 135.929636 
L 263.530973 135.546901 
L 263.689187 135.587016 
L 263.8474 136.250334 
L 264.322041 139.136982 
L 265.745965 146.053232 
L 266.695247 150.046328 
L 267.64453 153.20125 
L 268.435598 155.123159 
L 268.910239 156.319522 
L 270.65059 159.122267 
L 270.967018 159.562423 
L 271.283445 160.030878 
L 271.441659 160.085163 
L 272.549155 161.720402 
L 273.18201 162.484687 
L 276.18807 165.535117 
L 276.346284 165.588671 
L 276.662711 165.89574 
L 278.086635 166.415699 
L 278.71949 167.116982 
L 279.352344 167.515636 
L 279.826986 167.599716 
L 280.143413 167.699791 
L 282.041978 168.640444 
L 282.833046 169.188256 
L 283.624115 169.254716 
L 284.098756 169.405077 
L 284.415183 169.616374 
L 284.731611 169.650228 
L 285.206252 169.916216 
L 285.680893 170.012015 
L 286.471962 170.28131 
L 286.946603 170.462727 
L 287.421244 170.427751 
L 288.054099 170.705066 
L 288.52874 170.71365 
L 288.845167 170.482572 
L 289.636236 170.714882 
L 289.952663 170.829129 
L 290.585518 170.90746 
L 290.901946 171.127671 
L 291.218373 171.266472 
L 291.693014 171.439351 
L 292.009442 171.575865 
L 292.484083 172.036932 
L 292.80051 172.160952 
L 295.33193 172.672 
L 295.806571 172.996641 
L 296.59764 173.192221 
L 296.914067 173.123903 
L 297.230494 173.144131 
L 297.705136 173.084016 
L 299.129059 173.408138 
L 299.445486 173.448421 
L 300.394769 173.920128 
L 300.86941 173.963044 
L 301.185837 174.013238 
L 301.818692 174.268143 
L 302.13512 174.162334 
L 302.451547 174.31613 
L 303.084402 174.29848 
L 303.87547 174.650838 
L 304.666539 174.621842 
L 304.982967 174.657347 
L 305.932249 174.764673 
L 306.248676 174.894565 
L 306.565104 174.908856 
L 307.039745 174.985502 
L 307.6726 174.997271 
L 308.147241 175.141145 
L 308.621882 175.02995 
L 309.254737 175.165685 
L 309.571164 175.168838 
L 310.204019 174.811181 
L 313.051866 175.323966 
L 313.368293 175.435573 
L 313.684721 175.404187 
L 314.159362 175.653929 
L 315.899713 175.781921 
L 316.532568 176.001356 
L 317.323636 176.225114 
L 317.640064 176.365188 
L 318.905774 175.884877 
L 321.911834 176.45116 
L 322.228262 176.26559 
L 323.335758 175.976127 
L 324.28504 175.753851 
L 324.601467 175.74558 
L 325.234322 175.462151 
L 325.55075 175.448857 
L 326.500032 175.740743 
L 326.816459 175.604664 
L 327.132887 175.572209 
L 327.607528 175.538086 
L 327.765742 175.565986 
L 328.082169 175.40564 
L 331.562871 175.737274 
L 332.195726 175.661627 
L 332.512153 175.77911 
L 332.828581 175.795495 
L 333.145008 175.945865 
L 333.777863 176.045726 
L 334.252504 176.402206 
L 334.885359 176.373493 
L 335.201786 176.192956 
L 336.309282 176.066573 
L 337.733206 175.619571 
L 338.049633 175.487119 
L 338.998915 175.389648 
L 339.948198 175.367876 
L 340.739266 175.625966 
L 341.055694 175.509913 
L 341.372121 175.520099 
L 341.688549 175.441346 
L 342.004976 175.468447 
L 342.637831 175.577572 
L 342.954258 175.704157 
L 343.4289 175.728595 
L 343.903541 175.941113 
L 344.694609 176.025469 
L 345.011037 175.789742 
L 345.643892 175.717107 
L 346.909601 175.789654 
L 347.226029 175.922581 
L 347.542456 175.930659 
L 348.649952 176.097404 
L 349.124593 176.111557 
L 351.023158 176.391973 
L 351.339585 176.317837 
L 351.814226 176.46083 
L 352.288868 176.456677 
L 352.605295 176.553765 
L 352.921722 176.406382 
L 354.662073 176.455755 
L 354.978501 176.503809 
L 355.294928 176.555221 
L 355.769569 176.531976 
L 355.927783 176.484647 
L 356.402424 176.712376 
L 357.035279 176.719987 
L 357.351707 176.898007 
L 357.668134 176.99884 
L 358.617416 177.209724 
L 359.250271 176.955654 
L 359.566699 177.102154 
L 360.990622 177.600033 
L 361.781691 177.402758 
L 362.414545 177.779826 
L 362.889187 177.933954 
L 363.205614 178.092441 
L 363.522041 178.097482 
L 363.996683 178.148546 
L 364.31311 178.071121 
L 365.420606 178.20381 
L 365.737033 178.31939 
L 366.211675 178.560186 
L 366.686316 178.682023 
L 367.477384 178.450707 
L 367.793812 178.529662 
L 368.110239 178.448016 
L 370.799872 178.364679 
L 371.749155 178.556624 
L 372.065582 178.672739 
L 372.540223 178.517012 
L 372.856651 178.529345 
L 373.331292 178.416138 
L 374.12236 178.659317 
L 374.438788 178.586213 
L 374.755215 178.596113 
L 375.071643 178.538725 
L 376.811994 179.167694 
L 376.970207 179.060117 
L 377.603062 179.207722 
L 377.91949 179.216788 
L 379.976268 179.567137 
L 382.033046 179.899465 
L 382.824115 179.951666 
L 383.615183 179.84431 
L 384.089825 179.589067 
L 384.880893 179.683158 
L 385.197321 179.785231 
L 386.304817 179.506415 
L 387.412313 179.923846 
L 387.886954 179.854151 
L 389.310877 179.926355 
L 390.893014 180.228941 
L 392.475152 180.365454 
L 394.373716 180.615029 
L 395.164785 180.469723 
L 395.481212 180.288386 
L 396.272281 180.178352 
L 397.063349 180.019816 
L 398.329059 180.384942 
L 398.487273 180.336963 
L 398.487273 180.336963 
" style="fill:none;stroke:#000000;stroke-linecap:square;stroke-width:1.5;"/>
   </g>
   <g id="line2d_19">
    <path clip-path="url(#p0bf530c6af)" d="M 73.832727 178.674887 
L 74.149155 178.700899 
L 74.465582 178.587391 
L 75.256651 178.564847 
L 75.731292 178.717331 
L 76.205933 178.609288 
L 76.838788 178.271941 
L 77.946284 178.093849 
L 79.05378 177.746955 
L 79.844848 177.513101 
L 80.161276 177.441106 
L 80.794131 177.327151 
L 81.110558 177.404282 
L 82.376268 177.147416 
L 82.850909 177.013776 
L 83.483764 176.844139 
L 84.274833 176.662259 
L 84.59126 176.603698 
L 84.907687 176.502624 
L 85.540542 176.644869 
L 86.173397 176.378706 
L 86.964466 176.494151 
L 87.280893 176.504354 
L 88.704817 176.571893 
L 89.495885 176.440529 
L 89.812313 176.632578 
L 90.12874 176.477145 
L 90.603381 176.569066 
L 91.078022 176.391122 
L 91.552663 176.504612 
L 91.869091 176.165725 
L 92.185518 176.16414 
L 92.818373 176.27126 
L 93.134801 176.174606 
L 93.451228 176.044234 
L 93.925869 176.062607 
L 94.242297 176.057269 
L 94.558724 175.949272 
L 95.191579 175.970995 
L 95.66622 176.152084 
L 96.773716 176.421459 
L 97.564785 176.274582 
L 100.096204 175.534588 
L 100.887273 175.448463 
L 102.46941 175.766537 
L 103.893333 175.685587 
L 104.051547 175.656785 
L 104.526188 175.900927 
L 104.684402 175.81683 
L 104.842616 175.937881 
L 105.159043 175.818813 
L 105.317257 176.08883 
L 105.47547 175.687526 
L 105.633684 172.500865 
L 105.950112 160.938423 
L 107.057608 130.241792 
L 107.215821 115.449355 
L 107.374035 57.980205 
L 107.532249 53.568 
L 107.848676 129.027887 
L 108.165104 152.037719 
L 108.481531 155.960179 
L 108.639745 154.226057 
L 108.797959 153.939029 
L 109.430813 145.083884 
L 109.905455 138.114758 
L 110.696523 121.623193 
L 111.012951 108.318773 
L 111.329378 60.61082 
L 111.487592 60.359576 
L 112.120447 128.446652 
L 112.436874 139.472302 
L 112.753301 142.476051 
L 112.911515 142.423466 
L 113.069729 142.003999 
L 113.54437 138.302334 
L 114.968293 121.164098 
L 115.759362 106.338742 
L 116.550431 86.175044 
L 116.708644 86.557834 
L 117.025072 94.580378 
L 117.657927 113.61218 
L 118.132568 121.69292 
L 118.448995 123.62444 
L 118.765423 123.840249 
L 119.08185 123.528144 
L 119.240064 123.231303 
L 119.556491 121.867314 
L 120.663987 114.169636 
L 121.296842 108.160264 
L 122.087911 104.832804 
L 122.404338 104.456367 
L 122.562552 104.556509 
L 123.35362 106.311706 
L 123.670048 107.141813 
L 123.828262 107.447617 
L 124.935758 111.682697 
L 125.726826 113.22969 
L 126.043254 113.734095 
L 126.359681 113.607402 
L 126.676108 113.376805 
L 126.992536 112.864794 
L 127.15075 112.852807 
L 127.467177 112.22169 
L 127.625391 112.128042 
L 127.941818 111.626265 
L 128.100032 111.72617 
L 128.258246 111.684115 
L 129.207528 109.907589 
L 129.523955 109.435211 
L 129.682169 109.072794 
L 129.840383 109.172303 
L 129.998596 109.500252 
L 130.473238 109.796125 
L 130.789665 110.409528 
L 131.106093 110.981133 
L 131.264306 111.257312 
L 131.42252 111.26323 
L 131.897161 110.623722 
L 132.055375 110.517021 
L 132.371802 110.818693 
L 132.530016 110.7385 
L 132.846443 111.04897 
L 133.321085 110.655909 
L 133.479298 110.641038 
L 133.795726 110.392564 
L 134.112153 110.832355 
L 134.428581 111.179884 
L 134.903222 111.435288 
L 135.219649 111.295284 
L 136.010718 110.297695 
L 136.168931 110.309652 
L 136.327145 110.470187 
L 136.643573 110.455136 
L 136.801786 110.569673 
L 137.118214 110.182435 
L 137.592855 109.287994 
L 137.751069 109.451142 
L 138.067496 109.968311 
L 138.700351 109.94587 
L 139.491419 109.560536 
L 139.807847 109.797966 
L 139.966061 109.718053 
L 140.124274 109.822638 
L 140.282488 110.094994 
L 140.440702 110.016807 
L 140.757129 109.52847 
L 141.073557 109.478366 
L 141.864625 110.406753 
L 142.181053 110.268935 
L 142.49748 110.551468 
L 142.972121 110.251626 
L 143.288549 110.388551 
L 143.604976 110.666516 
L 144.079617 110.562622 
L 145.978182 108.306536 
L 146.294609 108.346077 
L 146.611037 108.41244 
L 146.927464 108.911128 
L 147.402105 109.697676 
L 147.560319 109.753821 
L 147.876746 109.407027 
L 148.193174 109.550583 
L 148.509601 109.520811 
L 148.667815 109.560726 
L 149.458884 110.559463 
L 149.617097 110.567733 
L 150.249952 111.323333 
L 150.408166 111.323638 
L 150.56638 111.172404 
L 150.882807 111.156615 
L 151.832089 110.134314 
L 151.990303 110.049235 
L 152.464944 109.38295 
L 153.097799 109.34176 
L 153.414226 108.892788 
L 153.730654 108.917993 
L 154.047081 108.675904 
L 154.205295 108.756332 
L 154.996364 109.664489 
L 155.312791 109.296733 
L 156.10386 109.133902 
L 156.578501 109.17662 
L 156.736715 109.350074 
L 156.894928 109.348554 
L 157.211356 109.062762 
L 157.369569 109.204631 
L 157.685997 109.146401 
L 159.426348 110.829304 
L 159.584561 110.775088 
L 159.900989 110.206385 
L 160.217416 110.26278 
L 160.533844 110.3822 
L 161.166699 109.587648 
L 161.483126 108.91578 
L 161.957767 108.608832 
L 162.274195 108.721363 
L 162.590622 108.619561 
L 162.748836 108.644087 
L 163.065263 108.031098 
L 163.223477 107.707896 
L 163.539904 107.747883 
L 163.856332 107.894158 
L 164.172759 107.607523 
L 164.805614 108.304314 
L 165.280255 109.838936 
L 165.754896 111.278557 
L 166.071324 111.984572 
L 166.545965 112.383889 
L 166.704179 112.214275 
L 167.020606 112.393972 
L 167.337033 112.735528 
L 167.811675 112.422148 
L 168.602743 111.174147 
L 168.919171 111.171049 
L 169.235598 110.994254 
L 169.552026 111.128824 
L 169.868453 111.176395 
L 170.026667 110.924198 
L 171.45059 106.002887 
L 171.608804 105.764568 
L 171.767018 105.826126 
L 172.7163 108.396607 
L 173.190941 110.052383 
L 173.507368 110.133977 
L 173.98201 111.22639 
L 174.298437 111.97311 
L 174.456651 112.160183 
L 175.089506 111.936862 
L 175.247719 111.918808 
L 175.405933 112.119351 
L 176.197002 111.791615 
L 176.513429 111.887331 
L 176.671643 111.721307 
L 178.411994 107.105288 
L 179.51949 109.179876 
L 179.994131 109.584009 
L 180.943413 110.69559 
L 181.101627 110.655129 
L 181.418054 110.090595 
L 181.576268 110.173859 
L 181.734482 110.072799 
L 181.892695 110.143225 
L 182.209123 110.449497 
L 182.367337 110.453339 
L 182.683764 109.622245 
L 183.316619 108.155342 
L 183.474833 107.870899 
L 184.107687 108.062629 
L 184.582329 108.667562 
L 184.898756 108.742005 
L 185.689825 108.415219 
L 186.006252 108.158602 
L 186.164466 108.262853 
L 186.480893 108.072486 
L 186.797321 108.348886 
L 187.271962 108.835721 
L 188.06303 110.903447 
L 188.221244 110.855375 
L 188.537671 110.347099 
L 188.854099 109.595777 
L 189.170526 109.398806 
L 189.803381 109.415423 
L 190.119809 109.800403 
L 190.278022 109.679535 
L 190.59445 108.819025 
L 191.701946 104.66036 
L 192.018373 104.153502 
L 192.334801 104.105388 
L 192.967656 104.912268 
L 193.60051 106.878901 
L 193.758724 107.119698 
L 194.391579 107.330911 
L 194.708006 107.639076 
L 195.182648 108.67666 
L 195.340861 108.781993 
L 195.815502 109.503844 
L 196.290144 109.727981 
L 196.448357 109.704073 
L 196.764785 109.342603 
L 197.081212 109.571236 
L 197.39764 109.389002 
L 198.188708 108.668686 
L 198.505136 108.51891 
L 199.296204 106.548804 
L 200.087273 107.218633 
L 200.245486 107.300775 
L 200.561914 107.602845 
L 200.878341 107.89806 
L 201.66941 109.026922 
L 201.985837 109.018336 
L 202.302265 109.266588 
L 202.618692 109.816303 
L 203.093333 109.777303 
L 203.567974 110.443072 
L 203.884402 110.236564 
L 204.359043 109.540026 
L 204.833684 110.191075 
L 205.150112 110.643399 
L 205.466539 110.44636 
L 206.415821 109.281808 
L 206.732249 108.381507 
L 206.890463 108.234177 
L 207.048676 108.26595 
L 207.365104 108.45581 
L 207.839745 108.185301 
L 207.997959 108.045329 
L 208.314386 107.407146 
L 208.630813 107.25006 
L 209.421882 107.237685 
L 209.738309 107.486606 
L 210.212951 107.882198 
L 212.427943 110.668068 
L 212.74437 111.203035 
L 213.060797 111.102553 
L 213.377225 110.828442 
L 213.535439 110.778263 
L 214.168293 109.577439 
L 214.959362 110.038022 
L 215.117576 109.990932 
L 215.592217 109.444195 
L 215.750431 109.573319 
L 215.908644 109.511158 
L 216.699713 108.215748 
L 217.332568 107.880263 
L 217.648995 108.167065 
L 217.965423 108.631728 
L 218.123636 108.699081 
L 218.598278 109.196763 
L 219.072919 109.62715 
L 219.863987 110.869763 
L 220.022201 111.038773 
L 220.180415 110.903707 
L 220.496842 110.311555 
L 220.971483 110.574045 
L 221.287911 110.309158 
L 221.604338 109.994162 
L 221.762552 109.967623 
L 222.55362 108.875141 
L 223.344689 108.429337 
L 223.977544 107.22886 
L 224.293971 106.657574 
L 224.610399 106.145692 
L 224.768612 106.227323 
L 225.08504 106.920928 
L 226.508963 111.213715 
L 226.983604 112.128105 
L 227.300032 112.022322 
L 227.932887 111.248269 
L 228.249314 110.999815 
L 228.565742 110.546949 
L 229.198596 109.230455 
L 229.673238 108.539808 
L 230.306093 108.954318 
L 231.413589 108.068435 
L 231.571802 108.062316 
L 231.730016 108.197492 
L 231.88823 108.104785 
L 232.362871 106.734881 
L 232.995726 105.677875 
L 233.470367 106.027424 
L 233.628581 106.017674 
L 233.945008 106.43982 
L 234.261435 106.386696 
L 234.736077 105.94189 
L 235.052504 106.080571 
L 235.210718 106.147947 
L 235.527145 105.848061 
L 235.685359 105.847589 
L 236.001786 106.009773 
L 236.318214 105.778447 
L 236.476427 105.923626 
L 236.951069 107.367312 
L 237.42571 109.282015 
L 237.900351 110.038752 
L 238.216778 109.669971 
L 238.374992 109.70242 
L 238.849633 108.943054 
L 239.324274 107.799887 
L 239.482488 107.489422 
L 239.957129 105.988112 
L 240.589984 105.062657 
L 240.906411 104.892475 
L 241.222839 104.957318 
L 241.381053 105.121907 
L 242.804976 109.469935 
L 242.96319 109.591273 
L 243.121404 109.492482 
L 243.437831 108.934817 
L 243.596045 108.798382 
L 244.070686 108.097606 
L 244.545327 107.762749 
L 244.703541 107.706008 
L 245.019968 107.926234 
L 245.336396 108.231881 
L 245.494609 108.165822 
L 245.811037 108.473102 
L 246.127464 108.127736 
L 246.918533 106.951466 
L 247.551388 105.669668 
L 247.709601 105.443199 
L 248.026029 105.85746 
L 248.817097 107.146885 
L 249.608166 110.281274 
L 249.76638 110.472132 
L 250.241021 110.189244 
L 250.557448 109.932069 
L 250.873876 109.385856 
L 251.032089 109.504618 
L 251.190303 109.424848 
L 251.50673 109.034268 
L 251.664944 109.030881 
L 252.614226 107.743891 
L 253.088868 107.726547 
L 253.405295 108.012918 
L 254.03815 107.642345 
L 254.354577 107.999999 
L 254.987432 108.785601 
L 255.145646 108.879024 
L 255.462073 109.284986 
L 255.936715 109.508596 
L 256.253142 110.173604 
L 256.885997 109.925126 
L 257.518852 109.332339 
L 257.677065 109.282531 
L 258.30992 108.108366 
L 258.626348 107.978899 
L 258.784561 107.700225 
L 258.942775 107.761778 
L 259.259203 108.442754 
L 259.892057 110.584637 
L 260.208485 110.690139 
L 260.84134 110.549176 
L 261.157767 110.144455 
L 263.056332 105.595875 
L 263.372759 105.165092 
L 263.689187 105.61286 
L 264.005614 116.540515 
L 264.638469 133.3859 
L 265.11311 141.68006 
L 265.745965 149.505091 
L 266.220606 153.341136 
L 267.011675 158.190673 
L 267.64453 161.052187 
L 268.910239 165.70794 
L 269.543094 167.295296 
L 270.492376 168.955235 
L 271.441659 170.282917 
L 272.074514 170.791177 
L 272.707368 171.262749 
L 273.023796 171.563146 
L 273.18201 171.626068 
L 273.656651 172.128206 
L 275.080574 172.974946 
L 275.238788 172.960076 
L 275.871643 173.252274 
L 276.504498 173.547067 
L 276.820925 173.475799 
L 277.45378 173.816242 
L 278.403062 174.012006 
L 279.985199 174.544504 
L 280.459841 174.849232 
L 280.934482 174.817516 
L 282.358405 174.848158 
L 282.674833 174.584957 
L 282.99126 174.766404 
L 283.624115 174.511516 
L 284.573397 174.541223 
L 285.048038 174.503473 
L 285.839107 174.373428 
L 286.155534 174.344122 
L 286.471962 174.330163 
L 286.788389 174.371752 
L 287.104817 174.320662 
L 287.895885 174.29658 
L 288.370526 174.357429 
L 288.686954 174.418812 
L 289.003381 174.374243 
L 289.636236 174.248966 
L 289.952663 174.198287 
L 290.269091 174.230175 
L 291.376587 174.676143 
L 292.642297 174.789366 
L 292.958724 174.866357 
L 293.433365 174.770807 
L 294.382648 174.923684 
L 294.857289 175.048216 
L 295.173716 175.262658 
L 295.806571 175.562168 
L 296.59764 175.90663 
L 298.970845 176.935364 
L 299.445486 176.998973 
L 299.6037 176.983249 
L 300.078341 177.303937 
L 300.394769 177.329477 
L 301.660478 177.448197 
L 302.451547 177.817958 
L 303.242616 177.96195 
L 303.717257 177.956158 
L 304.033684 177.990153 
L 304.350112 177.950282 
L 304.666539 177.914878 
L 305.774035 177.921108 
L 306.40689 178.130749 
L 306.881531 178.030675 
L 307.356172 177.95725 
L 307.6726 178.014563 
L 308.780096 178.346935 
L 309.412951 178.336608 
L 310.204019 178.663587 
L 311.311515 179.238097 
L 311.786156 179.286048 
L 312.893652 179.198751 
L 313.21008 179.277422 
L 313.842935 179.300491 
L 314.159362 179.295132 
L 314.634003 179.105438 
L 315.425072 179.037834 
L 316.057927 179.011902 
L 318.431132 179.475173 
L 318.905774 179.556916 
L 319.855056 179.596234 
L 320.171483 179.571079 
L 321.437193 179.798328 
L 323.177544 179.840767 
L 324.443254 179.504492 
L 325.867177 179.038693 
L 326.341818 179.037573 
L 326.658246 179.001482 
L 326.974673 178.866719 
L 327.923955 178.879993 
L 328.715024 179.180147 
L 329.82252 179.488936 
L 330.455375 179.441644 
L 330.613589 179.407012 
L 330.930016 179.481768 
L 331.246443 179.573729 
L 331.721085 179.736427 
L 332.512153 179.732183 
L 332.828581 179.775242 
L 334.09429 179.911969 
L 335.36 180.134074 
L 336.151069 180.406388 
L 336.467496 180.340044 
L 336.942137 180.555115 
L 337.891419 180.666002 
L 338.366061 180.635244 
L 339.157129 180.814304 
L 339.63177 181.071059 
L 340.422839 181.181432 
L 340.739266 181.243368 
L 342.16319 180.931072 
L 342.479617 180.656255 
L 343.112472 180.792616 
L 343.587113 180.768225 
L 344.852823 180.758164 
L 345.327464 180.567219 
L 345.802105 180.67307 
L 346.276746 180.743753 
L 346.751388 180.853276 
L 347.067815 180.766876 
L 349.441021 180.737389 
L 350.390303 181.152007 
L 350.70673 181.086717 
L 351.023158 181.17709 
L 352.447081 180.83477 
L 353.079936 181.136193 
L 353.554577 181.213543 
L 353.712791 181.299472 
L 354.820287 180.945858 
L 355.136715 181.14316 
L 355.769569 181.123645 
L 355.927783 181.041029 
L 356.402424 181.1683 
L 356.718852 181.230511 
L 357.035279 181.192458 
L 357.668134 181.246154 
L 358.300989 181.219663 
L 358.617416 181.188636 
L 358.933844 181.269714 
L 359.883126 181.141365 
L 360.357767 181.251953 
L 360.674195 181.410672 
L 361.148836 181.413974 
L 361.465263 181.415986 
L 362.098118 181.17666 
L 362.889187 181.11496 
L 363.363828 181.331594 
L 364.154896 181.637973 
L 364.471324 181.56272 
L 365.262392 181.575585 
L 366.528102 181.429338 
L 367.635598 181.579366 
L 368.268453 181.69264 
L 368.743094 181.546736 
L 369.217735 181.580155 
L 370.325231 181.547864 
L 370.958086 181.351186 
L 371.590941 181.454243 
L 372.065582 181.558074 
L 372.698437 181.620164 
L 373.331292 181.365293 
L 373.647719 181.518117 
L 374.12236 181.337436 
L 374.755215 181.4892 
L 375.229856 181.451468 
L 376.65378 181.444949 
L 377.761276 181.689119 
L 378.077703 181.684277 
L 378.710558 181.647323 
L 379.976268 182.006879 
L 380.450909 181.946742 
L 380.92555 182.013096 
L 381.241978 181.858995 
L 381.716619 181.886195 
L 383.298756 181.502902 
L 384.089825 181.561791 
L 385.039107 181.968355 
L 385.355534 182.003126 
L 385.671962 181.906448 
L 385.988389 181.922541 
L 386.46303 181.669273 
L 387.095885 181.806243 
L 387.254099 181.853412 
L 387.570526 181.743016 
L 388.203381 182.035538 
L 388.678022 181.977268 
L 389.627305 181.888286 
L 390.101946 182.020254 
L 390.576587 181.994 
L 390.893014 181.967517 
L 391.209442 182.093648 
L 391.842297 181.935711 
L 392.158724 181.981296 
L 392.633365 181.847408 
L 394.057289 181.903717 
L 394.373716 181.782 
L 395.164785 181.872064 
L 395.639426 181.910868 
L 395.955853 181.806423 
L 396.272281 181.833521 
L 396.905136 181.826868 
L 398.487273 181.787458 
L 398.487273 181.787458 
" style="fill:none;stroke:#000000;stroke-linecap:square;stroke-width:1.5;"/>
   </g>
   <g id="patch_3">
    <path d="M 57.6 307.584 
L 57.6 41.472 
" style="fill:none;stroke:#000000;stroke-linecap:square;stroke-linejoin:miter;stroke-width:0.8;"/>
   </g>
   <g id="patch_4">
    <path d="M 414.72 307.584 
L 414.72 41.472 
" style="fill:none;stroke:#000000;stroke-linecap:square;stroke-linejoin:miter;stroke-width:0.8;"/>
   </g>
   <g id="patch_5">
    <path d="M 57.6 307.584 
L 414.72 307.584 
" style="fill:none;stroke:#000000;stroke-linecap:square;stroke-linejoin:miter;stroke-width:0.8;"/>
   </g>
   <g id="patch_6">
    <path d="M 57.6 41.472 
L 414.72 41.472 
" style="fill:none;stroke:#000000;stroke-linecap:square;stroke-linejoin:miter;stroke-width:0.8;"/>
   </g>
  </g>
 </g>
 <defs>
  <clipPath id="p0bf530c6af">
   <rect height="266.112" width="357.12" x="57.6" y="41.472"/>
  </clipPath>
 </defs>
</svg>
