<?xml version="1.0" encoding="utf-8" standalone="no"?>
<!DOCTYPE svg PUBLIC "-//W3C//DTD SVG 1.1//EN"
  "http://www.w3.org/Graphics/SVG/1.1/DTD/svg11.dtd">
<svg xmlns:xlink="http://www.w3.org/1999/xlink" width="265.704687pt" height="197.398125pt" viewBox="0 0 265.704687 197.398125" xmlns="http://www.w3.org/2000/svg" version="1.1">
 <metadata>
  <rdf:RDF xmlns:dc="http://purl.org/dc/elements/1.1/" xmlns:cc="http://creativecommons.org/ns#" xmlns:rdf="http://www.w3.org/1999/02/22-rdf-syntax-ns#">
   <cc:Work>
    <dc:type rdf:resource="http://purl.org/dc/dcmitype/StillImage"/>
    <dc:date>2024-09-09T12:38:48.896444</dc:date>
    <dc:format>image/svg+xml</dc:format>
    <dc:creator>
     <cc:Agent>
      <dc:title>Matplotlib v3.9.2, https://matplotlib.org/</dc:title>
     </cc:Agent>
    </dc:creator>
   </cc:Work>
  </rdf:RDF>
 </metadata>
 <defs>
  <style type="text/css">*{stroke-linejoin: round; stroke-linecap: butt}</style>
 </defs>
 <g id="figure_1">
  <g id="patch_1">
   <path d="M 0 197.398125 
L 265.704687 197.398125 
L 265.704687 0 
L 0 0 
z
" style="fill: #ffffff"/>
  </g>
  <g id="axes_1">
   <g id="patch_2">
    <path d="M 35.304688 173.52 
L 258.504687 173.52 
L 258.504687 7.2 
L 35.304688 7.2 
z
" style="fill: #ffffff"/>
   </g>
   <g id="matplotlib.axis_1">
    <g id="xtick_1">
     <g id="line2d_1">
      <defs>
       <path id="m74b5b8ecdd" d="M 0 0 
L 0 3.5 
" style="stroke: #000000; stroke-width: 0.8"/>
      </defs>
      <g>
       <use xlink:href="#m74b5b8ecdd" x="65.409722" y="173.52" style="stroke: #000000; stroke-width: 0.8"/>
      </g>
     </g>
     <g id="text_1">
      <!-- 0.1 -->
      <g transform="translate(57.45816 188.118438) scale(0.1 -0.1)">
       <defs>
        <path id="DejaVuSans-30" d="M 2034 4250 
Q 1547 4250 1301 3770 
Q 1056 3291 1056 2328 
Q 1056 1369 1301 889 
Q 1547 409 2034 409 
Q 2525 409 2770 889 
Q 3016 1369 3016 2328 
Q 3016 3291 2770 3770 
Q 2525 4250 2034 4250 
z
M 2034 4750 
Q 2819 4750 3233 4129 
Q 3647 3509 3647 2328 
Q 3647 1150 3233 529 
Q 2819 -91 2034 -91 
Q 1250 -91 836 529 
Q 422 1150 422 2328 
Q 422 3509 836 4129 
Q 1250 4750 2034 4750 
z
" transform="scale(0.015625)"/>
        <path id="DejaVuSans-2e" d="M 684 794 
L 1344 794 
L 1344 0 
L 684 0 
L 684 794 
z
" transform="scale(0.015625)"/>
        <path id="DejaVuSans-31" d="M 794 531 
L 1825 531 
L 1825 4091 
L 703 3866 
L 703 4441 
L 1819 4666 
L 2450 4666 
L 2450 531 
L 3481 531 
L 3481 0 
L 794 0 
L 794 531 
z
" transform="scale(0.015625)"/>
       </defs>
       <use xlink:href="#DejaVuSans-30"/>
       <use xlink:href="#DejaVuSans-2e" x="63.623047"/>
       <use xlink:href="#DejaVuSans-31" x="95.410156"/>
      </g>
     </g>
    </g>
    <g id="xtick_2">
     <g id="line2d_2">
      <g>
       <use xlink:href="#m74b5b8ecdd" x="98.675689" y="173.52" style="stroke: #000000; stroke-width: 0.8"/>
      </g>
     </g>
     <g id="text_2">
      <!-- 0.2 -->
      <g transform="translate(90.724126 188.118438) scale(0.1 -0.1)">
       <defs>
        <path id="DejaVuSans-32" d="M 1228 531 
L 3431 531 
L 3431 0 
L 469 0 
L 469 531 
Q 828 903 1448 1529 
Q 2069 2156 2228 2338 
Q 2531 2678 2651 2914 
Q 2772 3150 2772 3378 
Q 2772 3750 2511 3984 
Q 2250 4219 1831 4219 
Q 1534 4219 1204 4116 
Q 875 4013 500 3803 
L 500 4441 
Q 881 4594 1212 4672 
Q 1544 4750 1819 4750 
Q 2544 4750 2975 4387 
Q 3406 4025 3406 3419 
Q 3406 3131 3298 2873 
Q 3191 2616 2906 2266 
Q 2828 2175 2409 1742 
Q 1991 1309 1228 531 
z
" transform="scale(0.015625)"/>
       </defs>
       <use xlink:href="#DejaVuSans-30"/>
       <use xlink:href="#DejaVuSans-2e" x="63.623047"/>
       <use xlink:href="#DejaVuSans-32" x="95.410156"/>
      </g>
     </g>
    </g>
    <g id="xtick_3">
     <g id="line2d_3">
      <g>
       <use xlink:href="#m74b5b8ecdd" x="131.941656" y="173.52" style="stroke: #000000; stroke-width: 0.8"/>
      </g>
     </g>
     <g id="text_3">
      <!-- 0.3 -->
      <g transform="translate(123.990093 188.118438) scale(0.1 -0.1)">
       <defs>
        <path id="DejaVuSans-33" d="M 2597 2516 
Q 3050 2419 3304 2112 
Q 3559 1806 3559 1356 
Q 3559 666 3084 287 
Q 2609 -91 1734 -91 
Q 1441 -91 1130 -33 
Q 819 25 488 141 
L 488 750 
Q 750 597 1062 519 
Q 1375 441 1716 441 
Q 2309 441 2620 675 
Q 2931 909 2931 1356 
Q 2931 1769 2642 2001 
Q 2353 2234 1838 2234 
L 1294 2234 
L 1294 2753 
L 1863 2753 
Q 2328 2753 2575 2939 
Q 2822 3125 2822 3475 
Q 2822 3834 2567 4026 
Q 2313 4219 1838 4219 
Q 1578 4219 1281 4162 
Q 984 4106 628 3988 
L 628 4550 
Q 988 4650 1302 4700 
Q 1616 4750 1894 4750 
Q 2613 4750 3031 4423 
Q 3450 4097 3450 3541 
Q 3450 3153 3228 2886 
Q 3006 2619 2597 2516 
z
" transform="scale(0.015625)"/>
       </defs>
       <use xlink:href="#DejaVuSans-30"/>
       <use xlink:href="#DejaVuSans-2e" x="63.623047"/>
       <use xlink:href="#DejaVuSans-33" x="95.410156"/>
      </g>
     </g>
    </g>
    <g id="xtick_4">
     <g id="line2d_4">
      <g>
       <use xlink:href="#m74b5b8ecdd" x="165.207622" y="173.52" style="stroke: #000000; stroke-width: 0.8"/>
      </g>
     </g>
     <g id="text_4">
      <!-- 0.4 -->
      <g transform="translate(157.25606 188.118438) scale(0.1 -0.1)">
       <defs>
        <path id="DejaVuSans-34" d="M 2419 4116 
L 825 1625 
L 2419 1625 
L 2419 4116 
z
M 2253 4666 
L 3047 4666 
L 3047 1625 
L 3713 1625 
L 3713 1100 
L 3047 1100 
L 3047 0 
L 2419 0 
L 2419 1100 
L 313 1100 
L 313 1709 
L 2253 4666 
z
" transform="scale(0.015625)"/>
       </defs>
       <use xlink:href="#DejaVuSans-30"/>
       <use xlink:href="#DejaVuSans-2e" x="63.623047"/>
       <use xlink:href="#DejaVuSans-34" x="95.410156"/>
      </g>
     </g>
    </g>
    <g id="xtick_5">
     <g id="line2d_5">
      <g>
       <use xlink:href="#m74b5b8ecdd" x="198.473589" y="173.52" style="stroke: #000000; stroke-width: 0.8"/>
      </g>
     </g>
     <g id="text_5">
      <!-- 0.5 -->
      <g transform="translate(190.522027 188.118438) scale(0.1 -0.1)">
       <defs>
        <path id="DejaVuSans-35" d="M 691 4666 
L 3169 4666 
L 3169 4134 
L 1269 4134 
L 1269 2991 
Q 1406 3038 1543 3061 
Q 1681 3084 1819 3084 
Q 2600 3084 3056 2656 
Q 3513 2228 3513 1497 
Q 3513 744 3044 326 
Q 2575 -91 1722 -91 
Q 1428 -91 1123 -41 
Q 819 9 494 109 
L 494 744 
Q 775 591 1075 516 
Q 1375 441 1709 441 
Q 2250 441 2565 725 
Q 2881 1009 2881 1497 
Q 2881 1984 2565 2268 
Q 2250 2553 1709 2553 
Q 1456 2553 1204 2497 
Q 953 2441 691 2322 
L 691 4666 
z
" transform="scale(0.015625)"/>
       </defs>
       <use xlink:href="#DejaVuSans-30"/>
       <use xlink:href="#DejaVuSans-2e" x="63.623047"/>
       <use xlink:href="#DejaVuSans-35" x="95.410156"/>
      </g>
     </g>
    </g>
    <g id="xtick_6">
     <g id="line2d_6">
      <g>
       <use xlink:href="#m74b5b8ecdd" x="231.739556" y="173.52" style="stroke: #000000; stroke-width: 0.8"/>
      </g>
     </g>
     <g id="text_6">
      <!-- 0.6 -->
      <g transform="translate(223.787993 188.118438) scale(0.1 -0.1)">
       <defs>
        <path id="DejaVuSans-36" d="M 2113 2584 
Q 1688 2584 1439 2293 
Q 1191 2003 1191 1497 
Q 1191 994 1439 701 
Q 1688 409 2113 409 
Q 2538 409 2786 701 
Q 3034 994 3034 1497 
Q 3034 2003 2786 2293 
Q 2538 2584 2113 2584 
z
M 3366 4563 
L 3366 3988 
Q 3128 4100 2886 4159 
Q 2644 4219 2406 4219 
Q 1781 4219 1451 3797 
Q 1122 3375 1075 2522 
Q 1259 2794 1537 2939 
Q 1816 3084 2150 3084 
Q 2853 3084 3261 2657 
Q 3669 2231 3669 1497 
Q 3669 778 3244 343 
Q 2819 -91 2113 -91 
Q 1303 -91 875 529 
Q 447 1150 447 2328 
Q 447 3434 972 4092 
Q 1497 4750 2381 4750 
Q 2619 4750 2861 4703 
Q 3103 4656 3366 4563 
z
" transform="scale(0.015625)"/>
       </defs>
       <use xlink:href="#DejaVuSans-30"/>
       <use xlink:href="#DejaVuSans-2e" x="63.623047"/>
       <use xlink:href="#DejaVuSans-36" x="95.410156"/>
      </g>
     </g>
    </g>
   </g>
   <g id="matplotlib.axis_2">
    <g id="ytick_1">
     <g id="line2d_7">
      <defs>
       <path id="m2ab2033308" d="M 0 0 
L -3.5 0 
" style="stroke: #000000; stroke-width: 0.8"/>
      </defs>
      <g>
       <use xlink:href="#m2ab2033308" x="35.304688" y="154.132165" style="stroke: #000000; stroke-width: 0.8"/>
      </g>
     </g>
     <g id="text_7">
      <!-- −60 -->
      <g transform="translate(7.2 157.931384) scale(0.1 -0.1)">
       <defs>
        <path id="DejaVuSans-2212" d="M 678 2272 
L 4684 2272 
L 4684 1741 
L 678 1741 
L 678 2272 
z
" transform="scale(0.015625)"/>
       </defs>
       <use xlink:href="#DejaVuSans-2212"/>
       <use xlink:href="#DejaVuSans-36" x="83.789062"/>
       <use xlink:href="#DejaVuSans-30" x="147.412109"/>
      </g>
     </g>
    </g>
    <g id="ytick_2">
     <g id="line2d_8">
      <g>
       <use xlink:href="#m2ab2033308" x="35.304688" y="127.077818" style="stroke: #000000; stroke-width: 0.8"/>
      </g>
     </g>
     <g id="text_8">
      <!-- −40 -->
      <g transform="translate(7.2 130.877037) scale(0.1 -0.1)">
       <use xlink:href="#DejaVuSans-2212"/>
       <use xlink:href="#DejaVuSans-34" x="83.789062"/>
       <use xlink:href="#DejaVuSans-30" x="147.412109"/>
      </g>
     </g>
    </g>
    <g id="ytick_3">
     <g id="line2d_9">
      <g>
       <use xlink:href="#m2ab2033308" x="35.304688" y="100.023471" style="stroke: #000000; stroke-width: 0.8"/>
      </g>
     </g>
     <g id="text_9">
      <!-- −20 -->
      <g transform="translate(7.2 103.82269) scale(0.1 -0.1)">
       <use xlink:href="#DejaVuSans-2212"/>
       <use xlink:href="#DejaVuSans-32" x="83.789062"/>
       <use xlink:href="#DejaVuSans-30" x="147.412109"/>
      </g>
     </g>
    </g>
    <g id="ytick_4">
     <g id="line2d_10">
      <g>
       <use xlink:href="#m2ab2033308" x="35.304688" y="72.969124" style="stroke: #000000; stroke-width: 0.8"/>
      </g>
     </g>
     <g id="text_10">
      <!-- 0 -->
      <g transform="translate(21.942187 76.768343) scale(0.1 -0.1)">
       <use xlink:href="#DejaVuSans-30"/>
      </g>
     </g>
    </g>
    <g id="ytick_5">
     <g id="line2d_11">
      <g>
       <use xlink:href="#m2ab2033308" x="35.304688" y="45.914777" style="stroke: #000000; stroke-width: 0.8"/>
      </g>
     </g>
     <g id="text_11">
      <!-- 20 -->
      <g transform="translate(15.579687 49.713996) scale(0.1 -0.1)">
       <use xlink:href="#DejaVuSans-32"/>
       <use xlink:href="#DejaVuSans-30" x="63.623047"/>
      </g>
     </g>
    </g>
    <g id="ytick_6">
     <g id="line2d_12">
      <g>
       <use xlink:href="#m2ab2033308" x="35.304688" y="18.86043" style="stroke: #000000; stroke-width: 0.8"/>
      </g>
     </g>
     <g id="text_12">
      <!-- 40 -->
      <g transform="translate(15.579687 22.659648) scale(0.1 -0.1)">
       <use xlink:href="#DejaVuSans-34"/>
       <use xlink:href="#DejaVuSans-30" x="63.623047"/>
      </g>
     </g>
    </g>
   </g>
   <g id="line2d_13">
    <path d="M 45.450142 162.679646 
L 48.829964 162.612016 
L 49.082786 161.166302 
L 49.442058 159.585307 
L 49.894475 158.139592 
L 50.15395 157.319507 
L 50.167256 157.327964 
L 51.650918 153.810901 
L 51.664225 153.819353 
L 51.744063 153.717893 
L 51.910393 153.362809 
L 51.917046 153.371267 
L 51.970272 153.269807 
L 52.169867 152.847088 
L 52.349504 152.568091 
L 52.356157 152.584996 
L 52.402729 152.424364 
L 52.409382 152.424364 
L 52.469261 152.314456 
L 52.768655 151.849455 
L 52.775308 151.86637 
L 52.828533 151.748 
L 52.994863 151.452098 
L 53.014823 151.485913 
L 53.068048 151.350638 
L 53.074702 151.359101 
L 53.094661 151.367553 
L 53.400708 150.818012 
L 53.420668 150.843374 
L 53.460587 150.758829 
L 53.4872 150.750372 
L 53.733368 150.386835 
L 53.740021 150.412198 
L 53.806553 150.26847 
L 53.813206 150.276918 
L 53.959576 150.023288 
L 53.96623 150.040193 
L 53.986189 150.074018 
L 54.046068 149.964111 
L 54.052721 149.964111 
L 54.318849 149.575202 
L 54.325502 149.583659 
L 54.365421 149.473747 
L 54.491832 149.296205 
L 54.385381 149.490657 
L 54.511791 149.33002 
L 54.59163 149.237022 
L 54.731347 149.00875 
L 54.738 149.017208 
L 54.851104 148.924205 
L 55.017434 148.704391 
L 55.0507 148.721296 
L 55.083966 148.628299 
L 55.097272 148.628299 
L 55.243643 148.433841 
L 55.3634 148.323939 
L 56.15513 147.444671 
L 56.168437 147.461576 
L 56.17509 147.495401 
L 56.261581 147.368584 
L 56.268234 147.385488 
L 56.32146 147.284039 
L 56.334766 147.292491 
L 56.454524 147.165674 
L 56.474483 147.191036 
L 57.146456 146.497773 
L 57.153109 146.523135 
L 57.226294 146.387855 
L 57.612179 146.032776 
L 57.618833 146.058139 
L 57.625486 146.075049 
L 57.698671 145.990499 
L 57.711977 145.998956 
L 57.865001 145.829861 
L 57.871654 145.846777 
L 57.938186 145.736869 
L 57.944839 145.745322 
L 58.084556 145.643867 
L 58.091209 145.652319 
L 58.117822 145.669229 
L 58.144435 145.593137 
L 58.184354 145.593137 
L 58.317418 145.483235 
L 58.630118 145.246505 
L 58.636771 145.263415 
L 58.69665 145.170418 
L 58.71661 145.178865 
L 59.035963 144.925236 
L 59.055922 144.975966 
L 59.129108 144.874511 
L 59.142414 144.908326 
L 59.288784 144.764604 
L 59.455114 144.663149 
L 59.63475 144.485602 
L 59.701282 144.468692 
L 59.674669 144.443324 
L 59.721242 144.443324 
L 59.854306 144.316512 
L 59.860959 144.358779 
L 59.940797 144.25733 
L 59.960757 144.282692 
L 60.127087 144.172785 
L 60.419827 143.95297 
L 60.433133 143.98679 
L 60.486359 143.88533 
L 60.519625 143.910693 
L 60.772446 143.741608 
L 60.7791 143.750066 
L 60.90551 143.775428 
L 60.805712 143.716246 
L 60.918817 143.750066 
L 61.045227 143.589428 
L 61.05188 143.631701 
L 61.337968 143.352704 
L 61.371234 143.403429 
L 61.510951 143.293522 
L 61.657321 143.259696 
L 61.53091 143.318884 
L 61.663974 143.268159 
L 61.677281 143.293522 
L 61.743813 143.200519 
L 61.763772 143.242797 
L 61.903489 143.099064 
L 61.936755 143.175152 
L 62.00994 143.090612 
L 62.103085 143.141342 
L 62.129698 143.048334 
L 62.402479 142.955342 
L 62.502277 142.921522 
L 62.422438 142.980705 
L 62.515583 142.92998 
L 62.641994 142.913065 
L 62.775058 142.845435 
L 62.795017 142.870797 
L 62.814977 142.913065 
L 62.868202 142.845435 
L 62.901468 142.870797 
L 63.047838 142.752433 
L 63.061145 142.760885 
L 63.074451 142.7778 
L 63.200862 142.74398 
L 63.207515 142.769343 
L 63.2807 142.693255 
L 63.30066 142.701703 
L 63.540175 142.600248 
L 63.693198 142.507256 
L 63.713158 142.549523 
L 63.77969 142.456526 
L 63.792996 142.464978 
L 63.806303 142.439616 
L 63.886141 142.422711 
L 63.992592 142.312798 
L 64.019205 142.346618 
L 64.2188 142.262068 
L 64.331905 142.194439 
L 64.265373 142.278984 
L 64.338558 142.211349 
L 64.358518 142.228254 
L 64.40509 142.135256 
L 64.418396 142.152161 
L 64.544807 142.101436 
L 64.598033 142.101436 
L 64.637952 142.050706 
L 64.664564 142.092984 
L 64.764362 142.059169 
L 64.771016 142.076069 
L 64.830894 141.957714 
L 64.850854 141.983077 
L 64.877467 141.949257 
L 64.970611 141.983077 
L 65.090369 141.949257 
L 65.243392 141.839344 
L 65.276658 141.881622 
L 65.383109 141.898532 
L 65.389763 141.847807 
L 65.569399 141.746352 
L 65.409722 141.864707 
L 65.576052 141.771715 
L 65.629277 141.813982 
L 65.682503 141.771715 
L 65.795607 141.68717 
L 65.808914 141.729437 
L 65.902058 141.763262 
L 65.828873 141.712532 
L 65.915365 141.704075 
L 66.015163 141.644897 
L 66.041775 141.67026 
L 66.13492 141.67026 
L 66.101654 141.627982 
L 66.15488 141.661807 
L 66.374435 141.53499 
L 66.381088 141.551895 
L 66.44762 141.568805 
L 66.480886 141.518075 
L 66.607297 141.425083 
L 66.640563 141.509628 
L 66.727054 141.458898 
L 66.893384 141.41662 
L 66.913344 141.391258 
L 67.033101 141.41662 
L 67.345801 141.306718 
L 67.478865 141.255988 
L 67.505478 141.28135 
L 67.818178 141.179896 
L 67.871404 141.23062 
L 67.944589 141.137628 
L 68.064346 141.146081 
L 68.070999 141.120718 
L 68.230676 140.993896 
L 68.084306 141.137628 
L 68.263942 141.044626 
L 68.297208 141.069988 
L 68.310514 141.010811 
L 68.370393 141.019258 
L 68.53007 140.968533 
L 68.536723 140.985449 
L 68.703053 141.053078 
L 68.709706 141.044626 
L 68.829463 140.976991 
L 69.30184 140.867079 
L 69.408291 140.807896 
L 69.428251 140.816354 
L 69.807483 140.714904 
L 69.847402 140.681079 
L 69.874015 140.757171 
L 69.913934 140.740267 
L 70.126836 140.604992 
L 70.133489 140.647269 
L 70.200021 140.571172 
L 70.233287 140.579629 
L 71.038324 140.469717 
L 71.098202 140.520447 
L 71.171388 140.469717 
L 71.277839 140.46127 
L 71.284492 140.435907 
L 71.424209 140.376725 
L 71.324411 140.469717 
L 71.437515 140.418992 
L 71.943158 140.317537 
L 72.056262 140.216088 
L 72.082875 140.258355 
L 72.149407 140.216088 
L 72.195979 140.258355 
L 72.269164 140.20763 
L 72.315737 140.224545 
L 72.402228 140.199183 
L 72.335696 140.199183 
L 72.408882 140.182268 
L 72.442147 140.232992 
L 72.521986 140.148453 
L 72.65505 140.097723 
L 72.575211 140.199183 
L 72.668356 140.12309 
L 72.788114 140.216088 
L 72.808073 140.199183 
L 72.907871 140.114638 
L 72.941137 140.156905 
L 72.987709 140.097723 
L 73.054241 140.131538 
L 73.193958 140.12309 
L 73.207265 140.173815 
L 73.227224 140.106175 
L 73.300409 140.12309 
L 73.406861 140.063908 
L 73.420167 140.08927 
L 73.500005 140.131538 
L 73.539924 140.097723 
L 73.659682 140.046993 
L 75.349593 139.954001 
L 75.356246 139.928638 
L 75.436084 140.046993 
L 75.529229 140.030093 
L 75.482657 139.987821 
L 75.535882 139.996268 
L 75.595761 139.954001 
L 75.562495 140.038545 
L 75.648987 139.996268 
L 76.26108 139.886366 
L 76.320959 139.877908 
L 76.360878 139.928638 
L 76.420757 139.928638 
L 76.454023 139.877908 
L 76.567127 139.852546 
L 76.480636 139.903276 
L 76.580434 139.877908 
L 76.660272 139.920175 
L 76.686885 139.860998 
L 76.826602 139.827183 
L 76.839908 139.844088 
L 76.933053 139.869451 
L 76.959666 139.827183 
L 77.046157 139.784906 
L 76.972972 139.844088 
L 77.07277 139.810268 
L 77.199181 139.852546 
L 77.305632 139.844088 
L 77.21914 139.869451 
L 77.325591 139.860998 
L 77.372164 139.835631 
L 77.445349 139.877908 
L 77.518534 139.793363 
L 77.57176 139.844088 
L 77.658251 139.886366 
L 77.605026 139.818731 
L 77.691517 139.852546 
L 77.811275 139.793363 
L 77.937685 139.869451 
L 78.084055 139.784906 
L 78.110668 139.818731 
L 78.130628 139.801821 
L 78.303611 139.903276 
L 78.430022 139.818731 
L 78.50986 139.869451 
L 78.549779 139.852546 
L 78.662883 139.818731 
L 81.270935 139.708813 
L 81.397346 139.691914 
L 81.310854 139.759543 
L 81.403999 139.708813 
L 81.423959 139.734181 
L 81.49049 139.666546 
L 81.557022 139.641184 
L 81.517103 139.700366 
L 81.590288 139.683451 
L 81.603595 139.734181 
L 81.696739 139.658088 
L 81.803191 139.708813 
L 81.710046 139.649641 
L 81.82315 139.700366 
L 82.002786 139.624274 
L 82.00944 139.632726 
L 82.122544 139.658088 
L 82.029399 139.615821 
L 82.129197 139.649641 
L 82.235648 139.649641 
L 82.169116 139.683451 
L 82.248954 139.666546 
L 82.32214 139.691914 
L 82.368712 139.641184 
L 83.859027 139.573544 
L 83.972132 139.522819 
L 85.342689 139.624274 
L 85.475753 139.708813 
L 85.622124 139.700366 
L 85.715268 139.708813 
L 85.675349 139.641184 
L 85.741881 139.683451 
L 85.80176 139.708813 
L 85.854985 139.658088 
L 86.001356 139.742638 
L 86.034622 139.708813 
L 86.074541 139.649641 
L 86.061234 139.717276 
L 86.141073 139.691914 
L 86.234217 139.784906 
L 86.26083 139.725728 
L 86.393894 139.742638 
L 86.513651 139.649641 
L 86.520305 139.658088 
L 86.59349 139.708813 
L 86.633409 139.666546 
L 86.706594 139.725728 
L 86.73986 139.683451 
L 86.766473 139.675004 
L 86.866271 139.742638 
L 87.245503 139.641184 
L 87.265462 139.607364 
L 87.278769 139.658088 
L 87.351954 139.658088 
L 87.757799 139.768001 
L 87.850943 139.818731 
L 87.877556 139.793363 
L 88.110418 139.903276 
L 88.170297 139.894813 
L 88.190256 139.827183 
L 88.542875 139.911728 
L 88.582795 139.970905 
L 88.65598 139.928638 
L 88.709205 139.911728 
L 88.762431 139.945543 
L 89.487629 139.844088 
L 89.527548 139.886366 
L 89.600733 139.852546 
L 91.709795 139.742638 
L 91.769674 139.793363 
L 91.829553 139.717276 
L 91.922698 139.759543 
L 91.94931 139.700366 
L 92.022496 139.691914 
L 91.96927 139.725728 
L 92.055761 139.734181 
L 92.182172 139.784906 
L 92.195479 139.751091 
L 92.228745 139.700366 
L 92.30193 139.751091 
L 92.368462 139.776458 
L 92.335196 139.708813 
L 92.415034 139.759543 
L 92.4483 139.717276 
L 92.521485 139.776458 
L 92.701121 139.675004 
L 92.714428 139.700366 
L 92.814226 139.641184 
L 92.92733 139.725728 
L 93.033781 139.607364 
L 93.060394 139.624274 
L 93.166845 139.615821 
L 93.133579 139.565096 
L 93.173498 139.598906 
L 93.366441 139.514366 
L 93.373094 139.522819 
L 93.472892 139.556639 
L 93.426319 139.505914 
L 93.492851 139.548181 
L 93.512811 139.573544 
L 93.705753 139.429822 
L 93.785592 139.514366 
L 93.825511 139.463642 
L 93.931962 139.421364 
L 93.872083 139.505914 
L 93.938615 139.446726 
L 94.051719 139.489004 
L 94.184783 139.404459 
L 94.218049 139.497451 
L 94.297888 139.438279 
L 94.377726 139.362182 
L 94.410992 139.404459 
L 94.437605 139.472089 
L 94.524096 139.446726 
L 94.557362 139.421364 
L 94.583975 139.463642 
L 94.630547 139.455184 
L 97.577912 139.539729 
L 97.671057 139.505914 
L 97.697669 139.581996 
L 99.327702 139.497451 
L 99.420847 139.480552 
L 99.367621 139.531276 
L 99.434153 139.497451 
L 99.55391 139.548181 
L 99.560564 139.531276 
L 99.693627 139.522819 
L 99.793425 139.565096 
L 99.813385 139.556639 
L 99.859957 139.497451 
L 99.919836 139.581996 
L 100.092819 139.539729 
L 100.299068 139.666546 
L 100.319028 139.649641 
L 100.452092 139.624274 
L 100.458745 139.649641 
L 102.122043 139.759543 
L 102.268413 139.784906 
L 102.321639 139.751091 
L 102.361558 139.827183 
L 102.374864 139.784906 
L 102.481315 139.801821 
L 102.401477 139.768001 
L 102.494622 139.793363 
L 103.925058 139.903276 
L 104.051469 139.979363 
L 104.164573 139.928638 
L 104.171227 139.962453 
L 104.457314 140.063908 
L 104.477273 140.114638 
L 104.517193 140.02163 
L 104.563765 140.046993 
L 104.923037 140.114638 
L 104.936344 140.173815 
L 104.976263 140.063908 
L 105.036142 140.12309 
L 105.774646 140.030093 
L 105.901057 139.962453 
L 106.007508 140.02163 
L 106.027468 139.987821 
L 106.167185 139.886366 
L 106.326861 139.700366 
L 106.340168 139.708813 
L 106.346821 139.734181 
L 106.373434 139.666546 
L 106.439966 139.658088 
L 106.626255 139.573544 
L 106.659521 139.607364 
L 106.746012 139.522819 
L 106.839157 139.531276 
L 106.772625 139.480552 
L 106.852464 139.522819 
L 106.952261 139.514366 
L 106.899036 139.556639 
L 106.958915 139.531276 
L 107.065366 139.539729 
L 106.985527 139.480552 
L 107.078672 139.505914 
L 107.19843 139.489004 
L 107.205083 139.505914 
L 107.271615 139.548181 
L 107.318187 139.497451 
L 107.411332 139.463642 
L 107.351453 139.446726 
L 107.417985 139.446726 
L 107.504476 139.429822 
L 107.451251 139.480552 
L 107.524436 139.489004 
L 109.187734 139.590459 
L 109.274226 139.624274 
L 109.214347 139.565096 
L 109.300839 139.598906 
L 109.440556 139.581996 
L 109.327451 139.641184 
L 109.447209 139.590459 
L 109.57362 139.691914 
L 109.586926 139.675004 
L 109.646805 139.624274 
L 109.693377 139.683451 
L 109.813135 139.708813 
L 109.819788 139.691914 
L 109.906279 139.666546 
L 109.853054 139.708813 
L 109.926239 139.708813 
L 110.039343 139.768001 
L 110.05265 139.734181 
L 111.230265 139.632726 
L 111.316756 139.598906 
L 111.290143 139.700366 
L 111.336716 139.658088 
L 114.669966 139.768001 
L 114.816336 139.793363 
L 114.909481 139.725728 
L 114.92944 139.751091 
L 119.107646 139.835631 
L 119.114299 139.877908 
L 119.20079 139.793363 
L 119.207444 139.793363 
L 119.486878 139.894813 
L 119.606635 139.903276 
L 119.693127 139.860998 
L 119.719739 139.911728 
L 126.539263 140.02163 
L 126.599141 139.937091 
L 126.639061 139.979363 
L 126.752165 139.911728 
L 126.758818 139.928638 
L 126.832003 139.987821 
L 126.878576 139.945543 
L 129.959004 140.055455 
L 130.032189 140.08927 
L 129.985617 140.030093 
L 130.052149 140.046993 
L 130.078762 139.962453 
L 130.165253 140.02163 
L 130.278357 140.097723 
L 130.285011 140.063908 
L 130.298317 140.106175 
L 130.444687 140.038545 
L 130.584404 140.080813 
L 130.591057 140.055455 
L 130.657589 139.979363 
L 130.63763 140.063908 
L 130.704162 140.030093 
L 130.797306 140.013183 
L 130.823919 140.046993 
L 130.910411 140.08927 
L 130.937023 140.055455 
L 130.990249 140.038545 
L 131.036821 140.080813 
L 131.103353 140.114638 
L 131.143272 140.063908 
L 131.436013 140.173815 
L 131.489238 140.173815 
L 131.522504 140.106175 
L 131.608996 140.080813 
L 131.55577 140.14 
L 131.628956 140.131538 
L 131.775326 140.106175 
L 131.848511 140.046993 
L 131.895083 140.131538 
L 132.021494 140.08927 
L 132.088026 140.131538 
L 132.0348 140.080813 
L 132.134598 140.106175 
L 132.141251 140.063908 
L 132.154558 140.131538 
L 132.234396 140.114638 
L 132.247703 140.148453 
L 132.327541 140.063908 
L 132.3475 140.12309 
L 132.400726 140.12309 
L 132.36746 140.148453 
L 132.440645 140.173815 
L 132.493871 140.173815 
L 132.467258 140.14 
L 132.53379 140.114638 
L 132.540443 140.08927 
L 132.606975 140.182268 
L 132.633588 140.148453 
L 132.746692 140.190725 
L 132.773305 140.156905 
L 132.799918 140.12309 
L 132.859796 140.20763 
L 132.879756 140.173815 
L 132.959594 140.224545 
L 132.99286 140.20763 
L 133.092658 140.190725 
L 133.01282 140.216088 
L 133.105964 140.20763 
L 133.15919 140.232992 
L 133.205762 140.199183 
L 133.312213 140.182268 
L 133.245682 140.249907 
L 133.318867 140.190725 
L 133.405358 140.156905 
L 133.451931 140.199183 
L 134.083984 140.300632 
L 134.110597 140.241455 
L 134.197088 140.309085 
L 134.323499 140.266817 
L 134.343458 140.249907 
L 134.456563 140.283722 
L 134.563014 140.232992 
L 134.57632 140.241455 
L 134.649505 140.283722 
L 134.59628 140.216088 
L 134.682771 140.241455 
L 134.735997 140.283722 
L 134.835795 140.216088 
L 134.928939 140.334447 
L 134.968859 140.326 
L 135.068657 140.326 
L 135.081963 140.309085 
L 135.161801 140.27527 
L 135.101922 140.334447 
L 135.195067 140.300632 
L 135.274906 140.334447 
L 135.24164 140.249907 
L 135.314825 140.309085 
L 135.454542 140.418992 
L 135.501114 140.368267 
L 136.419255 140.469717 
L 136.525706 140.469717 
L 136.565625 140.444354 
L 136.605544 140.511994 
L 136.625504 140.47818 
L 136.652117 140.511994 
L 136.692036 140.452817 
L 136.731955 140.452817 
L 136.845059 140.469717 
L 136.758568 140.418992 
L 136.858366 140.435907 
L 136.911591 140.435907 
L 136.938204 140.495084 
L 136.944857 140.47818 
L 137.064615 140.520447 
L 137.131146 140.469717 
L 137.171066 140.520447 
L 137.28417 140.554262 
L 137.350702 140.520447 
L 137.317436 140.604992 
L 137.383968 140.604992 
L 137.483766 140.588087 
L 137.43054 140.545809 
L 137.497072 140.571172 
L 140.843628 140.681079 
L 140.903507 140.596539 
L 140.943426 140.655717 
L 141.043224 140.596539 
L 141.063184 140.604992 
L 141.182941 140.664179 
L 141.189594 140.655717 
L 142.49362 140.740267 
L 142.533539 140.782534 
L 142.586765 140.689542 
L 142.593418 140.706447 
L 142.719829 140.706447 
L 142.819627 140.706447 
L 142.759748 140.689542 
L 142.82628 140.697994 
L 142.939384 140.706447 
L 142.84624 140.757171 
L 142.946037 140.723357 
L 143.025876 140.740267 
L 142.97265 140.681079 
L 143.045835 140.697994 
L 143.072448 140.664179 
L 143.132327 140.799449 
L 143.13898 140.765629 
L 144.236757 140.672632 
L 144.336555 140.647269 
L 144.256717 140.697994 
L 144.349861 140.655717 
L 144.462966 140.706447 
L 144.482925 140.655717 
L 144.529497 140.647269 
L 144.516191 140.689542 
L 144.57607 140.706447 
L 144.589376 140.748724 
L 144.635949 140.664179 
L 144.682521 140.689542 
L 144.769012 140.655717 
L 144.795625 140.689542 
L 144.948649 140.740267 
L 144.955302 140.731809 
L 144.961955 140.706447 
L 145.015181 140.807896 
L 145.061753 140.748724 
L 145.18151 140.799449 
L 145.214776 140.748724 
L 145.327881 140.833269 
L 145.434332 140.757171 
L 145.387759 140.841716 
L 145.447638 140.774087 
L 145.547436 140.850174 
L 145.574049 140.824811 
L 145.587355 140.790997 
L 145.633928 140.875541 
L 145.6805 140.833269 
L 145.707113 140.824811 
L 145.793604 140.841716 
L 145.946628 140.757171 
L 145.97324 140.782534 
L 146.112957 140.799449 
L 146.179489 140.757171 
L 146.192796 140.816354 
L 146.226062 140.790997 
L 146.285941 140.774087 
L 146.312553 140.833269 
L 146.319206 140.858631 
L 146.359126 140.790997 
L 146.419004 140.807896 
L 146.578681 140.850174 
L 146.605294 140.867079 
L 146.718398 140.790997 
L 148.07565 140.900904 
L 148.108915 140.917809 
L 148.095609 140.867079 
L 148.175447 140.850174 
L 148.268592 140.824811 
L 148.195407 140.858631 
L 148.288552 140.858631 
L 150.756886 140.748724 
L 150.863338 140.748724 
L 150.770193 140.765629 
L 150.869991 140.757171 
L 150.963135 140.833269 
L 150.983095 140.765629 
L 151.136118 140.799449 
L 151.142772 140.790997 
L 157.064114 140.883994 
L 157.070767 140.909356 
L 157.123992 140.824811 
L 157.163912 140.850174 
L 157.230444 140.833269 
L 157.177218 140.867079 
L 157.270363 140.875541 
L 157.277016 140.909356 
L 157.310282 140.833269 
L 157.383467 140.875541 
L 157.509878 140.926266 
L 157.516531 140.917809 
L 157.622982 140.892441 
L 157.649595 140.917809 
L 157.769352 140.960086 
L 157.782659 140.968533 
L 157.88911 140.917809 
L 157.982254 140.985449 
L 157.902416 140.900904 
L 158.03548 140.943171 
L 158.115318 140.909356 
L 158.068746 140.960086 
L 158.148584 140.951629 
L 158.274995 140.960086 
L 158.388099 140.976991 
L 158.408059 140.951629 
L 158.441325 141.010811 
L 158.501204 140.976991 
L 158.601001 141.002359 
L 158.521163 140.968533 
L 158.614308 140.968533 
L 160.071357 141.044626 
L 160.07801 141.086903 
L 160.144542 141.010811 
L 160.177808 141.019258 
L 160.317525 141.053078 
L 160.330832 141.036173 
L 166.837655 140.951629 
L 166.950759 140.934719 
L 167.436442 140.833269 
L 167.443095 140.807896 
L 167.476361 140.867079 
L 167.542893 140.850174 
L 167.562853 140.824811 
L 167.662651 140.858631 
L 169.093087 140.934719 
L 169.099741 140.976991 
L 169.152966 140.867079 
L 169.192885 140.892441 
L 170.896103 140.993896 
L 170.969288 141.027721 
L 170.916062 140.960086 
L 170.995901 140.968533 
L 171.03582 140.943171 
L 171.095699 140.985449 
L 171.195496 141.002359 
L 171.215456 140.993896 
L 171.275335 140.934719 
L 171.321907 141.002359 
L 172.060412 140.917809 
L 172.133597 140.867079 
L 172.173516 140.883994 
L 173.038431 140.782534 
L 173.09831 140.748724 
L 173.07835 140.833269 
L 173.151535 140.782534 
L 173.72371 140.706447 
L 173.816855 140.655717 
L 173.756976 140.723357 
L 173.836814 140.697994 
L 174.076329 140.528904 
L 174.082982 140.562724 
L 174.335804 140.469717 
L 174.34911 140.435907 
L 174.402336 140.495084 
L 174.448908 140.46127 
L 174.542053 140.47818 
L 174.502134 140.418992 
L 174.555359 140.444354 
L 174.588625 140.47818 
L 174.668463 140.42745 
L 174.814834 140.444354 
L 174.914632 140.368267 
L 174.947897 140.39363 
L 176.631155 140.300632 
L 176.717647 140.29218 
L 176.730953 140.334447 
L 176.737606 140.326 
L 176.750913 140.266817 
L 176.804138 140.368267 
L 176.850711 140.317537 
L 176.903936 140.3429 
L 176.87067 140.300632 
L 176.950509 140.29218 
L 177.017041 140.266817 
L 176.990428 140.317537 
L 177.050307 140.326 
L 179.019652 140.418992 
L 179.066224 140.385177 
L 179.132756 140.435907 
L 181.408148 140.528904 
L 181.481333 140.495084 
L 181.521253 140.545809 
L 181.66097 140.545809 
L 183.330921 140.647269 
L 183.357534 140.630354 
L 183.444025 140.681079 
L 183.53717 140.571172 
L 183.563783 140.613449 
L 183.670234 140.588087 
L 183.68354 140.647269 
L 183.776685 140.571172 
L 185.606313 140.672632 
L 185.612966 140.689542 
L 185.632926 140.604992 
L 185.706111 140.630354 
L 185.832522 140.545809 
L 185.845828 140.554262 
L 185.965586 140.596539 
L 185.998852 140.638812 
L 186.07869 140.571172 
L 186.211754 140.596539 
L 186.338165 140.486632 
L 186.444616 140.503542 
L 186.491188 140.588087 
L 186.55772 140.537362 
L 186.664171 140.571172 
L 186.571026 140.520447 
L 186.684131 140.528904 
L 186.70409 140.545809 
L 186.803888 140.520447 
L 186.910339 140.562724 
L 186.823848 140.486632 
L 186.923646 140.554262 
L 187.023443 140.520447 
L 186.936952 140.579629 
L 187.03675 140.579629 
L 187.056709 140.545809 
L 187.169814 140.579629 
L 187.316184 140.537362 
L 187.322837 140.545809 
L 187.376063 140.537362 
L 187.442595 140.604992 
L 188.28755 140.495084 
L 188.300857 140.469717 
L 188.360735 140.571172 
L 188.367388 140.571172 
L 189.797825 140.469717 
L 189.904276 140.469717 
L 189.831091 140.511994 
L 189.910929 140.47818 
L 190.030687 140.503542 
L 190.150444 140.495084 
L 190.170404 140.47818 
L 190.290161 140.554262 
L 190.409919 140.545809 
L 190.529676 140.528904 
L 190.542983 140.545809 
L 190.622821 140.571172 
L 190.602861 140.528904 
L 190.656087 140.545809 
L 190.80911 140.588087 
L 190.882296 140.562724 
L 190.902255 140.630354 
L 190.915562 140.604992 
L 192.844988 140.689542 
L 192.944786 140.731809 
L 192.918173 140.655717 
L 192.964745 140.723357 
L 192.998011 140.731809 
L 193.031277 140.647269 
L 193.03793 140.647269 
L 193.144381 140.638812 
L 193.111115 140.697994 
L 193.151035 140.655717 
L 193.290752 140.604992 
L 193.297405 140.638812 
L 193.437122 140.664179 
L 193.443775 140.647269 
L 194.561511 140.757171 
L 194.681269 140.790997 
L 194.601431 140.740267 
L 194.687922 140.782534 
L 194.834292 140.816354 
L 194.727841 140.748724 
L 194.840946 140.799449 
L 194.927437 140.774087 
L 194.95405 140.790997 
L 195.040541 140.875541 
L 195.073807 140.850174 
L 195.173605 140.807896 
L 195.206871 140.858631 
L 195.260097 140.917809 
L 195.326629 140.875541 
L 195.466346 140.841716 
L 195.526225 140.867079 
L 195.519571 140.816354 
L 195.57945 140.841716 
L 195.692554 140.875541 
L 195.612716 140.816354 
L 195.699208 140.867079 
L 195.872191 140.807896 
L 195.878844 140.816354 
L 195.991948 140.816354 
L 196.011908 140.799449 
L 196.03852 140.850174 
L 196.085093 140.867079 
L 196.111706 140.833269 
L 196.218157 140.867079 
L 196.337914 140.875541 
L 196.344567 140.883994 
L 196.444365 140.917809 
L 196.470978 140.875541 
L 196.484284 140.892441 
L 196.610695 140.867079 
L 196.737106 140.867079 
L 196.650614 140.833269 
L 196.743759 140.858631 
L 196.823597 140.858631 
L 196.770372 140.875541 
L 196.85021 140.875541 
L 199.943945 140.765629 
L 199.957251 140.790997 
L 200.063702 140.748724 
L 200.156847 140.824811 
L 200.176807 140.790997 
L 200.263298 140.748724 
L 200.296564 140.807896 
L 200.389709 140.816354 
L 200.316524 140.782534 
L 200.403015 140.782534 
L 200.51612 140.807896 
L 200.522773 140.790997 
L 200.542732 140.740267 
L 200.595958 140.807896 
L 200.629224 140.799449 
L 200.722369 140.790997 
L 200.689103 140.723357 
L 200.729022 140.774087 
L 200.768941 140.706447 
L 200.842126 140.765629 
L 201.001803 140.706447 
L 201.008456 140.731809 
L 201.993128 140.621907 
L 202.019741 140.664179 
L 202.106233 140.604992 
L 202.239297 140.664179 
L 202.272563 140.604992 
L 202.359054 140.630354 
L 202.485465 140.579629 
L 202.512078 140.604992 
L 202.618529 140.672632 
L 202.631835 140.630354 
L 202.751593 140.604992 
L 202.651795 140.647269 
L 202.764899 140.630354 
L 202.931229 140.672632 
L 203.050986 140.604992 
L 203.057639 140.613449 
L 203.104212 140.596539 
L 203.170744 140.647269 
L 203.20401 140.613449 
L 203.283848 140.655717 
L 203.396952 140.681079 
L 203.403605 140.638812 
L 203.523363 140.647269 
L 203.430218 140.664179 
L 203.530016 140.655717 
L 203.589895 140.697994 
L 203.64312 140.638812 
L 203.696346 140.681079 
L 203.756225 140.621907 
L 203.875982 140.731809 
L 203.882635 140.714904 
L 203.969127 140.647269 
L 203.99574 140.697994 
L 204.015699 140.672632 
L 204.175376 140.765629 
L 204.28848 140.714904 
L 204.295133 140.731809 
L 204.414891 140.706447 
L 205.239887 140.596539 
L 205.346338 140.562724 
L 205.359644 140.579629 
L 205.466095 140.604992 
L 205.379604 140.562724 
L 205.492708 140.571172 
L 205.605812 140.562724 
L 205.692304 140.604992 
L 205.732223 140.554262 
L 205.758836 140.579629 
L 205.885247 140.537362 
L 207.535239 140.630354 
L 207.541892 140.655717 
L 207.588464 140.579629 
L 207.635036 140.604992 
L 207.668302 140.562724 
L 207.681609 140.630354 
L 207.741488 140.604992 
L 207.861245 140.647269 
L 210.928367 140.740267 
L 210.93502 140.765629 
L 211.008205 140.672632 
L 211.028165 140.697994 
L 211.048125 140.672632 
L 211.201148 140.740267 
L 211.360825 140.647269 
L 211.367478 140.697994 
L 211.43401 140.731809 
L 211.394091 140.655717 
L 211.487235 140.706447 
L 211.60034 140.723357 
L 211.613646 140.697994 
L 211.633606 140.664179 
L 211.673525 140.774087 
L 211.713444 140.723357 
L 211.853161 140.824811 
L 211.859814 140.807896 
L 211.89308 140.850174 
L 211.972919 140.807896 
L 212.072716 140.900904 
L 212.099329 140.875541 
L 212.199127 140.799449 
L 212.22574 140.816354 
L 212.285619 140.782534 
L 212.318885 140.858631 
L 212.385416 140.875541 
L 212.338844 140.850174 
L 212.412029 140.833269 
L 212.471908 140.875541 
L 212.525134 140.790997 
L 212.578359 140.816354 
L 212.545093 140.782534 
L 212.638238 140.782534 
L 213.103961 140.892441 
L 213.110615 140.909356 
L 213.190453 140.833269 
L 213.203759 140.858631 
L 213.33017 140.850174 
L 213.463234 140.960086 
L 213.596298 140.867079 
L 213.609604 140.875541 
L 213.656176 140.943171 
L 213.716055 140.858631 
L 214.674115 140.943171 
L 214.694075 141.002359 
L 214.76726 140.883994 
L 214.773913 140.883994 
L 214.91363 140.900904 
L 214.926936 140.858631 
L 214.946896 140.951629 
L 215.026734 140.900904 
L 215.133185 140.875541 
L 215.146492 140.917809 
L 215.186411 141.137628 
L 215.492458 142.87925 
L 216.64346 146.852857 
L 216.650113 146.844405 
L 216.690033 146.954312 
L 216.936201 147.630671 
L 217.28882 148.543749 
L 217.295473 148.535301 
L 217.335392 148.645203 
L 217.614826 149.287752 
L 217.781156 149.668199 
L 218.073897 150.369925 
L 218.08055 150.344563 
L 218.140429 150.505195 
L 218.160388 150.47138 
L 218.22692 150.581287 
L 218.433169 150.953282 
L 218.439822 150.944829 
L 218.473088 151.071646 
L 218.479742 151.063189 
L 218.858974 151.756457 
L 218.865627 151.748 
L 219.211593 152.365181 
L 219.577519 153.033082 
L 219.584172 153.00772 
L 219.650704 153.176815 
L 219.657357 153.159905 
L 219.823687 153.514994 
L 220.129734 154.005348 
L 220.136387 153.996896 
L 220.169653 154.08144 
L 220.189612 154.089898 
L 220.202919 154.072988 
L 220.442434 154.43653 
L 220.515619 154.546437 
L 220.7884 154.952251 
L 220.808359 154.935346 
L 220.854932 155.045254 
L 221.047874 155.349608 
L 222.877502 157.573151 
L 222.884156 157.530869 
L 222.890809 157.505501 
L 222.963994 157.640776 
L 223.489596 158.13114 
L 223.502903 158.114225 
L 223.549475 158.190317 
L 223.582741 158.181865 
L 224.194835 158.790584 
L 224.214794 158.773674 
L 224.281326 158.858224 
L 224.667211 159.204866 
L 224.673865 159.18795 
L 224.693824 159.17104 
L 224.72709 159.264043 
L 224.74705 159.25559 
L 224.760356 159.247133 
L 224.906726 159.382397 
L 224.926686 159.365498 
L 224.979912 159.4754 
L 224.986565 159.466947 
L 225.119629 159.551497 
L 225.445635 159.813574 
L 225.452288 159.805122 
L 225.565393 159.813574 
L 225.691803 159.923497 
L 225.698456 159.915034 
L 225.70511 159.889666 
L 225.778295 160.016484 
L 225.784948 159.999589 
L 225.918012 160.084124 
L 225.924665 160.075671 
L 225.931318 160.067209 
L 225.964584 160.177131 
L 225.977891 160.177131 
L 226.004503 160.151764 
L 226.210752 160.295496 
L 226.257325 160.380031 
L 226.303897 160.354663 
L 226.583331 160.540658 
L 226.609944 160.506848 
L 226.663169 160.608298 
L 226.80954 160.692853 
L 226.862765 160.692853 
L 226.836152 160.735115 
L 226.896031 160.743578 
L 226.97587 160.836564 
L 227.022442 160.78584 
L 227.095627 160.81967 
L 227.075667 160.845037 
L 227.115587 160.836564 
L 227.241997 160.92112 
L 227.261957 160.895762 
L 227.308529 160.954929 
L 227.341795 160.954929 
L 227.521431 161.056389 
L 227.661148 161.174754 
L 227.667802 161.166302 
L 227.681108 161.140944 
L 227.754293 161.242394 
L 227.760946 161.233931 
L 227.840785 161.242394 
L 227.854091 161.284656 
L 228.053687 161.360749 
L 228.472838 161.462198 
L 228.619208 161.605931 
L 228.632515 161.597478 
L 228.692393 161.529838 
L 228.712353 161.622846 
L 228.738966 161.589016 
L 228.85207 161.639751 
L 228.772232 161.529838 
L 228.858723 161.614383 
L 228.918602 161.605931 
L 228.878683 161.631288 
L 228.951868 161.656656 
L 229.084932 161.749653 
L 229.091585 161.741211 
L 229.171423 161.732748 
L 229.144811 161.80883 
L 229.191383 161.783473 
L 229.31114 161.87647 
L 229.317794 161.851102 
L 229.537349 161.952562 
L 229.657106 161.986382 
L 229.690372 161.97792 
L 229.703679 162.028655 
L 229.756904 162.01174 
L 229.996419 162.138567 
L 230.036338 162.087842 
L 230.096217 162.180829 
L 230.242587 162.223102 
L 230.12283 162.11321 
L 230.249241 162.206197 
L 230.295813 162.189292 
L 230.322426 162.265385 
L 230.342385 162.265385 
L 230.508715 162.324562 
L 230.515368 162.316109 
L 230.528675 162.290752 
L 230.588554 162.358371 
L 230.615166 162.333014 
L 230.741577 162.409107 
L 230.834722 162.459831 
L 230.861334 162.417569 
L 231.074237 162.519019 
L 231.08089 162.502104 
L 231.120809 162.578196 
L 231.180688 162.544387 
L 231.287139 162.645836 
L 231.293792 162.612016 
L 231.320405 162.569744 
L 231.366977 162.637384 
L 231.400243 162.628921 
L 231.460122 162.662751 
L 231.433509 162.603554 
L 231.513347 162.620479 
L 231.553267 162.628921 
L 231.579879 162.705014 
L 231.606492 162.671204 
L 231.712943 162.705014 
L 231.766169 162.696551 
L 231.779475 162.764201 
L 231.806088 162.747286 
L 231.919192 162.806463 
L 231.925845 162.789569 
L 231.959111 162.755738 
L 232.032296 162.814926 
L 232.16536 162.89946 
L 232.225239 162.865651 
L 232.205279 162.924828 
L 232.271811 162.89946 
L 232.398222 162.958648 
L 232.458101 162.924828 
L 232.424835 162.975553 
L 232.511326 162.950185 
L 232.571205 162.941743 
L 232.524633 162.967111 
L 232.617777 162.984005 
L 232.750841 163.060108 
L 232.777454 163.03474 
L 232.784107 163.009373 
L 232.817373 163.077003 
L 232.883905 163.060108 
L 232.983703 163.06856 
L 232.937131 163.017836 
L 232.99701 163.060108 
L 233.236524 163.17002 
L 233.256484 163.153095 
L 233.349629 163.178463 
L 233.476039 163.161558 
L 233.482693 163.17002 
L 233.609103 163.212293 
L 233.675635 163.186925 
L 233.642369 163.229187 
L 233.715554 163.220735 
L 233.888537 163.322185 
L 233.901844 163.279912 
L 233.975029 163.263018 
L 234.014948 163.313743 
L 234.174625 163.372909 
L 234.181278 163.330637 
L 234.274423 163.423645 
L 234.281076 163.398277 
L 234.87321 163.491285 
L 234.899823 163.465927 
L 234.992968 163.533557 
L 235.132685 163.516652 
L 235.259095 163.601187 
L 235.385506 163.601187 
L 235.511917 163.660374 
L 235.432078 163.550462 
L 235.51857 163.651912 
L 235.625021 163.618102 
L 235.638327 163.635017 
L 235.671593 163.601187 
L 235.817963 163.694184 
L 235.964334 163.660374 
L 235.970987 163.668816 
L 236.010906 163.736467 
L 236.090744 163.685742 
L 236.203849 163.643469 
L 236.210502 163.677279 
L 236.277034 163.736467 
L 236.370179 163.651912 
L 236.450017 163.736467 
L 236.509896 163.711099 
L 237.521181 163.821001 
L 237.5611 163.863284 
L 237.614326 163.795634 
L 237.627632 163.821001 
L 237.70747 163.795634 
L 237.674204 163.871726 
L 237.734083 163.837916 
L 239.111294 163.939376 
L 239.14456 163.973186 
L 239.184479 163.871726 
L 239.217745 163.930914 
L 239.337503 163.897094 
L 239.231052 163.964734 
L 239.357462 163.922451 
L 239.397382 163.939376 
L 239.417341 163.880178 
L 239.463913 163.897094 
L 239.630243 163.956271 
L 239.663509 163.914009 
L 239.743348 163.947818 
L 239.889718 163.998543 
L 239.763307 163.922451 
L 239.896371 163.981638 
L 239.909677 163.914009 
L 239.976209 164.015469 
L 240.009475 163.981638 
L 240.954229 164.074636 
L 241.06068 164.125361 
L 241.073986 164.116918 
L 242.258255 164.226821 
L 242.344746 164.235283 
L 242.291521 164.159191 
L 242.364706 164.209916 
L 242.471157 164.176085 
L 242.378012 164.226821 
L 242.504423 164.209916 
L 247.494318 164.29445 
L 247.580809 164.319818 
L 247.607422 164.302903 
L 248.359233 164.29445 
L 248.359233 164.29445 
" clip-path="url(#pcff3f31c1b)" style="fill: none; stroke: #000000; stroke-opacity: 0.5; stroke-width: 1.5; stroke-linecap: square"/>
   </g>
   <g id="line2d_14">
    <path d="M 45.450142 164.362101 
L 45.583206 164.32827 
L 45.589859 164.353638 
L 45.609819 164.319818 
L 45.709617 164.336733 
L 45.776149 164.311376 
L 45.742883 164.370543 
L 45.809414 164.378995 
L 45.822721 164.353638 
L 45.949132 164.438193 
L 46.055583 164.353638 
L 46.075542 164.370543 
L 47.619083 164.260641 
L 47.732187 164.252178 
L 47.659002 164.29445 
L 47.745494 164.277545 
L 47.7588 164.302903 
L 47.785413 164.226821 
L 47.851945 164.252178 
L 47.891864 164.235283 
L 47.978356 164.277545 
L 48.024928 164.252178 
L 48.064847 164.311376 
L 48.09146 164.277545 
L 48.21787 164.277545 
L 48.224524 164.269093 
L 48.251136 164.29445 
L 48.377547 164.243725 
L 48.510611 164.277545 
L 48.523917 164.260641 
L 48.557183 164.218358 
L 48.577143 164.286008 
L 48.637022 164.260641 
L 48.836617 164.201453 
L 49.229156 160.946487 
L 50.573101 154.681712 
L 50.639633 154.41962 
L 50.879148 153.599539 
L 50.939027 153.362809 
L 51.171888 152.576543 
L 51.617652 151.156191 
L 51.823901 150.530557 
L 51.870474 150.43756 
L 52.136601 149.625932 
L 52.143255 149.642831 
L 52.189827 149.482204 
L 52.19648 149.482204 
L 52.615631 148.315487 
L 52.622284 148.323939 
L 52.662204 148.230942 
L 52.668857 148.239394 
L 52.954944 147.317854 
L 52.961597 147.334758 
L 53.014823 147.207946 
L 53.347483 146.370956 
L 53.500506 146.007409 
L 53.733368 145.55087 
L 53.740021 145.567775 
L 53.77994 145.407142 
L 54.066027 144.747694 
L 54.125906 144.637786 
L 54.40534 144.13897 
L 54.545057 143.851515 
L 54.551711 143.859968 
L 54.578323 143.750066 
L 54.598283 143.750066 
L 54.851104 143.217429 
L 55.503117 141.847807 
L 55.596262 141.737895 
L 55.742632 141.450445 
L 55.755939 141.46735 
L 55.809164 141.34899 
L 56.028719 140.943171 
L 56.308154 140.503542 
L 56.314807 140.520447 
L 56.381339 140.402087 
L 56.727305 139.793363 
L 56.900288 139.472089 
L 56.913594 139.505914 
L 56.986779 139.404459 
L 57.166416 139.06628 
L 57.246254 138.956373 
L 57.385971 138.736548 
L 57.412584 138.753463 
L 57.665405 138.406831 
L 57.705324 138.330739 
L 57.851694 138.094014 
L 57.858348 138.102461 
L 57.898267 138.001012 
L 57.911573 137.992559 
L 58.024677 137.899557 
L 58.177701 137.629012 
L 58.184354 137.63747 
L 58.197661 137.654375 
L 58.257539 137.561383 
L 58.40391 137.341558 
L 58.463788 137.231656 
L 58.630118 136.952654 
L 58.643424 136.978016 
L 58.71661 136.859662 
L 58.723263 136.876567 
L 61.457725 133.570866 
L 61.477685 133.511683 
L 61.564176 133.55395 
L 61.683934 133.410228 
L 61.710547 133.418686 
L 61.770425 133.325678 
L 61.950062 133.046687 
L 61.970021 133.072049 
L 62.023247 132.962142 
L 62.043206 132.987504 
L 64.085737 130.552614 
L 64.09239 130.561066 
L 64.125656 130.459612 
L 64.378477 130.096075 
L 64.40509 130.104527 
L 64.438356 130.003067 
L 64.451662 130.011525 
L 64.578073 129.901613 
L 64.71779 129.673351 
L 64.784322 129.749433 
L 64.731096 129.656441 
L 64.824241 129.664888 
L 65.742382 128.658813 
L 65.762341 128.692622 
L 65.82222 128.608083 
L 65.955284 128.362906 
L 65.96859 128.371358 
L 66.075041 128.269898 
L 66.15488 128.134634 
L 66.208105 128.159996 
L 66.267984 128.244536 
L 66.32121 128.159996 
L 66.587337 128.058536 
L 66.727054 127.864089 
L 66.733708 127.889452 
L 66.846812 127.787997 
L 66.999835 127.627365 
L 66.873425 127.821812 
L 67.013142 127.66118 
L 68.204063 126.24928 
L 68.210717 126.31692 
L 68.310514 126.359187 
L 68.224023 126.291557 
L 68.350434 126.31692 
L 68.456885 126.291557 
L 68.430272 126.359187 
L 68.463538 126.300005 
L 68.596602 126.333825 
L 68.603255 126.31692 
L 68.762932 126.122463 
L 68.889342 126.021013 
L 69.182083 125.336191 
L 69.228655 125.251647 
L 69.261921 125.293924 
L 69.421598 124.92193 
L 69.441557 124.95574 
L 69.681072 124.85429 
L 69.814136 124.761293 
L 69.874015 124.66829 
L 70.126836 124.135664 
L 70.153449 124.152564 
L 70.373004 123.789027 
L 70.479455 123.890477 
L 70.506068 123.84821 
L 70.565947 123.839757 
L 70.585907 123.907387 
L 70.59256 123.907387 
L 70.605866 123.932749 
L 70.665745 123.805932 
L 70.672398 123.789027 
L 70.705664 123.873572 
L 70.75889 123.86512 
L 70.891953 124.076482 
L 71.025017 123.831294 
L 71.064936 123.84821 
L 71.07159 123.86512 
L 71.138122 123.772117 
L 71.158081 123.789027 
L 71.277839 123.44239 
L 71.324411 123.560755 
L 71.331064 123.586123 
L 71.410903 123.484663 
L 71.577232 123.222571 
L 71.610498 123.273301 
L 71.617152 123.298668 
L 71.67703 123.104216 
L 71.683683 123.121121 
L 72.269164 122.487035 
L 72.295777 122.512397 
L 72.309084 122.529312 
L 72.349003 122.351765 
L 72.395575 122.26722 
L 72.448801 122.402495 
L 72.601824 122.478582 
L 72.661703 122.571579 
L 72.701622 122.410942 
L 72.814726 122.301035 
L 73.147386 120.305774 
L 73.173999 113.322375 
L 73.267143 14.76 
L 73.346982 66.966441 
L 73.539924 136.935749 
L 73.679641 139.252279 
L 73.692948 139.235364 
L 74.012301 138.170107 
L 74.112099 138.060194 
L 75.263101 136.749749 
L 75.269755 136.758207 
L 75.389512 136.758207 
L 75.289714 136.732839 
L 75.396165 136.749749 
L 75.482657 136.682109 
L 75.429431 136.792017 
L 75.50927 136.741292 
L 75.622374 136.775117 
L 75.535882 136.690572 
L 75.629027 136.732839 
L 75.748785 136.682109 
L 75.915114 136.715929 
L 76.074791 136.622932 
L 76.187895 136.572207 
L 76.194549 136.580654 
L 76.653619 136.479205 
L 76.793336 136.41157 
L 77.139302 136.301663 
L 77.338898 136.225575 
L 77.558453 136.115663 
L 77.691517 136.031113 
L 77.69817 136.039576 
L 77.791315 136.098758 
L 77.831234 136.031113 
L 78.057443 135.912759 
L 78.170547 135.921206 
L 78.190507 135.904301 
L 78.702802 135.802851 
L 78.849173 135.650666 
L 78.875785 135.701396 
L 78.948971 135.608389 
L 79.201792 135.447757 
L 79.248364 135.506939 
L 79.30159 135.430852 
L 79.487879 135.236395 
L 79.587677 135.27021 
L 79.600984 135.261757 
L 79.714088 135.168765 
L 79.727394 135.20258 
L 79.933643 135.118035 
L 80.119933 135.01658 
L 80.213077 134.965855 
L 80.233037 134.99967 
L 80.379407 134.889763 
L 80.512471 134.855948 
L 80.392714 134.906673 
L 80.525777 134.872853 
L 80.55239 134.88131 
L 80.605616 134.805218 
L 80.732026 134.746041 
L 80.86509 134.644586 
L 80.951582 134.576946 
L 80.984848 134.602314 
L 81.091299 134.653038 
L 81.097952 134.610761 
L 81.384039 134.365589 
L 81.403999 134.399399 
L 81.49049 134.374036 
L 81.443918 134.365589 
L 81.503797 134.357131 
L 81.636861 134.238767 
L 81.643514 134.255677 
L 81.763271 134.171132 
L 81.67678 134.272581 
L 81.776578 134.196499 
L 81.789884 134.230314 
L 81.82315 134.103497 
L 81.856416 134.111949 
L 81.996133 134.035857 
L 82.00944 134.086582 
L 82.056012 133.968227 
L 82.102584 134.0105 
L 82.375365 133.841405 
L 82.475163 133.73995 
L 82.628187 133.638495 
L 82.708025 133.638495 
L 82.721331 133.58777 
L 82.734638 133.613133 
L 82.867701 133.477863 
L 83.087257 133.376408 
L 83.193708 133.291863 
L 83.220321 133.334141 
L 83.379997 133.258049 
L 83.393304 133.283411 
L 83.399957 133.300316 
L 83.479795 133.224234 
L 83.486448 133.232686 
L 83.666085 133.122779 
L 84.145115 132.623962 
L 84.151768 132.66623 
L 84.178381 132.683145 
L 84.231606 132.573238 
L 84.244912 132.615505 
L 84.404589 132.48023 
L 84.411242 132.488693 
L 84.564266 132.404143 
L 84.590879 132.429505 
L 84.690676 132.277331 
L 84.803781 132.175876 
L 84.963457 132.065969 
L 85.289464 131.820781 
L 85.369302 131.812334 
L 85.342689 131.770056 
L 85.382609 131.770056 
L 85.509019 131.744694 
L 85.429181 131.812334 
L 85.515672 131.770056 
L 85.555592 131.770056 
L 85.575551 131.702427 
L 85.582204 131.719326 
L 85.682002 131.677059 
L 85.622124 131.736242 
L 85.695309 131.710879 
L 85.795107 131.677059 
L 85.721921 131.677059 
L 85.80176 131.668602 
L 85.874945 131.567152 
L 85.974743 131.440335 
L 86.001356 131.482602 
L 86.367281 131.178248 
L 86.373934 131.186695 
L 86.387241 131.27124 
L 86.487039 131.220515 
L 86.546917 131.169785 
L 86.600143 131.220515 
L 86.766473 131.13597 
L 86.786432 131.068341 
L 86.833005 131.161333 
L 86.872924 131.152885 
L 87.21889 131.051431 
L 87.351954 130.907698 
L 87.36526 130.941523 
L 87.431792 130.856978 
L 87.451752 130.882341 
L 87.684613 130.730161 
L 87.691267 130.755524 
L 87.724533 130.789338 
L 87.784411 130.696336 
L 88.003967 130.569524 
L 88.01062 130.594886 
L 88.057192 130.535699 
L 88.110418 130.544162 
L 88.117071 130.552614 
L 88.137031 130.476522 
L 88.190256 130.476522 
L 88.296707 130.442707 
L 88.310014 130.468069 
L 88.369892 130.383524 
L 88.403158 130.408882 
L 88.502956 130.358162 
L 88.529569 130.400429 
L 88.622714 130.341252 
L 88.642673 130.425792 
L 88.795697 130.358162 
L 88.80235 130.391982 
L 88.815656 130.400429 
L 88.848922 130.307437 
L 88.888841 130.324337 
L 89.201542 130.104527 
L 89.327952 130.003067 
L 89.421097 129.910075 
L 89.347912 130.019982 
L 89.441057 129.960795 
L 89.44771 130.003067 
L 89.480976 129.94389 
L 89.547508 129.977705 
L 89.687225 129.859345 
L 89.693878 129.87625 
L 89.720491 129.893165 
L 89.773716 129.79171 
L 89.88682 129.656441 
L 89.913433 129.707166 
L 90.013231 129.79171 
L 89.940046 129.664888 
L 90.046497 129.774795 
L 90.166255 129.588801 
L 90.172908 129.597258 
L 90.192867 129.614163 
L 90.246093 129.546533 
L 90.266052 129.546533 
L 90.352544 129.521166 
L 90.379157 129.580348 
L 90.392463 129.588801 
L 90.412423 129.529618 
L 90.472301 129.521166 
L 90.671897 129.411259 
L 90.785002 129.309804 
L 90.798308 129.335171 
L 90.898106 129.377439 
L 90.918065 129.326709 
L 90.977944 129.242164 
L 90.931372 129.343624 
L 91.03117 129.335171 
L 91.257378 129.225254 
L 91.417055 129.106899 
L 91.523506 129.182987 
L 91.543466 129.174534 
L 91.663223 129.039259 
L 91.669876 129.047717 
L 91.709795 129.047717 
L 91.736408 128.971624 
L 91.743061 128.971624 
L 91.936004 128.810992 
L 91.96927 128.861717 
L 92.208785 128.777167 
L 92.348502 128.616535 
L 92.355155 128.633445 
L 92.415034 128.498175 
L 92.548098 128.46435 
L 92.554751 128.506623 
L 92.607977 128.413631 
L 92.654549 128.430535 
L 92.807572 128.337538 
L 92.827532 128.362906 
L 92.880757 128.244536 
L 92.92733 128.286813 
L 93.013821 128.244536 
L 93.033781 128.219173 
L 93.153538 128.278356 
L 93.279949 128.058536 
L 93.293255 128.083899 
L 93.439626 128.007811 
L 93.466238 128.041626 
L 93.931962 127.931719 
L 94.104945 127.838727 
L 94.111598 127.847174 
L 94.164824 127.914814 
L 94.218049 127.821812 
L 94.257968 127.864089 
L 94.304541 127.754177 
L 94.437605 127.652727 
L 94.603935 127.821812 
L 94.610588 127.804902 
L 94.770264 127.737272 
L 94.783571 127.754177 
L 94.82349 127.804902 
L 94.876715 127.703452 
L 95.082964 127.551272 
L 95.102924 127.59354 
L 95.196069 127.602002 
L 95.149496 127.542815 
L 95.209375 127.585087 
L 95.229335 127.52591 
L 95.275907 127.66118 
L 95.289213 127.66118 
L 96.367031 127.559725 
L 96.440216 127.508995 
L 96.473482 127.576635 
L 96.619852 127.618902 
L 96.626505 127.59354 
L 96.726303 127.669632 
L 96.806142 127.64427 
L 96.846061 127.720357 
L 96.959165 127.779539 
L 96.972471 127.771087 
L 97.098882 127.720357 
L 96.999084 127.796449 
L 97.105535 127.72882 
L 97.704323 127.627365 
L 97.717629 127.635817 
L 97.857346 127.52591 
L 97.983757 127.59354 
L 98.13678 127.703452 
L 98.143433 127.71191 
L 98.190006 127.618902 
L 98.30311 127.542815 
L 98.243231 127.64427 
L 98.309763 127.559725 
L 98.336376 127.576635 
L 98.389602 127.508995 
L 98.402908 127.466727 
L 98.489399 127.542815 
L 98.542625 127.576635 
L 98.589197 127.492085 
L 98.609157 127.52591 
L 98.662382 127.40754 
L 98.775487 127.322995 
L 98.8021 127.348363 
L 98.92851 127.416003 
L 98.941817 127.40754 
L 99.001695 127.30609 
L 99.128106 127.170815 
L 99.148066 127.221545 
L 99.214598 127.153911 
L 99.294436 127.238455 
L 99.480725 127.027093 
L 99.487378 127.035546 
L 100.605115 126.942548 
L 100.618421 126.900276 
L 100.718219 126.942548 
L 100.82467 126.942548 
L 100.811364 126.984816 
L 100.831324 126.951006 
L 100.891202 127.035546 
L 100.977694 126.925644 
L 100.997653 126.967916 
L 101.057532 126.891824 
L 101.084145 126.900276 
L 101.210556 126.900276 
L 101.13737 126.849546 
L 101.217209 126.891824 
L 101.257128 126.917186 
L 101.343619 126.849546 
L 101.350273 126.857998 
L 101.383539 126.773454 
L 101.416805 126.765006 
L 101.430111 126.731186 
L 101.463377 126.807274 
L 101.516602 126.790369 
L 101.63636 126.807274 
L 101.643013 126.781911 
L 101.722851 126.790369 
L 101.669626 126.824184 
L 101.729505 126.807274 
L 101.809343 126.891824 
L 101.849262 126.874908 
L 102.108737 126.697366 
L 102.11539 126.714282 
L 102.28172 126.756554 
L 102.368211 126.731186 
L 102.308332 126.798821 
L 102.388171 126.773454 
L 102.800669 126.672004 
L 102.827282 126.629737 
L 102.88716 126.739644 
L 102.966999 126.646636 
L 103.093409 126.519824 
L 103.106716 126.545187 
L 103.153288 126.604369 
L 103.266392 126.502919 
L 103.312965 126.452189 
L 103.399456 126.545187 
L 103.499254 126.612822 
L 103.545826 126.562092 
L 103.632318 126.536729 
L 103.592399 126.638184 
L 103.665584 126.587459 
L 103.805301 126.655099 
L 103.925058 126.545187 
L 103.978284 126.595912 
L 104.044816 126.672004 
L 104.084735 126.604369 
L 104.204493 126.502919 
L 104.104695 126.629737 
L 104.231105 126.528282 
L 104.543805 126.435274 
L 104.63695 126.367645 
L 104.663563 126.384549 
L 104.723442 126.393007 
L 104.750054 126.31692 
L 104.770014 126.359187 
L 105.142593 126.452189 
L 105.269003 126.528282 
L 105.455293 126.435274 
L 105.288963 126.545187 
L 105.461946 126.443737 
L 105.541784 126.528282 
L 105.588357 126.486004 
L 105.694808 126.486004 
L 105.61497 126.519824 
L 105.708114 126.511367 
L 106.060733 126.612822 
L 106.207104 126.722729 
L 106.100653 126.595912 
L 106.213757 126.714282 
L 106.313555 126.697366 
L 106.24037 126.756554 
L 106.320208 126.714282 
L 106.373434 126.765006 
L 106.426659 126.722729 
L 106.453272 126.672004 
L 106.539763 126.722729 
L 106.612949 126.697366 
L 106.639561 126.756554 
L 106.712746 126.781911 
L 106.652868 126.731186 
L 106.739359 126.722729 
L 106.84581 126.638184 
L 106.859117 126.663552 
L 106.985527 126.562092 
L 107.105285 126.486004 
L 107.005487 126.570549 
L 107.118591 126.502919 
L 107.225042 126.536729 
L 107.238349 126.528282 
L 107.264961 126.477552 
L 107.311534 126.545187 
L 107.3448 126.536729 
L 107.451251 126.545187 
L 107.47121 126.519824 
L 107.597621 126.452189 
L 107.604274 126.469099 
L 107.6575 126.384549 
L 107.690766 126.401459 
L 107.903668 126.502919 
L 107.956894 126.469099 
L 108.023426 126.545187 
L 108.036732 126.562092 
L 108.176449 126.528282 
L 108.322819 126.638184 
L 108.489149 126.714282 
L 108.349432 126.612822 
L 108.502455 126.688914 
L 108.695398 126.502919 
L 108.515762 126.705824 
L 108.748624 126.545187 
L 108.801849 126.562092 
L 108.775236 126.528282 
L 108.855075 126.528282 
L 108.875034 126.536729 
L 108.981485 126.477552 
L 109.154468 126.621274 
L 109.247613 126.595912 
L 109.167775 126.655099 
L 109.26092 126.646636 
L 109.280879 126.629737 
L 109.380677 126.672004 
L 109.393983 126.629737 
L 109.487128 126.688914 
L 109.906279 126.790369 
L 110.072609 126.925644 
L 110.172407 126.849546 
L 110.092569 126.934091 
L 110.205673 126.883366 
L 110.232286 126.849546 
L 110.32543 126.917186 
L 110.465148 126.807274 
L 110.471801 126.824184 
L 110.518373 126.841099 
L 110.551639 126.781911 
L 110.564945 126.807274 
L 110.671396 126.756554 
L 110.598211 126.824184 
L 110.684703 126.773454 
L 110.724622 126.849546 
L 110.791154 126.748091 
L 110.851033 126.773454 
L 110.924218 126.672004 
L 110.97079 126.595912 
L 111.037322 126.697366 
L 111.150426 126.790369 
L 111.177039 126.756554 
L 111.356675 126.579007 
L 111.456473 126.553644 
L 111.409901 126.536729 
L 111.463127 126.536729 
L 111.602844 126.443737 
L 111.682682 126.300005 
L 111.715948 126.443737 
L 111.815746 126.300005 
L 111.849012 126.31692 
L 111.902237 126.376097 
L 111.942156 126.300005 
L 111.962116 126.350729 
L 112.048608 126.393007 
L 111.988729 126.393007 
L 112.055261 126.401459 
L 112.101833 126.342282 
L 112.194978 126.418375 
L 112.24155 126.376097 
L 112.308082 126.418375 
L 112.414533 126.409912 
L 112.421186 126.401459 
L 112.55425 126.207013 
L 112.57421 126.24928 
L 112.680661 126.359187 
L 112.713927 126.31692 
L 112.813725 126.308457 
L 112.773806 126.376097 
L 112.827031 126.342282 
L 112.933482 126.401459 
L 112.980055 126.359187 
L 113.359287 126.469099 
L 113.485697 126.562092 
L 113.625414 126.435274 
L 113.652027 126.494462 
L 113.731865 126.435274 
L 113.818357 126.409912 
L 113.765131 126.460642 
L 113.838317 126.435274 
L 113.871582 126.376097 
L 113.958074 126.486004 
L 114.037912 126.376097 
L 114.077831 126.401459 
L 114.170976 126.393007 
L 114.184283 126.418375 
L 114.290734 126.494462 
L 114.30404 126.460642 
L 114.809683 126.367645 
L 114.816336 126.342282 
L 114.889521 126.435274 
L 114.909481 126.418375 
L 114.976013 126.469099 
L 115.029238 126.426827 
L 115.122383 126.460642 
L 115.162302 126.426827 
L 115.341938 126.359187 
L 115.175608 126.443737 
L 115.348591 126.367645 
L 115.501615 126.519824 
L 115.747783 126.384549 
L 115.820968 126.409912 
L 115.867541 126.359187 
L 115.980645 126.24928 
L 116.027217 126.207013 
L 116.087096 126.26619 
L 116.253426 126.173187 
L 116.313304 126.19855 
L 116.379836 126.105558 
L 116.419756 126.097095 
L 116.439715 126.021013 
L 116.466328 126.037918 
L 116.479634 126.054828 
L 116.612698 125.961825 
L 117.018543 126.06328 
L 117.124994 126.156283 
L 117.031849 126.054828 
L 117.144954 126.105558 
L 117.278017 126.004103 
L 117.351203 126.105558 
L 117.364509 126.164735 
L 117.437694 126.054828 
L 117.451001 126.054828 
L 117.650596 126.147825 
L 117.65725 126.181645 
L 117.697169 126.114005 
L 117.757047 126.13092 
L 117.823579 126.029465 
L 117.896764 125.92801 
L 117.943337 126.01255 
L 118.142933 125.9111 
L 118.149586 125.868833 
L 118.209465 125.970283 
L 118.242731 125.94492 
L 118.375794 126.037918 
L 118.402407 125.97874 
L 118.621963 125.851918 
L 118.728414 125.902643 
L 118.648575 125.843466 
L 118.735067 125.894196 
L 118.834865 125.843466 
L 118.781639 125.92801 
L 118.854824 125.86037 
L 118.934663 126.004103 
L 118.981235 125.953378 
L 119.081033 125.885733 
L 119.094339 125.919558 
L 119.234056 126.021013 
L 119.107646 125.9111 
L 119.24071 126.004103 
L 119.267322 126.029465 
L 119.393733 125.970283 
L 119.420346 126.021013 
L 119.486878 125.902643 
L 119.580022 125.843466 
L 119.526797 125.94492 
L 119.599982 125.87728 
L 119.659861 125.792741 
L 119.719739 125.9111 
L 119.806231 125.801188 
L 119.84615 125.86037 
L 119.979214 125.725101 
L 119.999174 125.758921 
L 121.210055 125.851918 
L 121.356425 126.021013 
L 121.363078 126.01255 
L 121.369731 125.99565 
L 121.442917 126.071733 
L 121.44957 126.071733 
L 121.562674 126.088643 
L 121.675778 125.953378 
L 121.715697 125.987188 
L 121.848761 126.004103 
L 121.768923 125.92801 
L 121.855415 125.99565 
L 121.875374 125.961825 
L 121.935253 126.037918 
L 121.948559 126.037918 
L 122.07497 126.088643 
L 121.988478 126.004103 
L 122.088276 126.037918 
L 122.234647 126.004103 
L 122.247953 126.054828 
L 122.294525 125.987188 
L 122.341098 126.004103 
L 122.447549 125.961825 
L 122.474162 125.987188 
L 122.587266 126.097095 
L 122.600572 126.06328 
L 122.713676 125.953378 
L 122.726983 125.987188 
L 122.786862 126.046375 
L 122.826781 126.01255 
L 122.886659 126.088643 
L 122.946538 126.037918 
L 123.299157 126.139367 
L 123.432221 126.257737 
L 123.438875 126.240827 
L 123.565285 126.190103 
L 123.571938 126.19855 
L 124.124153 126.308457 
L 124.13746 126.325367 
L 124.190685 126.240827 
L 124.30379 126.147825 
L 124.317096 126.164735 
L 124.476773 126.071733 
L 124.556611 125.936463 
L 124.59653 125.961825 
L 124.702981 126.037918 
L 124.709634 126.01255 
L 124.875964 125.742016 
L 124.915883 125.775826 
L 124.995722 125.826556 
L 124.949149 125.758921 
L 125.028988 125.801188 
L 125.102173 125.682834 
L 125.155398 125.725101 
L 125.208624 125.733558 
L 125.228584 125.665918 
L 125.255196 125.682834 
L 125.301769 125.572921 
L 125.361647 125.657471 
L 125.414873 125.750463 
L 125.468099 125.682834 
L 125.527977 125.649008 
L 125.501364 125.708196 
L 125.57455 125.708196 
L 125.674348 125.682834 
L 125.594509 125.742016 
L 125.70096 125.716648 
L 125.814065 125.758921 
L 125.820718 125.725101 
L 126.086845 125.556016 
L 126.120111 125.496834 
L 126.206603 125.589826 
L 126.266482 125.530654 
L 126.319707 125.589826 
L 126.499343 125.640556 
L 126.745512 125.412284 
L 126.772124 125.454561 
L 126.832003 125.429194 
L 126.891882 125.488376 
L 127.111437 125.336191 
L 127.11809 125.353101 
L 127.171316 125.386921 
L 127.204582 125.310834 
L 127.211235 125.310834 
L 127.297727 125.310834 
L 127.271114 125.370017 
L 127.311033 125.353101 
L 127.424137 125.302377 
L 127.430791 125.370017 
L 127.510629 125.370017 
L 127.477363 125.277014 
L 127.523935 125.327739 
L 127.663652 125.234747 
L 127.670306 125.243199 
L 127.883208 125.437646 
L 127.923127 125.386921 
L 127.94974 125.420741 
L 128.102763 125.209379 
L 128.122723 125.251647 
L 128.195908 125.133292 
L 128.26244 125.040285 
L 128.38885 124.913467 
L 128.515261 125.031837 
L 128.521914 125.014922 
L 128.648325 125.158654 
L 128.654978 125.124829 
L 128.761429 125.065652 
L 128.774736 125.091015 
L 128.854574 125.133292 
L 128.801348 125.048747 
L 128.894493 125.099467 
L 128.947719 125.014922 
L 129.014251 125.040285 
L 129.03421 125.124829 
L 129.127355 125.048747 
L 129.167274 125.014922 
L 129.227153 125.006475 
L 129.326951 124.964197 
L 129.353563 124.981112 
L 129.360217 125.006475 
L 129.433402 124.888105 
L 129.453361 124.820475 
L 129.539853 124.92193 
L 129.579772 124.938835 
L 129.586425 124.972655 
L 129.606385 124.981112 
L 129.726142 125.158654 
L 129.739449 125.150197 
L 129.832593 125.226284 
L 129.852553 125.184017 
L 129.879166 125.07411 
L 129.965657 125.158654 
L 129.99227 125.200922 
L 130.018883 125.10793 
L 130.058802 125.141739 
L 130.178559 125.082562 
L 130.278357 125.268562 
L 130.311623 125.226284 
L 130.364849 125.209379 
L 130.331583 125.260109 
L 130.411421 125.251647 
L 130.418074 125.260109 
L 130.45134 125.141739 
L 130.484606 125.175559 
L 130.517872 125.116377 
L 130.544485 125.217832 
L 130.591057 125.200922 
L 130.750734 125.091015 
L 130.917064 125.310834 
L 131.196498 125.226284 
L 131.342868 125.006475 
L 131.349521 124.98956 
L 131.402747 125.07411 
L 131.436013 125.048747 
L 131.562424 125.099467 
L 132.167864 125.200922 
L 132.274315 125.277014 
L 132.294275 125.251647 
L 133.086005 125.353101 
L 133.15919 125.412284 
L 133.199109 125.361559 
L 133.318867 125.327739 
L 133.219069 125.378464 
L 133.338826 125.361559 
L 133.498503 125.420741 
L 133.531769 125.446109 
L 133.631567 125.319292 
L 133.691445 125.310834 
L 133.671486 125.353101 
L 133.718058 125.386921 
L 133.851122 125.463009 
L 133.857775 125.454561 
L 133.864429 125.429194 
L 133.884388 125.496834 
L 133.957573 125.496834 
L 134.017452 125.581379 
L 134.057371 125.539101 
L 134.11725 125.615194 
L 134.170475 125.547559 
L 134.177129 125.522196 
L 134.256967 125.623646 
L 134.26362 125.623646 
L 134.44991 125.733558 
L 134.503135 125.843466 
L 134.569667 125.835008 
L 135.361397 125.94492 
L 135.55434 126.054828 
L 135.560993 126.037918 
L 135.567646 125.987188 
L 135.627525 126.071733 
L 135.674097 126.029465 
L 135.880346 126.13092 
L 135.953531 126.004103 
L 136.000104 126.088643 
L 136.106555 126.223912 
L 136.126514 126.173187 
L 136.15978 126.173187 
L 136.186393 126.240827 
L 136.199699 126.24928 
L 136.32611 126.325367 
L 136.332763 126.308457 
L 136.339416 126.291557 
L 136.385989 126.418375 
L 136.392642 126.409912 
L 136.519053 126.528282 
L 136.63881 126.494462 
L 136.698689 126.562092 
L 136.751914 126.536729 
L 136.871672 126.502919 
L 137.1378 126.663552 
L 137.191025 126.688914 
L 137.204332 126.756554 
L 137.210985 126.739644 
L 137.377315 126.832636 
L 137.397274 126.798821 
L 137.550298 126.705824 
L 137.623483 126.790369 
L 137.676708 126.756554 
L 138.016021 126.841099 
L 138.135779 126.925644 
L 138.262189 126.841099 
L 138.268843 126.857998 
L 138.348681 126.959453 
L 138.395253 126.934091 
L 138.40856 126.951006 
L 138.495051 126.959453 
L 138.561583 127.060908 
L 138.621462 127.035546 
L 138.734566 127.035546 
L 138.747872 127.052461 
L 138.774485 127.094728 
L 138.841017 126.993278 
L 139.007347 126.891824 
L 139.080532 126.841099 
L 139.03396 126.917186 
L 139.113798 126.900276 
L 139.266822 126.976368 
L 139.286781 126.942548 
L 140.876894 127.035546 
L 140.983345 127.094728 
L 140.989999 127.052461 
L 140.996652 127.043998 
L 141.029918 127.137001 
L 141.049877 127.128548 
L 141.156328 127.179278 
L 141.116409 127.086271 
L 141.169635 127.153911 
L 141.282739 127.213093 
L 141.209554 127.103186 
L 141.302699 127.196178 
L 141.502294 127.280723 
L 141.508948 127.238455 
L 141.588786 127.424455 
L 141.728503 127.483632 
L 141.735156 127.466727 
L 141.788382 127.602002 
L 141.795035 127.59354 
L 141.934752 127.59354 
L 142.220839 127.694994 
L 142.294025 127.720357 
L 142.247452 127.66118 
L 142.320637 127.66118 
L 142.333944 127.627365 
L 142.400476 127.720357 
L 142.413782 127.703452 
L 142.51358 127.745719 
L 142.533539 127.72882 
L 142.713176 127.796449 
L 142.82628 127.762634 
L 142.832933 127.779539 
L 142.906118 127.804902 
L 142.939384 127.737272 
L 142.99261 127.737272 
L 143.019223 127.813364 
L 143.032529 127.796449 
L 143.112367 127.931719 
L 143.178899 127.889452 
L 143.311963 127.787997 
L 143.331923 127.847174 
L 143.411761 127.897909 
L 143.438374 127.847174 
L 143.524865 127.754177 
L 143.564784 127.796449 
L 143.604704 127.779539 
L 143.697848 127.872542 
L 143.777687 127.821812 
L 143.804299 127.889452 
L 144.003895 127.813364 
L 144.682521 127.71191 
L 144.735746 127.627365 
L 144.70248 127.72882 
L 144.802278 127.66118 
L 144.862157 127.635817 
L 144.935342 127.737272 
L 145.168204 127.847174 
L 145.241389 127.880994 
L 145.281308 127.847174 
L 145.460945 127.754177 
L 145.467598 127.762634 
L 145.600662 127.889452 
L 145.627274 127.830264 
L 145.687153 127.931719 
L 145.707113 127.897909 
L 145.766991 127.940182 
L 145.820217 127.889452 
L 145.959934 127.779539 
L 145.979894 127.838727 
L 146.066385 127.940182 
L 146.099651 127.897909 
L 146.239368 127.787997 
L 146.45227 127.686547 
L 146.512149 127.627365 
L 146.605294 127.72882 
L 146.678479 127.694994 
L 146.711745 127.737272 
L 146.844809 127.804902 
L 146.924647 127.754177 
L 146.95126 127.813364 
L 147.077671 127.838727 
L 147.204081 127.779539 
L 147.130896 127.872542 
L 147.210734 127.796449 
L 147.337145 127.872542 
L 147.237347 127.745719 
L 147.350451 127.855632 
L 147.41033 127.914814 
L 147.463556 127.880994 
L 147.729683 128.075451 
L 147.736337 128.050089 
L 147.90932 127.940182 
L 147.789562 128.109271 
L 147.922626 127.973996 
L 148.049037 128.100814 
L 147.942586 127.957081 
L 148.068996 128.066994 
L 148.20206 128.041626 
L 148.208713 128.066994 
L 148.315164 127.957081 
L 148.381696 128.024726 
L 148.414962 127.999359 
L 148.581292 128.126176 
L 148.68109 128.219173 
L 148.721009 128.143081 
L 148.86738 127.999359 
L 148.880686 128.024726 
L 148.920605 127.990901 
L 149.007097 128.075451 
L 149.093588 127.999359 
L 149.14016 128.033174 
L 149.253265 128.033174 
L 149.366369 127.940182 
L 149.379675 127.965544 
L 149.446207 127.965544 
L 149.486127 127.923272 
L 149.579271 127.880994 
L 149.612537 127.940182 
L 149.652456 127.923272 
L 149.732295 127.948634 
L 149.858705 127.880994 
L 149.772214 127.965544 
L 149.865359 127.889452 
L 149.938544 127.999359 
L 149.998422 127.931719 
L 150.018382 127.940182 
L 150.124833 127.872542 
L 150.257897 127.762634 
L 150.26455 127.754177 
L 150.304469 127.821812 
L 150.324429 127.830264 
L 150.404267 127.855632 
L 150.351042 127.779539 
L 150.437533 127.830264 
L 150.45084 127.847174 
L 150.470799 127.771087 
L 150.517371 127.779539 
L 150.524025 127.754177 
L 150.603863 127.847174 
L 150.657089 127.787997 
L 150.716967 127.838727 
L 150.850031 127.855632 
L 150.76354 127.771087 
L 150.856684 127.838727 
L 151.036321 127.787997 
L 151.156078 127.855632 
L 151.089546 127.762634 
L 151.169384 127.830264 
L 151.448819 127.754177 
L 151.495391 127.762634 
L 151.568576 127.694994 
L 151.768172 127.804902 
L 151.881276 127.838727 
L 151.894583 127.830264 
L 152.626434 127.72882 
L 152.653047 127.66118 
L 152.706272 127.745719 
L 152.739538 127.694994 
L 152.82603 127.71191 
L 152.772804 127.64427 
L 152.852642 127.67809 
L 152.879255 127.71191 
L 152.965747 127.67809 
L 153.078851 127.754177 
L 153.085504 127.720357 
L 153.338325 127.618902 
L 153.344979 127.602002 
L 153.411511 127.686547 
L 153.444777 127.64427 
L 153.491349 127.71191 
L 153.544574 127.686547 
L 153.74417 127.771087 
L 153.750823 127.745719 
L 153.784089 127.830264 
L 153.837315 127.821812 
L 153.843968 127.830264 
L 153.877234 127.72882 
L 153.9105 127.762634 
L 153.983685 127.67809 
L 154.030258 127.737272 
L 154.07683 127.72882 
L 154.116749 127.804902 
L 154.855254 127.889452 
L 154.941745 127.931719 
L 154.968358 127.914814 
L 155.054849 127.872542 
L 155.081462 127.906356 
L 155.18126 127.889452 
L 155.147994 127.838727 
L 155.187913 127.872542 
L 155.32763 127.847174 
L 155.454041 127.923272 
L 155.553839 128.016264 
L 155.467347 127.897909 
L 155.607064 127.940182 
L 155.773394 127.787997 
L 155.800007 127.855632 
L 155.80666 127.880994 
L 155.866539 127.779539 
L 155.899805 127.804902 
L 156.711495 127.694994 
L 156.731454 127.694994 
L 156.751414 127.754177 
L 156.78468 127.754177 
L 156.897784 127.872542 
L 156.91109 127.847174 
L 157.017541 127.796449 
L 157.030848 127.813364 
L 157.070767 127.804902 
L 157.110686 127.864089 
L 157.217137 127.923272 
L 157.22379 127.914814 
L 157.343548 127.830264 
L 157.383467 127.855632 
L 157.403427 127.787997 
L 157.456652 127.830264 
L 157.736086 127.931719 
L 157.742739 127.948634 
L 157.795965 127.864089 
L 157.822578 127.872542 
L 157.935682 127.847174 
L 158.062093 127.914814 
L 158.221769 127.889452 
L 159.971559 127.982449 
L 160.051398 128.058536 
L 160.084664 128.024726 
L 160.157849 128.024726 
L 160.184461 128.058536 
L 160.277606 128.193811 
L 160.204421 128.050089 
L 160.317525 128.117719 
L 160.503815 128.050089 
L 160.563693 128.050089 
L 160.543734 127.999359 
L 160.596959 127.999359 
L 160.663491 128.066994 
L 160.72337 128.007811 
L 160.863087 128.024726 
L 160.776596 127.957081 
L 160.86974 128.016264 
L 161.075989 127.906356 
L 161.149174 127.872542 
L 161.189094 127.914814 
L 161.248972 127.990901 
L 161.295545 127.889452 
L 161.435262 127.990901 
L 161.441915 128.033174 
L 161.53506 127.940182 
L 161.614898 127.872542 
L 161.654817 127.948634 
L 161.714696 127.965544 
L 161.747962 127.897909 
L 161.874373 127.771087 
L 161.887679 127.796449 
L 161.980824 127.872542 
L 162.000783 127.813364 
L 162.592917 127.923272 
L 162.626183 127.957081 
L 162.652796 127.872542 
L 162.672756 127.872542 
L 162.706022 127.897909 
L 162.78586 127.804902 
L 162.885658 127.889452 
L 162.912271 127.880994 
L 163.018722 127.821812 
L 162.965496 127.914814 
L 163.025375 127.864089 
L 163.09856 127.889452 
L 163.058641 127.830264 
L 163.138479 127.872542 
L 163.717307 127.762634 
L 163.750573 127.720357 
L 163.817105 127.796449 
L 164.38928 127.686547 
L 164.449158 127.66118 
L 164.422546 127.737272 
L 164.495731 127.703452 
L 164.548956 127.66118 
L 164.608835 127.703452 
L 164.622141 127.652727 
L 164.68202 127.779539 
L 164.708633 127.72882 
L 164.755205 127.787997 
L 164.821737 127.745719 
L 165.034639 127.585087 
L 165.047946 127.618902 
L 165.067905 127.61045 
L 165.174356 127.669632 
L 165.393912 127.762634 
L 165.47375 127.872542 
L 165.507016 127.804902 
L 166.032618 127.889452 
L 166.079191 128.016264 
L 166.145723 127.906356 
L 166.198948 127.847174 
L 166.252174 127.906356 
L 166.405197 127.923272 
L 166.511648 127.889452 
L 166.45177 127.948634 
L 166.524955 127.897909 
L 166.604793 127.864089 
L 166.631406 127.914814 
L 166.684631 127.889452 
L 166.74451 127.931719 
L 166.89088 127.889452 
L 166.777776 127.973996 
L 166.904187 127.906356 
L 166.964065 127.957081 
L 166.924146 127.889452 
L 167.023944 127.940182 
L 167.137048 127.940182 
L 167.043904 127.914814 
L 167.143702 127.931719 
L 167.236846 127.897909 
L 167.183621 127.948634 
L 167.256806 127.923272 
L 167.276766 127.982449 
L 167.296725 127.897909 
L 167.36991 127.923272 
L 167.509627 128.007811 
L 167.516281 127.999359 
L 167.99531 127.889452 
L 168.021923 127.923272 
L 168.16164 127.855632 
L 168.188253 127.889452 
L 168.221519 127.796449 
L 168.268091 127.847174 
L 168.441074 127.669632 
L 168.480994 127.754177 
L 168.580791 127.64427 
L 168.720509 127.635817 
L 168.846919 127.745719 
L 168.946717 127.703452 
L 168.966677 127.737272 
L 169.133006 127.897909 
L 169.13966 127.889452 
L 169.671915 127.796449 
L 169.718488 127.754177 
L 169.771713 127.864089 
L 169.778366 127.872542 
L 169.811632 127.737272 
L 169.831592 127.762634 
L 171.055779 127.652727 
L 171.168884 127.686547 
L 171.235416 127.813364 
L 171.288641 127.720357 
L 171.355173 127.66118 
L 171.401745 127.694994 
L 171.508197 127.796449 
L 171.441665 127.67809 
L 171.534809 127.771087 
L 171.594688 127.754177 
L 171.561422 127.796449 
L 171.627954 127.813364 
L 171.707792 127.762634 
L 171.754365 127.838727 
L 172.366458 127.931719 
L 172.373112 127.957081 
L 172.413031 127.889452 
L 172.47291 127.906356 
L 172.506176 127.923272 
L 172.59932 127.880994 
L 173.504155 127.771087 
L 173.650525 127.618902 
L 173.530767 127.821812 
L 173.663831 127.66118 
L 173.796895 127.694994 
L 173.730363 127.585087 
L 173.810201 127.669632 
L 173.923306 127.500547 
L 174.009797 127.585087 
L 174.069676 127.67809 
L 174.116248 127.576635 
L 174.156167 127.492085 
L 174.275925 127.382177 
L 174.282578 127.399093 
L 174.36907 127.416003 
L 174.302538 127.382177 
L 174.389029 127.39064 
L 174.462214 127.331453 
L 174.488827 127.424455 
L 174.49548 127.416003 
L 174.741648 127.508995 
L 174.82814 127.618902 
L 174.868059 127.576635 
L 174.941244 127.602002 
L 174.967857 127.576635 
L 174.981163 127.542815 
L 175.027736 127.602002 
L 175.080961 127.568177 
L 175.174106 127.652727 
L 175.207372 127.618902 
L 175.59991 127.508995 
L 175.673096 127.500547 
L 175.706362 127.551272 
L 176.651115 127.441365 
L 176.89063 127.280723 
L 176.691034 127.475185 
L 176.897283 127.297633 
L 177.017041 127.322995 
L 177.150104 127.230003 
L 177.249902 127.25536 
L 177.190024 127.187731 
L 177.263209 127.238455 
L 177.489417 127.39064 
L 177.496071 127.365273 
L 177.569256 127.289185 
L 177.615828 127.348363 
L 177.689013 127.441365 
L 177.742239 127.39064 
L 177.808771 127.475185 
L 177.948488 127.492085 
L 177.861996 127.39064 
L 177.955141 127.483632 
L 178.760177 127.585087 
L 178.800096 127.669632 
L 178.886588 127.627365 
L 179.032958 127.61045 
L 179.059571 127.568177 
L 179.152716 127.635817 
L 179.24586 127.618902 
L 179.279126 127.652727 
L 179.425497 127.71191 
L 179.299086 127.635817 
L 179.43215 127.694994 
L 179.472069 127.618902 
L 179.538601 127.703452 
L 179.818035 127.813364 
L 179.917833 127.880994 
L 179.937793 127.864089 
L 180.070856 127.804902 
L 180.210573 127.838727 
L 180.297065 127.796449 
L 180.243839 127.855632 
L 180.317025 127.847174 
L 180.363597 127.889452 
L 180.416822 127.830264 
L 180.503314 127.787997 
L 180.523274 127.830264 
L 180.689603 127.957081 
L 181.155327 127.855632 
L 181.215206 127.813364 
L 181.241818 127.931719 
L 182.446046 127.864089 
L 182.485966 127.779539 
L 182.559151 127.813364 
L 182.705521 127.923272 
L 182.792012 127.965544 
L 182.74544 127.889452 
L 182.825278 127.940182 
L 182.938383 127.906356 
L 182.951689 127.948634 
L 182.991608 128.007811 
L 183.044834 127.914814 
L 183.05814 127.931719 
L 183.084753 127.889452 
L 183.144632 127.957081 
L 183.164591 127.940182 
L 183.896443 128.050089 
L 183.982934 128.075451 
L 184.002894 128.041626 
L 184.155917 127.906356 
L 184.18253 127.973996 
L 184.235755 127.982449 
L 184.202489 127.940182 
L 184.275675 127.931719 
L 184.288981 127.906356 
L 184.355513 127.965544 
L 184.382126 127.957081 
L 184.388779 127.973996 
L 184.442004 127.906356 
L 184.488577 127.931719 
L 184.648253 127.982449 
L 184.654907 127.973996 
L 184.714785 128.016264 
L 184.794624 127.897909 
L 184.80793 127.914814 
L 184.874462 127.804902 
L 184.947647 127.720357 
L 184.980913 127.796449 
L 185.040792 127.821812 
L 185.054098 127.754177 
L 185.080711 127.754177 
L 185.260347 127.864089 
L 185.28696 127.838727 
L 185.386758 127.889452 
L 185.506515 127.787997 
L 185.513169 127.754177 
L 185.593007 127.830264 
L 185.606313 127.813364 
L 185.612966 127.838727 
L 185.692805 127.71191 
L 185.726071 127.686547 
L 185.825869 127.754177 
L 185.91236 127.796449 
L 185.945626 127.745719 
L 186.045424 127.71191 
L 185.972239 127.754177 
L 186.05873 127.745719 
L 186.09865 127.686547 
L 186.185141 127.737272 
L 186.284939 127.67809 
L 186.304899 127.72882 
L 186.471228 127.779539 
L 186.477882 127.771087 
L 186.511148 127.737272 
L 186.544414 127.830264 
L 186.577679 127.813364 
L 186.584333 127.830264 
L 186.637558 127.72882 
L 186.677477 127.787997 
L 186.803888 127.771087 
L 186.903686 127.821812 
L 186.916992 127.804902 
L 187.010137 127.754177 
L 187.030097 127.804902 
L 187.083322 127.847174 
L 187.116588 127.762634 
L 187.129895 127.71191 
L 187.149854 127.787997 
L 187.223039 127.771087 
L 187.282918 127.787997 
L 187.256305 127.72882 
L 187.322837 127.72882 
L 187.342797 127.694994 
L 187.49582 127.771087 
L 187.549046 127.804902 
L 187.635537 127.71191 
L 187.768601 127.779539 
L 187.795214 127.737272 
L 187.934931 127.686547 
L 187.948237 127.71191 
L 187.97485 127.686547 
L 188.048035 127.686547 
L 188.154486 127.59354 
L 188.174446 127.61045 
L 188.374042 127.745719 
L 188.387348 127.703452 
L 189.318795 127.796449 
L 189.405287 127.914814 
L 189.438553 127.864089 
L 189.525044 127.830264 
L 189.451859 127.872542 
L 189.551657 127.847174 
L 189.717987 127.982449 
L 189.857704 127.880994 
L 190.004074 127.703452 
L 190.010727 127.72882 
L 190.117178 127.821812 
L 190.143791 127.787997 
L 190.276855 127.779539 
L 190.35004 127.796449 
L 190.303468 127.754177 
L 190.389959 127.771087 
L 190.443185 127.796449 
L 190.483104 127.745719 
L 190.503064 127.703452 
L 190.582902 127.787997 
L 190.616168 127.864089 
L 190.696006 127.796449 
L 190.815764 127.787997 
L 190.709313 127.813364 
L 190.822417 127.813364 
L 190.888949 127.821812 
L 190.882296 127.779539 
L 190.915562 127.796449 
L 190.968787 127.754177 
L 190.9954 127.813364 
L 191.022013 127.813364 
L 191.427857 127.71191 
L 191.521002 127.66118 
L 191.47443 127.745719 
L 191.547615 127.694994 
L 191.700638 127.864089 
L 191.827049 127.880994 
L 191.893581 127.889452 
L 191.926847 127.847174 
L 191.940153 127.796449 
L 192.033298 127.889452 
L 192.11979 127.880994 
L 192.139749 127.923272 
L 192.219587 127.923272 
L 192.159709 127.889452 
L 192.232894 127.872542 
L 192.731883 127.787997 
L 192.74519 127.745719 
L 192.798415 127.813364 
L 192.838334 127.813364 
L 192.89156 127.855632 
L 192.8716 127.796449 
L 192.938132 127.796449 
L 192.971398 127.737272 
L 193.024624 127.855632 
L 193.071196 127.889452 
L 193.104462 127.813364 
L 193.111115 127.813364 
L 193.20426 127.720357 
L 193.237526 127.737272 
L 193.343977 127.745719 
L 193.277445 127.703452 
L 193.363937 127.720357 
L 194.255465 127.618902 
L 194.268771 127.568177 
L 194.315343 127.635817 
L 194.368569 127.61045 
L 194.49498 127.67809 
L 194.614737 127.59354 
L 195.393161 127.686547 
L 195.479652 127.796449 
L 195.519571 127.779539 
L 195.55949 127.787997 
L 195.645982 127.669632 
L 195.779046 127.779539 
L 195.865537 127.745719 
L 195.885497 127.804902 
L 196.317955 127.914814 
L 196.55747 128.236089 
L 196.650614 128.337538 
L 196.670574 128.405173 
L 196.770372 128.362906 
L 196.863516 128.303718 
L 196.890129 128.329081 
L 197.003233 128.422083 
L 196.936702 128.312176 
L 197.023193 128.413631 
L 197.136297 128.379805 
L 197.056459 128.489718 
L 197.142951 128.405173 
L 197.289321 128.371358 
L 197.295974 128.379805 
L 197.522183 128.523538 
L 197.315934 128.354443 
L 197.535489 128.506623 
L 197.6619 128.430535 
L 197.575408 128.5489 
L 197.681859 128.498175 
L 197.775004 128.489718 
L 197.715125 128.430535 
L 197.781657 128.46435 
L 198.067744 128.565805 
L 198.074398 128.591168 
L 198.154236 128.489718 
L 198.207461 128.455898 
L 198.167542 128.51508 
L 198.247381 128.540443 
L 198.2873 128.46435 
L 198.387098 128.565805 
L 198.533468 128.438993 
L 198.673185 128.371358 
L 198.679838 128.388268 
L 198.693145 128.472813 
L 198.792942 128.430535 
L 200.323177 128.320628 
L 200.376402 128.345996 
L 200.449588 128.261451 
L 200.549386 128.236089 
L 200.575998 128.269898 
L 200.802207 128.430535 
L 200.80886 128.405173 
L 200.815513 128.362906 
L 200.882045 128.430535 
L 200.921964 128.379805 
L 201.028415 128.413631 
L 200.97519 128.354443 
L 201.035069 128.405173 
L 201.174786 128.244536 
L 201.194745 128.278356 
L 201.321156 128.362906 
L 201.327809 128.354443 
L 201.447567 128.362906 
L 201.547365 128.295261 
L 201.474179 128.371358 
L 201.560671 128.329081 
L 201.74696 128.244536 
L 201.753614 128.261451 
L 201.886677 128.320628 
L 201.973169 128.337538 
L 201.986475 128.354443 
L 202.086273 128.53199 
L 202.132846 128.506623 
L 202.252603 128.371358 
L 202.279216 128.430535 
L 202.352401 128.430535 
L 202.365707 128.472813 
L 202.385667 128.506623 
L 202.398973 128.438993 
L 202.465505 128.447451 
L 202.565303 128.371358 
L 202.591916 128.396721 
L 202.678407 128.354443 
L 202.731633 128.396721 
L 203.097559 128.295261 
L 203.104212 128.252988 
L 203.210663 128.286813 
L 203.363686 128.396721 
L 203.396952 128.345996 
L 203.736265 128.244536 
L 203.816103 128.202269 
L 203.749572 128.252988 
L 203.836063 128.252988 
L 203.969127 128.354443 
L 205.146742 128.269898 
L 205.219927 128.193811 
L 205.259846 128.236089 
L 205.39291 128.329081 
L 205.399563 128.295261 
L 206.477381 128.193811 
L 206.550566 128.227626 
L 206.583832 128.185359 
L 206.730202 128.379805 
L 206.756815 128.354443 
L 206.843306 128.303718 
L 206.876572 128.320628 
L 206.969717 128.405173 
L 206.989677 128.329081 
L 207.002983 128.295261 
L 207.082821 128.388268 
L 207.089475 128.388268 
L 207.102781 128.422083 
L 207.149353 128.337538 
L 207.195926 128.379805 
L 207.302377 128.320628 
L 207.322336 128.354443 
L 207.874551 128.430535 
L 208.000962 128.523538 
L 208.034228 128.540443 
L 208.074147 128.48126 
L 208.173945 128.438993 
L 208.180598 128.472813 
L 208.313662 128.557353 
L 208.346928 128.51508 
L 208.406807 128.506623 
L 208.380194 128.565805 
L 208.440073 128.565805 
L 208.460032 128.608083 
L 208.519911 128.51508 
L 208.539871 128.53199 
L 208.593096 128.489718 
L 208.626362 128.591168 
L 208.633015 128.574268 
L 208.652975 128.5489 
L 208.739467 128.58272 
L 208.759426 128.616535 
L 208.852571 128.557353 
L 208.865877 128.51508 
L 208.965675 128.523538 
L 209.065473 128.506623 
L 208.985635 128.5489 
L 209.092086 128.53199 
L 209.231803 128.66726 
L 209.324948 128.701085 
L 209.35156 128.692622 
L 209.411439 128.66726 
L 209.424745 128.717985 
L 209.451358 128.717985 
L 209.504584 128.701085 
L 209.571116 128.751805 
L 210.183209 128.861717 
L 210.243088 128.844807 
L 210.322927 128.971624 
L 210.442684 129.081537 
L 210.449337 129.098442 
L 210.469297 129.039259 
L 210.529176 129.022354 
L 210.555788 128.996992 
L 210.615667 129.064622 
L 210.635627 129.039259 
L 210.655586 129.022354 
L 210.762037 129.081537 
L 210.841876 128.996992 
L 210.875142 129.081537 
L 210.988246 129.182987 
L 211.001552 129.166077 
L 211.473929 129.250621 
L 211.500542 129.326709 
L 211.553767 129.233717 
L 211.58038 129.242164 
L 211.713444 129.208354 
L 211.786629 129.301346 
L 211.826548 129.250621 
L 211.946306 129.360534 
L 212.019491 129.411259 
L 212.05941 129.402801 
L 212.092676 129.377439 
L 212.152555 129.453526 
L 212.172514 129.445079 
L 212.278965 129.538071 
L 212.505174 129.639526 
L 212.624931 129.715618 
L 212.711423 129.673351 
L 212.691463 129.74098 
L 212.738036 129.707166 
L 212.817874 129.681803 
L 212.771302 129.74098 
L 212.857793 129.732528 
L 213.436621 129.631078 
L 213.536419 129.521166 
L 213.563032 129.538071 
L 213.702749 129.512708 
L 213.736015 129.546533 
L 213.795893 129.461983 
L 213.815853 129.521166 
L 213.915651 129.529618 
L 213.889038 129.580348 
L 213.928957 129.546533 
L 213.962223 129.554986 
L 213.995489 129.461983 
L 214.015449 129.495803 
L 214.1219 129.428163 
L 214.135206 129.445079 
L 214.181779 129.495803 
L 214.221698 129.419716 
L 214.248311 129.461983 
L 214.427947 129.267526 
L 214.521092 129.411259 
L 214.547704 129.335171 
L 214.620889 129.445079 
L 214.674115 129.377439 
L 214.733994 129.428163 
L 214.787219 129.385896 
L 214.91363 129.436616 
L 215.073307 129.377439 
L 215.07996 129.402801 
L 215.133185 129.377439 
L 215.612215 133.477863 
L 215.904956 135.329397 
L 215.971488 135.769026 
L 216.250922 137.273928 
L 216.756565 139.793363 
L 216.882975 140.39363 
L 217.102531 141.357443 
L 218.839014 147.571483 
L 218.845667 147.563036 
L 218.878933 147.681401 
L 219.311391 148.907295 
L 219.344657 148.991845 
L 219.564212 149.549839 
L 219.690623 149.879561 
L 220.009976 150.708105 
L 220.016629 150.691195 
L 220.056548 150.792649 
L 221.061181 153.09227 
L 221.067834 153.058445 
L 221.141019 153.26136 
L 221.460372 153.836263 
L 221.473679 153.827806 
L 221.480332 153.810901 
L 221.520251 153.946171 
L 221.526904 153.946171 
L 221.713194 154.31817 
L 221.786379 154.428072 
L 222.165611 155.121346 
L 222.172264 155.104436 
L 222.238796 155.205891 
L 222.431738 155.52716 
L 222.438392 155.501798 
L 222.511577 155.64552 
L 222.584762 155.738522 
L 222.777705 156.059786 
L 222.817624 156.152789 
L 223.010566 156.457153 
L 223.023873 156.440243 
L 223.077098 156.567061 
L 223.090405 156.541698 
L 223.389798 157.048967 
L 223.403105 157.04051 
L 223.409758 157.00669 
L 223.496249 157.141964 
L 223.742418 157.513959 
L 223.749071 157.497054 
L 223.808949 157.606961 
L 225.305918 159.399307 
L 225.325878 159.365498 
L 225.332531 159.35704 
L 225.379103 159.466947 
L 225.392409 159.433133 
L 225.552086 159.610664 
L 225.671844 159.720587 
L 225.784948 159.822037 
L 225.804907 159.813574 
L 225.858133 159.923497 
L 225.898052 159.906571 
L 226.004503 160.008031 
L 226.110954 160.101039 
L 226.244018 160.303938 
L 226.257325 160.295496 
L 226.283937 160.278571 
L 226.33051 160.380031 
L 226.343816 160.371578 
L 226.377082 160.346221 
L 226.49684 160.48148 
L 226.503493 160.464575 
L 226.583331 160.540658 
L 226.589984 160.523763 
L 227.035748 160.92112 
L 227.042401 160.895762 
L 227.10228 161.014117 
L 227.12224 160.997212 
L 227.255304 161.047937 
L 227.261957 161.014117 
L 227.328489 161.132471 
L 227.348448 161.132471 
L 227.368408 161.132471 
L 227.395021 161.208564 
L 227.421633 161.217027 
L 227.701068 161.436841 
L 227.707721 161.428378 
L 227.807519 161.394579 
L 227.820825 161.411473 
L 227.834131 161.394579 
L 228.007114 161.479113 
L 228.020421 161.436841 
L 228.100259 161.521396 
L 228.113566 161.504471 
L 228.22667 161.614383 
L 228.386347 161.749653 
L 228.393 161.741211 
L 228.412959 161.715843 
L 228.439572 161.783473 
L 228.486144 161.783473 
L 228.612555 161.91029 
L 228.645821 161.893385 
L 228.818804 162.020202 
L 228.85207 161.97792 
L 229.045013 162.087842 
L 229.18473 162.197755 
L 229.198036 162.189292 
L 229.35106 162.299194 
L 229.597228 162.468294 
L 229.603881 162.459831 
L 229.610534 162.434464 
L 229.650453 162.510556 
L 229.697026 162.519019 
L 229.896621 162.671204 
L 229.903275 162.637384 
L 229.916581 162.603554 
L 229.983113 162.688109 
L 230.009726 162.628921 
L 230.169402 162.806463 
L 230.242587 162.798011 
L 230.262547 162.857188 
L 230.2692 162.840294 
L 230.41557 162.907913 
L 230.448836 162.89946 
L 230.535328 163.017836 
L 230.555288 162.984005 
L 230.595207 163.060108 
L 230.635126 163.060108 
L 230.834722 163.161558 
L 230.974439 163.279912 
L 231.233913 163.389835 
L 231.440162 163.508189 
L 231.446815 163.499727 
L 231.513347 163.482822 
L 231.533307 163.542009 
L 231.546613 163.533557 
L 231.885926 163.635017 
L 232.052256 163.761834 
L 232.152054 163.753361 
L 232.172014 163.778729 
L 232.358303 163.837916 
L 232.424835 163.854821 
L 232.398222 163.880178 
L 232.451448 163.880178 
L 232.537939 163.973186 
L 232.577858 163.956271 
L 232.66435 163.939376 
L 232.690963 163.981638 
L 232.817373 164.032374 
L 232.717575 163.956271 
L 232.824026 164.023911 
L 232.903865 164.007006 
L 232.877252 164.066194 
L 232.923824 164.074636 
L 233.050235 164.142286 
L 233.090154 164.100003 
L 233.150033 164.150728 
L 233.183299 164.133823 
L 233.28975 164.269093 
L 233.369588 164.201453 
L 233.409507 164.209916 
L 233.522612 164.302903 
L 233.43612 164.201453 
L 233.542571 164.286008 
L 233.668982 164.39591 
L 233.76878 164.39591 
L 233.708901 164.319818 
L 233.782086 164.370543 
L 233.815352 164.404363 
L 233.888537 164.387458 
L 234.028254 164.49736 
L 234.500631 164.59881 
L 234.593776 164.624177 
L 234.520591 164.573452 
L 234.613735 164.615735 
L 234.640348 164.548085 
L 234.686921 164.641082 
L 234.720187 164.615735 
L 234.833291 164.742542 
L 234.846597 164.691817 
L 235.079459 164.843992 
L 235.086112 164.827087 
L 235.145991 164.767899 
L 235.199217 164.827087 
L 235.285708 164.843992 
L 235.239136 164.869359 
L 235.305668 164.860917 
L 235.432078 164.903179 
L 235.491957 164.886274 
L 235.531876 164.945452 
L 235.638327 164.936999 
L 235.571795 164.894717 
L 235.651634 164.920084 
L 235.66494 164.945452 
L 235.771391 164.945452 
L 235.798004 164.903179 
L 235.951027 165.030007 
L 235.964334 164.970809 
L 236.010906 165.080732 
L 236.064132 165.013092 
L 236.203849 165.080732 
L 236.316953 165.055364 
L 236.336913 165.089184 
L 236.942353 165.190623 
L 236.995579 165.173719 
L 237.062111 165.224443 
L 237.221787 165.300536 
L 237.22844 165.258274 
L 237.301626 165.232906 
L 237.2484 165.275168 
L 237.334892 165.275168 
L 238.865126 165.385091 
L 238.938311 165.401986 
L 238.891739 165.359723 
L 238.97823 165.376628 
L 239.018149 165.359723 
L 239.071375 165.427353 
L 239.091335 165.401986 
L 239.217745 165.444258 
L 239.324196 165.410459 
L 239.344156 165.444258 
L 239.357462 165.410459 
L 239.45726 165.444258 
L 239.596977 165.410459 
L 239.603631 165.418901 
L 239.703428 165.494993 
L 239.730041 165.469626 
L 239.756654 165.444258 
L 239.869758 165.486541 
L 239.982863 165.452721 
L 239.989516 165.478088 
L 240.016128 165.461183 
L 240.115926 165.503456 
L 240.195765 165.478088 
L 240.175805 165.537276 
L 240.222377 165.52035 
L 240.262297 165.461183 
L 240.328829 165.511908 
L 240.362095 165.562633 
L 240.43528 165.503456 
L 240.541731 165.562633 
L 240.555037 165.537276 
L 240.674795 165.554181 
L 240.681448 165.52035 
L 240.714714 165.562633 
L 240.801205 165.545718 
L 240.881044 165.596443 
L 240.847778 165.52035 
L 240.927616 165.571075 
L 241.014107 165.52035 
L 241.067333 165.571075 
L 241.193744 165.613348 
L 241.300195 165.630273 
L 241.213703 165.664083 
L 241.306848 165.647168 
L 241.426605 165.664083 
L 243.10321 165.765532 
L 243.156436 165.816257 
L 243.216314 165.773985 
L 243.375991 165.740165 
L 243.482442 165.7909 
L 243.495749 165.765532 
L 243.642119 165.714808 
L 243.701998 165.7909 
L 243.761876 165.782448 
L 243.855021 165.740165 
L 243.881634 165.765532 
L 244.846347 165.85854 
L 244.932838 165.883908 
L 244.87296 165.82471 
L 244.959451 165.866982 
L 244.966104 165.883908 
L 245.032636 165.816257 
L 245.065902 165.841625 
L 245.092515 165.782448 
L 245.198966 165.833183 
L 245.33203 165.833183 
L 245.365296 165.816257 
L 245.465094 165.89235 
L 245.62477 165.816257 
L 245.64473 165.833183 
L 245.731222 165.900802 
L 245.764488 165.866982 
L 248.359233 165.850077 
L 248.359233 165.850077 
" clip-path="url(#pcff3f31c1b)" style="fill: none; stroke: #000000; stroke-opacity: 0.5; stroke-width: 1.5; stroke-linecap: square"/>
   </g>
   <g id="patch_3">
    <path d="M 35.304688 173.52 
L 35.304688 7.2 
" style="fill: none; stroke: #000000; stroke-width: 0.8; stroke-linejoin: miter; stroke-linecap: square"/>
   </g>
   <g id="patch_4">
    <path d="M 35.304688 173.52 
L 258.504687 173.52 
" style="fill: none; stroke: #000000; stroke-width: 0.8; stroke-linejoin: miter; stroke-linecap: square"/>
   </g>
  </g>
 </g>
 <defs>
  <clipPath id="pcff3f31c1b">
   <rect x="35.304688" y="7.2" width="223.2" height="166.32"/>
  </clipPath>
 </defs>
</svg>
