<?xml version="1.0" encoding="utf-8" standalone="no"?>
<!DOCTYPE svg PUBLIC "-//W3C//DTD SVG 1.1//EN"
  "http://www.w3.org/Graphics/SVG/1.1/DTD/svg11.dtd">
<svg height="345.6pt" version="1.1" viewBox="0 0 460.8 345.6" width="460.8pt" xmlns="http://www.w3.org/2000/svg" xmlns:xlink="http://www.w3.org/1999/xlink">
 <metadata>
  <rdf:RDF xmlns:cc="http://creativecommons.org/ns#" xmlns:dc="http://purl.org/dc/elements/1.1/" xmlns:rdf="http://www.w3.org/1999/02/22-rdf-syntax-ns#">
   <cc:Work>
    <dc:type rdf:resource="http://purl.org/dc/dcmitype/StillImage"/>
    <dc:date>2024-08-06T14:41:17.049007</dc:date>
    <dc:format>image/svg+xml</dc:format>
    <dc:creator>
     <cc:Agent>
      <dc:title>Matplotlib v3.4.2, https://matplotlib.org/</dc:title>
     </cc:Agent>
    </dc:creator>
   </cc:Work>
  </rdf:RDF>
 </metadata>
 <defs>
  <style type="text/css">*{stroke-linecap:butt;stroke-linejoin:round;}</style>
 </defs>
 <g id="figure_1">
  <g id="patch_1">
   <path d="M 0 345.6 
L 460.8 345.6 
L 460.8 0 
L 0 0 
z
" style="fill:#ffffff;"/>
  </g>
  <g id="axes_1">
   <g id="patch_2">
    <path d="M 57.6 307.584 
L 414.72 307.584 
L 414.72 41.472 
L 57.6 41.472 
z
" style="fill:#ffffff;"/>
   </g>
   <g id="matplotlib.axis_1">
    <g id="xtick_1">
     <g id="line2d_1">
      <defs>
       <path d="M 0 0 
L 0 3.5 
" id="mf8b0e1b7d4" style="stroke:#000000;stroke-width:0.8;"/>
      </defs>
      <g>
       <use style="stroke:#000000;stroke-width:0.8;" x="95.211629" xlink:href="#mf8b0e1b7d4" y="307.584"/>
      </g>
     </g>
     <g id="text_1">
      <!-- 0.2 -->
      <g transform="translate(87.260067 322.182437)scale(0.1 -0.1)">
       <defs>
        <path d="M 2034 4250 
Q 1547 4250 1301 3770 
Q 1056 3291 1056 2328 
Q 1056 1369 1301 889 
Q 1547 409 2034 409 
Q 2525 409 2770 889 
Q 3016 1369 3016 2328 
Q 3016 3291 2770 3770 
Q 2525 4250 2034 4250 
z
M 2034 4750 
Q 2819 4750 3233 4129 
Q 3647 3509 3647 2328 
Q 3647 1150 3233 529 
Q 2819 -91 2034 -91 
Q 1250 -91 836 529 
Q 422 1150 422 2328 
Q 422 3509 836 4129 
Q 1250 4750 2034 4750 
z
" id="DejaVuSans-30" transform="scale(0.015625)"/>
        <path d="M 684 794 
L 1344 794 
L 1344 0 
L 684 0 
L 684 794 
z
" id="DejaVuSans-2e" transform="scale(0.015625)"/>
        <path d="M 1228 531 
L 3431 531 
L 3431 0 
L 469 0 
L 469 531 
Q 828 903 1448 1529 
Q 2069 2156 2228 2338 
Q 2531 2678 2651 2914 
Q 2772 3150 2772 3378 
Q 2772 3750 2511 3984 
Q 2250 4219 1831 4219 
Q 1534 4219 1204 4116 
Q 875 4013 500 3803 
L 500 4441 
Q 881 4594 1212 4672 
Q 1544 4750 1819 4750 
Q 2544 4750 2975 4387 
Q 3406 4025 3406 3419 
Q 3406 3131 3298 2873 
Q 3191 2616 2906 2266 
Q 2828 2175 2409 1742 
Q 1991 1309 1228 531 
z
" id="DejaVuSans-32" transform="scale(0.015625)"/>
       </defs>
       <use xlink:href="#DejaVuSans-30"/>
       <use x="63.623047" xlink:href="#DejaVuSans-2e"/>
       <use x="95.410156" xlink:href="#DejaVuSans-32"/>
      </g>
     </g>
    </g>
    <g id="xtick_2">
     <g id="line2d_2">
      <g>
       <use style="stroke:#000000;stroke-width:0.8;" x="139.20545" xlink:href="#mf8b0e1b7d4" y="307.584"/>
      </g>
     </g>
     <g id="text_2">
      <!-- 0.4 -->
      <g transform="translate(131.253887 322.182437)scale(0.1 -0.1)">
       <defs>
        <path d="M 2419 4116 
L 825 1625 
L 2419 1625 
L 2419 4116 
z
M 2253 4666 
L 3047 4666 
L 3047 1625 
L 3713 1625 
L 3713 1100 
L 3047 1100 
L 3047 0 
L 2419 0 
L 2419 1100 
L 313 1100 
L 313 1709 
L 2253 4666 
z
" id="DejaVuSans-34" transform="scale(0.015625)"/>
       </defs>
       <use xlink:href="#DejaVuSans-30"/>
       <use x="63.623047" xlink:href="#DejaVuSans-2e"/>
       <use x="95.410156" xlink:href="#DejaVuSans-34"/>
      </g>
     </g>
    </g>
    <g id="xtick_3">
     <g id="line2d_3">
      <g>
       <use style="stroke:#000000;stroke-width:0.8;" x="183.19927" xlink:href="#mf8b0e1b7d4" y="307.584"/>
      </g>
     </g>
     <g id="text_3">
      <!-- 0.6 -->
      <g transform="translate(175.247707 322.182437)scale(0.1 -0.1)">
       <defs>
        <path d="M 2113 2584 
Q 1688 2584 1439 2293 
Q 1191 2003 1191 1497 
Q 1191 994 1439 701 
Q 1688 409 2113 409 
Q 2538 409 2786 701 
Q 3034 994 3034 1497 
Q 3034 2003 2786 2293 
Q 2538 2584 2113 2584 
z
M 3366 4563 
L 3366 3988 
Q 3128 4100 2886 4159 
Q 2644 4219 2406 4219 
Q 1781 4219 1451 3797 
Q 1122 3375 1075 2522 
Q 1259 2794 1537 2939 
Q 1816 3084 2150 3084 
Q 2853 3084 3261 2657 
Q 3669 2231 3669 1497 
Q 3669 778 3244 343 
Q 2819 -91 2113 -91 
Q 1303 -91 875 529 
Q 447 1150 447 2328 
Q 447 3434 972 4092 
Q 1497 4750 2381 4750 
Q 2619 4750 2861 4703 
Q 3103 4656 3366 4563 
z
" id="DejaVuSans-36" transform="scale(0.015625)"/>
       </defs>
       <use xlink:href="#DejaVuSans-30"/>
       <use x="63.623047" xlink:href="#DejaVuSans-2e"/>
       <use x="95.410156" xlink:href="#DejaVuSans-36"/>
      </g>
     </g>
    </g>
    <g id="xtick_4">
     <g id="line2d_4">
      <g>
       <use style="stroke:#000000;stroke-width:0.8;" x="227.19309" xlink:href="#mf8b0e1b7d4" y="307.584"/>
      </g>
     </g>
     <g id="text_4">
      <!-- 0.8 -->
      <g transform="translate(219.241528 322.182437)scale(0.1 -0.1)">
       <defs>
        <path d="M 2034 2216 
Q 1584 2216 1326 1975 
Q 1069 1734 1069 1313 
Q 1069 891 1326 650 
Q 1584 409 2034 409 
Q 2484 409 2743 651 
Q 3003 894 3003 1313 
Q 3003 1734 2745 1975 
Q 2488 2216 2034 2216 
z
M 1403 2484 
Q 997 2584 770 2862 
Q 544 3141 544 3541 
Q 544 4100 942 4425 
Q 1341 4750 2034 4750 
Q 2731 4750 3128 4425 
Q 3525 4100 3525 3541 
Q 3525 3141 3298 2862 
Q 3072 2584 2669 2484 
Q 3125 2378 3379 2068 
Q 3634 1759 3634 1313 
Q 3634 634 3220 271 
Q 2806 -91 2034 -91 
Q 1263 -91 848 271 
Q 434 634 434 1313 
Q 434 1759 690 2068 
Q 947 2378 1403 2484 
z
M 1172 3481 
Q 1172 3119 1398 2916 
Q 1625 2713 2034 2713 
Q 2441 2713 2670 2916 
Q 2900 3119 2900 3481 
Q 2900 3844 2670 4047 
Q 2441 4250 2034 4250 
Q 1625 4250 1398 4047 
Q 1172 3844 1172 3481 
z
" id="DejaVuSans-38" transform="scale(0.015625)"/>
       </defs>
       <use xlink:href="#DejaVuSans-30"/>
       <use x="63.623047" xlink:href="#DejaVuSans-2e"/>
       <use x="95.410156" xlink:href="#DejaVuSans-38"/>
      </g>
     </g>
    </g>
    <g id="xtick_5">
     <g id="line2d_5">
      <g>
       <use style="stroke:#000000;stroke-width:0.8;" x="271.18691" xlink:href="#mf8b0e1b7d4" y="307.584"/>
      </g>
     </g>
     <g id="text_5">
      <!-- 1.0 -->
      <g transform="translate(263.235348 322.182437)scale(0.1 -0.1)">
       <defs>
        <path d="M 794 531 
L 1825 531 
L 1825 4091 
L 703 3866 
L 703 4441 
L 1819 4666 
L 2450 4666 
L 2450 531 
L 3481 531 
L 3481 0 
L 794 0 
L 794 531 
z
" id="DejaVuSans-31" transform="scale(0.015625)"/>
       </defs>
       <use xlink:href="#DejaVuSans-31"/>
       <use x="63.623047" xlink:href="#DejaVuSans-2e"/>
       <use x="95.410156" xlink:href="#DejaVuSans-30"/>
      </g>
     </g>
    </g>
    <g id="xtick_6">
     <g id="line2d_6">
      <g>
       <use style="stroke:#000000;stroke-width:0.8;" x="315.18073" xlink:href="#mf8b0e1b7d4" y="307.584"/>
      </g>
     </g>
     <g id="text_6">
      <!-- 1.2 -->
      <g transform="translate(307.229168 322.182437)scale(0.1 -0.1)">
       <use xlink:href="#DejaVuSans-31"/>
       <use x="63.623047" xlink:href="#DejaVuSans-2e"/>
       <use x="95.410156" xlink:href="#DejaVuSans-32"/>
      </g>
     </g>
    </g>
    <g id="xtick_7">
     <g id="line2d_7">
      <g>
       <use style="stroke:#000000;stroke-width:0.8;" x="359.174551" xlink:href="#mf8b0e1b7d4" y="307.584"/>
      </g>
     </g>
     <g id="text_7">
      <!-- 1.4 -->
      <g transform="translate(351.222988 322.182437)scale(0.1 -0.1)">
       <use xlink:href="#DejaVuSans-31"/>
       <use x="63.623047" xlink:href="#DejaVuSans-2e"/>
       <use x="95.410156" xlink:href="#DejaVuSans-34"/>
      </g>
     </g>
    </g>
    <g id="xtick_8">
     <g id="line2d_8">
      <g>
       <use style="stroke:#000000;stroke-width:0.8;" x="403.168371" xlink:href="#mf8b0e1b7d4" y="307.584"/>
      </g>
     </g>
     <g id="text_8">
      <!-- 1.6 -->
      <g transform="translate(395.216808 322.182437)scale(0.1 -0.1)">
       <use xlink:href="#DejaVuSans-31"/>
       <use x="63.623047" xlink:href="#DejaVuSans-2e"/>
       <use x="95.410156" xlink:href="#DejaVuSans-36"/>
      </g>
     </g>
    </g>
   </g>
   <g id="matplotlib.axis_2">
    <g id="ytick_1">
     <g id="line2d_9">
      <defs>
       <path d="M 0 0 
L -3.5 0 
" id="m83d407c930" style="stroke:#000000;stroke-width:0.8;"/>
      </defs>
      <g>
       <use style="stroke:#000000;stroke-width:0.8;" x="57.6" xlink:href="#m83d407c930" y="272.164201"/>
      </g>
     </g>
     <g id="text_9">
      <!-- −100 -->
      <g transform="translate(23.132812 275.96342)scale(0.1 -0.1)">
       <defs>
        <path d="M 678 2272 
L 4684 2272 
L 4684 1741 
L 678 1741 
L 678 2272 
z
" id="DejaVuSans-2212" transform="scale(0.015625)"/>
       </defs>
       <use xlink:href="#DejaVuSans-2212"/>
       <use x="83.789062" xlink:href="#DejaVuSans-31"/>
       <use x="147.412109" xlink:href="#DejaVuSans-30"/>
       <use x="211.035156" xlink:href="#DejaVuSans-30"/>
      </g>
     </g>
    </g>
    <g id="ytick_2">
     <g id="line2d_10">
      <g>
       <use style="stroke:#000000;stroke-width:0.8;" x="57.6" xlink:href="#m83d407c930" y="229.905267"/>
      </g>
     </g>
     <g id="text_10">
      <!-- −80 -->
      <g transform="translate(29.495313 233.704486)scale(0.1 -0.1)">
       <use xlink:href="#DejaVuSans-2212"/>
       <use x="83.789062" xlink:href="#DejaVuSans-38"/>
       <use x="147.412109" xlink:href="#DejaVuSans-30"/>
      </g>
     </g>
    </g>
    <g id="ytick_3">
     <g id="line2d_11">
      <g>
       <use style="stroke:#000000;stroke-width:0.8;" x="57.6" xlink:href="#m83d407c930" y="187.646333"/>
      </g>
     </g>
     <g id="text_11">
      <!-- −60 -->
      <g transform="translate(29.495313 191.445552)scale(0.1 -0.1)">
       <use xlink:href="#DejaVuSans-2212"/>
       <use x="83.789062" xlink:href="#DejaVuSans-36"/>
       <use x="147.412109" xlink:href="#DejaVuSans-30"/>
      </g>
     </g>
    </g>
    <g id="ytick_4">
     <g id="line2d_12">
      <g>
       <use style="stroke:#000000;stroke-width:0.8;" x="57.6" xlink:href="#m83d407c930" y="145.387399"/>
      </g>
     </g>
     <g id="text_12">
      <!-- −40 -->
      <g transform="translate(29.495313 149.186618)scale(0.1 -0.1)">
       <use xlink:href="#DejaVuSans-2212"/>
       <use x="83.789062" xlink:href="#DejaVuSans-34"/>
       <use x="147.412109" xlink:href="#DejaVuSans-30"/>
      </g>
     </g>
    </g>
    <g id="ytick_5">
     <g id="line2d_13">
      <g>
       <use style="stroke:#000000;stroke-width:0.8;" x="57.6" xlink:href="#m83d407c930" y="103.128465"/>
      </g>
     </g>
     <g id="text_13">
      <!-- −20 -->
      <g transform="translate(29.495313 106.927684)scale(0.1 -0.1)">
       <use xlink:href="#DejaVuSans-2212"/>
       <use x="83.789062" xlink:href="#DejaVuSans-32"/>
       <use x="147.412109" xlink:href="#DejaVuSans-30"/>
      </g>
     </g>
    </g>
    <g id="ytick_6">
     <g id="line2d_14">
      <g>
       <use style="stroke:#000000;stroke-width:0.8;" x="57.6" xlink:href="#m83d407c930" y="60.869531"/>
      </g>
     </g>
     <g id="text_14">
      <!-- 0 -->
      <g transform="translate(44.2375 64.66875)scale(0.1 -0.1)">
       <use xlink:href="#DejaVuSans-30"/>
      </g>
     </g>
    </g>
   </g>
   <g id="line2d_15">
    <path clip-path="url(#p27e231ab99)" d="M 73.832727 176.892445 
L 74.702532 176.84312 
L 75.789787 176.750853 
L 77.094494 176.46509 
L 77.964299 176.289062 
L 78.18175 176.368892 
L 78.399201 176.260861 
L 78.616652 176.315546 
L 78.834103 176.186697 
L 79.051555 176.447142 
L 80.13881 190.0931 
L 81.443517 201.208695 
L 82.748224 210.349073 
L 84.922735 223.219457 
L 86.879795 233.394489 
L 88.401953 240.065116 
L 89.70666 245.391244 
L 90.576465 248.615834 
L 91.66372 252.201513 
L 93.403329 257.421475 
L 94.708036 260.787656 
L 97.31745 266.443212 
L 100.361766 271.63522 
L 102.101375 273.84292 
L 102.971179 274.929364 
L 103.406082 275.496771 
L 103.840984 275.981528 
L 106.232946 278.284098 
L 108.190007 279.901549 
L 108.624909 280.062096 
L 109.929616 280.981357 
L 110.364518 281.173793 
L 110.79942 281.6446 
L 111.669225 282.155943 
L 112.539029 282.858708 
L 112.973932 283.05496 
L 114.278638 283.961252 
L 114.930992 284.279275 
L 115.800796 284.871748 
L 119.497466 286.620432 
L 120.584721 286.852871 
L 121.237075 287.055951 
L 122.541782 287.522915 
L 124.498842 288.558488 
L 124.933744 288.590236 
L 125.368646 288.74212 
L 125.803549 288.8149 
L 126.673353 289.016533 
L 127.760609 289.188598 
L 128.630413 289.327721 
L 131.89218 289.909595 
L 132.761985 290.281878 
L 134.501594 290.999073 
L 135.806301 291.517776 
L 136.676105 291.545492 
L 137.763361 291.777466 
L 138.198263 291.665703 
L 138.633166 291.810234 
L 139.720421 292.127406 
L 140.372775 292.368104 
L 141.242579 292.523121 
L 141.894933 292.59924 
L 142.982188 292.644404 
L 143.634542 292.701139 
L 144.504346 292.383561 
L 144.939249 292.456212 
L 146.461407 292.439228 
L 146.896309 292.286672 
L 147.548662 292.30671 
L 148.201016 292.261117 
L 148.635918 292.206641 
L 149.07082 292.034159 
L 149.723174 292.089033 
L 149.940625 292.150146 
L 150.375527 292.066014 
L 151.245332 292.211419 
L 151.462783 292.239452 
L 151.897685 292.13591 
L 152.115136 292.241431 
L 152.550038 292.202807 
L 152.984941 292.34037 
L 154.072196 292.453867 
L 154.72455 292.580796 
L 155.159452 292.510181 
L 155.376903 292.463441 
L 156.029257 290.423089 
L 156.246708 290.187215 
L 156.899061 290.067394 
L 157.986317 290.356907 
L 158.421219 290.386496 
L 158.856121 290.612323 
L 159.725926 290.78795 
L 162.335339 291.168791 
L 162.770242 291.143352 
L 163.205144 291.152399 
L 163.640046 291.209375 
L 164.509851 291.415441 
L 164.944753 291.565194 
L 165.814558 291.864227 
L 167.336716 292.293761 
L 168.858874 292.719309 
L 169.511227 292.801112 
L 171.033385 292.774075 
L 171.468287 292.805455 
L 172.772994 292.999167 
L 174.730054 293.109219 
L 175.382408 293.180917 
L 175.81731 293.251603 
L 176.252212 293.396452 
L 178.644175 293.266366 
L 179.079077 293.337264 
L 179.513979 293.304297 
L 179.948881 293.387792 
L 181.036137 293.501039 
L 181.688491 293.606749 
L 182.123393 293.588061 
L 182.993197 293.00217 
L 186.907318 293.662054 
L 187.994573 294.08571 
L 188.212025 294.267911 
L 190.821438 294.522868 
L 191.691243 294.348799 
L 192.778498 294.439607 
L 193.865754 294.579063 
L 194.300656 294.822787 
L 195.387912 294.941351 
L 195.822814 294.885183 
L 197.562423 294.943554 
L 197.997326 295.118606 
L 200.171837 295.069923 
L 200.606739 295.19112 
L 201.041642 295.17906 
L 201.476544 295.225432 
L 201.911446 295.147019 
L 202.128897 295.199063 
L 202.5638 295.110425 
L 202.998702 295.10509 
L 203.433604 295.02359 
L 203.868506 295.078104 
L 205.390664 295.152709 
L 206.043018 295.253996 
L 208.652431 295.342928 
L 209.087334 295.319036 
L 209.957138 295.488 
L 210.609492 295.384008 
L 211.044394 295.439701 
L 211.696747 295.380197 
L 212.13165 295.34377 
L 212.566552 295.468462 
L 213.436356 295.306028 
L 214.306161 295.257886 
L 214.741063 295.277562 
L 215.175965 295.248763 
L 215.610868 295.200938 
L 216.04577 295.126096 
L 216.480672 295.006569 
L 217.133026 295.02344 
L 218.00283 294.852191 
L 218.655184 294.78126 
L 219.742439 294.851002 
L 220.394793 293.433009 
L 220.612244 293.308933 
L 221.047146 293.313385 
L 221.482048 293.302176 
L 222.351853 293.427346 
L 223.439109 293.423463 
L 223.874011 293.415779 
L 224.308913 293.329802 
L 227.788131 293.599767 
L 228.223034 293.790846 
L 228.657936 293.675913 
L 229.52774 293.826197 
L 231.049898 293.902104 
L 232.137154 293.712148 
L 232.789507 293.732085 
L 233.441861 293.569975 
L 236.051274 293.734866 
L 236.486177 293.926262 
L 237.790884 294.260445 
L 238.225786 294.235147 
L 238.878139 294.345205 
L 240.182846 294.592196 
L 241.052651 294.597786 
L 241.270102 294.708684 
L 241.922455 294.737343 
L 242.574809 294.792431 
L 243.662064 294.37156 
L 244.096966 294.392085 
L 244.74932 294.180133 
L 246.70638 294.415997 
L 247.141282 294.583345 
L 249.315794 294.937481 
L 249.750696 294.976741 
L 249.968147 295.006815 
L 250.403049 294.817534 
L 250.837952 294.844655 
L 252.795012 294.802517 
L 254.31717 294.585797 
L 254.969523 294.850618 
L 255.186974 294.637358 
L 255.621877 293.32293 
L 256.27423 292.937217 
L 258.013839 292.868967 
L 258.448741 293.059612 
L 258.666193 293.221926 
L 259.101095 293.206345 
L 259.753448 293.388471 
L 261.493057 293.64684 
L 261.92796 293.84813 
L 263.667569 294.165335 
L 264.102471 294.155327 
L 264.537373 294.174923 
L 264.972275 294.178091 
L 265.84208 294.335813 
L 266.494433 294.483392 
L 266.929336 294.48972 
L 267.364238 294.568951 
L 267.79914 294.687161 
L 269.321298 294.479948 
L 271.060907 295.037002 
L 271.49581 295.038925 
L 271.930712 295.145182 
L 275.844832 294.940079 
L 277.584441 295.039916 
L 280.193855 294.692384 
L 281.498562 294.814721 
L 282.803269 294.759663 
L 283.238171 294.57561 
L 285.195231 294.376721 
L 285.847584 294.396342 
L 286.282487 294.571402 
L 287.587194 294.388104 
L 288.022096 294.320151 
L 288.456998 294.43385 
L 288.8919 294.432767 
L 289.109352 294.448592 
L 289.544254 294.256458 
L 289.979156 294.160127 
L 290.631509 293.953406 
L 294.328179 294.081705 
L 294.763081 293.952013 
L 295.197983 293.923808 
L 295.632886 294.149086 
L 295.850337 294.306306 
L 296.067788 294.188424 
L 296.285239 294.31552 
L 296.50269 293.98634 
L 297.589946 279.740645 
L 298.677201 270.341821 
L 299.764457 262.859004 
L 301.286615 253.930889 
L 302.591322 247.558415 
L 304.765833 238.742928 
L 306.287991 233.669301 
L 309.114856 224.948873 
L 313.246428 214.869734 
L 316.290743 208.733324 
L 320.639766 201.491691 
L 322.379375 198.857062 
L 324.553887 195.280224 
L 325.641142 193.769027 
L 326.728398 192.238841 
L 329.12036 188.797303 
L 329.990165 187.020648 
L 331.294872 184.479331 
L 331.947225 183.299792 
L 332.81703 181.277918 
L 333.034481 180.949467 
L 333.904285 178.338909 
L 334.121737 177.960743 
L 334.339188 176.785993 
L 334.556639 176.494036 
L 334.991541 174.632883 
L 335.208992 173.787884 
L 335.426443 172.359936 
L 335.643895 172.20495 
L 335.861346 169.426404 
L 336.078797 169.92785 
L 336.296248 166.286216 
L 336.513699 166.449925 
L 336.73115 161.247408 
L 336.948601 120.98756 
L 337.166052 106.429842 
L 337.600955 142.576126 
L 338.035857 157.530768 
L 338.470759 162.786982 
L 338.68821 162.893532 
L 338.905662 164.097248 
L 339.123113 163.509067 
L 339.340564 163.739742 
L 339.558015 163.416184 
L 339.775466 162.306425 
L 339.992917 162.243695 
L 340.210368 160.867912 
L 340.42782 160.968508 
L 340.645271 159.857236 
L 341.080173 159.202483 
L 341.297624 157.550917 
L 341.515075 158.369228 
L 341.732526 154.682976 
L 341.949977 156.668645 
L 342.167429 142.103543 
L 342.38488 103.905803 
L 342.602331 101.587662 
L 343.037233 136.831094 
L 343.472135 153.920828 
L 343.907038 161.615809 
L 344.34194 164.924657 
L 344.559391 165.297468 
L 344.776842 166.261125 
L 345.429196 167.253498 
L 345.646647 167.268816 
L 345.864098 167.546211 
L 346.081549 167.498371 
L 346.299 167.626854 
L 346.733902 167.471061 
L 346.951354 167.261493 
L 347.386256 166.480632 
L 348.25606 165.48995 
L 349.778218 164.198753 
L 350.648023 163.984155 
L 353.039985 161.70478 
L 353.257437 161.023731 
L 353.474888 160.85585 
L 353.692339 160.434404 
L 353.90979 159.547156 
L 354.127241 159.605265 
L 354.344692 158.354056 
L 354.562143 158.736053 
L 354.779594 157.233224 
L 354.997046 156.874009 
L 355.214497 156.126411 
L 355.431948 153.406037 
L 355.649399 155.200408 
L 356.084301 91.368953 
L 356.301752 103.670943 
L 356.736655 139.118231 
L 356.954106 149.955141 
L 357.389008 160.074551 
L 358.041362 165.998346 
L 358.258813 166.89405 
L 358.476264 168.260836 
L 358.693715 168.763963 
L 359.128617 170.133137 
L 359.998422 172.372816 
L 361.085677 174.135787 
L 362.390384 175.448551 
L 363.47764 176.282003 
L 365.652151 177.066793 
L 366.087054 177.366354 
L 366.739407 177.579928 
L 367.609211 177.930507 
L 369.131369 178.424 
L 372.175685 178.626301 
L 373.480392 178.550499 
L 374.350197 178.352592 
L 375.00255 178.306128 
L 375.437452 178.369649 
L 376.742159 178.057966 
L 380.003926 177.431735 
L 380.221377 177.10432 
L 380.65628 176.229736 
L 381.091182 175.785714 
L 383.483144 174.996273 
L 383.918047 174.986201 
L 384.5704 174.849749 
L 386.092558 174.866384 
L 386.744911 174.753012 
L 387.179814 174.669212 
L 388.48452 174.387337 
L 388.919423 174.251374 
L 389.354325 173.9897 
L 389.789227 173.935294 
L 390.659032 173.463074 
L 391.093934 173.169502 
L 391.746288 172.830548 
L 393.703348 171.807315 
L 395.442957 170.345616 
L 395.877859 170.119968 
L 396.965115 169.165087 
L 398.269822 168.474208 
L 398.487273 168.412925 
L 398.487273 168.412925 
" style="fill:none;stroke:#000000;stroke-linecap:square;stroke-width:1.5;"/>
   </g>
   <g id="line2d_16">
    <path clip-path="url(#p27e231ab99)" d="M 73.832727 178.562027 
L 74.919983 180.088927 
L 75.354885 180.539946 
L 75.789787 180.904734 
L 76.22469 181.106478 
L 76.442141 181.332073 
L 76.877043 181.532479 
L 77.529397 181.846159 
L 77.746848 181.821761 
L 77.964299 182.091866 
L 78.18175 181.987316 
L 78.616652 182.320021 
L 78.834103 182.40227 
L 79.051555 182.284858 
L 79.921359 157.532893 
L 80.573712 145.370865 
L 81.226066 130.293384 
L 81.660968 70.188672 
L 82.313322 110.714374 
L 82.530773 117.358291 
L 82.965675 123.177154 
L 83.183126 123.111059 
L 83.400577 123.912647 
L 83.83548 122.956301 
L 84.052931 122.226403 
L 84.270382 120.258145 
L 84.487833 119.835617 
L 84.705284 116.484729 
L 84.922735 115.955828 
L 85.140186 106.181035 
L 85.357637 76.402861 
L 85.575089 63.096274 
L 86.444893 104.31723 
L 86.879795 112.533177 
L 87.314698 115.958073 
L 87.7496 116.329803 
L 87.967051 116.284361 
L 88.184502 115.739196 
L 88.401953 115.702129 
L 88.619404 114.594915 
L 88.836856 114.410757 
L 89.271758 110.62969 
L 89.489209 106.493465 
L 89.924111 61.161644 
L 90.141562 62.569322 
L 90.793916 95.367072 
L 91.228818 106.372769 
L 91.66372 111.783699 
L 92.098623 113.909982 
L 92.316074 114.27997 
L 92.533525 114.335979 
L 92.750976 114.823318 
L 93.838232 112.099381 
L 94.273134 109.944105 
L 94.490585 107.411327 
L 94.708036 106.660217 
L 94.925487 97.159514 
L 95.36039 58.08581 
L 95.577841 65.076435 
L 96.230194 97.028918 
L 96.665097 106.867281 
L 97.099999 111.543877 
L 97.534901 113.644912 
L 97.969803 114.395922 
L 98.404706 114.724748 
L 98.622157 114.577499 
L 98.839608 114.198433 
L 99.926864 110.538943 
L 100.144315 107.934622 
L 100.361766 106.780509 
L 100.579217 95.594252 
L 100.796668 69.484706 
L 101.014119 57.551302 
L 101.23157 64.788951 
L 101.883924 96.221627 
L 102.318826 106.736838 
L 102.753728 111.901732 
L 103.188631 114.297904 
L 103.406082 114.732514 
L 103.840984 114.946306 
L 104.493337 114.304859 
L 104.710789 113.70746 
L 104.92824 113.567177 
L 105.580593 111.009171 
L 106.450398 105.121277 
L 106.667849 93.813902 
L 106.8853 68.108783 
L 107.102751 56.816668 
L 107.320202 64.505978 
L 107.972556 97.112877 
L 108.407458 107.130711 
L 108.84236 111.704191 
L 109.494714 114.223402 
L 109.929616 114.726706 
L 110.364518 114.569435 
L 110.581969 114.545147 
L 111.451774 111.991864 
L 112.104127 108.916529 
L 112.321578 106.415299 
L 112.539029 105.401492 
L 112.756481 94.000378 
L 112.973932 68.329913 
L 113.191383 56.461338 
L 113.408834 63.274506 
L 114.061187 94.702385 
L 114.49609 105.349609 
L 114.930992 110.603222 
L 115.365894 113.323999 
L 116.235699 114.792588 
L 116.45315 114.768723 
L 117.540406 113.4393 
L 118.627661 109.802546 
L 118.845112 107.510513 
L 119.062563 106.803222 
L 119.280015 96.659956 
L 119.714917 57.131895 
L 119.932368 64.244935 
L 120.584721 96.550582 
L 121.019624 106.507629 
L 121.454526 111.720938 
L 122.106879 115.363067 
L 122.541782 116.522272 
L 122.759233 116.702862 
L 123.194135 116.314783 
L 123.411586 115.906033 
L 123.629037 115.224913 
L 123.846488 115.016129 
L 124.933744 111.736785 
L 125.151195 110.512439 
L 125.368646 109.92938 
L 125.586098 107.51515 
L 125.803549 106.43619 
L 126.021 97.796272 
L 126.455902 56.296173 
L 126.673353 62.222561 
L 127.325707 95.615271 
L 127.760609 106.184083 
L 128.195511 111.334226 
L 128.630413 113.337467 
L 129.282767 115.076993 
L 129.717669 114.889149 
L 129.93512 114.607664 
L 130.370023 113.51395 
L 130.587474 113.186482 
L 130.804925 113.131032 
L 131.457278 111.341193 
L 131.674729 110.187386 
L 131.89218 109.868098 
L 132.109632 107.707401 
L 132.327083 106.659314 
L 132.544534 99.091447 
L 132.979436 56.520605 
L 133.196887 60.620424 
L 133.849241 93.816603 
L 134.284143 104.486371 
L 134.719045 109.970533 
L 135.153948 112.25744 
L 135.58885 113.34052 
L 135.806301 113.705385 
L 136.241203 113.797081 
L 136.458654 113.584234 
L 136.676105 112.972127 
L 136.893557 112.697455 
L 137.980812 110.189252 
L 138.850617 105.2329 
L 139.068068 100.572962 
L 139.50297 59.193519 
L 139.720421 58.444301 
L 140.590226 95.908244 
L 141.025128 104.397517 
L 141.46003 108.457746 
L 142.112384 111.009071 
L 142.329835 111.531708 
L 142.764737 111.874038 
L 143.417091 112.319845 
L 144.286895 111.946636 
L 145.374151 109.251044 
L 146.243955 103.090983 
L 146.461407 97.11393 
L 146.896309 56.760479 
L 147.11376 57.760334 
L 147.983565 96.083622 
L 148.418467 104.561182 
L 148.853369 109.111371 
L 149.288271 111.351672 
L 149.723174 112.456748 
L 149.940625 112.709431 
L 150.592978 112.613795 
L 150.810429 112.352758 
L 151.462783 110.987779 
L 152.550038 107.336648 
L 152.767489 105.253145 
L 152.984941 104.420548 
L 153.202392 95.07736 
L 153.637294 55.364095 
L 153.854745 58.614828 
L 154.72455 96.808708 
L 155.159452 104.822072 
L 155.594354 108.401245 
L 156.029257 110.685138 
L 156.464159 111.656303 
L 157.333963 112.776566 
L 157.768866 113.005836 
L 157.986317 112.955664 
L 158.203768 113.056306 
L 158.421219 112.904278 
L 159.943377 107.44285 
L 160.378279 103.443383 
L 161.030633 56.839237 
L 161.465535 75.619793 
L 161.900437 92.52741 
L 162.335339 102.363941 
L 162.770242 107.703746 
L 163.205144 110.660474 
L 163.857497 112.576996 
L 164.509851 112.732647 
L 164.727302 112.855142 
L 164.944753 112.70716 
L 165.814558 111.325392 
L 166.032009 110.905809 
L 167.119264 106.311012 
L 167.554167 101.504812 
L 168.20652 56.306274 
L 169.293776 99.748313 
L 169.728678 105.484437 
L 170.16358 108.30211 
L 170.598483 109.864074 
L 170.815934 110.339879 
L 171.033385 110.531018 
L 171.250836 110.558492 
L 171.685738 110.327452 
L 171.903189 110.399859 
L 172.120641 110.319123 
L 172.555543 109.86824 
L 173.642799 106.578905 
L 174.295152 101.890584 
L 174.512603 100.211178 
L 174.730054 91.466287 
L 175.164956 55.257305 
L 175.382408 56.558628 
L 176.469663 95.438782 
L 176.904566 101.761718 
L 177.339468 105.80563 
L 177.77437 108.047867 
L 178.209272 109.108006 
L 178.861626 110.004563 
L 179.079077 110.101757 
L 179.513979 110.070566 
L 179.73143 110.167668 
L 180.166333 109.865863 
L 180.818686 108.496927 
L 181.036137 107.487207 
L 181.253588 107.021308 
L 181.688491 105.341709 
L 182.123393 101.899128 
L 182.340844 98.327539 
L 182.775746 59.961116 
L 182.993197 55.587198 
L 183.4281 73.820228 
L 183.863002 90.167557 
L 184.297904 100.209196 
L 184.732806 105.470644 
L 185.38516 109.06306 
L 185.820062 110.252451 
L 186.472416 111.136958 
L 187.124769 110.954317 
L 187.777122 109.858554 
L 188.212025 108.819986 
L 188.429476 108.545694 
L 188.646927 107.929906 
L 188.864378 107.680537 
L 189.516731 104.161623 
L 189.734183 102.201279 
L 189.951634 98.214463 
L 190.386536 58.907416 
L 190.603987 56.25302 
L 191.038889 75.106027 
L 191.473792 91.415031 
L 191.908694 100.398275 
L 192.343596 105.919421 
L 192.778498 108.702343 
L 193.213401 110.430023 
L 193.648303 111.098951 
L 194.300656 111.530192 
L 194.95301 111.155151 
L 195.822814 108.82814 
L 196.91007 104.689138 
L 197.344972 100.871695 
L 197.562423 89.17441 
L 197.997326 54.637136 
L 198.214777 59.177216 
L 198.86713 89.149935 
L 199.302033 99.700249 
L 199.736935 105.991217 
L 200.389288 110.57987 
L 200.82419 112.357251 
L 201.259093 112.769569 
L 201.693995 112.899525 
L 201.911446 112.748465 
L 202.128897 112.768153 
L 202.346348 112.656348 
L 203.216153 111.127814 
L 204.738311 105.046514 
L 205.173213 101.828765 
L 205.390664 92.462105 
L 205.825567 55.425884 
L 206.043018 58.479639 
L 206.912822 94.127614 
L 207.347725 101.601281 
L 207.782627 106.012821 
L 208.217529 108.144037 
L 208.869882 109.936887 
L 209.087334 110.270461 
L 209.522236 110.420279 
L 209.739687 110.409534 
L 209.957138 110.235069 
L 211.261845 107.440047 
L 211.914198 104.474802 
L 212.13165 103.377936 
L 212.566552 99.47159 
L 212.784003 94.639489 
L 213.218905 57.36136 
L 213.436356 55.350965 
L 214.523612 96.030766 
L 215.175965 104.212997 
L 215.610868 107.249194 
L 216.04577 108.808443 
L 216.698123 110.124727 
L 216.915574 110.278691 
L 217.133026 110.579541 
L 217.567928 110.576145 
L 218.220281 109.963582 
L 219.524988 107.29446 
L 219.742439 106.738161 
L 220.394793 104.245747 
L 220.612244 103.545188 
L 220.829695 102.393395 
L 221.264597 98.112217 
L 221.916951 55.327207 
L 222.134402 61.207896 
L 222.786755 87.203237 
L 223.221657 96.570976 
L 223.65656 102.216343 
L 224.091462 105.146771 
L 224.743815 107.528189 
L 224.961267 108.025108 
L 225.396169 108.099271 
L 225.61362 108.445591 
L 226.048522 108.48343 
L 226.265973 108.324028 
L 226.918327 107.138792 
L 228.005582 103.616982 
L 228.657936 100.407842 
L 229.092838 97.03699 
L 229.310289 92.506109 
L 229.745191 58.169399 
L 229.962643 55.236474 
L 230.180094 61.718088 
L 230.832447 86.995498 
L 231.267349 95.833106 
L 231.702252 101.120594 
L 232.354605 105.469345 
L 233.441861 107.85917 
L 233.876763 107.933488 
L 234.094214 107.821237 
L 234.311665 107.841702 
L 234.746568 108.169452 
L 234.964019 108.090666 
L 235.833823 105.986086 
L 236.486177 104.281423 
L 236.921079 101.807946 
L 237.355981 98.003399 
L 237.573432 88.085392 
L 238.008335 54.274978 
L 238.225786 56.264468 
L 239.09559 90.796532 
L 239.530493 99.078688 
L 239.965395 103.260867 
L 240.617748 107.194314 
L 241.705004 109.702739 
L 242.357357 110.302114 
L 243.227162 109.935147 
L 243.662064 109.167034 
L 245.184222 103.943432 
L 245.619124 100.355451 
L 245.836576 94.312354 
L 246.271478 56.111311 
L 246.488929 54.922397 
L 247.793636 99.028962 
L 248.228538 104.149263 
L 248.880891 108.201189 
L 249.315794 109.504748 
L 249.533245 109.978087 
L 249.968147 110.277631 
L 250.620501 110.386219 
L 251.272854 109.772268 
L 251.707756 108.801407 
L 252.142658 107.911516 
L 252.36011 107.344122 
L 253.229914 103.599397 
L 253.664816 100.143044 
L 253.882268 97.904521 
L 254.534621 54.053593 
L 254.752072 59.656446 
L 255.404426 88.629145 
L 255.839328 98.647052 
L 256.27423 103.968919 
L 256.926583 108.390434 
L 257.361486 110.119175 
L 258.23129 111.553666 
L 258.666193 111.588895 
L 259.318546 111.073115 
L 259.535997 110.99685 
L 260.18835 110.255852 
L 261.275606 107.416758 
L 261.710508 105.023691 
L 262.145411 100.685893 
L 262.362862 88.894404 
L 262.797764 54.210686 
L 263.015215 57.509595 
L 263.88502 92.651816 
L 264.319922 100.297336 
L 264.754824 105.424839 
L 265.407178 109.366722 
L 266.059531 110.831889 
L 266.711885 110.395884 
L 267.79914 109.010579 
L 268.668945 106.624505 
L 268.886396 105.997491 
L 269.321298 104.052489 
L 269.7562 100.298229 
L 269.973652 94.533167 
L 270.408554 57.312311 
L 270.626005 54.888059 
L 270.843456 61.628916 
L 271.49581 88.301987 
L 271.930712 97.753754 
L 272.365614 103.684154 
L 272.800516 106.515087 
L 273.45287 108.878357 
L 273.670321 109.049462 
L 274.105223 109.623015 
L 275.844832 107.301346 
L 276.062283 107.172173 
L 276.497186 106.245172 
L 277.149539 104.369206 
L 277.584441 101.986154 
L 278.019344 96.87417 
L 278.236795 85.086706 
L 278.454246 64.574284 
L 278.671697 54.686496 
L 278.889148 57.373548 
L 279.758953 90.481127 
L 280.193855 98.760517 
L 280.628757 103.664718 
L 281.06366 107.510564 
L 281.498562 109.341841 
L 281.933464 110.678924 
L 282.585817 111.280482 
L 283.238171 112.005668 
L 283.455622 111.856739 
L 284.107975 110.464617 
L 285.412682 107.874979 
L 285.630133 107.318793 
L 286.499938 101.013921 
L 286.717389 96.654981 
L 287.152291 57.682931 
L 287.369742 54.050073 
L 287.587194 60.792997 
L 288.239547 88.796803 
L 288.674449 98.777966 
L 289.109352 104.045344 
L 289.761705 108.666848 
L 289.979156 109.732846 
L 290.414058 110.548996 
L 290.848961 110.490406 
L 291.066412 110.535469 
L 291.501314 110.209109 
L 292.153667 109.079149 
L 292.58857 107.977649 
L 293.458374 104.99557 
L 294.328179 99.15342 
L 294.54563 94.357708 
L 294.980532 57.129881 
L 295.197983 53.568 
L 295.415434 59.254622 
L 296.067788 86.879685 
L 296.720141 107.276038 
L 297.155044 124.591419 
L 297.807397 140.695711 
L 298.45975 151.38883 
L 299.112104 159.029704 
L 299.981908 166.143183 
L 300.851713 171.449618 
L 301.721517 175.703833 
L 302.808773 179.537974 
L 303.461126 181.276101 
L 304.983284 184.685952 
L 305.635638 186.11585 
L 306.287991 187.497256 
L 308.245051 189.220592 
L 308.897405 189.488274 
L 309.332307 189.578423 
L 309.767209 189.852106 
L 310.202112 189.987842 
L 310.854465 190.232034 
L 313.246428 190.831474 
L 314.116232 191.138012 
L 314.768586 191.302613 
L 317.160548 191.662789 
L 318.465255 191.650035 
L 318.900157 191.467 
L 319.769962 191.575734 
L 320.422315 191.45845 
L 321.944473 191.299834 
L 322.596826 191.267584 
L 323.24918 191.170966 
L 323.901533 190.932307 
L 324.553887 190.697633 
L 326.293496 190.248395 
L 327.380751 190.147985 
L 328.902909 190.238698 
L 329.990165 190.100127 
L 331.077421 190.237121 
L 331.512323 190.248463 
L 332.382128 190.124143 
L 332.81703 190.139812 
L 333.469383 189.904152 
L 333.904285 189.910668 
L 335.208992 190.135245 
L 335.643895 190.069593 
L 336.513699 190.037787 
L 337.166052 189.871947 
L 337.600955 189.870191 
L 338.035857 189.864468 
L 338.470759 189.915705 
L 340.42782 189.928435 
L 341.732526 189.825446 
L 342.38488 189.728241 
L 343.907038 189.232529 
L 344.559391 189.002225 
L 344.994293 188.938668 
L 346.733902 188.851218 
L 346.951354 188.748199 
L 347.386256 188.829945 
L 348.038609 188.695523 
L 348.690963 188.717413 
L 349.125865 188.673289 
L 349.778218 188.731951 
L 350.865474 188.776678 
L 351.95273 188.949987 
L 352.387632 188.944588 
L 353.90979 189.267741 
L 354.344692 189.242327 
L 354.562143 189.329874 
L 355.431948 189.225142 
L 356.519204 189.289678 
L 357.389008 189.300441 
L 358.041362 189.293675 
L 359.998422 189.198028 
L 360.433324 189.355095 
L 362.172933 189.135709 
L 363.695091 189.032108 
L 364.129993 189.264043 
L 367.174309 189.046661 
L 367.826663 189.108025 
L 368.696467 189.027028 
L 368.913918 189.149118 
L 369.783723 188.896972 
L 370.870979 188.671537 
L 371.305881 188.75553 
L 373.04549 188.605897 
L 373.480392 188.489323 
L 374.132746 188.501073 
L 374.567648 188.423066 
L 375.437452 188.478224 
L 376.95961 188.458325 
L 377.394513 188.451855 
L 377.829415 188.5782 
L 379.351573 188.630939 
L 380.221377 188.826157 
L 380.65628 188.826439 
L 381.526084 188.896462 
L 381.960986 188.900773 
L 382.395889 188.907161 
L 382.61334 188.831197 
L 383.700596 189.044372 
L 384.135498 189.038606 
L 385.005302 189.237104 
L 385.440205 189.217185 
L 385.875107 189.31301 
L 386.744911 189.357747 
L 387.179814 189.431832 
L 387.832167 189.295504 
L 389.136874 189.338747 
L 390.659032 189.430315 
L 391.746288 189.311562 
L 392.18119 189.349039 
L 392.616092 189.287668 
L 393.050994 189.33993 
L 393.703348 189.261519 
L 394.13825 189.284962 
L 394.573152 189.195215 
L 395.225506 189.097859 
L 397.182566 189.26478 
L 397.617468 189.255824 
L 398.487273 189.379215 
L 398.487273 189.379215 
" style="fill:none;stroke:#000000;stroke-linecap:square;stroke-width:1.5;"/>
   </g>
   <g id="line2d_17">
    <path clip-path="url(#p27e231ab99)" d="M 73.832727 182.234268 
L 74.702532 182.210542 
L 75.789787 182.316532 
L 76.659592 182.35648 
L 76.877043 182.35196 
L 77.529397 182.570539 
L 78.18175 182.505723 
L 78.399201 182.475398 
L 78.616652 182.576822 
L 79.051555 182.627579 
L 80.13881 188.644057 
L 81.226066 192.545274 
L 82.748224 197.202142 
L 84.052931 200.627844 
L 88.836856 211.342689 
L 89.271758 212.099208 
L 90.359014 214.189614 
L 92.533525 217.755395 
L 93.403329 219.07167 
L 94.490585 220.747837 
L 97.099999 224.10993 
L 98.187254 225.535533 
L 98.622157 225.990922 
L 99.709412 227.204452 
L 100.796668 228.462577 
L 101.666473 229.525692 
L 106.8853 234.292504 
L 107.320202 234.603597 
L 107.755104 235.062155 
L 108.624909 235.678555 
L 109.277262 236.206637 
L 111.234323 237.772351 
L 111.886676 238.296638 
L 116.235699 241.389496 
L 118.41021 242.561086 
L 119.062563 242.954679 
L 125.151195 246.040606 
L 125.586098 246.253501 
L 126.021 246.474108 
L 128.847865 247.626254 
L 129.500218 247.988389 
L 131.239827 248.6043 
L 142.547286 251.686923 
L 143.417091 251.83201 
L 144.069444 252.097286 
L 145.1567 252.214901 
L 145.809053 252.194702 
L 148.418467 252.983695 
L 149.07082 253.090555 
L 149.940625 253.314457 
L 150.810429 253.501098 
L 154.72455 253.729031 
L 156.246708 253.991381 
L 157.116512 254.027082 
L 157.551414 254.181776 
L 157.986317 254.188428 
L 158.63867 254.217134 
L 161.682986 254.198486 
L 162.335339 254.347579 
L 162.770242 254.298992 
L 163.640046 254.195425 
L 164.074949 254.20671 
L 164.944753 254.333598 
L 167.119264 254.466881 
L 167.336716 254.389932 
L 169.293776 254.742684 
L 170.381031 254.721058 
L 175.81731 255.25538 
L 177.77437 255.158109 
L 178.426723 255.01447 
L 179.296528 255.162073 
L 179.73143 255.133898 
L 180.818686 255.324517 
L 181.253588 255.329371 
L 182.123393 255.451925 
L 185.820062 255.606064 
L 186.472416 255.665755 
L 187.994573 255.693799 
L 190.603987 255.725057 
L 191.25634 255.849929 
L 193.430852 255.685824 
L 193.865754 255.727684 
L 194.300656 255.685782 
L 194.735559 255.713852 
L 195.170461 255.679854 
L 196.257717 255.652236 
L 196.692619 255.560248 
L 199.736935 255.592916 
L 200.171837 255.495663 
L 200.606739 255.584131 
L 201.693995 255.499191 
L 202.346348 255.554725 
L 203.433604 255.654858 
L 203.651055 255.047205 
L 204.085957 253.254607 
L 204.52086 252.188802 
L 204.955762 251.606859 
L 205.390664 251.435109 
L 206.47792 251.497501 
L 207.565176 251.726275 
L 210.609492 252.275306 
L 211.044394 252.294292 
L 213.001454 252.833653 
L 214.958514 253.175484 
L 215.610868 253.265516 
L 216.263221 253.40774 
L 217.785379 253.73703 
L 218.872635 253.954867 
L 219.524988 254.137106 
L 220.612244 254.352251 
L 221.047146 254.265143 
L 221.482048 254.304651 
L 222.134402 254.302711 
L 222.569304 254.324904 
L 224.091462 254.598791 
L 224.526364 254.59428 
L 226.048522 254.539525 
L 226.918327 254.704584 
L 228.005582 254.746109 
L 228.440485 254.697242 
L 229.962643 254.859143 
L 230.832447 254.842927 
L 236.051274 255.111151 
L 236.921079 255.168607 
L 237.573432 255.211407 
L 238.225786 255.264914 
L 241.705004 255.322083 
L 242.357357 255.417781 
L 243.227162 255.508769 
L 243.662064 255.392912 
L 244.096966 255.451896 
L 245.836576 255.5776 
L 246.271478 255.450464 
L 246.70638 255.518998 
L 247.576185 255.395727 
L 248.445989 255.420396 
L 248.880891 255.549955 
L 253.447365 255.578084 
L 254.099719 255.496892 
L 254.752072 255.408413 
L 256.056779 255.378367 
L 257.144035 255.424077 
L 259.535997 255.439093 
L 260.405802 255.559291 
L 260.840704 255.501517 
L 261.058155 255.605917 
L 262.145411 255.536942 
L 262.580313 255.546172 
L 263.015215 255.463717 
L 264.972275 255.49007 
L 265.407178 255.419535 
L 266.059531 255.442373 
L 269.103847 255.299231 
L 272.148163 255.317296 
L 272.800516 255.200749 
L 275.627381 255.267676 
L 276.714637 255.17865 
L 279.32405 255.400153 
L 279.976404 255.323661 
L 280.411306 255.381129 
L 283.455622 255.37295 
L 283.890524 255.327208 
L 285.412682 255.332012 
L 286.499938 255.229554 
L 286.93484 255.13784 
L 292.58857 254.998068 
L 293.675825 254.904002 
L 295.850337 255.009019 
L 296.50269 254.947563 
L 297.807397 248.020227 
L 298.894653 244.015436 
L 300.199359 240.130526 
L 302.591322 233.64238 
L 304.330931 229.555663 
L 309.549758 219.002766 
L 316.508195 208.123271 
L 322.379375 201.150763 
L 322.814278 200.786376 
L 323.901533 199.487402 
L 326.510947 196.532403 
L 327.1633 195.80222 
L 328.250556 194.752937 
L 329.337812 193.766785 
L 330.207616 192.848909 
L 333.904285 189.319043 
L 334.77409 188.459633 
L 341.732526 182.077236 
L 346.081549 176.948192 
L 349.778218 171.831271 
L 351.735279 168.374352 
L 353.257437 164.346632 
L 353.474888 163.50639 
L 353.692339 163.267647 
L 354.562143 160.107106 
L 354.779594 159.891696 
L 354.997046 158.426157 
L 355.214497 158.533919 
L 355.431948 156.893949 
L 355.649399 156.204618 
L 355.86685 155.115879 
L 356.084301 152.293941 
L 356.301752 153.963452 
L 356.736655 108.159659 
L 357.389008 148.774387 
L 357.606459 156.504542 
L 358.258813 164.71394 
L 358.693715 167.69957 
L 359.563519 170.627983 
L 361.303129 173.588007 
L 361.738031 174.072696 
L 362.825286 175.066783 
L 364.129993 175.915139 
L 365.217249 176.823366 
L 365.869602 177.239932 
L 366.304505 177.52836 
L 366.956858 177.710019 
L 367.609211 177.885278 
L 369.348821 178.147611 
L 370.653527 178.30369 
L 371.523332 178.12583 
L 373.262941 178.116991 
L 373.697843 178.218097 
L 374.567648 178.166648 
L 375.00255 178.180102 
L 375.437452 178.131752 
L 376.089806 178.09331 
L 379.134122 177.392939 
L 379.569024 177.381459 
L 381.960986 176.69698 
L 382.61334 176.592801 
L 383.483144 176.502644 
L 384.135498 176.455147 
L 386.52746 176.305526 
L 387.614716 175.991151 
L 389.354325 175.74238 
L 389.789227 175.551552 
L 391.528836 175.208081 
L 392.18119 175.000007 
L 393.050994 174.920175 
L 393.485897 174.770866 
L 393.920799 174.824586 
L 394.790603 174.601317 
L 395.225506 174.417722 
L 395.877859 173.995704 
L 398.487273 173.776702 
L 398.487273 173.776702 
" style="fill:none;stroke:#000000;stroke-linecap:square;stroke-width:1.5;"/>
   </g>
   <g id="line2d_18">
    <path clip-path="url(#p27e231ab99)" d="M 73.832727 184.263645 
L 74.26763 184.473268 
L 76.22469 185.580558 
L 76.877043 185.723469 
L 78.834103 186.206837 
L 79.051555 186.019413 
L 80.13881 180.057004 
L 81.226066 176.045976 
L 82.313322 172.678175 
L 87.097247 159.456578 
L 88.619404 155.116585 
L 90.359014 149.592693 
L 90.576465 148.256318 
L 90.793916 148.278871 
L 91.011367 146.271446 
L 91.228818 146.456113 
L 91.66372 143.32709 
L 91.881172 142.531771 
L 92.316074 96.037045 
L 92.750976 128.29288 
L 93.185878 145.018993 
L 93.620781 152.518729 
L 94.273134 156.882165 
L 94.708036 158.230203 
L 94.925487 158.239277 
L 95.142939 158.740339 
L 96.230194 158.71256 
L 97.099999 158.003523 
L 97.969803 157.169517 
L 98.622157 156.573376 
L 99.709412 155.754819 
L 100.361766 155.036313 
L 100.796668 154.74514 
L 102.971179 152.148673 
L 105.798044 147.33001 
L 106.015495 146.43031 
L 106.232946 146.383208 
L 106.450398 145.116566 
L 106.667849 145.199746 
L 106.8853 143.663008 
L 107.320202 142.542114 
L 107.537653 139.922272 
L 107.755104 141.60149 
L 108.190007 90.714999 
L 109.059811 141.982765 
L 109.712165 152.691455 
L 110.147067 156.195786 
L 111.016871 159.347934 
L 112.104127 161.017642 
L 112.973932 161.482887 
L 113.408834 161.603173 
L 113.626285 161.605946 
L 114.713541 161.087437 
L 115.365894 160.794969 
L 116.235699 160.014651 
L 117.105503 159.421666 
L 117.322954 159.271144 
L 118.192759 158.168181 
L 119.714917 156.592206 
L 121.237075 154.740591 
L 121.671977 154.056219 
L 123.194135 152.047871 
L 124.06394 150.461932 
L 124.498842 149.989181 
L 125.803549 148.204152 
L 126.673353 145.981489 
L 126.890804 145.889194 
L 127.108255 144.94912 
L 127.325707 144.657365 
L 127.760609 143.010588 
L 127.97806 143.043414 
L 128.195511 141.142712 
L 128.412962 141.393012 
L 128.630413 138.362255 
L 128.847865 138.708796 
L 129.065316 132.768819 
L 129.282767 101.691678 
L 129.500218 93.018892 
L 129.93512 124.197481 
L 130.370023 140.775851 
L 130.804925 148.973035 
L 131.674729 155.374483 
L 132.109632 156.963328 
L 132.327083 157.811125 
L 133.414338 159.646578 
L 133.63179 159.696777 
L 133.849241 159.943856 
L 134.284143 159.91755 
L 134.936496 160.177442 
L 135.806301 160.312654 
L 136.241203 160.235049 
L 137.763361 159.6153 
L 140.590226 157.121098 
L 142.329835 154.926053 
L 143.417091 153.461504 
L 143.851993 152.982107 
L 145.591602 150.467046 
L 146.243955 149.769429 
L 147.11376 147.912389 
L 147.331211 147.582363 
L 147.548662 146.966845 
L 147.766113 146.740099 
L 148.201016 145.628064 
L 148.853369 144.19961 
L 149.07082 143.049044 
L 149.288271 143.187863 
L 149.505722 141.610251 
L 149.723174 141.297409 
L 149.940625 140.031459 
L 150.158076 137.775384 
L 150.375527 138.218243 
L 150.810429 90.258315 
L 151.680234 139.163002 
L 152.332587 150.249403 
L 152.767489 153.890758 
L 153.637294 157.379098 
L 154.942001 159.603804 
L 156.464159 160.589011 
L 156.899061 160.614342 
L 157.333963 160.328583 
L 158.203768 159.631587 
L 159.291024 159.326925 
L 159.725926 159.107065 
L 160.813182 158.206196 
L 161.682986 157.224256 
L 162.335339 156.592963 
L 166.684362 150.448594 
L 169.293776 145.692712 
L 169.511227 144.930962 
L 169.728678 144.688681 
L 170.16358 143.168825 
L 170.381031 142.787073 
L 170.598483 141.650559 
L 170.815934 141.640894 
L 171.033385 139.768815 
L 171.250836 139.971874 
L 171.468287 138.047189 
L 171.685738 137.140263 
L 171.903189 135.39256 
L 172.338092 89.221671 
L 172.990445 130.763595 
L 173.425347 142.636892 
L 173.642799 146.766279 
L 174.295152 152.058478 
L 174.730054 153.993489 
L 174.947505 154.488298 
L 175.164956 155.328396 
L 175.599859 156.0036 
L 176.469663 157.292883 
L 176.904566 157.690355 
L 177.77437 158.442641 
L 179.079077 158.97593 
L 180.383784 158.757346 
L 181.036137 158.515719 
L 181.905942 158.107777 
L 182.558295 157.594896 
L 182.993197 156.957847 
L 183.645551 156.3514 
L 185.167709 154.640226 
L 189.29928 147.352044 
L 189.516731 147.155904 
L 191.25634 143.908287 
L 191.473792 143.190812 
L 191.691243 142.986583 
L 191.908694 141.834369 
L 192.126145 141.912248 
L 192.343596 140.192621 
L 192.561047 139.744096 
L 192.99595 136.010551 
L 193.213401 136.102197 
L 193.648303 88.087865 
L 194.518108 136.453148 
L 195.170461 147.178725 
L 195.605363 150.776156 
L 196.475168 154.304452 
L 196.91007 155.357645 
L 197.779875 156.496018 
L 197.997326 156.734609 
L 199.736935 157.200551 
L 200.389288 157.185861 
L 201.693995 156.348268 
L 202.5638 155.746771 
L 203.216153 155.191857 
L 204.52086 153.763212 
L 206.695371 151.661688 
L 207.565176 150.589547 
L 208.000078 150.048681 
L 208.43498 149.464549 
L 209.087334 148.683365 
L 211.479296 144.872839 
L 211.696747 144.564427 
L 211.914198 144.027294 
L 212.13165 143.833068 
L 212.349101 143.130749 
L 212.566552 142.897646 
L 213.436356 140.205168 
L 213.653807 140.340229 
L 213.871259 138.595388 
L 214.08871 138.561905 
L 214.523612 135.491231 
L 214.741063 134.518875 
L 215.175965 85.948247 
L 215.828319 129.479819 
L 216.263221 142.222029 
L 216.698123 149.017885 
L 217.133026 152.627549 
L 217.567928 154.931864 
L 217.785379 155.49904 
L 218.220281 156.804217 
L 218.655184 157.579177 
L 219.307537 158.008076 
L 219.742439 158.364462 
L 220.394793 158.678147 
L 221.047146 158.74251 
L 222.351853 158.405503 
L 223.004206 158.056451 
L 223.65656 157.892586 
L 224.091462 157.580701 
L 224.526364 157.265061 
L 224.961267 156.905847 
L 225.831071 156.333677 
L 226.265973 155.600184 
L 226.918327 154.469877 
L 227.57068 153.83293 
L 228.440485 152.800084 
L 230.180094 151.415135 
L 231.484801 149.888693 
L 231.919703 149.493667 
L 232.789507 147.935312 
L 234.311665 145.244477 
L 234.964019 144.153449 
L 235.18147 143.378842 
L 235.398921 143.20632 
L 236.268726 140.29199 
L 236.486177 140.31712 
L 236.703628 138.404429 
L 236.921079 138.462537 
L 237.355981 135.364357 
L 237.573432 133.74341 
L 238.008335 86.599716 
L 238.660688 129.630649 
L 239.09559 142.342341 
L 239.530493 148.898835 
L 239.965395 152.498452 
L 240.400297 154.977439 
L 241.487553 157.681253 
L 243.444613 159.397855 
L 244.096966 159.56089 
L 245.184222 159.52358 
L 245.401673 159.525732 
L 245.836576 159.339206 
L 246.271478 159.25895 
L 247.141282 158.660125 
L 247.576185 158.509015 
L 249.533245 156.848735 
L 249.968147 156.564975 
L 251.272854 155.384315 
L 252.36011 154.005003 
L 253.012463 153.017681 
L 256.27423 148.829616 
L 257.144035 147.218419 
L 258.013839 145.647401 
L 258.23129 145.101818 
L 258.448741 145.030186 
L 258.666193 144.428137 
L 258.883644 144.200612 
L 259.535997 142.761209 
L 259.753448 141.622519 
L 259.970899 141.718805 
L 260.18835 140.035451 
L 260.405802 139.894824 
L 261.058155 135.645789 
L 261.493057 86.01948 
L 262.145411 128.456523 
L 262.580313 141.347468 
L 263.015215 148.238181 
L 263.450118 152.163168 
L 263.88502 154.221314 
L 264.102471 154.750703 
L 264.319922 155.634285 
L 264.754824 156.49599 
L 265.189727 157.147906 
L 265.407178 157.502832 
L 265.624629 157.627174 
L 266.059531 158.017616 
L 266.494433 158.159631 
L 266.929336 158.291439 
L 267.146787 158.417212 
L 267.79914 158.459803 
L 268.016591 158.500499 
L 268.886396 158.108541 
L 269.321298 157.846368 
L 269.7562 157.434748 
L 270.408554 157.063989 
L 271.930712 156.230112 
L 272.365614 156.102521 
L 273.017967 155.805514 
L 274.540125 153.863255 
L 274.975028 153.351846 
L 275.627381 152.799395 
L 276.062283 152.288446 
L 277.149539 150.845972 
L 278.019344 149.930842 
L 279.976404 147.291654 
L 281.06366 145.774166 
L 281.933464 143.745585 
L 282.150915 143.489031 
L 282.368366 142.826735 
L 282.585817 142.722009 
L 282.803269 141.852492 
L 283.02072 141.476499 
L 283.455622 139.991672 
L 283.673073 139.738465 
L 283.890524 137.85755 
L 284.107975 138.226135 
L 284.325427 135.241747 
L 284.542878 135.906793 
L 284.760329 128.353319 
L 284.97778 96.283842 
L 285.195231 87.64939 
L 285.630133 118.810169 
L 286.065036 135.402453 
L 286.499938 143.351915 
L 287.369742 150.207611 
L 288.022096 152.943398 
L 289.544254 156.673205 
L 290.196607 157.610885 
L 290.631509 158.081658 
L 291.283863 158.444149 
L 291.936216 158.516367 
L 293.240923 157.95704 
L 294.110728 157.570393 
L 296.285239 155.87038 
L 296.50269 155.818677 
L 297.807397 161.765073 
L 298.45975 163.506181 
L 300.634262 167.928028 
L 301.504066 169.378286 
L 303.243675 171.888168 
L 304.330931 173.0449 
L 308.0276 175.80442 
L 308.679954 176.255019 
L 309.984661 177.059966 
L 310.854465 177.432637 
L 311.071916 177.488042 
L 311.72427 177.894834 
L 313.246428 178.658123 
L 314.551134 179.072962 
L 316.508195 180.192771 
L 317.59545 180.486058 
L 318.030353 180.74796 
L 318.465255 180.904273 
L 319.117608 181.108329 
L 320.204864 181.237468 
L 320.639766 181.156348 
L 321.509571 181.472916 
L 328.250556 181.744147 
L 329.990165 182.133383 
L 332.382128 182.172631 
L 333.034481 182.124982 
L 333.469383 182.146558 
L 334.991541 182.027552 
L 336.296248 182.247392 
L 337.383504 182.540905 
L 338.253308 182.54513 
L 338.905662 182.486853 
L 339.992917 182.439866 
L 343.254684 182.747625 
L 343.907038 182.782332 
L 344.776842 182.954551 
L 346.516451 182.911964 
L 346.951354 182.995084 
L 347.386256 182.979057 
L 347.821158 183.0249 
L 348.690963 183.024654 
L 349.560767 183.112804 
L 350.865474 183.102237 
L 351.300376 183.263882 
L 352.170181 183.212644 
L 352.822534 183.222342 
L 355.649399 183.098142 
L 358.258813 182.707079 
L 358.911166 182.624293 
L 359.998422 182.412548 
L 360.650775 182.194258 
L 363.47764 181.82037 
L 365.217249 181.899689 
L 365.652151 181.963045 
L 365.869602 182.03663 
L 366.304505 182.025172 
L 367.174309 182.125462 
L 368.696467 182.200467 
L 369.131369 182.145406 
L 370.001174 182.164901 
L 372.610588 181.738118 
L 374.567648 181.639415 
L 375.437452 181.474758 
L 379.786475 181.221081 
L 380.438828 181.239625 
L 383.048242 181.456462 
L 383.483144 181.37601 
L 383.918047 181.429788 
L 384.352949 181.359153 
L 385.005302 181.400401 
L 388.267069 181.200575 
L 389.789227 181.079989 
L 390.22413 181.016391 
L 391.311385 181.018286 
L 391.746288 181.02215 
L 393.268445 180.980678 
L 393.920799 181.015285 
L 394.355701 180.985198 
L 395.008055 181.046131 
L 398.487273 180.899789 
L 398.487273 180.899789 
" style="fill:none;stroke:#000000;stroke-linecap:square;stroke-width:1.5;"/>
   </g>
   <g id="patch_3">
    <path d="M 57.6 307.584 
L 57.6 41.472 
" style="fill:none;stroke:#000000;stroke-linecap:square;stroke-linejoin:miter;stroke-width:0.8;"/>
   </g>
   <g id="patch_4">
    <path d="M 414.72 307.584 
L 414.72 41.472 
" style="fill:none;stroke:#000000;stroke-linecap:square;stroke-linejoin:miter;stroke-width:0.8;"/>
   </g>
   <g id="patch_5">
    <path d="M 57.6 307.584 
L 414.72 307.584 
" style="fill:none;stroke:#000000;stroke-linecap:square;stroke-linejoin:miter;stroke-width:0.8;"/>
   </g>
   <g id="patch_6">
    <path d="M 57.6 41.472 
L 414.72 41.472 
" style="fill:none;stroke:#000000;stroke-linecap:square;stroke-linejoin:miter;stroke-width:0.8;"/>
   </g>
  </g>
 </g>
 <defs>
  <clipPath id="p27e231ab99">
   <rect height="266.112" width="357.12" x="57.6" y="41.472"/>
  </clipPath>
 </defs>
</svg>
