<?xml version="1.0" encoding="utf-8" standalone="no"?>
<!DOCTYPE svg PUBLIC "-//W3C//DTD SVG 1.1//EN"
  "http://www.w3.org/Graphics/SVG/1.1/DTD/svg11.dtd">
<svg xmlns:xlink="http://www.w3.org/1999/xlink" width="272.067187pt" height="197.398125pt" viewBox="0 0 272.067187 197.398125" xmlns="http://www.w3.org/2000/svg" version="1.1">
 <metadata>
  <rdf:RDF xmlns:dc="http://purl.org/dc/elements/1.1/" xmlns:cc="http://creativecommons.org/ns#" xmlns:rdf="http://www.w3.org/1999/02/22-rdf-syntax-ns#">
   <cc:Work>
    <dc:type rdf:resource="http://purl.org/dc/dcmitype/StillImage"/>
    <dc:date>2025-12-19T11:59:16.909168</dc:date>
    <dc:format>image/svg+xml</dc:format>
    <dc:creator>
     <cc:Agent>
      <dc:title>Matplotlib v3.10.7, https://matplotlib.org/</dc:title>
     </cc:Agent>
    </dc:creator>
   </cc:Work>
  </rdf:RDF>
 </metadata>
 <defs>
  <style type="text/css">*{stroke-linejoin: round; stroke-linecap: butt}</style>
 </defs>
 <g id="figure_1">
  <g id="patch_1">
   <path d="M 0 197.398125 
L 272.067187 197.398125 
L 272.067187 0 
L 0 0 
z
" style="fill: #ffffff"/>
  </g>
  <g id="axes_1">
   <g id="patch_2">
    <path d="M 41.667188 173.52 
L 264.867188 173.52 
L 264.867188 7.2 
L 41.667188 7.2 
z
" style="fill: #ffffff"/>
   </g>
   <g id="matplotlib.axis_1">
    <g id="xtick_1">
     <g id="line2d_1">
      <defs>
       <path id="m244f1d5e21" d="M 0 0 
L 0 3.5 
" style="stroke: #000000; stroke-width: 0.8"/>
      </defs>
      <g>
       <use xlink:href="#m244f1d5e21" x="82.712896" y="173.52" style="stroke: #000000; stroke-width: 0.8"/>
      </g>
     </g>
     <g id="text_1">
      <!-- 1 -->
      <g transform="translate(79.531646 188.118438) scale(0.1 -0.1)">
       <defs>
        <path id="DejaVuSans-31" d="M 794 531 
L 1825 531 
L 1825 4091 
L 703 3866 
L 703 4441 
L 1819 4666 
L 2450 4666 
L 2450 531 
L 3481 531 
L 3481 0 
L 794 0 
L 794 531 
z
" transform="scale(0.015625)"/>
       </defs>
       <use xlink:href="#DejaVuSans-31"/>
      </g>
     </g>
    </g>
    <g id="xtick_2">
     <g id="line2d_2">
      <g>
       <use xlink:href="#m244f1d5e21" x="134.213319" y="173.52" style="stroke: #000000; stroke-width: 0.8"/>
      </g>
     </g>
     <g id="text_2">
      <!-- 2 -->
      <g transform="translate(131.032069 188.118438) scale(0.1 -0.1)">
       <defs>
        <path id="DejaVuSans-32" d="M 1228 531 
L 3431 531 
L 3431 0 
L 469 0 
L 469 531 
Q 828 903 1448 1529 
Q 2069 2156 2228 2338 
Q 2531 2678 2651 2914 
Q 2772 3150 2772 3378 
Q 2772 3750 2511 3984 
Q 2250 4219 1831 4219 
Q 1534 4219 1204 4116 
Q 875 4013 500 3803 
L 500 4441 
Q 881 4594 1212 4672 
Q 1544 4750 1819 4750 
Q 2544 4750 2975 4387 
Q 3406 4025 3406 3419 
Q 3406 3131 3298 2873 
Q 3191 2616 2906 2266 
Q 2828 2175 2409 1742 
Q 1991 1309 1228 531 
z
" transform="scale(0.015625)"/>
       </defs>
       <use xlink:href="#DejaVuSans-32"/>
      </g>
     </g>
    </g>
    <g id="xtick_3">
     <g id="line2d_3">
      <g>
       <use xlink:href="#m244f1d5e21" x="185.713741" y="173.52" style="stroke: #000000; stroke-width: 0.8"/>
      </g>
     </g>
     <g id="text_3">
      <!-- 3 -->
      <g transform="translate(182.532491 188.118438) scale(0.1 -0.1)">
       <defs>
        <path id="DejaVuSans-33" d="M 2597 2516 
Q 3050 2419 3304 2112 
Q 3559 1806 3559 1356 
Q 3559 666 3084 287 
Q 2609 -91 1734 -91 
Q 1441 -91 1130 -33 
Q 819 25 488 141 
L 488 750 
Q 750 597 1062 519 
Q 1375 441 1716 441 
Q 2309 441 2620 675 
Q 2931 909 2931 1356 
Q 2931 1769 2642 2001 
Q 2353 2234 1838 2234 
L 1294 2234 
L 1294 2753 
L 1863 2753 
Q 2328 2753 2575 2939 
Q 2822 3125 2822 3475 
Q 2822 3834 2567 4026 
Q 2313 4219 1838 4219 
Q 1578 4219 1281 4162 
Q 984 4106 628 3988 
L 628 4550 
Q 988 4650 1302 4700 
Q 1616 4750 1894 4750 
Q 2613 4750 3031 4423 
Q 3450 4097 3450 3541 
Q 3450 3153 3228 2886 
Q 3006 2619 2597 2516 
z
" transform="scale(0.015625)"/>
       </defs>
       <use xlink:href="#DejaVuSans-33"/>
      </g>
     </g>
    </g>
    <g id="xtick_4">
     <g id="line2d_4">
      <g>
       <use xlink:href="#m244f1d5e21" x="237.214164" y="173.52" style="stroke: #000000; stroke-width: 0.8"/>
      </g>
     </g>
     <g id="text_4">
      <!-- 4 -->
      <g transform="translate(234.032914 188.118438) scale(0.1 -0.1)">
       <defs>
        <path id="DejaVuSans-34" d="M 2419 4116 
L 825 1625 
L 2419 1625 
L 2419 4116 
z
M 2253 4666 
L 3047 4666 
L 3047 1625 
L 3713 1625 
L 3713 1100 
L 3047 1100 
L 3047 0 
L 2419 0 
L 2419 1100 
L 313 1100 
L 313 1709 
L 2253 4666 
z
" transform="scale(0.015625)"/>
       </defs>
       <use xlink:href="#DejaVuSans-34"/>
      </g>
     </g>
    </g>
   </g>
   <g id="matplotlib.axis_2">
    <g id="ytick_1">
     <g id="line2d_5">
      <defs>
       <path id="m445b46e832" d="M 0 0 
L -3.5 0 
" style="stroke: #000000; stroke-width: 0.8"/>
      </defs>
      <g>
       <use xlink:href="#m445b46e832" x="41.667188" y="168.216496" style="stroke: #000000; stroke-width: 0.8"/>
      </g>
     </g>
     <g id="text_5">
      <!-- −100 -->
      <g transform="translate(7.2 172.015715) scale(0.1 -0.1)">
       <defs>
        <path id="DejaVuSans-2212" d="M 678 2272 
L 4684 2272 
L 4684 1741 
L 678 1741 
L 678 2272 
z
" transform="scale(0.015625)"/>
        <path id="DejaVuSans-30" d="M 2034 4250 
Q 1547 4250 1301 3770 
Q 1056 3291 1056 2328 
Q 1056 1369 1301 889 
Q 1547 409 2034 409 
Q 2525 409 2770 889 
Q 3016 1369 3016 2328 
Q 3016 3291 2770 3770 
Q 2525 4250 2034 4250 
z
M 2034 4750 
Q 2819 4750 3233 4129 
Q 3647 3509 3647 2328 
Q 3647 1150 3233 529 
Q 2819 -91 2034 -91 
Q 1250 -91 836 529 
Q 422 1150 422 2328 
Q 422 3509 836 4129 
Q 1250 4750 2034 4750 
z
" transform="scale(0.015625)"/>
       </defs>
       <use xlink:href="#DejaVuSans-2212"/>
       <use xlink:href="#DejaVuSans-31" transform="translate(83.789062 0)"/>
       <use xlink:href="#DejaVuSans-30" transform="translate(147.412109 0)"/>
       <use xlink:href="#DejaVuSans-30" transform="translate(211.035156 0)"/>
      </g>
     </g>
    </g>
    <g id="ytick_2">
     <g id="line2d_6">
      <g>
       <use xlink:href="#m445b46e832" x="41.667188" y="144.287389" style="stroke: #000000; stroke-width: 0.8"/>
      </g>
     </g>
     <g id="text_6">
      <!-- −80 -->
      <g transform="translate(13.5625 148.086608) scale(0.1 -0.1)">
       <defs>
        <path id="DejaVuSans-38" d="M 2034 2216 
Q 1584 2216 1326 1975 
Q 1069 1734 1069 1313 
Q 1069 891 1326 650 
Q 1584 409 2034 409 
Q 2484 409 2743 651 
Q 3003 894 3003 1313 
Q 3003 1734 2745 1975 
Q 2488 2216 2034 2216 
z
M 1403 2484 
Q 997 2584 770 2862 
Q 544 3141 544 3541 
Q 544 4100 942 4425 
Q 1341 4750 2034 4750 
Q 2731 4750 3128 4425 
Q 3525 4100 3525 3541 
Q 3525 3141 3298 2862 
Q 3072 2584 2669 2484 
Q 3125 2378 3379 2068 
Q 3634 1759 3634 1313 
Q 3634 634 3220 271 
Q 2806 -91 2034 -91 
Q 1263 -91 848 271 
Q 434 634 434 1313 
Q 434 1759 690 2068 
Q 947 2378 1403 2484 
z
M 1172 3481 
Q 1172 3119 1398 2916 
Q 1625 2713 2034 2713 
Q 2441 2713 2670 2916 
Q 2900 3119 2900 3481 
Q 2900 3844 2670 4047 
Q 2441 4250 2034 4250 
Q 1625 4250 1398 4047 
Q 1172 3844 1172 3481 
z
" transform="scale(0.015625)"/>
       </defs>
       <use xlink:href="#DejaVuSans-2212"/>
       <use xlink:href="#DejaVuSans-38" transform="translate(83.789062 0)"/>
       <use xlink:href="#DejaVuSans-30" transform="translate(147.412109 0)"/>
      </g>
     </g>
    </g>
    <g id="ytick_3">
     <g id="line2d_7">
      <g>
       <use xlink:href="#m445b46e832" x="41.667188" y="120.358283" style="stroke: #000000; stroke-width: 0.8"/>
      </g>
     </g>
     <g id="text_7">
      <!-- −60 -->
      <g transform="translate(13.5625 124.157502) scale(0.1 -0.1)">
       <defs>
        <path id="DejaVuSans-36" d="M 2113 2584 
Q 1688 2584 1439 2293 
Q 1191 2003 1191 1497 
Q 1191 994 1439 701 
Q 1688 409 2113 409 
Q 2538 409 2786 701 
Q 3034 994 3034 1497 
Q 3034 2003 2786 2293 
Q 2538 2584 2113 2584 
z
M 3366 4563 
L 3366 3988 
Q 3128 4100 2886 4159 
Q 2644 4219 2406 4219 
Q 1781 4219 1451 3797 
Q 1122 3375 1075 2522 
Q 1259 2794 1537 2939 
Q 1816 3084 2150 3084 
Q 2853 3084 3261 2657 
Q 3669 2231 3669 1497 
Q 3669 778 3244 343 
Q 2819 -91 2113 -91 
Q 1303 -91 875 529 
Q 447 1150 447 2328 
Q 447 3434 972 4092 
Q 1497 4750 2381 4750 
Q 2619 4750 2861 4703 
Q 3103 4656 3366 4563 
z
" transform="scale(0.015625)"/>
       </defs>
       <use xlink:href="#DejaVuSans-2212"/>
       <use xlink:href="#DejaVuSans-36" transform="translate(83.789062 0)"/>
       <use xlink:href="#DejaVuSans-30" transform="translate(147.412109 0)"/>
      </g>
     </g>
    </g>
    <g id="ytick_4">
     <g id="line2d_8">
      <g>
       <use xlink:href="#m445b46e832" x="41.667188" y="96.429176" style="stroke: #000000; stroke-width: 0.8"/>
      </g>
     </g>
     <g id="text_8">
      <!-- −40 -->
      <g transform="translate(13.5625 100.228395) scale(0.1 -0.1)">
       <use xlink:href="#DejaVuSans-2212"/>
       <use xlink:href="#DejaVuSans-34" transform="translate(83.789062 0)"/>
       <use xlink:href="#DejaVuSans-30" transform="translate(147.412109 0)"/>
      </g>
     </g>
    </g>
    <g id="ytick_5">
     <g id="line2d_9">
      <g>
       <use xlink:href="#m445b46e832" x="41.667188" y="72.50007" style="stroke: #000000; stroke-width: 0.8"/>
      </g>
     </g>
     <g id="text_9">
      <!-- −20 -->
      <g transform="translate(13.5625 76.299289) scale(0.1 -0.1)">
       <use xlink:href="#DejaVuSans-2212"/>
       <use xlink:href="#DejaVuSans-32" transform="translate(83.789062 0)"/>
       <use xlink:href="#DejaVuSans-30" transform="translate(147.412109 0)"/>
      </g>
     </g>
    </g>
    <g id="ytick_6">
     <g id="line2d_10">
      <g>
       <use xlink:href="#m445b46e832" x="41.667188" y="48.570964" style="stroke: #000000; stroke-width: 0.8"/>
      </g>
     </g>
     <g id="text_10">
      <!-- 0 -->
      <g transform="translate(28.304688 52.370182) scale(0.1 -0.1)">
       <use xlink:href="#DejaVuSans-30"/>
      </g>
     </g>
    </g>
    <g id="ytick_7">
     <g id="line2d_11">
      <g>
       <use xlink:href="#m445b46e832" x="41.667188" y="24.641857" style="stroke: #000000; stroke-width: 0.8"/>
      </g>
     </g>
     <g id="text_11">
      <!-- 20 -->
      <g transform="translate(21.942188 28.441076) scale(0.1 -0.1)">
       <use xlink:href="#DejaVuSans-32"/>
       <use xlink:href="#DejaVuSans-30" transform="translate(63.623047 0)"/>
      </g>
     </g>
    </g>
   </g>
   <g id="line2d_12">
    <path d="M 51.812642 127.913538 
L 51.869293 127.950051 
L 51.897618 127.803999 
L 51.918218 127.877025 
L 51.959418 127.803999 
L 52.021219 127.986564 
L 52.023794 127.950051 
L 52.036669 128.023077 
L 52.052119 127.913538 
L 52.137095 127.986564 
L 52.21177 127.877025 
L 52.22722 127.803999 
L 52.296746 127.986564 
L 52.317346 127.950051 
L 52.652099 127.840512 
L 52.7551 127.657947 
L 52.695874 127.877025 
L 52.773125 127.69446 
L 52.7757 127.730973 
L 52.870976 127.511896 
L 53.010027 127.475383 
L 53.076977 127.292818 
L 53.123328 127.365844 
L 53.218604 127.475383 
L 53.239204 127.43887 
L 53.290704 127.365844 
L 53.298429 127.475383 
L 53.34993 127.43887 
L 53.774808 127.365844 
L 53.888109 127.183279 
L 53.967935 127.256305 
L 53.983385 127.110254 
L 53.99626 127.146766 
L 54.122436 127.073741 
L 54.125011 127.000715 
L 54.155911 127.146766 
L 54.233162 127.037228 
L 54.256337 127.073741 
L 54.359338 127.219792 
L 54.367063 127.183279 
L 54.418563 127.037228 
L 54.480364 127.110254 
L 54.59624 127.256305 
L 54.614265 127.183279 
L 54.706966 127.329331 
L 54.784216 127.219792 
L 54.809967 127.43887 
L 54.815117 127.402357 
L 55.082919 127.329331 
L 55.183345 127.146766 
L 55.093219 127.365844 
L 55.198795 127.183279 
L 55.296646 126.81815 
L 55.209095 127.219792 
L 55.327546 126.927689 
L 55.381621 126.854663 
L 55.456297 126.526047 
L 55.502647 126.56256 
L 55.610798 126.672099 
L 55.536123 126.526047 
L 55.615948 126.599073 
L 55.633973 126.56256 
L 55.706074 126.708611 
L 55.724099 126.635586 
L 55.77045 126.854663 
L 55.834825 126.745124 
L 55.930101 126.672099 
L 55.865725 126.81815 
L 55.945551 126.745124 
L 56.015077 126.672099 
L 56.115502 126.599073 
L 56.051127 126.781637 
L 56.125802 126.635586 
L 56.264854 126.708611 
L 56.272579 126.635586 
L 56.37558 126.81815 
L 56.48373 126.635586 
L 56.48888 126.708611 
L 56.625357 126.599073 
L 56.743808 126.379995 
L 56.630507 126.635586 
L 56.748958 126.416508 
L 56.761833 126.343482 
L 56.864834 126.489534 
L 56.911184 126.56256 
L 56.960109 126.453021 
L 57.114611 135.471712 
L 57.408163 143.32199 
L 57.415888 143.395016 
L 57.629615 146.352562 
L 57.639915 146.462101 
L 57.959218 149.45616 
L 57.961793 149.419647 
L 58.039043 149.894315 
L 58.041618 149.857802 
L 58.22187 150.95319 
L 58.22702 150.916677 
L 58.250195 151.026216 
L 58.402121 151.610423 
L 58.414996 151.683448 
L 58.543747 152.194629 
L 58.587523 152.121603 
L 58.620998 152.340681 
L 58.646748 152.267655 
L 58.770349 152.486733 
L 58.793524 152.45022 
L 58.860475 152.632784 
L 58.870775 152.596271 
L 58.999526 152.851862 
L 59.017551 152.815349 
L 59.097377 153.034426 
L 59.305954 153.143965 
L 59.308529 153.180478 
L 59.313679 152.961401 
L 59.408954 153.034426 
L 59.506805 152.924888 
L 59.511955 152.961401 
L 59.632981 152.632784 
L 59.676757 152.742323 
L 59.723107 152.559759 
L 59.743707 152.632784 
L 59.851858 152.523246 
L 59.764307 152.669297 
L 59.854433 152.596271 
L 59.864733 152.559759 
L 59.972884 152.70581 
L 60.11451 152.632784 
L 60.222661 152.45022 
L 60.230386 152.486733 
L 60.330812 152.413707 
L 60.243261 152.523246 
L 60.343687 152.45022 
L 60.353987 152.486733 
L 60.387462 152.304168 
L 60.444113 152.340681 
L 60.462138 152.304168 
L 60.495613 152.45022 
L 60.547114 152.45022 
L 60.65784 152.523246 
L 60.552264 152.340681 
L 60.660415 152.486733 
L 60.70934 152.45022 
L 60.74539 152.632784 
L 60.765991 152.523246 
L 60.804616 152.596271 
L 60.781441 152.45022 
L 60.874141 152.523246 
L 60.961692 152.377194 
L 60.990017 152.45022 
L 61.090443 152.377194 
L 61.103318 152.486733 
L 61.229494 152.267655 
L 61.232069 152.340681 
L 61.332495 152.158116 
L 61.337645 152.194629 
L 61.396871 152.012065 
L 61.450946 152.085091 
L 61.672398 152.194629 
L 61.762524 152.231142 
L 61.687848 152.121603 
L 61.783124 152.194629 
L 61.834624 152.121603 
L 61.886125 152.267655 
L 61.89385 152.194629 
L 61.989126 152.304168 
L 61.958225 152.158116 
L 62.004576 152.231142 
L 62.120452 152.085091 
L 62.123027 152.158116 
L 62.166802 152.012065 
L 62.228603 152.121603 
L 62.341903 152.012065 
L 62.414004 151.866013 
L 62.452629 152.048578 
L 62.52988 151.866013 
L 62.563355 151.975552 
L 62.56593 152.048578 
L 62.658631 151.8295 
L 62.668931 151.8295 
L 62.686956 151.902526 
L 62.746182 151.683448 
L 62.769357 151.683448 
L 62.916133 151.610423 
L 63.032009 151.318319 
L 62.944458 151.646936 
L 63.034584 151.391345 
L 63.13501 151.427858 
L 63.137585 151.281806 
L 63.142735 151.354832 
L 63.351312 151.245293 
L 63.379637 151.318319 
L 63.480063 150.989703 
L 63.554738 151.135755 
L 63.595939 151.062729 
L 63.665464 151.135755 
L 63.668039 151.20878 
L 63.75044 150.916677 
L 63.77104 150.989703 
L 63.78134 151.062729 
L 63.819966 150.880164 
L 63.874041 150.880164 
L 64.051718 150.989703 
L 64.095493 151.026216 
L 64.139268 150.843651 
L 64.154718 150.880164 
L 64.213944 150.807138 
L 64.165018 150.989703 
L 64.262869 150.880164 
L 64.327245 150.916677 
L 64.342695 150.770625 
L 64.37102 150.880164 
L 64.422521 150.807138 
L 64.435396 150.916677 
L 64.481746 150.880164 
L 64.543547 150.807138 
L 64.600197 150.661087 
L 64.548697 150.843651 
L 64.651697 150.807138 
L 64.656847 150.843651 
L 64.680023 150.734113 
L 64.754698 150.770625 
L 64.757273 150.6976 
L 64.834524 150.880164 
L 64.862849 150.770625 
L 64.9813 150.916677 
L 65.0019 150.807138 
L 65.089451 150.989703 
L 65.092026 150.916677 
L 65.148677 151.026216 
L 65.205327 150.95319 
L 65.282578 150.843651 
L 65.225927 150.989703 
L 65.318628 150.916677 
L 65.328928 150.95319 
L 65.364978 150.807138 
L 65.424204 150.843651 
L 65.712606 150.770625 
L 65.715181 150.6976 
L 65.774407 150.843651 
L 65.820757 150.807138 
L 65.895433 150.916677 
L 65.831057 150.770625 
L 65.931483 150.843651 
L 65.949508 150.880164 
L 66.047359 150.734113 
L 66.152935 150.880164 
L 66.142635 150.6976 
L 66.16066 150.807138 
L 66.19671 150.734113 
L 66.255936 150.880164 
L 66.266236 150.843651 
L 66.268811 150.916677 
L 66.279111 150.770625 
L 66.374387 150.807138 
L 66.482537 150.6976 
L 66.485113 150.588061 
L 66.487688 150.734113 
L 66.593263 150.661087 
L 66.606139 150.6976 
L 66.706564 150.588061 
L 66.79669 150.624574 
L 66.78124 150.515035 
L 66.81214 150.588061 
L 66.907416 150.515035 
L 66.840465 150.624574 
L 66.922866 150.588061 
L 67.038742 150.33247 
L 67.046467 150.368983 
L 67.077367 150.442009 
L 67.144318 150.186419 
L 67.149468 150.295957 
L 67.185518 150.222932 
L 67.211268 150.368983 
L 67.255044 150.295957 
L 67.257619 150.368983 
L 67.283369 147.959131 
L 67.502246 138.648336 
L 67.656747 134.924018 
L 67.839574 131.856933 
L 67.844724 131.783907 
L 67.999225 129.81221 
L 68.004375 129.848723 
L 68.068751 129.228003 
L 68.310802 127.365844 
L 68.313378 127.402357 
L 68.375178 127.000715 
L 68.395778 127.000715 
L 68.421528 126.927689 
L 68.545129 126.343482 
L 68.552854 126.416508 
L 68.635255 126.124405 
L 68.64298 126.197431 
L 68.764006 125.868814 
L 68.823232 125.759276 
L 68.828382 125.795788 
L 68.951983 125.394146 
L 68.954558 125.503685 
L 69.039533 125.029017 
L 69.054984 125.06553 
L 69.106484 124.955991 
L 69.219785 124.736914 
L 69.119359 124.992504 
L 69.22751 124.773427 
L 69.24296 124.80994 
L 69.309911 124.627375 
L 69.327936 124.700401 
L 69.423212 124.44481 
L 69.443812 124.481323 
L 69.446387 124.590862 
L 69.528787 124.298759 
L 69.549388 124.371785 
L 69.654964 124.18922 
L 69.667839 124.262246 
L 69.703889 124.225733 
L 69.745089 124.116194 
L 69.778565 124.371785 
L 69.814615 124.18922 
L 69.907316 124.371785 
L 69.927916 124.298759 
L 69.930491 124.262246 
L 69.994866 124.408298 
L 70.033492 124.371785 
L 70.110742 124.481323 
L 70.175118 124.663888 
L 70.121042 124.44481 
L 70.226618 124.554349 
L 70.229193 124.517836 
L 70.252368 124.663888 
L 70.332194 124.627375 
L 70.419745 124.663888 
L 70.430045 124.517836 
L 70.43777 124.627375 
L 70.491845 124.517836 
L 70.535621 124.736914 
L 70.545921 124.700401 
L 70.643772 124.80994 
L 70.648922 124.846453 
L 70.728747 124.627375 
L 70.746772 124.700401 
L 70.767373 124.627375 
L 70.867798 124.517836 
L 70.780248 124.663888 
L 70.878099 124.554349 
L 70.986249 124.663888 
L 70.993975 124.627375 
L 71.03775 124.736914 
L 71.148476 124.846453 
L 71.045475 124.590862 
L 71.153626 124.80994 
L 71.339027 124.919478 
L 71.341602 124.955991 
L 71.380228 124.80994 
L 71.442028 124.882965 
L 71.465203 124.773427 
L 71.506404 124.955991 
L 71.552754 124.846453 
L 71.66348 124.955991 
L 71.61198 124.80994 
L 71.666055 124.919478 
L 71.771631 124.992504 
L 71.877207 125.248095 
L 71.887507 125.175069 
L 71.949307 125.248095 
L 72.070333 125.576711 
L 72.163034 125.394146 
L 72.085783 125.613224 
L 72.186209 125.467172 
L 72.196509 125.503685 
L 72.271185 125.357633 
L 72.291785 125.430659 
L 72.340711 125.248095 
L 72.405086 125.357633 
L 72.502937 125.394146 
L 72.423111 125.284608 
L 72.515812 125.357633 
L 72.600788 125.248095 
L 72.608513 125.321121 
L 72.721814 125.029017 
L 72.744989 125.175069 
L 72.806789 124.882965 
L 72.83254 125.029017 
L 72.84284 125.06553 
L 72.87889 124.919478 
L 72.938115 124.955991 
L 73.038541 124.882965 
L 73.118367 124.736914 
L 73.074592 124.919478 
L 73.151842 124.773427 
L 73.298618 124.773427 
L 73.404194 124.590862 
L 73.411919 124.627375 
L 73.450545 124.663888 
L 73.43767 124.517836 
L 73.522645 124.627375 
L 73.54582 124.554349 
L 73.617921 124.736914 
L 73.630796 124.663888 
L 73.733797 124.80994 
L 73.641096 124.554349 
L 73.746672 124.736914 
L 73.808473 124.627375 
L 73.890873 124.481323 
L 73.813623 124.663888 
L 73.924349 124.554349 
L 73.960399 124.44481 
L 74.065975 124.225733 
L 74.081425 124.298759 
L 74.12005 124.225733 
L 74.1458 124.152707 
L 74.223051 124.44481 
L 74.277126 124.554349 
L 74.403303 124.773427 
L 74.887406 124.736914 
L 74.956932 124.627375 
L 74.928607 124.773427 
L 74.998132 124.700401 
L 75.114008 124.992504 
L 75.126883 124.955991 
L 75.157784 124.919478 
L 75.168084 125.029017 
L 75.232459 124.992504 
L 75.317435 125.102043 
L 75.343185 125.06553 
L 75.384386 124.919478 
L 75.412711 125.102043 
L 75.453911 125.06553 
L 75.567212 125.138556 
L 75.639313 125.284608 
L 75.574937 125.102043 
L 75.680513 125.211582 
L 75.690813 125.284608 
L 75.760339 125.06553 
L 75.786089 125.175069 
L 75.89939 125.029017 
L 75.801539 125.211582 
L 75.901965 125.102043 
L 75.97664 125.175069 
L 75.927715 125.06553 
L 76.012691 125.138556 
L 76.113117 124.955991 
L 76.053891 125.211582 
L 76.131142 125.029017 
L 76.192942 125.138556 
L 76.218692 124.919478 
L 76.241868 125.029017 
L 76.339718 124.955991 
L 76.311393 125.102043 
L 76.352594 124.992504 
L 76.447869 125.138556 
L 76.468469 125.06553 
L 76.764597 125.138556 
L 76.865023 125.284608 
L 76.875323 125.175069 
L 76.949998 125.284608 
L 77.065874 125.613224 
L 77.081325 125.576711 
L 77.1045 125.68625 
L 77.230676 126.051379 
L 77.112225 125.649737 
L 77.235826 126.014866 
L 77.331102 125.94184 
L 77.248701 126.087892 
L 77.346552 126.014866 
L 77.511353 126.124405 
L 77.526803 126.160918 
L 77.573154 126.014866 
L 77.616929 126.051379 
L 77.619504 126.014866 
L 77.689029 126.233943 
L 77.717355 126.197431 
L 77.748255 126.270456 
L 77.732805 126.160918 
L 77.828081 126.197431 
L 77.925931 126.087892 
L 78.021207 126.014866 
L 78.026357 126.160918 
L 78.034082 126.124405 
L 78.219484 126.051379 
L 78.296734 126.124405 
L 78.332785 125.905327 
L 78.38686 126.087892 
L 78.446086 126.014866 
L 78.561962 125.905327 
L 78.564537 125.868814 
L 78.587712 126.014866 
L 78.670113 125.94184 
L 78.677838 126.014866 
L 78.680413 125.868814 
L 78.780838 125.978353 
L 78.842639 125.795788 
L 78.896714 125.905327 
L 78.98169 126.014866 
L 79.082116 126.197431 
L 78.994565 125.978353 
L 79.102716 126.160918 
L 79.228892 126.270456 
L 79.331893 126.343482 
L 79.259792 126.197431 
L 79.337043 126.306969 
L 79.357643 126.233943 
L 79.393693 126.416508 
L 79.445194 126.379995 
L 79.52502 126.489534 
L 79.630595 126.635586 
L 79.537895 126.453021 
L 79.640896 126.56256 
L 79.973073 126.489534 
L 80.055474 126.306969 
L 79.998823 126.526047 
L 80.086374 126.416508 
L 80.1765 126.343482 
L 80.287226 126.160918 
L 80.292376 126.197431 
L 80.482927 126.124405 
L 80.518978 126.014866 
L 80.560178 126.160918 
L 80.593653 126.087892 
L 80.614254 126.160918 
L 80.665754 126.051379 
L 80.704379 126.087892 
L 80.964456 126.160918 
L 80.985057 126.270456 
L 81.059732 126.087892 
L 81.075182 126.233943 
L 81.098357 126.124405 
L 81.124108 126.270456 
L 81.185908 126.160918 
L 81.309509 126.379995 
L 81.314659 126.270456 
L 81.327534 126.453021 
L 81.41766 126.379995 
L 81.530961 126.56256 
L 81.533536 126.526047 
L 81.561861 126.453021 
L 81.605637 126.599073 
L 81.641687 126.526047 
L 81.724088 126.599073 
L 81.664862 126.453021 
L 81.754988 126.56256 
L 81.942964 126.672099 
L 81.950689 126.599073 
L 82.05884 126.781637 
L 82.06914 126.635586 
L 82.141241 126.854663 
L 82.166991 126.81815 
L 82.197892 126.927689 
L 82.226217 126.81815 
L 82.311192 126.964202 
L 82.712896 126.964202 
L 82.851947 139.634185 
L 83.356651 156.393615 
L 83.972081 163.58666 
L 83.974656 163.550147 
L 84.046757 164.024815 
L 84.051907 164.024815 
L 84.216708 164.937638 
L 84.221858 164.901125 
L 84.232158 164.864612 
L 84.299109 165.266255 
L 84.309409 165.193229 
L 84.445885 165.70441 
L 84.46391 165.521845 
L 84.536011 165.777435 
L 84.556611 165.70441 
L 84.639012 165.813948 
L 84.749737 165.886974 
L 84.685362 165.777435 
L 84.752312 165.850461 
L 84.793513 165.740922 
L 84.767763 165.923487 
L 84.863038 165.813948 
L 84.950589 165.96 
L 84.976339 165.850461 
L 85.06389 165.740922 
L 85.179766 165.485332 
L 85.184916 165.558358 
L 85.187491 165.594871 
L 85.277617 165.375793 
L 85.282767 165.375793 
L 85.396068 165.302767 
L 85.426968 165.33928 
L 85.514519 165.08369 
L 85.563444 165.010664 
L 85.676745 164.791587 
L 85.581469 165.047177 
L 85.67932 164.864612 
L 85.844121 164.755074 
L 85.854422 164.901125 
L 85.962572 164.645535 
L 86.062998 164.535996 
L 86.176299 164.316919 
L 86.093898 164.609022 
L 86.184024 164.389944 
L 86.186599 164.46297 
L 86.261275 164.170867 
L 86.2896 164.243893 
L 86.3308 164.280406 
L 86.369426 164.134354 
L 86.395176 164.20738 
L 86.505902 163.951789 
L 86.511052 163.988302 
L 86.513627 164.024815 
L 86.603753 163.842251 
L 86.611478 163.842251 
L 86.691303 163.769225 
L 86.802029 163.477121 
L 86.809754 163.513634 
L 86.817479 163.58666 
L 86.902455 163.33107 
L 86.90503 163.367583 
L 87.000306 163.185018 
L 86.933355 163.404096 
L 87.018331 163.221531 
L 87.038931 163.258044 
L 87.105882 163.038966 
L 87.118757 163.075479 
L 87.154807 162.965941 
L 87.260383 162.856402 
L 87.270683 162.892915 
L 87.383984 162.783376 
L 87.389134 162.71035 
L 87.409734 162.856402 
L 87.49471 162.746863 
L 87.577111 162.856402 
L 87.52561 162.71035 
L 87.605436 162.746863 
L 87.731612 162.45476 
L 87.741912 162.564298 
L 87.832038 162.345221 
L 87.837188 162.381734 
L 87.937614 162.199169 
L 87.950489 162.308708 
L 87.953064 162.345221 
L 88.027739 162.126143 
L 88.050915 162.162656 
L 88.09984 162.053118 
L 88.11529 162.089631 
L 88.228591 161.761014 
L 88.269791 161.83404 
L 88.323867 161.687988 
L 88.336742 161.687988 
L 88.367642 161.651475 
L 88.483518 161.359372 
L 88.514418 161.249833 
L 88.522143 161.286346 
L 88.640594 161.030756 
L 88.66377 161.103782 
L 88.722995 160.848191 
L 88.743595 160.921217 
L 88.75132 160.884704 
L 88.769345 160.921217 
L 88.867196 160.665627 
L 88.959897 160.519575 
L 88.880071 160.738652 
L 88.985647 160.556088 
L 88.988222 160.592601 
L 89.075773 160.33701 
L 89.083498 160.373523 
L 89.214824 160.08142 
L 89.248299 159.971881 
L 89.258599 160.008394 
L 89.374475 159.752804 
L 89.389926 159.716291 
L 89.503226 159.4607 
L 89.505802 159.497213 
L 89.544427 159.387674 
L 89.549577 159.424187 
L 89.670603 159.132084 
L 89.688628 159.168597 
L 89.753004 158.913007 
L 89.768454 158.949519 
L 89.799354 158.876494 
L 89.907505 158.58439 
L 89.917805 158.657416 
L 89.953855 158.547877 
L 89.964155 158.58439 
L 90.090331 158.182748 
L 90.128957 158.146235 
L 90.239683 157.854132 
L 90.244833 157.890645 
L 90.247408 157.927158 
L 90.334958 157.635054 
L 90.340108 157.671567 
L 90.466284 157.196899 
L 90.476584 157.269925 
L 90.52036 157.050848 
L 90.57186 157.123873 
L 90.664561 157.014335 
L 90.57701 157.160386 
L 90.687736 157.050848 
L 90.798462 156.977822 
L 90.919488 156.685718 
L 91.027639 156.539667 
L 90.934938 156.758744 
L 91.035364 156.57618 
L 91.037939 156.649206 
L 91.112615 156.430128 
L 91.14094 156.466641 
L 91.174415 156.393615 
L 91.19244 156.430128 
L 91.292866 156.174538 
L 91.308316 156.21105 
L 91.413892 156.028486 
L 91.416467 156.101512 
L 91.509168 155.772895 
L 91.516893 155.845921 
L 91.635344 155.553818 
L 91.650794 155.69987 
L 91.69972 155.407766 
L 91.743495 155.444279 
L 91.774395 155.517305 
L 91.75122 155.407766 
L 91.849071 155.407766 
L 91.985547 154.969611 
L 91.988122 155.006124 
L 92.013872 154.896585 
L 92.026747 154.933098 
L 92.152923 154.494943 
L 92.155498 154.567969 
L 92.250774 154.166327 
L 92.36665 153.983762 
L 92.255924 154.20284 
L 92.3718 154.020275 
L 92.40785 153.947249 
L 92.523726 153.728172 
L 92.526301 153.764685 
L 92.613852 153.509094 
L 92.621577 153.545607 
L 92.631877 153.545607 
L 92.745178 153.399556 
L 92.758053 153.472582 
L 92.868779 153.216991 
L 92.881654 153.32653 
L 92.93058 153.180478 
L 92.979505 153.253504 
L 93.097956 153.070939 
L 93.100531 153.107452 
L 93.249882 153.034426 
L 93.337433 152.815349 
L 93.363183 152.924888 
L 93.386358 152.815349 
L 93.476484 152.669297 
L 93.391508 152.851862 
L 93.502234 152.70581 
L 93.517684 152.742323 
L 93.59236 152.523246 
L 93.600085 152.523246 
L 93.667036 152.413707 
L 93.672186 152.45022 
L 93.793212 152.158116 
L 93.839562 152.194629 
L 93.888487 151.939039 
L 93.893638 151.975552 
L 94.009513 151.756474 
L 94.037839 151.792987 
L 94.086764 151.57391 
L 94.109939 151.610423 
L 94.23869 151.354832 
L 94.310791 151.281806 
L 94.418942 151.099242 
L 94.424092 151.135755 
L 94.537393 150.95319 
L 94.447267 151.172268 
L 94.545118 150.989703 
L 94.594043 150.880164 
L 94.707344 150.661087 
L 94.609493 150.916677 
L 94.712494 150.6976 
L 94.715069 150.770625 
L 94.80262 150.515035 
L 94.815495 150.515035 
L 94.882446 150.259445 
L 94.939096 150.295957 
L 94.941671 150.33247 
L 95.026647 150.07688 
L 95.034372 150.07688 
L 95.111623 150.003854 
L 95.235224 149.638725 
L 95.353675 149.565699 
L 95.466975 149.346622 
L 95.46955 149.419647 
L 95.580276 149.164057 
L 95.590576 149.273596 
L 95.626627 149.20057 
L 95.747653 148.871954 
L 95.755378 148.944979 
L 95.848079 148.725902 
L 95.850654 148.798928 
L 95.974255 148.470312 
L 95.858379 148.835441 
L 95.979405 148.543337 
L 96.041205 148.470312 
L 96.144206 148.251234 
L 96.05408 148.506824 
L 96.157081 148.287747 
L 96.185406 148.178208 
L 96.272957 147.959131 
L 96.190556 148.214721 
L 96.306432 148.032156 
L 96.309007 148.068669 
L 96.357933 147.886105 
L 96.409433 147.959131 
L 96.543334 147.630514 
L 96.558784 147.667027 
L 96.636035 147.44795 
L 96.641185 147.520976 
L 96.749336 147.338411 
L 96.757061 147.374924 
L 96.759636 147.44795 
L 96.860062 147.155846 
L 96.870362 147.228872 
L 96.924437 147.046308 
L 96.963063 147.046308 
L 97.022288 146.936769 
L 97.148464 146.644666 
L 97.166489 146.717691 
L 97.199965 146.535127 
L 97.256615 146.57164 
L 97.387941 146.279536 
L 97.436867 146.316049 
L 97.470342 146.169998 
L 97.488367 146.206511 
L 97.599093 146.023946 
L 97.601668 146.096972 
L 97.709819 146.023946 
L 97.82312 145.841381 
L 97.732994 146.096972 
L 97.825695 145.877894 
L 97.910671 145.69533 
L 97.83342 145.914407 
L 97.944146 145.731843 
L 98.047147 145.768355 
L 97.964746 145.658817 
L 98.052297 145.69533 
L 98.083197 145.585791 
L 98.183623 145.439739 
L 98.124397 145.69533 
L 98.196498 145.476252 
L 98.199073 145.549278 
L 98.260873 145.3302 
L 98.302074 145.3302 
L 98.4334 145.220662 
L 98.536401 145.038097 
L 98.502925 145.293688 
L 98.551851 145.111123 
L 98.644552 145.038097 
L 98.760427 144.709481 
L 98.765578 144.745994 
L 98.837678 144.636455 
L 98.974154 144.271326 
L 99.020505 144.161787 
L 99.02823 144.1983 
L 99.136381 144.052248 
L 99.144106 144.088761 
L 99.229081 143.906197 
L 99.239381 143.979222 
L 99.337232 143.650606 
L 99.360407 143.687119 
L 99.362982 143.760145 
L 99.432508 143.541067 
L 99.465983 143.57758 
L 99.538084 143.468042 
L 99.66941 143.175938 
L 99.671985 143.212451 
L 99.754386 142.993374 
L 99.767261 143.029887 
L 99.883137 142.810809 
L 99.782711 143.102912 
L 99.888287 142.883835 
L 99.906312 142.920348 
L 99.957812 142.664757 
L 99.988713 142.737783 
L 100.009313 142.628244 
L 100.127764 142.409167 
L 100.130339 142.482193 
L 100.132914 142.518706 
L 100.205014 142.299628 
L 100.23334 142.372654 
L 100.26424 142.190089 
L 100.349216 142.263115 
L 100.380116 142.336141 
L 100.411016 142.117064 
L 100.449641 142.153576 
L 100.575817 141.715421 
L 100.580967 141.751934 
L 100.653068 141.496344 
L 100.671093 141.532857 
L 100.792119 141.350292 
L 100.820444 141.386805 
L 100.887395 141.204241 
L 100.89512 141.240753 
L 100.959496 141.167728 
L 101.067646 140.94865 
L 101.075371 141.021676 
L 101.201548 140.802598 
L 101.255623 140.729573 
L 101.260773 140.839111 
L 101.371499 140.583521 
L 101.438449 140.473982 
L 101.45905 140.510495 
L 101.564626 140.254905 
L 101.567201 140.32793 
L 101.662476 140.035827 
L 101.670201 140.108853 
L 101.783502 139.889775 
L 101.793802 139.926288 
L 101.806678 139.999314 
L 101.894228 139.81675 
L 101.896803 139.853262 
L 101.948304 139.889775 
L 102.017829 139.707211 
L 102.022979 139.780237 
L 102.082205 139.634185 
L 102.12083 139.670698 
L 102.218681 139.415107 
L 102.236706 139.488133 
L 102.257306 139.378595 
L 102.378332 139.123004 
L 102.285631 139.415107 
L 102.380907 139.159517 
L 102.393782 139.232543 
L 102.442708 138.976952 
L 102.483908 139.049978 
L 102.597209 138.867414 
L 102.622959 138.976952 
L 102.682185 138.757875 
L 102.70536 138.830901 
L 102.718235 138.867414 
L 102.823811 138.611823 
L 102.983462 138.502284 
L 102.993762 138.538797 
L 103.112213 138.246694 
L 103.161139 138.173668 
L 103.264139 137.954591 
L 103.277015 137.991104 
L 103.35169 137.881565 
L 103.434091 137.735513 
L 103.36199 137.918078 
L 103.464991 137.808539 
L 103.467566 137.845052 
L 103.511341 137.662487 
L 103.565417 137.699 
L 103.696743 137.406897 
L 103.771419 137.297358 
L 103.88472 137.041768 
L 103.776569 137.333871 
L 103.88987 137.078281 
L 103.918195 136.968742 
L 104.034071 136.786177 
L 104.039221 136.82269 
L 104.124197 136.749664 
L 104.232347 136.457561 
L 104.131922 136.786177 
L 104.242648 136.494074 
L 104.245223 136.530587 
L 104.317323 136.311509 
L 104.340498 136.348022 
L 104.464099 136.128945 
L 104.484699 136.201971 
L 104.5568 135.982893 
L 104.564525 136.019406 
L 104.667526 135.873354 
L 104.613451 136.055919 
L 104.677826 135.909867 
L 104.755077 135.836841 
L 104.834902 135.654277 
L 104.870953 135.69079 
L 104.914728 135.800328 
L 104.945628 135.617764 
L 104.976529 135.654277 
L 105.092404 135.435199 
L 105.164505 135.508225 
L 105.169655 135.362173 
L 105.200555 135.362173 
L 105.316431 135.289148 
L 105.411707 135.179609 
L 105.324156 135.32566 
L 105.427157 135.216122 
L 105.455482 135.289148 
L 105.522433 135.033557 
L 105.530158 135.033557 
L 105.628009 134.850993 
L 105.643459 134.960531 
L 105.679509 134.997044 
L 105.759335 134.81448 
L 105.76191 134.924018 
L 105.826286 134.668428 
L 105.864911 134.668428 
L 105.973062 134.558889 
L 106.078638 134.412837 
L 105.985937 134.595402 
L 106.088938 134.44935 
L 106.148163 134.485863 
L 106.186788 134.303299 
L 106.307814 134.011195 
L 106.225414 134.339812 
L 106.31554 134.047708 
L 106.318115 134.084221 
L 106.39794 133.901657 
L 106.41854 133.93817 
L 106.544716 133.646066 
L 106.547291 133.682579 
L 106.593642 133.57304 
L 106.727543 133.244424 
L 106.768743 133.31745 
L 106.761018 133.171398 
L 106.835694 133.280937 
L 106.95157 132.988834 
L 106.954145 133.025347 
L 107.098346 132.952321 
L 107.209072 132.769756 
L 107.214222 132.806269 
L 107.324948 132.660217 
L 107.242547 132.842782 
L 107.330098 132.69673 
L 107.332673 132.733243 
L 107.425374 132.514166 
L 107.430524 132.550679 
L 107.505199 132.44114 
L 107.60305 132.222062 
L 107.621075 132.295088 
L 107.664851 132.185549 
L 107.778152 132.076011 
L 107.675151 132.222062 
L 107.780727 132.112524 
L 107.873427 132.002985 
L 107.997028 131.747394 
L 108.033079 131.82042 
L 108.092304 131.56483 
L 108.102604 131.601343 
L 108.138654 131.528317 
L 108.25968 131.163188 
L 108.285431 131.199701 
L 108.352381 131.017136 
L 108.362681 131.053649 
L 108.499157 130.68852 
L 108.509458 130.761546 
L 108.586708 130.396416 
L 108.707734 130.140826 
L 108.710309 130.213852 
L 108.746359 130.140826 
L 108.857085 129.994774 
L 108.85966 130.031287 
L 108.887986 130.0678 
L 108.980686 129.848723 
L 109.001287 129.885235 
L 109.075962 129.629645 
L 109.142913 129.520106 
L 109.269089 129.228003 
L 109.276814 129.301029 
L 109.359215 129.008925 
L 109.37209 129.081951 
L 109.490541 128.826361 
L 109.524016 128.716822 
L 109.554916 128.789848 
L 109.637317 128.643796 
L 109.665642 128.753335 
L 109.714567 128.534257 
L 109.737743 128.534257 
L 109.748043 128.57077 
L 109.874219 128.169128 
L 109.984945 128.059589 
L 110.103396 127.840512 
L 110.147171 127.986564 
L 110.170346 127.803999 
L 110.211547 127.840512 
L 110.263047 127.913538 
L 110.329997 127.69446 
L 110.348023 127.730973 
L 110.396948 127.548409 
L 110.435573 127.621434 
L 110.543724 127.256305 
L 110.551449 127.292818 
L 110.559174 127.402357 
L 110.574624 127.219792 
L 110.66475 127.329331 
L 110.798651 126.964202 
L 110.808951 127.000715 
L 110.875902 126.745124 
L 110.893927 126.745124 
L 110.940277 126.635586 
L 111.051003 126.453021 
L 110.945428 126.672099 
L 111.061303 126.489534 
L 111.069029 126.526047 
L 111.148854 126.160918 
L 111.151429 126.233943 
L 111.246705 125.94184 
L 111.26988 126.014866 
L 111.329106 125.978353 
L 111.442407 125.68625 
L 111.444982 125.759276 
L 111.553133 125.722763 
L 111.666433 125.540198 
L 111.707634 125.503685 
L 111.826085 125.138556 
L 111.941961 124.80994 
L 111.836385 125.175069 
L 111.954836 124.846453 
L 111.990886 124.882965 
L 112.050112 124.627375 
L 112.055262 124.700401 
L 112.196888 124.590862 
L 112.328214 124.262246 
L 112.333364 124.408298 
L 112.379714 124.152707 
L 112.43379 124.152707 
L 112.47499 124.043168 
L 112.588291 123.93363 
L 112.544516 124.116194 
L 112.590866 123.970142 
L 112.660392 123.860604 
L 112.794293 123.422449 
L 112.714467 123.897117 
L 112.796868 123.458962 
L 112.804593 123.531987 
L 112.899869 123.31291 
L 112.905019 123.385936 
L 113.041495 123.276397 
L 113.157371 123.020807 
L 113.162521 123.130345 
L 113.211446 123.020807 
L 113.342772 122.69219 
L 113.350497 122.801729 
L 113.422598 122.546139 
L 113.453498 122.69219 
L 113.579674 122.400087 
L 113.582249 122.4366 
L 113.620874 122.363574 
L 113.6389 122.400087 
L 113.744476 121.998445 
L 113.785676 121.925419 
L 113.803701 121.961932 
L 113.904127 121.706341 
L 113.958202 121.779367 
L 113.994253 121.523777 
L 114.009703 121.669829 
L 114.135879 121.450751 
L 114.161629 121.377725 
L 114.26978 121.049109 
L 114.28008 121.122135 
L 114.31098 121.049109 
L 114.406256 120.68398 
L 114.432006 120.757006 
L 114.480932 120.68398 
L 114.607108 120.136286 
L 114.609683 120.172799 
L 114.619983 120.209312 
L 114.735859 119.953721 
L 114.748734 119.990234 
L 114.789934 119.698131 
L 114.831134 119.734644 
L 114.965036 119.369515 
L 114.967611 119.406028 
L 115.055161 119.223463 
L 115.068036 119.259976 
L 115.183912 119.040898 
L 115.075761 119.296489 
L 115.189062 119.077411 
L 115.194212 119.113924 
L 115.248288 118.858334 
L 115.289488 119.004385 
L 115.405364 118.602743 
L 115.446564 118.493205 
L 115.572741 118.274127 
L 115.768442 118.164588 
L 115.897193 117.872485 
L 115.917793 117.908998 
L 115.943544 117.726433 
L 116.002769 117.799459 
L 116.11092 117.580382 
L 116.123795 117.653407 
L 116.16757 117.543869 
L 116.275721 117.324791 
L 116.175295 117.580382 
L 116.286021 117.397817 
L 116.288596 117.43433 
L 116.363272 117.105714 
L 116.376147 117.142227 
L 116.499748 116.740584 
L 116.504898 116.850123 
L 116.579574 116.886636 
L 116.602749 116.740584 
L 116.607899 116.740584 
L 116.615624 116.81361 
L 116.723775 116.631046 
L 116.74695 116.704071 
L 116.819051 116.448481 
L 116.824201 116.521507 
L 116.965827 116.083352 
L 117.004452 115.973813 
L 117.117753 115.645197 
L 117.128053 115.754736 
L 117.138353 115.791248 
L 117.220754 115.535658 
L 117.223329 115.535658 
L 117.33663 115.426119 
L 117.241354 115.608684 
L 117.339205 115.462632 
L 117.429331 115.353093 
L 117.560657 114.914938 
L 117.565807 114.987964 
L 117.568382 115.024477 
L 117.653358 114.732374 
L 117.658508 114.732374 
L 117.666233 114.768887 
L 117.787259 114.44027 
L 117.861934 114.549809 
L 117.833609 114.403758 
L 117.897985 114.476783 
L 117.99841 114.257706 
L 118.016436 114.367245 
L 118.042186 114.294219 
L 118.155487 113.856064 
L 118.163212 113.892577 
L 118.165787 113.965603 
L 118.266213 113.710012 
L 118.281663 113.636986 
L 118.400114 113.089292 
L 118.402689 113.125805 
L 118.425864 113.016267 
L 118.564915 112.614624 
L 118.629291 112.541599 
L 118.758042 112.030418 
L 118.850742 111.81134 
L 118.770917 112.066931 
L 118.876493 111.920879 
L 118.969193 111.993905 
L 118.891943 111.847853 
L 118.987219 111.920879 
L 119.061894 111.738314 
L 119.103095 111.847853 
L 119.16232 111.738314 
L 119.280771 111.519237 
L 119.17262 111.774827 
L 119.285921 111.55575 
L 119.448147 111.446211 
L 119.579473 111.117595 
L 119.584623 111.154108 
L 119.628399 110.93503 
L 119.672174 110.93503 
L 119.795775 110.423849 
L 119.695349 111.008056 
L 119.79835 110.460362 
L 119.831825 110.350823 
L 119.952851 110.022207 
L 119.960577 110.095233 
L 119.970877 110.204772 
L 119.996627 110.05872 
L 120.068727 110.095233 
L 120.125378 109.876156 
L 120.189753 109.949181 
L 120.223229 110.022207 
L 120.285029 109.584052 
L 120.287604 109.620565 
L 120.447256 108.92682 
L 120.454981 108.963333 
L 120.506481 108.598203 
L 120.537381 108.671229 
L 120.557981 108.56169 
L 120.601757 108.707742 
L 120.648107 108.671229 
L 120.751108 108.56169 
L 120.885009 108.123535 
L 120.887584 108.196561 
L 120.94681 108.087022 
L 120.954535 108.160048 
L 121.070411 107.904458 
L 121.157961 107.831432 
L 121.268687 106.882096 
L 121.299588 106.918609 
L 121.384563 107.028148 
L 121.309888 106.882096 
L 121.410313 106.918609 
L 121.482414 106.663019 
L 121.523614 106.772557 
L 121.533914 106.845583 
L 121.59829 106.297889 
L 121.600865 106.334402 
L 121.719316 106.042299 
L 121.727041 106.115325 
L 121.871242 106.663019 
L 121.873817 106.626506 
L 121.886692 106.55348 
L 121.956218 106.918609 
L 121.966518 106.882096 
L 121.987118 106.991635 
L 121.999993 107.064661 
L 122.036044 106.845583 
L 122.092694 106.918609 
L 122.136469 106.991635 
L 122.24977 107.320251 
L 122.373371 106.882096 
L 122.378521 106.955122 
L 122.388821 106.80907 
L 122.484097 106.882096 
L 122.496972 106.955122 
L 122.527873 107.064661 
L 122.589673 106.699532 
L 122.599973 106.736044 
L 122.746749 106.151838 
L 122.605123 106.772557 
L 122.749324 106.188351 
L 122.769925 106.078812 
L 122.908976 105.604144 
L 122.911551 105.640657 
L 122.914126 105.67717 
L 122.996526 105.421579 
L 123.009402 105.604144 
L 123.122703 105.202502 
L 123.125278 105.239015 
L 123.284929 104.545269 
L 123.297804 104.43573 
L 123.341579 104.472243 
L 123.452305 103.778498 
L 123.568181 103.92455 
L 123.506381 103.705472 
L 123.570756 103.888037 
L 123.629982 103.632446 
L 123.696932 103.668959 
L 123.730407 103.815011 
L 123.776758 103.449882 
L 123.794783 103.486395 
L 123.915809 103.04824 
L 123.931259 102.975214 
L 123.944134 102.792649 
L 123.985335 103.084752 
L 124.03941 102.975214 
L 124.142411 103.30383 
L 124.04456 102.938701 
L 124.157861 103.121265 
L 124.286612 102.829162 
L 124.327812 103.011727 
L 124.376738 102.610085 
L 124.495189 102.171929 
L 124.497764 102.208442 
L 124.546689 102.391007 
L 124.58789 101.843313 
L 124.590465 101.843313 
L 124.739816 100.200232 
L 124.750116 100.127206 
L 124.891742 98.338073 
L 124.917492 98.192021 
L 124.968993 98.995305 
L 124.979293 98.995305 
L 124.989593 98.885767 
L 125.113194 98.520638 
L 125.020493 98.995305 
L 125.120919 98.593663 
L 125.149244 98.703202 
L 125.247095 99.287409 
L 125.154394 98.666689 
L 125.277995 98.958793 
L 125.411896 98.520638 
L 125.414471 98.593663 
L 125.442797 98.666689 
L 125.574123 99.323922 
L 125.628198 99.250896 
L 125.661673 99.506486 
L 125.679699 99.396948 
L 125.710599 99.287409 
L 125.816175 98.265047 
L 125.841925 98.703202 
L 125.8857 98.630176 
L 125.952651 98.228534 
L 125.988701 98.812741 
L 125.991276 98.812741 
L 126.004151 98.92228 
L 126.148352 99.981154 
L 126.150927 99.944641 
L 126.184403 99.835103 
L 126.259078 98.92228 
L 126.336329 99.17787 
L 126.346629 99.287409 
L 126.416155 98.520638 
L 126.431605 98.55715 
L 126.462505 98.484125 
L 126.524305 98.776228 
L 126.52688 98.739715 
L 126.542331 98.812741 
L 126.604131 98.30156 
L 126.606706 98.30156 
L 126.617006 98.228534 
L 126.714857 96.658479 
L 126.763782 97.206172 
L 126.807558 97.315711 
L 126.877083 95.344014 
L 126.915709 15.125129 
L 126.995534 87.785839 
L 127.142311 111.373185 
L 127.155186 111.482724 
L 127.222136 111.920879 
L 127.278787 111.701801 
L 127.291662 111.774827 
L 127.399813 111.336672 
L 127.420413 111.373185 
L 127.487363 111.008056 
L 127.492513 111.081082 
L 127.621264 110.460362 
L 127.62899 110.533388 
L 127.70624 109.985694 
L 127.713965 110.05872 
L 127.845291 109.18241 
L 127.855591 109.218923 
L 127.914817 108.707742 
L 127.922542 108.707742 
L 128.231544 105.896247 
L 128.24442 105.786709 
L 128.761999 99.908128 
L 128.767149 99.944641 
L 128.787749 100.090693 
L 128.816074 99.835103 
L 128.872725 99.871616 
L 128.996326 99.360435 
L 128.998901 99.396948 
L 129.006626 99.287409 
L 129.024651 99.17787 
L 129.083876 99.835103 
L 129.096752 99.835103 
L 129.217778 100.492335 
L 129.235803 100.236745 
L 129.246103 100.127206 
L 129.313053 98.009457 
L 129.328503 66.571833 
L 129.354254 14.76 
L 129.434079 86.5444 
L 129.580856 110.715953 
L 129.681281 111.190621 
L 129.707032 111.154108 
L 129.876983 110.277798 
L 129.879558 110.314311 
L 129.933633 109.730104 
L 129.949084 109.80313 
L 130.10616 108.452152 
L 130.113885 108.342613 
L 130.384262 106.078812 
L 130.397137 106.005786 
L 130.587689 103.741985 
L 130.590264 103.778498 
L 130.646914 103.04824 
L 130.829741 99.944641 
L 130.968792 96.585453 
L 131.007417 15.271181 
L 131.092393 87.931891 
L 131.239169 109.730104 
L 131.32672 110.241285 
L 131.37822 110.168259 
L 131.545597 109.291949 
L 131.548172 109.364975 
L 131.633147 108.780768 
L 131.635722 108.780768 
L 131.877774 106.918609 
L 131.882924 106.955122 
L 131.95245 106.443941 
L 131.9576 106.480454 
L 132.405654 101.697262 
L 132.444279 101.587723 
L 132.58848 100.090693 
L 132.59878 100.163719 
L 132.681181 99.579512 
L 132.688906 99.652538 
L 132.735256 99.396948 
L 132.781607 99.469973 
L 133.028809 94.686781 
L 133.067434 16.220517 
L 133.14726 81.688182 
L 133.296611 108.087022 
L 133.409912 108.92682 
L 133.430512 108.817281 
L 133.453687 108.853794 
L 133.559263 108.525177 
L 133.561838 108.56169 
L 133.621064 108.013997 
L 133.631364 108.05051 
L 133.80389 106.297889 
L 133.806465 106.370915 
L 133.886291 105.640657 
L 134.040792 103.741985 
L 134.259669 99.250896 
L 134.272544 85.266448 
L 134.303444 16.037952 
L 134.38327 80.738846 
L 134.532621 107.575842 
L 134.663947 108.379126 
L 134.692272 108.269587 
L 134.821024 107.721893 
L 134.828749 107.648867 
L 134.99355 106.078812 
L 134.996125 106.151838 
L 135.073376 105.239015 
L 135.081101 105.275528 
L 135.60383 96.293349 
L 135.616705 89.465433 
L 135.652755 16.622159 
L 135.730006 78.109915 
L 135.879357 106.589993 
L 135.972058 107.393277 
L 136.028708 107.210712 
L 136.15746 106.005786 
L 136.160035 106.042299 
L 136.337711 104.034088 
L 136.342861 104.107114 
L 136.420112 103.413369 
L 136.422687 103.413369 
L 136.574613 101.624236 
L 136.592638 101.55121 
L 136.762589 99.79859 
L 136.77804 99.871616 
L 136.852715 99.323922 
L 136.981466 98.447612 
L 136.986616 98.411099 
L 137.115367 98.812741 
L 137.143693 99.031818 
L 137.295619 96.80453 
L 137.308494 96.731504 
L 137.37287 95.490065 
L 137.426945 96.366375 
L 137.532521 96.841043 
L 137.563421 96.768017 
L 137.599471 96.950582 
L 137.689597 96.54894 
L 137.717922 96.768017 
L 137.779723 96.366375 
L 137.792598 96.439401 
L 137.841523 96.512427 
L 137.913624 96.074272 
L 137.941949 96.220324 
L 138.00375 95.563091 
L 138.1016 91.692722 
L 138.145376 17.023801 
L 138.227777 78.219454 
L 138.382278 104.873886 
L 138.451803 105.604144 
L 138.505879 105.275528 
L 138.539354 105.202502 
L 138.704155 103.632446 
L 138.71188 103.522908 
L 139.193409 98.04597 
L 139.20371 98.118995 
L 139.26036 98.30156 
L 139.304135 98.009457 
L 139.309285 98.04597 
L 139.329886 97.936431 
L 139.543612 96.439401 
L 139.566788 96.585453 
L 139.610563 95.891707 
L 139.618288 95.964733 
L 139.736739 93.773958 
L 139.852615 94.1756 
L 139.86034 94.139087 
L 139.991666 94.613755 
L 139.999391 94.504216 
L 140.092092 94.905858 
L 140.094667 94.905858 
L 140.110117 95.015397 
L 140.122992 95.161449 
L 140.189943 94.650268 
L 140.195093 94.650268 
L 140.344444 93.481855 
L 140.406244 93.846984 
L 140.462895 93.773958 
L 140.49122 93.810471 
L 140.653446 90.268718 
L 140.699797 18.228727 
L 140.784773 77.379657 
L 140.936699 103.741985 
L 140.946999 103.815011 
L 140.998499 104.070601 
L 141.057725 103.815011 
L 141.0603 103.851524 
L 141.114375 103.157778 
L 141.119525 103.157778 
L 141.312652 100.820951 
L 141.328102 100.711413 
L 141.601054 95.526578 
L 141.619079 68.28794 
L 141.64998 18.301753 
L 141.72723 68.507018 
L 141.884307 103.522908 
L 141.977007 104.289679 
L 142.023358 103.961063 
L 142.190734 102.354494 
L 142.206184 102.281468 
L 142.386436 100.273258 
L 142.391586 100.163719 
L 142.574412 98.118995 
L 142.793289 93.664419 
L 142.808739 76.430321 
L 142.842214 17.425443 
L 142.92204 69.748457 
L 143.079116 102.464033 
L 143.236193 103.55942 
L 143.256793 103.486395 
L 143.385544 102.646597 
L 143.403569 102.573572 
L 143.694546 97.461763 
L 143.697121 97.498276 
L 143.743472 96.658479 
L 144.013849 88.771688 
L 144.057624 18.812934 
L 144.13745 69.857996 
L 144.294526 102.098904 
L 144.402677 102.829162 
L 144.443878 102.68311 
L 145.118533 92.16739 
L 145.164883 18.557344 
L 145.255009 75.700063 
L 145.406935 101.916339 
L 145.40951 101.879826 
L 145.494486 102.610085 
L 145.535687 102.42752 
L 145.685038 101.259106 
L 145.687613 101.295619 
L 145.744263 100.565361 
L 146.151117 93.262777 
L 146.197467 18.849447 
L 146.287593 73.399749 
L 146.447244 101.113055 
L 146.545095 102.098904 
L 146.58887 101.989365 
L 147.13735 92.934161 
L 147.186275 19.835296 
L 147.276401 74.422111 
L 147.433477 101.076542 
L 147.500428 101.660749 
L 147.559653 101.514697 
L 148.205983 93.883497 
L 148.224009 93.993035 
L 148.283234 93.262777 
L 148.298684 93.262777 
L 148.43516 92.313441 
L 148.44031 92.386467 
L 148.45576 92.276928 
L 148.592237 87.457223 
L 148.641162 19.944835 
L 148.720988 67.776759 
L 148.878064 98.958793 
L 148.94759 99.579512 
L 148.99909 99.287409 
L 149.006815 99.214383 
L 149.176766 97.498276 
L 149.184491 97.42525 
L 149.354443 95.636117 
L 149.357018 95.67263 
L 149.364743 95.599604 
L 149.611945 85.850654 
L 149.658295 20.967196 
L 149.735546 63.614286 
L 149.902922 98.593663 
L 149.980173 99.616025 
L 150.041974 99.433461 
L 150.747529 90.779899 
L 150.757829 90.816411 
L 150.832505 90.852924 
L 150.84023 90.706873 
L 150.86083 90.743386 
L 150.868555 90.67036 
L 150.930356 90.889437 
L 150.968981 90.816411 
L 150.992156 90.889437 
L 151.038507 90.378256 
L 151.046232 90.378256 
L 151.164683 89.647998 
L 151.195583 89.79405 
L 151.234208 90.04964 
L 151.293434 89.355895 
L 151.296009 89.465433 
L 151.401585 88.370046 
L 151.301159 89.501946 
L 151.432485 88.735175 
L 151.442785 88.808201 
L 151.638487 84.463163 
L 151.661662 59.926482 
L 151.697712 22.245149 
L 151.772388 60.547201 
L 151.942339 96.475914 
L 152.006715 97.279198 
L 152.089115 96.987095 
L 152.62472 88.260507 
L 152.647895 59.999507 
L 152.683945 21.441864 
L 152.758621 60.03602 
L 152.931147 96.621966 
L 153.010973 97.461763 
L 153.059898 97.16966 
L 153.227275 95.563091 
L 153.734554 88.662149 
L 153.801504 88.990766 
L 153.90193 89.830563 
L 153.930255 89.574972 
L 154.123382 88.406559 
L 154.154282 88.479585 
L 154.195483 87.858865 
L 154.241833 81.286539 
L 154.293333 22.902381 
L 154.370584 61.460024 
L 154.53796 96.147298 
L 154.540535 96.110785 
L 154.599761 96.914069 
L 154.658986 96.768017 
L 154.692462 96.694992 
L 154.921639 93.335803 
L 154.924214 93.372316 
L 154.967989 92.42298 
L 155.315617 88.589123 
L 155.336217 88.771688 
L 155.367117 88.698662 
L 155.431493 87.42071 
L 155.490718 88.150968 
L 155.547369 88.29702 
L 155.580844 87.895378 
L 155.585994 87.931891 
L 155.642645 82.527979 
L 155.69672 24.070794 
L 155.776546 61.058382 
L 155.946497 94.905858 
L 156.016023 95.818681 
L 156.090698 95.380526 
L 156.443476 88.844714 
L 156.469226 81.396078 
L 156.520727 24.691514 
L 156.597977 57.334064 
L 156.775654 94.066061 
L 156.780804 94.139087 
L 156.878655 95.088423 
L 156.90698 94.79632 
L 156.94303 94.723294 
L 157.172207 91.364105 
L 157.185082 91.254567 
L 157.458034 88.954253 
L 157.473485 88.844714 
L 157.609961 85.375986 
L 157.648586 79.351355 
L 157.705236 24.581975 
L 157.779912 57.881758 
L 157.955013 93.737445 
L 157.962739 93.846984 
L 158.070889 94.759807 
L 158.09149 94.650268 
L 158.310366 91.583183 
L 158.632244 88.04143 
L 158.665719 88.077943 
L 158.668294 88.150968 
L 158.750695 87.347684 
L 158.887171 86.215784 
L 158.78417 87.42071 
L 158.897471 86.288809 
L 158.918071 86.434861 
L 158.979872 85.887167 
L 158.982447 85.92368 
L 159.108623 82.126337 
L 159.165273 82.747056 
L 159.3584 86.179271 
L 159.3893 85.996706 
L 159.438226 86.069732 
L 159.541227 86.252297 
L 159.489726 85.960193 
L 159.546377 86.106245 
L 159.693153 84.025008 
L 159.726628 80.410229 
L 159.793579 27.174393 
L 159.873404 60.401149 
L 160.048506 91.583183 
L 160.133481 92.16739 
L 160.166957 92.021338 
L 160.694836 83.185211 
L 160.718011 69.602405 
L 160.772087 28.817474 
L 160.841612 53.354156 
L 161.034739 91.729234 
L 161.039889 91.80226 
L 161.093964 92.276928 
L 161.155765 92.094364 
L 161.77377 81.79772 
L 161.871621 73.728365 
L 161.935996 30.716146 
L 162.008097 53.646259 
L 162.203798 90.195692 
L 162.335124 91.181541 
L 162.345425 91.072002 
L 162.371175 90.998976 
L 162.613227 87.238145 
L 162.631252 87.16512 
L 162.749703 84.426651 
L 162.783178 84.755267 
L 162.826953 84.426651 
L 162.929954 85.302961 
L 163.094756 84.499676 
L 163.135956 84.645728 
L 163.187456 84.280599 
L 163.200332 84.426651 
L 163.220932 84.390138 
L 163.336808 76.028679 
L 163.408908 30.497068 
L 163.478434 52.806462 
L 163.668985 89.136817 
L 163.766836 90.159179 
L 163.828637 89.867076 
L 163.988288 87.603275 
L 163.990863 87.639787 
L 164.160814 83.951983 
L 164.196865 57.005448 
L 164.243215 31.51943 
L 164.310166 51.126868 
L 164.521317 89.79405 
L 164.523892 89.721024 
L 164.598568 90.195692 
L 164.619168 90.159179 
L 165.046622 82.564492 
L 165.152198 79.972074 
L 165.198548 80.702333 
L 165.329874 82.126337 
L 165.373649 81.615156 
L 165.3994 81.505617 
L 165.458625 81.943772 
L 165.463775 81.907259 
L 165.602826 83.477315 
L 165.626001 83.367776 
L 165.690377 83.477315 
L 165.721277 83.55034 
L 165.783078 83.221724 
L 165.798528 83.148698 
L 165.981354 80.081613 
L 166.00968 80.264178 
L 166.027705 80.410229 
L 166.094655 79.533919 
L 166.184781 78.328993 
L 166.233706 78.730635 
L 166.256882 78.803661 
L 166.411383 80.556281 
L 166.426833 80.519768 
L 166.429408 80.483255 
L 166.480908 80.92141 
L 166.514384 80.811872 
L 166.547859 80.884897 
L 166.601934 80.519768 
L 166.704935 78.730635 
L 166.777036 79.606945 
L 166.813086 79.716484 
L 166.941837 80.373716 
L 166.944412 80.337204 
L 166.980463 80.227665 
L 167.070588 80.008587 
L 167.019088 80.264178 
L 167.091188 80.154639 
L 167.116939 80.337204 
L 167.168439 78.949713 
L 167.26114 77.379657 
L 167.299765 77.635248 
L 167.667993 81.578643 
L 167.680868 81.469104 
L 167.750394 81.396078 
L 167.88172 80.775359 
L 167.889445 80.775359 
L 168.025921 79.278329 
L 168.041371 79.387868 
L 168.103172 78.365506 
L 168.105747 78.402019 
L 168.146947 78.182941 
L 168.188148 78.657609 
L 168.198448 78.657609 
L 168.201023 78.694122 
L 168.270548 78.328993 
L 168.283423 78.365506 
L 168.4611 75.955653 
L 168.4714 76.101705 
L 168.767527 79.16879 
L 168.484275 75.955653 
L 168.782977 78.986226 
L 168.826753 78.657609 
L 168.880828 79.16879 
L 168.885978 79.16879 
L 168.909153 79.241816 
L 168.911728 79.314842 
L 168.976104 78.000377 
L 169.043055 76.247757 
L 169.104855 76.831963 
L 169.285107 77.854325 
L 169.297982 77.744786 
L 169.354632 78.29248 
L 169.364932 78.255967 
L 169.367507 78.365506 
L 169.462783 77.744786 
L 169.498833 77.379657 
L 169.578659 77.562222 
L 169.630159 77.452683 
L 169.792386 75.955653 
L 169.800111 76.028679 
L 169.923712 76.649399 
L 169.807836 75.992166 
L 169.931437 76.612886 
L 169.941737 76.722425 
L 170.109113 77.525709 
L 170.26619 76.101705 
L 170.315115 76.174731 
L 170.320265 76.28427 
L 170.35374 75.955653 
L 170.423266 76.101705 
L 170.459316 75.992166 
L 170.539142 75.444472 
L 170.577767 75.773089 
L 170.763169 78.000377 
L 170.90222 77.16058 
L 170.91252 77.051041 
L 170.94857 77.306631 
L 171.067021 76.430321 
L 171.072171 76.503347 
L 171.115947 75.590524 
L 171.118522 75.627037 
L 171.306498 70.880357 
L 171.332248 71.172461 
L 171.355424 71.282 
L 171.5743 76.028679 
L 171.576875 75.992166 
L 171.661851 76.612886 
L 171.703051 76.503347 
L 171.873003 74.677701 
L 171.875578 74.714214 
L 171.896178 74.604675 
L 171.973429 73.326723 
L 172.027504 73.582313 
L 172.120205 74.568162 
L 172.15368 74.531649 
L 172.357107 76.065192 
L 172.364832 75.992166 
L 172.380282 75.91914 
L 172.416332 76.28427 
L 172.457533 76.247757 
L 172.462683 76.28427 
L 172.519333 75.590524 
L 172.720185 71.720155 
L 172.74336 71.829693 
L 172.923611 74.78724 
L 173.013737 75.334934 
L 173.042062 74.969804 
L 173.193989 73.764878 
L 173.206864 73.801391 
L 173.250639 73.472775 
L 173.286689 73.582313 
L 173.418015 72.66949 
L 173.443766 72.779029 
L 173.727018 75.700063 
L 173.745043 75.554011 
L 173.860919 75.261908 
L 173.824869 75.736576 
L 173.863494 75.298421 
L 173.866069 75.334934 
L 173.914995 74.896779 
L 173.94332 74.933291 
L 173.971645 74.239546 
L 174.059196 74.750727 
L 174.061771 74.78724 
L 174.126146 74.16652 
L 174.128721 74.203033 
L 174.363048 72.450413 
L 174.386223 72.559952 
L 174.453174 72.961594 
L 174.478924 72.377387 
L 174.491799 72.523439 
L 174.494374 72.486926 
L 174.556175 72.815542 
L 174.59995 72.559952 
L 174.733851 72.961594 
L 174.62055 72.486926 
L 174.736426 72.925081 
L 174.749301 72.888568 
L 174.787927 73.326723 
L 174.831702 73.107645 
L 174.867752 73.180671 
L 174.914103 72.706003 
L 174.965603 72.779029 
L 175.055729 73.326723 
L 175.089204 73.180671 
L 175.25143 72.450413 
L 175.274606 72.377387 
L 175.382757 70.588254 
L 175.421382 70.807332 
L 175.436832 70.770819 
L 175.511508 71.062922 
L 175.85656 74.495136 
L 175.861711 74.458624 
L 176.052262 73.071133 
L 175.890036 74.531649 
L 176.067712 73.107645 
L 176.165563 73.582313 
L 176.106338 72.998107 
L 176.188738 73.29021 
L 176.322639 71.647129 
L 176.392165 71.902719 
L 176.490016 72.925081 
L 176.533791 72.779029 
L 176.544091 72.66949 
L 176.587866 72.486926 
L 176.621342 72.998107 
L 176.623917 72.998107 
L 176.693442 73.545801 
L 176.744943 73.436262 
L 176.755243 73.509288 
L 176.822193 74.16652 
L 176.871119 73.801391 
L 176.899444 73.691852 
L 177.033345 72.66949 
L 177.07712 73.071133 
L 177.131196 72.523439 
L 177.285697 71.282 
L 177.290847 71.318512 
L 177.360373 70.807332 
L 177.517449 68.799121 
L 177.535474 68.981686 
L 177.684825 70.150099 
L 177.702851 69.894509 
L 177.754351 70.66128 
L 177.798126 70.405689 
L 177.872802 70.953383 
L 177.970653 70.515228 
L 177.880527 71.026409 
L 177.998978 70.734306 
L 178.058204 70.624767 
L 178.078804 70.478715 
L 178.150904 71.062922 
L 178.153479 71.062922 
L 178.163779 71.172461 
L 178.168929 71.208974 
L 178.233305 70.624767 
L 178.367206 68.251427 
L 178.418706 68.470505 
L 178.480507 68.360966 
L 178.532007 68.03235 
L 178.573208 68.616556 
L 178.931136 72.15831 
L 178.972336 72.267848 
L 179.111387 70.150099 
L 179.116537 70.077073 
L 179.278764 67.229065 
L 179.322539 67.302091 
L 179.448715 67.959324 
L 179.652142 70.843844 
L 179.657292 70.770819 
L 179.662442 70.697793 
L 179.731967 71.282 
L 179.819518 71.391538 
L 179.768018 71.208974 
L 179.840118 71.245487 
L 179.917369 71.099435 
L 179.948269 71.208974 
L 179.961144 71.391538 
L 180.033245 70.697793 
L 180.043545 70.807332 
L 180.06157 70.697793 
L 180.182596 70.259638 
L 180.10792 70.843844 
L 180.185171 70.296151 
L 180.218646 70.405689 
L 180.321647 70.66128 
L 180.239246 70.369177 
L 180.331947 70.624767 
L 180.419498 70.515228 
L 180.367998 70.770819 
L 180.434948 70.697793 
L 180.568849 72.15831 
L 180.589449 71.939232 
L 180.63065 72.048771 
L 180.643525 71.866206 
L 180.69245 71.939232 
L 180.859827 69.529379 
L 180.872702 69.346815 
L 180.929352 70.077073 
L 180.931927 70.077073 
L 180.973127 70.442202 
L 181.029778 70.004047 
L 181.040078 70.077073 
L 181.166254 69.748457 
L 181.073553 70.296151 
L 181.171404 69.78497 
L 181.173979 69.821483 
L 181.233205 69.237276 
L 181.248655 69.346815 
L 181.26153 69.273789 
L 181.331055 69.711944 
L 181.336205 69.675431 
L 181.382556 69.78497 
L 181.519032 71.245487 
L 181.585983 71.099435 
L 181.696708 70.150099 
L 181.717309 70.223125 
L 181.722459 70.259638 
L 181.730184 70.405689 
L 181.810009 69.857996 
L 181.825459 69.931021 
L 182.106137 66.863936 
L 181.874385 70.04056 
L 182.134462 67.083014 
L 182.397114 69.237276 
L 182.409989 69.346815 
L 182.474365 70.186612 
L 182.541315 69.675431 
L 182.564491 69.383328 
L 182.615991 70.113586 
L 182.731867 71.428051 
L 182.762767 71.355025 
L 182.899243 69.492866 
L 182.991944 67.849785 
L 183.040869 68.507018 
L 183.192796 70.04056 
L 183.200521 69.967534 
L 183.306097 69.931021 
L 183.257171 70.369177 
L 183.308672 70.004047 
L 183.416823 70.405689 
L 183.432273 70.186612 
L 183.589349 68.726095 
L 183.591924 68.762608 
L 183.627974 68.799121 
L 183.664025 68.251427 
L 183.7078 68.03235 
L 183.75415 68.507018 
L 183.936977 69.638918 
L 183.939552 69.565892 
L 183.957577 69.456354 
L 184.181604 67.740246 
L 183.970452 69.565892 
L 184.186754 67.776759 
L 184.209929 67.886298 
L 184.315505 69.200763 
L 184.367005 68.580043 
L 184.560132 66.863936 
L 184.580732 67.119527 
L 184.815059 69.273789 
L 184.830509 69.127737 
L 184.997886 68.214914 
L 184.861409 69.237276 
L 185.000461 68.28794 
L 185.031361 68.178401 
L 185.154962 67.41163 
L 185.167837 67.448143 
L 185.191012 67.229065 
L 185.286288 67.740246 
L 185.366114 67.448143 
L 185.309463 67.776759 
L 185.394439 67.776759 
L 185.415039 67.886298 
L 185.546365 68.689582 
L 185.551515 68.616556 
L 185.556665 68.580043 
L 185.592715 68.872147 
L 185.654516 68.689582 
L 185.682841 68.90866 
L 185.736917 68.324453 
L 185.754942 68.543531 
L 185.785842 68.653069 
L 185.901718 67.995837 
L 185.909443 68.105376 
L 185.999569 67.849785 
L 186.002144 67.922811 
L 186.020169 67.959324 
L 186.141195 67.119527 
L 186.257071 65.9146 
L 186.298271 66.462294 
L 186.491398 68.90866 
L 186.493973 68.872147 
L 186.514573 68.981686 
L 186.568648 69.565892 
L 186.627874 69.018199 
L 186.7798 68.251427 
L 186.661349 69.200763 
L 186.78495 68.360966 
L 186.841601 68.324453 
L 186.905976 68.726095 
L 186.975502 68.324453 
L 186.936876 68.835634 
L 187.019277 68.580043 
L 187.029577 68.616556 
L 187.075928 67.849785 
L 187.078503 67.849785 
L 187.266479 66.644859 
L 187.124853 67.886298 
L 187.269054 66.681372 
L 187.37978 66.863936 
L 187.305104 66.425781 
L 187.382355 66.827423 
L 187.38493 66.79091 
L 187.433856 67.192553 
L 187.477631 67.009988 
L 187.570332 67.995837 
L 187.611532 67.375117 
L 187.789208 65.439932 
L 187.665607 67.521169 
L 187.830409 65.768549 
L 187.966885 66.900449 
L 187.96946 66.863936 
L 188.044136 67.15604 
L 188.059586 67.15604 
L 188.152286 67.813272 
L 188.198637 67.557682 
L 188.206362 67.484656 
L 188.347988 66.133678 
L 188.360863 66.206704 
L 188.53339 67.265578 
L 188.541115 67.229065 
L 188.790892 65.111316 
L 188.796042 65.147829 
L 188.922218 66.644859 
L 188.950543 66.425781 
L 188.963418 66.316242 
L 188.986593 66.170191 
L 189.056119 66.571833 
L 189.066419 66.644859 
L 189.102469 66.900449 
L 189.16427 66.571833 
L 189.17457 66.608346 
L 189.21577 66.53532 
L 189.23637 66.352755 
L 189.305896 67.009988 
L 189.308471 67.009988 
L 189.323921 66.936962 
L 189.367696 67.083014 
L 189.437222 66.79091 
L 189.589148 67.776759 
L 189.607173 67.66722 
L 189.643224 67.448143 
L 189.686999 67.886298 
L 189.710174 67.776759 
L 189.761675 67.886298 
L 189.8003 67.521169 
L 189.898151 66.462294 
L 189.939351 66.644859 
L 189.941926 66.717885 
L 190.008877 65.622497 
L 190.011452 65.622497 
L 190.099002 65.330394 
L 190.021752 65.695523 
L 190.117028 65.622497 
L 190.140203 66.060652 
L 190.217453 65.476445 
L 190.222603 65.512958 
L 190.351354 65.001777 
L 190.356505 64.892239 
L 190.428605 63.322183 
L 190.516156 63.468235 
L 190.763358 66.425781 
L 190.552206 63.322183 
L 190.801983 65.987626 
L 190.825158 65.805062 
L 190.863784 66.206704 
L 191.00026 104.253166 
L 191.216562 117.835972 
L 191.404538 122.217522 
L 191.844867 126.891176 
L 191.860317 126.964202 
L 191.989068 127.475383 
L 191.994218 127.43887 
L 192.061169 127.803999 
L 192.076619 127.803999 
L 192.228545 128.424719 
L 192.23627 128.388206 
L 192.310946 128.680309 
L 192.321246 128.680309 
L 192.365021 128.789848 
L 192.488622 129.081951 
L 192.491197 129.045438 
L 192.514372 128.899387 
L 192.550423 129.081951 
L 192.596773 129.045438 
L 192.702349 129.374055 
L 192.715224 129.337542 
L 192.802775 129.301029 
L 192.748699 129.374055 
L 192.823375 129.374055 
L 192.89805 129.483593 
L 193.021651 129.702671 
L 193.132377 129.593132 
L 193.237953 129.702671 
L 193.183878 129.556619 
L 193.243103 129.666158 
L 193.297179 129.593132 
L 193.250828 129.702671 
L 193.351254 129.702671 
L 193.400179 129.739184 
L 193.382154 129.556619 
L 193.449105 129.593132 
L 193.50318 129.520106 
L 193.474855 129.702671 
L 193.559831 129.593132 
L 193.933209 129.666158 
L 194.01046 129.775697 
L 193.953809 129.629645 
L 194.043935 129.702671 
L 194.126335 129.629645 
L 194.224186 129.44708 
L 194.239636 129.483593 
L 194.345212 129.629645 
L 194.352937 129.520106 
L 194.422463 129.629645 
L 194.522889 129.702671 
L 194.427613 129.593132 
L 194.533189 129.666158 
L 194.613014 129.629645 
L 194.543489 129.739184 
L 194.64134 129.702671 
L 194.716015 129.629645 
L 194.71859 129.556619 
L 194.752066 129.739184 
L 194.824166 129.666158 
L 194.916867 129.702671 
L 194.834466 129.629645 
L 194.929742 129.629645 
L 195.014718 129.44708 
L 194.937467 129.666158 
L 195.045618 129.520106 
L 195.143469 129.556619 
L 195.073943 129.44708 
L 195.156344 129.520106 
L 195.274795 129.301029 
L 195.194969 129.556619 
L 195.279945 129.337542 
L 195.362346 129.374055 
L 195.341745 129.264516 
L 195.388096 129.301029 
L 195.418996 129.374055 
L 195.498822 129.264516 
L 195.591522 129.410567 
L 195.550322 129.228003 
L 195.612123 129.374055 
L 195.666198 129.264516 
L 195.637873 129.410567 
L 195.725424 129.301029 
L 196.021551 129.228003 
L 196.098802 129.118464 
L 196.034426 129.264516 
L 196.132277 129.19149 
L 196.240428 129.081951 
L 196.250728 129.154977 
L 196.364029 128.899387 
L 196.382054 128.972412 
L 196.438704 128.753335 
L 196.47218 128.862874 
L 196.598356 128.643796 
L 196.675606 128.607283 
L 196.788907 128.424719 
L 196.840408 128.607283 
L 196.806932 128.351693 
L 196.907358 128.534257 
L 197.046409 128.424719 
L 197.079885 128.461232 
L 197.172585 128.169128 
L 197.291036 128.388206 
L 197.561414 128.31518 
L 197.66699 128.169128 
L 197.579439 128.351693 
L 197.674715 128.242154 
L 197.700465 128.351693 
L 197.790591 128.169128 
L 197.829216 128.278667 
L 197.831791 128.132615 
L 197.903891 128.205641 
L 197.957967 128.096102 
L 197.911617 128.242154 
L 198.009467 128.205641 
L 198.012042 128.278667 
L 198.112468 128.096102 
L 198.115043 128.132615 
L 198.223194 128.096102 
L 198.179419 128.278667 
L 198.225769 128.132615 
L 198.30817 128.169128 
L 198.236069 128.059589 
L 198.336495 128.132615 
L 198.436921 128.023077 
L 198.519322 127.950051 
L 198.488421 128.132615 
L 198.542497 128.059589 
L 198.545072 128.132615 
L 198.635197 127.950051 
L 198.650648 128.023077 
L 198.676398 127.877025 
L 198.758798 128.059589 
L 198.761374 127.986564 
L 198.869524 128.132615 
L 198.877249 128.096102 
L 198.998275 127.877025 
L 199.00085 127.913538 
L 199.098701 128.023077 
L 199.006001 127.877025 
L 199.111576 127.950051 
L 199.222302 127.767486 
L 199.145052 127.986564 
L 199.227452 127.803999 
L 199.325303 127.730973 
L 199.312428 127.877025 
L 199.340753 127.767486 
L 199.425729 127.877025 
L 199.49268 127.913538 
L 199.456629 127.767486 
L 199.531305 127.803999 
L 199.922708 127.913538 
L 199.927858 127.877025 
L 200.036009 127.986564 
L 200.14416 127.840512 
L 200.14931 127.877025 
L 200.231711 127.767486 
L 200.267761 127.913538 
L 200.342436 127.730973 
L 200.375912 127.803999 
L 200.386212 127.657947 
L 200.453162 127.730973 
L 200.556163 127.657947 
L 200.486638 127.767486 
L 200.563888 127.69446 
L 200.674614 127.877025 
L 200.682339 127.840512 
L 200.71324 127.767486 
L 200.687489 127.913538 
L 200.793065 127.840512 
L 200.836841 127.950051 
L 200.798215 127.803999 
L 200.903791 127.877025 
L 201.478021 127.986564 
L 201.547546 128.023077 
L 201.537246 127.877025 
L 201.586172 127.986564 
L 201.627372 127.913538 
L 201.619647 128.059589 
L 201.694323 128.023077 
L 201.864274 127.913538 
L 201.951825 127.657947 
L 201.871999 127.950051 
L 201.98015 127.840512 
L 201.987875 127.877025 
L 202.049676 127.69446 
L 202.083151 127.767486 
L 202.116626 127.657947 
L 202.155251 127.840512 
L 202.193877 127.767486 
L 202.368978 127.877025 
L 202.412753 127.767486 
L 202.482279 127.913538 
L 202.490004 127.803999 
L 202.541505 127.950051 
L 202.59043 127.950051 
L 202.958658 128.023077 
L 203.079684 128.31518 
L 203.118309 128.242154 
L 203.141484 128.388206 
L 203.187835 128.31518 
L 203.249635 128.424719 
L 203.283111 128.242154 
L 203.303711 128.388206 
L 203.429887 128.461232 
L 203.432462 128.534257 
L 203.514863 128.278667 
L 203.535463 128.424719 
L 203.548338 128.31518 
L 203.641039 128.497745 
L 203.643614 128.461232 
L 203.697689 128.497745 
L 203.731164 128.31518 
L 203.744039 128.388206 
L 203.78524 128.242154 
L 203.854765 128.351693 
L 204.295094 128.278667 
L 204.313119 128.31518 
L 204.408395 128.169128 
L 204.44187 128.059589 
L 204.531996 127.913538 
L 204.449595 128.132615 
L 204.552596 128.023077 
L 204.586071 128.096102 
L 204.616972 127.913538 
L 204.655597 127.986564 
L 204.768898 127.803999 
L 204.774048 127.767486 
L 204.882199 127.877025 
L 204.946574 127.767486 
L 204.943999 127.913538 
L 204.998075 127.803999 
L 205.080475 127.950051 
L 205.111376 127.913538 
L 205.291627 127.877025 
L 205.335402 127.767486 
L 205.345703 127.913538 
L 205.399778 127.840512 
L 205.435828 127.986564 
L 205.513079 127.913538 
L 205.559429 127.803999 
L 205.574879 127.986564 
L 205.62123 127.950051 
L 205.63153 127.913538 
L 205.734531 128.059589 
L 205.811781 128.169128 
L 205.850407 127.986564 
L 205.971433 128.132615 
L 206.058983 128.059589 
L 206.020358 128.169128 
L 206.082159 128.096102 
L 206.087309 128.169128 
L 206.169709 127.950051 
L 206.182584 127.986564 
L 206.25211 127.840512 
L 206.19031 128.023077 
L 206.295885 127.913538 
L 206.306185 128.023077 
L 206.380861 127.840512 
L 206.398886 127.913538 
L 206.501887 127.767486 
L 206.512187 127.803999 
L 206.774839 127.913538 
L 206.813465 128.023077 
L 206.779989 127.840512 
L 206.885565 127.913538 
L 207.058092 127.913538 
L 207.119892 127.730973 
L 207.168818 127.803999 
L 207.323319 127.69446 
L 207.413445 127.584922 
L 207.43662 127.657947 
L 207.500995 127.730973 
L 207.506145 127.657947 
L 207.616871 127.913538 
L 207.730172 127.767486 
L 207.758497 127.840512 
L 207.799698 127.584922 
L 207.838323 127.730973 
L 207.848623 127.657947 
L 207.928449 127.877025 
L 207.943899 127.803999 
L 208.034025 127.913538 
L 207.972224 127.767486 
L 208.0572 127.840512 
L 208.165351 127.767486 
L 208.07265 127.877025 
L 208.170501 127.803999 
L 208.291527 127.913538 
L 208.399678 127.950051 
L 208.379077 127.803999 
L 208.402253 127.913538 
L 208.69838 128.023077 
L 208.801381 128.096102 
L 208.706105 127.986564 
L 208.809106 128.059589 
L 208.832281 128.023077 
L 208.868331 128.205641 
L 208.912107 128.169128 
L 209.120684 128.242154 
L 209.141284 128.351693 
L 209.226259 128.169128 
L 209.228834 128.169128 
L 209.434836 128.096102 
L 209.512087 127.986564 
L 209.488912 128.132615 
L 209.545562 128.096102 
L 209.826239 127.986564 
L 209.890615 127.913538 
L 209.870015 128.096102 
L 209.936965 127.986564 
L 209.985891 128.132615 
L 210.027091 127.950051 
L 210.052841 128.059589 
L 210.158417 127.913538 
L 210.101767 128.096102 
L 210.168717 127.950051 
L 210.292318 128.205641 
L 210.294893 128.169128 
L 210.307768 128.242154 
L 210.408194 128.096102 
L 210.52922 128.023077 
L 210.624496 127.913538 
L 210.557545 128.059589 
L 210.639946 127.950051 
L 210.717197 128.059589 
L 210.719772 128.096102 
L 210.794447 127.913538 
L 210.822773 128.023077 
L 210.884573 127.950051 
L 210.830498 128.059589 
L 210.936073 127.986564 
L 211.036499 128.169128 
L 211.015899 127.913538 
L 211.057099 128.132615 
L 211.0983 128.169128 
L 211.1704 128.059589 
L 211.278551 128.132615 
L 211.250226 127.950051 
L 211.281126 128.059589 
L 211.404727 127.840512 
L 211.448503 127.950051 
L 211.476828 127.767486 
L 211.518028 127.913538 
L 211.566954 127.840512 
L 211.584979 127.986564 
L 211.623604 127.950051 
L 211.752355 128.205641 
L 211.865656 128.096102 
L 211.837331 128.242154 
L 211.868231 128.132615 
L 212.056208 128.242154 
L 212.159209 128.351693 
L 212.166934 128.31518 
L 212.169509 128.242154 
L 212.190109 128.424719 
L 212.275084 128.31518 
L 212.357485 128.461232 
L 212.33431 128.242154 
L 212.38581 128.388206 
L 212.414136 128.31518 
L 212.432161 128.497745 
L 212.488811 128.497745 
L 212.630437 128.424719 
L 212.733438 128.31518 
L 212.671638 128.497745 
L 212.741163 128.388206 
L 212.849314 128.497745 
L 212.869914 128.534257 
L 212.93429 128.351693 
L 212.94974 128.388206 
L 212.96004 128.461232 
L 213.073341 128.132615 
L 213.150592 128.242154 
L 213.091366 128.096102 
L 213.181492 128.132615 
L 213.289643 127.950051 
L 213.294793 128.059589 
L 213.408094 127.950051 
L 213.410669 127.986564 
L 213.632121 128.059589 
L 213.634696 128.132615 
L 213.732546 127.986564 
L 213.740271 128.059589 
L 213.750572 128.096102 
L 213.858722 127.950051 
L 213.948848 127.840512 
L 213.972023 127.69446 
L 214.044124 127.913538 
L 214.064724 127.767486 
L 214.162575 127.877025 
L 214.121375 127.730973 
L 214.178025 127.840512 
L 214.1909 127.877025 
L 214.299051 127.69446 
L 214.309351 127.840512 
L 214.311926 127.621434 
L 214.409777 127.730973 
L 214.528228 127.511896 
L 214.638954 127.621434 
L 214.644104 127.584922 
L 214.695604 127.511896 
L 214.80633 127.329331 
L 214.705904 127.548409 
L 214.81148 127.365844 
L 214.860406 127.256305 
L 214.996882 126.854663 
L 215.002032 126.891176 
L 215.066407 126.708611 
L 215.102458 126.781637 
L 215.202883 126.891176 
L 215.254384 126.81815 
L 215.316184 126.964202 
L 215.35481 126.891176 
L 215.39086 127.037228 
L 215.42176 127.000715 
L 215.519611 127.073741 
L 215.43721 126.927689 
L 215.535061 127.037228 
L 215.645787 127.146766 
L 215.712738 127.183279 
L 215.735913 127.037228 
L 215.751363 127.110254 
L 215.851789 126.964202 
L 215.864664 127.037228 
L 215.98054 127.110254 
L 216.086116 127.256305 
L 216.093841 127.183279 
L 216.122166 127.110254 
L 216.145341 127.256305 
L 216.199417 127.219792 
L 216.310143 127.365844 
L 216.240617 127.146766 
L 216.317868 127.329331 
L 216.624295 127.219792 
L 216.737596 127.073741 
L 216.783946 127.000715 
L 216.850897 127.146766 
L 216.912698 127.037228 
L 216.951323 127.219792 
L 216.959048 127.146766 
L 217.056899 127.329331 
L 217.074924 127.292818 
L 217.080074 127.219792 
L 217.147024 127.402357 
L 217.183075 127.329331 
L 217.255175 127.43887 
L 217.353026 127.548409 
L 217.358176 127.402357 
L 217.368476 127.475383 
L 217.381351 127.511896 
L 217.486927 127.365844 
L 217.680054 127.256305 
L 217.690354 127.292818 
L 217.79593 127.110254 
L 217.855155 127.292818 
L 217.906656 127.146766 
L 217.937556 127.110254 
L 217.991631 127.365844 
L 218.007082 127.219792 
L 218.128108 127.548409 
L 218.398485 127.475383 
L 218.40106 127.402357 
L 218.408785 127.548409 
L 218.509211 127.475383 
L 218.594186 127.584922 
L 218.630237 127.475383 
L 218.704912 127.621434 
L 218.730662 127.548409 
L 218.810488 127.69446 
L 218.815638 127.621434 
L 218.923789 127.803999 
L 218.936664 127.767486 
L 218.959839 127.69446 
L 219.01649 127.877025 
L 219.04739 127.767486 
L 219.155541 127.950051 
L 219.116916 127.730973 
L 219.165841 127.877025 
L 219.304892 127.950051 
L 219.407893 128.059589 
L 219.335792 127.913538 
L 219.415618 127.986564 
L 219.423343 128.023077 
L 219.534069 128.242154 
L 219.536644 128.169128 
L 219.639645 128.388206 
L 219.567544 128.132615 
L 219.65767 128.351693 
L 219.67827 128.278667 
L 219.747796 128.461232 
L 219.765821 128.388206 
L 219.801871 128.461232 
L 219.788996 128.278667 
L 219.868822 128.278667 
L 219.976973 128.205641 
L 220.007873 128.278667 
L 220.090274 128.096102 
L 220.152074 128.242154 
L 220.177824 128.023077 
L 220.198425 128.023077 
L 220.219025 127.950051 
L 220.244775 128.132615 
L 220.304 128.023077 
L 220.414726 128.205641 
L 220.417301 128.169128 
L 220.440477 128.096102 
L 220.425026 128.205641 
L 220.528027 128.169128 
L 220.636178 128.278667 
L 220.574378 128.096102 
L 220.638753 128.242154 
L 220.736604 128.096102 
L 220.656778 128.278667 
L 220.754629 128.132615 
L 220.764929 128.096102 
L 220.87308 128.242154 
L 220.906555 128.205641 
L 221.022431 127.986564 
L 221.117707 128.096102 
L 221.094532 127.950051 
L 221.133157 128.023077 
L 221.241308 127.803999 
L 221.153757 128.059589 
L 221.254183 127.877025 
L 221.261908 127.986564 
L 221.300534 127.767486 
L 221.362334 127.877025 
L 221.47821 127.69446 
L 221.429285 127.986564 
L 221.480785 127.767486 
L 221.52456 127.803999 
L 221.570911 127.657947 
L 221.586361 127.730973 
L 221.650736 127.803999 
L 221.697087 127.69446 
L 221.730562 127.877025 
L 221.815538 127.803999 
L 221.954589 127.69446 
L 222.065315 127.584922 
L 221.959739 127.730973 
L 222.070465 127.621434 
L 222.539119 127.69446 
L 222.600919 127.767486 
L 222.567444 127.621434 
L 222.64727 127.69446 
L 222.649845 127.621434 
L 222.70907 127.767486 
L 222.755421 127.657947 
L 222.871296 127.840512 
L 222.884172 127.730973 
L 222.963997 127.986564 
L 222.971722 127.950051 
L 223.072148 128.096102 
L 223.012923 127.877025 
L 223.085023 127.986564 
L 223.118498 128.023077 
L 223.154549 128.132615 
L 223.126224 127.986564 
L 223.229224 128.059589 
L 223.978556 127.950051 
L 224.081556 127.877025 
L 224.058381 127.986564 
L 224.091856 127.913538 
L 224.143357 127.840512 
L 224.241208 127.657947 
L 224.256658 127.767486 
L 224.279833 127.621434 
L 224.372534 127.657947 
L 224.434334 127.730973 
L 224.447209 127.548409 
L 224.47811 127.584922 
L 224.480685 127.548409 
L 224.57596 127.730973 
L 224.583686 127.657947 
L 224.861788 127.767486 
L 224.877238 127.69446 
L 224.975089 127.840512 
L 225.026589 127.730973 
L 225.036889 127.913538 
L 225.08839 127.803999 
L 225.193966 127.69446 
L 225.227441 127.621434 
L 225.255766 127.803999 
L 225.299541 127.767486 
L 225.371642 127.877025 
L 225.482368 127.986564 
L 225.487518 127.950051 
L 225.520993 127.877025 
L 225.554468 128.096102 
L 225.598244 127.913538 
L 225.662619 128.096102 
L 225.71412 128.059589 
L 225.721845 128.169128 
L 225.78107 127.986564 
L 225.829996 128.132615 
L 226.169899 128.205641 
L 226.172474 128.278667 
L 226.244574 128.132615 
L 226.280624 128.205641 
L 226.383625 128.278667 
L 226.39135 128.205641 
L 226.496926 128.424719 
L 226.610227 128.31518 
L 226.532977 128.461232 
L 226.612802 128.351693 
L 227.161282 128.424719 
L 227.272008 128.534257 
L 227.192182 128.351693 
L 227.274583 128.497745 
L 227.367283 128.57077 
L 227.302908 128.424719 
L 227.387884 128.534257 
L 227.426509 128.424719 
L 227.485734 128.607283 
L 227.496034 128.57077 
L 227.62221 128.680309 
L 227.650536 128.716822 
L 227.699461 128.497745 
L 227.730361 128.643796 
L 228.15009 128.57077 
L 228.193865 128.461232 
L 228.157815 128.607283 
L 228.263391 128.497745 
L 228.371542 128.388206 
L 228.278841 128.607283 
L 228.379267 128.424719 
L 228.477117 128.497745 
L 228.536343 128.57077 
L 228.564668 128.424719 
L 228.587843 128.534257 
L 228.701144 128.461232 
L 228.768095 128.388206 
L 228.788695 128.534257 
L 228.809295 128.461232 
L 228.930321 128.680309 
L 228.963796 128.607283 
L 228.992122 128.753335 
L 229.041047 128.680309 
L 229.146623 128.753335 
L 229.092548 128.643796 
L 229.151773 128.680309 
L 229.257349 128.534257 
L 229.159498 128.789848 
L 229.265074 128.607283 
L 229.295974 128.680309 
L 229.357775 128.534257 
L 229.3758 128.607283 
L 229.42215 128.497745 
L 229.38095 128.643796 
L 229.486526 128.607283 
L 229.576652 128.680309 
L 229.501976 128.57077 
L 229.599827 128.643796 
L 229.893379 128.607283 
L 229.895954 128.497745 
L 229.903679 128.643796 
L 230.004105 128.607283 
L 230.107106 128.57077 
L 230.078781 128.716822 
L 230.114831 128.607283 
L 230.212682 128.716822 
L 230.125131 128.57077 
L 230.228132 128.680309 
L 230.269332 128.643796 
L 230.315683 128.826361 
L 230.331133 128.680309 
L 230.333708 128.789848 
L 230.374908 128.57077 
L 230.439284 128.643796 
L 230.493359 128.753335 
L 230.503659 128.716822 
L 230.61181 128.9359 
L 230.619535 128.862874 
L 230.640135 128.972412 
L 230.722536 128.9359 
L 231.198915 128.862874 
L 231.314791 128.680309 
L 231.353416 128.789848 
L 231.366291 128.643796 
L 231.428092 128.716822 
L 231.536243 128.607283 
L 231.453842 128.789848 
L 231.543968 128.643796 
L 231.87357 128.534257 
L 231.976571 128.461232 
L 231.899321 128.643796 
L 231.984296 128.497745 
L 232.074422 128.607283 
L 232.002321 128.424719 
L 232.095022 128.534257 
L 232.200598 128.388206 
L 232.102747 128.57077 
L 232.208323 128.461232 
L 232.221198 128.388206 
L 232.321624 128.607283 
L 232.386 128.461232 
L 232.43235 128.534257 
L 233.199706 128.497745 
L 233.202281 128.388206 
L 233.233182 128.534257 
L 233.310432 128.461232 
L 233.369658 128.31518 
L 233.421158 128.424719 
L 233.524159 128.351693 
L 233.531884 128.461232 
L 233.591109 128.497745 
L 233.650335 128.351693 
L 233.743036 128.461232 
L 233.725011 128.31518 
L 233.763636 128.424719 
L 233.838311 128.278667 
L 233.876937 128.388206 
L 234.064913 128.497745 
L 234.175639 128.680309 
L 234.183364 128.607283 
L 234.358466 128.497745 
L 234.361041 128.424719 
L 234.402241 128.57077 
L 234.466617 128.57077 
L 234.569618 128.497745 
L 234.662318 128.351693 
L 234.600518 128.57077 
L 234.680343 128.461232 
L 234.839995 128.534257 
L 234.84772 128.497745 
L 234.955871 128.680309 
L 235.043421 128.57077 
L 235.004796 128.753335 
L 235.066597 128.680309 
L 235.218523 128.607283 
L 235.321524 128.497745 
L 235.264873 128.643796 
L 235.331824 128.534257 
L 235.401349 128.607283 
L 235.403924 128.680309 
L 235.42195 128.497745 
L 235.5095 128.534257 
L 235.656276 128.497745 
L 235.658851 128.388206 
L 235.733527 128.57077 
L 235.764427 128.534257 
L 235.882878 128.461232 
L 235.890603 128.351693 
L 235.960129 128.497745 
L 235.991029 128.461232 
L 236.021929 128.497745 
L 236.045105 128.351693 
L 236.09403 128.351693 
L 236.204756 128.242154 
L 236.289732 128.132615 
L 236.243381 128.31518 
L 236.318057 128.205641 
L 236.395307 128.278667 
L 236.366982 128.169128 
L 236.428783 128.205641 
L 236.552384 128.278667 
L 236.660535 128.424719 
L 236.665685 128.388206 
L 236.67341 128.31518 
L 236.72491 128.497745 
L 236.776411 128.388206 
L 236.802161 128.497745 
L 236.902587 128.680309 
L 236.807311 128.461232 
L 236.915462 128.607283 
L 237.000437 128.716822 
L 237.005588 128.753335 
L 237.064813 128.607283 
L 237.106013 128.680309 
L 237.167814 128.497745 
L 237.136914 128.716822 
L 237.224464 128.57077 
L 237.541192 128.461232 
L 237.572092 128.57077 
L 237.654493 128.424719 
L 237.739469 128.57077 
L 237.772944 128.534257 
L 237.989246 128.461232 
L 238.043321 128.497745 
L 238.105122 128.278667 
L 238.138597 128.351693 
L 238.192672 128.242154 
L 238.215847 128.31518 
L 238.244173 128.242154 
L 238.295673 128.424719 
L 238.323998 128.31518 
L 238.339448 128.424719 
L 238.403824 128.242154 
L 238.439874 128.388206 
L 238.491375 128.242154 
L 238.553175 128.31518 
L 238.558325 128.242154 
L 238.689651 128.680309 
L 238.705101 128.607283 
L 238.743727 128.789848 
L 238.795227 128.716822 
L 238.818402 128.789848 
L 238.869903 128.607283 
L 238.903378 128.716822 
L 239.001229 128.57077 
L 239.021829 128.607283 
L 239.178905 128.680309 
L 239.287056 128.789848 
L 239.199506 128.643796 
L 239.289631 128.753335 
L 239.330832 128.643796 
L 239.305081 128.789848 
L 239.400357 128.680309 
L 239.511083 128.789848 
L 239.516233 128.753335 
L 239.717085 128.716822 
L 239.74541 128.789848 
L 239.830386 128.57077 
L 240.353115 128.680309 
L 240.35569 128.716822 
L 240.373715 128.607283 
L 240.458691 128.607283 
L 240.548817 128.534257 
L 240.667268 128.31518 
L 240.788294 128.059589 
L 240.793444 128.096102 
L 240.855244 128.023077 
L 240.96082 127.913538 
L 240.865544 128.096102 
L 240.96597 127.986564 
L 241.032921 127.950051 
L 241.084421 128.096102 
L 241.166822 127.950051 
L 241.195147 128.096102 
L 241.251797 128.169128 
L 241.254372 128.242154 
L 241.347073 128.096102 
L 241.362523 128.169128 
L 241.365098 128.205641 
L 241.437199 128.023077 
L 241.468099 128.096102 
L 241.5711 128.023077 
L 241.486124 128.169128 
L 241.5814 128.059589 
L 241.658651 128.132615 
L 241.5917 128.023077 
L 241.692126 128.096102 
L 241.805427 127.950051 
L 241.808002 127.986564 
L 241.859502 128.023077 
L 241.833752 127.840512 
L 241.913578 127.913538 
L 241.959928 128.023077 
L 242.024304 128.059589 
L 241.985678 127.950051 
L 242.068079 127.986564 
L 242.16593 127.913538 
L 242.284381 127.621434 
L 242.330731 127.657947 
L 242.310131 127.511896 
L 242.387382 127.548409 
L 242.413132 127.584922 
L 242.503258 127.402357 
L 242.570208 127.475383 
L 242.668059 127.621434 
L 242.580508 127.43887 
L 242.683509 127.584922 
L 242.693809 127.548409 
L 242.737585 127.730973 
L 242.783935 127.730973 
L 242.928136 127.840512 
L 243.036287 128.059589 
L 243.051737 128.023077 
L 243.219114 127.986564 
L 243.291214 127.877025 
L 243.329839 127.950051 
L 243.620817 128.059589 
L 243.739268 128.242154 
L 243.741843 128.205641 
L 243.783043 128.132615 
L 243.816518 128.278667 
L 243.852569 128.205641 
L 243.99677 128.278667 
L 243.999345 128.388206 
L 244.02252 128.169128 
L 244.107496 128.31518 
L 244.195047 128.205641 
L 244.164146 128.351693 
L 244.220797 128.278667 
L 244.233672 128.242154 
L 244.339248 128.388206 
L 244.465424 128.278667 
L 244.571 128.205641 
L 244.532374 128.388206 
L 244.57615 128.242154 
L 244.589025 128.278667 
L 244.666275 128.132615 
L 244.679151 128.132615 
L 244.758976 128.242154 
L 244.761551 128.278667 
L 244.846527 128.096102 
L 244.861977 128.132615 
L 245.024203 128.096102 
L 245.026778 127.986564 
L 245.091154 128.132615 
L 245.134929 128.023077 
L 245.245655 128.205641 
L 245.255955 128.169128 
L 245.25853 128.132615 
L 245.302306 128.278667 
L 245.358956 128.278667 
L 245.364106 128.242154 
L 245.472257 128.388206 
L 245.474832 128.278667 
L 245.562383 128.461232 
L 245.580408 128.424719 
L 245.989836 128.351693 
L 246.087687 128.242154 
L 246.100562 128.278667 
L 246.162363 128.351693 
L 246.108287 128.242154 
L 246.211288 128.31518 
L 246.306564 128.169128 
L 246.247338 128.351693 
L 246.324589 128.278667 
L 246.50484 128.205641 
L 246.600116 128.023077 
L 246.533166 128.278667 
L 246.618141 128.096102 
L 246.661917 128.132615 
L 246.692817 127.986564 
L 246.723717 128.059589 
L 246.777793 127.986564 
L 246.734017 128.096102 
L 246.834443 128.059589 
L 246.888519 128.132615 
L 246.849893 127.986564 
L 246.942594 128.023077 
L 247.01727 128.096102 
L 247.019845 128.169128 
L 247.08422 127.950051 
L 247.122846 127.986564 
L 247.125421 127.950051 
L 247.127996 128.096102 
L 247.230996 128.023077 
L 247.241297 127.986564 
L 247.344297 128.096102 
L 247.452448 127.840512 
L 247.460173 127.913538 
L 247.583774 128.096102 
L 247.697075 127.877025 
L 247.69965 127.950051 
L 247.921102 128.023077 
L 247.957152 128.132615 
L 248.011228 127.986564 
L 248.034403 128.096102 
L 248.088478 128.023077 
L 248.093629 128.169128 
L 248.145129 128.096102 
L 248.196629 128.169128 
L 248.24813 127.986564 
L 248.25328 128.059589 
L 248.364006 127.877025 
L 248.25843 128.096102 
L 248.374306 127.913538 
L 248.418081 127.877025 
L 248.526232 127.657947 
L 248.531382 127.730973 
L 248.588033 127.69446 
L 248.696183 127.475383 
L 248.701334 127.511896 
L 248.979436 127.548409 
L 248.982011 127.657947 
L 249.015486 127.475383 
L 249.090162 127.584922 
L 249.121062 127.475383 
L 249.180287 127.43887 
L 249.188013 127.621434 
L 249.224063 127.548409 
L 249.272988 127.475383 
L 249.339939 127.621434 
L 249.576841 127.730973 
L 249.646366 127.840512 
L 249.584566 127.657947 
L 249.687567 127.730973 
L 249.798293 127.657947 
L 249.703017 127.767486 
L 249.800868 127.69446 
L 249.842068 127.584922 
L 249.867818 127.657947 
L 249.957944 127.511896 
L 250.071245 127.69446 
L 249.965669 127.475383 
L 250.076395 127.657947 
L 250.09957 127.621434 
L 250.174246 127.840512 
L 250.179396 127.730973 
L 250.295272 127.913538 
L 250.344197 127.877025 
L 250.362222 127.986564 
L 250.400847 127.986564 
L 250.467798 128.059589 
L 250.421448 127.913538 
L 250.511573 127.986564 
L 250.570799 127.877025 
L 250.575949 128.023077 
L 250.619724 127.986564 
L 250.715 128.096102 
L 250.630024 127.950051 
L 250.733025 128.059589 
L 250.794826 127.986564 
L 250.763925 128.096102 
L 250.843751 128.059589 
L 250.851476 128.023077 
L 250.957052 128.132615 
L 251.075503 127.950051 
L 251.157904 128.132615 
L 251.186229 128.023077 
L 251.222279 128.096102 
L 251.317555 128.242154 
L 251.255754 128.059589 
L 251.333005 128.096102 
L 251.593082 127.986564 
L 251.703808 127.913538 
L 251.600807 128.023077 
L 251.706383 127.950051 
L 252.097786 128.023077 
L 252.180187 128.169128 
L 252.211087 128.096102 
L 252.321813 128.278667 
L 252.332113 128.242154 
L 252.620516 128.169128 
L 252.643691 128.242154 
L 252.733817 128.059589 
L 252.911493 128.169128 
L 253.022219 128.351693 
L 252.919218 128.132615 
L 253.032519 128.31518 
L 253.459973 128.205641 
L 253.488298 128.351693 
L 253.575849 128.132615 
L 253.586149 128.205641 
L 253.676274 127.950051 
L 253.678849 127.986564 
L 253.815326 127.621434 
L 253.890001 127.767486 
L 253.920901 127.584922 
L 253.931201 127.69446 
L 253.944077 127.584922 
L 253.967252 127.803999 
L 254.034202 127.803999 
L 254.152653 127.913538 
L 254.289129 127.986564 
L 254.394705 128.096102 
L 254.30458 127.950051 
L 254.399855 127.986564 
L 254.523456 128.169128 
L 254.574957 128.059589 
L 254.616157 128.278667 
L 254.631607 128.169128 
L 254.698558 128.242154 
L 254.721733 128.096102 
L 254.721733 128.096102 
" clip-path="url(#pee2b8c1575)" style="fill: none; stroke: #000000; stroke-opacity: 0.5; stroke-width: 1.5; stroke-linecap: square"/>
   </g>
   <g id="patch_3">
    <path d="M 41.667188 173.52 
L 41.667188 7.2 
" style="fill: none; stroke: #000000; stroke-width: 0.8; stroke-linejoin: miter; stroke-linecap: square"/>
   </g>
   <g id="patch_4">
    <path d="M 41.667188 173.52 
L 264.867187 173.52 
" style="fill: none; stroke: #000000; stroke-width: 0.8; stroke-linejoin: miter; stroke-linecap: square"/>
   </g>
  </g>
 </g>
 <defs>
  <clipPath id="pee2b8c1575">
   <rect x="41.667188" y="7.2" width="223.2" height="166.32"/>
  </clipPath>
 </defs>
</svg>
