<?xml version="1.0" encoding="utf-8" standalone="no"?>
<!DOCTYPE svg PUBLIC "-//W3C//DTD SVG 1.1//EN"
  "http://www.w3.org/Graphics/SVG/1.1/DTD/svg11.dtd">
<svg xmlns:xlink="http://www.w3.org/1999/xlink" width="272.067187pt" height="197.398125pt" viewBox="0 0 272.067187 197.398125" xmlns="http://www.w3.org/2000/svg" version="1.1">
 <metadata>
  <rdf:RDF xmlns:dc="http://purl.org/dc/elements/1.1/" xmlns:cc="http://creativecommons.org/ns#" xmlns:rdf="http://www.w3.org/1999/02/22-rdf-syntax-ns#">
   <cc:Work>
    <dc:type rdf:resource="http://purl.org/dc/dcmitype/StillImage"/>
    <dc:date>2025-12-19T11:58:39.610924</dc:date>
    <dc:format>image/svg+xml</dc:format>
    <dc:creator>
     <cc:Agent>
      <dc:title>Matplotlib v3.10.7, https://matplotlib.org/</dc:title>
     </cc:Agent>
    </dc:creator>
   </cc:Work>
  </rdf:RDF>
 </metadata>
 <defs>
  <style type="text/css">*{stroke-linejoin: round; stroke-linecap: butt}</style>
 </defs>
 <g id="figure_1">
  <g id="patch_1">
   <path d="M 0 197.398125 
L 272.067187 197.398125 
L 272.067187 0 
L 0 0 
z
" style="fill: #ffffff"/>
  </g>
  <g id="axes_1">
   <g id="patch_2">
    <path d="M 41.667188 173.52 
L 264.867188 173.52 
L 264.867188 7.2 
L 41.667188 7.2 
z
" style="fill: #ffffff"/>
   </g>
   <g id="matplotlib.axis_1">
    <g id="xtick_1">
     <g id="line2d_1">
      <defs>
       <path id="m10940a7e77" d="M 0 0 
L 0 3.5 
" style="stroke: #000000; stroke-width: 0.8"/>
      </defs>
      <g>
       <use xlink:href="#m10940a7e77" x="82.712896" y="173.52" style="stroke: #000000; stroke-width: 0.8"/>
      </g>
     </g>
     <g id="text_1">
      <!-- 1 -->
      <g transform="translate(79.531646 188.118438) scale(0.1 -0.1)">
       <defs>
        <path id="DejaVuSans-31" d="M 794 531 
L 1825 531 
L 1825 4091 
L 703 3866 
L 703 4441 
L 1819 4666 
L 2450 4666 
L 2450 531 
L 3481 531 
L 3481 0 
L 794 0 
L 794 531 
z
" transform="scale(0.015625)"/>
       </defs>
       <use xlink:href="#DejaVuSans-31"/>
      </g>
     </g>
    </g>
    <g id="xtick_2">
     <g id="line2d_2">
      <g>
       <use xlink:href="#m10940a7e77" x="134.213319" y="173.52" style="stroke: #000000; stroke-width: 0.8"/>
      </g>
     </g>
     <g id="text_2">
      <!-- 2 -->
      <g transform="translate(131.032069 188.118438) scale(0.1 -0.1)">
       <defs>
        <path id="DejaVuSans-32" d="M 1228 531 
L 3431 531 
L 3431 0 
L 469 0 
L 469 531 
Q 828 903 1448 1529 
Q 2069 2156 2228 2338 
Q 2531 2678 2651 2914 
Q 2772 3150 2772 3378 
Q 2772 3750 2511 3984 
Q 2250 4219 1831 4219 
Q 1534 4219 1204 4116 
Q 875 4013 500 3803 
L 500 4441 
Q 881 4594 1212 4672 
Q 1544 4750 1819 4750 
Q 2544 4750 2975 4387 
Q 3406 4025 3406 3419 
Q 3406 3131 3298 2873 
Q 3191 2616 2906 2266 
Q 2828 2175 2409 1742 
Q 1991 1309 1228 531 
z
" transform="scale(0.015625)"/>
       </defs>
       <use xlink:href="#DejaVuSans-32"/>
      </g>
     </g>
    </g>
    <g id="xtick_3">
     <g id="line2d_3">
      <g>
       <use xlink:href="#m10940a7e77" x="185.713741" y="173.52" style="stroke: #000000; stroke-width: 0.8"/>
      </g>
     </g>
     <g id="text_3">
      <!-- 3 -->
      <g transform="translate(182.532491 188.118438) scale(0.1 -0.1)">
       <defs>
        <path id="DejaVuSans-33" d="M 2597 2516 
Q 3050 2419 3304 2112 
Q 3559 1806 3559 1356 
Q 3559 666 3084 287 
Q 2609 -91 1734 -91 
Q 1441 -91 1130 -33 
Q 819 25 488 141 
L 488 750 
Q 750 597 1062 519 
Q 1375 441 1716 441 
Q 2309 441 2620 675 
Q 2931 909 2931 1356 
Q 2931 1769 2642 2001 
Q 2353 2234 1838 2234 
L 1294 2234 
L 1294 2753 
L 1863 2753 
Q 2328 2753 2575 2939 
Q 2822 3125 2822 3475 
Q 2822 3834 2567 4026 
Q 2313 4219 1838 4219 
Q 1578 4219 1281 4162 
Q 984 4106 628 3988 
L 628 4550 
Q 988 4650 1302 4700 
Q 1616 4750 1894 4750 
Q 2613 4750 3031 4423 
Q 3450 4097 3450 3541 
Q 3450 3153 3228 2886 
Q 3006 2619 2597 2516 
z
" transform="scale(0.015625)"/>
       </defs>
       <use xlink:href="#DejaVuSans-33"/>
      </g>
     </g>
    </g>
    <g id="xtick_4">
     <g id="line2d_4">
      <g>
       <use xlink:href="#m10940a7e77" x="237.214164" y="173.52" style="stroke: #000000; stroke-width: 0.8"/>
      </g>
     </g>
     <g id="text_4">
      <!-- 4 -->
      <g transform="translate(234.032914 188.118438) scale(0.1 -0.1)">
       <defs>
        <path id="DejaVuSans-34" d="M 2419 4116 
L 825 1625 
L 2419 1625 
L 2419 4116 
z
M 2253 4666 
L 3047 4666 
L 3047 1625 
L 3713 1625 
L 3713 1100 
L 3047 1100 
L 3047 0 
L 2419 0 
L 2419 1100 
L 313 1100 
L 313 1709 
L 2253 4666 
z
" transform="scale(0.015625)"/>
       </defs>
       <use xlink:href="#DejaVuSans-34"/>
      </g>
     </g>
    </g>
   </g>
   <g id="matplotlib.axis_2">
    <g id="ytick_1">
     <g id="line2d_5">
      <defs>
       <path id="mcab586f864" d="M 0 0 
L -3.5 0 
" style="stroke: #000000; stroke-width: 0.8"/>
      </defs>
      <g>
       <use xlink:href="#mcab586f864" x="41.667188" y="161.994994" style="stroke: #000000; stroke-width: 0.8"/>
      </g>
     </g>
     <g id="text_5">
      <!-- −120 -->
      <g transform="translate(7.2 165.794213) scale(0.1 -0.1)">
       <defs>
        <path id="DejaVuSans-2212" d="M 678 2272 
L 4684 2272 
L 4684 1741 
L 678 1741 
L 678 2272 
z
" transform="scale(0.015625)"/>
        <path id="DejaVuSans-30" d="M 2034 4250 
Q 1547 4250 1301 3770 
Q 1056 3291 1056 2328 
Q 1056 1369 1301 889 
Q 1547 409 2034 409 
Q 2525 409 2770 889 
Q 3016 1369 3016 2328 
Q 3016 3291 2770 3770 
Q 2525 4250 2034 4250 
z
M 2034 4750 
Q 2819 4750 3233 4129 
Q 3647 3509 3647 2328 
Q 3647 1150 3233 529 
Q 2819 -91 2034 -91 
Q 1250 -91 836 529 
Q 422 1150 422 2328 
Q 422 3509 836 4129 
Q 1250 4750 2034 4750 
z
" transform="scale(0.015625)"/>
       </defs>
       <use xlink:href="#DejaVuSans-2212"/>
       <use xlink:href="#DejaVuSans-31" transform="translate(83.789062 0)"/>
       <use xlink:href="#DejaVuSans-32" transform="translate(147.412109 0)"/>
       <use xlink:href="#DejaVuSans-30" transform="translate(211.035156 0)"/>
      </g>
     </g>
    </g>
    <g id="ytick_2">
     <g id="line2d_6">
      <g>
       <use xlink:href="#mcab586f864" x="41.667188" y="138.966774" style="stroke: #000000; stroke-width: 0.8"/>
      </g>
     </g>
     <g id="text_6">
      <!-- −100 -->
      <g transform="translate(7.2 142.765993) scale(0.1 -0.1)">
       <use xlink:href="#DejaVuSans-2212"/>
       <use xlink:href="#DejaVuSans-31" transform="translate(83.789062 0)"/>
       <use xlink:href="#DejaVuSans-30" transform="translate(147.412109 0)"/>
       <use xlink:href="#DejaVuSans-30" transform="translate(211.035156 0)"/>
      </g>
     </g>
    </g>
    <g id="ytick_3">
     <g id="line2d_7">
      <g>
       <use xlink:href="#mcab586f864" x="41.667188" y="115.938554" style="stroke: #000000; stroke-width: 0.8"/>
      </g>
     </g>
     <g id="text_7">
      <!-- −80 -->
      <g transform="translate(13.5625 119.737773) scale(0.1 -0.1)">
       <defs>
        <path id="DejaVuSans-38" d="M 2034 2216 
Q 1584 2216 1326 1975 
Q 1069 1734 1069 1313 
Q 1069 891 1326 650 
Q 1584 409 2034 409 
Q 2484 409 2743 651 
Q 3003 894 3003 1313 
Q 3003 1734 2745 1975 
Q 2488 2216 2034 2216 
z
M 1403 2484 
Q 997 2584 770 2862 
Q 544 3141 544 3541 
Q 544 4100 942 4425 
Q 1341 4750 2034 4750 
Q 2731 4750 3128 4425 
Q 3525 4100 3525 3541 
Q 3525 3141 3298 2862 
Q 3072 2584 2669 2484 
Q 3125 2378 3379 2068 
Q 3634 1759 3634 1313 
Q 3634 634 3220 271 
Q 2806 -91 2034 -91 
Q 1263 -91 848 271 
Q 434 634 434 1313 
Q 434 1759 690 2068 
Q 947 2378 1403 2484 
z
M 1172 3481 
Q 1172 3119 1398 2916 
Q 1625 2713 2034 2713 
Q 2441 2713 2670 2916 
Q 2900 3119 2900 3481 
Q 2900 3844 2670 4047 
Q 2441 4250 2034 4250 
Q 1625 4250 1398 4047 
Q 1172 3844 1172 3481 
z
" transform="scale(0.015625)"/>
       </defs>
       <use xlink:href="#DejaVuSans-2212"/>
       <use xlink:href="#DejaVuSans-38" transform="translate(83.789062 0)"/>
       <use xlink:href="#DejaVuSans-30" transform="translate(147.412109 0)"/>
      </g>
     </g>
    </g>
    <g id="ytick_4">
     <g id="line2d_8">
      <g>
       <use xlink:href="#mcab586f864" x="41.667188" y="92.910335" style="stroke: #000000; stroke-width: 0.8"/>
      </g>
     </g>
     <g id="text_8">
      <!-- −60 -->
      <g transform="translate(13.5625 96.709553) scale(0.1 -0.1)">
       <defs>
        <path id="DejaVuSans-36" d="M 2113 2584 
Q 1688 2584 1439 2293 
Q 1191 2003 1191 1497 
Q 1191 994 1439 701 
Q 1688 409 2113 409 
Q 2538 409 2786 701 
Q 3034 994 3034 1497 
Q 3034 2003 2786 2293 
Q 2538 2584 2113 2584 
z
M 3366 4563 
L 3366 3988 
Q 3128 4100 2886 4159 
Q 2644 4219 2406 4219 
Q 1781 4219 1451 3797 
Q 1122 3375 1075 2522 
Q 1259 2794 1537 2939 
Q 1816 3084 2150 3084 
Q 2853 3084 3261 2657 
Q 3669 2231 3669 1497 
Q 3669 778 3244 343 
Q 2819 -91 2113 -91 
Q 1303 -91 875 529 
Q 447 1150 447 2328 
Q 447 3434 972 4092 
Q 1497 4750 2381 4750 
Q 2619 4750 2861 4703 
Q 3103 4656 3366 4563 
z
" transform="scale(0.015625)"/>
       </defs>
       <use xlink:href="#DejaVuSans-2212"/>
       <use xlink:href="#DejaVuSans-36" transform="translate(83.789062 0)"/>
       <use xlink:href="#DejaVuSans-30" transform="translate(147.412109 0)"/>
      </g>
     </g>
    </g>
    <g id="ytick_5">
     <g id="line2d_9">
      <g>
       <use xlink:href="#mcab586f864" x="41.667188" y="69.882115" style="stroke: #000000; stroke-width: 0.8"/>
      </g>
     </g>
     <g id="text_9">
      <!-- −40 -->
      <g transform="translate(13.5625 73.681333) scale(0.1 -0.1)">
       <use xlink:href="#DejaVuSans-2212"/>
       <use xlink:href="#DejaVuSans-34" transform="translate(83.789062 0)"/>
       <use xlink:href="#DejaVuSans-30" transform="translate(147.412109 0)"/>
      </g>
     </g>
    </g>
    <g id="ytick_6">
     <g id="line2d_10">
      <g>
       <use xlink:href="#mcab586f864" x="41.667188" y="46.853895" style="stroke: #000000; stroke-width: 0.8"/>
      </g>
     </g>
     <g id="text_10">
      <!-- −20 -->
      <g transform="translate(13.5625 50.653114) scale(0.1 -0.1)">
       <use xlink:href="#DejaVuSans-2212"/>
       <use xlink:href="#DejaVuSans-32" transform="translate(83.789062 0)"/>
       <use xlink:href="#DejaVuSans-30" transform="translate(147.412109 0)"/>
      </g>
     </g>
    </g>
    <g id="ytick_7">
     <g id="line2d_11">
      <g>
       <use xlink:href="#mcab586f864" x="41.667188" y="23.825675" style="stroke: #000000; stroke-width: 0.8"/>
      </g>
     </g>
     <g id="text_11">
      <!-- 0 -->
      <g transform="translate(28.304688 27.624894) scale(0.1 -0.1)">
       <use xlink:href="#DejaVuSans-30"/>
      </g>
     </g>
    </g>
   </g>
   <g id="line2d_12">
    <path d="M 51.812642 99.689212 
L 51.830667 99.583797 
L 51.923368 99.72435 
L 51.949118 99.654074 
L 51.980018 99.794627 
L 52.034094 99.72435 
L 52.240096 99.794627 
L 52.273571 99.759489 
L 52.353396 99.864904 
L 52.438372 99.93518 
L 52.392022 99.794627 
L 52.461547 99.829765 
L 52.520773 99.93518 
L 52.523348 99.970318 
L 52.605749 99.689212 
L 52.618624 99.759489 
L 52.649524 99.689212 
L 52.767975 99.478383 
L 52.904451 99.548659 
L 53.004877 99.689212 
L 53.017752 99.654074 
L 53.084702 99.583797 
L 53.115603 99.759489 
L 53.118178 99.72435 
L 53.120753 99.794627 
L 53.164528 99.618936 
L 53.226329 99.72435 
L 53.290704 99.794627 
L 53.342205 99.654074 
L 53.414305 99.759489 
L 53.452931 99.689212 
L 53.545631 99.618936 
L 53.478681 99.759489 
L 53.563656 99.654074 
L 53.599707 99.72435 
L 53.648632 99.583797 
L 53.671807 99.583797 
L 53.684682 99.548659 
L 53.792833 99.759489 
L 53.852059 99.654074 
L 53.888109 99.794627 
L 53.900984 99.794627 
L 53.95506 99.864904 
L 54.063211 99.970318 
L 53.96021 99.829765 
L 54.068361 99.93518 
L 54.106986 99.900042 
L 54.137886 100.040595 
L 54.176511 99.970318 
L 54.305263 99.864904 
L 54.423713 99.689212 
L 54.328438 99.900042 
L 54.426289 99.72435 
L 54.452039 99.794627 
L 54.508689 99.583797 
L 54.531864 99.654074 
L 54.645165 99.548659 
L 54.748166 99.654074 
L 54.732716 99.478383 
L 54.758466 99.618936 
L 54.784216 99.548659 
L 54.804817 99.72435 
L 54.866617 99.654074 
L 54.997943 99.548659 
L 55.106094 99.478383 
L 55.023693 99.654074 
L 55.108669 99.513521 
L 55.214245 99.583797 
L 55.18077 99.408106 
L 55.22197 99.548659 
L 55.335271 99.408106 
L 55.234845 99.583797 
L 55.340421 99.443244 
L 55.458872 99.513521 
L 55.574748 99.654074 
L 55.935251 99.654074 
L 55.937826 99.513521 
L 56.045977 99.548659 
L 56.100052 99.654074 
L 56.120652 99.478383 
L 56.156703 99.548659 
L 56.215928 99.443244 
L 56.249403 99.583797 
L 56.267429 99.513521 
L 56.367854 99.583797 
L 56.293179 99.478383 
L 56.378155 99.548659 
L 56.44253 99.478383 
L 56.512056 99.408106 
L 56.46828 99.548659 
L 56.553256 99.478383 
L 56.645957 99.548659 
L 56.723207 99.618936 
L 56.676857 99.478383 
L 56.756683 99.548659 
L 56.846808 99.478383 
L 56.898309 99.408106 
L 56.952384 99.548659 
L 56.957534 99.478383 
L 56.962684 99.478383 
L 57.114611 111.003737 
L 57.428763 124.883356 
L 58.167794 142.030834 
L 58.602973 146.493395 
L 58.605548 146.458257 
L 58.662198 147.020469 
L 58.677648 146.985331 
L 58.824425 148.004341 
L 58.829575 147.934065 
L 58.91455 148.496277 
L 58.917125 148.461139 
L 58.937726 148.566554 
L 59.081927 149.058489 
L 59.084502 149.023351 
L 59.172052 149.339596 
L 59.190078 149.44501 
L 59.197803 149.409872 
L 59.318829 149.690978 
L 59.393504 149.761255 
L 59.46818 149.690978 
L 59.506805 149.86667 
L 59.632981 149.936946 
L 59.720532 150.042361 
L 59.728257 149.901808 
L 59.743707 149.972085 
L 59.887908 150.007223 
L 59.990909 150.112638 
L 59.931684 149.936946 
L 59.998634 150.077499 
L 60.091335 150.007223 
L 60.209786 149.761255 
L 60.281887 149.726117 
L 60.400338 149.409872 
L 60.464713 149.339596 
L 60.578014 149.234181 
L 60.961692 149.128766 
L 61.064693 149.058489 
L 60.966842 149.163904 
L 61.074993 149.093628 
L 61.167694 148.988213 
L 61.206319 149.023351 
L 61.27842 148.917936 
L 61.280995 148.988213 
L 61.35052 148.777383 
L 61.386571 148.84766 
L 61.507597 148.531415 
L 61.538497 148.601692 
L 61.589997 148.426 
L 61.615748 148.531415 
L 61.631198 148.566554 
L 61.734199 148.426 
L 61.749649 148.531415 
L 61.834624 148.285447 
L 61.942775 148.180033 
L 62.066376 147.863788 
L 62.074101 147.898926 
L 62.112727 147.863788 
L 62.228603 147.61782 
L 62.341903 147.442129 
L 62.238903 147.688097 
L 62.347054 147.512405 
L 62.372804 147.442129 
L 62.444904 147.196161 
L 62.48868 147.301576 
L 62.599406 147.090746 
L 62.609706 147.125884 
L 62.635456 147.161023 
L 62.694681 146.950193 
L 62.707556 146.985331 
L 62.800257 146.739363 
L 62.715282 147.055608 
L 62.833733 146.774502 
L 62.972784 146.669087 
L 63.096385 146.493395 
L 63.168485 146.423119 
L 63.238011 146.317704 
L 63.18651 146.493395 
L 63.279211 146.423119 
L 63.364187 146.317704 
L 63.482638 146.142013 
L 63.369337 146.38798 
L 63.485213 146.177151 
L 63.518688 146.071736 
L 63.531563 146.106874 
L 63.637139 145.931183 
L 63.647439 145.966321 
L 63.68349 145.755492 
L 63.73499 145.79063 
L 63.848291 145.685215 
L 63.892066 145.825768 
L 63.961592 145.755492 
L 64.504921 145.685215 
L 64.569297 145.720353 
L 64.618222 145.614938 
L 64.633672 145.685215 
L 64.734098 145.509524 
L 64.834524 145.5798 
L 64.837099 145.439247 
L 64.842249 145.509524 
L 64.96585 145.333832 
L 65.050826 145.404109 
L 64.978725 145.298694 
L 65.074001 145.36897 
L 65.151252 145.263556 
L 65.182152 145.36897 
L 65.225927 145.404109 
L 65.246527 145.263556 
L 65.285153 145.298694 
L 65.328928 145.333832 
L 65.401029 145.158141 
L 65.447379 145.263556 
L 65.462829 145.123003 
L 65.509179 145.123003 
L 65.614755 145.087864 
L 65.725481 144.912173 
L 65.728056 144.947311 
L 65.833632 144.77162 
L 65.849082 144.806758 
L 65.928908 144.877035 
L 65.864532 144.77162 
L 65.959808 144.841896 
L 65.962383 144.77162 
L 66.008734 144.947311 
L 66.070534 144.841896 
L 66.088559 144.806758 
L 66.18641 144.912173 
L 66.302286 144.806758 
L 66.346061 144.736482 
L 66.356361 144.877035 
L 66.410437 144.841896 
L 66.982092 144.806758 
L 67.095393 144.631067 
L 67.154618 144.701343 
L 67.175218 144.525652 
L 67.198393 144.56079 
L 67.329719 138.025071 
L 67.679922 121.615496 
L 68.292777 107.911569 
L 68.972583 100.075733 
L 68.975158 100.110871 
L 68.990608 100.005457 
L 69.204335 98.424234 
L 69.21206 98.494511 
L 69.224935 98.389096 
L 69.361411 97.616054 
L 69.369136 97.651192 
L 69.446387 97.264671 
L 69.459262 97.159256 
L 69.464412 97.194395 
L 69.631788 96.280799 
L 69.636938 96.351076 
L 69.706464 95.929417 
L 69.719339 95.964555 
L 69.85324 95.226651 
L 69.855815 95.261789 
L 69.88929 95.156375 
L 70.033492 94.699577 
L 70.074692 94.594162 
L 70.079842 94.664439 
L 70.195718 94.348194 
L 70.198293 94.453609 
L 70.298719 94.067088 
L 70.345069 94.172503 
L 70.383695 94.03195 
L 70.409445 94.067088 
L 70.540771 93.785982 
L 70.584546 93.715705 
L 70.708147 93.258908 
L 70.710722 93.294046 
L 70.739047 93.188631 
L 70.751923 93.223769 
L 70.857498 93.048078 
L 70.865223 93.118355 
L 70.945049 92.907525 
L 70.963074 92.977802 
L 71.071225 92.907525 
L 70.99655 93.048078 
L 71.0738 92.942663 
L 71.1047 92.977802 
L 71.148476 92.837248 
L 71.176801 92.872387 
L 71.256627 92.837248 
L 71.228301 92.977802 
L 71.279802 92.977802 
L 71.465203 92.942663 
L 71.480654 92.80211 
L 71.552754 92.977802 
L 71.575929 92.942663 
L 71.593954 93.01294 
L 71.63258 92.80211 
L 71.676355 92.80211 
L 71.758756 92.696695 
L 71.787081 92.766972 
L 71.802531 92.731834 
L 71.910682 93.01294 
L 71.951882 92.942663 
L 71.998233 93.118355 
L 72.018833 93.083216 
L 72.042008 93.118355 
L 72.137284 92.907525 
L 72.250585 93.083216 
L 72.29951 92.942663 
L 72.358736 93.118355 
L 72.361311 93.083216 
L 72.477187 93.294046 
L 72.366461 93.048078 
L 72.484912 93.258908 
L 72.500362 93.294046 
L 72.613663 93.434599 
L 72.639413 93.294046 
L 72.721814 93.504876 
L 72.724389 93.434599 
L 72.83769 93.575152 
L 72.840265 93.504876 
L 72.88404 93.61029 
L 72.938115 93.715705 
L 72.971591 93.575152 
L 72.994766 93.61029 
L 73.138967 93.680567 
L 73.247118 93.856258 
L 73.252268 93.785982 
L 73.329519 93.891397 
L 73.357844 93.856258 
L 73.450545 94.067088 
L 73.471145 93.961673 
L 73.512345 94.207641 
L 73.548395 94.172503 
L 73.638521 94.277918 
L 73.581871 94.137365 
L 73.659121 94.242779 
L 73.679722 94.137365 
L 73.723497 94.313056 
L 73.769847 94.242779 
L 73.852248 94.313056 
L 73.841948 94.207641 
L 73.880573 94.277918 
L 74.011899 94.348194 
L 74.122625 94.453609 
L 74.019624 94.313056 
L 74.1252 94.418471 
L 74.217901 94.488747 
L 74.333777 94.664439 
L 74.372402 94.6293 
L 74.387852 94.769854 
L 74.439353 94.699577 
L 74.485703 94.84013 
L 74.524329 94.664439 
L 74.552654 94.804992 
L 74.565529 94.734715 
L 74.645355 94.980683 
L 74.65823 94.910407 
L 75.044483 95.015822 
L 75.049633 94.980683 
L 75.168084 95.261789 
L 75.175809 95.191513 
L 75.26851 95.437481 
L 75.271085 95.367204 
L 75.343185 95.542896 
L 75.384386 95.507757 
L 75.389536 95.472619 
L 75.425586 95.613172 
L 75.489961 95.542896 
L 75.598112 95.64831 
L 75.605837 95.613172 
L 75.629013 95.578034 
L 75.703688 95.753725 
L 75.708838 95.683449 
L 75.822139 95.788864 
L 75.765489 95.64831 
L 75.824714 95.753725 
L 75.91999 95.718587 
L 75.876215 95.894278 
L 75.932865 95.788864 
L 75.94059 95.753725 
L 76.046166 95.894278 
L 76.059041 95.929417 
L 76.162042 95.788864 
L 76.288218 96.034832 
L 76.375769 95.964555 
L 76.326843 96.06997 
L 76.398944 96.034832 
L 76.53542 96.140246 
L 76.563745 96.175385 
L 76.615246 96.034832 
L 76.640996 96.06997 
L 76.648721 96.034832 
L 76.738847 96.210523 
L 76.749147 96.06997 
L 76.782622 96.175385 
L 76.836697 96.034832 
L 76.859873 96.06997 
L 76.924248 96.034832 
L 76.980899 96.210523 
L 77.17145 96.315938 
L 77.194625 96.421353 
L 77.264151 96.210523 
L 77.274451 96.280799 
L 77.313076 96.140246 
L 77.387752 96.210523 
L 77.477878 96.280799 
L 77.493328 96.140246 
L 77.498478 96.210523 
L 77.503628 96.175385 
L 77.524228 96.315938 
L 77.604054 96.245661 
L 77.71478 96.351076 
L 77.665854 96.175385 
L 77.717355 96.315938 
L 77.732805 96.351076 
L 77.833231 96.245661 
L 77.933657 96.315938 
L 77.879581 96.175385 
L 77.943957 96.245661 
L 78.263259 96.140246 
L 78.37141 95.999693 
L 78.289009 96.245661 
L 78.379135 96.06997 
L 78.410035 96.105108 
L 78.469261 95.894278 
L 78.479561 95.999693 
L 78.497586 96.034832 
L 78.590287 95.894278 
L 78.680413 95.999693 
L 78.703588 95.964555 
L 78.773113 96.06997 
L 78.804014 95.999693 
L 78.888989 96.210523 
L 78.99714 96.245661 
L 78.92504 96.140246 
L 78.999715 96.210523 
L 79.092416 96.105108 
L 79.164517 95.964555 
L 79.105291 96.175385 
L 79.208292 95.999693 
L 79.316443 96.140246 
L 79.321593 96.06997 
L 79.403994 96.351076 
L 79.450344 96.315938 
L 79.488969 96.210523 
L 79.514719 96.386214 
L 79.56107 96.280799 
L 79.625445 96.386214 
L 79.615145 96.210523 
L 79.671796 96.280799 
L 79.890673 96.351076 
L 79.911273 96.421353 
L 79.978223 96.245661 
L 80.001398 96.351076 
L 80.009124 96.280799 
L 80.112124 96.421353 
L 80.163625 96.245661 
L 80.228 96.280799 
L 80.390227 96.351076 
L 80.503528 96.526767 
L 80.506103 96.491629 
L 80.609103 96.386214 
L 80.511253 96.526767 
L 80.621979 96.421353 
L 80.658029 96.561906 
L 80.73528 96.526767 
L 80.74043 96.597044 
L 80.84858 96.421353 
L 80.871756 96.491629 
L 80.936131 96.315938 
L 80.954156 96.351076 
L 80.997932 96.280799 
L 81.067457 96.210523 
L 81.033982 96.351076 
L 81.108658 96.280799 
L 81.152433 96.386214 
L 81.183333 96.210523 
L 81.216808 96.245661 
L 81.394485 96.315938 
L 81.482036 96.456491 
L 81.505211 96.351076 
L 81.829663 96.421353 
L 81.894039 96.561906 
L 81.940389 96.456491 
L 81.942964 96.421353 
L 81.97644 96.597044 
L 82.045965 96.526767 
L 82.138666 96.737597 
L 82.166991 96.702459 
L 82.197892 96.526767 
L 82.280292 96.66732 
L 82.383293 96.843012 
L 82.285442 96.632182 
L 82.401318 96.807874 
L 82.437368 96.772735 
L 82.468269 96.948427 
L 82.506894 96.87815 
L 82.625345 96.983565 
L 82.630495 97.053842 
L 82.712896 96.87815 
L 82.869972 114.517564 
L 83.281975 139.219772 
L 84.229583 162.059651 
L 84.44331 163.465182 
L 84.445885 163.430044 
L 84.517986 163.957118 
L 84.520561 163.886842 
L 84.682787 164.624746 
L 84.685362 164.589607 
L 84.765188 164.94099 
L 84.772913 164.870713 
L 84.899089 165.292373 
L 85.00209 165.397788 
L 85.133416 165.678894 
L 85.249292 165.784309 
L 85.347142 165.889723 
L 85.275042 165.714032 
L 85.360017 165.854585 
L 85.383193 165.714032 
L 85.457868 165.889723 
L 85.470743 165.784309 
L 85.509369 165.889723 
L 85.491344 165.74917 
L 85.584044 165.819447 
L 85.609795 165.74917 
L 85.635545 165.924862 
L 85.687045 165.924862 
L 85.795196 165.96 
L 85.72052 165.819447 
L 85.797771 165.924862 
L 85.905922 165.74917 
L 85.918797 165.784309 
L 85.988323 165.678894 
L 86.078448 165.538341 
L 85.998623 165.714032 
L 86.104199 165.573479 
L 86.124799 165.643756 
L 86.158274 165.468064 
L 86.212349 165.503202 
L 86.3308 165.397788 
L 86.444101 165.186958 
L 86.446676 165.222096 
L 86.634653 165.116681 
L 86.652678 165.15182 
L 86.771129 164.73016 
L 86.784004 164.765299 
L 86.84838 164.449054 
L 86.861255 164.484192 
L 86.997731 164.027395 
L 87.000306 164.062533 
L 87.062106 164.097671 
L 87.008031 163.992257 
L 87.108457 164.062533 
L 87.242358 163.746289 
L 87.247508 163.851703 
L 87.340209 163.605736 
L 87.345359 163.640874 
L 87.376259 163.535459 
L 87.51531 163.043523 
L 87.52046 163.078661 
L 87.55136 162.973247 
L 87.608011 162.832693 
L 87.669811 162.867832 
L 87.857788 162.90297 
L 87.860363 163.008385 
L 87.937614 162.797555 
L 87.965939 162.797555 
L 87.968514 162.867832 
L 88.05349 162.657002 
L 88.07409 162.797555 
L 88.179666 162.586726 
L 88.189966 162.657002 
L 88.254341 162.551587 
L 88.370217 162.340758 
L 88.375367 162.375896 
L 88.385667 162.411034 
L 88.460343 162.165066 
L 88.473218 162.235343 
L 88.601969 161.743407 
L 88.625144 161.67313 
L 88.74102 161.181195 
L 88.75132 161.216333 
L 88.753895 161.251471 
L 88.841446 160.935227 
L 88.846596 161.040641 
L 88.965047 160.794673 
L 88.975347 160.86495 
L 89.055173 160.548706 
L 89.057748 160.583844 
L 89.065473 160.618982 
L 89.183924 160.302738 
L 89.201949 160.373014 
L 89.276625 160.05677 
L 89.286925 160.127046 
L 89.415676 159.63511 
L 89.464601 159.564834 
L 89.575327 159.178313 
L 89.588202 159.213451 
L 89.745278 158.370132 
L 89.758154 158.405271 
L 89.760729 158.440409 
L 89.822529 158.053888 
L 89.840554 158.053888 
L 89.984755 157.526814 
L 89.98733 157.561952 
L 90.028531 157.456537 
L 90.157282 157.175431 
L 90.170157 157.245708 
L 90.239683 156.78891 
L 90.275733 156.718634 
L 90.381309 156.367251 
L 90.396759 156.402389 
L 90.427659 156.437527 
L 90.48431 156.191559 
L 90.486885 156.191559 
L 90.50491 156.226698 
L 90.610486 155.840177 
L 90.643961 155.734762 
L 90.770137 155.207688 
L 90.785587 155.313102 
L 90.826787 155.242826 
L 90.950388 154.856305 
L 91.009614 154.786028 
L 91.128065 154.399507 
L 91.16669 154.294092 
L 91.282566 154.012986 
L 91.285141 154.118401 
L 91.375267 153.73188 
L 91.382992 153.73188 
L 91.496293 153.485912 
L 91.390717 153.767018 
L 91.498868 153.556189 
L 91.516893 153.450774 
L 91.625044 152.993976 
L 91.648219 153.099391 
L 91.650794 153.169668 
L 91.75122 152.888561 
L 91.846496 152.783147 
L 91.959797 152.572317 
L 91.964947 152.607455 
L 92.052497 152.326349 
L 92.055072 152.396626 
L 92.188974 152.010105 
L 92.191549 152.080381 
L 92.284249 151.588445 
L 92.299699 151.623584 
L 92.374375 151.342477 
L 92.379525 151.377616 
L 92.510851 151.096509 
L 92.531451 151.026233 
L 92.541751 151.061371 
L 92.649902 150.815403 
L 92.714278 150.745127 
L 92.832729 150.534297 
L 92.843029 150.569435 
L 92.904829 150.323467 
L 92.928005 150.323467 
L 92.953755 150.218053 
L 93.095381 149.726117 
L 93.097956 149.796393 
L 93.182932 149.44501 
L 93.195807 149.515287 
L 93.314258 149.163904 
L 93.316833 149.199043 
L 93.370908 149.234181 
L 93.396658 149.058489 
L 93.417259 149.093628 
L 93.543435 148.882798 
L 93.57176 148.777383 
L 93.703086 148.390862 
L 93.579485 148.812521 
L 93.705661 148.426 
L 93.731411 148.461139 
L 93.793212 148.144894 
L 93.806087 148.180033 
L 93.927113 147.82865 
L 93.929688 147.934065 
L 94.019814 147.512405 
L 94.027539 147.547544 
L 94.153715 147.125884 
L 94.16144 147.161023 
L 94.251565 146.985331 
L 94.25414 147.055608 
L 94.375166 146.774502 
L 94.377742 146.80964 
L 94.460142 146.493395 
L 94.462717 146.528534 
L 94.581168 146.177151 
L 94.601768 146.247427 
L 94.653269 146.001459 
L 94.679019 146.001459 
L 94.699619 145.896045 
L 94.704769 145.931183 
L 94.841245 145.474385 
L 94.885021 145.36897 
L 95.026647 144.947311 
L 95.057547 144.841896 
L 95.175998 144.595928 
L 95.065272 144.877035 
L 95.178573 144.666205 
L 95.181148 144.736482 
L 95.276424 144.455375 
L 95.281574 144.455375 
L 95.309899 144.34996 
L 95.43865 144.033716 
L 95.320199 144.420237 
L 95.441225 144.068854 
L 95.45925 144.033716 
L 95.575126 143.647195 
L 95.577701 143.717472 
L 95.727053 143.155259 
L 95.747653 143.190397 
L 95.806878 142.909291 
L 95.819753 142.909291 
L 95.96138 142.487632 
L 95.963955 142.487632 
L 96.077255 142.171387 
L 96.07983 142.206526 
L 96.231757 141.644313 
L 96.265232 141.538898 
L 96.399133 141.117239 
L 96.404283 141.152377 
L 96.406858 141.187516 
L 96.478959 140.836133 
L 96.494409 140.906409 
L 96.615435 140.555027 
L 96.620585 140.590165 
L 96.705561 140.344197 
L 96.708136 140.379335 
L 96.829162 139.992814 
L 96.831737 140.063091 
L 96.932162 139.781985 
L 97.014563 139.67657 
L 97.153614 139.254911 
L 97.166489 139.290049 
L 97.24374 139.008943 
L 97.382791 138.517007 
L 97.385366 138.622422 
L 97.467767 138.235901 
L 97.485792 138.235901 
L 97.521842 138.130486 
L 97.532142 138.165624 
L 97.650593 137.814241 
L 97.671194 137.919656 
L 97.753594 137.603412 
L 97.763894 137.63855 
L 97.841145 137.357444 
L 97.84887 137.42772 
L 97.975046 136.83037 
L 97.980196 136.865508 
L 98.121822 136.443848 
L 98.124397 136.514125 
L 98.214523 136.092466 
L 98.219673 136.092466 
L 98.224823 136.162742 
L 98.307224 135.916774 
L 98.317524 135.916774 
L 98.384474 135.846498 
L 98.5055 135.459977 
L 98.508075 135.495115 
L 98.549276 135.459977 
L 98.667727 135.108594 
L 98.690902 135.038317 
L 98.811928 134.686935 
L 98.822228 134.722073 
L 98.902054 134.440967 
L 98.904629 134.440967 
L 99.04883 133.984169 
L 99.051405 134.054446 
L 99.136381 133.632786 
L 99.146681 133.703063 
L 99.272857 133.421957 
L 99.275432 133.457095 
L 99.293457 133.35168 
L 99.445383 132.789468 
L 99.447958 132.824606 
L 99.525209 132.508362 
L 99.535509 132.508362 
L 99.558684 132.438085 
L 99.682285 132.051564 
L 99.73121 131.946149 
L 99.883137 131.383937 
L 99.916612 131.278522 
L 100.058238 130.821724 
L 100.060813 130.856863 
L 100.140639 130.50548 
L 100.145789 130.50548 
L 100.194714 130.400065 
L 100.33119 129.908129 
L 100.333765 129.943267 
L 100.33634 130.013544 
L 100.429041 129.6973 
L 100.434191 129.732438 
L 100.578392 129.27564 
L 100.622168 129.240502 
L 100.722594 128.783704 
L 100.740619 128.818843 
L 100.743194 128.853981 
L 100.823019 128.537736 
L 100.830744 128.537736 
L 100.977521 128.010662 
L 101.003271 128.080939 
L 101.070221 127.764694 
L 101.072796 127.834971 
L 101.211848 127.378173 
L 101.214423 127.413312 
L 101.235023 127.44845 
L 101.304548 127.132205 
L 101.343174 127.026791 
L 101.466775 126.64027 
L 101.487375 126.569993 
L 101.608401 126.113195 
L 101.641876 126.042919 
L 101.765477 125.656398 
L 101.811828 125.550983 
L 101.945729 125.1996 
L 101.961179 125.234739 
L 102.012679 125.023909 
L 102.043579 125.023909 
L 102.200656 124.39142 
L 102.203231 124.426558 
L 102.265031 124.110314 
L 102.288206 124.145452 
L 102.411807 123.653516 
L 102.414382 123.723793 
L 102.416958 123.758931 
L 102.496783 123.442686 
L 102.504508 123.477825 
L 102.651284 122.985889 
L 102.682185 122.880474 
L 102.831536 122.3534 
L 102.854711 122.283123 
L 102.986037 121.54522 
L 102.991187 121.580358 
L 103.137963 121.053284 
L 103.143113 121.12356 
L 103.235814 120.701901 
L 103.248689 120.772178 
L 103.385165 120.174827 
L 103.416066 120.069412 
L 103.593742 119.155817 
L 103.604042 119.190955 
L 103.686443 118.909849 
L 103.810044 118.558466 
L 103.812619 118.628743 
L 103.902745 118.347637 
L 103.913045 118.347637 
L 104.052096 117.961116 
L 104.072696 117.890839 
L 104.201447 117.223212 
L 104.204022 117.293488 
L 104.206597 117.328627 
L 104.283848 116.977244 
L 104.291573 117.012382 
L 104.422899 116.731276 
L 104.461524 116.625861 
L 104.474399 116.660999 
L 104.590275 116.344755 
L 104.613451 116.379893 
L 104.670101 116.063649 
L 104.680401 116.063649 
L 104.716451 116.02851 
L 104.834902 115.606851 
L 104.837477 115.641989 
L 104.914728 115.290607 
L 104.922453 115.290607 
L 104.930178 115.325745 
L 105.079529 114.658118 
L 105.082104 114.693256 
L 105.14648 114.271597 
L 105.159355 114.306735 
L 105.285531 113.885076 
L 105.424582 113.39314 
L 105.295831 113.920214 
L 105.429732 113.428278 
L 105.481233 113.358001 
L 105.615134 112.549821 
L 105.620284 112.584959 
L 105.648609 112.479545 
L 105.795385 111.987609 
L 105.81341 111.882194 
L 105.962762 111.35512 
L 105.967912 111.390258 
L 106.042587 111.109152 
L 106.055462 111.109152 
L 106.094088 111.038875 
L 106.220264 110.511801 
L 106.222839 110.546939 
L 106.354165 110.265833 
L 106.379915 110.195557 
L 106.511241 109.633344 
L 106.547291 109.527929 
L 106.567892 109.563068 
L 106.730118 108.508919 
L 106.748143 108.579196 
L 106.820244 108.29809 
L 106.822819 108.29809 
L 106.94127 107.981845 
L 106.95157 108.052122 
L 106.99277 107.946707 
L 107.00822 108.016983 
L 107.121521 107.665601 
L 107.124096 107.700739 
L 107.209072 107.419633 
L 107.214222 107.489909 
L 107.340398 107.06825 
L 107.376448 106.962835 
L 107.384173 106.997974 
L 107.515499 106.506038 
L 107.518074 106.576314 
L 107.60305 106.189793 
L 107.61335 106.189793 
L 107.760126 105.697857 
L 107.821927 105.592442 
L 107.948103 105.170783 
L 107.958403 105.24106 
L 107.984153 105.135645 
L 108.112904 104.8194 
L 108.115479 104.889677 
L 108.20818 104.538294 
L 108.21333 104.573432 
L 108.25453 104.468018 
L 108.388432 104.151773 
L 108.421907 104.046358 
L 108.429632 104.081497 
L 108.573833 103.484146 
L 108.615033 103.378731 
L 108.738634 103.062487 
L 108.622758 103.413869 
L 108.746359 103.097625 
L 108.76696 103.027348 
L 108.882836 102.711104 
L 108.908586 102.746242 
L 108.960086 102.465136 
L 108.978111 102.500274 
L 109.114588 102.113753 
L 109.122313 102.148891 
L 109.202138 101.832647 
L 109.207288 101.867785 
L 109.240764 101.76237 
L 109.245914 101.797509 
L 109.374665 101.446126 
L 109.379815 101.516403 
L 109.46994 101.235296 
L 109.477665 101.270435 
L 109.606417 100.883914 
L 109.616717 100.95419 
L 109.696542 100.673084 
L 109.701692 100.673084 
L 109.835593 100.251425 
L 109.840743 100.286563 
L 109.866494 100.181148 
L 110.01327 99.583797 
L 110.01842 99.618936 
L 110.057045 99.513521 
L 110.196096 99.021585 
L 110.067345 99.583797 
L 110.198671 99.091861 
L 110.221847 99.021585 
L 110.350598 98.529649 
L 110.353173 98.599926 
L 110.451023 98.248543 
L 110.453598 98.283681 
L 110.546299 98.072851 
L 110.693075 97.580916 
L 110.69565 97.616054 
L 110.775476 97.264671 
L 110.780626 97.264671 
L 110.790926 97.299809 
L 110.909377 97.018703 
L 110.937702 96.983565 
L 111.056153 96.561906 
L 111.058728 96.597044 
L 111.146279 96.280799 
L 111.148854 96.315938 
L 111.282755 95.824002 
L 111.156579 96.351076 
L 111.29048 95.894278 
L 111.313656 95.824002 
L 111.442407 95.296928 
L 111.506782 95.191513 
L 111.645833 94.804992 
L 111.681884 94.734715 
L 111.815785 94.067088 
L 111.84926 93.961673 
L 111.998611 93.434599 
L 112.019211 93.329184 
L 112.026936 93.399461 
L 112.163413 92.837248 
L 112.165988 92.872387 
L 112.225213 92.556142 
L 112.253538 92.591281 
L 112.377139 92.204759 
L 112.44409 92.099345 
L 112.583141 91.712824 
L 112.603741 91.607409 
L 112.755667 91.045196 
L 112.758242 91.080335 
L 112.822618 90.658675 
L 112.832918 90.658675 
L 112.959094 90.166739 
L 112.966819 90.237016 
L 113.03892 89.815357 
L 113.04407 89.850495 
L 113.214021 89.042315 
L 113.216596 89.112591 
L 113.309297 88.655794 
L 113.311872 88.690932 
L 113.342772 88.585517 
L 113.486973 88.093581 
L 113.489548 88.163858 
L 113.584824 87.777337 
L 113.587399 87.847613 
L 113.713575 87.10971 
L 113.71615 87.179986 
L 113.783101 86.863742 
L 113.814001 86.863742 
L 114.007128 85.739317 
L 114.027728 85.633902 
L 114.032878 85.66904 
L 114.192529 84.825722 
L 114.200254 84.931136 
L 114.277505 84.298647 
L 114.28523 84.368924 
L 114.411406 83.912126 
L 114.424281 83.947265 
L 114.480932 83.455329 
L 114.488657 83.490467 
L 114.648308 81.979521 
L 114.653458 82.01466 
L 114.918685 79.906363 
L 114.93671 79.800948 
L 115.214813 74.530207 
L 115.240563 70.102784 
L 115.266313 14.76 
L 115.343564 80.046916 
L 115.428539 84.579754 
L 115.47489 84.439201 
L 115.637116 83.03367 
L 115.644841 83.068808 
L 115.716942 82.61201 
L 115.902343 81.557862 
L 115.907493 81.593 
L 115.977019 81.136203 
L 115.982169 81.136203 
L 116.203621 79.625257 
L 116.226796 79.55498 
L 116.365847 78.781938 
L 116.739225 72.175942 
L 116.754675 67.432275 
L 116.783 16.58719 
L 116.860251 76.287121 
L 116.989002 82.084936 
L 116.994152 82.01466 
L 117.012177 81.909245 
L 117.187279 80.152331 
L 117.828459 69.927093 
L 117.851634 57.417867 
L 117.877384 19.117146 
L 117.954635 72.035389 
L 118.070511 79.871225 
L 118.093686 79.800948 
L 118.263638 78.149449 
L 118.273938 78.079173 
L 118.474789 75.619493 
L 118.817267 69.435157 
L 118.840442 57.523281 
L 118.868768 21.260581 
L 118.943443 69.048636 
L 119.085069 79.027906 
L 119.811225 67.643105 
L 119.831825 56.890792 
L 119.862726 22.314729 
L 119.934826 65.815914 
L 120.071302 76.814195 
L 120.079028 76.779056 
L 120.084178 76.814195 
L 120.148553 76.287121 
L 120.34168 73.967994 
L 120.34683 74.003133 
L 120.406055 73.335505 
L 120.416355 73.230091 
L 120.699608 67.853934 
L 120.763983 61.2128 
L 120.802608 25.617727 
L 120.872134 61.001971 
L 121.021485 75.127558 
L 121.096161 75.057281 
L 121.240362 74.143686 
L 121.250662 74.178824 
L 121.312463 73.616612 
L 121.322763 73.546335 
L 121.503014 71.61373 
L 121.505589 71.648868 
L 121.549365 70.770411 
L 121.817167 65.605085 
L 121.884117 55.942059 
L 121.922743 27.058396 
L 121.989693 59.631578 
L 122.136469 73.722026 
L 122.139044 73.65175 
L 122.185395 73.616612 
L 122.329596 72.211081 
L 122.7931 64.375245 
L 122.852325 58.436877 
L 122.898676 29.096416 
L 122.963051 56.258304 
L 123.117552 72.000251 
L 123.158753 71.894836 
L 123.841133 61.142524 
L 123.957009 49.546893 
L 124.000785 34.577987 
L 124.062585 51.268668 
L 124.227387 68.591838 
L 124.237687 68.662115 
L 124.273737 68.908083 
L 124.343263 68.521562 
L 124.356138 68.451285 
L 124.647115 63.496788 
L 124.64969 63.531927 
L 124.69604 62.829161 
L 124.706341 62.829161 
L 124.863417 61.388492 
L 124.868567 61.42363 
L 125.087444 57.453005 
L 124.886592 61.458768 
L 125.19302 58.507153 
L 125.445372 62.407502 
L 125.447947 62.372363 
L 125.512322 62.864299 
L 125.532922 62.723746 
L 125.571548 62.794023 
L 125.615323 62.337225 
L 125.617898 62.372363 
L 125.896 59.877546 
L 125.9063 59.947822 
L 125.9166 59.877546 
L 126.042776 59.034227 
L 126.053077 59.139642 
L 126.068527 59.104504 
L 126.192128 59.526163 
L 126.302854 59.245057 
L 126.233328 59.631578 
L 126.315729 59.315333 
L 126.457355 59.842408 
L 126.351779 59.17478 
L 126.462505 59.807269 
L 126.529455 59.350472 
L 126.596406 59.455887 
L 126.650481 59.59644 
L 126.686532 59.209919 
L 126.694257 59.245057 
L 126.815283 58.507153 
L 126.820433 58.57743 
L 126.841033 58.682845 
L 126.964634 59.17478 
L 126.882233 58.3666 
L 126.977509 59.034227 
L 126.992959 59.139642 
L 127.129435 60.088376 
L 127.168061 60.018099 
L 127.260761 59.982961 
L 127.402388 58.717983 
L 127.453888 58.507153 
L 127.507964 58.753121 
L 127.510539 58.753121 
L 127.541439 59.034227 
L 127.600664 58.542291 
L 127.605814 58.57743 
L 127.623839 58.612568 
L 127.798941 56.258304 
L 127.855591 56.223165 
L 127.922542 56.644825 
L 127.935417 56.715101 
L 128.092493 58.085494 
L 128.107943 57.980079 
L 128.185194 58.57743 
L 128.283045 58.788259 
L 128.213519 58.436877 
L 128.29592 58.612568 
L 128.388621 57.488143 
L 128.434971 57.734111 
L 128.445271 57.839526 
L 128.517372 57.031346 
L 128.548272 56.469133 
L 128.630673 56.961069 
L 128.684748 56.855654 
L 128.751699 57.101622 
L 128.774874 57.13676 
L 128.846975 57.628696 
L 128.89075 57.417867 
L 129.063276 55.590676 
L 128.913925 57.488143 
L 129.094177 56.152889 
L 129.119927 56.258304 
L 129.186877 56.890792 
L 129.258978 56.644825 
L 129.264128 56.574548 
L 129.328503 57.13676 
L 129.336229 57.066484 
L 129.457255 57.734111 
L 129.467555 57.663835 
L 129.49588 57.769249 
L 129.54738 58.190909 
L 129.593731 57.663835 
L 129.737932 56.715101 
L 129.743082 56.609686 
L 129.866683 55.133879 
L 129.897583 55.414985 
L 130.082985 56.574548 
L 130.088135 56.53941 
L 130.10101 56.32858 
L 130.191136 56.644825 
L 130.193711 56.574548 
L 130.327612 58.015217 
L 130.337912 57.944941 
L 130.474388 59.17478 
L 130.510438 58.858536 
L 130.623739 57.804388 
L 130.644339 57.839526 
L 130.654639 57.804388 
L 130.806566 56.082612 
L 130.827166 55.977197 
L 130.870941 55.731229 
L 130.927592 56.258304 
L 130.950767 56.047474 
L 130.981667 56.433995 
L 131.040893 56.223165 
L 131.141318 56.32858 
L 131.280369 57.242175 
L 131.30097 57.066484 
L 131.401395 56.53941 
L 131.427146 56.644825 
L 131.555897 55.871782 
L 131.584222 56.012336 
L 131.597097 56.047474 
L 131.640872 55.344708 
L 131.643447 55.344708 
L 131.826274 54.185145 
L 131.828849 54.220284 
L 131.9473 54.712219 
L 131.949875 54.677081 
L 132.189352 56.679963 
L 132.204802 56.644825 
L 132.222827 56.53941 
L 132.274328 56.890792 
L 132.305228 56.715101 
L 132.333553 56.996207 
L 132.423679 56.925931 
L 132.452004 57.066484 
L 132.51123 56.609686 
L 132.513805 56.679963 
L 132.660581 55.696091 
L 132.676031 55.801506 
L 132.709506 56.047474 
L 132.763582 55.696091 
L 132.786757 55.801506 
L 132.794482 55.906921 
L 132.897483 56.223165 
L 132.830532 55.836644 
L 132.912933 56.152889 
L 132.992759 55.590676 
L 133.033959 55.801506 
L 133.070009 56.152889 
L 133.129235 55.625815 
L 133.286311 54.817634 
L 133.296611 54.852772 
L 133.350686 55.169017 
L 133.399612 54.747358 
L 133.402187 54.747358 
L 133.456262 54.641943 
L 133.654539 53.447241 
L 133.791015 54.325698 
L 133.667414 53.376965 
L 133.81419 54.114869 
L 133.839941 54.009454 
L 133.886291 53.728348 
L 133.942941 54.325698 
L 134.030492 54.29056 
L 134.079417 54.677081 
L 134.110318 54.782496 
L 134.156668 54.993326 
L 134.210744 54.641943 
L 134.432195 53.025582 
L 134.233919 54.747358 
L 134.43477 53.095859 
L 134.581547 53.587795 
L 134.612447 53.341827 
L 134.656222 53.974316 
L 134.797848 55.274432 
L 134.990975 53.341827 
L 134.805573 55.344708 
L 135.021875 53.693209 
L 135.042475 53.658071 
L 135.171226 54.220284 
L 135.194402 54.114869 
L 135.281952 53.517518 
L 135.330878 53.763486 
L 135.341178 53.833762 
L 135.400403 53.306688 
L 135.402978 53.306688 
L 135.439029 53.095859 
L 135.498254 53.728348 
L 135.675931 55.590676 
L 135.704256 55.485261 
L 135.936008 53.517518 
L 135.722281 55.5204 
L 135.951458 53.622933 
L 135.961758 53.517518 
L 136.031283 52.393093 
L 136.085359 52.990444 
L 136.093084 52.955306 
L 136.154885 53.48238 
L 136.15746 53.48238 
L 136.216685 54.255422 
L 136.288786 54.044592 
L 136.386636 53.939177 
L 136.533413 52.04171 
L 136.559163 52.217402 
L 136.572038 52.322817 
L 136.685339 52.990444 
L 136.700789 52.920167 
L 136.718814 52.814752 
L 136.790915 53.27155 
L 136.80379 53.236412 
L 136.842415 53.412103 
L 136.899066 53.06072 
L 137.094767 51.303807 
L 137.125667 51.409221 
L 137.262144 52.217402 
L 137.264719 52.182264 
L 137.457845 54.255422 
L 137.49132 53.798624 
L 137.511921 53.904039 
L 137.795173 51.128115 
L 138.0604 53.833762 
L 137.844098 50.917286 
L 138.093875 53.693209 
L 138.122201 53.48238 
L 138.168551 54.044592 
L 138.178851 53.974316 
L 138.191726 54.07973 
L 138.240652 53.693209 
L 138.281852 53.833762 
L 138.611455 50.847009 
L 138.626905 50.776733 
L 138.68098 50.42535 
L 138.727331 50.882147 
L 138.729906 50.882147 
L 138.871532 52.990444 
L 138.889557 52.920167 
L 138.915307 52.674199 
L 138.977108 53.130997 
L 138.984833 53.130997 
L 139.092984 53.587795 
L 139.105859 53.306688 
L 139.355636 51.338945 
L 139.358211 51.374083 
L 139.479237 51.830881 
L 139.376236 51.268668 
L 139.497262 51.760604 
L 139.561637 51.268668 
L 139.626013 51.514636 
L 139.662063 51.338945 
L 139.739314 51.725466 
L 139.741889 51.690328 
L 139.811415 52.217402 
L 139.816565 52.182264 
L 139.904115 53.130997 
L 139.935016 52.533646 
L 139.937591 52.568785 
L 140.007116 52.04171 
L 140.009691 52.04171 
L 140.066342 51.338945 
L 140.122992 51.901157 
L 140.151317 52.147125 
L 140.205393 51.620051 
L 140.228568 51.725466 
L 140.313544 51.620051 
L 140.372769 51.0227 
L 140.42942 51.338945 
L 140.45002 51.409221 
L 140.498945 52.04171 
L 140.573621 51.936296 
L 140.601946 52.182264 
L 140.689497 51.725466 
L 140.704947 51.584913 
L 140.818248 51.971434 
L 140.846573 51.866019 
L 140.972749 51.409221 
L 140.887773 51.901157 
L 140.985624 51.44436 
L 141.073175 51.655189 
L 141.013949 51.057839 
L 141.1015 51.514636 
L 141.119525 51.409221 
L 141.199351 50.671318 
L 141.250851 50.811871 
L 141.268876 50.917286 
L 141.271452 50.987562 
L 141.361577 50.530765 
L 141.364152 50.530765 
L 141.374452 50.601041 
L 141.505778 51.971434 
L 141.516079 51.866019 
L 141.559854 51.795743 
L 141.678305 51.44436 
L 141.68088 51.514636 
L 141.765856 51.690328 
L 141.794181 51.44436 
L 141.796756 51.514636 
L 141.879157 51.057839 
L 141.892032 51.092977 
L 141.912632 51.23353 
L 141.966707 50.601041 
L 142.069708 49.090095 
L 142.146959 49.652308 
L 142.154684 49.757723 
L 142.24996 51.549775 
L 142.31691 51.163254 
L 142.432786 50.776733 
L 142.32721 51.23353 
L 142.443086 50.952424 
L 142.453386 51.0227 
L 142.473986 51.128115 
L 142.538362 50.460488 
L 142.548662 50.460488 
L 142.571837 50.355073 
L 142.610463 50.284797 
L 142.651663 50.776733 
L 142.654238 50.741594 
L 142.780414 51.725466 
L 142.811314 51.409221 
L 143.009591 50.21452 
L 143.014741 50.144244 
L 143.071391 49.371201 
L 143.130617 49.968552 
L 143.398419 52.25254 
L 143.400994 52.182264 
L 143.55807 51.0227 
L 143.57867 51.268668 
L 143.588971 51.303807 
L 143.640471 50.636179 
L 143.648196 50.706456 
L 143.676521 50.671318 
L 143.691971 50.460488 
L 143.771797 51.092977 
L 143.776947 51.0227 
L 143.833598 51.620051 
L 143.910848 51.374083 
L 143.985524 51.584913 
L 144.098825 49.19551 
L 144.328002 51.198392 
L 144.150325 49.054957 
L 144.351177 51.128115 
L 144.361477 51.198392 
L 144.379502 51.338945 
L 144.441303 50.460488 
L 144.443878 50.495626 
L 144.564904 49.757723 
L 144.577779 49.863137 
L 144.673054 50.601041 
L 144.729705 50.42535 
L 144.776055 50.284797 
L 144.809531 50.601041 
L 144.830131 50.530765 
L 144.866181 50.671318 
L 144.904806 50.038829 
L 144.994932 49.40634 
L 145.043857 49.652308 
L 145.105658 50.073967 
L 145.149433 49.617169 
L 145.152008 49.617169 
L 145.30651 48.773851 
L 145.31681 48.879266 
L 145.473886 51.23353 
L 145.481611 51.128115 
L 145.540837 51.0227 
L 145.669588 50.355073 
L 145.674738 50.390211 
L 145.677313 50.42535 
L 145.721088 49.722584 
L 145.733963 49.757723 
L 145.775163 50.038829 
L 145.862714 49.265787 
L 145.898765 49.371201 
L 145.929665 49.722584 
L 146.01464 49.582031 
L 146.027516 49.441478 
L 146.102191 50.00369 
L 146.117641 49.933414 
L 146.256692 48.527883 
L 146.318493 48.703574 
L 146.331368 48.808989 
L 146.434369 49.582031 
L 146.472994 49.300925 
L 146.59402 49.019819 
L 146.689296 48.738713 
L 146.715046 48.879266 
L 146.769122 49.019819 
L 146.740796 48.738713 
L 146.815472 48.738713 
L 146.861822 48.317053 
L 146.913323 48.98468 
L 147.036924 49.933414 
L 147.054949 49.827999 
L 147.078124 49.933414 
L 147.16825 50.284797 
L 147.19915 50.21452 
L 147.227475 50.109105 
L 147.402577 48.281915 
L 147.446352 48.598159 
L 147.551928 48.738713 
L 147.510728 48.422468 
L 147.559653 48.703574 
L 147.685829 48.000809 
L 147.703854 47.895394 
L 147.755355 47.649426 
L 147.806855 48.211638 
L 147.81458 48.317053 
L 147.976807 49.757723 
L 148.030882 50.179382 
L 148.133883 49.090095 
L 148.136458 49.125234 
L 148.182808 48.281915 
L 148.275509 47.052075 
L 148.314134 47.649426 
L 148.610262 50.776733 
L 148.633437 50.530765 
L 148.821413 48.38733 
L 148.823989 48.422468 
L 148.860039 47.473735 
L 148.896089 47.016937 
L 148.950165 47.579149 
L 148.96304 47.544011 
L 149.145866 50.565903 
L 149.447144 47.895394 
L 149.158741 50.636179 
L 149.449719 47.930532 
L 149.663445 49.582031 
L 149.67117 49.476616 
L 149.890047 47.719703 
L 149.900347 47.789979 
L 150.059999 49.230648 
L 150.062574 49.19551 
L 150.098624 49.125234 
L 150.247975 48.035947 
L 150.387026 49.300925 
L 150.294326 47.96567 
L 150.435952 49.125234 
L 150.508052 49.160372 
L 150.562128 48.879266 
L 150.564703 48.914404 
L 150.613628 48.106224 
L 150.616203 48.106224 
L 150.636803 47.930532 
L 150.675429 48.633298 
L 150.688304 48.633298 
L 150.703754 48.808989 
L 150.747529 48.106224 
L 150.760404 48.141362 
L 150.768129 48.035947 
L 150.837655 48.492745 
L 150.84538 48.457606 
L 150.85053 48.563021 
L 150.909756 48.1765 
L 150.950956 48.317053 
L 150.953531 48.352191 
L 150.999881 47.579149 
L 151.005031 47.579149 
L 151.077132 46.981799 
L 151.123482 47.438596 
L 151.293434 48.563021 
L 151.306309 48.457606 
L 151.373259 48.422468 
L 151.39901 48.668436 
L 151.473685 48.949542 
L 151.494285 48.598159 
L 151.49686 48.598159 
L 151.633337 47.403458 
L 151.635912 47.473735 
L 151.705437 47.052075 
L 151.736337 47.192628 
L 151.836763 48.071085 
L 151.888264 47.754841 
L 152.02989 46.630416 
L 152.037615 46.700693 
L 152.10199 47.438596 
L 152.161216 47.087214 
L 152.171516 47.15749 
L 152.184391 47.122352 
L 152.310567 48.703574 
L 152.344042 49.054957 
L 152.390393 48.281915 
L 152.537169 46.806107 
L 152.542319 46.770969 
L 152.60412 47.333182 
L 152.611845 47.262905 
L 152.730296 47.473735 
L 152.804971 47.579149 
L 152.954322 49.898276 
L 152.992948 49.722584 
L 153.003248 49.687446 
L 153.139724 48.211638 
L 153.2865 47.508873 
L 153.294225 47.614288 
L 153.410101 48.000809 
L 153.3071 47.579149 
L 153.420401 47.825117 
L 153.453877 47.719703 
L 153.564602 46.525001 
L 153.461602 47.754841 
L 153.628978 46.841246 
L 153.765454 47.649426 
L 153.639278 46.770969 
L 153.768029 47.614288 
L 153.793779 47.508873 
L 153.809229 47.438596 
L 153.863305 48.000809 
L 153.87618 47.895394 
L 153.940556 48.141362 
L 153.971456 47.719703 
L 154.040981 47.087214 
L 154.084757 47.614288 
L 154.107932 47.719703 
L 154.177457 47.227767 
L 154.180032 47.262905 
L 154.339684 45.92765 
L 154.349984 45.997927 
L 154.535385 48.106224 
L 154.733662 46.560139 
L 154.743962 46.770969 
L 154.937089 48.38733 
L 154.749112 46.735831 
L 154.960264 48.211638 
L 155.212616 46.13848 
L 155.220341 46.173618 
L 155.359392 46.841246 
L 155.369692 46.700693 
L 155.513893 44.768087 
L 155.552519 45.716821 
L 155.66582 47.860256 
L 155.725045 47.403458 
L 155.73277 47.473735 
L 155.76367 47.684564 
L 155.822896 46.735831 
L 155.985122 45.295162 
L 156.008298 45.365438 
L 156.116448 46.208757 
L 156.147349 46.13848 
L 156.149924 46.103342 
L 156.203999 46.806107 
L 156.206574 46.806107 
L 156.3379 47.754841 
L 156.345625 47.684564 
L 156.538752 45.11947 
L 156.549052 45.154608 
L 156.595402 45.11947 
L 156.621153 45.541129 
L 156.623728 45.541129 
L 156.770504 47.333182 
L 156.775654 47.227767 
L 156.778229 47.262905 
L 156.832304 46.665554 
L 156.847754 46.700693 
L 156.904405 46.665554 
L 156.94818 46.770969 
L 157.028006 46.103342 
L 157.030581 46.13848 
L 157.105257 45.716821 
L 157.107832 45.716821 
L 157.131007 45.505991 
L 157.179932 45.822236 
L 157.215982 45.716821 
L 157.321558 46.560139 
L 157.367909 46.279033 
L 157.566185 44.592396 
L 157.58421 44.838364 
L 157.633136 44.943779 
L 157.638286 44.90864 
L 157.800512 46.489863 
L 157.831412 46.595278 
L 157.864888 46.876384 
L 157.931838 46.243895 
L 158.016814 45.541129 
L 158.052864 46.103342 
L 158.197065 47.087214 
L 158.217666 46.911522 
L 158.338692 45.751959 
L 158.348992 45.787097 
L 158.428817 45.084332 
L 158.470018 45.435715 
L 158.567869 47.262905 
L 158.70177 47.122352 
L 158.840821 45.365438 
L 158.871721 45.505991 
L 158.936097 46.34931 
L 158.990172 45.611406 
L 159.054548 44.627534 
L 159.116348 45.154608 
L 159.126648 45.049194 
L 159.30175 43.924769 
L 159.154973 45.084332 
L 159.314625 43.995045 
L 159.479426 46.13848 
L 159.533501 45.505991 
L 159.626202 44.205875 
L 159.675128 44.627534 
L 159.811604 45.646544 
L 159.688003 44.592396 
L 159.847654 45.470853 
L 159.894004 44.697811 
L 159.96353 45.154608 
L 160.094856 46.770969 
L 160.115456 46.384448 
L 160.293133 44.557258 
L 160.318883 44.451843 
L 160.365233 44.241013 
L 160.401284 44.803226 
L 160.406434 44.768087 
L 160.434759 44.873502 
L 160.55836 45.470853 
L 160.627885 45.857374 
L 160.679386 45.189747 
L 160.705136 45.014055 
L 160.782387 45.295162 
L 160.800412 45.189747 
L 160.885388 44.030184 
L 160.965213 44.451843 
L 161.065639 45.014055 
L 161.093964 44.697811 
L 161.119714 44.768087 
L 161.186665 44.31129 
L 161.24074 45.049194 
L 161.251041 45.154608 
L 161.354041 45.576268 
L 161.379792 45.435715 
L 161.511118 44.592396 
L 161.619269 44.135598 
L 161.531718 44.697811 
L 161.639869 44.346428 
L 161.856171 46.384448 
L 161.673344 44.10046 
L 161.884496 46.173618 
L 162.100798 43.854492 
L 162.134273 44.276152 
L 162.147148 44.381566 
L 162.172898 44.31129 
L 162.268174 44.662673 
L 162.337699 44.557258 
L 162.3995 44.943779 
L 162.412375 45.049194 
L 162.448425 45.505991 
L 162.525676 45.084332 
L 162.535976 45.014055 
L 162.564301 44.486981 
L 162.636402 45.224885 
L 162.641552 45.189747 
L 162.646702 45.224885 
L 162.741978 45.822236 
L 162.767728 45.681683 
L 162.917079 44.838364 
L 162.814078 45.92765 
L 162.929954 44.978917 
L 162.97888 45.295162 
L 163.00978 44.732949 
L 163.022655 44.732949 
L 163.04068 44.803226 
L 163.156556 45.049194 
L 163.130806 44.697811 
L 163.159131 45.014055 
L 163.187456 45.3303 
L 163.226082 44.943779 
L 163.277582 45.11947 
L 163.357408 44.276152 
L 163.432083 44.486981 
L 163.478434 45.189747 
L 163.529934 44.346428 
L 163.66641 43.432833 
L 163.67156 43.467971 
L 163.753961 43.573386 
L 163.962538 45.154608 
L 163.967688 45.014055 
L 164.127339 43.749077 
L 164.150514 44.030184 
L 164.243215 45.646544 
L 164.297291 45.014055 
L 164.369391 44.627534 
L 164.420892 44.803226 
L 164.487842 45.470853 
L 164.539343 44.943779 
L 164.729894 42.519238 
L 164.773669 43.222003 
L 164.923021 44.697811 
L 164.933321 44.592396 
L 165.095547 43.186865 
L 165.131597 43.046312 
L 165.172798 43.573386 
L 165.177948 43.538248 
L 165.381374 44.838364 
L 165.5024 44.416705 
L 165.4303 45.11947 
L 165.504975 44.451843 
L 165.523001 44.381566 
L 165.659477 42.378685 
L 165.700677 42.554376 
L 165.723852 42.624653 
L 165.798528 43.046312 
L 165.842303 42.835482 
L 165.852603 42.905759 
L 165.875779 43.116588 
L 165.955604 42.765206 
L 165.958179 42.835482 
L 165.968479 42.765206 
L 166.03028 43.608524 
L 166.04058 43.538248 
L 166.128131 44.557258 
L 166.179631 43.924769 
L 166.285207 42.976035 
L 166.326407 43.397695 
L 166.488634 44.451843 
L 166.498934 44.31129 
L 166.63026 43.432833 
L 166.65086 43.397695 
L 166.782186 43.995045 
L 166.849137 43.959907 
L 166.926387 42.448961 
L 166.985613 42.905759 
L 167.080888 43.116588 
L 167.034538 42.800344 
L 167.101489 43.011174 
L 167.171014 42.413823 
L 167.222515 42.87062 
L 167.32294 43.959907 
L 167.343541 43.608524 
L 167.456841 41.851611 
L 167.505767 42.202993 
L 167.711769 43.819354 
L 167.722069 43.678801 
L 167.727219 43.608524 
L 167.799319 44.135598 
L 167.819919 44.241013 
L 167.832795 44.31129 
L 167.899745 43.503109 
L 167.953821 42.694929 
L 168.028496 42.940897 
L 168.064546 43.222003 
L 168.121197 42.624653 
L 168.128922 42.659791 
L 168.260248 42.132717 
L 168.134072 42.765206 
L 168.270548 42.238132 
L 168.298873 42.343546 
L 168.404449 44.135598 
L 168.458525 43.713939 
L 168.46625 43.643663 
L 168.600151 42.27327 
L 168.618176 42.413823 
L 168.718602 43.608524 
L 168.762377 43.362556 
L 168.777827 43.467971 
L 168.801003 43.678801 
L 168.852503 43.011174 
L 168.927179 42.097578 
L 168.973529 42.519238 
L 169.12288 45.084332 
L 169.156355 44.662673 
L 169.295407 42.519238 
L 169.305707 42.554376 
L 169.529734 44.276152 
L 169.362357 42.413823 
L 169.540034 44.241013 
L 169.599259 44.135598 
L 169.792386 42.976035 
L 169.851611 43.608524 
L 169.802686 42.940897 
L 169.926287 43.29228 
L 169.934012 43.186865 
L 169.980362 42.905759 
L 170.021563 43.608524 
L 170.026713 43.573386 
L 170.070488 43.819354 
L 170.124563 43.186865 
L 170.245589 42.308408 
L 170.263615 42.413823 
L 170.315115 42.694929 
L 170.37434 42.413823 
L 170.384641 42.484099 
L 170.418116 42.730067 
L 170.474766 42.06244 
L 170.482491 42.132717 
L 170.500516 42.238132 
L 170.634418 42.905759 
L 170.508242 42.202993 
L 170.644718 42.730067 
L 170.665318 42.659791 
L 170.711668 43.011174 
L 170.737418 42.976035 
L 170.750294 43.08145 
L 170.824969 43.222003 
L 170.845569 43.011174 
L 170.855869 43.011174 
L 170.879045 42.940897 
L 170.92797 43.362556 
L 170.94857 43.257142 
L 170.992346 43.678801 
L 171.036121 42.976035 
L 171.046421 42.976035 
L 171.231822 41.957025 
L 171.278173 42.519238 
L 171.355424 42.308408 
L 171.442974 42.413823 
L 171.4816 42.554376 
L 171.535675 42.238132 
L 171.540825 42.238132 
L 171.646401 41.921887 
L 171.661851 41.957025 
L 171.757127 41.500228 
L 171.700476 42.132717 
L 171.790602 41.711057 
L 171.811202 41.816472 
L 171.932228 43.257142 
L 171.988879 42.730067 
L 172.12278 41.746196 
L 172.20518 41.148845 
L 172.238656 41.675919 
L 172.341657 42.027302 
L 172.261831 41.570504 
L 172.354532 41.816472 
L 172.485858 41.008292 
L 172.501308 41.324536 
L 172.635209 42.976035 
L 172.709885 42.694929 
L 172.874686 41.183983 
L 172.879836 41.148845 
L 172.967387 40.375803 
L 172.998287 40.762324 
L 173.111588 42.835482 
L 173.212014 42.238132 
L 173.315015 41.429951 
L 173.330465 41.605643 
L 173.340765 41.675919 
L 173.36909 41.886749 
L 173.433466 41.465089 
L 173.443766 41.465089 
L 173.577667 41.500228 
L 173.716718 42.659791 
L 173.745043 43.011174 
L 173.850619 42.343546 
L 173.896969 42.238132 
L 174.120996 40.621771 
L 173.909844 42.27327 
L 174.123571 40.656909 
L 174.131296 40.762324 
L 174.332148 42.27327 
L 174.345023 42.167855 
L 174.355323 42.27327 
L 174.424849 42.835482 
L 174.476349 42.484099 
L 174.517549 42.343546 
L 174.5742 42.765206 
L 174.576775 42.765206 
L 174.61025 43.011174 
L 174.659176 42.378685 
L 174.669476 42.27327 
L 174.803377 41.04343 
L 174.834277 41.500228 
L 174.921828 42.202993 
L 174.957878 41.675919 
L 175.053154 40.797462 
L 175.089204 41.324536 
L 175.15358 42.765206 
L 175.21538 42.343546 
L 175.338981 41.711057 
L 175.382757 42.132717 
L 175.434257 41.640781 
L 175.441982 41.640781 
L 175.629959 40.586633 
L 175.900336 43.327418 
L 175.660859 40.516356 
L 175.920936 43.08145 
L 175.993037 40.586633 
L 176.098612 39.145963 
L 176.129513 39.743314 
L 176.276289 41.711057 
L 176.281439 41.640781 
L 176.366415 42.06244 
L 176.37414 41.992164 
L 176.376715 42.027302 
L 176.438515 41.429951 
L 176.44109 41.429951 
L 176.683142 39.567623 
L 176.873694 41.781334 
L 176.878844 41.851611 
L 176.907169 42.554376 
L 176.992145 41.957025 
L 177.00502 41.851611 
L 177.208447 40.094697 
L 177.236772 40.164973 
L 177.283122 40.481218 
L 177.319172 40.129835 
L 177.352648 40.340665 
L 177.355223 40.305526 
L 177.404148 40.902877 
L 177.422173 40.902877 
L 177.522599 41.324536 
L 177.550924 41.148845 
L 177.561224 41.04343 
L 177.5844 41.25426 
L 177.664225 41.078568 
L 177.790401 41.605643 
L 177.674525 40.973154 
L 177.798126 41.535366 
L 177.926877 39.00541 
L 177.952628 39.145963 
L 178.143179 41.746196 
L 177.957778 39.110825 
L 178.223005 41.394813 
L 178.300256 40.902877 
L 178.328581 41.465089 
L 178.331156 41.429951 
L 178.439307 42.694929 
L 178.472782 42.308408 
L 178.709684 40.270388 
L 178.722559 40.410941 
L 178.771484 40.797462 
L 178.82556 40.340665 
L 178.83071 40.340665 
L 178.853885 40.446079 
L 178.985211 41.570504 
L 178.998086 41.465089 
L 179.121687 38.864857 
L 179.157738 39.462208 
L 179.175763 39.497346 
L 179.273614 41.781334 
L 179.332839 41.465089 
L 179.44614 40.200112 
L 179.48219 40.410941 
L 179.515666 40.656909 
L 179.580041 40.270388 
L 179.592916 40.164973 
L 179.662442 40.621771 
L 179.665017 40.621771 
L 179.690767 40.727186 
L 179.752567 41.008292 
L 179.793768 40.692047 
L 179.796343 40.692047 
L 180.017795 39.075687 
L 180.02037 39.110825 
L 180.190321 40.727186 
L 180.259847 41.183983 
L 180.344822 40.129835 
L 180.409198 40.02442 
L 180.465848 39.848729 
L 180.501899 40.164973 
L 180.507049 40.164973 
L 180.558549 40.551494 
L 180.622925 40.340665 
L 180.751676 39.462208 
L 180.790301 39.532484 
L 180.960252 40.481218 
L 180.831501 39.497346 
L 180.967977 40.446079 
L 181.094153 38.548613 
L 181.140504 38.759442 
L 181.387706 40.938015 
L 181.398006 40.762324 
L 181.547357 39.673037 
L 181.614308 39.778452 
L 181.658083 40.164973 
L 181.727609 39.848729 
L 181.820309 38.935134 
L 181.86151 39.145963 
L 181.974811 39.602761 
L 181.900135 38.970272 
L 181.982536 39.497346 
L 182.039186 39.286516 
L 182.064936 39.743314 
L 182.077812 39.708176 
L 182.129312 40.129835 
L 182.178237 39.602761 
L 182.180812 39.602761 
L 182.232313 38.970272 
L 182.301838 39.321655 
L 182.52844 41.113707 
L 182.317289 39.286516 
L 182.53359 41.008292 
L 182.556765 41.113707 
L 182.664916 40.446079 
L 182.675216 40.340665 
L 182.752467 39.356793 
L 182.814268 39.567623 
L 182.860618 39.497346 
L 182.881218 39.708176 
L 182.914693 39.673037 
L 182.955894 39.883867 
L 182.999669 39.040548 
L 183.002244 39.075687 
L 183.048595 38.408059 
L 183.100095 39.251378 
L 183.12842 39.356793 
L 183.182496 38.970272 
L 183.257171 39.883867 
L 183.262321 39.989282 
L 183.318972 40.692047 
L 183.380772 40.129835 
L 183.494073 38.970272 
L 183.522398 39.251378 
L 183.656299 40.340665 
L 183.6872 40.059558 
L 183.795351 39.883867 
L 183.800501 39.954144 
L 183.821101 39.919005 
L 183.913802 38.654027 
L 183.949852 38.899995 
L 184.076028 37.880985 
L 184.112078 38.19723 
L 184.119803 38.232368 
L 184.251129 39.637899 
L 184.261429 39.567623 
L 184.29233 39.462208 
L 184.36443 38.899995 
L 184.408206 39.391931 
L 184.459706 39.778452 
L 184.500906 39.356793 
L 184.516357 39.427069 
L 184.621932 38.232368 
L 184.529232 39.462208 
L 184.657983 38.513474 
L 184.724933 38.829719 
L 184.773859 38.618889 
L 184.827934 38.478336 
L 184.856259 39.321655 
L 184.997886 40.200112 
L 185.018486 40.02442 
L 185.245088 38.091815 
L 185.255388 38.267506 
L 185.440789 39.637899 
L 185.456239 39.497346 
L 185.58499 38.794581 
L 185.608166 38.864857 
L 185.610741 38.935134 
L 185.687991 38.232368 
L 185.698291 38.337783 
L 185.708591 38.232368 
L 185.734342 38.443198 
L 185.803867 38.408059 
L 185.834767 38.443198 
L 185.922318 39.567623 
L 185.963518 39.21624 
L 186.094845 37.810709 
L 186.172095 37.353911 
L 186.208145 37.670156 
L 186.427022 39.954144 
L 186.465648 39.743314 
L 186.586674 38.478336 
L 186.617574 38.618889 
L 186.633024 38.689166 
L 186.676799 38.091815 
L 186.718 38.337783 
L 186.772075 38.126953 
L 186.844176 38.548613 
L 186.975502 37.213358 
L 187.027002 37.529603 
L 187.196954 38.759442 
L 187.222704 38.689166 
L 187.227854 38.759442 
L 187.256179 39.00541 
L 187.32313 38.337783 
L 187.482781 37.143082 
L 187.382355 38.513474 
L 187.503381 37.38905 
L 187.511106 37.494464 
L 187.572907 38.126953 
L 187.642432 37.845847 
L 187.657882 37.740432 
L 187.701658 38.267506 
L 187.748008 37.916124 
L 187.848434 38.408059 
L 187.869034 38.19723 
L 188.059586 36.686284 
L 188.082761 36.756561 
L 188.201212 39.181102 
L 188.260437 38.583751 
L 188.263012 38.618889 
L 188.314513 37.810709 
L 188.317088 37.880985 
L 188.391763 37.248496 
L 188.443264 37.459326 
L 188.54369 37.283635 
L 188.456139 37.564741 
L 188.55914 37.38905 
L 188.56944 37.459326 
L 188.669866 37.916124 
L 188.602915 37.38905 
L 188.687891 37.670156 
L 188.693041 37.599879 
L 188.762566 38.478336 
L 188.767716 38.408059 
L 188.783167 38.654027 
L 188.860417 37.17822 
L 188.896468 36.475454 
L 188.973718 37.037667 
L 189.043244 38.19723 
L 189.115344 37.916124 
L 189.218345 36.510593 
L 189.24152 37.002528 
L 189.367696 39.110825 
L 189.388297 38.970272 
L 189.411472 39.21624 
L 189.457822 38.443198 
L 189.573698 37.037667 
L 189.620048 37.705294 
L 189.725624 38.935134 
L 189.756525 38.759442 
L 189.7591 38.794581 
L 189.8106 38.021538 
L 189.939351 36.932252 
L 189.954801 37.037667 
L 190.109302 38.337783 
L 190.238054 37.845847 
L 190.253504 37.775571 
L 190.323029 37.318773 
L 190.351354 37.9864 
L 190.353929 37.9864 
L 190.474955 38.724304 
L 190.477531 38.689166 
L 190.503281 38.794581 
L 190.541906 38.302645 
L 190.567656 38.408059 
L 190.745333 36.791699 
L 190.783958 36.96739 
L 190.866359 41.289398 
L 191.01571 76.779056 
L 191.252612 88.9369 
L 191.358188 91.818238 
L 191.533289 95.332066 
L 191.741866 98.002575 
L 192.061169 100.883914 
L 192.063744 100.848775 
L 192.135844 101.305573 
L 192.140994 101.270435 
L 192.323821 102.254306 
L 192.344421 102.359721 
L 192.470597 102.921934 
L 192.475747 102.816519 
L 192.568448 103.273316 
L 192.573598 103.238178 
L 192.612223 103.308455 
L 192.730674 103.624699 
L 192.774449 103.694976 
L 192.89805 104.081497 
L 192.931526 104.151773 
L 193.062852 104.713986 
L 193.101477 104.8194 
L 193.214778 105.065368 
L 193.225078 104.995092 
L 193.271428 105.100507 
L 193.379579 105.276198 
L 193.387304 105.24106 
L 193.389879 105.170783 
L 193.474855 105.416751 
L 193.490305 105.416751 
L 193.601031 105.487028 
L 193.709182 105.627581 
L 193.611331 105.451889 
L 193.714332 105.557304 
L 193.809608 105.732996 
L 193.830208 105.697857 
L 193.845658 105.627581 
L 193.922909 105.943825 
L 193.933209 105.908687 
L 193.984709 105.978964 
L 193.987284 106.04924 
L 194.04136 105.873549 
L 194.095435 105.978964 
L 194.175261 106.084378 
L 194.288562 106.295208 
L 194.188136 106.04924 
L 194.296287 106.224931 
L 194.298862 106.189793 
L 194.394138 106.400623 
L 194.396713 106.365485 
L 194.517739 106.435761 
L 194.633615 106.611452 
L 194.695415 106.716867 
L 194.762366 106.892559 
L 194.700565 106.681729 
L 194.808716 106.822282 
L 194.811291 106.85742 
L 194.860216 106.681729 
L 194.914292 106.752006 
L 195.135744 106.681729 
L 195.194969 106.541176 
L 195.23102 106.716867 
L 195.24647 106.681729 
L 195.362346 106.752006 
L 195.457621 106.997974 
L 195.367496 106.716867 
L 195.478222 106.962835 
L 195.503972 106.85742 
L 195.583797 106.997974 
L 195.586372 106.962835 
L 195.686798 107.033112 
L 195.617273 106.892559 
L 195.697098 106.997974 
L 195.805249 106.85742 
L 195.812974 106.927697 
L 196.060176 106.85742 
L 196.065326 106.752006 
L 196.132277 106.892559 
L 196.173477 106.787144 
L 196.351154 106.85742 
L 196.45158 106.997974 
L 196.397504 106.787144 
L 196.464455 106.927697 
L 196.585481 107.06825 
L 196.616381 107.103388 
L 196.703932 106.927697 
L 196.760582 107.033112 
L 196.799207 106.787144 
L 196.804357 106.822282 
L 196.809507 106.892559 
L 196.922808 106.611452 
L 196.925383 106.681729 
L 197.010359 106.506038 
L 197.028384 106.541176 
L 197.09791 106.435761 
L 197.033534 106.576314 
L 197.141685 106.506038 
L 197.249836 106.435761 
L 197.285886 106.330346 
L 197.314212 106.470899 
L 197.360562 106.400623 
L 197.370862 106.470899 
L 197.450688 106.330346 
L 197.468713 106.400623 
L 197.587164 106.224931 
L 197.589739 106.26007 
L 197.664415 106.330346 
L 197.641239 106.154655 
L 197.69789 106.26007 
L 197.70819 106.295208 
L 197.818916 106.119517 
L 197.919342 106.04924 
L 197.955392 105.943825 
L 197.983717 106.084378 
L 198.032643 105.978964 
L 198.148518 106.224931 
L 198.192294 106.119517 
L 198.212894 106.26007 
L 198.256669 106.224931 
L 198.259244 106.26007 
L 198.33392 106.084378 
L 198.35967 106.119517 
L 198.416321 106.014102 
L 198.534772 105.732996 
L 198.545072 105.768134 
L 198.578547 105.83841 
L 198.614597 105.697857 
L 198.653223 105.803272 
L 198.748498 105.627581 
L 198.766524 105.662719 
L 198.861799 105.557304 
L 198.771674 105.697857 
L 198.879824 105.627581 
L 198.982825 105.697857 
L 198.900425 105.557304 
L 198.987975 105.627581 
L 199.080676 105.592442 
L 199.026601 105.732996 
L 199.093551 105.697857 
L 199.119301 105.732996 
L 199.191402 105.522166 
L 199.196552 105.592442 
L 199.333028 105.522166 
L 199.366503 105.381613 
L 199.443754 105.451889 
L 199.448904 105.522166 
L 199.546755 105.276198 
L 199.54933 105.311336 
L 199.654906 105.381613 
L 199.57508 105.24106 
L 199.660056 105.311336 
L 199.938158 105.381613 
L 199.958758 105.451889 
L 200.020559 105.276198 
L 200.048884 105.416751 
L 200.13901 105.346475 
L 200.097809 105.487028 
L 200.15961 105.416751 
L 200.252311 105.487028 
L 200.293511 105.592442 
L 200.316686 105.451889 
L 200.363037 105.487028 
L 200.576763 105.381613 
L 200.633414 105.311336 
L 200.643714 105.487028 
L 200.684914 105.416751 
L 200.746715 105.522166 
L 200.74929 105.557304 
L 200.798215 105.381613 
L 200.847141 105.416751 
L 200.906366 105.311336 
L 200.867741 105.451889 
L 200.957867 105.381613 
L 201.060867 105.416751 
L 200.968167 105.311336 
L 201.068592 105.381613 
L 201.174168 105.205921 
L 201.181893 105.311336 
L 201.282319 105.170783 
L 201.297769 105.24106 
L 201.557846 105.135645 
L 201.650547 105.100507 
L 201.619647 105.205921 
L 201.665997 105.170783 
L 201.756123 105.100507 
L 201.856549 105.03023 
L 201.812774 105.135645 
L 201.866849 105.065368 
L 201.897749 105.170783 
L 201.926074 105.03023 
L 201.977575 105.100507 
L 202.165551 104.995092 
L 202.168126 104.959954 
L 202.258252 105.135645 
L 202.271127 105.065368 
L 202.309753 105.24106 
L 202.384428 105.135645 
L 202.484854 104.924815 
L 202.505454 104.959954 
L 202.508029 104.995092 
L 202.598155 104.784262 
L 202.60588 104.8194 
L 202.811882 104.749124 
L 202.909733 104.573432 
L 202.845357 104.784262 
L 202.927758 104.608571 
L 203.100284 104.713986 
L 203.223885 104.889677 
L 203.283111 104.784262 
L 203.332036 104.889677 
L 203.334611 104.959954 
L 203.355211 104.784262 
L 203.440187 104.889677 
L 203.545763 104.8194 
L 203.494262 104.959954 
L 203.553488 104.854539 
L 203.86764 104.889677 
L 203.87279 105.03023 
L 203.929441 104.854539 
L 203.978366 104.924815 
L 204.065917 104.8194 
L 204.091667 104.995092 
L 204.184368 104.854539 
L 204.204968 104.889677 
L 204.256469 104.995092 
L 204.246169 104.854539 
L 204.313119 104.854539 
L 204.423845 104.784262 
L 204.534571 104.643709 
L 204.444445 104.8194 
L 204.537146 104.678847 
L 204.591221 104.713986 
L 204.570621 104.608571 
L 204.642722 104.643709 
L 204.668472 104.573432 
L 204.712247 104.749124 
L 204.748298 104.678847 
L 204.750873 104.784262 
L 204.815248 104.643709 
L 204.856449 104.643709 
L 204.925974 104.608571 
L 204.943999 104.784262 
L 204.964599 104.678847 
L 205.0882 104.573432 
L 205.150001 104.503156 
L 205.095926 104.643709 
L 205.196351 104.608571 
L 205.363728 104.503156 
L 205.435828 104.432879 
L 205.410078 104.573432 
L 205.477029 104.468018 
L 205.806631 104.538294 
L 205.896757 104.678847 
L 205.824657 104.503156 
L 205.917357 104.608571 
L 205.935382 104.573432 
L 205.997183 104.713986 
L 206.022933 104.678847 
L 206.22636 104.573432 
L 206.27786 104.643709 
L 206.347386 104.432879 
L 206.476137 104.362603 
L 206.481287 104.257188 
L 206.566263 104.468018 
L 206.584288 104.362603 
L 206.671838 104.468018 
L 206.689864 104.327465 
L 206.697589 104.432879 
L 206.710464 104.397741 
L 206.749089 104.538294 
L 206.80574 104.468018 
L 207.096717 104.362603 
L 207.194568 104.327465 
L 207.150792 104.468018 
L 207.204868 104.397741 
L 207.544771 104.292326 
L 207.650346 104.22205 
L 207.552496 104.362603 
L 207.655497 104.292326 
L 208.028875 104.22205 
L 208.11385 104.116635 
L 208.08295 104.257188 
L 208.139601 104.186911 
L 208.170501 104.292326 
L 208.232301 104.116635 
L 208.250326 104.22205 
L 208.258051 104.151773 
L 208.283802 104.257188 
L 208.358477 104.257188 
L 208.433153 104.362603 
L 208.440878 104.292326 
L 208.546454 104.397741 
L 208.577354 104.327465 
L 208.65203 104.468018 
L 208.65718 104.397741 
L 208.70353 104.432879 
L 208.785931 104.538294 
L 208.721555 104.397741 
L 208.811681 104.432879 
L 208.894082 104.397741 
L 208.847731 104.503156 
L 208.919832 104.468018 
L 208.927557 104.432879 
L 209.033133 104.538294 
L 209.143859 104.432879 
L 209.25201 104.538294 
L 209.151584 104.397741 
L 209.25716 104.468018 
L 209.26746 104.397741 
L 209.32411 104.573432 
L 209.357586 104.573432 
L 209.398786 104.608571 
L 209.439986 104.468018 
L 209.465736 104.538294 
L 209.478612 104.573432 
L 209.586762 104.397741 
L 209.620238 104.503156 
L 209.661438 104.327465 
L 209.694913 104.397741 
L 209.767014 104.22205 
L 209.700063 104.468018 
L 209.813364 104.257188 
L 209.828814 104.292326 
L 209.88804 104.151773 
L 209.921515 104.22205 
L 210.027091 104.116635 
L 209.957565 104.292326 
L 210.032241 104.22205 
L 210.225368 104.327465 
L 210.333519 104.397741 
L 210.336094 104.362603 
L 210.449394 104.22205 
L 210.354119 104.397741 
L 210.451969 104.292326 
L 210.51892 104.257188 
L 210.629646 104.081497 
L 210.54467 104.292326 
L 210.632221 104.116635 
L 210.732647 103.976082 
L 210.750672 104.01122 
L 210.843373 104.116635 
L 210.930923 104.01122 
L 210.961824 104.22205 
L 210.997874 104.081497 
L 211.049374 104.257188 
L 211.080275 104.116635 
L 211.273401 104.186911 
L 211.306877 104.257188 
L 211.350652 104.116635 
L 211.381552 104.186911 
L 211.412452 104.22205 
L 211.502578 104.046358 
L 211.546353 103.976082 
L 211.618454 104.116635 
L 211.651929 103.976082 
L 211.72918 104.081497 
L 211.778105 103.976082 
L 211.839906 104.151773 
L 211.875956 104.01122 
L 211.950632 104.046358 
L 212.004707 104.01122 
L 212.071658 104.186911 
L 212.154058 104.081497 
L 212.241609 103.905805 
L 212.166934 104.151773 
L 212.272509 103.940944 
L 212.285385 104.01122 
L 212.362635 103.80039 
L 212.372935 103.80039 
L 212.432161 103.765252 
L 212.39611 103.870667 
L 212.481086 103.80039 
L 212.509411 103.765252 
L 212.591812 103.870667 
L 212.594387 103.80039 
L 212.658763 103.940944 
L 212.702538 103.835529 
L 212.756613 104.01122 
L 212.810689 103.80039 
L 212.813264 103.835529 
L 212.89824 103.730114 
L 213.003815 103.694976 
L 212.905965 103.80039 
L 213.00639 103.730114 
L 213.057891 103.835529 
L 213.093941 103.624699 
L 213.114541 103.694976 
L 213.171192 103.589561 
L 213.158317 103.730114 
L 213.225267 103.659837 
L 213.245867 103.589561 
L 213.338568 103.694976 
L 213.377194 103.765252 
L 213.451869 103.624699 
L 213.526545 103.870667 
L 213.567745 103.835529 
L 213.603795 103.80039 
L 213.652721 103.976082 
L 213.673321 103.905805 
L 213.959148 103.80039 
L 214.018374 103.765252 
L 213.979748 103.905805 
L 214.064724 103.870667 
L 214.067299 103.940944 
L 214.16515 103.694976 
L 214.1703 103.730114 
L 214.19605 103.624699 
L 214.247551 103.765252 
L 214.281026 103.659837 
L 214.389177 103.765252 
L 214.391752 103.694976 
L 214.474153 103.624699 
L 214.399477 103.730114 
L 214.505053 103.659837 
L 214.690454 103.730114 
L 214.73938 103.905805 
L 214.80118 103.730114 
L 214.80633 103.80039 
L 214.82178 103.624699 
L 214.906756 103.659837 
L 216.019165 103.554422 
L 216.098991 103.659837 
L 216.135041 103.484146 
L 216.150491 103.449008 
L 216.256067 103.624699 
L 216.286967 103.659837 
L 216.371943 103.554422 
L 216.451769 103.659837 
L 216.513569 103.694976 
L 216.539319 103.554422 
L 216.55992 103.624699 
L 217.005398 103.519284 
L 217.010548 103.484146 
L 217.092949 103.659837 
L 217.108399 103.554422 
L 217.203675 103.730114 
L 217.2217 103.694976 
L 217.229425 103.589561 
L 217.314401 103.765252 
L 217.329851 103.730114 
L 217.438002 103.80039 
L 217.440577 103.870667 
L 217.507527 103.589561 
L 217.541003 103.624699 
L 217.582203 103.694976 
L 217.654304 103.554422 
L 217.692929 103.659837 
L 217.721254 103.519284 
L 217.76503 103.589561 
L 217.85258 103.554422 
L 217.839705 103.694976 
L 217.870605 103.659837 
L 218.187333 103.589561 
L 218.267159 103.413869 
L 218.197633 103.624699 
L 218.300634 103.449008 
L 218.352134 103.484146 
L 218.398485 103.343593 
L 218.41136 103.449008 
L 218.800188 103.449008 
L 218.903189 103.694976 
L 218.913489 103.659837 
L 218.975289 103.694976 
L 219.01649 103.554422 
L 219.02164 103.624699 
L 219.122066 103.413869 
L 219.134941 103.484146 
L 219.225067 103.343593 
L 219.248242 103.413869 
L 219.253392 103.519284 
L 219.263692 103.378731 
L 219.358968 103.413869 
L 219.446518 103.343593 
L 219.449093 103.273316 
L 219.500594 103.413869 
L 219.557244 103.343593 
L 219.812171 103.449008 
L 219.814746 103.484146 
L 219.840497 103.378731 
L 219.920322 103.449008 
L 219.974398 103.308455 
L 220.033623 103.343593 
L 220.077399 103.413869 
L 220.100574 103.238178 
L 220.141774 103.308455 
L 220.296275 103.20304 
L 220.345201 103.062487 
L 220.304 103.238178 
L 220.404426 103.238178 
L 220.407001 103.273316 
L 220.448202 103.132763 
L 220.510002 103.167901 
L 220.548627 103.062487 
L 220.633603 102.921934 
L 220.574378 103.132763 
L 220.661928 103.027348 
L 220.790679 102.921934 
L 220.80613 102.957072 
L 220.91428 102.746242 
L 220.932306 102.816519 
L 221.012131 102.675966 
L 221.022431 102.711104 
L 221.140882 102.816519 
L 221.254183 103.027348 
L 221.264483 102.99221 
L 221.50911 103.027348 
L 221.576061 103.167901 
L 221.619836 103.097625 
L 221.681637 102.99221 
L 221.727987 103.097625 
L 221.794938 102.921934 
L 221.879913 103.027348 
L 221.908239 102.957072 
L 221.954589 102.886795 
L 222.003514 103.027348 
L 222.018964 102.957072 
L 222.142565 103.167901 
L 222.248141 103.027348 
L 222.186341 103.20304 
L 222.255866 103.062487 
L 222.338267 103.132763 
L 222.394918 103.238178 
L 222.379467 103.097625 
L 222.446418 103.132763 
L 222.551994 102.921934 
L 222.567444 102.99221 
L 222.582894 103.062487 
L 222.590619 102.957072 
L 222.675595 102.957072 
L 222.768296 102.851657 
L 222.812071 102.711104 
L 222.871296 102.886795 
L 222.876447 102.851657 
L 222.891897 102.886795 
L 222.951122 102.675966 
L 222.979447 102.746242 
L 223.208624 102.816519 
L 223.30905 102.99221 
L 223.3245 102.957072 
L 223.365701 103.027348 
L 223.414626 102.886795 
L 223.435226 102.99221 
L 223.558827 102.78138 
L 223.659253 102.886795 
L 223.625778 102.746242 
L 223.669553 102.816519 
L 223.741654 102.921934 
L 223.847229 102.957072 
L 223.780279 102.851657 
L 223.85238 102.921934 
L 223.983706 102.99221 
L 224.022331 102.957072 
L 224.097007 103.062487 
L 224.181982 102.851657 
L 224.220608 102.886795 
L 224.230908 102.957072 
L 224.295283 102.78138 
L 224.333908 102.921934 
L 224.344209 102.921934 
L 224.346784 102.78138 
L 224.434334 102.99221 
L 224.452359 102.99221 
L 224.684111 103.062487 
L 224.686686 103.132763 
L 224.725312 102.99221 
L 224.792262 103.062487 
L 224.797412 102.99221 
L 224.856638 103.132763 
L 224.900413 103.097625 
L 224.951914 103.20304 
L 224.905563 103.062487 
L 225.011139 103.132763 
L 225.047189 103.167901 
L 225.12959 102.957072 
L 225.232591 103.132763 
L 225.245466 103.097625 
L 225.361342 103.238178 
L 225.255766 103.062487 
L 225.363917 103.20304 
L 225.634294 103.308455 
L 225.636869 103.343593 
L 225.726995 103.132763 
L 225.73472 103.167901 
L 225.925272 103.273316 
L 226.023122 103.343593 
L 225.932997 103.20304 
L 226.035997 103.273316 
L 226.383625 103.378731 
L 226.448001 103.308455 
L 226.496926 103.449008 
L 226.540702 103.413869 
L 226.574177 103.519284 
L 226.602502 103.484146 
L 226.669453 103.589561 
L 226.697778 103.449008 
L 226.713228 103.484146 
L 226.826529 103.343593 
L 226.831679 103.378731 
L 226.875454 103.413869 
L 226.91408 103.238178 
L 226.932105 103.238178 
L 227.00678 103.132763 
L 227.094331 103.027348 
L 227.037681 103.167901 
L 227.120081 103.097625 
L 227.223082 103.167901 
L 227.302908 103.097625 
L 227.336383 103.238178 
L 227.349258 103.20304 
L 227.382733 103.308455 
L 227.439384 103.308455 
L 227.457409 103.238178 
L 227.552685 103.343593 
L 227.673711 103.20304 
L 227.676286 103.238178 
L 227.694311 103.062487 
L 227.771562 103.132763 
L 227.879713 103.027348 
L 227.823062 103.167901 
L 227.882288 103.062487 
L 228.003314 103.20304 
L 228.546643 103.097625 
L 228.657369 102.957072 
L 228.569818 103.167901 
L 228.662519 103.027348 
L 229.646177 102.921934 
L 229.759478 102.746242 
L 229.661627 102.957072 
L 229.767203 102.78138 
L 229.872779 102.711104 
L 229.883079 102.78138 
L 229.983505 102.640827 
L 230.099381 102.78138 
L 230.101956 102.746242 
L 230.199807 102.711104 
L 230.163756 102.816519 
L 230.207532 102.78138 
L 230.210107 102.816519 
L 230.271907 102.605689 
L 230.305382 102.675966 
L 230.421258 102.465136 
L 230.534559 102.570551 
L 230.539709 102.500274 
L 230.562885 102.675966 
L 230.64271 102.535413 
L 230.756011 102.675966 
L 230.828112 102.570551 
L 230.771461 102.711104 
L 230.866737 102.605689 
L 230.925963 102.675966 
L 230.954288 102.570551 
L 230.977463 102.605689 
L 231.031538 102.535413 
L 231.108789 102.394859 
L 231.144839 102.465136 
L 231.234965 102.359721 
L 231.168015 102.500274 
L 231.260715 102.394859 
L 231.27874 102.324583 
L 231.381741 102.570551 
L 231.443542 102.500274 
L 231.474442 102.640827 
L 231.489892 102.605689 
L 231.605768 102.816519 
L 231.713919 102.746242 
L 231.613493 102.886795 
L 231.716494 102.78138 
L 231.721644 102.816519 
L 231.77057 102.605689 
L 231.819495 102.675966 
L 231.860695 102.570551 
L 231.886445 102.711104 
L 231.927646 102.675966 
L 231.968846 102.816519 
L 232.038372 102.78138 
L 232.102747 102.570551 
L 232.154248 102.711104 
L 232.241798 102.640827 
L 232.331924 102.465136 
L 232.355099 102.535413 
L 232.419475 102.570551 
L 232.42205 102.675966 
L 232.445225 102.465136 
L 232.530201 102.570551 
L 232.640927 102.675966 
L 232.535351 102.535413 
L 232.646077 102.640827 
L 232.772253 102.429998 
L 232.785128 102.535413 
L 232.834053 102.324583 
L 232.880404 102.429998 
L 232.98598 102.113753 
L 232.99628 102.18403 
L 233.101855 102.008338 
L 233.114731 102.078615 
L 233.364508 102.18403 
L 233.472658 102.289445 
L 233.480384 102.254306 
L 233.508709 102.219168 
L 233.500984 102.324583 
L 233.585959 102.289445 
L 233.62201 102.324583 
L 233.67351 102.148891 
L 233.68896 102.18403 
L 233.761061 102.18403 
L 233.763636 102.043477 
L 233.809986 102.254306 
L 233.869212 102.254306 
L 233.894962 102.18403 
L 233.905262 102.324583 
L 233.979938 102.254306 
L 234.193664 102.359721 
L 234.296665 102.500274 
L 234.203965 102.324583 
L 234.306965 102.429998 
L 234.404816 102.324583 
L 234.512967 102.254306 
L 234.422841 102.394859 
L 234.518117 102.289445 
L 234.84772 102.359721 
L 234.850295 102.429998 
L 234.881195 102.289445 
L 234.958446 102.394859 
L 234.973896 102.359721 
L 235.058872 102.500274 
L 235.061447 102.465136 
L 235.094922 102.535413 
L 235.159297 102.394859 
L 235.172172 102.465136 
L 235.267448 102.359721 
L 235.272598 102.429998 
L 235.385899 102.254306 
L 235.465725 102.324583 
L 235.4683 102.394859 
L 235.548126 102.219168 
L 235.573876 102.254306 
L 235.602201 102.219168 
L 235.633101 102.359721 
L 235.676877 102.359721 
L 235.746402 102.289445 
L 235.828803 102.219168 
L 235.779877 102.359721 
L 235.857128 102.289445 
L 235.880303 102.18403 
L 235.882878 102.148891 
L 235.942104 102.359721 
L 235.980729 102.254306 
L 236.050255 102.359721 
L 236.091455 102.324583 
L 236.11978 102.289445 
L 236.15068 102.429998 
L 236.197031 102.394859 
L 236.263981 102.324583 
L 236.300032 102.394859 
L 236.377282 102.254306 
L 236.500883 102.148891 
L 236.606459 102.113753 
L 236.511183 102.18403 
L 236.609034 102.148891 
L 236.65796 102.078615 
L 236.722335 102.219168 
L 236.825336 102.008338 
L 236.835636 102.078615 
L 236.954087 101.9732 
L 237.124038 101.867785 
L 237.134339 101.832647 
L 237.167814 102.008338 
L 237.232189 101.867785 
L 237.26309 101.832647 
L 237.34549 101.938062 
L 237.433041 101.832647 
L 237.458791 101.867785 
L 237.574667 102.113753 
L 237.582392 102.078615 
L 237.602992 102.008338 
L 237.667368 102.254306 
L 237.677668 102.254306 
L 237.718868 102.359721 
L 237.775519 102.148891 
L 237.785819 102.18403 
L 237.89912 102.043477 
L 237.834744 102.219168 
L 237.90427 102.078615 
L 238.264773 102.18403 
L 238.269923 102.254306 
L 238.326573 102.113753 
L 238.378074 102.219168 
L 238.602101 102.148891 
L 238.687076 102.043477 
L 238.715402 102.078615 
L 238.996079 101.9732 
L 239.006379 102.008338 
L 239.111955 101.867785 
L 239.217531 101.938062 
L 239.19693 101.797509 
L 239.225256 101.902924 
L 239.554858 101.797509 
L 239.644984 101.727232 
L 239.560008 101.867785 
L 239.668159 101.76237 
L 239.691335 101.797509 
L 239.72996 101.656956 
L 239.773735 101.692094 
L 239.809786 101.621817 
L 239.814936 101.551541 
L 239.874161 101.692094 
L 239.920511 101.621817 
L 239.977162 101.76237 
L 239.948837 101.586679 
L 240.036387 101.692094 
L 240.121363 101.621817 
L 240.136813 101.76237 
L 240.144538 101.727232 
L 240.232089 101.832647 
L 240.31964 101.9732 
L 240.239814 101.797509 
L 240.34539 101.902924 
L 240.35054 101.9732 
L 240.430366 101.76237 
L 240.445816 101.797509 
L 240.561692 101.516403 
L 240.453541 101.867785 
L 240.571992 101.586679 
L 240.947945 101.481264 
L 241.040646 101.375849 
L 240.96597 101.551541 
L 241.061246 101.410988 
L 241.156522 101.586679 
L 241.177122 101.551541 
L 241.267247 101.446126 
L 241.287848 101.375849 
L 241.316173 101.516403 
L 241.377973 101.410988 
L 241.395999 101.340711 
L 241.498999 101.586679 
L 241.56595 101.481264 
L 241.5917 101.621817 
L 241.609725 101.586679 
L 241.764227 101.692094 
L 241.877528 101.867785 
L 241.784827 101.621817 
L 241.882678 101.832647 
L 241.900703 101.76237 
L 241.944478 101.938062 
L 241.990828 101.867785 
L 242.104129 101.9732 
L 242.029454 101.832647 
L 242.106704 101.938062 
L 242.189105 101.797509 
L 242.22258 101.867785 
L 242.549608 101.9732 
L 242.572783 101.938062 
L 242.665484 102.113753 
L 242.688659 102.008338 
L 242.714409 102.18403 
L 242.77621 102.078615 
L 242.894661 102.219168 
L 243.007962 102.078615 
L 243.116113 102.219168 
L 243.123838 102.18403 
L 243.139288 102.113753 
L 243.154738 102.219168 
L 243.234564 102.148891 
L 243.314389 102.289445 
L 243.35044 102.254306 
L 243.42769 102.148891 
L 243.45859 102.254306 
L 243.574466 102.394859 
L 243.476616 102.219168 
L 243.577041 102.359721 
L 243.607942 102.289445 
L 243.610517 102.219168 
L 243.710943 102.429998 
L 243.716093 102.324583 
L 243.749568 102.429998 
L 243.754718 102.289445 
L 243.826819 102.359721 
L 243.865444 102.394859 
L 243.945269 102.254306 
L 244.084321 102.148891 
L 244.192472 102.043477 
L 244.097196 102.254306 
L 244.197622 102.113753 
L 244.406198 102.008338 
L 244.475724 101.9732 
L 244.431948 102.113753 
L 244.506624 102.078615 
L 244.509199 102.148891 
L 244.545249 102.008338 
L 244.61735 102.078615 
L 245.044804 102.148891 
L 245.101454 102.254306 
L 245.134929 102.078615 
L 245.155529 102.148891 
L 245.292006 102.219168 
L 245.297156 102.18403 
L 245.405306 102.289445 
L 245.451657 102.394859 
L 245.456807 102.429998 
L 245.461957 102.289445 
L 245.557233 102.324583 
L 245.629333 102.219168 
L 245.660234 102.359721 
L 245.667959 102.324583 
L 245.755509 102.394859 
L 245.778685 102.359721 
L 245.897136 102.148891 
L 245.899711 102.219168 
L 246.309139 102.324583 
L 246.368364 102.429998 
L 246.319439 102.289445 
L 246.42244 102.359721 
L 246.525441 102.254306 
L 246.548616 102.324583 
L 246.643892 102.148891 
L 246.713417 102.219168 
L 246.746892 102.043477 
L 246.752043 102.113753 
L 246.857618 101.902924 
L 246.873069 101.9732 
L 246.983794 102.043477 
L 247.014695 102.18403 
L 247.097095 102.113753 
L 247.212971 102.254306 
L 247.215546 102.219168 
L 247.509099 102.113753 
L 247.630125 101.902924 
L 247.643 102.008338 
L 247.65845 101.797509 
L 247.740851 101.902924 
L 248.392331 101.797509 
L 248.495332 101.692094 
L 248.397481 101.867785 
L 248.508207 101.727232 
L 248.719359 101.797509 
L 248.724509 101.867785 
L 248.757984 101.656956 
L 248.830085 101.797509 
L 248.92021 101.727232 
L 248.876435 101.832647 
L 248.94081 101.797509 
L 249.030936 101.902924 
L 249.123637 102.008338 
L 249.038661 101.867785 
L 249.144237 101.938062 
L 249.44294 102.008338 
L 249.548515 102.254306 
L 249.561391 102.219168 
L 249.618041 102.148891 
L 249.620616 102.078615 
L 249.656666 102.219168 
L 249.726192 102.219168 
L 249.754517 102.254306 
L 249.806018 102.113753 
L 249.831768 102.18403 
L 249.839493 102.219168 
L 249.945069 102.113753 
L 249.963094 102.18403 
L 249.981119 102.078615 
L 250.05837 102.148891 
L 250.153645 102.043477 
L 250.261796 101.902924 
L 250.161371 102.078615 
L 250.266946 101.9732 
L 250.357072 102.078615 
L 250.305572 101.902924 
L 250.375097 101.9732 
L 250.411148 101.902924 
L 250.434323 102.148891 
L 250.483248 101.9732 
L 250.539899 102.113753 
L 250.596549 102.078615 
L 250.812851 102.008338 
L 250.887526 101.867785 
L 250.820576 102.043477 
L 250.923577 101.938062 
L 250.939027 101.9732 
L 250.995677 101.797509 
L 251.024003 101.832647 
L 251.047178 101.867785 
L 251.137304 101.76237 
L 251.178504 101.832647 
L 251.214554 101.656956 
L 251.248029 101.797509 
L 251.250604 101.76237 
L 251.30983 101.9732 
L 251.353605 101.867785 
L 251.88406 101.76237 
L 251.987061 101.621817 
L 251.88921 101.797509 
L 251.997361 101.656956 
L 252.110662 101.76237 
L 252.216237 101.516403 
L 252.226537 101.551541 
L 252.308938 101.656956 
L 252.342413 101.621817 
L 252.440264 101.516403 
L 252.375889 101.656956 
L 252.453139 101.621817 
L 252.49949 101.516403 
L 252.59219 101.375849 
L 252.50979 101.551541 
L 252.615366 101.446126 
L 253.086595 101.516403 
L 253.174145 101.692094 
L 253.20247 101.656956 
L 253.318346 101.481264 
L 253.421347 101.621817 
L 253.336372 101.446126 
L 253.431647 101.516403 
L 253.544948 101.375849 
L 253.477998 101.621817 
L 253.550098 101.410988 
L 253.635074 101.481264 
L 253.560398 101.375849 
L 253.660824 101.446126 
L 253.7664 101.340711 
L 253.774125 101.375849 
L 254.211879 101.446126 
L 254.214454 101.516403 
L 254.294279 101.340711 
L 254.317455 101.340711 
L 254.616157 101.270435 
L 254.688258 101.129881 
L 254.721733 101.305573 
L 254.721733 101.305573 
" clip-path="url(#p464f85bc15)" style="fill: none; stroke: #000000; stroke-opacity: 0.5; stroke-width: 1.5; stroke-linecap: square"/>
   </g>
   <g id="patch_3">
    <path d="M 41.667188 173.52 
L 41.667188 7.2 
" style="fill: none; stroke: #000000; stroke-width: 0.8; stroke-linejoin: miter; stroke-linecap: square"/>
   </g>
   <g id="patch_4">
    <path d="M 41.667188 173.52 
L 264.867187 173.52 
" style="fill: none; stroke: #000000; stroke-width: 0.8; stroke-linejoin: miter; stroke-linecap: square"/>
   </g>
  </g>
 </g>
 <defs>
  <clipPath id="p464f85bc15">
   <rect x="41.667188" y="7.2" width="223.2" height="166.32"/>
  </clipPath>
 </defs>
</svg>
