<?xml version="1.0" encoding="utf-8" standalone="no"?>
<!DOCTYPE svg PUBLIC "-//W3C//DTD SVG 1.1//EN"
  "http://www.w3.org/Graphics/SVG/1.1/DTD/svg11.dtd">
<svg xmlns:xlink="http://www.w3.org/1999/xlink" width="265.704687pt" height="197.398125pt" viewBox="0 0 265.704687 197.398125" xmlns="http://www.w3.org/2000/svg" version="1.1">
 <metadata>
  <rdf:RDF xmlns:dc="http://purl.org/dc/elements/1.1/" xmlns:cc="http://creativecommons.org/ns#" xmlns:rdf="http://www.w3.org/1999/02/22-rdf-syntax-ns#">
   <cc:Work>
    <dc:type rdf:resource="http://purl.org/dc/dcmitype/StillImage"/>
    <dc:date>2025-12-19T11:58:03.935305</dc:date>
    <dc:format>image/svg+xml</dc:format>
    <dc:creator>
     <cc:Agent>
      <dc:title>Matplotlib v3.10.7, https://matplotlib.org/</dc:title>
     </cc:Agent>
    </dc:creator>
   </cc:Work>
  </rdf:RDF>
 </metadata>
 <defs>
  <style type="text/css">*{stroke-linejoin: round; stroke-linecap: butt}</style>
 </defs>
 <g id="figure_1">
  <g id="patch_1">
   <path d="M 0 197.398125 
L 265.704687 197.398125 
L 265.704687 0 
L 0 0 
z
" style="fill: #ffffff"/>
  </g>
  <g id="axes_1">
   <g id="patch_2">
    <path d="M 35.304688 173.52 
L 258.504687 173.52 
L 258.504687 7.2 
L 35.304688 7.2 
z
" style="fill: #ffffff"/>
   </g>
   <g id="matplotlib.axis_1">
    <g id="xtick_1">
     <g id="line2d_1">
      <defs>
       <path id="m9a5ad13d90" d="M 0 0 
L 0 3.5 
" style="stroke: #000000; stroke-width: 0.8"/>
      </defs>
      <g>
       <use xlink:href="#m9a5ad13d90" x="76.350396" y="173.52" style="stroke: #000000; stroke-width: 0.8"/>
      </g>
     </g>
     <g id="text_1">
      <!-- 1 -->
      <g transform="translate(73.169146 188.118438) scale(0.1 -0.1)">
       <defs>
        <path id="DejaVuSans-31" d="M 794 531 
L 1825 531 
L 1825 4091 
L 703 3866 
L 703 4441 
L 1819 4666 
L 2450 4666 
L 2450 531 
L 3481 531 
L 3481 0 
L 794 0 
L 794 531 
z
" transform="scale(0.015625)"/>
       </defs>
       <use xlink:href="#DejaVuSans-31"/>
      </g>
     </g>
    </g>
    <g id="xtick_2">
     <g id="line2d_2">
      <g>
       <use xlink:href="#m9a5ad13d90" x="127.850819" y="173.52" style="stroke: #000000; stroke-width: 0.8"/>
      </g>
     </g>
     <g id="text_2">
      <!-- 2 -->
      <g transform="translate(124.669569 188.118438) scale(0.1 -0.1)">
       <defs>
        <path id="DejaVuSans-32" d="M 1228 531 
L 3431 531 
L 3431 0 
L 469 0 
L 469 531 
Q 828 903 1448 1529 
Q 2069 2156 2228 2338 
Q 2531 2678 2651 2914 
Q 2772 3150 2772 3378 
Q 2772 3750 2511 3984 
Q 2250 4219 1831 4219 
Q 1534 4219 1204 4116 
Q 875 4013 500 3803 
L 500 4441 
Q 881 4594 1212 4672 
Q 1544 4750 1819 4750 
Q 2544 4750 2975 4387 
Q 3406 4025 3406 3419 
Q 3406 3131 3298 2873 
Q 3191 2616 2906 2266 
Q 2828 2175 2409 1742 
Q 1991 1309 1228 531 
z
" transform="scale(0.015625)"/>
       </defs>
       <use xlink:href="#DejaVuSans-32"/>
      </g>
     </g>
    </g>
    <g id="xtick_3">
     <g id="line2d_3">
      <g>
       <use xlink:href="#m9a5ad13d90" x="179.351241" y="173.52" style="stroke: #000000; stroke-width: 0.8"/>
      </g>
     </g>
     <g id="text_3">
      <!-- 3 -->
      <g transform="translate(176.169991 188.118438) scale(0.1 -0.1)">
       <defs>
        <path id="DejaVuSans-33" d="M 2597 2516 
Q 3050 2419 3304 2112 
Q 3559 1806 3559 1356 
Q 3559 666 3084 287 
Q 2609 -91 1734 -91 
Q 1441 -91 1130 -33 
Q 819 25 488 141 
L 488 750 
Q 750 597 1062 519 
Q 1375 441 1716 441 
Q 2309 441 2620 675 
Q 2931 909 2931 1356 
Q 2931 1769 2642 2001 
Q 2353 2234 1838 2234 
L 1294 2234 
L 1294 2753 
L 1863 2753 
Q 2328 2753 2575 2939 
Q 2822 3125 2822 3475 
Q 2822 3834 2567 4026 
Q 2313 4219 1838 4219 
Q 1578 4219 1281 4162 
Q 984 4106 628 3988 
L 628 4550 
Q 988 4650 1302 4700 
Q 1616 4750 1894 4750 
Q 2613 4750 3031 4423 
Q 3450 4097 3450 3541 
Q 3450 3153 3228 2886 
Q 3006 2619 2597 2516 
z
" transform="scale(0.015625)"/>
       </defs>
       <use xlink:href="#DejaVuSans-33"/>
      </g>
     </g>
    </g>
    <g id="xtick_4">
     <g id="line2d_4">
      <g>
       <use xlink:href="#m9a5ad13d90" x="230.851664" y="173.52" style="stroke: #000000; stroke-width: 0.8"/>
      </g>
     </g>
     <g id="text_4">
      <!-- 4 -->
      <g transform="translate(227.670414 188.118438) scale(0.1 -0.1)">
       <defs>
        <path id="DejaVuSans-34" d="M 2419 4116 
L 825 1625 
L 2419 1625 
L 2419 4116 
z
M 2253 4666 
L 3047 4666 
L 3047 1625 
L 3713 1625 
L 3713 1100 
L 3047 1100 
L 3047 0 
L 2419 0 
L 2419 1100 
L 313 1100 
L 313 1709 
L 2253 4666 
z
" transform="scale(0.015625)"/>
       </defs>
       <use xlink:href="#DejaVuSans-34"/>
      </g>
     </g>
    </g>
   </g>
   <g id="matplotlib.axis_2">
    <g id="ytick_1">
     <g id="line2d_5">
      <defs>
       <path id="mfc3db52ef3" d="M 0 0 
L -3.5 0 
" style="stroke: #000000; stroke-width: 0.8"/>
      </defs>
      <g>
       <use xlink:href="#mfc3db52ef3" x="35.304688" y="159.993708" style="stroke: #000000; stroke-width: 0.8"/>
      </g>
     </g>
     <g id="text_5">
      <!-- −80 -->
      <g transform="translate(7.2 163.792927) scale(0.1 -0.1)">
       <defs>
        <path id="DejaVuSans-2212" d="M 678 2272 
L 4684 2272 
L 4684 1741 
L 678 1741 
L 678 2272 
z
" transform="scale(0.015625)"/>
        <path id="DejaVuSans-38" d="M 2034 2216 
Q 1584 2216 1326 1975 
Q 1069 1734 1069 1313 
Q 1069 891 1326 650 
Q 1584 409 2034 409 
Q 2484 409 2743 651 
Q 3003 894 3003 1313 
Q 3003 1734 2745 1975 
Q 2488 2216 2034 2216 
z
M 1403 2484 
Q 997 2584 770 2862 
Q 544 3141 544 3541 
Q 544 4100 942 4425 
Q 1341 4750 2034 4750 
Q 2731 4750 3128 4425 
Q 3525 4100 3525 3541 
Q 3525 3141 3298 2862 
Q 3072 2584 2669 2484 
Q 3125 2378 3379 2068 
Q 3634 1759 3634 1313 
Q 3634 634 3220 271 
Q 2806 -91 2034 -91 
Q 1263 -91 848 271 
Q 434 634 434 1313 
Q 434 1759 690 2068 
Q 947 2378 1403 2484 
z
M 1172 3481 
Q 1172 3119 1398 2916 
Q 1625 2713 2034 2713 
Q 2441 2713 2670 2916 
Q 2900 3119 2900 3481 
Q 2900 3844 2670 4047 
Q 2441 4250 2034 4250 
Q 1625 4250 1398 4047 
Q 1172 3844 1172 3481 
z
" transform="scale(0.015625)"/>
        <path id="DejaVuSans-30" d="M 2034 4250 
Q 1547 4250 1301 3770 
Q 1056 3291 1056 2328 
Q 1056 1369 1301 889 
Q 1547 409 2034 409 
Q 2525 409 2770 889 
Q 3016 1369 3016 2328 
Q 3016 3291 2770 3770 
Q 2525 4250 2034 4250 
z
M 2034 4750 
Q 2819 4750 3233 4129 
Q 3647 3509 3647 2328 
Q 3647 1150 3233 529 
Q 2819 -91 2034 -91 
Q 1250 -91 836 529 
Q 422 1150 422 2328 
Q 422 3509 836 4129 
Q 1250 4750 2034 4750 
z
" transform="scale(0.015625)"/>
       </defs>
       <use xlink:href="#DejaVuSans-2212"/>
       <use xlink:href="#DejaVuSans-38" transform="translate(83.789062 0)"/>
       <use xlink:href="#DejaVuSans-30" transform="translate(147.412109 0)"/>
      </g>
     </g>
    </g>
    <g id="ytick_2">
     <g id="line2d_6">
      <g>
       <use xlink:href="#mfc3db52ef3" x="35.304688" y="136.087693" style="stroke: #000000; stroke-width: 0.8"/>
      </g>
     </g>
     <g id="text_6">
      <!-- −60 -->
      <g transform="translate(7.2 139.886912) scale(0.1 -0.1)">
       <defs>
        <path id="DejaVuSans-36" d="M 2113 2584 
Q 1688 2584 1439 2293 
Q 1191 2003 1191 1497 
Q 1191 994 1439 701 
Q 1688 409 2113 409 
Q 2538 409 2786 701 
Q 3034 994 3034 1497 
Q 3034 2003 2786 2293 
Q 2538 2584 2113 2584 
z
M 3366 4563 
L 3366 3988 
Q 3128 4100 2886 4159 
Q 2644 4219 2406 4219 
Q 1781 4219 1451 3797 
Q 1122 3375 1075 2522 
Q 1259 2794 1537 2939 
Q 1816 3084 2150 3084 
Q 2853 3084 3261 2657 
Q 3669 2231 3669 1497 
Q 3669 778 3244 343 
Q 2819 -91 2113 -91 
Q 1303 -91 875 529 
Q 447 1150 447 2328 
Q 447 3434 972 4092 
Q 1497 4750 2381 4750 
Q 2619 4750 2861 4703 
Q 3103 4656 3366 4563 
z
" transform="scale(0.015625)"/>
       </defs>
       <use xlink:href="#DejaVuSans-2212"/>
       <use xlink:href="#DejaVuSans-36" transform="translate(83.789062 0)"/>
       <use xlink:href="#DejaVuSans-30" transform="translate(147.412109 0)"/>
      </g>
     </g>
    </g>
    <g id="ytick_3">
     <g id="line2d_7">
      <g>
       <use xlink:href="#mfc3db52ef3" x="35.304688" y="112.181679" style="stroke: #000000; stroke-width: 0.8"/>
      </g>
     </g>
     <g id="text_7">
      <!-- −40 -->
      <g transform="translate(7.2 115.980898) scale(0.1 -0.1)">
       <use xlink:href="#DejaVuSans-2212"/>
       <use xlink:href="#DejaVuSans-34" transform="translate(83.789062 0)"/>
       <use xlink:href="#DejaVuSans-30" transform="translate(147.412109 0)"/>
      </g>
     </g>
    </g>
    <g id="ytick_4">
     <g id="line2d_8">
      <g>
       <use xlink:href="#mfc3db52ef3" x="35.304688" y="88.275665" style="stroke: #000000; stroke-width: 0.8"/>
      </g>
     </g>
     <g id="text_8">
      <!-- −20 -->
      <g transform="translate(7.2 92.074883) scale(0.1 -0.1)">
       <use xlink:href="#DejaVuSans-2212"/>
       <use xlink:href="#DejaVuSans-32" transform="translate(83.789062 0)"/>
       <use xlink:href="#DejaVuSans-30" transform="translate(147.412109 0)"/>
      </g>
     </g>
    </g>
    <g id="ytick_5">
     <g id="line2d_9">
      <g>
       <use xlink:href="#mfc3db52ef3" x="35.304688" y="64.36965" style="stroke: #000000; stroke-width: 0.8"/>
      </g>
     </g>
     <g id="text_9">
      <!-- 0 -->
      <g transform="translate(21.942187 68.168869) scale(0.1 -0.1)">
       <use xlink:href="#DejaVuSans-30"/>
      </g>
     </g>
    </g>
    <g id="ytick_6">
     <g id="line2d_10">
      <g>
       <use xlink:href="#mfc3db52ef3" x="35.304688" y="40.463636" style="stroke: #000000; stroke-width: 0.8"/>
      </g>
     </g>
     <g id="text_10">
      <!-- 20 -->
      <g transform="translate(15.579687 44.262855) scale(0.1 -0.1)">
       <use xlink:href="#DejaVuSans-32"/>
       <use xlink:href="#DejaVuSans-30" transform="translate(63.623047 0)"/>
      </g>
     </g>
    </g>
    <g id="ytick_7">
     <g id="line2d_11">
      <g>
       <use xlink:href="#mfc3db52ef3" x="35.304688" y="16.557621" style="stroke: #000000; stroke-width: 0.8"/>
      </g>
     </g>
     <g id="text_11">
      <!-- 40 -->
      <g transform="translate(15.579687 20.35684) scale(0.1 -0.1)">
       <use xlink:href="#DejaVuSans-34"/>
       <use xlink:href="#DejaVuSans-30" transform="translate(63.623047 0)"/>
      </g>
     </g>
    </g>
   </g>
   <g id="line2d_12">
    <path d="M 45.450142 147.319903 
L 45.617518 147.283426 
L 45.684469 147.173993 
L 45.692194 147.319903 
L 45.728244 147.246948 
L 45.805495 147.392859 
L 45.841545 147.319903 
L 45.908496 147.283426 
L 45.85442 147.392859 
L 45.944546 147.392859 
L 45.970296 147.283426 
L 46.055272 147.465814 
L 46.070722 147.319903 
L 46.142823 147.53877 
L 46.165998 147.465814 
L 46.171148 147.429337 
L 46.284449 147.611725 
L 46.374575 147.465814 
L 46.395175 147.502292 
L 47.430333 147.465814 
L 47.435483 147.319903 
L 47.471534 147.502292 
L 47.541059 147.465814 
L 48.048338 147.356381 
L 48.215715 146.553872 
L 48.22859 146.59035 
L 48.29554 146.335006 
L 48.321291 146.480917 
L 48.403691 146.371484 
L 48.406266 146.335006 
L 48.486092 146.517394 
L 48.509267 146.444439 
L 48.573643 146.553872 
L 48.578793 146.517394 
L 48.686944 146.626828 
L 48.697244 146.553872 
L 48.722994 146.736261 
L 48.789944 146.699783 
L 48.872345 146.845694 
L 48.908395 146.809216 
L 49.003671 146.918649 
L 49.109247 146.991604 
L 49.011396 146.882171 
L 49.114397 146.918649 
L 49.235423 146.809216 
L 49.328124 146.736261 
L 49.248298 146.845694 
L 49.343574 146.845694 
L 49.410525 146.882171 
L 49.518675 147.028082 
L 49.523825 146.991604 
L 49.534126 146.955127 
L 49.644851 147.137515 
L 49.647427 147.06456 
L 49.724677 147.283426 
L 49.750427 147.21047 
L 49.827678 147.173993 
L 49.863728 147.283426 
L 50.422508 147.356381 
L 50.525509 147.502292 
L 50.430233 147.319903 
L 50.535809 147.429337 
L 50.548684 147.392859 
L 50.64396 150.493462 
L 50.806186 153.484632 
L 50.816486 153.557587 
L 50.970987 154.834306 
L 50.983862 154.943739 
L 51.182139 156.183981 
L 51.207889 156.293414 
L 51.213039 156.256936 
L 51.367541 157.022967 
L 51.375266 156.98649 
L 51.447366 157.387744 
L 51.449941 157.351267 
L 51.568392 157.752521 
L 51.573542 157.716043 
L 51.710018 158.153776 
L 51.586417 157.679566 
L 51.712593 158.117298 
L 51.738344 158.226731 
L 51.861945 158.518552 
L 51.743494 158.190253 
L 51.86452 158.445597 
L 51.887695 158.482075 
L 52.003571 158.737419 
L 52.021596 158.700941 
L 52.093697 158.956285 
L 52.101422 158.919807 
L 52.106572 158.883329 
L 52.225023 159.102195 
L 52.232748 159.02924 
L 52.312573 159.321062 
L 52.325448 159.248106 
L 52.371799 159.357539 
L 52.376949 159.248106 
L 52.487675 159.466972 
L 52.582951 159.394017 
L 52.5469 159.539928 
L 52.598401 159.466972 
L 52.719427 159.649361 
L 52.799252 159.50345 
L 52.837878 159.539928 
L 52.889378 159.649361 
L 52.997529 159.758794 
L 52.920278 159.612883 
L 53.005254 159.722316 
L 53.043879 159.612883 
L 53.033579 159.795271 
L 53.11083 159.758794 
L 53.14173 159.831749 
L 53.13143 159.685838 
L 53.221556 159.758794 
L 53.314257 159.685838 
L 53.231856 159.795271 
L 53.332282 159.722316 
L 53.368332 159.795271 
L 53.432708 159.612883 
L 53.440433 159.685838 
L 53.855011 159.685838 
L 53.857586 159.831749 
L 53.860161 159.649361 
L 53.965737 159.685838 
L 53.999212 159.795271 
L 53.983762 159.649361 
L 54.076463 159.722316 
L 54.130538 159.612883 
L 54.210364 159.576405 
L 54.143413 159.685838 
L 54.238689 159.612883 
L 54.254139 159.722316 
L 54.287615 159.539928 
L 54.35199 159.649361 
L 54.465291 159.50345 
L 54.573442 159.612883 
L 54.578592 159.576405 
L 54.653268 159.466972 
L 54.583742 159.612883 
L 54.691893 159.50345 
L 54.720218 159.649361 
L 54.766569 159.466972 
L 54.807769 159.576405 
L 54.913345 159.50345 
L 54.825794 159.612883 
L 54.918495 159.576405 
L 55.132222 159.50345 
L 55.139947 159.539928 
L 55.245522 159.394017 
L 55.284148 159.50345 
L 55.343373 159.357539 
L 55.358823 159.466972 
L 55.461824 159.394017 
L 55.428349 159.50345 
L 55.472124 159.430495 
L 55.858377 159.357539 
L 55.953653 159.284584 
L 55.873828 159.394017 
L 55.966528 159.357539 
L 56.072104 159.394017 
L 56.028329 159.211628 
L 56.077254 159.357539 
L 56.090129 159.394017 
L 56.19828 159.211628 
L 56.74161 159.102195 
L 56.74676 159.138673 
L 56.854911 159.02924 
L 56.952761 159.102195 
L 56.880661 158.956285 
L 56.965637 159.02924 
L 57.599092 158.919807 
L 57.709818 158.846852 
L 57.668617 158.992762 
L 57.712393 158.883329 
L 58.142421 158.919807 
L 58.144996 158.737419 
L 58.150146 158.956285 
L 58.253147 158.810374 
L 58.332973 158.883329 
L 58.356148 158.737419 
L 58.361298 158.737419 
L 58.443699 158.664463 
L 58.451424 158.700941 
L 58.554425 158.518552 
L 58.63425 158.700941 
L 58.667726 158.627986 
L 58.953553 158.737419 
L 59.025654 158.773896 
L 59.002478 158.627986 
L 59.064279 158.737419 
L 59.095179 158.664463 
L 59.133804 158.810374 
L 59.17243 158.773896 
L 59.257405 158.700941 
L 59.296031 158.773896 
L 59.370706 158.591508 
L 59.440232 158.700941 
L 59.447957 158.518552 
L 59.484007 158.664463 
L 59.592158 158.518552 
L 59.496882 158.700941 
L 59.597308 158.55503 
L 59.883136 158.664463 
L 59.885711 158.700941 
L 59.908886 158.482075 
L 59.983561 158.591508 
L 60.040212 158.518552 
L 59.993861 158.627986 
L 60.094287 158.591508 
L 60.539766 158.55503 
L 60.580966 158.445597 
L 60.609292 158.591508 
L 60.647917 158.518552 
L 60.740618 158.627986 
L 60.665942 158.482075 
L 60.756068 158.482075 
L 60.833318 158.518552 
L 60.887394 158.627986 
L 60.907994 157.241834 
L 61.083095 152.682123 
L 61.348323 150.493462 
L 61.363773 150.384029 
L 61.544024 149.362654 
L 61.549174 149.435609 
L 61.631575 149.034355 
L 61.683075 148.924922 
L 61.827277 148.414234 
L 61.835002 148.487189 
L 61.917402 148.15889 
L 62.043578 147.757636 
L 61.925127 148.195368 
L 62.048728 147.794113 
L 62.056453 147.867069 
L 62.115679 147.53877 
L 62.149154 147.575247 
L 62.27533 147.246948 
L 62.28048 147.283426 
L 62.342281 147.21047 
L 62.350006 147.246948 
L 62.458157 147.06456 
L 62.460732 147.137515 
L 62.489057 146.955127 
L 62.563733 147.028082 
L 62.679609 146.845694 
L 62.756859 146.772738 
L 62.759434 146.626828 
L 62.867585 146.699783 
L 62.898485 146.553872 
L 62.983461 146.59035 
L 63.019511 146.663305 
L 63.034961 146.480917 
L 63.086462 146.517394 
L 63.197188 146.371484 
L 63.132812 146.553872 
L 63.199763 146.407961 
L 63.271863 146.262051 
L 63.310489 146.371484 
L 63.320789 146.407961 
L 63.325939 146.262051 
L 63.416065 146.335006 
L 63.498465 146.189095 
L 63.45984 146.371484 
L 63.529365 146.262051 
L 64.03407 146.152618 
L 64.036645 146.11614 
L 64.077845 146.262051 
L 64.139645 146.225573 
L 64.322472 146.298528 
L 64.404873 146.444439 
L 64.435773 146.371484 
L 64.536199 146.298528 
L 64.469248 146.407961 
L 64.549074 146.335006 
L 64.984252 146.444439 
L 65.020303 146.553872 
L 64.994553 146.407961 
L 65.097553 146.480917 
L 65.149054 146.407961 
L 65.185104 146.59035 
L 65.205704 146.517394 
L 65.447756 146.444439 
L 65.450331 146.371484 
L 65.499257 146.59035 
L 65.555907 146.480917 
L 65.630583 146.699783 
L 65.561057 146.444439 
L 65.674358 146.626828 
L 65.676933 146.553872 
L 65.725859 146.699783 
L 65.785084 146.626828 
L 65.888085 146.699783 
L 65.85976 146.553872 
L 65.898385 146.663305 
L 65.970486 146.626828 
L 65.960185 146.736261 
L 66.006536 146.699783 
L 66.029711 146.809216 
L 66.052886 146.845694 
L 66.081211 146.699783 
L 66.132712 146.699783 
L 66.166187 146.663305 
L 66.227988 146.845694 
L 66.235713 146.736261 
L 66.351589 146.955127 
L 66.392789 146.882171 
L 66.426264 147.06456 
L 66.45974 146.991604 
L 67.865701 147.028082 
L 67.868276 147.137515 
L 67.896601 146.991604 
L 67.976427 147.06456 
L 68.246804 147.173993 
L 68.264829 147.101037 
L 68.360105 147.246948 
L 68.432206 147.173993 
L 68.421906 147.319903 
L 68.463106 147.319903 
L 68.550657 147.356381 
L 68.478556 147.21047 
L 68.571257 147.283426 
L 68.91631 147.173993 
L 68.939485 147.283426 
L 69.029611 147.137515 
L 69.112011 147.21047 
L 69.104286 147.101037 
L 69.140337 147.173993 
L 69.145487 147.137515 
L 69.238187 147.283426 
L 69.245912 147.21047 
L 69.323163 147.283426 
L 69.297413 147.137515 
L 69.351488 147.137515 
L 69.513715 147.173993 
L 69.585815 147.283426 
L 69.54204 147.137515 
L 69.624441 147.173993 
L 69.724866 147.101037 
L 69.639891 147.246948 
L 69.732591 147.173993 
L 69.807267 147.319903 
L 69.742891 147.137515 
L 69.848467 147.246948 
L 70.170345 147.356381 
L 70.278496 147.392859 
L 70.21412 147.283426 
L 70.281071 147.356381 
L 70.502523 147.356381 
L 70.572048 147.21047 
L 70.613249 147.246948 
L 71.893034 147.356381 
L 71.99861 147.465814 
L 71.923934 147.246948 
L 72.00891 147.429337 
L 72.150536 147.392859 
L 72.153111 147.283426 
L 72.250962 147.465814 
L 72.258687 147.429337 
L 72.719616 147.53877 
L 72.753091 147.575247 
L 72.732491 147.429337 
L 72.825192 147.502292 
L 72.853517 147.392859 
L 72.899867 147.53877 
L 72.933343 147.502292 
L 73.036344 147.575247 
L 72.977118 147.392859 
L 73.046644 147.53877 
L 73.136769 147.392859 
L 73.147069 147.611725 
L 73.159945 147.502292 
L 73.80885 147.429337 
L 73.929876 147.101037 
L 73.968501 147.173993 
L 74.022577 146.991604 
L 74.038027 147.06456 
L 74.130728 146.955127 
L 74.084377 147.173993 
L 74.148753 147.06456 
L 74.192528 146.955127 
L 74.202828 147.137515 
L 74.259479 147.06456 
L 74.468055 147.173993 
L 74.571056 147.246948 
L 74.498956 147.06456 
L 74.576206 147.137515 
L 74.604531 147.21047 
L 74.717832 147.319903 
L 74.820833 147.246948 
L 74.759033 147.392859 
L 74.831133 147.283426 
L 74.833708 147.356381 
L 74.895509 147.173993 
L 74.941859 147.319903 
L 75.333262 147.392859 
L 75.374463 147.319903 
L 75.446563 147.465814 
L 75.482614 147.356381 
L 75.487764 147.502292 
L 75.557289 147.465814 
L 76.195894 147.575247 
L 76.278295 147.611725 
L 76.20877 147.465814 
L 76.30147 147.575247 
L 76.347821 147.502292 
L 76.352971 148.669578 
L 76.489447 155.272039 
L 76.718624 158.627986 
L 76.731499 158.700941 
L 76.873125 160.014138 
L 77.120327 161.947455 
L 77.122902 161.910977 
L 77.195003 162.385187 
L 77.200153 162.385187 
L 77.370104 163.224174 
L 77.372679 163.187696 
L 77.44478 163.588951 
L 77.45508 163.515995 
L 77.583831 164.026683 
L 77.622456 164.136116 
L 77.764082 164.573848 
L 77.815583 164.646803 
L 77.931459 165.01158 
L 77.936609 164.975103 
L 77.982959 165.084536 
L 78.10141 165.303402 
L 77.990684 165.048058 
L 78.103985 165.230446 
L 78.152911 165.339879 
L 78.271362 165.522268 
L 78.273937 165.48579 
L 78.353762 165.558745 
L 78.451613 165.704656 
L 78.467063 165.668179 
L 78.575214 165.741134 
L 78.68079 165.850567 
L 78.688515 165.814089 
L 78.791516 165.887045 
L 78.70654 165.741134 
L 78.799241 165.850567 
L 78.868766 165.741134 
L 78.824991 165.923522 
L 78.907392 165.887045 
L 78.951167 165.96 
L 78.992367 165.814089 
L 79.015543 165.887045 
L 79.103093 165.777612 
L 79.051593 165.96 
L 79.126269 165.887045 
L 79.32197 165.777612 
L 79.427546 165.704656 
L 79.33742 165.814089 
L 79.432696 165.741134 
L 79.667023 165.704656 
L 79.677323 165.595223 
L 79.733974 165.814089 
L 79.777749 165.704656 
L 79.873025 165.595223 
L 79.9065 165.631701 
L 79.986326 165.522268 
L 80.063576 165.376357 
L 80.099627 165.449312 
L 80.115077 165.522268 
L 80.187177 165.376357 
L 80.210352 165.48579 
L 80.323653 165.376357 
L 80.326228 165.412835 
L 80.434379 165.339879 
L 80.51163 165.266924 
L 80.447254 165.412835 
L 80.545105 165.339879 
L 80.581155 165.449312 
L 80.663556 165.230446 
L 80.699606 165.303402 
L 80.712482 165.193969 
L 80.774282 165.266924 
L 80.887583 165.157491 
L 80.794882 165.303402 
L 80.890158 165.193969 
L 80.939083 165.230446 
L 80.905608 165.084536 
L 80.990584 165.084536 
L 81.013759 165.193969 
L 81.103885 165.048058 
L 81.271261 164.975103 
L 81.394862 164.500893 
L 81.297011 165.048058 
L 81.397437 164.53737 
L 81.490138 164.464415 
L 81.606014 164.282027 
L 81.618889 164.39146 
L 81.649789 164.209071 
L 81.709015 164.245549 
L 81.812016 164.136116 
L 81.819741 164.172593 
L 81.876391 164.209071 
L 81.842916 164.099638 
L 81.925317 164.136116 
L 82.036042 164.026683 
L 81.953642 164.172593 
L 82.041192 164.06316 
L 82.435171 163.953727 
L 82.468646 164.026683 
L 82.551047 163.880772 
L 82.597397 163.953727 
L 82.625722 163.771339 
L 82.659198 163.844294 
L 82.751898 163.698384 
L 82.669498 163.880772 
L 82.775073 163.771339 
L 82.795674 163.661906 
L 82.9064 163.588951 
L 82.800824 163.734861 
L 82.908975 163.625428 
L 82.970775 163.661906 
L 83.001675 163.479517 
L 83.01455 163.552473 
L 83.184502 163.44304 
L 83.290078 163.333607 
L 83.192227 163.552473 
L 83.300378 163.370084 
L 83.421404 163.260651 
L 83.493504 163.078263 
L 83.426554 163.297129 
L 83.53728 163.151218 
L 83.560455 163.187696 
L 83.611955 162.96883 
L 83.637706 163.041785 
L 83.751007 162.895875 
L 83.684056 163.078263 
L 83.753582 162.96883 
L 83.784482 162.895875 
L 83.895208 162.786441 
L 83.897783 162.822919 
L 84.003359 162.786441 
L 84.098634 162.604053 
L 84.11666 162.677008 
L 84.237685 162.531098 
L 84.242836 162.640531 
L 84.338111 162.348709 
L 84.345836 162.458142 
L 84.469437 162.275754 
L 84.572438 162.202799 
L 84.683164 162.093366 
L 84.611064 162.239276 
L 84.685739 162.129843 
L 84.714064 162.239276 
L 84.79389 162.056888 
L 84.925216 161.947455 
L 85.038517 161.801544 
L 84.966416 162.02041 
L 85.041092 161.838022 
L 85.053967 161.947455 
L 85.102893 161.765066 
L 85.149243 161.801544 
L 85.265119 161.619156 
L 85.301169 161.692111 
L 85.332069 161.5462 
L 85.370695 161.5462 
L 85.602447 161.436767 
L 85.664247 161.290856 
L 85.623047 161.509723 
L 85.713173 161.40029 
L 85.795573 161.290856 
L 85.800723 161.327334 
L 85.916599 161.144946 
L 85.99385 161.217901 
L 86.011875 161.035513 
L 86.022175 161.07199 
L 86.027325 161.108468 
L 86.140626 160.889602 
L 86.158651 160.999035 
L 86.217877 160.780169 
L 86.248777 160.853124 
L 86.369803 160.707214 
L 86.60928 160.634258 
L 86.720006 160.45187 
L 86.637605 160.670736 
L 86.725156 160.488347 
L 86.820432 160.415392 
L 86.907982 160.196526 
L 86.936308 160.269481 
L 86.967208 160.160048 
L 86.985233 160.269481 
L 87.080509 160.087093 
L 87.147459 160.160048 
L 87.116559 160.050615 
L 87.191235 160.087093 
L 87.299386 159.97766 
L 87.196385 160.123571 
L 87.307111 160.014138 
L 87.477062 159.904704 
L 87.582638 159.795271 
L 87.592938 159.831749 
L 87.698514 159.722316 
L 87.78864 159.539928 
L 87.744864 159.795271 
L 87.816965 159.576405 
L 87.88649 159.649361 
L 87.889065 159.466972 
L 87.927691 159.576405 
L 88.046142 159.430495 
L 88.092492 159.539928 
L 88.136268 159.357539 
L 88.154293 159.430495 
L 88.265019 159.284584 
L 88.267594 159.321062 
L 88.401495 159.248106 
L 88.509646 159.138673 
L 88.411795 159.284584 
L 88.514796 159.175151 
L 88.517371 159.211628 
L 88.594621 159.02924 
L 88.620371 159.102195 
L 88.723372 158.956285 
L 88.679597 159.138673 
L 88.733672 158.992762 
L 88.834098 158.883329 
L 88.877874 158.956285 
L 88.949974 158.773896 
L 88.960274 158.883329 
L 89.0195 158.664463 
L 89.0607 158.810374 
L 89.179151 158.664463 
L 89.189451 158.773896 
L 89.282152 158.591508 
L 89.292452 158.737419 
L 89.416053 158.518552 
L 89.431503 158.664463 
L 89.452103 158.482075 
L 89.526779 158.518552 
L 89.560254 158.445597 
L 89.64008 158.299686 
L 89.673555 158.372642 
L 89.786856 158.153776 
L 89.792006 158.263209 
L 89.946507 158.153776 
L 90.057233 158.007865 
L 89.992858 158.226731 
L 90.059808 158.08082 
L 90.088134 158.117298 
L 90.111309 157.971387 
L 90.162809 158.007865 
L 90.283835 157.825476 
L 90.391986 157.898432 
L 90.361086 157.716043 
L 90.394561 157.861954 
L 90.428036 157.898432 
L 90.513012 157.716043 
L 90.520737 157.752521 
L 90.603138 157.60661 
L 90.616013 157.60661 
L 90.731889 157.4607 
L 90.623738 157.643088 
L 90.734464 157.497177 
L 90.783389 157.60661 
L 90.752489 157.424222 
L 90.842615 157.4607 
L 91.048616 157.387744 
L 91.105267 157.205356 
L 91.161917 157.278311 
L 91.231443 157.205356 
L 91.329294 157.022967 
L 91.239168 157.278311 
L 91.347319 157.059445 
L 91.427145 157.095923 
L 91.411694 156.98649 
L 91.45547 157.022967 
L 91.54302 156.950012 
L 91.651171 156.840579 
L 91.594521 156.98649 
L 91.656321 156.877057 
L 91.723272 156.913534 
L 91.772197 156.731146 
L 91.826273 156.804101 
L 91.854598 156.658191 
L 91.880348 156.694668 
L 91.957599 156.585235 
L 92.068325 156.439324 
L 91.973049 156.621713 
L 92.07605 156.475802 
L 92.274326 156.366369 
L 92.351577 156.220458 
L 92.282052 156.402847 
L 92.390202 156.293414 
L 92.395352 156.366369 
L 92.423678 156.183981 
L 92.495778 156.256936 
L 92.611654 156.147503 
L 92.65028 156.256936 
L 92.714655 156.074548 
L 92.719805 156.147503 
L 92.825381 155.965115 
L 92.838256 156.001592 
L 92.889757 156.03807 
L 92.925807 155.819204 
L 92.946407 155.965115 
L 93.013358 155.782726 
L 93.067433 155.819204 
L 93.080308 155.855682 
L 93.139534 155.673293 
L 93.170434 155.709771 
L 93.26056 155.636815 
L 93.203909 155.746248 
L 93.28116 155.709771 
L 93.324935 155.600338 
L 93.415061 155.527382 
L 93.33781 155.673293 
L 93.433086 155.56386 
L 93.494886 155.636815 
L 93.482011 155.454427 
L 93.541237 155.527382 
L 93.633938 155.417949 
L 93.644238 155.490905 
L 93.754964 155.235561 
L 93.821914 155.308516 
L 93.796164 155.162606 
L 93.86054 155.162606 
L 93.904315 155.162606 
L 93.90689 155.016695 
L 93.93264 155.199083 
L 94.015041 155.08965 
L 94.197867 155.016695 
L 94.210742 155.126128 
L 94.313743 154.870784 
L 94.51717 154.761351 
L 94.550645 154.797829 
L 94.635621 154.651918 
L 94.645921 154.761351 
L 94.733472 154.578963 
L 94.746347 154.651918 
L 94.854498 154.46953 
L 94.864798 154.542485 
L 94.924023 154.578963 
L 94.957499 154.433052 
L 94.965224 154.433052 
L 94.993549 154.542485 
L 95.078525 154.396574 
L 95.181525 154.433052 
L 95.112 154.323619 
L 95.186675 154.360097 
L 95.276801 154.250663 
L 95.202126 154.396574 
L 95.299976 154.287141 
L 95.330877 154.323619 
L 95.312851 154.214186 
L 95.408127 154.250663 
L 95.508553 154.031797 
L 95.526578 154.104753 
L 95.552328 154.14123 
L 95.593529 153.958842 
L 95.632154 154.031797 
L 95.724855 153.922364 
L 95.663054 154.068275 
L 95.74803 153.958842 
L 95.851031 154.031797 
L 95.760905 153.885887 
L 95.861331 153.99532 
L 95.961757 153.885887 
L 96.072483 153.739976 
L 95.982357 153.958842 
L 96.075058 153.776454 
L 96.090508 153.849409 
L 96.160033 153.703498 
L 96.183209 153.739976 
L 96.291359 153.630543 
L 96.37891 153.484632 
L 96.30166 153.703498 
L 96.40466 153.594065 
L 96.420111 153.630543 
L 96.474186 153.448154 
L 96.512811 153.594065 
L 96.626112 153.375199 
L 96.628687 153.448154 
L 96.682763 153.484632 
L 96.747138 153.302244 
L 96.783188 153.411677 
L 96.816664 153.156333 
L 96.850139 153.192811 
L 96.955715 153.119855 
L 96.870739 153.265766 
L 96.96344 153.156333 
L 97.032966 153.0469 
L 97.105066 152.937467 
L 97.040691 153.083378 
L 97.148841 152.973945 
L 97.172017 153.010422 
L 97.223517 152.828034 
L 97.254417 152.900989 
L 97.298193 152.791556 
L 97.408919 152.645645 
L 97.308493 152.828034 
L 97.416644 152.682123 
L 97.58917 152.57269 
L 97.668996 152.426779 
L 97.59947 152.609168 
L 97.702471 152.463257 
L 97.705046 152.57269 
L 97.764272 152.390302 
L 97.810622 152.390302 
L 97.983148 152.280869 
L 98.057824 152.171435 
L 98.001173 152.353824 
L 98.093874 152.244391 
L 98.109324 152.317346 
L 98.171125 152.09848 
L 98.19945 152.134958 
L 98.317901 151.916092 
L 98.418327 151.989047 
L 98.371977 151.843136 
L 98.426052 151.952569 
L 98.482702 151.770181 
L 98.539353 151.806659 
L 98.570253 151.770181 
L 98.650079 151.879614 
L 98.76338 151.697226 
L 98.765955 151.733703 
L 98.822605 151.697226 
L 98.930756 151.441882 
L 98.935906 151.551315 
L 98.956506 151.587793 
L 99.051782 151.478359 
L 99.226884 151.441882 
L 99.332459 151.332449 
L 99.275809 151.478359 
L 99.337609 151.405404 
L 99.432885 151.223016 
L 99.34276 151.441882 
L 99.453485 151.295971 
L 99.45606 151.368926 
L 99.551336 151.113583 
L 99.561636 151.223016 
L 99.636312 151.295971 
L 99.654337 151.15006 
L 99.672362 151.259493 
L 99.788238 151.040627 
L 99.837164 151.15006 
L 99.875789 150.967672 
L 99.898964 151.040627 
L 99.922139 151.077105 
L 99.981365 150.894717 
L 100.00454 150.967672 
L 100.104966 150.785283 
L 100.122991 150.858239 
L 100.125566 150.894717 
L 100.153891 150.712328 
L 100.231142 150.821761 
L 100.321268 150.602895 
L 100.347018 150.67585 
L 100.383068 150.712328 
L 100.450019 150.566417 
L 100.455169 150.67585 
L 100.56847 150.493462 
L 100.571045 150.52994 
L 100.643145 150.456984 
L 100.702371 150.52994 
L 100.756446 150.311074 
L 100.795071 150.384029 
L 100.833697 150.201641 
L 100.864597 150.274596 
L 100.936698 150.165163 
L 101.039698 150.092207 
L 100.957298 150.274596 
L 101.044848 150.128685 
L 101.086049 150.201641 
L 101.140124 149.982774 
L 101.150424 150.05573 
L 101.1942 150.128685 
L 101.2663 149.982774 
L 101.377026 149.873341 
L 101.382176 149.909819 
L 101.498052 149.727431 
L 101.626803 149.617998 
L 101.732379 149.472087 
L 101.631953 149.654475 
L 101.745254 149.508565 
L 101.760704 149.617998 
L 101.84053 149.399131 
L 101.853405 149.508565 
L 101.884305 149.545042 
L 101.974431 149.362654 
L 102.028507 149.472087 
L 102.064557 149.289698 
L 102.085157 149.362654 
L 102.170133 149.216743 
L 102.203608 149.253221 
L 102.309184 149.180265 
L 102.378709 149.070832 
L 102.314334 149.216743 
L 102.41991 149.10731 
L 102.427635 149.143788 
L 102.504885 148.961399 
L 102.525486 149.034355 
L 102.618186 148.961399 
L 102.641362 148.815489 
L 102.625911 148.997877 
L 102.731487 148.851966 
L 102.803588 148.924922 
L 102.831913 148.742533 
L 102.837063 148.779011 
L 102.929764 148.706055 
L 102.855088 148.851966 
L 102.950364 148.742533 
L 102.968389 148.779011 
L 102.99929 148.669578 
L 103.06109 148.742533 
L 103.166666 148.487189 
L 103.179541 148.523667 
L 103.349492 148.414234 
L 103.455068 148.341279 
L 103.449918 148.450712 
L 103.460218 148.377756 
L 103.462793 148.450712 
L 103.555494 148.231846 
L 103.568369 148.304801 
L 103.67137 148.012979 
L 103.684245 148.085935 
L 103.68682 148.122413 
L 103.738321 147.940024 
L 103.787246 147.976502 
L 103.861922 147.903546 
L 103.962347 147.757636 
L 103.877372 147.940024 
L 103.975223 147.830591 
L 104.088523 147.648203 
L 104.091098 147.721158 
L 104.093674 147.757636 
L 104.165774 147.575247 
L 104.194099 147.611725 
L 104.335726 147.53877 
L 104.436151 147.429337 
L 104.449026 147.465814 
L 104.467052 147.53877 
L 104.546877 147.319903 
L 104.554602 147.429337 
L 104.649878 147.319903 
L 104.570052 147.465814 
L 104.670478 147.356381 
L 104.727129 147.246948 
L 104.83013 147.137515 
L 104.732279 147.319903 
L 104.84043 147.21047 
L 104.85588 147.246948 
L 104.925405 146.955127 
L 104.935705 146.991604 
L 105.067032 146.626828 
L 105.069607 146.663305 
L 105.100507 146.553872 
L 105.105657 146.59035 
L 105.226683 146.335006 
L 105.473885 146.262051 
L 105.52281 146.152618 
L 105.587186 146.189095 
L 106.014639 146.079662 
L 106.042965 146.189095 
L 106.12794 146.043185 
L 106.151115 146.152618 
L 106.182016 146.006707 
L 106.241241 146.11614 
L 106.346817 145.970229 
L 106.354542 146.043185 
L 106.465268 145.970229 
L 106.398317 146.079662 
L 106.467843 146.006707 
L 106.609469 145.970229 
L 106.67127 145.824318 
L 106.720195 145.970229 
L 106.846371 145.751363 
L 106.861821 145.787841 
L 106.941647 145.64193 
L 106.951947 145.678408 
L 107.121898 145.64193 
L 107.235199 145.496019 
L 107.33305 145.386586 
L 107.361375 145.459542 
L 107.451501 145.277153 
L 107.484976 145.313631 
L 107.479826 145.204198 
L 107.559652 145.240676 
L 107.582827 145.240676 
L 107.665228 145.058287 
L 107.696128 145.094765 
L 107.845479 145.058287 
L 107.920155 144.912376 
L 107.95878 144.948854 
L 108.038606 144.912376 
L 108.149332 144.766466 
L 108.151907 144.802943 
L 108.177657 144.839421 
L 108.267783 144.729988 
L 108.365634 144.620555 
L 108.476359 144.511122 
L 108.373359 144.657033 
L 108.478935 144.5476 
L 108.571635 144.474644 
L 108.669486 144.328733 
L 108.682361 144.438166 
L 108.736437 144.365211 
L 108.746737 144.401689 
L 108.852313 144.2193 
L 108.952738 144.365211 
L 108.965614 144.255778 
L 109.17419 144.146345 
L 109.290066 144.000434 
L 109.297791 144.07339 
L 109.338992 143.891001 
L 109.398217 143.927479 
L 109.573319 143.818046 
L 109.691769 143.672135 
L 109.709795 143.781568 
L 109.70207 143.635657 
L 109.797345 143.672135 
L 109.825671 143.74509 
L 109.910646 143.526224 
L 109.995622 143.635657 
L 110.021372 143.562702 
L 110.137248 143.343836 
L 110.147548 143.489747 
L 110.245399 143.197925 
L 110.289174 143.307358 
L 110.325225 143.12497 
L 110.35355 143.161448 
L 110.533801 143.052014 
L 110.644527 142.942581 
L 110.546676 143.088492 
L 110.649677 142.979059 
L 110.793879 142.906104 
L 110.809329 142.942581 
L 110.912329 142.65076 
L 110.925205 142.796671 
L 111.023055 142.687238 
L 111.074556 142.577805 
L 111.133781 142.65076 
L 111.195582 142.541327 
L 111.298583 142.395416 
L 111.208457 142.577805 
L 111.314033 142.431894 
L 111.442784 142.358938 
L 111.514884 142.249505 
L 111.460809 142.395416 
L 111.55351 142.285983 
L 111.633335 142.358938 
L 111.661661 142.213028 
L 111.669386 142.285983 
L 111.751786 142.030639 
L 111.764661 142.140072 
L 111.888263 141.957684 
L 111.929463 141.994162 
L 111.955213 141.848251 
L 111.993838 141.921206 
L 112.107139 141.811773 
L 112.032464 141.994162 
L 112.109714 141.848251 
L 112.112289 141.884729 
L 112.186965 141.665862 
L 112.212715 141.738818 
L 112.421292 141.665862 
L 112.532018 141.446996 
L 112.537168 141.483474 
L 112.629869 141.374041 
L 112.75347 141.191653 
L 112.848745 141.118697 
L 112.938871 140.936309 
L 112.85647 141.155175 
L 112.964621 140.972786 
L 113.121698 140.863353 
L 113.137148 140.790398 
L 113.168048 140.972786 
L 113.232424 140.863353 
L 113.38435 140.75392 
L 113.392075 140.863353 
L 113.502801 140.644487 
L 113.507951 140.717443 
L 113.598077 140.462099 
L 113.605802 140.571532 
L 113.667602 140.389144 
L 113.631552 140.60801 
L 113.719103 140.462099 
L 113.809228 140.535054 
L 113.760303 140.389144 
L 113.829828 140.462099 
L 114.087331 140.352666 
L 114.100206 140.425621 
L 114.203207 140.243233 
L 114.228957 140.352666 
L 114.257282 140.206755 
L 114.311357 140.206755 
L 114.386033 140.1338 
L 114.339683 140.27971 
L 114.422083 140.170277 
L 114.427233 140.243233 
L 114.437533 140.060844 
L 114.532809 140.170277 
L 114.64611 139.987889 
L 114.65126 140.024367 
L 114.65641 140.097322 
L 114.720786 139.914934 
L 114.756836 139.951411 
L 114.970563 139.878456 
L 115.089014 139.65959 
L 115.163689 139.696068 
L 115.24094 139.477201 
L 115.274415 139.586634 
L 115.374841 139.477201 
L 115.377416 139.404246 
L 115.390291 139.513679 
L 115.485567 139.440724 
L 115.596293 139.367768 
L 115.642643 139.477201 
L 115.709594 139.258335 
L 115.758519 139.367768 
L 115.730194 139.221858 
L 115.822895 139.294813 
L 115.928471 139.112425 
L 115.83062 139.331291 
L 115.936196 139.18538 
L 115.961946 139.221858 
L 116.008296 139.039469 
L 116.036622 139.039469 
L 116.178248 138.966514 
L 116.263223 138.784125 
L 116.291549 138.893559 
L 116.417725 138.784125 
L 116.4924 138.674692 
L 116.438325 138.857081 
L 116.533601 138.71117 
L 116.737027 138.601737 
L 116.783378 138.492304 
L 116.760203 138.71117 
L 116.847753 138.565259 
L 116.901829 138.601737 
L 116.932729 138.419349 
L 116.948179 138.419349 
L 117.04088 138.273438 
L 116.958479 138.528782 
L 117.06148 138.382871 
L 117.09753 138.273438 
L 117.177356 138.23696 
L 117.11298 138.346393 
L 117.205681 138.273438 
L 117.290657 138.346393 
L 117.295807 138.23696 
L 117.316407 138.273438 
L 117.424558 138.127527 
L 117.385933 138.346393 
L 117.432283 138.164005 
L 117.470908 138.309916 
L 117.543009 138.164005 
L 117.648585 138.127527 
L 117.548159 138.200483 
L 117.653735 138.164005 
L 117.715535 138.054572 
L 117.823686 137.945139 
L 117.72841 138.127527 
L 117.826261 137.981616 
L 117.833986 138.054572 
L 117.908662 137.799228 
L 117.931837 137.835706 
L 118.034838 137.689795 
L 117.965312 137.872183 
L 118.047713 137.726273 
L 118.081188 137.835706 
L 118.117239 137.689795 
L 118.155864 137.726273 
L 118.217664 137.76275 
L 118.274315 137.61684 
L 118.29749 137.543884 
L 118.390191 137.689795 
L 118.436541 137.653317 
L 118.542117 137.470929 
L 118.549842 137.543884 
L 118.629668 137.507407 
L 118.681168 137.252063 
L 118.742969 137.325018 
L 118.760994 137.252063 
L 118.86657 137.179107 
L 118.766144 137.28854 
L 118.87172 137.215585 
L 118.941245 137.106152 
L 118.94382 137.033197 
L 118.94897 137.179107 
L 119.051971 137.069674 
L 119.229648 136.996719 
L 119.250248 137.033197 
L 119.345524 136.814331 
L 119.515475 136.704897 
L 119.626201 136.522509 
L 119.577276 136.777853 
L 119.633926 136.595464 
L 119.669976 136.486031 
L 119.778127 136.376598 
L 119.680276 136.522509 
L 119.783277 136.413076 
L 119.847653 136.486031 
L 119.870828 136.303643 
L 119.888853 136.340121 
L 119.997004 136.19421 
L 119.942929 136.413076 
L 120.007304 136.230688 
L 120.079405 136.157732 
L 120.184981 136.011821 
L 120.094855 136.230688 
L 120.190131 136.048299 
L 120.272531 136.157732 
L 120.200431 135.975344 
L 120.298282 136.048299 
L 120.403857 135.792955 
L 120.421883 135.829433 
L 120.427033 135.865911 
L 120.519733 135.647045 
L 120.524883 135.756478 
L 120.645909 135.610567 
L 120.71286 135.647045 
L 120.741185 135.464656 
L 120.74891 135.537612 
L 120.849336 135.318745 
L 120.864786 135.391701 
L 120.957487 135.355223 
L 120.903412 135.464656 
L 120.970362 135.391701 
L 120.980662 135.464656 
L 121.068213 135.209312 
L 121.075938 135.24579 
L 121.178939 135.026924 
L 121.199539 135.063402 
L 121.204689 135.136357 
L 121.263914 134.808058 
L 121.29739 134.917491 
L 121.410691 134.77158 
L 121.415841 134.808058 
L 121.426141 134.917491 
L 121.457041 134.698625 
L 121.523992 134.77158 
L 121.619267 134.698625 
L 121.732568 134.516236 
L 121.830419 134.625669 
L 121.845869 134.589192 
L 121.869044 134.625669 
L 121.92312 134.443281 
L 121.951445 134.516236 
L 121.997796 134.589192 
L 122.069896 134.406803 
L 122.080196 134.552714 
L 122.167747 134.333848 
L 122.183197 134.443281 
L 122.296498 134.260893 
L 122.309373 134.406803 
L 122.345423 134.224415 
L 122.409799 134.370326 
L 122.510225 134.260893 
L 122.525675 134.29737 
L 122.669876 134.187937 
L 122.783177 134.078504 
L 122.708501 134.260893 
L 122.785752 134.114982 
L 122.790902 134.15146 
L 122.839827 133.969071 
L 122.883603 134.078504 
L 122.976304 133.896116 
L 122.909353 134.114982 
L 122.994329 134.005549 
L 123.120505 133.713727 
L 123.12308 133.750205 
L 123.290456 133.67725 
L 123.398607 133.567817 
L 123.393457 133.713727 
L 123.401182 133.604294 
L 123.411482 133.713727 
L 123.452682 133.531339 
L 123.509333 133.604294 
L 123.612334 133.385428 
L 123.630359 133.458384 
L 123.72306 133.348951 
L 123.787435 133.20304 
L 123.73336 133.385428 
L 123.836361 133.312473 
L 123.890436 133.385428 
L 123.939361 133.20304 
L 123.941936 133.275995 
L 124.057812 133.020651 
L 124.060387 133.093607 
L 124.062962 133.166562 
L 124.137638 132.984174 
L 124.168538 133.020651 
L 124.34879 132.911218 
L 124.464666 132.765308 
L 124.366815 132.947696 
L 124.467241 132.801785 
L 124.557367 132.72883 
L 124.678393 132.400531 
L 124.740193 132.473486 
L 124.773668 132.291098 
L 124.781393 132.327575 
L 124.897269 132.108709 
L 124.796843 132.364053 
L 124.904994 132.145187 
L 125.051771 132.145187 
L 125.054346 131.999276 
L 125.087821 132.181665 
L 125.162496 132.145187 
L 125.296398 132.072232 
L 125.407124 131.926321 
L 125.304123 132.108709 
L 125.409699 131.962799 
L 125.6466 131.853366 
L 125.744451 131.743932 
L 125.656901 131.889843 
L 125.757326 131.853366 
L 125.790802 131.743932 
L 125.891227 131.670977 
L 125.875777 131.853366 
L 125.904103 131.707455 
L 125.937578 131.78041 
L 126.004528 131.634499 
L 126.009678 131.670977 
L 126.089504 131.634499 
L 126.104954 131.78041 
L 126.115254 131.743932 
L 126.16933 131.78041 
L 126.187355 131.598022 
L 126.22083 131.670977 
L 126.303231 131.561544 
L 126.254305 131.707455 
L 126.336706 131.598022 
L 126.426832 131.670977 
L 126.395932 131.488589 
L 126.450007 131.634499 
L 126.581333 131.342678 
L 126.864585 131.3062 
L 126.86716 131.196767 
L 126.944411 131.379156 
L 126.972736 131.379156 
L 127.029387 131.379156 
L 127.140113 131.123812 
L 127.142688 131.196767 
L 127.255989 131.014379 
L 127.258564 131.050856 
L 127.37444 130.904946 
L 127.46714 130.977901 
L 127.41049 130.868468 
L 127.485166 130.941423 
L 127.845669 130.868468 
L 127.951244 130.68608 
L 127.958969 130.722557 
L 127.961544 130.759035 
L 128.03622 130.576647 
L 128.059395 130.649602 
L 128.141796 130.394258 
L 128.177846 130.430736 
L 128.262822 130.248347 
L 128.182996 130.467214 
L 128.296297 130.321303 
L 128.355523 130.394258 
L 128.368398 130.284825 
L 128.404448 130.284825 
L 128.437923 130.321303 
L 128.520324 130.175392 
L 128.556374 130.321303 
L 128.587275 130.138914 
L 128.63105 130.175392 
L 128.734051 130.065959 
L 128.852502 129.883571 
L 128.855077 129.920048 
L 128.981253 129.810615 
L 129.089404 129.701182 
L 129.007003 129.920048 
L 129.094554 129.73766 
L 129.158929 129.810615 
L 129.174379 129.664704 
L 129.202705 129.701182 
L 129.300555 129.591749 
L 129.377806 129.482316 
L 129.305706 129.628227 
L 129.411281 129.591749 
L 129.473082 129.518794 
L 129.501407 129.555271 
L 129.588958 129.336405 
L 129.663633 129.26345 
L 129.766634 129.081062 
L 129.697109 129.299928 
L 129.779509 129.117539 
L 129.784659 129.190495 
L 129.828435 129.008106 
L 129.885085 129.008106 
L 129.910835 128.935151 
L 130.026711 128.643329 
L 130.029286 128.679807 
L 130.088512 128.606852 
L 130.191513 128.424463 
L 130.204388 128.460941 
L 130.255888 128.424463 
L 130.369189 128.242075 
L 130.552016 128.132642 
L 130.665317 127.950253 
L 130.670467 127.986731 
L 130.719392 128.023209 
L 130.706517 127.877298 
L 130.770893 127.877298 
L 130.876468 127.767865 
L 130.788918 127.913776 
L 130.884193 127.804343 
L 130.945994 127.84082 
L 130.966594 127.621954 
L 130.982044 127.621954 
L 131.133971 127.512521 
L 131.254997 127.257177 
L 131.260147 127.293655 
L 131.504774 127.2207 
L 131.62065 127.001834 
L 131.669575 127.074789 
L 131.70305 126.8924 
L 131.7288 126.928878 
L 131.847251 126.673534 
L 131.736525 126.965356 
L 131.852401 126.710012 
L 131.883302 126.819445 
L 131.934802 126.673534 
L 131.963127 126.74649 
L 132.048103 126.673534 
L 131.973427 126.8924 
L 132.071278 126.782967 
L 132.269555 126.673534 
L 132.369981 126.527624 
L 132.285005 126.710012 
L 132.388006 126.564101 
L 132.493582 126.454668 
L 132.614608 126.308758 
L 132.676408 126.381713 
L 132.715034 126.162847 
L 132.720184 126.27228 
L 132.828334 126.089891 
L 132.836059 126.162847 
L 132.838635 126.199324 
L 132.869535 126.053414 
L 132.941635 126.089891 
L 133.054936 125.907503 
L 133.060086 125.980458 
L 133.127037 126.053414 
L 133.163087 125.871025 
L 133.170812 125.980458 
L 133.281538 125.79807 
L 133.284113 125.834548 
L 133.340764 125.943981 
L 133.374239 125.761592 
L 133.394839 125.834548 
L 133.436039 125.761592 
L 133.53904 125.652159 
L 133.464365 125.871025 
L 133.54419 125.725115 
L 133.621441 125.79807 
L 133.631741 125.652159 
L 133.649766 125.652159 
L 133.719292 125.506248 
L 133.675516 125.725115 
L 133.768217 125.542726 
L 133.863493 125.433293 
L 133.943319 125.177949 
L 133.979369 125.360338 
L 134.005119 125.250905 
L 134.126145 125.032039 
L 134.015419 125.287382 
L 134.12872 125.068516 
L 134.157045 125.141472 
L 134.205971 124.959083 
L 134.236871 125.032039 
L 134.352747 124.886128 
L 134.249746 125.068516 
L 134.355322 124.922606 
L 134.442873 124.995561 
L 134.532998 125.068516 
L 134.448023 124.922606 
L 134.551024 124.995561 
L 134.610249 124.813172 
L 134.566474 125.068516 
L 134.664325 124.922606 
L 134.71325 124.995561 
L 134.7596 124.703739 
L 134.76475 124.776695 
L 134.885776 124.521351 
L 134.77505 124.813172 
L 134.890926 124.557829 
L 134.939852 124.521351 
L 135.037703 124.338963 
L 135.053153 124.37544 
L 135.179329 124.120097 
L 135.205079 124.193052 
L 135.272029 123.864753 
L 135.274605 123.90123 
L 135.30808 123.791797 
L 135.31323 123.828275 
L 135.431681 123.609409 
L 135.434256 123.645887 
L 135.488331 123.463498 
L 135.532107 123.463498 
L 135.640258 123.354065 
L 135.681458 123.171677 
L 135.758708 123.244632 
L 135.763859 123.317587 
L 135.846259 123.098721 
L 135.866859 123.208154 
L 135.90806 123.135199 
L 136.016211 122.989288 
L 136.021361 123.062244 
L 136.134662 122.879855 
L 136.036811 123.135199 
L 136.142387 122.916333 
L 136.173287 122.843378 
L 136.260838 123.135199 
L 136.340663 122.989288 
L 136.363838 123.171677 
L 136.374139 123.025766 
L 136.551815 122.916333 
L 136.562115 122.952811 
L 136.670266 122.8069 
L 136.677991 122.879855 
L 136.693441 122.697467 
L 136.778417 122.770422 
L 136.835067 122.624511 
L 136.891718 122.733945 
L 136.912318 122.660989 
L 137.002444 122.442123 
L 137.025619 122.515078 
L 137.030769 122.588034 
L 137.077119 122.33269 
L 137.126045 122.369168 
L 137.167245 122.259735 
L 137.172395 122.113824 
L 137.187845 122.33269 
L 137.275396 122.296212 
L 137.295996 122.369168 
L 137.334621 122.150302 
L 137.383547 122.259735 
L 137.419597 122.369168 
L 137.499423 122.150302 
L 137.509723 122.223257 
L 137.561223 122.004391 
L 137.599849 122.040869 
L 137.7389 121.639614 
L 137.839326 121.530181 
L 137.952627 121.274837 
L 137.870226 121.566659 
L 137.960352 121.347793 
L 137.998977 121.530181 
L 138.076228 121.420748 
L 138.181803 121.092449 
L 138.086528 121.457226 
L 138.197254 121.128926 
L 138.251329 121.201882 
L 138.295104 120.983016 
L 138.300254 121.019493 
L 138.351755 120.91006 
L 138.372355 120.983016 
L 138.470206 120.76415 
L 138.475356 120.837105 
L 138.560331 120.508806 
L 138.573207 120.545283 
L 138.596382 120.581761 
L 138.689083 120.399373 
L 138.699383 120.43585 
L 138.774058 120.216984 
L 138.792083 120.28994 
L 138.892509 120.180507 
L 138.830709 120.399373 
L 138.902809 120.253462 
L 138.94401 120.362895 
L 138.998085 120.034596 
L 139.00066 120.071074 
L 139.02641 119.961641 
L 139.162886 119.414475 
L 139.168036 119.487431 
L 139.242712 119.560386 
L 139.265887 119.34152 
L 139.374038 119.013221 
L 139.392063 119.086176 
L 139.397213 119.159131 
L 139.471889 118.940265 
L 139.487339 118.940265 
L 139.603215 118.648444 
L 139.60579 118.684922 
L 139.672741 118.794355 
L 139.623815 118.611966 
L 139.711366 118.611966 
L 139.847842 118.247189 
L 139.922518 118.137756 
L 140.007493 117.845935 
L 140.040969 117.91889 
L 140.051269 117.955368 
L 140.120794 117.517636 
L 140.123369 117.627069 
L 140.23667 117.189337 
L 140.239245 117.262292 
L 140.259845 117.189337 
L 140.313921 116.788082 
L 140.375721 116.861037 
L 140.458122 116.751604 
L 140.586873 113.103836 
L 140.620348 14.76 
L 140.692449 117.408203 
L 140.75425 126.637057 
L 140.818625 125.980458 
L 140.82635 125.871025 
L 140.986001 125.032039 
L 140.993726 125.068516 
L 141.024627 124.959083 
L 141.032352 124.995561 
L 141.179128 124.338963 
L 141.181703 124.411918 
L 141.258954 123.974186 
L 141.276979 124.010663 
L 141.423755 123.463498 
L 141.43148 123.572931 
L 141.490706 123.208154 
L 141.511306 123.208154 
L 141.637482 122.770422 
L 141.642632 122.879855 
L 141.732758 122.442123 
L 141.735333 122.478601 
L 141.864084 121.749047 
L 141.869234 121.785525 
L 141.871809 121.822002 
L 141.936184 121.38427 
L 141.951634 121.38427 
L 141.97481 121.311315 
L 142.08811 120.691194 
L 142.103561 120.727672 
L 142.106136 120.76415 
L 142.188536 120.399373 
L 142.191111 120.43585 
L 142.309562 119.998118 
L 142.461489 119.377998 
L 142.464064 119.414475 
L 142.543889 118.976743 
L 142.546464 119.013221 
L 142.695815 118.429578 
L 142.731866 118.466055 
L 142.765341 118.137756 
L 142.783366 118.174234 
L 142.937867 116.933993 
L 142.943017 116.97047 
L 142.999668 116.715127 
L 143.043443 116.933993 
L 143.182494 115.912618 
L 143.185069 115.985573 
L 143.192795 116.058528 
L 143.239145 115.693752 
L 143.275195 115.766707 
L 143.280345 115.803185 
L 143.411671 110.149144 
L 143.445147 15.088299 
L 143.517247 115.803185 
L 143.586773 125.32386 
L 143.643423 124.703739 
L 143.759299 124.302485 
L 143.764449 124.338963 
L 143.82625 124.484873 
L 143.785049 124.302485 
L 143.87775 124.37544 
L 143.9138 124.302485 
L 144.045127 123.682364 
L 144.055427 123.718842 
L 144.130102 123.390543 
L 144.137827 123.427021 
L 144.153277 123.354065 
L 144.287179 122.697467 
L 144.315504 122.624511 
L 144.44683 121.85848 
L 144.45198 121.894958 
L 144.629656 120.946538 
L 144.639956 120.873583 
L 144.776433 120.144029 
L 144.784158 120.216984 
L 144.861408 119.779252 
L 144.869133 119.706297 
L 145.000459 119.013221 
L 145.003034 119.049698 
L 145.167836 118.137756 
L 145.175561 118.174234 
L 145.211611 118.101279 
L 145.342937 117.517636 
L 145.348087 117.554113 
L 145.422763 117.116381 
L 145.425338 117.116381 
L 145.443363 117.006948 
L 145.448513 117.043426 
L 145.574689 116.715127 
L 145.590139 116.751604 
L 145.654515 116.313872 
L 145.65709 116.386828 
L 145.785841 115.438408 
L 145.788416 115.474885 
L 145.806441 115.365452 
L 145.963517 112.921448 
L 145.999568 15.161255 
L 146.071668 113.760434 
L 146.148919 124.594306 
L 146.200419 123.974186 
L 146.31372 123.536454 
L 146.336895 123.572931 
L 146.347195 123.609409 
L 146.388396 123.463498 
L 146.434746 123.463498 
L 146.555772 123.025766 
L 146.450196 123.499976 
L 146.558347 123.062244 
L 146.566072 123.098721 
L 146.635598 122.588034 
L 146.661348 122.478601 
L 146.671648 122.515078 
L 146.833874 121.603136 
L 146.839024 121.639614 
L 146.905975 121.128926 
L 146.9137 121.165404 
L 147.137727 119.487431 
L 147.140302 119.560386 
L 147.230428 119.049698 
L 147.233003 119.159131 
L 147.364329 118.539011 
L 147.387504 118.429578 
L 147.52913 117.517636 
L 147.54458 117.44468 
L 147.678481 116.751604 
L 147.688781 116.642171 
L 147.696507 116.678649 
L 147.951434 114.489988 
L 147.959159 114.417033 
L 148.026109 108.106393 
L 148.057009 15.598987 
L 148.131685 114.45351 
L 148.196061 123.864753 
L 148.257861 123.025766 
L 148.265586 122.952811 
L 148.384037 122.624511 
L 148.291336 123.025766 
L 148.386612 122.660989 
L 148.520513 122.33269 
L 148.528238 122.369168 
L 148.608064 122.004391 
L 148.649264 121.931435 
L 148.77029 121.347793 
L 148.78059 121.311315 
L 148.906766 120.618239 
L 149.117918 119.159131 
L 149.120493 119.232087 
L 149.210619 118.684922 
L 149.226069 118.611966 
L 149.377995 117.408203 
L 149.393445 117.335247 
L 149.540222 116.277394 
L 149.542797 116.313872 
L 149.614897 115.766707 
L 149.617472 115.803185 
L 149.795149 113.906345 
L 149.93935 111.243474 
L 149.9754 15.817853 
L 150.047501 111.717684 
L 150.124751 123.171677 
L 150.176252 122.733945 
L 150.181402 122.8069 
L 150.263803 122.405645 
L 150.305003 122.33269 
L 150.413154 122.150302 
L 150.420879 122.186779 
L 150.577955 121.530181 
L 150.608855 121.566659 
L 150.665506 121.201882 
L 150.863783 119.81573 
L 150.868933 119.852207 
L 150.871508 119.888685 
L 150.938458 119.414475 
L 150.948758 119.487431 
L 151.090384 118.575489 
L 151.10841 118.466055 
L 151.322136 116.897515 
L 151.327286 116.933993 
L 151.335011 116.97047 
L 151.399387 116.423305 
L 151.401962 116.423305 
L 151.631139 114.745332 
L 151.638864 114.635899 
L 151.878341 110.03971 
L 151.914391 16.219107 
L 151.986492 111.571773 
L 152.058592 122.478601 
L 152.115243 121.931435 
L 152.262019 121.420748 
L 152.272319 121.493703 
L 152.34442 121.128926 
L 152.352145 121.128926 
L 152.37532 121.019493 
L 152.514371 120.472328 
L 152.516946 120.545283 
L 152.519521 120.581761 
L 152.599347 120.216984 
L 152.601922 120.216984 
L 152.753848 119.013221 
L 152.756423 119.049698 
L 152.825949 118.502533 
L 152.828524 118.539011 
L 153.01135 117.371725 
L 153.0165 117.408203 
L 153.019075 117.44468 
L 153.086026 116.933993 
L 153.093751 116.933993 
L 153.116926 116.82456 
L 153.358978 114.964198 
L 153.371853 114.854765 
L 153.665406 110.222099 
L 153.691156 29.788806 
L 153.704031 16.255585 
L 153.765831 103.838504 
L 153.837932 121.712569 
L 153.894582 121.493703 
L 154.015608 120.873583 
L 154.018183 120.946538 
L 154.046509 121.019493 
L 154.108309 120.654717 
L 154.157235 120.545283 
L 154.365811 119.159131 
L 154.368386 119.232087 
L 154.453362 118.575489 
L 154.455937 118.611966 
L 154.476537 118.502533 
L 154.685114 117.079903 
L 154.687689 117.116381 
L 154.759789 116.751604 
L 154.77009 116.751604 
L 154.934891 115.219542 
L 154.937466 115.256019 
L 155.012142 114.745332 
L 155.014717 114.781809 
L 155.035317 114.672376 
L 155.169218 114.015778 
L 155.40097 112.264849 
L 155.403545 112.337805 
L 155.47822 111.498818 
L 155.48337 111.498818 
L 155.604396 107.486273 
L 155.640447 16.620362 
L 155.712547 110.36801 
L 155.782073 121.201882 
L 155.838723 120.545283 
L 155.98035 120.071074 
L 156.024125 120.107551 
L 156.0576 119.81573 
L 156.07305 119.852207 
L 156.214676 119.34152 
L 156.217251 119.414475 
L 156.304802 118.86731 
L 156.307377 118.903788 
L 156.487629 117.91889 
L 156.490204 117.955368 
L 156.567454 117.481158 
L 156.59063 117.408203 
L 156.732256 116.423305 
L 156.734831 116.459783 
L 156.966583 114.672376 
L 156.969158 114.745332 
L 157.048983 113.942823 
L 157.332236 111.425862 
L 157.337386 111.498818 
L 157.409486 110.477443 
L 157.453262 108.762992 
L 157.481587 26.10456 
L 157.491887 16.985139 
L 157.548537 96.615923 
L 157.630938 120.326417 
L 157.679863 120.071074 
L 157.824065 119.523908 
L 157.83694 119.596864 
L 157.916765 119.414475 
L 157.932216 119.450953 
L 157.991441 119.34152 
L 158.161392 118.429578 
L 158.163967 118.502533 
L 158.248943 117.91889 
L 158.254093 117.91889 
L 158.465245 116.459783 
L 158.46782 116.532738 
L 158.555371 115.912618 
L 158.557946 115.949095 
L 158.694422 115.183064 
L 158.704722 115.073631 
L 158.864373 113.687479 
L 158.872098 113.578046 
L 159.049775 111.681206 
L 159.06265 111.608251 
L 159.193976 105.443522 
L 159.230026 17.240483 
L 159.299552 108.690036 
L 159.369077 119.998118 
L 159.428303 119.523908 
L 159.549329 119.086176 
L 159.551904 119.122654 
L 159.64718 119.049698 
L 159.778506 118.429578 
L 159.814556 118.320145 
L 159.958757 117.371725 
L 159.981932 117.262292 
L 160.175059 116.022051 
L 160.185359 116.095006 
L 160.25746 115.511363 
L 160.26776 115.511363 
L 160.275485 115.438408 
L 160.414536 114.562943 
L 160.422261 114.635899 
L 160.489212 114.161689 
L 160.494362 114.161689 
L 160.793064 111.425862 
L 160.795639 111.498818 
L 160.87804 110.84222 
L 160.88319 110.878697 
L 161.063441 106.90263 
L 161.102067 16.80275 
L 161.171592 108.872425 
L 161.235968 119.523908 
L 161.297768 118.903788 
L 161.429094 118.466055 
L 161.436819 118.502533 
L 161.449694 118.611966 
L 161.506345 118.283667 
L 161.537245 118.356622 
L 161.658271 117.882413 
L 161.663421 117.91889 
L 161.691746 117.809457 
L 161.853973 116.897515 
L 161.864273 116.933993 
L 161.866848 117.006948 
L 161.951824 116.313872 
L 162.101175 115.219542 
L 162.12435 115.110109 
L 162.276276 113.942823 
L 162.574979 111.206996 
L 162.582704 111.279952 
L 162.649654 110.36801 
L 162.654804 110.36801 
L 162.667679 110.258577 
L 162.835056 104.166803 
L 162.871106 16.729795 
L 162.940632 107.157973 
L 163.007582 119.523908 
L 163.069383 118.903788 
L 163.092558 118.830832 
L 163.223884 118.247189 
L 163.373235 117.590591 
L 163.37581 117.663546 
L 163.398985 117.554113 
L 163.409286 117.590591 
L 163.592112 116.386828 
L 163.615287 116.35035 
L 163.744038 115.511363 
L 163.762063 115.40193 
L 164.00669 113.50509 
L 164.01699 113.395657 
L 164.338868 110.404487 
L 164.351743 110.295054 
L 164.511395 106.756719 
L 164.53457 43.43146 
L 164.552595 17.27696 
L 164.624695 109.41959 
L 164.681346 118.903788 
L 164.753447 118.210712 
L 164.776622 118.101279 
L 164.915673 117.663546 
L 164.920823 117.736502 
L 164.990348 117.152859 
L 165.013524 117.043426 
L 165.147425 116.386828 
L 165.15 116.423305 
L 165.2221 115.949095 
L 165.224675 115.949095 
L 165.433252 114.526466 
L 165.443552 114.562943 
L 165.497628 113.9793 
L 165.505353 114.015778 
L 165.73968 112.264849 
L 165.74483 112.191894 
L 165.881306 111.46234 
L 166.172283 108.908902 
L 166.177433 108.872425 
L 166.303609 100.993245 
L 166.337085 17.349916 
L 166.409185 107.157973 
L 166.481286 117.590591 
L 166.535361 117.043426 
L 166.651237 116.642171 
L 166.550811 117.079903 
L 166.658962 116.678649 
L 166.707888 116.788082 
L 166.723338 116.82456 
L 166.792863 116.569216 
L 166.798013 116.569216 
L 166.931914 115.657274 
L 166.939639 115.693752 
L 167.163666 114.088733 
L 167.181691 114.015778 
L 167.318168 113.286224 
L 167.331043 113.176791 
L 167.60142 110.84222 
L 167.603995 110.915175 
L 167.678671 110.149144 
L 167.686396 110.149144 
L 167.809997 104.495103 
L 167.846047 17.422871 
L 167.918148 106.209554 
L 167.995398 117.152859 
L 168.044324 116.788082 
L 168.046899 116.82456 
L 168.134449 116.605694 
L 168.139599 116.605694 
L 168.144749 116.678649 
L 168.260625 116.313872 
L 168.281226 116.35035 
L 168.345601 115.949095 
L 168.500102 115.328975 
L 168.512977 115.219542 
L 168.734429 113.541568 
L 168.518127 115.256019 
L 168.737004 113.578046 
L 168.739579 113.614524 
L 168.80653 113.103836 
L 168.814255 113.140314 
L 168.953306 112.301327 
L 168.963606 112.228372 
L 169.112957 111.097563 
L 169.125832 110.98813 
L 169.450285 107.924005 
L 169.45286 107.960483 
L 169.519811 107.37684 
L 169.602211 102.415875 
L 169.638262 17.568782 
L 169.707787 105.00579 
L 169.777313 116.788082 
L 169.833963 116.386828 
L 169.844263 116.313872 
L 169.960139 115.912618 
L 169.967864 115.949095 
L 170.127516 115.256019 
L 170.132666 115.328975 
L 170.209916 114.45351 
L 170.215066 114.599421 
L 170.415918 113.322702 
L 170.426218 113.213269 
L 170.580719 111.973028 
L 170.598745 111.900072 
L 170.766121 110.295054 
L 171.152374 104.385669 
L 171.193574 17.605259 
L 171.2631 104.422147 
L 171.342926 116.131484 
L 171.391851 115.766707 
L 171.407301 115.657274 
L 171.528327 115.328975 
L 171.538627 115.365452 
L 171.587553 115.256019 
L 171.744629 114.599421 
L 171.754929 114.526466 
L 171.906855 113.286224 
L 171.90943 113.35918 
L 171.991831 112.702581 
L 171.994406 112.702581 
L 172.231308 110.915175 
L 172.251908 110.805742 
L 172.52486 108.507648 
L 172.54031 108.434692 
L 172.689662 107.340362 
L 172.699962 107.267407 
L 172.849313 105.370567 
L 172.854463 105.407045 
L 172.862188 105.334089 
L 172.908538 102.342919 
L 172.947164 17.204005 
L 173.016689 103.947937 
L 173.09394 115.511363 
L 173.14544 115.037153 
L 173.148015 115.073631 
L 173.207241 114.708854 
L 173.238141 114.854765 
L 173.364317 114.271122 
L 173.366892 114.344077 
L 173.521394 113.723957 
L 173.526544 113.651001 
L 173.675895 112.556671 
L 173.933397 110.477443 
L 173.935972 110.51392 
L 173.990047 109.930277 
L 174.000347 109.930277 
L 174.141974 108.762992 
L 174.149699 108.835947 
L 174.443251 104.166803 
L 174.476726 22.274403 
L 174.484451 17.605259 
L 174.533377 78.450036 
L 174.638953 115.219542 
L 174.667278 114.92772 
L 174.806329 114.489988 
L 174.821779 114.562943 
L 174.901605 114.125211 
L 175.107607 112.702581 
L 175.110182 112.739059 
L 175.130782 112.629626 
L 175.347084 111.097563 
L 175.349659 111.134041 
L 175.411459 110.550398 
L 175.416609 110.550398 
L 175.728187 107.595706 
L 175.730762 107.668661 
L 175.748787 107.559228 
L 175.995989 103.364294 
L 176.021739 38.908227 
L 176.037189 17.495826 
L 176.10929 103.291339 
L 176.18139 114.854765 
L 176.238041 114.489988 
L 176.263791 114.380555 
L 176.286966 114.417033 
L 176.387392 114.125211 
L 176.392542 114.198166 
L 176.472368 113.760434 
L 176.485243 113.760434 
L 176.487818 113.796912 
L 176.559918 113.286224 
L 176.565069 113.322702 
L 176.758195 112.155416 
L 176.783945 112.045983 
L 177.087798 109.310157 
L 177.092948 109.346634 
L 177.149598 108.653559 
L 177.316975 107.04854 
L 177.553877 102.197008 
L 177.595077 17.167527 
L 177.664603 102.342919 
L 177.754728 114.271122 
L 177.793354 113.942823 
L 177.911805 113.395657 
L 177.91953 113.50509 
L 177.947855 113.432135 
L 178.066306 113.103836 
L 178.068881 113.140314 
L 178.074031 113.213269 
L 178.156432 112.666104 
L 178.161582 112.666104 
L 178.331533 111.827117 
L 178.339258 111.754162 
L 178.498909 110.36801 
L 178.504059 110.404487 
L 179.034514 102.269964 
L 179.075714 17.27696 
L 179.14524 100.92029 
L 179.23279 113.50509 
L 179.273991 113.067358 
L 179.281716 113.140314 
L 179.340941 112.739059 
L 179.364116 112.848492 
L 179.479992 112.556671 
L 179.498018 112.447238 
L 179.680844 111.425862 
L 179.701444 111.316429 
L 179.938346 109.492545 
L 179.940921 109.529023 
L 180.007872 108.908902 
L 180.352925 105.589433 
L 180.3555 105.625911 
L 180.4173 105.00579 
L 180.425025 105.078745 
L 180.589827 99.789481 
L 180.628452 16.875706 
L 180.697977 100.044825 
L 180.764928 113.796912 
L 180.826729 113.286224 
L 180.947754 112.556671 
L 180.958055 112.593148 
L 180.97093 112.702581 
L 181.02243 112.483715 
L 181.06363 112.483715 
L 181.148606 112.41076 
L 181.300532 111.206996 
L 181.303107 111.279952 
L 181.385508 110.477443 
L 181.393233 110.51392 
L 181.455034 109.8938 
L 181.465334 109.784367 
L 181.61211 108.653559 
L 181.614685 108.690036 
L 182.111664 101.321544 
L 182.152864 17.021616 
L 182.22239 99.570615 
L 182.304791 112.994403 
L 182.351141 112.337805 
L 182.469592 111.717684 
L 182.479892 111.827117 
L 182.510792 111.93655 
L 182.572593 111.644729 
L 182.575168 111.644729 
L 182.580318 111.681206 
L 182.747694 110.732786 
L 182.750269 110.769264 
L 182.824945 110.36801 
L 182.830095 110.36801 
L 183.072147 108.398215 
L 183.077297 108.434692 
L 183.095322 108.325259 
L 183.265274 106.647286 
L 183.267849 106.683764 
L 183.332224 106.027165 
L 183.502175 104.276236 
L 183.50475 104.312714 
L 183.563976 103.619638 
L 183.687577 100.482557 
L 183.721052 22.675657 
L 183.728777 16.985139 
L 183.780278 79.17959 
L 183.885854 112.921448 
L 183.914179 112.520193 
L 183.919329 112.447238 
L 184.024905 112.009505 
L 184.04293 112.082461 
L 184.197431 111.46234 
L 184.205156 111.498818 
L 184.272107 111.024608 
L 184.277257 111.024608 
L 184.290132 110.915175 
L 184.498709 109.456068 
L 184.501284 109.492545 
L 184.62746 131.598022 
L 184.802561 137.069674 
L 185.057488 141.155175 
L 185.407691 144.584077 
L 185.410266 144.5476 
L 185.479792 145.131242 
L 185.482367 145.094765 
L 185.678068 146.298528 
L 185.690943 146.262051 
L 185.747594 146.663305 
L 185.760469 146.663305 
L 185.922695 147.392859 
L 185.953596 147.502292 
L 185.958746 147.465814 
L 186.100372 148.012979 
L 186.128697 148.122413 
L 186.249723 148.523667 
L 186.262598 148.487189 
L 186.280623 148.450712 
L 186.344999 148.742533 
L 186.355299 148.706055 
L 186.476325 148.888444 
L 186.48405 148.851966 
L 186.558726 149.10731 
L 186.571601 149.10731 
L 186.687477 149.362654 
L 186.605076 149.070832 
L 186.695202 149.326176 
L 186.697777 149.253221 
L 186.795628 149.508565 
L 186.800778 149.472087 
L 186.898628 149.545042 
L 187.006779 149.617998 
L 186.908928 149.508565 
L 187.009354 149.58152 
L 187.032529 149.617998 
L 187.112355 149.763908 
L 187.143255 149.654475 
L 187.243681 149.763908 
L 187.174156 149.617998 
L 187.256556 149.727431 
L 187.356982 149.617998 
L 187.279731 149.800386 
L 187.369857 149.690953 
L 187.841086 149.727431 
L 187.848811 149.545042 
L 187.951812 149.654475 
L 188.132063 149.545042 
L 188.209314 149.435609 
L 188.150089 149.617998 
L 188.247939 149.472087 
L 188.255664 149.545042 
L 188.338065 149.326176 
L 188.35094 149.362654 
L 188.386991 149.435609 
L 188.459091 149.326176 
L 188.520892 149.399131 
L 188.505442 149.289698 
L 188.569817 149.362654 
L 188.587842 149.399131 
L 188.688268 149.216743 
L 188.693418 149.326176 
L 188.786119 149.10731 
L 188.798994 149.216743 
L 188.829894 149.253221 
L 188.912295 149.143788 
L 188.994696 149.253221 
L 189.025596 149.180265 
L 189.146622 148.997877 
L 189.190397 149.070832 
L 189.231598 148.924922 
L 189.257348 148.997877 
L 189.507125 148.888444 
L 189.607551 148.815489 
L 189.53545 148.961399 
L 189.620426 148.851966 
L 189.653901 148.924922 
L 189.669351 148.815489 
L 189.731152 148.851966 
L 189.983504 148.815489 
L 190.065904 148.6331 
L 190.096805 148.706055 
L 190.217831 148.596622 
L 190.300231 148.523667 
L 190.248731 148.706055 
L 190.328557 148.596622 
L 190.392932 148.487189 
L 190.480483 148.450712 
L 190.405807 148.596622 
L 190.503658 148.487189 
L 190.642709 148.414234 
L 190.75601 148.268323 
L 190.78691 148.231846 
L 190.869311 148.341279 
L 190.951712 148.231846 
L 191.031537 148.195368 
L 190.980037 148.304801 
L 191.059863 148.231846 
L 191.111363 148.304801 
L 191.121663 148.15889 
L 191.170588 148.231846 
L 191.232389 148.085935 
L 191.198914 148.268323 
L 191.281314 148.195368 
L 191.368865 148.268323 
L 191.30449 148.15889 
L 191.39204 148.195368 
L 191.453841 148.085935 
L 191.420365 148.268323 
L 191.507916 148.122413 
L 191.744818 148.012979 
L 191.791169 147.976502 
L 191.755118 148.085935 
L 191.855544 148.012979 
L 192.383423 147.903546 
L 192.491574 147.794113 
L 192.414324 147.976502 
L 192.499299 147.830591 
L 192.563675 147.940024 
L 192.5714 147.794113 
L 192.610025 147.903546 
L 192.720751 147.794113 
L 192.620325 147.940024 
L 192.723326 147.830591 
L 192.816027 147.976502 
L 192.743926 147.794113 
L 192.834052 147.830591 
L 192.901003 147.940024 
L 193.009154 147.976502 
L 192.952503 147.830591 
L 193.011729 147.940024 
L 193.279531 147.940024 
L 193.367081 147.757636 
L 193.390257 147.830591 
L 193.475232 147.940024 
L 193.408282 147.757636 
L 193.498408 147.830591 
L 193.513858 147.721158 
L 193.596258 147.940024 
L 193.603983 147.903546 
L 194.018562 147.830591 
L 194.126713 147.757636 
L 194.095812 147.940024 
L 194.129288 147.794113 
L 194.636567 147.867069 
L 194.639142 147.940024 
L 194.690642 147.721158 
L 194.747293 147.867069 
L 194.762743 147.940024 
L 194.860594 147.794113 
L 194.924969 147.903546 
L 194.927544 147.940024 
L 194.930119 147.794113 
L 195.025395 147.794113 
L 195.094921 147.721158 
L 195.118096 147.903546 
L 195.130971 147.830591 
L 195.233972 147.867069 
L 195.141271 147.721158 
L 195.239122 147.794113 
L 195.5713 147.721158 
L 195.573875 147.648203 
L 195.58675 147.867069 
L 195.682025 147.721158 
L 195.754126 147.648203 
L 195.710351 147.757636 
L 195.795326 147.68468 
L 195.954978 147.794113 
L 195.980728 147.867069 
L 196.019353 147.68468 
L 196.063129 147.794113 
L 196.076004 147.68468 
L 196.122354 147.867069 
L 196.171279 147.794113 
L 196.27428 147.830591 
L 196.18673 147.721158 
L 196.282005 147.794113 
L 196.325781 147.721158 
L 196.305181 147.867069 
L 196.392731 147.794113 
L 196.513757 148.012979 
L 196.580708 147.867069 
L 196.627058 147.940024 
L 196.742934 147.794113 
L 196.704309 147.976502 
L 196.745509 147.830591 
L 196.758384 147.903546 
L 196.768684 147.757636 
L 196.856235 147.830591 
L 196.925761 147.757636 
L 196.902585 147.903546 
L 196.964386 147.830591 
L 197.023611 147.940024 
L 197.075112 147.830591 
L 197.160088 147.940024 
L 197.095712 147.794113 
L 197.185838 147.867069 
L 197.255363 147.757636 
L 197.214163 148.012979 
L 197.291414 147.940024 
L 197.639042 147.830591 
L 197.739467 147.794113 
L 197.672517 147.940024 
L 197.744617 147.903546 
L 197.747192 147.940024 
L 197.772943 147.794113 
L 197.852768 147.903546 
L 197.958344 147.794113 
L 197.878519 147.940024 
L 197.968644 147.830591 
L 198.07937 147.940024 
L 197.978944 147.794113 
L 198.08452 147.903546 
L 198.321422 148.012979 
L 198.388373 148.049457 
L 198.378073 147.903546 
L 198.424423 147.903546 
L 199.26388 147.830591 
L 199.361731 147.721158 
L 199.26903 147.867069 
L 199.374606 147.757636 
L 199.420956 147.867069 
L 199.410656 147.68468 
L 199.485332 147.757636 
L 199.539407 147.68468 
L 199.500782 147.830591 
L 199.596058 147.721158 
L 199.650133 147.830591 
L 199.632108 147.68468 
L 199.706784 147.794113 
L 199.802059 147.68468 
L 199.745409 147.830591 
L 199.817509 147.721158 
L 199.822659 147.68468 
L 199.933385 147.794113 
L 200.038961 147.68468 
L 200.049261 147.721158 
L 200.425214 147.611725 
L 200.450965 147.68468 
L 200.538515 147.53877 
L 200.636366 147.721158 
L 200.654391 147.648203 
L 200.695592 147.53877 
L 200.765117 147.648203 
L 200.904168 147.21047 
L 200.911893 147.283426 
L 200.983994 147.101037 
L 201.012319 147.137515 
L 201.681825 147.21047 
L 201.787401 147.319903 
L 201.7153 147.137515 
L 201.792551 147.283426 
L 201.805426 147.356381 
L 201.905852 147.173993 
L 201.990827 147.246948 
L 201.977952 147.101037 
L 202.014002 147.173993 
L 202.080953 147.101037 
L 202.096403 147.246948 
L 202.124728 147.137515 
L 202.160779 147.101037 
L 202.240604 147.246948 
L 202.292105 147.137515 
L 202.338455 147.283426 
L 202.35133 147.246948 
L 202.747883 147.283426 
L 202.838009 147.465814 
L 202.861184 147.392859 
L 202.922985 147.319903 
L 202.95646 147.502292 
L 202.969335 147.429337 
L 203.056886 147.502292 
L 203.072336 147.575247 
L 203.147012 147.429337 
L 203.165037 147.53877 
L 203.250013 147.429337 
L 203.221687 147.611725 
L 203.275763 147.53877 
L 204.061144 147.611725 
L 204.17187 147.757636 
L 204.10492 147.575247 
L 204.174445 147.68468 
L 204.218221 147.757636 
L 204.261996 147.575247 
L 204.285171 147.68468 
L 204.370147 147.53877 
L 204.401047 147.611725 
L 204.403622 147.648203 
L 204.488598 147.429337 
L 204.504048 147.53877 
L 204.570998 147.465814 
L 204.560698 147.648203 
L 204.609624 147.575247 
L 204.612199 147.611725 
L 204.658549 147.429337 
L 204.7152 147.502292 
L 204.815625 147.465814 
L 204.79245 147.575247 
L 204.820775 147.53877 
L 204.936651 147.68468 
L 204.869701 147.465814 
L 204.939226 147.648203 
L 204.983002 147.53877 
L 205.026777 147.757636 
L 205.047377 147.68468 
L 205.431056 147.757636 
L 205.433631 147.830591 
L 205.503156 147.611725 
L 205.536631 147.648203 
L 205.786408 147.721158 
L 205.876534 147.794113 
L 205.822459 147.648203 
L 205.897134 147.757636 
L 206.219012 147.68468 
L 206.327163 147.611725 
L 206.237037 147.757636 
L 206.329738 147.648203 
L 206.350338 147.757636 
L 206.342613 147.611725 
L 206.443039 147.68468 
L 206.708266 147.611725 
L 206.710841 147.502292 
L 206.795817 147.721158 
L 206.818992 147.611725 
L 207.722824 147.575247 
L 207.820675 147.465814 
L 207.83355 147.575247 
L 207.941701 147.392859 
L 207.949426 147.429337 
L 208.186328 147.53877 
L 208.266154 147.429337 
L 208.299629 147.575247 
L 208.410355 147.465814 
L 208.36143 147.611725 
L 208.41293 147.502292 
L 208.43868 147.429337 
L 208.513356 147.611725 
L 208.515931 147.611725 
L 208.603482 147.502292 
L 208.654982 147.465814 
L 208.618932 147.575247 
L 208.711632 147.53877 
L 209.298737 147.648203 
L 209.301312 147.721158 
L 209.316762 147.575247 
L 209.409463 147.648203 
L 209.59229 147.721158 
L 209.594865 147.794113 
L 209.682415 147.465814 
L 209.697866 147.575247 
L 209.818892 147.429337 
L 209.924467 147.575247 
L 209.880692 147.356381 
L 209.932192 147.465814 
L 210.032618 147.53877 
L 210.035193 147.648203 
L 210.055793 147.502292 
L 210.143344 147.611725 
L 210.174244 147.502292 
L 210.23347 147.721158 
L 210.251495 147.68468 
L 210.478097 147.575247 
L 210.480672 147.53877 
L 210.532172 147.721158 
L 210.583673 147.648203 
L 210.681524 147.794113 
L 210.596548 147.611725 
L 210.696974 147.721158 
L 210.799975 147.68468 
L 210.707274 147.757636 
L 210.8077 147.721158 
L 210.936451 147.794113 
L 210.957051 147.903546 
L 210.987951 147.721158 
L 211.049752 147.867069 
L 211.155328 147.903546 
L 211.163053 147.757636 
L 211.232578 147.903546 
L 211.271203 147.721158 
L 211.273778 147.794113 
L 211.358754 147.867069 
L 211.335579 147.721158 
L 211.384504 147.794113 
L 211.539006 147.867069 
L 211.572481 147.976502 
L 211.593081 147.794113 
L 211.649732 147.940024 
L 211.768183 147.794113 
L 211.804233 147.940024 
L 211.881483 147.867069 
L 211.914959 147.940024 
L 211.904659 147.830591 
L 211.992209 147.867069 
L 212.046285 147.830591 
L 212.061735 147.867069 
L 212.157011 147.721158 
L 212.198211 147.830591 
L 212.226536 147.648203 
L 212.267737 147.757636 
L 212.391338 147.429337 
L 212.283187 147.794113 
L 212.399063 147.465814 
L 212.607639 147.356381 
L 212.620515 147.319903 
L 212.66944 147.465814 
L 212.718365 147.356381 
L 213.004193 147.429337 
L 213.006768 147.502292 
L 213.081443 147.319903 
L 213.109769 147.392859 
L 213.207619 147.283426 
L 213.117494 147.429337 
L 213.223069 147.319903 
L 213.302895 147.392859 
L 213.32607 147.21047 
L 213.333795 147.319903 
L 213.488297 147.392859 
L 213.516622 147.53877 
L 213.552672 147.319903 
L 213.601598 147.502292 
L 213.647948 147.429337 
L 213.617048 147.575247 
L 213.712323 147.502292 
L 213.799874 147.575247 
L 213.725199 147.465814 
L 213.823049 147.502292 
L 213.8694 147.611725 
L 213.828199 147.465814 
L 213.938925 147.575247 
L 213.94665 147.429337 
L 214.003301 147.611725 
L 214.052226 147.502292 
L 214.497705 147.575247 
L 214.54663 147.648203 
L 214.50543 147.465814 
L 214.603281 147.502292 
L 214.611006 147.429337 
L 214.631606 147.575247 
L 214.711432 147.465814 
L 214.773232 147.611725 
L 214.822158 147.53877 
L 214.894258 147.465814 
L 214.871083 147.611725 
L 214.932884 147.502292 
L 215.035884 147.575247 
L 214.974084 147.429337 
L 215.043609 147.53877 
L 215.118285 147.465814 
L 215.149185 147.611725 
L 215.17236 147.502292 
L 215.272786 147.465814 
L 215.236736 147.611725 
L 215.280511 147.502292 
L 215.393812 147.648203 
L 215.396387 147.611725 
L 215.499388 147.465814 
L 215.507113 147.53877 
L 215.602389 147.575247 
L 215.522563 147.465814 
L 215.615264 147.53877 
L 215.666765 147.429337 
L 215.70024 147.648203 
L 215.723415 147.575247 
L 216.511371 147.465814 
L 216.513947 147.429337 
L 216.570597 147.611725 
L 216.614372 147.53877 
L 216.699348 147.611725 
L 216.619522 147.502292 
L 216.727673 147.575247 
L 217.371429 147.502292 
L 217.392029 147.392859 
L 217.417779 147.575247 
L 217.482154 147.502292 
L 217.59288 147.429337 
L 217.497605 147.53877 
L 217.595455 147.465814 
L 217.883858 147.575247 
L 217.981709 147.648203 
L 217.914758 147.502292 
L 217.994584 147.575247 
L 218.383412 147.502292 
L 218.396287 147.429337 
L 218.429762 147.575247 
L 218.494138 147.502292 
L 218.597139 147.575247 
L 218.512163 147.465814 
L 218.607439 147.53877 
L 218.74649 147.611725 
L 218.800565 147.721158 
L 218.759365 147.575247 
L 218.857216 147.611725 
L 219.001417 147.502292 
L 219.003992 147.465814 
L 219.006567 147.575247 
L 219.112143 147.502292 
L 219.158493 147.575247 
L 219.202269 147.648203 
L 219.240894 147.465814 
L 219.266644 147.502292 
L 219.279519 147.429337 
L 219.385095 147.648203 
L 219.446896 147.502292 
L 219.41857 147.721158 
L 219.503546 147.53877 
L 219.526721 147.721158 
L 219.616847 147.611725 
L 219.634872 147.648203 
L 219.730148 147.53877 
L 219.797098 147.648203 
L 219.763623 147.502292 
L 219.843449 147.611725 
L 219.95675 147.502292 
L 220.064901 147.392859 
L 219.969625 147.611725 
L 220.072626 147.429337 
L 220.191077 147.53877 
L 220.234852 147.392859 
L 220.301803 147.53877 
L 220.407378 147.465814 
L 220.306953 147.575247 
L 220.409953 147.502292 
L 220.474329 147.648203 
L 220.415104 147.465814 
L 220.520679 147.575247 
L 220.61853 147.502292 
L 220.530979 147.611725 
L 220.631405 147.53877 
L 220.690631 147.648203 
L 220.736981 147.465814 
L 220.739556 147.502292 
L 220.806507 147.429337 
L 220.834832 147.611725 
L 220.850282 147.502292 
L 220.878607 147.575247 
L 220.899208 147.392859 
L 220.958433 147.465814 
L 220.979033 147.392859 
L 221.027959 147.53877 
L 221.066584 147.465814 
L 221.148985 147.53877 
L 221.092334 147.429337 
L 221.17731 147.502292 
L 221.282886 147.392859 
L 221.290611 147.429337 
L 221.388462 147.575247 
L 221.406487 147.502292 
L 222.094017 147.611725 
L 222.104317 147.648203 
L 222.124918 147.502292 
L 222.199593 147.575247 
L 222.271694 147.502292 
L 222.235643 147.611725 
L 222.310319 147.575247 
L 222.506021 147.502292 
L 222.508596 147.429337 
L 222.565246 147.611725 
L 222.616747 147.502292 
L 222.910299 147.575247 
L 222.97725 147.68468 
L 222.936049 147.53877 
L 223.021025 147.648203 
L 223.072525 147.53877 
L 223.126601 147.721158 
L 223.134326 147.575247 
L 223.216727 147.53877 
L 223.167801 147.648203 
L 223.245052 147.575247 
L 223.896532 147.465814 
L 224.014983 146.991604 
L 224.035583 147.06456 
L 224.117984 146.991604 
L 224.23386 146.809216 
L 224.313686 146.882171 
L 224.246735 146.699783 
L 224.334286 146.736261 
L 224.344586 146.663305 
L 224.421836 146.882171 
L 224.445012 146.736261 
L 224.568613 147.028082 
L 224.571188 146.991604 
L 224.620113 146.918649 
L 224.669038 147.137515 
L 224.679339 147.028082 
L 224.728264 146.991604 
L 224.79779 147.173993 
L 224.851865 146.991604 
L 224.913665 147.101037 
L 225.070742 147.21047 
L 225.155717 147.283426 
L 225.083617 147.137515 
L 225.181468 147.21047 
L 225.186618 147.137515 
L 225.245843 147.319903 
L 225.284469 147.21047 
L 225.387469 147.356381 
L 225.395194 147.283426 
L 225.531671 147.319903 
L 225.534246 147.465814 
L 225.562571 147.246948 
L 225.642396 147.392859 
L 225.701622 147.502292 
L 225.650122 147.356381 
L 225.750547 147.392859 
L 225.856123 147.319903 
L 225.758272 147.465814 
L 225.861273 147.356381 
L 225.928224 147.429337 
L 225.953974 147.283426 
L 225.964274 147.319903 
L 225.966849 147.246948 
L 225.997749 147.429337 
L 226.075 147.319903 
L 226.098175 147.392859 
L 226.147101 147.21047 
L 226.180576 147.246948 
L 226.299027 147.356381 
L 226.306752 147.319903 
L 226.422628 147.575247 
L 226.438078 147.465814 
L 226.492153 147.648203 
L 226.533354 147.575247 
L 226.551379 147.68468 
L 226.584854 147.53877 
L 226.646655 147.648203 
L 226.74193 147.53877 
L 226.672405 147.68468 
L 226.757381 147.611725 
L 226.814031 147.575247 
L 226.873257 147.757636 
L 226.937632 147.648203 
L 226.981407 147.68468 
L 227.094708 147.794113 
L 227.146209 147.68468 
L 227.177109 147.867069 
L 227.202859 147.830591 
L 227.923865 147.721158 
L 227.970216 147.611725 
L 228.008841 147.757636 
L 228.034591 147.721158 
L 228.101542 147.830591 
L 228.104117 147.867069 
L 228.142742 147.648203 
L 228.207118 147.794113 
L 228.322993 147.648203 
L 228.351319 147.757636 
L 228.425994 147.611725 
L 228.431144 147.611725 
L 228.48522 147.53877 
L 228.601096 147.319903 
L 228.650021 147.356381 
L 228.698947 147.173993 
L 228.706672 147.246948 
L 228.807097 147.21047 
L 228.714397 147.319903 
L 228.814822 147.283426 
L 228.866323 147.173993 
L 228.874048 147.246948 
L 229.000224 146.809216 
L 229.041424 146.882171 
L 229.010524 146.736261 
L 229.11095 146.845694 
L 229.208801 146.736261 
L 229.221676 146.809216 
L 229.533253 146.918649 
L 229.595054 147.028082 
L 229.646554 146.991604 
L 229.66973 146.918649 
L 229.74698 147.137515 
L 229.75213 147.101037 
L 229.831956 147.21047 
L 229.911781 147.356381 
L 229.844831 147.137515 
L 229.945257 147.246948 
L 230.076583 147.356381 
L 230.081733 147.429337 
L 230.166709 147.283426 
L 230.187309 147.356381 
L 230.385585 147.465814 
L 230.447386 147.53877 
L 230.39846 147.392859 
L 230.493736 147.465814 
L 230.529787 147.429337 
L 230.568412 147.611725 
L 230.599312 147.53877 
L 230.692013 147.68468 
L 230.607037 147.502292 
L 230.712613 147.575247 
L 230.782139 147.648203 
L 230.887715 147.757636 
L 230.800164 147.575247 
L 230.89544 147.721158 
L 230.99329 147.611725 
L 231.006165 147.68468 
L 231.230192 147.575247 
L 231.268818 147.53877 
L 231.291993 147.68468 
L 231.338343 147.611725 
L 231.428469 147.721158 
L 231.343493 147.575247 
L 231.451644 147.68468 
L 231.575245 147.575247 
L 231.58297 147.53877 
L 231.644771 147.721158 
L 231.680821 147.611725 
L 231.776097 147.721158 
L 231.794122 147.68468 
L 231.969223 147.575247 
L 231.997549 147.68468 
L 232.085099 147.502292 
L 232.090249 147.465814 
L 232.206125 147.68468 
L 232.226726 147.53877 
L 232.316851 147.611725 
L 232.551178 147.648203 
L 232.664479 147.757636 
L 232.72628 147.611725 
L 232.780355 147.68468 
L 232.844731 147.757636 
L 232.903956 147.830591 
L 232.921981 147.648203 
L 232.955456 147.757636 
L 232.970907 147.648203 
L 233.045582 147.867069 
L 233.061032 147.794113 
L 233.109958 147.903546 
L 233.117683 147.721158 
L 233.174333 147.867069 
L 233.282484 147.757636 
L 233.290209 147.794113 
L 233.576037 147.830591 
L 233.614662 147.940024 
L 233.637837 147.794113 
L 233.684187 147.794113 
L 233.758863 147.757636 
L 233.704788 147.903546 
L 233.794913 147.794113 
L 233.848989 147.903546 
L 233.805213 147.757636 
L 233.905639 147.830591 
L 234.54682 147.721158 
L 234.549395 147.648203 
L 234.57257 147.830591 
L 234.65497 147.757636 
L 234.739946 147.830591 
L 234.662696 147.721158 
L 234.765696 147.794113 
L 234.824922 147.68468 
L 234.770846 147.830591 
L 234.878997 147.757636 
L 235.499577 147.68468 
L 235.551078 147.575247 
L 235.525328 147.757636 
L 235.610303 147.68468 
L 235.703004 147.575247 
L 235.723604 147.648203 
L 235.81373 147.757636 
L 235.83948 147.794113 
L 235.87038 147.648203 
L 235.924456 147.757636 
L 236.104707 147.68468 
L 236.163933 147.757636 
L 236.215433 147.611725 
L 236.308134 147.757636 
L 236.256634 147.575247 
L 236.326159 147.721158 
L 236.421435 147.575247 
L 236.341609 147.757636 
L 236.436885 147.68468 
L 236.599111 147.794113 
L 236.696962 147.867069 
L 236.606836 147.721158 
L 236.709837 147.830591 
L 236.743313 147.721158 
L 236.766488 147.903546 
L 236.823138 147.794113 
L 236.874639 147.940024 
L 236.931289 147.757636 
L 236.933864 147.830591 
L 236.944164 147.867069 
L 237.052315 147.721158 
L 237.165616 147.794113 
L 237.204241 147.68468 
L 237.196516 147.830591 
L 237.278917 147.757636 
L 237.446293 147.721158 
L 237.448868 147.611725 
L 237.472044 147.757636 
L 237.557019 147.68468 
L 237.569894 147.794113 
L 237.61367 147.611725 
L 237.667745 147.721158 
L 237.768171 147.429337 
L 237.793921 147.465814 
L 237.804221 147.53877 
L 237.863447 147.392859 
L 237.902072 147.502292 
L 237.984473 147.356381 
L 238.012798 147.429337 
L 238.123524 147.502292 
L 238.059148 147.319903 
L 238.126099 147.465814 
L 238.21365 147.319903 
L 238.1982 147.502292 
L 238.241975 147.392859 
L 238.342401 147.465814 
L 238.25485 147.356381 
L 238.350126 147.429337 
L 238.352701 147.356381 
L 238.401626 147.502292 
L 238.458277 147.429337 
L 238.496902 147.53877 
L 238.473727 147.392859 
L 238.569003 147.429337 
L 238.664278 147.356381 
L 238.666853 147.283426 
L 238.764704 147.502292 
L 238.772429 147.429337 
L 238.86513 147.502292 
L 238.867705 147.575247 
L 238.932081 147.356381 
L 238.973281 147.429337 
L 239.001606 147.465814 
L 239.086582 147.356381 
L 239.145807 147.465814 
L 239.168983 147.319903 
L 239.199883 147.392859 
L 239.205033 147.319903 
L 239.295159 147.502292 
L 239.308034 147.429337 
L 239.583561 147.319903 
L 239.691712 147.246948 
L 239.665962 147.392859 
L 239.696862 147.283426 
L 239.735487 147.392859 
L 239.738062 147.465814 
L 239.830763 147.283426 
L 239.843638 147.356381 
L 240.12174 147.429337 
L 240.124315 147.502292 
L 240.150066 147.356381 
L 240.229891 147.392859 
L 240.232466 147.319903 
L 240.273667 147.465814 
L 240.340617 147.392859 
L 241.234149 147.502292 
L 241.3217 147.53877 
L 241.267625 147.392859 
L 241.344875 147.502292 
L 241.35775 147.392859 
L 241.440151 147.575247 
L 241.453026 147.53877 
L 241.535427 147.429337 
L 241.558602 147.392859 
L 241.566327 147.575247 
L 241.643578 147.429337 
L 241.762029 147.575247 
L 241.790354 147.465814 
L 241.844429 147.68468 
L 241.872755 147.575247 
L 241.877905 147.465814 
L 241.960305 147.648203 
L 241.978331 147.575247 
L 242.060731 147.721158 
L 241.991206 147.53877 
L 242.089056 147.611725 
L 242.194632 147.502292 
L 242.094207 147.648203 
L 242.202357 147.575247 
L 242.222958 147.648203 
L 242.212657 147.465814 
L 242.315658 147.611725 
L 242.392909 147.465814 
L 242.434109 147.502292 
L 242.446984 147.611725 
L 242.49591 147.429337 
L 242.54226 147.53877 
L 242.637536 147.465814 
L 242.570585 147.575247 
L 242.652986 147.53877 
L 242.727662 147.429337 
L 242.704487 147.611725 
L 242.766287 147.502292 
L 242.856413 147.648203 
L 242.879588 147.611725 
L 242.969714 147.53877 
L 242.884738 147.648203 
L 242.990314 147.575247 
L 242.992889 147.648203 
L 243.039239 147.502292 
L 243.098465 147.53877 
L 243.12679 147.429337 
L 243.15254 147.575247 
L 243.211766 147.502292 
L 243.270991 147.429337 
L 243.325067 147.53877 
L 243.883846 147.502292 
L 243.948222 147.53877 
L 243.994572 147.392859 
L 244.028047 147.53877 
L 243.999722 147.356381 
L 244.107873 147.429337 
L 244.200574 147.53877 
L 244.203149 147.575247 
L 244.249499 147.392859 
L 244.30615 147.502292 
L 244.329325 147.429337 
L 244.36795 147.611725 
L 244.411726 147.575247 
L 244.452926 147.465814 
L 244.545627 147.392859 
L 244.517301 147.53877 
L 244.563652 147.429337 
L 244.651203 147.53877 
L 244.676953 147.502292 
L 244.707853 147.356381 
L 244.790254 147.465814 
L 244.898405 147.53877 
L 244.836604 147.356381 
L 244.90098 147.502292 
L 244.996255 147.392859 
L 245.01428 147.465814 
L 245.065781 147.502292 
L 245.055481 147.392859 
L 245.122431 147.465814 
L 245.253757 147.137515 
L 245.276933 147.246948 
L 245.328433 147.028082 
L 245.364483 147.137515 
L 245.804812 147.173993 
L 245.892363 147.283426 
L 245.843437 147.137515 
L 245.915538 147.246948 
L 245.920688 147.319903 
L 245.923263 147.392859 
L 245.956738 147.21047 
L 246.028839 147.283426 
L 246.355867 147.392859 
L 246.391917 147.319903 
L 246.466592 147.429337 
L 246.507793 147.283426 
L 246.577318 147.356381 
L 246.597918 147.429337 
L 246.644269 147.283426 
L 246.685469 147.319903 
L 246.713794 147.21047 
L 246.690619 147.356381 
L 246.796195 147.319903 
L 247.457976 147.392859 
L 247.460551 147.465814 
L 247.468276 147.319903 
L 247.568701 147.429337 
L 247.653677 147.319903 
L 247.584152 147.465814 
L 247.679427 147.356381 
L 247.785003 147.465814 
L 247.720628 147.283426 
L 247.795303 147.429337 
L 247.890579 147.356381 
L 247.862254 147.502292 
L 247.906029 147.429337 
L 247.96268 147.53877 
L 247.99358 147.611725 
L 248.068256 147.429337 
L 248.155806 147.53877 
L 248.158381 147.611725 
L 248.160956 147.429337 
L 248.266532 147.53877 
L 248.307733 147.53877 
L 248.312883 147.68468 
L 248.359233 147.611725 
" clip-path="url(#pe9bfae8069)" style="fill: none; stroke: #000000; stroke-opacity: 0.5; stroke-width: 1.5; stroke-linecap: square"/>
   </g>
   <g id="patch_3">
    <path d="M 35.304688 173.52 
L 35.304688 7.2 
" style="fill: none; stroke: #000000; stroke-width: 0.8; stroke-linejoin: miter; stroke-linecap: square"/>
   </g>
   <g id="patch_4">
    <path d="M 35.304688 173.52 
L 258.504687 173.52 
" style="fill: none; stroke: #000000; stroke-width: 0.8; stroke-linejoin: miter; stroke-linecap: square"/>
   </g>
  </g>
 </g>
 <defs>
  <clipPath id="pe9bfae8069">
   <rect x="35.304688" y="7.2" width="223.2" height="166.32"/>
  </clipPath>
 </defs>
</svg>
