<?xml version="1.0" encoding="utf-8" standalone="no"?>
<!DOCTYPE svg PUBLIC "-//W3C//DTD SVG 1.1//EN"
  "http://www.w3.org/Graphics/SVG/1.1/DTD/svg11.dtd">
<svg xmlns:xlink="http://www.w3.org/1999/xlink" width="265.704687pt" height="197.398125pt" viewBox="0 0 265.704687 197.398125" xmlns="http://www.w3.org/2000/svg" version="1.1">
 <metadata>
  <rdf:RDF xmlns:dc="http://purl.org/dc/elements/1.1/" xmlns:cc="http://creativecommons.org/ns#" xmlns:rdf="http://www.w3.org/1999/02/22-rdf-syntax-ns#">
   <cc:Work>
    <dc:type rdf:resource="http://purl.org/dc/dcmitype/StillImage"/>
    <dc:date>2025-12-19T11:59:58.359170</dc:date>
    <dc:format>image/svg+xml</dc:format>
    <dc:creator>
     <cc:Agent>
      <dc:title>Matplotlib v3.10.7, https://matplotlib.org/</dc:title>
     </cc:Agent>
    </dc:creator>
   </cc:Work>
  </rdf:RDF>
 </metadata>
 <defs>
  <style type="text/css">*{stroke-linejoin: round; stroke-linecap: butt}</style>
 </defs>
 <g id="figure_1">
  <g id="patch_1">
   <path d="M 0 197.398125 
L 265.704687 197.398125 
L 265.704687 0 
L 0 0 
z
" style="fill: #ffffff"/>
  </g>
  <g id="axes_1">
   <g id="patch_2">
    <path d="M 35.304688 173.52 
L 258.504687 173.52 
L 258.504687 7.2 
L 35.304688 7.2 
z
" style="fill: #ffffff"/>
   </g>
   <g id="matplotlib.axis_1">
    <g id="xtick_1">
     <g id="line2d_1">
      <defs>
       <path id="md81e4cfc59" d="M 0 0 
L 0 3.5 
" style="stroke: #000000; stroke-width: 0.8"/>
      </defs>
      <g>
       <use xlink:href="#md81e4cfc59" x="76.350396" y="173.52" style="stroke: #000000; stroke-width: 0.8"/>
      </g>
     </g>
     <g id="text_1">
      <!-- 1 -->
      <g transform="translate(73.169146 188.118438) scale(0.1 -0.1)">
       <defs>
        <path id="DejaVuSans-31" d="M 794 531 
L 1825 531 
L 1825 4091 
L 703 3866 
L 703 4441 
L 1819 4666 
L 2450 4666 
L 2450 531 
L 3481 531 
L 3481 0 
L 794 0 
L 794 531 
z
" transform="scale(0.015625)"/>
       </defs>
       <use xlink:href="#DejaVuSans-31"/>
      </g>
     </g>
    </g>
    <g id="xtick_2">
     <g id="line2d_2">
      <g>
       <use xlink:href="#md81e4cfc59" x="127.850819" y="173.52" style="stroke: #000000; stroke-width: 0.8"/>
      </g>
     </g>
     <g id="text_2">
      <!-- 2 -->
      <g transform="translate(124.669569 188.118438) scale(0.1 -0.1)">
       <defs>
        <path id="DejaVuSans-32" d="M 1228 531 
L 3431 531 
L 3431 0 
L 469 0 
L 469 531 
Q 828 903 1448 1529 
Q 2069 2156 2228 2338 
Q 2531 2678 2651 2914 
Q 2772 3150 2772 3378 
Q 2772 3750 2511 3984 
Q 2250 4219 1831 4219 
Q 1534 4219 1204 4116 
Q 875 4013 500 3803 
L 500 4441 
Q 881 4594 1212 4672 
Q 1544 4750 1819 4750 
Q 2544 4750 2975 4387 
Q 3406 4025 3406 3419 
Q 3406 3131 3298 2873 
Q 3191 2616 2906 2266 
Q 2828 2175 2409 1742 
Q 1991 1309 1228 531 
z
" transform="scale(0.015625)"/>
       </defs>
       <use xlink:href="#DejaVuSans-32"/>
      </g>
     </g>
    </g>
    <g id="xtick_3">
     <g id="line2d_3">
      <g>
       <use xlink:href="#md81e4cfc59" x="179.351241" y="173.52" style="stroke: #000000; stroke-width: 0.8"/>
      </g>
     </g>
     <g id="text_3">
      <!-- 3 -->
      <g transform="translate(176.169991 188.118438) scale(0.1 -0.1)">
       <defs>
        <path id="DejaVuSans-33" d="M 2597 2516 
Q 3050 2419 3304 2112 
Q 3559 1806 3559 1356 
Q 3559 666 3084 287 
Q 2609 -91 1734 -91 
Q 1441 -91 1130 -33 
Q 819 25 488 141 
L 488 750 
Q 750 597 1062 519 
Q 1375 441 1716 441 
Q 2309 441 2620 675 
Q 2931 909 2931 1356 
Q 2931 1769 2642 2001 
Q 2353 2234 1838 2234 
L 1294 2234 
L 1294 2753 
L 1863 2753 
Q 2328 2753 2575 2939 
Q 2822 3125 2822 3475 
Q 2822 3834 2567 4026 
Q 2313 4219 1838 4219 
Q 1578 4219 1281 4162 
Q 984 4106 628 3988 
L 628 4550 
Q 988 4650 1302 4700 
Q 1616 4750 1894 4750 
Q 2613 4750 3031 4423 
Q 3450 4097 3450 3541 
Q 3450 3153 3228 2886 
Q 3006 2619 2597 2516 
z
" transform="scale(0.015625)"/>
       </defs>
       <use xlink:href="#DejaVuSans-33"/>
      </g>
     </g>
    </g>
    <g id="xtick_4">
     <g id="line2d_4">
      <g>
       <use xlink:href="#md81e4cfc59" x="230.851664" y="173.52" style="stroke: #000000; stroke-width: 0.8"/>
      </g>
     </g>
     <g id="text_4">
      <!-- 4 -->
      <g transform="translate(227.670414 188.118438) scale(0.1 -0.1)">
       <defs>
        <path id="DejaVuSans-34" d="M 2419 4116 
L 825 1625 
L 2419 1625 
L 2419 4116 
z
M 2253 4666 
L 3047 4666 
L 3047 1625 
L 3713 1625 
L 3713 1100 
L 3047 1100 
L 3047 0 
L 2419 0 
L 2419 1100 
L 313 1100 
L 313 1709 
L 2253 4666 
z
" transform="scale(0.015625)"/>
       </defs>
       <use xlink:href="#DejaVuSans-34"/>
      </g>
     </g>
    </g>
   </g>
   <g id="matplotlib.axis_2">
    <g id="ytick_1">
     <g id="line2d_5">
      <defs>
       <path id="m5c6d58d287" d="M 0 0 
L -3.5 0 
" style="stroke: #000000; stroke-width: 0.8"/>
      </defs>
      <g>
       <use xlink:href="#m5c6d58d287" x="35.304688" y="160.990937" style="stroke: #000000; stroke-width: 0.8"/>
      </g>
     </g>
     <g id="text_5">
      <!-- −80 -->
      <g transform="translate(7.2 164.790156) scale(0.1 -0.1)">
       <defs>
        <path id="DejaVuSans-2212" d="M 678 2272 
L 4684 2272 
L 4684 1741 
L 678 1741 
L 678 2272 
z
" transform="scale(0.015625)"/>
        <path id="DejaVuSans-38" d="M 2034 2216 
Q 1584 2216 1326 1975 
Q 1069 1734 1069 1313 
Q 1069 891 1326 650 
Q 1584 409 2034 409 
Q 2484 409 2743 651 
Q 3003 894 3003 1313 
Q 3003 1734 2745 1975 
Q 2488 2216 2034 2216 
z
M 1403 2484 
Q 997 2584 770 2862 
Q 544 3141 544 3541 
Q 544 4100 942 4425 
Q 1341 4750 2034 4750 
Q 2731 4750 3128 4425 
Q 3525 4100 3525 3541 
Q 3525 3141 3298 2862 
Q 3072 2584 2669 2484 
Q 3125 2378 3379 2068 
Q 3634 1759 3634 1313 
Q 3634 634 3220 271 
Q 2806 -91 2034 -91 
Q 1263 -91 848 271 
Q 434 634 434 1313 
Q 434 1759 690 2068 
Q 947 2378 1403 2484 
z
M 1172 3481 
Q 1172 3119 1398 2916 
Q 1625 2713 2034 2713 
Q 2441 2713 2670 2916 
Q 2900 3119 2900 3481 
Q 2900 3844 2670 4047 
Q 2441 4250 2034 4250 
Q 1625 4250 1398 4047 
Q 1172 3844 1172 3481 
z
" transform="scale(0.015625)"/>
        <path id="DejaVuSans-30" d="M 2034 4250 
Q 1547 4250 1301 3770 
Q 1056 3291 1056 2328 
Q 1056 1369 1301 889 
Q 1547 409 2034 409 
Q 2525 409 2770 889 
Q 3016 1369 3016 2328 
Q 3016 3291 2770 3770 
Q 2525 4250 2034 4250 
z
M 2034 4750 
Q 2819 4750 3233 4129 
Q 3647 3509 3647 2328 
Q 3647 1150 3233 529 
Q 2819 -91 2034 -91 
Q 1250 -91 836 529 
Q 422 1150 422 2328 
Q 422 3509 836 4129 
Q 1250 4750 2034 4750 
z
" transform="scale(0.015625)"/>
       </defs>
       <use xlink:href="#DejaVuSans-2212"/>
       <use xlink:href="#DejaVuSans-38" transform="translate(83.789062 0)"/>
       <use xlink:href="#DejaVuSans-30" transform="translate(147.412109 0)"/>
      </g>
     </g>
    </g>
    <g id="ytick_2">
     <g id="line2d_6">
      <g>
       <use xlink:href="#m5c6d58d287" x="35.304688" y="137.822728" style="stroke: #000000; stroke-width: 0.8"/>
      </g>
     </g>
     <g id="text_6">
      <!-- −60 -->
      <g transform="translate(7.2 141.621947) scale(0.1 -0.1)">
       <defs>
        <path id="DejaVuSans-36" d="M 2113 2584 
Q 1688 2584 1439 2293 
Q 1191 2003 1191 1497 
Q 1191 994 1439 701 
Q 1688 409 2113 409 
Q 2538 409 2786 701 
Q 3034 994 3034 1497 
Q 3034 2003 2786 2293 
Q 2538 2584 2113 2584 
z
M 3366 4563 
L 3366 3988 
Q 3128 4100 2886 4159 
Q 2644 4219 2406 4219 
Q 1781 4219 1451 3797 
Q 1122 3375 1075 2522 
Q 1259 2794 1537 2939 
Q 1816 3084 2150 3084 
Q 2853 3084 3261 2657 
Q 3669 2231 3669 1497 
Q 3669 778 3244 343 
Q 2819 -91 2113 -91 
Q 1303 -91 875 529 
Q 447 1150 447 2328 
Q 447 3434 972 4092 
Q 1497 4750 2381 4750 
Q 2619 4750 2861 4703 
Q 3103 4656 3366 4563 
z
" transform="scale(0.015625)"/>
       </defs>
       <use xlink:href="#DejaVuSans-2212"/>
       <use xlink:href="#DejaVuSans-36" transform="translate(83.789062 0)"/>
       <use xlink:href="#DejaVuSans-30" transform="translate(147.412109 0)"/>
      </g>
     </g>
    </g>
    <g id="ytick_3">
     <g id="line2d_7">
      <g>
       <use xlink:href="#m5c6d58d287" x="35.304688" y="114.654519" style="stroke: #000000; stroke-width: 0.8"/>
      </g>
     </g>
     <g id="text_7">
      <!-- −40 -->
      <g transform="translate(7.2 118.453738) scale(0.1 -0.1)">
       <use xlink:href="#DejaVuSans-2212"/>
       <use xlink:href="#DejaVuSans-34" transform="translate(83.789062 0)"/>
       <use xlink:href="#DejaVuSans-30" transform="translate(147.412109 0)"/>
      </g>
     </g>
    </g>
    <g id="ytick_4">
     <g id="line2d_8">
      <g>
       <use xlink:href="#m5c6d58d287" x="35.304688" y="91.48631" style="stroke: #000000; stroke-width: 0.8"/>
      </g>
     </g>
     <g id="text_8">
      <!-- −20 -->
      <g transform="translate(7.2 95.285529) scale(0.1 -0.1)">
       <use xlink:href="#DejaVuSans-2212"/>
       <use xlink:href="#DejaVuSans-32" transform="translate(83.789062 0)"/>
       <use xlink:href="#DejaVuSans-30" transform="translate(147.412109 0)"/>
      </g>
     </g>
    </g>
    <g id="ytick_5">
     <g id="line2d_9">
      <g>
       <use xlink:href="#m5c6d58d287" x="35.304688" y="68.318101" style="stroke: #000000; stroke-width: 0.8"/>
      </g>
     </g>
     <g id="text_9">
      <!-- 0 -->
      <g transform="translate(21.942187 72.11732) scale(0.1 -0.1)">
       <use xlink:href="#DejaVuSans-30"/>
      </g>
     </g>
    </g>
    <g id="ytick_6">
     <g id="line2d_10">
      <g>
       <use xlink:href="#m5c6d58d287" x="35.304688" y="45.149892" style="stroke: #000000; stroke-width: 0.8"/>
      </g>
     </g>
     <g id="text_10">
      <!-- 20 -->
      <g transform="translate(15.579687 48.949111) scale(0.1 -0.1)">
       <use xlink:href="#DejaVuSans-32"/>
       <use xlink:href="#DejaVuSans-30" transform="translate(63.623047 0)"/>
      </g>
     </g>
    </g>
    <g id="ytick_7">
     <g id="line2d_11">
      <g>
       <use xlink:href="#m5c6d58d287" x="35.304688" y="21.981684" style="stroke: #000000; stroke-width: 0.8"/>
      </g>
     </g>
     <g id="text_11">
      <!-- 40 -->
      <g transform="translate(15.579687 25.780902) scale(0.1 -0.1)">
       <use xlink:href="#DejaVuSans-34"/>
       <use xlink:href="#DejaVuSans-30" transform="translate(63.623047 0)"/>
      </g>
     </g>
    </g>
   </g>
   <g id="line2d_12">
    <path d="M 45.450142 144.36 
L 45.558293 144.183241 
L 45.571168 144.218592 
L 45.645844 144.147889 
L 45.689619 144.324648 
L 45.753995 144.183241 
L 45.80292 144.218592 
L 45.916221 144.324648 
L 46.099047 144.253944 
L 46.109347 144.289296 
L 46.214923 144.112537 
L 46.225223 144.183241 
L 46.276724 144.253944 
L 46.284449 144.112537 
L 46.335949 144.183241 
L 46.475 144.112537 
L 46.544526 144.041833 
L 46.557401 144.183241 
L 46.585726 144.077185 
L 46.614052 144.147889 
L 46.688727 144.006481 
L 46.693877 144.041833 
L 46.948804 144.147889 
L 46.98228 144.006481 
L 47.062105 144.183241 
L 47.172831 144.077185 
L 47.175406 144.147889 
L 47.319607 144.041833 
L 47.396858 144.006481 
L 47.412308 144.147889 
L 47.427758 144.041833 
L 47.461234 144.112537 
L 47.432908 143.935777 
L 47.538484 144.041833 
L 47.543634 143.935777 
L 47.556509 144.077185 
L 47.646635 144.077185 
L 47.698136 144.006481 
L 47.788261 144.112537 
L 47.808861 143.935777 
L 47.924737 144.112537 
L 47.986538 143.935777 
L 48.040613 143.971129 
L 48.138464 143.935777 
L 48.050913 144.077185 
L 48.148764 144.006481 
L 48.169364 143.935777 
L 48.25949 144.077185 
L 48.272365 144.112537 
L 48.370216 144.006481 
L 48.462917 144.147889 
L 48.375366 143.971129 
L 48.486092 144.077185 
L 48.722994 144.147889 
L 48.820845 144.218592 
L 48.764194 144.077185 
L 48.831145 144.077185 
L 48.89037 144.183241 
L 48.913545 144.041833 
L 48.941871 144.077185 
L 49.158172 143.971129 
L 49.160748 143.935777 
L 49.243148 144.147889 
L 49.261173 144.077185 
L 50.327232 144.147889 
L 50.389033 144.253944 
L 50.399333 144.112537 
L 50.440533 144.218592 
L 50.499759 144.289296 
L 50.479158 144.147889 
L 50.551259 144.218592 
L 50.600184 144.147889 
L 50.602759 144.854926 
L 50.759836 148.708282 
L 50.764986 148.778985 
L 50.934937 150.405172 
L 50.945237 150.475876 
L 51.092013 151.50108 
L 51.110039 151.607136 
L 51.251665 152.490933 
L 51.25424 152.455581 
L 51.328915 152.915155 
L 51.33149 152.879804 
L 51.33664 152.844452 
L 51.509167 153.798953 
L 51.537492 153.905008 
L 51.547792 153.869656 
L 51.691993 154.50599 
L 51.715168 154.612046 
L 51.720319 154.576694 
L 51.861945 155.106972 
L 51.89542 155.177676 
L 52.021596 155.63725 
L 52.031896 155.601899 
L 52.103997 155.920065 
L 52.114297 155.849362 
L 52.127172 155.778658 
L 52.253348 156.238232 
L 52.284248 156.344288 
L 52.410424 156.591751 
L 52.412999 156.521047 
L 52.45935 156.768511 
L 52.513425 156.768511 
L 52.5366 156.803863 
L 52.647326 157.051326 
L 52.652476 157.015974 
L 52.693677 157.122029 
L 52.709127 157.051326 
L 52.819853 157.334141 
L 52.871353 157.298789 
L 52.915128 157.475548 
L 52.920278 157.440196 
L 53.036154 157.616956 
L 52.930578 157.404845 
L 53.041304 157.581604 
L 53.103105 157.546252 
L 53.097955 157.68766 
L 53.144305 157.68766 
L 53.239581 157.864419 
L 53.159755 157.616956 
L 53.260181 157.758363 
L 53.316832 157.793715 
L 53.432708 158.005827 
L 53.455883 157.864419 
L 53.504808 158.041178 
L 53.540858 158.041178 
L 53.625834 158.147234 
L 53.739135 158.288642 
L 53.633559 158.111882 
L 53.74171 158.25329 
L 53.744285 158.217938 
L 53.811236 158.394697 
L 53.844711 158.359345 
L 53.942562 158.430049 
L 54.032688 158.536105 
L 53.952862 158.394697 
L 54.053288 158.430049 
L 54.169164 158.64216 
L 54.174314 158.571457 
L 54.243839 158.536105 
L 54.182039 158.64216 
L 54.27989 158.64216 
L 54.645543 158.712864 
L 54.673868 158.854272 
L 54.653268 158.677512 
L 54.756268 158.783568 
L 54.763994 158.64216 
L 54.774294 158.81892 
L 54.866994 158.783568 
L 54.954545 158.712864 
L 54.928795 158.854272 
L 54.97772 158.748216 
L 54.98802 158.712864 
L 55.088446 158.854272 
L 55.157972 158.677512 
L 55.201747 158.783568 
L 55.266123 158.712864 
L 55.312473 158.748216 
L 55.361398 158.712864 
L 55.428349 158.854272 
L 55.492724 158.748216 
L 55.539075 158.81892 
L 55.639501 158.854272 
L 55.544225 158.712864 
L 55.649801 158.81892 
L 55.685851 158.783568 
L 55.709026 158.606809 
L 55.796577 158.748216 
L 55.876403 158.677512 
L 55.812027 158.81892 
L 55.909878 158.712864 
L 56.010304 158.783568 
L 55.945928 158.677512 
L 56.018029 158.712864 
L 56.033479 158.606809 
L 56.048929 158.748216 
L 56.128755 158.712864 
L 56.78281 158.64216 
L 56.831735 158.500753 
L 56.896111 158.571457 
L 56.914136 158.64216 
L 56.991387 158.500753 
L 57.006837 158.571457 
L 57.470341 158.465401 
L 57.555316 158.323993 
L 57.483216 158.500753 
L 57.588792 158.359345 
L 57.660892 158.288642 
L 57.702093 158.465401 
L 57.805093 158.217938 
L 57.817969 158.288642 
L 58.466874 158.217938 
L 58.536399 158.07653 
L 58.564725 158.25329 
L 58.5776 158.182586 
L 58.6188 158.07653 
L 58.636825 158.217938 
L 58.688326 158.182586 
L 59.20848 158.111882 
L 59.226505 158.182586 
L 59.321781 158.041178 
L 59.332081 158.111882 
L 59.334656 158.182586 
L 59.375856 158.005827 
L 59.442807 158.111882 
L 59.499457 158.041178 
L 59.556108 158.111882 
L 59.612758 157.935123 
L 59.625633 158.041178 
L 59.659109 157.899771 
L 59.723484 157.970475 
L 60.096862 157.864419 
L 60.112312 157.935123 
L 60.210163 157.793715 
L 60.900269 157.793715 
L 61.026445 153.657545 
L 61.363773 150.546579 
L 61.392098 150.440524 
L 61.520849 149.556727 
L 61.523424 149.592079 
L 61.544024 149.486023 
L 61.724276 148.460818 
L 61.726851 148.49617 
L 61.729426 148.566874 
L 61.814401 148.142651 
L 61.824701 148.142651 
L 61.989503 147.400262 
L 62.015253 147.294206 
L 62.162029 146.693224 
L 62.167179 146.728576 
L 62.195505 146.62252 
L 62.337131 146.127594 
L 62.339706 146.162946 
L 62.378331 146.05689 
L 62.391206 146.092242 
L 62.499357 145.703372 
L 62.504507 145.774075 
L 62.566308 145.49126 
L 62.592058 145.597316 
L 62.707934 145.173093 
L 62.710509 145.208445 
L 62.800634 144.960982 
L 62.805785 144.996334 
L 62.831535 144.890278 
L 62.84441 144.996334 
L 62.957711 144.642815 
L 62.986036 144.678167 
L 63.047837 144.501408 
L 63.060712 144.536759 
L 63.168863 144.395352 
L 63.076162 144.572111 
L 63.176588 144.466056 
L 63.212638 144.36 
L 63.325939 144.183241 
L 63.251263 144.395352 
L 63.331089 144.253944 
L 63.377439 144.183241 
L 63.416065 144.218592 
L 63.493315 143.971129 
L 63.50619 144.077185 
L 63.580866 143.900426 
L 63.601466 143.900426 
L 63.632366 143.935777 
L 63.722492 143.759018 
L 63.745667 143.79437 
L 63.810043 143.61761 
L 63.825493 143.652962 
L 63.866693 143.723666 
L 63.941369 143.582259 
L 63.946519 143.688314 
L 64.052095 143.582259 
L 64.325047 143.476203 
L 64.404873 143.405499 
L 64.340497 143.582259 
L 64.438348 143.440851 
L 64.72675 143.370147 
L 64.765376 143.299444 
L 64.739625 143.405499 
L 64.837476 143.370147 
L 65.653758 143.334795 
L 65.751609 143.193388 
L 65.671783 143.370147 
L 65.767059 143.22874 
L 65.787659 143.334795 
L 65.777359 143.193388 
L 65.87521 143.22874 
L 65.88551 143.193388 
L 65.89581 143.334795 
L 65.980786 143.299444 
L 66.256313 143.193388 
L 66.266613 143.158036 
L 66.315538 143.334795 
L 66.364464 143.193388 
L 66.385064 143.158036 
L 66.477765 143.299444 
L 66.513815 143.158036 
L 66.593641 143.193388 
L 66.699217 143.299444 
L 66.660591 143.158036 
L 66.706942 143.22874 
L 67.124095 143.158036 
L 67.216796 143.087332 
L 67.160145 143.22874 
L 67.234821 143.158036 
L 67.237396 143.193388 
L 67.263146 143.016628 
L 67.340397 143.122684 
L 67.384172 143.05198 
L 67.399622 143.193388 
L 67.448548 143.158036 
L 67.479448 143.122684 
L 67.561849 143.193388 
L 67.896601 143.122684 
L 67.899176 143.016628 
L 67.932652 143.193388 
L 68.004752 143.158036 
L 69.299988 143.193388 
L 69.364363 143.299444 
L 69.390114 143.158036 
L 69.410714 143.193388 
L 69.513715 143.334795 
L 69.52659 143.264092 
L 69.606415 143.158036 
L 69.634741 143.22874 
L 69.742891 143.299444 
L 69.645041 143.158036 
L 69.745467 143.22874 
L 69.804692 143.264092 
L 69.830442 143.122684 
L 69.851042 143.158036 
L 70.417547 143.05198 
L 70.420122 143.016628 
L 70.448447 143.158036 
L 70.523123 143.122684 
L 70.587498 143.158036 
L 70.564323 143.016628 
L 70.628699 143.087332 
L 70.729125 143.016628 
L 70.742 143.05198 
L 70.960876 143.122684 
L 70.984052 143.193388 
L 71.027827 143.016628 
L 71.069027 143.122684 
L 71.166878 143.05198 
L 71.133403 143.158036 
L 71.177178 143.122684 
L 71.277604 143.158036 
L 71.241554 143.05198 
L 71.282754 143.122684 
L 71.36773 143.05198 
L 71.295629 143.158036 
L 71.39348 143.087332 
L 71.96771 143.122684 
L 71.970285 143.22874 
L 71.996035 143.087332 
L 72.078436 143.193388 
L 72.253537 143.299444 
L 72.256112 143.370147 
L 72.279287 143.193388 
L 72.361688 143.264092 
L 72.451814 143.193388 
L 72.371988 143.299444 
L 72.469839 143.22874 
L 72.474989 143.334795 
L 72.56254 143.193388 
L 72.580565 143.299444 
L 72.673266 143.22874 
L 72.686141 143.370147 
L 73.139344 143.299444 
L 73.19342 143.22874 
L 73.185695 143.405499 
L 73.25007 143.264092 
L 73.335046 143.370147 
L 73.27067 143.22874 
L 73.365946 143.334795 
L 73.886101 143.264092 
L 73.888676 143.193388 
L 73.906701 143.334795 
L 73.996826 143.22874 
L 74.107552 143.370147 
L 74.001976 143.193388 
L 74.112702 143.334795 
L 74.228578 143.193388 
L 74.331579 143.370147 
L 74.349604 143.334795 
L 74.568481 143.405499 
L 74.571056 143.476203 
L 74.614831 143.299444 
L 74.676632 143.334795 
L 74.756458 143.476203 
L 74.792508 143.405499 
L 75.449138 143.334795 
L 75.559864 143.22874 
L 75.467163 143.405499 
L 75.562439 143.264092 
L 75.63969 143.334795 
L 75.577889 143.22874 
L 75.673165 143.264092 
L 76.074868 143.370147 
L 76.177869 143.299444 
L 76.190744 143.476203 
L 76.193319 143.370147 
L 76.21392 143.511555 
L 76.298895 143.511555 
L 76.350396 143.440851 
L 76.473997 149.592079 
L 76.476572 149.556727 
L 76.656823 152.455581 
L 77.079127 156.733159 
L 77.097152 156.839214 
L 77.249078 157.970475 
L 77.467955 159.490606 
L 77.47053 159.419902 
L 77.560656 159.95018 
L 77.578681 160.056236 
L 77.756357 160.975385 
L 77.758932 160.940033 
L 77.825883 161.293552 
L 77.841333 161.293552 
L 78.008709 162.071293 
L 78.04476 162.177349 
L 78.168361 162.672275 
L 78.170936 162.636923 
L 78.178661 162.601571 
L 78.253336 162.919738 
L 78.261061 162.884386 
L 78.387237 163.308609 
L 78.394963 163.237905 
L 78.472213 163.556072 
L 78.479938 163.556072 
L 78.588089 163.909591 
L 78.608689 163.838887 
L 78.611264 163.803535 
L 78.69624 164.157054 
L 78.698815 164.121702 
L 78.74774 164.227758 
L 78.866191 164.545925 
L 78.868766 164.510573 
L 78.935717 164.616628 
L 78.943442 164.581277 
L 79.051593 164.793388 
L 79.074768 164.687332 
L 79.090218 164.899444 
L 79.157169 164.864092 
L 79.27047 165.040851 
L 79.278195 165.005499 
L 79.32712 165.076203 
L 79.445571 165.288314 
L 79.453296 165.21761 
L 79.522822 165.39437 
L 79.551147 165.323666 
L 79.667023 165.535777 
L 79.564022 165.288314 
L 79.672173 165.500426 
L 79.674748 165.429722 
L 79.775174 165.606481 
L 79.777749 165.571129 
L 79.878175 165.677185 
L 79.785474 165.535777 
L 79.893625 165.641833 
L 80.042976 165.747889 
L 80.148552 165.818592 
L 80.076451 165.677185 
L 80.153702 165.747889 
L 80.184602 165.712537 
L 80.236103 165.853944 
L 80.259278 165.818592 
L 80.426654 165.924648 
L 80.52708 165.96 
L 80.457554 165.747889 
L 80.53223 165.889296 
L 80.560555 165.783241 
L 80.54253 165.924648 
L 80.640381 165.889296 
L 80.720207 165.96 
L 80.668706 165.818592 
L 80.745957 165.889296 
L 80.854108 165.818592 
L 80.789732 165.924648 
L 80.856683 165.853944 
L 81.335637 165.818592 
L 81.436062 165.712537 
L 81.353662 165.853944 
L 81.446363 165.783241 
L 81.456663 165.853944 
L 81.559664 165.712537 
L 81.572539 165.818592 
L 81.626614 165.641833 
L 81.667814 165.712537 
L 81.78369 165.535777 
L 81.672964 165.747889 
L 81.786265 165.606481 
L 81.832616 165.500426 
L 81.933042 165.429722 
L 81.842916 165.571129 
L 81.943342 165.500426 
L 82.012867 165.39437 
L 82.025742 165.500426 
L 82.128743 165.323666 
L 82.149343 165.359018 
L 82.177669 165.21761 
L 82.231744 165.252962 
L 82.345045 165.111555 
L 82.239469 165.288314 
L 82.350195 165.146907 
L 82.411996 165.040851 
L 82.525296 164.864092 
L 82.417146 165.111555 
L 82.530446 164.934795 
L 82.607697 164.970147 
L 82.576797 164.82874 
L 82.630872 164.864092 
L 82.733873 164.687332 
L 82.643747 164.899444 
L 82.744173 164.758036 
L 82.826574 164.65198 
L 82.862624 164.722684 
L 82.945025 164.510573 
L 82.9991 164.581277 
L 83.030001 164.404517 
L 83.048026 164.439869 
L 83.089226 164.510573 
L 83.171627 164.26311 
L 83.199952 164.333813 
L 83.266903 164.157054 
L 83.279778 164.227758 
L 83.333853 164.121702 
L 83.344153 164.157054 
L 83.449729 163.980295 
L 83.465179 164.050998 
L 83.53213 163.874239 
L 83.55273 163.909591 
L 83.676331 163.732831 
L 83.686631 163.838887 
L 83.774182 163.662128 
L 83.776757 163.662128 
L 83.892633 163.450016 
L 83.926108 163.52072 
L 83.949283 163.414664 
L 84.000784 163.414664 
L 84.096059 163.308609 
L 84.201635 163.096498 
L 84.217085 163.167201 
L 84.284036 163.096498 
L 84.384462 162.884386 
L 84.322661 163.131849 
L 84.399912 162.95509 
L 84.430812 162.990442 
L 84.459137 162.813682 
L 84.502913 162.849034 
L 84.623939 162.707627 
L 84.626514 162.742979 
L 84.678014 162.566219 
L 84.72694 162.636923 
L 84.73209 162.672275 
L 84.853116 162.424812 
L 84.855691 162.495516 
L 84.956116 162.248052 
L 84.958691 162.318756 
L 85.071992 162.071293 
L 84.966416 162.354108 
L 85.079717 162.177349 
L 85.144093 162.071293 
L 85.249669 161.929885 
L 85.203318 162.141997 
L 85.257394 161.965237 
L 85.265119 162.035941 
L 85.33722 161.82383 
L 85.35782 161.82383 
L 85.44537 161.717774 
L 85.45567 161.788478 
L 85.566396 161.576367 
L 85.594722 161.682422 
L 85.623047 161.434959 
L 85.674547 161.541015 
L 85.728623 161.434959 
L 85.741498 161.505663 
L 85.844499 161.293552 
L 85.857374 161.364255 
L 85.939774 161.152144 
L 85.950075 161.187496 
L 85.955225 161.222848 
L 86.073676 161.010736 
L 86.158651 161.010736 
L 86.269377 160.833977 
L 86.271952 160.869329 
L 86.344053 160.763273 
L 86.367228 160.798625 
L 86.457354 160.621866 
L 86.465079 160.727921 
L 86.56293 160.51581 
L 86.565505 160.586514 
L 86.61958 160.480458 
L 86.637605 160.51581 
L 86.740606 160.339051 
L 86.817857 160.303699 
L 86.931158 160.162291 
L 87.026433 160.056236 
L 87.041884 160.126939 
L 87.144884 159.95018 
L 87.232435 159.985532 
L 87.237585 159.844124 
L 87.253035 159.914828 
L 87.366336 159.773421 
L 87.368911 159.844124 
L 87.399811 159.738069 
L 87.510537 159.596661 
L 87.410112 159.808773 
L 87.518262 159.632013 
L 87.551738 159.702717 
L 87.598088 159.561309 
L 87.623838 159.596661 
L 87.734564 159.313846 
L 87.747439 159.419902 
L 87.796365 159.313846 
L 87.907091 159.207791 
L 87.806665 159.38455 
L 87.912241 159.243142 
L 87.925116 159.313846 
L 87.976616 159.137087 
L 88.015242 159.172439 
L 88.097642 159.031031 
L 88.035842 159.207791 
L 88.133692 159.066383 
L 88.154293 159.172439 
L 88.234118 158.960327 
L 88.241843 159.031031 
L 88.301069 158.960327 
L 88.39892 158.783568 
L 88.416945 158.81892 
L 88.46587 158.889624 
L 88.514796 158.677512 
L 88.517371 158.748216 
L 88.628097 158.571457 
L 88.633247 158.606809 
L 88.635822 158.64216 
L 88.700197 158.465401 
L 88.731097 158.465401 
L 88.743972 158.500753 
L 88.844398 158.394697 
L 88.846973 158.465401 
L 88.913924 158.288642 
L 88.952549 158.323993 
L 89.027225 158.25329 
L 89.071 158.288642 
L 89.140526 158.147234 
L 89.289877 158.07653 
L 89.387728 157.864419 
L 89.403178 157.935123 
L 89.428928 157.970475 
L 89.436653 157.829067 
L 89.503604 157.899771 
L 89.60918 157.723011 
L 89.616905 157.758363 
L 89.61948 157.793715 
L 89.699305 157.581604 
L 89.719906 157.68766 
L 89.838356 157.546252 
L 89.871832 157.581604 
L 89.902732 157.369493 
L 89.941357 157.440196 
L 90.062383 157.334141 
L 90.075258 157.404845 
L 90.180834 157.228085 
L 90.204009 157.298789 
L 90.263235 157.086678 
L 90.28641 157.157381 
L 90.399711 156.980622 
L 90.402286 157.015974 
L 90.515587 156.909918 
L 90.626313 156.768511 
L 90.528462 156.94527 
L 90.631463 156.803863 
L 90.654638 156.874566 
L 90.685538 156.697807 
L 90.739614 156.733159 
L 90.775664 156.627103 
L 90.88124 156.591751 
L 90.801414 156.733159 
L 90.88639 156.627103 
L 90.937891 156.556399 
L 91.053766 156.37964 
L 91.102692 156.485696 
L 91.141317 156.308936 
L 91.159342 156.308936 
L 91.339594 156.238232 
L 91.452895 156.061473 
L 91.50697 156.167529 
L 91.51727 155.990769 
L 91.561046 156.026121 
L 91.638296 155.990769 
L 91.751597 155.778658 
L 91.761897 155.920065 
L 91.844298 155.672602 
L 91.857173 155.707954 
L 91.862323 155.778658 
L 91.975624 155.495843 
L 91.998799 155.601899 
L 92.009099 155.460491 
L 92.083775 155.495843 
L 92.184201 155.319083 
L 92.199651 155.425139 
L 92.248576 155.319083 
L 92.341277 155.213028 
L 92.256301 155.354435 
L 92.364452 155.24838 
L 92.493203 155.142324 
L 92.588479 155.000917 
L 92.518953 155.177676 
L 92.609079 155.036268 
L 92.614229 155.106972 
L 92.67603 154.894861 
L 92.71208 154.930213 
L 92.794481 154.859509 
L 92.897482 154.576694 
L 92.910357 154.647398 
L 93.080308 154.541342 
L 93.090608 154.576694 
L 93.196184 154.399935 
L 93.224509 154.470638 
L 93.247684 154.329231 
L 93.304335 154.364583 
L 93.412486 154.187823 
L 93.31206 154.399935 
L 93.422786 154.258527 
L 93.445961 154.293879 
L 93.505187 154.117119 
L 93.523212 154.152471 
L 93.636513 153.975712 
L 93.528362 154.187823 
L 93.644238 154.011064 
L 93.729213 153.905008 
L 93.839939 153.763601 
L 93.778139 153.975712 
L 93.847664 153.798953 
L 93.955815 153.728249 
L 94.071691 153.516137 
L 94.084566 153.692897 
L 94.125767 153.445434 
L 94.182417 153.516137 
L 94.231343 153.410082 
L 94.246793 153.551489 
L 94.347218 153.339378 
L 94.385844 153.445434 
L 94.401294 153.268674 
L 94.455369 153.304026 
L 94.55837 153.197971 
L 94.576395 153.233322 
L 94.671671 153.091915 
L 94.831322 153.021211 
L 94.944623 152.879804 
L 94.978099 152.985859 
L 95.047624 152.773748 
L 95.302551 152.667692 
L 95.413277 152.526285 
L 95.366927 152.703044 
L 95.421002 152.561637 
L 95.423577 152.596989 
L 95.464778 152.420229 
L 95.524003 152.455581 
L 95.593529 152.420229 
L 95.709405 152.172766 
L 95.71713 152.278822 
L 95.79953 152.06671 
L 95.817556 152.137414 
L 95.894806 152.06671 
L 96.005532 151.925303 
L 96.008107 151.960655 
L 96.059608 151.854599 
L 96.067333 151.925303 
L 96.175484 151.748543 
L 96.188359 151.819247 
L 96.214109 151.642488 
L 96.281059 151.713191 
L 96.391785 151.50108 
L 96.396935 151.536432 
L 96.499936 151.430376 
L 96.533411 151.50108 
L 96.618387 151.324321 
L 96.628687 151.395025 
L 96.667313 151.253617 
L 96.726538 151.288969 
L 96.741988 151.324321 
L 96.847564 151.147561 
L 96.971165 151.041506 
L 97.076741 150.93545 
L 96.996915 151.112209 
L 97.084466 150.970802 
L 97.123091 151.006154 
L 97.133391 150.829394 
L 97.187467 150.864746 
L 97.262142 150.758691 
L 97.367718 150.617283 
L 97.275018 150.829394 
L 97.378018 150.652635 
L 97.419219 150.687987 
L 97.426944 150.546579 
L 97.481019 150.546579 
L 97.645821 150.440524 
L 97.679296 150.511227 
L 97.759122 150.334468 
L 97.769422 150.405172 
L 97.833797 150.157709 
L 97.864697 150.228412 
L 97.980573 150.157709 
L 98.083574 150.016301 
L 98.093874 150.051653 
L 98.117049 150.016301 
L 98.124775 150.051653 
L 98.23035 149.874894 
L 98.315326 149.768838 
L 98.359101 149.839542 
L 98.431202 149.698134 
L 98.462102 149.768838 
L 98.498153 149.556727 
L 98.536778 149.62743 
L 98.652654 149.450671 
L 98.655229 149.486023 
L 98.657804 149.521375 
L 98.755655 149.344615 
L 98.75823 149.379967 
L 98.80458 149.309264 
L 98.848355 149.344615 
L 98.917881 149.167856 
L 98.951356 149.23856 
L 98.977107 149.0618 
L 99.023457 149.097152 
L 99.062082 149.132504 
L 99.136758 148.991097 
L 99.149633 149.026448 
L 99.224309 148.885041 
L 99.239759 148.920393 
L 99.278384 148.778985 
L 99.252634 148.991097 
L 99.35306 148.814337 
L 99.486961 148.708282 
L 99.561636 148.566874 
L 99.605412 148.602226 
L 99.739313 148.49617 
L 99.850039 148.390115 
L 99.783088 148.531522 
L 99.852614 148.425466 
L 99.860339 148.49617 
L 99.935014 148.319411 
L 99.955615 148.354763 
L 100.053465 148.248707 
L 99.96849 148.390115 
L 100.07149 148.284059 
L 100.213117 148.178003 
L 100.300667 148.001244 
L 100.251742 148.248707 
L 100.328993 148.1073 
L 100.424268 148.001244 
L 100.498944 147.824484 
L 100.537569 147.895188 
L 100.61482 147.789133 
L 100.728121 147.683077 
L 100.63542 147.859836 
L 100.730696 147.718429 
L 100.761596 147.789133 
L 100.818247 147.612373 
L 100.831122 147.647725 
L 100.936698 147.506318 
L 100.843997 147.683077 
L 100.944423 147.541669 
L 101.057724 147.435614 
L 101.075749 147.470966 
L 101.1736 147.36491 
L 101.320376 147.258854 
L 101.407926 147.152799 
L 101.343551 147.329558 
L 101.431102 147.188151 
L 101.436252 147.223502 
L 101.513502 147.046743 
L 101.534103 147.117447 
L 101.644828 146.905336 
L 101.649978 146.940687 
L 101.657704 147.011391 
L 101.734954 146.834632 
L 101.760704 146.940687 
L 101.791605 146.79928 
L 101.874005 146.834632 
L 101.946106 146.763928 
L 101.958981 146.834632 
L 102.056832 146.693224 
L 102.059407 146.763928 
L 102.146958 146.551817 
L 102.162408 146.657872 
L 102.226783 146.445761 
L 102.278284 146.481113 
L 102.306609 146.551817 
L 102.327209 146.410409 
L 102.383859 146.410409 
L 102.41991 146.339705 
L 102.50231 146.198298 
L 102.533211 146.269002 
L 102.646512 146.162946 
L 102.764963 145.986187 
L 102.659387 146.23365 
L 102.767538 146.021538 
L 102.803588 146.021538 
L 102.896289 145.844779 
L 102.914314 145.986187 
L 103.022465 145.844779 
L 103.027615 145.880131 
L 103.11259 145.774075 
L 103.184691 145.66802 
L 103.148641 145.809427 
L 103.223316 145.738723 
L 103.225891 145.809427 
L 103.297992 145.561964 
L 103.328892 145.632668 
L 103.354642 145.66802 
L 103.444768 145.455908 
L 103.455068 145.561964 
L 103.537469 145.349853 
L 103.550344 145.349853 
L 103.735746 145.314501 
L 103.849047 145.067038 
L 103.882522 145.137741 
L 103.931447 144.996334 
L 103.957197 144.996334 
L 104.073073 144.819574 
L 104.083373 144.92563 
L 104.155474 144.784223 
L 104.181224 144.819574 
L 104.2971 144.642815 
L 104.309975 144.748871 
L 104.397526 144.536759 
L 104.407826 144.678167 
L 104.534002 144.395352 
L 104.562327 144.572111 
L 104.647303 144.466056 
L 104.763179 144.324648 
L 104.776054 144.430704 
L 104.863605 144.218592 
L 104.87133 144.253944 
L 104.974331 144.112537 
L 104.879055 144.289296 
L 104.984631 144.183241 
L 104.987206 144.218592 
L 105.049006 144.006481 
L 105.087632 144.077185 
L 105.159732 143.971129 
L 105.164882 144.041833 
L 105.273033 143.865074 
L 105.316809 143.935777 
L 105.278183 143.79437 
L 105.381184 143.79437 
L 105.409509 143.829722 
L 105.437835 143.688314 
L 105.489335 143.759018 
L 105.525385 143.688314 
L 105.607786 143.476203 
L 105.641261 143.511555 
L 105.646411 143.546907 
L 105.733962 143.370147 
L 105.746837 143.440851 
L 105.873013 143.22874 
L 106.04554 143.158036 
L 106.163991 142.910573 
L 106.266991 143.016628 
L 106.215491 142.875221 
L 106.274716 142.981277 
L 106.385442 142.804517 
L 106.300467 143.016628 
L 106.390592 142.839869 
L 106.429218 142.910573 
L 106.452393 142.769165 
L 106.498743 142.839869 
L 106.604319 142.627758 
L 106.612044 142.698462 
L 106.614619 142.733813 
L 106.70217 142.557054 
L 106.715045 142.592406 
L 106.833496 142.48635 
L 106.921047 142.557054 
L 106.846371 142.450998 
L 106.946797 142.521702 
L 107.052373 142.380295 
L 107.062673 142.450998 
L 107.065248 142.48635 
L 107.093573 142.344943 
L 107.170824 142.450998 
L 107.29185 142.132831 
L 107.304725 142.274239 
L 107.340775 142.062128 
L 107.402576 142.132831 
L 107.503002 141.956072 
L 107.407726 142.168183 
L 107.515877 142.026776 
L 107.518452 142.09748 
L 107.585402 141.885368 
L 107.624028 141.956072 
L 107.763079 141.850016 
L 107.860929 141.814664 
L 107.791404 141.92072 
L 107.868655 141.885368 
L 107.909855 141.92072 
L 107.878955 141.779313 
L 107.97423 141.814664 
L 108.079806 141.637905 
L 107.997406 141.850016 
L 108.092681 141.708609 
L 108.141607 141.637905 
L 108.224007 141.461146 
L 108.146757 141.673257 
L 108.257483 141.496498 
L 108.406834 141.496498 
L 108.473784 141.213682 
L 108.520135 141.319738 
L 108.636011 141.072275 
L 108.638586 141.107627 
L 108.723562 140.966219 
L 108.754462 141.001571 
L 108.762187 141.072275 
L 108.831712 140.78946 
L 108.854888 140.895516 
L 108.978489 140.718756 
L 109.09179 140.6127 
L 109.215391 140.365237 
L 109.230841 140.471293 
L 109.269466 140.259182 
L 109.320966 140.259182 
L 109.447142 140.188478 
L 109.454868 140.259182 
L 109.565593 139.976367 
L 109.720095 139.870311 
L 109.830821 139.6582 
L 109.725245 139.905663 
L 109.843696 139.693552 
L 109.905496 139.764255 
L 109.936396 139.622848 
L 109.951847 139.6582 
L 110.062573 139.48144 
L 109.959572 139.693552 
L 110.067723 139.587496 
L 110.134673 139.48144 
L 110.247974 139.304681 
L 110.250549 139.340033 
L 110.340675 139.269329 
L 110.453976 139.09257 
L 110.456551 139.127921 
L 110.580152 138.951162 
L 110.649677 138.880458 
L 110.760403 138.703699 
L 110.680578 138.91581 
L 110.765553 138.739051 
L 110.770703 138.774403 
L 110.886579 138.562291 
L 110.904604 138.597643 
L 110.925205 138.420884 
L 110.987005 138.420884 
L 110.992155 138.456236 
L 111.102881 138.314828 
L 111.108031 138.385532 
L 111.203307 138.244124 
L 111.208457 138.314828 
L 111.319183 138.138069 
L 111.321758 138.173421 
L 111.429909 138.067365 
L 111.52261 137.961309 
L 111.460809 138.138069 
L 111.54321 137.996661 
L 111.55351 138.102717 
L 111.62561 137.819902 
L 111.64106 137.819902 
L 111.720886 137.713846 
L 111.785262 137.537087 
L 111.733761 137.78455 
L 111.836762 137.643142 
L 111.875387 137.537087 
L 111.888263 137.572439 
L 111.991263 137.395679 
L 112.037614 137.466383 
L 112.091689 137.289624 
L 112.099414 137.324975 
L 112.13804 137.21892 
L 112.253916 137.04216 
L 112.145765 137.289624 
L 112.259066 137.077512 
L 112.403267 137.006809 
L 112.483092 136.865401 
L 112.516568 136.900753 
L 112.593818 136.830049 
L 112.714844 136.547234 
L 112.735444 136.688642 
L 112.82557 136.582586 
L 112.910546 136.47653 
L 113.008397 136.370475 
L 112.944021 136.511882 
L 113.018697 136.441178 
L 113.021272 136.547234 
L 113.113973 136.299771 
L 113.124273 136.370475 
L 113.222123 136.158363 
L 113.240149 136.229067 
L 113.312249 136.123011 
L 113.327699 136.193715 
L 113.4307 136.016956 
L 113.572326 135.9109 
L 113.690777 135.698789 
L 113.585201 135.946252 
L 113.693352 135.769493 
L 113.726828 135.663437 
L 113.829828 135.557381 
L 113.734553 135.734141 
L 113.837554 135.628085 
L 113.845279 135.663437 
L 113.883904 135.486678 
L 113.943129 135.557381 
L 114.00493 135.34527 
L 114.05643 135.415974 
L 114.06673 135.451326 
L 114.154281 135.239214 
L 114.321657 135.168511 
L 114.427233 134.921047 
L 114.331958 135.203863 
L 114.440108 134.956399 
L 114.489034 135.062455 
L 114.545684 134.921047 
L 114.553409 134.991751 
L 114.66671 134.850344 
L 114.767136 134.956399 
L 114.777436 134.850344 
L 114.859837 134.956399 
L 114.805761 134.814992 
L 114.888162 134.885696 
L 114.980863 134.744288 
L 115.001463 134.77964 
L 115.091589 134.673584 
L 115.202315 134.355417 
L 115.22034 134.426121 
L 115.289865 134.320065 
L 115.320766 134.355417 
L 115.410891 134.178658 
L 115.452092 134.249362 
L 115.501017 134.072602 
L 115.516467 134.178658 
L 115.632343 134.001899 
L 115.737919 133.931195 
L 115.822895 133.789787 
L 115.761094 133.966547 
L 115.85122 133.860491 
L 115.864095 133.895843 
L 115.972246 133.719083 
L 116.028897 133.754435 
L 116.070097 133.542324 
L 116.072672 133.613028 
L 116.180823 133.365565 
L 116.198848 133.400917 
L 116.299274 133.294861 
L 116.317299 133.330213 
L 116.422875 133.118101 
L 116.489825 133.259509 
L 116.428025 133.047398 
L 116.536176 133.153453 
L 116.546476 133.188805 
L 116.659777 132.976694 
L 116.747327 133.047398 
L 116.706127 132.90599 
L 116.767928 132.976694 
L 116.873503 132.729231 
L 116.778228 133.012046 
L 116.886379 132.764583 
L 116.888954 132.799935 
L 116.953329 132.587823 
L 116.984229 132.658527 
L 117.10268 132.446416 
L 117.110405 132.517119 
L 117.174781 132.305008 
L 117.208256 132.375712 
L 117.282932 132.198953 
L 117.326707 132.269656 
L 117.470908 132.163601 
L 117.476058 132.234304 
L 117.597084 131.951489 
L 117.767036 131.845434 
L 117.880337 131.739378 
L 117.818536 131.916137 
L 117.882912 131.77473 
L 117.998788 131.668674 
L 118.034838 131.597971 
L 118.058013 131.739378 
L 118.106939 131.704026 
L 118.197064 131.633322 
L 118.269165 131.456563 
L 118.212514 131.704026 
L 118.31294 131.491915 
L 118.418516 131.421211 
L 118.433966 131.491915 
L 118.536967 131.2091 
L 118.637393 131.350507 
L 118.647693 131.279804 
L 118.678593 131.385859 
L 118.766144 131.138396 
L 118.807344 131.2091 
L 118.853695 130.996989 
L 118.86657 130.996989 
L 118.987596 130.784877 
L 118.889745 131.03234 
L 118.990171 130.820229 
L 119.088022 130.749525 
L 119.201323 130.537414 
L 119.206473 130.64347 
L 119.278573 130.431358 
L 119.306898 130.46671 
L 119.330074 130.396007 
L 119.4408 130.289951 
L 119.443375 130.360655 
L 119.500025 130.148543 
L 119.54895 130.254599 
L 119.641651 130.183895 
L 119.749802 129.795025 
L 119.667401 130.219247 
L 119.760102 129.865728 
L 119.798727 130.007136 
L 119.850228 129.830376 
L 119.875978 129.936432 
L 119.984129 129.688969 
L 119.994429 129.724321 
L 119.997004 129.759673 
L 120.025329 129.618265 
L 120.100005 129.688969 
L 120.190131 129.547561 
L 120.213306 129.582913 
L 120.215881 129.653617 
L 120.221031 129.512209 
L 120.321457 129.547561 
L 120.427033 129.33545 
L 120.398707 129.618265 
L 120.439908 129.370802 
L 120.455358 129.476858 
L 120.537759 129.052635 
L 120.540334 129.087987 
L 120.615009 129.158691 
L 120.71801 129.300098 
L 120.72831 129.264746 
L 120.766935 129.194043 
L 120.869936 128.946579 
L 120.782386 129.229394 
L 120.882811 129.017283 
L 120.913712 129.087987 
L 120.975512 128.875876 
L 120.983237 128.946579 
L 121.096538 128.734468 
L 121.001262 128.981931 
L 121.099113 128.805172 
L 121.222714 128.451653 
L 121.233014 128.487005 
L 121.245889 128.593061 
L 121.336015 128.380949 
L 121.428716 128.274894 
L 121.544592 128.02743 
L 121.547167 128.062782 
L 121.590942 127.992079 
L 121.691368 127.850671 
L 121.598667 128.02743 
L 121.701668 127.921375 
L 121.789219 127.886023 
L 121.894795 127.567856 
L 121.905095 127.673912 
L 122.002946 127.426448 
L 122.028696 127.497152 
L 122.062171 127.391097 
L 122.093071 127.426448 
L 122.188347 127.178985 
L 122.229547 127.108282 
L 122.329973 126.860818 
L 122.268173 127.214337 
L 122.345423 126.966874 
L 122.471599 126.648707 
L 122.353148 127.002226 
L 122.474174 126.684059 
L 122.50765 126.790115 
L 122.55915 126.542651 
L 122.5746 126.542651 
L 122.57975 126.578003 
L 122.695626 126.401244 
L 122.829527 126.295188 
L 122.973729 125.835614 
L 122.981454 125.870966 
L 123.040679 125.658854 
L 123.076729 125.729558 
L 123.19003 125.552799 
L 123.10763 125.800262 
L 123.197755 125.588151 
L 123.241531 125.482095 
L 123.375432 125.128576 
L 123.455257 125.234632 
L 123.414057 125.093224 
L 123.483583 125.128576 
L 123.542808 125.02252 
L 123.550533 125.163928 
L 123.596884 125.057872 
L 123.640659 124.951817 
L 123.79001 124.421538 
L 123.792585 124.45689 
L 123.880136 124.244779 
L 123.890436 124.315483 
L 123.898161 124.350835 
L 124.024337 123.997316 
L 124.042362 124.06802 
L 124.109313 123.785205 
L 124.124763 123.855908 
L 124.196864 123.679149 
L 124.227764 123.89126 
L 124.235489 123.785205 
L 124.238064 123.855908 
L 124.325615 123.467038 
L 124.335915 123.50239 
L 124.366815 123.537741 
L 124.423465 123.219574 
L 124.42604 123.254926 
L 124.503291 122.901408 
L 124.554792 123.007463 
L 124.634617 122.936759 
L 124.753068 122.653944 
L 124.768518 122.689296 
L 124.801994 122.335777 
L 124.843194 122.371129 
L 124.881819 122.335777 
L 124.997695 122.123666 
L 125.051771 122.19437 
L 125.098121 121.911555 
L 125.216572 121.664092 
L 125.221722 121.699444 
L 125.234597 121.770147 
L 125.298973 121.45198 
L 125.311848 121.45198 
L 125.466349 120.780295 
L 125.468924 120.815646 
L 125.492099 120.744943 
L 125.6157 120.32072 
L 125.667201 120.462128 
L 125.726426 120.356072 
L 125.741876 120.250016 
L 125.868052 119.75509 
L 125.896378 119.896498 
L 125.950453 119.542979 
L 125.963328 119.578331 
L 126.068904 119.118756 
L 126.084354 119.224812 
L 126.086929 119.260164 
L 126.156455 118.800589 
L 126.16418 118.835941 
L 126.298081 118.44707 
L 126.300656 118.482422 
L 126.323831 118.411718 
L 126.331556 118.482422 
L 126.462882 117.527921 
L 126.478332 117.598625 
L 126.560733 117.280458 
L 126.702359 116.325957 
L 126.704934 116.396661 
L 126.79506 115.972439 
L 126.80021 115.972439 
L 126.813085 115.866383 
L 126.952136 114.947234 
L 126.954711 115.017938 
L 126.980461 114.947234 
L 127.297189 103.457872 
L 127.320364 61.389133 
L 127.335814 14.866056 
L 127.42079 125.234632 
L 127.523791 132.517119 
L 127.549541 132.411064 
L 127.601042 132.269656 
L 127.644817 132.517119 
L 127.655117 132.411064 
L 127.747818 132.481768 
L 127.686017 132.34036 
L 127.763268 132.375712 
L 127.789018 132.269656 
L 127.889444 132.163601 
L 127.850819 132.375712 
L 127.904894 132.198953 
L 127.930644 132.163601 
L 128.05167 131.704026 
L 128.185571 131.2091 
L 128.193296 131.279804 
L 128.213897 131.2091 
L 128.350373 130.502062 
L 128.376123 130.431358 
L 128.381273 130.46671 
L 128.510024 129.795025 
L 128.530624 129.688969 
L 128.703151 128.76982 
L 128.705726 128.840524 
L 128.790701 128.451653 
L 128.801001 128.451653 
L 128.981253 127.497152 
L 128.983828 127.532504 
L 129.058503 127.037578 
L 129.063654 127.108282 
L 129.091979 127.002226 
L 129.102279 127.037578 
L 129.249055 126.365892 
L 129.26708 126.259836 
L 129.447332 125.305336 
L 129.452482 125.376039 
L 129.532307 124.951817 
L 129.547757 124.881113 
L 129.673934 124.06802 
L 129.676509 124.103372 
L 129.879935 122.795352 
L 129.88251 122.830704 
L 129.946886 122.300426 
L 129.954611 122.300426 
L 129.982936 122.265074 
L 130.111687 121.522684 
L 130.271338 120.815646 
L 130.273913 120.850998 
L 130.343439 120.49748 
L 130.358889 120.532831 
L 130.570041 119.154108 
L 130.575191 119.048052 
L 130.889344 116.255254 
L 130.899644 116.18455 
L 131.05672 114.240196 
L 131.064445 114.169493 
L 131.296197 105.048707 
L 131.321947 82.105336 
L 131.342547 14.76 
L 131.422373 123.042815 
L 131.551124 131.986841 
L 131.612924 132.022193 
L 131.615499 132.163601 
L 131.72365 132.092897 
L 131.831801 131.986841 
L 131.929652 131.704026 
L 131.950252 131.77473 
L 132.091878 131.2091 
L 131.963127 131.810082 
L 132.099603 131.244452 
L 132.102178 131.279804 
L 132.179429 130.890933 
L 132.184579 130.890933 
L 132.375131 129.795025 
L 132.380281 129.830376 
L 132.449806 129.300098 
L 132.460106 129.194043 
L 132.630058 128.239542 
L 132.637783 128.274894 
L 132.648083 128.274894 
L 132.771684 127.497152 
L 132.774259 127.532504 
L 132.843785 126.966874 
L 132.864385 126.89617 
L 133.018886 125.694206 
L 133.186262 124.916465 
L 133.206863 124.810409 
L 133.428314 123.184223 
L 133.212013 124.845761 
L 133.430889 123.254926 
L 133.441189 123.148871 
L 133.448915 123.184223 
L 133.678091 121.416628 
L 133.690967 121.345925 
L 133.827443 120.603535 
L 133.840318 120.532831 
L 133.994819 119.330867 
L 134.010269 119.260164 
L 134.162195 118.128903 
L 134.424848 115.937087 
L 134.429998 115.972439 
L 134.432573 116.007791 
L 134.494373 115.371457 
L 134.661749 113.038232 
L 134.664325 113.073584 
L 134.71325 112.260491 
L 134.865176 105.154763 
L 134.898651 85.534468 
L 134.921827 17.02252 
L 134.999077 119.684386 
L 135.127828 130.608118 
L 135.130403 130.572766 
L 135.143278 130.64347 
L 135.269454 131.067692 
L 135.36473 130.855581 
L 135.274605 131.138396 
L 135.382755 130.961637 
L 135.400781 130.855581 
L 135.544982 130.360655 
L 135.555282 130.431358 
L 135.627382 129.971784 
L 135.629957 130.007136 
L 135.817934 128.946579 
L 135.853984 128.840524 
L 136.005911 127.673912 
L 136.031661 127.567856 
L 136.273713 125.694206 
L 136.276288 125.76491 
L 136.361263 125.093224 
L 136.567265 123.749853 
L 136.56984 123.820556 
L 136.657391 123.254926 
L 136.659966 123.290278 
L 136.672841 123.219574 
L 136.817042 122.300426 
L 136.829917 122.335777 
L 136.891718 121.876203 
L 136.894293 121.876203 
L 137.089994 120.709591 
L 137.097719 120.603535 
L 137.352647 118.62383 
L 137.375822 118.517774 
L 137.512298 117.457218 
L 137.7801 115.300753 
L 137.798125 115.194697 
L 138.212704 107.982913 
L 138.277079 103.42252 
L 138.310554 83.731522 
L 138.33373 19.567856 
L 138.408405 116.502717 
L 138.539731 129.052635 
L 138.544881 129.017283 
L 138.627282 129.370802 
L 138.629857 129.33545 
L 138.730283 129.406154 
L 138.817834 129.547561 
L 138.743158 129.370802 
L 138.843584 129.476858 
L 138.861609 129.406154 
L 138.874484 129.441506 
L 138.99036 128.911227 
L 139.168036 127.992079 
L 139.170612 128.02743 
L 139.242712 127.497152 
L 139.245287 127.532504 
L 139.374038 126.542651 
L 139.523389 125.446743 
L 139.533689 125.340687 
L 139.677891 124.350835 
L 139.680466 124.386187 
L 139.721666 123.749853 
L 139.747416 123.785205 
L 139.974018 122.19437 
L 139.986893 122.088314 
L 140.138819 120.921702 
L 140.14912 120.957054 
L 140.20577 120.391424 
L 140.21092 120.426776 
L 140.525073 117.563273 
L 140.535373 117.669329 
L 140.610048 116.714828 
L 140.612623 116.75018 
L 140.80575 114.48766 
L 141.091577 109.04347 
L 141.173978 103.917447 
L 141.210028 90.83725 
L 141.238353 19.850671 
L 141.305304 111.023175 
L 141.408305 128.734468 
L 141.43663 128.663764 
L 141.583406 128.76982 
L 141.634907 128.875876 
L 141.688982 128.699116 
L 141.691557 128.734468 
L 141.807433 128.487005 
L 141.699282 128.76982 
L 141.810008 128.522357 
L 141.992835 127.497152 
L 141.99541 127.567856 
L 142.080385 126.860818 
L 142.08811 126.89617 
L 142.299262 125.376039 
L 142.306987 125.305336 
L 142.314712 125.340687 
L 142.461489 124.103372 
L 142.713841 122.159018 
L 142.716416 122.19437 
L 142.783366 121.62874 
L 142.785941 121.62874 
L 143.035718 119.649034 
L 143.038293 119.719738 
L 143.123269 119.0127 
L 143.125844 119.083404 
L 143.133569 118.977349 
L 143.29837 117.49257 
L 143.967876 106.851653 
L 144.058002 89.14036 
L 144.086327 21.936432 
L 144.153277 109.538396 
L 144.279453 126.931522 
L 144.284603 126.89617 
L 144.348979 127.002226 
L 144.470005 127.355745 
L 144.480305 127.285041 
L 144.585881 127.178985 
L 144.740382 126.578003 
L 144.758407 126.542651 
L 144.889733 125.623502 
L 144.900034 125.658854 
L 144.961834 125.234632 
L 144.969559 125.234632 
L 145.221911 123.290278 
L 145.232211 123.219574 
L 145.389288 121.876203 
L 145.391863 121.982259 
L 145.479413 121.098462 
L 145.481988 121.169165 
L 145.62619 120.250016 
L 145.63649 120.179313 
L 145.783266 119.18946 
L 145.788416 119.154108 
L 145.930042 117.846088 
L 146.24677 114.982586 
L 146.25192 115.017938 
L 146.316295 114.452308 
L 146.31887 114.452308 
L 146.336895 114.381604 
L 146.501697 112.896825 
L 146.967776 105.048707 
L 147.057901 90.236268 
L 147.091377 26.072602 
L 147.153177 102.008445 
L 147.281928 124.669002 
L 147.287078 124.63365 
L 147.292228 124.598298 
L 147.423554 125.02252 
L 147.426129 124.951817 
L 147.490505 125.234632 
L 147.531705 125.093224 
L 147.606381 124.987169 
L 147.614106 125.02252 
L 147.763457 124.350835 
L 147.766032 124.386187 
L 147.838133 123.89126 
L 147.845858 123.961964 
L 148.06731 122.441833 
L 148.069885 122.512537 
L 148.157435 121.911555 
L 148.314512 120.568183 
L 148.322237 120.603535 
L 148.389187 120.214664 
L 148.402062 120.250016 
L 148.566864 118.729885 
L 148.579739 118.62383 
L 148.906766 115.61892 
L 148.909341 115.654272 
L 148.973717 115.05329 
L 148.976292 115.05329 
L 148.984017 114.947234 
L 149.254394 112.720065 
L 149.256969 112.755417 
L 149.311045 112.04838 
L 149.316195 112.083732 
L 149.555672 108.371784 
L 149.679273 105.154763 
L 149.759098 100.064092 
L 149.802874 85.56982 
L 149.833774 28.511882 
L 149.89815 103.669984 
L 149.998575 122.936759 
L 150.032051 122.76 
L 150.068101 122.653944 
L 150.132477 122.972111 
L 150.248352 123.254926 
L 150.137627 122.936759 
L 150.256078 123.219574 
L 150.335903 123.32563 
L 150.369378 123.113519 
L 150.402854 123.007463 
L 150.572805 122.123666 
L 150.57538 122.19437 
L 150.660356 121.487332 
L 150.675806 121.381277 
L 150.827732 120.179313 
L 150.835457 120.285368 
L 150.902408 119.684386 
L 150.933308 119.578331 
L 151.087809 118.376367 
L 151.11871 118.270311 
L 151.363337 116.325957 
L 151.365912 116.361309 
L 151.368487 116.396661 
L 151.422562 115.795679 
L 151.435437 115.795679 
L 151.448312 115.689624 
L 152.074042 108.619247 
L 152.076617 108.654599 
L 152.122968 107.806154 
L 152.34442 98.862128 
L 152.38562 80.267038 
L 152.413945 31.09257 
L 152.480896 103.669984 
L 152.578747 121.345925 
L 152.612222 121.204517 
L 152.635397 121.310573 
L 152.640547 121.275221 
L 152.753848 121.45198 
L 152.758998 121.381277 
L 152.782173 121.558036 
L 152.859424 121.522684 
L 152.98045 121.416628 
L 153.150401 120.603535 
L 153.178727 120.532831 
L 153.333228 119.330867 
L 153.335803 119.366219 
L 153.400178 118.800589 
L 153.407903 118.835941 
L 153.747806 115.689624 
L 153.768406 115.583568 
L 153.935783 113.992733 
L 153.943508 113.992733 
L 154.079984 112.472602 
L 154.087709 112.43725 
L 154.234485 110.917119 
L 154.78039 101.90239 
L 154.870515 94.054272 
L 154.906566 63.96982 
L 154.927166 34.274239 
L 154.999266 104.589133 
L 155.125442 119.825794 
L 155.133168 119.719738 
L 155.189818 119.649034 
L 155.267069 120.037905 
L 155.269644 120.002553 
L 155.346894 120.285368 
L 155.362344 120.214664 
L 155.424145 120.356072 
L 155.47307 120.250016 
L 155.480795 120.285368 
L 155.606971 119.861146 
L 155.609546 119.931849 
L 155.686797 119.224812 
L 155.697097 119.295516 
L 155.885074 118.234959 
L 155.913399 118.128903 
L 156.04215 117.351162 
L 156.049875 117.421866 
L 156.114251 116.856236 
L 156.394928 114.452308 
L 156.397503 114.48766 
L 156.410378 114.416956 
L 156.564879 113.214992 
L 156.588055 113.108936 
L 156.732256 111.199935 
L 156.737406 111.235286 
L 156.788906 110.528249 
L 156.791481 110.528249 
L 157.038683 106.745597 
L 157.041258 106.780949 
L 157.090184 105.932504 
L 157.316785 92.039214 
L 157.355411 42.970802 
L 157.368286 33.850016 
L 157.427511 95.680458 
L 157.525362 119.224812 
L 157.563988 119.0127 
L 157.739089 119.931849 
L 157.772564 119.790442 
L 157.84209 119.967201 
L 157.849815 119.931849 
L 157.86784 120.002553 
L 157.929641 119.649034 
L 157.950241 119.719738 
L 158.076417 119.260164 
L 158.078992 119.330867 
L 158.161392 118.729885 
L 158.166542 118.765237 
L 158.318469 117.633977 
L 158.331344 117.527921 
L 158.49872 115.972439 
L 158.828323 112.790769 
L 158.833473 112.861473 
L 158.836048 112.896825 
L 158.902999 112.366547 
L 158.908149 112.366547 
L 159.08325 110.492897 
L 159.090975 110.634304 
L 159.178526 109.891915 
L 159.181101 109.927267 
L 159.248051 109.396989 
L 159.250626 109.396989 
L 159.423153 106.851653 
L 159.69868 101.548871 
L 159.791381 96.069329 
L 159.842881 81.362946 
L 159.878932 37.738723 
L 159.938157 92.569493 
L 160.069483 116.573421 
L 160.077208 116.538069 
L 160.123559 116.608773 
L 160.25746 117.351162 
L 160.363035 117.209755 
L 160.31926 117.421866 
L 160.370761 117.280458 
L 160.448011 117.209755 
L 160.571612 116.785532 
L 160.574187 116.820884 
L 160.643713 116.361309 
L 160.648863 116.432013 
L 160.769889 115.724975 
L 160.775039 115.760327 
L 160.981041 114.416956 
L 160.983616 114.452308 
L 161.045416 113.922029 
L 161.055716 113.957381 
L 161.305493 111.942324 
L 161.308068 112.04838 
L 161.398194 111.199935 
L 161.416219 111.093879 
L 161.552695 109.997971 
L 161.557845 109.891915 
L 161.874573 107.063764 
L 161.892598 106.993061 
L 162.023924 105.932504 
L 162.026499 105.967856 
L 162.034224 105.897152 
L 162.188725 103.988151 
L 162.193876 104.023502 
L 162.250526 103.316465 
L 162.263401 103.245761 
L 162.528628 98.579313 
L 162.538928 98.685368 
L 162.541503 98.72072 
L 162.582704 97.801571 
L 162.762955 78.923666 
L 162.804156 46.50599 
L 162.858231 87.125303 
L 162.989557 112.154435 
L 162.997282 112.04838 
L 163.038482 112.013028 
L 163.084833 112.295843 
L 163.218734 113.002881 
L 163.231609 112.932177 
L 163.285684 113.144288 
L 163.321735 113.108936 
L 163.535462 113.002881 
L 163.550912 113.038232 
L 163.677088 112.578658 
L 163.702838 112.472602 
L 163.710563 112.507954 
L 163.877939 111.553453 
L 163.883089 111.624157 
L 163.973215 111.129231 
L 163.983515 111.058527 
L 164.143167 109.679804 
L 164.148317 109.715155 
L 164.210117 109.149525 
L 164.356893 108.159673 
L 164.359468 108.195025 
L 164.413544 107.770802 
L 164.439294 107.806154 
L 164.57577 106.887005 
L 164.578345 106.922357 
L 164.58092 106.993061 
L 164.671046 106.42743 
L 164.673621 106.462782 
L 164.740571 105.932504 
L 164.745721 106.003208 
L 164.882198 104.942651 
L 165.049574 103.316465 
L 165.052149 103.351817 
L 165.101074 102.644779 
L 165.106224 102.680131 
L 165.253001 101.195352 
L 165.961131 89.988805 
L 166.141383 74.433977 
L 166.187733 65.914173 
L 166.234084 78.464092 
L 166.404035 101.973093 
L 166.589437 104.129558 
L 166.592012 104.058854 
L 166.682137 104.589133 
L 166.689862 104.659836 
L 166.836639 105.720393 
L 166.846939 105.649689 
L 166.911314 105.967856 
L 166.926764 105.932504 
L 166.988565 106.286023 
L 167.045215 106.215319 
L 167.086416 106.144615 
L 167.135341 106.498134 
L 167.163666 106.392079 
L 167.233192 106.179967 
L 167.282117 106.250671 
L 167.292417 106.356727 
L 167.343918 106.073912 
L 167.390268 106.179967 
L 167.439194 106.109264 
L 167.57567 105.366874 
L 167.58597 105.47293 
L 167.678671 105.084059 
L 167.748196 105.013355 
L 167.869222 104.518429 
L 167.874372 104.553781 
L 167.951623 104.447725 
L 168.088099 103.705336 
L 168.131874 103.59928 
L 168.25805 103.316465 
L 168.322426 103.457872 
L 168.361051 103.139705 
L 168.386801 103.104354 
L 168.505252 102.538723 
L 168.559328 102.644779 
L 168.600528 102.361964 
L 168.605678 102.432668 
L 168.742154 101.867038 
L 168.747304 102.008445 
L 168.762754 101.90239 
L 168.77563 101.937741 
L 168.87863 101.760982 
L 168.932706 102.043797 
L 168.976481 101.619574 
L 168.981631 101.619574 
L 169.071757 101.16 
L 169.112957 101.336759 
L 169.177333 101.266056 
L 169.228833 101.513519 
L 169.290634 101.690278 
L 169.336984 101.478167 
L 169.339559 101.548871 
L 169.43226 101.266056 
L 169.439985 101.301408 
L 169.532686 100.947889 
L 169.44771 101.336759 
L 169.568736 101.018592 
L 169.576461 101.195352 
L 169.661437 100.983241 
L 169.676887 100.983241 
L 169.754138 101.195352 
L 169.803063 100.735777 
L 169.818513 100.841833 
L 169.851988 100.488314 
L 169.913789 100.735777 
L 169.965289 100.665074 
L 170.096615 100.064092 
L 170.127516 99.958036 
L 170.132666 99.993388 
L 170.292317 99.215646 
L 170.366993 99.144943 
L 170.397893 98.968183 
L 170.428793 99.180295 
L 170.480294 99.038887 
L 170.482869 99.074239 
L 170.531794 98.756072 
L 170.591019 99.038887 
L 170.61677 98.932831 
L 170.748096 98.650016 
L 170.812471 98.791424 
L 170.838221 98.614664 
L 170.861397 98.72072 
L 170.866547 98.791424 
L 170.933497 98.508609 
L 170.966973 98.650016 
L 171.010748 98.543961 
L 171.013323 98.473257 
L 171.085424 98.826776 
L 171.118899 98.614664 
L 171.165249 98.508609 
L 171.2219 98.225794 
L 171.2837 98.367201 
L 171.286275 98.402553 
L 171.345501 97.801571 
L 171.360951 97.907627 
L 171.415026 97.836923 
L 171.440776 97.660164 
L 171.487127 97.942979 
L 171.525752 97.836923 
L 171.623603 97.801571 
L 171.649353 98.049034 
L 171.788404 97.660164 
L 171.85278 97.836923 
L 171.886255 97.483404 
L 171.896555 97.624812 
L 171.912005 97.554108 
L 171.971231 97.872275 
L 171.994406 97.801571 
L 172.061357 97.907627 
L 172.102557 97.730867 
L 172.110282 97.766219 
L 172.146332 97.271293 
L 172.174657 97.271293 
L 172.218433 97.059182 
L 172.275083 97.518756 
L 172.277658 97.483404 
L 172.316284 97.554108 
L 172.419284 97.059182 
L 172.522285 96.988478 
L 172.612411 96.564255 
L 172.545461 97.02383 
L 172.640736 96.705663 
L 172.751462 97.129885 
L 172.676787 96.634959 
L 172.769487 96.953126 
L 172.802963 96.84707 
L 172.813263 96.741015 
L 172.880213 97.059182 
L 172.908538 96.917774 
L 172.983214 97.059182 
L 172.926564 96.882422 
L 173.024414 96.988478 
L 173.081065 96.811718 
L 173.04244 97.059182 
L 173.13514 96.917774 
L 173.220116 97.200589 
L 173.245866 97.059182 
L 173.346292 96.953126 
L 173.281917 97.165237 
L 173.356592 97.02383 
L 173.369467 97.094534 
L 173.436418 96.705663 
L 173.444143 96.705663 
L 173.472468 96.776367 
L 173.490493 96.882422 
L 173.534269 96.634959 
L 173.585769 96.84707 
L 173.616669 96.776367 
L 173.66817 97.129885 
L 173.67847 97.094534 
L 173.74542 97.377349 
L 173.691345 97.059182 
L 173.794346 97.165237 
L 173.814946 97.059182 
L 173.871596 97.165237 
L 173.948847 96.741015 
L 174.023523 96.953126 
L 173.956572 96.705663 
L 174.059573 96.776367 
L 174.064723 96.670311 
L 174.154849 97.165237 
L 174.157424 97.129885 
L 174.255275 97.341997 
L 174.196049 96.917774 
L 174.2733 97.200589 
L 174.291325 97.059182 
L 174.34025 97.341997 
L 174.381451 97.235941 
L 174.407201 97.306645 
L 174.484451 97.554108 
L 174.520502 97.4127 
L 174.548827 97.341997 
L 174.551402 97.271293 
L 174.574577 97.660164 
L 174.651828 97.554108 
L 174.749679 97.483404 
L 174.705903 97.730867 
L 174.757404 97.554108 
L 174.826929 97.695516 
L 174.857829 97.377349 
L 174.86298 97.483404 
L 174.94023 97.235941 
L 174.97113 97.554108 
L 174.973705 97.518756 
L 175.061256 97.836923 
L 175.166832 97.907627 
L 175.295583 98.72072 
L 175.303308 98.685368 
L 175.398584 97.978331 
L 175.455234 98.084386 
L 175.522185 98.190442 
L 175.48871 97.978331 
L 175.56596 98.084386 
L 175.57111 98.013682 
L 175.612311 98.473257 
L 175.668961 98.190442 
L 175.717887 98.084386 
L 175.720462 97.978331 
L 175.810587 98.543961 
L 175.820887 98.402553 
L 175.885263 98.473257 
L 175.898138 98.261146 
L 175.926463 98.367201 
L 176.008864 98.261146 
L 175.952213 98.437905 
L 176.034614 98.402553 
L 176.065514 98.508609 
L 176.091265 98.543961 
L 176.15564 98.225794 
L 176.230316 98.331849 
L 176.338467 98.437905 
L 176.240616 98.225794 
L 176.346192 98.402553 
L 176.415717 98.296498 
L 176.444043 98.084386 
L 176.480093 98.437905 
L 176.531593 98.225794 
L 176.557343 98.261146 
L 176.595969 97.907627 
L 176.619144 97.942979 
L 176.716995 97.730867 
L 176.727295 97.978331 
L 176.74532 98.084386 
L 176.814846 98.296498 
L 176.861196 98.225794 
L 176.966772 98.049034 
L 176.884371 98.367201 
L 176.971922 98.084386 
L 177.051748 98.190442 
L 177.010547 98.013682 
L 177.080073 98.049034 
L 177.095523 98.15509 
L 177.103248 98.119738 
L 177.224274 98.473257 
L 177.275774 98.261146 
L 177.332425 98.508609 
L 177.36075 98.543961 
L 177.363325 98.650016 
L 177.461176 98.225794 
L 177.463751 98.261146 
L 177.468901 98.331849 
L 177.504951 97.907627 
L 177.553877 97.978331 
L 177.595077 97.872275 
L 177.698078 97.695516 
L 177.710953 97.730867 
L 177.728978 97.624812 
L 177.734128 97.58946 
L 177.788204 97.907627 
L 177.821679 97.872275 
L 177.857729 97.978331 
L 177.901504 97.872275 
L 177.97618 98.261146 
L 178.00708 98.119738 
L 178.076606 98.367201 
L 178.084331 98.261146 
L 178.177032 98.650016 
L 178.202782 98.579313 
L 178.205357 98.614664 
L 178.274883 98.261146 
L 178.292908 98.296498 
L 178.328958 98.225794 
L 178.334108 98.119738 
L 178.431959 98.402553 
L 178.434534 98.367201 
L 178.537535 98.084386 
L 178.478309 98.437905 
L 178.558135 98.190442 
L 178.62766 98.296498 
L 178.658561 98.049034 
L 178.730661 97.624812 
L 178.779587 97.872275 
L 178.789887 97.801571 
L 178.910913 98.190442 
L 179.013914 98.084386 
L 178.990738 98.261146 
L 179.024214 98.119738 
L 179.026789 98.190442 
L 179.116914 97.766219 
L 179.12464 97.942979 
L 179.23794 97.58946 
L 179.243091 97.660164 
L 179.263691 97.836923 
L 179.340941 97.483404 
L 179.346091 97.483404 
L 179.364116 97.377349 
L 179.474842 97.235941 
L 179.387292 97.4127 
L 179.477417 97.271293 
L 179.508318 97.448052 
L 179.572693 97.200589 
L 179.588143 97.306645 
L 179.598443 97.235941 
L 179.660244 97.730867 
L 179.670544 97.660164 
L 179.75037 98.119738 
L 179.79157 97.978331 
L 179.799295 98.049034 
L 179.912596 97.801571 
L 179.943496 97.978331 
L 180.005297 97.58946 
L 180.007872 97.624812 
L 180.067097 97.554108 
L 180.025897 97.730867 
L 180.108298 97.695516 
L 180.110873 97.766219 
L 180.159798 97.518756 
L 180.219024 97.695516 
L 180.260224 97.660164 
L 180.288549 97.730867 
L 180.3761 97.377349 
L 180.40185 97.448052 
L 180.497126 97.624812 
L 180.515151 97.58946 
L 180.533176 97.448052 
L 180.587252 97.730867 
L 180.625877 97.483404 
L 180.687677 97.58946 
L 180.718578 97.377349 
L 180.736603 97.483404 
L 180.865354 97.165237 
L 180.759778 97.730867 
L 180.867929 97.200589 
L 180.883379 97.094534 
L 181.02243 96.634959 
L 180.893679 97.129885 
L 181.025005 96.670311 
L 181.03273 96.564255 
L 181.202682 95.609755 
L 181.210407 95.645106 
L 181.218132 95.574403 
L 181.238732 95.503699 
L 181.313408 95.857218 
L 181.318558 95.821866 
L 181.354608 95.71581 
L 181.447309 95.468347 
L 181.362333 95.751162 
L 181.470484 95.609755 
L 181.56576 95.751162 
L 181.478209 95.539051 
L 181.578635 95.645106 
L 181.689361 95.468347 
L 181.65846 95.71581 
L 181.691936 95.503699 
L 181.833562 95.008773 
L 181.864462 95.15018 
L 181.910812 94.938069 
L 181.944288 95.044124 
L 181.988063 95.008773 
L 181.990638 94.867365 
L 182.055014 95.220884 
L 182.093639 95.185532 
L 182.219815 95.821866 
L 182.230115 95.998625 
L 182.315091 95.539051 
L 182.325391 95.71581 
L 182.482467 95.609755 
L 182.485042 95.574403 
L 182.559718 95.927921 
L 182.577743 95.821866 
L 182.647268 95.857218 
L 182.757994 96.104681 
L 182.760569 96.069329 
L 182.907346 95.220884 
L 182.925371 95.326939 
L 183.002621 95.220884 
L 183.015496 95.114828 
L 183.100472 95.397643 
L 183.113347 95.220884 
L 183.136522 95.362291 
L 183.177723 95.008773 
L 183.213773 95.079476 
L 183.236948 95.185532 
L 183.365699 95.539051 
L 183.260123 95.15018 
L 183.370849 95.503699 
L 183.381149 95.609755 
L 183.47385 95.645106 
L 183.41205 95.432995 
L 183.4893 95.574403 
L 183.50475 95.503699 
L 183.618051 94.973421 
L 183.633502 95.008773 
L 183.646377 94.938069 
L 183.674702 94.796661 
L 183.715902 95.220884 
L 183.746802 95.15018 
L 183.834353 95.362291 
L 183.865253 95.291588 
L 183.947654 94.832013 
L 183.870403 95.326939 
L 183.99658 94.973421 
L 184.10473 95.15018 
L 184.10988 95.079476 
L 184.228331 94.690606 
L 184.269532 94.58455 
L 184.321032 94.337087 
L 184.377683 94.58455 
L 184.457508 94.867365 
L 184.490984 94.725957 
L 184.501284 94.619902 
L 184.62746 114.770475 
L 184.833461 122.618592 
L 185.814544 134.567529 
L 185.817119 134.532177 
L 185.88922 134.991751 
L 185.89437 134.956399 
L 186.041146 135.981604 
L 186.043721 135.946252 
L 186.118397 136.441178 
L 186.120972 136.405827 
L 186.257448 137.112864 
L 186.414524 137.855254 
L 186.417099 137.819902 
L 186.419674 137.78455 
L 186.491775 138.102717 
L 186.50465 138.102717 
L 186.651426 138.597643 
L 186.679752 138.703699 
L 186.821378 139.233977 
L 186.826528 139.127921 
L 186.903778 139.552144 
L 186.926954 139.410736 
L 187.04798 139.799607 
L 186.932104 139.375385 
L 187.050555 139.764255 
L 187.071155 139.799607 
L 187.187031 140.153126 
L 187.192181 140.082422 
L 187.284882 140.435941 
L 187.421358 140.78946 
L 187.423933 140.718756 
L 187.511483 141.072275 
L 187.524358 141.001571 
L 187.560409 141.072275 
L 187.676285 141.390442 
L 187.681435 141.35509 
L 187.72521 141.461146 
L 187.851386 141.673257 
L 187.933787 141.743961 
L 188.052238 141.991424 
L 188.070263 141.956072 
L 188.150089 142.168183 
L 188.155239 142.062128 
L 188.255664 142.344943 
L 188.281415 142.274239 
L 188.34579 142.380295 
L 188.358665 142.344943 
L 188.461666 142.48635 
L 188.502867 142.380295 
L 188.523467 142.592406 
L 188.572392 142.48635 
L 188.626468 142.627758 
L 188.688268 142.592406 
L 188.711443 142.557054 
L 188.783544 142.733813 
L 188.791269 142.66311 
L 188.88912 142.804517 
L 188.806719 142.627758 
L 188.90972 142.769165 
L 188.992121 142.875221 
L 188.997271 142.804517 
L 189.107996 143.016628 
L 189.216147 143.087332 
L 189.113147 142.981277 
L 189.218722 143.016628 
L 189.221297 142.981277 
L 189.290823 143.193388 
L 189.316573 143.193388 
L 189.391249 143.299444 
L 189.50455 143.405499 
L 189.437599 143.22874 
L 189.507125 143.370147 
L 189.54575 143.264092 
L 189.568925 143.405499 
L 189.615276 143.405499 
L 189.756902 143.511555 
L 189.852178 143.546907 
L 189.787802 143.440851 
L 189.862478 143.511555 
L 189.913978 143.405499 
L 189.955178 143.582259 
L 189.973204 143.511555 
L 189.991229 143.405499 
L 190.08908 143.61761 
L 190.10453 143.511555 
L 190.163755 143.688314 
L 190.199805 143.61761 
L 190.310531 143.688314 
L 190.325981 143.61761 
L 190.423832 143.829722 
L 190.534558 143.688314 
L 190.537133 143.723666 
L 190.642709 143.829722 
L 190.552583 143.688314 
L 190.650434 143.759018 
L 191.121663 143.829722 
L 191.137113 143.900426 
L 191.168013 143.723666 
L 191.229814 143.79437 
L 191.281314 143.900426 
L 191.294189 143.935777 
L 191.31994 143.829722 
L 191.389465 143.900426 
L 191.469291 143.865074 
L 191.477016 144.006481 
L 191.497616 143.935777 
L 191.737093 144.041833 
L 191.824644 144.147889 
L 191.749968 143.971129 
L 191.845244 144.006481 
L 192.035796 144.112537 
L 192.092446 144.041833 
L 192.149096 144.218592 
L 192.234072 144.077185 
L 192.262397 144.112537 
L 192.370548 144.218592 
L 192.375698 144.183241 
L 192.478699 144.147889 
L 192.404024 144.289296 
L 192.483849 144.183241 
L 192.52505 144.324648 
L 192.491574 144.147889 
L 192.594575 144.183241 
L 192.707876 144.112537 
L 192.764527 144.041833 
L 192.741351 144.183241 
L 192.818602 144.112537 
L 192.931903 143.971129 
L 192.836627 144.147889 
L 192.937053 144.006481 
L 192.983403 144.112537 
L 193.040054 143.935777 
L 193.042629 143.935777 
L 193.119879 143.900426 
L 193.114729 144.041833 
L 193.15078 143.935777 
L 193.246055 144.041833 
L 193.168805 143.865074 
L 193.261506 143.935777 
L 193.374807 143.971129 
L 193.377382 144.112537 
L 193.416007 143.935777 
L 193.485532 144.006481 
L 193.508708 143.900426 
L 193.547333 144.041833 
L 193.596258 144.006481 
L 194.549016 144.077185 
L 194.649442 144.218592 
L 194.600517 144.006481 
L 194.662317 144.147889 
L 195.02282 144.041833 
L 195.094921 143.723666 
L 195.143846 143.865074 
L 195.259722 143.971129 
L 195.357573 143.935777 
L 195.365298 144.041833 
L 195.370448 143.971129 
L 195.573875 144.077185 
L 195.60735 144.147889 
L 195.65885 143.971129 
L 195.67945 144.006481 
L 195.767001 143.900426 
L 195.687176 144.077185 
L 195.790176 143.971129 
L 195.882877 144.041833 
L 195.815927 143.900426 
L 195.898327 143.935777 
L 196.009053 143.829722 
L 195.960128 144.006481 
L 196.014203 143.865074 
L 196.132654 144.006481 
L 196.158404 143.865074 
L 196.19188 144.041833 
L 196.24338 143.971129 
L 196.354106 144.147889 
L 196.356681 144.112537 
L 196.418482 144.006481 
L 196.451957 144.147889 
L 196.467407 144.112537 
L 196.488007 144.077185 
L 196.578133 144.183241 
L 196.670834 144.077185 
L 196.681134 144.218592 
L 196.691434 144.112537 
L 196.745509 144.253944 
L 196.714609 144.041833 
L 196.80216 144.183241 
L 196.920611 144.006481 
L 196.81246 144.218592 
L 196.923186 144.041833 
L 197.170388 143.971129 
L 197.247638 143.900426 
L 197.211588 144.112537 
L 197.275964 144.041833 
L 197.376389 144.077185 
L 197.283689 143.971129 
L 197.386689 144.041833 
L 197.814143 144.112537 
L 197.824443 144.077185 
L 197.927444 144.253944 
L 198.02272 144.183241 
L 197.963494 144.289296 
L 198.03817 144.253944 
L 198.455323 144.147889 
L 198.553174 144.253944 
L 198.563474 144.112537 
L 198.630425 144.218592 
L 198.65875 144.077185 
L 198.6742 144.183241 
L 198.774626 144.041833 
L 198.787501 144.112537 
L 199.266455 144.041833 
L 199.348856 143.935777 
L 199.28963 144.077185 
L 199.374606 144.006481 
L 199.457006 144.112537 
L 199.397781 143.971129 
L 199.485332 144.077185 
L 199.516232 144.147889 
L 199.598633 143.971129 
L 199.621808 144.077185 
L 199.670733 143.900426 
L 199.706784 144.006481 
L 199.789184 144.077185 
L 199.820084 143.900426 
L 199.94111 144.041833 
L 199.987461 143.935777 
L 200.010636 144.077185 
L 200.051836 144.041833 
L 200.165137 144.147889 
L 200.077587 144.006481 
L 200.167712 144.112537 
L 200.221788 144.006481 
L 200.183162 144.147889 
L 200.278438 144.041833 
L 200.365989 144.147889 
L 200.301613 143.971129 
L 200.394314 144.112537 
L 200.711042 144.147889 
L 200.793442 144.253944 
L 200.821768 144.183241 
L 200.837218 144.218592 
L 200.937644 144.077185 
L 201.025194 144.218592 
L 201.050945 144.183241 
L 201.7153 144.183241 
L 201.717875 144.324648 
L 201.826026 144.218592 
L 202.539307 144.112537 
L 202.616557 143.971129 
L 202.544457 144.147889 
L 202.652608 144.041833 
L 202.714408 144.077185 
L 202.755609 143.935777 
L 202.760759 144.006481 
L 202.850884 144.077185 
L 202.87406 143.935777 
L 202.97706 144.077185 
L 202.98736 144.041833 
L 203.010536 144.077185 
L 203.100661 143.935777 
L 203.167612 144.006481 
L 203.170187 144.077185 
L 203.175337 143.935777 
L 203.275763 143.935777 
L 203.391639 144.077185 
L 203.280913 143.900426 
L 203.394214 144.041833 
L 203.458589 143.971129 
L 203.466314 144.112537 
L 203.50494 144.006481 
L 203.59764 144.077185 
L 203.512665 143.971129 
L 203.618241 144.041833 
L 203.659441 143.865074 
L 203.703216 144.112537 
L 203.728967 144.041833 
L 204.349547 144.147889 
L 204.385597 144.183241 
L 204.437097 144.041833 
L 204.460273 144.147889 
L 204.900601 144.183241 
L 204.954677 144.324648 
L 205.011327 144.253944 
L 205.104028 144.147889 
L 205.024202 144.289296 
L 205.124628 144.218592 
L 205.214754 144.289296 
L 205.163253 144.183241 
L 205.235354 144.218592 
L 205.819884 144.183241 
L 205.825034 144.077185 
L 205.904859 144.289296 
L 205.928035 144.253944 
L 206.190687 144.183241 
L 206.198412 144.218592 
L 206.301413 144.077185 
L 206.409564 144.147889 
L 206.306563 144.041833 
L 206.412139 144.077185 
L 206.450764 144.147889 
L 206.453339 144.218592 
L 206.476514 144.077185 
L 206.56149 144.147889 
L 206.579515 144.077185 
L 206.656766 144.289296 
L 206.669641 144.183241 
L 206.780367 144.289296 
L 206.703116 144.112537 
L 206.785517 144.253944 
L 206.885942 144.147889 
L 206.793242 144.289296 
L 206.898818 144.218592 
L 206.999243 144.147889 
L 207.019844 144.218592 
L 207.112544 144.006481 
L 207.122844 144.147889 
L 207.169195 143.935777 
L 207.220695 143.971129 
L 207.352021 144.041833 
L 207.424122 144.147889 
L 207.380347 144.006481 
L 207.462747 144.077185 
L 207.617248 144.147889 
L 207.619823 144.218592 
L 207.650724 144.041833 
L 207.725399 144.112537 
L 208.343404 144.183241 
L 208.451555 144.253944 
L 208.42323 144.112537 
L 208.45413 144.183241 
L 208.845534 144.289296 
L 208.925359 144.324648 
L 208.884159 144.183241 
L 208.951109 144.218592 
L 209.06441 144.289296 
L 209.167411 144.395352 
L 209.103036 144.218592 
L 209.175136 144.324648 
L 209.193161 144.395352 
L 209.226637 144.536759 
L 209.198311 144.36 
L 209.301312 144.36 
L 209.309037 144.466056 
L 209.401738 144.501408 
L 209.360538 144.395352 
L 209.419763 144.466056 
L 209.499589 144.36 
L 209.435213 144.501408 
L 209.535639 144.395352 
L 209.764816 144.466056 
L 209.767391 144.536759 
L 209.800866 144.36 
L 209.872967 144.395352 
L 209.947643 144.501408 
L 209.986268 144.430704 
L 210.091844 144.536759 
L 210.171669 144.572111 
L 210.143344 144.430704 
L 210.20257 144.536759 
L 210.29527 144.430704 
L 210.272095 144.572111 
L 210.313296 144.501408 
L 210.413721 144.572111 
L 210.393121 144.466056 
L 210.424022 144.536759 
L 210.429172 144.572111 
L 210.542472 144.395352 
L 210.655773 144.607463 
L 210.663498 144.536759 
L 211.657457 144.572111 
L 211.752732 144.713519 
L 211.770758 144.678167 
L 211.878908 144.607463 
L 211.809383 144.748871 
L 211.881483 144.678167 
L 211.974184 144.748871 
L 211.886634 144.642815 
L 211.994784 144.713519 
L 212.138986 144.642815 
L 212.159586 144.678167 
L 212.252287 144.572111 
L 212.265162 144.678167 
L 212.288337 144.536759 
L 212.365587 144.607463 
L 212.388763 144.536759 
L 212.409363 144.678167 
L 212.476313 144.607463 
L 213.380146 144.536759 
L 213.444521 144.466056 
L 213.457396 144.607463 
L 213.490872 144.501408 
L 213.529497 144.642815 
L 213.498597 144.466056 
L 213.601598 144.536759 
L 214.044501 144.466056 
L 214.047076 144.395352 
L 214.062526 144.572111 
L 214.155227 144.430704 
L 214.211878 144.36 
L 214.268528 144.501408 
L 214.376679 144.289296 
L 214.384404 144.430704 
L 214.471955 144.466056 
L 214.456505 144.289296 
L 214.487405 144.36 
L 214.54148 144.324648 
L 214.52088 144.466056 
L 214.592981 144.430704 
L 214.595556 144.466056 
L 214.644481 144.289296 
L 214.698557 144.36 
L 214.737182 144.395352 
L 214.811858 144.289296 
L 214.868508 144.36 
L 214.881383 144.218592 
L 214.920008 144.253944 
L 215.847016 144.324648 
L 215.849591 144.430704 
L 215.898516 144.253944 
L 215.955167 144.289296 
L 216.423821 144.218592 
L 216.531972 144.112537 
L 216.462446 144.253944 
L 216.534547 144.147889 
L 216.604072 144.218592 
L 216.606647 144.112537 
L 216.647848 144.183241 
L 217.268428 144.077185 
L 217.299328 144.041833 
L 217.283878 144.147889 
L 217.376579 144.077185 
L 217.384304 144.041833 
L 217.48988 144.183241 
L 217.58773 144.006481 
L 217.60318 144.041833 
L 217.958533 144.147889 
L 217.961108 144.183241 
L 218.002309 144.006481 
L 218.061534 144.041833 
L 218.507013 143.935777 
L 218.558513 143.865074 
L 218.535338 144.006481 
L 218.617739 143.935777 
L 218.774815 144.006481 
L 218.844341 144.077185 
L 218.849491 143.971129 
L 218.885541 144.006481 
L 218.993692 144.077185 
L 218.944766 143.935777 
L 218.998842 144.041833 
L 219.104418 143.935777 
L 219.011717 144.077185 
L 219.114718 143.971129 
L 219.439171 144.077185 
L 219.457196 144.006481 
L 219.549896 144.147889 
L 219.578222 144.006481 
L 219.652897 144.183241 
L 219.660622 144.077185 
L 219.761048 144.183241 
L 219.694098 144.041833 
L 219.773923 144.147889 
L 219.779073 144.077185 
L 219.802248 144.218592 
L 219.882074 144.147889 
L 219.94645 144.218592 
L 219.9619 144.077185 
L 219.9928 144.147889 
L 220.139576 144.218592 
L 220.216827 144.289296 
L 220.178202 144.147889 
L 220.247727 144.218592 
L 220.348153 144.147889 
L 220.273477 144.289296 
L 220.361028 144.183241 
L 220.417679 144.253944 
L 220.386778 144.112537 
L 220.471754 144.218592 
L 220.476904 144.253944 
L 220.585055 144.147889 
L 220.65458 144.253944 
L 220.59278 144.112537 
L 220.695781 144.147889 
L 221.21336 144.218592 
L 221.300911 144.324648 
L 221.23396 144.147889 
L 221.324086 144.218592 
L 221.76699 144.112537 
L 221.800465 144.077185 
L 221.790165 144.218592 
L 221.877716 144.112537 
L 221.954966 144.253944 
L 221.991016 144.183241 
L 222.815023 144.289296 
L 222.912874 144.324648 
L 222.899999 144.183241 
L 222.923174 144.253944 
L 222.925749 144.218592 
L 222.97725 144.395352 
L 223.026175 144.36 
L 223.600405 144.466056 
L 223.63903 144.536759 
L 223.60813 144.395352 
L 223.711131 144.466056 
L 223.770356 144.395352 
L 223.806406 144.572111 
L 223.819281 144.501408 
L 224.21841 144.430704 
L 224.220985 144.36 
L 224.24931 144.501408 
L 224.326561 144.430704 
L 224.367761 144.466056 
L 224.393511 144.324648 
L 224.429561 144.36 
L 224.499087 144.253944 
L 224.434712 144.395352 
L 224.542862 144.289296 
L 224.560888 144.36 
L 224.630413 144.218592 
L 224.648438 144.253944 
L 224.728264 144.183241 
L 224.681914 144.324648 
L 224.754014 144.289296 
L 224.756589 144.36 
L 224.764314 144.218592 
L 224.862165 144.289296 
L 224.967741 144.218592 
L 224.962591 144.324648 
L 224.970316 144.289296 
L 225.060442 144.36 
L 224.988341 144.253944 
L 225.081042 144.324648 
L 225.184043 144.218592 
L 225.091342 144.395352 
L 225.191768 144.289296 
L 225.199493 144.253944 
L 225.307644 144.36 
L 225.333394 144.253944 
L 225.361719 144.395352 
L 225.41322 144.36 
L 225.472445 144.466056 
L 225.44412 144.324648 
L 225.523945 144.36 
L 225.619221 144.466056 
L 225.603771 144.324648 
L 225.634671 144.430704 
L 225.735097 144.289296 
L 225.747972 144.36 
L 225.925649 144.430704 
L 226.0338 144.536759 
L 225.969424 144.324648 
L 226.036375 144.501408 
L 226.1265 144.395352 
L 226.147101 144.466056 
L 226.239801 144.607463 
L 226.165126 144.430704 
L 226.260402 144.572111 
L 226.358252 144.501408 
L 226.360827 144.642815 
L 226.371127 144.572111 
L 226.844931 144.466056 
L 226.847506 144.430704 
L 226.875832 144.642815 
L 226.950507 144.501408 
L 227.025183 144.607463 
L 227.058658 144.501408 
L 227.076683 144.536759 
L 227.171959 144.395352 
L 227.220884 144.536759 
L 227.28526 144.466056 
L 227.31101 144.395352 
L 227.401136 144.536759 
L 227.511862 144.466056 
L 227.429461 144.572111 
L 227.514437 144.501408 
L 227.789964 144.395352 
L 227.898115 144.36 
L 227.823439 144.466056 
L 227.90069 144.395352 
L 227.980516 144.466056 
L 227.92129 144.324648 
L 228.008841 144.36 
L 228.050041 144.395352 
L 228.142742 144.536759 
L 228.160767 144.466056 
L 228.181367 144.430704 
L 228.194242 144.466056 
L 228.294668 144.253944 
L 228.425994 144.36 
L 228.50067 144.430704 
L 228.456895 144.218592 
L 228.52642 144.324648 
L 228.56762 144.183241 
L 228.631996 144.395352 
L 228.637146 144.289296 
L 229.000224 144.324648 
L 229.067175 144.466056 
L 229.113525 144.430704 
L 229.201076 144.466056 
L 229.231976 144.324648 
L 229.275751 144.430704 
L 229.288626 144.289296 
L 229.340127 144.289296 
L 229.667154 144.183241 
L 229.75213 144.147889 
L 229.70063 144.289296 
L 229.775305 144.218592 
L 229.860281 144.324648 
L 229.806206 144.183241 
L 229.883456 144.218592 
L 229.950407 144.183241 
L 229.911781 144.324648 
L 229.991607 144.253944 
L 230.110058 144.253944 
L 230.112633 144.112537 
L 230.125508 144.289296 
L 230.220784 144.183241 
L 230.251684 144.253944 
L 230.277435 144.112537 
L 230.334085 144.218592 
L 230.38816 144.077185 
L 230.444811 144.147889 
L 230.524637 144.253944 
L 230.527212 144.077185 
L 230.552962 144.147889 
L 230.632787 144.041833 
L 230.558112 144.183241 
L 230.668838 144.077185 
L 230.712613 144.183241 
L 230.692013 144.041833 
L 230.779564 144.112537 
L 230.856814 144.006481 
L 230.789864 144.183241 
L 230.892865 144.077185 
L 232.623279 144.006481 
L 232.72628 143.865074 
L 232.636154 144.041833 
L 232.73658 143.900426 
L 233.789763 143.79437 
L 233.792338 143.759018 
L 233.872164 143.935777 
L 233.892764 143.900426 
L 234.961398 143.865074 
L 235.015473 143.971129 
L 235.074699 143.759018 
L 235.149374 143.935777 
L 235.190575 143.900426 
L 235.19315 143.935777 
L 235.2292 143.79437 
L 235.296151 143.865074 
L 235.311601 143.935777 
L 235.409452 143.829722 
L 235.478977 143.935777 
L 235.491852 143.759018 
L 235.520178 143.829722 
L 236.292684 143.79437 
L 236.302984 143.688314 
L 236.321009 143.865074 
L 236.400835 143.829722 
L 236.547611 143.900426 
L 236.596536 143.971129 
L 236.624862 143.79437 
L 236.655762 143.900426 
L 236.738163 143.865074 
L 236.691812 143.971129 
L 236.763913 143.935777 
L 237.134716 143.829722 
L 237.150166 143.79437 
L 237.173341 144.006481 
L 237.240292 143.900426 
L 237.775896 143.971129 
L 237.827396 144.077185 
L 237.876322 143.865074 
L 237.884047 143.971129 
L 237.976748 143.900426 
L 237.935547 144.041833 
L 237.994773 143.935777 
L 238.046273 144.041833 
L 238.082324 143.900426 
L 238.105499 143.971129 
L 238.187899 143.900426 
L 238.115799 144.041833 
L 238.2188 143.935777 
L 238.852255 143.829722 
L 238.939806 143.688314 
L 238.88058 143.900426 
L 238.962981 143.759018 
L 239.037656 143.829722 
L 239.060832 143.723666 
L 239.071132 143.79437 
L 239.086582 143.723666 
L 239.094307 143.865074 
L 239.176708 143.865074 
L 239.192158 143.935777 
L 239.197308 143.79437 
L 239.287433 143.865074 
L 239.753512 143.829722 
L 239.856513 143.723666 
L 239.784413 143.900426 
L 239.864238 143.829722 
L 239.871963 143.723666 
L 239.964664 143.900426 
L 239.974964 143.829722 
L 240.150066 143.935777 
L 240.250491 143.971129 
L 240.186116 143.829722 
L 240.258216 143.900426 
L 240.531169 143.79437 
L 240.577519 143.900426 
L 240.641895 143.723666 
L 240.74232 143.829722 
L 240.65992 143.688314 
L 240.750045 143.723666 
L 240.755196 143.759018 
L 240.865921 143.652962 
L 240.907122 143.759018 
L 240.914847 143.61761 
L 240.979222 143.688314 
L 241.089948 143.79437 
L 241.125999 143.829722 
L 241.136299 143.688314 
L 241.198099 143.759018 
L 242.047856 143.865074 
L 242.063306 143.79437 
L 242.163732 143.935777 
L 242.282183 143.79437 
L 242.338834 143.935777 
L 242.307933 143.723666 
L 242.395484 143.900426 
L 243.206616 144.006481 
L 243.209191 144.041833 
L 243.245241 143.865074 
L 243.314767 144.006481 
L 243.410042 143.935777 
L 243.379142 144.077185 
L 243.425492 144.006481 
L 243.525918 144.077185 
L 243.458968 143.900426 
L 243.538793 144.041833 
L 243.70617 144.147889 
L 243.804021 144.183241 
L 243.76282 144.041833 
L 243.816896 144.147889 
L 243.953372 144.112537 
L 243.955947 144.006481 
L 243.966247 144.183241 
L 244.061523 144.147889 
L 244.599702 144.253944 
L 244.615152 144.147889 
L 244.710428 144.289296 
L 244.779954 144.112537 
L 244.821154 144.253944 
L 244.859779 144.183241 
L 244.862354 144.112537 
L 244.877804 144.289296 
L 244.96793 144.218592 
L 245.328433 144.147889 
L 245.431434 144.077185 
L 245.356758 144.218592 
L 245.439159 144.112537 
L 245.464909 144.218592 
L 245.55246 144.147889 
L 245.730136 144.041833 
L 245.745586 144.112537 
L 245.843437 143.935777 
L 245.905238 144.041833 
L 245.936138 143.900426 
L 245.954163 143.971129 
L 246.216815 143.935777 
L 246.324966 143.829722 
L 246.237416 143.971129 
L 246.327541 143.900426 
L 246.355867 143.829722 
L 246.361017 143.971129 
L 246.435692 143.865074 
L 246.440842 143.935777 
L 246.528393 143.759018 
L 246.543843 143.79437 
L 246.597918 143.759018 
L 246.600494 143.652962 
L 246.636544 143.829722 
L 246.708644 143.723666 
L 246.981597 143.79437 
L 246.984172 143.865074 
L 247.069147 143.723666 
L 247.092323 143.829722 
L 247.203048 143.79437 
L 247.300899 143.61761 
L 247.316349 143.652962 
L 247.4039 143.61761 
L 247.501751 143.476203 
L 247.514626 143.61761 
L 247.576427 143.476203 
L 247.627927 143.511555 
L 247.651102 143.61761 
L 247.718053 143.440851 
L 247.738653 143.546907 
L 247.769553 143.61761 
L 247.851954 143.476203 
L 247.913754 143.582259 
L 247.99358 143.652962 
L 247.926629 143.476203 
L 248.01933 143.61761 
L 248.047655 143.652962 
L 248.132631 143.440851 
L 248.235632 143.61761 
L 248.248507 143.546907 
L 248.325758 143.440851 
L 248.253657 143.61761 
L 248.359233 143.546907 
" clip-path="url(#p0bc75ff82e)" style="fill: none; stroke: #000000; stroke-opacity: 0.5; stroke-width: 1.5; stroke-linecap: square"/>
   </g>
   <g id="patch_3">
    <path d="M 35.304688 173.52 
L 35.304688 7.2 
" style="fill: none; stroke: #000000; stroke-width: 0.8; stroke-linejoin: miter; stroke-linecap: square"/>
   </g>
   <g id="patch_4">
    <path d="M 35.304688 173.52 
L 258.504687 173.52 
" style="fill: none; stroke: #000000; stroke-width: 0.8; stroke-linejoin: miter; stroke-linecap: square"/>
   </g>
  </g>
 </g>
 <defs>
  <clipPath id="p0bc75ff82e">
   <rect x="35.304688" y="7.2" width="223.2" height="166.32"/>
  </clipPath>
 </defs>
</svg>
