<?xml version="1.0" encoding="utf-8" standalone="no"?>
<!DOCTYPE svg PUBLIC "-//W3C//DTD SVG 1.1//EN"
  "http://www.w3.org/Graphics/SVG/1.1/DTD/svg11.dtd">
<svg xmlns:xlink="http://www.w3.org/1999/xlink" width="272.067187pt" height="197.398125pt" viewBox="0 0 272.067187 197.398125" xmlns="http://www.w3.org/2000/svg" version="1.1">
 <metadata>
  <rdf:RDF xmlns:dc="http://purl.org/dc/elements/1.1/" xmlns:cc="http://creativecommons.org/ns#" xmlns:rdf="http://www.w3.org/1999/02/22-rdf-syntax-ns#">
   <cc:Work>
    <dc:type rdf:resource="http://purl.org/dc/dcmitype/StillImage"/>
    <dc:date>2025-12-19T12:02:05.741149</dc:date>
    <dc:format>image/svg+xml</dc:format>
    <dc:creator>
     <cc:Agent>
      <dc:title>Matplotlib v3.10.7, https://matplotlib.org/</dc:title>
     </cc:Agent>
    </dc:creator>
   </cc:Work>
  </rdf:RDF>
 </metadata>
 <defs>
  <style type="text/css">*{stroke-linejoin: round; stroke-linecap: butt}</style>
 </defs>
 <g id="figure_1">
  <g id="patch_1">
   <path d="M 0 197.398125 
L 272.067187 197.398125 
L 272.067187 0 
L 0 0 
z
" style="fill: #ffffff"/>
  </g>
  <g id="axes_1">
   <g id="patch_2">
    <path d="M 41.667188 173.52 
L 264.867188 173.52 
L 264.867188 7.2 
L 41.667188 7.2 
z
" style="fill: #ffffff"/>
   </g>
   <g id="matplotlib.axis_1">
    <g id="xtick_1">
     <g id="line2d_1">
      <defs>
       <path id="mcb827d32f4" d="M 0 0 
L 0 3.5 
" style="stroke: #000000; stroke-width: 0.8"/>
      </defs>
      <g>
       <use xlink:href="#mcb827d32f4" x="82.712896" y="173.52" style="stroke: #000000; stroke-width: 0.8"/>
      </g>
     </g>
     <g id="text_1">
      <!-- 1 -->
      <g transform="translate(79.531646 188.118438) scale(0.1 -0.1)">
       <defs>
        <path id="DejaVuSans-31" d="M 794 531 
L 1825 531 
L 1825 4091 
L 703 3866 
L 703 4441 
L 1819 4666 
L 2450 4666 
L 2450 531 
L 3481 531 
L 3481 0 
L 794 0 
L 794 531 
z
" transform="scale(0.015625)"/>
       </defs>
       <use xlink:href="#DejaVuSans-31"/>
      </g>
     </g>
    </g>
    <g id="xtick_2">
     <g id="line2d_2">
      <g>
       <use xlink:href="#mcb827d32f4" x="134.213319" y="173.52" style="stroke: #000000; stroke-width: 0.8"/>
      </g>
     </g>
     <g id="text_2">
      <!-- 2 -->
      <g transform="translate(131.032069 188.118438) scale(0.1 -0.1)">
       <defs>
        <path id="DejaVuSans-32" d="M 1228 531 
L 3431 531 
L 3431 0 
L 469 0 
L 469 531 
Q 828 903 1448 1529 
Q 2069 2156 2228 2338 
Q 2531 2678 2651 2914 
Q 2772 3150 2772 3378 
Q 2772 3750 2511 3984 
Q 2250 4219 1831 4219 
Q 1534 4219 1204 4116 
Q 875 4013 500 3803 
L 500 4441 
Q 881 4594 1212 4672 
Q 1544 4750 1819 4750 
Q 2544 4750 2975 4387 
Q 3406 4025 3406 3419 
Q 3406 3131 3298 2873 
Q 3191 2616 2906 2266 
Q 2828 2175 2409 1742 
Q 1991 1309 1228 531 
z
" transform="scale(0.015625)"/>
       </defs>
       <use xlink:href="#DejaVuSans-32"/>
      </g>
     </g>
    </g>
    <g id="xtick_3">
     <g id="line2d_3">
      <g>
       <use xlink:href="#mcb827d32f4" x="185.713741" y="173.52" style="stroke: #000000; stroke-width: 0.8"/>
      </g>
     </g>
     <g id="text_3">
      <!-- 3 -->
      <g transform="translate(182.532491 188.118438) scale(0.1 -0.1)">
       <defs>
        <path id="DejaVuSans-33" d="M 2597 2516 
Q 3050 2419 3304 2112 
Q 3559 1806 3559 1356 
Q 3559 666 3084 287 
Q 2609 -91 1734 -91 
Q 1441 -91 1130 -33 
Q 819 25 488 141 
L 488 750 
Q 750 597 1062 519 
Q 1375 441 1716 441 
Q 2309 441 2620 675 
Q 2931 909 2931 1356 
Q 2931 1769 2642 2001 
Q 2353 2234 1838 2234 
L 1294 2234 
L 1294 2753 
L 1863 2753 
Q 2328 2753 2575 2939 
Q 2822 3125 2822 3475 
Q 2822 3834 2567 4026 
Q 2313 4219 1838 4219 
Q 1578 4219 1281 4162 
Q 984 4106 628 3988 
L 628 4550 
Q 988 4650 1302 4700 
Q 1616 4750 1894 4750 
Q 2613 4750 3031 4423 
Q 3450 4097 3450 3541 
Q 3450 3153 3228 2886 
Q 3006 2619 2597 2516 
z
" transform="scale(0.015625)"/>
       </defs>
       <use xlink:href="#DejaVuSans-33"/>
      </g>
     </g>
    </g>
    <g id="xtick_4">
     <g id="line2d_4">
      <g>
       <use xlink:href="#mcb827d32f4" x="237.214164" y="173.52" style="stroke: #000000; stroke-width: 0.8"/>
      </g>
     </g>
     <g id="text_4">
      <!-- 4 -->
      <g transform="translate(234.032914 188.118438) scale(0.1 -0.1)">
       <defs>
        <path id="DejaVuSans-34" d="M 2419 4116 
L 825 1625 
L 2419 1625 
L 2419 4116 
z
M 2253 4666 
L 3047 4666 
L 3047 1625 
L 3713 1625 
L 3713 1100 
L 3047 1100 
L 3047 0 
L 2419 0 
L 2419 1100 
L 313 1100 
L 313 1709 
L 2253 4666 
z
" transform="scale(0.015625)"/>
       </defs>
       <use xlink:href="#DejaVuSans-34"/>
      </g>
     </g>
    </g>
   </g>
   <g id="matplotlib.axis_2">
    <g id="ytick_1">
     <g id="line2d_5">
      <defs>
       <path id="mc582242ff0" d="M 0 0 
L -3.5 0 
" style="stroke: #000000; stroke-width: 0.8"/>
      </defs>
      <g>
       <use xlink:href="#mc582242ff0" x="41.667188" y="153.985039" style="stroke: #000000; stroke-width: 0.8"/>
      </g>
     </g>
     <g id="text_5">
      <!-- −100 -->
      <g transform="translate(7.2 157.784258) scale(0.1 -0.1)">
       <defs>
        <path id="DejaVuSans-2212" d="M 678 2272 
L 4684 2272 
L 4684 1741 
L 678 1741 
L 678 2272 
z
" transform="scale(0.015625)"/>
        <path id="DejaVuSans-30" d="M 2034 4250 
Q 1547 4250 1301 3770 
Q 1056 3291 1056 2328 
Q 1056 1369 1301 889 
Q 1547 409 2034 409 
Q 2525 409 2770 889 
Q 3016 1369 3016 2328 
Q 3016 3291 2770 3770 
Q 2525 4250 2034 4250 
z
M 2034 4750 
Q 2819 4750 3233 4129 
Q 3647 3509 3647 2328 
Q 3647 1150 3233 529 
Q 2819 -91 2034 -91 
Q 1250 -91 836 529 
Q 422 1150 422 2328 
Q 422 3509 836 4129 
Q 1250 4750 2034 4750 
z
" transform="scale(0.015625)"/>
       </defs>
       <use xlink:href="#DejaVuSans-2212"/>
       <use xlink:href="#DejaVuSans-31" transform="translate(83.789062 0)"/>
       <use xlink:href="#DejaVuSans-30" transform="translate(147.412109 0)"/>
       <use xlink:href="#DejaVuSans-30" transform="translate(211.035156 0)"/>
      </g>
     </g>
    </g>
    <g id="ytick_2">
     <g id="line2d_6">
      <g>
       <use xlink:href="#mc582242ff0" x="41.667188" y="131.702505" style="stroke: #000000; stroke-width: 0.8"/>
      </g>
     </g>
     <g id="text_6">
      <!-- −80 -->
      <g transform="translate(13.5625 135.501724) scale(0.1 -0.1)">
       <defs>
        <path id="DejaVuSans-38" d="M 2034 2216 
Q 1584 2216 1326 1975 
Q 1069 1734 1069 1313 
Q 1069 891 1326 650 
Q 1584 409 2034 409 
Q 2484 409 2743 651 
Q 3003 894 3003 1313 
Q 3003 1734 2745 1975 
Q 2488 2216 2034 2216 
z
M 1403 2484 
Q 997 2584 770 2862 
Q 544 3141 544 3541 
Q 544 4100 942 4425 
Q 1341 4750 2034 4750 
Q 2731 4750 3128 4425 
Q 3525 4100 3525 3541 
Q 3525 3141 3298 2862 
Q 3072 2584 2669 2484 
Q 3125 2378 3379 2068 
Q 3634 1759 3634 1313 
Q 3634 634 3220 271 
Q 2806 -91 2034 -91 
Q 1263 -91 848 271 
Q 434 634 434 1313 
Q 434 1759 690 2068 
Q 947 2378 1403 2484 
z
M 1172 3481 
Q 1172 3119 1398 2916 
Q 1625 2713 2034 2713 
Q 2441 2713 2670 2916 
Q 2900 3119 2900 3481 
Q 2900 3844 2670 4047 
Q 2441 4250 2034 4250 
Q 1625 4250 1398 4047 
Q 1172 3844 1172 3481 
z
" transform="scale(0.015625)"/>
       </defs>
       <use xlink:href="#DejaVuSans-2212"/>
       <use xlink:href="#DejaVuSans-38" transform="translate(83.789062 0)"/>
       <use xlink:href="#DejaVuSans-30" transform="translate(147.412109 0)"/>
      </g>
     </g>
    </g>
    <g id="ytick_3">
     <g id="line2d_7">
      <g>
       <use xlink:href="#mc582242ff0" x="41.667188" y="109.419971" style="stroke: #000000; stroke-width: 0.8"/>
      </g>
     </g>
     <g id="text_7">
      <!-- −60 -->
      <g transform="translate(13.5625 113.219189) scale(0.1 -0.1)">
       <defs>
        <path id="DejaVuSans-36" d="M 2113 2584 
Q 1688 2584 1439 2293 
Q 1191 2003 1191 1497 
Q 1191 994 1439 701 
Q 1688 409 2113 409 
Q 2538 409 2786 701 
Q 3034 994 3034 1497 
Q 3034 2003 2786 2293 
Q 2538 2584 2113 2584 
z
M 3366 4563 
L 3366 3988 
Q 3128 4100 2886 4159 
Q 2644 4219 2406 4219 
Q 1781 4219 1451 3797 
Q 1122 3375 1075 2522 
Q 1259 2794 1537 2939 
Q 1816 3084 2150 3084 
Q 2853 3084 3261 2657 
Q 3669 2231 3669 1497 
Q 3669 778 3244 343 
Q 2819 -91 2113 -91 
Q 1303 -91 875 529 
Q 447 1150 447 2328 
Q 447 3434 972 4092 
Q 1497 4750 2381 4750 
Q 2619 4750 2861 4703 
Q 3103 4656 3366 4563 
z
" transform="scale(0.015625)"/>
       </defs>
       <use xlink:href="#DejaVuSans-2212"/>
       <use xlink:href="#DejaVuSans-36" transform="translate(83.789062 0)"/>
       <use xlink:href="#DejaVuSans-30" transform="translate(147.412109 0)"/>
      </g>
     </g>
    </g>
    <g id="ytick_4">
     <g id="line2d_8">
      <g>
       <use xlink:href="#mc582242ff0" x="41.667188" y="87.137436" style="stroke: #000000; stroke-width: 0.8"/>
      </g>
     </g>
     <g id="text_8">
      <!-- −40 -->
      <g transform="translate(13.5625 90.936655) scale(0.1 -0.1)">
       <use xlink:href="#DejaVuSans-2212"/>
       <use xlink:href="#DejaVuSans-34" transform="translate(83.789062 0)"/>
       <use xlink:href="#DejaVuSans-30" transform="translate(147.412109 0)"/>
      </g>
     </g>
    </g>
    <g id="ytick_5">
     <g id="line2d_9">
      <g>
       <use xlink:href="#mc582242ff0" x="41.667188" y="64.854902" style="stroke: #000000; stroke-width: 0.8"/>
      </g>
     </g>
     <g id="text_9">
      <!-- −20 -->
      <g transform="translate(13.5625 68.654121) scale(0.1 -0.1)">
       <use xlink:href="#DejaVuSans-2212"/>
       <use xlink:href="#DejaVuSans-32" transform="translate(83.789062 0)"/>
       <use xlink:href="#DejaVuSans-30" transform="translate(147.412109 0)"/>
      </g>
     </g>
    </g>
    <g id="ytick_6">
     <g id="line2d_10">
      <g>
       <use xlink:href="#mc582242ff0" x="41.667188" y="42.572368" style="stroke: #000000; stroke-width: 0.8"/>
      </g>
     </g>
     <g id="text_10">
      <!-- 0 -->
      <g transform="translate(28.304688 46.371587) scale(0.1 -0.1)">
       <use xlink:href="#DejaVuSans-30"/>
      </g>
     </g>
    </g>
    <g id="ytick_7">
     <g id="line2d_11">
      <g>
       <use xlink:href="#mc582242ff0" x="41.667188" y="20.289834" style="stroke: #000000; stroke-width: 0.8"/>
      </g>
     </g>
     <g id="text_11">
      <!-- 20 -->
      <g transform="translate(21.942188 24.089052) scale(0.1 -0.1)">
       <use xlink:href="#DejaVuSans-32"/>
       <use xlink:href="#DejaVuSans-30" transform="translate(63.623047 0)"/>
      </g>
     </g>
    </g>
   </g>
   <g id="line2d_12">
    <path d="M 51.812642 115.605334 
L 51.833242 115.673335 
L 51.861567 115.537333 
L 51.918218 115.571333 
L 51.946543 115.503333 
L 51.949118 115.639334 
L 52.028944 115.571333 
L 52.088169 115.707335 
L 52.14482 115.639334 
L 52.258121 115.435332 
L 52.363697 115.469332 
L 52.296746 115.367331 
L 52.366272 115.401331 
L 52.577423 115.33333 
L 52.652099 115.231329 
L 52.605749 115.367331 
L 52.688149 115.33333 
L 52.783425 115.401331 
L 52.786 115.469332 
L 52.876126 115.265329 
L 52.891576 115.33333 
L 52.937926 115.435332 
L 52.971402 115.29933 
L 53.004877 115.367331 
L 53.071827 115.29933 
L 53.010027 115.401331 
L 53.115603 115.367331 
L 53.198003 115.265329 
L 53.259804 115.163328 
L 53.210879 115.29933 
L 53.311304 115.231329 
L 53.42203 115.163328 
L 53.424605 115.095327 
L 53.44778 115.231329 
L 53.530181 115.197329 
L 54.155911 115.129328 
L 54.264062 114.993326 
L 54.173936 115.163328 
L 54.266637 115.061327 
L 54.284662 115.095327 
L 54.318138 114.959325 
L 54.372213 114.993326 
L 54.472639 114.891324 
L 54.508689 114.823324 
L 54.524139 114.959325 
L 54.578215 114.925325 
L 54.63744 114.993326 
L 54.583365 114.891324 
L 54.686366 114.925325 
L 54.797092 114.789323 
L 54.699241 114.959325 
L 54.804817 114.823324 
L 54.889792 114.857324 
L 54.864042 114.755323 
L 54.912967 114.789323 
L 55.144719 114.721322 
L 55.203945 114.653321 
L 55.162745 114.789323 
L 55.255445 114.687322 
L 55.270895 114.755323 
L 55.309521 114.823324 
L 55.368746 114.687322 
L 55.381621 114.789323 
L 55.461447 114.687322 
L 55.564448 114.619321 
L 55.474322 114.755323 
L 55.572173 114.653321 
L 55.651999 114.721322 
L 55.610798 114.619321 
L 55.680324 114.653321 
L 55.716374 114.55132 
L 55.77045 114.721322 
L 55.7962 114.58532 
L 56.118077 114.687322 
L 56.125802 114.653321 
L 56.233953 114.789323 
L 56.270004 114.653321 
L 56.326654 114.857324 
L 56.342104 114.823324 
L 56.40133 114.755323 
L 56.460555 114.687322 
L 56.499181 114.857324 
L 56.512056 114.721322 
L 56.563556 114.823324 
L 56.597031 114.687322 
L 56.627932 114.789323 
L 56.707757 114.687322 
L 56.736082 114.857324 
L 56.738657 114.789323 
L 56.962684 114.823324 
L 57.106886 122.88143 
L 57.428763 134.033578 
L 58.000418 146.205739 
L 58.536022 151.883814 
L 58.538597 151.849813 
L 58.551472 151.951815 
L 58.736874 152.937828 
L 58.739449 152.903827 
L 58.81155 153.243832 
L 58.824425 153.209831 
L 58.963476 153.583836 
L 59.056177 153.685838 
L 59.151452 153.787839 
L 59.069052 153.651837 
L 59.169477 153.753839 
L 59.257028 153.685838 
L 59.220978 153.821839 
L 59.275053 153.821839 
L 59.560881 153.787839 
L 59.643281 153.549836 
L 59.674182 153.651837 
L 59.813233 153.549836 
L 59.941984 153.243832 
L 59.818383 153.583836 
L 59.944559 153.277832 
L 59.960009 153.175831 
L 60.08361 152.937828 
L 60.086185 152.971828 
L 60.147985 152.869827 
L 60.253561 152.733825 
L 60.155711 152.903827 
L 60.263861 152.767826 
L 60.269011 152.835826 
L 60.351412 152.597823 
L 60.359137 152.665824 
L 60.392612 152.699825 
L 60.475013 152.461821 
L 60.541964 152.597823 
L 60.588314 152.563823 
L 60.621789 152.461821 
L 60.706765 152.32582 
L 60.637239 152.529822 
L 60.737665 152.35982 
L 60.784016 152.427821 
L 60.832941 152.257819 
L 60.840666 152.291819 
L 60.941092 152.223818 
L 60.879291 152.32582 
L 60.951392 152.291819 
L 61.023493 152.189818 
L 61.144519 151.951815 
L 61.028643 152.223818 
L 61.149669 151.985815 
L 61.214044 152.053816 
L 61.25267 151.917814 
L 61.255245 151.951815 
L 61.36597 151.815813 
L 61.260395 151.985815 
L 61.368546 151.849813 
L 61.373696 151.951815 
L 61.425196 151.747812 
L 61.476696 151.815813 
L 61.530772 151.781812 
L 61.638923 151.543809 
L 61.646648 151.57781 
L 61.690423 151.61181 
L 61.736774 151.475808 
L 61.749649 151.509809 
L 61.870675 151.339807 
L 61.9196 151.441808 
L 61.9299 151.305806 
L 61.981401 151.339807 
L 61.991701 151.407808 
L 62.035476 151.203805 
L 62.079251 151.203805 
L 62.200277 150.931801 
L 62.099852 151.237805 
L 62.202852 150.999802 
L 62.303278 151.033803 
L 62.228603 150.931801 
L 62.311003 150.965802 
L 62.377954 151.033803 
L 62.380529 151.101803 
L 62.475805 150.795799 
L 62.47838 150.795799 
L 62.596831 150.625797 
L 62.48353 150.8298 
L 62.599406 150.659798 
L 62.663781 150.727799 
L 62.702406 150.591797 
L 62.707556 150.625797 
L 62.818282 150.489795 
L 62.717857 150.659798 
L 62.823432 150.557796 
L 62.965059 150.489795 
L 63.037159 150.319793 
L 63.080935 150.353794 
L 63.08866 150.421794 
L 63.137585 150.251792 
L 63.18651 150.353794 
L 63.217411 150.251792 
L 63.248311 150.387794 
L 63.294661 150.353794 
L 63.297236 150.387794 
L 63.353887 150.251792 
L 63.402812 150.319793 
L 63.516113 150.285793 
L 63.601089 150.08179 
L 63.629414 150.183791 
L 63.639714 150.251792 
L 63.72469 149.979789 
L 63.987342 150.04779 
L 64.100643 150.217792 
L 64.103218 150.183791 
L 64.175319 150.353794 
L 64.219094 150.251792 
L 64.404495 150.149791 
L 64.517796 149.945788 
L 64.525521 150.013789 
L 64.528096 150.04779 
L 64.577022 149.877787 
L 64.633672 149.979789 
L 64.726373 149.945788 
L 64.837099 149.809786 
L 64.839674 149.843787 
L 64.9195 149.741785 
L 64.9916 149.707785 
L 64.932375 149.843787 
L 65.025076 149.741785 
L 65.117776 149.809786 
L 65.081726 149.707785 
L 65.135801 149.775786 
L 65.197602 149.639784 
L 65.164127 149.809786 
L 65.246527 149.741785 
L 65.344378 149.809786 
L 65.256827 149.707785 
L 65.357253 149.775786 
L 65.462829 149.707785 
L 65.390729 149.843787 
L 65.470554 149.741785 
L 65.635356 149.673785 
L 65.704881 149.503782 
L 65.748656 149.537783 
L 65.782132 149.639784 
L 65.764107 149.469782 
L 65.859382 149.605784 
L 65.959808 149.435781 
L 65.975258 149.469782 
L 66.302286 149.367781 
L 66.410437 149.129777 
L 66.425887 149.197778 
L 66.742615 149.129777 
L 66.850766 149.061776 
L 66.752915 149.163778 
L 66.853341 149.129777 
L 66.976942 149.095777 
L 67.090242 148.959775 
L 67.208693 148.857774 
L 67.226719 148.891774 
L 67.40697 140.697666 
L 67.829274 128.355503 
L 68.091926 123.425437 
L 68.318528 120.297396 
L 68.321103 120.365397 
L 68.395778 119.481385 
L 68.398353 119.481385 
L 68.57603 117.645361 
L 68.578605 117.679361 
L 68.635255 117.067353 
L 68.640405 117.101354 
L 68.820657 115.265329 
L 68.823232 115.29933 
L 68.892757 114.755323 
L 68.905632 114.653321 
L 69.114209 113.293303 
L 69.116784 113.327304 
L 69.139959 113.225302 
L 69.294461 112.647295 
L 69.317636 112.579294 
L 69.425787 112.137288 
L 69.438662 112.171289 
L 69.448962 112.205289 
L 69.585438 111.661282 
L 69.600888 111.729283 
L 69.652389 111.389278 
L 69.678139 111.423279 
L 69.685864 111.457279 
L 69.819765 111.015273 
L 69.82234 111.083274 
L 69.88414 110.879271 
L 69.922766 110.879271 
L 70.054092 110.607268 
L 70.185418 110.539267 
L 70.290994 110.301264 
L 70.216318 110.573267 
L 70.301294 110.335264 
L 70.303869 110.369265 
L 70.355369 110.199262 
L 70.40687 110.267263 
L 70.533046 110.199262 
L 70.648922 109.961259 
L 70.651497 109.99526 
L 70.700422 109.893258 
L 70.769948 109.723256 
L 70.816298 109.825257 
L 70.921874 109.791257 
L 71.012 109.553254 
L 71.03775 109.587254 
L 71.117576 109.757257 
L 71.156201 109.689256 
L 71.315852 109.587254 
L 71.426578 109.451253 
L 71.336452 109.655255 
L 71.431728 109.519253 
L 71.478079 109.621255 
L 71.519279 109.451253 
L 71.542454 109.553254 
L 71.593954 109.383252 
L 71.655755 109.451253 
L 71.828281 109.349251 
L 71.869482 109.315251 
L 71.905532 109.451253 
L 71.933857 109.417252 
L 71.941582 109.383252 
L 72.060033 109.621255 
L 72.168184 109.655255 
L 72.286635 109.961259 
L 72.33041 109.859258 
L 72.376761 110.02926 
L 72.392211 110.02926 
L 72.520962 110.301264 
L 72.536412 110.267263 
L 72.611088 110.505266 
L 72.616238 110.471266 
L 72.734689 110.675269 
L 72.86859 111.015273 
L 72.88919 110.947272 
L 72.948416 111.185275 
L 72.969016 111.117275 
L 73.102917 111.49128 
L 73.105492 111.423279 
L 73.200768 111.729283 
L 73.205918 111.695282 
L 73.267718 111.729283 
L 73.383594 111.967286 
L 73.44797 112.035287 
L 73.568996 112.30729 
L 73.571571 112.205289 
L 73.661696 112.443292 
L 73.674572 112.443292 
L 73.872848 112.477293 
L 73.875423 112.579294 
L 73.973274 112.27329 
L 73.978424 112.27329 
L 73.988724 112.205289 
L 74.091725 112.341291 
L 74.096875 112.239289 
L 74.127775 112.409292 
L 74.202451 112.30729 
L 74.230776 112.409292 
L 74.310602 112.30729 
L 74.421328 112.205289 
L 74.315752 112.341291 
L 74.423903 112.239289 
L 74.480553 112.103288 
L 74.539779 112.171289 
L 74.627329 112.069287 
L 74.75093 111.899285 
L 74.807581 112.001286 
L 74.835906 111.831284 
L 74.859081 111.933285 
L 74.956932 111.763283 
L 74.972382 111.831284 
L 75.180959 111.729283 
L 75.27881 111.55928 
L 75.186109 111.763283 
L 75.29941 111.593281 
L 75.412711 111.763283 
L 75.428161 111.695282 
L 75.515712 111.967286 
L 75.518287 111.899285 
L 75.641888 112.069287 
L 75.744889 111.967286 
L 75.752614 112.035287 
L 75.835014 112.239289 
L 75.87364 112.171289 
L 75.992091 112.27329 
L 76.020416 112.205289 
L 76.107967 112.341291 
L 76.125992 112.239289 
L 76.172342 112.409292 
L 76.216117 112.341291 
L 76.247018 112.409292 
L 76.277918 112.27329 
L 76.324268 112.30729 
L 76.427269 112.239289 
L 76.334568 112.341291 
L 76.434994 112.27329 
L 76.543145 112.375291 
L 76.447869 112.239289 
L 76.548295 112.30729 
L 76.602371 112.205289 
L 76.568895 112.341291 
L 76.653871 112.30729 
L 76.754297 112.443292 
L 76.767172 112.375291 
L 76.865023 112.579294 
L 76.885623 112.511293 
L 76.986049 112.443292 
L 76.942273 112.579294 
L 76.996349 112.477293 
L 77.08905 112.579294 
L 77.019524 112.409292 
L 77.10965 112.545293 
L 77.210076 112.443292 
L 77.1148 112.579294 
L 77.225526 112.477293 
L 77.307926 112.375291 
L 77.374877 112.171289 
L 77.421227 112.30729 
L 77.465003 112.239289 
L 77.552553 112.137288 
L 77.475303 112.27329 
L 77.575729 112.205289 
L 77.71478 112.30729 
L 77.804905 112.409292 
L 77.72508 112.239289 
L 77.830656 112.375291 
L 77.856406 112.27329 
L 77.897606 112.443292 
L 77.938807 112.443292 
L 77.969707 112.409292 
L 78.064983 112.647295 
L 78.147383 112.545293 
L 78.175708 112.613294 
L 78.229784 112.681295 
L 78.258109 112.511293 
L 78.289009 112.647295 
L 78.35596 112.579294 
L 78.39201 112.715296 
L 78.39716 112.681295 
L 78.502736 112.613294 
L 78.515611 112.477293 
L 78.605737 112.715296 
L 78.610887 112.681295 
L 78.677838 112.817297 
L 78.616037 112.647295 
L 78.726763 112.749296 
L 78.804014 112.851298 
L 78.845214 112.919298 
L 78.865814 112.783297 
L 78.90959 112.817297 
L 79.010015 112.749296 
L 78.932765 112.885298 
L 79.020315 112.817297 
L 79.151642 112.715296 
L 79.246917 112.647295 
L 79.177392 112.749296 
L 79.262367 112.681295 
L 79.288118 112.749296 
L 79.313868 112.579294 
L 79.367943 112.613294 
L 79.401419 112.715296 
L 79.501844 112.783297 
L 79.411719 112.647295 
L 79.509569 112.681295 
L 79.599695 112.715296 
L 79.669221 112.851298 
L 79.702696 112.681295 
L 79.710421 112.749296 
L 79.834022 112.817297 
L 79.903548 112.953299 
L 79.947323 112.885298 
L 80.081224 112.545293 
L 80.168775 112.647295 
L 80.112124 112.511293 
L 80.1971 112.613294 
L 80.209975 112.545293 
L 80.287226 112.783297 
L 80.297526 112.749296 
L 80.395377 112.851298 
L 80.315551 112.681295 
L 80.410827 112.817297 
L 80.521553 112.579294 
L 80.436577 112.851298 
L 80.526703 112.613294 
L 80.621979 112.511293 
L 80.719829 112.477293 
L 80.709529 112.613294 
L 80.730129 112.545293 
L 80.82283 112.749296 
L 80.846005 112.681295 
L 80.990207 112.749296 
L 81.033982 112.715296 
L 81.103508 112.817297 
L 81.221958 112.681295 
L 81.337834 112.851298 
L 81.340409 112.817297 
L 81.42796 112.749296 
L 81.353285 112.851298 
L 81.451135 112.817297 
L 81.590187 112.851298 
L 81.706062 113.0553 
L 81.757563 112.885298 
L 81.819363 113.0213 
L 81.937814 112.953299 
L 82.035665 112.749296 
L 82.05369 112.817297 
L 82.172141 112.647295 
L 82.097466 112.885298 
L 82.174716 112.681295 
L 82.285442 112.817297 
L 82.203042 112.579294 
L 82.293167 112.783297 
L 82.318918 112.715296 
L 82.450244 111.899285 
L 82.555819 111.831284 
L 82.563545 111.967286 
L 82.666545 111.797284 
L 82.67942 111.865284 
L 82.702596 111.831284 
L 82.723196 113.905311 
L 83.029623 134.543584 
L 83.379826 150.489795 
L 83.382401 150.489795 
L 83.639903 158.241898 
L 83.966931 163.953973 
L 84.188383 165.415993 
L 84.201258 165.381992 
L 84.263058 165.687996 
L 84.278509 165.653996 
L 84.389235 165.926 
L 84.39696 165.857999 
L 84.44846 165.823998 
L 84.515411 165.96 
L 84.631286 165.755997 
L 84.651887 165.823998 
L 84.726562 165.585995 
L 84.731712 165.619996 
L 84.783213 165.551995 
L 84.901664 165.279991 
L 84.906814 165.313991 
L 84.986639 165.041988 
L 84.996939 165.109989 
L 85.138566 164.701983 
L 85.184916 164.599982 
L 85.197791 164.633982 
L 85.311092 164.395979 
L 85.313667 164.42998 
L 85.380618 164.021974 
L 85.393493 164.055975 
L 85.426968 164.123976 
L 85.517094 163.885973 
L 85.540269 163.919973 
L 85.589194 163.71597 
L 85.62267 163.817972 
L 85.756571 163.375966 
L 85.761721 163.409966 
L 85.766871 163.443967 
L 85.841546 163.137963 
L 85.849271 163.137963 
L 85.985748 162.695957 
L 85.990898 162.729957 
L 86.060423 162.661956 
L 86.176299 162.389953 
L 86.178874 162.423953 
L 86.250975 162.321952 
L 86.2793 162.389953 
L 86.372001 162.15195 
L 86.374576 162.253951 
L 86.464702 162.049948 
L 86.480152 162.117949 
L 86.606328 162.015948 
L 86.729929 161.573942 
L 86.747954 161.607942 
L 86.755679 161.641943 
L 86.786579 161.505941 
L 86.856105 161.573942 
L 86.871555 161.539942 
L 86.987431 161.335939 
L 87.005456 161.40394 
L 87.054381 161.233937 
L 87.090432 161.267938 
L 87.157382 161.369939 
L 87.203733 161.199937 
L 87.250083 161.301938 
L 87.280983 161.165937 
L 87.311883 161.199937 
L 87.430334 160.995934 
L 87.432909 161.029935 
L 87.47926 161.097936 
L 87.52561 160.961934 
L 87.538485 160.961934 
L 87.646636 160.825932 
L 87.543635 160.995934 
L 87.654361 160.859933 
L 87.656936 160.893933 
L 87.685262 160.723931 
L 87.757362 160.757931 
L 87.759937 160.68993 
L 87.814013 160.859933 
L 87.865513 160.791932 
L 87.896413 160.859933 
L 87.940189 160.723931 
L 87.973664 160.723931 
L 88.071515 160.65593 
L 88.16164 160.485928 
L 88.102415 160.68993 
L 88.182241 160.587929 
L 88.226016 160.621929 
L 88.274941 160.417927 
L 88.282666 160.485928 
L 88.424293 160.043922 
L 88.442318 160.077922 
L 88.516993 159.873919 
L 88.519568 159.90792 
L 88.648319 159.431914 
L 88.65347 159.499915 
L 88.738445 159.15991 
L 88.74102 159.193911 
L 88.810546 159.091909 
L 88.934147 158.853906 
L 88.936722 158.887906 
L 89.008822 158.785905 
L 89.106673 158.615903 
L 89.127273 158.649903 
L 89.129848 158.683904 
L 89.212249 158.4119 
L 89.222549 158.479901 
L 89.35645 158.173897 
L 89.425976 158.071896 
L 89.552152 157.867893 
L 89.675753 157.765892 
L 89.765879 157.66389 
L 89.683478 157.799892 
L 89.789054 157.731891 
L 89.796779 157.765892 
L 89.819954 157.595889 
L 89.88948 157.595889 
L 89.974455 157.493888 
L 90.092906 157.289885 
L 89.989905 157.561889 
L 90.095481 157.323886 
L 90.103206 157.391887 
L 90.195907 157.187884 
L 90.198482 157.221884 
L 90.255133 157.119883 
L 90.376159 156.847879 
L 90.381309 156.949881 
L 90.458559 156.677877 
L 90.47916 156.813879 
L 90.595035 156.575876 
L 90.618211 156.609876 
L 90.690311 156.439874 
L 90.698036 156.473875 
L 90.723787 156.405874 
L 90.834512 156.16787 
L 90.842237 156.201871 
L 90.994164 155.657864 
L 91.007039 155.691864 
L 91.08944 155.487861 
L 91.102315 155.521862 
L 91.215616 155.283859 
L 91.231066 155.317859 
L 91.313466 155.113857 
L 91.318616 155.181857 
L 91.367542 155.113857 
L 91.478268 154.909854 
L 91.480843 154.943854 
L 91.527193 154.909854 
L 91.591569 154.739852 
L 91.532343 154.943854 
L 91.640494 154.807852 
L 91.71002 154.705851 
L 91.81302 154.501848 
L 91.717745 154.739852 
L 91.831046 154.569849 
L 91.861946 154.535849 
L 91.977822 154.297846 
L 91.995847 154.365847 
L 92.073098 154.127843 
L 92.078248 154.195844 
L 92.204424 153.923841 
L 92.206999 153.957841 
L 92.263649 153.85584 
L 92.3821 153.617837 
L 92.268799 153.88984 
L 92.389825 153.651837 
L 92.454201 153.549836 
L 92.459351 153.583836 
L 92.582952 153.243832 
L 92.593252 153.311833 
L 92.688528 153.10783 
L 92.714278 153.14183 
L 92.770928 152.869827 
L 92.781228 152.869827 
L 92.809554 152.767826 
L 92.933155 152.563823 
L 92.943455 152.665824 
L 92.98723 152.461821 
L 93.041306 152.495822 
L 93.092806 152.393821 
L 93.103106 152.461821 
L 93.213832 152.223818 
L 93.255032 152.291819 
L 93.285933 152.087817 
L 93.316833 152.155817 
L 93.437859 151.917814 
L 93.334858 152.189818 
L 93.443009 151.951815 
L 93.494509 151.849813 
L 93.509959 151.883814 
L 93.62326 151.61181 
L 93.677336 151.543809 
L 93.780337 151.305806 
L 93.795787 151.339807 
L 93.927113 151.067803 
L 93.986338 150.999802 
L 94.004363 151.033803 
L 94.104789 150.761799 
L 94.148565 150.727799 
L 94.256716 150.319793 
L 94.267016 150.387794 
L 94.382892 150.217792 
L 94.388042 150.251792 
L 94.424092 150.149791 
L 94.545118 149.979789 
L 94.547693 150.013789 
L 94.635244 149.775786 
L 94.640394 149.809786 
L 94.75627 149.673785 
L 94.648119 149.877787 
L 94.758845 149.707785 
L 94.76142 149.741785 
L 94.846395 149.503782 
L 94.85412 149.503782 
L 94.915921 149.401781 
L 94.921071 149.435781 
L 95.039522 149.197778 
L 95.054972 149.265779 
L 95.139948 149.061776 
L 95.201748 148.959775 
L 95.217198 148.993776 
L 95.330499 148.721772 
L 95.363975 148.619771 
L 95.495301 148.347767 
L 95.510751 148.483769 
L 95.580276 148.211765 
L 95.600877 148.211765 
L 95.624052 148.245766 
L 95.688427 148.075763 
L 95.703877 148.109764 
L 95.819753 147.871761 
L 95.822328 147.905761 
L 95.848079 147.939762 
L 95.899579 147.735759 
L 95.922754 147.769759 
L 96.03863 147.531756 
L 96.041205 147.565757 
L 96.172531 147.225752 
L 96.175106 147.259753 
L 96.206007 147.191752 
L 96.216307 147.225752 
L 96.327033 146.885748 
L 96.334758 146.919748 
L 96.419733 146.681745 
L 96.548484 146.443742 
L 96.584535 146.34174 
L 96.59741 146.375741 
L 96.718436 146.035736 
L 96.762211 145.967736 
L 96.865212 145.695732 
L 96.880662 145.729732 
L 96.924437 145.661732 
L 97.048038 145.321727 
L 97.166489 145.117724 
L 97.055763 145.355727 
L 97.169064 145.151725 
L 97.171639 145.185725 
L 97.236015 144.913722 
L 97.261765 144.947722 
L 97.380216 144.641718 
L 97.390516 144.675718 
L 97.393091 144.709719 
L 97.478067 144.437715 
L 97.488367 144.539717 
L 97.601668 144.301714 
L 97.614543 144.335714 
L 97.617118 144.369714 
L 97.702094 144.131711 
L 97.714969 144.233713 
L 97.82312 143.995709 
L 97.83857 144.06371 
L 97.87977 143.995709 
L 98.000796 143.723706 
L 98.039422 143.689705 
L 98.155298 143.349701 
L 98.209373 143.2477 
L 98.330399 143.043697 
L 98.219673 143.2817 
L 98.332974 143.077697 
L 98.353574 143.009696 
L 98.461725 142.737693 
L 98.472025 142.771693 
L 98.526101 142.703692 
L 98.647127 142.431689 
L 98.698627 142.329687 
L 98.824803 141.955682 
L 98.703777 142.363688 
L 98.835103 141.989683 
L 98.896904 141.887682 
L 99.035955 141.411675 
L 99.03853 141.445676 
L 99.041105 141.513677 
L 99.123505 141.309674 
L 99.144106 141.309674 
L 99.149256 141.343674 
L 99.283157 140.935669 
L 99.285732 140.969669 
L 99.370708 140.663665 
L 99.375858 140.697666 
L 99.435083 140.595664 
L 99.476283 140.663665 
L 99.556109 140.425662 
L 99.568984 140.459663 
L 99.64366 140.119658 
L 99.646235 140.153659 
L 99.811036 139.439649 
L 99.813611 139.47365 
L 99.898587 139.167646 
L 99.901162 139.201646 
L 100.019613 138.895642 
L 100.022188 138.929642 
L 100.148364 138.72564 
L 100.230765 138.657639 
L 100.344065 138.385635 
L 100.349216 138.419636 
L 100.411016 138.317634 
L 100.547492 137.97763 
L 100.562942 138.01163 
L 100.635043 137.739627 
L 100.642768 137.807628 
L 100.758644 137.501624 
L 100.771519 137.535624 
L 100.84362 137.26362 
L 100.851345 137.331621 
L 100.967221 137.161619 
L 101.036746 137.093618 
L 101.157772 136.787614 
L 101.170647 136.855615 
L 101.250473 136.583611 
L 101.255623 136.651612 
L 101.392099 136.277607 
L 101.397249 136.379609 
L 101.48995 136.039604 
L 101.4951 136.073605 
L 101.50025 136.107605 
L 101.631576 135.7336 
L 101.634151 135.767601 
L 101.708827 135.563598 
L 101.732002 135.631599 
L 101.824703 135.257594 
L 101.850453 135.291594 
L 101.855603 135.325595 
L 101.919978 135.087592 
L 101.945729 135.087592 
L 102.077055 134.747587 
L 102.08478 134.849588 
L 102.180056 134.611585 
L 102.182631 134.645586 
L 102.254731 134.543584 
L 102.380907 134.20358 
L 102.386057 134.271581 
L 102.409232 134.20358 
L 102.522533 133.965577 
L 102.525108 133.999577 
L 102.540559 133.897576 
L 102.545709 133.931576 
L 102.66416 133.727574 
L 102.70536 133.625572 
L 102.71051 133.659573 
L 102.831536 133.353569 
L 102.834111 133.45557 
L 102.929387 133.115566 
L 102.934537 133.115566 
L 102.980887 133.013564 
L 103.096763 132.70756 
L 102.993762 133.047565 
L 103.101913 132.741561 
L 103.137963 132.639559 
L 103.150839 132.70756 
L 103.271865 132.333555 
L 103.307915 132.265554 
L 103.418641 131.95955 
L 103.32594 132.299555 
L 103.428941 131.993551 
L 103.477866 131.891549 
L 103.611767 131.517544 
L 103.622067 131.653546 
L 103.714768 131.279541 
L 103.755969 131.21154 
L 103.876995 130.939537 
L 103.938795 130.871536 
L 104.059821 130.497531 
L 104.062396 130.531531 
L 104.064971 130.565532 
L 104.155097 130.293528 
L 104.157672 130.327529 
L 104.191147 130.225527 
L 104.317323 129.953524 
L 104.319898 129.987524 
L 104.343073 129.885523 
L 104.466674 129.579519 
L 104.474399 129.613519 
L 104.5053 129.68152 
L 104.543925 129.511518 
L 104.5774 129.579519 
L 104.693276 129.409517 
L 104.775677 129.307515 
L 104.883828 129.001511 
L 104.785977 129.341516 
L 104.901853 129.069512 
L 104.904428 129.103512 
L 104.963653 128.831509 
L 104.991979 128.831509 
L 105.13103 128.457504 
L 105.164505 128.355503 
L 105.282956 128.049499 
L 105.174805 128.423503 
L 105.290681 128.1515 
L 105.324156 128.049499 
L 105.329306 128.083499 
L 105.460633 127.675494 
L 105.465783 127.743494 
L 105.553333 127.43749 
L 105.679509 127.131486 
L 105.684659 127.165487 
L 105.70526 127.063485 
L 105.81856 126.689481 
L 105.826286 126.723481 
L 105.828861 126.791482 
L 105.913836 126.519478 
L 105.931861 126.587479 
L 106.055462 126.247475 
L 106.094088 126.145473 
L 106.215114 125.839469 
L 106.225414 125.87347 
L 106.264039 125.771468 
L 106.276914 125.805469 
L 106.40309 125.397463 
L 106.415965 125.431464 
L 106.482916 125.193461 
L 106.495791 125.193461 
L 106.603942 124.989458 
L 106.508666 125.261462 
L 106.616817 125.057459 
L 106.637417 124.955458 
L 106.776468 124.513452 
L 106.779043 124.547452 
L 106.791918 124.581453 
L 106.861444 124.275449 
L 106.869169 124.309449 
L 106.98762 123.969445 
L 106.990195 124.003445 
L 107.03397 123.935444 
L 107.154996 123.663441 
L 107.157571 123.697441 
L 107.221947 123.391437 
L 107.245122 123.391437 
L 107.296623 123.289436 
L 107.448549 122.711428 
L 107.456274 122.813429 
L 107.538675 122.473425 
L 107.54125 122.507425 
L 107.554125 122.541426 
L 107.682876 122.09942 
L 107.688026 122.167421 
L 107.770426 121.861417 
L 107.783302 121.861417 
L 107.827077 121.793416 
L 107.948103 121.419411 
L 107.950678 121.487412 
L 108.030504 121.215408 
L 108.051104 121.215408 
L 108.18758 120.841403 
L 108.20303 120.909404 
L 108.277706 120.671401 
L 108.285431 120.671401 
L 108.321481 120.5694 
L 108.460532 120.195395 
L 108.463107 120.229395 
L 108.537783 119.991392 
L 108.558383 120.059393 
L 108.674259 119.719388 
L 108.718034 119.787389 
L 108.77726 119.549386 
L 108.779835 119.583387 
L 108.921461 119.175381 
L 108.988411 119.07338 
L 109.130038 118.665374 
L 109.181538 118.597374 
L 109.307714 118.189368 
L 109.315439 118.257369 
L 109.395265 117.951365 
L 109.40299 117.985365 
L 109.529166 117.679361 
L 109.534316 117.713362 
L 109.536891 117.747362 
L 109.593541 117.509359 
L 109.627017 117.509359 
L 109.760918 117.203355 
L 109.763493 117.237356 
L 109.827868 116.999352 
L 109.856194 116.999352 
L 109.887094 116.897351 
L 110.01842 116.625347 
L 110.03902 116.693348 
L 110.095671 116.455345 
L 110.118846 116.489346 
L 110.263047 116.04734 
L 110.311972 115.945338 
L 110.427848 115.571333 
L 110.319697 115.979339 
L 110.435573 115.605334 
L 110.458749 115.537333 
L 110.572049 115.197329 
L 110.579775 115.231329 
L 110.61325 115.163328 
L 110.736851 114.823324 
L 110.742001 114.857324 
L 110.808951 114.55132 
L 110.819251 114.55132 
L 110.932552 114.177315 
L 110.937702 114.211315 
L 110.940277 114.245316 
L 111.025253 113.939312 
L 111.027828 113.939312 
L 111.161729 113.633308 
L 111.205505 113.565307 
L 111.329106 113.191302 
L 111.370306 113.089301 
L 111.504207 112.783297 
L 111.553133 112.715296 
L 111.671583 112.375291 
L 111.707634 112.27329 
L 111.85956 111.729283 
L 111.867285 111.797284 
L 111.941961 111.49128 
L 111.954836 111.55928 
L 112.104187 111.049274 
L 112.117062 111.117275 
L 112.202038 110.77727 
L 112.207188 110.845271 
L 112.209763 110.879271 
L 112.271563 110.607268 
L 112.297314 110.641268 
L 112.41319 110.369265 
L 112.415765 110.403265 
L 112.47499 110.335264 
L 112.593441 109.791257 
L 112.596016 109.859258 
L 112.626916 109.791257 
L 112.753092 109.383252 
L 112.763392 109.417252 
L 112.843218 109.145248 
L 112.848368 109.179249 
L 112.987419 108.805244 
L 113.026045 108.737243 
L 113.152221 108.261237 
L 113.154796 108.363238 
L 113.247496 108.057234 
L 113.257797 108.091235 
L 113.383973 107.78523 
L 113.386548 107.853231 
L 113.407148 107.75123 
L 113.533324 107.207223 
L 113.535899 107.309224 
L 113.631175 106.901219 
L 113.636325 106.935219 
L 113.772801 106.561214 
L 113.777951 106.595215 
L 113.847476 106.289211 
L 113.865502 106.323211 
L 113.901552 106.22121 
L 114.043178 105.779204 
L 114.056053 105.847205 
L 114.125579 105.677203 
L 114.146179 105.677203 
L 114.292955 105.201196 
L 114.308405 105.235197 
L 114.370206 104.895192 
L 114.383081 104.929193 
L 114.429431 104.861192 
L 114.547882 104.385186 
L 114.555607 104.453186 
L 114.558182 104.487187 
L 114.622558 104.249184 
L 114.648308 104.249184 
L 114.764184 103.97718 
L 114.766759 104.011181 
L 114.769334 104.045181 
L 114.838859 103.705177 
L 114.84916 103.705177 
L 114.980486 103.161169 
L 115.042286 103.059168 
L 115.145287 102.583162 
L 115.047436 103.093168 
L 115.183912 102.651163 
L 115.263738 102.583162 
L 115.377039 102.48116 
L 115.415664 102.379159 
L 115.49549 102.141156 
L 115.539265 102.209157 
L 115.55729 102.141156 
L 115.675741 101.73315 
L 115.680891 101.801151 
L 115.714367 101.73315 
L 115.832818 101.393146 
L 115.835393 101.427146 
L 115.837968 101.461147 
L 115.925518 101.189143 
L 115.930668 101.257144 
L 116.051694 101.019141 
L 116.054269 101.053141 
L 116.061995 101.087142 
L 116.123795 100.679136 
L 116.13667 100.679136 
L 116.16242 100.577135 
L 116.175295 100.679136 
L 116.311772 100.033128 
L 116.322072 100.101129 
L 116.355547 99.727124 
L 116.399322 99.727124 
L 116.623349 98.129103 
L 116.625924 98.197104 
L 116.651674 98.095102 
L 116.788151 97.415093 
L 116.819051 97.313092 
L 116.873126 95.885073 
L 116.911752 14.76 
L 116.981277 96.293078 
L 117.117753 107.207223 
L 117.452506 110.369265 
L 117.465381 110.335264 
L 117.588982 110.267263 
L 117.712583 109.655255 
L 117.720308 109.689256 
L 117.730608 109.621255 
L 117.869659 108.873245 
L 117.874809 108.907245 
L 117.939185 108.465239 
L 117.949485 108.465239 
L 117.970085 108.363238 
L 118.122011 107.241223 
L 118.134887 107.173222 
L 118.294538 105.847205 
L 118.297113 105.881205 
L 118.358913 105.371199 
L 118.364063 105.371199 
L 118.53144 103.875179 
L 118.873918 100.747137 
L 118.876493 100.815138 
L 118.956318 100.101129 
L 118.958893 100.135129 
L 119.16747 96.803085 
L 119.206095 14.930002 
L 119.278196 96.599083 
L 119.417247 107.581228 
L 119.584623 109.825257 
L 119.587198 109.791257 
L 119.651574 110.131262 
L 119.672174 110.097261 
L 119.713375 110.233263 
L 119.697924 110.063261 
L 119.78805 110.199262 
L 119.7932 110.233263 
L 119.924526 109.859258 
L 119.927101 109.927259 
L 120.017227 109.451253 
L 120.019802 109.451253 
L 120.333955 106.765217 
L 120.34683 106.697216 
L 120.511631 105.269197 
L 120.514206 105.303198 
L 120.573432 104.72519 
L 120.578582 104.72519 
L 121.168261 96.42908 
L 121.206887 15.134005 
L 121.278987 95.205064 
L 121.418039 106.425213 
L 121.59829 108.431239 
L 121.60344 108.397239 
L 121.64979 108.49924 
L 121.683266 108.567241 
L 121.752791 108.397239 
L 121.755366 108.431239 
L 121.881542 108.023234 
L 121.896992 107.921232 
L 122.180245 105.575201 
L 122.18282 105.609202 
L 122.185395 105.643202 
L 122.24462 104.963193 
L 122.862625 95.919074 
L 122.901251 15.032004 
L 122.973351 93.913047 
L 123.109827 106.391212 
L 123.114977 106.459213 
L 123.266904 108.261237 
L 123.269479 108.227236 
L 123.284929 108.329238 
L 123.395655 108.805244 
L 123.411105 108.737243 
L 123.503806 108.669242 
L 123.642857 107.887232 
L 123.663457 107.78523 
L 124.08576 103.637176 
L 124.088335 103.671176 
L 124.139836 102.957167 
L 124.142411 102.991167 
L 124.389613 99.387119 
L 124.392188 99.42112 
L 124.441113 98.63911 
L 124.500339 96.973087 
L 124.541539 14.896002 
L 124.61364 94.423054 
L 124.750116 105.813204 
L 124.987018 107.513227 
L 125.020493 107.581228 
L 125.126069 107.105221 
L 125.128644 107.173222 
L 125.21362 106.663216 
L 125.21877 106.663216 
L 125.543222 103.773177 
L 125.545797 103.807178 
L 125.550947 103.705177 
L 125.769824 100.849139 
L 125.962951 96.871086 
L 126.004151 15.202006 
L 126.076252 93.777045 
L 126.210153 105.881205 
L 126.212728 105.847205 
L 126.362079 107.513227 
L 126.364654 107.479226 
L 126.47023 107.75123 
L 126.48053 107.683229 
L 126.606706 107.241223 
L 126.617006 107.275224 
L 126.673657 106.799217 
L 126.681382 106.799217 
L 126.838458 105.541201 
L 126.851333 105.439199 
L 127.433288 96.769085 
L 127.474488 14.896002 
L 127.546589 92.247025 
L 127.683065 105.609202 
L 127.840141 107.479226 
L 127.847866 107.411226 
L 127.891642 107.615228 
L 127.945717 107.513227 
L 127.953442 107.547227 
L 128.022968 107.139222 
L 128.028118 107.139222 
L 128.033268 107.105221 
L 128.169744 106.051208 
L 128.180044 105.983207 
L 128.360296 104.147182 
L 128.365446 104.079181 
L 128.517372 102.379159 
L 128.532822 102.277158 
L 128.715648 95.001061 
L 128.754274 14.964003 
L 128.828949 92.417027 
L 128.965425 105.235197 
L 129.217778 107.343225 
L 129.233228 107.309224 
L 129.400604 106.561214 
L 129.403179 106.595215 
L 129.462405 105.983207 
L 129.46498 106.017207 
L 129.647806 104.079181 
L 129.650381 104.113182 
L 129.704457 103.399172 
L 130.07011 97.313092 
L 130.088135 79.05485 
L 130.11646 15.474009 
L 130.191136 92.893034 
L 130.330187 104.895192 
L 130.559364 106.459213 
L 130.68039 106.153209 
L 130.69584 106.187209 
L 130.75249 105.677203 
L 130.755065 105.677203 
L 131.38852 95.919074 
L 131.429721 15.202006 
L 131.501821 90.649004 
L 131.638297 104.589188 
L 131.648598 104.69119 
L 131.792799 106.187209 
L 131.795374 106.153209 
L 131.8958 106.391212 
L 131.803099 106.119208 
L 131.9164 106.289211 
L 132.096651 105.337198 
L 132.099226 105.371199 
L 132.155877 104.793191 
L 132.163602 104.827191 
L 132.341278 103.025168 
L 132.354153 102.923166 
L 132.634831 97.8911 
L 132.650281 86.942955 
L 132.683756 15.202006 
L 132.755857 90.411001 
L 132.894908 104.249184 
L 133.031384 105.881205 
L 133.033959 105.847205 
L 133.046834 105.949206 
L 133.144685 106.187209 
L 133.051984 105.915206 
L 133.16786 106.119208 
L 133.345536 105.201196 
L 133.350686 105.235197 
L 133.415062 104.69119 
L 133.417637 104.69119 
L 133.860541 97.619096 
L 133.904316 15.406009 
L 133.978992 90.921007 
L 134.118043 104.215183 
L 134.295719 105.983207 
L 134.308594 106.051208 
L 134.41417 105.779204 
L 134.416745 105.813204 
L 134.486271 105.337198 
L 134.493996 105.371199 
L 134.501721 105.303198 
L 134.638197 104.113182 
L 134.640772 104.147182 
L 135.137751 96.42908 
L 135.181527 15.338008 
L 135.253627 89.866993 
L 135.390103 103.637176 
L 135.397828 103.739177 
L 135.534304 105.439199 
L 135.549755 105.405199 
L 135.554905 105.5072 
L 135.63988 105.745204 
L 135.673356 105.643202 
L 135.897382 104.147182 
L 135.910257 104.079181 
L 136.116259 101.563148 
L 136.118834 101.597149 
L 136.17291 100.883139 
L 136.175485 100.883139 
L 136.373761 90.853007 
L 136.412387 15.236006 
L 136.484487 89.322986 
L 136.620963 103.399172 
L 136.852715 105.167196 
L 136.968591 104.657189 
L 136.971166 104.69119 
L 137.045842 104.215183 
L 137.519646 96.701084 
L 137.563421 15.270007 
L 137.638097 89.152984 
L 137.777148 103.97718 
L 137.99345 105.541201 
L 138.001175 105.4732 
L 138.011475 105.541201 
L 138.155676 104.895192 
L 138.163401 104.861192 
L 138.317902 103.127169 
L 138.678405 97.279092 
L 138.724756 15.814014 
L 138.799431 89.900994 
L 138.938482 103.501174 
L 138.943632 103.603175 
L 139.098134 104.963193 
L 139.103284 104.929193 
L 139.268085 104.147182 
L 139.118734 104.963193 
L 139.27066 104.181183 
L 139.288685 104.079181 
L 139.798539 96.123076 
L 139.842315 15.950016 
L 139.91699 87.928968 
L 140.056042 103.059168 
L 140.236293 104.895192 
L 140.298094 104.827191 
L 140.49637 103.637176 
L 140.498945 103.671176 
L 140.560746 103.093168 
L 140.565896 103.093168 
L 140.576196 102.991167 
L 140.928974 97.279092 
L 140.962449 38.254311 
L 140.975324 15.678012 
L 141.057725 92.281025 
L 141.196776 103.365172 
L 141.420803 104.895192 
L 141.549554 104.249184 
L 141.554704 104.283184 
L 141.572729 104.181183 
L 141.71178 103.059168 
L 141.915207 100.611136 
L 141.925507 100.509134 
L 142.162409 96.42908 
L 142.198459 29.992201 
L 142.208759 15.882015 
L 142.28601 88.472975 
L 142.422486 102.923166 
L 142.592437 104.487187 
L 142.625913 104.69119 
L 142.698013 104.453186 
L 142.700588 104.453186 
L 142.844789 103.569175 
L 142.857665 103.467173 
L 143.238768 97.551095 
L 143.274818 33.154243 
L 143.287693 15.882015 
L 143.364944 89.798993 
L 143.503995 102.787164 
L 143.653346 103.94318 
L 143.655921 103.909179 
L 143.668796 104.011181 
L 143.684246 104.079181 
L 143.758922 103.841178 
L 143.766647 103.841178 
L 143.797547 103.739177 
L 143.970074 102.107155 
L 143.972649 102.141156 
L 144.029299 101.461147 
L 144.425852 94.967061 
L 144.469628 15.814014 
L 144.544303 86.56895 
L 144.683355 102.515161 
L 144.812106 103.773177 
L 144.814681 103.705177 
L 144.835281 103.773177 
L 144.858456 103.909179 
L 144.935707 103.569175 
L 144.938282 103.569175 
L 144.940857 103.603175 
L 145.010382 103.127169 
L 145.012957 103.19517 
L 145.154583 101.937153 
L 145.491911 96.803085 
L 145.525386 43.52438 
L 145.540837 16.324021 
L 145.620662 90.002995 
L 145.757138 102.277158 
L 145.759713 102.243157 
L 145.896189 103.297171 
L 145.90134 103.433173 
L 145.996615 103.19517 
L 146.163992 101.69915 
L 146.166567 101.73315 
L 146.220642 101.087142 
L 146.225792 101.121142 
L 146.380293 99.353119 
L 146.382868 99.42112 
L 146.444669 98.299105 
L 146.449819 98.333105 
L 146.59917 89.220985 
L 146.637796 15.848014 
L 146.712471 86.670951 
L 146.851522 101.835152 
L 146.990573 103.059168 
L 147.008599 103.127169 
L 147.11675 102.855165 
L 147.155375 102.753164 
L 147.415452 100.747137 
L 147.418027 100.781138 
L 147.469527 100.067128 
L 147.472102 100.067128 
L 147.662654 96.293078 
L 147.709004 16.222019 
L 147.786255 87.282959 
L 147.922731 101.835152 
L 147.927881 101.937153 
L 148.102983 103.161169 
L 148.121008 103.059168 
L 148.290959 102.277158 
L 148.316709 102.175156 
L 148.702963 95.851073 
L 148.749313 16.052017 
L 148.826564 86.058943 
L 148.96819 101.801151 
L 148.981065 101.903153 
L 149.112391 102.753164 
L 149.122691 102.719163 
L 149.153591 102.787164 
L 149.205092 102.617162 
L 149.220542 102.617162 
L 149.354443 101.767151 
L 149.359593 101.835152 
L 149.372468 101.73315 
L 149.555295 99.727124 
L 149.55787 99.761124 
L 149.565595 99.693123 
L 149.802497 91.771019 
L 149.843697 16.460022 
L 149.918373 84.188918 
L 150.054849 100.883139 
L 150.057424 100.849139 
L 150.21965 102.209157 
L 150.289176 102.141156 
L 150.435952 101.189143 
L 150.456552 101.087142 
L 150.907181 93.777045 
L 150.953531 16.29002 
L 151.025632 83.950915 
L 151.164683 101.053141 
L 151.350084 102.039154 
L 151.447935 101.937153 
L 151.453085 101.971154 
L 151.767238 99.115116 
L 151.769813 99.183117 
L 151.836763 98.231104 
L 151.844488 98.265105 
L 152.011865 94.661057 
L 152.058215 16.426022 
L 152.135466 85.684938 
L 152.274517 100.883139 
L 152.459918 101.937153 
L 152.562919 101.69915 
L 152.578369 101.73315 
L 152.918272 96.361079 
L 152.967198 17.072031 
L 153.044448 85.07293 
L 153.186074 101.257144 
L 153.368901 102.889166 
L 153.404951 102.685163 
L 153.711379 100.033128 
L 153.716529 100.101129 
L 153.788629 99.285118 
L 153.791204 99.319119 
L 154.035831 90.853007 
L 154.079607 16.698026 
L 154.154282 83.474909 
L 154.293333 100.237131 
L 154.44526 101.461147 
L 154.447835 101.427146 
L 154.478735 101.529148 
L 154.48646 101.597149 
L 154.563711 101.223144 
L 154.957689 95.205064 
L 155.006614 16.868028 
L 155.08129 84.256919 
L 155.222916 100.16913 
L 155.343942 101.223144 
L 155.367117 101.087142 
L 155.403168 100.985141 
L 155.408318 101.019141 
L 155.583419 100.067128 
L 155.609169 99.965127 
L 155.879546 95.579069 
L 155.928472 17.072031 
L 156.008298 84.902928 
L 156.147349 100.033128 
L 156.299275 101.529148 
L 156.31215 101.495147 
L 156.466651 100.883139 
L 156.469226 100.95114 
L 156.556777 100.373132 
L 156.569652 100.271131 
L 156.94303 94.457054 
L 156.976505 46.176416 
L 156.991956 16.868028 
L 157.074356 86.330947 
L 157.213407 99.489121 
L 157.215982 99.353119 
L 157.303533 100.509134 
L 157.311258 100.475134 
L 157.367909 100.747137 
L 157.396234 100.747137 
L 157.421984 100.645136 
L 157.566185 99.761124 
L 157.885488 95.035062 
L 157.934413 17.140031 
L 158.014239 84.29092 
L 158.15329 99.353119 
L 158.161015 99.387119 
L 158.289766 100.509134 
L 158.297491 100.475134 
L 158.408217 100.373132 
L 158.372167 100.543135 
L 158.410792 100.407133 
L 158.413367 100.441133 
L 158.482893 100.033128 
L 158.488043 100.033128 
L 158.513793 100.067128 
L 158.639969 98.911113 
L 158.642544 98.945114 
L 158.699195 98.231104 
L 158.879446 91.805019 
L 158.925796 17.616038 
L 159.000472 82.216892 
L 159.142098 99.285118 
L 159.319775 100.441133 
L 159.335225 100.407133 
L 159.512901 99.489121 
L 159.515476 99.523121 
L 159.574702 98.843112 
L 159.585002 98.775111 
L 159.798729 91.669017 
L 159.845079 17.616038 
L 159.919755 80.924875 
L 160.061381 98.775111 
L 160.069106 98.877113 
L 160.236482 100.441133 
L 160.249357 100.509134 
L 160.447634 99.115116 
L 160.457934 99.013114 
L 160.759212 94.661057 
L 160.800412 27.068163 
L 160.810712 17.922042 
L 160.882813 79.05485 
L 161.021864 98.775111 
L 161.024439 98.741111 
L 161.065639 99.591122 
L 161.068214 99.557122 
L 161.19954 100.577135 
L 161.212415 100.475134 
L 161.233015 100.509134 
L 161.384942 99.625123 
L 161.390092 99.659123 
L 161.449317 99.149116 
L 161.459617 99.149116 
L 161.632144 97.483094 
L 161.645019 97.381093 
L 161.714544 95.273065 
L 161.766045 17.242033 
L 161.843295 82.896901 
L 161.982347 98.843112 
L 162.082772 99.863126 
L 162.157448 99.693123 
L 162.314524 99.047115 
L 162.322249 99.081115 
L 162.38405 98.571109 
L 162.391775 98.605109 
L 162.790903 92.213025 
L 162.837254 17.684039 
L 162.914504 80.380868 
L 163.05613 98.333105 
L 163.058705 98.299105 
L 163.112781 99.047115 
L 163.210632 99.319119 
L 163.231232 99.285118 
L 163.401183 98.401106 
L 163.403758 98.435107 
L 163.406333 98.469107 
L 163.475859 97.959101 
L 163.753961 93.131037 
L 163.802886 17.82004 
L 163.880137 81.706886 
L 164.024338 98.367106 
L 164.153089 99.149116 
L 164.186565 99.081115 
L 164.341066 98.367106 
L 164.346216 98.401106 
L 164.348791 98.435107 
L 164.418317 97.9251 
L 164.729894 93.097036 
L 164.781395 18.364048 
L 164.858645 81.944889 
L 164.992546 97.823099 
L 164.997696 97.789098 
L 165.108422 98.843112 
L 165.144473 98.775111 
L 165.188248 98.67311 
L 165.376224 97.653096 
L 165.391675 97.551095 
L 165.595101 94.11705 
L 165.638877 25.300139 
L 165.646602 18.738053 
L 165.713552 73.070771 
L 165.857753 97.721097 
L 166.007105 98.979114 
L 166.05603 98.911113 
L 166.393358 95.919074 
L 166.406233 95.817072 
L 166.468033 91.975021 
L 166.516959 18.636051 
L 166.591634 78.850848 
L 166.733261 97.313092 
L 166.864587 98.67311 
L 166.928962 98.469107 
L 167.073163 97.585096 
L 167.335816 93.301039 
L 167.387316 18.602051 
L 167.467142 80.176865 
L 167.611343 97.449094 
L 167.616493 97.415093 
L 167.662843 98.095102 
L 167.667993 98.061102 
L 167.786444 98.911113 
L 167.796744 98.809112 
L 168.028496 97.17709 
L 168.031071 97.245091 
L 168.100597 96.361079 
L 168.108322 96.361079 
L 168.113472 96.327079 
L 168.221623 89.220985 
L 168.265398 18.500049 
L 168.342649 78.578844 
L 168.484275 97.109089 
L 168.641351 98.401106 
L 168.842203 97.211091 
L 168.857653 97.109089 
L 169.120305 93.165037 
L 169.174381 18.840054 
L 169.251631 80.040864 
L 169.393257 96.803085 
L 169.576084 98.163103 
L 169.599259 98.095102 
L 169.74861 97.007088 
L 169.751185 97.041088 
L 169.810411 96.361079 
L 169.831011 96.293078 
L 169.959762 91.703018 
L 170.011262 19.520063 
L 170.085938 77.52483 
L 170.227564 97.007088 
L 170.235289 97.075089 
L 170.35889 97.959101 
L 170.376915 97.9251 
L 170.389791 97.993101 
L 170.503092 97.517095 
L 170.809519 92.927034 
L 170.861019 19.180058 
L 170.93827 77.184826 
L 171.079896 96.973087 
L 171.218947 98.027101 
L 171.260148 97.9251 
L 171.273023 97.993101 
L 171.515075 96.021075 
L 171.525375 95.919074 
L 171.530525 95.953074 
L 171.661851 93.097036 
L 171.715926 19.350061 
L 171.795752 79.224853 
L 171.937378 96.191077 
L 172.104755 97.755098 
L 172.339082 96.055075 
L 172.341657 96.089076 
L 172.349382 96.021075 
L 172.524483 94.321052 
L 172.581134 92.65503 
L 172.632634 19.078057 
L 172.715035 79.564857 
L 172.859236 96.803085 
L 172.985412 97.483094 
L 173.018887 97.449094 
L 173.157938 96.463081 
L 173.165663 96.497081 
L 173.37424 92.927034 
L 173.428316 19.962069 
L 173.508141 78.000837 
L 173.649767 96.225078 
L 173.778518 97.551095 
L 173.806844 97.449094 
L 174.074646 92.791032 
L 174.128721 21.254086 
L 174.205972 76.844821 
L 174.350173 96.259078 
L 174.520124 97.075089 
L 174.720976 95.885073 
L 174.731276 95.817072 
L 174.888353 94.491055 
L 174.890928 94.525055 
L 174.916678 94.423054 
L 175.017104 90.513002 
L 175.068604 19.656065 
L 175.14328 76.096811 
L 175.284906 95.64707 
L 175.297781 95.749071 
L 175.429107 96.497081 
L 175.434257 96.463081 
L 175.490907 96.39508 
L 175.619659 95.64707 
L 175.622234 95.715071 
L 175.702059 94.967061 
L 175.85141 92.213025 
L 175.905486 20.06407 
L 175.985312 78.850848 
L 176.126938 95.64707 
L 176.258264 96.293078 
L 176.281439 96.225078 
L 176.325214 96.157077 
L 176.335514 96.191077 
L 176.471991 95.205064 
L 176.726918 91.567016 
L 176.780993 20.336074 
L 176.860819 77.830834 
L 177.00502 95.069062 
L 177.174971 96.089076 
L 177.187846 96.021075 
L 177.378398 94.967061 
L 177.391273 94.86506 
L 177.540624 93.335039 
L 177.545774 93.36904 
L 177.597275 92.65503 
L 177.623025 90.513002 
L 177.674525 20.132071 
L 177.754351 76.232813 
L 177.898552 94.831059 
L 177.906277 94.89906 
L 178.011853 95.851073 
L 178.035028 95.715071 
L 178.065929 95.749071 
L 178.153479 95.443067 
L 178.158629 95.511068 
L 178.22043 95.001061 
L 178.23073 95.035062 
L 178.421282 92.825033 
L 178.423857 92.859033 
L 178.436732 92.757032 
L 178.593808 87.248959 
L 178.640158 19.588064 
L 178.717409 75.99481 
L 178.859035 94.389053 
L 178.86161 94.355053 
L 178.998086 95.239065 
L 179.003236 95.171064 
L 179.049587 95.239065 
L 179.090787 95.001061 
L 179.101087 95.001061 
L 179.402365 92.451028 
L 179.40494 92.485028 
L 179.43584 91.601016 
L 179.464165 66.100679 
L 179.495065 20.234072 
L 179.567166 73.580778 
L 179.711367 94.389053 
L 179.878743 95.341066 
L 179.886469 95.273065 
L 179.899344 95.307065 
L 180.09247 93.981048 
L 180.105345 94.049049 
L 180.167146 93.539042 
L 180.293322 90.547002 
L 180.347397 20.438075 
L 180.429798 76.912822 
L 180.573999 94.525055 
L 180.7079 95.137063 
L 180.7182 95.035062 
L 180.72335 95.069062 
L 180.924202 93.743045 
L 180.952527 93.777045 
L 180.998878 93.301039 
L 181.001453 93.301039 
L 181.032353 90.751005 
L 181.089003 21.696092 
L 181.166254 74.634792 
L 181.31303 94.389053 
L 181.490707 95.613069 
L 181.503582 95.477068 
L 181.771384 91.09101 
L 181.828034 21.628091 
L 181.905285 74.226787 
L 182.052061 93.947047 
L 182.206563 95.103063 
L 182.234888 95.001061 
L 182.368789 94.321052 
L 182.373939 94.355053 
L 182.438314 93.845046 
L 182.564491 88.404974 
L 182.615991 21.492089 
L 182.695817 73.206773 
L 182.840018 93.233038 
L 183.025419 94.389053 
L 183.035719 94.355053 
L 183.084645 94.287052 
L 183.254596 92.689031 
L 183.280346 92.791032 
L 183.329272 92.179024 
L 183.347297 92.281025 
L 183.409097 88.370974 
L 183.463173 21.56009 
L 183.537849 72.696766 
L 183.68205 93.36904 
L 183.821101 94.287052 
L 183.826251 94.253051 
L 184.124953 89.730992 
L 184.184179 22.546103 
L 184.261429 73.410776 
L 184.405631 93.641043 
L 184.526657 94.389053 
L 184.539532 94.321052 
L 184.547257 94.389053 
L 184.768709 92.689031 
L 184.771284 92.757032 
L 184.848534 91.941021 
L 184.89746 89.866993 
L 184.956685 22.104097 
L 185.033936 73.988783 
L 185.180712 93.641043 
L 185.283713 94.15105 
L 185.317188 93.981048 
L 185.597865 91.669017 
L 185.610741 91.737018 
L 185.682841 91.09101 
L 185.687991 91.159011 
L 185.739492 88.268972 
L 185.793567 21.662091 
L 185.870818 72.662766 
L 186.015019 92.961034 
L 186.151495 93.777045 
L 186.15407 93.743045 
L 186.17467 93.777045 
L 186.339472 92.757032 
L 186.349772 92.689031 
L 186.488823 91.499015 
L 186.506848 91.397014 
L 186.545473 88.200971 
L 186.602124 22.784106 
L 186.676799 72.322761 
L 186.826151 93.199038 
L 186.926576 93.709044 
L 186.952327 93.641043 
L 187.057902 92.689031 
L 187.078503 92.723031 
L 187.101678 92.62103 
L 187.361755 88.370974 
L 187.418405 22.648104 
L 187.495656 72.084758 
L 187.642432 92.247025 
L 187.763458 93.437041 
L 187.791783 93.267038 
L 187.802084 93.301039 
L 187.858734 92.757032 
L 187.863884 92.757032 
L 188.069886 89.59499 
L 188.131686 23.600117 
L 188.211512 73.954783 
L 188.358288 92.553029 
L 188.435539 93.131037 
L 188.499914 92.995035 
L 188.515364 93.029035 
L 188.690466 91.941021 
L 188.693041 91.975021 
L 188.767716 91.601016 
L 188.772867 91.601016 
L 188.868142 89.662991 
L 188.914493 36.112282 
L 188.927368 22.886107 
L 189.004618 70.860742 
L 189.15397 91.975021 
L 189.269846 92.519029 
L 189.298171 92.451028 
L 189.305896 92.485028 
L 189.486147 91.363013 
L 189.491297 91.431014 
L 189.568548 90.785006 
L 189.661249 80.720872 
L 189.707599 23.396114 
L 189.78485 69.636726 
L 189.936776 91.703018 
L 190.042352 92.145024 
L 190.060377 92.043022 
L 190.073252 92.145024 
L 190.075827 92.179024 
L 190.132478 91.737018 
L 190.158228 91.805019 
L 190.294704 86.330947 
L 190.353929 25.232139 
L 190.43118 69.704727 
L 190.583106 91.635017 
L 190.585681 91.601016 
L 190.650057 92.213025 
L 190.652632 92.179024 
L 190.745333 92.247025 
L 190.786533 92.383027 
L 190.825158 91.975021 
L 190.843184 91.975021 
L 190.863784 91.805019 
L 190.992535 116.79535 
L 191.252612 126.723481 
L 191.456039 129.239514 
L 191.463764 129.205514 
L 191.525564 129.68152 
L 191.533289 129.68152 
L 191.695516 130.42953 
L 191.698091 130.39553 
L 191.700666 130.361529 
L 191.785641 130.667533 
L 191.788216 130.633533 
L 191.896367 131.007538 
L 191.911817 130.973537 
L 191.947868 130.905536 
L 191.983918 131.17754 
L 192.009668 131.109539 
L 192.135844 131.415543 
L 192.022543 131.075539 
L 192.140994 131.381543 
L 192.632823 131.483544 
L 192.735824 131.585545 
L 192.643123 131.449544 
L 192.746124 131.551545 
L 192.787324 131.449544 
L 192.849125 131.653546 
L 192.957276 131.585545 
L 192.988176 131.517544 
L 193.062852 131.687547 
L 193.114352 131.619546 
L 193.122077 131.687547 
L 193.227653 131.551545 
L 193.315204 131.653546 
L 193.263703 131.517544 
L 193.335804 131.517544 
L 193.51863 131.619546 
L 193.590731 131.755548 
L 193.526356 131.585545 
L 193.631931 131.687547 
L 193.680857 131.585545 
L 193.691157 131.755548 
L 193.747807 131.619546 
L 194.069685 131.551545 
L 194.182986 131.415543 
L 194.185561 131.449544 
L 194.211311 131.313542 
L 194.280837 131.313542 
L 194.285987 131.21154 
L 194.291137 131.347542 
L 194.391563 131.313542 
L 194.450788 131.17754 
L 194.414738 131.347542 
L 194.507439 131.245541 
L 194.533189 131.347542 
L 194.525464 131.17754 
L 194.62074 131.279541 
L 194.716015 131.313542 
L 194.793266 131.449544 
L 194.826741 131.347542 
L 194.922017 131.449544 
L 194.940042 131.381543 
L 195.061068 131.21154 
L 195.164069 131.279541 
L 195.128019 131.109539 
L 195.171794 131.21154 
L 195.228445 131.007538 
L 195.285095 131.109539 
L 195.29282 131.075539 
L 195.400971 131.21154 
L 195.455046 131.041538 
L 195.421571 131.245541 
L 195.511697 131.17754 
L 195.671348 131.075539 
L 195.748599 130.803535 
L 195.787224 130.905536 
L 195.864475 131.007538 
L 195.970051 131.21154 
L 195.8722 130.973537 
L 195.982926 131.109539 
L 196.114252 131.041538 
L 196.212103 130.905536 
L 196.142577 131.109539 
L 196.227553 130.973537 
L 196.286778 131.109539 
L 196.237853 130.939537 
L 196.343429 131.075539 
L 196.353729 131.143539 
L 196.47218 130.769535 
L 196.47733 130.837535 
L 196.552005 130.46353 
L 196.570031 130.497531 
L 196.693632 130.327529 
L 196.809507 130.667533 
L 196.824958 130.633533 
L 196.927958 130.46353 
L 196.945984 130.497531 
L 197.203486 130.565532 
L 197.218936 130.667533 
L 197.288461 130.497531 
L 197.314212 130.565532 
L 197.357987 130.42953 
L 197.334812 130.599532 
L 197.424938 130.565532 
L 197.494463 130.667533 
L 197.535663 130.599532 
L 197.69274 130.497531 
L 197.72364 130.599532 
L 197.818916 130.225527 
L 197.942517 130.599532 
L 198.030068 130.667533 
L 198.045518 130.633533 
L 198.148518 130.871536 
L 198.202594 130.905536 
L 198.284995 130.531531 
L 198.290145 130.599532 
L 198.382845 130.361529 
L 198.547647 130.293528 
L 198.655798 130.191527 
L 198.588847 130.361529 
L 198.658373 130.225527 
L 198.771674 130.361529 
L 198.774249 130.327529 
L 198.838624 130.089526 
L 198.781974 130.361529 
L 198.8927 130.123526 
L 199.003426 130.259528 
L 198.903 130.089526 
L 199.006001 130.225527 
L 199.090976 130.089526 
L 199.119301 130.157526 
L 199.139902 130.191527 
L 199.204277 129.953524 
L 199.212002 130.021525 
L 199.281528 129.715521 
L 199.327878 129.783521 
L 199.438604 129.64752 
L 199.343328 129.851522 
L 199.446329 129.68152 
L 199.51328 129.579519 
L 199.624006 129.443517 
L 199.629156 129.477517 
L 199.706406 129.545518 
L 199.727006 129.375516 
L 199.732156 129.409517 
L 199.734732 129.341516 
L 199.799107 129.477517 
L 199.840307 129.409517 
L 199.891808 129.273515 
L 199.958758 129.511518 
L 200.090084 129.613519 
L 200.13901 129.511518 
L 200.21111 129.783521 
L 200.278061 129.68152 
L 200.301236 129.817522 
L 200.319261 129.817522 
L 200.321836 129.851522 
L 200.378487 129.715521 
L 200.427412 129.817522 
L 200.429987 129.749521 
L 200.514963 129.987524 
L 200.532988 129.953524 
L 200.566463 129.987524 
L 200.569038 130.089526 
L 200.605089 129.885523 
L 200.677189 130.021525 
L 200.787915 130.089526 
L 200.862591 130.191527 
L 200.896066 130.089526 
L 201.017092 129.885523 
L 201.037692 130.055525 
L 201.122668 129.851522 
L 201.127818 129.885523 
L 201.241119 130.089526 
L 201.243694 130.021525 
L 201.346695 129.953524 
L 201.43167 130.021525 
L 201.457421 129.885523 
L 201.539821 129.987524 
L 201.514071 129.851522 
L 201.568147 129.919523 
L 201.583597 129.953524 
L 201.632522 129.749521 
L 201.671147 129.817522 
L 201.779298 129.783521 
L 201.707198 129.885523 
L 201.781873 129.817522 
L 201.887449 129.851522 
L 201.856549 129.715521 
L 201.892599 129.817522 
L 201.897749 129.851522 
L 202.013625 129.68152 
L 202.114051 129.817522 
L 202.075426 129.64752 
L 202.121776 129.715521 
L 202.137226 129.749521 
L 202.235077 129.579519 
L 202.299453 129.64752 
L 202.253102 129.511518 
L 202.340653 129.579519 
L 202.443654 129.613519 
L 202.453954 129.477517 
L 202.60073 129.375516 
L 202.708881 129.273515 
L 202.608455 129.477517 
L 202.714031 129.341516 
L 202.773256 129.375516 
L 202.799007 129.171513 
L 202.819607 129.273515 
L 203.102859 129.273515 
L 203.20586 129.137513 
L 203.213585 129.239514 
L 203.460787 129.137513 
L 203.571513 129.001511 
L 203.473662 129.171513 
L 203.576663 129.069512 
L 203.687389 128.967511 
L 203.733739 128.831509 
L 203.692539 129.001511 
L 203.798115 128.93351 
L 203.803265 128.89951 
L 203.911416 129.001511 
L 203.975791 128.661507 
L 204.029867 128.695507 
L 204.089092 128.729508 
L 204.150893 128.865509 
L 204.199818 128.763508 
L 204.233293 128.695507 
L 204.204968 128.831509 
L 204.307969 128.797508 
L 204.665897 128.729508 
L 204.753448 128.627506 
L 204.768898 128.763508 
L 204.776623 128.695507 
L 204.838423 128.763508 
L 204.833273 128.627506 
L 204.889924 128.729508 
L 204.956874 128.593506 
L 204.913099 128.763508 
L 205.003225 128.695507 
L 205.111376 128.593506 
L 205.219527 128.321502 
L 205.240127 128.355503 
L 205.332827 128.457504 
L 205.271027 128.321502 
L 205.353428 128.423503 
L 205.482179 128.1515 
L 205.574879 128.253501 
L 205.502779 128.117499 
L 205.592905 128.1855 
L 205.65728 128.015498 
L 205.706206 128.1515 
L 205.804056 128.219501 
L 205.724231 128.117499 
L 205.816931 128.1855 
L 205.894182 128.083499 
L 205.901907 128.219501 
L 205.927657 128.1855 
L 206.040958 128.321502 
L 206.043533 128.253501 
L 206.798014 128.355503 
L 206.82119 128.423503 
L 206.808315 128.287502 
L 206.90874 128.355503 
L 207.222893 128.253501 
L 207.305294 128.1515 
L 207.328469 128.321502 
L 207.333619 128.253501 
L 207.603996 128.1515 
L 207.673522 128.083499 
L 207.709572 128.1855 
L 207.714722 128.1515 
L 207.794548 128.083499 
L 207.830598 128.253501 
L 207.884673 128.287502 
L 207.943899 128.117499 
L 208.028875 128.049499 
L 207.979949 128.1855 
L 208.054625 128.117499 
L 208.345602 128.015498 
L 208.379077 127.981498 
L 208.376502 128.117499 
L 208.456328 128.015498 
L 208.515554 127.947497 
L 208.567054 127.777495 
L 208.628855 127.811495 
L 208.70868 127.947497 
L 208.73958 127.879496 
L 208.742155 127.777495 
L 208.814256 127.947497 
L 208.850306 127.879496 
L 208.868331 127.811495 
L 208.901807 128.015498 
L 208.955882 127.947497 
L 209.038283 127.879496 
L 209.071758 128.015498 
L 209.187634 127.879496 
L 209.089783 128.049499 
L 209.190209 127.913497 
L 209.203084 127.981498 
L 209.27776 127.777495 
L 209.29836 127.845496 
L 209.367886 127.777495 
L 209.311235 127.879496 
L 209.411661 127.811495 
L 209.450286 127.913497 
L 209.491487 127.777495 
L 209.519812 127.811495 
L 209.576462 127.607493 
L 209.530112 127.879496 
L 209.638263 127.709494 
L 209.821089 127.641493 
L 209.833964 127.573492 
L 209.900915 127.743494 
L 209.926665 127.709494 
L 210.003916 127.777495 
L 209.96529 127.675494 
L 210.034816 127.675494 
L 210.081166 127.505491 
L 210.148117 127.573492 
L 210.171292 127.505491 
L 210.240818 127.233488 
L 210.289743 127.267488 
L 210.433944 127.199487 
L 210.436519 127.131486 
L 210.53437 127.36949 
L 210.536945 127.335489 
L 210.645096 127.471491 
L 210.57042 127.267488 
L 210.650246 127.43749 
L 210.652821 127.36949 
L 210.740372 127.573492 
L 210.758397 127.43749 
L 210.776422 127.505491 
L 210.853673 127.267488 
L 210.863973 127.40349 
L 210.979849 127.199487 
L 210.984999 127.267488 
L 211.0983 127.36949 
L 211.1807 127.471491 
L 211.211601 127.40349 
L 211.296576 127.335489 
L 211.371252 127.267488 
L 211.342927 127.471491 
L 211.407302 127.335489 
L 211.510303 127.233488 
L 211.597854 127.131486 
L 211.518028 127.267488 
L 211.623604 127.165487 
L 211.716305 127.301489 
L 211.736905 127.199487 
L 211.922307 127.131486 
L 211.924882 127.063485 
L 211.932607 127.199487 
L 212.030457 127.131486 
L 212.069083 127.199487 
L 212.066508 127.097486 
L 212.138608 127.131486 
L 212.241609 126.927484 
L 212.262209 126.961484 
L 212.357485 126.859483 
L 212.411561 126.791482 
L 212.37551 126.893483 
L 212.468211 126.859483 
L 213.148017 126.757481 
L 213.150592 126.723481 
L 213.155742 126.859483 
L 213.253592 126.791482 
L 213.266468 126.757481 
L 213.372043 126.927484 
L 213.374618 126.859483 
L 213.449294 127.029485 
L 213.480194 126.961484 
L 213.557445 127.165487 
L 213.59607 127.029485 
L 213.639846 126.927484 
L 213.745422 126.825482 
L 213.678471 126.995485 
L 213.750572 126.893483 
L 213.773747 126.961484 
L 213.835547 126.791482 
L 213.858722 126.859483 
L 213.972023 126.689481 
L 213.899923 126.893483 
L 213.977173 126.723481 
L 214.002924 126.825482 
L 214.062149 126.689481 
L 214.087899 126.723481 
L 214.20635 126.791482 
L 214.319651 126.995485 
L 214.322226 126.961484 
L 214.353127 126.859483 
L 214.355702 126.825482 
L 214.366002 126.961484 
L 214.458702 126.893483 
L 214.553978 127.029485 
L 214.572003 126.995485 
L 214.574578 126.961484 
L 214.646679 127.165487 
L 214.677579 127.063485 
L 214.778005 127.199487 
L 214.690454 126.995485 
L 214.79088 127.165487 
L 214.883581 127.097486 
L 214.981432 127.029485 
L 214.888731 127.131486 
L 214.994307 127.097486 
L 215.125633 126.995485 
L 215.233784 126.927484 
L 215.133358 127.097486 
L 215.238934 126.961484 
L 215.267259 126.995485 
L 215.300734 126.859483 
L 215.341935 126.859483 
L 215.501586 126.961484 
L 215.504161 127.029485 
L 215.519611 126.893483 
L 215.612312 126.995485 
L 215.702438 126.961484 
L 215.699863 127.063485 
L 215.720463 127.029485 
L 215.957365 127.029485 
L 216.065516 126.859483 
L 216.070666 126.893483 
L 216.078391 126.825482 
L 216.135041 127.029485 
L 216.176241 126.961484 
L 216.56507 126.893483 
L 216.665496 126.723481 
L 216.680946 126.757481 
L 216.979648 126.791482 
L 216.982223 126.893483 
L 217.080074 126.723481 
L 217.090374 126.791482 
L 217.17535 126.723481 
L 217.213975 126.62148 
L 217.283501 126.723481 
L 217.296376 126.791482 
L 217.319551 126.65548 
L 217.394226 126.757481 
L 217.409677 126.689481 
L 217.443152 126.825482 
L 217.502377 126.791482 
L 217.530703 126.689481 
L 217.559028 126.62148 
L 217.631128 126.825482 
L 217.636278 126.757481 
L 217.646579 126.791482 
L 217.731554 126.961484 
L 217.757304 126.825482 
L 217.81653 126.859483 
L 217.83198 126.723481 
L 217.860305 126.757481 
L 217.924681 126.723481 
L 217.883481 126.859483 
L 217.963306 126.825482 
L 218.032832 126.859483 
L 218.063732 126.689481 
L 218.066307 126.757481 
L 218.140983 126.65548 
L 218.086907 126.791482 
L 218.182183 126.689481 
L 218.743538 126.587479 
L 218.851688 126.485478 
L 218.769288 126.65548 
L 218.859414 126.519478 
L 219.02679 126.417477 
L 219.127216 126.315476 
L 219.03194 126.451477 
L 219.134941 126.383477 
L 219.137516 126.451477 
L 219.142666 126.315476 
L 219.245667 126.383477 
L 219.348668 126.417477 
L 219.255967 126.247475 
L 219.356393 126.383477 
L 219.407893 126.349476 
L 219.443943 126.485478 
L 219.464543 126.383477 
L 219.567544 126.485478 
L 219.577844 126.451477 
L 219.585569 126.417477 
L 219.66797 126.587479 
L 219.67827 126.587479 
L 219.948647 126.519478 
L 220.036198 126.417477 
L 219.997573 126.553479 
L 220.059373 126.485478 
L 220.113449 126.553479 
L 220.159799 126.383477 
L 220.167524 126.485478 
L 220.265375 126.383477 
L 220.213875 126.519478 
L 220.280825 126.417477 
L 220.394126 126.485478 
L 220.466227 126.587479 
L 220.417301 126.451477 
L 220.504852 126.519478 
L 220.574378 126.451477 
L 220.517727 126.553479 
L 220.613003 126.519478 
L 220.716004 126.62148 
L 220.638753 126.451477 
L 220.726304 126.553479 
L 220.803554 126.485478 
L 220.896255 126.315476 
L 220.916855 126.417477 
L 220.999256 126.451477 
L 221.030156 126.349476 
L 221.133157 126.553479 
L 221.146032 126.519478 
L 221.344309 126.417477 
L 221.398384 126.349476 
L 221.44731 126.519478 
L 221.45246 126.451477 
L 221.588936 126.349476 
L 221.599236 126.315476 
L 221.673912 126.451477 
L 221.697087 126.383477 
L 221.805238 126.281475 
L 221.833563 126.383477 
L 221.921114 126.213474 
L 222.024115 126.281475 
L 222.111665 126.451477 
L 222.05759 126.247475 
L 222.137415 126.383477 
L 222.13999 126.281475 
L 222.219816 126.485478 
L 222.248141 126.383477 
L 222.523669 126.281475 
L 222.644695 126.077472 
L 222.64727 126.111473 
L 222.65757 126.179474 
L 222.74512 126.043472 
L 222.755421 126.077472 
L 222.812071 125.975471 
L 222.817221 126.043472 
L 222.927947 125.87347 
L 223.015498 126.009472 
L 223.038673 125.941471 
L 223.126224 125.839469 
L 223.149399 125.87347 
L 223.188024 125.975471 
L 223.24725 125.805469 
L 223.25755 125.839469 
L 223.332225 125.703468 
L 223.275575 125.87347 
L 223.368276 125.805469 
L 223.468701 125.839469 
L 223.376001 125.703468 
L 223.476426 125.771468 
L 223.530502 125.635467 
L 223.494452 125.805469 
L 223.594877 125.669467 
L 223.600027 125.737468 
L 223.651528 125.601466 
L 223.700453 125.635467 
L 223.754529 125.669467 
L 223.818904 125.533465 
L 223.901305 125.669467 
L 223.92448 125.499465 
L 223.927055 125.499465 
L 224.194857 125.533465 
L 224.292708 125.771468 
L 224.308158 125.703468 
L 224.54506 125.635467 
L 224.630036 125.669467 
L 224.658361 125.533465 
L 224.735612 125.635467 
L 224.738187 125.669467 
L 224.833463 125.499465 
L 224.841188 125.601466 
L 224.959639 125.397463 
L 225.024014 125.363463 
L 225.07294 125.465464 
L 225.173365 125.295462 
L 225.193966 125.329463 
L 226.023122 125.431464 
L 226.079773 125.499465 
L 226.033422 125.329463 
L 226.133848 125.431464 
L 226.31925 125.499465 
L 226.40165 125.635467 
L 226.432551 125.567466 
L 226.527826 125.465464 
L 226.458301 125.669467 
L 226.548427 125.499465 
L 226.566452 125.431464 
L 226.659153 125.533465 
L 226.759578 125.465464 
L 226.664303 125.567466 
L 226.769878 125.533465 
L 227.035106 125.635467 
L 227.073731 125.737468 
L 227.040256 125.601466 
L 227.148407 125.669467 
L 227.187032 125.703468 
L 227.212782 125.805469 
L 227.277158 125.635467 
L 227.295183 125.635467 
L 227.405909 125.533465 
L 227.331233 125.703468 
L 227.411059 125.567466 
L 227.547535 125.465464 
L 227.624785 125.295462 
L 227.665986 125.329463 
L 227.774137 125.363463 
L 227.732936 125.227461 
L 227.776712 125.329463 
L 228.219615 125.261462 
L 228.263391 125.295462 
L 228.332916 125.12546 
L 228.433342 125.227461 
L 228.389567 125.091459 
L 228.446217 125.15946 
L 228.515743 125.227461 
L 228.556943 125.091459 
L 228.665094 125.193461 
L 228.667669 125.091459 
L 228.778395 124.989458 
L 228.693419 125.15946 
L 228.783545 125.023459 
L 228.868521 125.12546 
L 228.883971 124.989458 
L 228.891696 124.989458 
L 228.894271 124.921457 
L 228.979247 125.15946 
L 228.994697 125.15946 
L 229.046197 125.091459 
L 229.105423 124.955458 
L 229.069372 125.12546 
L 229.156923 125.023459 
L 229.192973 125.091459 
L 229.229024 124.921457 
L 229.265074 125.023459 
L 229.393825 124.751455 
L 229.3964 124.785455 
L 229.473651 124.479451 
L 229.483951 124.513452 
L 229.597252 124.34345 
L 229.602402 124.37745 
L 229.607552 124.34345 
L 229.720853 124.547452 
L 229.733728 124.445451 
L 229.782653 124.649454 
L 229.829004 124.547452 
L 229.924279 124.751455 
L 229.947455 124.649454 
L 229.978355 124.547452 
L 229.98608 124.445451 
L 230.060755 124.615453 
L 230.089081 124.547452 
L 230.132856 124.683454 
L 230.122556 124.479451 
L 230.199807 124.581453 
L 230.297657 124.513452 
L 230.233282 124.649454 
L 230.310533 124.547452 
L 230.369758 124.615453 
L 230.403233 124.479451 
L 230.421258 124.547452 
L 230.485634 124.445451 
L 230.459884 124.581453 
L 230.534559 124.513452 
L 231.075314 124.615453 
L 231.121664 124.547452 
L 231.188615 124.649454 
L 231.572293 124.717454 
L 231.685594 124.887457 
L 231.788595 124.819456 
L 231.706194 124.921457 
L 231.79632 124.853456 
L 231.886445 124.921457 
L 231.80662 124.819456 
L 231.909621 124.887457 
L 232.022922 124.819456 
L 232.053822 124.853456 
L 232.136223 124.751455 
L 232.138798 124.819456 
L 232.231498 124.547452 
L 232.239223 124.547452 
L 232.264974 124.445451 
L 232.383425 124.139447 
L 232.270124 124.479451 
L 232.386 124.173447 
L 232.43235 124.105446 
L 232.550801 123.765442 
L 232.553376 123.799442 
L 232.579126 123.901444 
L 232.604876 123.969445 
L 232.656377 123.799442 
L 232.679552 123.833443 
L 232.792853 123.459438 
L 232.800578 123.493438 
L 232.888129 123.59544 
L 232.846928 123.391437 
L 232.906154 123.527439 
L 232.908729 123.425437 
L 233.00143 123.731441 
L 233.01173 123.731441 
L 233.076105 123.799442 
L 233.189406 124.037445 
L 233.194556 124.003445 
L 233.315582 124.139447 
L 233.379958 124.105446 
L 233.382533 124.003445 
L 233.485534 124.275449 
L 233.488109 124.241448 
L 233.555059 124.41145 
L 233.585959 124.37745 
L 233.660635 124.479451 
L 233.624585 124.309449 
L 233.69411 124.37745 
L 233.745611 124.275449 
L 233.755911 124.41145 
L 233.807411 124.34345 
L 234.046888 124.275449 
L 234.108689 124.207448 
L 234.137014 124.37745 
L 234.152464 124.37745 
L 234.471767 124.309449 
L 234.556742 124.207448 
L 234.585068 124.241448 
L 234.718969 124.309449 
L 234.81682 124.41145 
L 234.806519 124.241448 
L 234.83227 124.37745 
L 235.064022 124.275449 
L 235.143847 123.969445 
L 235.074322 124.309449 
L 235.187623 124.105446 
L 235.210798 124.037445 
L 235.321524 123.901444 
L 235.233973 124.071446 
L 235.324099 123.935444 
L 235.4271 123.833443 
L 235.470875 123.697441 
L 235.455425 123.867443 
L 235.542975 123.765442 
L 235.656276 123.867443 
L 235.548126 123.731441 
L 235.658851 123.833443 
L 235.710352 123.935444 
L 235.826228 124.071446 
L 235.715502 123.901444 
L 235.828803 124.037445 
L 235.936954 123.935444 
L 235.939529 123.867443 
L 236.024504 124.071446 
L 236.045105 124.003445 
L 236.588434 124.105446 
L 236.639935 124.037445 
L 236.70431 124.173447 
L 236.887137 124.071446 
L 236.972112 123.935444 
L 236.997862 124.037445 
L 237.190989 123.935444 
L 237.275965 123.901444 
L 237.214164 124.003445 
L 237.301715 123.935444 
L 237.407291 124.003445 
L 237.348065 123.901444 
L 237.415016 123.969445 
L 237.474241 124.037445 
L 237.536042 123.833443 
L 237.608142 123.901444 
L 237.574667 123.765442 
L 237.644193 123.799442 
L 237.693118 123.697441 
L 237.651918 123.833443 
L 237.754919 123.765442 
L 237.775519 123.867443 
L 237.811569 123.731441 
L 237.86822 123.799442 
L 238.071646 123.901444 
L 238.115422 123.935444 
L 238.146322 123.765442 
L 238.179797 123.867443 
L 238.300823 123.731441 
L 238.403824 123.935444 
L 238.305973 123.697441 
L 238.416699 123.867443 
L 238.432149 123.935444 
L 238.455324 123.799442 
L 238.52485 123.833443 
L 238.548025 123.935444 
L 238.640726 123.765442 
L 238.643301 123.799442 
L 238.697376 123.493438 
L 238.730852 123.527439 
L 238.818402 123.561439 
L 238.851878 123.357436 
L 238.898228 123.425437 
L 238.947153 123.187434 
L 238.952303 123.255435 
L 239.065604 122.983432 
L 239.081055 123.017432 
L 239.184055 123.119433 
L 239.263881 123.255435 
L 239.232981 123.085433 
L 239.297356 123.153434 
L 239.387482 122.84743 
L 239.426107 122.88143 
L 239.467308 122.949431 
L 239.511083 122.779429 
L 239.534258 122.813429 
L 239.632109 122.88143 
L 239.598634 122.677427 
L 239.644984 122.813429 
L 239.652709 122.779429 
L 239.68876 122.983432 
L 239.75056 122.88143 
L 239.959137 122.779429 
L 240.036387 122.609427 
L 240.000337 122.84743 
L 240.075013 122.711428 
L 240.077588 122.779429 
L 240.159988 122.371423 
L 240.172864 122.439424 
L 240.190889 122.371423 
L 240.229514 122.575426 
L 240.273289 122.575426 
L 240.32479 122.677427 
L 240.33509 122.609427 
L 240.448391 122.84743 
L 240.597742 122.915431 
L 240.620917 123.017432 
L 240.672418 122.745428 
L 240.703318 122.813429 
L 240.711043 122.745428 
L 240.788294 123.017432 
L 240.801169 122.983432 
L 240.899019 123.085433 
L 240.95052 122.983432 
L 241.014895 123.187434 
L 241.128196 123.051432 
L 241.130771 123.085433 
L 241.236347 123.255435 
L 241.246647 123.187434 
L 241.323898 123.119433 
L 241.262097 123.255435 
L 241.357373 123.153434 
L 241.434624 123.289436 
L 241.419174 123.119433 
L 241.470674 123.187434 
L 241.547925 123.119433 
L 241.656076 123.017432 
L 241.5608 123.153434 
L 241.661226 123.051432 
L 241.818302 122.949431 
L 241.908428 122.915431 
L 241.831177 123.017432 
L 241.926453 122.983432 
L 242.014004 123.017432 
L 241.949628 122.88143 
L 242.034604 122.949431 
L 242.15563 122.88143 
L 242.220005 122.609427 
L 242.271506 122.643427 
L 242.384807 122.745428 
L 242.387382 122.711428 
L 242.454332 122.779429 
L 242.487808 122.711428 
L 242.570208 122.915431 
L 242.657759 122.84743 
L 242.580508 122.949431 
L 242.675784 122.915431 
L 242.76076 123.119433 
L 242.79166 123.051432 
L 242.814835 123.085433 
L 242.912686 122.915431 
L 242.915261 122.949431 
L 243.007962 122.711428 
L 243.013112 122.779429 
L 243.054312 122.609427 
L 243.103238 122.813429 
L 243.123838 122.745428 
L 243.193363 122.949431 
L 243.244864 122.88143 
L 243.481766 122.983432 
L 243.530691 122.84743 
L 243.592492 123.017432 
L 243.672317 122.88143 
L 243.705793 122.915431 
L 243.783043 122.983432 
L 243.721243 122.88143 
L 243.813943 122.915431 
L 243.924669 122.779429 
L 243.842269 122.949431 
L 243.932394 122.813429 
L 244.282597 122.711428 
L 244.336673 122.677427 
L 244.303197 122.813429 
L 244.390748 122.745428 
L 244.442249 122.813429 
L 244.475724 122.88143 
L 244.534949 122.643427 
L 244.545249 122.643427 
L 244.578725 122.541426 
L 244.550399 122.677427 
L 244.65855 122.575426 
L 244.725501 122.677427 
L 244.748676 122.507425 
L 244.764126 122.575426 
L 244.885152 122.269422 
L 244.900602 122.439424 
L 244.972703 122.167421 
L 244.993303 122.201421 
L 245.026778 122.09942 
L 245.052529 122.065419 
L 245.073129 122.201421 
L 245.132354 122.167421 
L 245.150379 122.201421 
L 245.22763 122.031419 
L 245.23793 122.13342 
L 245.26368 122.031419 
L 245.307456 122.201421 
L 245.348656 122.09942 
L 245.461957 122.269422 
L 245.389856 122.031419 
L 245.464532 122.235422 
L 245.523757 122.13342 
L 245.577833 122.303423 
L 245.642208 122.13342 
L 245.691134 122.201421 
L 245.951211 122.13342 
L 245.997561 121.997418 
L 246.064512 122.065419 
L 246.167513 121.861417 
L 246.185538 121.929418 
L 246.242188 121.963418 
L 246.283389 121.793416 
L 246.293689 121.895417 
L 246.610416 121.827416 
L 246.677367 121.691414 
L 246.713417 121.861417 
L 246.721142 121.793416 
L 246.757193 121.691414 
L 246.777793 121.589413 
L 246.842168 121.793416 
L 246.862768 121.793416 
L 246.940019 121.793416 
L 246.994095 121.623414 
L 247.050745 121.725415 
L 247.212971 121.623414 
L 247.230996 121.555413 
L 247.292797 121.691414 
L 247.323697 121.623414 
L 247.743426 121.725415 
L 247.766601 121.691414 
L 247.859302 121.827416 
L 247.915952 121.725415 
L 247.931402 121.861417 
L 247.970028 121.827416 
L 247.988053 121.895417 
L 248.083328 121.759415 
L 248.119379 121.725415 
L 248.196629 121.861417 
L 248.28933 121.691414 
L 248.30993 121.725415 
L 248.423231 121.861417 
L 248.356281 121.691414 
L 248.425806 121.793416 
L 248.585458 121.861417 
L 248.588033 121.929418 
L 248.631808 121.793416 
L 248.696183 121.895417 
L 248.845535 121.997418 
L 248.948536 122.031419 
L 248.93051 121.929418 
L 248.951111 121.929418 
L 249.082437 121.861417 
L 249.085012 121.793416 
L 249.090162 121.929418 
L 249.190588 121.929418 
L 249.291013 121.827416 
L 249.229213 121.963418 
L 249.306463 121.861417 
L 249.54594 121.793416 
L 249.548515 121.725415 
L 249.587141 121.861417 
L 249.654091 121.861417 
L 249.903868 121.963418 
L 249.981119 121.997418 
L 249.909018 121.895417 
L 250.012019 121.929418 
L 250.071245 121.929418 
L 250.163946 121.657414 
L 250.184546 121.725415 
L 250.279821 121.623414 
L 250.236046 121.827416 
L 250.297847 121.691414 
L 250.377672 121.759415 
L 250.336472 121.657414 
L 250.403423 121.657414 
L 250.483248 121.487412 
L 250.429173 121.691414 
L 250.521873 121.521412 
L 250.583674 121.623414 
L 250.537324 121.487412 
L 250.630024 121.521412 
L 250.635174 121.453411 
L 250.70985 121.589413 
L 250.738175 121.555413 
L 251.003402 121.453411 
L 251.049753 121.555413 
L 251.119278 121.38541 
L 251.181079 121.453411 
L 251.147604 121.317409 
L 251.227429 121.35141 
L 251.29438 121.453411 
L 251.296955 121.487412 
L 251.35618 121.35141 
L 251.402531 121.419411 
L 251.577632 121.35141 
L 251.580207 121.283409 
L 251.662608 121.453411 
L 251.685783 121.38541 
L 251.773334 121.419411 
L 251.706383 121.283409 
L 251.793934 121.35141 
L 252.386189 121.249409 
L 252.48919 121.079406 
L 252.411939 121.283409 
L 252.507215 121.113407 
L 252.656566 121.011405 
L 252.659141 120.977405 
L 252.687466 121.113407 
L 252.762142 121.079406 
L 252.821367 121.147407 
L 252.793042 121.045406 
L 252.872868 121.079406 
L 252.919218 121.181408 
L 252.952693 121.249409 
L 252.968144 121.113407 
L 253.027369 121.181408 
L 253.132945 121.113407 
L 253.076294 121.215408 
L 253.138095 121.181408 
L 253.356972 121.079406 
L 253.457398 121.011405 
L 253.421347 121.147407 
L 253.470273 121.045406 
L 253.526923 121.079406 
L 253.570699 120.943405 
L 253.575849 120.977405 
L 253.645374 120.909404 
L 253.681424 121.045406 
L 253.683999 120.977405 
L 253.7149 120.943405 
L 253.7973 121.045406 
L 253.815326 120.977405 
L 253.869401 121.147407 
L 253.905451 121.079406 
L 254.021327 121.147407 
L 254.041927 121.215408 
L 254.075403 121.079406 
L 254.129478 121.113407 
L 254.518306 121.045406 
L 254.608432 120.841403 
L 254.634182 120.875404 
L 254.685683 121.045406 
L 254.721733 120.943405 
" clip-path="url(#p819af6f164)" style="fill: none; stroke: #000000; stroke-opacity: 0.5; stroke-width: 1.5; stroke-linecap: square"/>
   </g>
   <g id="patch_3">
    <path d="M 41.667188 173.52 
L 41.667188 7.2 
" style="fill: none; stroke: #000000; stroke-width: 0.8; stroke-linejoin: miter; stroke-linecap: square"/>
   </g>
   <g id="patch_4">
    <path d="M 41.667188 173.52 
L 264.867187 173.52 
" style="fill: none; stroke: #000000; stroke-width: 0.8; stroke-linejoin: miter; stroke-linecap: square"/>
   </g>
  </g>
 </g>
 <defs>
  <clipPath id="p819af6f164">
   <rect x="41.667188" y="7.2" width="223.2" height="166.32"/>
  </clipPath>
 </defs>
</svg>
