<?xml version="1.0" encoding="utf-8" standalone="no"?>
<!DOCTYPE svg PUBLIC "-//W3C//DTD SVG 1.1//EN"
  "http://www.w3.org/Graphics/SVG/1.1/DTD/svg11.dtd">
<svg xmlns:xlink="http://www.w3.org/1999/xlink" width="272.067187pt" height="197.398125pt" viewBox="0 0 272.067187 197.398125" xmlns="http://www.w3.org/2000/svg" version="1.1">
 <metadata>
  <rdf:RDF xmlns:dc="http://purl.org/dc/elements/1.1/" xmlns:cc="http://creativecommons.org/ns#" xmlns:rdf="http://www.w3.org/1999/02/22-rdf-syntax-ns#">
   <cc:Work>
    <dc:type rdf:resource="http://purl.org/dc/dcmitype/StillImage"/>
    <dc:date>2025-12-19T11:57:24.510690</dc:date>
    <dc:format>image/svg+xml</dc:format>
    <dc:creator>
     <cc:Agent>
      <dc:title>Matplotlib v3.10.7, https://matplotlib.org/</dc:title>
     </cc:Agent>
    </dc:creator>
   </cc:Work>
  </rdf:RDF>
 </metadata>
 <defs>
  <style type="text/css">*{stroke-linejoin: round; stroke-linecap: butt}</style>
 </defs>
 <g id="figure_1">
  <g id="patch_1">
   <path d="M 0 197.398125 
L 272.067187 197.398125 
L 272.067187 0 
L 0 0 
z
" style="fill: #ffffff"/>
  </g>
  <g id="axes_1">
   <g id="patch_2">
    <path d="M 41.667188 173.52 
L 264.867188 173.52 
L 264.867188 7.2 
L 41.667188 7.2 
z
" style="fill: #ffffff"/>
   </g>
   <g id="matplotlib.axis_1">
    <g id="xtick_1">
     <g id="line2d_1">
      <defs>
       <path id="m2441ad0f07" d="M 0 0 
L 0 3.5 
" style="stroke: #000000; stroke-width: 0.8"/>
      </defs>
      <g>
       <use xlink:href="#m2441ad0f07" x="82.712896" y="173.52" style="stroke: #000000; stroke-width: 0.8"/>
      </g>
     </g>
     <g id="text_1">
      <!-- 1 -->
      <g transform="translate(79.531646 188.118438) scale(0.1 -0.1)">
       <defs>
        <path id="DejaVuSans-31" d="M 794 531 
L 1825 531 
L 1825 4091 
L 703 3866 
L 703 4441 
L 1819 4666 
L 2450 4666 
L 2450 531 
L 3481 531 
L 3481 0 
L 794 0 
L 794 531 
z
" transform="scale(0.015625)"/>
       </defs>
       <use xlink:href="#DejaVuSans-31"/>
      </g>
     </g>
    </g>
    <g id="xtick_2">
     <g id="line2d_2">
      <g>
       <use xlink:href="#m2441ad0f07" x="134.213319" y="173.52" style="stroke: #000000; stroke-width: 0.8"/>
      </g>
     </g>
     <g id="text_2">
      <!-- 2 -->
      <g transform="translate(131.032069 188.118438) scale(0.1 -0.1)">
       <defs>
        <path id="DejaVuSans-32" d="M 1228 531 
L 3431 531 
L 3431 0 
L 469 0 
L 469 531 
Q 828 903 1448 1529 
Q 2069 2156 2228 2338 
Q 2531 2678 2651 2914 
Q 2772 3150 2772 3378 
Q 2772 3750 2511 3984 
Q 2250 4219 1831 4219 
Q 1534 4219 1204 4116 
Q 875 4013 500 3803 
L 500 4441 
Q 881 4594 1212 4672 
Q 1544 4750 1819 4750 
Q 2544 4750 2975 4387 
Q 3406 4025 3406 3419 
Q 3406 3131 3298 2873 
Q 3191 2616 2906 2266 
Q 2828 2175 2409 1742 
Q 1991 1309 1228 531 
z
" transform="scale(0.015625)"/>
       </defs>
       <use xlink:href="#DejaVuSans-32"/>
      </g>
     </g>
    </g>
    <g id="xtick_3">
     <g id="line2d_3">
      <g>
       <use xlink:href="#m2441ad0f07" x="185.713741" y="173.52" style="stroke: #000000; stroke-width: 0.8"/>
      </g>
     </g>
     <g id="text_3">
      <!-- 3 -->
      <g transform="translate(182.532491 188.118438) scale(0.1 -0.1)">
       <defs>
        <path id="DejaVuSans-33" d="M 2597 2516 
Q 3050 2419 3304 2112 
Q 3559 1806 3559 1356 
Q 3559 666 3084 287 
Q 2609 -91 1734 -91 
Q 1441 -91 1130 -33 
Q 819 25 488 141 
L 488 750 
Q 750 597 1062 519 
Q 1375 441 1716 441 
Q 2309 441 2620 675 
Q 2931 909 2931 1356 
Q 2931 1769 2642 2001 
Q 2353 2234 1838 2234 
L 1294 2234 
L 1294 2753 
L 1863 2753 
Q 2328 2753 2575 2939 
Q 2822 3125 2822 3475 
Q 2822 3834 2567 4026 
Q 2313 4219 1838 4219 
Q 1578 4219 1281 4162 
Q 984 4106 628 3988 
L 628 4550 
Q 988 4650 1302 4700 
Q 1616 4750 1894 4750 
Q 2613 4750 3031 4423 
Q 3450 4097 3450 3541 
Q 3450 3153 3228 2886 
Q 3006 2619 2597 2516 
z
" transform="scale(0.015625)"/>
       </defs>
       <use xlink:href="#DejaVuSans-33"/>
      </g>
     </g>
    </g>
    <g id="xtick_4">
     <g id="line2d_4">
      <g>
       <use xlink:href="#m2441ad0f07" x="237.214164" y="173.52" style="stroke: #000000; stroke-width: 0.8"/>
      </g>
     </g>
     <g id="text_4">
      <!-- 4 -->
      <g transform="translate(234.032914 188.118438) scale(0.1 -0.1)">
       <defs>
        <path id="DejaVuSans-34" d="M 2419 4116 
L 825 1625 
L 2419 1625 
L 2419 4116 
z
M 2253 4666 
L 3047 4666 
L 3047 1625 
L 3713 1625 
L 3713 1100 
L 3047 1100 
L 3047 0 
L 2419 0 
L 2419 1100 
L 313 1100 
L 313 1709 
L 2253 4666 
z
" transform="scale(0.015625)"/>
       </defs>
       <use xlink:href="#DejaVuSans-34"/>
      </g>
     </g>
    </g>
   </g>
   <g id="matplotlib.axis_2">
    <g id="ytick_1">
     <g id="line2d_5">
      <defs>
       <path id="mf932acf519" d="M 0 0 
L -3.5 0 
" style="stroke: #000000; stroke-width: 0.8"/>
      </defs>
      <g>
       <use xlink:href="#mf932acf519" x="41.667188" y="167.087591" style="stroke: #000000; stroke-width: 0.8"/>
      </g>
     </g>
     <g id="text_5">
      <!-- −100 -->
      <g transform="translate(7.2 170.886809) scale(0.1 -0.1)">
       <defs>
        <path id="DejaVuSans-2212" d="M 678 2272 
L 4684 2272 
L 4684 1741 
L 678 1741 
L 678 2272 
z
" transform="scale(0.015625)"/>
        <path id="DejaVuSans-30" d="M 2034 4250 
Q 1547 4250 1301 3770 
Q 1056 3291 1056 2328 
Q 1056 1369 1301 889 
Q 1547 409 2034 409 
Q 2525 409 2770 889 
Q 3016 1369 3016 2328 
Q 3016 3291 2770 3770 
Q 2525 4250 2034 4250 
z
M 2034 4750 
Q 2819 4750 3233 4129 
Q 3647 3509 3647 2328 
Q 3647 1150 3233 529 
Q 2819 -91 2034 -91 
Q 1250 -91 836 529 
Q 422 1150 422 2328 
Q 422 3509 836 4129 
Q 1250 4750 2034 4750 
z
" transform="scale(0.015625)"/>
       </defs>
       <use xlink:href="#DejaVuSans-2212"/>
       <use xlink:href="#DejaVuSans-31" transform="translate(83.789062 0)"/>
       <use xlink:href="#DejaVuSans-30" transform="translate(147.412109 0)"/>
       <use xlink:href="#DejaVuSans-30" transform="translate(211.035156 0)"/>
      </g>
     </g>
    </g>
    <g id="ytick_2">
     <g id="line2d_6">
      <g>
       <use xlink:href="#mf932acf519" x="41.667188" y="143.09475" style="stroke: #000000; stroke-width: 0.8"/>
      </g>
     </g>
     <g id="text_6">
      <!-- −80 -->
      <g transform="translate(13.5625 146.893969) scale(0.1 -0.1)">
       <defs>
        <path id="DejaVuSans-38" d="M 2034 2216 
Q 1584 2216 1326 1975 
Q 1069 1734 1069 1313 
Q 1069 891 1326 650 
Q 1584 409 2034 409 
Q 2484 409 2743 651 
Q 3003 894 3003 1313 
Q 3003 1734 2745 1975 
Q 2488 2216 2034 2216 
z
M 1403 2484 
Q 997 2584 770 2862 
Q 544 3141 544 3541 
Q 544 4100 942 4425 
Q 1341 4750 2034 4750 
Q 2731 4750 3128 4425 
Q 3525 4100 3525 3541 
Q 3525 3141 3298 2862 
Q 3072 2584 2669 2484 
Q 3125 2378 3379 2068 
Q 3634 1759 3634 1313 
Q 3634 634 3220 271 
Q 2806 -91 2034 -91 
Q 1263 -91 848 271 
Q 434 634 434 1313 
Q 434 1759 690 2068 
Q 947 2378 1403 2484 
z
M 1172 3481 
Q 1172 3119 1398 2916 
Q 1625 2713 2034 2713 
Q 2441 2713 2670 2916 
Q 2900 3119 2900 3481 
Q 2900 3844 2670 4047 
Q 2441 4250 2034 4250 
Q 1625 4250 1398 4047 
Q 1172 3844 1172 3481 
z
" transform="scale(0.015625)"/>
       </defs>
       <use xlink:href="#DejaVuSans-2212"/>
       <use xlink:href="#DejaVuSans-38" transform="translate(83.789062 0)"/>
       <use xlink:href="#DejaVuSans-30" transform="translate(147.412109 0)"/>
      </g>
     </g>
    </g>
    <g id="ytick_3">
     <g id="line2d_7">
      <g>
       <use xlink:href="#mf932acf519" x="41.667188" y="119.10191" style="stroke: #000000; stroke-width: 0.8"/>
      </g>
     </g>
     <g id="text_7">
      <!-- −60 -->
      <g transform="translate(13.5625 122.901129) scale(0.1 -0.1)">
       <defs>
        <path id="DejaVuSans-36" d="M 2113 2584 
Q 1688 2584 1439 2293 
Q 1191 2003 1191 1497 
Q 1191 994 1439 701 
Q 1688 409 2113 409 
Q 2538 409 2786 701 
Q 3034 994 3034 1497 
Q 3034 2003 2786 2293 
Q 2538 2584 2113 2584 
z
M 3366 4563 
L 3366 3988 
Q 3128 4100 2886 4159 
Q 2644 4219 2406 4219 
Q 1781 4219 1451 3797 
Q 1122 3375 1075 2522 
Q 1259 2794 1537 2939 
Q 1816 3084 2150 3084 
Q 2853 3084 3261 2657 
Q 3669 2231 3669 1497 
Q 3669 778 3244 343 
Q 2819 -91 2113 -91 
Q 1303 -91 875 529 
Q 447 1150 447 2328 
Q 447 3434 972 4092 
Q 1497 4750 2381 4750 
Q 2619 4750 2861 4703 
Q 3103 4656 3366 4563 
z
" transform="scale(0.015625)"/>
       </defs>
       <use xlink:href="#DejaVuSans-2212"/>
       <use xlink:href="#DejaVuSans-36" transform="translate(83.789062 0)"/>
       <use xlink:href="#DejaVuSans-30" transform="translate(147.412109 0)"/>
      </g>
     </g>
    </g>
    <g id="ytick_4">
     <g id="line2d_8">
      <g>
       <use xlink:href="#mf932acf519" x="41.667188" y="95.10907" style="stroke: #000000; stroke-width: 0.8"/>
      </g>
     </g>
     <g id="text_8">
      <!-- −40 -->
      <g transform="translate(13.5625 98.908289) scale(0.1 -0.1)">
       <use xlink:href="#DejaVuSans-2212"/>
       <use xlink:href="#DejaVuSans-34" transform="translate(83.789062 0)"/>
       <use xlink:href="#DejaVuSans-30" transform="translate(147.412109 0)"/>
      </g>
     </g>
    </g>
    <g id="ytick_5">
     <g id="line2d_9">
      <g>
       <use xlink:href="#mf932acf519" x="41.667188" y="71.11623" style="stroke: #000000; stroke-width: 0.8"/>
      </g>
     </g>
     <g id="text_9">
      <!-- −20 -->
      <g transform="translate(13.5625 74.915449) scale(0.1 -0.1)">
       <use xlink:href="#DejaVuSans-2212"/>
       <use xlink:href="#DejaVuSans-32" transform="translate(83.789062 0)"/>
       <use xlink:href="#DejaVuSans-30" transform="translate(147.412109 0)"/>
      </g>
     </g>
    </g>
    <g id="ytick_6">
     <g id="line2d_10">
      <g>
       <use xlink:href="#mf932acf519" x="41.667188" y="47.12339" style="stroke: #000000; stroke-width: 0.8"/>
      </g>
     </g>
     <g id="text_10">
      <!-- 0 -->
      <g transform="translate(28.304688 50.922609) scale(0.1 -0.1)">
       <use xlink:href="#DejaVuSans-30"/>
      </g>
     </g>
    </g>
    <g id="ytick_7">
     <g id="line2d_11">
      <g>
       <use xlink:href="#mf932acf519" x="41.667188" y="23.13055" style="stroke: #000000; stroke-width: 0.8"/>
      </g>
     </g>
     <g id="text_11">
      <!-- 20 -->
      <g transform="translate(21.942188 26.929768) scale(0.1 -0.1)">
       <use xlink:href="#DejaVuSans-32"/>
       <use xlink:href="#DejaVuSans-30" transform="translate(63.623047 0)"/>
      </g>
     </g>
    </g>
   </g>
   <g id="line2d_12">
    <path d="M 51.812642 125.212881 
L 51.815217 125.249492 
L 51.817792 125.103051 
L 51.918218 125.176271 
L 52.023794 124.99322 
L 51.928518 125.212881 
L 52.036669 125.066441 
L 52.18087 124.95661 
L 52.291596 124.810169 
L 52.19632 124.99322 
L 52.294171 124.88339 
L 52.296746 124.92 
L 52.330221 124.773559 
L 52.404897 124.88339 
L 52.518198 124.736949 
L 52.425497 124.92 
L 52.520773 124.810169 
L 52.685574 124.700339 
L 52.708749 124.663729 
L 52.74995 124.810169 
L 52.793725 124.736949 
L 52.852951 124.700339 
L 52.907026 124.88339 
L 53.033202 124.187797 
L 53.043502 124.224407 
L 53.133628 124.077966 
L 53.136203 124.114576 
L 53.172253 124.041356 
L 53.198003 124.224407 
L 53.244354 124.151186 
L 53.272679 124.297627 
L 53.301004 124.077966 
L 53.35508 124.187797 
L 53.468381 124.004746 
L 53.476106 124.041356 
L 53.589407 124.114576 
L 53.687257 124.297627 
L 53.597132 124.077966 
L 53.705283 124.261017 
L 53.749058 124.370847 
L 53.787683 124.187797 
L 53.813433 124.224407 
L 54.372213 124.297627 
L 54.454614 124.407458 
L 54.428864 124.224407 
L 54.482939 124.297627 
L 54.521564 124.224407 
L 54.547314 124.334237 
L 54.634865 124.114576 
L 54.727566 124.334237 
L 54.755891 124.297627 
L 54.807392 124.261017 
L 54.838292 124.444068 
L 54.858892 124.370847 
L 54.938718 124.444068 
L 54.949018 124.261017 
L 54.967043 124.334237 
L 55.033993 124.187797 
L 55.082919 124.261017 
L 55.147294 124.187797 
L 55.255445 124.041356 
L 55.157595 124.224407 
L 55.260595 124.077966 
L 55.291496 124.224407 
L 55.26832 124.004746 
L 55.368746 124.077966 
L 55.425397 123.931525 
L 55.461447 124.114576 
L 55.476897 124.114576 
L 55.569598 124.187797 
L 55.525823 124.077966 
L 55.585048 124.077966 
L 55.8271 124.151186 
L 55.932676 124.224407 
L 55.8683 124.041356 
L 55.937826 124.187797 
L 56.058852 123.968136 
L 56.061427 124.041356 
L 56.092327 123.785085 
L 56.167003 123.968136 
L 56.249403 123.711864 
L 56.285454 123.748475 
L 56.398755 123.675254 
L 56.524931 121.734915 
L 56.571281 121.881356 
L 56.723207 122.503729 
L 56.733507 122.467119 
L 56.810758 122.72339 
L 56.818483 122.68678 
L 56.942084 122.979661 
L 56.947234 122.943051 
L 56.962684 122.943051 
L 57.10431 131.656271 
L 57.346362 139.124746 
L 57.61674 143.664407 
L 57.910292 146.263729 
L 57.938617 146.336949 
L 58.080244 147.252203 
L 58.082819 147.215593 
L 58.160069 147.691525 
L 58.198694 147.801356 
L 58.345471 148.313898 
L 58.386671 148.387119 
L 58.499972 148.60678 
L 58.402121 148.350508 
L 58.502547 148.570169 
L 58.554047 148.68 
L 58.672498 148.863051 
L 58.572073 148.60678 
L 58.675073 148.826441 
L 58.734299 148.899661 
L 58.806399 149.009492 
L 58.752324 148.789831 
L 58.8476 148.972881 
L 58.865625 148.789831 
L 58.942876 149.009492 
L 58.958326 148.972881 
L 59.081927 149.192542 
L 59.097377 149.119322 
L 59.136002 149.302373 
L 59.187503 149.265763 
L 59.293078 149.302373 
L 59.295653 149.412203 
L 59.349729 149.229153 
L 59.403804 149.375593 
L 59.725682 149.485424 
L 59.787483 149.412203 
L 59.838983 149.558644 
L 59.890483 149.595254 
L 59.949709 149.485424 
L 60.05786 149.668475 
L 60.065585 149.631864 
L 60.14026 149.448814 
L 60.186611 149.485424 
L 60.225236 149.558644 
L 60.243261 149.448814 
L 60.297337 149.485424 
L 60.387462 149.375593 
L 60.335962 149.522034 
L 60.413213 149.412203 
L 60.822641 149.485424 
L 60.935942 149.595254 
L 60.943667 149.485424 
L 61.000317 149.668475 
L 61.049243 149.558644 
L 61.270695 149.448814 
L 61.381421 149.338983 
L 61.301595 149.558644 
L 61.383996 149.375593 
L 61.92475 149.265763 
L 61.94535 149.229153 
L 61.986551 149.375593 
L 62.030326 149.338983 
L 62.063801 149.412203 
L 62.035476 149.229153 
L 62.141052 149.338983 
L 62.215727 149.265763 
L 62.323878 149.082712 
L 62.228603 149.302373 
L 62.329028 149.155932 
L 62.352204 149.046102 
L 62.372804 149.119322 
L 62.46808 148.936271 
L 62.57623 149.046102 
L 62.542755 148.863051 
L 62.58138 148.972881 
L 62.671506 149.082712 
L 62.779657 149.192542 
L 62.784807 149.155932 
L 62.892958 149.265763 
L 62.813132 149.119322 
L 62.900683 149.229153 
L 63.019134 149.082712 
L 63.024284 149.192542 
L 63.07836 148.972881 
L 63.127285 149.046102 
L 63.214836 148.972881 
L 63.17621 149.082712 
L 63.238011 149.046102 
L 63.366762 149.119322 
L 63.456888 149.229153 
L 63.374487 149.082712 
L 63.474913 149.119322 
L 63.500663 148.972881 
L 63.570189 149.192542 
L 63.585639 149.082712 
L 63.70924 149.265763 
L 63.763315 149.119322 
L 63.819966 149.229153 
L 64.005367 149.119322 
L 64.031117 149.082712 
L 64.036267 149.229153 
L 64.110943 149.119322 
L 64.221669 149.302373 
L 64.224244 149.192542 
L 64.347845 149.448814 
L 64.383895 149.265763 
L 64.461146 149.302373 
L 64.476596 149.338983 
L 64.538397 149.192542 
L 64.569297 149.265763 
L 64.587322 149.192542 
L 64.641397 149.338983 
L 64.677448 149.265763 
L 64.680023 149.338983 
L 64.772723 149.155932 
L 64.788174 149.302373 
L 64.862849 149.009492 
L 64.90405 149.155932 
L 64.927225 149.046102 
L 64.9298 149.009492 
L 64.952975 149.229153 
L 65.030226 149.119322 
L 65.135801 149.192542 
L 65.043101 149.082712 
L 65.140951 149.119322 
L 65.220777 149.229153 
L 65.300603 149.302373 
L 65.256827 149.155932 
L 65.328928 149.229153 
L 65.336653 149.265763 
L 65.439654 149.119322 
L 65.491154 149.229153 
L 65.537505 149.046102 
L 65.547805 149.119322 
L 65.650806 148.972881 
L 65.658531 149.046102 
L 65.676556 149.155932 
L 65.671406 148.972881 
L 65.766682 149.009492 
L 66.284261 149.082712 
L 66.320311 149.155932 
L 66.330611 149.046102 
L 66.394987 149.082712 
L 66.541763 148.972881 
L 66.657639 148.789831 
L 66.559788 149.009492 
L 66.662789 148.826441 
L 66.845615 148.936271 
L 66.84819 148.972881 
L 66.884241 148.789831 
L 66.956341 148.936271 
L 67.056767 148.75322 
L 67.074792 148.789831 
L 67.177793 148.936271 
L 67.082517 148.75322 
L 67.193243 148.899661 
L 67.262769 148.936271 
L 67.404395 139.783729 
L 67.96575 126.933559 
L 67.968325 126.970169 
L 68.024975 126.201356 
L 68.02755 126.237966 
L 68.279902 124.224407 
L 68.282477 124.261017 
L 68.357153 123.785085 
L 68.359728 123.785085 
L 68.491054 123.199322 
L 68.496204 123.272542 
L 68.563155 123.052881 
L 68.59663 123.052881 
L 68.738256 122.613559 
L 68.766581 122.540339 
L 68.890182 122.137627 
L 68.918507 122.027797 
L 69.049834 121.734915 
L 69.052409 121.771525 
L 69.139959 121.478644 
L 69.145109 121.515254 
L 69.25326 121.405424 
L 69.27901 121.442034 
L 69.317636 121.258983 
L 69.353686 121.258983 
L 69.477287 121.149153 
L 69.487587 121.075932 
L 69.569988 121.258983 
L 69.582863 121.185763 
L 69.585438 121.258983 
L 69.654964 121.039322 
L 69.691014 121.112542 
L 69.78114 120.929492 
L 69.809465 120.966102 
L 69.912466 121.075932 
L 69.82234 120.892881 
L 69.922766 121.002712 
L 70.030917 121.112542 
L 70.103017 121.185763 
L 70.082417 121.039322 
L 70.141643 121.112542 
L 70.249793 120.966102 
L 70.231768 121.149153 
L 70.260094 121.002712 
L 70.314169 121.075932 
L 70.355369 121.149153 
L 70.393995 121.039322 
L 70.42232 121.075932 
L 70.520171 120.892881 
L 70.543346 120.929492 
L 70.574246 121.002712 
L 70.633472 120.783051 
L 70.641197 120.783051 
L 70.718447 120.6 
L 70.751923 120.746441 
L 70.857498 120.783051 
L 70.839473 120.67322 
L 70.862648 120.746441 
L 70.99655 120.856271 
L 71.066075 120.929492 
L 71.050625 120.746441 
L 71.10985 120.892881 
L 71.153626 120.819661 
L 71.269502 120.63661 
L 71.547604 120.709831 
L 71.64288 120.819661 
L 71.560479 120.67322 
L 71.655755 120.709831 
L 71.66348 120.783051 
L 71.776781 120.52678 
L 71.830856 120.490169 
L 71.895232 120.67322 
L 72.000808 120.56339 
L 72.003383 120.709831 
L 72.005958 120.67322 
L 72.016258 120.709831 
L 72.101234 120.490169 
L 72.103809 120.490169 
L 72.168184 120.380339 
L 72.276335 120.233898 
L 72.28406 120.270508 
L 72.286635 120.343729 
L 72.381911 120.050847 
L 72.392211 120.197288 
L 72.433411 120.124068 
L 72.461737 120.343729 
L 72.500362 120.233898 
L 72.580188 120.416949 
L 72.613663 120.307119 
L 72.678038 120.380339 
L 72.631688 120.233898 
L 72.724389 120.307119 
L 72.783614 120.416949 
L 72.835115 120.453559 
L 72.811939 120.307119 
L 72.886615 120.380339 
L 72.93554 120.307119 
L 72.90979 120.453559 
L 72.994766 120.380339 
L 73.084892 120.52678 
L 73.105492 120.416949 
L 73.370719 120.380339 
L 73.411919 120.453559 
L 73.48402 120.270508 
L 73.563846 120.343729 
L 73.49432 120.233898 
L 73.594746 120.307119 
L 73.671997 120.233898 
L 73.630796 120.380339 
L 73.708047 120.270508 
L 73.733797 120.380339 
L 73.720922 120.233898 
L 73.818773 120.270508 
L 73.926924 120.197288 
L 73.932074 120.233898 
L 74.086575 120.160678 
L 74.148375 120.087458 
L 74.179276 120.270508 
L 74.194726 120.233898 
L 74.284852 120.160678 
L 74.308027 120.087458 
L 74.344077 120.233898 
L 74.395577 120.124068 
L 74.470253 120.197288 
L 74.465103 120.050847 
L 74.503728 120.087458 
L 74.614454 119.867797 
L 74.511453 120.124068 
L 74.624754 119.941017 
L 74.748355 119.831186 
L 74.859081 119.721356 
L 74.758655 119.904407 
L 74.864231 119.757966 
L 74.874531 119.684746 
L 74.969807 119.831186 
L 74.972382 119.684746 
L 75.057358 119.904407 
L 75.080533 119.721356 
L 75.134609 119.794576 
L 75.139759 119.648136 
L 75.191259 119.721356 
L 75.31486 119.831186 
L 75.33546 119.794576 
L 75.438461 120.050847 
L 75.479661 119.977627 
L 75.523437 120.160678 
L 75.546612 120.124068 
L 75.549187 120.160678 
L 75.608412 119.941017 
L 75.639313 119.977627 
L 75.752614 119.831186 
L 75.798964 119.904407 
L 75.770639 119.757966 
L 75.858189 119.794576 
L 75.963765 119.538305 
L 75.974065 119.611525 
L 76.025566 119.538305 
L 76.097666 119.245424 
L 76.141442 119.318644 
L 76.195517 119.355254 
L 76.228993 119.208814 
L 76.247018 119.282034 
L 76.277918 119.208814 
L 76.344868 119.391864 
L 76.350019 119.391864 
L 76.450444 119.501695 
L 76.460744 119.391864 
L 76.57147 119.465085 
L 76.574045 119.538305 
L 76.604946 119.355254 
L 76.679621 119.391864 
L 76.805797 119.282034 
L 76.834122 119.245424 
L 76.872748 119.391864 
L 76.906223 119.391864 
L 76.957723 119.538305 
L 77.009224 119.355254 
L 77.019524 119.428475 
L 77.078749 119.538305 
L 77.1972 119.831186 
L 77.204926 119.794576 
L 77.235826 119.867797 
L 77.315651 119.721356 
L 77.380027 119.757966 
L 77.364577 119.648136 
L 77.426377 119.721356 
L 77.526803 119.611525 
L 77.503628 119.757966 
L 77.537103 119.684746 
L 77.606629 119.611525 
L 77.647829 119.757966 
L 77.71993 119.501695 
L 77.76113 119.648136 
L 77.853831 119.721356 
L 77.768855 119.611525 
L 77.869281 119.684746 
L 77.951682 119.538305 
L 77.982582 119.611525 
L 78.049532 119.501695 
L 78.052107 119.465085 
L 78.134508 119.684746 
L 78.152533 119.574915 
L 78.193734 119.684746 
L 78.224634 119.501695 
L 78.263259 119.574915 
L 78.404885 119.465085 
L 78.507886 119.282034 
L 78.410035 119.501695 
L 78.523336 119.355254 
L 78.675263 119.428475 
L 78.724188 119.501695 
L 78.716463 119.391864 
L 78.785989 119.428475 
L 78.937915 119.318644 
L 78.943065 119.282034 
L 79.010015 119.501695 
L 79.038341 119.465085 
L 79.326743 119.355254 
L 79.342193 119.391864 
L 79.455494 119.062373 
L 79.476094 119.172203 
L 79.496694 119.025763 
L 79.568795 119.098983 
L 79.59712 118.952542 
L 79.648621 119.135593 
L 79.682096 119.062373 
L 79.692396 119.135593 
L 79.749046 118.952542 
L 79.792822 119.062373 
L 80.042599 118.989153 
L 80.106974 118.842712 
L 80.076074 119.025763 
L 80.1559 118.879322 
L 80.189375 119.025763 
L 80.225425 118.806102 
L 80.261476 118.806102 
L 80.320701 118.696271 
L 80.413402 118.549831 
L 80.434002 118.659661 
L 80.562753 118.549831 
L 80.624554 118.51322 
L 80.580778 118.659661 
L 80.665754 118.549831 
L 80.668329 118.696271 
L 80.696654 118.51322 
L 80.77648 118.549831 
L 80.851155 118.44 
L 80.889781 118.51322 
L 81.178183 118.623051 
L 81.239984 118.659661 
L 81.270884 118.47661 
L 81.286334 118.586441 
L 81.718938 118.47661 
L 81.773013 118.293559 
L 81.834814 118.330169 
L 81.906914 118.36678 
L 81.909489 118.47661 
L 81.99704 118.256949 
L 82.015065 118.293559 
L 82.05369 118.220339 
L 82.164416 118.073898 
L 82.166991 118.110508 
L 82.208192 118.037288 
L 82.316342 117.781017 
L 82.326643 117.817627 
L 82.396168 117.744407 
L 82.342093 117.890847 
L 82.437368 117.817627 
L 82.463119 117.927458 
L 82.573845 118.000678 
L 82.501744 117.817627 
L 82.57642 117.964068 
L 82.645945 117.890847 
L 82.712896 117.671186 
L 82.718046 119.318644 
L 82.972973 137.770169 
L 83.433902 152.743729 
L 84.203833 162.115932 
L 84.221858 162.225763 
L 84.358334 162.994576 
L 84.384084 163.104407 
L 84.556611 163.983051 
L 84.559186 163.909831 
L 84.646737 164.349153 
L 84.654462 164.349153 
L 84.711112 164.422373 
L 84.832138 164.715254 
L 84.855313 164.825085 
L 84.966039 165.117966 
L 84.981489 165.081356 
L 84.996939 165.044746 
L 85.066465 165.337627 
L 85.076765 165.264407 
L 85.182341 165.447458 
L 85.107665 165.191186 
L 85.192641 165.410847 
L 85.275042 165.301017 
L 85.238991 165.484068 
L 85.305942 165.374237 
L 85.311092 165.337627 
L 85.432118 165.593898 
L 85.517094 165.630508 
L 85.630395 165.850169 
L 85.66902 165.740339 
L 85.723095 165.88678 
L 85.738546 165.88678 
L 86.160849 165.813559 
L 86.276725 165.630508 
L 86.30505 165.667119 
L 86.333375 165.520678 
L 86.379726 165.557288 
L 86.477577 165.337627 
L 86.500752 165.374237 
L 86.588303 165.520678 
L 86.539377 165.301017 
L 86.616628 165.447458 
L 86.693878 165.337627 
L 86.696453 165.301017 
L 86.776279 165.520678 
L 86.791729 165.484068 
L 86.86898 165.447458 
L 86.91018 165.593898 
L 87.103307 165.484068 
L 87.216608 165.337627 
L 87.116182 165.520678 
L 87.219183 165.374237 
L 87.270683 165.520678 
L 87.329909 165.374237 
L 87.407159 165.520678 
L 87.430334 165.337627 
L 87.445785 165.447458 
L 87.842338 165.337627 
L 87.886113 165.044746 
L 87.965939 165.117966 
L 88.071515 165.191186 
L 87.981389 165.081356 
L 88.07409 165.081356 
L 88.331592 165.008136 
L 88.444893 164.751864 
L 88.359917 165.044746 
L 88.447468 164.825085 
L 88.457768 164.861695 
L 88.501543 164.642034 
L 88.547894 164.715254 
L 88.671495 164.385763 
L 88.676645 164.422373 
L 88.681795 164.458983 
L 88.753895 164.239322 
L 88.782221 164.349153 
L 88.921272 163.909831 
L 88.949597 164.019661 
L 89.026848 163.87322 
L 89.029423 163.909831 
L 89.153024 163.653559 
L 89.155599 163.690169 
L 89.196799 163.580339 
L 89.297225 163.433898 
L 89.201949 163.653559 
L 89.312675 163.507119 
L 89.34615 163.433898 
L 89.464601 163.104407 
L 89.467176 163.141017 
L 89.510952 163.177627 
L 89.559877 162.884746 
L 89.562452 162.921356 
L 89.611377 162.811525 
L 89.621677 162.848136 
L 89.750429 162.372203 
L 89.760729 162.445424 
L 89.850854 162.152542 
L 89.853429 162.189153 
L 89.97188 161.932881 
L 89.858579 162.225763 
L 89.979605 161.969492 
L 90.025956 162.006102 
L 90.059431 161.71322 
L 90.074881 161.823051 
L 90.177882 161.71322 
L 90.113507 161.859661 
L 90.188182 161.749831 
L 90.231957 161.67661 
L 90.350408 161.273898 
L 90.355558 161.310508 
L 90.461134 160.907797 
L 90.48946 160.944407 
L 90.49976 161.017627 
L 90.57701 160.614915 
L 90.58731 160.651525 
L 90.723787 160.285424 
L 90.759837 160.175593 
L 90.893738 159.846102 
L 90.896313 159.882712 
L 90.947813 159.48 
L 90.976139 159.48 
L 91.12034 158.528136 
L 91.128065 158.637966 
L 91.213041 158.088814 
L 91.218191 158.088814 
L 91.344367 157.612881 
L 91.367542 157.503051 
L 91.390717 157.32 
L 91.480843 157.39322 
L 91.697145 157.32 
L 91.789845 157.136949 
L 91.748645 157.35661 
L 91.810445 157.210169 
L 91.944347 156.844068 
L 92.029322 156.917288 
L 92.037047 156.770847 
L 92.055072 156.844068 
L 92.170948 156.477966 
L 92.176098 156.514576 
L 92.204424 156.551186 
L 92.255924 156.331525 
L 92.273949 156.404746 
L 92.38725 156.111864 
L 92.389825 156.148475 
L 92.3924 156.185085 
L 92.474801 155.928814 
L 92.482526 155.928814 
L 92.492826 155.965424 
L 92.606127 155.745763 
L 92.608702 155.782373 
L 92.660202 155.562712 
L 92.703978 155.599322 
L 92.832729 155.269831 
L 92.835304 155.306441 
L 92.868779 155.19661 
L 92.873929 155.269831 
L 92.994955 154.976949 
L 93.087656 154.867119 
L 93.095381 154.903729 
L 93.226707 154.464407 
L 93.340008 154.354576 
L 93.458459 154.061695 
L 93.345158 154.391186 
L 93.468759 154.098305 
L 93.471334 154.134915 
L 93.56661 153.915254 
L 93.59751 153.805424 
L 93.733986 153.366102 
L 93.736561 153.402712 
L 93.782912 153.292881 
L 93.893638 153 
L 93.909088 153.07322 
L 93.958013 152.96339 
L 94.079039 152.597288 
L 94.091914 152.633898 
L 94.115089 152.597288 
L 94.230965 152.121356 
L 94.236115 152.157966 
L 94.349416 151.828475 
L 94.24899 152.194576 
L 94.362291 151.938305 
L 94.375166 151.828475 
L 94.400917 151.865085 
L 94.511643 151.462373 
L 94.514218 151.535593 
L 94.604343 151.169492 
L 94.612068 151.169492 
L 94.650694 151.059661 
L 94.753695 150.730169 
L 94.77687 150.80339 
L 94.784595 150.84 
L 94.861845 150.547119 
L 94.869571 150.583729 
L 94.985446 150.254237 
L 94.990597 150.290847 
L 95.052397 150.181017 
L 95.160548 150.034576 
L 95.165698 150.107797 
L 95.297024 149.741695 
L 95.299599 149.778305 
L 95.3614 149.668475 
L 95.492726 149.302373 
L 95.369125 149.705085 
L 95.495301 149.338983 
L 95.526201 149.229153 
L 95.621477 148.936271 
L 95.531351 149.265763 
L 95.649802 149.009492 
L 95.652377 149.046102 
L 95.724478 148.789831 
L 95.750228 148.863051 
L 95.786278 148.826441 
L 95.899579 148.460339 
L 95.902154 148.533559 
L 95.940779 148.423729 
L 96.07983 148.021017 
L 96.118456 147.947797 
L 96.229182 147.545085 
L 96.242057 147.581695 
L 96.370808 147.252203 
L 96.257507 147.618305 
L 96.373383 147.288814 
L 96.422308 147.178983 
L 96.551059 146.886102 
L 96.569085 146.922712 
L 96.64376 146.703051 
L 96.651485 146.812881 
L 96.769936 146.55661 
L 96.780236 146.59322 
L 96.857487 146.336949 
L 96.870362 146.410169 
L 96.885812 146.44678 
L 96.996538 146.153898 
L 96.999113 146.227119 
L 97.084089 145.897627 
L 97.099539 145.970847 
L 97.236015 145.092203 
L 97.23859 145.128814 
L 97.282365 145.055593 
L 97.413691 144.469831 
L 97.457467 144.36 
L 97.586218 143.847458 
L 97.599093 143.920678 
L 97.758744 143.847458 
L 97.877195 143.627797 
L 97.902945 143.664407 
L 97.962171 143.371525 
L 97.977621 143.481356 
L 98.119247 142.968814 
L 98.134697 143.042034 
L 98.199073 142.822373 
L 98.224823 142.822373 
L 98.255723 142.712542 
L 98.389624 142.309831 
L 98.392199 142.346441 
L 98.415375 142.23661 
L 98.536401 141.980339 
L 98.538976 142.016949 
L 98.564726 142.053559 
L 98.621376 141.797288 
L 98.636826 141.833898 
L 98.678027 141.760678 
L 98.688327 141.797288 
L 98.793903 141.504407 
L 98.801628 141.577627 
L 98.889179 141.321356 
L 98.896904 141.357966 
L 99.02823 141.065085 
L 99.10033 140.955254 
L 99.211056 140.589153 
L 99.221356 140.625763 
L 99.226506 140.662373 
L 99.280582 140.332881 
L 99.316632 140.442712 
L 99.445383 140.00339 
L 99.453108 140.04 
L 99.473708 140.07661 
L 99.535509 139.820339 
L 99.553534 139.893559 
L 99.69001 139.417627 
L 99.69516 139.527458 
L 99.790436 139.197966 
L 99.795586 139.197966 
L 99.919187 138.795254 
L 99.929487 138.868475 
L 99.957812 138.758644 
L 100.089138 138.355932 
L 100.091713 138.392542 
L 100.094288 138.465763 
L 100.184414 138.172881 
L 100.194714 138.172881 
L 100.230765 138.099661 
L 100.23849 138.136271 
L 100.356941 137.623729 
L 100.367241 137.733559 
L 100.447066 137.440678 
L 100.452216 137.477288 
L 100.465091 137.513898 
L 100.570667 137.221017 
L 100.622168 137.111186 
L 100.627318 137.184407 
L 100.750919 136.781695 
L 100.771519 136.891525 
L 100.84362 136.635254 
L 100.856495 136.671864 
L 100.992971 136.269153 
L 100.995546 136.305763 
L 101.075371 136.049492 
L 101.090822 136.086102 
L 101.214423 135.610169 
L 101.216998 135.64678 
L 101.294248 135.573559 
L 101.415274 135.280678 
L 101.482225 135.170847 
L 101.623851 134.621695 
L 101.629001 134.658305 
L 101.665051 134.658305 
L 101.783502 134.182373 
L 101.801527 134.218983 
L 101.842728 133.926102 
L 101.873628 133.962712 
L 101.989504 133.63322 
L 101.994654 133.669831 
L 102.123405 133.340339 
L 101.999804 133.706441 
L 102.12598 133.376949 
L 102.174906 133.303729 
L 102.277906 133.047458 
L 102.293356 133.084068 
L 102.295932 133.157288 
L 102.386057 132.864407 
L 102.396357 132.864407 
L 102.460733 132.754576 
L 102.471033 132.791186 
L 102.586909 132.534915 
L 102.651284 132.425085 
L 102.790336 132.022373 
L 102.821236 131.912542 
L 102.836686 131.949153 
L 102.955137 131.546441 
L 102.957712 131.583051 
L 103.037538 131.253559 
L 103.047838 131.290169 
L 103.094188 131.180339 
L 103.099338 131.216949 
L 103.230664 130.814237 
L 103.264139 130.704407 
L 103.413491 130.155254 
L 103.441816 130.045424 
L 103.596317 129.423051 
L 103.606617 129.459661 
L 103.676143 129.24 
L 103.694168 129.24 
L 103.719918 129.20339 
L 103.835794 128.654237 
L 103.840944 128.690847 
L 103.887295 128.581017 
L 103.892445 128.654237 
L 104.028921 128.105085 
L 104.034071 128.178305 
L 104.108746 127.738983 
L 104.116471 127.775593 
L 104.258098 127.336271 
L 104.263248 127.372881 
L 104.343073 126.970169 
L 104.345648 127.00678 
L 104.386849 126.933559 
L 104.5053 126.530847 
L 104.523325 126.421017 
L 104.677826 125.762034 
L 104.690701 125.835254 
L 104.752502 125.432542 
L 104.762802 125.432542 
L 104.883828 125.139661 
L 104.888978 125.176271 
L 104.891553 125.212881 
L 104.943053 124.95661 
L 104.986829 125.029831 
L 105.13618 124.444068 
L 105.138755 124.480678 
L 105.21343 124.224407 
L 105.231456 124.224407 
L 105.259781 124.114576 
L 105.393682 123.748475 
L 105.427157 123.821695 
L 105.452907 123.675254 
L 105.501833 123.711864 
L 105.540458 123.748475 
L 105.628009 123.492203 
L 105.633159 123.528814 
L 105.72071 123.272542 
L 105.72586 123.309153 
L 105.733585 123.309153 
L 105.852036 122.76 
L 105.877786 122.869831 
L 105.949887 122.613559 
L 105.957612 122.613559 
L 105.993662 122.503729 
L 106.019412 122.540339 
L 106.117263 122.284068 
L 106.161038 122.357288 
L 106.202239 122.137627 
L 106.225414 122.210847 
L 106.269189 122.101017 
L 106.400515 121.698305 
L 106.405665 121.734915 
L 106.436566 121.661695 
L 106.555016 121.405424 
L 106.588492 121.295593 
L 106.732693 120.819661 
L 106.742993 120.892881 
L 106.822819 120.63661 
L 106.835694 120.67322 
L 106.95157 120.380339 
L 106.954145 120.453559 
L 107.090621 120.014237 
L 107.093196 120.050847 
L 107.100921 120.087458 
L 107.173022 119.794576 
L 107.188472 119.904407 
L 107.306923 119.465085 
L 107.322373 119.501695 
L 107.386748 119.245424 
L 107.402198 119.245424 
L 107.54125 118.842712 
L 107.567 118.769492 
L 107.693176 118.256949 
L 107.695751 118.330169 
L 107.783302 117.854237 
L 107.788452 117.854237 
L 107.847677 117.781017 
L 107.976428 117.231864 
L 108.004753 117.122034 
L 108.094879 116.865763 
L 108.125779 116.938983 
L 108.133504 116.975593 
L 108.179855 116.829153 
L 108.231355 116.902373 
L 108.357531 116.646102 
L 108.383281 116.682712 
L 108.427057 116.499661 
L 108.460532 116.572881 
L 108.591858 116.28 
L 108.671684 116.20678 
L 108.79271 115.767458 
L 108.795285 115.804068 
L 108.84936 115.694237 
L 108.857085 115.730847 
L 108.970386 115.511186 
L 108.985836 115.621017 
L 109.057937 115.218305 
L 109.063087 115.291525 
L 109.196988 114.632542 
L 109.202138 114.559322 
L 109.323164 112.875254 
L 109.341189 112.948475 
L 109.426165 112.618983 
L 109.467365 112.692203 
L 109.495691 112.838644 
L 109.570366 112.618983 
L 109.670792 112.509153 
L 109.593541 112.692203 
L 109.686242 112.545763 
L 109.758343 112.472542 
L 109.827868 112.326102 
L 109.825293 112.509153 
L 109.871644 112.362712 
L 110.020995 112.252881 
L 110.07507 112.03322 
L 110.134296 112.216271 
L 110.154896 112.252881 
L 110.190946 111.88678 
L 110.224422 111.92339 
L 110.353173 111.337627 
L 110.363473 111.374237 
L 110.422698 111.117966 
L 110.448448 111.117966 
L 110.487074 111.008136 
L 110.543724 111.264407 
L 110.554024 111.191186 
L 110.600375 111.264407 
L 110.651875 111.008136 
L 110.657025 111.154576 
L 110.775476 110.788475 
L 110.927402 110.092881 
L 110.929977 110.166102 
L 110.948003 110.092881 
L 111.027828 110.166102 
L 111.061303 109.983051 
L 111.105079 110.056271 
L 111.146279 109.8 
L 111.156579 109.8 
L 111.277605 109.616949 
L 111.282755 109.653559 
L 111.370306 109.360678 
L 111.406356 109.250847 
L 111.522232 108.921356 
L 111.527382 108.957966 
L 111.584033 109.031186 
L 111.617508 108.811525 
L 111.627808 108.811525 
L 111.692184 108.665085 
L 111.640683 108.848136 
L 111.743684 108.701695 
L 111.790034 108.738305 
L 111.83381 108.518644 
L 111.836385 108.518644 
L 111.965136 105.736271 
L 111.990886 16.077966 
L 112.070712 112.802034 
L 112.207188 114.266441 
L 112.212338 114.339661 
L 112.351389 115.657627 
L 112.366839 115.621017 
L 112.400314 115.730847 
L 112.518765 115.950508 
L 112.629491 115.767458 
L 112.632066 115.804068 
L 112.688717 115.694237 
L 112.807168 115.401356 
L 112.812318 115.437966 
L 112.879268 114.925424 
L 112.881843 114.925424 
L 113.072395 113.680678 
L 113.077545 113.717288 
L 113.087845 113.644068 
L 113.247496 112.216271 
L 113.278397 112.143051 
L 113.417448 111.337627 
L 113.420023 111.374237 
L 113.497273 110.934915 
L 113.672375 109.983051 
L 113.67495 110.019661 
L 113.7419 109.470508 
L 113.749626 109.507119 
L 113.883527 108.811525 
L 113.919577 108.701695 
L 114.086953 107.896271 
L 114.097253 107.786441 
L 114.200254 107.090847 
L 114.226004 107.237288 
L 114.241455 107.164068 
L 114.385656 106.175593 
L 114.403681 106.102373 
L 114.493807 105.809492 
L 114.519557 105.955932 
L 114.529857 106.029153 
L 114.653458 105.626441 
L 114.777059 105.589831 
L 114.89551 104.821017 
L 114.903235 104.857627 
L 114.918685 104.894237 
L 114.970186 104.674576 
L 115.003661 104.711186 
L 115.016536 104.784407 
L 115.062886 105.077288 
L 115.119537 104.674576 
L 115.122112 104.711186 
L 115.258588 104.345085 
L 115.261163 104.418305 
L 115.335839 103.466441 
L 115.338414 103.539661 
L 115.407939 103.759322 
L 115.456865 103.429831 
L 115.46459 103.503051 
L 115.51609 102.734237 
L 115.518665 102.734237 
L 115.54699 98.304407 
L 115.570166 15.821695 
L 115.652566 110.788475 
L 115.791617 112.985085 
L 115.794192 112.875254 
L 115.876593 113.387797 
L 115.892043 113.351186 
L 115.920368 113.461017 
L 116.025944 113.607458 
L 116.038819 113.570847 
L 116.087745 113.497627 
L 116.216496 112.911864 
L 116.229371 112.985085 
L 116.309197 112.435932 
L 116.466273 111.117966 
L 116.473998 111.154576 
L 116.528073 110.458983 
L 116.849951 107.420339 
L 116.852526 107.456949 
L 116.922052 106.871186 
L 116.937502 106.761356 
L 117.032778 103.28339 
L 117.058528 14.979661 
L 117.138353 110.349153 
L 117.33148 113.973559 
L 117.334055 113.936949 
L 117.408731 114.412881 
L 117.413881 114.376271 
L 117.506581 114.632542 
L 117.532332 114.559322 
L 117.661083 114.010169 
L 117.676533 113.936949 
L 117.820734 112.875254 
L 117.823309 112.911864 
L 118.212137 106.834576 
L 118.240462 14.979661 
L 118.317713 110.166102 
L 118.467064 113.570847 
L 118.655041 114.669153 
L 118.683366 114.559322 
L 118.806967 114.12 
L 118.817267 114.19322 
L 118.819842 114.266441 
L 118.904818 113.790508 
L 118.915118 113.827119 
L 119.15202 112.03322 
L 119.154595 112.069831 
L 119.216395 111.374237 
L 119.615524 104.381695 
L 119.641274 15.345763 
L 119.7211 109.72678 
L 119.870451 113.021695 
L 119.873026 112.985085 
L 119.942551 113.497627 
L 119.947701 113.497627 
L 119.976027 113.570847 
L 120.030102 113.790508 
L 120.089328 113.644068 
L 120.112503 113.680678 
L 120.174303 113.387797 
L 120.182028 113.387797 
L 120.380305 112.143051 
L 120.395755 112.069831 
L 120.560556 110.532203 
L 120.761408 107.237288 
L 120.779433 50.894237 
L 120.789733 15.492203 
L 120.879859 110.166102 
L 121.075561 113.827119 
L 121.098736 113.936949 
L 121.232637 114.266441 
L 121.343363 113.936949 
L 121.353663 113.973559 
L 121.361388 114.010169 
L 121.63434 111.520678 
L 121.636915 111.557288 
L 121.706441 110.971525 
L 121.850642 109.507119 
L 121.871242 109.433898 
L 122.025744 107.932881 
L 122.033469 107.969492 
L 122.079819 106.138983 
L 122.108144 15.126102 
L 122.18797 109.543729 
L 122.337321 112.399322 
L 122.355346 112.472542 
L 122.489247 113.314576 
L 122.491822 113.241356 
L 122.540748 113.314576 
L 122.543323 113.387797 
L 122.633448 113.168136 
L 122.646324 113.168136 
L 122.654049 113.204746 
L 122.700399 112.838644 
L 122.733874 112.911864 
L 122.86005 112.143051 
L 122.87035 112.179661 
L 123.261754 108.189153 
L 123.279779 108.115932 
L 123.42913 106.907797 
L 123.431705 106.944407 
L 123.627407 105.736271 
L 123.648007 105.626441 
L 123.799933 104.454915 
L 123.954434 102.111864 
L 123.975035 30.978305 
L 123.98276 15.565424 
L 124.062585 108.555254 
L 124.196486 111.557288 
L 124.199061 111.484068 
L 124.266012 111.96 
L 124.291762 111.88678 
L 124.327812 112.143051 
L 124.402488 111.96 
L 124.420513 112.03322 
L 124.567289 111.154576 
L 124.569864 111.191186 
L 124.636815 110.605424 
L 124.641965 110.642034 
L 124.914917 105.846102 
L 124.943242 14.869831 
L 125.023068 108.189153 
L 125.167269 112.03322 
L 125.319196 112.655593 
L 125.347521 112.765424 
L 125.432496 112.509153 
L 125.437647 112.582373 
L 125.507172 112.069831 
L 125.514897 112.106441 
L 125.924326 107.859661 
L 125.926901 107.896271 
L 126.009301 107.530169 
L 126.269378 102.734237 
L 126.295129 15.309153 
L 126.374954 107.383729 
L 126.50628 110.861695 
L 126.508855 110.825085 
L 126.632456 111.557288 
L 126.642756 111.447458 
L 126.671082 111.630508 
L 126.743182 111.484068 
L 126.761207 111.374237 
L 126.882233 110.751864 
L 126.889958 110.788475 
L 126.892533 110.825085 
L 126.954334 110.275932 
L 126.959484 110.275932 
L 127.12686 108.628475 
L 127.134585 108.591864 
L 127.247886 99.805424 
L 127.273637 15.418983 
L 127.353462 107.969492 
L 127.500238 111.593898 
L 127.65474 112.985085 
L 127.657315 112.948475 
L 127.703665 112.875254 
L 127.840141 112.143051 
L 127.845291 112.179661 
L 127.907092 111.593898 
L 127.912242 111.630508 
L 128.25987 105.296949 
L 128.288195 15.235932 
L 128.368021 107.493559 
L 128.501922 110.898305 
L 128.643548 111.776949 
L 128.836674 111.667119 
L 129.065851 109.983051 
L 129.071001 109.909831 
L 129.207477 108.774915 
L 129.408329 104.930847 
L 129.436654 14.79661 
L 129.51648 107.090847 
L 129.658106 110.825085 
L 129.660681 110.788475 
L 129.725057 111.374237 
L 129.730207 111.337627 
L 129.820332 111.740339 
L 129.861533 111.630508 
L 129.889858 111.557288 
L 130.026334 110.788475 
L 130.028909 110.861695 
L 130.11131 110.166102 
L 130.113885 110.202712 
L 130.260661 109.104407 
L 130.263236 109.177627 
L 130.350787 108.701695 
L 130.358512 108.774915 
L 130.363662 108.701695 
L 130.482113 101.12339 
L 130.507863 14.906441 
L 130.590264 107.237288 
L 130.724165 110.568814 
L 130.850341 111.301017 
L 130.881241 111.227797 
L 130.966217 111.117966 
L 130.986817 111.191186 
L 131.154193 110.019661 
L 131.156768 110.056271 
L 131.226294 109.653559 
L 131.236594 109.653559 
L 131.36277 108.957966 
L 131.36792 108.994576 
L 131.38337 109.031186 
L 131.442596 108.628475 
L 131.452896 108.628475 
L 131.589372 105.223729 
L 131.617697 15.235932 
L 131.697523 106.797966 
L 131.831424 110.495593 
L 131.97305 111.374237 
L 132.006525 111.410847 
L 132.058026 111.191186 
L 132.070901 111.191186 
L 132.323253 109.177627 
L 132.330978 109.141017 
L 132.467454 108.006102 
L 132.477754 108.079322 
L 132.560155 107.530169 
L 132.56788 107.493559 
L 132.706931 105.882712 
L 132.724956 102.258305 
L 132.753282 15.052881 
L 132.833107 106.907797 
L 132.964433 109.507119 
L 132.967008 109.470508 
L 133.039109 110.019661 
L 133.070009 110.092881 
L 133.095759 110.275932 
L 133.165285 109.983051 
L 133.17816 110.019661 
L 133.191035 110.056271 
L 133.319786 109.543729 
L 133.322361 109.580339 
L 133.394462 109.141017 
L 133.402187 109.177627 
L 133.518063 106.578305 
L 133.548963 15.126102 
L 133.628789 106.138983 
L 133.76269 109.946441 
L 133.899166 110.751864 
L 133.904316 110.642034 
L 133.932641 110.861695 
L 134.007317 110.751864 
L 134.009892 110.825085 
L 134.092293 110.312542 
L 134.102593 110.312542 
L 134.344645 108.372203 
L 134.34722 108.482034 
L 134.42962 107.493559 
L 134.432195 107.493559 
L 134.475971 104.015593 
L 134.504296 15.126102 
L 134.584122 105.919322 
L 134.710298 109.72678 
L 134.715448 109.690169 
L 134.730898 109.8 
L 134.823599 110.275932 
L 134.854499 110.166102 
L 134.895699 110.056271 
L 135.042475 109.470508 
L 134.903424 110.129492 
L 135.04505 109.507119 
L 135.068226 109.397288 
L 135.212427 108.445424 
L 135.238177 108.335593 
L 135.418428 104.601356 
L 135.446754 15.455593 
L 135.526579 105.48 
L 135.668206 109.946441 
L 135.688806 109.909831 
L 135.745456 110.275932 
L 135.755756 110.275932 
L 135.768631 110.349153 
L 135.830432 109.8 
L 135.992658 109.031186 
L 136.002958 109.067797 
L 136.062184 108.555254 
L 136.067334 108.555254 
L 136.311961 106.651525 
L 136.317111 106.724746 
L 136.386636 106.138983 
L 136.422687 104.674576 
L 136.453587 14.76 
L 136.530838 105.260339 
L 136.654439 109.141017 
L 136.664739 109.031186 
L 136.760014 109.543729 
L 136.78834 109.397288 
L 136.81924 109.580339 
L 136.886191 109.287458 
L 136.891341 109.324068 
L 136.906791 109.360678 
L 137.012367 109.031186 
L 137.017517 109.067797 
L 137.244118 107.310508 
L 137.259569 107.237288 
L 137.416645 105.919322 
L 137.493895 104.015593 
L 137.524796 15.052881 
L 137.602046 105.260339 
L 137.725647 108.628475 
L 137.730797 108.591864 
L 137.743673 108.518644 
L 137.808048 108.957966 
L 137.815773 108.957966 
L 137.844098 109.067797 
L 137.903324 108.811525 
L 137.921349 108.884746 
L 138.05525 108.225763 
L 138.081 108.152542 
L 138.214901 107.347119 
L 138.217476 107.383729 
L 138.232927 107.310508 
L 138.384853 106.102373 
L 138.390003 106.065763 
L 138.444078 100.391186 
L 138.472404 15.235932 
L 138.552229 105.44339 
L 138.69128 109.067797 
L 138.70158 109.031186 
L 138.781406 109.360678 
L 138.783981 109.324068 
L 138.905007 109.250847 
L 139.051783 108.079322 
L 139.054358 108.115932 
L 139.069808 108.006102 
L 139.201135 107.090847 
L 139.24491 106.981017 
L 139.412286 99.292881 
L 139.438036 15.492203 
L 139.520437 105.260339 
L 139.638888 108.482034 
L 139.651763 108.445424 
L 139.772789 108.738305 
L 139.81914 108.628475 
L 139.978791 107.932881 
L 139.981366 108.006102 
L 140.058617 107.237288 
L 140.063767 107.237288 
L 140.081792 107.127458 
L 140.259468 106.102373 
L 140.099817 107.200678 
L 140.262043 106.138983 
L 140.272343 106.029153 
L 140.344444 104.454915 
L 140.367619 31.710508 
L 140.377919 15.382373 
L 140.45517 104.930847 
L 140.583921 108.591864 
L 140.604521 108.665085 
L 140.699797 108.408814 
L 140.712672 108.445424 
L 140.789923 108.152542 
L 140.928974 107.310508 
L 140.931549 107.347119 
L 140.993349 106.761356 
L 140.998499 106.761356 
L 141.13755 105.260339 
L 141.1427 105.296949 
L 141.150426 105.187119 
L 141.178751 101.379661 
L 141.207076 15.345763 
L 141.286902 103.905763 
L 141.418228 108.042712 
L 141.523804 108.701695 
L 141.562429 108.518644 
L 141.588179 108.445424 
L 141.603629 108.482034 
L 141.724655 107.71322 
L 141.73753 107.60339 
L 141.894607 106.834576 
L 141.897182 106.907797 
L 141.899757 106.944407 
L 141.971857 106.541695 
L 141.982157 106.541695 
L 142.054258 103.027119 
L 142.085158 15.675254 
L 142.162409 103.28339 
L 142.29116 108.152542 
L 142.293735 108.079322 
L 142.425061 108.665085 
L 142.540937 108.408814 
L 142.492012 108.701695 
L 142.543512 108.445424 
L 142.553812 108.335593 
L 142.873115 103.942373 
L 142.904015 15.565424 
L 142.983841 103.466441 
L 143.115167 108.079322 
L 143.128042 107.932881 
L 143.215592 108.225763 
L 143.223318 108.189153 
L 143.362369 107.786441 
L 143.388119 107.67661 
L 143.534895 106.614915 
L 143.560645 106.505085 
L 143.720297 99.732203 
L 143.748622 15.821695 
L 143.828448 103.429831 
L 143.959774 107.164068 
L 144.0911 107.530169 
L 144.093675 107.493559 
L 144.1323 107.420339 
L 144.289376 106.102373 
L 144.291951 106.175593 
L 144.340877 104.528136 
L 144.366627 28.488814 
L 144.374352 16.334237 
L 144.449028 101.013559 
L 144.582929 107.310508 
L 144.703955 108.006102 
L 144.734855 107.932881 
L 144.894506 107.200678 
L 144.897081 107.273898 
L 144.979482 106.614915 
L 144.984632 106.614915 
L 144.989782 106.651525 
L 145.126258 104.308475 
L 145.159733 15.821695 
L 145.236984 102.697627 
L 145.36831 107.64 
L 145.396635 107.749831 
L 145.430111 107.932881 
L 145.509936 107.786441 
L 145.551137 107.67661 
L 145.721088 106.761356 
L 145.723663 106.797966 
L 145.739113 106.724746 
L 145.836964 101.562712 
L 145.867864 16.444068 
L 145.945115 102.587797 
L 146.076441 107.237288 
L 146.079016 107.127458 
L 146.202617 107.493559 
L 146.228367 107.420339 
L 146.349393 107.090847 
L 146.354543 107.164068 
L 146.444669 106.688136 
L 146.470419 106.614915 
L 146.59402 102.441356 
L 146.62492 16.407458 
L 146.704746 102.258305 
L 146.838647 106.981017 
L 146.841222 106.944407 
L 146.939073 107.456949 
L 146.980273 107.420339 
L 147.1631 99.366102 
L 147.194 17.249492 
L 147.271251 101.928814 
L 147.407727 107.200678 
L 147.533903 107.71322 
L 147.544203 107.60339 
L 147.551928 107.64 
L 147.739905 104.308475 
L 147.77338 17.359322 
L 147.853206 101.599322 
L 147.984532 106.981017 
L 148.110708 107.56678 
L 148.113283 107.493559 
L 148.154483 107.383729 
L 148.35791 104.601356 
L 148.39396 17.139661 
L 148.471211 100.867119 
L 148.602537 106.871186 
L 148.605112 106.834576 
L 148.728713 107.420339 
L 148.744163 107.310508 
L 148.908964 106.541695 
L 148.919264 106.468475 
L 148.97849 102.111864 
L 149.00939 17.249492 
L 149.089216 101.489492 
L 149.217967 106.688136 
L 149.220542 106.651525 
L 149.287492 106.871186 
L 149.333843 106.724746 
L 149.336418 106.761356 
L 149.416243 106.395254 
L 149.418818 106.395254 
L 149.539844 104.637966 
L 149.575895 17.615593 
L 149.65572 100.537627 
L 149.792196 106.834576 
L 149.910647 107.310508 
L 149.915797 107.237288 
L 149.946698 107.164068 
L 150.098624 105.992542 
L 150.103774 105.919322 
L 150.139824 100.061695 
L 150.170725 17.139661 
L 150.247975 100.720678 
L 150.374151 106.175593 
L 150.379301 106.102373 
L 150.508052 106.834576 
L 150.513202 106.761356 
L 150.515777 106.797966 
L 150.595603 106.358644 
L 150.598178 106.431864 
L 150.721779 104.015593 
L 150.757829 17.615593 
L 150.83508 100.061695 
L 150.968981 106.358644 
L 150.989581 106.431864 
L 151.043657 106.871186 
L 151.108032 106.651525 
L 151.110607 106.688136 
L 151.190433 106.322034 
L 151.195583 106.395254 
L 151.324334 105.882712 
L 151.334634 105.809492 
L 151.49171 98.853559 
L 151.520036 16.92 
L 151.599861 101.16 
L 151.731187 105.882712 
L 151.852213 105.55322 
L 151.875389 105.663051 
L 151.926889 105.223729 
L 151.937189 105.223729 
L 152.156066 101.965424 
L 152.189541 17.505763 
L 152.266792 100.134915 
L 152.395543 105.187119 
L 152.423868 105.077288 
L 152.457343 105.260339 
L 152.508844 105.150508 
L 152.537169 105.040678 
L 152.62472 99.585763 
L 152.658195 18.823729 
L 152.735446 99.146441 
L 152.866772 105.223729 
L 152.892522 105.296949 
L 153.008398 105.51661 
L 153.126849 99.475932 
L 153.160324 19.189831 
L 153.237575 98.377627 
L 153.374051 105.44339 
L 153.399801 105.55322 
L 153.441001 105.772881 
L 153.492502 105.44339 
L 153.507952 105.48 
L 153.513102 105.51661 
L 153.631553 105.260339 
L 153.634128 105.296949 
L 153.698504 104.674576 
L 153.701079 104.674576 
L 153.708804 104.564746 
L 153.726829 103.649492 
L 153.750004 53.164068 
L 153.765454 17.469153 
L 153.85043 100.940339 
L 153.984331 105.223729 
L 154.043556 105.187119 
L 154.061582 105.40678 
L 154.089907 105.296949 
L 154.092482 105.333559 
L 154.162007 104.747797 
L 154.177457 104.674576 
L 154.334534 100.025085 
L 154.368009 18.091525 
L 154.44526 98.560678 
L 154.571436 104.967458 
L 154.579161 104.930847 
L 154.640961 105.260339 
L 154.689887 104.967458 
L 154.798038 104.857627 
L 154.967989 103.173559 
L 154.983439 102.148475 
L 155.019489 17.981695 
L 155.09674 98.670508 
L 155.225491 104.821017 
L 155.228066 104.784407 
L 155.238366 104.894237 
L 155.310467 105.150508 
L 155.258966 104.857627 
L 155.349092 104.967458 
L 155.482993 104.162034 
L 155.485568 104.198644 
L 155.521619 104.088814 
L 155.573119 100.867119 
L 155.606594 18.750508 
L 155.68642 98.157966 
L 155.810021 104.271864 
L 155.817746 104.235254 
L 155.838346 104.454915 
L 155.920747 104.125424 
L 155.923322 104.125424 
L 156.010873 104.015593 
L 156.196274 100.647458 
L 156.232324 18.237966 
L 156.307 97.865085 
L 156.438326 103.978983 
L 156.443476 103.905763 
L 156.494977 104.052203 
L 156.549052 103.942373 
L 156.587677 104.125424 
L 156.641753 103.686102 
L 156.703553 98.890169 
L 156.739604 19.482712 
L 156.814279 96.76678 
L 156.945605 104.235254 
L 156.95848 104.345085 
L 157.030581 103.942373 
L 157.118132 95.778305 
L 157.154182 21.715932 
L 157.228858 95.741695 
L 157.362759 103.722712 
L 157.370484 103.832542 
L 157.463184 104.198644 
L 157.49666 104.052203 
L 157.514685 103.942373 
L 157.612536 99.988475 
L 157.648586 20.324746 
L 157.725837 96.693559 
L 157.857163 104.198644 
L 157.880338 104.271864 
L 157.975614 104.491525 
L 157.993639 104.345085 
L 158.16874 100.317966 
L 158.204791 19.482712 
L 158.282041 97.315932 
L 158.415942 103.759322 
L 158.542118 104.088814 
L 158.544693 104.015593 
L 158.554993 104.052203 
L 158.609069 101.818983 
L 158.650269 20.947119 
L 158.72752 95.412203 
L 158.863996 103.612881 
L 158.951547 104.235254 
L 158.997897 103.942373 
L 159.041672 103.832542 
L 159.082873 101.306441 
L 159.124073 21.16678 
L 159.198749 95.192542 
L 159.33265 103.466441 
L 159.335225 103.429831 
L 159.39445 103.869153 
L 159.41505 103.832542 
L 159.417625 103.869153 
L 159.497451 103.503051 
L 159.502601 103.539661 
L 159.554102 102.185085 
L 159.587577 29.330847 
L 159.595302 21.056949 
L 159.664828 92.55661 
L 159.796154 103.39322 
L 159.803879 103.466441 
L 159.860529 103.832542 
L 159.919755 103.649492 
L 160.061381 101.23322 
L 160.100006 20.288136 
L 160.179832 95.851525 
L 160.313733 103.39322 
L 160.398709 103.722712 
L 160.432184 103.612881 
L 160.535185 100.720678 
L 160.576385 21.349831 
L 160.651061 94.387119 
L 160.787537 103.466441 
L 160.795262 103.539661 
L 160.864787 103.795932 
L 160.898263 103.429831 
L 160.903413 103.466441 
L 160.970363 100.391186 
L 161.011564 22.301695 
L 161.086239 93.581695 
L 161.22014 102.880678 
L 161.23559 102.990508 
L 161.317991 103.32 
L 161.351466 103.173559 
L 161.377217 103.24678 
L 161.464767 100.720678 
L 161.505968 21.20339 
L 161.583218 94.533559 
L 161.719694 103.063729 
L 161.791795 103.136949 
L 161.82012 102.917288 
L 161.843295 102.844068 
L 161.899946 99.878644 
L 161.941146 22.557966 
L 162.015822 93.142373 
L 162.144573 102.734237 
L 162.149723 102.661017 
L 162.180623 102.844068 
L 162.247574 102.477966 
L 162.252724 102.477966 
L 162.35315 99.475932 
L 162.39435 22.008814 
L 162.469026 93.728136 
L 162.595202 102.661017 
L 162.602927 102.624407 
L 162.608077 102.697627 
L 162.695627 102.477966 
L 162.788328 94.68 
L 162.826953 23.729492 
L 162.899054 90.909153 
L 163.03553 101.782373 
L 163.06643 101.892203 
L 163.120506 102.148475 
L 163.164281 101.782373 
L 163.174581 101.855593 
L 163.238957 100.098305 
L 163.285307 22.557966 
L 163.359983 93.105763 
L 163.493884 101.709153 
L 163.57371 102.148475 
L 163.612335 101.818983 
L 163.63036 101.709153 
L 163.730786 99.439322 
L 163.771986 22.411525 
L 163.846662 93.069153 
L 163.970263 101.452881 
L 163.977988 101.306441 
L 164.024338 101.416271 
L 164.047514 100.976949 
L 164.070689 101.050169 
L 164.086139 100.940339 
L 164.135064 98.816949 
L 164.181415 24.937627 
L 164.25609 90.652881 
L 164.389991 101.452881 
L 164.392566 101.416271 
L 164.467242 101.818983 
L 164.472392 101.782373 
L 164.539343 102.002034 
L 164.572818 101.599322 
L 164.575393 101.599322 
L 164.608868 99.695593 
L 164.652643 22.997288 
L 164.727319 92.849492 
L 164.858645 101.306441 
L 164.86122 101.269831 
L 164.874095 101.452881 
L 164.959071 101.379661 
L 164.961646 101.452881 
L 165.026022 100.317966 
L 165.041472 90.28678 
L 165.077522 23.949153 
L 165.149623 89.664407 
L 165.283524 101.12339 
L 165.298974 101.19661 
L 165.332449 101.452881 
L 165.381374 100.867119 
L 165.39425 100.867119 
L 165.42 98.707119 
L 165.468925 26.365424 
L 165.541026 89.627797 
L 165.680077 101.269831 
L 165.739302 101.489492 
L 165.775353 101.08678 
L 165.777928 101.12339 
L 165.860328 98.597288 
L 165.906679 23.949153 
L 165.981354 90.909153 
L 166.117831 100.537627 
L 166.159031 100.684068 
L 166.246582 97.791864 
L 166.295507 26.731525 
L 166.367608 88.053559 
L 166.501509 100.501017 
L 166.504084 100.464407 
L 166.578759 100.976949 
L 166.61996 100.793898 
L 166.69206 99.146441 
L 166.740986 24.608136 
L 166.815661 89.993898 
L 166.949562 100.537627 
L 166.985613 100.647458 
L 167.039688 100.391186 
L 167.052563 100.391186 
L 167.091188 98.96339 
L 167.142689 25.669831 
L 167.217365 89.627797 
L 167.325515 100.281356 
L 167.353841 100.208136 
L 167.449116 98.121356 
L 167.505767 28.378983 
L 167.580443 87.028475 
L 167.719494 100.208136 
L 167.763269 100.610847 
L 167.817344 100.171525 
L 167.82507 100.171525 
L 167.85597 97.718644 
L 167.90747 27.500339 
L 167.979571 85.893559 
L 168.116047 99.842034 
L 168.144372 100.061695 
L 168.208748 99.658983 
L 168.211323 99.658983 
L 168.244798 97.315932 
L 168.298873 28.562034 
L 168.368399 85.051525 
L 168.504875 99.658983 
L 168.50745 99.585763 
L 168.564101 99.805424 
L 168.607876 99.475932 
L 168.610451 99.475932 
L 168.636201 91.714576 
L 168.685127 28.964746 
L 168.754652 83.623729 
L 168.891128 99.219661 
L 168.893703 99.183051 
L 168.952929 99.549153 
L 169.009579 99.256271 
L 169.048205 97.389153 
L 169.10228 27.75661 
L 169.174381 85.197966 
L 169.313432 99.475932 
L 169.316007 99.439322 
L 169.357207 99.732203 
L 169.413858 99.622373 
L 169.416433 99.658983 
L 169.460208 98.780339 
L 169.478233 92.117288 
L 169.524583 26.804746 
L 169.594109 85.96678 
L 169.72801 99.402712 
L 169.730585 99.329492 
L 169.794961 99.475932 
L 169.825861 99.146441 
L 169.828436 99.146441 
L 169.861911 96.473898 
L 169.915987 28.525424 
L 169.985512 85.197966 
L 170.114263 99.146441 
L 170.121988 99.07322 
L 170.163189 99.292881 
L 170.214689 98.853559 
L 170.219839 98.890169 
L 170.245589 92.190508 
L 170.29709 29.147797 
L 170.36404 82.195932 
L 170.503092 98.560678 
L 170.572617 98.92678 
L 170.603517 98.524068 
L 170.634418 93.252203 
L 170.691068 30.209492 
L 170.758019 81.573559 
L 170.899645 99.219661 
L 170.915095 99.329492 
L 170.989771 98.92678 
L 170.992346 98.96339 
L 171.007796 98.890169 
L 171.054146 92.44678 
L 171.105646 29.257627 
L 171.172597 81.64678 
L 171.311648 98.670508 
L 171.365724 98.853559 
L 171.432674 95.705085 
L 171.4919 29.80678 
L 171.55885 81.976271 
L 171.692751 98.157966 
L 171.695326 98.121356 
L 171.708201 98.157966 
L 171.749402 98.524068 
L 171.800902 97.389153 
L 171.829227 77.985763 
L 171.875578 32.186441 
L 171.937378 77.033898 
L 172.081579 98.231186 
L 172.13308 98.450847 
L 172.17428 97.791864 
L 172.18973 94.68 
L 172.259256 32.186441 
L 172.323631 77.875932 
L 172.465258 98.304407 
L 172.506458 98.597288 
L 172.560533 98.084746 
L 172.565683 98.011525 
L 172.588859 95.155932 
L 172.653234 31.381017 
L 172.71761 80.145763 
L 172.856661 98.011525 
L 172.892711 98.267797 
L 172.951937 97.535593 
L 172.972537 88.566102 
L 173.034337 33.138305 
L 173.096138 75.423051 
L 173.240339 97.718644 
L 173.273814 98.084746 
L 173.335615 97.645424 
L 173.356215 86.991864 
L 173.42059 34.419661 
L 173.479816 74.800678 
L 173.624017 97.279322 
L 173.680668 97.718644 
L 173.729593 97.279322 
L 173.757918 91.970847 
L 173.824869 32.772203 
L 173.886669 75.020339 
L 174.03087 97.169492 
L 174.087521 97.498983 
L 174.128721 97.059661 
L 174.131296 97.059661 
L 174.151896 94.533559 
L 174.223997 33.138305 
L 174.288373 76.960678 
L 174.427424 97.352542 
L 174.429999 97.206102 
L 174.471199 97.425763 
L 174.517549 96.87661 
L 174.5227 96.80339 
L 174.540725 92.629831 
L 174.612825 34.383051 
L 174.672051 75.532881 
L 174.816252 97.462373 
L 174.844577 97.682034 
L 174.890928 97.059661 
L 174.916678 86.259661 
L 174.988778 35.298305 
L 175.048004 72.054915 
L 175.19478 96.76678 
L 175.228255 96.986441 
L 175.315806 94.533559 
L 175.395632 34.858983 
L 175.457432 76.155254 
L 175.601633 96.254237 
L 175.637684 96.400678 
L 175.689184 94.387119 
L 175.787035 38.300339 
L 175.848835 71.249492 
L 176.000762 96.254237 
L 176.034237 96.400678 
L 176.070287 95.705085 
L 176.098612 82.122712 
L 176.211913 44.560678 
L 176.253114 60.888814 
L 176.423065 95.705085 
L 176.433365 95.814915 
L 176.487441 96.364068 
L 176.536366 95.631864 
L 176.564691 80.768136 
L 176.634217 37.677966 
L 176.693442 70.407458 
L 176.842794 95.888136 
L 176.907169 96.437288 
L 176.945794 95.668475 
L 176.97927 79.303729 
L 177.05137 38.52 
L 177.108021 69.565424 
L 177.252222 95.741695 
L 177.259947 95.668475 
L 177.285697 95.961356 
L 177.342348 95.046102 
L 177.411873 69.492203 
L 177.471099 42.986441 
L 177.527749 68.064407 
L 177.684825 95.338983 
L 177.705426 95.485424 
L 177.769801 94.972881 
L 177.785251 93.325424 
L 177.929452 46.501017 
L 177.965503 58.692203 
L 178.156054 94.460339 
L 178.163779 94.570169 
L 178.197255 94.789831 
L 178.22558 93.947797 
L 178.29253 76.997288 
L 178.385231 88.639322 
L 178.513982 93.581695 
L 178.532007 93.435254 
L 178.537157 93.398644 
L 178.568058 87.943729 
L 178.660758 36.469831 
L 178.714834 67.991186 
L 178.864185 94.057627 
L 178.87706 94.240678 
L 178.923411 93.508475 
L 178.964611 78.608136 
L 179.023836 72.860339 
L 179.075337 78.425085 
L 179.250438 92.410169 
L 179.255588 92.373559 
L 179.265888 92.44678 
L 179.301939 91.531525 
L 179.332839 81.573559 
L 179.459015 43.791864 
L 179.505365 61.950508 
L 179.677892 93.288814 
L 179.703642 93.654915 
L 179.749992 92.776271 
L 179.780893 81.244068 
L 179.827243 73.629153 
L 179.896769 79.56 
L 180.089895 92.48339 
L 180.131096 90.469831 
L 180.257272 41.082712 
L 180.311347 65.794576 
L 180.470998 92.59322 
L 180.507049 92.886102 
L 180.540524 92.153898 
L 180.563699 85.344407 
L 180.617775 76.521356 
L 180.68215 82.269153 
L 180.844376 92.044068 
L 180.859827 91.751186 
L 180.880427 90.32339 
L 180.973127 72.787119 
L 181.032353 75.642712 
L 181.24608 91.897627 
L 181.279555 91.238644 
L 181.31303 81.061017 
L 181.421181 40.460339 
L 181.475257 62.975593 
L 181.637483 92.117288 
L 181.678683 92.410169 
L 181.730184 91.677966 
L 181.758509 83.88 
L 181.84091 73.702373 
L 181.88211 77.143729 
L 182.062361 90.579661 
L 182.082962 90.213559 
L 182.113862 82.378983 
L 182.180812 75.789153 
L 182.234888 79.267119 
L 182.409989 90.28678 
L 182.448615 89.774237 
L 182.479515 81.75661 
L 182.610841 43.938305 
L 182.659766 61.108475 
L 182.821993 91.202034 
L 182.832293 91.165424 
L 182.935294 79.63322 
L 183.027994 86.07661 
L 183.14902 90.28678 
L 183.182496 89.334915 
L 183.298372 73.336271 
L 183.380772 80.292203 
L 183.561024 88.675932 
L 183.563599 88.639322 
L 183.581624 88.785763 
L 183.627974 87.980339 
L 183.7387 75.532881 
L 183.813376 81.170847 
L 183.967877 89.444746 
L 183.993627 89.078644 
L 184.016802 87.431186 
L 184.238254 55.433898 
L 184.258854 57.630508 
L 184.503481 89.151864 
L 184.524082 88.456271 
L 184.593607 78.791186 
L 184.673433 84.978305 
L 184.776434 89.151864 
L 184.812484 88.090169 
L 184.910335 73.04339 
L 184.997886 79.56 
L 185.165262 86.845424 
L 185.178137 86.589153 
L 185.196162 85.014915 
L 185.278563 77.253559 
L 185.330063 80.511864 
L 185.451089 85.783729 
L 185.49229 82.781695 
L 185.582415 74.617627 
L 185.631341 76.631186 
L 185.832192 86.735593 
L 185.855368 86.515932 
L 185.881118 82.928136 
L 185.960943 74.764068 
L 186.012444 76.997288 
L 186.172095 86.07661 
L 186.228746 82.012881 
L 186.287971 77.033898 
L 186.349772 80.072542 
L 186.457923 84.136271 
L 186.504273 82.708475 
L 186.558348 80.035932 
L 186.625299 81.903051 
L 186.756625 85.344407 
L 186.78495 84.722034 
L 186.913701 75.349831 
L 186.990952 79.267119 
L 187.155753 84.392542 
L 187.186653 84.136271 
L 187.240729 81.976271 
L 187.302529 79.157288 
L 187.361755 80.621695 
L 187.498231 84.172881 
L 187.518831 83.440678 
L 187.614107 75.27661 
L 187.727408 79.267119 
L 187.863884 84.831864 
L 187.894784 82.562034 
L 187.95916 76.777627 
L 188.02096 79.669831 
L 188.123961 83.440678 
L 188.157436 82.269153 
L 188.229537 76.814237 
L 188.296488 79.56 
L 188.420089 83.550508 
L 188.445839 83.147797 
L 188.551415 75.898983 
L 188.623515 79.303729 
L 188.767716 82.598644 
L 188.821792 80.804746 
L 188.909343 76.191864 
L 188.965993 77.4 
L 189.16427 83.074576 
L 189.202895 81.207458 
L 189.305896 75.130169 
L 189.347096 76.887458 
L 189.491297 82.562034 
L 189.535073 80.292203 
L 189.594298 78.132203 
L 189.653524 79.743051 
L 189.75395 82.049492 
L 189.78485 81.134237 
L 189.893001 74.910508 
L 189.985701 77.180339 
L 190.124753 81.536949 
L 190.165953 79.303729 
L 190.232903 76.924068 
L 190.289554 78.132203 
L 190.43633 81.463729 
L 190.444055 81.353898 
L 190.45178 81.244068 
L 190.572806 76.155254 
L 190.639757 78.937627 
L 190.717007 81.79322 
L 190.765933 80.402034 
L 190.825158 77.47322 
L 190.863784 78.644746 
L 191.00026 114.669153 
L 191.345313 128.068475 
L 191.353038 128.141695 
L 191.520414 129.789153 
L 191.538439 129.898983 
L 191.698091 130.594576 
L 191.726416 130.667797 
L 191.850017 131.033898 
L 191.893792 131.143729 
L 191.898942 131.107119 
L 192.027693 131.47322 
L 192.099794 131.583051 
L 192.104944 131.546441 
L 192.228545 131.875932 
L 192.25172 131.766102 
L 192.341846 131.839322 
L 192.478322 131.949153 
L 192.491197 131.912542 
L 192.601923 132.132203 
L 192.717799 132.022373 
L 192.720374 132.058983 
L 192.769299 131.180339 
L 192.784749 131.070508 
L 192.813075 130.997288 
L 192.87745 131.32678 
L 192.885175 131.32678 
L 193.011351 131.656271 
L 192.890325 131.290169 
L 193.013926 131.583051 
L 193.049977 131.546441 
L 193.098902 131.802712 
L 193.109202 131.802712 
L 193.145252 131.912542 
L 193.266278 132.132203 
L 193.268853 132.058983 
L 193.366704 132.351864 
L 193.369279 132.351864 
L 193.384729 132.242034 
L 193.469705 132.461695 
L 193.47743 132.388475 
L 193.523781 132.425085 
L 193.531506 132.388475 
L 193.637081 132.534915 
L 193.835358 132.461695 
L 193.912609 132.315254 
L 193.843083 132.498305 
L 193.946084 132.461695 
L 194.265387 132.534915 
L 194.355512 132.608136 
L 194.301437 132.461695 
L 194.376113 132.571525 
L 194.494563 132.388475 
L 194.497139 132.425085 
L 194.553789 132.351864 
L 194.64649 132.242034 
L 194.597564 132.388475 
L 194.66709 132.278644 
L 194.71344 132.461695 
L 194.754641 132.242034 
L 194.775241 132.242034 
L 194.803566 132.315254 
L 194.816441 132.278644 
L 194.916867 132.425085 
L 195.017293 132.278644 
L 194.922017 132.461695 
L 195.035318 132.315254 
L 195.511697 132.351864 
L 195.591522 132.498305 
L 195.622423 132.388475 
L 195.812974 132.498305 
L 195.88765 132.534915 
L 195.89795 132.388475 
L 195.921125 132.461695 
L 196.000951 132.388475 
L 196.098802 132.278644 
L 196.047301 132.461695 
L 196.111677 132.351864 
L 196.114252 132.388475 
L 196.155452 132.168814 
L 196.212103 132.205424 
L 196.441279 132.278644 
L 196.552005 132.425085 
L 196.459305 132.242034 
L 196.55458 132.351864 
L 196.649856 132.242034 
L 196.747707 132.022373 
L 196.768307 132.095593 
L 196.840408 132.132203 
L 196.801782 132.022373 
L 196.876458 132.058983 
L 196.966584 132.022373 
L 196.920233 132.168814 
L 196.982034 132.132203 
L 197.06701 132.242034 
L 197.11336 132.315254 
L 197.141685 132.132203 
L 197.17001 132.242034 
L 197.270436 132.095593 
L 197.280736 132.132203 
L 197.378587 132.278644 
L 197.319362 132.095593 
L 197.396612 132.205424 
L 197.68759 132.132203 
L 197.700465 132.168814 
L 197.803466 131.985763 
L 197.911617 132.132203 
L 197.921917 132.095593 
L 198.140793 132.168814 
L 198.238644 132.278644 
L 198.192294 132.132203 
L 198.251519 132.205424 
L 198.30817 132.095593 
L 198.27727 132.278644 
L 198.362245 132.205424 
L 198.439496 132.315254 
L 198.532197 132.498305 
L 198.452371 132.278644 
L 198.557947 132.425085 
L 198.671248 132.315254 
L 198.565672 132.461695 
L 198.673823 132.351864 
L 198.784549 132.461695 
L 198.696998 132.278644 
L 198.787124 132.425085 
L 198.872099 132.388475 
L 198.8824 132.498305 
L 198.895275 132.425085 
L 199.008576 132.571525 
L 199.013726 132.534915 
L 199.044626 132.388475 
L 199.124451 132.498305 
L 199.160502 132.571525 
L 199.222302 132.388475 
L 199.227452 132.425085 
L 199.315003 132.351864 
L 199.325303 132.498305 
L 199.338178 132.425085 
L 199.441179 132.571525 
L 199.454054 132.534915 
L 199.557055 132.498305 
L 199.51328 132.681356 
L 199.562205 132.534915 
L 199.56478 132.608136 
L 199.652331 132.461695 
L 199.670356 132.534915 
L 199.786232 132.351864 
L 199.683231 132.571525 
L 199.791382 132.388475 
L 199.793957 132.425085 
L 199.809407 132.278644 
L 199.899533 132.351864 
L 199.902108 132.315254 
L 199.974208 132.571525 
L 199.997384 132.498305 
L 200.056609 132.644746 
L 200.115835 132.608136 
L 200.21626 132.498305 
L 200.120985 132.644746 
L 200.231711 132.534915 
L 200.298661 132.571525 
L 200.265186 132.425085 
L 200.339861 132.498305 
L 200.411962 132.278644 
L 200.455737 132.425085 
L 200.71324 132.498305 
L 200.762165 132.461695 
L 200.82654 132.608136 
L 200.963017 132.571525 
L 201.066017 132.388475 
L 201.076318 132.425085 
L 201.184468 132.608136 
L 201.197344 132.571525 
L 201.284894 132.461695 
L 201.313219 132.498305 
L 201.36472 132.571525 
L 201.31837 132.461695 
L 201.42137 132.498305 
L 201.478021 132.461695 
L 201.498621 132.644746 
L 201.524371 132.608136 
L 201.539821 132.681356 
L 201.560421 132.498305 
L 201.629947 132.534915 
L 201.640247 132.608136 
L 201.753548 132.717966 
L 201.807624 132.644746 
L 201.856549 132.827797 
L 201.864274 132.717966 
L 201.951825 132.827797 
L 201.895174 132.681356 
L 201.977575 132.791186 
L 202.0368 132.681356 
L 201.982725 132.827797 
L 202.090876 132.754576 
L 202.142376 132.791186 
L 202.165551 132.644746 
L 202.196452 132.681356 
L 202.335503 132.791186 
L 202.446229 132.937627 
L 202.451379 132.864407 
L 202.57498 132.644746 
L 202.654805 132.754576 
L 202.667681 132.608136 
L 202.683131 132.644746 
L 202.755231 132.425085 
L 202.688281 132.681356 
L 202.801582 132.461695 
L 202.904583 132.754576 
L 202.920033 132.681356 
L 203.043634 132.901017 
L 203.16466 132.571525 
L 203.339761 132.461695 
L 203.440187 132.425085 
L 203.435037 132.571525 
L 203.445337 132.461695 
L 203.525163 132.534915 
L 203.530313 132.425085 
L 203.556063 132.461695 
L 203.720864 132.388475 
L 203.741464 132.278644 
L 203.756915 132.461695 
L 203.83159 132.351864 
L 203.893391 132.278644 
L 203.947466 132.425085 
L 204.029867 132.351864 
L 203.991241 132.461695 
L 204.058192 132.425085 
L 204.341444 132.315254 
L 204.44187 132.205424 
L 204.349169 132.388475 
L 204.454745 132.278644 
L 204.495946 132.205424 
L 204.596371 131.839322 
L 204.614397 131.985763 
L 204.616972 131.949153 
L 204.653022 132.095593 
L 204.719972 132.058983 
L 204.838423 132.242034 
L 204.840998 132.205424 
L 204.923399 132.132203 
L 204.882199 132.278644 
L 204.951724 132.205424 
L 205.047 132.351864 
L 205.0676 132.278644 
L 205.186051 132.022373 
L 205.080475 132.315254 
L 205.188626 132.095593 
L 205.247852 132.168814 
L 205.281327 132.022373 
L 205.294202 132.058983 
L 205.312227 132.095593 
L 205.407503 131.875932 
L 205.428103 132.022373 
L 205.412653 131.839322 
L 205.518229 131.949153 
L 205.577454 132.022373 
L 205.68818 132.278644 
L 205.69333 132.205424 
L 205.793756 132.315254 
L 205.876157 132.425085 
L 205.804056 132.242034 
L 205.901907 132.351864 
L 205.922507 132.278644 
L 205.963708 132.388475 
L 206.012633 132.351864 
L 206.174859 132.242034 
L 206.19031 132.132203 
L 206.254685 132.278644 
L 206.28816 132.205424 
L 206.334511 132.315254 
L 206.295885 132.168814 
L 206.398886 132.278644 
L 206.401461 132.168814 
L 206.491587 132.388475 
L 206.507037 132.315254 
L 206.90359 132.278644 
L 206.965391 132.132203 
L 206.991141 132.315254 
L 207.014316 132.278644 
L 207.040066 132.351864 
L 207.114742 132.132203 
L 207.191993 132.205424 
L 207.207443 132.315254 
L 207.243493 132.168814 
L 207.300144 132.168814 
L 207.490695 132.278644 
L 207.526745 132.168814 
L 207.601421 132.388475 
L 207.699272 132.242034 
L 207.712147 132.278644 
L 207.750772 132.388475 
L 207.784248 132.242034 
L 207.825448 132.315254 
L 208.018575 132.205424 
L 208.121575 132.022373 
L 208.04175 132.242034 
L 208.137025 132.058983 
L 208.144751 132.022373 
L 208.255476 132.205424 
L 208.373927 132.022373 
L 208.376502 132.058983 
L 208.394528 132.132203 
L 208.474353 131.985763 
L 208.484653 132.022373 
L 208.572204 131.949153 
L 208.644305 131.656271 
L 208.68808 131.766102 
L 208.770481 131.729492 
L 208.803956 131.875932 
L 208.819406 131.766102 
L 208.899232 131.949153 
L 208.912107 131.912542 
L 209.015108 131.802712 
L 209.100083 131.546441 
L 209.046008 131.839322 
L 209.136134 131.656271 
L 209.259735 131.766102 
L 209.311235 131.839322 
L 209.35501 131.692881 
L 209.373036 131.802712 
L 209.973016 131.729492 
L 209.975591 131.619661 
L 210.047691 131.802712 
L 210.081166 131.729492 
L 210.199617 131.875932 
L 210.243393 131.766102 
L 210.251118 131.912542 
L 210.310343 131.875932 
L 210.588446 131.802712 
L 210.694021 131.729492 
L 210.598746 131.839322 
L 210.699172 131.766102 
L 210.704322 131.802712 
L 210.742947 131.656271 
L 210.804747 131.692881 
L 210.812472 131.656271 
L 210.830498 131.802712 
L 210.910323 131.729492 
L 211.015899 131.912542 
L 211.023624 131.875932 
L 211.131775 131.766102 
L 211.031349 131.949153 
L 211.136925 131.839322 
L 211.178125 131.766102 
L 211.283701 131.546441 
L 211.183275 131.802712 
L 211.291426 131.619661 
L 211.299151 131.583051 
L 211.404727 131.729492 
L 211.463953 131.583051 
L 211.507728 131.802712 
L 211.512878 131.802712 
L 211.590129 131.656271 
L 211.628754 131.729492 
L 211.71888 131.802712 
L 211.685405 131.656271 
L 211.73948 131.766102 
L 211.855356 131.619661 
L 211.762655 131.802712 
L 211.857931 131.656271 
L 211.973807 131.766102 
L 212.002132 131.802712 
L 212.071658 131.583051 
L 212.074233 131.619661 
L 212.213284 131.546441 
L 212.305985 131.36339 
L 212.326585 131.43661 
L 212.388385 131.546441 
L 212.414136 131.4 
L 212.434736 131.4 
L 212.589237 131.509831 
L 212.635587 131.546441 
L 212.643312 131.43661 
L 212.694813 131.47322 
L 212.802964 131.36339 
L 212.720563 131.509831 
L 212.808114 131.4 
L 212.826139 131.509831 
L 212.900815 131.32678 
L 212.91369 131.36339 
L 212.942015 131.4 
L 213.032141 131.216949 
L 213.057891 131.36339 
L 213.145442 131.290169 
L 213.307668 131.216949 
L 213.374618 130.997288 
L 213.423544 131.033898 
L 213.505945 131.143729 
L 213.536845 131.070508 
L 213.567745 131.180339 
L 213.621821 131.36339 
L 213.58062 131.143729 
L 213.681046 131.216949 
L 213.771172 130.411525 
L 213.812372 130.594576 
L 213.907648 130.704407 
L 213.990049 130.850847 
L 214.018374 130.741017 
L 214.036399 130.667797 
L 214.075024 130.850847 
L 214.126525 130.777627 
L 214.335101 130.850847 
L 214.445827 130.997288 
L 214.417502 130.814237 
L 214.448402 130.924068 
L 214.824355 130.850847 
L 214.891306 130.777627 
L 214.917056 130.924068 
L 214.935081 130.850847 
L 214.937656 130.924068 
L 215.025207 130.741017 
L 215.043232 130.814237 
L 215.048382 130.741017 
L 215.123058 130.887458 
L 215.148808 130.850847 
L 215.153958 130.924068 
L 215.171983 130.777627 
L 215.256959 130.850847 
L 215.36511 130.667797 
L 215.264684 130.924068 
L 215.37541 130.741017 
L 215.480986 130.887458 
L 215.493861 130.850847 
L 215.540211 130.741017 
L 215.542786 130.704407 
L 215.586562 130.924068 
L 215.640637 130.850847 
L 215.668962 130.887458 
L 215.705013 130.704407 
L 215.743638 130.741017 
L 216.302418 130.631186 
L 216.384818 130.594576 
L 216.333318 130.704407 
L 216.410568 130.631186 
L 216.428594 130.741017 
L 216.490394 130.594576 
L 216.523869 130.667797 
L 216.529019 130.594576 
L 216.58052 130.777627 
L 216.62687 130.741017 
L 216.673221 130.777627 
L 216.639745 130.667797 
L 216.737596 130.741017 
L 216.755621 130.667797 
L 216.876647 130.191864 
L 216.879222 130.228475 
L 216.992523 130.521356 
L 217.005398 130.448136 
L 217.16505 130.521356 
L 217.2114 130.594576 
L 217.2526 130.374915 
L 217.2732 130.448136 
L 217.316976 130.374915 
L 217.386501 130.484746 
L 217.466327 130.301695 
L 217.499802 130.374915 
L 217.535853 130.338305 
L 217.618253 130.521356 
L 217.718679 130.411525 
L 217.728979 130.521356 
L 217.77018 130.484746 
L 217.870605 130.374915 
L 217.880905 130.484746 
L 217.906656 130.374915 
L 217.996781 130.228475 
L 218.017382 130.301695 
L 218.035407 130.374915 
L 218.061157 130.228475 
L 218.122957 130.228475 
L 218.259434 130.118644 
L 218.346984 129.972203 
L 218.264584 130.155254 
L 218.377885 130.008814 
L 218.48861 130.082034 
L 218.460285 129.898983 
L 218.491185 130.045424 
L 218.493761 130.008814 
L 218.573586 130.265085 
L 218.591611 130.155254 
L 218.596761 130.118644 
L 218.704912 130.301695 
L 218.717787 130.228475 
L 218.782163 130.411525 
L 218.810488 130.374915 
L 218.841388 130.521356 
L 218.923789 130.448136 
L 219.034515 130.374915 
L 218.949539 130.484746 
L 219.03709 130.411525 
L 219.08859 130.338305 
L 219.204466 130.045424 
L 219.230217 130.155254 
L 219.294592 129.935593 
L 219.312617 130.008814 
L 219.328067 129.972203 
L 219.402743 130.155254 
L 219.415618 130.082034 
L 219.418193 130.155254 
L 219.477419 129.972203 
L 219.526344 130.082034 
L 219.539219 130.045424 
L 219.613895 130.301695 
L 219.62677 130.228475 
L 219.68857 130.338305 
L 219.770971 130.411525 
L 219.758096 130.265085 
L 219.801871 130.374915 
L 219.979548 130.338305 
L 220.049073 130.082034 
L 220.092849 130.155254 
L 220.2422 130.045424 
L 220.358076 129.898983 
L 220.365801 129.972203 
L 220.378676 129.825763 
L 220.466227 129.898983 
L 220.561502 129.789153 
L 220.571803 129.935593 
L 220.574378 129.935593 
L 220.607853 129.862373 
L 220.716004 129.715932 
L 220.620728 129.935593 
L 220.721154 129.789153 
L 220.808705 129.679322 
L 220.728879 129.825763 
L 220.83188 129.789153 
L 220.90913 129.679322 
L 221.025006 129.532881 
L 220.922005 129.752542 
L 221.027581 129.569492 
L 221.143457 129.459661 
L 221.249033 129.386441 
L 221.156332 129.496271 
L 221.254183 129.423051 
L 221.267058 129.386441 
L 221.372634 129.679322 
L 221.588936 129.606102 
L 221.604386 129.715932 
L 221.704812 129.459661 
L 221.730562 129.496271 
L 221.758887 129.27661 
L 221.810388 129.386441 
L 221.923689 129.27661 
L 221.985489 129.386441 
L 221.990639 129.423051 
L 222.05759 129.24 
L 222.091065 129.349831 
L 222.147716 129.24 
L 222.194066 129.459661 
L 222.201791 129.349831 
L 222.230116 129.459661 
L 222.291917 129.27661 
L 222.312517 129.349831 
L 222.410368 129.24 
L 222.487618 128.947119 
L 222.526244 129.056949 
L 222.631819 129.093559 
L 222.71422 129.24 
L 222.70392 129.020339 
L 222.742545 129.093559 
L 223.105623 129.20339 
L 223.164849 129.27661 
L 223.188024 129.130169 
L 223.211199 129.16678 
L 223.3142 129.056949 
L 223.260125 129.20339 
L 223.3245 129.093559 
L 223.36055 129.16678 
L 223.363125 129.24 
L 223.455826 129.056949 
L 223.468701 129.130169 
L 223.600027 128.837288 
L 223.721053 129.020339 
L 223.762254 128.983729 
L 223.803454 129.130169 
L 223.826629 129.056949 
L 223.90388 129.093559 
L 223.927055 128.947119 
L 223.92963 128.983729 
L 224.024906 128.910508 
L 223.93993 129.020339 
L 224.040356 128.947119 
L 224.066106 129.056949 
L 224.097007 128.910508 
L 224.153657 128.983729 
L 224.264383 128.873898 
L 224.266958 128.910508 
L 224.362234 128.983729 
L 224.372534 128.837288 
L 224.377684 128.947119 
L 224.496135 128.727458 
L 224.763937 128.617627 
L 224.766512 128.581017 
L 224.836038 128.800678 
L 224.866938 128.690847 
L 224.892688 128.800678 
L 224.962214 128.544407 
L 224.969939 128.581017 
L 225.230016 128.654237 
L 225.266066 128.727458 
L 225.314992 128.544407 
L 225.338167 128.617627 
L 225.513268 128.690847 
L 225.618844 128.800678 
L 225.557044 128.654237 
L 225.626569 128.764068 
L 225.642019 128.654237 
L 225.696095 128.873898 
L 225.737295 128.764068 
L 225.969047 128.800678 
L 226.010247 128.947119 
L 226.033422 128.764068 
L 226.079773 128.800678 
L 226.30895 128.727458 
L 226.424826 128.544407 
L 226.769878 128.654237 
L 226.772453 128.690847 
L 226.818804 128.581017 
L 226.878029 128.654237 
L 226.937255 128.581017 
L 226.92953 128.690847 
L 226.988755 128.617627 
L 227.00163 128.581017 
L 227.117506 128.910508 
L 227.145832 128.837288 
L 227.174157 128.947119 
L 227.225657 128.910508 
L 227.328658 129.020339 
L 227.336383 128.983729 
L 227.467709 128.873898 
L 227.506335 128.617627 
L 227.583585 128.764068 
L 227.647961 128.837288 
L 227.660836 128.690847 
L 227.694311 128.800678 
L 227.771562 128.727458 
L 227.712336 128.873898 
L 227.807612 128.764068 
L 227.810187 128.837288 
L 227.905463 128.544407 
L 227.910613 128.617627 
L 227.920913 128.581017 
L 227.990438 128.727458 
L 228.016189 128.690847 
L 228.018764 128.764068 
L 228.077989 128.581017 
L 228.12434 128.654237 
L 228.81187 128.654237 
L 228.886546 128.507797 
L 228.853071 128.690847 
L 228.922596 128.617627 
L 228.950921 128.507797 
L 229.030747 128.690847 
L 229.033322 128.617627 
L 229.056497 128.690847 
L 229.092548 128.544407 
L 229.141473 128.581017 
L 229.257349 128.397966 
L 229.465926 128.324746 
L 229.574076 128.031864 
L 229.471076 128.361356 
L 229.584377 128.105085 
L 229.885654 128.214915 
L 229.942305 128.105085 
L 230.00153 128.324746 
L 230.02728 128.178305 
L 230.112256 128.288136 
L 230.374908 128.251525 
L 230.480484 127.922034 
L 230.490784 128.031864 
L 230.60666 128.141695 
L 230.62211 128.068475 
L 230.725111 128.251525 
L 230.913087 128.361356 
L 230.954288 128.397966 
L 230.995488 128.251525 
L 231.021238 128.324746 
L 231.036688 128.214915 
L 231.077889 128.361356 
L 231.131964 128.324746 
L 231.304491 128.214915 
L 231.415217 127.995254 
L 231.322516 128.251525 
L 231.428092 128.031864 
L 231.536243 128.105085 
L 231.469292 127.958644 
L 231.541393 128.068475 
L 232.022922 127.958644 
L 232.040947 127.812203 
L 232.125922 127.995254 
L 232.133648 127.958644 
L 232.200598 127.885424 
L 232.272699 127.958644 
L 232.313899 127.812203 
L 232.3963 127.922034 
L 232.424625 127.848814 
L 232.537926 127.665763 
L 232.434925 127.922034 
L 232.543076 127.738983 
L 232.553376 127.812203 
L 232.594576 127.665763 
L 232.653802 127.738983 
L 232.867529 127.665763 
L 232.903579 127.555932 
L 232.955079 127.738983 
L 232.978254 127.665763 
L 233.04263 127.592542 
L 233.00143 127.702373 
L 233.08898 127.629153 
L 233.09928 127.592542 
L 233.202281 127.775593 
L 233.212581 127.702373 
L 233.287257 127.922034 
L 233.307857 127.885424 
L 233.416008 127.922034 
L 233.449483 128.031864 
L 233.482959 127.885424 
L 233.526734 127.922034 
L 233.63231 127.812203 
L 233.70441 127.738983 
L 233.655485 127.885424 
L 233.740461 127.848814 
L 233.920712 127.812203 
L 233.923287 127.702373 
L 234.013413 127.958644 
L 234.028863 127.885424 
L 234.286365 127.775593 
L 234.409966 127.446102 
L 234.415116 127.519322 
L 234.484642 127.409492 
L 234.559317 127.15322 
L 234.605668 127.226441 
L 234.610818 127.263051 
L 234.693219 126.933559 
L 234.757594 126.494237 
L 234.819395 126.713898 
L 234.845145 126.823729 
L 234.989346 127.299661 
L 235.002221 127.263051 
L 235.074322 127.482712 
L 235.097497 127.336271 
L 235.151572 127.263051 
L 235.210798 127.446102 
L 235.342124 127.519322 
L 235.45285 127.702373 
L 235.455425 127.665763 
L 235.553276 127.482712 
L 235.568726 127.592542 
L 235.661426 127.482712 
L 235.682027 127.519322 
L 235.728377 127.592542 
L 235.761852 127.446102 
L 235.790178 127.482712 
L 235.821078 127.446102 
L 235.839103 127.629153 
L 235.895753 127.519322 
L 235.898328 127.702373 
L 236.006479 127.592542 
L 236.04253 127.629153 
L 236.09403 127.446102 
L 236.112055 127.519322 
L 236.333507 127.409492 
L 236.441658 127.299661 
L 236.369557 127.519322 
L 236.444233 127.409492 
L 236.64251 127.372881 
L 236.753235 127.226441 
L 236.75581 127.263051 
L 236.848511 127.372881 
L 236.920612 127.446102 
L 236.858811 127.299661 
L 236.956662 127.372881 
L 236.979837 127.299661 
L 237.021038 127.446102 
L 237.062238 127.446102 
L 237.216739 127.409492 
L 237.26309 127.263051 
L 237.234764 127.446102 
L 237.327465 127.409492 
L 237.433041 127.446102 
L 237.36094 127.299661 
L 237.435616 127.409492 
L 237.466516 127.336271 
L 237.505142 127.446102 
L 237.543767 127.409492 
L 237.631318 127.482712 
L 237.574667 127.336271 
L 237.651918 127.409492 
L 237.698268 127.372881 
L 237.726593 127.555932 
L 237.757494 127.482712 
L 237.762644 127.446102 
L 237.875945 127.702373 
L 237.986671 127.482712 
L 237.989246 127.555932 
L 238.033021 127.446102 
L 238.043321 127.263051 
L 238.151472 127.336271 
L 238.200397 127.299661 
L 238.269923 127.446102 
L 238.362624 127.372881 
L 238.421849 127.446102 
L 238.48365 127.08 
L 238.537725 126.823729 
L 238.602101 126.933559 
L 238.607251 126.896949 
L 238.725702 127.15322 
L 238.818402 127.04339 
L 238.836428 127.15322 
L 239.338557 127.263051 
L 239.356582 127.226441 
L 239.454433 127.372881 
L 239.469883 127.263051 
L 239.505933 127.446102 
L 239.560008 127.409492 
L 239.681034 127.629153 
L 239.572884 127.372881 
L 239.683609 127.592542 
L 239.701635 127.555932 
L 239.73511 127.775593 
L 239.78146 127.738983 
L 239.871586 127.885424 
L 239.894761 127.848814 
L 239.995187 127.702373 
L 240.013212 127.738983 
L 240.085313 127.665763 
L 240.201189 127.409492 
L 240.229514 127.372881 
L 240.445816 131.216949 
L 240.450966 131.290169 
L 240.571992 132.132203 
L 240.587442 132.022373 
L 240.677568 132.205424 
L 240.703318 132.095593 
L 240.834644 131.985763 
L 240.947945 131.692881 
L 240.842369 132.022373 
L 240.96082 131.729492 
L 240.963395 131.766102 
L 241.040646 131.43661 
L 241.050946 131.43661 
L 241.200297 130.814237 
L 241.202872 130.850847 
L 241.220897 130.777627 
L 241.339348 130.228475 
L 241.228622 130.814237 
L 241.349648 130.265085 
L 241.370248 130.155254 
L 241.504149 129.679322 
L 241.377973 130.191864 
L 241.509299 129.715932 
L 241.532475 129.752542 
L 241.589125 129.423051 
L 241.602 129.459661 
L 241.666376 129.459661 
L 241.761652 129.16678 
L 241.779677 129.24 
L 241.895553 128.983729 
L 241.905853 129.020339 
L 241.923878 129.093559 
L 241.993403 128.800678 
L 242.008854 128.910508 
L 242.13503 128.654237 
L 242.16078 128.727458 
L 242.21228 128.434576 
L 242.23803 128.507797 
L 242.328156 128.214915 
L 242.361631 128.288136 
L 242.379657 128.361356 
L 242.407982 128.214915 
L 242.469782 128.288136 
L 242.492958 128.141695 
L 242.490383 128.324746 
L 242.588233 128.178305 
L 242.655184 128.251525 
L 242.642309 128.105085 
L 242.691234 128.141695 
L 242.79681 127.995254 
L 242.696384 128.178305 
L 242.804535 128.031864 
L 242.951311 127.958644 
L 243.067187 127.812203 
L 243.149588 127.922034 
L 243.144438 127.775593 
L 243.180488 127.848814 
L 243.203663 127.702373 
L 243.224264 127.885424 
L 243.291214 127.812203 
L 243.373615 127.848814 
L 243.306664 127.738983 
L 243.40194 127.812203 
L 243.419965 127.702373 
L 243.466316 127.922034 
L 243.515241 127.775593 
L 244.030245 127.738983 
L 244.140971 127.555932 
L 244.04312 127.775593 
L 244.143546 127.629153 
L 244.148696 127.555932 
L 244.243972 127.775593 
L 244.249122 127.702373 
L 244.475724 127.665763 
L 244.478299 127.555932 
L 244.571 127.775593 
L 244.58645 127.629153 
L 244.6328 127.812203 
L 244.699751 127.702373 
L 244.795026 127.629153 
L 244.738376 127.775593 
L 244.810477 127.665763 
L 244.892877 127.775593 
L 244.962403 127.958644 
L 244.898027 127.702373 
L 244.998453 127.738983 
L 245.088579 127.629153 
L 245.006178 127.812203 
L 245.111754 127.702373 
L 245.158104 127.775593 
L 245.240505 127.848814 
L 245.209605 127.665763 
L 245.26883 127.775593 
L 245.343506 127.995254 
L 245.384706 127.922034 
L 245.389856 127.775593 
L 245.438782 127.958644 
L 245.495432 127.922034 
L 245.601008 127.738983 
L 245.611308 127.812203 
L 245.673109 127.958644 
L 245.624183 127.738983 
L 245.722034 127.848814 
L 245.729759 127.885424 
L 245.84306 127.665763 
L 245.951211 127.775593 
L 245.86881 127.592542 
L 245.956361 127.738983 
L 245.966661 127.775593 
L 246.036187 127.555932 
L 246.056787 127.629153 
L 246.154638 127.372881 
L 246.180388 127.446102 
L 246.288539 127.629153 
L 246.226738 127.409492 
L 246.293689 127.592542 
L 246.309139 127.519322 
L 246.327164 127.702373 
L 246.39669 127.665763 
L 246.425015 127.555932 
L 246.509991 127.738983 
L 246.538316 127.592542 
L 246.579516 127.775593 
L 246.623291 127.665763 
L 246.955469 127.775593 
L 246.983794 127.702373 
L 247.076495 127.922034 
L 247.171771 128.031864 
L 247.174346 128.068475 
L 247.200096 127.885424 
L 247.279922 127.995254 
L 247.313397 127.885424 
L 247.341722 128.031864 
L 247.393223 127.958644 
L 247.434423 127.995254 
L 247.480774 127.812203 
L 247.496224 127.848814 
L 247.498799 127.775593 
L 247.509099 127.922034 
L 247.60695 127.848814 
L 247.697075 127.958644 
L 247.717675 127.848814 
L 247.977753 127.738983 
L 248.057578 127.702373 
L 248.011228 127.812203 
L 248.088478 127.738983 
L 248.101354 127.848814 
L 248.163154 127.665763 
L 248.199204 127.738983 
L 248.206929 127.629153 
L 248.28933 127.848814 
L 248.30478 127.812203 
L 248.487607 127.702373 
L 248.590608 127.409492 
L 248.611208 127.482712 
L 248.621508 127.555932 
L 248.662708 127.372881 
L 248.719359 127.446102 
L 248.819784 127.299661 
L 248.776009 127.482712 
L 248.835235 127.372881 
L 248.902185 127.482712 
L 248.92021 127.299661 
L 248.948536 127.409492 
L 249.244663 127.519322 
L 249.247238 127.555932 
L 249.298738 127.372881 
L 249.350239 127.446102 
L 249.455815 127.409492 
L 249.391439 127.519322 
L 249.460965 127.446102 
L 249.551091 127.336271 
L 249.569116 127.409492 
L 249.664391 127.263051 
L 249.695292 127.15322 
L 249.715892 127.226441 
L 249.824043 126.896949 
L 249.906443 127.04339 
L 249.934769 126.933559 
L 250.04292 126.823729 
L 250.045495 126.896949 
L 250.066095 126.787119 
L 250.122745 126.530847 
L 250.179396 126.677288 
L 250.181971 126.750508 
L 250.220596 126.567458 
L 250.290122 126.677288 
L 250.295272 126.640678 
L 250.387972 126.860339 
L 250.418873 126.970169 
L 250.472948 126.677288 
L 250.485823 126.677288 
L 250.534749 126.567458 
L 250.568224 126.421017 
L 250.630024 126.677288 
L 250.640324 126.640678 
L 250.671225 126.530847 
L 250.702125 126.384407 
L 250.763925 126.604068 
L 250.779376 126.567458 
L 250.884951 126.457627 
L 250.918427 126.421017 
L 250.964777 126.713898 
L 250.980227 126.677288 
L 251.034303 126.713898 
L 251.129578 126.933559 
L 251.147604 126.896949 
L 251.214554 126.823729 
L 251.235154 126.970169 
L 251.255754 126.933559 
L 251.29438 127.00678 
L 251.35103 127.226441 
L 251.407681 127.189831 
L 251.778484 127.08 
L 251.804234 127.189831 
L 251.89436 126.933559 
L 251.896935 127.00678 
L 251.989636 126.823729 
L 251.999936 126.860339 
L 252.120962 126.640678 
L 252.123537 126.677288 
L 252.195637 126.750508 
L 252.301213 126.896949 
L 252.244563 126.713898 
L 252.308938 126.860339 
L 252.50979 126.970169 
L 252.55614 127.11661 
L 252.56644 126.933559 
L 252.623091 127.04339 
L 252.625666 126.970169 
L 252.687466 127.189831 
L 252.728667 127.15322 
L 252.744117 127.263051 
L 252.756992 127.226441 
L 252.859993 127.409492 
L 253.117495 127.336271 
L 253.225646 127.226441 
L 253.13037 127.446102 
L 253.230796 127.263051 
L 253.251396 127.189831 
L 253.364697 126.970169 
L 253.367272 127.04339 
L 253.439372 126.823729 
L 253.470273 126.860339 
L 253.681424 126.970169 
L 253.80245 127.189831 
L 253.805025 127.15322 
L 253.848801 127.11661 
L 253.915751 126.054915 
L 253.974977 126.201356 
L 254.026477 126.274576 
L 254.137203 126.567458 
L 254.139778 126.530847 
L 254.178403 126.640678 
L 254.193854 126.604068 
L 254.307155 126.896949 
L 254.35608 126.823729 
L 254.37153 126.970169 
L 254.41273 126.970169 
L 254.518306 127.04339 
L 254.623882 127.226441 
L 254.554357 127.00678 
L 254.629032 127.189831 
L 254.714008 127.04339 
L 254.721733 127.08 
" clip-path="url(#p910fa786ae)" style="fill: none; stroke: #000000; stroke-opacity: 0.5; stroke-width: 1.5; stroke-linecap: square"/>
   </g>
   <g id="patch_3">
    <path d="M 41.667188 173.52 
L 41.667188 7.2 
" style="fill: none; stroke: #000000; stroke-width: 0.8; stroke-linejoin: miter; stroke-linecap: square"/>
   </g>
   <g id="patch_4">
    <path d="M 41.667188 173.52 
L 264.867187 173.52 
" style="fill: none; stroke: #000000; stroke-width: 0.8; stroke-linejoin: miter; stroke-linecap: square"/>
   </g>
  </g>
 </g>
 <defs>
  <clipPath id="p910fa786ae">
   <rect x="41.667188" y="7.2" width="223.2" height="166.32"/>
  </clipPath>
 </defs>
</svg>
