<?xml version="1.0" encoding="utf-8" standalone="no"?>
<!DOCTYPE svg PUBLIC "-//W3C//DTD SVG 1.1//EN"
  "http://www.w3.org/Graphics/SVG/1.1/DTD/svg11.dtd">
<svg xmlns:xlink="http://www.w3.org/1999/xlink" width="272.067187pt" height="197.398125pt" viewBox="0 0 272.067187 197.398125" xmlns="http://www.w3.org/2000/svg" version="1.1">
 <metadata>
  <rdf:RDF xmlns:dc="http://purl.org/dc/elements/1.1/" xmlns:cc="http://creativecommons.org/ns#" xmlns:rdf="http://www.w3.org/1999/02/22-rdf-syntax-ns#">
   <cc:Work>
    <dc:type rdf:resource="http://purl.org/dc/dcmitype/StillImage"/>
    <dc:date>2025-12-19T12:01:09.343557</dc:date>
    <dc:format>image/svg+xml</dc:format>
    <dc:creator>
     <cc:Agent>
      <dc:title>Matplotlib v3.10.7, https://matplotlib.org/</dc:title>
     </cc:Agent>
    </dc:creator>
   </cc:Work>
  </rdf:RDF>
 </metadata>
 <defs>
  <style type="text/css">*{stroke-linejoin: round; stroke-linecap: butt}</style>
 </defs>
 <g id="figure_1">
  <g id="patch_1">
   <path d="M 0 197.398125 
L 272.067187 197.398125 
L 272.067187 0 
L 0 0 
z
" style="fill: #ffffff"/>
  </g>
  <g id="axes_1">
   <g id="patch_2">
    <path d="M 41.667188 173.52 
L 264.867188 173.52 
L 264.867188 7.2 
L 41.667188 7.2 
z
" style="fill: #ffffff"/>
   </g>
   <g id="matplotlib.axis_1">
    <g id="xtick_1">
     <g id="line2d_1">
      <defs>
       <path id="ma68a8e90e2" d="M 0 0 
L 0 3.5 
" style="stroke: #000000; stroke-width: 0.8"/>
      </defs>
      <g>
       <use xlink:href="#ma68a8e90e2" x="82.712896" y="173.52" style="stroke: #000000; stroke-width: 0.8"/>
      </g>
     </g>
     <g id="text_1">
      <!-- 1 -->
      <g transform="translate(79.531646 188.118438) scale(0.1 -0.1)">
       <defs>
        <path id="DejaVuSans-31" d="M 794 531 
L 1825 531 
L 1825 4091 
L 703 3866 
L 703 4441 
L 1819 4666 
L 2450 4666 
L 2450 531 
L 3481 531 
L 3481 0 
L 794 0 
L 794 531 
z
" transform="scale(0.015625)"/>
       </defs>
       <use xlink:href="#DejaVuSans-31"/>
      </g>
     </g>
    </g>
    <g id="xtick_2">
     <g id="line2d_2">
      <g>
       <use xlink:href="#ma68a8e90e2" x="134.213319" y="173.52" style="stroke: #000000; stroke-width: 0.8"/>
      </g>
     </g>
     <g id="text_2">
      <!-- 2 -->
      <g transform="translate(131.032069 188.118438) scale(0.1 -0.1)">
       <defs>
        <path id="DejaVuSans-32" d="M 1228 531 
L 3431 531 
L 3431 0 
L 469 0 
L 469 531 
Q 828 903 1448 1529 
Q 2069 2156 2228 2338 
Q 2531 2678 2651 2914 
Q 2772 3150 2772 3378 
Q 2772 3750 2511 3984 
Q 2250 4219 1831 4219 
Q 1534 4219 1204 4116 
Q 875 4013 500 3803 
L 500 4441 
Q 881 4594 1212 4672 
Q 1544 4750 1819 4750 
Q 2544 4750 2975 4387 
Q 3406 4025 3406 3419 
Q 3406 3131 3298 2873 
Q 3191 2616 2906 2266 
Q 2828 2175 2409 1742 
Q 1991 1309 1228 531 
z
" transform="scale(0.015625)"/>
       </defs>
       <use xlink:href="#DejaVuSans-32"/>
      </g>
     </g>
    </g>
    <g id="xtick_3">
     <g id="line2d_3">
      <g>
       <use xlink:href="#ma68a8e90e2" x="185.713741" y="173.52" style="stroke: #000000; stroke-width: 0.8"/>
      </g>
     </g>
     <g id="text_3">
      <!-- 3 -->
      <g transform="translate(182.532491 188.118438) scale(0.1 -0.1)">
       <defs>
        <path id="DejaVuSans-33" d="M 2597 2516 
Q 3050 2419 3304 2112 
Q 3559 1806 3559 1356 
Q 3559 666 3084 287 
Q 2609 -91 1734 -91 
Q 1441 -91 1130 -33 
Q 819 25 488 141 
L 488 750 
Q 750 597 1062 519 
Q 1375 441 1716 441 
Q 2309 441 2620 675 
Q 2931 909 2931 1356 
Q 2931 1769 2642 2001 
Q 2353 2234 1838 2234 
L 1294 2234 
L 1294 2753 
L 1863 2753 
Q 2328 2753 2575 2939 
Q 2822 3125 2822 3475 
Q 2822 3834 2567 4026 
Q 2313 4219 1838 4219 
Q 1578 4219 1281 4162 
Q 984 4106 628 3988 
L 628 4550 
Q 988 4650 1302 4700 
Q 1616 4750 1894 4750 
Q 2613 4750 3031 4423 
Q 3450 4097 3450 3541 
Q 3450 3153 3228 2886 
Q 3006 2619 2597 2516 
z
" transform="scale(0.015625)"/>
       </defs>
       <use xlink:href="#DejaVuSans-33"/>
      </g>
     </g>
    </g>
    <g id="xtick_4">
     <g id="line2d_4">
      <g>
       <use xlink:href="#ma68a8e90e2" x="237.214164" y="173.52" style="stroke: #000000; stroke-width: 0.8"/>
      </g>
     </g>
     <g id="text_4">
      <!-- 4 -->
      <g transform="translate(234.032914 188.118438) scale(0.1 -0.1)">
       <defs>
        <path id="DejaVuSans-34" d="M 2419 4116 
L 825 1625 
L 2419 1625 
L 2419 4116 
z
M 2253 4666 
L 3047 4666 
L 3047 1625 
L 3713 1625 
L 3713 1100 
L 3047 1100 
L 3047 0 
L 2419 0 
L 2419 1100 
L 313 1100 
L 313 1709 
L 2253 4666 
z
" transform="scale(0.015625)"/>
       </defs>
       <use xlink:href="#DejaVuSans-34"/>
      </g>
     </g>
    </g>
   </g>
   <g id="matplotlib.axis_2">
    <g id="ytick_1">
     <g id="line2d_5">
      <defs>
       <path id="m395e77a044" d="M 0 0 
L -3.5 0 
" style="stroke: #000000; stroke-width: 0.8"/>
      </defs>
      <g>
       <use xlink:href="#m395e77a044" x="41.667188" y="158.935722" style="stroke: #000000; stroke-width: 0.8"/>
      </g>
     </g>
     <g id="text_5">
      <!-- −120 -->
      <g transform="translate(7.2 162.734941) scale(0.1 -0.1)">
       <defs>
        <path id="DejaVuSans-2212" d="M 678 2272 
L 4684 2272 
L 4684 1741 
L 678 1741 
L 678 2272 
z
" transform="scale(0.015625)"/>
        <path id="DejaVuSans-30" d="M 2034 4250 
Q 1547 4250 1301 3770 
Q 1056 3291 1056 2328 
Q 1056 1369 1301 889 
Q 1547 409 2034 409 
Q 2525 409 2770 889 
Q 3016 1369 3016 2328 
Q 3016 3291 2770 3770 
Q 2525 4250 2034 4250 
z
M 2034 4750 
Q 2819 4750 3233 4129 
Q 3647 3509 3647 2328 
Q 3647 1150 3233 529 
Q 2819 -91 2034 -91 
Q 1250 -91 836 529 
Q 422 1150 422 2328 
Q 422 3509 836 4129 
Q 1250 4750 2034 4750 
z
" transform="scale(0.015625)"/>
       </defs>
       <use xlink:href="#DejaVuSans-2212"/>
       <use xlink:href="#DejaVuSans-31" transform="translate(83.789062 0)"/>
       <use xlink:href="#DejaVuSans-32" transform="translate(147.412109 0)"/>
       <use xlink:href="#DejaVuSans-30" transform="translate(211.035156 0)"/>
      </g>
     </g>
    </g>
    <g id="ytick_2">
     <g id="line2d_6">
      <g>
       <use xlink:href="#m395e77a044" x="41.667188" y="135.30901" style="stroke: #000000; stroke-width: 0.8"/>
      </g>
     </g>
     <g id="text_6">
      <!-- −100 -->
      <g transform="translate(7.2 139.108229) scale(0.1 -0.1)">
       <use xlink:href="#DejaVuSans-2212"/>
       <use xlink:href="#DejaVuSans-31" transform="translate(83.789062 0)"/>
       <use xlink:href="#DejaVuSans-30" transform="translate(147.412109 0)"/>
       <use xlink:href="#DejaVuSans-30" transform="translate(211.035156 0)"/>
      </g>
     </g>
    </g>
    <g id="ytick_3">
     <g id="line2d_7">
      <g>
       <use xlink:href="#m395e77a044" x="41.667188" y="111.682298" style="stroke: #000000; stroke-width: 0.8"/>
      </g>
     </g>
     <g id="text_7">
      <!-- −80 -->
      <g transform="translate(13.5625 115.481517) scale(0.1 -0.1)">
       <defs>
        <path id="DejaVuSans-38" d="M 2034 2216 
Q 1584 2216 1326 1975 
Q 1069 1734 1069 1313 
Q 1069 891 1326 650 
Q 1584 409 2034 409 
Q 2484 409 2743 651 
Q 3003 894 3003 1313 
Q 3003 1734 2745 1975 
Q 2488 2216 2034 2216 
z
M 1403 2484 
Q 997 2584 770 2862 
Q 544 3141 544 3541 
Q 544 4100 942 4425 
Q 1341 4750 2034 4750 
Q 2731 4750 3128 4425 
Q 3525 4100 3525 3541 
Q 3525 3141 3298 2862 
Q 3072 2584 2669 2484 
Q 3125 2378 3379 2068 
Q 3634 1759 3634 1313 
Q 3634 634 3220 271 
Q 2806 -91 2034 -91 
Q 1263 -91 848 271 
Q 434 634 434 1313 
Q 434 1759 690 2068 
Q 947 2378 1403 2484 
z
M 1172 3481 
Q 1172 3119 1398 2916 
Q 1625 2713 2034 2713 
Q 2441 2713 2670 2916 
Q 2900 3119 2900 3481 
Q 2900 3844 2670 4047 
Q 2441 4250 2034 4250 
Q 1625 4250 1398 4047 
Q 1172 3844 1172 3481 
z
" transform="scale(0.015625)"/>
       </defs>
       <use xlink:href="#DejaVuSans-2212"/>
       <use xlink:href="#DejaVuSans-38" transform="translate(83.789062 0)"/>
       <use xlink:href="#DejaVuSans-30" transform="translate(147.412109 0)"/>
      </g>
     </g>
    </g>
    <g id="ytick_4">
     <g id="line2d_8">
      <g>
       <use xlink:href="#m395e77a044" x="41.667188" y="88.055586" style="stroke: #000000; stroke-width: 0.8"/>
      </g>
     </g>
     <g id="text_8">
      <!-- −60 -->
      <g transform="translate(13.5625 91.854805) scale(0.1 -0.1)">
       <defs>
        <path id="DejaVuSans-36" d="M 2113 2584 
Q 1688 2584 1439 2293 
Q 1191 2003 1191 1497 
Q 1191 994 1439 701 
Q 1688 409 2113 409 
Q 2538 409 2786 701 
Q 3034 994 3034 1497 
Q 3034 2003 2786 2293 
Q 2538 2584 2113 2584 
z
M 3366 4563 
L 3366 3988 
Q 3128 4100 2886 4159 
Q 2644 4219 2406 4219 
Q 1781 4219 1451 3797 
Q 1122 3375 1075 2522 
Q 1259 2794 1537 2939 
Q 1816 3084 2150 3084 
Q 2853 3084 3261 2657 
Q 3669 2231 3669 1497 
Q 3669 778 3244 343 
Q 2819 -91 2113 -91 
Q 1303 -91 875 529 
Q 447 1150 447 2328 
Q 447 3434 972 4092 
Q 1497 4750 2381 4750 
Q 2619 4750 2861 4703 
Q 3103 4656 3366 4563 
z
" transform="scale(0.015625)"/>
       </defs>
       <use xlink:href="#DejaVuSans-2212"/>
       <use xlink:href="#DejaVuSans-36" transform="translate(83.789062 0)"/>
       <use xlink:href="#DejaVuSans-30" transform="translate(147.412109 0)"/>
      </g>
     </g>
    </g>
    <g id="ytick_5">
     <g id="line2d_9">
      <g>
       <use xlink:href="#m395e77a044" x="41.667188" y="64.428874" style="stroke: #000000; stroke-width: 0.8"/>
      </g>
     </g>
     <g id="text_9">
      <!-- −40 -->
      <g transform="translate(13.5625 68.228093) scale(0.1 -0.1)">
       <use xlink:href="#DejaVuSans-2212"/>
       <use xlink:href="#DejaVuSans-34" transform="translate(83.789062 0)"/>
       <use xlink:href="#DejaVuSans-30" transform="translate(147.412109 0)"/>
      </g>
     </g>
    </g>
    <g id="ytick_6">
     <g id="line2d_10">
      <g>
       <use xlink:href="#m395e77a044" x="41.667188" y="40.802163" style="stroke: #000000; stroke-width: 0.8"/>
      </g>
     </g>
     <g id="text_10">
      <!-- −20 -->
      <g transform="translate(13.5625 44.601381) scale(0.1 -0.1)">
       <use xlink:href="#DejaVuSans-2212"/>
       <use xlink:href="#DejaVuSans-32" transform="translate(83.789062 0)"/>
       <use xlink:href="#DejaVuSans-30" transform="translate(147.412109 0)"/>
      </g>
     </g>
    </g>
    <g id="ytick_7">
     <g id="line2d_11">
      <g>
       <use xlink:href="#m395e77a044" x="41.667188" y="17.175451" style="stroke: #000000; stroke-width: 0.8"/>
      </g>
     </g>
     <g id="text_11">
      <!-- 0 -->
      <g transform="translate(28.304688 20.974669) scale(0.1 -0.1)">
       <use xlink:href="#DejaVuSans-30"/>
      </g>
     </g>
    </g>
   </g>
   <g id="line2d_12">
    <path d="M 51.812642 96.957425 
L 51.915643 97.137682 
L 51.925943 97.065579 
L 51.969718 96.957425 
L 52.041819 96.993476 
L 52.14997 97.101631 
L 52.11907 96.957425 
L 52.15512 97.029528 
L 52.21177 96.957425 
L 52.167995 97.065579 
L 52.265846 96.993476 
L 52.373997 97.065579 
L 52.312196 96.921373 
L 52.376572 97.029528 
L 52.484723 96.921373 
L 52.386872 97.065579 
L 52.487298 96.957425 
L 52.590298 97.065579 
L 52.505323 96.921373 
L 52.600599 97.029528 
L 52.631499 97.101631 
L 52.742225 97.209785 
L 52.641799 97.029528 
L 52.7448 97.173734 
L 52.8066 97.101631 
L 52.7551 97.245837 
L 52.850376 97.245837 
L 53.205728 97.173734 
L 53.301004 97.101631 
L 53.228904 97.281888 
L 53.316454 97.173734 
L 53.43233 97.029528 
L 53.434905 97.065579 
L 53.463231 97.137682 
L 53.537906 96.921373 
L 53.543056 96.993476 
L 53.646057 96.84927 
L 53.550781 97.029528 
L 53.656357 96.885322 
L 53.658932 96.921373 
L 53.743908 96.741116 
L 53.761933 96.84927 
L 53.867509 96.705064 
L 53.877809 96.777167 
L 54.171361 96.705064 
L 54.204837 96.560858 
L 54.282087 96.669013 
L 54.552465 96.741116 
L 54.61684 96.813219 
L 54.573065 96.669013 
L 54.66319 96.741116 
L 54.66834 96.669013 
L 54.755891 96.84927 
L 54.766191 96.813219 
L 54.866617 96.993476 
L 54.884642 96.957425 
L 54.977343 96.813219 
L 54.997943 96.885322 
L 55.111244 96.993476 
L 55.113819 96.957425 
L 55.518097 96.84927 
L 55.577323 96.741116 
L 55.613373 96.921373 
L 55.628823 96.84927 
L 55.729249 96.957425 
L 55.744699 96.921373 
L 55.77045 96.84927 
L 55.85285 96.741116 
L 55.803925 96.885322 
L 55.881175 96.813219 
L 55.899201 96.705064 
L 55.914651 96.777167 
L 56.009927 96.669013 
L 56.115502 96.777167 
L 56.015077 96.632961 
L 56.123227 96.705064 
L 56.156703 96.632961 
L 56.223653 96.813219 
L 56.226228 96.777167 
L 56.231378 96.813219 
L 56.233953 96.669013 
L 56.331804 96.705064 
L 56.342104 96.741116 
L 56.450255 96.59691 
L 56.741233 96.669013 
L 56.774708 96.741116 
L 56.792733 96.560858 
L 56.849383 96.59691 
L 56.962684 96.669013 
L 57.119761 109.214936 
L 57.518889 125.40206 
L 57.60644 128.178026 
L 57.820166 133.946266 
L 58.172944 140.723948 
L 58.646748 145.80721 
L 58.675073 145.915365 
L 58.8476 146.852704 
L 58.850175 146.816652 
L 58.891375 146.888755 
L 58.90425 146.852704 
L 59.017551 147.321373 
L 59.063902 147.429528 
L 59.092227 147.465579 
L 59.148877 147.285322 
L 59.172052 147.393476 
L 59.241578 147.465579 
L 59.326554 147.609785 
L 59.352304 147.501631 
L 59.47333 147.429528 
L 59.511955 147.24927 
L 59.586631 147.321373 
L 59.684482 147.609785 
L 59.710232 147.501631 
L 59.733407 147.357425 
L 59.790058 147.537682 
L 59.818383 147.537682 
L 60.016659 147.609785 
L 60.091335 147.753991 
L 60.12996 147.71794 
L 60.227811 147.573734 
L 60.142835 147.753991 
L 60.245836 147.609785 
L 60.256136 147.681888 
L 60.323087 147.429528 
L 60.343687 147.465579 
L 60.454413 147.321373 
L 60.459563 147.357425 
L 60.477588 147.429528 
L 60.547114 147.105064 
L 60.554839 147.141116 
L 60.637239 146.99691 
L 60.670715 147.032961 
L 60.768566 147.141116 
L 60.784016 147.105064 
L 60.894742 146.924807 
L 60.899892 146.99691 
L 60.902467 147.032961 
L 60.995167 146.816652 
L 60.997742 146.816652 
L 61.280995 146.924807 
L 61.32992 146.960858 
L 61.376271 146.780601 
L 61.383996 146.816652 
L 61.505022 146.492189 
L 61.538497 146.600343 
L 61.602872 146.384034 
L 61.608022 146.456137 
L 61.716173 146.27588 
L 61.721323 146.347983 
L 61.772824 146.239828 
L 61.8784 146.095622 
L 61.788274 146.311931 
L 61.891275 146.131674 
L 62.017451 146.023519 
L 62.115302 145.80721 
L 62.030326 146.059571 
L 62.135902 145.915365 
L 62.259503 145.843262 
L 62.370229 145.735107 
L 62.362504 145.879313 
L 62.372804 145.771159 
L 62.390829 145.699056 
L 62.403704 145.735107 
L 62.50413 145.626953 
L 62.596831 145.80721 
L 62.617431 145.735107 
L 62.620006 145.626953 
L 62.692106 145.879313 
L 62.723007 145.879313 
L 63.013984 145.771159 
L 63.12471 145.699056 
L 63.024284 145.843262 
L 63.127285 145.735107 
L 63.441438 145.843262 
L 63.508388 145.771159 
L 63.559888 145.951416 
L 63.562464 145.915365 
L 63.655164 146.059571 
L 63.662889 146.023519 
L 63.680914 146.095622 
L 63.76074 145.843262 
L 63.874041 145.590901 
L 63.77619 145.879313 
L 63.886916 145.626953 
L 63.920391 145.699056 
L 63.971892 145.518798 
L 63.995067 145.626953 
L 64.098068 145.446695 
L 64.031117 145.699056 
L 64.108368 145.482747 
L 64.198494 145.663004 
L 64.229394 145.626953 
L 64.548697 145.699056 
L 64.566722 145.771159 
L 64.558997 145.626953 
L 64.659423 145.699056 
L 64.741823 145.518798 
L 64.672298 145.771159 
L 64.775298 145.626953 
L 64.824224 145.55485 
L 64.901475 145.482747 
L 64.862849 145.590901 
L 64.93495 145.55485 
L 65.0019 145.410644 
L 65.048251 145.518798 
L 65.143526 145.626953 
L 65.269703 145.843262 
L 65.292878 145.735107 
L 65.303178 145.879313 
L 65.383003 145.771159 
L 65.398454 145.879313 
L 65.488579 145.699056 
L 65.493729 145.771159 
L 65.609605 145.410644 
L 65.61218 145.446695 
L 65.686856 145.338541 
L 65.733206 145.266438 
L 65.766682 145.410644 
L 65.789857 145.410644 
L 65.913458 145.626953 
L 65.998434 145.482747 
L 66.024184 145.626953 
L 66.057659 145.482747 
L 66.137485 145.590901 
L 66.22761 145.518798 
L 66.294561 145.446695 
L 66.250786 145.590901 
L 66.335761 145.590901 
L 66.82759 145.518798 
L 66.835315 145.446695 
L 66.889391 145.626953 
L 66.938316 145.518798 
L 67.134018 145.626953 
L 67.242169 145.771159 
L 67.149468 145.590901 
L 67.252469 145.735107 
L 67.270494 144.148841 
L 67.520271 128.466438 
L 67.896224 117.326524 
L 68.972583 103.80721 
L 68.993183 103.699056 
L 69.145109 102.545408 
L 69.147684 102.581459 
L 69.21721 102.004635 
L 69.23266 101.896481 
L 69.23781 101.932532 
L 69.418062 100.850987 
L 69.441237 100.778884 
L 69.575138 100.129957 
L 69.590588 100.021803 
L 69.732214 99.48103 
L 69.737364 99.517082 
L 69.768264 99.408927 
L 69.915041 98.904206 
L 69.938216 98.796052 
L 69.951091 98.868155 
L 70.087567 98.255279 
L 70.100442 98.147124 
L 70.110742 98.183176 
L 70.229193 97.858712 
L 70.242068 97.894764 
L 70.298719 97.5703 
L 70.321894 97.606352 
L 70.332194 97.498197 
L 70.339919 97.534249 
L 70.45837 97.281888 
L 70.533046 97.209785 
L 70.651497 96.84927 
L 70.654072 96.885322 
L 70.723597 96.813219 
L 70.849773 96.380601 
L 70.857498 96.452704 
L 70.934749 96.200343 
L 70.955349 96.236395 
L 70.970799 96.12824 
L 71.09955 95.87588 
L 71.1047 95.911931 
L 71.192251 95.695622 
L 71.197401 95.731674 
L 71.305552 95.479313 
L 71.321002 95.551416 
L 71.344177 95.479313 
L 71.444603 95.299056 
L 71.457478 95.371159 
L 71.596529 95.263004 
L 71.60683 95.190901 
L 71.65318 95.371159 
L 71.707255 95.263004 
L 71.722706 95.371159 
L 71.807681 95.15485 
L 71.812831 95.15485 
L 71.877207 95.046695 
L 71.890082 95.082747 
L 72.003383 94.830386 
L 72.011108 94.902489 
L 72.080633 94.68618 
L 72.114109 94.830386 
L 72.163034 94.722232 
L 72.209385 94.650129 
L 72.175909 94.794335 
L 72.271185 94.722232 
L 72.32526 94.794335 
L 72.369036 94.614077 
L 72.379336 94.68618 
L 72.497787 94.325665 
L 72.500362 94.397768 
L 72.502937 94.43382 
L 72.585338 94.217511 
L 72.598213 94.217511 
L 72.631688 94.145408 
L 72.724389 93.893047 
L 72.747564 93.929099 
L 72.757864 93.96515 
L 72.82739 93.784893 
L 72.85314 93.856996 
L 72.945841 93.820944 
L 72.90464 93.929099 
L 72.961291 93.893047 
L 72.987041 93.96515 
L 72.994766 93.784893 
L 73.069442 93.856996 
L 73.074592 93.893047 
L 73.195618 93.640687 
L 73.311494 93.568584 
L 73.414494 93.352275 
L 73.42737 93.388326 
L 73.51492 93.460429 
L 73.486595 93.280172 
L 73.54067 93.424378 
L 73.581871 93.496481 
L 73.684872 93.604635 
L 73.607621 93.460429 
L 73.695172 93.568584 
L 73.896023 93.676738 
L 73.901173 93.640687 
L 74.024774 93.929099 
L 74.12005 93.820944 
L 74.256526 93.099914 
L 74.295152 93.027811 
L 74.411028 92.883605 
L 74.431628 92.811502 
L 74.524329 92.955708 
L 74.526904 92.919657 
L 74.614454 93.172017 
L 74.619604 93.172017 
L 74.67883 93.280172 
L 74.794706 93.496481 
L 74.68398 93.24412 
L 74.802431 93.460429 
L 74.807581 93.424378 
L 74.887406 93.71279 
L 74.897707 93.676738 
L 74.959507 93.748841 
L 75.075383 94.073305 
L 75.103708 94.037253 
L 75.147484 94.217511 
L 75.180959 94.109356 
L 75.286535 94.289614 
L 75.204134 94.073305 
L 75.296835 94.181459 
L 75.386961 94.289614 
L 75.484811 94.361717 
L 75.425586 94.253562 
L 75.497687 94.325665 
L 75.610987 94.109356 
L 75.613562 94.145408 
L 75.621288 94.181459 
L 75.701113 93.929099 
L 75.713988 94.001202 
L 75.778364 93.96515 
L 75.780939 93.820944 
L 75.88909 93.856996 
L 76.038441 93.856996 
L 76.048741 94.001202 
L 76.149167 93.929099 
L 76.190367 94.037253 
L 76.203242 93.96515 
L 76.308818 94.145408 
L 76.362894 94.073305 
L 76.383494 93.96515 
L 76.465894 94.289614 
L 76.53542 94.325665 
L 76.589495 94.109356 
L 76.692496 94.181459 
L 76.597221 94.073305 
L 76.702796 94.145408 
L 77.1354 94.253562 
L 77.189475 94.397768 
L 77.253851 94.361717 
L 77.428952 94.289614 
L 77.431527 94.217511 
L 77.526803 94.43382 
L 77.537103 94.361717 
L 77.658129 94.505923 
L 77.879581 94.397768 
L 77.938807 94.325665 
L 77.949107 94.469871 
L 77.990307 94.361717 
L 78.039232 94.43382 
L 78.080433 94.253562 
L 78.098458 94.325665 
L 78.399735 94.43382 
L 78.428061 94.469871 
L 78.484711 94.325665 
L 78.502736 94.397768 
L 78.543937 94.253562 
L 78.616037 94.325665 
L 79.200567 94.397768 
L 79.280393 94.505923 
L 79.303568 94.361717 
L 79.308718 94.397768 
L 79.339618 94.361717 
L 79.396269 94.541974 
L 79.414294 94.469871 
L 79.52502 94.578026 
L 79.419444 94.43382 
L 79.53017 94.541974 
L 80.086374 94.650129 
L 80.16105 94.68618 
L 80.1868 94.541974 
L 80.1971 94.650129 
L 80.20225 94.614077 
L 80.289801 94.794335 
L 80.307826 94.650129 
L 80.408252 94.758283 
L 80.421127 94.68618 
L 80.529278 94.902489 
L 80.683779 95.010644 
L 80.753305 95.226953 
L 80.688929 94.974592 
L 80.804805 95.190901 
L 80.902656 95.082747 
L 80.915531 95.190901 
L 80.985057 95.15485 
L 81.082907 95.010644 
L 81.098357 95.046695 
L 81.203933 95.118798 
L 81.129258 94.974592 
L 81.211658 95.082747 
L 81.317234 95.010644 
L 81.216808 95.118798 
L 81.322384 95.082747 
L 81.476886 95.15485 
L 81.484611 95.226953 
L 81.551561 95.082747 
L 81.585036 95.082747 
L 81.600487 95.118798 
L 81.703487 94.938541 
L 81.803913 95.010644 
L 81.754988 94.866438 
L 81.814213 94.974592 
L 81.940389 94.758283 
L 81.99189 94.830386 
L 82.004765 94.68618 
L 82.051115 94.758283 
L 82.128366 94.722232 
L 82.087166 94.866438 
L 82.161841 94.758283 
L 82.249392 94.902489 
L 82.275142 94.794335 
L 82.362693 94.68618 
L 82.326643 94.866438 
L 82.385868 94.758283 
L 82.470844 94.866438 
L 82.527494 94.830386 
L 82.584145 94.938541 
L 82.635645 94.866438 
L 82.64337 95.010644 
L 82.694871 94.938541 
L 82.730921 99.012361 
L 82.998723 123.275021 
L 83.410726 144.36515 
L 84.142032 161.741974 
L 84.147183 161.850129 
L 84.319709 163.580601 
L 84.48966 164.409785 
L 84.502535 164.445837 
L 84.623561 164.878455 
L 84.687937 164.986609 
L 84.821838 165.311073 
L 84.852738 165.347124 
L 84.971189 165.671588 
L 85.035565 165.779742 
L 85.10509 165.923948 
L 85.040715 165.743691 
L 85.148866 165.887897 
L 85.246717 165.599485 
L 85.267317 165.635536 
L 85.303367 165.707639 
L 85.360017 165.527382 
L 85.372893 165.563433 
L 85.406368 165.49133 
L 85.408943 165.419227 
L 85.486194 165.563433 
L 85.517094 165.49133 
L 85.519669 165.455279 
L 85.532544 165.635536 
L 85.620095 165.563433 
L 85.743696 165.779742 
L 85.802921 165.635536 
L 85.772021 165.851845 
L 85.856997 165.743691 
L 85.965147 165.779742 
L 86.065573 165.887897 
L 86.075873 165.815794 
L 86.142824 165.96 
L 86.191749 165.887897 
L 86.27415 165.779742 
L 86.29475 165.851845 
L 86.392601 165.671588 
L 86.498177 165.563433 
L 86.583153 165.419227 
L 86.611478 165.49133 
L 86.647528 165.599485 
L 86.701603 165.455279 
L 86.722204 165.49133 
L 86.825205 165.311073 
L 86.83808 165.347124 
L 86.86383 165.455279 
L 86.94108 165.275021 
L 86.94623 165.311073 
L 87.064681 164.950558 
L 87.067256 165.022661 
L 87.116182 164.950558 
L 87.131632 164.7703 
L 87.226908 164.914506 
L 87.237208 164.986609 
L 87.273258 164.842403 
L 87.327334 164.842403 
L 87.425184 164.698197 
L 87.347934 164.878455 
L 87.440635 164.734249 
L 87.561661 164.986609 
L 87.566811 164.950558 
L 87.584836 165.058712 
L 87.695562 165.166867 
L 87.608011 165.022661 
L 87.698137 165.094764 
L 87.741912 165.166867 
L 87.814013 164.986609 
L 87.855213 165.022661 
L 87.873238 164.878455 
L 87.917013 164.878455 
L 88.05349 164.7703 
L 88.177091 164.481888 
L 88.071515 164.806352 
L 88.182241 164.51794 
L 88.223441 164.445837 
L 88.347042 164.085322 
L 88.457768 163.79691 
L 88.470643 163.832961 
L 88.504118 163.905064 
L 88.553044 163.724807 
L 88.576219 163.724807 
L 88.66892 163.616652 
L 88.784796 163.32824 
L 88.797671 163.364292 
L 88.820846 163.256137 
L 88.954747 162.787468 
L 88.838871 163.292189 
L 88.957322 162.823519 
L 88.959897 162.895622 
L 89.055173 162.499056 
L 89.057748 162.535107 
L 89.093798 162.426953 
L 89.227699 161.88618 
L 89.240574 161.922232 
L 89.2998 161.814077 
L 89.451726 161.237253 
L 89.469751 161.273305 
L 89.510952 160.948841 
L 89.539277 160.984893 
L 89.652578 160.624378 
L 89.660303 160.660429 
L 89.698928 160.588326 
L 89.825104 160.155708 
L 89.87918 160.047554 
L 90.015656 159.687039 
L 90.020806 159.759142 
L 90.098056 159.182318 
L 90.108356 159.218369 
L 90.231957 158.569442 
L 90.239683 158.605494 
L 90.260283 158.497339 
L 90.435384 157.56 
L 90.437959 157.596052 
L 90.497185 157.307639 
L 90.53066 157.343691 
L 90.55641 157.235536 
L 90.695461 156.802918 
L 90.710911 156.83897 
L 90.723787 156.694764 
L 90.806187 156.802918 
L 90.888588 156.550558 
L 90.927213 156.658712 
L 90.937513 156.730815 
L 90.994164 156.550558 
L 91.027639 156.586609 
L 91.148665 156.226094 
L 91.20274 156.262146 
L 91.238791 156.045837 
L 91.246516 156.081888 
L 91.357242 155.793476 
L 91.364967 155.865579 
L 91.501443 155.469013 
L 91.522043 155.505064 
L 91.591569 155.252704 
L 91.596719 155.288755 
L 91.717745 154.92824 
L 91.72547 155.000343 
L 91.728045 155.036395 
L 91.810445 154.711931 
L 91.81817 154.747983 
L 91.954647 154.279313 
L 91.959797 154.315365 
L 91.980397 154.20721 
L 92.111723 153.918798 
L 92.114298 153.990901 
L 92.194124 153.666438 
L 92.212149 153.738541 
L 92.3306 153.378026 
L 92.374375 153.269871 
L 92.428451 153.305923 
L 92.500551 153.053562 
L 92.505701 153.089614 
L 92.570077 152.801202 
L 92.593252 152.801202 
L 92.719428 152.548841 
L 92.758053 152.620944 
L 92.786378 152.476738 
L 92.822429 152.476738 
L 92.95633 152.152275 
L 93.015555 152.080172 
L 93.134006 151.719657 
L 93.136581 151.755708 
L 93.218982 151.431245 
L 93.229282 151.539399 
L 93.368333 151.034678 
L 93.373483 151.07073 
L 93.422409 150.962575 
L 93.553735 150.566009 
L 93.427559 150.998627 
L 93.558885 150.60206 
L 93.610385 150.493906 
L 93.757161 149.989185 
L 93.762311 150.061288 
L 93.818962 149.772876 
L 93.852437 149.772876 
L 93.958013 149.376309 
L 93.988913 149.412361 
L 94.045564 149.304206 
L 94.050714 149.340258 
L 94.164015 149.196052 
L 94.22839 149.087897 
L 94.359716 148.763433 
L 94.362291 148.835536 
L 94.449842 148.547124 
L 94.462717 148.619227 
L 94.599193 148.186609 
L 94.601768 148.222661 
L 94.604343 148.258712 
L 94.686744 147.9703 
L 94.697044 148.006352 
L 94.740819 147.898197 
L 94.75112 147.9703 
L 94.879871 147.501631 
L 94.939096 147.393476 
L 95.060122 147.141116 
L 94.954546 147.429528 
L 95.062697 147.177167 
L 95.067847 147.213219 
L 95.152823 146.888755 
L 95.157973 146.960858 
L 95.286724 146.564292 
L 95.294449 146.600343 
L 95.338224 146.492189 
L 95.45925 146.203777 
L 95.598302 145.771159 
L 95.621477 145.843262 
L 95.688427 145.518798 
L 95.693577 145.55485 
L 95.721903 145.446695 
L 95.745078 145.518798 
L 95.858379 145.08618 
L 95.933054 144.978026 
L 96.05408 144.725665 
L 96.05923 144.761717 
L 96.06438 144.83382 
L 96.131331 144.545408 
L 96.154506 144.617511 
L 96.278107 144.256996 
L 96.360508 144.148841 
L 96.494409 143.752275 
L 96.496984 143.788326 
L 96.548484 143.716223 
L 96.672085 143.355708 
L 96.687535 143.39176 
L 96.751911 143.103348 
L 96.767361 143.139399 
L 96.903837 142.742833 
L 96.911562 142.850987 
L 96.973363 142.67073 
L 97.011988 142.67073 
L 97.014563 142.706781 
L 97.099539 142.418369 
L 97.102114 142.490472 
L 97.215415 142.093906 
L 97.21799 142.20206 
L 97.220565 142.238112 
L 97.27979 141.877597 
L 97.308116 141.913648 
L 97.431717 141.517082 
L 97.444592 141.553133 
L 97.480642 141.444979 
L 97.624843 140.976309 
L 97.676344 140.868155 
L 97.681494 140.904206 
L 97.80252 140.543691 
L 97.805095 140.651845 
L 97.90552 140.327382 
L 97.908095 140.327382 
L 97.967321 140.219227 
L 98.103797 139.822661 
L 98.126972 139.858712 
L 98.196498 139.606352 
L 98.199073 139.642403 
L 98.340699 139.209785 
L 98.369024 139.101631 
L 98.523526 138.452704 
L 98.526101 138.488755 
L 98.603351 138.200343 
L 98.618801 138.236395 
L 98.737252 137.695622 
L 98.739827 137.767725 
L 98.755277 137.695622 
L 98.873728 137.371159 
L 98.922654 137.299056 
L 99.03338 137.046695 
L 99.03853 137.118798 
L 99.041105 137.15485 
L 99.11578 136.902489 
L 99.138956 136.974592 
L 99.288307 136.325665 
L 99.293457 136.361717 
L 99.326932 136.253562 
L 99.447958 135.96515 
L 99.553534 135.640687 
L 99.576709 135.676738 
L 99.587009 135.71279 
L 99.66426 135.532532 
L 99.677135 135.532532 
L 99.800736 135.172017 
L 99.870262 135.063863 
L 99.993863 134.703348 
L 100.042788 134.631245 
L 100.161239 134.27073 
L 100.174114 134.306781 
L 100.251365 133.982318 
L 100.413591 133.225236 
L 100.426466 133.261288 
L 100.493417 132.82867 
L 100.495992 132.82867 
L 100.629893 132.504206 
L 100.642768 132.432103 
L 100.650493 132.468155 
L 100.771519 131.927382 
L 100.781819 131.999485 
L 100.86937 131.63897 
L 100.871945 131.63897 
L 100.89512 131.530815 
L 101.013571 131.1703 
L 101.090822 131.134249 
L 101.204123 130.845837 
L 101.214423 130.91794 
L 101.286523 130.557425 
L 101.299398 130.629528 
L 101.309698 130.593476 
L 101.430724 130.160858 
L 101.433299 130.19691 
L 101.5157 129.872446 
L 101.52085 129.872446 
L 101.5569 129.800343 
L 101.667626 129.403777 
L 101.680501 129.439828 
L 101.695952 129.367725 
L 101.811828 129.00721 
L 101.814403 129.043262 
L 101.832428 129.151416 
L 101.917403 128.899056 
L 101.919978 128.899056 
L 101.981779 128.826953 
L 102.102805 128.358283 
L 102.10538 128.394335 
L 102.190356 128.178026 
L 102.205806 128.28618 
L 102.326832 127.889614 
L 102.329407 127.925665 
L 102.380907 127.853562 
L 102.393782 127.889614 
L 102.501933 127.493047 
L 102.507083 127.601202 
L 102.584334 127.276738 
L 102.597209 127.276738 
L 102.646134 127.240687 
L 102.75686 126.772017 
L 102.76716 126.808069 
L 102.877886 126.555708 
L 102.787761 126.84412 
L 102.893336 126.59176 
L 102.942262 126.519657 
L 102.949987 126.555708 
L 103.058138 126.303348 
L 103.068438 126.375451 
L 103.143113 126.050987 
L 103.148264 126.087039 
L 103.277015 125.546266 
L 103.313065 125.510215 
L 103.436666 124.861288 
L 103.441816 124.897339 
L 103.519067 124.536824 
L 103.526792 124.572876 
L 103.557692 124.464721 
L 103.689018 124.068155 
L 103.562842 124.500773 
L 103.694168 124.104206 
L 103.727643 123.996052 
L 103.871844 123.527382 
L 103.874419 123.563433 
L 103.959395 123.23897 
L 103.96197 123.275021 
L 104.090721 122.950558 
L 104.093296 122.986609 
L 104.147372 122.950558 
L 104.263248 122.626094 
L 104.265823 122.662146 
L 104.330198 122.337682 
L 104.350798 122.337682 
L 104.51045 121.32824 
L 104.53105 121.364292 
L 104.585125 121.256137 
L 104.713876 120.895622 
L 104.716451 120.967725 
L 104.767952 120.859571 
L 104.896703 120.499056 
L 104.899278 120.535107 
L 104.901853 120.571159 
L 104.986829 120.282747 
L 104.991979 120.318798 
L 105.11558 119.958283 
L 105.118155 119.994335 
L 105.19798 119.597768 
L 105.200555 119.597768 
L 105.239181 119.489614 
L 105.378232 119.020944 
L 105.383382 119.129099 
L 105.478658 118.732532 
L 105.501833 118.804635 
L 105.576508 118.552275 
L 105.579083 118.588326 
L 105.640884 118.516223 
L 105.75676 118.083605 
L 105.759335 118.19176 
L 105.805685 118.083605 
L 105.947311 117.578884 
L 105.810835 118.119657 
L 105.949887 117.614936 
L 106.011687 117.506781 
L 106.150738 116.929957 
L 106.158463 117.00206 
L 106.184213 116.893906 
L 106.33099 116.317082 
L 106.333565 116.353133 
L 106.34644 116.353133 
L 106.462316 115.848412 
L 106.472616 115.884464 
L 106.536991 115.451845 
L 106.547291 115.523948 
L 106.714668 114.730815 
L 106.719818 114.766867 
L 106.786768 114.298197 
L 106.794493 114.298197 
L 106.96187 113.505064 
L 106.979895 113.39691 
L 107.121521 112.964292 
L 107.152421 112.856137 
L 107.270872 112.351416 
L 107.291473 112.423519 
L 107.306923 112.459571 
L 107.368723 112.20721 
L 107.384173 112.20721 
L 107.525799 111.774592 
L 107.554125 111.702489 
L 107.680301 111.269871 
L 107.682876 111.341974 
L 107.752401 110.873305 
L 107.778152 110.945408 
L 107.919778 110.51279 
L 107.922353 110.548841 
L 108.007328 110.188326 
L 108.045954 110.080172 
L 108.17213 109.359142 
L 108.200455 109.250987 
L 108.329206 108.566009 
L 108.331781 108.638112 
L 108.362681 108.566009 
L 108.494007 107.88103 
L 108.496582 107.917082 
L 108.506883 107.917082 
L 108.625333 107.304206 
L 108.627909 107.340258 
L 108.79271 106.547124 
L 108.795285 106.583176 
L 108.880261 106.258712 
L 108.885411 106.294764 
L 109.047637 105.573734 
L 109.055362 105.609785 
L 109.132613 105.24927 
L 109.135188 105.24927 
L 109.153213 105.141116 
L 109.318014 104.27588 
L 109.158363 105.177167 
L 109.323164 104.311931 
L 109.36179 104.239828 
L 109.482816 103.951416 
L 109.521441 103.843262 
L 109.660492 103.446695 
L 109.686242 103.482747 
L 109.742893 103.266438 
L 109.755768 103.266438 
L 109.766068 103.302489 
L 109.889669 102.941974 
L 109.892244 102.978026 
L 109.97207 102.581459 
L 109.97722 102.617511 
L 110.136871 101.788326 
L 109.98237 102.653562 
L 110.144596 101.824378 
L 110.175496 101.716223 
L 110.322272 101.139399 
L 110.329997 101.211502 
L 110.417548 100.742833 
L 110.420123 100.778884 
L 110.451023 100.67073 
L 110.6081 100.021803 
L 110.6287 99.913648 
L 110.6493 99.985751 
L 110.783201 99.300773 
L 110.788351 99.336824 
L 110.860452 98.904206 
L 110.868177 98.976309 
L 111.027828 98.29133 
L 111.030403 98.363433 
L 111.117954 97.966867 
L 111.128254 98.002918 
L 111.251855 97.462146 
L 111.29048 97.390043 
L 111.416656 96.84927 
L 111.419231 96.885322 
L 111.578883 96.200343 
L 111.581458 96.236395 
L 111.656133 95.839828 
L 111.663858 95.839828 
L 111.820935 95.118798 
L 111.82351 95.15485 
L 111.826085 95.190901 
L 111.898185 94.758283 
L 111.903335 94.794335 
L 112.034661 94.217511 
L 112.057837 94.145408 
L 112.186588 93.604635 
L 112.189163 93.640687 
L 112.256113 93.24412 
L 112.268988 93.24412 
L 112.41319 92.703348 
L 112.415765 92.739399 
L 112.462115 92.631245 
L 112.585716 92.090472 
L 112.588291 92.126524 
L 112.670692 91.80206 
L 112.675842 91.874163 
L 112.809743 91.225236 
L 112.814893 91.297339 
L 112.894719 90.900773 
L 112.905019 90.936824 
L 113.04407 90.323948 
L 113.04922 90.396052 
L 113.12647 90.071588 
L 113.136771 90.071588 
L 113.147071 90.107639 
L 113.288697 89.422661 
L 113.304147 89.530815 
L 113.381398 89.206352 
L 113.391698 89.242403 
L 113.520449 88.737682 
L 113.548774 88.629528 
L 113.69555 87.944549 
L 113.70585 87.980601 
L 113.7213 87.908498 
L 113.852626 87.331674 
L 113.880952 87.259571 
L 114.007128 86.790901 
L 114.061203 86.682747 
L 114.213129 86.069871 
L 114.215704 86.105923 
L 114.28008 85.673305 
L 114.292955 85.673305 
L 114.450031 85.024378 
L 114.468056 84.952275 
L 114.591657 84.447554 
L 114.594232 84.519657 
L 114.604533 84.447554 
L 114.712683 83.834678 
L 114.735859 83.87073 
L 114.738434 83.906781 
L 114.815684 83.438112 
L 114.86976 83.329957 
L 115.029411 82.644979 
L 115.068036 82.536824 
L 115.204513 82.140258 
L 115.225113 82.176309 
L 115.276613 81.851845 
L 115.289488 81.851845 
L 115.431114 80.914506 
L 115.433689 80.950558 
L 115.498065 80.445837 
L 115.50579 80.445837 
L 115.598491 80.229528 
L 115.513515 80.481888 
L 115.624241 80.337682 
L 115.655141 80.265579 
L 115.776167 79.905064 
L 115.781317 79.941116 
L 115.855993 79.472446 
L 116.033669 78.463004 
L 116.036244 78.499056 
L 116.061995 78.390901 
L 116.237096 77.489614 
L 116.301472 77.381459 
L 116.489448 76.299914 
L 116.499748 76.19176 
L 116.661974 75.110215 
L 116.682575 75.146266 
L 116.68515 75.182318 
L 116.744375 74.605494 
L 116.74695 74.677597 
L 116.816476 62.347983 
L 116.842226 14.76 
L 116.914327 78.318798 
L 116.999302 85.420944 
L 117.045653 85.024378 
L 117.612157 78.643262 
L 117.625032 78.535107 
L 118.034461 74.172876 
L 118.042186 74.244979 
L 118.049911 74.28103 
L 118.101411 73.523948 
L 118.214712 67.359142 
L 118.253338 15.22867 
L 118.317713 72.550558 
L 118.428439 84.195193 
L 118.456764 83.906781 
L 119.376047 69.666438 
L 119.417247 20.924807 
L 119.424972 16.274163 
L 119.481623 64.43897 
L 119.620674 82.212361 
L 119.625824 82.140258 
L 120.637807 66.854421 
L 120.668707 42.12309 
L 120.691883 17.716223 
L 120.761408 67.287039 
L 120.866984 79.364292 
L 120.903034 79.111931 
L 121.227487 73.09133 
L 121.240362 72.983176 
L 121.886692 63.465579 
L 121.948493 19.374592 
L 122.005143 57.877597 
L 122.144194 77.922232 
L 122.15192 77.814077 
L 122.478947 71.721373 
L 122.484097 71.64927 
L 122.826575 59.427811 
L 122.888376 21.645837 
L 122.945026 54.344549 
L 123.089227 75.506781 
L 123.094377 75.47073 
L 123.117552 75.362575 
L 123.37763 71.180601 
L 124.06001 61.987468 
L 124.121811 62.27588 
L 124.229962 62.744549 
L 124.165586 62.203777 
L 124.245412 62.636395 
L 124.273737 62.708498 
L 124.330387 62.27588 
L 124.343263 62.203777 
L 124.379313 61.735107 
L 124.466864 61.771159 
L 124.490039 61.879313 
L 124.544114 61.302489 
L 124.575014 61.122232 
L 124.626515 61.590901 
L 124.631665 61.590901 
L 124.66514 61.735107 
L 124.724366 61.482747 
L 124.742391 61.626953 
L 124.847967 61.374592 
L 124.752691 61.699056 
L 124.860842 61.446695 
L 124.863417 61.518798 
L 124.950968 61.014077 
L 124.956118 61.050129 
L 125.056543 60.581459 
L 125.084869 60.761717 
L 125.131219 60.905923 
L 125.159544 60.293047 
L 125.236795 58.814936 
L 125.28057 59.427811 
L 125.424771 61.08618 
L 125.429921 61.050129 
L 125.460822 61.302489 
L 125.530347 60.941974 
L 125.535497 60.978026 
L 125.677123 60.220944 
L 125.692574 60.293047 
L 125.695149 60.329099 
L 125.756949 59.64412 
L 125.862525 58.526524 
L 125.919175 58.92309 
L 126.045352 59.64412 
L 126.171528 59.211502 
L 126.184403 59.103348 
L 126.328604 58.346266 
L 126.344054 58.382318 
L 126.411005 58.562575 
L 126.44448 58.238112 
L 126.447055 58.274163 
L 126.614431 56.111073 
L 126.624731 56.327382 
L 126.699407 57.192618 
L 126.745757 56.904206 
L 126.768932 56.651845 
L 126.841033 57.192618 
L 126.846183 57.120515 
L 126.964634 57.841545 
L 126.977509 57.769442 
L 127.072785 57.372876 
L 127.108835 57.444979 
L 127.229861 58.021803 
L 127.247886 57.877597 
L 127.397238 56.615794 
L 127.402388 56.651845 
L 127.428138 56.904206 
L 127.502813 56.507639 
L 127.546589 56.03897 
L 127.621264 56.363433 
L 127.73199 56.868155 
L 127.739715 56.796052 
L 127.765466 56.543691 
L 127.840141 57.22867 
L 127.842716 57.192618 
L 127.917392 57.517082 
L 127.940567 57.336824 
L 128.051293 57.985751 
L 128.082193 57.805494 
L 128.187769 57.661288 
L 128.136269 58.021803 
L 128.200644 57.697339 
L 128.221244 57.733391 
L 128.28562 57.372876 
L 128.288195 57.408927 
L 128.396346 56.002918 
L 128.458146 56.543691 
L 128.501922 56.832103 
L 128.574022 56.615794 
L 128.604923 56.327382 
L 128.666723 56.687897 
L 128.677023 56.687897 
L 128.695048 56.76 
L 128.764574 56.363433 
L 128.767149 56.399485 
L 128.795474 55.930815 
L 128.865 56.76 
L 128.8856 56.868155 
L 128.968001 57.264721 
L 129.014351 57.156567 
L 129.266703 55.173734 
L 129.310478 55.245837 
L 129.343954 55.462146 
L 129.403179 54.885322 
L 129.405754 54.885322 
L 129.52163 54.488755 
L 129.52678 54.59691 
L 129.529355 54.560858 
L 129.596306 55.173734 
L 129.598881 55.101631 
L 129.632356 55.173734 
L 129.683856 54.84927 
L 129.689006 54.84927 
L 129.696731 54.813219 
L 129.761107 55.390043 
L 129.815182 55.606352 
L 129.879558 55.498197 
L 129.889858 55.426094 
L 129.998009 55.101631 
L 130.008309 55.209785 
L 130.031484 55.31794 
L 130.134485 54.957425 
L 130.13706 55.029528 
L 130.219461 54.344549 
L 130.373962 51.893047 
L 130.435763 51.96515 
L 130.636614 54.488755 
L 130.74219 55.31794 
L 130.79369 55.209785 
L 130.948192 53.947983 
L 130.999692 54.164292 
L 131.035742 53.731674 
L 131.040893 53.731674 
L 131.154193 52.253562 
L 131.177369 52.614077 
L 131.257194 53.335107 
L 131.324145 53.118798 
L 131.32672 53.082747 
L 131.370495 53.984034 
L 131.476071 54.885322 
L 131.509546 54.813219 
L 131.514696 54.777167 
L 131.537872 55.029528 
L 131.612547 54.885322 
L 131.627997 54.957425 
L 131.694948 54.164292 
L 131.697523 54.200343 
L 131.751598 54.092189 
L 131.937 52.722232 
L 131.9576 52.758283 
L 131.975625 52.830386 
L 132.034851 53.443262 
L 132.094076 53.15485 
L 132.207377 52.722232 
L 132.104376 53.226953 
L 132.222827 52.902489 
L 132.323253 53.587468 
L 132.361878 53.335107 
L 132.549855 52.253562 
L 132.591055 52.145408 
L 132.621956 51.96515 
L 132.678606 52.469871 
L 132.681181 52.43382 
L 132.696631 52.505923 
L 132.864007 54.12824 
L 132.905208 54.056137 
L 133.095759 51.099914 
L 133.113785 51.280172 
L 133.257986 52.325665 
L 133.276011 52.001202 
L 133.299186 51.893047 
L 133.309486 51.784893 
L 133.371287 52.43382 
L 133.505188 53.15485 
L 133.525788 53.118798 
L 133.559263 53.010644 
L 133.610764 53.515365 
L 133.626214 53.479313 
L 133.639089 53.371159 
L 133.904316 51.172017 
L 134.027917 51.748841 
L 134.164393 52.938541 
L 134.033067 51.71279 
L 134.200443 52.614077 
L 134.223619 52.578026 
L 134.35752 50.52309 
L 134.380695 50.595193 
L 134.38842 50.559142 
L 134.416745 50.306781 
L 134.478546 51.352275 
L 134.633047 52.650129 
L 134.661372 52.361717 
L 134.710298 51.893047 
L 134.782398 52.217511 
L 134.823599 51.893047 
L 134.921449 52.614077 
L 134.9369 52.68618 
L 134.95235 52.830386 
L 135.016725 51.929099 
L 135.0193 51.929099 
L 135.245902 49.766009 
L 135.266502 49.982318 
L 135.415853 52.109356 
L 135.423579 52.037253 
L 135.59868 50.378884 
L 135.459629 52.109356 
L 135.637305 50.559142 
L 135.786656 51.316223 
L 135.799532 51.280172 
L 135.843307 51.24412 
L 135.923133 50.703348 
L 135.959183 50.99176 
L 136.057034 51.208069 
L 136.080209 51.135966 
L 136.085359 51.063863 
L 136.144584 51.568584 
L 136.165185 51.460429 
L 136.19351 51.929099 
L 136.263035 51.352275 
L 136.391786 50.306781 
L 136.407237 50.378884 
L 136.435562 50.487039 
L 136.497362 50.090472 
L 136.543713 49.80206 
L 136.579763 50.27073 
L 136.600363 50.27073 
L 136.605513 50.306781 
L 136.651864 50.667296 
L 136.708514 50.054421 
L 136.796065 48.432103 
L 136.85014 49.08103 
L 136.986616 51.388326 
L 137.009792 51.172017 
L 137.089617 50.487039 
L 137.123092 51.063863 
L 137.223518 52.001202 
L 137.249268 51.604635 
L 137.370294 49.477597 
L 137.42437 49.766009 
L 137.483595 49.693906 
L 137.563421 50.198627 
L 137.702472 49.621803 
L 137.710197 49.657854 
L 137.728222 49.693906 
L 137.769423 49.225236 
L 137.792598 49.261288 
L 137.800323 49.153133 
L 137.808048 49.044979 
L 137.841523 49.405494 
L 137.903324 49.189185 
L 138.062975 50.919657 
L 138.073275 50.883605 
L 138.160826 50.342833 
L 138.196876 50.52309 
L 138.202026 50.631245 
L 138.281852 49.874163 
L 138.436353 49.117082 
L 138.441503 49.153133 
L 138.59343 49.946266 
L 138.601155 49.838112 
L 138.69128 49.910215 
L 138.742781 50.162575 
L 138.789131 49.621803 
L 138.796856 49.729957 
L 138.809731 49.80206 
L 138.881832 49.369442 
L 138.915307 49.477597 
L 138.961658 49.874163 
L 139.041483 49.766009 
L 139.077534 49.80206 
L 139.195984 48.540258 
L 139.226885 48.432103 
L 139.332461 47.747124 
L 139.358211 48.107639 
L 139.543612 50.126524 
L 139.605413 50.018369 
L 139.623438 49.910215 
L 139.762489 49.225236 
L 139.772789 49.369442 
L 139.84489 49.693906 
L 139.883515 49.369442 
L 140.027716 48.251845 
L 140.030291 48.287897 
L 140.053467 48.215794 
L 140.272343 50.126524 
L 140.313544 50.054421 
L 140.401094 49.657854 
L 140.42942 49.766009 
L 140.468045 49.657854 
L 140.650871 48.179742 
L 140.676622 48.287897 
L 140.689497 48.396052 
L 140.841423 49.729957 
L 140.843998 49.657854 
L 140.864598 49.766009 
L 140.916099 50.090472 
L 140.959874 49.621803 
L 140.967599 49.657854 
L 141.001074 49.5497 
L 141.021674 49.369442 
L 141.119525 49.405494 
L 141.1221 49.441545 
L 141.176176 49.008927 
L 141.209651 49.225236 
L 141.320377 48.540258 
L 141.335827 48.576309 
L 141.346127 48.648412 
L 141.410503 49.044979 
L 141.456853 48.720515 
L 141.583029 48.396052 
L 141.469728 48.756567 
L 141.585604 48.432103 
L 141.68603 48.396052 
L 141.704055 48.648412 
L 141.740105 48.756567 
L 141.796756 48.972876 
L 141.827656 48.576309 
L 141.837956 48.612361 
L 142.033658 47.242403 
L 142.041383 47.314506 
L 142.069708 47.350558 
L 142.208759 48.684464 
L 142.211334 48.648412 
L 142.219059 48.684464 
L 142.288585 48.323948 
L 142.29631 48.323948 
L 142.298885 48.287897 
L 142.368411 48.82867 
L 142.370986 48.792618 
L 142.389011 48.936824 
L 142.471411 48.648412 
L 142.486861 48.684464 
L 142.654238 47.602918 
L 142.661963 47.566867 
L 142.806164 48.215794 
L 142.90659 47.602918 
L 142.940065 47.855279 
L 143.035341 48.251845 
L 142.95294 47.819227 
L 143.073966 48.179742 
L 143.094566 48.251845 
L 143.228468 49.333391 
L 143.236193 49.153133 
L 143.545195 45.403777 
L 143.58382 45.764292 
L 143.666221 47.1703 
L 143.720297 46.845837 
L 143.764072 46.953991 
L 143.900548 48.215794 
L 143.903123 48.179742 
L 143.936598 48.107639 
L 144.049899 47.927382 
L 144.052474 47.963433 
L 144.062774 47.999485 
L 144.1426 47.675021 
L 144.392377 45.47588 
L 144.402677 45.584034 
L 144.634429 47.566867 
L 144.647304 47.458712 
L 144.678204 47.350558 
L 144.796655 46.881888 
L 144.819831 46.91794 
L 144.822406 46.953991 
L 144.909956 46.701631 
L 145.007807 46.269013 
L 145.033557 46.305064 
L 145.131408 46.665579 
L 145.082483 46.160858 
L 145.152008 46.413219 
L 145.162308 46.305064 
L 145.260159 46.016652 
L 145.190634 46.341116 
L 145.288484 46.088755 
L 145.461011 47.566867 
L 145.489336 47.350558 
L 145.502211 47.242403 
L 145.651562 46.269013 
L 145.669588 46.377167 
L 145.751988 47.062146 
L 145.790614 46.665579 
L 145.808639 46.593476 
L 145.839539 46.773734 
L 145.94254 45.584034 
L 146.00434 45.656137 
L 146.037816 45.403777 
L 146.053266 45.584034 
L 146.076441 45.47588 
L 146.140816 44.935107 
L 146.187167 45.331674 
L 146.375143 47.675021 
L 146.377718 47.63897 
L 146.498744 46.990043 
L 146.413769 47.783176 
L 146.529645 47.062146 
L 146.54767 47.1703 
L 146.601745 47.530815 
L 146.653246 47.134249 
L 146.776847 46.160858 
L 146.815472 46.413219 
L 147.031774 48.107639 
L 147.044649 48.071588 
L 147.343351 44.682747 
L 147.376827 44.971159 
L 147.425752 44.790901 
L 147.575103 46.269013 
L 147.580253 46.19691 
L 147.657504 46.953991 
L 147.660079 46.953991 
L 147.716729 46.845837 
L 147.739905 46.953991 
L 147.876381 46.160858 
L 147.884106 46.088755 
L 147.997407 45.043262 
L 148.025732 45.223519 
L 148.115858 46.377167 
L 148.167358 46.088755 
L 148.169933 46.052704 
L 148.224009 46.44927 
L 148.262634 46.269013 
L 148.308984 46.341116 
L 148.345035 46.016652 
L 148.350185 46.016652 
L 148.466061 45.439828 
L 148.476361 45.584034 
L 148.615412 46.413219 
L 148.641162 46.341116 
L 148.651462 46.232961 
L 148.744163 45.295622 
L 148.782788 45.620086 
L 148.893514 46.19691 
L 148.911539 45.872446 
L 148.95274 45.800343 
L 149.037715 45.47588 
L 148.97849 45.908498 
L 149.068616 45.656137 
L 149.076341 45.620086 
L 149.096941 45.872446 
L 149.169041 45.800343 
L 149.181916 45.872446 
L 149.251442 45.547983 
L 149.261742 45.547983 
L 149.272042 45.47588 
L 149.413668 44.322232 
L 149.421393 44.394335 
L 149.447144 44.430386 
L 149.55272 45.259571 
L 149.57332 45.151416 
L 149.62482 45.223519 
L 149.707221 45.872446 
L 149.743271 45.547983 
L 149.802497 44.826953 
L 149.866872 45.115365 
L 150.016223 46.232961 
L 150.044549 46.052704 
L 150.090899 45.72824 
L 150.150124 46.160858 
L 150.152699 46.160858 
L 150.1733 46.232961 
L 150.1836 46.341116 
L 150.2454 45.547983 
L 150.258275 45.547983 
L 150.369001 45.151416 
L 150.296901 45.692189 
L 150.381876 45.331674 
L 150.389601 45.511931 
L 150.466852 45.187468 
L 150.490027 45.331674 
L 150.577578 44.718798 
L 150.495177 45.367725 
L 150.629078 44.935107 
L 150.755254 45.692189 
L 150.781005 45.511931 
L 150.878855 44.75485 
L 150.927781 44.971159 
L 150.950956 45.043262 
L 151.015332 44.430386 
L 151.017907 44.466438 
L 151.151808 43.420944 
L 151.208458 43.493047 
L 151.417035 46.232961 
L 151.437635 46.341116 
L 151.47626 46.593476 
L 151.522611 46.160858 
L 151.543211 46.19691 
L 151.581836 46.088755 
L 151.718312 44.935107 
L 151.592136 46.124807 
L 151.759513 45.115365 
L 151.800713 45.187468 
L 151.834188 44.75485 
L 151.836763 44.75485 
L 151.883114 44.322232 
L 151.934614 44.971159 
L 151.939764 44.971159 
L 152.027315 45.620086 
L 152.06594 45.439828 
L 152.083965 45.511931 
L 152.125166 45.836395 
L 152.179241 45.151416 
L 152.181816 45.151416 
L 152.261642 43.745408 
L 152.326017 44.214077 
L 152.405843 44.178026 
L 152.475368 43.493047 
L 152.524294 43.853562 
L 152.544894 43.961717 
L 152.745746 45.223519 
L 152.766346 45.331674 
L 152.794671 45.439828 
L 152.856472 45.223519 
L 152.871922 45.259571 
L 153.134574 42.808069 
L 152.900247 45.511931 
L 153.150024 42.880172 
L 153.3071 43.817511 
L 153.160324 42.808069 
L 153.3174 43.673305 
L 153.379201 43.204635 
L 153.430701 43.601202 
L 153.544002 44.069871 
L 153.564602 43.925665 
L 153.572328 43.997768 
L 153.688203 44.899056 
L 153.708804 44.75485 
L 153.737129 44.646695 
L 153.83498 44.538541 
L 153.793779 44.718798 
L 153.847855 44.610644 
L 153.868455 44.682747 
L 153.91738 44.03382 
L 154.046131 43.132532 
L 154.056431 43.204635 
L 154.066732 43.096481 
L 154.156857 43.132532 
L 154.203208 42.735966 
L 154.239258 42.555708 
L 154.365434 44.178026 
L 154.48646 45.079313 
L 154.514785 44.718798 
L 154.525085 44.610644 
L 154.677012 43.348841 
L 154.746537 43.925665 
L 154.800613 43.745408 
L 154.844388 43.637253 
L 154.901038 43.56515 
L 154.872713 43.781459 
L 154.947389 43.709356 
L 154.967989 43.745408 
L 155.016914 43.132532 
L 155.10704 42.375451 
L 155.145665 42.627811 
L 155.155966 42.699914 
L 155.158541 42.772017 
L 155.253816 42.375451 
L 155.256391 42.411502 
L 155.387717 43.168584 
L 155.266691 42.267296 
L 155.410893 43.060429 
L 155.423768 43.024378 
L 155.490718 43.456996 
L 155.542219 43.745408 
L 155.578269 43.204635 
L 155.580844 43.204635 
L 155.67612 42.735966 
L 155.70187 42.84412 
L 155.755945 42.59176 
L 155.817746 42.916223 
L 155.843496 42.84412 
L 155.892422 42.519657 
L 155.951647 42.84412 
L 156.100998 44.466438 
L 156.160224 44.610644 
L 156.193699 44.322232 
L 156.206574 44.430386 
L 156.402276 42.050987 
L 156.433176 42.159142 
L 156.667503 44.322232 
L 156.500127 41.762575 
L 156.685528 44.141974 
L 156.845179 41.978884 
L 156.90698 42.59176 
L 157.030581 43.060429 
L 157.033156 43.024378 
L 157.038306 43.060429 
L 157.115557 42.699914 
L 157.120707 42.699914 
L 157.123282 42.663863 
L 157.177357 43.132532 
L 157.197957 43.132532 
L 157.306108 43.240687 
L 157.231433 43.024378 
L 157.311258 43.204635 
L 157.488935 42.267296 
L 157.509535 42.159142 
L 157.622836 41.329957 
L 157.656311 41.654421 
L 157.875188 43.31279 
L 157.882913 43.276738 
L 157.996214 42.916223 
L 158.001364 43.060429 
L 158.034839 43.168584 
L 158.063164 43.420944 
L 158.11724 42.880172 
L 158.13784 42.916223 
L 158.14814 42.84412 
L 158.217666 42.880172 
L 158.271741 42.447554 
L 158.300066 42.339399 
L 158.385042 41.654421 
L 158.444268 41.834678 
L 158.575594 43.420944 
L 158.647694 43.132532 
L 158.797045 42.050987 
L 158.830521 41.942833 
L 158.833096 41.906781 
L 158.907771 42.267296 
L 158.918071 42.231245 
L 158.920646 42.267296 
L 158.969572 41.474163 
L 158.974722 41.474163 
L 159.028797 40.897339 
L 159.080298 41.474163 
L 159.170423 41.942833 
L 159.198749 41.690472 
L 159.270849 41.041545 
L 159.324925 41.221803 
L 159.3687 41.185751 
L 159.492301 42.050987 
L 159.551527 41.726524 
L 159.577277 42.087039 
L 159.597877 42.050987 
L 159.613327 41.978884 
L 159.731778 42.699914 
L 159.744653 42.808069 
L 159.816754 43.456996 
L 159.850229 42.772017 
L 159.852804 42.772017 
L 159.97383 41.582318 
L 160.02533 41.906781 
L 160.045931 41.798627 
L 160.081981 41.582318 
L 160.141206 42.014936 
L 160.195282 42.231245 
L 160.223607 41.798627 
L 160.251932 42.014936 
L 160.385833 41.1497 
L 160.280258 42.050987 
L 160.411584 41.329957 
L 160.545485 41.438112 
L 160.586685 41.726524 
L 160.656211 41.510215 
L 160.792687 40.320515 
L 160.663936 41.546266 
L 160.831312 40.572876 
L 160.967788 42.483605 
L 161.052764 42.12309 
L 161.243315 40.464721 
L 161.266491 40.644979 
L 161.408117 42.050987 
L 161.459617 41.798627 
L 161.511118 41.329957 
L 161.554893 41.942833 
L 161.557468 41.942833 
L 161.583218 42.087039 
L 161.639869 41.762575 
L 161.655319 41.798627 
L 161.657894 41.762575 
L 161.722269 42.303348 
L 161.724844 42.303348 
L 161.729994 42.375451 
L 161.79952 41.618369 
L 161.812395 41.654421 
L 161.817545 41.690472 
L 161.969471 41.005494 
L 161.995222 41.077597 
L 162.080197 41.690472 
L 162.123973 41.582318 
L 162.152298 41.942833 
L 162.214098 41.366009 
L 162.221824 41.40206 
L 162.299074 41.474163 
L 162.366025 42.231245 
L 162.417525 41.690472 
L 162.43555 41.366009 
L 162.533401 41.582318 
L 162.548851 41.726524 
L 162.633827 41.293906 
L 162.693052 40.753133 
L 162.752278 41.185751 
L 162.832104 41.041545 
L 162.886179 41.834678 
L 163.007205 41.077597 
L 162.896479 41.87073 
L 163.03038 41.329957 
L 163.135956 42.303348 
L 163.159131 42.231245 
L 163.354833 39.743691 
L 163.357408 39.779742 
L 163.396033 39.599485 
L 163.550534 40.933391 
L 163.60976 41.1497 
L 163.674135 40.536824 
L 163.689586 40.42867 
L 163.733361 40.032103 
L 163.800311 40.42867 
L 163.944513 41.834678 
L 163.954813 41.726524 
L 164.065539 40.356567 
L 164.106739 40.572876 
L 164.23034 41.510215 
L 164.132489 40.500773 
L 164.263815 41.257854 
L 164.28699 41.1497 
L 164.310166 41.329957 
L 164.374541 41.185751 
L 164.377116 41.257854 
L 164.446642 40.176309 
L 164.449217 40.176309 
L 164.487842 39.923948 
L 164.523892 40.320515 
L 164.554793 40.248412 
L 164.562518 40.140258 
L 164.577968 40.032103 
L 164.626893 40.42867 
L 164.657794 40.356567 
L 164.696419 40.248412 
L 164.848345 38.626094 
L 164.88182 39.094764 
L 165.013146 41.329957 
L 165.044047 41.293906 
L 165.059497 41.185751 
L 165.229448 39.202918 
L 165.268074 39.815794 
L 165.412275 40.789185 
L 165.43545 40.608927 
L 165.592526 38.986609 
L 165.633727 39.347124 
L 165.798528 41.618369 
L 166.06118 38.878455 
L 165.816553 41.726524 
L 166.08693 39.130815 
L 166.094655 39.23897 
L 166.267182 40.536824 
L 166.287782 40.392618 
L 166.380483 39.455279 
L 166.434558 39.851845 
L 166.599359 41.1497 
L 166.622535 40.969442 
L 166.761586 38.914506 
L 166.795061 39.166867 
L 166.813086 39.130815 
L 166.921237 39.419227 
L 166.977888 39.166867 
L 167.024238 39.599485 
L 167.078313 39.671588 
L 167.093764 39.419227 
L 167.132389 39.527382 
L 167.248265 39.166867 
L 167.26629 39.202918 
L 167.338391 40.392618 
L 167.446541 40.212361 
L 167.505767 40.42867 
L 167.634518 39.130815 
L 167.667993 39.058712 
L 167.729794 38.7703 
L 167.778719 39.022661 
L 167.794169 39.094764 
L 167.87657 39.743691 
L 167.920345 39.527382 
L 168.077422 38.878455 
L 168.234498 39.599485 
L 168.283423 39.275021 
L 168.327199 39.707639 
L 168.345224 39.599485 
L 168.378699 39.635536 
L 168.419899 39.166867 
L 168.425049 39.166867 
L 168.589851 39.275021 
L 168.708302 39.815794 
L 168.723752 39.635536 
L 168.893703 37.977167 
L 168.952929 38.085322 
L 169.09713 39.527382 
L 169.194981 39.455279 
L 169.310857 38.373734 
L 169.334032 38.590043 
L 169.390682 38.878455 
L 169.439608 38.445837 
L 169.449908 38.51794 
L 169.496258 38.157425 
L 169.547759 38.409785 
L 169.552909 38.481888 
L 169.70741 39.743691 
L 169.71256 39.815794 
L 169.746035 39.96 
L 169.805261 39.599485 
L 169.812986 39.599485 
L 169.980362 38.013219 
L 169.820711 39.635536 
L 170.024138 38.157425 
L 170.163189 39.022661 
L 170.060188 37.977167 
L 170.188939 38.914506 
L 170.219839 39.022661 
L 170.273915 39.311073 
L 170.31254 38.950558 
L 170.325415 38.986609 
L 170.469616 38.04927 
L 170.618967 39.671588 
L 170.626693 39.779742 
L 170.685918 39.058712 
L 170.742568 38.986609 
L 170.855869 38.121373 
L 170.873895 38.337682 
L 171.015521 39.815794 
L 171.018096 39.743691 
L 171.236973 37.07588 
L 171.273023 37.724807 
L 171.296198 38.085322 
L 171.345123 37.616652 
L 171.394049 37.869013 
L 171.412074 37.760858 
L 171.471299 37.544549 
L 171.5022 37.869013 
L 171.515075 37.869013 
L 171.654126 39.022661 
L 171.664426 38.950558 
L 171.667001 38.986609 
L 171.733952 38.590043 
L 171.749402 38.626094 
L 171.808627 38.373734 
L 171.854978 38.698197 
L 171.896178 38.878455 
L 171.965704 38.734249 
L 172.058404 38.085322 
L 172.10733 38.265579 
L 172.212906 38.590043 
L 172.11248 38.229528 
L 172.225781 38.445837 
L 172.385432 37.039828 
L 172.426632 37.111931 
L 172.439507 37.07588 
L 172.568258 38.04927 
L 172.575984 37.941116 
L 172.627484 38.662146 
L 172.635209 38.626094 
L 172.666109 38.878455 
L 172.72276 38.373734 
L 172.818036 36.823519 
L 172.861811 37.147983 
L 172.967387 38.950558 
L 173.062663 38.445837 
L 173.137338 37.32824 
L 173.196564 37.79691 
L 173.230039 37.724807 
L 173.273814 38.121373 
L 173.284114 38.121373 
L 173.33304 38.04927 
L 173.412865 36.715365 
L 173.456641 37.436395 
L 173.562217 38.013219 
L 173.593117 37.79691 
L 173.616292 37.688755 
L 173.732168 37.256137 
L 173.747618 37.400343 
L 173.763068 37.472446 
L 173.822294 37.07588 
L 173.842894 37.184034 
L 173.935595 37.220086 
L 173.961345 36.967725 
L 174.051471 37.111931 
L 173.976795 36.895622 
L 174.072071 37.003777 
L 174.079796 37.07588 
L 174.239447 38.590043 
L 174.242022 38.553991 
L 174.391373 36.895622 
L 174.437724 37.292189 
L 174.489224 37.79691 
L 174.54845 37.32824 
L 174.651451 36.571159 
L 174.700376 36.751416 
L 174.720976 36.679313 
L 174.805952 35.922232 
L 174.842002 36.210644 
L 174.852302 36.138541 
L 174.945003 35.273305 
L 174.973328 35.778026 
L 175.104654 38.265579 
L 175.15873 37.941116 
L 175.292631 37.256137 
L 175.310656 37.184034 
L 175.333831 37.039828 
L 175.375032 37.436395 
L 175.416232 37.292189 
L 175.418807 37.292189 
L 175.511508 35.88618 
L 175.547558 36.246695 
L 175.575883 36.174592 
L 175.627384 36.571159 
L 175.635109 36.535107 
L 175.717509 37.147983 
L 175.76386 36.823519 
L 175.797335 36.751416 
L 175.843685 37.147983 
L 175.853985 37.07588 
L 175.959561 37.472446 
L 175.969861 37.32824 
L 176.016212 36.679313 
L 176.101187 37.039828 
L 176.168138 37.400343 
L 176.111488 37.003777 
L 176.217063 37.111931 
L 176.299464 36.318798 
L 176.348389 36.823519 
L 176.350965 36.859571 
L 176.42049 36.282747 
L 176.46169 36.066438 
L 176.505466 37.07588 
L 176.510616 37.07588 
L 176.536366 37.292189 
L 176.600742 37.039828 
L 176.618767 37.07588 
L 176.629067 36.859571 
L 176.724343 37.147983 
L 176.729493 37.07588 
L 176.757818 37.400343 
L 176.824768 36.859571 
L 176.850519 36.787468 
L 176.853094 36.715365 
L 176.935494 37.32824 
L 176.943219 37.292189 
L 176.966395 37.184034 
L 177.092571 36.823519 
L 177.023045 37.436395 
L 177.095146 36.895622 
L 177.182696 36.931674 
L 177.123471 36.463004 
L 177.205872 36.895622 
L 177.221322 36.787468 
L 177.365523 35.453562 
L 177.373248 35.597768 
L 177.386123 35.705923 
L 177.5844 37.400343 
L 177.61015 37.292189 
L 177.720876 35.850129 
L 177.808426 35.994335 
L 177.841902 35.814077 
L 177.939753 36.60721 
L 177.942328 36.571159 
L 178.022153 37.003777 
L 178.024728 36.931674 
L 178.145754 37.256137 
L 178.150904 37.184034 
L 178.269355 36.390901 
L 178.307981 36.535107 
L 178.349181 36.823519 
L 178.413556 36.390901 
L 178.426432 36.282747 
L 178.519132 34.948841 
L 178.583508 35.561717 
L 178.725134 37.508498 
L 178.748309 37.147983 
L 178.925986 35.273305 
L 178.946586 35.345408 
L 178.995511 34.876738 
L 179.008386 34.876738 
L 179.028987 34.768584 
L 179.067612 34.660429 
L 179.119112 34.984893 
L 179.121687 34.984893 
L 179.348289 36.931674 
L 179.366314 36.895622 
L 179.45644 36.102489 
L 179.505365 36.499056 
L 179.531116 36.426953 
L 179.600641 35.705923 
L 179.652142 35.958283 
L 179.675317 36.066438 
L 179.737117 36.751416 
L 179.783468 36.102489 
L 179.840118 35.561717 
L 179.883894 36.246695 
L 179.886469 36.246695 
L 179.922519 36.715365 
L 179.984319 35.705923 
L 180.11822 33.903348 
L 180.141396 34.299914 
L 180.283022 36.715365 
L 180.301047 36.463004 
L 180.440098 34.335966 
L 180.483873 35.381459 
L 180.610049 36.823519 
L 180.633225 36.571159 
L 180.772276 34.588326 
L 180.800601 34.91279 
L 180.880427 34.732532 
L 180.924202 35.273305 
L 180.937077 35.381459 
L 181.006603 35.597768 
L 180.947377 35.309356 
L 181.055528 35.489614 
L 181.089003 35.597768 
L 181.25638 36.499056 
L 181.143079 35.417511 
L 181.258955 36.463004 
L 181.501007 34.588326 
L 181.678683 35.922232 
L 181.508732 34.552275 
L 181.696708 35.814077 
L 181.83576 35.345408 
L 181.88211 35.597768 
L 181.910435 35.129099 
L 181.941335 35.129099 
L 181.951636 35.056996 
L 182.016011 35.489614 
L 182.021161 35.489614 
L 182.057211 35.994335 
L 182.126737 35.273305 
L 182.134462 35.237253 
L 182.219438 34.480172 
L 182.252913 34.876738 
L 182.291538 34.984893 
L 182.45634 36.102489 
L 182.474365 36.030386 
L 182.610841 34.552275 
L 182.631441 34.696481 
L 182.793667 35.417511 
L 182.809118 35.489614 
L 182.850318 35.63382 
L 182.914693 35.417511 
L 182.917268 35.417511 
L 183.015119 34.840687 
L 183.040869 35.020944 
L 183.115545 35.88618 
L 183.161895 35.201202 
L 183.267471 34.047554 
L 183.295797 34.227811 
L 183.300947 34.19176 
L 183.367897 34.732532 
L 183.463173 35.453562 
L 183.506948 35.16515 
L 183.519823 35.093047 
L 183.581624 35.453562 
L 183.597074 35.453562 
L 183.648574 35.381459 
L 183.684625 35.417511 
L 183.787626 34.588326 
L 183.839126 34.660429 
L 183.900927 35.489614 
L 183.978177 35.453562 
L 183.991052 35.345408 
L 184.047703 35.309356 
L 184.078603 35.669871 
L 184.081178 35.705923 
L 184.145554 35.129099 
L 184.148129 35.129099 
L 184.264004 34.660429 
L 184.279455 34.840687 
L 184.28718 34.91279 
L 184.35928 36.102489 
L 184.428806 35.850129 
L 184.663133 33.867296 
L 184.444256 35.88618 
L 184.670858 34.011502 
L 184.688883 33.939399 
L 184.709483 33.72309 
L 184.776434 34.516223 
L 184.779009 34.480172 
L 184.871709 35.381459 
L 184.915485 35.201202 
L 185.046811 34.588326 
L 184.920635 35.237253 
L 185.059686 34.624378 
L 185.069986 34.768584 
L 185.152387 34.119657 
L 185.154962 34.119657 
L 185.247663 33.542833 
L 185.275988 33.687039 
L 185.296588 33.578884 
L 185.342938 33.218369 
L 185.409889 33.434678 
L 185.597865 34.516223 
L 185.790992 33.362575 
L 185.819317 33.434678 
L 185.945493 35.020944 
L 185.976394 34.804635 
L 186.14377 33.542833 
L 185.996994 34.840687 
L 186.16437 33.72309 
L 186.182395 33.831245 
L 186.357497 34.840687 
L 186.360072 34.768584 
L 186.573798 32.893906 
L 186.594399 33.00206 
L 186.599549 32.966009 
L 186.787525 34.19176 
L 186.869926 33.650987 
L 186.8004 34.299914 
L 186.905976 33.903348 
L 187.032152 34.552275 
L 187.060477 34.516223 
L 187.075928 34.44412 
L 187.204679 33.759142 
L 187.209829 33.795193 
L 187.266479 34.011502 
L 187.307679 33.687039 
L 187.315405 33.72309 
L 187.40038 33.182318 
L 187.444156 33.362575 
L 187.500806 33.867296 
L 187.560032 33.687039 
L 187.562607 33.650987 
L 187.616682 34.408069 
L 187.626982 34.516223 
L 187.699083 34.011502 
L 187.701658 34.047554 
L 187.773758 34.155708 
L 187.822684 33.867296 
L 187.825259 33.903348 
L 187.899934 33.506781 
L 187.94371 33.110215 
L 188.00551 33.72309 
L 188.033835 33.650987 
L 188.098211 33.975451 
L 188.116236 34.083605 
L 188.180612 33.614936 
L 188.257862 32.857854 
L 188.314513 33.254421 
L 188.456139 34.660429 
L 188.469014 34.516223 
L 188.481889 34.44412 
L 188.638965 33.038112 
L 188.64154 33.074163 
L 188.667291 33.182318 
L 188.801192 34.19176 
L 188.811492 34.263863 
L 188.829517 34.408069 
L 188.899043 33.975451 
L 188.911918 33.975451 
L 188.991743 33.542833 
L 189.032944 33.687039 
L 189.040669 33.614936 
L 189.123069 32.857854 
L 189.161695 33.326524 
L 189.264696 34.91279 
L 189.311046 34.408069 
L 189.535073 32.100773 
L 189.560823 32.425236 
L 189.645799 33.542833 
L 189.689574 33.47073 
L 189.697299 33.506781 
L 189.756525 32.966009 
L 189.7694 33.074163 
L 189.797725 32.929957 
L 189.854375 33.506781 
L 189.86725 33.434678 
L 189.908451 33.362575 
L 189.931626 33.038112 
L 190.003727 33.687039 
L 190.014027 33.614936 
L 190.026902 33.47073 
L 190.083552 34.119657 
L 190.086127 34.047554 
L 190.109302 34.299914 
L 190.181403 33.434678 
L 190.330754 31.704206 
L 190.433755 31.884464 
L 190.36423 31.487897 
L 190.444055 31.776309 
L 190.724733 34.299914 
L 190.727308 34.227811 
L 190.856059 32.677597 
L 190.863784 32.713648 
L 191.00026 72.694764 
L 191.201111 81.49133 
L 191.486939 86.466438 
L 191.489514 86.430386 
L 191.541014 87.187468 
L 191.546164 87.187468 
L 191.739291 89.494764 
L 191.757316 89.602918 
L 192.076619 92.559142 
L 192.079194 92.52309 
L 192.138419 93.063863 
L 192.146144 93.063863 
L 192.29807 94.217511 
L 192.300645 94.181459 
L 192.362446 94.578026 
L 192.383046 94.541974 
L 192.568448 95.587468 
L 192.614798 95.695622 
L 192.738399 96.308498 
L 192.743549 96.272446 
L 192.753849 96.236395 
L 192.823375 96.632961 
L 192.833675 96.560858 
L 192.980451 97.101631 
L 192.988176 97.065579 
L 193.049977 97.31794 
L 193.080877 97.245837 
L 193.132377 97.353991 
L 193.263703 97.786609 
L 193.145252 97.31794 
L 193.271428 97.750558 
L 193.348679 97.858712 
L 193.454255 98.002918 
L 193.382154 97.714506 
L 193.459405 97.894764 
L 193.46198 97.858712 
L 193.528931 98.111073 
L 193.562406 98.002918 
L 193.616481 98.111073 
L 193.729782 98.29133 
L 193.732357 98.255279 
L 193.770983 98.29133 
L 193.886858 98.543691 
L 193.982134 98.687897 
L 194.002734 98.615794 
L 194.028485 98.687897 
L 194.121185 98.615794 
L 194.139211 98.76 
L 194.154661 98.687897 
L 194.226761 98.940258 
L 194.247361 98.832103 
L 194.365812 98.868155 
L 194.481688 99.120515 
L 194.535764 99.048412 
L 194.584689 99.22867 
L 194.587264 99.156567 
L 194.705715 99.264721 
L 194.800991 99.372876 
L 194.896267 99.625236 
L 194.924592 99.553133 
L 194.945192 99.48103 
L 195.009568 99.661288 
L 195.032743 99.625236 
L 195.125444 99.697339 
L 195.104843 99.553133 
L 195.143469 99.625236 
L 195.146044 99.553133 
L 195.238745 99.805494 
L 195.25162 99.697339 
L 195.503972 99.805494 
L 195.604398 99.733391 
L 195.619848 99.877597 
L 195.679073 99.805494 
L 195.630148 99.913648 
L 195.727999 99.913648 
L 196.176052 99.805494 
L 196.183777 99.733391 
L 196.209528 99.877597 
L 196.281628 99.841545 
L 196.389779 99.985751 
L 196.397504 99.9497 
L 196.464455 99.985751 
L 196.50823 99.805494 
L 196.618956 99.9497 
L 196.621531 99.913648 
L 196.698782 100.021803 
L 196.812083 100.129957 
L 196.709082 99.985751 
L 196.814658 100.093906 
L 197.06186 100.20206 
L 197.08761 100.274163 
L 197.15971 100.129957 
L 197.17001 100.20206 
L 197.278161 100.093906 
L 197.185461 100.238112 
L 197.283311 100.129957 
L 197.365712 100.021803 
L 197.298762 100.166009 
L 197.394037 100.057854 
L 197.468713 100.20206 
L 197.507338 100.129957 
L 197.641239 100.021803 
L 197.664415 100.057854 
L 197.757115 99.841545 
L 197.829216 100.021803 
L 197.870416 99.985751 
L 198.179419 100.093906 
L 198.279845 100.238112 
L 198.29272 100.20206 
L 198.424046 100.310215 
L 198.534772 100.418369 
L 198.537347 100.382318 
L 199.317578 100.274163 
L 199.425729 100.166009 
L 199.325303 100.346266 
L 199.430879 100.238112 
L 199.461779 100.166009 
L 199.464354 100.093906 
L 199.546755 100.274163 
L 199.56993 100.238112 
L 199.719281 100.346266 
L 199.745032 100.382318 
L 199.768207 100.274163 
L 199.824857 100.310215 
L 199.902108 100.346266 
L 199.943308 100.20206 
L 200.048884 100.310215 
L 199.948458 100.166009 
L 200.059184 100.274163 
L 200.16476 100.20206 
L 200.17506 100.093906 
L 200.20081 100.274163 
L 200.278061 100.129957 
L 200.793065 100.021803 
L 200.79564 99.985751 
L 200.844566 100.166009 
L 200.901216 100.057854 
L 201.071167 99.9497 
L 201.081468 99.985751 
L 201.192193 99.805494 
L 201.228244 99.877597 
L 201.272019 99.697339 
L 201.302919 99.841545 
L 201.42137 99.697339 
L 201.542396 99.913648 
L 201.439395 99.661288 
L 201.544971 99.877597 
L 201.663422 99.769442 
L 201.704623 99.841545 
L 201.784448 99.985751 
L 201.815349 99.841545 
L 201.897749 100.021803 
L 201.9338 99.985751 
L 202.052251 99.769442 
L 202.054826 99.805494 
L 202.103751 99.877597 
L 202.134651 99.697339 
L 202.165551 99.841545 
L 202.271127 99.733391 
L 202.258252 99.877597 
L 202.276277 99.805494 
L 202.278852 99.841545 
L 202.309753 99.697339 
L 202.379278 99.769442 
L 202.438504 99.661288 
L 202.471979 99.805494 
L 202.487429 99.805494 
L 202.997283 99.877597 
L 203.041059 100.021803 
L 203.092559 99.841545 
L 203.108009 99.913648 
L 203.21101 99.985751 
L 203.321736 100.166009 
L 203.324311 100.129957 
L 203.326886 100.093906 
L 203.380961 100.238112 
L 203.429887 100.129957 
L 203.504562 100.20206 
L 203.435037 100.093906 
L 203.540613 100.129957 
L 203.597263 100.274163 
L 203.653914 100.166009 
L 203.813565 100.20206 
L 203.83159 100.310215 
L 203.901116 100.093906 
L 203.921716 100.129957 
L 204.032442 100.20206 
L 204.145743 100.346266 
L 204.241019 100.238112 
L 204.192093 100.382318 
L 204.259044 100.310215 
L 204.349169 100.490472 
L 204.37492 100.454421 
L 204.465045 100.490472 
L 204.423845 100.382318 
L 204.48307 100.454421 
L 204.591221 100.238112 
L 204.598946 100.346266 
L 204.691647 100.382318 
L 204.616972 100.238112 
L 204.707097 100.310215 
L 205.07275 100.20206 
L 205.095926 100.129957 
L 205.178326 100.274163 
L 205.180901 100.20206 
L 205.263302 100.274163 
L 205.186051 100.166009 
L 205.291627 100.20206 
L 205.366303 100.129957 
L 205.477029 100.021803 
L 205.410078 100.20206 
L 205.479604 100.057854 
L 205.59548 99.877597 
L 205.495054 100.093906 
L 205.60063 99.913648 
L 205.63668 99.805494 
L 205.670155 99.913648 
L 205.752556 99.733391 
L 205.793756 99.697339 
L 205.865857 99.841545 
L 205.955983 99.661288 
L 205.984308 99.733391 
L 206.030658 99.769442 
L 206.097609 99.877597 
L 206.087309 99.733391 
L 206.141384 99.805494 
L 206.192885 99.913648 
L 206.19546 99.9497 
L 206.25211 99.805494 
L 206.295885 99.841545 
L 206.398886 99.9497 
L 206.411761 99.769442 
L 206.447812 99.877597 
L 206.481287 99.697339 
L 206.519912 99.733391 
L 206.707889 99.805494 
L 206.759389 99.913648 
L 206.720764 99.733391 
L 206.82119 99.877597 
L 207.470095 99.769442 
L 207.570521 99.733391 
L 207.534471 99.877597 
L 207.578246 99.805494 
L 207.593696 99.841545 
L 207.660647 99.661288 
L 207.681247 99.733391 
L 207.704422 99.625236 
L 207.784248 99.805494 
L 207.789398 99.733391 
L 207.833173 99.769442 
L 207.858923 99.625236 
L 207.892398 99.625236 
L 208.126725 99.517082 
L 208.209126 99.48103 
L 208.162776 99.625236 
L 208.234876 99.553133 
L 208.330152 99.625236 
L 208.446028 99.805494 
L 208.492378 99.841545 
L 208.585079 99.9497 
L 208.603104 99.841545 
L 208.706105 100.021803 
L 208.721555 99.9497 
L 208.927557 99.841545 
L 208.999658 99.805494 
L 208.997083 99.9497 
L 209.035708 99.841545 
L 209.038283 99.9497 
L 209.043433 99.805494 
L 209.146434 99.877597 
L 209.694913 99.841545 
L 209.777314 99.589185 
L 209.808214 99.697339 
L 209.926665 99.589185 
L 209.92924 99.517082 
L 210.024516 99.733391 
L 210.034816 99.661288 
L 210.117217 99.697339 
L 210.101767 99.553133 
L 210.142967 99.625236 
L 210.50862 99.589185 
L 210.606471 99.48103 
L 210.611621 99.625236 
L 210.619346 99.589185 
L 210.722347 99.48103 
L 210.696597 99.625236 
L 210.730072 99.589185 
L 210.732647 99.625236 
L 210.771272 99.48103 
L 210.835648 99.553133 
L 210.936073 99.48103 
L 210.874273 99.625236 
L 210.946374 99.517082 
L 211.013324 99.589185 
L 211.008174 99.408927 
L 211.049374 99.408927 
L 211.059674 99.517082 
L 211.1601 99.336824 
L 211.275976 99.517082 
L 211.394427 99.372876 
L 211.507728 99.553133 
L 211.515453 99.517082 
L 211.587554 99.408927 
L 211.608154 99.336824 
L 211.615879 99.48103 
L 211.700855 99.372876 
L 211.726605 99.336824 
L 211.819306 99.48103 
L 212.125733 99.553133 
L 212.210709 99.733391 
L 212.239034 99.697339 
L 212.262209 99.625236 
L 212.30341 99.769442 
L 212.34976 99.697339 
L 212.383235 99.733391 
L 212.447611 99.553133 
L 212.452761 99.589185 
L 213.292218 99.517082 
L 213.354018 99.444979 
L 213.320543 99.589185 
L 213.402944 99.48103 
L 213.410669 99.589185 
L 213.467319 99.408927 
L 213.511095 99.408927 
L 213.632121 99.553133 
L 213.704221 99.372876 
L 213.747997 99.408927 
L 213.750572 99.48103 
L 213.817522 99.300773 
L 213.856147 99.408927 
L 213.959148 99.300773 
L 213.972023 99.336824 
L 214.14455 99.264721 
L 214.234676 99.192618 
L 214.157425 99.300773 
L 214.252701 99.300773 
L 214.71878 99.22867 
L 214.73423 99.264721 
L 214.83208 99.120515 
L 214.857831 99.192618 
L 214.886156 99.048412 
L 214.942806 99.120515 
L 215.34451 99.22867 
L 215.41661 99.372876 
L 215.35481 99.192618 
L 215.457811 99.336824 
L 215.563386 99.22867 
L 215.486136 99.372876 
L 215.568537 99.264721 
L 215.663812 99.336824 
L 215.576262 99.192618 
L 215.681837 99.300773 
L 215.787413 99.120515 
L 215.689562 99.336824 
L 215.795138 99.156567 
L 215.892989 99.264721 
L 215.905864 99.156567 
L 216.02174 99.264721 
L 216.104141 99.192618 
L 216.03204 99.300773 
L 216.132466 99.22867 
L 216.220017 99.336824 
L 216.238042 99.192618 
L 216.243192 99.264721 
L 216.335893 99.156567 
L 216.353918 99.22867 
L 216.423444 99.300773 
L 216.369368 99.192618 
L 216.467219 99.264721 
L 216.714421 99.156567 
L 216.727296 99.084464 
L 216.737596 99.264721 
L 216.822572 99.192618 
L 217.118699 99.22867 
L 217.162475 99.336824 
L 217.2114 99.192618 
L 217.22685 99.192618 
L 217.494652 99.156567 
L 217.502377 99.048412 
L 217.530703 99.336824 
L 217.602803 99.22867 
L 217.682629 99.408927 
L 217.607953 99.192618 
L 217.716104 99.336824 
L 217.955581 99.444979 
L 217.968456 99.372876 
L 218.079182 99.625236 
L 218.104932 99.589185 
L 218.128108 99.769442 
L 218.184758 99.697339 
L 218.465435 99.805494 
L 218.48861 99.733391 
L 218.581311 99.877597 
L 218.617362 99.841545 
L 218.671437 99.9497 
L 218.686887 99.913648 
L 218.782163 100.021803 
L 218.766713 99.877597 
L 218.800188 99.985751 
L 218.841388 99.877597 
L 218.882589 100.057854 
L 218.910914 99.9497 
L 218.952114 100.021803 
L 218.988165 99.877597 
L 219.02164 99.9497 
L 219.109191 99.805494 
L 219.137516 99.877597 
L 219.204466 99.769442 
L 219.320342 99.553133 
L 219.366693 99.661288 
L 219.413043 99.517082 
L 219.428493 99.553133 
L 219.433643 99.48103 
L 219.485144 99.589185 
L 219.541794 99.517082 
L 219.64737 99.589185 
L 219.554669 99.48103 
L 219.65252 99.553133 
L 219.70402 99.444979 
L 219.665395 99.625236 
L 219.765821 99.517082 
L 219.938347 99.589185 
L 219.940922 99.661288 
L 220.036198 99.48103 
L 220.046498 99.517082 
L 220.159799 99.300773 
L 220.164949 99.336824 
L 220.175249 99.444979 
L 220.21645 99.264721 
L 220.275675 99.372876 
L 220.721154 99.48103 
L 220.754629 99.408927 
L 220.83188 99.517082 
L 220.834455 99.48103 
L 220.88338 99.661288 
L 220.940031 99.517082 
L 220.970931 99.697339 
L 221.050757 99.553133 
L 221.318559 99.625236 
L 221.395809 99.697339 
L 221.42156 99.553133 
L 221.42671 99.589185 
L 221.480785 99.48103 
L 221.444735 99.661288 
L 221.532285 99.589185 
L 221.53486 99.661288 
L 221.555461 99.517082 
L 221.640436 99.553133 
L 221.668762 99.589185 
L 221.753737 99.444979 
L 221.764037 99.553133 
L 221.807813 99.408927 
L 221.861888 99.444979 
L 221.975189 99.300773 
L 221.977764 99.372876 
L 221.980339 99.408927 
L 222.044715 99.22867 
L 222.080765 99.264721 
L 222.639545 99.156567 
L 222.65757 99.120515 
L 222.73482 99.336824 
L 222.737395 99.300773 
L 222.845546 99.372876 
L 222.74512 99.264721 
L 222.850696 99.336824 
L 222.853271 99.300773 
L 222.868721 99.444979 
L 222.956272 99.408927 
L 223.015498 99.517082 
L 223.051548 99.336824 
L 223.066998 99.408927 
L 223.162274 99.48103 
L 223.213774 99.589185 
L 223.273 99.553133 
L 223.3039 99.48103 
L 223.373426 99.661288 
L 223.381151 99.553133 
L 223.394026 99.589185 
L 223.455826 99.444979 
L 223.489302 99.517082 
L 223.582002 99.336824 
L 223.535652 99.553133 
L 223.602602 99.408927 
L 223.638653 99.372876 
L 223.718478 99.48103 
L 223.731354 99.408927 
L 223.821479 99.589185 
L 223.824054 99.553133 
L 224.238633 99.661288 
L 224.241208 99.697339 
L 224.315883 99.48103 
L 224.336483 99.517082 
L 224.367384 99.444979 
L 224.387984 99.589185 
L 224.444634 99.48103 
L 224.447209 99.553133 
L 224.521885 99.372876 
L 224.552785 99.444979 
L 224.807712 99.517082 
L 224.810287 99.589185 
L 224.843763 99.444979 
L 224.918438 99.517082 
L 225.042039 99.589185 
L 225.132165 99.697339 
L 225.07294 99.553133 
L 225.152765 99.661288 
L 225.18624 99.517082 
L 225.263491 99.625236 
L 225.286666 99.697339 
L 225.338167 99.48103 
L 225.366492 99.517082 
L 225.474643 99.444979 
L 225.379367 99.553133 
L 225.479793 99.48103 
L 225.593094 99.589185 
L 225.626569 99.444979 
L 225.706395 99.517082 
L 225.721845 99.48103 
L 225.819696 99.589185 
L 225.848021 99.444979 
L 225.935572 99.517082 
L 226.020547 99.444979 
L 226.077198 99.300773 
L 226.133848 99.372876 
L 226.146723 99.300773 
L 226.244574 99.408927 
L 226.35015 99.444979 
L 226.36045 99.336824 
L 226.3656 99.408927 
L 226.458301 99.264721 
L 226.468601 99.300773 
L 226.471176 99.22867 
L 226.522676 99.408927 
L 226.576752 99.336824 
L 226.630827 99.22867 
L 226.651427 99.300773 
L 226.744128 99.156567 
L 226.836829 99.264721 
L 226.854854 99.192618 
L 227.01193 99.084464 
L 227.053131 98.976309 
L 227.029956 99.120515 
L 227.122656 99.048412 
L 227.398184 98.940258 
L 227.496034 98.832103 
L 227.405909 99.012361 
L 227.50891 98.868155 
L 227.52951 98.940258 
L 227.57586 98.76 
L 227.61706 98.868155 
L 227.627361 98.796052 
L 227.650536 98.904206 
L 227.730361 98.832103 
L 227.856537 98.723948 
L 227.859112 98.687897 
L 227.866837 98.832103 
L 227.962113 98.796052 
L 228.039364 98.868155 
L 227.985288 98.723948 
L 228.070264 98.796052 
L 228.18614 98.615794 
L 228.312316 98.687897 
L 228.425617 98.832103 
L 228.74492 98.904206 
L 228.855646 99.012361 
L 228.793845 98.868155 
L 228.858221 98.976309 
L 229.071947 99.084464 
L 229.141473 99.120515 
L 229.120873 98.940258 
L 229.177523 99.012361 
L 229.285674 98.940258 
L 229.190398 99.084464 
L 229.288249 98.976309 
L 229.3655 99.084464 
L 229.398975 99.012361 
L 229.40155 98.904206 
L 229.473651 99.120515 
L 229.509701 99.012361 
L 229.540601 99.084464 
L 229.599827 98.904206 
L 229.610127 98.940258 
L 229.630727 98.832103 
L 229.623002 98.976309 
L 229.720853 98.868155 
L 229.738878 98.940258 
L 229.787803 98.723948 
L 229.821279 98.723948 
L 230.235857 98.832103 
L 230.338858 98.868155 
L 230.246157 98.76 
L 230.344008 98.832103 
L 230.413533 98.940258 
L 230.454734 98.76 
L 230.467609 98.868155 
L 230.519109 98.723948 
L 230.56546 98.76 
L 230.65301 98.687897 
L 230.719961 98.579742 
L 230.750861 98.723948 
L 230.763736 98.687897 
L 230.846137 98.579742 
L 230.781761 98.723948 
L 230.874462 98.687897 
L 231.067589 98.76 
L 231.075314 98.832103 
L 231.16544 98.651845 
L 231.17574 98.687897 
L 231.265865 98.796052 
L 231.379166 98.904206 
L 231.281316 98.723948 
L 231.381741 98.868155 
L 231.384316 98.796052 
L 231.397191 98.940258 
L 231.492467 98.832103 
L 231.505342 98.940258 
L 231.585168 98.76 
L 231.600618 98.868155 
L 231.603193 98.76 
L 231.657269 98.976309 
L 231.711344 98.832103 
L 231.824645 99.048412 
L 231.82722 99.012361 
L 231.919921 99.048412 
L 232.028072 99.156567 
L 231.986871 99.012361 
L 232.030647 99.084464 
L 232.149098 99.264721 
L 232.221198 99.084464 
L 232.262399 99.120515 
L 232.301024 99.156567 
L 232.313899 99.012361 
L 232.367974 99.048412 
L 232.4169 98.940258 
L 232.42205 98.976309 
L 232.532776 98.832103 
L 232.602301 98.904206 
L 232.558526 98.76 
L 232.646077 98.868155 
L 232.664102 98.832103 
L 232.705302 98.940258 
L 232.754228 98.868155 
L 232.777403 98.976309 
L 232.785128 98.832103 
L 232.862378 98.904206 
L 232.947354 98.723948 
L 232.973104 98.796052 
L 233.01173 98.868155 
L 233.024605 98.723948 
L 233.081255 98.723948 
L 233.271807 98.832103 
L 233.379958 98.976309 
L 233.387683 98.904206 
L 233.434033 98.976309 
L 233.542184 99.048412 
L 233.439183 98.940258 
L 233.544759 98.976309 
L 233.776511 98.904206 
L 233.882087 98.723948 
L 233.889812 98.832103 
L 233.933587 98.76 
L 233.900112 98.868155 
L 234.000538 98.832103 
L 234.085514 98.832103 
L 234.198814 98.687897 
L 234.224565 98.796052 
L 234.27349 98.723948 
L 234.335291 98.832103 
L 234.361041 98.723948 
L 234.340441 98.868155 
L 234.446016 98.796052 
L 234.515542 98.904206 
L 234.556742 98.796052 
L 234.968746 98.904206 
L 235.027971 98.940258 
L 235.030546 98.832103 
L 235.076897 98.904206 
L 235.141272 98.723948 
L 235.190198 98.832103 
L 235.306074 98.976309 
L 235.308649 98.940258 
L 235.597051 98.832103 
L 235.664001 98.76 
L 235.692327 98.904206 
L 235.705202 98.868155 
L 235.761852 98.904206 
L 235.718077 98.832103 
L 235.813353 98.832103 
L 235.818503 98.796052 
L 235.885453 98.976309 
L 235.921504 98.868155 
L 235.944679 98.976309 
L 235.988454 98.76 
L 236.03223 98.904206 
L 236.142955 98.796052 
L 236.14553 98.832103 
L 236.179006 98.796052 
L 236.263981 98.940258 
L 236.318057 98.976309 
L 236.379857 98.796052 
L 236.413333 98.940258 
L 236.459683 98.76 
L 236.490583 98.868155 
L 236.596159 98.651845 
L 236.606459 98.723948 
L 236.655385 98.651845 
L 236.696585 98.579742 
L 236.70946 98.687897 
L 236.763536 98.615794 
L 236.881986 98.832103 
L 236.987562 98.904206 
L 236.915462 98.723948 
L 236.995287 98.868155 
L 237.085413 98.976309 
L 237.165239 99.084464 
L 237.100863 98.904206 
L 237.201289 99.048412 
L 237.312015 98.940258 
L 237.384116 98.904206 
L 237.33004 99.012361 
L 237.420166 98.976309 
L 237.479391 99.048412 
L 237.492266 99.012361 
L 237.592692 99.120515 
L 237.705993 98.904206 
L 237.713718 98.976309 
L 237.819294 98.868155 
L 237.870795 98.723948 
L 237.922295 98.904206 
L 237.932595 98.796052 
L 237.94032 98.868155 
L 237.96092 98.723948 
L 238.040746 98.796052 
L 238.081946 98.651845 
L 238.133447 98.868155 
L 238.148897 98.796052 
L 238.190097 98.832103 
L 238.192672 98.687897 
L 238.251898 98.723948 
L 238.362624 98.651845 
L 238.269923 98.76 
L 238.365199 98.687897 
L 238.408974 98.723948 
L 238.434724 98.579742 
L 238.475925 98.687897 
L 238.527425 98.796052 
L 238.596951 98.868155 
L 238.537725 98.723948 
L 238.635576 98.832103 
L 238.741152 98.868155 
L 238.746302 98.76 
L 238.756602 98.868155 
L 238.828702 98.723948 
L 238.854453 98.723948 
L 238.965179 98.615794 
L 239.068179 98.543691 
L 239.001229 98.687897 
L 239.075905 98.579742 
L 239.212381 98.471588 
L 239.317956 98.363433 
L 239.227831 98.507639 
L 239.325682 98.399485 
L 239.338557 98.363433 
L 239.438982 98.471588 
L 239.441558 98.399485 
L 239.531683 98.651845 
L 239.547133 98.543691 
L 239.593484 98.615794 
L 239.634684 98.435536 
L 239.655284 98.507639 
L 239.763435 98.363433 
L 239.768585 98.399485 
L 239.858711 98.471588 
L 239.804635 98.29133 
L 239.879311 98.399485 
L 239.984887 98.507639 
L 240.100763 98.723948 
L 239.995187 98.471588 
L 240.105913 98.687897 
L 240.183164 98.615794 
L 240.116213 98.723948 
L 240.219214 98.651845 
L 240.317065 98.76 
L 240.332515 98.723948 
L 240.438091 98.579742 
L 240.445816 98.615794 
L 240.525641 98.507639 
L 240.538517 98.543691 
L 240.649242 98.29133 
L 240.721343 98.399485 
L 240.757393 98.29133 
L 240.857819 98.255279 
L 240.765118 98.399485 
L 240.868119 98.29133 
L 240.873269 98.363433 
L 240.92477 98.147124 
L 240.98142 98.327382 
L 241.213172 98.435536 
L 241.254372 98.471588 
L 241.280123 98.29133 
L 241.318748 98.363433 
L 241.339348 98.29133 
L 241.414024 98.471588 
L 241.421749 98.363433 
L 241.532475 98.471588 
L 241.640626 98.363433 
L 241.578825 98.507639 
L 241.643201 98.435536 
L 241.789977 98.543691 
L 241.862077 98.687897 
L 241.820877 98.507639 
L 241.898128 98.543691 
L 241.905853 98.507639 
L 241.941903 98.687897 
L 242.003704 98.579742 
L 242.034604 98.687897 
L 242.075804 98.543691 
L 242.109279 98.543691 
L 242.19683 98.363433 
L 242.12988 98.579742 
L 242.22773 98.435536 
L 242.397682 98.327382 
L 242.400257 98.29133 
L 242.423432 98.471588 
L 242.500683 98.399485 
L 242.531583 98.471588 
L 242.508408 98.363433 
L 242.611409 98.399485 
L 242.727284 98.327382 
L 242.778785 98.255279 
L 242.78136 98.399485 
L 242.835435 98.327382 
L 242.84316 98.29133 
L 242.948736 98.435536 
L 243.062037 98.29133 
L 243.064612 98.327382 
L 243.113538 98.399485 
L 243.165038 98.183176 
L 243.170188 98.255279 
L 243.337564 98.147124 
L 243.353015 98.219227 
L 243.45344 98.075021 
L 243.476616 98.147124 
L 243.468891 98.03897 
L 243.561591 98.03897 
L 243.824243 97.930815 
L 243.919519 97.858712 
L 243.937544 97.894764 
L 244.457699 97.786609 
L 244.5607 97.678455 
L 244.480874 97.822661 
L 244.568425 97.750558 
L 244.679151 97.966867 
L 244.578725 97.714506 
L 244.684301 97.930815 
L 244.898027 98.03897 
L 244.941803 98.075021 
L 244.905752 97.966867 
L 245.006178 98.002918 
L 245.111754 97.822661 
L 245.124629 97.894764 
L 245.325481 97.786609 
L 245.364106 97.750558 
L 245.379556 97.894764 
L 245.433632 97.786609 
L 245.456807 97.966867 
L 245.546933 97.858712 
L 245.624183 97.822661 
L 245.585558 97.930815 
L 245.652508 97.858712 
L 245.691134 97.966867 
L 245.750359 97.822661 
L 245.760659 97.858712 
L 245.814735 97.750558 
L 245.845635 97.930815 
L 245.871385 97.858712 
L 245.876535 97.966867 
L 245.964086 97.786609 
L 245.976961 97.786609 
L 246.309139 97.714506 
L 246.314289 97.642403 
L 246.38639 97.858712 
L 246.41729 97.786609 
L 246.46879 97.858712 
L 246.571791 97.966867 
L 246.486815 97.822661 
L 246.579516 97.894764 
L 246.654192 98.002918 
L 246.734017 98.075021 
L 246.664492 97.930815 
L 246.764918 98.03897 
L 246.811268 97.966867 
L 246.849893 98.111073 
L 246.867918 98.111073 
L 246.958044 98.147124 
L 246.880794 98.075021 
L 246.976069 98.111073 
L 247.04302 98.002918 
L 246.986369 98.147124 
L 247.086795 98.03897 
L 247.179496 98.147124 
L 247.158896 97.966867 
L 247.197521 98.075021 
L 247.215546 98.03897 
L 247.277347 98.219227 
L 247.303097 98.147124 
L 247.403523 98.255279 
L 247.323697 98.111073 
L 247.416398 98.183176 
L 247.442148 98.255279 
L 247.532274 98.111073 
L 247.563174 98.255279 
L 247.537424 98.075021 
L 247.640425 98.147124 
L 247.72025 98.002918 
L 247.753726 98.03897 
L 247.756301 98.075021 
L 247.830976 97.894764 
L 247.856727 97.930815 
L 247.879902 98.002918 
L 247.882477 98.075021 
L 247.931402 97.894764 
L 247.988053 98.002918 
L 247.990628 97.966867 
L 248.042128 98.111073 
L 248.096204 98.002918 
L 248.111654 98.111073 
L 248.188904 97.894764 
L 248.204354 97.930815 
L 248.209504 97.858712 
L 248.28418 98.03897 
L 248.31508 97.930815 
L 248.369156 98.002918 
L 248.379456 97.858712 
L 248.423231 97.894764 
L 248.503057 97.714506 
L 248.541682 97.786609 
L 248.611208 97.858712 
L 248.670433 98.002918 
L 248.724509 97.966867 
L 248.948536 98.075021 
L 249.048961 98.147124 
L 248.953686 98.03897 
L 249.059261 98.111073 
L 249.270413 98.075021 
L 249.280713 98.111073 
L 249.383714 97.894764 
L 249.45324 98.03897 
L 249.486715 97.858712 
L 249.49444 97.894764 
L 249.643791 97.786609 
L 249.715892 97.714506 
L 249.721042 97.858712 
L 249.757092 97.750558 
L 249.870393 97.894764 
L 250.040345 97.966867 
L 250.05322 97.894764 
L 250.153645 98.03897 
L 250.297847 97.930815 
L 250.403423 97.822661 
L 250.413723 97.858712 
L 250.418873 97.822661 
L 250.532174 97.966867 
L 250.591399 97.858712 
L 250.640324 98.03897 
L 250.642899 97.966867 
L 250.715 97.858712 
L 250.655775 98.002918 
L 250.7562 97.894764 
L 250.820576 97.966867 
L 250.846326 97.822661 
L 250.861776 97.894764 
L 250.977652 97.750558 
L 251.080653 97.642403 
L 251.101253 97.714506 
L 251.191379 97.606352 
L 251.201679 97.714506 
L 251.28408 97.462146 
L 251.291805 97.498197 
L 251.338155 97.426094 
L 251.296955 97.534249 
L 251.402531 97.462146 
L 251.428281 97.498197 
L 251.469481 97.281888 
L 251.505532 97.353991 
L 251.587932 97.281888 
L 251.559607 97.426094 
L 251.616257 97.353991 
L 251.848009 97.426094 
L 251.863459 97.534249 
L 251.953585 97.390043 
L 251.95616 97.426094 
L 251.97676 97.31794 
L 251.997361 97.498197 
L 252.066886 97.390043 
L 252.110662 97.426094 
L 252.149287 97.281888 
L 252.172462 97.353991 
L 252.278038 97.281888 
L 252.190487 97.426094 
L 252.283188 97.31794 
L 252.296063 97.281888 
L 252.399064 97.426094 
L 252.406789 97.353991 
L 252.48404 97.5703 
L 252.50464 97.534249 
L 252.54069 97.5703 
L 252.543265 97.678455 
L 252.57159 97.498197 
L 252.651416 97.642403 
L 252.684891 97.5703 
L 252.777592 97.498197 
L 252.702916 97.606352 
L 252.795617 97.534249 
L 252.878018 97.606352 
L 252.836817 97.498197 
L 252.906343 97.534249 
L 252.924368 97.642403 
L 252.988744 97.498197 
L 253.017069 97.5703 
L 253.040244 97.498197 
L 253.09947 97.822661 
L 253.107195 97.822661 
L 253.13037 97.714506 
L 253.220496 97.858712 
L 253.305471 97.750558 
L 253.256546 97.894764 
L 253.336372 97.786609 
L 253.431647 97.714506 
L 253.534648 97.498197 
L 253.547523 97.5703 
L 253.823051 97.678455 
L 253.835926 97.642403 
L 253.938927 97.750558 
L 254.034202 97.678455 
L 254.029052 97.822661 
L 254.047077 97.786609 
L 254.721733 97.786609 
L 254.721733 97.786609 
" clip-path="url(#pd9057477f6)" style="fill: none; stroke: #000000; stroke-opacity: 0.5; stroke-width: 1.5; stroke-linecap: square"/>
   </g>
   <g id="patch_3">
    <path d="M 41.667188 173.52 
L 41.667188 7.2 
" style="fill: none; stroke: #000000; stroke-width: 0.8; stroke-linejoin: miter; stroke-linecap: square"/>
   </g>
   <g id="patch_4">
    <path d="M 41.667188 173.52 
L 264.867187 173.52 
" style="fill: none; stroke: #000000; stroke-width: 0.8; stroke-linejoin: miter; stroke-linecap: square"/>
   </g>
  </g>
 </g>
 <defs>
  <clipPath id="pd9057477f6">
   <rect x="41.667188" y="7.2" width="223.2" height="166.32"/>
  </clipPath>
 </defs>
</svg>
