<?xml version="1.0" encoding="utf-8" standalone="no"?>
<!DOCTYPE svg PUBLIC "-//W3C//DTD SVG 1.1//EN"
  "http://www.w3.org/Graphics/SVG/1.1/DTD/svg11.dtd">
<svg xmlns:xlink="http://www.w3.org/1999/xlink" width="272.067188pt" height="199.682454pt" viewBox="0 0 272.067188 199.682454" xmlns="http://www.w3.org/2000/svg" version="1.1">
 <metadata>
  <rdf:RDF xmlns:dc="http://purl.org/dc/elements/1.1/" xmlns:cc="http://creativecommons.org/ns#" xmlns:rdf="http://www.w3.org/1999/02/22-rdf-syntax-ns#">
   <cc:Work>
    <dc:type rdf:resource="http://purl.org/dc/dcmitype/StillImage"/>
    <dc:date>2024-09-15T03:32:20.495973</dc:date>
    <dc:format>image/svg+xml</dc:format>
    <dc:creator>
     <cc:Agent>
      <dc:title>Matplotlib v3.9.2, https://matplotlib.org/</dc:title>
     </cc:Agent>
    </dc:creator>
   </cc:Work>
  </rdf:RDF>
 </metadata>
 <defs>
  <style type="text/css">*{stroke-linejoin: round; stroke-linecap: butt}</style>
 </defs>
 <g id="figure_1">
  <g id="patch_1">
   <path d="M 0 199.682454 
L 272.067188 199.682454 
L 272.067188 0 
L 0 0 
z
" style="fill: #ffffff"/>
  </g>
  <g id="axes_1">
   <g id="patch_2">
    <path d="M 41.667188 175.804329 
L 264.867188 175.804329 
L 264.867188 9.484329 
L 41.667188 9.484329 
z
" style="fill: #ffffff"/>
   </g>
   <g id="matplotlib.axis_1">
    <g id="xtick_1">
     <g id="line2d_1">
      <defs>
       <path id="m2fc57faac8" d="M 0 0 
L 0 3.5 
" style="stroke: #000000; stroke-width: 0.8"/>
      </defs>
      <g>
       <use xlink:href="#m2fc57faac8" x="63.748611" y="175.804329" style="stroke: #000000; stroke-width: 0.8"/>
      </g>
     </g>
     <g id="text_1">
      <!-- 0.5 -->
      <g transform="translate(55.797049 190.402766) scale(0.1 -0.1)">
       <defs>
        <path id="DejaVuSans-30" d="M 2034 4250 
Q 1547 4250 1301 3770 
Q 1056 3291 1056 2328 
Q 1056 1369 1301 889 
Q 1547 409 2034 409 
Q 2525 409 2770 889 
Q 3016 1369 3016 2328 
Q 3016 3291 2770 3770 
Q 2525 4250 2034 4250 
z
M 2034 4750 
Q 2819 4750 3233 4129 
Q 3647 3509 3647 2328 
Q 3647 1150 3233 529 
Q 2819 -91 2034 -91 
Q 1250 -91 836 529 
Q 422 1150 422 2328 
Q 422 3509 836 4129 
Q 1250 4750 2034 4750 
z
" transform="scale(0.015625)"/>
        <path id="DejaVuSans-2e" d="M 684 794 
L 1344 794 
L 1344 0 
L 684 0 
L 684 794 
z
" transform="scale(0.015625)"/>
        <path id="DejaVuSans-35" d="M 691 4666 
L 3169 4666 
L 3169 4134 
L 1269 4134 
L 1269 2991 
Q 1406 3038 1543 3061 
Q 1681 3084 1819 3084 
Q 2600 3084 3056 2656 
Q 3513 2228 3513 1497 
Q 3513 744 3044 326 
Q 2575 -91 1722 -91 
Q 1428 -91 1123 -41 
Q 819 9 494 109 
L 494 744 
Q 775 591 1075 516 
Q 1375 441 1709 441 
Q 2250 441 2565 725 
Q 2881 1009 2881 1497 
Q 2881 1984 2565 2268 
Q 2250 2553 1709 2553 
Q 1456 2553 1204 2497 
Q 953 2441 691 2322 
L 691 4666 
z
" transform="scale(0.015625)"/>
       </defs>
       <use xlink:href="#DejaVuSans-30"/>
       <use xlink:href="#DejaVuSans-2e" x="63.623047"/>
       <use xlink:href="#DejaVuSans-35" x="95.410156"/>
      </g>
     </g>
    </g>
    <g id="xtick_2">
     <g id="line2d_2">
      <g>
       <use xlink:href="#m2fc57faac8" x="123.428458" y="175.804329" style="stroke: #000000; stroke-width: 0.8"/>
      </g>
     </g>
     <g id="text_2">
      <!-- 1.0 -->
      <g transform="translate(115.476895 190.402766) scale(0.1 -0.1)">
       <defs>
        <path id="DejaVuSans-31" d="M 794 531 
L 1825 531 
L 1825 4091 
L 703 3866 
L 703 4441 
L 1819 4666 
L 2450 4666 
L 2450 531 
L 3481 531 
L 3481 0 
L 794 0 
L 794 531 
z
" transform="scale(0.015625)"/>
       </defs>
       <use xlink:href="#DejaVuSans-31"/>
       <use xlink:href="#DejaVuSans-2e" x="63.623047"/>
       <use xlink:href="#DejaVuSans-30" x="95.410156"/>
      </g>
     </g>
    </g>
    <g id="xtick_3">
     <g id="line2d_3">
      <g>
       <use xlink:href="#m2fc57faac8" x="183.108304" y="175.804329" style="stroke: #000000; stroke-width: 0.8"/>
      </g>
     </g>
     <g id="text_3">
      <!-- 1.5 -->
      <g transform="translate(175.156742 190.402766) scale(0.1 -0.1)">
       <use xlink:href="#DejaVuSans-31"/>
       <use xlink:href="#DejaVuSans-2e" x="63.623047"/>
       <use xlink:href="#DejaVuSans-35" x="95.410156"/>
      </g>
     </g>
    </g>
    <g id="xtick_4">
     <g id="line2d_4">
      <g>
       <use xlink:href="#m2fc57faac8" x="242.788151" y="175.804329" style="stroke: #000000; stroke-width: 0.8"/>
      </g>
     </g>
     <g id="text_4">
      <!-- 2.0 -->
      <g transform="translate(234.836588 190.402766) scale(0.1 -0.1)">
       <defs>
        <path id="DejaVuSans-32" d="M 1228 531 
L 3431 531 
L 3431 0 
L 469 0 
L 469 531 
Q 828 903 1448 1529 
Q 2069 2156 2228 2338 
Q 2531 2678 2651 2914 
Q 2772 3150 2772 3378 
Q 2772 3750 2511 3984 
Q 2250 4219 1831 4219 
Q 1534 4219 1204 4116 
Q 875 4013 500 3803 
L 500 4441 
Q 881 4594 1212 4672 
Q 1544 4750 1819 4750 
Q 2544 4750 2975 4387 
Q 3406 4025 3406 3419 
Q 3406 3131 3298 2873 
Q 3191 2616 2906 2266 
Q 2828 2175 2409 1742 
Q 1991 1309 1228 531 
z
" transform="scale(0.015625)"/>
       </defs>
       <use xlink:href="#DejaVuSans-32"/>
       <use xlink:href="#DejaVuSans-2e" x="63.623047"/>
       <use xlink:href="#DejaVuSans-30" x="95.410156"/>
      </g>
     </g>
    </g>
   </g>
   <g id="matplotlib.axis_2">
    <g id="ytick_1">
     <g id="line2d_5">
      <defs>
       <path id="me78d751b2b" d="M 0 0 
L -3.5 0 
" style="stroke: #000000; stroke-width: 0.8"/>
      </defs>
      <g>
       <use xlink:href="#me78d751b2b" x="41.667188" y="165.137445" style="stroke: #000000; stroke-width: 0.8"/>
      </g>
     </g>
     <g id="text_5">
      <!-- −140 -->
      <g transform="translate(7.2 168.936664) scale(0.1 -0.1)">
       <defs>
        <path id="DejaVuSans-2212" d="M 678 2272 
L 4684 2272 
L 4684 1741 
L 678 1741 
L 678 2272 
z
" transform="scale(0.015625)"/>
        <path id="DejaVuSans-34" d="M 2419 4116 
L 825 1625 
L 2419 1625 
L 2419 4116 
z
M 2253 4666 
L 3047 4666 
L 3047 1625 
L 3713 1625 
L 3713 1100 
L 3047 1100 
L 3047 0 
L 2419 0 
L 2419 1100 
L 313 1100 
L 313 1709 
L 2253 4666 
z
" transform="scale(0.015625)"/>
       </defs>
       <use xlink:href="#DejaVuSans-2212"/>
       <use xlink:href="#DejaVuSans-31" x="83.789062"/>
       <use xlink:href="#DejaVuSans-34" x="147.412109"/>
       <use xlink:href="#DejaVuSans-30" x="211.035156"/>
      </g>
     </g>
    </g>
    <g id="ytick_2">
     <g id="line2d_6">
      <g>
       <use xlink:href="#me78d751b2b" x="41.667188" y="126.602888" style="stroke: #000000; stroke-width: 0.8"/>
      </g>
     </g>
     <g id="text_6">
      <!-- −120 -->
      <g transform="translate(7.2 130.402107) scale(0.1 -0.1)">
       <use xlink:href="#DejaVuSans-2212"/>
       <use xlink:href="#DejaVuSans-31" x="83.789062"/>
       <use xlink:href="#DejaVuSans-32" x="147.412109"/>
       <use xlink:href="#DejaVuSans-30" x="211.035156"/>
      </g>
     </g>
    </g>
    <g id="ytick_3">
     <g id="line2d_7">
      <g>
       <use xlink:href="#me78d751b2b" x="41.667188" y="88.068332" style="stroke: #000000; stroke-width: 0.8"/>
      </g>
     </g>
     <g id="text_7">
      <!-- −100 -->
      <g transform="translate(7.2 91.867551) scale(0.1 -0.1)">
       <use xlink:href="#DejaVuSans-2212"/>
       <use xlink:href="#DejaVuSans-31" x="83.789062"/>
       <use xlink:href="#DejaVuSans-30" x="147.412109"/>
       <use xlink:href="#DejaVuSans-30" x="211.035156"/>
      </g>
     </g>
    </g>
    <g id="ytick_4">
     <g id="line2d_8">
      <g>
       <use xlink:href="#me78d751b2b" x="41.667188" y="49.533775" style="stroke: #000000; stroke-width: 0.8"/>
      </g>
     </g>
     <g id="text_8">
      <!-- −80 -->
      <g transform="translate(13.5625 53.332994) scale(0.1 -0.1)">
       <defs>
        <path id="DejaVuSans-38" d="M 2034 2216 
Q 1584 2216 1326 1975 
Q 1069 1734 1069 1313 
Q 1069 891 1326 650 
Q 1584 409 2034 409 
Q 2484 409 2743 651 
Q 3003 894 3003 1313 
Q 3003 1734 2745 1975 
Q 2488 2216 2034 2216 
z
M 1403 2484 
Q 997 2584 770 2862 
Q 544 3141 544 3541 
Q 544 4100 942 4425 
Q 1341 4750 2034 4750 
Q 2731 4750 3128 4425 
Q 3525 4100 3525 3541 
Q 3525 3141 3298 2862 
Q 3072 2584 2669 2484 
Q 3125 2378 3379 2068 
Q 3634 1759 3634 1313 
Q 3634 634 3220 271 
Q 2806 -91 2034 -91 
Q 1263 -91 848 271 
Q 434 634 434 1313 
Q 434 1759 690 2068 
Q 947 2378 1403 2484 
z
M 1172 3481 
Q 1172 3119 1398 2916 
Q 1625 2713 2034 2713 
Q 2441 2713 2670 2916 
Q 2900 3119 2900 3481 
Q 2900 3844 2670 4047 
Q 2441 4250 2034 4250 
Q 1625 4250 1398 4047 
Q 1172 3844 1172 3481 
z
" transform="scale(0.015625)"/>
       </defs>
       <use xlink:href="#DejaVuSans-2212"/>
       <use xlink:href="#DejaVuSans-38" x="83.789062"/>
       <use xlink:href="#DejaVuSans-30" x="147.412109"/>
      </g>
     </g>
    </g>
    <g id="ytick_5">
     <g id="line2d_9">
      <g>
       <use xlink:href="#me78d751b2b" x="41.667188" y="10.999219" style="stroke: #000000; stroke-width: 0.8"/>
      </g>
     </g>
     <g id="text_9">
      <!-- −60 -->
      <g transform="translate(13.5625 14.798437) scale(0.1 -0.1)">
       <defs>
        <path id="DejaVuSans-36" d="M 2113 2584 
Q 1688 2584 1439 2293 
Q 1191 2003 1191 1497 
Q 1191 994 1439 701 
Q 1688 409 2113 409 
Q 2538 409 2786 701 
Q 3034 994 3034 1497 
Q 3034 2003 2786 2293 
Q 2538 2584 2113 2584 
z
M 3366 4563 
L 3366 3988 
Q 3128 4100 2886 4159 
Q 2644 4219 2406 4219 
Q 1781 4219 1451 3797 
Q 1122 3375 1075 2522 
Q 1259 2794 1537 2939 
Q 1816 3084 2150 3084 
Q 2853 3084 3261 2657 
Q 3669 2231 3669 1497 
Q 3669 778 3244 343 
Q 2819 -91 2113 -91 
Q 1303 -91 875 529 
Q 447 1150 447 2328 
Q 447 3434 972 4092 
Q 1497 4750 2381 4750 
Q 2619 4750 2861 4703 
Q 3103 4656 3366 4563 
z
" transform="scale(0.015625)"/>
       </defs>
       <use xlink:href="#DejaVuSans-2212"/>
       <use xlink:href="#DejaVuSans-36" x="83.789062"/>
       <use xlink:href="#DejaVuSans-30" x="147.412109"/>
      </g>
     </g>
    </g>
   </g>
   <g id="line2d_10">
    <path d="M 51.812642 30.146091 
L 51.905743 30.013632 
L 51.927227 30.049749 
L 51.936776 30.073842 
L 52.008392 29.893211 
L 52.022715 29.893211 
L 52.127752 29.989524 
L 52.056136 29.881143 
L 52.1373 29.917275 
L 52.244724 29.784815 
L 52.151624 29.96546 
L 52.268596 29.820932 
L 52.461959 29.72462 
L 52.509703 29.640302 
L 52.471508 29.736644 
L 52.576544 29.688487 
L 52.583706 29.664395 
L 52.691129 29.772776 
L 53.502775 29.869118 
L 53.572004 29.917275 
L 53.536196 29.820932 
L 53.610199 29.869118 
L 53.708074 29.808893 
L 53.669879 29.893211 
L 53.722397 29.833001 
L 53.949181 29.72462 
L 53.953955 29.676434 
L 53.996924 29.796869 
L 54.058991 29.736644 
L 54.173577 29.664395 
L 54.104348 29.760737 
L 54.175964 29.676434 
L 54.455266 29.592145 
L 54.464814 29.688487 
L 54.562689 29.519881 
L 54.674887 29.628263 
L 54.79186 29.700512 
L 54.794247 29.760737 
L 54.880186 29.640302 
L 54.901671 29.688487 
L 54.918381 29.628263 
L 54.951802 29.784815 
L 55.009095 29.72462 
L 55.064 29.808893 
L 55.018643 29.688487 
L 55.114131 29.72462 
L 55.161875 29.676434 
L 55.209619 29.784815 
L 55.221555 29.72462 
L 55.297945 29.820932 
L 55.226329 29.700512 
L 55.333753 29.748683 
L 55.436402 29.833001 
L 55.539052 29.90525 
L 55.481759 29.796869 
L 55.5486 29.881143 
L 55.605893 29.796869 
L 55.555762 29.929328 
L 55.656024 29.90525 
L 55.997393 29.796869 
L 56.006942 29.857079 
L 56.116753 29.736644 
L 56.159722 29.833001 
L 56.19553 29.688487 
L 56.226563 29.748683 
L 56.34831 29.604184 
L 56.386505 29.712566 
L 56.455734 29.580106 
L 56.458121 29.604184 
L 56.558383 29.531935 
L 56.589417 29.459671 
L 56.62045 29.556013 
L 56.670582 29.495803 
L 56.894978 29.592145 
L 56.897365 29.616238 
L 56.930786 29.483764 
L 56.997627 29.507857 
L 57.047758 29.592145 
L 57.01195 29.471739 
L 57.116987 29.543989 
L 57.138472 29.495803 
L 57.202926 29.65237 
L 57.2077 29.628263 
L 57.303188 29.712566 
L 57.260218 29.592145 
L 57.319898 29.676434 
L 57.336609 29.65237 
L 57.391514 29.796869 
L 57.42016 29.784815 
L 58.386974 29.688487 
L 58.477687 29.592145 
L 58.444267 29.700512 
L 58.503946 29.628263 
L 58.515882 29.688487 
L 58.587498 29.495803 
L 58.592273 29.531935 
L 58.666276 29.447632 
L 58.656727 29.568052 
L 58.706858 29.495803 
L 58.795184 29.628263 
L 58.821443 29.568052 
L 58.914544 29.664395 
L 59.014806 29.688487 
L 58.964675 29.592145 
L 59.021968 29.628263 
L 59.031516 29.604184 
L 59.057775 29.748683 
L 59.115068 29.700512 
L 59.174748 29.784815 
L 59.146102 29.664395 
L 59.227266 29.72462 
L 59.298882 29.640302 
L 59.284559 29.772776 
L 59.344239 29.664395 
L 59.396757 29.712566 
L 59.442114 29.616238 
L 59.456437 29.688487 
L 60.349247 29.604184 
L 60.456671 29.519881 
L 60.42325 29.664395 
L 60.461445 29.543989 
L 60.499641 29.459671 
L 60.578418 29.580106 
L 60.664357 29.435607 
L 60.697778 29.495803 
L 61.098826 29.580106 
L 61.101213 29.640302 
L 61.125085 29.519881 
L 61.211024 29.616238 
L 61.318448 29.72462 
L 61.22296 29.568052 
L 61.332771 29.676434 
L 61.347094 29.65237 
L 61.380515 29.784815 
L 61.440195 29.700512 
L 61.53807 29.760737 
L 61.526134 29.65237 
L 61.552393 29.712566 
L 62.512045 29.628263 
L 62.543078 29.556013 
L 62.590822 29.676434 
L 62.624243 29.604184 
L 62.62663 29.568052 
L 62.657664 29.688487 
L 62.72928 29.664395 
L 62.83909 29.712566 
L 62.753152 29.640302 
L 62.841478 29.688487 
L 62.858188 29.592145 
L 62.905932 29.700512 
L 62.951289 29.700512 
L 63.006194 29.65237 
L 63.070648 29.760737 
L 63.099295 29.676434 
L 63.087359 29.784815 
L 63.180459 29.736644 
L 63.19717 29.688487 
L 63.295045 29.833001 
L 63.321304 29.784815 
L 63.347563 29.90525 
L 63.400081 29.845025 
L 63.419179 29.96546 
L 63.46931 29.796869 
L 63.512279 29.869118 
L 63.610154 29.772776 
L 63.624477 29.845025 
L 63.626864 29.881143 
L 63.708029 29.688487 
L 63.729514 29.784815 
L 63.760547 29.411514 
L 63.770096 30.025656 
L 64.307215 58.011395 
L 65.209574 89.934864 
L 65.214348 90.019138 
L 65.488876 97.449091 
L 65.519909 98.135496 
L 65.942443 107.600529 
L 65.980638 108.347145 
L 66.345878 114.765563 
L 66.763637 121.051507 
L 66.766024 121.039468 
L 66.773186 121.123756 
L 67.389082 128.782511 
L 67.403405 128.890892 
L 68.365444 137.488904 
L 68.379767 137.585231 
L 68.742621 140.138169 
L 68.745008 140.126115 
L 68.790365 140.463284 
L 68.969404 141.246017 
L 68.976566 141.233992 
L 68.990889 141.185807 
L 69.033859 141.366452 
L 69.069666 141.306257 
L 69.079215 141.294188 
L 69.198575 141.77587 
L 69.437294 143.546045 
L 69.771501 145.870196 
L 69.773889 145.821981 
L 69.788212 145.918323 
L 70.050803 147.483789 
L 69.795373 145.894245 
L 70.05319 147.471765 
L 70.081837 147.556053 
L 70.237004 148.471232 
L 70.260876 148.579657 
L 71.432988 153.938339 
L 71.435376 153.914261 
L 71.442537 154.010574 
L 71.573833 154.516364 
L 71.583382 154.492256 
L 71.585769 154.480232 
L 71.6359 154.709019 
L 71.65261 154.696994 
L 71.793455 155.202755 
L 71.795842 155.190701 
L 71.824488 155.299097 
L 72.130049 156.358774 
L 72.137211 156.310647 
L 72.139598 156.274485 
L 72.225537 156.6478 
L 72.361607 157.105434 
L 72.363994 157.09338 
L 72.385479 157.177639 
L 72.531098 157.71956 
L 72.834271 158.682895 
L 72.841433 158.634738 
L 72.910661 158.911711 
L 72.922597 158.911711 
L 73.173253 159.682391 
L 73.180414 159.646288 
L 73.211448 159.742601 
L 73.349905 160.248361 
L 73.366615 160.224312 
L 73.369003 160.188151 
L 73.454942 160.51331 
L 73.459716 160.477178 
L 73.502685 160.51331 
L 73.619658 160.802307 
L 73.679338 160.874542 
L 73.801085 161.175593 
L 73.803472 161.13952 
L 73.815408 161.127466 
L 73.875088 161.320121 
L 73.877475 161.320121 
L 73.884636 161.284019 
L 74.080386 161.801803 
L 74.087548 161.741593 
L 74.175874 162.078747 
L 74.178261 162.054698 
L 74.183036 162.03059 
L 74.268975 162.223275 
L 74.276136 162.187143 
L 74.397883 162.355749 
L 74.510081 162.632722 
L 74.550664 162.572512 
L 74.553051 162.560458 
L 74.624667 162.765197 
L 74.729703 163.078243 
L 74.760737 163.030086 
L 74.839514 163.138482 
L 74.966035 163.319084 
L 75.00423 163.246849 
L 75.068685 163.403402 
L 75.071072 163.391348 
L 75.116429 163.499714 
L 75.297855 163.93324 
L 75.133139 163.475666 
L 75.312178 163.921216 
L 75.314566 163.848981 
L 75.410053 164.125925 
L 75.414828 164.101817 
L 75.548511 164.366736 
L 75.431538 164.089793 
L 75.550898 164.354712 
L 75.567608 164.318609 
L 75.627288 164.523289 
L 75.760971 164.824369 
L 75.782456 164.752135 
L 75.78723 164.740051 
L 75.858846 164.920682 
L 75.868395 164.88455 
L 76.014013 165.161523 
L 76.033111 165.113396 
L 76.085629 165.330129 
L 76.109501 165.281944 
L 76.231248 165.570941 
L 76.236022 165.558917 
L 76.247958 165.498706 
L 76.305251 165.655259 
L 76.341059 165.643205 
L 76.343446 165.631151 
L 76.415062 165.811811 
L 76.431772 165.715469 
L 76.548745 166.040628 
L 76.675266 166.148965 
L 76.789851 166.233254 
L 76.689589 166.124887 
L 76.797013 166.209175 
L 76.808949 166.161019 
L 76.835208 166.28144 
L 76.904437 166.233254 
L 76.99515 166.293464 
L 76.942632 166.221229 
L 77.016635 166.245337 
L 77.109735 166.221229 
L 77.059604 166.34165 
L 77.124059 166.28144 
L 77.231482 166.474124 
L 77.128833 166.269386 
L 77.262516 166.437992 
L 77.372327 166.293464 
L 77.293549 166.474124 
L 77.377101 166.377782 
L 77.453491 166.474124 
L 77.580013 166.678862 
L 77.594336 166.618652 
L 77.680275 166.775146 
L 77.689823 166.678862 
L 77.747116 166.7872 
L 77.878412 167.016016 
L 77.933317 166.96786 
L 77.959576 167.076197 
L 77.988223 167.02807 
L 78.014482 166.991909 
L 78.112357 167.196618 
L 78.121906 167.100334 
L 78.179198 167.280935 
L 78.219781 167.256857 
L 78.238878 167.232779 
L 78.374948 167.497669 
L 78.38211 167.425434 
L 78.451338 167.642197 
L 78.47521 167.606094 
L 78.582634 167.786696 
L 78.503857 167.569933 
L 78.589796 167.702407 
L 78.680509 167.606094 
L 78.668573 167.714432 
L 78.704381 167.666305 
L 78.80703 167.569933 
L 78.914454 167.449542 
L 78.821353 167.581987 
L 78.924003 167.497669 
L 79.155561 167.569933 
L 79.205692 167.678329 
L 79.25821 167.53383 
L 79.262984 167.545855 
L 79.265371 167.521806 
L 79.358472 167.666305 
L 79.363246 167.642197 
L 79.673582 167.738539 
L 79.718938 167.678329 
L 79.788167 167.834852 
L 79.80249 167.750593 
L 79.890816 167.883067 
L 79.900365 167.834852 
L 79.995853 168.051615 
L 80.022112 168.015512 
L 80.096115 167.931194 
L 80.103276 167.871013 
L 80.153408 168.027566 
L 80.203539 167.979351 
L 80.344383 167.750593 
L 80.215475 168.027566 
L 80.349157 167.786696 
L 80.375417 167.85893 
L 80.454194 167.690353 
L 80.566392 167.160544 
L 80.587877 167.196618 
L 80.590264 167.208671 
L 80.645169 166.991909 
L 80.680977 166.871488 
L 80.757368 166.943752 
L 80.790788 166.919674 
L 80.879114 167.064173 
L 81.01041 166.991909 
L 81.041444 166.811307 
L 81.124995 166.871488 
L 81.134544 166.84741 
L 81.258678 167.112359 
L 81.296873 167.040124 
L 81.370876 167.08828 
L 81.389974 167.148461 
L 81.435331 166.96786 
L 81.4783 167.016016 
L 81.483075 166.955806 
L 81.585724 167.076197 
L 81.600047 167.040124 
L 81.609596 167.136407 
L 81.685986 167.136407 
L 81.817282 167.268882 
L 81.709858 167.08828 
L 81.819669 167.256857 
L 81.829218 167.232779 
L 81.910382 167.401385 
L 81.917544 167.341146 
L 82.024968 167.545855 
L 82.034516 167.509723 
L 82.087035 167.618089 
L 82.187297 167.750593 
L 82.134778 167.581987 
L 82.206394 167.726485 
L 82.223105 167.678329 
L 82.275623 167.871013 
L 82.29472 167.834852 
L 82.416467 168.051615 
L 82.528665 168.184119 
L 82.426016 168.027566 
L 82.542989 168.147957 
L 82.547763 168.075693 
L 82.616992 168.220192 
L 82.648025 168.196114 
L 82.650412 168.244329 
L 82.662348 168.123879 
L 82.757836 168.172065 
L 82.879583 168.075693 
L 82.972684 167.967356 
L 82.901068 168.147957 
L 82.989394 168.051615 
L 82.991781 168.063669 
L 83.068171 167.919141 
L 83.080107 167.967356 
L 83.103979 167.907116 
L 83.12069 168.027566 
L 83.185144 168.003458 
L 83.294955 168.03959 
L 83.259147 167.883067 
L 83.297342 168.027566 
L 83.347473 167.943278 
L 83.447735 167.786696 
L 83.354635 167.967356 
L 83.464445 167.834852 
L 83.595741 167.53383 
L 83.46922 167.846906 
L 83.626775 167.581987 
L 83.696003 167.642197 
L 83.729424 167.509723 
L 83.731811 167.521806 
L 83.822525 167.41338 
L 83.736586 167.53383 
L 83.853558 167.449542 
L 83.879817 167.509723 
L 83.956207 167.35317 
L 83.958595 167.377278 
L 84.054082 167.256857 
L 83.977692 167.425434 
L 84.075567 167.317067 
L 84.197314 167.196618 
L 84.125698 167.389332 
L 84.199701 167.232779 
L 84.206863 167.256857 
L 84.297576 167.100334 
L 84.395451 167.040124 
L 84.307125 167.136407 
L 84.407387 167.08828 
L 84.505262 167.172569 
L 84.46468 167.02807 
L 84.517198 167.076197 
L 84.612686 166.775146 
L 84.526747 167.160544 
L 84.662817 166.90762 
L 85.028057 166.991909 
L 85.111609 167.136407 
L 85.130707 166.943752 
L 85.276326 166.148965 
L 85.278713 166.173073 
L 85.314521 166.28144 
L 85.414783 166.365728 
L 85.324069 166.209175 
L 85.438655 166.34165 
L 85.455365 166.293464 
L 85.505496 166.4621 
L 85.534143 166.413884 
L 85.632017 166.570437 
L 85.648728 166.558413 
L 85.744216 166.630647 
L 85.796734 166.678862 
L 85.806283 166.558413 
L 85.851639 166.594545 
L 85.985322 166.678862 
L 86.066487 166.763151 
L 86.040228 166.666809 
L 86.09752 166.726989 
L 86.202557 166.630647 
L 86.107069 166.763151 
L 86.219267 166.678862 
L 86.267011 166.582491 
L 86.383984 166.076731 
L 86.415017 166.209175 
L 86.448438 166.185127 
L 86.500956 166.34165 
L 86.522441 166.317601 
L 86.615541 166.437992 
L 86.70148 166.498202 
L 86.813678 166.654725 
L 86.746837 166.437992 
L 86.816066 166.630647 
L 86.942587 166.486148 
L 86.839938 166.642701 
L 86.944974 166.510227 
L 86.947361 166.546388 
L 87.028526 166.413884 
L 87.052398 166.4621 
L 87.183693 166.365728 
L 87.186081 166.317601 
L 87.255309 166.474124 
L 87.28873 166.474124 
L 87.417638 166.413884 
L 87.529837 166.245337 
L 87.532224 166.257391 
L 87.556096 166.34165 
L 87.622937 166.197151 
L 87.642035 166.245337 
L 87.708876 166.269386 
L 87.651583 166.173073 
L 87.742297 166.173073 
L 87.744684 166.148965 
L 87.768556 166.293464 
L 87.847333 166.221229 
L 88.033534 166.317601 
L 88.129022 166.413884 
L 88.109925 166.293464 
L 88.145733 166.365728 
L 88.193476 166.269386 
L 88.205412 166.245337 
L 88.281803 166.401889 
L 88.291351 166.389836 
L 88.382065 166.486148 
L 88.317611 166.34165 
L 88.413098 166.450046 
L 88.508586 166.365728 
L 88.43697 166.486148 
L 88.522909 166.401889 
L 88.623171 166.486148 
L 88.532458 166.389836 
L 88.63272 166.389836 
L 88.635107 166.377782 
L 88.666141 166.510227 
L 88.725821 166.474124 
L 88.730595 166.510227 
L 88.775952 166.389836 
L 88.826083 166.413884 
L 88.840406 166.425938 
L 88.943055 166.293464 
L 88.969314 166.365728 
L 88.98125 166.185127 
L 89.048092 166.221229 
L 89.153128 166.269386 
L 89.136418 166.136941 
L 89.16029 166.221229 
L 89.205647 166.148965 
L 89.248616 166.28144 
L 89.265327 166.257391 
L 89.317845 166.305518 
L 89.33933 166.173073 
L 89.375137 166.245337 
L 89.379912 166.197151 
L 89.444366 166.329625 
L 89.470625 166.293464 
L 89.537467 166.353674 
L 89.496884 166.233254 
L 89.580436 166.317601 
L 89.70457 166.173073 
L 89.945677 166.064677 
L 90.103232 165.739577 
L 89.957613 166.124887 
L 90.105619 165.787704 
L 90.110393 165.823865 
L 90.201107 165.655259 
L 90.205881 165.679366 
L 90.332402 165.474658 
L 90.220204 165.703415 
L 90.334789 165.498706 
L 90.399244 165.426442 
L 90.506667 165.293997 
L 90.418341 165.450521 
L 90.513829 165.330129 
L 90.537701 165.233787 
L 90.645125 165.041132 
L 90.554411 165.281944 
L 90.661835 165.077235 
L 90.707192 165.12542 
L 90.685707 164.992946 
L 90.766871 165.017024 
L 90.891006 165.20968 
L 90.902942 165.137445 
L 90.948298 165.20968 
L 90.950685 165.257895 
L 90.976945 165.12542 
L 91.055722 165.137445 
L 91.172694 165.281944 
L 91.237149 165.137445 
L 91.18463 165.306022 
L 91.284893 165.257895 
L 91.342185 165.366232 
L 91.296828 165.221733 
L 91.394703 165.245841 
L 91.466319 164.992946 
L 91.514063 165.017024 
L 91.578517 165.113396 
L 91.549871 164.980922 
L 91.626261 165.077235 
L 91.721749 164.968868 
L 91.645359 165.089259 
L 91.743234 165.004971 
L 91.836334 164.908658 
L 91.981953 163.981426 
L 91.991502 163.885054 
L 92.211124 162.716981 
L 92.215898 162.74106 
L 92.523846 161.344229 
L 92.569203 161.52483 
L 92.676627 161.789779 
L 92.69095 161.765701 
L 92.815084 162.090801 
L 92.855666 162.03059 
L 92.943992 161.452566 
L 92.986962 161.621202 
L 93.010834 161.548908 
L 93.080062 161.70549 
L 93.091998 161.669329 
L 93.170776 161.886092 
L 93.211358 161.849989 
L 93.349815 161.994488 
L 93.352202 161.958326 
L 93.414269 162.114879 
L 93.454852 162.078747 
L 93.512144 161.934278 
L 93.574211 161.982463 
L 93.693571 162.126962 
L 93.695958 162.102854 
L 93.741315 161.994488 
L 93.774736 162.187143 
L 93.803382 162.175089 
L 93.872611 162.090801 
L 93.91558 162.247353 
L 94.008681 162.151011 
L 93.922742 162.283515 
L 94.023004 162.247353 
L 94.075522 162.343725 
L 94.030165 162.223275 
L 94.135202 162.283515 
L 94.2474 162.247353 
L 94.1543 162.355749 
L 94.249787 162.259407 
L 94.273659 162.307563 
L 94.328565 162.175089 
L 94.354824 162.211251 
L 94.722452 162.29551 
L 94.724839 162.331671 
L 94.825101 162.199197 
L 94.827488 162.211251 
L 94.841811 162.307563 
L 94.908653 162.175089 
L 94.932525 162.235299 
L 94.934912 162.163065 
L 94.951622 162.283515 
L 95.042336 162.235299 
L 95.1235 162.307563 
L 95.075756 162.199197 
L 95.161695 162.271461 
L 95.214214 162.102854 
L 95.276281 162.175089 
L 95.324025 162.283515 
L 95.30254 162.126962 
L 95.390866 162.247353 
L 95.500677 162.187143 
L 95.503064 162.223275 
L 95.507838 162.271461 
L 95.572293 162.138986 
L 95.608101 162.175089 
L 95.729847 161.958326 
L 95.737009 161.994488 
L 95.77043 162.054698 
L 95.789527 161.910199 
L 95.844433 161.958326 
L 95.947082 161.898116 
L 96.047344 161.693437 
L 96.061667 161.729539 
L 96.192963 161.476644 
L 96.207286 161.548908 
L 96.209673 161.560992 
L 96.293225 161.416464 
L 96.300387 161.452566 
L 96.414972 161.332146 
L 96.324259 161.488728 
L 96.419747 161.356253 
L 96.500911 161.380331 
L 96.517621 161.284019 
L 96.52717 161.320121 
L 96.792149 161.428517 
L 96.904347 161.512776 
L 96.806472 161.40441 
L 96.909121 161.452566 
L 96.987899 161.536855 
L 96.990286 161.573016 
L 97.03803 161.416464 
L 97.09771 161.52483 
L 97.355527 161.416464 
L 97.670636 159.333183 
L 97.677798 159.417472 
L 97.744639 159.020108 
L 97.747026 159.020108 
L 97.751801 159.032132 
L 97.964261 157.936323 
L 97.969035 157.960372 
L 98.026328 157.755663 
L 98.03349 157.755663 
L 98.171947 157.310142 
L 98.174334 157.334191 
L 98.253111 157.09338 
L 98.260273 157.09338 
L 98.30563 156.997008 
L 98.427377 156.756167 
L 98.635062 156.190197 
L 98.434538 156.768221 
L 98.644611 156.214275 
L 98.646998 156.226358 
L 98.721001 156.033674 
L 98.859459 155.612202 
L 98.864233 155.684466 
L 98.931074 155.383415 
L 98.954946 155.407463 
L 99.012239 155.503806 
L 99.18173 156.166148 
L 99.019401 155.491752 
L 99.184117 156.14204 
L 99.193666 156.105938 
L 99.25812 156.334695 
L 99.45387 156.852509 
L 99.461031 156.840456 
L 99.472967 156.756167 
L 99.539809 157.045194 
L 99.563681 157.021116 
L 99.697364 157.334191 
L 99.699751 157.310142 
L 99.702138 157.273981 
L 99.800013 157.454641 
L 99.8024 157.430534 
L 99.814336 157.41848 
L 99.924147 157.671404 
L 100.04112 157.815903 
L 99.948019 157.647326 
L 100.048281 157.755663 
L 100.050668 157.731614 
L 100.119897 157.948377 
L 100.143769 157.876113 
L 100.258354 158.008587 
L 100.275065 157.912216 
L 100.353842 158.153086 
L 100.363391 158.116924 
L 100.365778 158.104871 
L 100.427845 158.273477 
L 100.451717 158.237374 
L 100.580625 158.502294 
L 100.583013 158.466132 
L 100.5854 158.454137 
L 100.66179 158.634738 
L 100.704759 158.719056 
L 100.752503 158.694949 
L 100.821732 158.875609 
L 100.938704 159.080318 
L 100.831281 158.851501 
L 100.943479 159.044156 
L 100.967351 158.971922 
L 101.024643 159.128445 
L 101.048515 159.092372 
L 101.153552 159.309076 
L 101.055677 159.080318 
L 101.167875 159.260919 
L 101.222781 159.357291 
L 101.34214 158.622685 
L 101.370787 158.514347 
L 101.566536 157.394402 
L 101.583247 157.430534 
L 101.690671 157.59914 
L 101.697832 157.5389 
L 101.724091 157.502798 
L 101.747963 157.647326 
L 101.800481 157.611164 
L 101.853 157.71956 
L 101.841064 157.59914 
L 101.915067 157.671404 
L 101.979521 157.791824 
L 101.919841 157.647326 
L 102.032039 157.743639 
L 102.246887 157.852005 
L 102.285082 157.779741 
L 102.38057 158.008587 
L 102.402054 157.912216 
L 102.452185 158.056714 
L 102.487993 158.04466 
L 102.688518 158.128978 
L 102.757746 158.249399 
L 102.695679 158.104871 
L 102.803103 158.201213 
L 102.834136 158.261423 
L 102.886655 158.345712 
L 102.858008 158.225321 
L 102.943947 158.297585 
L 102.946335 158.261423 
L 103.020338 158.393897 
L 103.046597 158.393897 
L 103.173118 158.514347 
L 103.075243 158.321633 
L 103.177892 158.49024 
L 103.25667 158.393897 
L 103.280542 158.538396 
L 103.287703 158.49024 
L 103.297252 158.442083 
L 103.407063 158.586582 
L 103.438096 158.49024 
L 103.500164 158.622685 
L 103.516874 158.61066 
L 104.087413 158.502294 
L 104.139931 158.466132 
L 104.163803 158.586582 
L 104.190063 158.562474 
L 104.201998 158.61066 
L 104.26884 158.442083 
L 104.28555 158.502294 
L 104.32852 158.466132 
L 104.376264 158.61066 
L 104.390587 158.586582 
L 104.397748 158.646792 
L 104.452654 158.478186 
L 104.502785 158.586582 
L 104.591111 158.646792 
L 104.698535 158.803345 
L 104.705696 158.779237 
L 104.710471 158.706973 
L 104.794023 158.887604 
L 104.808346 158.863555 
L 104.906221 159.032132 
L 104.846541 158.815369 
L 104.930093 158.971922 
L 104.999321 159.05621 
L 105.106745 159.309076 
L 105.125843 159.297081 
L 105.147327 159.260919 
L 105.195071 159.357291 
L 105.230879 159.297081 
L 105.271461 159.417472 
L 105.345464 159.38134 
L 105.462437 159.477682 
L 105.414693 159.333183 
L 105.464824 159.465628 
L 105.550763 159.38134 
L 105.569861 159.513843 
L 105.574635 159.465628 
L 105.584184 159.50179 
L 105.608056 159.357291 
L 105.684446 159.453604 
L 105.756062 159.333183 
L 105.691607 159.477682 
L 105.799031 159.417472 
L 105.822903 159.441579 
L 105.846775 159.333183 
L 105.901681 159.369315 
L 106.016266 159.297081 
L 105.908842 159.393393 
L 106.018653 159.345208 
L 106.066397 159.38134 
L 106.102205 159.248865 
L 106.121302 159.309076 
L 106.221565 159.140528 
L 106.138013 159.345208 
L 106.243049 159.188655 
L 106.269308 159.224816 
L 106.300342 159.104367 
L 106.350473 159.140528 
L 106.448348 159.068264 
L 106.410153 159.212792 
L 106.462671 159.104367 
L 106.517577 159.140528 
L 106.536674 159.008054 
L 106.553384 159.032132 
L 106.574869 158.923765 
L 106.620226 159.044156 
L 106.663195 158.996029 
L 106.665583 159.020108 
L 106.72765 158.899658 
L 106.763458 158.959868 
L 106.878043 158.827394 
L 106.975918 158.935819 
L 106.95682 158.779237 
L 107.004564 158.911711 
L 107.116762 158.79132 
L 107.009338 158.971922 
L 107.126311 158.863555 
L 107.219412 158.779237 
L 107.333997 158.646792 
L 107.250445 158.815369 
L 107.336384 158.682895 
L 107.46768 158.598606 
L 107.479616 158.622685 
L 107.587039 158.466132 
L 107.789951 158.357795 
L 107.928408 158.153086 
L 107.794725 158.381873 
L 107.933183 158.201213 
L 107.985701 158.116924 
L 108.081189 157.71956 
L 108.004798 158.128978 
L 108.109835 157.755663 
L 108.128932 157.647326 
L 108.186225 157.815903 
L 108.219646 157.743639 
L 108.22442 157.779741 
L 108.30081 157.683399 
L 108.327069 157.731614 
L 108.348554 157.671404 
L 108.415396 157.839951 
L 108.432106 157.791824 
L 108.434493 157.815903 
L 108.527594 157.647326 
L 108.541917 157.779741 
L 108.63263 157.587115 
L 108.663664 157.65935 
L 108.75199 157.71956 
L 108.677987 157.59914 
L 108.775862 157.707507 
L 109.026517 157.815903 
L 109.10052 157.876113 
L 109.119618 157.791824 
L 109.136328 157.852005 
L 109.167362 157.755663 
L 109.222267 157.888137 
L 109.246139 157.839951 
L 109.322529 157.92424 
L 109.291496 157.815903 
L 109.367886 157.888137 
L 109.389371 157.815903 
L 109.410856 157.936323 
L 109.477697 157.888137 
L 109.604218 157.779741 
L 109.637639 157.743639 
L 109.682996 157.876113 
L 109.709255 157.815903 
L 109.776096 157.864059 
L 109.759386 157.71956 
L 109.821453 157.852005 
L 109.909779 157.743639 
L 109.931264 157.815903 
L 109.936038 157.864059 
L 110.024364 157.683399 
L 110.031526 157.707507 
L 110.148498 157.623189 
L 110.084044 157.731614 
L 110.153273 157.647326 
L 110.220114 157.695453 
L 110.229663 157.59914 
L 110.260697 157.623189 
L 110.611614 157.5389 
L 110.714263 157.490744 
L 110.62355 157.575062 
L 110.721425 157.5389 
L 110.790654 157.575062 
L 110.809751 157.466666 
L 110.824074 157.502798 
L 110.847946 157.394402 
L 110.902852 157.526905 
L 110.936272 157.442587 
L 111.060406 157.587115 
L 110.984016 157.406455 
L 111.065181 157.526905 
L 111.067568 157.47869 
L 111.153507 157.623189 
L 111.170217 157.623189 
L 111.454293 157.550954 
L 111.566492 157.430534 
L 111.571266 157.490744 
L 111.638107 157.322137 
L 111.669141 157.322137 
L 111.821921 157.045194 
L 111.673915 157.346245 
L 111.826696 157.09338 
L 111.855342 157.141507 
L 111.919796 156.997008 
L 111.929345 157.045194 
L 111.981863 156.948881 
L 112.082125 156.828431 
L 112.01051 156.997008 
L 112.101223 156.852509 
L 112.110772 156.888671 
L 112.177613 156.695957 
L 112.196711 156.744172 
L 112.313683 156.575536 
L 112.31607 156.611668 
L 112.332781 156.695957 
L 112.402009 156.551458 
L 112.421107 156.551458 
L 112.523756 156.467199 
L 112.437817 156.599644 
L 112.533305 156.539404 
L 112.669375 156.720035 
L 112.542854 156.491248 
L 112.67415 156.683932 
L 112.786348 156.58762 
L 112.724281 156.720035 
L 112.793509 156.6478 
L 112.857963 156.695957 
L 112.805445 156.611668 
L 112.900933 156.635747 
L 113.02268 156.539404 
L 112.939128 156.708011 
L 113.027454 156.563512 
L 113.058488 156.6478 
L 113.122942 156.479194 
L 113.125329 156.491248 
L 113.230366 156.418984 
L 113.192171 156.539404 
L 113.239914 156.443121 
L 113.297207 156.479194 
L 113.275722 156.370857 
L 113.349725 156.455145 
L 113.464311 156.370857 
L 113.41418 156.503302 
L 113.471472 156.382911 
L 113.571734 156.431038 
L 113.559798 156.298593 
L 113.58367 156.406959 
L 113.602768 156.431038 
L 113.676771 156.334695 
L 113.681545 156.334695 
L 113.793743 156.190197 
L 113.693481 156.370857 
L 113.796131 156.20225 
L 113.812841 156.274485 
L 113.862972 156.08183 
L 113.891618 156.129986 
L 114.015752 156.033674 
L 113.932201 156.166148 
L 114.01814 156.057722 
L 114.225826 155.961439 
L 114.321313 155.877121 
L 114.275957 156.033674 
L 114.340411 155.925277 
L 114.447835 156.009566 
L 114.457383 156.08183 
L 114.526612 155.937302 
L 114.560033 156.033674 
L 114.650746 156.117933 
L 114.588679 155.973434 
L 114.672231 156.08183 
L 114.755783 155.985488 
L 114.703264 156.093884 
L 114.786816 156.045698 
L 114.827398 155.985488 
L 114.836947 156.105938 
L 114.891853 156.057722 
L 114.999276 156.214275 
L 114.903789 155.997512 
L 115.013599 156.20225 
L 115.018374 156.14204 
L 115.068505 156.310647 
L 115.116249 156.286539 
L 115.190252 156.238382 
L 115.235609 156.382911 
L 115.273804 156.467199 
L 115.350194 156.298593 
L 115.405099 156.382911 
L 115.374066 156.274485 
L 115.462392 156.334695 
L 115.543557 156.178172 
L 115.491038 156.346749 
L 115.576977 156.226358 
L 115.756017 156.178172 
L 115.837181 156.069776 
L 115.803761 156.214275 
L 115.868215 156.117933 
L 115.918346 156.14204 
L 115.9828 156.033674 
L 116.02577 155.937302 
L 116.111709 155.756671 
L 116.149904 155.804886 
L 116.152291 155.865067 
L 116.183324 155.744676 
L 116.257327 155.768725 
L 116.259715 155.732622 
L 116.324169 155.889175 
L 116.359977 155.816911 
L 116.407721 155.949385 
L 116.472175 155.865067 
L 116.498434 155.828935 
L 116.558114 156.021649 
L 116.574824 155.985488 
L 116.703733 156.178172 
L 116.589147 155.937302 
L 116.710894 156.129986 
L 116.749089 156.08183 
L 116.796833 156.226358 
L 116.815931 156.20225 
L 116.830254 156.178172 
L 116.894708 156.310647 
L 116.920967 156.238382 
L 117.042714 156.394935 
L 117.09762 156.298593 
L 117.116717 156.467199 
L 117.150138 156.443121 
L 117.348275 156.346749 
L 117.443763 156.274485 
L 117.372147 156.406959 
L 117.458086 156.3227 
L 117.474796 156.406959 
L 117.481958 156.274485 
L 117.570284 156.3227 
L 117.601318 156.274485 
L 117.65861 156.394935 
L 117.665772 156.394935 
L 117.711129 156.274485 
L 117.780357 156.455145 
L 117.992817 156.539404 
L 117.995205 156.58762 
L 118.047723 156.443121 
L 118.102628 156.539404 
L 118.195729 156.346749 
L 118.221988 156.394935 
L 118.274506 156.310647 
L 118.369994 156.250436 
L 118.293604 156.358774 
L 118.386704 156.262461 
L 118.771043 156.334695 
L 118.825948 156.262461 
L 118.883241 156.394935 
L 118.990664 156.443121 
L 118.957244 156.334695 
L 118.995439 156.418984 
L 119.133896 156.08183 
L 119.052732 156.539404 
L 119.136283 156.093884 
L 119.267579 156.298593 
L 119.336808 156.382911 
L 119.379777 156.250436 
L 119.49675 156.443121 
L 119.501524 156.406959 
L 119.506298 156.346749 
L 119.601786 156.563512 
L 119.733082 156.623722 
L 119.84528 156.756167 
L 119.759341 156.611668 
L 119.847667 156.744172 
L 119.914508 156.756167 
L 119.969414 156.551458 
L 120.036255 156.659854 
L 120.081612 156.623722 
L 120.122194 156.575536 
L 120.141292 156.659854 
L 120.19381 156.611668 
L 120.317944 156.539404 
L 120.325106 156.443121 
L 120.430142 156.491248 
L 120.499371 156.599644 
L 120.439691 156.467199 
L 120.54234 156.563512 
L 120.597246 156.611668 
L 120.659313 156.467199 
L 120.752414 156.659854 
L 120.773898 156.539404 
L 120.876548 156.467199 
L 120.783447 156.635747 
L 120.886096 156.515355 
L 121.043651 156.418984 
L 121.20598 155.371331 
L 121.222691 155.262965 
L 121.356374 154.4441 
L 121.358761 154.456183 
L 121.361148 154.480232 
L 121.432764 154.155102 
L 121.442313 154.191234 
L 121.4447 154.167156 
L 121.506767 154.420021 
L 121.530639 154.395973 
L 121.638062 154.600681 
L 121.554511 154.371836 
L 121.67387 154.576574 
L 121.676258 154.540471 
L 121.771745 154.769229 
L 121.77652 154.709019 
L 121.864846 154.853517 
L 121.934074 154.973967 
L 121.879169 154.817444 
L 121.981818 154.925782 
L 122.358995 155.034178 
L 122.363769 155.07028 
L 122.435385 154.937835 
L 122.466419 154.985992 
L 122.602489 155.190701 
L 122.60965 155.154569 
L 122.623974 155.082334 
L 122.662169 155.202755 
L 122.717074 155.166652 
L 122.807787 155.262965 
L 122.721848 155.154569 
L 122.829272 155.190701 
L 122.836434 155.106442 
L 122.896114 155.214779 
L 122.939083 155.202755 
L 123.008312 155.287043 
L 123.115735 155.347253 
L 123.039345 155.226833 
L 123.12051 155.335199 
L 123.134833 155.274989 
L 123.220772 155.431542 
L 123.244644 155.335199 
L 123.347293 155.503806 
L 123.404586 155.600177 
L 123.46904 155.696461 
L 123.519171 155.684466 
L 123.521558 155.672412 
L 123.552592 155.792803 
L 123.619433 155.732622 
L 123.698211 155.840989 
L 123.636144 155.696461 
L 123.736406 155.756671 
L 123.745955 155.732622 
L 123.779375 155.853013 
L 123.831894 155.828935 
L 123.93693 155.828935 
L 123.889186 155.744676 
L 123.939317 155.804886 
L 124.020482 155.720569 
L 123.944092 155.828935 
L 124.051515 155.792803 
L 124.05629 155.853013 
L 124.087323 155.720569 
L 124.161326 155.780779 
L 124.17565 155.732622 
L 124.185198 155.840989 
L 124.261589 155.804886 
L 124.263976 155.853013 
L 124.359463 155.636251 
L 124.366625 155.696461 
L 124.488372 155.600177 
L 124.490759 155.648304 
L 124.576698 155.503806 
L 124.593408 155.527913 
L 124.626829 155.455649 
L 124.602957 155.564016 
L 124.703219 155.51586 
L 124.777222 155.503806 
L 124.822579 155.624226 
L 124.853613 155.395439 
L 124.937164 155.564016 
L 125.011167 155.720569 
L 125.05175 155.648304 
L 125.094719 155.600177 
L 125.149625 155.780779 
L 125.214079 155.696461 
L 125.156786 155.816911 
L 125.257048 155.768725 
L 125.290469 155.828935 
L 125.268984 155.696461 
L 125.366859 155.768725 
L 125.486219 155.961439 
L 125.507704 155.937302 
L 125.545899 155.889175 
L 125.61274 156.033674 
L 125.615127 155.997512 
L 125.617515 155.973434 
L 125.713002 156.105938 
L 125.801329 156.129986 
L 125.736874 156.033674 
L 125.820426 156.08183 
L 125.872944 156.178172 
L 125.918301 156.250436 
L 125.951722 156.057722 
L 125.982755 156.178172 
L 126.011402 156.117933 
L 126.061533 156.274485 
L 126.078243 156.250436 
L 126.168956 156.370857 
L 126.192828 156.298593 
L 126.247734 156.226358 
L 126.266831 156.334695 
L 126.305026 156.274485 
L 126.355158 156.382911 
L 126.433935 156.418984 
L 126.369481 156.298593 
L 126.464968 156.370857 
L 126.904212 156.467199 
L 126.906599 156.491248 
L 126.94002 156.358774 
L 127.009249 156.418984 
L 127.068928 156.346749 
L 127.030733 156.467199 
L 127.11906 156.431038 
L 127.197837 156.455145 
L 127.21216 156.358774 
L 127.219322 156.382911 
L 127.221709 156.358774 
L 127.28855 156.467199 
L 127.33152 156.370857 
L 127.429395 156.274485 
L 127.534431 156.14204 
L 127.479526 156.3227 
L 127.551142 156.154094 
L 127.570239 156.20225 
L 127.608434 156.08183 
L 127.66334 156.166148 
L 127.734956 156.238382 
L 127.711084 156.069776 
L 127.773151 156.166148 
L 127.847154 156.129986 
L 127.797023 156.250436 
L 127.8758 156.20225 
L 127.930705 156.238382 
L 127.906834 156.129986 
L 127.978449 156.154094 
L 128.405757 156.069776 
L 128.515568 155.997512 
L 128.434403 156.154094 
L 128.517955 156.033674 
L 128.661187 156.105938 
L 128.718479 156.20225 
L 128.689833 156.069776 
L 128.770998 156.08183 
L 128.830678 156.190197 
L 128.849775 156.057722 
L 128.883196 156.154094 
L 128.99062 156.117933 
L 128.966748 156.238382 
L 128.993007 156.166148 
L 128.997781 156.154094 
L 129.050299 156.286539 
L 129.090882 156.238382 
L 129.195918 156.334695 
L 129.222177 156.262461 
L 129.312891 156.443121 
L 129.351086 156.394935 
L 129.39883 156.539404 
L 129.410766 156.539404 
L 129.530125 156.671908 
L 129.429863 156.467199 
L 129.532513 156.659854 
L 129.623226 156.503302 
L 129.666195 156.551458 
L 129.678131 156.635747 
L 129.744973 156.443121 
L 129.771232 156.515355 
L 129.86672 156.382911 
L 129.787942 156.551458 
L 129.888204 156.406959 
L 129.909689 156.467199 
L 129.974143 156.274485 
L 129.976531 156.298593 
L 130.060082 155.889175 
L 130.103052 155.973434 
L 130.453969 156.08183 
L 130.535134 156.214275 
L 130.489777 156.057722 
L 130.573329 156.129986 
L 130.575716 156.105938 
L 130.644945 156.262461 
L 130.680753 156.14204 
L 130.714174 156.262461 
L 130.692689 156.093884 
L 130.797725 156.20225 
L 130.869341 156.310647 
L 130.847856 156.129986 
L 130.921859 156.274485 
L 130.974378 156.250436 
L 131.003024 156.370857 
L 131.01496 156.346749 
L 131.115222 156.527409 
L 131.041219 156.298593 
L 131.131932 156.467199 
L 131.327682 156.563512 
L 131.36349 156.623722 
L 131.411234 156.467199 
L 131.437493 156.551458 
L 131.532981 156.623722 
L 131.494786 156.503302 
L 131.552079 156.58762 
L 131.573563 156.491248 
L 131.652341 156.623722 
L 131.664277 156.563512 
L 131.669051 156.515355 
L 131.778862 156.635747 
L 131.817057 156.539404 
L 131.869575 156.695957 
L 131.888673 156.635747 
L 132.008033 156.780245 
L 131.910158 156.563512 
L 132.01042 156.744172 
L 132.10352 156.659854 
L 132.055776 156.768221 
L 132.122618 156.695957 
L 132.695544 156.792328 
L 132.802968 156.852509 
L 132.759999 156.756167 
L 132.805355 156.828431 
L 132.860261 156.852509 
L 132.922328 156.732118 
L 133.008267 156.876617 
L 132.927102 156.720035 
L 133.036913 156.780245 
L 133.139562 156.756167 
L 133.091819 156.852509 
L 133.144337 156.804382 
L 133.242212 156.852509 
L 133.230276 156.720035 
L 133.254148 156.816407 
L 133.304279 156.91272 
L 133.31144 156.960905 
L 133.394992 156.720035 
L 133.404541 156.720035 
L 133.411703 156.635747 
L 133.511965 156.117933 
L 133.547773 156.250436 
L 133.569257 156.214275 
L 133.631324 156.406959 
L 133.64326 156.406959 
L 133.662358 156.298593 
L 133.719651 156.443121 
L 133.765007 156.346749 
L 133.860495 156.491248 
L 133.88198 156.467199 
L 134.263931 156.394935 
L 134.359419 156.346749 
L 134.275867 156.443121 
L 134.373742 156.382911 
L 134.438196 156.443121 
L 134.466842 156.334695 
L 134.483553 156.382911 
L 134.662592 156.274485 
L 134.672141 156.250436 
L 134.71511 156.382911 
L 134.767629 156.274485 
L 134.882214 156.443121 
L 134.884601 156.394935 
L 134.989638 156.3227 
L 134.898924 156.479194 
L 135.001574 156.370857 
L 135.190162 156.467199 
L 135.221196 156.491248 
L 135.280875 156.382911 
L 135.299973 156.467199 
L 135.357266 156.358774 
L 135.388299 156.503302 
L 135.414558 156.431038 
L 135.43843 156.503302 
L 135.450366 156.394935 
L 135.521982 156.406959 
L 135.55779 156.358774 
L 135.533918 156.467199 
L 135.631793 156.431038 
L 135.918256 156.539404 
L 135.985098 156.623722 
L 135.94929 156.491248 
L 136.035229 156.611668 
L 136.049552 156.515355 
L 136.142652 156.683932 
L 136.235753 156.455145 
L 136.285884 156.491248 
L 136.388533 156.539404 
L 136.29782 156.455145 
L 136.395695 156.491248 
L 136.474472 156.467199 
L 136.426728 156.563512 
L 136.505506 156.503302 
L 136.610542 156.551458 
L 136.55325 156.455145 
L 136.622478 156.539404 
L 136.670222 156.455145 
L 136.658286 156.575536 
L 136.732289 156.491248 
L 136.746612 156.551458 
L 136.760936 156.431038 
L 136.8421 156.479194 
L 136.873134 156.431038 
L 136.942362 156.527409 
L 136.947137 156.491248 
L 136.956685 156.563512 
L 136.987719 156.455145 
L 137.059335 156.515355 
L 137.154823 156.431038 
L 137.064109 156.527409 
L 137.178694 156.467199 
L 137.183469 156.503302 
L 137.257472 156.406959 
L 137.274182 156.431038 
L 137.35296 156.467199 
L 137.38638 156.346749 
L 137.479481 156.431038 
L 137.503353 156.406959 
L 137.598841 156.334695 
L 137.70149 156.250436 
L 137.615551 156.370857 
L 137.711039 156.262461 
L 137.765944 156.3227 
L 137.785042 156.226358 
L 137.818462 156.238382 
L 137.825624 156.214275 
L 137.875755 156.3227 
L 137.918725 156.274485 
L 137.933048 156.3227 
L 137.99034 156.178172 
L 138.026148 156.274485 
L 138.042859 156.214275 
L 138.071505 156.334695 
L 138.133572 156.298593 
L 138.668303 156.20225 
L 138.694563 156.262461 
L 138.785276 156.08183 
L 138.842569 156.178172 
L 138.844956 156.226358 
L 138.899861 156.105938 
L 138.954767 156.20225 
L 138.964315 156.154094 
L 138.971477 156.274485 
L 139.059803 156.214275 
L 139.112322 156.274485 
L 139.155291 156.08183 
L 139.160065 156.105938 
L 139.176776 156.009566 
L 139.212584 156.154094 
L 139.277038 156.033674 
L 139.279425 156.057722 
L 139.339105 155.564016 
L 139.379687 155.431542 
L 139.348654 155.600177 
L 139.446529 155.51586 
L 139.537242 155.696461 
L 139.558727 155.624226 
L 139.561114 155.612202 
L 139.616019 155.696461 
L 139.656602 155.696461 
L 139.718669 155.792803 
L 139.761638 155.624226 
L 139.764025 155.672412 
L 139.792672 155.539967 
L 139.847577 155.768725 
L 139.871449 155.696461 
L 139.974098 155.889175 
L 139.99797 155.853013 
L 140.155525 156.08183 
L 140.179397 155.997512 
L 140.251013 156.214275 
L 140.255787 156.178172 
L 140.358437 156.358774 
L 140.377534 156.298593 
L 140.430053 156.262461 
L 140.415729 156.370857 
L 140.482571 156.334695 
L 140.537476 156.431038 
L 140.578059 156.274485 
L 140.599543 156.394935 
L 140.699805 156.250436 
L 140.714129 156.274485 
L 141.246473 156.346749 
L 141.24886 156.394935 
L 141.298991 156.262461 
L 141.356284 156.334695 
L 141.413576 156.467199 
L 141.365833 156.310647 
L 141.475643 156.418984 
L 142.927057 156.515355 
L 142.970027 156.599644 
L 142.993899 156.479194 
L 143.039255 156.563512 
L 143.06074 156.503302 
L 143.115646 156.683932 
L 143.149066 156.575536 
L 143.25649 156.683932 
L 143.177713 156.539404 
L 143.263652 156.671908 
L 143.309008 156.58762 
L 143.363914 156.732118 
L 143.373463 156.683932 
L 143.581148 156.792328 
L 143.60502 156.852509 
L 143.669475 156.695957 
L 143.693347 156.792328 
L 143.855676 156.695957 
L 143.884322 156.720035 
L 143.970261 156.611668 
L 144.049038 156.720035 
L 144.003682 156.563512 
L 144.082459 156.659854 
L 144.390407 156.756167 
L 144.46441 156.852509 
L 144.399956 156.695957 
L 144.502605 156.816407 
L 144.531252 156.792328 
L 144.578995 156.91272 
L 144.607642 156.852509 
L 144.633901 156.792328 
L 144.727001 156.948881 
L 144.741325 156.852509 
L 144.815328 157.045194 
L 144.832038 157.033169 
L 144.910815 156.924773 
L 144.879782 157.045194 
L 144.946623 157.009091 
L 144.968108 157.069272 
L 145.006303 156.744172 
L 145.00869 156.768221 
L 145.233087 155.022153 
L 145.321413 155.106442 
L 145.240248 154.998046 
L 145.342897 155.01007 
L 145.464644 155.106442 
L 145.352446 154.998046 
L 145.469419 155.094388 
L 145.500452 155.058256 
L 145.550583 155.25094 
L 145.557745 155.202755 
L 145.677105 155.479728 
L 145.693815 155.455649 
L 145.696202 155.431542 
L 145.760656 155.624226 
L 145.789303 155.612202 
L 145.834659 155.660388 
L 145.877629 155.564016 
L 145.899114 155.648304 
L 146.018473 155.51586 
L 146.094864 155.684466 
L 146.152156 155.636251 
L 146.154543 155.624226 
L 146.230934 155.804886 
L 146.233321 155.780779 
L 146.355068 155.877121 
L 146.247644 155.744676 
L 146.357455 155.865067 
L 146.393263 155.792803 
L 146.452943 155.997512 
L 146.457717 155.961439 
L 146.557979 156.069776 
L 146.682113 156.250436 
L 146.569915 156.033674 
L 146.6845 156.238382 
L 146.827732 156.334695 
L 146.930381 156.431038 
L 146.870702 156.262461 
L 146.937543 156.394935 
L 146.987674 156.298593 
L 146.970964 156.443121 
L 147.047354 156.346749 
L 147.157165 156.467199 
L 147.061677 156.334695 
L 147.161939 156.418984 
L 147.169101 156.467199 
L 147.307558 156.238382 
L 147.39111 156.286539 
L 147.360076 156.20225 
L 147.414982 156.214275 
L 147.52718 156.08183 
L 147.424531 156.238382 
L 147.531954 156.105938 
L 147.909131 156.021649 
L 147.913905 155.973434 
L 147.97836 156.093884 
L 148.018942 156.033674 
L 148.038039 156.105938 
L 148.090558 155.985488 
L 148.13114 156.069776 
L 148.202756 155.985488 
L 148.150237 156.093884 
L 148.243338 156.033674 
L 148.274372 156.117933 
L 148.331664 155.997512 
L 148.357923 156.069776 
L 148.465347 156.045698 
L 148.38657 156.129986 
L 148.467734 156.057722 
L 148.584707 156.20225 
L 148.496381 156.045698 
L 148.587094 156.14204 
L 148.596643 156.069776 
L 148.65871 156.226358 
L 148.694518 156.190197 
L 148.801941 156.262461 
L 148.723164 156.14204 
L 148.81149 156.250436 
L 148.978594 156.310647 
L 149.033499 156.370857 
L 149.086017 156.262461 
L 149.145697 156.346749 
L 149.1266 156.250436 
L 149.198216 156.274485 
L 149.308026 156.105938 
L 149.329511 156.178172 
L 149.350996 156.238382 
L 149.384417 156.057722 
L 149.420225 156.08183 
L 149.556295 155.889175 
L 149.558682 155.937302 
L 149.561069 155.973434 
L 149.656557 155.780779 
L 149.752045 155.744676 
L 149.711462 155.840989 
L 149.766368 155.792803 
L 149.785465 155.828935 
L 149.864243 155.660388 
L 149.86663 155.684466 
L 149.954956 155.744676 
L 149.885727 155.672412 
L 149.981215 155.732622 
L 150.093413 155.588124 
L 150.0958 155.648304 
L 150.205611 155.564016 
L 150.262904 155.624226 
L 150.315422 155.491752 
L 150.406136 155.600177 
L 150.420459 155.479728 
L 150.42762 155.551962 
L 150.465816 155.503806 
L 150.542206 155.636251 
L 150.60666 155.551962 
L 150.632919 155.684466 
L 150.652017 155.624226 
L 150.778538 155.720569 
L 150.668727 155.57604 
L 150.780925 155.708515 
L 150.823895 155.648304 
L 150.854928 155.816911 
L 150.8788 155.744676 
L 150.990998 155.853013 
L 150.943254 155.732622 
L 150.993385 155.816911 
L 151.033968 155.780779 
L 151.072163 155.913224 
L 151.100809 155.865067 
L 151.241654 155.756671 
L 151.310882 155.696461 
L 151.28701 155.853013 
L 151.351464 155.732622 
L 151.368175 155.768725 
L 151.411144 155.636251 
L 151.458888 155.720569 
L 151.578248 155.539967 
L 151.609281 155.600177 
L 151.61883 155.503806 
L 151.690446 155.564016 
L 151.764449 155.479728 
L 151.709544 155.612202 
L 151.805031 155.503806 
L 151.840839 155.624226 
L 151.914842 155.479728 
L 151.919617 155.527913 
L 151.99362 155.311151 
L 152.007943 155.311151 
L 152.432863 155.419517 
L 152.475833 155.455649 
L 152.509253 155.311151 
L 152.535513 155.323204 
L 152.745586 155.431542 
L 152.857784 155.503806 
L 152.824363 155.359307 
L 152.860171 155.479728 
L 152.958046 155.371331 
L 152.881656 155.491752 
L 152.974756 155.395439 
L 153.084567 155.539967 
L 153.110826 155.51586 
L 153.225412 155.395439 
L 153.120375 155.539967 
L 153.230186 155.455649 
L 153.263607 155.479728 
L 153.318512 155.395439 
L 153.332835 155.407463 
L 153.411613 155.274989 
L 153.342384 155.479728 
L 153.452195 155.311151 
L 153.516649 155.407463 
L 153.564393 155.311151 
L 153.690914 155.395439 
L 153.693302 155.431542 
L 153.793564 155.287043 
L 153.795951 155.311151 
L 153.800725 155.347253 
L 153.88189 155.202755 
L 153.893826 155.25094 
L 154.01796 155.118495 
L 153.900987 155.287043 
L 154.022734 155.142544 
L 154.058542 155.190701 
L 154.084801 155.01007 
L 154.130158 155.118495 
L 154.304423 155.202755 
L 154.318746 155.154569 
L 154.421396 155.299097 
L 154.428557 155.226833 
L 154.512109 155.395439 
L 154.519271 155.347253 
L 154.626694 155.467703 
L 154.593274 155.311151 
L 154.633856 155.431542 
L 154.712633 155.624226 
L 154.643405 155.419517 
L 154.753216 155.551962 
L 154.755603 155.503806 
L 154.81767 155.660388 
L 154.858252 155.660388 
L 154.872575 155.612202 
L 154.944191 155.720569 
L 154.963289 155.696461 
L 154.972838 155.660388 
L 155.080261 155.804886 
L 155.197234 155.274989 
L 155.096972 155.828935 
L 155.240203 155.311151 
L 155.30227 155.395439 
L 155.254526 155.287043 
L 155.347627 155.311151 
L 155.357176 155.287043 
L 155.424017 155.407463 
L 155.452663 155.347253 
L 155.543377 155.443595 
L 155.509956 155.335199 
L 155.564862 155.383415 
L 155.569636 155.347253 
L 155.622154 155.479728 
L 155.672285 155.431542 
L 155.856099 155.539967 
L 155.944425 155.564016 
L 155.877584 155.491752 
L 155.970685 155.551962 
L 155.982621 155.503806 
L 156.032752 155.672412 
L 156.075721 155.624226 
L 156.135401 155.780779 
L 156.094819 155.588124 
L 156.202242 155.696461 
L 156.285794 155.792803 
L 156.376508 155.889175 
L 156.307279 155.756671 
L 156.402767 155.865067 
L 156.670132 155.973434 
L 156.794266 156.178172 
L 156.677294 155.937302 
L 156.796654 156.129986 
L 156.896916 156.274485 
L 156.806202 156.117933 
L 156.923175 156.226358 
L 156.927949 156.190197 
L 157.009114 156.3227 
L 157.023437 156.310647 
L 157.130861 156.527409 
L 157.030599 156.298593 
L 157.154733 156.406959 
L 157.15712 156.394935 
L 157.221574 156.599644 
L 157.231123 156.551458 
L 157.271705 156.539404 
L 157.345708 156.659854 
L 157.403001 156.58762 
L 157.367193 156.695957 
L 157.453132 156.659854 
L 157.481778 156.756167 
L 157.536684 156.623722 
L 157.562943 156.6478 
L 157.689464 156.563512 
L 157.796888 156.467199 
L 157.730046 156.635747 
L 157.799275 156.551458 
L 157.83747 156.599644 
L 157.885214 156.455145 
L 157.892376 156.467199 
L 157.95683 156.406959 
L 157.911473 156.503302 
L 158.006961 156.443121 
L 158.126321 156.599644 
L 158.011735 156.431038 
L 158.128708 156.563512 
L 158.243293 156.491248 
L 158.138257 156.599644 
L 158.24568 156.527409 
L 158.331619 156.659854 
L 158.267165 156.491248 
L 158.362653 156.551458 
L 158.36504 156.539404 
L 158.412784 156.720035 
L 158.448592 156.659854 
L 158.503497 156.828431 
L 158.565564 156.756167 
L 158.587049 156.671908 
L 158.608534 156.780245 
L 158.675375 156.756167 
L 158.780412 156.852509 
L 158.730281 156.732118 
L 158.799509 156.816407 
L 158.861576 156.768221 
L 158.840092 156.852509 
L 158.906933 156.828431 
L 158.933192 156.91272 
L 158.918869 156.780245 
L 159.021518 156.888671 
L 159.02868 156.828431 
L 159.071649 156.960905 
L 159.128942 156.924773 
L 159.706643 156.852509 
L 159.809292 156.804382 
L 159.716192 156.876617 
L 159.816454 156.852509 
L 159.931039 156.695957 
L 159.954911 156.708011 
L 160.009817 156.840456 
L 160.069496 156.792328 
L 160.203179 156.888671 
L 160.212728 156.876617 
L 160.320152 156.997008 
L 160.37267 156.924773 
L 160.398929 157.045194 
L 160.429963 156.997008 
L 160.44906 157.057218 
L 160.503966 156.936827 
L 160.539774 157.009091 
L 160.58513 156.960905 
L 160.620938 157.069272 
L 160.647197 156.997008 
L 160.702103 156.900666 
L 160.759395 157.045194 
L 160.802365 156.97293 
L 160.84056 157.069272 
L 160.871594 157.033169 
L 160.967081 156.924773 
L 161.081667 156.852509 
L 161.021987 157.033169 
L 161.084054 156.864593 
L 161.115087 156.948881 
L 161.17238 156.756167 
L 161.186703 156.792328 
L 161.289352 156.720035 
L 161.215349 156.828431 
L 161.301288 156.756167 
L 161.349032 156.659854 
L 161.439746 156.539404 
L 161.375291 156.708011 
L 161.463618 156.58762 
L 161.542395 156.418984 
L 161.485102 156.599644 
L 161.578203 156.527409 
L 161.709499 156.250436 
L 161.711886 156.298593 
L 161.738145 156.334695 
L 161.769178 156.20225 
L 161.816922 156.238382 
L 161.933895 156.08183 
L 161.824084 156.262461 
L 161.938669 156.105938 
L 161.962541 156.190197 
L 161.950605 156.033674 
L 162.043706 156.08183 
L 162.12487 155.997512 
L 162.055642 156.105938 
L 162.155904 156.045698 
L 162.165453 156.009566 
L 162.296748 156.20225 
L 162.358815 156.093884 
L 162.406559 156.226358 
L 162.51637 156.117933 
L 162.45669 156.238382 
L 162.530693 156.14204 
L 162.561727 156.20225 
L 162.583212 156.105938 
L 162.642891 156.178172 
L 162.707346 156.20225 
L 162.697797 156.105938 
L 162.750315 156.178172 
L 162.793285 156.093884 
L 162.812382 156.226358 
L 162.860126 156.166148 
L 162.895934 156.250436 
L 162.929355 156.129986 
L 162.962775 156.129986 
L 163.039166 156.069776 
L 162.998583 156.214275 
L 163.070199 156.129986 
L 163.079748 156.178172 
L 163.170461 156.033674 
L 163.172848 156.057722 
L 163.234915 156.021649 
L 163.199108 156.093884 
L 163.282659 156.069776 
L 163.306531 156.129986 
L 163.373373 156.009566 
L 163.382921 156.045698 
L 163.390083 156.069776 
L 163.497507 155.961439 
L 163.540476 156.057722 
L 163.52854 155.937302 
L 163.607318 155.985488 
L 163.655062 155.889175 
L 163.640738 156.033674 
L 163.719516 155.961439 
L 163.803068 156.033674 
L 163.741001 155.925277 
L 163.829327 155.973434 
L 163.93675 155.877121 
L 163.850811 156.009566 
L 163.951074 155.913224 
L 163.986882 155.985488 
L 164.001205 155.889175 
L 164.063272 155.925277 
L 164.096692 155.889175 
L 164.134888 156.045698 
L 164.163534 155.985488 
L 164.189793 155.961439 
L 164.280506 156.117933 
L 164.287668 156.045698 
L 164.342573 156.178172 
L 164.395092 156.08183 
L 164.500128 156.226358 
L 164.407028 156.069776 
L 164.516839 156.214275 
L 164.629037 156.105938 
L 164.562195 156.286539 
L 164.631424 156.129986 
L 164.636198 156.190197 
L 164.712588 156.08183 
L 164.741235 156.129986 
L 165.213899 156.033674 
L 165.326097 155.961439 
L 165.232997 156.105938 
L 165.328484 155.973434 
L 165.378616 156.057722 
L 165.352356 155.913224 
L 165.438295 155.985488 
L 165.961091 156.093884 
L 166.080451 156.190197 
L 166.013609 156.033674 
L 166.087612 156.178172 
L 166.175938 156.154094 
L 166.168777 156.238382 
L 166.187874 156.226358 
L 166.2762 156.334695 
L 166.309621 156.274485 
L 167.250176 156.370857 
L 167.357599 156.418984 
L 167.257337 156.274485 
L 167.362374 156.406959 
L 167.376697 156.3227 
L 167.429215 156.455145 
L 167.481733 156.358774 
L 167.581995 156.455145 
L 167.519928 156.346749 
L 167.596319 156.406959 
L 167.598706 156.370857 
L 167.672709 156.479194 
L 167.703742 156.443121 
L 167.854136 156.527409 
L 167.904267 156.659854 
L 167.866072 156.467199 
L 167.968721 156.611668 
L 167.971108 156.58762 
L 168.049885 156.732118 
L 168.066596 156.732118 
L 168.142986 156.852509 
L 168.080919 156.708011 
L 168.185956 156.780245 
L 168.188343 156.768221 
L 168.216989 156.936827 
L 168.279056 156.876617 
L 168.333962 156.91272 
L 168.295766 156.828431 
L 168.38648 156.864593 
L 168.412739 156.852509 
L 168.448547 156.960905 
L 168.47958 156.960905 
L 168.558358 157.021116 
L 168.520163 156.91272 
L 168.577455 156.924773 
L 168.59894 156.876617 
L 168.632361 157.021116 
L 168.684879 156.97293 
L 168.723074 156.936827 
L 168.775592 157.081326 
L 168.851983 157.105434 
L 168.868693 156.997008 
L 168.885403 157.09338 
L 168.995214 157.021116 
L 168.940309 157.141507 
L 168.997601 157.045194 
L 169.011925 157.117429 
L 169.095476 156.984984 
L 169.105025 157.045194 
L 169.181415 156.997008 
L 169.193351 157.069272 
L 169.214836 157.045194 
L 169.32226 156.936827 
L 169.391488 156.744172 
L 169.331809 156.960905 
L 169.441619 156.804382 
L 169.45833 156.828431 
L 169.529946 156.683932 
L 169.539494 156.768221 
L 169.656467 156.611668 
L 169.658854 156.623722 
L 169.661241 156.635747 
L 169.723308 156.455145 
L 169.737632 156.467199 
L 169.864153 156.238382 
L 169.751955 156.479194 
L 169.868927 156.262461 
L 169.885638 156.310647 
L 169.923833 156.154094 
L 169.959641 156.178172 
L 170.055128 156.08183 
L 170.024095 156.238382 
L 170.074226 156.105938 
L 170.33443 156.20225 
L 170.441854 156.346749 
L 170.35114 156.154094 
L 170.456177 156.334695 
L 170.494372 156.286539 
L 170.534954 156.418984 
L 170.558826 156.370857 
L 170.642378 156.491248 
L 170.673412 156.455145 
L 170.835741 156.563512 
L 170.940777 156.599644 
L 170.847677 156.491248 
L 170.945552 156.563512 
L 170.9551 156.491248 
L 170.969424 156.58762 
L 171.05775 156.527409 
L 171.079234 156.599644 
L 171.11743 156.467199 
L 171.167561 156.527409 
L 171.260661 156.394935 
L 171.294082 156.455145 
L 171.358536 156.551458 
L 171.372859 156.467199 
L 171.470734 156.58762 
L 171.578158 156.515355 
L 171.570996 156.659854 
L 171.582932 156.575536 
L 171.66171 156.503302 
L 171.628289 156.635747 
L 171.687969 156.58762 
L 171.704679 156.563512 
L 171.809716 156.756167 
L 171.893268 156.635747 
L 171.840749 156.792328 
L 171.921914 156.695957 
L 172.02695 156.804382 
L 171.936237 156.6478 
L 172.034112 156.744172 
L 172.048435 156.708011 
L 172.100953 156.804382 
L 172.139149 156.756167 
L 172.227475 156.936827 
L 172.263283 156.888671 
L 172.279993 156.828431 
L 172.396965 157.033169 
L 172.399353 156.960905 
L 172.490066 157.09338 
L 172.506776 157.045194 
L 172.602264 157.213771 
L 172.623749 157.15359 
L 172.781304 157.466666 
L 172.783691 157.430534 
L 172.814724 157.35827 
L 172.88634 157.562978 
L 172.888727 157.5389 
L 172.998538 157.647326 
L 172.905438 157.526905 
L 173.003313 157.611164 
L 173.225322 157.695453 
L 173.227709 157.743639 
L 173.29455 157.59914 
L 173.332745 157.635243 
L 173.421072 157.514851 
L 173.349456 157.65935 
L 173.45688 157.575062 
L 173.569078 157.623189 
L 173.492687 157.5389 
L 173.573852 157.59914 
L 173.590562 157.562978 
L 173.600111 157.65935 
L 173.68605 157.575062 
L 173.705148 157.526905 
L 173.807797 157.623189 
L 174.232718 157.731614 
L 174.335367 157.839951 
L 174.242266 157.683399 
L 174.347303 157.815903 
L 174.42608 157.92424 
L 174.521568 158.032636 
L 174.452339 157.912216 
L 174.554989 158.008587 
L 174.571699 157.936323 
L 174.612281 158.056714 
L 174.662412 158.04466 
L 174.726867 157.960372 
L 174.755513 158.104871 
L 174.772223 158.032636 
L 174.824742 158.128978 
L 174.862937 157.864059 
L 174.865324 157.888137 
L 174.946489 157.779741 
L 174.903519 158.008587 
L 174.979909 157.827927 
L 175.053912 157.912216 
L 174.994232 157.815903 
L 175.094495 157.888137 
L 175.199531 157.743639 
L 175.20908 157.779741 
L 175.321278 157.731614 
L 175.237726 157.827927 
L 175.323665 157.743639 
L 175.352311 157.779741 
L 175.402443 157.65935 
L 175.428702 157.707507 
L 175.433476 157.731614 
L 175.552836 157.575062 
L 175.657872 157.562978 
L 175.571933 157.671404 
L 175.66026 157.575062 
L 175.672195 157.623189 
L 175.760522 157.466666 
L 175.803491 157.430534 
L 175.767683 157.526905 
L 175.867945 157.490744 
L 176.257058 157.406455 
L 176.316738 157.35827 
L 176.288091 157.47869 
L 176.366869 157.382377 
L 176.395515 157.526905 
L 176.471905 157.370353 
L 176.47668 157.41848 
L 176.588878 157.298089 
L 176.486229 157.430534 
L 176.591265 157.310142 
L 176.600814 157.430534 
L 176.703463 157.35827 
L 176.767917 157.310142 
L 176.751207 157.430534 
L 176.810887 157.334191 
L 176.887277 157.310142 
L 176.925472 157.454641 
L 176.982765 157.322137 
L 177.028122 157.490744 
L 177.035283 157.466666 
L 177.063929 157.406455 
L 177.109286 157.5389 
L 177.135545 157.526905 
L 177.242969 157.623189 
L 177.219097 157.430534 
L 177.250131 157.550954 
L 177.27639 157.47869 
L 177.319359 157.65935 
L 177.355167 157.623189 
L 177.460204 157.71956 
L 177.469752 157.695453 
L 177.47214 157.635243 
L 177.553304 157.815903 
L 177.577176 157.71956 
L 177.581951 157.803849 
L 177.658341 157.65935 
L 177.6846 157.707507 
L 177.799185 157.550954 
L 177.751441 157.743639 
L 177.80396 157.562978 
L 177.827832 157.65935 
L 177.892286 157.514851 
L 177.913771 157.562978 
L 178.011645 157.370353 
L 178.030743 157.454641 
L 178.047453 157.562978 
L 178.128618 157.298089 
L 178.13578 157.382377 
L 178.190685 157.47869 
L 178.140554 157.370353 
L 178.255139 157.41848 
L 178.431792 157.502798 
L 178.54399 157.587115 
L 178.455664 157.466666 
L 178.546377 157.575062 
L 178.548764 157.562978 
L 178.63709 157.671404 
L 178.699157 157.695453 
L 178.646639 157.59914 
L 178.734965 157.623189 
L 178.770773 157.5389 
L 178.818517 157.647326 
L 178.844776 157.623189 
L 178.882971 157.65935 
L 178.868648 157.562978 
L 178.954587 157.623189 
L 179.073947 157.47869 
L 179.076334 157.514851 
L 179.100206 157.59914 
L 179.140788 157.454641 
L 179.18137 157.47869 
L 179.303117 157.370353 
L 179.193306 157.526905 
L 179.305505 157.41848 
L 179.307892 157.454641 
L 179.3437 157.334191 
L 179.412928 157.370353 
L 179.541837 157.165644 
L 179.560934 157.189693 
L 179.577645 157.09338 
L 179.606291 156.97293 
L 179.69223 157.033169 
L 179.735199 157.069272 
L 179.778169 156.97293 
L 179.794879 156.997008 
L 179.914239 156.924773 
L 179.84501 157.045194 
L 179.916626 156.936827 
L 180.016888 157.045194 
L 179.971532 156.900666 
L 180.031211 157.033169 
L 180.527748 157.141507 
L 180.637559 157.237878 
L 180.542071 157.09338 
L 180.64472 157.225854 
L 180.675754 157.15359 
L 180.649495 157.237878 
L 180.756918 157.189693 
L 180.759306 157.213771 
L 180.790339 157.117429 
L 180.864342 157.165644 
L 181.043382 157.069272 
L 181.086351 156.948881 
L 181.110223 157.09338 
L 181.15558 157.045194 
L 181.740442 156.97293 
L 181.783412 156.876617 
L 181.850253 156.960905 
L 181.876512 157.033169 
L 181.857415 156.900666 
L 181.957677 156.924773 
L 181.960064 156.900666 
L 181.995872 157.045194 
L 182.062713 156.97293 
L 182.103296 156.948881 
L 182.182073 157.069272 
L 183.115466 157.117429 
L 183.12024 157.454641 
L 183.191856 152.92679 
L 183.626325 130.095097 
L 184.471392 100.423471 
L 184.621785 96.485727 
L 185.077739 86.045262 
L 185.913257 71.414172 
L 185.977711 70.535112 
L 186.283272 66.597353 
L 186.297595 66.488971 
L 186.708193 61.961179 
L 186.71058 61.997311 
L 186.777421 61.383169 
L 186.98272 59.480519 
L 187.125952 58.192026 
L 187.791979 52.568366 
L 187.794366 52.58042 
L 187.834948 52.219143 
L 188.23361 49.304973 
L 188.240771 49.329066 
L 188.307613 48.931688 
L 188.481878 47.871981 
L 188.484265 47.908113 
L 188.489039 47.920138 
L 188.520073 47.607047 
L 188.532009 47.619101 
L 188.694338 46.812275 
L 188.722984 46.703894 
L 188.944993 45.54786 
L 188.947381 45.559914 
L 190.362986 38.948826 
L 190.365374 38.960865 
L 190.370148 38.97289 
L 190.417892 38.659799 
L 190.427441 38.707985 
L 190.70913 37.756646 
L 190.718678 37.804817 
L 190.744938 37.696435 
L 191.100629 36.456113 
L 191.103017 36.480191 
L 191.184181 36.203218 
L 191.446773 35.396422 
L 191.44916 35.432554 
L 191.492129 35.324158 
L 191.496904 35.348236 
L 191.73801 34.601635 
L 191.740397 34.673884 
L 191.833498 34.300598 
L 191.838272 34.312623 
L 192.000601 33.734613 
L 192.002989 33.758691 
L 192.012537 33.722559 
L 192.134284 33.26497 
L 192.153382 33.289048 
L 192.201126 33.072286 
L 192.208287 33.072286 
L 192.46133 32.31366 
L 192.466104 32.325684 
L 192.475653 32.422041 
L 192.532946 32.169147 
L 192.571141 32.193225 
L 192.692888 31.916267 
L 192.700049 31.952399 
L 192.702436 32.012594 
L 192.795537 31.747675 
L 192.802699 31.771753 
L 192.812247 31.819939 
L 192.883863 31.579083 
L 192.895799 31.615201 
L 193.02232 31.314164 
L 192.900574 31.639308 
L 193.027095 31.362335 
L 193.029482 31.410492 
L 193.113034 31.133519 
L 193.127357 31.157612 
L 193.318332 30.712062 
L 193.32072 30.724101 
L 193.323107 30.760218 
L 193.406659 30.459167 
L 193.41382 30.471221 
L 193.614345 30.013632 
L 193.62628 30.061773 
L 193.683573 29.845025 
L 193.690735 29.881143 
L 193.814869 29.495803 
L 193.824418 29.556013 
L 193.910357 29.303148 
L 193.917518 29.315172 
L 194.048814 28.990043 
L 194.055975 29.02616 
L 194.139527 28.749202 
L 194.146689 28.797373 
L 194.282759 28.544493 
L 194.454637 28.20731 
L 194.457024 28.255466 
L 194.542963 28.074835 
L 194.557286 28.123021 
L 194.679033 27.88218 
L 194.745874 27.773799 
L 194.87717 27.508865 
L 194.760198 27.797877 
L 194.881944 27.520919 
L 194.889106 27.569075 
L 194.975045 27.37642 
L 194.977432 27.37642 
L 195.146923 27.027198 
L 194.986981 27.412537 
L 195.151697 27.051261 
L 195.168408 27.075354 
L 195.216152 26.87063 
L 195.249572 26.918816 
L 195.414289 26.605726 
L 195.416676 26.629804 
L 195.419063 26.677961 
L 195.483517 26.413041 
L 195.516938 26.43712 
L 195.574231 26.328738 
L 195.75327 25.919335 
L 195.579005 26.340792 
L 195.762819 25.943399 
L 195.805788 25.835017 
L 195.96573 25.533981 
L 195.970505 25.558059 
L 196.001538 25.618269 
L 196.070767 25.449677 
L 196.075541 25.509888 
L 196.192514 25.269047 
L 196.206837 25.293125 
L 196.252194 25.184758 
L 196.393038 25.004128 
L 196.283227 25.22089 
L 196.397813 25.016167 
L 196.436008 24.919824 
L 196.572078 24.666944 
L 196.686663 24.474289 
L 196.593562 24.703062 
L 196.712922 24.522431 
L 196.751117 24.438157 
L 196.834669 24.329776 
L 196.794087 24.462235 
L 196.865703 24.365908 
L 196.889575 24.426118 
L 196.939706 24.28159 
L 196.963578 24.305683 
L 197.08055 24.100959 
L 197.087712 24.173223 
L 197.130681 24.064842 
L 197.235718 23.908289 
L 197.166489 24.076896 
L 197.250041 23.968514 
L 197.285849 23.884211 
L 197.398047 23.619292 
L 197.407596 23.631331 
L 197.433855 23.70358 
L 197.491147 23.498857 
L 197.512632 23.534989 
L 197.643928 23.185781 
L 197.660638 23.221913 
L 197.729867 22.981072 
L 197.734641 23.005136 
L 197.899358 22.704084 
L 197.901745 22.716124 
L 197.923229 22.752256 
L 197.987684 22.595703 
L 197.997232 22.631835 
L 198.004394 22.680006 
L 198.13569 22.342838 
L 198.140464 22.427126 
L 198.22879 22.186285 
L 198.231177 22.186285 
L 198.255049 22.246495 
L 198.302793 22.138114 
L 198.336214 22.150153 
L 198.457961 21.993601 
L 198.460348 22.017708 
L 198.517641 22.041772 
L 198.529577 21.897273 
L 198.56061 21.957483 
L 198.737263 21.885234 
L 198.849461 21.6203 
L 198.856622 21.632354 
L 198.904366 21.692564 
L 198.937787 21.536012 
L 198.959272 21.560104 
L 199.064308 21.451723 
L 198.971208 21.572129 
L 199.078631 21.475801 
L 199.193217 21.379474 
L 199.291092 21.210867 
L 199.233799 21.403552 
L 199.307802 21.271092 
L 199.310189 21.283131 
L 199.36032 21.11454 
L 199.391354 21.186789 
L 199.501165 21.066383 
L 199.400902 21.210867 
L 199.505939 21.078408 
L 199.594265 21.030251 
L 199.706463 20.825528 
L 199.70885 20.849621 
L 199.720786 20.86166 
L 199.780466 20.681029 
L 199.790015 20.717146 
L 199.840146 20.741254 
L 199.916536 20.524491 
L 199.921311 20.560623 
L 199.978603 20.440188 
L 200.019186 20.476305 
L 200.02396 20.512437 
L 200.14332 20.307728 
L 200.148094 20.331807 
L 200.23642 20.163215 
L 200.241195 20.199347 
L 200.353393 20.054834 
L 200.245969 20.211401 
L 200.360554 20.066887 
L 200.456042 19.898296 
L 200.374878 20.115044 
L 200.489463 19.970545 
L 200.563466 20.054834 
L 200.50856 19.862164 
L 200.596887 19.946452 
L 200.606435 19.982584 
L 200.716246 19.814007 
L 200.830832 19.741758 
L 200.890511 19.753782 
L 200.945417 19.633377 
L 200.981225 19.681548 
L 201.045679 19.549073 
L 201.050453 19.573166 
L 201.0791 19.464785 
L 201.181749 19.392536 
L 201.105359 19.512941 
L 201.200847 19.416614 
L 201.494471 19.332311 
L 201.604282 19.248037 
L 201.506407 19.380482 
L 201.609057 19.260061 
L 201.635316 19.284154 
L 201.690221 19.139656 
L 201.711706 19.175788 
L 201.83584 19.043299 
L 201.981459 18.971064 
L 202.069785 18.874722 
L 202.01488 19.007196 
L 202.093657 18.898815 
L 202.10798 18.922893 
L 202.170047 18.814511 
L 202.179596 18.814511 
L 202.224953 18.718184 
L 202.203468 18.83859 
L 202.289407 18.778379 
L 202.394444 18.874722 
L 202.298956 18.718184 
L 202.40638 18.83859 
L 202.408767 18.850629 
L 202.432639 18.70613 
L 202.49948 18.742247 
L 202.623614 18.537546 
L 202.626001 18.58571 
L 202.680907 18.621842 
L 202.700004 18.51346 
L 202.726263 18.549592 
L 202.75491 18.489389 
L 202.812202 18.597756 
L 202.833687 18.573663 
L 203.313513 18.501414 
L 203.3159 18.429164 
L 203.370806 18.549592 
L 203.425711 18.453257 
L 203.459132 18.356915 
L 203.516425 18.284666 
L 203.485391 18.417125 
L 203.57133 18.320783 
L 203.576105 18.332829 
L 203.64772 18.152199 
L 203.652495 18.188331 
L 203.683528 18.128121 
L 203.738434 18.224463 
L 203.762306 18.20037 
L 203.853019 18.091989 
L 203.955668 18.043825 
L 203.879278 18.164238 
L 203.960443 18.079949 
L 204.027284 18.152199 
L 204.015348 17.971561 
L 204.067866 18.043825 
L 204.141869 17.983607 
L 204.168129 18.128121 
L 204.177677 18.043825 
L 204.232583 18.031771 
L 204.301811 18.128121 
L 204.325683 18.007693 
L 204.394912 18.152199 
L 204.41401 18.091989 
L 204.521433 18.176284 
L 204.526208 18.128121 
L 204.5835 18.236487 
L 204.538144 18.091989 
L 204.64318 18.188331 
L 204.752991 18.043825 
L 204.657503 18.20037 
L 204.760153 18.079949 
L 204.879512 17.971561 
L 204.998872 17.839108 
L 204.889061 17.995654 
L 205.010808 17.863194 
L 205.041842 17.911358 
L 205.096747 17.706649 
L 205.11107 17.766859 
L 205.201784 17.839108 
L 205.228043 17.694595 
L 205.24714 17.802976 
L 205.337854 17.742773 
L 205.421405 17.802976 
L 205.452439 17.670517 
L 205.559863 17.766859 
L 205.531216 17.658478 
L 205.56225 17.730727 
L 205.674448 17.598267 
L 205.593283 17.742773 
L 205.676835 17.610299 
L 205.903619 17.526018 
L 205.915554 17.453754 
L 205.972847 17.586228 
L 206.013429 17.526018 
L 206.101756 17.429668 
L 206.039689 17.574182 
L 206.12324 17.501933 
L 206.125628 17.550096 
L 206.228277 17.393551 
L 206.875206 17.501933 
L 206.877594 17.526018 
L 206.946822 17.357419 
L 206.975469 17.405598 
L 207.023212 17.44173 
L 207.092441 17.357419 
L 207.121087 17.4658 
L 207.180767 17.321302 
L 207.202252 17.369466 
L 207.292965 17.309255 
L 207.230898 17.417637 
L 207.31445 17.357419 
L 207.340709 17.405598 
L 207.407551 17.285184 
L 207.488715 17.116578 
L 207.426648 17.333341 
L 207.52691 17.15271 
L 207.62956 17.200874 
L 207.548395 17.116578 
L 207.636721 17.164757 
L 207.748919 17.044329 
L 207.66298 17.200874 
L 207.753694 17.068422 
L 207.896925 17.164757 
L 207.958992 17.237006 
L 207.968541 17.116578 
L 208.006736 17.164757 
L 208.536693 17.22496 
L 208.574888 17.21292 
L 208.651279 17.369466 
L 208.744379 17.261092 
L 208.765864 17.285184 
L 208.844641 17.357419 
L 208.818382 17.21292 
L 208.873288 17.297209 
L 208.983099 17.164757 
L 208.985486 17.22496 
L 209.06665 17.249052 
L 209.076199 17.104554 
L 209.090522 17.200874 
L 209.181236 17.044329 
L 209.107233 17.21292 
L 209.207495 17.140671 
L 209.317306 17.068422 
L 209.293434 17.188827 
L 209.32208 17.128625 
L 209.393696 17.164757 
L 209.33879 17.068422 
L 209.429504 17.116578 
L 209.434278 17.056375 
L 209.484409 17.164757 
L 209.536928 17.140671 
L 209.618092 17.21292 
L 209.57751 17.128625 
L 209.644351 17.140671 
L 209.723129 17.068422 
L 209.73029 17.176803 
L 209.756549 17.128625 
L 209.78997 17.068422 
L 209.887845 17.333341 
L 210.064497 17.237006 
L 210.066885 17.21292 
L 210.117016 17.357419 
L 210.169534 17.297209 
L 210.837948 17.393551 
L 210.852271 17.489886 
L 210.907177 17.309255 
L 210.947759 17.381505 
L 211.019375 17.357419 
L 210.983567 17.4658 
L 211.048021 17.417637 
L 211.162607 17.526018 
L 211.059957 17.405598 
L 211.167381 17.513979 
L 211.260482 17.62236 
L 211.301064 17.562135 
L 211.377454 17.718681 
L 211.425198 17.62236 
L 211.477716 17.742773 
L 211.487265 17.706649 
L 211.730759 17.778906 
L 211.733146 17.839108 
L 211.749856 17.694595 
L 211.84057 17.802976 
L 211.902637 17.754813 
L 211.940832 17.911358 
L 211.943219 17.899311 
L 212.03632 17.995654 
L 211.947993 17.839108 
L 212.057804 17.923404 
L 212.095999 17.875226 
L 212.143743 18.031771 
L 212.14613 17.983607 
L 212.241618 18.152199 
L 212.260716 18.091989 
L 212.344268 18.031771 
L 212.275039 18.128121 
L 212.365752 18.116081 
L 212.439755 18.236487 
L 212.394399 18.019739 
L 212.485112 18.164238 
L 212.487499 18.128121 
L 212.542405 18.308751 
L 212.587761 18.236487 
L 212.668926 18.381001 
L 212.704734 18.308751 
L 212.781124 18.272619 
L 212.754865 18.393032 
L 212.804996 18.368962 
L 212.886161 18.429164 
L 212.816932 18.308751 
L 212.910032 18.344869 
L 212.962551 18.308751 
L 212.98881 18.417125 
L 213.019843 18.320783 
L 213.136816 18.501414 
L 213.14159 18.441211 
L 213.955623 18.549592 
L 214.063047 18.621842 
L 213.967559 18.465296 
L 214.065434 18.58571 
L 214.070209 18.549592 
L 214.163309 18.76634 
L 214.175245 18.694091 
L 214.244474 18.83859 
L 214.263571 18.814511 
L 214.342349 18.898815 
L 214.368608 18.790433 
L 214.370995 18.76634 
L 214.435449 18.898815 
L 214.464096 18.874722 
L 214.466483 18.934947 
L 214.542873 18.778379 
L 214.573907 18.850629 
L 214.581068 18.898815 
L 214.66462 18.76634 
L 214.678943 18.826565 
L 214.717138 18.718184 
L 214.793528 18.76634 
L 214.879467 18.814511 
L 214.869919 18.70613 
L 214.900952 18.778379 
L 214.970181 18.70613 
L 214.917663 18.826565 
L 215.010763 18.790433 
L 215.082379 18.682044 
L 215.125348 18.730208 
L 215.220836 18.778379 
L 215.144446 18.694091 
L 215.235159 18.754316 
L 215.31155 18.70613 
L 215.32826 18.83859 
L 215.337809 18.814511 
L 215.40465 18.898815 
L 215.390327 18.790433 
L 215.450007 18.826565 
L 215.461943 18.802458 
L 215.490589 18.922893 
L 215.555043 18.850629 
L 215.562205 18.959025 
L 215.588464 18.814511 
L 215.669629 18.898815 
L 215.695888 18.862683 
L 215.734083 18.983088 
L 215.772278 18.959025 
L 215.879702 19.067406 
L 215.784214 18.922893 
L 215.898799 19.055352 
L 215.93222 18.983088 
L 215.951317 19.09147 
L 216.010997 18.995157 
L 216.104098 19.139656 
L 216.12797 19.09147 
L 216.190037 19.01922 
L 216.213909 19.163719 
L 216.233006 19.103524 
L 216.34043 19.223929 
L 216.256878 19.09147 
L 216.347592 19.163719 
L 216.35714 19.139656 
L 216.41682 19.320286 
L 216.450241 19.235983 
L 216.486049 19.320286 
L 216.524244 19.368443 
L 216.505146 19.260061 
L 216.593473 19.308233 
L 216.657927 19.248037 
L 216.626893 19.34435 
L 216.703284 19.308233 
L 217.536414 19.40456 
L 217.646225 19.488863 
L 217.576996 19.332311 
L 217.653387 19.476824 
L 217.672484 19.380482 
L 217.756036 19.512941 
L 217.796618 19.500917 
L 217.873009 19.645416 
L 217.877783 19.573166 
L 217.966109 19.741758 
L 217.973271 19.669509 
L 218.068758 19.838086 
L 218.087856 19.789914 
L 218.204828 19.910335 
L 218.302703 19.862164 
L 218.278831 19.934413 
L 218.314639 19.886257 
L 218.429225 19.994638 
L 218.33135 19.862164 
L 218.431612 19.982584 
L 218.433999 19.910335 
L 218.510389 20.042795 
L 218.539036 20.018716 
L 218.60349 20.066887 
L 218.574844 19.958521 
L 218.658395 20.054834 
L 218.670331 19.994638 
L 218.744334 20.139152 
L 218.768206 20.042795 
L 218.820724 20.139152 
L 218.846984 20.03077 
L 218.878017 20.042795 
L 218.959182 19.910335 
L 218.885179 20.054834 
L 218.990215 20.018716 
L 219.02841 19.934413 
L 219.059444 19.826032 
L 219.042734 19.982584 
L 219.140608 19.910335 
L 219.19074 19.850139 
L 219.20745 19.970545 
L 219.245645 19.934413 
L 219.341133 20.042795 
L 219.28384 19.910335 
L 219.36023 20.006663 
L 219.4032 19.946452 
L 219.379328 20.054834 
L 219.467654 19.994638 
L 219.572691 20.175269 
L 219.582239 20.066887 
L 219.61566 20.03077 
L 219.603724 20.139152 
L 219.689663 20.078927 
L 219.7947 20.151176 
L 219.703986 20.054834 
L 219.801861 20.139152 
L 219.983288 20.223425 
L 220.009547 20.199347 
L 220.10026 20.367924 
L 220.109809 20.28365 
L 220.164715 20.440188 
L 220.207684 20.404056 
L 220.336593 20.524491 
L 220.224394 20.367924 
L 220.33898 20.500398 
L 220.410596 20.452242 
L 220.358077 20.560623 
L 220.434468 20.560623 
L 220.463114 20.632873 
L 220.515632 20.512437 
L 220.541891 20.572648 
L 220.656477 20.41611 
L 220.553827 20.596741 
L 220.658864 20.440188 
L 221.088559 20.536516 
L 221.200757 20.656936 
L 221.107656 20.452242 
L 221.207918 20.620819 
L 221.234177 20.512437 
L 221.298632 20.656936 
L 221.317729 20.632873 
L 221.42754 20.741254 
L 221.341601 20.620819 
L 221.434702 20.729185 
L 221.494382 20.66899 
L 221.53019 20.813503 
L 221.544513 20.717146 
L 221.663872 20.945948 
L 221.678196 20.825528 
L 221.711616 20.921885 
L 221.821427 21.018212 
L 221.749811 20.873699 
L 221.823814 21.006158 
L 221.890656 20.921885 
L 221.830976 21.030251 
L 221.933625 20.982095 
L 222.033887 21.17475 
L 222.076857 21.138618 
L 222.103116 21.222921 
L 222.21054 21.259039 
L 222.117439 21.162726 
L 222.212927 21.246999 
L 222.279768 21.126594 
L 222.217701 21.259039 
L 222.322738 21.234975 
L 222.365707 21.307224 
L 222.423 21.186789 
L 222.432549 21.234975 
L 222.54236 21.162726 
L 222.530424 21.283131 
L 222.544747 21.198843 
L 222.590104 21.307224 
L 222.625912 21.186789 
L 222.656945 21.259039 
L 222.750046 21.198843 
L 222.690366 21.295171 
L 222.769143 21.234975 
L 222.852695 21.126594 
L 222.790628 21.271092 
L 222.881341 21.210867 
L 222.96728 21.11454 
L 222.969667 21.090462 
L 223.060381 21.259039 
L 223.062768 21.210867 
L 223.117673 21.283131 
L 223.170192 21.162726 
L 223.201225 21.138618 
L 223.303875 21.295171 
L 223.306262 21.271092 
L 223.377878 21.439669 
L 223.404137 21.403552 
L 223.437557 21.355381 
L 223.454268 21.49988 
L 223.51156 21.42763 
L 223.618984 21.608261 
L 223.652405 21.584183 
L 223.683438 21.560104 
L 223.745505 21.68051 
L 223.895899 21.75276 
L 223.993774 21.969522 
L 224.012871 21.921351 
L 224.132231 22.077904 
L 224.072551 21.897273 
L 224.14178 22.005654 
L 224.153716 21.981576 
L 224.206234 22.174231 
L 224.244429 22.077904 
L 224.368563 22.222402 
L 224.43063 22.174231 
L 224.4736 22.294652 
L 224.475987 22.270588 
L 224.492697 22.342838 
L 224.590572 22.222402 
L 224.619218 22.330799 
L 224.669349 22.210363 
L 224.700383 22.270588 
L 224.807807 22.101982 
L 224.717093 22.294652 
L 224.819743 22.12609 
L 224.922392 21.945459 
L 224.946264 22.005654 
L 224.979685 22.089958 
L 225.010718 21.945459 
L 225.056075 21.981576 
L 225.063236 22.017708 
L 225.103819 21.861141 
L 225.163499 21.957483 
L 225.256599 22.065865 
L 225.318666 22.138114 
L 225.29002 22.017708 
L 225.375959 22.114021 
L 225.447575 22.041772 
L 225.471447 22.174231 
L 225.480995 22.162207 
L 225.57887 22.222402 
L 225.504867 22.101982 
L 225.590806 22.174231 
L 225.660035 22.246495 
L 225.767459 22.330799 
L 225.731651 22.210363 
L 225.77462 22.318745 
L 225.839074 22.258534 
L 225.784169 22.366931 
L 225.886818 22.282613 
L 225.984693 22.427126 
L 226.001404 22.366931 
L 226.115989 22.607757 
L 226.008565 22.354862 
L 226.127925 22.475297 
L 226.147022 22.403048 
L 226.230574 22.535493 
L 226.237736 22.487351 
L 226.349934 22.571625 
L 226.259221 22.451219 
L 226.357096 22.523454 
L 226.369031 22.463243 
L 226.404839 22.619811 
L 226.457358 22.583679 
L 226.543297 22.752256 
L 226.495553 22.547561 
L 226.571943 22.655928 
L 226.591041 22.559586 
L 226.636397 22.740216 
L 226.684141 22.631835 
L 226.703239 22.752256 
L 226.796339 22.667967 
L 226.94912 22.764309 
L 226.951507 22.788388 
L 227.02551 22.69206 
L 227.054156 22.716124 
L 227.135321 22.643874 
L 227.087577 22.752256 
L 227.16158 22.752256 
L 227.195001 22.643874 
L 227.209324 22.607757 
L 227.242744 22.716124 
L 227.288101 22.716124 
L 227.352555 22.752256 
L 227.311973 22.631835 
L 227.393138 22.680006 
L 227.476689 22.607757 
L 227.43372 22.740216 
L 227.502949 22.667967 
L 227.598436 22.740216 
L 227.522046 22.619811 
L 227.612759 22.680006 
L 227.701086 22.667967 
L 227.679601 22.776334 
L 227.710634 22.740216 
L 227.822833 22.860637 
L 227.744055 22.704084 
L 227.837156 22.836559 
L 227.8849 22.752256 
L 227.911159 22.884715 
L 227.944579 22.860637 
L 228.109296 22.956965 
L 228.118845 22.896754 
L 228.221494 23.017189 
L 228.312207 22.94494 
L 228.266851 23.053321 
L 228.331305 23.017189 
L 228.519893 23.125571 
L 228.562863 23.173727 
L 228.612994 23.041282 
L 228.632091 23.137595 
L 228.737128 23.053321 
L 228.648802 23.173727 
L 228.741902 23.125571 
L 228.789646 23.221913 
L 228.808744 23.113532 
L 228.849326 23.125571 
L 228.877972 23.089454 
L 228.91378 23.185781 
L 228.959137 23.113532 
L 229.04985 23.185781 
L 228.99017 23.101478 
L 229.076109 23.173727 
L 229.176371 23.041282 
L 229.190695 23.137595 
L 229.395993 23.029229 
L 229.503417 22.969018 
L 229.455673 23.065346 
L 229.508191 23.017189 
L 229.608454 23.065346 
L 229.586969 22.94494 
L 229.62039 23.029229 
L 229.665746 22.94494 
L 229.701554 23.0774 
L 229.7302 23.041282 
L 229.840011 23.173727 
L 229.744524 22.981072 
L 229.847173 23.125571 
L 229.875819 23.101478 
L 229.906853 23.233938 
L 229.952209 23.137595 
L 230.035761 23.318226 
L 230.066795 23.233938 
L 230.169444 23.39049 
L 230.186154 23.366412 
L 230.24106 23.330294 
L 230.252996 23.438661 
L 230.288804 23.414568 
L 230.379517 23.474793 
L 230.319837 23.342319 
L 230.401002 23.438661 
L 230.503651 23.534989 
L 230.422487 23.426607 
L 230.5132 23.474793 
L 230.522749 23.414568 
L 230.560944 23.547043 
L 230.623011 23.486818 
L 230.689852 23.498857 
L 230.718499 23.402544 
L 230.723273 23.426607 
L 230.782953 23.534989 
L 230.78534 23.559067 
L 230.835471 23.354358 
L 230.883215 23.438661 
L 230.983477 23.402544 
L 230.916636 23.510925 
L 230.993026 23.438661 
L 230.9978 23.4507 
L 231.059867 23.330294 
L 231.093288 23.39049 
L 231.121934 23.306187 
L 231.186389 23.426607 
L 231.198325 23.426607 
L 231.255617 23.474793 
L 231.215035 23.330294 
L 231.305748 23.414568 
L 231.415559 23.330294 
L 231.324846 23.462739 
L 231.417946 23.354358 
L 231.460916 23.330294 
L 231.534919 23.462739 
L 231.587437 23.354358 
L 231.546855 23.498857 
L 231.647117 23.402544 
L 231.711571 23.534989 
L 231.76409 23.52295 
L 231.876288 23.474793 
L 231.850029 23.571121 
L 231.878675 23.486818 
L 231.986099 23.631331 
L 231.912096 23.474793 
L 231.998035 23.571121 
L 232.134105 23.679502 
L 232.234367 23.763805 
L 232.20572 23.64337 
L 232.246303 23.70358 
L 232.346565 23.655424 
L 232.294047 23.787884 
L 232.360888 23.679502 
L 232.403858 23.811962 
L 232.475473 23.739698 
L 232.527992 23.715634 
L 232.566187 23.811962 
L 232.58051 23.787884 
L 233.072272 23.691556 
L 233.177308 23.595199 
L 233.110467 23.751766 
L 233.189244 23.619292 
L 233.26086 23.679502 
L 233.213116 23.547043 
L 233.294281 23.583175 
L 233.738299 23.691556 
L 233.838561 23.715634 
L 233.783656 23.64337 
L 233.845723 23.691556 
L 233.84811 23.64337 
L 233.926887 23.884211 
L 233.945985 23.836055 
L 234.027149 23.932397 
L 233.953146 23.811962 
L 234.058183 23.908289 
L 234.062957 23.920328 
L 234.175155 23.836055 
L 234.292128 23.968514 
L 234.323161 23.860133 
L 234.378067 24.052803 
L 234.404326 23.908289 
L 234.485491 24.004646 
L 234.490265 24.052803 
L 234.557106 23.908289 
L 234.590527 23.944421 
L 234.659756 23.872187 
L 234.612012 24.02871 
L 234.709887 23.908289 
L 234.726597 23.932397 
L 234.769567 23.836055 
L 234.814923 23.860133 
L 235.001124 23.77583 
L 235.110935 23.691556 
L 235.034545 23.811962 
L 235.11571 23.715634 
L 235.141969 23.787884 
L 235.1921 23.679502 
L 235.223134 23.679502 
L 235.495274 23.739698 
L 235.497661 23.799923 
L 235.557341 23.70358 
L 235.605085 23.739698 
L 235.698185 23.715634 
L 235.652828 23.836055 
L 235.707734 23.77583 
L 235.729219 23.751766 
L 235.834255 23.884211 
L 235.917807 23.811962 
L 235.85574 23.908289 
L 235.944066 23.836055 
L 236.058651 24.004646 
L 236.063426 23.944421 
L 236.120718 23.920328 
L 236.156526 24.040764 
L 236.168462 23.992592 
L 236.273499 24.113028 
L 236.235304 23.95646 
L 236.285435 24.052803 
L 236.287822 24.016671 
L 236.328404 24.113028 
L 236.392858 24.100959 
L 236.426279 24.02871 
L 236.404794 24.173223 
L 236.485959 24.173223 
L 236.562349 24.257526 
L 236.533703 24.100959 
L 236.600544 24.245473 
L 236.631578 24.185277 
L 236.700807 24.317722 
L 236.707968 24.28159 
L 236.722291 24.353854 
L 236.772422 24.245473 
L 236.810617 24.269551 
L 236.813005 24.233433 
L 236.913267 24.3418 
L 236.922816 24.245473 
L 236.977721 24.317722 
L 236.984883 24.377932 
L 236.996819 24.245473 
L 237.087532 24.293658 
L 237.171084 24.137091 
L 237.099468 24.353854 
L 237.218828 24.197301 
L 237.221215 24.233433 
L 237.314315 24.064842 
L 237.323864 24.161169 
L 237.366834 24.052803 
L 237.35251 24.173223 
L 237.438449 24.100959 
L 237.553035 24.161169 
L 237.459934 24.02871 
L 237.557809 24.137091 
L 237.59123 24.08892 
L 237.619876 24.221394 
L 237.653297 24.221394 
L 238.109251 24.329776 
L 238.159382 24.389986 
L 238.185641 24.197301 
L 238.216675 24.317722 
L 238.235772 24.293658 
L 238.300226 24.426118 
L 238.309775 24.389986 
L 238.40765 24.486314 
L 238.42436 24.474289 
L 238.429135 24.402025 
L 238.512687 24.570617 
L 238.531784 24.546538 
L 239.037869 24.462235 
L 239.123808 24.389986 
L 239.059354 24.486314 
L 239.150067 24.414064 
L 239.715832 24.486314 
L 239.823256 24.594695 
L 239.82803 24.558563 
L 239.925905 24.666944 
L 240.033329 24.727155 
L 239.933067 24.618773 
L 240.040491 24.691022 
L 240.071524 24.666944 
L 240.124043 24.787379 
L 240.145527 24.727155 
L 240.150302 24.799404 
L 240.21953 24.654905 
L 240.252951 24.703062 
L 240.329341 24.678998 
L 240.336503 24.823497 
L 240.353213 24.787379 
L 240.3556 24.835536 
L 240.403344 24.678998 
L 240.460637 24.763272 
L 240.556125 24.763272 
L 240.520317 24.871653 
L 240.565673 24.799404 
L 240.584771 24.919824 
L 240.637289 24.727155 
L 240.67071 24.775326 
L 240.713679 24.71513 
L 240.689807 24.823497 
L 240.782908 24.727155 
L 240.856911 24.703062 
L 240.897493 24.787379 
L 240.990594 24.678998 
L 241.014466 24.751247 
L 241.109954 24.835536 
L 241.024015 24.71513 
L 241.117115 24.727155 
L 241.119502 24.691022 
L 241.181569 24.823497 
L 241.222152 24.799404 
L 241.224539 24.847575 
L 241.286606 24.678998 
L 241.329575 24.751247 
L 241.458484 24.642866 
L 241.575456 24.534499 
L 241.475194 24.678998 
L 241.585005 24.570617 
L 241.673331 24.727155 
L 241.704365 24.654905 
L 241.81895 24.763272 
L 241.737786 24.630812 
L 241.828499 24.71513 
L 241.883404 24.678998 
L 241.866694 24.799404 
L 241.928761 24.751247 
L 241.943084 24.727155 
L 242.045734 24.847575 
L 242.055282 24.775326 
L 242.100639 24.883692 
L 242.15077 24.871653 
L 242.215224 24.980035 
L 242.188965 24.835536 
L 242.267743 24.943903 
L 242.336971 24.895761 
L 242.358456 25.052284 
L 242.36323 25.028206 
L 242.475428 25.064338 
L 242.425297 24.943903 
L 242.477816 25.052284 
L 242.535108 25.016167 
L 242.566142 25.124533 
L 242.585239 25.052284 
L 242.675953 25.196797 
L 242.594788 25.028206 
L 242.702212 25.172719 
L 242.795312 25.088416 
L 242.742794 25.196797 
L 242.81441 25.124533 
L 242.852605 25.208851 
L 242.912285 25.052284 
L 242.914672 25.076392 
L 242.919447 25.004128 
L 242.945706 25.160665 
L 243.024483 25.076392 
L 243.079388 25.112509 
L 243.12952 25.004128 
L 243.131907 25.028206 
L 243.16294 25.10047 
L 243.220233 24.96801 
L 243.23933 24.992074 
L 243.349141 24.931878 
L 243.296623 25.052284 
L 243.356303 24.955956 
L 243.373013 25.028206 
L 243.442242 24.919824 
L 243.470888 25.004128 
L 243.521019 24.847575 
L 243.585474 24.895761 
L 243.716769 25.052284 
L 243.592635 24.847575 
L 243.719156 25.004128 
L 243.795547 25.076392 
L 243.821806 25.124533 
L 243.855227 24.992074 
L 243.90297 25.04026 
L 243.905358 25.016167 
L 243.931617 25.196797 
L 244.000845 25.148641 
L 244.062912 25.124533 
L 244.124979 25.305164 
L 244.184659 25.257022 
L 244.215693 25.401506 
L 244.232403 25.341296 
L 244.289696 25.329257 
L 244.320729 25.449677 
L 244.327891 25.413545 
L 244.452025 25.521927 
L 244.37086 25.389482 
L 244.456799 25.497863 
L 244.583321 25.60623 
L 244.635839 25.642362 
L 244.645388 25.533981 
L 244.688357 25.570113 
L 244.752811 25.509888 
L 244.74565 25.60623 
L 244.800555 25.533981 
L 244.812491 25.485795 
L 244.831589 25.654386 
L 244.891269 25.642362 
L 245.566845 25.558059 
L 245.569232 25.509888 
L 245.671881 25.630308 
L 245.674268 25.60623 
L 245.982216 25.714611 
L 246.087253 25.822993 
L 245.991765 25.690518 
L 246.096802 25.810954 
L 246.139771 25.762768 
L 246.161256 25.895242 
L 246.204225 25.774822 
L 246.220936 25.895242 
L 246.316423 25.859125 
L 246.493076 25.967477 
L 246.509786 26.027702 
L 246.581402 25.895242 
L 246.595725 25.931374 
L 246.669728 25.895242 
L 246.631533 25.991584 
L 246.700762 25.919335 
L 246.786701 26.027702 
L 246.81296 25.979531 
L 246.832057 25.943399 
L 246.843993 26.05178 
L 246.920383 26.003609 
L 247.326206 25.931374 
L 247.426469 25.750743 
L 247.347691 25.943399 
L 247.443179 25.7989 
L 247.97791 25.895242 
L 248.032816 25.931374 
L 248.047139 25.847071 
L 248.085334 25.895242 
L 248.092496 25.835017 
L 248.135465 26.015648 
L 248.187983 25.991584 
L 248.195145 25.979531 
L 248.307343 26.136083 
L 248.312117 26.05178 
L 248.41238 26.172215 
L 248.419541 26.099966 
L 248.464898 26.220372 
L 248.534126 26.184239 
L 248.541288 26.11199 
L 248.593806 26.220372 
L 248.643937 26.160161 
L 248.753748 26.220372 
L 248.655873 26.099966 
L 248.76091 26.208332 
L 248.882657 26.075858 
L 248.901754 26.124029 
L 248.930401 25.979531 
L 248.985306 26.039741 
L 249.013952 26.087897 
L 249.10944 25.907266 
L 249.16912 25.955452 
L 249.21209 25.786861 
L 249.214477 25.835017 
L 249.527199 25.750743 
L 249.56062 25.690518 
L 249.582105 25.859125 
L 249.634623 25.762768 
L 249.708626 25.835017 
L 249.672818 25.73869 
L 249.751595 25.786861 
L 249.808888 25.702558 
L 249.851857 25.822993 
L 249.861406 25.762768 
L 249.930635 25.678494 
L 249.971217 25.835017 
L 249.975992 25.726636 
L 250.042833 25.907266 
L 250.083415 25.7989 
L 250.150257 25.907266 
L 250.255293 26.015648 
L 250.18129 25.835017 
L 250.264842 25.943399 
L 250.472528 26.039741 
L 250.568016 26.148107 
L 250.486851 26.015648 
L 250.5895 26.124029 
L 250.665891 26.075858 
L 250.646793 26.196279 
L 250.699311 26.124029 
L 250.78525 26.208332 
L 250.811509 26.160161 
L 250.866415 26.075858 
L 250.890287 26.220372 
L 250.923708 26.124029 
L 251.231656 26.027702 
L 251.234043 26.003609 
L 251.257915 26.11199 
L 251.336692 26.027702 
L 251.339079 26.087897 
L 251.408308 25.907266 
L 251.444116 26.015648 
L 251.546765 25.919335 
L 251.472762 26.063834 
L 251.558701 25.979531 
L 251.670899 26.027702 
L 251.577799 25.919335 
L 251.675674 26.003609 
L 251.78071 25.847071 
L 251.706707 26.015648 
L 251.79742 25.883203 
L 251.821292 25.943399 
L 251.828454 25.847071 
L 251.912006 25.919335 
L 251.969298 25.847071 
L 252.007494 25.991584 
L 252.012268 25.979531 
L 252.1555 25.871149 
L 252.160274 25.835017 
L 252.2486 25.979531 
L 252.260536 25.919335 
L 252.379896 26.11199 
L 252.518353 26.292621 
L 252.410929 26.039741 
L 252.52074 26.268528 
L 252.56371 26.208332 
L 252.618615 26.316714 
L 252.621002 26.30466 
L 252.711716 26.36487 
L 252.632938 26.232411 
L 252.730813 26.292621 
L 252.831075 26.244464 
L 252.797655 26.340792 
L 252.840624 26.280596 
L 252.854947 26.376909 
L 252.924176 26.256489 
L 252.950435 26.316714 
L 253.038761 26.232411 
L 253.062633 26.268528 
L 253.224962 26.160161 
L 253.22735 26.099966 
L 253.248834 26.268528 
L 253.334773 26.160161 
L 253.869505 26.232411 
L 253.976928 26.30466 
L 253.883828 26.148107 
L 253.981703 26.268528 
L 254.411398 26.376909 
L 254.459142 26.43712 
L 254.423334 26.30466 
L 254.523596 26.413041 
L 254.721733 26.401002 
L 254.721733 26.401002 
" clip-path="url(#p5204fc1b50)" style="fill: none; stroke: #000000; stroke-opacity: 0.5; stroke-width: 1.5; stroke-linecap: square"/>
   </g>
   <g id="patch_3">
    <path d="M 41.667188 175.804329 
L 41.667188 9.484329 
" style="fill: none; stroke: #000000; stroke-width: 0.8; stroke-linejoin: miter; stroke-linecap: square"/>
   </g>
   <g id="patch_4">
    <path d="M 41.667188 175.804329 
L 264.867188 175.804329 
" style="fill: none; stroke: #000000; stroke-width: 0.8; stroke-linejoin: miter; stroke-linecap: square"/>
   </g>
  </g>
 </g>
 <defs>
  <clipPath id="p5204fc1b50">
   <rect x="41.667188" y="9.484329" width="223.2" height="166.32"/>
  </clipPath>
 </defs>
</svg>
