<?xml version="1.0" encoding="utf-8" standalone="no"?>
<!DOCTYPE svg PUBLIC "-//W3C//DTD SVG 1.1//EN"
  "http://www.w3.org/Graphics/SVG/1.1/DTD/svg11.dtd">
<svg xmlns:xlink="http://www.w3.org/1999/xlink" width="460.8pt" height="345.6pt" viewBox="0 0 460.8 345.6" xmlns="http://www.w3.org/2000/svg" version="1.1">
 <metadata>
  <rdf:RDF xmlns:dc="http://purl.org/dc/elements/1.1/" xmlns:cc="http://creativecommons.org/ns#" xmlns:rdf="http://www.w3.org/1999/02/22-rdf-syntax-ns#">
   <cc:Work>
    <dc:type rdf:resource="http://purl.org/dc/dcmitype/StillImage"/>
    <dc:date>2024-02-29T19:32:03.776460</dc:date>
    <dc:format>image/svg+xml</dc:format>
    <dc:creator>
     <cc:Agent>
      <dc:title>Matplotlib v3.6.2, https://matplotlib.org/</dc:title>
     </cc:Agent>
    </dc:creator>
   </cc:Work>
  </rdf:RDF>
 </metadata>
 <defs>
  <style type="text/css">*{stroke-linejoin: round; stroke-linecap: butt}</style>
 </defs>
 <g id="figure_1">
  <g id="patch_1">
   <path d="M 0 345.6 
L 460.8 345.6 
L 460.8 0 
L 0 0 
z
" style="fill: #ffffff"/>
  </g>
  <g id="axes_1">
   <g id="patch_2">
    <path d="M 57.6 307.584 
L 414.72 307.584 
L 414.72 41.472 
L 57.6 41.472 
z
" style="fill: #ffffff"/>
   </g>
   <g id="matplotlib.axis_1">
    <g id="xtick_1">
     <g id="line2d_1">
      <defs>
       <path id="m20ca851386" d="M 0 0 
L 0 3.5 
" style="stroke: #000000; stroke-width: 0.8"/>
      </defs>
      <g>
       <use xlink:href="#m20ca851386" x="121.347784" y="307.584" style="stroke: #000000; stroke-width: 0.8"/>
      </g>
     </g>
     <g id="text_1">
      <!-- 0.2 -->
      <g transform="translate(113.396222 322.182437) scale(0.1 -0.1)">
       <defs>
        <path id="DejaVuSans-30" d="M 2034 4250 
Q 1547 4250 1301 3770 
Q 1056 3291 1056 2328 
Q 1056 1369 1301 889 
Q 1547 409 2034 409 
Q 2525 409 2770 889 
Q 3016 1369 3016 2328 
Q 3016 3291 2770 3770 
Q 2525 4250 2034 4250 
z
M 2034 4750 
Q 2819 4750 3233 4129 
Q 3647 3509 3647 2328 
Q 3647 1150 3233 529 
Q 2819 -91 2034 -91 
Q 1250 -91 836 529 
Q 422 1150 422 2328 
Q 422 3509 836 4129 
Q 1250 4750 2034 4750 
z
" transform="scale(0.015625)"/>
        <path id="DejaVuSans-2e" d="M 684 794 
L 1344 794 
L 1344 0 
L 684 0 
L 684 794 
z
" transform="scale(0.015625)"/>
        <path id="DejaVuSans-32" d="M 1228 531 
L 3431 531 
L 3431 0 
L 469 0 
L 469 531 
Q 828 903 1448 1529 
Q 2069 2156 2228 2338 
Q 2531 2678 2651 2914 
Q 2772 3150 2772 3378 
Q 2772 3750 2511 3984 
Q 2250 4219 1831 4219 
Q 1534 4219 1204 4116 
Q 875 4013 500 3803 
L 500 4441 
Q 881 4594 1212 4672 
Q 1544 4750 1819 4750 
Q 2544 4750 2975 4387 
Q 3406 4025 3406 3419 
Q 3406 3131 3298 2873 
Q 3191 2616 2906 2266 
Q 2828 2175 2409 1742 
Q 1991 1309 1228 531 
z
" transform="scale(0.015625)"/>
       </defs>
       <use xlink:href="#DejaVuSans-30"/>
       <use xlink:href="#DejaVuSans-2e" x="63.623047"/>
       <use xlink:href="#DejaVuSans-32" x="95.410156"/>
      </g>
     </g>
    </g>
    <g id="xtick_2">
     <g id="line2d_2">
      <g>
       <use xlink:href="#m20ca851386" x="200.539546" y="307.584" style="stroke: #000000; stroke-width: 0.8"/>
      </g>
     </g>
     <g id="text_2">
      <!-- 0.4 -->
      <g transform="translate(192.587983 322.182437) scale(0.1 -0.1)">
       <defs>
        <path id="DejaVuSans-34" d="M 2419 4116 
L 825 1625 
L 2419 1625 
L 2419 4116 
z
M 2253 4666 
L 3047 4666 
L 3047 1625 
L 3713 1625 
L 3713 1100 
L 3047 1100 
L 3047 0 
L 2419 0 
L 2419 1100 
L 313 1100 
L 313 1709 
L 2253 4666 
z
" transform="scale(0.015625)"/>
       </defs>
       <use xlink:href="#DejaVuSans-30"/>
       <use xlink:href="#DejaVuSans-2e" x="63.623047"/>
       <use xlink:href="#DejaVuSans-34" x="95.410156"/>
      </g>
     </g>
    </g>
    <g id="xtick_3">
     <g id="line2d_3">
      <g>
       <use xlink:href="#m20ca851386" x="279.731307" y="307.584" style="stroke: #000000; stroke-width: 0.8"/>
      </g>
     </g>
     <g id="text_3">
      <!-- 0.6 -->
      <g transform="translate(271.779745 322.182437) scale(0.1 -0.1)">
       <defs>
        <path id="DejaVuSans-36" d="M 2113 2584 
Q 1688 2584 1439 2293 
Q 1191 2003 1191 1497 
Q 1191 994 1439 701 
Q 1688 409 2113 409 
Q 2538 409 2786 701 
Q 3034 994 3034 1497 
Q 3034 2003 2786 2293 
Q 2538 2584 2113 2584 
z
M 3366 4563 
L 3366 3988 
Q 3128 4100 2886 4159 
Q 2644 4219 2406 4219 
Q 1781 4219 1451 3797 
Q 1122 3375 1075 2522 
Q 1259 2794 1537 2939 
Q 1816 3084 2150 3084 
Q 2853 3084 3261 2657 
Q 3669 2231 3669 1497 
Q 3669 778 3244 343 
Q 2819 -91 2113 -91 
Q 1303 -91 875 529 
Q 447 1150 447 2328 
Q 447 3434 972 4092 
Q 1497 4750 2381 4750 
Q 2619 4750 2861 4703 
Q 3103 4656 3366 4563 
z
" transform="scale(0.015625)"/>
       </defs>
       <use xlink:href="#DejaVuSans-30"/>
       <use xlink:href="#DejaVuSans-2e" x="63.623047"/>
       <use xlink:href="#DejaVuSans-36" x="95.410156"/>
      </g>
     </g>
    </g>
    <g id="xtick_4">
     <g id="line2d_4">
      <g>
       <use xlink:href="#m20ca851386" x="358.923069" y="307.584" style="stroke: #000000; stroke-width: 0.8"/>
      </g>
     </g>
     <g id="text_4">
      <!-- 0.8 -->
      <g transform="translate(350.971506 322.182437) scale(0.1 -0.1)">
       <defs>
        <path id="DejaVuSans-38" d="M 2034 2216 
Q 1584 2216 1326 1975 
Q 1069 1734 1069 1313 
Q 1069 891 1326 650 
Q 1584 409 2034 409 
Q 2484 409 2743 651 
Q 3003 894 3003 1313 
Q 3003 1734 2745 1975 
Q 2488 2216 2034 2216 
z
M 1403 2484 
Q 997 2584 770 2862 
Q 544 3141 544 3541 
Q 544 4100 942 4425 
Q 1341 4750 2034 4750 
Q 2731 4750 3128 4425 
Q 3525 4100 3525 3541 
Q 3525 3141 3298 2862 
Q 3072 2584 2669 2484 
Q 3125 2378 3379 2068 
Q 3634 1759 3634 1313 
Q 3634 634 3220 271 
Q 2806 -91 2034 -91 
Q 1263 -91 848 271 
Q 434 634 434 1313 
Q 434 1759 690 2068 
Q 947 2378 1403 2484 
z
M 1172 3481 
Q 1172 3119 1398 2916 
Q 1625 2713 2034 2713 
Q 2441 2713 2670 2916 
Q 2900 3119 2900 3481 
Q 2900 3844 2670 4047 
Q 2441 4250 2034 4250 
Q 1625 4250 1398 4047 
Q 1172 3844 1172 3481 
z
" transform="scale(0.015625)"/>
       </defs>
       <use xlink:href="#DejaVuSans-30"/>
       <use xlink:href="#DejaVuSans-2e" x="63.623047"/>
       <use xlink:href="#DejaVuSans-38" x="95.410156"/>
      </g>
     </g>
    </g>
   </g>
   <g id="matplotlib.axis_2">
    <g id="ytick_1">
     <g id="line2d_5">
      <defs>
       <path id="m5d4efb003f" d="M 0 0 
L -3.5 0 
" style="stroke: #000000; stroke-width: 0.8"/>
      </defs>
      <g>
       <use xlink:href="#m5d4efb003f" x="57.6" y="272.30266" style="stroke: #000000; stroke-width: 0.8"/>
      </g>
     </g>
     <g id="text_5">
      <!-- −80 -->
      <g transform="translate(29.495313 276.101879) scale(0.1 -0.1)">
       <defs>
        <path id="DejaVuSans-2212" d="M 678 2272 
L 4684 2272 
L 4684 1741 
L 678 1741 
L 678 2272 
z
" transform="scale(0.015625)"/>
       </defs>
       <use xlink:href="#DejaVuSans-2212"/>
       <use xlink:href="#DejaVuSans-38" x="83.789062"/>
       <use xlink:href="#DejaVuSans-30" x="147.412109"/>
      </g>
     </g>
    </g>
    <g id="ytick_2">
     <g id="line2d_6">
      <g>
       <use xlink:href="#m5d4efb003f" x="57.6" y="233.2644" style="stroke: #000000; stroke-width: 0.8"/>
      </g>
     </g>
     <g id="text_6">
      <!-- −60 -->
      <g transform="translate(29.495313 237.063619) scale(0.1 -0.1)">
       <use xlink:href="#DejaVuSans-2212"/>
       <use xlink:href="#DejaVuSans-36" x="83.789062"/>
       <use xlink:href="#DejaVuSans-30" x="147.412109"/>
      </g>
     </g>
    </g>
    <g id="ytick_3">
     <g id="line2d_7">
      <g>
       <use xlink:href="#m5d4efb003f" x="57.6" y="194.22614" style="stroke: #000000; stroke-width: 0.8"/>
      </g>
     </g>
     <g id="text_7">
      <!-- −40 -->
      <g transform="translate(29.495313 198.025358) scale(0.1 -0.1)">
       <use xlink:href="#DejaVuSans-2212"/>
       <use xlink:href="#DejaVuSans-34" x="83.789062"/>
       <use xlink:href="#DejaVuSans-30" x="147.412109"/>
      </g>
     </g>
    </g>
    <g id="ytick_4">
     <g id="line2d_8">
      <g>
       <use xlink:href="#m5d4efb003f" x="57.6" y="155.18788" style="stroke: #000000; stroke-width: 0.8"/>
      </g>
     </g>
     <g id="text_8">
      <!-- −20 -->
      <g transform="translate(29.495313 158.987098) scale(0.1 -0.1)">
       <use xlink:href="#DejaVuSans-2212"/>
       <use xlink:href="#DejaVuSans-32" x="83.789062"/>
       <use xlink:href="#DejaVuSans-30" x="147.412109"/>
      </g>
     </g>
    </g>
    <g id="ytick_5">
     <g id="line2d_9">
      <g>
       <use xlink:href="#m5d4efb003f" x="57.6" y="116.14962" style="stroke: #000000; stroke-width: 0.8"/>
      </g>
     </g>
     <g id="text_9">
      <!-- 0 -->
      <g transform="translate(44.2375 119.948838) scale(0.1 -0.1)">
       <use xlink:href="#DejaVuSans-30"/>
      </g>
     </g>
    </g>
    <g id="ytick_6">
     <g id="line2d_10">
      <g>
       <use xlink:href="#m5d4efb003f" x="57.6" y="77.11136" style="stroke: #000000; stroke-width: 0.8"/>
      </g>
     </g>
     <g id="text_10">
      <!-- 20 -->
      <g transform="translate(37.875 80.910578) scale(0.1 -0.1)">
       <use xlink:href="#DejaVuSans-32"/>
       <use xlink:href="#DejaVuSans-30" x="63.623047"/>
      </g>
     </g>
    </g>
   </g>
   <g id="line2d_11">
    <path d="M 73.832727 237.670884 
L 74.323716 237.638032 
L 74.4821 237.577286 
L 74.656322 237.568022 
L 75.210664 237.862298 
L 75.717491 237.669401 
L 76.081773 237.67985 
L 76.351025 237.682308 
L 76.826176 237.661293 
L 77.523063 237.629197 
L 77.776477 237.664754 
L 78.156597 237.619206 
L 78.473364 237.547524 
L 78.726778 237.517006 
L 79.360312 237.650553 
L 79.724594 237.526066 
L 80.088876 237.492668 
L 80.564027 237.587139 
L 81.49849 237.716716 
L 81.59352 238.340482 
L 81.720227 241.192764 
L 82.116186 250.690955 
L 82.84475 258.942311 
L 83.494122 264.710456 
L 84.967089 274.934671 
L 85.996582 280.024856 
L 86.962721 283.950082 
L 88.356496 288.430672 
L 89.385989 290.314063 
L 90.130392 291.370197 
L 90.462997 291.702909 
L 90.843118 292.25375 
L 91.381622 292.731527 
L 92.157701 293.40956 
L 93.503961 294.136326 
L 93.80489 294.100812 
L 94.153333 294.15689 
L 95.087796 294.58496 
L 95.72133 294.63538 
L 96.87753 294.803365 
L 97.938699 294.935021 
L 98.287143 294.88495 
L 98.588072 295.027849 
L 99.253283 294.912858 
L 99.522535 294.975 
L 99.839302 294.929582 
L 100.108554 294.993571 
L 100.393644 295.023384 
L 101.787419 295.305065 
L 102.54766 295.111543 
L 103.909758 295.165221 
L 104.305717 295.070823 
L 104.749191 295.105958 
L 105.414402 295.082108 
L 105.842037 295.075782 
L 106.412218 295.056658 
L 106.903207 295.185944 
L 107.235812 295.205694 
L 107.710963 295.125548 
L 110.055039 295.165701 
L 110.641058 295.023864 
L 112.937619 295.192401 
L 113.365255 295.175226 
L 113.951274 295.215772 
L 114.173011 295.324683 
L 114.489778 295.465299 
L 114.822383 295.443208 
L 115.42424 295.206275 
L 115.677654 295.105857 
L 115.978583 295.081628 
L 116.374542 295.230547 
L 116.849692 295.150503 
L 117.372358 295.132092 
L 117.815832 295.064395 
L 118.306821 295.082995 
L 118.813648 295.148235 
L 119.36799 295.204617 
L 119.542212 295.199542 
L 119.969848 295.356401 
L 120.144069 295.258601 
L 120.52419 295.038916 
L 121.284431 295.07043 
L 121.822935 295.13487 
L 122.092187 295.055058 
L 122.599014 295.210347 
L 123.264225 295.005758 
L 123.628507 294.944867 
L 123.945274 294.952618 
L 124.388748 294.964703 
L 124.689677 294.856941 
L 125.148989 295.229733 
L 125.782523 295.035934 
L 126.035936 295.059436 
L 126.38438 294.998894 
L 126.669471 295.018381 
L 126.954561 295.132819 
L 127.793994 295.340462 
L 128.110761 295.213227 
L 128.395851 295.196517 
L 128.633426 295.023544 
L 128.88684 294.992451 
L 129.219445 295.013364 
L 129.520374 295.117418 
L 129.948009 295.052208 
L 130.217261 295.189464 
L 131.056694 295.057211 
L 131.436815 295.186206 
L 131.801097 295.236103 
L 132.212894 295.22729 
L 132.513823 295.134768 
L 133.670022 295.16413 
L 133.923436 295.132266 
L 134.287718 295.152263 
L 135.459756 294.906997 
L 137.53458 294.996421 
L 137.835509 295.050245 
L 138.738295 295.037447 
L 139.039224 294.951978 
L 139.355991 294.886928 
L 139.593566 294.904074 
L 140.607221 295.338645 
L 141.937642 295.137356 
L 143.426447 295.019574 
L 143.664023 294.920333 
L 144.26588 294.966099 
L 144.598485 294.938919 
L 145.786362 295.065238 
L 146.118967 294.849887 
L 147.259329 294.873229 
L 147.750317 294.942933 
L 147.956216 294.993353 
L 148.193791 295.098367 
L 148.811487 294.940257 
L 149.302476 294.832363 
L 149.571728 294.774075 
L 151.108048 294.878973 
L 151.345623 294.952531 
L 151.599037 294.918123 
L 152.786913 294.708676 
L 153.341256 295.06345 
L 154.307395 294.944591 
L 154.845899 294.914967 
L 155.162666 295.001744 
L 155.447757 294.893894 
L 155.875392 295.192576 
L 156.097129 295.071201 
L 156.714825 294.816904 
L 156.968238 294.795061 
L 157.348359 294.818518 
L 157.617611 294.789447 
L 157.855186 294.746153 
L 158.124438 294.944227 
L 158.346175 294.972149 
L 159.803304 294.656336 
L 160.167586 294.646563 
L 160.516029 294.81609 
L 160.927827 295.025449 
L 161.212917 294.984511 
L 163.161034 294.433583 
L 163.826245 294.620139 
L 164.396426 294.48774 
L 164.681516 294.516172 
L 165.536787 294.416131 
L 165.948584 294.577659 
L 166.18616 294.59639 
L 166.835532 294.569791 
L 167.310683 294.585803 
L 167.659126 294.47138 
L 168.245145 294.496757 
L 168.799488 294.610206 
L 169.670597 294.330386 
L 170.319969 294.229124 
L 170.573383 294.200547 
L 170.826797 294.231291 
L 171.460331 294.58525 
L 172.157218 294.20411 
L 172.378955 294.179838 
L 172.664046 294.08608 
L 173.345095 294.071872 
L 174.041982 294.494488 
L 174.295396 294.382246 
L 174.54881 294.341803 
L 174.8339 294.272578 
L 175.166505 294.085891 
L 176.037615 294.217548 
L 176.433573 294.465402 
L 177.859025 294.21064 
L 178.144116 294.276636 
L 178.508398 294.246939 
L 178.77765 294.498415 
L 179.046902 294.60548 
L 179.569567 294.558986 
L 180.298131 294.495143 
L 181.074211 294.481196 
L 181.517685 294.685858 
L 181.961158 294.569166 
L 182.198734 294.581164 
L 182.816429 294.265787 
L 183.212388 294.274076 
L 183.988468 294.516084 
L 184.843739 294.438876 
L 185.366404 294.335462 
L 186.126645 294.413397 
L 186.665149 294.757176 
L 187.282845 294.805517 
L 187.647127 294.595852 
L 188.312338 294.383221 
L 188.77165 294.598528 
L 189.120094 294.648337 
L 189.769466 294.465243 
L 190.02288 294.338181 
L 190.403 294.383381 
L 191.258271 294.24406 
L 191.638392 294.536328 
L 191.923482 294.657892 
L 192.541178 294.385649 
L 192.984652 294.28827 
L 193.222227 294.240366 
L 194.267558 294.513874 
L 194.616002 294.62949 
L 195.091152 294.405064 
L 196.120645 294.100711 
L 196.342382 294.033115 
L 196.516604 294.102019 
L 196.84921 294.299672 
L 197.1343 294.391292 
L 197.767834 294.204823 
L 198.417206 294.124808 
L 198.86068 294.194192 
L 199.193286 294.347038 
L 199.668436 294.598368 
L 200.080233 294.548661 
L 200.492031 294.641066 
L 201.537362 294.349452 
L 201.964997 294.730825 
L 202.139219 294.75626 
L 202.915299 294.365827 
L 203.121197 294.27047 
L 203.612186 294.031734 
L 204.05566 294.219221 
L 204.926769 294.494677 
L 206.162161 294.177104 
L 207.017432 294.663593 
L 207.22333 294.791803 
L 208.031086 294.458698 
L 208.300338 294.307758 
L 209.282316 294.326707 
L 209.836658 294.708923 
L 210.232617 294.512856 
L 211.563039 294.0912 
L 211.753099 294.074359 
L 212.307441 294.464254 
L 212.671724 294.425497 
L 213.162712 294.193087 
L 214.208044 294.012697 
L 215.0158 294.375397 
L 215.39592 294.202889 
L 216.061131 293.45204 
L 216.26703 293.40223 
L 217.249007 293.927752 
L 217.676643 294.153327 
L 218.531914 293.731409 
L 218.880358 293.803323 
L 219.181286 293.75094 
L 219.450538 293.821909 
L 219.62476 293.907828 
L 220.258294 294.430296 
L 221.382817 293.845919 
L 222.253927 293.915521 
L 222.808269 294.276839 
L 223.330935 293.967803 
L 223.964469 293.741676 
L 224.186206 293.722857 
L 224.518811 293.735364 
L 224.72471 293.709056 
L 225.358244 294.076206 
L 225.516627 293.991537 
L 225.833394 293.773088 
L 226.181838 293.744017 
L 226.989594 293.754197 
L 227.41723 293.865014 
L 227.781512 294.235494 
L 228.003249 294.168888 
L 228.351692 293.99734 
L 229.571245 293.391076 
L 229.840497 293.473141 
L 230.48987 293.946556 
L 231.345141 293.690267 
L 231.978675 293.546627 
L 232.232089 293.576498 
L 232.406311 293.687533 
L 232.865623 294.059801 
L 233.134875 294.129462 
L 233.404127 294.160293 
L 233.720894 294.136995 
L 234.196044 293.873245 
L 234.401943 293.84336 
L 234.734548 293.697654 
L 235.067154 293.916801 
L 235.494789 294.124255 
L 236.144162 293.96328 
L 236.809372 293.694935 
L 237.062786 293.6364 
L 237.300361 293.587361 
L 238.282339 294.118278 
L 238.836682 293.90364 
L 239.929528 293.832438 
L 240.357163 294.199864 
L 240.721445 294.253207 
L 241.022374 294.187517 
L 241.608393 293.924262 
L 242.527018 293.742694 
L 243.477319 294.018412 
L 244.031661 293.887468 
L 244.253398 293.803192 
L 244.950286 293.4482 
L 245.552143 293.94119 
L 245.837233 294.117697 
L 246.217354 294.021743 
L 247.801189 293.626336 
L 248.387208 294.053054 
L 248.735652 293.900935 
L 248.989065 293.859706 
L 249.448378 293.86993 
L 249.986882 293.645315 
L 250.19278 293.709943 
L 251.032213 294.2027 
L 251.317303 294.025742 
L 251.665747 293.781232 
L 251.855807 293.828075 
L 252.077544 293.844494 
L 252.726917 293.696026 
L 253.629703 294.307888 
L 253.962308 294.218726 
L 254.975963 293.722101 
L 255.340245 293.60125 
L 255.57782 293.856957 
L 255.942102 294.217112 
L 256.211354 294.192883 
L 256.448929 294.040605 
L 256.670666 293.943938 
L 256.955757 293.87707 
L 257.430907 293.619079 
L 257.668482 293.523387 
L 258.17531 293.938092 
L 258.539592 294.223991 
L 258.761329 294.103183 
L 259.569085 293.659436 
L 259.933367 293.82108 
L 260.566901 293.926719 
L 261.137082 294.023241 
L 261.786454 293.608827 
L 262.166574 293.625275 
L 262.768432 293.514705 
L 262.926815 293.614077 
L 263.148552 293.720065 
L 263.322774 293.757324 
L 263.576188 293.83222 
L 264.621519 293.513672 
L 264.827418 293.637331 
L 265.144185 293.789696 
L 265.47679 293.787908 
L 265.730204 293.884734 
L 266.458768 293.830489 
L 266.91808 293.548285 
L 268.153472 293.962466 
L 268.4544 293.811903 
L 268.945389 293.481038 
L 269.563085 293.410447 
L 270.085751 294.008756 
L 270.291649 294.03265 
L 271.764616 293.188334 
L 271.938838 293.384241 
L 272.509019 293.981866 
L 273.063361 294.052675 
L 273.506835 293.876808 
L 273.871117 293.777699 
L 274.552166 293.565561 
L 275.154023 294.099285 
L 276.975434 293.521118 
L 277.292201 293.840626 
L 277.624806 294.145823 
L 277.799028 293.987363 
L 278.020765 293.877754 
L 278.448401 293.855896 
L 279.588762 293.604522 
L 280.143104 294.100725 
L 280.428195 294.085717 
L 280.776638 293.896136 
L 280.998375 293.823363 
L 281.330981 293.811438 
L 282.075383 293.358543 
L 282.29712 293.516305 
L 282.867301 293.97887 
L 284.134369 293.575436 
L 284.562005 293.249356 
L 284.70455 293.276173 
L 285.052994 293.886218 
L 285.290569 294.077398 
L 285.86075 293.963804 
L 286.43093 293.734826 
L 287.191171 293.282761 
L 287.412908 293.4611 
L 287.856382 293.840538 
L 288.220664 293.687809 
L 288.474078 293.711034 
L 288.632461 293.599126 
L 288.93339 293.428495 
L 289.21848 293.29899 
L 289.693631 293.025119 
L 289.867853 293.127268 
L 290.485548 293.667493 
L 291.72094 293.40319 
L 292.370312 293.24716 
L 292.592049 293.461536 
L 293.019685 293.998721 
L 294.777742 293.397838 
L 295.062832 293.374948 
L 295.66469 293.971017 
L 295.965618 293.947603 
L 296.773374 293.633709 
L 297.359393 293.449873 
L 297.691999 293.28247 
L 297.977089 293.678327 
L 298.262179 293.870773 
L 298.531431 293.90588 
L 299.655954 293.417413 
L 299.89353 293.327989 
L 300.384519 293.532549 
L 300.637932 293.761774 
L 301.382335 293.72453 
L 302.823625 293.278136 
L 303.267099 293.752379 
L 303.552189 293.664337 
L 304.454975 293.220837 
L 304.724227 293.182836 
L 305.136024 293.039633 
L 305.484468 293.307702 
L 306.03881 293.893169 
L 306.276386 293.90476 
L 306.640668 293.813285 
L 307.305879 293.487437 
L 307.670161 293.349774 
L 307.971089 293.384386 
L 308.16115 293.65372 
L 308.430402 293.919317 
L 308.92139 293.956911 
L 310.505226 293.448099 
L 311.154598 294.012261 
L 311.566395 294.002997 
L 311.883162 293.851882 
L 312.279121 293.677527 
L 312.48502 293.60983 
L 312.976009 293.478697 
L 313.134392 293.632808 
L 313.562028 294.196461 
L 314.353945 293.991421 
L 315.446792 293.517119 
L 315.684367 293.626453 
L 316.175356 294.034031 
L 316.682183 294.11966 
L 317.09398 293.925236 
L 317.505777 293.636691 
L 318.139312 293.592858 
L 318.836199 294.326634 
L 319.026259 294.364068 
L 319.121289 294.123805 
L 319.216319 293.04686 
L 319.40638 286.873813 
L 319.69147 280.68391 
L 320.277489 274.431124 
L 320.815993 270.176719 
L 321.702941 265.059674 
L 323.080877 258.081954 
L 323.492675 256.89303 
L 323.951987 255.624527 
L 326.058488 249.836749 
L 326.660345 248.988535 
L 328.164989 245.899583 
L 328.450079 245.62513 
L 329.701309 244.497998 
L 330.144783 243.746 
L 330.9367 242.57809 
L 331.760294 242.648201 
L 332.599727 241.634446 
L 333.169908 240.834107 
L 333.597543 240.572771 
L 334.009341 240.677466 
L 334.215239 240.572451 
L 334.674551 240.385299 
L 334.832935 240.289825 
L 335.989135 239.052618 
L 336.274225 239.119457 
L 336.559315 239.22642 
L 337.018627 238.943794 
L 337.493778 238.473695 
L 337.699677 238.287066 
L 338.158989 237.810474 
L 338.396564 237.516148 
L 338.586624 237.400917 
L 339.426057 237.717654 
L 339.742824 237.52411 
L 340.027914 237.47646 
L 341.247468 236.555837 
L 341.817648 236.942286 
L 343.52819 235.913565 
L 343.844957 235.770972 
L 344.573521 236.246976 
L 345.016995 236.250793 
L 345.444631 236.100965 
L 346.394932 235.556669 
L 346.854244 235.968596 
L 347.677839 235.827646 
L 348.232181 235.519424 
L 348.659816 235.272246 
L 349.087452 235.304168 
L 349.467572 235.706089 
L 349.942723 235.805788 
L 350.307005 235.676335 
L 351.146438 235.123712 
L 351.41569 234.991772 
L 351.684942 235.28945 
L 352.112577 235.769184 
L 352.445183 235.810936 
L 352.777788 235.685082 
L 353.14207 235.497675 
L 353.379645 235.28732 
L 353.696412 235.080294 
L 354.013179 234.971426 
L 354.282431 235.106188 
L 354.77342 235.517868 
L 355.232733 235.559141 
L 356.02465 235.028442 
L 356.309741 234.875618 
L 356.689861 234.962497 
L 356.99079 235.13539 
L 357.46594 235.461514 
L 358.004444 235.340423 
L 358.321211 235.196012 
L 358.637978 235.210148 
L 359.065614 234.975317 
L 359.429896 235.146326 
L 360.205975 235.660054 
L 360.443551 235.666075 
L 361.203791 235.118186 
L 361.805649 234.846445 
L 362.264961 235.226051 
L 362.866818 235.600886 
L 363.199424 235.422925 
L 363.484514 235.164396 
L 363.832958 234.885733 
L 364.308108 234.740347 
L 364.688229 235.016211 
L 365.020834 235.326084 
L 365.654368 235.450186 
L 365.812752 235.344248 
L 366.145357 235.088111 
L 366.842245 234.927136 
L 368.061798 235.673099 
L 368.299373 235.660956 
L 369.091291 235.094227 
L 369.518926 235.139215 
L 369.756502 235.34968 
L 370.041592 235.614055 
L 370.960216 235.400369 
L 371.21363 235.147272 
L 371.467044 235.045275 
L 372.053063 235.097673 
L 372.734112 235.631499 
L 373.415161 235.708991 
L 373.652736 235.433578 
L 374.064533 235.033314 
L 374.508007 234.901962 
L 375.15738 235.357424 
L 375.489985 235.514683 
L 376.044328 235.64394 
L 377.153012 235.003915 
L 377.390587 235.233155 
L 378.055798 235.844581 
L 378.736847 235.803076 
L 379.021938 235.527845 
L 379.57628 235.288221 
L 379.750502 235.29971 
L 380.384036 235.757309 
L 380.716641 235.910264 
L 381.223469 236.073101 
L 382.094578 235.420278 
L 382.395507 235.578781 
L 382.838981 235.934478 
L 383.646737 235.985553 
L 384.09021 235.716844 
L 384.565361 235.476923 
L 384.818775 235.527052 
L 386.165035 236.347285 
L 386.78273 235.962677 
L 387.036144 235.73407 
L 387.305396 235.550568 
L 387.479618 235.721018 
L 387.812223 235.996271 
L 388.366566 236.145248 
L 389.253513 235.872285 
L 389.982078 235.457079 
L 391.106601 236.389881 
L 392.405345 235.556661 
L 392.801304 235.804196 
L 393.03888 235.905276 
L 393.32397 236.047578 
L 393.593222 236.043033 
L 393.941666 235.931999 
L 394.686068 235.469229 
L 395.082027 235.273657 
L 395.287926 235.380721 
L 396.048166 236.081049 
L 396.39661 235.98556 
L 397.283558 235.435199 
L 397.695355 235.407946 
L 398.012122 235.664766 
L 398.392243 236.03606 
L 398.487273 236.066666 
L 398.487273 236.066666 
" clip-path="url(#pc28b033402)" style="fill: none; stroke: #1f77b4; stroke-width: 1.5; stroke-linecap: square"/>
   </g>
   <g id="line2d_12">
    <path d="M 73.832727 238.556793 
L 74.323716 238.353382 
L 74.57713 238.213043 
L 74.909735 238.569169 
L 75.210664 238.849352 
L 75.543269 238.948157 
L 75.92339 238.815118 
L 76.145127 238.78564 
L 77.26965 238.231251 
L 77.64977 238.597586 
L 77.871507 238.700942 
L 79.027707 238.502519 
L 79.439504 238.305957 
L 79.692918 238.073664 
L 80.041361 238.312269 
L 80.659057 238.733329 
L 81.165884 238.57583 
L 81.625197 238.707196 
L 81.799418 239.675592 
L 82.052832 240.595691 
L 82.385438 241.354044 
L 83.478284 243.865731 
L 84.4761 244.846736 
L 84.824544 245.055601 
L 85.172988 245.634961 
L 85.854037 246.866423 
L 86.471732 247.200909 
L 86.851853 247.296762 
L 87.279488 247.540006 
L 87.517064 247.685246 
L 87.802154 248.180198 
L 88.308981 248.94719 
L 89.005869 249.339557 
L 90.098715 249.396027 
L 90.763926 250.139212 
L 91.476652 250.347204 
L 91.872611 250.368437 
L 92.110186 250.480708 
L 92.569498 250.306833 
L 92.870427 250.645595 
L 93.187194 250.908051 
L 94.042465 251.260978 
L 94.739352 251.199825 
L 95.262018 251.294717 
L 95.974744 251.948492 
L 96.386541 252.012496 
L 96.861692 252.072965 
L 97.130944 251.905591 
L 97.637771 251.587247 
L 97.796154 251.636388 
L 98.588072 252.412032 
L 99.221606 252.402434 
L 99.585888 252.280259 
L 100.076877 251.963253 
L 100.599543 252.313737 
L 101.043017 252.753456 
L 101.929964 252.761818 
L 102.389276 252.564195 
L 102.92778 252.409356 
L 103.561315 252.965942 
L 104.258202 252.965753 
L 105.14515 252.631543 
L 105.6203 252.694673 
L 106.348865 253.269946 
L 106.792338 253.240613 
L 107.631771 252.895991 
L 107.948538 252.771649 
L 108.12276 252.90556 
L 108.708779 253.497499 
L 109.769949 253.428158 
L 110.609381 252.847941 
L 110.799442 253.091563 
L 111.068694 253.351197 
L 111.892288 253.465112 
L 112.335762 253.367762 
L 112.54166 253.308238 
L 113.080164 252.961346 
L 113.254386 253.065212 
L 113.745375 253.563422 
L 114.252202 253.696605 
L 115.04412 253.596812 
L 115.725169 253.211818 
L 115.946906 253.287776 
L 116.437895 253.688301 
L 116.722985 253.634231 
L 117.039752 253.52481 
L 117.562418 253.426588 
L 118.306821 252.949668 
L 118.496881 253.106862 
L 118.908678 253.501251 
L 119.130415 253.561967 
L 119.447182 253.581789 
L 119.922332 253.381854 
L 120.207423 253.310928 
L 120.888472 252.953319 
L 121.062694 253.115443 
L 121.601198 253.64764 
L 122.298085 253.393517 
L 122.662367 253.189117 
L 122.931619 253.065066 
L 123.390932 252.642901 
L 123.612669 252.756481 
L 123.850244 253.029131 
L 124.135334 253.274135 
L 124.642161 253.316992 
L 125.275696 253.16707 
L 125.576624 252.991581 
L 125.925068 252.765599 
L 126.162643 252.829253 
L 126.590279 253.391088 
L 126.812016 253.474986 
L 127.033753 253.495797 
L 127.35052 253.504087 
L 127.698963 253.372241 
L 128.031569 253.327085 
L 128.284982 253.191735 
L 128.570073 252.967934 
L 129.583727 253.562084 
L 129.916333 253.450496 
L 130.153908 253.320555 
L 130.375645 253.277363 
L 130.914149 252.958888 
L 131.135886 252.952548 
L 131.405138 253.245049 
L 131.785258 253.601611 
L 132.339601 253.663026 
L 133.464124 253.236687 
L 133.654184 253.1486 
L 133.955113 253.321995 
L 134.414425 253.823972 
L 134.826222 253.977472 
L 135.570625 253.705753 
L 135.792361 253.602178 
L 136.09329 253.396295 
L 136.315027 253.442876 
L 137.027753 253.803946 
L 137.550419 253.767866 
L 139.023385 253.259897 
L 139.340152 253.345293 
L 139.514374 253.493659 
L 139.862818 253.821965 
L 140.068717 253.759053 
L 140.369645 253.642651 
L 141.605037 253.571726 
L 142.064349 253.815813 
L 142.365278 253.840595 
L 142.903782 253.708923 
L 143.949113 253.286002 
L 145.105313 253.597248 
L 145.390403 253.459571 
L 145.818038 253.237821 
L 146.055614 253.142929 
L 146.419896 252.91763 
L 146.879208 253.265976 
L 147.33852 253.571115 
L 147.956216 253.724266 
L 148.906517 253.320396 
L 149.223284 253.39199 
L 150.205262 253.810374 
L 150.474514 253.70616 
L 151.329785 253.42381 
L 151.741582 253.383512 
L 151.979158 253.383701 
L 152.707722 253.709621 
L 154.117335 253.491987 
L 154.640001 253.669992 
L 155.542787 253.983915 
L 155.843715 253.789825 
L 156.065452 253.698918 
L 156.619795 253.393561 
L 157.902701 253.824205 
L 158.124438 253.953549 
L 158.48872 253.798958 
L 159.518213 253.444068 
L 160.531868 253.898126 
L 160.80112 253.81497 
L 161.054533 253.780969 
L 161.212917 253.68359 
L 161.434654 253.603167 
L 161.640552 253.486286 
L 161.941481 253.329325 
L 162.353278 253.574402 
L 162.670045 253.717358 
L 163.224388 253.671126 
L 163.604508 253.473038 
L 163.857922 253.433437 
L 164.459779 253.136399 
L 165.758524 253.647014 
L 166.930562 253.262544 
L 167.326521 253.564003 
L 167.659126 253.813996 
L 167.975893 253.900046 
L 168.29266 254.057749 
L 168.97371 253.691283 
L 169.63892 253.458815 
L 170.019041 253.615689 
L 170.684252 253.839475 
L 171.159402 253.914051 
L 171.602876 253.687138 
L 172.252248 253.358192 
L 172.553177 253.43463 
L 173.29758 253.754966 
L 173.725215 253.698365 
L 174.64384 253.414168 
L 174.976445 253.528591 
L 175.277374 253.573311 
L 175.768363 253.737398 
L 176.861209 253.405341 
L 177.225491 253.22639 
L 178.397529 253.597772 
L 178.77765 253.561967 
L 179.553729 253.153327 
L 179.791304 253.025393 
L 179.997203 253.000859 
L 180.234778 253.209695 
L 180.646575 253.523036 
L 181.295948 253.677365 
L 181.612715 253.46741 
L 182.436309 253.20507 
L 182.879783 253.242038 
L 183.29158 253.445493 
L 183.909276 253.459993 
L 184.336911 253.309547 
L 184.590325 253.238984 
L 185.144667 253.115065 
L 185.429758 253.174065 
L 185.683171 253.226361 
L 186.475089 253.475583 
L 186.918563 253.300646 
L 187.203653 253.237806 
L 187.552097 253.128866 
L 188.058924 253.285071 
L 188.755812 253.528635 
L 189.183447 253.367994 
L 189.912011 252.889621 
L 190.244617 252.86484 
L 190.783121 253.029 
L 191.27411 253.255811 
L 191.575038 253.225547 
L 191.84429 253.040765 
L 192.857945 252.735393 
L 193.158874 252.884589 
L 193.887438 253.332437 
L 194.125013 253.368314 
L 195.344566 252.785566 
L 196.738341 253.094603 
L 196.928401 252.920306 
L 197.340199 252.592422 
L 197.862864 252.558828 
L 198.496398 252.789682 
L 198.86068 252.778804 
L 199.478376 252.975147 
L 199.652598 252.828395 
L 199.969365 252.608376 
L 200.20694 252.643104 
L 201.331463 253.026746 
L 202.170896 252.829151 
L 202.646047 252.442165 
L 202.883622 252.474872 
L 204.594164 252.962641 
L 204.863416 252.645998 
L 205.085153 252.562871 
L 205.291051 252.458541 
L 205.481112 252.452462 
L 206.589796 253.033843 
L 207.080785 253.124576 
L 207.698481 252.846865 
L 208.18947 252.691488 
L 209.504053 253.163347 
L 209.773305 253.015518 
L 210.454354 252.606151 
L 210.929505 252.722828 
L 211.753099 253.152193 
L 211.911483 253.066273 
L 212.117381 253.002866 
L 212.449987 253.060558 
L 213.051844 252.784999 
L 213.352773 252.882407 
L 213.606186 253.053955 
L 213.843762 253.118031 
L 214.128852 253.18138 
L 214.794063 253.314069 
L 215.063315 253.127295 
L 215.411758 252.776753 
L 216.061131 252.843985 
L 217.201492 253.150622 
L 217.692481 253.009134 
L 218.531914 252.646565 
L 218.706136 252.732238 
L 218.991226 252.860171 
L 219.24464 252.953537 
L 219.735629 253.269205 
L 220.416678 253.080932 
L 220.749283 252.927854 
L 221.319464 252.857016 
L 221.873806 252.480558 
L 222.22225 252.409124 
L 222.792431 252.30251 
L 223.204228 252.186749 
L 223.394288 252.198077 
L 223.996145 252.455327 
L 224.439619 252.604929 
L 224.788063 252.750605 
L 225.088992 252.644893 
L 225.643334 252.576876 
L 226.07097 252.554335 
L 227.116301 253.195545 
L 227.41723 253.265118 
L 228.114117 252.893664 
L 228.415046 252.696855 
L 228.906035 252.897168 
L 229.127772 252.881709 
L 230.109749 253.357 
L 230.664092 253.105961 
L 230.96502 253.064441 
L 231.582716 253.161515 
L 231.83613 253.24995 
L 232.342957 253.566985 
L 232.913138 253.685029 
L 233.514995 253.473983 
L 233.974307 253.446468 
L 234.164368 253.465766 
L 234.576165 253.680056 
L 235.558143 253.685713 
L 236.06497 253.484905 
L 236.571797 253.560862 
L 236.856888 253.512143 
L 237.031109 253.576583 
L 237.458745 253.794755 
L 237.854704 253.879409 
L 238.646621 253.387162 
L 238.85252 253.522847 
L 239.090095 253.590268 
L 239.454377 253.716965 
L 240.10375 254.069238 
L 240.341325 254.057225 
L 241.418333 253.698787 
L 241.798453 253.769582 
L 242.02019 253.760129 
L 242.542856 253.923242 
L 242.780431 253.96274 
L 243.382289 253.647596 
L 243.825763 253.413252 
L 244.031661 253.51082 
L 244.348428 253.67674 
L 245.298729 253.777333 
L 245.58382 253.76788 
L 246.280707 253.475059 
L 246.502444 253.60023 
L 246.850888 253.712341 
L 247.135978 253.612722 
L 247.341877 253.649516 
L 247.896219 253.836624 
L 248.672298 253.444345 
L 249.084095 253.306536 
L 249.606761 253.501425 
L 249.955205 253.503607 
L 250.636254 253.81577 
L 251.15892 253.60007 
L 251.649909 253.297534 
L 252.045867 253.523734 
L 252.742755 253.628792 
L 253.059522 253.843678 
L 253.629703 253.613217 
L 254.247398 253.399 
L 254.580004 253.51386 
L 254.944286 253.357887 
L 255.530305 253.472412 
L 256.05297 253.394128 
L 256.528121 252.997136 
L 256.73402 252.849657 
L 256.749858 252.862178 
L 257.193332 253.178326 
L 257.636806 253.104216 
L 258.333693 253.313429 
L 258.777167 253.192069 
L 259.236479 252.947996 
L 259.743307 253.198293 
L 260.060074 253.122758 
L 260.741123 253.41539 
L 261.05789 253.476121 
L 261.960676 252.990868 
L 262.324958 253.129258 
L 262.578372 253.0492 
L 262.895139 253.20478 
L 263.702895 253.338196 
L 264.368105 253.149633 
L 264.716549 253.307554 
L 265.017478 253.272768 
L 265.334245 253.272346 
L 266.031132 253.599808 
L 266.981434 253.405239 
L 267.314039 253.473692 
L 268.121795 253.581062 
L 268.755329 253.668116 
L 269.642277 253.430252 
L 270.370841 253.510151 
L 270.67177 253.569472 
L 271.273627 253.741034 
L 271.527041 253.487682 
L 271.764616 253.440083 
L 272.350635 253.476979 
L 272.540695 253.611849 
L 272.746594 253.65782 
L 273.031684 253.703731 
L 273.760248 253.805343 
L 273.997824 253.719496 
L 274.267076 253.677467 
L 275.391599 253.594543 
L 275.613336 253.581644 
L 276.231031 253.736467 
L 276.452768 253.767996 
L 276.81705 253.733326 
L 277.292201 253.52084 
L 277.925735 253.572264 
L 278.16331 253.513161 
L 278.876036 253.711585 
L 279.176965 253.701623 
L 279.430378 253.602149 
L 279.826337 253.534743 
L 280.253973 253.648658 
L 280.982537 253.648265 
L 281.299304 253.794581 
L 281.790293 253.547657 
L 282.29712 253.342719 
L 282.898978 253.551889 
L 283.326613 253.514209 
L 284.039339 253.923314 
L 284.292753 253.818591 
L 284.878772 253.406955 
L 285.417276 253.545156 
L 286.066648 253.647276 
L 286.494284 253.836668 
L 286.652667 253.690599 
L 286.874404 253.593482 
L 287.048626 253.471758 
L 287.286201 252.879033 
L 287.4921 252.632619 
L 288.109796 252.425383 
L 288.458239 252.300168 
L 288.679976 252.335391 
L 289.329349 252.598385 
L 289.598601 252.508903 
L 289.883691 252.424597 
L 290.628094 252.696506 
L 290.865669 252.666998 
L 291.214113 252.758429 
L 291.420011 252.86356 
L 291.81597 253.020187 
L 292.116899 252.859139 
L 292.497019 252.74092 
L 293.399805 253.002008 
L 293.732411 252.999696 
L 294.445136 253.202642 
L 295.363761 252.691925 
L 295.918103 252.860622 
L 296.23487 252.807075 
L 296.456607 252.894623 
L 296.741698 253.049054 
L 297.929574 252.766632 
L 298.278018 252.974653 
L 299.02242 253.157646 
L 299.307511 253.282308 
L 299.687631 253.282526 
L 300.289488 252.954802 
L 300.511225 253.056326 
L 300.796316 253.199428 
L 301.42985 253.056631 
L 302.095061 253.185525 
L 302.728595 252.939459 
L 302.902817 252.903713 
L 303.568027 253.247143 
L 303.932309 253.125739 
L 304.803419 253.269059 
L 305.136024 253.12984 
L 305.421115 253.001761 
L 306.086325 253.211804 
L 307.432585 253.266878 
L 307.923574 252.943357 
L 308.145311 252.816964 
L 308.572947 253.000816 
L 309.428218 253.044357 
L 309.998398 253.106135 
L 310.568579 252.882844 
L 310.885346 252.903276 
L 311.107083 252.853045 
L 311.582234 252.952708 
L 311.946516 253.085193 
L 312.469181 253.298334 
L 313.261099 253.166343 
L 313.625381 253.243042 
L 314.40146 253.142521 
L 315.193378 253.027793 
L 315.589337 252.916656 
L 316.112002 253.057795 
L 316.349578 253.083928 
L 316.80889 253.023372 
L 317.09398 253.128851 
L 317.363232 253.227583 
L 318.15515 252.964298 
L 318.34521 252.983219 
L 318.852037 253.219933 
L 319.168804 253.129477 
L 319.295511 252.579566 
L 319.69147 250.717903 
L 321.560396 247.068046 
L 322.178091 246.242155 
L 322.510697 245.933235 
L 322.985847 245.2502 
L 323.82528 244.377801 
L 324.316269 243.822277 
L 324.585521 243.639211 
L 324.88645 243.615187 
L 326.280225 242.593738 
L 327.420586 242.013637 
L 327.626485 241.940893 
L 328.624301 241.203511 
L 328.956906 241.262599 
L 329.21032 241.010629 
L 329.527087 240.769071 
L 329.701309 240.87378 
L 329.970561 241.001917 
L 330.239813 240.808439 
L 331.205952 240.178586 
L 331.633588 240.298405 
L 332.28296 239.958465 
L 332.979848 239.852535 
L 333.866795 239.500146 
L 334.136047 239.666764 
L 334.405299 239.401037 
L 334.627036 239.325297 
L 335.038833 239.353714 
L 335.672368 239.2657 
L 336.495962 238.916497 
L 336.844406 238.948956 
L 337.414586 238.705203 
L 337.842222 238.805724 
L 338.032282 238.789494 
L 338.618301 238.495058 
L 338.8242 238.515055 
L 339.283512 238.747087 
L 340.075429 238.47848 
L 340.55058 238.648602 
L 340.819832 238.622745 
L 341.469204 238.296097 
L 341.659265 238.437134 
L 341.881002 238.539443 
L 342.736273 238.330622 
L 343.258938 238.453568 
L 343.781604 238.215355 
L 344.003341 238.109032 
L 344.700228 238.302831 
L 345.428793 238.428612 
L 345.682206 238.50105 
L 346.157357 238.345092 
L 346.394932 238.215341 
L 346.616669 238.248673 
L 346.933436 238.267695 
L 347.741192 238.046272 
L 347.978767 238.059368 
L 348.311373 238.089268 
L 348.675655 237.908886 
L 349.10329 237.931907 
L 349.816016 238.069577 
L 350.322843 238.053747 
L 351.003893 238.124382 
L 351.384013 238.011318 
L 351.875002 238.1145 
L 352.445183 238.295137 
L 353.04704 238.204143 
L 353.395484 238.332076 
L 353.870634 238.202165 
L 354.440815 238.073242 
L 354.741744 238.205626 
L 355.5495 238.028028 
L 356.452286 238.038186 
L 356.864083 237.998979 
L 357.497617 238.124506 
L 357.782707 238.105338 
L 358.479595 238.24495 
L 358.748847 238.286528 
L 359.382381 238.132664 
L 360.000077 238.198224 
L 360.364359 238.212025 
L 360.776156 238.093406 
L 361.045408 238.034027 
L 361.330498 238.054438 
L 361.900679 237.817069 
L 362.233284 237.895739 
L 362.708435 238.044309 
L 363.484514 237.919691 
L 363.737928 237.936204 
L 364.529845 237.882956 
L 364.894127 238.01054 
L 365.290086 238.031191 
L 365.860267 237.943505 
L 366.145357 238.051035 
L 366.446286 238.109156 
L 366.747215 237.906508 
L 366.953113 237.893259 
L 367.254042 237.978248 
L 367.554971 237.942989 
L 367.824223 237.951838 
L 368.536949 237.774917 
L 369.075453 237.975754 
L 369.297189 237.947126 
L 369.899047 237.756309 
L 370.342521 237.764119 
L 370.817671 237.744951 
L 371.134438 237.831183 
L 371.641266 237.86229 
L 371.989709 237.875495 
L 372.417345 237.917953 
L 373.050879 238.072399 
L 373.430999 237.86341 
L 373.985342 237.989933 
L 374.159564 238.024036 
L 374.365462 238.092024 
L 374.856451 237.751924 
L 376.456125 238.02584 
L 376.6937 237.707278 
L 376.947114 236.976185 
L 377.374749 235.812652 
L 378.32505 234.777301 
L 379.180321 234.887972 
L 379.512927 234.900188 
L 379.782179 234.96409 
L 380.764157 235.304619 
L 380.985893 235.266102 
L 382.221285 235.609328 
L 383.013203 235.953937 
L 383.393323 236.066586 
L 383.725928 236.062732 
L 384.201079 236.363079 
L 384.486169 236.403901 
L 385.15138 236.463883 
L 385.579016 236.789418 
L 386.640185 236.788487 
L 387.004467 236.902823 
L 387.242043 236.775144 
L 387.46378 236.69518 
L 388.176505 237.026991 
L 388.952585 236.905303 
L 389.28519 236.982591 
L 389.696987 237.000472 
L 390.362198 236.963016 
L 390.72648 237.19643 
L 390.995732 237.145006 
L 391.249146 237.08349 
L 391.97771 237.388527 
L 392.310315 237.40219 
L 392.864658 237.377372 
L 393.308132 237.70674 
L 393.482353 237.724126 
L 393.735767 237.648881 
L 393.957504 237.608262 
L 394.226756 237.532596 
L 394.891967 237.528953 
L 395.272087 237.512752 
L 395.905621 237.799545 
L 396.317418 237.813688 
L 396.713377 237.62018 
L 397.014306 237.782457 
L 397.331073 237.884512 
L 397.616163 237.960673 
L 398.170506 238.100176 
L 398.471434 238.221987 
L 398.487273 238.248062 
L 398.487273 238.248062 
" clip-path="url(#pc28b033402)" style="fill: none; stroke: #ff7f0e; stroke-width: 1.5; stroke-linecap: square"/>
   </g>
   <g id="line2d_13">
    <path d="M 73.832727 238.59696 
L 74.054464 238.694136 
L 74.434585 238.784942 
L 74.751352 238.74204 
L 75.068119 238.62513 
L 75.337371 238.474597 
L 75.765006 238.20836 
L 76.192642 238.421253 
L 76.572762 238.800924 
L 77.380518 238.927462 
L 78.473364 238.249196 
L 78.679263 238.348641 
L 79.265282 238.790395 
L 79.518696 238.863066 
L 79.787948 238.731933 
L 80.120553 238.595506 
L 80.453159 238.500221 
L 80.833279 238.287517 
L 81.260915 238.400384 
L 81.641035 238.728675 
L 81.97364 238.791224 
L 82.638851 238.655975 
L 82.93978 238.515986 
L 83.304062 238.265048 
L 83.557476 238.28759 
L 84.66616 238.834635 
L 85.458078 238.782964 
L 85.648138 238.58838 
L 85.980743 238.268626 
L 86.519247 238.524202 
L 87.057751 238.959442 
L 88.118921 238.728486 
L 88.594072 238.38065 
L 89.069222 238.61767 
L 89.591888 239.077821 
L 90.257099 238.978682 
L 90.621381 238.968822 
L 91.30243 238.254286 
L 91.476652 238.321082 
L 92.316084 239.058639 
L 92.680367 238.908585 
L 93.424769 238.567642 
L 93.678183 238.376767 
L 93.99495 238.476356 
L 94.881897 239.031953 
L 95.166988 238.875937 
L 95.768845 238.656121 
L 96.00642 238.537916 
L 96.323188 238.299137 
L 96.608278 238.47957 
L 97.416034 239.101657 
L 98.22379 238.898449 
L 98.60391 238.653256 
L 98.79397 238.590692 
L 99.126576 238.389244 
L 99.37999 238.693365 
L 99.680918 238.913385 
L 100.092715 238.907713 
L 100.456997 238.789872 
L 100.710411 238.700346 
L 101.058855 238.506402 
L 101.48649 238.186938 
L 101.644874 238.281525 
L 102.278408 238.953363 
L 102.674367 238.982521 
L 102.896104 238.921267 
L 103.228709 238.871923 
L 103.830567 238.740179 
L 104.210687 238.502344 
L 105.382725 239.232528 
L 105.937067 238.888822 
L 106.887369 238.598429 
L 107.235812 239.121144 
L 107.489226 239.351096 
L 107.710963 239.32361 
L 107.948538 239.25315 
L 108.201952 239.192303 
L 108.518719 238.99974 
L 109.18393 238.600276 
L 109.453182 238.691271 
L 109.817464 239.074418 
L 110.245099 239.437859 
L 110.466836 239.381767 
L 110.767765 239.233023 
L 110.989502 239.184609 
L 111.480491 238.894202 
L 111.876449 238.705974 
L 112.034833 238.88568 
L 112.430792 239.254604 
L 113.096003 239.355706 
L 113.365255 239.371093 
L 113.729537 239.173949 
L 114.553131 238.685323 
L 115.503432 239.274092 
L 116.279511 238.959282 
L 116.691309 238.648239 
L 117.103106 238.6638 
L 117.958377 239.195037 
L 118.306821 239.031676 
L 118.702779 238.955646 
L 119.447182 238.313665 
L 119.605565 238.34675 
L 120.571705 239.120621 
L 120.793442 239.096552 
L 121.046855 239.098021 
L 121.68039 238.669908 
L 122.076348 238.471208 
L 122.488146 238.649024 
L 122.963296 239.088728 
L 123.343417 239.13227 
L 123.913597 238.926939 
L 124.56297 238.115416 
L 125.877553 235.619436 
L 126.368542 235.253682 
L 126.891207 234.985111 
L 127.366358 234.978349 
L 128.079084 235.780287 
L 128.522558 236.023655 
L 128.807648 236.201391 
L 129.900494 235.8634 
L 130.914149 236.782866 
L 131.95948 236.556979 
L 132.482146 236.301853 
L 133.226548 237.175393 
L 134.113496 237.281927 
L 134.46194 237.005409 
L 134.84206 236.760485 
L 135.079636 236.871491 
L 136.029937 237.818502 
L 136.885208 237.680737 
L 137.518742 237.191136 
L 137.740479 237.333605 
L 138.516558 237.958222 
L 138.960032 237.826035 
L 139.451021 237.690059 
L 140.13207 237.289882 
L 140.369645 237.52267 
L 140.844796 238.035351 
L 141.969319 237.914696 
L 142.396954 237.628273 
L 142.682045 237.565012 
L 142.872105 237.740668 
L 143.394771 238.429848 
L 143.711538 238.479381 
L 144.028305 238.476095 
L 144.36091 238.410957 
L 145.279535 237.841908 
L 145.532948 238.093588 
L 145.833877 238.326914 
L 146.229836 238.479265 
L 146.847531 238.5055 
L 147.211813 238.312662 
L 147.528581 237.965523 
L 147.813671 237.865279 
L 148.035408 238.046432 
L 148.637265 238.642465 
L 149.365829 238.726319 
L 150.046879 238.306001 
L 150.300292 238.09097 
L 150.585383 238.120775 
L 151.361462 238.683113 
L 151.773259 238.71787 
L 151.979158 238.67763 
L 152.644368 238.072391 
L 153.00865 237.851645 
L 153.262064 237.852452 
L 153.911437 238.295486 
L 154.323234 238.299224 
L 154.560809 238.176773 
L 154.798384 238.136765 
L 155.083475 238.095587 
L 155.542787 237.790325 
L 155.732847 238.013769 
L 156.207998 238.645752 
L 156.47725 238.807149 
L 156.936562 238.925804 
L 157.174137 238.846284 
L 158.171953 238.145346 
L 159.011386 238.842037 
L 159.391506 238.876926 
L 159.613243 238.973359 
L 160.325969 238.379922 
L 160.61106 238.204084 
L 160.99118 238.480705 
L 161.688067 238.959413 
L 161.973158 238.945132 
L 162.733399 238.684072 
L 163.081842 238.440755 
L 163.351094 238.472066 
L 164.301396 239.199152 
L 164.570648 239.194469 
L 165.806039 238.273643 
L 166.027776 238.434066 
L 166.502927 238.845847 
L 166.978077 239.075131 
L 167.374036 238.871777 
L 168.29266 238.205713 
L 168.609427 238.330113 
L 169.052901 238.737459 
L 169.290477 239.026121 
L 169.54389 239.200737 
L 169.765627 239.183068 
L 170.272454 238.835057 
L 170.826797 238.561912 
L 172.410632 239.189452 
L 172.933298 238.80584 
L 173.281741 238.535517 
L 173.519317 238.615517 
L 174.073659 239.074171 
L 174.311234 239.20446 
L 174.802223 239.425614 
L 175.21402 239.276768 
L 176.195998 238.604072 
L 176.401897 238.891745 
L 176.65531 239.079581 
L 177.241329 239.266995 
L 177.985732 239.051266 
L 178.698458 238.495233 
L 178.888518 238.594401 
L 179.522052 239.130655 
L 179.759627 239.188449 
L 180.092233 239.318506 
L 180.345646 239.113335 
L 180.614898 238.9797 
L 180.88415 238.829007 
L 181.390978 238.468721 
L 181.596876 238.788359 
L 181.961158 239.227002 
L 182.658046 239.442498 
L 183.180712 239.201639 
L 183.719216 238.884255 
L 183.972629 238.903045 
L 184.241881 239.237458 
L 184.526972 239.528999 
L 185.160506 239.580001 
L 185.778201 239.13989 
L 186.221675 238.759972 
L 186.475089 238.74476 
L 186.696826 239.073778 
L 186.997754 239.389431 
L 187.393713 239.525044 
L 187.742157 239.636806 
L 188.122277 239.447021 
L 188.565751 239.310623 
L 189.05674 239.116447 
L 189.405184 239.721954 
L 189.626921 239.871935 
L 190.59306 239.76759 
L 191.606715 239.030237 
L 191.93932 239.35258 
L 192.366956 239.752727 
L 192.921298 239.757206 
L 193.618186 239.366643 
L 193.966629 239.168743 
L 194.25172 239.223279 
L 194.489295 239.398462 
L 194.932769 239.891205 
L 195.40792 239.950729 
L 195.661333 239.902446 
L 196.183999 239.580714 
L 196.579958 239.290845 
L 198.021248 239.903042 
L 199.129932 239.132517 
L 199.304154 239.114993 
L 199.510053 239.357088 
L 199.874335 239.828379 
L 200.080233 239.840406 
L 200.397001 239.876269 
L 200.650414 239.826067 
L 201.252272 239.405036 
L 201.695745 239.050059 
L 201.917482 239.126816 
L 202.867783 239.932099 
L 203.327096 239.913615 
L 203.548833 239.737108 
L 204.103175 239.348202 
L 204.546649 239.269205 
L 204.847578 239.56956 
L 205.148506 239.723452 
L 205.68701 239.936884 
L 205.972101 239.683779 
L 206.447251 239.513148 
L 206.732341 239.325443 
L 206.985755 239.303323 
L 207.350037 239.4765 
L 208.126116 239.915797 
L 208.506237 239.831055 
L 209.472376 239.305461 
L 209.662437 239.378015 
L 210.280132 239.871935 
L 210.612738 239.957375 
L 210.929505 240.068191 
L 211.103727 239.897632 
L 211.436332 239.621943 
L 212.22825 239.20417 
L 213.083521 239.751375 
L 213.558671 239.835084 
L 214.588164 239.092117 
L 214.825739 239.229271 
L 215.20586 239.478114 
L 216.045293 239.730578 
L 216.710503 239.24329 
L 217.058947 238.992192 
L 217.312361 239.022383 
L 218.516076 239.458205 
L 219.403023 239.061809 
L 219.593083 239.055701 
L 219.894012 238.960503 
L 220.432516 239.333936 
L 220.622576 239.348959 
L 220.860152 239.407683 
L 221.224434 239.491813 
L 221.652069 239.265541 
L 222.301442 238.986957 
L 223.093359 239.32505 
L 223.520995 239.524607 
L 223.916954 239.499783 
L 224.075337 239.431562 
L 224.851416 238.782368 
L 225.088992 238.895759 
L 225.611657 239.234826 
L 226.54612 239.271634 
L 227.243008 238.614179 
L 227.464745 238.528565 
L 227.654805 238.681687 
L 227.924057 238.850225 
L 228.17747 239.043965 
L 228.446722 239.161108 
L 228.715974 239.155465 
L 229.080257 239.223861 
L 229.254478 239.111328 
L 229.808821 238.625014 
L 230.268133 238.590285 
L 230.885829 239.050422 
L 231.756938 238.985226 
L 232.327119 238.5556 
L 232.770593 238.42979 
L 233.071521 238.685032 
L 233.356612 238.913472 
L 233.578349 239.038657 
L 233.768409 239.060093 
L 233.974307 239.092975 
L 234.180206 239.089223 
L 235.336406 238.63627 
L 235.795718 239.060937 
L 236.175838 239.30882 
L 236.714342 239.319902 
L 237.823027 238.608827 
L 238.171471 239.047572 
L 238.440723 239.22898 
L 239.216802 239.378539 
L 240.547224 238.656281 
L 241.671747 239.404963 
L 242.384472 238.932145 
L 242.8913 238.630191 
L 243.097198 238.839841 
L 243.413965 239.052778 
L 243.667379 239.215542 
L 244.047499 239.371791 
L 244.364266 239.258255 
L 245.647173 238.690602 
L 246.660828 239.419361 
L 246.898403 239.389344 
L 247.912057 238.682807 
L 248.482238 238.821779 
L 249.194964 239.330125 
L 249.923528 239.083725 
L 250.414517 238.696957 
L 250.762961 238.655641 
L 251.380657 239.032811 
L 251.665747 239.197145 
L 252.125059 239.133651 
L 252.346796 239.025627 
L 252.50518 238.911407 
L 252.79027 238.720066 
L 253.059522 238.734129 
L 253.962308 239.223875 
L 254.500812 239.378437 
L 254.738387 239.383745 
L 254.928447 239.310231 
L 255.514467 238.900427 
L 256.179677 239.076294 
L 256.686505 239.350675 
L 256.92408 239.421862 
L 257.351715 239.309765 
L 257.969411 238.901939 
L 258.476238 238.890334 
L 258.824682 239.018806 
L 259.695792 239.528607 
L 259.949205 239.334808 
L 260.471871 238.964852 
L 260.899506 238.915348 
L 261.137082 238.956199 
L 262.21409 239.642565 
L 262.49918 239.503375 
L 263.037684 239.040984 
L 263.465319 238.782455 
L 264.969963 239.267736 
L 265.223376 239.126118 
L 265.619335 238.867051 
L 266.078647 238.731802 
L 266.870565 239.050102 
L 267.155655 239.270892 
L 267.472422 239.328089 
L 268.200987 238.917704 
L 268.691976 238.884284 
L 269.642277 239.3392 
L 270.291649 239.30882 
L 270.560901 239.103431 
L 271.05189 238.828498 
L 272.049706 239.076338 
L 272.604049 239.475554 
L 273.110876 239.333485 
L 273.617703 238.874046 
L 273.950309 239.078461 
L 274.932286 239.621638 
L 275.454952 239.616388 
L 275.961779 239.050858 
L 276.15184 239.033422 
L 276.516122 239.087463 
L 276.690344 239.196404 
L 276.959596 239.323334 
L 277.403069 239.43911 
L 277.87822 239.530599 
L 278.147472 239.330067 
L 278.527592 238.820397 
L 278.701814 238.824019 
L 278.955228 238.892283 
L 279.145288 238.969942 
L 279.477894 239.101293 
L 279.747146 239.159436 
L 280.095589 239.255433 
L 280.602417 239.266937 
L 281.030052 238.929382 
L 281.235951 238.937279 
L 282.851463 239.365625 
L 283.089038 239.284025 
L 283.849279 238.691795 
L 284.134369 238.705261 
L 284.720388 238.837645 
L 285.480629 239.098515 
L 286.019133 238.711253 
L 286.320062 238.493561 
L 286.731859 238.459298 
L 287.856382 239.040126 
L 288.363209 239.091186 
L 288.569108 238.951269 
L 288.917552 238.63419 
L 289.376864 238.744862 
L 290.137105 239.123631 
L 291.039891 238.978057 
L 291.372496 238.749588 
L 291.863485 238.773511 
L 293.241422 239.083696 
L 294.017501 238.672482 
L 294.429298 238.763695 
L 294.69855 238.917558 
L 295.015317 239.076279 
L 295.252892 239.061184 
L 297.01095 238.517338 
L 297.501938 238.673965 
L 298.325533 238.981271 
L 298.864037 238.618484 
L 299.164965 238.387194 
L 301.002214 239.01613 
L 301.461527 238.750635 
L 301.667425 238.600713 
L 302.237606 238.68685 
L 302.506858 238.66809 
L 303.203745 239.019373 
L 303.441321 238.948927 
L 304.550005 238.446296 
L 304.724227 238.381522 
L 304.914287 238.394814 
L 306.070487 238.898536 
L 306.656506 238.611125 
L 307.068303 238.484777 
L 307.29004 238.597048 
L 307.575131 238.680029 
L 307.844383 238.76272 
L 308.35121 239.051731 
L 308.889714 238.86596 
L 309.428218 238.647424 
L 309.634116 238.723062 
L 309.998398 238.784927 
L 310.869508 238.992047 
L 311.202113 239.198047 
L 311.439688 238.991916 
L 311.946516 238.659495 
L 312.120738 238.691795 
L 312.405828 238.796692 
L 312.706757 238.913646 
L 312.912655 238.937453 
L 313.134392 238.919318 
L 313.83128 239.096407 
L 314.670712 238.767592 
L 315.193378 238.957333 
L 315.446792 238.963645 
L 315.65269 239.06005 
L 316.080326 239.293419 
L 316.507961 239.263155 
L 316.935597 238.891439 
L 318.376887 239.215877 
L 318.646139 239.46392 
L 319.010421 239.470203 
L 319.343026 239.239901 
L 319.802338 238.905939 
L 320.562579 239.113524 
L 320.784316 239.17696 
L 321.085245 239.504669 
L 321.32282 239.613464 
L 321.845486 239.343127 
L 322.225606 239.102398 
L 322.716595 239.187489 
L 322.970009 239.252815 
L 323.413483 239.121217 
L 323.999502 239.414082 
L 324.332107 239.302712 
L 324.553844 239.135004 
L 324.854773 238.885971 
L 325.234893 239.063467 
L 325.567499 238.996977 
L 326.929597 239.043514 
L 327.388909 238.713042 
L 327.674 238.864986 
L 328.05412 239.00006 
L 328.671816 238.968109 
L 328.893553 239.079173 
L 329.11529 239.136661 
L 329.68547 238.808589 
L 329.954722 238.553099 
L 330.619933 238.703749 
L 330.889185 238.744062 
L 331.570234 238.940274 
L 331.80781 239.019882 
L 332.140415 238.86532 
L 332.631404 238.571569 
L 333.201585 238.706265 
L 333.835119 238.906884 
L 334.151886 239.051644 
L 334.500329 239.16137 
L 334.88045 238.876431 
L 335.197217 238.732035 
L 336.543477 238.919551 
L 337.018627 238.942223 
L 337.303718 238.785611 
L 337.683838 238.557069 
L 338.475756 238.81077 
L 338.760846 238.787981 
L 339.267673 238.830141 
L 339.901208 238.753326 
L 340.297166 238.535517 
L 342.451182 238.902972 
L 342.894656 238.716837 
L 343.844957 238.665908 
L 344.082533 238.74172 
L 344.58936 238.992949 
L 345.460469 238.56754 
L 345.856428 238.59667 
L 346.141518 238.672598 
L 347.313556 238.872824 
L 348.232181 238.902274 
L 348.422241 238.841165 
L 348.834038 238.679491 
L 349.356704 238.855722 
L 349.958561 238.774195 
L 350.275328 238.883208 
L 350.734641 238.644937 
L 351.035569 238.546671 
L 351.288983 238.425238 
L 351.684942 238.455982 
L 351.98587 238.540083 
L 352.587728 238.813722 
L 353.458837 238.524915 
L 353.854796 238.302249 
L 354.171563 238.48261 
L 354.710067 238.960998 
L 355.359439 239.008175 
L 355.723722 238.865524 
L 356.056327 238.512626 
L 356.499801 238.129159 
L 356.832406 238.284507 
L 357.37091 238.846385 
L 358.067798 238.735772 
L 358.954745 238.196726 
L 359.160644 238.058212 
L 359.382381 237.951576 
L 360.015915 237.949584 
L 360.364359 237.766278 
L 360.823671 238.075933 
L 361.108761 238.295181 
L 361.441367 238.181819 
L 362.328314 238.105142 
L 362.882657 238.108581 
L 363.088555 238.198107 
L 363.896311 238.345645 
L 364.213078 238.22587 
L 364.48233 238.172483 
L 364.973319 238.393869 
L 365.163379 238.302583 
L 365.480147 238.214526 
L 365.907782 238.440741 
L 366.224549 238.501254 
L 366.683861 238.502723 
L 367.063982 238.288826 
L 367.570809 238.583465 
L 368.315212 238.652412 
L 368.568625 238.64898 
L 369.217998 238.690166 
L 369.788178 238.409794 
L 370.184137 238.441003 
L 370.405874 238.324049 
L 370.643449 238.260045 
L 371.783811 238.619487 
L 372.17977 238.403191 
L 372.401506 238.395265 
L 372.591567 238.461304 
L 372.955849 238.548954 
L 373.446838 238.653576 
L 374.032857 238.961754 
L 374.603037 238.774587 
L 374.903966 238.691009 
L 375.204895 238.739583 
L 375.949297 238.907262 
L 376.202711 238.97144 
L 376.820407 238.993938 
L 377.311396 238.714045 
L 377.612324 238.805287 
L 377.913253 238.940289 
L 378.483434 238.828134 
L 378.831878 238.985125 
L 379.57628 238.879194 
L 379.76634 238.83065 
L 380.193976 239.039806 
L 381.952033 239.015272 
L 382.45886 238.767374 
L 382.664759 238.959515 
L 382.854819 239.014647 
L 383.488353 238.701727 
L 384.581199 239.117116 
L 385.119703 238.883499 
L 385.579016 238.782775 
L 385.848268 238.716081 
L 386.085843 238.885186 
L 386.465963 239.093222 
L 386.956952 239.1857 
L 387.210366 239.112724 
L 387.447941 239.018311 
L 387.907253 239.204606 
L 388.730848 239.034774 
L 389.079291 239.253804 
L 389.554442 239.211383 
L 389.728664 239.181919 
L 390.187976 238.957726 
L 390.647288 239.010095 
L 390.869025 239.109772 
L 391.059085 239.063307 
L 391.360014 239.061504 
L 392.056902 239.123486 
L 392.373669 238.926997 
L 392.674597 238.914737 
L 393.244778 239.041827 
L 393.624899 238.971891 
L 394.48017 239.276142 
L 395.588854 239.022762 
L 396.887599 239.097061 
L 397.156851 239.027372 
L 397.426103 239.026863 
L 397.600325 239.007797 
L 397.93293 238.920278 
L 398.487273 238.914475 
L 398.487273 238.914475 
" clip-path="url(#pc28b033402)" style="fill: none; stroke: #2ca02c; stroke-width: 1.5; stroke-linecap: square"/>
   </g>
   <g id="line2d_14">
    <path d="M 73.832727 240.620777 
L 74.276201 240.536778 
L 74.592968 240.575636 
L 74.973089 240.510644 
L 75.337371 240.793809 
L 75.622461 240.965909 
L 75.92339 240.848708 
L 76.762822 240.399449 
L 78.52088 240.686657 
L 78.837647 240.574633 
L 79.328636 240.430164 
L 79.708756 240.54514 
L 80.136391 240.411549 
L 80.833279 240.636033 
L 81.419298 240.485587 
L 81.530166 240.328873 
L 81.625197 239.56095 
L 81.799418 235.218888 
L 82.084509 230.019225 
L 82.892265 222.757912 
L 83.985111 215.364585 
L 84.745352 211.051064 
L 85.82236 205.909877 
L 87.738801 198.25147 
L 88.499042 196.466971 
L 89.370151 194.139317 
L 89.892817 193.183202 
L 91.144046 191.234703 
L 91.429137 190.752308 
L 91.856772 189.920753 
L 92.189378 189.600061 
L 92.426953 189.377344 
L 93.044649 188.630108 
L 93.361416 188.356171 
L 93.852405 188.222071 
L 94.074142 187.878496 
L 94.485939 187.322354 
L 95.119473 187.180845 
L 95.372886 187.105156 
L 95.927229 186.837502 
L 96.339026 186.606037 
L 96.513248 186.44504 
L 96.940883 185.975087 
L 97.907023 185.577368 
L 98.461365 185.021939 
L 98.714779 184.912431 
L 99.047384 184.952831 
L 100.219422 184.288119 
L 100.583704 184.09099 
L 100.932148 183.887288 
L 101.169723 183.802503 
L 101.407299 183.748542 
L 101.581521 183.667712 
L 102.611013 182.605522 
L 102.975296 182.547009 
L 103.434608 182.03451 
L 103.656345 182.005373 
L 103.973112 181.940629 
L 104.654161 182.009584 
L 105.33521 181.497071 
L 106.095451 181.29952 
L 106.301349 181.300167 
L 107.283327 180.68978 
L 107.568418 180.330157 
L 108.170275 180.211988 
L 108.50288 179.980677 
L 108.851324 180.199053 
L 109.104738 180.26275 
L 109.405667 180.069228 
L 110.435159 179.15984 
L 111.00534 179.138622 
L 111.353784 179.20693 
L 111.591359 179.403353 
L 111.813096 179.486917 
L 112.16154 179.125439 
L 113.365255 177.725628 
L 114.537293 176.974884 
L 115.091635 176.601561 
L 115.265857 176.515187 
L 115.487594 176.427348 
L 115.772684 176.554689 
L 116.39038 175.944495 
L 116.944722 175.107876 
L 117.293166 174.775487 
L 117.863347 173.967779 
L 118.02173 173.931116 
L 118.227629 173.414364 
L 118.576073 172.822934 
L 118.908678 172.597712 
L 118.940355 172.637803 
L 119.46302 173.307219 
L 119.589727 173.201111 
L 120.2391 172.250504 
L 120.33413 172.377118 
L 120.761765 173.174126 
L 121.363623 173.417022 
L 121.807096 173.045098 
L 121.981318 172.791049 
L 122.25057 172.494625 
L 122.393115 172.379489 
L 122.773236 171.890451 
L 122.994973 171.741361 
L 123.295902 171.142085 
L 123.612669 169.752815 
L 124.071981 167.270497 
L 124.167011 161.820452 
L 124.277879 138.777618 
L 124.578808 54.994919 
L 124.626323 56.528771 
L 124.800545 76.302271 
L 125.671654 180.621334 
L 125.988421 191.291544 
L 126.400219 197.472757 
L 126.922884 201.871413 
L 127.413873 204.426896 
L 127.984054 205.987035 
L 128.855163 207.960548 
L 129.187769 208.386247 
L 129.647081 208.98492 
L 130.359807 209.072184 
L 131.135886 209.107334 
L 131.896127 208.637883 
L 132.181217 208.58579 
L 132.355439 208.377667 
L 133.179033 207.103048 
L 133.479962 206.823999 
L 134.018466 205.921475 
L 134.477778 205.218727 
L 134.952929 204.685119 
L 135.285534 204.060713 
L 135.919068 202.938475 
L 136.219997 202.630377 
L 137.011915 201.476232 
L 137.24949 201.317918 
L 137.708802 200.625778 
L 138.532396 199.285724 
L 138.754133 198.985283 
L 139.150092 198.232739 
L 139.641081 197.462933 
L 139.910333 197.151214 
L 140.528029 196.244632 
L 141.082371 195.373717 
L 141.462492 194.918183 
L 143.093842 192.579193 
L 143.426447 192.076125 
L 143.933275 191.651 
L 144.313395 191.214168 
L 144.772707 190.554772 
L 145.770523 189.471487 
L 146.08729 189.169351 
L 146.467411 189.025639 
L 146.942561 188.504036 
L 147.195975 188.351249 
L 147.465227 188.147852 
L 147.813671 187.887142 
L 148.431367 187.360078 
L 148.716457 187.064712 
L 149.112416 186.715778 
L 149.318314 186.560627 
L 149.920172 186.006681 
L 150.981341 185.358199 
L 151.345623 185.190084 
L 151.773259 185.211782 
L 152.074188 185.144172 
L 152.24841 185.05879 
L 152.771075 184.581849 
L 154.022305 183.901017 
L 154.275719 183.915138 
L 157.332521 181.654039 
L 157.617611 181.425607 
L 158.346175 180.781437 
L 159.407345 179.719799 
L 159.676597 179.359259 
L 159.882495 179.272947 
L 160.579383 178.728745 
L 161.307947 178.651537 
L 161.561361 178.743673 
L 161.830613 178.507112 
L 162.131541 178.205136 
L 162.369117 178.255476 
L 162.638369 178.194098 
L 163.366933 177.827632 
L 163.652023 177.758153 
L 163.96879 177.521751 
L 164.586486 177.08938 
L 165.156667 176.610963 
L 165.41008 176.52584 
L 166.091129 175.832773 
L 166.85137 175.48522 
L 167.358198 175.653405 
L 167.579935 175.526878 
L 167.595773 175.544413 
L 167.849187 175.692063 
L 168.466882 175.333781 
L 168.704458 175.231363 
L 169.179608 174.778229 
L 169.528052 174.92746 
L 169.749789 174.977466 
L 170.319969 174.737407 
L 170.620898 174.62254 
L 171.016857 174.507164 
L 171.365301 174.259626 
L 171.76126 174.190074 
L 172.030512 174.401222 
L 172.410632 174.170936 
L 172.632369 173.860965 
L 172.933298 173.582916 
L 173.360933 173.312931 
L 173.471802 173.163038 
L 174.026144 172.032932 
L 174.216204 171.758362 
L 174.913092 170.39817 
L 175.11899 170.36114 
L 175.277374 169.969514 
L 175.578302 169.065969 
L 175.609979 169.085543 
L 176.100968 169.388388 
L 176.338543 169.202192 
L 176.702825 168.519138 
L 177.209653 167.07483 
L 177.304683 165.690405 
L 177.399713 159.617358 
L 177.52642 130.445782 
L 177.81151 55.148303 
L 177.843187 55.527163 
L 177.954055 63.728634 
L 178.492559 129.901587 
L 178.936033 173.319988 
L 179.268639 186.836782 
L 179.648759 194.076244 
L 180.108071 199.083338 
L 180.773282 203.391668 
L 181.264271 205.675955 
L 181.85029 207.272786 
L 182.737238 209.261198 
L 183.703377 210.153753 
L 184.590325 209.969589 
L 184.891254 209.886469 
L 185.176344 209.760215 
L 186.142483 208.94577 
L 186.380059 208.736622 
L 187.04527 208.153699 
L 187.346198 208.01925 
L 187.757995 207.40506 
L 188.138116 206.747489 
L 189.864496 205.338895 
L 190.038718 205.18061 
L 192.414471 201.769991 
L 192.7154 201.455137 
L 193.586509 199.982299 
L 195.423758 197.722335 
L 196.088969 196.882461 
L 197.023431 195.932673 
L 197.482744 195.407856 
L 197.878702 195.212415 
L 198.322176 194.668074 
L 199.589245 193.029084 
L 200.587061 192.273247 
L 201.093888 191.60868 
L 201.489847 191.28881 
L 202.107543 190.773054 
L 202.487663 190.362202 
L 202.962814 190.081779 
L 204.720871 187.928262 
L 205.813717 187.029824 
L 206.478928 186.171583 
L 207.397552 185.576495 
L 208.442883 184.396398 
L 209.171448 183.863758 
L 209.836658 183.667356 
L 211.689746 182.09378 
L 212.054028 181.892746 
L 214.033822 181.360193 
L 214.524811 181.358586 
L 214.667356 181.289791 
L 214.984123 181.059061 
L 215.332567 181.130808 
L 215.728526 181.171463 
L 215.966101 180.866804 
L 216.425413 180.217646 
L 218.579429 178.416829 
L 219.450538 177.36636 
L 219.767305 177.151766 
L 220.036557 176.956825 
L 220.353324 176.991659 
L 221.16108 177.20087 
L 221.588716 176.558761 
L 222.12722 175.915984 
L 222.269765 175.866494 
L 222.586532 175.592288 
L 223.47348 176.03156 
L 225.0098 174.887227 
L 225.374082 174.624394 
L 225.738364 174.671771 
L 226.878726 172.439314 
L 227.211331 172.350527 
L 227.575613 171.9568 
L 228.193309 171.093498 
L 228.462561 170.796161 
L 228.731813 169.894299 
L 229.096095 167.575327 
L 229.191125 165.765508 
L 229.286155 158.143869 
L 229.4287 118.687121 
L 229.682114 54.60117 
L 229.697952 54.75451 
L 229.792982 61.104552 
L 230.252295 118.237557 
L 230.77496 174.189042 
L 231.107566 187.912024 
L 231.487686 195.1082 
L 231.978675 200.047771 
L 232.517179 203.698748 
L 233.150713 206.528655 
L 233.673379 208.398638 
L 234.085176 209.14231 
L 234.43362 209.500814 
L 234.81374 209.860452 
L 235.273052 210.157476 
L 235.669011 210.398335 
L 236.270868 210.869866 
L 236.746019 210.553486 
L 237.252846 210.23131 
L 237.537937 210.340505 
L 237.870542 210.179785 
L 238.377369 209.886789 
L 238.694136 209.967713 
L 239.058418 209.493688 
L 239.359347 209.045033 
L 239.945366 208.16489 
L 240.230457 207.824114 
L 240.594739 207.473572 
L 241.275788 206.955634 
L 241.592555 206.454465 
L 242.622048 205.157661 
L 242.875461 204.792787 
L 243.794086 203.72715 
L 244.126691 203.391275 
L 245.330406 201.5625 
L 246.391576 200.596969 
L 246.629151 200.406646 
L 247.452745 199.218521 
L 248.909874 197.605686 
L 249.226641 197.366289 
L 250.889668 195.2928 
L 252.061706 194.142815 
L 252.996168 193.095778 
L 253.17039 193.02499 
L 253.85144 192.436083 
L 254.089015 192.415643 
L 254.532489 192.093126 
L 255.910425 190.668512 
L 256.084647 190.687047 
L 256.274707 190.694609 
L 258.682137 188.394725 
L 259.42654 188.400644 
L 259.965044 187.954475 
L 260.519386 187.535364 
L 260.978698 187.288186 
L 261.263788 187.084025 
L 261.944838 186.813964 
L 262.59421 186.354423 
L 262.800109 186.127329 
L 263.180229 185.611827 
L 263.528673 185.410757 
L 264.051338 185.043317 
L 264.32059 185.178158 
L 266.601313 183.524 
L 266.82305 183.55691 
L 267.314039 183.377495 
L 267.694159 183.054301 
L 268.153472 182.926905 
L 268.438562 182.978758 
L 268.644461 183.07794 
L 269.119611 183.01614 
L 269.388863 183.218345 
L 269.547247 183.19677 
L 270.022397 182.975086 
L 270.497548 182.743243 
L 270.782638 182.609928 
L 271.004375 182.47513 
L 271.606232 181.878909 
L 271.970515 181.912786 
L 272.255605 181.682732 
L 272.572372 181.489246 
L 273.74441 180.811388 
L 274.362106 180.797725 
L 274.663034 180.842786 
L 274.884771 180.638786 
L 275.359922 180.083626 
L 275.945941 179.53954 
L 276.389415 179.327352 
L 277.102141 179.515297 
L 277.371393 179.657083 
L 277.78319 179.118465 
L 278.099957 178.769749 
L 278.796844 178.286285 
L 279.351187 178.154003 
L 279.715469 178.44132 
L 279.921367 178.29336 
L 280.428195 177.752736 
L 281.362657 178.044066 
L 281.901161 177.880001 
L 282.376312 178.268012 
L 282.423827 178.204547 
L 282.677241 178.034839 
L 282.914816 178.086328 
L 283.136553 178.074286 
L 283.326613 177.882153 
L 283.706734 177.275824 
L 283.722572 177.284738 
L 284.150207 177.461769 
L 284.403621 177.423543 
L 284.736227 177.432312 
L 285.306407 177.300088 
L 285.591498 177.235642 
L 286.351738 176.46681 
L 286.874404 176.622125 
L 287.048626 176.803638 
L 287.254525 176.926005 
L 287.571292 176.959145 
L 287.77719 176.938494 
L 288.489916 176.713407 
L 288.711653 176.563044 
L 288.917552 176.513304 
L 289.107612 176.435248 
L 289.741146 175.988578 
L 290.137105 176.227474 
L 290.865669 176.018849 
L 292.592049 173.870614 
L 293.019685 173.186295 
L 293.336452 172.912816 
L 293.669057 172.169726 
L 294.492652 169.796101 
L 294.936125 167.602933 
L 295.031156 162.134335 
L 295.157862 134.012767 
L 295.458791 53.568 
L 295.490468 54.332229 
L 295.633013 66.755721 
L 296.773374 182.724308 
L 297.153495 192.509183 
L 297.612807 198.750815 
L 298.072119 202.253476 
L 298.705653 205.561437 
L 299.655954 208.638712 
L 300.051913 209.775122 
L 300.432034 210.651338 
L 301.192275 211.483823 
L 301.841647 211.780935 
L 302.063384 211.818601 
L 302.285121 211.863844 
L 302.68108 212.033494 
L 303.377967 211.794881 
L 304.233238 210.839988 
L 304.59752 210.537445 
L 304.850934 210.471021 
L 305.341923 210.324181 
L 305.642852 210.046339 
L 306.03881 209.603225 
L 306.593153 208.528004 
L 306.973273 207.988463 
L 307.400909 207.54036 
L 307.685999 207.438371 
L 308.097796 207.201605 
L 310.251812 204.157605 
L 310.552741 204.05054 
L 312.279121 201.062596 
L 312.896817 200.715973 
L 313.181907 200.481018 
L 313.910471 199.471917 
L 314.195562 198.923519 
L 314.607359 198.162664 
L 314.955803 197.828789 
L 315.383438 197.749101 
L 315.684367 197.672242 
L 317.616646 194.995231 
L 317.87006 194.924691 
L 318.202665 194.908679 
L 318.408563 194.69431 
L 319.089613 193.90253 
L 319.152966 194.081487 
L 319.247996 195.209201 
L 319.834015 204.886036 
L 320.895185 212.820816 
L 321.655426 216.74517 
L 322.47902 219.694402 
L 323.080877 222.179679 
L 323.777765 224.628512 
L 324.522167 226.333389 
L 325.504145 228.502046 
L 326.042649 229.920806 
L 326.486123 230.59721 
L 327.103819 231.393237 
L 327.86406 232.459754 
L 329.02026 234.533882 
L 329.970561 235.084476 
L 330.398196 235.574047 
L 331.205952 236.666007 
L 331.934516 237.200953 
L 333.217423 237.681849 
L 333.945987 238.536767 
L 334.310269 238.569082 
L 335.783236 239.179985 
L 336.353417 239.859356 
L 336.781052 239.997135 
L 337.002789 240.062563 
L 337.794707 239.75392 
L 338.063959 239.863253 
L 338.349049 240.10993 
L 338.887553 240.654604 
L 339.235997 240.669074 
L 340.059591 240.62466 
L 340.344681 240.571942 
L 340.598095 240.608503 
L 340.788155 240.671634 
L 341.231629 241.2255 
L 341.580073 241.550955 
L 342.039385 241.588199 
L 342.767949 241.127437 
L 343.353968 241.366638 
L 343.765766 241.812407 
L 344.351785 241.942813 
L 345.159541 241.789807 
L 345.349601 241.795363 
L 345.555499 241.798577 
L 345.872266 241.701387 
L 346.094003 241.952193 
L 346.426609 242.229613 
L 347.139335 242.331428 
L 348.279696 242.019105 
L 348.53311 242.231736 
L 348.8182 242.427542 
L 349.641794 242.676356 
L 349.990238 242.594436 
L 350.243652 242.443219 
L 350.702964 242.178655 
L 350.988054 242.271119 
L 351.32066 242.592429 
L 352.365991 242.860658 
L 352.651081 242.667456 
L 353.347969 242.155474 
L 353.506352 242.280048 
L 354.029018 242.835717 
L 354.58336 243.056362 
L 355.026834 242.718778 
L 355.343601 242.36876 
L 355.802913 241.818151 
L 356.388932 241.978952 
L 356.642346 242.183061 
L 357.861899 242.11106 
L 358.606302 241.852211 
L 359.128967 242.493697 
L 359.382381 242.650891 
L 360.031753 242.513374 
L 360.506904 242.537457 
L 360.934539 242.20998 
L 361.140438 242.24865 
L 361.568074 242.576606 
L 361.979871 242.855379 
L 362.169931 242.897103 
L 362.391668 242.92645 
L 363.91215 242.493625 
L 364.545684 242.932573 
L 364.989158 242.846362 
L 365.73356 242.671979 
L 366.145357 242.461834 
L 366.668023 242.752168 
L 367.016467 243.012151 
L 367.966768 242.907224 
L 368.774524 242.470167 
L 369.122968 242.652709 
L 369.408058 242.866024 
L 369.851532 243.184906 
L 370.690964 242.845577 
L 371.419529 242.32865 
L 371.657104 242.309192 
L 371.878841 242.565583 
L 372.132254 242.754888 
L 372.449022 242.591818 
L 372.734112 242.536134 
L 372.955849 242.504997 
L 373.256778 242.353591 
L 374.017018 242.246527 
L 374.19124 242.372584 
L 374.761421 242.875317 
L 375.410793 243.05847 
L 375.996812 242.613836 
L 376.566993 242.457777 
L 376.962952 242.724871 
L 377.390587 242.930159 
L 378.277535 242.74638 
L 379.116968 242.505681 
L 379.338705 242.589899 
L 380.003916 243.02031 
L 380.574096 243.021124 
L 380.92254 242.89735 
L 381.461044 242.669725 
L 382.934011 243.266172 
L 383.662575 243.050297 
L 384.09021 242.757302 
L 384.628714 242.921084 
L 385.404794 243.479327 
L 385.626531 243.340486 
L 386.149196 242.952744 
L 386.513478 242.627696 
L 386.893599 242.869791 
L 387.954768 243.461047 
L 388.287374 243.482672 
L 388.746686 243.240896 
L 389.09513 242.935292 
L 389.47525 242.905217 
L 390.061269 243.382559 
L 390.409713 243.389306 
L 390.82151 243.43167 
L 391.059085 243.379621 
L 391.930195 242.981829 
L 392.722112 243.568824 
L 393.846636 243.627214 
L 394.147564 243.447958 
L 394.48017 243.418116 
L 394.717745 243.529107 
L 395.272087 244.011044 
L 396.20655 243.858722 
L 396.982629 243.288742 
L 397.188528 243.380523 
L 397.55281 243.705294 
L 397.885415 243.965946 
L 398.408081 244.238989 
L 398.487273 244.387646 
L 398.487273 244.387646 
" clip-path="url(#pc28b033402)" style="fill: none; stroke: #d62728; stroke-width: 1.5; stroke-linecap: square"/>
   </g>
   <g id="patch_3">
    <path d="M 57.6 307.584 
L 57.6 41.472 
" style="fill: none; stroke: #000000; stroke-width: 0.8; stroke-linejoin: miter; stroke-linecap: square"/>
   </g>
   <g id="patch_4">
    <path d="M 414.72 307.584 
L 414.72 41.472 
" style="fill: none; stroke: #000000; stroke-width: 0.8; stroke-linejoin: miter; stroke-linecap: square"/>
   </g>
   <g id="patch_5">
    <path d="M 57.6 307.584 
L 414.72 307.584 
" style="fill: none; stroke: #000000; stroke-width: 0.8; stroke-linejoin: miter; stroke-linecap: square"/>
   </g>
   <g id="patch_6">
    <path d="M 57.6 41.472 
L 414.72 41.472 
" style="fill: none; stroke: #000000; stroke-width: 0.8; stroke-linejoin: miter; stroke-linecap: square"/>
   </g>
  </g>
 </g>
 <defs>
  <clipPath id="pc28b033402">
   <rect x="57.6" y="41.472" width="357.12" height="266.112"/>
  </clipPath>
 </defs>
</svg>
