<?xml version="1.0" encoding="utf-8" standalone="no"?>
<!DOCTYPE svg PUBLIC "-//W3C//DTD SVG 1.1//EN"
  "http://www.w3.org/Graphics/SVG/1.1/DTD/svg11.dtd">
<svg height="345.6pt" version="1.1" viewBox="0 0 460.8 345.6" width="460.8pt" xmlns="http://www.w3.org/2000/svg" xmlns:xlink="http://www.w3.org/1999/xlink">
 <metadata>
  <rdf:RDF xmlns:cc="http://creativecommons.org/ns#" xmlns:dc="http://purl.org/dc/elements/1.1/" xmlns:rdf="http://www.w3.org/1999/02/22-rdf-syntax-ns#">
   <cc:Work>
    <dc:type rdf:resource="http://purl.org/dc/dcmitype/StillImage"/>
    <dc:date>2024-08-06T14:41:01.711104</dc:date>
    <dc:format>image/svg+xml</dc:format>
    <dc:creator>
     <cc:Agent>
      <dc:title>Matplotlib v3.4.2, https://matplotlib.org/</dc:title>
     </cc:Agent>
    </dc:creator>
   </cc:Work>
  </rdf:RDF>
 </metadata>
 <defs>
  <style type="text/css">*{stroke-linecap:butt;stroke-linejoin:round;}</style>
 </defs>
 <g id="figure_1">
  <g id="patch_1">
   <path d="M 0 345.6 
L 460.8 345.6 
L 460.8 0 
L 0 0 
z
" style="fill:#ffffff;"/>
  </g>
  <g id="axes_1">
   <g id="patch_2">
    <path d="M 57.6 307.584 
L 414.72 307.584 
L 414.72 41.472 
L 57.6 41.472 
z
" style="fill:#ffffff;"/>
   </g>
   <g id="matplotlib.axis_1">
    <g id="xtick_1">
     <g id="line2d_1">
      <defs>
       <path d="M 0 0 
L 0 3.5 
" id="maacb842394" style="stroke:#000000;stroke-width:0.8;"/>
      </defs>
      <g>
       <use style="stroke:#000000;stroke-width:0.8;" x="95.211629" xlink:href="#maacb842394" y="307.584"/>
      </g>
     </g>
     <g id="text_1">
      <!-- 0.2 -->
      <g transform="translate(87.260067 322.182437)scale(0.1 -0.1)">
       <defs>
        <path d="M 2034 4250 
Q 1547 4250 1301 3770 
Q 1056 3291 1056 2328 
Q 1056 1369 1301 889 
Q 1547 409 2034 409 
Q 2525 409 2770 889 
Q 3016 1369 3016 2328 
Q 3016 3291 2770 3770 
Q 2525 4250 2034 4250 
z
M 2034 4750 
Q 2819 4750 3233 4129 
Q 3647 3509 3647 2328 
Q 3647 1150 3233 529 
Q 2819 -91 2034 -91 
Q 1250 -91 836 529 
Q 422 1150 422 2328 
Q 422 3509 836 4129 
Q 1250 4750 2034 4750 
z
" id="DejaVuSans-30" transform="scale(0.015625)"/>
        <path d="M 684 794 
L 1344 794 
L 1344 0 
L 684 0 
L 684 794 
z
" id="DejaVuSans-2e" transform="scale(0.015625)"/>
        <path d="M 1228 531 
L 3431 531 
L 3431 0 
L 469 0 
L 469 531 
Q 828 903 1448 1529 
Q 2069 2156 2228 2338 
Q 2531 2678 2651 2914 
Q 2772 3150 2772 3378 
Q 2772 3750 2511 3984 
Q 2250 4219 1831 4219 
Q 1534 4219 1204 4116 
Q 875 4013 500 3803 
L 500 4441 
Q 881 4594 1212 4672 
Q 1544 4750 1819 4750 
Q 2544 4750 2975 4387 
Q 3406 4025 3406 3419 
Q 3406 3131 3298 2873 
Q 3191 2616 2906 2266 
Q 2828 2175 2409 1742 
Q 1991 1309 1228 531 
z
" id="DejaVuSans-32" transform="scale(0.015625)"/>
       </defs>
       <use xlink:href="#DejaVuSans-30"/>
       <use x="63.623047" xlink:href="#DejaVuSans-2e"/>
       <use x="95.410156" xlink:href="#DejaVuSans-32"/>
      </g>
     </g>
    </g>
    <g id="xtick_2">
     <g id="line2d_2">
      <g>
       <use style="stroke:#000000;stroke-width:0.8;" x="139.20545" xlink:href="#maacb842394" y="307.584"/>
      </g>
     </g>
     <g id="text_2">
      <!-- 0.4 -->
      <g transform="translate(131.253887 322.182437)scale(0.1 -0.1)">
       <defs>
        <path d="M 2419 4116 
L 825 1625 
L 2419 1625 
L 2419 4116 
z
M 2253 4666 
L 3047 4666 
L 3047 1625 
L 3713 1625 
L 3713 1100 
L 3047 1100 
L 3047 0 
L 2419 0 
L 2419 1100 
L 313 1100 
L 313 1709 
L 2253 4666 
z
" id="DejaVuSans-34" transform="scale(0.015625)"/>
       </defs>
       <use xlink:href="#DejaVuSans-30"/>
       <use x="63.623047" xlink:href="#DejaVuSans-2e"/>
       <use x="95.410156" xlink:href="#DejaVuSans-34"/>
      </g>
     </g>
    </g>
    <g id="xtick_3">
     <g id="line2d_3">
      <g>
       <use style="stroke:#000000;stroke-width:0.8;" x="183.19927" xlink:href="#maacb842394" y="307.584"/>
      </g>
     </g>
     <g id="text_3">
      <!-- 0.6 -->
      <g transform="translate(175.247707 322.182437)scale(0.1 -0.1)">
       <defs>
        <path d="M 2113 2584 
Q 1688 2584 1439 2293 
Q 1191 2003 1191 1497 
Q 1191 994 1439 701 
Q 1688 409 2113 409 
Q 2538 409 2786 701 
Q 3034 994 3034 1497 
Q 3034 2003 2786 2293 
Q 2538 2584 2113 2584 
z
M 3366 4563 
L 3366 3988 
Q 3128 4100 2886 4159 
Q 2644 4219 2406 4219 
Q 1781 4219 1451 3797 
Q 1122 3375 1075 2522 
Q 1259 2794 1537 2939 
Q 1816 3084 2150 3084 
Q 2853 3084 3261 2657 
Q 3669 2231 3669 1497 
Q 3669 778 3244 343 
Q 2819 -91 2113 -91 
Q 1303 -91 875 529 
Q 447 1150 447 2328 
Q 447 3434 972 4092 
Q 1497 4750 2381 4750 
Q 2619 4750 2861 4703 
Q 3103 4656 3366 4563 
z
" id="DejaVuSans-36" transform="scale(0.015625)"/>
       </defs>
       <use xlink:href="#DejaVuSans-30"/>
       <use x="63.623047" xlink:href="#DejaVuSans-2e"/>
       <use x="95.410156" xlink:href="#DejaVuSans-36"/>
      </g>
     </g>
    </g>
    <g id="xtick_4">
     <g id="line2d_4">
      <g>
       <use style="stroke:#000000;stroke-width:0.8;" x="227.19309" xlink:href="#maacb842394" y="307.584"/>
      </g>
     </g>
     <g id="text_4">
      <!-- 0.8 -->
      <g transform="translate(219.241528 322.182437)scale(0.1 -0.1)">
       <defs>
        <path d="M 2034 2216 
Q 1584 2216 1326 1975 
Q 1069 1734 1069 1313 
Q 1069 891 1326 650 
Q 1584 409 2034 409 
Q 2484 409 2743 651 
Q 3003 894 3003 1313 
Q 3003 1734 2745 1975 
Q 2488 2216 2034 2216 
z
M 1403 2484 
Q 997 2584 770 2862 
Q 544 3141 544 3541 
Q 544 4100 942 4425 
Q 1341 4750 2034 4750 
Q 2731 4750 3128 4425 
Q 3525 4100 3525 3541 
Q 3525 3141 3298 2862 
Q 3072 2584 2669 2484 
Q 3125 2378 3379 2068 
Q 3634 1759 3634 1313 
Q 3634 634 3220 271 
Q 2806 -91 2034 -91 
Q 1263 -91 848 271 
Q 434 634 434 1313 
Q 434 1759 690 2068 
Q 947 2378 1403 2484 
z
M 1172 3481 
Q 1172 3119 1398 2916 
Q 1625 2713 2034 2713 
Q 2441 2713 2670 2916 
Q 2900 3119 2900 3481 
Q 2900 3844 2670 4047 
Q 2441 4250 2034 4250 
Q 1625 4250 1398 4047 
Q 1172 3844 1172 3481 
z
" id="DejaVuSans-38" transform="scale(0.015625)"/>
       </defs>
       <use xlink:href="#DejaVuSans-30"/>
       <use x="63.623047" xlink:href="#DejaVuSans-2e"/>
       <use x="95.410156" xlink:href="#DejaVuSans-38"/>
      </g>
     </g>
    </g>
    <g id="xtick_5">
     <g id="line2d_5">
      <g>
       <use style="stroke:#000000;stroke-width:0.8;" x="271.18691" xlink:href="#maacb842394" y="307.584"/>
      </g>
     </g>
     <g id="text_5">
      <!-- 1.0 -->
      <g transform="translate(263.235348 322.182437)scale(0.1 -0.1)">
       <defs>
        <path d="M 794 531 
L 1825 531 
L 1825 4091 
L 703 3866 
L 703 4441 
L 1819 4666 
L 2450 4666 
L 2450 531 
L 3481 531 
L 3481 0 
L 794 0 
L 794 531 
z
" id="DejaVuSans-31" transform="scale(0.015625)"/>
       </defs>
       <use xlink:href="#DejaVuSans-31"/>
       <use x="63.623047" xlink:href="#DejaVuSans-2e"/>
       <use x="95.410156" xlink:href="#DejaVuSans-30"/>
      </g>
     </g>
    </g>
    <g id="xtick_6">
     <g id="line2d_6">
      <g>
       <use style="stroke:#000000;stroke-width:0.8;" x="315.18073" xlink:href="#maacb842394" y="307.584"/>
      </g>
     </g>
     <g id="text_6">
      <!-- 1.2 -->
      <g transform="translate(307.229168 322.182437)scale(0.1 -0.1)">
       <use xlink:href="#DejaVuSans-31"/>
       <use x="63.623047" xlink:href="#DejaVuSans-2e"/>
       <use x="95.410156" xlink:href="#DejaVuSans-32"/>
      </g>
     </g>
    </g>
    <g id="xtick_7">
     <g id="line2d_7">
      <g>
       <use style="stroke:#000000;stroke-width:0.8;" x="359.174551" xlink:href="#maacb842394" y="307.584"/>
      </g>
     </g>
     <g id="text_7">
      <!-- 1.4 -->
      <g transform="translate(351.222988 322.182437)scale(0.1 -0.1)">
       <use xlink:href="#DejaVuSans-31"/>
       <use x="63.623047" xlink:href="#DejaVuSans-2e"/>
       <use x="95.410156" xlink:href="#DejaVuSans-34"/>
      </g>
     </g>
    </g>
    <g id="xtick_8">
     <g id="line2d_8">
      <g>
       <use style="stroke:#000000;stroke-width:0.8;" x="403.168371" xlink:href="#maacb842394" y="307.584"/>
      </g>
     </g>
     <g id="text_8">
      <!-- 1.6 -->
      <g transform="translate(395.216808 322.182437)scale(0.1 -0.1)">
       <use xlink:href="#DejaVuSans-31"/>
       <use x="63.623047" xlink:href="#DejaVuSans-2e"/>
       <use x="95.410156" xlink:href="#DejaVuSans-36"/>
      </g>
     </g>
    </g>
   </g>
   <g id="matplotlib.axis_2">
    <g id="ytick_1">
     <g id="line2d_9">
      <defs>
       <path d="M 0 0 
L -3.5 0 
" id="me8e3f625ef" style="stroke:#000000;stroke-width:0.8;"/>
      </defs>
      <g>
       <use style="stroke:#000000;stroke-width:0.8;" x="57.6" xlink:href="#me8e3f625ef" y="293.599183"/>
      </g>
     </g>
     <g id="text_9">
      <!-- −80 -->
      <g transform="translate(29.495313 297.398402)scale(0.1 -0.1)">
       <defs>
        <path d="M 678 2272 
L 4684 2272 
L 4684 1741 
L 678 1741 
L 678 2272 
z
" id="DejaVuSans-2212" transform="scale(0.015625)"/>
       </defs>
       <use xlink:href="#DejaVuSans-2212"/>
       <use x="83.789062" xlink:href="#DejaVuSans-38"/>
       <use x="147.412109" xlink:href="#DejaVuSans-30"/>
      </g>
     </g>
    </g>
    <g id="ytick_2">
     <g id="line2d_10">
      <g>
       <use style="stroke:#000000;stroke-width:0.8;" x="57.6" xlink:href="#me8e3f625ef" y="263.502872"/>
      </g>
     </g>
     <g id="text_10">
      <!-- −70 -->
      <g transform="translate(29.495313 267.30209)scale(0.1 -0.1)">
       <defs>
        <path d="M 525 4666 
L 3525 4666 
L 3525 4397 
L 1831 0 
L 1172 0 
L 2766 4134 
L 525 4134 
L 525 4666 
z
" id="DejaVuSans-37" transform="scale(0.015625)"/>
       </defs>
       <use xlink:href="#DejaVuSans-2212"/>
       <use x="83.789062" xlink:href="#DejaVuSans-37"/>
       <use x="147.412109" xlink:href="#DejaVuSans-30"/>
      </g>
     </g>
    </g>
    <g id="ytick_3">
     <g id="line2d_11">
      <g>
       <use style="stroke:#000000;stroke-width:0.8;" x="57.6" xlink:href="#me8e3f625ef" y="233.406561"/>
      </g>
     </g>
     <g id="text_11">
      <!-- −60 -->
      <g transform="translate(29.495313 237.205779)scale(0.1 -0.1)">
       <use xlink:href="#DejaVuSans-2212"/>
       <use x="83.789062" xlink:href="#DejaVuSans-36"/>
       <use x="147.412109" xlink:href="#DejaVuSans-30"/>
      </g>
     </g>
    </g>
    <g id="ytick_4">
     <g id="line2d_12">
      <g>
       <use style="stroke:#000000;stroke-width:0.8;" x="57.6" xlink:href="#me8e3f625ef" y="203.31025"/>
      </g>
     </g>
     <g id="text_12">
      <!-- −50 -->
      <g transform="translate(29.495313 207.109468)scale(0.1 -0.1)">
       <defs>
        <path d="M 691 4666 
L 3169 4666 
L 3169 4134 
L 1269 4134 
L 1269 2991 
Q 1406 3038 1543 3061 
Q 1681 3084 1819 3084 
Q 2600 3084 3056 2656 
Q 3513 2228 3513 1497 
Q 3513 744 3044 326 
Q 2575 -91 1722 -91 
Q 1428 -91 1123 -41 
Q 819 9 494 109 
L 494 744 
Q 775 591 1075 516 
Q 1375 441 1709 441 
Q 2250 441 2565 725 
Q 2881 1009 2881 1497 
Q 2881 1984 2565 2268 
Q 2250 2553 1709 2553 
Q 1456 2553 1204 2497 
Q 953 2441 691 2322 
L 691 4666 
z
" id="DejaVuSans-35" transform="scale(0.015625)"/>
       </defs>
       <use xlink:href="#DejaVuSans-2212"/>
       <use x="83.789062" xlink:href="#DejaVuSans-35"/>
       <use x="147.412109" xlink:href="#DejaVuSans-30"/>
      </g>
     </g>
    </g>
    <g id="ytick_5">
     <g id="line2d_13">
      <g>
       <use style="stroke:#000000;stroke-width:0.8;" x="57.6" xlink:href="#me8e3f625ef" y="173.213939"/>
      </g>
     </g>
     <g id="text_13">
      <!-- −40 -->
      <g transform="translate(29.495313 177.013157)scale(0.1 -0.1)">
       <use xlink:href="#DejaVuSans-2212"/>
       <use x="83.789062" xlink:href="#DejaVuSans-34"/>
       <use x="147.412109" xlink:href="#DejaVuSans-30"/>
      </g>
     </g>
    </g>
    <g id="ytick_6">
     <g id="line2d_14">
      <g>
       <use style="stroke:#000000;stroke-width:0.8;" x="57.6" xlink:href="#me8e3f625ef" y="143.117628"/>
      </g>
     </g>
     <g id="text_14">
      <!-- −30 -->
      <g transform="translate(29.495313 146.916846)scale(0.1 -0.1)">
       <defs>
        <path d="M 2597 2516 
Q 3050 2419 3304 2112 
Q 3559 1806 3559 1356 
Q 3559 666 3084 287 
Q 2609 -91 1734 -91 
Q 1441 -91 1130 -33 
Q 819 25 488 141 
L 488 750 
Q 750 597 1062 519 
Q 1375 441 1716 441 
Q 2309 441 2620 675 
Q 2931 909 2931 1356 
Q 2931 1769 2642 2001 
Q 2353 2234 1838 2234 
L 1294 2234 
L 1294 2753 
L 1863 2753 
Q 2328 2753 2575 2939 
Q 2822 3125 2822 3475 
Q 2822 3834 2567 4026 
Q 2313 4219 1838 4219 
Q 1578 4219 1281 4162 
Q 984 4106 628 3988 
L 628 4550 
Q 988 4650 1302 4700 
Q 1616 4750 1894 4750 
Q 2613 4750 3031 4423 
Q 3450 4097 3450 3541 
Q 3450 3153 3228 2886 
Q 3006 2619 2597 2516 
z
" id="DejaVuSans-33" transform="scale(0.015625)"/>
       </defs>
       <use xlink:href="#DejaVuSans-2212"/>
       <use x="83.789062" xlink:href="#DejaVuSans-33"/>
       <use x="147.412109" xlink:href="#DejaVuSans-30"/>
      </g>
     </g>
    </g>
    <g id="ytick_7">
     <g id="line2d_15">
      <g>
       <use style="stroke:#000000;stroke-width:0.8;" x="57.6" xlink:href="#me8e3f625ef" y="113.021316"/>
      </g>
     </g>
     <g id="text_15">
      <!-- −20 -->
      <g transform="translate(29.495313 116.820535)scale(0.1 -0.1)">
       <use xlink:href="#DejaVuSans-2212"/>
       <use x="83.789062" xlink:href="#DejaVuSans-32"/>
       <use x="147.412109" xlink:href="#DejaVuSans-30"/>
      </g>
     </g>
    </g>
    <g id="ytick_8">
     <g id="line2d_16">
      <g>
       <use style="stroke:#000000;stroke-width:0.8;" x="57.6" xlink:href="#me8e3f625ef" y="82.925005"/>
      </g>
     </g>
     <g id="text_16">
      <!-- −10 -->
      <g transform="translate(29.495313 86.724224)scale(0.1 -0.1)">
       <use xlink:href="#DejaVuSans-2212"/>
       <use x="83.789062" xlink:href="#DejaVuSans-31"/>
       <use x="147.412109" xlink:href="#DejaVuSans-30"/>
      </g>
     </g>
    </g>
    <g id="ytick_9">
     <g id="line2d_17">
      <g>
       <use style="stroke:#000000;stroke-width:0.8;" x="57.6" xlink:href="#me8e3f625ef" y="52.828694"/>
      </g>
     </g>
     <g id="text_17">
      <!-- 0 -->
      <g transform="translate(44.2375 56.627913)scale(0.1 -0.1)">
       <use xlink:href="#DejaVuSans-30"/>
      </g>
     </g>
    </g>
   </g>
   <g id="line2d_18">
    <path clip-path="url(#pf82b5dd120)" d="M 73.832727 223.308612 
L 74.26763 223.611953 
L 74.702532 223.871564 
L 75.137434 224.172605 
L 77.746848 225.524625 
L 77.964299 225.427798 
L 78.18175 225.501144 
L 78.399201 225.439915 
L 78.616652 225.52826 
L 78.834103 225.43999 
L 79.051555 225.788237 
L 80.573712 245.784047 
L 81.226066 251.335082 
L 81.660968 250.460607 
L 82.09587 252.072433 
L 83.183126 258.847404 
L 83.83548 262.606632 
L 85.140186 269.53233 
L 86.444893 274.557755 
L 87.532149 277.336446 
L 88.401953 279.437154 
L 89.924111 282.380634 
L 90.359014 282.884451 
L 91.011367 284.007995 
L 91.66372 284.727731 
L 92.098623 285.299526 
L 92.750976 285.759905 
L 93.403329 286.441603 
L 94.055683 286.710292 
L 94.925487 287.365309 
L 97.31745 288.739157 
L 97.752352 288.96173 
L 98.187254 289.228702 
L 98.404706 289.246452 
L 98.839608 289.075567 
L 99.27451 289.407507 
L 99.491961 289.563521 
L 99.926864 289.541729 
L 102.536277 290.352432 
L 102.753728 290.314593 
L 103.188631 290.468062 
L 103.840984 290.360085 
L 104.493337 290.243073 
L 105.145691 290.171643 
L 105.580593 290.301966 
L 105.798044 290.219095 
L 106.232946 290.426457 
L 106.667849 290.450375 
L 107.320202 290.500793 
L 107.755104 290.421066 
L 108.190007 290.465019 
L 108.624909 290.492565 
L 109.059811 290.602437 
L 110.147067 290.421562 
L 110.581969 290.322015 
L 111.016871 290.393583 
L 112.104127 290.874692 
L 112.539029 290.953089 
L 113.191383 291.123263 
L 113.626285 291.028802 
L 114.061187 291.348825 
L 115.148443 291.20413 
L 117.540406 292.115829 
L 118.41021 292.008083 
L 119.062563 292.092575 
L 119.497466 291.823205 
L 120.36727 291.237183 
L 121.237075 291.143578 
L 121.889428 289.518316 
L 122.324331 289.455321 
L 123.846488 290.002015 
L 124.933744 290.316774 
L 126.021 291.092096 
L 127.543158 291.970928 
L 127.760609 291.967805 
L 128.195511 291.734185 
L 128.630413 291.694221 
L 129.065316 291.579502 
L 129.93512 291.778006 
L 130.370023 291.830063 
L 131.89218 292.106265 
L 132.544534 292.046601 
L 132.761985 291.207597 
L 133.196887 288.858477 
L 133.63179 287.769247 
L 133.849241 287.604341 
L 134.284143 287.799012 
L 136.023752 289.408906 
L 136.458654 289.790206 
L 137.328459 290.871311 
L 138.850617 291.494685 
L 139.068068 291.462228 
L 139.50297 291.683084 
L 140.155324 291.582041 
L 140.807677 291.56409 
L 141.46003 291.560146 
L 141.894933 291.565531 
L 142.329835 291.550793 
L 142.547286 291.482792 
L 143.19964 291.653889 
L 143.634542 291.487188 
L 144.286895 291.440505 
L 144.939249 291.214253 
L 145.374151 291.370793 
L 145.809053 291.331761 
L 147.766113 291.80756 
L 148.418467 291.87847 
L 149.07082 292.42138 
L 149.288271 292.480499 
L 149.723174 292.804999 
L 150.158076 292.790302 
L 150.810429 292.875012 
L 152.767489 293.268362 
L 152.984941 293.142765 
L 153.419843 293.348176 
L 154.507099 293.688991 
L 154.72455 293.639259 
L 155.159452 293.878446 
L 155.594354 293.91258 
L 156.029257 294.024019 
L 156.464159 294.284533 
L 157.551414 294.279281 
L 157.986317 294.136689 
L 158.421219 294.147246 
L 160.160828 294.260696 
L 160.59573 293.70986 
L 160.813182 293.551687 
L 161.030633 293.229244 
L 162.335339 292.966562 
L 162.770242 292.60568 
L 163.422595 292.40307 
L 163.640046 292.4059 
L 164.074949 292.757262 
L 164.509851 292.979674 
L 164.944753 293.235442 
L 165.379655 293.467576 
L 165.597106 293.584992 
L 166.24946 293.515832 
L 166.684362 293.137803 
L 167.336716 292.854035 
L 167.989069 292.657245 
L 168.20652 292.725921 
L 168.423971 292.634701 
L 169.293776 291.730461 
L 169.728678 291.84061 
L 170.16358 291.784732 
L 171.033385 291.980184 
L 171.468287 292.278094 
L 172.120641 292.152299 
L 172.555543 292.311242 
L 173.425347 292.990116 
L 175.164956 293.139114 
L 175.599859 293.304777 
L 176.687114 293.898338 
L 177.991821 294.267635 
L 178.861626 294.457814 
L 179.296528 294.322091 
L 179.73143 294.343239 
L 180.383784 294.433305 
L 181.905942 293.784754 
L 182.993197 293.658921 
L 183.4281 293.615913 
L 184.950258 293.661037 
L 185.602611 293.950835 
L 186.037513 294.232274 
L 186.907318 294.518032 
L 187.34222 294.591183 
L 187.777122 294.660614 
L 189.516731 295.372768 
L 189.951634 295.414279 
L 191.25634 295.400495 
L 191.691243 295.093938 
L 192.343596 294.903574 
L 193.213401 294.265288 
L 193.648303 294.344478 
L 194.518108 293.788109 
L 195.170461 293.363247 
L 195.605363 293.1729 
L 195.822814 293.300999 
L 196.692619 293.183366 
L 197.127521 293.091785 
L 197.779875 293.636363 
L 198.214777 293.79852 
L 198.649679 294.054267 
L 199.084581 293.969783 
L 199.736935 294.195209 
L 199.954386 294.294246 
L 200.389288 294.047168 
L 200.82419 294.194999 
L 202.346348 293.875343 
L 202.781251 293.878045 
L 203.216153 293.947633 
L 203.868506 293.711465 
L 204.303409 293.759454 
L 204.52086 293.891015 
L 205.608115 293.656121 
L 206.043018 293.682401 
L 206.695371 293.397704 
L 207.347725 293.489201 
L 207.782627 293.325676 
L 208.652431 293.621898 
L 209.087334 293.819889 
L 209.739687 293.919547 
L 210.174589 293.894666 
L 211.696747 294.438673 
L 212.13165 294.518332 
L 212.566552 294.329299 
L 213.218905 293.832862 
L 213.871259 293.876323 
L 215.175965 293.321094 
L 215.393417 293.329059 
L 216.04577 293.061594 
L 216.698123 292.855584 
L 217.133026 292.630565 
L 217.350477 292.803171 
L 218.220281 292.911068 
L 219.090086 291.778324 
L 219.524988 290.779426 
L 220.829695 289.499827 
L 221.264597 289.564702 
L 222.134402 289.184793 
L 222.351853 289.049196 
L 223.221657 289.154337 
L 223.65656 288.809781 
L 223.874011 288.848718 
L 224.743815 288.530514 
L 224.961267 288.62956 
L 225.831071 288.231817 
L 226.048522 288.312108 
L 226.700876 287.693276 
L 226.918327 287.847387 
L 227.135778 288.15392 
L 227.788131 288.41294 
L 228.005582 288.28102 
L 228.875387 288.370346 
L 229.092838 288.429101 
L 229.52774 288.167885 
L 230.832447 288.712798 
L 231.267349 288.783595 
L 231.484801 288.883359 
L 231.702252 288.807712 
L 232.137154 289.006055 
L 232.354605 288.882875 
L 232.789507 288.929688 
L 233.22441 288.670484 
L 234.094214 288.619546 
L 235.833823 289.857592 
L 236.268726 290.059412 
L 236.703628 289.868794 
L 237.13853 290.089301 
L 238.443237 290.332684 
L 239.09559 290.840018 
L 241.270102 291.939499 
L 242.139906 292.062184 
L 242.574809 292.113707 
L 243.009711 292.327709 
L 243.227162 292.268285 
L 243.662064 292.369923 
L 243.879515 292.244239 
L 245.619124 292.497724 
L 246.054027 292.387822 
L 246.70638 292.415455 
L 246.923831 292.446913 
L 247.358733 292.706787 
L 247.793636 292.661272 
L 248.880891 291.941006 
L 249.315794 291.427641 
L 250.837952 290.538726 
L 251.055403 290.423924 
L 251.707756 290.834468 
L 252.142658 290.602931 
L 252.577561 290.544808 
L 253.447365 290.057429 
L 254.099719 288.653801 
L 254.752072 288.347559 
L 255.186974 288.270717 
L 255.404426 288.236424 
L 255.621877 288.451857 
L 256.056779 288.269641 
L 256.491681 287.814783 
L 256.709132 287.89908 
L 256.926583 287.766921 
L 257.361486 287.865552 
L 258.013839 287.958896 
L 259.753448 287.602117 
L 260.18835 287.849874 
L 261.92796 287.644209 
L 263.450118 289.262185 
L 264.102471 289.47274 
L 264.537373 289.752297 
L 264.972275 290.182151 
L 265.189727 290.047498 
L 265.624629 290.11235 
L 266.059531 290.476558 
L 266.494433 290.427629 
L 266.711885 290.326483 
L 267.146787 290.402652 
L 267.79914 289.95802 
L 268.451494 290.058479 
L 269.321298 289.776071 
L 270.191103 290.079032 
L 270.408554 290.035531 
L 271.060907 290.192581 
L 271.278358 290.208002 
L 271.713261 290.0499 
L 272.583065 290.423006 
L 272.800516 290.532456 
L 273.45287 290.325853 
L 273.887772 290.423293 
L 274.975028 291.036262 
L 275.192479 291.030383 
L 276.714637 287.652832 
L 277.36699 287.027749 
L 277.584441 287.003696 
L 277.801892 287.099868 
L 278.236795 287.550421 
L 278.671697 287.915797 
L 279.106599 287.894524 
L 279.32405 287.878646 
L 279.541502 287.669271 
L 279.758953 287.618132 
L 279.976404 287.762737 
L 280.193855 287.697847 
L 281.06366 286.83076 
L 281.281111 286.736545 
L 281.933464 286.838631 
L 282.368366 287.292662 
L 283.02072 287.807215 
L 283.890524 288.642443 
L 284.325427 288.806573 
L 284.760329 289.076099 
L 285.195231 288.984753 
L 287.369742 290.540507 
L 287.804645 290.77638 
L 288.239547 291.203185 
L 288.674449 291.238775 
L 289.979156 290.82996 
L 290.196607 290.840736 
L 290.848961 290.297603 
L 291.718765 290.010598 
L 292.58857 290.042032 
L 293.458374 290.228209 
L 294.763081 290.240045 
L 295.415434 290.586797 
L 296.067788 290.990032 
L 296.285239 291.091588 
L 296.50269 291.00702 
L 297.807397 274.116421 
L 298.677201 266.874325 
L 299.764457 259.902212 
L 300.851713 253.978192 
L 301.286615 252.170675 
L 302.15642 247.662292 
L 303.026224 244.093548 
L 304.11348 241.287153 
L 304.548382 240.511668 
L 305.635638 238.431904 
L 306.287991 237.420687 
L 306.940345 236.436398 
L 307.592698 235.689743 
L 308.245051 235.427819 
L 310.202112 234.720755 
L 311.071916 234.143664 
L 311.506818 233.989247 
L 311.941721 233.812503 
L 312.594074 233.533533 
L 313.028976 233.213207 
L 313.68133 233.086335 
L 314.333683 232.887014 
L 314.768586 232.768588 
L 315.855841 231.462381 
L 316.073292 231.399003 
L 316.290743 231.533558 
L 317.160548 231.493315 
L 317.59545 231.482021 
L 318.030353 231.395964 
L 318.465255 231.577287 
L 318.900157 231.43175 
L 319.769962 231.448113 
L 319.987413 231.378855 
L 320.639766 231.651147 
L 321.074668 231.862754 
L 321.509571 231.814316 
L 322.161924 231.872717 
L 322.596826 231.780692 
L 324.771338 232.491793 
L 324.988789 232.368448 
L 325.423691 232.592092 
L 326.076045 232.182247 
L 326.293496 232.185237 
L 327.1633 231.67638 
L 328.250556 230.642933 
L 328.685458 230.589297 
L 330.642518 230.924084 
L 331.512323 230.625717 
L 332.81703 231.009059 
L 333.251932 230.696366 
L 334.339188 230.832287 
L 334.556639 230.940945 
L 335.208992 230.764848 
L 335.861346 230.348355 
L 336.078797 230.377971 
L 336.296248 230.269208 
L 336.513699 229.997931 
L 337.166052 229.805173 
L 338.253308 229.742866 
L 338.68821 229.593157 
L 339.123113 229.245378 
L 339.558015 229.295345 
L 339.992917 229.206982 
L 340.42782 229.222965 
L 341.080173 229.142057 
L 341.515075 229.195048 
L 342.167429 229.098158 
L 343.907038 229.622782 
L 344.34194 229.434872 
L 345.211745 229.448869 
L 345.646647 229.690438 
L 346.733902 230.647469 
L 346.951354 230.695391 
L 347.168805 230.946371 
L 347.386256 229.348575 
L 347.821158 225.134471 
L 348.25606 223.498629 
L 348.473512 222.970669 
L 348.690963 222.85519 
L 349.125865 222.930126 
L 349.778218 223.656495 
L 350.213121 224.130426 
L 350.648023 224.629247 
L 351.082925 224.932991 
L 351.517827 225.185941 
L 352.822534 226.107797 
L 353.039985 226.240774 
L 353.90979 226.330614 
L 355.214497 226.565044 
L 355.86685 227.099701 
L 356.084301 227.239281 
L 357.389008 227.201243 
L 357.606459 227.433678 
L 358.041362 227.551647 
L 359.128617 228.066078 
L 359.563519 228.06645 
L 360.650775 228.428691 
L 361.085677 228.480518 
L 361.52058 228.569758 
L 362.607835 228.390099 
L 362.825286 228.221566 
L 363.695091 228.230262 
L 364.129993 228.220705 
L 364.347444 228.085112 
L 365.217249 228.216218 
L 365.869602 228.069041 
L 368.261565 227.187516 
L 368.696467 227.064753 
L 369.348821 226.867972 
L 370.001174 227.02616 
L 370.436076 227.246522 
L 371.305881 227.060465 
L 371.523332 227.092533 
L 372.393136 226.698781 
L 372.828039 226.68683 
L 373.697843 227.427225 
L 374.567648 227.334116 
L 374.785099 227.542412 
L 375.00255 227.478733 
L 375.437452 227.74856 
L 375.872355 228.00535 
L 376.307257 228.063593 
L 377.829415 228.144827 
L 378.264317 227.92344 
L 378.481768 227.948888 
L 378.916671 227.832546 
L 379.351573 228.006374 
L 380.221377 228.71077 
L 380.65628 228.766555 
L 381.308633 229.046912 
L 381.960986 228.93675 
L 382.830791 229.033292 
L 383.048242 228.971743 
L 383.483144 229.154236 
L 383.918047 228.999197 
L 384.352949 228.823434 
L 384.787851 228.259392 
L 385.440205 227.79326 
L 385.875107 227.896009 
L 386.310009 227.837157 
L 387.179814 227.432663 
L 387.832167 227.547462 
L 388.049618 227.705312 
L 388.701972 227.415872 
L 388.919423 227.299721 
L 390.006678 227.43553 
L 390.441581 227.349705 
L 391.311385 227.193832 
L 392.616092 226.964474 
L 393.485897 226.401692 
L 393.920799 226.195281 
L 394.355701 226.039489 
L 394.790603 225.976273 
L 395.225506 225.825184 
L 395.660408 225.859091 
L 395.877859 225.985119 
L 396.312761 225.729501 
L 396.747664 225.996105 
L 397.182566 225.948629 
L 397.400017 225.960084 
L 398.05237 226.28722 
L 398.487273 226.269049 
L 398.487273 226.269049 
" style="fill:none;stroke:#000000;stroke-linecap:square;stroke-width:1.5;"/>
   </g>
   <g id="line2d_19">
    <path clip-path="url(#pf82b5dd120)" d="M 73.832727 252.097397 
L 75.572336 252.858758 
L 76.877043 253.191083 
L 77.094494 253.451547 
L 77.311945 253.233034 
L 77.529397 253.525685 
L 77.964299 253.45599 
L 78.18175 253.844125 
L 78.399201 253.423878 
L 78.616652 254.147895 
L 79.051555 253.472758 
L 79.269006 247.324352 
L 79.486457 237.963429 
L 79.703908 234.132403 
L 79.921359 225.799098 
L 80.13881 223.416531 
L 80.573712 211.701253 
L 80.791164 209.377934 
L 81.008615 197.864185 
L 81.226066 205.594509 
L 81.660968 53.568 
L 82.09587 177.146585 
L 82.530773 208.400518 
L 82.748224 206.914747 
L 82.965675 210.557814 
L 83.400577 207.630326 
L 83.618028 206.929444 
L 83.83548 204.249773 
L 84.052931 204.044281 
L 84.270382 201.039121 
L 84.487833 199.904538 
L 84.922735 195.947816 
L 85.140186 195.061555 
L 86.009991 189.402545 
L 87.532149 180.410237 
L 87.967051 179.312267 
L 88.401953 179.061011 
L 89.271758 177.462903 
L 89.70666 176.821619 
L 89.924111 176.683696 
L 90.793916 176.935627 
L 91.011367 176.741602 
L 91.446269 175.642033 
L 92.968427 170.545077 
L 93.838232 169.102223 
L 94.055683 169.07114 
L 94.490585 169.439798 
L 94.708036 169.41565 
L 94.925487 169.229149 
L 95.36039 168.477905 
L 95.577841 168.66971 
L 96.012743 168.751939 
L 96.882548 170.34568 
L 97.534901 170.572014 
L 97.969803 169.498903 
L 98.187254 169.414446 
L 98.622157 168.78707 
L 98.839608 169.006674 
L 99.491961 169.112673 
L 99.709412 169.24184 
L 100.144315 168.962914 
L 100.361766 169.124375 
L 100.579217 168.820199 
L 100.796668 169.040664 
L 101.014119 169.758464 
L 101.666473 170.307466 
L 102.318826 169.331665 
L 102.753728 169.654715 
L 102.971179 169.935547 
L 103.406082 171.177669 
L 103.623533 171.328087 
L 103.840984 171.126749 
L 104.058435 171.112354 
L 104.493337 171.379039 
L 104.92824 171.32858 
L 105.145691 171.192481 
L 105.580593 170.661144 
L 105.798044 170.742787 
L 106.015495 170.504374 
L 106.450398 169.436138 
L 107.102751 168.536464 
L 107.537653 168.153221 
L 108.190007 167.158337 
L 108.84236 167.556232 
L 109.059811 167.446277 
L 109.277262 167.686068 
L 109.929616 168.9697 
L 110.147067 169.09171 
L 110.364518 169.360405 
L 110.581969 169.374031 
L 110.79942 169.272397 
L 111.016871 169.505521 
L 111.669225 169.099095 
L 111.886676 169.184119 
L 112.321578 169.991766 
L 112.539029 170.186919 
L 112.756481 170.551974 
L 112.973932 170.685975 
L 113.191383 170.650823 
L 113.408834 170.352654 
L 113.626285 169.692451 
L 113.843736 169.40551 
L 114.278638 169.420314 
L 114.49609 169.189086 
L 114.713541 169.14028 
L 114.930992 169.248116 
L 115.365894 168.511526 
L 116.018248 167.075839 
L 116.235699 167.025908 
L 116.888052 167.594745 
L 117.105503 167.610811 
L 117.757857 168.87411 
L 118.192759 169.327246 
L 118.627661 169.434124 
L 119.062563 169.974131 
L 119.280015 169.772177 
L 119.497466 169.808153 
L 119.932368 169.564629 
L 120.149819 169.387322 
L 120.36727 168.952329 
L 120.584721 168.852779 
L 120.802173 168.981265 
L 121.237075 168.863146 
L 121.671977 169.154119 
L 122.106879 169.37315 
L 122.324331 169.375178 
L 122.759233 169.59658 
L 123.194135 169.2235 
L 123.411586 169.091614 
L 123.629037 169.14299 
L 123.846488 169.483135 
L 124.06394 169.578577 
L 124.716293 169.562674 
L 124.933744 169.68432 
L 125.151195 169.511881 
L 125.803549 169.924327 
L 126.238451 170.445759 
L 126.455902 170.620144 
L 127.325707 170.751611 
L 128.195511 172.020534 
L 128.630413 172.023991 
L 128.847865 172.089588 
L 129.065316 172.286158 
L 129.282767 172.328499 
L 129.500218 172.146444 
L 129.717669 172.174203 
L 130.370023 171.731864 
L 130.804925 171.123928 
L 131.674729 171.040055 
L 132.544534 172.078473 
L 132.761985 172.123351 
L 133.196887 172.5938 
L 133.63179 172.409196 
L 134.066692 172.474415 
L 134.936496 173.277956 
L 135.371399 173.518029 
L 136.676105 172.627072 
L 137.54591 173.25274 
L 137.980812 172.816343 
L 138.415715 173.094593 
L 138.633166 173.238574 
L 138.850617 173.191646 
L 139.285519 172.398745 
L 139.50297 172.27119 
L 139.720421 172.459495 
L 140.372775 171.786891 
L 140.590226 171.327532 
L 140.807677 171.297992 
L 141.025128 171.661066 
L 141.46003 171.322491 
L 141.677482 171.420761 
L 141.894933 171.370665 
L 142.764737 171.72708 
L 143.19964 171.501846 
L 143.417091 171.4222 
L 143.634542 170.998258 
L 144.286895 170.980859 
L 144.721797 171.484487 
L 145.1567 171.314508 
L 146.026504 170.562138 
L 146.243955 170.440813 
L 146.678858 170.628642 
L 146.896309 170.453888 
L 147.331211 169.821078 
L 148.418467 169.030458 
L 148.853369 169.182418 
L 149.07082 169.163769 
L 149.288271 169.031261 
L 149.940625 167.9818 
L 150.158076 168.098959 
L 150.375527 168.34792 
L 150.592978 168.294421 
L 150.810429 168.419937 
L 151.245332 168.323798 
L 151.680234 168.501441 
L 152.115136 169.246612 
L 152.984941 170.33382 
L 153.419843 170.619333 
L 153.854745 170.309491 
L 154.942001 171.006113 
L 155.159452 171.045327 
L 155.594354 171.407898 
L 156.029257 170.808256 
L 156.464159 170.673388 
L 156.899061 169.997116 
L 157.116512 170.123326 
L 157.768866 170.108625 
L 158.203768 169.750627 
L 158.63867 169.991321 
L 159.291024 171.138589 
L 159.508475 170.981911 
L 159.725926 170.587012 
L 160.378279 170.681857 
L 160.59573 171.023115 
L 162.335339 170.061135 
L 162.770242 169.688534 
L 162.987693 169.760149 
L 163.422595 170.512001 
L 163.640046 170.586723 
L 164.509851 171.631893 
L 164.944753 171.43732 
L 165.814558 171.414186 
L 166.032009 171.384169 
L 166.24946 171.553477 
L 166.466911 171.90945 
L 167.119264 172.186635 
L 167.554167 171.778054 
L 168.20652 171.699735 
L 168.641422 171.436729 
L 168.858874 171.45796 
L 169.076325 171.274251 
L 169.511227 170.527806 
L 169.946129 170.485199 
L 170.16358 170.333017 
L 170.381031 170.357888 
L 171.033385 170.917594 
L 171.250836 171.486317 
L 171.468287 171.743917 
L 171.903189 171.710884 
L 172.338092 171.333765 
L 172.772994 171.045988 
L 173.207896 171.196416 
L 173.425347 171.429278 
L 173.642799 171.832205 
L 173.86025 171.860635 
L 174.077701 171.703334 
L 174.947505 172.758339 
L 175.164956 173.338264 
L 175.382408 173.525648 
L 175.599859 173.514194 
L 175.81731 173.734498 
L 176.687114 173.534038 
L 177.556919 172.168195 
L 178.209272 172.368599 
L 179.73143 172.195329 
L 179.948881 171.995916 
L 180.166333 171.614428 
L 180.601235 171.393213 
L 181.036137 170.725824 
L 181.471039 170.480256 
L 181.905942 170.356703 
L 182.340844 170.32125 
L 182.775746 169.924959 
L 183.210648 170.50105 
L 183.4281 170.414846 
L 183.863002 171.066277 
L 184.297904 171.028602 
L 184.515355 170.835309 
L 184.950258 170.925595 
L 185.38516 170.678704 
L 185.820062 170.085233 
L 186.037513 170.051905 
L 186.472416 170.231161 
L 187.124769 169.513209 
L 187.559671 169.478786 
L 187.994573 169.950881 
L 188.429476 170.185223 
L 188.864378 170.367045 
L 189.734183 171.262472 
L 189.951634 171.1812 
L 191.038889 172.127501 
L 191.25634 172.387236 
L 191.691243 172.281548 
L 192.99595 172.298846 
L 193.430852 172.107512 
L 193.865754 172.15768 
L 194.083205 171.989721 
L 194.300656 172.115499 
L 194.518108 172.085795 
L 194.735559 171.846762 
L 195.170461 171.934614 
L 195.605363 171.855004 
L 196.040265 171.500932 
L 196.475168 170.715225 
L 197.127521 170.511543 
L 197.779875 169.237067 
L 198.214777 169.164647 
L 199.302033 167.660026 
L 199.519484 167.741744 
L 199.954386 167.609306 
L 200.389288 168.205118 
L 200.606739 168.418696 
L 201.259093 169.40582 
L 201.476544 169.462894 
L 201.693995 169.290164 
L 202.128897 169.428578 
L 202.5638 169.623024 
L 203.433604 169.375364 
L 204.085957 168.910189 
L 204.303409 169.123634 
L 204.738311 169.15177 
L 204.955762 169.504456 
L 205.173213 169.421488 
L 205.390664 169.565962 
L 205.608115 169.966109 
L 205.825567 170.071006 
L 206.043018 170.048234 
L 206.695371 169.566601 
L 206.912822 169.241306 
L 207.130273 169.127952 
L 207.347725 169.205919 
L 207.782627 169.670278 
L 208.43498 170.103284 
L 208.652431 169.956303 
L 209.087334 169.978253 
L 209.739687 169.81716 
L 209.957138 169.874768 
L 210.39204 169.389352 
L 210.609492 169.371465 
L 211.044394 169.533904 
L 211.261845 169.449803 
L 211.696747 169.618428 
L 212.13165 169.283643 
L 212.349101 169.074897 
L 212.566552 169.135388 
L 212.784003 169.335059 
L 213.218905 169.175425 
L 213.436356 169.376338 
L 213.653807 169.401305 
L 213.871259 169.164959 
L 214.523612 169.051075 
L 214.958514 169.183326 
L 215.175965 169.012592 
L 215.393417 169.15636 
L 215.828319 169.635351 
L 216.480672 170.326862 
L 216.698123 170.281685 
L 216.915574 170.000703 
L 217.133026 170.091441 
L 217.350477 170.411488 
L 217.567928 170.388164 
L 218.220281 171.081551 
L 218.872635 172.068006 
L 219.524988 171.01387 
L 219.742439 170.589507 
L 219.95989 170.542809 
L 220.394793 170.652469 
L 220.612244 170.755875 
L 221.047146 170.514284 
L 221.482048 170.169589 
L 221.916951 170.336524 
L 222.134402 170.209682 
L 222.786755 169.458631 
L 223.004206 169.510345 
L 223.221657 169.425266 
L 223.439109 169.500034 
L 223.874011 170.363434 
L 224.091462 170.49948 
L 224.526364 171.26034 
L 224.743815 171.24334 
L 225.396169 172.126766 
L 225.831071 172.231706 
L 226.265973 172.149619 
L 226.483424 171.853711 
L 226.700876 171.328301 
L 226.918327 171.182133 
L 227.135778 171.232014 
L 227.353229 171.156752 
L 227.788131 171.472977 
L 228.223034 171.251842 
L 229.310289 169.578363 
L 231.267349 168.90127 
L 231.702252 169.193 
L 232.137154 169.023406 
L 232.789507 169.176641 
L 233.006959 168.977636 
L 233.659312 168.905925 
L 234.094214 169.338283 
L 234.529116 169.796872 
L 234.746568 169.789657 
L 235.398921 170.362686 
L 235.833823 170.526812 
L 236.703628 171.04806 
L 237.13853 171.227538 
L 237.790884 172.198223 
L 238.443237 171.973837 
L 239.530493 171.227509 
L 239.747944 171.495158 
L 239.965395 171.554231 
L 240.400297 171.427771 
L 240.617748 171.476883 
L 241.705004 170.698715 
L 241.922455 170.81394 
L 242.357357 170.872927 
L 242.574809 170.989268 
L 243.444613 170.734997 
L 243.879515 170.872322 
L 244.314418 170.304869 
L 245.184222 170.68169 
L 245.836576 170.638733 
L 246.054027 170.668918 
L 246.488929 170.216792 
L 246.70638 170.263754 
L 246.923831 170.123065 
L 247.576185 170.071926 
L 247.793636 169.968213 
L 248.228538 170.119172 
L 248.66344 170.682312 
L 249.098343 170.683725 
L 249.533245 170.329727 
L 249.750696 170.428605 
L 249.968147 170.341132 
L 250.403049 170.515886 
L 250.837952 169.977859 
L 251.055403 170.605831 
L 251.272854 171.714698 
L 251.707756 172.416858 
L 251.925207 172.764138 
L 252.142658 172.804442 
L 252.577561 172.257116 
L 252.795012 172.143367 
L 254.31717 170.049409 
L 254.534621 169.365651 
L 255.404426 168.453851 
L 255.839328 168.364759 
L 256.491681 168.36222 
L 257.578937 169.695744 
L 257.796388 169.589765 
L 258.666193 168.496144 
L 259.101095 168.688489 
L 259.535997 168.92375 
L 259.970899 169.532655 
L 260.405802 169.066187 
L 260.840704 169.304524 
L 261.493057 169.478688 
L 261.92796 168.456235 
L 262.145411 168.472643 
L 262.362862 168.630828 
L 262.797764 167.987034 
L 263.015215 168.051719 
L 263.232666 167.869848 
L 263.88502 166.631115 
L 264.102471 166.739132 
L 264.537373 166.66197 
L 264.754824 166.906547 
L 264.972275 166.900297 
L 265.624629 166.27045 
L 266.059531 166.749263 
L 266.711885 166.196985 
L 267.146787 165.963223 
L 267.581689 165.928894 
L 267.79914 166.04786 
L 268.234043 165.875853 
L 268.451494 165.890482 
L 268.886396 166.175693 
L 269.103847 165.892568 
L 269.538749 165.811259 
L 269.7562 165.189365 
L 269.973652 164.949826 
L 270.191103 165.003039 
L 270.626005 164.646377 
L 270.843456 164.875134 
L 271.278358 165.675766 
L 271.713261 165.897848 
L 271.930712 165.953239 
L 272.800516 166.635015 
L 273.235419 166.048163 
L 273.45287 165.607937 
L 273.670321 165.557553 
L 273.887772 165.756736 
L 274.105223 165.79645 
L 275.192479 165.432536 
L 275.40993 165.465212 
L 275.627381 165.337559 
L 275.844832 165.549101 
L 276.279735 166.122873 
L 276.714637 166.647642 
L 277.149539 167.679528 
L 277.801892 168.537798 
L 278.019344 168.573491 
L 278.454246 167.841935 
L 279.106599 168.139149 
L 279.32405 168.055536 
L 279.976404 167.12855 
L 280.411306 166.824219 
L 280.846208 166.962841 
L 281.498562 167.302876 
L 282.150915 167.166626 
L 283.02072 167.68549 
L 283.238171 168.183506 
L 283.455622 168.332095 
L 283.673073 168.155723 
L 284.107975 168.605359 
L 284.760329 169.99988 
L 284.97778 170.039088 
L 285.195231 169.922729 
L 285.412682 169.988992 
L 285.847584 169.865713 
L 286.282487 170.433334 
L 286.717389 170.197144 
L 286.93484 170.374988 
L 287.369742 170.365468 
L 287.587194 170.634542 
L 288.456998 169.925893 
L 289.109352 170.437053 
L 289.326803 170.365619 
L 289.979156 169.693716 
L 290.848961 169.124147 
L 291.066412 169.110982 
L 291.283863 168.98452 
L 291.501314 168.727833 
L 291.718765 168.694318 
L 291.936216 168.444971 
L 292.153667 168.024648 
L 292.371119 168.109483 
L 292.806021 168.513029 
L 293.023472 168.547544 
L 293.240923 168.460827 
L 293.458374 168.240915 
L 293.675825 167.628355 
L 293.893277 167.981812 
L 294.328179 170.780863 
L 294.54563 171.367924 
L 294.980532 171.685685 
L 295.197983 171.880428 
L 295.415434 171.765665 
L 295.632886 171.827105 
L 296.285239 170.475437 
L 296.50269 170.861854 
L 297.589946 200.452329 
L 298.242299 210.912762 
L 298.894653 218.798931 
L 299.981908 227.693002 
L 301.286615 235.262735 
L 302.373871 239.90369 
L 303.026224 241.681968 
L 304.11348 244.219057 
L 304.330931 244.198899 
L 304.548382 244.02129 
L 304.765833 244.262343 
L 306.07054 246.784296 
L 306.505442 247.40843 
L 307.157796 248.1692 
L 307.592698 248.58012 
L 308.245051 249.182915 
L 309.332307 250.487734 
L 309.767209 250.679628 
L 310.419563 251.35534 
L 312.159172 251.92965 
L 312.594074 251.969211 
L 313.246428 252.354522 
L 313.898781 252.714446 
L 314.551134 252.785418 
L 314.768586 253.024108 
L 314.986037 252.823699 
L 315.420939 251.282299 
L 316.073292 250.694042 
L 317.160548 250.546703 
L 317.812901 250.072047 
L 318.247804 250.140809 
L 318.682706 250.405213 
L 319.335059 250.553994 
L 319.552511 250.159719 
L 319.769962 249.262542 
L 320.204864 248.620828 
L 320.422315 248.403466 
L 321.29212 248.536855 
L 321.727022 248.574752 
L 322.379375 248.867668 
L 323.24918 248.959696 
L 323.466631 248.937651 
L 324.553887 249.409944 
L 324.771338 249.605026 
L 325.20624 249.715052 
L 325.858593 250.016903 
L 326.293496 250.220078 
L 326.945849 250.090518 
L 327.380751 250.274119 
L 327.815654 250.204436 
L 328.468007 250.407719 
L 328.902909 250.599285 
L 329.337812 250.50328 
L 329.555263 250.588866 
L 330.425067 250.539173 
L 331.294872 250.848328 
L 331.512323 250.760697 
L 331.947225 250.390008 
L 332.164676 250.305851 
L 332.81703 250.557098 
L 333.034481 250.68826 
L 333.686834 250.471082 
L 333.904285 250.530305 
L 334.556639 250.393251 
L 335.208992 250.778413 
L 336.296248 251.279039 
L 336.73115 251.390342 
L 338.253308 251.344707 
L 338.905662 251.666241 
L 339.123113 251.804605 
L 341.080173 251.442403 
L 341.515075 251.474986 
L 342.167429 251.281282 
L 342.38488 251.207595 
L 342.819782 251.287449 
L 344.559391 251.110597 
L 345.211745 251.30307 
L 346.299 251.512543 
L 347.168805 251.380829 
L 347.821158 249.090901 
L 348.25606 248.526224 
L 349.125865 248.241631 
L 350.430572 248.308466 
L 350.865474 248.406164 
L 351.517827 248.428407 
L 351.735279 248.547567 
L 351.95273 247.683433 
L 352.387632 244.076173 
L 352.822534 242.989369 
L 353.257437 242.947984 
L 353.90979 243.375818 
L 354.344692 243.790516 
L 354.779594 244.158855 
L 355.649399 245.212145 
L 356.736655 245.812365 
L 357.389008 246.351961 
L 357.606459 246.530218 
L 358.041362 247.038827 
L 359.128617 247.516564 
L 360.868226 248.921811 
L 361.085677 248.967083 
L 361.955482 249.679298 
L 363.042738 250.303151 
L 363.912542 250.356556 
L 364.999798 250.501613 
L 365.4347 249.658415 
L 366.304505 248.925413 
L 366.956858 248.80376 
L 368.261565 248.911682 
L 368.696467 248.952331 
L 369.348821 249.16361 
L 369.783723 249.375612 
L 371.523332 249.876099 
L 371.958234 250.214248 
L 372.393136 250.437476 
L 373.04549 250.788579 
L 373.480392 250.873467 
L 374.350197 250.80364 
L 375.00255 250.876214 
L 375.220001 250.939383 
L 375.654903 250.885206 
L 375.872355 251.076472 
L 376.307257 251.110318 
L 376.524708 251.194837 
L 376.95961 251.157012 
L 377.611964 251.159191 
L 378.046866 251.195752 
L 379.134122 251.241311 
L 380.003926 251.016807 
L 380.438828 251.080509 
L 382.395889 250.725346 
L 383.483144 250.807193 
L 383.918047 250.871749 
L 385.005302 250.816586 
L 385.440205 251.097592 
L 385.657656 251.099578 
L 386.092558 251.220826 
L 386.744911 251.212904 
L 388.701972 251.367724 
L 389.136874 251.584324 
L 389.571776 251.679836 
L 390.006678 251.802329 
L 390.659032 251.823193 
L 391.528836 251.8974 
L 391.963739 252.013941 
L 393.268445 252.123064 
L 393.703348 252.398987 
L 394.573152 252.601271 
L 394.790603 252.676977 
L 395.225506 252.505677 
L 395.660408 252.716117 
L 397.182566 253.212799 
L 398.05237 253.556019 
L 398.487273 253.620649 
L 398.487273 253.620649 
" style="fill:none;stroke:#000000;stroke-linecap:square;stroke-width:1.5;"/>
   </g>
   <g id="line2d_20">
    <path clip-path="url(#pf82b5dd120)" d="M 73.832727 263.899227 
L 74.050178 263.870068 
L 74.26763 263.958169 
L 74.702532 263.768535 
L 75.137434 263.824922 
L 77.094494 263.207289 
L 78.616652 263.439421 
L 78.834103 263.279045 
L 79.051555 263.316822 
L 79.921359 268.039767 
L 81.443517 273.383316 
L 82.748224 276.4369 
L 83.618028 278.337719 
L 84.270382 278.900375 
L 84.922735 279.801886 
L 87.532149 283.258465 
L 87.967051 283.744814 
L 88.836856 284.618692 
L 89.924111 285.149705 
L 90.359014 285.547245 
L 91.228818 286.225438 
L 92.316074 287.166992 
L 92.533525 287.164638 
L 93.403329 287.642649 
L 94.273134 287.708988 
L 94.925487 288.314968 
L 95.36039 288.691388 
L 95.795292 288.975984 
L 96.230194 289.009928 
L 96.447645 289.010499 
L 96.882548 289.196628 
L 98.622157 289.679814 
L 99.057059 290.01299 
L 99.709412 290.146045 
L 100.579217 290.438268 
L 100.796668 290.464749 
L 101.23157 290.670255 
L 103.406082 290.872352 
L 103.840984 290.768661 
L 104.710789 290.751396 
L 105.145691 290.696157 
L 106.015495 290.85772 
L 106.667849 290.950342 
L 107.102751 290.951165 
L 107.755104 290.981047 
L 108.190007 291.013217 
L 108.407458 290.986741 
L 108.84236 291.082266 
L 112.973932 291.852456 
L 113.191383 291.783684 
L 114.930992 292.18757 
L 115.800796 292.167888 
L 117.975308 292.476233 
L 118.41021 292.46874 
L 119.932368 292.729798 
L 120.36727 292.726197 
L 120.802173 292.949531 
L 121.671977 293.020213 
L 122.324331 293.197596 
L 122.759233 293.112561 
L 124.498842 293.244301 
L 125.151195 293.333405 
L 125.586098 293.261247 
L 130.804925 293.904121 
L 131.239827 293.191449 
L 131.674729 292.862675 
L 132.544534 292.891066 
L 133.196887 292.955144 
L 133.849241 292.908562 
L 134.284143 292.958726 
L 134.936496 293.181175 
L 135.153948 293.194796 
L 135.58885 293.355559 
L 136.458654 293.277133 
L 136.676105 293.362054 
L 137.111008 293.280785 
L 137.54591 293.286578 
L 138.415715 293.204989 
L 138.633166 293.353067 
L 139.285519 293.165747 
L 139.937872 292.214763 
L 140.807677 291.971632 
L 141.242579 292.074398 
L 141.894933 292.212288 
L 142.329835 292.186768 
L 142.764737 291.731791 
L 143.19964 291.698203 
L 144.721797 291.763351 
L 146.896309 292.397937 
L 147.331211 292.523026 
L 148.635918 293.141996 
L 150.158076 293.19179 
L 151.02788 293.212177 
L 152.115136 293.444653 
L 152.767489 293.647991 
L 153.637294 293.680175 
L 154.072196 293.661864 
L 154.72455 293.665762 
L 156.464159 293.776657 
L 156.899061 293.808696 
L 157.768866 293.864221 
L 158.203768 293.899238 
L 159.291024 293.949771 
L 160.160828 293.869758 
L 160.59573 293.999775 
L 160.813182 293.923586 
L 161.465535 293.304587 
L 162.335339 293.1625 
L 162.987693 293.249832 
L 165.379655 293.267772 
L 166.032009 293.488005 
L 166.466911 293.474374 
L 167.554167 293.667018 
L 168.20652 293.898736 
L 168.641422 294.035934 
L 169.511227 294.386133 
L 169.946129 294.378465 
L 172.555543 294.767765 
L 172.772994 294.725091 
L 173.86025 295.035957 
L 175.382408 294.970578 
L 175.81731 295.001699 
L 176.252212 294.759854 
L 176.904566 294.881213 
L 179.079077 295.044978 
L 179.513979 294.966489 
L 181.036137 294.914897 
L 181.471039 295.057194 
L 182.123393 295.025647 
L 182.993197 295.126199 
L 183.645551 295.068374 
L 185.167709 294.934454 
L 186.907318 295.197227 
L 188.212025 294.946563 
L 188.864378 294.648273 
L 189.29928 294.653076 
L 189.951634 294.684903 
L 190.386536 294.675551 
L 190.821438 294.663163 
L 191.038889 294.588083 
L 191.25634 294.100851 
L 191.691243 292.899166 
L 192.126145 292.422133 
L 192.99595 292.16629 
L 193.865754 292.317058 
L 194.735559 292.28616 
L 195.387912 291.816685 
L 195.822814 291.712843 
L 197.997326 292.007929 
L 198.649679 292.225625 
L 199.084581 292.338186 
L 199.736935 292.59835 
L 200.389288 292.700722 
L 201.259093 292.872346 
L 201.476544 292.84994 
L 201.911446 293.034728 
L 202.781251 293.211374 
L 202.998702 293.266484 
L 203.433604 293.529907 
L 203.868506 293.460974 
L 205.608115 293.715115 
L 205.825567 293.765841 
L 206.260469 293.732355 
L 208.000078 293.952038 
L 208.652431 294.228017 
L 209.087334 294.189375 
L 209.304785 294.208766 
L 209.522236 294.081427 
L 210.609492 294.261965 
L 211.914198 294.084253 
L 213.653807 294.340675 
L 214.306161 294.375572 
L 214.741063 294.226442 
L 214.958514 294.288382 
L 215.393417 294.135826 
L 215.610868 294.196194 
L 216.698123 293.727404 
L 216.915574 293.670876 
L 217.567928 293.084897 
L 218.220281 292.884458 
L 218.655184 292.996249 
L 219.307537 293.12242 
L 219.742439 293.10522 
L 220.177342 293.185304 
L 221.916951 293.354601 
L 222.351853 293.58328 
L 222.786755 293.702807 
L 223.221657 293.691946 
L 223.874011 293.707283 
L 224.308913 293.710882 
L 224.743815 293.821947 
L 225.61362 293.820759 
L 227.353229 294.241797 
L 227.788131 294.090508 
L 228.223034 294.0981 
L 228.875387 294.032585 
L 229.310289 294.01122 
L 229.52774 293.962677 
L 230.180094 293.579956 
L 231.702252 293.096766 
L 232.137154 293.080342 
L 233.441861 293.079784 
L 233.876763 293.202574 
L 234.311665 293.150228 
L 234.746568 293.105202 
L 235.18147 292.703186 
L 235.616372 292.447446 
L 236.051274 292.566845 
L 236.486177 292.572004 
L 238.443237 293.032356 
L 238.878139 293.132376 
L 239.313041 293.242856 
L 241.270102 293.072359 
L 241.487553 293.01013 
L 242.357357 293.190621 
L 243.009711 293.200023 
L 245.184222 293.42598 
L 246.271478 293.330717 
L 247.141282 293.170985 
L 247.358733 293.171494 
L 247.793636 293.329496 
L 249.315794 293.250474 
L 249.968147 293.214534 
L 250.403049 293.345931 
L 250.620501 293.285709 
L 251.490305 293.516652 
L 252.36011 293.546146 
L 252.795012 293.553298 
L 253.447365 293.609972 
L 254.31717 293.603891 
L 254.969523 293.568748 
L 255.621877 293.703797 
L 256.491681 293.687743 
L 258.666193 293.635553 
L 259.318546 293.683652 
L 259.753448 293.635568 
L 260.18835 293.705408 
L 260.623253 293.628945 
L 261.058155 293.642477 
L 261.92796 293.508625 
L 262.362862 293.51707 
L 263.667569 293.171182 
L 264.319922 293.174829 
L 264.972275 293.149432 
L 265.624629 293.109031 
L 267.146787 293.047713 
L 267.581689 292.527741 
L 268.016591 292.394843 
L 268.668945 292.435209 
L 269.321298 292.466916 
L 269.7562 292.514196 
L 270.408554 292.420726 
L 271.060907 292.475961 
L 271.49581 292.428756 
L 272.583065 292.652783 
L 273.235419 292.724202 
L 274.105223 292.132507 
L 274.540125 292.3473 
L 274.975028 292.304974 
L 276.932088 292.619215 
L 277.149539 292.732051 
L 277.36699 292.715434 
L 277.801892 292.46346 
L 278.236795 292.444014 
L 279.32405 292.615022 
L 279.758953 292.509686 
L 283.238171 293.027232 
L 283.455622 293.018137 
L 283.890524 293.151359 
L 284.325427 293.241397 
L 284.97778 293.377743 
L 285.412682 293.402165 
L 285.847584 293.300254 
L 286.065036 293.393075 
L 286.499938 293.298591 
L 286.93484 293.323888 
L 291.066412 293.146384 
L 291.501314 293.237245 
L 293.675825 293.253633 
L 294.328179 293.175929 
L 295.415434 293.125851 
L 295.850337 292.957187 
L 296.50269 292.70381 
L 297.372495 287.722546 
L 298.677201 283.362906 
L 299.764457 280.229472 
L 300.851713 277.622113 
L 301.504066 276.514177 
L 302.591322 274.593516 
L 303.243675 273.759008 
L 305.200736 271.855072 
L 306.940345 270.744581 
L 307.592698 270.097719 
L 308.0276 269.597091 
L 308.679954 268.912854 
L 309.549758 268.374162 
L 311.72427 266.458712 
L 312.594074 265.974117 
L 314.116232 265.83463 
L 314.768586 265.971401 
L 315.203488 265.957192 
L 315.63839 265.920799 
L 316.073292 265.897293 
L 316.943097 265.849596 
L 317.812901 265.643298 
L 318.030353 265.611374 
L 318.682706 265.279408 
L 319.552511 265.265727 
L 319.769962 265.257218 
L 320.204864 265.374772 
L 320.422315 265.217889 
L 320.639766 265.227861 
L 322.814278 264.174694 
L 324.988789 264.262725 
L 325.641142 264.023624 
L 327.1633 264.043507 
L 327.598203 264.071859 
L 328.250556 263.794663 
L 330.207616 263.334577 
L 330.642518 263.381636 
L 330.85997 263.499236 
L 332.164676 263.467259 
L 332.599579 263.630722 
L 334.121737 263.522488 
L 334.556639 263.418855 
L 334.991541 263.290705 
L 335.426443 263.142739 
L 337.166052 262.964401 
L 337.600955 262.996733 
L 338.470759 262.839571 
L 338.905662 262.334201 
L 339.340564 261.841305 
L 340.210368 261.577611 
L 341.949977 262.214442 
L 342.38488 262.264355 
L 344.34194 262.193061 
L 345.211745 262.632369 
L 346.951354 262.667474 
L 349.560767 263.122375 
L 350.213121 263.198469 
L 351.082925 263.243153 
L 351.300376 263.200932 
L 352.170181 263.466369 
L 352.605083 263.557305 
L 353.039985 263.566149 
L 353.474888 263.584964 
L 353.90979 263.497648 
L 354.997046 263.529498 
L 355.431948 263.435654 
L 357.171557 263.673404 
L 357.389008 263.594285 
L 358.258813 263.766255 
L 359.346068 263.852891 
L 359.563519 263.727872 
L 361.303129 264.293216 
L 361.955482 264.316383 
L 363.260189 264.221997 
L 363.912542 264.459289 
L 364.564896 264.551229 
L 364.782347 264.58042 
L 364.999798 264.810651 
L 365.217249 264.84167 
L 365.4347 264.73785 
L 365.869602 264.797166 
L 366.521956 264.733526 
L 366.739407 264.60735 
L 367.174309 264.753163 
L 367.609211 264.643087 
L 368.479016 264.661275 
L 368.913918 264.854605 
L 369.131369 264.861272 
L 369.348821 264.742068 
L 371.523332 264.844879 
L 372.175685 264.77673 
L 372.610588 264.884959 
L 373.04549 264.972278 
L 374.567648 265.69957 
L 375.437452 265.440856 
L 376.742159 265.226587 
L 377.177061 265.209653 
L 378.699219 264.982994 
L 379.786475 265.212732 
L 380.003926 265.19584 
L 380.438828 265.488659 
L 380.65628 265.493127 
L 381.091182 265.648172 
L 381.743535 265.498193 
L 382.178438 265.470604 
L 383.918047 265.312345 
L 384.787851 265.327664 
L 385.222753 265.319928 
L 385.657656 265.58786 
L 386.52746 265.483653 
L 387.179814 265.382456 
L 387.397265 265.443378 
L 387.832167 265.266382 
L 388.267069 265.251437 
L 388.919423 265.048005 
L 390.006678 264.953765 
L 391.093934 264.804084 
L 393.485897 265.055985 
L 394.355701 265.038998 
L 394.790603 264.742356 
L 395.008055 264.758233 
L 395.442957 264.62433 
L 395.877859 264.560141 
L 396.312761 264.633822 
L 396.747664 264.745765 
L 398.269822 264.264376 
L 398.487273 264.255842 
L 398.487273 264.255842 
" style="fill:none;stroke:#000000;stroke-linecap:square;stroke-width:1.5;"/>
   </g>
   <g id="line2d_21">
    <path clip-path="url(#pf82b5dd120)" d="M 73.832727 264.067341 
L 74.702532 264.241039 
L 75.137434 264.400993 
L 76.877043 263.981318 
L 77.094494 263.855485 
L 77.529397 263.796346 
L 78.18175 263.537805 
L 78.399201 263.597398 
L 78.616652 263.511462 
L 78.834103 263.56027 
L 79.051555 263.383505 
L 79.921359 258.443927 
L 81.008615 254.562498 
L 81.660968 252.995159 
L 84.052931 248.248101 
L 84.705284 246.74749 
L 86.444893 243.834773 
L 86.879795 243.402573 
L 88.184502 242.246377 
L 88.401953 242.11915 
L 89.489209 240.762358 
L 90.141562 240.49884 
L 90.576465 240.527672 
L 91.011367 240.429722 
L 91.66372 240.220176 
L 92.316074 239.682299 
L 92.533525 239.605704 
L 93.185878 239.042283 
L 93.620781 238.876615 
L 94.273134 238.833767 
L 94.708036 238.608105 
L 94.925487 238.653745 
L 96.882548 237.74763 
L 97.31745 237.535147 
L 98.404706 237.273609 
L 98.839608 237.038778 
L 99.27451 237.147536 
L 100.796668 236.594886 
L 101.23157 236.314092 
L 101.449021 236.198814 
L 102.536277 236.345658 
L 102.753728 236.239817 
L 103.406082 236.439467 
L 103.623533 236.577 
L 105.145691 236.498949 
L 106.015495 236.062671 
L 106.450398 236.353321 
L 106.8853 236.455191 
L 107.320202 236.674 
L 108.190007 236.611469 
L 109.059811 237.011978 
L 110.364518 237.545467 
L 111.451774 237.808571 
L 111.886676 237.814137 
L 112.756481 238.248968 
L 113.191383 238.195934 
L 113.843736 238.23922 
L 114.061187 238.090755 
L 114.49609 238.027064 
L 115.365894 237.505642 
L 116.235699 237.82977 
L 116.888052 237.63686 
L 117.322954 237.377875 
L 118.192759 237.010508 
L 119.062563 236.264721 
L 119.497466 236.130011 
L 119.932368 235.933789 
L 121.237075 235.819488 
L 121.889428 236.009465 
L 122.324331 236.203743 
L 122.759233 236.112734 
L 122.976684 236.178681 
L 123.411586 236.014737 
L 123.846488 236.221915 
L 124.716293 236.409686 
L 125.151195 236.433325 
L 126.673353 236.933151 
L 126.890804 236.994615 
L 127.108255 236.90249 
L 127.760609 237.002951 
L 128.195511 236.799355 
L 128.630413 236.535672 
L 129.065316 236.56015 
L 129.500218 236.444522 
L 129.93512 236.357005 
L 130.370023 236.435915 
L 131.457278 236.10546 
L 131.674729 236.211586 
L 135.153948 234.778167 
L 137.111008 235.067665 
L 137.54591 235.088186 
L 138.633166 234.579273 
L 138.850617 234.723642 
L 139.285519 234.809667 
L 139.720421 234.89304 
L 140.155324 234.918072 
L 141.677482 235.491979 
L 142.764737 235.455648 
L 143.19964 235.338505 
L 145.591602 236.512013 
L 146.678858 236.684442 
L 147.331211 236.752136 
L 147.766113 236.829319 
L 149.07082 236.522175 
L 151.245332 235.612895 
L 151.680234 235.530844 
L 152.115136 235.556228 
L 152.984941 235.341267 
L 153.419843 235.180191 
L 156.464159 235.20152 
L 156.68161 235.092319 
L 158.856121 235.198803 
L 159.508475 234.915413 
L 159.943377 234.953202 
L 160.160828 234.865827 
L 160.59573 234.902597 
L 162.552791 234.528646 
L 163.205144 234.535661 
L 163.857497 234.49886 
L 164.2924 234.553711 
L 164.509851 234.66521 
L 166.466911 234.053833 
L 167.336716 233.84535 
L 167.554167 233.785052 
L 167.989069 233.815197 
L 168.20652 233.771742 
L 168.858874 233.888686 
L 169.293776 233.860322 
L 169.511227 233.917836 
L 170.381031 233.685154 
L 170.815934 233.509858 
L 171.250836 233.395504 
L 171.903189 233.494443 
L 172.120641 233.473292 
L 172.555543 233.266395 
L 173.425347 233.461207 
L 174.077701 233.247936 
L 174.512603 233.321931 
L 174.730054 233.229729 
L 174.947505 233.269264 
L 175.382408 233.54088 
L 175.81731 233.477989 
L 176.252212 233.470277 
L 177.77437 232.812884 
L 178.861626 233.009059 
L 179.948881 232.720266 
L 181.036137 232.738098 
L 183.210648 233.076171 
L 183.645551 233.238976 
L 184.080453 233.140737 
L 184.515355 233.084066 
L 185.820062 233.350929 
L 186.037513 233.51573 
L 186.907318 233.51871 
L 187.559671 233.466745 
L 189.081829 234.414937 
L 189.734183 234.519805 
L 190.169085 234.409116 
L 190.386536 234.486047 
L 191.473792 234.069743 
L 192.561047 233.921822 
L 192.99595 234.091333 
L 193.430852 234.489654 
L 193.648303 234.43173 
L 194.083205 234.740555 
L 194.300656 234.721555 
L 195.170461 235.042091 
L 195.605363 234.845281 
L 196.257717 234.257155 
L 196.692619 233.924178 
L 197.344972 233.337739 
L 197.997326 233.126627 
L 198.432228 233.081886 
L 198.86713 232.951711 
L 199.519484 232.928329 
L 200.171837 233.345403 
L 200.389288 233.533728 
L 201.259093 233.52696 
L 201.911446 233.470575 
L 202.346348 233.454455 
L 204.085957 233.200514 
L 204.738311 233.34288 
L 204.955762 233.506531 
L 207.130273 233.334328 
L 207.347725 233.190402 
L 208.000078 233.053639 
L 208.217529 233.022863 
L 208.652431 233.225449 
L 209.087334 233.154653 
L 209.957138 233.454453 
L 210.39204 233.685606 
L 212.349101 233.617722 
L 212.784003 233.451689 
L 213.001454 233.426509 
L 213.436356 233.689589 
L 214.08871 233.973092 
L 214.523612 234.019326 
L 214.741063 233.908072 
L 215.175965 234.168337 
L 215.610868 234.052231 
L 216.698123 233.690797 
L 217.133026 233.79404 
L 217.350477 234.095456 
L 217.567928 234.20036 
L 217.785379 234.032008 
L 219.090086 234.094913 
L 219.524988 234.261142 
L 221.482048 233.907131 
L 221.916951 233.787951 
L 222.134402 233.856141 
L 222.786755 233.645709 
L 223.439109 233.427704 
L 223.874011 233.40583 
L 224.091462 233.487652 
L 224.526364 233.361394 
L 224.961267 233.416703 
L 225.396169 233.366431 
L 225.61362 233.19768 
L 225.831071 232.795897 
L 226.483424 230.427797 
L 227.135778 228.083076 
L 227.788131 226.833291 
L 228.440485 226.342059 
L 228.657936 226.234732 
L 229.092838 226.269003 
L 229.310289 226.219811 
L 230.614996 226.858882 
L 231.049898 226.810737 
L 231.919703 226.89604 
L 232.137154 227.037434 
L 232.354605 227.038438 
L 233.006959 227.529099 
L 233.22441 227.614615 
L 233.659312 227.358325 
L 234.094214 227.638788 
L 234.529116 227.715744 
L 234.746568 227.730812 
L 234.964019 227.924807 
L 235.616372 228.061519 
L 236.921079 229.569726 
L 237.13853 229.686824 
L 237.355981 229.66927 
L 238.225786 230.475836 
L 238.878139 230.92092 
L 239.313041 231.146672 
L 242.574809 232.150097 
L 243.009711 232.441664 
L 243.662064 232.573961 
L 244.096966 232.765074 
L 244.531869 232.844135 
L 245.401673 232.971555 
L 245.836576 232.817516 
L 246.70638 232.962785 
L 247.141282 232.904501 
L 248.445989 232.844898 
L 248.66344 232.692287 
L 248.880891 232.356329 
L 249.098343 232.254244 
L 249.533245 232.277328 
L 249.968147 232.24783 
L 250.837952 232.243308 
L 251.272854 232.229628 
L 251.707756 232.052456 
L 251.925207 231.921594 
L 253.664816 232.025846 
L 254.099719 232.220088 
L 254.534621 231.920495 
L 254.969523 232.008097 
L 255.621877 232.265662 
L 256.056779 232.317871 
L 256.27423 232.687415 
L 256.491681 232.826352 
L 256.709132 232.748895 
L 258.013839 233.253444 
L 258.448741 233.20533 
L 258.666193 233.330541 
L 259.101095 233.198 
L 259.753448 233.410795 
L 260.18835 233.409259 
L 260.405802 233.372022 
L 260.840704 233.536071 
L 261.275606 233.579305 
L 262.797764 233.883574 
L 264.102471 233.791967 
L 264.319922 233.955263 
L 265.407178 234.126043 
L 266.059531 234.316433 
L 266.276982 234.172983 
L 266.929336 234.305027 
L 267.79914 234.154656 
L 268.016591 234.017567 
L 268.668945 234.247503 
L 270.191103 234.368006 
L 270.408554 234.537509 
L 270.843456 234.519368 
L 271.060907 234.584667 
L 272.148163 234.183101 
L 272.583065 234.171432 
L 273.017967 234.150464 
L 273.235419 234.134352 
L 273.670321 233.881183 
L 275.40993 233.482427 
L 275.627381 233.329923 
L 275.844832 233.331556 
L 276.279735 233.08579 
L 276.932088 233.12715 
L 277.801892 233.311473 
L 278.236795 233.108804 
L 278.454246 232.958421 
L 278.671697 232.976693 
L 278.889148 233.155786 
L 279.32405 233.194013 
L 279.541502 233.295319 
L 280.411306 233.136862 
L 281.281111 232.734765 
L 281.716013 232.506089 
L 282.150915 232.453513 
L 282.585817 232.289662 
L 283.02072 232.111439 
L 284.325427 231.717522 
L 285.847584 231.139755 
L 286.499938 231.35418 
L 288.674449 231.001977 
L 289.326803 230.719939 
L 289.761705 230.396907 
L 290.414058 230.156374 
L 290.631509 230.221245 
L 291.718765 229.947931 
L 293.893277 230.544317 
L 296.285239 230.708018 
L 296.50269 230.906066 
L 297.372495 236.085008 
L 298.45975 240.134938 
L 299.981908 243.950443 
L 302.373871 248.298002 
L 303.896029 250.411305 
L 304.548382 250.941959 
L 304.983284 251.245382 
L 305.418187 251.429991 
L 306.940345 252.841104 
L 307.375247 253.279067 
L 309.114856 254.595313 
L 309.984661 254.951992 
L 310.419563 255.257624 
L 310.854465 255.406361 
L 312.376623 256.501146 
L 313.246428 256.811737 
L 315.203488 257.352053 
L 315.63839 257.493282 
L 316.073292 257.80128 
L 316.290743 257.887033 
L 316.725646 258.246967 
L 318.900157 259.128864 
L 320.857217 258.925205 
L 323.901533 259.513703 
L 324.336435 259.473328 
L 324.988789 259.849408 
L 325.641142 259.558085 
L 325.858593 259.28153 
L 326.728398 259.191695 
L 327.598203 259.318795 
L 328.033105 259.36524 
L 328.902909 259.541201 
L 329.555263 259.513416 
L 329.990165 259.619875 
L 332.382128 259.499686 
L 332.599579 259.613183 
L 333.686834 259.351594 
L 334.121737 259.496925 
L 334.556639 259.413339 
L 335.208992 259.512966 
L 336.513699 259.590398 
L 337.600955 260.171335 
L 337.818406 260.280321 
L 338.253308 260.146952 
L 338.470759 260.200423 
L 338.905662 260.095384 
L 339.340564 260.293782 
L 339.558015 260.176161 
L 340.210368 260.260921 
L 340.645271 260.602295 
L 341.297624 260.576049 
L 342.167429 260.401037 
L 342.38488 260.267646 
L 343.254684 260.456668 
L 344.994293 260.485149 
L 345.429196 260.332721 
L 345.646647 260.420016 
L 346.081549 260.20313 
L 346.733902 260.420551 
L 348.25606 260.94596 
L 349.343316 261.148079 
L 351.95273 261.408635 
L 352.387632 261.603803 
L 353.039985 261.653555 
L 353.474888 261.662053 
L 353.692339 261.610423 
L 354.127241 261.878552 
L 354.562143 261.757856 
L 354.779594 261.707229 
L 355.214497 261.869844 
L 355.649399 261.809819 
L 356.519204 261.870181 
L 357.389008 261.717385 
L 358.476264 261.791416 
L 360.650775 262.139814 
L 361.085677 262.295718 
L 362.390384 262.247291 
L 362.825286 262.096077 
L 363.47764 262.09598 
L 364.129993 261.881136 
L 364.564896 261.637851 
L 366.304505 261.503784 
L 367.174309 261.522671 
L 367.826663 261.676144 
L 368.479016 261.700051 
L 369.566272 261.785904 
L 370.218625 261.990891 
L 371.08843 261.995297 
L 371.523332 261.974001 
L 371.958234 261.907799 
L 372.393136 261.824943 
L 373.04549 262.02795 
L 373.480392 262.118044 
L 374.350197 262.067293 
L 374.785099 262.32922 
L 375.654903 262.568308 
L 376.089806 262.6714 
L 376.524708 262.637768 
L 377.611964 262.704843 
L 378.046866 262.695375 
L 378.481768 262.768988 
L 378.699219 262.681674 
L 379.134122 262.838393 
L 379.786475 262.716715 
L 380.221377 262.772865 
L 380.873731 262.759849 
L 381.308633 262.809417 
L 381.960986 262.736351 
L 382.61334 262.830699 
L 382.830791 262.862216 
L 383.048242 262.771741 
L 384.135498 263.034002 
L 385.440205 263.080854 
L 385.875107 262.959607 
L 386.744911 262.792146 
L 387.832167 262.627403 
L 388.48452 262.719689 
L 389.136874 262.483569 
L 391.311385 262.839549 
L 391.963739 262.685666 
L 392.833543 262.945381 
L 393.703348 263.319354 
L 393.920799 263.407006 
L 394.573152 263.413422 
L 395.442957 263.472429 
L 396.312761 263.276184 
L 396.747664 263.112064 
L 398.269822 262.863993 
L 398.487273 262.902981 
L 398.487273 262.902981 
" style="fill:none;stroke:#000000;stroke-linecap:square;stroke-width:1.5;"/>
   </g>
   <g id="patch_3">
    <path d="M 57.6 307.584 
L 57.6 41.472 
" style="fill:none;stroke:#000000;stroke-linecap:square;stroke-linejoin:miter;stroke-width:0.8;"/>
   </g>
   <g id="patch_4">
    <path d="M 414.72 307.584 
L 414.72 41.472 
" style="fill:none;stroke:#000000;stroke-linecap:square;stroke-linejoin:miter;stroke-width:0.8;"/>
   </g>
   <g id="patch_5">
    <path d="M 57.6 307.584 
L 414.72 307.584 
" style="fill:none;stroke:#000000;stroke-linecap:square;stroke-linejoin:miter;stroke-width:0.8;"/>
   </g>
   <g id="patch_6">
    <path d="M 57.6 41.472 
L 414.72 41.472 
" style="fill:none;stroke:#000000;stroke-linecap:square;stroke-linejoin:miter;stroke-width:0.8;"/>
   </g>
  </g>
 </g>
 <defs>
  <clipPath id="pf82b5dd120">
   <rect height="266.112" width="357.12" x="57.6" y="41.472"/>
  </clipPath>
 </defs>
</svg>
