<?xml version="1.0" encoding="utf-8" standalone="no"?>
<!DOCTYPE svg PUBLIC "-//W3C//DTD SVG 1.1//EN"
  "http://www.w3.org/Graphics/SVG/1.1/DTD/svg11.dtd">
<svg height="345.6pt" version="1.1" viewBox="0 0 460.8 345.6" width="460.8pt" xmlns="http://www.w3.org/2000/svg" xmlns:xlink="http://www.w3.org/1999/xlink">
 <metadata>
  <rdf:RDF xmlns:cc="http://creativecommons.org/ns#" xmlns:dc="http://purl.org/dc/elements/1.1/" xmlns:rdf="http://www.w3.org/1999/02/22-rdf-syntax-ns#">
   <cc:Work>
    <dc:type rdf:resource="http://purl.org/dc/dcmitype/StillImage"/>
    <dc:date>2024-08-06T14:44:59.666487</dc:date>
    <dc:format>image/svg+xml</dc:format>
    <dc:creator>
     <cc:Agent>
      <dc:title>Matplotlib v3.4.2, https://matplotlib.org/</dc:title>
     </cc:Agent>
    </dc:creator>
   </cc:Work>
  </rdf:RDF>
 </metadata>
 <defs>
  <style type="text/css">*{stroke-linecap:butt;stroke-linejoin:round;}</style>
 </defs>
 <g id="figure_1">
  <g id="patch_1">
   <path d="M 0 345.6 
L 460.8 345.6 
L 460.8 0 
L 0 0 
z
" style="fill:#ffffff;"/>
  </g>
  <g id="axes_1">
   <g id="patch_2">
    <path d="M 57.6 307.584 
L 414.72 307.584 
L 414.72 41.472 
L 57.6 41.472 
z
" style="fill:#ffffff;"/>
   </g>
   <g id="matplotlib.axis_1">
    <g id="xtick_1">
     <g id="line2d_1">
      <defs>
       <path d="M 0 0 
L 0 3.5 
" id="m42c9d1e7c8" style="stroke:#000000;stroke-width:0.8;"/>
      </defs>
      <g>
       <use style="stroke:#000000;stroke-width:0.8;" x="59.701804" xlink:href="#m42c9d1e7c8" y="307.584"/>
      </g>
     </g>
     <g id="text_1">
      <!-- 0.75 -->
      <g transform="translate(48.568992 322.182437)scale(0.1 -0.1)">
       <defs>
        <path d="M 2034 4250 
Q 1547 4250 1301 3770 
Q 1056 3291 1056 2328 
Q 1056 1369 1301 889 
Q 1547 409 2034 409 
Q 2525 409 2770 889 
Q 3016 1369 3016 2328 
Q 3016 3291 2770 3770 
Q 2525 4250 2034 4250 
z
M 2034 4750 
Q 2819 4750 3233 4129 
Q 3647 3509 3647 2328 
Q 3647 1150 3233 529 
Q 2819 -91 2034 -91 
Q 1250 -91 836 529 
Q 422 1150 422 2328 
Q 422 3509 836 4129 
Q 1250 4750 2034 4750 
z
" id="DejaVuSans-30" transform="scale(0.015625)"/>
        <path d="M 684 794 
L 1344 794 
L 1344 0 
L 684 0 
L 684 794 
z
" id="DejaVuSans-2e" transform="scale(0.015625)"/>
        <path d="M 525 4666 
L 3525 4666 
L 3525 4397 
L 1831 0 
L 1172 0 
L 2766 4134 
L 525 4134 
L 525 4666 
z
" id="DejaVuSans-37" transform="scale(0.015625)"/>
        <path d="M 691 4666 
L 3169 4666 
L 3169 4134 
L 1269 4134 
L 1269 2991 
Q 1406 3038 1543 3061 
Q 1681 3084 1819 3084 
Q 2600 3084 3056 2656 
Q 3513 2228 3513 1497 
Q 3513 744 3044 326 
Q 2575 -91 1722 -91 
Q 1428 -91 1123 -41 
Q 819 9 494 109 
L 494 744 
Q 775 591 1075 516 
Q 1375 441 1709 441 
Q 2250 441 2565 725 
Q 2881 1009 2881 1497 
Q 2881 1984 2565 2268 
Q 2250 2553 1709 2553 
Q 1456 2553 1204 2497 
Q 953 2441 691 2322 
L 691 4666 
z
" id="DejaVuSans-35" transform="scale(0.015625)"/>
       </defs>
       <use xlink:href="#DejaVuSans-30"/>
       <use x="63.623047" xlink:href="#DejaVuSans-2e"/>
       <use x="95.410156" xlink:href="#DejaVuSans-37"/>
       <use x="159.033203" xlink:href="#DejaVuSans-35"/>
      </g>
     </g>
    </g>
    <g id="xtick_2">
     <g id="line2d_2">
      <g>
       <use style="stroke:#000000;stroke-width:0.8;" x="99.713241" xlink:href="#m42c9d1e7c8" y="307.584"/>
      </g>
     </g>
     <g id="text_2">
      <!-- 1.00 -->
      <g transform="translate(88.580428 322.182437)scale(0.1 -0.1)">
       <defs>
        <path d="M 794 531 
L 1825 531 
L 1825 4091 
L 703 3866 
L 703 4441 
L 1819 4666 
L 2450 4666 
L 2450 531 
L 3481 531 
L 3481 0 
L 794 0 
L 794 531 
z
" id="DejaVuSans-31" transform="scale(0.015625)"/>
       </defs>
       <use xlink:href="#DejaVuSans-31"/>
       <use x="63.623047" xlink:href="#DejaVuSans-2e"/>
       <use x="95.410156" xlink:href="#DejaVuSans-30"/>
       <use x="159.033203" xlink:href="#DejaVuSans-30"/>
      </g>
     </g>
    </g>
    <g id="xtick_3">
     <g id="line2d_3">
      <g>
       <use style="stroke:#000000;stroke-width:0.8;" x="139.724677" xlink:href="#m42c9d1e7c8" y="307.584"/>
      </g>
     </g>
     <g id="text_3">
      <!-- 1.25 -->
      <g transform="translate(128.591864 322.182437)scale(0.1 -0.1)">
       <defs>
        <path d="M 1228 531 
L 3431 531 
L 3431 0 
L 469 0 
L 469 531 
Q 828 903 1448 1529 
Q 2069 2156 2228 2338 
Q 2531 2678 2651 2914 
Q 2772 3150 2772 3378 
Q 2772 3750 2511 3984 
Q 2250 4219 1831 4219 
Q 1534 4219 1204 4116 
Q 875 4013 500 3803 
L 500 4441 
Q 881 4594 1212 4672 
Q 1544 4750 1819 4750 
Q 2544 4750 2975 4387 
Q 3406 4025 3406 3419 
Q 3406 3131 3298 2873 
Q 3191 2616 2906 2266 
Q 2828 2175 2409 1742 
Q 1991 1309 1228 531 
z
" id="DejaVuSans-32" transform="scale(0.015625)"/>
       </defs>
       <use xlink:href="#DejaVuSans-31"/>
       <use x="63.623047" xlink:href="#DejaVuSans-2e"/>
       <use x="95.410156" xlink:href="#DejaVuSans-32"/>
       <use x="159.033203" xlink:href="#DejaVuSans-35"/>
      </g>
     </g>
    </g>
    <g id="xtick_4">
     <g id="line2d_4">
      <g>
       <use style="stroke:#000000;stroke-width:0.8;" x="179.736113" xlink:href="#m42c9d1e7c8" y="307.584"/>
      </g>
     </g>
     <g id="text_4">
      <!-- 1.50 -->
      <g transform="translate(168.6033 322.182437)scale(0.1 -0.1)">
       <use xlink:href="#DejaVuSans-31"/>
       <use x="63.623047" xlink:href="#DejaVuSans-2e"/>
       <use x="95.410156" xlink:href="#DejaVuSans-35"/>
       <use x="159.033203" xlink:href="#DejaVuSans-30"/>
      </g>
     </g>
    </g>
    <g id="xtick_5">
     <g id="line2d_5">
      <g>
       <use style="stroke:#000000;stroke-width:0.8;" x="219.747549" xlink:href="#m42c9d1e7c8" y="307.584"/>
      </g>
     </g>
     <g id="text_5">
      <!-- 1.75 -->
      <g transform="translate(208.614737 322.182437)scale(0.1 -0.1)">
       <use xlink:href="#DejaVuSans-31"/>
       <use x="63.623047" xlink:href="#DejaVuSans-2e"/>
       <use x="95.410156" xlink:href="#DejaVuSans-37"/>
       <use x="159.033203" xlink:href="#DejaVuSans-35"/>
      </g>
     </g>
    </g>
    <g id="xtick_6">
     <g id="line2d_6">
      <g>
       <use style="stroke:#000000;stroke-width:0.8;" x="259.758985" xlink:href="#m42c9d1e7c8" y="307.584"/>
      </g>
     </g>
     <g id="text_6">
      <!-- 2.00 -->
      <g transform="translate(248.626173 322.182437)scale(0.1 -0.1)">
       <use xlink:href="#DejaVuSans-32"/>
       <use x="63.623047" xlink:href="#DejaVuSans-2e"/>
       <use x="95.410156" xlink:href="#DejaVuSans-30"/>
       <use x="159.033203" xlink:href="#DejaVuSans-30"/>
      </g>
     </g>
    </g>
    <g id="xtick_7">
     <g id="line2d_7">
      <g>
       <use style="stroke:#000000;stroke-width:0.8;" x="299.770421" xlink:href="#m42c9d1e7c8" y="307.584"/>
      </g>
     </g>
     <g id="text_7">
      <!-- 2.25 -->
      <g transform="translate(288.637609 322.182437)scale(0.1 -0.1)">
       <use xlink:href="#DejaVuSans-32"/>
       <use x="63.623047" xlink:href="#DejaVuSans-2e"/>
       <use x="95.410156" xlink:href="#DejaVuSans-32"/>
       <use x="159.033203" xlink:href="#DejaVuSans-35"/>
      </g>
     </g>
    </g>
    <g id="xtick_8">
     <g id="line2d_8">
      <g>
       <use style="stroke:#000000;stroke-width:0.8;" x="339.781858" xlink:href="#m42c9d1e7c8" y="307.584"/>
      </g>
     </g>
     <g id="text_8">
      <!-- 2.50 -->
      <g transform="translate(328.649045 322.182437)scale(0.1 -0.1)">
       <use xlink:href="#DejaVuSans-32"/>
       <use x="63.623047" xlink:href="#DejaVuSans-2e"/>
       <use x="95.410156" xlink:href="#DejaVuSans-35"/>
       <use x="159.033203" xlink:href="#DejaVuSans-30"/>
      </g>
     </g>
    </g>
    <g id="xtick_9">
     <g id="line2d_9">
      <g>
       <use style="stroke:#000000;stroke-width:0.8;" x="379.793294" xlink:href="#m42c9d1e7c8" y="307.584"/>
      </g>
     </g>
     <g id="text_9">
      <!-- 2.75 -->
      <g transform="translate(368.660481 322.182437)scale(0.1 -0.1)">
       <use xlink:href="#DejaVuSans-32"/>
       <use x="63.623047" xlink:href="#DejaVuSans-2e"/>
       <use x="95.410156" xlink:href="#DejaVuSans-37"/>
       <use x="159.033203" xlink:href="#DejaVuSans-35"/>
      </g>
     </g>
    </g>
   </g>
   <g id="matplotlib.axis_2">
    <g id="ytick_1">
     <g id="line2d_10">
      <defs>
       <path d="M 0 0 
L -3.5 0 
" id="m68036502b1" style="stroke:#000000;stroke-width:0.8;"/>
      </defs>
      <g>
       <use style="stroke:#000000;stroke-width:0.8;" x="57.6" xlink:href="#m68036502b1" y="268.408301"/>
      </g>
     </g>
     <g id="text_10">
      <!-- −80 -->
      <g transform="translate(29.495313 272.207519)scale(0.1 -0.1)">
       <defs>
        <path d="M 678 2272 
L 4684 2272 
L 4684 1741 
L 678 1741 
L 678 2272 
z
" id="DejaVuSans-2212" transform="scale(0.015625)"/>
        <path d="M 2034 2216 
Q 1584 2216 1326 1975 
Q 1069 1734 1069 1313 
Q 1069 891 1326 650 
Q 1584 409 2034 409 
Q 2484 409 2743 651 
Q 3003 894 3003 1313 
Q 3003 1734 2745 1975 
Q 2488 2216 2034 2216 
z
M 1403 2484 
Q 997 2584 770 2862 
Q 544 3141 544 3541 
Q 544 4100 942 4425 
Q 1341 4750 2034 4750 
Q 2731 4750 3128 4425 
Q 3525 4100 3525 3541 
Q 3525 3141 3298 2862 
Q 3072 2584 2669 2484 
Q 3125 2378 3379 2068 
Q 3634 1759 3634 1313 
Q 3634 634 3220 271 
Q 2806 -91 2034 -91 
Q 1263 -91 848 271 
Q 434 634 434 1313 
Q 434 1759 690 2068 
Q 947 2378 1403 2484 
z
M 1172 3481 
Q 1172 3119 1398 2916 
Q 1625 2713 2034 2713 
Q 2441 2713 2670 2916 
Q 2900 3119 2900 3481 
Q 2900 3844 2670 4047 
Q 2441 4250 2034 4250 
Q 1625 4250 1398 4047 
Q 1172 3844 1172 3481 
z
" id="DejaVuSans-38" transform="scale(0.015625)"/>
       </defs>
       <use xlink:href="#DejaVuSans-2212"/>
       <use x="83.789062" xlink:href="#DejaVuSans-38"/>
       <use x="147.412109" xlink:href="#DejaVuSans-30"/>
      </g>
     </g>
    </g>
    <g id="ytick_2">
     <g id="line2d_11">
      <g>
       <use style="stroke:#000000;stroke-width:0.8;" x="57.6" xlink:href="#m68036502b1" y="216.993145"/>
      </g>
     </g>
     <g id="text_11">
      <!-- −60 -->
      <g transform="translate(29.495313 220.792364)scale(0.1 -0.1)">
       <defs>
        <path d="M 2113 2584 
Q 1688 2584 1439 2293 
Q 1191 2003 1191 1497 
Q 1191 994 1439 701 
Q 1688 409 2113 409 
Q 2538 409 2786 701 
Q 3034 994 3034 1497 
Q 3034 2003 2786 2293 
Q 2538 2584 2113 2584 
z
M 3366 4563 
L 3366 3988 
Q 3128 4100 2886 4159 
Q 2644 4219 2406 4219 
Q 1781 4219 1451 3797 
Q 1122 3375 1075 2522 
Q 1259 2794 1537 2939 
Q 1816 3084 2150 3084 
Q 2853 3084 3261 2657 
Q 3669 2231 3669 1497 
Q 3669 778 3244 343 
Q 2819 -91 2113 -91 
Q 1303 -91 875 529 
Q 447 1150 447 2328 
Q 447 3434 972 4092 
Q 1497 4750 2381 4750 
Q 2619 4750 2861 4703 
Q 3103 4656 3366 4563 
z
" id="DejaVuSans-36" transform="scale(0.015625)"/>
       </defs>
       <use xlink:href="#DejaVuSans-2212"/>
       <use x="83.789062" xlink:href="#DejaVuSans-36"/>
       <use x="147.412109" xlink:href="#DejaVuSans-30"/>
      </g>
     </g>
    </g>
    <g id="ytick_3">
     <g id="line2d_12">
      <g>
       <use style="stroke:#000000;stroke-width:0.8;" x="57.6" xlink:href="#m68036502b1" y="165.57799"/>
      </g>
     </g>
     <g id="text_12">
      <!-- −40 -->
      <g transform="translate(29.495313 169.377209)scale(0.1 -0.1)">
       <defs>
        <path d="M 2419 4116 
L 825 1625 
L 2419 1625 
L 2419 4116 
z
M 2253 4666 
L 3047 4666 
L 3047 1625 
L 3713 1625 
L 3713 1100 
L 3047 1100 
L 3047 0 
L 2419 0 
L 2419 1100 
L 313 1100 
L 313 1709 
L 2253 4666 
z
" id="DejaVuSans-34" transform="scale(0.015625)"/>
       </defs>
       <use xlink:href="#DejaVuSans-2212"/>
       <use x="83.789062" xlink:href="#DejaVuSans-34"/>
       <use x="147.412109" xlink:href="#DejaVuSans-30"/>
      </g>
     </g>
    </g>
    <g id="ytick_4">
     <g id="line2d_13">
      <g>
       <use style="stroke:#000000;stroke-width:0.8;" x="57.6" xlink:href="#m68036502b1" y="114.162835"/>
      </g>
     </g>
     <g id="text_13">
      <!-- −20 -->
      <g transform="translate(29.495313 117.962054)scale(0.1 -0.1)">
       <use xlink:href="#DejaVuSans-2212"/>
       <use x="83.789062" xlink:href="#DejaVuSans-32"/>
       <use x="147.412109" xlink:href="#DejaVuSans-30"/>
      </g>
     </g>
    </g>
    <g id="ytick_5">
     <g id="line2d_14">
      <g>
       <use style="stroke:#000000;stroke-width:0.8;" x="57.6" xlink:href="#m68036502b1" y="62.74768"/>
      </g>
     </g>
     <g id="text_14">
      <!-- 0 -->
      <g transform="translate(44.2375 66.546899)scale(0.1 -0.1)">
       <use xlink:href="#DejaVuSans-30"/>
      </g>
     </g>
    </g>
   </g>
   <g id="line2d_15">
    <path clip-path="url(#pb95b728b6f)" d="M 73.832727 168.323619 
L 74.465582 168.447743 
L 75.098437 168.475625 
L 75.414864 168.525423 
L 75.731292 168.386043 
L 76.047719 168.257472 
L 77.155215 168.02268 
L 78.579139 168.467616 
L 78.895566 168.223234 
L 79.686635 168.370683 
L 79.844848 168.220913 
L 80.635917 168.345306 
L 81.110558 168.378254 
L 81.426986 168.319074 
L 81.585199 168.317361 
L 81.901627 168.446296 
L 82.059841 168.361423 
L 83.167337 168.89625 
L 83.483764 168.707186 
L 83.641978 168.505909 
L 85.698756 168.530654 
L 86.173397 168.413711 
L 86.648038 168.484656 
L 86.964466 168.428784 
L 88.071962 168.91675 
L 88.704817 168.725043 
L 88.86303 168.614807 
L 89.179458 168.644939 
L 89.495885 168.455064 
L 89.812313 168.56367 
L 90.603381 168.453271 
L 90.761595 168.639911 
L 91.078022 168.629864 
L 91.236236 168.806347 
L 91.710877 168.699762 
L 91.869091 168.547372 
L 92.185518 168.614546 
L 92.501946 169.051774 
L 93.134801 168.957514 
L 93.767656 169.207582 
L 94.716938 168.916151 
L 95.033365 168.971186 
L 95.66622 168.887371 
L 95.824434 168.803151 
L 96.773716 169.06213 
L 97.881212 168.688885 
L 99.146922 168.908616 
L 99.305136 168.774145 
L 99.779777 168.991094 
L 100.096204 168.960734 
L 100.729059 169.410055 
L 101.2037 169.255002 
L 101.678341 169.459719 
L 102.311196 169.626375 
L 102.627624 169.412664 
L 103.418692 169.418956 
L 103.893333 169.373433 
L 104.526188 169.374096 
L 104.684402 169.278295 
L 104.842616 169.406444 
L 105.159043 169.331355 
L 105.47547 169.37379 
L 106.582967 182.137206 
L 107.690463 188.277192 
L 109.589027 195.191823 
L 110.538309 197.40156 
L 111.804019 199.515786 
L 112.595088 200.503386 
L 113.227943 201.372673 
L 113.860797 202.090656 
L 114.335439 202.369344 
L 114.651866 202.750997 
L 115.917576 203.893314 
L 116.550431 204.329485 
L 116.866858 204.558109 
L 117.341499 204.992799 
L 120.34756 206.1075 
L 121.455056 206.220329 
L 122.246124 206.125307 
L 123.986475 206.566795 
L 124.302903 206.641022 
L 124.61933 206.893435 
L 126.201467 206.870199 
L 126.359681 206.705775 
L 126.992536 206.991358 
L 127.308963 207.059659 
L 127.625391 207.189396 
L 128.732887 207.094974 
L 129.049314 207.055908 
L 129.682169 206.874691 
L 129.998596 206.731918 
L 130.15681 206.726072 
L 131.580734 205.709208 
L 131.897161 205.66999 
L 133.162871 205.616784 
L 133.637512 205.455054 
L 134.586794 205.519566 
L 135.061435 205.834755 
L 136.010718 205.451599 
L 136.327145 205.467483 
L 136.643573 205.512035 
L 136.801786 205.515056 
L 137.118214 205.283793 
L 137.276427 205.333585 
L 137.909282 205.135965 
L 138.383923 204.959136 
L 138.858565 204.78565 
L 139.174992 204.829943 
L 139.333206 204.732447 
L 139.649633 204.862671 
L 139.966061 205.080102 
L 140.124274 205.051793 
L 140.440702 205.198748 
L 140.598915 205.117851 
L 140.915343 205.178559 
L 141.389984 205.070917 
L 142.022839 205.11606 
L 142.339266 205.23475 
L 142.49748 205.346572 
L 142.813907 205.325087 
L 143.130335 205.384079 
L 143.446762 205.449112 
L 144.079617 205.659733 
L 144.712472 205.520607 
L 145.0289 205.234251 
L 146.452823 205.258863 
L 146.927464 205.161564 
L 147.402105 205.180415 
L 147.718533 205.122661 
L 148.193174 205.174628 
L 148.509601 204.99869 
L 148.826029 204.875807 
L 149.142456 204.970193 
L 149.30067 205.027557 
L 149.458884 204.954507 
L 149.775311 205.003144 
L 149.933525 204.88598 
L 150.249952 204.865379 
L 150.724593 204.599283 
L 151.041021 204.503364 
L 151.357448 204.355889 
L 152.30673 204.384079 
L 152.781372 204.130101 
L 152.939585 204.109023 
L 153.414226 204.277807 
L 154.047081 204.20026 
L 154.363509 204.303837 
L 155.312791 204.217045 
L 155.629219 204.095527 
L 156.894928 204.119562 
L 157.527783 204.099036 
L 157.844211 204.110021 
L 158.160638 204.089898 
L 158.635279 204.555104 
L 158.951707 204.530314 
L 159.742775 204.392671 
L 160.217416 204.65345 
L 160.533844 204.834063 
L 160.850271 204.872923 
L 162.432408 205.282196 
L 162.907049 205.197113 
L 163.856332 205.469938 
L 164.172759 205.366693 
L 165.122041 205.326951 
L 165.754896 205.311551 
L 166.071324 205.191923 
L 166.862392 205.151844 
L 167.495247 205.244699 
L 167.811675 205.093831 
L 167.969888 204.920258 
L 168.286316 204.992035 
L 168.760957 204.720016 
L 169.235598 204.734925 
L 169.552026 204.75234 
L 170.026667 204.570241 
L 171.45059 204.866239 
L 173.032727 204.82008 
L 173.349155 204.863859 
L 173.665582 204.810914 
L 174.140223 204.62818 
L 174.298437 204.620404 
L 174.456651 204.732973 
L 174.614864 204.707996 
L 174.931292 204.502507 
L 177.620925 203.95457 
L 178.886635 204.253163 
L 179.203062 204.364716 
L 179.677703 204.510951 
L 179.994131 204.420966 
L 180.310558 204.253395 
L 180.626986 204.229247 
L 180.785199 204.211627 
L 181.101627 204.339712 
L 181.418054 204.294612 
L 184.265901 203.843244 
L 184.582329 203.750103 
L 185.215183 203.715711 
L 185.689825 204.066103 
L 185.848038 204.137393 
L 186.639107 203.84435 
L 186.797321 203.871529 
L 187.113748 203.761707 
L 187.746603 203.942625 
L 189.645167 203.746013 
L 191.227305 204.339237 
L 191.543732 204.379541 
L 192.334801 204.823915 
L 193.284083 204.656558 
L 193.758724 204.677611 
L 193.916938 204.554269 
L 194.233365 204.556139 
L 195.182648 204.359775 
L 195.973716 204.68395 
L 197.39764 205.179845 
L 197.555853 205.165123 
L 197.872281 205.454684 
L 198.188708 205.418915 
L 198.346922 205.390371 
L 198.505136 205.241635 
L 198.979777 205.293796 
L 201.194769 205.366867 
L 201.827624 205.157558 
L 202.302265 205.338829 
L 202.618692 205.704051 
L 202.93512 205.696488 
L 203.409761 205.752561 
L 203.567974 205.711334 
L 203.884402 205.46689 
L 204.359043 205.461997 
L 204.991898 205.232355 
L 205.466539 205.481068 
L 206.732249 205.244579 
L 207.523317 205.528313 
L 209.105455 205.562849 
L 209.421882 205.363704 
L 209.738309 205.216046 
L 210.371164 205.188561 
L 211.004019 204.416192 
L 211.320447 204.230738 
L 211.636874 204.18995 
L 211.953301 204.154357 
L 212.427943 204.040928 
L 212.586156 204.006855 
L 212.902584 203.802168 
L 213.377225 203.618698 
L 213.693652 203.490378 
L 214.01008 203.325626 
L 214.484721 203.057612 
L 214.642935 203.069939 
L 215.117576 202.780431 
L 216.225072 202.52822 
L 216.541499 202.402879 
L 216.857927 202.383963 
L 217.174354 202.240988 
L 218.28185 202.375893 
L 218.440064 202.44771 
L 218.756491 202.221721 
L 219.231132 202.278007 
L 219.863987 202.061771 
L 220.496842 201.497668 
L 221.287911 201.594547 
L 221.604338 201.464081 
L 221.920766 201.265131 
L 223.344689 201.58709 
L 223.81933 201.906438 
L 224.610399 201.920193 
L 224.926826 201.935129 
L 225.717895 202.322331 
L 226.35075 202.459348 
L 227.300032 202.304286 
L 227.616459 202.529983 
L 227.932887 202.557399 
L 228.565742 202.305672 
L 228.723955 202.362162 
L 229.831451 201.858514 
L 229.989665 201.921572 
L 230.306093 201.865979 
L 230.62252 202.056737 
L 230.938947 202.04136 
L 232.362871 202.233333 
L 232.995726 202.61558 
L 233.945008 202.522595 
L 234.261435 202.643765 
L 234.577863 202.55217 
L 235.210718 202.616743 
L 236.001786 202.412734 
L 236.318214 202.425997 
L 236.792855 202.446375 
L 236.951069 202.562628 
L 237.109282 202.493658 
L 239.007847 203.062013 
L 239.166061 203.026508 
L 239.482488 203.181791 
L 239.798915 203.138489 
L 240.273557 203.241146 
L 241.381053 203.170197 
L 241.855694 203.214193 
L 242.330335 203.133923 
L 242.804976 203.156508 
L 243.121404 203.273595 
L 243.437831 203.358733 
L 244.2289 203.395706 
L 244.703541 203.245395 
L 245.336396 203.287666 
L 245.811037 203.198151 
L 246.285678 202.565582 
L 246.443892 202.643138 
L 246.760319 202.480541 
L 248.026029 202.24053 
L 248.975311 202.140896 
L 250.557448 202.025127 
L 250.873876 202.00819 
L 251.190303 202.25545 
L 251.823158 202.331527 
L 252.139585 202.463501 
L 252.77244 202.429394 
L 253.088868 202.327284 
L 253.247081 202.393293 
L 253.879936 202.198001 
L 254.512791 202.127755 
L 254.829219 202.287052 
L 255.145646 202.282912 
L 255.778501 202.055542 
L 256.411356 202.06411 
L 256.727783 201.950123 
L 257.360638 202.419534 
L 257.518852 202.366982 
L 258.151707 202.629343 
L 258.468134 202.610453 
L 258.784561 202.496267 
L 259.892057 202.120162 
L 260.84134 202.069423 
L 261.157767 202.010632 
L 261.474195 201.880698 
L 261.632408 201.8772 
L 261.948836 201.680986 
L 263.056332 201.507845 
L 263.214545 201.683877 
L 263.530973 201.524916 
L 263.689187 201.657388 
L 264.638469 189.78463 
L 265.745965 182.385137 
L 267.486316 174.013251 
L 269.226667 166.867268 
L 269.543094 166.062665 
L 271.758086 156.648988 
L 272.074514 155.884884 
L 273.498437 151.254787 
L 273.814864 150.043942 
L 274.289506 149.559627 
L 275.080574 148.729237 
L 276.029856 148.989398 
L 276.18807 148.940897 
L 276.979139 150.859563 
L 277.137352 150.903083 
L 277.611994 151.667179 
L 277.928421 152.162788 
L 279.194131 156.146975 
L 279.352344 156.339773 
L 280.143413 158.075693 
L 280.618054 158.512146 
L 281.092695 159.176548 
L 281.250909 159.376273 
L 281.409123 159.374003 
L 282.041978 160.317761 
L 282.516619 160.673852 
L 282.674833 160.59973 
L 282.833046 160.691445 
L 283.307687 161.515297 
L 284.098756 161.832547 
L 284.573397 161.925666 
L 284.889825 162.033251 
L 285.522679 162.066631 
L 286.155534 162.416471 
L 286.471962 162.783091 
L 286.630175 162.770152 
L 287.26303 163.236973 
L 288.054099 163.629579 
L 288.370526 163.820182 
L 289.003381 164.225289 
L 289.161595 164.250853 
L 289.636236 164.640848 
L 289.952663 164.635363 
L 290.427305 164.4993 
L 292.484083 164.899264 
L 294.224434 164.360022 
L 294.857289 164.401553 
L 295.173716 164.20023 
L 295.490144 164.377728 
L 295.964785 164.159818 
L 297.072281 164.408451 
L 297.388708 164.444144 
L 298.33799 165.137573 
L 298.654418 165.144462 
L 299.445486 165.35415 
L 299.761914 165.553667 
L 300.552982 165.391488 
L 300.86941 165.512107 
L 301.660478 165.471813 
L 301.976906 165.625715 
L 302.451547 165.478212 
L 303.084402 165.688031 
L 303.87547 165.643042 
L 304.350112 165.372573 
L 305.14118 165.615317 
L 305.774035 165.685069 
L 306.40689 165.848536 
L 307.039745 165.752062 
L 307.514386 165.701069 
L 307.6726 165.61343 
L 307.989027 165.226843 
L 308.463668 165.187769 
L 308.780096 165.395047 
L 309.571164 165.836023 
L 310.204019 166.218125 
L 310.520447 166.093023 
L 311.153301 166.003586 
L 311.786156 166.200601 
L 311.94437 166.177112 
L 312.577225 166.517074 
L 313.051866 166.640516 
L 314.317576 166.724914 
L 314.792217 166.439495 
L 315.266858 166.616481 
L 315.741499 166.505342 
L 316.057927 166.549238 
L 316.374354 166.609099 
L 317.165423 166.972915 
L 317.640064 166.909569 
L 317.956491 166.945727 
L 318.589346 167.207591 
L 318.905774 167.028887 
L 319.538628 167.032575 
L 319.855056 167.023656 
L 321.278979 167.436058 
L 321.75362 167.287714 
L 322.070048 167.143737 
L 322.544689 167.120724 
L 323.335758 167.71648 
L 323.652185 167.680877 
L 324.126826 167.652589 
L 324.601467 167.371944 
L 324.917895 167.626999 
L 325.076108 167.567309 
L 325.708963 167.779662 
L 326.183604 167.529289 
L 326.500032 167.543533 
L 326.816459 167.294492 
L 327.923955 166.474438 
L 328.082169 166.480732 
L 328.55681 166.256057 
L 328.873238 166.382359 
L 329.347879 166.303994 
L 329.506093 166.222061 
L 330.297161 166.526731 
L 332.037512 166.148486 
L 332.353939 166.256526 
L 332.670367 166.21314 
L 332.986794 165.876564 
L 333.461435 165.805233 
L 333.936077 165.833142 
L 334.09429 165.74552 
L 334.410718 165.939539 
L 335.992855 165.814195 
L 336.151069 165.90896 
L 337.100351 165.481378 
L 337.258565 165.302049 
L 337.416778 165.290897 
L 337.733206 165.529232 
L 340.581053 164.709045 
L 341.530335 164.699968 
L 342.004976 164.420008 
L 343.112472 164.967098 
L 344.219968 165.415042 
L 344.694609 165.205458 
L 345.327464 165.085795 
L 345.643892 165.290346 
L 345.960319 165.418494 
L 346.43496 165.712096 
L 347.226029 165.454848 
L 348.017097 165.530487 
L 348.333525 165.815943 
L 348.808166 166.045102 
L 349.441021 166.18254 
L 349.915662 166.131948 
L 350.548517 166.419195 
L 350.864944 166.541062 
L 351.339585 166.973427 
L 351.656013 167.06333 
L 351.97244 167.43101 
L 352.288868 167.598308 
L 352.605295 167.674144 
L 353.079936 167.675324 
L 353.396364 167.611362 
L 353.712791 167.600019 
L 355.136715 167.263177 
L 355.453142 167.289135 
L 356.718852 166.745814 
L 357.035279 166.523211 
L 358.617416 167.044764 
L 358.77563 166.931385 
L 359.566699 167.21344 
L 359.883126 167.301395 
L 360.04134 167.241811 
L 360.990622 167.521227 
L 361.307049 167.40289 
L 361.623477 167.554976 
L 361.939904 167.471235 
L 362.256332 167.502439 
L 362.572759 167.304601 
L 363.0474 167.452702 
L 363.205614 167.355577 
L 363.680255 167.518951 
L 365.737033 167.533589 
L 366.053461 167.542385 
L 366.686316 167.377437 
L 367.002743 167.654986 
L 367.635598 167.494835 
L 368.268453 167.536525 
L 368.901308 167.526572 
L 369.217735 167.302184 
L 370.008804 167.380903 
L 370.483445 167.611773 
L 370.958086 167.702332 
L 371.274514 167.782607 
L 371.590941 167.902617 
L 372.540223 167.71935 
L 373.489506 168.438775 
L 373.805933 168.413538 
L 374.12236 168.382747 
L 374.438788 168.23119 
L 375.071643 168.358822 
L 375.546284 168.150641 
L 375.862711 168.224941 
L 376.337352 168.032603 
L 376.65378 167.92167 
L 377.128421 167.436147 
L 377.444848 167.261774 
L 380.609123 167.441412 
L 381.241978 167.759988 
L 381.558405 167.803835 
L 381.716619 167.874085 
L 382.507687 167.53879 
L 384.564466 167.152239 
L 385.830175 166.955903 
L 386.146603 167.065445 
L 387.095885 167.070349 
L 387.570526 167.182217 
L 388.361595 167.099803 
L 388.519809 167.041597 
L 388.836236 167.288933 
L 389.152663 167.199514 
L 389.469091 167.286429 
L 389.785518 167.31219 
L 390.576587 167.034699 
L 390.734801 167.01249 
L 391.051228 167.194781 
L 391.367656 167.206923 
L 392.158724 167.738353 
L 392.316938 167.719634 
L 392.475152 167.934424 
L 392.949793 167.921899 
L 393.26622 167.834284 
L 393.582648 167.835169 
L 393.899075 167.662147 
L 394.057289 167.709614 
L 395.006571 167.269267 
L 396.430494 166.915406 
L 397.696204 167.277183 
L 397.854418 167.260795 
L 398.329059 166.893914 
L 398.487273 166.888763 
L 398.487273 166.888763 
" style="fill:none;stroke:#000000;stroke-linecap:square;stroke-width:1.5;"/>
   </g>
   <g id="line2d_16">
    <path clip-path="url(#pb95b728b6f)" d="M 73.832727 247.80179 
L 73.990941 247.829663 
L 74.307368 247.625179 
L 74.465582 247.695348 
L 74.78201 247.639638 
L 74.940223 247.68471 
L 75.256651 247.641822 
L 76.047719 247.625961 
L 76.364147 247.483316 
L 76.680574 247.436542 
L 77.471643 247.250563 
L 77.78807 247.266696 
L 78.104498 247.245467 
L 78.579139 247.393331 
L 81.585199 247.370357 
L 81.901627 247.34249 
L 82.218054 247.224717 
L 82.692695 247.305854 
L 84.116619 247.284944 
L 85.85697 247.160118 
L 87.913748 247.544507 
L 88.86303 247.709099 
L 89.337671 247.80025 
L 89.495885 247.708559 
L 89.812313 247.820583 
L 91.236236 247.790278 
L 91.710877 247.99573 
L 92.027305 247.988576 
L 92.343732 248.145338 
L 92.660159 248.073064 
L 92.976587 248.076151 
L 93.293014 248.116855 
L 93.609442 248.152776 
L 93.925869 248.242367 
L 94.40051 248.247826 
L 95.508006 248.11659 
L 95.66622 248.197791 
L 95.824434 248.138613 
L 96.140861 248.214145 
L 96.299075 248.093342 
L 96.773716 248.193705 
L 98.039426 248.03994 
L 98.355853 248.182632 
L 98.672281 248.103912 
L 98.988708 248.026572 
L 100.412632 248.016003 
L 100.570845 247.916462 
L 100.887273 247.989521 
L 101.2037 247.932406 
L 101.836555 248.013736 
L 101.994769 248.074686 
L 102.627624 247.959672 
L 103.102265 247.986331 
L 103.418692 247.834773 
L 104.051547 247.89094 
L 104.367974 247.817287 
L 105.000829 247.86537 
L 105.47547 247.900851 
L 106.424753 253.015117 
L 107.057608 255.123357 
L 108.165104 258.384114 
L 109.747241 262.034663 
L 110.696523 264.156387 
L 111.962233 266.60423 
L 112.27866 267.140054 
L 113.069729 268.61327 
L 114.019011 270.337281 
L 114.651866 271.306317 
L 115.759362 273.183433 
L 117.657927 276.105969 
L 118.448995 277.189533 
L 119.08185 277.964853 
L 120.031132 279.145332 
L 120.505774 279.885589 
L 121.138628 280.702291 
L 121.61327 281.283897 
L 122.562552 282.22438 
L 122.878979 282.481786 
L 123.195407 282.849776 
L 124.61933 284.176148 
L 124.935758 284.434398 
L 126.201467 285.519362 
L 126.517895 285.768673 
L 126.834322 286.012139 
L 127.308963 286.294307 
L 127.625391 286.538113 
L 128.100032 286.77079 
L 128.732887 287.334689 
L 131.106093 288.481588 
L 131.42252 288.666518 
L 132.055375 288.966987 
L 132.371802 288.975602 
L 132.68823 289.081806 
L 136.327145 290.361179 
L 136.643573 290.526925 
L 137.276427 290.744675 
L 137.592855 290.821413 
L 138.700351 291.127971 
L 139.966061 291.808641 
L 141.548198 292.287291 
L 142.813907 292.667743 
L 144.237831 293.066945 
L 144.554258 293.196953 
L 145.0289 293.333555 
L 145.345327 293.507477 
L 147.085678 293.374564 
L 147.718533 293.624976 
L 148.667815 293.662755 
L 149.775311 294.069128 
L 150.882807 294.246177 
L 151.515662 294.446646 
L 151.832089 294.547235 
L 152.148517 294.675527 
L 153.097799 294.87303 
L 153.57244 294.879979 
L 153.888868 294.983037 
L 154.363509 294.922057 
L 154.679936 295.154132 
L 154.83815 295.121432 
L 155.154577 295.282437 
L 155.471005 295.328665 
L 155.945646 295.298653 
L 156.262073 295.193523 
L 156.736715 295.087451 
L 157.053142 294.85912 
L 157.527783 294.985131 
L 159.900989 294.945987 
L 161.166699 295.321662 
L 161.324912 295.259551 
L 161.483126 295.348833 
L 161.957767 295.239229 
L 162.274195 295.272166 
L 162.907049 295.33016 
L 163.223477 295.442765 
L 163.539904 295.449046 
L 164.330973 295.442417 
L 164.963828 295.360931 
L 165.280255 295.451331 
L 165.596683 295.371277 
L 165.754896 295.383198 
L 166.071324 295.169006 
L 166.387751 295.352143 
L 166.704179 295.110622 
L 167.020606 295.038955 
L 167.495247 294.939942 
L 167.969888 294.936963 
L 168.44453 294.883022 
L 168.602743 294.809887 
L 168.919171 294.85776 
L 169.235598 294.758953 
L 169.552026 294.799832 
L 169.868453 294.706141 
L 172.399872 294.877435 
L 173.98201 294.889442 
L 174.298437 294.940511 
L 174.931292 294.758365 
L 175.247719 294.845631 
L 175.405933 294.764493 
L 175.880574 294.881807 
L 176.829856 295.031518 
L 177.304498 294.885295 
L 177.779139 294.924023 
L 178.728421 295.0833 
L 179.203062 295.236101 
L 179.361276 295.370894 
L 181.892695 295.156893 
L 182.367337 295.052407 
L 183.474833 294.97803 
L 183.79126 295.055542 
L 184.107687 295.008263 
L 184.424115 294.986041 
L 185.215183 294.784803 
L 185.848038 294.852349 
L 186.006252 294.726985 
L 186.480893 294.857594 
L 188.854099 294.845464 
L 189.32874 294.941657 
L 189.803381 294.936322 
L 190.278022 294.791058 
L 191.227305 294.647223 
L 192.018373 294.667606 
L 192.809442 294.606271 
L 194.233365 294.334851 
L 194.86622 294.289346 
L 195.182648 294.239738 
L 195.499075 294.250178 
L 195.657289 294.208172 
L 195.973716 294.312168 
L 196.448357 294.318363 
L 199.13799 294.495236 
L 199.770845 294.419849 
L 200.087273 294.372863 
L 200.878341 294.212401 
L 201.66941 294.06227 
L 201.985837 294.010848 
L 202.302265 294.001677 
L 202.776906 293.948983 
L 204.042616 293.850221 
L 204.359043 293.683738 
L 204.833684 293.680674 
L 205.624753 293.180568 
L 205.94118 293.101155 
L 206.257608 292.953242 
L 206.890463 292.91732 
L 207.20689 292.898561 
L 207.681531 292.861683 
L 207.997959 292.825754 
L 209.738309 292.725352 
L 210.212951 292.906677 
L 210.845805 292.865677 
L 211.162233 293.025042 
L 211.636874 292.950526 
L 212.269729 292.873162 
L 212.586156 292.919442 
L 213.060797 292.999122 
L 214.642935 292.812808 
L 217.965423 293.12461 
L 218.440064 293.285043 
L 219.705774 293.22477 
L 220.180415 293.268328 
L 220.496842 293.291469 
L 220.971483 293.368549 
L 222.078979 293.395013 
L 222.55362 293.399609 
L 223.502903 293.440494 
L 223.81933 293.508798 
L 223.977544 293.440376 
L 224.293971 293.541615 
L 224.610399 293.477792 
L 225.243254 293.489542 
L 225.717895 293.356714 
L 226.192536 293.471467 
L 226.983604 293.402638 
L 227.774673 293.36015 
L 228.407528 293.583257 
L 230.464306 293.811298 
L 230.780734 293.792717 
L 230.938947 293.712393 
L 231.255375 293.802776 
L 232.046443 293.664162 
L 232.204657 293.684197 
L 232.679298 293.44987 
L 233.312153 293.237891 
L 233.628581 293.090754 
L 234.419649 293.109958 
L 234.736077 293.007777 
L 236.476427 292.960494 
L 236.792855 292.962426 
L 237.42571 292.941238 
L 238.058565 292.7798 
L 239.007847 292.750946 
L 239.324274 292.819653 
L 240.43177 292.720918 
L 240.906411 292.537516 
L 241.69748 292.589564 
L 241.855694 292.626196 
L 242.488549 292.400039 
L 242.96319 292.447549 
L 243.912472 292.384653 
L 244.070686 292.342936 
L 244.545327 292.565816 
L 244.861754 292.621847 
L 245.019968 292.61753 
L 245.336396 292.759045 
L 247.393174 292.825961 
L 247.551388 292.839251 
L 247.867815 292.672785 
L 249.133525 292.599727 
L 249.608166 292.561044 
L 249.924593 292.652807 
L 250.715662 292.702447 
L 251.032089 292.519017 
L 252.139585 292.433181 
L 252.456013 292.582454 
L 252.77244 292.520984 
L 254.671005 292.619735 
L 255.145646 292.616632 
L 258.626348 292.101605 
L 259.57563 292.25031 
L 260.050271 292.189574 
L 260.366699 292.357242 
L 260.524912 292.311256 
L 260.84134 292.445728 
L 262.107049 292.361911 
L 262.265263 292.405378 
L 262.739904 292.25275 
L 263.689187 292.213763 
L 264.954896 286.123192 
L 265.587751 284.245275 
L 266.37882 282.217673 
L 267.328102 279.768503 
L 267.960957 278.165948 
L 269.543094 274.768498 
L 270.967018 272.240659 
L 272.232727 270.009987 
L 275.080574 265.999998 
L 275.555215 265.347747 
L 275.871643 264.944597 
L 276.18807 264.634161 
L 278.561276 261.513243 
L 279.194131 260.825495 
L 280.143413 259.583162 
L 282.041978 257.232562 
L 282.358405 256.946154 
L 282.833046 256.253711 
L 283.465901 255.765674 
L 284.731611 254.800981 
L 284.889825 254.773776 
L 286.155534 253.784295 
L 286.946603 253.356197 
L 287.104817 253.324591 
L 287.579458 252.939907 
L 288.054099 252.58149 
L 288.370526 252.478154 
L 288.845167 252.141286 
L 289.79445 251.681167 
L 290.110877 251.579245 
L 290.427305 251.363599 
L 290.743732 251.04114 
L 291.534801 250.562127 
L 292.009442 250.308274 
L 294.699075 249.051952 
L 295.015502 248.994543 
L 295.173716 248.843818 
L 295.648357 248.787901 
L 295.964785 248.586587 
L 296.281212 248.494757 
L 298.179777 247.811899 
L 298.654418 247.509785 
L 299.287273 247.208905 
L 299.6037 247.100531 
L 299.920128 247.081878 
L 300.236555 246.978919 
L 300.711196 246.874836 
L 301.027624 246.779136 
L 302.13512 246.147742 
L 302.926188 245.974332 
L 307.830813 244.761698 
L 308.621882 244.678967 
L 310.204019 244.251835 
L 310.362233 244.308598 
L 311.153301 243.997587 
L 311.311515 244.056964 
L 311.627943 243.859498 
L 311.94437 243.849392 
L 312.260797 243.849206 
L 312.735439 243.615726 
L 313.051866 243.625577 
L 313.684721 243.420474 
L 314.001148 243.390736 
L 314.317576 243.210761 
L 314.950431 243.279605 
L 315.425072 243.232537 
L 315.741499 243.235265 
L 319.696842 242.194784 
L 320.01327 242.191781 
L 320.329697 242.07502 
L 321.437193 242.109483 
L 321.75362 242.065871 
L 321.911834 242.053495 
L 322.228262 241.813047 
L 322.544689 241.761697 
L 324.601467 241.418265 
L 325.234322 241.258115 
L 325.867177 241.233255 
L 326.341818 241.240859 
L 327.765742 240.990921 
L 328.398596 240.844173 
L 329.031451 240.819156 
L 330.138947 240.898062 
L 331.08823 240.7129 
L 331.404657 240.806107 
L 332.037512 240.750354 
L 333.303222 240.644166 
L 333.777863 240.53475 
L 334.09429 240.618255 
L 334.410718 240.603086 
L 336.62571 240.529734 
L 336.942137 240.608354 
L 337.416778 240.593496 
L 338.207847 240.498704 
L 339.157129 240.394172 
L 339.473557 240.415488 
L 340.106411 240.366704 
L 343.4289 240.412822 
L 344.219968 240.265911 
L 344.378182 240.209708 
L 344.694609 240.296663 
L 344.852823 240.245928 
L 345.011037 240.339355 
L 345.327464 240.247588 
L 345.643892 240.259465 
L 346.909601 240.107562 
L 347.226029 240.302149 
L 348.808166 240.241167 
L 350.232089 240.31805 
L 350.864944 240.434758 
L 351.181372 240.333775 
L 351.656013 240.317626 
L 352.447081 240.15795 
L 352.605295 240.269218 
L 353.23815 240.088927 
L 353.554577 240.215163 
L 354.187432 239.994723 
L 355.136715 240.044722 
L 355.453142 239.907657 
L 355.611356 239.965888 
L 356.085997 239.886262 
L 356.560638 239.870743 
L 357.193493 239.981926 
L 357.668134 239.899063 
L 357.826348 240.037863 
L 357.984561 239.929863 
L 358.300989 239.980553 
L 358.459203 239.90007 
L 358.617416 239.969013 
L 359.250271 239.786824 
L 359.408485 239.870751 
L 359.566699 239.80157 
L 359.883126 239.900558 
L 360.199553 239.848021 
L 360.674195 239.917041 
L 361.623477 239.835595 
L 361.781691 239.774068 
L 362.098118 239.865945 
L 362.414545 239.813231 
L 362.730973 239.73145 
L 363.0474 239.801046 
L 363.205614 239.726127 
L 363.522041 239.745048 
L 363.838469 239.712427 
L 364.154896 239.721598 
L 364.471324 239.652624 
L 364.629537 239.736186 
L 364.945965 239.561317 
L 365.104179 239.602159 
L 365.420606 239.530668 
L 365.737033 239.605239 
L 369.217735 239.589537 
L 369.375949 239.653445 
L 370.167018 239.41202 
L 371.274514 239.450154 
L 371.590941 239.507111 
L 372.065582 239.53461 
L 372.540223 239.491584 
L 373.173078 239.496757 
L 373.489506 239.519389 
L 373.964147 239.607349 
L 375.546284 239.548748 
L 376.020925 239.510755 
L 377.603062 239.630078 
L 378.077703 239.683144 
L 378.394131 239.767971 
L 378.710558 239.780595 
L 379.185199 239.916496 
L 379.818054 239.874938 
L 381.241978 239.579046 
L 382.507687 239.650832 
L 382.824115 239.544003 
L 383.140542 239.533767 
L 383.45697 239.448798 
L 383.615183 239.525743 
L 383.931611 239.461557 
L 384.406252 239.598561 
L 385.039107 239.632161 
L 385.355534 239.587195 
L 385.830175 239.564424 
L 386.779458 239.593619 
L 387.095885 239.645184 
L 387.412313 239.690182 
L 387.886954 239.627134 
L 389.152663 239.426682 
L 389.943732 239.366392 
L 390.260159 239.381391 
L 390.734801 239.308887 
L 393.582648 238.826052 
L 393.899075 238.84243 
L 394.215502 238.742362 
L 394.848357 238.905798 
L 395.006571 238.855943 
L 395.322998 238.904325 
L 395.639426 238.921457 
L 396.114067 238.776367 
L 396.588708 238.749207 
L 397.063349 238.796828 
L 397.379777 238.871128 
L 398.487273 238.70402 
L 398.487273 238.70402 
" style="fill:none;stroke:#000000;stroke-linecap:square;stroke-width:1.5;"/>
   </g>
   <g id="line2d_17">
    <path clip-path="url(#pb95b728b6f)" d="M 73.832727 234.017387 
L 75.889506 233.98809 
L 76.364147 234.018641 
L 76.680574 234.129585 
L 77.313429 234.180882 
L 77.471643 234.234851 
L 77.78807 234.177641 
L 82.534482 234.287196 
L 83.167337 234.075348 
L 83.641978 234.014829 
L 83.958405 233.855567 
L 84.907687 234.058075 
L 85.065901 233.994459 
L 85.382329 234.104195 
L 85.85697 234.037684 
L 87.755534 233.984079 
L 88.071962 234.053418 
L 88.388389 233.969097 
L 88.86303 234.032088 
L 89.970526 234.087509 
L 90.445167 234.159457 
L 90.761595 234.159479 
L 92.185518 233.991373 
L 92.818373 233.952612 
L 93.134801 234.068065 
L 93.293014 234.124772 
L 93.767656 233.977491 
L 94.558724 233.804275 
L 95.349793 234.013153 
L 95.66622 234.057906 
L 95.982648 234.157154 
L 96.299075 234.055652 
L 96.615502 234.120949 
L 97.406571 234.088301 
L 97.722998 234.217541 
L 101.045486 234.098473 
L 101.361914 234.17852 
L 103.102265 234.251509 
L 103.576906 234.090544 
L 103.893333 234.243882 
L 104.367974 234.224483 
L 104.842616 234.263588 
L 105.159043 234.119741 
L 105.47547 234.162933 
L 106.582967 228.16744 
L 107.532249 225.208713 
L 108.323317 223.03113 
L 109.2726 220.902104 
L 109.589027 220.021208 
L 109.905455 219.303704 
L 111.329378 215.725496 
L 114.177225 210.358022 
L 114.335439 210.177226 
L 114.81008 209.275301 
L 115.284721 208.42138 
L 115.917576 207.250438 
L 116.708644 205.863253 
L 118.132568 203.251904 
L 118.607209 202.427012 
L 123.670048 193.327468 
L 123.986475 192.931566 
L 124.777544 191.429929 
L 126.201467 188.890165 
L 126.517895 188.485916 
L 127.467177 186.821794 
L 127.783604 186.185922 
L 130.15681 180.416983 
L 130.473238 179.505748 
L 132.530016 173.447944 
L 133.162871 170.267146 
L 133.321085 170.225503 
L 133.479298 168.666201 
L 133.637512 169.185564 
L 133.795726 167.393357 
L 133.953939 166.981293 
L 134.112153 165.739527 
L 134.270367 162.962749 
L 134.428581 163.138172 
L 134.745008 72.268366 
L 134.903222 83.321104 
L 135.377863 155.174752 
L 135.852504 181.787505 
L 136.168931 188.655441 
L 136.485359 191.742606 
L 136.643573 192.130633 
L 136.801786 192.927918 
L 137.276427 193.31061 
L 137.434641 193.070137 
L 137.592855 193.054275 
L 137.909282 192.53925 
L 139.174992 190.845015 
L 140.124274 189.676639 
L 141.073557 188.418512 
L 141.706411 187.450347 
L 142.655694 186.541963 
L 143.446762 185.838208 
L 143.76319 185.418484 
L 144.396045 184.921654 
L 145.0289 184.141545 
L 145.345327 183.857468 
L 146.452823 182.859354 
L 147.085678 182.200936 
L 147.402105 181.704685 
L 147.718533 181.603033 
L 148.03496 181.4437 
L 148.351388 181.104887 
L 148.984242 180.423816 
L 149.933525 179.635444 
L 151.357448 178.487623 
L 151.673876 178.080444 
L 152.781372 177.212057 
L 153.730654 175.987919 
L 154.047081 175.89154 
L 154.363509 175.642556 
L 154.996364 175.283873 
L 155.154577 175.046454 
L 155.629219 174.90647 
L 156.10386 174.448892 
L 156.578501 174.130163 
L 156.894928 173.804807 
L 157.527783 173.466768 
L 158.160638 172.944765 
L 158.951707 172.412209 
L 159.10992 172.348242 
L 159.900989 171.336363 
L 160.533844 170.884979 
L 160.850271 170.77956 
L 161.799553 170.018084 
L 165.438469 163.192212 
L 165.91311 162.275302 
L 166.387751 161.434496 
L 167.17882 159.520995 
L 167.811675 158.63647 
L 168.128102 157.789448 
L 170.026667 150.814824 
L 170.343094 148.186341 
L 170.659522 140.91106 
L 171.134163 66.306145 
L 172.083445 166.634605 
L 172.399872 178.00314 
L 172.874514 185.816473 
L 173.190941 188.265392 
L 173.665582 190.040189 
L 174.140223 191.037268 
L 174.614864 191.422936 
L 174.931292 191.541108 
L 175.247719 191.649308 
L 176.98807 191.590106 
L 178.411994 191.52382 
L 178.728421 191.622777 
L 179.044848 191.551699 
L 179.361276 191.611528 
L 179.51949 191.481757 
L 180.310558 191.471912 
L 180.785199 191.34468 
L 181.576268 190.949946 
L 181.892695 190.970271 
L 182.841978 191.026391 
L 183.316619 190.906614 
L 184.265901 190.897118 
L 184.582329 191.022892 
L 185.215183 190.924213 
L 185.531611 190.968751 
L 186.322679 190.643486 
L 187.113748 190.337833 
L 187.430175 190.290355 
L 187.904817 190.078022 
L 193.125869 187.768422 
L 195.340861 187.373837 
L 197.081212 187.274841 
L 197.39764 187.278072 
L 197.872281 187.330619 
L 198.663349 187.159232 
L 199.929059 186.858494 
L 200.245486 186.755459 
L 200.561914 186.727503 
L 201.194769 186.539758 
L 201.511196 186.589601 
L 201.985837 186.41058 
L 202.302265 186.49359 
L 202.618692 186.427712 
L 202.93512 186.400832 
L 203.251547 186.463983 
L 203.884402 186.415848 
L 204.359043 186.24976 
L 205.624753 186.053044 
L 206.099394 186.068696 
L 208.947241 185.423508 
L 210.054737 185.10422 
L 210.371164 185.075764 
L 210.529378 184.907984 
L 211.320447 184.821957 
L 212.427943 184.621123 
L 212.74437 184.649005 
L 213.219011 184.499504 
L 214.484721 184.517154 
L 214.801148 184.568816 
L 215.750431 184.308117 
L 216.066858 184.434058 
L 216.383285 184.546747 
L 217.332568 184.637469 
L 217.648995 184.485435 
L 218.123636 184.507737 
L 218.756491 184.40795 
L 219.389346 184.361394 
L 221.446124 183.929086 
L 222.55362 183.951281 
L 223.028262 183.664622 
L 224.293971 183.563667 
L 224.926826 183.756183 
L 225.243254 183.855726 
L 225.717895 183.881554 
L 227.300032 184.19926 
L 227.616459 184.12026 
L 227.932887 184.150791 
L 228.407528 183.999947 
L 228.723955 184.010137 
L 229.040383 183.990091 
L 229.35681 184.059289 
L 229.989665 184.179026 
L 230.306093 184.192823 
L 230.938947 184.233732 
L 231.88823 184.223718 
L 232.204657 184.080404 
L 232.837512 184.161248 
L 233.153939 184.220621 
L 233.470367 184.104202 
L 234.103222 184.038152 
L 234.577863 183.825216 
L 234.89429 183.804146 
L 235.843573 183.340312 
L 236.318214 183.181033 
L 236.951069 183.19008 
L 238.058565 182.902773 
L 238.849633 183.023207 
L 239.166061 182.961067 
L 239.482488 183.094919 
L 239.798915 182.989392 
L 239.957129 183.057531 
L 240.273557 182.950672 
L 241.064625 183.069948 
L 241.381053 183.009559 
L 241.69748 183.06623 
L 242.013907 183.112259 
L 243.121404 183.34731 
L 244.545327 183.077946 
L 248.817097 182.176093 
L 249.133525 181.946565 
L 249.449952 181.920466 
L 249.76638 181.849639 
L 250.873876 181.939369 
L 251.190303 181.980082 
L 252.456013 182.135626 
L 253.563509 182.497287 
L 253.879936 182.46286 
L 254.196364 182.508624 
L 254.512791 182.422842 
L 254.829219 182.471254 
L 256.727783 182.703198 
L 257.993493 182.546248 
L 259.417416 182.674658 
L 260.208485 182.703747 
L 260.524912 182.841308 
L 261.790622 182.916254 
L 262.107049 182.989857 
L 263.372759 182.672265 
L 263.689187 182.744439 
L 263.8474 183.552566 
L 264.163828 185.971915 
L 264.954896 189.225802 
L 267.169888 195.283877 
L 267.960957 197.161247 
L 271.125231 204.493931 
L 273.656651 209.381744 
L 274.131292 210.130529 
L 274.605933 210.961768 
L 275.397002 212.119438 
L 276.18807 213.097232 
L 277.137352 214.452952 
L 278.403062 215.807183 
L 278.71949 216.110337 
L 279.510558 217.057524 
L 280.776268 218.262413 
L 280.934482 218.310469 
L 281.567337 219.00589 
L 281.883764 219.093638 
L 286.155534 222.384246 
L 286.630175 222.625558 
L 291.060159 225.097092 
L 291.534801 225.312065 
L 294.382648 226.378314 
L 295.015502 226.499487 
L 296.914067 227.194941 
L 297.546922 227.580979 
L 297.705136 227.594088 
L 298.179777 227.898992 
L 298.970845 228.074476 
L 299.287273 228.214359 
L 300.236555 228.449472 
L 300.711196 228.754042 
L 302.767974 229.20683 
L 303.084402 229.272479 
L 303.400829 229.412391 
L 303.559043 229.395681 
L 303.87547 229.599109 
L 304.191898 229.618029 
L 305.14118 229.885196 
L 305.774035 230.033138 
L 306.090463 230.169007 
L 307.356172 230.416574 
L 307.830813 230.635677 
L 308.147241 230.686727 
L 308.621882 230.878137 
L 308.780096 230.836053 
L 309.096523 230.980326 
L 309.571164 230.997942 
L 311.469729 231.358764 
L 311.786156 231.435577 
L 312.735439 231.432797 
L 314.159362 231.616615 
L 314.475789 231.713657 
L 315.266858 231.801687 
L 315.583285 231.990254 
L 316.21614 232.098668 
L 316.532568 232.292468 
L 316.848995 232.326833 
L 317.165423 232.451501 
L 317.956491 232.541525 
L 318.272919 232.640945 
L 318.431132 232.738987 
L 318.905774 232.644767 
L 319.222201 232.761585 
L 319.538628 232.72818 
L 319.855056 232.713595 
L 320.329697 232.765224 
L 320.646124 232.708622 
L 321.120766 232.815701 
L 321.595407 232.759734 
L 322.070048 232.878345 
L 323.968612 232.757684 
L 324.601467 232.967085 
L 325.392536 233.038149 
L 326.025391 233.087067 
L 327.923955 233.351125 
L 328.398596 233.407349 
L 330.613589 233.544881 
L 332.037512 233.296491 
L 332.353939 233.391936 
L 333.145008 233.371916 
L 334.410718 233.351224 
L 334.568931 233.27596 
L 335.043573 233.353759 
L 335.518214 233.364124 
L 335.676427 233.329346 
L 335.992855 233.489848 
L 336.309282 233.461773 
L 336.62571 233.522836 
L 338.682488 233.575164 
L 339.315343 233.415041 
L 339.63177 233.517254 
L 339.948198 233.370063 
L 341.055694 233.384233 
L 342.004976 233.277777 
L 343.4289 233.357636 
L 343.903541 233.459704 
L 345.327464 233.381302 
L 345.802105 233.54622 
L 346.276746 233.652396 
L 346.751388 233.654923 
L 348.017097 233.631682 
L 348.333525 233.732279 
L 350.390303 233.134955 
L 350.864944 233.24445 
L 351.656013 232.957924 
L 352.288868 232.838845 
L 352.605295 232.940449 
L 352.921722 232.897003 
L 353.23815 232.916538 
L 353.396364 232.992967 
L 353.712791 232.853136 
L 354.345646 232.848839 
L 354.820287 232.804105 
L 358.300989 233.270386 
L 358.933844 233.400034 
L 359.883126 233.44826 
L 361.307049 233.573382 
L 362.256332 233.632088 
L 363.0474 233.484012 
L 363.363828 233.514101 
L 363.680255 233.40881 
L 363.996683 233.535014 
L 364.154896 233.49696 
L 364.471324 233.615332 
L 365.420606 233.396736 
L 367.002743 233.624249 
L 367.635598 233.650972 
L 368.110239 233.501998 
L 368.426667 233.562361 
L 368.901308 233.535719 
L 369.534163 233.692221 
L 370.641659 233.677488 
L 370.958086 233.712887 
L 371.274514 233.772926 
L 371.749155 233.83849 
L 372.698437 233.928226 
L 373.014864 234.022813 
L 373.489506 234.000618 
L 373.805933 234.01501 
L 374.12236 233.905677 
L 376.811994 233.812201 
L 377.286635 233.941505 
L 379.659841 233.93569 
L 380.767337 234.04427 
L 381.083764 233.964476 
L 382.19126 234.042048 
L 383.773397 233.787889 
L 384.248038 233.859644 
L 385.197321 233.948645 
L 385.513748 233.931035 
L 386.146603 233.973344 
L 386.779458 233.904093 
L 388.836236 234.199842 
L 389.310877 234.120792 
L 390.260159 234.11933 
L 390.576587 234.187043 
L 391.051228 234.095958 
L 391.367656 234.16135 
L 391.684083 234.126847 
L 392.316938 234.157843 
L 393.108006 234.23288 
L 397.379777 234.149529 
L 397.696204 234.087072 
L 398.012632 234.093665 
L 398.487273 234.081152 
L 398.487273 234.081152 
" style="fill:none;stroke:#000000;stroke-linecap:square;stroke-width:1.5;"/>
   </g>
   <g id="line2d_18">
    <path clip-path="url(#pb95b728b6f)" d="M 73.832727 228.712976 
L 74.149155 228.612423 
L 74.623796 228.735591 
L 75.256651 228.766246 
L 75.414864 228.868021 
L 75.731292 228.756529 
L 76.047719 228.727358 
L 76.838788 228.728974 
L 77.155215 228.785228 
L 80.161276 228.530122 
L 80.477703 228.708867 
L 80.635917 228.664671 
L 80.952344 228.817542 
L 81.426986 228.823156 
L 82.059841 228.852886 
L 82.692695 228.881988 
L 85.540542 229.03937 
L 85.698756 229.001649 
L 86.015183 229.07601 
L 86.648038 228.94565 
L 87.122679 228.921708 
L 87.439107 228.880486 
L 87.755534 228.919365 
L 88.071962 228.890776 
L 88.388389 228.88614 
L 89.179458 229.030786 
L 89.495885 229.039743 
L 89.654099 229.09485 
L 89.970526 228.910835 
L 90.12874 228.982596 
L 90.603381 228.867867 
L 91.078022 228.92615 
L 91.710877 229.047637 
L 92.027305 228.904571 
L 92.343732 228.764014 
L 92.818373 228.605293 
L 93.134801 228.525882 
L 93.451228 228.598679 
L 95.66622 228.47358 
L 95.982648 228.510712 
L 96.140861 228.382915 
L 97.564785 228.505855 
L 97.881212 228.414571 
L 98.19764 228.450567 
L 99.779777 228.337148 
L 100.096204 228.472587 
L 100.570845 228.394187 
L 100.887273 228.504114 
L 101.520128 228.347089 
L 101.836555 228.47911 
L 102.46941 228.623998 
L 103.102265 228.548138 
L 104.209761 228.469703 
L 104.684402 228.698264 
L 104.842616 228.540807 
L 105.000829 228.712126 
L 105.317257 228.655511 
L 105.47547 228.964622 
L 106.582967 199.575165 
L 107.532249 185.415697 
L 108.165104 176.827001 
L 109.430813 157.835572 
L 109.589027 152.583928 
L 109.905455 55.535366 
L 110.538309 146.19745 
L 110.854737 162.097921 
L 111.171164 167.138331 
L 111.329378 167.329202 
L 111.487592 167.16337 
L 111.645805 166.702701 
L 113.069729 153.741877 
L 114.335439 138.939172 
L 114.651866 132.508833 
L 114.81008 125.125915 
L 115.126507 56.416445 
L 115.284721 54.812286 
L 116.075789 136.884014 
L 116.392217 149.737622 
L 116.708644 154.980267 
L 116.866858 156.208107 
L 117.183285 156.641994 
L 117.499713 155.703366 
L 117.81614 154.189192 
L 118.765423 147.823905 
L 120.031132 138.405452 
L 121.138628 128.750164 
L 121.455056 124.460362 
L 121.771483 118.067934 
L 121.929697 112.053936 
L 122.246124 81.021743 
L 122.562552 53.568 
L 122.720766 59.898403 
L 123.670048 132.389736 
L 123.986475 143.346076 
L 124.461116 150.689092 
L 124.777544 152.381197 
L 124.935758 152.67762 
L 125.093971 152.641477 
L 125.410399 152.04297 
L 125.88504 150.352009 
L 126.359681 148.093399 
L 126.676108 146.34954 
L 128.416459 135.100528 
L 129.207528 129.987989 
L 130.15681 121.886134 
L 130.473238 118.097851 
L 131.106093 106.502033 
L 131.42252 93.621115 
L 131.897161 66.46065 
L 132.055375 63.075326 
L 132.213589 64.874954 
L 132.530016 79.149188 
L 133.479298 129.554349 
L 133.953939 141.150925 
L 134.428581 146.620297 
L 134.745008 148.023297 
L 135.061435 148.486873 
L 135.377863 148.436921 
L 135.852504 147.515197 
L 136.327145 145.913718 
L 138.700351 135.77326 
L 139.016778 134.365017 
L 140.915343 123.438261 
L 142.022839 115.309951 
L 143.130335 104.881715 
L 143.604976 100.936673 
L 143.921404 99.934239 
L 144.079617 100.346097 
L 144.554258 104.797878 
L 145.819968 121.709886 
L 146.294609 125.947002 
L 146.76925 128.227191 
L 147.718533 131.030438 
L 148.193174 131.618612 
L 148.667815 131.510503 
L 149.142456 131.086349 
L 149.458884 131.003867 
L 149.775311 130.716977 
L 150.249952 129.977661 
L 150.408166 129.874275 
L 150.882807 129.214539 
L 151.199234 128.769114 
L 151.832089 127.910148 
L 152.30673 127.442337 
L 152.623158 126.553023 
L 153.256013 125.850905 
L 154.679936 123.247232 
L 155.154577 122.584554 
L 155.471005 122.08296 
L 155.787432 121.876949 
L 156.262073 122.243306 
L 156.420287 122.276501 
L 156.736715 122.497442 
L 156.894928 122.429951 
L 157.844211 122.941531 
L 158.160638 123.634456 
L 158.477065 123.753467 
L 158.793493 123.698648 
L 159.10992 123.666701 
L 159.426348 123.736263 
L 159.742775 123.690493 
L 160.059203 123.805476 
L 160.850271 124.592702 
L 161.64134 124.326375 
L 161.957767 124.586467 
L 162.748836 124.932918 
L 163.065263 125.087674 
L 163.223477 125.09497 
L 163.539904 125.420579 
L 163.698118 125.405027 
L 164.014545 125.593396 
L 164.805614 125.273573 
L 165.122041 125.538462 
L 165.280255 125.38099 
L 166.229537 125.312761 
L 166.387751 125.256574 
L 167.17882 125.816187 
L 167.495247 125.657093 
L 167.969888 125.703669 
L 168.286316 125.579586 
L 168.760957 125.610236 
L 169.077384 125.536871 
L 169.552026 125.619648 
L 169.868453 125.644879 
L 170.18488 125.849521 
L 171.292376 125.965604 
L 171.925231 125.181571 
L 172.083445 125.16301 
L 172.7163 124.681929 
L 173.507368 124.43146 
L 173.665582 124.295673 
L 174.140223 124.508612 
L 174.298437 124.419613 
L 174.614864 124.638408 
L 175.247719 125.094777 
L 175.72236 125.17684 
L 176.671643 126.327342 
L 177.462711 126.645123 
L 178.095566 127.07217 
L 178.411994 126.985708 
L 178.570207 126.925741 
L 178.886635 127.091764 
L 179.51949 127.339519 
L 180.310558 127.7639 
L 180.626986 127.845862 
L 181.892695 128.574266 
L 182.209123 128.446112 
L 182.52555 128.526825 
L 183.158405 128.318268 
L 183.79126 128.638034 
L 184.107687 128.536064 
L 184.582329 128.13325 
L 184.898756 127.990193 
L 185.689825 128.206538 
L 186.955534 127.752683 
L 187.430175 127.754381 
L 188.695885 126.503831 
L 188.854099 126.569247 
L 189.486954 126.316046 
L 189.645167 126.353304 
L 190.59445 125.300908 
L 190.752663 125.257435 
L 191.701946 123.87155 
L 191.860159 123.800261 
L 192.018373 123.897233 
L 192.334801 123.748891 
L 192.651228 123.474621 
L 192.809442 123.457892 
L 193.125869 123.166183 
L 193.442297 123.506777 
L 193.60051 123.411557 
L 193.758724 123.551455 
L 194.075152 124.028218 
L 195.340861 125.720668 
L 195.815502 126.208264 
L 196.764785 127.026203 
L 197.081212 126.734984 
L 198.346922 125.756806 
L 198.663349 125.726619 
L 199.13799 125.454565 
L 199.454418 125.591336 
L 199.770845 125.448587 
L 199.929059 125.459659 
L 200.245486 125.205144 
L 200.720128 124.382352 
L 200.878341 124.449983 
L 201.194769 124.212318 
L 201.511196 124.009674 
L 201.827624 124.007671 
L 201.985837 124.132672 
L 202.460478 123.91056 
L 203.567974 121.283095 
L 204.200829 121.21357 
L 204.67547 121.446106 
L 204.991898 121.889659 
L 206.574035 124.584003 
L 206.732249 124.61488 
L 207.523317 125.710983 
L 207.997959 125.896964 
L 208.314386 126.224051 
L 208.4726 126.277514 
L 208.947241 126.697171 
L 210.371164 127.617402 
L 211.004019 127.661727 
L 211.795088 127.196635 
L 212.111515 127.180679 
L 212.74437 126.68548 
L 212.902584 126.721629 
L 213.535439 126.147498 
L 214.959362 124.788807 
L 215.275789 124.984811 
L 215.750431 125.224521 
L 216.066858 125.174566 
L 216.225072 125.24439 
L 216.383285 125.176836 
L 218.123636 126.674386 
L 218.28185 126.927318 
L 218.914705 126.981549 
L 220.338628 126.66304 
L 220.655056 126.311614 
L 221.129697 126.007969 
L 221.446124 125.789357 
L 221.920766 125.879553 
L 222.395407 126.364906 
L 222.870048 126.085615 
L 223.186475 126.150694 
L 223.977544 125.902674 
L 224.293971 126.015973 
L 224.768612 125.880601 
L 224.926826 125.897582 
L 225.243254 125.63055 
L 226.034322 125.846076 
L 226.192536 125.727891 
L 226.35075 125.794827 
L 226.667177 126.047663 
L 226.983604 126.238241 
L 227.458246 126.332707 
L 227.932887 126.686457 
L 228.407528 126.386808 
L 229.040383 126.311345 
L 229.515024 126.639366 
L 229.831451 126.475125 
L 230.306093 126.415639 
L 230.62252 126.243328 
L 230.938947 126.368234 
L 231.097161 126.516258 
L 232.046443 126.409896 
L 232.362871 126.417869 
L 233.312153 125.855499 
L 233.786794 125.925299 
L 234.736077 125.067713 
L 235.052504 125.056036 
L 235.368931 124.88274 
L 236.001786 125.019889 
L 236.634641 125.690061 
L 237.742137 126.512324 
L 238.691419 127.941094 
L 239.007847 128.515247 
L 240.115343 130.135665 
L 240.273557 130.097329 
L 240.589984 130.389929 
L 240.906411 130.308 
L 241.381053 130.53088 
L 241.855694 130.450065 
L 242.172121 130.424596 
L 242.330335 130.31454 
L 242.804976 130.44548 
L 243.121404 130.233533 
L 243.912472 130.106852 
L 244.2289 130.191395 
L 245.019968 129.777718 
L 245.336396 129.503121 
L 246.127464 128.539046 
L 246.285678 128.443973 
L 246.602105 128.063477 
L 247.709601 127.23922 
L 248.342456 127.651803 
L 248.817097 128.049333 
L 249.291738 128.523499 
L 249.76638 128.569428 
L 250.715662 128.653356 
L 251.032089 128.562843 
L 251.50673 128.720551 
L 252.297799 128.43829 
L 252.614226 128.231463 
L 253.247081 127.763261 
L 253.721722 127.580387 
L 253.879936 127.596499 
L 255.145646 126.682679 
L 255.462073 126.545658 
L 255.936715 126.185866 
L 256.253142 126.039646 
L 256.569569 125.762633 
L 256.885997 125.568099 
L 257.518852 125.819923 
L 257.835279 126.172914 
L 258.626348 126.925556 
L 259.100989 126.928823 
L 259.417416 127.215763 
L 259.892057 127.831094 
L 260.208485 127.818915 
L 260.683126 127.818503 
L 261.474195 127.328367 
L 261.632408 127.400403 
L 261.790622 127.284424 
L 261.948836 127.334469 
L 262.265263 127.196243 
L 262.581691 127.394104 
L 262.739904 127.712429 
L 262.898118 127.777676 
L 263.056332 128.02042 
L 263.214545 127.851705 
L 263.372759 127.845985 
L 263.530973 128.006471 
L 263.689187 127.841057 
L 264.796683 156.856541 
L 265.904179 171.575037 
L 267.011675 182.159063 
L 268.435598 192.080283 
L 269.38488 197.515082 
L 270.334163 201.745499 
L 272.549155 210.134848 
L 274.131292 214.784273 
L 275.713429 218.686676 
L 276.504498 220.360145 
L 276.979139 221.233513 
L 277.295566 221.564132 
L 277.770207 222.329845 
L 278.403062 223.206328 
L 279.510558 224.747194 
L 280.301627 225.465499 
L 281.409123 226.739286 
L 282.358405 227.588738 
L 282.674833 227.640939 
L 284.25697 228.845196 
L 284.573397 229.044766 
L 285.048038 229.29174 
L 285.206252 229.309157 
L 285.680893 229.61763 
L 286.788389 230.060086 
L 286.946603 230.198989 
L 287.26303 230.250368 
L 288.686954 230.714349 
L 289.003381 230.723378 
L 290.269091 231.145412 
L 290.743732 231.237373 
L 291.376587 231.33482 
L 292.009442 231.634086 
L 293.275152 231.618205 
L 293.749793 231.580506 
L 294.699075 231.622242 
L 297.230494 232.033997 
L 297.546922 232.171535 
L 298.021563 232.145475 
L 299.129059 232.445058 
L 299.287273 232.38338 
L 300.394769 232.696518 
L 300.711196 232.762959 
L 300.86941 232.63345 
L 301.660478 232.66134 
L 301.818692 232.59176 
L 302.293333 232.746068 
L 302.609761 232.752926 
L 303.084402 232.890769 
L 303.400829 232.9204 
L 304.033684 232.982017 
L 305.774035 233.226124 
L 306.248676 233.175705 
L 308.147241 233.327258 
L 308.463668 233.376733 
L 308.621882 233.430621 
L 308.938309 233.359648 
L 309.571164 233.4776 
L 310.995088 233.391836 
L 311.311515 233.442546 
L 313.051866 233.29627 
L 313.368293 233.311208 
L 314.634003 233.03698 
L 314.950431 232.968345 
L 315.266858 232.892015 
L 315.741499 232.884801 
L 317.640064 233.114249 
L 320.962552 232.781135 
L 321.278979 232.787844 
L 322.070048 232.759012 
L 322.386475 232.777803 
L 326.816459 232.164278 
L 326.974673 232.237013 
L 327.2911 232.109777 
L 327.765742 232.165282 
L 328.715024 232.266151 
L 330.455375 232.051654 
L 331.879298 232.246887 
L 332.037512 232.143175 
L 332.670367 232.208362 
L 333.303222 232.004989 
L 333.619649 231.821234 
L 336.151069 232.007513 
L 336.62571 232.072335 
L 339.157129 232.227902 
L 339.63177 232.053125 
L 339.948198 231.983695 
L 340.106411 232.03684 
L 340.89748 231.697163 
L 342.954258 231.774872 
L 343.4289 231.571489 
L 343.903541 231.662842 
L 344.378182 231.688857 
L 344.852823 231.800727 
L 345.16925 231.749806 
L 345.643892 231.744887 
L 345.802105 231.625108 
L 346.118533 231.75978 
L 346.751388 231.752931 
L 347.067815 231.766051 
L 347.384242 231.834115 
L 348.808166 231.949503 
L 349.282807 231.660189 
L 349.599234 231.752021 
L 350.073876 231.738432 
L 350.864944 231.567223 
L 353.712791 231.32794 
L 354.187432 231.260854 
L 354.662073 231.321956 
L 355.136715 231.215476 
L 356.085997 231.258895 
L 356.402424 231.073165 
L 357.035279 231.128575 
L 357.50992 231.099451 
L 357.984561 231.245649 
L 359.883126 231.244368 
L 360.199553 231.293895 
L 360.832408 231.421351 
L 362.098118 231.353208 
L 362.414545 231.376152 
L 362.730973 231.292314 
L 363.205614 231.418441 
L 363.838469 231.353669 
L 370.167018 231.402413 
L 370.641659 231.420801 
L 371.1163 231.523041 
L 371.749155 231.56445 
L 372.223796 231.577847 
L 372.540223 231.4297 
L 373.014864 231.208126 
L 373.331292 231.175289 
L 373.489506 231.279082 
L 374.280574 231.081255 
L 378.394131 230.962659 
L 378.868772 231.011431 
L 379.185199 231.096851 
L 380.609123 230.845578 
L 381.874833 230.933848 
L 382.19126 230.872605 
L 382.507687 230.943415 
L 383.140542 230.862348 
L 383.615183 230.86953 
L 383.931611 230.878248 
L 384.564466 230.888712 
L 385.830175 230.946811 
L 386.146603 231.04275 
L 386.46303 231.028196 
L 386.937671 231.160207 
L 387.412313 231.112138 
L 387.72874 231.117728 
L 388.045167 231.026003 
L 388.361595 231.055567 
L 388.836236 230.988188 
L 389.152663 230.996513 
L 389.627305 231.136059 
L 392.316938 231.311197 
L 393.108006 231.435493 
L 393.899075 231.201064 
L 394.53193 231.270848 
L 394.848357 231.253255 
L 395.639426 231.37985 
L 396.114067 231.233076 
L 396.588708 231.298264 
L 397.379777 231.268578 
L 398.329059 231.414674 
L 398.487273 231.432866 
L 398.487273 231.432866 
" style="fill:none;stroke:#000000;stroke-linecap:square;stroke-width:1.5;"/>
   </g>
   <g id="patch_3">
    <path d="M 57.6 307.584 
L 57.6 41.472 
" style="fill:none;stroke:#000000;stroke-linecap:square;stroke-linejoin:miter;stroke-width:0.8;"/>
   </g>
   <g id="patch_4">
    <path d="M 414.72 307.584 
L 414.72 41.472 
" style="fill:none;stroke:#000000;stroke-linecap:square;stroke-linejoin:miter;stroke-width:0.8;"/>
   </g>
   <g id="patch_5">
    <path d="M 57.6 307.584 
L 414.72 307.584 
" style="fill:none;stroke:#000000;stroke-linecap:square;stroke-linejoin:miter;stroke-width:0.8;"/>
   </g>
   <g id="patch_6">
    <path d="M 57.6 41.472 
L 414.72 41.472 
" style="fill:none;stroke:#000000;stroke-linecap:square;stroke-linejoin:miter;stroke-width:0.8;"/>
   </g>
  </g>
 </g>
 <defs>
  <clipPath id="pb95b728b6f">
   <rect height="266.112" width="357.12" x="57.6" y="41.472"/>
  </clipPath>
 </defs>
</svg>
