<?xml version="1.0" encoding="utf-8" standalone="no"?>
<!DOCTYPE svg PUBLIC "-//W3C//DTD SVG 1.1//EN"
  "http://www.w3.org/Graphics/SVG/1.1/DTD/svg11.dtd">
<svg xmlns:xlink="http://www.w3.org/1999/xlink" width="265.704687pt" height="199.152125pt" viewBox="0 0 265.704687 199.152125" xmlns="http://www.w3.org/2000/svg" version="1.1">
 <metadata>
  <rdf:RDF xmlns:dc="http://purl.org/dc/elements/1.1/" xmlns:cc="http://creativecommons.org/ns#" xmlns:rdf="http://www.w3.org/1999/02/22-rdf-syntax-ns#">
   <cc:Work>
    <dc:type rdf:resource="http://purl.org/dc/dcmitype/StillImage"/>
    <dc:date>2025-12-19T10:05:34.165853</dc:date>
    <dc:format>image/svg+xml</dc:format>
    <dc:creator>
     <cc:Agent>
      <dc:title>Matplotlib v3.10.7, https://matplotlib.org/</dc:title>
     </cc:Agent>
    </dc:creator>
   </cc:Work>
  </rdf:RDF>
 </metadata>
 <defs>
  <style type="text/css">*{stroke-linejoin: round; stroke-linecap: butt}</style>
 </defs>
 <g id="figure_1">
  <g id="patch_1">
   <path d="M 0 199.152125 
L 265.704687 199.152125 
L 265.704687 0 
L 0 0 
z
" style="fill: #ffffff"/>
  </g>
  <g id="axes_1">
   <g id="patch_2">
    <path d="M 35.304688 175.274 
L 258.504687 175.274 
L 258.504687 8.954 
L 35.304688 8.954 
z
" style="fill: #ffffff"/>
   </g>
   <g id="matplotlib.axis_1">
    <g id="xtick_1">
     <g id="line2d_1">
      <defs>
       <path id="me3a8255ddd" d="M 0 0 
L 0 3.5 
" style="stroke: #000000; stroke-width: 0.8"/>
      </defs>
      <g>
       <use xlink:href="#me3a8255ddd" x="37.660955" y="175.274" style="stroke: #000000; stroke-width: 0.8"/>
      </g>
     </g>
     <g id="text_1">
      <!-- 0.75 -->
      <g transform="translate(26.528143 189.872438) scale(0.1 -0.1)">
       <defs>
        <path id="DejaVuSans-30" d="M 2034 4250 
Q 1547 4250 1301 3770 
Q 1056 3291 1056 2328 
Q 1056 1369 1301 889 
Q 1547 409 2034 409 
Q 2525 409 2770 889 
Q 3016 1369 3016 2328 
Q 3016 3291 2770 3770 
Q 2525 4250 2034 4250 
z
M 2034 4750 
Q 2819 4750 3233 4129 
Q 3647 3509 3647 2328 
Q 3647 1150 3233 529 
Q 2819 -91 2034 -91 
Q 1250 -91 836 529 
Q 422 1150 422 2328 
Q 422 3509 836 4129 
Q 1250 4750 2034 4750 
z
" transform="scale(0.015625)"/>
        <path id="DejaVuSans-2e" d="M 684 794 
L 1344 794 
L 1344 0 
L 684 0 
L 684 794 
z
" transform="scale(0.015625)"/>
        <path id="DejaVuSans-37" d="M 525 4666 
L 3525 4666 
L 3525 4397 
L 1831 0 
L 1172 0 
L 2766 4134 
L 525 4134 
L 525 4666 
z
" transform="scale(0.015625)"/>
        <path id="DejaVuSans-35" d="M 691 4666 
L 3169 4666 
L 3169 4134 
L 1269 4134 
L 1269 2991 
Q 1406 3038 1543 3061 
Q 1681 3084 1819 3084 
Q 2600 3084 3056 2656 
Q 3513 2228 3513 1497 
Q 3513 744 3044 326 
Q 2575 -91 1722 -91 
Q 1428 -91 1123 -41 
Q 819 9 494 109 
L 494 744 
Q 775 591 1075 516 
Q 1375 441 1709 441 
Q 2250 441 2565 725 
Q 2881 1009 2881 1497 
Q 2881 1984 2565 2268 
Q 2250 2553 1709 2553 
Q 1456 2553 1204 2497 
Q 953 2441 691 2322 
L 691 4666 
z
" transform="scale(0.015625)"/>
       </defs>
       <use xlink:href="#DejaVuSans-30"/>
       <use xlink:href="#DejaVuSans-2e" transform="translate(63.623047 0)"/>
       <use xlink:href="#DejaVuSans-37" transform="translate(95.410156 0)"/>
       <use xlink:href="#DejaVuSans-35" transform="translate(159.033203 0)"/>
      </g>
     </g>
    </g>
    <g id="xtick_2">
     <g id="line2d_2">
      <g>
       <use xlink:href="#me3a8255ddd" x="76.684936" y="175.274" style="stroke: #000000; stroke-width: 0.8"/>
      </g>
     </g>
     <g id="text_2">
      <!-- 1.00 -->
      <g transform="translate(65.552124 189.872438) scale(0.1 -0.1)">
       <defs>
        <path id="DejaVuSans-31" d="M 794 531 
L 1825 531 
L 1825 4091 
L 703 3866 
L 703 4441 
L 1819 4666 
L 2450 4666 
L 2450 531 
L 3481 531 
L 3481 0 
L 794 0 
L 794 531 
z
" transform="scale(0.015625)"/>
       </defs>
       <use xlink:href="#DejaVuSans-31"/>
       <use xlink:href="#DejaVuSans-2e" transform="translate(63.623047 0)"/>
       <use xlink:href="#DejaVuSans-30" transform="translate(95.410156 0)"/>
       <use xlink:href="#DejaVuSans-30" transform="translate(159.033203 0)"/>
      </g>
     </g>
    </g>
    <g id="xtick_3">
     <g id="line2d_3">
      <g>
       <use xlink:href="#me3a8255ddd" x="115.708917" y="175.274" style="stroke: #000000; stroke-width: 0.8"/>
      </g>
     </g>
     <g id="text_3">
      <!-- 1.25 -->
      <g transform="translate(104.576105 189.872438) scale(0.1 -0.1)">
       <defs>
        <path id="DejaVuSans-32" d="M 1228 531 
L 3431 531 
L 3431 0 
L 469 0 
L 469 531 
Q 828 903 1448 1529 
Q 2069 2156 2228 2338 
Q 2531 2678 2651 2914 
Q 2772 3150 2772 3378 
Q 2772 3750 2511 3984 
Q 2250 4219 1831 4219 
Q 1534 4219 1204 4116 
Q 875 4013 500 3803 
L 500 4441 
Q 881 4594 1212 4672 
Q 1544 4750 1819 4750 
Q 2544 4750 2975 4387 
Q 3406 4025 3406 3419 
Q 3406 3131 3298 2873 
Q 3191 2616 2906 2266 
Q 2828 2175 2409 1742 
Q 1991 1309 1228 531 
z
" transform="scale(0.015625)"/>
       </defs>
       <use xlink:href="#DejaVuSans-31"/>
       <use xlink:href="#DejaVuSans-2e" transform="translate(63.623047 0)"/>
       <use xlink:href="#DejaVuSans-32" transform="translate(95.410156 0)"/>
       <use xlink:href="#DejaVuSans-35" transform="translate(159.033203 0)"/>
      </g>
     </g>
    </g>
    <g id="xtick_4">
     <g id="line2d_4">
      <g>
       <use xlink:href="#me3a8255ddd" x="154.732898" y="175.274" style="stroke: #000000; stroke-width: 0.8"/>
      </g>
     </g>
     <g id="text_4">
      <!-- 1.50 -->
      <g transform="translate(143.600086 189.872438) scale(0.1 -0.1)">
       <use xlink:href="#DejaVuSans-31"/>
       <use xlink:href="#DejaVuSans-2e" transform="translate(63.623047 0)"/>
       <use xlink:href="#DejaVuSans-35" transform="translate(95.410156 0)"/>
       <use xlink:href="#DejaVuSans-30" transform="translate(159.033203 0)"/>
      </g>
     </g>
    </g>
    <g id="xtick_5">
     <g id="line2d_5">
      <g>
       <use xlink:href="#me3a8255ddd" x="193.756879" y="175.274" style="stroke: #000000; stroke-width: 0.8"/>
      </g>
     </g>
     <g id="text_5">
      <!-- 1.75 -->
      <g transform="translate(182.624066 189.872438) scale(0.1 -0.1)">
       <use xlink:href="#DejaVuSans-31"/>
       <use xlink:href="#DejaVuSans-2e" transform="translate(63.623047 0)"/>
       <use xlink:href="#DejaVuSans-37" transform="translate(95.410156 0)"/>
       <use xlink:href="#DejaVuSans-35" transform="translate(159.033203 0)"/>
      </g>
     </g>
    </g>
    <g id="xtick_6">
     <g id="line2d_6">
      <g>
       <use xlink:href="#me3a8255ddd" x="232.78086" y="175.274" style="stroke: #000000; stroke-width: 0.8"/>
      </g>
     </g>
     <g id="text_6">
      <!-- 2.00 -->
      <g transform="translate(221.648047 189.872438) scale(0.1 -0.1)">
       <use xlink:href="#DejaVuSans-32"/>
       <use xlink:href="#DejaVuSans-2e" transform="translate(63.623047 0)"/>
       <use xlink:href="#DejaVuSans-30" transform="translate(95.410156 0)"/>
       <use xlink:href="#DejaVuSans-30" transform="translate(159.033203 0)"/>
      </g>
     </g>
    </g>
   </g>
   <g id="matplotlib.axis_2">
    <g id="ytick_1">
     <g id="line2d_7">
      <defs>
       <path id="me8c63201cf" d="M 0 0 
L -3.5 0 
" style="stroke: #000000; stroke-width: 0.8"/>
      </defs>
      <g>
       <use xlink:href="#me8c63201cf" x="35.304688" y="162.847412" style="stroke: #000000; stroke-width: 0.8"/>
      </g>
     </g>
     <g id="text_7">
      <!-- −80 -->
      <g transform="translate(7.2 166.646631) scale(0.1 -0.1)">
       <defs>
        <path id="DejaVuSans-2212" d="M 678 2272 
L 4684 2272 
L 4684 1741 
L 678 1741 
L 678 2272 
z
" transform="scale(0.015625)"/>
        <path id="DejaVuSans-38" d="M 2034 2216 
Q 1584 2216 1326 1975 
Q 1069 1734 1069 1313 
Q 1069 891 1326 650 
Q 1584 409 2034 409 
Q 2484 409 2743 651 
Q 3003 894 3003 1313 
Q 3003 1734 2745 1975 
Q 2488 2216 2034 2216 
z
M 1403 2484 
Q 997 2584 770 2862 
Q 544 3141 544 3541 
Q 544 4100 942 4425 
Q 1341 4750 2034 4750 
Q 2731 4750 3128 4425 
Q 3525 4100 3525 3541 
Q 3525 3141 3298 2862 
Q 3072 2584 2669 2484 
Q 3125 2378 3379 2068 
Q 3634 1759 3634 1313 
Q 3634 634 3220 271 
Q 2806 -91 2034 -91 
Q 1263 -91 848 271 
Q 434 634 434 1313 
Q 434 1759 690 2068 
Q 947 2378 1403 2484 
z
M 1172 3481 
Q 1172 3119 1398 2916 
Q 1625 2713 2034 2713 
Q 2441 2713 2670 2916 
Q 2900 3119 2900 3481 
Q 2900 3844 2670 4047 
Q 2441 4250 2034 4250 
Q 1625 4250 1398 4047 
Q 1172 3844 1172 3481 
z
" transform="scale(0.015625)"/>
       </defs>
       <use xlink:href="#DejaVuSans-2212"/>
       <use xlink:href="#DejaVuSans-38" transform="translate(83.789062 0)"/>
       <use xlink:href="#DejaVuSans-30" transform="translate(147.412109 0)"/>
      </g>
     </g>
    </g>
    <g id="ytick_2">
     <g id="line2d_8">
      <g>
       <use xlink:href="#me8c63201cf" x="35.304688" y="137.53938" style="stroke: #000000; stroke-width: 0.8"/>
      </g>
     </g>
     <g id="text_8">
      <!-- −60 -->
      <g transform="translate(7.2 141.338598) scale(0.1 -0.1)">
       <defs>
        <path id="DejaVuSans-36" d="M 2113 2584 
Q 1688 2584 1439 2293 
Q 1191 2003 1191 1497 
Q 1191 994 1439 701 
Q 1688 409 2113 409 
Q 2538 409 2786 701 
Q 3034 994 3034 1497 
Q 3034 2003 2786 2293 
Q 2538 2584 2113 2584 
z
M 3366 4563 
L 3366 3988 
Q 3128 4100 2886 4159 
Q 2644 4219 2406 4219 
Q 1781 4219 1451 3797 
Q 1122 3375 1075 2522 
Q 1259 2794 1537 2939 
Q 1816 3084 2150 3084 
Q 2853 3084 3261 2657 
Q 3669 2231 3669 1497 
Q 3669 778 3244 343 
Q 2819 -91 2113 -91 
Q 1303 -91 875 529 
Q 447 1150 447 2328 
Q 447 3434 972 4092 
Q 1497 4750 2381 4750 
Q 2619 4750 2861 4703 
Q 3103 4656 3366 4563 
z
" transform="scale(0.015625)"/>
       </defs>
       <use xlink:href="#DejaVuSans-2212"/>
       <use xlink:href="#DejaVuSans-36" transform="translate(83.789062 0)"/>
       <use xlink:href="#DejaVuSans-30" transform="translate(147.412109 0)"/>
      </g>
     </g>
    </g>
    <g id="ytick_3">
     <g id="line2d_9">
      <g>
       <use xlink:href="#me8c63201cf" x="35.304688" y="112.231347" style="stroke: #000000; stroke-width: 0.8"/>
      </g>
     </g>
     <g id="text_9">
      <!-- −40 -->
      <g transform="translate(7.2 116.030566) scale(0.1 -0.1)">
       <defs>
        <path id="DejaVuSans-34" d="M 2419 4116 
L 825 1625 
L 2419 1625 
L 2419 4116 
z
M 2253 4666 
L 3047 4666 
L 3047 1625 
L 3713 1625 
L 3713 1100 
L 3047 1100 
L 3047 0 
L 2419 0 
L 2419 1100 
L 313 1100 
L 313 1709 
L 2253 4666 
z
" transform="scale(0.015625)"/>
       </defs>
       <use xlink:href="#DejaVuSans-2212"/>
       <use xlink:href="#DejaVuSans-34" transform="translate(83.789062 0)"/>
       <use xlink:href="#DejaVuSans-30" transform="translate(147.412109 0)"/>
      </g>
     </g>
    </g>
    <g id="ytick_4">
     <g id="line2d_10">
      <g>
       <use xlink:href="#me8c63201cf" x="35.304688" y="86.923315" style="stroke: #000000; stroke-width: 0.8"/>
      </g>
     </g>
     <g id="text_10">
      <!-- −20 -->
      <g transform="translate(7.2 90.722534) scale(0.1 -0.1)">
       <use xlink:href="#DejaVuSans-2212"/>
       <use xlink:href="#DejaVuSans-32" transform="translate(83.789062 0)"/>
       <use xlink:href="#DejaVuSans-30" transform="translate(147.412109 0)"/>
      </g>
     </g>
    </g>
    <g id="ytick_5">
     <g id="line2d_11">
      <g>
       <use xlink:href="#me8c63201cf" x="35.304688" y="61.615283" style="stroke: #000000; stroke-width: 0.8"/>
      </g>
     </g>
     <g id="text_11">
      <!-- 0 -->
      <g transform="translate(21.942187 65.414502) scale(0.1 -0.1)">
       <use xlink:href="#DejaVuSans-30"/>
      </g>
     </g>
    </g>
    <g id="ytick_6">
     <g id="line2d_12">
      <g>
       <use xlink:href="#me8c63201cf" x="35.304688" y="36.307251" style="stroke: #000000; stroke-width: 0.8"/>
      </g>
     </g>
     <g id="text_12">
      <!-- 20 -->
      <g transform="translate(15.579687 40.10647) scale(0.1 -0.1)">
       <use xlink:href="#DejaVuSans-32"/>
       <use xlink:href="#DejaVuSans-30" transform="translate(63.623047 0)"/>
      </g>
     </g>
    </g>
    <g id="ytick_7">
     <g id="line2d_13">
      <g>
       <use xlink:href="#me8c63201cf" x="35.304688" y="10.999219" style="stroke: #000000; stroke-width: 0.8"/>
      </g>
     </g>
     <g id="text_13">
      <!-- 40 -->
      <g transform="translate(15.579687 14.798438) scale(0.1 -0.1)">
       <use xlink:href="#DejaVuSans-34"/>
       <use xlink:href="#DejaVuSans-30" transform="translate(63.623047 0)"/>
      </g>
     </g>
    </g>
   </g>
   <g id="line2d_14">
    <path d="M 45.450142 147.012421 
L 47.385731 146.902393 
L 47.588656 146.951294 
L 47.682314 146.99612 
L 47.713533 146.97167 
L 47.900848 146.959445 
L 49.087177 146.849417 
L 49.36815 146.824967 
L 50.335944 146.97167 
L 50.554479 146.97982 
L 51.194472 146.869793 
L 51.319349 146.877943 
L 51.334958 146.898318 
L 51.537883 146.930919 
L 51.787637 146.967595 
L 51.912513 146.939069 
L 52.911527 146.564161 
L 53.067623 146.560086 
L 53.629568 146.600837 
L 53.879322 146.592686 
L 54.441267 146.625287 
L 54.847117 146.51526 
L 55.11248 146.445983 
L 57.235384 146.54786 
L 57.40709 146.564161 
L 57.547576 146.556011 
L 57.641234 146.584536 
L 57.672453 146.543785 
L 57.844158 146.576386 
L 59.030487 146.678263 
L 59.170974 146.698639 
L 59.795357 146.641587 
L 59.982673 146.682338 
L 60.154378 146.649738 
L 60.747543 146.743465 
L 60.872419 146.751615 
L 61.122173 146.77199 
L 61.262659 146.53971 
L 61.60607 145.948822 
L 62.089967 145.936597 
L 63.323125 146.034399 
L 63.479221 146.042549 
L 63.666536 146.107751 
L 63.91629 146.205553 
L 64.134824 146.274829 
L 64.368968 146.319655 
L 65.555297 146.429683 
L 65.727003 146.478584 
L 65.992366 146.560086 
L 66.366996 146.576386 
L 67.006989 146.633437 
L 67.163085 146.629362 
L 67.381619 146.661963 
L 70.113298 146.767915 
L 70.144517 146.780141 
L 70.191346 146.719014 
L 70.862558 146.164802 
L 71.19036 146.221853 
L 71.408894 146.230003 
L 71.611819 146.278905 
L 71.861572 146.352256 
L 72.002059 146.360406 
L 72.267422 146.433758 
L 72.860586 146.388932 
L 73.797162 146.53156 
L 74.000086 146.319655 
L 74.031306 146.356331 
L 74.374717 146.254454 
L 74.530813 146.213703 
L 74.655689 146.177027 
L 74.686909 146.221853 
L 74.874224 146.274829 
L 75.123977 146.266679 
L 75.467388 146.287055 
L 76.044943 146.327806 
L 76.310306 146.30743 
L 76.575669 146.331881 
L 76.669327 146.323731 
L 76.684936 146.384857 
L 77.012738 150.806334 
L 78.792231 159.095103 
L 80.00978 162.554882 
L 80.540506 163.585889 
L 80.961965 164.209384 
L 81.742444 165.069237 
L 81.804883 165.142589 
L 82.023417 165.358571 
L 82.27317 165.607154 
L 82.835116 166.043194 
L 83.05365 166.096171 
L 83.787301 166.597412 
L 84.037054 166.788944 
L 84.130712 166.764493 
L 84.146321 166.780794 
L 84.411685 166.862296 
L 84.661438 166.907123 
L 85.395089 166.992701 
L 85.535575 167.013076 
L 86.097521 167.192382 
L 86.191178 167.147556 
L 86.222397 167.172007 
L 86.378493 167.220908 
L 87.299459 167.363538 
L 87.471165 167.339087 
L 87.752137 167.379839 
L 88.001891 167.392064 
L 88.142377 167.461342 
L 88.314083 167.42874 
L 88.719932 167.436891 
L 89.016514 167.41244 
L 89.157001 167.424665 
L 92.669159 167.314637 
L 92.887693 167.298336 
L 93.01257 167.318712 
L 93.168666 166.956024 
L 93.231104 167.000851 
L 93.527686 166.964175 
L 93.715002 166.943799 
L 93.76183 166.931574 
L 93.808659 166.996776 
L 94.105241 167.045677 
L 94.292556 167.021227 
L 94.479872 167.074203 
L 94.635968 167.082354 
L 94.994988 167.066053 
L 95.30718 167.098654 
L 95.369618 167.131255 
L 95.416447 167.070128 
L 95.603762 167.049753 
L 95.962783 167.200533 
L 96.82131 167.310561 
L 97.071064 167.367613 
L 97.273989 167.416515 
L 97.476913 167.477642 
L 97.58618 167.530619 
L 97.773496 167.612122 
L 97.789105 167.595821 
L 98.881777 167.493943 
L 99.069092 167.396139 
L 99.787133 167.310561 
L 100.052496 167.379839 
L 100.364688 167.216833 
L 100.598832 166.687065 
L 100.708099 166.638164 
L 100.723709 166.662615 
L 100.942243 166.735967 
L 101.644674 166.82562 
L 101.81638 166.66669 
L 101.988086 166.687065 
L 102.050524 166.597412 
L 102.112962 166.678915 
L 102.269058 166.703366 
L 102.362716 166.764493 
L 102.628079 166.866371 
L 102.643688 166.81747 
L 102.862223 166.075795 
L 102.97149 166.140997 
L 103.143195 166.226575 
L 103.455387 166.336604 
L 103.939285 166.585187 
L 104.079771 166.654464 
L 104.313915 166.699291 
L 104.423182 166.715591 
L 105.562682 166.903048 
L 105.671949 166.964175 
L 106.155847 167.070128 
L 106.280723 167.061978 
L 106.42121 167.098654 
L 106.733402 167.220908 
L 107.045593 167.163856 
L 107.264128 167.237209 
L 107.435833 167.188307 
L 107.5451 167.163856 
L 107.56071 167.131255 
L 107.716806 167.147556 
L 108.122655 167.249434 
L 108.356799 167.249434 
L 108.981183 167.298336 
L 109.199717 167.343163 
L 109.371423 167.367613 
L 109.683615 167.424665 
L 109.777272 167.371688 
L 109.824101 167.408365 
L 110.136293 167.440966 
L 110.651409 167.595821 
L 110.885553 167.224984 
L 112.290416 167.330937 
L 112.399684 167.298336 
L 112.789923 167.408365 
L 112.899191 167.392064 
L 112.946019 167.355388 
L 113.008458 167.416515 
L 113.383088 167.506168 
L 113.586013 167.469492 
L 113.710889 167.465417 
L 113.976252 167.502093 
L 114.147958 167.583596 
L 114.163568 167.57137 
L 114.288444 167.612122 
L 114.475759 167.652873 
L 115.022095 167.685474 
L 115.178191 167.652873 
L 115.381116 167.673249 
L 115.521602 167.640648 
L 116.536226 167.530619 
L 117.316705 167.245359 
L 117.831822 167.224984 
L 118.034746 167.265735 
L 118.237671 167.237209 
L 118.456205 167.188307 
L 118.565473 167.188307 
L 118.581082 167.204608 
L 118.908884 167.176082 
L 119.595706 167.102729 
L 119.892288 167.273885 
L 120.032774 167.298336 
L 120.18887 167.322787 
L 120.313747 167.363538 
L 120.516672 167.42874 
L 121.281542 167.514318 
L 121.34398 167.542844 
L 121.390809 167.506168 
L 121.781049 167.416515 
L 121.983973 167.457266 
L 122.09324 167.424665 
L 122.10885 167.445041 
L 122.249336 167.416515 
L 122.561528 167.457266 
L 122.998597 167.473567 
L 123.170302 167.42874 
L 123.513713 167.424665 
L 123.63859 167.387989 
L 123.872734 167.477642 
L 124.122487 167.416515 
L 124.450289 167.400214 
L 124.512727 167.351313 
L 124.575166 167.440966 
L 124.902967 167.465417 
L 125.496132 167.510243 
L 125.652228 167.498018 
L 126.058077 167.489868 
L 126.214173 167.559145 
L 126.229782 167.534694 
L 126.635632 167.053828 
L 126.651241 167.066053 
L 126.807337 167.070128 
L 131.771188 167.176082 
L 131.989722 167.172007 
L 132.317523 167.188307 
L 132.4424 167.298336 
L 132.473619 167.26166 
L 132.707763 167.098654 
L 132.895078 167.082354 
L 133.269709 166.837845 
L 133.784825 166.988626 
L 133.97214 167.013076 
L 134.393599 167.017151 
L 134.612134 166.915273 
L 134.783839 166.964175 
L 135.12725 166.98455 
L 135.236517 167.033452 
L 135.267736 167.013076 
L 135.673586 166.903048 
L 135.720415 166.886747 
L 135.767243 166.96825 
L 135.923339 166.972325 
L 136.095045 166.972325 
L 136.844305 167.074203 
L 137.250155 167.257585 
L 137.484299 167.216833 
L 137.687223 167.184232 
L 138.57697 167.302411 
L 138.873552 167.330937 
L 139.138915 167.41244 
L 139.71647 167.167932 
L 139.903785 166.919348 
L 140.044272 166.947874 
L 140.231587 166.988626 
L 140.49695 166.964175 
L 140.621827 166.907123 
L 140.809142 166.96825 
L 141.964252 167.155706 
L 142.541806 167.253509 
L 142.77595 167.363538 
L 142.963265 167.314637 
L 143.119361 167.42059 
L 143.369115 167.432816 
L 144.196423 167.335012 
L 144.446177 167.184232 
L 144.649101 167.163856 
L 145.273485 167.114955 
L 145.570067 167.147556 
L 149.581733 167.237209 
L 149.722219 167.265735 
L 151.017815 167.375764 
L 151.236349 167.383914 
L 151.423664 167.375764 
L 152.016829 167.485792 
L 152.204144 167.518393 
L 152.329021 167.534694 
L 152.500726 167.567295 
L 153.780713 167.457266 
L 154.545583 167.359463 
L 154.717288 167.363538 
L 154.748508 167.013076 
L 154.935823 163.814096 
L 155.372891 161.250842 
L 155.856789 159.30701 
L 156.57483 157.245001 
L 156.668488 156.923067 
L 157.105556 155.643482 
L 157.932864 154.160143 
L 158.057741 153.997139 
L 158.354323 153.581478 
L 158.900659 152.917236 
L 159.119194 152.705331 
L 159.306509 152.452674 
L 160.648934 151.535776 
L 160.851858 151.376847 
L 161.086002 151.177168 
L 161.632338 150.773733 
L 161.835263 150.700381 
L 161.94453 150.64333 
L 162.178674 150.553677 
L 163.005982 150.24397 
L 163.052811 150.24397 
L 163.08403 150.178769 
L 163.302564 150.040215 
L 163.489879 149.995389 
L 163.677194 149.893512 
L 163.802071 149.905737 
L 163.942558 149.807935 
L 164.129873 149.681607 
L 164.364017 149.575654 
L 164.535722 149.555279 
L 164.894743 149.408575 
L 166.424483 148.895113 
L 166.643017 148.825837 
L 166.799113 148.785086 
L 167.158134 148.719884 
L 168.578606 148.463153 
L 168.81275 148.357201 
L 169.078113 148.181972 
L 169.764935 148.10047 
L 169.889812 148.096395 
L 170.123956 148.096395 
L 170.3581 148.043419 
L 170.514196 147.851889 
L 170.639073 147.607384 
L 170.685901 147.64406 
L 170.763949 147.603309 
L 170.779559 147.582933 
L 170.982484 147.485131 
L 171.4976 147.391404 
L 171.653696 147.346578 
L 171.794182 147.313977 
L 171.981498 147.301752 
L 172.730758 147.383254 
L 174.276108 147.493281 
L 174.806834 147.529957 
L 174.994149 147.521807 
L 179.505321 147.41993 
L 179.708246 147.330278 
L 179.92678 147.273226 
L 180.722869 147.179499 
L 181.06628 147.163199 
L 181.144328 147.102073 
L 181.206767 147.150974 
L 181.550178 147.130598 
L 181.799931 147.114298 
L 182.158952 147.097998 
L 182.830164 147.036871 
L 183.048699 146.98797 
L 183.298452 146.788291 
L 183.579425 146.824967 
L 183.829178 146.837192 
L 184.14137 146.776065 
L 184.359904 146.845342 
L 184.625267 146.824967 
L 187.075973 146.926844 
L 187.169631 146.967595 
L 187.20085 146.934994 
L 187.232069 146.918694 
L 187.294508 146.967595 
L 187.559871 147.036871 
L 188.886686 147.142824 
L 189.042782 147.167274 
L 189.932529 147.289527 
L 190.026186 147.371029 
L 190.213501 147.395479 
L 190.463255 147.387329 
L 192.086653 147.289527 
L 192.320796 147.118373 
L 192.492502 147.049096 
L 193.194934 146.800516 
L 195.192961 146.906468 
L 195.598811 147.012421 
L 195.770516 147.016496 
L 195.973441 147.093922 
L 195.989051 147.065397 
L 196.035879 147.020571 
L 196.098318 147.069472 
L 196.223195 147.057247 
L 198.470976 147.167274 
L 199.922668 147.44438 
L 200.109983 147.407704 
L 200.734367 147.334353 
L 200.874853 147.375104 
L 201.093387 147.379179 
L 201.37436 147.41178 
L 201.577285 147.391404 
L 201.655333 147.395479 
L 201.670942 147.362878 
L 201.811429 147.334353 
L 202.232888 147.338428 
L 202.373374 147.342503 
L 202.669956 147.309902 
L 202.826052 147.318052 
L 203.075806 147.232476 
L 203.356778 146.943144 
L 203.512874 146.930919 
L 203.903114 146.939069 
L 204.121648 146.934994 
L 204.246525 146.967595 
L 204.308963 146.902393 
L 204.527498 146.413382 
L 204.558717 146.441908 
L 204.964566 146.433758 
L 205.120662 146.458208 
L 205.276758 146.429683 
L 205.651388 146.270754 
L 206.135286 146.28298 
L 206.478697 146.30743 
L 206.681621 146.348181 
L 206.884546 146.323731 
L 207.274786 146.409307 
L 207.399663 146.384857 
L 207.415272 146.401157 
L 207.727464 146.445983 
L 208.133313 146.425608 
L 208.2738 146.454133 
L 208.617211 146.474509 
L 208.757697 146.494884 
L 209.725492 146.592686 
L 209.928417 146.682338 
L 210.271828 146.674188 
L 210.443533 146.474509 
L 210.459143 146.482659 
L 210.724506 146.401157 
L 211.489376 146.486734 
L 211.754739 146.527485 
L 211.926444 146.572311 
L 212.09815 146.543785 
L 212.363513 146.584536 
L 212.503999 146.556011 
L 212.987897 146.543785 
L 214.673733 146.877943 
L 214.892267 146.829042 
L 215.079582 146.922769 
L 215.407384 147.057247 
L 215.54787 147.102073 
L 215.672747 147.073547 
L 216.062986 147.155049 
L 216.281521 147.159124 
L 218.638569 147.66851 
L 218.825884 147.631835 
L 219.013199 147.623684 
L 219.231734 147.631835 
L 219.38783 147.615534 
L 219.606364 147.615534 
L 219.731241 147.558483 
L 219.74685 147.574783 
L 219.887337 147.591084 
L 220.402453 147.615534 
L 220.542939 147.615534 
L 221.916584 147.725562 
L 222.44731 147.750012 
L 222.681454 147.794838 
L 222.837549 147.819289 
L 222.853159 147.762237 
L 223.056084 147.407704 
L 223.087303 147.41993 
L 223.430714 147.346578 
L 223.5712 147.354728 
L 224.710701 147.167274 
L 224.898016 147.22025 
L 225.10094 147.236551 
L 225.413132 147.20395 
L 225.584838 147.236551 
L 225.943858 147.322128 
L 226.068735 147.330278 
L 226.302879 147.330278 
L 226.490194 147.309902 
L 226.708728 147.362878 
L 226.974091 147.289527 
L 227.41116 147.281377 
L 227.723352 147.322128 
L 227.988715 147.293602 
L 228.222859 147.122448 
L 228.238468 147.138748 
L 228.378955 147.142824 
L 228.519441 147.110223 
L 228.691147 147.085772 
L 229.081386 147.077622 
L 229.658941 146.816816 
L 229.830647 146.666038 
L 230.376983 146.572311 
L 230.564298 146.503034 
L 230.720394 146.560086 
L 230.84527 146.543785 
L 231.844284 146.649738 
L 232.094038 146.670113 
L 232.499887 146.580461 
L 233.405243 146.450058 
L 233.592559 146.433758 
L 233.701826 146.433758 
L 233.717435 146.450058 
L 233.873531 146.433758 
L 234.123285 146.450058 
L 234.357429 146.494884 
L 234.544744 146.503034 
L 234.966203 146.503034 
L 235.231566 146.53156 
L 235.372052 146.519335 
L 235.653025 146.629362 
L 235.84034 146.698639 
L 235.855949 146.682338 
L 236.027655 146.678263 
L 236.246189 146.714939 
L 237.011059 146.808666 
L 237.182765 146.792366 
L 237.292032 146.74754 
L 237.791539 146.344106 
L 237.807149 146.360406 
L 238.056902 146.380782 
L 238.50958 146.266679 
L 238.806162 146.31558 
L 239.102745 146.205553 
L 239.368108 146.225928 
L 240.694923 145.993648 
L 240.913457 145.989573 
L 241.147601 145.83472 
L 241.319307 145.887696 
L 241.771985 145.908072 
L 242.380759 144.742597 
L 242.568074 144.730371 
L 242.72417 144.811873 
L 242.755389 144.738522 
L 243.020752 144.082433 
L 243.801232 144.18431 
L 244.004157 144.290262 
L 244.207081 144.306563 
L 244.425616 144.359539 
L 244.612931 144.396214 
L 244.862684 144.388064 
L 245.03439 144.453266 
L 245.908527 144.575518 
L 246.329986 144.278037 
L 246.517301 144.233211 
L 246.642178 144.241361 
L 247.094856 144.237286 
L 247.672411 144.331013 
L 247.766068 144.379914 
L 247.797288 144.343238 
L 247.922164 144.379914 
L 248.09387 144.469566 
L 248.109479 144.457341 
L 248.359233 144.498092 
L 248.359233 144.498092 
" clip-path="url(#pa1d2d3c339)" style="fill: none; stroke: #000000; stroke-opacity: 0.5; stroke-width: 1.5; stroke-linecap: square"/>
   </g>
   <g id="line2d_15">
    <path d="M 45.450142 144.009081 
L 47.214026 144.110959 
L 47.479389 144.208761 
L 47.635485 144.180235 
L 47.885238 144.19246 
L 48.650108 144.298412 
L 48.868643 144.290262 
L 49.009129 144.286187 
L 49.430588 144.477716 
L 49.789609 144.587743 
L 49.976924 144.604044 
L 50.179849 144.65702 
L 50.50765 144.705921 
L 50.866671 144.807798 
L 50.975938 144.791498 
L 51.163253 144.807798 
L 51.210082 144.820023 
L 51.241301 144.754822 
L 51.350568 144.791498 
L 51.537883 144.746672 
L 52.708602 144.852624 
L 53.005185 144.958576 
L 53.208109 145.019703 
L 53.988589 145.11343 
L 54.285171 145.019703 
L 54.472486 145.031928 
L 55.237356 144.767047 
L 55.409062 144.457341 
L 56.158322 144.371764 
L 56.26759 144.367689 
L 56.283199 144.355464 
L 56.439295 144.335088 
L 56.62661 144.278037 
L 57.188555 144.102808 
L 57.453919 144.17616 
L 57.641234 144.237286 
L 57.859768 144.233211 
L 58.250008 144.147634 
L 58.593419 144.204685 
L 59.31146 144.302488 
L 59.405118 144.261737 
L 59.514385 144.237286 
L 59.529994 144.265812 
L 59.592433 144.335088 
L 59.623652 144.237286 
L 59.873405 143.915355 
L 61.21583 143.674925 
L 61.356317 143.731976 
L 61.371926 143.715675 
L 61.559241 143.568972 
L 61.574851 143.589348 
L 61.793385 143.626024 
L 62.355331 143.662699 
L 62.495817 143.68715 
L 62.808009 143.666774 
L 62.948495 143.6953 
L 63.245077 143.670849 
L 63.354344 143.601573 
L 63.401173 143.638249 
L 63.54166 143.568972 
L 63.650927 143.601573 
L 63.713365 143.638249 
L 63.760194 143.548597 
L 64.259701 143.573047 
L 64.837256 143.234816 
L 64.977742 143.226665 
L 65.352372 143.238891 
L 65.602126 143.308167 
L 66.007975 143.312242 
L 67.678202 143.638249 
L 67.787469 143.68715 
L 68.006003 143.862378 
L 68.084051 143.890904 
L 68.11527 143.862378 
L 68.208928 143.837928 
L 68.240147 143.870529 
L 68.52112 143.964256 
L 68.661606 143.984631 
L 69.083065 144.090583 
L 69.457695 144.102808 
L 69.66062 144.188385 
L 69.847935 144.241361 
L 70.01964 144.269887 
L 70.519147 144.379914 
L 70.612805 144.310638 
L 70.78451 144.147634 
L 70.909387 144.196535 
L 71.284017 144.363614 
L 71.408894 144.351389 
L 71.424504 144.375839 
L 71.596209 144.44104 
L 71.611819 144.41659 
L 71.861572 144.457341 
L 72.080107 144.510317 
L 72.34547 144.335088 
L 75.03032 144.233211 
L 75.202025 144.204685 
L 76.684936 144.685546 
L 77.043957 145.720617 
L 77.340539 146.160727 
L 77.434197 146.295205 
L 78.05858 146.914619 
L 78.323944 147.171349 
L 78.46443 147.273226 
L 78.698574 147.481056 
L 79.276129 147.794838 
L 79.322957 147.766313 
L 79.369786 147.839664 
L 79.681978 148.07602 
L 79.775636 148.165672 
L 79.947341 148.239023 
L 80.00978 148.271624 
L 80.025389 148.296075 
L 80.212704 148.385727 
L 83.537547 150.003539 
L 83.896568 150.015765 
L 84.021445 150.01984 
L 84.037054 149.987239 
L 84.177541 149.999464 
L 84.552171 150.158393 
L 84.677048 150.231745 
L 85.082897 150.325472 
L 85.519966 150.431425 
L 85.644842 150.411049 
L 85.925815 150.447725 
L 86.066301 150.431425 
L 86.362884 150.4681 
L 86.956048 150.663705 
L 87.065315 150.66778 
L 87.080925 150.680006 
L 87.205802 150.655555 
L 87.611651 150.561828 
L 90.202843 151.140492 
L 90.32772 151.120116 
L 90.34333 151.140492 
L 91.904289 151.034539 
L 92.325748 150.663705 
L 92.497453 150.688156 
L 92.606721 150.671855 
L 92.62233 150.684081 
L 92.778426 150.696306 
L 93.043789 150.732982 
L 93.231104 150.749282 
L 93.40281 150.745207 
L 93.668173 150.847085 
L 93.855488 150.85931 
L 95.073036 151.063065 
L 95.541324 151.054915 
L 95.69742 151.014164 
L 97.633009 151.116041 
L 97.867153 151.164942 
L 98.054468 151.111966 
L 98.38227 151.173093 
L 98.553975 151.148642 
L 98.725681 151.193468 
L 99.14714 151.022314 
L 99.287626 150.879685 
L 99.443722 150.871535 
L 99.787133 150.887836 
L 99.958839 150.936737 
L 100.224202 150.895986 
L 100.380298 150.936737 
L 100.973462 150.989713 
L 101.020291 150.948962 
L 101.082729 151.014164 
L 101.285654 150.961187 
L 101.644674 150.944887 
L 101.925647 150.981563 
L 102.034914 150.953037 
L 102.159791 150.973413 
L 102.269058 150.928587 
L 102.58125 150.948962 
L 102.721736 150.957112 
L 102.924661 150.936737 
L 103.143195 151.014164 
L 103.533435 150.916361 
L 104.1266 150.178769 
L 104.532449 150.174693 
L 104.938298 150.174693 
L 105.078785 150.231745 
L 105.094394 150.215444 
L 105.687559 150.317322 
L 105.828045 150.337697 
L 107.482662 150.447725 
L 107.966559 150.464025 
L 108.153875 150.529227 
L 108.388018 150.582203 
L 108.71582 150.598504 
L 108.918745 150.65963 
L 110.136293 150.88376 
L 110.323608 150.757432 
L 110.854334 150.732982 
L 111.868957 150.88376 
L 112.259197 150.798183 
L 112.399684 150.716681 
L 112.55578 150.594428 
L 112.571389 150.606654 
L 112.821143 150.594428 
L 113.28943 150.606654 
L 113.742109 150.602579 
L 114.319663 150.639255 
L 114.83478 150.610729 
L 115.084534 150.627029 
L 115.459164 150.545527 
L 116.270863 150.647405 
L 116.505006 150.598504 
L 117.269876 150.504776 
L 117.488411 150.549602 
L 117.660116 150.582203 
L 117.987918 150.557753 
L 118.190842 150.606654 
L 118.393767 150.631104 
L 118.565473 150.594428 
L 118.721569 150.598504 
L 119.424 150.529227 
L 119.564487 150.517002 
L 119.783021 150.517002 
L 119.939117 150.541452 
L 120.173261 150.590353 
L 120.485452 150.496626 
L 120.610329 150.512927 
L 122.389823 150.610729 
L 122.561528 150.65963 
L 122.85811 150.622954 
L 123.373227 150.512927 
L 123.529323 150.512927 
L 123.825905 150.553677 
L 124.060049 150.602579 
L 124.356631 150.565903 
L 124.465899 150.594428 
L 126.916605 150.704456 
L 129.866817 151.376847 
L 130.007304 151.384998 
L 130.91266 151.28312 
L 131.068756 151.295345 
L 131.490215 151.189393 
L 131.942893 150.769658 
L 132.161428 150.598504 
L 132.364352 150.492551 
L 133.378976 150.64333 
L 134.471647 150.745207 
L 134.690181 150.818559 
L 134.815058 150.86746 
L 134.971154 150.830784 
L 135.564319 150.777808 
L 135.829682 150.863385 
L 135.938949 150.794108 
L 135.985778 150.838934 
L 136.204312 150.834859 
L 136.329189 150.87561 
L 136.532113 150.977488 
L 136.766257 151.022314 
L 137.000401 151.071215 
L 137.234545 151.116041 
L 137.515518 151.08344 
L 137.718442 151.111966 
L 138.046244 151.063065 
L 139.060867 151.173093 
L 139.248182 151.213843 
L 139.529155 151.124191 
L 141.043286 151.018239 
L 141.371087 150.378448 
L 141.792546 150.272496 
L 142.151567 150.268421 
L 142.260834 150.268421 
L 142.276443 150.284721 
L 142.494978 150.284721 
L 142.744731 150.329547 
L 142.978875 150.374373 
L 143.056923 150.341772 
L 143.088142 150.398824 
L 144.727149 150.712606 
L 146.506643 150.822634 
L 146.709568 150.806334 
L 147.38078 150.87561 
L 147.490047 150.920436 
L 147.692972 150.981563 
L 148.13004 151.209768 
L 148.270527 151.201618 
L 148.457842 151.136417 
L 149.019787 151.181243 
L 149.051006 151.144567 
L 149.129054 151.197543 
L 150.034411 151.303496 
L 150.330993 151.401298 
L 151.127082 151.103816 
L 151.626589 151.209768 
L 151.923171 151.26682 
L 152.016829 151.197543 
L 152.063658 151.238294 
L 152.329021 151.25867 
L 152.531946 151.270895 
L 152.875357 151.332021 
L 153.062672 151.323871 
L 153.234377 151.384998 
L 153.936809 151.311646 
L 154.701679 151.397223 
L 154.748508 151.323871 
L 154.935823 150.712606 
L 155.154357 150.431425 
L 156.94946 148.886963 
L 157.246042 148.605782 
L 157.464577 148.512055 
L 157.823597 148.210498 
L 157.886036 148.210498 
L 157.917255 148.153446 
L 158.682125 147.639985 
L 158.978707 147.326203 
L 159.24407 147.146899 
L 159.930892 146.580461 
L 160.102598 146.54786 
L 160.430399 146.450058 
L 160.617714 146.397082 
L 160.758201 146.393007 
L 161.335756 146.28298 
L 161.523071 146.217778 
L 162.287941 145.940672 
L 162.459646 145.969198 
L 163.005982 145.85917 
L 163.162078 145.867321 
L 163.521099 145.769519 
L 163.708414 145.659491 
L 164.738647 145.769519 
L 164.941571 145.753218 
L 165.39425 145.740993 
L 165.612784 145.814344 
L 165.75327 145.863246 
L 166.018633 145.883621 
L 166.330825 145.84287 
L 166.51814 145.82657 
L 166.736675 145.793969 
L 167.173743 145.899921 
L 168.094709 145.773594 
L 168.297634 145.757293 
L 169.515182 145.855095 
L 169.640059 145.830645 
L 170.37371 145.724693 
L 170.795169 145.62689 
L 171.154189 145.692092 
L 174.135621 145.802119 
L 174.479032 145.777669 
L 174.994149 145.753218 
L 175.134635 145.769519 
L 175.275122 145.745068 
L 175.649752 145.732843 
L 175.821457 145.761368 
L 176.024382 145.798044 
L 176.227307 145.765443 
L 176.49267 145.781744 
L 176.633156 145.793969 
L 177.148273 145.899921 
L 177.319978 145.899921 
L 177.554122 145.789894 
L 178.350211 145.688017 
L 178.459478 145.647266 
L 178.693622 145.512788 
L 179.208739 145.533163 
L 182.018465 145.643191 
L 182.205781 145.622815 
L 182.455534 145.614665 
L 182.580411 145.61874 
L 183.548206 145.724693 
L 183.844788 145.757293 
L 184.875021 145.60244 
L 185.218432 145.582065 
L 185.421357 145.59429 
L 186.857439 145.863246 
L 187.029145 145.867321 
L 187.513042 145.891771 
L 187.622309 145.912147 
L 187.778405 145.895846 
L 187.96572 145.85917 
L 188.137426 145.863246 
L 188.277912 145.903996 
L 188.543275 145.887696 
L 188.699371 145.961048 
L 188.902296 145.903996 
L 189.074001 145.928447 
L 189.276926 145.952897 
L 190.962762 146.278905 
L 191.290563 146.29113 
L 191.477878 146.327806 
L 192.882742 146.421533 
L 193.023228 146.445983 
L 193.632002 146.397082 
L 194.240776 146.450058 
L 194.428091 146.409307 
L 194.709064 146.441908 
L 195.068085 146.372632 
L 195.114913 146.393007 
L 195.161742 146.348181 
L 195.271009 146.28298 
L 195.302229 146.319655 
L 197.706106 146.425608 
L 197.862202 146.433758 
L 198.127565 146.413382 
L 198.595853 146.30743 
L 198.892435 146.274829 
L 199.313894 146.274829 
L 199.46999 146.31558 
L 199.84462 146.303355 
L 200.21925 146.319655 
L 200.890463 146.209628 
L 201.015339 146.172952 
L 202.13923 146.062925 
L 202.310936 146.038474 
L 202.826052 145.806194 
L 202.982148 145.708392 
L 203.27873 145.61059 
L 203.637751 145.500563 
L 203.934333 145.341634 
L 204.948957 145.182706 
L 205.042614 145.12973 
L 205.229929 145.088979 
L 205.526512 145.056378 
L 205.776265 145.105279 
L 205.932361 145.068604 
L 206.400649 145.052303 
L 206.634793 145.064528 
L 206.822108 145.080829 
L 207.056252 145.048228 
L 207.196738 145.011552 
L 207.446491 145.019703 
L 210.240608 145.12973 
L 210.459143 145.12973 
L 210.630848 145.190856 
L 210.896211 145.264208 
L 211.021088 145.317184 
L 211.224013 145.337559 
L 211.34889 145.366085 
L 211.988883 145.423136 
L 212.441561 145.419061 
L 212.753753 145.398686 
L 212.87863 145.36201 
L 212.894239 145.374235 
L 213.034725 145.402761 
L 213.222041 145.345709 
L 213.362527 145.325334 
L 213.440575 145.341634 
L 213.471794 145.296808 
L 213.62789 145.304959 
L 213.877643 145.366085 
L 214.267883 145.476112 
L 214.502027 145.529088 
L 214.876657 145.545389 
L 215.485431 145.60244 
L 215.797623 145.435361 
L 216.219082 145.313109 
L 216.265911 145.36201 
L 216.343959 145.304959 
L 216.609322 145.264208 
L 216.68737 145.309034 
L 216.734199 145.268283 
L 216.968343 145.317184 
L 217.124439 145.276433 
L 217.780042 145.382385 
L 218.029795 145.443512 
L 218.420035 145.431286 
L 218.669788 145.37016 
L 218.935151 145.398686 
L 219.138076 145.414986 
L 219.294172 145.439436 
L 220.948789 145.537239 
L 221.089275 145.549464 
L 222.05707 145.651341 
L 222.291214 145.708392 
L 223.024865 145.630966 
L 223.071693 145.675792 
L 223.134132 145.61059 
L 223.727296 145.663566 
L 223.789735 145.643191 
L 223.836563 145.708392 
L 224.086317 145.732843 
L 224.195584 145.765443 
L 224.304851 145.814344 
L 224.33607 145.761368 
L 224.476557 145.777669 
L 224.601433 145.781744 
L 224.851187 145.761368 
L 225.11655 145.846945 
L 225.241427 145.85102 
L 225.397523 145.855095 
L 225.616057 145.85102 
L 225.912639 145.883621 
L 226.833605 146.009949 
L 226.974091 146.014024 
L 227.130187 145.973273 
L 227.41116 145.936597 
L 227.707742 146.030324 
L 228.800414 145.84287 
L 228.9409 145.838795 
L 229.362359 145.838795 
L 229.752599 145.84287 
L 229.955524 145.83472 
L 230.267715 145.716542 
L 230.86088 145.761368 
L 231.063805 145.765443 
L 231.407216 145.822495 
L 232.218914 145.924372 
L 232.40623 145.940672 
L 232.531106 145.912147 
L 233.280367 145.431286 
L 233.295976 145.451662 
L 233.561339 145.496488 
L 234.029627 145.606515 
L 234.232552 145.639116 
L 234.451086 145.569839 
L 234.607182 145.590215 
L 234.794497 145.62689 
L 235.044251 145.635041 
L 235.356443 145.59429 
L 235.496929 145.62689 
L 235.731073 145.573914 
L 238.774943 145.467962 
L 238.946649 145.443512 
L 238.993478 145.488338 
L 239.055916 145.451662 
L 239.212012 145.467962 
L 239.6803 145.573914 
L 239.789567 145.520938 
L 239.836396 145.476112 
L 239.914443 145.529088 
L 240.164197 145.410911 
L 240.8198 145.472037 
L 240.991505 145.451662 
L 241.085163 145.504638 
L 241.116382 145.476112 
L 241.272478 145.435361 
L 241.459793 145.447587 
L 242.115396 145.557614 
L 242.73978 145.61874 
L 242.927095 145.577989 
L 243.457821 145.553539 
L 243.87928 145.655416 
L 244.066595 145.663566 
L 244.425616 145.663566 
L 244.64415 145.773594 
L 244.862684 145.720617 
L 245.221705 145.720617 
L 245.362191 145.761368 
L 245.721212 145.740993 
L 247.890945 145.85102 
L 248.047041 145.895846 
L 248.062651 145.879546 
L 248.234356 145.793969 
L 248.359233 145.806194 
L 248.359233 145.806194 
" clip-path="url(#pa1d2d3c339)" style="fill: none; stroke: #000000; stroke-opacity: 0.5; stroke-width: 1.5; stroke-linecap: square"/>
   </g>
   <g id="line2d_16">
    <path d="M 45.450142 145.948822 
L 45.731115 145.973273 
L 46.043307 146.005874 
L 46.215012 146.05885 
L 47.167197 146.160727 
L 47.338903 146.201478 
L 47.479389 146.246304 
L 50.538869 146.356331 
L 50.866671 146.409307 
L 51.147643 146.450058 
L 51.444226 146.53971 
L 51.506664 146.580461 
L 51.569102 146.535635 
L 51.678369 146.527485 
L 51.693979 146.543785 
L 51.834465 146.576386 
L 52.318363 146.592686 
L 52.365191 146.551936 
L 52.42763 146.637512 
L 52.739822 146.584536 
L 52.927137 146.633437 
L 53.223719 146.592686 
L 53.535911 146.645663 
L 53.785664 146.629362 
L 54.051027 146.661963 
L 54.222733 146.653813 
L 54.378829 146.617137 
L 54.534925 146.657888 
L 55.09687 146.694564 
L 55.315404 146.702714 
L 55.50272 146.649738 
L 55.690035 146.600837 
L 56.891973 146.498959 
L 57.172946 146.28298 
L 57.250994 146.29113 
L 57.266603 146.274829 
L 57.39148 146.262604 
L 58.687076 146.160727 
L 58.796344 146.189253 
L 59.202193 146.189253 
L 59.373898 146.181102 
L 59.654871 146.209628 
L 59.810967 146.177027 
L 60.123159 146.128126 
L 60.372912 146.140352 
L 61.60607 146.054775 
L 61.777776 145.855095 
L 61.793385 145.863246 
L 62.105577 145.822495 
L 64.384578 145.932522 
L 64.68116 145.895846 
L 64.806037 145.903996 
L 64.962132 145.944747 
L 65.414811 146.038474 
L 65.539687 146.062925 
L 66.335777 146.172952 
L 66.60114 146.136276 
L 66.819674 146.140352 
L 67.053818 146.201478 
L 67.272352 146.160727 
L 67.490886 146.160727 
L 67.631373 146.152577 
L 67.75625 146.205553 
L 68.099661 146.189253 
L 68.380633 146.160727 
L 69.426476 146.327806 
L 69.566962 146.340031 
L 70.238175 146.401157 
L 70.40988 146.380782 
L 70.893778 146.393007 
L 71.237189 146.331881 
L 71.377675 146.254454 
L 71.752305 146.254454 
L 71.861572 146.230003 
L 72.080107 146.132201 
L 72.111326 146.172952 
L 72.34547 146.067 
L 72.579614 146.062925 
L 72.751319 146.099601 
L 73.016682 146.022174 
L 73.141559 145.997723 
L 73.328874 146.014024 
L 73.375703 146.046625 
L 73.438141 145.993648 
L 73.547408 146.046625 
L 74.062525 146.07515 
L 74.359107 146.026249 
L 74.499593 146.030324 
L 74.780566 146.071075 
L 76.684936 145.977348 
L 77.043957 145.015627 
L 77.69956 144.19246 
L 78.480039 143.528222 
L 78.729793 143.361143 
L 78.901498 143.251116 
L 78.995156 143.161464 
L 79.291738 142.916959 
L 79.572711 142.330148 
L 80.353191 141.800387 
L 80.946355 141.474381 
L 81.601958 141.1932 
L 81.742444 141.1769 
L 81.820492 141.103549 
L 81.976588 141.017972 
L 82.117074 140.973146 
L 82.647801 140.691966 
L 82.694629 140.679741 
L 82.710239 140.643065 
L 82.835116 140.590089 
L 83.225356 140.590089 
L 83.537547 140.467837 
L 83.709253 140.447461 
L 84.255589 140.272233 
L 84.411685 140.264083 
L 85.36387 139.905476 
L 85.441918 139.726173 
L 85.660452 139.383866 
L 85.847767 139.32274 
L 86.050692 139.347191 
L 86.378493 139.318665 
L 87.720918 139.078236 
L 87.923843 139.029335 
L 88.189206 138.723704 
L 89.843823 138.829656 
L 90.187234 138.890782 
L 90.390158 138.898933 
L 90.796008 138.898933 
L 90.952104 138.935608 
L 94.230118 138.854107 
L 94.417433 138.625903 
L 94.604748 138.617752 
L 94.885721 138.585152 
L 95.29157 138.491425 
L 95.619372 138.466975 
L 95.791077 138.48735 
L 96.009612 138.4792 
L 96.571557 138.373248 
L 96.805701 138.365098 
L 96.961797 138.332497 
L 97.086674 138.369173 
L 97.820324 138.4792 
L 97.99203 138.458825 
L 98.116907 138.491425 
L 98.429098 138.4629 
L 98.632023 138.438449 
L 99.115921 138.572927 
L 100.005667 138.450674 
L 100.130544 138.438449 
L 100.30225 138.413999 
L 101.332483 138.250996 
L 101.410531 138.283596 
L 101.457359 138.234696 
L 101.769551 138.259146 
L 102.128572 138.328422 
L 102.362716 138.365098 
L 102.503202 138.405849 
L 103.205634 138.336572 
L 103.439778 138.336572 
L 103.73636 138.303972 
L 104.032942 138.336572 
L 104.173428 138.299897 
L 104.189038 138.316197 
L 104.688545 138.332497 
L 104.953908 138.365098 
L 105.141223 138.373248 
L 105.859264 138.279521 
L 106.01536 138.320272 
L 106.171456 138.332497 
L 106.218285 138.328422 
L 106.265114 138.389548 
L 108.388018 138.279521 
L 108.622162 138.275446 
L 108.840697 138.267296 
L 108.871916 138.226545 
L 108.949964 138.271371 
L 109.714834 138.365098 
L 109.902149 138.348798 
L 114.382102 138.250996 
L 114.585027 138.132819 
L 114.616246 138.165419 
L 114.975266 138.145044 
L 116.208424 138.255071 
L 116.910856 138.328422 
L 117.207438 138.295822 
L 117.53524 138.267296 
L 118.378157 138.157269 
L 118.65913 138.18172 
L 118.862055 138.071693 
L 119.03376 138.030942 
L 119.04937 138.055392 
L 119.236685 138.075768 
L 119.361562 138.079843 
L 119.673754 138.104293 
L 119.79863 138.087993 
L 119.954726 138.100218 
L 121.515686 138.210245 
L 121.562514 138.242846 
L 121.624953 138.19802 
L 121.999583 138.210245 
L 122.826891 138.328422 
L 122.982987 138.316197 
L 123.779076 138.230621 
L 123.966392 137.721236 
L 124.621994 137.819038 
L 124.824919 137.872014 
L 125.94881 138.051317 
L 126.30783 138.157269 
L 126.557584 138.275446 
L 126.71368 138.299897 
L 126.916605 138.352873 
L 127.10392 138.373248 
L 128.337077 138.585152 
L 128.524393 138.634053 
L 128.696098 138.662578 
L 129.648283 138.76038 
L 129.77316 138.76853 
L 130.475592 138.699254 
L 130.616078 138.707404 
L 131.099975 138.560701 
L 131.240462 138.572927 
L 131.739969 138.666653 
L 131.896064 138.723704 
L 132.05216 138.682954 
L 132.504839 138.813356 
L 132.660934 138.77668 
L 134.502866 138.886707 
L 134.690181 138.829656 
L 134.924325 138.780755 
L 135.51749 138.882632 
L 135.657976 138.907083 
L 135.673586 138.878557 
L 135.720415 138.854107 
L 135.767243 138.927458 
L 136.001387 138.927458 
L 136.141874 138.919308 
L 138.061853 138.829656 
L 138.358436 138.393623 
L 139.513546 138.202095 
L 139.919395 138.202095 
L 140.075491 138.185795 
L 140.247196 138.157269 
L 140.88719 138.104293 
L 141.667669 138.193945 
L 143.291067 138.283596 
L 143.493992 138.422149 
L 143.618868 138.4955 
L 143.759355 138.528101 
L 143.962279 138.552551 
L 144.368129 138.764455 
L 144.524225 138.854107 
L 144.727149 138.866332 
L 144.914464 138.841881 
L 145.07056 138.833731 
L 145.304704 138.882632 
L 145.445191 138.825581 
L 145.694944 138.552551 
L 145.819821 138.45475 
L 146.007136 138.377323 
L 146.163232 138.312122 
L 146.366157 138.255071 
L 146.787616 138.157269 
L 146.928102 138.120594 
L 147.131027 138.136894 
L 147.333951 138.173569 
L 147.490047 138.165419 
L 148.301746 138.250996 
L 148.457842 138.344723 
L 148.770034 138.45475 
L 149.691 138.581077 
L 149.878315 138.642203 
L 150.034411 138.629978 
L 150.877329 138.740005 
L 151.095863 138.792981 
L 151.267569 138.841881 
L 151.392445 138.788906 
L 151.408055 138.805206 
L 151.845123 138.915233 
L 152.032439 138.943758 
L 152.126096 138.939683 
L 152.157315 138.980434 
L 152.578774 138.980434 
L 152.75048 138.951908 
L 153.156329 138.960059 
L 153.624617 138.984509 
L 153.671446 138.927458 
L 153.733884 139.013035 
L 154.451925 138.935608 
L 154.592412 138.886707 
L 154.748508 139.000809 
L 154.935823 139.620221 
L 155.341672 140.211107 
L 155.638254 140.471912 
L 155.80996 140.65529 
L 155.82557 140.64714 
L 156.012885 140.793843 
L 156.309467 141.107624 
L 156.340686 141.132074 
L 156.387515 141.038347 
L 156.512392 140.924245 
L 156.528001 140.944621 
L 156.918241 141.274702 
L 159.009926 142.489076 
L 159.337728 142.611328 
L 159.540653 142.71728 
L 159.743577 142.835458 
L 159.884064 142.537977 
L 160.02455 142.47685 
L 160.664543 142.574652 
L 160.898687 142.70098 
L 161.647947 143.010686 
L 161.913311 143.132939 
L 163.037201 143.601573 
L 163.177688 143.613798 
L 163.630366 143.833853 
L 164.176701 143.939805 
L 164.379626 144.037607 
L 164.488893 143.972406 
L 164.520112 143.94388 
L 164.59816 144.009081 
L 165.300592 144.269887 
L 165.441078 144.265812 
L 165.456688 144.286187 
L 165.612784 144.318788 
L 165.878147 144.363614 
L 166.112291 144.420665 
L 166.268387 144.461416 
L 166.486921 144.571443 
L 166.643017 144.595894 
L 166.845942 144.624419 
L 167.189353 144.734447 
L 167.548373 144.730371 
L 167.720079 144.68147 
L 168.344463 144.632569 
L 168.703483 144.620344 
L 169.078113 144.534767 
L 169.2186 144.514392 
L 169.515182 144.477716 
L 169.671278 144.510317 
L 170.045908 144.506242 
L 170.155175 144.44104 
L 170.186394 144.473641 
L 170.467367 144.506242 
L 170.576634 144.465491 
L 171.044922 144.229136 
L 171.247847 144.147634 
L 171.419552 144.18431 
L 171.544429 144.18431 
L 171.560039 144.204685 
L 171.762963 144.273962 
L 171.87223 144.318788 
L 171.997107 144.286187 
L 172.200032 144.392139 
L 172.340518 144.412515 
L 172.871244 144.514392 
L 173.199046 144.64072 
L 173.401971 144.64072 
L 173.589286 144.693696 
L 173.714162 144.726296 
L 174.55708 144.840399 
L 174.713176 144.832249 
L 174.900491 144.8893 
L 175.009759 144.909675 
L 175.197074 144.925976 
L 175.478046 144.962651 
L 175.665361 145.027853 
L 176.149259 145.052303 
L 176.336574 144.950426 
L 176.804862 145.080829 
L 177.054615 145.117505 
L 177.288759 145.170481 
L 177.491684 145.227532 
L 178.849718 145.472037 
L 179.271177 145.472037 
L 179.786294 145.496488 
L 179.817513 145.480187 
L 179.879951 145.541314 
L 179.911171 145.561689 
L 179.973609 145.492413 
L 180.160924 145.476112 
L 180.33263 145.447587 
L 180.613602 145.484262 
L 180.863356 145.500563 
L 181.050671 145.525013 
L 181.409691 145.60244 
L 181.628226 145.606515 
L 181.784322 145.606515 
L 181.909198 145.643191 
L 182.549192 145.696167 
L 182.674068 145.712467 
L 184.328685 145.814344 
L 184.437952 145.777669 
L 184.625267 145.732843 
L 184.999898 145.838795 
L 185.187213 145.830645 
L 185.358918 145.83472 
L 187.060364 145.500563 
L 187.247679 145.545389 
L 187.684748 145.553539 
L 187.794015 145.59429 
L 188.059378 145.549464 
L 188.199864 145.58614 
L 188.527665 145.643191 
L 188.761809 145.639116 
L 189.698385 145.749143 
L 189.948138 145.761368 
L 190.369597 145.753218 
L 190.603741 145.838795 
L 190.884714 145.85917 
L 191.0252 145.887696 
L 192.508112 145.60244 
L 192.679817 145.635041 
L 193.054447 145.736918 
L 193.241762 145.745068 
L 193.756879 145.59429 
L 194.08468 145.500563 
L 194.256386 145.410911 
L 194.443701 145.476112 
L 194.599797 145.516863 
L 194.958818 145.537239 
L 195.536372 145.716542 
L 198.954873 145.614665 
L 199.267065 145.447587 
L 199.46999 145.435361 
L 202.982148 145.545389 
L 203.825066 145.675792 
L 203.981162 145.630966 
L 204.137258 145.598365 
L 204.152867 145.622815 
L 204.511888 145.61059 
L 204.699203 145.565764 
L 204.886518 145.61059 
L 205.229929 145.62689 
L 205.557731 145.683942 
L 205.807484 145.659491 
L 205.947971 145.716542 
L 205.96358 145.692092 
L 207.025032 145.798044 
L 207.212348 145.777669 
L 207.368443 145.769519 
L 208.102094 145.855095 
L 208.226971 145.879546 
L 208.351848 145.83472 
L 208.476725 145.83472 
L 209.959636 145.940672 
L 210.146951 145.956973 
L 210.443533 145.977348 
L 210.584019 145.977348 
L 210.896211 146.079225 
L 210.989869 146.054775 
L 211.005478 146.030324 
L 211.192794 146.022174 
L 212.191807 145.920297 
L 212.363513 145.728768 
L 212.628876 145.700242 
L 212.753753 145.692092 
L 214.548856 145.59429 
L 214.876657 145.296808 
L 214.892267 145.309034 
L 215.063972 145.276433 
L 217.545898 145.374235 
L 217.701994 145.447587 
L 218.326377 145.557614 
L 218.466864 145.561689 
L 218.654179 145.541314 
L 218.794665 145.508713 
L 219.341001 145.211232 
L 221.541953 145.313109 
L 221.776097 145.366085 
L 222.384871 145.467962 
L 222.478529 145.549464 
L 222.540967 145.496488 
L 222.712673 145.472037 
L 222.978036 145.451662 
L 223.274618 145.341634 
L 223.5712 145.243832 
L 223.899002 145.264208 
L 224.070707 145.268283 
L 224.258022 145.292733 
L 227.754571 145.394611 
L 227.941886 145.431286 
L 228.113592 145.435361 
L 228.753585 145.545389 
L 228.972119 145.553539 
L 229.159434 145.545389 
L 229.456017 145.577989 
L 229.72138 145.622815 
L 230.923318 145.724693 
L 231.110633 145.745068 
L 231.313558 145.761368 
L 231.516483 145.81842 
L 231.703798 145.855095 
L 231.781846 145.773594 
L 232.218914 145.769519 
L 232.531106 145.740993 
L 232.718421 145.765443 
L 234.903764 145.875471 
L 235.07547 145.908072 
L 236.183751 146.014024 
L 236.277408 146.0507 
L 236.308628 146.009949 
L 236.62082 145.614665 
L 236.808135 145.577989 
L 237.276422 145.545389 
L 237.401299 145.553539 
L 237.900806 145.582065 
L 238.041292 145.557614 
L 238.13495 145.58614 
L 238.166169 145.561689 
L 238.369094 145.577989 
L 238.572019 145.62689 
L 238.712505 145.683942 
L 238.743724 145.647266 
L 238.89982 145.61874 
L 239.133964 145.663566 
L 239.243231 145.630966 
L 239.6803 145.427211 
L 239.836396 145.357935 
L 240.023711 145.296808 
L 240.132978 145.325334 
L 240.164197 145.284583 
L 240.320293 145.325334 
L 240.476389 145.321259 
L 240.632485 145.36201 
L 240.788581 145.374235 
L 241.022725 145.366085 
L 241.163211 145.410911 
L 242.677341 145.504638 
L 242.770999 145.561689 
L 242.802218 145.520938 
L 242.911485 145.516863 
L 243.036362 145.512788 
L 243.364163 145.529088 
L 243.48904 145.496488 
L 243.676355 145.492413 
L 243.754403 145.533163 
L 243.801232 145.500563 
L 244.207081 145.406836 
L 244.378787 145.455737 
L 244.581712 145.476112 
L 244.831465 145.419061 
L 245.159267 145.447587 
L 246.751445 145.35386 
L 246.845102 145.345709 
L 246.876322 145.37016 
L 246.985589 145.325334 
L 247.266561 145.141955 
L 247.422657 144.901525 
L 248.015822 144.856699 
L 248.359233 144.938201 
L 248.359233 144.938201 
" clip-path="url(#pa1d2d3c339)" style="fill: none; stroke: #000000; stroke-opacity: 0.5; stroke-width: 1.5; stroke-linecap: square"/>
   </g>
   <g id="line2d_17">
    <path d="M 45.450142 146.001799 
L 46.058916 146.046625 
L 46.355498 145.936597 
L 46.574033 145.899921 
L 46.855005 145.867321 
L 47.011101 145.871396 
L 47.229636 145.912147 
L 47.541827 145.871396 
L 47.744752 145.899921 
L 48.9623 145.692092 
L 49.009129 145.724693 
L 49.040348 145.655416 
L 49.165225 145.525013 
L 49.212054 145.553539 
L 49.586684 145.549464 
L 49.789609 145.529088 
L 49.930095 145.492413 
L 50.179849 145.480187 
L 50.851061 145.394611 
L 51.053986 145.182706 
L 51.069595 145.190856 
L 51.350568 145.158255 
L 51.537883 145.14603 
L 51.693979 145.109354 
L 51.834465 145.12158 
L 52.302753 145.251982 
L 52.568116 145.231607 
L 52.771041 145.284583 
L 52.927137 145.280508 
L 53.067623 145.341634 
L 53.254938 145.410911 
L 53.832493 145.300884 
L 53.988589 145.325334 
L 54.207123 145.357935 
L 54.519315 145.390535 
L 55.830521 145.288658 
L 55.955398 145.292733 
L 55.971007 145.313109 
L 57.250994 145.549464 
L 57.453919 145.435361 
L 57.750501 145.467962 
L 59.654871 145.85102 
L 60.263645 145.374235 
L 60.575837 145.406836 
L 60.85681 145.439436 
L 61.012906 145.472037 
L 61.169002 145.516863 
L 61.449974 145.60244 
L 61.715337 145.700242 
L 61.949481 145.830645 
L 62.402159 145.961048 
L 62.511426 146.014024 
L 62.792399 146.042549 
L 62.995324 146.107751 
L 63.010933 146.07515 
L 63.13581 146.062925 
L 63.276297 146.09145 
L 63.557269 146.119976 
L 63.760194 146.128126 
L 64.353358 146.172952 
L 65.274324 146.042549 
L 65.570907 146.079225 
L 65.758222 146.099601 
L 66.148461 146.09145 
L 66.351386 146.001799 
L 68.677215 146.107751 
L 68.864531 146.115901 
L 69.488914 146.009949 
L 69.879154 145.84287 
L 70.269394 145.761368 
L 70.472319 145.590215 
L 70.722072 145.516863 
L 70.924997 145.500563 
L 71.096702 145.488338 
L 71.284017 145.467962 
L 71.5806 145.484262 
L 71.705476 145.504638 
L 71.721086 145.492413 
L 71.908401 145.484262 
L 72.31425 145.480187 
L 72.485956 145.459812 
L 72.751319 145.492413 
L 72.938634 145.419061 
L 73.07912 145.439436 
L 73.297655 145.431286 
L 73.922038 145.333484 
L 74.046915 145.341634 
L 74.62447 145.447587 
L 74.827395 145.472037 
L 75.061539 145.439436 
L 75.248854 145.296808 
L 75.358121 145.211232 
L 76.294697 145.080829 
L 76.497621 145.11343 
L 76.622498 145.141955 
L 76.684936 145.117505 
L 77.012738 140.773467 
L 77.543464 138.010567 
L 79.291738 131.172606 
L 80.462458 128.136689 
L 81.399033 126.437392 
L 81.836102 125.866885 
L 82.163903 125.581631 
L 82.30439 125.53273 
L 82.319999 125.544956 
L 82.444876 125.46753 
L 82.741458 125.206726 
L 83.162917 124.917398 
L 83.42828 124.807372 
L 83.631205 124.754396 
L 85.36387 124.200189 
L 85.613623 124.041262 
L 86.11313 123.800835 
L 86.316055 123.743784 
L 86.456541 123.731559 
L 86.909219 123.609307 
L 87.065315 123.568557 
L 87.377507 123.462606 
L 87.674089 123.287379 
L 87.767747 123.271079 
L 87.783356 123.250703 
L 88.04872 123.079551 
L 88.142377 123.014351 
L 88.220425 122.920625 
L 88.282863 122.96545 
L 88.626274 122.761698 
L 88.876028 122.623146 
L 88.891638 122.639446 
L 89.016514 122.541645 
L 89.125781 122.52127 
L 89.141391 122.53757 
L 89.235049 122.476445 
L 89.718946 122.346043 
L 89.875042 122.350118 
L 90.046747 122.325668 
L 90.608693 122.227867 
L 91.014542 121.962989 
L 91.451611 121.734786 
L 91.87307 121.425083 
L 91.951118 121.437308 
L 91.982337 121.388408 
L 92.513063 120.993129 
L 92.981351 120.862727 
L 93.121837 120.834202 
L 93.434029 120.66305 
L 93.527686 120.593774 
L 93.964755 120.385947 
L 94.089632 120.292221 
L 94.261337 120.239246 
L 94.573529 120.043644 
L 94.93255 119.884717 
L 95.104255 119.941768 
L 95.931564 119.611689 
L 96.509119 119.432387 
L 96.571557 119.432387 
L 96.602776 119.383487 
L 96.85253 119.326436 
L 96.993016 119.249011 
L 97.898372 118.894482 
L 98.241783 118.870032 
L 98.632023 118.65813 
L 98.944215 118.425853 
L 98.991044 118.413627 
L 99.022263 118.368802 
L 99.272016 118.246551 
L 99.443722 118.218026 
L 99.599818 118.18135 
L 99.833962 118.18135 
L 100.005667 118.083549 
L 100.239811 117.957223 
L 100.864195 117.602695 
L 101.004681 117.525269 
L 101.191996 117.443768 
L 101.42614 117.337817 
L 102.471983 116.657286 
L 102.643688 116.624686 
L 103.486606 116.290533 
L 104.235867 115.838204 
L 104.438792 115.675202 
L 104.626107 115.536651 
L 104.657326 115.569252 
L 105.063175 115.467376 
L 106.889498 113.719186 
L 107.123641 113.674361 
L 107.404614 113.433934 
L 107.685587 113.181282 
L 108.138265 112.553727 
L 108.263142 112.521127 
L 108.606553 111.909872 
L 108.70021 111.787621 
L 108.981183 111.498294 
L 109.636786 110.662913 
L 110.027026 109.603406 
L 110.354827 108.922876 
L 110.510923 108.609099 
L 110.932382 107.203215 
L 111.556766 104.693001 
L 111.806519 102.41099 
L 111.978225 99.232476 
L 112.025053 95.271562 
L 112.118711 18.262182 
L 112.181149 57.638927 
L 112.368464 129.648534 
L 112.430903 128.813148 
L 112.571389 127.692508 
L 112.586999 127.725108 
L 112.696266 128.503444 
L 113.69528 136.661718 
L 114.147958 138.642203 
L 114.741122 140.39041 
L 115.58404 141.914489 
L 115.755746 142.048967 
L 116.036719 142.383124 
L 116.895246 142.953635 
L 116.910856 142.93326 
L 117.051342 142.908809 
L 117.847431 143.002536 
L 118.034746 143.010686 
L 118.222062 143.018836 
L 118.471815 143.031062 
L 118.862055 142.823232 
L 119.252295 142.264946 
L 119.736192 142.118243 
L 119.876678 142.122318 
L 120.407404 141.96339 
L 120.5635 141.865588 
L 120.672768 141.885964 
L 121.000569 141.69036 
L 121.265932 141.502906 
L 121.515686 141.454005 
L 122.046412 141.205426 
L 122.342994 140.924245 
L 122.530309 140.830518 
L 122.826891 140.561563 
L 124.528337 139.550944 
L 126.198563 138.373248 
L 126.292221 138.291747 
L 127.494159 137.191477 
L 127.681475 137.08145 
L 128.102934 136.616892 
L 128.805365 135.940431 
L 129.148776 135.541074 
L 134.206284 130.100866 
L 134.456038 129.868588 
L 134.73701 129.603709 
L 138.733066 125.589781 
L 139.513546 124.848122 
L 139.841347 124.534343 
L 140.215977 124.110538 
L 140.465731 123.678583 
L 140.85597 123.271079 
L 141.214991 123.067326 
L 141.371087 123.018426 
L 141.605231 122.843199 
L 141.886204 122.700572 
L 142.01108 122.631296 
L 142.229615 122.517195 
L 142.557416 122.407169 
L 142.947656 122.154516 
L 143.618868 121.694036 
L 143.837403 121.514734 
L 143.993499 121.315057 
L 144.290081 121.10723 
L 145.335923 120.67935 
L 145.429581 120.634525 
L 145.648115 120.483748 
L 145.86665 120.381872 
L 146.24128 120.055869 
L 146.366157 119.982518 
L 146.787616 119.697265 
L 146.974931 119.632064 
L 147.099807 119.526113 
L 147.692972 119.196035 
L 148.036383 118.996358 
L 149.175883 117.969448 
L 149.253931 117.859422 
L 149.31637 117.896098 
L 149.441246 117.798297 
L 149.831486 117.447843 
L 150.034411 117.390793 
L 150.377822 117.240016 
L 150.533918 117.264467 
L 151.59537 116.294608 
L 151.938781 115.874879 
L 152.048048 115.768928 
L 152.656822 115.153598 
L 152.906576 114.974296 
L 153.078281 114.84797 
L 153.093891 114.860195 
L 153.218768 114.827595 
L 153.359254 114.770545 
L 153.484131 114.697194 
L 153.671446 114.583093 
L 154.092905 114.24079 
L 154.717288 113.60101 
L 154.748508 113.947388 
L 154.935823 117.109615 
L 155.310453 119.306061 
L 156.168981 123.397405 
L 158.167008 129.302155 
L 160.02455 133.401665 
L 160.352351 133.890673 
L 161.023564 135.341396 
L 161.679167 136.376463 
L 162.147454 137.024399 
L 162.225502 137.069225 
L 162.459646 137.36263 
L 162.69379 137.537858 
L 162.787448 137.692711 
L 163.09964 138.043167 
L 163.8489 138.666653 
L 164.535722 138.960059 
L 164.957181 139.277914 
L 164.972791 139.261614 
L 165.175715 139.371641 
L 165.846928 139.840275 
L 166.221558 140.149981 
L 166.424483 140.312984 
L 166.705455 140.598239 
L 166.845942 140.708266 
L 168.328853 141.600708 
L 168.547387 141.710735 
L 169.093723 141.804462 
L 169.296648 141.943015 
L 169.390305 142.004141 
L 169.733716 142.22012 
L 169.842983 142.260871 
L 170.030299 142.374973 
L 170.045908 142.362748 
L 170.155175 142.313847 
L 170.186394 142.346448 
L 170.498586 142.517601 
L 172.449785 143.422269 
L 172.543443 143.503771 
L 172.715148 143.573047 
L 172.996121 143.609723 
L 173.245875 143.601573 
L 174.354156 144.005006 
L 174.619519 144.025382 
L 174.994149 143.756426 
L 175.009759 143.772727 
L 177.148273 144.216911 
L 177.398026 144.318788 
L 177.585341 144.355464 
L 177.710218 144.375839 
L 178.038019 144.44104 
L 178.053629 144.420665 
L 178.131677 144.489941 
L 180.067266 144.88115 
L 180.192143 144.901525 
L 180.847746 144.958576 
L 181.159938 144.917825 
L 181.331643 144.925976 
L 181.597006 144.705921 
L 181.737493 144.68147 
L 182.049685 144.64887 
L 182.393096 144.510317 
L 182.674068 144.481791 
L 182.876993 144.457341 
L 183.157966 144.494017 
L 183.298452 144.522542 
L 183.76674 144.65702 
L 183.922836 144.689621 
L 184.078932 144.701846 
L 184.359904 144.799648 
L 184.53161 144.89745 
L 184.750144 144.930051 
L 185.031117 144.954501 
L 185.187213 144.950426 
L 185.405747 144.934126 
L 185.530624 144.978952 
L 185.749158 144.946351 
L 185.967692 144.946351 
L 186.186227 144.950426 
L 186.279884 144.983027 
L 186.482809 145.072679 
L 186.670124 145.093054 
L 186.935487 145.056378 
L 187.6067 144.828174 
L 187.809624 144.848549 
L 187.98133 144.852624 
L 188.231083 144.91375 
L 188.402789 144.852624 
L 188.7462 144.722221 
L 189.167659 144.718146 
L 189.323755 144.726296 
L 189.448631 144.726296 
L 189.604727 144.734447 
L 189.776433 144.709996 
L 189.90131 144.68147 
L 190.041796 144.714071 
L 190.510084 144.587743 
L 190.713008 144.608119 
L 191.087639 144.612194 
L 191.259344 144.644795 
L 191.727632 144.754822 
L 192.414454 144.824098 
L 192.58616 144.885225 
L 192.804694 144.925976 
L 193.116886 145.036003 
L 193.31981 145.044153 
L 193.444687 145.044153 
L 193.991023 145.007477 
L 194.271995 145.048228 
L 194.459311 145.036003 
L 194.615407 145.068604 
L 196.910017 144.966726 
L 197.14416 144.91375 
L 197.315866 144.9219 
L 197.55001 144.579593 
L 197.737325 144.599969 
L 199.282675 144.89745 
L 199.46999 144.701846 
L 199.657305 144.693696 
L 200.047545 144.697771 
L 200.188031 144.689621 
L 200.422175 144.697771 
L 201.327531 144.571443 
L 201.483627 144.608119 
L 201.842648 144.705921 
L 202.014353 144.726296 
L 202.170449 144.714071 
L 202.310936 144.709996 
L 202.545079 144.65702 
L 202.701175 144.693696 
L 202.826052 144.677395 
L 203.341169 144.652945 
L 204.387011 144.820023 
L 204.558717 144.844474 
L 204.80847 144.901525 
L 204.995785 144.925976 
L 205.276758 144.970802 
L 205.401635 144.974877 
L 205.916751 145.12158 
L 207.10308 145.317184 
L 207.243567 145.366085 
L 211.473766 145.476112 
L 211.614253 145.492413 
L 211.754739 145.541314 
L 214.283493 145.435361 
L 214.517637 145.427211 
L 214.689342 145.427211 
L 214.907877 145.480187 
L 215.126411 145.435361 
L 215.15763 145.423136 
L 215.220068 145.488338 
L 216.468836 145.598365 
L 217.202487 145.675792 
L 217.374192 145.700242 
L 217.483459 145.692092 
L 217.733213 145.736918 
L 217.873699 145.688017 
L 218.21711 145.663566 
L 218.420035 145.724693 
L 218.654179 145.688017 
L 218.841494 145.643191 
L 219.122466 145.614665 
L 219.309782 145.577989 
L 219.653193 145.639116 
L 220.105871 145.740993 
L 220.308796 145.761368 
L 220.480501 145.855095 
L 220.574159 145.871396 
L 220.589768 145.85917 
L 221.058056 145.512788 
L 221.245371 145.447587 
L 221.432686 145.345709 
L 221.604392 145.345709 
L 222.135118 145.239757 
L 222.306823 145.199006 
L 222.462919 145.203081 
L 222.697063 145.280508 
L 222.712673 145.260133 
L 223.009255 145.284583 
L 223.227789 145.329409 
L 223.602419 145.337559 
L 223.805344 145.357935 
L 223.96144 145.256058 
L 224.164365 145.292733 
L 224.492166 145.162331 
L 224.648262 145.12158 
L 225.007283 145.052303 
L 225.772153 145.141955 
L 225.990687 145.056378 
L 226.131173 144.987102 
L 226.25605 145.015627 
L 226.318489 145.023778 
L 226.334098 144.970802 
L 226.490194 144.705921 
L 226.505804 144.718146 
L 227.02092 144.872999 
L 227.255064 144.901525 
L 227.42677 144.966726 
L 227.817009 144.970802 
L 228.035544 145.007477 
L 228.332126 144.974877 
L 228.691147 144.983027 
L 228.847243 144.978952 
L 229.112606 145.023778 
L 229.377969 144.991177 
L 229.612113 144.934126 
L 229.861866 144.995252 
L 230.314544 144.999327 
L 230.829661 145.101204 
L 230.970147 145.15418 
L 231.001366 145.12158 
L 232.062819 145.296808 
L 232.125257 145.268283 
L 232.172086 145.329409 
L 232.468668 145.284583 
L 232.76525 145.325334 
L 233.030613 145.309034 
L 233.1711 145.247907 
L 233.327196 145.207157 
L 233.514511 145.150105 
L 233.623778 145.194931 
L 233.873531 145.105279 
L 233.998408 145.093054 
L 234.638401 145.203081 
L 234.934984 145.243832 
L 235.169127 145.284583 
L 235.340833 145.292733 
L 235.528148 145.251982 
L 236.152532 145.341634 
L 236.246189 145.38646 
L 236.277408 145.345709 
L 236.433504 145.37831 
L 236.761306 145.374235 
L 236.839354 145.313109 
L 236.870573 145.36201 
L 237.026669 145.419061 
L 238.15056 145.345709 
L 238.572019 143.434495 
L 238.603238 143.44672 
L 238.696895 143.328543 
L 238.806162 143.328543 
L 238.89982 143.308167 
L 238.91543 143.275566 
L 238.977868 143.251116 
L 239.024697 143.295942 
L 239.336889 143.316317 
L 239.6803 143.450795 
L 239.742738 143.43042 
L 239.789567 143.467095 
L 239.961272 143.475246 
L 240.101759 143.548597 
L 242.365149 144.237286 
L 242.521245 144.322863 
L 242.536855 144.310638 
L 243.005143 144.43289 
L 244.035376 144.795573 
L 244.222691 144.91375 
L 244.425616 144.934126 
L 244.65976 145.040078 
L 244.847075 145.084904 
L 244.987561 145.060453 
L 245.268534 145.194931 
L 246.689007 145.455737 
L 247.032418 145.472037 
L 247.157294 145.467962 
L 247.344609 145.447587 
L 247.594363 145.463887 
L 247.71924 145.488338 
L 248.359233 145.60244 
L 248.359233 145.60244 
" clip-path="url(#pa1d2d3c339)" style="fill: none; stroke: #000000; stroke-opacity: 0.5; stroke-width: 1.5; stroke-linecap: square"/>
   </g>
   <g id="line2d_18">
    <path d="M 45.450142 146.038474 
L 45.809163 145.965123 
L 45.871601 146.005874 
L 45.91843 145.952897 
L 46.027697 145.940672 
L 46.043307 145.956973 
L 46.230622 145.989573 
L 46.27745 145.969198 
L 46.339889 146.034399 
L 46.511594 146.067 
L 47.198416 146.168877 
L 47.229636 146.201478 
L 47.276464 146.132201 
L 47.416951 146.111826 
L 47.510608 146.119976 
L 47.526218 146.140352 
L 47.963286 146.144427 
L 48.119382 146.136276 
L 48.275478 146.148502 
L 48.572061 146.164802 
L 48.712547 146.185178 
L 49.258883 146.115901 
L 49.461807 145.749143 
L 49.617903 145.639116 
L 49.820828 145.496488 
L 49.992533 145.264208 
L 51.428616 144.999327 
L 51.66276 145.052303 
L 52.942746 145.150105 
L 53.036404 145.178631 
L 53.067623 145.12973 
L 53.1925 145.12973 
L 53.660788 145.14603 
L 53.910541 144.864849 
L 54.253952 144.840399 
L 54.534925 144.754822 
L 54.878336 144.811873 
L 54.987603 144.8893 
L 55.393452 144.991177 
L 55.814911 144.893375 
L 56.220761 144.983027 
L 56.283199 145.011552 
L 56.330028 144.970802 
L 56.657829 145.040078 
L 56.782706 145.048228 
L 57.048069 145.12973 
L 57.172946 145.182706 
L 57.469528 145.227532 
L 57.672453 145.203081 
L 57.79733 145.211232 
L 58.047083 145.203081 
L 60.825591 145.109354 
L 61.012906 144.89745 
L 61.028515 144.909675 
L 61.21583 144.978952 
L 61.465584 144.962651 
L 61.60607 144.962651 
L 61.715337 144.930051 
L 61.746556 144.966726 
L 62.901666 145.072679 
L 63.229468 145.162331 
L 63.245077 145.12973 
L 63.432392 145.097129 
L 63.604098 145.117505 
L 64.134824 145.227532 
L 64.618721 145.243832 
L 64.743598 145.292733 
L 65.102619 145.435361 
L 65.789441 145.508713 
L 65.929927 145.516863 
L 66.117242 145.537239 
L 66.257729 145.541314 
L 66.460653 145.561689 
L 67.194304 145.639116 
L 67.3504 145.630966 
L 67.553325 145.671716 
L 67.75625 145.639116 
L 67.959174 145.688017 
L 68.084051 145.675792 
L 68.333804 145.740993 
L 68.396243 145.749143 
L 68.427462 145.793969 
L 68.599167 145.822495 
L 69.114284 145.85102 
L 69.301599 145.830645 
L 69.426476 145.879546 
L 69.442085 145.867321 
L 70.78451 145.973273 
L 70.940606 145.948822 
L 71.049873 145.883621 
L 71.081093 145.912147 
L 71.221579 145.916222 
L 74.780566 145.814344 
L 74.967881 145.806194 
L 75.311292 145.867321 
L 75.482998 145.883621 
L 75.654703 145.908072 
L 75.842018 145.846945 
L 76.216649 145.863246 
L 76.388354 145.899921 
L 76.684936 145.838795 
L 76.997128 139.84435 
L 77.605902 135.284345 
L 78.604916 129.493682 
L 80.212704 123.645983 
L 81.024403 122.199342 
L 82.085855 121.249856 
L 82.460485 121.143905 
L 82.819506 120.785301 
L 83.022431 120.67935 
L 83.287794 120.508198 
L 83.44389 120.434848 
L 83.740472 120.157745 
L 83.896568 120.174045 
L 84.068274 120.104769 
L 84.833144 119.595389 
L 85.004849 119.501663 
L 87.190192 118.246551 
L 87.486774 118.038724 
L 87.596041 117.916473 
L 87.767747 117.806447 
L 88.220425 117.59047 
L 88.719932 117.492669 
L 88.891638 117.468219 
L 89.219439 117.358193 
L 89.594069 117.04034 
L 89.906261 116.677661 
L 90.031138 116.645061 
L 90.156015 116.535035 
L 90.515035 116.367959 
L 90.577474 116.384259 
L 90.624302 116.335358 
L 90.998933 116.229407 
L 91.46722 115.891179 
L 91.560878 115.838204 
L 91.87307 115.593702 
L 92.060385 115.499976 
L 92.356967 115.283999 
L 93.137447 114.770545 
L 93.340371 114.623843 
L 93.668173 114.334516 
L 93.980365 114.090014 
L 94.183289 114.028889 
L 94.93255 113.315758 
L 95.32279 112.757479 
L 95.837906 112.484451 
L 95.931564 112.378501 
L 96.993016 110.91964 
L 97.133502 110.785164 
L 97.913982 109.587106 
L 98.101297 109.305929 
L 98.569585 108.372748 
L 99.849571 105.092353 
L 100.583222 100.389781 
L 100.708099 96.298466 
L 100.754928 67.154043 
L 100.817366 18.315157 
L 100.864195 48.869536 
L 101.06712 129.436631 
L 101.160777 128.152989 
L 101.254435 127.635457 
L 101.301263 127.782159 
L 101.44175 128.968 
L 102.034914 133.756195 
L 102.612469 136.209385 
L 103.392949 137.961666 
L 103.580264 138.242846 
L 104.048552 138.886707 
L 104.11099 138.858182 
L 104.142209 138.927458 
L 104.423182 139.163812 
L 104.626107 139.265689 
L 105.094394 139.506119 
L 105.141223 139.477593 
L 105.203662 139.538719 
L 105.625121 139.534644 
L 105.937312 139.477593 
L 106.077799 139.469443 
L 106.249504 139.367566 
L 106.265114 139.379791 
L 106.561696 139.343116 
L 106.79584 139.286065 
L 106.983155 139.265689 
L 107.201689 139.180113 
L 107.357785 139.176038 
L 107.57632 139.143437 
L 107.638758 139.135287 
L 107.669977 139.090461 
L 107.841683 139.045635 
L 108.091436 138.943758 
L 108.34119 138.695179 
L 108.809477 138.361023 
L 109.402642 137.93314 
L 110.24556 137.008099 
L 110.776286 136.629118 
L 111.057259 136.299037 
L 111.650423 135.565525 
L 111.744081 135.463648 
L 111.978225 135.29657 
L 112.071882 135.223219 
L 113.804547 133.572818 
L 113.929424 133.385365 
L 114.81917 132.395124 
L 115.006486 132.240272 
L 115.22502 132.028369 
L 115.490383 131.681989 
L 115.708917 131.527136 
L 115.849404 131.388584 
L 116.161595 131.021829 
L 116.255253 130.936253 
L 116.426958 130.671374 
L 116.848417 129.946014 
L 116.957685 129.774861 
L 118.034746 128.548269 
L 118.440596 128.091863 
L 120.017165 126.29884 
L 120.266918 125.985061 
L 120.329357 126.005436 
L 120.360576 125.94431 
L 120.922521 125.386029 
L 121.047398 125.239327 
L 121.312761 124.848122 
L 121.812268 124.159439 
L 122.10885 123.78861 
L 122.545919 123.185503 
L 122.733234 122.54572 
L 123.014206 121.787762 
L 124.200535 120.390022 
L 124.606385 119.770616 
L 124.668823 119.705415 
L 124.840529 119.517963 
L 125.18394 119.318286 
L 125.823933 118.64998 
L 125.995639 118.491053 
L 126.229782 118.323977 
L 127.0727 117.794222 
L 127.166358 117.729021 
L 127.540988 117.04849 
L 128.555612 116.131606 
L 128.649269 116.054181 
L 128.758536 115.850429 
L 128.99268 115.491826 
L 129.882427 114.717569 
L 130.413153 114.322291 
L 130.834612 113.694736 
L 130.92827 113.61731 
L 131.349729 113.156832 
L 131.427777 113.083481 
L 131.833626 112.402951 
L 132.08338 111.909872 
L 132.333133 111.249717 
L 132.926298 110.389886 
L 133.051174 110.210585 
L 133.300928 110.059809 
L 133.378976 109.949783 
L 133.753606 109.244803 
L 133.909702 109.134778 
L 134.471647 108.397198 
L 135.611147 105.711757 
L 135.704805 105.503931 
L 136.703819 102.317264 
L 137.078449 99.171351 
L 137.203326 95.316388 
L 137.250155 70.56889 
L 137.312593 18.135856 
L 137.359422 44.790463 
L 137.562346 128.760172 
L 137.609175 128.116313 
L 137.79649 125.565331 
L 137.8121 125.577556 
L 137.890148 125.92801 
L 138.249169 129.607784 
L 138.795504 133.503541 
L 139.497936 136.445739 
L 140.278416 138.18172 
L 140.606217 138.568852 
L 140.949628 138.903008 
L 141.589621 139.424617 
L 141.854984 139.469443 
L 143.010094 139.656896 
L 143.400334 139.669122 
L 143.603259 139.726173 
L 144.33691 139.29014 
L 144.461786 139.224938 
L 144.789588 138.968209 
L 146.522252 137.957591 
L 146.725177 137.770137 
L 147.162246 137.419681 
L 147.349561 137.301504 
L 149.425637 135.536999 
L 149.566123 135.329171 
L 149.597342 135.345471 
L 149.737829 135.194694 
L 149.987582 134.884989 
L 151.017815 133.968099 
L 151.59537 133.377215 
L 152.141706 132.651853 
L 152.500726 132.211747 
L 152.719261 131.979468 
L 153.374864 131.298933 
L 153.530959 131.148156 
L 153.671446 130.7325 
L 153.87437 130.280168 
L 154.249001 129.876738 
L 154.358268 129.815612 
L 154.483145 129.67706 
L 154.717288 129.387731 
L 154.748508 129.876738 
L 154.935823 134.02515 
L 155.388501 136.979574 
L 156.153371 140.410785 
L 156.730926 142.000066 
L 156.902631 142.464625 
L 157.527015 143.94388 
L 157.683111 144.265812 
L 157.979693 144.820023 
L 158.447981 145.647266 
L 159.181632 146.445983 
L 159.25968 146.511185 
L 159.525043 146.841267 
L 159.603091 146.914619 
L 159.884064 147.167274 
L 160.055769 147.318052 
L 160.805029 147.949692 
L 161.007954 147.949692 
L 161.366975 148.247173 
L 162.865496 148.74841 
L 163.052811 148.833987 
L 163.271345 148.878813 
L 163.396222 148.842137 
L 163.973777 148.73211 
L 164.114263 148.683208 
L 164.129873 148.695434 
L 164.520112 148.691359 
L 164.676208 148.666908 
L 164.957181 148.638382 
L 165.191325 148.593556 
L 165.300592 148.634307 
L 165.722051 148.638382 
L 165.987414 148.601707 
L 166.15912 148.626157 
L 167.517154 148.157521 
L 167.766908 147.921166 
L 168.110319 147.709261 
L 168.328853 147.65221 
L 168.703483 147.578858 
L 170.37371 147.244701 
L 170.576634 147.265076 
L 170.935655 147.281377 
L 171.169799 147.330278 
L 171.419552 147.366954 
L 171.591258 147.366954 
L 172.512224 147.256926 
L 172.66832 147.208025 
L 173.199046 147.097998 
L 173.79221 147.057247 
L 174.041964 147.069472 
L 175.243902 146.959445 
L 175.618533 146.96352 
L 175.805848 146.97167 
L 176.960958 146.861642 
L 177.772656 146.76384 
L 178.100458 146.657888 
L 178.490698 146.568236 
L 178.709232 146.576386 
L 178.865328 146.551936 
L 179.099472 146.596762 
L 179.239958 146.560086 
L 180.426287 146.450058 
L 180.754089 145.916222 
L 180.769698 145.924372 
L 180.941404 145.948822 
L 181.253595 145.973273 
L 181.534568 146.005874 
L 181.659445 146.046625 
L 182.268219 146.09145 
L 182.471144 146.095526 
L 182.642849 146.115901 
L 183.017479 146.128126 
L 183.267233 146.140352 
L 183.548206 146.177027 
L 183.844788 146.213703 
L 184.032103 146.201478 
L 184.203808 146.221853 
L 184.703315 146.197403 
L 184.984288 146.221853 
L 185.249651 146.095526 
L 185.593062 146.156652 
L 186.326713 146.262604 
L 186.670124 146.393007 
L 186.966706 146.360406 
L 187.138412 146.327806 
L 187.341336 146.30743 
L 187.57548 146.319655 
L 187.747186 146.31558 
L 187.872063 146.29113 
L 188.043768 146.303355 
L 188.231083 146.340031 
L 188.434008 146.331881 
L 188.855467 145.956973 
L 189.10522 145.875471 
L 189.370583 145.573914 
L 190.63496 145.463887 
L 190.806666 145.459812 
L 190.900324 145.516863 
L 190.931543 145.496488 
L 191.072029 145.447587 
L 191.087639 145.463887 
L 191.212515 145.500563 
L 191.228125 145.488338 
L 191.79007 145.537239 
L 192.008605 145.406836 
L 192.227139 145.398686 
L 192.320796 145.455737 
L 193.272982 145.349785 
L 193.397858 145.329409 
L 193.413468 145.341634 
L 193.600783 145.317184 
L 194.069071 145.207157 
L 195.083694 145.052303 
L 195.271009 145.093054 
L 196.067099 145.190856 
L 196.207585 145.264208 
L 196.863188 145.329409 
L 197.190989 145.280508 
L 198.502195 145.508713 
L 198.68951 145.480187 
L 198.861216 145.484262 
L 199.329503 145.374235 
L 199.688524 145.064528 
L 199.985106 145.109354 
L 200.203641 145.11343 
L 200.453394 145.12973 
L 200.656319 145.097129 
L 200.952901 145.133805 
L 201.077778 145.15418 
L 201.218264 145.12973 
L 201.920696 145.060453 
L 202.12362 145.048228 
L 202.264107 145.097129 
L 202.716785 145.207157 
L 202.935319 145.276433 
L 203.013367 145.309034 
L 203.060196 145.243832 
L 203.403607 145.341634 
L 203.575313 145.37016 
L 203.762628 145.390535 
L 206.010409 145.284583 
L 206.306991 145.239757 
L 206.650402 145.382385 
L 206.775279 145.357935 
L 207.259176 145.37016 
L 208.055266 145.472037 
L 208.164533 145.423136 
L 208.461115 145.38646 
L 209.007451 145.492413 
L 209.335252 145.61059 
L 209.553786 145.716542 
L 209.912807 145.785819 
L 210.630848 145.504638 
L 210.802554 145.268283 
L 211.052307 145.211232 
L 211.34889 145.174556 
L 211.942054 145.227532 
L 212.144979 145.170481 
L 212.48839 145.194931 
L 213.050335 145.235682 
L 213.565452 145.088979 
L 213.846424 145.199006 
L 214.423979 145.247907 
L 214.517637 145.288658 
L 214.798609 145.321259 
L 215.032753 145.317184 
L 215.188849 145.333484 
L 215.657137 145.325334 
L 215.750795 145.272358 
L 216.109815 145.280508 
L 216.29713 145.300884 
L 216.562493 145.280508 
L 216.718589 145.309034 
L 218.404425 145.419061 
L 218.857103 145.439436 
L 219.013199 145.427211 
L 219.184905 145.427211 
L 219.668802 145.476112 
L 219.918556 145.14603 
L 220.449282 145.052303 
L 220.620987 144.983027 
L 220.792693 144.991177 
L 221.120494 145.015627 
L 221.66683 145.199006 
L 221.822926 145.194931 
L 222.103899 145.219382 
L 225.350694 145.973273 
L 225.475571 145.924372 
L 225.49118 145.936597 
L 225.772153 146.022174 
L 226.396537 146.09145 
L 226.552632 146.030324 
L 226.833605 146.001799 
L 226.974091 145.973273 
L 227.223845 145.981423 
L 228.066763 145.895846 
L 228.254078 145.398686 
L 228.300907 145.423136 
L 228.878462 145.37831 
L 229.018948 145.390535 
L 229.986743 145.480187 
L 230.11162 145.512788 
L 230.127229 145.500563 
L 231.079414 145.60244 
L 231.23551 145.675792 
L 231.438435 145.732843 
L 231.766236 145.708392 
L 232.078428 145.58614 
L 232.234524 145.61059 
L 232.39062 145.582065 
L 232.905737 145.561689 
L 234.373038 145.455737 
L 234.716449 145.044153 
L 235.05986 144.893375 
L 235.247175 144.930051 
L 235.46571 144.877075 
L 235.699854 144.930051 
L 236.917402 145.031928 
L 237.089107 145.072679 
L 237.432518 145.011552 
L 238.493971 145.186781 
L 238.681286 145.162331 
L 238.931039 145.235682 
L 239.227621 145.194931 
L 239.898834 145.256058 
L 240.42956 145.366085 
L 241.007115 145.549464 
L 241.21004 145.516863 
L 241.381745 145.484262 
L 243.005143 145.58614 
L 243.161239 145.60244 
L 244.534883 145.704317 
L 244.65976 145.692092 
L 244.909513 145.802119 
L 245.362191 145.814344 
L 245.533897 145.84287 
L 245.768041 145.887696 
L 246.095842 145.940672 
L 246.720226 146.046625 
L 246.876322 146.034399 
L 247.157294 146.005874 
L 247.70363 146.046625 
L 247.890945 146.026249 
L 248.359233 146.144427 
L 248.359233 146.144427 
" clip-path="url(#pa1d2d3c339)" style="fill: none; stroke: #000000; stroke-opacity: 0.5; stroke-width: 1.5; stroke-linecap: square"/>
   </g>
   <g id="line2d_19">
    <path d="M 45.450142 145.260133 
L 45.637457 145.207157 
L 45.871601 145.072679 
L 46.183793 145.12158 
L 46.324279 145.14603 
L 46.605252 145.109354 
L 46.776957 145.105279 
L 46.870615 145.040078 
L 47.05793 144.946351 
L 47.354512 144.844474 
L 47.604266 144.742597 
L 47.729143 144.783348 
L 49.524246 144.877075 
L 49.695951 144.9219 
L 50.788623 145.031928 
L 51.600321 145.12973 
L 54.160295 145.027853 
L 54.363219 144.974877 
L 55.190528 145.064528 
L 55.252966 145.109354 
L 55.299795 145.052303 
L 55.48711 145.015627 
L 56.454905 145.162331 
L 56.611001 145.15418 
L 56.657829 145.166406 
L 56.673439 145.125655 
L 56.907583 144.538842 
L 57.063679 144.591819 
L 57.219775 144.652945 
L 57.375871 144.68147 
L 57.563186 144.697771 
L 57.79733 144.734447 
L 57.969035 144.754822 
L 58.421713 144.877075 
L 58.718296 144.832249 
L 59.077316 144.9056 
L 59.280241 144.962651 
L 60.045111 145.056378 
L 60.07633 145.048228 
L 60.123159 145.12158 
L 60.435351 145.227532 
L 60.638275 145.251982 
L 60.794371 145.260133 
L 61.278269 145.390535 
L 61.62168 145.37016 
L 61.793385 145.268283 
L 63.52605 145.374235 
L 63.807023 145.406836 
L 64.150434 145.419061 
L 64.337749 145.463887 
L 65.087009 145.382385 
L 65.508468 145.37831 
L 68.052832 144.820023 
L 68.240147 144.868924 
L 68.474291 144.811873 
L 68.614777 144.815948 
L 68.911359 144.848549 
L 69.629401 144.9219 
L 69.832325 144.68147 
L 70.03525 144.616269 
L 70.503538 144.624419 
L 70.846949 144.636644 
L 70.971826 144.624419 
L 71.003045 144.599969 
L 71.081093 144.661095 
L 71.502552 144.754822 
L 71.54938 144.771122 
L 71.596209 144.722221 
L 71.799134 144.701846 
L 72.501566 144.608119 
L 72.657662 144.575518 
L 74.24984 144.88115 
L 74.390326 144.946351 
L 74.546422 144.950426 
L 75.436169 144.872999 
L 75.654703 144.636644 
L 76.091772 144.632569 
L 76.638108 144.661095 
L 76.684936 144.546993 
L 76.997128 136.115659 
L 77.730779 128.458618 
L 78.526868 122.011889 
L 78.995156 119.570939 
L 79.588321 117.684196 
L 80.243923 117.150366 
L 80.649773 117.05664 
L 80.821478 116.954764 
L 80.946355 116.718412 
L 81.305376 116.49836 
L 81.445862 116.461684 
L 82.67902 115.94008 
L 83.03804 115.744478 
L 83.209746 115.601852 
L 83.412671 115.385875 
L 83.693643 115.149523 
L 84.318027 114.872421 
L 84.442904 114.697194 
L 84.645828 114.497517 
L 85.129726 113.984063 
L 85.34826 113.804762 
L 85.441918 113.727336 
L 86.331664 112.891955 
L 86.690685 112.598552 
L 86.909219 112.545577 
L 87.611651 111.962847 
L 87.720918 111.913947 
L 87.986281 111.812071 
L 88.001891 111.832447 
L 88.111158 111.746871 
L 88.81359 111.270092 
L 89.203829 110.699588 
L 89.328706 110.479537 
L 89.500412 110.251335 
L 90.749179 108.482773 
L 90.811617 108.458323 
L 90.827227 108.417573 
L 91.186248 107.989695 
L 91.48283 107.325466 
L 92.013556 106.343385 
L 92.2477 106.021459 
L 93.496467 101.763062 
L 94.074022 98.274847 
L 94.214509 95.336763 
L 94.245728 91.506253 
L 94.339385 16.514 
L 94.401824 57.504452 
L 94.589139 128.095938 
L 94.651577 127.146451 
L 94.823283 125.288227 
L 94.838892 125.312678 
L 94.93255 125.712033 
L 95.869125 131.335609 
L 96.509119 132.582577 
L 96.633995 132.721129 
L 97.102283 133.181611 
L 97.149112 133.173461 
L 97.195941 133.226437 
L 97.60179 133.495391 
L 98.023249 133.491316 
L 98.850557 133.385365 
L 98.975434 133.324239 
L 98.991044 133.336464 
L 99.100311 133.287563 
L 99.272016 133.214212 
L 99.755914 132.965633 
L 99.943229 132.863757 
L 100.099325 132.831156 
L 100.146154 132.835231 
L 100.192982 132.774105 
L 100.395907 132.708904 
L 100.505174 132.631478 
L 100.942243 132.301398 
L 101.082729 132.244347 
L 101.176387 132.175071 
L 101.753942 131.76349 
L 101.988086 131.563812 
L 102.159791 131.486386 
L 102.518812 131.282633 
L 102.674908 131.221507 
L 104.032942 129.652609 
L 104.235867 129.404031 
L 106.280723 127.11385 
L 106.983155 126.164363 
L 106.998765 126.176588 
L 107.076813 126.099162 
L 107.342176 125.740558 
L 107.607539 125.398254 
L 109.574347 122.659822 
L 109.917758 122.064865 
L 110.729457 120.809752 
L 111.307012 120.051794 
L 112.477732 118.136525 
L 112.961629 117.484519 
L 113.461136 116.693961 
L 113.773328 116.412784 
L 114.132348 115.91563 
L 114.787951 115.092472 
L 115.20941 114.493442 
L 115.59965 113.857737 
L 115.693308 113.719186 
L 115.880623 113.364658 
L 116.583054 112.268475 
L 116.848417 112.044348 
L 117.160609 111.852822 
L 117.441582 111.502369 
L 117.90987 110.589563 
L 118.144014 109.929408 
L 119.985945 105.834007 
L 120.750816 103.311569 
L 121.297151 100.043404 
L 121.546905 96.01729 
L 121.593734 88.784147 
L 121.671781 17.549054 
L 121.73422 49.203685 
L 121.937145 127.211652 
L 122.171288 123.971987 
L 122.280556 124.192039 
L 122.514699 125.626457 
L 123.045426 129.045426 
L 123.560542 131.042204 
L 124.231755 132.501076 
L 124.637604 133.07566 
L 124.965405 133.462791 
L 125.074673 133.540217 
L 125.230769 133.613568 
L 126.791728 133.923273 
L 126.963433 133.874372 
L 127.743913 133.564667 
L 127.962447 133.491316 
L 128.61805 133.034909 
L 128.758536 132.973783 
L 128.977071 132.867832 
L 129.179995 132.590727 
L 129.36731 132.42365 
L 129.554626 132.260647 
L 129.913646 132.040594 
L 130.069742 131.934642 
L 131.334119 130.805851 
L 131.67753 130.40242 
L 131.69314 130.41872 
L 131.786797 130.349444 
L 132.738982 129.196203 
L 133.238489 128.703121 
L 133.332147 128.633845 
L 133.5819 128.438243 
L 134.268722 127.761784 
L 134.565305 127.346128 
L 134.643353 127.211652 
L 134.893106 126.861197 
L 135.12725 126.539268 
L 139.248182 120.993129 
L 139.591593 120.463373 
L 141.417916 117.350042 
L 141.589621 117.142216 
L 142.02669 116.392409 
L 143.16619 114.509743 
L 143.244238 114.428242 
L 143.681307 113.768086 
L 144.133985 113.144607 
L 145.211047 111.388268 
L 145.273485 111.290468 
L 145.679335 110.442862 
L 146.912492 108.307547 
L 148.379794 104.582976 
L 148.785643 102.700316 
L 149.28515 99.513652 
L 149.534904 96.278091 
L 149.597342 93.816783 
L 149.644171 72.109239 
L 149.706609 17.145628 
L 149.769048 53.176807 
L 149.956363 127.032349 
L 149.987582 126.816371 
L 150.252945 123.197728 
L 150.268555 123.222178 
L 150.393431 123.751934 
L 151.283178 129.069876 
L 151.907562 131.07073 
L 152.313411 131.918342 
L 153.14072 132.823006 
L 153.796323 133.234587 
L 153.843151 133.173461 
L 153.921199 133.226437 
L 154.046076 133.283488 
L 154.311439 133.328314 
L 154.67046 133.39759 
L 154.717288 133.38129 
L 154.732898 133.462791 
L 155.04509 141.555882 
L 155.466549 144.970802 
L 156.106542 148.312375 
L 156.793364 150.569978 
L 157.573844 152.130741 
L 157.995303 152.591228 
L 158.385543 152.913161 
L 158.728954 153.251394 
L 158.88505 153.283995 
L 159.134803 153.483675 
L 161.92892 154.103091 
L 162.412817 153.858585 
L 163.739633 153.956388 
L 163.911338 153.997139 
L 164.083044 154.001214 
L 164.59816 153.972688 
L 164.816695 153.968613 
L 165.784489 153.825984 
L 165.909366 153.785233 
L 166.190339 153.699656 
L 166.955209 153.385873 
L 167.548373 152.790908 
L 167.751298 152.729781 
L 168.125928 152.737931 
L 168.313243 152.754232 
L 168.594216 152.729781 
L 169.327867 152.619753 
L 170.077127 152.530101 
L 170.280052 152.521951 
L 170.795169 152.375247 
L 170.966874 152.30597 
L 172.574662 151.572452 
L 172.746368 151.592828 
L 172.886854 151.523551 
L 173.386361 151.144567 
L 173.651724 150.969338 
L 174.026354 150.757432 
L 174.369765 150.692231 
L 174.494642 150.639255 
L 176.461451 150.239895 
L 176.664375 150.223595 
L 176.8673 150.170618 
L 177.070225 150.113567 
L 177.335588 150.085041 
L 177.460465 150.076891 
L 177.64778 149.962788 
L 177.850704 149.970939 
L 177.944362 149.917962 
L 178.100458 149.893512 
L 178.209725 149.848686 
L 178.41265 149.738658 
L 181.019452 149.16407 
L 181.128719 149.139619 
L 181.331643 149.074418 
L 181.487739 149.115168 
L 181.643835 149.090718 
L 182.018465 148.850287 
L 182.299438 148.809536 
L 182.564801 148.74026 
L 182.876993 148.634307 
L 183.033089 148.593556 
L 183.407719 148.593556 
L 183.595034 148.520205 
L 184.437952 148.410177 
L 184.578439 148.426478 
L 184.765754 148.463153 
L 185.109165 148.353126 
L 185.499405 148.181972 
L 185.733548 148.141221 
L 186.092569 147.998593 
L 186.170617 147.998593 
L 186.201836 147.970067 
L 186.326713 147.941542 
L 186.779391 147.815214 
L 186.935487 147.782613 
L 187.637919 147.705186 
L 187.809624 147.680736 
L 187.950111 147.717411 
L 188.043768 147.664435 
L 188.231083 147.554408 
L 188.387179 147.493281 
L 188.558885 147.366954 
L 188.590104 147.399554 
L 188.714981 147.293602 
L 188.949124 147.199875 
L 189.198878 147.110223 
L 189.323755 147.102073 
L 190.151063 147.000195 
L 190.432036 146.894243 
L 190.744228 146.788291 
L 191.0252 146.824967 
L 191.118858 146.869793 
L 191.228125 146.845342 
L 191.41544 146.800516 
L 191.587146 146.812741 
L 191.852509 146.792366 
L 191.992995 146.731239 
L 192.133481 146.698639 
L 192.149091 146.714939 
L 194.10029 146.608987 
L 194.271995 146.580461 
L 194.428091 146.645663 
L 194.599797 146.678263 
L 194.787112 146.661963 
L 194.818331 146.678263 
L 194.86516 146.625287 
L 194.990037 146.621212 
L 195.911003 146.270754 
L 196.270023 146.119976 
L 198.377318 146.018099 
L 198.502195 146.014024 
L 198.908044 146.014024 
L 199.06414 146.022174 
L 199.376332 146.067 
L 199.485599 146.103676 
L 199.922668 146.103676 
L 200.266079 146.124051 
L 200.390956 146.107751 
L 200.484613 146.030324 
L 200.547052 146.079225 
L 200.703148 146.038474 
L 200.921682 146.001799 
L 201.655333 145.891771 
L 202.029963 145.903996 
L 202.467031 146.022174 
L 202.638737 145.989573 
L 203.341169 146.087375 
L 203.512874 146.115901 
L 203.731408 146.119976 
L 203.949943 146.189253 
L 204.761642 146.287055 
L 204.82408 146.327806 
L 204.870909 146.28298 
L 204.902128 146.274829 
L 204.933347 146.331881 
L 204.980176 146.388932 
L 205.042614 146.327806 
L 205.448464 146.319655 
L 205.58895 146.368557 
L 205.60456 146.356331 
L 206.010409 146.360406 
L 206.182114 146.364481 
L 207.618197 146.254454 
L 207.945998 146.005874 
L 208.117704 145.899921 
L 208.289409 145.867321 
L 208.351848 145.867321 
L 208.383067 145.83472 
L 208.554772 145.867321 
L 208.695259 145.879546 
L 208.929403 145.83472 
L 209.085499 145.899921 
L 209.241595 145.920297 
L 209.4133 145.887696 
L 209.600615 145.989573 
L 209.616225 145.973273 
L 209.741101 145.956973 
L 209.975245 145.948822 
L 210.19378 145.985498 
L 210.786944 146.026249 
L 211.177184 145.81842 
L 211.489376 145.512788 
L 212.129369 145.402761 
L 212.254246 145.423136 
L 212.425951 145.435361 
L 212.722534 145.398686 
L 212.956678 145.410911 
L 213.190821 145.406836 
L 213.61228 145.414986 
L 213.705938 145.439436 
L 213.721548 145.455737 
L 213.862034 145.431286 
L 216.531274 145.537239 
L 217.062 145.692092 
L 217.171267 145.769519 
L 217.342973 145.822495 
L 217.530288 145.846945 
L 217.795651 145.879546 
L 218.061014 146.001799 
L 218.23272 145.940672 
L 218.576131 145.875471 
L 218.903932 145.855095 
L 219.075638 145.84287 
L 219.216124 145.822495 
L 219.434658 145.82657 
L 219.824898 145.81842 
L 220.027823 145.773594 
L 220.12148 145.83472 
L 220.1527 145.798044 
L 220.308796 145.773594 
L 220.51172 145.753218 
L 221.229761 145.83472 
L 221.448296 145.793969 
L 222.228775 145.891771 
L 222.41609 145.871396 
L 222.540967 145.83472 
L 223.321447 145.936597 
L 223.383885 145.891771 
L 223.446324 145.928447 
L 224.101926 146.026249 
L 224.320461 146.099601 
L 224.882406 146.270754 
L 225.007283 146.278905 
L 225.022892 146.29928 
L 225.11655 146.368557 
L 225.163379 146.311505 
L 225.350694 146.327806 
L 226.068735 146.405232 
L 226.458975 146.230003 
L 226.583852 146.250379 
L 226.599461 146.238154 
L 226.989701 146.234079 
L 227.098968 146.287055 
L 227.270674 146.287055 
L 228.269688 146.393007 
L 228.410174 146.380782 
L 228.847243 146.364481 
L 228.972119 146.372632 
L 229.050167 146.323731 
L 229.096996 146.368557 
L 229.815037 146.0833 
L 229.971133 146.038474 
L 230.189667 145.936597 
L 230.564298 145.781744 
L 231.032585 145.789894 
L 231.407216 145.802119 
L 231.563312 145.777669 
L 231.828675 145.708392 
L 231.969161 145.732843 
L 232.453058 145.708392 
L 232.640373 145.716542 
L 232.76525 145.712467 
L 232.999394 145.679867 
L 233.1711 145.635041 
L 233.358415 145.622815 
L 233.54573 145.635041 
L 233.717435 145.60244 
L 233.873531 145.675792 
L 234.029627 145.704317 
L 234.201333 145.814344 
L 234.419867 145.846945 
L 235.902778 145.736918 
L 236.121313 145.667641 
L 236.823744 145.577989 
L 236.886183 145.622815 
L 236.948621 145.573914 
L 239.492985 145.683942 
L 239.617861 145.663566 
L 239.852005 145.716542 
L 240.554437 145.785819 
L 241.912471 145.679867 
L 242.224663 145.630966 
L 242.34954 145.590215 
L 242.521245 145.59429 
L 243.254896 145.692092 
L 243.317335 145.732843 
L 243.379773 145.692092 
L 243.676355 145.659491 
L 243.832451 145.651341 
L 244.050985 145.683942 
L 244.222691 145.659491 
L 244.410006 145.696167 
L 244.737808 145.745068 
L 245.03439 145.712467 
L 245.221705 145.802119 
L 245.237314 145.785819 
L 245.440239 145.692092 
L 245.580726 145.692092 
L 245.814869 145.671716 
L 246.002185 145.712467 
L 246.1895 145.704317 
L 246.56413 145.708392 
L 246.689007 145.679867 
L 246.876322 145.651341 
L 247.048027 145.675792 
L 247.422657 145.504638 
L 247.594363 145.520938 
L 247.734849 145.533163 
L 247.953384 145.573914 
L 248.359233 145.606515 
L 248.359233 145.606515 
" clip-path="url(#pa1d2d3c339)" style="fill: none; stroke: #000000; stroke-opacity: 0.5; stroke-width: 1.5; stroke-linecap: square"/>
   </g>
   <g id="patch_3">
    <path d="M 35.304688 175.274 
L 35.304688 8.954 
" style="fill: none; stroke: #000000; stroke-width: 0.8; stroke-linejoin: miter; stroke-linecap: square"/>
   </g>
   <g id="patch_4">
    <path d="M 35.304688 175.274 
L 258.504687 175.274 
" style="fill: none; stroke: #000000; stroke-width: 0.8; stroke-linejoin: miter; stroke-linecap: square"/>
   </g>
  </g>
 </g>
 <defs>
  <clipPath id="pa1d2d3c339">
   <rect x="35.304688" y="8.954" width="223.2" height="166.32"/>
  </clipPath>
 </defs>
</svg>
