<?xml version="1.0" encoding="utf-8" standalone="no"?>
<!DOCTYPE svg PUBLIC "-//W3C//DTD SVG 1.1//EN"
  "http://www.w3.org/Graphics/SVG/1.1/DTD/svg11.dtd">
<svg xmlns:xlink="http://www.w3.org/1999/xlink" width="265.704687pt" height="197.398125pt" viewBox="0 0 265.704687 197.398125" xmlns="http://www.w3.org/2000/svg" version="1.1">
 <metadata>
  <rdf:RDF xmlns:dc="http://purl.org/dc/elements/1.1/" xmlns:cc="http://creativecommons.org/ns#" xmlns:rdf="http://www.w3.org/1999/02/22-rdf-syntax-ns#">
   <cc:Work>
    <dc:type rdf:resource="http://purl.org/dc/dcmitype/StillImage"/>
    <dc:date>2024-09-04T19:39:25.176728</dc:date>
    <dc:format>image/svg+xml</dc:format>
    <dc:creator>
     <cc:Agent>
      <dc:title>Matplotlib v3.9.2, https://matplotlib.org/</dc:title>
     </cc:Agent>
    </dc:creator>
   </cc:Work>
  </rdf:RDF>
 </metadata>
 <defs>
  <style type="text/css">*{stroke-linejoin: round; stroke-linecap: butt}</style>
 </defs>
 <g id="figure_1">
  <g id="patch_1">
   <path d="M 0 197.398125 
L 265.704687 197.398125 
L 265.704687 0 
L 0 0 
z
" style="fill: #ffffff"/>
  </g>
  <g id="axes_1">
   <g id="patch_2">
    <path d="M 35.304688 173.52 
L 258.504687 173.52 
L 258.504687 7.2 
L 35.304688 7.2 
z
" style="fill: #ffffff"/>
   </g>
   <g id="matplotlib.axis_1">
    <g id="xtick_1">
     <g id="line2d_1">
      <defs>
       <path id="mc236443596" d="M 0 0 
L 0 3.5 
" style="stroke: #000000; stroke-width: 0.8"/>
      </defs>
      <g>
       <use xlink:href="#mc236443596" x="75.147053" y="173.52" style="stroke: #000000; stroke-width: 0.8"/>
      </g>
     </g>
     <g id="text_1">
      <!-- 0.2 -->
      <g transform="translate(67.19549 188.118438) scale(0.1 -0.1)">
       <defs>
        <path id="DejaVuSans-30" d="M 2034 4250 
Q 1547 4250 1301 3770 
Q 1056 3291 1056 2328 
Q 1056 1369 1301 889 
Q 1547 409 2034 409 
Q 2525 409 2770 889 
Q 3016 1369 3016 2328 
Q 3016 3291 2770 3770 
Q 2525 4250 2034 4250 
z
M 2034 4750 
Q 2819 4750 3233 4129 
Q 3647 3509 3647 2328 
Q 3647 1150 3233 529 
Q 2819 -91 2034 -91 
Q 1250 -91 836 529 
Q 422 1150 422 2328 
Q 422 3509 836 4129 
Q 1250 4750 2034 4750 
z
" transform="scale(0.015625)"/>
        <path id="DejaVuSans-2e" d="M 684 794 
L 1344 794 
L 1344 0 
L 684 0 
L 684 794 
z
" transform="scale(0.015625)"/>
        <path id="DejaVuSans-32" d="M 1228 531 
L 3431 531 
L 3431 0 
L 469 0 
L 469 531 
Q 828 903 1448 1529 
Q 2069 2156 2228 2338 
Q 2531 2678 2651 2914 
Q 2772 3150 2772 3378 
Q 2772 3750 2511 3984 
Q 2250 4219 1831 4219 
Q 1534 4219 1204 4116 
Q 875 4013 500 3803 
L 500 4441 
Q 881 4594 1212 4672 
Q 1544 4750 1819 4750 
Q 2544 4750 2975 4387 
Q 3406 4025 3406 3419 
Q 3406 3131 3298 2873 
Q 3191 2616 2906 2266 
Q 2828 2175 2409 1742 
Q 1991 1309 1228 531 
z
" transform="scale(0.015625)"/>
       </defs>
       <use xlink:href="#DejaVuSans-30"/>
       <use xlink:href="#DejaVuSans-2e" x="63.623047"/>
       <use xlink:href="#DejaVuSans-32" x="95.410156"/>
      </g>
     </g>
    </g>
    <g id="xtick_2">
     <g id="line2d_2">
      <g>
       <use xlink:href="#mc236443596" x="124.641904" y="173.52" style="stroke: #000000; stroke-width: 0.8"/>
      </g>
     </g>
     <g id="text_2">
      <!-- 0.4 -->
      <g transform="translate(116.690341 188.118438) scale(0.1 -0.1)">
       <defs>
        <path id="DejaVuSans-34" d="M 2419 4116 
L 825 1625 
L 2419 1625 
L 2419 4116 
z
M 2253 4666 
L 3047 4666 
L 3047 1625 
L 3713 1625 
L 3713 1100 
L 3047 1100 
L 3047 0 
L 2419 0 
L 2419 1100 
L 313 1100 
L 313 1709 
L 2253 4666 
z
" transform="scale(0.015625)"/>
       </defs>
       <use xlink:href="#DejaVuSans-30"/>
       <use xlink:href="#DejaVuSans-2e" x="63.623047"/>
       <use xlink:href="#DejaVuSans-34" x="95.410156"/>
      </g>
     </g>
    </g>
    <g id="xtick_3">
     <g id="line2d_3">
      <g>
       <use xlink:href="#mc236443596" x="174.136754" y="173.52" style="stroke: #000000; stroke-width: 0.8"/>
      </g>
     </g>
     <g id="text_3">
      <!-- 0.6 -->
      <g transform="translate(166.185192 188.118438) scale(0.1 -0.1)">
       <defs>
        <path id="DejaVuSans-36" d="M 2113 2584 
Q 1688 2584 1439 2293 
Q 1191 2003 1191 1497 
Q 1191 994 1439 701 
Q 1688 409 2113 409 
Q 2538 409 2786 701 
Q 3034 994 3034 1497 
Q 3034 2003 2786 2293 
Q 2538 2584 2113 2584 
z
M 3366 4563 
L 3366 3988 
Q 3128 4100 2886 4159 
Q 2644 4219 2406 4219 
Q 1781 4219 1451 3797 
Q 1122 3375 1075 2522 
Q 1259 2794 1537 2939 
Q 1816 3084 2150 3084 
Q 2853 3084 3261 2657 
Q 3669 2231 3669 1497 
Q 3669 778 3244 343 
Q 2819 -91 2113 -91 
Q 1303 -91 875 529 
Q 447 1150 447 2328 
Q 447 3434 972 4092 
Q 1497 4750 2381 4750 
Q 2619 4750 2861 4703 
Q 3103 4656 3366 4563 
z
" transform="scale(0.015625)"/>
       </defs>
       <use xlink:href="#DejaVuSans-30"/>
       <use xlink:href="#DejaVuSans-2e" x="63.623047"/>
       <use xlink:href="#DejaVuSans-36" x="95.410156"/>
      </g>
     </g>
    </g>
    <g id="xtick_4">
     <g id="line2d_4">
      <g>
       <use xlink:href="#mc236443596" x="223.631605" y="173.52" style="stroke: #000000; stroke-width: 0.8"/>
      </g>
     </g>
     <g id="text_4">
      <!-- 0.8 -->
      <g transform="translate(215.680043 188.118438) scale(0.1 -0.1)">
       <defs>
        <path id="DejaVuSans-38" d="M 2034 2216 
Q 1584 2216 1326 1975 
Q 1069 1734 1069 1313 
Q 1069 891 1326 650 
Q 1584 409 2034 409 
Q 2484 409 2743 651 
Q 3003 894 3003 1313 
Q 3003 1734 2745 1975 
Q 2488 2216 2034 2216 
z
M 1403 2484 
Q 997 2584 770 2862 
Q 544 3141 544 3541 
Q 544 4100 942 4425 
Q 1341 4750 2034 4750 
Q 2731 4750 3128 4425 
Q 3525 4100 3525 3541 
Q 3525 3141 3298 2862 
Q 3072 2584 2669 2484 
Q 3125 2378 3379 2068 
Q 3634 1759 3634 1313 
Q 3634 634 3220 271 
Q 2806 -91 2034 -91 
Q 1263 -91 848 271 
Q 434 634 434 1313 
Q 434 1759 690 2068 
Q 947 2378 1403 2484 
z
M 1172 3481 
Q 1172 3119 1398 2916 
Q 1625 2713 2034 2713 
Q 2441 2713 2670 2916 
Q 2900 3119 2900 3481 
Q 2900 3844 2670 4047 
Q 2441 4250 2034 4250 
Q 1625 4250 1398 4047 
Q 1172 3844 1172 3481 
z
" transform="scale(0.015625)"/>
       </defs>
       <use xlink:href="#DejaVuSans-30"/>
       <use xlink:href="#DejaVuSans-2e" x="63.623047"/>
       <use xlink:href="#DejaVuSans-38" x="95.410156"/>
      </g>
     </g>
    </g>
   </g>
   <g id="matplotlib.axis_2">
    <g id="ytick_1">
     <g id="line2d_5">
      <defs>
       <path id="m92b21aa25f" d="M 0 0 
L -3.5 0 
" style="stroke: #000000; stroke-width: 0.8"/>
      </defs>
      <g>
       <use xlink:href="#m92b21aa25f" x="35.304688" y="159.292876" style="stroke: #000000; stroke-width: 0.8"/>
      </g>
     </g>
     <g id="text_5">
      <!-- −60 -->
      <g transform="translate(7.2 163.092094) scale(0.1 -0.1)">
       <defs>
        <path id="DejaVuSans-2212" d="M 678 2272 
L 4684 2272 
L 4684 1741 
L 678 1741 
L 678 2272 
z
" transform="scale(0.015625)"/>
       </defs>
       <use xlink:href="#DejaVuSans-2212"/>
       <use xlink:href="#DejaVuSans-36" x="83.789062"/>
       <use xlink:href="#DejaVuSans-30" x="147.412109"/>
      </g>
     </g>
    </g>
    <g id="ytick_2">
     <g id="line2d_6">
      <g>
       <use xlink:href="#m92b21aa25f" x="35.304688" y="135.444214" style="stroke: #000000; stroke-width: 0.8"/>
      </g>
     </g>
     <g id="text_6">
      <!-- −40 -->
      <g transform="translate(7.2 139.243433) scale(0.1 -0.1)">
       <use xlink:href="#DejaVuSans-2212"/>
       <use xlink:href="#DejaVuSans-34" x="83.789062"/>
       <use xlink:href="#DejaVuSans-30" x="147.412109"/>
      </g>
     </g>
    </g>
    <g id="ytick_3">
     <g id="line2d_7">
      <g>
       <use xlink:href="#m92b21aa25f" x="35.304688" y="111.595552" style="stroke: #000000; stroke-width: 0.8"/>
      </g>
     </g>
     <g id="text_7">
      <!-- −20 -->
      <g transform="translate(7.2 115.394771) scale(0.1 -0.1)">
       <use xlink:href="#DejaVuSans-2212"/>
       <use xlink:href="#DejaVuSans-32" x="83.789062"/>
       <use xlink:href="#DejaVuSans-30" x="147.412109"/>
      </g>
     </g>
    </g>
    <g id="ytick_4">
     <g id="line2d_8">
      <g>
       <use xlink:href="#m92b21aa25f" x="35.304688" y="87.746891" style="stroke: #000000; stroke-width: 0.8"/>
      </g>
     </g>
     <g id="text_8">
      <!-- 0 -->
      <g transform="translate(21.942187 91.54611) scale(0.1 -0.1)">
       <use xlink:href="#DejaVuSans-30"/>
      </g>
     </g>
    </g>
    <g id="ytick_5">
     <g id="line2d_9">
      <g>
       <use xlink:href="#m92b21aa25f" x="35.304688" y="63.898229" style="stroke: #000000; stroke-width: 0.8"/>
      </g>
     </g>
     <g id="text_9">
      <!-- 20 -->
      <g transform="translate(15.579687 67.697448) scale(0.1 -0.1)">
       <use xlink:href="#DejaVuSans-32"/>
       <use xlink:href="#DejaVuSans-30" x="63.623047"/>
      </g>
     </g>
    </g>
    <g id="ytick_6">
     <g id="line2d_10">
      <g>
       <use xlink:href="#m92b21aa25f" x="35.304688" y="40.049568" style="stroke: #000000; stroke-width: 0.8"/>
      </g>
     </g>
     <g id="text_10">
      <!-- 40 -->
      <g transform="translate(15.579687 43.848786) scale(0.1 -0.1)">
       <use xlink:href="#DejaVuSans-34"/>
       <use xlink:href="#DejaVuSans-30" x="63.623047"/>
      </g>
     </g>
    </g>
    <g id="ytick_7">
     <g id="line2d_11">
      <g>
       <use xlink:href="#m92b21aa25f" x="35.304688" y="16.200906" style="stroke: #000000; stroke-width: 0.8"/>
      </g>
     </g>
     <g id="text_11">
      <!-- 60 -->
      <g transform="translate(15.579687 20.000125) scale(0.1 -0.1)">
       <use xlink:href="#DejaVuSans-36"/>
       <use xlink:href="#DejaVuSans-30" x="63.623047"/>
      </g>
     </g>
    </g>
   </g>
   <g id="line2d_12">
    <path d="M 45.450142 153.821955 
L 45.707515 153.826992 
L 46.647917 153.859838 
L 47.00428 153.867869 
L 49.647305 153.937793 
L 49.98387 153.970154 
L 50.290738 154.061312 
L 50.389728 154.821427 
L 50.637202 156.432985 
L 50.983666 157.168287 
L 51.6172 158.27295 
L 52.458613 159.432544 
L 54.230529 161.343379 
L 54.804669 161.789896 
L 57.467492 163.369244 
L 57.695168 163.453512 
L 57.952541 163.603461 
L 59.516579 164.16758 
L 59.872942 164.259799 
L 61.417181 164.655889 
L 61.912129 164.808477 
L 63.436571 164.991325 
L 64.188893 165.080621 
L 64.634346 165.19156 
L 64.881821 165.188592 
L 65.347072 165.204344 
L 65.703435 165.20979 
L 65.901414 165.229087 
L 66.445858 165.323901 
L 67.554542 165.448716 
L 67.732724 165.456694 
L 68.296965 165.319894 
L 69.375953 165.384838 
L 70.435143 165.398476 
L 72.266452 165.457672 
L 73.682005 165.54265 
L 74.147257 165.534965 
L 74.87978 165.567109 
L 75.661799 165.537453 
L 76.087455 165.592953 
L 78.077148 165.634754 
L 78.294925 165.636673 
L 78.82947 165.618158 
L 80.047043 165.608288 
L 80.324214 165.595468 
L 80.640981 165.546168 
L 80.928051 165.527005 
L 83.24441 165.611486 
L 83.53148 165.644687 
L 83.788854 165.638397 
L 83.947237 165.661229 
L 84.174913 165.689588 
L 84.422388 165.666036 
L 84.650064 165.660447 
L 85.224204 165.66226 
L 85.412285 165.644065 
L 85.966627 165.606058 
L 86.243798 165.56742 
L 86.659555 165.587418 
L 86.986221 165.584353 
L 89.817326 165.61153 
L 90.450861 165.617678 
L 91.371465 165.66186 
L 91.70803 165.660847 
L 91.89611 165.615733 
L 92.173281 165.631716 
L 92.608836 165.707072 
L 93.301764 165.649671 
L 93.677925 165.661052 
L 94.172873 165.651003 
L 98.577915 165.727817 
L 99.072864 165.666933 
L 99.77569 165.731637 
L 100.54781 165.777241 
L 100.735891 165.798945 
L 101.79508 165.766837 
L 102.101948 165.780981 
L 103.062149 165.67572 
L 103.576895 165.602628 
L 103.903561 165.672201 
L 104.170833 165.673641 
L 104.4876 165.642617 
L 104.744973 165.639791 
L 105.091437 165.647796 
L 106.99204 165.411802 
L 108.506582 165.49368 
L 108.922339 165.557043 
L 109.417287 165.523629 
L 109.68456 165.56176 
L 109.882539 165.58334 
L 111.090213 165.618149 
L 111.535667 165.691685 
L 111.981121 165.677488 
L 112.693847 165.788266 
L 113.287785 165.76514 
L 113.545158 165.810406 
L 114.208389 165.795471 
L 114.614247 165.821307 
L 115.0597 165.84748 
L 115.604144 165.832954 
L 115.841719 165.791962 
L 116.188183 165.745728 
L 117.880907 165.78951 
L 118.504542 165.784748 
L 119.048985 165.81348 
L 120.266559 165.898707 
L 120.870396 165.837805 
L 121.078274 165.855938 
L 121.593021 165.936501 
L 122.325545 165.858923 
L 122.632413 165.858506 
L 123.889582 165.807128 
L 124.176652 165.771413 
L 124.364732 165.776725 
L 124.899277 165.769422 
L 125.186347 165.728555 
L 125.384326 165.697477 
L 125.908972 165.653615 
L 127.433413 165.634505 
L 127.839271 165.656112 
L 128.304523 165.650932 
L 131.284113 165.654859 
L 133.075826 165.661194 
L 133.729158 165.68304 
L 134.748752 165.745053 
L 137.302686 165.75081 
L 137.866928 165.793694 
L 138.124301 165.777099 
L 138.569755 165.787618 
L 138.886522 165.74173 
L 139.421066 165.746616 
L 139.718035 165.779524 
L 140.064499 165.70008 
L 140.371367 165.721749 
L 140.668336 165.714198 
L 141.262274 165.767779 
L 141.638435 165.764083 
L 142.093788 165.755039 
L 142.420454 165.723953 
L 143.479644 165.751734 
L 144.142875 165.791136 
L 150.418822 165.719493 
L 150.844478 165.655517 
L 151.200841 165.677923 
L 152.952958 165.670576 
L 153.329119 165.697753 
L 153.99235 165.720674 
L 155.53659 165.7876 
L 155.774165 165.804329 
L 157.684666 165.861242 
L 157.942039 165.887246 
L 158.149918 165.870801 
L 159.248703 165.816465 
L 162.960817 165.799514 
L 163.70324 165.840915 
L 163.940815 165.835495 
L 164.17839 165.83219 
L 164.465461 165.790381 
L 166.573941 165.61424 
L 166.821416 165.681077 
L 167.138183 165.631493 
L 169.355552 165.754461 
L 170.018783 165.759525 
L 170.691913 165.685181 
L 170.889892 165.635385 
L 172.196556 165.570511 
L 172.800394 165.543805 
L 173.166655 165.49185 
L 173.453726 165.537284 
L 173.760594 165.577637 
L 174.423825 165.679433 
L 174.602006 165.668417 
L 175.176146 165.768907 
L 175.374126 165.738123 
L 175.938367 165.715228 
L 176.86887 165.730456 
L 177.225233 165.696171 
L 177.631091 165.735475 
L 178.353716 165.759312 
L 178.818967 165.772168 
L 179.541592 165.799016 
L 180.580984 165.878762 
L 180.848256 165.86205 
L 181.402599 165.866075 
L 181.86785 165.887113 
L 182.590475 165.8642 
L 193.49914 165.617376 
L 193.69712 165.668497 
L 194.003988 165.704727 
L 194.45934 165.719768 
L 194.815703 165.721216 
L 195.350248 165.727035 
L 196.00358 165.639596 
L 196.320347 165.652629 
L 196.716305 165.621481 
L 197.072668 165.616052 
L 197.716101 165.638672 
L 198.052666 165.677612 
L 198.409029 165.73337 
L 198.715897 165.746981 
L 198.804988 165.461163 
L 199.319735 162.840023 
L 199.676098 162.236249 
L 200.834277 160.55857 
L 202.625991 158.715034 
L 203.051646 158.438354 
L 203.98215 157.88654 
L 204.259321 157.735382 
L 206.397498 156.771544 
L 209.881936 155.996285 
L 210.396682 155.925051 
L 215.059097 155.161355 
L 215.395662 155.126431 
L 215.930207 155.026309 
L 216.672629 154.966659 
L 218.642524 154.918711 
L 219.246362 154.886443 
L 220.147168 154.913958 
L 221.107368 154.795179 
L 226.561701 154.43277 
L 226.85867 154.414304 
L 227.343719 154.401546 
L 228.957251 154.436519 
L 229.343311 154.377918 
L 230.135229 154.24209 
L 233.985928 154.338516 
L 234.956027 154.346507 
L 235.262895 154.356516 
L 235.886531 154.251267 
L 239.25218 154.056763 
L 239.559048 154.08247 
L 241.291368 154.364942 
L 241.717024 154.368314 
L 244.132373 154.393048 
L 244.825301 154.393932 
L 245.290552 154.333581 
L 245.815198 154.179931 
L 246.646711 154.169261 
L 246.963478 154.184657 
L 247.300043 154.193497 
L 247.973173 154.183795 
L 248.359233 154.217121 
L 248.359233 154.217121 
" clip-path="url(#p1c47bdc0c1)" style="fill: none; stroke: #000000; stroke-opacity: 0.5; stroke-width: 1.5; stroke-linecap: square"/>
   </g>
   <g id="line2d_13">
    <path d="M 45.450142 154.296911 
L 45.687717 154.198175 
L 45.856 154.237341 
L 47.707107 154.217396 
L 47.984278 154.249557 
L 48.340641 154.157502 
L 48.706903 154.103166 
L 50.36993 154.271444 
L 50.686697 154.666321 
L 51.082656 154.863299 
L 51.953765 155.000127 
L 56.824059 155.979774 
L 57.635774 156.019687 
L 58.44749 156.085089 
L 58.823651 156.104439 
L 60.793546 156.287078 
L 60.981626 156.357775 
L 61.268696 156.344537 
L 61.466676 156.386658 
L 61.862635 156.416807 
L 62.189301 156.436121 
L 64.1196 156.631781 
L 64.624447 156.649523 
L 65.26788 156.769728 
L 65.545052 156.742786 
L 66.911109 156.745029 
L 67.168483 156.704637 
L 68.029693 156.618721 
L 69.613528 156.766414 
L 70.128275 156.660903 
L 70.672718 156.469149 
L 71.830898 156.606358 
L 72.464432 156.670339 
L 72.830694 156.706147 
L 73.335541 156.694073 
L 76.334929 156.750826 
L 76.730888 156.707102 
L 77.087251 156.724915 
L 78.948257 156.886196 
L 79.809468 156.935109 
L 80.047043 156.918202 
L 80.294517 156.827 
L 80.55189 156.695046 
L 82.046635 155.756502 
L 82.472291 155.757217 
L 83.284006 155.764645 
L 83.610672 155.781063 
L 83.967035 155.801275 
L 84.174913 155.796579 
L 84.432287 155.738711 
L 85.689456 155.91264 
L 87.718745 156.183522 
L 88.589854 156.215599 
L 88.91652 156.28754 
L 89.698539 156.42928 
L 90.322174 156.508644 
L 90.827021 156.518279 
L 91.104193 156.535359 
L 91.539747 156.624838 
L 91.915908 156.674901 
L 92.18318 156.629377 
L 93.697723 156.760657 
L 93.964995 156.804607 
L 94.717317 156.819626 
L 94.925195 156.801347 
L 98.14236 156.904751 
L 98.370037 156.918216 
L 103.349219 156.873519 
L 103.804571 156.827449 
L 104.408408 156.834676 
L 105.73487 156.702211 
L 105.992244 156.656497 
L 107.46719 156.650966 
L 107.704766 156.594484 
L 111.258496 156.736345 
L 111.753444 156.755766 
L 112.060312 156.748774 
L 114.228187 156.862351 
L 114.544954 156.867593 
L 114.742933 156.927948 
L 114.990408 156.971815 
L 115.277478 156.962477 
L 115.73283 156.907457 
L 116.089193 156.887836 
L 116.534647 156.832748 
L 116.821717 156.834756 
L 117.534443 156.852463 
L 117.801715 156.861316 
L 118.049189 156.912019 
L 120.820901 156.923524 
L 121.028779 156.871542 
L 121.721707 156.826889 
L 122.800695 156.889066 
L 123.087765 156.655431 
L 123.483724 156.55801 
L 125.44372 156.574317 
L 125.73079 156.614279 
L 126.324728 156.622283 
L 126.819677 156.601743 
L 127.086949 156.601694 
L 127.552201 156.553292 
L 128.304523 156.141095 
L 129.86856 156.228277 
L 130.195226 156.318942 
L 130.680275 156.420321 
L 131.026739 156.426904 
L 131.838455 156.420289 
L 132.085929 156.468838 
L 133.184715 156.282134 
L 134.234006 156.438871 
L 134.629964 156.470273 
L 135.82774 156.614856 
L 136.352385 156.694242 
L 136.867132 156.741289 
L 138.52026 156.782685 
L 138.767734 156.77735 
L 140.549549 156.79372 
L 140.876215 156.81665 
L 141.183083 156.830425 
L 141.806718 156.847714 
L 145.419842 156.48427 
L 145.835599 156.191265 
L 146.281052 156.118605 
L 146.657213 156.117965 
L 148.7063 156.247423 
L 149.141855 156.281836 
L 149.359632 156.363754 
L 150.092156 156.413182 
L 150.369327 156.432625 
L 150.53761 156.425704 
L 150.765286 156.444935 
L 151.032558 156.564837 
L 151.636395 156.468971 
L 152.230333 156.461193 
L 152.487707 156.44505 
L 153.012352 156.467905 
L 153.982451 156.376476 
L 154.398208 156.413875 
L 154.922853 156.427726 
L 155.378206 156.469851 
L 155.605882 156.461788 
L 155.902851 156.471143 
L 157.001637 156.321118 
L 157.476788 156.357904 
L 158.13012 156.3477 
L 158.60527 156.340202 
L 159.892136 156.439204 
L 160.199004 156.428201 
L 160.406883 156.380004 
L 160.62466 156.454112 
L 160.82264 156.382593 
L 161.060215 156.336364 
L 162.35698 156.150775 
L 163.564654 156.158642 
L 163.911118 156.107966 
L 166.0097 156.267062 
L 166.613537 156.32258 
L 168.187473 156.300662 
L 168.444847 156.288682 
L 169.127876 156.378564 
L 170.008884 156.298401 
L 170.325651 156.293799 
L 170.771105 156.099077 
L 171.355144 156.022969 
L 173.166655 156.223066 
L 173.41413 156.18466 
L 174.908874 156.257395 
L 175.166247 156.247041 
L 177.522202 156.483071 
L 180.13553 156.278158 
L 181.620376 156.418335 
L 181.927244 156.351498 
L 182.3529 156.371608 
L 182.907242 156.283831 
L 183.233908 156.409673 
L 183.610069 156.460709 
L 184.194108 156.367526 
L 184.649461 156.315974 
L 187.470667 156.374602 
L 187.718142 156.342028 
L 188.31208 156.476474 
L 188.589251 156.497961 
L 188.757533 156.472929 
L 189.46036 156.52452 
L 189.994905 156.591313 
L 190.42056 156.534337 
L 191.271872 156.601303 
L 191.499548 156.619205 
L 195.370046 156.634228 
L 195.548227 156.655106 
L 198.745594 156.685811 
L 198.874281 156.513859 
L 199.111856 156.212707 
L 199.329634 156.18366 
L 199.824582 155.997671 
L 200.547207 155.787406 
L 200.863974 155.71949 
L 201.428215 155.545393 
L 202.5369 155.253117 
L 202.932859 155.195102 
L 203.724776 155.157681 
L 204.061341 155.07834 
L 204.298917 155.077762 
L 204.764168 155.020116 
L 205.32841 154.805125 
L 205.872853 154.748079 
L 206.041135 154.751113 
L 206.28861 154.661945 
L 206.47669 154.574212 
L 206.714265 154.549634 
L 207.912041 154.504519 
L 208.347595 154.454967 
L 211.1886 154.336934 
L 211.535064 154.247954 
L 215.969803 154.391995 
L 216.306367 154.352851 
L 216.900306 154.381183 
L 217.187376 154.371868 
L 217.811011 154.326851 
L 219.582927 154.197033 
L 219.860098 154.233152 
L 220.107572 154.24643 
L 220.345147 154.302166 
L 220.572824 154.294063 
L 220.780702 154.318446 
L 221.226156 154.413793 
L 230.184724 154.314537 
L 230.382703 154.305182 
L 231.441893 154.301286 
L 231.728963 154.295152 
L 232.016033 154.284504 
L 236.995215 154.223464 
L 237.391174 154.270138 
L 239.509554 154.259428 
L 240.31137 154.32236 
L 240.895409 154.285699 
L 241.964498 154.327939 
L 244.033383 154.113543 
L 244.300655 154.13873 
L 246.716004 154.086401 
L 247.220851 154.031158 
L 248.359233 154.259561 
L 248.359233 154.259561 
" clip-path="url(#p1c47bdc0c1)" style="fill: none; stroke: #000000; stroke-opacity: 0.5; stroke-width: 1.5; stroke-linecap: square"/>
   </g>
   <g id="line2d_14">
    <path d="M 45.450142 154.053196 
L 46.172767 154.09684 
L 46.479635 154.12101 
L 47.083472 154.138872 
L 47.499229 154.093446 
L 48.073369 154.089902 
L 48.459429 154.069814 
L 48.904883 154.024322 
L 49.647305 154.214713 
L 49.904679 154.197406 
L 50.191749 154.142799 
L 50.459021 154.101807 
L 50.795586 154.025628 
L 52.023058 154.091918 
L 53.270328 154.053556 
L 53.517803 154.037608 
L 53.884065 154.038879 
L 54.438407 154.023864 
L 54.675982 154.013834 
L 54.992749 153.980642 
L 55.230325 153.96605 
L 55.675778 153.899888 
L 56.269716 154.002329 
L 57.368502 153.956877 
L 57.556583 153.981784 
L 59.823447 154.015198 
L 60.427284 153.979278 
L 63.495965 154.155264 
L 63.862227 154.149986 
L 64.188893 154.192031 
L 66.000404 154.220821 
L 66.663635 154.198797 
L 66.970503 154.197784 
L 67.87131 154.248611 
L 68.257369 154.197962 
L 68.683025 154.17998 
L 71.345848 154.323661 
L 71.652716 154.291251 
L 72.533724 154.254346 
L 73.385036 154.232832 
L 74.107661 154.270111 
L 77.809876 154.20996 
L 78.195935 154.214398 
L 78.680985 154.246772 
L 79.354115 154.205033 
L 79.750074 154.218378 
L 94.707418 154.252822 
L 94.97469 154.247705 
L 96.03388 153.877828 
L 96.598121 153.953207 
L 97.785997 153.991161 
L 98.102764 154.012994 
L 98.7264 153.961417 
L 99.171853 154.032069 
L 100.6468 154.103428 
L 101.141748 154.089102 
L 102.052454 154.155668 
L 102.28013 154.186403 
L 102.745381 154.220359 
L 104.121338 153.921406 
L 105.556689 153.979212 
L 105.962547 154.00025 
L 106.586182 154.159417 
L 107.071231 154.158564 
L 107.506786 154.255701 
L 112.495867 154.418119 
L 113.020513 154.421491 
L 113.218492 154.395322 
L 113.822329 154.412975 
L 114.208389 154.407756 
L 114.673641 154.481056 
L 114.861721 154.426942 
L 115.15869 154.334243 
L 115.54475 154.343242 
L 115.762527 154.25905 
L 116.227779 154.236102 
L 117.762119 154.299825 
L 118.049189 154.348 
L 118.42535 154.346841 
L 119.118278 154.43504 
L 119.603328 154.519414 
L 120.672417 154.546209 
L 120.909992 154.604823 
L 121.286153 154.618772 
L 121.543526 154.538187 
L 121.909788 154.448313 
L 122.256252 154.395695 
L 127.116646 154.433436 
L 127.36412 154.419061 
L 127.641292 154.397237 
L 128.304523 154.483686 
L 128.848966 154.486857 
L 131.937445 154.415223 
L 132.412595 154.418941 
L 133.451987 154.367643 
L 133.748956 154.379499 
L 134.115218 154.118029 
L 134.491379 153.908639 
L 136.124709 153.7178 
L 138.480664 153.85082 
L 138.757835 153.815945 
L 140.074398 153.931499 
L 140.72773 153.69757 
L 142.826312 153.736257 
L 143.024291 153.709848 
L 143.588532 153.738909 
L 144.09338 153.74822 
L 144.944691 153.942533 
L 147.924281 153.753914 
L 148.181655 153.699702 
L 148.547917 153.76438 
L 148.815189 153.801739 
L 149.260642 153.872307 
L 149.725894 153.858723 
L 150.458418 153.909417 
L 151.091952 153.998753 
L 151.359224 154.023638 
L 154.269521 154.068184 
L 154.972348 154.023593 
L 155.665276 154.138397 
L 156.081033 154.086357 
L 156.912546 153.700386 
L 157.16992 153.701901 
L 158.763654 153.866865 
L 159.011128 153.884803 
L 159.595167 153.894269 
L 159.832743 153.836721 
L 160.030722 153.818419 
L 165.069298 153.855298 
L 165.811721 153.933693 
L 166.455154 153.929051 
L 168.939795 153.950769 
L 169.157572 153.946535 
L 171.077973 154.037595 
L 171.384841 154.058544 
L 172.562818 154.14402 
L 173.057767 154.142075 
L 173.443827 154.251494 
L 174.215946 154.234325 
L 174.997965 154.283171 
L 175.195944 154.277703 
L 176.076953 154.276139 
L 177.472707 154.315368 
L 177.779576 154.310766 
L 178.046848 154.313569 
L 178.333918 154.303587 
L 178.818967 154.283358 
L 179.610885 154.237808 
L 180.026642 154.240064 
L 180.650277 154.164663 
L 181.184821 154.156405 
L 183.402191 154.256913 
L 183.689261 154.285765 
L 184.204007 154.290323 
L 184.857339 154.287733 
L 185.391884 154.255665 
L 185.669055 154.326806 
L 185.857135 154.271462 
L 186.431275 154.287356 
L 187.559758 154.291696 
L 187.886424 154.284402 
L 188.302181 154.291029 
L 189.915713 154.184351 
L 190.13349 154.151692 
L 191.39066 154.243009 
L 191.687629 154.22963 
L 192.053891 154.219857 
L 192.984394 154.303121 
L 193.241767 154.25399 
L 193.538736 154.267566 
L 194.033685 154.353633 
L 195.211662 154.395642 
L 196.072872 154.462808 
L 197.15186 154.45435 
L 198.527817 154.494689 
L 199.200947 154.51371 
L 199.389027 154.425102 
L 199.616704 154.34083 
L 200.537308 154.339884 
L 201.131246 154.318948 
L 202.546799 153.997798 
L 202.843768 154.035379 
L 208.060525 154.176386 
L 208.525777 154.172015 
L 209.763148 154.264438 
L 211.218297 154.273176 
L 211.495468 154.256003 
L 211.970619 154.298559 
L 213.20799 154.261493 
L 214.762128 154.303725 
L 215.257077 154.272501 
L 215.61344 154.238496 
L 216.128186 154.193475 
L 216.741922 154.189801 
L 216.930003 154.219675 
L 217.127982 154.187771 
L 217.306163 154.20299 
L 217.949597 154.068206 
L 218.216869 154.123662 
L 218.474242 154.154806 
L 219.117675 154.15219 
L 219.424543 154.174751 
L 225.819278 154.373156 
L 226.076651 154.346641 
L 227.43281 154.416818 
L 229.175029 154.404597 
L 229.541291 154.349102 
L 229.749169 154.431468 
L 230.293612 154.435746 
L 230.640076 154.409044 
L 231.85765 154.479936 
L 232.055629 154.404442 
L 232.392194 154.39538 
L 234.807543 154.352447 
L 235.282693 154.4123 
L 235.579662 154.430038 
L 235.767743 154.404602 
L 236.341883 154.44658 
L 236.668549 154.450321 
L 237.074407 154.424752 
L 237.500063 154.483099 
L 237.896021 154.469431 
L 239.103696 154.498034 
L 239.380867 154.519134 
L 239.707533 154.52932 
L 239.885714 154.509619 
L 240.816218 154.528867 
L 241.568539 154.513995 
L 242.053589 154.482162 
L 243.162274 154.573648 
L 243.845303 154.580112 
L 244.35015 154.596845 
L 244.627321 154.566408 
L 244.934189 154.5863 
L 245.399441 154.52944 
L 246.527923 154.575687 
L 246.686307 154.619243 
L 248.349334 154.636687 
L 248.359233 154.635341 
L 248.359233 154.635341 
" clip-path="url(#p1c47bdc0c1)" style="fill: none; stroke: #000000; stroke-opacity: 0.5; stroke-width: 1.5; stroke-linecap: square"/>
   </g>
   <g id="line2d_15">
    <path d="M 45.450142 155.143342 
L 45.826303 155.150925 
L 47.00428 155.147606 
L 47.479431 155.073715 
L 47.697208 155.076021 
L 48.033773 155.097272 
L 48.528722 155.138025 
L 50.261042 155.230457 
L 50.340233 154.978809 
L 50.726293 153.177713 
L 51.270737 152.300471 
L 51.963664 151.47454 
L 53.686085 149.90063 
L 55.428304 148.565805 
L 55.952949 148.263188 
L 58.982034 146.969311 
L 59.79375 146.71657 
L 60.714354 146.407067 
L 62.347684 146.009387 
L 62.704047 145.930374 
L 63.614752 145.685865 
L 63.901822 145.626811 
L 64.40667 145.444758 
L 64.763033 145.396796 
L 66.287474 145.121413 
L 66.792322 145.059831 
L 67.376361 144.924692 
L 67.77232 144.842761 
L 68.405854 144.673763 
L 69.890699 144.427046 
L 70.860799 144.459416 
L 71.187465 144.437662 
L 72.207058 144.200638 
L 72.405038 144.202406 
L 73.365238 144.127671 
L 73.652308 144.099583 
L 74.176954 144.06162 
L 74.424428 143.957474 
L 74.671902 143.923838 
L 75.473719 143.791808 
L 75.998364 143.815023 
L 76.621999 143.777429 
L 76.928867 143.729946 
L 77.305028 143.779863 
L 77.710886 143.753752 
L 78.05735 143.766212 
L 78.859166 143.775199 
L 80.720173 143.66239 
L 81.690272 143.677467 
L 82.214917 143.691237 
L 83.165218 143.73888 
L 85.481577 143.850831 
L 85.778547 143.917854 
L 85.986425 143.929626 
L 87.144604 144.04538 
L 87.689048 144.062975 
L 91.648636 144.255565 
L 92.064393 144.186232 
L 92.400958 144.191762 
L 94.222368 144.013827 
L 94.816306 144.083658 
L 95.142972 144.070633 
L 95.826001 144.174873 
L 96.390243 144.25827 
L 96.637717 144.220858 
L 96.89509 144.196218 
L 97.28115 144.29614 
L 100.557709 144.394116 
L 101.547606 144.350058 
L 103.497703 144.476975 
L 103.953056 144.497729 
L 104.250025 144.501754 
L 104.497499 144.485131 
L 105.25972 144.537407 
L 106.150627 144.539863 
L 106.487192 144.554438 
L 106.883151 144.486357 
L 108.041331 144.75115 
L 108.407592 144.710495 
L 108.635269 144.650921 
L 109.120318 144.646159 
L 109.338096 144.619178 
L 109.545974 144.660805 
L 109.961731 144.696072 
L 113.307583 144.786083 
L 113.545158 144.717416 
L 114.257884 144.707079 
L 115.188387 144.645471 
L 115.475457 144.661294 
L 117.514645 144.650775 
L 118.03929 144.60439 
L 118.613431 144.640287 
L 119.00939 144.635818 
L 121.21686 144.437938 
L 121.909788 144.266031 
L 122.206757 144.224972 
L 122.533423 144.183304 
L 123.13726 144.203863 
L 124.740893 144.002633 
L 125.047761 143.957478 
L 125.285337 143.943348 
L 125.562508 143.856153 
L 125.839679 143.763418 
L 126.354425 143.732496 
L 126.651394 143.744192 
L 126.88897 143.724163 
L 129.19543 143.545495 
L 129.541894 143.512942 
L 129.96755 143.476019 
L 130.422902 143.476001 
L 130.967345 143.444928 
L 131.4029 143.443991 
L 131.739465 143.457629 
L 132.07603 143.494236 
L 132.323504 143.446408 
L 132.56108 143.461511 
L 133.392593 143.404949 
L 134.09542 143.313849 
L 136.332587 143.354855 
L 137.678847 143.282399 
L 137.886726 143.268375 
L 138.213392 143.242362 
L 141.984899 143.16796 
L 142.410555 143.158378 
L 143.578634 143.106374 
L 143.826108 143.096157 
L 144.568531 143.045534 
L 146.419638 142.930913 
L 146.706708 142.904615 
L 147.419434 142.900875 
L 147.874787 142.779706 
L 148.32024 142.819255 
L 149.6665 142.805662 
L 150.201045 142.790092 
L 150.507913 142.70669 
L 153.240028 142.823599 
L 153.556795 142.825523 
L 154.229925 142.856849 
L 154.507097 142.863992 
L 155.110934 142.859998 
L 155.398004 142.889832 
L 156.061235 142.885874 
L 156.378002 142.927808 
L 156.853153 142.933711 
L 157.080829 142.991451 
L 157.526283 143.05926 
L 161.990718 143.120735 
L 162.208495 143.13312 
L 164.623844 143.223998 
L 165.0495 143.264608 
L 165.33657 143.287254 
L 168.098383 143.239794 
L 168.256766 143.220719 
L 168.583432 143.146566 
L 169.335754 143.231301 
L 171.464033 143.294628 
L 171.86989 143.310091 
L 172.988474 143.277983 
L 173.998169 143.334199 
L 174.443623 143.336429 
L 175.512711 143.311064 
L 176.660992 143.407814 
L 177.284627 143.500238 
L 177.759778 143.533625 
L 178.096343 143.551074 
L 178.492301 143.576496 
L 179.214926 143.616183 
L 179.699976 143.555334 
L 186.96582 143.609644 
L 187.332082 143.607383 
L 188.401171 143.537094 
L 190.450257 143.628096 
L 191.054095 143.596975 
L 191.539144 143.596135 
L 191.826214 143.546907 
L 192.024194 143.549852 
L 192.53894 143.532555 
L 193.21207 143.511685 
L 193.449645 143.530178 
L 193.994089 143.60231 
L 194.281159 143.597272 
L 194.469239 143.558803 
L 194.786006 143.554281 
L 194.974087 143.503916 
L 195.152268 143.535309 
L 195.538328 143.514404 
L 196.082771 143.475571 
L 196.914285 143.439362 
L 197.161759 143.432197 
L 197.735899 143.384311 
L 198.428827 143.357818 
L 198.795089 143.492242 
L 198.943574 144.596923 
L 199.151452 145.27767 
L 199.854279 146.395051 
L 200.101753 146.66939 
L 200.656096 147.393688 
L 200.90357 147.609782 
L 201.645993 148.391086 
L 202.071648 148.883122 
L 202.527001 149.320773 
L 204.279119 150.605863 
L 206.555882 151.923256 
L 206.694467 151.973417 
L 207.139921 152.195907 
L 207.476486 152.355194 
L 208.090222 152.564282 
L 208.357494 152.690808 
L 208.832645 152.896507 
L 209.367189 153.04917 
L 209.763148 153.175621 
L 209.980926 153.332584 
L 210.238299 153.402708 
L 211.020317 153.662957 
L 211.307388 153.706894 
L 211.604357 153.800522 
L 213.20799 153.98225 
L 215.356066 154.654522 
L 215.593642 154.638775 
L 216.385559 154.642417 
L 218.632625 154.624302 
L 219.196867 154.702622 
L 219.543331 154.701858 
L 219.919492 154.800198 
L 220.434238 154.785188 
L 220.602521 154.830201 
L 220.849995 154.903723 
L 221.077671 154.912874 
L 221.612216 154.940757 
L 221.909185 154.972416 
L 224.096857 155.184232 
L 224.35423 155.172407 
L 224.532412 155.089592 
L 224.908573 155.054779 
L 227.848567 155.159805 
L 228.39301 155.225087 
L 228.96715 155.240345 
L 232.115023 155.451326 
L 232.263507 155.403968 
L 232.471386 155.389251 
L 232.699062 155.397576 
L 232.996031 155.337273 
L 234.174009 155.378328 
L 234.668957 155.351786 
L 234.896633 155.410142 
L 235.144108 155.420804 
L 235.351986 155.451543 
L 235.619258 155.440362 
L 235.98552 155.451628 
L 236.916023 155.380664 
L 237.153599 155.353318 
L 237.391174 155.43158 
L 237.707941 155.446772 
L 238.133597 155.418827 
L 239.648139 155.403928 
L 241.410156 155.187697 
L 242.013993 155.227428 
L 242.23177 155.195244 
L 242.42975 155.193938 
L 242.786113 155.114996 
L 243.29096 155.064329 
L 243.568131 155.033936 
L 244.419443 155.035104 
L 248.359233 155.02299 
L 248.359233 155.02299 
" clip-path="url(#p1c47bdc0c1)" style="fill: none; stroke: #000000; stroke-opacity: 0.5; stroke-width: 1.5; stroke-linecap: square"/>
   </g>
   <g id="line2d_16">
    <path d="M 45.450142 154.930118 
L 45.865899 154.852603 
L 50.261042 154.759344 
L 50.340233 154.357151 
L 50.736192 151.666739 
L 51.726089 149.567877 
L 53.73558 146.551833 
L 55.349112 144.843231 
L 55.616384 144.576649 
L 58.912742 141.95963 
L 59.783851 141.450026 
L 62.050715 140.063912 
L 62.407078 139.900876 
L 63.010915 139.55644 
L 63.208895 139.465078 
L 63.555359 139.323089 
L 65.416365 138.629432 
L 66.119192 138.395921 
L 66.396363 138.340687 
L 66.881413 138.189445 
L 67.336765 138.001884 
L 70.019386 137.199452 
L 70.256961 137.094626 
L 70.662819 137.015391 
L 73.068269 136.373188 
L 73.276147 136.315551 
L 74.186853 136.219081 
L 74.59271 136.170932 
L 75.948869 136.009122 
L 77.265432 135.845367 
L 77.978158 135.760588 
L 78.958156 135.682282 
L 80.581587 135.628287 
L 80.848859 135.672065 
L 80.987445 135.619891 
L 81.22502 135.536921 
L 82.195119 135.492681 
L 82.531684 135.537072 
L 83.006835 135.512054 
L 84.49168 135.446865 
L 84.768852 135.452884 
L 85.303396 135.443178 
L 87.451473 135.331511 
L 87.659351 135.261925 
L 87.877128 135.214527 
L 88.956116 135.103673 
L 89.441166 135.074528 
L 89.936114 135.016566 
L 90.242982 134.990708 
L 90.490456 134.92261 
L 93.608632 134.960853 
L 93.767016 135.012839 
L 94.004591 134.939197 
L 94.519337 134.932303 
L 94.707418 134.917297 
L 95.152871 134.923747 
L 95.826001 134.94228 
L 96.093274 134.925893 
L 97.894886 134.967974 
L 98.518521 134.927337 
L 99.142156 134.906272 
L 99.656903 134.94447 
L 99.953872 134.974543 
L 100.419123 134.922886 
L 101.844575 134.862135 
L 102.319726 134.923014 
L 104.29952 135.084296 
L 105.061741 135.147246 
L 105.467598 135.139401 
L 106.526788 135.164335 
L 106.952444 135.264528 
L 107.368201 135.25519 
L 107.66517 135.301167 
L 108.833248 135.479946 
L 109.150015 135.526242 
L 109.328197 135.550221 
L 109.575671 135.59964 
L 110.189407 135.651546 
L 111.149607 135.699246 
L 111.40698 135.726859 
L 113.070007 135.768939 
L 113.258088 135.755666 
L 113.52536 135.748456 
L 114.208389 135.662785 
L 114.752832 135.619172 
L 115.039902 135.671838 
L 115.307175 135.668968 
L 115.812022 135.648192 
L 116.287173 135.746404 
L 116.851414 135.711507 
L 117.623534 135.73453 
L 118.167977 135.656073 
L 118.445148 135.708508 
L 118.920299 135.669111 
L 121.058476 135.793011 
L 121.424738 135.825457 
L 121.979081 135.844922 
L 122.652211 135.815569 
L 124.533015 135.843954 
L 124.721095 135.807759 
L 125.364528 135.816137 
L 125.750588 135.82384 
L 130.432801 135.921105 
L 131.046537 136.022702 
L 131.828556 136.02499 
L 135.699053 135.994143 
L 135.897033 136.005689 
L 136.382082 136.021418 
L 136.758243 136.073365 
L 137.084909 136.058639 
L 137.728342 136.066599 
L 138.332179 136.061984 
L 138.955814 136.082707 
L 139.500258 136.039862 
L 141.262274 136.004978 
L 141.658233 135.980555 
L 141.826516 135.940371 
L 142.380858 135.931176 
L 143.242069 135.903013 
L 143.440048 135.907308 
L 145.05358 135.852829 
L 145.360448 135.825728 
L 145.62772 135.854207 
L 145.8257 135.87126 
L 146.11277 135.865343 
L 146.874991 135.869203 
L 147.805494 135.844771 
L 154.833763 136.015652 
L 155.358408 136.026767 
L 156.160225 136.069034 
L 156.704668 136.087882 
L 161.406679 136.188079 
L 161.941223 136.217833 
L 162.505465 136.186276 
L 162.84203 136.18871 
L 163.049908 136.208025 
L 163.237988 136.179937 
L 164.109098 136.120274 
L 167.128284 136.264067 
L 167.672727 136.260251 
L 168.068686 136.2775 
L 169.37535 136.235073 
L 169.8505 136.280645 
L 170.889892 136.309226 
L 171.473932 136.293971 
L 171.741204 136.291857 
L 172.038173 136.259274 
L 172.434132 136.250234 
L 172.83009 136.258465 
L 173.285443 136.253974 
L 174.493117 136.213542 
L 174.938571 136.188079 
L 175.859175 136.136657 
L 178.611089 136.058097 
L 178.947654 136.085328 
L 179.996945 136.143844 
L 181.016539 136.127408 
L 181.184821 136.122357 
L 181.620376 135.962231 
L 183.966432 136.095687 
L 184.154512 136.060034 
L 184.768248 136.034167 
L 185.490873 136.096522 
L 190.103793 135.839294 
L 190.361167 135.886808 
L 191.083791 135.927222 
L 192.529041 135.955177 
L 192.875505 135.966984 
L 193.320959 136.011068 
L 194.112876 135.920799 
L 194.865198 136.032875 
L 195.271056 135.980031 
L 196.09267 136.007954 
L 196.369842 136.017318 
L 196.805396 135.990314 
L 198.013071 136.027895 
L 198.765392 136.14846 
L 198.864382 136.923648 
L 199.131654 138.886407 
L 199.636502 140.212987 
L 202.576496 145.420335 
L 203.437706 146.600083 
L 205.4175 148.686388 
L 205.744166 149.055913 
L 206.466791 149.671157 
L 206.684568 149.823754 
L 207.130022 150.176106 
L 207.377496 150.343478 
L 210.505571 152.259452 
L 210.70355 152.315539 
L 211.149004 152.546118 
L 211.515266 152.699537 
L 213.356474 153.419282 
L 214.197887 153.594237 
L 218.909797 154.632089 
L 219.177069 154.662145 
L 219.602725 154.78235 
L 219.860098 154.745085 
L 220.117471 154.761316 
L 220.424339 154.75464 
L 220.820298 154.747288 
L 221.097469 154.731896 
L 222.087366 154.743081 
L 223.453424 154.916396 
L 223.730595 154.93357 
L 224.83928 155.028756 
L 225.928167 155.084252 
L 226.126146 155.101861 
L 226.462711 155.113415 
L 228.501899 155.309545 
L 229.026544 155.308346 
L 229.392806 155.333382 
L 229.669977 155.327287 
L 230.075835 155.348179 
L 233.342495 155.416681 
L 233.758252 155.37727 
L 234.06512 155.36079 
L 236.035015 155.343403 
L 236.381479 155.324107 
L 236.708145 155.364912 
L 240.063896 155.317279 
L 241.618034 155.492736 
L 241.895205 155.463484 
L 243.429546 155.583578 
L 243.884898 155.617809 
L 244.221463 155.68147 
L 244.597624 155.703862 
L 245.50833 155.731688 
L 245.933985 155.717664 
L 246.240853 155.736974 
L 246.745701 155.688119 
L 246.923882 155.73008 
L 247.418831 155.802483 
L 248.319637 155.700087 
L 248.359233 155.584342 
L 248.359233 155.584342 
" clip-path="url(#p1c47bdc0c1)" style="fill: none; stroke: #000000; stroke-opacity: 0.5; stroke-width: 1.5; stroke-linecap: square"/>
   </g>
   <g id="line2d_17">
    <path d="M 45.450142 155.328922 
L 50.112557 155.036495 
L 50.261042 154.991886 
L 50.340233 154.2655 
L 50.736192 149.319631 
L 51.458817 146.487483 
L 52.5873 142.951205 
L 53.765277 139.924335 
L 54.161236 138.999042 
L 59.417589 128.82703 
L 59.59577 128.549568 
L 60.169911 127.568371 
L 62.664451 122.661591 
L 63.901822 118.945653 
L 64.129499 117.424347 
L 64.198792 113.425397 
L 64.287882 86.158391 
L 64.466064 19.344251 
L 64.515559 22.947411 
L 65.307476 107.959862 
L 65.624243 114.231229 
L 65.921212 116.149312 
L 66.178586 116.649059 
L 66.633938 116.440711 
L 66.871514 116.198646 
L 67.465452 115.834689 
L 67.613936 115.877474 
L 67.920804 115.875652 
L 68.138582 115.733597 
L 68.326662 115.679202 
L 69.237367 115.54994 
L 69.346256 115.619993 
L 69.534337 115.666775 
L 70.068881 115.514936 
L 70.55393 115.190827 
L 70.959788 115.151803 
L 71.385444 114.906067 
L 71.61312 114.774252 
L 72.7713 114.155275 
L 73.563217 112.96266 
L 73.810692 112.679317 
L 74.59271 111.342398 
L 75.216345 109.03982 
L 75.295537 106.779945 
L 75.374729 95.936801 
L 75.612304 28.599059 
L 75.711294 34.397401 
L 76.295333 77.832233 
L 76.681393 87.057194 
L 77.28523 101.982938 
L 77.790078 112.131845 
L 78.166239 115.995966 
L 78.601793 118.531484 
L 79.106641 120.046647 
L 80.007447 121.605983 
L 82.026837 123.810895 
L 82.561381 124.330696 
L 83.115724 124.784181 
L 83.382996 124.959091 
L 83.91754 125.37481 
L 84.254105 125.527003 
L 84.59067 125.733617 
L 85.560769 126.216235 
L 86.174505 126.361761 
L 86.907029 126.610499 
L 87.075312 126.671934 
L 87.332685 126.736399 
L 87.817734 126.730993 
L 88.669046 126.790829 
L 89.371873 126.793725 
L 89.619347 126.836157 
L 90.143992 126.818992 
L 90.500355 126.80846 
L 91.133889 126.722464 
L 94.360954 126.399288 
L 94.737115 126.316855 
L 95.64782 126.200861 
L 96.578323 126.166012 
L 97.122766 126.087639 
L 97.776098 125.997504 
L 103.636289 124.302844 
L 103.883763 124.251584 
L 104.081742 124.182142 
L 104.606388 124.070659 
L 104.87366 123.916099 
L 105.071639 123.801327 
L 106.269415 123.359512 
L 107.27911 122.93123 
L 107.437493 122.83617 
L 107.605776 122.842558 
L 107.774058 122.765468 
L 108.061128 122.595729 
L 109.328197 121.904518 
L 109.654863 121.692005 
L 109.852842 121.601794 
L 110.912032 121.115977 
L 111.842535 120.709375 
L 112.268191 120.530867 
L 113.357078 120.096403 
L 113.693643 119.80978 
L 113.980713 119.636824 
L 114.267783 119.587972 
L 114.881519 119.273585 
L 115.366568 119.112605 
L 115.54475 119.056316 
L 115.742729 118.908106 
L 116.089193 118.59184 
L 116.376263 118.381639 
L 117.999695 116.578506 
L 118.207573 116.247706 
L 118.752016 115.696878 
L 119.029187 115.266626 
L 119.860701 112.41388 
L 119.929994 110.023734 
L 120.009185 95.905873 
L 120.217064 22.802174 
L 120.306155 29.736438 
L 120.890194 93.993659 
L 121.236658 103.724898 
L 121.731606 112.383982 
L 122.147363 115.608075 
L 122.672008 117.555089 
L 123.256048 118.761754 
L 125.295236 122.026893 
L 125.473417 122.199017 
L 126.6019 123.537413 
L 128.512401 124.991072 
L 128.80937 125.207057 
L 129.076642 125.254437 
L 129.353813 125.243887 
L 129.611187 125.265587 
L 129.888358 125.350161 
L 130.551589 125.548899 
L 130.82876 125.633584 
L 131.125729 125.746339 
L 131.452395 125.75999 
L 131.739465 125.836262 
L 131.97704 125.90337 
L 132.254212 125.950248 
L 132.551181 125.913733 
L 132.838251 125.865562 
L 133.580674 126.001821 
L 133.976632 126.023499 
L 134.313197 126.006494 
L 134.818045 126.07704 
L 135.906932 125.984697 
L 136.075214 126.052373 
L 136.233598 126.056962 
L 136.847334 126.054208 
L 137.282888 126.05439 
L 139.025107 125.855266 
L 139.430965 125.791245 
L 139.76753 125.704761 
L 140.272377 125.625179 
L 140.470357 125.56593 
L 141.103891 125.506672 
L 142.400656 125.450731 
L 142.964897 125.347953 
L 143.242069 125.317946 
L 144.152774 125.07787 
L 144.38045 125.060799 
L 144.934792 124.897914 
L 145.805902 124.657071 
L 146.49883 124.473732 
L 147.478828 124.264815 
L 147.736201 124.224598 
L 148.003473 124.148623 
L 148.60731 124.031899 
L 148.815189 123.968076 
L 149.854581 123.68836 
L 150.359428 123.554924 
L 151.39882 123.243522 
L 151.695789 123.142839 
L 152.022455 122.97984 
L 152.715383 122.860351 
L 153.03215 122.800439 
L 153.99235 122.567654 
L 154.220026 122.563672 
L 155.061439 122.20772 
L 155.279216 122.213606 
L 155.516792 122.160706 
L 156.189922 122.051098 
L 158.486483 120.990903 
L 159.030926 120.712269 
L 159.327895 120.633485 
L 159.525874 120.569043 
L 160.684054 120.169932 
L 160.812741 120.069822 
L 161.030518 119.993192 
L 161.277992 119.981334 
L 165.257378 118.194568 
L 165.445459 118.123056 
L 165.653337 118.081276 
L 165.920609 117.919297 
L 166.227477 117.850015 
L 166.534345 117.648807 
L 166.732325 117.589595 
L 167.722222 117.005131 
L 167.999393 116.799406 
L 168.236968 116.644328 
L 168.60323 116.314582 
L 169.266461 115.660234 
L 170.196964 114.190735 
L 171.038377 111.021378 
L 171.10767 108.549641 
L 171.186861 94.30764 
L 171.39474 23.487568 
L 171.48383 30.096462 
L 172.077769 92.298828 
L 172.434132 101.013826 
L 173.077565 112.449197 
L 173.463625 115.181401 
L 174.027866 117.059321 
L 175.968064 120.818479 
L 176.5818 121.742714 
L 177.245031 122.496391 
L 180.066238 124.855591 
L 182.174718 125.96452 
L 182.382597 126.033863 
L 183.095323 126.288038 
L 183.936735 126.511266 
L 184.114916 126.560436 
L 184.570269 126.731171 
L 184.807844 126.758463 
L 186.718346 127.184013 
L 187.015315 127.211208 
L 187.381577 127.220643 
L 187.82703 127.340528 
L 188.034909 127.326682 
L 188.470463 127.224219 
L 188.727837 127.162189 
L 188.975311 127.096174 
L 189.529653 126.974805 
L 189.935511 126.956957 
L 190.33147 126.993871 
L 194.469239 126.518866 
L 194.617724 126.546466 
L 194.805804 126.514566 
L 195.003784 126.471229 
L 195.320551 126.420806 
L 195.963984 126.294298 
L 197.458728 126.096501 
L 198.11206 126.095 
L 198.39913 126.05387 
L 198.676302 125.980805 
L 198.755493 126.065633 
L 198.834685 126.857403 
L 199.181149 131.289279 
L 199.804784 133.959164 
L 200.90357 137.712842 
L 201.67569 139.854882 
L 203.932655 144.969673 
L 204.615684 146.153131 
L 205.813459 147.889082 
L 207.773455 150.185434 
L 210.832237 152.686917 
L 211.624155 153.019497 
L 211.86173 153.152797 
L 213.188192 153.565416 
L 213.435666 153.646045 
L 213.772231 153.793174 
L 214.55425 154.095681 
L 214.861118 154.145722 
L 215.761924 154.454447 
L 215.979701 154.509695 
L 216.603337 154.608861 
L 217.009194 154.725672 
L 217.712021 154.833968 
L 218.018889 154.868839 
L 218.177273 154.886678 
L 218.78111 155.107805 
L 219.028584 155.164913 
L 219.64232 155.286335 
L 220.166966 155.346295 
L 221.483529 155.526443 
L 221.671609 155.512028 
L 224.304735 155.672341 
L 225.017461 155.671102 
L 226.769579 155.716825 
L 227.017053 155.727317 
L 231.313206 155.850272 
L 231.47159 155.802421 
L 231.788357 155.831943 
L 233.273202 155.83129 
L 233.530576 155.836807 
L 233.748353 155.842618 
L 236.153803 155.799751 
L 236.411176 155.829638 
L 236.836832 155.85383 
L 237.519861 155.743757 
L 240.053997 155.794465 
L 240.321269 155.730853 
L 241.202278 155.756964 
L 241.46955 155.780241 
L 241.974397 155.719343 
L 242.320861 155.734149 
L 243.706717 155.770859 
L 244.152171 155.818137 
L 244.389746 155.796246 
L 244.914391 155.835679 
L 245.369744 155.839793 
L 246.230954 155.890908 
L 246.617014 155.919227 
L 247.834588 155.850258 
L 248.151355 155.865646 
L 248.339435 155.890637 
L 248.359233 155.906238 
L 248.359233 155.906238 
" clip-path="url(#p1c47bdc0c1)" style="fill: none; stroke: #000000; stroke-opacity: 0.5; stroke-width: 1.5; stroke-linecap: square"/>
   </g>
   <g id="line2d_18">
    <path d="M 45.450142 155.932798 
L 46.251959 155.998395 
L 46.826099 155.966616 
L 48.033773 155.966843 
L 49.073165 155.944223 
L 49.538417 155.952006 
L 49.98387 155.939221 
L 50.241244 155.853994 
L 50.300637 155.286442 
L 50.409526 150.975393 
L 50.637202 144.845479 
L 51.171747 139.632538 
L 52.082452 132.860284 
L 53.399015 124.628341 
L 53.983054 120.807098 
L 54.379013 117.615486 
L 54.468104 115.58583 
L 54.537397 106.297964 
L 54.675982 38.581053 
L 54.774972 16.802332 
L 54.824467 20.207074 
L 55.616384 101.780154 
L 55.893556 107.441886 
L 56.131131 108.834486 
L 56.299413 109.034572 
L 56.319211 109.024677 
L 56.487494 108.774592 
L 56.784463 107.947131 
L 57.635774 105.119253 
L 58.031733 103.800267 
L 58.308904 102.702933 
L 58.506884 101.351193 
L 58.63557 98.771211 
L 58.744459 89.900276 
L 59.071125 46.999078 
L 59.150317 48.292475 
L 59.962032 66.620418 
L 60.645061 76.923373 
L 60.991525 84.470094 
L 61.922028 105.903698 
L 62.347684 109.857319 
L 62.704047 111.466298 
L 63.357379 112.904223 
L 63.792934 113.379912 
L 64.545256 113.529246 
L 64.822427 113.551635 
L 65.109497 113.525106 
L 65.495557 113.335488 
L 65.703435 113.183089 
L 65.911313 113.077758 
L 66.52505 112.53076 
L 67.029897 112.086286 
L 67.267472 111.783791 
L 67.643633 111.36169 
L 70.07878 107.613542 
L 70.949889 105.129307 
L 71.187465 103.708243 
L 71.276555 101.804074 
L 71.365646 92.614514 
L 71.632918 31.102371 
L 71.751706 36.167535 
L 72.256553 57.725996 
L 73.711702 106.792854 
L 74.087863 112.06135 
L 74.414529 114.250151 
L 74.859982 115.907725 
L 75.255941 116.738109 
L 75.523213 117.077545 
L 76.621999 117.462334 
L 77.968259 117.094919 
L 78.572096 116.801003 
L 79.393711 116.112244 
L 81.333909 114.086722 
L 83.501783 111.731373 
L 83.91754 111.264775 
L 84.87774 109.624397 
L 85.2638 108.654494 
L 85.620163 107.944805 
L 86.085415 106.316551 
L 86.293293 104.695123 
L 86.372485 100.765783 
L 86.471475 77.856932 
L 86.659555 27.517797 
L 86.70905 28.90149 
L 87.718745 79.815026 
L 88.352279 102.448072 
L 88.72844 109.590472 
L 89.074904 112.842124 
L 89.569852 115.222415 
L 90.094498 116.447278 
L 90.480557 117.046159 
L 90.985405 117.41875 
L 91.262576 117.578032 
L 91.935706 117.884415 
L 92.707826 117.782223 
L 92.866209 117.735878 
L 93.272067 117.471445 
L 93.62843 117.331133 
L 94.291661 117.017914 
L 95.459739 116.562872 
L 96.103172 116.262789 
L 96.429839 115.999809 
L 96.805999 115.733028 
L 97.350443 115.318195 
L 98.370037 114.211349 
L 99.142156 113.346527 
L 99.310439 113.149768 
L 99.518317 112.949113 
L 99.77569 112.793398 
L 100.240942 112.224708 
L 101.141748 111.013482 
L 101.409021 110.544117 
L 101.676293 110.287189 
L 101.824777 109.966279 
L 102.517705 108.464067 
L 103.190835 107.04241 
L 103.42841 106.036246 
L 103.745177 104.148513 
L 103.824369 101.309038 
L 103.91346 85.937587 
L 104.131237 27.098902 
L 104.20053 30.128081 
L 104.794468 63.278142 
L 105.814062 102.775951 
L 106.200122 109.897432 
L 106.596081 113.454071 
L 106.962343 115.115139 
L 107.417695 116.255761 
L 107.882947 116.982943 
L 108.655067 117.781094 
L 109.664762 118.017635 
L 109.892438 117.981718 
L 111.486172 117.722514 
L 111.941525 117.642397 
L 112.090009 117.532107 
L 112.367181 117.42639 
L 112.683948 117.315028 
L 113.04031 116.999312 
L 113.376875 116.766359 
L 115.346771 115.25853 
L 115.950608 114.639006 
L 116.376263 114.394637 
L 116.594041 114.146899 
L 116.950404 113.724714 
L 117.742321 112.911904 
L 118.742117 111.612323 
L 119.138076 111.170291 
L 119.831004 110.285393 
L 120.286357 109.628095 
L 121.385142 107.84149 
L 121.771202 106.566783 
L 122.246353 104.359255 
L 122.345342 101.990649 
L 122.424534 92.638733 
L 122.672008 27.338152 
L 122.790796 33.667923 
L 123.335239 63.374621 
L 124.166753 96.188344 
L 124.612207 106.682897 
L 125.027963 111.516484 
L 125.423922 113.812747 
L 125.849578 115.276358 
L 126.324728 116.170561 
L 127.334423 117.33026 
L 127.740281 117.43983 
L 127.938261 117.562942 
L 128.146139 117.609558 
L 128.482704 117.633279 
L 129.987347 117.364193 
L 132.244313 116.07387 
L 132.610575 115.86653 
L 133.056028 115.554771 
L 134.09542 114.749834 
L 134.253804 114.611669 
L 135.362488 113.654853 
L 135.560468 113.516564 
L 136.075214 112.993224 
L 136.342486 112.767307 
L 138.777633 110.301737 
L 139.084501 109.95134 
L 139.252784 109.846785 
L 139.737833 109.15863 
L 140.015004 108.745318 
L 141.40086 106.148601 
L 141.658233 105.027476 
L 141.975 102.46415 
L 142.054192 98.296566 
L 142.153182 75.592111 
L 142.341262 27.825692 
L 142.380858 28.728299 
L 143.925097 97.041585 
L 144.38045 107.201621 
L 144.786308 111.698557 
L 145.182267 113.877383 
L 145.716811 115.529009 
L 146.68691 117.058464 
L 147.280848 117.519696 
L 148.052968 117.897701 
L 149.260642 117.908171 
L 149.725894 117.769745 
L 149.943671 117.704807 
L 150.191146 117.597953 
L 150.428721 117.570367 
L 153.774573 115.47037 
L 154.447703 114.787734 
L 154.724874 114.557188 
L 155.506893 113.801535 
L 155.744468 113.621574 
L 156.150326 113.302525 
L 157.496586 112.030088 
L 157.852949 111.689373 
L 158.13012 111.322468 
L 158.585472 110.741889 
L 159.446683 109.555013 
L 160.05052 108.663585 
L 160.288095 108.304036 
L 160.802842 107.4897 
L 161.01072 107.041499 
L 161.545264 105.89747 
L 161.792739 105.209966 
L 162.159001 103.281222 
L 162.25799 100.653381 
L 162.347081 88.235036 
L 162.584656 28.127728 
L 162.663848 31.720889 
L 163.228089 61.123715 
L 164.198188 96.590965 
L 164.683238 107.396796 
L 165.128692 112.111 
L 165.593943 114.574524 
L 166.098791 116.10951 
L 166.465053 116.833013 
L 167.197576 117.740917 
L 167.623232 118.000304 
L 169.236764 118.354446 
L 170.513731 118.040388 
L 171.028478 117.758071 
L 171.345245 117.578479 
L 171.563022 117.487221 
L 171.830294 117.362448 
L 174.809884 115.568026 
L 175.631499 114.819151 
L 175.987862 114.508596 
L 177.393516 113.338402 
L 178.066646 112.554918 
L 179.026846 111.675953 
L 179.284219 111.455046 
L 179.501996 111.346593 
L 180.095935 110.648039 
L 180.660176 110.033224 
L 180.818559 109.842374 
L 182.164819 108.054149 
L 182.372698 107.726202 
L 183.02603 106.312315 
L 183.352696 105.517216 
L 183.669463 104.204453 
L 183.996129 101.504461 
L 184.075321 97.742028 
L 184.17431 76.733996 
L 184.37229 28.071632 
L 184.411886 29.140487 
L 185.797741 91.784073 
L 186.312488 105.083297 
L 186.738144 110.68126 
L 187.144001 113.417517 
L 187.559758 115.03148 
L 187.965616 116.019796 
L 188.529857 116.905723 
L 189.509855 117.831931 
L 190.430459 118.044537 
L 190.826418 118.05279 
L 191.67773 117.930533 
L 193.271464 117.387739 
L 193.588231 117.269209 
L 194.063381 117.016737 
L 194.390047 116.863924 
L 194.607825 116.7414 
L 194.825602 116.646092 
L 195.389843 116.210967 
L 195.716509 116.088314 
L 195.944186 115.937943 
L 196.597518 115.403924 
L 198.715897 114.270702 
L 198.725796 114.294624 
L 198.78519 114.844958 
L 198.894079 119.126385 
L 199.121755 125.190292 
L 199.587007 129.111622 
L 200.497712 134.678625 
L 202.091446 141.153907 
L 203.259525 144.444259 
L 204.793865 147.568394 
L 206.110428 149.53488 
L 208.426787 152.017279 
L 210.267996 153.338084 
L 211.1886 153.744328 
L 211.356882 153.815771 
L 212.138901 154.186567 
L 212.326981 154.252636 
L 212.554658 154.273141 
L 212.812031 154.345423 
L 213.257485 154.554418 
L 213.59405 154.685231 
L 214.801724 154.9829 
L 215.821318 155.270397 
L 216.831013 155.431358 
L 217.761516 155.406686 
L 218.018889 155.511579 
L 218.246566 155.564725 
L 218.642524 155.546348 
L 219.444341 155.457065 
L 219.721512 155.443854 
L 220.275855 155.448381 
L 220.978681 155.425854 
L 221.275651 155.351559 
L 221.701306 155.334768 
L 222.077467 155.362367 
L 222.552618 155.463479 
L 222.988172 155.531089 
L 224.670997 155.720361 
L 225.007562 155.76436 
L 225.443117 155.729147 
L 226.284529 155.782995 
L 226.66069 155.786287 
L 227.066548 155.807516 
L 227.403113 155.771534 
L 227.799072 155.805708 
L 228.026748 155.776785 
L 228.254425 155.819812 
L 228.482101 155.790342 
L 229.125534 155.785394 
L 229.541291 155.737441 
L 230.02634 155.757826 
L 230.4124 155.708549 
L 230.649975 155.807907 
L 230.907349 155.841627 
L 231.333004 155.838002 
L 231.907145 155.832467 
L 232.204114 155.749599 
L 232.738658 155.809915 
L 234.282897 155.933198 
L 234.73825 155.856975 
L 235.055017 155.822868 
L 235.302491 155.813082 
L 235.866733 155.83643 
L 236.104308 155.867654 
L 236.549762 155.951673 
L 237.23279 155.758052 
L 237.767335 155.712658 
L 238.975009 155.696413 
L 239.628341 155.672661 
L 240.459855 155.713644 
L 240.79642 155.685783 
L 241.241873 155.771068 
L 241.618034 155.778033 
L 242.103084 155.76826 
L 242.499043 155.810017 
L 243.053385 155.798698 
L 243.320657 155.741159 
L 244.825301 155.654914 
L 245.161866 155.606553 
L 247.280245 155.627213 
L 247.438629 155.63524 
L 247.725699 155.644893 
L 248.28994 155.618564 
L 248.359233 155.585212 
L 248.359233 155.585212 
" clip-path="url(#p1c47bdc0c1)" style="fill: none; stroke: #000000; stroke-opacity: 0.5; stroke-width: 1.5; stroke-linecap: square"/>
   </g>
   <g id="line2d_19">
    <path d="M 45.450142 157.427283 
L 47.192361 157.395348 
L 47.806097 157.472539 
L 48.578217 157.573199 
L 48.875186 157.578734 
L 49.172155 157.611508 
L 50.18185 157.590088 
L 50.241244 157.410207 
L 50.310536 155.793492 
L 50.459021 142.86409 
L 50.676798 134.143531 
L 51.201444 124.289791 
L 51.696392 114.374889 
L 51.775584 100.683139 
L 52.00326 14.76 
L 52.10225 23.243387 
L 52.725885 92.174652 
L 53.003056 100.238198 
L 53.220834 101.666675 
L 53.319823 101.756063 
L 53.359419 101.707849 
L 53.507904 101.180203 
L 54.082044 97.767733 
L 54.339417 94.912891 
L 54.517599 90.656171 
L 55.032345 74.670663 
L 55.319415 72.112951 
L 55.408506 72.012106 
L 55.448102 72.053204 
L 55.556991 72.473797 
L 55.814364 74.707957 
L 57.111129 86.745935 
L 57.556583 88.773881 
L 58.130723 90.28568 
L 58.427692 90.566533 
L 58.576177 90.728927 
L 58.823651 90.958274 
L 59.269104 91.16205 
L 59.872942 90.48038 
L 60.08082 90.262075 
L 60.249102 90.137485 
L 60.605465 89.631896 
L 60.773748 89.363291 
L 61.080616 89.06704 
L 61.278595 88.982409 
L 61.555767 88.547171 
L 61.931927 88.088193 
L 62.10021 87.995747 
L 62.87233 87.386 
L 63.020814 87.280688 
L 63.337581 86.968957 
L 63.624651 86.63144 
L 63.852328 86.35523 
L 63.882025 86.376806 
L 64.050307 86.384959 
L 64.763033 85.974869 
L 64.871922 86.025698 
L 64.901618 85.991298 
L 65.129295 85.829232 
L 65.297577 85.753262 
L 65.980606 85.044308 
L 66.475555 84.954231 
L 67.059594 84.909924 
L 67.38626 84.998072 
L 67.623835 85.051505 
L 67.77232 85.085876 
L 67.782219 85.075386 
L 68.207875 84.733351 
L 68.386056 84.679335 
L 68.782015 84.243774 
L 69.049287 84.240453 
L 69.20767 84.22426 
L 69.316559 84.147954 
L 69.474943 84.106291 
L 70.286658 84.307842 
L 70.425244 84.340299 
L 70.702415 84.492125 
L 70.841001 84.550605 
L 71.088475 84.609952 
L 71.276555 84.636528 
L 71.593322 84.855508 
L 72.365442 85.013148 
L 72.67231 85.327203 
L 72.979178 85.31562 
L 73.394935 85.220791 
L 73.474127 85.209586 
L 73.503824 85.246163 
L 73.790894 85.486463 
L 74.374933 85.182362 
L 74.563013 85.043428 
L 74.59271 85.078029 
L 74.820387 85.323487 
L 74.859982 85.297286 
L 75.513315 84.695506 
L 75.958768 83.681447 
L 76.641797 81.958129 
L 77.047655 81.041723 
L 77.681189 79.80862 
L 78.106845 79.728378 
L 78.285026 79.715581 
L 78.463208 79.75155 
L 78.473107 79.737974 
L 78.720581 79.566685 
L 78.928459 79.402408 
L 79.413509 78.68051 
L 79.621387 78.310469 
L 80.987445 73.929048 
L 81.403202 74.058289 
L 81.601181 74.459876 
L 81.888251 75.542266 
L 82.214917 77.462125 
L 82.650472 81.107333 
L 83.472087 88.019962 
L 84.066025 92.133797 
L 84.610468 94.82392 
L 85.382588 97.318533 
L 86.03592 98.139219 
L 86.451677 98.342155 
L 86.718949 98.43543 
L 87.09511 98.449143 
L 87.698947 98.113375 
L 88.322582 97.683906 
L 88.570056 97.421366 
L 88.876924 97.179689 
L 89.649044 96.42955 
L 89.946013 96.397618 
L 90.431063 96.061662 
L 91.094294 95.286599 
L 91.579343 94.763348 
L 91.826817 94.599501 
L 92.697927 93.426122 
L 92.876108 93.200242 
L 93.163178 92.995328 
L 93.301764 92.896761 
L 94.123378 91.816273 
L 94.252065 91.708099 
L 94.944993 91.074121 
L 95.291457 91.08414 
L 95.519133 90.838185 
L 95.717113 90.752049 
L 96.736707 90.143777 
L 97.043575 90.25997 
L 97.201958 90.212118 
L 97.558321 90.101821 
L 97.795896 90.134412 
L 98.003775 90.083071 
L 98.469026 90.374353 
L 98.62741 90.258543 
L 99.033268 90.058672 
L 99.30054 90.200067 
L 99.617307 90.330001 
L 100.092457 90.503949 
L 100.914072 90.92093 
L 101.290233 91.113442 
L 101.438717 91.070758 
L 101.79508 90.891145 
L 102.290029 91.018403 
L 103.458107 91.278506 
L 103.62639 91.287448 
L 103.863965 91.387745 
L 104.29952 91.354036 
L 104.497499 91.320598 
L 104.764771 91.430283 
L 105.091437 91.336561 
L 105.249821 91.314773 
L 105.665578 91.315272 
L 106.140728 91.34567 
L 106.447596 91.299158 
L 106.675273 91.409122 
L 106.932646 91.354985 
L 107.932442 90.823339 
L 108.209613 90.716773 
L 108.645168 90.781716 
L 108.882743 90.701313 
L 110.763547 90.138046 
L 111.050617 89.973601 
L 111.882131 89.731906 
L 112.119706 89.731612 
L 112.782937 89.699226 
L 113.327381 89.283436 
L 113.762935 89.531952 
L 114.079702 89.558584 
L 114.178692 89.599388 
L 114.218288 89.559441 
L 114.396469 89.515476 
L 114.77263 89.710682 
L 114.940913 89.757107 
L 115.970406 90.048507 
L 116.227779 89.956559 
L 116.871212 90.12915 
L 117.247373 90.123316 
L 117.475049 90.223016 
L 117.712624 90.212122 
L 117.999695 90.362386 
L 118.504542 90.431995 
L 118.692622 90.537514 
L 119.444944 90.751991 
L 119.751812 90.67736 
L 120.048781 90.725645 
L 120.25666 90.652105 
L 120.652619 90.721701 
L 120.900093 90.667419 
L 121.583122 90.254641 
L 121.800899 90.318364 
L 122.770998 90.115942 
L 122.988776 90.192679 
L 123.483724 90.197353 
L 123.671804 90.353611 
L 123.7114 90.321046 
L 124.067763 90.170479 
L 124.750792 90.209773 
L 125.136852 90.151476 
L 125.315034 90.171577 
L 125.522912 90.28885 
L 125.849578 90.467925 
L 126.057456 90.380835 
L 126.473213 90.233829 
L 126.611799 90.245436 
L 126.621698 90.234936 
L 126.819677 90.174485 
L 126.958263 90.08589 
L 127.136444 90.013158 
L 127.769978 89.928602 
L 127.908564 89.944494 
L 128.13624 89.975378 
L 128.512401 89.946069 
L 128.690582 90.048151 
L 128.71038 90.029038 
L 128.858865 89.959271 
L 128.878663 89.979543 
L 129.106339 90.083551 
L 129.512197 89.85388 
L 130.086337 89.997838 
L 130.363508 89.988244 
L 130.759467 89.963873 
L 130.987143 89.946406 
L 131.105931 89.881725 
L 131.264315 89.843396 
L 131.482092 89.839503 
L 131.769162 89.671555 
L 132.066131 89.720471 
L 132.214616 89.789835 
L 132.353201 89.781225 
L 132.570979 89.738443 
L 132.907544 89.946279 
L 133.303502 89.979171 
L 133.550977 90.010541 
L 133.986531 90.067866 
L 134.115218 90.030579 
L 134.135016 90.052773 
L 134.352793 90.1544 
L 134.629964 90.10964 
L 135.164509 90.179896 
L 135.332791 90.286278 
L 135.520872 90.450938 
L 135.530771 90.444613 
L 135.847538 90.335993 
L 136.005921 90.294816 
L 136.184103 90.227289 
L 136.441476 90.213135 
L 136.718647 90.113988 
L 136.906728 90.227761 
L 137.144303 90.33721 
L 137.550161 90.516678 
L 137.906524 90.596238 
L 138.252988 90.537301 
L 138.866724 90.577589 
L 139.252784 90.52869 
L 139.787328 90.747226 
L 140.53965 90.499146 
L 140.767326 90.436221 
L 141.153386 90.510297 
L 141.470153 90.578739 
L 141.697829 90.457767 
L 142.212576 90.359088 
L 142.539242 90.357086 
L 142.677827 90.274939 
L 142.84611 90.234525 
L 143.222271 90.266941 
L 144.885298 90.364327 
L 145.241661 90.481295 
L 145.805902 90.349073 
L 145.904892 90.307443 
L 145.944487 90.347498 
L 146.162265 90.438084 
L 146.389941 90.176511 
L 146.558224 90.146594 
L 146.726506 90.105428 
L 147.092768 89.968228 
L 147.231354 89.876045 
L 147.498626 89.706712 
L 147.854989 89.717352 
L 148.468725 89.721206 
L 148.726098 89.666028 
L 149.339834 89.638005 
L 150.003065 89.015023 
L 150.201045 89.021357 
L 150.448519 89.099645 
L 150.82468 89.056209 
L 151.151346 89.025073 
L 151.804678 88.752434 
L 152.032354 88.705008 
L 152.17094 88.659388 
L 152.190738 88.681143 
L 152.438212 88.811352 
L 152.873767 89.006791 
L 153.022251 89.294065 
L 153.22023 89.484492 
L 153.41821 89.499233 
L 153.863664 89.873348 
L 154.041845 89.998012 
L 155.605882 91.197626 
L 155.774165 91.299906 
L 155.952346 91.222501 
L 156.249315 91.086433 
L 156.674971 91.066745 
L 157.516384 90.88757 
L 157.704464 90.820204 
L 158.189514 90.486813 
L 158.496382 90.473427 
L 158.931936 90.5559 
L 159.060623 90.492312 
L 159.2784 90.310098 
L 159.308097 90.34113 
L 159.515976 90.421607 
L 160.040621 90.40403 
L 160.426681 90.489179 
L 161.644254 90.370302 
L 161.812537 90.384049 
L 161.990718 90.279576 
L 162.020415 90.312016 
L 162.317384 90.513606 
L 162.812333 90.454034 
L 162.980615 90.422706 
L 163.158797 90.432233 
L 163.346877 90.435863 
L 163.544856 90.471063 
L 163.80223 90.366846 
L 163.980411 90.35282 
L 164.326875 90.332286 
L 164.594147 90.512615 
L 164.752531 90.438228 
L 164.990106 90.309289 
L 165.098995 90.240883 
L 165.306873 90.131732 
L 165.950306 89.923496 
L 166.098791 89.860902 
L 166.663032 89.461799 
L 167.276768 89.568695 
L 167.385657 89.500876 
L 167.425253 89.54259 
L 167.841009 89.980164 
L 169.08828 90.032518 
L 169.345653 90.095018 
L 169.494137 90.158957 
L 169.702016 90.317263 
L 169.721814 90.300581 
L 169.959389 90.214335 
L 170.365247 90.215922 
L 170.573125 90.232377 
L 170.870094 90.258652 
L 172.028274 89.972613 
L 172.236152 90.020047 
L 172.909282 89.840902 
L 173.047868 89.776996 
L 173.334938 89.644444 
L 173.483422 89.716102 
L 173.622008 89.696615 
L 173.839785 89.376841 
L 174.136754 89.085221 
L 175.205843 88.730235 
L 175.314732 88.797948 
L 175.572105 88.937408 
L 175.849276 88.939704 
L 175.997761 89.039531 
L 176.146245 89.01243 
L 176.68079 88.866188 
L 177.007456 88.931139 
L 177.25493 88.983857 
L 178.195332 89.09044 
L 178.670483 89.098335 
L 179.432704 89.357363 
L 179.541592 89.390224 
L 179.571289 89.359631 
L 179.84846 89.186424 
L 180.115732 89.246846 
L 180.71957 89.395458 
L 181.075933 89.44757 
L 181.857951 89.537071 
L 182.016335 89.560643 
L 182.550879 89.808364 
L 182.748859 89.84163 
L 183.075525 90.072276 
L 183.184413 90.015911 
L 183.441786 89.818428 
L 183.659564 89.80879 
L 183.897139 89.71572 
L 184.570269 89.851603 
L 185.372086 90.121322 
L 185.669055 90.00455 
L 186.896527 90.424529 
L 187.292486 90.276174 
L 187.975515 90.109911 
L 188.173494 90.12166 
L 188.430867 90.182082 
L 188.925816 90.025148 
L 189.103997 90.002042 
L 189.598946 90.067274 
L 189.727633 90.026323 
L 189.925612 89.926808 
L 190.371066 90.043689 
L 190.588843 90.026847 
L 190.836317 90.131842 
L 190.974903 90.200661 
L 191.123387 90.207053 
L 191.351064 90.162327 
L 191.499548 90.119431 
L 191.638134 90.149884 
L 191.806416 90.146269 
L 191.915305 90.215378 
L 192.162779 90.433544 
L 192.529041 90.409422 
L 192.717122 90.546553 
L 193.162575 90.664529 
L 193.380353 90.704195 
L 193.835705 90.596108 
L 194.419744 90.503104 
L 194.677118 90.307154 
L 194.983986 90.25984 
L 195.201763 90.235509 
L 195.686813 90.231724 
L 195.795701 90.148547 
L 196.043176 90.006106 
L 196.439134 89.759346 
L 196.716305 89.587311 
L 196.943982 89.523549 
L 197.102365 89.515526 
L 197.240951 89.421565 
L 197.528021 89.326871 
L 197.933879 89.168236 
L 198.418928 88.882248 
L 198.656504 88.745782 
L 198.666403 88.756804 
L 198.725796 88.968171 
L 198.795089 90.593233 
L 198.953473 104.085141 
L 199.17125 111.989483 
L 199.606805 119.081981 
L 200.260137 126.520941 
L 201.071852 132.867245 
L 201.86377 137.38374 
L 202.655688 140.72845 
L 203.655484 143.991021 
L 205.03144 147.356499 
L 206.199519 149.401491 
L 207.476486 151.174841 
L 208.080323 151.873406 
L 208.555474 152.399269 
L 209.416684 153.139568 
L 209.84234 153.462518 
L 212.485365 155.055116 
L 212.643749 155.119679 
L 213.356474 155.377186 
L 213.752433 155.486516 
L 214.059301 155.608751 
L 214.247382 155.691109 
L 215.039299 155.918956 
L 215.455056 156.013157 
L 215.742126 156.133588 
L 217.731819 156.601103 
L 218.00899 156.650575 
L 218.523737 156.727083 
L 218.771211 156.763326 
L 219.771007 156.85754 
L 220.394642 156.863435 
L 221.018277 157.019697 
L 221.612216 157.070377 
L 222.027972 157.103494 
L 224.225544 157.321071 
L 224.6413 157.328036 
L 226.155843 157.382497 
L 226.532004 157.362138 
L 226.94776 157.320013 
L 227.512002 157.380396 
L 228.868161 157.47628 
L 229.343311 157.493253 
L 229.976845 157.473925 
L 233.263303 157.630858 
L 233.540475 157.672263 
L 233.797848 157.668367 
L 234.174009 157.666333 
L 235.243097 157.627269 
L 235.688551 157.55165 
L 237.391174 157.585606 
L 238.816626 157.639902 
L 239.073999 157.619735 
L 239.677836 157.632821 
L 240.271774 157.63247 
L 241.222075 157.68073 
L 241.578438 157.698037 
L 241.934801 157.663046 
L 242.182276 157.67189 
L 242.518841 157.658266 
L 248.260243 157.621778 
L 248.359233 157.521936 
L 248.359233 157.521936 
" clip-path="url(#p1c47bdc0c1)" style="fill: none; stroke: #000000; stroke-opacity: 0.5; stroke-width: 1.5; stroke-linecap: square"/>
   </g>
   <g id="patch_3">
    <path d="M 35.304688 173.52 
L 35.304688 7.2 
" style="fill: none; stroke: #000000; stroke-width: 0.8; stroke-linejoin: miter; stroke-linecap: square"/>
   </g>
   <g id="patch_4">
    <path d="M 35.304688 173.52 
L 258.504687 173.52 
" style="fill: none; stroke: #000000; stroke-width: 0.8; stroke-linejoin: miter; stroke-linecap: square"/>
   </g>
  </g>
 </g>
 <defs>
  <clipPath id="p1c47bdc0c1">
   <rect x="35.304688" y="7.2" width="223.2" height="166.32"/>
  </clipPath>
 </defs>
</svg>
