<?xml version="1.0" encoding="utf-8" standalone="no"?>
<!DOCTYPE svg PUBLIC "-//W3C//DTD SVG 1.1//EN"
  "http://www.w3.org/Graphics/SVG/1.1/DTD/svg11.dtd">
<svg xmlns:xlink="http://www.w3.org/1999/xlink" width="265.704687pt" height="197.398125pt" viewBox="0 0 265.704687 197.398125" xmlns="http://www.w3.org/2000/svg" version="1.1">
 <metadata>
  <rdf:RDF xmlns:dc="http://purl.org/dc/elements/1.1/" xmlns:cc="http://creativecommons.org/ns#" xmlns:rdf="http://www.w3.org/1999/02/22-rdf-syntax-ns#">
   <cc:Work>
    <dc:type rdf:resource="http://purl.org/dc/dcmitype/StillImage"/>
    <dc:date>2024-09-04T19:51:06.448931</dc:date>
    <dc:format>image/svg+xml</dc:format>
    <dc:creator>
     <cc:Agent>
      <dc:title>Matplotlib v3.9.2, https://matplotlib.org/</dc:title>
     </cc:Agent>
    </dc:creator>
   </cc:Work>
  </rdf:RDF>
 </metadata>
 <defs>
  <style type="text/css">*{stroke-linejoin: round; stroke-linecap: butt}</style>
 </defs>
 <g id="figure_1">
  <g id="patch_1">
   <path d="M 0 197.398125 
L 265.704687 197.398125 
L 265.704687 0 
L 0 0 
z
" style="fill: #ffffff"/>
  </g>
  <g id="axes_1">
   <g id="patch_2">
    <path d="M 35.304688 173.52 
L 258.504687 173.52 
L 258.504687 7.2 
L 35.304688 7.2 
z
" style="fill: #ffffff"/>
   </g>
   <g id="matplotlib.axis_1">
    <g id="xtick_1">
     <g id="line2d_1">
      <defs>
       <path id="m047d095d73" d="M 0 0 
L 0 3.5 
" style="stroke: #000000; stroke-width: 0.8"/>
      </defs>
      <g>
       <use xlink:href="#m047d095d73" x="75.147053" y="173.52" style="stroke: #000000; stroke-width: 0.8"/>
      </g>
     </g>
     <g id="text_1">
      <!-- 0.2 -->
      <g transform="translate(67.19549 188.118438) scale(0.1 -0.1)">
       <defs>
        <path id="DejaVuSans-30" d="M 2034 4250 
Q 1547 4250 1301 3770 
Q 1056 3291 1056 2328 
Q 1056 1369 1301 889 
Q 1547 409 2034 409 
Q 2525 409 2770 889 
Q 3016 1369 3016 2328 
Q 3016 3291 2770 3770 
Q 2525 4250 2034 4250 
z
M 2034 4750 
Q 2819 4750 3233 4129 
Q 3647 3509 3647 2328 
Q 3647 1150 3233 529 
Q 2819 -91 2034 -91 
Q 1250 -91 836 529 
Q 422 1150 422 2328 
Q 422 3509 836 4129 
Q 1250 4750 2034 4750 
z
" transform="scale(0.015625)"/>
        <path id="DejaVuSans-2e" d="M 684 794 
L 1344 794 
L 1344 0 
L 684 0 
L 684 794 
z
" transform="scale(0.015625)"/>
        <path id="DejaVuSans-32" d="M 1228 531 
L 3431 531 
L 3431 0 
L 469 0 
L 469 531 
Q 828 903 1448 1529 
Q 2069 2156 2228 2338 
Q 2531 2678 2651 2914 
Q 2772 3150 2772 3378 
Q 2772 3750 2511 3984 
Q 2250 4219 1831 4219 
Q 1534 4219 1204 4116 
Q 875 4013 500 3803 
L 500 4441 
Q 881 4594 1212 4672 
Q 1544 4750 1819 4750 
Q 2544 4750 2975 4387 
Q 3406 4025 3406 3419 
Q 3406 3131 3298 2873 
Q 3191 2616 2906 2266 
Q 2828 2175 2409 1742 
Q 1991 1309 1228 531 
z
" transform="scale(0.015625)"/>
       </defs>
       <use xlink:href="#DejaVuSans-30"/>
       <use xlink:href="#DejaVuSans-2e" x="63.623047"/>
       <use xlink:href="#DejaVuSans-32" x="95.410156"/>
      </g>
     </g>
    </g>
    <g id="xtick_2">
     <g id="line2d_2">
      <g>
       <use xlink:href="#m047d095d73" x="124.641904" y="173.52" style="stroke: #000000; stroke-width: 0.8"/>
      </g>
     </g>
     <g id="text_2">
      <!-- 0.4 -->
      <g transform="translate(116.690341 188.118438) scale(0.1 -0.1)">
       <defs>
        <path id="DejaVuSans-34" d="M 2419 4116 
L 825 1625 
L 2419 1625 
L 2419 4116 
z
M 2253 4666 
L 3047 4666 
L 3047 1625 
L 3713 1625 
L 3713 1100 
L 3047 1100 
L 3047 0 
L 2419 0 
L 2419 1100 
L 313 1100 
L 313 1709 
L 2253 4666 
z
" transform="scale(0.015625)"/>
       </defs>
       <use xlink:href="#DejaVuSans-30"/>
       <use xlink:href="#DejaVuSans-2e" x="63.623047"/>
       <use xlink:href="#DejaVuSans-34" x="95.410156"/>
      </g>
     </g>
    </g>
    <g id="xtick_3">
     <g id="line2d_3">
      <g>
       <use xlink:href="#m047d095d73" x="174.136754" y="173.52" style="stroke: #000000; stroke-width: 0.8"/>
      </g>
     </g>
     <g id="text_3">
      <!-- 0.6 -->
      <g transform="translate(166.185192 188.118438) scale(0.1 -0.1)">
       <defs>
        <path id="DejaVuSans-36" d="M 2113 2584 
Q 1688 2584 1439 2293 
Q 1191 2003 1191 1497 
Q 1191 994 1439 701 
Q 1688 409 2113 409 
Q 2538 409 2786 701 
Q 3034 994 3034 1497 
Q 3034 2003 2786 2293 
Q 2538 2584 2113 2584 
z
M 3366 4563 
L 3366 3988 
Q 3128 4100 2886 4159 
Q 2644 4219 2406 4219 
Q 1781 4219 1451 3797 
Q 1122 3375 1075 2522 
Q 1259 2794 1537 2939 
Q 1816 3084 2150 3084 
Q 2853 3084 3261 2657 
Q 3669 2231 3669 1497 
Q 3669 778 3244 343 
Q 2819 -91 2113 -91 
Q 1303 -91 875 529 
Q 447 1150 447 2328 
Q 447 3434 972 4092 
Q 1497 4750 2381 4750 
Q 2619 4750 2861 4703 
Q 3103 4656 3366 4563 
z
" transform="scale(0.015625)"/>
       </defs>
       <use xlink:href="#DejaVuSans-30"/>
       <use xlink:href="#DejaVuSans-2e" x="63.623047"/>
       <use xlink:href="#DejaVuSans-36" x="95.410156"/>
      </g>
     </g>
    </g>
    <g id="xtick_4">
     <g id="line2d_4">
      <g>
       <use xlink:href="#m047d095d73" x="223.631605" y="173.52" style="stroke: #000000; stroke-width: 0.8"/>
      </g>
     </g>
     <g id="text_4">
      <!-- 0.8 -->
      <g transform="translate(215.680043 188.118438) scale(0.1 -0.1)">
       <defs>
        <path id="DejaVuSans-38" d="M 2034 2216 
Q 1584 2216 1326 1975 
Q 1069 1734 1069 1313 
Q 1069 891 1326 650 
Q 1584 409 2034 409 
Q 2484 409 2743 651 
Q 3003 894 3003 1313 
Q 3003 1734 2745 1975 
Q 2488 2216 2034 2216 
z
M 1403 2484 
Q 997 2584 770 2862 
Q 544 3141 544 3541 
Q 544 4100 942 4425 
Q 1341 4750 2034 4750 
Q 2731 4750 3128 4425 
Q 3525 4100 3525 3541 
Q 3525 3141 3298 2862 
Q 3072 2584 2669 2484 
Q 3125 2378 3379 2068 
Q 3634 1759 3634 1313 
Q 3634 634 3220 271 
Q 2806 -91 2034 -91 
Q 1263 -91 848 271 
Q 434 634 434 1313 
Q 434 1759 690 2068 
Q 947 2378 1403 2484 
z
M 1172 3481 
Q 1172 3119 1398 2916 
Q 1625 2713 2034 2713 
Q 2441 2713 2670 2916 
Q 2900 3119 2900 3481 
Q 2900 3844 2670 4047 
Q 2441 4250 2034 4250 
Q 1625 4250 1398 4047 
Q 1172 3844 1172 3481 
z
" transform="scale(0.015625)"/>
       </defs>
       <use xlink:href="#DejaVuSans-30"/>
       <use xlink:href="#DejaVuSans-2e" x="63.623047"/>
       <use xlink:href="#DejaVuSans-38" x="95.410156"/>
      </g>
     </g>
    </g>
   </g>
   <g id="matplotlib.axis_2">
    <g id="ytick_1">
     <g id="line2d_5">
      <defs>
       <path id="m895277f53b" d="M 0 0 
L -3.5 0 
" style="stroke: #000000; stroke-width: 0.8"/>
      </defs>
      <g>
       <use xlink:href="#m895277f53b" x="35.304688" y="152.21769" style="stroke: #000000; stroke-width: 0.8"/>
      </g>
     </g>
     <g id="text_5">
      <!-- −60 -->
      <g transform="translate(7.2 156.016909) scale(0.1 -0.1)">
       <defs>
        <path id="DejaVuSans-2212" d="M 678 2272 
L 4684 2272 
L 4684 1741 
L 678 1741 
L 678 2272 
z
" transform="scale(0.015625)"/>
       </defs>
       <use xlink:href="#DejaVuSans-2212"/>
       <use xlink:href="#DejaVuSans-36" x="83.789062"/>
       <use xlink:href="#DejaVuSans-30" x="147.412109"/>
      </g>
     </g>
    </g>
    <g id="ytick_2">
     <g id="line2d_6">
      <g>
       <use xlink:href="#m895277f53b" x="35.304688" y="124.744574" style="stroke: #000000; stroke-width: 0.8"/>
      </g>
     </g>
     <g id="text_6">
      <!-- −40 -->
      <g transform="translate(7.2 128.543792) scale(0.1 -0.1)">
       <use xlink:href="#DejaVuSans-2212"/>
       <use xlink:href="#DejaVuSans-34" x="83.789062"/>
       <use xlink:href="#DejaVuSans-30" x="147.412109"/>
      </g>
     </g>
    </g>
    <g id="ytick_3">
     <g id="line2d_7">
      <g>
       <use xlink:href="#m895277f53b" x="35.304688" y="97.271458" style="stroke: #000000; stroke-width: 0.8"/>
      </g>
     </g>
     <g id="text_7">
      <!-- −20 -->
      <g transform="translate(7.2 101.070676) scale(0.1 -0.1)">
       <use xlink:href="#DejaVuSans-2212"/>
       <use xlink:href="#DejaVuSans-32" x="83.789062"/>
       <use xlink:href="#DejaVuSans-30" x="147.412109"/>
      </g>
     </g>
    </g>
    <g id="ytick_4">
     <g id="line2d_8">
      <g>
       <use xlink:href="#m895277f53b" x="35.304688" y="69.798342" style="stroke: #000000; stroke-width: 0.8"/>
      </g>
     </g>
     <g id="text_8">
      <!-- 0 -->
      <g transform="translate(21.942187 73.59756) scale(0.1 -0.1)">
       <use xlink:href="#DejaVuSans-30"/>
      </g>
     </g>
    </g>
    <g id="ytick_5">
     <g id="line2d_9">
      <g>
       <use xlink:href="#m895277f53b" x="35.304688" y="42.325226" style="stroke: #000000; stroke-width: 0.8"/>
      </g>
     </g>
     <g id="text_9">
      <!-- 20 -->
      <g transform="translate(15.579687 46.124444) scale(0.1 -0.1)">
       <use xlink:href="#DejaVuSans-32"/>
       <use xlink:href="#DejaVuSans-30" x="63.623047"/>
      </g>
     </g>
    </g>
    <g id="ytick_6">
     <g id="line2d_10">
      <g>
       <use xlink:href="#m895277f53b" x="35.304688" y="14.85211" style="stroke: #000000; stroke-width: 0.8"/>
      </g>
     </g>
     <g id="text_10">
      <!-- 40 -->
      <g transform="translate(15.579687 18.651328) scale(0.1 -0.1)">
       <use xlink:href="#DejaVuSans-34"/>
       <use xlink:href="#DejaVuSans-30" x="63.623047"/>
      </g>
     </g>
    </g>
   </g>
   <g id="line2d_11">
    <path d="M 45.450142 146.347984 
L 46.449938 146.303494 
L 47.113169 146.160983 
L 47.736804 146.263364 
L 48.004076 146.285875 
L 48.518823 146.3596 
L 49.013771 146.34412 
L 49.627507 146.390114 
L 50.251143 146.439429 
L 50.320435 146.81911 
L 50.46892 149.858275 
L 50.746091 153.196237 
L 51.231141 156.316675 
L 52.072553 159.812638 
L 52.666491 161.394579 
L 53.399015 162.702246 
L 54.002852 163.463613 
L 55.586688 164.676661 
L 56.022242 164.847496 
L 56.893352 165.25351 
L 57.299209 165.43809 
L 57.645673 165.491924 
L 58.397995 165.672717 
L 59.12062 165.769607 
L 59.674962 165.738146 
L 60.061022 165.825887 
L 60.526274 165.85045 
L 60.813344 165.866303 
L 61.42708 165.823461 
L 61.912129 165.711076 
L 62.159604 165.64318 
L 62.713946 165.61397 
L 64.030509 165.858873 
L 64.347276 165.801836 
L 64.802629 165.844053 
L 67.564441 165.830441 
L 67.881208 165.889832 
L 68.257369 165.825692 
L 68.504844 165.861513 
L 69.20767 165.801784 
L 69.366054 165.933636 
L 69.514539 165.915787 
L 71.553726 165.917701 
L 71.910089 165.914088 
L 72.157564 165.918141 
L 72.405038 165.916647 
L 72.682209 165.917967 
L 73.286046 165.901192 
L 73.523621 165.884633 
L 74.058166 165.457914 
L 74.810488 165.557977 
L 75.473719 165.549616 
L 75.701395 165.569614 
L 76.285434 165.615577 
L 76.592302 165.437558 
L 77.631694 165.486714 
L 78.047451 165.622475 
L 78.374117 165.565285 
L 79.324418 165.450054 
L 79.660983 165.505628 
L 80.829061 165.568959 
L 81.413101 165.630387 
L 82.779159 165.661182 
L 83.046431 165.659801 
L 83.254309 165.683913 
L 83.650268 165.6467 
L 86.649656 165.618074 
L 86.956524 165.540947 
L 87.372281 165.5533 
L 87.57026 165.535799 
L 87.887027 165.501585 
L 88.124603 165.48435 
L 88.292885 165.534151 
L 88.560157 165.538491 
L 88.807631 165.554252 
L 89.163994 165.589152 
L 89.411469 165.638175 
L 89.797528 165.552645 
L 90.094498 165.368086 
L 91.836716 165.232816 
L 92.351463 165.384635 
L 92.579139 165.390377 
L 93.311663 165.325848 
L 93.52944 165.285688 
L 93.806611 165.3879 
L 94.073884 165.429391 
L 96.855494 165.456461 
L 97.251453 165.471455 
L 97.677109 165.543905 
L 98.657107 165.460135 
L 98.845187 165.442071 
L 100.656699 165.588016 
L 101.003163 165.517797 
L 101.349627 165.479673 
L 102.577099 165.389455 
L 102.804775 165.410917 
L 104.061945 165.394143 
L 104.269823 165.357452 
L 105.002347 165.349531 
L 105.952648 165.394081 
L 106.289213 165.37785 
L 107.516685 165.243787 
L 108.407592 165.289976 
L 108.62537 165.320301 
L 109.407388 165.266938 
L 109.625166 165.331344 
L 110.436881 165.361106 
L 110.803143 165.359704 
L 111.694051 165.292207 
L 111.941525 165.335038 
L 112.198898 165.304069 
L 112.367181 165.330351 
L 112.614655 165.340667 
L 112.95122 165.335202 
L 113.258088 165.319441 
L 113.574855 165.358138 
L 113.921319 165.381534 
L 115.317074 165.423516 
L 117.574039 165.120512 
L 117.831412 165.161348 
L 118.801511 165.109521 
L 119.088581 165.087199 
L 120.226963 165.145178 
L 120.44474 165.067641 
L 121.69201 165.127533 
L 122.008777 165.129683 
L 126.21584 165.243849 
L 126.423718 165.189278 
L 126.710788 165.230646 
L 126.928566 165.225212 
L 127.205737 165.187917 
L 128.492603 165.197466 
L 128.819269 165.225529 
L 129.066743 165.191765 
L 129.531995 165.143366 
L 131.432597 165.25044 
L 131.838455 165.089512 
L 134.332995 164.920028 
L 134.936833 165.016755 
L 135.263499 165.037132 
L 136.728546 165.018464 
L 137.055212 165.028514 
L 137.263091 165.011433 
L 138.351977 164.918595 
L 139.925914 165.044992 
L 140.430761 165.073423 
L 140.866316 165.058205 
L 142.07399 165.005118 
L 142.281868 165.014442 
L 142.895605 165.013766 
L 143.212372 165.118517 
L 143.449947 165.116941 
L 145.301054 164.990565 
L 145.687114 165.022005 
L 146.261254 165.027808 
L 146.696809 165.018546 
L 147.181859 165.028565 
L 147.93418 164.962256 
L 148.983471 165.097014 
L 149.646702 165.027624 
L 149.923873 165.110964 
L 150.15155 165.103769 
L 150.616801 165.110022 
L 150.903871 165.138617 
L 152.121445 165.195429 
L 152.606494 165.164623 
L 152.804474 165.118271 
L 152.962857 165.105089 
L 153.259826 165.130583 
L 153.616189 165.145618 
L 153.923057 165.124729 
L 155.002045 165.050989 
L 155.308913 165.114024 
L 155.982043 165.082102 
L 156.269113 165.099644 
L 157.595575 165.110943 
L 159.535773 165.10079 
L 159.921833 165.258433 
L 160.139611 165.191622 
L 160.812741 165.230564 
L 162.465869 165.189155 
L 163.584452 165.155586 
L 163.782432 165.153232 
L 164.0893 165.13523 
L 167.791515 164.970628 
L 168.088484 164.969451 
L 169.989086 165.05059 
L 170.701812 165.059955 
L 171.464033 165.01392 
L 171.761002 165.049147 
L 173.542816 165.006684 
L 173.740796 165.041584 
L 173.928876 165.038391 
L 174.206047 164.948296 
L 174.512915 164.99997 
L 174.6614 165.086022 
L 174.839581 165.108876 
L 176.255134 165.085725 
L 176.5818 165.093872 
L 176.948062 165.070077 
L 177.185637 165.062206 
L 177.383617 165.085121 
L 177.631091 165.093524 
L 177.82907 165.105028 
L 178.145837 165.094169 
L 178.977351 165.095397 
L 179.135734 165.044685 
L 179.363411 165.028995 
L 179.719774 165.069156 
L 179.996945 165.049649 
L 180.412702 165.030305 
L 181.145225 165.063895 
L 181.48179 165.101282 
L 183.105221 165.045749 
L 183.293302 165.029005 
L 183.78825 164.993185 
L 184.451481 165.020214 
L 184.817743 165.028862 
L 185.550267 165.021135 
L 185.738348 165.033304 
L 185.975923 164.816373 
L 186.29269 164.020832 
L 186.490669 163.982115 
L 186.807436 163.983108 
L 186.906426 163.617807 
L 187.124203 162.995117 
L 187.25289 163.079378 
L 187.846828 163.756945 
L 188.747634 164.293664 
L 189.925612 164.611396 
L 190.143389 164.663766 
L 190.380965 164.660726 
L 190.955105 164.734323 
L 192.53894 164.889151 
L 192.855707 164.866266 
L 193.479342 164.925238 
L 194.023786 164.987249 
L 194.320755 164.943813 
L 194.548431 164.624967 
L 194.756309 164.500556 
L 195.082975 164.547665 
L 195.993681 164.679844 
L 196.508427 164.804695 
L 197.072668 164.82718 
L 198.280343 164.862633 
L 198.78519 164.432148 
L 198.894079 162.588387 
L 199.17125 158.494594 
L 199.626603 155.48408 
L 200.151248 153.155975 
L 200.834277 151.15696 
L 201.794477 149.177003 
L 202.72498 148.068813 
L 203.091242 147.721883 
L 203.417908 147.463189 
L 203.645585 147.28408 
L 204.17023 146.952445 
L 204.694875 146.70435 
L 205.51649 146.378042 
L 205.872853 146.297957 
L 206.565781 146.044796 
L 208.406989 145.668231 
L 209.693855 145.646903 
L 214.524553 145.432545 
L 214.682936 145.461131 
L 214.900714 145.407768 
L 215.167986 145.460138 
L 217.058689 145.636883 
L 217.395254 145.657255 
L 218.236667 145.641274 
L 219.018685 145.626521 
L 219.45424 145.618456 
L 220.02838 145.688322 
L 220.31545 145.720796 
L 220.523329 145.700936 
L 220.820298 145.691807 
L 221.146964 145.719107 
L 221.424135 145.680139 
L 221.641912 145.678021 
L 221.849791 145.649487 
L 222.33484 145.653867 
L 223.077263 145.634109 
L 223.552414 145.601072 
L 223.869181 145.604516 
L 224.16615 145.610672 
L 225.116451 145.658161 
L 225.403521 145.613564 
L 225.641096 145.574933 
L 227.957455 145.416646 
L 228.284121 145.354502 
L 229.541291 145.327268 
L 229.877856 145.374296 
L 230.343107 145.375887 
L 230.79846 145.375575 
L 231.422095 145.381583 
L 231.768559 145.506833 
L 232.14472 145.509601 
L 233.174213 145.573122 
L 233.520677 145.512533 
L 234.124514 145.532204 
L 235.718248 145.58069 
L 236.767539 145.65028 
L 236.955619 145.618072 
L 237.311982 145.554055 
L 237.638648 145.569611 
L 238.20289 145.60859 
L 238.480061 145.572436 
L 240.440057 145.638909 
L 240.647935 145.658857 
L 240.9845 145.700803 
L 241.528944 145.729869 
L 241.9447 145.775597 
L 242.241669 145.729715 
L 242.568335 145.726369 
L 242.805911 145.756622 
L 244.459039 145.829425 
L 244.676816 145.830377 
L 244.894593 145.858041 
L 245.092573 145.859791 
L 245.458835 145.829021 
L 246.18146 145.87198 
L 246.478429 145.979284 
L 247.032771 145.906128 
L 247.725699 145.898856 
L 248.359233 145.9756 
L 248.359233 145.9756 
" clip-path="url(#pc3f80b2867)" style="fill: none; stroke: #000000; stroke-opacity: 0.5; stroke-width: 1.5; stroke-linecap: square"/>
   </g>
   <g id="line2d_12">
    <path d="M 45.450142 146.632621 
L 45.905495 146.678784 
L 46.162868 146.721641 
L 46.638018 146.803159 
L 47.360643 146.877308 
L 47.58832 146.838786 
L 49.449326 146.897005 
L 50.033365 146.794368 
L 50.261042 146.80452 
L 50.350132 146.970202 
L 50.785687 148.228257 
L 51.439019 148.974937 
L 52.527906 149.734683 
L 53.695984 150.232496 
L 53.923661 150.340086 
L 54.557195 150.49279 
L 54.89376 150.361113 
L 55.101638 150.138686 
L 56.546888 150.599526 
L 56.972543 150.64378 
L 57.813956 150.865379 
L 59.427488 150.832505 
L 59.833346 150.305401 
L 60.189709 150.233427 
L 60.704455 150.259939 
L 60.961828 150.198998 
L 61.278595 150.206131 
L 62.614956 150.498312 
L 64.089903 150.592408 
L 64.357175 150.598626 
L 64.990709 150.727699 
L 65.257981 150.78949 
L 66.13899 150.86676 
L 66.317171 150.841317 
L 66.624039 150.780637 
L 67.455553 150.873878 
L 67.683229 150.860573 
L 67.901006 150.911342 
L 69.148277 151.067516 
L 70.058982 151.059671 
L 70.346052 151.059584 
L 70.93999 151.0411 
L 71.256757 150.995736 
L 71.61312 151.136962 
L 71.860595 151.133042 
L 72.454533 151.078984 
L 74.612508 150.791071 
L 74.840185 150.640142 
L 75.26584 150.648857 
L 75.929071 150.795226 
L 79.344216 151.107487 
L 79.740175 151.045911 
L 80.571688 151.157876 
L 80.769668 151.16415 
L 80.997344 151.202627 
L 81.492292 151.231586 
L 81.759565 151.198999 
L 82.729664 151.119497 
L 83.274107 151.193892 
L 83.63047 151.153122 
L 84.580771 151.094663 
L 85.115316 151.182859 
L 86.590262 151.232159 
L 86.976322 151.263205 
L 87.203998 151.247214 
L 87.491068 151.225081 
L 87.867229 151.204239 
L 88.381976 151.334207 
L 89.055106 151.044345 
L 89.520357 150.884973 
L 93.192875 150.864304 
L 95.637921 150.955529 
L 96.03388 150.942045 
L 96.330849 151.044007 
L 97.320746 150.841885 
L 97.884987 150.958446 
L 98.102764 150.887045 
L 99.330237 150.946462 
L 99.538115 150.959598 
L 99.736095 150.991151 
L 99.914276 150.931724 
L 100.191447 150.86826 
L 100.636901 150.883008 
L 100.914072 150.89055 
L 101.458515 150.9451 
L 102.893866 150.868121 
L 103.210633 150.869104 
L 105.93285 150.798153 
L 106.101132 150.781102 
L 106.883151 150.678179 
L 107.783957 150.69527 
L 108.674865 150.648744 
L 108.942137 150.685701 
L 109.347995 150.69829 
L 109.635065 150.639989 
L 110.06072 150.660007 
L 110.2587 150.603963 
L 110.367589 150.171738 
L 110.555669 149.68788 
L 110.565568 149.690556 
L 110.753648 149.890253 
L 110.93183 149.936103 
L 111.169405 150.022902 
L 111.397081 150.091249 
L 112.327585 150.227967 
L 112.614655 149.289793 
L 112.713644 149.36408 
L 113.248189 149.783486 
L 114.257884 150.229451 
L 114.634045 150.302663 
L 115.237882 150.399242 
L 115.584346 150.51505 
L 115.93081 150.531779 
L 116.732626 150.439857 
L 117.247373 150.592342 
L 117.544342 150.58985 
L 117.732422 150.65032 
L 119.929994 150.81939 
L 120.167569 150.809841 
L 120.424942 150.830632 
L 120.603124 150.861413 
L 120.781305 150.835279 
L 122.820493 150.749355 
L 123.028371 150.73976 
L 123.42433 150.736981 
L 124.988368 150.585638 
L 125.305135 150.600202 
L 126.275234 150.627999 
L 127.126545 150.381879 
L 127.611595 150.380456 
L 128.403512 150.43407 
L 129.09644 150.396095 
L 129.591389 150.412147 
L 130.244721 150.459764 
L 130.482296 150.502099 
L 132.3631 150.433573 
L 132.74916 150.477751 
L 133.095624 150.503941 
L 134.550773 150.510614 
L 134.926934 150.534076 
L 135.481276 150.613783 
L 136.005921 150.659373 
L 136.411779 150.701027 
L 136.778041 150.673399 
L 137.46107 150.612207 
L 137.758039 150.618368 
L 138.540058 150.60558 
L 138.817229 150.598308 
L 139.331975 150.509621 
L 139.698237 150.484889 
L 140.262479 150.385891 
L 140.638639 150.394007 
L 141.588941 150.309608 
L 141.876011 150.337947 
L 142.74712 150.417393 
L 142.9352 150.431071 
L 143.638027 150.479818 
L 143.944895 150.451775 
L 147.270949 150.523648 
L 147.548121 150.606716 
L 147.904483 150.584349 
L 148.389533 150.512845 
L 148.825088 150.476016 
L 149.47842 150.519093 
L 149.834783 150.506801 
L 150.082257 150.505696 
L 150.775185 150.509237 
L 151.151346 150.570435 
L 151.695789 150.547791 
L 152.378818 150.520552 
L 152.834171 150.563255 
L 154.229925 150.608737 
L 154.596187 150.624391 
L 155.546488 150.71205 
L 155.744468 150.711927 
L 156.803658 150.776128 
L 157.061031 150.796556 
L 157.318404 150.820347 
L 157.902443 150.792509 
L 158.862643 150.604142 
L 159.595167 150.702808 
L 161.515567 150.89164 
L 161.713547 150.937297 
L 162.06991 151.001585 
L 162.436172 151.036659 
L 162.713343 151.03455 
L 163.594351 151.000014 
L 163.911118 151.014342 
L 164.237784 151.032836 
L 164.425865 151.017162 
L 164.732733 150.991315 
L 165.485055 150.888299 
L 165.791923 150.925634 
L 166.306669 150.859821 
L 166.573941 150.976249 
L 166.920405 150.885761 
L 167.732121 150.901281 
L 168.365655 150.907458 
L 168.662624 150.880889 
L 168.860603 150.862518 
L 169.108078 150.86302 
L 170.741408 150.78819 
L 171.097771 150.779838 
L 173.7012 150.798772 
L 174.532713 150.714435 
L 174.740592 150.754707 
L 174.958369 150.808357 
L 175.186045 150.81765 
L 176.957961 150.730605 
L 177.205435 150.712838 
L 177.631091 150.712275 
L 178.21513 150.740169 
L 178.650685 150.701309 
L 181.174922 150.738481 
L 181.749063 150.650883 
L 182.135122 150.649235 
L 185.263197 150.94051 
L 185.698752 151.004297 
L 186.332286 150.998637 
L 187.025214 150.915118 
L 191.341165 150.9979 
L 191.806416 150.964024 
L 192.291466 150.951313 
L 192.756717 150.899547 
L 192.925 150.928505 
L 193.221969 150.993095 
L 193.578332 150.946631 
L 194.241563 150.916341 
L 195.478934 150.761769 
L 195.963984 150.838687 
L 196.498528 150.806904 
L 196.746002 150.809754 
L 197.191456 150.774644 
L 197.795293 150.742707 
L 198.804988 150.637727 
L 199.567209 148.941604 
L 200.468015 148.019672 
L 202.556698 147.126995 
L 202.794273 147.056244 
L 202.942758 146.853928 
L 203.269424 146.395983 
L 203.437706 146.145483 
L 203.863362 145.584452 
L 204.150432 145.360285 
L 204.397906 145.362976 
L 204.774067 145.419328 
L 205.526389 145.636494 
L 207.229012 146.024199 
L 207.585375 146.062097 
L 209.763148 146.378907 
L 210.634258 146.355639 
L 210.941126 146.377684 
L 211.535064 146.284069 
L 212.524961 146.345374 
L 212.980314 146.384639 
L 214.900714 146.458762 
L 215.068996 146.467989 
L 215.326369 146.547879 
L 215.811419 146.518291 
L 216.207378 146.536821 
L 216.672629 146.457457 
L 217.910001 146.576976 
L 219.107776 146.604052 
L 219.365149 146.562975 
L 219.602725 146.548222 
L 220.186764 146.558753 
L 220.424339 146.546723 
L 220.958883 146.581684 
L 221.255853 146.601657 
L 222.651607 146.763567 
L 226.769579 146.712415 
L 227.086346 146.746219 
L 227.5318 146.794639 
L 227.739678 146.781042 
L 227.967354 146.724517 
L 228.39301 146.798405 
L 228.977049 146.772973 
L 229.729371 146.677039 
L 230.828157 146.508205 
L 231.154823 146.448072 
L 231.699266 146.522416 
L 231.996235 146.438334 
L 232.303103 146.39887 
L 233.035627 146.440279 
L 234.787745 146.596207 
L 235.074815 146.621169 
L 235.59946 146.648853 
L 236.015217 146.581321 
L 237.638648 146.591315 
L 237.856426 146.608248 
L 238.29198 146.581669 
L 239.390766 146.654723 
L 239.588745 146.601841 
L 239.885714 146.585374 
L 242.301063 146.638583 
L 243.122678 146.670689 
L 243.825505 146.655966 
L 244.142272 146.617505 
L 244.498635 146.631014 
L 244.765907 146.580149 
L 245.072775 146.552398 
L 245.191562 146.408679 
L 245.399441 146.24179 
L 245.775602 146.279192 
L 246.092369 146.313488 
L 246.706105 146.348367 
L 246.904084 146.354621 
L 247.151559 146.397995 
L 247.636608 146.497229 
L 248.260243 146.535787 
L 248.359233 146.690063 
L 248.359233 146.690063 
" clip-path="url(#pc3f80b2867)" style="fill: none; stroke: #000000; stroke-opacity: 0.5; stroke-width: 1.5; stroke-linecap: square"/>
   </g>
   <g id="line2d_13">
    <path d="M 45.450142 146.653285 
L 46.746907 146.694003 
L 47.132967 146.656324 
L 48.142662 146.696613 
L 48.44953 146.691772 
L 48.795994 146.721994 
L 49.330538 146.733257 
L 50.518415 146.721247 
L 50.884677 146.709866 
L 51.349928 146.712154 
L 51.627099 146.737889 
L 52.29033 146.787373 
L 53.725681 146.776555 
L 54.062246 146.75016 
L 54.398811 146.778126 
L 55.022446 146.776585 
L 56.319211 146.860114 
L 57.645673 146.769523 
L 57.893148 146.844947 
L 58.24951 146.814243 
L 58.595974 146.802141 
L 59.071125 146.749008 
L 59.486882 146.759964 
L 60.882637 146.734777 
L 61.258797 146.764667 
L 61.971523 146.618564 
L 62.268492 146.637759 
L 62.555563 146.625549 
L 65.604445 146.804346 
L 65.891515 146.809883 
L 66.406262 146.853887 
L 67.257573 146.775664 
L 67.683229 146.813568 
L 68.05939 146.774968 
L 68.296965 146.878869 
L 68.455349 146.897276 
L 69.098782 146.766888 
L 69.900598 146.737622 
L 70.17777 146.701981 
L 70.623223 146.703547 
L 71.078576 146.664369 
L 71.52403 146.666528 
L 74.11756 146.746721 
L 74.553114 146.694356 
L 74.909477 146.610438 
L 75.503416 146.544891 
L 75.820183 146.660475 
L 77.681189 146.77768 
L 78.641389 146.719671 
L 79.067045 146.81039 
L 79.364014 146.811859 
L 79.561993 146.789036 
L 79.908457 146.698358 
L 80.274719 146.768572 
L 80.601385 146.742356 
L 85.600365 146.653213 
L 85.907233 146.276705 
L 86.313091 146.208031 
L 86.679353 146.27999 
L 88.827429 146.591049 
L 89.30258 146.653597 
L 89.550054 146.692898 
L 91.727828 146.79753 
L 91.965403 146.817539 
L 92.519745 146.863175 
L 92.787017 146.87456 
L 93.024593 146.89439 
L 93.430451 146.932488 
L 94.232267 146.983272 
L 94.638125 147.038815 
L 94.885599 147.006479 
L 101.597101 146.794235 
L 102.161342 146.849092 
L 102.557301 146.843596 
L 109.842943 146.786907 
L 110.149811 146.613472 
L 110.753648 146.678953 
L 111.298092 146.69825 
L 112.050413 146.739214 
L 112.426574 146.714283 
L 112.792836 146.678155 
L 112.941321 145.973016 
L 113.159098 145.36053 
L 113.376875 145.35202 
L 113.81243 145.592537 
L 114.891418 146.012905 
L 116.11889 146.189967 
L 116.40596 146.098634 
L 118.702521 146.529867 
L 119.266763 146.546042 
L 119.563732 146.582615 
L 119.949792 146.673283 
L 120.622922 146.67578 
L 120.959487 146.761827 
L 121.424738 146.816485 
L 121.870192 146.840894 
L 122.167161 146.934688 
L 122.998674 146.915719 
L 123.265947 146.917924 
L 123.661905 146.913482 
L 124.107359 146.914752 
L 124.681499 146.940522 
L 125.414023 146.953863 
L 125.998062 147.048988 
L 126.245537 147.104167 
L 126.819677 147.128669 
L 127.027555 147.126448 
L 127.235434 147.148754 
L 127.641292 147.102371 
L 131.105931 147.197619 
L 131.551385 147.181187 
L 131.868152 147.191739 
L 133.244109 147.239749 
L 133.649966 147.2051 
L 134.09542 147.21904 
L 134.699257 147.159347 
L 134.907136 147.160252 
L 135.303094 147.114366 
L 136.837435 147.05063 
L 137.134404 146.981327 
L 137.975816 147.043082 
L 138.629148 146.96005 
L 138.846926 146.956682 
L 139.025107 146.944641 
L 139.470561 146.941679 
L 139.985307 146.871797 
L 142.212576 146.814074 
L 142.469949 146.874346 
L 143.370755 146.819135 
L 143.628128 146.928655 
L 143.865704 146.927146 
L 145.182267 146.82043 
L 146.102871 146.864843 
L 146.637415 146.719958 
L 147.221455 146.735596 
L 147.864888 146.783678 
L 148.250947 146.72485 
L 148.567714 146.723775 
L 148.80529 146.721877 
L 149.112158 146.751976 
L 149.300238 146.685114 
L 149.488319 146.7419 
L 149.706096 146.761305 
L 150.646498 146.742509 
L 151.131548 146.785054 
L 151.428517 146.686716 
L 151.68589 146.731251 
L 152.329323 146.742955 
L 152.636191 146.751792 
L 154.536794 146.80972 
L 154.873359 146.865549 
L 155.160429 146.855094 
L 155.4376 146.856435 
L 155.774165 146.809812 
L 156.001841 146.842455 
L 156.180023 146.83199 
L 156.457194 146.774349 
L 156.625476 146.726579 
L 156.813557 146.740074 
L 157.64507 146.821771 
L 158.268705 146.481462 
L 158.565674 146.473484 
L 160.05052 146.551717 
L 160.515772 146.614839 
L 162.970716 146.70019 
L 163.307281 146.760297 
L 163.921017 146.880788 
L 164.267481 146.904988 
L 164.425865 146.797407 
L 164.643642 146.74012 
L 165.366267 146.81103 
L 165.584044 146.838279 
L 166.029498 146.855422 
L 166.672931 146.856952 
L 171.068074 146.900162 
L 171.266053 146.888771 
L 171.711507 146.960398 
L 172.137163 146.906702 
L 172.493525 146.867442 
L 173.473523 146.86362 
L 173.790291 146.905095 
L 173.998169 146.945844 
L 174.37433 146.944549 
L 175.888872 146.992196 
L 176.086852 146.953208 
L 176.314528 146.935144 
L 176.522406 146.923441 
L 177.443011 146.779871 
L 177.601394 146.741245 
L 177.92806 146.752841 
L 178.393312 146.867079 
L 178.78927 146.838683 
L 181.115528 146.902542 
L 181.303609 146.889339 
L 181.491689 146.860217 
L 181.758962 146.931111 
L 184.758349 146.939898 
L 185.292894 146.95722 
L 185.708651 146.879453 
L 187.104405 147.033528 
L 187.609253 147.014385 
L 187.797333 147.049842 
L 188.034909 147.093728 
L 188.579352 147.085346 
L 188.807028 147.088396 
L 189.143593 147.089527 
L 189.796925 147.094664 
L 190.559146 147.040027 
L 191.0046 146.929269 
L 191.657932 146.975744 
L 192.034093 147.045493 
L 193.033889 146.909706 
L 193.479342 146.887712 
L 194.003988 146.787925 
L 194.419744 146.836304 
L 195.261157 146.862218 
L 196.211458 146.838658 
L 196.627215 146.862801 
L 196.755901 146.720879 
L 197.122163 146.072644 
L 197.953677 146.211409 
L 199.002968 146.39451 
L 199.240543 146.438738 
L 200.180945 146.51235 
L 200.51751 146.546406 
L 200.824378 146.543581 
L 201.160943 146.593254 
L 201.448013 146.673083 
L 201.96276 146.67489 
L 202.24983 146.668918 
L 203.526797 146.765599 
L 203.794069 146.734081 
L 204.962148 146.579663 
L 206.96174 146.788033 
L 210.396682 146.963396 
L 210.634258 146.953428 
L 211.426175 146.926624 
L 211.822134 146.948131 
L 212.010214 146.956406 
L 212.218093 146.998153 
L 212.604153 146.98604 
L 213.158495 147.071678 
L 214.0692 147.032024 
L 214.326573 146.963156 
L 215.950005 146.936208 
L 216.18758 146.873885 
L 216.603337 146.828648 
L 216.9597 146.579504 
L 217.306163 146.522585 
L 217.959496 146.640103 
L 218.513838 146.681588 
L 218.860302 146.720178 
L 219.493836 146.838479 
L 220.147168 146.906262 
L 220.463935 146.938736 
L 220.89949 146.931464 
L 221.740902 146.959615 
L 222.324941 146.870748 
L 222.671405 146.934376 
L 223.799888 146.804889 
L 223.958271 146.841877 
L 224.116655 146.827799 
L 224.334432 146.790591 
L 224.542311 146.767118 
L 224.849179 146.761873 
L 225.383723 146.855744 
L 225.611399 146.917453 
L 227.512002 146.923604 
L 228.066344 147.018842 
L 229.204726 147.031394 
L 229.808563 147.052283 
L 230.22432 147.046275 
L 230.996439 147.035094 
L 231.689367 146.962071 
L 231.94674 146.990717 
L 232.510982 146.952937 
L 232.788153 146.953735 
L 233.085122 146.956196 
L 233.886939 146.913047 
L 234.213605 146.985047 
L 234.411584 146.972745 
L 239.143292 146.82023 
L 239.667937 146.675422 
L 241.726923 146.748138 
L 242.192175 146.771668 
L 242.508942 146.764248 
L 243.043486 146.725408 
L 243.320657 146.771212 
L 245.706309 146.560411 
L 245.98348 146.498385 
L 246.854589 146.432889 
L 247.438629 146.507729 
L 248.280041 146.607368 
L 248.359233 146.679229 
L 248.359233 146.679229 
" clip-path="url(#pc3f80b2867)" style="fill: none; stroke: #000000; stroke-opacity: 0.5; stroke-width: 1.5; stroke-linecap: square"/>
   </g>
   <g id="line2d_14">
    <path d="M 45.450142 147.177063 
L 45.865899 147.202823 
L 46.647917 147.234391 
L 46.835998 147.217141 
L 47.558623 147.272848 
L 48.004076 147.278963 
L 49.79579 147.341219 
L 50.033365 147.378775 
L 50.261042 147.266553 
L 50.340233 146.716488 
L 50.904475 140.609793 
L 51.369726 138.549648 
L 52.448714 135.338251 
L 53.300025 133.724352 
L 54.656184 132.256914 
L 56.180626 131.370476 
L 56.725069 131.140854 
L 57.28931 130.99951 
L 57.48729 130.873953 
L 57.87335 130.695017 
L 59.081024 130.068362 
L 59.298801 129.679316 
L 59.318599 129.686614 
L 60.377789 130.041061 
L 61.14001 130.01178 
L 61.417181 129.973477 
L 62.080412 129.992324 
L 63.030713 130.040033 
L 63.387076 129.93563 
L 63.941418 129.981061 
L 64.149297 130.008045 
L 64.525458 130.054694 
L 65.307476 129.996904 
L 65.762829 129.942323 
L 66.218181 130.015434 
L 66.376565 129.961564 
L 66.594342 129.971523 
L 67.87131 129.987898 
L 68.465248 129.910279 
L 68.653328 129.95134 
L 69.356155 130.149179 
L 70.068881 130.086472 
L 70.573728 130.146912 
L 70.781607 130.1739 
L 71.098374 130.218497 
L 71.583423 130.15208 
L 77.453513 130.098825 
L 78.077148 130.113025 
L 78.968055 130.103998 
L 79.175933 130.064017 
L 79.373913 130.011616 
L 79.918356 130.023314 
L 80.294517 129.996428 
L 81.32401 130.019876 
L 81.739767 130.042151 
L 82.046635 130.090755 
L 82.304008 130.188664 
L 82.511886 130.227145 
L 85.511274 129.990523 
L 85.74885 129.963233 
L 88.758137 130.031763 
L 90.302376 130.116131 
L 90.866617 130.156174 
L 91.104193 130.112381 
L 91.559545 129.828019 
L 91.836716 129.455226 
L 92.074292 129.485899 
L 92.598937 129.663995 
L 93.173077 129.710875 
L 93.569036 129.756874 
L 93.776915 129.822052 
L 95.202366 130.034337 
L 98.449228 130.170682 
L 98.667006 130.149685 
L 99.10256 130.18872 
L 99.330237 130.15554 
L 99.805387 130.268641 
L 101.577303 130.291725 
L 101.765383 130.311908 
L 101.99306 130.306872 
L 102.883967 130.363485 
L 103.210633 130.349003 
L 103.755076 130.360107 
L 104.339116 130.341537 
L 104.606388 130.309078 
L 105.16073 130.397985 
L 105.596285 130.361049 
L 107.694867 130.304544 
L 107.942341 130.345252 
L 108.120522 130.362901 
L 108.328401 130.371156 
L 108.684764 130.352513 
L 108.843147 130.406199 
L 109.080722 130.391522 
L 111.753444 130.388785 
L 112.327585 130.507654 
L 112.56516 130.470584 
L 112.891826 130.491657 
L 113.287785 130.596755 
L 114.317278 130.661847 
L 114.861721 130.686553 
L 115.812022 130.526567 
L 116.960303 130.404413 
L 117.296868 130.417605 
L 117.653231 130.46517 
L 118.870804 130.311017 
L 119.227167 130.305056 
L 121.078274 130.433929 
L 122.07807 130.464106 
L 122.295848 130.469172 
L 122.770998 130.474417 
L 123.206553 130.487998 
L 123.572815 130.45819 
L 124.364732 130.347974 
L 125.087357 130.279393 
L 125.681295 130.215504 
L 125.988163 130.340959 
L 126.304931 130.365153 
L 127.027555 130.270003 
L 127.977857 130.173291 
L 128.116442 129.812708 
L 128.314421 129.531033 
L 128.532199 129.580011 
L 130.72977 129.889953 
L 130.997042 129.953321 
L 131.363304 129.9631 
L 131.531587 129.831207 
L 131.828556 129.300014 
L 132.333403 129.569858 
L 132.719463 129.682402 
L 133.442088 129.874335 
L 133.818249 129.942032 
L 134.045925 129.9461 
L 135.115014 130.212065 
L 136.550365 130.366729 
L 136.78794 130.415527 
L 137.223495 130.383063 
L 137.470969 130.444158 
L 137.728342 130.460385 
L 138.975612 130.562511 
L 139.331975 130.543428 
L 139.678439 130.527094 
L 140.183287 130.475297 
L 140.549549 130.362753 
L 141.876011 130.379942 
L 142.07399 130.388851 
L 144.024087 130.254042 
L 144.76651 130.254083 
L 144.994186 130.309544 
L 145.291155 130.255638 
L 145.736609 130.309728 
L 146.330547 130.199395 
L 146.568123 130.212786 
L 147.350141 130.148498 
L 149.072562 129.97619 
L 149.617005 129.989423 
L 153.853765 130.075971 
L 154.121037 130.032613 
L 154.289319 130.102212 
L 154.536794 130.145479 
L 155.556387 130.215181 
L 155.734569 130.216348 
L 155.91275 130.20485 
L 156.160225 130.264215 
L 156.506689 130.343379 
L 156.68487 130.336604 
L 157.011536 130.402396 
L 158.288503 130.39665 
L 159.654561 130.415343 
L 159.971328 130.415415 
L 160.693953 130.408435 
L 161.832335 130.474238 
L 162.149102 130.451896 
L 163.445867 130.326513 
L 163.792331 130.342233 
L 164.455562 130.347754 
L 165.14849 130.389214 
L 165.395964 130.425086 
L 165.752327 130.45012 
L 166.118589 130.436692 
L 166.375962 130.495899 
L 167.573737 130.487333 
L 167.781616 130.502173 
L 168.048888 130.538552 
L 169.593127 130.477697 
L 169.919793 130.45055 
L 170.305853 130.469422 
L 170.889892 130.361013 
L 171.751103 130.433141 
L 172.552919 130.471638 
L 172.770697 130.488448 
L 172.968676 130.454449 
L 173.7012 130.433668 
L 174.008068 130.455028 
L 178.571493 130.486806 
L 178.957553 130.457914 
L 179.630683 130.442536 
L 180.026642 130.4713 
L 180.571085 130.454859 
L 181.214518 130.567807 
L 181.907446 130.455376 
L 182.105425 130.45316 
L 182.699364 130.529294 
L 183.421989 130.477216 
L 183.659564 130.465226 
L 184.006028 130.464561 
L 184.392088 130.488019 
L 184.639562 130.41148 
L 184.896935 130.406224 
L 185.372086 130.342658 
L 185.678954 130.020746 
L 185.995721 130.172585 
L 186.342185 130.24829 
L 189.905814 130.451906 
L 190.143389 130.454245 
L 192.756717 130.603275 
L 193.895099 130.554077 
L 194.37025 130.600696 
L 194.924592 130.500628 
L 195.152268 130.536489 
L 195.637318 130.498616 
L 196.082771 130.497199 
L 196.409437 130.530297 
L 197.686405 130.557419 
L 198.191252 130.537779 
L 198.765392 130.671616 
L 198.844584 131.400279 
L 199.250442 136.243659 
L 199.74539 138.753499 
L 200.755085 142.172765 
L 201.398518 143.567752 
L 202.012255 144.614545 
L 202.418112 145.102292 
L 204.160331 146.686209 
L 204.576088 146.91751 
L 204.803764 147.034178 
L 205.199723 147.215898 
L 205.575884 147.318596 
L 205.763964 147.361878 
L 206.971639 147.704545 
L 207.288406 147.751317 
L 207.585375 147.796492 
L 207.892243 147.848243 
L 211.535064 148.257149 
L 211.851831 148.284025 
L 212.168598 148.324594 
L 212.386375 148.371489 
L 212.792233 148.425184 
L 213.504959 148.433536 
L 213.920716 148.451569 
L 214.534452 148.431253 
L 214.890815 148.42193 
L 215.41546 148.376048 
L 222.443729 148.065348 
L 222.681304 148.041512 
L 223.235647 148.038007 
L 223.532616 148.085019 
L 223.997867 148.016509 
L 224.26514 147.997176 
L 224.918472 148.141816 
L 225.482713 148.142512 
L 226.769579 148.09683 
L 228.096041 148.209246 
L 228.620686 148.283503 
L 228.887959 148.23649 
L 229.92735 148.287607 
L 230.996439 148.213299 
L 231.451792 148.217326 
L 233.728555 148.279967 
L 234.045322 148.220304 
L 234.490776 148.237928 
L 234.956027 148.242524 
L 235.351986 148.215305 
L 237.985112 148.180594 
L 241.519045 148.183921 
L 241.915003 148.27661 
L 246.419035 148.124678 
L 246.805095 148.131699 
L 247.290144 148.125906 
L 247.567315 148.099261 
L 247.943476 148.031789 
L 248.230546 148.140148 
L 248.359233 148.090858 
L 248.359233 148.090858 
" clip-path="url(#pc3f80b2867)" style="fill: none; stroke: #000000; stroke-opacity: 0.5; stroke-width: 1.5; stroke-linecap: square"/>
   </g>
   <g id="line2d_15">
    <path d="M 45.450142 147.673811 
L 46.162868 147.550894 
L 46.519231 147.27927 
L 47.014179 147.25856 
L 47.222058 147.360286 
L 47.509128 147.36024 
L 50.231345 147.649591 
L 50.290738 147.439491 
L 50.379829 145.918983 
L 50.706495 139.877005 
L 51.250939 135.56689 
L 51.765685 132.730134 
L 52.656592 129.154167 
L 53.616792 126.651609 
L 54.735376 124.58934 
L 55.586688 123.530962 
L 56.061838 123.113925 
L 57.477391 122.203369 
L 57.794158 122.058437 
L 58.200016 121.835954 
L 58.932539 121.605268 
L 59.457185 121.365918 
L 59.952133 121.308394 
L 60.120416 121.217793 
L 60.328294 121.191332 
L 60.605465 121.212968 
L 61.110313 121.302975 
L 61.417181 121.411666 
L 61.605261 121.277676 
L 61.724049 120.919687 
L 61.941826 120.484622 
L 62.684249 120.66148 
L 62.971319 120.717534 
L 63.822631 120.841833 
L 63.990913 120.848091 
L 64.258185 120.907569 
L 65.46586 120.925684 
L 65.762829 120.998411 
L 67.307068 121.210593 
L 67.57434 121.230704 
L 67.802017 121.155547 
L 67.999996 121.182274 
L 68.871106 121.297428 
L 69.59373 121.271913 
L 69.950093 121.201009 
L 70.662819 121.051262 
L 74.830286 121.01495 
L 75.048063 121.008077 
L 75.958768 121.117526 
L 76.42402 121.013067 
L 76.71109 121.049655 
L 76.909069 121.127387 
L 77.344624 121.204284 
L 77.582199 121.136009 
L 77.720785 121.225167 
L 77.889067 121.189352 
L 78.413713 121.098285 
L 78.789874 121.0492 
L 79.967851 120.638606 
L 80.403406 120.669816 
L 80.710274 120.670681 
L 81.126031 120.71538 
L 81.561585 120.716475 
L 81.818959 120.788373 
L 82.581179 120.82687 
L 83.046431 120.75334 
L 83.838348 120.826583 
L 84.313499 120.849939 
L 84.659963 120.830744 
L 85.630062 120.982998 
L 86.016122 120.933631 
L 86.32299 120.856432 
L 86.679353 120.935868 
L 87.451473 121.02892 
L 88.282986 121.008374 
L 88.510662 120.943303 
L 88.72844 121.002776 
L 89.718337 120.763211 
L 89.87672 120.797993 
L 90.173689 120.867184 
L 90.797324 120.833359 
L 91.054698 120.751027 
L 91.440758 120.771542 
L 92.331665 120.727022 
L 93.034492 120.901546 
L 93.499743 121.136505 
L 94.568832 121.143025 
L 95.697315 120.976734 
L 96.03388 121.054982 
L 96.568424 121.031678 
L 96.89509 120.913572 
L 98.647208 120.902406 
L 98.805591 120.861719 
L 99.152055 120.701676 
L 99.676701 120.826317 
L 100.280538 120.824158 
L 100.567608 120.817439 
L 100.755688 120.868043 
L 100.983365 120.884393 
L 101.260536 120.886169 
L 101.498111 120.864937 
L 101.725788 120.851643 
L 102.032656 120.852886 
L 102.319726 120.860838 
L 102.596897 120.930709 
L 103.101744 120.858827 
L 103.299724 120.886031 
L 103.507602 120.832913 
L 104.071843 120.797226 
L 104.527196 120.791965 
L 104.784569 120.805142 
L 105.269619 120.754542 
L 105.606184 120.775313 
L 106.071435 120.76076 
L 106.70497 120.781229 
L 107.239514 120.741616 
L 107.526584 120.727841 
L 107.942341 120.73764 
L 108.328401 120.800373 
L 109.189611 120.886486 
L 109.377692 120.858469 
L 109.664762 120.876328 
L 110.298296 120.957703 
L 111.011022 121.076434 
L 111.31789 121.217711 
L 111.694051 121.157276 
L 112.040514 120.711603 
L 112.85223 120.751574 
L 113.436269 120.735312 
L 114.218288 120.776004 
L 114.525156 120.749047 
L 114.752832 120.856248 
L 114.931014 120.854887 
L 115.109195 120.842544 
L 115.346771 120.949776 
L 115.554649 120.964857 
L 115.990204 121.126378 
L 116.584142 121.156233 
L 116.841515 121.156488 
L 117.217676 121.142979 
L 117.979897 121.172756 
L 118.227371 121.166948 
L 118.603532 121.114419 
L 120.682315 120.683392 
L 120.860497 120.697654 
L 121.028779 120.699409 
L 121.256456 120.702822 
L 121.573223 120.729882 
L 121.810798 120.765227 
L 122.008777 120.756026 
L 122.672008 120.924973 
L 123.018472 120.900855 
L 123.285745 120.832274 
L 123.562916 120.936605 
L 123.731198 120.883871 
L 123.978673 120.821875 
L 124.958671 120.715493 
L 125.354629 120.636641 
L 125.859477 120.678991 
L 126.611799 120.647305 
L 126.987959 120.673577 
L 127.294828 120.5633 
L 129.512197 120.894065 
L 129.739873 120.898675 
L 129.937853 120.889255 
L 130.650578 120.817679 
L 131.145527 120.942413 
L 131.699869 120.994906 
L 131.947344 120.940463 
L 132.165121 120.900932 
L 132.531383 120.939307 
L 132.867948 120.916949 
L 133.3233 120.919953 
L 133.481684 120.99184 
L 133.788552 120.96871 
L 133.956834 120.983668 
L 134.19441 121.035102 
L 135.689154 121.012284 
L 136.11481 120.953179 
L 136.88693 120.941277 
L 137.144303 120.995934 
L 137.451171 120.848322 
L 137.619453 120.861396 
L 138.718239 120.905374 
L 138.99541 120.89082 
L 139.272581 120.856079 
L 139.648742 120.8282 
L 139.95561 120.895365 
L 140.272377 120.84653 
L 140.836619 120.807839 
L 141.361264 120.796576 
L 141.678031 120.840748 
L 142.242273 120.775692 
L 142.499646 120.787303 
L 143.915199 120.915634 
L 144.311157 120.775385 
L 144.57843 120.70664 
L 145.350549 120.768968 
L 145.667316 120.833481 
L 146.023679 120.928555 
L 146.241456 120.934082 
L 146.429537 120.938866 
L 146.637415 120.923668 
L 147.45903 121.041775 
L 149.795187 121.178303 
L 149.973368 121.22549 
L 150.43862 121.239158 
L 150.884074 121.191255 
L 151.230537 121.104093 
L 151.547305 121.178283 
L 151.963061 121.1127 
L 156.97194 120.779013 
L 157.130324 120.763897 
L 157.437192 120.729724 
L 157.64507 120.723711 
L 158.337998 120.681458 
L 158.625068 120.643395 
L 160.802842 120.560572 
L 160.981023 120.609202 
L 161.505669 120.692276 
L 161.753143 120.689123 
L 162.050112 120.653794 
L 162.446071 120.596189 
L 163.505261 120.646962 
L 163.713139 120.681396 
L 164.198188 120.748054 
L 164.47536 120.753586 
L 164.772329 120.789038 
L 165.069298 120.832177 
L 165.574145 120.815018 
L 165.881013 120.736376 
L 166.554143 120.881932 
L 166.811517 120.886895 
L 167.118385 120.865075 
L 167.999393 121.066394 
L 168.256766 121.033213 
L 168.840805 121.033075 
L 169.048684 121.03458 
L 169.27636 121.058636 
L 169.741612 120.999803 
L 170.256358 120.973173 
L 170.503832 120.983898 
L 170.771105 120.869082 
L 171.810496 120.869425 
L 172.166859 120.97897 
L 172.414334 121.002013 
L 173.21615 121.098755 
L 173.41413 121.138911 
L 173.651705 121.132233 
L 173.88928 121.136966 
L 174.6614 121.235305 
L 174.997965 121.091003 
L 176.047256 121.050106 
L 176.344225 121.041611 
L 176.809476 121.063508 
L 176.96786 121.022585 
L 177.245031 120.995627 
L 178.126039 120.954459 
L 178.5022 120.897437 
L 178.759574 120.842498 
L 178.898159 120.858633 
L 179.056543 120.774428 
L 179.333714 120.780789 
L 179.650481 120.79262 
L 179.996945 120.783516 
L 180.23452 120.774029 
L 181.3927 120.584332 
L 181.610477 120.586691 
L 181.86785 120.688182 
L 182.362799 120.731371 
L 182.580576 120.822167 
L 183.461584 120.978899 
L 184.530673 121.059081 
L 184.758349 121.104881 
L 185.035521 121.055781 
L 185.728449 121.135175 
L 185.946226 121.132765 
L 186.569861 121.076623 
L 187.084607 121.208961 
L 187.609253 121.130048 
L 188.242787 121.101872 
L 188.658544 121.200384 
L 188.866422 121.202401 
L 189.0743 121.232163 
L 189.391068 121.207134 
L 189.777127 121.348391 
L 190.014703 121.401805 
L 190.222581 121.342184 
L 190.569045 121.338295 
L 190.796721 121.350817 
L 191.162983 121.366148 
L 191.469851 121.431127 
L 191.76682 121.500471 
L 192.093486 121.421353 
L 192.53894 121.376567 
L 192.845808 121.321786 
L 193.231868 121.381756 
L 193.469443 121.32761 
L 193.736715 121.333832 
L 194.291058 121.37147 
L 194.55833 121.324304 
L 194.865198 121.362868 
L 195.459136 121.344185 
L 195.657116 121.337061 
L 196.181761 121.395629 
L 196.557922 121.445327 
L 196.686609 121.208674 
L 196.953881 120.822075 
L 197.330042 120.754174 
L 197.993273 120.600129 
L 198.240747 120.613536 
L 198.488221 120.566038 
L 198.676302 120.578401 
L 198.765392 120.794078 
L 198.854483 122.116257 
L 199.230644 128.991766 
L 199.735491 133.188912 
L 200.527409 137.426085 
L 201.547003 140.987887 
L 201.952861 142.144359 
L 202.408213 143.047024 
L 203.031848 144.126194 
L 203.873261 145.279207 
L 204.150432 145.609219 
L 204.675078 146.094198 
L 206.041135 147.070086 
L 206.882548 147.531387 
L 207.407193 147.657871 
L 207.72396 147.75298 
L 208.100121 147.813318 
L 208.525777 147.954764 
L 210.970823 148.313469 
L 211.614256 148.476598 
L 211.901326 148.45205 
L 212.326981 148.470846 
L 212.752637 148.513938 
L 212.960516 148.523175 
L 213.59405 148.580186 
L 213.762332 148.546095 
L 214.16819 148.604319 
L 215.811419 148.586875 
L 216.078691 148.577971 
L 216.682528 148.501595 
L 217.226972 148.510203 
L 217.484345 148.42281 
L 217.9199 148.144057 
L 219.137473 148.044025 
L 219.573028 147.970382 
L 219.761108 148.06367 
L 220.02838 148.072738 
L 221.206358 148.277183 
L 221.552822 148.366899 
L 222.324941 148.371448 
L 222.592214 148.431064 
L 223.10696 148.387025 
L 223.621706 148.425896 
L 223.898878 148.491223 
L 226.779478 148.711971 
L 227.373416 148.674508 
L 227.581295 148.632035 
L 227.838668 148.651997 
L 228.343515 148.684011 
L 228.808767 148.605415 
L 229.036443 148.641972 
L 229.283917 148.651669 
L 229.4522 148.688698 
L 229.877856 148.6938 
L 230.481693 148.688258 
L 230.69947 148.691907 
L 231.352802 148.669913 
L 234.312594 148.676463 
L 234.540271 148.674554 
L 234.827341 148.704715 
L 235.055017 148.65498 
L 235.629157 148.592565 
L 236.510166 148.549739 
L 237.391174 148.494083 
L 237.787133 148.476418 
L 238.470162 148.428915 
L 238.727535 148.465621 
L 239.093797 148.472386 
L 239.905512 148.437108 
L 241.895205 148.2162 
L 242.251568 148.155223 
L 243.073183 148.136453 
L 243.330556 148.096144 
L 243.96409 148.01936 
L 244.805503 148.073536 
L 245.478633 148.056941 
L 245.815198 148.087271 
L 246.725903 148.052407 
L 248.240445 148.019477 
L 248.359233 148.017169 
L 248.359233 148.017169 
" clip-path="url(#pc3f80b2867)" style="fill: none; stroke: #000000; stroke-opacity: 0.5; stroke-width: 1.5; stroke-linecap: square"/>
   </g>
   <g id="line2d_16">
    <path d="M 45.450142 148.691241 
L 45.598627 148.615511 
L 46.063878 148.280458 
L 46.222262 148.264589 
L 47.123068 148.528696 
L 47.330946 148.613694 
L 47.697208 148.627342 
L 48.400035 148.710707 
L 48.964276 148.790414 
L 49.578013 148.729109 
L 50.231345 148.681779 
L 50.290738 148.301075 
L 50.379829 145.505119 
L 50.706495 134.418765 
L 51.24104 126.369878 
L 51.924069 119.359668 
L 53.983054 101.542535 
L 54.052347 93.445661 
L 54.210731 36.56048 
L 54.280023 59.722032 
L 54.5077 125.669882 
L 54.557195 126.150818 
L 54.616588 125.774632 
L 55.329314 119.040243 
L 55.834162 116.546937 
L 56.695372 113.402975 
L 59.318599 103.925702 
L 59.674962 103.373104 
L 60.595566 101.365708 
L 60.981626 101.106326 
L 61.625059 101.449329 
L 61.724049 101.312089 
L 61.931927 101.070403 
L 62.159604 101.178424 
L 62.367482 101.318752 
L 62.506068 101.373747 
L 62.941622 101.859823 
L 63.179198 101.933916 
L 63.189097 101.919872 
L 63.505864 101.635434 
L 63.852328 101.670341 
L 64.159196 101.875651 
L 64.475963 101.806448 
L 64.683841 101.675617 
L 65.000608 101.004764 
L 65.050103 101.03001 
L 65.248082 101.029721 
L 65.762829 100.398598 
L 65.921212 100.559436 
L 66.158788 100.669107 
L 66.406262 100.415191 
L 66.534949 100.446933 
L 66.683433 100.397966 
L 67.128887 100.197766 
L 67.247674 100.078114 
L 68.287066 98.473582 
L 68.623631 98.145775 
L 68.871106 97.920321 
L 68.999792 98.082196 
L 69.128479 98.070654 
L 69.326458 97.761484 
L 69.573932 97.374542 
L 69.603629 97.395656 
L 69.821407 97.449479 
L 69.959992 97.387169 
L 70.227264 97.089881 
L 70.336153 97.007178 
L 70.494537 96.193454 
L 70.732112 94.521919 
L 70.870697 91.073424 
L 70.949889 79.477238 
L 71.088475 34.988662 
L 71.147869 50.513768 
L 71.405242 122.909643 
L 71.474535 123.544 
L 71.52403 123.344043 
L 72.662411 116.235464 
L 74.157156 110.608865 
L 75.740991 103.210137 
L 76.117152 99.71084 
L 76.186444 94.166225 
L 76.285434 58.601861 
L 76.354727 35.839577 
L 76.414121 49.912869 
L 76.671494 124.448293 
L 76.71109 124.734973 
L 76.770484 124.347258 
L 77.453513 118.003638 
L 77.898966 115.89558 
L 80.066841 108.746841 
L 80.482598 107.465789 
L 81.284414 104.340902 
L 81.630878 102.67799 
L 81.977342 100.686073 
L 82.125827 98.598515 
L 82.195119 92.828749 
L 82.304008 52.317375 
L 82.363402 35.855497 
L 82.412897 46.770404 
L 82.690068 124.404673 
L 82.719765 124.575682 
L 82.779159 124.24655 
L 83.491884 118.035641 
L 84.135318 115.552606 
L 86.89713 105.369631 
L 87.550462 101.442759 
L 87.708846 98.938148 
L 87.778139 91.912965 
L 87.936522 36.035494 
L 88.015714 60.469653 
L 88.233491 123.757616 
L 88.292885 124.48502 
L 88.352279 124.082649 
L 89.005611 117.897956 
L 89.550054 115.463442 
L 91.064597 110.534977 
L 92.143584 106.081333 
L 93.291865 99.587573 
L 93.361158 95.959426 
L 93.44035 76.364825 
L 93.549238 36.058588 
L 93.608632 50.485561 
L 93.866005 123.919603 
L 93.9155 124.274889 
L 93.974894 123.909128 
L 94.657923 118.223875 
L 95.301356 115.562507 
L 98.637309 102.308449 
L 98.864985 99.610534 
L 98.934278 94.137541 
L 99.033268 59.058182 
L 99.112459 35.921133 
L 99.161954 49.226409 
L 99.419328 123.998424 
L 99.458923 124.358546 
L 99.528216 123.960193 
L 100.231043 117.757426 
L 100.765587 115.615021 
L 102.210837 110.833342 
L 104.052046 102.849618 
L 104.358914 100.00745 
L 104.428206 97.296445 
L 104.507398 80.741774 
L 104.626186 36.018645 
L 104.68558 50.204972 
L 104.942953 123.624945 
L 104.992448 123.951371 
L 105.051842 123.607767 
L 105.873456 116.966511 
L 106.229819 115.34443 
L 107.46719 111.493446 
L 108.506582 107.988451 
L 109.090621 105.814414 
L 109.664762 102.811579 
L 109.842943 100.797824 
L 109.912236 96.605657 
L 110.001327 69.973261 
L 110.100316 36.029177 
L 110.149811 48.618763 
L 110.417083 124.106066 
L 110.456679 124.3609 
L 110.516073 124.020356 
L 111.387182 116.380129 
L 111.901929 114.525447 
L 113.693643 108.922217 
L 114.475661 106.193345 
L 115.703133 102.049418 
L 115.980305 99.892329 
L 116.059496 97.891862 
L 116.128789 88.271312 
L 116.277274 35.674041 
L 116.346567 56.687728 
L 116.574243 123.134742 
L 116.643536 123.975908 
L 116.702929 123.638854 
L 117.475049 117.477128 
L 117.930402 115.731869 
L 120.672417 106.305648 
L 121.31585 102.654259 
L 121.642516 99.72076 
L 121.711808 95.980931 
L 121.800899 70.925782 
L 121.899889 35.624004 
L 121.949384 46.549228 
L 122.226555 124.011882 
L 122.256252 124.198529 
L 122.315646 123.891289 
L 123.117462 117.304256 
L 123.840087 114.78323 
L 125.275438 109.870833 
L 126.69099 103.533479 
L 126.879071 101.177807 
L 126.948364 96.326009 
L 127.037454 67.727867 
L 127.126545 35.904881 
L 127.17604 46.26742 
L 127.453211 124.193566 
L 127.482908 124.379307 
L 127.542302 124.072046 
L 128.314421 117.550479 
L 129.244925 114.006756 
L 131.284113 107.196347 
L 132.323504 101.066074 
L 132.402696 98.959334 
L 132.471989 89.622693 
L 132.620474 35.983746 
L 132.689766 55.784935 
L 132.927342 123.39256 
L 132.976836 123.906912 
L 133.03623 123.589759 
L 133.758855 117.554444 
L 134.303298 115.570014 
L 136.580062 107.78644 
L 136.966121 106.511621 
L 137.233394 105.716672 
L 138.23319 101.571317 
L 138.441068 99.335356 
L 138.52026 95.759259 
L 138.599452 76.977719 
L 138.718239 35.979225 
L 138.767734 49.017796 
L 139.035006 123.731451 
L 139.074602 123.950884 
L 139.124097 123.658637 
L 139.777429 118.31225 
L 140.549549 115.422207 
L 143.657825 104.613192 
L 144.657621 100.144692 
L 144.776409 98.163369 
L 144.845702 90.830503 
L 145.004085 35.738089 
L 145.083277 60.297143 
L 145.301054 122.898774 
L 145.370347 123.854664 
L 145.429741 123.505877 
L 146.132568 117.468735 
L 146.597819 115.726808 
L 148.399432 110.040688 
L 148.963673 108.098478 
L 149.508117 106.031749 
L 150.260438 102.321427 
L 150.606902 99.180548 
L 150.686094 95.27909 
L 150.775185 71.164369 
L 150.874175 35.75003 
L 150.923669 45.893583 
L 151.21074 123.978456 
L 151.240436 124.100795 
L 151.289931 123.837317 
L 152.101647 117.253483 
L 152.507505 115.689631 
L 154.56649 108.994304 
L 154.754571 108.357401 
L 155.23962 106.714582 
L 155.764266 104.754001 
L 156.348305 101.567758 
L 156.536385 98.868914 
L 156.605678 93.996468 
L 156.694769 66.052345 
L 156.78386 35.646907 
L 156.833355 46.218742 
L 157.110526 123.361882 
L 157.150122 123.591381 
L 157.209515 123.219837 
L 157.862847 117.590828 
L 158.446887 115.383526 
L 161.188901 105.834033 
L 162.1689 99.901302 
L 162.248091 97.100075 
L 162.327283 81.595148 
L 162.45597 35.606406 
L 162.515363 52.282471 
L 162.762838 123.50797 
L 162.822232 124.066816 
L 162.881625 123.706985 
L 163.653745 117.217933 
L 164.059603 115.922262 
L 164.37637 114.917046 
L 167.276768 103.970064 
L 167.732121 101.063968 
L 167.870706 99.046084 
L 167.939999 92.81847 
L 168.048888 51.35602 
L 168.108282 35.826978 
L 168.157776 47.313433 
L 168.434948 123.364799 
L 168.464645 123.534436 
L 168.524038 123.283905 
L 169.543632 115.831072 
L 171.087872 110.062513 
L 171.572921 108.450968 
L 171.899587 106.993366 
L 173.146857 100.699345 
L 173.265645 98.174598 
L 173.334938 90.249362 
L 173.493321 35.955204 
L 173.562614 57.033724 
L 173.790291 123.027049 
L 173.859583 123.929566 
L 173.918977 123.637119 
L 174.770289 116.796511 
L 175.43352 114.539724 
L 175.770085 113.179918 
L 176.29473 110.914819 
L 177.363819 106.862898 
L 177.769677 105.782439 
L 178.423009 102.868598 
L 178.719978 100.171097 
L 178.78927 95.877214 
L 178.878361 69.507549 
L 178.977351 36.03684 
L 179.026846 48.405436 
L 179.294118 123.294436 
L 179.343613 123.629147 
L 179.403007 123.299825 
L 180.165227 117.235245 
L 180.551287 116.061333 
L 181.699568 112.737178 
L 181.758962 110.520708 
L 181.828254 96.766613 
L 181.96684 37.34065 
L 182.036133 56.461133 
L 182.273708 123.665996 
L 182.323203 124.088979 
L 182.382597 123.731088 
L 183.075525 118.002072 
L 183.718958 115.702772 
L 184.055523 114.59385 
L 184.679158 112.411886 
L 185.114712 110.868403 
L 185.985822 107.788614 
L 186.57976 105.586087 
L 187.213294 102.915789 
L 187.599354 100.873307 
L 187.787434 99.043671 
L 187.856727 95.461406 
L 187.945818 71.586156 
L 188.044808 36.081688 
L 188.094302 45.835753 
L 188.381373 123.588715 
L 188.411069 123.716708 
L 188.460564 123.4696 
L 189.331674 116.869514 
L 190.361167 113.560515 
L 191.044196 111.566769 
L 191.638134 109.544251 
L 193.291262 103.184748 
L 193.756513 98.730518 
L 193.825806 92.706277 
L 193.934695 52.079683 
L 193.994089 35.707288 
L 194.043584 46.11163 
L 194.330654 123.711514 
L 194.360351 123.869064 
L 194.419744 123.605607 
L 195.271056 116.964337 
L 196.062973 113.997939 
L 198.092262 106.165182 
L 198.676302 103.221162 
L 198.755493 102.802329 
L 198.795089 103.065746 
L 198.88418 106.099666 
L 199.220745 117.935164 
L 199.646401 124.942872 
L 200.210642 130.875431 
L 201.042155 136.492839 
L 201.715285 139.577389 
L 202.378516 141.946377 
L 203.002152 143.556566 
L 204.289018 145.954629 
L 205.635278 147.605071 
L 206.823154 148.566974 
L 208.20901 149.198347 
L 208.753453 149.458847 
L 208.98113 149.556592 
L 209.189008 149.601311 
L 209.347391 149.649552 
L 209.644361 149.838717 
L 209.832441 149.930106 
L 210.347187 150.194403 
L 210.624359 150.229701 
L 212.138901 150.423605 
L 212.257689 150.118836 
L 212.455668 149.840943 
L 212.752637 150.026044 
L 213.792029 150.499868 
L 214.722532 150.756171 
L 214.890815 150.74611 
L 215.088794 150.833176 
L 215.326369 150.838329 
L 215.752025 150.858307 
L 216.543943 150.964147 
L 216.831013 150.982835 
L 217.118083 150.958579 
L 217.355658 150.889737 
L 217.543739 150.915451 
L 217.910001 151.056191 
L 219.582927 151.12705 
L 219.810603 151.159273 
L 220.562925 151.06922 
L 220.70151 151.091024 
L 220.968782 151.172036 
L 222.404133 151.245965 
L 222.592214 151.297174 
L 226.809175 151.247255 
L 227.125942 151.184271 
L 229.382907 151.127526 
L 229.669977 151.098823 
L 230.610379 151.156075 
L 231.055833 151.1602 
L 232.590173 150.90164 
L 232.966334 150.506453 
L 233.985928 150.483098 
L 234.461079 150.568731 
L 235.243097 150.503097 
L 236.391378 150.610032 
L 236.718044 150.618777 
L 237.054609 150.581595 
L 238.00491 150.675395 
L 238.183092 150.706257 
L 238.499859 150.74019 
L 238.905716 150.737713 
L 239.271978 150.836359 
L 239.479857 150.857027 
L 241.667529 150.725073 
L 241.835812 150.636355 
L 242.162478 150.655381 
L 243.182072 150.748249 
L 243.419647 150.816765 
L 243.795808 150.805235 
L 246.409136 150.77357 
L 247.111963 150.753674 
L 248.319637 150.731608 
L 248.359233 150.706436 
L 248.359233 150.706436 
" clip-path="url(#pc3f80b2867)" style="fill: none; stroke: #000000; stroke-opacity: 0.5; stroke-width: 1.5; stroke-linecap: square"/>
   </g>
   <g id="line2d_17">
    <path d="M 45.450142 155.72169 
L 45.905495 155.683853 
L 46.192565 155.690199 
L 46.855796 155.704148 
L 47.212159 155.625465 
L 47.598219 155.666373 
L 48.320843 155.653845 
L 50.221446 155.502835 
L 50.280839 154.863699 
L 50.360031 150.407639 
L 50.75599 122.102129 
L 51.439019 92.729783 
L 51.607302 29.529836 
L 51.686493 54.921729 
L 51.904271 114.1084 
L 51.953765 114.671868 
L 52.013159 114.059239 
L 52.438815 105.025296 
L 52.973359 92.461498 
L 53.052551 77.761892 
L 53.191137 29.994379 
L 53.250531 44.105257 
L 53.507904 112.060521 
L 53.557399 112.602002 
L 53.616792 112.274142 
L 53.884065 108.120024 
L 54.79477 92.02119 
L 54.873962 76.782255 
L 55.012547 29.662826 
L 55.071941 44.038216 
L 55.329314 111.460381 
L 55.388708 112.073407 
L 55.448102 111.68592 
L 55.794566 106.308207 
L 56.734968 91.771667 
L 56.81416 78.420221 
L 56.962644 29.648905 
L 57.022038 45.181334 
L 57.279411 111.468124 
L 57.328906 111.983391 
L 57.3883 111.670862 
L 57.625875 108.028253 
L 58.308904 98.712451 
L 58.694964 92.733931 
L 58.774156 88.341119 
L 58.863247 65.080052 
L 58.972135 29.393876 
L 59.02163 38.646413 
L 59.318599 111.872618 
L 59.348296 112.054747 
L 59.40769 111.728738 
L 59.684861 107.695928 
L 60.249102 100.598694 
L 60.783647 93.330248 
L 60.862839 88.010123 
L 60.961828 57.126609 
L 61.050919 29.539902 
L 61.100414 38.548057 
L 61.407282 111.888942 
L 61.436979 112.002131 
L 61.486474 111.698045 
L 61.803241 107.084074 
L 62.803037 91.160632 
L 62.882229 77.725845 
L 63.020814 29.464693 
L 63.090107 44.718462 
L 63.34748 110.506234 
L 63.406874 111.198172 
L 63.466268 110.917808 
L 63.703843 107.620597 
L 64.396771 98.826474 
L 64.911517 91.500478 
L 64.990709 84.974723 
L 65.109497 42.991177 
L 65.168891 29.202259 
L 65.218386 38.334787 
L 65.515355 110.707086 
L 65.545052 110.887355 
L 65.604445 110.609526 
L 65.85192 107.319962 
L 66.970503 90.371495 
L 67.049695 78.412339 
L 67.19818 29.311252 
L 67.267472 46.308243 
L 67.514947 109.876853 
L 67.594138 110.879461 
L 67.643633 110.68641 
L 67.782219 108.762666 
L 68.296965 101.320876 
L 68.989893 92.553493 
L 69.088883 88.120532 
L 69.177974 66.973785 
L 69.296761 29.296729 
L 69.346256 39.650526 
L 69.633326 110.284832 
L 69.672922 110.535274 
L 69.732316 110.152044 
L 70.058982 105.39534 
L 70.702415 97.541777 
L 71.078576 91.87992 
L 71.157768 86.264092 
L 71.256757 55.302373 
L 71.345848 29.267062 
L 71.395343 38.757082 
L 71.692312 110.303454 
L 71.731908 110.556831 
L 71.791302 110.200482 
L 72.117968 105.298627 
L 72.721805 97.921475 
L 73.196955 91.713456 
L 73.276147 86.400665 
L 73.375137 56.441124 
L 73.464228 29.480572 
L 73.513723 37.979262 
L 73.820591 110.362067 
L 73.860186 110.55952 
L 73.909681 110.316032 
L 74.107661 107.517463 
L 74.780791 98.610556 
L 75.236143 91.929681 
L 75.315335 86.974995 
L 75.414325 58.166427 
L 75.513315 29.392471 
L 75.562809 39.996588 
L 75.849879 110.255088 
L 75.889475 110.572413 
L 75.948869 110.265622 
L 76.196343 106.568781 
L 76.81008 98.606294 
L 77.305028 91.729329 
L 77.394119 86.834304 
L 77.48321 63.058455 
L 77.592098 29.092973 
L 77.641593 38.802339 
L 77.938562 110.038538 
L 77.978158 110.283591 
L 78.037552 109.907744 
L 78.393915 104.737989 
L 79.472903 87.778688 
L 79.561993 67.432266 
L 79.680781 29.148805 
L 79.730276 38.354706 
L 80.027245 110.15729 
L 80.07674 110.46278 
L 80.126235 110.168665 
L 80.383608 106.338767 
L 81.363606 93.54819 
L 81.601181 89.25552 
L 81.680373 79.425326 
L 81.838756 29.368581 
L 81.908049 46.585883 
L 82.155524 109.245495 
L 82.224816 110.147592 
L 82.28421 109.780206 
L 82.561381 105.562133 
L 83.204814 97.169588 
L 83.610672 91.583075 
L 83.689864 87.316378 
L 83.778955 64.98178 
L 83.887843 29.483156 
L 83.947237 40.98364 
L 84.224408 109.394228 
L 84.283802 109.868517 
L 84.333297 109.59448 
L 84.541175 106.617838 
L 85.135114 98.972623 
L 85.738951 91.406031 
L 85.818142 86.608556 
L 85.917132 58.470298 
L 86.016122 29.296276 
L 86.065617 39.161622 
L 86.362586 109.952343 
L 86.402182 110.214667 
L 86.461576 109.892243 
L 86.699151 106.341022 
L 87.273291 98.903387 
L 87.817734 91.487756 
L 87.906825 86.436544 
L 87.995916 62.877429 
L 88.104805 29.03657 
L 88.154299 38.553304 
L 88.451269 109.896757 
L 88.490864 110.156924 
L 88.550258 109.78367 
L 88.975914 103.584634 
L 89.668842 95.452717 
L 89.995508 89.988058 
L 90.0747 83.292241 
L 90.193487 42.479243 
L 90.252881 29.325455 
L 90.302376 38.219218 
L 90.609244 109.141111 
L 90.638941 109.291356 
L 90.698335 109.021658 
L 90.93591 105.923053 
L 92.163382 87.448211 
L 92.252473 69.257025 
L 92.38116 29.054248 
L 92.430655 39.033798 
L 92.727624 109.484661 
L 92.76722 109.677254 
L 92.816714 109.379634 
L 93.153279 104.800248 
L 93.964995 94.919669 
L 94.242166 90.287138 
L 94.321358 84.323972 
L 94.430247 49.189337 
L 94.509438 29.253409 
L 94.558933 39.246387 
L 94.855902 109.441924 
L 94.895498 109.639535 
L 94.944993 109.392478 
L 95.133073 106.743922 
L 95.8359 97.814258 
L 96.281354 91.80617 
L 96.370445 87.638594 
L 96.459535 67.31662 
L 96.578323 29.50795 
L 96.627818 38.590909 
L 96.924787 109.306283 
L 96.974282 109.597494 
L 97.023777 109.317027 
L 97.221756 106.267967 
L 97.766199 98.802172 
L 98.498723 88.852543 
L 98.577915 79.559003 
L 98.736299 29.352131 
L 98.81549 48.51137 
L 99.062965 109.014289 
L 99.132257 109.820525 
L 99.181752 109.495259 
L 99.597509 103.577772 
L 100.617103 88.089448 
L 100.696295 74.63035 
L 100.83488 29.481859 
L 100.894274 41.038994 
L 101.171445 109.163499 
L 101.230839 109.695994 
L 101.280334 109.399456 
L 101.607 104.951302 
L 102.616695 93.009897 
L 102.834472 89.191601 
L 102.913664 83.111282 
L 103.022553 47.794702 
L 103.091845 29.356801 
L 103.151239 40.191226 
L 103.438309 109.304449 
L 103.497703 109.788747 
L 103.557097 109.464212 
L 103.794672 106.135722 
L 104.576691 96.817735 
L 105.101336 90.049363 
L 105.190427 85.675961 
L 105.279518 63.928375 
L 105.388407 29.129167 
L 105.4478 40.460852 
L 105.73487 109.269475 
L 105.774466 109.595437 
L 105.83386 109.256124 
L 106.200122 103.870953 
L 107.08113 94.313544 
L 107.368201 90.014483 
L 107.447392 85.554554 
L 107.536483 62.936516 
L 107.645372 28.899003 
L 107.694867 37.560685 
L 108.001735 109.15102 
L 108.031432 109.300593 
L 108.080926 109.041503 
L 108.407592 104.526022 
L 109.070823 96.99776 
L 109.545974 91.293108 
L 109.714257 87.425134 
L 109.793448 77.185044 
L 109.951832 29.17458 
L 110.021125 46.657261 
L 110.268599 108.470385 
L 110.337892 109.424054 
L 110.397285 109.074934 
L 111.842535 91.553943 
L 111.99102 87.294725 
L 112.070211 74.173576 
L 112.208797 28.996351 
L 112.27809 43.721715 
L 112.545362 109.105968 
L 112.604756 109.826353 
L 112.66415 109.5323 
L 112.921523 105.876816 
L 113.574855 97.85611 
L 114.238086 89.15468 
L 114.327177 84.513632 
L 114.416267 62.616612 
L 114.525156 28.857867 
L 114.574651 37.129686 
L 114.891418 109.28944 
L 114.921115 109.442308 
L 114.980509 109.144117 
L 115.208185 105.786996 
L 115.752628 98.975934 
L 116.524748 89.535862 
L 116.613839 85.241343 
L 116.702929 64.640058 
L 116.821717 29.149738 
L 116.871212 39.247763 
L 117.168181 108.661635 
L 117.217676 108.959558 
L 117.267171 108.700496 
L 117.514645 105.435498 
L 118.078886 98.838935 
L 118.71242 91.832483 
L 118.900501 87.500324 
L 118.979693 77.472419 
L 119.138076 29.10528 
L 119.207369 46.340106 
L 119.454843 108.509514 
L 119.524136 109.487184 
L 119.58353 109.218333 
L 119.801307 106.228421 
L 120.434841 98.534363 
L 120.989184 92.143889 
L 121.137668 88.385389 
L 121.21686 78.815778 
L 121.375243 29.017895 
L 121.444536 44.808347 
L 121.701909 108.702561 
L 121.761303 109.392929 
L 121.820697 109.095933 
L 122.048373 105.71367 
L 122.681907 97.841999 
L 123.23625 90.995598 
L 123.315442 86.224615 
L 123.414431 58.952277 
L 123.513421 29.250195 
L 123.562916 37.930991 
L 123.869784 109.06254 
L 123.90938 109.279965 
L 123.958875 109.021354 
L 124.19645 105.758188 
L 124.760691 99.102433 
L 125.582306 89.062488 
L 125.661497 81.817886 
L 125.839679 29.203912 
L 125.918871 51.3791 
L 126.156446 108.565139 
L 126.225739 109.511025 
L 126.285133 109.179534 
L 126.582102 104.943087 
L 127.265131 96.953186 
L 127.690786 91.038172 
L 127.789776 86.824576 
L 127.878867 67.696691 
L 127.997654 28.965468 
L 128.057048 40.000539 
L 128.344118 108.755865 
L 128.383714 109.038128 
L 128.443108 108.740971 
L 128.700481 105.309035 
L 129.29442 98.030703 
L 130.017044 89.757282 
L 130.116034 85.802826 
L 130.205125 67.99675 
L 130.333811 28.919561 
L 130.383306 38.869019 
L 130.680275 108.849043 
L 130.719871 109.092497 
L 130.779265 108.744517 
L 131.066335 104.499517 
L 131.60088 98.199727 
L 132.184919 91.568527 
L 132.353201 87.586367 
L 132.432393 77.566346 
L 132.590777 29.094572 
L 132.660069 45.634598 
L 132.917443 108.293307 
L 132.986735 109.084319 
L 133.046129 108.734707 
L 133.303502 104.743109 
L 133.927138 97.039624 
L 134.600268 89.068894 
L 134.689358 83.076198 
L 134.798247 49.634048 
L 134.877439 28.880317 
L 134.926934 37.423345 
L 135.233802 108.756694 
L 135.283296 109.033075 
L 135.332791 108.767788 
L 135.560468 105.63131 
L 136.144507 98.410466 
L 136.679051 92.58051 
L 136.916627 88.478379 
L 136.995818 80.736269 
L 137.164101 29.241732 
L 137.243293 48.554387 
L 137.490767 107.930145 
L 137.550161 108.631735 
L 137.609554 108.308339 
L 137.946119 103.654134 
L 138.599452 96.054791 
L 139.104299 89.663855 
L 139.203289 85.355307 
L 139.292379 66.22096 
L 139.411167 29.135814 
L 139.470561 40.533523 
L 139.757631 108.818324 
L 139.807126 109.168324 
L 139.86652 108.843265 
L 140.123893 105.256491 
L 140.806922 97.210416 
L 141.470153 89.746937 
L 141.588941 86.030722 
L 141.668132 73.538266 
L 141.816617 29.277731 
L 141.876011 43.507837 
L 142.143283 108.247702 
L 142.212576 108.908733 
L 142.26207 108.656093 
L 142.479848 105.601507 
L 143.281664 95.927885 
L 143.756815 89.416409 
L 143.845906 84.801594 
L 143.934996 63.463982 
L 144.043885 29.196385 
L 144.103279 40.230898 
L 144.390349 108.838708 
L 144.439844 109.174212 
L 144.489339 108.880043 
L 144.796207 104.608952 
L 145.508933 96.714056 
L 145.805902 93.493036 
L 146.201861 87.808389 
L 146.281052 81.533918 
L 146.39984 42.66226 
L 146.459234 28.967751 
L 146.508729 36.647826 
L 146.825496 108.947693 
L 146.855193 109.079102 
L 146.914586 108.777544 
L 147.122465 105.797238 
L 147.627312 99.430782 
L 148.637007 87.904715 
L 148.716199 79.026424 
L 148.884482 29.279725 
L 148.953774 47.029522 
L 149.201249 107.978521 
L 149.28044 109.073412 
L 149.339834 108.799208 
L 149.557612 105.791399 
L 150.171348 98.10779 
L 150.893972 89.275003 
L 150.983063 85.497305 
L 151.072154 66.792018 
L 151.190942 29.081338 
L 151.250335 40.135916 
L 151.537406 108.571863 
L 151.596799 109.038919 
L 151.646294 108.771242 
L 151.873971 105.575814 
L 152.487707 98.017757 
L 152.982655 92.470803 
L 153.180635 88.045692 
L 153.259826 78.224 
L 153.41821 28.860684 
L 153.487503 44.687988 
L 153.744876 108.131732 
L 153.814169 108.909245 
L 153.863664 108.650682 
L 154.101239 105.360236 
L 154.705076 98.187476 
L 155.289115 92.084232 
L 155.566286 87.051581 
L 155.645478 78.396485 
L 155.813761 29.274398 
L 155.883053 46.445695 
L 156.140427 107.90536 
L 156.199821 108.61265 
L 156.259214 108.331111 
L 156.536385 104.601742 
L 157.328303 95.79533 
L 157.724262 90.83021 
L 157.862847 86.716809 
L 157.942039 75.53277 
L 158.090524 29.285369 
L 158.159817 44.410763 
L 158.41719 107.856239 
L 158.486483 108.656472 
L 158.545876 108.33805 
L 158.832947 104.595284 
L 159.644662 95.034925 
L 160.159409 88.545648 
L 160.248499 83.370782 
L 160.347489 56.447993 
L 160.446479 28.932449 
L 160.495974 38.446568 
L 160.792943 108.417936 
L 160.842438 108.726116 
L 160.891932 108.44723 
L 161.119609 105.278086 
L 161.634355 98.816421 
L 162.475768 89.258824 
L 162.574757 85.122304 
L 162.663848 66.650523 
L 162.782636 29.213807 
L 162.84203 40.044391 
L 163.1291 108.036428 
L 163.188493 108.530728 
L 163.247887 108.23843 
L 163.465665 105.22284 
L 164.079401 97.767494 
L 164.841621 88.19163 
L 164.920813 83.051965 
L 165.019803 54.661667 
L 165.108894 29.294235 
L 165.158389 37.276214 
L 165.475156 108.524452 
L 165.504852 108.654899 
L 165.564246 108.376013 
L 165.772125 105.544427 
L 166.346265 98.292198 
L 167.138183 88.21144 
L 167.217374 80.977653 
L 167.395556 29.155027 
L 167.474748 50.79293 
L 167.712323 108.165598 
L 167.791515 109.223463 
L 167.841009 108.971281 
L 168.068686 105.849518 
L 168.672523 98.411612 
L 169.583228 87.894287 
L 169.66242 83.125464 
L 169.76141 56.309886 
L 169.860399 29.325463 
L 169.909894 39.31887 
L 170.206863 108.520906 
L 170.256358 108.846967 
L 170.315752 108.504336 
L 170.632519 104.198532 
L 171.345245 95.824245 
L 171.899587 88.5395 
L 171.988678 82.149855 
L 172.097567 47.856802 
L 172.176758 29.127729 
L 172.226253 39.069271 
L 172.523222 108.190123 
L 172.572717 108.547543 
L 172.632111 108.227159 
L 172.879585 104.71249 
L 173.394332 98.344428 
L 174.245643 88.125987 
L 174.324835 81.210036 
L 174.453522 37.936282 
L 174.503016 29.268426 
L 174.552511 38.15034 
L 174.859379 108.492525 
L 174.898975 108.747772 
L 174.958369 108.471473 
L 175.146449 105.650446 
L 175.611701 99.821933 
L 176.522406 89.411416 
L 176.611497 83.769223 
L 176.710487 55.34786 
L 176.799577 28.959893 
L 176.849072 36.397789 
L 177.175738 108.883159 
L 177.195536 108.958749 
L 177.245031 108.75302 
L 177.462808 105.822673 
L 178.145837 97.656442 
L 178.908058 89.825459 
L 179.046644 86.204539 
L 179.125835 74.877191 
L 179.27432 28.86932 
L 179.343613 44.514595 
L 179.600986 108.143295 
L 179.670279 108.999298 
L 179.729673 108.659 
L 180.006844 104.632499 
L 180.610681 97.633429 
L 181.095731 92.000575 
L 181.303609 87.94781 
L 181.382801 80.385449 
L 181.551083 29.188642 
L 181.630275 47.648163 
L 181.877749 107.518223 
L 181.947042 108.386477 
L 182.006436 108.115777 
L 182.234112 105.057061 
L 182.917141 97.132974 
L 183.659564 89.159731 
L 183.748655 84.899677 
L 183.837745 64.708225 
L 183.956533 29.199862 
L 184.006028 38.607716 
L 184.302997 108.195191 
L 184.352492 108.536703 
L 184.411886 108.241352 
L 184.649461 105.082688 
L 185.302793 97.36398 
L 186.104609 89.273057 
L 186.243195 86.188839 
L 186.322387 76.746933 
L 186.48077 29.565568 
L 186.550063 45.571999 
L 186.807436 107.546959 
L 186.876729 108.354909 
L 186.936123 108.007388 
L 187.381577 102.195189 
L 188.559554 87.022661 
L 188.638746 77.514738 
L 188.797129 29.171778 
L 188.866422 44.435528 
L 189.123795 107.879799 
L 189.193088 108.733039 
L 189.252482 108.4084 
L 189.618744 103.555435 
L 190.202783 96.818876 
L 190.885812 88.610602 
L 190.984802 83.71306 
L 191.073892 62.697553 
L 191.182781 29.179262 
L 191.242175 40.136981 
L 191.529245 108.22873 
L 191.588639 108.671473 
L 191.638134 108.395059 
L 191.855911 105.216385 
L 192.430051 98.302535 
L 193.241767 89.886781 
L 193.370454 86.096181 
L 193.449645 73.854602 
L 193.59813 29.177922 
L 193.657524 42.411442 
L 193.924796 107.755014 
L 193.994089 108.494268 
L 194.053483 108.186704 
L 194.261361 105.320124 
L 194.8454 98.144491 
L 195.587823 89.354004 
L 195.686813 85.34033 
L 195.775903 66.873405 
L 195.894691 29.026983 
L 195.954085 39.357785 
L 196.251054 108.469884 
L 196.300549 108.806771 
L 196.350044 108.532698 
L 196.607417 104.873443 
L 197.171658 98.353306 
L 198.003172 89.680189 
L 198.131858 85.07656 
L 198.220949 67.057114 
L 198.349636 29.278381 
L 198.39913 39.361628 
L 198.6961 108.281852 
L 198.844584 112.87148 
L 199.151452 128.732095 
L 199.577108 134.010637 
L 200.299733 140.054876 
L 201.09165 144.425923 
L 201.923164 147.34779 
L 203.289222 150.202795 
L 203.615888 150.587823 
L 204.011847 151.075545 
L 204.516694 151.530649 
L 204.882956 151.892424 
L 205.259117 152.190218 
L 206.219317 152.914854 
L 206.595478 153.099091 
L 207.031032 153.254241 
L 207.357698 153.480527 
L 207.585375 153.555889 
L 207.852647 153.593496 
L 208.793049 154.032245 
L 210.159107 154.453309 
L 210.347187 154.491013 
L 210.564965 154.546981 
L 214.395866 155.265747 
L 214.663138 155.320077 
L 214.880916 155.375343 
L 215.138289 155.321162 
L 215.752025 155.438107 
L 217.33586 155.646912 
L 217.662526 155.654777 
L 218.088182 155.78148 
L 218.503939 155.793168 
L 219.236463 155.850195 
L 219.691815 155.922666 
L 219.998683 155.917682 
L 220.206562 155.911541 
L 220.473834 155.969274 
L 220.760904 156.026239 
L 221.127166 156.082007 
L 221.394438 156.119455 
L 221.612216 156.100102 
L 222.057669 156.194474 
L 222.414032 156.179563 
L 222.730799 156.237275 
L 223.29504 156.170802 
L 223.49302 156.19121 
L 224.235443 156.234123 
L 224.443321 156.192591 
L 225.057057 156.231472 
L 225.363925 156.279575 
L 226.343923 156.350602 
L 226.720084 156.229712 
L 228.323717 156.341545 
L 228.501899 156.052368 
L 228.828565 155.338504 
L 229.036443 155.383644 
L 230.293612 155.694446 
L 230.590581 155.838333 
L 231.738862 156.034683 
L 232.115023 156.141347 
L 232.461487 156.162287 
L 232.728759 156.246589 
L 233.194011 156.28984 
L 233.49098 156.323337 
L 233.817646 156.354778 
L 234.035423 156.437401 
L 234.2532 156.4478 
L 234.609563 156.451187 
L 235.995419 156.512032 
L 236.223096 156.528018 
L 236.500267 156.479506 
L 236.698246 156.544148 
L 236.955619 156.599301 
L 237.440669 156.628501 
L 237.71784 156.678322 
L 238.094001 156.668139 
L 238.955211 156.708606 
L 239.262079 156.691689 
L 239.717432 156.626894 
L 240.350966 156.797248 
L 240.994399 156.730037 
L 241.350762 156.727213 
L 241.776418 156.740835 
L 242.350558 156.797708 
L 243.023688 156.689631 
L 244.112575 156.781865 
L 244.429342 156.755153 
L 244.716412 156.796644 
L 246.122066 156.844285 
L 246.339843 156.857283 
L 247.121862 156.896001 
L 247.804891 156.804514 
L 248.319637 156.851828 
L 248.359233 156.82443 
L 248.359233 156.82443 
" clip-path="url(#pc3f80b2867)" style="fill: none; stroke: #000000; stroke-opacity: 0.5; stroke-width: 1.5; stroke-linecap: square"/>
   </g>
   <g id="line2d_18">
    <path d="M 45.450142 155.498721 
L 45.836202 155.408964 
L 46.440039 155.449564 
L 46.687513 155.522342 
L 47.746703 155.488972 
L 49.360235 155.411502 
L 49.706699 155.428578 
L 50.003668 155.431603 
L 50.241244 155.057423 
L 50.300637 152.599211 
L 50.399627 135.255203 
L 50.864879 14.76 
L 50.924273 27.209831 
L 51.191545 94.35896 
L 51.201444 94.391152 
L 51.231141 94.186239 
L 51.359827 90.719749 
L 51.706291 74.675441 
L 51.805281 50.570996 
L 51.91417 19.446444 
L 51.963664 25.912591 
L 52.29033 88.370642 
L 52.329926 88.109054 
L 52.48831 84.554364 
L 52.854572 72.082036 
L 52.953561 58.246813 
L 53.102046 20.8178 
L 53.16144 29.752962 
L 53.468308 86.216297 
L 53.507904 86.512162 
L 53.567298 86.121514 
L 53.745479 82.279189 
L 54.131539 69.52312 
L 54.230529 54.628223 
L 54.369114 21.918816 
L 54.428508 29.453814 
L 54.755174 84.354514 
L 54.79477 84.517311 
L 54.844265 84.231925 
L 55.022446 81.300619 
L 55.428304 70.938882 
L 55.537193 62.849168 
L 55.725273 22.490087 
L 55.814364 37.506491 
L 56.081636 83.79192 
L 56.150929 84.58675 
L 56.210323 84.2358 
L 56.378605 81.090821 
L 56.833958 68.395716 
L 56.932947 56.510726 
L 57.091331 22.964539 
L 57.150725 30.491191 
L 57.477391 82.682709 
L 57.516987 82.9352 
L 57.576381 82.630149 
L 57.754562 79.688765 
L 58.190117 68.435094 
L 58.299005 58.114112 
L 58.467288 24.234548 
L 58.536581 32.768713 
L 58.853348 81.654328 
L 58.902843 81.990882 
L 58.962236 81.689747 
L 59.150317 78.781474 
L 59.536377 69.713981 
L 59.655164 61.729751 
L 59.853144 24.094278 
L 59.932335 35.170348 
L 60.229305 81.170672 
L 60.298597 81.871862 
L 60.357991 81.546005 
L 60.56587 78.261561 
L 60.961828 68.530831 
L 61.070717 61.378153 
L 61.268696 25.095169 
L 61.347888 35.823276 
L 61.644857 80.515544 
L 61.71415 81.164479 
L 61.763645 80.930134 
L 61.931927 78.493955 
L 62.347684 69.050691 
L 62.466472 61.959393 
L 62.67435 25.453818 
L 62.763441 37.985446 
L 63.050511 79.163456 
L 63.129703 79.995467 
L 63.179198 79.814458 
L 63.337581 77.799025 
L 63.723641 69.553351 
L 63.872126 62.027401 
L 64.010711 35.606918 
L 64.089903 26.505519 
L 64.139398 31.048892 
L 64.535357 79.96064 
L 64.565053 80.011402 
L 64.604649 79.847107 
L 64.743235 78.031795 
L 65.129295 69.701611 
L 65.26788 62.535408 
L 65.406466 36.039296 
L 65.485658 26.913769 
L 65.535153 31.216549 
L 65.94101 79.074184 
L 65.960808 79.063255 
L 65.980606 78.987807 
L 66.109293 77.596384 
L 66.485454 70.561184 
L 66.683433 64.143997 
L 66.792322 50.563976 
L 66.930907 27.322125 
L 66.990301 32.038159 
L 67.376361 78.940885 
L 67.396159 78.968194 
L 67.435755 78.799674 
L 67.584239 76.749356 
L 68.039592 67.239334 
L 68.168279 59.797372 
L 68.376157 27.008254 
L 68.465248 38.07342 
L 68.762217 78.256202 
L 68.841409 79.046783 
L 68.890903 78.835583 
L 69.049287 76.631421 
L 69.50464 66.795066 
L 69.643225 58.516583 
L 69.841205 27.895302 
L 69.930295 37.821927 
L 70.237163 78.065185 
L 70.306456 78.690949 
L 70.36585 78.444821 
L 70.544031 75.971011 
L 70.959788 66.621477 
L 71.088475 58.470594 
L 71.286454 28.186497 
L 71.365646 36.543058 
L 71.692312 77.468094 
L 71.761605 77.981585 
L 71.8111 77.799501 
L 71.969483 75.935332 
L 72.355543 68.725942 
L 72.533724 61.498842 
L 72.662411 42.884802 
L 72.7713 28.820296 
L 72.820795 32.184736 
L 73.24645 77.739811 
L 73.256349 77.733521 
L 73.325642 77.329083 
L 73.553318 74.142462 
L 73.939378 66.172403 
L 74.068065 59.426316 
L 74.275943 29.011388 
L 74.365034 37.778681 
L 74.6917 76.907141 
L 74.770892 77.531215 
L 74.820387 77.396288 
L 74.949073 76.036375 
L 75.305436 69.295621 
L 75.562809 60.050876 
L 75.701395 39.977724 
L 75.790486 30.024975 
L 75.839981 32.929175 
L 76.275535 76.623848 
L 76.295333 76.586011 
L 76.394323 75.73331 
L 76.819979 68.949431 
L 77.037756 62.310037 
L 77.156544 50.756238 
L 77.305028 30.890116 
L 77.364422 34.289342 
L 77.799977 76.252903 
L 77.809876 76.250888 
L 77.869269 75.957802 
L 78.126643 72.88683 
L 78.483006 65.817444 
L 78.651288 58.325365 
L 78.819571 34.718586 
L 78.878964 31.161264 
L 78.928459 34.52971 
L 79.364014 76.0584 
L 79.383812 76.063108 
L 79.413509 75.994503 
L 79.512498 75.170442 
L 79.78967 70.176399 
L 80.136134 60.967207 
L 80.254921 50.483466 
L 80.413305 31.396134 
L 80.4628 34.508914 
L 80.908253 75.510273 
L 80.957748 75.374956 
L 81.106233 74.039073 
L 81.531888 66.95276 
L 81.769464 59.360517 
L 81.908049 44.914228 
L 82.026837 32.92352 
L 82.076332 35.365472 
L 82.511886 75.424009 
L 82.561381 75.293248 
L 82.690068 73.950228 
L 83.115724 65.922672 
L 83.303804 57.938185 
L 83.53148 33.338615 
L 83.610672 39.608446 
L 83.957136 74.28534 
L 84.026429 74.648493 
L 84.075924 74.501232 
L 84.214509 73.148796 
L 84.560973 67.09495 
L 84.848043 58.591112 
L 84.996528 42.202877 
L 85.095518 34.155177 
L 85.145012 36.419087 
L 85.630062 73.94887 
L 85.659759 73.911079 
L 85.758749 73.293484 
L 86.026021 69.585613 
L 86.481373 60.734503 
L 86.619959 53.12769 
L 86.808039 34.63358 
L 86.877332 38.307583 
L 87.312887 73.979394 
L 87.332685 73.996675 
L 87.372281 73.896426 
L 87.530664 72.647162 
L 87.867229 68.070248 
L 88.114704 62.166392 
L 88.263188 53.069746 
L 88.451269 34.265787 
L 88.510662 37.854496 
L 88.946217 74.002013 
L 88.975914 74.038041 
L 89.01551 73.928141 
L 89.193691 72.501638 
L 89.460964 68.971545 
L 89.748034 62.423467 
L 89.886619 53.873417 
L 90.0747 34.225005 
L 90.134093 37.615048 
L 90.569648 74.782504 
L 90.589446 74.786985 
L 90.619143 74.709274 
L 90.737931 73.708886 
L 91.114092 67.681193 
L 91.371465 60.752702 
L 91.500151 49.043654 
L 91.648636 33.204487 
L 91.698131 35.549686 
L 92.18318 73.861092 
L 92.202978 73.84784 
L 92.292069 73.443716 
L 92.490048 71.307272 
L 92.965199 63.489093 
L 93.133481 56.408383 
L 93.351259 34.583935 
L 93.44035 40.77658 
L 93.796712 74.24908 
L 93.856106 74.512882 
L 93.905601 74.340114 
L 94.113479 72.310047 
L 94.469842 66.717619 
L 94.697519 60.676277 
L 94.836104 50.388516 
L 94.994488 34.998196 
L 95.043983 37.320186 
L 95.479537 73.737336 
L 95.529032 73.604081 
L 95.677517 72.188245 
L 96.192263 64.274328 
L 96.370445 57.894002 
L 96.548626 39.557755 
L 96.617919 36.042333 
L 96.667414 38.247484 
L 97.132665 74.196128 
L 97.18216 74.04382 
L 97.370241 71.958961 
L 97.756301 65.830447 
L 97.983977 58.823875 
L 98.132461 44.811366 
L 98.251249 35.605257 
L 98.290845 37.148349 
L 98.459127 57.989492 
L 98.686804 72.849379 
L 98.775894 73.476412 
L 98.825389 73.368759 
L 98.983773 72.203905 
L 99.270843 68.305157 
L 99.637105 61.088401 
L 99.77569 51.935568 
L 99.943973 35.980517 
L 100.003367 38.535271 
L 100.468618 73.614877 
L 100.488416 73.601035 
L 100.567608 73.146902 
L 100.815082 69.875293 
L 101.161546 63.437287 
L 101.359526 55.925842 
L 101.597101 37.316087 
L 101.676293 41.999474 
L 102.072252 72.898915 
L 102.141544 73.110768 
L 102.191039 72.988489 
L 102.339524 71.738245 
L 102.685988 67.138505 
L 102.992856 60.780618 
L 103.151239 51.589168 
L 103.329421 36.911869 
L 103.388815 39.536876 
L 103.873864 73.173145 
L 103.923359 73.052127 
L 104.071843 71.737784 
L 104.477701 65.734603 
L 104.675681 59.93672 
L 104.824165 47.383483 
L 104.962751 35.577606 
L 105.012246 37.672349 
L 105.517093 73.783463 
L 105.54679 73.716101 
L 105.665578 72.629933 
L 106.101132 65.924501 
L 106.368405 58.545888 
L 106.526788 46.431308 
L 106.645576 37.668107 
L 106.695071 39.096727 
L 106.853454 57.317422 
L 107.08113 72.130928 
L 107.170221 72.74368 
L 107.219716 72.633882 
L 107.358302 71.328934 
L 107.783957 64.635156 
L 108.011634 58.090101 
L 108.189815 45.316238 
L 108.298704 39.491742 
L 108.3383 40.62811 
L 108.476885 55.279049 
L 108.714461 71.305388 
L 108.823349 72.048141 
L 108.862945 71.967477 
L 109.001531 71.017655 
L 109.268803 67.512655 
L 109.734054 58.793684 
L 109.902337 49.474332 
L 110.06072 39.977941 
L 110.100316 40.961221 
L 110.238902 53.549825 
L 110.496275 70.423391 
L 110.595265 71.243073 
L 110.634861 71.126066 
L 110.822941 69.506328 
L 111.159506 64.854631 
L 111.486172 56.309408 
L 111.753444 42.234433 
L 111.832636 45.490985 
L 112.258292 70.097544 
L 112.327585 70.292645 
L 112.377079 70.208747 
L 112.505766 69.385062 
L 112.921523 64.220249 
L 113.188795 58.6994 
L 113.42637 47.925425 
L 113.545158 44.117756 
L 113.584754 44.79856 
L 113.703541 52.512553 
L 114.000511 69.062642 
L 114.139096 69.964732 
L 114.168793 69.942065 
L 114.277682 69.532915 
L 114.505358 67.555709 
L 114.841923 63.442608 
L 115.109195 57.390473 
L 115.346771 44.500653 
L 115.406164 42.90305 
L 115.465558 44.164415 
L 115.623942 57.155913 
L 115.871416 69.568792 
L 115.970406 70.167584 
L 116.019901 70.092869 
L 116.198082 69.207806 
L 116.485152 66.10184 
L 116.980101 58.787266 
L 117.187979 53.309452 
L 117.395857 46.916075 
L 117.445352 47.567728 
L 117.56414 54.048083 
L 117.871008 68.668794 
L 118.009594 69.447053 
L 118.029391 69.432645 
L 118.128381 69.119268 
L 118.356057 67.369472 
L 118.880703 60.326386 
L 119.108379 54.221665 
L 119.345954 43.893152 
L 119.405348 45.368695 
L 119.593429 60.498837 
L 119.821105 69.896237 
L 119.959691 70.66931 
L 119.989388 70.641152 
L 120.078478 70.159836 
L 120.395245 66.454396 
L 120.890194 58.905258 
L 121.098072 52.857627 
L 121.305951 45.81729 
L 121.355445 46.493626 
L 121.474233 53.499537 
L 121.771202 68.487278 
L 121.909788 69.302423 
L 121.939485 69.275457 
L 122.048373 68.854642 
L 122.236454 66.919199 
L 123.028371 55.430197 
L 123.206553 53.447994 
L 123.246149 53.560728 
L 123.345138 54.828739 
L 123.948976 65.785811 
L 123.99847 65.694737 
L 124.146955 64.697193 
L 125.186347 55.950967 
L 125.25564 56.225269 
L 125.463518 58.650522 
L 125.938669 64.064349 
L 126.156446 64.603179 
L 126.176244 64.591041 
L 126.295032 64.319905 
L 126.512809 63.059672 
L 127.334423 57.897915 
L 127.403716 57.988892 
L 127.532403 58.501129 
L 127.760079 60.709104 
L 128.03725 63.015799 
L 128.215432 63.400434 
L 128.255028 63.353816 
L 128.363916 62.850647 
L 128.789572 60.78067 
L 128.987551 60.580228 
L 129.09644 60.66245 
L 129.4825 61.324813 
L 129.492399 61.319706 
L 129.591389 61.121961 
L 129.848762 60.207751 
L 129.908156 60.284115 
L 130.25462 61.223056 
L 130.799063 63.804344 
L 130.808962 63.799627 
L 130.878255 63.589414 
L 131.135628 62.859349 
L 131.294012 61.916452 
L 131.699869 59.412086 
L 132.056232 58.195533 
L 132.135424 58.477969 
L 132.303706 60.461739 
L 132.620474 63.372032 
L 132.778857 63.545442 
L 132.986735 63.379381 
L 133.164917 62.966136 
L 133.352997 61.62735 
L 133.847946 58.17293 
L 133.966733 57.907875 
L 134.006329 57.990194 
L 134.135016 58.945524 
L 134.66956 63.362331 
L 134.827944 63.647323 
L 134.857641 63.625959 
L 134.95663 63.331062 
L 135.738649 59.909074 
L 135.817841 60.057535 
L 135.976224 61.027405 
L 136.273194 62.458119 
L 136.570163 63.293133 
L 136.758243 63.301411 
L 136.768142 63.272979 
L 136.88693 62.496506 
L 137.599656 56.636784 
L 137.629352 56.676427 
L 137.728342 57.347166 
L 137.926322 60.725644 
L 138.193594 63.695445 
L 138.460866 64.647098 
L 138.470765 64.64415 
L 138.549957 64.454449 
L 138.787532 63.019815 
L 139.331975 59.583619 
L 139.619045 58.27802 
L 139.66854 58.367251 
L 139.826924 59.502848 
L 140.311973 62.737522 
L 140.34167 62.717444 
L 140.559448 62.18473 
L 140.767326 61.804425 
L 140.777225 61.80802 
L 141.024699 61.957743 
L 141.064295 61.842651 
L 141.598839 60.177606 
L 141.737425 60.012893 
L 141.767122 60.045603 
L 141.994798 60.661229 
L 142.598635 62.663087 
L 142.737221 62.732453 
L 142.766918 62.657281 
L 143.261866 61.211022 
L 143.42025 60.980758 
L 143.459846 61.035814 
L 143.60833 61.647202 
L 143.766714 62.144729 
L 143.796411 62.124324 
L 143.925097 61.806802 
L 144.509137 60.068927 
L 144.627924 60.112343 
L 144.806106 60.458307 
L 145.251559 62.508812 
L 145.330751 62.540229 
L 145.370347 62.477932 
L 145.855397 61.084217 
L 146.261254 59.379136 
L 146.370143 59.386244 
L 146.380042 59.398077 
L 146.627516 59.89314 
L 146.894789 61.111891 
L 147.142263 62.104939 
L 147.162061 62.097271 
L 147.270949 62.14497 
L 147.419434 62.403815 
L 147.468929 62.325114 
L 147.726302 61.206148 
L 147.963877 60.611014 
L 148.102463 60.646639 
L 148.359836 61.19649 
L 148.60731 61.678573 
L 149.082461 61.846402 
L 149.963469 60.718717 
L 150.062459 60.926431 
L 150.171348 61.135993 
L 150.220843 61.080956 
L 150.369327 60.986505 
L 150.389125 61.005031 
L 150.695993 61.218717 
L 150.963265 61.236935 
L 151.240436 61.397635 
L 151.260234 61.373594 
L 151.458214 61.173658 
L 151.487911 61.214893 
L 151.656193 61.822836 
L 151.834375 62.029178 
L 152.210536 62.222152 
L 152.349121 61.850918 
L 152.507505 61.335476 
L 152.556999 61.386433 
L 153.299422 62.456056 
L 153.339018 62.428653 
L 153.497402 62.209793 
L 154.111138 60.641506 
L 154.200229 60.782335 
L 154.556591 61.540035 
L 154.56649 61.533959 
L 154.655581 61.306356 
L 154.883257 60.884855 
L 154.972348 60.81661 
L 155.011944 60.859341 
L 155.130732 60.992481 
L 155.180227 60.921882 
L 155.279216 60.79698 
L 155.328711 60.852958 
L 156.150326 62.206794 
L 156.288911 62.343277 
L 156.378002 62.347496 
L 156.407699 62.300496 
L 157.130324 60.925294 
L 157.160021 60.952236 
L 157.288707 61.331501 
L 157.704464 62.654062 
L 157.783656 62.708613 
L 157.823252 62.658658 
L 158.644866 60.671427 
L 158.872542 59.819931 
L 159.080421 59.496497 
L 159.149714 59.622806 
L 159.2784 60.350188 
L 159.713955 62.934861 
L 159.981227 63.797902 
L 160.030722 63.815261 
L 160.070318 63.749071 
L 160.327691 62.771408 
L 160.82264 60.076725 
L 160.891932 59.967267 
L 160.941427 60.054833 
L 161.703648 62.32227 
L 161.911526 62.113561 
L 162.159001 61.400699 
L 162.228293 61.499179 
L 162.45597 62.224797 
L 162.564858 62.109247 
L 162.653949 62.216042 
L 162.713343 62.254733 
L 162.752939 62.182879 
L 163.435968 60.492074 
L 163.673543 60.308518 
L 163.693341 60.328911 
L 163.80223 60.66987 
L 164.267481 62.386887 
L 164.37637 62.476365 
L 164.524854 62.711604 
L 164.56445 62.65155 
L 164.742632 62.211134 
L 164.802026 62.31151 
L 164.970308 62.693268 
L 165.019803 62.618459 
L 165.287075 61.629307 
L 165.564246 60.854463 
L 165.732529 60.747803 
L 165.970104 60.033334 
L 166.049296 60.197015 
L 166.920405 62.575824 
L 167.049092 62.718786 
L 167.088688 62.671403 
L 167.247071 62.167621 
L 167.464849 60.351778 
L 167.633131 59.168532 
L 167.662828 59.204111 
L 167.9301 60.096985 
L 168.227069 61.507577 
L 168.464645 62.218767 
L 168.613129 62.387496 
L 168.642826 62.368265 
L 168.80121 62.075044 
L 169.157572 61.105916 
L 169.17737 61.114288 
L 169.286259 61.052433 
L 169.523834 60.836847 
L 169.820803 60.843335 
L 170.018783 60.419107 
L 170.068278 60.491185 
L 170.196964 61.100203 
L 170.444439 62.068772 
L 170.781004 62.130435 
L 170.929488 62.060651 
L 170.949286 62.077016 
L 171.077973 62.139622 
L 171.10767 62.093861 
L 171.503628 61.001465 
L 171.939183 59.445437 
L 172.018375 59.544218 
L 172.176758 60.315287 
L 172.780596 63.47417 
L 172.83009 63.441363 
L 173.057767 63.006534 
L 173.295342 62.329996 
L 173.730897 60.253701 
L 173.88928 60.136248 
L 173.909078 60.152877 
L 174.027866 60.461885 
L 174.740592 63.060641 
L 174.780188 63.035055 
L 175.166247 62.395882 
L 175.552307 61.237925 
L 175.770085 61.237682 
L 175.878973 61.273502 
L 175.90867 61.22945 
L 176.047256 61.006486 
L 176.096751 61.066063 
L 176.215538 61.207041 
L 176.255134 61.149758 
L 176.651093 60.028583 
L 176.898567 59.043764 
L 176.938163 59.102482 
L 177.047052 59.678517 
L 177.611293 63.386462 
L 177.690485 63.376173 
L 177.710283 63.341299 
L 178.264625 61.781492 
L 178.482402 59.841323 
L 178.729877 58.273097 
L 178.779372 58.350125 
L 178.898159 59.280329 
L 179.323815 62.774014 
L 179.492097 62.92086 
L 179.630683 62.81166 
L 179.977147 61.890759 
L 180.185025 61.496398 
L 180.551287 61.10695 
L 180.709671 60.88473 
L 180.90765 60.553888 
L 180.947246 60.577608 
L 181.105629 60.546573 
L 181.254114 60.412982 
L 181.29371 60.475064 
L 181.897547 61.710419 
L 181.956941 61.651877 
L 182.333102 60.938435 
L 182.719162 58.999722 
L 182.936939 57.654043 
L 182.966636 57.698693 
L 183.075525 58.417404 
L 183.362595 61.951473 
L 183.659564 64.400928 
L 183.768452 64.577968 
L 183.808048 64.536545 
L 183.926836 64.090226 
L 184.56037 61.145492 
L 184.619764 61.128086 
L 184.65936 61.200434 
L 185.164207 62.386429 
L 185.184005 62.375265 
L 185.292894 62.106178 
L 185.787842 60.527459 
L 185.946226 60.582641 
L 185.975923 60.51127 
L 186.361983 59.754828 
L 186.431275 59.783528 
L 186.441174 59.805407 
L 186.550063 60.43785 
L 187.06481 63.744903 
L 187.144001 63.650432 
L 187.371678 62.776513 
L 188.193292 59.353229 
L 188.321979 58.919186 
L 188.361575 58.960295 
L 188.50016 59.488572 
L 189.163391 62.810024 
L 189.351472 63.255727 
L 189.391068 63.212572 
L 189.84642 61.972378 
L 190.371066 59.980722 
L 190.559146 60.144545 
L 190.737327 60.802787 
L 191.024398 61.505653 
L 191.321367 61.618465 
L 191.519346 61.908268 
L 191.549043 61.882157 
L 192.014295 61.379638 
L 192.024194 61.388765 
L 192.142981 61.449169 
L 192.172678 61.410822 
L 192.647829 60.497917 
L 192.885404 59.715757 
L 192.905202 59.727727 
L 193.02399 59.997769 
L 193.716918 62.150053 
L 193.944594 62.439522 
L 193.964392 62.428374 
L 194.152472 62.422498 
L 194.291058 62.377371 
L 194.439542 61.85335 
L 194.716714 61.106298 
L 194.835501 61.202172 
L 195.023582 61.732339 
L 195.112672 61.580161 
L 195.528429 60.288678 
L 195.746206 59.771312 
L 195.815499 59.789145 
L 195.835297 59.831718 
L 196.00358 60.653628 
L 196.399538 61.975468 
L 196.617316 62.473386 
L 196.656912 62.405652 
L 197.25085 60.732759 
L 197.280547 60.753562 
L 197.429031 61.080365 
L 198.02297 62.104575 
L 198.250646 61.825685 
L 198.666403 61.109916 
L 198.715897 61.314908 
L 198.775291 63.154791 
L 198.864382 75.932665 
L 199.141553 114.619922 
L 199.448421 124.595537 
L 199.864178 131.432502 
L 200.458116 137.392992 
L 201.012459 141.100866 
L 201.645993 144.07104 
L 202.566597 147.161245 
L 203.408009 149.153233 
L 205.090834 151.627416 
L 206.318307 152.798922 
L 206.694467 153.058194 
L 206.971639 153.247809 
L 207.525981 153.725265 
L 207.753657 153.80927 
L 207.991233 153.949867 
L 208.278303 154.16926 
L 208.733655 154.342495 
L 209.416684 154.723393 
L 209.664158 154.832806 
L 210.050218 155.008077 
L 210.327389 155.187888 
L 211.08961 155.449196 
L 211.406377 155.533344 
L 211.703346 155.675297 
L 213.930615 156.172143 
L 214.306776 156.261101 
L 214.732431 156.354655 
L 215.138289 156.370785 
L 218.20697 156.996493 
L 220.751005 157.245592 
L 221.146964 157.336771 
L 221.691407 157.38559 
L 221.998275 157.35939 
L 222.750597 157.38386 
L 222.899082 157.437274 
L 223.136657 157.541247 
L 223.502919 157.466709 
L 223.690999 157.453353 
L 223.87908 156.986586 
L 224.086958 156.683051 
L 224.314634 156.666205 
L 225.957863 157.280788 
L 226.136045 157.317766 
L 226.334024 157.323773 
L 226.541903 157.329525 
L 228.10594 157.422117 
L 228.947352 157.441614 
L 229.303715 157.389438 
L 230.362905 157.482132 
L 230.79846 157.472123 
L 233.39199 157.519151 
L 233.837444 157.565544 
L 234.025524 157.531913 
L 234.332392 157.515876 
L 234.480877 157.492111 
L 234.659058 157.445605 
L 235.035219 157.47331 
L 235.747945 157.412404 
L 236.035015 157.392283 
L 238.638444 157.389152 
L 238.984908 157.331408 
L 239.182888 157.326956 
L 239.945108 157.292834 
L 240.707329 156.524129 
L 241.439853 156.715525 
L 242.647527 156.988418 
L 242.964294 156.968881 
L 243.409748 156.96493 
L 243.954191 157.128683 
L 244.468938 157.107026 
L 244.904492 157.14776 
L 245.864692 157.173254 
L 246.607115 157.143994 
L 247.448528 157.121529 
L 248.359233 157.118213 
L 248.359233 157.118213 
" clip-path="url(#pc3f80b2867)" style="fill: none; stroke: #000000; stroke-opacity: 0.5; stroke-width: 1.5; stroke-linecap: square"/>
   </g>
   <g id="patch_3">
    <path d="M 35.304688 173.52 
L 35.304688 7.2 
" style="fill: none; stroke: #000000; stroke-width: 0.8; stroke-linejoin: miter; stroke-linecap: square"/>
   </g>
   <g id="patch_4">
    <path d="M 35.304688 173.52 
L 258.504687 173.52 
" style="fill: none; stroke: #000000; stroke-width: 0.8; stroke-linejoin: miter; stroke-linecap: square"/>
   </g>
  </g>
 </g>
 <defs>
  <clipPath id="pc3f80b2867">
   <rect x="35.304688" y="7.2" width="223.2" height="166.32"/>
  </clipPath>
 </defs>
</svg>
