<?xml version="1.0" encoding="utf-8" standalone="no"?>
<!DOCTYPE svg PUBLIC "-//W3C//DTD SVG 1.1//EN"
  "http://www.w3.org/Graphics/SVG/1.1/DTD/svg11.dtd">
<svg xmlns:xlink="http://www.w3.org/1999/xlink" width="272.067188pt" height="197.398125pt" viewBox="0 0 272.067188 197.398125" xmlns="http://www.w3.org/2000/svg" version="1.1">
 <metadata>
  <rdf:RDF xmlns:dc="http://purl.org/dc/elements/1.1/" xmlns:cc="http://creativecommons.org/ns#" xmlns:rdf="http://www.w3.org/1999/02/22-rdf-syntax-ns#">
   <cc:Work>
    <dc:type rdf:resource="http://purl.org/dc/dcmitype/StillImage"/>
    <dc:date>2024-09-15T09:32:16.217840</dc:date>
    <dc:format>image/svg+xml</dc:format>
    <dc:creator>
     <cc:Agent>
      <dc:title>Matplotlib v3.9.2, https://matplotlib.org/</dc:title>
     </cc:Agent>
    </dc:creator>
   </cc:Work>
  </rdf:RDF>
 </metadata>
 <defs>
  <style type="text/css">*{stroke-linejoin: round; stroke-linecap: butt}</style>
 </defs>
 <g id="figure_1">
  <g id="patch_1">
   <path d="M 0 197.398125 
L 272.067188 197.398125 
L 272.067188 0 
L 0 0 
z
" style="fill: #ffffff"/>
  </g>
  <g id="axes_1">
   <g id="patch_2">
    <path d="M 41.667188 173.52 
L 264.867188 173.52 
L 264.867188 7.2 
L 41.667188 7.2 
z
" style="fill: #ffffff"/>
   </g>
   <g id="matplotlib.axis_1">
    <g id="xtick_1">
     <g id="line2d_1">
      <defs>
       <path id="mc76e5ebec2" d="M 0 0 
L 0 3.5 
" style="stroke: #000000; stroke-width: 0.8"/>
      </defs>
      <g>
       <use xlink:href="#mc76e5ebec2" x="72.080192" y="173.52" style="stroke: #000000; stroke-width: 0.8"/>
      </g>
     </g>
     <g id="text_1">
      <!-- 0.25 -->
      <g transform="translate(60.947379 188.118438) scale(0.1 -0.1)">
       <defs>
        <path id="DejaVuSans-30" d="M 2034 4250 
Q 1547 4250 1301 3770 
Q 1056 3291 1056 2328 
Q 1056 1369 1301 889 
Q 1547 409 2034 409 
Q 2525 409 2770 889 
Q 3016 1369 3016 2328 
Q 3016 3291 2770 3770 
Q 2525 4250 2034 4250 
z
M 2034 4750 
Q 2819 4750 3233 4129 
Q 3647 3509 3647 2328 
Q 3647 1150 3233 529 
Q 2819 -91 2034 -91 
Q 1250 -91 836 529 
Q 422 1150 422 2328 
Q 422 3509 836 4129 
Q 1250 4750 2034 4750 
z
" transform="scale(0.015625)"/>
        <path id="DejaVuSans-2e" d="M 684 794 
L 1344 794 
L 1344 0 
L 684 0 
L 684 794 
z
" transform="scale(0.015625)"/>
        <path id="DejaVuSans-32" d="M 1228 531 
L 3431 531 
L 3431 0 
L 469 0 
L 469 531 
Q 828 903 1448 1529 
Q 2069 2156 2228 2338 
Q 2531 2678 2651 2914 
Q 2772 3150 2772 3378 
Q 2772 3750 2511 3984 
Q 2250 4219 1831 4219 
Q 1534 4219 1204 4116 
Q 875 4013 500 3803 
L 500 4441 
Q 881 4594 1212 4672 
Q 1544 4750 1819 4750 
Q 2544 4750 2975 4387 
Q 3406 4025 3406 3419 
Q 3406 3131 3298 2873 
Q 3191 2616 2906 2266 
Q 2828 2175 2409 1742 
Q 1991 1309 1228 531 
z
" transform="scale(0.015625)"/>
        <path id="DejaVuSans-35" d="M 691 4666 
L 3169 4666 
L 3169 4134 
L 1269 4134 
L 1269 2991 
Q 1406 3038 1543 3061 
Q 1681 3084 1819 3084 
Q 2600 3084 3056 2656 
Q 3513 2228 3513 1497 
Q 3513 744 3044 326 
Q 2575 -91 1722 -91 
Q 1428 -91 1123 -41 
Q 819 9 494 109 
L 494 744 
Q 775 591 1075 516 
Q 1375 441 1709 441 
Q 2250 441 2565 725 
Q 2881 1009 2881 1497 
Q 2881 1984 2565 2268 
Q 2250 2553 1709 2553 
Q 1456 2553 1204 2497 
Q 953 2441 691 2322 
L 691 4666 
z
" transform="scale(0.015625)"/>
       </defs>
       <use xlink:href="#DejaVuSans-30"/>
       <use xlink:href="#DejaVuSans-2e" x="63.623047"/>
       <use xlink:href="#DejaVuSans-32" x="95.410156"/>
       <use xlink:href="#DejaVuSans-35" x="159.033203"/>
      </g>
     </g>
    </g>
    <g id="xtick_2">
     <g id="line2d_2">
      <g>
       <use xlink:href="#mc76e5ebec2" x="106.431971" y="173.52" style="stroke: #000000; stroke-width: 0.8"/>
      </g>
     </g>
     <g id="text_2">
      <!-- 0.50 -->
      <g transform="translate(95.299159 188.118438) scale(0.1 -0.1)">
       <use xlink:href="#DejaVuSans-30"/>
       <use xlink:href="#DejaVuSans-2e" x="63.623047"/>
       <use xlink:href="#DejaVuSans-35" x="95.410156"/>
       <use xlink:href="#DejaVuSans-30" x="159.033203"/>
      </g>
     </g>
    </g>
    <g id="xtick_3">
     <g id="line2d_3">
      <g>
       <use xlink:href="#mc76e5ebec2" x="140.783751" y="173.52" style="stroke: #000000; stroke-width: 0.8"/>
      </g>
     </g>
     <g id="text_3">
      <!-- 0.75 -->
      <g transform="translate(129.650938 188.118438) scale(0.1 -0.1)">
       <defs>
        <path id="DejaVuSans-37" d="M 525 4666 
L 3525 4666 
L 3525 4397 
L 1831 0 
L 1172 0 
L 2766 4134 
L 525 4134 
L 525 4666 
z
" transform="scale(0.015625)"/>
       </defs>
       <use xlink:href="#DejaVuSans-30"/>
       <use xlink:href="#DejaVuSans-2e" x="63.623047"/>
       <use xlink:href="#DejaVuSans-37" x="95.410156"/>
       <use xlink:href="#DejaVuSans-35" x="159.033203"/>
      </g>
     </g>
    </g>
    <g id="xtick_4">
     <g id="line2d_4">
      <g>
       <use xlink:href="#mc76e5ebec2" x="175.13553" y="173.52" style="stroke: #000000; stroke-width: 0.8"/>
      </g>
     </g>
     <g id="text_4">
      <!-- 1.00 -->
      <g transform="translate(164.002718 188.118438) scale(0.1 -0.1)">
       <defs>
        <path id="DejaVuSans-31" d="M 794 531 
L 1825 531 
L 1825 4091 
L 703 3866 
L 703 4441 
L 1819 4666 
L 2450 4666 
L 2450 531 
L 3481 531 
L 3481 0 
L 794 0 
L 794 531 
z
" transform="scale(0.015625)"/>
       </defs>
       <use xlink:href="#DejaVuSans-31"/>
       <use xlink:href="#DejaVuSans-2e" x="63.623047"/>
       <use xlink:href="#DejaVuSans-30" x="95.410156"/>
       <use xlink:href="#DejaVuSans-30" x="159.033203"/>
      </g>
     </g>
    </g>
    <g id="xtick_5">
     <g id="line2d_5">
      <g>
       <use xlink:href="#mc76e5ebec2" x="209.48731" y="173.52" style="stroke: #000000; stroke-width: 0.8"/>
      </g>
     </g>
     <g id="text_5">
      <!-- 1.25 -->
      <g transform="translate(198.354497 188.118438) scale(0.1 -0.1)">
       <use xlink:href="#DejaVuSans-31"/>
       <use xlink:href="#DejaVuSans-2e" x="63.623047"/>
       <use xlink:href="#DejaVuSans-32" x="95.410156"/>
       <use xlink:href="#DejaVuSans-35" x="159.033203"/>
      </g>
     </g>
    </g>
    <g id="xtick_6">
     <g id="line2d_6">
      <g>
       <use xlink:href="#mc76e5ebec2" x="243.839089" y="173.52" style="stroke: #000000; stroke-width: 0.8"/>
      </g>
     </g>
     <g id="text_6">
      <!-- 1.50 -->
      <g transform="translate(232.706277 188.118438) scale(0.1 -0.1)">
       <use xlink:href="#DejaVuSans-31"/>
       <use xlink:href="#DejaVuSans-2e" x="63.623047"/>
       <use xlink:href="#DejaVuSans-35" x="95.410156"/>
       <use xlink:href="#DejaVuSans-30" x="159.033203"/>
      </g>
     </g>
    </g>
   </g>
   <g id="matplotlib.axis_2">
    <g id="ytick_1">
     <g id="line2d_7">
      <defs>
       <path id="me30fb15ff5" d="M 0 0 
L -3.5 0 
" style="stroke: #000000; stroke-width: 0.8"/>
      </defs>
      <g>
       <use xlink:href="#me30fb15ff5" x="41.667188" y="148.566862" style="stroke: #000000; stroke-width: 0.8"/>
      </g>
     </g>
     <g id="text_7">
      <!-- −200 -->
      <g transform="translate(7.2 152.366081) scale(0.1 -0.1)">
       <defs>
        <path id="DejaVuSans-2212" d="M 678 2272 
L 4684 2272 
L 4684 1741 
L 678 1741 
L 678 2272 
z
" transform="scale(0.015625)"/>
       </defs>
       <use xlink:href="#DejaVuSans-2212"/>
       <use xlink:href="#DejaVuSans-32" x="83.789062"/>
       <use xlink:href="#DejaVuSans-30" x="147.412109"/>
       <use xlink:href="#DejaVuSans-30" x="211.035156"/>
      </g>
     </g>
    </g>
    <g id="ytick_2">
     <g id="line2d_8">
      <g>
       <use xlink:href="#me30fb15ff5" x="41.667188" y="117.964506" style="stroke: #000000; stroke-width: 0.8"/>
      </g>
     </g>
     <g id="text_8">
      <!-- −100 -->
      <g transform="translate(7.2 121.763725) scale(0.1 -0.1)">
       <use xlink:href="#DejaVuSans-2212"/>
       <use xlink:href="#DejaVuSans-31" x="83.789062"/>
       <use xlink:href="#DejaVuSans-30" x="147.412109"/>
       <use xlink:href="#DejaVuSans-30" x="211.035156"/>
      </g>
     </g>
    </g>
    <g id="ytick_3">
     <g id="line2d_9">
      <g>
       <use xlink:href="#me30fb15ff5" x="41.667188" y="87.362149" style="stroke: #000000; stroke-width: 0.8"/>
      </g>
     </g>
     <g id="text_9">
      <!-- 0 -->
      <g transform="translate(28.304688 91.161368) scale(0.1 -0.1)">
       <use xlink:href="#DejaVuSans-30"/>
      </g>
     </g>
    </g>
    <g id="ytick_4">
     <g id="line2d_10">
      <g>
       <use xlink:href="#me30fb15ff5" x="41.667188" y="56.759793" style="stroke: #000000; stroke-width: 0.8"/>
      </g>
     </g>
     <g id="text_10">
      <!-- 100 -->
      <g transform="translate(15.579688 60.559012) scale(0.1 -0.1)">
       <use xlink:href="#DejaVuSans-31"/>
       <use xlink:href="#DejaVuSans-30" x="63.623047"/>
       <use xlink:href="#DejaVuSans-30" x="127.246094"/>
      </g>
     </g>
    </g>
    <g id="ytick_5">
     <g id="line2d_11">
      <g>
       <use xlink:href="#me30fb15ff5" x="41.667188" y="26.157437" style="stroke: #000000; stroke-width: 0.8"/>
      </g>
     </g>
     <g id="text_11">
      <!-- 200 -->
      <g transform="translate(15.579688 29.956656) scale(0.1 -0.1)">
       <use xlink:href="#DejaVuSans-32"/>
       <use xlink:href="#DejaVuSans-30" x="63.623047"/>
       <use xlink:href="#DejaVuSans-30" x="127.246094"/>
      </g>
     </g>
    </g>
   </g>
   <g id="line2d_12">
    <path d="M 51.812642 98.242199 
L 52.005012 98.242199 
L 55.344005 98.33559 
L 56.003559 101.342779 
L 56.223411 102.239333 
L 56.97915 105.302557 
L 61.128845 119.021692 
L 61.486103 120.002298 
L 63.16247 124.251587 
L 63.396062 124.755899 
L 64.028135 126.166103 
L 64.234245 126.614379 
L 64.564023 127.352168 
L 64.756393 127.800445 
L 65.27854 128.902458 
L 65.67702 129.630908 
L 66.721314 131.508067 
L 67.202239 132.348586 
L 67.738127 133.198443 
L 67.889275 133.431921 
L 68.38394 134.197727 
L 68.548829 134.440544 
L 68.823643 134.870142 
L 68.988532 135.112959 
L 75.336741 143.555503 
L 75.542851 143.826337 
L 77.494032 146.291859 
L 77.590217 146.394589 
L 77.906254 146.740136 
L 78.648252 147.561977 
L 78.936807 147.888845 
L 79.486436 148.449191 
L 80.14599 149.028215 
L 80.516989 149.345744 
L 80.91547 149.747326 
L 81.135321 149.962125 
L 81.272728 150.064855 
L 82.399466 150.961408 
L 82.770466 151.288277 
L 82.880391 151.391007 
L 83.512464 152.072761 
L 83.704834 152.175491 
L 84.21324 152.651785 
L 84.639202 153.053366 
L 84.721647 153.109401 
L 85.188831 153.567017 
L 85.326238 153.669747 
L 85.628534 153.893885 
L 85.765941 153.996615 
L 87.662159 155.154663 
L 87.785825 155.229376 
L 87.950714 155.360124 
L 88.211788 155.528227 
L 88.431639 155.630957 
L 88.610268 155.696331 
L 88.816379 155.799061 
L 89.02249 155.892452 
L 89.146156 155.929809 
L 89.407229 156.097912 
L 90.643894 157.059839 
L 90.836264 157.2653 
L 92.663778 158.385991 
L 92.787445 158.423348 
L 93.268369 158.628808 
L 93.419517 158.656825 
L 93.845479 158.81559 
L 94.188997 158.908981 
L 94.43633 159.058406 
L 94.930996 159.151797 
L 95.137106 159.245188 
L 95.755438 159.553379 
L 95.865364 159.581396 
L 96.153919 159.674787 
L 96.36003 159.768178 
L 96.978362 160.067029 
L 97.088287 160.113725 
L 97.459287 160.235133 
L 97.596694 160.272489 
L 97.885249 160.337863 
L 98.132581 160.440593 
L 98.462359 160.543323 
L 98.613506 160.57134 
L 98.902061 160.636714 
L 99.602838 160.739444 
L 99.960096 160.851513 
L 100.248651 160.954243 
L 100.550947 161.047634 
L 100.660872 161.084991 
L 101.059353 161.225077 
L 101.237982 161.234416 
L 101.718907 161.430537 
L 101.856314 161.467894 
L 102.048684 161.542607 
L 102.296017 161.579963 
L 102.667016 161.673354 
L 102.818164 161.692032 
L 102.983053 161.692032 
L 103.161682 161.766745 
L 103.271608 161.785423 
L 103.491459 161.897492 
L 103.766273 162.000222 
L 104.027347 162.056257 
L 104.219717 162.056257 
L 104.590716 162.177665 
L 105.112863 162.271056 
L 105.318974 162.364447 
L 105.332714 162.33643 
L 105.428899 162.392464 
L 105.854861 162.495195 
L 106.225861 162.616603 
L 106.638082 162.719333 
L 106.885415 162.756689 
L 107.36634 162.85008 
L 107.544969 162.906115 
L 107.833524 163.008845 
L 108.13582 163.083558 
L 108.493078 163.176949 
L 108.657967 163.214305 
L 109.042707 163.345053 
L 109.784705 163.447783 
L 110.059519 163.513156 
L 110.196926 163.531834 
L 110.375556 163.606547 
L 110.512963 163.597208 
L 110.787777 163.653243 
L 111.241221 163.746634 
L 111.41985 163.812007 
L 111.516035 163.812007 
L 111.529775 163.830686 
L 111.873293 163.933416 
L 112.20307 164.026807 
L 112.3817 164.101519 
L 112.519107 164.129537 
L 112.752699 164.260284 
L 112.958809 164.363014 
L 113.412253 164.549796 
L 113.535919 164.559135 
L 113.989363 164.745917 
L 114.113029 164.755256 
L 114.676398 164.857986 
L 114.882509 164.876665 
L 115.047398 164.895343 
L 115.404656 165.016751 
L 115.528323 165.035429 
L 115.693211 165.054107 
L 115.981766 165.156838 
L 116.201617 165.175516 
L 116.929875 165.268907 
L 117.081023 165.324941 
L 117.21843 165.352959 
L 117.397059 165.427671 
L 117.548207 165.44635 
L 117.726836 165.502384 
L 117.877984 165.474367 
L 118.056614 165.465028 
L 119.320759 165.567758 
L 119.458166 165.623792 
L 119.636795 165.623792 
L 119.884128 165.661149 
L 120.516201 165.75454 
L 120.68109 165.791896 
L 120.983385 165.866609 
L 121.120792 165.894626 
L 121.368125 165.950661 
L 121.505532 165.941322 
L 122.068901 165.847931 
L 122.261271 165.773218 
L 122.852122 165.670488 
L 123.085714 165.633132 
L 123.264343 165.633132 
L 123.442973 165.567758 
L 123.59412 165.54908 
L 123.827713 165.511723 
L 123.97886 165.483706 
L 125.201784 165.380976 
L 125.462857 165.33428 
L 126.383485 165.23155 
L 126.630818 165.184855 
L 126.768225 165.184855 
L 127.194187 165.091464 
L 127.372816 165.035429 
L 127.496483 165.035429 
L 127.716334 165.007412 
L 127.867482 164.998073 
L 128.01863 164.970056 
L 129.200331 164.867326 
L 129.433923 164.829969 
L 129.57133 164.867326 
L 131.50877 164.773935 
L 131.6874 164.7179 
L 131.824807 164.680544 
L 132.27825 164.577813 
L 132.498102 164.540457 
L 132.635509 164.549796 
L 135.768391 164.456405 
L 135.93328 164.40971 
L 136.881389 164.30698 
L 137.087499 164.297641 
L 139.492124 164.19491 
L 139.753197 164.148215 
L 140.522677 164.054824 
L 140.673825 164.026807 
L 140.852454 164.026807 
L 141.086047 163.98945 
L 141.250935 163.980111 
L 141.470786 163.961433 
L 142.418896 163.858703 
L 142.583784 163.877381 
L 143.559375 163.774651 
L 143.765485 163.755973 
L 143.957855 163.755973 
L 144.892224 163.849364 
L 145.070853 163.905398 
L 145.441852 164.036146 
L 145.634222 164.026807 
L 145.757889 164.026807 
L 145.963999 164.008128 
L 146.115147 164.026807 
L 146.321258 164.036146 
L 146.541109 164.008128 
L 146.678516 164.008128 
L 146.898368 163.98945 
L 147.750292 163.88672 
L 147.983884 163.849364 
L 148.176254 163.849364 
L 152.820614 163.746634 
L 153.012984 163.737295 
L 153.219095 163.746634 
L 153.452687 163.718616 
L 155.898534 163.615886 
L 156.090904 163.615886 
L 156.379459 163.690599 
L 156.59931 163.671921 
L 158.069566 163.774651 
L 158.275677 163.78399 
L 158.495528 163.765312 
L 159.127601 163.662582 
L 159.333712 163.634565 
L 159.471119 163.662582 
L 159.608526 163.653243 
L 159.759674 163.68126 
L 159.938303 163.68126 
L 160.103192 163.718616 
L 162.274224 163.821347 
L 162.494075 163.840025 
L 162.906297 163.933416 
L 163.057445 163.961433 
L 163.55211 164.064163 
L 163.785702 164.101519 
L 163.93685 164.120198 
L 164.225405 164.185571 
L 165.049848 164.288301 
L 165.297181 164.334997 
L 165.462069 164.353675 
L 167.495695 164.250945 
L 167.715546 164.232267 
L 169.405653 164.334997 
L 169.680468 164.400371 
L 169.817875 164.437727 
L 170.10643 164.51244 
L 170.243837 164.531118 
L 170.422466 164.587153 
L 170.930872 164.689883 
L 171.26065 164.792613 
L 171.439279 164.792613 
L 171.64539 164.801952 
L 171.865241 164.783274 
L 173.143127 164.886004 
L 173.362978 164.904682 
L 173.569089 164.886004 
L 173.706496 164.886004 
L 175.643937 164.792613 
L 175.767603 164.792613 
L 176.454639 164.689883 
L 176.743194 164.624509 
L 176.908082 164.605831 
L 177.155415 164.568474 
L 177.320303 164.549796 
L 177.485192 164.51244 
L 178.40582 164.40971 
L 178.61193 164.391032 
L 178.763078 164.363014 
L 182.967736 164.456405 
L 183.118884 164.484422 
L 187.10369 164.381692 
L 187.351023 164.334997 
L 187.543393 164.334997 
L 189.425871 164.241606 
L 189.577018 164.222928 
L 190.731238 164.129537 
L 190.882386 164.110859 
L 191.074756 164.110859 
L 191.322089 164.064163 
L 191.528199 164.073502 
L 192.764864 163.980111 
L 195.471784 153.398913 
L 196.955781 148.748042 
L 199.910034 141.015269 
L 199.978737 140.847165 
L 204.581876 131.713527 
L 205.24143 130.639531 
L 205.516244 130.200593 
L 205.667392 129.976455 
L 206.162058 129.201309 
L 206.230761 129.107918 
L 206.670464 128.463521 
L 211.177417 122.523854 
L 211.562157 122.15029 
L 211.754527 121.94483 
L 212.235452 121.477875 
L 212.757599 120.992242 
L 213.142339 120.646695 
L 213.266006 120.543965 
L 213.650745 120.198419 
L 213.760671 120.095689 
L 214.186633 119.703447 
L 214.873669 119.124422 
L 215.038557 118.984336 
L 216.330184 117.975713 
L 216.659961 117.70488 
L 216.797368 117.602149 
L 221.400507 114.585621 
L 221.482951 114.566943 
L 221.496692 114.548264 
L 222.499764 113.997258 
L 222.678393 113.903867 
L 222.911985 113.76378 
L 223.035652 113.717085 
L 223.214281 113.614355 
L 224.134909 113.110043 
L 224.244834 113.054009 
L 224.821944 112.783175 
L 224.945611 112.736479 
L 225.165462 112.615071 
L 225.289128 112.568376 
L 225.934942 112.241507 
L 226.044867 112.204151 
L 226.580755 111.961334 
L 226.704422 111.914639 
L 227.199087 111.699839 
L 227.309013 111.662483 
L 227.460161 111.58777 
L 227.570086 111.541075 
L 227.762456 111.457023 
L 227.982308 111.363632 
L 228.188419 111.260902 
L 228.298344 111.223545 
L 228.559418 111.120815 
L 229.150268 110.840642 
L 229.273935 110.793947 
L 229.452564 110.719234 
L 229.56249 110.700556 
L 229.782341 110.588487 
L 230.029674 110.495096 
L 230.222044 110.401705 
L 230.359451 110.364348 
L 230.840376 110.158888 
L 230.964042 110.112193 
L 231.238857 110.009463 
L 231.609856 109.878715 
L 231.747263 109.850698 
L 232.186966 109.673255 
L 232.310632 109.635899 
L 232.777816 109.449117 
L 233.080112 109.346387 
L 233.574778 109.140926 
L 233.712185 109.10357 
L 233.877073 109.019518 
L 234.01448 108.982162 
L 234.303035 108.888771 
L 234.454183 108.823397 
L 234.948849 108.617937 
L 235.209922 108.515207 
L 235.773291 108.263051 
L 235.910699 108.160321 
L 236.171772 107.870809 
L 236.446586 107.796096 
L 236.583993 107.824114 
L 236.721401 107.824114 
L 238.301582 107.721384 
L 238.535174 107.693366 
L 239.41458 107.590636 
L 239.634431 107.562619 
L 239.79932 107.543941 
L 240.637503 107.45055 
L 240.788651 107.413193 
L 240.96728 107.403854 
L 241.214613 107.366498 
L 241.846686 107.263768 
L 242.080278 107.217072 
L 242.203945 107.217072 
L 242.465018 107.170377 
L 242.616166 107.142359 
L 243.454349 107.039629 
L 243.687941 107.002273 
L 243.839089 106.983595 
L 244.003978 106.946238 
L 244.608569 106.843508 
L 244.883383 106.787474 
L 245.062013 106.778135 
L 245.336827 106.7221 
L 245.501715 106.703422 
L 245.749048 106.656726 
L 245.886455 106.666065 
L 246.16127 106.610031 
L 246.312417 106.591353 
L 246.546009 106.563335 
L 247.150601 106.479284 
L 247.288008 106.451266 
L 247.988784 106.357875 
L 248.139932 106.320519 
L 248.29108 106.292502 
L 248.552153 106.236467 
L 248.68956 106.236467 
L 248.950634 106.189771 
L 249.568966 106.09638 
L 249.720114 106.068363 
L 249.871262 106.049685 
L 250.008669 106.021668 
L 250.146076 106.021668 
L 250.407149 105.974972 
L 251.107926 105.872242 
L 251.38274 105.816208 
L 252.083516 105.722817 
L 252.234664 105.694799 
L 252.976663 105.601408 
L 253.12781 105.573391 
L 253.30644 105.564052 
L 254.07592 105.461322 
L 254.309512 105.433305 
L 254.721733 105.367931 
L 254.721733 105.367931 
" clip-path="url(#p01c1a15fc3)" style="fill: none; stroke: #000000; stroke-opacity: 0.5; stroke-width: 1.5; stroke-linecap: square"/>
   </g>
   <g id="line2d_13">
    <path d="M 51.812642 100.810451 
L 52.018753 100.801112 
L 55.398968 100.903842 
L 55.756226 101.557579 
L 56.429521 102.678271 
L 60.537994 108.076269 
L 60.881512 108.431155 
L 61.128845 108.69265 
L 61.211289 108.786041 
L 61.760917 109.346387 
L 62.131917 109.72929 
L 62.379249 109.990784 
L 62.461694 110.046819 
L 62.695286 110.270957 
L 63.16247 110.719234 
L 63.574691 111.092798 
L 63.684617 111.186189 
L 63.904468 111.38231 
L 64.31669 111.755874 
L 65.168614 112.465645 
L 65.333502 112.615071 
L 66.350315 113.436912 
L 66.707574 113.735763 
L 72.464932 117.518098 
L 72.671043 117.620828 
L 72.932116 117.788931 
L 74.113817 118.461347 
L 74.306187 118.564077 
L 75.199334 119.040371 
L 75.309259 119.096405 
L 76.806997 119.992959 
L 76.916922 120.039654 
L 77.164255 120.207758 
L 77.274181 120.254453 
L 77.521514 120.413218 
L 77.631439 120.459914 
L 77.823809 120.543965 
L 78.016179 120.646695 
L 78.483364 120.842817 
L 78.620771 120.880173 
L 78.840622 120.982903 
L 79.541398 121.32845 
L 79.788731 121.421841 
L 79.994842 121.515232 
L 80.242175 121.617962 
L 80.640655 121.767387 
L 80.791803 121.786065 
L 80.970432 121.851439 
L 81.094099 121.898135 
L 81.355172 122.000865 
L 81.863579 122.215664 
L 82.000986 122.25302 
L 82.440689 122.421124 
L 82.729244 122.523854 
L 83.059021 122.617245 
L 83.43002 122.710636 
L 83.608649 122.77601 
L 83.924685 122.87874 
L 84.378129 123.056183 
L 84.735387 123.158913 
L 85.078905 123.261643 
L 85.518608 123.364373 
L 85.834644 123.448425 
L 86.260606 123.551155 
L 86.631606 123.672563 
L 86.975123 123.775293 
L 87.442308 123.962075 
L 87.772085 124.064805 
L 88.225528 124.242248 
L 88.362935 124.270266 
L 88.610268 124.307622 
L 88.967527 124.410352 
L 89.146156 124.466387 
L 89.599599 124.64383 
L 90.039302 124.737221 
L 90.204191 124.774577 
L 90.355339 124.802594 
L 90.863745 124.895985 
L 91.014893 124.933342 
L 91.138559 124.942681 
L 91.372151 124.980037 
L 91.53704 124.998715 
L 91.93552 125.092106 
L 92.11415 125.148141 
L 92.279038 125.15748 
L 92.526371 125.204175 
L 92.663778 125.232193 
L 92.911111 125.278888 
L 93.062259 125.297566 
L 93.337073 125.372279 
L 93.460739 125.390957 
L 94.037849 125.493687 
L 94.340145 125.5684 
L 95.054662 125.661791 
L 95.233291 125.727165 
L 95.39818 125.745843 
L 95.79666 125.88593 
L 96.250104 125.98866 
L 96.497437 126.026016 
L 96.662325 126.035355 
L 96.909658 126.072712 
L 97.047065 126.063372 
L 97.280657 126.09139 
L 97.459287 126.100729 
L 98.118841 126.203459 
L 98.283729 126.240815 
L 98.695951 126.343545 
L 98.984506 126.408919 
L 99.561615 126.50231 
L 99.712763 126.530327 
L 99.863911 126.558345 
L 100.166207 126.633057 
L 100.647132 126.735788 
L 101.031872 126.866535 
L 101.499056 126.950587 
L 101.636463 126.987943 
L 102.144869 127.090673 
L 102.296017 127.109351 
L 102.859386 127.212082 
L 103.134201 127.268116 
L 103.532681 127.370846 
L 103.821236 127.43622 
L 104.08231 127.53895 
L 104.384605 127.613663 
L 104.893012 127.707054 
L 105.044159 127.74441 
L 105.209048 127.763088 
L 105.593788 127.865818 
L 105.854861 127.921853 
L 106.047231 127.921853 
L 106.184639 127.931192 
L 106.651823 128.024583 
L 106.802971 128.061939 
L 106.940378 128.061939 
L 107.256414 128.15533 
L 107.407562 128.16467 
L 107.57245 128.202026 
L 107.723598 128.230043 
L 108.424375 128.332773 
L 108.795374 128.454182 
L 108.946522 128.47286 
L 109.180114 128.510216 
L 109.331262 128.528894 
L 109.454928 128.566251 
L 109.468669 128.556912 
L 109.702261 128.594268 
L 109.867149 128.612946 
L 110.045779 128.668981 
L 111.03511 128.771711 
L 111.309924 128.827746 
L 112.354218 128.930476 
L 112.58781 128.958493 
L 114.552732 129.061223 
L 114.772583 129.08924 
L 114.937472 129.098579 
L 115.143583 129.107918 
L 115.349693 129.098579 
L 115.583285 129.126597 
L 119.045945 129.219988 
L 119.197093 129.248005 
L 119.375722 129.257344 
L 120.351312 129.360074 
L 120.612386 129.40677 
L 120.983385 129.5095 
L 121.354384 129.630908 
L 122.110124 129.724299 
L 122.275012 129.761655 
L 122.508604 129.789673 
L 123.759009 129.892403 
L 124.033823 129.948437 
L 124.226193 129.948437 
L 133.267581 130.051167 
L 133.528655 130.097863 
L 133.679803 130.12588 
L 134.847763 130.219271 
L 134.98517 130.237949 
L 135.122578 130.265967 
L 135.397392 130.322001 
L 135.534799 130.350019 
L 135.823354 130.424731 
L 136.001983 130.424731 
L 136.249316 130.462088 
L 136.977574 130.555479 
L 137.128722 130.574157 
L 138.420348 130.667548 
L 138.571496 130.686226 
L 139.02494 130.779617 
L 139.176088 130.816973 
L 139.340976 130.826313 
L 139.560827 130.844991 
L 140.124197 130.938382 
L 140.275345 130.95706 
L 140.522677 130.994416 
L 140.660084 131.031773 
L 141.223454 131.134503 
L 141.374601 131.153181 
L 141.594453 131.199876 
L 141.718119 131.199876 
L 142.130341 131.358641 
L 142.281488 131.386658 
L 142.597525 131.47071 
L 143.188375 131.564101 
L 143.353264 131.610797 
L 144.0403 131.713527 
L 144.493743 131.89097 
L 144.63115 131.918987 
L 144.809779 131.984361 
L 146.183851 132.087091 
L 146.36248 132.143125 
L 147.228145 132.245855 
L 147.585403 132.357925 
L 147.72281 132.385942 
L 147.90144 132.460655 
L 148.038847 132.488672 
L 148.437327 132.628758 
L 149.344214 132.731489 
L 149.605288 132.787523 
L 149.811398 132.778184 
L 150.03125 132.796862 
L 150.141176 132.796862 
L 150.154916 132.81554 
L 150.718285 132.908931 
L 150.910655 132.983644 
L 151.089285 132.992983 
L 151.95495 133.095713 
L 152.216023 133.142409 
L 152.35343 133.179765 
L 153.067947 133.282495 
L 153.260317 133.282495 
L 155.170276 133.375886 
L 155.321424 133.403904 
L 155.706164 133.506634 
L 156.145867 133.674737 
L 156.269533 133.712094 
L 156.448162 133.768128 
L 156.722977 133.824163 
L 156.956569 133.777468 
L 157.107716 133.796146 
L 157.327568 133.777468 
L 157.506197 133.768128 
L 161.216189 133.861519 
L 161.381078 133.898876 
L 161.532226 133.926893 
L 164.802515 134.020284 
L 164.981144 134.076319 
L 165.448328 134.179049 
L 165.709402 134.235083 
L 165.846809 134.225744 
L 167.317065 134.328474 
L 167.564398 134.365831 
L 170.862169 134.263101 
L 171.150724 134.197727 
L 171.906463 134.300457 
L 172.071352 134.347153 
L 172.222499 134.37517 
L 172.689684 134.459222 
L 172.854572 134.543274 
L 173.321756 134.730056 
L 173.596571 134.823447 
L 173.802681 134.916838 
L 174.104977 135.010229 
L 174.283606 135.075602 
L 174.530939 135.178332 
L 174.73705 135.281062 
L 174.984382 135.374453 
L 175.163012 135.430488 
L 175.575233 135.533218 
L 175.90501 135.626609 
L 176.427157 135.72 
L 176.605786 135.776035 
L 177.169156 135.878765 
L 177.44397 135.934799 
L 177.595118 135.962817 
L 178.076043 136.065547 
L 178.350857 136.121581 
L 178.502005 136.149599 
L 179.76615 136.242989 
L 179.931039 136.280346 
L 180.109668 136.280346 
L 180.329519 136.299024 
L 180.480667 136.317702 
L 180.700519 136.34572 
L 180.865407 136.308363 
L 181.11274 136.34572 
L 181.318851 136.327041 
L 181.524961 136.34572 
L 181.772294 136.289685 
L 181.909701 136.289685 
L 182.102071 136.280346 
L 182.239478 136.242989 
L 182.555515 136.158938 
L 183.888364 136.056208 
L 184.094474 136.046868 
L 184.314326 136.065547 
L 187.034987 135.972156 
L 187.186135 135.953477 
L 187.419727 135.981495 
L 187.625837 135.972156 
L 187.87317 136.009512 
L 188.06554 136.009512 
L 188.862501 135.906782 
L 189.109834 135.850747 
L 189.233501 135.841408 
L 189.467093 135.813391 
L 189.645722 135.804052 
L 191.459496 135.701322 
L 191.679347 135.682644 
L 192.462568 135.579914 
L 192.929752 135.150315 
L 193.355714 134.300457 
L 193.712973 133.637381 
L 194.04275 133.049018 
L 194.551156 132.171143 
L 195.21071 131.078468 
L 195.389339 130.826313 
L 195.842783 130.144558 
L 196.048894 129.873725 
L 198.851999 126.240815 
L 198.934443 126.156763 
L 199.195517 125.867251 
L 199.305442 125.764521 
L 199.758886 125.325584 
L 200.006219 125.05475 
L 200.116144 124.95202 
L 200.390959 124.64383 
L 200.816921 124.22357 
L 201.325327 123.719259 
L 201.861215 123.233626 
L 202.081066 123.037505 
L 202.507028 122.645263 
L 203.276508 122.000865 
L 203.482619 121.804744 
L 203.565063 121.748709 
L 203.908581 121.468536 
L 204.787986 120.740086 
L 205.145245 120.441235 
L 206.326946 119.507326 
L 206.615501 119.301865 
L 206.78039 119.208474 
L 206.97276 119.04971 
L 207.110167 118.956319 
L 207.412462 118.722841 
L 207.536129 118.620111 
L 210.792677 116.537492 
L 210.971307 116.444101 
L 211.218639 116.294676 
L 211.356047 116.201285 
L 211.548417 116.061198 
L 213.472116 114.875133 
L 213.568301 114.828437 
L 213.760671 114.688351 
L 213.870597 114.641655 
L 214.11793 114.482891 
L 214.227855 114.426856 
L 215.217187 113.885188 
L 215.327112 113.829154 
L 215.931704 113.548981 
L 216.124074 113.464929 
L 216.275221 113.390216 
L 216.536295 113.287486 
L 216.975998 113.110043 
L 217.099664 113.072687 
L 217.759218 112.755158 
L 217.99281 112.652427 
L 218.583661 112.381594 
L 218.830994 112.278863 
L 219.311919 112.082742 
L 219.572992 111.989351 
L 219.779103 111.886621 
L 220.081399 111.783891 
L 220.521101 111.615788 
L 220.740953 111.522397 
L 220.919582 111.466362 
L 221.414248 111.260902 
L 221.702803 111.167511 
L 221.908913 111.07412 
L 222.018839 111.027424 
L 222.43106 110.877999 
L 222.733356 110.784608 
L 222.939467 110.691217 
L 223.049392 110.672539 
L 223.063133 110.644521 
L 223.379169 110.55113 
L 223.571539 110.476418 
L 223.915057 110.364348 
L 224.052464 110.336331 
L 224.244834 110.261618 
L 224.670796 110.102854 
L 225.055536 110.000124 
L 225.234165 109.93475 
L 225.632646 109.83202 
L 226.003645 109.710611 
L 226.402126 109.607881 
L 226.594496 109.533169 
L 226.924273 109.439778 
L 227.336494 109.337048 
L 227.707494 109.215639 
L 228.105974 109.112909 
L 228.422011 109.019518 
L 228.586899 109.00084 
L 228.957898 108.879432 
L 229.466305 108.79538 
L 229.617453 108.739345 
L 229.933489 108.655293 
L 230.400673 108.552563 
L 230.579302 108.496529 
L 231.073968 108.393799 
L 231.252597 108.337764 
L 231.541152 108.263051 
L 231.6923 108.235034 
L 232.145743 108.132304 
L 232.448039 108.048252 
L 232.571706 108.029574 
L 233.080112 107.926844 
L 233.382408 107.852131 
L 233.519815 107.824114 
L 233.670963 107.796096 
L 234.138147 107.693366 
L 234.316776 107.637332 
L 234.838923 107.534602 
L 235.017552 107.478567 
L 235.1687 107.459889 
L 235.319848 107.422532 
L 235.484736 107.403854 
L 235.773291 107.338481 
L 236.267957 107.23575 
L 236.529031 107.179716 
L 236.680178 107.161038 
L 236.982474 107.086325 
L 237.518362 106.983595 
L 237.66951 106.964917 
L 237.944324 106.908882 
L 238.397767 106.815491 
L 238.562656 106.778135 
L 239.139766 106.675405 
L 239.41458 106.61937 
L 240.032912 106.525979 
L 240.18406 106.488623 
L 240.321467 106.479284 
L 240.458874 106.423249 
L 240.637503 106.41391 
L 241.255835 106.320519 
L 241.406983 106.301841 
L 242.025315 106.20845 
L 242.176463 106.180432 
L 242.822277 106.087041 
L 242.973424 106.059024 
L 243.729164 105.956294 
L 243.962756 105.928277 
L 244.636051 105.825547 
L 244.897124 105.778851 
L 245.048272 105.760173 
L 245.268123 105.732156 
L 245.446753 105.732156 
L 245.694085 105.694799 
L 246.436084 105.592069 
L 246.683417 105.545374 
L 246.848305 105.536035 
L 247.081897 105.498678 
L 247.246786 105.48 
L 247.480378 105.451983 
L 247.659007 105.442644 
L 247.892599 105.414626 
L 248.620857 105.321235 
L 248.772005 105.293218 
L 248.936893 105.27454 
L 249.156745 105.246523 
L 249.335374 105.246523 
L 249.486522 105.209166 
L 249.665151 105.199827 
L 249.885002 105.181149 
L 250.640742 105.078419 
L 250.860593 105.059741 
L 251.863665 104.957011 
L 252.097257 104.928993 
L 252.275886 104.919654 
L 253.278958 104.816924 
L 253.51255 104.788907 
L 253.69118 104.788907 
L 253.924772 104.75155 
L 254.103401 104.742211 
L 254.254549 104.714194 
L 254.433178 104.704855 
L 254.721733 104.686177 
L 254.721733 104.686177 
" clip-path="url(#p01c1a15fc3)" style="fill: none; stroke: #000000; stroke-opacity: 0.5; stroke-width: 1.5; stroke-linecap: square"/>
   </g>
   <g id="line2d_14">
    <path d="M 51.812642 98.615763 
L 55.385227 98.513033 
L 55.797448 97.775244 
L 56.127226 97.186881 
L 56.264633 96.972082 
L 56.855483 96.019494 
L 58.600554 93.460581 
L 58.971553 92.956269 
L 60.991438 90.378678 
L 61.060141 90.313305 
L 61.925806 89.32336 
L 62.00825 89.229969 
L 62.612842 88.59491 
L 62.956359 88.230686 
L 63.643395 87.483558 
L 64.165542 86.997925 
L 64.618985 86.568326 
L 65.264799 85.998641 
L 65.498391 85.765164 
L 65.649539 85.671773 
L 66.006797 85.363582 
L 66.130464 85.270191 
L 66.501463 84.952662 
L 66.625129 84.849932 
L 66.982388 84.551081 
L 67.133536 84.45769 
L 67.339646 84.289586 
L 67.999201 83.719901 
L 68.219052 83.52378 
L 69.373272 82.608548 
L 69.716789 82.328376 
L 71.310712 81.375788 
L 71.503082 81.282397 
L 71.791637 81.076936 
L 72.780968 80.535269 
L 72.959597 80.441878 
L 73.110745 80.329809 
L 73.20693 80.292452 
L 73.454263 80.143027 
L 73.646633 80.040296 
L 74.649705 79.479951 
L 74.759631 79.442594 
L 74.952001 79.367881 
L 75.185593 79.27449 
L 75.405444 79.162421 
L 75.611555 79.059691 
L 75.872628 78.891587 
L 76.133702 78.788857 
L 77.26044 78.14446 
L 77.43907 78.153799 
L 77.603958 78.116442 
L 78.304734 78.013712 
L 79.060474 77.630809 
L 79.239103 77.630809 
L 79.390251 77.602792 
L 79.555139 77.584114 
L 79.898657 77.481384 
L 80.14599 77.397332 
L 80.297138 77.341297 
L 80.571952 77.238567 
L 80.92921 77.117159 
L 81.066617 77.079802 
L 81.355172 77.014429 
L 81.465098 76.99575 
L 81.478839 76.967733 
L 82.234578 76.865003 
L 82.729244 76.659543 
L 82.921614 76.659543 
L 83.251391 76.556813 
L 83.402538 76.547474 
L 83.581168 76.491439 
L 83.965908 76.360692 
L 84.103315 76.323335 
L 84.40561 76.239284 
L 84.556758 76.211266 
L 84.886535 76.117875 
L 85.078905 76.043162 
L 85.36746 75.940432 
L 85.601052 75.912415 
L 85.972052 75.809685 
L 86.315569 75.697616 
L 86.466717 75.669599 
L 86.933901 75.566868 
L 87.153753 75.538851 
L 87.304901 75.520173 
L 87.469789 75.436121 
L 87.6759 75.333391 
L 87.991936 75.230661 
L 88.404158 75.081235 
L 88.555305 75.062557 
L 88.857601 74.978505 
L 89.02249 74.959827 
L 89.201119 74.894453 
L 89.338526 74.857097 
L 89.874414 74.62362 
L 90.19045 74.520889 
L 90.341598 74.455516 
L 90.479005 74.418159 
L 90.685116 74.315429 
L 90.932448 74.222038 
L 91.138559 74.109969 
L 91.1523 74.137986 
L 91.248485 74.081952 
L 91.495818 74.025917 
L 91.605743 74.007239 
L 91.784373 73.951204 
L 92.443927 73.848474 
L 92.718741 73.79244 
L 93.08974 73.68971 
L 93.47448 73.549623 
L 93.680591 73.558962 
L 93.982887 73.48425 
L 94.188997 73.381519 
L 94.395108 73.26945 
L 94.532515 73.232094 
L 94.752366 73.204077 
L 94.930996 73.194737 
L 95.192069 73.110686 
L 95.356958 73.026634 
L 95.686735 72.923904 
L 95.837883 72.895886 
L 96.057734 72.877208 
L 96.538659 72.774478 
L 96.772251 72.737122 
L 96.95088 72.737122 
L 97.239435 72.671748 
L 97.665397 72.578357 
L 97.844027 72.512983 
L 98.311211 72.419592 
L 98.48984 72.363558 
L 98.860839 72.260828 
L 99.25932 72.120741 
L 99.382986 72.074046 
L 99.781467 71.933959 
L 100.207429 71.840568 
L 100.358577 71.803212 
L 100.509725 71.82189 
L 101.086835 71.71916 
L 101.237982 71.691143 
L 101.760129 71.597752 
L 101.938759 71.523039 
L 102.048684 71.476343 
L 102.502128 71.289561 
L 102.625794 71.252205 
L 102.73572 71.242866 
L 102.749461 71.261544 
L 103.216645 71.158814 
L 103.463978 71.121458 
L 105.841121 71.214849 
L 106.006009 71.261544 
L 107.091526 71.364274 
L 107.242673 71.392292 
L 107.847265 71.289561 
L 108.012153 71.20551 
L 108.932781 71.700482 
L 109.551113 71.803212 
L 109.798446 71.840568 
L 112.312996 71.943298 
L 112.505366 71.943298 
L 112.890106 72.036689 
L 113.041254 72.064707 
L 113.467216 71.961977 
L 113.824474 71.849907 
L 114.003104 71.849907 
L 114.167992 71.859246 
L 114.607695 72.02735 
L 114.813806 72.008672 
L 115.019916 72.102063 
L 115.734433 72.204793 
L 116.215358 72.410253 
L 116.421469 72.391575 
L 116.572617 72.44761 
L 116.861172 72.522322 
L 116.984838 72.541001 
L 117.135986 72.559679 
L 117.300874 72.569018 
L 117.548207 72.606374 
L 117.768059 72.587696 
L 117.946688 72.643731 
L 118.125317 72.65307 
L 118.345169 72.541001 
L 118.716168 72.419592 
L 119.059686 72.522322 
L 120.172683 72.625053 
L 120.378794 72.643731 
L 120.653608 72.578357 
L 120.763534 72.531662 
L 120.983385 72.512983 
L 121.368125 72.410253 
L 121.546754 72.354219 
L 121.725384 72.34488 
L 122.206309 72.242149 
L 122.577308 72.111402 
L 122.728456 72.092724 
L 122.879603 72.111402 
L 123.154418 72.167437 
L 124.610933 72.064707 
L 124.981932 71.943298 
L 125.394154 71.840568 
L 125.586524 71.765855 
L 126.012486 71.607091 
L 126.204856 71.607091 
L 126.383485 71.532378 
L 126.589596 71.541717 
L 126.919373 71.448326 
L 127.05678 71.420309 
L 127.221668 71.420309 
L 127.359075 71.420309 
L 127.675112 71.336257 
L 127.812519 71.298901 
L 128.22474 71.140136 
L 128.375888 71.112119 
L 128.691924 71.018728 
L 128.870554 70.953354 
L 129.502626 70.850624 
L 129.7637 70.794589 
L 129.942329 70.78525 
L 130.230884 70.719876 
L 131.069068 70.626485 
L 131.220215 70.589129 
L 131.343882 70.570451 
L 131.49503 70.551773 
L 131.783585 70.486399 
L 132.841619 70.393008 
L 133.020249 70.336973 
L 135.56228 70.430364 
L 135.713428 70.47706 
L 135.864576 70.458382 
L 136.235575 70.355652 
L 136.469167 70.318295 
L 136.7165 70.355652 
L 137.87072 70.252922 
L 138.090571 70.234243 
L 138.544015 70.140852 
L 138.722644 70.084818 
L 139.189828 69.991427 
L 139.340976 69.96341 
L 140.316567 69.870019 
L 140.453974 69.842001 
L 140.632603 69.785967 
L 141.15475 69.683237 
L 141.319639 69.692576 
L 141.470786 69.720593 
L 142.322711 69.617863 
L 142.50134 69.617863 
L 142.69371 69.636541 
L 142.817376 69.608524 
L 142.996005 69.599185 
L 143.408227 69.701915 
L 144.122744 70.0568 
L 144.370077 70.159531 
L 144.603669 70.290278 
L 144.809779 70.393008 
L 145.373149 70.654503 
L 145.510556 70.691859 
L 146.458665 70.78525 
L 146.815923 71.084101 
L 147.063256 71.186831 
L 147.736551 71.5137 
L 147.846477 71.560395 
L 148.533512 71.905942 
L 148.698401 71.92462 
L 149.577806 72.018011 
L 149.728954 72.092724 
L 149.962546 72.186115 
L 150.127435 72.23281 
L 151.39158 72.326201 
L 151.556469 72.363558 
L 151.707617 72.372897 
L 151.872505 72.419592 
L 151.982431 72.438271 
L 152.270986 72.503644 
L 152.532059 72.597035 
L 152.751911 72.737122 
L 152.861837 72.718443 
L 152.875577 72.727783 
L 153.095429 72.709104 
L 153.397724 72.783817 
L 153.576354 72.774478 
L 153.727501 72.802495 
L 154.249648 72.895886 
L 154.428278 72.96126 
L 156.503125 73.054651 
L 156.668014 73.092007 
L 157.890937 73.185398 
L 158.028344 73.204077 
L 158.234455 73.194737 
L 160.158154 73.092007 
L 160.364265 73.082668 
L 160.570376 73.101347 
L 160.694042 73.110686 
L 160.831449 73.138703 
L 160.968856 73.138703 
L 162.205521 73.232094 
L 162.356668 73.260111 
L 162.851334 73.157381 
L 163.15363 73.082668 
L 163.771962 72.979938 
L 163.950591 72.989277 
L 164.087998 72.970599 
L 164.266627 72.914565 
L 164.582664 72.830513 
L 164.733811 72.811834 
L 165.077329 72.709104 
L 166.190327 72.606374 
L 166.602548 72.456949 
L 166.753696 72.428931 
L 167.165917 72.270167 
L 167.303325 72.23281 
L 167.701805 72.092724 
L 172.593499 71.989994 
L 172.909535 71.905942 
L 173.362978 71.803212 
L 173.514126 71.784534 
L 174.228643 71.681804 
L 174.55842 71.588413 
L 175.080567 71.485683 
L 175.31416 71.457665 
L 175.973714 71.354935 
L 176.317232 71.252205 
L 176.784416 71.149475 
L 177.045489 71.102779 
L 177.196637 71.09344 
L 177.375266 71.028067 
L 177.746266 70.934676 
L 177.924895 70.878641 
L 178.062302 70.88798 
L 180.34326 70.78525 
L 180.549371 70.757233 
L 180.673037 70.757233 
L 180.796704 70.719876 
L 180.810444 70.729216 
L 181.044036 70.701198 
L 181.195184 70.68252 
L 181.332591 70.635825 
L 181.511221 70.626485 
L 181.786035 70.561112 
L 181.978405 70.561112 
L 183.160106 70.467721 
L 183.297513 70.449043 
L 183.462402 70.430364 
L 186.980024 70.514416 
L 187.117431 70.570451 
L 187.268579 70.589129 
L 187.515912 70.626485 
L 187.914392 70.729216 
L 188.299132 70.859963 
L 188.601428 70.962693 
L 188.876242 71.018728 
L 191.844236 71.121458 
L 192.050347 71.140136 
L 192.256457 71.121458 
L 192.366383 71.09344 
L 192.833567 71.186831 
L 193.135863 71.700482 
L 194.138935 73.250772 
L 194.523675 73.801779 
L 194.592378 73.89517 
L 196.818373 76.743595 
L 196.928299 76.836986 
L 197.203113 77.145176 
L 197.876408 77.873626 
L 198.151223 78.181816 
L 198.398555 78.45265 
L 198.535962 78.55538 
L 199.429109 79.28383 
L 199.593997 79.433255 
L 199.717664 79.535985 
L 204.499431 82.655244 
L 204.691801 82.748635 
L 204.911653 82.870043 
L 205.104023 82.972773 
L 205.365096 83.140877 
L 206.02465 83.458406 
L 206.230761 83.561137 
L 207.37124 84.214873 
L 207.481166 84.270908 
L 207.659795 84.373638 
L 208.484238 84.812576 
L 208.594163 84.86861 
L 209.157533 85.120766 
L 209.459828 85.214157 
L 209.652198 85.28887 
L 210.091901 85.456973 
L 210.201827 85.484991 
L 210.490382 85.587721 
L 210.723974 85.718468 
L 211.149936 85.877233 
L 211.397269 85.979963 
L 211.823231 86.148067 
L 211.960638 86.185423 
L 212.249193 86.288153 
L 212.633933 86.42824 
L 212.757599 86.465596 
L 213.169821 86.615022 
L 213.430894 86.708413 
L 213.623264 86.792464 
L 213.74693 86.83916 
L 213.9393 86.923212 
L 214.255337 87.025942 
L 214.640077 87.156689 
L 214.873669 87.25008 
L 215.079779 87.343471 
L 215.533223 87.530253 
L 215.643149 87.558271 
L 215.821778 87.67034 
L 216.069111 87.77307 
L 216.728665 88.090599 
L 217.003479 88.174651 
L 217.140886 88.240025 
L 217.154627 88.230686 
L 217.882885 88.59491 
L 218.116477 88.697641 
L 218.37755 88.865744 
L 218.693587 88.949796 
L 219.064586 89.043187 
L 219.256956 89.1179 
L 219.586733 89.211291 
L 219.834066 89.304682 
L 219.985214 89.360716 
L 220.260028 89.454107 
L 220.479879 89.566177 
L 220.699731 89.668907 
L 220.892101 89.752959 
L 221.043248 89.771637 
L 221.331803 89.837011 
L 221.46921 89.865028 
L 221.64784 89.930401 
L 221.757765 89.94908 
L 222.169987 90.098505 
L 222.568467 90.201235 
L 222.980689 90.350661 
L 223.118096 90.369339 
L 223.296725 90.434713 
L 223.626502 90.528104 
L 223.818872 90.602817 
L 223.983761 90.621495 
L 224.327278 90.724225 
L 224.478426 90.742903 
L 224.835685 90.854972 
L 224.973092 90.882989 
L 225.289128 90.967041 
L 225.412795 91.004398 
L 225.687609 91.060432 
L 226.168534 91.163162 
L 226.415867 91.200519 
L 227.185347 91.303249 
L 227.350235 91.340605 
L 227.721234 91.443335 
L 228.037271 91.527387 
L 228.40827 91.611439 
L 228.559418 91.667474 
L 228.751788 91.742187 
L 229.19149 91.919629 
L 229.328898 91.947647 
L 229.466305 91.947647 
L 229.796082 92.041038 
L 229.94723 92.059716 
L 230.263266 92.143768 
L 230.593043 92.237159 
L 230.771672 92.302532 
L 230.881598 92.321211 
L 231.183894 92.395923 
L 231.335041 92.414602 
L 231.609856 92.479975 
L 231.747263 92.507993 
L 232.022077 92.564027 
L 232.200706 92.573366 
L 233.794629 92.676096 
L 233.986999 92.676096 
L 235.072515 92.778826 
L 235.36107 92.8442 
L 236.171772 92.94693 
L 236.419105 92.984287 
L 236.968733 93.068338 
L 237.119881 93.124373 
L 237.614547 93.227103 
L 237.985546 93.348511 
L 238.864952 93.451242 
L 239.112284 93.488598 
L 239.771839 93.591328 
L 240.019171 93.628684 
L 240.156578 93.638023 
L 240.266504 93.656702 
L 240.280245 93.647363 
L 240.527578 93.684719 
L 241.35202 93.787449 
L 241.585612 93.815466 
L 241.764242 93.824805 
L 242.451277 93.927536 
L 242.671129 93.946214 
L 243.646719 94.048944 
L 243.880311 94.076961 
L 244.965828 94.179691 
L 245.19942 94.217048 
L 245.364308 94.235726 
L 245.625382 94.29176 
L 245.762789 94.319778 
L 245.941418 94.375812 
L 246.078825 94.413169 
L 246.504787 94.515899 
L 246.875787 94.646646 
L 247.026934 94.674663 
L 247.315489 94.740037 
L 247.892599 94.842767 
L 248.29108 94.992193 
L 248.401006 95.010871 
L 248.826968 95.169636 
L 249.143004 95.263027 
L 249.321633 95.3284 
L 249.692632 95.412452 
L 249.84378 95.468487 
L 250.256002 95.571217 
L 250.61326 95.683286 
L 251.561369 95.580556 
L 251.849924 95.496504 
L 252.124738 95.692625 
L 252.234664 95.786016 
L 252.440775 95.95412 
L 252.53696 96.010154 
L 252.907959 96.131563 
L 253.292699 96.234293 
L 253.526291 96.26231 
L 254.227067 96.355701 
L 254.364474 96.383718 
L 254.556844 96.383718 
L 254.721733 96.383718 
L 254.721733 96.383718 
" clip-path="url(#p01c1a15fc3)" style="fill: none; stroke: #000000; stroke-opacity: 0.5; stroke-width: 1.5; stroke-linecap: square"/>
   </g>
   <g id="line2d_15">
    <path d="M 51.812642 101.585596 
L 51.991271 101.585596 
L 52.224863 101.557579 
L 52.376011 101.576257 
L 52.595863 101.557579 
L 55.344005 101.482866 
L 56.195929 93.927536 
L 59.191404 72.354219 
L 60.057069 67.049611 
L 60.64792 63.771587 
L 61.101363 61.081927 
L 61.541066 58.821865 
L 61.692214 58.121433 
L 62.145657 55.795998 
L 62.502916 53.890821 
L 63.560951 48.735639 
L 64.481578 44.523706 
L 65.567095 39.891513 
L 66.199167 37.369957 
L 66.597648 35.791649 
L 66.735055 35.26866 
L 67.614461 31.897245 
L 67.930497 30.91664 
L 70.609936 23.949673 
L 70.802306 23.510735 
L 71.970266 20.652971 
L 72.190118 20.176677 
L 72.506154 19.345497 
L 72.918375 18.523657 
L 73.042042 18.420926 
L 73.605411 17.916615 
L 74.100077 17.160148 
L 74.182521 17.085435 
L 74.374891 16.823941 
L 74.55352 16.693193 
L 74.800853 16.599802 
L 74.979482 16.431699 
L 75.061926 16.347647 
L 75.391703 15.927387 
L 75.790184 15.525806 
L 76.064998 15.040173 
L 76.078739 15.049512 
L 76.339813 14.946782 
L 76.600886 14.778678 
L 76.710812 14.797356 
L 76.724553 14.825374 
L 76.8757 14.918765 
L 77.026848 14.946782 
L 77.219218 14.937443 
L 77.370366 14.946782 
L 77.384107 14.918765 
L 78.249772 15.021495 
L 78.565808 15.357702 
L 78.826881 15.637875 
L 79.005511 15.572502 
L 81.162802 18.327536 
L 81.355172 18.420926 
L 81.547542 18.645065 
L 82.014727 19.093342 
L 82.894132 20.475528 
L 83.100243 20.821075 
L 83.210168 20.923805 
L 85.147609 22.371365 
L 85.35372 22.548808 
L 86.466717 23.426683 
L 86.782754 23.828264 
L 87.346123 24.341915 
L 88.225528 25.369216 
L 88.335454 25.42525 
L 90.753819 26.938184 
L 90.822523 26.98488 
L 90.946189 27.012897 
L 91.468336 27.115627 
L 91.633225 27.199679 
L 92.141631 27.675973 
L 92.388964 27.937468 
L 93.227147 28.376405 
L 93.364554 28.460457 
L 93.611887 28.721952 
L 93.694332 28.806004 
L 93.914183 29.002125 
L 94.930996 29.814626 
L 95.150847 30.038765 
L 95.233291 30.104138 
L 95.411921 30.262903 
L 95.425661 30.253564 
L 95.59055 30.356294 
L 96.195141 31.010031 
L 96.305067 31.047387 
L 96.56614 31.215491 
L 96.648585 31.318221 
L 96.95088 31.542359 
L 97.940212 32.084027 
L 98.118841 32.186757 
L 98.366174 32.336183 
L 98.764654 32.438913 
L 99.575356 32.859172 
L 99.699023 32.868511 
L 100.41354 33.223397 
L 100.688354 33.326127 
L 101.787611 33.942508 
L 101.952499 33.961186 
L 104.178495 35.352712 
L 104.302161 35.399407 
L 104.46705 35.502137 
L 104.824308 35.614206 
L 105.25027 35.707597 
L 105.497603 35.857023 
L 105.593788 35.922397 
L 105.744936 36.015788 
L 106.01975 36.202569 
L 106.308305 36.3053 
L 106.816711 36.520099 
L 106.954118 36.548116 
L 107.36634 36.697542 
L 107.462525 36.753576 
L 107.75108 36.828289 
L 108.32819 36.566794 
L 109.097669 36.473403 
L 109.317521 36.361334 
L 109.523632 36.258604 
L 110.774036 35.539494 
L 111.048851 35.446103 
L 111.447331 35.091217 
L 111.584738 35.072539 
L 111.694664 35.072539 
L 111.708405 35.091217 
L 111.873293 35.072539 
L 112.20307 34.979148 
L 112.354218 34.969809 
L 112.519107 34.932452 
L 112.78018 34.979148 
L 113.041254 35.081878 
L 113.453475 35.240642 
L 113.563401 35.277999 
L 113.755771 35.418085 
L 114.387844 35.324694 
L 114.566473 35.259321 
L 114.731361 35.259321 
L 114.855028 35.26866 
L 115.047398 35.277999 
L 115.253508 35.259321 
L 115.500841 35.296677 
L 116.490172 35.390068 
L 116.613839 35.390068 
L 116.888653 35.315355 
L 117.02606 35.334033 
L 117.149727 35.343372 
L 118.221502 35.240642 
L 118.578761 35.128573 
L 119.801684 35.025843 
L 119.994054 34.95113 
L 120.378794 34.820383 
L 121.065829 34.913774 
L 121.216977 34.932452 
L 121.46431 34.969809 
L 121.615458 34.988487 
L 122.055161 35.15659 
L 122.769678 35.05386 
L 123.126936 34.941791 
L 123.278084 34.960469 
L 123.566639 34.895096 
L 124.830784 34.792366 
L 125.036895 34.783027 
L 125.366672 34.876418 
L 125.531561 34.885757 
L 125.792634 34.932452 
L 126.163634 35.035182 
L 126.369744 35.05386 
L 126.548373 35.05386 
L 127.757556 35.744954 
L 127.867482 35.78231 
L 128.01863 35.800988 
L 128.966739 35.903718 
L 130.285847 36.669524 
L 130.739291 36.762915 
L 130.93166 36.837628 
L 131.30266 36.959036 
L 131.426326 36.949697 
L 131.6874 36.996393 
L 132.099621 36.893663 
L 132.305732 36.874985 
L 132.649249 36.996393 
L 132.717953 37.015071 
L 132.745434 37.043088 
L 133.157656 37.145818 
L 133.597359 37.323261 
L 133.830951 37.285905 
L 133.982099 37.257888 
L 134.39432 37.155158 
L 134.957689 36.893663 
L 135.259985 36.968376 
L 135.644725 37.071106 
L 136.702759 37.659469 
L 136.90887 37.762199 
L 137.279869 37.892946 
L 137.431017 37.911624 
L 137.802016 38.033033 
L 138.379126 38.135763 
L 138.585237 38.145102 
L 138.750126 38.154441 
L 138.969977 38.182458 
L 139.134865 38.201137 
L 139.354717 38.219815 
L 139.849382 38.322545 
L 140.17916 38.415936 
L 140.412752 38.509327 
L 140.591381 38.565361 
L 140.756269 38.556022 
L 140.921158 38.640074 
L 141.718119 39.060334 
L 141.883008 39.079012 
L 142.144081 39.181742 
L 142.803635 39.499271 
L 144.686113 39.602001 
L 144.919705 39.639358 
L 145.057112 39.61134 
L 145.428111 39.50861 
L 145.744148 39.424558 
L 145.963999 39.321828 
L 146.156369 39.228437 
L 146.403702 39.265794 
L 146.802183 39.163064 
L 146.994553 39.163064 
L 147.1457 39.191081 
L 147.420515 39.135046 
L 149.220548 39.228437 
L 149.426659 39.340506 
L 149.536584 39.387202 
L 149.756436 39.40588 
L 150.058731 39.499271 
L 150.237361 39.620679 
L 150.374768 39.648697 
L 150.690804 39.751427 
L 150.896915 39.639358 
L 151.226692 39.732749 
L 151.460284 39.704731 
L 153.191614 39.602001 
L 153.370243 39.602001 
L 153.658798 39.667375 
L 154.057278 39.527288 
L 154.222167 39.50861 
L 154.634388 39.349846 
L 155.197758 39.61134 
L 155.376387 39.555306 
L 157.17642 39.452576 
L 157.533679 39.340506 
L 158.811565 39.237776 
L 159.251267 39.069673 
L 159.787155 39.153725 
L 159.938303 39.237776 
L 160.048229 39.284472 
L 160.226858 39.349846 
L 161.010079 39.443237 
L 161.120004 39.471254 
L 161.133745 39.452576 
L 161.367337 39.545967 
L 161.491004 39.536628 
L 161.752077 39.489932 
L 162.39789 39.583323 
L 162.562779 39.620679 
L 162.741408 39.620679 
L 163.043704 39.536628 
L 163.208592 39.573984 
L 163.414703 39.583323 
L 163.716999 39.686053 
L 163.895628 39.742088 
L 164.156702 39.844818 
L 164.610145 40.050278 
L 164.70633 40.050278 
L 164.720071 40.059617 
L 165.132292 40.162347 
L 165.338403 40.255738 
L 165.613217 40.358468 
L 165.956735 40.470537 
L 166.121623 40.489216 
L 166.4514 40.582607 
L 166.684993 40.713354 
L 167.152177 40.918814 
L 167.275843 40.928153 
L 168.3751 40.825423 
L 168.636174 40.778728 
L 168.883506 40.816084 
L 169.817875 40.713354 
L 169.996504 40.722693 
L 171.027057 40.825423 
L 171.301872 40.890797 
L 171.507982 40.862779 
L 171.631649 40.85344 
L 171.824019 40.85344 
L 172.030129 40.862779 
L 174.462235 40.96551 
L 174.723309 41.012205 
L 175.547752 41.114935 
L 175.726381 41.105596 
L 176.564564 41.208326 
L 176.976786 41.37643 
L 177.114193 41.37643 
L 177.911154 41.47916 
L 178.103524 41.47916 
L 178.337116 41.451143 
L 178.543227 41.460482 
L 178.721856 41.460482 
L 179.065374 41.572551 
L 179.202781 41.572551 
L 180.178372 41.675281 
L 180.34326 41.656603 
L 180.549371 41.647264 
L 181.291369 41.544534 
L 181.566183 41.47916 
L 181.676109 41.441804 
L 181.813516 41.413786 
L 181.964664 41.451143 
L 182.07459 41.451143 
L 182.08833 41.469821 
L 182.404367 41.563212 
L 182.541774 41.591229 
L 182.720403 41.591229 
L 183.063921 41.693959 
L 184.891436 41.591229 
L 185.276176 41.460482 
L 185.537249 41.357752 
L 185.688397 41.339074 
L 185.990693 41.413786 
L 186.238025 41.357752 
L 186.389173 41.37643 
L 186.677728 41.451143 
L 186.815135 41.469821 
L 186.993765 41.525855 
L 187.172394 41.535195 
L 187.529652 41.637925 
L 187.763244 41.778011 
L 188.010577 41.880741 
L 188.271651 42.067523 
L 188.381576 42.123558 
L 188.615169 42.151575 
L 188.752576 42.188931 
L 189.068612 42.272983 
L 189.741907 42.375713 
L 189.906795 42.41307 
L 190.18161 42.5158 
L 190.470165 42.599852 
L 190.593831 42.61853 
L 191.432014 42.72126 
L 191.830495 42.870686 
L 191.92668 42.936059 
L 192.215235 43.02945 
L 192.366383 43.094824 
L 192.517531 43.113502 
L 192.627456 43.141519 
L 192.641197 43.13218 
L 192.751123 43.150859 
L 193.232048 47.428166 
L 194.400008 56.048153 
L 196.131338 64.854923 
L 197.271817 69.048178 
L 200.459662 77.397332 
L 200.926846 78.209833 
L 201.284105 78.872909 
L 202.108548 80.171044 
L 202.438325 80.759407 
L 202.630695 81.020902 
L 204.966616 84.018752 
L 205.076541 84.102804 
L 205.255171 84.298925 
L 205.337615 84.364299 
L 205.83228 84.859271 
L 205.955947 84.952662 
L 206.354427 85.307548 
L 206.464353 85.400939 
L 206.697945 85.625077 
L 207.536129 86.32551 
L 207.838424 86.549648 
L 207.975831 86.643039 
L 208.443016 87.091316 
L 208.539201 87.14735 
L 210.916344 88.893762 
L 211.218639 89.136578 
L 211.328565 89.192613 
L 211.575898 89.342038 
L 211.685824 89.435429 
L 211.988119 89.659568 
L 212.111786 89.762298 
L 214.365262 91.424657 
L 214.736262 91.742187 
L 217.525626 93.516615 
L 217.635552 93.57265 
L 217.924107 93.77811 
L 219.889029 94.982854 
L 220.081399 95.076245 
L 220.328731 95.22567 
L 220.534842 95.319061 
L 220.768434 95.449809 
L 221.895173 96.084867 
L 222.115024 96.178258 
L 222.348616 96.309006 
L 222.898244 96.551822 
L 223.186799 96.654552 
L 223.379169 96.738604 
L 223.612761 96.841334 
L 224.079946 97.028116 
L 224.409723 97.130846 
L 224.670796 97.19622 
L 224.794463 97.205559 
L 225.110499 97.289611 
L 225.467758 97.392341 
L 225.728831 97.439036 
L 226.113571 97.541767 
L 226.27846 97.588462 
L 226.663199 97.691192 
L 226.992977 97.784583 
L 227.144124 97.803261 
L 227.322754 97.859296 
L 227.789938 97.943348 
L 227.941086 97.999382 
L 228.559418 98.102112 
L 228.806751 98.148808 
L 229.012861 98.139469 
L 229.809822 98.23286 
L 229.96097 98.307573 
L 230.098377 98.288894 
L 230.263266 98.33559 
L 230.428155 98.354268 
L 230.634265 98.382285 
L 230.771672 98.382285 
L 230.936561 98.400964 
L 231.183894 98.43832 
L 232.26941 98.531711 
L 232.420558 98.550389 
L 233.05263 98.653119 
L 233.313704 98.699815 
L 234.01448 98.802545 
L 234.289295 98.867918 
L 234.467924 98.877258 
L 234.728997 98.923953 
L 234.866404 98.923953 
L 235.1687 98.998666 
L 235.841995 99.101396 
L 236.116809 99.157431 
L 236.281698 99.176109 
L 237.10614 99.278839 
L 237.325992 99.297517 
L 238.287842 99.390908 
L 238.425249 99.409586 
L 238.603878 99.409586 
L 238.809989 99.418925 
L 242.629907 99.512316 
L 242.781054 99.540334 
L 242.918462 99.530994 
L 244.704754 99.624385 
L 244.855902 99.643064 
L 246.669676 99.736455 
L 246.807083 99.755133 
L 246.985712 99.755133 
L 247.150601 99.792489 
L 251.259074 99.895219 
L 251.478925 99.932576 
L 251.616332 99.932576 
L 254.721733 100.016628 
L 254.721733 100.016628 
" clip-path="url(#p01c1a15fc3)" style="fill: none; stroke: #000000; stroke-opacity: 0.5; stroke-width: 1.5; stroke-linecap: square"/>
   </g>
   <g id="patch_3">
    <path d="M 41.667188 173.52 
L 41.667188 7.2 
" style="fill: none; stroke: #000000; stroke-width: 0.8; stroke-linejoin: miter; stroke-linecap: square"/>
   </g>
   <g id="patch_4">
    <path d="M 41.667188 173.52 
L 264.867188 173.52 
" style="fill: none; stroke: #000000; stroke-width: 0.8; stroke-linejoin: miter; stroke-linecap: square"/>
   </g>
  </g>
 </g>
 <defs>
  <clipPath id="p01c1a15fc3">
   <rect x="41.667188" y="7.2" width="223.2" height="166.32"/>
  </clipPath>
 </defs>
</svg>
