<?xml version="1.0" encoding="utf-8" standalone="no"?>
<!DOCTYPE svg PUBLIC "-//W3C//DTD SVG 1.1//EN"
  "http://www.w3.org/Graphics/SVG/1.1/DTD/svg11.dtd">
<svg xmlns:xlink="http://www.w3.org/1999/xlink" width="460.8pt" height="345.6pt" viewBox="0 0 460.8 345.6" xmlns="http://www.w3.org/2000/svg" version="1.1">
 <metadata>
  <rdf:RDF xmlns:dc="http://purl.org/dc/elements/1.1/" xmlns:cc="http://creativecommons.org/ns#" xmlns:rdf="http://www.w3.org/1999/02/22-rdf-syntax-ns#">
   <cc:Work>
    <dc:type rdf:resource="http://purl.org/dc/dcmitype/StillImage"/>
    <dc:date>2024-02-29T19:37:29.143362</dc:date>
    <dc:format>image/svg+xml</dc:format>
    <dc:creator>
     <cc:Agent>
      <dc:title>Matplotlib v3.6.2, https://matplotlib.org/</dc:title>
     </cc:Agent>
    </dc:creator>
   </cc:Work>
  </rdf:RDF>
 </metadata>
 <defs>
  <style type="text/css">*{stroke-linejoin: round; stroke-linecap: butt}</style>
 </defs>
 <g id="figure_1">
  <g id="patch_1">
   <path d="M 0 345.6 
L 460.8 345.6 
L 460.8 0 
L 0 0 
z
" style="fill: #ffffff"/>
  </g>
  <g id="axes_1">
   <g id="patch_2">
    <path d="M 57.6 307.584 
L 414.72 307.584 
L 414.72 41.472 
L 57.6 41.472 
z
" style="fill: #ffffff"/>
   </g>
   <g id="matplotlib.axis_1">
    <g id="xtick_1">
     <g id="line2d_1">
      <defs>
       <path id="m9f6f99230c" d="M 0 0 
L 0 3.5 
" style="stroke: #000000; stroke-width: 0.8"/>
      </defs>
      <g>
       <use xlink:href="#m9f6f99230c" x="121.347784" y="307.584" style="stroke: #000000; stroke-width: 0.8"/>
      </g>
     </g>
     <g id="text_1">
      <!-- 0.2 -->
      <g transform="translate(113.396222 322.182437) scale(0.1 -0.1)">
       <defs>
        <path id="DejaVuSans-30" d="M 2034 4250 
Q 1547 4250 1301 3770 
Q 1056 3291 1056 2328 
Q 1056 1369 1301 889 
Q 1547 409 2034 409 
Q 2525 409 2770 889 
Q 3016 1369 3016 2328 
Q 3016 3291 2770 3770 
Q 2525 4250 2034 4250 
z
M 2034 4750 
Q 2819 4750 3233 4129 
Q 3647 3509 3647 2328 
Q 3647 1150 3233 529 
Q 2819 -91 2034 -91 
Q 1250 -91 836 529 
Q 422 1150 422 2328 
Q 422 3509 836 4129 
Q 1250 4750 2034 4750 
z
" transform="scale(0.015625)"/>
        <path id="DejaVuSans-2e" d="M 684 794 
L 1344 794 
L 1344 0 
L 684 0 
L 684 794 
z
" transform="scale(0.015625)"/>
        <path id="DejaVuSans-32" d="M 1228 531 
L 3431 531 
L 3431 0 
L 469 0 
L 469 531 
Q 828 903 1448 1529 
Q 2069 2156 2228 2338 
Q 2531 2678 2651 2914 
Q 2772 3150 2772 3378 
Q 2772 3750 2511 3984 
Q 2250 4219 1831 4219 
Q 1534 4219 1204 4116 
Q 875 4013 500 3803 
L 500 4441 
Q 881 4594 1212 4672 
Q 1544 4750 1819 4750 
Q 2544 4750 2975 4387 
Q 3406 4025 3406 3419 
Q 3406 3131 3298 2873 
Q 3191 2616 2906 2266 
Q 2828 2175 2409 1742 
Q 1991 1309 1228 531 
z
" transform="scale(0.015625)"/>
       </defs>
       <use xlink:href="#DejaVuSans-30"/>
       <use xlink:href="#DejaVuSans-2e" x="63.623047"/>
       <use xlink:href="#DejaVuSans-32" x="95.410156"/>
      </g>
     </g>
    </g>
    <g id="xtick_2">
     <g id="line2d_2">
      <g>
       <use xlink:href="#m9f6f99230c" x="200.539546" y="307.584" style="stroke: #000000; stroke-width: 0.8"/>
      </g>
     </g>
     <g id="text_2">
      <!-- 0.4 -->
      <g transform="translate(192.587983 322.182437) scale(0.1 -0.1)">
       <defs>
        <path id="DejaVuSans-34" d="M 2419 4116 
L 825 1625 
L 2419 1625 
L 2419 4116 
z
M 2253 4666 
L 3047 4666 
L 3047 1625 
L 3713 1625 
L 3713 1100 
L 3047 1100 
L 3047 0 
L 2419 0 
L 2419 1100 
L 313 1100 
L 313 1709 
L 2253 4666 
z
" transform="scale(0.015625)"/>
       </defs>
       <use xlink:href="#DejaVuSans-30"/>
       <use xlink:href="#DejaVuSans-2e" x="63.623047"/>
       <use xlink:href="#DejaVuSans-34" x="95.410156"/>
      </g>
     </g>
    </g>
    <g id="xtick_3">
     <g id="line2d_3">
      <g>
       <use xlink:href="#m9f6f99230c" x="279.731307" y="307.584" style="stroke: #000000; stroke-width: 0.8"/>
      </g>
     </g>
     <g id="text_3">
      <!-- 0.6 -->
      <g transform="translate(271.779745 322.182437) scale(0.1 -0.1)">
       <defs>
        <path id="DejaVuSans-36" d="M 2113 2584 
Q 1688 2584 1439 2293 
Q 1191 2003 1191 1497 
Q 1191 994 1439 701 
Q 1688 409 2113 409 
Q 2538 409 2786 701 
Q 3034 994 3034 1497 
Q 3034 2003 2786 2293 
Q 2538 2584 2113 2584 
z
M 3366 4563 
L 3366 3988 
Q 3128 4100 2886 4159 
Q 2644 4219 2406 4219 
Q 1781 4219 1451 3797 
Q 1122 3375 1075 2522 
Q 1259 2794 1537 2939 
Q 1816 3084 2150 3084 
Q 2853 3084 3261 2657 
Q 3669 2231 3669 1497 
Q 3669 778 3244 343 
Q 2819 -91 2113 -91 
Q 1303 -91 875 529 
Q 447 1150 447 2328 
Q 447 3434 972 4092 
Q 1497 4750 2381 4750 
Q 2619 4750 2861 4703 
Q 3103 4656 3366 4563 
z
" transform="scale(0.015625)"/>
       </defs>
       <use xlink:href="#DejaVuSans-30"/>
       <use xlink:href="#DejaVuSans-2e" x="63.623047"/>
       <use xlink:href="#DejaVuSans-36" x="95.410156"/>
      </g>
     </g>
    </g>
    <g id="xtick_4">
     <g id="line2d_4">
      <g>
       <use xlink:href="#m9f6f99230c" x="358.923069" y="307.584" style="stroke: #000000; stroke-width: 0.8"/>
      </g>
     </g>
     <g id="text_4">
      <!-- 0.8 -->
      <g transform="translate(350.971506 322.182437) scale(0.1 -0.1)">
       <defs>
        <path id="DejaVuSans-38" d="M 2034 2216 
Q 1584 2216 1326 1975 
Q 1069 1734 1069 1313 
Q 1069 891 1326 650 
Q 1584 409 2034 409 
Q 2484 409 2743 651 
Q 3003 894 3003 1313 
Q 3003 1734 2745 1975 
Q 2488 2216 2034 2216 
z
M 1403 2484 
Q 997 2584 770 2862 
Q 544 3141 544 3541 
Q 544 4100 942 4425 
Q 1341 4750 2034 4750 
Q 2731 4750 3128 4425 
Q 3525 4100 3525 3541 
Q 3525 3141 3298 2862 
Q 3072 2584 2669 2484 
Q 3125 2378 3379 2068 
Q 3634 1759 3634 1313 
Q 3634 634 3220 271 
Q 2806 -91 2034 -91 
Q 1263 -91 848 271 
Q 434 634 434 1313 
Q 434 1759 690 2068 
Q 947 2378 1403 2484 
z
M 1172 3481 
Q 1172 3119 1398 2916 
Q 1625 2713 2034 2713 
Q 2441 2713 2670 2916 
Q 2900 3119 2900 3481 
Q 2900 3844 2670 4047 
Q 2441 4250 2034 4250 
Q 1625 4250 1398 4047 
Q 1172 3844 1172 3481 
z
" transform="scale(0.015625)"/>
       </defs>
       <use xlink:href="#DejaVuSans-30"/>
       <use xlink:href="#DejaVuSans-2e" x="63.623047"/>
       <use xlink:href="#DejaVuSans-38" x="95.410156"/>
      </g>
     </g>
    </g>
   </g>
   <g id="matplotlib.axis_2">
    <g id="ytick_1">
     <g id="line2d_5">
      <defs>
       <path id="mf1414470ad" d="M 0 0 
L -3.5 0 
" style="stroke: #000000; stroke-width: 0.8"/>
      </defs>
      <g>
       <use xlink:href="#mf1414470ad" x="57.6" y="301.449014" style="stroke: #000000; stroke-width: 0.8"/>
      </g>
     </g>
     <g id="text_5">
      <!-- −100 -->
      <g transform="translate(23.132812 305.248233) scale(0.1 -0.1)">
       <defs>
        <path id="DejaVuSans-2212" d="M 678 2272 
L 4684 2272 
L 4684 1741 
L 678 1741 
L 678 2272 
z
" transform="scale(0.015625)"/>
        <path id="DejaVuSans-31" d="M 794 531 
L 1825 531 
L 1825 4091 
L 703 3866 
L 703 4441 
L 1819 4666 
L 2450 4666 
L 2450 531 
L 3481 531 
L 3481 0 
L 794 0 
L 794 531 
z
" transform="scale(0.015625)"/>
       </defs>
       <use xlink:href="#DejaVuSans-2212"/>
       <use xlink:href="#DejaVuSans-31" x="83.789062"/>
       <use xlink:href="#DejaVuSans-30" x="147.412109"/>
       <use xlink:href="#DejaVuSans-30" x="211.035156"/>
      </g>
     </g>
    </g>
    <g id="ytick_2">
     <g id="line2d_6">
      <g>
       <use xlink:href="#mf1414470ad" x="57.6" y="270.452927" style="stroke: #000000; stroke-width: 0.8"/>
      </g>
     </g>
     <g id="text_6">
      <!-- −80 -->
      <g transform="translate(29.495313 274.252146) scale(0.1 -0.1)">
       <use xlink:href="#DejaVuSans-2212"/>
       <use xlink:href="#DejaVuSans-38" x="83.789062"/>
       <use xlink:href="#DejaVuSans-30" x="147.412109"/>
      </g>
     </g>
    </g>
    <g id="ytick_3">
     <g id="line2d_7">
      <g>
       <use xlink:href="#mf1414470ad" x="57.6" y="239.45684" style="stroke: #000000; stroke-width: 0.8"/>
      </g>
     </g>
     <g id="text_7">
      <!-- −60 -->
      <g transform="translate(29.495313 243.256059) scale(0.1 -0.1)">
       <use xlink:href="#DejaVuSans-2212"/>
       <use xlink:href="#DejaVuSans-36" x="83.789062"/>
       <use xlink:href="#DejaVuSans-30" x="147.412109"/>
      </g>
     </g>
    </g>
    <g id="ytick_4">
     <g id="line2d_8">
      <g>
       <use xlink:href="#mf1414470ad" x="57.6" y="208.460753" style="stroke: #000000; stroke-width: 0.8"/>
      </g>
     </g>
     <g id="text_8">
      <!-- −40 -->
      <g transform="translate(29.495313 212.259971) scale(0.1 -0.1)">
       <use xlink:href="#DejaVuSans-2212"/>
       <use xlink:href="#DejaVuSans-34" x="83.789062"/>
       <use xlink:href="#DejaVuSans-30" x="147.412109"/>
      </g>
     </g>
    </g>
    <g id="ytick_5">
     <g id="line2d_9">
      <g>
       <use xlink:href="#mf1414470ad" x="57.6" y="177.464665" style="stroke: #000000; stroke-width: 0.8"/>
      </g>
     </g>
     <g id="text_9">
      <!-- −20 -->
      <g transform="translate(29.495313 181.263884) scale(0.1 -0.1)">
       <use xlink:href="#DejaVuSans-2212"/>
       <use xlink:href="#DejaVuSans-32" x="83.789062"/>
       <use xlink:href="#DejaVuSans-30" x="147.412109"/>
      </g>
     </g>
    </g>
    <g id="ytick_6">
     <g id="line2d_10">
      <g>
       <use xlink:href="#mf1414470ad" x="57.6" y="146.468578" style="stroke: #000000; stroke-width: 0.8"/>
      </g>
     </g>
     <g id="text_10">
      <!-- 0 -->
      <g transform="translate(44.2375 150.267797) scale(0.1 -0.1)">
       <use xlink:href="#DejaVuSans-30"/>
      </g>
     </g>
    </g>
    <g id="ytick_7">
     <g id="line2d_11">
      <g>
       <use xlink:href="#mf1414470ad" x="57.6" y="115.472491" style="stroke: #000000; stroke-width: 0.8"/>
      </g>
     </g>
     <g id="text_11">
      <!-- 20 -->
      <g transform="translate(37.875 119.271709) scale(0.1 -0.1)">
       <use xlink:href="#DejaVuSans-32"/>
       <use xlink:href="#DejaVuSans-30" x="63.623047"/>
      </g>
     </g>
    </g>
    <g id="ytick_8">
     <g id="line2d_12">
      <g>
       <use xlink:href="#mf1414470ad" x="57.6" y="84.476403" style="stroke: #000000; stroke-width: 0.8"/>
      </g>
     </g>
     <g id="text_12">
      <!-- 40 -->
      <g transform="translate(37.875 88.275622) scale(0.1 -0.1)">
       <use xlink:href="#DejaVuSans-34"/>
       <use xlink:href="#DejaVuSans-30" x="63.623047"/>
      </g>
     </g>
    </g>
    <g id="ytick_9">
     <g id="line2d_13">
      <g>
       <use xlink:href="#mf1414470ad" x="57.6" y="53.480316" style="stroke: #000000; stroke-width: 0.8"/>
      </g>
     </g>
     <g id="text_13">
      <!-- 60 -->
      <g transform="translate(37.875 57.279535) scale(0.1 -0.1)">
       <use xlink:href="#DejaVuSans-36"/>
       <use xlink:href="#DejaVuSans-30" x="63.623047"/>
      </g>
     </g>
    </g>
   </g>
   <g id="line2d_14">
    <path d="M 73.832727 237.926625 
L 74.228686 237.785603 
L 74.640483 238.03545 
L 75.004765 238.070887 
L 75.511593 238.190271 
L 75.622461 238.205242 
L 75.654138 238.164937 
L 75.780845 238.181426 
L 76.01842 238.106001 
L 76.826176 237.774281 
L 77.253811 238.070933 
L 77.491387 238.083479 
L 77.808154 238.186143 
L 77.919022 238.130279 
L 78.045729 238.157264 
L 78.267466 238.173147 
L 79.423666 237.902342 
L 79.613726 237.984955 
L 79.851301 238.102393 
L 80.168068 238.062106 
L 80.769926 238.132375 
L 80.928309 238.106844 
L 81.086693 238.009094 
L 81.118369 238.046846 
L 81.292591 238.112202 
L 81.609358 237.934241 
L 81.625197 237.976866 
L 81.68855 238.660705 
L 82.100347 245.619666 
L 82.65469 249.071636 
L 83.731697 253.502902 
L 84.777029 257.065734 
L 85.299694 258.816793 
L 86.313349 261.832277 
L 87.16862 263.997502 
L 88.41985 267.522426 
L 88.99003 268.837403 
L 89.338474 269.469922 
L 89.560211 269.969234 
L 90.320452 271.91479 
L 91.524167 274.454021 
L 91.856772 274.999383 
L 92.45863 276.152391 
L 93.884081 278.873867 
L 94.533454 279.705316 
L 94.644322 279.803361 
L 95.594623 281.70132 
L 96.133127 282.550713 
L 96.339026 282.774851 
L 96.449894 282.909119 
L 96.655793 283.114597 
L 96.7825 283.198058 
L 98.746455 285.929176 
L 99.015707 286.194051 
L 100.076877 287.220158 
L 100.472836 287.856453 
L 101.2014 288.632765 
L 101.644874 288.916023 
L 102.531822 289.564338 
L 103.054487 290.16076 
L 103.339578 290.397427 
L 103.830567 290.960467 
L 104.147334 291.072853 
L 104.400747 291.177111 
L 104.685838 291.195563 
L 104.970928 291.307533 
L 105.414402 291.758846 
L 105.762846 292.043397 
L 106.174643 292.372081 
L 106.665632 292.5498 
L 106.96656 292.596565 
L 107.489226 292.609047 
L 109.168091 293.695141 
L 109.801625 293.616933 
L 109.896655 293.556035 
L 109.944171 293.595641 
L 110.498513 294.030256 
L 110.799442 294.237951 
L 110.989502 294.251311 
L 111.1954 294.331851 
L 112.003156 294.46202 
L 112.177378 294.420197 
L 112.525822 294.375902 
L 112.684205 294.46314 
L 112.937619 294.631979 
L 113.064326 294.757633 
L 113.175194 294.845401 
L 113.206871 294.811557 
L 113.301901 294.776916 
L 113.333578 294.807181 
L 113.491961 294.79792 
L 113.634507 294.85002 
L 113.951274 295.014749 
L 114.838221 294.851429 
L 115.218342 294.886785 
L 115.804361 295.163115 
L 116.089451 295.224764 
L 116.849692 295.41858 
L 117.261489 295.318514 
L 117.768317 295.087471 
L 117.9267 295.195297 
L 118.069245 295.217397 
L 118.306821 295.327567 
L 118.496881 295.287949 
L 118.639426 295.314496 
L 119.098738 295.415739 
L 119.352152 295.353432 
L 119.589727 295.274035 
L 120.144069 295.144525 
L 120.42916 295.03305 
L 120.745927 295.222351 
L 121.031017 295.272153 
L 121.173562 295.277742 
L 121.458653 295.466026 
L 121.601198 295.442805 
L 121.838773 295.396606 
L 123.010811 295.108279 
L 123.422608 295.27594 
L 123.612669 295.27631 
L 123.78689 295.359621 
L 123.976951 295.37275 
L 124.135334 295.40903 
L 124.642161 295.35603 
L 124.911413 295.212894 
L 125.180665 295.078799 
L 125.465756 294.940548 
L 126.035936 295.350095 
L 126.28935 295.342705 
L 126.511087 295.40216 
L 127.429711 295.297025 
L 127.603933 295.255179 
L 127.82567 295.140402 
L 127.999892 295.05141 
L 128.079084 295.075035 
L 128.094922 295.09948 
L 128.300821 295.231958 
L 128.617588 295.379655 
L 129.995525 295.229302 
L 130.866634 295.15434 
L 131.167563 295.216728 
L 131.706067 295.218379 
L 132.070349 295.235873 
L 132.212894 295.183461 
L 132.228732 295.196278 
L 132.402954 295.227362 
L 132.814751 295.033928 
L 132.988973 294.890284 
L 133.179033 294.793301 
L 134.081819 295.102321 
L 134.921252 295.073603 
L 135.127151 294.933701 
L 135.301373 294.889672 
L 135.459756 294.742968 
L 135.649816 294.656308 
L 136.9644 295.043743 
L 137.091106 295.067356 
L 137.233652 295.003363 
L 137.487065 294.990985 
L 137.582095 294.939878 
L 137.756317 294.839235 
L 137.946377 294.743569 
L 138.389851 294.622118 
L 138.643265 294.821707 
L 139.245122 294.772251 
L 139.577728 294.862837 
L 139.656919 294.904683 
L 139.704434 294.843796 
L 139.878656 294.781581 
L 140.13207 294.685672 
L 140.401322 294.484467 
L 140.844796 294.402726 
L 141.28827 294.650997 
L 141.557522 294.638203 
L 141.810935 294.653087 
L 142.808752 294.492353 
L 142.998812 294.392045 
L 143.188872 294.352185 
L 143.363094 294.293365 
L 143.378932 294.313041 
L 143.473962 294.376665 
L 143.521477 294.32102 
L 143.600669 294.294878 
L 143.632346 294.33722 
L 143.869921 294.522225 
L 144.139173 294.570134 
L 144.250042 294.545331 
L 144.487617 294.443891 
L 144.772707 294.489686 
L 145.105313 294.504431 
L 145.232019 294.337093 
L 145.390403 294.301344 
L 145.532948 294.227709 
L 145.786362 294.159028 
L 145.865554 294.176094 
L 145.89723 294.134491 
L 146.055614 294.102205 
L 146.293189 294.244117 
L 146.546603 294.320812 
L 146.736663 294.341308 
L 148.082923 294.267962 
L 148.478882 294.092425 
L 148.763972 294.161707 
L 148.922356 294.185724 
L 149.112416 294.206359 
L 149.413344 294.263066 
L 149.619243 294.238759 
L 149.856818 294.279301 
L 150.078555 294.2737 
L 150.379484 294.160148 
L 150.553706 294.118163 
L 150.712089 294.032981 
L 151.013018 293.767702 
L 151.060533 293.829455 
L 151.329785 294.045475 
L 151.741582 294.098626 
L 151.979158 294.057022 
L 152.121703 294.072276 
L 152.137541 294.052807 
L 152.34344 293.969843 
L 152.644368 293.89652 
L 153.594669 293.479837 
L 153.97479 293.566104 
L 154.133173 293.668121 
L 154.339072 293.788025 
L 154.481617 293.75373 
L 154.592486 293.667486 
L 154.640001 293.715348 
L 154.877576 293.720094 
L 155.004283 293.782667 
L 155.13099 293.756998 
L 155.431918 293.689425 
L 155.669494 293.534407 
L 155.859554 293.470068 
L 155.970422 293.399239 
L 156.176321 293.249036 
L 157.04743 293.504443 
L 157.490904 293.679391 
L 157.617611 293.659484 
L 158.282822 293.33737 
L 158.441205 293.293354 
L 158.678781 293.191036 
L 158.916356 293.310939 
L 159.502375 293.476211 
L 159.83498 293.407091 
L 160.135909 293.446547 
L 160.310131 293.413927 
L 160.642736 293.348871 
L 161.292109 293.185482 
L 161.640552 293.295478 
L 161.783098 293.367739 
L 162.163218 293.455115 
L 162.384955 293.429977 
L 162.606692 293.530597 
L 163.050166 293.443337 
L 163.556993 293.248424 
L 163.921275 293.188496 
L 164.459779 293.267708 
L 164.634001 293.356746 
L 164.776546 293.326112 
L 164.919091 293.351054 
L 165.188343 293.45344 
L 166.170321 293.216751 
L 166.518765 293.016319 
L 167.009754 293.260872 
L 167.342359 293.321135 
L 167.595773 293.325154 
L 167.801671 293.356215 
L 168.039247 293.3573 
L 168.720296 293.074839 
L 169.16377 292.919579 
L 170.415 293.256011 
L 170.60506 293.199373 
L 170.874312 293.106455 
L 171.682068 292.758441 
L 172.14138 293.117979 
L 172.569016 293.103337 
L 172.711561 293.122436 
L 172.917459 293.164536 
L 173.851922 292.761859 
L 174.026144 292.658237 
L 174.041982 292.673294 
L 174.453779 292.956275 
L 175.340727 292.874396 
L 175.609979 292.947754 
L 176.005938 292.936657 
L 176.211837 292.901681 
L 176.322705 292.837342 
L 176.528604 292.745278 
L 176.813694 292.725025 
L 177.130461 292.923874 
L 177.241329 292.975559 
L 177.273006 292.94444 
L 177.415551 292.946091 
L 177.684803 292.969138 
L 178.77765 292.862791 
L 179.427022 292.708755 
L 180.329808 292.95922 
L 181.169241 292.999033 
L 181.375139 292.863045 
L 181.5652 292.827192 
L 181.913643 292.550897 
L 182.737238 292.924128 
L 182.943136 292.950663 
L 183.133196 292.882386 
L 183.212388 292.826153 
L 183.259903 292.865458 
L 183.497479 292.87323 
L 184.289396 292.48404 
L 184.495295 292.484456 
L 184.701193 292.62661 
L 184.812062 292.708235 
L 184.986284 292.743788 
L 185.192182 292.734643 
L 186.380059 292.617569 
L 186.712664 292.327417 
L 186.886886 292.283377 
L 187.457067 292.450715 
L 187.647127 292.494732 
L 187.821349 292.592027 
L 188.011409 292.55689 
L 188.138116 292.555989 
L 188.153954 292.579995 
L 188.312338 292.629046 
L 188.914195 292.502134 
L 189.294316 292.202294 
L 189.737789 292.245411 
L 190.181263 292.500979 
L 190.608899 292.470461 
L 190.830636 292.428337 
L 191.084049 292.380083 
L 191.384978 292.428788 
L 191.590877 292.186579 
L 191.907644 292.06223 
L 192.192734 292.048755 
L 192.414471 292.13008 
L 192.762915 292.328006 
L 193.792408 292.359102 
L 193.887438 292.381769 
L 193.919114 292.345269 
L 194.15669 292.231808 
L 194.711032 292.042023 
L 195.328728 292.387149 
L 195.582141 292.350846 
L 196.453251 292.358502 
L 196.674988 292.278539 
L 196.975916 292.2363 
L 197.276845 292.133348 
L 197.466905 292.192387 
L 197.751996 292.310951 
L 198.132116 292.343583 
L 198.322176 292.392415 
L 199.63676 292.163 
L 199.842658 292.16733 
L 200.460354 292.378316 
L 200.951343 292.563437 
L 201.695745 292.521764 
L 202.075866 292.288931 
L 202.392633 292.21144 
L 203.121197 292.490876 
L 203.390449 292.398789 
L 204.499134 292.202456 
L 204.800062 292.01438 
L 204.910931 292.090104 
L 205.053476 292.103476 
L 205.196021 292.143405 
L 205.607818 292.344922 
L 207.191654 292.159686 
L 207.492582 292.074204 
L 207.841026 292.206567 
L 208.316177 292.233933 
L 209.076418 292.283654 
L 209.298154 292.195782 
L 209.82082 292.041931 
L 210.026719 291.988283 
L 210.454354 292.173993 
L 210.755283 292.191671 
L 210.961181 292.192999 
L 211.499685 292.211601 
L 211.927321 292.177619 
L 212.766754 291.931692 
L 213.020167 292.008121 
L 213.321096 292.029587 
L 213.907115 292.113141 
L 214.081337 292.098857 
L 214.762386 291.959139 
L 215.0158 291.734078 
L 215.427597 291.845967 
L 215.760202 291.972453 
L 216.092808 292.063223 
L 216.235353 291.954335 
L 216.377898 292.013317 
L 216.615473 292.092668 
L 216.916402 292.063004 
L 217.122301 291.970674 
L 217.581613 291.703698 
L 217.724158 291.720152 
L 218.167632 291.935121 
L 218.341854 291.991921 
L 218.500237 291.99572 
L 218.721974 291.889673 
L 218.880358 291.81949 
L 219.007064 291.825841 
L 219.102095 291.826211 
L 219.117933 291.805726 
L 219.197125 291.771247 
L 219.228801 291.80792 
L 219.307993 291.828936 
L 219.33967 291.790207 
L 219.608922 291.539315 
L 219.894012 291.443383 
L 220.353324 291.260468 
L 221.097727 291.443083 
L 222.570694 291.312071 
L 222.839946 291.239187 
L 223.267581 291.392403 
L 225.0098 291.454376 
L 225.548304 291.203311 
L 226.023455 291.422333 
L 226.197676 291.480299 
L 226.419413 291.453648 
L 227.021271 291.633377 
L 227.306361 291.713316 
L 227.829027 291.460888 
L 228.129955 291.326932 
L 228.272501 291.372485 
L 228.715974 291.54771 
L 229.127772 291.550458 
L 229.52373 291.738615 
L 229.666276 291.663607 
L 230.743284 291.409712 
L 231.186757 291.610144 
L 231.329303 291.632568 
L 231.503524 291.658884 
L 231.7411 291.657302 
L 232.358795 291.674368 
L 232.723078 291.61855 
L 233.388288 291.491742 
L 233.689217 291.704044 
L 233.815924 291.639208 
L 233.958469 291.647129 
L 234.259398 291.694691 
L 234.481135 291.669057 
L 235.415597 291.484456 
L 235.811556 291.403962 
L 236.080808 291.582766 
L 236.397575 291.683652 
L 236.587636 291.637314 
L 238.060602 291.385937 
L 238.250663 291.30049 
L 238.614945 291.472943 
L 238.789166 291.595918 
L 238.820843 291.568263 
L 238.979227 291.579972 
L 239.454377 291.578598 
L 240.246295 291.623031 
L 240.468032 291.518854 
L 240.784799 291.515552 
L 241.022374 291.528773 
L 241.782615 291.745186 
L 242.131059 291.69013 
L 242.416149 291.730533 
L 242.748755 291.698421 
L 242.938815 291.605064 
L 243.382289 291.430174 
L 243.952469 291.568471 
L 244.126691 291.599267 
L 244.554327 291.665558 
L 244.886932 291.710175 
L 245.092831 291.687093 
L 245.282891 291.648145 
L 245.805557 291.308492 
L 246.122324 291.363767 
L 246.708343 291.567698 
L 247.104301 291.55159 
L 247.516099 291.70797 
L 247.626967 291.605098 
L 247.801189 291.539119 
L 248.054603 291.498624 
L 248.529753 291.198692 
L 248.56143 291.244753 
L 248.767328 291.351897 
L 249.004904 291.541636 
L 249.194964 291.609151 
L 249.321671 291.544384 
L 249.590923 291.478648 
L 250.256134 291.597627 
L 250.509547 291.453002 
L 251.048051 291.203138 
L 252.077544 291.5289 
L 252.568533 291.502377 
L 252.726917 291.501638 
L 253.154552 291.298123 
L 253.281259 291.238621 
L 253.613864 291.086363 
L 254.374105 291.382935 
L 254.643357 291.355857 
L 255.007639 291.478636 
L 255.102669 291.422114 
L 255.134346 291.483047 
L 255.276891 291.525193 
L 255.498628 291.486188 
L 255.704527 291.359968 
L 255.86291 291.293677 
L 256.480606 291.246277 
L 256.987433 291.344749 
L 257.620967 291.460507 
L 257.890219 291.429515 
L 258.143633 291.283643 
L 258.492077 291.29967 
L 258.888036 291.461119 
L 259.125611 291.399482 
L 259.299833 291.395914 
L 259.52157 291.429873 
L 259.664115 291.408904 
L 259.854175 291.329288 
L 260.376841 291.297857 
L 260.582739 291.386272 
L 260.899506 291.455138 
L 261.15292 291.390787 
L 261.723101 291.490529 
L 262.166574 291.261542 
L 262.419988 291.267015 
L 262.610048 291.256023 
L 262.97433 291.462863 
L 264.494812 291.323387 
L 264.669034 291.286668 
L 264.811579 291.205089 
L 264.969963 291.216844 
L 265.239215 291.215181 
L 266.015294 291.466616 
L 266.347899 291.469295 
L 266.569636 291.474675 
L 266.712182 291.513693 
L 266.807212 291.465357 
L 266.981434 291.360361 
L 267.282362 291.2884 
L 267.535776 291.203969 
L 267.725836 291.250041 
L 267.963411 291.418222 
L 268.517754 291.52017 
L 268.628622 291.502226 
L 268.660299 291.535655 
L 269.056258 291.688479 
L 269.594762 291.367993 
L 270.291649 291.124538 
L 270.909345 291.393743 
L 271.115244 291.338791 
L 271.321142 291.365834 
L 271.542879 291.362612 
L 271.701263 291.365811 
L 271.843808 291.288504 
L 272.730755 290.965756 
L 273.570188 291.34356 
L 273.918632 291.446004 
L 274.0295 291.414066 
L 274.219561 291.316609 
L 274.979801 291.168866 
L 275.296569 291.002983 
L 275.454952 291.175945 
L 275.898426 291.343595 
L 276.088486 291.356608 
L 276.310223 291.326944 
L 276.484445 291.330281 
L 276.72202 291.318538 
L 277.957412 291.152758 
L 278.25834 291.35774 
L 278.527592 291.376226 
L 278.844359 291.297083 
L 279.287833 291.32856 
L 280.048074 291.128302 
L 280.269811 291.066503 
L 280.602417 291.203126 
L 281.267627 291.351816 
L 281.489364 291.284624 
L 281.742778 291.326678 
L 281.980353 291.372208 
L 282.645564 291.119007 
L 282.898978 291.070729 
L 283.722572 291.305051 
L 285.163862 291.124353 
L 285.512306 290.977718 
L 285.654851 291.04879 
L 285.987456 291.336782 
L 286.24087 291.340973 
L 286.446769 291.271911 
L 286.589314 291.312857 
L 286.779374 291.340719 
L 286.906081 291.403904 
L 287.016949 291.381353 
L 287.39707 291.264856 
L 287.697998 291.122863 
L 288.014765 290.963758 
L 288.236502 291.093719 
L 289.614439 291.19181 
L 289.899529 291.120011 
L 290.026236 291.086294 
L 290.232135 291.036654 
L 290.643932 290.831661 
L 290.976537 291.036423 
L 291.245789 291.104123 
L 291.562556 291.022647 
L 291.863485 291.042543 
L 292.512857 291.04976 
L 292.782109 290.913713 
L 293.146392 290.775727 
L 293.431482 290.897432 
L 293.684896 291.078188 
L 294.98364 290.986147 
L 295.237054 290.982522 
L 295.363761 290.89712 
L 295.712205 290.674519 
L 296.155679 290.927824 
L 296.409092 290.935018 
L 296.567476 290.917224 
L 297.77119 290.911058 
L 298.309694 290.678214 
L 298.959067 291.045522 
L 299.560924 290.965167 
L 299.7985 290.997694 
L 300.257812 290.818867 
L 300.495387 290.727588 
L 301.113083 290.634 
L 301.287305 290.764308 
L 301.509042 290.882687 
L 301.889162 290.87308 
L 302.110899 290.895088 
L 302.332636 290.981286 
L 302.538534 290.958123 
L 302.696918 290.92996 
L 302.902817 290.816003 
L 303.15623 290.739343 
L 303.441321 290.637141 
L 304.359945 290.943966 
L 304.898449 290.917501 
L 305.040994 291.009507 
L 305.072671 290.974 
L 305.326084 290.808128 
L 305.674528 290.728189 
L 305.801235 290.644254 
L 306.022972 290.591207 
L 306.244709 290.729205 
L 306.545638 290.984369 
L 306.941596 290.988503 
L 307.084142 290.947823 
L 307.543454 291.100347 
L 308.335371 290.885839 
L 308.6363 290.718651 
L 308.810522 290.913633 
L 309.143127 291.097137 
L 309.523248 291.05984 
L 310.188459 291.031077 
L 310.315165 291.059101 
L 310.457711 291.041885 
L 310.726963 290.903483 
L 310.932861 290.808013 
L 311.154598 290.796939 
L 311.503042 291.122043 
L 311.677264 291.183958 
L 312.057384 291.139017 
L 312.231606 291.125992 
L 312.516696 291.10858 
L 312.690918 291.214396 
L 312.833463 291.227051 
L 313.292776 291.117736 
L 313.514513 290.982937 
L 313.688735 290.895793 
L 313.92631 291.001863 
L 314.148047 291.170644 
L 314.654874 291.212179 
L 314.860773 291.188935 
L 315.3676 291.219673 
L 315.826912 291.020684 
L 315.969457 290.994438 
L 316.317901 290.791801 
L 316.650506 291.007625 
L 316.761375 291.072946 
L 316.919758 291.089181 
L 317.458262 291.050729 
L 317.838383 291.051515 
L 318.028443 291.006793 
L 318.15515 290.975905 
L 318.424402 290.862526 
L 318.931229 290.829132 
L 319.184643 290.954162 
L 319.200481 290.916773 
L 319.263835 290.296391 
L 319.707308 283.345928 
L 320.214136 280.263842 
L 321.306982 275.500393 
L 321.782133 274.032396 
L 322.067223 273.282768 
L 322.510697 271.907978 
L 323.983664 267.656844 
L 324.743904 266.11908 
L 327.103819 261.003957 
L 327.436424 260.347768 
L 328.24418 258.924942 
L 328.450079 258.564666 
L 329.701309 256.436818 
L 329.923046 256.004212 
L 330.176459 255.64322 
L 330.588256 254.989571 
L 331.158437 254.073898 
L 331.887001 252.977943 
L 332.140415 252.87043 
L 332.47302 252.376902 
L 332.932333 251.777489 
L 333.074878 251.61209 
L 333.565867 250.931248 
L 333.787604 250.630231 
L 334.357784 249.935289 
L 334.722066 249.734223 
L 336.986951 247.111877 
L 337.335394 246.981662 
L 337.668 246.720505 
L 338.04812 246.377653 
L 338.444079 245.948534 
L 338.91923 245.428391 
L 339.251835 245.00769 
L 339.584441 244.935614 
L 339.948723 244.861355 
L 340.64561 244.30522 
L 340.772317 244.244506 
L 341.120761 243.944228 
L 341.659265 243.349722 
L 341.912678 243.186512 
L 342.562051 242.969695 
L 344.446815 241.527008 
L 344.58936 241.430897 
L 344.621037 241.456364 
L 344.77942 241.473095 
L 345.397116 241.251192 
L 345.682206 241.108264 
L 346.648346 240.48992 
L 347.044304 240.105314 
L 347.329395 240.237434 
L 347.487778 240.250713 
L 347.931252 239.881263 
L 348.248019 239.730067 
L 348.596463 239.710126 
L 348.802362 239.576343 
L 349.562602 238.809966 
L 349.736824 238.771226 
L 349.87937 238.876494 
L 350.085268 239.013302 
L 350.275328 238.917082 
L 350.497065 238.807201 
L 351.558235 238.326098 
L 351.716618 238.232013 
L 352.096739 237.877043 
L 352.635243 237.92196 
L 352.999525 237.880836 
L 353.2371 237.795331 
L 353.379645 237.767445 
L 353.585544 237.724652 
L 353.759766 237.683631 
L 354.155725 237.504902 
L 354.963481 237.192298 
L 355.185218 237.294153 
L 355.723722 237.060564 
L 356.008812 236.985209 
L 357.08582 236.495786 
L 357.339233 236.391725 
L 358.036121 236.477403 
L 358.558787 236.309511 
L 358.637978 236.252076 
L 358.685493 236.300943 
L 358.828039 236.283605 
L 359.239836 236.204491 
L 360.015915 235.856923 
L 360.459389 236.020035 
L 361.092923 235.779581 
L 361.346337 235.189388 
L 362.455021 229.83682 
L 362.866818 229.217546 
L 363.326131 228.703014 
L 363.737928 228.291545 
L 363.880473 228.202784 
L 364.165563 228.001324 
L 364.355624 227.807122 
L 364.751582 227.513697 
L 364.862451 227.372062 
L 365.052511 227.225918 
L 365.321763 226.940079 
L 366.367094 224.571588 
L 366.6997 224.135627 
L 367.016467 223.785172 
L 367.586647 223.269566 
L 367.950929 223.457025 
L 368.727009 223.386692 
L 368.932907 223.400907 
L 369.265513 223.470852 
L 372.702435 222.555111 
L 373.589383 223.054822 
L 373.858635 223.159599 
L 374.365462 223.200481 
L 375.268248 222.641089 
L 375.410793 222.695262 
L 375.711722 222.908597 
L 375.885944 222.926414 
L 377.263881 223.351861 
L 377.390587 223.393788 
L 377.548971 223.426489 
L 377.739031 223.420993 
L 378.530949 224.00293 
L 378.705171 224.009633 
L 378.879393 223.98819 
L 379.132806 224.08702 
L 379.354543 224.149149 
L 379.877209 224.131707 
L 380.098946 224.137769 
L 380.558258 224.193218 
L 380.938378 224.391733 
L 381.128439 224.408943 
L 381.445206 224.4412 
L 382.126255 224.461141 
L 382.2688 224.498882 
L 382.443022 224.551242 
L 382.823142 224.511365 
L 382.934011 224.559106 
L 383.440838 224.83771 
L 383.947665 224.411391 
L 384.248594 224.297325 
L 384.929643 223.910687 
L 385.072188 223.924185 
L 385.309764 223.947626 
L 385.579016 223.815702 
L 385.769076 223.908672 
L 386.909437 224.176186 
L 387.242043 224.169627 
L 387.527133 224.19872 
L 387.701355 224.201901 
L 387.923092 224.157618 
L 388.239859 224.210399 
L 388.825878 224.623122 
L 389.142645 224.587066 
L 389.28519 224.697403 
L 389.66531 224.905878 
L 390.045431 225.056017 
L 390.457228 225.097557 
L 390.710642 225.099676 
L 391.138277 225.412661 
L 391.993548 225.786534 
L 392.405345 225.999136 
L 393.32397 226.056548 
L 394.068372 226.476672 
L 395.256249 226.723187 
L 395.477986 226.719781 
L 395.842268 226.838997 
L 396.634186 227.351035 
L 397.600325 227.717108 
L 397.8379 227.646642 
L 398.281374 227.584895 
L 398.487273 227.736097 
L 398.487273 227.736097 
" clip-path="url(#p4d1b57d373)" style="fill: none; stroke: #1f77b4; stroke-width: 1.5; stroke-linecap: square"/>
   </g>
   <g id="line2d_15">
    <path d="M 73.832727 238.90871 
L 74.38707 238.764391 
L 75.099795 238.600955 
L 75.590784 238.743508 
L 75.73333 238.772323 
L 76.097612 238.920107 
L 76.351025 238.981658 
L 77.697285 238.766735 
L 78.631748 239.041194 
L 78.821808 239.085407 
L 79.376151 239.051927 
L 79.661241 238.866627 
L 80.278937 238.722602 
L 80.944147 239.031852 
L 81.324268 238.987558 
L 81.672712 239.131722 
L 82.258731 240.513874 
L 83.240709 241.66821 
L 83.462445 241.839099 
L 83.604991 241.970774 
L 83.874243 242.230003 
L 84.935412 242.684889 
L 85.220503 242.741365 
L 85.885713 243.496276 
L 86.170804 243.627056 
L 86.360864 243.733681 
L 86.725146 243.878722 
L 87.200297 244.178769 
L 87.374518 244.27529 
L 87.928861 244.314965 
L 88.435688 244.839127 
L 89.005869 245.164959 
L 89.306797 245.428044 
L 89.86114 245.452409 
L 90.383805 245.638557 
L 90.589704 245.748449 
L 91.270753 246.157823 
L 91.413298 246.218029 
L 92.347761 246.596399 
L 92.64869 246.473505 
L 92.886265 246.454787 
L 93.108002 246.65508 
L 93.567314 247.124533 
L 93.694021 247.091913 
L 93.836566 247.133112 
L 94.327555 247.417652 
L 94.501777 247.454879 
L 94.691837 247.452454 
L 95.705492 247.511598 
L 96.386541 247.984283 
L 96.59244 248.008313 
L 96.909207 248.274504 
L 97.06759 248.265059 
L 97.273489 248.231226 
L 97.732801 248.168838 
L 98.065406 248.137996 
L 98.302982 248.393161 
L 98.79397 248.702942 
L 99.047384 248.734361 
L 99.174091 248.758552 
L 99.443343 248.960173 
L 99.791787 248.889691 
L 100.171907 248.819786 
L 100.361967 248.824023 
L 100.710411 248.937276 
L 101.280592 249.264886 
L 101.787419 249.379119 
L 102.072509 249.499924 
L 102.92778 249.419707 
L 103.102002 249.44757 
L 104.701676 250.154577 
L 104.891736 250.124267 
L 105.271857 250.126137 
L 105.826199 250.010206 
L 106.032097 250.139855 
L 106.269673 250.253708 
L 106.443895 250.284434 
L 106.602278 250.348058 
L 106.760662 250.386659 
L 106.950722 250.409315 
L 107.631771 250.560383 
L 108.106922 250.431831 
L 108.376174 250.342504 
L 108.835486 250.739603 
L 109.104738 250.815617 
L 109.389828 250.857521 
L 109.516535 250.954561 
L 109.674919 251.002469 
L 109.880817 250.952921 
L 110.070877 250.945878 
L 111.021178 250.766912 
L 111.369622 251.028208 
L 111.860611 251.198213 
L 112.06651 251.226619 
L 112.304085 251.304895 
L 112.509984 251.307355 
L 113.159356 251.03039 
L 113.31774 250.990461 
L 113.935435 251.347123 
L 114.315556 251.543074 
L 114.537293 251.500824 
L 114.933251 251.632482 
L 115.487594 251.471379 
L 115.788523 251.384569 
L 115.962744 251.329156 
L 116.67547 251.72256 
L 116.802177 251.7407 
L 116.992237 251.773528 
L 117.213974 251.774348 
L 117.514903 251.752617 
L 117.720801 251.832059 
L 117.879185 251.847255 
L 118.02173 251.788412 
L 118.354336 251.611363 
L 118.591911 251.555014 
L 118.861163 251.82497 
L 119.098738 251.977897 
L 120.888472 251.868998 
L 121.205239 251.814427 
L 121.537844 252.06704 
L 121.949642 252.066035 
L 122.187217 252.132407 
L 122.44063 252.128273 
L 122.994973 252.162418 
L 123.913597 252.045955 
L 124.151173 252.151321 
L 124.642161 252.264469 
L 124.84806 252.367064 
L 125.22818 252.445387 
L 125.719169 252.326072 
L 126.241835 251.993024 
L 127.508903 252.508872 
L 127.778155 252.431519 
L 128.079084 252.425168 
L 128.427528 252.329583 
L 128.934355 252.141621 
L 129.187769 252.344444 
L 129.615404 252.545972 
L 129.852979 252.549402 
L 130.296453 252.627332 
L 130.629059 252.540384 
L 130.819119 252.484566 
L 131.151724 252.365921 
L 131.436815 252.253835 
L 132.006995 252.642736 
L 132.14954 252.712006 
L 132.323762 252.718749 
L 134.113496 252.514807 
L 134.36691 252.725054 
L 134.572808 252.778678 
L 134.873737 252.746196 
L 135.032121 252.726855 
L 135.206342 252.761161 
L 135.475594 252.788631 
L 136.251674 252.575313 
L 136.631794 252.492371 
L 137.05943 252.719096 
L 138.59575 252.763424 
L 138.78581 252.696452 
L 138.88084 252.624792 
L 139.007547 252.507579 
L 139.055062 252.555822 
L 139.340152 252.663786 
L 139.577728 252.793458 
L 139.783626 252.825281 
L 139.973686 252.826575 
L 140.686412 252.90096 
L 141.209078 252.805571 
L 141.414977 252.701567 
L 141.589198 252.556757 
L 141.652552 252.633082 
L 141.874289 252.659837 
L 142.016834 252.731035 
L 142.412793 252.89529 
L 142.666206 252.882346 
L 142.761236 252.986604 
L 142.82459 252.932945 
L 142.951297 252.987885 
L 143.046327 253.004755 
L 143.078004 252.962216 
L 143.188872 252.869125 
L 143.220549 252.904239 
L 143.315579 252.957863 
L 143.363094 252.91895 
L 143.838244 252.751658 
L 144.392587 252.68845 
L 144.820222 252.829427 
L 145.342888 252.963163 
L 145.501271 252.981881 
L 145.8022 252.969941 
L 146.023937 252.848698 
L 146.419896 252.646361 
L 147.037592 252.60112 
L 147.291005 252.806587 
L 147.496904 252.824912 
L 147.845348 252.862647 
L 148.39969 252.708415 
L 148.542235 252.738194 
L 148.811487 252.706325 
L 149.318314 252.546607 
L 149.777627 252.80228 
L 150.015202 252.834854 
L 150.284454 252.751947 
L 150.712089 252.857382 
L 150.870473 252.83662 
L 151.393138 252.768771 
L 151.599037 252.647077 
L 151.820774 252.498307 
L 151.963319 252.494565 
L 152.644368 252.774336 
L 152.945297 252.77392 
L 153.547154 252.790098 
L 154.133173 252.588581 
L 154.370749 252.459012 
L 154.750869 252.610866 
L 155.03596 252.723553 
L 156.445573 252.837844 
L 156.651471 252.658844 
L 157.174137 252.547369 
L 157.554258 252.748852 
L 157.744318 252.904389 
L 158.045246 252.872947 
L 158.900517 252.836043 
L 159.248961 252.61567 
L 159.391506 252.593834 
L 159.660758 252.482383 
L 159.803304 252.605497 
L 160.040879 252.699778 
L 160.151747 252.790987 
L 160.341808 252.914597 
L 161.038695 252.786195 
L 161.878128 252.591941 
L 162.099865 252.502902 
L 162.448308 252.64583 
L 162.701722 252.776888 
L 163.176873 252.784844 
L 163.366933 252.832694 
L 163.556993 252.804601 
L 164.15885 252.752559 
L 164.459779 252.665021 
L 164.824061 252.532913 
L 165.093313 252.727525 
L 165.536787 252.916745 
L 167.120622 252.48385 
L 167.342359 252.390262 
L 167.865025 252.764475 
L 168.847003 252.860349 
L 169.116255 252.830293 
L 169.559729 252.63023 
L 169.908172 252.552727 
L 170.224939 252.68882 
L 170.319969 252.750134 
L 170.541706 252.929793 
L 171.222756 252.941605 
L 171.507846 252.838387 
L 171.729583 252.776669 
L 172.806591 252.530118 
L 173.107519 252.709881 
L 173.360933 252.784555 
L 174.041982 252.815409 
L 174.818062 252.450121 
L 175.182344 252.49415 
L 175.30905 252.601432 
L 175.562464 252.802072 
L 176.08513 252.826505 
L 176.338543 252.89678 
L 176.65531 252.876596 
L 177.098784 252.669074 
L 177.700642 252.625715 
L 177.969894 252.728079 
L 178.207469 252.776392 
L 178.318337 252.865303 
L 178.365852 252.826713 
L 178.730135 252.712548 
L 179.331992 252.663716 
L 179.537891 252.63605 
L 179.648759 252.572449 
L 179.822981 252.498399 
L 180.155586 252.42929 
L 180.646575 252.548882 
L 180.820797 252.583823 
L 181.47017 252.672492 
L 181.691906 252.553524 
L 181.818613 252.60328 
L 182.04035 252.616813 
L 182.784753 252.482175 
L 183.133196 252.591098 
L 183.354933 252.666026 
L 183.560832 252.704419 
L 184.051821 252.726855 
L 184.146851 252.804162 
L 184.194366 252.757293 
L 184.384426 252.707087 
L 185.382243 252.40391 
L 185.540626 252.53595 
L 186.158322 252.652747 
L 186.395897 252.608418 
L 187.472905 252.475859 
L 187.868864 252.321673 
L 188.138116 252.482603 
L 188.328176 252.562819 
L 188.613266 252.648544 
L 188.787488 252.621131 
L 188.977548 252.609365 
L 189.912011 252.405839 
L 190.371323 252.283245 
L 191.321625 252.616224 
L 191.527523 252.674363 
L 192.113542 252.531746 
L 192.667885 252.278349 
L 192.873783 252.139982 
L 193.269742 252.404338 
L 193.713216 252.563166 
L 194.299235 252.504357 
L 194.552649 252.54073 
L 194.806062 252.430156 
L 195.186183 252.370124 
L 195.297051 252.262437 
L 195.423758 252.145282 
L 195.455435 252.167856 
L 195.740525 252.28261 
L 196.484927 252.4316 
L 197.055108 252.403483 
L 197.688642 252.217762 
L 197.894541 252.134405 
L 198.147954 252.057236 
L 198.338015 252.272737 
L 198.528075 252.39301 
L 198.718135 252.376683 
L 198.95571 252.381475 
L 199.240801 252.30717 
L 199.494214 252.365355 
L 199.82682 252.373565 
L 200.11191 252.246491 
L 200.745444 252.059673 
L 201.331463 252.335206 
L 201.695745 252.372895 
L 202.42431 252.415307 
L 202.788592 252.266305 
L 203.137035 252.14034 
L 203.358772 252.17199 
L 203.643863 252.366186 
L 203.96063 252.403079 
L 205.100991 252.382953 
L 205.734525 252.102062 
L 206.019616 252.20043 
L 206.827372 252.416138 
L 208.268662 251.999144 
L 208.411207 251.944746 
L 208.442883 251.977932 
L 208.949711 252.35696 
L 209.298154 252.325033 
L 209.409023 252.394938 
L 209.53573 252.354466 
L 210.69193 251.978775 
L 210.78696 251.935786 
L 210.818636 251.972909 
L 210.992858 252.015148 
L 211.16708 252.193398 
L 211.404655 252.295773 
L 211.879806 252.263188 
L 212.038189 252.249251 
L 212.259926 252.239736 
L 212.861784 252.071786 
L 213.146874 251.991858 
L 213.732893 251.981558 
L 214.081337 252.185107 
L 214.778224 252.101669 
L 215.079153 252.08242 
L 216.124484 251.756173 
L 216.409575 251.872705 
L 216.504605 252.006557 
L 216.678827 252.113678 
L 216.884725 252.122269 
L 217.486583 252.179957 
L 218.516076 251.758656 
L 218.642782 251.781253 
L 219.545568 252.065677 
L 219.688114 252.098482 
L 220.099911 252.101092 
L 221.208595 251.755803 
L 221.430332 251.824716 
L 221.952998 252.103101 
L 222.428149 252.149739 
L 222.618209 252.157579 
L 223.980307 251.842856 
L 224.392104 252.130444 
L 224.62968 252.141206 
L 225.358244 252.039674 
L 225.484951 251.977793 
L 225.960101 251.795652 
L 226.118485 251.711879 
L 226.292707 251.684074 
L 226.498605 251.723911 
L 227.021271 252.100722 
L 227.052947 252.052283 
L 227.195493 252.000633 
L 227.211331 252.011476 
L 227.401391 252.032826 
L 227.591451 252.053022 
L 227.829027 252.109925 
L 227.924057 252.04054 
L 228.129955 251.950716 
L 229.016903 251.76608 
L 229.222802 251.883709 
L 229.4287 251.936536 
L 229.792982 252.052491 
L 229.998881 252.067155 
L 230.315648 252.042376 
L 230.521547 252.106934 
L 230.648253 252.064546 
L 231.091727 251.805467 
L 231.265949 251.744072 
L 231.519363 251.804047 
L 232.168735 251.98926 
L 232.390472 251.945312 
L 233.435803 251.984687 
L 234.053499 251.808458 
L 234.782063 252.000887 
L 234.892932 252.027907 
L 235.067154 252.05883 
L 235.209699 252.085145 
L 235.415597 252.138331 
L 236.112485 251.864622 
L 236.334222 251.817845 
L 236.524282 251.743991 
L 236.635151 251.809751 
L 237.205331 252.137926 
L 237.664643 252.06891 
L 238.013087 252.145455 
L 238.915873 251.760157 
L 239.074257 251.720886 
L 239.850336 252.134705 
L 240.151265 252.13691 
L 240.642254 252.087339 
L 241.465848 251.784463 
L 241.64007 251.740919 
L 241.893484 251.946594 
L 242.178574 252.138261 
L 242.416149 252.164727 
L 242.669563 252.058599 
L 243.208067 252.15288 
L 243.318935 252.141795 
L 243.334774 252.121322 
L 243.477319 252.090665 
L 243.619864 252.053091 
L 243.809924 252.046532 
L 243.952469 252.02487 
L 244.174206 251.862139 
L 244.475135 251.965923 
L 244.776064 252.162256 
L 245.013639 252.172694 
L 245.203699 252.105283 
L 246.138162 252.097501 
L 246.724181 251.789913 
L 247.753674 252.161344 
L 247.975411 252.166955 
L 248.403046 252.165039 
L 248.608945 252.163006 
L 249.163287 251.836078 
L 249.337509 251.761196 
L 250.224457 252.082951 
L 250.47787 252.074846 
L 250.968859 252.052895 
L 251.206435 251.957194 
L 251.34898 251.972528 
L 251.523202 251.889771 
L 251.887484 251.624572 
L 252.156736 251.713911 
L 252.283443 251.873097 
L 252.536856 252.044466 
L 252.901138 251.974376 
L 253.107037 251.95254 
L 254.215722 251.764441 
L 254.580004 251.61612 
L 254.738387 251.76936 
L 255.007639 251.985207 
L 256.274707 251.928846 
L 256.623151 251.704454 
L 256.82905 251.688034 
L 257.446745 251.94276 
L 257.620967 252.027018 
L 257.826866 252.099787 
L 257.921896 252.003786 
L 258.08028 251.941294 
L 258.571269 251.93828 
L 258.777167 251.882716 
L 259.331509 251.737733 
L 259.505731 251.621928 
L 259.52157 251.63433 
L 259.838337 251.724327 
L 259.980882 251.797534 
L 260.123427 251.963117 
L 260.170942 251.930151 
L 260.361002 251.957609 
L 260.519386 251.980334 
L 260.693608 251.946732 
L 261.200435 251.91992 
L 261.358819 251.889944 
L 261.485525 251.941155 
L 261.517202 251.909343 
L 261.754777 251.818296 
L 262.008191 251.691706 
L 262.166574 251.555048 
L 262.182413 251.566514 
L 262.815947 251.995206 
L 263.275259 251.908766 
L 263.417804 252.003093 
L 263.671218 252.078009 
L 264.399782 251.838087 
L 264.732388 251.629087 
L 266.015294 252.0292 
L 266.173678 251.996349 
L 266.379576 251.985264 
L 267.298201 251.64284 
L 267.551614 251.745885 
L 268.200987 251.967621 
L 268.501915 251.952436 
L 268.676137 252.010194 
L 268.977066 251.950058 
L 269.214641 251.920613 
L 269.452217 251.793354 
L 269.943205 251.667816 
L 270.275811 251.881573 
L 270.57674 251.910128 
L 270.703446 251.929978 
L 270.925183 251.972043 
L 271.099405 252.03405 
L 271.321142 252.025817 
L 272.01803 251.832325 
L 272.160575 251.756034 
L 272.429827 251.597714 
L 272.445665 251.615104 
L 272.936654 251.951559 
L 273.586026 251.975842 
L 273.807763 251.941825 
L 274.108692 251.871631 
L 274.536328 251.866666 
L 274.631358 251.800536 
L 274.663034 251.836632 
L 274.789741 251.811252 
L 275.043155 251.729384 
L 275.629174 252.079441 
L 275.850911 252.046567 
L 276.15184 251.956536 
L 276.278546 252.148446 
L 276.3419 252.064084 
L 276.516122 251.967459 
L 276.658667 252.054269 
L 276.769535 252.124624 
L 276.801212 252.103447 
L 277.197171 251.87715 
L 277.371393 251.869033 
L 277.624806 251.746762 
L 277.751513 251.838849 
L 278.004927 251.967979 
L 278.16331 252.109117 
L 278.274179 252.097558 
L 278.290017 252.078194 
L 278.400886 252.019074 
L 278.432562 252.047595 
L 278.511754 252.075665 
L 278.559269 252.019778 
L 278.622623 252.021268 
L 278.654299 252.065365 
L 278.844359 252.164161 
L 279.081935 252.033831 
L 279.303672 252.04405 
L 279.446217 252.022803 
L 279.794661 251.776576 
L 280.238134 251.628833 
L 280.871669 251.961177 
L 282.122898 251.946617 
L 282.439665 251.774914 
L 282.883139 251.73271 
L 283.279098 251.961316 
L 283.659219 251.914632 
L 284.70455 251.783389 
L 284.89461 251.716532 
L 285.528144 251.792811 
L 286.478445 251.956062 
L 287.048626 251.902912 
L 287.191171 251.863132 
L 288.157311 251.798989 
L 288.474078 252.085238 
L 288.489916 252.06913 
L 288.679976 251.997781 
L 289.788661 251.845904 
L 290.37468 251.491459 
L 290.501387 251.598777 
L 290.738962 251.809947 
L 292.211929 251.799174 
L 292.417827 251.790109 
L 292.560373 251.750249 
L 292.734594 251.634999 
L 293.288937 251.779071 
L 293.621542 251.937933 
L 293.843279 251.819312 
L 294.033339 251.822141 
L 294.2234 251.85677 
L 294.746065 251.903801 
L 294.872772 251.899297 
L 295.648851 251.599943 
L 295.997295 251.879679 
L 296.171517 251.958164 
L 296.551637 251.895845 
L 296.789213 251.949931 
L 297.042626 251.932853 
L 297.216848 251.940889 
L 297.549454 251.891815 
L 298.056281 251.578362 
L 298.705653 251.839057 
L 298.83236 251.848445 
L 299.038259 251.862832 
L 299.877691 251.73271 
L 300.099428 251.656939 
L 300.257812 251.666753 
L 300.36868 251.614573 
L 300.606256 251.473331 
L 300.780477 251.591294 
L 301.144759 251.823411 
L 301.556557 251.861285 
L 302.364313 251.750688 
L 302.696918 251.729881 
L 303.092877 251.444925 
L 303.488836 251.639064 
L 303.631381 251.657828 
L 303.916471 251.843745 
L 304.059016 251.812938 
L 304.280753 251.736728 
L 304.629197 251.75145 
L 304.914287 251.718876 
L 305.072671 251.722618 
L 305.341923 251.5994 
L 305.579498 251.508006 
L 305.84875 251.455364 
L 306.308062 251.738933 
L 306.498123 251.765133 
L 306.608991 251.733656 
L 306.783213 251.629122 
L 306.799051 251.641119 
L 307.147495 251.80504 
L 307.876059 251.764879 
L 308.081958 251.612564 
L 308.240341 251.603603 
L 308.414563 251.616697 
L 308.620462 251.734419 
L 308.842199 251.848883 
L 309.127289 251.820166 
L 309.349026 251.862924 
L 309.491571 251.92649 
L 309.523248 251.890833 
L 309.681631 251.834831 
L 309.855853 251.814785 
L 309.950883 251.877624 
L 310.07759 251.979352 
L 310.109267 251.942367 
L 310.331004 251.789555 
L 310.663609 251.663116 
L 310.996215 251.5776 
L 311.408012 251.939146 
L 311.70894 251.908881 
L 312.564211 251.895637 
L 312.722595 251.83184 
L 312.991847 251.760977 
L 313.435321 251.537901 
L 313.641219 251.657204 
L 314.132208 251.909666 
L 314.40146 251.927957 
L 314.544006 251.90663 
L 314.702389 251.956605 
L 315.27257 251.781322 
L 315.446792 251.760746 
L 315.84275 251.657735 
L 316.207033 251.669617 
L 316.777213 251.840004 
L 316.919758 251.802245 
L 317.315717 251.912669 
L 317.949251 251.682457 
L 318.170988 251.660645 
L 318.361048 251.628037 
L 318.598624 251.528271 
L 319.216319 251.821898 
L 319.31135 251.443482 
L 319.548925 250.609827 
L 320.182459 249.77384 
L 320.451711 249.534576 
L 321.306982 248.695194 
L 321.782133 248.558328 
L 322.130576 248.314872 
L 323.476836 247.298661 
L 323.92031 247.006465 
L 325.488307 246.38076 
L 326.106003 245.952968 
L 326.581153 245.749431 
L 326.771214 245.752052 
L 328.117473 245.24461 
L 328.513432 244.949158 
L 328.814361 244.702134 
L 329.907207 244.612553 
L 330.113106 244.544114 
L 330.350681 244.495456 
L 330.683287 244.19751 
L 331.380174 243.767617 
L 332.029546 243.816865 
L 332.393829 243.662355 
L 332.615566 243.626133 
L 333.280776 243.272496 
L 333.676735 242.987835 
L 333.850957 242.958783 
L 334.310269 243.014237 
L 334.484491 242.985635 
L 334.706228 242.970561 
L 336.004973 242.45641 
L 336.495962 242.172188 
L 336.670184 242.203197 
L 337.129496 242.374369 
L 337.541293 242.10275 
L 337.683838 242.078294 
L 338.111474 242.096786 
L 338.776685 241.672771 
L 339.093452 241.48537 
L 339.505249 241.692153 
L 339.774501 241.741954 
L 339.948723 241.601982 
L 340.45555 241.523481 
L 340.708964 241.490508 
L 340.883185 241.496738 
L 341.374174 241.179618 
L 341.722618 241.00172 
L 342.261122 241.130301 
L 342.577889 241.06699 
L 342.815464 241.079408 
L 343.084716 241.098761 
L 343.369807 240.973869 
L 343.575705 240.928721 
L 343.924149 240.649839 
L 344.193401 240.514861 
L 344.526006 240.568981 
L 344.826935 240.782912 
L 344.96948 240.685403 
L 345.175379 240.61331 
L 345.523823 240.575269 
L 345.888105 240.474377 
L 346.078165 240.436134 
L 346.854244 240.065211 
L 347.503617 240.370432 
L 347.788707 240.244281 
L 348.311373 240.189133 
L 348.802362 240.018862 
L 349.483411 239.810526 
L 349.816016 240.006414 
L 350.021915 240.056857 
L 350.44955 239.987576 
L 351.162276 239.850184 
L 351.447366 239.765551 
L 351.669103 239.66552 
L 351.906679 239.498147 
L 352.508536 239.707862 
L 353.2371 239.615787 
L 353.33213 239.65145 
L 353.363807 239.610972 
L 353.553867 239.493014 
L 353.854796 239.455741 
L 354.599199 239.225858 
L 355.169379 239.436815 
L 355.533661 239.374716 
L 355.73956 239.385876 
L 355.92962 239.381938 
L 356.072165 239.330422 
L 356.246387 239.34149 
L 356.388932 239.285874 
L 357.149173 238.951959 
L 358.020283 239.188839 
L 358.210343 239.228682 
L 358.479595 239.281549 
L 358.701332 239.272641 
L 358.90723 239.233023 
L 359.77834 238.94185 
L 359.9684 239.060703 
L 360.095107 239.128887 
L 360.25349 239.212094 
L 360.269329 239.196933 
L 360.443551 239.148477 
L 361.013731 239.283893 
L 361.31466 239.198798 
L 361.425528 239.114811 
L 361.520558 239.094477 
L 361.552235 239.125487 
L 361.69478 239.154031 
L 361.710619 239.135221 
L 361.884841 238.981335 
L 361.916517 239.008216 
L 362.027386 238.970105 
L 362.249123 238.883053 
L 362.518375 239.014867 
L 362.898495 239.18575 
L 363.294454 239.143881 
L 363.642898 239.073479 
L 363.801281 239.083473 
L 363.943826 239.032193 
L 364.308108 238.821577 
L 364.48233 238.770828 
L 364.624876 238.754408 
L 365.369278 239.032609 
L 365.591015 239.109604 
L 365.701883 239.022586 
L 365.92362 238.937208 
L 367.190689 238.60155 
L 367.349072 238.644735 
L 367.618324 238.810509 
L 367.966768 238.894074 
L 368.077636 238.935747 
L 368.251858 238.958766 
L 368.552787 238.950152 
L 368.806201 238.961047 
L 369.598118 238.78174 
L 369.899047 238.613472 
L 370.643449 238.78816 
L 370.944378 238.762595 
L 371.134438 238.774627 
L 371.387852 238.915719 
L 372.353991 238.499123 
L 372.639082 238.586458 
L 374.175402 238.740564 
L 374.983158 238.495347 
L 375.885944 238.63111 
L 376.6937 238.667327 
L 376.88376 238.609898 
L 377.200527 238.516951 
L 377.390587 238.398532 
L 377.517294 238.328863 
L 377.548971 238.355525 
L 377.75487 238.396494 
L 377.865738 238.51433 
L 378.024122 238.600921 
L 378.214182 238.613316 
L 378.356727 238.572925 
L 378.594302 238.532447 
L 378.863554 238.613022 
L 379.782179 238.38568 
L 380.162299 238.273467 
L 380.63745 238.538423 
L 381.492721 238.555143 
L 381.666943 238.519376 
L 381.841164 238.522702 
L 382.094578 238.501825 
L 382.300477 238.441255 
L 382.55389 238.312466 
L 382.712274 238.317974 
L 382.997364 238.411782 
L 383.282455 238.557423 
L 383.456676 238.553359 
L 383.741767 238.48817 
L 384.074372 238.513516 
L 384.311947 238.526783 
L 385.499824 238.334677 
L 385.816591 238.508239 
L 386.450125 238.546211 
L 386.656024 238.522979 
L 388.081475 238.335341 
L 388.429919 238.500936 
L 389.823694 238.549317 
L 390.077108 238.396869 
L 390.362198 238.253721 
L 391.280822 238.477518 
L 391.534236 238.504157 
L 391.898518 238.562163 
L 392.437022 238.418669 
L 393.165586 238.389057 
L 393.545707 238.502367 
L 394.258433 238.653673 
L 394.5752 238.647201 
L 395.509662 238.32899 
L 395.668046 238.316387 
L 395.778914 238.416522 
L 396.30158 238.573964 
L 396.998468 238.586897 
L 397.125174 238.553971 
L 397.283558 238.566961 
L 397.441941 238.613513 
L 397.45778 238.595615 
L 397.616163 238.569565 
L 397.806224 238.520283 
L 398.075476 238.277479 
L 398.091314 238.289448 
L 398.487273 238.548451 
L 398.487273 238.548451 
" clip-path="url(#p4d1b57d373)" style="fill: none; stroke: #ff7f0e; stroke-width: 1.5; stroke-linecap: square"/>
   </g>
   <g id="line2d_16">
    <path d="M 73.832727 239.325988 
L 74.197009 239.454245 
L 74.38707 239.471318 
L 74.735513 239.413843 
L 75.384886 239.052931 
L 75.970905 239.430355 
L 76.255995 239.42267 
L 76.414379 239.418727 
L 76.762822 239.444875 
L 76.921206 239.479112 
L 77.83983 239.146883 
L 77.982376 239.127605 
L 78.283304 239.357159 
L 78.647586 239.427231 
L 79.043545 239.402348 
L 79.265282 239.38893 
L 80.183907 239.088993 
L 80.358128 239.062331 
L 80.659057 239.28342 
L 80.801602 239.33892 
L 81.40346 239.333309 
L 81.704388 239.341536 
L 82.147862 239.270407 
L 82.892265 239.066349 
L 84.365232 239.28924 
L 85.220503 239.106475 
L 85.473916 238.954834 
L 85.648138 238.994712 
L 86.091612 239.258109 
L 86.915206 239.234282 
L 87.35868 239.261481 
L 88.039729 238.831409 
L 88.79997 239.161092 
L 89.401828 239.315186 
L 89.544373 239.265072 
L 89.734433 239.33108 
L 90.003685 239.300267 
L 90.653057 238.941983 
L 90.748088 239.047764 
L 90.985663 239.262635 
L 92.205216 239.292392 
L 92.917942 239.116901 
L 93.21887 238.975781 
L 93.408931 239.059063 
L 93.614829 239.209906 
L 95.277856 239.2124 
L 95.990582 239.080638 
L 96.307349 239.254449 
L 96.68747 239.278934 
L 96.956722 239.255355 
L 97.210135 239.354087 
L 97.495226 239.369046 
L 97.764478 239.312743 
L 98.176275 239.018937 
L 98.493042 239.176709 
L 98.683102 239.302848 
L 98.889001 239.429922 
L 98.920677 239.380859 
L 99.047384 239.27088 
L 99.079061 239.297322 
L 99.253283 239.310844 
L 99.680918 239.359624 
L 100.013524 239.425413 
L 100.219422 239.438524 
L 100.710411 239.198787 
L 101.264753 239.260707 
L 101.787419 239.383642 
L 103.181194 239.391892 
L 103.624668 239.158499 
L 104.020627 239.455423 
L 104.27404 239.426198 
L 105.461917 239.397839 
L 105.71533 239.250921 
L 105.857876 239.171813 
L 106.079613 239.102041 
L 107.235812 239.413034 
L 107.425873 239.396828 
L 107.679286 239.433138 
L 107.869346 239.455481 
L 108.21779 239.33907 
L 108.661264 239.129846 
L 108.962193 239.31171 
L 109.294798 239.506859 
L 109.611565 239.536973 
L 109.896655 239.591614 
L 110.086716 239.536771 
L 110.514351 239.461941 
L 111.242915 239.277006 
L 111.733904 239.409628 
L 111.939803 239.481635 
L 112.06651 239.545351 
L 112.098186 239.503834 
L 112.272408 239.446168 
L 112.763397 239.462092 
L 113.000973 239.453108 
L 113.5078 239.28514 
L 113.682022 239.23968 
L 114.537293 239.461174 
L 114.75903 239.470717 
L 114.933251 239.455389 
L 115.566786 239.55117 
L 116.406218 239.332085 
L 116.548763 239.389357 
L 116.58044 239.356495 
L 116.707147 239.367424 
L 117.055591 239.535911 
L 117.293166 239.491028 
L 117.467388 239.542799 
L 117.9267 239.608195 
L 118.718618 239.356293 
L 118.861163 239.264552 
L 118.89284 239.295152 
L 119.27296 239.523146 
L 119.526374 239.494088 
L 119.732272 239.590863 
L 120.920149 239.596273 
L 121.284431 239.450568 
L 121.506168 239.364543 
L 121.712066 239.541182 
L 122.012995 239.603819 
L 122.630691 239.778911 
L 123.042488 239.84944 
L 123.327578 239.709098 
L 124.056142 239.484227 
L 124.768868 239.79163 
L 125.212342 239.727215 
L 125.735008 239.836518 
L 126.637794 239.406395 
L 126.796177 239.516374 
L 127.128783 239.644152 
L 127.429711 239.666905 
L 127.793994 239.688273 
L 128.126599 239.78077 
L 128.316659 239.772069 
L 128.459204 239.708007 
L 128.744295 239.551852 
L 129.108577 239.423415 
L 129.298637 239.598386 
L 129.520374 239.652443 
L 130.074716 239.682615 
L 130.454837 239.645642 
L 130.914149 239.777918 
L 131.595198 239.512251 
L 131.706067 239.428807 
L 131.737743 239.45525 
L 131.975319 239.525196 
L 133.606669 239.81828 
L 133.955113 239.564276 
L 134.256041 239.458062 
L 135.269696 239.676276 
L 135.523109 239.749166 
L 136.346704 239.684942 
L 136.901046 239.350444 
L 137.043591 239.445285 
L 137.312843 239.589524 
L 137.518742 239.62443 
L 137.867186 239.673152 
L 138.643265 239.69661 
L 139.260961 239.386378 
L 139.561889 239.418987 
L 139.84698 239.607508 
L 140.068717 239.674157 
L 140.242938 239.612242 
L 140.448837 239.667159 
L 140.718089 239.694682 
L 140.892311 239.707787 
L 141.082371 239.654406 
L 141.272431 239.601319 
L 141.525845 239.502465 
L 141.921804 239.339255 
L 142.206894 239.501161 
L 142.412793 239.610031 
L 142.571176 239.660179 
L 142.777075 239.66888 
L 143.157195 239.652801 
L 143.315579 239.663817 
L 143.505639 239.63999 
L 143.885759 239.720449 
L 144.392587 239.450187 
L 144.677677 239.55725 
L 145.437918 239.701875 
L 145.643817 239.643367 
L 146.483249 239.699808 
L 146.831693 239.580321 
L 146.990077 239.428398 
L 147.037592 239.485849 
L 147.14846 239.553116 
L 147.180137 239.524433 
L 147.291005 239.530732 
L 147.306844 239.548619 
L 147.576096 239.700178 
L 148.1146 239.665058 
L 148.478882 239.787467 
L 148.732295 239.761048 
L 149.033224 239.830052 
L 149.144092 239.743843 
L 149.334153 239.596827 
L 149.365829 239.624742 
L 149.492536 239.61226 
L 149.714273 239.539156 
L 149.967687 239.647241 
L 150.363646 239.798067 
L 150.506191 239.721107 
L 150.537867 239.74886 
L 150.712089 239.76069 
L 150.886311 239.789938 
L 151.076371 239.89057 
L 151.298108 239.868099 
L 151.599037 239.819556 
L 151.899966 239.672887 
L 152.200894 239.557082 
L 152.43847 239.539681 
L 152.596853 239.622479 
L 152.976974 239.789852 
L 153.293741 239.803875 
L 153.531316 239.828078 
L 153.943113 239.794857 
L 154.149012 239.756539 
L 154.307395 239.667136 
L 154.529132 239.59778 
L 154.845899 239.570003 
L 155.400242 239.857505 
L 156.794017 239.914997 
L 157.380036 239.767462 
L 157.775994 239.964741 
L 158.251145 240.013216 
L 158.441205 239.976918 
L 158.726296 240.005612 
L 158.900517 240.061095 
L 159.138093 240.125781 
L 159.439021 240.003366 
L 159.660758 239.82612 
L 159.83498 239.711777 
L 160.215101 239.866933 
L 160.420999 240.009359 
L 160.563544 240.036512 
L 160.579383 240.017938 
L 160.753605 239.949407 
L 161.197079 240.09237 
L 161.482169 240.123223 
L 161.735583 240.106007 
L 162.511662 239.795134 
L 163.319418 240.056534 
L 163.461963 240.087878 
L 164.697354 240.302028 
L 165.140828 240.089766 
L 165.267535 240.262098 
L 165.441757 240.30932 
L 165.916908 240.317691 
L 166.597957 240.469464 
L 167.611611 240.1341 
L 168.00757 240.294701 
L 168.340175 240.394761 
L 169.037063 240.477489 
L 169.512214 240.425413 
L 169.73395 240.432139 
L 169.844819 240.370697 
L 170.129909 240.118195 
L 170.858473 240.353585 
L 170.969342 240.416412 
L 171.159402 240.424887 
L 171.555361 240.526806 
L 171.85629 240.577347 
L 172.109703 240.450902 
L 172.616531 240.129187 
L 172.727399 240.112641 
L 172.759076 240.150566 
L 173.012489 240.292184 
L 173.123358 240.392117 
L 173.281741 240.445579 
L 173.851922 240.460509 
L 174.041982 240.488014 
L 174.311234 240.57289 
L 174.628001 240.409784 
L 174.849738 240.368677 
L 174.976445 240.253744 
L 175.182344 240.162575 
L 175.863393 240.442 
L 177.209653 240.4526 
L 177.890702 240.252924 
L 178.619266 240.450879 
L 179.078578 240.46074 
L 179.411184 240.512973 
L 180.187263 240.196604 
L 180.377323 240.132778 
L 180.662414 240.267872 
L 180.868312 240.340606 
L 180.979181 240.366425 
L 181.169241 240.386176 
L 181.454331 240.426665 
L 181.771098 240.435106 
L 182.072027 240.503152 
L 182.436309 240.411828 
L 182.705561 240.27909 
L 183.00649 240.119863 
L 183.228227 240.295273 
L 183.418287 240.350698 
L 184.8279 240.419535 
L 185.176344 240.164786 
L 185.461434 240.015179 
L 185.651495 240.007223 
L 186.07913 240.349139 
L 186.680987 240.282334 
L 187.092785 240.359699 
L 187.251168 240.36777 
L 188.280661 240.138667 
L 188.470721 240.268553 
L 188.850842 240.400125 
L 189.088417 240.37844 
L 189.294316 240.381933 
L 189.484376 240.409905 
L 190.11791 240.290417 
L 190.450515 240.122554 
L 190.830636 240.150006 
L 191.305786 240.370068 
L 191.480008 240.386955 
L 192.271926 240.45264 
L 192.414471 240.434714 
L 192.604531 240.347067 
L 192.90546 240.234986 
L 193.253904 240.076626 
L 194.520972 240.335953 
L 194.647679 240.380177 
L 194.869416 240.480082 
L 195.740525 240.145318 
L 195.9781 240.18217 
L 196.326544 240.416152 
L 197.118462 240.446861 
L 197.466905 240.558041 
L 198.48056 240.07815 
L 199.193286 240.367395 
L 199.351669 240.417145 
L 199.510053 240.417018 
L 199.795143 240.433738 
L 200.349485 240.33246 
L 200.492031 240.180456 
L 200.729606 240.028544 
L 201.204756 240.135105 
L 201.394817 240.337246 
L 201.569039 240.282046 
L 201.695745 240.309602 
L 201.854129 240.297011 
L 202.091704 240.368405 
L 202.345118 240.42401 
L 202.99449 240.247699 
L 203.105359 240.207776 
L 203.311257 240.064172 
L 203.643863 240.039358 
L 204.24572 240.309435 
L 204.404104 240.333043 
L 204.578326 240.346102 
L 204.768386 240.359399 
L 205.291051 240.40035 
L 205.623657 240.217389 
L 205.766202 240.102358 
L 205.956262 240.06434 
L 206.177999 240.120233 
L 206.637311 240.326421 
L 206.859048 240.335797 
L 207.286684 240.264027 
L 207.619289 240.343781 
L 207.809349 240.348672 
L 208.268662 240.157287 
L 208.648782 240.049386 
L 209.203124 240.270193 
L 210.280132 240.425395 
L 210.391001 240.469845 
L 210.422678 240.447005 
L 210.707768 240.368186 
L 210.850313 240.250956 
L 211.26211 239.986415 
L 211.800614 240.23147 
L 212.51334 240.372834 
L 212.655885 240.427006 
L 212.766754 240.356685 
L 212.877622 240.401551 
L 213.020167 240.395344 
L 213.796247 239.980976 
L 214.318912 240.391216 
L 215.063315 240.434667 
L 215.411758 240.43894 
L 215.855232 240.214075 
L 216.124484 240.095014 
L 216.298706 240.069697 
L 216.520443 240.090944 
L 217.090624 240.387619 
L 217.470744 240.392146 
L 217.660805 240.457484 
L 219.070418 240.102531 
L 219.640599 240.347534 
L 219.830659 240.30578 
L 220.369163 240.473015 
L 221.636231 240.154821 
L 221.984675 240.468858 
L 222.079705 240.406909 
L 222.269765 240.301531 
L 222.459825 240.281647 
L 223.077521 240.135555 
L 223.425965 240.017142 
L 223.647702 239.896349 
L 224.265397 239.72091 
L 224.708871 239.915863 
L 225.342405 239.862643 
L 225.484951 239.817841 
L 225.722526 239.803333 
L 226.245191 239.576302 
L 226.514443 239.419968 
L 227.227169 239.69534 
L 227.385553 239.693596 
L 227.575613 239.676495 
L 228.066602 239.8144 
L 228.969388 239.430626 
L 229.23864 239.35045 
L 230.648253 239.815728 
L 231.075889 239.589824 
L 231.250111 239.567382 
L 231.630231 239.321883 
L 231.883645 239.441469 
L 232.596371 239.599252 
L 232.865623 239.680363 
L 233.309097 239.747318 
L 234.132691 239.33862 
L 234.243559 239.283114 
L 234.275236 239.30346 
L 234.956285 239.734259 
L 235.178022 239.657691 
L 235.653173 239.753998 
L 235.985778 239.712718 
L 236.191677 239.610071 
L 236.841049 239.399721 
L 237.141978 239.61103 
L 237.363715 239.720749 
L 238.234824 239.755511 
L 238.456561 239.775782 
L 239.185125 239.535241 
L 239.359347 239.481242 
L 239.565246 239.513758 
L 240.436355 239.724756 
L 240.689769 239.749749 
L 240.863991 239.767162 
L 241.038213 239.847222 
L 241.133243 239.794453 
L 241.323303 239.695859 
L 241.54504 239.682759 
L 241.703423 239.615187 
L 241.92516 239.448333 
L 242.194412 239.525184 
L 242.495341 239.643142 
L 242.79627 239.665104 
L 243.065522 239.812703 
L 243.128875 239.811144 
L 243.144713 239.782155 
L 243.208067 239.670185 
L 243.255582 239.741533 
L 243.413965 239.829186 
L 243.524834 239.91039 
L 243.556511 239.874346 
L 243.714894 239.828678 
L 243.920793 239.796422 
L 244.158368 239.631987 
L 244.300913 239.568958 
L 244.538488 239.449546 
L 244.776064 239.568289 
L 244.981962 239.635353 
L 245.172022 239.691633 
L 245.377921 239.774892 
L 245.900587 239.819914 
L 246.138162 239.950666 
L 246.264869 239.865184 
L 246.439091 239.792704 
L 246.771696 239.58181 
L 246.993433 239.471502 
L 247.341877 239.553965 
L 248.070441 239.911216 
L 248.403046 239.962571 
L 248.703975 239.978754 
L 249.828498 239.63611 
L 250.145265 239.874935 
L 250.271972 239.929315 
L 250.47787 239.991288 
L 250.731284 240.058734 
L 250.873829 240.029474 
L 251.317303 240.021518 
L 251.428172 239.88923 
L 251.475687 239.946988 
L 251.53904 239.963564 
L 251.570717 239.914876 
L 251.760777 239.764743 
L 251.950837 239.724912 
L 252.299281 239.667471 
L 252.663563 240.043012 
L 252.69524 240.008937 
L 252.853623 240.00433 
L 253.17039 240.091458 
L 253.518834 240.152091 
L 254.089015 240.130862 
L 254.389943 240.00295 
L 254.51665 239.927837 
L 254.675034 239.880206 
L 255.197699 239.988938 
L 256.73402 239.992622 
L 257.034948 239.891823 
L 257.145817 239.84209 
L 257.462584 239.632732 
L 257.937734 239.943178 
L 258.096118 239.933755 
L 258.317855 239.968488 
L 258.856359 240.052689 
L 259.505731 239.928161 
L 259.90169 239.679064 
L 260.09175 239.664879 
L 260.329326 239.812645 
L 260.566901 239.872585 
L 260.756961 239.863371 
L 261.485525 240.077884 
L 261.818131 239.884375 
L 262.008191 239.784569 
L 262.245766 239.694289 
L 262.340796 239.668343 
L 262.372473 239.705611 
L 262.435826 239.711748 
L 262.467503 239.673095 
L 262.610048 239.640752 
L 262.625887 239.658297 
L 262.990169 239.982888 
L 263.164391 240.021373 
L 264.431459 240.001824 
L 264.637357 239.877291 
L 264.874933 239.757653 
L 265.017478 239.769921 
L 265.714365 240.09487 
L 265.920264 240.027516 
L 266.72802 240.043515 
L 266.965595 239.960486 
L 267.139817 239.939529 
L 267.377392 239.749501 
L 267.995088 240.033019 
L 268.4544 240.212718 
L 268.739491 240.15757 
L 268.945389 240.144787 
L 269.499732 240.212366 
L 270.339164 239.942237 
L 270.687608 240.059802 
L 272.097221 240.123858 
L 272.382312 239.915944 
L 272.699079 239.781151 
L 273.190068 239.965509 
L 273.427643 240.064138 
L 273.617703 240.020415 
L 273.776087 240.104604 
L 273.981985 240.207164 
L 274.235399 240.172506 
L 275.011478 239.990433 
L 275.391599 239.822385 
L 276.421092 240.194462 
L 276.62699 240.252566 
L 277.149656 240.187875 
L 277.941573 239.84534 
L 278.781006 240.294112 
L 279.652115 240.233572 
L 279.826337 240.175964 
L 280.586578 239.97365 
L 280.966699 240.246493 
L 281.362657 240.367435 
L 281.663586 240.303136 
L 282.138737 240.361154 
L 283.120715 240.032632 
L 283.484997 240.308142 
L 284.546166 240.234686 
L 284.720388 240.270897 
L 284.847095 240.235898 
L 285.132185 240.169671 
L 285.575659 239.997627 
L 286.3359 240.302259 
L 286.716021 240.272981 
L 286.937757 240.338984 
L 288.394886 240.072088 
L 288.679976 240.243254 
L 289.091773 240.278154 
L 290.08959 240.219057 
L 290.675609 239.924437 
L 290.913184 239.938316 
L 291.43585 240.159227 
L 291.562556 240.251689 
L 291.736778 240.224253 
L 291.847647 240.249443 
L 292.021869 240.291514 
L 292.607888 240.131549 
L 292.940493 239.979348 
L 293.051361 239.866997 
L 293.209745 239.813748 
L 294.334268 240.2196 
L 294.524328 240.260118 
L 294.682712 240.253565 
L 294.856934 240.29148 
L 294.951964 240.219773 
L 295.126186 240.127525 
L 295.237054 240.057544 
L 295.506306 239.916192 
L 295.66469 239.818378 
L 295.85475 239.843354 
L 296.092325 239.961739 
L 296.219032 240.05367 
L 296.409092 240.178377 
L 296.424931 240.166599 
L 296.583314 240.18306 
L 297.517777 240.172488 
L 297.707837 240.104621 
L 298.167149 239.783293 
L 298.278018 239.712343 
L 298.309694 239.742763 
L 298.483916 239.795729 
L 298.626461 239.868151 
L 299.640116 240.138708 
L 299.941045 240.054715 
L 300.131105 240.00795 
L 300.416195 239.601579 
L 301.23979 237.825318 
L 301.52488 237.620164 
L 301.71494 237.530392 
L 302.047546 237.331173 
L 303.25126 236.565333 
L 303.599704 236.317161 
L 304.486652 236.36743 
L 304.787581 236.382805 
L 304.866772 236.371345 
L 304.882611 236.348632 
L 305.072671 236.250702 
L 305.452791 236.113045 
L 305.690367 235.96801 
L 305.817073 235.866397 
L 306.022972 235.743087 
L 306.292224 235.891823 
L 306.418931 236.038868 
L 306.466446 236.018129 
L 306.830728 236.071205 
L 307.00495 236.199515 
L 307.020788 236.189515 
L 307.179172 236.205259 
L 307.448424 236.315711 
L 307.939413 236.216327 
L 308.414563 236.003482 
L 308.588785 235.930806 
L 309.380703 236.395345 
L 310.093429 236.463634 
L 310.251812 236.465302 
L 310.917023 236.296116 
L 311.265467 236.249328 
L 311.661425 236.525161 
L 311.962354 236.714676 
L 311.978192 236.69564 
L 312.089061 236.629604 
L 312.120738 236.653107 
L 312.421666 236.760361 
L 312.754272 236.761966 
L 313.229422 236.729998 
L 313.435321 236.544751 
L 313.973825 236.750073 
L 314.274754 236.917717 
L 314.575682 236.963143 
L 314.749904 237.006184 
L 314.987479 237.048879 
L 315.130025 237.090084 
L 315.335923 237.186409 
L 315.541822 237.163228 
L 315.763559 237.13865 
L 315.969457 237.032603 
L 316.159517 236.992241 
L 316.476285 236.973108 
L 316.80889 237.154741 
L 317.141495 237.307369 
L 317.442424 237.404842 
L 318.772846 237.284754 
L 318.978744 237.223393 
L 319.168804 237.373019 
L 319.548925 237.651658 
L 319.7865 237.660295 
L 319.960722 237.7015 
L 320.245812 237.768357 
L 320.388358 237.814302 
L 320.594256 237.892614 
L 320.895185 237.799638 
L 321.655426 237.689884 
L 321.861324 237.870825 
L 322.035546 237.955487 
L 322.320637 238.045316 
L 322.526535 238.110533 
L 323.207584 238.162275 
L 323.508513 238.018262 
L 323.746088 237.98682 
L 324.062855 237.868157 
L 324.949803 238.295354 
L 325.314085 238.364809 
L 325.710044 238.335941 
L 325.915942 238.180756 
L 325.931781 238.192881 
L 326.169356 238.247336 
L 326.406931 238.107289 
L 326.565315 238.06863 
L 327.087981 238.381228 
L 327.420586 238.455776 
L 327.642323 238.502835 
L 327.800706 238.508724 
L 328.022443 238.500676 
L 328.212504 238.544843 
L 328.370887 238.462935 
L 328.608462 238.449454 
L 328.766846 238.428421 
L 329.416218 238.394588 
L 329.68547 238.509111 
L 330.002237 238.567533 
L 330.509065 238.621324 
L 331.079245 238.551904 
L 331.90284 238.231101 
L 332.425505 238.544808 
L 332.599727 238.567244 
L 332.837302 238.64003 
L 333.074878 238.584385 
L 333.486675 238.572036 
L 333.692573 238.591671 
L 333.882634 238.542626 
L 334.072694 238.451544 
L 334.310269 238.374139 
L 334.563683 238.483269 
L 334.817096 238.621266 
L 335.07051 238.683412 
L 335.387277 238.736118 
L 335.862428 238.729802 
L 336.068326 238.765297 
L 336.242548 238.642051 
L 336.400932 238.620273 
L 336.590992 238.503892 
L 336.876082 238.475931 
L 337.081981 238.565056 
L 337.95309 238.85172 
L 338.903391 238.692979 
L 339.39438 238.502281 
L 340.883185 238.982027 
L 341.643426 238.773397 
L 341.754295 238.743306 
L 341.944355 238.641393 
L 342.118577 238.65287 
L 342.213607 238.683758 
L 342.229445 238.712204 
L 342.419506 238.868896 
L 342.704596 238.847563 
L 343.132231 238.884716 
L 343.52819 238.985826 
L 343.670735 238.925649 
L 344.114209 238.712764 
L 344.668552 238.791232 
L 345.397116 238.951861 
L 345.634691 238.890957 
L 345.903943 239.009809 
L 346.078165 239.040368 
L 346.458285 239.020612 
L 346.695861 238.931538 
L 347.09182 238.739034 
L 347.18685 238.687297 
L 347.234365 238.728584 
L 347.725354 238.992905 
L 347.962929 239.015519 
L 348.089636 239.05785 
L 348.121312 239.023308 
L 348.232181 238.992108 
L 348.263858 239.027736 
L 348.453918 239.106775 
L 349.435896 238.880588 
L 349.594279 238.831588 
L 350.053591 238.9969 
L 350.338682 239.153378 
L 350.528742 239.155081 
L 350.702964 239.149071 
L 350.861347 239.204422 
L 350.988054 239.17112 
L 351.114761 239.229623 
L 351.304821 239.258577 
L 352.065062 239.04822 
L 352.270961 238.925401 
L 352.651081 239.059294 
L 352.85698 239.242192 
L 353.664736 239.399115 
L 353.823119 239.367418 
L 353.965664 239.392157 
L 354.124048 239.404114 
L 354.615037 239.157327 
L 354.77342 239.098034 
L 354.979319 239.128939 
L 355.45447 239.384381 
L 355.897943 239.371113 
L 356.183034 239.420274 
L 356.689861 239.461387 
L 356.848245 239.400991 
L 357.37091 239.242694 
L 357.513455 239.252803 
L 357.640162 239.302646 
L 358.067798 239.46477 
L 358.463756 239.482876 
L 358.733008 239.531402 
L 359.255674 239.431688 
L 359.635795 239.28786 
L 360.031753 239.245956 
L 360.570257 239.526743 
L 360.760318 239.476906 
L 362.249123 239.398127 
L 362.455021 239.274119 
L 363.500352 239.408167 
L 363.658736 239.44644 
L 363.785443 239.538746 
L 363.832958 239.488326 
L 364.00718 239.447837 
L 364.624876 239.367274 
L 364.925804 239.139764 
L 365.036673 239.166675 
L 365.385116 239.345023 
L 365.622692 239.421787 
L 366.050327 239.481733 
L 366.272064 239.503303 
L 366.477963 239.547164 
L 366.79473 239.608559 
L 366.98479 239.54225 
L 367.222365 239.428577 
L 367.380749 239.312149 
L 367.523294 239.219935 
L 367.554971 239.250967 
L 367.697516 239.263103 
L 367.824223 239.321733 
L 368.061798 239.442381 
L 368.394403 239.507806 
L 368.61614 239.553532 
L 368.790362 239.644937 
L 368.996261 239.664394 
L 370.05743 239.220495 
L 370.199976 239.264119 
L 370.881025 239.564969 
L 371.1186 239.544294 
L 371.276983 239.508043 
L 371.435367 239.522828 
L 371.783811 239.621191 
L 371.958033 239.582278 
L 372.94001 239.389409 
L 373.161747 239.582722 
L 373.510191 239.599552 
L 373.81112 239.600372 
L 374.112049 239.631999 
L 374.603037 239.638639 
L 374.856451 239.59685 
L 375.44247 239.428328 
L 375.838429 239.673083 
L 376.091843 239.670531 
L 377.453941 239.643344 
L 378.024122 239.457531 
L 378.752686 239.717192 
L 379.449573 239.809256 
L 379.639633 239.914201 
L 379.655472 239.891413 
L 379.845532 239.776278 
L 380.494905 239.579033 
L 380.938378 239.674809 
L 381.239307 239.760032 
L 381.666943 239.735639 
L 382.031225 239.786734 
L 382.205447 239.824873 
L 382.316315 239.902192 
L 382.36383 239.856708 
L 382.775627 239.613841 
L 383.124071 239.555835 
L 383.361646 239.685663 
L 384.818775 239.864087 
L 385.072188 239.754893 
L 385.388955 239.534635 
L 385.579016 239.525276 
L 385.721561 239.598478 
L 385.911621 239.712839 
L 386.022489 239.774967 
L 386.196711 239.797675 
L 386.87776 239.914391 
L 387.036144 239.904241 
L 387.194528 239.904992 
L 387.495456 239.804759 
L 388.049799 239.516097 
L 388.192344 239.569086 
L 388.588303 239.830728 
L 388.936746 239.91106 
L 389.38022 239.903681 
L 389.601957 239.945014 
L 389.839532 239.86157 
L 390.995732 239.639499 
L 391.581751 239.74856 
L 391.898518 239.631987 
L 393.054718 239.626405 
L 393.292293 239.535322 
L 393.561545 239.643413 
L 393.719929 239.710651 
L 393.957504 239.784032 
L 394.305948 239.722083 
L 394.527685 239.764875 
L 394.733583 239.85265 
L 394.923643 239.841524 
L 395.208734 239.741077 
L 395.462147 239.697505 
L 395.747238 239.559224 
L 396.079843 239.536344 
L 396.285742 239.693267 
L 396.444125 239.710264 
L 396.808407 239.679018 
L 397.014306 239.637241 
L 397.346911 239.827108 
L 397.55281 239.781341 
L 398.455596 239.552683 
L 398.487273 239.58789 
L 398.487273 239.58789 
" clip-path="url(#p4d1b57d373)" style="fill: none; stroke: #2ca02c; stroke-width: 1.5; stroke-linecap: square"/>
   </g>
   <g id="line2d_17">
    <path d="M 73.832727 242.716355 
L 74.101979 242.72733 
L 75.068119 242.582462 
L 75.448239 242.444234 
L 75.73333 242.638644 
L 76.335187 242.712019 
L 76.968721 242.70378 
L 77.206296 242.65761 
L 77.45971 242.600418 
L 77.713124 242.449915 
L 77.998214 242.428767 
L 78.901 242.583796 
L 79.930493 242.570881 
L 80.53235 242.334896 
L 81.181723 242.625174 
L 81.530166 242.610365 
L 81.609358 242.611052 
L 81.625197 242.572572 
L 81.704388 241.760955 
L 82.021155 237.34332 
L 82.607174 234.204047 
L 83.209032 231.921967 
L 83.446607 231.256817 
L 84.111818 229.349505 
L 86.059935 224.261691 
L 86.297511 223.794005 
L 86.851853 222.59829 
L 88.467365 219.104902 
L 89.338474 217.501106 
L 91.11237 213.973383 
L 91.730065 212.935774 
L 94.739352 207.926232 
L 94.945251 207.672511 
L 95.420401 206.894108 
L 95.784684 206.228669 
L 96.117289 205.791317 
L 96.386541 205.43174 
L 96.703308 204.98761 
L 96.988398 204.461231 
L 97.416034 203.696558 
L 97.891184 202.966583 
L 98.683102 201.318142 
L 98.936516 201.043151 
L 99.37999 200.212724 
L 99.696757 199.633974 
L 99.839302 199.447104 
L 101.248915 196.275384 
L 101.803257 195.223769 
L 102.880265 191.525809 
L 103.402931 188.051193 
L 103.688021 184.088747 
L 103.846405 177.814407 
L 103.941435 160.086561 
L 104.17901 53.568 
L 104.27404 61.43104 
L 105.287695 185.43855 
L 105.636139 194.520136 
L 106.063774 200.105747 
L 106.507248 203.500127 
L 106.96656 205.569033 
L 107.520903 207.160883 
L 108.534557 208.875038 
L 108.677102 209.090637 
L 109.75411 210.539876 
L 110.007524 210.662008 
L 110.276776 210.882081 
L 110.688573 211.026707 
L 111.575521 211.219731 
L 111.828934 211.423743 
L 112.224893 211.386129 
L 112.44663 211.321598 
L 112.874266 211.408576 
L 113.048488 211.373415 
L 113.191033 211.336073 
L 113.5078 211.134336 
L 113.618668 211.066336 
L 113.840405 210.915475 
L 114.109657 210.952812 
L 114.252202 211.107951 
L 114.410586 211.120093 
L 115.788523 211.098419 
L 116.532925 210.737265 
L 116.67547 210.778476 
L 116.86553 210.886671 
L 117.372358 210.727699 
L 117.499065 210.652066 
L 117.657448 210.618736 
L 117.83167 210.574771 
L 118.100922 210.403033 
L 118.639426 210.025316 
L 119.288798 209.686384 
L 119.732272 209.724708 
L 120.001524 209.525321 
L 120.840957 209.129971 
L 121.189401 208.852406 
L 121.854611 208.547515 
L 122.012995 208.574702 
L 123.897759 207.557422 
L 124.071981 207.441058 
L 125.085635 207.194433 
L 125.434079 207.036788 
L 125.671654 206.965116 
L 125.893391 206.907716 
L 126.083452 206.717988 
L 126.57444 206.217856 
L 126.716986 206.006679 
L 126.812016 205.977212 
L 126.843692 206.016142 
L 127.017914 206.078126 
L 128.189952 205.632391 
L 128.411689 205.53628 
L 128.649265 205.409119 
L 129.124415 204.844913 
L 129.599566 204.736614 
L 130.074716 204.600972 
L 130.42316 204.497021 
L 130.692412 204.391724 
L 131.531845 203.554536 
L 131.896127 203.211136 
L 132.513823 203.234005 
L 132.703883 203.144037 
L 132.92562 203.05154 
L 133.828406 202.639164 
L 134.113496 202.342552 
L 134.541132 201.947952 
L 134.762869 201.981629 
L 135.443918 201.769506 
L 135.633978 201.703798 
L 136.061613 201.579553 
L 136.394219 201.375374 
L 137.122783 200.902769 
L 137.138621 200.92416 
L 137.297005 200.962236 
L 137.550419 200.981883 
L 137.661287 200.87243 
L 137.867186 200.789113 
L 138.215629 200.689734 
L 138.50072 200.59517 
L 139.482698 199.713619 
L 139.656919 199.691403 
L 139.989525 199.585956 
L 140.401322 199.302594 
L 140.575544 199.205253 
L 141.367461 198.90445 
L 141.47833 198.862696 
L 141.66839 198.759143 
L 143.10968 197.885265 
L 143.505639 197.674891 
L 143.759053 197.506588 
L 144.297557 197.03261 
L 144.883576 196.391546 
L 146.578279 194.770546 
L 147.005915 194.11983 
L 147.116783 194.021357 
L 147.386035 193.649832 
L 147.576096 193.538161 
L 148.019569 192.826321 
L 148.162115 192.791475 
L 148.336336 192.730216 
L 148.653104 192.386778 
L 148.795649 192.138961 
L 150.632898 188.677747 
L 151.171402 186.75644 
L 151.3773 185.877585 
L 151.725744 183.445019 
L 151.994996 179.409193 
L 152.169218 173.329526 
L 152.280086 159.70058 
L 152.422631 92.916227 
L 152.565177 62.058449 
L 152.581015 62.400441 
L 152.691883 71.433446 
L 153.6897 171.78753 
L 154.022305 181.52536 
L 154.44994 186.931607 
L 154.956768 191.191416 
L 156.540603 199.662876 
L 157.411712 201.814325 
L 157.91854 203.198249 
L 158.251145 203.926382 
L 159.565728 205.657096 
L 159.708273 205.735933 
L 160.310131 206.615896 
L 160.626898 207.059611 
L 160.99118 207.312991 
L 161.498007 207.825259 
L 161.656391 207.891522 
L 161.925643 208.083235 
L 162.369117 208.054045 
L 162.495823 208.102149 
L 162.749237 208.373641 
L 163.271903 208.925048 
L 163.525316 209.012551 
L 163.731215 209.093454 
L 163.905437 209.187123 
L 164.127174 209.17501 
L 164.412264 209.158608 
L 164.554809 209.136501 
L 165.156667 208.946289 
L 165.346727 209.07129 
L 166.091129 209.393888 
L 166.344543 209.377544 
L 166.518765 209.380771 
L 166.708825 209.344872 
L 167.437389 209.008359 
L 167.674965 208.925995 
L 167.91254 209.05487 
L 168.878679 209.04662 
L 169.021225 209.055309 
L 169.147931 209.033572 
L 169.369668 208.89715 
L 169.63892 208.734956 
L 170.003202 208.385835 
L 170.177424 208.306744 
L 170.969342 208.393663 
L 171.634553 208.129873 
L 171.76126 208.052642 
L 172.949136 207.21162 
L 173.123358 207.318545 
L 173.281741 207.324636 
L 173.661862 207.182199 
L 173.804407 207.145687 
L 174.010306 207.027192 
L 174.73887 206.563369 
L 175.483272 206.085262 
L 175.720848 206.124175 
L 175.942585 206.105423 
L 176.338543 206.034386 
L 176.449412 205.947981 
L 176.639472 205.884594 
L 177.035431 205.852401 
L 177.874864 205.239593 
L 178.080762 205.198243 
L 178.571751 205.305099 
L 179.078578 205.193388 
L 179.585406 205.226995 
L 179.870496 205.038682 
L 180.535707 204.453702 
L 180.551545 204.469839 
L 180.899989 204.681847 
L 181.042534 204.618974 
L 182.563016 203.850606 
L 182.689723 203.742261 
L 182.895621 203.556655 
L 183.19655 203.363348 
L 183.323257 203.422341 
L 183.418287 203.472784 
L 183.465802 203.426336 
L 183.640024 203.411458 
L 183.925114 203.290527 
L 184.241881 203.16847 
L 184.416103 203.156328 
L 184.574487 203.035501 
L 184.875415 202.801445 
L 185.002122 202.727446 
L 185.588141 202.114742 
L 185.857393 202.220143 
L 186.047453 202.266977 
L 187.599612 201.554438 
L 187.853025 201.342252 
L 188.090601 201.116139 
L 188.217308 201.146427 
L 188.391529 201.205998 
L 188.660781 201.10521 
L 188.835003 201.067914 
L 189.262639 200.835428 
L 189.389346 200.854722 
L 189.595244 200.926106 
L 190.482192 200.352685 
L 190.735606 199.95036 
L 191.226595 199.8915 
L 191.46417 199.731615 
L 191.765099 199.533533 
L 191.986835 199.359116 
L 192.161057 199.29667 
L 192.62037 198.916863 
L 193.032167 198.716587 
L 193.412287 198.474234 
L 193.934953 198.517552 
L 194.410103 198.174175 
L 194.600164 198.063567 
L 194.774385 197.946007 
L 194.932769 198.073116 
L 195.059476 198.038181 
L 195.249536 198.010243 
L 195.566303 197.999175 
L 196.088969 197.768369 
L 196.342382 197.801901 
L 197.007593 197.593635 
L 197.213492 197.566003 
L 197.767834 197.288594 
L 198.528075 196.607982 
L 198.924034 196.555022 
L 199.050741 196.52638 
L 199.193286 196.500521 
L 199.430861 196.57583 
L 200.096072 196.120747 
L 200.476192 195.979857 
L 201.030535 195.662784 
L 201.600715 195.83589 
L 201.759099 195.678806 
L 201.949159 195.610107 
L 202.440148 195.566702 
L 202.946975 195.186611 
L 203.184551 194.983818 
L 203.437964 194.682761 
L 204.784224 193.986673 
L 205.005961 193.712771 
L 205.164345 193.568836 
L 205.370243 193.511505 
L 205.655333 193.422395 
L 206.162161 193.011961 
L 206.700665 192.807745 
L 208.395368 190.859424 
L 208.854681 190.115425 
L 208.870519 190.126043 
L 208.965549 190.138964 
L 208.997226 190.090957 
L 209.488215 188.819015 
L 209.836658 188.088943 
L 210.470193 186.453699 
L 210.834475 185.132764 
L 211.420494 181.956041 
L 211.768937 177.953868 
L 211.974836 171.075505 
L 212.085705 157.957753 
L 212.22825 97.41678 
L 212.370795 66.502758 
L 212.402472 67.038293 
L 212.529178 76.755328 
L 213.526995 168.643101 
L 213.8596 177.770041 
L 214.192205 181.938706 
L 214.588164 185.111373 
L 215.649334 191.191978 
L 216.045293 193.087998 
L 216.789695 196.854365 
L 217.312361 198.962138 
L 217.945895 200.75677 
L 218.104278 201.023879 
L 218.848681 202.535882 
L 218.991226 202.7611 
L 219.561407 204.04882 
L 219.925689 204.595447 
L 220.416678 204.987021 
L 220.543385 205.02971 
L 220.749283 205.329353 
L 220.97102 205.702152 
L 221.271949 206.058987 
L 221.588716 206.444014 
L 222.31728 206.798886 
L 222.570694 206.743334 
L 222.808269 207.001997 
L 223.204228 207.265135 
L 223.441803 207.302345 
L 223.996145 207.489376 
L 224.249559 207.535616 
L 224.392104 207.490104 
L 224.534649 207.50769 
L 224.772225 207.541418 
L 225.405759 207.623863 
L 225.849233 208.0324 
L 226.276868 208.168059 
L 226.561959 208.313043 
L 227.528098 208.101514 
L 227.749835 208.006535 
L 227.939895 208.075718 
L 228.510076 208.242179 
L 228.826843 208.17258 
L 229.222802 208.284591 
L 229.349509 208.160779 
L 229.666276 208.023561 
L 229.998881 207.881424 
L 230.236456 207.698867 
L 230.632415 207.608038 
L 230.885829 207.662118 
L 231.218434 207.617772 
L 231.376818 207.582283 
L 231.83613 207.53639 
L 231.994513 207.529236 
L 233.166551 206.958656 
L 233.65754 207.021477 
L 234.053499 207.074991 
L 234.180206 207.168937 
L 234.211883 207.147621 
L 234.43362 207.109274 
L 234.639518 207.053664 
L 235.0038 206.869467 
L 235.209699 206.77417 
L 235.431436 206.59797 
L 235.605658 206.593709 
L 235.748203 206.694346 
L 236.239192 206.717584 
L 236.429252 206.591509 
L 237.189493 206.471646 
L 237.759674 206.051545 
L 237.949734 205.854681 
L 238.187309 205.772404 
L 238.805005 205.901989 
L 239.470216 205.603905 
L 239.644438 205.551909 
L 239.897851 205.343469 
L 240.151265 205.169174 
L 240.262133 205.067336 
L 240.499709 204.903877 
L 240.816476 204.831097 
L 241.164919 204.874762 
L 241.64007 204.658458 
L 241.845968 204.710402 
L 242.226089 204.585822 
L 242.685401 204.189376 
L 242.859623 204.121774 
L 243.113037 203.797126 
L 243.920793 203.870507 
L 244.269236 203.615723 
L 245.298729 203.206373 
L 245.536305 202.955931 
L 245.567981 202.980924 
L 245.663011 202.970902 
L 245.67885 202.948327 
L 245.853072 202.862493 
L 246.154 202.912809 
L 246.280707 202.950221 
L 246.454929 202.951232 
L 246.819211 202.91517 
L 247.02511 202.906406 
L 247.975411 202.486305 
L 248.339693 202.17866 
L 248.545591 202.162454 
L 248.878197 202.179191 
L 249.194964 202.064294 
L 249.780983 201.93547 
L 250.00272 201.90233 
L 250.826314 201.247775 
L 251.048051 201.150538 
L 251.507363 201.159308 
L 251.697424 201.075898 
L 251.998352 201.061961 
L 252.125059 200.994221 
L 252.410149 200.707193 
L 252.932815 200.203717 
L 253.566349 199.698539 
L 253.962308 199.801861 
L 254.120692 199.794251 
L 254.279075 199.698891 
L 254.659195 199.541038 
L 254.849256 199.496115 
L 255.023478 199.468835 
L 255.435275 199.142646 
L 255.641173 199.047903 
L 256.353899 198.52015 
L 256.559798 198.506167 
L 256.749858 198.44655 
L 256.876565 198.483945 
L 256.908242 198.442433 
L 257.11414 198.277237 
L 257.129978 198.289956 
L 257.272524 198.282508 
L 257.620967 198.068261 
L 257.826866 197.971953 
L 258.111956 197.621001 
L 258.302017 197.526085 
L 258.476238 197.455949 
L 258.697975 197.282901 
L 259.173126 197.233088 
L 260.86783 196.324303 
L 261.232112 195.937913 
L 261.723101 195.843927 
L 262.30912 195.609357 
L 262.831785 195.186594 
L 263.148552 194.880791 
L 264.051338 194.240778 
L 264.288914 194.194088 
L 264.700711 193.988989 
L 264.985801 193.692656 
L 265.888587 193.177198 
L 266.332061 192.399604 
L 266.363738 192.430489 
L 266.553798 192.494358 
L 267.250686 192.010053 
L 267.614968 191.285985 
L 267.931735 191.218173 
L 268.4544 190.077577 
L 268.882036 189.229772 
L 269.578923 188.807379 
L 269.911529 188.478586 
L 270.117427 188.185256 
L 270.893507 186.517193 
L 271.368657 184.971208 
L 271.701263 183.751227 
L 272.318958 179.016917 
L 272.524857 175.300848 
L 272.68324 168.785313 
L 272.794109 152.39851 
L 273.063361 68.541959 
L 273.158391 73.299842 
L 273.633542 125.526941 
L 274.092854 163.487918 
L 274.409621 174.14215 
L 274.773903 179.263063 
L 275.439114 184.216831 
L 276.737859 192.045465 
L 277.165494 194.326563 
L 278.290017 198.426834 
L 279.240318 200.348811 
L 279.493732 200.850086 
L 279.778822 201.330335 
L 280.127266 202.052556 
L 280.634093 202.770718 
L 280.903345 203.056823 
L 281.410173 203.408871 
L 281.631909 203.501905 
L 282.01203 204.147812 
L 282.217928 204.350756 
L 283.437482 205.572572 
L 283.45332 205.556199 
L 283.564188 205.452703 
L 283.611703 205.511027 
L 283.880955 205.714507 
L 284.166046 205.719992 
L 285.971618 206.888398 
L 286.415092 206.766463 
L 286.557637 206.774713 
L 286.747697 206.813984 
L 287.333716 207.114811 
L 287.856382 207.219917 
L 288.030604 207.27906 
L 288.363209 207.246544 
L 288.505754 207.257346 
L 288.521593 207.228352 
L 288.759168 206.965809 
L 289.107612 206.856529 
L 289.31351 206.752364 
L 289.471894 206.785532 
L 289.836176 207.043809 
L 290.08959 206.884253 
L 290.263811 206.873254 
L 290.517225 206.936081 
L 291.214113 206.905926 
L 291.483365 206.713422 
L 292.00603 206.44887 
L 292.386151 206.65474 
L 292.671241 206.529323 
L 292.845463 206.459643 
L 293.969986 206.182153 
L 294.651035 205.799187 
L 294.999479 206.033007 
L 295.474629 205.925764 
L 295.696366 205.948639 
L 296.3299 205.720154 
L 296.424931 205.661282 
L 296.630829 205.52751 
L 296.836728 205.319042 
L 297.10598 205.209675 
L 297.264363 205.211378 
L 297.454423 205.227561 
L 297.644484 205.268022 
L 297.929574 205.23334 
L 298.230503 205.201881 
L 298.420563 204.971444 
L 298.578946 204.883023 
L 299.402541 204.448327 
L 299.592601 204.369369 
L 300.257812 204.623927 
L 300.764639 204.445625 
L 300.938861 204.47977 
L 301.287305 204.217042 
L 301.635748 204.076949 
L 302.047546 203.699589 
L 302.205929 203.660803 
L 302.332636 203.692199 
L 302.601888 203.841241 
L 302.760271 203.848879 
L 303.108715 203.828089 
L 303.457159 203.754344 
L 303.568027 203.701327 
L 303.805603 203.55382 
L 304.50249 203.180456 
L 304.708389 203.114644 
L 304.882611 203.188573 
L 305.357761 203.224265 
L 305.801235 202.894709 
L 306.197194 202.865726 
L 306.767375 202.58696 
L 307.036627 202.331773 
L 307.226687 202.125689 
L 307.242525 202.135423 
L 307.622646 202.259027 
L 308.097796 202.222256 
L 308.82636 202.078415 
L 309.919207 201.1326 
L 310.140944 201.123749 
L 310.473549 201.231147 
L 310.616094 201.119754 
L 310.774478 201.137773 
L 310.885346 201.096204 
L 311.075406 201.033833 
L 311.265467 200.952641 
L 311.629749 200.58233 
L 312.326636 200.097405 
L 312.48502 200.037747 
L 312.833463 200.162454 
L 313.276937 200.033527 
L 313.451159 199.962375 
L 313.83128 200.053752 
L 314.163885 199.85045 
L 314.338107 199.777104 
L 314.575682 199.51022 
L 314.971641 199.241944 
L 315.114186 199.21919 
L 315.55766 199.446388 
L 316.270386 199.394462 
L 316.507961 199.151092 
L 317.030627 198.758704 
L 317.553292 198.256158 
L 317.790868 198.267139 
L 318.123473 198.26961 
L 318.408563 198.278986 
L 318.725331 198.41322 
L 318.978744 198.310804 
L 319.184643 198.206853 
L 319.200481 198.234046 
L 319.263835 198.714595 
L 319.675632 203.840017 
L 320.07159 205.724282 
L 321.528719 210.697746 
L 323.619381 215.210256 
L 323.82528 215.781489 
L 324.062855 216.140796 
L 326.5178 220.452447 
L 326.755375 220.699609 
L 326.850405 220.876324 
L 327.135496 221.334535 
L 327.483939 221.675262 
L 327.674 221.730618 
L 327.816545 221.912437 
L 329.447895 224.388615 
L 329.622117 224.568811 
L 329.875531 224.813918 
L 330.176459 224.940004 
L 330.366519 225.142186 
L 330.714963 225.705272 
L 331.380174 226.637168 
L 331.696941 227.083019 
L 331.982031 227.382587 
L 332.140415 227.54959 
L 333.011524 228.285546 
L 334.246916 229.837738 
L 335.197217 230.434854 
L 335.371439 230.503477 
L 336.590992 231.981642 
L 336.733537 232.140764 
L 336.986951 232.342853 
L 337.335394 232.522974 
L 337.604646 232.651768 
L 338.222342 232.848124 
L 338.649978 233.385046 
L 339.441895 234.194781 
L 339.980399 234.462468 
L 340.138783 234.597134 
L 340.281328 234.551956 
L 340.423873 234.608103 
L 340.598095 234.696276 
L 340.946539 235.100159 
L 341.247468 235.402735 
L 341.485043 235.507518 
L 341.627588 235.651762 
L 341.865163 235.859653 
L 341.99187 235.940274 
L 342.308637 236.100904 
L 342.530374 236.166969 
L 342.657081 236.132739 
L 342.783788 236.181698 
L 342.894656 236.121498 
L 342.973848 236.115811 
L 343.005525 236.153506 
L 343.512352 236.628605 
L 343.71825 236.756891 
L 344.351785 237.309869 
L 344.478491 237.41535 
L 344.68439 237.543192 
L 344.858612 237.600759 
L 345.127864 237.682812 
L 345.412954 237.744975 
L 345.603014 237.708931 
L 345.808913 237.769801 
L 345.951458 237.950528 
L 346.31574 238.314741 
L 347.171011 238.813482 
L 347.345233 238.848245 
L 347.75703 239.002847 
L 348.010444 238.954344 
L 348.358888 238.970157 
L 348.548948 239.173072 
L 348.802362 239.419593 
L 349.483411 239.74412 
L 350.322843 240.149342 
L 350.44955 240.117767 
L 350.702964 240.048399 
L 350.972216 240.04665 
L 351.558235 240.576406 
L 352.334314 240.861483 
L 352.492698 240.883988 
L 352.920333 240.9841 
L 353.015363 240.966006 
L 353.04704 241.004157 
L 353.189585 241.050558 
L 353.205424 241.035201 
L 353.42716 240.955585 
L 353.807281 241.207585 
L 354.076533 241.452484 
L 355.090187 241.819175 
L 355.343601 241.832107 
L 356.072165 241.682996 
L 356.278064 241.82996 
L 356.721538 242.086746 
L 356.832406 242.130324 
L 357.038305 242.287963 
L 357.861899 242.518267 
L 358.115313 242.510467 
L 358.273696 242.339688 
L 358.479595 242.224086 
L 358.62214 242.255424 
L 358.954745 242.543901 
L 359.255674 242.785654 
L 359.477411 242.886014 
L 359.651633 242.934528 
L 360.538581 243.031962 
L 361.061246 242.906198 
L 362.122416 243.54953 
L 362.803465 243.653245 
L 363.009364 243.684017 
L 363.326131 243.605868 
L 363.421161 243.562774 
L 363.642898 243.39278 
L 363.801281 243.524138 
L 364.466492 243.918848 
L 365.179218 244.010969 
L 365.35344 243.989238 
L 365.717722 243.992136 
L 366.192872 243.949932 
L 366.509639 244.042723 
L 366.842245 244.318418 
L 367.317395 244.360495 
L 367.586647 244.561042 
L 368.679494 244.231285 
L 369.202159 244.377804 
L 369.566441 244.546713 
L 369.740663 244.492546 
L 369.914885 244.569091 
L 370.247491 244.697723 
L 370.532581 244.54199 
L 370.770156 244.588062 
L 371.071085 244.499335 
L 371.21363 244.398508 
L 371.40369 244.348809 
L 372.417345 244.782005 
L 372.607405 244.795168 
L 373.098394 244.89065 
L 373.335969 244.791092 
L 374.09621 244.638811 
L 374.523846 244.943523 
L 375.553339 245.137108 
L 375.806752 245.07405 
L 376.012651 244.991235 
L 376.772892 244.900176 
L 377.374749 245.164208 
L 377.596486 245.078657 
L 377.786546 245.120884 
L 377.992445 245.195085 
L 378.182505 245.217024 
L 378.372565 245.186309 
L 378.657656 245.027042 
L 379.164483 244.962449 
L 379.623795 245.375021 
L 379.734664 245.293996 
L 379.877209 245.336131 
L 380.019754 245.295636 
L 380.146461 245.392376 
L 380.320683 245.408403 
L 380.621611 245.428749 
L 380.764157 245.437005 
L 381.160115 245.355518 
L 381.809488 245.300335 
L 382.062901 245.503146 
L 382.332153 245.626132 
L 383.092394 245.508827 
L 383.282455 245.521251 
L 383.393323 245.553825 
L 383.551707 245.612969 
L 383.567545 245.593905 
L 383.789282 245.388623 
L 383.80512 245.399085 
L 383.963504 245.396914 
L 384.185241 245.232382 
L 384.216917 245.261849 
L 384.787098 245.669653 
L 385.309764 245.677285 
L 385.610692 245.754015 
L 386.054166 245.669341 
L 386.355095 245.580199 
L 386.59267 245.417375 
L 386.861922 245.414373 
L 387.289558 245.750816 
L 388.90507 245.724316 
L 389.19016 245.566504 
L 389.538604 245.569229 
L 390.077108 245.929032 
L 390.25133 245.816484 
L 390.473066 245.836552 
L 390.995732 245.813828 
L 391.138277 245.80265 
L 391.328337 245.717584 
L 391.946033 245.544888 
L 392.405345 245.827222 
L 392.848819 245.897878 
L 393.118071 245.9388 
L 393.51403 245.910938 
L 393.640737 245.834751 
L 393.672414 245.867463 
L 393.830797 245.872786 
L 394.464331 245.456496 
L 394.591038 245.60111 
L 394.907805 245.851632 
L 395.208734 245.911769 
L 395.398794 245.829231 
L 395.699723 245.802604 
L 395.953136 245.827118 
L 396.428287 245.73435 
L 396.935114 245.607218 
L 397.172689 245.557936 
L 397.758709 245.806288 
L 398.154667 245.785515 
L 398.487273 245.976813 
L 398.487273 245.976813 
" clip-path="url(#p4d1b57d373)" style="fill: none; stroke: #d62728; stroke-width: 1.5; stroke-linecap: square"/>
   </g>
   <g id="patch_3">
    <path d="M 57.6 307.584 
L 57.6 41.472 
" style="fill: none; stroke: #000000; stroke-width: 0.8; stroke-linejoin: miter; stroke-linecap: square"/>
   </g>
   <g id="patch_4">
    <path d="M 414.72 307.584 
L 414.72 41.472 
" style="fill: none; stroke: #000000; stroke-width: 0.8; stroke-linejoin: miter; stroke-linecap: square"/>
   </g>
   <g id="patch_5">
    <path d="M 57.6 307.584 
L 414.72 307.584 
" style="fill: none; stroke: #000000; stroke-width: 0.8; stroke-linejoin: miter; stroke-linecap: square"/>
   </g>
   <g id="patch_6">
    <path d="M 57.6 41.472 
L 414.72 41.472 
" style="fill: none; stroke: #000000; stroke-width: 0.8; stroke-linejoin: miter; stroke-linecap: square"/>
   </g>
  </g>
 </g>
 <defs>
  <clipPath id="p4d1b57d373">
   <rect x="57.6" y="41.472" width="357.12" height="266.112"/>
  </clipPath>
 </defs>
</svg>
