<?xml version="1.0" encoding="utf-8" standalone="no"?>
<!DOCTYPE svg PUBLIC "-//W3C//DTD SVG 1.1//EN"
  "http://www.w3.org/Graphics/SVG/1.1/DTD/svg11.dtd">
<svg height="345.6pt" version="1.1" viewBox="0 0 460.8 345.6" width="460.8pt" xmlns="http://www.w3.org/2000/svg" xmlns:xlink="http://www.w3.org/1999/xlink">
 <metadata>
  <rdf:RDF xmlns:cc="http://creativecommons.org/ns#" xmlns:dc="http://purl.org/dc/elements/1.1/" xmlns:rdf="http://www.w3.org/1999/02/22-rdf-syntax-ns#">
   <cc:Work>
    <dc:type rdf:resource="http://purl.org/dc/dcmitype/StillImage"/>
    <dc:date>2024-08-06T14:44:40.907293</dc:date>
    <dc:format>image/svg+xml</dc:format>
    <dc:creator>
     <cc:Agent>
      <dc:title>Matplotlib v3.4.2, https://matplotlib.org/</dc:title>
     </cc:Agent>
    </dc:creator>
   </cc:Work>
  </rdf:RDF>
 </metadata>
 <defs>
  <style type="text/css">*{stroke-linecap:butt;stroke-linejoin:round;}</style>
 </defs>
 <g id="figure_1">
  <g id="patch_1">
   <path d="M 0 345.6 
L 460.8 345.6 
L 460.8 0 
L 0 0 
z
" style="fill:#ffffff;"/>
  </g>
  <g id="axes_1">
   <g id="patch_2">
    <path d="M 57.6 307.584 
L 414.72 307.584 
L 414.72 41.472 
L 57.6 41.472 
z
" style="fill:#ffffff;"/>
   </g>
   <g id="matplotlib.axis_1">
    <g id="xtick_1">
     <g id="line2d_1">
      <defs>
       <path d="M 0 0 
L 0 3.5 
" id="m3878343e2e" style="stroke:#000000;stroke-width:0.8;"/>
      </defs>
      <g>
       <use style="stroke:#000000;stroke-width:0.8;" x="95.211629" xlink:href="#m3878343e2e" y="307.584"/>
      </g>
     </g>
     <g id="text_1">
      <!-- 0.2 -->
      <g transform="translate(87.260067 322.182437)scale(0.1 -0.1)">
       <defs>
        <path d="M 2034 4250 
Q 1547 4250 1301 3770 
Q 1056 3291 1056 2328 
Q 1056 1369 1301 889 
Q 1547 409 2034 409 
Q 2525 409 2770 889 
Q 3016 1369 3016 2328 
Q 3016 3291 2770 3770 
Q 2525 4250 2034 4250 
z
M 2034 4750 
Q 2819 4750 3233 4129 
Q 3647 3509 3647 2328 
Q 3647 1150 3233 529 
Q 2819 -91 2034 -91 
Q 1250 -91 836 529 
Q 422 1150 422 2328 
Q 422 3509 836 4129 
Q 1250 4750 2034 4750 
z
" id="DejaVuSans-30" transform="scale(0.015625)"/>
        <path d="M 684 794 
L 1344 794 
L 1344 0 
L 684 0 
L 684 794 
z
" id="DejaVuSans-2e" transform="scale(0.015625)"/>
        <path d="M 1228 531 
L 3431 531 
L 3431 0 
L 469 0 
L 469 531 
Q 828 903 1448 1529 
Q 2069 2156 2228 2338 
Q 2531 2678 2651 2914 
Q 2772 3150 2772 3378 
Q 2772 3750 2511 3984 
Q 2250 4219 1831 4219 
Q 1534 4219 1204 4116 
Q 875 4013 500 3803 
L 500 4441 
Q 881 4594 1212 4672 
Q 1544 4750 1819 4750 
Q 2544 4750 2975 4387 
Q 3406 4025 3406 3419 
Q 3406 3131 3298 2873 
Q 3191 2616 2906 2266 
Q 2828 2175 2409 1742 
Q 1991 1309 1228 531 
z
" id="DejaVuSans-32" transform="scale(0.015625)"/>
       </defs>
       <use xlink:href="#DejaVuSans-30"/>
       <use x="63.623047" xlink:href="#DejaVuSans-2e"/>
       <use x="95.410156" xlink:href="#DejaVuSans-32"/>
      </g>
     </g>
    </g>
    <g id="xtick_2">
     <g id="line2d_2">
      <g>
       <use style="stroke:#000000;stroke-width:0.8;" x="139.20545" xlink:href="#m3878343e2e" y="307.584"/>
      </g>
     </g>
     <g id="text_2">
      <!-- 0.4 -->
      <g transform="translate(131.253887 322.182437)scale(0.1 -0.1)">
       <defs>
        <path d="M 2419 4116 
L 825 1625 
L 2419 1625 
L 2419 4116 
z
M 2253 4666 
L 3047 4666 
L 3047 1625 
L 3713 1625 
L 3713 1100 
L 3047 1100 
L 3047 0 
L 2419 0 
L 2419 1100 
L 313 1100 
L 313 1709 
L 2253 4666 
z
" id="DejaVuSans-34" transform="scale(0.015625)"/>
       </defs>
       <use xlink:href="#DejaVuSans-30"/>
       <use x="63.623047" xlink:href="#DejaVuSans-2e"/>
       <use x="95.410156" xlink:href="#DejaVuSans-34"/>
      </g>
     </g>
    </g>
    <g id="xtick_3">
     <g id="line2d_3">
      <g>
       <use style="stroke:#000000;stroke-width:0.8;" x="183.19927" xlink:href="#m3878343e2e" y="307.584"/>
      </g>
     </g>
     <g id="text_3">
      <!-- 0.6 -->
      <g transform="translate(175.247707 322.182437)scale(0.1 -0.1)">
       <defs>
        <path d="M 2113 2584 
Q 1688 2584 1439 2293 
Q 1191 2003 1191 1497 
Q 1191 994 1439 701 
Q 1688 409 2113 409 
Q 2538 409 2786 701 
Q 3034 994 3034 1497 
Q 3034 2003 2786 2293 
Q 2538 2584 2113 2584 
z
M 3366 4563 
L 3366 3988 
Q 3128 4100 2886 4159 
Q 2644 4219 2406 4219 
Q 1781 4219 1451 3797 
Q 1122 3375 1075 2522 
Q 1259 2794 1537 2939 
Q 1816 3084 2150 3084 
Q 2853 3084 3261 2657 
Q 3669 2231 3669 1497 
Q 3669 778 3244 343 
Q 2819 -91 2113 -91 
Q 1303 -91 875 529 
Q 447 1150 447 2328 
Q 447 3434 972 4092 
Q 1497 4750 2381 4750 
Q 2619 4750 2861 4703 
Q 3103 4656 3366 4563 
z
" id="DejaVuSans-36" transform="scale(0.015625)"/>
       </defs>
       <use xlink:href="#DejaVuSans-30"/>
       <use x="63.623047" xlink:href="#DejaVuSans-2e"/>
       <use x="95.410156" xlink:href="#DejaVuSans-36"/>
      </g>
     </g>
    </g>
    <g id="xtick_4">
     <g id="line2d_4">
      <g>
       <use style="stroke:#000000;stroke-width:0.8;" x="227.19309" xlink:href="#m3878343e2e" y="307.584"/>
      </g>
     </g>
     <g id="text_4">
      <!-- 0.8 -->
      <g transform="translate(219.241528 322.182437)scale(0.1 -0.1)">
       <defs>
        <path d="M 2034 2216 
Q 1584 2216 1326 1975 
Q 1069 1734 1069 1313 
Q 1069 891 1326 650 
Q 1584 409 2034 409 
Q 2484 409 2743 651 
Q 3003 894 3003 1313 
Q 3003 1734 2745 1975 
Q 2488 2216 2034 2216 
z
M 1403 2484 
Q 997 2584 770 2862 
Q 544 3141 544 3541 
Q 544 4100 942 4425 
Q 1341 4750 2034 4750 
Q 2731 4750 3128 4425 
Q 3525 4100 3525 3541 
Q 3525 3141 3298 2862 
Q 3072 2584 2669 2484 
Q 3125 2378 3379 2068 
Q 3634 1759 3634 1313 
Q 3634 634 3220 271 
Q 2806 -91 2034 -91 
Q 1263 -91 848 271 
Q 434 634 434 1313 
Q 434 1759 690 2068 
Q 947 2378 1403 2484 
z
M 1172 3481 
Q 1172 3119 1398 2916 
Q 1625 2713 2034 2713 
Q 2441 2713 2670 2916 
Q 2900 3119 2900 3481 
Q 2900 3844 2670 4047 
Q 2441 4250 2034 4250 
Q 1625 4250 1398 4047 
Q 1172 3844 1172 3481 
z
" id="DejaVuSans-38" transform="scale(0.015625)"/>
       </defs>
       <use xlink:href="#DejaVuSans-30"/>
       <use x="63.623047" xlink:href="#DejaVuSans-2e"/>
       <use x="95.410156" xlink:href="#DejaVuSans-38"/>
      </g>
     </g>
    </g>
    <g id="xtick_5">
     <g id="line2d_5">
      <g>
       <use style="stroke:#000000;stroke-width:0.8;" x="271.18691" xlink:href="#m3878343e2e" y="307.584"/>
      </g>
     </g>
     <g id="text_5">
      <!-- 1.0 -->
      <g transform="translate(263.235348 322.182437)scale(0.1 -0.1)">
       <defs>
        <path d="M 794 531 
L 1825 531 
L 1825 4091 
L 703 3866 
L 703 4441 
L 1819 4666 
L 2450 4666 
L 2450 531 
L 3481 531 
L 3481 0 
L 794 0 
L 794 531 
z
" id="DejaVuSans-31" transform="scale(0.015625)"/>
       </defs>
       <use xlink:href="#DejaVuSans-31"/>
       <use x="63.623047" xlink:href="#DejaVuSans-2e"/>
       <use x="95.410156" xlink:href="#DejaVuSans-30"/>
      </g>
     </g>
    </g>
    <g id="xtick_6">
     <g id="line2d_6">
      <g>
       <use style="stroke:#000000;stroke-width:0.8;" x="315.18073" xlink:href="#m3878343e2e" y="307.584"/>
      </g>
     </g>
     <g id="text_6">
      <!-- 1.2 -->
      <g transform="translate(307.229168 322.182437)scale(0.1 -0.1)">
       <use xlink:href="#DejaVuSans-31"/>
       <use x="63.623047" xlink:href="#DejaVuSans-2e"/>
       <use x="95.410156" xlink:href="#DejaVuSans-32"/>
      </g>
     </g>
    </g>
    <g id="xtick_7">
     <g id="line2d_7">
      <g>
       <use style="stroke:#000000;stroke-width:0.8;" x="359.174551" xlink:href="#m3878343e2e" y="307.584"/>
      </g>
     </g>
     <g id="text_7">
      <!-- 1.4 -->
      <g transform="translate(351.222988 322.182437)scale(0.1 -0.1)">
       <use xlink:href="#DejaVuSans-31"/>
       <use x="63.623047" xlink:href="#DejaVuSans-2e"/>
       <use x="95.410156" xlink:href="#DejaVuSans-34"/>
      </g>
     </g>
    </g>
    <g id="xtick_8">
     <g id="line2d_8">
      <g>
       <use style="stroke:#000000;stroke-width:0.8;" x="403.168371" xlink:href="#m3878343e2e" y="307.584"/>
      </g>
     </g>
     <g id="text_8">
      <!-- 1.6 -->
      <g transform="translate(395.216808 322.182437)scale(0.1 -0.1)">
       <use xlink:href="#DejaVuSans-31"/>
       <use x="63.623047" xlink:href="#DejaVuSans-2e"/>
       <use x="95.410156" xlink:href="#DejaVuSans-36"/>
      </g>
     </g>
    </g>
   </g>
   <g id="matplotlib.axis_2">
    <g id="ytick_1">
     <g id="line2d_9">
      <defs>
       <path d="M 0 0 
L -3.5 0 
" id="ma335efe494" style="stroke:#000000;stroke-width:0.8;"/>
      </defs>
      <g>
       <use style="stroke:#000000;stroke-width:0.8;" x="57.6" xlink:href="#ma335efe494" y="277.691243"/>
      </g>
     </g>
     <g id="text_9">
      <!-- −150 -->
      <g transform="translate(23.132812 281.490462)scale(0.1 -0.1)">
       <defs>
        <path d="M 678 2272 
L 4684 2272 
L 4684 1741 
L 678 1741 
L 678 2272 
z
" id="DejaVuSans-2212" transform="scale(0.015625)"/>
        <path d="M 691 4666 
L 3169 4666 
L 3169 4134 
L 1269 4134 
L 1269 2991 
Q 1406 3038 1543 3061 
Q 1681 3084 1819 3084 
Q 2600 3084 3056 2656 
Q 3513 2228 3513 1497 
Q 3513 744 3044 326 
Q 2575 -91 1722 -91 
Q 1428 -91 1123 -41 
Q 819 9 494 109 
L 494 744 
Q 775 591 1075 516 
Q 1375 441 1709 441 
Q 2250 441 2565 725 
Q 2881 1009 2881 1497 
Q 2881 1984 2565 2268 
Q 2250 2553 1709 2553 
Q 1456 2553 1204 2497 
Q 953 2441 691 2322 
L 691 4666 
z
" id="DejaVuSans-35" transform="scale(0.015625)"/>
       </defs>
       <use xlink:href="#DejaVuSans-2212"/>
       <use x="83.789062" xlink:href="#DejaVuSans-31"/>
       <use x="147.412109" xlink:href="#DejaVuSans-35"/>
       <use x="211.035156" xlink:href="#DejaVuSans-30"/>
      </g>
     </g>
    </g>
    <g id="ytick_2">
     <g id="line2d_10">
      <g>
       <use style="stroke:#000000;stroke-width:0.8;" x="57.6" xlink:href="#ma335efe494" y="247.015737"/>
      </g>
     </g>
     <g id="text_10">
      <!-- −125 -->
      <g transform="translate(23.132812 250.814956)scale(0.1 -0.1)">
       <use xlink:href="#DejaVuSans-2212"/>
       <use x="83.789062" xlink:href="#DejaVuSans-31"/>
       <use x="147.412109" xlink:href="#DejaVuSans-32"/>
       <use x="211.035156" xlink:href="#DejaVuSans-35"/>
      </g>
     </g>
    </g>
    <g id="ytick_3">
     <g id="line2d_11">
      <g>
       <use style="stroke:#000000;stroke-width:0.8;" x="57.6" xlink:href="#ma335efe494" y="216.340231"/>
      </g>
     </g>
     <g id="text_11">
      <!-- −100 -->
      <g transform="translate(23.132812 220.13945)scale(0.1 -0.1)">
       <use xlink:href="#DejaVuSans-2212"/>
       <use x="83.789062" xlink:href="#DejaVuSans-31"/>
       <use x="147.412109" xlink:href="#DejaVuSans-30"/>
       <use x="211.035156" xlink:href="#DejaVuSans-30"/>
      </g>
     </g>
    </g>
    <g id="ytick_4">
     <g id="line2d_12">
      <g>
       <use style="stroke:#000000;stroke-width:0.8;" x="57.6" xlink:href="#ma335efe494" y="185.664725"/>
      </g>
     </g>
     <g id="text_12">
      <!-- −75 -->
      <g transform="translate(29.495313 189.463943)scale(0.1 -0.1)">
       <defs>
        <path d="M 525 4666 
L 3525 4666 
L 3525 4397 
L 1831 0 
L 1172 0 
L 2766 4134 
L 525 4134 
L 525 4666 
z
" id="DejaVuSans-37" transform="scale(0.015625)"/>
       </defs>
       <use xlink:href="#DejaVuSans-2212"/>
       <use x="83.789062" xlink:href="#DejaVuSans-37"/>
       <use x="147.412109" xlink:href="#DejaVuSans-35"/>
      </g>
     </g>
    </g>
    <g id="ytick_5">
     <g id="line2d_13">
      <g>
       <use style="stroke:#000000;stroke-width:0.8;" x="57.6" xlink:href="#ma335efe494" y="154.989219"/>
      </g>
     </g>
     <g id="text_13">
      <!-- −50 -->
      <g transform="translate(29.495313 158.788437)scale(0.1 -0.1)">
       <use xlink:href="#DejaVuSans-2212"/>
       <use x="83.789062" xlink:href="#DejaVuSans-35"/>
       <use x="147.412109" xlink:href="#DejaVuSans-30"/>
      </g>
     </g>
    </g>
    <g id="ytick_6">
     <g id="line2d_14">
      <g>
       <use style="stroke:#000000;stroke-width:0.8;" x="57.6" xlink:href="#ma335efe494" y="124.313712"/>
      </g>
     </g>
     <g id="text_14">
      <!-- −25 -->
      <g transform="translate(29.495313 128.112931)scale(0.1 -0.1)">
       <use xlink:href="#DejaVuSans-2212"/>
       <use x="83.789062" xlink:href="#DejaVuSans-32"/>
       <use x="147.412109" xlink:href="#DejaVuSans-35"/>
      </g>
     </g>
    </g>
    <g id="ytick_7">
     <g id="line2d_15">
      <g>
       <use style="stroke:#000000;stroke-width:0.8;" x="57.6" xlink:href="#ma335efe494" y="93.638206"/>
      </g>
     </g>
     <g id="text_15">
      <!-- 0 -->
      <g transform="translate(44.2375 97.437425)scale(0.1 -0.1)">
       <use xlink:href="#DejaVuSans-30"/>
      </g>
     </g>
    </g>
    <g id="ytick_8">
     <g id="line2d_16">
      <g>
       <use style="stroke:#000000;stroke-width:0.8;" x="57.6" xlink:href="#ma335efe494" y="62.9627"/>
      </g>
     </g>
     <g id="text_16">
      <!-- 25 -->
      <g transform="translate(37.875 66.761919)scale(0.1 -0.1)">
       <use xlink:href="#DejaVuSans-32"/>
       <use x="63.623047" xlink:href="#DejaVuSans-35"/>
      </g>
     </g>
    </g>
   </g>
   <g id="line2d_17">
    <path clip-path="url(#pe53fa08b3a)" d="M 73.832727 175.120917 
L 74.702532 175.239797 
L 76.877043 175.366771 
L 77.964299 175.454372 
L 78.616652 175.475177 
L 78.834103 175.386574 
L 79.051555 175.564321 
L 81.660968 192.40773 
L 83.400577 201.874051 
L 85.79254 213.52165 
L 88.401953 224.33823 
L 90.359014 231.552948 
L 94.273134 243.726917 
L 96.230194 249.308955 
L 98.187254 254.385253 
L 102.318826 263.711509 
L 102.971179 265.189528 
L 104.92824 269.439367 
L 106.232946 272.132126 
L 107.537653 274.792503 
L 109.277262 277.323357 
L 111.886676 281.338822 
L 112.321578 281.791284 
L 112.973932 282.708025 
L 115.800796 285.903693 
L 117.105503 287.131838 
L 118.845112 288.884872 
L 119.497466 289.543472 
L 122.106879 291.384106 
L 123.629037 292.361033 
L 124.933744 293.341504 
L 126.238451 293.873836 
L 126.455902 293.993227 
L 127.108255 293.977968 
L 127.760609 294.391121 
L 128.195511 294.525092 
L 128.630413 294.805913 
L 131.674729 295.32515 
L 132.327083 295.317398 
L 132.761985 295.488 
L 133.414338 295.301802 
L 133.849241 294.862891 
L 134.066692 294.561132 
L 134.936496 294.113132 
L 135.371399 293.730261 
L 135.806301 293.303541 
L 136.458654 293.2265 
L 136.893557 293.071366 
L 137.111008 292.971825 
L 137.54591 292.972526 
L 137.980812 292.945593 
L 138.415715 292.979089 
L 138.850617 293.073149 
L 139.50297 292.815554 
L 140.155324 292.263446 
L 141.242579 292.014701 
L 141.677482 292.14159 
L 142.982188 291.540265 
L 143.634542 291.725408 
L 144.286895 291.870887 
L 144.504346 291.966886 
L 144.939249 291.937136 
L 145.809053 292.339587 
L 146.461407 292.497048 
L 146.896309 292.797459 
L 147.766113 293.165805 
L 148.418467 293.523556 
L 149.505722 293.83627 
L 149.940625 293.777316 
L 151.02788 293.585426 
L 151.680234 293.692291 
L 152.115136 293.513746 
L 152.332587 293.539632 
L 152.767489 293.281444 
L 152.984941 293.309579 
L 153.202392 293.025041 
L 154.507099 288.679112 
L 155.159452 287.436655 
L 155.811805 286.631841 
L 156.029257 286.586807 
L 156.246708 286.391556 
L 156.464159 286.012123 
L 158.856121 285.805719 
L 159.725926 285.932682 
L 161.030633 285.973379 
L 161.465535 286.113775 
L 161.900437 285.953556 
L 163.640046 285.671106 
L 164.074949 285.518133 
L 164.509851 285.321615 
L 165.162204 284.864138 
L 165.814558 284.826554 
L 166.24946 284.728815 
L 166.684362 284.486187 
L 167.554167 284.767903 
L 168.20652 284.853635 
L 168.858874 284.893038 
L 172.120641 285.075168 
L 172.772994 284.678835 
L 174.077701 284.165382 
L 174.295152 284.20593 
L 174.730054 284.039928 
L 175.164956 284.142312 
L 176.034761 284.956314 
L 177.122017 285.483781 
L 177.556919 285.325665 
L 177.991821 285.428179 
L 178.426723 285.367762 
L 178.861626 285.399449 
L 179.296528 285.530364 
L 180.166333 286.019214 
L 180.818686 286.338609 
L 181.471039 286.281579 
L 182.558295 286.438782 
L 183.210648 286.259571 
L 184.297904 285.891311 
L 184.515355 285.884021 
L 184.950258 285.479244 
L 185.820062 285.508891 
L 186.254964 285.586881 
L 186.907318 285.269947 
L 187.124769 284.996849 
L 188.212025 284.596709 
L 188.429476 284.330297 
L 188.864378 283.299197 
L 189.29928 282.575776 
L 189.734183 282.481838 
L 190.821438 282.792466 
L 191.473792 282.489635 
L 192.126145 282.350745 
L 192.99595 282.421613 
L 193.213401 282.306703 
L 193.648303 281.898539 
L 193.865754 281.84091 
L 194.300656 281.417971 
L 194.735559 280.994429 
L 195.605363 280.939807 
L 196.040265 281.030609 
L 196.475168 280.931929 
L 197.127521 280.963501 
L 197.562423 280.963391 
L 197.997326 281.026635 
L 198.649679 280.729658 
L 199.302033 280.486326 
L 199.954386 280.400048 
L 200.389288 280.170047 
L 200.82419 279.840107 
L 201.911446 279.751426 
L 202.5638 279.940286 
L 203.216153 280.447877 
L 203.651055 280.561899 
L 204.303409 280.823597 
L 204.738311 280.774117 
L 205.390664 280.878885 
L 206.043018 280.860264 
L 206.47792 280.349967 
L 206.912822 279.779155 
L 207.782627 279.905257 
L 208.217529 279.907257 
L 208.43498 279.946926 
L 208.869882 279.511932 
L 209.304785 279.631018 
L 209.522236 279.760889 
L 210.174589 279.271562 
L 210.826943 279.230447 
L 211.914198 279.80206 
L 212.349101 279.900688 
L 213.218905 280.115871 
L 213.653807 279.800845 
L 213.871259 279.609199 
L 214.523612 279.513429 
L 214.958514 279.296126 
L 215.393417 279.311032 
L 215.610868 279.515847 
L 216.698123 279.683041 
L 217.133026 279.420411 
L 217.567928 278.841158 
L 217.785379 278.369619 
L 218.220281 277.064318 
L 219.090086 275.627015 
L 219.524988 275.281918 
L 220.394793 274.968538 
L 220.612244 275.059161 
L 221.916951 274.668821 
L 222.569304 274.772129 
L 223.004206 274.916536 
L 224.091462 274.972022 
L 225.396169 275.509637 
L 225.831071 275.402711 
L 227.788131 275.854084 
L 228.440485 275.883333 
L 229.092838 276.171902 
L 229.745191 276.205703 
L 230.180094 276.463221 
L 230.614996 276.357618 
L 231.267349 276.630389 
L 232.137154 277.17478 
L 232.354605 277.20319 
L 232.789507 277.102544 
L 234.094214 277.271813 
L 234.746568 277.675452 
L 236.268726 277.782398 
L 237.13853 277.43962 
L 237.790884 277.347798 
L 238.225786 277.136637 
L 238.660688 276.984871 
L 239.09559 276.481804 
L 240.617748 274.957395 
L 241.052651 274.853924 
L 241.487553 274.46872 
L 242.357357 272.521565 
L 243.227162 271.956112 
L 243.662064 271.51769 
L 244.096966 271.191402 
L 244.531869 270.76074 
L 244.74932 270.668615 
L 245.184222 268.864261 
L 245.401673 268.659288 
L 245.836576 267.508412 
L 246.054027 267.256699 
L 246.488929 265.801659 
L 247.141282 261.847151 
L 247.576185 260.567477 
L 248.011087 258.521848 
L 248.228538 258.487008 
L 248.66344 256.835599 
L 249.098343 256.287692 
L 249.533245 256.533884 
L 249.968147 256.224171 
L 250.620501 255.839085 
L 251.490305 255.742042 
L 251.925207 255.759618 
L 252.36011 255.767717 
L 252.577561 255.67637 
L 252.795012 255.375121 
L 253.229914 255.282981 
L 253.664816 255.368631 
L 254.31717 255.13362 
L 254.752072 255.15142 
L 254.969523 254.896161 
L 255.404426 255.346645 
L 256.056779 255.330574 
L 256.27423 255.311665 
L 256.491681 255.017368 
L 256.709132 254.944811 
L 256.926583 255.286525 
L 257.144035 255.260625 
L 257.796388 254.396548 
L 258.23129 253.60034 
L 258.448741 252.965166 
L 258.666193 252.731285 
L 258.883644 252.708333 
L 259.101095 252.031907 
L 259.535997 249.851283 
L 259.970899 248.89226 
L 260.405802 246.874235 
L 261.058155 246.802641 
L 261.275606 247.31745 
L 261.493057 247.411214 
L 261.710508 247.29757 
L 262.145411 246.505762 
L 262.362862 246.462849 
L 262.797764 245.253426 
L 263.232666 245.448304 
L 263.667569 244.883369 
L 263.88502 244.996706 
L 264.102471 244.860719 
L 264.537373 245.098473 
L 264.754824 245.322732 
L 265.407178 246.447322 
L 265.84208 246.673441 
L 266.059531 246.866555 
L 266.494433 246.957416 
L 267.364238 247.844579 
L 268.016591 248.679489 
L 268.451494 248.969208 
L 269.538749 249.302142 
L 269.7562 249.61918 
L 270.191103 249.803177 
L 271.060907 250.749479 
L 271.278358 250.674186 
L 271.713261 249.961312 
L 271.930712 249.945183 
L 272.365614 249.297849 
L 273.017967 249.514772 
L 273.887772 248.976819 
L 274.540125 248.224003 
L 275.192479 248.907406 
L 275.627381 249.129606 
L 276.932088 251.162451 
L 277.36699 251.843735 
L 277.801892 252.416084 
L 278.236795 253.047954 
L 278.889148 253.909252 
L 279.32405 254.695051 
L 279.976404 255.770302 
L 280.411306 256.123072 
L 283.455622 259.429245 
L 284.107975 259.888302 
L 284.325427 260.163503 
L 285.412682 260.364346 
L 286.282487 260.203963 
L 286.499938 260.403641 
L 286.717389 260.439411 
L 287.369742 261.194992 
L 288.022096 261.960853 
L 288.239547 262.11893 
L 288.456998 262.106731 
L 289.544254 262.80209 
L 289.979156 263.127954 
L 290.414058 263.683703 
L 291.718765 264.582185 
L 291.936216 264.57856 
L 292.371119 264.898967 
L 292.58857 264.871789 
L 293.023472 265.024804 
L 293.675825 264.925716 
L 294.110728 264.182852 
L 295.415434 265.330305 
L 295.632886 265.103278 
L 296.50269 265.486882 
L 299.112104 250.093456 
L 299.547006 246.333481 
L 300.199359 241.915141 
L 300.851713 237.181077 
L 301.286615 234.697986 
L 302.373871 228.537561 
L 303.461126 224.070565 
L 304.330931 220.803732 
L 305.200736 217.343683 
L 306.287991 213.843963 
L 307.592698 210.467069 
L 310.419563 203.395018 
L 311.72427 200.506738 
L 312.376623 199.198335 
L 314.116232 195.926482 
L 316.508195 192.298973 
L 319.117608 189.111913 
L 319.769962 188.36687 
L 320.422315 187.62795 
L 324.553887 183.43692 
L 327.815654 180.637196 
L 328.685458 179.951161 
L 329.555263 179.143429 
L 330.207616 178.764883 
L 331.947225 177.90627 
L 333.034481 177.448554 
L 333.686834 177.180855 
L 334.556639 176.834634 
L 335.861346 176.397299 
L 337.166052 175.698664 
L 337.818406 175.213521 
L 338.253308 174.953806 
L 338.905662 174.679328 
L 339.558015 174.17249 
L 340.645271 173.735341 
L 341.515075 173.521543 
L 344.994293 172.42046 
L 345.429196 172.246334 
L 345.864098 172.169598 
L 346.733902 172.171397 
L 348.038609 171.931181 
L 348.690963 172.003629 
L 349.778218 172.25042 
L 350.865474 172.401444 
L 351.95273 172.343228 
L 353.692339 172.634283 
L 354.127241 172.696978 
L 354.779594 172.704073 
L 355.214497 172.674935 
L 355.649399 172.735682 
L 356.301752 172.81771 
L 357.171557 173.062333 
L 357.82391 173.03141 
L 359.346068 172.93506 
L 360.868226 172.924907 
L 363.695091 172.841546 
L 364.129993 172.867051 
L 364.564896 172.806826 
L 367.174309 173.097725 
L 368.696467 173.228737 
L 370.001174 173.513523 
L 374.567648 173.968603 
L 375.00255 174.020596 
L 376.089806 174.045251 
L 376.524708 174.053237 
L 376.95961 173.963306 
L 378.046866 174.078641 
L 378.481768 174.028151 
L 380.003926 173.804942 
L 380.65628 173.669762 
L 381.091182 173.638485 
L 384.5704 173.484309 
L 386.310009 173.46521 
L 388.919423 173.071157 
L 391.311385 173.103806 
L 392.18119 173.076281 
L 395.877859 173.231302 
L 397.182566 172.973776 
L 398.487273 172.896422 
L 398.487273 172.896422 
" style="fill:none;stroke:#000000;stroke-linecap:square;stroke-width:1.5;"/>
   </g>
   <g id="line2d_18">
    <path clip-path="url(#pe53fa08b3a)" d="M 73.832727 165.03793 
L 74.919983 165.055303 
L 76.877043 164.699749 
L 77.311945 164.77815 
L 78.834103 164.727632 
L 79.051555 164.757854 
L 79.703908 166.716873 
L 80.573712 169.058552 
L 82.09587 172.715896 
L 84.270382 177.196486 
L 85.79254 180.165725 
L 86.879795 182.270477 
L 89.70666 187.038858 
L 90.793916 188.513399 
L 93.403329 191.67061 
L 93.838232 192.115407 
L 95.142939 193.442507 
L 98.839608 197.898216 
L 99.926864 199.245514 
L 100.796668 199.99981 
L 101.449021 200.589958 
L 101.883924 201.050564 
L 102.971179 201.707 
L 104.058435 202.436821 
L 104.493337 202.701152 
L 105.798044 203.826449 
L 106.450398 204.410283 
L 107.755104 205.357306 
L 108.190007 205.567667 
L 108.84236 206.04873 
L 111.234323 207.345471 
L 111.669225 207.403293 
L 112.539029 207.850818 
L 113.191383 208.003714 
L 113.843736 208.327775 
L 114.713541 208.796792 
L 116.45315 209.662186 
L 117.757857 210.340589 
L 118.192759 210.133488 
L 118.845112 210.162849 
L 119.714917 210.223304 
L 120.36727 210.381025 
L 121.019624 210.559985 
L 123.194135 210.709821 
L 123.629037 210.674834 
L 124.06394 210.876982 
L 124.498842 211.167765 
L 127.543158 212.047385 
L 127.97806 212.272112 
L 128.412962 212.383844 
L 129.282767 212.719259 
L 131.239827 213.337875 
L 136.676105 215.448559 
L 137.328459 215.543317 
L 143.19964 217.012118 
L 144.286895 217.151012 
L 144.939249 217.267163 
L 145.591602 217.370223 
L 146.461407 217.52177 
L 147.983565 217.51735 
L 149.07082 217.777864 
L 149.505722 217.935393 
L 149.940625 218.086025 
L 151.245332 218.342335 
L 151.680234 218.322578 
L 152.115136 218.438832 
L 154.289647 218.725585 
L 154.942001 218.892176 
L 156.029257 218.899116 
L 159.508475 218.187523 
L 161.248084 218.19298 
L 161.682986 218.155971 
L 162.117888 218.197417 
L 162.552791 218.094484 
L 163.205144 218.08958 
L 163.857497 217.869098 
L 164.509851 217.975404 
L 165.814558 218.005555 
L 166.24946 217.940378 
L 170.381031 217.862585 
L 172.338092 217.336781 
L 172.990445 217.17576 
L 173.425347 216.927942 
L 173.86025 216.831079 
L 175.164956 216.175798 
L 177.556919 215.078389 
L 178.426723 215.138384 
L 178.861626 215.234961 
L 179.73143 215.172284 
L 180.166333 215.250844 
L 181.036137 215.244082 
L 182.123393 215.497003 
L 185.820062 215.738665 
L 186.254964 215.853191 
L 187.124769 215.96527 
L 187.34222 215.963213 
L 188.429476 215.480932 
L 189.081829 215.237542 
L 189.951634 214.866667 
L 192.343596 214.535529 
L 192.778498 214.377769 
L 193.213401 214.389396 
L 194.300656 213.783897 
L 196.257717 213.417511 
L 197.562423 212.923821 
L 197.997326 212.602866 
L 198.432228 212.476933 
L 199.084581 211.959704 
L 199.954386 211.68374 
L 200.606739 211.691967 
L 201.259093 211.576258 
L 202.5638 211.2843 
L 203.216153 211.165927 
L 203.651055 211.014484 
L 204.955762 211.008629 
L 205.608115 210.865719 
L 206.695371 210.422426 
L 207.565176 209.660073 
L 208.217529 209.534704 
L 208.869882 209.553672 
L 209.304785 209.371132 
L 211.044394 208.64941 
L 211.479296 208.509059 
L 212.349101 207.885171 
L 212.784003 207.766618 
L 213.436356 207.492301 
L 214.08871 207.381881 
L 214.523612 207.098137 
L 214.958514 206.904355 
L 215.393417 206.551161 
L 217.133026 204.008102 
L 219.090086 203.217423 
L 220.612244 203.015867 
L 221.047146 203.1794 
L 221.916951 203.247133 
L 225.178718 204.341204 
L 225.61362 204.389298 
L 226.048522 204.408569 
L 226.483424 204.371479 
L 228.440485 204.583098 
L 229.310289 204.420134 
L 229.745191 204.462351 
L 230.397545 204.233104 
L 231.267349 203.553455 
L 232.137154 203.514887 
L 233.659312 204.042896 
L 234.094214 204.118699 
L 234.311665 204.24523 
L 236.268726 204.023088 
L 237.13853 204.104114 
L 239.09559 204.181704 
L 241.052651 204.953824 
L 241.705004 205.201762 
L 242.574809 204.961463 
L 243.227162 204.72507 
L 243.662064 204.650275 
L 244.531869 204.85866 
L 245.401673 204.828876 
L 245.836576 204.584467 
L 246.70638 203.660914 
L 248.228538 202.657476 
L 248.66344 202.507611 
L 249.098343 202.682684 
L 249.533245 202.751263 
L 250.185598 202.840744 
L 250.837952 202.89067 
L 252.577561 203.277619 
L 253.229914 203.223627 
L 253.882268 203.081314 
L 254.752072 202.732231 
L 255.621877 202.351054 
L 256.491681 202.014627 
L 257.144035 201.947246 
L 257.578937 201.834679 
L 259.101095 202.028145 
L 259.535997 201.960143 
L 259.970899 201.925026 
L 260.405802 201.77528 
L 261.275606 201.922063 
L 261.92796 201.933554 
L 262.362862 201.771935 
L 263.450118 201.958842 
L 264.102471 201.935125 
L 266.494433 202.56414 
L 266.929336 202.417861 
L 268.668945 202.723284 
L 270.408554 203.291589 
L 270.626005 203.411884 
L 271.060907 203.330377 
L 271.930712 203.644268 
L 272.365614 203.658184 
L 272.800516 203.618777 
L 273.235419 203.391585 
L 273.670321 203.445978 
L 274.322674 203.599385 
L 275.192479 203.670178 
L 276.062283 203.830779 
L 276.932088 204.140985 
L 278.671697 204.464914 
L 279.106599 204.529077 
L 280.846208 204.976716 
L 281.281111 205.089642 
L 281.716013 205.242264 
L 283.673073 205.364267 
L 284.107975 205.503198 
L 285.195231 205.271922 
L 285.630133 205.179735 
L 286.065036 205.205761 
L 286.499938 204.977184 
L 287.152291 204.743428 
L 288.022096 204.080915 
L 289.109352 203.144054 
L 289.761705 202.666432 
L 290.196607 202.485555 
L 291.936216 202.019385 
L 292.806021 201.43934 
L 293.458374 201.391348 
L 293.893277 201.475127 
L 294.328179 201.550774 
L 294.763081 201.558201 
L 295.197983 201.454598 
L 295.850337 201.515639 
L 296.285239 201.486412 
L 296.50269 201.367421 
L 297.589946 198.373372 
L 298.242299 196.79046 
L 300.416811 192.276295 
L 302.373871 188.716972 
L 303.896029 186.683137 
L 304.983284 185.346788 
L 306.287991 183.811341 
L 308.679954 181.191082 
L 309.767209 180.437424 
L 311.289367 179.093303 
L 313.68133 176.927013 
L 316.725646 174.654996 
L 317.377999 174.161186 
L 318.030353 173.737817 
L 319.335059 172.737009 
L 322.161924 171.47735 
L 323.466631 171.27505 
L 324.988789 171.25711 
L 325.423691 171.184198 
L 328.033105 171.43049 
L 328.685458 171.364948 
L 331.077421 171.176096 
L 332.81703 171.298455 
L 333.469383 171.394254 
L 333.904285 171.323442 
L 334.339188 171.302389 
L 334.991541 171.32094 
L 336.296248 171.168304 
L 341.080173 170.437972 
L 341.732526 170.495432 
L 342.38488 170.524421 
L 345.211745 170.235697 
L 345.646647 170.262829 
L 346.299 170.165329 
L 348.690963 170.576488 
L 349.560767 170.78136 
L 350.648023 170.584554 
L 351.082925 170.59873 
L 351.95273 170.604859 
L 352.387632 170.57224 
L 356.301752 170.834024 
L 357.389008 170.627715 
L 360.433324 170.783812 
L 361.955482 170.529749 
L 363.042738 170.524941 
L 364.129993 170.504284 
L 366.304505 170.499973 
L 366.739407 170.46338 
L 367.174309 170.579435 
L 367.609211 170.552634 
L 368.044114 170.582159 
L 369.783723 170.601864 
L 370.870979 170.57299 
L 371.305881 170.380925 
L 371.958234 170.161464 
L 375.437452 169.817347 
L 376.307257 169.981528 
L 376.95961 169.96871 
L 378.264317 169.96301 
L 382.395889 170.30604 
L 383.483144 170.109048 
L 384.352949 170.149713 
L 385.005302 170.158094 
L 385.440205 170.298963 
L 387.179814 170.104219 
L 387.832167 170.145142 
L 388.919423 170.006476 
L 389.354325 169.865474 
L 389.789227 169.872673 
L 390.659032 169.616608 
L 391.528836 169.546672 
L 393.050994 169.423511 
L 394.355701 169.01134 
L 394.790603 168.904945 
L 396.747664 168.935994 
L 397.834919 168.719889 
L 398.487273 168.781226 
L 398.487273 168.781226 
" style="fill:none;stroke:#000000;stroke-linecap:square;stroke-width:1.5;"/>
   </g>
   <g id="line2d_19">
    <path clip-path="url(#pe53fa08b3a)" d="M 73.832727 172.481355 
L 75.137434 172.45897 
L 79.051555 172.430459 
L 82.313322 164.170793 
L 85.575089 157.740081 
L 88.184502 153.461063 
L 88.836856 152.433078 
L 89.70666 151.073383 
L 90.793916 149.918206 
L 92.968427 147.53103 
L 95.36039 145.863372 
L 95.795292 145.695564 
L 96.447645 145.257469 
L 97.31745 144.877984 
L 99.491961 144.068599 
L 101.014119 142.864316 
L 101.666473 142.630321 
L 104.058435 141.731708 
L 105.145691 141.390134 
L 105.580593 141.219197 
L 106.232946 141.079183 
L 106.8853 140.877534 
L 109.059811 140.06216 
L 109.494714 139.920231 
L 109.929616 139.781446 
L 111.669225 139.473449 
L 112.104127 139.280852 
L 112.756481 139.084899 
L 113.191383 138.941168 
L 113.843736 138.855519 
L 114.278638 138.677382 
L 114.930992 138.657412 
L 116.888052 138.229621 
L 117.757857 138.231511 
L 118.627661 137.875459 
L 119.714917 137.547051 
L 120.802173 137.36324 
L 121.454526 137.299545 
L 122.324331 137.132706 
L 122.759233 136.824643 
L 123.411586 136.218548 
L 124.281391 135.796068 
L 124.933744 135.418498 
L 126.673353 133.832566 
L 127.97806 132.09386 
L 129.282767 130.681113 
L 129.500218 130.089293 
L 129.717669 130.024373 
L 129.93512 129.421957 
L 130.152571 129.375795 
L 130.587474 128.664972 
L 130.804925 128.751141 
L 131.022376 127.685712 
L 131.239827 127.913971 
L 131.457278 125.169682 
L 131.674729 120.004967 
L 131.89218 97.427965 
L 132.109632 59.892407 
L 132.327083 55.781671 
L 132.979436 127.939111 
L 133.196887 140.334198 
L 133.63179 149.197018 
L 134.066692 150.300118 
L 134.284143 149.816314 
L 134.501594 149.708224 
L 136.241203 146.651034 
L 137.328459 145.309948 
L 138.198263 144.412154 
L 145.809053 136.425361 
L 146.678858 135.894078 
L 147.766113 134.828605 
L 148.418467 134.010821 
L 151.897685 129.858531 
L 152.115136 129.221695 
L 152.332587 129.051158 
L 152.550038 128.341966 
L 152.767489 128.417946 
L 152.984941 128.099098 
L 153.202392 127.066898 
L 153.419843 127.219725 
L 153.637294 122.739867 
L 153.854745 115.953904 
L 154.289647 57.296281 
L 154.507099 58.452004 
L 155.376903 141.070217 
L 155.594354 147.223001 
L 155.811805 150.121514 
L 156.246708 151.629632 
L 156.464159 151.332705 
L 156.68161 151.375575 
L 157.116512 150.608118 
L 157.333963 150.332694 
L 158.421219 148.143724 
L 159.073572 146.933449 
L 159.508475 146.43241 
L 161.465535 143.604685 
L 162.770242 142.61266 
L 163.640046 141.881092 
L 166.032009 139.549782 
L 166.901813 138.760835 
L 168.20652 136.875129 
L 168.641422 136.350185 
L 170.381031 134.587766 
L 171.250836 133.538148 
L 171.685738 133.116837 
L 172.338092 132.445245 
L 172.555543 132.376564 
L 172.990445 131.911572 
L 174.077701 131.025062 
L 174.512603 130.322047 
L 174.947505 129.735427 
L 175.164956 129.735718 
L 175.382408 129.230674 
L 175.599859 129.12232 
L 175.81731 128.474907 
L 176.034761 128.300227 
L 176.252212 127.942728 
L 176.469663 126.951001 
L 176.687114 126.775203 
L 176.904566 122.477699 
L 177.122017 115.417601 
L 177.556919 58.711097 
L 177.77437 57.078439 
L 178.644175 138.617415 
L 179.079077 149.150011 
L 179.513979 150.995452 
L 180.166333 150.27172 
L 181.471039 147.863572 
L 182.558295 146.136402 
L 183.4281 144.92885 
L 184.080453 144.208354 
L 184.950258 143.212496 
L 187.777122 141.151532 
L 189.516731 139.830609 
L 189.951634 139.515723 
L 190.386536 139.121283 
L 191.038889 138.639735 
L 193.865754 135.891884 
L 194.95301 134.666238 
L 198.432228 131.319053 
L 199.302033 130.097982 
L 199.954386 129.628557 
L 200.171837 129.127639 
L 200.389288 129.088468 
L 201.259093 127.730091 
L 201.476544 127.960191 
L 201.693995 127.267607 
L 201.911446 127.229934 
L 202.128897 124.641873 
L 202.346348 118.297155 
L 202.5638 107.25266 
L 202.998702 54.392515 
L 203.216153 64.40969 
L 204.085957 141.223969 
L 204.303409 147.29265 
L 204.52086 149.713885 
L 204.738311 150.830947 
L 204.955762 151.198616 
L 205.390664 150.92946 
L 206.043018 149.837501 
L 207.347725 148.047991 
L 209.087334 145.620249 
L 209.522236 145.181596 
L 209.957138 144.83153 
L 210.174589 144.739646 
L 211.044394 143.878627 
L 212.349101 142.687692 
L 213.653807 141.469491 
L 214.306161 140.956072 
L 215.393417 139.830766 
L 218.220281 137.800012 
L 219.95989 136.160802 
L 220.394793 135.813368 
L 220.829695 135.440267 
L 221.264597 135.05892 
L 221.916951 134.410799 
L 222.786755 133.520722 
L 225.178718 131.776659 
L 226.483424 131.131675 
L 226.700876 131.135533 
L 227.353229 130.716443 
L 227.788131 130.300086 
L 228.223034 130.146555 
L 229.745191 129.027268 
L 230.180094 128.552435 
L 230.832447 128.177053 
L 231.702252 127.597612 
L 232.137154 127.40584 
L 233.441861 126.028265 
L 233.876763 125.358545 
L 234.529116 125.091896 
L 234.746568 125.042062 
L 235.616372 123.963208 
L 236.268726 123.379028 
L 236.486177 122.915665 
L 236.703628 121.821236 
L 236.921079 117.729641 
L 237.13853 111.405963 
L 237.355981 101.810437 
L 237.790884 58.15643 
L 238.008335 62.923717 
L 238.878139 137.026011 
L 239.313041 147.773453 
L 239.747944 150.249198 
L 240.182846 150.51801 
L 240.617748 150.128481 
L 246.923831 142.663405 
L 248.880891 140.728082 
L 249.533245 140.206247 
L 251.272854 138.986654 
L 252.36011 138.210885 
L 253.447365 137.342507 
L 254.31717 136.719293 
L 254.752072 136.39497 
L 255.186974 136.239997 
L 256.926583 134.731244 
L 257.796388 133.820255 
L 258.23129 133.670972 
L 258.666193 133.496512 
L 259.535997 132.817087 
L 260.840704 132.154998 
L 261.275606 132.163094 
L 261.710508 131.939825 
L 262.145411 131.726406 
L 263.015215 131.198591 
L 263.450118 131.104889 
L 264.102471 130.724531 
L 264.537373 130.589886 
L 266.059531 129.263502 
L 266.494433 129.051887 
L 267.364238 128.714509 
L 267.79914 128.368323 
L 268.451494 128.169018 
L 268.886396 127.893252 
L 269.103847 127.724943 
L 271.713261 127.965185 
L 272.365614 127.605695 
L 273.235419 127.663321 
L 273.887772 128.187545 
L 274.757577 128.685561 
L 275.40993 128.513771 
L 276.062283 128.52613 
L 276.279735 128.483886 
L 276.932088 128.770526 
L 278.236795 128.479548 
L 279.32405 128.012452 
L 279.758953 127.810587 
L 280.411306 127.24285 
L 280.846208 127.075077 
L 281.498562 126.65359 
L 282.150915 126.540232 
L 282.585817 126.29208 
L 282.803269 126.221768 
L 283.238171 125.880292 
L 283.890524 125.70562 
L 284.325427 125.744969 
L 284.760329 125.43431 
L 285.412682 125.192988 
L 285.847584 124.927898 
L 286.93484 124.80834 
L 287.369742 124.186278 
L 288.022096 123.222497 
L 288.456998 122.954664 
L 289.109352 122.621315 
L 289.761705 121.658939 
L 290.414058 121.086481 
L 290.631509 120.293675 
L 291.066412 113.008717 
L 291.501314 101.468035 
L 292.153667 62.407171 
L 292.371119 69.840155 
L 293.458374 140.124782 
L 293.893277 146.486643 
L 294.110728 147.689832 
L 294.328179 148.195512 
L 294.54563 148.366107 
L 294.980532 148.097918 
L 295.632886 147.171644 
L 296.50269 145.81116 
L 296.937592 146.46258 
L 299.981908 150.786286 
L 300.634262 151.400193 
L 301.504066 152.425656 
L 302.373871 153.457741 
L 303.243675 154.345926 
L 304.330931 155.277847 
L 304.983284 155.873633 
L 307.810149 158.443383 
L 309.549758 159.817265 
L 310.202112 160.284403 
L 311.289367 161.18401 
L 311.941721 161.642986 
L 314.986037 163.896326 
L 315.63839 164.371913 
L 316.943097 165.199131 
L 317.812901 165.673361 
L 318.247804 165.837819 
L 318.682706 166.058506 
L 320.204864 166.893631 
L 321.29212 167.365128 
L 326.510947 169.363432 
L 327.380751 169.523638 
L 327.815654 169.639007 
L 328.250556 169.626078 
L 330.425067 170.344616 
L 338.905662 172.431803 
L 340.210368 172.689072 
L 340.645271 172.920611 
L 341.732526 173.057101 
L 342.167429 173.211927 
L 342.602331 173.299483 
L 343.254684 173.509706 
L 346.299 173.727549 
L 346.733902 173.69351 
L 347.386256 173.802455 
L 348.25606 173.928683 
L 353.474888 174.393695 
L 356.301752 174.590818 
L 357.82391 174.652753 
L 358.476264 174.662647 
L 358.911166 174.813378 
L 359.780971 174.897938 
L 360.215873 175.001167 
L 360.868226 174.995552 
L 361.738031 175.070687 
L 363.042738 175.14303 
L 364.347444 175.161199 
L 369.131369 175.227087 
L 369.783723 175.304588 
L 374.785099 175.609068 
L 375.220001 175.505615 
L 376.089806 175.629683 
L 377.394513 175.70024 
L 380.221377 175.814965 
L 380.873731 175.869149 
L 381.526084 175.794001 
L 383.048242 175.703064 
L 384.787851 175.802992 
L 385.440205 175.839522 
L 388.267069 176.122329 
L 388.919423 176.164952 
L 390.006678 176.211597 
L 393.050994 176.310306 
L 395.660408 176.354398 
L 396.530213 176.327347 
L 397.182566 176.229317 
L 398.05237 176.165863 
L 398.487273 176.211699 
L 398.487273 176.211699 
" style="fill:none;stroke:#000000;stroke-linecap:square;stroke-width:1.5;"/>
   </g>
   <g id="line2d_20">
    <path clip-path="url(#pe53fa08b3a)" d="M 73.832727 176.817351 
L 76.007239 176.806797 
L 76.659592 176.789188 
L 78.834103 177.05814 
L 79.051555 176.77146 
L 81.660968 144.431929 
L 83.618028 125.493366 
L 83.83548 122.464597 
L 84.052931 108.66289 
L 84.270382 69.846132 
L 84.487833 53.568 
L 85.357637 135.802596 
L 85.79254 144.219588 
L 86.227442 145.18572 
L 86.879795 143.584361 
L 87.532149 141.004359 
L 89.271758 135.122923 
L 91.011367 130.467105 
L 91.446269 129.511652 
L 93.620781 125.733792 
L 93.838232 125.560797 
L 94.273134 125.020389 
L 95.142939 124.307913 
L 95.36039 124.151687 
L 95.795292 124.084712 
L 96.447645 123.844039 
L 96.882548 123.727565 
L 97.31745 123.7914 
L 97.534901 123.891004 
L 98.839608 123.535702 
L 99.709412 122.715069 
L 101.666473 119.944717 
L 101.883924 119.898307 
L 102.536277 118.70646 
L 102.971179 110.964095 
L 103.406082 98.432136 
L 104.058435 61.685962 
L 104.493337 92.034494 
L 104.92824 124.107521 
L 105.363142 136.771015 
L 105.580593 138.945798 
L 105.798044 139.67395 
L 106.015495 139.609785 
L 106.232946 139.349498 
L 106.8853 137.207185 
L 107.972556 132.335783 
L 110.581969 122.061742 
L 111.886676 117.655594 
L 112.104127 116.690726 
L 112.321578 114.034538 
L 112.756481 101.315512 
L 113.408834 62.296183 
L 113.626285 69.545635 
L 114.49609 126.902121 
L 114.930992 136.018864 
L 115.148443 137.49958 
L 115.365894 138.001801 
L 115.583345 137.796304 
L 116.018248 136.490897 
L 117.322954 131.524372 
L 121.019624 115.056567 
L 121.237075 113.619321 
L 121.454526 110.080828 
L 121.889428 97.114485 
L 122.541782 64.098653 
L 122.759233 69.921095 
L 123.846488 131.333493 
L 124.06394 134.913753 
L 124.281391 136.49807 
L 124.498842 136.960387 
L 124.716293 136.768264 
L 124.933744 136.347998 
L 125.368646 134.52109 
L 126.673353 127.761278 
L 128.847865 116.887259 
L 129.282767 114.256941 
L 129.500218 111.142259 
L 129.93512 100.92462 
L 130.370023 84.063735 
L 130.587474 72.658751 
L 130.804925 67.142884 
L 131.022376 72.479493 
L 132.109632 127.575041 
L 132.544534 133.651821 
L 132.761985 134.548622 
L 132.979436 134.740625 
L 133.196887 134.448234 
L 133.63179 132.97829 
L 134.501594 128.963277 
L 136.241203 119.633658 
L 137.328459 113.719413 
L 137.54591 111.522676 
L 138.198263 98.554447 
L 138.633166 85.257356 
L 139.068068 69.590744 
L 139.285519 71.520204 
L 139.720421 91.56473 
L 140.372775 122.992825 
L 140.807677 130.907679 
L 141.025128 132.611572 
L 141.242579 133.407837 
L 141.46003 133.361992 
L 141.894933 132.304707 
L 142.547286 129.608269 
L 144.939249 116.415315 
L 145.591602 112.6209 
L 146.026504 105.800425 
L 147.11376 86.444685 
L 147.548662 76.494184 
L 147.766113 74.875249 
L 147.983565 77.971441 
L 148.418467 93.758309 
L 149.07082 120.633686 
L 149.505722 127.901487 
L 149.723174 129.563595 
L 149.940625 130.3038 
L 150.158076 130.540217 
L 150.375527 130.39718 
L 150.810429 129.217257 
L 151.462783 126.793378 
L 152.984941 119.867726 
L 154.507099 112.042634 
L 155.376903 100.225622 
L 156.464159 83.644504 
L 156.68161 80.438852 
L 156.899061 79.539721 
L 157.116512 81.254328 
L 157.333963 85.526052 
L 158.421219 117.833117 
L 158.856121 123.898384 
L 159.291024 126.611272 
L 159.508475 127.211601 
L 159.725926 127.452384 
L 159.943377 127.17441 
L 160.378279 125.972079 
L 161.465535 121.502131 
L 162.335339 118.102754 
L 164.074949 110.902284 
L 164.509851 108.385743 
L 165.379655 98.273656 
L 166.684362 81.604034 
L 166.901813 81.525572 
L 167.119264 84.465038 
L 168.423971 117.894065 
L 168.858874 122.173666 
L 169.293776 123.862043 
L 169.511227 124.07513 
L 169.728678 124.067329 
L 169.946129 123.883093 
L 170.381031 122.945636 
L 171.468287 119.181419 
L 173.86025 108.802696 
L 174.077701 107.713708 
L 174.512603 103.374481 
L 175.164956 97.412918 
L 176.252212 89.674242 
L 176.469663 89.022872 
L 176.687114 88.814535 
L 176.904566 89.649163 
L 177.339468 95.397954 
L 178.209272 109.17902 
L 178.861626 115.374223 
L 179.296528 117.570272 
L 179.73143 118.612736 
L 180.166333 118.910476 
L 180.383784 118.851009 
L 180.818686 118.285529 
L 181.253588 117.430969 
L 181.688491 116.929136 
L 182.340844 115.613476 
L 183.4281 112.781374 
L 184.297904 109.905236 
L 186.254964 106.64374 
L 186.689867 106.051515 
L 187.559671 105.004982 
L 188.212025 104.145855 
L 188.429476 103.813698 
L 188.864378 103.596356 
L 189.29928 103.113065 
L 189.734183 103.23987 
L 189.951634 103.118209 
L 190.169085 103.17402 
L 191.038889 105.127541 
L 192.561047 109.769191 
L 193.213401 110.486184 
L 194.300656 110.332258 
L 195.170461 110.736425 
L 197.127521 110.804812 
L 197.562423 110.772194 
L 198.432228 109.980663 
L 198.86713 110.001125 
L 199.302033 109.803522 
L 200.171837 109.953822 
L 200.389288 110.143589 
L 201.041642 110.162441 
L 201.911446 109.649685 
L 202.998702 108.707826 
L 203.651055 107.879536 
L 204.738311 106.350018 
L 204.955762 106.330544 
L 205.390664 105.981703 
L 205.825567 105.954405 
L 206.260469 106.236227 
L 206.695371 105.943459 
L 206.912822 106.076792 
L 207.130273 106.474653 
L 207.347725 106.46822 
L 207.565176 106.316159 
L 207.782627 106.332016 
L 208.217529 106.200749 
L 208.43498 106.204498 
L 209.087334 105.965285 
L 209.522236 106.057632 
L 209.739687 106.167275 
L 210.609492 106.978631 
L 211.044394 107.188912 
L 211.696747 107.694084 
L 212.13165 107.9932 
L 212.566552 108.079464 
L 213.001454 108.063414 
L 213.218905 108.119498 
L 213.653807 107.881501 
L 214.523612 107.608082 
L 214.958514 107.58785 
L 215.393417 107.525481 
L 216.263221 107.581264 
L 216.698123 107.635381 
L 217.350477 107.80667 
L 217.567928 107.698361 
L 218.00283 107.133506 
L 218.437732 106.916612 
L 218.872635 106.37249 
L 219.524988 106.060157 
L 219.95989 105.544394 
L 221.264597 104.482963 
L 221.699499 103.861439 
L 222.351853 103.307691 
L 222.786755 102.833732 
L 223.221657 102.65623 
L 223.439109 102.572806 
L 223.65656 102.616205 
L 224.091462 103.666613 
L 226.048522 109.652571 
L 226.483424 110.508551 
L 226.918327 110.915731 
L 227.353229 111.047508 
L 228.223034 110.948612 
L 228.875387 111.231197 
L 229.310289 110.984363 
L 230.614996 109.771988 
L 231.049898 109.416444 
L 231.267349 109.389329 
L 231.484801 109.226778 
L 231.919703 108.455798 
L 232.572056 108.272337 
L 233.006959 108.542111 
L 233.441861 108.844951 
L 233.659312 108.774257 
L 234.094214 108.188312 
L 234.529116 107.683221 
L 235.18147 106.687599 
L 235.616372 106.098656 
L 238.225786 101.429259 
L 238.443237 100.765512 
L 239.09559 97.681991 
L 239.313041 97.17408 
L 239.747944 96.914856 
L 239.965395 96.877601 
L 240.182846 97.350181 
L 240.617748 98.994566 
L 241.270102 102.793582 
L 241.922455 106.733172 
L 242.79226 109.707862 
L 243.662064 111.653321 
L 244.096966 112.205518 
L 244.531869 112.638191 
L 244.966771 112.875333 
L 245.184222 112.949121 
L 245.401673 112.885117 
L 245.836576 112.470149 
L 246.70638 111.192098 
L 246.923831 110.910597 
L 249.098343 106.074151 
L 249.750696 105.238148 
L 250.185598 104.462275 
L 250.620501 103.63989 
L 251.055403 103.21531 
L 251.707756 102.853624 
L 252.142658 102.162403 
L 252.577561 101.411257 
L 252.795012 101.209643 
L 253.447365 101.559237 
L 253.664816 101.5264 
L 253.882268 101.640926 
L 254.534621 102.713064 
L 254.969523 103.727101 
L 255.621877 104.581563 
L 256.056779 104.526903 
L 256.926583 103.917103 
L 258.23129 105.157452 
L 258.666193 105.587817 
L 259.101095 105.829654 
L 259.535997 105.954292 
L 259.970899 106.349575 
L 260.18835 106.447007 
L 260.623253 106.895954 
L 260.840704 106.877285 
L 261.275606 107.029947 
L 261.710508 106.923471 
L 262.362862 106.89597 
L 262.580313 106.82877 
L 263.015215 106.977178 
L 263.450118 106.745412 
L 264.319922 105.688123 
L 264.754824 105.23301 
L 266.276982 103.667199 
L 266.711885 103.675091 
L 267.581689 102.959382 
L 267.79914 103.122737 
L 268.016591 102.942635 
L 268.234043 102.971414 
L 268.886396 103.552257 
L 269.538749 104.681889 
L 270.843456 106.519526 
L 271.278358 106.517352 
L 271.713261 106.386191 
L 273.017967 107.449015 
L 273.45287 107.503702 
L 273.670321 107.60653 
L 273.887772 107.425759 
L 274.540125 105.874621 
L 274.975028 105.042998 
L 275.627381 104.749071 
L 276.279735 105.346001 
L 277.149539 106.487236 
L 277.584441 106.467058 
L 278.019344 106.09572 
L 278.236795 106.119195 
L 279.106599 106.709126 
L 279.541502 106.933538 
L 279.976404 106.848475 
L 280.411306 106.487391 
L 280.846208 106.562665 
L 281.281111 106.753194 
L 283.673073 104.316441 
L 283.890524 103.953991 
L 284.107975 103.843288 
L 284.760329 104.138988 
L 285.195231 104.244537 
L 285.412682 104.272277 
L 286.282487 105.348581 
L 286.93484 106.234828 
L 288.239547 108.50082 
L 288.456998 108.722567 
L 288.8919 109.500217 
L 289.326803 109.881464 
L 289.544254 109.826418 
L 289.979156 109.287161 
L 290.414058 108.774919 
L 290.848961 108.503006 
L 291.718765 108.829319 
L 291.936216 108.912704 
L 293.240923 108.321039 
L 293.675825 108.566916 
L 294.110728 108.844225 
L 294.763081 108.832939 
L 294.980532 108.760098 
L 295.632886 108.970453 
L 295.850337 108.726515 
L 296.067788 108.808114 
L 296.285239 108.641647 
L 296.50269 108.822519 
L 298.024848 126.549064 
L 299.112104 134.8191 
L 300.199359 140.425005 
L 301.504066 145.133858 
L 302.591322 148.472062 
L 304.11348 152.132656 
L 305.635638 154.964975 
L 306.287991 156.136301 
L 307.810149 158.508655 
L 308.897405 159.98026 
L 309.984661 161.533246 
L 313.246428 164.921671 
L 313.898781 165.597811 
L 316.290743 167.570758 
L 317.59545 168.399091 
L 318.682706 169.110284 
L 319.117608 169.29021 
L 319.552511 169.531239 
L 320.204864 169.872166 
L 322.379375 171.071382 
L 322.814278 171.215927 
L 323.466631 171.518156 
L 324.118984 171.753412 
L 324.553887 171.978161 
L 324.988789 172.090691 
L 327.380751 172.944548 
L 327.815654 172.964925 
L 328.685458 173.306804 
L 331.077421 173.662432 
L 333.034481 174.317504 
L 333.904285 174.435325 
L 334.339188 174.441432 
L 334.991541 174.28999 
L 335.643895 174.324278 
L 337.818406 174.608809 
L 338.905662 174.727705 
L 340.42782 175.061955 
L 341.297624 174.905808 
L 341.732526 174.978675 
L 342.167429 174.892897 
L 342.819782 174.946277 
L 344.34194 174.812402 
L 345.429196 174.971274 
L 346.081549 175.110572 
L 346.733902 175.233123 
L 347.821158 175.364686 
L 348.690963 175.416326 
L 352.822534 174.988049 
L 353.257437 174.967596 
L 354.344692 174.753399 
L 354.997046 174.763277 
L 355.431948 174.720359 
L 357.389008 175.114498 
L 358.693715 175.337622 
L 359.563519 175.404097 
L 359.998422 175.468159 
L 361.738031 175.524943 
L 361.955482 175.600603 
L 363.260189 175.354946 
L 365.869602 175.31955 
L 366.304505 175.28268 
L 366.956858 175.332567 
L 368.261565 175.322858 
L 369.783723 175.346631 
L 371.08843 175.406039 
L 371.740783 175.649403 
L 373.262941 175.596005 
L 373.697843 175.424963 
L 374.132746 175.310513 
L 374.567648 175.354032 
L 374.785099 175.337304 
L 375.220001 175.523087 
L 378.699219 175.574351 
L 379.351573 175.32522 
L 380.221377 175.245213 
L 380.873731 175.075649 
L 381.526084 175.027771 
L 381.960986 174.943684 
L 382.830791 175.053221 
L 384.787851 175.189919 
L 385.440205 175.270956 
L 386.310009 175.322701 
L 386.962363 175.432124 
L 387.614716 175.554307 
L 388.701972 175.349565 
L 389.136874 175.313262 
L 390.22413 175.315343 
L 391.311385 175.338338 
L 392.398641 175.240408 
L 395.008055 174.984756 
L 395.877859 174.968252 
L 396.747664 174.821978 
L 397.400017 174.566416 
L 397.834919 174.261526 
L 398.269822 174.256884 
L 398.487273 174.038429 
L 398.487273 174.038429 
" style="fill:none;stroke:#000000;stroke-linecap:square;stroke-width:1.5;"/>
   </g>
   <g id="patch_3">
    <path d="M 57.6 307.584 
L 57.6 41.472 
" style="fill:none;stroke:#000000;stroke-linecap:square;stroke-linejoin:miter;stroke-width:0.8;"/>
   </g>
   <g id="patch_4">
    <path d="M 414.72 307.584 
L 414.72 41.472 
" style="fill:none;stroke:#000000;stroke-linecap:square;stroke-linejoin:miter;stroke-width:0.8;"/>
   </g>
   <g id="patch_5">
    <path d="M 57.6 307.584 
L 414.72 307.584 
" style="fill:none;stroke:#000000;stroke-linecap:square;stroke-linejoin:miter;stroke-width:0.8;"/>
   </g>
   <g id="patch_6">
    <path d="M 57.6 41.472 
L 414.72 41.472 
" style="fill:none;stroke:#000000;stroke-linecap:square;stroke-linejoin:miter;stroke-width:0.8;"/>
   </g>
  </g>
 </g>
 <defs>
  <clipPath id="pe53fa08b3a">
   <rect height="266.112" width="357.12" x="57.6" y="41.472"/>
  </clipPath>
 </defs>
</svg>
