<?xml version="1.0" encoding="utf-8" standalone="no"?>
<!DOCTYPE svg PUBLIC "-//W3C//DTD SVG 1.1//EN"
  "http://www.w3.org/Graphics/SVG/1.1/DTD/svg11.dtd">
<svg height="345.6pt" version="1.1" viewBox="0 0 460.8 345.6" width="460.8pt" xmlns="http://www.w3.org/2000/svg" xmlns:xlink="http://www.w3.org/1999/xlink">
 <metadata>
  <rdf:RDF xmlns:cc="http://creativecommons.org/ns#" xmlns:dc="http://purl.org/dc/elements/1.1/" xmlns:rdf="http://www.w3.org/1999/02/22-rdf-syntax-ns#">
   <cc:Work>
    <dc:type rdf:resource="http://purl.org/dc/dcmitype/StillImage"/>
    <dc:date>2024-08-06T14:44:50.084039</dc:date>
    <dc:format>image/svg+xml</dc:format>
    <dc:creator>
     <cc:Agent>
      <dc:title>Matplotlib v3.4.2, https://matplotlib.org/</dc:title>
     </cc:Agent>
    </dc:creator>
   </cc:Work>
  </rdf:RDF>
 </metadata>
 <defs>
  <style type="text/css">*{stroke-linecap:butt;stroke-linejoin:round;}</style>
 </defs>
 <g id="figure_1">
  <g id="patch_1">
   <path d="M 0 345.6 
L 460.8 345.6 
L 460.8 0 
L 0 0 
z
" style="fill:#ffffff;"/>
  </g>
  <g id="axes_1">
   <g id="patch_2">
    <path d="M 57.6 307.584 
L 414.72 307.584 
L 414.72 41.472 
L 57.6 41.472 
z
" style="fill:#ffffff;"/>
   </g>
   <g id="matplotlib.axis_1">
    <g id="xtick_1">
     <g id="line2d_1">
      <defs>
       <path d="M 0 0 
L 0 3.5 
" id="m448b2828a8" style="stroke:#000000;stroke-width:0.8;"/>
      </defs>
      <g>
       <use style="stroke:#000000;stroke-width:0.8;" x="95.211629" xlink:href="#m448b2828a8" y="307.584"/>
      </g>
     </g>
     <g id="text_1">
      <!-- 0.2 -->
      <g transform="translate(87.260067 322.182437)scale(0.1 -0.1)">
       <defs>
        <path d="M 2034 4250 
Q 1547 4250 1301 3770 
Q 1056 3291 1056 2328 
Q 1056 1369 1301 889 
Q 1547 409 2034 409 
Q 2525 409 2770 889 
Q 3016 1369 3016 2328 
Q 3016 3291 2770 3770 
Q 2525 4250 2034 4250 
z
M 2034 4750 
Q 2819 4750 3233 4129 
Q 3647 3509 3647 2328 
Q 3647 1150 3233 529 
Q 2819 -91 2034 -91 
Q 1250 -91 836 529 
Q 422 1150 422 2328 
Q 422 3509 836 4129 
Q 1250 4750 2034 4750 
z
" id="DejaVuSans-30" transform="scale(0.015625)"/>
        <path d="M 684 794 
L 1344 794 
L 1344 0 
L 684 0 
L 684 794 
z
" id="DejaVuSans-2e" transform="scale(0.015625)"/>
        <path d="M 1228 531 
L 3431 531 
L 3431 0 
L 469 0 
L 469 531 
Q 828 903 1448 1529 
Q 2069 2156 2228 2338 
Q 2531 2678 2651 2914 
Q 2772 3150 2772 3378 
Q 2772 3750 2511 3984 
Q 2250 4219 1831 4219 
Q 1534 4219 1204 4116 
Q 875 4013 500 3803 
L 500 4441 
Q 881 4594 1212 4672 
Q 1544 4750 1819 4750 
Q 2544 4750 2975 4387 
Q 3406 4025 3406 3419 
Q 3406 3131 3298 2873 
Q 3191 2616 2906 2266 
Q 2828 2175 2409 1742 
Q 1991 1309 1228 531 
z
" id="DejaVuSans-32" transform="scale(0.015625)"/>
       </defs>
       <use xlink:href="#DejaVuSans-30"/>
       <use x="63.623047" xlink:href="#DejaVuSans-2e"/>
       <use x="95.410156" xlink:href="#DejaVuSans-32"/>
      </g>
     </g>
    </g>
    <g id="xtick_2">
     <g id="line2d_2">
      <g>
       <use style="stroke:#000000;stroke-width:0.8;" x="139.20545" xlink:href="#m448b2828a8" y="307.584"/>
      </g>
     </g>
     <g id="text_2">
      <!-- 0.4 -->
      <g transform="translate(131.253887 322.182437)scale(0.1 -0.1)">
       <defs>
        <path d="M 2419 4116 
L 825 1625 
L 2419 1625 
L 2419 4116 
z
M 2253 4666 
L 3047 4666 
L 3047 1625 
L 3713 1625 
L 3713 1100 
L 3047 1100 
L 3047 0 
L 2419 0 
L 2419 1100 
L 313 1100 
L 313 1709 
L 2253 4666 
z
" id="DejaVuSans-34" transform="scale(0.015625)"/>
       </defs>
       <use xlink:href="#DejaVuSans-30"/>
       <use x="63.623047" xlink:href="#DejaVuSans-2e"/>
       <use x="95.410156" xlink:href="#DejaVuSans-34"/>
      </g>
     </g>
    </g>
    <g id="xtick_3">
     <g id="line2d_3">
      <g>
       <use style="stroke:#000000;stroke-width:0.8;" x="183.19927" xlink:href="#m448b2828a8" y="307.584"/>
      </g>
     </g>
     <g id="text_3">
      <!-- 0.6 -->
      <g transform="translate(175.247707 322.182437)scale(0.1 -0.1)">
       <defs>
        <path d="M 2113 2584 
Q 1688 2584 1439 2293 
Q 1191 2003 1191 1497 
Q 1191 994 1439 701 
Q 1688 409 2113 409 
Q 2538 409 2786 701 
Q 3034 994 3034 1497 
Q 3034 2003 2786 2293 
Q 2538 2584 2113 2584 
z
M 3366 4563 
L 3366 3988 
Q 3128 4100 2886 4159 
Q 2644 4219 2406 4219 
Q 1781 4219 1451 3797 
Q 1122 3375 1075 2522 
Q 1259 2794 1537 2939 
Q 1816 3084 2150 3084 
Q 2853 3084 3261 2657 
Q 3669 2231 3669 1497 
Q 3669 778 3244 343 
Q 2819 -91 2113 -91 
Q 1303 -91 875 529 
Q 447 1150 447 2328 
Q 447 3434 972 4092 
Q 1497 4750 2381 4750 
Q 2619 4750 2861 4703 
Q 3103 4656 3366 4563 
z
" id="DejaVuSans-36" transform="scale(0.015625)"/>
       </defs>
       <use xlink:href="#DejaVuSans-30"/>
       <use x="63.623047" xlink:href="#DejaVuSans-2e"/>
       <use x="95.410156" xlink:href="#DejaVuSans-36"/>
      </g>
     </g>
    </g>
    <g id="xtick_4">
     <g id="line2d_4">
      <g>
       <use style="stroke:#000000;stroke-width:0.8;" x="227.19309" xlink:href="#m448b2828a8" y="307.584"/>
      </g>
     </g>
     <g id="text_4">
      <!-- 0.8 -->
      <g transform="translate(219.241528 322.182437)scale(0.1 -0.1)">
       <defs>
        <path d="M 2034 2216 
Q 1584 2216 1326 1975 
Q 1069 1734 1069 1313 
Q 1069 891 1326 650 
Q 1584 409 2034 409 
Q 2484 409 2743 651 
Q 3003 894 3003 1313 
Q 3003 1734 2745 1975 
Q 2488 2216 2034 2216 
z
M 1403 2484 
Q 997 2584 770 2862 
Q 544 3141 544 3541 
Q 544 4100 942 4425 
Q 1341 4750 2034 4750 
Q 2731 4750 3128 4425 
Q 3525 4100 3525 3541 
Q 3525 3141 3298 2862 
Q 3072 2584 2669 2484 
Q 3125 2378 3379 2068 
Q 3634 1759 3634 1313 
Q 3634 634 3220 271 
Q 2806 -91 2034 -91 
Q 1263 -91 848 271 
Q 434 634 434 1313 
Q 434 1759 690 2068 
Q 947 2378 1403 2484 
z
M 1172 3481 
Q 1172 3119 1398 2916 
Q 1625 2713 2034 2713 
Q 2441 2713 2670 2916 
Q 2900 3119 2900 3481 
Q 2900 3844 2670 4047 
Q 2441 4250 2034 4250 
Q 1625 4250 1398 4047 
Q 1172 3844 1172 3481 
z
" id="DejaVuSans-38" transform="scale(0.015625)"/>
       </defs>
       <use xlink:href="#DejaVuSans-30"/>
       <use x="63.623047" xlink:href="#DejaVuSans-2e"/>
       <use x="95.410156" xlink:href="#DejaVuSans-38"/>
      </g>
     </g>
    </g>
    <g id="xtick_5">
     <g id="line2d_5">
      <g>
       <use style="stroke:#000000;stroke-width:0.8;" x="271.18691" xlink:href="#m448b2828a8" y="307.584"/>
      </g>
     </g>
     <g id="text_5">
      <!-- 1.0 -->
      <g transform="translate(263.235348 322.182437)scale(0.1 -0.1)">
       <defs>
        <path d="M 794 531 
L 1825 531 
L 1825 4091 
L 703 3866 
L 703 4441 
L 1819 4666 
L 2450 4666 
L 2450 531 
L 3481 531 
L 3481 0 
L 794 0 
L 794 531 
z
" id="DejaVuSans-31" transform="scale(0.015625)"/>
       </defs>
       <use xlink:href="#DejaVuSans-31"/>
       <use x="63.623047" xlink:href="#DejaVuSans-2e"/>
       <use x="95.410156" xlink:href="#DejaVuSans-30"/>
      </g>
     </g>
    </g>
    <g id="xtick_6">
     <g id="line2d_6">
      <g>
       <use style="stroke:#000000;stroke-width:0.8;" x="315.18073" xlink:href="#m448b2828a8" y="307.584"/>
      </g>
     </g>
     <g id="text_6">
      <!-- 1.2 -->
      <g transform="translate(307.229168 322.182437)scale(0.1 -0.1)">
       <use xlink:href="#DejaVuSans-31"/>
       <use x="63.623047" xlink:href="#DejaVuSans-2e"/>
       <use x="95.410156" xlink:href="#DejaVuSans-32"/>
      </g>
     </g>
    </g>
    <g id="xtick_7">
     <g id="line2d_7">
      <g>
       <use style="stroke:#000000;stroke-width:0.8;" x="359.174551" xlink:href="#m448b2828a8" y="307.584"/>
      </g>
     </g>
     <g id="text_7">
      <!-- 1.4 -->
      <g transform="translate(351.222988 322.182437)scale(0.1 -0.1)">
       <use xlink:href="#DejaVuSans-31"/>
       <use x="63.623047" xlink:href="#DejaVuSans-2e"/>
       <use x="95.410156" xlink:href="#DejaVuSans-34"/>
      </g>
     </g>
    </g>
    <g id="xtick_8">
     <g id="line2d_8">
      <g>
       <use style="stroke:#000000;stroke-width:0.8;" x="403.168371" xlink:href="#m448b2828a8" y="307.584"/>
      </g>
     </g>
     <g id="text_8">
      <!-- 1.6 -->
      <g transform="translate(395.216808 322.182437)scale(0.1 -0.1)">
       <use xlink:href="#DejaVuSans-31"/>
       <use x="63.623047" xlink:href="#DejaVuSans-2e"/>
       <use x="95.410156" xlink:href="#DejaVuSans-36"/>
      </g>
     </g>
    </g>
   </g>
   <g id="matplotlib.axis_2">
    <g id="ytick_1">
     <g id="line2d_9">
      <defs>
       <path d="M 0 0 
L -3.5 0 
" id="mc24a82df6f" style="stroke:#000000;stroke-width:0.8;"/>
      </defs>
      <g>
       <use style="stroke:#000000;stroke-width:0.8;" x="57.6" xlink:href="#mc24a82df6f" y="283.053432"/>
      </g>
     </g>
     <g id="text_9">
      <!-- −100 -->
      <g transform="translate(23.132812 286.852651)scale(0.1 -0.1)">
       <defs>
        <path d="M 678 2272 
L 4684 2272 
L 4684 1741 
L 678 1741 
L 678 2272 
z
" id="DejaVuSans-2212" transform="scale(0.015625)"/>
       </defs>
       <use xlink:href="#DejaVuSans-2212"/>
       <use x="83.789062" xlink:href="#DejaVuSans-31"/>
       <use x="147.412109" xlink:href="#DejaVuSans-30"/>
       <use x="211.035156" xlink:href="#DejaVuSans-30"/>
      </g>
     </g>
    </g>
    <g id="ytick_2">
     <g id="line2d_10">
      <g>
       <use style="stroke:#000000;stroke-width:0.8;" x="57.6" xlink:href="#mc24a82df6f" y="241.339419"/>
      </g>
     </g>
     <g id="text_10">
      <!-- −80 -->
      <g transform="translate(29.495313 245.138638)scale(0.1 -0.1)">
       <use xlink:href="#DejaVuSans-2212"/>
       <use x="83.789062" xlink:href="#DejaVuSans-38"/>
       <use x="147.412109" xlink:href="#DejaVuSans-30"/>
      </g>
     </g>
    </g>
    <g id="ytick_3">
     <g id="line2d_11">
      <g>
       <use style="stroke:#000000;stroke-width:0.8;" x="57.6" xlink:href="#mc24a82df6f" y="199.625406"/>
      </g>
     </g>
     <g id="text_11">
      <!-- −60 -->
      <g transform="translate(29.495313 203.424625)scale(0.1 -0.1)">
       <use xlink:href="#DejaVuSans-2212"/>
       <use x="83.789062" xlink:href="#DejaVuSans-36"/>
       <use x="147.412109" xlink:href="#DejaVuSans-30"/>
      </g>
     </g>
    </g>
    <g id="ytick_4">
     <g id="line2d_12">
      <g>
       <use style="stroke:#000000;stroke-width:0.8;" x="57.6" xlink:href="#mc24a82df6f" y="157.911393"/>
      </g>
     </g>
     <g id="text_12">
      <!-- −40 -->
      <g transform="translate(29.495313 161.710612)scale(0.1 -0.1)">
       <use xlink:href="#DejaVuSans-2212"/>
       <use x="83.789062" xlink:href="#DejaVuSans-34"/>
       <use x="147.412109" xlink:href="#DejaVuSans-30"/>
      </g>
     </g>
    </g>
    <g id="ytick_5">
     <g id="line2d_13">
      <g>
       <use style="stroke:#000000;stroke-width:0.8;" x="57.6" xlink:href="#mc24a82df6f" y="116.19738"/>
      </g>
     </g>
     <g id="text_13">
      <!-- −20 -->
      <g transform="translate(29.495313 119.996599)scale(0.1 -0.1)">
       <use xlink:href="#DejaVuSans-2212"/>
       <use x="83.789062" xlink:href="#DejaVuSans-32"/>
       <use x="147.412109" xlink:href="#DejaVuSans-30"/>
      </g>
     </g>
    </g>
    <g id="ytick_6">
     <g id="line2d_14">
      <g>
       <use style="stroke:#000000;stroke-width:0.8;" x="57.6" xlink:href="#mc24a82df6f" y="74.483367"/>
      </g>
     </g>
     <g id="text_14">
      <!-- 0 -->
      <g transform="translate(44.2375 78.282586)scale(0.1 -0.1)">
       <use xlink:href="#DejaVuSans-30"/>
      </g>
     </g>
    </g>
   </g>
   <g id="line2d_15">
    <path clip-path="url(#p9f52918653)" d="M 73.832727 210.802115 
L 74.485081 210.661967 
L 75.354885 210.228755 
L 77.094494 209.06492 
L 77.529397 208.96206 
L 77.964299 208.733308 
L 78.18175 208.776707 
L 78.399201 208.685761 
L 78.616652 208.810533 
L 78.834103 208.720215 
L 79.051555 208.962125 
L 80.13881 220.310585 
L 81.443517 229.869988 
L 84.052931 246.856112 
L 86.227442 259.563853 
L 89.054307 272.847946 
L 91.228818 280.794474 
L 91.66372 282.100523 
L 92.316074 284.123053 
L 93.403329 286.774114 
L 93.838232 287.638155 
L 94.490585 288.155541 
L 95.577841 289.787144 
L 96.230194 290.435279 
L 96.665097 290.741922 
L 97.099999 291.369983 
L 97.31745 291.508395 
L 97.534901 291.493747 
L 97.969803 291.358211 
L 98.622157 291.701856 
L 98.839608 291.614378 
L 99.27451 291.907709 
L 100.361766 291.802475 
L 100.579217 291.544352 
L 101.014119 290.629226 
L 101.23157 290.584129 
L 101.666473 290.859773 
L 102.536277 290.602815 
L 103.188631 290.897915 
L 105.145691 293.455621 
L 106.015495 293.974231 
L 107.320202 294.543001 
L 107.755104 294.635951 
L 108.190007 294.799217 
L 108.407458 294.750745 
L 108.624909 294.816964 
L 109.059811 295.156854 
L 109.929616 295.488 
L 110.581969 295.24538 
L 111.016871 294.432908 
L 111.451774 293.966039 
L 111.886676 293.595167 
L 112.104127 293.616173 
L 112.539029 293.824144 
L 113.408834 293.967974 
L 113.843736 294.392696 
L 114.278638 294.456803 
L 114.49609 294.598079 
L 115.148443 294.386129 
L 115.583345 294.325593 
L 116.235699 294.710966 
L 116.888052 294.455967 
L 117.322954 294.174065 
L 118.41021 294.564203 
L 118.845112 294.575779 
L 119.280015 294.563647 
L 119.714917 294.504866 
L 120.584721 293.499186 
L 121.454526 293.661481 
L 121.889428 293.829511 
L 122.106879 293.719146 
L 122.541782 293.818997 
L 122.759233 293.710991 
L 123.411586 293.796308 
L 123.629037 293.637146 
L 124.281391 293.650131 
L 124.498842 293.763639 
L 124.716293 293.733099 
L 125.586098 293.066988 
L 126.021 293.376033 
L 126.673353 293.339655 
L 128.630413 293.534332 
L 129.282767 293.246981 
L 129.717669 293.411601 
L 130.152571 293.416293 
L 130.587474 293.551189 
L 131.674729 293.549982 
L 132.761985 293.788876 
L 133.63179 293.672271 
L 134.066692 293.55131 
L 134.719045 293.388807 
L 136.676105 292.16792 
L 137.111008 291.937371 
L 137.980812 290.955137 
L 138.850617 290.605095 
L 139.285519 290.561527 
L 139.937872 289.137066 
L 140.372775 289.044164 
L 140.807677 289.047177 
L 141.242579 288.682642 
L 141.46003 288.683198 
L 142.764737 289.468523 
L 142.982188 289.459327 
L 143.417091 289.26759 
L 143.851993 289.142834 
L 145.591602 288.67464 
L 146.026504 288.452344 
L 146.243955 288.433376 
L 147.11376 287.920461 
L 147.766113 288.281478 
L 148.201016 288.13677 
L 148.635918 288.154703 
L 149.07082 287.98114 
L 150.158076 287.791243 
L 150.375527 287.802748 
L 150.810429 287.990564 
L 151.02788 287.988431 
L 151.462783 288.256642 
L 151.897685 288.194182 
L 152.115136 288.312315 
L 152.550038 288.762764 
L 152.984941 288.704666 
L 154.072196 288.010767 
L 154.507099 288.16463 
L 154.942001 287.970229 
L 155.159452 287.935028 
L 155.594354 287.633301 
L 156.246708 287.426511 
L 156.464159 287.504137 
L 156.899061 287.496581 
L 157.333963 287.757376 
L 157.768866 287.933906 
L 157.986317 288.084128 
L 158.421219 288.094939 
L 158.856121 288.259318 
L 159.291024 288.278474 
L 159.508475 288.345821 
L 160.813182 287.774704 
L 161.248084 287.375569 
L 162.117888 287.625401 
L 162.335339 287.690986 
L 162.770242 287.45248 
L 163.422595 287.367787 
L 164.074949 287.830831 
L 164.509851 287.972628 
L 165.162204 288.470245 
L 165.597106 288.855955 
L 166.24946 289.155158 
L 167.336716 289.383976 
L 167.771618 289.320796 
L 168.20652 289.074022 
L 168.641422 289.2719 
L 168.858874 289.234526 
L 169.511227 288.689715 
L 169.946129 288.719717 
L 170.381031 288.811429 
L 170.598483 288.92453 
L 170.815934 288.903202 
L 171.468287 288.330809 
L 172.120641 288.353624 
L 172.990445 288.443729 
L 173.425347 288.36346 
L 173.642799 288.232149 
L 174.730054 288.399243 
L 175.164956 288.656213 
L 176.252212 289.429972 
L 176.469663 289.368775 
L 176.904566 289.530891 
L 177.339468 289.426168 
L 178.644175 289.622659 
L 179.079077 289.851604 
L 180.166333 289.732214 
L 180.383784 289.823171 
L 181.036137 289.785674 
L 181.471039 289.730981 
L 181.905942 289.631054 
L 182.993197 289.142966 
L 183.4281 289.138126 
L 183.863002 289.139907 
L 184.732806 289.175437 
L 185.167709 289.279146 
L 185.820062 289.092809 
L 186.907318 289.38754 
L 187.34222 289.729121 
L 187.777122 289.951619 
L 188.864378 289.436744 
L 189.516731 289.139759 
L 189.951634 289.183317 
L 190.386536 289.258643 
L 190.821438 289.447019 
L 191.908694 290.135473 
L 192.126145 290.278918 
L 192.561047 290.294297 
L 193.213401 290.596398 
L 193.648303 290.849487 
L 194.083205 290.886967 
L 195.387912 290.580146 
L 196.257717 290.797159 
L 196.692619 290.774739 
L 198.214777 290.297196 
L 198.432228 290.336344 
L 198.649679 290.257404 
L 199.302033 289.616622 
L 199.519484 289.585713 
L 199.954386 289.355612 
L 201.041642 289.32958 
L 201.693995 289.505613 
L 202.128897 288.806458 
L 202.5638 288.162621 
L 203.651055 287.833183 
L 204.085957 287.590603 
L 204.52086 287.739583 
L 204.955762 287.551679 
L 205.390664 287.353531 
L 205.825567 287.413596 
L 206.47792 287.049182 
L 206.912822 286.910751 
L 207.130273 286.846286 
L 207.782627 286.343445 
L 208.217529 286.237855 
L 208.652431 285.999845 
L 208.869882 285.724461 
L 209.087334 285.667884 
L 209.522236 285.939888 
L 209.957138 286.045514 
L 210.174589 286.149926 
L 210.609492 286.113512 
L 210.826943 286.188068 
L 211.696747 285.896781 
L 212.349101 285.873629 
L 212.566552 285.986453 
L 212.784003 285.960779 
L 213.218905 286.093051 
L 213.653807 286.076755 
L 214.08871 285.919209 
L 214.523612 285.583631 
L 214.958514 285.378633 
L 215.175965 285.422752 
L 215.828319 284.898441 
L 216.480672 285.006136 
L 217.133026 284.635957 
L 218.655184 285.060341 
L 219.090086 285.486356 
L 219.524988 285.627684 
L 220.394793 285.412315 
L 220.612244 285.270097 
L 221.047146 285.375185 
L 222.134402 284.367068 
L 223.004206 284.603352 
L 223.439109 284.956491 
L 224.091462 284.705769 
L 224.308913 284.610402 
L 224.526364 284.663869 
L 224.961267 284.97348 
L 225.61362 284.999742 
L 226.048522 284.89392 
L 226.265973 284.928431 
L 226.700876 284.682754 
L 227.135778 284.740351 
L 227.788131 285.185424 
L 228.657936 284.779458 
L 229.092838 284.869595 
L 229.52774 285.118233 
L 229.962643 285.046607 
L 230.397545 285.119932 
L 230.832447 284.752957 
L 231.484801 284.303591 
L 232.789507 284.171299 
L 234.094214 285.10532 
L 234.529116 284.973619 
L 234.964019 285.096562 
L 235.398921 284.87321 
L 236.051274 285.20044 
L 236.486177 285.455296 
L 237.13853 285.670924 
L 237.573432 285.661548 
L 237.790884 285.703829 
L 238.225786 285.65196 
L 238.878139 285.983168 
L 239.747944 286.624287 
L 240.182846 286.659494 
L 242.139906 288.072014 
L 243.227162 288.384072 
L 243.444613 288.592718 
L 244.096966 288.606219 
L 244.531869 288.875991 
L 244.74932 288.737192 
L 245.184222 288.782875 
L 245.401673 288.550745 
L 246.054027 288.535191 
L 246.70638 288.867877 
L 247.141282 288.862727 
L 247.576185 288.525274 
L 247.793636 288.649174 
L 249.750696 288.186805 
L 250.185598 287.890511 
L 251.272854 287.931591 
L 252.36011 288.406075 
L 253.447365 288.007216 
L 254.099719 288.143276 
L 254.534621 288.095439 
L 254.969523 288.350002 
L 255.186974 288.420447 
L 255.621877 288.363501 
L 256.27423 288.578797 
L 256.491681 288.578323 
L 256.926583 288.35946 
L 257.578937 288.308437 
L 258.23129 288.458728 
L 259.318546 289.133431 
L 259.753448 288.932044 
L 260.18835 289.090399 
L 260.623253 288.770979 
L 261.058155 288.800975 
L 261.493057 288.462523 
L 261.710508 288.28415 
L 262.145411 288.439795 
L 263.015215 288.05346 
L 263.88502 287.543011 
L 265.407178 287.383514 
L 266.059531 286.971102 
L 266.711885 286.465844 
L 266.929336 286.281996 
L 267.581689 286.272983 
L 268.016591 286.381624 
L 268.451494 286.549455 
L 268.886396 286.554653 
L 269.103847 286.470574 
L 269.538749 286.630231 
L 270.191103 286.672246 
L 270.843456 286.492158 
L 271.278358 286.10137 
L 271.713261 285.743203 
L 272.148163 285.700193 
L 272.800516 286.016309 
L 274.540125 286.096599 
L 274.975028 286.173184 
L 276.714637 286.534892 
L 276.932088 286.709424 
L 278.019344 286.727924 
L 278.889148 286.522773 
L 279.32405 286.725309 
L 279.541502 286.562441 
L 280.193855 285.541644 
L 280.628757 285.558896 
L 281.498562 285.865385 
L 283.455622 287.357012 
L 284.325427 287.164346 
L 284.760329 286.886879 
L 284.97778 286.750961 
L 285.630133 287.079588 
L 286.065036 286.734119 
L 286.93484 286.806828 
L 287.587194 286.636612 
L 288.674449 286.584008 
L 289.326803 286.289427 
L 289.761705 286.242938 
L 290.196607 286.286411 
L 290.414058 286.321878 
L 291.066412 285.989903 
L 291.283863 286.093658 
L 291.936216 285.940165 
L 292.371119 285.767709 
L 293.023472 285.720025 
L 294.54563 284.82364 
L 295.197983 284.862535 
L 295.632886 284.754754 
L 295.850337 284.890788 
L 296.067788 284.830923 
L 296.285239 284.966428 
L 296.50269 284.814036 
L 297.372495 275.212652 
L 298.45975 267.617355 
L 300.634262 256.393672 
L 301.721517 252.182304 
L 303.678578 245.69923 
L 304.765833 241.923935 
L 305.418187 240.231548 
L 306.287991 237.808445 
L 308.897405 231.552051 
L 313.898781 220.892483 
L 314.333683 220.046858 
L 314.986037 218.920006 
L 316.725646 215.879306 
L 319.117608 212.959136 
L 319.987413 211.780168 
L 320.422315 211.350513 
L 321.074668 210.61458 
L 322.596826 209.299995 
L 323.031729 208.991359 
L 323.684082 208.325559 
L 324.118984 208.059229 
L 324.988789 207.050306 
L 325.20624 206.860588 
L 326.510947 204.831387 
L 329.337812 201.262063 
L 330.207616 199.783451 
L 330.642518 199.308271 
L 331.077421 199.125017 
L 331.512323 198.622139 
L 333.469383 195.658298 
L 333.904285 195.254749 
L 334.556639 194.670639 
L 334.991541 194.639348 
L 335.861346 194.318653 
L 336.078797 194.276042 
L 336.73115 193.732341 
L 337.600955 192.691262 
L 338.035857 192.347316 
L 338.68821 192.107271 
L 338.905662 191.951551 
L 339.340564 191.899467 
L 339.992917 191.707024 
L 341.297624 191.491117 
L 342.38488 191.393212 
L 342.819782 191.221136 
L 343.689587 191.077998 
L 344.34194 190.522862 
L 344.776842 190.340003 
L 345.211745 190.150726 
L 345.864098 190.123789 
L 346.951354 189.303554 
L 347.386256 189.105017 
L 347.821158 188.952327 
L 348.690963 188.794954 
L 349.125865 188.771098 
L 349.560767 188.778105 
L 350.648023 188.801212 
L 351.082925 188.916184 
L 351.517827 188.906125 
L 352.170181 188.763009 
L 352.387632 188.687217 
L 353.039985 188.827884 
L 354.127241 188.642412 
L 354.997046 188.743904 
L 355.214497 188.791132 
L 355.649399 188.646374 
L 356.301752 188.713193 
L 356.736655 188.658584 
L 357.606459 188.060097 
L 358.041362 187.555746 
L 358.476264 187.381519 
L 359.563519 187.078276 
L 359.998422 186.781523 
L 361.085677 186.583525 
L 361.52058 186.417628 
L 361.955482 186.129588 
L 362.607835 186.068251 
L 364.347444 186.550584 
L 365.4347 186.369608 
L 365.652151 186.157551 
L 365.869602 186.120456 
L 366.521956 186.337003 
L 366.956858 186.197249 
L 367.39176 186.387641 
L 367.826663 186.640812 
L 368.261565 186.65211 
L 368.479016 186.572764 
L 369.566272 187.044849 
L 370.218625 187.185605 
L 371.305881 187.499263 
L 374.132746 187.263676 
L 375.00255 187.670535 
L 375.437452 187.737073 
L 376.307257 188.12977 
L 376.742159 188.22571 
L 377.177061 188.431049 
L 377.611964 188.471482 
L 377.829415 188.391194 
L 378.699219 188.728258 
L 379.351573 189.012422 
L 379.786475 189.216369 
L 380.003926 189.17061 
L 381.091182 189.511162 
L 383.265693 189.577621 
L 383.700596 189.51263 
L 385.440205 189.542934 
L 386.092558 189.544812 
L 386.52746 189.530622 
L 387.397265 189.37115 
L 388.049618 189.203201 
L 388.919423 189.304391 
L 389.354325 189.60174 
L 389.789227 189.563859 
L 390.22413 189.7188 
L 390.659032 189.750434 
L 390.876483 189.686055 
L 391.746288 189.996247 
L 392.616092 190.344204 
L 393.268445 190.722476 
L 393.920799 191.010869 
L 395.225506 191.665236 
L 396.09531 191.745091 
L 396.747664 191.949512 
L 398.05237 192.14512 
L 398.487273 192.405954 
L 398.487273 192.405954 
" style="fill:none;stroke:#000000;stroke-linecap:square;stroke-width:1.5;"/>
   </g>
   <g id="line2d_16">
    <path clip-path="url(#p9f52918653)" d="M 73.832727 208.766169 
L 74.919983 208.587307 
L 75.354885 208.652273 
L 76.877043 208.457625 
L 77.529397 208.418609 
L 77.964299 208.40622 
L 78.18175 208.512376 
L 78.399201 208.414549 
L 78.834103 208.505555 
L 79.051555 208.633646 
L 80.13881 213.648989 
L 83.83548 225.246519 
L 84.270382 226.36885 
L 84.922735 228.063916 
L 88.184502 235.786716 
L 90.359014 240.016444 
L 90.793916 240.672212 
L 91.446269 241.557228 
L 93.403329 245.23679 
L 93.620781 245.33312 
L 94.055683 245.895482 
L 95.36039 247.753835 
L 96.230194 248.651333 
L 96.447645 248.769208 
L 97.752352 250.554979 
L 99.27451 251.698496 
L 99.709412 251.882231 
L 100.144315 252.287557 
L 100.579217 252.784325 
L 100.796668 252.734657 
L 101.014119 252.805727 
L 101.449021 253.404712 
L 101.883924 254.045533 
L 102.971179 254.555171 
L 103.406082 254.991015 
L 104.275886 256.257507 
L 105.798044 257.054905 
L 106.232946 257.077173 
L 107.102751 257.577248 
L 107.755104 258.219279 
L 108.190007 258.21112 
L 109.494714 259.060921 
L 110.364518 258.39334 
L 110.79942 258.677205 
L 112.104127 259.890211 
L 112.756481 259.933914 
L 113.191383 259.816265 
L 114.061187 260.657864 
L 114.278638 260.799002 
L 115.365894 260.027668 
L 116.018248 260.390676 
L 116.45315 260.322075 
L 117.105503 260.025725 
L 117.322954 260.007194 
L 117.757857 260.197469 
L 117.975308 260.21626 
L 118.192759 259.854094 
L 118.41021 259.257883 
L 118.627661 259.039743 
L 119.497466 258.871116 
L 119.932368 259.181692 
L 120.36727 258.858192 
L 121.889428 259.79037 
L 123.194135 260.884728 
L 123.846488 261.162342 
L 124.281391 261.276249 
L 124.498842 261.451706 
L 124.933744 261.442965 
L 126.238451 262.041989 
L 127.108255 262.343439 
L 127.325707 262.439401 
L 128.195511 262.332111 
L 128.630413 262.43063 
L 129.282767 262.394128 
L 130.152571 262.619106 
L 130.587474 262.648648 
L 132.109632 263.174778 
L 133.849241 262.959513 
L 134.936496 263.172206 
L 135.371399 263.309223 
L 136.241203 263.453531 
L 138.198263 263.049909 
L 138.633166 263.108544 
L 139.068068 263.194369 
L 142.329835 263.62357 
L 142.764737 263.833006 
L 143.19964 263.774456 
L 143.634542 263.765428 
L 144.069444 263.849768 
L 144.286895 263.855742 
L 144.721797 264.115401 
L 145.1567 264.119102 
L 147.11376 264.922916 
L 147.331211 264.968808 
L 147.766113 265.200741 
L 147.983565 265.133599 
L 149.505722 265.383778 
L 150.810429 265.210739 
L 152.332587 264.746985 
L 152.767489 264.76506 
L 153.202392 264.800571 
L 153.637294 264.897887 
L 154.72455 264.607862 
L 155.159452 264.684854 
L 155.811805 264.429559 
L 156.68161 263.942105 
L 157.768866 263.911848 
L 158.203768 263.714006 
L 158.421219 263.686053 
L 159.073572 263.184059 
L 159.508475 263.078351 
L 159.725926 262.885666 
L 161.465535 262.644239 
L 162.987693 262.291036 
L 163.205144 262.145688 
L 163.640046 262.193452 
L 163.857497 262.111179 
L 164.727302 262.319265 
L 167.119264 261.606127 
L 168.20652 261.666927 
L 168.641422 261.711059 
L 169.076325 261.57898 
L 169.511227 261.609485 
L 170.16358 261.298299 
L 171.033385 261.391988 
L 172.555543 261.560652 
L 172.990445 261.794454 
L 174.077701 261.810849 
L 174.512603 261.905937 
L 174.947505 261.923344 
L 175.382408 262.110806 
L 176.469663 262.280594 
L 176.904566 262.321025 
L 177.556919 262.424691 
L 177.991821 262.438257 
L 178.644175 262.040019 
L 179.296528 261.666489 
L 179.73143 261.145681 
L 180.166333 260.204999 
L 180.383784 260.140662 
L 181.036137 259.227419 
L 181.905942 259.024968 
L 182.558295 258.35364 
L 183.210648 258.027705 
L 183.4281 257.773513 
L 184.080453 257.545493 
L 184.515355 257.257343 
L 185.167709 257.439516 
L 186.254964 258.216695 
L 186.907318 258.460907 
L 187.34222 258.262844 
L 187.994573 258.307915 
L 188.864378 257.611979 
L 189.29928 257.565811 
L 189.734183 257.734142 
L 191.25634 257.838145 
L 192.126145 258.075534 
L 192.778498 257.634655 
L 193.213401 257.791014 
L 193.648303 258.006726 
L 194.083205 257.935364 
L 194.518108 257.967394 
L 194.95301 257.932779 
L 195.387912 258.139936 
L 197.127521 257.934322 
L 197.779875 257.870404 
L 198.214777 258.027796 
L 198.432228 258.12138 
L 199.084581 258.012415 
L 199.954386 258.588911 
L 200.389288 258.790056 
L 200.82419 259.07048 
L 201.041642 259.110129 
L 201.693995 258.966917 
L 202.128897 259.126914 
L 202.5638 259.101955 
L 202.998702 259.21491 
L 203.433604 259.235998 
L 204.738311 259.432529 
L 205.825567 259.208808 
L 206.912822 259.089197 
L 208.217529 258.731358 
L 208.869882 258.686502 
L 209.522236 258.869713 
L 210.174589 258.962648 
L 210.609492 258.863208 
L 211.044394 259.000425 
L 211.696747 258.782024 
L 212.349101 258.411015 
L 212.784003 258.416743 
L 213.001454 258.475487 
L 213.653807 258.277208 
L 213.871259 258.337788 
L 214.958514 258.162639 
L 215.393417 258.172467 
L 216.263221 257.910132 
L 216.698123 258.010055 
L 217.350477 257.896026 
L 218.220281 258.020688 
L 219.090086 258.297764 
L 219.307537 258.243683 
L 219.742439 258.007468 
L 220.177342 258.234337 
L 222.134402 258.323056 
L 222.569304 258.339153 
L 223.004206 258.115765 
L 225.178718 258.415558 
L 225.61362 258.361051 
L 226.048522 258.399979 
L 226.265973 258.383452 
L 226.700876 258.742299 
L 228.005582 259.011337 
L 228.657936 259.004639 
L 229.092838 259.132974 
L 229.52774 259.296776 
L 230.180094 259.587355 
L 230.614996 259.577295 
L 231.049898 259.784945 
L 231.484801 259.790294 
L 232.572056 260.229338 
L 233.006959 260.24213 
L 233.659312 260.345014 
L 235.833823 260.151046 
L 236.268726 260.255337 
L 236.921079 260.658941 
L 238.008335 260.70168 
L 238.660688 260.78729 
L 239.313041 260.497764 
L 239.965395 260.325831 
L 240.835199 260.385086 
L 241.705004 260.219835 
L 242.139906 260.268953 
L 242.574809 260.28945 
L 243.227162 260.276909 
L 243.662064 260.211138 
L 244.096966 260.359255 
L 244.74932 260.630135 
L 245.619124 260.145018 
L 246.488929 259.354295 
L 246.70638 259.235171 
L 247.358733 259.23891 
L 247.576185 259.130515 
L 248.445989 259.179559 
L 248.66344 259.110837 
L 249.098343 259.214696 
L 250.185598 259.166719 
L 251.055403 258.814626 
L 251.490305 259.050911 
L 251.925207 259.004984 
L 253.012463 259.106722 
L 253.229914 258.918599 
L 254.099719 259.102615 
L 254.534621 258.878389 
L 255.186974 259.295226 
L 256.491681 259.586029 
L 256.926583 259.61168 
L 257.361486 259.811821 
L 258.23129 259.905775 
L 258.666193 260.18643 
L 260.18835 260.201033 
L 260.623253 260.201903 
L 261.493057 260.4067 
L 261.92796 260.438378 
L 262.362862 260.609439 
L 262.797764 260.655894 
L 263.232666 260.674507 
L 263.667569 260.870293 
L 265.189727 260.857039 
L 265.407178 260.721321 
L 266.494433 260.767541 
L 267.364238 260.655214 
L 268.234043 260.587472 
L 272.148163 261.308622 
L 272.583065 261.373145 
L 273.017967 261.400248 
L 273.670321 261.37704 
L 275.40993 261.001056 
L 275.844832 261.0964 
L 276.279735 260.995265 
L 276.714637 261.134303 
L 277.149539 261.097109 
L 279.32405 261.703822 
L 280.193855 261.780801 
L 280.846208 261.810031 
L 281.281111 261.818666 
L 281.716013 261.903994 
L 282.803269 261.723993 
L 285.195231 262.296091 
L 285.630133 262.448345 
L 285.847584 262.432492 
L 286.282487 262.624247 
L 286.717389 262.653806 
L 287.369742 262.807878 
L 288.456998 262.540302 
L 288.674449 262.41631 
L 289.109352 262.49753 
L 289.544254 262.381928 
L 290.414058 262.421927 
L 291.718765 261.877789 
L 292.153667 261.755473 
L 292.806021 261.687731 
L 293.675825 261.678575 
L 294.110728 261.752955 
L 294.763081 261.624815 
L 295.632886 261.727041 
L 296.285239 261.847402 
L 296.50269 261.703153 
L 297.372495 257.698101 
L 298.894653 253.197235 
L 300.416811 249.252362 
L 304.548382 240.705478 
L 308.462503 234.513883 
L 311.289367 230.524216 
L 316.290743 224.487594 
L 316.943097 224.073324 
L 318.030353 223.389677 
L 318.465255 222.932159 
L 319.335059 222.349249 
L 319.987413 221.78803 
L 321.074668 220.975297 
L 321.944473 219.994217 
L 323.24918 218.188716 
L 323.684082 217.491239 
L 324.118984 217.002654 
L 325.20624 215.133382 
L 327.380751 213.021976 
L 327.815654 212.711227 
L 329.555263 210.777893 
L 329.990165 210.471891 
L 330.425067 210.326486 
L 330.85997 209.966231 
L 331.729774 208.836759 
L 333.251932 207.350312 
L 334.556639 206.744168 
L 334.991541 206.660755 
L 336.948601 205.747765 
L 337.600955 205.216083 
L 338.253308 204.959448 
L 338.470759 204.942475 
L 338.905662 204.615858 
L 339.992917 204.158758 
L 340.42782 203.829067 
L 340.862722 203.663974 
L 341.515075 203.246897 
L 342.167429 203.23377 
L 343.037233 202.996769 
L 343.472135 202.906476 
L 343.689587 202.717442 
L 344.124489 202.671139 
L 344.559391 202.429401 
L 345.211745 202.338769 
L 345.864098 202.313761 
L 346.516451 202.008839 
L 347.603707 201.875391 
L 347.821158 201.891164 
L 348.690963 201.488272 
L 352.605083 201.096612 
L 353.039985 201.173028 
L 353.90979 200.876779 
L 356.954106 200.204525 
L 357.389008 200.206913 
L 358.693715 199.756073 
L 359.346068 199.626626 
L 359.780971 199.584656 
L 360.215873 199.540508 
L 362.390384 199.120852 
L 362.825286 199.186352 
L 363.042738 199.265428 
L 363.47764 199.292238 
L 364.129993 199.464277 
L 364.564896 199.445551 
L 365.652151 199.439503 
L 366.087054 199.621424 
L 367.826663 199.771079 
L 368.261565 199.644126 
L 368.696467 199.614686 
L 369.131369 199.311529 
L 369.566272 199.289289 
L 372.828039 198.424512 
L 373.262941 198.15905 
L 373.915294 198.010129 
L 374.567648 198.039623 
L 376.524708 197.341168 
L 377.611964 197.366326 
L 378.046866 197.319798 
L 378.264317 197.438248 
L 378.699219 197.373256 
L 379.134122 197.51312 
L 379.786475 197.55675 
L 380.438828 197.565492 
L 380.873731 197.611107 
L 381.308633 197.5816 
L 382.395889 198.019865 
L 384.352949 198.353137 
L 384.5704 198.35243 
L 385.005302 198.144086 
L 385.657656 198.311534 
L 386.310009 198.219046 
L 386.744911 198.09952 
L 387.179814 197.99594 
L 388.267069 198.284458 
L 388.48452 198.163163 
L 388.919423 198.229732 
L 390.006678 198.529182 
L 391.528836 198.422038 
L 391.963739 198.35643 
L 393.485897 198.323171 
L 394.355701 198.079746 
L 394.790603 197.925793 
L 395.225506 197.900805 
L 395.442957 197.928759 
L 395.877859 197.718012 
L 396.965115 197.528038 
L 397.834919 197.313361 
L 398.487273 197.119842 
L 398.487273 197.119842 
" style="fill:none;stroke:#000000;stroke-linecap:square;stroke-width:1.5;"/>
   </g>
   <g id="line2d_17">
    <path clip-path="url(#p9f52918653)" d="M 73.832727 202.564827 
L 74.919983 202.696224 
L 75.572336 202.762099 
L 76.442141 203.022789 
L 77.529397 202.923716 
L 78.834103 203.305356 
L 79.051555 203.169151 
L 80.13881 198.294308 
L 81.226066 195.181872 
L 83.83548 188.78141 
L 84.487833 187.288283 
L 85.140186 185.671732 
L 89.271758 178.747857 
L 89.70666 178.180316 
L 90.141562 177.2446 
L 90.359014 177.021689 
L 91.228818 175.259869 
L 91.66372 174.540666 
L 93.403329 172.080178 
L 93.620781 171.892094 
L 94.490585 170.314044 
L 95.142939 169.528477 
L 95.795292 169.054061 
L 97.099999 167.709877 
L 97.534901 167.094277 
L 98.187254 166.694863 
L 98.839608 165.880973 
L 99.27451 165.771349 
L 99.709412 165.446977 
L 100.361766 165.161009 
L 100.796668 164.577391 
L 101.23157 164.139284 
L 102.101375 163.112364 
L 102.318826 163.051717 
L 102.536277 163.127646 
L 103.406082 162.655005 
L 104.710789 161.778037 
L 104.92824 161.58657 
L 105.145691 161.610195 
L 105.798044 162.383564 
L 106.232946 162.569198 
L 106.450398 162.547787 
L 106.8853 161.915756 
L 107.537653 161.642692 
L 108.407458 161.328826 
L 108.84236 160.722554 
L 109.277262 160.041247 
L 110.147067 158.697267 
L 110.364518 158.520339 
L 110.581969 157.827117 
L 110.79942 157.626652 
L 111.016871 157.109296 
L 111.451774 156.614262 
L 111.669225 155.683953 
L 111.886676 155.568561 
L 112.104127 154.231474 
L 112.321578 154.12973 
L 112.756481 152.279685 
L 112.973932 152.383533 
L 113.191383 150.339571 
L 113.408834 151.355644 
L 113.626285 148.102528 
L 113.843736 149.584943 
L 114.061187 146.075164 
L 114.278638 144.705504 
L 114.49609 141.899831 
L 114.713541 81.857948 
L 114.930992 60.779522 
L 115.365894 149.428953 
L 115.800796 172.230838 
L 116.018248 173.266789 
L 116.235699 176.350035 
L 116.45315 174.94895 
L 116.670601 175.615692 
L 116.888052 174.774468 
L 117.105503 174.448195 
L 117.322954 174.520125 
L 117.540406 173.39687 
L 117.757857 173.632331 
L 117.975308 172.757758 
L 118.41021 172.104406 
L 119.062563 170.721159 
L 119.280015 170.489293 
L 119.714917 169.709774 
L 119.932368 169.467947 
L 120.36727 168.755005 
L 122.106879 165.963195 
L 122.541782 165.599437 
L 123.194135 164.461645 
L 123.629037 164.119399 
L 124.06394 163.631553 
L 124.933744 163.340366 
L 125.368646 162.858839 
L 125.586098 162.762748 
L 126.021 162.206957 
L 126.673353 160.998232 
L 127.108255 160.16529 
L 127.543158 159.119193 
L 127.760609 158.92309 
L 128.412962 157.710043 
L 128.630413 157.5516 
L 129.065316 156.707846 
L 129.282767 156.486889 
L 129.500218 155.54648 
L 129.717669 155.685038 
L 129.93512 154.520886 
L 130.152571 153.982384 
L 130.370023 153.07425 
L 130.587474 151.667031 
L 130.804925 151.862113 
L 131.022376 149.474204 
L 131.239827 150.252618 
L 131.457278 147.299558 
L 131.674729 146.513413 
L 131.89218 144.729861 
L 132.109632 140.199165 
L 132.327083 142.586861 
L 132.761985 54.375399 
L 133.196887 144.322126 
L 133.63179 170.556165 
L 133.849241 171.714622 
L 134.066692 175.348829 
L 134.284143 174.841635 
L 134.501594 175.2875 
L 134.719045 175.124606 
L 134.936496 174.328712 
L 135.153948 174.927723 
L 135.371399 173.959016 
L 135.58885 174.042935 
L 136.023752 172.99885 
L 136.241203 172.797169 
L 136.458654 172.161317 
L 136.676105 171.987515 
L 137.111008 171.08796 
L 137.328459 170.771536 
L 138.198263 168.923102 
L 140.372775 164.770105 
L 141.025128 163.085939 
L 141.46003 162.137294 
L 141.894933 161.414366 
L 143.851993 157.996367 
L 145.1567 155.08817 
L 146.461407 152.30623 
L 146.678858 152.07668 
L 146.896309 151.487681 
L 147.331211 151.201519 
L 147.548662 150.656577 
L 147.766113 150.548571 
L 148.853369 148.39789 
L 149.07082 147.250063 
L 149.288271 147.268738 
L 149.505722 145.687679 
L 149.723174 145.63769 
L 150.158076 143.572092 
L 150.375527 143.33439 
L 150.592978 140.415247 
L 150.810429 141.816536 
L 151.02788 136.461667 
L 151.245332 138.674098 
L 151.462783 119.202221 
L 151.680234 62.085559 
L 151.897685 71.667626 
L 152.115136 125.141194 
L 152.550038 164.408985 
L 152.767489 169.360494 
L 153.202392 173.169611 
L 153.419843 172.20067 
L 153.637294 172.856563 
L 153.854745 171.763518 
L 154.072196 172.071584 
L 154.507099 171.00984 
L 154.72455 171.069399 
L 154.942001 170.211597 
L 155.159452 169.841972 
L 155.376903 169.14091 
L 156.246708 168.207618 
L 156.68161 167.430054 
L 157.768866 166.037189 
L 158.203768 165.606155 
L 158.63867 164.566516 
L 159.073572 163.502777 
L 159.943377 162.532853 
L 160.378279 161.701803 
L 160.59573 161.519172 
L 161.248084 160.103667 
L 161.900437 159.039072 
L 162.770242 157.169143 
L 163.422595 155.966659 
L 163.857497 155.030172 
L 164.074949 154.659941 
L 165.162204 151.533812 
L 165.379655 151.323784 
L 165.597106 151.288017 
L 166.24946 151.600313 
L 166.466911 151.505488 
L 167.119264 150.40158 
L 167.336716 149.516213 
L 167.554167 149.304286 
L 168.20652 147.831278 
L 168.423971 147.09051 
L 168.641422 147.223403 
L 168.858874 146.245151 
L 169.293776 145.5015 
L 169.511227 143.934124 
L 169.728678 143.950309 
L 169.946129 142.209554 
L 170.16358 142.811189 
L 170.598483 139.551321 
L 170.815934 138.633176 
L 171.033385 133.653415 
L 171.250836 134.959868 
L 171.685738 53.568 
L 172.338092 153.001244 
L 172.555543 165.053536 
L 172.990445 171.469536 
L 173.207896 171.956174 
L 173.642799 172.048397 
L 173.86025 171.222522 
L 174.077701 171.4381 
L 174.295152 170.387275 
L 174.512603 170.268654 
L 175.164956 169.062837 
L 175.382408 168.338424 
L 175.599859 168.084022 
L 177.556919 163.38199 
L 178.209272 162.30937 
L 179.73143 159.722466 
L 179.948881 159.502611 
L 181.253588 157.222004 
L 182.558295 155.283606 
L 183.210648 154.177407 
L 184.297904 153.006565 
L 184.732806 152.36298 
L 184.950258 152.20322 
L 185.38516 151.693917 
L 185.602611 151.607759 
L 186.037513 151.130921 
L 187.559671 146.883251 
L 187.777122 145.576254 
L 188.429476 143.427196 
L 188.646927 143.940617 
L 188.864378 142.417413 
L 189.081829 142.700714 
L 189.516731 139.145037 
L 189.734183 138.136508 
L 189.951634 132.645606 
L 190.169085 133.010229 
L 190.603987 54.001033 
L 191.25634 150.449096 
L 191.473792 162.345425 
L 191.908694 168.912068 
L 192.561047 169.681739 
L 192.778498 169.138991 
L 192.99595 169.577446 
L 193.213401 168.853184 
L 193.430852 168.889707 
L 194.735559 166.632707 
L 195.822814 164.725727 
L 196.040265 164.497944 
L 196.692619 163.259663 
L 197.562423 161.763769 
L 198.86713 159.849764 
L 199.302033 159.260987 
L 199.954386 158.201223 
L 201.041642 155.897818 
L 201.476544 155.237055 
L 201.911446 154.071585 
L 202.346348 153.213958 
L 202.5638 152.987328 
L 203.651055 150.165039 
L 203.868506 149.689668 
L 204.085957 149.59238 
L 204.738311 148.428236 
L 204.955762 147.695817 
L 205.173213 147.964261 
L 205.390664 147.003689 
L 205.825567 146.247836 
L 206.043018 145.344363 
L 206.260469 145.268559 
L 206.47792 143.256793 
L 206.695371 143.180234 
L 206.912822 140.627368 
L 207.130273 140.514921 
L 207.347725 138.246531 
L 207.782627 131.981718 
L 208.217529 55.138351 
L 208.652431 136.978035 
L 209.087334 164.360578 
L 209.739687 170.471575 
L 209.957138 171.422776 
L 210.174589 171.478616 
L 210.39204 171.217114 
L 210.609492 171.452996 
L 210.826943 170.555977 
L 211.044394 170.499651 
L 211.479296 169.569339 
L 212.13165 168.385848 
L 213.001454 166.124957 
L 213.436356 165.076778 
L 214.08871 163.815013 
L 215.393417 160.563557 
L 215.610868 160.239669 
L 216.698123 157.451481 
L 217.133026 155.92637 
L 218.437732 153.619691 
L 218.655184 153.360905 
L 219.742439 150.744066 
L 220.394793 148.537321 
L 220.612244 148.295308 
L 221.047146 146.274271 
L 221.264597 146.383028 
L 221.482048 145.113927 
L 221.699499 145.217838 
L 221.916951 143.633216 
L 222.134402 143.538855 
L 222.351853 142.39384 
L 222.569304 140.579973 
L 222.786755 140.143265 
L 223.004206 133.951178 
L 223.221657 134.753212 
L 223.65656 54.453862 
L 223.874011 82.341105 
L 224.091462 129.614969 
L 224.526364 163.463118 
L 224.961267 170.239824 
L 225.178718 171.460154 
L 225.396169 171.540579 
L 225.61362 171.885886 
L 225.831071 170.925088 
L 226.048522 171.012818 
L 226.265973 169.956904 
L 226.700876 169.352682 
L 226.918327 168.618366 
L 227.135778 168.336305 
L 227.788131 166.485681 
L 230.832447 161.167635 
L 231.484801 159.589006 
L 231.919703 158.72576 
L 232.572056 157.588832 
L 233.876763 154.622584 
L 234.094214 154.54008 
L 234.311665 154.62573 
L 234.529116 154.472238 
L 234.964019 153.238929 
L 235.616372 150.387148 
L 236.268726 148.185242 
L 236.486177 147.951466 
L 236.703628 147.228785 
L 236.921079 147.091885 
L 237.573432 145.563213 
L 237.790884 144.208287 
L 238.008335 144.216799 
L 238.225786 142.811478 
L 238.443237 142.661638 
L 238.660688 141.93133 
L 238.878139 139.782041 
L 239.09559 139.406404 
L 239.313041 133.894037 
L 239.530493 134.669454 
L 239.747944 104.057587 
L 239.965395 55.886555 
L 240.182846 78.949146 
L 240.400297 126.457035 
L 240.835199 161.844719 
L 241.270102 170.323063 
L 241.487553 171.6696 
L 241.705004 171.287109 
L 241.922455 171.417547 
L 242.139906 170.444605 
L 242.357357 170.7376 
L 242.574809 170.05797 
L 243.009711 169.284685 
L 243.662064 167.062438 
L 244.096966 166.143756 
L 245.401673 163.132831 
L 245.836576 162.024062 
L 247.141282 158.175287 
L 248.66344 154.361571 
L 249.098343 153.998594 
L 250.620501 150.86256 
L 251.272854 149.4151 
L 251.490305 149.291322 
L 251.707756 148.803162 
L 251.925207 148.627155 
L 252.795012 146.828033 
L 253.012463 146.369624 
L 253.664816 143.662146 
L 254.099719 142.235259 
L 254.31717 140.422788 
L 254.534621 140.467362 
L 254.752072 137.34134 
L 254.969523 136.985804 
L 255.404426 130.45336 
L 255.621877 123.725643 
L 255.839328 77.471377 
L 256.056779 58.031669 
L 256.491681 134.818673 
L 256.926583 161.211069 
L 257.361486 167.961505 
L 257.578937 168.152677 
L 257.796388 169.013085 
L 258.448741 168.432366 
L 258.666193 167.715384 
L 258.883644 167.630311 
L 259.318546 166.584967 
L 260.405802 164.168171 
L 263.232666 158.567945 
L 263.450118 158.412789 
L 264.754824 156.176937 
L 265.189727 155.008955 
L 266.059531 153.644441 
L 267.79914 149.550118 
L 268.234043 148.644249 
L 268.451494 147.542861 
L 268.668945 147.180408 
L 269.103847 145.542883 
L 269.321298 145.132699 
L 269.538749 144.10447 
L 269.7562 143.872854 
L 269.973652 141.847247 
L 270.191103 141.487996 
L 270.408554 139.091371 
L 270.843456 137.288153 
L 271.060907 132.68494 
L 271.278358 131.895558 
L 271.713261 55.045628 
L 272.365614 149.117123 
L 272.583065 160.600722 
L 273.017967 167.764134 
L 273.45287 169.246261 
L 273.670321 169.43185 
L 273.887772 168.827984 
L 274.105223 169.271389 
L 274.322674 168.641651 
L 274.540125 168.495632 
L 276.932088 162.8021 
L 277.149539 162.555434 
L 277.584441 161.621799 
L 277.801892 161.359962 
L 278.454246 159.947675 
L 278.889148 159.26494 
L 279.758953 157.257448 
L 280.193855 156.75106 
L 281.06366 154.933833 
L 281.716013 153.369706 
L 283.238171 149.821706 
L 283.673073 148.337047 
L 283.890524 147.923611 
L 284.107975 147.234049 
L 284.325427 147.249457 
L 284.542878 146.26375 
L 284.760329 146.024035 
L 285.412682 143.865072 
L 285.630133 142.04746 
L 285.847584 142.34689 
L 286.065036 139.639596 
L 286.282487 139.751818 
L 286.717389 133.514113 
L 286.93484 127.01613 
L 287.152291 79.120294 
L 287.369742 57.453192 
L 287.804645 135.697107 
L 288.239547 162.563956 
L 288.674449 168.07901 
L 288.8919 168.19561 
L 289.109352 168.756123 
L 289.761705 167.735238 
L 289.979156 166.698594 
L 290.196607 166.381599 
L 290.631509 164.697901 
L 291.501314 162.60317 
L 291.936216 162.083449 
L 292.371119 161.870311 
L 293.240923 160.573927 
L 294.763081 157.944086 
L 296.067788 155.545398 
L 296.50269 155.116256 
L 297.589946 158.916409 
L 298.894653 161.418009 
L 299.329555 161.73473 
L 299.981908 162.29507 
L 300.634262 162.649974 
L 301.069164 163.084542 
L 301.286615 163.224149 
L 301.938969 164.165988 
L 302.15642 164.281285 
L 302.373871 164.24573 
L 303.026224 164.610877 
L 303.461126 165.069702 
L 303.678578 165.071876 
L 305.853089 166.23653 
L 306.722894 166.554991 
L 307.157796 166.629393 
L 307.375247 166.405102 
L 307.592698 166.441882 
L 308.245051 167.192005 
L 309.114856 168.148765 
L 309.767209 168.73572 
L 310.202112 169.011577 
L 310.637014 169.350015 
L 312.376623 170.285055 
L 313.028976 170.73647 
L 313.68133 170.957439 
L 314.116232 171.303387 
L 314.551134 171.349922 
L 315.63839 172.169842 
L 316.073292 172.240981 
L 316.290743 172.361929 
L 316.725646 172.785045 
L 317.377999 173.153468 
L 317.812901 173.535446 
L 318.465255 174.007078 
L 318.900157 174.184763 
L 319.335059 174.458231 
L 320.422315 174.806326 
L 320.857217 175.21313 
L 321.074668 175.309566 
L 321.509571 175.785407 
L 321.944473 175.85613 
L 322.161924 176.038469 
L 322.814278 176.241838 
L 323.901533 176.737816 
L 324.336435 176.975037 
L 324.771338 177.000857 
L 325.20624 177.364995 
L 325.641142 177.977344 
L 326.076045 178.736238 
L 327.1633 180.039768 
L 328.902909 181.05419 
L 329.772714 181.011763 
L 330.207616 180.949075 
L 330.425067 180.859364 
L 331.294872 181.219351 
L 331.729774 181.452821 
L 333.904285 181.836805 
L 334.339188 182.109688 
L 334.991541 182.604309 
L 336.513699 183.363044 
L 337.600955 183.800043 
L 338.035857 184.148284 
L 339.558015 184.915204 
L 340.42782 185.453906 
L 341.515075 186.067 
L 342.602331 186.89478 
L 343.472135 187.381477 
L 343.907038 187.549173 
L 344.776842 187.895213 
L 348.25606 188.987731 
L 348.690963 189.031252 
L 349.125865 189.284415 
L 351.95273 189.620577 
L 352.170181 189.598661 
L 353.692339 190.357978 
L 354.344692 190.503919 
L 354.779594 190.625822 
L 356.084301 191.10929 
L 357.389008 191.465796 
L 357.606459 191.563067 
L 358.258813 191.535709 
L 358.693715 191.721927 
L 359.128617 191.956146 
L 359.563519 192.044833 
L 359.998422 192.311468 
L 361.52058 192.876418 
L 361.955482 192.933848 
L 363.042738 193.464269 
L 363.695091 193.894921 
L 365.869602 193.970853 
L 367.609211 194.344921 
L 368.044114 194.499004 
L 369.348821 194.694925 
L 369.783723 194.973706 
L 370.653527 195.118882 
L 372.828039 196.238064 
L 373.697843 196.402031 
L 373.915294 196.375297 
L 374.567648 196.629376 
L 375.220001 196.866045 
L 375.654903 197.094211 
L 376.089806 197.071033 
L 376.307257 196.988651 
L 376.742159 197.208063 
L 377.394513 197.13713 
L 380.221377 197.397018 
L 381.526084 197.860921 
L 381.743535 198.019421 
L 382.178438 198.115265 
L 383.048242 198.437172 
L 384.135498 198.684208 
L 384.787851 198.946992 
L 385.440205 199.689276 
L 386.092558 199.894578 
L 387.397265 200.266552 
L 389.571776 200.992602 
L 390.441581 201.16206 
L 390.876483 200.948512 
L 392.18119 201.550163 
L 392.616092 201.930982 
L 393.050994 202.055688 
L 393.920799 202.412335 
L 394.573152 202.59739 
L 395.225506 202.779655 
L 396.530213 202.735268 
L 397.834919 203.103726 
L 398.487273 203.156006 
L 398.487273 203.156006 
" style="fill:none;stroke:#000000;stroke-linecap:square;stroke-width:1.5;"/>
   </g>
   <g id="line2d_18">
    <path clip-path="url(#p9f52918653)" d="M 73.832727 214.281986 
L 74.485081 214.380137 
L 75.354885 214.200163 
L 75.789787 214.192611 
L 77.529397 213.113207 
L 77.964299 213.037034 
L 78.399201 212.685787 
L 78.616652 212.191065 
L 78.834103 212.45764 
L 79.051555 211.375641 
L 80.356261 183.282112 
L 80.791164 175.908965 
L 81.226066 168.800815 
L 81.443517 167.015671 
L 81.660968 161.871934 
L 81.878419 161.608305 
L 82.09587 154.762371 
L 82.313322 155.815377 
L 82.530773 138.890775 
L 82.748224 72.90856 
L 82.965675 66.519194 
L 83.183126 115.418975 
L 83.618028 151.96092 
L 83.83548 156.290759 
L 84.270382 157.58364 
L 86.662344 131.747989 
L 86.879795 127.632112 
L 87.097247 121.072382 
L 87.532149 58.210177 
L 87.7496 75.329116 
L 88.184502 124.574124 
L 88.401953 136.96299 
L 88.836856 145.454017 
L 89.054307 145.894159 
L 89.271758 145.640188 
L 89.489209 144.825419 
L 90.359014 139.020569 
L 91.011367 132.58049 
L 91.66372 122.836966 
L 92.098623 113.950957 
L 92.316074 104.271305 
L 92.750976 66.831988 
L 92.968427 72.391124 
L 93.620781 121.023235 
L 94.055683 133.474421 
L 94.490585 137.32626 
L 94.708036 137.949393 
L 94.925487 137.790985 
L 95.36039 136.306546 
L 95.795292 132.958312 
L 96.447645 126.642314 
L 97.31745 113.818634 
L 97.752352 100.403667 
L 98.187254 81.437896 
L 98.404706 79.521972 
L 98.622157 83.731956 
L 99.709412 120.566788 
L 100.144315 126.969198 
L 100.579217 129.948767 
L 101.014119 130.645426 
L 101.23157 130.328866 
L 101.449021 129.799181 
L 102.101375 126.356991 
L 102.971179 121.263035 
L 103.840984 111.548366 
L 105.145691 93.857576 
L 105.363142 94.122411 
L 105.580593 96.087147 
L 106.8853 117.260067 
L 107.320202 120.841164 
L 107.537653 121.899167 
L 107.755104 122.242974 
L 107.972556 122.273229 
L 108.190007 122.140499 
L 108.624909 121.245625 
L 109.059811 119.331775 
L 110.581969 111.791859 
L 111.016871 110.148249 
L 111.886676 105.708884 
L 112.104127 105.113076 
L 112.539029 104.593859 
L 112.756481 104.820744 
L 113.408834 107.223255 
L 114.061187 109.097752 
L 114.713541 110.172063 
L 115.365894 111.778448 
L 115.800796 112.340347 
L 116.235699 112.467793 
L 117.105503 111.70524 
L 117.322954 111.176676 
L 117.540406 110.964206 
L 117.975308 111.509467 
L 119.062563 113.836506 
L 119.497466 114.450574 
L 120.149819 114.485088 
L 120.584721 113.926637 
L 120.802173 113.811148 
L 121.019624 113.287904 
L 121.889428 109.891915 
L 122.324331 109.193236 
L 122.541782 109.030941 
L 123.194135 109.439759 
L 124.281391 111.765568 
L 124.498842 111.718292 
L 124.933744 112.139831 
L 125.151195 112.127225 
L 125.368646 112.269377 
L 125.803549 112.837087 
L 126.021 112.676944 
L 126.455902 111.666147 
L 127.543158 110.504526 
L 128.195511 110.041028 
L 128.412962 110.103953 
L 128.847865 110.881045 
L 129.065316 110.854199 
L 129.717669 111.178642 
L 130.804925 113.485131 
L 131.457278 113.107605 
L 132.109632 112.503099 
L 132.761985 110.765141 
L 133.196887 110.339782 
L 133.63179 109.682879 
L 133.849241 109.68555 
L 134.066692 109.817651 
L 134.501594 110.834386 
L 134.719045 110.651801 
L 134.936496 110.283176 
L 135.153948 110.246443 
L 135.58885 110.055552 
L 136.023752 110.604526 
L 136.241203 110.742894 
L 136.458654 110.696621 
L 136.676105 110.428694 
L 136.893557 110.430964 
L 137.328459 111.177665 
L 137.763361 112.415962 
L 137.980812 113.103896 
L 138.198263 113.261994 
L 139.068068 112.626492 
L 139.285519 112.290204 
L 139.720421 111.166579 
L 139.937872 110.869681 
L 140.590226 109.571316 
L 141.46003 108.590077 
L 141.677482 108.28985 
L 141.894933 108.189901 
L 142.112384 108.391284 
L 142.329835 108.920805 
L 142.547286 109.758071 
L 143.19964 111.095703 
L 144.069444 113.007239 
L 144.286895 113.157456 
L 144.504346 112.924763 
L 145.809053 109.376577 
L 146.026504 109.205724 
L 146.896309 107.204622 
L 147.331211 106.30839 
L 147.548662 106.086525 
L 147.766113 106.065755 
L 147.983565 106.327694 
L 148.635918 108.631073 
L 148.853369 109.11377 
L 150.375527 114.955734 
L 150.810429 116.248628 
L 151.02788 116.395569 
L 151.462783 116.192865 
L 152.115136 115.121792 
L 152.984941 113.543364 
L 153.202392 113.39924 
L 153.637294 112.672469 
L 154.289647 110.487065 
L 154.507099 109.328938 
L 155.159452 108.109571 
L 155.376903 107.907234 
L 155.811805 107.124968 
L 156.464159 106.636559 
L 156.68161 106.920131 
L 157.116512 108.292844 
L 157.551414 111.007051 
L 157.986317 113.849789 
L 158.63867 115.254387 
L 159.073572 115.500274 
L 159.508475 114.955784 
L 159.943377 114.02189 
L 160.160828 113.965888 
L 160.59573 114.17808 
L 161.248084 114.610601 
L 161.465535 114.263007 
L 162.117888 112.733953 
L 162.770242 111.553846 
L 163.857497 111.046372 
L 164.074949 111.300621 
L 164.727302 111.501053 
L 164.944753 111.794531 
L 165.162204 112.343078 
L 165.597106 112.628522 
L 166.032009 112.733862 
L 166.24946 112.587972 
L 167.119264 111.440604 
L 167.336716 111.48423 
L 167.554167 111.686142 
L 167.771618 112.062146 
L 167.989069 112.160566 
L 168.20652 112.033046 
L 168.423971 112.129975 
L 168.858874 112.544913 
L 169.076325 112.571539 
L 169.511227 111.975642 
L 169.728678 112.278044 
L 169.946129 112.356746 
L 170.381031 111.596607 
L 170.815934 111.34593 
L 171.685738 110.519686 
L 172.120641 110.517287 
L 172.555543 110.81909 
L 172.990445 110.773689 
L 173.642799 110.92954 
L 174.077701 110.326454 
L 174.730054 111.147551 
L 174.947505 111.749288 
L 175.164956 112.018407 
L 175.382408 112.015382 
L 175.81731 112.417302 
L 176.252212 112.527414 
L 176.687114 112.239677 
L 177.556919 110.70962 
L 177.77437 110.417814 
L 178.209272 111.097658 
L 178.861626 112.031822 
L 179.513979 110.726302 
L 179.73143 110.197536 
L 179.948881 110.158625 
L 180.166333 109.890914 
L 180.383784 109.411917 
L 180.601235 109.544925 
L 180.818686 110.118132 
L 181.036137 110.220781 
L 181.253588 110.180295 
L 181.471039 110.288641 
L 181.688491 110.271662 
L 181.905942 110.564261 
L 182.558295 111.863443 
L 182.993197 112.359499 
L 183.863002 114.946864 
L 184.080453 114.835416 
L 184.515355 115.335488 
L 184.950258 114.852086 
L 185.167709 114.714346 
L 185.38516 114.370837 
L 187.124769 108.719695 
L 187.559671 108.421371 
L 187.777122 108.835113 
L 188.212025 110.618165 
L 188.429476 110.822245 
L 188.864378 111.809411 
L 189.29928 113.325857 
L 189.516731 113.82309 
L 189.951634 115.562862 
L 190.603987 116.125838 
L 191.25634 115.343794 
L 191.473792 115.27769 
L 192.343596 114.328289 
L 193.213401 112.383347 
L 193.648303 110.718683 
L 194.735559 108.934567 
L 194.95301 108.920186 
L 195.387912 109.522694 
L 195.605363 109.841575 
L 196.040265 109.9535 
L 196.91007 109.553667 
L 197.127521 109.601763 
L 197.344972 109.830971 
L 197.779875 110.910456 
L 197.997326 111.075323 
L 198.432228 111.580664 
L 198.649679 111.735541 
L 198.86713 112.161394 
L 199.084581 112.296917 
L 199.519484 111.843527 
L 200.389288 111.764358 
L 200.606739 111.720554 
L 200.82419 111.439066 
L 201.041642 111.48336 
L 201.259093 111.821757 
L 201.693995 111.865454 
L 202.128897 111.426136 
L 202.5638 110.662781 
L 202.998702 109.720511 
L 203.216153 109.234808 
L 203.651055 109.065152 
L 204.085957 109.255743 
L 204.303409 109.286164 
L 204.738311 108.994837 
L 205.390664 109.669332 
L 206.47792 113.040931 
L 206.912822 113.402906 
L 208.000078 113.032017 
L 208.217529 113.316734 
L 209.304785 113.758285 
L 210.174589 113.088715 
L 210.609492 113.196715 
L 211.479296 114.01461 
L 211.696747 114.163881 
L 211.914198 114.466987 
L 212.566552 114.156931 
L 213.436356 112.739134 
L 213.653807 112.828392 
L 213.871259 112.517783 
L 214.08871 112.414593 
L 214.741063 112.66863 
L 214.958514 112.473146 
L 215.393417 112.809136 
L 215.610868 112.658447 
L 215.828319 112.808881 
L 216.04577 112.579773 
L 216.263221 112.186273 
L 216.480672 112.282959 
L 216.698123 112.55144 
L 216.915574 112.589098 
L 217.350477 112.43092 
L 217.785379 111.874396 
L 218.00283 112.001168 
L 218.872635 111.222636 
L 219.742439 109.831477 
L 219.95989 109.472279 
L 220.394793 109.325144 
L 220.612244 109.343744 
L 221.047146 110.165377 
L 221.264597 110.726585 
L 221.916951 113.826642 
L 222.134402 114.267275 
L 222.569304 114.525345 
L 223.874011 113.739642 
L 224.091462 113.369685 
L 224.526364 113.67521 
L 224.743815 113.414688 
L 225.178718 112.455705 
L 225.831071 111.768607 
L 226.048522 111.062927 
L 226.483424 110.792431 
L 226.918327 109.924737 
L 227.135778 110.267619 
L 227.788131 112.102795 
L 228.223034 111.946262 
L 228.657936 111.404244 
L 229.52774 111.434272 
L 229.745191 111.622976 
L 229.962643 111.971157 
L 230.180094 111.703331 
L 230.614996 110.397332 
L 230.832447 110.448948 
L 231.484801 111.795897 
L 231.702252 112.046371 
L 232.354605 111.378691 
L 232.789507 111.451781 
L 233.006959 111.520409 
L 233.441861 110.958264 
L 233.876763 111.665297 
L 234.311665 111.865916 
L 234.529116 111.939345 
L 234.746568 112.230621 
L 235.18147 112.977216 
L 235.616372 113.102938 
L 236.051274 112.755182 
L 236.486177 112.715919 
L 236.921079 112.547059 
L 237.573432 112.912252 
L 237.790884 113.176218 
L 238.443237 112.552205 
L 238.878139 112.083699 
L 239.09559 111.977603 
L 239.747944 111.083396 
L 239.965395 110.532972 
L 240.182846 110.373879 
L 240.400297 110.524071 
L 240.617748 110.399706 
L 241.270102 110.681844 
L 242.357357 112.524103 
L 242.574809 112.577986 
L 242.79226 112.331182 
L 243.444613 112.12361 
L 244.314418 110.996266 
L 244.531869 111.104471 
L 244.74932 111.442539 
L 244.966771 111.562955 
L 245.401673 112.37711 
L 245.836576 112.411857 
L 246.271478 113.227989 
L 246.923831 114.436739 
L 247.358733 114.41918 
L 248.011087 113.914342 
L 248.66344 113.839864 
L 249.533245 112.116664 
L 249.968147 111.560855 
L 250.185598 111.173836 
L 250.620501 110.779641 
L 250.837952 110.444614 
L 251.272854 110.06274 
L 251.925207 108.878205 
L 252.36011 109.045757 
L 252.577561 109.090983 
L 252.795012 109.007119 
L 253.012463 109.368457 
L 253.447365 110.752025 
L 253.882268 111.765226 
L 254.969523 113.323963 
L 255.621877 114.795916 
L 256.056779 115.096014 
L 256.27423 115.234911 
L 256.491681 115.154236 
L 256.709132 115.224031 
L 256.926583 115.10373 
L 257.361486 113.877495 
L 257.796388 112.308016 
L 258.013839 112.174001 
L 258.448741 111.42212 
L 259.101095 110.958265 
L 259.318546 110.745085 
L 259.535997 110.327583 
L 259.753448 110.209738 
L 260.623253 111.44889 
L 260.840704 111.329479 
L 261.275606 111.748598 
L 261.493057 111.856939 
L 263.015215 114.267657 
L 263.667569 113.477328 
L 264.102471 112.802378 
L 264.319922 112.790629 
L 264.537373 112.583846 
L 265.189727 111.323824 
L 265.624629 110.404152 
L 266.929336 108.176535 
L 267.146787 108.134498 
L 267.364238 108.349081 
L 267.581689 108.736933 
L 268.886396 112.676654 
L 269.321298 112.775134 
L 269.538749 112.96167 
L 270.408554 114.377137 
L 270.626005 114.551929 
L 271.278358 115.851252 
L 271.49581 115.774279 
L 272.583065 114.211818 
L 273.45287 112.134103 
L 274.322674 108.229437 
L 274.757577 107.229466 
L 274.975028 107.048513 
L 275.192479 107.044948 
L 275.844832 107.737185 
L 276.062283 107.949284 
L 276.497186 108.957049 
L 277.36699 110.833623 
L 277.801892 111.353919 
L 278.019344 111.375602 
L 278.236795 111.00558 
L 278.454246 111.056687 
L 278.671697 111.383412 
L 279.106599 111.483794 
L 279.758953 111.975861 
L 281.281111 113.540398 
L 281.498562 113.616671 
L 281.716013 113.40324 
L 281.933464 112.997304 
L 282.368366 113.147761 
L 282.803269 112.407469 
L 283.02072 112.400552 
L 283.890524 113.325259 
L 284.325427 112.509011 
L 284.542878 112.252941 
L 284.97778 111.418883 
L 285.412682 111.246117 
L 286.065036 111.960597 
L 286.282487 112.147049 
L 286.499938 112.058214 
L 286.717389 112.183323 
L 286.93484 112.609032 
L 287.152291 112.594649 
L 287.587194 112.17276 
L 287.804645 112.177915 
L 288.239547 112.796844 
L 288.674449 112.530786 
L 288.8919 112.360996 
L 289.326803 111.75683 
L 289.761705 111.278821 
L 289.979156 111.31077 
L 290.631509 110.831928 
L 291.283863 109.407242 
L 291.501314 109.449313 
L 292.58857 112.877272 
L 293.023472 114.038643 
L 293.458374 114.893305 
L 293.893277 115.197276 
L 294.110728 115.433625 
L 294.54563 115.557039 
L 294.763081 115.265535 
L 295.632886 112.226598 
L 295.850337 111.097699 
L 296.285239 110.443901 
L 296.50269 110.606833 
L 297.589946 131.822654 
L 298.242299 139.696991 
L 298.894653 144.616569 
L 299.764457 148.396647 
L 300.199359 149.862847 
L 301.721517 153.588362 
L 302.15642 154.101244 
L 302.591322 154.879857 
L 303.026224 154.978248 
L 304.330931 155.492832 
L 304.765833 155.752383 
L 305.635638 156.890616 
L 307.375247 157.48569 
L 308.462503 157.862732 
L 309.549758 157.742453 
L 309.767209 157.611619 
L 309.984661 157.619018 
L 310.637014 158.020655 
L 311.071916 158.259921 
L 311.506818 158.673737 
L 311.941721 158.537359 
L 312.159172 158.497178 
L 312.594074 158.262066 
L 313.028976 158.22871 
L 313.463879 158.360041 
L 313.898781 158.238219 
L 314.333683 158.31978 
L 314.551134 158.307138 
L 314.768586 158.419883 
L 315.420939 158.335821 
L 315.855841 158.542382 
L 316.508195 158.729545 
L 317.59545 158.4887 
L 318.030353 158.369519 
L 318.465255 158.397472 
L 318.900157 158.10641 
L 319.335059 157.931789 
L 319.769962 157.525476 
L 319.987413 157.415025 
L 320.639766 156.759486 
L 323.24918 155.583219 
L 324.553887 155.491151 
L 324.988789 155.685374 
L 325.858593 155.152183 
L 326.293496 154.66482 
L 326.945849 154.442329 
L 327.598203 153.788374 
L 328.033105 153.8757 
L 328.250556 153.727221 
L 328.685458 153.708525 
L 329.12036 153.531395 
L 329.337812 153.459222 
L 329.772714 153.580575 
L 329.990165 153.477431 
L 330.207616 153.534074 
L 330.425067 153.40275 
L 330.642518 153.086248 
L 331.512323 152.770716 
L 331.729774 152.740513 
L 332.164676 152.826309 
L 332.599579 152.463073 
L 333.034481 152.246264 
L 333.469383 151.997929 
L 334.339188 152.157587 
L 334.991541 152.051689 
L 335.426443 151.913452 
L 335.643895 151.83666 
L 335.861346 151.899795 
L 336.296248 151.483129 
L 336.73115 151.257049 
L 337.600955 150.860926 
L 338.253308 149.972081 
L 338.68821 149.413551 
L 338.905662 149.259985 
L 339.340564 148.778505 
L 339.775466 148.689239 
L 340.210368 148.552382 
L 341.080173 148.418683 
L 341.297624 148.282761 
L 341.732526 148.51409 
L 342.167429 148.374795 
L 342.819782 148.626549 
L 343.254684 148.549991 
L 343.689587 148.783555 
L 343.907038 148.826849 
L 344.34194 149.023407 
L 344.559391 149.049282 
L 345.211745 149.604187 
L 345.429196 149.678299 
L 345.864098 149.407012 
L 346.516451 149.916412 
L 347.386256 150.869576 
L 347.603707 150.83631 
L 347.821158 150.431859 
L 348.038609 150.302673 
L 348.25606 150.473588 
L 348.690963 151.054261 
L 349.343316 151.071808 
L 350.648023 150.915821 
L 351.517827 150.967161 
L 351.95273 151.105567 
L 352.387632 150.868321 
L 353.039985 150.591295 
L 353.692339 150.131431 
L 354.127241 149.599171 
L 354.779594 149.518103 
L 355.214497 148.824221 
L 355.86685 148.623872 
L 356.301752 148.828614 
L 356.954106 148.978329 
L 357.389008 149.120763 
L 357.82391 149.070977 
L 358.041362 148.888936 
L 358.476264 148.887069 
L 358.693715 148.695656 
L 358.911166 148.35371 
L 359.128617 148.230303 
L 359.563519 148.303743 
L 360.433324 147.92475 
L 361.955482 147.172762 
L 362.390384 146.653955 
L 362.825286 146.311681 
L 363.912542 145.07832 
L 364.564896 145.388566 
L 364.782347 145.563598 
L 365.4347 145.372929 
L 365.869602 145.112898 
L 366.304505 144.843572 
L 366.956858 144.176733 
L 368.261565 143.462214 
L 368.696467 142.802055 
L 369.566272 142.544211 
L 370.218625 142.827368 
L 370.653527 143.33035 
L 372.393136 142.749785 
L 372.610588 142.954862 
L 373.04549 142.965069 
L 373.480392 142.751266 
L 374.132746 142.832897 
L 375.00255 143.509428 
L 376.307257 145.036769 
L 376.524708 144.952888 
L 376.95961 145.170589 
L 377.829415 144.765039 
L 378.481768 144.782016 
L 378.699219 144.820243 
L 379.351573 145.459169 
L 379.786475 145.336406 
L 380.003926 145.501759 
L 380.873731 145.564123 
L 381.526084 145.988668 
L 381.960986 146.058353 
L 382.61334 146.364649 
L 383.048242 146.46824 
L 383.265693 146.33692 
L 383.700596 146.517773 
L 384.135498 145.793896 
L 385.005302 145.370226 
L 385.440205 145.498038 
L 386.52746 146.258196 
L 386.962363 146.122397 
L 387.397265 146.179435 
L 387.832167 146.168736 
L 389.136874 146.947713 
L 389.354325 147.107552 
L 390.441581 146.841892 
L 391.093934 147.024296 
L 391.746288 146.518228 
L 391.963739 146.597302 
L 392.398641 146.31827 
L 392.833543 146.264019 
L 393.050994 146.422945 
L 393.485897 146.294982 
L 393.920799 146.791627 
L 394.790603 146.732929 
L 395.660408 147.239235 
L 395.877859 147.108737 
L 396.312761 147.085525 
L 396.530213 146.953881 
L 396.747664 147.202435 
L 396.965115 147.137247 
L 397.182566 146.765243 
L 397.617468 146.632812 
L 398.487273 145.489084 
L 398.487273 145.489084 
" style="fill:none;stroke:#000000;stroke-linecap:square;stroke-width:1.5;"/>
   </g>
   <g id="patch_3">
    <path d="M 57.6 307.584 
L 57.6 41.472 
" style="fill:none;stroke:#000000;stroke-linecap:square;stroke-linejoin:miter;stroke-width:0.8;"/>
   </g>
   <g id="patch_4">
    <path d="M 414.72 307.584 
L 414.72 41.472 
" style="fill:none;stroke:#000000;stroke-linecap:square;stroke-linejoin:miter;stroke-width:0.8;"/>
   </g>
   <g id="patch_5">
    <path d="M 57.6 307.584 
L 414.72 307.584 
" style="fill:none;stroke:#000000;stroke-linecap:square;stroke-linejoin:miter;stroke-width:0.8;"/>
   </g>
   <g id="patch_6">
    <path d="M 57.6 41.472 
L 414.72 41.472 
" style="fill:none;stroke:#000000;stroke-linecap:square;stroke-linejoin:miter;stroke-width:0.8;"/>
   </g>
  </g>
 </g>
 <defs>
  <clipPath id="p9f52918653">
   <rect height="266.112" width="357.12" x="57.6" y="41.472"/>
  </clipPath>
 </defs>
</svg>
