<?xml version="1.0" encoding="utf-8" standalone="no"?>
<!DOCTYPE svg PUBLIC "-//W3C//DTD SVG 1.1//EN"
  "http://www.w3.org/Graphics/SVG/1.1/DTD/svg11.dtd">
<svg xmlns:xlink="http://www.w3.org/1999/xlink" width="460.8pt" height="345.6pt" viewBox="0 0 460.8 345.6" xmlns="http://www.w3.org/2000/svg" version="1.1">
 <metadata>
  <rdf:RDF xmlns:dc="http://purl.org/dc/elements/1.1/" xmlns:cc="http://creativecommons.org/ns#" xmlns:rdf="http://www.w3.org/1999/02/22-rdf-syntax-ns#">
   <cc:Work>
    <dc:type rdf:resource="http://purl.org/dc/dcmitype/StillImage"/>
    <dc:date>2024-02-29T19:31:38.236780</dc:date>
    <dc:format>image/svg+xml</dc:format>
    <dc:creator>
     <cc:Agent>
      <dc:title>Matplotlib v3.6.2, https://matplotlib.org/</dc:title>
     </cc:Agent>
    </dc:creator>
   </cc:Work>
  </rdf:RDF>
 </metadata>
 <defs>
  <style type="text/css">*{stroke-linejoin: round; stroke-linecap: butt}</style>
 </defs>
 <g id="figure_1">
  <g id="patch_1">
   <path d="M 0 345.6 
L 460.8 345.6 
L 460.8 0 
L 0 0 
z
" style="fill: #ffffff"/>
  </g>
  <g id="axes_1">
   <g id="patch_2">
    <path d="M 57.6 307.584 
L 414.72 307.584 
L 414.72 41.472 
L 57.6 41.472 
z
" style="fill: #ffffff"/>
   </g>
   <g id="matplotlib.axis_1">
    <g id="xtick_1">
     <g id="line2d_1">
      <defs>
       <path id="m3323801eb6" d="M 0 0 
L 0 3.5 
" style="stroke: #000000; stroke-width: 0.8"/>
      </defs>
      <g>
       <use xlink:href="#m3323801eb6" x="121.347784" y="307.584" style="stroke: #000000; stroke-width: 0.8"/>
      </g>
     </g>
     <g id="text_1">
      <!-- 0.2 -->
      <g transform="translate(113.396222 322.182437) scale(0.1 -0.1)">
       <defs>
        <path id="DejaVuSans-30" d="M 2034 4250 
Q 1547 4250 1301 3770 
Q 1056 3291 1056 2328 
Q 1056 1369 1301 889 
Q 1547 409 2034 409 
Q 2525 409 2770 889 
Q 3016 1369 3016 2328 
Q 3016 3291 2770 3770 
Q 2525 4250 2034 4250 
z
M 2034 4750 
Q 2819 4750 3233 4129 
Q 3647 3509 3647 2328 
Q 3647 1150 3233 529 
Q 2819 -91 2034 -91 
Q 1250 -91 836 529 
Q 422 1150 422 2328 
Q 422 3509 836 4129 
Q 1250 4750 2034 4750 
z
" transform="scale(0.015625)"/>
        <path id="DejaVuSans-2e" d="M 684 794 
L 1344 794 
L 1344 0 
L 684 0 
L 684 794 
z
" transform="scale(0.015625)"/>
        <path id="DejaVuSans-32" d="M 1228 531 
L 3431 531 
L 3431 0 
L 469 0 
L 469 531 
Q 828 903 1448 1529 
Q 2069 2156 2228 2338 
Q 2531 2678 2651 2914 
Q 2772 3150 2772 3378 
Q 2772 3750 2511 3984 
Q 2250 4219 1831 4219 
Q 1534 4219 1204 4116 
Q 875 4013 500 3803 
L 500 4441 
Q 881 4594 1212 4672 
Q 1544 4750 1819 4750 
Q 2544 4750 2975 4387 
Q 3406 4025 3406 3419 
Q 3406 3131 3298 2873 
Q 3191 2616 2906 2266 
Q 2828 2175 2409 1742 
Q 1991 1309 1228 531 
z
" transform="scale(0.015625)"/>
       </defs>
       <use xlink:href="#DejaVuSans-30"/>
       <use xlink:href="#DejaVuSans-2e" x="63.623047"/>
       <use xlink:href="#DejaVuSans-32" x="95.410156"/>
      </g>
     </g>
    </g>
    <g id="xtick_2">
     <g id="line2d_2">
      <g>
       <use xlink:href="#m3323801eb6" x="200.539546" y="307.584" style="stroke: #000000; stroke-width: 0.8"/>
      </g>
     </g>
     <g id="text_2">
      <!-- 0.4 -->
      <g transform="translate(192.587983 322.182437) scale(0.1 -0.1)">
       <defs>
        <path id="DejaVuSans-34" d="M 2419 4116 
L 825 1625 
L 2419 1625 
L 2419 4116 
z
M 2253 4666 
L 3047 4666 
L 3047 1625 
L 3713 1625 
L 3713 1100 
L 3047 1100 
L 3047 0 
L 2419 0 
L 2419 1100 
L 313 1100 
L 313 1709 
L 2253 4666 
z
" transform="scale(0.015625)"/>
       </defs>
       <use xlink:href="#DejaVuSans-30"/>
       <use xlink:href="#DejaVuSans-2e" x="63.623047"/>
       <use xlink:href="#DejaVuSans-34" x="95.410156"/>
      </g>
     </g>
    </g>
    <g id="xtick_3">
     <g id="line2d_3">
      <g>
       <use xlink:href="#m3323801eb6" x="279.731307" y="307.584" style="stroke: #000000; stroke-width: 0.8"/>
      </g>
     </g>
     <g id="text_3">
      <!-- 0.6 -->
      <g transform="translate(271.779745 322.182437) scale(0.1 -0.1)">
       <defs>
        <path id="DejaVuSans-36" d="M 2113 2584 
Q 1688 2584 1439 2293 
Q 1191 2003 1191 1497 
Q 1191 994 1439 701 
Q 1688 409 2113 409 
Q 2538 409 2786 701 
Q 3034 994 3034 1497 
Q 3034 2003 2786 2293 
Q 2538 2584 2113 2584 
z
M 3366 4563 
L 3366 3988 
Q 3128 4100 2886 4159 
Q 2644 4219 2406 4219 
Q 1781 4219 1451 3797 
Q 1122 3375 1075 2522 
Q 1259 2794 1537 2939 
Q 1816 3084 2150 3084 
Q 2853 3084 3261 2657 
Q 3669 2231 3669 1497 
Q 3669 778 3244 343 
Q 2819 -91 2113 -91 
Q 1303 -91 875 529 
Q 447 1150 447 2328 
Q 447 3434 972 4092 
Q 1497 4750 2381 4750 
Q 2619 4750 2861 4703 
Q 3103 4656 3366 4563 
z
" transform="scale(0.015625)"/>
       </defs>
       <use xlink:href="#DejaVuSans-30"/>
       <use xlink:href="#DejaVuSans-2e" x="63.623047"/>
       <use xlink:href="#DejaVuSans-36" x="95.410156"/>
      </g>
     </g>
    </g>
    <g id="xtick_4">
     <g id="line2d_4">
      <g>
       <use xlink:href="#m3323801eb6" x="358.923069" y="307.584" style="stroke: #000000; stroke-width: 0.8"/>
      </g>
     </g>
     <g id="text_4">
      <!-- 0.8 -->
      <g transform="translate(350.971506 322.182437) scale(0.1 -0.1)">
       <defs>
        <path id="DejaVuSans-38" d="M 2034 2216 
Q 1584 2216 1326 1975 
Q 1069 1734 1069 1313 
Q 1069 891 1326 650 
Q 1584 409 2034 409 
Q 2484 409 2743 651 
Q 3003 894 3003 1313 
Q 3003 1734 2745 1975 
Q 2488 2216 2034 2216 
z
M 1403 2484 
Q 997 2584 770 2862 
Q 544 3141 544 3541 
Q 544 4100 942 4425 
Q 1341 4750 2034 4750 
Q 2731 4750 3128 4425 
Q 3525 4100 3525 3541 
Q 3525 3141 3298 2862 
Q 3072 2584 2669 2484 
Q 3125 2378 3379 2068 
Q 3634 1759 3634 1313 
Q 3634 634 3220 271 
Q 2806 -91 2034 -91 
Q 1263 -91 848 271 
Q 434 634 434 1313 
Q 434 1759 690 2068 
Q 947 2378 1403 2484 
z
M 1172 3481 
Q 1172 3119 1398 2916 
Q 1625 2713 2034 2713 
Q 2441 2713 2670 2916 
Q 2900 3119 2900 3481 
Q 2900 3844 2670 4047 
Q 2441 4250 2034 4250 
Q 1625 4250 1398 4047 
Q 1172 3844 1172 3481 
z
" transform="scale(0.015625)"/>
       </defs>
       <use xlink:href="#DejaVuSans-30"/>
       <use xlink:href="#DejaVuSans-2e" x="63.623047"/>
       <use xlink:href="#DejaVuSans-38" x="95.410156"/>
      </g>
     </g>
    </g>
   </g>
   <g id="matplotlib.axis_2">
    <g id="ytick_1">
     <g id="line2d_5">
      <defs>
       <path id="m7828d242b7" d="M 0 0 
L -3.5 0 
" style="stroke: #000000; stroke-width: 0.8"/>
      </defs>
      <g>
       <use xlink:href="#m7828d242b7" x="57.6" y="281.957454" style="stroke: #000000; stroke-width: 0.8"/>
      </g>
     </g>
     <g id="text_5">
      <!-- −100 -->
      <g transform="translate(23.132812 285.756673) scale(0.1 -0.1)">
       <defs>
        <path id="DejaVuSans-2212" d="M 678 2272 
L 4684 2272 
L 4684 1741 
L 678 1741 
L 678 2272 
z
" transform="scale(0.015625)"/>
        <path id="DejaVuSans-31" d="M 794 531 
L 1825 531 
L 1825 4091 
L 703 3866 
L 703 4441 
L 1819 4666 
L 2450 4666 
L 2450 531 
L 3481 531 
L 3481 0 
L 794 0 
L 794 531 
z
" transform="scale(0.015625)"/>
       </defs>
       <use xlink:href="#DejaVuSans-2212"/>
       <use xlink:href="#DejaVuSans-31" x="83.789062"/>
       <use xlink:href="#DejaVuSans-30" x="147.412109"/>
       <use xlink:href="#DejaVuSans-30" x="211.035156"/>
      </g>
     </g>
    </g>
    <g id="ytick_2">
     <g id="line2d_6">
      <g>
       <use xlink:href="#m7828d242b7" x="57.6" y="245.159868" style="stroke: #000000; stroke-width: 0.8"/>
      </g>
     </g>
     <g id="text_6">
      <!-- −75 -->
      <g transform="translate(29.495313 248.959087) scale(0.1 -0.1)">
       <defs>
        <path id="DejaVuSans-37" d="M 525 4666 
L 3525 4666 
L 3525 4397 
L 1831 0 
L 1172 0 
L 2766 4134 
L 525 4134 
L 525 4666 
z
" transform="scale(0.015625)"/>
        <path id="DejaVuSans-35" d="M 691 4666 
L 3169 4666 
L 3169 4134 
L 1269 4134 
L 1269 2991 
Q 1406 3038 1543 3061 
Q 1681 3084 1819 3084 
Q 2600 3084 3056 2656 
Q 3513 2228 3513 1497 
Q 3513 744 3044 326 
Q 2575 -91 1722 -91 
Q 1428 -91 1123 -41 
Q 819 9 494 109 
L 494 744 
Q 775 591 1075 516 
Q 1375 441 1709 441 
Q 2250 441 2565 725 
Q 2881 1009 2881 1497 
Q 2881 1984 2565 2268 
Q 2250 2553 1709 2553 
Q 1456 2553 1204 2497 
Q 953 2441 691 2322 
L 691 4666 
z
" transform="scale(0.015625)"/>
       </defs>
       <use xlink:href="#DejaVuSans-2212"/>
       <use xlink:href="#DejaVuSans-37" x="83.789062"/>
       <use xlink:href="#DejaVuSans-35" x="147.412109"/>
      </g>
     </g>
    </g>
    <g id="ytick_3">
     <g id="line2d_7">
      <g>
       <use xlink:href="#m7828d242b7" x="57.6" y="208.362282" style="stroke: #000000; stroke-width: 0.8"/>
      </g>
     </g>
     <g id="text_7">
      <!-- −50 -->
      <g transform="translate(29.495313 212.161501) scale(0.1 -0.1)">
       <use xlink:href="#DejaVuSans-2212"/>
       <use xlink:href="#DejaVuSans-35" x="83.789062"/>
       <use xlink:href="#DejaVuSans-30" x="147.412109"/>
      </g>
     </g>
    </g>
    <g id="ytick_4">
     <g id="line2d_8">
      <g>
       <use xlink:href="#m7828d242b7" x="57.6" y="171.564696" style="stroke: #000000; stroke-width: 0.8"/>
      </g>
     </g>
     <g id="text_8">
      <!-- −25 -->
      <g transform="translate(29.495313 175.363915) scale(0.1 -0.1)">
       <use xlink:href="#DejaVuSans-2212"/>
       <use xlink:href="#DejaVuSans-32" x="83.789062"/>
       <use xlink:href="#DejaVuSans-35" x="147.412109"/>
      </g>
     </g>
    </g>
    <g id="ytick_5">
     <g id="line2d_9">
      <g>
       <use xlink:href="#m7828d242b7" x="57.6" y="134.767111" style="stroke: #000000; stroke-width: 0.8"/>
      </g>
     </g>
     <g id="text_9">
      <!-- 0 -->
      <g transform="translate(44.2375 138.566329) scale(0.1 -0.1)">
       <use xlink:href="#DejaVuSans-30"/>
      </g>
     </g>
    </g>
    <g id="ytick_6">
     <g id="line2d_10">
      <g>
       <use xlink:href="#m7828d242b7" x="57.6" y="97.969525" style="stroke: #000000; stroke-width: 0.8"/>
      </g>
     </g>
     <g id="text_10">
      <!-- 25 -->
      <g transform="translate(37.875 101.768743) scale(0.1 -0.1)">
       <use xlink:href="#DejaVuSans-32"/>
       <use xlink:href="#DejaVuSans-35" x="63.623047"/>
      </g>
     </g>
    </g>
    <g id="ytick_7">
     <g id="line2d_11">
      <g>
       <use xlink:href="#m7828d242b7" x="57.6" y="61.171939" style="stroke: #000000; stroke-width: 0.8"/>
      </g>
     </g>
     <g id="text_11">
      <!-- 50 -->
      <g transform="translate(37.875 64.971158) scale(0.1 -0.1)">
       <use xlink:href="#DejaVuSans-35"/>
       <use xlink:href="#DejaVuSans-30" x="63.623047"/>
      </g>
     </g>
    </g>
   </g>
   <g id="line2d_12">
    <path d="M 73.832727 202.704977 
L 74.244524 202.28447 
L 74.624645 202.154945 
L 74.95725 201.968519 
L 75.543269 201.976623 
L 75.669976 201.935351 
L 75.82836 201.893119 
L 75.844198 201.90947 
L 76.034258 201.969852 
L 76.477732 201.94039 
L 76.667792 201.936157 
L 76.826176 201.977747 
L 77.095428 202.049145 
L 77.507225 202.054436 
L 77.950699 201.982046 
L 78.885162 202.097321 
L 78.99603 202.068183 
L 79.011868 202.088636 
L 79.233605 202.227302 
L 79.898816 202.403759 
L 80.136391 202.300016 
L 80.389805 202.330623 
L 80.643219 202.300251 
L 81.49849 202.375005 
L 81.656873 202.603838 
L 81.751903 204.727957 
L 82.021155 209.711874 
L 82.512144 215.035508 
L 83.541637 223.554137 
L 85.077957 233.974193 
L 87.07359 244.648185 
L 89.781948 255.63548 
L 90.082877 256.696777 
L 91.144046 259.943946 
L 91.39746 260.77578 
L 92.775397 264.769419 
L 95.404563 270.877472 
L 98.50888 276.23911 
L 100.742088 279.396584 
L 101.312269 280.073789 
L 101.644874 280.482753 
L 102.325923 281.136633 
L 103.592991 282.363481 
L 106.364703 284.622872 
L 106.507248 284.812133 
L 106.792338 285.057959 
L 107.330842 285.539137 
L 107.552579 285.648616 
L 107.996053 286.07732 
L 108.946354 286.333608 
L 109.56405 286.74629 
L 109.65908 286.701908 
L 109.690757 286.741486 
L 109.896655 286.87893 
L 110.055039 286.924266 
L 110.72025 287.202169 
L 110.878633 287.245267 
L 111.1954 287.487935 
L 111.955641 287.921102 
L 112.050671 287.99903 
L 112.098186 287.970243 
L 112.25657 288.054235 
L 113.175194 288.483926 
L 113.555315 288.670313 
L 113.840405 288.884249 
L 114.727353 289.357948 
L 114.901575 289.413965 
L 115.392564 289.505031 
L 115.550947 289.525824 
L 115.946906 289.51807 
L 116.279511 289.530243 
L 116.422057 289.502191 
L 116.48541 289.4054 
L 116.532925 289.510613 
L 116.707147 289.708965 
L 116.976399 289.769851 
L 117.118944 289.751592 
L 117.356519 289.707594 
L 117.958377 289.912208 
L 118.877001 290.128994 
L 119.811464 290.418851 
L 120.128231 290.555187 
L 120.460836 290.670094 
L 120.61922 290.775461 
L 120.793442 290.767652 
L 121.252754 290.815773 
L 121.490329 290.932677 
L 121.569521 290.921359 
L 121.601198 290.970818 
L 121.68039 291.042737 
L 121.743743 291.00408 
L 122.203055 291.017876 
L 125.339049 291.955931 
L 125.576624 292.154897 
L 126.178482 292.115429 
L 126.225997 292.064993 
L 126.273512 292.121976 
L 126.47941 292.264628 
L 126.954561 292.446585 
L 127.382196 292.697565 
L 127.603933 292.796648 
L 127.936539 292.877877 
L 128.158276 292.933861 
L 128.475043 292.838518 
L 128.823486 292.799006 
L 129.045223 292.825413 
L 129.187769 292.861657 
L 129.472859 292.964282 
L 131.056694 293.286249 
L 131.880288 293.225702 
L 132.05451 293.306471 
L 132.466307 293.469829 
L 132.719721 293.421971 
L 132.893943 293.385946 
L 133.543315 293.553854 
L 133.875921 293.548261 
L 134.541132 293.693579 
L 134.826222 293.72956 
L 137.122783 293.998525 
L 137.328682 294.097356 
L 137.772156 294.155807 
L 137.914701 294.135048 
L 137.930539 294.15607 
L 138.136438 294.262599 
L 138.469043 294.340418 
L 138.564073 294.292439 
L 138.59575 294.328958 
L 138.738295 294.332379 
L 139.134254 294.324966 
L 139.260961 294.28451 
L 139.419344 294.321259 
L 139.625243 294.246204 
L 139.75195 294.304919 
L 139.973686 294.351648 
L 140.274615 294.282822 
L 141.019018 294.407555 
L 141.177401 294.413949 
L 141.636713 294.192984 
L 141.826774 294.202009 
L 142.127702 294.188663 
L 142.238571 294.158044 
L 142.270248 294.186886 
L 142.428631 294.272316 
L 142.460308 294.238001 
L 142.618691 294.217286 
L 142.82459 294.273061 
L 143.29974 294.356276 
L 143.473962 294.4016 
L 144.218365 294.413192 
L 144.614324 294.580421 
L 144.851899 294.550142 
L 145.184504 294.663284 
L 145.42208 294.616983 
L 145.770523 294.686237 
L 145.960584 294.721351 
L 146.340704 294.708707 
L 146.689148 294.693354 
L 146.879208 294.671366 
L 147.180137 294.769933 
L 147.322682 294.841139 
L 147.496904 294.837081 
L 147.702802 294.821794 
L 147.892863 294.853981 
L 148.067085 294.871341 
L 148.890679 294.855735 
L 149.239123 294.822309 
L 149.619243 294.924112 
L 149.904333 294.914494 
L 150.379484 294.932589 
L 150.569544 294.930209 
L 150.933826 295.068958 
L 151.504007 295.112056 
L 152.406793 295.153049 
L 152.596853 295.129164 
L 152.707722 295.124624 
L 152.72356 295.14421 
L 152.897782 295.266301 
L 152.91362 295.255257 
L 153.072004 295.27866 
L 153.262064 295.259425 
L 153.420448 295.155034 
L 153.452124 295.20298 
L 153.642185 295.312239 
L 154.782546 295.304848 
L 155.051798 295.195062 
L 155.463595 295.135897 
L 155.859554 295.102669 
L 156.271351 295.259271 
L 156.445573 295.277081 
L 156.556441 295.1913 
L 156.698987 295.184227 
L 157.855186 295.271641 
L 158.061085 295.32575 
L 158.282822 295.391341 
L 158.441205 295.339458 
L 158.995548 295.336881 
L 159.312315 295.253152 
L 160.167586 295.393359 
L 160.341808 295.450516 
L 160.468514 295.441491 
L 160.658575 295.40109 
L 160.975342 295.267277 
L 161.149564 295.179654 
L 161.18124 295.210667 
L 161.402977 295.257012 
L 161.545522 295.14183 
L 161.830613 295.051532 
L 162.004835 295.043976 
L 162.353278 294.918738 
L 162.749237 295.059088 
L 163.667862 295.151788 
L 163.826245 295.205864 
L 164.285557 295.057892 
L 164.475617 295.056938 
L 164.903253 295.006317 
L 165.02996 295.003893 
L 165.283373 295.136205 
L 165.600141 295.140624 
L 166.122806 294.939662 
L 166.550442 294.931262 
L 166.962239 294.72701 
L 167.215652 294.625318 
L 167.421551 294.581386 
L 169.052901 294.595236 
L 169.242962 294.577514 
L 169.496375 294.573303 
L 170.747605 294.479485 
L 171.127725 294.51926 
L 171.301947 294.577745 
L 171.982996 294.742495 
L 172.315602 294.73665 
L 172.648207 294.685469 
L 172.980813 294.552752 
L 173.20255 294.60367 
L 173.39261 294.647141 
L 174.358749 294.630581 
L 174.54881 294.615524 
L 174.960607 294.478783 
L 175.293212 294.538199 
L 175.530787 294.48499 
L 175.863393 294.567425 
L 176.512765 294.417896 
L 177.019593 294.336349 
L 177.399713 294.193126 
L 178.0966 294.246632 
L 178.286661 294.292768 
L 178.571751 294.290147 
L 179.632921 294.014514 
L 179.965526 293.951227 
L 180.31397 294.071968 
L 181.058372 294.210782 
L 181.232594 294.179769 
L 181.581038 294.143634 
L 181.786937 294.205025 
L 181.929482 294.197535 
L 182.056189 294.239076 
L 182.13538 294.297813 
L 182.182895 294.249604 
L 182.341279 294.228318 
L 183.069843 294.149688 
L 183.449964 294.105482 
L 183.624185 294.024637 
L 184.194366 294.125562 
L 184.400265 294.177477 
L 185.160506 293.986363 
L 185.588141 293.961458 
L 186.110807 293.958903 
L 186.348382 293.943857 
L 186.585957 293.952915 
L 186.886886 294.027334 
L 187.124461 294.001366 
L 187.393713 293.95036 
L 188.138116 293.899859 
L 188.375691 293.89533 
L 188.565751 293.855587 
L 189.452699 293.899783 
L 189.611083 293.885669 
L 189.769466 293.800875 
L 189.864496 293.687284 
L 189.912011 293.728672 
L 190.102072 293.768798 
L 190.260455 293.698031 
L 190.973181 293.704293 
L 191.606715 293.868868 
L 193.364772 293.806227 
L 193.523156 293.808541 
L 194.362588 293.782035 
L 194.647679 293.799483 
L 195.439596 293.676679 
L 195.867232 293.76144 
L 196.833371 293.647728 
L 197.007593 293.655262 
L 197.165977 293.629457 
L 197.340199 293.627747 
L 198.163793 293.42662 
L 198.322176 293.330488 
L 198.623105 293.046783 
L 198.76565 292.147067 
L 199.114094 290.286221 
L 199.605083 289.423934 
L 200.792959 289.20287 
L 200.935504 289.152951 
L 201.109726 289.13547 
L 201.822452 289.110433 
L 202.107543 289.304651 
L 202.218411 289.358606 
L 202.408471 289.363464 
L 202.80443 289.341948 
L 203.073682 289.330959 
L 203.818085 289.437587 
L 204.214043 289.642639 
L 204.847578 289.884375 
L 205.053476 289.832635 
L 205.370243 289.773349 
L 205.560303 289.804725 
L 205.750364 289.866784 
L 205.892909 289.92857 
L 206.067131 289.936882 
L 206.193837 289.939536 
L 206.447251 290.123138 
L 207.239169 290.365838 
L 207.619289 290.460776 
L 208.141955 290.465437 
L 208.300338 290.442867 
L 208.553752 290.404912 
L 209.298154 290.397949 
L 209.551568 290.352273 
L 210.058395 290.32172 
L 210.454354 290.086949 
L 211.848129 290.18602 
L 212.085705 290.168222 
L 212.481663 290.382913 
L 212.735077 290.367242 
L 213.004329 290.401326 
L 214.334751 290.663021 
L 214.619841 290.588163 
L 214.746548 290.54286 
L 214.952446 290.541128 
L 215.11083 290.54138 
L 215.237537 290.564245 
L 215.39592 290.529799 
L 215.522627 290.584555 
L 215.728526 290.601104 
L 215.950262 290.566329 
L 216.36206 290.639739 
L 216.631312 290.618661 
L 217.185654 290.569169 
L 218.009248 290.678308 
L 218.389369 290.608188 
L 218.848681 290.633773 
L 219.181286 290.641735 
L 219.450538 290.58268 
L 219.672275 290.499203 
L 220.036557 290.604514 
L 220.258294 290.573863 
L 220.606738 290.416515 
L 221.857968 290.251721 
L 222.143058 290.272908 
L 222.348957 290.232771 
L 222.50734 290.250997 
L 222.729077 290.26453 
L 223.251743 290.104396 
L 223.600187 290.177324 
L 223.806085 290.218679 
L 224.281236 290.32263 
L 224.518811 290.3696 
L 224.708871 290.395251 
L 224.930608 290.39547 
L 225.928424 290.505486 
L 226.150161 290.477774 
L 226.387737 290.403443 
L 226.54612 290.38027 
L 227.100462 290.56714 
L 227.448906 290.465009 
L 227.591451 290.653118 
L 227.670643 290.688408 
L 227.718158 290.642118 
L 227.939895 290.571066 
L 228.098279 290.50746 
L 228.288339 290.431188 
L 230.157264 290.371673 
L 230.474032 290.386642 
L 230.743284 290.193763 
L 231.519363 290.249659 
L 233.926792 290.358184 
L 234.101014 290.343039 
L 234.259398 290.281363 
L 234.354428 290.247795 
L 234.386105 290.28189 
L 234.560326 290.356023 
L 234.972124 290.264223 
L 235.114669 290.329046 
L 235.304729 290.410867 
L 235.526466 290.418511 
L 235.87491 290.409628 
L 236.16 290.322378 
L 236.793534 290.277569 
L 236.920241 290.371728 
L 237.126139 290.431627 
L 237.537937 290.256996 
L 237.902219 290.547762 
L 238.409046 290.453922 
L 238.551591 290.442089 
L 238.789166 290.442944 
L 238.995065 290.368668 
L 239.074257 290.265286 
L 239.121772 290.309986 
L 239.311832 290.415429 
L 239.438539 290.465261 
L 239.660276 290.462059 
L 240.00872 290.401907 
L 240.38884 290.412315 
L 240.563062 290.373778 
L 241.54504 290.1454 
L 241.83013 290.272184 
L 242.194412 290.246205 
L 242.495341 290.283425 
L 243.714894 290.330186 
L 243.952469 290.356999 
L 245.172022 290.122458 
L 245.362083 290.118214 
L 245.821395 290.139281 
L 246.043132 290.076486 
L 246.201515 289.969036 
L 246.328222 290.00845 
L 246.454929 289.979246 
L 246.644989 289.954648 
L 246.93008 290.001969 
L 247.563614 290.021665 
L 247.864542 289.900024 
L 248.545591 289.983984 
L 248.75149 289.961963 
L 249.179126 289.984861 
L 250.034397 289.951194 
L 250.176942 289.914807 
L 250.430355 289.927265 
L 250.715446 290.04816 
L 250.905506 290.038433 
L 251.095566 289.971449 
L 251.428172 289.833391 
L 253.012007 289.963235 
L 253.17039 289.96261 
L 253.392127 290.024593 
L 253.661379 289.923646 
L 253.94647 289.851826 
L 254.532489 289.800711 
L 254.706711 289.661886 
L 254.722549 289.671394 
L 255.023478 289.755946 
L 255.356083 289.697966 
L 255.847072 289.803924 
L 255.989617 289.81624 
L 256.306384 289.738597 
L 256.623151 289.632397 
L 256.844888 289.648397 
L 256.939918 289.643539 
L 256.971595 289.684016 
L 257.161655 289.742259 
L 257.478422 289.796346 
L 257.700159 289.773437 
L 259.125611 289.38441 
L 259.283994 289.424976 
L 259.474055 289.429044 
L 260.424356 289.501873 
L 260.756961 289.470958 
L 261.089567 289.383851 
L 261.311303 289.320322 
L 261.596394 289.20139 
L 261.738939 289.177088 
L 261.913161 289.18744 
L 262.071544 289.1922 
L 262.895139 288.943907 
L 263.132714 288.948403 
L 263.338613 289.007556 
L 263.528673 288.990997 
L 263.877117 288.932721 
L 264.399782 288.634793 
L 265.033316 288.573347 
L 265.635174 288.718029 
L 266.268708 288.776623 
L 266.838888 288.577482 
L 268.945389 288.611292 
L 269.42054 288.52243 
L 269.594762 288.555187 
L 269.768984 288.559837 
L 270.497548 288.57134 
L 270.655931 288.614713 
L 271.178597 288.568687 
L 271.590394 288.271493 
L 271.827969 288.307124 
L 272.097221 288.348983 
L 272.477342 288.415111 
L 272.651564 288.467696 
L 273.158391 288.51733 
L 273.36429 288.482819 
L 273.74441 288.547631 
L 273.93447 288.512351 
L 274.061177 288.408312 
L 274.219561 288.392783 
L 274.457136 288.431407 
L 274.789741 288.420726 
L 275.122347 288.417403 
L 275.645012 288.501297 
L 275.850911 288.505223 
L 276.009294 288.511299 
L 276.326061 288.55329 
L 276.832889 288.482742 
L 277.133817 288.587066 
L 279.22448 288.257544 
L 279.493732 288.20803 
L 279.69963 288.190308 
L 279.858014 288.214303 
L 280.190619 288.220313 
L 280.47571 288.137647 
L 280.618255 288.088637 
L 280.85583 287.896822 
L 281.156759 287.598609 
L 281.315142 287.601844 
L 281.536879 287.765728 
L 282.059545 287.646412 
L 282.835624 287.697648 
L 283.54835 287.655426 
L 284.086854 287.742523 
L 284.324429 287.737906 
L 284.466975 287.697812 
L 284.641196 287.687822 
L 284.910448 287.756264 
L 285.068832 287.793385 
L 285.543982 287.943857 
L 285.781558 287.870173 
L 286.320062 288.038915 
L 286.985273 288.043686 
L 287.444585 287.950086 
L 289.265995 287.871676 
L 289.852014 287.707912 
L 290.232135 287.865677 
L 290.390518 287.818674 
L 291.055729 287.889683 
L 291.198274 287.865885 
L 291.546718 287.913206 
L 291.847647 287.915377 
L 292.275282 287.946862 
L 292.544534 287.950075 
L 293.25726 287.954604 
L 293.795764 287.947432 
L 294.001663 287.981703 
L 294.160046 287.989928 
L 294.31843 287.962511 
L 294.524328 287.955548 
L 294.651035 287.918382 
L 294.841095 287.841858 
L 295.046994 287.823752 
L 295.506306 287.899399 
L 295.633013 287.969453 
L 295.66469 287.932046 
L 295.807235 287.905858 
L 296.013133 287.852616 
L 296.345739 287.800887 
L 296.757536 287.845696 
L 297.026788 287.799812 
L 297.169333 287.749903 
L 297.422747 287.663739 
L 299.006582 287.65774 
L 299.259996 287.707353 
L 299.640116 287.674925 
L 299.877691 287.316889 
L 300.685447 285.370933 
L 301.52488 284.646659 
L 301.699102 284.654588 
L 302.696918 284.429774 
L 302.934493 284.441628 
L 303.330452 284.487666 
L 303.710573 284.615251 
L 304.185723 284.77148 
L 304.40746 284.869367 
L 304.518329 284.804906 
L 304.645035 284.830173 
L 304.787581 284.797547 
L 305.104348 284.762586 
L 305.310246 284.840635 
L 305.785397 285.058364 
L 306.070487 285.238501 
L 307.939413 285.536165 
L 308.25618 285.59147 
L 309.333188 285.703877 
L 309.444056 285.822655 
L 309.475733 285.798957 
L 309.649955 285.764697 
L 309.824177 285.783406 
L 310.061752 285.74953 
L 311.360497 286.088736 
L 311.503042 286.188115 
L 311.629749 286.220554 
L 311.645587 286.207723 
L 311.788132 286.202953 
L 312.009869 286.296048 
L 312.643403 286.366222 
L 312.817625 286.410516 
L 313.166069 286.460228 
L 313.657058 286.420485 
L 314.322269 286.519096 
L 314.49649 286.592056 
L 314.955803 286.448164 
L 316.016972 286.298734 
L 316.286224 286.363042 
L 316.951435 286.408597 
L 317.252364 286.54978 
L 317.394909 286.470854 
L 317.553292 286.438985 
L 317.743353 286.416537 
L 317.885898 286.369392 
L 317.901736 286.383232 
L 318.186827 286.503688 
L 318.408563 286.531642 
L 318.53527 286.469966 
L 318.725331 286.488587 
L 318.978744 286.440981 
L 319.089613 286.493763 
L 319.184643 286.47376 
L 319.247996 286.047546 
L 320.150782 272.891531 
L 320.911023 266.605656 
L 322.225606 258.005052 
L 324.506329 246.73516 
L 325.17154 244.15207 
L 325.741721 242.069525 
L 328.307534 234.340826 
L 328.846038 233.098394 
L 330.920862 228.638743 
L 331.205952 228.190903 
L 331.601911 227.488409 
L 331.760294 227.260579 
L 332.28296 226.403237 
L 332.504697 226.137595 
L 333.502513 224.366466 
L 334.801258 222.653532 
L 335.149702 222.236409 
L 335.814913 221.493865 
L 336.22671 221.006479 
L 337.256203 219.908005 
L 337.747192 219.266309 
L 338.016444 219.090697 
L 338.364887 218.746972 
L 338.713331 218.514849 
L 339.457734 217.643925 
L 339.616117 217.527083 
L 340.138783 217.01437 
L 340.756479 216.563968 
L 340.899024 216.476817 
L 341.120761 216.317704 
L 341.247468 216.1393 
L 341.690941 215.664044 
L 342.039385 215.378173 
L 342.387829 215.133735 
L 342.910495 214.719046 
L 343.05304 214.61124 
L 343.401483 214.351958 
L 343.734089 214.27528 
L 344.430976 213.640669 
L 344.621037 213.545101 
L 345.127864 213.258951 
L 346.759214 212.123914 
L 347.09182 211.857581 
L 347.614485 211.578571 
L 348.184666 211.242413 
L 348.406403 211.090724 
L 349.024098 210.700294 
L 349.451734 210.286477 
L 351.304821 209.114154 
L 351.589912 209.029334 
L 352.033385 208.61266 
L 352.302637 208.362217 
L 352.556051 208.175424 
L 353.015363 207.914278 
L 354.741744 206.511105 
L 354.884289 206.506855 
L 354.979319 206.427436 
L 355.216894 206.18893 
L 355.945458 205.500018 
L 356.832406 204.815519 
L 357.054143 204.653489 
L 357.513455 204.231601 
L 357.766869 203.995859 
L 358.162828 203.64715 
L 358.62214 203.224445 
L 359.635795 202.106659 
L 359.87337 201.76991 
L 360.522742 201.070777 
L 360.665287 200.960897 
L 361.710619 199.434734 
L 363.326131 196.250962 
L 363.595383 195.647671 
L 364.00718 194.809664 
L 364.19724 194.3986 
L 365.084188 191.160483 
L 365.527662 188.926337 
L 365.955297 185.705586 
L 366.145357 182.937857 
L 366.208711 177.436487 
L 366.287903 144.267616 
L 366.446286 54.430244 
L 366.493801 63.518716 
L 366.98479 195.85416 
L 367.127335 199.162813 
L 367.143174 199.108271 
L 367.254042 197.768868 
L 367.760869 187.033403 
L 368.394403 175.038174 
L 368.742847 167.376668 
L 368.837877 154.156069 
L 369.059614 78.537008 
L 369.138806 90.256793 
L 369.613956 181.74772 
L 369.835693 191.090594 
L 369.930724 191.505392 
L 369.978239 191.422501 
L 370.089107 190.684815 
L 370.374197 186.419519 
L 371.514559 171.851475 
L 371.863003 167.688369 
L 371.958033 163.204203 
L 372.053063 144.159159 
L 372.258961 84.470265 
L 372.322315 88.954292 
L 373.098394 187.899957 
L 373.304293 190.158515 
L 373.351808 190.14813 
L 373.367646 190.116809 
L 373.510191 189.429147 
L 373.937827 186.219264 
L 374.603037 181.472169 
L 375.125703 179.286278 
L 375.284087 178.823222 
L 375.5375 178.193918 
L 375.72756 177.98449 
L 375.980974 177.533483 
L 376.139358 177.164292 
L 376.186873 177.18603 
L 376.31358 177.138055 
L 376.741215 176.312639 
L 376.78873 176.381435 
L 376.931275 176.512126 
L 376.962952 176.486135 
L 377.200527 176.446897 
L 377.501456 176.779224 
L 379.829694 183.338355 
L 380.82751 185.973126 
L 381.366014 187.326769 
L 381.556074 187.893498 
L 381.920356 189.036852 
L 382.094578 189.45556 
L 382.569729 190.918276 
L 385.008835 199.037016 
L 386.766892 204.269528 
L 388.081475 207.498394 
L 388.667494 209.039308 
L 388.810039 209.43986 
L 389.237675 210.487653 
L 391.534236 214.888315 
L 391.88268 215.514208 
L 392.151932 216.01715 
L 392.437022 216.451995 
L 392.642921 216.587744 
L 392.864658 216.929434 
L 393.339808 217.481396 
L 393.498192 217.606277 
L 393.846636 218.133126 
L 396.269903 220.080032 
L 396.412449 220.212513 
L 396.58667 220.327042 
L 396.713377 220.366867 
L 397.616163 220.972132 
L 397.806224 220.980093 
L 398.059637 221.118919 
L 398.249697 221.199709 
L 398.487273 221.389397 
L 398.487273 221.389397 
" clip-path="url(#p543587b456)" style="fill: none; stroke: #1f77b4; stroke-width: 1.5; stroke-linecap: square"/>
   </g>
   <g id="line2d_13">
    <path d="M 73.832727 211.610593 
L 74.101979 211.582431 
L 74.339555 211.712105 
L 74.846382 211.479461 
L 76.636116 211.153398 
L 76.842014 211.176993 
L 77.190458 211.091009 
L 77.36468 211.080339 
L 77.491387 210.998501 
L 77.633932 210.87742 
L 77.665609 210.903169 
L 77.83983 210.92508 
L 78.109082 210.936195 
L 78.251628 210.803927 
L 78.425849 210.798252 
L 78.631748 210.796213 
L 78.869323 210.800243 
L 79.027707 210.727973 
L 79.217767 210.732925 
L 79.423666 210.729514 
L 79.740433 210.638777 
L 79.96217 210.580084 
L 80.500674 210.489703 
L 80.754087 210.510386 
L 81.213399 210.531069 
L 81.387621 210.482158 
L 81.609358 210.34534 
L 81.641035 210.398928 
L 81.767742 211.005048 
L 82.036994 211.975236 
L 82.353761 212.547952 
L 82.765558 213.143863 
L 83.098163 213.763538 
L 83.573314 214.497786 
L 84.840382 216.013136 
L 85.378886 216.516456 
L 86.345026 217.402185 
L 86.471732 217.440962 
L 87.16862 218.178374 
L 87.485387 218.31857 
L 87.707124 218.50924 
L 87.881346 218.610072 
L 88.055568 218.653335 
L 88.261466 218.764864 
L 89.781948 219.743617 
L 90.003685 219.861205 
L 90.383805 219.880128 
L 90.922309 220.055203 
L 91.049016 220.165291 
L 91.30243 220.330156 
L 91.761742 220.542161 
L 91.983479 220.622058 
L 92.727882 220.844306 
L 92.981295 220.920331 
L 93.440607 221.02788 
L 93.567314 220.984052 
L 93.583153 221.001412 
L 93.80489 221.113551 
L 93.931596 221.172496 
L 94.216687 221.297372 
L 95.008604 221.514986 
L 95.198665 221.504985 
L 95.420401 221.59973 
L 95.72133 221.661483 
L 96.434056 221.826633 
L 96.639955 221.819927 
L 96.798338 221.792248 
L 97.051752 221.845112 
L 97.16262 221.897011 
L 97.384357 221.998106 
L 99.063222 222.322666 
L 99.158253 222.446018 
L 99.205768 222.409017 
L 99.47502 222.281607 
L 99.839302 222.44394 
L 100.124392 222.424013 
L 100.330291 222.411983 
L 100.647058 222.368572 
L 100.805441 222.486906 
L 101.01134 222.481165 
L 101.138047 222.523458 
L 101.343945 222.550194 
L 101.803257 222.646826 
L 101.945803 222.737771 
L 101.977479 222.69895 
L 102.120024 222.68619 
L 102.579337 222.701006 
L 105.366887 222.843763 
L 105.509432 222.897877 
L 106.016259 222.906947 
L 106.174643 222.884531 
L 106.380541 222.912441 
L 106.649793 222.996686 
L 106.855692 222.944935 
L 107.06159 222.989503 
L 107.552579 223.138576 
L 109.041384 223.053619 
L 109.310636 223.168597 
L 110.941987 223.184427 
L 111.132047 223.19189 
L 111.29043 223.207808 
L 111.417137 223.253407 
L 111.575521 223.307444 
L 112.763397 223.448222 
L 112.874266 223.396575 
L 113.064326 223.347555 
L 113.222709 223.24703 
L 113.41277 223.204392 
L 113.713698 223.327426 
L 115.598462 223.484806 
L 115.867714 223.400018 
L 116.026098 223.464003 
L 116.216158 223.481418 
L 116.453733 223.465483 
L 116.738824 223.503499 
L 116.928884 223.515414 
L 117.245651 223.496645 
L 117.499065 223.468559 
L 118.005892 223.513204 
L 118.195952 223.469069 
L 118.89284 223.590847 
L 118.98787 223.581997 
L 119.003708 223.563453 
L 119.209607 223.500033 
L 119.55805 223.548977 
L 119.858979 223.526029 
L 120.270776 223.663117 
L 120.52419 223.748908 
L 120.745927 223.750471 
L 120.888472 223.716595 
L 121.062694 223.639709 
L 121.252754 223.617978 
L 122.076348 222.875527 
L 122.282247 222.819351 
L 122.583176 222.832369 
L 122.884104 222.961911 
L 123.105841 222.96196 
L 123.438447 222.919871 
L 123.660184 222.942023 
L 124.230364 222.994405 
L 125.671654 223.069092 
L 126.400219 223.023005 
L 126.669471 223.06856 
L 126.796177 223.063834 
L 127.112944 223.175852 
L 127.366358 223.227877 
L 127.651448 223.111248 
L 127.683125 223.092654 
L 127.714802 223.157428 
L 127.889024 223.417011 
L 128.221629 223.357655 
L 128.459204 223.372964 
L 129.124415 223.475655 
L 129.615404 223.561819 
L 129.884656 223.731438 
L 131.230916 223.631083 
L 131.753582 223.703079 
L 131.880288 223.72499 
L 132.05451 223.745898 
L 132.244571 223.760812 
L 132.482146 223.760916 
L 132.909781 223.726882 
L 133.084003 223.76243 
L 133.40077 223.717171 
L 133.796729 223.677856 
L 134.84206 223.735095 
L 135.142989 223.690873 
L 135.333049 223.670848 
L 135.966583 223.711841 
L 136.235835 223.625622 
L 136.441734 223.674412 
L 136.615956 223.687435 
L 136.774339 223.731806 
L 136.9644 223.770112 
L 137.423712 223.754095 
L 137.787994 223.74802 
L 138.532396 223.817509 
L 138.78581 223.682379 
L 139.102577 223.771576 
L 139.308476 223.726273 
L 139.704434 223.634982 
L 139.94201 223.689371 
L 140.258777 223.708694 
L 140.528029 223.757242 
L 140.638897 223.829901 
L 140.797281 223.857937 
L 141.66839 223.66344 
L 141.953481 223.570543 
L 142.159379 223.608361 
L 142.381116 223.671259 
L 143.188872 223.721119 
L 143.363094 223.716266 
L 143.711538 223.631144 
L 143.964951 223.624827 
L 144.471779 223.672647 
L 144.582647 223.703654 
L 144.756869 223.738314 
L 144.899414 223.837512 
L 145.232019 223.805188 
L 145.675493 223.730226 
L 145.89723 223.749818 
L 147.845348 223.755713 
L 148.763972 223.815058 
L 149.017386 223.803126 
L 149.270799 223.856155 
L 149.587566 223.980861 
L 149.714273 223.850233 
L 149.856818 223.842326 
L 150.205262 223.84986 
L 150.474514 223.803483 
L 150.664574 223.824818 
L 151.044695 223.845726 
L 151.519845 223.908723 
L 151.915804 223.973448 
L 152.137541 223.996949 
L 152.375116 223.980417 
L 152.5335 223.879146 
L 152.866105 223.811532 
L 153.024489 223.8321 
L 153.198711 223.85128 
L 153.404609 223.952112 
L 153.658023 223.970755 
L 154.845899 224.092319 
L 155.083475 224.010465 
L 157.981893 224.270674 
L 158.1086 224.221757 
L 158.235307 224.221681 
L 158.710457 224.341062 
L 159.534052 224.286339 
L 159.993364 224.295721 
L 160.89615 224.342219 
L 161.228755 224.311732 
L 162.321602 224.413398 
L 162.416632 224.458388 
L 162.464147 224.411254 
L 162.62253 224.401115 
L 162.796752 224.384517 
L 163.002651 224.350532 
L 163.161034 224.325528 
L 163.287741 224.361241 
L 163.49364 224.32135 
L 163.636185 224.29208 
L 163.652023 224.311875 
L 163.87376 224.433335 
L 165.647656 224.436323 
L 165.869392 224.33411 
L 166.043614 224.359579 
L 166.56628 224.418261 
L 166.788017 224.453464 
L 167.849187 224.509223 
L 168.276822 224.43056 
L 168.641104 224.512179 
L 168.831164 224.584931 
L 169.274638 224.687232 
L 169.512214 224.68851 
L 169.654759 224.663692 
L 169.813142 224.686919 
L 169.987364 224.734416 
L 170.098233 224.690522 
L 170.240778 224.665864 
L 171.412816 224.715679 
L 171.523684 224.808083 
L 171.571199 224.771981 
L 171.76126 224.785728 
L 172.363117 224.762852 
L 172.584854 224.760675 
L 172.774914 224.736921 
L 173.012489 224.644983 
L 173.170873 224.673436 
L 173.598508 224.765007 
L 173.86776 224.801262 
L 174.026144 224.831497 
L 174.437941 224.810935 
L 174.849738 224.835154 
L 175.02396 224.881 
L 175.261535 224.872599 
L 175.863393 224.709598 
L 175.958423 224.748946 
L 176.18016 224.894549 
L 178.334176 224.864928 
L 178.555913 224.813753 
L 179.110255 224.822658 
L 179.2528 224.893118 
L 179.474537 224.83454 
L 179.617082 224.853024 
L 180.424838 224.93274 
L 180.915827 224.827258 
L 181.026696 224.731158 
L 181.074211 224.770123 
L 181.280109 224.806976 
L 181.771098 224.790257 
L 183.022328 224.970092 
L 183.29158 224.90001 
L 183.434125 224.89031 
L 183.608347 224.880468 
L 183.750892 224.858458 
L 183.877599 224.801794 
L 183.909276 224.840303 
L 184.099336 224.918977 
L 184.226043 224.958182 
L 184.368588 224.925952 
L 184.495295 224.967619 
L 184.653678 224.911185 
L 185.176344 224.879179 
L 185.334727 224.864402 
L 185.540626 224.78853 
L 185.778201 224.615154 
L 186.158322 224.58884 
L 186.839371 224.629526 
L 187.108623 224.662963 
L 187.298683 224.620391 
L 187.726319 224.770144 
L 187.932217 224.769119 
L 188.169793 224.659158 
L 188.407368 224.604846 
L 188.724135 224.670985 
L 188.977548 224.700502 
L 189.15177 224.73923 
L 189.468537 224.874058 
L 190.276293 224.949568 
L 190.561384 224.93433 
L 191.163241 224.821939 
L 191.384978 224.851779 
L 191.685907 224.876218 
L 191.891805 224.956055 
L 192.066027 224.798131 
L 192.7154 224.133576 
L 193.032167 224.067672 
L 193.158874 224.066954 
L 193.174712 224.045898 
L 193.396449 223.934856 
L 193.792408 223.995748 
L 194.029983 223.916756 
L 194.235881 223.951235 
L 194.53681 223.988724 
L 195.392081 223.994229 
L 195.487111 224.052588 
L 195.613818 224.152816 
L 195.645495 224.126398 
L 195.962262 223.993144 
L 196.865048 224.032316 
L 197.213492 224.073188 
L 197.577774 224.058471 
L 198.132116 224.11474 
L 198.924034 223.898864 
L 199.319993 223.943103 
L 199.510053 223.990824 
L 199.795143 224.049703 
L 200.20694 224.053553 
L 200.444516 224.111313 
L 201.74326 223.948998 
L 201.949159 223.945275 
L 202.107543 224.010476 
L 202.376795 224.01279 
L 202.772753 223.964236 
L 202.99449 223.984842 
L 203.247904 223.974731 
L 203.976468 223.92554 
L 204.388265 223.905565 
L 204.546649 223.922651 
L 204.831739 223.993889 
L 205.116829 223.945494 
L 205.987939 223.992425 
L 206.241353 223.99554 
L 206.431413 224.051518 
L 206.637311 224.057566 
L 207.856864 224.025615 
L 207.951895 223.992902 
L 207.983571 224.032892 
L 208.236985 224.242802 
L 208.56959 224.224987 
L 209.013064 224.157872 
L 209.409023 224.254679 
L 210.929505 224.395232 
L 211.16708 224.368583 
L 211.863968 224.265805 
L 212.925137 224.276689 
L 213.273581 224.442963 
L 213.495318 224.424523 
L 213.796247 224.327393 
L 215.332567 224.365304 
L 215.649334 224.404114 
L 215.886909 224.428932 
L 216.140323 224.443786 
L 216.615473 224.350664 
L 217.090624 224.275181 
L 217.359876 224.339576 
L 218.120117 224.384868 
L 218.326015 224.383492 
L 218.579429 224.453974 
L 218.832843 224.341687 
L 219.117933 224.232998 
L 219.783144 224.300574 
L 219.941527 224.36486 
L 220.099911 224.350532 
L 220.907667 224.332125 
L 221.050212 224.361729 
L 221.06605 224.347253 
L 221.224434 224.354688 
L 221.477847 224.203405 
L 221.604554 224.246882 
L 221.968836 224.392506 
L 222.301442 224.384079 
L 222.50734 224.392358 
L 223.109198 224.417894 
L 223.299258 224.456929 
L 223.742732 224.390593 
L 224.011984 224.460208 
L 224.502973 224.515798 
L 224.835578 224.440715 
L 225.10483 224.445837 
L 225.342405 224.481439 
L 225.579981 224.489401 
L 225.801718 224.509898 
L 226.498605 224.400693 
L 226.83121 224.292426 
L 226.989594 224.31596 
L 227.369714 224.335672 
L 228.478399 224.392172 
L 228.589268 224.499238 
L 228.636783 224.456414 
L 228.763489 224.466514 
L 228.921873 224.420729 
L 229.064418 224.127341 
L 229.555407 223.113814 
L 230.141426 222.907643 
L 230.442355 223.021695 
L 231.519363 223.054616 
L 232.342957 223.040004 
L 232.818108 223.212447 
L 233.324935 223.241119 
L 233.483318 223.250742 
L 233.784247 223.338036 
L 234.401943 223.355056 
L 234.639518 223.388586 
L 235.193861 223.50181 
L 235.399759 223.629449 
L 235.463112 223.644852 
L 235.494789 223.600553 
L 235.605658 223.512442 
L 235.653173 223.546959 
L 235.922425 223.618719 
L 236.049132 223.615593 
L 236.650989 223.639412 
L 237.126139 223.602335 
L 238.345693 223.774213 
L 238.583268 223.787176 
L 238.963388 223.864693 
L 239.913689 223.90778 
L 240.072073 223.884838 
L 240.341325 223.928337 
L 240.547224 223.952156 
L 240.800637 223.980521 
L 241.83013 224.107108 
L 242.273604 224.059727 
L 242.669563 224.07077 
L 242.954653 224.055488 
L 243.334774 224.113233 
L 243.651541 224.129211 
L 244.475135 224.15025 
L 245.156184 224.140199 
L 245.346244 224.114379 
L 246.090647 224.245478 
L 246.502444 224.290797 
L 246.898403 224.251564 
L 247.326038 224.123141 
L 247.50026 224.066817 
L 247.626967 224.037196 
L 247.642805 224.05573 
L 247.753674 224.118332 
L 247.785351 224.09261 
L 247.943734 224.106099 
L 248.339693 224.244968 
L 248.862359 224.263518 
L 249.289994 224.252721 
L 249.464216 224.263721 
L 249.606761 224.232614 
L 249.860175 224.170445 
L 250.00272 224.157877 
L 250.145265 224.173263 
L 250.351164 224.180792 
L 250.525386 224.192899 
L 250.794638 224.237461 
L 251.238111 224.246745 
L 251.53904 224.291636 
L 251.82413 224.240795 
L 252.267604 224.145721 
L 252.489341 224.254843 
L 252.711078 224.269412 
L 252.853623 224.190859 
L 252.964492 224.24408 
L 253.249582 224.351025 
L 253.677218 224.358406 
L 254.437459 224.38886 
L 254.643357 224.337328 
L 254.960124 224.309879 
L 255.181861 224.347231 
L 255.466951 224.373359 
L 257.145817 224.327974 
L 257.39923 224.2122 
L 257.541776 224.271913 
L 257.557614 224.256719 
L 257.700159 224.178489 
L 257.731836 224.205527 
L 257.890219 224.19751 
L 258.127795 224.174618 
L 258.381208 224.24045 
L 258.84052 224.243471 
L 259.188964 224.352956 
L 259.632438 224.253089 
L 259.743307 224.163383 
L 259.885852 224.074537 
L 259.90169 224.086628 
L 260.075912 224.109976 
L 260.281811 224.145365 
L 260.566901 224.203021 
L 261.786454 224.302361 
L 261.944838 224.270191 
L 262.103221 224.273799 
L 262.245766 224.250808 
L 262.451665 224.171202 
L 262.68924 224.168219 
L 262.847624 224.193179 
L 263.085199 224.15076 
L 263.576188 224.281064 
L 263.782086 224.284316 
L 264.019662 224.267532 
L 264.288914 224.356065 
L 264.510651 224.296812 
L 264.906609 224.22417 
L 265.09667 224.217979 
L 265.270892 224.166492 
L 265.508467 224.250429 
L 265.682689 224.320111 
L 265.936102 224.347456 
L 266.458768 224.320484 
L 266.91808 224.486166 
L 267.725836 224.291548 
L 269.056258 224.505484 
L 269.293833 224.432507 
L 269.6106 224.611662 
L 269.753145 224.534589 
L 269.990721 224.455794 
L 270.291649 224.446555 
L 270.513386 224.384281 
L 270.735123 224.410903 
L 271.178597 224.42755 
L 271.511202 224.425137 
L 271.622071 224.384726 
L 271.796293 224.319409 
L 272.049706 224.368566 
L 272.920816 224.408852 
L 273.285098 224.345438 
L 273.83944 224.355637 
L 274.061177 224.333353 
L 274.457136 224.391974 
L 274.821418 224.45183 
L 275.043155 224.409422 
L 275.1857 224.323905 
L 275.344084 224.315225 
L 275.581659 224.309786 
L 275.898426 224.252716 
L 276.088486 224.275066 
L 276.215193 224.352281 
L 276.373576 224.376238 
L 276.595313 224.313553 
L 278.717653 224.235937 
L 278.876036 224.213845 
L 279.050258 224.242676 
L 279.271995 224.317961 
L 279.588762 224.210259 
L 279.842176 224.278482 
L 280.38068 224.195355 
L 280.618255 224.203509 
L 280.887507 224.183682 
L 281.077567 224.200126 
L 281.251789 224.257969 
L 281.473526 224.259839 
L 281.932838 224.248905 
L 282.154575 224.283795 
L 282.265444 224.363845 
L 282.455504 224.392578 
L 283.057361 224.276497 
L 283.294936 224.308673 
L 284.451136 224.313805 
L 284.625358 224.348563 
L 284.910448 224.348328 
L 285.939941 224.311486 
L 286.114163 224.253264 
L 286.256708 224.257629 
L 286.541799 224.30008 
L 286.731859 224.342049 
L 288.965067 224.317144 
L 289.139288 224.382236 
L 289.503571 224.355615 
L 290.152943 224.44451 
L 290.628094 224.367881 
L 290.786477 224.360928 
L 290.992376 224.36628 
L 291.198274 224.303124 
L 291.356658 224.327667 
L 291.990192 224.330644 
L 292.386151 224.443791 
L 292.560373 224.51219 
L 293.478997 224.263129 
L 293.653219 224.261319 
L 294.2234 224.311431 
L 294.429298 224.312116 
L 294.904449 224.399969 
L 295.173701 224.364728 
L 295.427114 224.319963 
L 295.648851 224.327425 
L 296.599152 224.372344 
L 297.723675 224.284453 
L 298.040442 224.118392 
L 298.879875 224.198903 
L 299.054097 224.187767 
L 299.212481 224.206503 
L 299.545086 224.227383 
L 299.830176 224.149417 
L 300.27365 224.232877 
L 300.717124 224.091749 
L 301.065568 224.137452 
L 301.271466 224.215671 
L 301.778294 224.201519 
L 302.554373 224.019885 
L 302.712756 223.949458 
L 303.805603 223.560475 
L 304.249077 223.64846 
L 304.740065 223.43124 
L 305.246893 223.672427 
L 305.801235 223.357293 
L 306.387254 222.95453 
L 306.688183 223.069356 
L 307.115818 223.060259 
L 307.369232 223.033336 
L 307.685999 223.193935 
L 307.876059 223.188238 
L 308.129473 223.182974 
L 308.382886 223.170089 
L 308.525432 223.072157 
L 308.652138 223.090027 
L 308.873875 223.138428 
L 309.966722 223.235471 
L 310.188459 223.273158 
L 310.536902 223.391278 
L 311.265467 223.295403 
L 311.42385 223.274358 
L 311.899001 223.339056 
L 312.120738 223.414615 
L 312.326636 223.374379 
L 312.532535 223.420307 
L 313.451159 223.470204 
L 313.73625 223.533514 
L 313.957986 223.598463 
L 314.227238 223.632356 
L 314.528167 223.675251 
L 315.320085 223.793448 
L 315.811074 223.722846 
L 316.016972 223.765818 
L 316.286224 223.682681 
L 316.492123 223.721119 
L 316.99895 223.702722 
L 317.220687 223.828854 
L 317.236525 223.810101 
L 317.442424 223.703024 
L 317.790868 223.832506 
L 317.933413 223.832944 
L 318.139312 223.771965 
L 318.313533 223.689091 
L 318.788684 223.426508 
L 319.216319 223.373973 
L 319.327188 222.940416 
L 319.612278 221.957914 
L 321.13276 219.131377 
L 321.845486 218.163761 
L 322.162253 217.803011 
L 322.273121 217.68063 
L 322.716595 216.978564 
L 323.128392 216.779455 
L 323.460998 216.238531 
L 323.63522 216.096191 
L 323.777765 215.960277 
L 323.999502 215.768955 
L 324.173724 215.512716 
L 324.474652 215.23733 
L 325.630852 214.188557 
L 326.137679 213.731142 
L 326.533638 213.356526 
L 328.655977 211.986131 
L 328.909391 211.812213 
L 329.11529 211.706896 
L 330.160621 211.041545 
L 330.46155 210.85433 
L 330.619933 210.849121 
L 330.762478 210.791195 
L 331.110922 210.553282 
L 331.285144 210.402991 
L 331.522719 210.240456 
L 332.457182 209.949229 
L 332.631404 209.873181 
L 332.916494 209.758482 
L 333.328291 209.6025 
L 333.961825 209.401417 
L 334.088532 209.343432 
L 334.278593 209.27244 
L 334.452814 209.228157 
L 334.722066 209.132233 
L 334.896288 209.133456 
L 335.213055 208.946641 
L 335.3556 208.902665 
L 335.577337 208.923271 
L 336.258387 208.815859 
L 336.41677 208.707861 
L 336.590992 208.763478 
L 336.70186 208.76907 
L 336.717699 208.75063 
L 336.891921 208.683482 
L 337.034466 208.647369 
L 337.224526 208.598343 
L 337.430425 208.509136 
L 337.984767 208.292289 
L 338.238181 208.240955 
L 338.444079 208.240072 
L 338.634139 208.116819 
L 339.061775 207.872649 
L 339.679471 207.695628 
L 339.806177 207.662465 
L 340.107106 207.421607 
L 340.313005 207.399674 
L 340.471388 207.352984 
L 340.788155 207.273345 
L 341.358336 207.215957 
L 341.51672 207.072323 
L 341.548396 207.100874 
L 341.643426 207.134349 
L 341.675103 207.099838 
L 341.960193 206.905818 
L 342.150254 206.860828 
L 342.308637 206.860586 
L 342.514536 206.810294 
L 342.862979 206.692425 
L 343.924149 206.242556 
L 344.430976 205.958134 
L 345.603014 205.713766 
L 345.888105 205.628178 
L 346.173195 205.633464 
L 346.41077 205.520887 
L 346.648346 205.430802 
L 346.838406 205.419523 
L 347.313556 205.438517 
L 348.263858 205.128367 
L 348.453918 205.077658 
L 348.754847 205.105546 
L 348.91323 205.01862 
L 349.087452 204.901815 
L 349.10329 204.9139 
L 349.388381 205.045806 
L 349.752663 205.038255 
L 349.9744 204.955348 
L 350.180298 204.836104 
L 350.307005 204.866196 
L 350.433712 204.833214 
L 350.655449 204.724228 
L 350.813832 204.658013 
L 351.003893 204.631095 
L 355.581176 203.179658 
L 355.787075 203.14451 
L 356.547316 202.912886 
L 357.260042 202.418043 
L 357.418425 202.340318 
L 357.624324 202.231447 
L 358.305373 201.975828 
L 360.443551 200.585469 
L 360.554419 200.493509 
L 360.791994 200.266727 
L 360.966216 200.206855 
L 361.187953 200.069027 
L 361.330498 199.975626 
L 362.122416 199.142388 
L 364.545684 196.923765 
L 364.814936 196.742636 
L 364.957481 196.559775 
L 365.305925 196.14519 
L 365.591015 195.756673 
L 366.018651 194.987075 
L 366.367094 194.591764 
L 368.774524 189.43582 
L 369.819855 184.977463 
L 370.073269 182.630784 
L 370.168299 179.897035 
L 370.231652 168.599697 
L 370.437551 53.568 
L 370.548419 81.661379 
L 370.912701 186.284016 
L 371.1186 198.855054 
L 371.181953 199.242217 
L 371.229468 199.104301 
L 371.372014 197.305636 
L 373.050879 167.123949 
L 373.130071 156.051514 
L 373.351808 74.773962 
L 373.462676 90.467915 
L 373.937827 180.124818 
L 374.159564 190.603827 
L 374.302109 192.136949 
L 374.333785 192.078492 
L 374.492169 190.835391 
L 376.31358 174.385161 
L 376.582831 172.116615 
L 376.97879 167.018862 
L 377.057982 159.736798 
L 377.184689 116.800292 
L 377.327234 79.296385 
L 377.358911 80.737991 
L 377.501456 105.617547 
L 377.94493 177.224216 
L 378.198343 190.282426 
L 378.404242 192.485049 
L 378.546787 192.647814 
L 378.578464 192.623381 
L 378.673494 192.349294 
L 379.813855 186.157791 
L 380.162299 185.087293 
L 380.970055 183.670674 
L 381.381852 183.259106 
L 381.587751 183.260263 
L 381.872841 183.003404 
L 382.45886 183.282004 
L 382.775627 183.623206 
L 383.472515 184.489556 
L 383.90015 185.102246 
L 384.074372 185.443217 
L 384.486169 186.409599 
L 384.882128 187.149309 
L 386.323418 190.345324 
L 386.608509 190.983785 
L 388.604141 195.988062 
L 389.126807 197.398501 
L 390.156299 199.755796 
L 390.425551 200.171389 
L 390.932379 201.474515 
L 391.930195 204.362278 
L 392.294477 205.135068 
L 392.468699 205.441451 
L 392.912173 206.419556 
L 393.165586 207.021531 
L 393.735767 208.373475 
L 393.989181 208.792654 
L 394.591038 209.860685 
L 397.331073 213.829995 
L 397.853739 214.254833 
L 397.964607 214.391399 
L 398.170506 214.568092 
L 398.487273 214.949837 
L 398.487273 214.949837 
" clip-path="url(#p543587b456)" style="fill: none; stroke: #ff7f0e; stroke-width: 1.5; stroke-linecap: square"/>
   </g>
   <g id="line2d_14">
    <path d="M 73.832727 206.645522 
L 74.006949 206.628491 
L 74.292039 206.613779 
L 74.545453 206.523541 
L 75.099795 206.52047 
L 75.527431 206.428927 
L 76.366864 206.325748 
L 76.525247 206.325041 
L 76.937044 206.196903 
L 77.237973 206.175315 
L 77.64977 206.101357 
L 77.808154 206.062524 
L 77.966537 206.005164 
L 78.140759 206.056778 
L 79.708756 205.96314 
L 79.914655 205.919548 
L 81.49849 205.886215 
L 81.672712 205.832572 
L 83.082325 205.602922 
L 83.209032 205.559599 
L 83.494122 205.510365 
L 83.842566 205.566623 
L 83.969273 205.517021 
L 84.111818 205.534409 
L 84.333555 205.544076 
L 84.729514 205.410745 
L 84.887897 205.426015 
L 85.141311 205.367087 
L 85.53727 205.431098 
L 85.759007 205.394059 
L 86.091612 205.408902 
L 86.535086 205.485322 
L 86.836015 205.496777 
L 87.422034 205.302357 
L 87.817992 205.326845 
L 88.055568 205.373124 
L 88.530718 205.280298 
L 88.673263 205.20816 
L 88.958354 205.149385 
L 89.164252 205.178079 
L 89.338474 205.206241 
L 89.797786 204.931951 
L 90.082877 204.917404 
L 90.33629 205.028528 
L 91.001501 204.916231 
L 91.334107 204.821085 
L 91.524167 204.892521 
L 91.840934 204.895411 
L 92.078509 204.907518 
L 92.268569 204.877733 
L 92.442791 204.886517 
L 92.585336 204.894934 
L 92.74372 204.940719 
L 93.044649 204.987206 
L 93.709859 204.985205 
L 93.836566 204.91617 
L 94.010788 204.955732 
L 94.438424 204.933453 
L 94.612645 204.821052 
L 94.866059 204.798033 
L 95.024443 204.800468 
L 95.166988 204.771527 
L 95.642138 204.718334 
L 95.863875 204.758609 
L 96.148966 204.718751 
L 97.241812 204.574968 
L 97.558579 204.604841 
L 97.907023 204.462858 
L 98.31882 204.491628 
L 98.952354 204.428664 
L 99.126576 204.445755 
L 99.459181 204.245517 
L 100.029362 204.16749 
L 100.330291 203.982819 
L 100.947986 203.840183 
L 101.090532 203.868861 
L 101.312269 203.975433 
L 101.803257 203.827254 
L 102.896104 203.675033 
L 103.054487 203.638097 
L 103.292063 203.631775 
L 104.147334 203.642786 
L 104.432424 203.525581 
L 104.796706 203.471691 
L 105.002605 203.401023 
L 105.319372 203.452582 
L 105.572785 203.30341 
L 106.063774 203.282475 
L 106.285511 203.264287 
L 106.459733 203.204053 
L 106.982399 202.941454 
L 107.283327 202.927658 
L 107.410034 202.872545 
L 107.663448 202.844575 
L 107.948538 202.926155 
L 108.787971 202.920606 
L 108.914678 202.906328 
L 109.199768 202.783925 
L 109.579888 202.664159 
L 112.668367 202.44507 
L 112.890104 202.317573 
L 113.016811 202.382138 
L 113.127679 202.415214 
L 113.159356 202.383537 
L 113.460285 202.234622 
L 114.299717 202.177382 
L 114.933251 202.074374 
L 115.059958 202.165412 
L 115.091635 202.142591 
L 115.265857 202.13827 
L 115.535109 202.231606 
L 115.677654 202.238877 
L 115.851876 202.210929 
L 116.358703 201.879372 
L 117.689125 201.61385 
L 118.576073 201.670279 
L 119.003708 201.625661 
L 119.225445 201.632696 
L 119.510535 201.567621 
L 119.906494 201.546127 
L 120.698412 201.311964 
L 120.935987 201.39242 
L 121.205239 201.307741 
L 121.331946 201.3577 
L 121.68039 201.439949 
L 121.917965 201.401533 
L 124.341233 201.348839 
L 124.610485 201.377511 
L 125.053959 201.236892 
L 125.22818 201.265926 
L 125.386564 201.310286 
L 125.544948 201.353878 
L 125.560786 201.337889 
L 125.655816 201.319492 
L 125.687493 201.364109 
L 125.845876 201.470238 
L 125.861715 201.460094 
L 126.352704 201.216445 
L 126.716986 201.34199 
L 127.493065 200.998315 
L 128.475043 201.055396 
L 129.029385 200.934035 
L 129.346152 201.07876 
L 129.567889 201.033118 
L 130.438998 200.978203 
L 130.581544 200.889593 
L 130.739927 200.839937 
L 131.009179 200.83646 
L 131.436815 200.765545 
L 131.626875 200.747384 
L 132.038672 200.810727 
L 132.212894 200.794371 
L 132.640529 200.751859 
L 133.321579 200.821463 
L 133.4958 200.866388 
L 133.765052 200.874108 
L 134.050143 200.882399 
L 134.430263 200.96495 
L 134.636162 201.000827 
L 134.889575 201.09549 
L 135.348888 201.028813 
L 135.554786 201.145294 
L 136.029937 201.197298 
L 136.330865 201.131537 
L 137.027753 201.244443 
L 137.851347 201.030458 
L 138.168114 201.061773 
L 138.453205 201.068781 
L 139.007547 201.178545 
L 139.245122 201.214383 
L 139.656919 201.258759 
L 139.894495 201.241279 
L 140.005363 201.2856 
L 140.03704 201.243483 
L 140.195423 201.189478 
L 140.32213 201.082335 
L 140.41716 201.005542 
L 140.464675 201.06066 
L 140.718089 201.277079 
L 141.019018 201.278538 
L 141.256593 201.352622 
L 141.462492 201.376754 
L 141.66839 201.355748 
L 141.826774 201.398314 
L 142.206894 201.451573 
L 142.555338 201.412137 
L 143.046327 201.421245 
L 143.315579 201.495511 
L 144.123335 201.511741 
L 144.566809 201.552399 
L 144.756869 201.467666 
L 144.962767 201.382259 
L 145.627978 201.35629 
L 145.865554 201.282129 
L 146.831693 201.402646 
L 146.990077 201.396987 
L 147.496904 201.466197 
L 147.956216 201.3429 
L 148.573912 201.44155 
L 148.890679 201.4386 
L 149.159931 201.452615 
L 149.46086 201.456557 
L 149.698435 201.480262 
L 150.284454 201.376343 
L 150.617059 201.387868 
L 151.408977 201.535571 
L 151.519845 201.594522 
L 151.551522 201.567594 
L 151.709906 201.557033 
L 151.931642 201.552942 
L 152.042511 201.628452 
L 152.232571 201.690737 
L 153.6897 201.353746 
L 154.228204 201.446134 
L 154.370749 201.474203 
L 154.465779 201.485805 
L 154.497456 201.442986 
L 154.703354 201.33774 
L 155.020121 201.341135 
L 155.241858 201.299884 
L 155.41608 201.297016 
L 156.382219 201.416683 
L 156.66731 201.394026 
L 157.950216 201.542985 
L 158.092762 201.518595 
L 158.235307 201.504388 
L 158.251145 201.52228 
L 158.472882 201.641601 
L 158.647104 201.605675 
L 158.837164 201.625985 
L 159.011386 201.649086 
L 159.153931 201.616625 
L 159.328153 201.665503 
L 159.486537 201.629494 
L 159.771627 201.61447 
L 160.262616 201.553726 
L 160.547706 201.55729 
L 160.959503 201.612918 
L 161.434654 201.622821 
L 161.624714 201.686772 
L 162.05235 201.567648 
L 162.464147 201.651098 
L 162.654207 201.733347 
L 162.81259 201.724728 
L 163.034327 201.672905 
L 163.556993 201.736105 
L 163.699538 201.740459 
L 163.921275 201.761186 
L 164.317234 201.832496 
L 164.491456 201.843385 
L 164.744869 201.953352 
L 165.109152 202.126218 
L 165.536787 202.12017 
L 165.869392 202.020594 
L 166.043614 201.98702 
L 166.534603 202.218101 
L 166.9464 202.278949 
L 167.81751 202.288057 
L 168.466882 202.314288 
L 168.862841 202.369132 
L 169.242962 202.379918 
L 169.54389 202.4457 
L 170.145748 202.496991 
L 170.351646 202.531015 
L 170.60506 202.398879 
L 170.79512 202.364148 
L 170.953504 202.362936 
L 171.08021 202.346267 
L 171.159402 202.318587 
L 171.191079 202.353488 
L 171.333624 202.476884 
L 171.381139 202.436554 
L 171.571199 202.432776 
L 172.125542 202.532018 
L 172.378955 202.544136 
L 172.569016 202.527884 
L 172.901621 202.50277 
L 173.139196 202.55468 
L 173.329256 202.480826 
L 173.741054 202.454211 
L 173.946952 202.471313 
L 174.105336 202.461163 
L 174.453779 202.569589 
L 174.865577 202.4512 
L 175.514949 202.498822 
L 175.752524 202.438068 
L 176.148483 202.466213 
L 176.607795 202.473018 
L 176.750341 202.481435 
L 176.956239 202.449835 
L 177.114623 202.507497 
L 177.273006 202.432003 
L 177.668965 202.368205 
L 177.954055 202.448108 
L 178.112439 202.442389 
L 178.254984 202.388 
L 178.413368 202.176658 
L 178.460883 202.219143 
L 178.635104 202.2329 
L 178.999387 202.267966 
L 179.205285 202.217037 
L 181.153402 202.286653 
L 181.454331 202.269556 
L 181.691906 202.330985 
L 182.008673 202.324312 
L 182.23041 202.351931 
L 184.020144 202.339566 
L 184.35275 202.342917 
L 184.63784 202.44195 
L 184.938769 202.475974 
L 185.065475 202.534963 
L 185.9841 202.478655 
L 186.142483 202.475573 
L 186.26919 202.42771 
L 186.45925 202.49108 
L 187.171976 202.643005 
L 187.298683 202.707335 
L 187.33036 202.670832 
L 187.472905 202.639342 
L 187.678804 202.648669 
L 187.916379 202.713004 
L 188.153954 202.732442 
L 188.423206 202.597801 
L 188.534075 202.541691 
L 188.565751 202.568794 
L 188.724135 202.561293 
L 189.120094 202.64476 
L 189.2468 202.608471 
L 189.389346 202.673607 
L 189.848658 202.735634 
L 190.149587 202.663945 
L 190.418839 202.701676 
L 190.909827 202.810469 
L 191.289948 202.70184 
L 191.511685 202.64964 
L 192.113542 202.714117 
L 192.446148 202.643482 
L 192.572854 202.681854 
L 192.7154 202.673837 
L 192.857945 202.598706 
L 192.889622 202.627372 
L 193.127197 202.684036 
L 193.348934 202.711474 
L 193.491479 202.683395 
L 193.792408 202.611213 
L 194.204205 202.665865 
L 194.457618 202.607709 
L 194.790224 202.759212 
L 194.964446 202.656587 
L 195.328728 202.540473 
L 195.487111 202.587108 
L 195.69301 202.668957 
L 196.865048 202.445936 
L 197.086785 202.47508 
L 197.387714 202.518957 
L 197.530259 202.474142 
L 197.767834 202.326341 
L 197.942056 202.347309 
L 198.116278 202.399784 
L 199.161609 202.245183 
L 199.937688 202.282974 
L 200.191102 202.203543 
L 200.428677 202.199129 
L 200.777121 202.262916 
L 200.967181 202.218529 
L 201.394817 202.24101 
L 201.964997 202.262696 
L 202.851945 202.352638 
L 202.978652 202.300706 
L 203.010329 202.339786 
L 203.184551 202.371775 
L 203.897276 202.257537 
L 204.229882 202.297625 
L 204.499134 202.242803 
L 204.610002 202.336134 
L 204.752547 202.310993 
L 204.863416 202.373354 
L 205.037638 202.394465 
L 205.227698 202.319766 
L 205.433597 202.282645 
L 205.623657 202.255327 
L 205.972101 202.351608 
L 206.130484 202.276915 
L 206.65315 202.211066 
L 207.175815 202.234293 
L 207.619289 202.174334 
L 208.031086 202.228289 
L 208.205308 202.256906 
L 208.347853 202.306486 
L 208.648782 202.36775 
L 208.965549 202.279201 
L 209.409023 202.292723 
L 209.82082 202.383652 
L 209.979204 202.408376 
L 210.248456 202.413859 
L 210.596899 202.473725 
L 210.992858 202.685911 
L 211.26211 202.679655 
L 211.531362 202.594708 
L 212.766754 202.443765 
L 214.065499 202.528514 
L 214.334751 202.530516 
L 214.461457 202.470808 
L 214.619841 202.463675 
L 214.794063 202.481303 
L 215.190022 202.462737 
L 215.348405 202.414983 
L 216.045293 202.431921 
L 216.251191 202.500692 
L 216.567958 202.295629 
L 216.694665 202.252733 
L 216.726342 202.284109 
L 217.02727 202.430589 
L 217.534098 202.465484 
L 217.739996 202.575007 
L 217.882541 202.658676 
L 218.135955 202.73497 
L 218.611106 202.756328 
L 218.880358 202.812306 
L 219.102095 202.747593 
L 219.323832 202.738348 
L 220.369163 202.96365 
L 220.464193 202.94107 
L 220.49587 202.969303 
L 220.622576 202.929045 
L 220.733445 202.971974 
L 220.923505 203.021652 
L 221.398656 203.053466 
L 222.143058 202.942671 
L 222.808269 203.063303 
L 223.457641 202.943647 
L 223.8536 203.034324 
L 224.455458 202.927427 
L 224.81974 203.094766 
L 225.675011 203.04046 
L 225.865071 202.987316 
L 226.54612 203.143507 
L 227.89238 203.136439 
L 228.098279 203.199869 
L 228.383369 203.124474 
L 228.668459 203.248237 
L 228.795166 203.378317 
L 228.826843 203.355402 
L 229.016903 203.321313 
L 229.159448 203.304523 
L 229.919689 203.170188 
L 231.060051 203.178572 
L 231.218434 203.168806 
L 231.376818 203.187987 
L 231.503524 203.232511 
L 231.598555 203.225958 
L 231.614393 203.201624 
L 231.772776 203.056668 
L 231.804453 203.076907 
L 231.946998 203.035322 
L 232.137059 203.01658 
L 232.596371 203.023434 
L 232.770593 203.015609 
L 233.198228 203.261188 
L 233.546672 203.137683 
L 233.879277 203.121727 
L 234.417781 203.080668 
L 234.972124 203.000909 
L 236.16 202.995535 
L 236.318384 203.046875 
L 236.54012 203.101993 
L 237.110301 202.918923 
L 238.361531 203.151627 
L 238.773328 203.036994 
L 239.216802 203.223875 
L 239.992881 203.048564 
L 240.436355 203.124156 
L 240.610577 203.02356 
L 240.626415 203.037241 
L 240.816476 203.086733 
L 241.022374 203.081655 
L 241.592555 203.134158 
L 241.798453 203.187455 
L 241.956837 203.152883 
L 242.495341 203.005487 
L 242.685401 203.045159 
L 242.859623 203.068358 
L 243.065522 203.112597 
L 243.303097 203.097623 
L 244.744387 202.813628 
L 245.457113 202.716179 
L 245.742203 202.843583 
L 246.93008 202.981405 
L 247.072625 202.942287 
L 247.389392 202.802815 
L 247.50026 202.871345 
L 247.69032 202.920047 
L 248.007088 202.803242 
L 248.608945 202.768709 
L 248.957389 202.719699 
L 249.226641 202.761202 
L 249.765145 202.72771 
L 250.081912 202.607868 
L 250.968859 202.611898 
L 251.190596 202.670229 
L 252.267604 202.632773 
L 252.69524 202.440546 
L 252.837785 202.411786 
L 252.98033 202.445092 
L 253.186229 202.431954 
L 253.993985 202.448404 
L 254.263237 202.323336 
L 254.880932 202.329718 
L 255.245215 202.186391 
L 255.942102 202.410054 
L 256.084647 202.276196 
L 256.670666 201.481298 
L 257.240847 201.165423 
L 257.446745 201.191485 
L 257.715997 201.141385 
L 257.921896 201.1786 
L 258.317855 201.246428 
L 258.682137 201.212393 
L 259.52157 201.19273 
L 259.679953 201.210408 
L 259.933367 201.15296 
L 260.899506 201.258995 
L 262.59421 201.392491 
L 263.338613 201.351514 
L 263.687056 201.406418 
L 263.892955 201.379561 
L 264.083015 201.32673 
L 264.399782 201.32889 
L 264.859094 201.435726 
L 265.777719 201.34029 
L 266.506283 201.415713 
L 266.72802 201.354569 
L 267.028949 201.414347 
L 267.440746 201.435151 
L 267.820866 201.284657 
L 267.995088 201.286072 
L 268.16931 201.272265 
L 268.897874 201.371419 
L 269.056258 201.336699 
L 269.404701 201.181385 
L 269.689792 201.289987 
L 269.927367 201.313581 
L 270.798476 200.950819 
L 271.05189 201.036928 
L 271.226112 201.12777 
L 271.558717 201.25638 
L 271.748778 201.239628 
L 271.938838 201.10185 
L 272.144736 201.114615 
L 272.667402 201.138073 
L 272.889139 200.996802 
L 273.063361 200.980182 
L 273.269259 200.993325 
L 273.45932 200.996522 
L 273.55435 201.084046 
L 273.74441 201.157187 
L 274.061177 201.094612 
L 274.520489 201.095353 
L 274.758065 201.087533 
L 274.979801 201.153563 
L 275.154023 201.124162 
L 275.454952 201.144033 
L 275.629174 200.98368 
L 275.914264 200.895482 
L 276.373576 200.921944 
L 276.53196 200.918276 
L 276.896242 200.903312 
L 277.086302 200.886062 
L 277.403069 200.853491 
L 277.59313 200.859846 
L 278.020765 200.786902 
L 278.194987 200.756552 
L 278.93939 200.851298 
L 279.081935 200.883249 
L 279.097773 200.866207 
L 279.31951 200.780273 
L 279.667954 200.766916 
L 279.921367 200.81808 
L 280.317326 200.754047 
L 280.744962 200.577074 
L 281.109244 200.591128 
L 281.362657 200.569792 
L 281.600233 200.729975 
L 281.837808 200.799229 
L 283.199906 200.949827 
L 283.26326 200.938082 
L 283.294936 200.982644 
L 283.437482 201.100754 
L 283.469158 201.069746 
L 283.627542 200.984404 
L 283.64338 200.998337 
L 283.960147 201.202671 
L 284.150207 201.204859 
L 284.641196 201.208867 
L 284.98964 201.324855 
L 285.322246 201.298683 
L 285.496467 201.300186 
L 285.623174 201.269731 
L 285.829073 201.211729 
L 286.288385 201.358637 
L 286.589314 201.500237 
L 286.906081 201.597362 
L 287.745513 201.694986 
L 287.87222 201.80333 
L 287.919735 201.755593 
L 288.030604 201.796498 
L 288.141472 201.832649 
L 288.173149 201.794168 
L 288.363209 201.728111 
L 288.569108 201.773293 
L 289.709469 201.839383 
L 289.899529 201.874733 
L 290.327165 202.065825 
L 290.46971 202.066615 
L 290.691447 202.074757 
L 290.913184 202.057666 
L 291.087406 202.050796 
L 291.293304 202.076534 
L 291.752617 202.126794 
L 291.911 202.162649 
L 292.19609 202.159101 
L 292.338636 202.193163 
L 292.797948 202.434219 
L 293.003846 202.433199 
L 293.510674 202.444379 
L 293.890794 202.560186 
L 294.144208 202.638053 
L 294.460975 202.674885 
L 295.458791 202.88548 
L 295.66469 202.790571 
L 295.85475 202.773337 
L 296.108163 202.684859 
L 296.361577 202.703611 
L 296.630829 202.961511 
L 296.900081 203.147328 
L 297.026788 203.227516 
L 297.327717 203.394075 
L 297.723675 203.505134 
L 298.072119 203.562247 
L 298.293856 203.530214 
L 298.73733 203.6577 
L 298.974905 203.739691 
L 299.212481 203.768966 
L 299.339187 203.885848 
L 299.481732 203.885497 
L 300.321165 203.986246 
L 301.762455 204.461542 
L 301.968354 204.582629 
L 301.984192 204.568668 
L 302.221767 204.486638 
L 302.443504 204.464184 
L 302.791948 204.516095 
L 303.0612 204.632104 
L 303.219584 204.594851 
L 303.583866 204.61651 
L 303.758088 204.599062 
L 303.900633 204.600235 
L 304.581682 204.703803 
L 305.009317 204.736248 
L 305.199378 204.701736 
L 305.421115 204.769032 
L 305.642852 204.929489 
L 308.018604 205.107394 
L 308.240341 205.22229 
L 308.667977 205.066648 
L 309.016421 205.042653 
L 309.206481 205.103078 
L 309.444056 205.124266 
L 309.665793 205.174498 
L 309.840015 205.131065 
L 310.109267 205.046146 
L 310.220135 205.110585 
L 310.378519 205.126541 
L 310.536902 205.222816 
L 310.821993 205.326593 
L 311.392173 205.102969 
L 311.566395 205.173769 
L 311.645587 205.177426 
L 311.677264 205.123569 
L 311.772294 205.050916 
L 311.819809 205.089628 
L 312.057384 205.244662 
L 312.104899 205.18195 
L 312.184091 205.167134 
L 312.215768 205.204733 
L 312.358313 205.214855 
L 312.690918 205.240122 
L 312.86514 205.213111 
L 313.942148 205.000898 
L 314.11637 205.049803 
L 315.351762 205.126256 
L 315.684367 205.15433 
L 316.238709 205.059086 
L 316.460446 204.999894 
L 316.602991 205.011837 
L 316.745537 204.990803 
L 316.856405 204.976662 
L 316.872243 204.996528 
L 317.125657 205.177316 
L 318.614462 205.036868 
L 318.820361 205.057655 
L 320.515064 204.884521 
L 320.625933 204.932379 
L 320.84767 205.007889 
L 321.006053 204.987014 
L 321.148598 204.954114 
L 321.354497 204.86789 
L 321.655426 204.846121 
L 323.065039 204.922037 
L 323.223423 204.91458 
L 323.476836 204.91225 
L 323.682735 204.880529 
L 323.82528 204.829173 
L 323.841118 204.841033 
L 323.999502 204.822061 
L 324.474652 204.807459 
L 324.712228 204.884883 
L 324.902288 204.838999 
L 325.108187 204.805178 
L 325.250732 204.813918 
L 325.64669 204.965975 
L 326.010973 204.924423 
L 326.137679 204.899901 
L 326.343578 204.846577 
L 326.470285 204.762332 
L 326.644507 204.728352 
L 326.818729 204.715389 
L 327.008789 204.723538 
L 327.278041 204.734076 
L 327.626485 204.815338 
L 327.721515 204.856172 
L 327.753191 204.822829 
L 327.95909 204.733928 
L 328.434241 204.828169 
L 329.511248 204.586516 
L 331.158437 204.796191 
L 331.348497 204.69066 
L 331.601911 204.753191 
L 332.029546 204.67404 
L 332.219607 204.741649 
L 333.787604 204.643542 
L 333.930149 204.690062 
L 334.009341 204.694416 
L 334.041017 204.656137 
L 334.246916 204.567188 
L 335.149702 204.518968 
L 335.3556 204.545216 
L 335.704044 204.528723 
L 335.830751 204.580457 
L 336.210871 204.655167 
L 336.480123 204.535922 
L 336.717699 204.520328 
L 336.812729 204.60199 
L 336.971112 204.635394 
L 337.145334 204.642149 
L 337.588808 204.578231 
L 337.873898 204.557175 
L 338.111474 204.57311 
L 338.491594 204.559138 
L 338.91923 204.573718 
L 339.188482 204.485805 
L 342.150254 204.16056 
L 342.324475 204.119567 
L 342.467021 204.13821 
L 342.482859 204.118459 
L 342.641243 204.046579 
L 342.657081 204.058099 
L 342.862979 204.10622 
L 343.116393 204.060775 
L 343.480675 204.120301 
L 343.670735 204.090308 
L 343.686574 204.117395 
L 343.844957 204.260339 
L 343.860796 204.249175 
L 344.430976 203.889193 
L 344.621037 203.910802 
L 344.842773 203.862231 
L 345.444631 203.98373 
L 345.587176 203.984223 
L 345.74556 203.96019 
L 346.22071 203.980818 
L 346.474124 204.148502 
L 347.123496 204.032756 
L 347.28188 204.053252 
L 347.725354 204.125236 
L 347.804545 204.16136 
L 347.836222 204.124096 
L 348.010444 204.0555 
L 348.232181 204.065633 
L 348.422241 204.136038 
L 348.62814 204.089233 
L 348.754847 204.114379 
L 348.976583 204.211006 
L 349.182482 204.217536 
L 349.689309 204.161031 
L 350.196137 204.322914 
L 351.558235 204.440288 
L 351.843325 204.434833 
L 352.809465 204.448294 
L 352.983687 204.481539 
L 353.712251 204.47809 
L 353.933988 204.538768 
L 354.219078 204.643707 
L 354.409138 204.596348 
L 354.615037 204.599451 
L 354.947642 204.588901 
L 355.359439 204.59149 
L 355.660368 204.630382 
L 355.818752 204.5658 
L 356.056327 204.489731 
L 356.483962 204.642435 
L 356.721538 204.605417 
L 357.117497 204.432042 
L 358.574625 204.438057 
L 359.493249 204.346854 
L 359.635795 204.380998 
L 359.810016 204.311826 
L 360.015915 204.268404 
L 360.174299 204.275434 
L 360.332682 204.324712 
L 360.522742 204.363062 
L 360.649449 204.4474 
L 361.108761 204.55122 
L 361.40969 204.546636 
L 361.678942 204.537222 
L 361.869002 204.508105 
L 362.027386 204.509723 
L 362.233284 204.515124 
L 362.407506 204.472936 
L 364.355624 204.624098 
L 364.751582 204.583319 
L 364.894127 204.506439 
L 365.068349 204.513161 
L 365.511823 204.69293 
L 366.145357 204.696571 
L 366.335418 204.591906 
L 366.493801 204.574766 
L 367.000628 204.723735 
L 367.507456 204.601381 
L 367.760869 204.647808 
L 367.966768 204.694778 
L 368.71117 204.743979 
L 369.170483 204.797666 
L 369.550603 204.801948 
L 369.788178 204.757029 
L 370.041592 204.70564 
L 370.295006 204.639759 
L 371.197792 204.528147 
L 371.435367 204.463751 
L 371.593751 204.485125 
L 371.942194 204.568778 
L 372.892495 204.454874 
L 373.003364 204.516928 
L 373.035041 204.491886 
L 373.240939 204.46646 
L 373.510191 204.542891 
L 373.700251 204.535895 
L 373.842797 204.565258 
L 374.523846 204.846845 
L 374.587199 204.846149 
L 374.618876 204.797496 
L 374.761421 204.752352 
L 375.72756 204.96802 
L 376.076004 205.059892 
L 376.218549 205.106094 
L 376.234388 205.086535 
L 376.376933 205.017627 
L 376.392771 205.029849 
L 376.804568 205.282425 
L 376.994629 205.286708 
L 377.137174 205.283763 
L 377.422264 205.188787 
L 377.739031 205.195729 
L 377.929091 205.16295 
L 378.214182 205.271195 
L 378.657656 205.384452 
L 379.798017 205.303514 
L 380.162299 205.194868 
L 380.764157 205.282814 
L 380.906702 205.330047 
L 381.080924 205.409648 
L 381.651104 205.3138 
L 382.015386 205.445108 
L 382.17377 205.447208 
L 382.347992 205.461624 
L 382.506375 205.463477 
L 382.680597 205.455927 
L 383.155748 205.484917 
L 383.393323 205.545891 
L 383.725928 205.504432 
L 384.438654 205.379068 
L 384.739583 205.432118 
L 384.913805 205.410043 
L 385.43647 205.374034 
L 385.689884 205.405875 
L 386.529317 205.43356 
L 386.766892 205.403962 
L 386.988629 205.459409 
L 387.542971 205.525921 
L 387.764708 205.422852 
L 388.588303 205.434361 
L 389.0001 205.472738 
L 389.158483 205.449747 
L 389.586119 205.521106 
L 389.807856 205.544459 
L 390.077108 205.429283 
L 390.314683 205.384677 
L 390.488905 205.369982 
L 390.647288 205.35079 
L 390.884864 205.315155 
L 391.059085 205.263305 
L 391.249146 205.292026 
L 391.423368 205.3505 
L 391.581751 205.376957 
L 391.771811 205.387172 
L 391.946033 205.394805 
L 392.199447 205.299006 
L 392.452861 205.323193 
L 392.753789 205.172151 
L 393.023041 205.125313 
L 393.118071 205.112098 
L 393.13391 205.090357 
L 393.244778 205.029301 
L 393.276455 205.06668 
L 393.450677 205.15098 
L 393.719929 205.174262 
L 394.115887 205.18201 
L 394.290109 205.159951 
L 395.082027 205.200872 
L 395.398794 205.040169 
L 396.412449 205.037827 
L 396.570832 205.072432 
L 396.713377 205.043952 
L 397.521133 205.026647 
L 397.727032 205.034428 
L 397.964607 204.846138 
L 398.423919 204.941284 
L 398.487273 204.953687 
L 398.487273 204.953687 
" clip-path="url(#p543587b456)" style="fill: none; stroke: #2ca02c; stroke-width: 1.5; stroke-linecap: square"/>
   </g>
   <g id="line2d_15">
    <path d="M 73.832727 214.47015 
L 74.054464 214.489292 
L 74.38707 214.600569 
L 74.751352 214.321159 
L 75.73333 214.399482 
L 76.097612 214.458646 
L 76.192642 214.367843 
L 76.240157 214.412367 
L 76.509409 214.506455 
L 76.762822 214.482652 
L 76.937044 214.436263 
L 77.285488 214.329553 
L 77.681447 214.289339 
L 77.982376 214.253314 
L 78.394173 214.397233 
L 78.695101 214.475079 
L 79.043545 214.413963 
L 79.249444 214.507261 
L 79.391989 214.48303 
L 79.692918 214.342933 
L 79.930493 214.32191 
L 80.136391 214.326889 
L 81.371783 214.226611 
L 81.656873 213.957031 
L 81.751903 212.260207 
L 82.021155 208.266874 
L 82.670528 202.822472 
L 84.301878 192.501625 
L 85.458078 185.76531 
L 86.20248 179.857067 
L 86.392541 176.870655 
L 86.455894 169.623436 
L 86.550924 120.559134 
L 86.677631 54.329182 
L 86.725146 59.626693 
L 87.35868 198.253951 
L 87.45371 199.072466 
L 87.501225 198.987667 
L 87.64377 197.958825 
L 88.039729 192.754579 
L 88.673263 186.009957 
L 90.367967 173.840072 
L 90.621381 170.271041 
L 90.700572 164.127201 
L 90.811441 124.433669 
L 90.969824 67.29076 
L 91.001501 69.727645 
L 91.175723 112.617403 
L 91.540005 179.816403 
L 91.77758 192.866679 
L 91.983479 194.992509 
L 92.030994 194.895691 
L 92.411115 192.842311 
L 93.820728 184.420303 
L 95.056119 179.638529 
L 95.91139 176.037423 
L 96.624116 171.651428 
L 96.830015 169.141564 
L 96.909207 162.999027 
L 97.020075 124.276932 
L 97.178459 66.970027 
L 97.225974 70.340773 
L 97.447711 122.17681 
L 97.827831 182.232232 
L 98.065406 191.606459 
L 98.271305 193.124979 
L 98.382173 193.296962 
L 98.41385 193.272923 
L 98.60391 192.770283 
L 98.920677 191.206263 
L 99.649242 188.036567 
L 101.866611 180.112735 
L 102.611013 177.638998 
L 102.896104 176.810893 
L 103.672183 173.163947 
L 103.89392 170.168591 
L 103.973112 164.360404 
L 104.08398 127.968218 
L 104.258202 66.115696 
L 104.289879 68.167573 
L 104.448262 103.041681 
L 104.844221 176.594899 
L 105.081796 190.314958 
L 105.319372 193.454222 
L 105.414402 193.573708 
L 105.461917 193.542058 
L 105.588624 193.27618 
L 106.206319 190.755506 
L 106.934884 187.455017 
L 107.885185 184.143129 
L 108.566234 182.236016 
L 108.787971 181.50162 
L 109.294798 180.362339 
L 110.007524 178.687261 
L 110.498513 177.059817 
L 110.799442 176.201444 
L 111.147885 175.139546 
L 111.29043 174.920566 
L 111.686389 173.767309 
L 112.193217 171.575737 
L 112.44663 169.175922 
L 112.54166 166.219046 
L 112.620852 154.395388 
L 112.858427 66.139329 
L 112.969296 81.425017 
L 113.491961 177.461422 
L 113.745375 189.987261 
L 113.967112 192.536707 
L 114.157172 192.832326 
L 114.236364 192.725649 
L 114.980767 190.266184 
L 116.263673 186.195319 
L 119.035385 180.362411 
L 119.716434 179.40799 
L 120.603382 177.360568 
L 121.221077 175.603935 
L 121.601198 174.791013 
L 121.96548 174.046344 
L 122.535661 172.981661 
L 122.789074 172.570413 
L 123.02665 172.121698 
L 123.929436 169.431303 
L 124.309556 166.225905 
L 124.388748 162.736532 
L 124.483778 141.789872 
L 124.689677 65.265362 
L 124.75303 71.296364 
L 125.497432 187.732739 
L 125.735008 192.110037 
L 125.893391 192.661089 
L 125.90923 192.656631 
L 126.115128 192.380275 
L 126.241835 191.848184 
L 126.495249 190.92013 
L 126.653632 190.331353 
L 127.144621 188.536405 
L 127.413873 188.019898 
L 127.809832 187.161717 
L 127.999892 186.509192 
L 128.60175 185.14637 
L 128.950193 184.474083 
L 129.425344 183.66892 
L 129.583727 183.545217 
L 130.106393 182.336529 
L 130.248938 182.265422 
L 130.470675 181.949904 
L 130.945826 181.107071 
L 131.310108 180.742321 
L 131.500168 180.556921 
L 132.102025 179.780167 
L 132.244571 179.453422 
L 132.640529 178.527912 
L 132.973135 178.06664 
L 133.258225 177.857585 
L 133.448285 177.53382 
L 133.4958 177.58936 
L 133.590831 177.658099 
L 133.622507 177.61942 
L 133.907598 177.253568 
L 133.939274 177.277075 
L 134.065981 177.234667 
L 134.620323 176.608154 
L 134.889575 176.463497 
L 135.301373 176.400007 
L 135.475594 176.03104 
L 135.744846 175.584245 
L 136.029937 175.086772 
L 136.235835 174.875749 
L 136.346704 174.790169 
L 136.916884 174.028472 
L 137.15446 173.678549 
L 138.041407 171.646208 
L 138.59575 168.185984 
L 138.722457 164.973349 
L 138.801648 155.099673 
L 138.944194 90.916093 
L 139.055062 64.39724 
L 139.102577 68.452549 
L 139.340152 124.408523 
L 139.704434 180.432892 
L 139.94201 190.158032 
L 140.179585 192.499728 
L 140.242938 192.556326 
L 140.290454 192.496635 
L 140.623059 191.674797 
L 141.224916 189.542261 
L 141.494168 188.848738 
L 142.254409 186.985704 
L 143.268064 185.043717 
L 143.426447 184.788778 
L 143.996628 183.662 
L 144.487617 183.023895 
L 144.709354 182.798895 
L 144.946929 182.52573 
L 145.453756 181.791432 
L 145.691332 181.55387 
L 146.023937 181.038136 
L 146.974238 179.831186 
L 147.085107 179.659826 
L 148.225468 177.691371 
L 148.320498 177.487687 
L 148.68478 176.601147 
L 149.096577 175.691215 
L 149.809303 174.573593 
L 150.316131 172.867557 
L 150.822958 171.364892 
L 150.99718 170.892169 
L 151.250593 169.446766 
L 151.504007 167.641027 
L 151.678229 164.760022 
L 151.757421 157.217694 
L 151.868289 114.802539 
L 152.026673 65.18223 
L 152.058349 67.512092 
L 152.216733 101.958009 
L 152.612692 173.165529 
L 152.866105 188.492588 
L 153.072004 191.151332 
L 153.246226 191.641026 
L 153.277902 191.628135 
L 153.404609 191.407373 
L 154.735031 187.810185 
L 155.431918 186.641892 
L 155.669494 186.212882 
L 156.033776 185.689608 
L 157.221652 184.007051 
L 157.459227 183.775026 
L 157.839348 183.358292 
L 158.061085 182.949559 
L 158.615427 182.036863 
L 159.45486 181.007577 
L 159.613243 180.730332 
L 159.755789 180.492043 
L 159.787465 180.50925 
L 159.93001 180.553856 
L 159.945849 180.531347 
L 160.595221 179.5655 
L 161.513846 178.799934 
L 163.161034 175.981252 
L 163.335256 175.487851 
L 163.39861 175.549083 
L 163.49364 175.594652 
L 163.525316 175.559765 
L 163.87376 174.785714 
L 164.190527 174.148615 
L 164.475617 173.69921 
L 164.824061 172.14197 
L 165.02996 171.734856 
L 165.885231 170.631039 
L 166.692987 167.982687 
L 166.930562 166.42236 
L 167.057269 164.216263 
L 167.136461 157.827541 
L 167.247329 119.385624 
L 167.405713 65.322547 
L 167.453228 68.346086 
L 167.62745 107.803885 
L 168.00757 175.673685 
L 168.260984 189.506055 
L 168.498559 192.360063 
L 168.577751 192.43973 
L 168.625266 192.409901 
L 168.815326 192.282678 
L 169.63892 189.463768 
L 170.747605 187.383641 
L 171.270271 186.51672 
L 172.173057 184.690929 
L 172.42647 184.400585 
L 172.569016 184.242469 
L 172.869944 183.949005 
L 172.964974 183.848902 
L 173.566832 182.79878 
L 174.057821 182.248759 
L 175.02396 181.013187 
L 175.150667 180.98287 
L 175.689171 180.26798 
L 175.831716 180.004167 
L 176.132645 179.548354 
L 176.27519 179.399908 
L 176.829532 178.443349 
L 177.035431 178.169674 
L 177.558096 177.455826 
L 178.413368 176.827608 
L 178.635104 176.645786 
L 180.488192 174.01081 
L 180.678252 173.752501 
L 180.820797 173.49683 
L 181.121726 172.996211 
L 181.264271 173.038023 
L 181.390978 172.993987 
L 181.5652 172.576343 
L 181.881967 172.270964 
L 181.992835 172.423571 
L 182.119542 172.512847 
L 182.151219 172.473055 
L 183.133196 170.598562 
L 183.370772 170.509787 
L 183.592509 170.237154 
L 183.6717 170.344736 
L 183.909276 170.695925 
L 183.940952 170.649413 
L 184.526972 169.457888 
L 184.669517 169.167667 
L 185.01796 168.875305 
L 185.144667 168.937633 
L 185.176344 168.88957 
L 185.524788 168.431794 
L 185.69901 168.313881 
L 186.237514 166.5301 
L 186.475089 164.464137 
L 186.601796 161.872073 
L 186.680987 154.844192 
L 186.791856 116.081951 
L 186.950239 66.570357 
L 186.981916 68.204678 
L 187.124461 96.150557 
L 187.552097 174.486865 
L 187.80551 189.001781 
L 188.043086 192.109012 
L 188.185631 192.363523 
L 188.264823 192.272753 
L 190.197102 186.815904 
L 191.084049 185.588842 
L 191.400816 184.92393 
L 192.256087 183.701084 
L 192.493663 183.414896 
L 192.952975 182.814966 
L 193.760731 181.516589 
L 194.029983 181.251988 
L 194.885254 180.418998 
L 195.59798 179.165781 
L 195.724687 178.968314 
L 196.247352 177.918546 
L 196.674988 177.28204 
L 196.865048 177.23342 
L 197.371875 176.190318 
L 197.577774 175.974927 
L 197.878702 175.488164 
L 198.686458 174.378499 
L 199.779305 171.814213 
L 200.824636 167.065632 
L 200.919666 164.574545 
L 200.998858 155.707482 
L 201.125565 103.251339 
L 201.252272 64.994362 
L 201.299787 67.775333 
L 201.474008 107.138175 
L 201.838291 172.064823 
L 202.107543 188.302983 
L 202.329279 191.449589 
L 202.503501 191.72078 
L 202.661885 191.609821 
L 203.042005 191.071079 
L 203.818085 188.530604 
L 204.039822 188.196799 
L 204.657517 186.91746 
L 204.926769 186.648681 
L 205.196021 186.09095 
L 205.924585 185.083559 
L 206.510604 183.970296 
L 206.779856 183.650194 
L 208.046925 182.161695 
L 208.18947 182.037779 
L 208.56959 181.191042 
L 208.743812 181.003558 
L 209.139771 180.398781 
L 209.4407 180.036954 
L 209.551568 179.973644 
L 210.628576 178.264597 
L 210.913666 178.069706 
L 211.325464 177.49064 
L 211.689746 177.216372 
L 211.911483 176.873207 
L 212.006513 176.771271 
L 212.307441 176.282459 
L 212.560855 175.944673 
L 212.655885 175.756644 
L 212.925137 175.193151 
L 214.128852 173.904881 
L 214.287235 173.846951 
L 214.699033 173.665424 
L 214.841578 173.715166 
L 214.873255 173.668632 
L 215.443435 172.745055 
L 215.902747 172.371935 
L 216.045293 172.327529 
L 216.773857 171.366469 
L 216.900564 171.277738 
L 217.122301 170.939857 
L 217.153977 170.970903 
L 217.391553 171.439051 
L 217.454906 171.35137 
L 218.611106 168.800201 
L 218.959549 168.168506 
L 219.117933 168.110828 
L 219.228801 168.256932 
L 219.355508 168.39862 
L 219.387185 168.375182 
L 219.783144 168.021437 
L 220.115749 167.605745 
L 220.432516 166.866238 
L 220.511708 166.941749 
L 220.638415 166.839338 
L 220.765122 166.463745 
L 221.06605 165.717401 
L 221.287787 165.223144 
L 221.462009 164.449592 
L 221.747099 162.222958 
L 221.921321 158.279282 
L 222.000513 149.755123 
L 222.12722 100.875845 
L 222.253927 67.627559 
L 222.301442 70.403479 
L 222.475664 106.102819 
L 222.871622 171.783537 
L 223.140874 188.147093 
L 223.37845 191.698841 
L 223.552672 192.172651 
L 223.695217 192.075158 
L 223.806085 191.762793 
L 224.233721 190.213945 
L 225.152345 187.874076 
L 225.326567 187.613127 
L 225.675011 187.011854 
L 225.785879 186.82772 
L 226.102646 186.298755 
L 226.419413 185.902984 
L 226.577797 185.720747 
L 226.910402 184.923206 
L 227.100462 184.614674 
L 227.227169 184.550048 
L 227.971572 183.751108 
L 228.066602 183.630844 
L 228.510076 182.965564 
L 228.668459 182.667362 
L 228.95355 182.219665 
L 229.555407 181.406304 
L 230.030558 180.755059 
L 230.474032 180.098876 
L 230.838314 179.387343 
L 230.980859 179.315896 
L 233.293258 174.626137 
L 233.625864 173.64594 
L 234.544488 170.765319 
L 234.90877 167.640786 
L 235.0038 165.360895 
L 235.082992 156.740176 
L 235.209699 104.462771 
L 235.336406 64.947217 
L 235.383921 67.384447 
L 235.558143 105.489083 
L 235.938263 172.818249 
L 236.191677 188.118164 
L 236.44509 191.989745 
L 236.587636 192.551265 
L 236.619312 192.522713 
L 237.110301 191.203209 
L 237.427068 189.938378 
L 237.965572 187.691165 
L 238.836682 185.508978 
L 239.200964 185.342045 
L 240.499709 183.223678 
L 240.753122 182.868702 
L 241.418333 181.918041 
L 241.845968 181.281187 
L 242.162736 181.026599 
L 242.336957 180.983308 
L 242.780431 180.533987 
L 243.002168 180.402493 
L 243.334774 180.082613 
L 243.809924 179.934474 
L 243.999984 179.603419 
L 244.063338 179.637863 
L 244.190045 179.553237 
L 244.601842 178.947621 
L 244.760225 178.794832 
L 244.791902 178.8118 
L 244.918609 178.747723 
L 245.916425 177.403365 
L 246.201515 177.181315 
L 246.549959 176.776765 
L 246.597474 176.812214 
L 246.724181 176.820488 
L 246.740019 176.797513 
L 247.21517 176.234423 
L 247.959572 175.685411 
L 248.56143 174.798325 
L 248.925712 174.556126 
L 249.226641 174.30386 
L 249.416701 174.293963 
L 249.860175 174.008301 
L 250.050235 174.047888 
L 250.28781 173.922255 
L 250.446194 173.915684 
L 250.557062 173.839642 
L 251.095566 173.187174 
L 251.301465 173.173011 
L 251.44401 173.163217 
L 251.665747 173.255756 
L 251.950837 173.155725 
L 252.030029 173.204183 
L 252.061706 173.153032 
L 252.315119 172.860039 
L 252.457665 172.871159 
L 252.742755 172.909592 
L 253.012007 173.07665 
L 253.281259 172.838901 
L 253.518834 172.738651 
L 253.962308 172.721351 
L 254.104853 172.581684 
L 254.358267 172.186604 
L 254.500812 171.962708 
L 254.991801 171.218801 
L 255.007639 171.227791 
L 255.181861 171.25614 
L 255.356083 170.809851 
L 255.926264 169.719909 
L 256.163839 169.67981 
L 256.417253 169.668391 
L 256.892403 168.881449 
L 257.098302 168.83749 
L 257.256685 168.833344 
L 257.367554 168.782317 
L 257.39923 168.810032 
L 257.652644 169.028976 
L 257.684321 168.990865 
L 258.064441 168.391461 
L 258.096118 168.433965 
L 258.222825 168.588919 
L 258.254501 168.547436 
L 258.523753 167.80397 
L 259.046419 166.265231 
L 259.078096 166.287301 
L 259.458216 166.696542 
L 259.489893 166.654908 
L 260.345164 164.788549 
L 260.677769 162.210613 
L 260.86783 159.630845 
L 260.96286 155.449018 
L 261.05789 136.937112 
L 261.279627 69.286126 
L 261.327142 72.653215 
L 261.53304 114.21348 
L 261.913161 173.402069 
L 262.166574 187.517049 
L 262.40415 191.135266 
L 262.625887 191.655058 
L 262.705078 191.682512 
L 262.752594 191.636228 
L 263.021846 191.243549 
L 263.196067 190.550793 
L 263.560349 189.642994 
L 264.273075 187.988939 
L 264.510651 187.575989 
L 264.795741 187.099219 
L 267.01311 183.692361 
L 267.10814 183.419672 
L 267.155655 183.49947 
L 267.203171 183.530242 
L 267.250686 183.464355 
L 269.087934 180.574141 
L 269.214641 180.44997 
L 269.594762 180.077176 
L 269.70563 179.905482 
L 270.370841 178.588332 
L 270.497548 178.619318 
L 270.592578 178.545884 
L 270.941022 178.059792 
L 271.637909 176.966609 
L 271.986353 176.485847 
L 272.30312 176.135661 
L 272.509019 175.707152 
L 272.825786 175.144711 
L 273.300936 174.662784 
L 273.522673 174.450442 
L 273.538511 174.459366 
L 273.665218 174.414442 
L 274.061177 173.647338 
L 274.362106 172.791819 
L 274.647196 172.410867 
L 274.90061 172.134288 
L 275.787557 171.077303 
L 275.803396 171.089029 
L 275.914264 171.052184 
L 276.167678 170.701768 
L 276.484445 169.762632 
L 276.595313 169.558375 
L 277.450584 166.421658 
L 277.703998 163.900098 
L 277.799028 160.666694 
L 277.87822 149.406663 
L 278.115795 66.537205 
L 278.226664 79.822932 
L 278.796844 179.205052 
L 279.03442 189.478217 
L 279.256157 191.821354 
L 279.446217 192.138715 
L 279.557085 191.992503 
L 280.317326 189.886128 
L 281.251789 187.657739 
L 281.806131 186.595076 
L 282.281282 185.782862 
L 282.534696 185.506023 
L 282.645564 185.317524 
L 282.930654 184.938576 
L 284.086854 183.283336 
L 284.672873 182.790736 
L 284.942125 182.423384 
L 285.433114 181.717326 
L 285.670689 181.4483 
L 286.003295 181.285853 
L 286.14584 181.258267 
L 286.716021 180.45473 
L 287.159494 179.844431 
L 287.333716 179.660059 
L 287.903897 178.620511 
L 288.236502 178.033324 
L 289.250157 176.335367 
L 289.440217 176.124777 
L 289.788661 175.527095 
L 289.994559 175.250322 
L 290.121266 175.151346 
L 290.358842 174.917471 
L 290.580579 174.54576 
L 290.723124 174.207703 
L 290.770639 174.225894 
L 290.865669 174.146444 
L 291.293304 173.665529 
L 291.420011 173.504633 
L 291.800132 172.583735 
L 292.623726 171.589596 
L 293.415644 169.224227 
L 293.700734 168.590575 
L 294.207561 165.493873 
L 294.350106 162.353421 
L 294.429298 153.634628 
L 294.556005 102.82757 
L 294.682712 65.87537 
L 294.730227 68.498943 
L 294.904449 105.883058 
L 295.300407 174.072288 
L 295.553821 188.392212 
L 295.775558 191.149966 
L 296.013133 191.830632 
L 296.13984 191.718559 
L 296.424931 191.065447 
L 297.232686 188.971163 
L 297.945412 187.840096 
L 298.072119 187.708191 
L 298.689815 186.486963 
L 299.164965 185.910326 
L 299.529248 185.351882 
L 302.237606 181.538347 
L 302.427666 181.35049 
L 302.918655 180.625372 
L 303.219584 180.301845 
L 303.615542 179.629363 
L 303.821441 179.304505 
L 304.074855 179.059847 
L 304.249077 178.758637 
L 304.645035 178.080719 
L 305.246893 177.14339 
L 305.642852 176.327888 
L 306.007134 176.263745 
L 306.228871 176.111699 
L 306.704021 175.900884 
L 306.81489 175.772762 
L 307.09998 175.373246 
L 307.305879 175.379768 
L 307.495939 175.329673 
L 307.812706 174.97351 
L 307.923574 174.900328 
L 308.240341 174.591995 
L 308.44624 174.33083 
L 308.889714 173.347378 
L 309.222319 173.354389 
L 309.444056 173.226094 
L 309.729146 173.000241 
L 310.17262 172.448627 
L 310.188459 172.460463 
L 310.362681 172.465642 
L 310.536902 172.565881 
L 310.695286 172.66013 
L 310.711124 172.637923 
L 310.885346 172.268927 
L 310.9487 172.391365 
L 311.027891 172.533741 
L 311.075406 172.479838 
L 311.23379 172.434513 
L 311.312982 172.410672 
L 311.32882 172.38107 
L 311.629749 171.810273 
L 311.677264 171.854216 
L 311.756456 171.906228 
L 311.788132 171.864226 
L 312.199929 171.298106 
L 312.405828 171.399215 
L 312.437505 171.347727 
L 312.611727 170.892635 
L 312.991847 170.214163 
L 313.118554 170.204701 
L 313.261099 170.165287 
L 313.466998 169.866669 
L 313.514513 169.910113 
L 313.593704 169.890781 
L 313.609543 169.864473 
L 313.73625 169.33707 
L 314.179723 167.72653 
L 314.433137 166.326348 
L 314.765742 164.032883 
L 314.892449 161.704984 
L 314.971641 156.003932 
L 315.08251 121.641336 
L 315.256731 66.675636 
L 315.288408 68.312995 
L 315.430953 95.470089 
L 315.858589 171.666507 
L 316.112002 187.561064 
L 316.349578 191.372965 
L 316.571315 191.891441 
L 316.761375 191.887482 
L 317.014788 191.437657 
L 317.236525 190.993797 
L 317.553292 190.393922 
L 317.759191 190.024334 
L 318.044281 189.205781 
L 318.392725 188.452758 
L 318.788684 187.725814 
L 319.168804 186.602194 
L 319.200481 186.584516 
L 319.232158 186.679628 
L 319.31135 187.915897 
L 319.580602 191.784342 
L 320.024075 194.755615 
L 320.610094 197.504816 
L 321.512881 200.819111 
L 323.92031 206.647435 
L 324.142047 206.965256 
L 324.775581 207.823942 
L 324.997318 208.053833 
L 325.440792 208.589526 
L 325.741721 208.8949 
L 326.391093 209.729086 
L 327.927413 211.09045 
L 328.133312 211.192176 
L 328.323372 211.355648 
L 328.640139 211.729404 
L 328.861876 211.930426 
L 329.02026 212.011985 
L 329.527087 212.257761 
L 329.68547 212.366105 
L 329.954722 212.62236 
L 330.081429 212.693034 
L 330.287328 212.839218 
L 330.429873 212.911761 
L 331.12676 213.418585 
L 331.934516 213.848791 
L 332.156253 213.815585 
L 332.615566 214.196145 
L 332.995686 214.429382 
L 333.185746 214.530592 
L 333.787604 214.783573 
L 333.945987 214.808007 
L 334.199401 214.799497 
L 334.484491 214.941195 
L 335.735721 215.472678 
L 335.894104 215.494764 
L 336.717699 215.790323 
L 336.860244 215.822378 
L 337.050304 215.858579 
L 337.240364 215.862664 
L 337.905575 216.073227 
L 339.077613 216.453974 
L 339.220158 216.462945 
L 339.647794 216.371232 
L 340.138783 216.576185 
L 340.328843 216.643882 
L 340.55058 216.679402 
L 340.803994 216.749599 
L 341.199952 216.883753 
L 341.326659 216.952129 
L 341.564235 217.058822 
L 342.102739 217.046211 
L 342.245284 217.170522 
L 342.942171 217.111171 
L 343.734089 217.272615 
L 344.082533 217.411117 
L 344.272593 217.535784 
L 344.430976 217.483688 
L 344.921965 217.367843 
L 345.603014 217.567522 
L 345.729721 217.527581 
L 345.888105 217.37479 
L 345.919781 217.405261 
L 346.189033 217.565942 
L 346.743376 217.698835 
L 346.980951 217.68636 
L 347.155173 217.667745 
L 348.042121 217.673902 
L 348.564786 217.789528 
L 348.707331 217.873751 
L 348.929068 217.929116 
L 349.499249 217.952633 
L 349.752663 217.902308 
L 350.16446 217.905642 
L 350.307005 217.814274 
L 350.338682 217.844059 
L 350.481227 217.83454 
L 350.623772 217.862549 
L 350.813832 217.890464 
L 350.972216 217.983148 
L 351.098923 217.920765 
L 351.241468 217.9299 
L 351.526558 217.970937 
L 351.684942 217.979891 
L 351.906679 218.04484 
L 352.540213 217.875621 
L 352.872818 218.002899 
L 353.347969 218.126667 
L 354.044856 218.09198 
L 354.884289 218.1355 
L 355.090187 218.100802 
L 355.565338 218.247979 
L 356.183034 218.202089 
L 356.341417 218.25174 
L 357.37091 218.290808 
L 357.608485 218.158223 
L 358.178666 218.323417 
L 358.33705 218.332712 
L 358.669655 218.290447 
L 358.780524 218.326121 
L 358.8122 218.27965 
L 358.90723 218.188792 
L 358.954745 218.228124 
L 359.160644 218.296506 
L 359.350704 218.297339 
L 361.172115 218.168109 
L 361.378013 218.205379 
L 361.59975 218.189664 
L 362.391668 218.193848 
L 362.692597 218.1309 
L 363.421161 218.173664 
L 363.611221 218.230624 
L 365.147541 218.240368 
L 365.35344 218.176005 
L 366.113681 218.054957 
L 366.430448 218.078003 
L 366.636346 218.048706 
L 366.921437 218.137134 
L 367.127335 218.169705 
L 367.459941 218.045443 
L 368.077636 217.999916 
L 368.584464 218.122258 
L 368.695332 218.116715 
L 368.71117 218.137738 
L 368.885392 218.213747 
L 369.075453 218.190668 
L 369.233836 218.141993 
L 369.503088 218.130198 
L 369.994077 218.085981 
L 370.263329 218.034405 
L 370.801833 218.09998 
L 371.02357 218.163465 
L 371.372014 218.271414 
L 371.593751 218.162599 
L 371.894679 218.129145 
L 372.243123 218.277764 
L 372.449022 218.255288 
L 372.84498 218.208307 
L 373.050879 218.204348 
L 373.652736 218.322112 
L 374.064533 218.370173 
L 374.238755 218.40162 
L 374.761421 218.426114 
L 376.915437 218.562049 
L 377.026305 218.642258 
L 377.216366 218.679314 
L 377.644001 218.655122 
L 377.834061 218.614201 
L 377.976606 218.591006 
L 378.166667 218.489747 
L 378.546787 218.474959 
L 378.736847 218.405173 
L 379.338705 218.496283 
L 379.449573 218.452828 
L 379.560442 218.397008 
L 379.592118 218.428735 
L 379.798017 218.52138 
L 379.972239 218.531283 
L 380.114784 218.548758 
L 380.352359 218.461623 
L 380.558258 218.320742 
L 380.669126 218.342669 
L 380.938378 218.475638 
L 381.239307 218.39572 
L 381.571912 218.569605 
L 381.872841 218.60835 
L 382.062901 218.663539 
L 382.237123 218.657809 
L 382.664759 218.761843 
L 382.981526 218.688609 
L 383.836797 218.692502 
L 383.99518 218.697239 
L 384.486169 218.737053 
L 384.644553 218.623517 
L 384.818775 218.647786 
L 385.183057 218.728209 
L 385.563177 218.568223 
L 385.769076 218.551746 
L 386.038328 218.560388 
L 386.149196 218.537687 
L 386.180873 218.58282 
L 386.30758 218.642182 
L 386.323418 218.630546 
L 386.513478 218.619711 
L 386.735215 218.639418 
L 386.941114 218.609688 
L 387.147012 218.598809 
L 387.764708 218.706539 
L 388.12899 218.570324 
L 388.556626 218.702624 
L 388.810039 218.725566 
L 389.348543 218.741933 
L 389.554442 218.767222 
L 389.728664 218.756716 
L 390.298845 218.792681 
L 390.552258 218.692474 
L 390.932379 218.626368 
L 391.074924 218.654448 
L 391.360014 218.750169 
L 392.151932 218.53449 
L 392.278639 218.568887 
L 392.516214 218.656049 
L 392.674597 218.746556 
L 392.832981 218.709094 
L 393.181425 218.552223 
L 393.640737 218.581849 
L 393.909989 218.602148 
L 394.179241 218.589307 
L 394.369301 218.576103 
L 394.559361 218.556752 
L 395.493824 218.639818 
L 395.620531 218.612364 
L 395.858106 218.493602 
L 396.887599 218.547442 
L 397.045983 218.556555 
L 397.188528 218.537747 
L 397.36275 218.525629 
L 397.885415 218.549142 
L 398.107152 218.516801 
L 398.487273 218.388465 
L 398.487273 218.388465 
" clip-path="url(#p543587b456)" style="fill: none; stroke: #d62728; stroke-width: 1.5; stroke-linecap: square"/>
   </g>
   <g id="patch_3">
    <path d="M 57.6 307.584 
L 57.6 41.472 
" style="fill: none; stroke: #000000; stroke-width: 0.8; stroke-linejoin: miter; stroke-linecap: square"/>
   </g>
   <g id="patch_4">
    <path d="M 414.72 307.584 
L 414.72 41.472 
" style="fill: none; stroke: #000000; stroke-width: 0.8; stroke-linejoin: miter; stroke-linecap: square"/>
   </g>
   <g id="patch_5">
    <path d="M 57.6 307.584 
L 414.72 307.584 
" style="fill: none; stroke: #000000; stroke-width: 0.8; stroke-linejoin: miter; stroke-linecap: square"/>
   </g>
   <g id="patch_6">
    <path d="M 57.6 41.472 
L 414.72 41.472 
" style="fill: none; stroke: #000000; stroke-width: 0.8; stroke-linejoin: miter; stroke-linecap: square"/>
   </g>
  </g>
 </g>
 <defs>
  <clipPath id="p543587b456">
   <rect x="57.6" y="41.472" width="357.12" height="266.112"/>
  </clipPath>
 </defs>
</svg>
