<?xml version="1.0" encoding="utf-8" standalone="no"?>
<!DOCTYPE svg PUBLIC "-//W3C//DTD SVG 1.1//EN"
  "http://www.w3.org/Graphics/SVG/1.1/DTD/svg11.dtd">
<svg xmlns:xlink="http://www.w3.org/1999/xlink" width="272.067187pt" height="197.398125pt" viewBox="0 0 272.067187 197.398125" xmlns="http://www.w3.org/2000/svg" version="1.1">
 <metadata>
  <rdf:RDF xmlns:dc="http://purl.org/dc/elements/1.1/" xmlns:cc="http://creativecommons.org/ns#" xmlns:rdf="http://www.w3.org/1999/02/22-rdf-syntax-ns#">
   <cc:Work>
    <dc:type rdf:resource="http://purl.org/dc/dcmitype/StillImage"/>
    <dc:date>2025-12-19T12:16:04.981130</dc:date>
    <dc:format>image/svg+xml</dc:format>
    <dc:creator>
     <cc:Agent>
      <dc:title>Matplotlib v3.10.7, https://matplotlib.org/</dc:title>
     </cc:Agent>
    </dc:creator>
   </cc:Work>
  </rdf:RDF>
 </metadata>
 <defs>
  <style type="text/css">*{stroke-linejoin: round; stroke-linecap: butt}</style>
 </defs>
 <g id="figure_1">
  <g id="patch_1">
   <path d="M 0 197.398125 
L 272.067187 197.398125 
L 272.067187 0 
L 0 0 
z
" style="fill: #ffffff"/>
  </g>
  <g id="axes_1">
   <g id="patch_2">
    <path d="M 41.667188 173.52 
L 264.867188 173.52 
L 264.867188 7.2 
L 41.667188 7.2 
z
" style="fill: #ffffff"/>
   </g>
   <g id="matplotlib.axis_1">
    <g id="xtick_1">
     <g id="line2d_1">
      <defs>
       <path id="md0a66efc3f" d="M 0 0 
L 0 3.5 
" style="stroke: #000000; stroke-width: 0.8"/>
      </defs>
      <g>
       <use xlink:href="#md0a66efc3f" x="82.712896" y="173.52" style="stroke: #000000; stroke-width: 0.8"/>
      </g>
     </g>
     <g id="text_1">
      <!-- 1 -->
      <g transform="translate(79.531646 188.118438) scale(0.1 -0.1)">
       <defs>
        <path id="DejaVuSans-31" d="M 794 531 
L 1825 531 
L 1825 4091 
L 703 3866 
L 703 4441 
L 1819 4666 
L 2450 4666 
L 2450 531 
L 3481 531 
L 3481 0 
L 794 0 
L 794 531 
z
" transform="scale(0.015625)"/>
       </defs>
       <use xlink:href="#DejaVuSans-31"/>
      </g>
     </g>
    </g>
    <g id="xtick_2">
     <g id="line2d_2">
      <g>
       <use xlink:href="#md0a66efc3f" x="134.213319" y="173.52" style="stroke: #000000; stroke-width: 0.8"/>
      </g>
     </g>
     <g id="text_2">
      <!-- 2 -->
      <g transform="translate(131.032069 188.118438) scale(0.1 -0.1)">
       <defs>
        <path id="DejaVuSans-32" d="M 1228 531 
L 3431 531 
L 3431 0 
L 469 0 
L 469 531 
Q 828 903 1448 1529 
Q 2069 2156 2228 2338 
Q 2531 2678 2651 2914 
Q 2772 3150 2772 3378 
Q 2772 3750 2511 3984 
Q 2250 4219 1831 4219 
Q 1534 4219 1204 4116 
Q 875 4013 500 3803 
L 500 4441 
Q 881 4594 1212 4672 
Q 1544 4750 1819 4750 
Q 2544 4750 2975 4387 
Q 3406 4025 3406 3419 
Q 3406 3131 3298 2873 
Q 3191 2616 2906 2266 
Q 2828 2175 2409 1742 
Q 1991 1309 1228 531 
z
" transform="scale(0.015625)"/>
       </defs>
       <use xlink:href="#DejaVuSans-32"/>
      </g>
     </g>
    </g>
    <g id="xtick_3">
     <g id="line2d_3">
      <g>
       <use xlink:href="#md0a66efc3f" x="185.713741" y="173.52" style="stroke: #000000; stroke-width: 0.8"/>
      </g>
     </g>
     <g id="text_3">
      <!-- 3 -->
      <g transform="translate(182.532491 188.118438) scale(0.1 -0.1)">
       <defs>
        <path id="DejaVuSans-33" d="M 2597 2516 
Q 3050 2419 3304 2112 
Q 3559 1806 3559 1356 
Q 3559 666 3084 287 
Q 2609 -91 1734 -91 
Q 1441 -91 1130 -33 
Q 819 25 488 141 
L 488 750 
Q 750 597 1062 519 
Q 1375 441 1716 441 
Q 2309 441 2620 675 
Q 2931 909 2931 1356 
Q 2931 1769 2642 2001 
Q 2353 2234 1838 2234 
L 1294 2234 
L 1294 2753 
L 1863 2753 
Q 2328 2753 2575 2939 
Q 2822 3125 2822 3475 
Q 2822 3834 2567 4026 
Q 2313 4219 1838 4219 
Q 1578 4219 1281 4162 
Q 984 4106 628 3988 
L 628 4550 
Q 988 4650 1302 4700 
Q 1616 4750 1894 4750 
Q 2613 4750 3031 4423 
Q 3450 4097 3450 3541 
Q 3450 3153 3228 2886 
Q 3006 2619 2597 2516 
z
" transform="scale(0.015625)"/>
       </defs>
       <use xlink:href="#DejaVuSans-33"/>
      </g>
     </g>
    </g>
    <g id="xtick_4">
     <g id="line2d_4">
      <g>
       <use xlink:href="#md0a66efc3f" x="237.214164" y="173.52" style="stroke: #000000; stroke-width: 0.8"/>
      </g>
     </g>
     <g id="text_4">
      <!-- 4 -->
      <g transform="translate(234.032914 188.118438) scale(0.1 -0.1)">
       <defs>
        <path id="DejaVuSans-34" d="M 2419 4116 
L 825 1625 
L 2419 1625 
L 2419 4116 
z
M 2253 4666 
L 3047 4666 
L 3047 1625 
L 3713 1625 
L 3713 1100 
L 3047 1100 
L 3047 0 
L 2419 0 
L 2419 1100 
L 313 1100 
L 313 1709 
L 2253 4666 
z
" transform="scale(0.015625)"/>
       </defs>
       <use xlink:href="#DejaVuSans-34"/>
      </g>
     </g>
    </g>
   </g>
   <g id="matplotlib.axis_2">
    <g id="ytick_1">
     <g id="line2d_5">
      <defs>
       <path id="m0b9eb401ea" d="M 0 0 
L -3.5 0 
" style="stroke: #000000; stroke-width: 0.8"/>
      </defs>
      <g>
       <use xlink:href="#m0b9eb401ea" x="41.667188" y="163.735584" style="stroke: #000000; stroke-width: 0.8"/>
      </g>
     </g>
     <g id="text_5">
      <!-- −125 -->
      <g transform="translate(7.2 167.534802) scale(0.1 -0.1)">
       <defs>
        <path id="DejaVuSans-2212" d="M 678 2272 
L 4684 2272 
L 4684 1741 
L 678 1741 
L 678 2272 
z
" transform="scale(0.015625)"/>
        <path id="DejaVuSans-35" d="M 691 4666 
L 3169 4666 
L 3169 4134 
L 1269 4134 
L 1269 2991 
Q 1406 3038 1543 3061 
Q 1681 3084 1819 3084 
Q 2600 3084 3056 2656 
Q 3513 2228 3513 1497 
Q 3513 744 3044 326 
Q 2575 -91 1722 -91 
Q 1428 -91 1123 -41 
Q 819 9 494 109 
L 494 744 
Q 775 591 1075 516 
Q 1375 441 1709 441 
Q 2250 441 2565 725 
Q 2881 1009 2881 1497 
Q 2881 1984 2565 2268 
Q 2250 2553 1709 2553 
Q 1456 2553 1204 2497 
Q 953 2441 691 2322 
L 691 4666 
z
" transform="scale(0.015625)"/>
       </defs>
       <use xlink:href="#DejaVuSans-2212"/>
       <use xlink:href="#DejaVuSans-31" transform="translate(83.789062 0)"/>
       <use xlink:href="#DejaVuSans-32" transform="translate(147.412109 0)"/>
       <use xlink:href="#DejaVuSans-35" transform="translate(211.035156 0)"/>
      </g>
     </g>
    </g>
    <g id="ytick_2">
     <g id="line2d_6">
      <g>
       <use xlink:href="#m0b9eb401ea" x="41.667188" y="139.110725" style="stroke: #000000; stroke-width: 0.8"/>
      </g>
     </g>
     <g id="text_6">
      <!-- −100 -->
      <g transform="translate(7.2 142.909944) scale(0.1 -0.1)">
       <defs>
        <path id="DejaVuSans-30" d="M 2034 4250 
Q 1547 4250 1301 3770 
Q 1056 3291 1056 2328 
Q 1056 1369 1301 889 
Q 1547 409 2034 409 
Q 2525 409 2770 889 
Q 3016 1369 3016 2328 
Q 3016 3291 2770 3770 
Q 2525 4250 2034 4250 
z
M 2034 4750 
Q 2819 4750 3233 4129 
Q 3647 3509 3647 2328 
Q 3647 1150 3233 529 
Q 2819 -91 2034 -91 
Q 1250 -91 836 529 
Q 422 1150 422 2328 
Q 422 3509 836 4129 
Q 1250 4750 2034 4750 
z
" transform="scale(0.015625)"/>
       </defs>
       <use xlink:href="#DejaVuSans-2212"/>
       <use xlink:href="#DejaVuSans-31" transform="translate(83.789062 0)"/>
       <use xlink:href="#DejaVuSans-30" transform="translate(147.412109 0)"/>
       <use xlink:href="#DejaVuSans-30" transform="translate(211.035156 0)"/>
      </g>
     </g>
    </g>
    <g id="ytick_3">
     <g id="line2d_7">
      <g>
       <use xlink:href="#m0b9eb401ea" x="41.667188" y="114.485867" style="stroke: #000000; stroke-width: 0.8"/>
      </g>
     </g>
     <g id="text_7">
      <!-- −75 -->
      <g transform="translate(13.5625 118.285086) scale(0.1 -0.1)">
       <defs>
        <path id="DejaVuSans-37" d="M 525 4666 
L 3525 4666 
L 3525 4397 
L 1831 0 
L 1172 0 
L 2766 4134 
L 525 4134 
L 525 4666 
z
" transform="scale(0.015625)"/>
       </defs>
       <use xlink:href="#DejaVuSans-2212"/>
       <use xlink:href="#DejaVuSans-37" transform="translate(83.789062 0)"/>
       <use xlink:href="#DejaVuSans-35" transform="translate(147.412109 0)"/>
      </g>
     </g>
    </g>
    <g id="ytick_4">
     <g id="line2d_8">
      <g>
       <use xlink:href="#m0b9eb401ea" x="41.667188" y="89.861009" style="stroke: #000000; stroke-width: 0.8"/>
      </g>
     </g>
     <g id="text_8">
      <!-- −50 -->
      <g transform="translate(13.5625 93.660228) scale(0.1 -0.1)">
       <use xlink:href="#DejaVuSans-2212"/>
       <use xlink:href="#DejaVuSans-35" transform="translate(83.789062 0)"/>
       <use xlink:href="#DejaVuSans-30" transform="translate(147.412109 0)"/>
      </g>
     </g>
    </g>
    <g id="ytick_5">
     <g id="line2d_9">
      <g>
       <use xlink:href="#m0b9eb401ea" x="41.667188" y="65.236151" style="stroke: #000000; stroke-width: 0.8"/>
      </g>
     </g>
     <g id="text_9">
      <!-- −25 -->
      <g transform="translate(13.5625 69.035369) scale(0.1 -0.1)">
       <use xlink:href="#DejaVuSans-2212"/>
       <use xlink:href="#DejaVuSans-32" transform="translate(83.789062 0)"/>
       <use xlink:href="#DejaVuSans-35" transform="translate(147.412109 0)"/>
      </g>
     </g>
    </g>
    <g id="ytick_6">
     <g id="line2d_10">
      <g>
       <use xlink:href="#m0b9eb401ea" x="41.667188" y="40.611292" style="stroke: #000000; stroke-width: 0.8"/>
      </g>
     </g>
     <g id="text_10">
      <!-- 0 -->
      <g transform="translate(28.304688 44.410511) scale(0.1 -0.1)">
       <use xlink:href="#DejaVuSans-30"/>
      </g>
     </g>
    </g>
    <g id="ytick_7">
     <g id="line2d_11">
      <g>
       <use xlink:href="#m0b9eb401ea" x="41.667188" y="15.986434" style="stroke: #000000; stroke-width: 0.8"/>
      </g>
     </g>
     <g id="text_11">
      <!-- 25 -->
      <g transform="translate(21.942188 19.785653) scale(0.1 -0.1)">
       <use xlink:href="#DejaVuSans-32"/>
       <use xlink:href="#DejaVuSans-35" transform="translate(63.623047 0)"/>
      </g>
     </g>
    </g>
   </g>
   <g id="line2d_12">
    <path d="M 51.812642 104.488032 
L 51.871868 104.548151 
L 51.825517 104.427913 
L 51.920793 104.488032 
L 52.028944 104.337734 
L 52.039244 104.367793 
L 52.116495 104.427913 
L 52.103619 104.307674 
L 52.152545 104.397853 
L 52.420347 104.307674 
L 52.466697 104.367793 
L 52.533648 104.277614 
L 52.598023 104.397853 
L 52.652099 104.367793 
L 52.719049 104.217495 
L 52.767975 104.247555 
L 52.786 104.307674 
L 52.8066 104.157376 
L 52.870976 104.247555 
L 52.976552 104.127316 
L 52.981702 104.187435 
L 53.612582 104.277614 
L 53.707858 104.307674 
L 53.666657 104.187435 
L 53.723308 104.277614 
L 53.836609 104.187435 
L 53.839184 104.217495 
L 53.919009 104.247555 
L 53.864934 104.157376 
L 53.947335 104.187435 
L 54.03231 104.277614 
L 54.117286 104.307674 
L 54.050335 104.217495 
L 54.143036 104.277614 
L 54.179086 104.247555 
L 54.222862 104.367793 
L 54.251187 104.307674 
L 54.356763 104.367793 
L 54.361913 104.307674 
L 54.696666 104.247555 
L 54.699241 104.187435 
L 54.781641 104.337734 
L 54.804817 104.277614 
L 54.949018 104.367793 
L 54.964468 104.277614 
L 55.062319 104.397853 
L 55.113819 104.337734 
L 55.147294 104.488032 
L 55.17047 104.427913 
L 55.260595 104.518091 
L 55.22712 104.397853 
L 55.286346 104.488032 
L 55.294071 104.397853 
L 55.348146 104.548151 
L 55.391921 104.518091 
L 55.435697 104.60827 
L 55.500072 104.548151 
L 55.608223 104.397853 
L 55.615948 104.427913 
L 55.742124 104.457972 
L 55.819375 104.578211 
L 55.752424 104.427913 
L 55.85285 104.518091 
L 56.277729 104.60827 
L 56.298329 104.66839 
L 56.336954 104.548151 
L 56.388455 104.60827 
L 56.571281 104.698449 
L 56.609906 104.63833 
L 56.692307 104.818688 
L 56.869984 104.728509 
L 56.921484 104.758569 
L 56.962684 104.66839 
L 57.119761 115.459801 
L 57.588414 132.203022 
L 57.69914 134.758091 
L 57.912867 138.725964 
L 57.920592 138.665845 
L 58.713699 146.63165 
L 58.716274 146.60159 
L 58.788374 147.052485 
L 58.790949 147.022425 
L 58.819275 147.082545 
L 58.937726 147.593559 
L 58.942876 147.563499 
L 58.958326 147.653678 
L 59.115402 148.194751 
L 59.141152 148.28493 
L 59.267328 148.675706 
L 59.148877 148.224811 
L 59.280203 148.645646 
L 59.282778 148.615586 
L 59.367754 148.856064 
L 59.372904 148.856064 
L 59.42183 148.916183 
L 59.54028 149.1266 
L 59.591781 149.096541 
L 59.625256 149.18672 
L 59.648431 149.15666 
L 59.702507 149.216779 
L 59.810658 149.457256 
L 59.820958 149.427197 
L 59.882758 149.517376 
L 59.887908 149.487316 
L 60.001209 149.637614 
L 60.060435 149.577495 
L 60.08361 149.697734 
L 60.10936 149.667674 
L 60.14541 149.607555 
L 60.227811 149.817972 
L 60.248411 149.757853 
L 60.256136 149.878091 
L 60.338537 149.817972 
L 60.382312 149.848032 
L 60.384887 149.938211 
L 60.387462 149.817972 
L 60.490463 149.848032 
L 60.580589 148.645646 
L 60.67844 148.946243 
L 60.717065 149.036421 
L 60.722215 149.006362 
L 60.848391 149.337018 
L 60.868991 149.276899 
L 60.948817 149.487316 
L 60.951392 149.457256 
L 61.051818 149.577495 
L 61.002892 149.427197 
L 61.064693 149.517376 
L 61.069843 149.487316 
L 61.129069 149.637614 
L 61.165119 149.607555 
L 61.275845 149.727793 
L 61.280995 149.697734 
L 61.311895 149.637614 
L 61.373696 149.757853 
L 61.389146 149.727793 
L 61.407171 149.667674 
L 61.502447 149.757853 
L 61.533347 149.667674 
L 61.579697 149.817972 
L 61.610597 149.787913 
L 61.695573 149.848032 
L 61.816599 150.088509 
L 61.870675 149.96827 
L 61.90415 150.148628 
L 61.92475 150.088509 
L 62.032901 150.208748 
L 62.040626 150.148628 
L 62.148777 150.02839 
L 62.156502 150.088509 
L 62.159077 150.118569 
L 62.241478 149.96827 
L 62.256928 150.02839 
L 62.365079 149.938211 
L 62.329028 150.058449 
L 62.367654 149.99833 
L 62.424304 149.908151 
L 62.491255 149.96827 
L 62.53503 149.848032 
L 62.54018 149.878091 
L 62.609706 149.727793 
L 62.635456 149.757853 
L 62.694681 149.667674 
L 62.671506 149.817972 
L 62.746182 149.757853 
L 63.068059 149.848032 
L 63.16076 149.878091 
L 63.10411 149.727793 
L 63.178785 149.848032 
L 63.219986 149.787913 
L 63.276636 149.938211 
L 63.286936 149.878091 
L 63.400237 149.99833 
L 63.405387 149.96827 
L 63.410537 149.938211 
L 63.490363 150.058449 
L 63.510963 150.02839 
L 63.588214 149.99833 
L 63.71439 149.427197 
L 63.72469 149.397137 
L 63.832841 149.517376 
L 63.938417 149.577495 
L 64.046567 149.727793 
L 64.054293 149.697734 
L 64.103218 149.607555 
L 64.152143 149.727793 
L 64.165018 149.697734 
L 64.265444 149.787913 
L 64.36072 149.938211 
L 64.280894 149.757853 
L 64.38647 149.908151 
L 64.445696 149.757853 
L 64.399345 149.96827 
L 64.499771 149.878091 
L 64.571872 149.96827 
L 64.669723 150.058449 
L 64.587322 149.908151 
L 64.682598 149.99833 
L 64.813924 149.908151 
L 64.816499 149.878091 
L 64.852549 150.02839 
L 64.916925 149.96827 
L 64.999325 150.058449 
L 65.027651 149.96827 
L 65.030226 149.99833 
L 65.055976 149.908151 
L 65.133226 149.908151 
L 65.287728 149.878091 
L 65.390729 149.787913 
L 65.334078 149.908151 
L 65.398454 149.817972 
L 65.493729 149.878091 
L 65.496304 149.757853 
L 65.506604 149.817972 
L 65.609605 149.757853 
L 65.52978 149.878091 
L 65.61733 149.817972 
L 65.661106 149.787913 
L 65.776982 149.487316 
L 65.782132 149.547435 
L 65.872257 149.337018 
L 65.882558 149.367078 
L 65.910883 149.457256 
L 65.949508 149.276899 
L 65.988133 149.337018 
L 66.060234 149.276899 
L 66.029334 149.367078 
L 66.096284 149.337018 
L 66.18641 149.457256 
L 66.20701 149.397137 
L 66.23791 149.337018 
L 66.284261 149.457256 
L 66.315161 149.427197 
L 66.361511 149.487316 
L 66.320311 149.337018 
L 66.428462 149.457256 
L 66.454212 149.517376 
L 66.541763 149.397137 
L 66.582963 149.517376 
L 66.655064 149.457256 
L 66.724589 149.427197 
L 66.75034 149.547435 
L 66.76579 149.457256 
L 66.868791 149.517376 
L 66.799265 149.397137 
L 66.879091 149.487316 
L 67.257619 149.397137 
L 67.273069 147.984334 
L 67.509971 134.758091 
L 67.793223 126.672048 
L 68.166601 120.509821 
L 68.174326 120.419642 
L 68.398353 117.774394 
L 68.408653 117.684215 
L 68.784606 114.558012 
L 68.787181 114.588072 
L 68.851557 114.077058 
L 68.854132 114.077058 
L 69.008633 113.05503 
L 69.214635 111.882704 
L 69.21721 111.942823 
L 69.299611 111.461869 
L 69.307336 111.461869 
L 69.433512 110.890736 
L 69.443812 110.800557 
L 69.608613 110.139245 
L 69.613763 110.229423 
L 69.706464 109.838648 
L 69.747664 109.748469 
L 69.917616 109.057097 
L 69.920191 109.117217 
L 70.007741 108.756501 
L 70.015466 108.786561 
L 70.144218 108.335666 
L 70.175118 108.275547 
L 70.298719 107.97495 
L 70.339919 107.884771 
L 70.481545 107.524056 
L 70.496995 107.554115 
L 70.566521 107.313638 
L 70.574246 107.343698 
L 70.695272 107.043101 
L 70.697847 107.103221 
L 70.798273 106.862744 
L 70.842048 106.802624 
L 70.947624 106.532087 
L 70.860073 106.832684 
L 70.963074 106.562147 
L 71.0841 106.35173 
L 70.970799 106.592207 
L 71.08925 106.381789 
L 71.138176 106.29161 
L 71.256627 106.111252 
L 71.143326 106.32167 
L 71.259202 106.141312 
L 71.261777 106.171372 
L 71.344177 105.930895 
L 71.354477 105.991014 
L 71.475503 105.720477 
L 71.490954 105.750537 
L 71.565629 105.600239 
L 71.575929 105.600239 
L 71.591379 105.630298 
L 71.707255 105.359761 
L 71.722706 105.419881 
L 71.805106 105.239523 
L 71.810256 105.269583 
L 71.926132 105.089225 
L 71.817981 105.299642 
L 71.933857 105.119284 
L 71.975058 105.029105 
L 72.103809 104.788628 
L 72.124409 104.848748 
L 72.165609 104.698449 
L 72.209385 104.728509 
L 72.271185 104.63833 
L 72.27891 104.66839 
L 72.394786 104.488032 
L 72.407661 104.518091 
L 72.487487 104.337734 
L 72.492637 104.337734 
L 72.623963 104.247555 
L 72.685763 104.277614 
L 72.742414 104.127316 
L 72.744989 104.187435 
L 72.83254 104.037137 
L 72.850565 104.097256 
L 73.154417 104.007078 
L 73.167292 104.037137 
L 73.270293 103.856779 
L 73.329519 103.916899 
L 73.375869 103.79666 
L 73.378444 103.856779 
L 73.486595 103.79666 
L 73.43252 103.916899 
L 73.491745 103.82672 
L 73.800748 103.79666 
L 73.803323 103.706481 
L 73.839373 103.82672 
L 73.911473 103.7666 
L 73.914049 103.79666 
L 73.996449 103.676421 
L 74.017049 103.706481 
L 74.14065 103.556183 
L 74.228201 103.526123 
L 74.336352 103.345765 
L 74.341502 103.405885 
L 74.372402 103.435944 
L 74.385277 103.345765 
L 74.449653 103.375825 
L 74.552654 103.285646 
L 74.614454 103.255586 
L 74.629904 103.375825 
L 74.66338 103.285646 
L 74.774106 103.375825 
L 74.776681 103.315706 
L 74.781831 103.345765 
L 74.892557 103.255586 
L 75.016158 103.165408 
L 75.021308 103.195467 
L 75.132034 103.075229 
L 75.247909 103.195467 
L 75.250484 103.165408 
L 75.459061 103.195467 
L 75.461636 103.285646 
L 75.502837 103.165408 
L 75.569787 103.225527 
L 75.626438 103.135348 
L 75.683088 103.165408 
L 75.706263 103.255586 
L 75.796389 103.195467 
L 76.352594 103.285646 
L 76.419544 103.315706 
L 76.386069 103.225527 
L 76.460744 103.255586 
L 76.790347 103.165408 
L 76.901073 103.075229 
L 76.805797 103.195467 
L 76.906223 103.105288 
L 77.228101 103.135348 
L 77.336252 103.345765 
L 77.341402 103.285646 
L 77.678729 103.195467 
L 77.689029 103.255586 
L 77.79203 103.135348 
L 77.902756 103.225527 
L 77.907906 103.195467 
L 78.057258 103.165408 
L 78.149958 103.075229 
L 78.113908 103.195467 
L 78.167983 103.165408 
L 78.701013 103.105288 
L 78.814314 102.98505 
L 78.92504 103.075229 
L 78.927615 103.045169 
L 78.94049 103.015109 
L 78.99714 103.165408 
L 79.033191 103.075229 
L 79.123316 103.225527 
L 79.154217 103.195467 
L 79.200567 103.135348 
L 79.164517 103.255586 
L 79.262367 103.225527 
L 79.859772 103.195467 
L 79.862347 103.105288 
L 79.877797 103.225527 
L 79.967923 103.195467 
L 79.975648 103.255586 
L 80.037449 103.105288 
L 80.070924 103.135348 
L 80.1971 102.894871 
L 80.199675 102.92493 
L 80.230575 103.015109 
L 80.274351 102.864811 
L 80.307826 102.92493 
L 80.361901 102.834751 
L 80.318126 102.95499 
L 80.418552 102.894871 
L 80.498378 103.075229 
L 80.539578 103.015109 
L 80.542153 102.95499 
L 80.640004 103.135348 
L 80.645154 103.135348 
L 80.673479 103.105288 
L 80.727554 103.225527 
L 80.753305 103.135348 
L 80.858881 103.255586 
L 80.804805 103.105288 
L 80.866606 103.195467 
L 80.871756 103.165408 
L 80.936131 103.315706 
L 80.967031 103.315706 
L 81.149858 103.225527 
L 81.175608 103.285646 
L 81.260584 103.195467 
L 81.317234 103.285646 
L 81.373885 103.225527 
L 81.525811 103.255586 
L 81.639112 103.435944 
L 81.708637 103.466004 
L 81.752413 103.375825 
L 81.839964 103.435944 
L 81.863139 103.375825 
L 81.97644 103.255586 
L 81.868289 103.405885 
L 81.979015 103.315706 
L 82.094891 103.405885 
L 82.203042 103.315706 
L 82.112916 103.435944 
L 82.208192 103.345765 
L 82.210767 103.375825 
L 82.262267 102.92493 
L 82.288017 102.98505 
L 82.406468 102.834751 
L 82.409043 102.864811 
L 82.499169 102.92493 
L 82.427068 102.834751 
L 82.519769 102.894871 
L 82.542944 102.744573 
L 82.63307 102.834751 
L 82.748946 108.125249 
L 83.063099 131.962545 
L 83.79183 153.605487 
L 84.028732 156.551332 
L 84.046757 156.641511 
L 84.597811 161.78171 
L 84.600386 161.75165 
L 84.662187 162.202545 
L 84.669912 162.202545 
L 84.878489 163.344811 
L 84.881064 163.284692 
L 84.971189 163.705527 
L 84.973764 163.705527 
L 85.00724 163.765646 
L 85.071615 164.066243 
L 85.125691 163.976064 
L 85.161741 163.885885 
L 85.220966 164.186481 
L 85.226116 164.186481 
L 85.347142 164.547197 
L 85.349717 164.517137 
L 85.370318 164.607316 
L 85.390918 164.577256 
L 85.514519 164.998091 
L 85.568594 165.08827 
L 85.60722 165.058211 
L 85.68962 165.268628 
L 85.692195 165.208509 
L 85.779746 165.448986 
L 85.792621 165.448986 
L 85.836396 165.539165 
L 85.929097 165.599284 
L 85.846696 165.479046 
L 85.947122 165.539165 
L 86.230375 165.629344 
L 86.333375 165.719523 
L 86.2793 165.599284 
L 86.341101 165.689463 
L 86.446676 165.629344 
L 86.361701 165.719523 
L 86.451826 165.659404 
L 86.503327 165.569225 
L 86.603753 165.448986 
L 86.511052 165.629344 
L 86.616628 165.509105 
L 86.637228 165.569225 
L 86.673278 165.388867 
L 86.717054 165.388867 
L 86.88443 165.479046 
L 86.997731 165.569225 
L 86.88958 165.448986 
L 87.000306 165.539165 
L 87.028631 165.629344 
L 87.074982 165.689463 
L 87.090432 165.509105 
L 87.134207 165.569225 
L 87.239783 165.448986 
L 87.162532 165.599284 
L 87.250083 165.479046 
L 87.363384 165.629344 
L 87.365959 165.599284 
L 87.492135 165.809702 
L 87.587411 165.779642 
L 87.577111 165.899881 
L 87.600286 165.809702 
L 87.721312 165.96 
L 87.847488 165.569225 
L 87.904138 165.509105 
L 87.991689 165.388867 
L 88.014864 165.509105 
L 88.192541 165.418926 
L 88.303267 165.328748 
L 88.213141 165.448986 
L 88.305842 165.358807 
L 88.377942 165.298688 
L 88.483518 165.08827 
L 88.416568 165.358807 
L 88.493818 165.14839 
L 88.558194 165.058211 
L 88.68952 164.547197 
L 88.71527 164.577256 
L 88.769345 164.366839 
L 88.787371 164.426958 
L 88.908397 164.156421 
L 88.944447 164.066243 
L 89.034573 163.915944 
L 89.057748 163.976064 
L 89.091223 164.036183 
L 89.106673 163.915944 
L 89.165899 163.976064 
L 89.248299 163.825765 
L 89.281775 163.855825 
L 89.292075 163.885885 
L 89.3616 163.615348 
L 89.3719 163.645408 
L 89.516102 163.254632 
L 89.559877 163.194513 
L 89.683478 162.893917 
L 89.711803 162.803738 
L 89.845704 162.533201 
L 89.917805 162.443022 
L 90.041406 162.202545 
L 90.059431 162.292724 
L 90.136682 161.932008 
L 90.144407 161.932008 
L 90.146982 161.992127 
L 90.190757 161.75165 
L 90.249983 161.811769 
L 90.371009 161.451054 
L 90.373584 161.481113 
L 90.412209 161.390934 
L 90.422509 161.420994 
L 90.553835 161.030219 
L 90.595035 160.94004 
L 90.723787 160.549264 
L 90.605336 160.970099 
L 90.736662 160.579324 
L 90.777862 160.489145 
L 90.795887 160.519205 
L 90.898888 160.368907 
L 90.914338 160.398966 
L 90.994164 160.188549 
L 90.996739 160.218608 
L 91.025064 160.128429 
L 91.030214 160.158489 
L 91.15639 159.857893 
L 91.16669 159.887952 
L 91.233641 159.617416 
L 91.246516 159.647475 
L 91.401017 159.136461 
L 91.424192 159.046282 
L 91.434492 159.076342 
L 91.565818 158.685567 
L 91.614744 158.595388 
L 91.74092 158.204612 
L 91.75122 158.264732 
L 91.823321 158.024254 
L 91.841346 158.084374 
L 91.962372 157.783777 
L 91.982972 157.813837 
L 92.052497 157.603419 
L 92.057647 157.603419 
L 92.201849 157.122465 
L 92.206999 157.152525 
L 92.212149 157.182584 
L 92.289399 156.881988 
L 92.297124 156.912048 
L 92.3409 156.821869 
L 92.485101 156.431093 
L 92.518576 156.340915 
L 92.644752 155.980199 
L 92.526301 156.370974 
L 92.655052 156.010258 
L 92.657627 156.040318 
L 92.734878 155.799841 
L 92.747753 155.799841 
L 92.758053 155.769781 
L 92.868779 155.589423 
L 92.770928 155.799841 
L 92.871354 155.619483 
L 92.917705 155.529304 
L 93.046456 155.198648 
L 92.922855 155.559364 
L 93.054181 155.228708 
L 93.056756 155.258767 
L 93.144306 155.01829 
L 93.265332 154.777813 
L 93.273057 154.807873 
L 93.329708 154.747753 
L 93.443009 154.477217 
L 93.448159 154.537336 
L 93.468759 154.447157 
L 93.486784 154.477217 
L 93.60781 154.116501 
L 93.651586 154.026322 
L 93.656736 154.056382 
L 93.788062 153.725726 
L 93.839562 153.665606 
L 93.958013 153.39507 
L 93.960588 153.425129 
L 94.109939 152.974235 
L 94.158865 152.884056 
L 94.169165 152.944175 
L 94.287616 152.673638 
L 94.292766 152.703698 
L 94.349416 152.463221 
L 94.380317 152.49328 
L 94.524518 152.102505 
L 94.547693 152.042386 
L 94.668719 151.65161 
L 94.671294 151.68167 
L 94.673869 151.71173 
L 94.75112 151.471252 
L 94.763995 151.471252 
L 94.80777 151.411133 
L 94.928796 151.020358 
L 95.075572 150.599523 
L 95.078147 150.629583 
L 95.160548 150.359046 
L 95.165698 150.359046 
L 95.291874 149.908151 
L 95.294449 149.938211 
L 95.297024 149.96827 
L 95.38715 149.727793 
L 95.3923 149.817972 
L 95.518476 149.577495 
L 95.521051 149.607555 
L 95.585426 149.577495 
L 95.703877 149.246839 
L 95.773403 149.15666 
L 95.778553 149.18672 
L 95.894429 149.006362 
L 95.917604 149.036421 
L 95.958804 148.916183 
L 95.99743 148.916183 
L 96.015455 148.856064 
L 96.108156 148.585527 
L 96.02833 148.916183 
L 96.133906 148.675706 
L 96.272957 148.34505 
L 96.278107 148.375109 
L 96.363083 148.104573 
L 96.368233 148.164692 
L 96.391408 148.104573 
L 96.517584 147.743857 
L 96.533034 147.834036 
L 96.610285 147.563499 
L 96.615435 147.593559 
L 96.620585 147.623618 
L 96.762211 147.172724 
L 96.795686 147.082545 
L 96.800836 147.112604 
L 96.927012 146.751889 
L 96.929587 146.842068 
L 97.027438 146.571531 
L 97.032588 146.571531 
L 97.037738 146.60159 
L 97.109839 146.391173 
L 97.127864 146.391173 
L 97.176789 146.300994 
L 97.302966 145.910219 
L 97.315841 145.940278 
L 97.320991 146.000398 
L 97.400816 145.729861 
L 97.411116 145.75992 
L 97.460042 145.669742 
L 97.593943 145.369145 
L 97.596518 145.399205 
L 97.686644 145.188787 
L 97.689219 145.188787 
L 97.738144 145.098608 
L 97.743294 145.128668 
L 97.86947 144.858131 
L 97.897795 144.767952 
L 97.915821 144.798012 
L 98.026546 144.527475 
L 98.039422 144.557535 
L 98.116672 144.286998 
L 98.157873 144.226879 
L 98.284049 143.866163 
L 98.307224 143.806044 
L 98.425675 143.505447 
L 98.317524 143.866163 
L 98.42825 143.565567 
L 98.451425 143.475388 
L 98.587901 143.174791 
L 98.603351 143.204851 
L 98.680602 143.024493 
L 98.688327 143.084612 
L 98.827378 142.753956 
L 98.858278 142.663777 
L 98.863428 142.693837 
L 99.002479 142.273002 
L 99.02823 142.212883 
L 99.156981 141.792048 
L 99.159556 141.882227 
L 99.247106 141.64175 
L 99.262557 141.671809 
L 99.396458 141.341153 
L 99.399033 141.371213 
L 99.432508 141.281034 
L 99.556109 140.980437 
L 99.584434 141.010497 
L 99.641085 140.80008 
L 99.651385 140.860199 
L 99.769836 140.499483 
L 99.774986 140.529543 
L 99.831636 140.439364 
L 99.970687 140.108708 
L 99.983563 140.168827 
L 100.063388 139.92835 
L 100.189564 139.567634 
L 100.199864 139.597694 
L 100.24879 139.627753 
L 100.282265 139.477455 
L 100.297715 139.477455 
L 100.413591 139.236978 
L 100.426466 139.267038 
L 100.429041 139.297097 
L 100.516592 139.05662 
L 100.519167 139.08668 
L 100.663368 138.695905 
L 100.727744 138.605726 
L 100.87452 138.184891 
L 100.89512 138.21495 
L 100.95177 138.004533 
L 100.967221 138.004533 
L 100.972371 138.034592 
L 101.111422 137.613757 
L 101.188672 137.523579 
L 101.307123 137.253042 
L 101.201548 137.553638 
L 101.309698 137.283101 
L 101.441025 137.012565 
L 101.44875 137.072684 
L 101.533725 136.802147 
L 101.5363 136.832207 
L 101.592951 136.742028 
L 101.739727 136.321193 
L 101.742302 136.381312 
L 101.832428 136.050656 
L 101.840153 136.110775 
L 101.976629 135.75006 
L 101.979204 135.780119 
L 102.020404 135.68994 
L 102.14143 135.449463 
L 102.154305 135.479523 
L 102.213531 135.239046 
L 102.231556 135.269105 
L 102.244431 135.299165 
L 102.355157 134.90839 
L 102.362882 134.938449 
L 102.445283 134.667913 
L 102.447858 134.697972 
L 102.594634 134.247078 
L 102.599784 134.307197 
L 102.682185 134.0066 
L 102.692485 134.0066 
L 102.828961 133.615825 
L 102.831536 133.675944 
L 102.865011 133.615825 
L 102.988612 133.285169 
L 103.016937 133.22505 
L 103.130238 132.894394 
L 103.135388 132.924453 
L 103.282165 132.503618 
L 103.287315 132.533678 
L 103.359415 132.233082 
L 103.36714 132.233082 
L 103.513917 131.812247 
L 103.529367 131.842306 
L 103.604042 131.601829 
L 103.606617 131.601829 
L 103.748243 131.211054 
L 103.750818 131.241113 
L 103.830644 130.970577 
L 103.840944 131.000636 
L 103.882145 130.940517 
L 104.008321 130.579801 
L 104.010896 130.63992 
L 104.101021 130.279205 
L 104.106171 130.279205 
L 104.137072 130.189026 
L 104.270973 129.79825 
L 104.278698 129.82831 
L 104.301873 129.768191 
L 104.422899 129.377416 
L 104.466674 129.287237 
L 104.613451 128.836342 
L 104.616026 128.866402 
L 104.685551 128.595865 
L 104.703576 128.595865 
L 104.747352 128.505686 
L 104.883828 128.114911 
L 104.757652 128.535746 
L 104.888978 128.14497 
L 104.891553 128.17503 
L 104.976529 127.874433 
L 105.004854 127.784254 
L 105.15678 127.273241 
L 105.16193 127.33336 
L 105.226306 127.032763 
L 105.249481 127.092883 
L 105.401407 126.49169 
L 105.406557 126.52175 
L 105.409132 126.551809 
L 105.481233 126.191093 
L 105.488958 126.251213 
L 105.615134 125.830378 
L 105.630584 125.860437 
L 105.700109 125.61996 
L 105.70526 125.61996 
L 105.844311 125.169066 
L 105.712985 125.65002 
L 105.849461 125.199125 
L 105.852036 125.229185 
L 105.931861 124.928588 
L 105.937011 124.928588 
L 105.983362 124.868469 
L 106.114688 124.387515 
L 106.130138 124.417575 
L 106.266614 123.906561 
L 106.269189 123.96668 
L 106.36189 123.545845 
L 106.379915 123.575905 
L 106.454591 123.335427 
L 106.495791 123.245249 
L 106.511241 123.305368 
L 106.637417 122.884533 
L 106.639992 122.914592 
L 106.719818 122.644056 
L 106.724968 122.644056 
L 106.853719 122.102982 
L 106.856294 122.133042 
L 106.858869 122.163101 
L 106.933545 121.832445 
L 106.938695 121.862505 
L 107.072596 121.321431 
L 107.103496 121.231252 
L 107.260572 120.690179 
L 107.306923 120.6 
L 107.463999 120.028867 
L 107.469149 120.088986 
L 107.559275 119.72827 
L 107.56185 119.72827 
L 107.569575 119.75833 
L 107.63395 119.487793 
L 107.6494 119.487793 
L 107.811627 118.8866 
L 107.847677 118.856541 
L 107.966128 118.465765 
L 108.118054 117.984811 
L 108.15153 117.894632 
L 108.295731 117.413678 
L 108.300881 117.443738 
L 108.303456 117.473797 
L 108.383281 117.143141 
L 108.385857 117.143141 
L 108.411607 117.083022 
L 108.540358 116.572008 
L 108.550658 116.632127 
L 108.635634 116.241352 
L 108.638209 116.271412 
L 108.784985 115.730338 
L 108.790135 115.760398 
L 108.79271 115.790457 
L 108.875111 115.489861 
L 108.880261 115.51992 
L 109.006437 115.099085 
L 109.011587 115.159205 
L 109.068237 114.858608 
L 109.096562 114.858608 
L 109.248489 114.227356 
L 109.253639 114.317535 
L 109.274239 114.227356 
L 109.44419 113.535984 
L 109.446765 113.596103 
L 109.539466 113.235388 
L 109.701692 112.634195 
L 109.704267 112.664254 
L 109.784093 112.303539 
L 109.799543 112.21336 
L 109.954044 111.702346 
L 110.000395 111.642227 
L 110.131721 111.161272 
L 110.185796 111.071093 
L 110.311972 110.590139 
L 110.314547 110.620199 
L 110.329997 110.56008 
L 110.458749 110.049066 
L 110.461324 110.079125 
L 110.484499 110.019006 
L 110.6081 109.568111 
L 110.626125 109.477932 
L 110.783201 108.87674 
L 110.785776 108.906799 
L 110.816676 108.81662 
L 110.981478 108.185368 
L 110.984053 108.215427 
L 111.061303 107.824652 
L 111.23383 107.103221 
L 111.23898 107.13328 
L 111.311081 106.772565 
L 111.321381 106.832684 
L 111.452707 106.35173 
L 111.475882 106.29161 
L 111.596908 105.870775 
L 111.602058 105.900835 
L 111.614933 105.810656 
L 111.761709 105.389821 
L 111.777159 105.329702 
L 111.90591 104.878807 
L 111.939386 104.818688 
L 112.070712 104.277614 
L 112.073287 104.337734 
L 112.160838 103.886839 
L 112.165988 103.916899 
L 112.299889 103.375825 
L 112.302464 103.435944 
L 112.392589 103.075229 
L 112.397739 103.075229 
L 112.40804 103.045169 
L 112.529066 102.654394 
L 112.531641 102.684453 
L 112.611466 102.353797 
L 112.616616 102.383857 
L 112.786568 101.692485 
L 112.814893 101.602306 
L 112.951369 101.001113 
L 112.961669 101.031173 
L 113.026045 100.700517 
L 113.036345 100.760636 
L 113.167671 100.279682 
L 113.190846 100.189503 
L 113.195996 100.219563 
L 113.342772 99.678489 
L 113.345347 99.708549 
L 113.430323 99.438012 
L 113.600274 98.74664 
L 113.607999 98.806759 
L 113.68525 98.446044 
L 113.687825 98.476103 
L 113.703275 98.385924 
L 113.834601 97.844851 
L 113.837176 97.874911 
L 113.914427 97.544254 
L 113.919577 97.544254 
L 114.079228 96.973121 
L 114.112704 96.943062 
L 114.23888 96.401988 
L 114.241455 96.432048 
L 114.32128 96.101392 
L 114.323855 96.131451 
L 114.498957 95.349901 
L 114.504107 95.37996 
L 114.578782 95.019245 
L 114.733284 94.478171 
L 114.738434 94.508231 
L 114.807959 94.147515 
L 114.815684 94.147515 
L 114.87491 94.057336 
L 115.008811 93.516262 
L 115.026836 93.456143 
L 115.158162 92.945129 
L 115.160737 92.975189 
L 115.240563 92.614473 
L 115.268888 92.524294 
L 115.443989 91.772803 
L 115.482615 91.712684 
L 115.619091 91.021312 
L 115.621666 91.051372 
L 115.639691 90.961193 
L 115.781317 90.420119 
L 115.791617 90.450179 
L 115.799342 90.510298 
L 115.868868 90.209702 
L 115.886893 90.269821 
L 116.013069 89.758807 
L 116.018219 89.788867 
L 116.087745 89.788867 
L 116.201046 89.277853 
L 116.206196 89.307913 
L 116.249971 89.217734 
L 116.427648 88.406123 
L 116.430223 88.466243 
L 116.525498 88.165646 
L 116.528073 88.195706 
L 116.7006 87.474274 
L 116.72635 87.384095 
L 116.909176 86.512366 
L 116.911752 86.572485 
L 116.991577 85.941233 
L 116.994152 85.941233 
L 116.999302 85.881113 
L 117.135778 85.249861 
L 117.213029 85.370099 
L 117.153804 85.219801 
L 117.246504 85.27992 
L 117.38298 84.678728 
L 117.573532 83.295984 
L 117.609582 83.326044 
L 117.622457 83.235865 
L 117.838759 80.590616 
L 117.841334 80.650736 
L 117.843909 80.680795 
L 117.897985 80.109662 
L 117.90056 80.109662 
L 117.92631 74.759046 
L 117.959785 14.76 
L 118.031886 80.500437 
L 118.137462 92.704652 
L 118.170937 92.614473 
L 118.191537 92.554354 
L 118.348613 91.382028 
L 118.351188 91.442147 
L 118.431014 90.810895 
L 118.433589 90.840954 
L 118.59839 89.51833 
L 118.600965 89.54839 
L 118.660191 89.007316 
L 118.665341 89.007316 
L 118.830142 87.053439 
L 118.832717 87.083499 
L 118.884218 86.392127 
L 118.889368 86.392127 
L 119.015544 85.580517 
L 119.018119 85.610577 
L 119.077344 85.039443 
L 119.079919 85.039443 
L 119.512523 80.921272 
L 119.533123 81.041511 
L 119.576898 81.281988 
L 119.618099 80.981392 
L 119.641274 81.011451 
L 119.646424 80.891213 
L 119.687624 81.221869 
L 119.749425 81.041511 
L 119.7623 81.13169 
L 119.831825 80.831093 
L 119.849851 80.891213 
L 119.937401 80.500437 
L 119.973452 80.590616 
L 120.009502 80.680795 
L 120.145978 81.071571 
L 120.151128 81.041511 
L 120.200054 81.011451 
L 120.33653 80.049543 
L 120.339105 80.109662 
L 120.39318 79.207873 
L 120.41378 79.267992 
L 120.519356 78.726918 
L 120.42408 79.298052 
L 120.547681 78.967396 
L 120.552831 79.027515 
L 120.632657 78.787038 
L 120.648107 78.787038 
L 120.691883 78.276024 
L 120.784583 78.456382 
L 120.833509 78.63674 
L 120.885009 78.095666 
L 120.94681 76.833161 
L 121.062686 77.314115 
L 121.088436 77.404294 
L 121.175987 77.524533 
L 121.188862 77.284056 
L 121.219762 77.374235 
L 121.394863 78.276024 
L 121.400013 78.215905 
L 121.405163 78.155785 
L 121.472114 78.426322 
L 121.510739 78.185845 
L 121.57254 78.095666 
L 121.647215 77.915308 
L 121.585415 78.125726 
L 121.696141 77.945368 
L 121.706441 77.885249 
L 121.842917 77.284056 
L 121.886692 77.434354 
L 121.933043 76.803101 
L 122.061794 75.811133 
L 122.108144 76.021551 
L 122.211145 76.592684 
L 122.23947 76.532565 
L 122.26522 76.442386 
L 122.327021 76.773042 
L 122.329596 76.773042 
L 122.424872 76.9534 
L 122.342471 76.712922 
L 122.440322 76.803101 
L 122.468647 76.652803 
L 122.535598 76.863221 
L 122.553623 76.773042 
L 122.581948 76.863221 
L 122.659199 77.133757 
L 122.594823 76.803101 
L 122.702974 77.073638 
L 122.826575 76.021551 
L 122.83945 76.141789 
L 122.847175 76.171849 
L 122.867775 76.352207 
L 122.950176 75.961431 
L 122.955326 76.08167 
L 123.009402 76.021551 
L 123.112402 75.540596 
L 123.127853 75.660835 
L 123.135578 75.781074 
L 123.184503 75.059642 
L 123.187078 75.059642 
L 123.336429 72.053678 
L 123.354454 61.352445 
L 123.395655 27.174632 
L 123.46003 66.673002 
L 123.601656 87.263857 
L 123.606806 87.203738 
L 123.614532 87.143618 
L 123.936409 82.213837 
L 124.116661 78.937336 
L 124.237687 63.426561 
L 124.276312 25.401113 
L 124.343263 68.115865 
L 124.474589 87.80493 
L 124.487464 87.714751 
L 124.508064 87.80493 
L 124.562139 87.293917 
L 124.837667 83.446282 
L 125.105469 79.057575 
L 125.24967 72.173917 
L 125.29602 24.589503 
L 125.362971 68.867356 
L 125.509747 87.684692 
L 125.713174 85.520398 
L 125.955226 81.402227 
L 126.202428 76.622744 
L 126.297704 72.083738 
L 126.346629 25.551412 
L 126.41358 67.514672 
L 126.555206 86.812962 
L 126.562931 86.722783 
L 126.565506 86.752843 
L 126.627306 86.241829 
L 126.632456 86.241829 
L 126.931159 81.462346 
L 127.368912 73.797137 
L 127.397238 74.067674 
L 127.435863 73.286123 
L 127.525989 68.717058 
L 127.577489 28.978211 
L 127.64444 64.659006 
L 127.788641 85.30998 
L 127.796366 85.249861 
L 128.298495 78.095666 
L 128.581747 74.067674 
L 128.584322 74.127793 
L 128.666723 73.5266 
L 128.677023 73.376302 
L 128.731099 73.646839 
L 128.774874 73.5266 
L 128.8753 74.42839 
L 128.91135 74.127793 
L 128.94225 74.157853 
L 129.081301 73.406362 
L 129.145677 73.676899 
L 129.194602 73.496541 
L 129.315628 73.226004 
L 129.356829 73.135825 
L 129.452104 72.654871 
L 129.49588 72.805169 
L 129.50618 72.74505 
L 129.604031 72.113797 
L 129.51648 72.775109 
L 129.637506 72.264095 
L 129.658106 72.203976 
L 129.701882 72.444453 
L 129.773982 72.023618 
L 129.799732 71.963499 
L 129.833208 71.692962 
L 129.897583 72.234036 
L 130.07526 73.646839 
L 130.113885 73.496541 
L 130.17826 73.286123 
L 130.119035 73.5266 
L 130.232336 73.316183 
L 130.260661 73.316183 
L 130.384262 72.534632 
L 130.389412 72.534632 
L 130.531038 70.791173 
L 130.536188 70.821233 
L 130.585114 70.039682 
L 130.652064 70.761113 
L 130.79369 71.482545 
L 130.811716 71.332247 
L 130.925017 71.03165 
L 130.937892 71.151889 
L 130.948192 71.06171 
L 131.097543 70.460517 
L 131.007417 71.242068 
L 131.107843 70.490577 
L 131.143893 70.430457 
L 131.174794 70.069742 
L 131.231444 70.610815 
L 131.254619 70.400398 
L 131.355045 70.610815 
L 131.272644 70.370338 
L 131.36792 70.430457 
L 131.455471 69.949503 
L 131.512121 70.039682 
L 131.517271 70.009622 
L 131.555897 69.799205 
L 131.620272 70.129861 
L 131.622847 70.129861 
L 131.643447 70.039682 
L 131.890649 68.386402 
L 131.893225 68.416461 
L 131.9061 68.476581 
L 131.939575 68.386402 
L 132.068326 69.709026 
L 132.070901 69.678966 
L 132.127551 70.22004 
L 132.132701 70.22004 
L 132.166177 70.370338 
L 132.215102 69.919443 
L 132.217677 69.919443 
L 132.222827 69.889384 
L 132.338703 68.927475 
L 132.359303 68.957535 
L 132.485479 68.446521 
L 132.392779 69.017654 
L 132.508655 68.50664 
L 132.634831 69.077773 
L 132.647706 69.167952 
L 132.665731 69.31825 
L 132.727531 68.987594 
L 132.745557 69.017654 
L 132.786757 68.987594 
L 132.915508 68.356342 
L 132.925808 68.326282 
L 132.967008 68.055746 
L 133.013359 68.50664 
L 133.028809 68.50664 
L 133.118935 68.626879 
L 133.088034 68.386402 
L 133.139535 68.5367 
L 133.265711 67.454553 
L 133.317211 67.755149 
L 133.438237 68.416461 
L 133.445962 68.386402 
L 133.497463 68.596819 
L 133.538663 68.356342 
L 133.572138 68.566759 
L 133.582438 68.596819 
L 133.626214 69.077773 
L 133.685439 68.476581 
L 133.690589 68.50664 
L 133.695739 68.416461 
L 133.765265 68.897416 
L 133.865691 69.558728 
L 133.894016 69.528668 
L 133.906891 69.588787 
L 133.940366 69.829264 
L 134.009892 69.528668 
L 134.015042 69.558728 
L 134.092293 69.137893 
L 134.123193 69.558728 
L 134.221044 70.22004 
L 134.264819 69.949503 
L 134.365245 69.288191 
L 134.39357 69.498608 
L 134.491421 69.919443 
L 134.41932 69.34831 
L 134.530046 69.859324 
L 134.681972 68.807237 
L 134.730898 69.017654 
L 134.772098 68.717058 
L 134.787548 68.747117 
L 134.9472 67.454553 
L 134.805573 68.777177 
L 134.949775 67.514672 
L 135.0296 67.845328 
L 135.063076 67.544732 
L 135.086251 67.634911 
L 135.178951 68.085805 
L 135.209852 67.785209 
L 135.233027 67.69503 
L 135.392678 66.492644 
L 135.421003 66.733121 
L 135.503404 67.214076 
L 135.539454 66.943539 
L 135.657905 66.733121 
L 135.701681 66.552763 
L 135.866482 67.965567 
L 135.869057 67.875388 
L 135.915408 68.206044 
L 135.972058 68.115865 
L 136.136859 68.897416 
L 136.144584 68.837296 
L 136.152309 68.777177 
L 136.283636 67.785209 
L 136.160035 68.807237 
L 136.301661 67.845328 
L 136.314536 67.755149 
L 136.394361 67.424493 
L 136.432987 67.544732 
L 136.456162 67.755149 
L 136.525688 67.454553 
L 136.533413 67.484612 
L 136.538563 67.424493 
L 136.620963 67.965567 
L 136.626113 68.025686 
L 136.654439 67.845328 
L 136.718814 67.905447 
L 136.832115 67.454553 
L 136.83984 67.514672 
L 136.852715 67.484612 
L 136.935116 67.033718 
L 136.968591 67.123897 
L 136.978891 67.214076 
L 137.069017 67.574791 
L 137.094767 67.364374 
L 137.231243 66.101869 
L 137.249268 66.342346 
L 137.259569 66.432525 
L 137.39347 66.85336 
L 137.295619 66.402465 
L 137.401195 66.8233 
L 137.41922 66.733121 
L 137.46042 67.063777 
L 137.496471 66.943539 
L 137.542821 67.214076 
L 137.607196 66.973598 
L 137.738523 66.733121 
L 137.746248 66.8233 
L 137.823498 66.462584 
L 137.833798 66.342346 
L 137.862124 66.612883 
L 137.931649 66.522704 
L 137.962549 66.582823 
L 138.006325 66.763181 
L 138.0295 66.552763 
L 138.073275 66.612883 
L 138.07585 66.642942 
L 138.135076 66.312286 
L 138.155676 66.372406 
L 138.222626 65.320318 
L 138.284427 65.711093 
L 138.441503 67.634911 
L 138.467253 67.394433 
L 138.621755 66.733121 
L 138.632055 66.763181 
L 138.71188 66.913479 
L 138.732481 66.642942 
L 138.853507 66.192048 
L 138.755656 66.793241 
L 138.871532 66.312286 
L 138.905007 66.402465 
L 138.920457 66.522704 
L 138.969383 66.101869 
L 138.987408 66.131928 
L 139.028608 65.98163 
L 139.090409 66.252167 
L 139.129034 66.763181 
L 139.20371 66.342346 
L 139.22431 66.282227 
L 139.268085 66.8233 
L 139.298985 66.673002 
L 139.304135 66.763181 
L 139.327311 66.522704 
L 139.407136 66.642942 
L 139.409711 66.612883 
L 139.484387 67.033718 
L 139.515287 67.123897 
L 139.520437 67.184016 
L 139.559062 67.003658 
L 139.615713 67.063777 
L 139.749614 66.192048 
L 139.757339 66.101869 
L 139.986516 64.478648 
L 139.999391 64.568827 
L 140.117842 65.891451 
L 140.177068 65.350378 
L 140.187368 65.260199 
L 140.192518 65.290258 
L 140.357319 64.538767 
L 140.596796 66.131928 
L 140.599371 66.101869 
L 140.712672 65.620915 
L 140.635421 66.131928 
L 140.740997 65.711093 
L 140.831123 65.98163 
L 140.859448 65.891451 
L 140.864598 65.951571 
L 140.910949 65.20008 
L 140.965024 64.478648 
L 141.042275 64.899483 
L 141.168451 65.620915 
L 141.176176 65.500676 
L 141.263726 65.230139 
L 141.199351 65.530736 
L 141.289477 65.470616 
L 141.302352 65.380437 
L 141.407928 64.598887 
L 141.438828 64.659006 
L 141.469728 64.568827 
L 141.562429 65.20008 
L 141.616504 64.989662 
L 141.67573 65.13996 
L 141.698905 65.109901 
L 141.796756 65.440557 
L 141.855981 65.320318 
L 141.894607 65.711093 
L 141.987307 65.98163 
L 142.015633 65.831332 
L 142.033658 65.921511 
L 142.074858 66.192048 
L 142.136659 65.861392 
L 142.144384 65.921511 
L 142.185584 65.831332 
L 142.373561 63.847396 
L 142.378711 63.877455 
L 142.389011 63.967634 
L 142.435361 64.418529 
L 142.479136 63.877455 
L 142.510037 64.087873 
L 142.522912 64.147992 
L 142.589862 64.568827 
L 142.636213 64.238171 
L 142.659388 64.32835 
L 142.893715 65.771213 
L 142.929765 65.380437 
L 143.012166 65.681034 
L 143.094566 65.741153 
L 143.022466 65.560795 
L 143.115167 65.590855 
L 143.215592 65.109901 
L 143.233618 65.17002 
L 143.300568 65.049781 
L 143.326318 65.260199 
L 143.341769 65.20008 
L 143.346919 65.230139 
L 143.395844 64.568827 
L 143.56322 63.727157 
L 143.570945 63.787276 
L 143.784672 64.989662 
L 143.812997 64.929543 
L 143.841323 64.719125 
L 143.903123 65.049781 
L 143.918573 65.019722 
L 143.926298 65.049781 
L 143.995824 64.659006 
L 144.003549 64.719125 
L 144.016424 64.809304 
L 144.122 65.530736 
L 144.165775 65.320318 
L 144.312551 64.057813 
L 144.328002 63.967634 
L 144.358902 63.757217 
L 144.397527 64.178052 
L 144.428427 64.178052 
L 144.443878 64.208111 
L 144.562329 64.659006 
L 144.564904 64.628946 
L 144.580354 64.689066 
L 144.670479 65.380437 
L 144.70138 65.079841 
L 144.845581 64.598887 
L 144.72713 65.13996 
L 144.848156 64.659006 
L 144.873906 64.749185 
L 144.946007 64.508708 
L 144.992357 63.937575 
L 145.059308 64.418529 
L 145.242134 65.741153 
L 145.270459 65.620915 
L 145.381185 65.500676 
L 145.334835 65.831332 
L 145.386335 65.530736 
L 145.39406 65.560795 
L 145.448136 65.049781 
L 145.453286 65.049781 
L 145.592337 64.628946 
L 145.597487 64.659006 
L 145.612937 64.749185 
L 145.700488 65.290258 
L 145.754563 65.109901 
L 145.793189 65.019722 
L 145.852414 64.719125 
L 145.898765 65.049781 
L 145.90134 65.019722 
L 145.903915 65.049781 
L 145.96829 64.508708 
L 146.00434 64.32835 
L 146.058416 64.719125 
L 146.068716 64.689066 
L 146.081591 64.869423 
L 146.166567 64.478648 
L 146.171717 64.538767 
L 146.331368 63.907515 
L 146.333943 63.937575 
L 146.344243 64.027753 
L 146.400894 63.51674 
L 146.406044 63.51674 
L 146.436944 63.186083 
L 146.503894 63.787276 
L 146.51162 63.847396 
L 146.671271 65.17002 
L 146.676421 65.13996 
L 146.686721 65.049781 
L 146.913323 63.125964 
L 146.939073 63.366441 
L 147.011174 63.546799 
L 147.036924 63.216143 
L 147.11675 62.043817 
L 147.201725 62.554831 
L 147.317601 63.667038 
L 147.351076 63.45662 
L 147.441202 63.216143 
L 147.389702 63.51674 
L 147.469527 63.366441 
L 147.484978 63.396501 
L 147.593128 64.779245 
L 147.631754 64.719125 
L 147.866081 63.156024 
L 147.873806 63.186083 
L 147.894406 63.125964 
L 147.943331 62.584891 
L 147.999982 63.246203 
L 148.118433 64.538767 
L 148.162208 64.448588 
L 148.182808 64.508708 
L 148.226584 63.937575 
L 148.229159 63.937575 
L 148.260059 63.877455 
L 148.396535 63.005726 
L 148.40426 63.095905 
L 148.540736 63.48668 
L 148.448035 62.945606 
L 148.543311 63.45662 
L 148.623137 62.885487 
L 148.666912 63.246203 
L 148.777638 63.667038 
L 148.785363 63.606918 
L 148.818838 63.51674 
L 148.865189 63.937575 
L 148.872914 63.877455 
L 148.929564 64.057813 
L 148.888364 63.787276 
L 148.98364 63.877455 
L 148.991365 63.817336 
L 149.04029 63.546799 
L 149.109816 63.576859 
L 149.235992 63.757217 
L 149.241142 63.697097 
L 149.292642 64.087873 
L 149.341568 63.847396 
L 149.372468 63.757217 
L 149.416243 63.817336 
L 149.501219 63.546799 
L 149.511519 63.45662 
L 149.534694 63.306322 
L 149.611945 63.576859 
L 149.63512 63.667038 
L 149.647995 63.697097 
L 149.694346 63.095905 
L 149.941548 61.472684 
L 150.029098 61.713161 
L 150.062574 61.622982 
L 150.067724 61.562863 
L 150.119224 62.194115 
L 150.121799 62.194115 
L 150.263425 63.366441 
L 150.369001 62.795308 
L 150.387026 62.855427 
L 150.417927 62.765249 
L 150.477152 62.374473 
L 150.526077 62.765249 
L 150.605903 63.546799 
L 150.652254 63.125964 
L 150.659979 63.065845 
L 150.706329 63.48668 
L 150.752679 63.366441 
L 150.770705 63.45662 
L 150.87113 63.817336 
L 150.88658 63.667038 
L 150.956106 63.697097 
L 151.005031 63.396501 
L 151.030782 63.576859 
L 151.095157 62.945606 
L 151.244508 61.532803 
L 151.259959 61.683101 
L 151.417035 63.48668 
L 151.437635 63.306322 
L 151.584411 62.254235 
L 151.589561 62.284294 
L 151.836763 63.967634 
L 151.597286 62.254235 
L 151.839338 63.907515 
L 151.932039 63.366441 
L 151.960364 63.667038 
L 151.978389 63.757217 
L 151.986114 63.877455 
L 152.08139 63.606918 
L 152.094265 63.51674 
L 152.212716 62.254235 
L 152.238467 62.284294 
L 152.292542 62.705129 
L 152.351767 62.344414 
L 152.372368 62.164056 
L 152.436743 62.705129 
L 152.444468 62.705129 
L 152.524294 63.035785 
L 152.555194 62.735189 
L 152.678795 62.194115 
L 152.68652 62.254235 
L 152.879647 63.877455 
L 152.699395 62.224175 
L 152.923422 63.727157 
L 152.936297 63.697097 
L 153.023848 63.546799 
L 153.049598 63.576859 
L 153.059898 63.48668 
L 153.25045 61.622982 
L 153.27105 61.562863 
L 153.340576 60.751252 
L 153.397226 60.781312 
L 153.404951 60.871491 
L 153.734554 63.426561 
L 153.775754 63.336382 
L 153.786054 63.216143 
L 153.863305 63.576859 
L 153.86588 63.546799 
L 153.883905 63.606918 
L 153.93283 63.065845 
L 153.935405 63.065845 
L 153.979181 62.494712 
L 154.061582 62.885487 
L 154.064157 62.915547 
L 154.123382 62.374473 
L 154.128532 62.374473 
L 154.270158 60.901551 
L 154.326809 61.322386 
L 154.48131 62.554831 
L 154.48646 62.524771 
L 154.489035 62.494712 
L 154.558561 62.885487 
L 154.561136 62.885487 
L 154.700187 63.997694 
L 154.715637 63.937575 
L 154.965414 61.80334 
L 154.725937 63.967634 
L 154.986014 62.073877 
L 155.011764 62.164056 
L 155.04009 62.404533 
L 155.104465 61.983698 
L 155.11219 61.893519 
L 155.179141 62.374473 
L 155.284717 62.705129 
L 155.307892 62.584891 
L 155.310467 62.584891 
L 155.336217 62.464652 
L 155.413468 62.765249 
L 155.416043 62.765249 
L 155.421193 62.705129 
L 155.482993 62.915547 
L 155.557669 62.043817 
L 155.611744 62.254235 
L 155.647795 61.953638 
L 155.663245 62.013757 
L 155.71217 61.8334 
L 155.750795 62.133996 
L 155.771396 62.043817 
L 155.933622 62.64501 
L 156.119023 61.412565 
L 155.967097 62.735189 
L 156.137049 61.472684 
L 156.234899 62.374473 
L 156.268375 62.194115 
L 156.299275 62.344414 
L 156.35335 61.80334 
L 156.36365 61.8334 
L 156.453776 61.202147 
L 156.507852 61.442624 
L 156.639178 61.953638 
L 156.657203 62.073877 
L 156.878655 60.450656 
L 156.894105 60.540835 
L 157.025431 62.464652 
L 157.154182 62.284294 
L 157.169632 62.344414 
L 157.177357 62.434592 
L 157.241733 61.653042 
L 157.249458 61.653042 
L 157.308683 61.592922 
L 157.380784 60.781312 
L 157.437434 60.96167 
L 157.504385 61.743221 
L 157.55846 61.352445 
L 157.682061 61.622982 
L 157.630561 61.262266 
L 157.687211 61.592922 
L 157.808237 61.232207 
L 157.841713 61.322386 
L 157.885488 61.653042 
L 157.955013 61.382505 
L 158.011664 61.562863 
L 158.181615 60.029821 
L 158.243416 59.458688 
L 158.312941 60.510775 
L 158.405642 61.502744 
L 158.477743 61.142028 
L 158.585894 59.789344 
L 158.652844 60.390537 
L 158.668294 60.300358 
L 158.79447 59.789344 
L 158.809921 59.939642 
L 158.835671 60.029821 
L 158.966997 60.510775 
L 159.185874 61.953638 
L 159.191024 61.863459 
L 159.33265 61.142028 
L 159.456251 60.781312 
L 159.386725 61.322386 
L 159.463976 60.901551 
L 159.556677 60.811372 
L 159.662253 60.330417 
L 159.693153 60.450656 
L 159.788429 61.262266 
L 159.829629 61.111968 
L 160.043356 59.909583 
L 160.112881 60.600954 
L 160.166957 60.360477 
L 160.174682 60.450656 
L 160.233907 59.909583 
L 160.329183 59.27833 
L 160.357508 59.398569 
L 160.388408 59.458688 
L 160.566085 61.111968 
L 160.56866 61.081909 
L 160.581535 61.021789 
L 160.617585 61.322386 
L 160.674236 61.111968 
L 160.802987 61.532803 
L 160.813287 61.442624 
L 160.844187 61.532803 
L 160.880238 61.8334 
L 160.944613 61.382505 
L 160.947188 61.412565 
L 161.057914 60.480716 
L 161.081089 60.510775 
L 161.083664 60.570895 
L 161.13259 59.879523 
L 161.176365 60.15006 
L 161.266491 59.338449 
L 161.315416 59.759284 
L 161.459617 60.93161 
L 161.593518 59.819404 
L 161.485367 61.262266 
L 161.611544 59.939642 
L 161.626994 60.029821 
L 161.786645 60.781312 
L 161.79437 60.691133 
L 161.866471 60.180119 
L 161.905096 60.600954 
L 162.044147 61.322386 
L 162.080197 61.081909 
L 162.121398 61.472684 
L 162.157448 61.292326 
L 162.162598 61.292326 
L 162.288774 59.939642 
L 162.293924 59.999761 
L 162.335124 60.029821 
L 162.438125 60.661074 
L 162.458725 60.540835 
L 162.479326 60.510775 
L 162.517951 60.93161 
L 162.535976 60.901551 
L 162.657002 61.562863 
L 162.543701 60.871491 
L 162.677602 61.292326 
L 162.837254 59.548867 
L 162.893904 59.639046 
L 162.937679 59.999761 
L 163.012355 59.759284 
L 163.05098 59.368509 
L 163.125656 59.639046 
L 163.177156 59.398569 
L 163.254407 59.849463 
L 163.259557 59.789344 
L 163.326508 60.721193 
L 163.411483 61.442624 
L 163.462984 61.322386 
L 163.481009 61.232207 
L 163.62521 60.811372 
L 163.818337 61.953638 
L 163.668985 60.631014 
L 163.828637 61.893519 
L 163.844087 61.80334 
L 164.037213 60.059881 
L 164.096439 60.15006 
L 164.142789 60.240239 
L 164.155664 60.300358 
L 164.20459 59.699165 
L 164.317891 59.218211 
L 164.328191 59.24827 
L 164.335916 59.188151 
L 164.413167 59.639046 
L 164.420892 59.608986 
L 164.577968 60.540835 
L 164.595993 60.360477 
L 164.812295 59.067913 
L 164.81487 59.097972 
L 164.827745 59.218211 
L 164.910146 58.767316 
L 164.912721 58.797376 
L 164.915296 58.767316 
L 164.982246 59.27833 
L 165.033747 59.849463 
L 165.085247 59.218211 
L 165.105847 59.007793 
L 165.180523 59.398569 
L 165.255198 59.849463 
L 165.298974 59.608986 
L 165.316999 59.699165 
L 165.347899 59.969702 
L 165.422575 59.578926 
L 165.42515 59.669105 
L 165.489525 59.759284 
L 165.50755 59.879523 
L 165.551326 59.518807 
L 165.584801 59.608986 
L 165.723852 59.188151 
L 165.644027 59.699165 
L 165.729002 59.218211 
L 165.893804 60.059881 
L 165.906679 59.999761 
L 165.973629 59.608986 
L 165.924704 60.059881 
L 166.038005 59.729225 
L 166.04058 59.759284 
L 166.08693 59.097972 
L 166.089505 59.097972 
L 166.233706 58.316421 
L 166.259457 58.286362 
L 166.323832 58.556899 
L 166.326407 58.496779 
L 166.336707 58.586958 
L 166.380483 58.346481 
L 166.439708 58.526839 
L 166.480908 58.46672 
L 166.516959 58.196183 
L 166.571034 58.617018 
L 166.581334 58.617018 
L 166.710085 59.128032 
L 166.71266 59.097972 
L 166.823386 58.677137 
L 166.769311 59.128032 
L 166.838836 58.887555 
L 167.070588 60.450656 
L 166.892912 58.767316 
L 167.075738 60.360477 
L 167.289465 58.947674 
L 167.098914 60.540835 
L 167.30234 58.977734 
L 167.420791 59.548867 
L 167.433666 59.458688 
L 167.487742 59.398569 
L 167.590743 58.797376 
L 167.611343 59.067913 
L 167.740094 59.488748 
L 167.817344 59.849463 
L 167.85597 59.608986 
L 167.863695 59.488748 
L 167.948671 59.759284 
L 167.958971 59.759284 
L 167.992446 59.669105 
L 168.288573 57.504811 
L 168.306598 57.56493 
L 168.494575 60.300358 
L 168.515175 60.240239 
L 168.677402 59.037853 
L 168.703152 59.27833 
L 168.736627 59.007793 
L 168.788127 59.097972 
L 168.875678 58.707197 
L 168.898853 59.067913 
L 169.027604 59.969702 
L 169.032754 59.909583 
L 169.043055 59.849463 
L 169.166656 59.188151 
L 169.176956 59.27833 
L 169.300557 59.939642 
L 169.303132 59.909583 
L 169.594109 57.174155 
L 169.318582 59.969702 
L 169.625009 57.444692 
L 169.926287 59.669105 
L 169.949462 59.578926 
L 169.990662 59.729225 
L 170.091088 59.188151 
L 170.121988 59.458688 
L 170.191514 58.947674 
L 170.201814 58.857495 
L 170.227564 59.188151 
L 170.32284 58.737256 
L 170.387216 58.647078 
L 170.389791 58.586958 
L 170.449016 59.218211 
L 170.474766 59.097972 
L 170.541717 59.548867 
L 170.585492 59.128032 
L 170.629268 58.887555 
L 170.691068 59.218211 
L 170.693643 59.188151 
L 170.724543 59.578926 
L 170.809519 59.30839 
L 171.067021 57.234274 
L 170.845569 59.578926 
L 171.082471 57.414632 
L 171.087621 57.444692 
L 171.254998 59.428628 
L 171.262723 59.518807 
L 171.329673 59.639046 
L 171.363149 59.27833 
L 171.5022 57.955706 
L 171.50735 58.045885 
L 171.625801 58.316421 
L 171.564 57.715229 
L 171.633526 58.256302 
L 171.659276 57.985765 
L 171.718501 58.376541 
L 171.741677 58.286362 
L 171.867853 58.827435 
L 171.878153 58.917614 
L 171.896178 59.218211 
L 171.970854 58.4066 
L 172.006904 57.925646 
L 172.084154 58.346481 
L 172.08673 58.376541 
L 172.135655 58.106004 
L 172.176855 58.166123 
L 172.326206 57.234274 
L 172.333932 57.144095 
L 172.390582 56.212247 
L 172.462683 56.933678 
L 172.614609 58.707197 
L 172.699585 58.4066 
L 172.730485 58.496779 
L 172.802585 59.007793 
L 172.851511 58.887555 
L 172.872111 58.797376 
L 172.923611 58.526839 
L 172.990562 58.586958 
L 173.011162 58.556899 
L 173.036912 58.316421 
L 173.114163 58.707197 
L 173.212014 59.24827 
L 173.240339 59.158091 
L 173.392265 57.835467 
L 173.402565 57.925646 
L 173.559642 58.586958 
L 173.564792 58.556899 
L 173.580242 58.526839 
L 173.621442 58.797376 
L 173.654917 58.767316 
L 173.680668 58.857495 
L 173.729593 58.346481 
L 173.781093 58.196183 
L 173.824869 58.526839 
L 173.853194 58.827435 
L 173.92787 58.376541 
L 173.992245 57.925646 
L 174.046321 58.196183 
L 174.059196 58.346481 
L 174.100396 57.925646 
L 174.128721 57.925646 
L 174.151896 57.715229 
L 174.226572 58.166123 
L 174.342448 58.617018 
L 174.265197 58.075944 
L 174.368198 58.526839 
L 174.393948 58.43666 
L 174.507249 58.196183 
L 174.458324 58.617018 
L 174.512399 58.226243 
L 174.556175 58.136064 
L 174.679776 57.835467 
L 174.684926 57.925646 
L 174.751876 58.015825 
L 174.780202 57.745288 
L 174.924403 57.294394 
L 174.926978 57.324453 
L 174.952728 57.384573 
L 175.024829 57.174155 
L 175.032554 57.144095 
L 175.089204 56.78338 
L 175.13298 57.294394 
L 175.13813 57.294394 
L 175.15358 57.354513 
L 175.310656 58.43666 
L 175.405932 58.106004 
L 175.357006 58.46672 
L 175.423957 58.286362 
L 175.511508 58.346481 
L 175.452282 58.106004 
L 175.532108 58.256302 
L 175.563008 58.166123 
L 175.581033 58.286362 
L 175.74841 57.264334 
L 175.766435 57.324453 
L 175.81536 56.78338 
L 175.84626 56.542903 
L 175.908061 57.114036 
L 175.956986 57.59499 
L 176.023937 57.414632 
L 176.106338 57.504811 
L 176.255689 58.136064 
L 176.260839 58.015825 
L 176.268564 57.925646 
L 176.286589 57.655109 
L 176.325214 58.46672 
L 176.327789 58.46672 
L 176.340664 58.617018 
L 176.39474 58.015825 
L 176.417915 58.015825 
L 176.495166 57.62505 
L 176.42564 58.045885 
L 176.533791 57.955706 
L 176.546666 58.045885 
L 176.562116 58.075944 
L 176.611042 57.56493 
L 176.621342 57.62505 
L 176.631642 57.715229 
L 176.654817 57.805408 
L 176.698592 57.204215 
L 176.701167 57.234274 
L 176.739793 57.384573 
L 176.829918 56.75332 
L 176.925194 57.204215 
L 176.96897 57.083976 
L 177.04107 57.023857 
L 177.01532 57.234274 
L 177.06682 57.144095 
L 177.190421 58.166123 
L 177.092571 57.114036 
L 177.198146 58.136064 
L 177.280547 58.045885 
L 177.442773 56.452724 
L 177.455649 56.512843 
L 177.473674 56.422664 
L 177.496849 56.332485 
L 177.532899 56.813439 
L 177.543199 56.813439 
L 177.664225 57.174155 
L 177.774951 58.346481 
L 177.816152 58.166123 
L 177.877952 57.835467 
L 177.914002 58.346481 
L 177.919152 58.316421 
L 177.950053 58.226243 
L 178.073654 56.693201 
L 178.112279 56.993797 
L 178.150904 56.75332 
L 178.233305 57.174155 
L 178.305406 57.023857 
L 178.336306 57.324453 
L 178.452182 58.015825 
L 178.341456 57.294394 
L 178.488232 57.835467 
L 178.570633 57.174155 
L 178.614408 57.474751 
L 178.642733 57.56493 
L 178.771484 57.775348 
L 178.967186 56.452724 
L 178.987786 56.542903 
L 179.180913 57.655109 
L 179.186063 57.56493 
L 179.255588 57.474751 
L 179.392064 56.603022 
L 179.265888 57.534871 
L 179.412665 56.903618 
L 179.600641 58.617018 
L 179.641842 58.286362 
L 179.793768 56.75332 
L 179.852993 57.083976 
L 179.955994 57.985765 
L 180.01522 57.715229 
L 180.11307 57.023857 
L 180.02037 57.745288 
L 180.159421 57.294394 
L 180.161996 57.354513 
L 180.244396 56.813439 
L 180.249547 56.843499 
L 180.352547 55.88159 
L 180.393748 56.061948 
L 180.422073 56.152127 
L 180.566274 57.955706 
L 180.658975 57.655109 
L 180.823776 55.520875 
L 180.828926 55.580994 
L 180.862402 55.490815 
L 180.877852 55.460755 
L 180.919052 55.94171 
L 180.944802 55.821471 
L 181.060678 56.933678 
L 181.099304 56.843499 
L 181.155954 57.053917 
L 181.210029 56.843499 
L 181.217754 56.78338 
L 181.258955 57.144095 
L 181.305305 57.023857 
L 181.31818 57.114036 
L 181.421181 57.59499 
L 181.351656 57.053917 
L 181.457231 57.444692 
L 181.490707 57.414632 
L 181.596283 56.482783 
L 181.624608 56.603022 
L 181.634908 56.572962 
L 181.694133 56.813439 
L 181.725034 56.72326 
L 181.88211 57.264334 
L 181.91301 57.174155 
L 182.028886 55.761352 
L 182.075237 55.94171 
L 182.085537 56.001829 
L 182.252913 57.56493 
L 182.260638 57.534871 
L 182.304413 57.444692 
L 182.505265 56.242306 
L 182.335314 57.504811 
L 182.510415 56.332485 
L 182.520715 56.392604 
L 182.639166 57.053917 
L 182.654616 56.933678 
L 182.680366 57.234274 
L 182.778217 57.083976 
L 182.783367 56.993797 
L 182.842593 57.474751 
L 182.873493 57.414632 
L 182.914693 57.534871 
L 182.961044 56.933678 
L 182.963619 56.933678 
L 183.10782 56.422664 
L 183.11297 56.482783 
L 183.13872 56.572962 
L 183.241721 56.963738 
L 183.259746 56.813439 
L 183.398797 56.392604 
L 183.270046 56.843499 
L 183.401372 56.422664 
L 183.491498 57.114036 
L 183.548149 56.843499 
L 183.555874 56.78338 
L 183.71295 55.701233 
L 183.77475 54.919682 
L 183.844276 55.460755 
L 183.854576 55.550934 
L 183.978177 56.75332 
L 184.014227 56.693201 
L 184.027103 56.663141 
L 184.078603 57.204215 
L 184.083753 57.144095 
L 184.094053 57.354513 
L 184.191904 57.144095 
L 184.33353 54.739324 
L 184.439106 55.550934 
L 184.513782 56.362545 
L 184.585882 55.971769 
L 184.663133 55.250338 
L 184.709483 55.671173 
L 184.838234 56.092008 
L 184.845959 56.031889 
L 184.871709 55.91165 
L 184.930935 56.843499 
L 184.992735 57.114036 
L 184.941235 56.813439 
L 185.041661 56.903618 
L 185.057111 56.813439 
L 185.088011 56.933678 
L 185.183287 56.452724 
L 185.209037 56.603022 
L 185.260538 56.061948 
L 185.263113 56.122068 
L 185.350663 55.91165 
L 185.306888 56.242306 
L 185.376414 56.001829 
L 185.484565 56.963738 
L 185.51289 56.633082 
L 185.53864 56.72326 
L 185.54894 56.75332 
L 185.613316 56.302425 
L 185.651941 56.212247 
L 185.695716 56.061948 
L 185.744642 56.242306 
L 185.760092 56.212247 
L 185.860518 56.663141 
L 185.883693 56.572962 
L 186.063944 55.10004 
L 186.10257 55.310457 
L 186.110295 55.400636 
L 186.236471 56.332485 
L 186.244196 56.302425 
L 186.280246 56.001829 
L 186.331746 56.482783 
L 186.352347 56.302425 
L 186.393547 56.572962 
L 186.434747 56.152127 
L 186.455347 56.212247 
L 186.475948 56.182187 
L 186.558348 55.94171 
L 186.586674 56.182187 
L 186.645899 56.332485 
L 186.687099 56.092008 
L 186.7386 55.250338 
L 186.823576 55.460755 
L 186.826151 55.490815 
L 186.893101 54.979801 
L 186.918851 54.829503 
L 186.990952 55.340517 
L 187.166053 56.843499 
L 186.996102 55.310457 
L 187.217554 56.75332 
L 187.289654 56.122068 
L 187.34373 56.362545 
L 187.37978 56.693201 
L 187.449306 56.242306 
L 187.457031 56.272366 
L 187.493081 55.851531 
L 187.554882 56.182187 
L 187.691358 55.03992 
L 187.567757 56.272366 
L 187.709383 55.130099 
L 187.714533 55.190219 
L 187.773758 55.009861 
L 187.817534 55.06998 
L 187.820109 55.03992 
L 187.881909 55.520875 
L 187.889634 55.490815 
L 187.96431 55.641113 
L 187.912809 55.250338 
L 187.99006 55.370577 
L 188.002935 55.340517 
L 188.054436 54.799443 
L 188.113661 55.340517 
L 188.309363 56.332485 
L 188.324813 56.242306 
L 188.487039 55.03992 
L 188.546265 55.130099 
L 188.62094 55.671173 
L 188.667291 55.370577 
L 188.767716 55.06998 
L 188.785742 55.250338 
L 188.873292 55.430696 
L 188.801192 55.160159 
L 188.899043 55.310457 
L 189.004618 54.949742 
L 188.911918 55.340517 
L 189.020069 55.06998 
L 189.056119 54.979801 
L 189.079294 54.829503 
L 189.13852 55.190219 
L 189.14882 55.190219 
L 189.19517 55.130099 
L 189.262121 54.589026 
L 189.316196 54.739324 
L 189.344521 54.829503 
L 189.462972 56.182187 
L 189.550523 55.971769 
L 189.627774 55.821471 
L 189.571123 56.122068 
L 189.671549 55.851531 
L 189.692149 55.94171 
L 189.761675 55.641113 
L 189.76425 55.641113 
L 189.79 55.550934 
L 189.921326 55.250338 
L 189.944501 55.340517 
L 189.993427 54.949742 
L 190.029477 55.220278 
L 190.047502 55.310457 
L 190.083552 55.821471 
L 190.168528 55.430696 
L 190.178828 55.370577 
L 190.310154 53.957773 
L 190.338479 54.108072 
L 190.46208 54.769384 
L 190.356505 54.047952 
L 190.464655 54.739324 
L 190.508431 54.558966 
L 190.570231 54.859563 
L 190.572806 54.799443 
L 190.639757 55.220278 
L 190.580531 54.769384 
L 190.696407 54.949742 
L 190.747908 54.799443 
L 190.717007 55.009861 
L 190.801983 55.009861 
L 190.856059 55.550934 
L 190.863784 55.430696 
L 191.002835 87.684692 
L 191.229437 97.273718 
L 192.012243 105.149344 
L 192.014818 105.119284 
L 192.089494 105.44994 
L 192.097219 105.44994 
L 192.23627 106.111252 
L 192.24142 106.051133 
L 192.323821 106.381789 
L 192.326396 106.35173 
L 192.480897 106.862744 
L 192.537547 106.952922 
L 192.674024 107.313638 
L 192.676599 107.283579 
L 192.697199 107.373757 
L 192.838825 107.734473 
L 192.936676 107.824652 
L 192.941826 107.794592 
L 193.062852 108.03507 
L 193.065427 108.00501 
L 193.140102 108.155308 
L 193.163278 108.155308 
L 193.284304 108.365726 
L 193.168428 108.125249 
L 193.289454 108.335666 
L 193.377004 108.395785 
L 193.382154 108.365726 
L 193.490305 108.546083 
L 193.549531 108.636262 
L 193.583006 108.696382 
L 193.585581 108.606203 
L 193.660257 108.666322 
L 193.711757 108.606203 
L 193.758107 108.726441 
L 193.768408 108.726441 
L 193.845658 108.786561 
L 193.958959 108.936859 
L 193.987284 108.84668 
L 194.054235 109.057097 
L 194.06711 108.996978 
L 194.11861 109.117217 
L 194.08256 108.966918 
L 194.177836 108.996978 
L 194.368387 108.966918 
L 194.453363 108.666322 
L 194.484263 108.696382 
L 194.607864 108.936859 
L 194.610439 108.87674 
L 194.744341 108.936859 
L 194.808716 109.087157 
L 194.857641 108.996978 
L 194.919442 108.966918 
L 194.973517 109.087157 
L 195.027593 109.117217 
L 195.084243 109.027038 
L 195.192394 109.057097 
L 195.158919 108.936859 
L 195.194969 109.027038 
L 195.32887 109.087157 
L 195.416421 109.237455 
L 195.442171 109.147276 
L 195.447321 109.057097 
L 195.521997 109.177336 
L 195.552897 109.147276 
L 195.573497 109.207396 
L 195.614698 108.81662 
L 195.635298 108.81662 
L 195.748599 108.87674 
L 195.820699 108.996978 
L 195.84645 108.786561 
L 195.8516 108.81662 
L 195.946875 108.065129 
L 195.980351 108.155308 
L 195.998376 108.245487 
L 196.114252 108.485964 
L 196.003526 108.215427 
L 196.116827 108.425845 
L 196.132277 108.485964 
L 196.248153 108.636262 
L 196.348579 108.576143 
L 196.286778 108.696382 
L 196.358879 108.636262 
L 196.47218 108.756501 
L 196.47733 108.726441 
L 196.510805 108.786561 
L 196.606081 108.936859 
L 196.54943 108.756501 
L 196.624106 108.87674 
L 196.799207 108.936859 
L 196.915083 109.087157 
L 196.920233 108.996978 
L 196.948559 108.966918 
L 196.997484 109.117217 
L 197.023234 109.087157 
L 197.033534 109.117217 
L 197.105635 108.966918 
L 197.131385 109.057097 
L 197.193186 109.117217 
L 197.244686 108.966918 
L 197.262711 109.027038 
L 197.293611 108.756501 
L 197.342537 108.81662 
L 197.370862 108.906799 
L 197.381162 108.87674 
L 197.489313 108.996978 
L 197.491888 108.966918 
L 197.589739 109.117217 
L 197.592314 109.087157 
L 197.76999 108.996978 
L 197.77514 109.057097 
L 197.891016 108.87674 
L 197.896166 108.84668 
L 198.009467 108.996978 
L 198.130493 108.756501 
L 198.133068 108.786561 
L 198.212894 108.606203 
L 198.236069 108.696382 
L 198.29787 108.636262 
L 198.395721 108.576143 
L 198.32362 108.726441 
L 198.408596 108.636262 
L 198.516747 108.485964 
L 198.418896 108.696382 
L 198.524472 108.576143 
L 198.815449 108.636262 
L 198.926175 108.756501 
L 198.825749 108.606203 
L 198.92875 108.726441 
L 199.145052 107.403817 
L 199.147627 107.524056 
L 199.245477 107.013042 
L 199.276378 106.922863 
L 199.454054 106.111252 
L 199.477229 106.141312 
L 199.52873 105.900835 
L 199.546755 105.930895 
L 199.551905 105.960954 
L 199.667781 105.630298 
L 199.672931 105.660358 
L 199.750182 105.359761 
L 199.752757 105.359761 
L 199.873783 105.179404 
L 199.876358 105.239523 
L 199.961333 104.908867 
L 199.971633 104.938926 
L 200.087509 104.698449 
L 200.097809 104.728509 
L 200.167335 104.457972 
L 200.18021 104.518091 
L 200.187935 104.488032 
L 200.244586 105.059165 
L 200.435137 105.991014 
L 200.437712 105.960954 
L 200.520113 106.29161 
L 200.522688 106.261551 
L 200.553588 106.35173 
L 200.672039 106.682386 
L 200.674614 106.652326 
L 200.75444 106.892803 
L 200.76474 106.862744 
L 200.888341 107.16334 
L 201.017092 107.373757 
L 201.094343 107.463936 
L 201.099493 107.433877 
L 201.212794 107.554115 
L 201.251419 107.463936 
L 201.295194 107.644294 
L 201.320945 107.554115 
L 201.42137 107.704414 
L 201.362145 107.524056 
L 201.43682 107.674354 
L 201.537246 107.734473 
L 201.624797 107.944891 
L 201.655697 107.914831 
L 201.766423 108.00501 
L 201.702048 107.824652 
L 201.771573 107.97495 
L 201.962125 108.065129 
L 202.003325 108.095189 
L 202.034225 107.97495 
L 202.070276 108.03507 
L 202.103751 107.884771 
L 202.188727 107.944891 
L 202.387003 107.854712 
L 202.417904 107.734473 
L 202.397303 107.914831 
L 202.495154 107.884771 
L 203.035909 107.854712 
L 203.146635 107.704414 
L 203.14921 107.764533 
L 203.24706 107.674354 
L 203.156935 107.794592 
L 203.265085 107.704414 
L 203.388687 107.854712 
L 203.514863 107.764533 
L 203.615288 107.734473 
L 203.532888 107.824652 
L 203.625588 107.764533 
L 203.682239 107.674354 
L 203.723439 107.584175 
L 203.77494 107.734473 
L 203.782665 107.734473 
L 203.877941 107.824652 
L 203.818715 107.674354 
L 203.893391 107.794592 
L 203.926866 107.704414 
L 203.913991 107.824652 
L 204.004117 107.794592 
L 204.220418 107.854712 
L 204.336294 108.00501 
L 204.354319 107.914831 
L 204.42127 108.065129 
L 204.444445 108.03507 
L 204.529421 108.125249 
L 204.547446 108.00501 
L 204.555171 108.065129 
L 204.843573 108.155308 
L 204.943999 108.185368 
L 204.866749 108.095189 
L 204.951724 108.125249 
L 205.04185 108.185368 
L 205.111376 108.305606 
L 205.147426 108.155308 
L 205.152576 108.185368 
L 205.157726 108.125249 
L 205.170601 108.245487 
L 205.265877 108.155308 
L 205.384328 108.245487 
L 205.422953 108.275547 
L 205.515654 108.00501 
L 205.525954 107.914831 
L 205.731956 106.772565 
L 205.739681 106.832684 
L 205.814356 106.532087 
L 205.819506 106.562147 
L 205.932807 106.141312 
L 205.945682 106.201431 
L 206.071859 105.900835 
L 206.079584 105.930895 
L 206.082159 105.991014 
L 206.107909 105.810656 
L 206.19031 105.960954 
L 206.270135 106.021074 
L 206.398886 106.441909 
L 206.525062 106.742505 
L 206.532787 106.712445 
L 206.555963 106.802624 
L 206.566263 106.772565 
L 206.682139 106.982982 
L 206.736214 107.043101 
L 206.84179 107.253519 
L 206.85209 107.1934 
L 206.895865 107.283579 
L 206.996291 107.463936 
L 207.011741 107.403817 
L 207.022041 107.373757 
L 207.132767 107.554115 
L 207.140492 107.493996 
L 207.155942 107.614235 
L 207.246068 107.524056 
L 207.310444 107.644294 
L 207.359369 107.584175 
L 207.48297 107.764533 
L 207.526745 107.704414 
L 207.570521 107.824652 
L 207.593696 107.764533 
L 207.603996 107.734473 
L 207.709572 107.914831 
L 207.789398 107.794592 
L 207.822873 107.884771 
L 208.227151 107.824652 
L 208.332727 107.704414 
L 208.340452 107.764533 
L 208.453753 107.644294 
L 208.458903 107.674354 
L 208.546454 107.794592 
L 208.474353 107.644294 
L 208.574779 107.734473 
L 208.628855 107.704414 
L 208.639155 107.794592 
L 208.68293 107.764533 
L 209.24686 107.824652 
L 209.33956 107.884771 
L 209.290635 107.794592 
L 209.357586 107.854712 
L 209.362736 107.794592 
L 209.391061 107.914831 
L 209.465736 107.884771 
L 209.558437 107.97495 
L 209.478612 107.854712 
L 209.573887 107.854712 
L 209.625388 107.824652 
L 209.676888 107.944891 
L 209.682038 107.884771 
L 209.805639 107.854712 
L 209.895765 107.764533 
L 209.859715 107.884771 
L 209.916365 107.824652 
L 209.94984 107.884771 
L 210.016791 107.734473 
L 210.027091 107.824652 
L 210.032241 107.764533 
L 210.127517 107.884771 
L 210.137817 107.824652 
L 210.153267 107.764533 
L 210.251118 107.854712 
L 210.307768 107.764533 
L 210.354119 107.914831 
L 210.361844 107.854712 
L 210.869123 107.794592 
L 210.977274 107.704414 
L 210.902598 107.824652 
L 210.982424 107.734473 
L 210.995299 107.764533 
L 211.08285 107.644294 
L 211.090575 107.704414 
L 212.184959 107.614235 
L 212.280235 107.554115 
L 212.223584 107.644294 
L 212.29826 107.584175 
L 212.468211 107.524056 
L 212.493961 107.554115 
L 212.578937 107.463936 
L 212.633012 107.614235 
L 212.697388 107.554115 
L 212.733438 107.584175 
L 212.810689 107.493996 
L 212.885364 107.614235 
L 212.926565 107.554115 
L 212.92914 107.524056 
L 213.003815 107.644294 
L 213.032141 107.584175 
L 213.093941 107.644294 
L 213.135142 107.524056 
L 213.142867 107.584175 
L 213.235567 107.524056 
L 213.240717 107.554115 
L 213.351443 107.403817 
L 213.459594 107.524056 
L 213.464744 107.493996 
L 213.647571 107.554115 
L 213.727396 107.644294 
L 213.652721 107.524056 
L 213.758297 107.614235 
L 213.781472 107.524056 
L 213.869023 107.584175 
L 213.982323 107.493996 
L 213.881898 107.614235 
L 213.984899 107.524056 
L 214.038974 107.433877 
L 214.116225 107.373757 
L 214.054424 107.493996 
L 214.147125 107.463936 
L 214.229526 107.373757 
L 214.317076 107.313638 
L 214.234676 107.403817 
L 214.342826 107.343698 
L 214.386602 107.253519 
L 214.456127 107.403817 
L 214.476728 107.283579 
L 214.461277 107.433877 
L 214.566853 107.403817 
L 214.685304 107.463936 
L 214.77028 107.524056 
L 214.708479 107.433877 
L 214.79603 107.463936 
L 214.891306 107.373757 
L 214.81148 107.493996 
L 214.911906 107.403817 
L 215.007182 107.433877 
L 214.965982 107.343698 
L 215.022632 107.403817 
L 215.105033 107.283579 
L 215.135933 107.343698 
L 215.218334 107.283579 
L 215.267259 107.16334 
L 215.331635 107.223459 
L 215.398585 107.313638 
L 215.478411 107.373757 
L 215.41661 107.253519 
L 215.509311 107.313638 
L 216.050065 107.223459 
L 216.05264 107.1934 
L 216.078391 107.343698 
L 216.153066 107.253519 
L 216.155641 107.313638 
L 216.204567 107.1934 
L 216.263792 107.283579 
L 216.359068 107.1934 
L 216.361643 107.16334 
L 216.428594 107.283579 
L 216.464644 107.223459 
L 216.518719 107.313638 
L 216.55992 107.16334 
L 216.57537 107.253519 
L 216.693821 107.13328 
L 216.727296 107.223459 
L 216.783946 107.043101 
L 216.799397 107.073161 
L 216.845747 107.13328 
L 216.876647 107.1934 
L 216.917848 107.103221 
L 216.956473 107.13328 
L 217.072349 107.1934 
L 217.085224 107.16334 
L 217.18565 107.313638 
L 217.229425 107.253519 
L 217.19595 107.343698 
L 217.296376 107.313638 
L 217.350451 107.253519 
L 217.448302 107.16334 
L 217.368476 107.313638 
L 217.461177 107.223459 
L 217.615678 107.13328 
L 217.687779 107.073161 
L 217.718679 107.223459 
L 217.723829 107.16334 
L 217.958156 107.253519 
L 218.004507 107.1934 
L 218.074032 107.313638 
L 218.107507 107.373757 
L 218.187333 107.223459 
L 218.259434 107.343698 
L 218.298059 107.253519 
L 218.573586 107.1934 
L 218.637962 107.103221 
L 218.684312 107.16334 
L 218.704912 107.253519 
L 218.748688 107.103221 
L 218.789888 107.16334 
L 218.882589 107.103221 
L 218.838813 107.1934 
L 218.900614 107.13328 
L 219.003615 107.253519 
L 219.019065 107.223459 
L 219.08344 107.1934 
L 219.119491 107.313638 
L 219.127216 107.223459 
L 219.227642 107.313638 
L 219.243092 107.283579 
L 219.335792 107.223459 
L 219.263692 107.343698 
L 219.356393 107.253519 
L 219.531494 107.16334 
L 219.634495 107.103221 
L 219.613895 107.223459 
L 219.644795 107.13328 
L 219.69887 107.253519 
L 219.760671 107.1934 
L 220.082549 107.283579 
L 220.087699 107.313638 
L 220.139199 107.1934 
L 220.185549 107.1934 
L 220.342626 107.103221 
L 220.365801 107.13328 
L 220.455927 107.043101 
L 220.553777 107.1934 
L 220.468802 107.013042 
L 220.569228 107.13328 
L 220.674803 107.073161 
L 220.605278 107.16334 
L 220.679953 107.13328 
L 220.940031 107.103221 
L 221.081657 105.960954 
L 221.207833 106.171372 
L 221.210408 106.141312 
L 221.292808 106.32167 
L 221.305684 106.32167 
L 221.43701 106.562147 
L 221.47306 106.441909 
L 221.547736 106.562147 
L 221.622411 106.622266 
L 221.717687 106.772565 
L 221.735712 106.712445 
L 221.828413 106.622266 
L 221.892788 106.592207 
L 221.921114 106.712445 
L 221.933989 106.652326 
L 222.013814 106.772565 
L 222.049865 106.742505 
L 222.14514 106.682386 
L 222.05759 106.802624 
L 222.158016 106.772565 
L 222.199216 106.682386 
L 222.204366 106.652326 
L 222.255866 106.802624 
L 222.304792 106.712445 
L 222.312517 106.682386 
L 222.436118 106.952922 
L 222.536544 106.892803 
L 222.454143 106.982982 
L 222.546844 106.922863 
L 224.135632 107.013042 
L 224.187132 106.952922 
L 224.243783 107.043101 
L 224.308158 106.922863 
L 224.357084 106.982982 
L 224.48841 106.892803 
L 224.527035 106.982982 
L 224.601711 106.862744 
L 224.660936 106.802624 
L 224.709862 106.892803 
L 224.758787 106.802624 
L 224.720162 106.922863 
L 224.820587 106.862744 
L 225.090965 106.952922 
L 225.101265 106.892803 
L 225.206841 107.013042 
L 225.665194 107.103221 
L 225.77077 107.1934 
L 225.67807 107.073161 
L 225.78107 107.16334 
L 225.858321 107.073161 
L 225.793945 107.1934 
L 225.891796 107.13328 
L 225.951022 107.16334 
L 225.981922 107.043101 
L 225.994797 107.073161 
L 226.102948 107.013042 
L 226.020547 107.13328 
L 226.108098 107.043101 
L 226.584477 106.982982 
L 226.587052 106.922863 
L 226.674603 107.103221 
L 226.692628 107.043101 
L 226.726103 106.982982 
L 226.700353 107.073161 
L 226.800779 107.073161 
L 226.805929 107.103221 
L 226.893479 106.982982 
L 226.90378 107.013042 
L 227.00163 106.832684 
L 227.019656 106.892803 
L 227.032531 106.952922 
L 227.096906 106.772565 
L 227.127806 106.832684 
L 227.135531 106.862744 
L 227.235957 106.772565 
L 227.346683 106.862744 
L 227.385309 106.802624 
L 227.416209 106.952922 
L 227.452259 106.862744 
L 227.51406 106.952922 
L 227.480584 106.832684 
L 227.56041 106.832684 
L 227.838512 106.772565 
L 227.866837 106.862744 
L 227.949238 106.682386 
L 228.036789 106.802624 
L 227.962113 106.652326 
L 228.059964 106.742505 
L 228.16039 106.712445 
L 228.070264 106.772565 
L 228.17069 106.742505 
L 228.18614 106.712445 
L 228.283991 106.862744 
L 228.340641 106.772565 
L 228.389567 106.922863 
L 228.394717 106.862744 
L 228.79127 106.772565 
L 228.79642 106.712445 
L 228.876246 106.862744 
L 228.899421 106.772565 
L 228.920021 106.862744 
L 228.958646 106.712445 
L 229.010147 106.802624 
L 229.015297 106.742505 
L 229.077097 106.862744 
L 229.118298 106.802624 
L 229.141473 106.862744 
L 229.177523 106.712445 
L 229.226449 106.772565 
L 229.4479 106.682386 
L 229.476226 106.742505 
L 229.568926 106.562147 
L 229.592102 106.592207 
L 229.594677 106.682386 
L 229.674502 106.441909 
L 229.697678 106.502028 
L 229.810978 106.411849 
L 229.813553 106.441909 
L 229.98608 106.532087 
L 230.094231 106.622266 
L 230.014405 106.471968 
L 230.099381 106.562147 
L 230.786911 106.622266 
L 230.864162 106.712445 
L 230.792061 106.592207 
L 230.897637 106.652326 
L 230.985188 106.742505 
L 231.095914 106.862744 
L 231.021238 106.682386 
L 231.103639 106.832684 
L 231.188615 106.712445 
L 231.21694 106.802624 
L 231.219515 106.862744 
L 231.291616 106.742505 
L 231.327666 106.802624 
L 231.350841 106.712445 
L 231.376591 106.832684 
L 231.438392 106.802624 
L 231.502767 106.832684 
L 231.479592 106.742505 
L 231.546543 106.802624 
L 231.644393 106.652326 
L 231.662419 106.742505 
L 231.739669 106.682386 
L 231.77572 106.802624 
L 231.865845 106.742505 
L 231.87357 106.862744 
L 231.886445 106.772565 
L 232.002321 106.892803 
L 232.028072 106.802624 
L 232.107897 106.952922 
L 232.110472 106.922863 
L 232.285574 106.832684 
L 232.324199 106.802624 
L 232.388575 106.922863 
L 232.39115 106.892803 
L 232.810878 106.982982 
L 232.841778 107.013042 
L 232.872679 106.892803 
L 232.916454 106.982982 
L 232.993705 106.802624 
L 233.029755 106.862744 
L 233.096705 106.802624 
L 233.09928 106.742505 
L 233.109581 106.832684 
L 233.207431 106.772565 
L 233.300132 106.832684 
L 233.225456 106.742505 
L 233.318157 106.802624 
L 233.323307 106.742505 
L 233.367083 106.862744 
L 233.423733 106.802624 
L 233.493259 106.922863 
L 233.537034 106.862744 
L 233.544759 106.802624 
L 233.555059 106.892803 
L 233.645185 106.892803 
L 233.920712 106.862744 
L 234.023713 106.772565 
L 234.031438 106.832684 
L 234.098389 106.682386 
L 234.144739 106.742505 
L 234.214265 106.802624 
L 234.219415 106.682386 
L 234.25289 106.712445 
L 234.770469 106.682386 
L 234.773044 106.592207 
L 234.845145 106.742505 
L 234.881195 106.682386 
L 234.958446 106.592207 
L 234.953296 106.712445 
L 234.994496 106.622266 
L 235.074322 106.712445 
L 235.105222 106.652326 
L 235.110372 106.592207 
L 235.210798 106.712445 
L 235.215948 106.652326 
L 235.347274 106.682386 
L 235.403924 106.802624 
L 235.44255 106.652326 
L 235.460575 106.772565 
L 235.561001 106.652326 
L 235.506925 106.802624 
L 235.573876 106.742505 
L 236.06828 106.802624 
L 236.07343 106.862744 
L 236.171281 106.742505 
L 236.179006 106.802624 
L 236.436508 106.712445 
L 236.503458 106.682386 
L 236.449383 106.802624 
L 236.547234 106.712445 
L 236.660535 106.712445 
L 236.758385 106.862744 
L 236.771261 106.802624 
L 236.786711 106.862744 
L 236.894862 106.922863 
L 236.887137 106.802624 
L 236.897437 106.892803 
L 237.003012 106.802624 
L 237.010738 106.862744 
L 237.165239 106.772565 
L 237.275965 106.682386 
L 237.27854 106.712445 
L 237.396991 106.652326 
L 237.399566 106.592207 
L 237.471666 106.742505 
L 237.505142 106.712445 
L 237.582392 106.802624 
L 237.615868 106.742505 
L 237.675093 106.682386 
L 237.623593 106.772565 
L 237.724018 106.772565 
L 238.390949 106.712445 
L 238.501675 106.622266 
L 238.50425 106.682386 
L 238.553175 106.562147 
L 238.609826 106.562147 
L 239.073329 106.471968 
L 239.142855 106.441909 
L 239.09393 106.532087 
L 239.18148 106.502028 
L 239.19693 106.471968 
L 239.299931 106.592207 
L 239.312806 106.532087 
L 239.307656 106.622266 
L 239.408082 106.622266 
L 239.428682 106.682386 
L 239.449283 106.562147 
L 239.518808 106.622266 
L 239.593484 106.532087 
L 239.572884 106.652326 
L 239.632109 106.592207 
L 240.172864 106.532087 
L 240.185739 106.441909 
L 240.278439 106.622266 
L 240.281014 106.562147 
L 240.373715 106.652326 
L 240.389165 106.622266 
L 240.489591 106.772565 
L 240.595167 106.652326 
L 240.602892 106.712445 
L 240.729068 106.532087 
L 240.770268 106.622266 
L 240.832069 106.502028 
L 240.842369 106.562147 
L 240.911895 106.471968 
L 240.953095 106.502028 
L 241.050946 106.592207 
L 240.989145 106.471968 
L 241.068971 106.562147 
L 241.671526 106.502028 
L 241.720451 106.411849 
L 241.764227 106.532087 
L 241.782252 106.471968 
L 242.789085 106.502028 
L 242.79166 106.592207 
L 242.82256 106.441909 
L 242.899811 106.502028 
L 243.286064 106.411849 
L 243.383915 106.29161 
L 243.322114 106.471968 
L 243.40194 106.32167 
L 243.522966 106.441909 
L 243.631117 106.381789 
L 243.636267 106.411849 
L 243.806218 106.441909 
L 243.824243 106.532087 
L 243.886044 106.381789 
L 243.914369 106.441909 
L 244.03282 106.35173 
L 244.071446 106.381789 
L 244.122946 106.261551 
L 244.138396 106.32167 
L 244.238822 106.231491 
L 244.197622 106.35173 
L 244.249122 106.29161 
L 244.300622 106.171372 
L 244.364998 106.231491 
L 244.467999 106.32167 
L 244.370148 106.171372 
L 244.478299 106.261551 
L 244.571 106.35173 
L 244.679151 106.411849 
L 244.59675 106.32167 
L 244.684301 106.381789 
L 244.828502 106.29161 
L 244.910902 106.231491 
L 244.838802 106.35173 
L 244.936653 106.29161 
L 244.952103 106.32167 
L 244.962403 106.201431 
L 245.042228 106.231491 
L 245.145229 106.141312 
L 245.049954 106.261551 
L 245.158104 106.171372 
L 245.19673 106.231491 
L 245.22248 106.081193 
L 245.261105 106.081193 
L 245.84306 106.051133 
L 245.88941 106.081193 
L 245.953786 105.960954 
L 246.031037 106.051133 
L 245.997561 105.930895 
L 246.064512 105.991014 
L 246.283389 106.021074 
L 246.309139 106.111252 
L 246.324589 105.991014 
L 246.394115 106.051133 
L 246.48424 106.111252 
L 246.40184 106.021074 
L 246.507416 106.081193 
L 246.538316 106.051133 
L 246.600116 106.141312 
L 246.615566 106.081193 
L 246.664492 106.141312 
L 246.679942 106.021074 
L 246.721142 106.051133 
L 246.829293 105.991014 
L 246.759768 106.141312 
L 246.831868 106.021074 
L 246.937444 106.081193 
L 246.896244 105.960954 
L 246.945169 106.051133 
L 247.05847 105.900835 
L 247.061045 105.930895 
L 247.169196 106.021074 
L 247.277347 106.111252 
L 247.187221 105.960954 
L 247.285072 106.081193 
L 247.552874 105.991014 
L 247.565749 105.960954 
L 247.560599 106.081193 
L 247.65845 106.021074 
L 247.764026 106.081193 
L 247.681625 105.960954 
L 247.769176 106.021074 
L 247.908227 105.930895 
L 247.931402 105.900835 
L 247.954577 106.021074 
L 248.016378 105.960954 
L 248.127104 106.081193 
L 248.024103 105.870775 
L 248.132254 106.021074 
L 248.382031 106.111252 
L 248.384606 106.141312 
L 248.425806 106.021074 
L 248.490182 106.081193 
L 248.621508 106.021074 
L 248.685883 105.960954 
L 248.693608 106.051133 
L 248.732234 106.021074 
L 248.804334 106.141312 
L 248.750259 105.991014 
L 248.845535 106.081193 
L 249.54594 106.171372 
L 249.556241 106.201431 
L 249.633491 106.051133 
L 249.651516 106.111252 
L 249.744217 105.960954 
L 249.764817 106.021074 
L 249.875543 105.960954 
L 249.975969 105.810656 
L 249.988844 105.870775 
L 250.15107 105.780596 
L 250.218021 105.750537 
L 250.179396 105.870775 
L 250.259221 105.780596 
L 250.333897 105.930895 
L 250.372522 105.840716 
L 250.478098 105.750537 
L 250.380247 105.870775 
L 250.488398 105.780596 
L 250.578524 105.840716 
L 250.581099 105.900835 
L 250.604274 105.780596 
L 250.68925 105.840716 
L 251.191379 105.930895 
L 251.193954 105.960954 
L 251.201679 105.870775 
L 251.29953 105.900835 
L 251.541582 105.991014 
L 251.544157 106.021074 
L 251.557032 105.870775 
L 251.644583 105.900835 
L 252.020536 105.810656 
L 252.023111 105.750537 
L 252.048861 105.870775 
L 252.131262 105.810656 
L 252.164737 105.870775 
L 252.234263 105.750537 
L 252.241988 105.810656 
L 252.254863 105.750537 
L 252.311513 105.870775 
L 252.344988 105.870775 
L 252.450564 105.960954 
L 252.381039 105.840716 
L 252.460864 105.930895 
L 252.772442 105.840716 
L 252.865143 105.810656 
L 252.777592 105.900835 
L 252.883168 105.840716 
L 252.890893 105.930895 
L 252.975869 105.750537 
L 252.991319 105.810656 
L 253.557823 105.720477 
L 253.671124 105.630298 
L 254.065103 105.690417 
L 254.144928 105.810656 
L 254.178403 105.780596 
L 254.307155 105.840716 
L 254.40758 105.930895 
L 254.327755 105.810656 
L 254.420455 105.900835 
L 254.495131 105.960954 
L 254.451356 105.840716 
L 254.531181 105.900835 
L 254.567232 105.840716 
L 254.544056 105.960954 
L 254.641907 105.870775 
L 254.698558 105.930895 
L 254.675383 105.810656 
L 254.721733 105.840716 
" clip-path="url(#p080fc5b3ee)" style="fill: none; stroke: #000000; stroke-opacity: 0.5; stroke-width: 1.5; stroke-linecap: square"/>
   </g>
   <g id="patch_3">
    <path d="M 41.667188 173.52 
L 41.667188 7.2 
" style="fill: none; stroke: #000000; stroke-width: 0.8; stroke-linejoin: miter; stroke-linecap: square"/>
   </g>
   <g id="patch_4">
    <path d="M 41.667188 173.52 
L 264.867187 173.52 
" style="fill: none; stroke: #000000; stroke-width: 0.8; stroke-linejoin: miter; stroke-linecap: square"/>
   </g>
  </g>
 </g>
 <defs>
  <clipPath id="p080fc5b3ee">
   <rect x="41.667188" y="7.2" width="223.2" height="166.32"/>
  </clipPath>
 </defs>
</svg>
