<?xml version="1.0" encoding="utf-8" standalone="no"?>
<!DOCTYPE svg PUBLIC "-//W3C//DTD SVG 1.1//EN"
  "http://www.w3.org/Graphics/SVG/1.1/DTD/svg11.dtd">
<svg xmlns:xlink="http://www.w3.org/1999/xlink" width="272.067187pt" height="197.398125pt" viewBox="0 0 272.067187 197.398125" xmlns="http://www.w3.org/2000/svg" version="1.1">
 <metadata>
  <rdf:RDF xmlns:dc="http://purl.org/dc/elements/1.1/" xmlns:cc="http://creativecommons.org/ns#" xmlns:rdf="http://www.w3.org/1999/02/22-rdf-syntax-ns#">
   <cc:Work>
    <dc:type rdf:resource="http://purl.org/dc/dcmitype/StillImage"/>
    <dc:date>2025-12-19T12:17:22.902618</dc:date>
    <dc:format>image/svg+xml</dc:format>
    <dc:creator>
     <cc:Agent>
      <dc:title>Matplotlib v3.10.7, https://matplotlib.org/</dc:title>
     </cc:Agent>
    </dc:creator>
   </cc:Work>
  </rdf:RDF>
 </metadata>
 <defs>
  <style type="text/css">*{stroke-linejoin: round; stroke-linecap: butt}</style>
 </defs>
 <g id="figure_1">
  <g id="patch_1">
   <path d="M 0 197.398125 
L 272.067187 197.398125 
L 272.067187 0 
L 0 0 
z
" style="fill: #ffffff"/>
  </g>
  <g id="axes_1">
   <g id="patch_2">
    <path d="M 41.667188 173.52 
L 264.867188 173.52 
L 264.867188 7.2 
L 41.667188 7.2 
z
" style="fill: #ffffff"/>
   </g>
   <g id="matplotlib.axis_1">
    <g id="xtick_1">
     <g id="line2d_1">
      <defs>
       <path id="m56202d9494" d="M 0 0 
L 0 3.5 
" style="stroke: #000000; stroke-width: 0.8"/>
      </defs>
      <g>
       <use xlink:href="#m56202d9494" x="82.712896" y="173.52" style="stroke: #000000; stroke-width: 0.8"/>
      </g>
     </g>
     <g id="text_1">
      <!-- 1 -->
      <g transform="translate(79.531646 188.118438) scale(0.1 -0.1)">
       <defs>
        <path id="DejaVuSans-31" d="M 794 531 
L 1825 531 
L 1825 4091 
L 703 3866 
L 703 4441 
L 1819 4666 
L 2450 4666 
L 2450 531 
L 3481 531 
L 3481 0 
L 794 0 
L 794 531 
z
" transform="scale(0.015625)"/>
       </defs>
       <use xlink:href="#DejaVuSans-31"/>
      </g>
     </g>
    </g>
    <g id="xtick_2">
     <g id="line2d_2">
      <g>
       <use xlink:href="#m56202d9494" x="134.213319" y="173.52" style="stroke: #000000; stroke-width: 0.8"/>
      </g>
     </g>
     <g id="text_2">
      <!-- 2 -->
      <g transform="translate(131.032069 188.118438) scale(0.1 -0.1)">
       <defs>
        <path id="DejaVuSans-32" d="M 1228 531 
L 3431 531 
L 3431 0 
L 469 0 
L 469 531 
Q 828 903 1448 1529 
Q 2069 2156 2228 2338 
Q 2531 2678 2651 2914 
Q 2772 3150 2772 3378 
Q 2772 3750 2511 3984 
Q 2250 4219 1831 4219 
Q 1534 4219 1204 4116 
Q 875 4013 500 3803 
L 500 4441 
Q 881 4594 1212 4672 
Q 1544 4750 1819 4750 
Q 2544 4750 2975 4387 
Q 3406 4025 3406 3419 
Q 3406 3131 3298 2873 
Q 3191 2616 2906 2266 
Q 2828 2175 2409 1742 
Q 1991 1309 1228 531 
z
" transform="scale(0.015625)"/>
       </defs>
       <use xlink:href="#DejaVuSans-32"/>
      </g>
     </g>
    </g>
    <g id="xtick_3">
     <g id="line2d_3">
      <g>
       <use xlink:href="#m56202d9494" x="185.713741" y="173.52" style="stroke: #000000; stroke-width: 0.8"/>
      </g>
     </g>
     <g id="text_3">
      <!-- 3 -->
      <g transform="translate(182.532491 188.118438) scale(0.1 -0.1)">
       <defs>
        <path id="DejaVuSans-33" d="M 2597 2516 
Q 3050 2419 3304 2112 
Q 3559 1806 3559 1356 
Q 3559 666 3084 287 
Q 2609 -91 1734 -91 
Q 1441 -91 1130 -33 
Q 819 25 488 141 
L 488 750 
Q 750 597 1062 519 
Q 1375 441 1716 441 
Q 2309 441 2620 675 
Q 2931 909 2931 1356 
Q 2931 1769 2642 2001 
Q 2353 2234 1838 2234 
L 1294 2234 
L 1294 2753 
L 1863 2753 
Q 2328 2753 2575 2939 
Q 2822 3125 2822 3475 
Q 2822 3834 2567 4026 
Q 2313 4219 1838 4219 
Q 1578 4219 1281 4162 
Q 984 4106 628 3988 
L 628 4550 
Q 988 4650 1302 4700 
Q 1616 4750 1894 4750 
Q 2613 4750 3031 4423 
Q 3450 4097 3450 3541 
Q 3450 3153 3228 2886 
Q 3006 2619 2597 2516 
z
" transform="scale(0.015625)"/>
       </defs>
       <use xlink:href="#DejaVuSans-33"/>
      </g>
     </g>
    </g>
    <g id="xtick_4">
     <g id="line2d_4">
      <g>
       <use xlink:href="#m56202d9494" x="237.214164" y="173.52" style="stroke: #000000; stroke-width: 0.8"/>
      </g>
     </g>
     <g id="text_4">
      <!-- 4 -->
      <g transform="translate(234.032914 188.118438) scale(0.1 -0.1)">
       <defs>
        <path id="DejaVuSans-34" d="M 2419 4116 
L 825 1625 
L 2419 1625 
L 2419 4116 
z
M 2253 4666 
L 3047 4666 
L 3047 1625 
L 3713 1625 
L 3713 1100 
L 3047 1100 
L 3047 0 
L 2419 0 
L 2419 1100 
L 313 1100 
L 313 1709 
L 2253 4666 
z
" transform="scale(0.015625)"/>
       </defs>
       <use xlink:href="#DejaVuSans-34"/>
      </g>
     </g>
    </g>
   </g>
   <g id="matplotlib.axis_2">
    <g id="ytick_1">
     <g id="line2d_5">
      <defs>
       <path id="me7273483dc" d="M 0 0 
L -3.5 0 
" style="stroke: #000000; stroke-width: 0.8"/>
      </defs>
      <g>
       <use xlink:href="#me7273483dc" x="41.667188" y="166.029574" style="stroke: #000000; stroke-width: 0.8"/>
      </g>
     </g>
     <g id="text_5">
      <!-- −120 -->
      <g transform="translate(7.2 169.828792) scale(0.1 -0.1)">
       <defs>
        <path id="DejaVuSans-2212" d="M 678 2272 
L 4684 2272 
L 4684 1741 
L 678 1741 
L 678 2272 
z
" transform="scale(0.015625)"/>
        <path id="DejaVuSans-30" d="M 2034 4250 
Q 1547 4250 1301 3770 
Q 1056 3291 1056 2328 
Q 1056 1369 1301 889 
Q 1547 409 2034 409 
Q 2525 409 2770 889 
Q 3016 1369 3016 2328 
Q 3016 3291 2770 3770 
Q 2525 4250 2034 4250 
z
M 2034 4750 
Q 2819 4750 3233 4129 
Q 3647 3509 3647 2328 
Q 3647 1150 3233 529 
Q 2819 -91 2034 -91 
Q 1250 -91 836 529 
Q 422 1150 422 2328 
Q 422 3509 836 4129 
Q 1250 4750 2034 4750 
z
" transform="scale(0.015625)"/>
       </defs>
       <use xlink:href="#DejaVuSans-2212"/>
       <use xlink:href="#DejaVuSans-31" transform="translate(83.789062 0)"/>
       <use xlink:href="#DejaVuSans-32" transform="translate(147.412109 0)"/>
       <use xlink:href="#DejaVuSans-30" transform="translate(211.035156 0)"/>
      </g>
     </g>
    </g>
    <g id="ytick_2">
     <g id="line2d_6">
      <g>
       <use xlink:href="#me7273483dc" x="41.667188" y="144.919555" style="stroke: #000000; stroke-width: 0.8"/>
      </g>
     </g>
     <g id="text_6">
      <!-- −100 -->
      <g transform="translate(7.2 148.718773) scale(0.1 -0.1)">
       <use xlink:href="#DejaVuSans-2212"/>
       <use xlink:href="#DejaVuSans-31" transform="translate(83.789062 0)"/>
       <use xlink:href="#DejaVuSans-30" transform="translate(147.412109 0)"/>
       <use xlink:href="#DejaVuSans-30" transform="translate(211.035156 0)"/>
      </g>
     </g>
    </g>
    <g id="ytick_3">
     <g id="line2d_7">
      <g>
       <use xlink:href="#me7273483dc" x="41.667188" y="123.809535" style="stroke: #000000; stroke-width: 0.8"/>
      </g>
     </g>
     <g id="text_7">
      <!-- −80 -->
      <g transform="translate(13.5625 127.608754) scale(0.1 -0.1)">
       <defs>
        <path id="DejaVuSans-38" d="M 2034 2216 
Q 1584 2216 1326 1975 
Q 1069 1734 1069 1313 
Q 1069 891 1326 650 
Q 1584 409 2034 409 
Q 2484 409 2743 651 
Q 3003 894 3003 1313 
Q 3003 1734 2745 1975 
Q 2488 2216 2034 2216 
z
M 1403 2484 
Q 997 2584 770 2862 
Q 544 3141 544 3541 
Q 544 4100 942 4425 
Q 1341 4750 2034 4750 
Q 2731 4750 3128 4425 
Q 3525 4100 3525 3541 
Q 3525 3141 3298 2862 
Q 3072 2584 2669 2484 
Q 3125 2378 3379 2068 
Q 3634 1759 3634 1313 
Q 3634 634 3220 271 
Q 2806 -91 2034 -91 
Q 1263 -91 848 271 
Q 434 634 434 1313 
Q 434 1759 690 2068 
Q 947 2378 1403 2484 
z
M 1172 3481 
Q 1172 3119 1398 2916 
Q 1625 2713 2034 2713 
Q 2441 2713 2670 2916 
Q 2900 3119 2900 3481 
Q 2900 3844 2670 4047 
Q 2441 4250 2034 4250 
Q 1625 4250 1398 4047 
Q 1172 3844 1172 3481 
z
" transform="scale(0.015625)"/>
       </defs>
       <use xlink:href="#DejaVuSans-2212"/>
       <use xlink:href="#DejaVuSans-38" transform="translate(83.789062 0)"/>
       <use xlink:href="#DejaVuSans-30" transform="translate(147.412109 0)"/>
      </g>
     </g>
    </g>
    <g id="ytick_4">
     <g id="line2d_8">
      <g>
       <use xlink:href="#me7273483dc" x="41.667188" y="102.699516" style="stroke: #000000; stroke-width: 0.8"/>
      </g>
     </g>
     <g id="text_8">
      <!-- −60 -->
      <g transform="translate(13.5625 106.498735) scale(0.1 -0.1)">
       <defs>
        <path id="DejaVuSans-36" d="M 2113 2584 
Q 1688 2584 1439 2293 
Q 1191 2003 1191 1497 
Q 1191 994 1439 701 
Q 1688 409 2113 409 
Q 2538 409 2786 701 
Q 3034 994 3034 1497 
Q 3034 2003 2786 2293 
Q 2538 2584 2113 2584 
z
M 3366 4563 
L 3366 3988 
Q 3128 4100 2886 4159 
Q 2644 4219 2406 4219 
Q 1781 4219 1451 3797 
Q 1122 3375 1075 2522 
Q 1259 2794 1537 2939 
Q 1816 3084 2150 3084 
Q 2853 3084 3261 2657 
Q 3669 2231 3669 1497 
Q 3669 778 3244 343 
Q 2819 -91 2113 -91 
Q 1303 -91 875 529 
Q 447 1150 447 2328 
Q 447 3434 972 4092 
Q 1497 4750 2381 4750 
Q 2619 4750 2861 4703 
Q 3103 4656 3366 4563 
z
" transform="scale(0.015625)"/>
       </defs>
       <use xlink:href="#DejaVuSans-2212"/>
       <use xlink:href="#DejaVuSans-36" transform="translate(83.789062 0)"/>
       <use xlink:href="#DejaVuSans-30" transform="translate(147.412109 0)"/>
      </g>
     </g>
    </g>
    <g id="ytick_5">
     <g id="line2d_9">
      <g>
       <use xlink:href="#me7273483dc" x="41.667188" y="81.589497" style="stroke: #000000; stroke-width: 0.8"/>
      </g>
     </g>
     <g id="text_9">
      <!-- −40 -->
      <g transform="translate(13.5625 85.388716) scale(0.1 -0.1)">
       <use xlink:href="#DejaVuSans-2212"/>
       <use xlink:href="#DejaVuSans-34" transform="translate(83.789062 0)"/>
       <use xlink:href="#DejaVuSans-30" transform="translate(147.412109 0)"/>
      </g>
     </g>
    </g>
    <g id="ytick_6">
     <g id="line2d_10">
      <g>
       <use xlink:href="#me7273483dc" x="41.667188" y="60.479478" style="stroke: #000000; stroke-width: 0.8"/>
      </g>
     </g>
     <g id="text_10">
      <!-- −20 -->
      <g transform="translate(13.5625 64.278697) scale(0.1 -0.1)">
       <use xlink:href="#DejaVuSans-2212"/>
       <use xlink:href="#DejaVuSans-32" transform="translate(83.789062 0)"/>
       <use xlink:href="#DejaVuSans-30" transform="translate(147.412109 0)"/>
      </g>
     </g>
    </g>
    <g id="ytick_7">
     <g id="line2d_11">
      <g>
       <use xlink:href="#me7273483dc" x="41.667188" y="39.369459" style="stroke: #000000; stroke-width: 0.8"/>
      </g>
     </g>
     <g id="text_11">
      <!-- 0 -->
      <g transform="translate(28.304688 43.168678) scale(0.1 -0.1)">
       <use xlink:href="#DejaVuSans-30"/>
      </g>
     </g>
    </g>
    <g id="ytick_8">
     <g id="line2d_12">
      <g>
       <use xlink:href="#me7273483dc" x="41.667188" y="18.25944" style="stroke: #000000; stroke-width: 0.8"/>
      </g>
     </g>
     <g id="text_12">
      <!-- 20 -->
      <g transform="translate(21.942188 22.058659) scale(0.1 -0.1)">
       <use xlink:href="#DejaVuSans-32"/>
       <use xlink:href="#DejaVuSans-30" transform="translate(63.623047 0)"/>
      </g>
     </g>
    </g>
   </g>
   <g id="line2d_13">
    <path d="M 51.812642 106.78778 
L 51.882168 106.884414 
L 51.817792 106.755569 
L 51.928518 106.852203 
L 51.980018 106.916625 
L 52.041819 106.78778 
L 52.422922 106.884414 
L 52.433222 106.819991 
L 52.541373 106.981048 
L 52.641799 106.884414 
L 52.652099 106.916625 
L 52.7242 106.981048 
L 52.76025 106.852203 
L 52.881276 106.981048 
L 52.992002 106.819991 
L 52.994577 106.852203 
L 53.048652 106.916625 
L 53.089853 106.78778 
L 53.102728 106.852203 
L 53.113028 106.884414 
L 53.218604 106.755569 
L 53.329329 106.852203 
L 53.331905 106.819991 
L 53.535331 106.755569 
L 53.630607 106.658935 
L 53.548206 106.78778 
L 53.646057 106.691146 
L 53.728458 106.78778 
L 53.710433 106.658935 
L 53.756783 106.723357 
L 53.759358 106.658935 
L 53.792833 106.78778 
L 53.867509 106.723357 
L 54.150761 106.755569 
L 54.153336 106.852203 
L 54.158486 106.723357 
L 54.261487 106.819991 
L 54.315563 106.691146 
L 54.287237 106.852203 
L 54.377363 106.755569 
L 54.799667 106.658935 
L 54.807392 106.626723 
L 54.861467 106.723357 
L 54.905242 106.723357 
L 55.157595 106.819991 
L 55.21167 106.852203 
L 55.18077 106.755569 
L 55.26317 106.755569 
L 55.533548 106.852203 
L 55.605648 106.916625 
L 55.577323 106.755569 
L 55.644274 106.852203 
L 55.8168 106.78778 
L 55.932676 106.658935 
L 55.935251 106.755569 
L 55.976451 106.626723 
L 56.040827 106.691146 
L 56.094902 106.626723 
L 56.128377 106.78778 
L 56.148978 106.658935 
L 56.154128 106.78778 
L 56.246828 106.626723 
L 56.259704 106.658935 
L 56.44253 106.562301 
L 56.548106 106.530089 
L 56.476005 106.658935 
L 56.550681 106.594512 
L 56.645957 106.658935 
L 56.563556 106.530089 
L 56.661407 106.594512 
L 56.851958 106.626723 
L 57.796991 138.000562 
L 57.802141 138.064985 
L 58.100844 142.800051 
L 58.126594 142.896685 
L 58.651898 148.114921 
L 58.654473 148.08271 
L 58.723999 148.56588 
L 58.9094 149.53222 
L 58.911975 149.500009 
L 58.950601 149.693277 
L 59.017551 149.564431 
L 59.053601 149.596643 
L 59.143727 149.950967 
L 59.172052 149.918756 
L 59.228703 150.01539 
L 59.349729 150.208658 
L 59.233853 149.983179 
L 59.352304 150.176447 
L 59.375479 150.240869 
L 59.49908 150.595194 
L 59.553156 150.691828 
L 59.661306 150.852885 
L 59.563456 150.659617 
L 59.674182 150.820673 
L 59.715382 150.917307 
L 59.797783 151.013941 
L 59.748857 150.852885 
L 59.831258 150.98173 
L 59.905933 151.078364 
L 59.944559 151.142787 
L 59.967734 150.98173 
L 60.014084 151.046153 
L 60.13511 151.013941 
L 60.137685 150.917307 
L 60.220086 151.239421 
L 60.240686 151.207209 
L 60.248411 151.239421 
L 60.359137 151.110575 
L 60.632089 151.013941 
L 60.74024 150.852885 
L 60.75054 150.917307 
L 60.933367 151.013941 
L 60.987442 150.98173 
L 61.044093 151.142787 
L 61.154819 150.885096 
L 61.157394 150.917307 
L 61.193444 150.852885 
L 61.27327 150.98173 
L 61.363395 150.917307 
L 61.296445 151.013941 
L 61.381421 150.98173 
L 61.402021 150.917307 
L 61.494722 151.013941 
L 61.530772 150.917307 
L 61.589997 150.885096 
L 61.538497 151.013941 
L 61.638923 150.949519 
L 61.947925 150.885096 
L 62.040626 150.756251 
L 62.061226 150.788462 
L 62.110152 150.852885 
L 62.135902 150.724039 
L 62.171952 150.788462 
L 62.205427 150.627405 
L 62.282678 150.724039 
L 62.442329 150.627405 
L 62.52988 150.562983 
L 62.480955 150.724039 
L 62.55048 150.659617 
L 62.797682 150.562983 
L 62.923858 150.176447 
L 62.936733 150.208658 
L 63.032009 150.305292 
L 63.050034 150.337503 
L 63.080935 150.144235 
L 63.13501 150.240869 
L 63.15561 150.144235 
L 63.207111 150.305292 
L 63.245736 150.240869 
L 63.441438 150.337503 
L 63.444013 150.369715 
L 63.536713 150.176447 
L 63.541863 150.208658 
L 63.544438 150.176447 
L 63.637139 150.305292 
L 63.647439 150.273081 
L 63.74014 150.369715 
L 63.660314 150.240869 
L 63.75559 150.273081 
L 63.863741 150.208658 
L 63.817391 150.369715 
L 63.868891 150.240869 
L 63.904941 150.305292 
L 63.925541 150.144235 
L 63.974467 150.176447 
L 64.095493 150.079813 
L 64.110943 150.112024 
L 64.211369 149.950967 
L 64.273169 150.047601 
L 64.31437 149.886545 
L 64.425096 149.757699 
L 64.337545 149.918756 
L 64.432821 149.789911 
L 64.499771 149.822122 
L 64.474021 149.693277 
L 64.538397 149.725488 
L 64.649122 149.822122 
L 64.669723 149.950967 
L 64.752123 149.725488 
L 64.759848 149.822122 
L 64.865424 149.757699 
L 64.780449 149.886545 
L 64.870574 149.789911 
L 64.891174 149.854333 
L 64.916925 149.693277 
L 64.978725 149.757699 
L 65.164127 149.725488 
L 65.166702 149.596643 
L 65.274853 149.661065 
L 65.328928 149.822122 
L 65.393304 149.757699 
L 65.594155 149.854333 
L 65.614755 149.886545 
L 65.650806 149.725488 
L 65.697156 149.789911 
L 65.735781 149.854333 
L 65.810457 149.725488 
L 65.851657 149.822122 
L 65.869682 149.693277 
L 65.923758 149.789911 
L 66.037059 149.53222 
L 66.042209 149.596643 
L 66.315161 149.693277 
L 66.317736 149.725488 
L 66.374387 149.53222 
L 66.415587 149.564431 
L 66.492838 149.500009 
L 66.588113 149.403375 
L 66.590688 149.53222 
L 66.606139 149.435586 
L 66.732315 149.210107 
L 66.79669 149.242318 
L 66.814715 149.081261 
L 66.83789 149.145684 
L 66.951191 149.04905 
L 66.987242 148.952416 
L 67.033592 149.113473 
L 67.059342 149.113473 
L 67.123718 149.177895 
L 67.221569 149.306741 
L 67.149468 149.145684 
L 67.237019 149.242318 
L 67.262769 149.274529 
L 67.265344 148.630303 
L 67.44302 137.71066 
L 67.937424 123.312194 
L 67.945149 123.21556 
L 69.008633 111.297367 
L 69.011208 111.329578 
L 69.080734 110.846408 
L 69.083309 110.87862 
L 69.235235 109.847857 
L 69.255835 109.783434 
L 69.394886 108.913728 
L 69.397461 108.945939 
L 69.400036 108.978151 
L 69.474712 108.559403 
L 69.477287 108.559403 
L 69.500462 108.462769 
L 69.675564 107.657486 
L 69.678139 107.689697 
L 69.750239 107.335373 
L 69.755389 107.335373 
L 69.881565 106.916625 
L 69.88414 106.948837 
L 69.961391 106.594512 
L 69.969116 106.626723 
L 70.095292 106.175765 
L 70.097867 106.207976 
L 70.162243 105.853651 
L 70.180268 105.885863 
L 70.319319 105.434904 
L 70.321894 105.499327 
L 70.39142 105.402693 
L 70.520171 105.177213 
L 70.527896 105.209425 
L 70.605146 104.983945 
L 70.620596 105.048368 
L 70.751923 104.790677 
L 70.793123 104.694043 
L 70.924449 104.436353 
L 70.939899 104.500775 
L 71.019725 104.307507 
L 71.024875 104.339719 
L 71.115001 104.146451 
L 71.148476 104.178662 
L 71.210276 104.082028 
L 71.318427 103.953183 
L 71.323577 103.985394 
L 71.326152 104.049817 
L 71.418853 103.792126 
L 71.426578 103.824337 
L 71.537304 103.663281 
L 71.439453 103.856549 
L 71.547604 103.695492 
L 71.599104 103.727703 
L 71.609405 103.598858 
L 71.650605 103.598858 
L 71.771631 103.534435 
L 71.838581 103.40559 
L 71.884932 103.437801 
L 72.016258 103.40559 
L 72.088359 103.212322 
L 72.126984 103.341167 
L 72.389636 103.373379 
L 72.402511 103.502224 
L 72.497787 103.373379 
L 72.603363 103.244533 
L 72.502937 103.40559 
L 72.616238 103.276745 
L 72.755289 103.180111 
L 72.765589 103.115688 
L 72.788764 103.276745 
L 72.866015 103.180111 
L 73.015366 102.600307 
L 73.017941 102.632518 
L 73.028241 102.568095 
L 73.141542 102.793575 
L 73.167292 102.761363 
L 73.239393 102.92242 
L 73.244543 102.890209 
L 73.249693 102.857997 
L 73.365569 103.019054 
L 73.373294 102.986843 
L 73.435095 103.180111 
L 73.465995 103.147899 
L 73.566421 103.244533 
L 73.568996 103.341167 
L 73.594746 103.180111 
L 73.677147 103.308956 
L 73.715772 103.244533 
L 73.769847 103.40559 
L 73.785297 103.341167 
L 73.816198 103.308956 
L 73.898598 103.437801 
L 74.192151 103.470013 
L 74.297727 103.631069 
L 74.305452 103.566647 
L 74.488278 103.631069 
L 74.516603 103.695492 
L 74.547504 103.566647 
L 74.599004 103.663281 
L 74.660805 103.759915 
L 74.665955 103.824337 
L 74.743205 103.598858 
L 74.76638 103.695492 
L 74.833331 103.792126 
L 74.902857 103.920971 
L 74.841056 103.759915 
L 74.944057 103.792126 
L 75.023883 103.88876 
L 75.026458 103.920971 
L 75.095983 103.727703 
L 75.124308 103.759915 
L 75.28396 103.727703 
L 75.404986 103.308956 
L 75.428161 103.308956 
L 75.538887 103.051265 
L 75.541462 103.083477 
L 75.569787 103.180111 
L 75.600687 103.051265 
L 75.652188 103.083477 
L 75.719138 103.019054 
L 75.757764 103.180111 
L 75.760339 103.147899 
L 75.855614 103.244533 
L 75.90969 103.276745 
L 75.948315 103.083477 
L 75.95604 103.115688 
L 76.056466 103.083477 
L 76.041016 103.212322 
L 76.066766 103.115688 
L 76.308818 103.051265 
L 76.311393 102.986843 
L 76.393794 103.180111 
L 76.414394 103.115688 
L 76.432419 103.083477 
L 76.53542 103.308956 
L 76.553445 103.212322 
L 76.612671 103.437801 
L 76.643571 103.373379 
L 76.746572 103.341167 
L 76.700221 103.470013 
L 76.754297 103.373379 
L 76.859873 103.40559 
L 76.810947 103.276745 
L 76.865023 103.373379 
L 77.194625 103.40559 
L 77.302776 103.502224 
L 77.305351 103.470013 
L 77.405777 103.566647 
L 77.524228 103.695492 
L 77.531953 103.598858 
L 77.591179 103.792126 
L 77.634954 103.695492 
L 77.71993 103.792126 
L 77.77143 103.759915 
L 77.840956 103.920971 
L 78.010907 104.017605 
L 78.124208 104.146451 
L 78.031507 103.985394 
L 78.126783 104.082028 
L 78.129358 104.049817 
L 78.183434 104.210873 
L 78.227209 104.178662 
L 78.343085 104.339719 
L 78.242659 104.114239 
L 78.34566 104.275296 
L 78.554237 104.37193 
L 78.646937 104.468564 
L 78.667538 104.404141 
L 78.680413 104.37193 
L 78.734488 104.500775 
L 78.773113 104.468564 
L 78.816889 104.597409 
L 78.886414 104.500775 
L 79.159367 104.565198 
L 79.190267 104.661832 
L 79.228892 104.532987 
L 79.270092 104.597409 
L 79.337043 104.500775 
L 79.440044 104.436353 
L 79.362793 104.565198 
L 79.447769 104.500775 
L 79.700121 104.436353 
L 79.787672 104.275296 
L 79.813422 104.339719 
L 79.831447 104.468564 
L 79.875222 104.275296 
L 79.924148 104.339719 
L 80.078649 104.275296 
L 80.163625 104.210873 
L 80.153325 104.339719 
L 80.189375 104.243085 
L 80.297526 104.339719 
L 80.305251 104.307507 
L 80.655454 104.210873 
L 80.658029 104.146451 
L 80.694079 104.307507 
L 80.76103 104.275296 
L 80.874331 104.436353 
L 80.879481 104.37193 
L 80.905231 104.468564 
L 80.930981 104.404141 
L 81.018532 104.565198 
L 81.100933 104.500775 
L 81.049432 104.629621 
L 81.129258 104.565198 
L 81.149858 104.597409 
L 81.245134 104.500775 
L 81.278609 104.565198 
L 81.332684 104.436353 
L 81.353285 104.468564 
L 81.554136 104.565198 
L 81.646837 104.661832 
L 81.559286 104.532987 
L 81.667437 104.629621 
L 81.721513 104.532987 
L 81.757563 104.694043 
L 81.773013 104.694043 
L 82.03824 104.790677 
L 82.115491 104.8551 
L 82.089741 104.694043 
L 82.148966 104.790677 
L 82.339518 104.694043 
L 82.437368 104.661832 
L 82.391018 104.758466 
L 82.447669 104.726255 
L 82.60217 104.758466 
L 83.717154 155.040358 
L 83.948906 159.324465 
L 84.162633 161.901372 
L 84.451035 164.156165 
L 84.45361 164.123954 
L 84.523136 164.478279 
L 84.536011 164.478279 
L 84.690512 165.058083 
L 84.698237 165.025871 
L 84.783213 165.251351 
L 84.785788 165.219139 
L 84.904239 165.509041 
L 84.906814 165.47683 
L 84.942864 165.444619 
L 85.02269 165.573464 
L 85.081915 165.605675 
L 85.135991 165.509041 
L 85.244142 165.605675 
L 85.156591 165.444619 
L 85.246717 165.541253 
L 85.272467 165.509041 
L 85.285342 165.637887 
L 85.352292 165.573464 
L 85.437268 165.637887 
L 85.393493 165.509041 
L 85.460443 165.541253 
L 85.602069 165.573464 
L 85.70507 165.863366 
L 85.717945 165.798943 
L 85.784896 165.96 
L 85.836396 165.895577 
L 85.944547 165.798943 
L 85.949697 165.863366 
L 85.959997 165.831155 
L 86.070723 165.702309 
L 85.978023 165.927789 
L 86.073298 165.734521 
L 86.093898 165.734521 
L 86.207199 165.444619 
L 86.240675 165.509041 
L 86.297325 165.347985 
L 86.31535 165.412407 
L 86.359126 165.315773 
L 86.454401 165.219139 
L 86.423501 165.380196 
L 86.467277 165.283562 
L 86.547102 165.412407 
L 86.578002 165.347985 
L 86.580577 165.315773 
L 86.644953 165.47683 
L 86.678428 165.47683 
L 86.789154 165.670098 
L 86.686153 165.444619 
L 86.802029 165.637887 
L 86.87413 165.702309 
L 86.89473 165.670098 
L 86.990006 165.863366 
L 87.077557 165.798943 
L 87.005456 165.96 
L 87.100732 165.863366 
L 87.327334 165.798943 
L 87.440635 165.670098 
L 87.528185 165.798943 
L 87.55136 165.702309 
L 87.654361 165.670098 
L 87.561661 165.766732 
L 87.662086 165.702309 
L 87.664661 165.766732 
L 87.723887 165.605675 
L 87.770237 165.670098 
L 87.798562 165.573464 
L 87.911863 165.315773 
L 87.924739 165.347985 
L 87.929889 165.380196 
L 88.007139 165.154717 
L 88.022589 165.186928 
L 88.112715 165.090294 
L 88.233741 164.607124 
L 88.254341 164.703758 
L 88.256916 164.735969 
L 88.347042 164.542701 
L 88.354767 164.574913 
L 88.401117 164.51049 
L 88.506693 163.962897 
L 88.524718 163.995109 
L 88.558194 163.898475 
L 88.70497 163.286459 
L 88.71527 163.318671 
L 88.76677 163.222037 
L 88.903247 162.803289 
L 88.797671 163.254248 
L 88.908397 162.835501 
L 88.931572 162.738867 
L 89.057748 162.352331 
L 89.132423 162.287908 
L 89.227699 162.062429 
L 89.248299 162.159063 
L 89.250874 162.191274 
L 89.32555 161.933583 
L 89.341 161.965795 
L 89.441426 161.804738 
L 89.454301 161.901372 
L 89.518677 161.804738 
L 89.523827 161.836949 
L 89.647428 161.579259 
L 89.657728 161.61147 
L 89.727253 161.321568 
L 89.745278 161.418202 
L 89.88948 160.935032 
L 89.892055 160.967243 
L 89.897205 160.999455 
L 89.969305 160.741764 
L 89.98218 160.741764 
L 90.074881 160.355228 
L 90.105781 160.387439 
L 90.157282 160.323017 
L 90.195907 160.355228 
L 90.273158 160.16196 
L 90.275733 160.194171 
L 90.296333 160.000903 
L 90.373584 160.033115 
L 90.440534 159.936481 
L 90.56156 159.743213 
L 90.564135 159.775424 
L 90.618211 159.67879 
L 90.746962 159.388888 
L 90.770137 159.453311 
L 90.831937 159.292254 
L 90.855113 159.356677 
L 90.976139 158.841295 
L 90.978714 158.873507 
L 91.102315 158.486971 
L 91.13064 158.519182 
L 91.17184 158.261491 
L 91.200165 158.325914 
L 91.341792 157.939378 
L 91.380417 157.842744 
L 91.509168 157.327363 
L 91.514318 157.359574 
L 91.599294 157.166306 
L 91.607019 157.166306 
L 91.635344 157.101883 
L 91.764095 156.618713 
L 91.769245 156.650925 
L 91.838771 156.361023 
L 91.854221 156.425445 
L 91.977822 156.071121 
L 92.243049 155.974487 
L 92.263649 156.006698 
L 92.369225 155.781219 
L 92.405275 155.684585 
L 92.541751 155.201415 
L 92.552052 155.233626 
L 92.572652 155.136992 
L 92.688528 154.750456 
L 92.696253 154.814879 
L 92.791528 154.589399 
L 92.819854 154.653822 
L 92.933155 154.589399 
L 92.96148 154.460554 
L 93.043881 154.524977 
L 93.113406 154.428343 
L 93.242157 154.041807 
L 93.252457 154.074018 
L 93.311683 153.977384 
L 93.316833 154.009595 
L 93.448159 153.655271 
L 93.502234 153.558637 
L 93.509959 153.590848 
L 93.625835 153.236523 
L 93.62841 153.268735 
L 93.710811 152.946621 
L 93.713386 152.946621 
L 93.736561 152.849987 
L 93.898788 152.109127 
L 93.901363 152.141338 
L 93.934838 152.173549 
L 93.988913 151.851436 
L 93.991488 151.883647 
L 94.035264 151.787013 
L 94.174315 151.432689 
L 94.220665 151.368266 
L 94.341691 151.110575 
L 94.367441 151.174998 
L 94.431817 150.885096 
L 94.434392 150.949519 
L 94.557993 150.627405 
L 94.686744 150.337503 
L 94.715069 150.49856 
L 94.78717 150.208658 
L 94.79747 150.337503 
L 94.84382 150.273081 
L 94.962271 149.983179 
L 94.964846 150.01539 
L 95.016347 149.950967 
L 95.137373 149.661065 
L 95.181148 149.596643 
L 95.302174 149.274529 
L 95.304749 149.338952 
L 95.389725 148.984627 
L 95.39745 148.984627 
L 95.521051 148.662514 
L 95.616327 148.598091 
L 95.732203 148.179344 
L 95.739928 148.211555 
L 95.745078 148.243767 
L 95.827478 148.018287 
L 95.835203 148.050499 
L 95.97168 147.696174 
L 95.98198 147.728385 
L 96.04378 147.470695 
L 96.061805 147.502906 
L 96.180256 147.277427 
L 96.213732 147.180793 
L 96.342483 146.955313 
L 96.388833 146.858679 
L 96.396558 146.89089 
L 96.533034 146.40772 
L 96.548484 146.439932 
L 96.62316 146.15003 
L 96.625735 146.182241 
L 96.67466 146.085607 
L 96.795686 145.602437 
L 96.800836 145.634648 
L 96.803411 145.699071 
L 96.888387 145.312535 
L 96.896112 145.312535 
L 97.009413 145.054844 
L 97.014563 145.087056 
L 97.184515 145.054844 
L 97.29524 144.893788 
L 97.297815 144.925999 
L 97.333866 144.861576 
L 97.444592 144.507252 
L 97.457467 144.539463 
L 97.460042 144.571674 
L 97.547593 144.281772 
L 97.555318 144.378406 
L 97.694369 144.024082 
L 97.699519 144.088504 
L 97.771619 143.798602 
L 97.789645 143.830814 
L 97.841145 143.766391 
L 97.846295 143.798602 
L 97.957021 143.605334 
L 97.959596 143.669757 
L 98.052297 143.444278 
L 98.060022 143.476489 
L 98.191348 143.154376 
L 98.204223 143.218798 
L 98.291774 142.928896 
L 98.294349 142.961108 
L 98.309799 142.993319 
L 98.356149 142.800051 
L 98.389624 142.800051 
L 98.51065 142.477938 
L 98.523526 142.510149 
L 98.564726 142.477938 
L 98.683177 142.188036 
L 98.693477 142.220247 
L 98.822228 141.833711 
L 98.827378 141.898134 
L 98.914929 141.608232 
L 98.922654 141.640443 
L 99.05913 141.189484 
L 99.06943 141.221696 
L 99.128656 140.83516 
L 99.141531 140.867371 
L 99.254832 140.577469 
L 99.257407 140.60968 
L 99.275432 140.674103 
L 99.355257 140.480835 
L 99.362982 140.480835 
L 99.429933 140.384201 
L 99.571559 139.901031 
L 99.576709 139.933242 
L 99.610184 139.836608 
L 99.728635 139.64334 
L 99.811036 139.546706 
L 99.816186 139.578918 
L 99.947512 139.192382 
L 99.952662 139.256804 
L 100.035063 139.031325 
L 100.045363 139.063536 
L 100.181839 138.677 
L 100.184414 138.709212 
L 100.215314 138.612578 
L 100.354366 138.129408 
L 100.359516 138.19383 
L 100.395566 138.097196 
L 100.514017 137.678449 
L 100.537192 137.71066 
L 100.542342 137.807294 
L 100.624743 137.45297 
L 100.629893 137.485181 
L 100.766369 137.130856 
L 100.784394 137.163068 
L 100.851345 136.905377 
L 100.86422 136.9698 
L 101.008421 136.551052 
L 101.044471 136.518841 
L 101.165497 136.067882 
L 101.209273 135.971248 
L 101.332874 135.552501 
L 101.335449 135.584712 
L 101.340599 135.616924 
L 101.477075 135.165965 
L 101.526 135.198176 
L 101.569776 134.940486 
L 101.574926 135.004908 
L 101.608401 134.940486 
L 101.729427 134.618372 
L 101.732002 134.650584 
L 101.811828 134.392893 
L 101.822128 134.392893 
L 101.963754 134.006357 
L 102.012679 133.909723 
L 102.154305 133.523187 
L 102.182631 133.426553 
L 102.192931 133.490976 
L 102.316532 133.10444 
L 102.319107 133.136651 
L 102.406657 132.846749 
L 102.409232 132.87896 
L 102.530258 132.460213 
L 102.535408 132.492424 
L 102.537984 132.524636 
L 102.625534 132.234734 
L 102.628109 132.266945 
L 102.76716 131.91262 
L 102.790336 131.815986 
L 102.913937 131.397239 
L 102.916512 131.42945 
L 103.063288 130.914069 
L 103.071013 130.978492 
L 103.161139 130.656378 
L 103.163714 130.720801 
L 103.28989 129.97994 
L 103.292465 130.012152 
L 103.441816 129.49677 
L 103.446966 129.528982 
L 103.524217 129.206868 
L 103.531942 129.23908 
L 103.683868 128.723698 
L 103.712193 128.627064 
L 103.856394 128.143894 
L 103.858969 128.176106 
L 103.87957 128.079472 
L 103.88987 128.111683 
L 104.018621 127.692936 
L 104.023771 127.757358 
L 104.108746 127.467456 
L 104.111321 127.467456 
L 104.137072 127.403034 
L 104.258098 127.145343 
L 104.296723 127.08092 
L 104.420324 126.726596 
L 104.430624 126.791018 
L 104.5053 126.404482 
L 104.523325 126.307848 
L 104.528475 126.34006 
L 104.667526 125.85689 
L 104.672676 125.921312 
L 104.760227 125.663622 
L 104.770527 125.695833 
L 104.909578 125.277086 
L 104.914728 125.37372 
L 105.004854 125.019395 
L 105.012579 125.083818 
L 105.128455 124.826127 
L 105.13103 124.89055 
L 105.218581 124.536225 
L 105.226306 124.536225 
L 105.373082 124.053055 
L 105.380807 124.085266 
L 105.455482 123.859787 
L 105.468358 123.891998 
L 105.591959 123.473251 
L 105.594534 123.505462 
L 105.612559 123.408828 
L 105.75161 123.022292 
L 105.76706 123.086715 
L 105.846886 122.764602 
L 105.852036 122.829024 
L 105.978212 122.410277 
L 105.998812 122.378066 
L 106.117263 121.99153 
L 106.122413 122.055952 
L 106.202239 121.76605 
L 106.217689 121.76605 
L 106.374765 121.186246 
L 106.42884 121.089612 
L 106.555016 120.54202 
L 106.560167 120.574231 
L 106.598792 120.477597 
L 106.742993 120.05885 
L 106.750718 120.123272 
L 106.835694 119.83337 
L 106.879469 119.736736 
L 107.026245 119.221355 
L 106.884619 119.768948 
L 107.02882 119.253566 
L 107.03912 119.317989 
L 107.116371 119.028087 
L 107.124096 119.060298 
L 107.131821 119.124721 
L 107.270872 118.544917 
L 107.273447 118.60934 
L 107.358423 118.255015 
L 107.368723 118.255015 
L 107.373873 118.287226 
L 107.507774 117.868479 
L 107.518074 117.965113 
L 107.574725 117.610788 
L 107.600475 117.643 
L 107.605625 117.675211 
L 107.744676 117.224252 
L 107.785877 117.127618 
L 107.935228 116.580026 
L 107.937803 116.612237 
L 107.948103 116.644448 
L 108.025354 116.354546 
L 108.027929 116.354546 
L 108.19273 115.678108 
L 108.19788 115.742531 
L 108.288006 115.517052 
L 108.290581 115.549263 
L 108.447657 114.969459 
L 108.450232 115.00167 
L 108.530058 114.711768 
L 108.535208 114.74398 
L 108.661384 114.325232 
L 108.663959 114.389655 
L 108.75151 114.03533 
L 108.759235 114.067542 
L 108.900861 113.584372 
L 108.906011 113.616583 
L 108.942061 113.55216 
L 109.070812 113.06899 
L 109.112012 112.972356 
L 109.251064 112.618032 
L 109.279389 112.521398 
L 109.405565 112.134862 
L 109.44419 112.070439 
L 109.575516 111.555058 
L 109.608992 111.490635 
L 109.730018 111.071888 
L 109.732593 111.104099 
L 109.799543 110.781986 
L 109.817568 110.781986 
L 109.851044 110.685352 
L 109.863919 110.717563 
L 109.99782 110.234393 
L 110.020995 110.137759 
L 110.160046 109.783434 
L 110.190946 109.719012 
L 110.317122 109.300264 
L 110.319697 109.332476 
L 110.394373 109.010362 
L 110.404673 109.042573 
L 110.559174 108.494981 
L 110.600375 108.398347 
L 110.731701 107.850754 
L 110.780626 107.75412 
L 110.942853 107.077682 
L 110.948003 107.109893 
L 111.030403 106.819991 
L 111.035553 106.884414 
L 111.184904 106.401244 
L 111.220955 106.369033 
L 111.341981 105.789229 
L 111.475882 105.306059 
L 111.486182 105.370481 
L 111.511932 105.273847 
L 111.635533 104.951734 
L 111.795185 104.339719 
L 111.846685 104.243085 
L 111.996036 103.695492 
L 111.998611 103.727703 
L 112.021786 103.631069 
L 112.171138 103.147899 
L 112.194313 103.083477 
L 112.328214 102.43925 
L 112.333364 102.568095 
L 112.42864 102.149348 
L 112.431215 102.149348 
L 112.462115 102.084925 
L 112.596016 101.47291 
L 112.601166 101.505121 
L 112.675842 101.247431 
L 112.688717 101.247431 
L 112.807168 100.796472 
L 112.814893 100.828683 
L 112.843218 100.732049 
L 113.000294 100.152245 
L 113.02347 100.055611 
L 113.198571 99.218117 
L 113.201146 99.250328 
L 113.280972 98.896003 
L 113.286122 98.928215 
L 113.407148 98.445045 
L 113.409723 98.509467 
L 113.499849 98.09072 
L 113.504999 98.122931 
L 113.65435 97.639761 
L 113.656925 97.704184 
L 113.729025 97.382071 
L 113.754776 97.382071 
L 113.803701 97.285437 
L 113.811426 97.317648 
L 113.968502 96.608999 
L 113.971077 96.64121 
L 114.056053 96.319097 
L 114.179654 95.932561 
L 114.182229 95.964772 
L 114.251755 95.578236 
L 114.262055 95.610447 
L 114.426856 94.934009 
L 114.429431 94.966221 
L 114.493807 94.579685 
L 114.509257 94.579685 
L 114.524707 94.483051 
L 114.699808 93.645556 
L 114.707533 93.709979 
L 114.759034 93.452288 
L 114.792509 93.452288 
L 114.949585 92.872484 
L 114.970186 92.77585 
L 115.093787 92.196046 
L 115.096362 92.228257 
L 115.171037 91.80951 
L 115.173612 91.80951 
L 115.219963 91.712876 
L 115.387339 90.972015 
L 115.389914 91.036438 
L 115.47489 90.424423 
L 115.626816 89.844619 
L 115.637116 89.909041 
L 115.719517 89.490294 
L 115.724667 89.522505 
L 115.863718 88.781645 
L 115.871443 88.813856 
L 115.928093 88.395109 
L 115.938394 88.395109 
L 116.09032 87.299923 
L 116.10577 87.396557 
L 116.183021 86.623485 
L 116.188171 86.655697 
L 116.255121 86.140315 
L 116.257696 86.172527 
L 116.267996 86.075893 
L 116.399322 85.270609 
L 116.788151 79.053822 
L 116.801026 74.222122 
L 116.824201 14.76 
L 116.904026 88.91049 
L 116.945227 90.714325 
L 117.019902 89.586928 
L 117.176979 88.42732 
L 117.38813 87.138867 
L 117.39328 87.171078 
L 117.455081 86.687908 
L 117.462806 86.687908 
L 117.666233 85.463877 
L 117.668808 85.496089 
L 117.691983 85.399455 
L 117.818159 84.594171 
L 117.831034 84.658594 
L 117.854209 84.56196 
L 118.016436 83.241295 
L 118.029311 83.144661 
L 118.268788 81.534095 
L 118.294538 81.501883 
L 118.461914 79.214879 
L 118.464489 79.24709 
L 118.544315 76.863451 
L 118.559765 66.94236 
L 118.585515 20.525829 
L 118.660191 84.175424 
L 118.714266 88.234052 
L 118.783792 87.46098 
L 118.961468 85.785991 
L 118.964043 85.818202 
L 119.028419 85.238398 
L 119.20352 84.368692 
L 119.206095 84.433115 
L 119.291071 83.821099 
L 119.293646 83.853311 
L 119.790625 76.283647 
L 119.806075 62.11066 
L 119.831825 23.972441 
L 119.903926 80.342275 
L 119.970877 86.97781 
L 120.035252 86.559063 
L 120.042977 86.49464 
L 120.225804 84.690805 
L 120.228379 84.723017 
L 120.287604 84.07879 
L 120.444681 82.886971 
L 120.447256 82.919182 
L 120.503906 82.274955 
L 120.96226 75.285096 
L 120.97771 66.68467 
L 121.011185 26.968095 
L 121.080711 76.283647 
L 121.194012 85.238398 
L 121.217187 85.109553 
L 121.407738 83.11245 
L 121.842917 79.053822 
L 121.850642 79.021611 
L 122.110719 67.16784 
L 122.146769 30.253651 
L 122.216295 72.804823 
L 122.337321 84.143213 
L 122.355346 84.07879 
L 122.360496 84.143213 
L 122.430022 83.627831 
L 122.610273 81.856208 
L 122.623148 81.823997 
L 122.76735 80.116796 
L 122.785375 80.020162 
L 123.042877 75.413941 
L 123.171628 69.648112 
L 123.212828 33.12046 
L 123.282354 69.068308 
L 123.42398 82.049476 
L 123.426555 82.017265 
L 123.43943 82.14611 
L 123.493506 81.66294 
L 123.503806 81.759574 
L 123.627407 80.922079 
L 124.260862 73.513473 
L 124.304637 73.803375 
L 124.312362 73.867797 
L 124.392188 73.287993 
L 124.61879 71.162045 
L 124.65484 71.355313 
L 124.863417 72.611555 
L 124.930367 72.386076 
L 124.886592 72.675978 
L 124.976718 72.547133 
L 125.102894 72.998091 
L 125.151819 73.126937 
L 125.24452 72.225019 
L 125.247095 72.289442 
L 125.319196 71.741849 
L 125.334646 71.741849 
L 125.352671 71.645215 
L 125.507172 68.327448 
L 125.586998 63.624593 
L 125.643648 45.779514 
L 125.708024 60.596728 
L 125.88055 76.283647 
L 125.893425 76.380281 
L 125.926901 76.509127 
L 125.986126 76.187013 
L 125.993851 76.187013 
L 126.356929 72.998091 
L 126.359504 73.030303 
L 126.405854 72.321653 
L 126.411005 72.321653 
L 126.457355 71.838483 
L 126.550056 71.967329 
L 126.604131 71.870695 
L 126.709707 71.129834 
L 126.758632 71.29089 
L 126.768932 71.355313 
L 126.843608 71.000988 
L 126.859058 71.0332 
L 126.869358 71.065411 
L 126.931159 70.55003 
L 127.031585 70.002437 
L 127.05991 70.034648 
L 127.276212 71.419736 
L 127.10111 69.938014 
L 127.278787 71.387524 
L 127.404963 70.646664 
L 127.435863 70.775509 
L 127.441013 70.839932 
L 127.492513 70.099071 
L 127.507964 70.002437 
L 127.72684 67.038994 
L 127.73199 67.16784 
L 127.734565 67.135628 
L 127.788641 67.844278 
L 127.791216 67.779855 
L 127.945717 70.002437 
L 127.950867 70.034648 
L 128.051293 70.32455 
L 128.017818 70.002437 
L 128.064168 70.260128 
L 128.066743 70.195705 
L 128.164594 70.517818 
L 128.23927 70.614452 
L 128.28562 70.453396 
L 128.368021 70.839932 
L 128.566297 68.488504 
L 128.568872 68.552927 
L 128.579172 68.585138 
L 128.597197 68.713984 
L 128.658998 68.488504 
L 128.689898 68.61735 
L 128.702773 68.520716 
L 128.841824 67.135628 
L 128.862425 67.296685 
L 128.88045 67.393319 
L 128.919075 67.200051 
L 129.016926 67.747644 
L 129.024651 67.683221 
L 129.089026 68.424082 
L 129.099327 68.424082 
L 129.109627 68.520716 
L 129.132802 68.87504 
L 129.230653 68.778406 
L 129.246103 68.810618 
L 129.289878 68.198602 
L 129.297603 68.230814 
L 129.380004 67.554376 
L 129.418629 67.940912 
L 129.498455 68.295236 
L 129.53708 68.037546 
L 129.57313 67.715432 
L 129.652956 67.876489 
L 129.668406 67.940912 
L 129.755957 68.424082 
L 129.786857 68.13418 
L 129.804882 68.037546 
L 129.853808 67.779855 
L 129.905308 68.13418 
L 129.910458 68.069757 
L 129.931058 68.13418 
L 129.987709 67.715432 
L 130.08041 67.457742 
L 130.041784 67.747644 
L 130.098435 67.618798 
L 130.129335 67.940912 
L 130.209161 67.618798 
L 130.245211 67.393319 
L 130.304436 67.9087 
L 130.402287 68.585138 
L 130.430613 68.488504 
L 130.440913 68.424082 
L 130.543913 67.844278 
L 130.572239 67.876489 
L 130.590264 67.876489 
L 130.654639 67.42553 
L 130.69584 67.973123 
L 130.698415 67.973123 
L 130.850341 68.746195 
L 130.73704 67.940912 
L 130.858066 68.61735 
L 130.976517 68.13418 
L 130.901841 68.649561 
L 130.994542 68.263025 
L 130.997117 68.295236 
L 131.058918 67.715432 
L 131.061493 67.779855 
L 131.161919 67.038994 
L 131.192819 67.232262 
L 131.246894 67.296685 
L 131.349895 68.037546 
L 131.375645 67.779855 
L 131.427146 67.586587 
L 131.460621 67.973123 
L 131.470921 67.973123 
L 131.486371 67.9087 
L 131.535297 68.230814 
L 131.602247 67.715432 
L 131.620272 67.747644 
L 131.664048 67.103417 
L 131.836574 65.621696 
L 131.877774 65.782752 
L 132.040001 66.491402 
L 131.918975 65.460639 
L 132.042576 66.45919 
L 132.076051 66.233711 
L 132.117251 66.652458 
L 132.163602 66.330345 
L 132.191927 66.233711 
L 132.227977 66.104866 
L 132.274328 66.491402 
L 132.292353 66.45919 
L 132.385054 66.652458 
L 132.338703 66.426979 
L 132.403079 66.555824 
L 132.454579 66.298134 
L 132.495779 66.620247 
L 132.518955 66.362556 
L 132.735256 64.816412 
L 132.740406 64.945258 
L 132.858857 65.782752 
L 132.882033 65.750541 
L 132.887183 65.653907 
L 132.946408 65.557273 
L 132.982458 65.847175 
L 132.990184 65.750541 
L 132.997909 65.814964 
L 133.106059 66.040443 
L 133.11636 66.008232 
L 133.134385 66.072654 
L 133.250261 66.330345 
L 133.268286 66.233711 
L 133.276011 66.2015 
L 133.335236 66.588036 
L 133.353262 66.523613 
L 133.518063 67.200051 
L 133.546388 67.103417 
L 133.644239 66.781304 
L 133.662264 67.038994 
L 133.675139 66.974572 
L 133.711189 67.006783 
L 133.81934 66.104866 
L 133.837365 66.008232 
L 134.009892 64.107763 
L 134.017617 64.26882 
L 134.051092 64.558722 
L 134.102593 63.882284 
L 134.110318 63.882284 
L 134.123193 63.753438 
L 134.182418 64.590933 
L 134.190143 64.590933 
L 134.360095 66.104866 
L 134.375545 66.2015 
L 134.499146 66.974572 
L 134.514596 66.910149 
L 134.545496 67.071206 
L 134.645922 66.104866 
L 134.792698 64.75199 
L 134.846774 64.913046 
L 134.869949 65.202948 
L 134.9575 64.913046 
L 135.127451 65.97602 
L 135.137751 65.782752 
L 135.240752 65.202948 
L 135.266502 65.299582 
L 135.289677 65.23516 
L 135.328303 65.00968 
L 135.390103 65.460639 
L 135.454479 65.911598 
L 135.500829 65.49285 
L 135.518854 65.364005 
L 135.575505 65.879386 
L 135.580655 65.879386 
L 135.621855 65.814964 
L 135.63988 65.589484 
L 135.699106 65.879386 
L 135.732581 65.814964 
L 135.742881 65.750541 
L 135.835582 65.00968 
L 135.876782 65.170737 
L 135.887082 65.23516 
L 135.915408 64.913046 
L 135.974633 64.945258 
L 136.005533 64.816412 
L 136.057034 65.621696 
L 136.069909 65.782752 
L 136.160035 65.525062 
L 136.16261 65.525062 
L 136.299086 64.75199 
L 136.301661 64.816412 
L 136.427837 65.428428 
L 136.435562 65.396216 
L 136.507662 65.49285 
L 136.584913 65.782752 
L 136.618388 65.525062 
L 136.77289 63.753438 
L 136.78834 64.04334 
L 136.826965 64.590933 
L 136.891341 63.978918 
L 136.899066 64.04334 
L 136.904216 64.139974 
L 137.053567 64.655356 
L 137.056142 64.623144 
L 137.107642 65.267371 
L 137.110217 65.267371 
L 137.169443 65.686118 
L 137.210643 65.041892 
L 137.254419 65.106314 
L 137.280169 65.267371 
L 137.323944 65.00968 
L 137.365144 65.170737 
L 137.375445 65.267371 
L 137.594321 63.656804 
L 137.604621 63.753438 
L 137.676722 63.334691 
L 137.723072 63.205846 
L 137.769423 63.689016 
L 137.771998 63.689016 
L 137.913624 64.462088 
L 137.923924 64.558722 
L 137.959974 64.880835 
L 138.021775 64.397665 
L 138.111901 63.914495 
L 138.145376 64.075552 
L 138.235502 63.882284 
L 138.155676 64.139974 
L 138.250952 64.107763 
L 138.361678 64.816412 
L 138.402878 64.623144 
L 138.601155 63.334691 
L 138.611455 63.366902 
L 138.727331 63.946706 
L 138.760806 63.850072 
L 138.822606 62.915944 
L 138.876682 63.592382 
L 138.892132 63.689016 
L 138.938482 64.04334 
L 138.971958 63.656804 
L 139.010583 63.78565 
L 139.020883 63.624593 
L 139.103284 64.172186 
L 139.195984 64.623144 
L 139.22431 64.558722 
L 139.23976 64.462088 
L 139.360786 63.817861 
L 139.365936 63.850072 
L 139.407136 63.914495 
L 139.450912 64.301031 
L 139.520437 63.978918 
L 139.541037 63.882284 
L 139.716139 63.012578 
L 139.718714 63.044789 
L 139.767639 62.851521 
L 139.868065 64.011129 
L 140.017416 64.655356 
L 139.90154 63.946706 
L 140.027716 64.623144 
L 140.040591 64.52651 
L 140.182218 63.656804 
L 140.053467 64.558722 
L 140.184793 63.689016 
L 140.207968 63.78565 
L 140.318694 63.946706 
L 140.246593 63.592382 
L 140.323844 63.882284 
L 140.326419 63.850072 
L 140.385644 64.236608 
L 140.42942 63.946706 
L 140.45517 64.04334 
L 140.555596 64.397665 
L 140.581346 64.301031 
L 140.704947 62.464985 
L 140.753872 62.754887 
L 140.887773 62.11066 
L 140.771897 62.787098 
L 140.898073 62.33614 
L 140.905799 62.400562 
L 141.0706 64.107763 
L 141.0809 64.011129 
L 141.093775 64.107763 
L 141.317802 62.400562 
L 141.516079 63.689016 
L 141.340977 62.33614 
L 141.521229 63.624593 
L 141.629379 63.141423 
L 141.557279 63.882284 
L 141.642255 63.238057 
L 141.64483 63.205846 
L 141.70148 63.850072 
L 141.827656 64.816412 
L 141.843106 64.623144 
L 141.853406 64.687567 
L 141.907482 64.075552 
L 142.157259 62.303928 
L 142.314335 62.915944 
L 142.389011 62.239506 
L 142.463686 62.432774 
L 142.489437 62.271717 
L 142.592437 62.915944 
L 142.605312 62.980366 
L 142.741789 63.914495 
L 142.746939 63.78565 
L 142.844789 63.463536 
L 142.873115 63.592382 
L 142.91174 63.495748 
L 143.017316 62.81931 
L 142.924615 63.592382 
L 143.068816 62.851521 
L 143.094566 62.915944 
L 143.135767 61.917392 
L 143.138342 61.917392 
L 143.161517 61.563068 
L 143.236193 62.175083 
L 143.243918 62.11066 
L 143.264518 62.207294 
L 143.444769 63.334691 
L 143.460219 63.270268 
L 143.560645 62.529408 
L 143.606996 62.81931 
L 143.630171 63.109212 
L 143.691971 62.722676 
L 143.717722 62.81931 
L 143.753772 62.722676 
L 143.774372 62.81931 
L 143.923723 61.885181 
L 144.042174 62.81931 
L 144.055049 62.787098 
L 144.062774 62.690464 
L 144.1529 63.109212 
L 144.160625 63.205846 
L 144.18895 63.238057 
L 144.235301 62.754887 
L 144.237876 62.787098 
L 144.289376 61.981815 
L 144.382077 62.368351 
L 144.425852 62.432774 
L 144.428427 62.497196 
L 144.508253 61.788547 
L 144.510828 61.820758 
L 144.518553 61.917392 
L 144.534003 61.788547 
L 144.662754 62.33614 
L 144.703955 62.432774 
L 144.75288 62.81931 
L 144.79408 62.239506 
L 144.891931 61.466434 
L 144.917681 61.756336 
L 145.028407 61.112109 
L 144.938282 61.85297 
L 145.064458 61.240954 
L 145.221534 62.432774 
L 145.35801 61.337588 
L 145.39921 61.595279 
L 145.494486 63.205846 
L 145.545987 62.980366 
L 145.607787 63.205846 
L 145.630962 62.658253 
L 145.829239 61.434222 
L 145.834389 61.498645 
L 146.01979 62.948155 
L 146.042966 62.754887 
L 146.135666 61.724124 
L 146.176867 62.11066 
L 146.192317 62.271717 
L 146.266993 61.756336 
L 146.274718 61.788547 
L 146.413769 62.303928 
L 146.418919 62.207294 
L 146.514195 61.563068 
L 146.539945 61.788547 
L 146.555395 61.691913 
L 146.59402 61.079898 
L 146.694446 61.305377 
L 146.810322 61.530856 
L 146.838647 61.595279 
L 146.887573 61.208743 
L 146.913323 60.822207 
L 147.000874 61.079898 
L 147.011174 61.176532 
L 147.062674 61.691913 
L 147.119325 61.112109 
L 147.1425 60.822207 
L 147.222325 61.466434 
L 147.260951 61.563068 
L 147.369102 61.659702 
L 147.304726 61.434222 
L 147.374252 61.595279 
L 147.381977 61.530856 
L 147.500428 60.725573 
L 147.505578 60.822207 
L 147.515878 60.757784 
L 147.580253 61.208743 
L 147.73218 63.205846 
L 147.74248 63.141423 
L 147.75278 63.270268 
L 147.80428 62.561619 
L 147.806855 62.561619 
L 147.917581 61.14432 
L 147.963931 61.3698 
L 147.987107 61.466434 
L 148.038607 60.951052 
L 148.177658 60.145769 
L 148.180233 60.17798 
L 148.355335 61.917392 
L 148.40941 61.691913 
L 148.525286 61.3698 
L 148.478936 61.885181 
L 148.540736 61.402011 
L 148.556186 61.498645 
L 148.625712 60.854418 
L 148.648887 60.596728 
L 148.718413 61.305377 
L 148.720988 61.240954 
L 148.847164 61.949604 
L 148.986215 61.240954 
L 149.027415 61.079898 
L 149.076341 61.3698 
L 149.091791 61.305377 
L 149.166466 61.047686 
L 149.212817 61.434222 
L 149.230842 61.337588 
L 149.310668 61.305377 
L 149.259167 61.466434 
L 149.333843 61.434222 
L 149.429118 61.530856 
L 149.351868 61.337588 
L 149.441994 61.3698 
L 149.498644 61.530856 
L 149.565595 61.176532 
L 149.611945 61.659702 
L 149.691771 61.563068 
L 149.794771 60.242403 
L 149.830822 60.500094 
L 149.938973 60.757784 
L 149.913222 60.40346 
L 149.951848 60.628939 
L 150.003348 60.500094 
L 150.044549 61.079898 
L 150.047124 61.015475 
L 150.121799 61.273166 
L 150.150124 60.983264 
L 150.157849 61.015475 
L 150.2248 60.371248 
L 150.163 61.047686 
L 150.28145 60.822207 
L 150.345826 61.3698 
L 150.410202 61.047686 
L 150.508052 60.628939 
L 150.538953 60.822207 
L 150.644528 61.981815 
L 150.721779 61.724124 
L 150.899456 60.016924 
L 151.033357 60.757784 
L 151.038507 60.725573 
L 151.048807 60.822207 
L 151.100307 60.918841 
L 151.138933 60.66115 
L 151.265109 59.179429 
L 151.267684 59.21164 
L 151.272834 59.179429 
L 151.499435 60.757784 
L 151.502011 60.693362 
L 151.579261 61.015475 
L 151.602436 60.951052 
L 151.605011 60.918841 
L 151.684837 61.176532 
L 151.713162 60.951052 
L 151.720887 60.88663 
L 151.756938 60.564516 
L 151.800713 61.015475 
L 151.826463 60.983264 
L 151.901139 61.176532 
L 151.921739 60.854418 
L 151.924314 60.854418 
L 152.06594 59.727022 
L 152.10714 59.888078 
L 152.259067 61.208743 
L 152.266792 61.112109 
L 152.295117 61.015475 
L 152.405843 60.500094 
L 152.421293 60.628939 
L 152.444468 60.532305 
L 152.591244 59.888078 
L 152.596394 60.016924 
L 152.616995 60.081346 
L 152.642745 60.242403 
L 152.71227 59.759233 
L 152.735446 59.533754 
L 152.768921 59.888078 
L 152.815271 59.823656 
L 152.864197 60.274614 
L 152.936297 60.113558 
L 152.951747 59.952501 
L 153.023848 60.596728 
L 153.026423 60.596728 
L 153.137149 61.047686 
L 153.147449 61.015475 
L 153.155174 60.918841 
L 153.3174 59.630388 
L 153.368901 59.501542 
L 153.474477 60.210192 
L 153.487352 60.113558 
L 153.538852 59.92029 
L 153.574903 60.306826 
L 153.577478 60.306826 
L 153.603228 60.564516 
L 153.665028 59.952501 
L 153.672753 59.984712 
L 153.675328 59.92029 
L 153.739704 60.532305 
L 153.760304 60.500094 
L 153.801504 60.822207 
L 153.863305 60.339037 
L 153.86588 60.371248 
L 153.943131 60.17798 
L 153.873605 60.40346 
L 153.981756 60.306826 
L 153.986906 60.210192 
L 154.082182 59.21164 
L 154.115657 59.469331 
L 154.234108 60.725573 
L 154.288183 60.242403 
L 154.442685 58.696259 
L 154.47616 59.243852 
L 154.561136 60.081346 
L 154.604911 59.984712 
L 154.640961 59.888078 
L 154.643536 59.855867 
L 154.723362 60.242403 
L 154.751687 60.274614 
L 154.826363 60.500094 
L 154.859838 60.17798 
L 154.875288 60.081346 
L 154.906188 60.17798 
L 155.06069 58.213089 
L 155.07099 58.116455 
L 155.073565 58.084244 
L 155.125065 58.72847 
L 155.251241 60.242403 
L 155.269266 60.145769 
L 155.390292 59.727022 
L 155.444368 59.565965 
L 155.477843 59.823656 
L 155.501018 59.727022 
L 155.539644 59.823656 
L 155.68642 60.435671 
L 155.627194 59.69481 
L 155.694145 60.371248 
L 155.910447 58.95395 
L 155.71217 60.435671 
L 155.913022 58.986161 
L 155.972247 59.308274 
L 156.008298 58.95395 
L 156.031473 59.21164 
L 156.049498 59.179429 
L 156.072673 59.018372 
L 156.152499 59.43712 
L 156.155074 59.404908 
L 156.209149 60.081346 
L 156.211724 60.016924 
L 156.219449 60.081346 
L 156.2967 59.533754 
L 156.299275 59.533754 
L 156.319875 59.243852 
L 156.407426 59.501542 
L 156.471801 59.888078 
L 156.518152 59.533754 
L 156.531027 59.501542 
L 156.654628 58.889527 
L 156.567077 59.69481 
L 156.657203 58.921738 
L 156.682953 59.018372 
L 156.698403 59.050584 
L 156.726728 58.857316 
L 156.791104 58.986161 
L 156.811704 58.857316 
L 156.87093 59.21164 
L 156.883805 59.179429 
L 156.94818 59.404908 
L 156.97393 58.857316 
L 156.97908 58.921738 
L 157.020281 58.72847 
L 157.079506 59.018372 
L 157.087231 58.95395 
L 157.131007 59.179429 
L 157.177357 58.825104 
L 157.197957 58.95395 
L 157.254608 59.050584 
L 157.347308 60.242403 
L 157.393659 60.113558 
L 157.398809 60.081346 
L 157.445159 60.757784 
L 157.450309 60.693362 
L 157.452884 60.789996 
L 157.53786 59.952501 
L 157.540435 59.984712 
L 157.682061 58.535202 
L 157.705236 58.599625 
L 157.875188 60.435671 
L 157.888063 60.40346 
L 158.016814 58.664048 
L 158.109515 59.018372 
L 158.15329 59.082795 
L 158.18419 58.760682 
L 158.202216 58.857316 
L 158.253716 58.2453 
L 158.320666 58.631836 
L 158.488043 59.630388 
L 158.328392 58.599625 
L 158.500918 59.501542 
L 158.570444 59.115006 
L 158.611644 59.340486 
L 158.688895 59.179429 
L 158.73267 59.855867 
L 158.735245 59.855867 
L 158.771295 60.435671 
L 158.843396 59.823656 
L 158.997897 58.148666 
L 159.010772 58.052032 
L 159.018497 57.858764 
L 159.064848 58.374146 
L 159.124073 58.019821 
L 159.142098 58.084244 
L 159.283724 58.857316 
L 159.294024 58.95395 
L 159.309475 59.147218 
L 159.3378 58.535202 
L 159.39445 58.760682 
L 159.407325 58.664048 
L 159.471701 59.050584 
L 159.487151 58.986161 
L 159.497451 59.082795 
L 159.569552 58.760682 
L 159.595302 58.921738 
L 159.711178 59.147218 
L 159.636502 58.664048 
L 159.716328 59.082795 
L 159.909455 57.794342 
L 159.92233 57.890976 
L 160.105156 59.759233 
L 160.318883 58.341934 
L 160.324033 58.406357 
L 160.352358 58.502991 
L 160.491409 59.372697 
L 160.493984 59.308274 
L 160.545485 59.404908 
L 160.602135 59.759233 
L 160.645911 59.276063 
L 160.754061 57.76213 
L 160.797837 58.213089 
L 160.900838 59.082795 
L 160.931738 58.792893 
L 160.942038 58.889527 
L 160.993538 58.2453 
L 161.160915 56.763579 
L 161.408117 58.567414 
L 161.441592 58.47078 
L 161.493093 58.95395 
L 161.508543 58.889527 
L 161.516268 58.792893 
L 161.565193 58.599625 
L 161.611544 58.921738 
L 161.614119 58.889527 
L 161.616694 58.95395 
L 161.655319 58.438568 
L 161.722269 58.889527 
L 161.861321 58.406357 
L 161.866471 58.438568 
L 161.920546 58.95395 
L 161.977197 58.47078 
L 162.064747 57.246749 
L 162.105948 57.568862 
L 162.162598 57.246749 
L 162.201223 57.665496 
L 162.206373 57.633285 
L 162.242424 57.890976 
L 162.319674 57.729919 
L 162.329974 57.665496 
L 162.371175 58.116455 
L 162.4201 57.98761 
L 162.510226 57.601074 
L 162.556576 57.665496 
L 162.610652 58.019821 
L 162.646702 57.407806 
L 162.664727 57.375594 
L 162.775453 56.924636 
L 162.785753 56.989058 
L 162.793478 56.924636 
L 162.863004 57.76213 
L 162.991755 58.857316 
L 163.05098 58.760682 
L 163.218357 57.343383 
L 163.341958 57.76213 
L 163.241532 57.053481 
L 163.349683 57.697708 
L 163.396033 57.407806 
L 163.370283 57.729919 
L 163.460409 57.697708 
L 163.483584 57.794342 
L 163.565985 58.889527 
L 163.61491 58.116455 
L 163.746236 57.375594 
L 163.753961 57.407806 
L 163.756536 57.440017 
L 163.820912 57.053481 
L 163.849237 57.214538 
L 163.854387 57.150115 
L 163.900737 57.76213 
L 163.934213 57.50444 
L 164.147939 59.340486 
L 164.17884 59.179429 
L 164.410591 57.343383 
L 164.420892 57.50444 
L 164.541918 58.019821 
L 164.567668 57.98761 
L 164.580543 57.955398 
L 164.642343 58.438568 
L 164.647493 58.374146 
L 164.698994 58.599625 
L 164.729894 58.116455 
L 164.732469 58.116455 
L 164.87152 56.473677 
L 164.884395 56.570311 
L 164.89212 56.5381 
L 164.938471 57.150115 
L 164.971946 56.828002 
L 165.056922 57.536651 
L 165.110997 57.182326 
L 165.157348 57.27896 
L 165.198548 57.665496 
L 165.250048 57.117904 
L 165.345324 56.441466 
L 165.368499 56.828002 
L 165.4612 57.601074 
L 165.489525 57.375594 
L 165.533301 57.053481 
L 165.566776 57.440017 
L 165.605401 57.27896 
L 165.708402 57.826553 
L 165.741877 57.601074 
L 165.850028 56.860213 
L 165.775353 57.697708 
L 165.886079 57.150115 
L 166.032855 58.213089 
L 166.058605 57.955398 
L 166.143581 56.956847 
L 166.192506 57.27896 
L 166.246582 57.214538 
L 166.316107 57.601074 
L 166.323832 57.665496 
L 166.403658 57.343383 
L 166.408808 57.375594 
L 166.524684 56.699156 
L 166.553009 56.956847 
L 166.617385 57.150115 
L 166.581334 56.892424 
L 166.674035 57.085692 
L 166.810511 56.248198 
L 166.71266 57.407806 
L 166.815661 56.31262 
L 166.936687 55.958296 
L 166.908362 56.377043 
L 166.946987 56.022718 
L 167.23024 59.21164 
L 167.279165 58.792893 
L 167.284315 58.72847 
L 167.503192 56.022718 
L 167.534092 55.603971 
L 167.588168 56.344832 
L 167.747819 58.084244 
L 167.765844 58.052032 
L 167.794169 57.955398 
L 167.930645 55.82945 
L 167.969271 56.344832 
L 168.002746 56.31262 
L 168.164972 58.535202 
L 168.368399 55.990507 
L 168.206173 58.857316 
L 168.376124 56.022718 
L 168.566676 57.729919 
L 168.595001 57.472228 
L 168.610451 57.343383 
L 168.651651 57.568862 
L 168.708302 57.375594 
L 168.857653 55.700605 
L 168.922029 56.087141 
L 169.063655 57.053481 
L 169.06623 57.02127 
L 169.11773 57.182326 
L 169.184681 56.634734 
L 169.194981 56.666945 
L 169.246481 56.022718 
L 169.269656 55.700605 
L 169.344332 56.344832 
L 169.444758 57.375594 
L 169.475658 57.117904 
L 169.493683 57.117904 
L 169.568359 56.377043 
L 169.614709 56.602522 
L 169.645609 56.699156 
L 169.684235 56.956847 
L 169.730585 56.441466 
L 169.73831 56.473677 
L 169.756335 56.409254 
L 169.836161 56.280409 
L 169.859336 56.441466 
L 169.867061 56.409254 
L 169.895387 56.473677 
L 169.944312 56.05493 
L 169.946887 56.05493 
L 169.990662 55.958296 
L 170.042163 56.248198 
L 170.178639 57.085692 
L 170.201814 56.924636 
L 170.31769 56.248198 
L 170.33314 56.377043 
L 170.37434 56.31262 
L 170.407816 56.087141 
L 170.469616 56.505888 
L 170.479916 56.441466 
L 170.497941 56.505888 
L 170.567467 56.183775 
L 170.662743 56.05493 
L 170.611242 56.409254 
L 170.680768 56.087141 
L 170.855869 57.246749 
L 170.873895 57.150115 
L 171.087621 55.249646 
L 170.88162 57.182326 
L 171.113372 55.507337 
L 171.180322 56.31262 
L 171.267873 56.05493 
L 171.288473 55.893873 
L 171.334823 56.570311 
L 171.435249 57.76213 
L 171.499625 57.27896 
L 171.751977 55.410703 
L 171.757127 55.442914 
L 171.945103 57.472228 
L 172.004329 57.182326 
L 172.166555 54.991956 
L 172.236081 55.636182 
L 172.416332 57.117904 
L 172.449807 56.956847 
L 172.624909 56.119352 
L 172.663534 56.248198 
L 172.694435 55.700605 
L 172.69701 55.700605 
L 172.75366 55.153012 
L 172.81546 55.378492 
L 172.949362 56.505888 
L 172.954512 56.441466 
L 173.031762 56.344832 
L 173.062663 55.893873 
L 173.134763 56.441466 
L 173.137338 56.409254 
L 173.147638 56.31262 
L 173.235189 55.82945 
L 173.157938 56.409254 
L 173.263514 56.248198 
L 173.309865 56.505888 
L 173.37939 56.31262 
L 173.482391 56.022718 
L 173.397415 56.409254 
L 173.495266 56.183775 
L 173.611142 56.5381 
L 173.554492 56.022718 
L 173.618867 56.505888 
L 173.644617 56.570311 
L 173.652342 56.731368 
L 173.706418 56.409254 
L 173.750193 56.441466 
L 173.768218 56.409254 
L 173.770793 56.31262 
L 173.858344 57.053481 
L 173.863494 56.989058 
L 173.891819 56.892424 
L 174.084946 55.442914 
L 174.105546 55.603971 
L 174.128721 55.57176 
L 174.172497 54.991956 
L 174.244597 55.378492 
L 174.272922 55.442914 
L 174.311548 55.893873 
L 174.386223 55.507337 
L 174.5227 55.926084 
L 174.404249 55.34628 
L 174.52785 55.893873 
L 174.5536 55.958296 
L 174.592225 56.31262 
L 174.661751 55.958296 
L 174.759601 55.249646 
L 174.811102 55.475126 
L 175.027404 56.989058 
L 175.035129 56.956847 
L 175.187055 55.926084 
L 175.21023 56.022718 
L 175.217955 56.087141 
L 175.24113 55.861662 
L 175.302931 55.893873 
L 175.400782 55.410703 
L 175.421382 55.57176 
L 175.472882 55.893873 
L 175.524383 55.378492 
L 175.588758 55.732816 
L 175.645409 55.507337 
L 175.78446 54.991956 
L 175.684034 55.636182 
L 175.79476 55.024167 
L 175.897761 55.797239 
L 175.944111 55.57176 
L 175.959561 55.475126 
L 176.029087 56.087141 
L 176.075437 56.409254 
L 176.124363 55.636182 
L 176.126938 55.636182 
L 176.229939 53.961193 
L 176.284014 54.412152 
L 176.474566 56.119352 
L 176.304614 54.347729 
L 176.502891 55.797239 
L 176.600742 54.895322 
L 176.513191 55.82945 
L 176.647092 55.34628 
L 176.768118 55.958296 
L 176.773268 55.926084 
L 176.902019 56.892424 
L 176.925194 56.473677 
L 177.082271 55.153012 
L 176.950944 56.505888 
L 177.087421 55.185224 
L 177.180121 55.603971 
L 177.208447 55.314069 
L 177.223897 55.217435 
L 177.257372 54.991956 
L 177.293422 55.603971 
L 177.308872 55.539548 
L 177.326898 55.603971 
L 177.344923 55.539548 
L 177.465949 56.31262 
L 177.489124 56.215986 
L 177.59985 55.442914 
L 177.623025 55.57176 
L 177.6462 55.700605 
L 177.702851 55.185224 
L 177.705426 55.153012 
L 177.741476 55.57176 
L 177.800701 55.34628 
L 177.942328 56.05493 
L 177.823877 55.281858 
L 177.952628 55.861662 
L 177.962928 55.765028 
L 178.086529 55.08859 
L 178.089104 55.120801 
L 178.107129 55.185224 
L 178.174079 54.734265 
L 178.18438 54.766476 
L 178.23588 54.702054 
L 178.259055 54.218884 
L 178.331156 55.056378 
L 178.423857 55.861662 
L 178.457332 55.475126 
L 178.593808 55.153012 
L 178.622133 55.056378 
L 178.696809 54.37994 
L 178.735434 54.927533 
L 178.843585 55.668394 
L 178.859035 55.442914 
L 178.941436 55.539548 
L 178.889935 55.153012 
L 178.967186 55.442914 
L 178.985211 55.281858 
L 179.041862 55.539548 
L 179.080487 55.410703 
L 179.088212 55.314069 
L 179.289064 54.090038 
L 179.106237 55.34628 
L 179.291639 54.154461 
L 179.474465 56.602522 
L 179.520816 55.732816 
L 179.639267 54.573208 
L 179.654717 54.830899 
L 179.675317 54.895322 
L 179.724242 55.410703 
L 179.796343 55.153012 
L 179.801493 55.249646 
L 179.858143 54.540997 
L 179.878743 54.637631 
L 179.986894 55.08859 
L 180.002344 54.959744 
L 180.02552 54.927533 
L 180.05127 55.120801 
L 180.161996 53.961193 
L 180.290747 54.347729 
L 180.200621 53.703502 
L 180.293322 54.283306 
L 180.295897 54.218884 
L 180.349972 54.702054 
L 180.388598 54.60542 
L 180.401473 54.702054 
L 180.445248 53.993404 
L 180.447823 53.993404 
L 180.483873 53.864559 
L 180.507049 54.154461 
L 180.545674 54.12225 
L 180.581724 54.573208 
L 180.643525 53.993404 
L 180.710475 53.89677 
L 180.733651 54.186672 
L 180.741376 54.090038 
L 180.826351 55.153012 
L 180.885577 54.991956 
L 181.065828 53.864559 
L 180.893302 55.056378 
L 181.078703 53.961193 
L 181.207454 54.798688 
L 181.215179 54.60542 
L 181.33878 53.961193 
L 181.369681 54.025616 
L 181.421181 54.186672 
L 181.454656 53.832348 
L 181.472682 53.832348 
L 181.480407 53.703502 
L 181.529332 54.444363 
L 181.542207 54.347729 
L 181.552507 54.444363 
L 181.663233 55.08859 
L 181.694133 54.86311 
L 181.781684 53.63908 
L 181.858935 54.186672 
L 181.87696 54.251095 
L 181.964511 55.120801 
L 182.003136 54.734265 
L 182.106137 53.961193 
L 182.008286 54.766476 
L 182.139612 54.090038 
L 182.227163 55.442914 
L 182.278663 54.86311 
L 182.510415 53.252544 
L 182.515565 53.284755 
L 182.536165 53.381389 
L 182.636591 54.959744 
L 182.749892 54.702054 
L 182.868343 53.445812 
L 182.930144 53.800136 
L 183.05632 54.798688 
L 183.09752 54.540997 
L 183.197946 53.993404 
L 183.228846 54.283306 
L 183.277771 54.798688 
L 183.329272 54.090038 
L 183.331847 54.090038 
L 183.357597 54.186672 
L 183.378197 54.315518 
L 183.437423 53.606868 
L 183.445148 53.606868 
L 183.447723 53.63908 
L 183.486348 53.091487 
L 183.514673 53.091487 
L 183.548149 53.188121 
L 183.6769 53.478023 
L 183.589349 53.059276 
L 183.679475 53.445812 
L 183.749 53.220332 
L 183.779901 53.63908 
L 183.936977 54.508786 
L 183.823676 53.478023 
L 183.949852 54.37994 
L 183.993627 54.154461 
L 184.050278 54.702054 
L 184.083753 54.959744 
L 184.132678 54.347729 
L 184.145554 54.251095 
L 184.173879 54.025616 
L 184.235679 54.702054 
L 184.256279 54.959744 
L 184.30263 54.412152 
L 184.32323 54.444363 
L 184.33353 54.412152 
L 184.390181 54.86311 
L 184.423656 54.573208 
L 184.451981 54.540997 
L 184.544682 54.86311 
L 184.616782 54.315518 
L 184.657983 54.798688 
L 184.748108 55.82945 
L 184.807334 55.34628 
L 184.96956 53.4136 
L 184.977285 53.316966 
L 185.000461 53.188121 
L 185.041661 53.703502 
L 185.067411 53.574657 
L 185.085436 53.478023 
L 185.098311 53.252544 
L 185.185862 53.767925 
L 185.255388 54.315518 
L 185.319763 54.057827 
L 185.324913 54.154461 
L 185.451089 55.153012 
L 185.49744 54.927533 
L 185.700866 53.63908 
L 185.706016 53.671291 
L 185.834767 54.508786 
L 185.716316 53.574657 
L 185.870818 54.347729 
L 185.973819 53.220332 
L 185.912018 54.476574 
L 186.020169 53.381389 
L 186.14892 54.927533 
L 186.025319 53.349178 
L 186.192695 54.154461 
L 186.241621 53.349178 
L 186.316296 53.832348 
L 186.349772 53.800136 
L 186.473373 53.091487 
L 186.617574 54.347729 
L 186.71285 53.671291 
L 186.746325 53.89677 
L 186.7592 53.961193 
L 186.826151 53.510234 
L 186.839026 53.4136 
L 186.872501 53.123698 
L 186.929151 53.542446 
L 186.949752 53.4136 
L 186.990952 53.220332 
L 187.065627 53.63908 
L 187.209829 52.866008 
L 187.111978 54.025616 
L 187.222704 53.027064 
L 187.37978 54.347729 
L 187.42613 54.186672 
L 187.462181 54.090038 
L 187.580632 52.67274 
L 187.616682 52.994853 
L 187.619257 52.962642 
L 187.673332 53.542446 
L 187.686208 53.510234 
L 187.768608 54.315518 
L 187.693933 53.478023 
L 187.838134 54.025616 
L 187.845859 54.090038 
L 187.912809 54.347729 
L 187.94886 53.89677 
L 188.075036 52.962642 
L 188.082761 52.994853 
L 188.121386 52.898219 
L 188.131686 52.93043 
L 188.293913 52.125147 
L 188.311938 52.221781 
L 188.404638 53.864559 
L 188.474164 53.510234 
L 188.476739 53.542446 
L 188.497339 53.188121 
L 188.572015 53.381389 
L 188.587465 53.284755 
L 188.64669 53.735714 
L 188.656991 53.703502 
L 188.690466 53.864559 
L 188.734241 53.606868 
L 188.765141 53.63908 
L 188.767716 53.478023 
L 188.839817 54.025616 
L 188.873292 53.767925 
L 188.901618 53.671291 
L 189.007193 53.445812 
L 188.981443 53.735714 
L 189.017494 53.606868 
L 189.020069 53.63908 
L 189.079294 53.091487 
L 189.089594 53.123698 
L 189.228645 52.479472 
L 189.23637 52.640528 
L 189.383147 53.63908 
L 189.408897 53.445812 
L 189.475847 52.769374 
L 189.529923 52.962642 
L 189.679274 53.961193 
L 189.537648 52.93043 
L 189.699874 53.767925 
L 189.802875 53.316966 
L 189.8209 53.445812 
L 189.923901 54.412152 
L 189.957376 54.090038 
L 189.965101 54.025616 
L 190.075827 52.67274 
L 190.104152 52.898219 
L 190.178828 53.542446 
L 190.225178 53.15591 
L 190.276679 53.349178 
L 190.325604 53.059276 
L 190.444055 52.866008 
L 190.366805 53.091487 
L 190.449205 52.898219 
L 190.505856 52.67274 
L 190.583106 53.188121 
L 190.593406 53.091487 
L 190.745333 52.382838 
L 190.750483 52.511683 
L 190.848334 53.445812 
L 190.863784 53.4136 
L 190.997685 84.207635 
L 191.252612 95.062855 
L 191.633715 101.923869 
L 191.63629 101.891657 
L 192.022543 105.33827 
L 192.030268 105.370481 
L 192.164169 106.30461 
L 192.166744 106.272399 
L 192.22597 106.78778 
L 192.233695 106.78778 
L 192.455147 108.172867 
L 192.468022 108.269501 
L 192.684324 109.622378 
L 192.692049 109.590166 
L 192.766724 109.91228 
L 192.771874 109.880068 
L 192.90835 110.556506 
L 192.910925 110.459872 
L 193.011351 110.846408 
L 193.021651 110.781986 
L 193.101477 111.104099 
L 193.137527 111.168522 
L 193.258553 111.490635 
L 193.261128 111.426212 
L 193.343529 111.716114 
L 193.361554 111.683903 
L 193.480005 111.973805 
L 193.49288 111.941594 
L 193.541806 112.006016 
L 193.559831 111.941594 
L 193.657682 112.134862 
L 193.740082 112.231496 
L 193.843083 112.424764 
L 193.861108 112.360341 
L 193.940934 112.134862 
L 193.868833 112.392552 
L 193.984709 112.199284 
L 194.007884 112.295918 
L 194.116035 112.58582 
L 194.136636 112.553609 
L 194.159811 112.521398 
L 194.203586 112.682454 
L 194.234486 112.650243 
L 194.347787 112.875722 
L 194.352937 112.843511 
L 194.368387 112.8113 
L 194.450788 112.58582 
L 194.481688 112.682454 
L 194.600139 112.907934 
L 195.120294 112.940145 
L 195.130594 113.06899 
L 195.23102 113.004568 
L 195.30312 113.101202 
L 195.305695 113.133413 
L 195.377796 113.004568 
L 195.406121 113.004568 
L 195.588947 112.907934 
L 195.676498 112.843511 
L 195.596673 112.940145 
L 195.699673 112.907934 
L 195.998376 112.843511 
L 196.018976 112.714666 
L 196.029276 112.907934 
L 196.109102 112.843511 
L 196.111677 112.875722 
L 196.186352 112.58582 
L 196.201802 112.618032 
L 196.235278 112.58582 
L 196.279053 112.746877 
L 196.302228 112.714666 
L 196.304803 112.746877 
L 196.333129 112.618032 
L 196.407804 112.650243 
L 196.48248 112.618032 
L 196.495355 112.746877 
L 196.51338 112.650243 
L 196.580331 112.746877 
L 196.521105 112.618032 
L 196.624106 112.650243 
L 196.652431 112.714666 
L 196.719382 112.489186 
L 196.721957 112.489186 
L 196.739982 112.392552 
L 196.806932 112.070439 
L 196.868733 112.10265 
L 196.976884 112.32813 
L 196.907358 112.070439 
L 196.982034 112.263707 
L 197.146835 112.167073 
L 197.265286 111.941594 
L 197.285886 112.038228 
L 197.363137 112.263707 
L 197.412062 112.231496 
L 197.558839 112.167073 
L 197.66699 111.941594 
L 197.67214 111.973805 
L 197.690165 112.070439 
L 197.710765 111.941594 
L 197.78029 111.941594 
L 197.878141 112.006016 
L 197.963117 112.231496 
L 197.994017 112.199284 
L 198.112468 112.006016 
L 198.001742 112.231496 
L 198.115043 112.038228 
L 198.140793 112.167073 
L 198.207744 111.84496 
L 198.215469 111.909382 
L 198.29272 112.006016 
L 198.33907 112.10265 
L 198.387995 111.909382 
L 198.398296 111.941594 
L 198.490996 111.84496 
L 198.421471 111.973805 
L 198.511596 111.877171 
L 198.547647 111.941594 
L 198.591422 111.748326 
L 198.619747 111.84496 
L 198.733048 111.909382 
L 198.848924 112.070439 
L 199.134752 112.006016 
L 199.137327 111.941594 
L 199.232602 112.070439 
L 199.242902 112.070439 
L 199.250628 112.006016 
L 199.253203 111.941594 
L 199.312428 112.10265 
L 199.361353 112.006016 
L 199.456629 111.748326 
L 199.484954 111.84496 
L 199.52873 111.780537 
L 199.598255 111.587269 
L 199.639456 111.651692 
L 199.642031 111.748326 
L 199.737307 111.426212 
L 199.742457 111.458424 
L 199.832582 111.232944 
L 199.866058 111.297367 
L 199.876358 111.394001 
L 199.933008 111.200733 
L 199.971633 111.265156 
L 200.061759 111.13631 
L 199.979359 111.329578 
L 200.084934 111.200733 
L 200.097809 111.232944 
L 200.198235 111.13631 
L 200.303811 111.200733 
L 200.213685 111.039676 
L 200.308961 111.13631 
L 200.339861 111.232944 
L 200.450587 111.394001 
L 200.352737 111.200733 
L 200.458312 111.36179 
L 200.460887 111.329578 
L 200.530413 111.490635 
L 200.561313 111.458424 
L 200.610239 111.394001 
L 200.702939 111.200733 
L 200.630839 111.458424 
L 200.72354 111.329578 
L 200.960442 111.232944 
L 201.071167 111.007465 
L 201.084043 111.071888 
L 201.125243 111.168522 
L 201.181893 110.910831 
L 201.184468 110.943042 
L 201.297769 111.039676 
L 201.40077 111.200733 
L 201.305494 111.007465 
L 201.41622 111.13631 
L 201.550121 110.846408 
L 201.588747 110.910831 
L 201.622222 110.749774 
L 201.655697 110.781986 
L 201.833374 110.846408 
L 201.856549 110.910831 
L 201.9338 110.749774 
L 201.941525 110.781986 
L 202.02135 110.620929 
L 202.057401 110.717563 
L 202.116626 110.87862 
L 202.150101 110.685352 
L 202.165551 110.717563 
L 202.229927 110.749774 
L 202.289152 110.556506 
L 202.304603 110.588718 
L 202.361253 110.298816 
L 202.381853 110.363238 
L 202.397303 110.298816 
L 202.435929 110.524295 
L 202.487429 110.39545 
L 202.58013 110.427661 
L 202.523479 110.298816 
L 202.593005 110.39545 
L 202.703731 110.298816 
L 202.608455 110.459872 
L 202.706306 110.331027 
L 202.716606 110.266604 
L 202.801582 110.524295 
L 202.806732 110.459872 
L 202.835057 110.65314 
L 202.894282 110.427661 
L 202.917458 110.492084 
L 202.984408 110.459872 
L 202.930333 110.556506 
L 203.023034 110.524295 
L 203.136334 110.685352 
L 203.138909 110.65314 
L 203.285686 110.717563 
L 203.290836 110.685352 
L 203.398987 110.814197 
L 203.401562 110.749774 
L 203.432462 110.910831 
L 203.504562 110.846408 
L 203.597263 110.943042 
L 203.617863 110.910831 
L 203.646189 110.846408 
L 203.707989 111.007465 
L 203.723439 110.943042 
L 203.81614 111.071888 
L 203.84189 111.039676 
L 204.045317 111.13631 
L 204.094242 111.071888 
L 204.161193 111.200733 
L 204.199818 111.13631 
L 204.166343 111.232944 
L 204.269344 111.232944 
L 204.423845 111.297367 
L 204.534571 111.426212 
L 204.537146 111.394001 
L 204.668472 111.426212 
L 204.730273 111.522846 
L 204.753448 111.394001 
L 204.779198 111.426212 
L 204.833273 111.36179 
L 204.895074 111.490635 
L 204.915674 111.522846 
L 205.013525 111.36179 
L 205.095926 111.490635 
L 205.129401 111.426212 
L 205.234977 111.394001 
L 205.152576 111.458424 
L 205.237552 111.426212 
L 205.330252 111.490635 
L 205.247852 111.394001 
L 205.348278 111.458424 
L 205.412653 111.297367 
L 205.464154 111.329578 
L 205.569729 111.490635 
L 205.580029 111.458424 
L 205.819506 111.426212 
L 205.845257 111.458424 
L 205.932807 111.329578 
L 205.950833 111.297367 
L 206.043533 111.426212 
L 206.105334 111.297367 
L 206.156834 111.36179 
L 206.244385 111.458424 
L 206.167134 111.329578 
L 206.270135 111.394001 
L 206.378286 111.265156 
L 206.28301 111.426212 
L 206.386011 111.329578 
L 206.398886 111.394001 
L 206.476137 111.104099 
L 206.478712 111.13631 
L 206.489012 111.071888 
L 206.553387 111.232944 
L 206.584288 111.232944 
L 206.695014 111.13631 
L 206.700164 111.168522 
L 206.834065 110.781986 
L 206.962816 110.717563 
L 207.083842 110.459872 
L 207.109592 110.524295 
L 207.140492 110.363238 
L 207.186843 110.39545 
L 207.222893 110.492084 
L 207.297569 110.331027 
L 207.300144 110.427661 
L 207.390269 110.234393 
L 207.405719 110.298816 
L 207.52932 110.137759 
L 207.691547 110.105548 
L 207.794548 109.880068 
L 207.717297 110.137759 
L 207.807423 109.91228 
L 207.938749 110.16997 
L 207.959349 110.105548 
L 207.995399 110.266604 
L 208.04175 110.266604 
L 208.160201 110.39545 
L 208.170501 110.331027 
L 208.237451 110.524295 
L 208.260627 110.524295 
L 208.270927 110.492084 
L 208.376502 110.65314 
L 208.379077 110.524295 
L 208.433153 110.685352 
L 208.487228 110.65314 
L 208.592804 110.749774 
L 208.494953 110.620929 
L 208.603104 110.717563 
L 208.700955 110.588718 
L 208.71898 110.620929 
L 208.765331 110.781986 
L 208.837431 110.717563 
L 209.066608 110.65314 
L 209.146434 110.298816 
L 209.190209 110.331027 
L 209.692338 110.427661 
L 209.694913 110.588718 
L 209.741264 110.39545 
L 209.803064 110.492084 
L 209.86229 110.39545 
L 209.818514 110.524295 
L 209.91379 110.459872 
L 210.137817 110.39545 
L 210.140392 110.331027 
L 210.171292 110.492084 
L 210.245968 110.459872 
L 210.328368 110.39545 
L 210.318068 110.492084 
L 210.356694 110.427661 
L 210.45712 110.524295 
L 210.47257 110.492084 
L 210.652821 110.556506 
L 210.657971 110.65314 
L 210.686296 110.524295 
L 210.763547 110.588718 
L 210.863973 110.524295 
L 210.848523 110.620929 
L 210.874273 110.556506 
L 210.923198 110.65314 
L 210.982424 110.620929 
L 211.010749 110.65314 
L 211.095725 110.524295 
L 211.178125 110.556506 
L 211.1292 110.459872 
L 211.201301 110.492084 
L 211.301726 110.363238 
L 211.319752 110.39545 
L 211.669954 110.492084 
L 211.77553 110.556506 
L 211.675105 110.427661 
L 211.78068 110.492084 
L 211.834756 110.556506 
L 211.837331 110.620929 
L 211.919732 110.39545 
L 211.940332 110.459872 
L 212.226159 110.524295 
L 212.249334 110.492084 
L 212.342035 110.65314 
L 212.367785 110.588718 
L 212.419286 110.749774 
L 212.447611 110.717563 
L 213.163467 110.685352 
L 213.166042 110.588718 
L 213.217542 110.781986 
L 213.271618 110.717563 
L 213.451869 110.65314 
L 213.552295 110.556506 
L 213.467319 110.685352 
L 213.562595 110.588718 
L 213.717096 110.492084 
L 213.768597 110.427661 
L 213.804647 110.556506 
L 213.825247 110.524295 
L 214.000349 110.588718 
L 214.002924 110.65314 
L 214.038974 110.492084 
L 214.1085 110.588718 
L 214.229526 110.427661 
L 214.335101 110.492084 
L 214.281026 110.39545 
L 214.342826 110.459872 
L 214.494753 110.363238 
L 214.587453 110.266604 
L 214.610629 110.298816 
L 214.623504 110.331027 
L 214.641529 110.202182 
L 214.71878 110.298816 
L 214.793455 110.234393 
L 214.81663 110.363238 
L 214.829505 110.298816 
L 214.868131 110.331027 
L 214.896456 110.137759 
L 214.932506 110.266604 
L 215.048382 110.137759 
L 215.249234 110.105548 
L 215.285284 109.91228 
L 215.362535 110.008914 
L 215.38056 110.073336 
L 215.478411 109.91228 
L 215.483561 109.976702 
L 215.571112 109.751223 
L 215.581412 109.815646 
L 215.728188 109.719012 
L 215.838914 109.590166 
L 215.733338 109.751223 
L 215.846639 109.622378 
L 216.168516 109.719012 
L 216.171091 109.751223 
L 216.253492 109.590166 
L 216.271517 109.654589 
L 216.387393 109.590166 
L 216.428594 109.654589 
L 216.541894 109.783434 
L 216.61142 109.719012 
L 216.644895 109.91228 
L 216.650045 109.847857 
L 216.753046 109.944491 
L 216.65777 109.815646 
L 216.763346 109.880068 
L 216.889522 109.815646 
L 216.922998 109.880068 
L 217.002823 109.719012 
L 217.062049 109.815646 
L 217.025998 109.6868 
L 217.110974 109.751223 
L 217.131574 109.6868 
L 217.198525 109.880068 
L 217.21655 109.815646 
L 217.301526 109.880068 
L 217.278351 109.751223 
L 217.327276 109.847857 
L 217.378776 109.783434 
L 217.409677 109.91228 
L 217.435427 109.815646 
L 217.443152 109.91228 
L 217.456027 109.783434 
L 217.546153 109.847857 
L 217.84743 109.815646 
L 217.940131 109.719012 
L 217.896356 109.847857 
L 217.958156 109.751223 
L 217.981331 109.6868 
L 218.079182 109.880068 
L 218.151283 109.944491 
L 218.179608 110.008914 
L 218.174458 109.91228 
L 218.262009 109.944491 
L 218.40621 110.041125 
L 218.41136 110.073336 
L 218.449985 109.944491 
L 218.509211 109.976702 
L 218.519511 110.008914 
L 218.622512 109.91228 
L 218.697187 109.815646 
L 218.813063 109.6868 
L 218.758988 109.91228 
L 218.815638 109.719012 
L 218.838813 109.783434 
L 218.885164 109.622378 
L 218.923789 109.751223 
L 219.03194 109.622378 
L 219.034515 109.654589 
L 219.142666 109.751223 
L 219.049965 109.622378 
L 219.150391 109.719012 
L 219.214766 109.654589 
L 219.255967 109.590166 
L 219.227642 109.719012 
L 219.322917 109.654589 
L 219.420768 109.751223 
L 219.330642 109.622378 
L 219.433643 109.654589 
L 219.619045 109.751223 
L 219.62677 109.815646 
L 219.649945 109.6868 
L 219.724621 109.719012 
L 219.773546 109.622378 
L 219.729771 109.751223 
L 219.837922 109.654589 
L 219.917747 109.719012 
L 219.943497 109.590166 
L 219.948647 109.654589 
L 220.023323 109.557955 
L 220.072248 109.364687 
L 220.139199 109.493532 
L 220.373526 109.557955 
L 220.481677 109.6868 
L 220.383826 109.525744 
L 220.486827 109.654589 
L 220.566653 109.557955 
L 220.669653 109.461321 
L 220.594978 109.590166 
L 220.679953 109.525744 
L 220.764929 109.461321 
L 220.83188 109.396898 
L 220.855055 109.525744 
L 220.875655 109.42911 
L 220.885955 109.396898 
L 220.991531 109.525744 
L 221.107407 109.396898 
L 221.109982 109.42911 
L 221.184658 109.493532 
L 221.164057 109.364687 
L 221.220708 109.42911 
L 221.668762 109.525744 
L 221.748587 109.654589 
L 221.681637 109.493532 
L 221.784638 109.622378 
L 221.859313 109.6868 
L 221.897938 109.590166 
L 222.000939 109.719012 
L 222.008664 109.6868 
L 222.06274 109.590166 
L 222.07819 109.719012 
L 222.11939 109.654589 
L 222.191491 109.751223 
L 222.250716 109.847857 
L 222.230116 109.6868 
L 222.299642 109.751223 
L 222.407793 109.6868 
L 222.412943 109.719012 
L 222.518519 109.783434 
L 222.588044 109.976702 
L 222.631819 109.91228 
L 222.711645 109.847857 
L 222.65757 109.976702 
L 222.742545 109.91228 
L 222.776021 109.944491 
L 222.830096 109.751223 
L 222.845546 109.815646 
L 222.920222 109.783434 
L 222.894472 109.880068 
L 222.951122 109.847857 
L 223.059273 110.008914 
L 223.012923 109.783434 
L 223.064423 109.91228 
L 223.066998 109.944491 
L 223.087598 109.815646 
L 223.172574 109.880068 
L 223.677278 109.880068 
L 223.731354 110.041125 
L 223.790579 110.008914 
L 223.87813 109.880068 
L 223.906455 109.944491 
L 223.986281 109.847857 
L 224.001731 109.880068 
L 224.107307 109.6868 
L 224.189707 109.815646 
L 224.220608 109.751223 
L 224.313308 109.783434 
L 224.243783 109.6868 
L 224.326183 109.719012 
L 224.354509 109.654589 
L 224.395709 109.815646 
L 224.431759 109.751223 
L 224.542485 109.847857 
L 224.480685 109.719012 
L 224.54506 109.783434 
L 224.998264 109.6868 
L 225.003414 109.751223 
L 225.10899 109.622378 
L 225.219716 109.719012 
L 225.206841 109.590166 
L 225.222291 109.6868 
L 225.322717 109.622378 
L 225.235166 109.719012 
L 225.333017 109.6868 
L 225.412842 109.590166 
L 225.472068 109.525744 
L 225.513268 109.654589 
L 225.520993 109.622378 
L 225.835146 109.557955 
L 225.909821 109.590166 
L 225.945872 109.493532 
L 226.012822 109.590166 
L 226.051448 109.42911 
L 226.072048 109.525744 
L 226.175049 109.622378 
L 226.079773 109.493532 
L 226.185349 109.557955 
L 226.190499 109.590166 
L 226.3038 109.461321 
L 226.3656 109.557955 
L 226.342425 109.42911 
L 226.417101 109.493532 
L 226.427401 109.396898 
L 226.466026 109.557955 
L 226.532977 109.42911 
L 226.720953 109.493532 
L 226.736403 109.590166 
L 226.741553 109.461321 
L 226.831679 109.493532 
L 226.852279 109.557955 
L 226.839404 109.461321 
L 226.94498 109.525744 
L 227.163857 109.525744 
L 227.264283 109.396898 
L 227.274583 109.42911 
L 227.277158 109.461321 
L 227.295183 109.300264 
L 227.380158 109.364687 
L 227.51406 109.461321 
L 227.619635 109.493532 
L 227.53981 109.396898 
L 227.624785 109.461321 
L 227.702036 109.396898 
L 227.658261 109.493532 
L 227.738086 109.42911 
L 228.592993 109.525744 
L 228.598143 109.557955 
L 228.683119 109.300264 
L 228.688269 109.364687 
L 228.814445 108.817094 
L 228.81702 108.849305 
L 228.819595 108.881517 
L 228.894271 108.656037 
L 228.917446 108.72046 
L 228.956071 108.752671 
L 229.038472 108.591615 
L 229.144048 108.72046 
L 229.151773 108.656037 
L 229.164648 108.688249 
L 229.270224 108.430558 
L 229.293399 108.333924 
L 229.43245 107.979599 
L 229.4479 108.044022 
L 229.491676 107.915177 
L 229.543176 108.011811 
L 229.648752 107.947388 
L 229.656477 107.979599 
L 229.913979 108.044022 
L 229.916554 108.108445 
L 229.968055 107.947388 
L 230.02213 108.044022 
L 230.035005 108.011811 
L 230.104531 108.172867 
L 230.125131 108.140656 
L 230.215257 108.205079 
L 230.331133 108.430558 
L 230.338858 108.366135 
L 230.392933 108.559403 
L 230.434134 108.559403 
L 230.439284 108.527192 
L 230.56031 108.784883 
L 230.609235 108.72046 
L 230.645285 108.849305 
L 230.671035 108.784883 
L 230.954288 108.688249 
L 231.059864 108.333924 
L 231.088189 108.366135 
L 231.17059 108.494981 
L 231.111364 108.333924 
L 231.198915 108.430558 
L 231.20149 108.366135 
L 231.276165 108.591615 
L 231.301916 108.559403 
L 231.420367 108.72046 
L 231.456417 108.623826 
L 231.448692 108.752671 
L 231.528518 108.72046 
L 231.634093 108.849305 
L 231.641818 108.784883 
L 231.747394 108.688249 
L 231.652119 108.817094 
L 231.757694 108.72046 
L 231.778295 108.913728 
L 231.77057 108.688249 
L 231.870995 108.817094 
L 231.87357 108.72046 
L 231.937946 108.913728 
L 231.979146 108.849305 
L 232.004896 108.913728 
L 232.107897 109.106996 
L 232.120772 109.074785 
L 232.270124 109.139207 
L 232.373124 109.268053 
L 232.383425 109.20363 
L 232.509601 109.300264 
L 232.512176 109.332476 
L 232.537926 109.20363 
L 232.620326 109.300264 
L 232.684702 109.235841 
L 232.700152 109.364687 
L 232.725902 109.364687 
L 232.779978 109.396898 
L 232.893279 109.557955 
L 233.884662 109.654589 
L 233.892387 109.6868 
L 233.982513 109.525744 
L 233.990238 109.622378 
L 234.093239 109.525744 
L 234.046888 109.654589 
L 234.103539 109.557955 
L 234.196239 109.590166 
L 234.160189 109.461321 
L 234.209115 109.525744 
L 234.317265 109.42911 
L 234.22199 109.557955 
L 234.322415 109.493532 
L 234.394516 109.396898 
L 234.402241 109.42911 
L 234.512967 109.300264 
L 234.536142 109.396898 
L 234.559317 109.268053 
L 234.621118 109.300264 
L 234.654593 109.20363 
L 234.677768 109.364687 
L 234.731844 109.300264 
L 234.744719 109.364687 
L 234.81682 109.171419 
L 234.83742 109.235841 
L 234.912095 109.139207 
L 234.940421 109.300264 
L 234.945571 109.235841 
L 234.989346 109.171419 
L 235.061447 109.300264 
L 235.130972 109.139207 
L 235.179898 109.171419 
L 235.221098 109.235841 
L 235.244273 109.106996 
L 235.293198 109.20363 
L 235.759277 109.106996 
L 235.769577 109.139207 
L 235.880303 108.978151 
L 236.03223 108.881517 
L 236.10948 108.817094 
L 236.04253 108.913728 
L 236.14553 108.849305 
L 236.199606 108.913728 
L 236.153256 108.817094 
L 236.251106 108.849305 
L 236.356682 108.688249 
L 236.261406 108.881517 
L 236.364407 108.752671 
L 236.469983 108.72046 
L 236.436508 108.817094 
L 236.475133 108.752671 
L 236.583284 108.849305 
L 236.518909 108.72046 
L 236.591009 108.817094 
L 236.596159 108.849305 
L 236.706885 108.688249 
L 236.807311 108.881517 
L 236.820186 108.849305 
L 237.023613 108.913728 
L 237.031338 109.010362 
L 237.064813 108.881517 
L 237.134339 108.945939 
L 237.221889 108.881517 
L 237.281115 108.784883 
L 237.332615 108.817094 
L 237.425316 108.913728 
L 237.445916 108.849305 
L 237.536042 108.784883 
L 237.605567 108.688249 
L 237.546342 108.849305 
L 237.646768 108.784883 
L 237.682818 108.688249 
L 237.713718 108.817094 
L 237.754919 108.817094 
L 238.022721 108.913728 
L 238.043321 108.978151 
L 238.074221 108.817094 
L 238.130872 108.913728 
L 238.239023 108.817094 
L 238.244173 108.849305 
L 238.318848 108.913728 
L 238.290523 108.817094 
L 238.349749 108.817094 
L 238.470775 108.623826 
L 238.362624 108.849305 
L 238.47335 108.656037 
L 238.53515 108.656037 
L 238.622701 108.494981 
L 238.645876 108.527192 
L 238.705101 108.656037 
L 238.761752 108.591615 
L 238.851878 108.527192 
L 238.864753 108.656037 
L 238.869903 108.591615 
L 238.970329 108.784883 
L 238.993504 108.752671 
L 239.122255 108.817094 
L 239.207231 108.913728 
L 239.178905 108.784883 
L 239.232981 108.849305 
L 239.325682 108.752671 
L 239.328257 108.72046 
L 239.359157 108.881517 
L 239.431257 108.817094 
L 239.464733 108.913728 
L 239.493058 108.784883 
L 239.541983 108.817094 
L 240.283589 108.752671 
L 240.288739 108.688249 
L 240.29904 108.817094 
L 240.394315 108.752671 
L 240.458691 108.72046 
L 240.427791 108.817094 
L 240.505041 108.752671 
L 241.184847 108.688249 
L 241.295573 108.527192 
L 241.300723 108.559403 
L 241.5196 108.623826 
L 241.630325 108.752671 
L 241.53505 108.591615 
L 241.6329 108.688249 
L 241.681826 108.656037 
L 241.666376 108.752671 
L 241.738476 108.72046 
L 241.746201 108.752671 
L 241.777102 108.623826 
L 241.846627 108.688249 
L 242.462057 108.784883 
L 242.565058 108.817094 
L 242.467207 108.752671 
L 242.570208 108.784883 
L 242.572783 108.752671 
L 242.601108 108.881517 
L 242.675784 108.817094 
L 242.79681 108.978151 
L 242.840585 108.849305 
L 242.907536 108.913728 
L 242.951311 108.978151 
L 243.002812 108.849305 
L 243.013112 108.849305 
L 243.741843 108.913728 
L 243.842269 108.978151 
L 243.777893 108.849305 
L 243.852569 108.945939 
L 243.968445 108.881517 
L 244.014795 108.849305 
L 244.081746 109.010362 
L 244.094621 108.945939 
L 244.097196 109.042573 
L 244.187321 109.010362 
L 244.295472 109.074785 
L 244.218222 108.978151 
L 244.298047 109.042573 
L 244.300622 109.010362 
L 244.352123 109.171419 
L 244.406198 109.074785 
L 244.519499 109.20363 
L 244.470574 109.042573 
L 244.522074 109.171419 
L 244.550399 109.074785 
L 244.614775 109.235841 
L 244.630225 109.20363 
L 244.650825 109.235841 
L 244.715201 109.106996 
L 244.733226 109.106996 
L 244.838802 109.042573 
L 244.949528 108.945939 
L 244.864552 109.074785 
L 244.952103 108.978151 
L 245.78641 108.913728 
L 245.788985 108.849305 
L 245.83791 109.010362 
L 245.891985 108.978151 
L 245.925461 109.010362 
L 245.953786 108.913728 
L 246.000136 108.945939 
L 246.007861 108.913728 
L 246.090262 109.074785 
L 246.105712 109.010362 
L 246.139187 109.106996 
L 246.121162 108.978151 
L 246.219013 109.074785 
L 246.283389 108.945939 
L 246.337464 108.978151 
L 246.45334 109.106996 
L 246.739167 109.20363 
L 246.757193 109.139207 
L 246.852468 109.235841 
L 246.929719 109.20363 
L 246.942594 109.074785 
L 247.014695 109.268053 
L 247.040445 109.20363 
L 247.102245 109.300264 
L 247.107395 109.364687 
L 247.146021 109.171419 
L 247.202671 109.235841 
L 247.264472 109.171419 
L 247.272197 109.268053 
L 247.313397 109.235841 
L 248.008653 109.171419 
L 248.096204 109.106996 
L 248.111654 109.235841 
L 248.119379 109.139207 
L 248.394906 109.042573 
L 248.425806 109.010362 
L 248.490182 109.171419 
L 248.497907 109.074785 
L 248.588033 109.139207 
L 248.523657 109.042573 
L 248.608633 109.106996 
L 248.716784 109.074785 
L 248.765709 108.945939 
L 248.830085 108.978151 
L 248.88931 109.074785 
L 248.943386 109.042573 
L 249.334789 109.106996 
L 249.43779 109.171419 
L 249.383714 109.042573 
L 249.445515 109.106996 
L 249.551091 109.171419 
L 249.46354 109.074785 
L 249.556241 109.106996 
L 250.030044 109.171419 
L 250.086695 109.139207 
L 250.143345 109.268053 
L 250.238621 109.20363 
L 250.174246 109.300264 
L 250.254071 109.235841 
L 250.284972 109.364687 
L 250.362222 109.171419 
L 250.364797 109.268053 
L 250.910702 109.364687 
L 251.013703 109.396898 
L 250.933877 109.268053 
L 251.021428 109.364687 
L 252.659141 109.300264 
L 252.736392 109.235841 
L 252.692616 109.332476 
L 252.767292 109.332476 
L 253.367272 109.332476 
L 253.369847 109.20363 
L 253.470273 109.42911 
L 253.475423 109.364687 
L 253.511473 109.332476 
L 253.588724 109.461321 
L 253.611899 109.525744 
L 253.702025 109.396898 
L 253.815326 109.525744 
L 253.820476 109.493532 
L 253.918326 109.364687 
L 253.830776 109.525744 
L 253.938927 109.396898 
L 254.137203 109.332476 
L 254.245354 109.20363 
L 254.247929 109.268053 
L 254.35608 109.364687 
L 254.263379 109.20363 
L 254.36123 109.300264 
L 254.459081 109.396898 
L 254.479681 109.461321 
L 254.502856 109.332476 
L 254.567232 109.396898 
L 254.680533 109.300264 
L 254.683108 109.332476 
L 254.706283 109.396898 
L 254.688258 109.268053 
L 254.721733 109.332476 
" clip-path="url(#p9293a4f8da)" style="fill: none; stroke: #000000; stroke-opacity: 0.5; stroke-width: 1.5; stroke-linecap: square"/>
   </g>
   <g id="patch_3">
    <path d="M 41.667188 173.52 
L 41.667188 7.2 
" style="fill: none; stroke: #000000; stroke-width: 0.8; stroke-linejoin: miter; stroke-linecap: square"/>
   </g>
   <g id="patch_4">
    <path d="M 41.667188 173.52 
L 264.867187 173.52 
" style="fill: none; stroke: #000000; stroke-width: 0.8; stroke-linejoin: miter; stroke-linecap: square"/>
   </g>
  </g>
 </g>
 <defs>
  <clipPath id="p9293a4f8da">
   <rect x="41.667188" y="7.2" width="223.2" height="166.32"/>
  </clipPath>
 </defs>
</svg>
