<?xml version="1.0" encoding="utf-8" standalone="no"?>
<!DOCTYPE svg PUBLIC "-//W3C//DTD SVG 1.1//EN"
  "http://www.w3.org/Graphics/SVG/1.1/DTD/svg11.dtd">
<svg xmlns:xlink="http://www.w3.org/1999/xlink" width="265.704687pt" height="197.398125pt" viewBox="0 0 265.704687 197.398125" xmlns="http://www.w3.org/2000/svg" version="1.1">
 <metadata>
  <rdf:RDF xmlns:dc="http://purl.org/dc/elements/1.1/" xmlns:cc="http://creativecommons.org/ns#" xmlns:rdf="http://www.w3.org/1999/02/22-rdf-syntax-ns#">
   <cc:Work>
    <dc:type rdf:resource="http://purl.org/dc/dcmitype/StillImage"/>
    <dc:date>2025-12-19T12:18:04.525850</dc:date>
    <dc:format>image/svg+xml</dc:format>
    <dc:creator>
     <cc:Agent>
      <dc:title>Matplotlib v3.10.7, https://matplotlib.org/</dc:title>
     </cc:Agent>
    </dc:creator>
   </cc:Work>
  </rdf:RDF>
 </metadata>
 <defs>
  <style type="text/css">*{stroke-linejoin: round; stroke-linecap: butt}</style>
 </defs>
 <g id="figure_1">
  <g id="patch_1">
   <path d="M 0 197.398125 
L 265.704687 197.398125 
L 265.704687 0 
L 0 0 
z
" style="fill: #ffffff"/>
  </g>
  <g id="axes_1">
   <g id="patch_2">
    <path d="M 35.304688 173.52 
L 258.504687 173.52 
L 258.504687 7.2 
L 35.304688 7.2 
z
" style="fill: #ffffff"/>
   </g>
   <g id="matplotlib.axis_1">
    <g id="xtick_1">
     <g id="line2d_1">
      <defs>
       <path id="m65433893b1" d="M 0 0 
L 0 3.5 
" style="stroke: #000000; stroke-width: 0.8"/>
      </defs>
      <g>
       <use xlink:href="#m65433893b1" x="76.350396" y="173.52" style="stroke: #000000; stroke-width: 0.8"/>
      </g>
     </g>
     <g id="text_1">
      <!-- 1 -->
      <g transform="translate(73.169146 188.118438) scale(0.1 -0.1)">
       <defs>
        <path id="DejaVuSans-31" d="M 794 531 
L 1825 531 
L 1825 4091 
L 703 3866 
L 703 4441 
L 1819 4666 
L 2450 4666 
L 2450 531 
L 3481 531 
L 3481 0 
L 794 0 
L 794 531 
z
" transform="scale(0.015625)"/>
       </defs>
       <use xlink:href="#DejaVuSans-31"/>
      </g>
     </g>
    </g>
    <g id="xtick_2">
     <g id="line2d_2">
      <g>
       <use xlink:href="#m65433893b1" x="127.850819" y="173.52" style="stroke: #000000; stroke-width: 0.8"/>
      </g>
     </g>
     <g id="text_2">
      <!-- 2 -->
      <g transform="translate(124.669569 188.118438) scale(0.1 -0.1)">
       <defs>
        <path id="DejaVuSans-32" d="M 1228 531 
L 3431 531 
L 3431 0 
L 469 0 
L 469 531 
Q 828 903 1448 1529 
Q 2069 2156 2228 2338 
Q 2531 2678 2651 2914 
Q 2772 3150 2772 3378 
Q 2772 3750 2511 3984 
Q 2250 4219 1831 4219 
Q 1534 4219 1204 4116 
Q 875 4013 500 3803 
L 500 4441 
Q 881 4594 1212 4672 
Q 1544 4750 1819 4750 
Q 2544 4750 2975 4387 
Q 3406 4025 3406 3419 
Q 3406 3131 3298 2873 
Q 3191 2616 2906 2266 
Q 2828 2175 2409 1742 
Q 1991 1309 1228 531 
z
" transform="scale(0.015625)"/>
       </defs>
       <use xlink:href="#DejaVuSans-32"/>
      </g>
     </g>
    </g>
    <g id="xtick_3">
     <g id="line2d_3">
      <g>
       <use xlink:href="#m65433893b1" x="179.351241" y="173.52" style="stroke: #000000; stroke-width: 0.8"/>
      </g>
     </g>
     <g id="text_3">
      <!-- 3 -->
      <g transform="translate(176.169991 188.118438) scale(0.1 -0.1)">
       <defs>
        <path id="DejaVuSans-33" d="M 2597 2516 
Q 3050 2419 3304 2112 
Q 3559 1806 3559 1356 
Q 3559 666 3084 287 
Q 2609 -91 1734 -91 
Q 1441 -91 1130 -33 
Q 819 25 488 141 
L 488 750 
Q 750 597 1062 519 
Q 1375 441 1716 441 
Q 2309 441 2620 675 
Q 2931 909 2931 1356 
Q 2931 1769 2642 2001 
Q 2353 2234 1838 2234 
L 1294 2234 
L 1294 2753 
L 1863 2753 
Q 2328 2753 2575 2939 
Q 2822 3125 2822 3475 
Q 2822 3834 2567 4026 
Q 2313 4219 1838 4219 
Q 1578 4219 1281 4162 
Q 984 4106 628 3988 
L 628 4550 
Q 988 4650 1302 4700 
Q 1616 4750 1894 4750 
Q 2613 4750 3031 4423 
Q 3450 4097 3450 3541 
Q 3450 3153 3228 2886 
Q 3006 2619 2597 2516 
z
" transform="scale(0.015625)"/>
       </defs>
       <use xlink:href="#DejaVuSans-33"/>
      </g>
     </g>
    </g>
    <g id="xtick_4">
     <g id="line2d_4">
      <g>
       <use xlink:href="#m65433893b1" x="230.851664" y="173.52" style="stroke: #000000; stroke-width: 0.8"/>
      </g>
     </g>
     <g id="text_4">
      <!-- 4 -->
      <g transform="translate(227.670414 188.118438) scale(0.1 -0.1)">
       <defs>
        <path id="DejaVuSans-34" d="M 2419 4116 
L 825 1625 
L 2419 1625 
L 2419 4116 
z
M 2253 4666 
L 3047 4666 
L 3047 1625 
L 3713 1625 
L 3713 1100 
L 3047 1100 
L 3047 0 
L 2419 0 
L 2419 1100 
L 313 1100 
L 313 1709 
L 2253 4666 
z
" transform="scale(0.015625)"/>
       </defs>
       <use xlink:href="#DejaVuSans-34"/>
      </g>
     </g>
    </g>
   </g>
   <g id="matplotlib.axis_2">
    <g id="ytick_1">
     <g id="line2d_5">
      <defs>
       <path id="m57a173824b" d="M 0 0 
L -3.5 0 
" style="stroke: #000000; stroke-width: 0.8"/>
      </defs>
      <g>
       <use xlink:href="#m57a173824b" x="35.304688" y="156.007157" style="stroke: #000000; stroke-width: 0.8"/>
      </g>
     </g>
     <g id="text_5">
      <!-- −80 -->
      <g transform="translate(7.2 159.806376) scale(0.1 -0.1)">
       <defs>
        <path id="DejaVuSans-2212" d="M 678 2272 
L 4684 2272 
L 4684 1741 
L 678 1741 
L 678 2272 
z
" transform="scale(0.015625)"/>
        <path id="DejaVuSans-38" d="M 2034 2216 
Q 1584 2216 1326 1975 
Q 1069 1734 1069 1313 
Q 1069 891 1326 650 
Q 1584 409 2034 409 
Q 2484 409 2743 651 
Q 3003 894 3003 1313 
Q 3003 1734 2745 1975 
Q 2488 2216 2034 2216 
z
M 1403 2484 
Q 997 2584 770 2862 
Q 544 3141 544 3541 
Q 544 4100 942 4425 
Q 1341 4750 2034 4750 
Q 2731 4750 3128 4425 
Q 3525 4100 3525 3541 
Q 3525 3141 3298 2862 
Q 3072 2584 2669 2484 
Q 3125 2378 3379 2068 
Q 3634 1759 3634 1313 
Q 3634 634 3220 271 
Q 2806 -91 2034 -91 
Q 1263 -91 848 271 
Q 434 634 434 1313 
Q 434 1759 690 2068 
Q 947 2378 1403 2484 
z
M 1172 3481 
Q 1172 3119 1398 2916 
Q 1625 2713 2034 2713 
Q 2441 2713 2670 2916 
Q 2900 3119 2900 3481 
Q 2900 3844 2670 4047 
Q 2441 4250 2034 4250 
Q 1625 4250 1398 4047 
Q 1172 3844 1172 3481 
z
" transform="scale(0.015625)"/>
        <path id="DejaVuSans-30" d="M 2034 4250 
Q 1547 4250 1301 3770 
Q 1056 3291 1056 2328 
Q 1056 1369 1301 889 
Q 1547 409 2034 409 
Q 2525 409 2770 889 
Q 3016 1369 3016 2328 
Q 3016 3291 2770 3770 
Q 2525 4250 2034 4250 
z
M 2034 4750 
Q 2819 4750 3233 4129 
Q 3647 3509 3647 2328 
Q 3647 1150 3233 529 
Q 2819 -91 2034 -91 
Q 1250 -91 836 529 
Q 422 1150 422 2328 
Q 422 3509 836 4129 
Q 1250 4750 2034 4750 
z
" transform="scale(0.015625)"/>
       </defs>
       <use xlink:href="#DejaVuSans-2212"/>
       <use xlink:href="#DejaVuSans-38" transform="translate(83.789062 0)"/>
       <use xlink:href="#DejaVuSans-30" transform="translate(147.412109 0)"/>
      </g>
     </g>
    </g>
    <g id="ytick_2">
     <g id="line2d_6">
      <g>
       <use xlink:href="#m57a173824b" x="35.304688" y="134.305355" style="stroke: #000000; stroke-width: 0.8"/>
      </g>
     </g>
     <g id="text_6">
      <!-- −60 -->
      <g transform="translate(7.2 138.104573) scale(0.1 -0.1)">
       <defs>
        <path id="DejaVuSans-36" d="M 2113 2584 
Q 1688 2584 1439 2293 
Q 1191 2003 1191 1497 
Q 1191 994 1439 701 
Q 1688 409 2113 409 
Q 2538 409 2786 701 
Q 3034 994 3034 1497 
Q 3034 2003 2786 2293 
Q 2538 2584 2113 2584 
z
M 3366 4563 
L 3366 3988 
Q 3128 4100 2886 4159 
Q 2644 4219 2406 4219 
Q 1781 4219 1451 3797 
Q 1122 3375 1075 2522 
Q 1259 2794 1537 2939 
Q 1816 3084 2150 3084 
Q 2853 3084 3261 2657 
Q 3669 2231 3669 1497 
Q 3669 778 3244 343 
Q 2819 -91 2113 -91 
Q 1303 -91 875 529 
Q 447 1150 447 2328 
Q 447 3434 972 4092 
Q 1497 4750 2381 4750 
Q 2619 4750 2861 4703 
Q 3103 4656 3366 4563 
z
" transform="scale(0.015625)"/>
       </defs>
       <use xlink:href="#DejaVuSans-2212"/>
       <use xlink:href="#DejaVuSans-36" transform="translate(83.789062 0)"/>
       <use xlink:href="#DejaVuSans-30" transform="translate(147.412109 0)"/>
      </g>
     </g>
    </g>
    <g id="ytick_3">
     <g id="line2d_7">
      <g>
       <use xlink:href="#m57a173824b" x="35.304688" y="112.603552" style="stroke: #000000; stroke-width: 0.8"/>
      </g>
     </g>
     <g id="text_7">
      <!-- −40 -->
      <g transform="translate(7.2 116.402771) scale(0.1 -0.1)">
       <use xlink:href="#DejaVuSans-2212"/>
       <use xlink:href="#DejaVuSans-34" transform="translate(83.789062 0)"/>
       <use xlink:href="#DejaVuSans-30" transform="translate(147.412109 0)"/>
      </g>
     </g>
    </g>
    <g id="ytick_4">
     <g id="line2d_8">
      <g>
       <use xlink:href="#m57a173824b" x="35.304688" y="90.90175" style="stroke: #000000; stroke-width: 0.8"/>
      </g>
     </g>
     <g id="text_8">
      <!-- −20 -->
      <g transform="translate(7.2 94.700969) scale(0.1 -0.1)">
       <use xlink:href="#DejaVuSans-2212"/>
       <use xlink:href="#DejaVuSans-32" transform="translate(83.789062 0)"/>
       <use xlink:href="#DejaVuSans-30" transform="translate(147.412109 0)"/>
      </g>
     </g>
    </g>
    <g id="ytick_5">
     <g id="line2d_9">
      <g>
       <use xlink:href="#m57a173824b" x="35.304688" y="69.199947" style="stroke: #000000; stroke-width: 0.8"/>
      </g>
     </g>
     <g id="text_9">
      <!-- 0 -->
      <g transform="translate(21.942187 72.999166) scale(0.1 -0.1)">
       <use xlink:href="#DejaVuSans-30"/>
      </g>
     </g>
    </g>
    <g id="ytick_6">
     <g id="line2d_10">
      <g>
       <use xlink:href="#m57a173824b" x="35.304688" y="47.498145" style="stroke: #000000; stroke-width: 0.8"/>
      </g>
     </g>
     <g id="text_10">
      <!-- 20 -->
      <g transform="translate(15.579687 51.297364) scale(0.1 -0.1)">
       <use xlink:href="#DejaVuSans-32"/>
       <use xlink:href="#DejaVuSans-30" transform="translate(63.623047 0)"/>
      </g>
     </g>
    </g>
    <g id="ytick_7">
     <g id="line2d_11">
      <g>
       <use xlink:href="#m57a173824b" x="35.304688" y="25.796343" style="stroke: #000000; stroke-width: 0.8"/>
      </g>
     </g>
     <g id="text_11">
      <!-- 40 -->
      <g transform="translate(15.579687 29.595561) scale(0.1 -0.1)">
       <use xlink:href="#DejaVuSans-34"/>
       <use xlink:href="#DejaVuSans-30" transform="translate(63.623047 0)"/>
      </g>
     </g>
    </g>
   </g>
   <g id="line2d_12">
    <path d="M 45.450142 141.289829 
L 45.514518 141.190486 
L 45.563443 141.322943 
L 45.681894 141.157372 
L 45.573743 141.356058 
L 45.684469 141.190486 
L 46.232948 141.124258 
L 46.343674 140.9918 
L 46.238099 141.157372 
L 46.346249 141.024915 
L 46.523926 140.958686 
L 46.593451 140.859343 
L 46.606327 141.024915 
L 46.634652 140.925572 
L 46.647527 140.892457 
L 46.753103 141.024915 
L 47.00803 140.925572 
L 47.103306 140.892457 
L 47.100731 141.024915 
L 47.116181 140.958686 
L 47.221757 141.091143 
L 47.232057 141.024915 
L 48.045763 140.925572 
L 48.151339 140.793114 
L 48.161639 140.859343 
L 48.21314 140.76 
L 48.25434 140.793114 
L 48.336741 140.594428 
L 48.653468 140.693771 
L 48.735869 140.76 
L 48.666343 140.627543 
L 48.764194 140.693771 
L 48.87492 140.594428 
L 48.771919 140.726886 
L 48.88007 140.627543 
L 48.928996 140.660657 
L 48.972771 140.5282 
L 48.985646 140.561314 
L 49.044872 140.495085 
L 49.013971 140.627543 
L 49.093797 140.594428 
L 49.240573 140.660657 
L 49.261173 140.726886 
L 49.307524 140.561314 
L 49.351299 140.693771 
L 49.369324 140.594428 
L 49.359024 140.726886 
L 49.4646 140.660657 
L 49.817378 140.561314 
L 49.925529 140.5282 
L 49.899779 140.627543 
L 49.928104 140.561314 
L 50.494608 140.561314 
L 50.564134 140.428857 
L 50.600184 140.561314 
L 50.73666 145.627806 
L 51.364966 152.316899 
L 51.375266 152.283784 
L 51.437066 152.747385 
L 51.442216 152.747385 
L 51.604443 153.575243 
L 51.614743 153.542129 
L 51.617318 153.509014 
L 51.691993 153.939501 
L 51.694568 153.939501 
L 51.712593 154.005729 
L 51.84392 154.70113 
L 51.717744 153.972615 
L 51.84907 154.668016 
L 52.006146 155.264074 
L 52.011296 155.230959 
L 52.091122 155.46276 
L 52.098847 155.429645 
L 52.214723 155.760788 
L 52.217298 155.69456 
L 52.307423 156.058817 
L 52.315148 156.025703 
L 52.348624 156.058817 
L 52.4645 156.356846 
L 52.518575 156.456189 
L 52.649901 156.754218 
L 52.722002 156.721104 
L 52.745177 156.886675 
L 52.755477 156.820447 
L 52.837878 157.052247 
L 52.879078 156.986018 
L 52.969204 157.085361 
L 53.000104 157.052247 
L 53.09023 157.217819 
L 53.123705 157.15159 
L 53.17778 157.350276 
L 53.190656 157.317162 
L 53.200956 157.250933 
L 53.303957 157.38339 
L 53.358032 157.284047 
L 53.388932 157.416505 
L 53.414682 157.317162 
L 53.527983 157.515848 
L 53.535708 157.449619 
L 53.569184 157.482733 
L 53.571759 157.582076 
L 53.594934 157.449619 
L 53.67991 157.482733 
L 53.74171 157.582076 
L 53.831836 157.648305 
L 53.749435 157.515848 
L 53.849861 157.582076 
L 53.939987 157.515848 
L 53.919387 157.648305 
L 53.960587 157.548962 
L 53.996637 157.681419 
L 53.976037 157.515848 
L 54.073888 157.582076 
L 54.076463 157.515848 
L 54.145988 157.681419 
L 54.182039 157.615191 
L 54.27989 157.714534 
L 54.287615 157.615191 
L 54.395765 157.780762 
L 54.434391 157.747648 
L 54.485891 157.913219 
L 54.496191 157.880105 
L 54.619792 158.045677 
L 54.699618 158.111905 
L 54.789744 158.211248 
L 54.810344 158.111905 
L 54.854119 158.012562 
L 54.959695 157.813876 
L 54.872144 158.078791 
L 54.97257 157.880105 
L 55.006046 157.846991 
L 55.085871 157.946334 
L 55.181147 157.747648 
L 55.206897 157.813876 
L 55.255823 157.880105 
L 55.302173 157.681419 
L 55.309898 157.714534 
L 55.451524 157.780762 
L 55.539075 157.946334 
L 55.5674 157.913219 
L 55.60345 157.979448 
L 55.621476 157.846991 
L 55.670401 157.880105 
L 55.688426 157.714534 
L 55.675551 157.913219 
L 55.783702 157.780762 
L 55.827477 157.846991 
L 55.927903 157.979448 
L 55.837777 157.813876 
L 55.940778 157.913219 
L 56.13648 158.012562 
L 56.16738 157.946334 
L 56.254931 158.111905 
L 56.365657 158.045677 
L 56.368232 157.979448 
L 56.455782 158.178134 
L 56.473808 158.111905 
L 56.494408 158.178134 
L 56.496983 158.045677 
L 56.584533 158.14502 
L 56.618009 158.045677 
L 56.620584 157.979448 
L 56.643759 158.111905 
L 56.72616 158.045677 
L 56.728735 158.078791 
L 56.79311 157.913219 
L 56.82401 157.913219 
L 56.844611 157.979448 
L 56.934736 157.846991 
L 56.988812 157.913219 
L 57.022287 157.780762 
L 57.042887 157.846991 
L 57.156188 157.714534 
L 57.068637 157.880105 
L 57.158763 157.747648 
L 57.181938 157.780762 
L 57.254039 157.648305 
L 57.269489 157.747648 
L 57.35189 157.648305 
L 57.452316 157.482733 
L 57.36734 157.681419 
L 57.472916 157.515848 
L 57.627417 157.416505 
L 57.668617 157.38339 
L 57.717543 157.515848 
L 57.730418 157.515848 
L 57.776768 157.416505 
L 57.815394 157.350276 
L 57.828269 157.482733 
L 57.887494 157.416505 
L 58.00337 157.317162 
L 58.04457 157.416505 
L 58.02912 157.284047 
L 58.114096 157.317162 
L 58.271172 157.250933 
L 58.369023 157.118476 
L 58.307223 157.317162 
L 58.381898 157.250933 
L 58.412798 157.317162 
L 58.495199 157.184704 
L 58.60335 157.284047 
L 58.526099 157.15159 
L 58.6085 157.217819 
L 58.698626 157.250933 
L 58.804202 157.38339 
L 58.809352 157.350276 
L 58.871152 157.284047 
L 58.824802 157.416505 
L 58.912353 157.38339 
L 58.966428 157.449619 
L 58.920078 157.317162 
L 59.023078 157.38339 
L 59.141529 157.217819 
L 59.079729 157.416505 
L 59.144104 157.250933 
L 59.267705 157.350276 
L 59.288306 157.416505 
L 59.280581 157.317162 
L 59.375856 157.317162 
L 59.496882 157.217819 
L 59.592158 157.15159 
L 59.504607 157.284047 
L 59.607608 157.217819 
L 59.82391 157.118476 
L 59.87541 157.052247 
L 59.921761 157.217819 
L 59.929486 157.184704 
L 59.942361 157.250933 
L 59.965536 157.15159 
L 60.035062 157.15159 
L 60.150938 157.019133 
L 60.047937 157.184704 
L 60.153513 157.052247 
L 60.331189 156.986018 
L 60.36724 156.91979 
L 60.41874 157.052247 
L 60.441915 156.986018 
L 60.900269 157.052247 
L 61.02902 152.051984 
L 61.652175 145.462234 
L 61.662475 145.495348 
L 61.719126 145.031748 
L 61.732001 145.064862 
L 61.755176 144.998633 
L 61.889077 144.237004 
L 61.894227 144.270118 
L 61.912252 144.170775 
L 62.077054 143.44226 
L 62.079629 143.475375 
L 62.162029 143.144231 
L 62.167179 143.177346 
L 62.313955 142.581288 
L 62.316531 142.614402 
L 62.319106 142.680631 
L 62.411806 142.316373 
L 62.416956 142.349488 
L 62.437557 142.283259 
L 62.556007 141.98523 
L 62.558583 142.018344 
L 62.594633 141.952116 
L 62.723384 141.488515 
L 62.756859 141.389172 
L 62.862435 141.157372 
L 62.872735 141.190486 
L 63.016936 141.124258 
L 63.068437 141.157372 
L 63.130237 140.9918 
L 63.145687 141.058029 
L 63.212638 140.892457 
L 63.235813 140.925572 
L 63.351689 140.76 
L 63.251263 140.9918 
L 63.354264 140.826229 
L 63.416065 140.76 
L 63.41864 140.660657 
L 63.452115 140.793114 
L 63.52679 140.726886 
L 63.745667 140.660657 
L 63.838368 140.561314 
L 63.753392 140.693771 
L 63.858968 140.594428 
L 63.990294 140.561314 
L 64.09587 140.428857 
L 64.103595 140.461971 
L 64.291572 140.395742 
L 64.314747 140.495085 
L 64.402298 140.329514 
L 64.523324 140.461971 
L 64.572249 140.329514 
L 64.600574 140.5282 
L 64.631475 140.495085 
L 64.842626 140.395742 
L 64.891552 140.296399 
L 64.858076 140.461971 
L 64.953352 140.395742 
L 65.053778 140.495085 
L 64.976527 140.362628 
L 65.066653 140.461971 
L 65.131029 140.362628 
L 65.161929 140.594428 
L 65.172229 140.5282 
L 65.414281 140.461971 
L 65.465781 140.395742 
L 65.473506 140.5282 
L 65.522432 140.461971 
L 65.563632 140.5282 
L 65.561057 140.395742 
L 65.630583 140.461971 
L 65.633158 140.428857 
L 65.728434 140.594428 
L 65.736159 140.5282 
L 65.834009 140.627543 
L 65.852035 140.594428 
L 65.88036 140.5282 
L 65.888085 140.660657 
L 65.960185 140.627543 
L 66.042586 140.5282 
L 66.055461 140.428857 
L 66.127562 140.627543 
L 66.148162 140.594428 
L 66.356739 140.693771 
L 66.415964 140.793114 
L 66.367039 140.660657 
L 66.47004 140.76 
L 66.575615 140.660657 
L 66.50094 140.793114 
L 66.583341 140.693771 
L 66.668316 140.627543 
L 66.606516 140.726886 
L 66.694066 140.693771 
L 66.843418 140.594428 
L 66.864018 140.5282 
L 66.892343 140.660657 
L 66.951569 140.627543 
L 67.14212 140.726886 
L 67.165295 140.660657 
L 67.255421 140.76 
L 67.319797 140.627543 
L 67.368722 140.693771 
L 67.420222 140.76 
L 67.386747 140.660657 
L 67.482023 140.726886 
L 67.489748 140.660657 
L 67.546398 140.826229 
L 67.590174 140.793114 
L 68.040803 140.859343 
L 68.110328 140.826229 
L 68.156678 140.9918 
L 68.182429 140.892457 
L 68.251954 141.058029 
L 68.264829 140.9918 
L 68.360105 141.157372 
L 68.380705 141.091143 
L 68.437356 140.9918 
L 68.40388 141.124258 
L 68.491431 141.024915 
L 68.524906 141.091143 
L 68.563532 140.925572 
L 68.599582 141.024915 
L 68.676833 140.925572 
L 68.712883 140.958686 
L 68.746358 140.925572 
L 68.828759 141.024915 
L 68.96781 140.958686 
L 69.060511 140.826229 
L 69.078536 140.925572 
L 69.101711 140.859343 
L 69.186687 140.958686 
L 69.302563 140.793114 
L 69.390114 140.859343 
L 69.361788 140.76 
L 69.413289 140.793114 
L 69.524015 140.726886 
L 69.611565 140.561314 
L 69.639891 140.594428 
L 69.742891 140.726886 
L 69.650191 140.561314 
L 69.758342 140.693771 
L 69.833017 140.627543 
L 69.766067 140.76 
L 69.869068 140.693771 
L 69.917993 140.693771 
L 70.008119 140.892457 
L 70.031294 140.859343 
L 70.049319 140.793114 
L 70.067344 140.925572 
L 70.14202 140.859343 
L 70.17292 140.925572 
L 70.19867 140.793114 
L 70.250171 140.826229 
L 70.329996 140.859343 
L 70.371197 140.693771 
L 70.479348 140.76 
L 70.481923 140.693771 
L 70.551448 140.660657 
L 70.577198 140.793114 
L 70.587498 140.76 
L 70.711099 140.859343 
L 70.734275 140.892457 
L 70.80895 140.726886 
L 70.8347 140.660657 
L 70.832125 140.826229 
L 70.914526 140.793114 
L 70.996927 140.892457 
L 71.027827 140.859343 
L 71.061302 140.793114 
L 71.092203 140.958686 
L 71.138553 140.859343 
L 71.161728 140.958686 
L 71.143703 140.793114 
L 71.241554 140.826229 
L 71.244129 140.76 
L 71.329105 140.925572 
L 71.35228 140.826229 
L 71.385755 140.892457 
L 71.40893 140.76 
L 71.463006 140.859343 
L 71.519656 140.793114 
L 71.473306 140.925572 
L 71.568581 140.892457 
L 71.627807 140.826229 
L 71.681882 140.9918 
L 71.738533 140.892457 
L 71.784883 141.058029 
L 71.792608 140.958686 
L 71.820934 141.124258 
L 71.851834 140.925572 
L 71.908484 141.091143 
L 71.959985 140.958686 
L 72.021785 141.024915 
L 72.03981 141.124258 
L 72.155686 141.256715 
L 72.068136 141.091143 
L 72.158261 141.223601 
L 72.189162 141.124258 
L 72.253537 141.322943 
L 72.266412 141.256715 
L 72.341088 141.157372 
L 72.379713 141.289829 
L 72.397738 141.190486 
L 72.446664 141.322943 
L 72.487864 141.322943 
L 72.683566 141.223601 
L 72.791717 141.091143 
L 72.709316 141.256715 
L 72.796867 141.124258 
L 72.899867 141.223601 
L 72.902442 141.256715 
L 72.964243 141.058029 
L 73.005443 141.157372 
L 74.174503 141.091143 
L 74.205403 140.9918 
L 74.280079 141.157372 
L 74.285229 141.091143 
L 74.37278 141.058029 
L 74.305829 141.157372 
L 74.395955 141.091143 
L 74.498956 141.190486 
L 74.501531 141.223601 
L 74.547881 141.058029 
L 74.607106 141.157372 
L 74.702382 141.058029 
L 74.787358 141.157372 
L 74.807958 141.024915 
L 74.913534 141.190486 
L 74.921259 141.157372 
L 75.02426 141.256715 
L 74.977909 141.091143 
L 75.03456 141.190486 
L 75.181336 141.124258 
L 75.258587 141.024915 
L 75.225112 141.157372 
L 75.289487 141.124258 
L 75.310087 141.190486 
L 75.364163 141.058029 
L 75.400213 141.124258 
L 75.626815 141.024915 
L 75.62939 140.9918 
L 75.68604 141.157372 
L 75.729816 141.124258 
L 75.737541 141.091143 
L 75.837967 141.190486 
L 75.907492 141.091143 
L 75.858567 141.223601 
L 75.946117 141.223601 
L 75.958993 141.157372 
L 76.059418 141.289829 
L 76.082594 141.223601 
L 76.136669 141.389172 
L 76.170144 141.289829 
L 76.350396 141.322943 
L 76.484297 148.773666 
L 76.746949 154.70113 
L 76.749524 154.668016 
L 76.793299 155.429645 
L 76.795874 155.429645 
L 76.963251 157.648305 
L 76.973551 157.747648 
L 77.328904 160.926623 
L 77.334054 160.893509 
L 77.395854 161.456452 
L 77.401004 161.423338 
L 77.586406 162.51611 
L 77.588981 162.482996 
L 77.591556 162.416767 
L 77.684257 162.880368 
L 77.861933 163.74134 
L 77.864508 163.675112 
L 77.952059 164.105598 
L 77.959784 164.039369 
L 78.09111 164.469855 
L 78.10141 164.436741 
L 78.158061 164.536084 
L 78.286812 164.800999 
L 78.333162 164.767884 
L 78.348612 164.900342 
L 78.392388 164.867227 
L 78.436163 164.96657 
L 78.474788 164.933456 
L 78.554614 165.132142 
L 78.557189 165.065913 
L 78.621564 165.330828 
L 78.657615 165.330828 
L 78.755465 165.297714 
L 78.703965 165.397057 
L 78.765766 165.330828 
L 78.858466 165.397057 
L 78.863616 165.264599 
L 78.871341 165.297714 
L 78.902242 165.264599 
L 78.966617 165.430171 
L 78.974342 165.397057 
L 79.072193 165.529514 
L 78.992367 165.330828 
L 79.092793 165.496399 
L 79.31167 165.562628 
L 79.31682 165.628857 
L 79.33227 165.496399 
L 79.419821 165.496399 
L 79.533122 165.695085 
L 79.543422 165.661971 
L 79.656723 165.761314 
L 79.669598 165.695085 
L 79.775174 165.893771 
L 79.888475 165.7282 
L 79.965725 165.827543 
L 79.991476 165.761314 
L 80.081601 165.96 
L 80.202627 165.827543 
L 80.331378 165.926886 
L 80.390604 165.96 
L 80.398329 165.827543 
L 80.439529 165.893771 
L 80.55798 165.7282 
L 80.560555 165.761314 
L 80.655831 165.7282 
L 80.769132 165.562628 
L 80.923633 165.463285 
L 81.042084 165.363942 
L 81.044659 165.397057 
L 81.11161 165.231485 
L 81.145085 165.264599 
L 81.307311 165.165256 
L 81.348512 165.065913 
L 81.418037 165.165256 
L 81.461813 165.065913 
L 81.559664 164.867227 
L 81.474688 165.132142 
L 81.580264 164.96657 
L 81.70644 164.867227 
L 81.78369 164.73477 
L 81.819741 164.834113 
L 82.036042 164.933456 
L 82.038617 164.96657 
L 82.121018 164.73477 
L 82.139043 164.834113 
L 82.262644 164.668541 
L 82.34247 164.569198 
L 82.471221 164.27117 
L 82.355345 164.602313 
L 82.473796 164.304284 
L 82.533022 164.204941 
L 82.643747 164.105598 
L 82.543322 164.27117 
L 82.646322 164.171827 
L 82.679798 164.072484 
L 82.787949 163.873798 
L 82.684948 164.105598 
L 82.795674 163.906912 
L 82.890949 163.840683 
L 82.991375 163.608883 
L 83.006825 163.641997 
L 83.096951 163.575769 
L 83.220552 163.244625 
L 83.225702 163.27774 
L 83.295228 163.079054 
L 83.320978 163.145283 
L 83.439429 162.946597 
L 83.442004 162.979711 
L 83.447154 163.04594 
L 83.524405 162.847254 
L 83.54758 162.913482 
L 83.660881 162.747911 
L 83.671181 162.847254 
L 83.738131 162.582339 
L 83.763882 162.582339 
L 83.799932 162.482996 
L 83.902933 162.251196 
L 83.805082 162.51611 
L 83.920958 162.317424 
L 83.964733 162.350539 
L 84.011084 162.151853 
L 84.016234 162.251196 
L 84.13211 161.986281 
L 84.211935 161.886938 
L 84.139835 162.019396 
L 84.242836 161.953167 
L 84.345836 162.019396 
L 84.284036 161.886938 
L 84.348411 161.886938 
L 84.554413 161.787595 
L 84.559563 161.82071 
L 84.675439 161.622024 
L 84.678014 161.688252 
L 84.775865 161.456452 
L 84.781015 161.489566 
L 84.84024 161.390223 
L 84.956116 161.257766 
L 84.958691 161.29088 
L 85.025642 161.191537 
L 85.038517 161.257766 
L 85.144093 161.025966 
L 85.159543 161.191537 
L 85.247094 160.926623 
L 85.252244 160.959737 
L 85.334645 160.860394 
L 85.35782 160.694823 
L 85.45052 160.727937 
L 85.471121 160.794166 
L 85.532921 160.59548 
L 85.553521 160.628594 
L 85.602447 160.529251 
L 85.700298 160.396794 
L 85.607597 160.59548 
L 85.718323 160.463022 
L 85.844499 160.363679 
L 85.857374 160.429908 
L 85.9681 160.198108 
L 85.99385 160.297451 
L 86.04535 160.098765 
L 86.076251 160.164993 
L 86.194702 159.966307 
L 86.102001 160.198108 
L 86.197277 159.999422 
L 86.212727 160.032536 
L 86.282252 159.83385 
L 86.297702 159.866965 
L 86.418728 159.668279 
L 86.421303 159.701393 
L 86.462504 159.635164 
L 86.56808 159.436478 
L 86.57838 159.469593 
L 86.632455 159.568936 
L 86.676231 159.403364 
L 86.683956 159.403364 
L 86.694256 159.436478 
L 86.802407 159.270907 
L 86.812707 159.37025 
L 86.897682 159.171564 
L 86.905407 159.171564 
L 86.995533 159.105335 
L 87.041884 159.171564 
L 87.111409 158.972878 
L 87.253035 158.873535 
L 87.368911 158.707963 
L 87.26076 158.906649 
L 87.374061 158.741078 
L 87.461612 158.641735 
L 87.564613 158.476163 
L 87.492512 158.674849 
L 87.582638 158.509277 
L 87.621263 158.409934 
L 87.750014 158.111905 
L 87.752589 158.14502 
L 87.79894 158.045677 
L 87.827265 158.078791 
L 87.922541 157.846991 
L 87.968891 157.880105 
L 88.012666 157.747648 
L 88.028117 157.780762 
L 88.089917 157.714534 
L 88.192918 157.615191 
L 88.203218 157.648305 
L 88.223818 157.681419 
L 88.288194 157.515848 
L 88.303644 157.515848 
L 88.40922 157.350276 
L 88.42467 157.38339 
L 88.47102 157.416505 
L 88.522521 157.217819 
L 88.525096 157.250933 
L 88.638397 157.019133 
L 88.530246 157.284047 
L 88.651272 157.052247 
L 88.782598 156.952904 
L 88.880449 156.853561 
L 88.828948 157.019133 
L 88.895899 156.886675 
L 88.898474 156.91979 
L 88.965424 156.654875 
L 88.991175 156.687989 
L 89.0195 156.721104 
L 89.119926 156.456189 
L 89.184301 156.356846 
L 89.292452 156.191275 
L 89.204901 156.389961 
L 89.305327 156.224389 
L 89.511329 156.125046 
L 89.526779 156.191275 
L 89.62463 156.058817 
L 89.67613 156.091932 
L 89.714755 155.893246 
L 89.730206 156.025703 
L 89.833206 155.727674 
L 89.846082 155.827017 
L 89.961957 155.562102 
L 89.964533 155.628331 
L 89.998008 155.528988 
L 90.013458 155.595217 
L 90.126759 155.264074 
L 90.134484 155.363417 
L 90.22976 155.098502 
L 90.232335 155.164731 
L 90.340486 154.966045 
L 90.24006 155.197845 
L 90.353361 154.999159 
L 90.397136 155.032273 
L 90.402286 154.899816 
L 90.461512 154.999159 
L 90.587688 154.800473 
L 90.597988 154.866702 
L 90.641763 154.734244 
L 90.690688 154.767359 
L 90.803989 154.502444 
L 90.806564 154.535558 
L 90.888965 154.436216 
L 91.002266 154.23753 
L 90.930165 154.535558 
L 91.004841 154.270644 
L 91.015141 154.303758 
L 91.089817 154.138187 
L 91.105267 154.204415 
L 91.197968 154.005729 
L 91.221143 154.071958 
L 91.380794 153.972615 
L 91.50697 153.773929 
L 91.52757 153.840158 
L 91.609971 153.674586 
L 91.612546 153.7077 
L 91.725847 153.509014 
L 91.633146 153.740815 
L 91.733572 153.542129 
L 91.743872 153.575243 
L 91.821123 153.376557 
L 91.833998 153.409671 
L 91.885498 153.310329 
L 91.985924 153.177871 
L 92.001374 153.2441 
L 92.099225 153.177871 
L 92.10695 153.210986 
L 92.215101 153.045414 
L 92.230551 153.144757 
L 92.336127 152.879842 
L 92.349002 152.946071 
L 92.418528 152.747385 
L 92.439128 152.780499 
L 92.498353 152.681156 
L 92.506078 152.714271 
L 92.616804 152.48247 
L 92.73268 152.350013 
L 92.634829 152.581813 
L 92.735255 152.383127 
L 92.822806 152.283784 
L 92.938682 152.151327 
L 92.827956 152.316899 
L 92.941257 152.184442 
L 93.183309 152.118213 
L 93.29146 151.919527 
L 93.203909 152.151327 
L 93.299185 151.985756 
L 93.476861 151.886413 
L 93.520637 151.952641 
L 93.597887 151.753955 
L 93.724063 151.654612 
L 93.832214 151.522155 
L 93.739514 151.687727 
L 93.839939 151.555269 
L 93.914615 151.654612 
L 93.852814 151.489041 
L 93.950665 151.621498 
L 94.061391 151.389698 
L 94.066541 151.422812 
L 94.079416 151.489041 
L 94.123192 151.356583 
L 94.177267 151.422812 
L 94.184992 151.455926 
L 94.300868 151.25724 
L 94.360094 151.323469 
L 94.396144 151.191012 
L 94.409019 151.224126 
L 94.49657 150.959212 
L 94.53262 151.058555 
L 94.648496 150.959212 
L 94.730897 150.826754 
L 94.766947 150.859869 
L 94.769522 150.892983 
L 94.862223 150.661183 
L 94.867373 150.727411 
L 94.985824 150.363154 
L 95.003849 150.396268 
L 95.083675 150.330039 
L 95.1944 150.197582 
L 95.196975 150.230696 
L 95.230451 150.296925 
L 95.287101 150.098239 
L 95.299976 150.131353 
L 95.361777 150.032011 
L 95.475078 149.899553 
L 95.372077 150.098239 
L 95.480228 149.932668 
L 95.529153 149.833325 
L 95.536878 149.866439 
L 95.647604 149.667753 
L 95.70168 149.767096 
L 95.75833 149.667753 
L 95.835581 149.733982 
L 95.786655 149.634639 
L 95.871631 149.700867 
L 96.008107 149.601524 
L 96.116258 149.535296 
L 96.046732 149.634639 
L 96.118833 149.56841 
L 96.185784 149.502181 
L 96.291359 149.369724 
L 96.201234 149.535296 
L 96.29651 149.469067 
L 96.299085 149.502181 
L 96.345435 149.270381 
L 96.39436 149.303495 
L 96.417535 149.33661 
L 96.512811 149.104809 
L 96.530836 149.171038 
L 96.613237 149.005466 
L 96.618387 149.038581 
L 96.729113 148.939238 
L 96.646712 149.071695 
L 96.731688 148.972352 
L 96.762588 149.005466 
L 96.826964 148.839895 
L 96.834689 148.873009 
L 96.883614 148.839895 
L 96.996915 148.608095 
L 96.99949 148.641209 
L 97.01494 148.674323 
L 97.125666 148.442523 
L 97.169442 148.475637 
L 97.202917 148.34318 
L 97.228667 148.409409 
L 97.308493 148.210723 
L 97.241542 148.442523 
L 97.341968 148.310066 
L 97.344543 148.34318 
L 97.367718 148.177608 
L 97.444969 148.210723 
L 97.499044 148.144494 
L 97.617495 147.945808 
L 97.653546 147.978922 
L 97.707621 147.813351 
L 97.720496 147.846465 
L 97.761697 147.780237 
L 97.779722 147.813351 
L 97.877572 147.581551 
L 97.895598 147.614665 
L 97.965123 147.449093 
L 97.983148 147.515322 
L 98.101599 147.316636 
L 98.129925 147.382865 
L 98.207175 147.217293 
L 98.20975 147.250407 
L 98.292151 147.283522 
L 98.227775 147.184179 
L 98.317901 147.217293 
L 98.413177 147.11795 
L 98.353951 147.250407 
L 98.431202 147.151064 
L 98.433777 147.184179 
L 98.500728 147.018607 
L 98.536778 147.084836 
L 98.647504 146.819921 
L 98.662954 146.88615 
L 98.760805 146.786807 
L 98.886981 146.488778 
L 98.889556 146.555007 
L 98.892131 146.588121 
L 98.971956 146.356321 
L 98.989982 146.422549 
L 99.069807 146.389435 
L 99.185683 146.157635 
L 99.283534 146.091406 
L 99.39941 145.925834 
L 99.46121 145.859606 
L 99.566786 145.694034 
L 99.577086 145.727148 
L 99.584811 145.793377 
L 99.674937 145.561577 
L 99.736738 145.495348 
L 99.850039 145.296662 
L 99.852614 145.329777 
L 99.95304 145.230434 
L 99.97879 145.263548 
L 100.079216 145.031748 
L 100.166766 144.932405 
L 100.249167 144.700604 
L 100.290367 144.733719 
L 100.372768 144.799947 
L 100.334143 144.601261 
L 100.398518 144.733719 
L 100.470619 144.535033 
L 100.519544 144.601261 
L 100.56332 144.66749 
L 100.596795 144.468804 
L 100.622545 144.501919 
L 100.805372 144.402576 
L 100.820822 144.43569 
L 100.921247 144.303233 
L 100.941848 144.402576 
L 100.988198 144.270118 
L 101.029398 144.270118 
L 101.068024 144.20389 
L 101.176175 144.071432 
L 101.086049 144.237004 
L 101.181325 144.104547 
L 101.1839 144.137661 
L 101.274025 143.905861 
L 101.28175 143.972089 
L 101.389901 143.839632 
L 101.397626 143.872746 
L 101.449127 143.905861 
L 101.498052 143.740289 
L 101.503202 143.806518 
L 101.554703 143.707175 
L 101.665429 143.508489 
L 101.565003 143.740289 
L 101.675729 143.541603 
L 101.722079 143.607832 
L 101.745254 143.475375 
L 101.781305 143.541603 
L 101.89718 143.276689 
L 102.116057 143.177346 
L 102.237083 143.044888 
L 102.267984 142.97866 
L 102.275709 143.011774 
L 102.386434 142.746859 
L 102.44566 142.912431 
L 102.49716 142.846202 
L 102.584711 142.614402 
L 102.623336 142.647516 
L 102.646512 142.713745 
L 102.721187 142.515059 
L 102.726337 142.581288 
L 102.855088 142.349488 
L 102.893714 142.283259 
L 102.996715 142.051459 
L 103.00959 142.117687 
L 103.06109 142.084573 
L 103.174391 141.852773 
L 103.176966 141.885887 
L 103.259367 141.98523 
L 103.197566 141.852773 
L 103.287692 141.919001 
L 103.408718 141.720315 
L 103.411293 141.75343 
L 103.480818 141.687201 
L 103.588969 141.488515 
L 103.498844 141.720315 
L 103.596694 141.554744 
L 103.627595 141.521629 
L 103.730596 141.322943 
L 103.740896 141.389172 
L 103.867072 141.157372 
L 103.879947 141.223601 
L 103.939172 141.058029 
L 103.972648 141.091143 
L 104.034448 140.958686 
L 104.085948 141.058029 
L 104.121999 141.124258 
L 104.142599 140.958686 
L 104.191524 140.9918 
L 104.2765 140.826229 
L 104.201824 141.058029 
L 104.31255 140.859343 
L 104.374351 140.793114 
L 104.384651 140.826229 
L 104.492802 140.594428 
L 104.523702 140.627543 
L 104.590653 140.428857 
L 104.593228 140.461971 
L 104.701379 140.362628 
L 104.709104 140.395742 
L 104.819829 140.230171 
L 104.848155 140.263285 
L 104.894505 140.097714 
L 104.920255 140.130828 
L 105.030981 140.064599 
L 104.93828 140.163942 
L 105.033556 140.097714 
L 105.110807 140.064599 
L 105.216383 139.932142 
L 105.224108 139.965256 
L 105.275608 139.899028 
L 105.383759 139.733456 
L 105.386334 139.76657 
L 105.388909 139.832799 
L 105.479035 139.600999 
L 105.489335 139.634113 
L 105.54856 139.53477 
L 105.515085 139.667227 
L 105.602636 139.567884 
L 105.685037 139.501656 
L 105.788037 139.336084 
L 105.700487 139.53477 
L 105.800913 139.369198 
L 105.901338 139.170512 
L 105.921939 139.203627 
L 105.970864 139.236741 
L 105.999189 139.038055 
L 106.027514 139.137398 
L 106.068715 139.170512 
L 106.14339 138.971827 
L 106.220641 139.07117 
L 106.236091 138.938712 
L 106.251541 139.004941 
L 106.367417 138.839369 
L 106.395742 138.938712 
L 106.439518 138.740026 
L 106.470418 138.773141 
L 106.516768 138.706912 
L 106.568269 138.839369 
L 106.578569 138.806255 
L 106.66097 138.740026 
L 106.75882 138.607569 
L 106.673845 138.773141 
L 106.771696 138.640683 
L 106.779421 138.740026 
L 106.869546 138.508226 
L 106.879846 138.607569 
L 107.006022 138.375769 
L 107.008597 138.441997 
L 107.103873 138.177083 
L 107.111598 138.243311 
L 107.230049 137.978397 
L 107.29185 138.044625 
L 107.335625 137.879054 
L 107.3382 137.912168 
L 107.3485 137.879054 
L 107.423176 138.07774 
L 107.441201 138.011511 
L 107.544202 137.912168 
L 107.559652 137.978397 
L 107.670378 137.680368 
L 107.747629 137.779711 
L 107.781104 137.680368 
L 107.845479 137.581025 
L 107.850629 137.614139 
L 107.971655 137.349225 
L 107.981955 137.448568 
L 108.066931 137.183653 
L 108.077231 137.216767 
L 108.162207 137.051196 
L 108.105556 137.249882 
L 108.193107 137.08431 
L 108.242033 137.117424 
L 108.288383 136.984967 
L 108.296108 137.018081 
L 108.422284 136.786281 
L 108.49181 136.819396 
L 108.455759 136.720053 
L 108.530435 136.753167 
L 108.610261 136.554481 
L 108.646311 136.587595 
L 108.726137 136.521367 
L 108.826562 136.388909 
L 108.746737 136.554481 
L 108.839437 136.455138 
L 108.901238 136.388909 
L 109.011964 136.123995 
L 109.019689 136.157109 
L 109.037714 136.190223 
L 109.10724 136.024652 
L 109.12269 136.057766 
L 109.12784 136.09088 
L 109.238566 135.958423 
L 109.305516 135.991537 
L 109.290066 135.85908 
L 109.344142 135.892194 
L 109.390492 135.693509 
L 109.465168 135.759737 
L 109.534693 135.660394 
L 109.563018 135.594166 
L 109.622244 135.726623 
L 109.642844 135.693509 
L 109.645419 135.726623 
L 109.72782 135.461708 
L 109.73812 135.494823 
L 109.766445 135.39548 
L 109.771595 135.428594 
L 109.892621 135.163679 
L 109.897771 135.263022 
L 109.931246 135.097451 
L 110.000772 135.130565 
L 110.121798 134.998108 
L 110.155273 135.031222 
L 110.188749 134.86565 
L 110.227374 134.931879 
L 110.302049 134.832536 
L 110.3381 134.931879 
L 110.3999 134.733193 
L 110.456551 134.799422 
L 110.464276 134.832536 
L 110.551827 134.600736 
L 110.556977 134.700079 
L 110.662552 134.468279 
L 110.675428 134.501393 
L 110.680578 134.567622 
L 110.747528 134.335821 
L 110.778428 134.40205 
L 110.853104 134.236478 
L 110.811904 134.435164 
L 110.896879 134.269593 
L 110.96898 134.335821 
L 110.920055 134.203364 
L 111.007605 134.269593 
L 111.126056 134.037792 
L 111.012755 134.302707 
L 111.131206 134.104021 
L 111.154381 134.137135 
L 111.182707 133.938449 
L 111.229057 133.938449 
L 111.314033 133.872221 
L 111.409309 133.739763 
L 111.373258 133.905335 
L 111.427334 133.772878 
L 111.432484 133.805992 
L 111.499434 133.64042 
L 111.530335 133.706649 
L 111.661661 133.441735 
L 111.677111 133.507963 
L 111.756936 133.342392 
L 111.769812 133.375506 
L 111.947488 133.276163 
L 112.022164 133.17682 
L 112.032464 133.309277 
L 112.060789 133.209934 
L 112.140615 133.243049 
L 112.125164 133.077477 
L 112.16894 133.17682 
L 112.18954 133.209934 
L 112.292541 133.011248 
L 112.344041 132.978134 
L 112.444467 132.779448 
L 112.457342 132.845677 
L 112.462492 132.878791 
L 112.586093 132.613876 
L 112.691669 132.580762 
L 112.735444 132.481419 
L 112.79467 132.613876 
L 112.802395 132.547648 
L 112.959471 132.448305 
L 113.077922 132.18339 
L 113.085647 132.216505 
L 113.088222 132.282733 
L 113.183498 132.017819 
L 113.191223 132.084047 
L 113.219548 131.984704 
L 113.234999 132.017819 
L 113.343149 131.819133 
L 113.44615 131.885361 
L 113.3689 131.752904 
L 113.45645 131.852247 
L 113.515676 131.786018 
L 113.572326 131.819133 
L 113.628977 131.686675 
L 113.636702 131.786018 
L 113.698502 131.521104 
L 113.731978 131.653561 
L 113.847854 131.355532 
L 113.850429 131.388647 
L 113.868454 131.421761 
L 113.940554 131.189961 
L 113.948279 131.223075 
L 113.953429 131.256189 
L 114.084756 130.891932 
L 114.138831 130.825703 
L 114.257282 130.627017 
L 114.316507 130.72636 
L 114.293332 130.593903 
L 114.368008 130.660131 
L 114.386033 130.593903 
L 114.429808 130.72636 
L 114.478734 130.660131 
L 114.517359 130.560788 
L 114.628085 130.362102 
L 114.530234 130.627017 
L 114.63581 130.428331 
L 114.723361 130.560788 
L 114.64611 130.395217 
L 114.749111 130.49456 
L 114.764561 130.527674 
L 114.867562 130.295874 
L 115.029788 130.395217 
L 115.140514 130.49456 
L 115.034938 130.362102 
L 115.145664 130.461445 
L 115.403166 130.395217 
L 115.495867 130.229645 
L 115.516467 130.295874 
L 115.593718 130.196531 
L 115.694144 130.097188 
L 115.616893 130.26276 
L 115.707019 130.163417 
L 115.730194 130.196531 
L 115.79457 129.964731 
L 115.807445 130.030959 
L 115.923321 129.766045 
L 115.925896 129.799159 
L 116.028897 129.699816 
L 116.054647 129.73293 
L 116.144772 129.600473 
L 116.242623 129.699816 
L 116.252923 129.567359 
L 116.255498 129.633587 
L 116.343049 129.534244 
L 116.47695 129.236216 
L 116.536176 129.136873 
L 116.659777 128.871958 
L 116.543901 129.169987 
L 116.664927 128.905072 
L 116.749902 128.805729 
L 116.757627 128.838844 
L 116.878653 128.540815 
L 116.976504 128.607043 
L 116.894104 128.5077 
L 116.989379 128.540815 
L 117.120705 128.2759 
L 117.221131 128.176557 
L 117.329282 128.010986 
L 117.337007 128.0441 
L 117.440008 128.110329 
L 117.349882 128.010986 
L 117.447733 128.0441 
L 117.530134 127.845414 
L 117.571334 127.878528 
L 117.664035 127.977871 
L 117.66661 128.010986 
L 117.756736 127.746071 
L 117.761886 127.8123 
L 117.836561 127.746071 
L 117.949862 127.646728 
L 117.965312 127.779185 
L 118.037413 127.580499 
L 118.058013 127.646728 
L 118.184189 127.448042 
L 118.227965 127.381813 
L 118.330965 127.05067 
L 118.348991 127.116899 
L 118.379891 126.918213 
L 118.470017 126.984442 
L 118.518942 127.017556 
L 118.570442 126.885099 
L 118.573017 126.885099 
L 118.606493 126.785756 
L 118.706918 126.553955 
L 118.732669 126.58707 
L 118.758419 126.620184 
L 118.827944 126.388384 
L 118.833095 126.454612 
L 118.956696 126.189698 
L 118.959271 126.255926 
L 118.961846 126.289041 
L 119.010771 126.123469 
L 119.059696 126.123469 
L 119.095747 126.05724 
L 119.216773 125.726097 
L 119.263123 125.792326 
L 119.301748 125.626754 
L 119.322349 125.659869 
L 119.363549 125.59364 
L 119.368699 125.626754 
L 119.47685 125.494297 
L 119.564401 125.428068 
L 119.677701 125.130039 
L 119.685427 125.163154 
L 119.811603 125.262497 
L 119.814178 125.295611 
L 119.888853 125.096925 
L 119.909453 125.130039 
L 119.976404 125.030696 
L 119.999579 125.196268 
L 120.017604 125.130039 
L 120.058805 125.196268 
L 120.048505 125.030696 
L 120.12318 125.063811 
L 120.16438 124.997582 
L 120.285406 124.666439 
L 120.336907 124.765782 
L 120.393557 124.633325 
L 120.542909 124.567096 
L 120.558359 124.500867 
L 120.607284 124.699553 
L 120.651059 124.567096 
L 120.656209 124.633325 
L 120.720585 124.401524 
L 120.75406 124.467753 
L 120.869936 124.302181 
L 120.898261 124.202838 
L 120.908562 124.235953 
L 121.034738 123.871695 
L 121.119713 123.805466 
L 121.243314 123.474323 
L 121.29739 123.408095 
L 121.372065 123.441209 
L 121.410691 123.275637 
L 121.449316 123.341866 
L 121.480216 123.176294 
L 121.505966 123.176294 
L 121.608967 122.91138 
L 121.619267 122.977608 
L 121.637293 123.076951 
L 121.675918 122.91138 
L 121.727418 122.944494 
L 121.786644 122.845151 
L 121.894795 122.414665 
L 121.92312 122.480894 
L 121.925695 122.514008 
L 121.99007 122.282208 
L 122.018396 122.282208 
L 122.072471 122.215979 
L 122.190922 122.017293 
L 122.268173 121.951064 
L 122.378899 121.653035 
L 122.386624 121.719264 
L 122.409799 121.619921 
L 122.445849 121.719264 
L 122.530825 121.45435 
L 122.5334 121.553693 
L 122.628676 121.189435 
L 122.633826 121.222549 
L 122.723951 121.123206 
L 122.826952 120.990749 
L 122.754852 121.189435 
L 122.842402 121.023863 
L 122.971154 120.92452 
L 123.12308 120.394691 
L 123.231231 120.295348 
L 123.349682 120.063548 
L 123.238956 120.328463 
L 123.354832 120.129777 
L 123.419207 120.262234 
L 123.362557 120.096662 
L 123.465558 120.129777 
L 123.563408 120.030434 
L 123.576283 120.063548 
L 123.697309 119.732405 
L 123.73336 119.765519 
L 123.78486 119.566833 
L 123.80031 119.633062 
L 123.900736 119.169461 
L 123.80546 119.666176 
L 123.936786 119.301919 
L 123.957387 119.401261 
L 124.008887 119.103233 
L 124.034637 119.136347 
L 124.078413 119.037004 
L 124.183988 118.838318 
L 124.091288 119.070118 
L 124.191714 118.904547 
L 124.209739 119.00389 
L 124.274114 118.772089 
L 124.297289 118.838318 
L 124.38484 118.738975 
L 124.42089 118.838318 
L 124.513591 118.507175 
L 124.521316 118.573403 
L 124.590842 118.176032 
L 124.601142 118.24226 
L 124.742768 117.844888 
L 124.768518 117.878003 
L 124.832894 117.579974 
L 124.838044 117.646202 
L 125.046621 116.387858 
L 125.095546 116.288515 
L 125.262922 115.460657 
L 125.265497 115.526886 
L 125.280947 115.427543 
L 125.286098 115.493771 
L 125.466349 111.65251 
L 125.489524 105.360788 
L 125.520424 14.76 
L 125.602825 100.194954 
L 125.739301 128.772615 
L 125.741876 128.739501 
L 125.906678 129.567359 
L 125.911828 129.50113 
L 125.924703 129.633587 
L 126.025129 129.468016 
L 126.027704 129.50113 
L 126.092079 129.136873 
L 126.107529 129.169987 
L 126.24143 128.540815 
L 126.269756 128.441472 
L 126.473182 127.216242 
L 126.475757 127.28247 
L 126.563308 126.851984 
L 126.568458 126.885099 
L 126.766735 125.726097 
L 126.76931 125.759212 
L 126.843985 125.295611 
L 126.872311 125.196268 
L 127.006212 124.467753 
L 127.008787 124.500867 
L 127.021662 124.401524 
L 127.158138 123.639895 
L 127.160713 123.673009 
L 127.366715 122.381551 
L 127.36929 122.447779 
L 127.44654 121.91795 
L 127.459415 121.951064 
L 127.469715 121.884836 
L 127.616492 120.92452 
L 127.626792 120.825177 
L 127.631942 120.858292 
L 127.814768 119.831748 
L 127.822493 119.732405 
L 128.03107 118.47406 
L 128.04137 118.507175 
L 128.100596 118.01046 
L 128.105746 118.01046 
L 128.57955 110.791537 
L 128.595 90.956058 
L 128.618175 15.98523 
L 128.703151 99.764468 
L 128.842202 127.8123 
L 128.844777 127.779185 
L 129.009578 128.871958 
L 129.037903 128.838844 
L 129.174379 128.342129 
L 129.18468 128.375243 
L 129.20528 128.342129 
L 129.328881 127.779185 
L 129.336606 127.8123 
L 129.403556 127.381813 
L 129.406131 127.381813 
L 129.663633 125.494297 
L 129.666208 125.527411 
L 129.733159 124.964468 
L 129.735734 124.997582 
L 129.952036 123.573666 
L 129.954611 123.606781 
L 129.967486 123.507438 
L 130.183788 122.050407 
L 130.186363 122.116636 
L 130.204388 122.017293 
L 130.41039 120.792063 
L 130.433565 120.725834 
L 130.588066 119.533719 
L 130.593216 119.566833 
L 130.649867 119.037004 
L 130.657592 119.070118 
L 130.783768 118.407832 
L 130.786343 118.440946 
L 130.848143 117.878003 
L 130.850718 117.878003 
L 131.195771 114.831485 
L 131.198346 114.864599 
L 131.242121 114.069855 
L 131.244696 114.069855 
L 131.388898 108.407306 
L 131.424948 17.707175 
L 131.509924 98.439895 
L 131.65155 126.487727 
L 131.813776 127.878528 
L 131.927077 127.580499 
L 131.934802 127.613614 
L 131.952827 127.514271 
L 132.112479 126.851984 
L 132.115054 126.885099 
L 132.189729 126.487727 
L 132.194879 126.520841 
L 132.336505 125.726097 
L 132.341655 125.759212 
L 132.406031 125.196268 
L 132.429206 125.163154 
L 132.568257 124.070381 
L 132.807734 122.414665 
L 132.810309 122.414665 
L 132.93906 121.487464 
L 133.088412 120.494034 
L 133.093562 120.527148 
L 133.160512 119.997319 
L 133.163087 120.030434 
L 133.181112 119.931091 
L 133.340764 118.672746 
L 133.348489 118.639632 
L 133.484965 117.315059 
L 133.49784 117.215716 
L 133.899543 110.65908 
L 133.922718 105.890618 
L 133.958769 18.601261 
L 134.038594 95.856978 
L 134.180221 125.527411 
L 134.370772 126.620184 
L 134.373347 126.58707 
L 134.401672 126.520841 
L 134.525273 126.024126 
L 134.409397 126.58707 
L 134.530423 126.05724 
L 134.538148 125.991012 
L 134.684925 125.030696 
L 134.720975 124.931353 
L 134.955302 123.341866 
L 134.970752 123.275637 
L 135.102078 122.215979 
L 135.104653 122.282208 
L 135.181904 121.520578 
L 135.184479 121.553693 
L 135.320955 120.427806 
L 135.32353 120.46092 
L 135.485756 119.136347 
L 135.506356 119.037004 
L 135.817934 116.420972 
L 135.820509 116.454087 
L 135.88746 115.924258 
L 135.890035 115.957372 
L 136.078011 113.937398 
L 136.080586 113.970512 
L 136.132087 113.208883 
L 136.366413 105.29456 
L 136.405039 20.753693 
L 136.487439 94.863548 
L 136.631641 124.269067 
L 136.770692 125.262497 
L 136.778417 125.229382 
L 136.799017 125.295611 
L 136.904593 124.997582 
L 136.909743 125.030696 
L 136.976693 124.567096 
L 136.979269 124.567096 
L 137.198145 123.14318 
L 137.20072 123.209409 
L 137.285696 122.547122 
L 137.288271 122.580237 
L 137.344922 121.91795 
L 137.347497 121.951064 
L 137.615299 119.931091 
L 137.628174 119.831748 
L 138.029877 116.089829 
L 138.045327 115.990486 
L 138.485656 108.904021 
L 138.521706 103.109014 
L 138.560331 21.978922 
L 138.640157 92.81046 
L 138.784358 122.812037 
L 138.797233 122.91138 
L 138.895084 123.540552 
L 138.941435 123.37498 
L 139.080486 123.010723 
L 139.083061 123.043837 
L 139.165461 122.712694 
L 139.168036 122.745808 
L 139.397213 121.222549 
L 139.402363 121.255664 
L 139.459014 120.725834 
L 139.469314 120.758949 
L 139.474464 120.792063 
L 139.711366 119.037004 
L 139.713941 119.070118 
L 139.775741 118.47406 
L 139.778316 118.47406 
L 140.064144 116.189172 
L 140.066719 116.222286 
L 140.125944 115.56 
L 140.138819 115.493771 
L 140.319071 113.705598 
L 140.331946 113.639369 
L 140.530223 111.387595 
L 140.705324 107.711905 
L 140.756825 101.122155 
L 140.798025 24.098239 
L 140.875275 89.035427 
L 141.022052 121.884836 
L 141.194578 122.712694 
L 141.315604 122.315322 
L 141.343929 122.215979 
L 141.519031 121.355007 
L 141.526756 121.388121 
L 141.596281 120.990749 
L 141.601431 120.990749 
L 141.616882 120.891406 
L 141.779108 119.500604 
L 141.781683 119.533719 
L 141.846058 118.970775 
L 141.848633 118.970775 
L 141.856359 118.904547 
L 142.023735 117.414402 
L 142.02631 117.447516 
L 142.09326 116.917687 
L 142.095836 116.917687 
L 142.245187 115.394428 
L 142.796241 106.917162 
L 142.837442 102.214928 
L 142.883792 24.926097 
L 142.963618 92.04883 
L 143.107819 121.090092 
L 143.22112 121.719264 
L 143.24172 121.68615 
L 143.334421 121.586807 
L 143.339571 121.619921 
L 143.494072 120.92452 
L 143.509522 120.990749 
L 143.568748 120.46092 
L 143.895775 117.679317 
L 143.900925 117.712431 
L 143.960151 117.083259 
L 143.978176 117.01703 
L 144.132677 115.891143 
L 144.148127 115.7918 
L 144.325804 114.069855 
L 144.809908 106.420447 
L 144.863983 102.181813 
L 144.892308 65.855401 
L 144.915484 26.780499 
L 144.995309 88.67117 
L 145.142086 119.864862 
L 145.322337 120.858292 
L 145.355812 120.92452 
L 145.435638 120.725834 
L 145.448513 120.659606 
L 145.597864 119.666176 
L 145.855366 117.745545 
L 145.870817 117.77866 
L 145.924892 117.215716 
L 145.942917 117.116373 
L 146.264795 114.400999 
L 146.26737 114.434113 
L 146.321445 113.838055 
L 146.326595 113.838055 
L 146.509422 111.983653 
L 146.980651 104.53293 
L 147.042451 98.93661 
L 147.093952 28.999159 
L 147.173777 88.969198 
L 147.320553 118.705861 
L 147.323128 118.672746 
L 147.390079 119.00389 
L 147.410679 118.937661 
L 147.52398 119.169461 
L 147.526555 119.136347 
L 147.557455 119.037004 
L 147.567755 119.070118 
L 147.729982 118.24226 
L 147.740282 118.142917 
L 147.995209 116.255401 
L 148.000359 116.321629 
L 148.057009 115.692457 
L 148.06216 115.692457 
L 148.438113 112.248568 
L 148.440688 112.314796 
L 148.517938 111.520053 
L 149.050968 103.274586 
L 149.117918 95.062234 
L 149.166844 31.284047 
L 149.241519 85.293509 
L 149.39087 117.513745 
L 149.522196 118.24226 
L 149.527347 118.209146 
L 149.638072 118.109803 
L 149.764248 117.447516 
L 149.795149 117.414402 
L 149.931625 116.387858 
L 150.207152 114.235427 
L 150.209727 114.268541 
L 150.268953 113.606255 
L 150.271528 113.672484 
L 151.18051 100.658555 
L 151.22686 87.114796 
L 151.270636 32.972878 
L 151.340161 81.750276 
L 151.492088 115.692457 
L 151.494663 115.659343 
L 151.584788 116.122943 
L 151.618264 115.990486 
L 151.713539 116.056715 
L 151.74959 116.156058 
L 151.793365 115.924258 
L 151.819115 115.957372 
L 151.986492 115.228857 
L 152.017392 115.129514 
L 152.241419 113.606255 
L 152.243994 113.672484 
L 152.323819 113.043311 
L 152.331545 113.10954 
L 152.516946 111.188909 
L 152.519521 111.222024 
L 152.583897 110.625966 
L 152.771873 108.605992 
L 152.784748 108.506649 
L 153.0062 105.658817 
L 153.168426 102.148699 
L 153.266277 91.58523 
L 153.320353 34.032536 
L 153.392453 82.081419 
L 153.546955 115.692457 
L 153.55468 115.725572 
L 153.61133 116.255401 
L 153.675706 116.222286 
L 153.796732 115.990486 
L 153.729781 116.255401 
L 153.801882 116.023601 
L 153.840507 115.957372 
L 153.974408 115.228857 
L 153.976983 115.3282 
L 154.069684 114.798371 
L 154.072259 114.798371 
L 154.255085 112.943968 
L 154.265385 112.844625 
L 154.556363 110.493509 
L 154.558938 110.559737 
L 154.628463 109.731879 
L 154.633613 109.731879 
L 154.927166 104.731616 
L 154.937466 104.764731 
L 154.942616 104.797845 
L 154.978666 103.936873 
L 155.128018 97.446465 
L 155.171793 72.080894 
L 155.205268 34.496137 
L 155.277369 80.160788 
L 155.439595 114.533456 
L 155.521996 115.295085 
L 155.576071 115.228857 
L 155.735723 114.599685 
L 155.748598 114.500342 
L 155.905674 113.904284 
L 155.913399 113.804941 
L 156.155451 112.049882 
L 156.158026 112.11611 
L 156.237852 111.387595 
L 157.000058 100.228068 
L 157.100484 89.763942 
L 157.162284 37.04594 
L 157.234385 80.425703 
L 157.394036 113.672484 
L 157.548537 114.367884 
L 157.553687 114.301656 
L 157.679863 114.003627 
L 157.710764 114.136084 
L 157.780289 113.705598 
L 157.782864 113.738712 
L 157.999166 112.381025 
L 158.012041 112.281682 
L 158.161392 111.288252 
L 158.163967 111.321367 
L 158.233493 110.791537 
L 158.527045 108.374192 
L 158.52962 108.407306 
L 158.552796 108.307963 
L 159.284102 97.47958 
L 159.333027 93.439632 
L 159.376802 78.505072 
L 159.423153 39.065913 
L 159.487528 75.392326 
L 159.654905 112.414139 
L 159.65748 112.381025 
L 159.732155 112.811511 
L 159.801681 113.010197 
L 159.73988 112.778397 
L 159.853181 112.943968 
L 159.876356 112.844625 
L 160.002533 112.546597 
L 159.881507 112.87774 
L 160.007683 112.579711 
L 160.012833 112.64594 
L 160.090083 112.248568 
L 160.095233 112.314796 
L 160.365611 110.261708 
L 160.378486 110.162365 
L 160.731264 107.049619 
L 160.733839 107.082733 
L 160.811089 106.652247 
L 160.993916 104.764731 
L 160.999066 104.731616 
L 161.169017 102.446728 
L 161.187042 102.347385 
L 161.413644 98.042523 
L 161.55527 88.505598 
L 161.601621 59.994166 
L 161.629946 42.377346 
L 161.696896 74.531353 
L 161.861698 110.692194 
L 162.003324 111.851196 
L 162.013624 111.818081 
L 162.13465 111.586281 
L 162.021349 111.851196 
L 162.137225 111.619396 
L 162.14495 111.718739 
L 162.224776 111.42071 
L 162.232501 111.42071 
L 162.443653 110.096137 
L 162.446228 110.129251 
L 162.508028 109.533193 
L 162.914881 105.725046 
L 162.920031 105.625703 
L 163.082258 104.30113 
L 163.089983 104.201787 
L 163.785239 93.837004 
L 163.859914 89.234113 
L 163.926865 69.266176 
L 163.97064 46.351064 
L 164.029866 71.849093 
L 164.204967 108.274849 
L 164.323418 109.235164 
L 164.338868 109.20205 
L 164.354318 109.135821 
L 164.418694 109.533193 
L 164.428994 109.466965 
L 164.457319 109.66565 
L 164.531995 109.268279 
L 164.627271 109.168936 
L 164.640146 109.20205 
L 164.861597 107.579448 
L 164.864172 107.612562 
L 164.943998 107.281419 
L 164.949148 107.281419 
L 165.13455 106.321104 
L 165.152575 106.254875 
L 165.314801 104.930302 
L 165.317376 104.963417 
L 165.379177 104.367359 
L 165.78088 100.62544 
L 165.79118 100.526097 
L 166.180008 96.850407 
L 166.185158 96.883522 
L 166.190308 96.916636 
L 166.241809 96.188121 
L 166.40146 94.896662 
L 166.414335 94.797319 
L 166.455536 94.532405 
L 166.501886 95.062234 
L 166.525061 94.764205 
L 166.563686 94.664862 
L 166.707888 93.770775 
L 166.733638 93.903233 
L 166.823764 94.333719 
L 166.849514 94.135033 
L 166.913889 93.737661 
L 166.952515 94.333719 
L 166.957665 94.300604 
L 167.004015 95.095348 
L 167.01174 95.194691 
L 167.130191 95.856978 
L 167.145641 95.790749 
L 167.212592 95.757635 
L 167.294992 96.287464 
L 167.297567 96.25435 
L 167.351643 96.883522 
L 167.361943 96.850407 
L 167.385118 96.94975 
L 167.405718 97.115322 
L 167.462369 96.883522 
L 167.498419 97.049093 
L 167.506144 96.94975 
L 167.55507 97.214665 
L 167.609145 97.049093 
L 167.65807 97.181551 
L 167.727596 96.94975 
L 167.735321 97.115322 
L 167.820297 96.784179 
L 167.835747 96.916636 
L 167.853772 96.850407 
L 167.905272 97.115322 
L 167.931023 97.082208 
L 167.974798 97.214665 
L 168.023723 96.94975 
L 168.028873 96.982865 
L 168.1602 96.453035 
L 168.2117 96.519264 
L 168.250325 96.618607 
L 168.312126 96.320578 
L 168.314701 96.353693 
L 168.332726 96.419921 
L 168.420277 96.519264 
L 168.366201 96.386807 
L 168.443452 96.419921 
L 168.458902 96.320578 
L 168.564478 96.155007 
L 168.474352 96.386807 
L 168.574778 96.221235 
L 168.600528 96.287464 
L 168.631428 96.055664 
L 168.677779 96.155007 
L 168.708679 95.989435 
L 168.77563 96.188121 
L 168.78078 96.188121 
L 168.788505 96.287464 
L 168.865755 95.72452 
L 168.87348 95.757635 
L 168.914681 95.658292 
L 169.020257 95.194691 
L 169.040857 95.294034 
L 169.056307 95.49272 
L 169.141283 94.962891 
L 169.146433 94.962891 
L 169.161883 94.896662 
L 169.205658 95.062234 
L 169.246858 95.062234 
L 169.252008 95.095348 
L 169.318959 94.598633 
L 169.44256 94.26749 
L 169.532686 94.201261 
L 169.664012 93.638318 
L 169.844263 94.598633 
L 169.846838 94.532405 
L 169.929239 94.830434 
L 169.949839 94.731091 
L 169.957564 94.863548 
L 170.039965 94.631748 
L 170.055415 94.697976 
L 170.060565 94.664862 
L 170.086315 94.929777 
L 170.153266 94.830434 
L 170.209916 94.764205 
L 170.266567 94.929777 
L 170.297467 95.02912 
L 170.333517 95.194691 
L 170.410768 95.128463 
L 170.529219 94.896662 
L 170.547244 94.996005 
L 170.593594 95.194691 
L 170.64767 94.863548 
L 170.670845 94.797319 
L 170.784146 94.49929 
L 170.791871 94.532405 
L 170.887147 94.26749 
L 170.807321 94.565519 
L 170.910322 94.433062 
L 170.995298 94.863548 
L 171.031348 94.764205 
L 171.033923 94.731091 
L 171.093149 95.02912 
L 171.121474 94.962891 
L 171.24765 95.426491 
L 171.358376 94.996005 
L 171.371251 95.062234 
L 171.489702 95.558949 
L 171.497427 95.525834 
L 171.515452 95.426491 
L 171.592703 95.691406 
L 171.597853 95.658292 
L 171.621028 95.757635 
L 171.672528 95.393377 
L 171.682828 95.393377 
L 171.690553 95.426491 
L 171.829605 94.466176 
L 171.86308 94.565519 
L 171.865655 94.598633 
L 171.917155 93.969461 
L 171.91973 93.969461 
L 172.051056 93.108489 
L 172.053631 93.141603 
L 172.097407 92.678003 
L 172.130882 92.711117 
L 172.267358 91.651459 
L 172.285383 91.552116 
L 172.378084 91.022286 
L 172.43216 91.088515 
L 172.553186 91.419658 
L 172.560911 91.35343 
L 172.591811 91.287201 
L 172.645886 91.519001 
L 172.663911 91.452773 
L 172.694812 91.552116 
L 172.702537 91.519001 
L 172.823563 92.015716 
L 172.836438 91.982602 
L 173.008964 93.009146 
L 173.014114 92.976032 
L 173.081065 93.472746 
L 173.08364 93.472746 
L 173.240716 94.135033 
L 173.245866 94.03569 
L 173.307667 94.664862 
L 173.335992 94.598633 
L 173.354017 94.764205 
L 173.449293 94.664862 
L 173.554869 94.896662 
L 173.469893 94.631748 
L 173.567744 94.797319 
L 173.629544 94.830434 
L 173.686195 94.565519 
L 173.722245 94.664862 
L 173.758295 94.764205 
L 173.799496 94.399947 
L 173.820096 94.399947 
L 173.959147 93.80389 
L 173.972022 93.870118 
L 173.984897 93.969461 
L 174.005498 94.068804 
L 174.056998 93.538975 
L 174.175449 93.009146 
L 174.183174 93.108489 
L 174.190899 93.075375 
L 174.250125 92.744231 
L 174.214074 93.108489 
L 174.3042 92.976032 
L 174.461276 92.148173 
L 174.317075 93.009146 
L 174.469001 92.280631 
L 174.510202 92.479317 
L 174.574577 92.313745 
L 174.662128 91.982602 
L 174.690453 92.04883 
L 174.798604 92.214402 
L 174.729078 92.015716 
L 174.806329 92.148173 
L 174.824354 92.015716 
L 174.906755 92.346859 
L 174.90933 92.346859 
L 174.92478 92.446202 
L 174.947955 92.611774 
L 175.012331 92.313745 
L 175.035506 92.479317 
L 175.040656 92.446202 
L 175.074131 92.81046 
L 175.133357 92.644888 
L 175.143657 92.678003 
L 175.213182 92.247516 
L 175.313608 91.684573 
L 175.334208 91.949488 
L 175.347084 92.04883 
L 175.432059 92.280631 
L 175.352234 92.015716 
L 175.462959 92.181288 
L 175.511885 92.247516 
L 175.54536 92.346859 
L 175.583985 92.015716 
L 175.617461 92.115059 
L 175.622611 92.181288 
L 175.756512 92.843574 
L 175.771962 92.777346 
L 175.831187 93.27406 
L 175.833763 93.307175 
L 175.918738 93.009146 
L 176.065514 92.346859 
L 175.936763 93.04226 
L 176.075814 92.413088 
L 176.091265 92.346859 
L 176.212291 91.651459 
L 176.14019 92.379974 
L 176.217441 91.684573 
L 176.325592 92.148173 
L 176.346192 91.916373 
L 176.374517 91.883259 
L 176.418292 92.081945 
L 176.444043 92.04883 
L 176.547043 92.678003 
L 176.593394 92.545545 
L 176.74532 91.485887 
L 176.77622 91.58523 
L 176.814846 91.684573 
L 176.845746 91.386544 
L 176.879221 91.485887 
L 177.046597 90.426229 
L 177.062048 90.558686 
L 177.095523 90.757372 
L 177.139298 90.426229 
L 177.175349 90.5918 
L 177.193374 90.525572 
L 177.195949 90.426229 
L 177.273199 90.757372 
L 177.296375 90.724258 
L 177.3556 90.856715 
L 177.3762 90.658029 
L 177.404525 90.790486 
L 177.502376 90.525572 
L 177.515251 90.691143 
L 177.543577 90.823601 
L 177.605377 90.459343 
L 177.610527 90.492457 
L 177.690353 90.459343 
L 177.628552 90.624915 
L 177.710953 90.5918 
L 177.852579 91.320315 
L 177.868029 91.187858 
L 177.989055 90.691143 
L 178.053431 90.956058 
L 178.097206 90.658029 
L 178.099781 90.724258 
L 178.102356 90.691143 
L 178.148707 90.956058 
L 178.195057 90.922943 
L 178.341833 91.850145 
L 178.370158 91.949488 
L 178.493759 92.247516 
L 178.375308 91.916373 
L 178.501484 92.214402 
L 178.56586 92.280631 
L 178.59676 92.57866 
L 178.655986 92.247516 
L 178.676586 92.280631 
L 178.717786 92.181288 
L 178.761562 92.313745 
L 178.843962 91.916373 
L 178.846537 91.982602 
L 178.936663 91.552116 
L 178.939238 91.58523 
L 179.086014 91.055401 
L 179.12979 91.220972 
L 179.178715 90.889829 
L 179.189015 90.889829 
L 179.225065 90.790486 
L 179.379567 90.161314 
L 179.382142 90.194428 
L 179.467117 90.326886 
L 179.400167 90.161314 
L 179.498018 90.260657 
L 179.528918 90.161314 
L 179.665394 89.565256 
L 179.683419 89.598371 
L 179.727194 89.631485 
L 179.858521 90.426229 
L 179.938346 90.823601 
L 179.979547 90.691143 
L 179.984697 90.724258 
L 180.118598 90.326886 
L 180.149498 90.227543 
L 180.234474 89.598371 
L 180.278249 89.763942 
L 180.301424 89.830171 
L 180.322024 89.797057 
L 180.419875 90.028857 
L 180.510001 90.525572 
L 180.556351 90.36 
L 180.576951 90.260657 
L 180.584677 90.161314 
L 180.651627 90.724258 
L 180.754628 91.022286 
L 180.656777 90.691143 
L 180.770078 90.922943 
L 180.834454 90.823601 
L 180.95548 90.061971 
L 180.994105 90.161314 
L 181.030155 90.36 
L 181.104831 90.161314 
L 181.143456 90.095085 
L 181.146031 90.028857 
L 181.218132 90.525572 
L 181.241307 90.426229 
L 181.269632 90.558686 
L 181.303107 90.293771 
L 181.357183 90.492457 
L 181.367483 90.5918 
L 181.439584 90.956058 
L 181.488509 90.856715 
L 181.491084 90.889829 
L 181.558035 90.393114 
L 181.56576 90.426229 
L 181.64816 90.36 
L 181.650735 90.293771 
L 181.66361 90.459343 
L 181.753736 90.426229 
L 181.828412 90.956058 
L 181.892787 90.790486 
L 181.928838 90.691143 
L 182.083339 90.028857 
L 182.088489 90.061971 
L 182.101364 90.161314 
L 182.20694 90.426229 
L 182.22239 90.293771 
L 182.320241 89.995742 
L 182.24299 90.393114 
L 182.335691 90.260657 
L 182.348566 90.161314 
L 182.410367 89.863285 
L 182.451567 90.227543 
L 182.456717 90.194428 
L 182.500492 90.095085 
L 182.518517 90.194428 
L 182.660144 89.465913 
L 182.675594 89.499028 
L 182.678169 89.598371 
L 182.768294 88.936084 
L 182.770869 88.936084 
L 182.783745 88.869855 
L 182.85327 89.300342 
L 182.87387 89.200999 
L 182.87902 89.167884 
L 182.953696 89.532142 
L 182.956271 89.532142 
L 183.110772 90.095085 
L 183.115922 90.061971 
L 183.195748 90.36 
L 183.198323 90.36 
L 183.357974 91.088515 
L 183.218923 90.293771 
L 183.360549 91.022286 
L 183.4275 90.691143 
L 183.4893 90.790486 
L 183.512476 90.691143 
L 183.638652 90.293771 
L 183.648952 90.36 
L 183.705602 90.293771 
L 183.839503 89.36657 
L 183.947654 89.465913 
L 183.883279 89.13477 
L 183.950229 89.399685 
L 184.120181 89.300342 
L 184.151081 89.399685 
L 184.279832 88.67117 
L 184.344207 88.836741 
L 184.393133 88.770512 
L 184.416308 88.836741 
L 184.478108 88.704284 
L 184.509009 93.704547 
L 184.70986 119.368147 
L 185.142464 131.786018 
L 185.706394 137.647254 
L 185.708969 137.614139 
L 185.768194 138.110854 
L 185.781069 138.044625 
L 185.907245 138.706912 
L 185.938145 138.773141 
L 185.945871 138.740026 
L 186.069472 139.336084 
L 186.123547 139.435427 
L 186.270323 139.899028 
L 186.275473 139.799685 
L 186.357874 140.097714 
L 186.365599 140.097714 
L 186.476325 140.495085 
L 186.4892 140.461971 
L 186.5201 140.495085 
L 186.633401 140.76 
L 186.635976 140.726886 
L 186.690052 140.627543 
L 186.749277 140.826229 
L 186.782752 140.76 
L 186.841978 140.925572 
L 186.854853 140.859343 
L 186.914078 140.9918 
L 186.968154 140.958686 
L 186.999054 140.826229 
L 187.006779 140.9918 
L 187.07888 140.958686 
L 187.470283 141.024915 
L 187.573284 141.124258 
L 187.496033 140.9918 
L 187.583584 141.091143 
L 187.895162 141.157372 
L 187.969837 141.256715 
L 187.908037 141.124258 
L 188.005887 141.223601 
L 188.031638 141.256715 
L 188.119188 141.124258 
L 188.147514 141.223601 
L 188.183564 141.091143 
L 188.229914 141.124258 
L 188.36124 141.058029 
L 188.477116 140.925572 
L 188.585267 140.76 
L 188.598142 140.793114 
L 188.654793 140.826229 
L 188.690843 140.660657 
L 188.708868 140.793114 
L 188.780969 140.660657 
L 188.804144 140.826229 
L 188.819594 140.793114 
L 188.958645 140.76 
L 188.96122 140.660657 
L 189.064221 140.826229 
L 189.066796 140.76 
L 189.077096 140.826229 
L 189.141472 140.693771 
L 189.174947 140.726886 
L 189.249623 140.627543 
L 189.208422 140.859343 
L 189.285673 140.726886 
L 189.324298 140.826229 
L 189.326873 140.660657 
L 189.396399 140.76 
L 189.406699 140.693771 
L 189.476225 140.859343 
L 189.507125 140.726886 
L 189.584375 140.826229 
L 189.5715 140.627543 
L 189.615276 140.726886 
L 189.666776 140.826229 
L 189.728577 140.660657 
L 189.751752 140.726886 
L 189.759477 140.594428 
L 189.841878 140.693771 
L 189.924278 140.5282 
L 189.955178 140.627543 
L 190.09938 140.5282 
L 190.148305 140.561314 
L 190.220406 140.395742 
L 190.323406 140.5282 
L 190.338857 140.495085 
L 190.385207 140.395742 
L 190.431557 140.428857 
L 190.506233 140.263285 
L 190.678759 140.197057 
L 190.77146 140.130828 
L 190.701935 140.230171 
L 190.789485 140.163942 
L 190.80751 140.197057 
L 190.828111 140.031485 
L 190.895061 140.130828 
L 190.907936 140.163942 
L 191.010937 140.031485 
L 191.023812 140.097714 
L 191.108788 139.932142 
L 191.116513 139.965256 
L 191.137113 140.031485 
L 191.227239 139.932142 
L 191.232389 139.998371 
L 191.255564 139.865913 
L 191.33539 139.899028 
L 191.374015 139.965256 
L 191.448691 139.832799 
L 191.546542 139.899028 
L 191.464141 139.799685 
L 191.559417 139.865913 
L 192.239222 139.965256 
L 192.249522 139.899028 
L 192.352523 140.031485 
L 192.360248 140.097714 
L 192.468399 139.965256 
L 192.481274 139.998371 
L 192.537925 139.865913 
L 192.57655 139.932142 
L 192.62805 139.832799 
L 192.635775 139.965256 
L 192.689851 139.899028 
L 192.738776 139.965256 
L 192.779977 140.031485 
L 192.769677 139.932142 
L 192.849502 139.998371 
L 193.112154 140.064599 
L 193.114729 140.163942 
L 193.168805 139.965256 
L 193.22288 140.064599 
L 193.323306 139.965256 
L 193.336181 139.998371 
L 193.428882 139.899028 
L 193.431457 139.865913 
L 193.444332 140.031485 
L 193.531883 139.998371 
L 193.622009 140.097714 
L 193.665784 140.031485 
L 193.735309 140.197057 
L 193.825435 140.064599 
L 193.851185 140.130828 
L 194.206538 140.031485 
L 194.314689 139.932142 
L 194.214263 140.064599 
L 194.322414 139.965256 
L 194.43829 140.031485 
L 194.440865 140.097714 
L 194.451165 139.965256 
L 194.546441 139.965256 
L 194.610817 140.064599 
L 194.615967 140.130828 
L 194.657167 139.998371 
L 194.721543 140.064599 
L 194.724118 139.998371 
L 194.814243 140.130828 
L 194.829693 140.097714 
L 194.834844 140.197057 
L 194.930119 140.031485 
L 194.940419 140.097714 
L 195.385898 140.163942 
L 195.439973 140.230171 
L 195.421948 140.097714 
L 195.494049 140.130828 
L 195.62795 140.031485 
L 195.6743 139.965256 
L 195.692326 140.097714 
L 195.733526 140.031485 
L 195.803051 140.097714 
L 195.767001 139.965256 
L 195.841677 139.998371 
L 195.882877 140.064599 
L 195.916352 140.130828 
L 195.918927 140.031485 
L 195.991028 140.064599 
L 196.047678 139.965256 
L 196.076004 140.163942 
L 196.101754 140.064599 
L 196.130079 140.031485 
L 196.215055 140.130828 
L 196.266555 139.998371 
L 196.325781 140.064599 
L 196.410756 140.130828 
L 196.377281 139.998371 
L 196.436507 140.097714 
L 196.493157 139.932142 
L 196.557533 139.965256 
L 196.575558 139.998371 
L 196.621908 139.865913 
L 196.668259 139.965256 
L 196.686284 139.865913 
L 196.740359 140.031485 
L 196.773834 140.031485 
L 196.85366 140.163942 
L 196.781559 139.998371 
L 196.88456 140.064599 
L 196.907736 140.031485 
L 196.930911 140.163942 
L 196.992711 140.097714 
L 197.075112 140.263285 
L 197.106012 140.230171 
L 197.139487 140.163942 
L 197.167813 140.296399 
L 197.216738 140.230171 
L 197.324889 140.163942 
L 197.234763 140.296399 
L 197.327464 140.197057 
L 197.42789 140.296399 
L 197.363514 140.163942 
L 197.43819 140.197057 
L 198.220996 140.230171 
L 198.223571 140.329514 
L 198.300822 140.130828 
L 198.331722 140.230171 
L 198.408973 140.197057 
L 198.342022 140.296399 
L 198.434723 140.263285 
L 198.483648 140.362628 
L 198.519699 140.230171 
L 198.545449 140.296399 
L 198.738576 140.362628 
L 198.823551 140.428857 
L 198.746301 140.329514 
L 198.849301 140.362628 
L 198.960027 140.296399 
L 198.882777 140.428857 
L 198.962602 140.329514 
L 199.155729 140.263285 
L 199.158304 140.163942 
L 199.212379 140.362628 
L 199.26388 140.329514 
L 199.33598 140.163942 
L 199.379756 140.197057 
L 199.433831 140.362628 
L 199.495632 140.329514 
L 199.541982 140.296399 
L 199.554857 140.163942 
L 199.632108 140.395742 
L 199.650133 140.296399 
L 199.735109 140.362628 
L 199.683608 140.230171 
L 199.760859 140.296399 
L 199.86901 140.395742 
L 199.871585 140.461971 
L 199.933385 140.230171 
L 199.974586 140.296399 
L 200.015786 140.197057 
L 200.100762 140.163942 
L 200.036386 140.362628 
L 200.123937 140.230171 
L 200.201188 140.329514 
L 200.136812 140.197057 
L 200.239813 140.296399 
L 200.456115 140.362628 
L 200.54109 140.495085 
L 200.466415 140.329514 
L 200.569416 140.428857 
L 200.682717 140.627543 
L 200.690442 140.561314 
L 200.996869 140.461971 
L 201.002019 140.395742 
L 201.025194 140.561314 
L 201.102445 140.5282 
L 201.254371 140.461971 
L 201.256946 140.395742 
L 201.287846 140.561314 
L 201.362522 140.461971 
L 201.486123 140.627543 
L 201.601999 140.495085 
L 201.69985 140.561314 
L 201.617449 140.461971 
L 201.712725 140.495085 
L 201.846626 140.5282 
L 201.856926 140.495085 
L 201.957352 140.627543 
L 202.006277 140.561314 
L 202.042328 140.693771 
L 202.068078 140.627543 
L 202.122153 140.5282 
L 202.127303 140.495085 
L 202.168504 140.627543 
L 202.225154 140.5282 
L 202.227729 140.627543 
L 202.232879 140.495085 
L 202.33588 140.561314 
L 202.364205 140.627543 
L 202.402831 140.461971 
L 202.444031 140.5282 
L 202.513557 140.461971 
L 202.539307 140.594428 
L 202.549607 140.594428 
L 202.637158 140.5282 
L 202.639733 140.461971 
L 202.650033 140.627543 
L 202.745308 140.561314 
L 202.830284 140.726886 
L 202.858609 140.627543 
L 202.871484 140.726886 
L 202.964185 140.561314 
L 203.123837 140.495085 
L 203.190787 140.395742 
L 203.157312 140.5282 
L 203.237137 140.428857 
L 203.244863 140.395742 
L 203.353013 140.5282 
L 203.378764 140.428857 
L 203.412239 140.561314 
L 203.466314 140.495085 
L 203.723816 140.561314 
L 203.806217 140.627543 
L 203.819092 140.5282 
L 203.834542 140.561314 
L 203.934968 140.461971 
L 203.880893 140.594428 
L 203.947843 140.495085 
L 203.958143 140.5282 
L 203.986469 140.395742 
L 204.055994 140.495085 
L 204.081744 140.329514 
L 204.174445 140.395742 
L 204.444822 140.495085 
L 204.542673 140.561314 
L 204.460273 140.428857 
L 204.558123 140.5282 
L 204.900601 140.428857 
L 204.905751 140.461971 
L 205.019052 140.329514 
L 205.052527 140.428857 
L 205.088578 140.263285 
L 205.132353 140.362628 
L 205.204454 140.263285 
L 205.281704 140.197057 
L 205.217329 140.329514 
L 205.31003 140.230171 
L 205.42333 140.329514 
L 205.595857 140.428857 
L 205.649932 140.495085 
L 205.626757 140.329514 
L 205.701433 140.362628 
L 205.994985 140.296399 
L 206.092836 140.197057 
L 206.005285 140.329514 
L 206.108286 140.230171 
L 206.296263 140.230171 
L 206.394113 140.362628 
L 206.406989 140.230171 
L 206.937443 140.296399 
L 207.048169 140.461971 
L 207.050744 140.428857 
L 207.148595 140.329514 
L 207.16662 140.362628 
L 207.230995 140.428857 
L 207.259321 140.296399 
L 207.274771 140.329514 
L 207.382922 140.263285 
L 207.279921 140.362628 
L 207.388072 140.296399 
L 207.650724 140.230171 
L 207.753725 140.130828 
L 207.681624 140.296399 
L 207.764025 140.163942 
L 207.869601 140.064599 
L 207.949426 139.998371 
L 207.879901 140.130828 
L 207.980326 140.031485 
L 208.016377 140.064599 
L 208.067877 139.932142 
L 208.085902 139.998371 
L 208.139978 139.899028 
L 208.111653 140.031485 
L 208.199203 139.965256 
L 208.276454 140.064599 
L 208.212078 139.899028 
L 208.312504 140.031485 
L 208.325379 140.064599 
L 208.425805 139.965256 
L 208.430955 140.097714 
L 208.541681 140.031485 
L 209.097886 140.130828 
L 209.100461 140.163942 
L 209.188011 140.031485 
L 209.206037 140.097714 
L 209.499589 140.031485 
L 209.504739 139.965256 
L 209.553664 140.130828 
L 209.60774 140.097714 
L 209.64894 140.064599 
L 209.682415 140.163942 
L 209.713316 140.130828 
L 209.816317 140.329514 
L 209.723616 140.097714 
L 209.831767 140.230171 
L 210.26952 140.163942 
L 210.333896 140.097714 
L 210.349346 140.263285 
L 210.377671 140.163942 
L 210.426597 140.230171 
L 210.480672 140.064599 
L 210.483247 140.097714 
L 210.493547 140.031485 
L 210.511572 139.965256 
L 210.583673 140.097714 
L 210.601698 140.064599 
L 210.635173 139.998371 
L 210.720149 139.899028 
L 210.645473 140.031485 
L 210.743324 140.031485 
L 210.908125 140.130828 
L 210.915851 140.064599 
L 211.021426 140.197057 
L 211.106402 140.064599 
L 211.132152 140.163942 
L 211.237728 140.230171 
L 211.160478 140.130828 
L 211.242878 140.197057 
L 211.340729 140.130828 
L 211.258328 140.230171 
L 211.353604 140.197057 
L 211.451455 140.097714 
L 211.40768 140.263285 
L 211.46433 140.163942 
L 211.575056 140.296399 
L 211.482355 140.130828 
L 211.582781 140.263285 
L 211.590506 140.230171 
L 211.667757 140.428857 
L 211.683207 140.395742 
L 211.917534 140.329514 
L 212.030835 140.230171 
L 212.131261 140.329514 
L 212.144136 140.263285 
L 212.252287 140.495085 
L 212.293487 140.428857 
L 212.350137 140.594428 
L 212.360437 140.5282 
L 212.445413 140.627543 
L 212.507214 140.693771 
L 212.455713 140.561314 
L 212.550989 140.627543 
L 212.553564 140.561314 
L 212.587039 140.693771 
L 212.65914 140.693771 
L 212.67974 140.561314 
L 212.775016 140.594428 
L 212.875442 140.693771 
L 212.823941 140.561314 
L 212.890892 140.660657 
L 212.898617 140.5282 
L 212.944967 140.693771 
L 213.004193 140.627543 
L 213.418771 140.693771 
L 213.459971 140.660657 
L 213.532072 140.76 
L 213.570697 140.660657 
L 213.611898 140.793114 
L 213.642798 140.76 
L 213.871975 140.859343 
L 213.882275 140.793114 
L 213.987851 140.958686 
L 214.075401 140.793114 
L 214.101152 140.859343 
L 214.209303 140.9918 
L 214.139777 140.826229 
L 214.214453 140.958686 
L 214.47453 140.925572 
L 214.54148 140.826229 
L 214.580106 141.024915 
L 214.582681 140.9918 
L 215.097685 140.925572 
L 215.200686 140.793114 
L 215.113135 140.9918 
L 215.210986 140.826229 
L 215.277936 141.024915 
L 215.326862 140.925572 
L 215.393812 140.826229 
L 215.435013 140.958686 
L 216.027268 140.892457 
L 216.143143 140.726886 
L 216.181769 140.693771 
L 216.248719 140.793114 
L 216.33112 140.660657 
L 216.359445 140.726886 
L 216.609222 140.826229 
L 216.694198 140.892457 
L 216.652998 140.76 
L 216.714798 140.76 
L 217.008351 140.693771 
L 217.124227 140.5282 
L 217.168002 140.594428 
L 217.219502 140.362628 
L 217.232377 140.5282 
L 217.335378 140.362628 
L 217.345678 140.395742 
L 217.350828 140.461971 
L 217.430654 140.329514 
L 217.451254 140.362628 
L 217.453829 140.329514 
L 217.50533 140.461971 
L 217.549105 140.428857 
L 217.55168 140.5282 
L 217.646956 140.362628 
L 217.659831 140.495085 
L 217.711331 140.428857 
L 217.670131 140.5282 
L 217.765407 140.5282 
L 217.773132 140.495085 
L 217.878708 140.561314 
L 218.239211 140.627543 
L 218.337061 140.726886 
L 218.331911 140.594428 
L 218.349937 140.660657 
L 218.434912 140.594428 
L 218.401437 140.76 
L 218.458087 140.726886 
L 218.535338 140.793114 
L 218.625464 140.892457 
L 218.558513 140.76 
L 218.648639 140.859343 
L 218.82374 140.793114 
L 218.828891 140.826229 
L 218.937041 140.693771 
L 218.991117 140.627543 
L 219.050342 140.726886 
L 219.302694 140.627543 
L 219.305269 140.594428 
L 219.318145 140.726886 
L 219.405695 140.693771 
L 219.485521 140.561314 
L 219.521571 140.76 
L 219.640022 140.660657 
L 219.740448 140.76 
L 219.750748 140.693771 
L 220.108676 140.76 
L 220.188502 140.859343 
L 220.160176 140.660657 
L 220.219402 140.793114 
L 220.330128 140.76 
L 220.332703 140.660657 
L 220.340428 140.826229 
L 220.438279 140.793114 
L 220.860582 140.892457 
L 220.973883 141.091143 
L 220.981608 141.058029 
L 221.087184 140.925572 
L 221.097484 140.958686 
L 221.130959 141.024915 
L 221.120659 140.892457 
L 221.20306 140.892457 
L 221.290611 140.76 
L 221.321511 140.793114 
L 221.360136 140.826229 
L 221.401337 140.660657 
L 221.429662 140.76 
L 221.504337 140.693771 
L 221.463137 140.826229 
L 221.540388 140.726886 
L 221.550688 140.693771 
L 221.656264 140.793114 
L 221.764415 140.693771 
L 221.702614 140.826229 
L 221.769565 140.726886 
L 221.80304 140.693771 
L 221.82879 140.859343 
L 221.875141 140.793114 
L 221.898316 140.892457 
L 221.988441 140.958686 
L 221.921491 140.859343 
L 222.009042 140.925572 
L 222.114617 140.793114 
L 222.127493 140.826229 
L 222.426195 140.925572 
L 222.462245 140.958686 
L 222.495721 140.826229 
L 222.531771 140.859343 
L 223.005575 140.76 
L 223.021025 140.793114 
L 223.121451 140.660657 
L 223.157501 140.793114 
L 223.190976 140.627543 
L 223.234752 140.693771 
L 223.61843 140.76 
L 223.724006 140.892457 
L 223.731731 140.826229 
L 223.917132 140.726886 
L 223.935157 140.826229 
L 224.030433 140.627543 
L 224.120559 140.693771 
L 224.069059 140.594428 
L 224.141159 140.627543 
L 224.385786 140.726886 
L 224.493937 140.859343 
L 224.396086 140.660657 
L 224.499087 140.793114 
L 224.784914 140.793114 
L 224.841565 140.660657 
L 224.89564 140.693771 
L 225.379744 140.793114 
L 225.456995 140.892457 
L 225.41837 140.693771 
L 225.493045 140.826229 
L 225.614071 140.693771 
L 225.699047 140.660657 
L 225.727372 140.793114 
L 225.902474 140.693771 
L 226.000324 140.627543 
L 225.917924 140.76 
L 226.015775 140.660657 
L 226.046675 140.693771 
L 226.077575 140.561314 
L 226.123925 140.627543 
L 226.196026 140.5282 
L 226.237226 140.561314 
L 226.311902 140.693771 
L 226.347952 140.594428 
L 226.626055 140.495085 
L 226.651805 140.461971 
L 226.713605 140.594428 
L 226.73163 140.5282 
L 226.793431 140.428857 
L 226.842356 140.594428 
L 226.901582 140.461971 
L 226.955657 140.561314 
L 227.099858 140.660657 
L 227.143634 140.594428 
L 227.215734 140.76 
L 227.308435 140.726886 
L 227.241485 140.826229 
L 227.32131 140.793114 
L 227.401136 140.693771 
L 227.434611 140.826229 
L 227.498987 140.76 
L 227.493837 140.892457 
L 227.545337 140.826229 
L 228.402819 140.76 
L 228.413119 140.793114 
L 228.51612 140.693771 
L 228.54702 140.76 
L 228.613971 140.627543 
L 228.626846 140.693771 
L 228.662896 140.793114 
L 228.773622 140.892457 
L 228.691221 140.693771 
L 228.778772 140.859343 
L 228.928123 140.76 
L 229.023399 140.726886 
L 228.948724 140.826229 
L 229.036274 140.793114 
L 229.216526 140.693771 
L 229.322102 140.660657 
L 229.239701 140.793114 
L 229.324677 140.693771 
L 229.435403 140.76 
L 229.371027 140.660657 
L 229.437978 140.726886 
L 229.559004 140.826229 
L 229.574454 140.859343 
L 229.597629 140.726886 
L 229.667154 140.793114 
L 229.76758 140.693771 
L 229.780455 140.76 
L 229.852556 140.793114 
L 229.868006 140.660657 
L 229.880881 140.660657 
L 229.916932 140.726886 
L 229.996757 140.594428 
L 230.215634 140.5282 
L 230.218209 140.461971 
L 230.282585 140.693771 
L 230.318635 140.627543 
L 230.424211 140.76 
L 230.431936 140.726886 
L 230.460261 140.627543 
L 230.462836 140.76 
L 230.545237 140.660657 
L 230.622487 140.76 
L 230.552962 140.594428 
L 230.658538 140.693771 
L 230.676563 140.726886 
L 230.779564 140.561314 
L 230.898015 140.660657 
L 230.944365 140.561314 
L 231.037066 140.428857 
L 231.060241 140.461971 
L 231.129766 140.5282 
L 231.065391 140.428857 
L 231.165817 140.428857 
L 231.255943 140.362628 
L 231.183842 140.495085 
L 231.271393 140.461971 
L 231.307443 140.296399 
L 231.382119 140.495085 
L 231.492844 140.263285 
L 231.503145 140.329514 
L 231.55722 140.395742 
L 231.51087 140.296399 
L 231.611295 140.362628 
L 231.683396 140.296399 
L 231.652496 140.395742 
L 231.722021 140.362628 
L 231.742622 140.428857 
L 231.840472 140.230171 
L 231.897123 140.329514 
L 231.940898 140.163942 
L 231.948623 140.230171 
L 231.964073 140.263285 
L 232.059349 140.163942 
L 232.13145 140.230171 
L 232.077374 140.130828 
L 232.16235 140.130828 
L 232.164925 140.064599 
L 232.234451 140.263285 
L 232.267926 140.197057 
L 232.337451 140.296399 
L 232.360627 140.130828 
L 232.376077 140.163942 
L 232.530578 140.230171 
L 232.533153 140.296399 
L 232.558903 140.130828 
L 232.638729 140.197057 
L 232.74173 140.130828 
L 232.667054 140.296399 
L 232.749455 140.197057 
L 232.849881 140.097714 
L 232.855031 140.130828 
L 232.965757 140.031485 
L 232.988932 140.163942 
L 233.079058 140.097714 
L 233.081633 140.130828 
L 233.115108 139.998371 
L 233.189783 140.097714 
L 233.874739 140.031485 
L 233.96744 139.832799 
L 233.990615 139.899028 
L 234.088466 139.832799 
L 234.103916 139.865913 
L 234.111641 139.932142 
L 234.132241 139.832799 
L 234.212067 139.865913 
L 234.309918 139.832799 
L 234.253267 139.965256 
L 234.317643 139.899028 
L 234.320218 140.031485 
L 234.348543 139.865913 
L 234.428369 139.998371 
L 234.433519 139.899028 
L 234.508194 140.064599 
L 234.539094 139.998371 
L 234.58802 140.097714 
L 234.606045 140.031485 
L 234.698746 140.130828 
L 234.812047 139.998371 
L 234.711621 140.163942 
L 234.814622 140.064599 
L 235.520178 140.130828 
L 235.527903 140.097714 
L 235.633478 140.197057 
L 235.692704 140.230171 
L 235.749354 140.130828 
L 235.906431 140.197057 
L 235.909006 140.263285 
L 235.945056 140.130828 
L 236.014582 140.197057 
L 236.122732 140.097714 
L 236.024882 140.230171 
L 236.127883 140.130828 
L 236.189683 140.064599 
L 236.202558 140.197057 
L 236.236033 140.163942 
L 236.42401 140.230171 
L 236.506411 140.296399 
L 236.46006 140.130828 
L 236.532161 140.230171 
L 236.557911 140.163942 
L 236.568211 140.296399 
L 236.640312 140.230171 
L 236.753613 140.329514 
L 236.787088 140.395742 
L 236.869489 140.163942 
L 236.897814 140.329514 
L 236.980215 140.230171 
L 237.00339 140.163942 
L 237.06519 140.296399 
L 237.08579 140.296399 
L 237.611095 140.230171 
L 237.626545 140.163942 
L 237.66517 140.329514 
L 237.719246 140.296399 
L 238.370726 140.362628 
L 238.373301 140.428857 
L 238.437676 140.263285 
L 238.481452 140.362628 
L 238.581878 140.163942 
L 238.594753 140.230171 
L 238.628228 140.329514 
L 238.710629 140.296399 
L 238.782729 140.230171 
L 238.738954 140.329514 
L 238.821355 140.296399 
L 238.91663 140.197057 
L 238.919205 140.163942 
L 238.92178 140.263285 
L 239.027356 140.197057 
L 239.099457 140.263285 
L 239.042806 140.130828 
L 239.135507 140.163942 
L 239.256533 140.263285 
L 239.356959 140.329514 
L 239.362109 140.197057 
L 239.367259 140.296399 
L 239.43936 140.097714 
L 239.48571 140.163942 
L 239.537211 140.230171 
L 239.52691 140.097714 
L 239.591286 140.130828 
L 239.712312 139.998371 
L 239.864238 140.064599 
L 239.946639 140.163942 
L 239.897713 139.998371 
L 239.977539 140.130828 
L 240.08569 140.031485 
L 240.008439 140.163942 
L 240.09084 140.064599 
L 240.11144 139.998371 
L 240.201566 140.097714 
L 240.309717 139.998371 
L 240.247916 140.130828 
L 240.314867 140.031485 
L 240.335467 140.064599 
L 240.363792 139.932142 
L 240.423018 139.998371 
L 240.428168 139.899028 
L 240.446193 140.031485 
L 240.533744 139.965256 
L 240.63417 140.064599 
L 240.647045 140.031485 
L 240.662495 139.965256 
L 240.724295 140.130828 
L 240.755196 140.064599 
L 240.858196 140.130828 
L 240.899397 140.263285 
L 240.963772 140.097714 
L 240.966347 140.097714 
L 241.092523 140.197057 
L 241.198099 140.230171 
L 241.154324 140.064599 
L 241.203249 140.197057 
L 241.31655 140.130828 
L 241.319125 140.064599 
L 241.32685 140.197057 
L 241.424701 140.130828 
L 241.455601 140.230171 
L 241.530277 140.064599 
L 241.535427 140.130828 
L 241.877905 140.031485 
L 241.978331 139.932142 
L 241.888205 140.064599 
L 241.988631 139.998371 
L 242.336259 139.965256 
L 242.338834 139.865913 
L 242.441834 140.064599 
L 242.444409 140.064599 
L 242.472735 139.965256 
L 242.47531 139.932142 
L 242.50106 140.097714 
L 242.57831 140.031485 
L 242.712212 140.097714 
L 242.740537 140.197057 
L 242.822938 140.130828 
L 242.910488 140.230171 
L 242.951689 140.296399 
L 242.964564 140.163942 
L 243.018639 140.230171 
L 243.046964 140.197057 
L 243.057264 140.329514 
L 243.12679 140.230171 
L 243.186015 140.428857 
L 243.240091 140.329514 
L 243.654669 140.428857 
L 243.657244 140.495085 
L 243.708745 140.329514 
L 243.765395 140.428857 
L 243.932772 140.5282 
L 244.035772 140.594428 
L 243.943072 140.495085 
L 244.046073 140.561314 
L 244.143923 140.495085 
L 244.151648 140.627543 
L 244.154223 140.561314 
L 244.246924 140.627543 
L 244.205724 140.428857 
L 244.264949 140.594428 
L 244.3628 140.561314 
L 244.288125 140.660657 
L 244.3731 140.594428 
L 244.411726 140.660657 
L 244.37825 140.561314 
L 244.481251 140.561314 
L 244.576527 140.428857 
L 244.501851 140.594428 
L 244.591977 140.495085 
L 244.651203 140.594428 
L 244.700128 140.461971 
L 244.702703 140.495085 
L 244.880379 140.495085 
L 244.94218 140.329514 
L 244.991105 140.428857 
L 244.99883 140.362628 
L 245.076081 140.594428 
L 245.091531 140.561314 
L 245.410834 140.495085 
L 245.52671 140.362628 
L 245.59366 140.5282 
L 245.645161 140.461971 
L 245.763612 140.362628 
L 245.876913 140.230171 
L 245.807387 140.395742 
L 245.882063 140.263285 
L 246.543843 140.362628 
L 246.641694 140.428857 
L 246.556718 140.296399 
L 246.657144 140.395742 
L 246.850271 140.461971 
L 246.899196 140.5282 
L 246.932671 140.395742 
L 246.960996 140.495085 
L 247.056272 140.428857 
L 247.051122 140.561314 
L 247.069147 140.5282 
L 247.700028 140.594428 
L 247.743803 140.561314 
L 247.813328 140.660657 
L 247.906029 140.627543 
L 247.841654 140.726886 
L 247.924054 140.660657 
L 247.970405 140.793114 
L 248.037355 140.726886 
L 248.101731 140.627543 
L 248.047655 140.793114 
L 248.153231 140.660657 
L 248.199582 140.793114 
L 248.160956 140.627543 
L 248.269107 140.726886 
L 248.346358 140.660657 
L 248.300007 140.76 
L 248.359233 140.693771 
" clip-path="url(#pca0b354acf)" style="fill: none; stroke: #000000; stroke-opacity: 0.5; stroke-width: 1.5; stroke-linecap: square"/>
   </g>
   <g id="patch_3">
    <path d="M 35.304688 173.52 
L 35.304688 7.2 
" style="fill: none; stroke: #000000; stroke-width: 0.8; stroke-linejoin: miter; stroke-linecap: square"/>
   </g>
   <g id="patch_4">
    <path d="M 35.304688 173.52 
L 258.504687 173.52 
" style="fill: none; stroke: #000000; stroke-width: 0.8; stroke-linejoin: miter; stroke-linecap: square"/>
   </g>
  </g>
 </g>
 <defs>
  <clipPath id="pca0b354acf">
   <rect x="35.304688" y="7.2" width="223.2" height="166.32"/>
  </clipPath>
 </defs>
</svg>
