<?xml version="1.0" encoding="utf-8" standalone="no"?>
<!DOCTYPE svg PUBLIC "-//W3C//DTD SVG 1.1//EN"
  "http://www.w3.org/Graphics/SVG/1.1/DTD/svg11.dtd">
<svg xmlns:xlink="http://www.w3.org/1999/xlink" width="272.067187pt" height="197.398125pt" viewBox="0 0 272.067187 197.398125" xmlns="http://www.w3.org/2000/svg" version="1.1">
 <metadata>
  <rdf:RDF xmlns:dc="http://purl.org/dc/elements/1.1/" xmlns:cc="http://creativecommons.org/ns#" xmlns:rdf="http://www.w3.org/1999/02/22-rdf-syntax-ns#">
   <cc:Work>
    <dc:type rdf:resource="http://purl.org/dc/dcmitype/StillImage"/>
    <dc:date>2025-12-19T12:22:05.465841</dc:date>
    <dc:format>image/svg+xml</dc:format>
    <dc:creator>
     <cc:Agent>
      <dc:title>Matplotlib v3.10.7, https://matplotlib.org/</dc:title>
     </cc:Agent>
    </dc:creator>
   </cc:Work>
  </rdf:RDF>
 </metadata>
 <defs>
  <style type="text/css">*{stroke-linejoin: round; stroke-linecap: butt}</style>
 </defs>
 <g id="figure_1">
  <g id="patch_1">
   <path d="M 0 197.398125 
L 272.067187 197.398125 
L 272.067187 0 
L 0 0 
z
" style="fill: #ffffff"/>
  </g>
  <g id="axes_1">
   <g id="patch_2">
    <path d="M 41.667188 173.52 
L 264.867188 173.52 
L 264.867188 7.2 
L 41.667188 7.2 
z
" style="fill: #ffffff"/>
   </g>
   <g id="matplotlib.axis_1">
    <g id="xtick_1">
     <g id="line2d_1">
      <defs>
       <path id="m0d77842772" d="M 0 0 
L 0 3.5 
" style="stroke: #000000; stroke-width: 0.8"/>
      </defs>
      <g>
       <use xlink:href="#m0d77842772" x="82.712896" y="173.52" style="stroke: #000000; stroke-width: 0.8"/>
      </g>
     </g>
     <g id="text_1">
      <!-- 1 -->
      <g transform="translate(79.531646 188.118438) scale(0.1 -0.1)">
       <defs>
        <path id="DejaVuSans-31" d="M 794 531 
L 1825 531 
L 1825 4091 
L 703 3866 
L 703 4441 
L 1819 4666 
L 2450 4666 
L 2450 531 
L 3481 531 
L 3481 0 
L 794 0 
L 794 531 
z
" transform="scale(0.015625)"/>
       </defs>
       <use xlink:href="#DejaVuSans-31"/>
      </g>
     </g>
    </g>
    <g id="xtick_2">
     <g id="line2d_2">
      <g>
       <use xlink:href="#m0d77842772" x="134.213319" y="173.52" style="stroke: #000000; stroke-width: 0.8"/>
      </g>
     </g>
     <g id="text_2">
      <!-- 2 -->
      <g transform="translate(131.032069 188.118438) scale(0.1 -0.1)">
       <defs>
        <path id="DejaVuSans-32" d="M 1228 531 
L 3431 531 
L 3431 0 
L 469 0 
L 469 531 
Q 828 903 1448 1529 
Q 2069 2156 2228 2338 
Q 2531 2678 2651 2914 
Q 2772 3150 2772 3378 
Q 2772 3750 2511 3984 
Q 2250 4219 1831 4219 
Q 1534 4219 1204 4116 
Q 875 4013 500 3803 
L 500 4441 
Q 881 4594 1212 4672 
Q 1544 4750 1819 4750 
Q 2544 4750 2975 4387 
Q 3406 4025 3406 3419 
Q 3406 3131 3298 2873 
Q 3191 2616 2906 2266 
Q 2828 2175 2409 1742 
Q 1991 1309 1228 531 
z
" transform="scale(0.015625)"/>
       </defs>
       <use xlink:href="#DejaVuSans-32"/>
      </g>
     </g>
    </g>
    <g id="xtick_3">
     <g id="line2d_3">
      <g>
       <use xlink:href="#m0d77842772" x="185.713741" y="173.52" style="stroke: #000000; stroke-width: 0.8"/>
      </g>
     </g>
     <g id="text_3">
      <!-- 3 -->
      <g transform="translate(182.532491 188.118438) scale(0.1 -0.1)">
       <defs>
        <path id="DejaVuSans-33" d="M 2597 2516 
Q 3050 2419 3304 2112 
Q 3559 1806 3559 1356 
Q 3559 666 3084 287 
Q 2609 -91 1734 -91 
Q 1441 -91 1130 -33 
Q 819 25 488 141 
L 488 750 
Q 750 597 1062 519 
Q 1375 441 1716 441 
Q 2309 441 2620 675 
Q 2931 909 2931 1356 
Q 2931 1769 2642 2001 
Q 2353 2234 1838 2234 
L 1294 2234 
L 1294 2753 
L 1863 2753 
Q 2328 2753 2575 2939 
Q 2822 3125 2822 3475 
Q 2822 3834 2567 4026 
Q 2313 4219 1838 4219 
Q 1578 4219 1281 4162 
Q 984 4106 628 3988 
L 628 4550 
Q 988 4650 1302 4700 
Q 1616 4750 1894 4750 
Q 2613 4750 3031 4423 
Q 3450 4097 3450 3541 
Q 3450 3153 3228 2886 
Q 3006 2619 2597 2516 
z
" transform="scale(0.015625)"/>
       </defs>
       <use xlink:href="#DejaVuSans-33"/>
      </g>
     </g>
    </g>
    <g id="xtick_4">
     <g id="line2d_4">
      <g>
       <use xlink:href="#m0d77842772" x="237.214164" y="173.52" style="stroke: #000000; stroke-width: 0.8"/>
      </g>
     </g>
     <g id="text_4">
      <!-- 4 -->
      <g transform="translate(234.032914 188.118438) scale(0.1 -0.1)">
       <defs>
        <path id="DejaVuSans-34" d="M 2419 4116 
L 825 1625 
L 2419 1625 
L 2419 4116 
z
M 2253 4666 
L 3047 4666 
L 3047 1625 
L 3713 1625 
L 3713 1100 
L 3047 1100 
L 3047 0 
L 2419 0 
L 2419 1100 
L 313 1100 
L 313 1709 
L 2253 4666 
z
" transform="scale(0.015625)"/>
       </defs>
       <use xlink:href="#DejaVuSans-34"/>
      </g>
     </g>
    </g>
   </g>
   <g id="matplotlib.axis_2">
    <g id="ytick_1">
     <g id="line2d_5">
      <defs>
       <path id="m09bddb5dea" d="M 0 0 
L -3.5 0 
" style="stroke: #000000; stroke-width: 0.8"/>
      </defs>
      <g>
       <use xlink:href="#m09bddb5dea" x="41.667188" y="160.217203" style="stroke: #000000; stroke-width: 0.8"/>
      </g>
     </g>
     <g id="text_5">
      <!-- −120 -->
      <g transform="translate(7.2 164.016421) scale(0.1 -0.1)">
       <defs>
        <path id="DejaVuSans-2212" d="M 678 2272 
L 4684 2272 
L 4684 1741 
L 678 1741 
L 678 2272 
z
" transform="scale(0.015625)"/>
        <path id="DejaVuSans-30" d="M 2034 4250 
Q 1547 4250 1301 3770 
Q 1056 3291 1056 2328 
Q 1056 1369 1301 889 
Q 1547 409 2034 409 
Q 2525 409 2770 889 
Q 3016 1369 3016 2328 
Q 3016 3291 2770 3770 
Q 2525 4250 2034 4250 
z
M 2034 4750 
Q 2819 4750 3233 4129 
Q 3647 3509 3647 2328 
Q 3647 1150 3233 529 
Q 2819 -91 2034 -91 
Q 1250 -91 836 529 
Q 422 1150 422 2328 
Q 422 3509 836 4129 
Q 1250 4750 2034 4750 
z
" transform="scale(0.015625)"/>
       </defs>
       <use xlink:href="#DejaVuSans-2212"/>
       <use xlink:href="#DejaVuSans-31" transform="translate(83.789062 0)"/>
       <use xlink:href="#DejaVuSans-32" transform="translate(147.412109 0)"/>
       <use xlink:href="#DejaVuSans-30" transform="translate(211.035156 0)"/>
      </g>
     </g>
    </g>
    <g id="ytick_2">
     <g id="line2d_6">
      <g>
       <use xlink:href="#m09bddb5dea" x="41.667188" y="137.79348" style="stroke: #000000; stroke-width: 0.8"/>
      </g>
     </g>
     <g id="text_6">
      <!-- −100 -->
      <g transform="translate(7.2 141.592699) scale(0.1 -0.1)">
       <use xlink:href="#DejaVuSans-2212"/>
       <use xlink:href="#DejaVuSans-31" transform="translate(83.789062 0)"/>
       <use xlink:href="#DejaVuSans-30" transform="translate(147.412109 0)"/>
       <use xlink:href="#DejaVuSans-30" transform="translate(211.035156 0)"/>
      </g>
     </g>
    </g>
    <g id="ytick_3">
     <g id="line2d_7">
      <g>
       <use xlink:href="#m09bddb5dea" x="41.667188" y="115.369758" style="stroke: #000000; stroke-width: 0.8"/>
      </g>
     </g>
     <g id="text_7">
      <!-- −80 -->
      <g transform="translate(13.5625 119.168976) scale(0.1 -0.1)">
       <defs>
        <path id="DejaVuSans-38" d="M 2034 2216 
Q 1584 2216 1326 1975 
Q 1069 1734 1069 1313 
Q 1069 891 1326 650 
Q 1584 409 2034 409 
Q 2484 409 2743 651 
Q 3003 894 3003 1313 
Q 3003 1734 2745 1975 
Q 2488 2216 2034 2216 
z
M 1403 2484 
Q 997 2584 770 2862 
Q 544 3141 544 3541 
Q 544 4100 942 4425 
Q 1341 4750 2034 4750 
Q 2731 4750 3128 4425 
Q 3525 4100 3525 3541 
Q 3525 3141 3298 2862 
Q 3072 2584 2669 2484 
Q 3125 2378 3379 2068 
Q 3634 1759 3634 1313 
Q 3634 634 3220 271 
Q 2806 -91 2034 -91 
Q 1263 -91 848 271 
Q 434 634 434 1313 
Q 434 1759 690 2068 
Q 947 2378 1403 2484 
z
M 1172 3481 
Q 1172 3119 1398 2916 
Q 1625 2713 2034 2713 
Q 2441 2713 2670 2916 
Q 2900 3119 2900 3481 
Q 2900 3844 2670 4047 
Q 2441 4250 2034 4250 
Q 1625 4250 1398 4047 
Q 1172 3844 1172 3481 
z
" transform="scale(0.015625)"/>
       </defs>
       <use xlink:href="#DejaVuSans-2212"/>
       <use xlink:href="#DejaVuSans-38" transform="translate(83.789062 0)"/>
       <use xlink:href="#DejaVuSans-30" transform="translate(147.412109 0)"/>
      </g>
     </g>
    </g>
    <g id="ytick_4">
     <g id="line2d_8">
      <g>
       <use xlink:href="#m09bddb5dea" x="41.667188" y="92.946035" style="stroke: #000000; stroke-width: 0.8"/>
      </g>
     </g>
     <g id="text_8">
      <!-- −60 -->
      <g transform="translate(13.5625 96.745254) scale(0.1 -0.1)">
       <defs>
        <path id="DejaVuSans-36" d="M 2113 2584 
Q 1688 2584 1439 2293 
Q 1191 2003 1191 1497 
Q 1191 994 1439 701 
Q 1688 409 2113 409 
Q 2538 409 2786 701 
Q 3034 994 3034 1497 
Q 3034 2003 2786 2293 
Q 2538 2584 2113 2584 
z
M 3366 4563 
L 3366 3988 
Q 3128 4100 2886 4159 
Q 2644 4219 2406 4219 
Q 1781 4219 1451 3797 
Q 1122 3375 1075 2522 
Q 1259 2794 1537 2939 
Q 1816 3084 2150 3084 
Q 2853 3084 3261 2657 
Q 3669 2231 3669 1497 
Q 3669 778 3244 343 
Q 2819 -91 2113 -91 
Q 1303 -91 875 529 
Q 447 1150 447 2328 
Q 447 3434 972 4092 
Q 1497 4750 2381 4750 
Q 2619 4750 2861 4703 
Q 3103 4656 3366 4563 
z
" transform="scale(0.015625)"/>
       </defs>
       <use xlink:href="#DejaVuSans-2212"/>
       <use xlink:href="#DejaVuSans-36" transform="translate(83.789062 0)"/>
       <use xlink:href="#DejaVuSans-30" transform="translate(147.412109 0)"/>
      </g>
     </g>
    </g>
    <g id="ytick_5">
     <g id="line2d_9">
      <g>
       <use xlink:href="#m09bddb5dea" x="41.667188" y="70.522313" style="stroke: #000000; stroke-width: 0.8"/>
      </g>
     </g>
     <g id="text_9">
      <!-- −40 -->
      <g transform="translate(13.5625 74.321531) scale(0.1 -0.1)">
       <use xlink:href="#DejaVuSans-2212"/>
       <use xlink:href="#DejaVuSans-34" transform="translate(83.789062 0)"/>
       <use xlink:href="#DejaVuSans-30" transform="translate(147.412109 0)"/>
      </g>
     </g>
    </g>
    <g id="ytick_6">
     <g id="line2d_10">
      <g>
       <use xlink:href="#m09bddb5dea" x="41.667188" y="48.09859" style="stroke: #000000; stroke-width: 0.8"/>
      </g>
     </g>
     <g id="text_10">
      <!-- −20 -->
      <g transform="translate(13.5625 51.897809) scale(0.1 -0.1)">
       <use xlink:href="#DejaVuSans-2212"/>
       <use xlink:href="#DejaVuSans-32" transform="translate(83.789062 0)"/>
       <use xlink:href="#DejaVuSans-30" transform="translate(147.412109 0)"/>
      </g>
     </g>
    </g>
    <g id="ytick_7">
     <g id="line2d_11">
      <g>
       <use xlink:href="#m09bddb5dea" x="41.667188" y="25.674868" style="stroke: #000000; stroke-width: 0.8"/>
      </g>
     </g>
     <g id="text_11">
      <!-- 0 -->
      <g transform="translate(28.304688 29.474086) scale(0.1 -0.1)">
       <use xlink:href="#DejaVuSans-30"/>
      </g>
     </g>
    </g>
   </g>
   <g id="line2d_12">
    <path d="M 51.812642 96.091161 
L 52.031519 96.159593 
L 52.034094 96.228024 
L 52.126795 96.056945 
L 52.13967 96.125377 
L 52.260696 96.056945 
L 52.371422 95.85165 
L 52.376572 95.920081 
L 52.474422 95.817434 
L 52.556823 95.714786 
L 52.482148 95.85165 
L 52.587723 95.783218 
L 52.592873 95.85165 
L 52.685574 95.612138 
L 52.688149 95.646354 
L 52.778275 95.543707 
L 52.876126 95.406843 
L 52.891576 95.475275 
L 53.030627 95.954297 
L 53.040927 95.85165 
L 53.133628 96.228024 
L 53.136203 96.159593 
L 53.246929 96.364888 
L 53.252079 96.330672 
L 53.337055 96.43332 
L 53.463231 96.638615 
L 53.476106 96.535967 
L 53.550781 96.741263 
L 53.571381 96.741263 
L 53.576532 96.672831 
L 53.658932 96.84391 
L 53.671807 96.84391 
L 53.779958 96.980774 
L 53.702708 96.741263 
L 53.790258 96.946558 
L 53.94476 97.049206 
L 53.988535 96.946558 
L 54.060636 97.151853 
L 54.068361 97.083422 
L 54.132736 97.254501 
L 54.166211 97.220285 
L 54.181661 97.288717 
L 54.212562 97.151853 
L 54.279512 97.254501 
L 54.284662 97.186069 
L 54.359338 97.357149 
L 54.382513 97.357149 
L 54.544739 97.288717 
L 54.66834 96.912342 
L 54.704391 97.049206 
L 54.755891 96.84391 
L 54.779066 96.912342 
L 54.956743 96.809695 
L 54.967043 96.84391 
L 55.072619 96.741263 
L 55.085494 96.84391 
L 55.16532 96.535967 
L 55.17047 96.604399 
L 55.18592 96.638615 
L 55.312096 96.193809 
L 55.433122 96.091161 
L 55.543848 95.920081 
L 55.554148 95.954297 
L 55.585048 96.022729 
L 55.615948 95.85165 
L 55.662299 95.920081 
L 56.030527 95.988513 
L 56.136103 96.228024 
L 56.146403 96.125377 
L 56.177303 96.228024 
L 56.197903 96.022729 
L 56.257129 96.125377 
L 56.293179 96.056945 
L 56.398755 95.920081 
L 56.300904 96.091161 
L 56.40648 95.954297 
L 56.47343 95.885866 
L 56.517206 96.056945 
L 56.584156 95.817434 
L 56.694882 95.920081 
L 56.697457 95.885866 
L 56.759258 95.954297 
L 56.785008 95.783218 
L 56.800458 95.783218 
L 56.844233 95.68057 
L 56.921484 95.509491 
L 56.960109 95.612138 
L 57.003885 99.683829 
L 57.256237 112.891161 
L 57.575539 123.977108 
L 58.085394 134.618248 
L 58.090544 134.652464 
L 58.27852 137.731894 
L 58.466497 139.784847 
L 58.471647 139.853279 
L 58.695674 142.864277 
L 59.025276 145.772627 
L 59.045876 145.704196 
L 59.105102 146.183218 
L 59.107677 146.149002 
L 59.138577 146.25165 
L 59.336854 147.41499 
L 59.481055 147.517637 
L 59.591781 147.99666 
L 59.496505 147.449206 
L 59.620106 147.894012 
L 59.666457 147.654501 
L 59.625256 147.928228 
L 59.735982 147.82558 
L 59.862158 148.133523 
L 59.864733 148.065092 
L 59.911084 148.167739 
L 60.034685 148.646762 
L 60.044985 148.509898 
L 60.070735 148.338819 
L 60.132535 148.749409 
L 60.137685 148.749409 
L 60.166011 148.817841 
L 60.294762 149.331079 
L 60.328237 149.399511 
L 60.420938 149.673238 
L 60.335962 149.365295 
L 60.446688 149.604807 
L 60.547114 149.707454 
L 60.552264 149.570591 
L 60.557414 149.604807 
L 60.572864 149.536375 
L 60.637239 149.365295 
L 60.681015 149.570591 
L 60.68359 149.536375 
L 60.776291 149.810102 
L 60.794316 149.536375 
L 60.987442 148.236171 
L 61.000317 148.270387 
L 61.049243 148.167739 
L 61.129069 148.57833 
L 61.242369 148.065092 
L 61.255245 148.133523 
L 61.373696 148.475682 
L 61.386571 148.407251 
L 61.414896 148.509898 
L 61.502447 148.783625 
L 61.432921 148.475682 
L 61.528197 148.57833 
L 61.620898 148.441466 
L 61.561672 148.612546 
L 61.641498 148.544114 
L 61.692998 148.646762 
L 61.790849 149.023136 
L 61.814024 148.920489 
L 61.839774 148.988921 
L 61.89385 149.331079 
L 61.958225 149.194216 
L 61.994276 149.296864 
L 62.050926 149.536375 
L 62.097276 149.194216 
L 62.213152 147.99666 
L 62.249203 148.099308 
L 62.272378 148.167739 
L 62.303278 147.722933 
L 62.347054 147.962444 
L 62.349629 147.928228 
L 62.406279 148.338819 
L 62.437179 148.201955 
L 62.568505 148.544114 
L 62.450054 148.133523 
L 62.57108 148.509898 
L 62.594256 148.407251 
L 62.771932 146.901752 
L 62.800257 147.107047 
L 62.813132 147.209695 
L 62.869783 146.799104 
L 62.900683 146.83332 
L 62.916133 146.764888 
L 62.980509 146.970183 
L 63.003684 146.935967 
L 63.032009 147.038615 
L 63.147885 147.380774 
L 63.153035 147.346558 
L 63.16076 147.24391 
L 63.243161 147.107047 
L 63.266336 147.312342 
L 63.268911 147.278126 
L 63.286936 147.346558 
L 63.341012 147.517637 
L 63.402812 147.483422 
L 63.516113 148.133523 
L 63.541863 147.859796 
L 63.552163 147.757149 
L 63.570189 147.586069 
L 63.642289 148.065092 
L 63.650014 148.065092 
L 63.691215 148.167739 
L 63.76074 148.373035 
L 63.794215 148.065092 
L 63.814816 147.928228 
L 63.892066 148.304603 
L 63.897216 148.270387 
L 63.917816 148.338819 
L 63.925541 148.407251 
L 64.013092 147.962444 
L 64.018242 148.065092 
L 64.134118 148.201955 
L 64.082618 147.894012 
L 64.136693 148.167739 
L 64.149568 148.270387 
L 64.270594 148.783625 
L 64.296345 148.749409 
L 64.31437 148.680978 
L 64.38647 148.852057 
L 64.399345 148.852057 
L 64.455996 148.749409 
L 64.618222 147.894012 
L 64.623372 147.928228 
L 64.726373 148.236171 
L 64.636247 147.894012 
L 64.739248 148.133523 
L 64.741823 148.065092 
L 64.834524 148.304603 
L 64.844824 148.236171 
L 64.855124 148.304603 
L 64.896324 147.859796 
L 64.9298 147.894012 
L 65.019925 147.380774 
L 65.058551 147.654501 
L 65.089451 147.757149 
L 65.207902 147.928228 
L 65.115201 147.688717 
L 65.210477 147.894012 
L 65.213052 147.859796 
L 65.282578 148.338819 
L 65.285153 148.338819 
L 65.442229 148.988921 
L 65.444804 148.954705 
L 65.516905 149.296864 
L 65.532355 149.262648 
L 65.666256 149.570591 
L 65.694581 149.673238 
L 65.833632 150.049613 
L 65.890283 150.118045 
L 66.006159 150.32334 
L 66.047359 150.289124 
L 66.093709 150.425988 
L 66.111734 150.391772 
L 66.276536 150.289124 
L 66.369237 150.118045 
L 66.394987 150.186477 
L 66.402712 150.220692 
L 66.451637 149.878534 
L 66.487688 149.946965 
L 66.497988 149.981181 
L 66.685964 148.783625 
L 66.75034 148.680978 
L 66.788965 148.612546 
L 66.830165 148.886273 
L 66.845615 148.886273 
L 66.866216 148.988921 
L 66.871366 148.954705 
L 67.010417 149.433727 
L 67.038742 149.536375 
L 67.126293 149.775886 
L 67.162343 149.707454 
L 67.288519 146.66224 
L 67.654172 129.554297 
L 67.656747 129.588513 
L 67.687647 128.596253 
L 67.9709 121.718859 
L 68.285052 116.073238 
L 68.462729 113.301752 
L 68.465304 113.335967 
L 68.524529 112.685866 
L 68.977733 108.135153 
L 68.980308 108.169369 
L 69.054984 107.724562 
L 69.057559 107.724562 
L 69.083309 107.621914 
L 69.250685 106.834949 
L 69.25326 106.903381 
L 69.343386 106.390143 
L 69.345961 106.424358 
L 69.528787 105.397882 
L 69.533938 105.466314 
L 69.616338 105.089939 
L 69.626638 105.158371 
L 69.760539 104.508269 
L 69.79659 104.405621 
L 69.987141 103.344929 
L 70.061817 103.310713 
L 70.177693 102.934338 
L 70.180268 102.968554 
L 70.355369 102.078941 
L 70.357944 102.113157 
L 70.43262 101.873646 
L 70.450645 101.873646 
L 70.574246 101.66835 
L 70.602571 101.702566 
L 70.659222 101.463055 
L 70.669522 101.463055 
L 70.726172 101.360407 
L 70.849773 101.08668 
L 70.852348 101.155112 
L 70.901274 101.052464 
L 71.02745 100.847169 
L 71.030025 100.881385 
L 71.08925 100.710305 
L 71.127876 100.710305 
L 71.256627 100.470794 
L 71.302977 100.368147 
L 71.310702 100.402363 
L 71.429153 100.09442 
L 71.442028 100.231283 
L 71.534729 99.957556 
L 71.537304 100.025988 
L 71.655755 99.820692 
L 71.71498 99.786477 
L 71.830856 99.478534 
L 71.841156 99.512749 
L 71.920982 99.307454 
L 71.926132 99.307454 
L 72.054883 99.067943 
L 72.096084 99.102159 
L 72.145009 98.931079 
L 72.155309 98.965295 
L 72.26346 98.725784 
L 72.281485 98.76 
L 72.291785 98.828432 
L 72.379336 98.588921 
L 72.381911 98.657352 
L 72.495212 98.452057 
L 72.502937 98.520489 
L 72.505512 98.554705 
L 72.582763 98.349409 
L 72.605938 98.417841 
L 73.151842 98.315193 
L 73.252268 98.144114 
L 73.198193 98.383625 
L 73.267718 98.17833 
L 73.296043 98.246762 
L 73.329519 98.041466 
L 73.373294 98.075682 
L 73.502045 97.836171 
L 73.50462 97.870387 
L 73.558696 97.699308 
L 73.599896 97.733523 
L 73.713197 97.630876 
L 73.986149 97.528228 
L 74.019624 97.59666 
L 74.102025 97.391365 
L 74.14065 97.494012 
L 74.171551 97.322933 
L 74.210176 97.357149 
L 74.284852 97.42558 
L 74.323477 97.254501 
L 74.393002 97.220285 
L 74.506303 97.01499 
L 74.604154 96.980774 
L 74.622179 97.117637 
L 74.743205 96.946558 
L 74.753505 97.01499 
L 74.817881 96.809695 
L 74.843631 96.84391 
L 74.848781 96.878126 
L 74.962082 96.741263 
L 75.090833 96.638615 
L 75.183534 96.535967 
L 75.111433 96.672831 
L 75.204134 96.570183 
L 75.27366 96.604399 
L 75.29941 96.467536 
L 75.307135 96.535967 
L 75.363785 96.467536 
L 75.389536 96.604399 
L 75.417861 96.535967 
L 75.441036 96.467536 
L 75.471936 96.604399 
L 75.526012 96.570183 
L 75.600687 96.467536 
L 75.713988 96.296456 
L 75.605837 96.535967 
L 75.716563 96.364888 
L 75.724288 96.43332 
L 75.809264 96.228024 
L 75.819564 96.296456 
L 75.89939 96.056945 
L 75.94059 96.091161 
L 76.053891 96.228024 
L 76.159467 96.091161 
L 76.172342 96.125377 
L 76.244443 96.228024 
L 76.180067 96.091161 
L 76.277918 96.091161 
L 76.383494 95.954297 
L 76.321693 96.125377 
L 76.396369 95.988513 
L 76.628121 96.091161 
L 76.731122 96.159593 
L 76.669321 95.988513 
L 76.736272 96.091161 
L 76.839273 95.988513 
L 76.751722 96.159593 
L 76.846998 96.056945 
L 76.885623 95.954297 
L 76.960299 96.091161 
L 77.032399 95.988513 
L 77.009224 96.159593 
L 77.071024 96.091161 
L 77.235826 95.988513 
L 77.243551 96.022729 
L 77.351702 95.885866 
L 77.452128 96.022729 
L 77.465003 95.954297 
L 77.676154 95.85165 
L 77.683879 95.885866 
L 77.799755 95.68057 
L 78.121633 95.612138 
L 78.227209 95.304196 
L 78.242659 95.338411 
L 78.36111 95.406843 
L 78.458961 95.543707 
L 78.38686 95.338411 
L 78.474411 95.509491 
L 78.523336 95.441059 
L 78.479561 95.577923 
L 78.579987 95.543707 
L 78.682988 95.714786 
L 78.701013 95.68057 
L 78.778263 95.714786 
L 78.804014 95.68057 
L 78.891564 95.920081 
L 78.95594 95.817434 
L 78.963665 95.988513 
L 79.004865 95.885866 
L 79.105291 96.022729 
L 79.120741 95.954297 
L 79.169667 95.954297 
L 79.172242 96.091161 
L 79.236617 95.920081 
L 79.280393 96.022729 
L 79.298418 96.056945 
L 79.401419 95.885866 
L 79.664071 95.954297 
L 79.749046 96.125377 
L 79.669221 95.920081 
L 79.777372 96.091161 
L 79.882948 96.022729 
L 79.808272 96.193809 
L 79.890673 96.056945 
L 80.109549 95.954297 
L 80.13015 96.022729 
L 80.22285 95.920081 
L 80.418552 96.022729 
L 80.441727 96.056945 
L 80.508678 95.885866 
L 80.521553 95.954297 
L 80.573053 95.817434 
L 80.539578 95.988513 
L 80.632279 95.920081 
L 80.724979 95.988513 
L 80.743005 95.920081 
L 80.784205 95.85165 
L 80.840855 95.988513 
L 80.851155 95.920081 
L 80.912956 96.056945 
L 80.902656 95.885866 
L 80.967031 95.988513 
L 81.067457 95.954297 
L 81.054582 96.125377 
L 81.072607 96.056945 
L 81.415085 96.159593 
L 81.515511 96.193809 
L 81.42281 96.056945 
L 81.525811 96.159593 
L 81.528386 96.125377 
L 81.613362 96.330672 
L 81.628812 96.26224 
L 82.01249 96.193809 
L 82.118066 96.091161 
L 82.02794 96.228024 
L 82.125791 96.125377 
L 82.221067 96.056945 
L 82.136091 96.159593 
L 82.233942 96.159593 
L 82.429643 96.26224 
L 82.504319 96.296456 
L 82.447669 96.193809 
L 82.537794 96.26224 
L 82.640795 96.159593 
L 82.548094 96.296456 
L 82.65367 96.193809 
L 82.746371 101.463055 
L 83.124899 129.964888 
L 83.619303 150.357556 
L 84.085382 159.835356 
L 84.090532 159.869572 
L 84.245033 161.683014 
L 84.260483 161.785662 
L 84.45876 162.949002 
L 84.48451 163.05165 
L 84.610686 163.599104 
L 84.613261 163.496456 
L 84.672487 163.701752 
L 84.718837 163.701752 
L 84.742012 163.770183 
L 84.881064 164.522933 
L 85.020115 164.899308 
L 85.035565 164.865092 
L 85.102515 165.173035 
L 85.112815 165.138819 
L 85.233841 165.412546 
L 85.238991 165.344114 
L 85.432118 165.446762 
L 85.452718 165.480978 
L 85.491344 165.309898 
L 85.535119 165.344114 
L 85.581469 165.446762 
L 85.697345 165.583625 
L 85.69992 165.549409 
L 85.707645 165.446762 
L 85.792621 165.754705 
L 85.800346 165.686273 
L 85.990898 165.754705 
L 86.016648 165.823136 
L 86.065573 165.652057 
L 86.099049 165.754705 
L 86.101624 165.720489 
L 86.191749 165.891568 
L 86.199474 165.891568 
L 86.26385 165.823136 
L 86.341101 165.275682 
L 86.392601 165.344114 
L 86.469852 164.899308 
L 86.523927 165.070387 
L 86.541952 165.138819 
L 86.590878 165.036171 
L 86.660403 165.344114 
L 86.750529 165.37833 
L 86.768554 165.515193 
L 86.804604 165.036171 
L 86.85868 165.344114 
L 86.971981 165.241466 
L 86.917905 165.549409 
L 86.974556 165.275682 
L 87.038931 165.173035 
L 87.165107 164.728228 
L 87.175407 164.830876 
L 87.216608 164.899308 
L 87.237208 164.967739 
L 87.301583 164.420285 
L 87.309308 164.420285 
L 87.324759 164.351853 
L 87.45351 163.838615 
L 87.45866 163.770183 
L 87.602861 162.538411 
L 87.613161 162.606843 
L 87.623461 162.675275 
L 87.672386 161.956741 
L 87.834613 159.287902 
L 87.922164 160.074868 
L 88.040614 160.382811 
L 87.958214 159.835356 
L 88.04319 160.348595 
L 88.313567 162.606843 
L 88.318717 162.538411 
L 88.331592 162.641059 
L 88.365067 162.709491 
L 88.426868 162.2989 
L 88.488668 161.819878 
L 88.550469 161.854094 
L 88.65347 162.093605 
L 88.66377 161.922525 
L 88.671495 161.819878 
L 88.836296 161.101344 
L 88.841446 161.032912 
L 89.006247 159.561629 
L 89.011397 159.595845 
L 89.062898 159.253686 
L 89.109248 159.458982 
L 89.155599 159.253686 
L 89.194224 159.766925 
L 89.196799 159.732709 
L 89.3616 160.485458 
L 89.389926 160.622322 
L 89.536702 159.630061 
L 89.539277 159.664277 
L 89.598502 159.082607 
L 89.601077 159.082607 
L 89.760729 157.748187 
L 89.789054 157.64554 
L 89.943555 156.89279 
L 89.95128 156.961222 
L 89.97188 156.858574 
L 89.997631 156.379552 
L 90.087756 156.653279 
L 90.257708 157.508676 
L 90.260283 157.47446 
L 90.298908 157.542892 
L 90.440534 158.466721 
L 90.466284 158.329857 
L 90.52036 158.706232 
L 90.54611 158.603585 
L 90.553835 158.569369 
L 90.692886 159.116823 
L 90.746962 159.21947 
L 90.806187 159.048391 
L 90.826787 159.082607 
L 90.875713 158.740448 
L 90.906613 158.945743 
L 90.909188 158.877312 
L 91.007039 159.185255 
L 91.009614 159.151039 
L 91.055964 159.048391 
L 91.073989 159.185255 
L 91.122915 159.116823 
L 91.251666 159.014175 
L 91.370117 158.80888 
L 91.416467 158.843096 
L 91.449942 158.6378 
L 91.473118 158.706232 
L 91.661094 157.679756 
L 91.697145 157.816619 
L 91.722895 157.542892 
L 91.769245 157.64554 
L 91.918596 157.542892 
L 92.029322 157.440244 
L 92.034472 157.47446 
L 92.065373 157.406029 
L 92.194124 156.824358 
L 92.196699 156.858574 
L 92.3924 156.755927 
L 92.461926 156.208473 
L 92.536601 156.31112 
L 92.575227 156.208473 
L 92.755478 152.205214 
L 92.783803 152.23943 
L 92.786378 152.307862 
L 92.861054 151.452464 
L 92.922855 150.699715 
L 92.99753 150.733931 
L 93.015555 150.733931 
L 93.036155 150.391772 
L 93.113406 150.973442 
L 93.123706 150.939226 
L 93.306533 148.133523 
L 93.175207 151.247169 
L 93.394083 148.817841 
L 93.713386 151.623544 
L 93.715961 151.589328 
L 93.782912 152.034134 
L 93.788062 152.034134 
L 93.909088 152.478941 
L 93.914238 152.444725 
L 93.947713 152.513157 
L 94.063589 152.855316 
L 94.068739 152.786884 
L 94.19749 153.060611 
L 94.251565 152.992179 
L 94.259291 153.163259 
L 94.305641 153.060611 
L 94.418942 153.197475 
L 94.421517 153.163259 
L 94.529668 152.957963 
L 94.537393 153.026395 
L 94.648119 152.855316 
L 94.655844 152.889532 
L 94.663569 152.923747 
L 94.748545 152.684236 
L 94.753695 152.718452 
L 94.866996 152.478941 
L 94.763995 152.752668 
L 94.872146 152.513157 
L 94.877296 152.547373 
L 95.003472 152.23943 
L 95.054972 152.136782 
L 95.165698 151.897271 
L 95.173423 151.931487 
L 95.250674 151.828839 
L 95.382 151.555112 
L 95.394875 151.589328 
L 95.46955 151.281385 
L 95.474701 151.349817 
L 95.624052 150.836578 
L 95.626627 150.870794 
L 95.714177 150.562851 
L 95.716753 150.597067 
L 95.845504 150.220692 
L 95.721903 150.631283 
L 95.853229 150.254908 
L 95.894429 150.152261 
L 96.02318 149.844318 
L 95.904729 150.186477 
L 96.025755 149.878534 
L 96.072105 149.810102 
L 96.190556 149.604807 
L 96.260082 149.536375 
L 96.378533 149.194216 
L 96.381108 149.228432 
L 96.414583 149.125784 
L 96.422308 149.194216 
L 96.543334 148.852057 
L 96.594835 148.886273 
L 96.625735 148.715193 
L 96.641185 148.749409 
L 96.759636 148.236171 
L 96.762211 148.270387 
L 96.764786 148.304603 
L 96.824012 148.099308 
L 96.860062 148.099308 
L 96.973363 147.517637 
L 96.988813 147.620285 
L 96.999113 147.654501 
L 97.104689 147.517637 
L 97.112414 147.620285 
L 97.20769 147.41499 
L 97.215415 147.483422 
L 97.331291 147.209695 
L 97.333866 147.24391 
L 97.418841 146.970183 
L 97.429142 147.072831 
L 97.568193 146.696456 
L 97.629993 146.593809 
L 97.774194 146.149002 
L 97.85402 146.08057 
L 97.980196 145.635764 
L 97.995646 145.533116 
L 98.173323 144.609287 
L 98.175898 144.677719 
L 98.206798 144.50664 
L 98.278899 144.50664 
L 98.340699 144.438208 
L 98.4643 144.096049 
L 98.593051 143.651242 
L 98.472025 144.130265 
L 98.603351 143.719674 
L 98.665152 143.788106 
L 98.698627 143.582811 
L 98.703777 143.582811 
L 98.809353 143.514379 
L 98.927804 143.206436 
L 98.827378 143.548595 
L 98.930379 143.240652 
L 98.953554 143.17222 
L 99.07973 142.487902 
L 99.087455 142.522118 
L 99.102905 142.453686 
L 99.113205 142.487902 
L 99.218781 142.248391 
L 99.223931 142.282607 
L 99.314057 142.043096 
L 99.447958 141.700937 
L 99.484008 141.735153 
L 99.530359 141.42721 
L 99.532934 141.42721 
L 99.656535 140.777108 
L 99.66426 140.879756 
L 99.847086 139.784847 
L 99.852236 139.819063 
L 99.870262 139.887495 
L 99.919187 139.716415 
L 99.957812 139.784847 
L 100.040213 139.579552 
L 100.073688 139.613768 
L 100.083988 139.750631 
L 100.130339 139.579552 
L 100.186989 139.716415 
L 100.27969 139.613768 
L 100.514017 137.937189 
L 100.519167 138.005621 
L 100.583542 137.560815 
L 100.596418 137.560815 
L 100.714869 137.321303 
L 100.743194 137.252872 
L 100.776669 136.944929 
L 100.85907 137.081792 
L 100.92602 137.321303 
L 100.967221 137.081792 
L 101.062496 136.979145 
L 101.008421 137.116008 
L 101.080522 137.01336 
L 101.103697 137.081792 
L 101.134597 136.876497 
L 101.188672 136.979145 
L 101.219573 136.944929 
L 101.338024 136.636986 
L 101.407549 136.60277 
L 101.53115 135.815804 
L 101.5363 135.884236 
L 101.677926 134.85776 
L 101.683076 134.926191 
L 101.835003 134.344521 
L 101.901953 134.584033 
L 101.948304 134.447169 
L 102.025554 134.378737 
L 102.038429 134.412953 
L 102.144005 134.173442 
L 102.164605 134.241874 
L 102.247006 134.036578 
L 102.252156 134.139226 
L 102.388632 133.728635 
L 102.391207 133.762851 
L 102.409232 133.797067 
L 102.465883 133.52334 
L 102.476183 133.52334 
L 102.599784 133.010102 
L 102.661585 132.907454 
L 102.666735 132.94167 
L 102.790336 132.667943 
L 102.903637 132.599511 
L 103.034963 132.017841 
L 103.078738 131.915193 
L 103.189464 131.538819 
L 103.212639 131.573035 
L 103.243539 131.641466 
L 103.277015 131.367739 
L 103.30534 131.401955 
L 103.426366 131.128228 
L 103.565417 130.649206 
L 103.436666 131.162444 
L 103.567992 130.683422 
L 103.570567 130.717637 
L 103.650393 130.375479 
L 103.655543 130.44391 
L 103.776569 130.135967 
L 103.789444 130.204399 
L 103.840944 129.964888 
L 103.876995 129.999104 
L 103.943945 129.896456 
L 104.077846 129.45165 
L 104.082996 129.520081 
L 104.101021 129.45165 
L 104.224622 128.938411 
L 104.227197 128.972627 
L 104.229772 129.006843 
L 104.296723 128.767332 
L 104.325048 128.835764 
L 104.451224 128.425173 
L 104.585125 128.083014 
L 104.590275 128.151446 
L 104.670101 127.809287 
L 104.677826 127.843503 
L 104.726751 127.740855 
L 104.860653 127.432912 
L 104.907003 127.364481 
L 105.053779 126.338004 
L 105.056354 126.406436 
L 105.149055 125.927413 
L 105.169655 125.893198 
L 105.308706 124.729857 
L 105.455482 124.250835 
L 105.581658 124.148187 
L 105.723285 123.600733 
L 105.589384 124.182403 
L 105.73101 123.634949 
L 105.743885 123.566517 
L 105.854611 123.190143 
L 105.754185 123.600733 
L 105.867486 123.224358 
L 105.870061 123.29279 
L 105.957612 122.950631 
L 105.967912 122.984847 
L 106.099238 122.540041 
L 106.104388 122.608473 
L 106.106963 122.642688 
L 106.194514 122.403177 
L 106.199664 122.505825 
L 106.307814 122.12945 
L 106.31554 122.163666 
L 106.560167 120.350224 
L 106.562742 120.38444 
L 106.637417 120.076497 
L 106.650292 120.144929 
L 106.797068 119.186884 
L 106.943845 118.673646 
L 107.046846 118.776293 
L 107.057146 118.742077 
L 107.103496 118.63943 
L 107.219372 118.502566 
L 107.111221 118.707862 
L 107.221947 118.536782 
L 107.265722 118.434134 
L 107.397048 118.023544 
L 107.402198 118.091976 
L 107.422799 117.989328 
L 107.564425 117.544521 
L 107.567 117.647169 
L 107.659701 117.236578 
L 107.667426 117.236578 
L 107.713776 117.133931 
L 107.721501 117.168147 
L 107.863127 116.620692 
L 107.906903 116.518045 
L 108.048529 116.107454 
L 108.094879 116.004807 
L 108.25453 115.354705 
L 108.262256 115.423136 
L 108.336931 115.046762 
L 108.342081 115.115193 
L 108.470832 114.636171 
L 108.705159 112.959593 
L 108.728334 113.028024 
L 108.80301 112.788513 
L 108.80816 112.856945 
L 108.836485 112.788513 
L 108.965236 112.035764 
L 108.972961 112.104196 
L 109.117163 111.625173 
L 109.124888 111.659389 
L 109.189263 111.351446 
L 109.204713 111.351446 
L 109.359215 110.73556 
L 109.369515 110.769776 
L 109.44419 110.461833 
L 109.44934 110.496049 
L 109.683667 108.682607 
L 109.688817 108.716823 
L 109.701692 108.853686 
L 109.784093 108.374664 
L 109.974645 107.211324 
L 109.97722 107.24554 
L 109.979795 107.313971 
L 110.05962 106.527006 
L 110.08537 106.424358 
L 110.229572 105.979552 
L 110.232147 106.013768 
L 110.304247 105.740041 
L 110.319697 105.808473 
L 110.432998 105.295234 
L 110.438148 105.32945 
L 110.469049 105.226802 
L 110.626125 104.542485 
L 110.6287 104.576701 
L 110.651875 104.508269 
L 110.785776 103.858167 
L 110.803801 103.755519 
L 110.973753 102.968554 
L 110.981478 102.968554 
L 111.087054 102.523747 
L 111.099929 102.557963 
L 111.102504 102.592179 
L 111.179754 102.25002 
L 111.18748 102.25002 
L 111.344556 101.565703 
L 111.347131 101.599919 
L 111.372881 101.497271 
L 111.522232 100.984033 
L 111.547982 100.915601 
L 111.679309 100.333931 
L 111.692184 100.368147 
L 111.748834 100.060204 
L 111.774584 100.128635 
L 111.903335 99.581181 
L 111.90591 99.615397 
L 111.983161 99.170591 
L 111.985736 99.204807 
L 112.145387 98.554705 
L 112.168563 98.486273 
L 112.297314 98.007251 
L 112.317914 97.904603 
L 112.601166 95.509491 
L 112.603741 95.543707 
L 112.606316 95.577923 
L 112.673267 95.0989 
L 112.678417 95.133116 
L 112.809743 94.311935 
L 112.997719 93.285458 
L 113.000294 93.35389 
L 113.08527 92.806436 
L 113.09042 92.840652 
L 113.244921 92.258982 
L 113.278397 92.156334 
L 113.448348 91.335153 
L 113.450923 91.369369 
L 113.530749 90.992994 
L 113.698125 90.240244 
L 113.71615 90.206029 
L 113.842326 89.555927 
L 113.857776 89.453279 
L 114.048328 88.392587 
L 114.084378 88.358371 
L 114.210554 87.708269 
L 114.385656 86.818656 
L 114.401106 86.852872 
L 114.452606 86.373849 
L 114.462906 86.408065 
L 114.697233 84.765703 
L 114.712683 84.663055 
L 114.918685 83.397067 
L 114.92126 83.431283 
L 114.990786 82.883829 
L 115.243138 81.001955 
L 115.263738 80.933523 
L 115.405364 79.564888 
L 115.407939 79.599104 
L 115.637116 71.216212 
L 115.673166 14.76 
L 115.745267 72.790143 
L 115.866293 86.408065 
L 115.886893 86.305418 
L 115.894618 86.339633 
L 115.966719 85.894827 
L 116.252546 83.568147 
L 116.265421 83.465499 
L 116.566699 80.933523 
L 116.569274 80.967739 
L 116.631074 80.317637 
L 116.646524 80.21499 
L 116.831926 78.230468 
L 116.834501 78.264684 
L 116.893726 77.580367 
L 116.904026 77.477719 
L 117.089428 74.500937 
L 117.094578 74.432505 
L 117.130628 70.976701 
L 117.174404 15.170591 
L 117.243929 67.144521 
L 117.38813 83.944521 
L 117.39328 83.978737 
L 117.583832 82.781181 
L 117.586407 82.815397 
L 117.637907 82.131079 
L 117.643058 82.131079 
L 118.248187 75.527413 
L 118.250763 75.561629 
L 118.304838 74.877312 
L 118.307413 74.877312 
L 118.554615 70.223951 
L 118.575215 52.089532 
L 118.611265 16.641874 
L 118.675641 61.977923 
L 118.822417 81.652057 
L 119.718525 68.307862 
L 119.749425 64.236171 
L 119.8035 19.481792 
L 119.865301 56.400733 
L 120.012077 78.812138 
L 120.014652 78.777923 
L 120.019802 78.846354 
L 120.097053 78.401548 
L 121.052386 64.304603 
L 121.119336 21.671609 
L 121.186287 56.366517 
L 121.335638 77.580367 
L 121.340788 77.546151 
L 122.18282 64.954705 
L 122.211145 52.534338 
L 122.26522 22.971813 
L 122.324446 49.660204 
L 122.486672 75.527413 
L 123.174203 64.954705 
L 123.336429 62.799104 
L 123.339004 62.83332 
L 123.40338 62.25165 
L 123.405955 62.25165 
L 123.498656 61.875275 
L 123.421405 62.320081 
L 123.529556 61.909491 
L 123.557881 61.806843 
L 123.740708 59.822322 
L 123.779333 60.301344 
L 123.897784 61.259389 
L 123.918384 61.122525 
L 124.00336 60.780367 
L 124.02911 61.122525 
L 124.103786 61.66998 
L 124.173311 61.567332 
L 124.268587 61.66998 
L 124.369013 62.012138 
L 124.394763 61.875275 
L 124.428238 61.977923 
L 124.510639 61.806843 
L 124.518364 61.875275 
L 124.58789 61.396253 
L 124.590465 61.396253 
L 124.793891 60.130265 
L 124.796466 60.164481 
L 124.850542 59.480163 
L 124.853117 59.480163 
L 125.115769 57.25613 
L 125.128644 57.290346 
L 125.216195 57.803585 
L 125.252245 57.632505 
L 125.257395 57.666721 
L 125.414471 59.548595 
L 125.568973 60.33556 
L 125.579273 60.301344 
L 125.754374 59.377515 
L 125.756949 59.445947 
L 125.787849 59.138004 
L 125.85995 59.240652 
L 125.9063 59.377515 
L 125.942351 59.17222 
L 125.968101 59.240652 
L 126.078827 58.932709 
L 125.996426 59.343299 
L 126.086552 58.966925 
L 126.089127 59.001141 
L 126.145777 58.522118 
L 126.161227 58.522118 
L 126.269378 57.564073 
L 126.302854 57.700937 
L 126.398129 58.248391 
L 126.42388 57.974664 
L 126.532031 57.666721 
L 126.539756 57.769369 
L 126.580956 57.940448 
L 126.637606 57.632505 
L 126.642756 57.666721 
L 126.843608 56.400733 
L 126.658207 57.735153 
L 126.846183 56.434949 
L 126.861633 56.537597 
L 127.04446 57.598289 
L 126.866783 56.503381 
L 127.047035 57.564073 
L 127.07536 57.461426 
L 127.12171 57.940448 
L 127.12686 57.940448 
L 127.263337 58.282607 
L 127.422988 57.564073 
L 127.425563 57.598289 
L 127.428138 57.632505 
L 127.479638 57.25613 
L 127.510539 57.25613 
L 127.703665 55.921711 
L 127.71139 56.058574 
L 127.775766 56.161222 
L 127.809241 56.298086 
L 127.876192 56.024358 
L 127.878767 56.058574 
L 127.930267 55.921711 
L 127.976617 56.195438 
L 127.979192 56.161222 
L 128.120819 56.67446 
L 128.123394 56.606029 
L 128.156869 56.503381 
L 128.28562 55.955927 
L 128.414371 56.366517 
L 128.313945 55.784847 
L 128.419521 56.298086 
L 128.527672 56.195438 
L 128.458146 56.537597 
L 128.532822 56.229654 
L 128.537972 56.332301 
L 128.589472 56.058574 
L 128.646123 56.26387 
L 128.661573 56.161222 
L 128.795474 55.545336 
L 128.8959 55.647984 
L 129.019501 56.024358 
L 129.029801 55.990143 
L 129.065851 55.853279 
L 129.099327 56.127006 
L 129.135377 56.024358 
L 129.174002 55.887495 
L 129.251253 56.195438 
L 129.282153 56.298086 
L 129.410904 56.982403 
L 129.431504 56.84554 
L 129.55768 56.400733 
L 129.596306 56.332301 
L 129.773982 54.279348 
L 129.779132 54.34778 
L 129.833208 54.484644 
L 129.876983 54.245132 
L 129.889858 54.34778 
L 129.995434 53.76611 
L 130.028909 53.902974 
L 130.204011 55.716415 
L 130.206586 55.6822 
L 130.227186 55.750631 
L 130.294136 56.26387 
L 130.345637 55.955927 
L 130.376537 55.853279 
L 130.67524 53.287088 
L 130.708715 53.116008 
L 130.809141 53.937189 
L 130.822016 54.005621 
L 130.948192 55.066314 
L 130.971367 55.032098 
L 131.025442 55.237393 
L 131.056343 54.92945 
L 131.082093 55.066314 
L 131.264919 53.868758 
L 131.087243 55.10053 
L 131.277794 53.902974 
L 131.365345 53.868758 
L 131.39367 54.074053 
L 131.414271 54.108269 
L 131.532722 53.697678 
L 131.561047 53.595031 
L 131.648598 53.355519 
L 131.591947 53.663462 
L 131.674348 53.492383 
L 131.710398 53.389735 
L 131.797949 53.081792 
L 131.741298 53.492383 
L 131.833999 53.218656 
L 132.016826 54.210916 
L 132.127551 53.971405 
L 132.024551 54.245132 
L 132.135277 54.074053 
L 132.238277 54.245132 
L 132.248577 54.176701 
L 132.354153 54.245132 
L 132.374753 54.450428 
L 132.454579 53.902974 
L 132.50608 53.76611 
L 132.539555 54.210916 
L 132.54213 54.210916 
L 132.560155 54.34778 
L 132.61423 53.76611 
L 132.61938 53.76611 
L 132.766157 53.252872 
L 132.802207 53.355519 
L 132.851132 52.944929 
L 132.856282 53.01336 
L 132.882033 52.944929 
L 132.902633 53.18444 
L 132.967008 53.01336 
L 133.008209 53.081792 
L 133.124085 53.76611 
L 133.139535 53.697678 
L 133.319786 52.739633 
L 133.322361 52.773849 
L 133.402187 52.397475 
L 133.404762 52.397475 
L 133.492313 51.815804 
L 133.525788 52.226395 
L 133.72149 53.355519 
L 133.760115 53.18444 
L 133.82964 53.423951 
L 133.842516 53.526599 
L 133.978992 54.245132 
L 134.079417 54.142485 
L 134.110318 53.937189 
L 134.161818 54.279348 
L 134.184993 54.210916 
L 134.228769 54.416212 
L 134.290569 54.108269 
L 134.298294 54.279348 
L 134.33692 54.381996 
L 134.432195 53.663462 
L 134.573822 50.755112 
L 134.694848 51.610509 
L 134.702573 51.576293 
L 134.9575 53.663462 
L 135.140326 52.568554 
L 134.970375 53.731894 
L 135.145476 52.60277 
L 135.199552 52.192179 
L 135.258777 52.671202 
L 135.266502 52.60277 
L 135.292252 52.876497 
L 135.364353 52.808065 
L 135.467354 52.705418 
L 135.397828 52.876497 
L 135.480229 52.739633 
L 135.500829 52.636986 
L 135.740306 49.933931 
L 135.786656 50.310305 
L 135.794382 50.27609 
L 136.018408 51.918452 
L 136.026133 51.815804 
L 136.098234 52.226395 
L 136.100809 52.192179 
L 136.139434 52.500122 
L 136.196085 52.055316 
L 136.20896 52.123747 
L 136.22956 52.226395 
L 136.23986 52.329043 
L 136.288786 51.986884 
L 136.327411 52.123747 
L 136.451012 51.542077 
L 136.535988 51.884236 
L 136.463887 51.507862 
L 136.569463 51.644725 
L 136.595213 51.747373 
L 136.677614 52.636986 
L 136.734264 52.500122 
L 136.754864 52.60277 
L 136.79864 52.260611 
L 136.842415 52.500122 
L 136.86559 52.60277 
L 136.984041 52.055316 
L 137.020092 51.781589 
L 137.177168 53.150224 
L 137.401195 51.610509 
L 137.416645 51.576293 
L 137.517071 51.815804 
L 137.535096 51.713157 
L 137.602046 52.192179 
L 137.617497 52.192179 
L 137.632947 52.123747 
L 137.645822 52.157963 
L 137.766848 51.165703 
L 137.779723 51.063055 
L 137.867274 50.85776 
L 137.815773 51.097271 
L 137.887874 51.063055 
L 137.936799 51.336782 
L 137.9986 51.063055 
L 138.0295 50.960407 
L 138.0501 50.891976 
L 138.117051 51.43943 
L 138.122201 51.43943 
L 138.145376 51.542077 
L 138.158251 51.610509 
L 138.181426 51.43943 
L 138.256102 51.542077 
L 138.371978 50.755112 
L 138.392578 50.823544 
L 138.554804 51.507862 
L 138.668105 51.405214 
L 139.010583 47.949409 
L 139.023458 48.086273 
L 139.183109 50.755112 
L 139.185684 50.720896 
L 139.221735 50.960407 
L 139.278385 50.960407 
L 139.293835 50.891976 
L 139.432886 49.899715 
L 139.31186 50.994623 
L 139.438036 49.968147 
L 139.489537 50.070794 
L 139.512712 49.831283 
L 139.548762 50.002363 
L 139.589963 49.762851 
L 139.636313 50.10501 
L 139.649188 50.10501 
L 139.741889 50.652464 
L 139.698114 50.070794 
L 139.785664 50.447169 
L 139.811415 50.344521 
L 139.973641 48.975886 
L 140.056042 48.291568 
L 140.107542 48.599511 
L 140.225993 48.975886 
L 140.228568 48.94167 
L 140.231143 48.907454 
L 140.285218 49.660204 
L 140.298094 49.762851 
L 140.411394 50.447169 
L 140.442295 50.27609 
L 140.534995 49.933931 
L 140.45517 50.310305 
L 140.558171 50.139226 
L 140.589071 50.27609 
L 140.640571 49.899715 
L 140.658596 50.036578 
L 140.668897 50.173442 
L 140.792498 49.728635 
L 140.802798 49.762851 
L 140.849148 49.146965 
L 140.859448 49.146965 
L 140.885198 49.044318 
L 140.998499 48.052057 
L 141.062875 48.086273 
L 141.214801 49.181181 
L 141.438828 50.926191 
L 141.451703 50.891976 
L 141.673155 49.318045 
L 141.67573 49.352261 
L 141.704055 49.283829 
L 141.796756 49.52334 
L 141.850831 49.420692 
L 141.899757 49.660204 
L 141.902332 49.591772 
L 141.904907 49.625988 
L 141.964132 49.352261 
L 141.995032 49.386477 
L 142.128934 48.462648 
L 142.162409 48.633727 
L 142.237084 49.318045 
L 142.29631 49.249613 
L 142.329785 49.146965 
L 142.33236 49.078534 
L 142.365835 49.352261 
L 142.430211 49.352261 
L 142.543512 49.797067 
L 142.551237 49.660204 
L 142.649088 49.591772 
L 142.746939 49.454908 
L 142.698013 49.797067 
L 142.762389 49.52334 
L 142.842214 49.420692 
L 143.066241 47.915193 
L 143.081691 47.983625 
L 143.146067 48.36 
L 143.194992 48.120489 
L 143.282543 48.017841 
L 143.292843 48.188921 
L 143.303143 48.188921 
L 143.331468 48.086273 
L 143.364944 47.880978 
L 143.426744 48.120489 
L 143.442194 48.086273 
L 143.50142 48.223136 
L 143.447344 48.017841 
L 143.560645 48.188921 
L 143.609571 48.36 
L 143.697121 47.812546 
L 143.833598 48.291568 
L 143.836173 48.223136 
L 143.843898 48.154705 
L 143.923723 48.531079 
L 144.042174 49.181181 
L 143.952049 48.462648 
L 144.067924 49.010102 
L 144.070499 48.975886 
L 144.14775 49.181181 
L 144.1632 49.181181 
L 144.176075 49.249613 
L 144.222426 48.496864 
L 144.384652 46.922933 
L 144.420702 47.299308 
L 144.580354 48.599511 
L 144.613829 48.462648 
L 144.655029 48.975886 
L 144.662754 48.975886 
L 144.71168 48.873238 
L 144.845581 47.607251 
L 144.891931 47.949409 
L 144.938282 47.983625 
L 144.982057 47.77833 
L 144.989782 47.812546 
L 145.023257 47.504603 
L 145.069608 48.257352 
L 145.090208 48.188921 
L 145.092783 48.223136 
L 145.172609 47.812546 
L 145.283334 47.230876 
L 145.30651 47.470387 
L 145.430111 48.017841 
L 145.486761 48.667943 
L 145.571737 48.462648 
L 145.741688 46.854501 
L 145.798339 46.922933 
L 145.924515 47.367739 
L 145.92709 47.333523 
L 145.986315 47.983625 
L 145.98889 47.915193 
L 146.053266 48.428432 
L 146.102191 48.120489 
L 146.192317 47.367739 
L 146.225792 47.538819 
L 146.243817 47.641466 
L 146.254117 47.744114 
L 146.333943 47.02558 
L 146.339093 47.094012 
L 146.351968 47.19666 
L 146.480719 47.675682 
L 146.493594 47.77833 
L 146.653246 48.94167 
L 146.681571 48.804807 
L 146.715046 48.873238 
L 146.946798 46.717637 
L 147.011174 46.991365 
L 147.062674 46.922933 
L 147.098724 46.786069 
L 147.139925 47.299308 
L 147.1734 47.19666 
L 147.276401 48.017841 
L 147.412877 47.607251 
L 147.415452 47.641466 
L 147.438627 47.812546 
L 147.492703 47.573035 
L 147.531328 47.709898 
L 147.533903 47.641466 
L 147.587978 48.086273 
L 147.636904 47.846762 
L 147.690979 47.401955 
L 147.775955 47.436171 
L 147.915006 48.36 
L 147.945906 48.223136 
L 147.992257 48.291568 
L 148.028307 48.599511 
L 148.097833 48.154705 
L 148.100408 48.188921 
L 148.121008 47.880978 
L 148.200833 48.086273 
L 148.278084 47.915193 
L 148.293534 48.154705 
L 148.311559 48.052057 
L 148.35276 48.154705 
L 148.38881 48.36 
L 148.43516 47.880978 
L 148.437735 47.880978 
L 148.576786 46.957149 
L 148.579362 47.02558 
L 148.612837 47.128228 
L 148.757038 48.086273 
L 148.808538 47.880978 
L 148.826564 48.188921 
L 148.860039 48.188921 
L 148.880639 48.086273 
L 148.937289 47.709898 
L 149.00939 47.846762 
L 149.058315 47.77833 
L 149.197367 46.957149 
L 149.199942 46.991365 
L 149.277192 46.580774 
L 149.357018 45.930672 
L 149.408518 46.03332 
L 149.547569 47.19666 
L 149.601645 47.436171 
L 149.642845 47.059796 
L 149.65057 47.128228 
L 149.799922 46.101752 
L 149.807647 46.067536 
L 149.897772 45.041059 
L 149.931248 45.45165 
L 150.088324 46.375479 
L 150.103774 46.307047 
L 150.2248 45.896456 
L 150.258275 45.656945 
L 150.302051 46.067536 
L 150.322651 46.03332 
L 150.410202 46.170183 
L 150.369001 45.828024 
L 150.425652 46.03332 
L 150.520927 45.622729 
L 150.541528 45.793809 
L 150.554403 45.930672 
L 150.618778 45.485866 
L 150.644528 45.588513 
L 150.647103 45.554297 
L 150.708904 46.204399 
L 150.711479 46.135967 
L 150.811905 47.02558 
L 150.84538 46.751853 
L 150.86083 46.751853 
L 150.968981 46.03332 
L 150.981856 46.170183 
L 150.984431 46.135967 
L 151.035932 46.888717 
L 151.038507 46.888717 
L 151.138933 47.333523 
L 151.159533 47.094012 
L 151.319184 45.725377 
L 151.45051 46.44391 
L 151.357809 45.656945 
L 151.453085 46.375479 
L 151.507161 46.272831 
L 151.556086 45.896456 
L 151.620461 46.238615 
L 151.751788 46.922933 
L 151.754363 46.854501 
L 151.769813 46.751853 
L 151.867664 46.170183 
L 151.921739 46.204399 
L 151.947489 46.307047 
L 152.00414 45.964888 
L 152.01444 46.03332 
L 152.125166 44.835764 
L 152.148341 44.972627 
L 152.271942 45.349002 
L 152.284817 45.45165 
L 152.483094 46.61499 
L 152.490819 46.683422 
L 152.521719 47.059796 
L 152.588669 46.375479 
L 152.781796 44.86998 
L 152.804971 44.972627 
L 152.825571 44.904196 
L 152.931147 45.177923 
L 152.949172 45.143707 
L 153.013548 45.554297 
L 153.016123 45.485866 
L 153.080498 46.135967 
L 153.134574 45.759593 
L 153.278775 44.6989 
L 153.283925 44.733116 
L 153.2865 44.6989 
L 153.371476 45.041059 
L 153.497652 45.828024 
L 153.533702 45.759593 
L 153.701079 44.904196 
L 153.706229 44.938411 
L 153.780904 45.314786 
L 153.827255 45.246354 
L 153.92253 44.562037 
L 153.945706 44.767332 
L 153.948281 44.733116 
L 153.999781 45.45165 
L 154.004931 45.45165 
L 154.128532 46.61499 
L 154.192908 46.478126 
L 154.244408 46.375479 
L 154.352559 45.554297 
L 154.396334 45.828024 
L 154.432385 45.930672 
L 154.489035 45.349002 
L 154.499335 45.314786 
L 154.643536 43.946151 
L 154.658986 43.740855 
L 154.736237 44.185662 
L 154.738812 44.151446 
L 154.978289 46.272831 
L 154.996314 46.170183 
L 155.140515 45.212138 
L 155.215191 45.349002 
L 155.163691 45.177923 
L 155.253816 45.246354 
L 155.271841 45.177923 
L 155.300167 45.520081 
L 155.354242 45.314786 
L 155.385142 45.520081 
L 155.467543 45.417434 
L 155.606594 44.219878 
L 155.475268 45.45165 
L 155.65037 44.390957 
L 155.779121 46.170183 
L 155.799721 45.999104 
L 155.874396 44.562037 
L 156.003147 44.767332 
L 156.028898 44.86998 
L 156.031473 44.904196 
L 156.095848 44.322525 
L 156.103573 44.425173 
L 156.196274 44.014582 
L 156.224599 44.11723 
L 156.34305 44.630468 
L 156.36365 44.493605 
L 156.412576 44.596253 
L 156.489826 44.28831 
L 156.510427 44.356741 
L 156.546477 43.980367 
L 156.590252 44.014582 
L 156.603127 43.911935 
L 156.664928 43.569776 
L 156.719003 43.775071 
L 156.721578 43.809287 
L 156.791104 43.330265 
L 156.793679 43.398697 
L 156.796254 43.296049 
L 156.883805 43.911935 
L 156.89153 43.911935 
L 156.935305 43.980367 
L 156.97393 43.775071 
L 157.051181 44.11723 
L 157.089806 44.048798 
L 157.112982 43.877719 
L 157.179932 44.322525 
L 157.190232 44.254094 
L 157.272633 44.356741 
L 157.290658 44.185662 
L 157.295808 44.254094 
L 157.429709 43.638208 
L 157.509535 42.851242 
L 157.55331 43.432912 
L 157.669186 44.014582 
L 157.676911 43.946151 
L 157.725837 43.638208 
L 157.857163 44.938411 
L 157.965314 44.459389 
L 157.978189 44.630468 
L 158.063164 45.006843 
L 158.094065 44.6989 
L 158.114665 44.527821 
L 158.161015 44.938411 
L 158.207366 44.630468 
L 158.245991 44.527821 
L 158.405642 43.261833 
L 158.436542 43.467128 
L 158.482893 44.014582 
L 158.554993 43.569776 
L 158.642544 42.714379 
L 158.699195 43.124969 
L 158.933522 44.767332 
L 158.956697 44.6989 
L 159.108623 43.467128 
L 159.111198 43.569776 
L 159.196174 42.748595 
L 159.201324 42.748595 
L 159.3481 42.132709 
L 159.227074 42.817026 
L 159.350675 42.235356 
L 159.39445 42.132709 
L 159.420201 41.995845 
L 159.479426 42.680163 
L 159.482001 42.680163 
L 159.595302 43.193401 
L 159.628777 43.159185 
L 159.664828 43.261833 
L 159.816754 43.911935 
L 159.762678 43.193401 
L 159.819329 43.843503 
L 159.873404 43.740855 
L 160.01503 42.988106 
L 160.027906 43.124969 
L 160.051081 43.432912 
L 160.092281 43.022322 
L 160.136056 43.124969 
L 160.159232 43.022322 
L 160.187557 43.296049 
L 160.233907 43.296049 
L 160.262232 43.364481 
L 160.326608 43.70664 
L 160.380683 43.603992 
L 160.401284 43.70664 
L 160.52231 44.254094 
L 160.409009 43.672424 
L 160.530035 44.185662 
L 160.787537 42.064277 
L 160.795262 42.132709 
L 160.802987 42.201141 
L 160.990963 44.356741 
L 160.993538 44.322525 
L 161.160915 43.432912 
L 161.16349 43.53556 
L 161.186665 43.877719 
L 161.245891 43.261833 
L 161.251041 43.261833 
L 161.287091 42.988106 
L 161.341166 43.53556 
L 161.346316 43.432912 
L 161.348891 43.467128 
L 161.405542 43.022322 
L 161.431292 43.090754 
L 161.562618 42.166925 
L 161.572918 42.269572 
L 161.655319 41.824766 
L 161.663044 41.893198 
L 161.683644 41.79055 
L 161.724844 42.303788 
L 161.735145 42.303788 
L 161.74287 42.269572 
L 161.863896 43.022322 
L 161.866471 42.988106 
L 161.923121 43.672424 
L 162.028697 44.28831 
L 162.046722 44.083014 
L 162.219248 43.124969 
L 162.226974 43.159185 
L 162.255299 43.261833 
L 162.268174 43.296049 
L 162.314524 42.645947 
L 162.319674 42.645947 
L 162.366025 42.37222 
L 162.427825 42.611731 
L 162.476751 42.543299 
L 162.541126 42.748595 
L 162.636402 42.714379 
L 162.587477 42.885458 
L 162.646702 42.817026 
L 162.675027 42.919674 
L 162.711078 43.056538 
L 162.754853 42.645947 
L 162.762578 42.645947 
L 162.821803 42.166925 
L 162.873304 42.509084 
L 162.97373 43.159185 
L 163.017505 42.95389 
L 163.179731 42.269572 
L 163.182306 42.303788 
L 163.249257 41.722118 
L 163.259557 41.61947 
L 163.300757 41.995845 
L 163.336808 41.961629 
L 163.406333 42.338004 
L 163.452684 42.098493 
L 163.460409 42.132709 
L 163.522209 41.824766 
L 163.550534 41.961629 
L 163.58916 41.79055 
L 163.643235 42.440652 
L 163.648385 42.440652 
L 163.774561 43.467128 
L 163.777136 43.432912 
L 163.792586 43.467128 
L 163.795161 43.569776 
L 163.882712 42.680163 
L 163.885287 42.714379 
L 163.926488 41.824766 
L 163.929063 41.858982 
L 164.016613 41.551039 
L 164.039788 41.824766 
L 164.23549 43.090754 
L 164.243215 43.056538 
L 164.392566 41.995845 
L 164.428617 41.893198 
L 164.575393 40.387699 
L 164.621743 40.798289 
L 164.812295 42.919674 
L 164.889545 43.603992 
L 164.935896 43.124969 
L 165.149623 41.0378 
L 165.195973 41.072016 
L 165.234598 40.969369 
L 165.322149 41.482607 
L 165.327299 41.414175 
L 165.363349 41.756334 
L 165.417425 41.687902 
L 165.46635 41.79055 
L 165.533301 42.166925 
L 165.582226 41.927413 
L 165.595101 41.858982 
L 165.607976 41.79055 
L 165.680077 42.474868 
L 165.783078 43.124969 
L 165.819128 42.919674 
L 165.986504 41.414175 
L 166.05088 41.140448 
L 166.09723 41.379959 
L 166.202806 41.414175 
L 166.164181 41.243096 
L 166.205381 41.345743 
L 166.218256 41.243096 
L 166.354732 40.524562 
L 166.238856 41.345743 
L 166.372758 40.62721 
L 166.596784 42.132709 
L 166.62511 42.064277 
L 166.753861 41.551039 
L 166.779611 41.653686 
L 166.797636 41.824766 
L 166.856862 41.585255 
L 166.892912 41.687902 
L 167.047413 41.072016 
L 167.057713 41.106232 
L 167.127239 40.798289 
L 167.137539 40.798289 
L 167.140114 40.764073 
L 167.196764 41.448391 
L 167.199339 41.448391 
L 167.279165 42.064277 
L 167.340966 41.893198 
L 167.392466 41.551039 
L 167.454266 41.756334 
L 167.588168 42.235356 
L 167.459417 41.687902 
L 167.598468 42.201141 
L 167.678293 42.064277 
L 167.698893 42.338004 
L 167.704044 42.303788 
L 167.817344 42.440652 
L 167.84052 42.509084 
L 167.92292 42.95389 
L 167.958971 42.748595 
L 168.237073 39.942892 
L 168.260248 40.182403 
L 168.401874 41.995845 
L 168.412174 41.927413 
L 168.5023 42.098493 
L 168.5229 41.893198 
L 168.530625 41.961629 
L 168.576976 41.482607 
L 168.613026 41.61947 
L 168.659376 41.585255 
L 168.767527 41.20888 
L 168.777827 41.277312 
L 168.932329 40.182403 
L 168.960654 40.285051 
L 169.140905 42.269572 
L 169.14348 42.201141 
L 169.166656 42.406436 
L 169.228456 41.927413 
L 169.411283 40.011324 
L 169.576084 38.676904 
L 169.609559 38.813768 
L 169.887661 41.311527 
L 169.900537 41.20888 
L 170.026713 39.942892 
L 170.055038 40.04554 
L 170.075638 39.942892 
L 170.111688 39.806029 
L 170.168339 40.182403 
L 170.176064 40.285051 
L 170.30739 40.764073 
L 170.320265 40.729857 
L 170.330565 40.661426 
L 170.407816 40.935153 
L 170.415541 40.935153 
L 170.567467 40.866721 
L 170.657593 40.182403 
L 170.701368 40.250835 
L 170.732268 40.182403 
L 170.824969 39.840244 
L 170.845569 40.113971 
L 170.956295 40.935153 
L 171.002646 40.764073 
L 171.048996 40.216619 
L 171.144272 40.353483 
L 171.231822 40.319267 
L 171.329673 39.942892 
L 171.347698 40.04554 
L 171.460999 41.20888 
L 171.49705 41.072016 
L 171.56915 40.969369 
L 171.733952 39.908676 
L 171.5743 41.003585 
L 171.751977 39.977108 
L 171.813777 40.62721 
L 171.867853 40.250835 
L 171.885878 40.079756 
L 171.957978 40.798289 
L 172.035229 41.243096 
L 172.08673 41.072016 
L 172.223206 40.319267 
L 172.241231 40.421914 
L 172.349382 40.524562 
L 172.282431 40.285051 
L 172.354532 40.490346 
L 172.377707 40.387699 
L 172.400882 40.250835 
L 172.449807 40.62721 
L 172.496158 40.285051 
L 172.498733 40.319267 
L 172.557958 39.634949 
L 172.645509 38.368961 
L 172.70731 38.608473 
L 172.740785 38.71112 
L 172.998287 41.20888 
L 173.021462 41.003585 
L 173.052362 41.174664 
L 173.250639 39.429654 
L 173.258364 39.361222 
L 173.32274 38.984847 
L 173.37424 39.155927 
L 173.513291 39.806029 
L 173.528741 39.737597 
L 173.608567 39.634949 
L 173.721868 38.505825 
L 173.750193 38.813768 
L 173.791394 38.916415 
L 173.886669 39.395438 
L 173.92272 39.190143 
L 173.94847 39.121711 
L 174.03087 38.779552 
L 174.059196 39.121711 
L 174.072071 39.224358 
L 174.159622 39.566517 
L 174.190522 39.327006 
L 174.262622 39.327006 
L 174.298673 39.361222 
L 174.378498 38.950631 
L 174.388798 38.847984 
L 174.466049 38.642688 
L 174.489224 38.916415 
L 174.499524 38.847984 
L 174.659176 39.566517 
L 174.520124 38.745336 
L 174.661751 39.532301 
L 174.692651 39.46387 
L 174.739001 38.984847 
L 174.816252 39.121711 
L 174.878052 38.984847 
L 174.937278 39.29279 
L 174.955303 39.190143 
L 175.027404 39.46387 
L 175.040279 39.429654 
L 175.060879 39.532301 
L 175.114954 39.019063 
L 175.135555 38.8822 
L 175.19478 39.634949 
L 175.197355 39.634949 
L 175.24628 40.079756 
L 175.313231 39.908676 
L 175.351856 39.806029 
L 175.462582 38.779552 
L 175.485757 38.8822 
L 175.503783 38.745336 
L 175.611933 39.361222 
L 175.637684 39.327006 
L 175.691759 39.771813 
L 175.732959 39.840244 
L 175.76386 40.011324 
L 175.82051 39.327006 
L 175.969861 38.232098 
L 176.036812 38.026802 
L 176.085737 38.368961 
L 176.157838 38.984847 
L 176.204188 38.505825 
L 176.247964 38.574257 
L 176.322639 38.061018 
L 176.38959 37.308269 
L 176.453965 37.787291 
L 176.46684 37.889939 
L 176.559541 39.053279 
L 176.616192 38.916415 
L 176.618767 38.8822 
L 176.672842 39.600733 
L 176.675417 39.600733 
L 176.734643 40.011324 
L 176.773268 39.498086 
L 176.783568 39.532301 
L 176.793868 39.429654 
L 176.829918 38.916415 
L 176.907169 39.361222 
L 177.02562 39.634949 
L 176.935494 39.327006 
L 177.03592 39.600733 
L 177.110596 39.224358 
L 177.167246 39.327006 
L 177.169821 39.361222 
L 177.231622 38.8822 
L 177.239347 38.916415 
L 177.355223 37.855723 
L 177.373248 37.992587 
L 177.411873 38.095234 
L 177.548349 38.779552 
L 177.566374 38.676904 
L 177.576675 38.779552 
L 177.586975 38.745336 
L 177.731176 39.395438 
L 177.908852 38.266314 
L 177.754351 39.46387 
L 177.916577 38.403177 
L 177.942328 38.540041 
L 177.975803 38.232098 
L 178.022153 38.368961 
L 178.078804 38.197882 
L 178.040178 38.437393 
L 178.130304 38.403177 
L 178.233305 38.71112 
L 178.135454 38.368961 
L 178.253905 38.574257 
L 178.28738 38.334745 
L 178.328581 38.984847 
L 178.331156 38.984847 
L 178.377506 39.121711 
L 178.426432 38.779552 
L 178.578358 37.992587 
L 178.591233 38.061018 
L 178.748309 39.327006 
L 178.900235 38.163666 
L 178.944011 38.197882 
L 178.956886 38.095234 
L 178.990361 37.787291 
L 179.054737 38.368961 
L 179.057312 38.334745 
L 179.088212 38.437393 
L 179.144862 38.061018 
L 179.147437 38.061018 
L 179.211813 37.376701 
L 179.260738 37.992587 
L 179.289064 38.266314 
L 179.356014 37.821507 
L 179.358589 37.821507 
L 179.363739 37.718859 
L 179.43069 38.30053 
L 179.556866 39.771813 
L 179.574891 39.669165 
L 179.757717 38.71112 
L 179.788618 38.608473 
L 179.958569 37.718859 
L 179.961144 37.753075 
L 180.136246 39.053279 
L 180.156846 38.8822 
L 180.164571 38.779552 
L 180.275297 37.889939 
L 180.301047 38.061018 
L 180.326797 38.026802 
L 180.365422 37.445132 
L 180.442673 37.821507 
L 180.458123 37.889939 
L 180.573999 38.676904 
L 180.470998 37.855723 
L 180.584299 38.505825 
L 180.592024 38.608473 
L 180.653825 38.12945 
L 180.669275 38.197882 
L 180.805751 37.684644 
L 180.715625 38.266314 
L 180.813476 37.753075 
L 180.831501 37.650428 
L 180.937077 37.308269 
L 180.955102 37.410916 
L 181.052953 38.471609 
L 181.099304 38.334745 
L 181.217754 37.787291 
L 181.243505 37.855723 
L 181.29758 37.821507 
L 181.364531 38.163666 
L 181.398006 38.061018 
L 181.516457 37.718859 
L 181.529332 37.787291 
L 181.567957 37.889939 
L 181.730184 38.608473 
L 181.737909 38.676904 
L 181.89756 37.102974 
L 181.905285 37.034542 
L 181.941335 36.760815 
L 182.008286 37.205621 
L 182.013436 37.274053 
L 182.072661 37.616212 
L 182.124162 37.308269 
L 182.240038 36.110713 
L 182.268363 36.350224 
L 182.561916 38.779552 
L 182.716417 37.718859 
L 182.749892 37.753075 
L 182.760192 37.684644 
L 182.891518 35.973849 
L 182.924993 36.247576 
L 183.043444 38.163666 
L 183.09752 37.924155 
L 183.203096 36.38444 
L 183.259746 36.521303 
L 183.272621 36.589735 
L 183.398797 37.274053 
L 183.406522 37.205621 
L 183.432273 37.102974 
L 183.473473 37.479348 
L 183.517248 37.171405 
L 183.532698 37.205621 
L 183.599649 36.829246 
L 183.602224 36.829246 
L 183.609949 36.726599 
L 183.6975 35.871202 
L 183.76445 36.110713 
L 183.962727 37.513564 
L 183.970452 37.410916 
L 184.117228 36.658167 
L 184.135253 36.692383 
L 184.261429 37.274053 
L 184.26658 37.239837 
L 184.472581 35.255316 
L 184.506056 35.494827 
L 184.660558 36.931894 
L 184.668283 36.897678 
L 184.784159 36.623951 
L 184.789309 36.726599 
L 184.807334 36.931894 
L 184.88716 36.589735 
L 184.889735 36.623951 
L 184.89231 36.589735 
L 184.92321 36.863462 
L 184.987585 36.795031 
L 185.142087 37.410916 
L 185.252813 37.102974 
L 185.183287 37.445132 
L 185.263113 37.137189 
L 185.268263 37.205621 
L 185.363539 36.863462 
L 185.376414 36.760815 
L 185.430489 36.521303 
L 185.469114 36.897678 
L 185.474264 36.897678 
L 185.50259 36.96611 
L 185.54379 36.452872 
L 185.54894 36.521303 
L 185.636491 35.871202 
L 185.667391 36.144929 
L 185.767817 36.897678 
L 185.798717 36.795031 
L 185.806442 36.726599 
L 185.870818 37.171405 
L 185.899143 37.068758 
L 185.909443 37.000326 
L 186.038194 37.445132 
L 186.076819 37.342485 
L 186.197845 36.863462 
L 186.202995 36.897678 
L 186.244196 36.795031 
L 186.324021 36.247576 
L 186.365222 36.487088 
L 186.367797 36.521303 
L 186.434747 36.008065 
L 186.439897 36.008065 
L 186.540323 34.878941 
L 186.581524 35.118452 
L 186.612424 35.563259 
L 186.681949 35.05002 
L 186.694824 35.152668 
L 186.751475 34.981589 
L 186.787525 35.357963 
L 186.792675 35.289532 
L 186.952327 37.000326 
L 186.998677 36.623951 
L 187.114553 35.426395 
L 187.142878 35.700122 
L 187.158328 35.734338 
L 187.284504 36.350224 
L 187.39523 36.795031 
L 187.418405 36.658167 
L 187.43128 36.555519 
L 187.578057 35.323747 
L 187.606382 35.700122 
L 187.611532 35.80277 
L 187.727408 37.068758 
L 187.796933 36.795031 
L 187.825259 36.692383 
L 187.94371 35.939633 
L 187.977185 36.144929 
L 188.03126 36.863462 
L 188.098211 36.487088 
L 188.275887 35.426395 
L 188.281037 35.529043 
L 188.402063 36.658167 
L 188.466439 36.555519 
L 188.556565 36.247576 
L 188.484464 36.623951 
L 188.58489 36.418656 
L 188.633815 36.692383 
L 188.680166 36.21336 
L 188.821792 34.776293 
L 188.824367 34.844725 
L 188.960843 34.776293 
L 188.999468 34.46835 
L 189.071569 34.776293 
L 189.238945 36.658167 
L 189.285296 36.144929 
L 189.298171 36.042281 
L 189.416622 34.878941 
L 189.460397 35.357963 
L 189.480997 35.460611 
L 189.535073 35.015804 
L 189.558248 35.05002 
L 189.622623 34.947373 
L 189.702449 34.228839 
L 189.743649 34.810509 
L 189.885276 36.247576 
L 189.934201 35.871202 
L 189.990852 35.084236 
L 190.052652 35.63169 
L 190.055227 35.700122 
L 190.114453 35.289532 
L 190.153078 35.357963 
L 190.194278 35.05002 
L 190.253504 35.392179 
L 190.263804 35.357963 
L 190.40028 36.795031 
L 190.271529 35.323747 
L 190.459505 36.487088 
L 190.675807 34.228839 
L 190.737608 34.263055 
L 190.760783 34.194623 
L 190.773658 34.091976 
L 190.814858 34.673646 
L 190.853484 34.673646 
L 190.863784 34.707862 
L 191.00541 72.961222 
L 191.226862 84.731487 
L 191.450888 89.316415 
L 191.463764 89.419063 
L 191.674915 92.122118 
L 191.69294 92.19055 
L 191.862892 93.798697 
L 191.873192 93.867128 
L 192.032843 95.167332 
L 192.045718 95.235764 
L 192.177044 96.091161 
L 192.18992 96.193809 
L 192.352146 96.878126 
L 192.370171 96.980774 
L 192.529822 97.767739 
L 192.534972 97.733523 
L 192.542697 97.699308 
L 192.609648 98.109898 
L 192.617373 98.109898 
L 192.769299 98.657352 
L 192.789899 98.691568 
L 192.90835 99.170591 
L 192.910925 99.136375 
L 192.949551 99.239022 
L 193.101477 99.854908 
L 193.104052 99.820692 
L 193.137527 99.92334 
L 193.268853 100.265499 
L 193.335804 100.162851 
L 193.371854 100.333931 
L 193.377004 100.265499 
L 193.48773 100.470794 
L 193.490305 100.402363 
L 193.510905 100.470794 
L 193.629356 100.67609 
L 193.657682 100.641874 
L 193.719482 100.847169 
L 193.727207 100.847169 
L 193.786433 100.949817 
L 193.791583 100.915601 
L 193.917759 101.223544 
L 193.935784 101.120896 
L 193.958959 101.25776 
L 194.028485 101.189328 
L 194.139211 101.326191 
L 194.141786 101.25776 
L 194.267962 101.531487 
L 194.270537 101.463055 
L 194.363237 101.634134 
L 194.376113 101.599919 
L 194.378688 101.565703 
L 194.466238 101.770998 
L 194.476538 101.736782 
L 194.504864 101.805214 
L 194.62589 102.181589 
L 194.628465 102.147373 
L 194.659365 102.113157 
L 194.71344 102.318452 
L 194.72374 102.284236 
L 194.788116 102.4211 
L 194.73404 102.25002 
L 194.837041 102.352668 
L 194.914292 102.4211 
L 194.896267 102.284236 
L 194.942617 102.284236 
L 195.243895 102.386884 
L 195.357196 102.523747 
L 195.259345 102.352668 
L 195.362346 102.489532 
L 195.488522 102.592179 
L 195.594098 102.694827 
L 195.509122 102.489532 
L 195.601823 102.626395 
L 195.635298 102.694827 
L 195.653323 102.660611 
L 195.746024 102.763259 
L 195.849025 102.694827 
L 195.815549 102.797475 
L 195.85675 102.763259 
L 195.957175 102.865906 
L 195.88765 102.694827 
L 195.972626 102.83169 
L 196.008676 102.865906 
L 196.088502 102.729043 
L 196.204378 102.865906 
L 196.407804 102.934338 
L 196.49278 103.139633 
L 196.52368 103.071202 
L 196.53398 103.036986 
L 196.590631 103.173849 
L 196.626681 103.139633 
L 196.636981 103.208065 
L 196.716807 103.00277 
L 196.732257 103.071202 
L 196.750282 103.105418 
L 196.853283 102.865906 
L 196.858433 103.00277 
L 196.902208 102.83169 
L 196.964009 102.865906 
L 197.046409 102.797475 
L 197.012934 102.934338 
L 197.07216 102.865906 
L 197.17001 102.934338 
L 197.12881 102.797475 
L 197.185461 102.900122 
L 197.273011 102.83169 
L 197.208636 102.968554 
L 197.296186 102.865906 
L 197.301337 102.83169 
L 197.417212 103.00277 
L 197.630939 102.900122 
L 197.648964 102.83169 
L 197.66699 103.00277 
L 197.73909 102.934338 
L 197.932217 102.865906 
L 197.934792 102.797475 
L 198.019767 102.934338 
L 198.042943 102.865906 
L 198.071268 103.00277 
L 198.153669 102.934338 
L 198.256669 102.865906 
L 198.158819 102.968554 
L 198.264394 102.934338 
L 198.452371 102.83169 
L 198.581122 101.976293 
L 198.593997 102.010509 
L 198.823174 102.113157 
L 198.9339 102.25002 
L 198.833474 102.078941 
L 198.93905 102.215804 
L 198.96995 102.113157 
L 199.00085 102.284236 
L 199.049776 102.215804 
L 199.090976 102.25002 
L 199.093551 102.113157 
L 199.155352 102.147373 
L 199.366503 102.215804 
L 199.474654 102.318452 
L 199.477229 102.284236 
L 199.55448 102.25002 
L 199.562205 102.352668 
L 199.587955 102.284236 
L 199.768207 102.386884 
L 199.848032 102.523747 
L 199.884083 102.455316 
L 199.992234 102.352668 
L 199.904683 102.523747 
L 199.994809 102.386884 
L 199.997384 102.455316 
L 200.090084 102.25002 
L 200.100385 102.284236 
L 200.278061 102.215804 
L 200.363037 102.147373 
L 200.321836 102.284236 
L 200.388787 102.181589 
L 200.623114 102.284236 
L 200.726115 102.386884 
L 200.633414 102.215804 
L 200.73384 102.352668 
L 200.782765 102.284236 
L 200.81624 102.4211 
L 200.844566 102.352668 
L 200.849716 102.318452 
L 200.960442 102.455316 
L 201.060867 102.352668 
L 201.037692 102.489532 
L 201.073742 102.386884 
L 201.140693 102.523747 
L 201.181893 102.455316 
L 201.184468 102.352668 
L 201.217944 102.489532 
L 201.292619 102.4211 
L 201.33897 102.318452 
L 201.297769 102.455316 
L 201.408495 102.352668 
L 201.454846 102.455316 
L 201.413645 102.318452 
L 201.516646 102.318452 
L 201.570722 102.25002 
L 201.521796 102.352668 
L 201.624797 102.352668 
L 201.699473 102.455316 
L 201.720073 102.489532 
L 201.779298 102.352668 
L 201.805049 102.386884 
L 202.495154 102.455316 
L 202.497729 102.523747 
L 202.533779 102.386884 
L 202.603305 102.455316 
L 202.714031 102.386884 
L 202.623905 102.489532 
L 202.716606 102.4211 
L 202.799007 102.489532 
L 202.734631 102.386884 
L 202.824757 102.386884 
L 202.871107 102.489532 
L 202.935483 102.352668 
L 202.981833 102.4211 
L 202.989558 102.318452 
L 203.043634 102.386884 
L 203.15436 102.284236 
L 203.156935 102.318452 
L 203.18011 102.25002 
L 203.203285 102.4211 
L 203.26251 102.352668 
L 203.295986 102.318452 
L 203.378386 102.4211 
L 203.491687 102.318452 
L 203.594688 102.4211 
L 203.604988 102.352668 
L 203.980941 102.4211 
L 204.071067 102.592179 
L 204.091667 102.455316 
L 204.207543 102.557963 
L 204.259044 102.455316 
L 204.225568 102.592179 
L 204.315694 102.557963 
L 204.323419 102.592179 
L 204.392945 102.455316 
L 204.42127 102.489532 
L 204.503671 102.455316 
L 204.521696 102.557963 
L 204.526846 102.557963 
L 204.877049 102.660611 
L 204.889924 102.626395 
L 204.99035 102.763259 
L 205.101076 102.592179 
L 205.111376 102.626395 
L 205.245277 102.557963 
L 205.353428 102.318452 
L 205.358578 102.352668 
L 205.371453 102.318452 
L 205.471879 102.4211 
L 205.489904 102.25002 
L 205.582605 102.4211 
L 205.855557 102.455316 
L 205.968858 102.592179 
L 206.313911 102.489532 
L 206.416911 102.455316 
L 206.321636 102.523747 
L 206.424636 102.489532 
L 206.473562 102.523747 
L 206.440087 102.4211 
L 206.532787 102.455316 
L 206.646088 102.557963 
L 206.733639 102.626395 
L 206.671838 102.455316 
L 206.756814 102.557963 
L 207.058092 102.523747 
L 207.168818 102.386884 
L 207.171393 102.4211 
L 207.307869 102.352668 
L 207.351644 102.25002 
L 207.315594 102.4211 
L 207.418595 102.352668 
L 207.51387 102.284236 
L 207.642621 101.428839 
L 207.652922 101.497271 
L 207.681247 101.394623 
L 207.691547 101.428839 
L 207.799698 101.291976 
L 207.915574 101.428839 
L 207.918149 101.394623 
L 207.956774 101.497271 
L 208.044325 101.531487 
L 208.005699 101.428839 
L 208.059775 101.463055 
L 208.080375 101.394623 
L 208.0881 101.497271 
L 208.170501 101.463055 
L 208.178226 101.428839 
L 208.283802 101.531487 
L 208.296677 101.497271 
L 208.376502 101.702566 
L 208.389378 101.599919 
L 208.448603 101.66835 
L 208.458903 101.634134 
L 208.564479 101.805214 
L 208.66233 101.736782 
L 208.62628 101.83943 
L 208.67263 101.805214 
L 208.773056 101.873646 
L 208.690655 101.702566 
L 208.783356 101.83943 
L 208.829706 101.907862 
L 208.894082 101.805214 
L 208.984207 101.942077 
L 209.007383 101.873646 
L 209.097508 101.907862 
L 209.082058 101.805214 
L 209.115534 101.873646 
L 209.128409 101.805214 
L 209.215959 102.010509 
L 209.218534 101.942077 
L 209.29836 102.078941 
L 209.31896 101.83943 
L 209.434836 100.197067 
L 209.452861 100.231283 
L 209.488912 100.333931 
L 209.494062 100.265499 
L 209.607363 100.50501 
L 209.638263 100.368147 
L 209.694913 100.607658 
L 209.715513 100.539226 
L 209.754139 100.607658 
L 209.86744 100.812953 
L 209.870015 100.778737 
L 209.975591 100.881385 
L 210.060566 101.052464 
L 210.091467 100.984033 
L 210.114642 100.949817 
L 210.179017 101.189328 
L 210.189317 101.155112 
L 210.385019 101.189328 
L 210.47257 101.326191 
L 210.495745 101.223544 
L 210.54467 101.360407 
L 210.521495 101.155112 
L 210.614196 101.326191 
L 210.670846 101.25776 
L 210.621921 101.360407 
L 210.722347 101.326191 
L 210.838223 101.463055 
L 210.755822 101.291976 
L 210.840798 101.428839 
L 210.843373 101.394623 
L 210.928348 101.531487 
L 210.943799 101.531487 
L 210.946374 101.565703 
L 210.956674 101.428839 
L 211.054524 101.531487 
L 211.095725 101.394623 
L 211.167825 101.428839 
L 211.1807 101.531487 
L 211.247651 101.394623 
L 211.278551 101.463055 
L 211.376402 101.326191 
L 211.294001 101.497271 
L 211.389277 101.394623 
L 211.412452 101.428839 
L 211.456228 101.291976 
L 211.492278 101.326191 
L 211.548929 101.291976 
L 211.507728 101.394623 
L 211.597854 101.326191 
L 211.70858 101.463055 
L 211.711155 101.428839 
L 211.71373 101.360407 
L 211.783255 101.497271 
L 211.821881 101.428839 
L 212.048483 101.360407 
L 212.061358 101.428839 
L 212.166934 101.155112 
L 212.372935 101.25776 
L 212.437311 101.360407 
L 212.452761 101.223544 
L 212.483661 101.25776 
L 212.784939 101.326191 
L 212.787514 101.394623 
L 212.862189 101.189328 
L 212.890515 101.223544 
L 213.003815 101.189328 
L 213.106816 100.984033 
L 213.117116 101.08668 
L 213.238142 100.881385 
L 213.240717 100.915601 
L 213.281918 100.812953 
L 213.287068 100.778737 
L 213.377194 100.984033 
L 213.382344 100.915601 
L 213.402944 100.881385 
L 213.50337 101.08668 
L 213.547145 100.984033 
L 213.578045 101.120896 
L 213.614095 101.08668 
L 213.946273 101.189328 
L 214.000349 101.291976 
L 213.982323 101.155112 
L 214.054424 101.189328 
L 214.1291 101.120896 
L 214.14455 101.25776 
L 214.16 101.25776 
L 214.291326 101.326191 
L 214.404627 101.463055 
L 214.425227 101.394623 
L 214.507628 101.565703 
L 214.512778 101.497271 
L 214.618354 101.565703 
L 214.556553 101.463055 
L 214.623504 101.497271 
L 214.81663 101.565703 
L 214.839806 101.634134 
L 214.878431 101.497271 
L 214.927356 101.565703 
L 215.022632 101.428839 
L 215.040657 101.497271 
L 215.130783 101.394623 
L 215.151383 101.497271 
L 216.196842 101.565703 
L 216.232892 101.634134 
L 216.248342 101.531487 
L 216.307568 101.565703 
L 217.316976 101.463055 
L 217.373626 101.360407 
L 217.327276 101.497271 
L 217.430277 101.428839 
L 217.83198 101.360407 
L 217.834555 101.291976 
L 217.86803 101.428839 
L 217.940131 101.394623 
L 218.140983 101.291976 
L 218.218233 101.189328 
L 218.187333 101.326191 
L 218.249134 101.291976 
L 218.264584 101.394623 
L 218.267159 101.25776 
L 218.362434 101.326191 
L 218.44741 101.223544 
L 218.47831 101.25776 
L 218.571011 101.326191 
L 218.519511 101.223544 
L 218.586461 101.25776 
L 218.607061 101.223544 
L 218.591611 101.326191 
L 218.697187 101.25776 
L 218.758988 101.428839 
L 218.807913 101.291976 
L 218.964989 101.189328 
L 218.970139 101.25776 
L 219.07314 101.155112 
L 219.181291 101.223544 
L 219.080865 101.08668 
L 219.183866 101.189328 
L 219.222492 101.08668 
L 219.191591 101.25776 
L 219.294592 101.189328 
L 219.384718 101.223544 
L 219.320342 101.120896 
L 219.402743 101.189328 
L 219.482569 101.08668 
L 219.415618 101.223544 
L 219.513469 101.189328 
L 219.582994 101.291976 
L 219.541794 101.120896 
L 219.624195 101.189328 
L 220.043923 101.120896 
L 220.123749 101.052464 
L 220.152074 101.189328 
L 220.154649 101.120896 
L 220.208725 101.08668 
L 220.2422 101.223544 
L 220.25765 101.155112 
L 220.275675 101.120896 
L 220.373526 101.291976 
L 220.736604 101.25776 
L 220.849905 101.120896 
L 221.220708 101.189328 
L 221.249033 101.120896 
L 221.334009 101.25776 
L 221.352034 101.291976 
L 221.44731 101.223544 
L 221.51941 101.25776 
L 221.527135 101.120896 
L 221.555461 101.189328 
L 221.668762 101.018248 
L 221.673912 101.052464 
L 221.722837 101.120896 
L 221.730562 100.984033 
L 221.779487 100.984033 
L 221.921114 100.915601 
L 221.923689 100.847169 
L 222.008664 101.052464 
L 222.029265 100.949817 
L 222.147716 101.120896 
L 222.150291 101.08668 
L 222.158016 101.018248 
L 222.163166 101.155112 
L 222.255866 101.052464 
L 222.371742 101.25776 
L 222.418093 101.291976 
L 222.487618 101.155112 
L 222.492768 101.25776 
L 222.593194 101.08668 
L 222.595769 101.120896 
L 222.64727 101.018248 
L 222.618944 101.189328 
L 222.711645 101.052464 
L 222.830096 101.25776 
L 223.177724 101.360407 
L 223.239524 101.428839 
L 223.211199 101.291976 
L 223.28845 101.394623 
L 223.376001 101.326191 
L 223.2936 101.497271 
L 223.396601 101.394623 
L 223.417201 101.463055 
L 223.497027 101.25776 
L 223.499602 101.291976 
L 223.793154 101.394623 
L 223.800879 101.428839 
L 223.826629 101.291976 
L 223.90388 101.394623 
L 224.220608 101.291976 
L 224.254083 101.394623 
L 224.336483 101.189328 
L 224.411159 101.25776 
L 224.431759 101.155112 
L 224.442059 101.189328 
L 224.46781 101.25776 
L 224.552785 101.08668 
L 224.668661 101.223544 
L 224.691836 101.189328 
L 224.799987 101.08668 
L 224.802562 101.120896 
L 225.018864 101.189328 
L 225.057489 101.120896 
L 225.12959 101.25776 
L 225.230016 101.189328 
L 225.178515 101.291976 
L 225.237741 101.25776 
L 225.240316 101.291976 
L 225.338167 101.120896 
L 225.340742 101.155112 
L 225.348467 101.08668 
L 225.376792 101.223544 
L 225.448893 101.189328 
L 225.513268 101.291976 
L 225.600819 101.326191 
L 225.518418 101.189328 
L 225.623994 101.291976 
L 225.68322 101.189328 
L 225.642019 101.326191 
L 225.73472 101.291976 
L 225.943297 101.223544 
L 226.046298 101.120896 
L 225.951022 101.25776 
L 226.054023 101.189328 
L 226.175049 101.155112 
L 226.177624 101.052464 
L 226.205949 101.223544 
L 226.285774 101.120896 
L 226.321825 101.223544 
L 226.29865 101.08668 
L 226.3965 101.120896 
L 226.445426 101.189328 
L 226.522676 101.326191 
L 226.558727 101.25776 
L 226.584477 101.326191 
L 226.633402 101.155112 
L 226.664303 101.189328 
L 226.811079 101.08668 
L 226.813654 101.052464 
L 226.834254 101.223544 
L 226.916655 101.120896 
L 226.999055 101.189328 
L 226.963005 101.052464 
L 227.024806 101.08668 
L 227.089181 101.155112 
L 227.181882 101.223544 
L 227.107206 101.120896 
L 227.199907 101.189328 
L 227.305483 101.155112 
L 227.220507 101.291976 
L 227.310633 101.189328 
L 227.429084 101.120896 
L 227.475434 101.018248 
L 227.439384 101.155112 
L 227.53981 101.08668 
L 227.725211 101.120896 
L 227.727786 101.223544 
L 227.797312 101.052464 
L 227.833362 101.052464 
L 227.918338 101.155112 
L 227.938938 101.018248 
L 227.946663 101.08668 
L 228.438492 101.018248 
L 228.489993 101.052464 
L 228.549218 100.949817 
L 228.667669 101.08668 
L 228.768095 100.984033 
L 228.783545 101.018248 
L 228.79642 100.984033 
L 228.904571 101.155112 
L 228.979247 101.018248 
L 228.958646 101.189328 
L 229.020447 101.08668 
L 229.100273 101.155112 
L 229.084822 101.018248 
L 229.131173 101.08668 
L 229.210999 100.949817 
L 229.244474 101.018248 
L 229.393825 101.120896 
L 229.491676 101.189328 
L 229.398975 101.052464 
L 229.504551 101.155112 
L 229.612702 101.08668 
L 229.558626 101.223544 
L 229.617852 101.120896 
L 229.635877 101.155112 
L 229.715703 101.018248 
L 229.728578 101.120896 
L 229.831579 101.052464 
L 229.800678 101.223544 
L 229.839304 101.120896 
L 229.908829 101.223544 
L 230.00668 101.25776 
L 229.993805 101.155112 
L 230.014405 101.189328 
L 230.01698 101.155112 
L 230.05818 101.291976 
L 230.119981 101.25776 
L 230.423833 101.155112 
L 230.506234 101.052464 
L 230.439284 101.189328 
L 230.534559 101.120896 
L 230.56031 101.08668 
L 230.650435 101.189328 
L 230.707086 101.120896 
L 230.66331 101.25776 
L 230.763736 101.155112 
L 230.789486 101.223544 
L 230.779186 101.08668 
L 230.874462 101.189328 
L 230.998063 101.018248 
L 231.052139 101.08668 
L 231.088189 100.949817 
L 231.108789 101.018248 
L 231.16544 100.984033 
L 231.18604 100.881385 
L 231.183465 101.018248 
L 231.27359 101.018248 
L 231.919921 100.949817 
L 232.028072 100.881385 
L 231.927646 101.018248 
L 232.030647 100.915601 
L 232.061547 101.018248 
L 232.069272 100.881385 
L 232.141373 100.915601 
L 232.254673 101.018248 
L 232.257249 100.984033 
L 232.259824 100.949817 
L 232.306174 101.08668 
L 232.362824 101.052464 
L 232.738777 101.120896 
L 232.743928 101.189328 
L 232.769678 101.018248 
L 232.849503 101.120896 
L 233.753336 101.189328 
L 233.853762 101.291976 
L 233.804836 101.155112 
L 233.866637 101.25776 
L 233.979938 101.155112 
L 234.090664 101.25776 
L 234.003113 101.120896 
L 234.093239 101.189328 
L 234.167914 101.25776 
L 234.276065 101.326191 
L 234.175639 101.223544 
L 234.27864 101.25776 
L 234.397091 101.360407 
L 234.500092 101.394623 
L 234.510392 101.25776 
L 234.546442 101.326191 
L 234.564467 101.394623 
L 234.585068 101.25776 
L 234.652018 101.291976 
L 234.654593 101.223544 
L 234.695794 101.394623 
L 234.762744 101.25776 
L 234.767894 101.394623 
L 234.83227 101.223544 
L 234.87347 101.25776 
L 235.324099 101.189328 
L 235.393624 101.08668 
L 235.339549 101.223544 
L 235.434825 101.120896 
L 235.458 101.052464 
L 235.550701 101.189328 
L 235.661426 101.052464 
L 235.664001 101.08668 
L 235.741252 101.155112 
L 235.710352 101.018248 
L 235.774727 101.120896 
L 235.875153 101.052464 
L 235.823653 101.189328 
L 235.885453 101.120896 
L 236.05798 101.189328 
L 236.06313 101.291976 
L 236.163556 101.120896 
L 236.168706 101.189328 
L 236.554959 101.291976 
L 236.557534 101.326191 
L 236.596159 101.223544 
L 236.66311 101.291976 
L 236.717185 101.223544 
L 236.691435 101.360407 
L 236.776411 101.25776 
L 237.731743 101.189328 
L 237.819294 101.08668 
L 237.845044 101.120896 
L 238.244173 101.052464 
L 238.269923 101.08668 
L 238.354899 100.984033 
L 238.457899 101.08668 
L 238.452749 100.949817 
L 238.465624 101.052464 
L 238.537725 100.881385 
L 238.5815 100.984033 
L 238.694801 100.881385 
L 238.733427 100.812953 
L 238.699951 100.949817 
L 238.805527 100.881385 
L 239.189205 100.812953 
L 239.287056 100.744521 
L 239.199506 100.847169 
L 239.299931 100.778737 
L 240.036387 100.881385 
L 240.118788 100.949817 
L 240.080163 100.812953 
L 240.144538 100.915601 
L 240.149688 100.847169 
L 240.183164 100.984033 
L 240.252689 100.915601 
L 240.347965 101.052464 
L 240.265564 100.881385 
L 240.36084 100.881385 
L 240.543667 100.778737 
L 240.553967 100.847169 
L 240.656967 100.67609 
L 240.772843 100.812953 
L 241.071546 100.881385 
L 241.161672 101.018248 
L 241.182272 100.949817 
L 241.321323 101.052464 
L 241.323898 101.08668 
L 241.329048 100.984033 
L 241.432049 101.052464 
L 241.756502 100.984033 
L 241.808002 101.018248 
L 241.869802 100.915601 
L 241.952203 101.018248 
L 241.990828 101.08668 
L 241.998553 100.949817 
L 242.065504 101.052464 
L 242.178805 100.915601 
L 242.21743 100.881385 
L 242.292106 100.984033 
L 242.407982 100.881385 
L 242.467207 101.018248 
L 242.526433 100.984033 
L 243.116113 101.052464 
L 243.219114 101.155112 
L 243.175338 101.018248 
L 243.229414 101.120896 
L 243.280914 101.052464 
L 243.314389 101.189328 
L 243.34014 101.08668 
L 243.435415 101.155112 
L 243.399365 101.052464 
L 243.44829 101.120896 
L 243.530691 101.189328 
L 243.561591 101.052464 
L 243.574466 101.155112 
L 243.582191 101.120896 
L 243.685192 101.223544 
L 243.793343 101.08668 
L 243.798493 101.155112 
L 243.868019 101.08668 
L 243.901494 101.223544 
L 243.909219 101.155112 
L 243.919519 101.25776 
L 243.97617 101.120896 
L 244.019945 101.155112 
L 244.122946 101.08668 
L 244.040545 101.189328 
L 244.133246 101.120896 
L 244.164146 101.189328 
L 244.231097 101.052464 
L 244.241397 101.120896 
L 244.346973 101.052464 
L 244.303197 101.189328 
L 244.354698 101.08668 
L 244.460274 101.155112 
L 244.408773 101.018248 
L 244.465424 101.08668 
L 244.516924 101.189328 
L 244.470574 101.052464 
L 244.573575 101.08668 
L 244.692026 100.949817 
L 244.704901 101.018248 
L 244.740951 100.881385 
L 244.797601 100.915601 
L 244.846527 100.984033 
L 244.910902 100.812953 
L 244.985578 100.881385 
L 244.959828 100.778737 
L 245.021628 100.812953 
L 245.127204 100.67609 
L 245.096304 100.847169 
L 245.134929 100.710305 
L 245.24308 100.778737 
L 245.18643 100.641874 
L 245.24823 100.744521 
L 245.346081 100.641874 
L 245.333206 100.778737 
L 245.361531 100.710305 
L 245.621608 100.710305 
L 245.662809 100.539226 
L 245.734909 100.573442 
L 245.794135 100.607658 
L 245.752934 100.50501 
L 245.845635 100.573442 
L 245.953786 100.402363 
L 245.966661 100.436578 
L 246.046487 100.539226 
L 246.159788 100.641874 
L 246.072237 100.50501 
L 246.162363 100.607658 
L 246.360639 100.50501 
L 246.370939 100.573442 
L 246.471365 100.470794 
L 246.566641 100.641874 
L 246.592391 100.607658 
L 248.073028 100.539226 
L 248.173454 100.368147 
L 248.186329 100.436578 
L 248.340831 100.368147 
L 248.425806 100.265499 
L 248.451556 100.333931 
L 248.752834 100.402363 
L 248.755409 100.470794 
L 248.786309 100.333931 
L 248.860985 100.333931 
L 248.966561 100.231283 
L 248.86871 100.368147 
L 248.976861 100.265499 
L 249.435215 100.368147 
L 249.548515 100.50501 
L 249.553666 100.470794 
L 249.574266 100.402363 
L 249.651516 100.607658 
L 249.659241 100.50501 
L 249.705592 100.573442 
L 249.726192 100.470794 
L 249.767392 100.50501 
L 249.860093 100.470794 
L 249.806018 100.573442 
L 249.878118 100.50501 
L 250.784526 100.402363 
L 250.900402 100.128635 
L 250.792251 100.436578 
L 250.902977 100.162851 
L 251.003402 100.265499 
L 251.013703 100.197067 
L 251.121853 100.231283 
L 251.232579 100.368147 
L 251.276355 100.299715 
L 251.302105 100.436578 
L 251.34073 100.436578 
L 251.451456 100.299715 
L 251.456606 100.333931 
L 251.520982 100.402363 
L 251.562182 100.299715 
L 251.564757 100.333931 
L 251.569907 100.368147 
L 251.683208 100.197067 
L 251.714108 100.368147 
L 251.796509 100.265499 
L 252.211087 100.333931 
L 252.213662 100.402363 
L 252.303788 100.265499 
L 252.321813 100.333931 
L 252.429964 100.197067 
L 252.437689 100.231283 
L 252.496915 100.265499 
L 252.532965 100.025988 
L 252.54069 100.162851 
L 252.651416 100.060204 
L 252.548415 100.197067 
L 252.653991 100.09442 
L 252.764717 100.197067 
L 252.705491 100.060204 
L 252.767292 100.162851 
L 252.968144 100.265499 
L 253.037669 100.299715 
L 253.001619 100.162851 
L 253.076294 100.231283 
L 253.447097 100.197067 
L 253.534648 100.09442 
L 253.459973 100.265499 
L 253.557823 100.162851 
L 253.673699 100.060204 
L 253.77155 100.128635 
L 253.70975 99.991772 
L 253.784425 100.09442 
L 253.789575 100.025988 
L 253.830776 100.197067 
L 253.890001 100.162851 
L 254.451356 100.231283 
L 254.495131 100.333931 
L 254.551782 100.197067 
L 254.562082 100.265499 
L 254.721733 100.197067 
L 254.721733 100.197067 
" clip-path="url(#p1fd424393e)" style="fill: none; stroke: #000000; stroke-opacity: 0.5; stroke-width: 1.5; stroke-linecap: square"/>
   </g>
   <g id="patch_3">
    <path d="M 41.667188 173.52 
L 41.667188 7.2 
" style="fill: none; stroke: #000000; stroke-width: 0.8; stroke-linejoin: miter; stroke-linecap: square"/>
   </g>
   <g id="patch_4">
    <path d="M 41.667188 173.52 
L 264.867187 173.52 
" style="fill: none; stroke: #000000; stroke-width: 0.8; stroke-linejoin: miter; stroke-linecap: square"/>
   </g>
  </g>
 </g>
 <defs>
  <clipPath id="p1fd424393e">
   <rect x="41.667188" y="7.2" width="223.2" height="166.32"/>
  </clipPath>
 </defs>
</svg>
