<?xml version="1.0" encoding="utf-8" standalone="no"?>
<!DOCTYPE svg PUBLIC "-//W3C//DTD SVG 1.1//EN"
  "http://www.w3.org/Graphics/SVG/1.1/DTD/svg11.dtd">
<svg xmlns:xlink="http://www.w3.org/1999/xlink" width="272.067187pt" height="197.398125pt" viewBox="0 0 272.067187 197.398125" xmlns="http://www.w3.org/2000/svg" version="1.1">
 <metadata>
  <rdf:RDF xmlns:dc="http://purl.org/dc/elements/1.1/" xmlns:cc="http://creativecommons.org/ns#" xmlns:rdf="http://www.w3.org/1999/02/22-rdf-syntax-ns#">
   <cc:Work>
    <dc:type rdf:resource="http://purl.org/dc/dcmitype/StillImage"/>
    <dc:date>2025-12-19T12:22:48.608565</dc:date>
    <dc:format>image/svg+xml</dc:format>
    <dc:creator>
     <cc:Agent>
      <dc:title>Matplotlib v3.10.7, https://matplotlib.org/</dc:title>
     </cc:Agent>
    </dc:creator>
   </cc:Work>
  </rdf:RDF>
 </metadata>
 <defs>
  <style type="text/css">*{stroke-linejoin: round; stroke-linecap: butt}</style>
 </defs>
 <g id="figure_1">
  <g id="patch_1">
   <path d="M 0 197.398125 
L 272.067187 197.398125 
L 272.067187 0 
L 0 0 
z
" style="fill: #ffffff"/>
  </g>
  <g id="axes_1">
   <g id="patch_2">
    <path d="M 41.667188 173.52 
L 264.867188 173.52 
L 264.867188 7.2 
L 41.667188 7.2 
z
" style="fill: #ffffff"/>
   </g>
   <g id="matplotlib.axis_1">
    <g id="xtick_1">
     <g id="line2d_1">
      <defs>
       <path id="mf148d44d94" d="M 0 0 
L 0 3.5 
" style="stroke: #000000; stroke-width: 0.8"/>
      </defs>
      <g>
       <use xlink:href="#mf148d44d94" x="82.712896" y="173.52" style="stroke: #000000; stroke-width: 0.8"/>
      </g>
     </g>
     <g id="text_1">
      <!-- 1 -->
      <g transform="translate(79.531646 188.118438) scale(0.1 -0.1)">
       <defs>
        <path id="DejaVuSans-31" d="M 794 531 
L 1825 531 
L 1825 4091 
L 703 3866 
L 703 4441 
L 1819 4666 
L 2450 4666 
L 2450 531 
L 3481 531 
L 3481 0 
L 794 0 
L 794 531 
z
" transform="scale(0.015625)"/>
       </defs>
       <use xlink:href="#DejaVuSans-31"/>
      </g>
     </g>
    </g>
    <g id="xtick_2">
     <g id="line2d_2">
      <g>
       <use xlink:href="#mf148d44d94" x="134.213319" y="173.52" style="stroke: #000000; stroke-width: 0.8"/>
      </g>
     </g>
     <g id="text_2">
      <!-- 2 -->
      <g transform="translate(131.032069 188.118438) scale(0.1 -0.1)">
       <defs>
        <path id="DejaVuSans-32" d="M 1228 531 
L 3431 531 
L 3431 0 
L 469 0 
L 469 531 
Q 828 903 1448 1529 
Q 2069 2156 2228 2338 
Q 2531 2678 2651 2914 
Q 2772 3150 2772 3378 
Q 2772 3750 2511 3984 
Q 2250 4219 1831 4219 
Q 1534 4219 1204 4116 
Q 875 4013 500 3803 
L 500 4441 
Q 881 4594 1212 4672 
Q 1544 4750 1819 4750 
Q 2544 4750 2975 4387 
Q 3406 4025 3406 3419 
Q 3406 3131 3298 2873 
Q 3191 2616 2906 2266 
Q 2828 2175 2409 1742 
Q 1991 1309 1228 531 
z
" transform="scale(0.015625)"/>
       </defs>
       <use xlink:href="#DejaVuSans-32"/>
      </g>
     </g>
    </g>
    <g id="xtick_3">
     <g id="line2d_3">
      <g>
       <use xlink:href="#mf148d44d94" x="185.713741" y="173.52" style="stroke: #000000; stroke-width: 0.8"/>
      </g>
     </g>
     <g id="text_3">
      <!-- 3 -->
      <g transform="translate(182.532491 188.118438) scale(0.1 -0.1)">
       <defs>
        <path id="DejaVuSans-33" d="M 2597 2516 
Q 3050 2419 3304 2112 
Q 3559 1806 3559 1356 
Q 3559 666 3084 287 
Q 2609 -91 1734 -91 
Q 1441 -91 1130 -33 
Q 819 25 488 141 
L 488 750 
Q 750 597 1062 519 
Q 1375 441 1716 441 
Q 2309 441 2620 675 
Q 2931 909 2931 1356 
Q 2931 1769 2642 2001 
Q 2353 2234 1838 2234 
L 1294 2234 
L 1294 2753 
L 1863 2753 
Q 2328 2753 2575 2939 
Q 2822 3125 2822 3475 
Q 2822 3834 2567 4026 
Q 2313 4219 1838 4219 
Q 1578 4219 1281 4162 
Q 984 4106 628 3988 
L 628 4550 
Q 988 4650 1302 4700 
Q 1616 4750 1894 4750 
Q 2613 4750 3031 4423 
Q 3450 4097 3450 3541 
Q 3450 3153 3228 2886 
Q 3006 2619 2597 2516 
z
" transform="scale(0.015625)"/>
       </defs>
       <use xlink:href="#DejaVuSans-33"/>
      </g>
     </g>
    </g>
    <g id="xtick_4">
     <g id="line2d_4">
      <g>
       <use xlink:href="#mf148d44d94" x="237.214164" y="173.52" style="stroke: #000000; stroke-width: 0.8"/>
      </g>
     </g>
     <g id="text_4">
      <!-- 4 -->
      <g transform="translate(234.032914 188.118438) scale(0.1 -0.1)">
       <defs>
        <path id="DejaVuSans-34" d="M 2419 4116 
L 825 1625 
L 2419 1625 
L 2419 4116 
z
M 2253 4666 
L 3047 4666 
L 3047 1625 
L 3713 1625 
L 3713 1100 
L 3047 1100 
L 3047 0 
L 2419 0 
L 2419 1100 
L 313 1100 
L 313 1709 
L 2253 4666 
z
" transform="scale(0.015625)"/>
       </defs>
       <use xlink:href="#DejaVuSans-34"/>
      </g>
     </g>
    </g>
   </g>
   <g id="matplotlib.axis_2">
    <g id="ytick_1">
     <g id="line2d_5">
      <defs>
       <path id="me5b3d390bf" d="M 0 0 
L -3.5 0 
" style="stroke: #000000; stroke-width: 0.8"/>
      </defs>
      <g>
       <use xlink:href="#me5b3d390bf" x="41.667188" y="151.721432" style="stroke: #000000; stroke-width: 0.8"/>
      </g>
     </g>
     <g id="text_5">
      <!-- −125 -->
      <g transform="translate(7.2 155.520651) scale(0.1 -0.1)">
       <defs>
        <path id="DejaVuSans-2212" d="M 678 2272 
L 4684 2272 
L 4684 1741 
L 678 1741 
L 678 2272 
z
" transform="scale(0.015625)"/>
        <path id="DejaVuSans-35" d="M 691 4666 
L 3169 4666 
L 3169 4134 
L 1269 4134 
L 1269 2991 
Q 1406 3038 1543 3061 
Q 1681 3084 1819 3084 
Q 2600 3084 3056 2656 
Q 3513 2228 3513 1497 
Q 3513 744 3044 326 
Q 2575 -91 1722 -91 
Q 1428 -91 1123 -41 
Q 819 9 494 109 
L 494 744 
Q 775 591 1075 516 
Q 1375 441 1709 441 
Q 2250 441 2565 725 
Q 2881 1009 2881 1497 
Q 2881 1984 2565 2268 
Q 2250 2553 1709 2553 
Q 1456 2553 1204 2497 
Q 953 2441 691 2322 
L 691 4666 
z
" transform="scale(0.015625)"/>
       </defs>
       <use xlink:href="#DejaVuSans-2212"/>
       <use xlink:href="#DejaVuSans-31" transform="translate(83.789062 0)"/>
       <use xlink:href="#DejaVuSans-32" transform="translate(147.412109 0)"/>
       <use xlink:href="#DejaVuSans-35" transform="translate(211.035156 0)"/>
      </g>
     </g>
    </g>
    <g id="ytick_2">
     <g id="line2d_6">
      <g>
       <use xlink:href="#me5b3d390bf" x="41.667188" y="127.571883" style="stroke: #000000; stroke-width: 0.8"/>
      </g>
     </g>
     <g id="text_6">
      <!-- −100 -->
      <g transform="translate(7.2 131.371102) scale(0.1 -0.1)">
       <defs>
        <path id="DejaVuSans-30" d="M 2034 4250 
Q 1547 4250 1301 3770 
Q 1056 3291 1056 2328 
Q 1056 1369 1301 889 
Q 1547 409 2034 409 
Q 2525 409 2770 889 
Q 3016 1369 3016 2328 
Q 3016 3291 2770 3770 
Q 2525 4250 2034 4250 
z
M 2034 4750 
Q 2819 4750 3233 4129 
Q 3647 3509 3647 2328 
Q 3647 1150 3233 529 
Q 2819 -91 2034 -91 
Q 1250 -91 836 529 
Q 422 1150 422 2328 
Q 422 3509 836 4129 
Q 1250 4750 2034 4750 
z
" transform="scale(0.015625)"/>
       </defs>
       <use xlink:href="#DejaVuSans-2212"/>
       <use xlink:href="#DejaVuSans-31" transform="translate(83.789062 0)"/>
       <use xlink:href="#DejaVuSans-30" transform="translate(147.412109 0)"/>
       <use xlink:href="#DejaVuSans-30" transform="translate(211.035156 0)"/>
      </g>
     </g>
    </g>
    <g id="ytick_3">
     <g id="line2d_7">
      <g>
       <use xlink:href="#me5b3d390bf" x="41.667188" y="103.422334" style="stroke: #000000; stroke-width: 0.8"/>
      </g>
     </g>
     <g id="text_7">
      <!-- −75 -->
      <g transform="translate(13.5625 107.221553) scale(0.1 -0.1)">
       <defs>
        <path id="DejaVuSans-37" d="M 525 4666 
L 3525 4666 
L 3525 4397 
L 1831 0 
L 1172 0 
L 2766 4134 
L 525 4134 
L 525 4666 
z
" transform="scale(0.015625)"/>
       </defs>
       <use xlink:href="#DejaVuSans-2212"/>
       <use xlink:href="#DejaVuSans-37" transform="translate(83.789062 0)"/>
       <use xlink:href="#DejaVuSans-35" transform="translate(147.412109 0)"/>
      </g>
     </g>
    </g>
    <g id="ytick_4">
     <g id="line2d_8">
      <g>
       <use xlink:href="#me5b3d390bf" x="41.667188" y="79.272785" style="stroke: #000000; stroke-width: 0.8"/>
      </g>
     </g>
     <g id="text_8">
      <!-- −50 -->
      <g transform="translate(13.5625 83.072004) scale(0.1 -0.1)">
       <use xlink:href="#DejaVuSans-2212"/>
       <use xlink:href="#DejaVuSans-35" transform="translate(83.789062 0)"/>
       <use xlink:href="#DejaVuSans-30" transform="translate(147.412109 0)"/>
      </g>
     </g>
    </g>
    <g id="ytick_5">
     <g id="line2d_9">
      <g>
       <use xlink:href="#me5b3d390bf" x="41.667188" y="55.123236" style="stroke: #000000; stroke-width: 0.8"/>
      </g>
     </g>
     <g id="text_9">
      <!-- −25 -->
      <g transform="translate(13.5625 58.922455) scale(0.1 -0.1)">
       <use xlink:href="#DejaVuSans-2212"/>
       <use xlink:href="#DejaVuSans-32" transform="translate(83.789062 0)"/>
       <use xlink:href="#DejaVuSans-35" transform="translate(147.412109 0)"/>
      </g>
     </g>
    </g>
    <g id="ytick_6">
     <g id="line2d_10">
      <g>
       <use xlink:href="#me5b3d390bf" x="41.667188" y="30.973687" style="stroke: #000000; stroke-width: 0.8"/>
      </g>
     </g>
     <g id="text_10">
      <!-- 0 -->
      <g transform="translate(28.304688 34.772906) scale(0.1 -0.1)">
       <use xlink:href="#DejaVuSans-30"/>
      </g>
     </g>
    </g>
   </g>
   <g id="line2d_11">
    <path d="M 51.812642 95.622078 
L 51.923368 95.710517 
L 51.969718 95.681037 
L 52.044394 95.828434 
L 52.095894 95.769476 
L 52.14482 95.887393 
L 52.15512 95.828434 
L 52.263271 95.916873 
L 52.309621 96.005311 
L 52.289021 95.857914 
L 52.373997 95.916873 
L 52.420347 95.887393 
L 52.381722 95.975832 
L 52.479573 95.916873 
L 52.487298 95.887393 
L 52.592873 96.03479 
L 52.641799 95.887393 
L 52.703599 95.975832 
L 52.719049 96.005311 
L 52.79115 95.887393 
L 52.809175 95.916873 
L 52.992002 95.828434 
L 53.089853 95.739996 
L 53.046077 95.887393 
L 53.107878 95.769476 
L 53.486406 95.710517 
L 53.488981 95.651558 
L 53.504431 95.769476 
L 53.597132 95.710517 
L 54.03746 95.651558 
L 54.040035 95.592599 
L 54.068361 95.710517 
L 54.148186 95.651558 
L 54.300112 95.739996 
L 54.405688 95.798955 
L 54.310413 95.681037 
L 54.410838 95.739996 
L 54.57049 95.798955 
L 54.665765 95.857914 
L 54.61169 95.710517 
L 54.681216 95.798955 
L 54.797092 95.916873 
L 54.732716 95.739996 
L 54.799667 95.887393 
L 54.874342 95.828434 
L 54.846017 95.916873 
L 54.907817 95.887393 
L 54.995368 95.916873 
L 54.938718 95.828434 
L 55.015968 95.887393 
L 55.118969 95.857914 
L 55.108669 95.975832 
L 55.124119 95.887393 
L 55.136994 95.857914 
L 55.239995 96.005311 
L 55.278621 95.887393 
L 55.353296 95.946352 
L 55.984176 95.857914 
L 56.061427 95.828434 
L 55.997051 95.916873 
L 56.089752 95.887393 
L 56.107777 95.828434 
L 56.200478 95.916873 
L 56.231378 95.798955 
L 56.313779 95.857914 
L 56.316354 95.887393 
L 56.318929 95.769476 
L 56.42193 95.828434 
L 56.705182 95.887393 
L 56.797883 95.975832 
L 56.815908 95.946352 
L 56.921484 95.887393 
L 56.859683 96.005311 
L 56.926634 95.916873 
L 57.01676 100.397746 
L 57.307737 114.813188 
L 57.565239 123.244305 
L 58.245045 136.274213 
L 58.827 141.668949 
L 58.850175 141.757387 
L 58.991801 142.494373 
L 58.996951 142.464894 
L 59.074202 142.818647 
L 59.105102 142.907085 
L 59.236428 143.378756 
L 59.239003 143.319797 
L 59.329129 143.644071 
L 59.336854 143.614592 
L 59.455305 144.056783 
L 59.46303 144.027304 
L 59.475905 143.997824 
L 59.52998 144.292618 
L 59.548006 144.292618 
L 59.676757 144.616892 
L 59.684482 144.587413 
L 59.717957 144.646372 
L 59.728257 144.616892 
L 59.836408 144.852728 
L 59.893058 144.793769 
L 59.918809 144.970645 
L 59.941984 144.941166 
L 59.972884 144.911686 
L 60.060435 145.147522 
L 60.150561 145.206481 
L 60.261286 145.383357 
L 60.266436 145.353878 
L 60.310212 145.412837 
L 60.410638 145.560234 
L 60.315362 145.383357 
L 60.423513 145.530755 
L 60.438963 145.501275 
L 60.516214 145.707631 
L 60.521364 145.678152 
L 60.554839 145.737111 
L 60.634664 145.825549 
L 60.665565 145.76659 
L 60.727365 145.737111 
L 60.768566 145.855028 
L 60.773716 145.796069 
L 60.832941 145.76659 
L 60.889592 145.855028 
L 61.108468 145.913987 
L 61.175419 146.031905 
L 61.211469 145.855028 
L 61.219194 145.913987 
L 61.420046 146.002425 
L 61.445796 145.943467 
L 61.538497 146.090864 
L 61.566822 146.031905 
L 61.644073 146.179302 
L 61.646648 146.120343 
L 61.752224 146.208781 
L 61.669823 146.090864 
L 61.759949 146.179302 
L 61.780549 146.090864 
L 61.770249 146.208781 
L 61.87325 146.149823 
L 61.999426 146.208781 
L 62.035476 146.120343 
L 62.112727 146.326699 
L 62.117877 146.26774 
L 62.148777 146.385658 
L 62.220877 146.356179 
L 62.226028 146.385658 
L 62.267228 146.238261 
L 62.323878 146.26774 
L 62.331603 146.326699 
L 62.437179 146.208781 
L 62.553055 146.326699 
L 62.589106 146.238261 
L 62.663781 146.326699 
L 62.694681 146.29722 
L 62.725582 146.415137 
L 62.771932 146.356179 
L 62.864633 146.415137 
L 62.957334 146.503576 
L 62.908408 146.385658 
L 62.975359 146.444617 
L 63.032009 146.385658 
L 62.983084 146.503576 
L 63.086085 146.444617 
L 63.18651 146.503576 
L 63.10411 146.415137 
L 63.199386 146.474096 
L 63.312686 146.326699 
L 63.317837 146.385658 
L 63.753015 146.444617 
L 63.822541 146.503576 
L 63.848291 146.385658 
L 63.861166 146.444617 
L 63.910091 146.385658 
L 63.871466 146.474096 
L 63.974467 146.415137 
L 64.087768 146.562535 
L 64.090343 146.474096 
L 64.092918 146.385658 
L 64.190769 146.533055 
L 64.201069 146.474096 
L 64.739248 146.533055 
L 64.741823 146.621493 
L 64.803624 146.474096 
L 64.849974 146.533055 
L 64.932375 146.444617 
L 64.963275 146.474096 
L 64.97615 146.533055 
L 65.040526 146.385658 
L 65.071426 146.444617 
L 65.133226 146.356179 
L 65.246527 146.26774 
L 65.328928 146.356179 
L 65.318628 146.238261 
L 65.357253 146.29722 
L 65.509179 146.385658 
L 65.583855 146.415137 
L 65.54008 146.326699 
L 65.61218 146.356179 
L 65.717756 146.29722 
L 65.62248 146.385658 
L 65.722906 146.326699 
L 66.132335 146.238261 
L 66.230185 146.120343 
L 66.245636 146.179302 
L 66.619014 146.090864 
L 66.621589 146.061384 
L 66.691114 146.179302 
L 66.722014 146.120343 
L 66.778665 146.179302 
L 66.814715 146.061384 
L 66.83274 146.120343 
L 66.907416 146.179302 
L 66.909991 146.238261 
L 66.979517 146.090864 
L 67.015567 146.149823 
L 67.262769 146.120343 
L 67.41727 135.802542 
L 68.076476 116.935707 
L 69.111634 106.352591 
L 69.124509 106.293632 
L 69.276435 105.350291 
L 69.297036 105.261852 
L 69.441237 104.495387 
L 69.456687 104.406949 
L 69.644663 103.493086 
L 69.652389 103.522566 
L 69.721914 103.168813 
L 69.727064 103.198292 
L 69.899591 102.490786 
L 69.925341 102.402347 
L 70.079842 101.812759 
L 70.082417 101.871718 
L 70.105592 101.783279 
L 70.265244 101.22317 
L 70.296144 101.134732 
L 70.424895 100.69254 
L 70.43262 100.751499 
L 70.520171 100.427226 
L 70.525321 100.486184 
L 70.651497 100.102952 
L 70.672097 100.161911 
L 70.744197 99.896596 
L 70.746772 99.955555 
L 70.883249 99.66076 
L 70.919299 99.572322 
L 71.0326 99.248048 
L 71.055775 99.277528 
L 71.060925 99.336487 
L 71.140751 99.071172 
L 71.148476 99.100651 
L 71.279802 98.835336 
L 71.295252 98.864816 
L 71.351902 98.62898 
L 71.372503 98.65846 
L 71.508979 98.363665 
L 71.511554 98.393145 
L 71.593954 98.216268 
L 71.60683 98.216268 
L 71.66348 98.12783 
L 71.784506 97.891995 
L 71.789656 97.921474 
L 71.869482 97.685639 
L 71.879782 97.715118 
L 71.936432 97.656159 
L 72.057458 97.331885 
L 72.060033 97.361365 
L 72.101234 97.302406 
L 72.22226 97.06657 
L 72.24801 97.125529 
L 72.322685 96.948653 
L 72.387061 96.860214 
L 72.497787 96.712817 
L 72.392211 96.889694 
L 72.502937 96.742297 
L 72.508087 96.801256 
L 72.598213 96.5949 
L 72.608513 96.653858 
L 72.742414 96.388544 
L 72.765589 96.447502 
L 72.824815 96.270626 
L 72.84799 96.300105 
L 72.963866 96.093749 
L 72.966441 96.123229 
L 73.077167 95.975832 
L 73.084892 96.005311 
L 73.110642 96.03479 
L 73.177592 95.887393 
L 73.190468 95.946352 
L 73.288318 95.798955 
L 73.311494 95.828434 
L 73.334669 95.857914 
L 73.406769 95.681037 
L 73.414494 95.739996 
L 73.532945 95.651558 
L 73.538095 95.681037 
L 73.651396 95.53364 
L 73.661696 95.56312 
L 73.738947 95.386243 
L 73.751822 95.415722 
L 73.852248 95.327284 
L 73.965549 95.120928 
L 73.890873 95.356764 
L 73.973274 95.209366 
L 74.0428 95.268325 
L 74.065975 95.150407 
L 74.081425 95.150407 
L 74.091725 95.268325 
L 74.174126 95.120928 
L 74.192151 95.150407 
L 74.308027 95.061969 
L 74.418753 95.00301 
L 74.313177 95.091449 
L 74.421328 95.03249 
L 74.467678 94.944051 
L 74.483128 95.00301 
L 74.588704 94.826134 
L 74.65823 94.914572 
L 74.69943 94.885093 
L 74.732905 94.796654 
L 74.722605 94.914572 
L 74.807581 94.885093 
L 74.887406 94.973531 
L 74.841056 94.826134 
L 74.915732 94.855613 
L 75.132034 94.826134 
L 75.219584 94.708216 
L 75.242759 94.767175 
L 75.358635 94.708216 
L 75.428161 94.531339 
L 75.474511 94.590298 
L 75.500262 94.649257 
L 75.572362 94.50186 
L 75.585237 94.590298 
L 75.698538 94.442901 
L 75.747464 94.531339 
L 75.780939 94.413422 
L 75.809264 94.472381 
L 76.107967 94.413422 
L 76.218692 94.236545 
L 76.223842 94.266025 
L 76.293368 94.324983 
L 76.295943 94.383942 
L 76.373194 94.236545 
L 76.404094 94.324983 
L 76.643571 94.295504 
L 76.659021 94.207066 
L 76.684771 94.324983 
L 76.754297 94.266025 
L 76.852148 94.354463 
L 76.764597 94.236545 
L 76.865023 94.295504 
L 76.960299 94.236545 
L 76.872748 94.324983 
L 76.975749 94.266025 
L 77.101925 94.177586 
L 77.222951 94.059669 
L 77.233251 94.177586 
L 77.277026 94.030189 
L 77.333677 94.089148 
L 77.431527 94.00071 
L 77.444402 94.030189 
L 77.521653 94.059669 
L 77.634954 94.148107 
L 77.743105 94.059669 
L 77.74568 94.089148 
L 77.851256 94.148107 
L 77.76628 94.059669 
L 77.856406 94.118627 
L 77.969707 94.030189 
L 77.864131 94.148107 
L 77.972282 94.059669 
L 78.188584 94.00071 
L 78.191159 93.941751 
L 78.242659 94.089148 
L 78.294159 94.059669 
L 78.389435 94.089148 
L 78.343085 93.97123 
L 78.399735 94.030189 
L 78.410035 94.00071 
L 78.474411 94.148107 
L 78.507886 94.059669 
L 78.610887 94.207066 
L 78.623762 94.118627 
L 80.096674 94.148107 
L 80.1662 94.266025 
L 80.209975 94.236545 
L 80.220275 94.148107 
L 80.312976 94.295504 
L 80.318126 94.266025 
L 80.758455 94.177586 
L 80.76103 94.148107 
L 80.779055 94.266025 
L 80.866606 94.207066 
L 80.964456 94.266025 
L 80.871756 94.148107 
L 80.977331 94.207066 
L 81.036557 94.177586 
L 80.982482 94.266025 
L 81.082907 94.207066 
L 81.173033 94.295504 
L 81.193633 94.236545 
L 81.476886 94.266025 
L 81.479461 94.354463 
L 81.538686 94.207066 
L 81.587612 94.266025 
L 81.662287 94.324983 
L 81.613362 94.207066 
L 81.695762 94.266025 
L 81.783313 94.177586 
L 81.806488 94.236545 
L 81.839964 94.295504 
L 81.883739 94.148107 
L 81.914639 94.207066 
L 82.164416 94.207066 
L 82.166991 94.089148 
L 82.205617 94.236545 
L 82.275142 94.207066 
L 82.316342 94.148107 
L 82.344668 94.266025 
L 82.380718 94.236545 
L 82.468269 94.295504 
L 82.455394 94.177586 
L 82.488869 94.207066 
L 82.630495 94.266025 
L 82.635645 94.207066 
L 82.751521 99.395446 
L 83.112024 125.219427 
L 83.699129 147.034205 
L 84.154908 154.934693 
L 84.651887 159.386087 
L 84.654462 159.356608 
L 84.723987 159.76932 
L 84.729137 159.76932 
L 84.909389 160.624223 
L 84.911964 160.594744 
L 84.927414 160.683182 
L 85.08449 161.331729 
L 85.092215 161.30225 
L 85.102515 161.361209 
L 85.107665 161.331729 
L 85.233841 161.83288 
L 85.257017 161.921318 
L 85.414093 162.481427 
L 85.416668 162.451948 
L 85.496494 162.746742 
L 85.501644 162.717263 
L 85.640695 163.071016 
L 85.656145 163.012057 
L 85.733396 163.188934 
L 85.743696 163.159454 
L 85.859572 163.424769 
L 85.875022 163.39529 
L 85.931672 163.454248 
L 86.050123 163.837481 
L 86.052698 163.808002 
L 86.101624 163.86696 
L 86.214924 164.014358 
L 86.2175 163.984878 
L 86.2896 164.073316 
L 86.418351 164.279672 
L 86.490452 164.368111 
L 86.495602 164.309152 
L 86.619203 164.574467 
L 86.639803 164.515508 
L 86.714479 164.751343 
L 86.817479 164.839782 
L 86.92048 165.046138 
L 86.835505 164.810302 
L 86.94108 165.016658 
L 86.94623 164.987179 
L 86.987431 165.134576 
L 87.046656 165.075617 
L 87.175407 165.281973 
L 87.201158 165.252494 
L 87.268108 165.42937 
L 87.278408 165.370411 
L 87.376259 165.488329 
L 87.319609 165.311453 
L 87.391709 165.45885 
L 87.43806 165.399891 
L 87.422609 165.488329 
L 87.497285 165.488329 
L 87.615736 165.694685 
L 87.50501 165.45885 
L 87.620886 165.665206 
L 87.654361 165.635726 
L 87.674961 165.753644 
L 87.726462 165.694685 
L 87.852638 165.930521 
L 87.855213 165.901041 
L 87.870663 165.812603 
L 87.860363 165.930521 
L 87.965939 165.871562 
L 88.027739 165.96 
L 88.07924 165.901041 
L 88.179666 165.753644 
L 88.192541 165.812603 
L 88.251766 165.724165 
L 88.390817 165.399891 
L 88.401117 165.45885 
L 88.483518 165.223014 
L 88.491243 165.281973 
L 88.553044 165.193535 
L 88.648319 165.075617 
L 88.558194 165.223014 
L 88.66892 165.105097 
L 88.68952 165.134576 
L 88.75647 164.987179 
L 88.769345 165.016658 
L 88.892946 164.780823 
L 88.895522 164.810302 
L 88.898097 164.839782 
L 88.983072 164.544987 
L 89.091223 164.456549 
L 89.098948 164.486028 
L 89.209674 164.250193 
L 89.256024 164.161755 
L 89.261175 164.191234 
L 89.397651 163.749043 
L 89.402801 163.808002 
L 89.490351 163.542687 
L 89.500651 163.601646 
L 89.616527 163.336331 
L 89.619102 163.36581 
L 89.621677 163.39529 
L 89.686053 163.159454 
L 89.711803 163.159454 
L 89.773604 163.071016 
L 89.897205 162.717263 
L 89.912655 162.746742 
L 89.91523 162.776221 
L 89.997631 162.510907 
L 90.000206 162.510907 
L 90.219082 161.243291 
L 90.234532 161.272771 
L 90.280883 161.095894 
L 90.316933 161.184332 
L 90.437959 160.830579 
L 90.486885 160.742141 
L 90.625936 160.299949 
L 90.633661 160.329429 
L 90.680011 160.24099 
L 90.795887 159.857758 
L 90.806187 159.887237 
L 90.824212 159.798799 
L 90.978714 159.297649 
L 91.025064 159.23869 
L 91.148665 158.855457 
L 91.15124 158.884937 
L 91.285141 158.619622 
L 91.287716 158.649101 
L 91.377842 158.413266 
L 91.452517 158.324827 
L 91.591569 157.971074 
L 91.594144 158.030033 
L 91.684269 157.67628 
L 91.689419 157.705759 
L 91.697145 157.735239 
L 91.81302 157.381486 
L 91.859371 157.293047 
L 91.990697 156.968774 
L 91.995847 156.998253 
L 92.019022 156.939294 
L 92.140048 156.703459 
L 92.147773 156.732938 
L 92.227599 156.438144 
L 92.230174 156.467623 
L 92.36665 156.172829 
L 92.3924 156.084391 
L 92.523726 155.701158 
L 92.39755 156.11387 
L 92.531451 155.730638 
L 92.534026 155.760117 
L 92.603552 155.465323 
L 92.616427 155.465323 
L 92.634452 155.494802 
L 92.763203 155.052611 
L 92.765778 155.08209 
L 92.845604 154.816775 
L 92.848179 154.816775 
L 92.97178 154.463022 
L 92.979505 154.521981 
L 93.061906 154.197707 
L 93.072206 154.227187 
L 93.085081 154.256666 
L 93.224132 153.755516 
L 93.242157 153.814475 
L 93.314258 153.54916 
L 93.461034 153.077489 
L 93.463609 153.165927 
L 93.56146 152.812174 
L 93.569185 152.841653 
L 93.700511 152.4879 
L 93.721111 152.458421 
L 93.842137 152.075188 
L 93.844712 152.134147 
L 93.924538 151.839353 
L 93.942563 151.839353 
L 93.973463 151.750914 
L 94.115089 151.279244 
L 93.981188 151.780394 
L 94.122814 151.308723 
L 94.158865 151.220285 
L 94.310791 150.748614 
L 94.315941 150.778093 
L 94.382892 150.512778 
L 94.398342 150.512778 
L 94.519368 150.159025 
L 94.521943 150.188505 
L 94.529668 150.217984 
L 94.588893 150.041107 
L 94.622369 150.070587 
L 94.658419 149.982149 
L 94.663569 150.011628 
L 94.77687 149.657875 
L 94.80262 149.569437 
L 94.951971 149.127245 
L 94.980296 149.038807 
L 95.155398 148.183903 
L 94.988022 149.068286 
L 95.163123 148.213383 
L 95.183723 148.124944 
L 95.302174 147.653274 
L 95.312474 147.712232 
L 95.45925 147.270041 
L 95.46955 147.29952 
L 95.536501 147.034205 
L 95.551951 147.093164 
L 95.672977 146.79837 
L 95.675552 146.827849 
L 95.755378 146.562535 
L 95.765678 146.592014 
L 95.796578 146.503576 
L 95.938204 146.090864 
L 95.940779 146.149823 
L 96.02833 145.76659 
L 96.03348 145.796069 
L 96.149356 145.471796 
L 96.151931 145.501275 
L 96.290982 145.118043 
L 96.293557 145.147522 
L 96.339908 145.088563 
L 96.458359 144.823248 
L 96.460934 144.882207 
L 96.551059 144.528454 
L 96.553634 144.528454 
L 96.702986 144.086262 
L 96.736461 144.027304 
L 96.865212 143.614592 
L 96.880662 143.644071 
L 96.939888 143.408236 
L 96.957913 143.408236 
L 97.006838 143.349277 
L 97.127864 142.966044 
L 97.133014 142.995523 
L 97.174214 142.907085 
L 97.302966 142.582811 
L 97.194815 142.936565 
L 97.308116 142.612291 
L 97.310691 142.64177 
L 97.380216 142.405935 
L 97.400816 142.435414 
L 97.532142 142.111141 
L 97.534717 142.14062 
L 97.537292 142.170099 
L 97.601668 141.698429 
L 97.606818 141.698429 
L 97.663468 141.60999 
L 97.810245 141.197278 
L 97.861745 141.10884 
L 97.993071 140.755087 
L 97.866895 141.138319 
L 98.000796 140.784566 
L 98.036847 140.696128 
L 98.049722 140.725607 
L 98.168173 140.430813 
L 98.170748 140.489772 
L 98.266023 140.194978 
L 98.268598 140.194978 
L 98.312374 140.106539 
L 98.44885 139.723307 
L 98.451425 139.752786 
L 98.454 139.782266 
L 98.536401 139.516951 
L 98.538976 139.516951 
L 98.670302 139.192677 
L 98.672877 139.222156 
L 98.678027 139.251636 
L 98.763003 139.0158 
L 98.765578 139.04528 
L 98.783603 139.074759 
L 98.894329 138.809444 
L 98.902054 138.868403 
L 98.969004 138.632568 
L 98.992179 138.662047 
L 99.138956 138.190376 
L 99.141531 138.219856 
L 99.172431 138.190376 
L 99.293457 137.836623 
L 99.329507 137.748185 
L 99.471133 137.335473 
L 99.473708 137.364952 
L 99.514909 137.276514 
L 99.64366 137.011199 
L 99.646235 137.040678 
L 99.67971 136.95224 
L 99.816186 136.657446 
L 99.867687 136.598487 
L 99.988713 136.303693 
L 99.999013 136.333172 
L 100.081413 136.126816 
L 100.083988 136.156296 
L 100.184414 135.832022 
L 100.215314 135.890981 
L 100.217889 135.92046 
L 100.28999 135.625666 
L 100.30544 135.684625 
L 100.452216 135.212954 
L 100.454791 135.271913 
L 100.544917 134.977118 
L 100.550067 134.977118 
L 100.678818 134.711803 
L 100.565517 135.006598 
L 100.681393 134.741283 
L 100.707143 134.652845 
L 100.84362 134.240133 
L 100.712294 134.682324 
L 100.84877 134.299091 
L 100.851345 134.328571 
L 100.933745 134.004297 
L 100.93632 134.033777 
L 100.987821 133.945338 
L 101.137172 133.503147 
L 101.170647 133.414709 
L 101.307123 133.090435 
L 101.317423 133.119914 
L 101.397249 132.913558 
L 101.402399 132.943038 
L 101.549175 132.530326 
L 101.595526 132.441887 
L 101.716552 132.088134 
L 101.719127 132.117614 
L 101.742302 132.029175 
L 101.889078 131.616463 
L 101.914828 131.528025 
L 102.035854 131.26271 
L 102.06418 131.203751 
L 102.190356 130.849998 
L 102.226406 130.76156 
L 102.231556 130.820519 
L 102.362882 130.466765 
L 102.396357 130.407807 
L 102.406657 130.437286 
L 102.522533 130.054053 
L 102.566309 129.965615 
L 102.574034 129.995095 
L 102.702785 129.641341 
L 102.707935 129.670821 
L 102.759435 129.405506 
L 102.787761 129.434985 
L 102.908787 129.022273 
L 102.939687 128.933835 
L 103.071013 128.550602 
L 103.078738 128.580082 
L 103.081313 128.609561 
L 103.150839 128.403205 
L 103.174014 128.403205 
L 103.313065 128.078932 
L 103.35169 128.019973 
L 103.480441 127.607261 
L 103.493316 127.63674 
L 103.565417 127.312466 
L 103.567992 127.341946 
L 103.596317 127.282987 
L 103.725068 126.870275 
L 103.730218 126.899754 
L 103.797169 126.634439 
L 103.817769 126.663919 
L 103.833219 126.575481 
L 103.985145 126.07433 
L 103.98772 126.162769 
L 104.082996 125.779536 
L 104.085571 125.809015 
L 104.090721 125.838495 
L 104.234922 125.366824 
L 104.250373 125.396303 
L 104.304448 125.130988 
L 104.319898 125.130988 
L 104.443499 124.718276 
L 104.446074 124.747756 
L 104.458949 124.688797 
L 104.585125 124.305564 
L 104.618601 124.217126 
L 104.767952 123.745455 
L 104.773102 123.833894 
L 104.855503 123.50962 
L 104.858078 123.539099 
L 104.973954 123.155867 
L 104.984254 123.185346 
L 105.015154 123.096908 
L 105.164505 122.654716 
L 105.16708 122.684196 
L 105.249481 122.359922 
L 105.252056 122.389401 
L 105.398832 121.94721 
L 105.401407 121.976689 
L 105.483808 121.652416 
L 105.509558 121.563977 
L 105.656334 121.121786 
L 105.661484 121.151265 
L 105.74131 120.856471 
L 105.74646 120.88595 
L 105.872636 120.41428 
L 105.875211 120.473238 
L 105.898386 120.3848 
L 106.016837 119.942609 
L 106.024562 120.001568 
L 106.037437 119.913129 
L 106.042587 119.942609 
L 106.197089 119.294061 
L 106.199664 119.35302 
L 106.289789 118.969787 
L 106.292364 118.999267 
L 106.421115 118.586555 
L 106.454591 118.527596 
L 106.583342 118.055925 
L 106.585917 118.085405 
L 106.668317 117.79061 
L 106.670892 117.82009 
L 106.822819 117.28946 
L 106.825394 117.318939 
L 106.835694 117.348419 
L 106.889769 117.083104 
L 106.912944 117.083104 
L 107.044271 116.552474 
L 107.046846 116.581954 
L 107.116371 116.287159 
L 107.129246 116.316639 
L 107.250272 115.903927 
L 107.252847 115.933406 
L 107.332673 115.638612 
L 107.337823 115.668091 
L 107.489749 115.19642 
L 107.492324 115.2259 
L 107.569575 114.931105 
L 107.57215 114.931105 
L 107.685451 114.518393 
L 107.698326 114.547873 
L 107.711201 114.459435 
L 107.718926 114.488914 
L 107.876002 113.840367 
L 107.899178 113.751928 
L 108.063979 113.13286 
L 108.097454 113.044422 
L 108.231355 112.395874 
L 108.23393 112.425354 
L 108.257105 112.366395 
L 108.385857 111.865245 
L 108.388432 111.894724 
L 108.548083 111.305136 
L 108.555808 111.364094 
L 108.622758 111.039821 
L 108.635634 111.039821 
L 108.653659 110.951382 
L 108.81846 110.332314 
L 108.82361 110.361794 
L 108.893136 110.03752 
L 108.900861 110.03752 
L 109.070812 109.359493 
L 109.093987 109.271055 
L 109.222738 108.828863 
L 109.245914 108.769904 
L 109.374665 108.327713 
L 109.40299 108.239275 
L 109.578091 107.502289 
L 109.606417 107.413851 
L 109.740318 106.853741 
L 109.760918 106.794783 
L 109.894819 106.234673 
L 109.930869 106.146235 
L 110.098246 105.497688 
L 110.131721 105.409249 
L 110.136871 105.438729 
L 110.296522 104.790181 
L 110.319697 104.701743 
L 110.494799 103.964757 
L 110.523124 103.876319 
L 110.693075 103.139333 
L 110.698226 103.198292 
L 110.783201 102.844539 
L 110.788351 102.844539 
L 110.958303 102.137033 
L 110.960878 102.225471 
L 111.056153 101.812759 
L 111.058728 101.812759 
L 111.22868 101.134732 
L 111.24928 101.046294 
L 111.388331 100.397746 
L 111.406356 100.309308 
L 111.584033 99.513363 
L 111.586608 99.572322 
L 111.674159 99.130131 
L 111.676734 99.15961 
L 111.80806 98.65846 
L 111.831235 98.570021 
L 112.003761 97.862515 
L 112.032086 97.774077 
L 112.165988 97.213968 
L 112.194313 97.125529 
L 112.333364 96.476982 
L 112.513615 95.592599 
L 112.518765 95.622078 
L 112.52134 95.681037 
L 112.611466 95.238846 
L 112.614041 95.268325 
L 112.619191 95.297805 
L 112.789143 94.531339 
L 112.809743 94.472381 
L 112.941069 93.882792 
L 112.943644 93.941751 
L 113.134196 92.96893 
L 113.136771 92.998409 
L 113.152221 92.909971 
L 113.327322 92.172985 
L 113.347922 92.084547 
L 113.525599 91.288602 
L 113.528174 91.318081 
L 113.607999 90.964328 
L 113.610574 90.993808 
L 113.618299 90.934849 
L 113.757351 90.256822 
L 113.790826 90.168384 
L 113.922152 89.431398 
L 113.945327 89.401919 
L 114.063778 88.841809 
L 114.066353 88.871289 
L 114.236305 88.163782 
L 114.23888 88.193262 
L 114.30583 87.839509 
L 114.313555 87.839509 
L 114.442306 87.279399 
L 114.447456 87.308879 
L 114.619983 86.601373 
L 114.627708 86.630852 
L 114.694658 86.277099 
L 114.702383 86.336058 
L 114.846585 85.569593 
L 114.872335 85.481154 
L 115.008811 84.862086 
L 115.029411 84.773648 
L 115.196787 84.066142 
L 115.199362 84.095621 
L 115.201937 84.15458 
L 115.286913 83.682909 
L 115.292063 83.682909 
L 115.47489 82.769047 
L 115.48004 82.798526 
L 115.503215 82.710088 
L 115.647416 82.149979 
L 115.660291 82.179458 
L 115.691191 82.149979 
L 115.814793 81.501431 
L 115.819943 81.530911 
L 115.956419 80.911842 
L 115.979594 80.823404 
L 116.149545 80.145377 
L 116.193321 80.056939 
L 116.327222 79.526309 
L 116.355547 79.437871 
L 116.528073 78.700885 
L 116.530648 78.730365 
L 116.600174 78.258694 
L 116.646524 78.170255 
L 116.847376 77.108996 
L 116.849951 77.138475 
L 116.924627 76.725763 
L 117.050803 76.342531 
L 117.099728 76.254092 
L 117.32118 73.453547 
L 117.37268 14.76 
L 117.439631 67.351304 
L 117.583832 86.365537 
L 117.588982 86.395017 
L 117.645633 85.834907 
L 118.477364 77.551187 
L 118.479939 77.580667 
L 118.53659 77.020558 
L 118.539165 77.020558 
L 119.059319 70.15185 
L 119.118545 18.297532 
L 119.180345 61.396459 
L 119.327121 84.360936 
L 119.329696 84.331456 
L 119.332271 84.390415 
L 119.406947 83.682909 
L 119.409522 83.682909 
L 120.35198 71.625822 
L 120.37258 61.809171 
L 120.426655 20.596927 
L 120.488456 58.27164 
L 120.640382 82.149979 
L 120.648107 82.179458 
L 121.549365 70.505603 
L 121.57254 65.228785 
L 121.642065 23.132158 
L 121.701291 52.405233 
L 121.860942 79.673706 
L 121.873817 79.762145 
L 121.889267 79.821104 
L 121.943343 79.290474 
L 121.951068 79.231515 
L 122.180245 76.519407 
L 122.826575 67.852455 
L 122.852325 57.593613 
L 122.916701 26.993964 
L 122.978501 50.606988 
L 123.145878 77.256393 
L 123.205103 77.669105 
L 123.259179 77.374311 
L 123.272054 77.285872 
L 123.645432 71.773219 
L 123.825683 68.58944 
L 123.833408 68.530482 
L 123.910659 63.135746 
L 124.000785 29.647112 
L 124.05486 45.035375 
L 124.237687 76.430969 
L 124.281462 76.843681 
L 124.345838 76.37201 
L 124.356138 76.313051 
L 124.631665 72.510205 
L 124.636815 72.480725 
L 124.793891 70.269768 
L 124.796466 70.299247 
L 124.840242 69.562262 
L 124.981868 64.049608 
L 125.077144 30.944207 
L 125.131219 45.005896 
L 125.316621 74.337929 
L 125.319196 74.30845 
L 125.396446 74.780121 
L 125.437647 74.426368 
L 125.867675 62.251363 
L 125.993851 36.103108 
L 126.029901 39.935434 
L 126.279678 72.038534 
L 126.338904 72.510205 
L 126.385254 72.068013 
L 126.539756 70.033933 
L 126.542331 70.092891 
L 126.614431 69.208508 
L 127.062485 62.870431 
L 127.103685 54.350875 
L 127.206686 39.257407 
L 127.258186 44.622663 
L 127.500238 70.299247 
L 127.569764 70.770918 
L 127.621264 70.417165 
L 128.298495 61.396459 
L 128.481322 47.953839 
L 128.532822 47.128415 
L 128.576597 48.720304 
L 128.8753 63.813773 
L 128.988601 64.314923 
L 129.004051 64.226485 
L 129.019501 64.255964 
L 129.083876 63.902211 
L 129.096752 63.93169 
L 129.333654 62.280842 
L 129.336229 62.339801 
L 129.408329 61.661774 
L 129.416054 61.661774 
L 129.53708 59.627694 
L 129.598881 59.922488 
L 129.686431 60.099364 
L 129.655531 59.83405 
L 129.709607 59.981447 
L 129.735357 60.069885 
L 129.784282 60.128844 
L 129.740507 60.040406 
L 129.846083 60.069885 
L 129.876983 60.158323 
L 129.882133 60.128844 
L 130.000584 60.482597 
L 130.034059 60.394159 
L 130.16281 60.128844 
L 130.196286 60.364679 
L 130.255511 59.863529 
L 130.260661 59.893008 
L 130.278686 59.627694 
L 130.373962 59.775091 
L 130.425462 59.893008 
L 130.461513 59.509776 
L 130.587689 59.244461 
L 130.69584 59.598214 
L 130.70614 59.509776 
L 130.72674 59.421337 
L 130.896691 58.065284 
L 130.925017 58.124243 
L 131.082093 57.180901 
L 131.39367 59.568735 
L 131.128443 56.915586 
L 131.39882 59.539255 
L 131.416846 59.421337 
L 131.465771 59.951967 
L 131.473496 59.893008 
L 131.579072 60.629994 
L 131.604822 60.394159 
L 131.630572 60.30572 
L 131.9782 57.593613 
L 131.985925 57.505174 
L 132.109526 56.650271 
L 132.130126 56.70923 
L 132.269178 57.328298 
L 132.282053 57.21038 
L 132.312953 57.004024 
L 132.379904 57.505174 
L 132.385054 57.475695 
L 132.397929 57.534654 
L 132.490629 58.212681 
L 132.524105 58.065284 
L 132.539555 57.976845 
L 132.61423 58.24216 
L 132.61938 58.212681 
L 132.655431 58.448516 
L 132.714656 57.976845 
L 132.722381 58.035804 
L 132.876883 58.625393 
L 132.735256 58.006325 
L 132.879458 58.595913 
L 132.928383 58.507475 
L 132.897483 58.654872 
L 132.992759 58.536955 
L 132.995334 58.566434 
L 133.064859 58.330599 
L 133.085459 58.360078 
L 133.353262 56.414436 
L 133.360987 56.443915 
L 133.500038 57.505174 
L 133.512913 57.475695 
L 133.592738 57.269339 
L 133.623639 57.475695 
L 133.649389 57.416736 
L 133.77814 56.67975 
L 133.78844 56.738709 
L 133.816765 56.70923 
L 133.942941 57.298818 
L 134.053667 57.033504 
L 133.955816 57.357777 
L 134.061392 57.092462 
L 134.249369 57.976845 
L 134.264819 58.065284 
L 134.282844 58.124243 
L 134.318894 57.858928 
L 134.360095 57.888407 
L 134.380695 57.947366 
L 134.578972 56.650271 
L 134.584122 56.67975 
L 134.656222 56.325997 
L 134.782398 55.883806 
L 134.784973 55.913285 
L 134.792698 55.824847 
L 134.875099 56.149121 
L 135.011575 56.738709 
L 135.070801 56.827148 
L 135.160926 56.945065 
L 135.137751 56.738709 
L 135.181527 56.856627 
L 135.287102 56.502874 
L 135.220152 56.974545 
L 135.299977 56.67975 
L 135.312853 56.650271 
L 135.444179 55.67745 
L 135.487954 55.058382 
L 135.565205 55.530053 
L 135.709406 56.414436 
L 135.711981 56.384956 
L 135.781506 56.325997 
L 135.814982 56.473394 
L 135.822707 56.384956 
L 135.851032 56.473394 
L 135.907682 56.119641 
L 135.910257 56.119641 
L 136.000383 55.67745 
L 136.036434 55.736409 
L 136.19351 56.355477 
L 136.286211 56.237559 
L 136.24501 56.414436 
L 136.301661 56.325997 
L 136.360886 56.532353 
L 136.414962 56.414436 
L 136.636413 54.380355 
L 136.682764 54.61619 
L 136.708514 54.704629 
L 136.873315 55.972244 
L 136.999491 55.706929 
L 136.909366 56.031203 
L 137.002066 55.736409 
L 137.017517 55.765888 
L 137.081892 55.412135 
L 137.084467 55.441614 
L 137.233818 54.704629 
L 137.097342 55.500573 
L 137.251844 54.763587 
L 137.406345 55.294217 
L 137.46557 55.176299 
L 137.511921 55.441614 
L 137.514496 55.382655 
L 137.653547 56.031203 
L 137.707622 56.1786 
L 137.790023 55.736409 
L 137.792598 55.765888 
L 137.838948 55.323697 
L 137.874999 55.441614 
L 138.0192 54.675149 
L 138.129926 54.173999 
L 138.165976 54.232958 
L 138.402878 55.706929 
L 138.467253 55.382655 
L 138.526479 55.530053 
L 138.65523 55.942765 
L 138.67583 56.031203 
L 138.750506 55.824847 
L 138.753081 55.824847 
L 138.953932 54.468793 
L 138.971958 54.557231 
L 139.121309 55.441614 
L 139.136759 55.530053 
L 139.20886 55.942765 
L 139.24491 55.530053 
L 139.407136 54.291917 
L 139.409711 54.321396 
L 139.468937 53.761287 
L 139.553912 53.201178 
L 139.605413 53.466492 
L 139.644038 53.495972 
L 139.798539 55.14682 
L 139.801114 55.117341 
L 139.803689 55.087861 
L 139.842315 55.264738 
L 139.90154 55.176299 
L 139.904115 55.235258 
L 139.991666 54.881505 
L 139.999391 54.910985 
L 140.009691 54.822546 
L 140.120417 53.672849 
L 140.169342 53.702328 
L 140.202818 53.790766 
L 140.215693 53.820246 
L 140.274918 53.466492 
L 140.285218 53.466492 
L 140.303244 53.437013 
L 140.357319 53.849725 
L 140.359894 53.849725 
L 140.48607 54.557231 
L 140.488645 54.468793 
L 140.51697 54.409834 
L 140.519545 54.350875 
L 140.596796 54.969943 
L 140.601946 54.940464 
L 140.707522 55.117341 
L 140.717822 55.028902 
L 140.890348 54.203478 
L 140.722972 55.058382 
L 140.892923 54.262437 
L 141.052575 54.822546 
L 141.098925 54.734108 
L 141.12725 54.586711 
L 141.189051 55.14682 
L 141.191626 55.117341 
L 141.266301 55.205779 
L 141.292052 54.999423 
L 141.302352 54.969943 
L 141.428528 54.203478 
L 141.431103 54.232958 
L 141.477453 54.056081 
L 141.523804 54.056081 
L 141.668005 53.230657 
L 141.855981 54.11504 
L 141.879157 54.173999 
L 141.889457 54.291917 
L 141.969282 53.849725 
L 141.979582 53.938163 
L 141.997607 53.997122 
L 142.036233 54.380355 
L 142.108333 53.997122 
L 142.113483 54.026602 
L 142.162409 53.407534 
L 142.164984 53.407534 
L 142.30661 51.638768 
L 142.324635 51.727206 
L 142.589862 53.672849 
L 142.597587 53.58441 
L 142.613038 53.672849 
L 142.723763 54.291917 
L 142.741789 54.144519 
L 142.788139 53.672849 
L 142.883415 53.790766 
L 142.986416 53.938163 
L 142.91689 53.702328 
L 143.001866 53.879205 
L 143.040491 53.938163 
L 143.055941 54.11504 
L 143.138342 53.820246 
L 143.143492 53.820246 
L 143.362369 52.58211 
L 143.377819 52.670548 
L 143.439619 52.287315 
L 143.447344 52.287315 
L 143.48082 52.110439 
L 143.53747 52.464192 
L 143.606996 53.024301 
L 143.668796 52.965342 
L 143.671371 52.935863 
L 143.730597 53.437013 
L 143.738322 53.437013 
L 143.758922 53.466492 
L 143.872223 54.203478 
L 143.887673 54.144519 
L 143.895398 54.085561 
L 143.980374 54.350875 
L 143.985524 54.291917 
L 144.000974 54.203478 
L 144.0911 53.702328 
L 144.14775 53.790766 
L 144.18895 54.026602 
L 144.253326 53.761287 
L 144.258476 53.790766 
L 144.261051 53.820246 
L 144.307401 53.112739 
L 144.312551 53.171698 
L 144.459328 52.228356 
L 144.461903 52.257836 
L 144.482503 52.405233 
L 144.541728 51.933562 
L 144.546878 51.963042 
L 144.557178 52.05148 
L 144.786355 53.58441 
L 144.562329 52.022 
L 144.79408 53.554931 
L 144.827556 53.495972 
L 144.868756 53.702328 
L 144.899656 53.643369 
L 144.917681 53.554931 
L 145.000082 53.378054 
L 144.927982 53.58441 
L 145.036132 53.437013 
L 145.038707 53.495972 
L 145.118533 52.817945 
L 145.249859 52.022 
L 145.288484 52.139918 
L 145.30136 52.05148 
L 145.376035 51.815644 
L 145.412086 52.05148 
L 145.442986 52.110439 
L 145.491911 52.434712 
L 145.556287 52.198877 
L 145.648987 52.110439 
L 145.692763 52.228356 
L 145.772588 51.933562 
L 145.885889 52.257836 
L 145.893614 52.198877 
L 145.90134 52.169398 
L 145.970865 52.464192 
L 145.98374 52.405233 
L 146.006915 52.55263 
L 146.076441 52.110439 
L 146.081591 52.169398 
L 146.171717 51.550329 
L 146.210342 51.933562 
L 146.367418 52.464192 
L 146.380293 52.523151 
L 146.519345 53.348575 
L 146.524495 53.289616 
L 146.55282 53.201178 
L 146.627495 52.464192 
L 146.712471 52.641068 
L 146.743371 52.758986 
L 146.805172 52.169398 
L 146.807747 52.169398 
L 146.908173 51.550329 
L 146.931348 51.727206 
L 146.933923 51.697727 
L 146.998299 52.169398 
L 147.000874 52.169398 
L 147.1837 53.112739 
L 147.042074 52.110439 
L 147.191425 53.08326 
L 147.2043 53.024301 
L 147.348501 52.169398 
L 147.351076 52.257836 
L 147.397427 52.022 
L 147.451502 52.05148 
L 147.577678 51.461891 
L 147.582828 51.52085 
L 147.642054 51.0197 
L 147.647204 51.0197 
L 147.73218 50.665947 
L 147.78368 50.724905 
L 147.80428 50.636467 
L 147.81973 50.48907 
L 147.878956 50.99022 
L 147.881531 50.960741 
L 148.038607 52.05148 
L 148.095258 52.110439 
L 148.126158 52.228356 
L 148.162208 51.845124 
L 148.198258 51.933562 
L 148.365635 50.518549 
L 148.36821 50.548029 
L 148.40426 50.459591 
L 148.417135 50.430111 
L 148.468636 50.783864 
L 148.486661 50.783864 
L 148.494386 50.872303 
L 148.695237 53.112739 
L 148.759613 52.641068 
L 148.893514 51.963042 
L 148.898664 51.992521 
L 148.916689 51.904083 
L 149.058315 51.373453 
L 149.071191 51.402932 
L 149.078916 51.343973 
L 149.246292 50.017399 
L 149.272042 50.017399 
L 149.403368 50.960741 
L 149.405943 50.931261 
L 149.447144 51.697727 
L 149.57332 52.965342 
L 149.606795 52.906383 
L 149.632545 53.024301 
L 149.732971 52.55263 
L 149.969873 50.371152 
L 149.743271 52.611589 
L 150.023948 50.430111 
L 150.160424 51.0197 
L 150.191325 50.960741 
L 150.320076 51.579809 
L 150.330376 51.668247 
L 150.381876 51.815644 
L 150.417927 51.579809 
L 150.438527 51.638768 
L 150.520927 51.727206 
L 150.670279 52.316795 
L 150.556978 51.579809 
L 150.675429 52.228356 
L 150.688304 52.169398 
L 150.822205 51.638768 
L 150.84023 51.579809 
L 150.981856 50.724905 
L 150.987006 50.754385 
L 151.059107 50.842823 
L 151.162108 51.402932 
L 151.077132 50.813344 
L 151.182708 51.196576 
L 151.308884 49.95844 
L 151.334634 50.194276 
L 151.432485 50.842823 
L 151.46081 50.724905 
L 151.520036 50.636467 
L 151.576686 50.48907 
L 151.617886 50.842823 
L 151.620461 50.842823 
L 151.630762 50.931261 
L 151.777538 51.963042 
L 151.782688 51.874603 
L 151.826463 51.963042 
L 151.875389 51.697727 
L 151.911439 51.314494 
L 152.01444 51.343973 
L 152.09169 51.52085 
L 152.125166 51.373453 
L 152.179241 50.960741 
L 152.248767 51.196576 
L 152.369793 52.022 
L 152.387818 51.874603 
L 152.398118 51.845124 
L 152.511419 51.285015 
L 152.524294 51.314494 
L 152.544894 51.373453 
L 152.588669 51.815644 
L 152.65047 51.343973 
L 152.653045 51.343973 
L 152.673645 51.285015 
L 152.810121 50.341673 
L 152.833296 50.312193 
L 152.884797 49.899481 
L 152.949172 50.017399 
L 152.964623 49.95844 
L 153.147449 52.022 
L 153.26075 52.611589 
L 153.2865 52.346274 
L 153.466752 50.724905 
L 153.525977 50.872303 
L 153.574903 50.960741 
L 153.623828 50.99022 
L 153.665028 50.813344 
L 153.677903 50.901782 
L 153.708804 50.783864 
L 153.768029 51.0197 
L 153.786054 50.931261 
L 153.806654 50.842823 
L 153.953431 50.430111 
L 153.992056 50.371152 
L 154.071882 49.811043 
L 154.110507 50.046879 
L 154.277883 51.461891 
L 154.321659 51.285015 
L 154.47616 49.781564 
L 154.589461 48.838222 
L 154.648686 49.074057 
L 154.777437 49.840523 
L 154.653836 49.044578 
L 154.780012 49.811043 
L 154.792888 49.899481 
L 154.859838 50.194276 
L 154.919064 50.105837 
L 155.032364 49.693125 
L 155.052965 49.840523 
L 155.063265 49.899481 
L 155.12249 49.368852 
L 155.186866 49.074057 
L 155.233216 49.309893 
L 155.328492 49.516249 
L 155.300167 49.280413 
L 155.346517 49.339372 
L 155.431493 48.720304 
L 155.475268 49.133016 
L 155.526769 49.191975 
L 155.70187 50.901782 
L 155.709595 50.872303 
L 155.735345 50.931261 
L 155.797146 51.343973 
L 155.848646 51.078659 
L 155.907872 50.99022 
L 156.142199 48.720304 
L 155.913022 51.0197 
L 156.175674 49.191975 
L 156.361075 50.076358 
L 156.3688 50.017399 
L 156.435751 50.459591 
L 156.438326 50.459591 
L 156.461501 50.518549 
L 156.523302 50.783864 
L 156.564502 50.341673 
L 156.729303 49.339372 
L 156.749904 49.45729 
L 156.86578 50.430111 
L 156.92758 50.223755 
L 156.94818 50.282714 
L 157.040881 50.076358 
L 157.043456 50.105837 
L 157.105257 49.575208 
L 157.285508 47.747483 
L 157.352459 48.012798 
L 157.530135 48.95614 
L 157.360184 47.983318 
L 157.540435 48.897181 
L 157.54301 48.867701 
L 157.617686 49.221454 
L 157.630561 49.103537 
L 157.846863 50.312193 
L 157.854588 50.253235 
L 157.980764 49.575208 
L 157.991064 49.604687 
L 157.998789 49.663646 
L 158.058014 49.221454 
L 158.065739 49.221454 
L 158.124965 49.044578 
L 158.166165 49.280413 
L 158.197065 49.221454 
L 158.300066 49.811043 
L 158.302641 49.781564 
L 158.359292 50.341673 
L 158.364442 50.341673 
L 158.395342 50.282714 
L 158.500918 49.928961 
L 158.513793 49.98792 
L 158.547268 50.046879 
L 158.549843 50.105837 
L 158.645119 49.899481 
L 158.652844 49.95844 
L 158.71722 49.870002 
L 158.75842 50.135317 
L 158.781595 50.046879 
L 158.930947 49.604687 
L 158.936097 49.575208 
L 159.064848 48.867701 
L 159.095748 48.779263 
L 159.198749 49.133016 
L 159.209049 49.162496 
L 159.242524 49.368852 
L 159.291449 49.133016 
L 159.32235 49.280413 
L 159.469126 49.722605 
L 159.536076 49.663646 
L 159.556677 49.781564 
L 159.577277 49.693125 
L 159.636502 49.811043 
L 159.672553 49.398331 
L 159.832204 48.278113 
L 159.924905 47.718004 
L 159.837354 48.307592 
L 159.98413 47.806442 
L 160.130906 48.454989 
L 160.143781 48.39603 
L 160.164382 48.278113 
L 160.208157 48.454989 
L 160.251932 48.366551 
L 160.267382 48.484469 
L 160.321458 48.337072 
L 160.362658 48.39603 
L 160.388408 48.366551 
L 160.437334 47.983318 
L 160.504284 48.130716 
L 160.761787 49.811043 
L 160.782387 49.870002 
L 160.869937 49.98792 
L 160.821012 49.693125 
L 160.895688 49.95844 
L 160.936888 49.870002 
L 161.22014 47.806442 
L 160.944613 49.899481 
L 161.22529 47.835921 
L 161.263916 47.89488 
L 161.413267 49.309893 
L 161.415842 49.280413 
L 161.475067 49.604687 
L 161.505968 49.516249 
L 161.518843 49.604687 
L 161.606393 49.781564 
L 161.523993 49.575208 
L 161.629569 49.663646 
L 161.796945 48.160195 
L 161.848445 48.42551 
L 161.928271 48.808742 
L 161.987497 48.749784 
L 162.010672 48.690825 
L 162.069897 48.307592 
L 162.121398 48.661345 
L 162.180623 48.867701 
L 162.239849 48.779263 
L 162.3686 48.071757 
L 162.3892 48.307592 
L 162.533401 48.749784 
L 162.44585 48.248633 
L 162.535976 48.720304 
L 162.561726 48.808742 
L 162.641552 49.191975 
L 162.690477 49.044578 
L 162.855279 48.042277 
L 162.875879 48.189674 
L 163.027805 48.838222 
L 162.893904 48.160195 
L 163.038105 48.779263 
L 163.053555 48.867701 
L 163.107631 49.309893 
L 163.058705 48.808742 
L 163.182306 49.074057 
L 163.190031 49.015098 
L 163.241532 49.545728 
L 163.244107 49.545728 
L 163.362558 50.046879 
L 163.367708 50.017399 
L 163.499034 49.015098 
L 163.506759 49.044578 
L 163.663835 47.983318 
L 163.769411 48.012798 
L 163.900737 49.044578 
L 163.903312 48.985619 
L 163.980563 49.693125 
L 164.042363 50.164796 
L 164.104164 49.870002 
L 164.431192 47.39373 
L 164.606293 48.337072 
L 164.438917 47.334771 
L 164.616593 48.248633 
L 164.626893 48.160195 
L 164.691269 47.89488 
L 164.650068 48.189674 
L 164.740194 48.130716 
L 164.791695 48.337072 
L 164.83547 47.983318 
L 164.915296 47.600086 
L 164.843195 48.012798 
L 164.964221 47.776962 
L 164.979671 47.865401 
L 165.098122 48.248633 
L 165.103272 48.160195 
L 165.152198 47.89488 
L 165.216573 48.189674 
L 165.265499 48.248633 
L 165.353049 47.835921 
L 165.358199 47.89488 
L 165.432875 47.128415 
L 165.448325 47.187374 
L 165.4509 47.246333 
L 165.520426 46.951538 
L 165.551326 47.010497 
L 165.654327 47.098935 
L 165.587376 46.8631 
L 165.662052 47.010497 
L 165.677502 47.098935 
L 165.942729 49.162496 
L 165.953029 49.044578 
L 166.08178 48.366551 
L 166.089505 48.454989 
L 166.138431 48.219154 
L 166.213106 48.278113 
L 166.321257 48.513948 
L 166.295507 48.248633 
L 166.331557 48.484469 
L 166.344432 48.39603 
L 166.370183 48.661345 
L 166.434558 48.572907 
L 166.470608 48.838222 
L 166.542709 48.602386 
L 166.71266 46.686223 
L 166.735836 46.715703 
L 166.740986 46.686223 
L 166.849137 46.538826 
L 166.774461 46.715703 
L 166.851712 46.627265 
L 166.877462 46.656744 
L 167.047413 48.690825 
L 167.055138 48.749784 
L 167.163289 49.015098 
L 167.171014 48.92666 
L 167.474867 46.391429 
L 167.176164 48.985619 
L 167.492892 46.509347 
L 167.500617 46.597785 
L 167.745244 48.248633 
L 167.752969 48.219154 
L 167.843095 48.130716 
L 167.979571 47.659045 
L 167.899745 48.160195 
L 167.987296 47.747483 
L 168.020771 47.806442 
L 168.025921 47.865401 
L 168.100597 47.423209 
L 168.116047 47.482168 
L 168.128922 47.423209 
L 168.283423 46.008197 
L 168.296298 46.126114 
L 168.298873 46.096635 
L 168.337499 46.892579 
L 168.340074 46.8631 
L 168.414749 47.659045 
L 168.47655 47.216853 
L 168.569251 46.745182 
L 168.600151 46.774662 
L 168.623326 46.8631 
L 168.710877 47.334771 
L 168.744352 47.039977 
L 168.752077 46.951538 
L 168.824178 47.452689 
L 168.837053 47.452689 
L 168.847353 47.39373 
L 168.919454 47.776962 
L 168.996704 48.307592 
L 169.05593 48.071757 
L 169.156355 47.953839 
L 169.08683 48.130716 
L 169.169231 48.012798 
L 169.202706 48.101236 
L 169.267081 47.89488 
L 169.272231 47.92436 
L 169.449908 46.509347 
L 169.488533 46.686223 
L 169.648184 47.659045 
L 169.67136 47.570606 
L 169.807836 46.420909 
L 169.828436 46.509347 
L 169.921137 47.216853 
L 169.962337 47.039977 
L 170.011262 46.951538 
L 170.129713 46.479867 
L 170.158039 46.538826 
L 170.201814 47.039977 
L 170.299665 46.922059 
L 170.346015 46.774662 
L 170.384641 47.157894 
L 170.387216 47.157894 
L 170.616392 48.720304 
L 170.629268 48.661345 
L 170.649868 48.602386 
L 170.873895 46.008197 
L 171.002646 45.595484 
L 171.012946 45.654443 
L 171.339973 48.248633 
L 171.345123 48.219154 
L 171.582025 46.568306 
L 171.58975 46.656744 
L 171.715926 47.776962 
L 171.777727 47.541127 
L 171.824077 47.482168 
L 171.939953 46.8631 
L 171.957978 46.922059 
L 171.965704 46.981018 
L 172.048104 46.686223 
L 172.068704 46.597785 
L 172.12793 47.010497 
L 172.282431 47.541127 
L 172.406032 47.157894 
L 172.305606 47.570606 
L 172.408607 47.187374 
L 172.483283 47.305291 
L 172.527058 47.069456 
L 172.557958 47.098935 
L 172.586284 46.538826 
L 172.632634 45.949238 
L 172.709885 46.214553 
L 172.81031 46.627265 
L 172.833486 46.391429 
L 172.982837 45.949238 
L 173.093563 46.244032 
L 173.111588 46.185073 
L 173.173388 46.037676 
L 173.204289 46.33247 
L 173.217164 46.302991 
L 173.340765 46.067155 
L 173.253214 46.36195 
L 173.345915 46.096635 
L 173.466941 46.36195 
L 173.474666 46.33247 
L 173.562217 45.949238 
L 173.595692 46.185073 
L 173.660067 46.597785 
L 173.706418 46.185073 
L 173.763068 46.273511 
L 173.804269 46.391429 
L 173.858344 46.067155 
L 173.860919 46.096635 
L 173.920145 45.83132 
L 173.96907 46.185073 
L 174.02057 46.538826 
L 174.079796 46.214553 
L 174.120996 46.126114 
L 174.198247 45.742882 
L 174.229147 46.155594 
L 174.275497 46.479867 
L 174.321848 46.096635 
L 174.337298 46.096635 
L 174.453174 45.683923 
L 174.381073 46.155594 
L 174.468624 45.83132 
L 174.571625 47.187374 
L 174.607675 46.922059 
L 174.751876 45.654443 
L 174.767327 45.742882 
L 174.878052 46.302991 
L 174.811102 45.713402 
L 174.898653 46.037676 
L 175.027404 45.212252 
L 175.042854 45.271211 
L 175.13813 45.359649 
L 175.287481 46.981018 
L 175.315806 46.892579 
L 175.532108 45.595484 
L 175.534683 45.654443 
L 175.635109 46.391429 
L 175.544983 45.624964 
L 175.696909 46.273511 
L 175.732959 46.479867 
L 175.859135 45.683923 
L 175.920936 45.624964 
L 176.034237 45.359649 
L 175.928661 45.654443 
L 176.039387 45.418608 
L 176.083162 45.33017 
L 176.137238 45.153293 
L 176.170713 45.477567 
L 176.178438 45.477567 
L 176.222213 45.654443 
L 176.263414 45.182772 
L 176.322639 44.946937 
L 176.376715 45.064855 
L 176.533791 45.801841 
L 176.544091 45.742882 
L 176.549241 45.713402 
L 176.613617 46.008197 
L 176.634217 45.978717 
L 176.714043 46.509347 
L 176.757818 46.302991 
L 176.768118 46.214553 
L 176.917469 45.742882 
L 177.04107 46.126114 
L 176.935494 45.654443 
L 177.043645 46.096635 
L 177.131196 46.420909 
L 177.162096 46.185073 
L 177.285697 45.094334 
L 177.311447 45.182772 
L 177.393848 45.890279 
L 177.435048 45.654443 
L 177.496849 45.241731 
L 177.540624 45.742882 
L 177.548349 45.772361 
L 177.6462 46.951538 
L 177.68225 46.568306 
L 177.697701 46.479867 
L 177.852202 45.448087 
L 177.865077 45.418608 
L 177.906277 45.064855 
L 177.965503 45.624964 
L 178.099404 46.420909 
L 178.150904 46.568306 
L 178.181805 46.244032 
L 178.19983 46.33247 
L 178.390381 44.150992 
L 178.400681 44.239431 
L 178.457332 44.327869 
L 178.609258 45.772361 
L 178.665909 45.978717 
L 178.725134 45.683923 
L 178.735434 45.772361 
L 178.797235 45.359649 
L 178.802385 45.359649 
L 178.812685 45.30069 
L 178.879635 46.096635 
L 178.962036 46.391429 
L 178.995511 46.185073 
L 179.209238 44.593184 
L 179.229838 44.711102 
L 179.294214 45.064855 
L 179.340564 44.711102 
L 179.361164 44.563704 
L 179.45644 44.652143 
L 179.464165 44.681622 
L 179.610941 45.919758 
L 179.703642 46.892579 
L 179.783468 46.627265 
L 180.048695 44.711102 
L 179.798918 46.686223 
L 180.053845 44.79954 
L 180.07187 44.887978 
L 180.200621 45.507046 
L 180.221221 45.33017 
L 180.360272 44.740581 
L 180.380873 44.77006 
L 180.458123 44.917458 
L 180.483873 44.681622 
L 180.509624 44.534225 
L 180.573999 44.917458 
L 180.576574 44.887978 
L 180.586874 44.976416 
L 180.70275 45.448087 
L 180.731075 45.359649 
L 180.751676 45.389128 
L 180.798026 45.742882 
L 180.864977 45.566005 
L 181.011753 44.711102 
L 181.024628 44.622663 
L 181.042653 44.593184 
L 181.094153 45.035375 
L 181.096728 45.035375 
L 181.194579 45.772361 
L 181.243505 45.566005 
L 181.361956 44.829019 
L 181.369681 44.858499 
L 181.426331 44.976416 
L 181.488132 44.77006 
L 181.619458 45.241731 
L 181.629758 45.153293 
L 181.691558 44.829019 
L 181.732759 45.182772 
L 181.735334 45.182772 
L 181.88726 45.713402 
L 181.791984 45.153293 
L 181.889835 45.683923 
L 181.905285 45.772361 
L 181.92846 46.067155 
L 182.003136 45.418608 
L 182.052061 45.271211 
L 182.095837 45.595484 
L 182.100987 45.566005 
L 182.144762 45.742882 
L 182.203988 45.418608 
L 182.211713 45.33017 
L 182.335314 44.150992 
L 182.389389 44.563704 
L 182.402264 44.504746 
L 182.422864 44.29839 
L 182.510415 44.563704 
L 182.51814 44.622663 
L 182.590241 45.212252 
L 182.636591 44.946937 
L 182.682942 45.005896 
L 182.770492 44.416307 
L 182.788517 44.357348 
L 182.837443 44.917458 
L 182.855468 45.005896 
L 182.976494 45.654443 
L 182.981644 45.624964 
L 183.064045 45.153293 
L 183.094945 45.507046 
L 183.151595 45.624964 
L 183.174771 45.33017 
L 183.192796 45.389128 
L 183.355022 44.740581 
L 183.200521 45.418608 
L 183.357597 44.77006 
L 183.385922 44.681622 
L 183.434848 44.26891 
L 183.504373 44.534225 
L 183.558449 44.976416 
L 183.620249 44.681622 
L 183.633124 44.77006 
L 183.777325 45.772361 
L 183.785051 45.742882 
L 183.846851 45.683923 
L 183.911227 46.037676 
L 183.983327 45.064855 
L 183.991052 44.976416 
L 184.096628 43.944636 
L 184.145554 43.974116 
L 184.346405 45.035375 
L 184.552407 43.414007 
L 184.35928 45.064855 
L 184.580732 43.590883 
L 184.709483 44.79954 
L 184.742958 44.77006 
L 184.838234 45.271211 
L 184.889735 45.182772 
L 184.91291 45.094334 
L 184.961835 45.182772 
L 185.121487 43.974116 
L 185.275988 44.534225 
L 185.278563 44.504746 
L 185.299163 44.416307 
L 185.330063 44.121513 
L 185.397014 44.534225 
L 185.399589 44.534225 
L 185.458814 44.622663 
L 185.461389 44.652143 
L 185.546365 44.416307 
L 185.693141 43.119212 
L 185.891418 44.386828 
L 185.909443 44.357348 
L 185.930043 44.239431 
L 185.976394 44.416307 
L 186.020169 44.29839 
L 186.022744 44.386828 
L 186.074244 43.974116 
L 186.12317 44.092034 
L 186.136045 44.033075 
L 186.182395 43.856198 
L 186.233896 44.29839 
L 186.259646 44.386828 
L 186.336897 44.652143 
L 186.378097 44.563704 
L 186.398697 44.652143 
L 186.483673 45.33017 
L 186.530023 44.976416 
L 186.684524 42.912856 
L 186.697399 42.971815 
L 186.849326 44.003595 
L 186.857051 43.944636 
L 186.929151 44.652143 
L 186.934301 44.593184 
L 187.024427 44.829019 
L 186.954902 44.563704 
L 187.050177 44.652143 
L 187.068203 44.740581 
L 187.181503 45.271211 
L 187.191804 45.212252 
L 187.39008 43.178171 
L 187.40038 43.089733 
L 187.449306 42.7065 
L 187.508531 43.060253 
L 187.686208 44.593184 
L 187.693933 44.681622 
L 187.753158 45.064855 
L 187.796933 44.563704 
L 187.799509 44.563704 
L 187.94886 42.559103 
L 187.951435 42.588583 
L 187.966885 42.500144 
L 187.99521 42.470665 
L 188.03641 42.824418 
L 188.046711 42.824418 
L 188.201212 44.239431 
L 188.214087 44.180472 
L 188.355713 43.325568 
L 188.255287 44.29839 
L 188.360863 43.355048 
L 188.391763 43.266609 
L 188.481889 42.824418 
L 188.417514 43.325568 
L 188.517939 43.089733 
L 188.677591 44.829019 
L 188.695616 44.917458 
L 188.726516 45.094334 
L 188.778017 44.740581 
L 188.790892 44.740581 
L 189.050969 43.030774 
L 189.084444 43.119212 
L 189.274996 44.976416 
L 189.529923 42.500144 
L 189.573698 42.824418 
L 189.586573 42.912856 
L 189.676699 43.355048 
L 189.591723 42.883377 
L 189.720474 43.178171 
L 189.802875 43.266609 
L 189.882701 43.590883 
L 189.926476 43.561404 
L 189.972826 43.76776 
L 190.019177 43.384527 
L 190.029477 43.472965 
L 190.073252 43.414007 
L 190.183978 43.148692 
L 190.189128 43.207651 
L 190.317879 44.239431 
L 190.341054 44.150992 
L 190.361655 44.062554 
L 190.366805 44.092034 
L 190.541906 43.207651 
L 190.547056 43.266609 
L 190.580531 42.942336 
L 190.650057 43.148692 
L 190.660357 43.178171 
L 190.794258 43.974116 
L 190.812283 44.062554 
L 190.835458 44.239431 
L 190.863784 44.121513 
L 191.002835 76.254092 
L 191.234587 86.011784 
L 191.896367 92.379341 
L 191.901517 92.320382 
L 191.983918 92.792053 
L 191.989068 92.792053 
L 192.148719 93.381642 
L 192.151294 93.352162 
L 192.22597 93.646957 
L 192.23627 93.617477 
L 192.359871 93.941751 
L 192.362446 93.912271 
L 192.447422 94.177586 
L 192.449997 94.177586 
L 192.455147 94.148107 
L 192.589048 94.50186 
L 192.614798 94.560819 
L 192.735824 94.914572 
L 192.864575 95.120928 
L 192.905775 95.209366 
L 192.913501 95.179887 
L 193.029376 95.356764 
L 193.037102 95.297805 
L 193.124652 95.504161 
L 193.127227 95.504161 
L 193.186453 95.592599 
L 193.292029 95.798955 
L 193.310054 95.739996 
L 193.335804 95.828434 
L 193.464555 96.03479 
L 193.595881 96.093749 
L 193.709182 96.182188 
L 193.711757 96.152708 
L 193.789008 96.329585 
L 193.807033 96.300105 
L 193.917759 96.476982 
L 193.922909 96.447502 
L 194.03621 96.535941 
L 194.04651 96.476982 
L 194.154661 96.683338 
L 194.159811 96.624379 
L 194.203586 96.771776 
L 194.262812 96.742297 
L 194.291137 96.683338 
L 194.365812 96.830735 
L 194.370962 96.771776 
L 194.479113 96.860214 
L 194.376113 96.742297 
L 194.484263 96.830735 
L 194.489413 96.860214 
L 194.600139 96.742297 
L 194.613014 96.801256 
L 194.664515 96.653858 
L 194.70829 96.742297 
L 194.71859 96.653858 
L 194.803566 96.771776 
L 194.819016 96.742297 
L 194.831891 96.683338 
L 194.932317 96.860214 
L 195.019868 96.742297 
L 194.978667 96.889694 
L 195.043043 96.801256 
L 195.151194 96.889694 
L 195.158919 96.860214 
L 195.594098 96.948653 
L 195.661048 97.007612 
L 195.689373 96.889694 
L 195.702248 96.919173 
L 195.820699 97.007612 
L 195.921125 97.06657 
L 195.859325 96.919173 
L 195.92885 96.978132 
L 195.970051 97.007612 
L 196.049876 97.125529 
L 196.018976 96.978132 
L 196.080777 97.037091 
L 196.181202 97.125529 
L 196.085927 97.007612 
L 196.194077 97.06657 
L 196.196652 97.037091 
L 196.294503 97.184488 
L 196.297078 97.155009 
L 196.474755 97.243447 
L 196.510805 97.302406 
L 196.531405 97.184488 
L 196.582906 97.213968 
L 196.647281 97.272926 
L 196.678181 97.213968 
L 196.760582 97.361365 
L 196.768307 97.302406 
L 196.776032 97.420324 
L 196.868733 97.390844 
L 197.198336 97.331885 
L 197.306487 97.243447 
L 197.216361 97.361365 
L 197.309062 97.272926 
L 197.401762 97.331885 
L 197.332237 97.243447 
L 197.422363 97.302406 
L 197.479013 97.243447 
L 197.445538 97.361365 
L 197.535663 97.272926 
L 197.545964 97.331885 
L 197.651539 97.390844 
L 197.582014 97.243447 
L 197.656689 97.331885 
L 197.75969 97.361365 
L 197.762265 97.449803 
L 197.76484 97.331885 
L 197.867841 97.331885 
L 198.382845 97.243447 
L 198.462671 97.213968 
L 198.429196 97.361365 
L 198.485846 97.302406 
L 198.586272 97.331885 
L 198.498721 97.243447 
L 198.593997 97.272926 
L 199.145052 97.331885 
L 199.147627 97.390844 
L 199.163077 97.272926 
L 199.255778 97.331885 
L 199.443754 97.331885 
L 199.446329 97.213968 
L 199.477229 97.361365 
L 199.55448 97.302406 
L 199.969058 97.331885 
L 199.971633 97.420324 
L 200.056609 97.243447 
L 200.077209 97.302406 
L 200.126135 97.361365 
L 200.234286 97.449803 
L 200.136435 97.331885 
L 200.236861 97.420324 
L 200.345012 97.331885 
L 200.350162 97.390844 
L 201.423945 97.331885 
L 201.490896 97.243447 
L 201.43167 97.361365 
L 201.534671 97.331885 
L 201.629947 97.302406 
L 201.691748 97.213968 
L 201.740673 97.272926 
L 202.235077 97.184488 
L 202.343228 97.06657 
L 202.353528 97.09605 
L 202.675406 97.155009 
L 202.780982 97.243447 
L 202.690856 97.125529 
L 202.788707 97.213968 
L 202.886557 97.155009 
L 202.894282 97.272926 
L 202.899432 97.213968 
L 202.958658 97.272926 
L 202.914883 97.184488 
L 203.010158 97.213968 
L 203.020458 97.155009 
L 203.102859 97.302406 
L 203.118309 97.184488 
L 203.172385 97.272926 
L 203.229035 97.213968 
L 203.332036 97.125529 
L 203.342336 97.184488 
L 203.432462 97.125529 
L 203.435037 97.06657 
L 203.463362 97.184488 
L 203.543188 97.09605 
L 203.568938 97.155009 
L 203.579238 97.037091 
L 203.651339 97.09605 
L 203.679664 97.125529 
L 203.767215 97.037091 
L 203.998967 96.948653 
L 204.058192 96.889694 
L 204.091667 97.007612 
L 204.109692 96.948653 
L 204.220418 97.037091 
L 204.328569 96.948653 
L 204.251319 97.06657 
L 204.331144 97.007612 
L 204.418695 97.09605 
L 204.43672 96.978132 
L 204.531996 97.155009 
L 204.629847 97.007612 
L 204.653022 97.037091 
L 204.830698 96.948653 
L 204.946574 96.830735 
L 205.044425 96.889694 
L 205.01095 96.801256 
L 205.0573 96.860214 
L 205.121676 96.801256 
L 205.075325 96.919173 
L 205.170601 96.830735 
L 205.263302 96.919173 
L 205.183476 96.801256 
L 205.281327 96.889694 
L 205.361153 96.830735 
L 205.307077 96.919173 
L 205.389478 96.860214 
L 205.466729 96.830735 
L 205.500204 96.919173 
L 205.551704 96.948653 
L 205.61608 96.860214 
L 205.685605 96.948653 
L 205.724231 96.860214 
L 205.840107 96.742297 
L 205.739681 96.889694 
L 205.842682 96.771776 
L 205.999758 96.860214 
L 206.095034 96.978132 
L 206.004908 96.830735 
L 206.118209 96.948653 
L 206.20061 96.978132 
L 206.311335 97.06657 
L 206.427211 96.978132 
L 206.447812 97.037091 
L 206.476137 96.919173 
L 206.535362 96.978132 
L 206.638363 96.889694 
L 206.599738 97.037091 
L 206.651238 96.919173 
L 206.790289 96.978132 
L 206.90359 97.125529 
L 206.91389 97.037091 
L 206.934491 97.155009 
L 207.014316 97.09605 
L 207.055517 97.06657 
L 207.130192 97.184488 
L 207.240918 97.125529 
L 207.135342 97.213968 
L 207.243493 97.155009 
L 207.578246 97.06657 
L 207.691547 96.978132 
L 207.923299 97.06657 
L 208.03145 97.125529 
L 208.003124 97.037091 
L 208.034025 97.09605 
L 208.095825 97.007612 
L 208.149901 97.037091 
L 208.263202 96.948653 
L 208.366202 96.889694 
L 208.278652 97.007612 
L 208.373927 96.948653 
L 208.376502 97.007612 
L 208.433153 96.830735 
L 208.482078 96.919173 
L 208.577354 96.830735 
L 208.505254 96.948653 
L 208.595379 96.889694 
L 208.716405 96.948653 
L 208.796231 97.037091 
L 208.737005 96.919173 
L 208.827131 96.978132 
L 208.932707 96.919173 
L 209.020258 96.860214 
L 208.979057 96.978132 
L 209.043433 96.919173 
L 209.494062 96.860214 
L 209.586762 96.801256 
L 209.512087 96.889694 
L 209.604788 96.830735 
L 209.710363 96.919173 
L 209.785039 96.948653 
L 209.720663 96.860214 
L 209.818514 96.889694 
L 209.95499 96.830735 
L 210.027091 96.742297 
L 209.967866 96.860214 
L 210.065716 96.830735 
L 210.168717 96.742297 
L 210.137817 96.860214 
L 210.176442 96.801256 
L 210.243393 96.860214 
L 210.191892 96.771776 
L 210.289743 96.830735 
L 210.531795 96.919173 
L 210.619346 96.978132 
L 210.536945 96.889694 
L 210.639946 96.919173 
L 210.737797 96.830735 
L 210.683721 97.007612 
L 210.750672 96.919173 
L 210.848523 96.860214 
L 210.851098 96.742297 
L 210.907748 96.919173 
L 210.959249 96.801256 
L 212.202984 96.712817 
L 212.257059 96.5949 
L 212.316285 96.653858 
L 212.331735 96.683338 
L 212.367785 96.535941 
L 212.421861 96.5949 
L 212.509411 96.683338 
L 212.511986 96.712817 
L 212.571212 96.535941 
L 212.609837 96.56542 
L 212.808114 96.653858 
L 212.828714 96.5949 
L 212.926565 96.742297 
L 213.704221 96.683338 
L 213.709371 96.712817 
L 213.812372 96.624379 
L 213.858722 96.712817 
L 213.897348 96.5949 
L 213.923098 96.653858 
L 214.183175 96.56542 
L 214.188325 96.5949 
L 214.299051 96.476982 
L 214.407202 96.56542 
L 214.409777 96.535941 
L 214.445827 96.506461 
L 214.507628 96.653858 
L 214.515353 96.5949 
L 214.610629 96.653858 
L 214.541103 96.535941 
L 214.628654 96.624379 
L 215.048382 96.535941 
L 215.151383 96.447502 
L 215.068982 96.5949 
L 215.161683 96.476982 
L 215.264684 96.56542 
L 215.274984 96.506461 
L 215.614887 96.418023 
L 215.707588 96.359064 
L 215.643212 96.506461 
L 215.725613 96.418023 
L 215.792563 96.506461 
L 215.818314 96.388544 
L 215.836339 96.447502 
L 215.972815 96.359064 
L 215.99599 96.300105 
L 216.034615 96.447502 
L 216.083541 96.359064 
L 216.124741 96.300105 
L 216.194267 96.388544 
L 216.281817 96.300105 
L 216.248342 96.418023 
L 216.307568 96.359064 
L 216.353918 96.300105 
L 216.426019 96.447502 
L 216.487819 96.359064 
L 216.521294 96.476982 
L 216.539319 96.418023 
L 216.675796 96.329585 
L 216.727296 96.388544 
L 216.794247 96.211667 
L 216.814847 96.270626 
L 216.871497 96.152708 
L 216.904972 96.211667 
L 216.992523 96.03479 
L 217.018273 96.093749 
L 217.126424 96.211667 
L 217.134149 96.152708 
L 217.234575 96.093749 
L 217.193375 96.211667 
L 217.2423 96.182188 
L 217.2526 96.152708 
L 217.355601 96.270626 
L 217.698079 96.211667 
L 217.798505 96.093749 
L 217.716104 96.241146 
L 217.81138 96.152708 
L 218.019957 96.06427 
L 218.032832 96.03479 
L 218.068882 96.152708 
L 218.128108 96.093749 
L 218.143558 96.182188 
L 218.189908 96.005311 
L 218.236258 96.093749 
L 218.264584 96.123229 
L 218.346984 95.975832 
L 218.42681 96.123229 
L 218.460285 96.093749 
L 218.48861 96.123229 
L 218.560711 95.975832 
L 218.565861 96.03479 
L 218.674012 95.887393 
L 218.601911 96.06427 
L 218.679162 95.916873 
L 218.694612 96.005311 
L 218.756413 95.857914 
L 218.787313 95.887393 
L 218.872289 95.828434 
L 218.800188 95.916873 
L 218.898039 95.887393 
L 218.962414 95.946352 
L 218.972714 95.916873 
L 219.08344 96.182188 
L 219.091165 96.06427 
L 219.173566 96.241146 
L 219.191591 96.241146 
L 219.273992 96.182188 
L 219.217341 96.270626 
L 219.302317 96.241146 
L 219.351243 96.300105 
L 219.322917 96.211667 
L 219.415618 96.270626 
L 219.523769 96.093749 
L 219.528919 96.123229 
L 219.629345 96.182188 
L 219.570119 96.093749 
L 219.64222 96.152708 
L 219.655095 96.093749 
L 219.675695 96.211667 
L 219.750371 96.152708 
L 219.858522 96.270626 
L 219.768396 96.123229 
L 219.866247 96.241146 
L 219.922897 96.123229 
L 219.982123 96.182188 
L 220.033623 96.241146 
L 219.994998 96.152708 
L 220.092849 96.182188 
L 220.468802 96.211667 
L 220.571803 96.329585 
L 220.579528 96.270626 
L 220.605278 96.211667 
L 220.613003 96.300105 
L 220.692829 96.241146 
L 220.710854 96.300105 
L 220.713429 96.359064 
L 220.772654 96.211667 
L 220.82158 96.329585 
L 220.875655 96.300105 
L 220.855055 96.388544 
L 220.932306 96.329585 
L 221.115132 96.388544 
L 221.202683 96.447502 
L 221.164057 96.329585 
L 221.223283 96.359064 
L 221.650736 96.418023 
L 221.653311 96.476982 
L 221.730562 96.329585 
L 221.758887 96.388544 
L 221.946864 96.329585 
L 222.06274 96.123229 
L 222.065315 96.152708 
L 222.070465 96.241146 
L 222.137415 96.06427 
L 222.170891 96.123229 
L 222.281617 96.005311 
L 222.196641 96.152708 
L 222.284192 96.06427 
L 222.479893 96.123229 
L 222.595769 96.270626 
L 222.626669 96.182188 
L 222.639545 96.300105 
L 222.706495 96.270626 
L 222.75027 96.359064 
L 222.73997 96.211667 
L 222.819796 96.300105 
L 223.3348 96.211667 
L 223.36055 96.182188 
L 223.424926 96.329585 
L 223.440376 96.270626 
L 223.795729 96.211667 
L 223.85753 96.123229 
L 223.824054 96.270626 
L 223.906455 96.211667 
L 223.92963 96.123229 
L 224.019756 96.182188 
L 224.274683 96.211667 
L 224.295283 96.300105 
L 224.354509 96.182188 
L 224.382834 96.241146 
L 224.490985 96.182188 
L 224.431759 96.300105 
L 224.49356 96.211667 
L 224.650636 96.152708 
L 224.758787 96.093749 
L 224.668661 96.211667 
L 224.761362 96.152708 
L 224.794837 96.211667 
L 224.836038 96.093749 
L 224.869513 96.123229 
L 225.003414 96.152708 
L 225.052339 96.123229 
L 225.116715 96.241146 
L 225.235166 96.123229 
L 225.245466 96.093749 
L 225.351042 96.211667 
L 225.433442 96.06427 
L 225.461768 96.182188 
L 225.567344 96.093749 
L 225.472068 96.211667 
L 225.577644 96.123229 
L 225.71412 96.03479 
L 225.77077 96.123229 
L 225.827421 96.005311 
L 225.899521 96.093749 
L 225.938147 96.03479 
L 226.164748 96.123229 
L 226.167324 96.152708 
L 226.177624 96.06427 
L 226.267749 96.06427 
L 226.342425 96.123229 
L 226.3862 95.975832 
L 226.94498 95.887393 
L 227.022231 95.828434 
L 226.95528 95.946352 
L 227.058281 95.857914 
L 227.130381 95.798955 
L 227.223082 95.710517 
L 227.241107 95.739996 
L 227.53981 95.739996 
L 227.542385 95.622078 
L 227.640236 95.828434 
L 227.647961 95.739996 
L 227.763837 95.828434 
L 227.871988 95.710517 
L 227.877138 95.739996 
L 228.005889 95.681037 
L 228.016189 95.739996 
L 228.11919 95.592599 
L 228.14494 95.681037 
L 228.147515 95.739996 
L 228.178415 95.622078 
L 228.255666 95.710517 
L 228.683119 95.651558 
L 228.75007 95.592599 
L 228.708869 95.710517 
L 228.793845 95.651558 
L 228.863371 95.56312 
L 228.865946 95.53364 
L 228.935471 95.710517 
L 228.971522 95.592599 
L 230.539709 95.504161 
L 230.60151 95.474681 
L 230.544859 95.592599 
L 230.650435 95.504161 
L 230.748286 95.622078 
L 230.761161 95.53364 
L 230.864162 95.622078 
L 230.972313 95.681037 
L 230.869312 95.592599 
L 230.977463 95.651558 
L 231.039264 95.592599 
L 231.005788 95.710517 
L 231.085614 95.710517 
L 231.16029 95.622078 
L 231.119089 95.769476 
L 231.20149 95.651558 
L 231.286466 95.710517 
L 231.260715 95.622078 
L 231.309641 95.651558 
L 231.389466 95.53364 
L 231.425517 95.592599 
L 231.466717 95.651558 
L 231.451267 95.504161 
L 231.531093 95.56312 
L 231.546543 95.592599 
L 231.641818 95.504161 
L 231.646969 95.592599 
L 231.716494 95.474681 
L 231.755119 95.56312 
L 231.840095 95.504161 
L 231.819495 95.592599 
L 231.865845 95.56312 
L 231.88387 95.592599 
L 231.912196 95.474681 
L 231.973996 95.53364 
L 232.076997 95.415722 
L 232.089872 95.445202 
L 232.187723 95.504161 
L 232.138798 95.386243 
L 232.203173 95.474681 
L 232.313899 95.386243 
L 232.241798 95.504161 
L 232.319049 95.415722 
L 232.43235 95.356764 
L 232.434925 95.297805 
L 232.535351 95.504161 
L 232.537926 95.474681 
L 232.540501 95.445202 
L 232.607451 95.56312 
L 232.643502 95.53364 
L 232.852078 95.622078 
L 232.854653 95.681037 
L 232.952504 95.56312 
L 232.962804 95.622078 
L 233.145631 95.53364 
L 233.155931 95.592599 
L 233.258932 95.445202 
L 233.305282 95.504161 
L 233.276957 95.415722 
L 233.369658 95.474681 
L 233.480384 95.356764 
L 233.488109 95.386243 
L 233.691535 95.445202 
L 233.735311 95.504161 
L 233.786811 95.356764 
L 233.799686 95.386243 
L 233.897537 95.327284 
L 233.809986 95.415722 
L 233.910412 95.356764 
L 233.992813 95.415722 
L 233.951612 95.297805 
L 234.018563 95.327284 
L 234.095814 95.297805 
L 234.062338 95.415722 
L 234.126714 95.327284 
L 234.137014 95.415722 
L 234.149889 95.268325 
L 234.234865 95.268325 
L 234.250315 95.386243 
L 234.28894 95.238846 
L 234.345591 95.268325 
L 234.484642 95.179887 
L 234.592793 95.150407 
L 234.541292 95.297805 
L 234.595368 95.179887 
L 234.906945 95.238846 
L 234.90952 95.297805 
L 234.93012 95.179887 
L 235.015096 95.209366 
L 235.277748 95.268325 
L 235.385899 95.356764 
L 235.344699 95.238846 
L 235.388474 95.327284 
L 235.496625 95.268325 
L 235.434825 95.386243 
L 235.4992 95.327284 
L 235.5404 95.297805 
L 235.625376 95.150407 
L 235.653701 95.209366 
L 235.702627 95.238846 
L 235.774727 95.091449 
L 235.790178 95.150407 
L 235.859703 95.00301 
L 235.880303 95.03249 
L 236.536934 94.944051 
L 236.588434 94.855613 
L 236.560109 95.00301 
L 236.645085 94.944051 
L 236.64766 94.973531 
L 236.655385 94.855613 
L 236.753235 94.914572 
L 236.995287 94.826134 
L 237.062238 94.678737 
L 237.003012 94.855613 
L 237.111163 94.767175 
L 237.237339 94.973531 
L 237.26824 94.914572 
L 237.332615 95.061969 
L 237.342915 95.03249 
L 237.471666 95.091449 
L 237.489691 95.150407 
L 237.497417 95.03249 
L 237.579817 95.091449 
L 237.687968 95.061969 
L 237.667368 95.150407 
L 237.690543 95.091449 
L 237.88882 95.179887 
L 237.968645 95.209366 
L 237.896545 95.120928 
L 237.996971 95.150407 
L 238.635576 95.209366 
L 238.638151 95.268325 
L 238.702526 95.150407 
L 238.743727 95.209366 
L 238.777202 95.091449 
L 238.748877 95.238846 
L 238.851878 95.209366 
L 238.864753 95.238846 
L 238.942003 95.120928 
L 238.960029 95.179887 
L 239.15573 95.091449 
L 239.261306 95.061969 
L 239.207231 95.179887 
L 239.263881 95.091449 
L 239.287056 95.150407 
L 239.335982 95.03249 
L 239.372032 95.03249 
L 239.423532 95.120928 
L 239.482758 95.061969 
L 239.487908 95.00301 
L 239.580609 95.120928 
L 239.588334 95.091449 
L 239.68876 95.150407 
L 239.624384 95.00301 
L 239.696485 95.091449 
L 239.784035 95.03249 
L 239.722235 95.120928 
L 239.807211 95.091449 
L 240.363415 95.179887 
L 240.440666 95.238846 
L 240.40719 95.120928 
L 240.474141 95.179887 
L 240.579717 95.120928 
L 240.546242 95.209366 
L 240.584867 95.179887 
L 240.685293 95.091449 
L 240.772843 95.061969 
L 240.705893 95.150407 
L 240.793444 95.091449 
L 240.796019 95.150407 
L 240.883569 94.973531 
L 240.899019 95.03249 
L 240.994295 95.091449 
L 241.009745 94.944051 
L 241.094721 95.061969 
L 241.120471 94.944051 
L 241.195147 95.03249 
L 241.135921 94.914572 
L 241.233772 95.00301 
L 241.249222 94.944051 
L 241.313598 95.061969 
L 241.344498 94.973531 
L 241.429474 95.03249 
L 241.465524 95.091449 
L 241.488699 94.973531 
L 241.537625 95.00301 
L 241.802852 94.914572 
L 241.874952 94.885093 
L 241.815727 94.973531 
L 241.913578 94.914572 
L 241.918728 95.00301 
L 242.026879 94.944051 
L 242.413132 94.855613 
L 242.485232 94.767175 
L 242.526433 94.826134 
L 242.639734 94.914572 
L 242.552183 94.796654 
L 242.642309 94.885093 
L 242.698959 94.885093 
L 242.701534 94.767175 
L 242.763335 94.914572 
L 242.809685 94.855613 
L 243.139288 94.796654 
L 243.244864 94.708216 
L 243.162463 94.826134 
L 243.252589 94.737695 
L 243.44314 94.649257 
L 243.551291 94.590298 
L 243.456015 94.678737 
L 243.553866 94.619778 
L 243.625967 94.708216 
L 243.664592 94.649257 
L 243.916944 94.590298 
L 243.999345 94.531339 
L 243.958145 94.649257 
L 244.025095 94.590298 
L 244.135821 94.649257 
L 244.04827 94.560819 
L 244.138396 94.619778 
L 244.280022 94.531339 
L 244.305772 94.472381 
L 244.290322 94.590298 
L 244.390748 94.531339 
L 244.496324 94.560819 
L 244.395898 94.50186 
L 244.501474 94.531339 
L 244.550399 94.442901 
L 244.506624 94.560819 
L 244.6122 94.50186 
L 244.6328 94.619778 
L 244.707476 94.472381 
L 244.725501 94.560819 
L 244.856827 94.590298 
L 244.872277 94.678737 
L 244.964978 94.531339 
L 244.967553 94.590298 
L 245.693709 94.678737 
L 245.78126 94.737695 
L 245.698859 94.649257 
L 245.80701 94.708216 
L 245.907436 94.678737 
L 245.830185 94.767175 
L 245.915161 94.708216 
L 245.930611 94.737695 
L 245.956361 94.649257 
L 246.020737 94.649257 
L 246.445615 94.708216 
L 246.538316 94.796654 
L 246.45849 94.678737 
L 246.556341 94.737695 
L 246.607841 94.826134 
L 246.612991 94.767175 
L 246.726292 94.914572 
L 246.991519 94.826134 
L 247.02242 94.796654 
L 247.009545 94.914572 
L 247.097095 94.855613 
L 247.182071 94.973531 
L 247.215546 94.944051 
L 247.277347 94.855613 
L 247.310822 95.00301 
L 247.323697 95.00301 
L 247.333997 94.944051 
L 247.385498 95.120928 
L 247.424123 95.091449 
L 247.488499 95.179887 
L 247.431848 95.061969 
L 247.537424 95.150407 
L 247.601799 95.120928 
L 247.550299 95.209366 
L 247.64815 95.150407 
L 247.7048 95.268325 
L 247.758876 95.179887 
L 247.769176 95.238846 
L 247.771751 95.297805 
L 247.861877 95.120928 
L 247.874752 95.209366 
L 247.988053 95.120928 
L 248.096204 95.179887 
L 248.036978 95.091449 
L 248.101354 95.150407 
L 248.590608 95.091449 
L 248.593183 95.00301 
L 248.618933 95.120928 
L 248.701334 95.091449 
L 248.719359 95.120928 
L 248.819784 95.00301 
L 248.927935 95.061969 
L 249.020636 95.150407 
L 248.992311 95.00301 
L 249.041236 95.120928 
L 249.151962 95.00301 
L 249.154537 95.03249 
L 249.319339 94.973531 
L 249.321914 94.914572 
L 249.327064 95.03249 
L 249.430065 94.973531 
L 249.527915 94.944051 
L 249.607741 94.826134 
L 249.638641 94.885093 
L 249.744217 94.914572 
L 249.692717 94.826134 
L 249.746792 94.885093 
L 249.782842 94.826134 
L 249.795718 94.944051 
L 249.854943 94.914572 
L 249.893568 95.00301 
L 249.968244 94.944051 
L 250.001719 94.855613 
L 250.08412 94.885093 
L 250.866926 94.914572 
L 250.869501 95.00301 
L 250.951902 94.885093 
L 250.975077 94.885093 
L 251.065203 94.796654 
L 251.031728 94.944051 
L 251.090953 94.826134 
L 251.152754 94.914572 
L 251.124428 94.767175 
L 251.199104 94.826134 
L 251.281505 94.737695 
L 251.224854 94.885093 
L 251.312405 94.796654 
L 251.842859 94.708216 
L 251.850584 94.737695 
L 251.963885 94.560819 
L 251.969035 94.678737 
L 252.028261 94.50186 
L 252.074611 94.590298 
L 252.146712 94.472381 
L 252.090061 94.619778 
L 252.185337 94.590298 
L 252.458289 94.649257 
L 252.460864 94.708216 
L 252.48404 94.590298 
L 252.56644 94.649257 
L 252.630816 94.531339 
L 252.58189 94.678737 
L 252.679741 94.590298 
L 252.756992 94.619778 
L 252.723517 94.531339 
L 252.787892 94.560819 
L 253.496023 94.590298 
L 253.609324 94.678737 
L 253.830776 94.590298 
L 253.913176 94.560819 
L 253.866826 94.678737 
L 253.936352 94.619778 
L 253.993002 94.708216 
L 253.982702 94.590298 
L 254.052227 94.678737 
L 254.263379 94.737695 
L 254.353505 94.885093 
L 254.273679 94.708216 
L 254.37668 94.855613 
L 254.38183 94.796654 
L 254.399855 94.914572 
L 254.484831 94.855613 
L 254.556932 94.914572 
L 254.546632 94.796654 
L 254.590407 94.826134 
L 254.680533 94.708216 
L 254.608432 94.855613 
L 254.703708 94.796654 
L 254.706283 94.826134 
L 254.719158 94.737695 
L 254.721733 94.767175 
" clip-path="url(#pde5dc18af9)" style="fill: none; stroke: #000000; stroke-opacity: 0.5; stroke-width: 1.5; stroke-linecap: square"/>
   </g>
   <g id="patch_3">
    <path d="M 41.667188 173.52 
L 41.667188 7.2 
" style="fill: none; stroke: #000000; stroke-width: 0.8; stroke-linejoin: miter; stroke-linecap: square"/>
   </g>
   <g id="patch_4">
    <path d="M 41.667188 173.52 
L 264.867187 173.52 
" style="fill: none; stroke: #000000; stroke-width: 0.8; stroke-linejoin: miter; stroke-linecap: square"/>
   </g>
  </g>
 </g>
 <defs>
  <clipPath id="pde5dc18af9">
   <rect x="41.667188" y="7.2" width="223.2" height="166.32"/>
  </clipPath>
 </defs>
</svg>
