<?xml version="1.0" encoding="utf-8" standalone="no"?>
<!DOCTYPE svg PUBLIC "-//W3C//DTD SVG 1.1//EN"
  "http://www.w3.org/Graphics/SVG/1.1/DTD/svg11.dtd">
<svg xmlns:xlink="http://www.w3.org/1999/xlink" width="272.067187pt" height="197.398125pt" viewBox="0 0 272.067187 197.398125" xmlns="http://www.w3.org/2000/svg" version="1.1">
 <metadata>
  <rdf:RDF xmlns:dc="http://purl.org/dc/elements/1.1/" xmlns:cc="http://creativecommons.org/ns#" xmlns:rdf="http://www.w3.org/1999/02/22-rdf-syntax-ns#">
   <cc:Work>
    <dc:type rdf:resource="http://purl.org/dc/dcmitype/StillImage"/>
    <dc:date>2025-12-19T12:20:27.458648</dc:date>
    <dc:format>image/svg+xml</dc:format>
    <dc:creator>
     <cc:Agent>
      <dc:title>Matplotlib v3.10.7, https://matplotlib.org/</dc:title>
     </cc:Agent>
    </dc:creator>
   </cc:Work>
  </rdf:RDF>
 </metadata>
 <defs>
  <style type="text/css">*{stroke-linejoin: round; stroke-linecap: butt}</style>
 </defs>
 <g id="figure_1">
  <g id="patch_1">
   <path d="M 0 197.398125 
L 272.067187 197.398125 
L 272.067187 0 
L 0 0 
z
" style="fill: #ffffff"/>
  </g>
  <g id="axes_1">
   <g id="patch_2">
    <path d="M 41.667188 173.52 
L 264.867188 173.52 
L 264.867188 7.2 
L 41.667188 7.2 
z
" style="fill: #ffffff"/>
   </g>
   <g id="matplotlib.axis_1">
    <g id="xtick_1">
     <g id="line2d_1">
      <defs>
       <path id="m561f5b04bb" d="M 0 0 
L 0 3.5 
" style="stroke: #000000; stroke-width: 0.8"/>
      </defs>
      <g>
       <use xlink:href="#m561f5b04bb" x="82.712896" y="173.52" style="stroke: #000000; stroke-width: 0.8"/>
      </g>
     </g>
     <g id="text_1">
      <!-- 1 -->
      <g transform="translate(79.531646 188.118438) scale(0.1 -0.1)">
       <defs>
        <path id="DejaVuSans-31" d="M 794 531 
L 1825 531 
L 1825 4091 
L 703 3866 
L 703 4441 
L 1819 4666 
L 2450 4666 
L 2450 531 
L 3481 531 
L 3481 0 
L 794 0 
L 794 531 
z
" transform="scale(0.015625)"/>
       </defs>
       <use xlink:href="#DejaVuSans-31"/>
      </g>
     </g>
    </g>
    <g id="xtick_2">
     <g id="line2d_2">
      <g>
       <use xlink:href="#m561f5b04bb" x="134.213319" y="173.52" style="stroke: #000000; stroke-width: 0.8"/>
      </g>
     </g>
     <g id="text_2">
      <!-- 2 -->
      <g transform="translate(131.032069 188.118438) scale(0.1 -0.1)">
       <defs>
        <path id="DejaVuSans-32" d="M 1228 531 
L 3431 531 
L 3431 0 
L 469 0 
L 469 531 
Q 828 903 1448 1529 
Q 2069 2156 2228 2338 
Q 2531 2678 2651 2914 
Q 2772 3150 2772 3378 
Q 2772 3750 2511 3984 
Q 2250 4219 1831 4219 
Q 1534 4219 1204 4116 
Q 875 4013 500 3803 
L 500 4441 
Q 881 4594 1212 4672 
Q 1544 4750 1819 4750 
Q 2544 4750 2975 4387 
Q 3406 4025 3406 3419 
Q 3406 3131 3298 2873 
Q 3191 2616 2906 2266 
Q 2828 2175 2409 1742 
Q 1991 1309 1228 531 
z
" transform="scale(0.015625)"/>
       </defs>
       <use xlink:href="#DejaVuSans-32"/>
      </g>
     </g>
    </g>
    <g id="xtick_3">
     <g id="line2d_3">
      <g>
       <use xlink:href="#m561f5b04bb" x="185.713741" y="173.52" style="stroke: #000000; stroke-width: 0.8"/>
      </g>
     </g>
     <g id="text_3">
      <!-- 3 -->
      <g transform="translate(182.532491 188.118438) scale(0.1 -0.1)">
       <defs>
        <path id="DejaVuSans-33" d="M 2597 2516 
Q 3050 2419 3304 2112 
Q 3559 1806 3559 1356 
Q 3559 666 3084 287 
Q 2609 -91 1734 -91 
Q 1441 -91 1130 -33 
Q 819 25 488 141 
L 488 750 
Q 750 597 1062 519 
Q 1375 441 1716 441 
Q 2309 441 2620 675 
Q 2931 909 2931 1356 
Q 2931 1769 2642 2001 
Q 2353 2234 1838 2234 
L 1294 2234 
L 1294 2753 
L 1863 2753 
Q 2328 2753 2575 2939 
Q 2822 3125 2822 3475 
Q 2822 3834 2567 4026 
Q 2313 4219 1838 4219 
Q 1578 4219 1281 4162 
Q 984 4106 628 3988 
L 628 4550 
Q 988 4650 1302 4700 
Q 1616 4750 1894 4750 
Q 2613 4750 3031 4423 
Q 3450 4097 3450 3541 
Q 3450 3153 3228 2886 
Q 3006 2619 2597 2516 
z
" transform="scale(0.015625)"/>
       </defs>
       <use xlink:href="#DejaVuSans-33"/>
      </g>
     </g>
    </g>
    <g id="xtick_4">
     <g id="line2d_4">
      <g>
       <use xlink:href="#m561f5b04bb" x="237.214164" y="173.52" style="stroke: #000000; stroke-width: 0.8"/>
      </g>
     </g>
     <g id="text_4">
      <!-- 4 -->
      <g transform="translate(234.032914 188.118438) scale(0.1 -0.1)">
       <defs>
        <path id="DejaVuSans-34" d="M 2419 4116 
L 825 1625 
L 2419 1625 
L 2419 4116 
z
M 2253 4666 
L 3047 4666 
L 3047 1625 
L 3713 1625 
L 3713 1100 
L 3047 1100 
L 3047 0 
L 2419 0 
L 2419 1100 
L 313 1100 
L 313 1709 
L 2253 4666 
z
" transform="scale(0.015625)"/>
       </defs>
       <use xlink:href="#DejaVuSans-34"/>
      </g>
     </g>
    </g>
   </g>
   <g id="matplotlib.axis_2">
    <g id="ytick_1">
     <g id="line2d_5">
      <defs>
       <path id="mffac9d9d0d" d="M 0 0 
L -3.5 0 
" style="stroke: #000000; stroke-width: 0.8"/>
      </defs>
      <g>
       <use xlink:href="#mffac9d9d0d" x="41.667188" y="163.07754" style="stroke: #000000; stroke-width: 0.8"/>
      </g>
     </g>
     <g id="text_5">
      <!-- −100 -->
      <g transform="translate(7.2 166.876759) scale(0.1 -0.1)">
       <defs>
        <path id="DejaVuSans-2212" d="M 678 2272 
L 4684 2272 
L 4684 1741 
L 678 1741 
L 678 2272 
z
" transform="scale(0.015625)"/>
        <path id="DejaVuSans-30" d="M 2034 4250 
Q 1547 4250 1301 3770 
Q 1056 3291 1056 2328 
Q 1056 1369 1301 889 
Q 1547 409 2034 409 
Q 2525 409 2770 889 
Q 3016 1369 3016 2328 
Q 3016 3291 2770 3770 
Q 2525 4250 2034 4250 
z
M 2034 4750 
Q 2819 4750 3233 4129 
Q 3647 3509 3647 2328 
Q 3647 1150 3233 529 
Q 2819 -91 2034 -91 
Q 1250 -91 836 529 
Q 422 1150 422 2328 
Q 422 3509 836 4129 
Q 1250 4750 2034 4750 
z
" transform="scale(0.015625)"/>
       </defs>
       <use xlink:href="#DejaVuSans-2212"/>
       <use xlink:href="#DejaVuSans-31" transform="translate(83.789062 0)"/>
       <use xlink:href="#DejaVuSans-30" transform="translate(147.412109 0)"/>
       <use xlink:href="#DejaVuSans-30" transform="translate(211.035156 0)"/>
      </g>
     </g>
    </g>
    <g id="ytick_2">
     <g id="line2d_6">
      <g>
       <use xlink:href="#mffac9d9d0d" x="41.667188" y="138.920926" style="stroke: #000000; stroke-width: 0.8"/>
      </g>
     </g>
     <g id="text_6">
      <!-- −80 -->
      <g transform="translate(13.5625 142.720145) scale(0.1 -0.1)">
       <defs>
        <path id="DejaVuSans-38" d="M 2034 2216 
Q 1584 2216 1326 1975 
Q 1069 1734 1069 1313 
Q 1069 891 1326 650 
Q 1584 409 2034 409 
Q 2484 409 2743 651 
Q 3003 894 3003 1313 
Q 3003 1734 2745 1975 
Q 2488 2216 2034 2216 
z
M 1403 2484 
Q 997 2584 770 2862 
Q 544 3141 544 3541 
Q 544 4100 942 4425 
Q 1341 4750 2034 4750 
Q 2731 4750 3128 4425 
Q 3525 4100 3525 3541 
Q 3525 3141 3298 2862 
Q 3072 2584 2669 2484 
Q 3125 2378 3379 2068 
Q 3634 1759 3634 1313 
Q 3634 634 3220 271 
Q 2806 -91 2034 -91 
Q 1263 -91 848 271 
Q 434 634 434 1313 
Q 434 1759 690 2068 
Q 947 2378 1403 2484 
z
M 1172 3481 
Q 1172 3119 1398 2916 
Q 1625 2713 2034 2713 
Q 2441 2713 2670 2916 
Q 2900 3119 2900 3481 
Q 2900 3844 2670 4047 
Q 2441 4250 2034 4250 
Q 1625 4250 1398 4047 
Q 1172 3844 1172 3481 
z
" transform="scale(0.015625)"/>
       </defs>
       <use xlink:href="#DejaVuSans-2212"/>
       <use xlink:href="#DejaVuSans-38" transform="translate(83.789062 0)"/>
       <use xlink:href="#DejaVuSans-30" transform="translate(147.412109 0)"/>
      </g>
     </g>
    </g>
    <g id="ytick_3">
     <g id="line2d_7">
      <g>
       <use xlink:href="#mffac9d9d0d" x="41.667188" y="114.764312" style="stroke: #000000; stroke-width: 0.8"/>
      </g>
     </g>
     <g id="text_7">
      <!-- −60 -->
      <g transform="translate(13.5625 118.563531) scale(0.1 -0.1)">
       <defs>
        <path id="DejaVuSans-36" d="M 2113 2584 
Q 1688 2584 1439 2293 
Q 1191 2003 1191 1497 
Q 1191 994 1439 701 
Q 1688 409 2113 409 
Q 2538 409 2786 701 
Q 3034 994 3034 1497 
Q 3034 2003 2786 2293 
Q 2538 2584 2113 2584 
z
M 3366 4563 
L 3366 3988 
Q 3128 4100 2886 4159 
Q 2644 4219 2406 4219 
Q 1781 4219 1451 3797 
Q 1122 3375 1075 2522 
Q 1259 2794 1537 2939 
Q 1816 3084 2150 3084 
Q 2853 3084 3261 2657 
Q 3669 2231 3669 1497 
Q 3669 778 3244 343 
Q 2819 -91 2113 -91 
Q 1303 -91 875 529 
Q 447 1150 447 2328 
Q 447 3434 972 4092 
Q 1497 4750 2381 4750 
Q 2619 4750 2861 4703 
Q 3103 4656 3366 4563 
z
" transform="scale(0.015625)"/>
       </defs>
       <use xlink:href="#DejaVuSans-2212"/>
       <use xlink:href="#DejaVuSans-36" transform="translate(83.789062 0)"/>
       <use xlink:href="#DejaVuSans-30" transform="translate(147.412109 0)"/>
      </g>
     </g>
    </g>
    <g id="ytick_4">
     <g id="line2d_8">
      <g>
       <use xlink:href="#mffac9d9d0d" x="41.667188" y="90.607699" style="stroke: #000000; stroke-width: 0.8"/>
      </g>
     </g>
     <g id="text_8">
      <!-- −40 -->
      <g transform="translate(13.5625 94.406917) scale(0.1 -0.1)">
       <use xlink:href="#DejaVuSans-2212"/>
       <use xlink:href="#DejaVuSans-34" transform="translate(83.789062 0)"/>
       <use xlink:href="#DejaVuSans-30" transform="translate(147.412109 0)"/>
      </g>
     </g>
    </g>
    <g id="ytick_5">
     <g id="line2d_9">
      <g>
       <use xlink:href="#mffac9d9d0d" x="41.667188" y="66.451085" style="stroke: #000000; stroke-width: 0.8"/>
      </g>
     </g>
     <g id="text_9">
      <!-- −20 -->
      <g transform="translate(13.5625 70.250304) scale(0.1 -0.1)">
       <use xlink:href="#DejaVuSans-2212"/>
       <use xlink:href="#DejaVuSans-32" transform="translate(83.789062 0)"/>
       <use xlink:href="#DejaVuSans-30" transform="translate(147.412109 0)"/>
      </g>
     </g>
    </g>
    <g id="ytick_6">
     <g id="line2d_10">
      <g>
       <use xlink:href="#mffac9d9d0d" x="41.667188" y="42.294471" style="stroke: #000000; stroke-width: 0.8"/>
      </g>
     </g>
     <g id="text_10">
      <!-- 0 -->
      <g transform="translate(28.304688 46.09369) scale(0.1 -0.1)">
       <use xlink:href="#DejaVuSans-30"/>
      </g>
     </g>
    </g>
    <g id="ytick_7">
     <g id="line2d_11">
      <g>
       <use xlink:href="#mffac9d9d0d" x="41.667188" y="18.137857" style="stroke: #000000; stroke-width: 0.8"/>
      </g>
     </g>
     <g id="text_11">
      <!-- 20 -->
      <g transform="translate(21.942188 21.937076) scale(0.1 -0.1)">
       <use xlink:href="#DejaVuSans-32"/>
       <use xlink:href="#DejaVuSans-30" transform="translate(63.623047 0)"/>
      </g>
     </g>
    </g>
   </g>
   <g id="line2d_12">
    <path d="M 51.812642 118.815973 
L 51.815217 118.815973 
L 51.817792 118.668532 
L 51.923368 118.852833 
L 51.925943 118.779113 
L 51.961993 118.742253 
L 52.041819 118.926553 
L 52.093319 118.779113 
L 52.14482 118.963413 
L 52.152545 118.926553 
L 52.250396 118.779113 
L 52.268421 118.815973 
L 52.299321 118.779113 
L 52.381722 118.889693 
L 52.392022 118.815973 
L 52.420347 118.963413 
L 52.492448 118.889693 
L 52.569698 119.000273 
L 52.572273 119.037133 
L 52.644374 118.889693 
L 52.672699 118.889693 
L 53.105303 118.963413 
L 53.133628 119.037133 
L 53.208304 118.889693 
L 53.213454 118.963413 
L 53.239204 118.889693 
L 53.290704 119.073993 
L 53.321604 119.000273 
L 53.38598 119.110853 
L 53.41173 119.073993 
L 53.499281 119.221433 
L 53.599707 119.295154 
L 53.676957 119.405734 
L 53.630607 119.221433 
L 53.710433 119.368874 
L 53.795408 119.258294 
L 53.738758 119.405734 
L 53.821159 119.368874 
L 54.119861 119.479454 
L 54.130161 119.553174 
L 54.204837 119.405734 
L 54.228012 119.405734 
L 54.256337 119.516314 
L 54.336163 119.590034 
L 54.276937 119.479454 
L 54.369638 119.553174 
L 55.26832 119.663754 
L 55.276045 119.700614 
L 55.358446 119.516314 
L 55.373896 119.663754 
L 55.443422 119.553174 
L 55.461447 119.700614 
L 55.487197 119.590034 
L 56.321504 119.700614 
L 56.373004 119.811195 
L 56.424505 119.626894 
L 56.43223 119.737474 
L 56.540381 119.700614 
L 56.43738 119.774334 
L 56.542956 119.737474 
L 56.839083 119.626894 
L 56.942084 119.405734 
L 56.849383 119.663754 
L 56.960109 119.479454 
L 56.962684 119.479454 
L 57.09916 126.962048 
L 57.410738 135.587304 
L 57.670815 140.821433 
L 57.827891 143.512218 
L 58.391821 150.036451 
L 58.394396 149.99959 
L 58.461347 150.589352 
L 58.463922 150.589352 
L 58.672498 151.990034 
L 58.698249 152.100614 
L 58.829575 152.727235 
L 58.865625 152.837816 
L 59.022701 153.538157 
L 59.025276 153.501297 
L 59.094802 153.796177 
L 59.115402 153.796177 
L 59.143727 153.906758 
L 59.148877 153.796177 
L 59.264753 154.054198 
L 59.275053 154.017338 
L 59.360029 154.238498 
L 59.365179 154.201638 
L 59.548006 154.275358 
L 59.666457 154.570239 
L 59.705082 154.422799 
L 59.766882 154.607099 
L 59.777182 154.533379 
L 59.787483 154.607099 
L 59.867308 154.349078 
L 59.882758 154.422799 
L 60.081035 154.385939 
L 60.199486 154.017338 
L 60.222661 154.054198 
L 60.276737 153.833038 
L 60.299912 153.869898 
L 60.333387 153.796177 
L 60.446688 153.501297 
L 60.341112 153.833038 
L 60.449263 153.538157 
L 60.451838 153.611877 
L 60.539389 153.390717 
L 60.554839 153.427577 
L 60.619214 153.316997 
L 60.75054 153.022116 
L 60.794316 152.911536 
L 60.802041 152.948396 
L 60.923067 152.653515 
L 60.930792 152.690375 
L 60.992592 152.469215 
L 61.020918 152.469215 
L 61.154819 152.137474 
L 61.190869 152.063754 
L 61.301595 151.768874 
L 61.30932 151.842594 
L 61.373696 151.768874 
L 61.486996 151.510853 
L 61.489571 151.547713 
L 61.543647 151.437133 
L 61.551372 151.473993 
L 61.674973 151.142253 
L 61.703298 151.068532 
L 61.721323 151.105392 
L 61.824324 150.773652 
L 61.8887 150.663072 
L 62.007151 150.441911 
L 61.89385 150.736792 
L 62.012301 150.478771 
L 62.123027 150.368191 
L 62.128177 150.405051 
L 62.241478 150.220751 
L 62.251778 150.257611 
L 62.321303 150.036451 
L 62.341903 150.110171 
L 62.470655 149.81529 
L 62.517005 149.92587 
L 62.568505 149.70471 
L 62.578805 149.77843 
L 62.666356 149.52041 
L 62.694681 149.59413 
L 62.751332 149.483549 
L 62.756482 149.52041 
L 62.874933 149.299249 
L 62.967634 149.188669 
L 63.075785 149.004369 
L 62.977934 149.225529 
L 63.08351 149.114949 
L 63.12471 149.004369 
L 63.16591 149.041229 
L 63.245736 148.856928 
L 63.284361 148.783208 
L 63.369337 148.709488 
L 63.302386 148.856928 
L 63.395087 148.783208 
L 63.490363 148.635768 
L 63.405387 148.820068 
L 63.510963 148.709488 
L 63.590789 148.820068 
L 63.593364 148.856928 
L 63.665464 148.635768 
L 63.696365 148.783208 
L 63.783915 148.598908 
L 63.814816 148.635768 
L 63.899791 148.709488 
L 63.843141 148.598908 
L 63.925541 148.635768 
L 64.170169 148.525188 
L 64.175319 148.598908 
L 64.29377 148.340887 
L 64.296345 148.414608 
L 64.322095 148.193447 
L 64.40192 148.267167 
L 64.517796 148.082867 
L 64.592472 148.156587 
L 64.623372 148.009147 
L 64.625947 148.082867 
L 64.741823 147.935427 
L 64.764998 148.009147 
L 64.837099 147.787986 
L 64.847399 147.898567 
L 64.93495 147.714266 
L 64.9607 147.824846 
L 65.081726 147.529966 
L 65.089451 147.566826 
L 65.104901 147.603686 
L 65.171852 147.382526 
L 65.189877 147.419386 
L 65.318628 147.161365 
L 65.462829 147.050785 
L 65.483429 147.087645 
L 65.583855 146.792765 
L 65.679131 146.977065 
L 65.697156 146.903345 
L 65.831057 146.792765 
L 65.885133 146.719044 
L 65.843932 146.866485 
L 65.939208 146.792765 
L 65.964958 146.866485 
L 66.034484 146.645324 
L 66.042209 146.719044 
L 66.15551 146.461024 
L 66.16581 146.534744 
L 66.230185 146.461024 
L 66.335761 146.313584 
L 66.343486 146.350444 
L 66.474812 146.239863 
L 66.485113 146.129283 
L 66.523738 146.313584 
L 66.590688 146.166143 
L 66.696264 146.092423 
L 66.80184 145.908123 
L 66.809565 145.944983 
L 66.819865 145.981843 
L 66.904841 145.797543 
L 66.915141 145.908123 
L 66.956341 145.686962 
L 67.028442 145.723823 
L 67.126293 145.650102 
L 67.141743 145.686962 
L 67.239594 145.539522 
L 67.262769 145.613242 
L 67.39667 138.278089 
L 67.932274 126.114266 
L 68.514229 119.258294 
L 68.519379 119.295154 
L 68.534829 119.184573 
L 68.694481 117.747031 
L 68.725381 117.636451 
L 68.933958 116.235768 
L 68.954558 116.125188 
L 68.959708 116.162048 
L 69.088459 115.461706 
L 69.109059 115.387986 
L 69.23266 114.650785 
L 69.235235 114.687645 
L 69.245535 114.761365 
L 69.330511 114.319044 
L 69.333086 114.355904 
L 69.474712 113.803003 
L 69.479862 113.839863 
L 69.497887 113.729283 
L 69.503037 113.766143 
L 69.662689 112.955222 
L 69.698739 112.881502 
L 69.824915 112.18116 
L 69.84809 112.10744 
L 69.984566 111.333379 
L 69.989716 111.370239 
L 70.074692 111.112218 
L 70.082417 111.149078 
L 70.123617 111.038498 
L 70.249793 110.780478 
L 70.272969 110.854198 
L 70.347644 110.596177 
L 70.352794 110.669898 
L 70.47382 110.375017 
L 70.481545 110.411877 
L 70.520171 110.301297 
L 70.527896 110.375017 
L 70.641197 110.153857 
L 70.723597 110.043276 
L 70.852348 109.711536 
L 70.854923 109.748396 
L 71.0841 109.674676 
L 71.179376 109.453515 
L 71.096975 109.748396 
L 71.199976 109.490375 
L 71.223151 109.564096 
L 71.248902 109.342935 
L 71.305552 109.416655 
L 71.318427 109.490375 
L 71.421428 109.306075 
L 71.436878 109.342935 
L 71.454903 109.195495 
L 71.527004 109.232355 
L 71.69438 109.158635 
L 71.743306 109.048055 
L 71.70983 109.195495 
L 71.805106 109.121775 
L 71.957032 109.048055 
L 71.975058 108.937474 
L 71.980208 109.084915 
L 72.070333 108.974334 
L 72.124409 108.900614 
L 72.088359 109.048055 
L 72.178484 109.011195 
L 72.412811 109.121775 
L 72.430836 109.048055 
L 72.536412 109.342935 
L 72.582763 109.269215 
L 72.639413 109.527235 
L 72.641988 109.490375 
L 72.680613 109.600956 
L 72.690913 109.527235 
L 72.793914 109.711536 
L 72.824815 109.637816 
L 72.84799 109.785256 
L 72.902065 109.748396 
L 73.010216 109.858976 
L 72.966441 109.600956 
L 73.015366 109.785256 
L 73.146692 109.895836 
L 73.275443 110.153857 
L 73.352694 110.264437 
L 73.368144 110.227577 
L 73.476295 110.633038 
L 73.527795 110.743618 
L 73.635946 110.891058 
L 73.53552 110.669898 
L 73.641096 110.817338 
L 73.643671 110.780478 
L 73.731222 111.112218 
L 73.733797 111.075358 
L 73.818773 111.333379 
L 73.738947 111.038498 
L 73.849673 111.259659 
L 73.888298 111.370239 
L 74.014474 111.591399 
L 74.192151 111.665119 
L 74.210176 111.628259 
L 74.308027 111.92314 
L 74.313177 111.81256 
L 74.398152 112.03372 
L 74.416178 111.92314 
L 74.539779 112.10744 
L 74.570679 112.07058 
L 74.614454 112.254881 
L 74.640204 112.21802 
L 74.73548 112.476041 
L 74.75608 112.439181 
L 74.781831 112.365461 
L 74.825606 112.549761 
L 74.856506 112.476041 
L 74.972382 112.770922 
L 75.034183 112.881502 
L 75.160359 113.139522 
L 75.173234 113.102662 
L 75.250484 113.360683 
L 75.25821 113.323823 
L 75.30456 113.434403 
L 75.438461 113.766143 
L 75.466786 113.692423 
L 75.513137 113.839863 
L 75.546612 113.729283 
L 75.657338 113.987304 
L 75.659913 113.950444 
L 75.775789 114.208464 
L 75.786089 114.171604 
L 75.798964 114.134744 
L 75.876215 114.466485 
L 75.87879 114.355904 
L 75.997241 114.724505 
L 75.999816 114.650785 
L 76.066766 114.761365 
L 76.190367 115.019386 
L 76.082216 114.687645 
L 76.192942 114.982526 
L 76.198092 114.945666 
L 76.272768 115.203686 
L 76.290793 115.129966 
L 76.401519 115.314266 
L 76.303668 115.093106 
L 76.406669 115.277406 
L 76.416969 115.203686 
L 76.48907 115.461706 
L 76.50967 115.351126 
L 76.612671 115.498567 
L 76.54057 115.314266 
L 76.625546 115.424846 
L 76.656446 115.387986 
L 76.702796 115.572287 
L 76.731122 115.498567 
L 76.846998 115.682867 
L 76.849573 115.609147 
L 76.919098 115.682867 
L 77.009224 115.830307 
L 77.032399 115.756587 
L 77.091625 115.719727 
L 77.117375 115.867167 
L 77.137975 115.830307 
L 77.467578 115.940887 
L 77.557703 116.051468 
L 77.477878 115.904027 
L 77.580879 116.014608 
L 77.596329 115.940887 
L 77.609204 116.051468 
L 77.689029 116.051468 
L 77.774005 116.088328 
L 77.889881 116.309488 
L 78.005757 116.198908 
L 78.054682 116.272628 
L 78.101033 116.088328 
L 78.113908 116.198908 
L 78.216909 116.125188 
L 78.160258 116.272628 
L 78.227209 116.162048 
L 78.538786 116.272628 
L 78.641787 116.383208 
L 78.549087 116.198908 
L 78.649512 116.309488 
L 78.652087 116.272628 
L 78.706163 116.420068 
L 78.752513 116.309488 
L 78.767963 116.272628 
L 78.865814 116.456928 
L 78.899289 116.383208 
L 78.92504 116.530648 
L 78.973965 116.420068 
L 79.087266 116.678089 
L 79.092416 116.641229 
L 79.107866 116.678089 
L 79.208292 116.825529 
L 79.221167 116.788669 
L 79.321593 116.972969 
L 79.228892 116.714949 
L 79.339618 116.899249 
L 79.470944 116.972969 
L 79.504419 117.083549 
L 79.53532 116.936109 
L 79.58167 117.009829 
L 79.643471 116.972969 
L 79.648621 117.083549 
L 79.689821 117.009829 
L 79.769647 117.046689 
L 79.712996 116.936109 
L 79.800547 117.009829 
L 80.256326 117.083549 
L 80.287226 117.15727 
L 80.315551 117.009829 
L 80.364476 117.083549 
L 80.434002 117.009829 
L 80.382502 117.15727 
L 80.477777 117.046689 
L 80.508678 117.15727 
L 80.570478 116.972969 
L 80.585928 117.046689 
L 80.650304 116.936109 
L 80.655454 117.083549 
L 80.696654 117.046689 
L 80.80223 116.972969 
L 80.722404 117.12041 
L 80.804805 117.046689 
L 80.82283 116.972969 
L 80.920681 117.12041 
L 81.095782 117.046689 
L 81.098357 116.972969 
L 81.152433 117.23099 
L 81.203933 117.12041 
L 81.281184 117.26785 
L 81.314659 117.19413 
L 81.37131 117.083549 
L 81.37646 117.26785 
L 81.42796 117.15727 
L 81.533536 117.23099 
L 81.536111 117.12041 
L 81.688037 117.046689 
L 81.731813 116.936109 
L 81.783313 117.12041 
L 81.796188 117.046689 
L 81.809063 117.083549 
L 81.832239 116.936109 
L 81.899189 116.972969 
L 81.927514 116.862389 
L 81.968715 117.009829 
L 82.01249 116.936109 
L 82.360118 116.825529 
L 82.380718 116.862389 
L 82.478569 116.678089 
L 82.555819 116.751809 
L 82.486294 116.641229 
L 82.589295 116.678089 
L 82.712896 116.714949 
L 82.849372 128.06785 
L 83.549778 153.390717 
L 83.773804 158.182526 
L 83.951481 161.057611 
L 83.954056 160.983891 
L 84.026157 162.015973 
L 84.028732 162.015973 
L 84.317134 164.559317 
L 84.330009 164.669898 
L 84.335159 164.633038 
L 84.49481 165.443959 
L 84.523136 165.517679 
L 84.644162 165.88628 
L 84.651887 165.81256 
L 84.687937 165.96 
L 84.754888 165.88628 
L 84.976339 165.7757 
L 85.081915 165.591399 
L 85.004665 165.81256 
L 85.097365 165.628259 
L 85.146291 165.517679 
L 85.262167 165.149078 
L 85.275042 165.222799 
L 85.285342 165.296519 
L 85.367743 165.038498 
L 85.372893 165.038498 
L 85.486194 164.706758 
L 85.378043 165.075358 
L 85.491344 164.743618 
L 85.499069 164.817338 
L 85.581469 164.448737 
L 85.591769 164.448737 
L 85.64842 164.338157 
L 85.769446 164.043276 
L 85.774596 164.116997 
L 85.777171 164.153857 
L 85.856997 163.748396 
L 85.859572 163.785256 
L 85.990898 163.490375 
L 86.019223 163.564096 
L 86.060423 163.342935 
L 86.091323 163.342935 
L 86.150549 163.269215 
L 86.271575 162.937474 
L 86.276725 163.011195 
L 86.3205 162.753174 
L 86.372001 162.790034 
L 86.418351 162.679454 
L 86.547102 162.384573 
L 86.557402 162.458294 
L 86.642378 162.163413 
L 86.644953 162.200273 
L 86.729929 161.905392 
L 86.760829 162.015973 
L 86.763404 162.052833 
L 86.84323 161.757952 
L 86.85353 161.831672 
L 86.956531 161.499932 
L 86.974556 161.536792 
L 87.093007 161.315631 
L 87.098157 161.352491 
L 87.149657 161.241911 
L 87.275833 160.983891 
L 87.278408 161.057611 
L 87.376259 160.72587 
L 87.378834 160.76273 
L 87.50501 160.50471 
L 87.51531 160.57843 
L 87.556511 160.32041 
L 87.608011 160.35727 
L 87.729037 160.062389 
L 87.736762 160.099249 
L 87.741912 160.136109 
L 87.834613 159.951809 
L 87.842338 160.025529 
L 87.898988 159.914949 
L 88.020014 159.693788 
L 87.914438 159.951809 
L 88.022589 159.730648 
L 88.056065 159.656928 
L 88.174516 159.325188 
L 88.06894 159.693788 
L 88.177091 159.362048 
L 88.213141 159.398908 
L 88.272366 159.140887 
L 88.390817 158.919727 
L 88.439743 158.809147 
L 88.555619 158.477406 
L 88.450043 158.846007 
L 88.571069 158.514266 
L 88.601969 158.440546 
L 88.71527 158.071945 
L 88.722995 158.145666 
L 88.73072 158.219386 
L 88.813121 157.924505 
L 88.825996 157.961365 
L 88.869771 157.887645 
L 88.988222 157.629625 
L 89.016547 157.703345 
L 89.065473 157.445324 
L 89.088648 157.482184 
L 89.127273 157.371604 
L 89.258599 156.966143 
L 89.26375 157.003003 
L 89.266325 157.039863 
L 89.3513 156.744983 
L 89.3616 156.818703 
L 89.492926 156.486962 
L 89.495501 156.523823 
L 89.557302 156.265802 
L 89.590777 156.302662 
L 89.719528 156.007782 
L 89.747853 156.044642 
L 89.789054 155.823481 
L 89.819954 155.860341 
L 89.825104 155.897201 
L 89.953855 155.491741 
L 89.959005 155.602321 
L 90.043981 155.27058 
L 90.049131 155.30744 
L 90.059431 155.3443 
L 90.170157 155.01256 
L 90.172732 155.08628 
L 90.262858 154.754539 
L 90.270583 154.828259 
L 90.389034 154.496519 
L 90.394184 154.533379 
L 90.517785 154.238498 
L 90.52551 154.312218 
L 90.59761 154.054198 
L 90.615636 154.091058 
L 90.739237 153.796177 
L 90.628511 154.127918 
L 90.744387 153.833038 
L 90.788162 153.722457 
L 90.927213 153.316997 
L 90.929788 153.427577 
L 91.012189 153.132696 
L 91.032789 153.132696 
L 91.040514 153.169556 
L 91.12549 152.911536 
L 91.13064 152.948396 
L 91.16669 152.874676 
L 91.285141 152.579795 
L 91.290291 152.616655 
L 91.359817 152.432355 
L 91.385567 152.432355 
L 91.501443 152.248055 
L 91.532343 152.248055 
L 91.640494 152.026894 
L 91.645644 152.063754 
L 91.76667 151.732014 
L 91.774395 151.805734 
L 91.80272 151.732014 
L 91.810445 151.768874 
L 91.923746 151.400273 
L 91.952072 151.289693 
L 92.091123 150.884232 
L 92.093698 150.957952 
L 92.181248 150.699932 
L 92.196699 150.736792 
L 92.243049 150.626212 
L 92.3409 150.441911 
L 92.250774 150.663072 
L 92.364075 150.478771 
L 92.36665 150.515631 
L 92.446476 150.220751 
L 92.459351 150.294471 
L 92.593252 149.88901 
L 92.606127 149.96273 
L 92.693678 149.66785 
L 92.696253 149.74157 
L 92.840454 149.262389 
L 92.848179 149.336109 
L 92.917705 149.041229 
L 92.938305 149.078089 
L 93.061906 148.783208 
L 93.064481 148.820068 
L 93.067056 148.893788 
L 93.164907 148.562048 
L 93.167482 148.598908 
L 93.185507 148.635768 
L 93.288508 148.377747 
L 93.291083 148.488328 
L 93.373483 148.156587 
L 93.394083 148.156587 
L 93.509959 147.898567 
L 93.401808 148.193447 
L 93.512534 147.935427 
L 93.64386 147.566826 
L 93.646436 147.640546 
L 93.741711 147.345666 
L 93.749436 147.419386 
L 93.780337 147.345666 
L 93.901363 147.050785 
L 93.916813 147.087645 
L 93.950288 146.829625 
L 93.999213 146.903345 
L 94.133115 146.571604 
L 94.13569 146.645324 
L 94.220665 146.350444 
L 94.23869 146.424164 
L 94.354566 146.092423 
L 94.359716 146.129283 
L 94.380317 146.092423 
L 94.498768 145.723823 
L 94.524518 145.797543 
L 94.617218 145.576382 
L 94.663569 145.613242 
L 94.717644 145.465802 
L 94.720219 145.502662 
L 94.83867 145.281502 
L 94.841245 145.318362 
L 94.84897 145.392082 
L 94.910771 145.134061 
L 94.936521 145.170922 
L 94.949396 145.207782 
L 95.052397 144.986621 
L 95.137373 144.876041 
L 95.268699 144.58116 
L 95.294449 144.47058 
L 95.41805 144.1757 
L 95.317624 144.5443 
L 95.420625 144.21256 
L 95.425775 144.24942 
L 95.490151 144.028259 
L 95.518476 144.065119 
L 95.649802 143.770239 
L 95.665252 143.807099 
L 95.737353 143.585939 
L 95.747653 143.585939 
L 95.809453 143.512218 
L 95.930479 143.217338 
L 95.945929 143.254198 
L 96.01803 142.996177 
L 96.025755 142.996177 
L 96.07983 142.885597 
L 96.208582 142.590717 
L 96.211157 142.627577 
L 96.288407 142.332696 
L 96.298707 142.369556 
L 96.419733 142.037816 
L 96.466084 142.111536 
L 96.502134 141.890375 
L 96.520159 141.964096 
L 96.63861 141.706075 
L 96.656635 141.779795 
L 96.697836 141.558635 
L 96.744186 141.558635 
L 96.811136 141.448055 
L 96.934738 141.190034 
L 96.937313 141.226894 
L 96.981088 141.116314 
L 97.102114 140.821433 
L 96.988813 141.153174 
L 97.107264 140.858294 
L 97.122714 140.895154 
L 97.199965 140.637133 
L 97.205115 140.710853 
L 97.323566 140.452833 
L 97.328716 140.489693 
L 97.351891 140.526553 
L 97.426567 140.342253 
L 97.436867 140.452833 
L 97.555318 140.121092 
L 97.557893 140.194812 
L 97.648018 139.899932 
L 97.655743 139.936792 
L 97.771619 139.605051 
L 97.794795 139.641911 
L 97.86432 139.420751 
L 97.872045 139.494471 
L 98.005946 139.12587 
L 98.026546 139.19959 
L 98.103797 138.86785 
L 98.108947 138.90471 
L 98.253148 135.808464 
L 98.394774 136.398225 
L 98.5055 136.545666 
L 98.410225 136.361365 
L 98.513225 136.508805 
L 98.716652 136.435085 
L 98.729527 136.471945 
L 98.835103 136.213925 
L 98.886604 136.250785 
L 98.938104 136.103345 
L 99.056555 136.029625 
L 99.164706 135.845324 
L 99.172431 135.882184 
L 99.290882 135.624164 
L 99.298607 135.661024 
L 99.301182 135.697884 
L 99.373283 135.439863 
L 99.401608 135.550444 
L 99.530359 135.218703 
L 99.532934 135.292423 
L 99.610184 135.071263 
L 99.635935 135.071263 
L 99.646235 135.108123 
L 99.708035 134.850102 
L 99.73121 134.850102 
L 99.785286 134.776382 
L 99.893437 134.592082 
L 99.901162 134.628942 
L 99.932062 134.518362 
L 99.947512 134.592082 
L 100.053088 134.370922 
L 100.150939 134.260341 
L 100.26939 134.039181 
L 100.277115 134.149761 
L 100.362091 133.928601 
L 100.377541 133.928601 
L 100.508867 133.63372 
L 100.586117 133.52314 
L 100.596418 133.56 
L 100.714869 133.265119 
L 100.732894 133.33884 
L 100.771519 133.154539 
L 100.817869 133.191399 
L 100.89512 132.970239 
L 100.823019 133.228259 
L 100.93632 133.043959 
L 100.938895 133.117679 
L 101.021296 132.749078 
L 101.036746 132.749078 
L 101.044471 132.822799 
L 101.108847 132.564778 
L 101.139747 132.675358 
L 101.250473 132.269898 
L 101.263348 132.306758 
L 101.294248 132.269898 
L 101.404974 131.975017 
L 101.410124 132.011877 
L 101.420424 132.011877 
L 101.53115 131.790717 
L 101.533725 131.827577 
L 101.600676 131.716997 
L 101.724277 131.458976 
L 101.726852 131.495836 
L 101.729427 131.569556 
L 101.822128 131.237816 
L 101.829853 131.311536 
L 101.956029 130.979795 
L 101.961179 131.016655 
L 101.963754 131.053515 
L 102.022979 130.869215 
L 102.061605 130.869215 
L 102.15688 130.648055 
L 102.07963 130.942935 
L 102.182631 130.684915 
L 102.198081 130.721775 
L 102.277906 130.463754 
L 102.280481 130.500614 
L 102.398932 130.279454 
L 102.406657 130.353174 
L 102.519958 130.095154 
L 102.527683 130.205734 
L 102.620384 129.984573 
L 102.628109 130.058294 
L 102.749135 129.873993 
L 102.810936 129.910853 
L 102.841836 129.726553 
L 102.852136 129.800273 
L 102.975737 129.542253 
L 102.978312 129.579113 
L 102.980887 129.615973 
L 103.071013 129.357952 
L 103.076163 129.394812 
L 103.202339 129.173652 
L 103.258989 129.063072 
L 103.266714 129.136792 
L 103.380015 128.841911 
L 103.434091 128.915631 
L 103.477866 128.657611 
L 103.485591 128.694471 
L 103.591167 128.583891 
L 103.707043 128.39959 
L 103.712193 128.436451 
L 103.784294 128.32587 
L 103.918195 127.99413 
L 103.92077 128.03099 
L 104.013471 127.772969 
L 104.016046 127.846689 
L 104.139647 127.551809 
L 104.046946 127.883549 
L 104.142222 127.588669 
L 104.147372 127.662389 
L 104.204022 127.441229 
L 104.242648 127.441229 
L 104.304448 127.330648 
L 104.425474 127.109488 
L 104.428049 127.183208 
L 104.513025 126.851468 
L 104.528475 126.888328 
L 104.641776 126.630307 
L 104.538775 126.925188 
L 104.646926 126.667167 
L 104.652076 126.740887 
L 104.747352 126.372287 
L 104.762802 126.482867 
L 104.842627 126.187986 
L 104.847777 126.224846 
L 104.881253 126.187986 
L 104.997129 125.893106 
L 105.002279 125.929966 
L 105.082104 125.708805 
L 105.09498 125.708805 
L 105.195405 125.450785 
L 105.218581 125.524505 
L 105.254631 125.413925 
L 105.270081 125.487645 
L 105.388532 125.045324 
L 105.406557 125.082184 
L 105.478658 124.824164 
L 105.486383 124.861024 
L 105.599684 124.566143 
L 105.609984 124.676724 
L 105.661484 124.603003 
L 105.77736 124.308123 
L 105.870061 124.344983 
L 105.78766 124.234403 
L 105.882936 124.234403 
L 105.988512 124.123823 
L 106.001387 124.160683 
L 106.106963 123.939522 
L 106.112113 124.013242 
L 106.186788 123.718362 
L 106.212539 123.792082 
L 106.349015 123.423481 
L 106.39794 123.349761 
L 106.518966 123.01802 
L 106.616817 122.90744 
L 106.745568 122.61256 
L 106.750718 122.68628 
L 106.840844 122.391399 
L 106.848569 122.428259 
L 106.98247 122.096519 
L 107.051996 122.022799 
L 107.173022 121.617338 
L 107.188472 121.764778 
L 107.268297 121.433038 
L 107.278597 121.469898 
L 107.399623 121.064437 
L 107.402198 121.101297 
L 107.427949 121.027577 
L 107.55155 120.658976 
L 107.6082 120.548396 
L 107.721501 120.327235 
L 107.729226 120.364096 
L 107.731801 120.400956 
L 107.819352 120.179795 
L 107.827077 120.179795 
L 107.881152 120.069215 
L 107.886302 120.106075 
L 108.009903 119.774334 
L 108.012478 119.811195 
L 108.100029 119.553174 
L 108.105179 119.553174 
L 108.236505 119.258294 
L 108.300881 119.184573 
L 108.424482 118.815973 
L 108.470832 118.852833 
L 108.504307 118.705392 
L 108.527483 118.705392 
L 108.622758 118.594812 
L 108.741209 118.299932 
L 108.769535 118.373652 
L 108.83906 118.152491 
L 108.846785 118.189352 
L 108.962661 117.857611 
L 108.967811 117.894471 
L 109.101712 117.56273 
L 109.160938 117.45215 
L 109.287114 117.15727 
L 109.181538 117.48901 
L 109.289689 117.19413 
L 109.351489 117.083549 
L 109.47509 116.899249 
L 109.565216 116.825529 
L 109.678517 116.567509 
L 109.683667 116.604369 
L 109.722292 116.493788 
L 109.858769 116.088328 
L 109.871644 116.198908 
L 109.954044 115.830307 
L 109.961769 115.940887 
L 110.121421 115.240546 
L 110.147171 115.129966 
L 110.293947 114.503345 
L 110.296522 114.613925 
L 110.371198 114.282184 
L 110.399523 114.319044 
L 110.512824 114.024164 
L 110.517974 114.061024 
L 110.595225 113.950444 
L 110.60295 113.987304 
L 110.718826 113.766143 
L 110.721401 113.803003 
L 110.808951 113.508123 
L 110.811526 113.508123 
L 110.878477 113.434403 
L 110.981478 113.139522 
L 110.996928 113.176382 
L 110.999503 113.213242 
L 111.061303 112.955222 
L 111.092204 112.955222 
L 111.19778 112.697201 
L 111.210655 112.770922 
L 111.24413 112.844642 
L 111.311081 112.660341 
L 111.316231 112.734061 
L 111.424381 112.439181 
L 111.434682 112.512901 
L 111.475882 112.439181 
L 111.602058 111.99686 
L 111.638108 112.07058 
L 111.687034 111.73884 
L 111.692184 111.73884 
L 111.820935 111.480819 
L 111.82866 111.517679 
L 111.903335 111.333379 
L 111.921361 111.370239 
L 112.057837 110.964778 
L 112.068137 111.001638 
L 112.137662 110.669898 
L 112.153112 110.743618 
L 112.276713 110.375017 
L 112.302464 110.301297 
L 112.42864 109.822116 
L 112.431215 109.858976 
L 112.503315 109.527235 
L 112.513615 109.527235 
L 112.642366 109.011195 
L 112.781418 108.568874 
L 112.783993 108.605734 
L 112.863818 108.200273 
L 112.866393 108.273993 
L 112.992569 107.721092 
L 112.995144 107.794812 
L 113.06982 107.315631 
L 113.09042 107.389352 
L 113.219171 106.836451 
L 113.257797 106.72587 
L 113.425173 105.914949 
L 113.427748 105.951809 
L 113.510149 105.546348 
L 113.512724 105.583208 
L 113.692975 104.551126 
L 113.698125 104.624846 
L 113.777951 104.182526 
L 113.780526 104.219386 
L 113.785676 104.256246 
L 113.909277 103.703345 
L 113.919577 103.777065 
L 114.063778 103.076724 
L 114.089528 103.003003 
L 114.228579 102.192082 
L 114.236305 102.118362 
L 114.362481 101.27058 
L 114.365056 101.30744 
L 114.558182 100.127918 
L 114.560757 100.164778 
L 114.632858 99.648737 
L 114.823409 98.506075 
L 114.825984 98.542935 
L 114.892935 97.953174 
L 115.109237 96.441911 
L 115.119537 96.331331 
L 115.266313 95.262389 
L 115.284338 95.336109 
L 115.346139 94.856928 
L 115.688616 91.465802 
L 115.727242 91.576382 
L 115.786467 91.170922 
L 115.858568 90.728601 
L 115.925518 90.765461 
L 115.930668 90.839181 
L 115.984744 90.028259 
L 116.257696 84.609829 
L 116.280871 80.444642 
L 116.301472 18.777747 
L 116.370997 110.485597 
L 116.383872 110.706758 
L 116.432798 109.121775 
L 116.837076 100.680819 
L 116.844801 100.570239 
L 117.025052 93.161365 
L 117.048228 16.455563 
L 117.115178 110.854198 
L 117.122903 110.780478 
L 117.32633 106.57843 
L 117.328905 106.61529 
L 117.33663 106.54157 
L 117.483406 104.993447 
L 117.491131 104.919727 
L 117.637907 103.887645 
L 117.650783 103.777065 
L 117.797559 102.192082 
L 117.800134 102.228942 
L 117.861934 101.602321 
L 117.864509 101.602321 
L 118.031886 99.943618 
L 118.042186 99.869898 
L 118.199262 97.805734 
L 118.212137 97.695154 
L 118.361488 95.96273 
L 118.369213 95.85215 
L 118.59324 91.060341 
L 118.670491 86.526553 
L 118.691091 16.381843 
L 118.760617 110.411877 
L 118.765767 110.485597 
L 118.817267 108.937474 
L 118.982069 106.50471 
L 118.984644 106.54157 
L 119.046444 105.914949 
L 119.049019 105.914949 
L 119.20867 104.514266 
L 119.605224 100.422799 
L 119.633549 100.312218 
L 120.058427 92.645324 
L 120.068727 87.521775 
L 120.089328 15.865802 
L 120.158853 110.596177 
L 120.166578 110.411877 
L 120.470431 104.882867 
L 121.067836 94.930648 
L 121.080711 84.646689 
L 121.098736 15.607782 
L 121.165686 110.964778 
L 121.181137 110.485597 
L 121.451514 105.878089 
L 121.456664 105.914949 
L 121.515889 105.251468 
L 121.521039 105.288328 
L 121.711591 102.966143 
L 121.714166 103.003003 
L 121.768241 102.192082 
L 121.778541 102.081502 
L 122.030894 97.990034 
L 122.033469 98.026894 
L 122.074669 97.068532 
L 122.149345 94.414608 
L 122.16222 83.172287 
L 122.17767 15.570922 
L 122.247195 110.338157 
L 122.262645 109.822116 
L 122.476372 105.325188 
L 122.481522 105.251468 
L 122.697824 102.155222 
L 122.700399 102.192082 
L 122.75705 101.41802 
L 123.004252 96.331331 
L 123.040302 91.502662 
L 123.060902 15.091741 
L 123.133003 110.227577 
L 123.138153 110.116997 
L 123.375055 104.698567 
L 123.38278 104.624846 
L 123.611957 101.19686 
L 123.617107 101.23372 
L 123.666032 100.385939 
L 123.936409 89.512218 
L 123.957009 14.87058 
L 124.026535 110.153857 
L 124.03426 109.895836 
L 124.237687 104.440546 
L 124.240262 104.514266 
L 124.304637 103.408464 
L 124.309787 103.482184 
L 124.472014 100.533379 
L 124.716641 90.58116 
L 124.737241 15.276041 
L 124.804191 110.006416 
L 124.811916 109.969556 
L 125.182719 102.523823 
L 125.190444 102.413242 
L 125.411896 97.695154 
L 125.532922 88.480137 
L 125.553522 15.202321 
L 125.620473 109.711536 
L 125.630773 109.564096 
L 125.993851 102.302662 
L 125.999001 102.228942 
L 126.336329 90.839181 
L 126.356929 15.01802 
L 126.426455 109.637816 
L 126.43418 109.527235 
L 126.683957 103.555904 
L 126.686532 103.592765 
L 126.738032 102.781843 
L 127.04446 96.810512 
L 127.103685 92.461024 
L 127.12686 14.87058 
L 127.191236 109.195495 
L 127.198961 109.084915 
L 127.487363 101.454881 
L 127.492513 101.38116 
L 127.698515 97.252833 
L 127.70109 97.289693 
L 127.73714 96.294471 
L 127.775766 93.050785 
L 127.798941 15.755222 
L 127.865891 109.048055 
L 127.868466 109.121775 
L 127.912242 107.278771 
L 128.125969 102.818703 
L 128.136269 102.781843 
L 128.308795 100.091058 
L 128.460721 96.331331 
L 128.519947 92.203003 
L 128.543122 14.9443 
L 128.612648 108.937474 
L 128.671873 106.57843 
L 128.844399 103.039863 
L 129.266703 89.033038 
L 129.287303 14.76 
L 129.351679 109.379795 
L 129.364554 109.121775 
L 129.897583 90.949761 
L 129.920758 14.9443 
L 129.987709 108.900614 
L 129.995434 108.753174 
L 130.299286 100.459659 
L 130.531038 92.092423 
L 130.554214 14.9443 
L 130.618589 108.495154 
L 130.626314 108.458294 
L 131.141318 90.654881 
L 131.164494 15.239181 
L 131.236594 108.716314 
L 131.540447 100.422799 
L 131.656323 97.252833 
L 131.736148 87.927235 
L 131.756748 15.054881 
L 131.823699 108.458294 
L 131.836574 108.200273 
L 132.137852 99.943618 
L 132.140427 99.943618 
L 132.379904 80.481502 
L 132.395354 15.054881 
L 132.464879 108.384573 
L 132.480329 107.905392 
L 132.691481 100.680819 
L 132.964433 90.1757 
L 132.987609 14.9443 
L 133.054559 107.794812 
L 133.059709 107.757952 
L 133.062284 107.757952 
L 133.327511 98.874676 
L 133.523213 91.613242 
L 133.546388 15.386621 
L 133.610764 107.942253 
L 133.613339 107.942253 
L 133.615914 107.979113 
L 133.641664 106.79959 
L 133.955816 98.063754 
L 134.107743 91.428942 
L 134.133493 15.091741 
L 134.195293 107.794812 
L 134.197868 107.868532 
L 134.239069 106.025529 
L 134.470821 98.985256 
L 134.475971 98.948396 
L 134.697423 85.678771 
L 134.715448 15.276041 
L 134.784973 108.015973 
L 134.797848 107.721092 
L 135.01415 100.054198 
L 135.171226 96.220751 
L 135.266502 90.728601 
L 135.289677 14.90744 
L 135.356628 107.757952 
L 135.781506 92.829625 
L 135.796957 66.400956 
L 135.809832 14.87058 
L 135.876782 107.241911 
L 135.899957 106.39413 
L 136.105959 99.538157 
L 136.319686 86.231672 
L 136.340286 15.01802 
L 136.404662 107.205051 
L 136.417537 106.910171 
L 136.422687 106.79959 
L 136.649289 98.506075 
L 136.82954 87.742935 
L 136.85014 15.202321 
L 136.919666 107.278771 
L 136.927391 107.057611 
L 137.396045 83.282867 
L 137.41407 14.87058 
L 137.48102 107.057611 
L 137.496471 106.32041 
L 137.679297 99.095836 
L 137.833798 95.336109 
L 137.895599 88.111536 
L 137.916199 14.76 
L 137.98315 106.947031 
L 137.99345 106.72587 
L 138.464678 84.83099 
L 138.485279 15.091741 
L 138.552229 106.72587 
L 138.562529 106.54157 
L 138.971958 84.572969 
L 138.989983 15.497201 
L 139.056933 106.57843 
L 139.072383 106.246689 
L 139.27066 98.727235 
L 139.479237 89.770239 
L 139.502412 15.276041 
L 139.569363 107.094471 
L 139.571938 107.057611 
L 139.610563 104.919727 
L 139.793389 98.579795 
L 139.90154 95.446689 
L 139.989091 90.50744 
L 140.014841 14.9443 
L 140.076642 106.54157 
L 140.084367 106.68901 
L 140.107542 105.435768 
L 140.388219 95.66785 
L 140.478345 92.829625 
L 140.529845 79.41256 
L 140.547871 15.091741 
L 140.614821 106.43099 
L 140.630271 105.878089 
L 140.877473 96.110171 
L 141.008799 89.880819 
L 141.03455 15.460341 
L 141.098925 106.35727 
L 141.14785 104.071945 
L 141.544404 90.28628 
L 141.562429 39.382526 
L 141.570154 15.054881 
L 141.63968 106.136109 
L 141.66028 105.288328 
L 141.886882 96.847372 
L 141.892032 96.773652 
L 142.033658 88.885597 
L 142.056833 14.90744 
L 142.126359 106.099249 
L 142.128934 106.099249 
L 142.432786 95.004369 
L 142.492012 92.608464 
L 142.525487 85.863072 
L 142.546087 14.98116 
L 142.613038 106.283549 
L 142.623338 106.062389 
L 142.878265 95.66785 
L 143.027616 89.475358 
L 143.053366 14.83372 
L 143.110017 105.177747 
L 143.122892 105.693788 
L 143.184692 102.118362 
L 143.524595 85.641911 
L 143.545195 15.165461 
L 143.612146 105.509488 
L 143.622446 105.251468 
L 143.655921 103.224164 
L 143.949474 92.719044 
L 143.995824 88.701297 
L 144.018999 15.460341 
L 144.08595 105.325188 
L 144.088525 105.325188 
L 144.0911 105.398908 
L 144.124575 103.261024 
L 144.420702 88.553857 
L 144.443878 15.01802 
L 144.510828 105.398908 
L 144.515978 105.362048 
L 144.801805 94.046007 
L 144.884206 83.762048 
L 144.904806 15.165461 
L 144.971757 105.656928 
L 144.982057 105.362048 
L 145.303935 81.919044 
L 145.32196 15.570922 
L 145.39406 105.030307 
L 145.40436 104.661706 
L 145.803489 85.273311 
L 145.824089 15.460341 
L 145.891039 104.919727 
L 145.898765 104.809147 
L 145.996615 98.837816 
L 146.264418 77.606416 
L 146.282443 15.607782 
L 146.351968 104.993447 
L 146.364843 104.587986 
L 146.617195 94.451468 
L 146.797447 82.951126 
L 146.818047 15.01802 
L 146.887573 104.993447 
L 146.895298 104.809147 
L 147.191425 78.712218 
L 147.20945 15.497201 
L 147.278976 104.624846 
L 147.291851 104.293106 
L 147.521028 93.972287 
L 147.600853 91.244642 
L 147.629179 87.337474 
L 147.652354 15.460341 
L 147.719304 104.587986 
L 147.724454 104.587986 
L 147.760505 102.486962 
L 147.981957 92.903345 
L 148.074657 87.927235 
L 148.100408 15.202321 
L 148.162208 104.366826 
L 148.167358 104.661706 
L 148.229159 100.865119 
L 148.522711 81.218703 
L 148.543311 15.497201 
L 148.610262 104.182526 
L 148.620562 103.924505 
L 148.921839 83.393447 
L 148.942439 15.607782 
L 149.011965 104.035085 
L 149.01969 103.777065 
L 149.127841 97.584573 
L 149.362168 73.514949 
L 149.377618 15.534061 
L 149.444569 103.998225 
L 149.462594 103.408464 
L 149.776746 82.914266 
L 149.797347 15.349761 
L 149.864297 104.219386 
L 149.874597 103.924505 
L 150.16815 79.81802 
L 150.186175 15.902662 
L 150.2557 103.887645 
L 150.266 103.555904 
L 150.593028 76.426894 
L 150.611053 15.828942 
L 150.680579 103.371604 
L 150.693454 102.818703 
L 151.033357 77.643276 
L 151.051382 15.681502 
L 151.118332 103.703345 
L 151.133782 103.224164 
L 151.437635 81.697884 
L 151.458235 15.570922 
L 151.525186 103.261024 
L 151.535486 102.966143 
L 151.865088 85.01529 
L 151.888264 15.976382 
L 151.957789 103.003003 
L 151.99899 100.828259 
L 152.256492 88.185256 
L 152.295117 81.919044 
L 152.315717 16.050102 
L 152.385243 102.929283 
L 152.390393 102.855563 
L 152.699395 85.494471 
L 152.722571 16.308123 
L 152.792096 103.224164 
L 152.794671 103.261024 
L 152.815271 102.155222 
L 153.077923 89.069898 
L 153.103674 84.75727 
L 153.126849 15.681502 
L 153.191224 102.855563 
L 153.198949 102.744983 
L 153.201524 102.744983 
L 153.518252 81.992765 
L 153.538852 16.086962 
L 153.610953 103.408464 
L 153.613528 103.297884 
L 153.92253 85.641911 
L 153.945706 15.828942 
L 154.015231 102.744983 
L 154.051281 100.754539 
L 154.324234 89.033038 
L 154.357709 87.226894 
L 154.373159 67.985939 
L 154.388609 15.828942 
L 154.45556 102.929283 
L 154.47616 101.860341 
L 154.731087 89.401638 
L 154.810913 81.992765 
L 154.834088 15.976382 
L 154.898463 102.818703 
L 154.906188 102.744983 
L 154.996314 97.031672 
L 155.228066 88.332696 
L 155.297592 80.960683 
L 155.318192 15.718362 
L 155.385142 102.450102 
L 155.392867 102.339522 
L 155.480418 96.663072 
L 155.68127 78.269898 
L 155.699295 16.013242 
L 155.771396 102.744983 
L 155.779121 102.450102 
L 156.075248 89.143618 
L 156.152499 84.204369 
L 156.178249 15.644642 
L 156.234899 101.970922 
L 156.250349 102.929283 
L 156.314725 98.432355 
L 156.554202 76.205734 
L 156.572227 15.534061 
L 156.639178 102.302662 
L 156.654628 101.712901 
L 156.991956 71.966826 
L 157.007406 16.123823 
L 157.079506 102.376382 
L 157.092381 101.860341 
L 157.388509 81.697884 
L 157.409109 15.976382 
L 157.48121 101.934061 
L 157.48636 101.823481 
L 157.808237 83.356587 
L 157.831412 15.718362 
L 157.900938 102.192082 
L 157.906088 102.192082 
L 158.18934 81.587304 
L 158.209941 16.086962 
L 158.279466 101.712901 
L 158.287191 101.565461 
L 158.374742 95.88901 
L 158.580744 77.975017 
L 158.601344 16.234403 
L 158.668294 101.823481 
L 158.678594 101.676041 
L 158.972147 84.351809 
L 158.997897 15.939522 
L 159.059698 101.528601 
L 159.069998 101.786621 
L 159.116348 98.616655 
L 159.3996 79.59686 
L 159.420201 16.013242 
L 159.487151 101.491741 
L 159.497451 101.38116 
L 159.772978 85.12587 
L 159.798729 16.123823 
L 159.860529 101.16 
L 159.870829 101.38116 
L 159.91718 98.100614 
L 160.187557 74.06785 
L 160.205582 15.939522 
L 160.272533 101.454881 
L 160.287983 100.93884 
L 160.555785 64.889693 
L 160.571235 16.086962 
L 160.640761 101.639181 
L 160.656211 101.01256 
L 160.918863 68.98116 
L 160.934313 16.013242 
L 161.003839 101.23372 
L 161.019289 100.643959 
L 161.281941 79.59686 
L 161.302541 16.123823 
L 161.372067 101.01256 
L 161.379792 100.865119 
L 161.660469 84.425529 
L 161.688794 16.455563 
L 161.74287 99.611877 
L 161.75832 100.865119 
L 161.83042 95.63099 
L 162.051872 69.091741 
L 162.067322 16.603003 
L 162.139423 100.459659 
L 162.152298 99.869898 
L 162.3995 85.05215 
L 162.417525 48.007782 
L 162.427825 16.676724 
L 162.497351 100.459659 
L 162.517951 99.501297 
L 162.785753 68.50198 
L 162.801203 16.713584 
L 162.870729 100.164778 
L 162.886179 99.648737 
L 163.172006 80.039181 
L 163.195182 16.676724 
L 163.264707 100.459659 
L 163.267282 100.422799 
L 163.300757 98.432355 
L 163.537659 70.676724 
L 163.555684 16.603003 
L 163.62521 100.680819 
L 163.638085 100.091058 
L 163.926488 83.282867 
L 163.952238 16.418703 
L 164.019188 100.496519 
L 164.021763 100.459659 
L 164.026913 100.496519 
L 164.047514 99.316997 
L 164.27669 87.337474 
L 164.351366 84.683549 
L 164.382266 78.233038 
L 164.402866 16.344983 
L 164.474967 100.385939 
L 164.477542 100.312218 
L 164.552218 95.041229 
L 164.740194 72.925188 
L 164.758219 16.529283 
L 164.827745 100.127918 
L 164.84062 99.759317 
L 165.165073 69.128601 
L 165.180523 16.787304 
L 165.250048 99.611877 
L 165.265499 99.095836 
L 165.517851 64.263072 
L 165.533301 17.008464 
L 165.602826 99.648737 
L 165.618276 99.022116 
L 165.888654 74.731331 
L 165.909254 16.824164 
L 165.978779 99.648737 
L 165.986504 99.501297 
L 166.303232 73.514949 
L 166.321257 16.529283 
L 166.390783 99.980478 
L 166.401083 99.869898 
L 166.470608 94.783208 
L 166.70751 69.497201 
L 166.725535 16.455563 
L 166.795061 99.906758 
L 166.807936 99.243276 
L 167.122089 69.497201 
L 167.140114 16.381843 
L 167.212214 99.796177 
L 167.222515 99.316997 
L 167.482592 67.543618 
L 167.498042 16.603003 
L 167.567567 99.575017 
L 167.583018 99.132696 
L 167.83022 73.183208 
L 167.848245 16.603003 
L 167.920345 99.390717 
L 167.92807 99.169556 
L 168.234498 75.284232 
L 168.255098 16.603003 
L 168.327199 99.280137 
L 168.332349 99.132696 
L 168.360674 97.215973 
L 168.587276 73.662389 
L 168.605301 17.045324 
L 168.677402 98.985256 
L 168.685127 98.911536 
L 168.759802 93.603686 
L 168.981254 71.119044 
L 168.999279 16.971604 
L 169.07138 99.353857 
L 169.079105 99.095836 
L 169.308282 84.83099 
L 169.326307 54.310853 
L 169.339182 16.787304 
L 169.411283 99.058976 
L 169.426733 98.506075 
L 169.70741 72.040546 
L 169.725435 16.492423 
L 169.797536 98.542935 
L 169.807836 98.211195 
L 170.067913 77.053515 
L 170.088513 17.155904 
L 170.160614 98.837816 
L 170.163189 98.837816 
L 170.240439 93.529966 
L 170.479916 71.745666 
L 170.497941 16.713584 
L 170.567467 98.690375 
L 170.577767 98.395495 
L 170.827544 82.914266 
L 170.850719 24.343618 
L 170.855869 17.045324 
L 170.925395 98.727235 
L 170.92797 98.764096 
L 170.951145 97.732014 
L 171.226672 70.787304 
L 171.244698 16.381843 
L 171.316798 98.616655 
L 171.327098 98.137474 
L 171.399199 92.940205 
L 171.587175 78.601638 
L 171.610351 16.639863 
L 171.679876 98.432355 
L 171.682451 98.395495 
L 171.713351 96.405051 
L 171.968279 71.745666 
L 171.986304 16.787304 
L 172.055829 98.395495 
L 172.066129 98.174334 
L 172.388007 80.444642 
L 172.413757 17.082184 
L 172.470408 97.252833 
L 172.488433 98.653515 
L 172.560533 93.529966 
L 172.807735 75.910853 
L 172.828336 16.676724 
L 172.900436 98.469215 
L 172.903011 98.432355 
L 172.908161 98.321775 
L 173.155363 78.749078 
L 173.178538 16.934744 
L 173.250639 98.395495 
L 173.284114 96.331331 
L 173.515866 68.391399 
L 173.533891 16.971604 
L 173.603417 97.805734 
L 173.616292 97.400273 
L 173.909844 68.76 
L 173.92787 17.155904 
L 173.997395 98.284915 
L 174.01027 98.063754 
L 174.267772 79.043959 
L 174.290948 16.861024 
L 174.363048 97.953174 
L 174.396523 96.036451 
L 174.607675 84.536109 
L 174.636 77.200956 
L 174.659176 17.119044 
L 174.731276 97.695154 
L 174.767327 95.59413 
L 175.032554 72.740887 
L 175.053154 17.008464 
L 175.122679 97.879454 
L 175.130404 97.768874 
L 175.387907 82.213925 
L 175.403357 66.843276 
L 175.418807 17.082184 
L 175.490907 98.026894 
L 175.503783 97.658294 
L 175.732959 78.564778 
L 175.756135 17.377065 
L 175.828235 97.400273 
L 175.838535 97.289693 
L 175.913211 92.055563 
L 176.085737 72.298567 
L 176.106338 17.487645 
L 176.175863 97.621433 
L 176.183588 97.547713 
L 176.253114 92.461024 
L 176.459115 70.492423 
L 176.477141 17.745666 
L 176.551816 97.215973 
L 176.556966 97.142253 
L 176.824768 80.960683 
L 176.845369 36.1757 
L 176.855669 17.856246 
L 176.925194 97.179113 
L 176.938069 96.994812 
L 177.203297 77.274676 
L 177.226472 17.561365 
L 177.298572 96.699932 
L 177.306297 96.589352 
L 177.56895 80.702662 
L 177.597275 17.598225 
L 177.6565 96.110171 
L 177.67195 97.031672 
L 177.736326 92.239863 
L 177.944903 63.45215 
L 177.960353 17.303345 
L 178.035028 97.068532 
L 178.045328 96.663072 
L 178.295105 72.888328 
L 178.315706 17.450785 
L 178.387806 96.552491 
L 178.392956 96.515631 
L 178.423857 94.598908 
L 178.696809 62.383208 
L 178.712259 17.671945 
L 178.784359 96.368191 
L 178.797235 96.110171 
L 179.028987 81.403003 
L 179.047012 53.094471 
L 179.059887 17.893106 
L 179.131987 96.589352 
L 179.147437 96.110171 
L 179.379189 78.343618 
L 179.40494 17.671945 
L 179.47189 96.441911 
L 179.47704 96.552491 
L 179.510515 94.525188 
L 179.747417 71.856246 
L 179.768018 17.450785 
L 179.842693 96.515631 
L 179.845268 96.441911 
L 179.914794 91.281502 
L 180.100195 75.505392 
L 180.12337 17.745666 
L 180.195471 95.96273 
L 180.272722 90.654881 
L 180.468423 63.34157 
L 180.483873 18.446007 
L 180.558549 96.110171 
L 180.568849 95.88901 
L 180.841801 79.52314 
L 180.870127 17.966826 
L 180.926777 94.488328 
L 180.947377 95.92587 
L 181.014328 90.61802 
L 181.210029 70.529283 
L 181.23063 18.261706 
L 181.30788 95.88901 
L 181.341355 93.898567 
L 181.578257 70.824164 
L 181.598858 18.446007 
L 181.668383 95.483549 
L 181.676108 95.409829 
L 181.681258 95.336109 
L 181.93876 76.316314 
L 181.961936 18.409147 
L 182.031461 95.336109 
L 182.039186 95.52041 
L 182.082962 92.829625 
L 182.288963 68.72314 
L 182.306988 18.740887 
L 182.381664 95.188669 
L 182.386814 95.151809 
L 182.420289 93.087645 
L 182.628866 77.385256 
L 182.654616 18.704027 
L 182.721567 94.930648 
L 182.731867 95.262389 
L 182.783367 91.797543 
L 183.05117 65.295154 
L 183.069195 18.224846 
L 183.146445 95.63099 
L 183.14902 95.59413 
L 183.177346 93.714266 
L 183.385922 66.474676 
L 183.403947 18.187986 
L 183.476048 95.372969 
L 183.483773 95.262389 
L 183.71295 80.776382 
L 183.730975 68.98116 
L 183.749 18.704027 
L 183.828826 95.078089 
L 183.913802 89.512218 
L 184.096628 67.101297 
L 184.114653 18.298567 
L 184.189329 95.262389 
L 184.194479 95.225529 
L 184.457131 79.3757 
L 184.475156 51.435768 
L 184.488031 18.335427 
L 184.565282 95.114949 
L 184.575582 94.783208 
L 184.797034 80.555222 
L 184.817634 72.851468 
L 184.840809 18.704027 
L 184.91291 94.856928 
L 184.92321 94.820068 
L 185.142087 80.776382 
L 185.162687 44.211195 
L 185.172987 18.630307 
L 185.250238 94.709488 
L 185.260538 94.304027 
L 185.500015 76.611195 
L 185.525765 18.519727 
L 185.592715 94.783208 
L 185.597865 94.967509 
L 185.641641 92.239863 
L 185.883693 64.336792 
L 185.901718 18.704027 
L 185.976394 94.930648 
L 185.981544 94.893788 
L 186.045919 89.917679 
L 186.223596 74.36273 
L 186.246771 18.224846 
L 186.318871 94.672628 
L 186.324021 94.672628 
L 186.553198 77.458976 
L 186.578948 18.888328 
L 186.645899 94.082867 
L 186.658774 94.488328 
L 186.710275 91.060341 
L 186.934301 72.740887 
L 186.957477 18.593447 
L 187.029577 94.672628 
L 187.032152 94.709488 
L 187.055327 93.566826 
L 187.279354 74.583891 
L 187.302529 18.998908 
L 187.37463 93.677406 
L 187.377205 93.824846 
L 187.43128 90.654881 
L 187.657882 74.21529 
L 187.681058 18.851468 
L 187.750583 94.267167 
L 187.760883 94.488328 
L 187.807234 91.502662 
L 188.023535 66.327235 
L 188.041561 18.667167 
L 188.118811 94.488328 
L 188.121386 94.414608 
L 188.324813 80.960683 
L 188.345413 73.883549 
L 188.368588 18.925188 
L 188.440689 93.824846 
L 188.443264 93.935427 
L 188.487039 91.355222 
L 188.708491 59.729283 
L 188.723941 19.072628 
L 188.801192 94.119727 
L 188.806342 94.082867 
L 188.883592 88.775017 
L 189.045819 66.253515 
L 189.063844 18.962048 
L 189.141095 93.677406 
L 189.14367 93.677406 
L 189.223495 88.222116 
L 189.377996 73.551809 
L 189.401172 19.220068 
L 189.473272 93.493106 
L 189.480997 93.640546 
L 189.524773 91.097201 
L 189.751375 59.544983 
L 189.766825 19.072628 
L 189.844075 93.898567 
L 189.8518 93.677406 
L 190.104152 78.749078 
L 190.124753 40.709488 
L 190.135053 18.925188 
L 190.212303 94.082867 
L 190.220028 93.898567 
L 190.454355 75.136792 
L 190.480106 19.035768 
L 190.549631 93.308805 
L 190.559931 93.493106 
L 190.601132 90.839181 
L 190.825158 64.521092 
L 190.843184 18.814608 
L 190.917859 106.947031 
L 191.080085 113.544983 
L 191.188236 116.678089 
L 191.499814 122.428259 
L 191.862892 126.040546 
L 191.886067 126.151126 
L 192.089494 127.514949 
L 192.102369 127.478089 
L 192.174469 127.809829 
L 192.177044 127.772969 
L 192.305796 128.39959 
L 192.308371 128.36273 
L 192.455147 128.878771 
L 192.496347 128.989352 
L 192.501497 128.952491 
L 192.637973 129.431672 
L 192.676599 129.542253 
L 192.81565 129.947713 
L 192.843975 129.910853 
L 192.90835 130.132014 
L 192.916076 130.095154 
L 192.972726 130.168874 
L 193.086027 130.390034 
L 193.013926 130.132014 
L 193.088602 130.316314 
L 193.186453 130.500614 
L 193.207053 130.463754 
L 193.217353 130.390034 
L 193.268853 130.574334 
L 193.310054 130.574334 
L 193.377004 130.648055 
L 193.46713 130.832355 
L 193.490305 130.795495 
L 193.495455 130.758635 
L 193.544381 130.979795 
L 193.593306 130.869215 
L 193.711757 131.127235 
L 193.719482 131.090375 
L 193.964109 131.164096 
L 194.038785 131.311536 
L 194.007884 131.090375 
L 194.074835 131.164096 
L 194.201011 131.237816 
L 194.288562 131.311536 
L 194.206161 131.164096 
L 194.311737 131.237816 
L 194.365812 131.200956 
L 194.350362 131.348396 
L 194.414738 131.348396 
L 194.860216 131.385256 
L 194.963217 131.495836 
L 194.865367 131.348396 
L 194.970942 131.385256 
L 195.027593 131.532696 
L 195.081668 131.385256 
L 195.385521 131.422116 
L 195.491097 131.532696 
L 195.496247 131.422116 
L 195.686798 131.385256 
L 195.794949 131.200956 
L 195.727999 131.422116 
L 195.797524 131.274676 
L 195.807824 131.274676 
L 195.810399 131.422116 
L 195.825849 131.200956 
L 195.915975 131.237816 
L 196.057601 131.200956 
L 196.132277 131.237816 
L 196.168327 131.090375 
L 196.261028 131.237816 
L 196.284203 131.200956 
L 196.374329 131.053515 
L 196.397504 131.127235 
L 196.479905 131.237816 
L 196.402654 131.090375 
L 196.510805 131.200956 
L 196.580331 131.090375 
L 196.608656 131.274676 
L 196.621531 131.164096 
L 197.007784 131.090375 
L 197.115935 130.979795 
L 197.11851 131.016655 
L 197.141685 131.090375 
L 197.172585 130.942935 
L 197.229236 131.016655 
L 197.486738 130.942935 
L 197.494463 130.979795 
L 197.600039 130.832355 
L 197.69274 130.721775 
L 197.798316 130.426894 
L 197.70304 130.758635 
L 197.818916 130.500614 
L 198.050668 130.426894 
L 198.161394 130.242594 
L 198.163969 130.353174 
L 198.274695 130.168874 
L 198.279845 130.205734 
L 198.295295 130.279454 
L 198.36997 130.058294 
L 198.387995 130.168874 
L 198.511596 129.984573 
L 198.941625 129.873993 
L 198.972525 129.984573 
L 199.054926 129.800273 
L 199.096126 129.910853 
L 199.121876 129.689693 
L 199.170802 129.873993 
L 199.224877 129.726553 
L 199.284103 129.837133 
L 199.345903 129.726553 
L 199.51328 128.805051 
L 199.374229 129.800273 
L 199.51843 128.841911 
L 199.667781 128.952491 
L 199.778507 129.026212 
L 199.724431 128.878771 
L 199.781082 128.989352 
L 199.876358 129.099932 
L 199.981934 129.173652 
L 199.902108 129.026212 
L 199.987084 129.099932 
L 200.028284 129.210512 
L 200.030859 129.284232 
L 200.11326 129.063072 
L 200.136435 129.210512 
L 200.249736 128.915631 
L 200.303811 129.099932 
L 200.365612 128.989352 
L 200.442862 128.915631 
L 200.411962 129.063072 
L 200.476338 128.989352 
L 200.79564 128.989352 
L 200.798215 128.805051 
L 200.906366 128.841911 
L 201.032542 128.768191 
L 201.132968 128.620751 
L 201.145843 128.657611 
L 201.228244 128.547031 
L 201.32352 128.436451 
L 201.248844 128.583891 
L 201.34412 128.473311 
L 201.351845 128.547031 
L 201.372445 128.36273 
L 201.454846 128.510171 
L 201.524371 128.28901 
L 201.459996 128.547031 
L 201.570722 128.36273 
L 201.784448 128.25215 
L 201.853974 128.14157 
L 201.895174 128.21529 
L 201.9853 128.03099 
L 201.905474 128.25215 
L 202.013625 128.10471 
L 202.121776 128.14157 
L 202.023925 128.03099 
L 202.124351 128.10471 
L 202.240227 127.99413 
L 202.242802 127.95727 
L 202.265977 128.14157 
L 202.348378 127.99413 
L 202.443654 128.10471 
L 202.361253 127.95727 
L 202.461679 128.03099 
L 202.518329 127.95727 
L 202.520904 127.883549 
L 202.608455 128.06785 
L 202.62648 127.99413 
L 202.659956 127.883549 
L 202.701156 127.772969 
L 202.677981 127.92041 
L 202.770681 127.883549 
L 202.842782 127.809829 
L 202.945783 127.736109 
L 202.873682 127.883549 
L 202.953508 127.809829 
L 203.038484 127.883549 
L 202.976683 127.736109 
L 203.066809 127.846689 
L 203.102859 127.883549 
L 203.18526 127.662389 
L 203.218735 127.809829 
L 203.295986 127.699249 
L 203.365511 127.625529 
L 203.435037 127.441229 
L 203.380961 127.662389 
L 203.478812 127.551809 
L 203.576663 127.588669 
L 203.501987 127.478089 
L 203.586963 127.551809 
L 203.705414 127.441229 
L 203.983516 127.404369 
L 204.112267 126.630307 
L 204.130293 126.519727 
L 204.266769 126.151126 
L 204.284794 126.077406 
L 204.38007 126.261706 
L 204.439295 126.151126 
L 204.475345 126.372287 
L 204.488221 126.298567 
L 204.524271 126.409147 
L 204.627272 126.482867 
L 204.529421 126.335427 
L 204.634997 126.409147 
L 204.784348 126.519727 
L 204.892499 126.667167 
L 204.804948 126.446007 
L 204.900224 126.593447 
L 205.368878 126.482867 
L 205.392053 126.409147 
L 205.384328 126.556587 
L 205.479604 126.482867 
L 205.482179 126.556587 
L 205.500204 126.372287 
L 205.587755 126.446007 
L 205.762856 126.335427 
L 205.786031 126.409147 
L 205.878732 126.224846 
L 205.904482 126.298567 
L 205.896757 126.151126 
L 205.984308 126.187986 
L 206.053833 126.114266 
L 206.069284 126.261706 
L 206.095034 126.151126 
L 206.198035 126.261706 
L 206.20576 126.187986 
L 206.22121 126.298567 
L 206.319061 126.372287 
L 206.228935 126.224846 
L 206.334511 126.335427 
L 206.344811 126.298567 
L 206.427211 126.482867 
L 206.437512 126.446007 
L 207.199718 126.372287 
L 207.279543 126.446007 
L 207.310444 126.298567 
L 207.325894 126.261706 
L 207.42117 126.409147 
L 207.534471 126.261706 
L 207.642621 126.335427 
L 207.567946 126.224846 
L 207.645196 126.298567 
L 207.722447 126.224846 
L 207.740472 126.409147 
L 207.750772 126.335427 
L 207.766222 126.372287 
L 207.786823 126.224846 
L 207.856348 126.298567 
L 207.884673 126.187986 
L 207.866648 126.335427 
L 207.969649 126.261706 
L 208.070075 126.372287 
L 207.987674 126.224846 
L 208.08295 126.335427 
L 208.247751 126.261706 
L 208.361052 126.077406 
L 208.363627 126.114266 
L 208.443453 126.003686 
L 208.536154 125.893106 
L 208.451178 126.077406 
L 208.554179 125.966826 
L 208.567054 125.893106 
L 208.670055 126.077406 
L 208.73958 125.893106 
L 208.783356 125.966826 
L 208.940432 125.856246 
L 208.997083 125.893106 
L 209.058883 125.745666 
L 209.118109 125.708805 
L 209.169609 125.856246 
L 209.280335 125.671945 
L 209.28291 125.745666 
L 209.33956 125.782526 
L 209.375611 125.635085 
L 209.388486 125.671945 
L 209.398786 125.745666 
L 209.506937 125.561365 
L 209.558437 125.487645 
L 209.612513 125.377065 
L 209.615088 125.524505 
L 209.671738 125.413925 
L 209.694913 125.450785 
L 209.723239 125.303345 
L 209.777314 125.340205 
L 209.810789 125.413925 
L 209.900915 125.487645 
L 209.906065 125.340205 
L 209.91894 125.377065 
L 209.96529 125.487645 
L 210.032241 125.340205 
L 210.215068 125.266485 
L 210.297468 125.082184 
L 210.240818 125.303345 
L 210.328368 125.192765 
L 210.348969 125.082184 
L 210.418494 124.934744 
L 210.408194 125.119044 
L 210.459695 125.008464 
L 210.48802 125.045324 
L 210.469995 124.934744 
L 210.567845 125.008464 
L 210.670846 124.897884 
L 210.634796 125.045324 
L 210.683721 124.934744 
L 210.861398 124.861024 
L 210.961824 124.676724 
L 210.977274 124.713584 
L 211.033924 124.824164 
L 211.06225 124.676724 
L 211.085425 124.713584 
L 211.136925 124.603003 
L 211.172975 124.750444 
L 211.198726 124.676724 
L 211.216751 124.639863 
L 211.317177 124.787304 
L 211.363527 124.676724 
L 211.422752 124.603003 
L 211.373827 124.750444 
L 211.474253 124.676724 
L 211.582404 124.787304 
L 211.587554 124.750444 
L 211.69313 124.676724 
L 211.592704 124.787304 
L 211.69828 124.750444 
L 212.272509 124.676724 
L 212.38066 124.160683 
L 212.398685 124.197543 
L 212.620137 124.123823 
L 212.622712 124.050102 
L 212.630437 124.234403 
L 212.728288 124.160683 
L 212.764338 124.271263 
L 212.841589 124.197543 
L 212.97549 124.086962 
L 213.029566 124.050102 
L 212.983215 124.160683 
L 213.081066 124.160683 
L 213.500795 124.050102 
L 213.61152 123.902662 
L 213.614095 123.939522 
L 213.740271 124.013242 
L 213.845847 124.123823 
L 213.850997 124.013242 
L 213.915373 124.123823 
L 213.923098 123.976382 
L 213.964298 124.050102 
L 214.1806 123.976382 
L 214.203775 123.902662 
L 214.229526 124.086962 
L 214.286176 124.086962 
L 214.378877 124.160683 
L 214.317076 124.013242 
L 214.399477 124.123823 
L 214.520503 124.013242 
L 214.631229 123.902662 
L 214.551403 124.086962 
L 214.633804 123.939522 
L 214.636379 124.013242 
L 214.711054 123.828942 
L 214.74453 123.976382 
L 214.857831 123.718362 
L 214.883581 123.792082 
L 214.927356 123.607782 
L 214.968557 123.718362 
L 215.063832 123.460341 
L 215.084433 123.534061 
L 215.087008 123.570922 
L 215.102458 123.423481 
L 215.190008 123.460341 
L 215.751363 123.349761 
L 215.849214 123.276041 
L 215.759088 123.423481 
L 215.862089 123.349761 
L 216.029465 123.239181 
L 216.04234 123.312901 
L 216.142766 123.202321 
L 216.150491 123.128601 
L 216.250917 123.239181 
L 216.361643 123.091741 
L 216.364218 123.128601 
L 216.420868 123.01802 
L 216.377093 123.165461 
L 216.480094 123.054881 
L 216.562495 123.128601 
L 216.508419 123.01802 
L 216.588245 123.01802 
L 216.817422 122.90744 
L 216.928148 122.76 
L 216.822572 122.9443 
L 216.933298 122.83372 
L 217.018273 122.87058 
L 216.961623 122.72314 
L 217.044024 122.83372 
L 217.301526 122.72314 
L 217.304101 122.68628 
L 217.332426 122.83372 
L 217.407102 122.79686 
L 217.618253 122.68628 
L 217.620828 122.64942 
L 217.656879 122.83372 
L 217.718679 122.83372 
L 217.909231 122.76 
L 217.911806 122.68628 
L 217.989056 122.87058 
L 218.017382 122.72314 
L 218.048282 122.83372 
L 218.086907 122.64942 
L 218.128108 122.76 
L 218.233683 122.83372 
L 218.151283 122.64942 
L 218.238833 122.76 
L 218.684312 122.64942 
L 218.689462 122.61256 
L 218.725512 122.79686 
L 218.792463 122.68628 
L 218.874864 122.61256 
L 218.975289 122.465119 
L 218.895464 122.72314 
L 218.988165 122.50198 
L 219.003615 122.53884 
L 219.06799 122.317679 
L 219.09374 122.428259 
L 219.158116 122.280819 
L 219.204466 122.391399 
L 219.237942 122.465119 
L 219.299742 122.207099 
L 219.304892 122.317679 
L 219.338367 122.170239 
L 219.418193 122.243959 
L 219.472269 122.280819 
L 219.487719 122.133379 
L 219.523769 122.170239 
L 219.876547 122.096519 
L 219.938347 121.985939 
L 219.889422 122.133379 
L 219.987273 122.096519 
L 220.097999 122.059659 
L 220.203575 121.912218 
L 220.180399 122.096519 
L 220.208725 121.949078 
L 220.2628 121.838498 
L 220.319451 122.022799 
L 220.422451 121.875358 
L 220.432751 121.949078 
L 220.546052 121.838498 
L 220.548627 121.875358 
L 220.891105 121.985939 
L 220.901405 122.022799 
L 220.986381 121.875358 
L 220.999256 121.949078 
L 221.872188 122.059659 
L 221.885063 121.949078 
L 221.982914 122.096519 
L 222.09879 121.949078 
L 222.206941 121.875358 
L 222.127115 122.022799 
L 222.212091 121.912218 
L 222.217241 121.838498 
L 222.322817 121.949078 
L 222.338267 121.985939 
L 222.443843 121.801638 
L 222.474743 121.912218 
L 222.497918 121.764778 
L 222.551994 121.764778 
L 222.582894 121.838498 
L 222.654995 121.949078 
L 222.69362 121.875358 
L 223.121074 121.949078 
L 223.133949 122.022799 
L 223.164849 121.838498 
L 223.229224 121.875358 
L 223.404326 121.985939 
L 223.412051 121.949078 
L 223.517627 122.059659 
L 223.623203 121.912218 
L 223.630928 121.949078 
L 223.682428 122.022799 
L 223.651528 121.875358 
L 223.741654 121.949078 
L 223.754529 121.875358 
L 223.793154 122.022799 
L 223.849804 121.985939 
L 223.952805 122.022799 
L 223.885855 121.912218 
L 223.957955 121.949078 
L 224.107307 121.912218 
L 224.176832 121.727918 
L 224.120182 121.949078 
L 224.220608 121.764778 
L 224.447209 121.875358 
L 224.449784 121.912218 
L 224.48326 121.764778 
L 224.55021 121.838498 
L 224.573385 121.764778 
L 224.588836 121.875358 
L 224.658361 121.838498 
L 224.740762 122.022799 
L 224.774237 121.912218 
L 224.797412 122.022799 
L 224.882388 121.949078 
L 224.908138 122.133379 
L 225.008564 121.985939 
L 224.915863 122.170239 
L 225.021439 122.022799 
L 225.121865 122.133379 
L 225.049764 121.985939 
L 225.12959 122.022799 
L 225.193966 121.985939 
L 225.232591 122.133379 
L 225.235166 122.096519 
L 225.567344 121.985939 
L 225.577644 122.096519 
L 225.67807 121.912218 
L 225.77592 122.133379 
L 225.793945 122.059659 
L 225.866046 121.912218 
L 225.806821 122.096519 
L 225.907246 121.985939 
L 226.211099 122.059659 
L 226.213674 122.133379 
L 226.280624 121.985939 
L 226.321825 122.059659 
L 226.422251 121.949078 
L 226.383625 122.133379 
L 226.432551 122.059659 
L 226.581902 121.949078 
L 226.687478 121.875358 
L 226.617952 122.059659 
L 226.690053 121.949078 
L 226.713228 121.875358 
L 226.803354 122.022799 
L 226.916655 121.912218 
L 227.01193 122.059659 
L 227.035106 122.022799 
L 227.120081 121.949078 
L 227.099481 122.059659 
L 227.143257 122.022799 
L 227.145832 122.059659 
L 227.205057 121.875358 
L 227.243682 121.912218 
L 227.297758 121.764778 
L 227.248832 121.949078 
L 227.354408 121.875358 
L 227.372433 121.764778 
L 227.52951 121.101297 
L 227.632511 121.211877 
L 227.753537 121.433038 
L 227.642811 121.175017 
L 227.756112 121.396177 
L 227.820487 121.469898 
L 227.918338 121.617338 
L 227.825637 121.433038 
L 227.933788 121.580478 
L 228.023914 121.617338 
L 228.13464 121.727918 
L 228.237641 121.617338 
L 228.152665 121.764778 
L 228.247941 121.691058 
L 228.291716 121.691058 
L 228.294291 121.543618 
L 228.343216 121.801638 
L 228.402442 121.654198 
L 228.538918 121.691058 
L 228.541493 121.801638 
L 228.562093 121.617338 
L 228.649644 121.727918 
L 228.907146 121.617338 
L 228.979247 121.543618 
L 228.930321 121.727918 
L 229.015297 121.654198 
L 229.030747 121.543618 
L 229.126023 121.727918 
L 229.167223 121.506758 
L 229.241899 121.580478 
L 229.298549 121.506758 
L 229.316574 121.654198 
L 229.352625 121.580478 
L 229.40155 121.654198 
L 229.388675 121.506758 
L 229.460776 121.543618 
L 229.527726 121.617338 
L 229.571501 121.469898 
L 229.586952 121.580478 
L 229.581802 121.433038 
L 229.682227 121.469898 
L 229.919129 121.359317 
L 229.988655 121.175017 
L 230.040155 121.211877 
L 230.150881 121.359317 
L 230.156031 121.322457 
L 230.264182 121.211877 
L 230.168906 121.359317 
L 230.269332 121.248737 
L 230.302807 121.211877 
L 230.385208 121.396177 
L 230.413533 121.322457 
L 230.457309 121.543618 
L 230.488209 121.469898 
L 230.583485 121.617338 
L 230.498509 121.433038 
L 230.604085 121.543618 
L 231.054714 121.654198 
L 231.178315 121.875358 
L 231.265865 121.801638 
L 231.281316 121.985939 
L 231.286466 121.912218 
L 231.435817 121.985939 
L 231.546543 122.096519 
L 231.549118 122.059659 
L 231.703619 121.949078 
L 231.783445 122.059659 
L 231.814345 121.912218 
L 231.912196 122.022799 
L 231.925071 121.949078 
L 232.017772 121.801638 
L 231.943096 121.985939 
L 232.040947 121.838498 
L 232.058972 121.949078 
L 232.100172 121.801638 
L 232.151673 121.912218 
L 232.156823 121.949078 
L 232.267549 121.764778 
L 232.470975 121.654198 
L 232.553376 121.506758 
L 232.584276 121.543618 
L 232.746503 121.469898 
L 232.813453 121.396177 
L 232.769678 121.543618 
L 232.857228 121.433038 
L 232.955079 121.543618 
L 232.973104 121.506758 
L 233.08898 121.322457 
L 233.145631 121.469898 
L 233.197131 121.359317 
L 233.294982 121.285597 
L 233.287257 121.433038 
L 233.305282 121.359317 
L 233.331032 121.433038 
L 233.377383 121.248737 
L 233.410858 121.322457 
L 233.513859 121.211877 
L 233.418583 121.359317 
L 233.521584 121.248737 
L 233.529309 121.322457 
L 233.609135 121.175017 
L 233.629735 121.211877 
L 234.010838 121.101297 
L 234.121564 120.990717 
L 234.015988 121.138157 
L 234.124139 121.027577 
L 234.175639 121.138157 
L 234.139589 120.990717 
L 234.234865 121.027577 
L 234.512967 120.916997 
L 234.543867 120.806416 
L 234.567042 120.990717 
L 234.623693 120.916997 
L 234.664893 120.953857 
L 234.718969 120.806416 
L 234.731844 120.880137 
L 235.094922 120.806416 
L 235.185048 120.658976 
L 235.107797 120.843276 
L 235.205648 120.732696 
L 235.223673 120.806416 
L 235.241698 120.658976 
L 235.316374 120.732696 
L 235.633101 120.658976 
L 235.741252 120.548396 
L 235.689752 120.695836 
L 235.743827 120.585256 
L 235.849403 120.511536 
L 235.957554 120.364096 
L 235.962704 120.400956 
L 236.003904 120.327235 
L 236.112055 120.179795 
L 236.117205 120.216655 
L 236.207331 120.179795 
L 236.230506 120.290375 
L 236.766111 120.179795 
L 236.825336 120.106075 
L 236.856236 120.253515 
L 236.879411 120.142935 
L 237.075113 120.069215 
L 237.167814 119.958635 
L 237.136914 120.106075 
L 237.188414 119.995495 
L 237.512867 119.884915 
L 237.559217 119.811195 
L 237.554067 119.958635 
L 237.623593 119.884915 
L 237.97122 119.995495 
L 238.076796 120.032355 
L 237.999546 119.921775 
L 238.081946 119.995495 
L 238.594376 119.884915 
L 238.687076 119.774334 
L 238.638151 119.958635 
L 238.707676 119.811195 
L 238.790077 119.921775 
L 238.818402 119.884915 
L 238.882778 119.811195 
L 238.851878 119.958635 
L 238.929128 119.884915 
L 238.947153 119.848055 
L 239.042429 120.032355 
L 239.117105 120.106075 
L 239.15573 119.921775 
L 239.194355 120.069215 
L 239.222681 119.884915 
L 239.269031 120.032355 
L 239.279331 119.958635 
L 239.359157 120.106075 
L 239.377182 120.069215 
L 239.495633 120.179795 
L 239.521383 120.216655 
L 239.505933 120.106075 
L 239.601209 120.106075 
L 239.910211 120.216655 
L 239.915361 120.106075 
L 240.026087 120.327235 
L 240.082738 120.179795 
L 240.139388 120.290375 
L 240.232089 120.216655 
L 240.322215 120.142935 
L 240.29389 120.290375 
L 240.34024 120.216655 
L 240.432941 120.327235 
L 240.35054 120.179795 
L 240.450966 120.216655 
L 240.703318 120.327235 
L 240.816619 120.437816 
L 240.839794 120.511536 
L 240.927345 120.364096 
L 241.00717 120.511536 
L 241.040646 120.474676 
L 241.462949 120.585256 
L 241.470674 120.548396 
L 241.583975 120.769556 
L 241.653501 120.695836 
L 241.686976 120.843276 
L 241.689551 120.843276 
L 241.753926 120.953857 
L 241.764227 120.990717 
L 241.833752 120.769556 
L 241.854352 120.843276 
L 241.941903 120.806416 
L 241.864652 120.916997 
L 241.965078 120.843276 
L 242.544458 120.953857 
L 242.601108 120.990717 
L 242.572783 120.880137 
L 242.650034 120.880137 
L 242.758185 120.990717 
L 242.76591 120.916997 
L 242.871486 121.101297 
L 242.979637 120.953857 
L 242.935861 121.138157 
L 242.982212 120.990717 
L 243.092937 121.175017 
L 243.103238 121.138157 
L 243.170188 121.027577 
L 243.201088 121.101297 
L 243.283489 120.990717 
L 243.404515 121.138157 
L 243.430265 120.990717 
L 243.517816 121.101297 
L 243.577041 121.175017 
L 243.610517 121.248737 
L 243.667167 121.101297 
L 243.687767 121.175017 
L 243.752143 121.101297 
L 243.710943 121.248737 
L 243.795918 121.248737 
L 243.914369 121.101297 
L 244.02767 121.211877 
L 244.030245 121.175017 
L 244.259422 121.248737 
L 244.321223 121.359317 
L 244.305772 121.211877 
L 244.370148 121.248737 
L 244.467999 121.359317 
L 244.475724 121.175017 
L 244.478299 121.211877 
L 244.61735 121.138157 
L 244.730651 120.732696 
L 244.6328 121.175017 
L 244.740951 120.769556 
L 244.797601 120.695836 
L 244.913477 120.511536 
L 244.988153 120.622116 
L 245.019053 120.437816 
L 245.021628 120.474676 
L 245.304881 120.400956 
L 245.374406 120.179795 
L 245.418182 120.253515 
L 246.041337 120.364096 
L 246.054212 120.327235 
L 246.159788 120.474676 
L 246.329739 120.585256 
L 246.355489 120.695836 
L 246.409565 120.511536 
L 246.43789 120.548396 
L 246.718567 120.658976 
L 246.818993 120.732696 
L 246.800968 120.585256 
L 246.831868 120.695836 
L 247.00697 120.769556 
L 247.03787 120.916997 
L 247.120271 120.843276 
L 247.187221 120.732696 
L 247.194946 120.695836 
L 247.274772 120.916997 
L 247.290222 120.843276 
L 247.357172 120.916997 
L 247.310822 120.806416 
L 247.403523 120.880137 
L 247.498799 120.990717 
L 247.516824 120.843276 
L 247.62755 121.064437 
L 247.630125 120.953857 
L 247.841276 120.843276 
L 247.872177 120.916997 
L 247.957152 120.769556 
L 248.011228 120.695836 
L 248.067878 120.806416 
L 248.111654 120.732696 
L 248.093629 120.916997 
L 248.176029 120.843276 
L 248.317655 120.769556 
L 248.335681 120.843276 
L 248.430956 120.695836 
L 248.479882 120.843276 
L 248.497907 120.658976 
L 248.541682 120.769556 
L 248.652408 120.658976 
L 248.654983 120.695836 
L 248.881585 120.585256 
L 248.982011 120.437816 
L 248.943386 120.658976 
L 249.000036 120.474676 
L 249.303888 120.474676 
L 249.383714 117.894471 
L 249.45324 118.189352 
L 249.612891 118.926553 
L 249.618041 118.852833 
L 249.713317 119.110853 
L 249.718467 119.037133 
L 249.818893 119.332014 
L 249.831768 119.258294 
L 249.844643 119.221433 
L 249.906443 119.442594 
L 249.932194 119.332014 
L 250.040345 119.479454 
L 250.045495 119.442594 
L 250.187121 119.553174 
L 250.212871 119.516314 
L 250.302997 119.663754 
L 250.387972 119.553174 
L 250.369947 119.700614 
L 250.413723 119.626894 
L 250.539899 119.553174 
L 250.640324 119.405734 
L 250.588824 119.590034 
L 250.6532 119.442594 
L 250.7253 119.516314 
L 250.72015 119.368874 
L 250.76135 119.405734 
L 251.27893 119.332014 
L 251.37163 119.221433 
L 251.30468 119.368874 
L 251.389656 119.295154 
L 251.477206 119.405734 
L 251.564757 119.626894 
L 251.484931 119.368874 
L 251.595657 119.553174 
L 251.685783 119.405734 
L 251.706383 119.553174 
L 251.842859 119.626894 
L 251.958735 119.848055 
L 252.051436 119.737474 
L 252.072036 119.774334 
L 252.182762 119.884915 
L 252.110662 119.737474 
L 252.185337 119.848055 
L 252.205937 119.921775 
L 252.298638 119.737474 
L 252.386189 119.884915 
L 252.409364 119.811195 
L 252.51494 119.700614 
L 252.52524 119.737474 
L 253.20247 119.737474 
L 253.282296 119.553174 
L 253.313196 119.663754 
L 253.673699 119.553174 
L 253.779275 119.516314 
L 253.696875 119.700614 
L 253.784425 119.553174 
L 253.828201 119.479454 
L 253.897726 119.590034 
L 254.237629 119.700614 
L 254.283979 119.590034 
L 254.35093 119.774334 
L 254.41273 119.848055 
L 254.456506 119.700614 
L 254.484831 119.884915 
L 254.567232 119.774334 
L 254.672808 119.921775 
L 254.677958 119.848055 
L 254.680533 119.774334 
L 254.685683 119.921775 
L 254.721733 119.921775 
" clip-path="url(#pab30fa6802)" style="fill: none; stroke: #000000; stroke-opacity: 0.5; stroke-width: 1.5; stroke-linecap: square"/>
   </g>
   <g id="patch_3">
    <path d="M 41.667188 173.52 
L 41.667188 7.2 
" style="fill: none; stroke: #000000; stroke-width: 0.8; stroke-linejoin: miter; stroke-linecap: square"/>
   </g>
   <g id="patch_4">
    <path d="M 41.667188 173.52 
L 264.867187 173.52 
" style="fill: none; stroke: #000000; stroke-width: 0.8; stroke-linejoin: miter; stroke-linecap: square"/>
   </g>
  </g>
 </g>
 <defs>
  <clipPath id="pab30fa6802">
   <rect x="41.667188" y="7.2" width="223.2" height="166.32"/>
  </clipPath>
 </defs>
</svg>
