<?xml version="1.0" encoding="utf-8" standalone="no"?>
<!DOCTYPE svg PUBLIC "-//W3C//DTD SVG 1.1//EN"
  "http://www.w3.org/Graphics/SVG/1.1/DTD/svg11.dtd">
<svg height="345.6pt" version="1.1" viewBox="0 0 460.8 345.6" width="460.8pt" xmlns="http://www.w3.org/2000/svg" xmlns:xlink="http://www.w3.org/1999/xlink">
 <metadata>
  <rdf:RDF xmlns:cc="http://creativecommons.org/ns#" xmlns:dc="http://purl.org/dc/elements/1.1/" xmlns:rdf="http://www.w3.org/1999/02/22-rdf-syntax-ns#">
   <cc:Work>
    <dc:type rdf:resource="http://purl.org/dc/dcmitype/StillImage"/>
    <dc:date>2024-08-06T14:41:14.741858</dc:date>
    <dc:format>image/svg+xml</dc:format>
    <dc:creator>
     <cc:Agent>
      <dc:title>Matplotlib v3.4.2, https://matplotlib.org/</dc:title>
     </cc:Agent>
    </dc:creator>
   </cc:Work>
  </rdf:RDF>
 </metadata>
 <defs>
  <style type="text/css">*{stroke-linecap:butt;stroke-linejoin:round;}</style>
 </defs>
 <g id="figure_1">
  <g id="patch_1">
   <path d="M 0 345.6 
L 460.8 345.6 
L 460.8 0 
L 0 0 
z
" style="fill:#ffffff;"/>
  </g>
  <g id="axes_1">
   <g id="patch_2">
    <path d="M 57.6 307.584 
L 414.72 307.584 
L 414.72 41.472 
L 57.6 41.472 
z
" style="fill:#ffffff;"/>
   </g>
   <g id="matplotlib.axis_1">
    <g id="xtick_1">
     <g id="line2d_1">
      <defs>
       <path d="M 0 0 
L 0 3.5 
" id="m23c6f0a8e2" style="stroke:#000000;stroke-width:0.8;"/>
      </defs>
      <g>
       <use style="stroke:#000000;stroke-width:0.8;" x="95.211629" xlink:href="#m23c6f0a8e2" y="307.584"/>
      </g>
     </g>
     <g id="text_1">
      <!-- 0.2 -->
      <g transform="translate(87.260067 322.182437)scale(0.1 -0.1)">
       <defs>
        <path d="M 2034 4250 
Q 1547 4250 1301 3770 
Q 1056 3291 1056 2328 
Q 1056 1369 1301 889 
Q 1547 409 2034 409 
Q 2525 409 2770 889 
Q 3016 1369 3016 2328 
Q 3016 3291 2770 3770 
Q 2525 4250 2034 4250 
z
M 2034 4750 
Q 2819 4750 3233 4129 
Q 3647 3509 3647 2328 
Q 3647 1150 3233 529 
Q 2819 -91 2034 -91 
Q 1250 -91 836 529 
Q 422 1150 422 2328 
Q 422 3509 836 4129 
Q 1250 4750 2034 4750 
z
" id="DejaVuSans-30" transform="scale(0.015625)"/>
        <path d="M 684 794 
L 1344 794 
L 1344 0 
L 684 0 
L 684 794 
z
" id="DejaVuSans-2e" transform="scale(0.015625)"/>
        <path d="M 1228 531 
L 3431 531 
L 3431 0 
L 469 0 
L 469 531 
Q 828 903 1448 1529 
Q 2069 2156 2228 2338 
Q 2531 2678 2651 2914 
Q 2772 3150 2772 3378 
Q 2772 3750 2511 3984 
Q 2250 4219 1831 4219 
Q 1534 4219 1204 4116 
Q 875 4013 500 3803 
L 500 4441 
Q 881 4594 1212 4672 
Q 1544 4750 1819 4750 
Q 2544 4750 2975 4387 
Q 3406 4025 3406 3419 
Q 3406 3131 3298 2873 
Q 3191 2616 2906 2266 
Q 2828 2175 2409 1742 
Q 1991 1309 1228 531 
z
" id="DejaVuSans-32" transform="scale(0.015625)"/>
       </defs>
       <use xlink:href="#DejaVuSans-30"/>
       <use x="63.623047" xlink:href="#DejaVuSans-2e"/>
       <use x="95.410156" xlink:href="#DejaVuSans-32"/>
      </g>
     </g>
    </g>
    <g id="xtick_2">
     <g id="line2d_2">
      <g>
       <use style="stroke:#000000;stroke-width:0.8;" x="139.20545" xlink:href="#m23c6f0a8e2" y="307.584"/>
      </g>
     </g>
     <g id="text_2">
      <!-- 0.4 -->
      <g transform="translate(131.253887 322.182437)scale(0.1 -0.1)">
       <defs>
        <path d="M 2419 4116 
L 825 1625 
L 2419 1625 
L 2419 4116 
z
M 2253 4666 
L 3047 4666 
L 3047 1625 
L 3713 1625 
L 3713 1100 
L 3047 1100 
L 3047 0 
L 2419 0 
L 2419 1100 
L 313 1100 
L 313 1709 
L 2253 4666 
z
" id="DejaVuSans-34" transform="scale(0.015625)"/>
       </defs>
       <use xlink:href="#DejaVuSans-30"/>
       <use x="63.623047" xlink:href="#DejaVuSans-2e"/>
       <use x="95.410156" xlink:href="#DejaVuSans-34"/>
      </g>
     </g>
    </g>
    <g id="xtick_3">
     <g id="line2d_3">
      <g>
       <use style="stroke:#000000;stroke-width:0.8;" x="183.19927" xlink:href="#m23c6f0a8e2" y="307.584"/>
      </g>
     </g>
     <g id="text_3">
      <!-- 0.6 -->
      <g transform="translate(175.247707 322.182437)scale(0.1 -0.1)">
       <defs>
        <path d="M 2113 2584 
Q 1688 2584 1439 2293 
Q 1191 2003 1191 1497 
Q 1191 994 1439 701 
Q 1688 409 2113 409 
Q 2538 409 2786 701 
Q 3034 994 3034 1497 
Q 3034 2003 2786 2293 
Q 2538 2584 2113 2584 
z
M 3366 4563 
L 3366 3988 
Q 3128 4100 2886 4159 
Q 2644 4219 2406 4219 
Q 1781 4219 1451 3797 
Q 1122 3375 1075 2522 
Q 1259 2794 1537 2939 
Q 1816 3084 2150 3084 
Q 2853 3084 3261 2657 
Q 3669 2231 3669 1497 
Q 3669 778 3244 343 
Q 2819 -91 2113 -91 
Q 1303 -91 875 529 
Q 447 1150 447 2328 
Q 447 3434 972 4092 
Q 1497 4750 2381 4750 
Q 2619 4750 2861 4703 
Q 3103 4656 3366 4563 
z
" id="DejaVuSans-36" transform="scale(0.015625)"/>
       </defs>
       <use xlink:href="#DejaVuSans-30"/>
       <use x="63.623047" xlink:href="#DejaVuSans-2e"/>
       <use x="95.410156" xlink:href="#DejaVuSans-36"/>
      </g>
     </g>
    </g>
    <g id="xtick_4">
     <g id="line2d_4">
      <g>
       <use style="stroke:#000000;stroke-width:0.8;" x="227.19309" xlink:href="#m23c6f0a8e2" y="307.584"/>
      </g>
     </g>
     <g id="text_4">
      <!-- 0.8 -->
      <g transform="translate(219.241528 322.182437)scale(0.1 -0.1)">
       <defs>
        <path d="M 2034 2216 
Q 1584 2216 1326 1975 
Q 1069 1734 1069 1313 
Q 1069 891 1326 650 
Q 1584 409 2034 409 
Q 2484 409 2743 651 
Q 3003 894 3003 1313 
Q 3003 1734 2745 1975 
Q 2488 2216 2034 2216 
z
M 1403 2484 
Q 997 2584 770 2862 
Q 544 3141 544 3541 
Q 544 4100 942 4425 
Q 1341 4750 2034 4750 
Q 2731 4750 3128 4425 
Q 3525 4100 3525 3541 
Q 3525 3141 3298 2862 
Q 3072 2584 2669 2484 
Q 3125 2378 3379 2068 
Q 3634 1759 3634 1313 
Q 3634 634 3220 271 
Q 2806 -91 2034 -91 
Q 1263 -91 848 271 
Q 434 634 434 1313 
Q 434 1759 690 2068 
Q 947 2378 1403 2484 
z
M 1172 3481 
Q 1172 3119 1398 2916 
Q 1625 2713 2034 2713 
Q 2441 2713 2670 2916 
Q 2900 3119 2900 3481 
Q 2900 3844 2670 4047 
Q 2441 4250 2034 4250 
Q 1625 4250 1398 4047 
Q 1172 3844 1172 3481 
z
" id="DejaVuSans-38" transform="scale(0.015625)"/>
       </defs>
       <use xlink:href="#DejaVuSans-30"/>
       <use x="63.623047" xlink:href="#DejaVuSans-2e"/>
       <use x="95.410156" xlink:href="#DejaVuSans-38"/>
      </g>
     </g>
    </g>
    <g id="xtick_5">
     <g id="line2d_5">
      <g>
       <use style="stroke:#000000;stroke-width:0.8;" x="271.18691" xlink:href="#m23c6f0a8e2" y="307.584"/>
      </g>
     </g>
     <g id="text_5">
      <!-- 1.0 -->
      <g transform="translate(263.235348 322.182437)scale(0.1 -0.1)">
       <defs>
        <path d="M 794 531 
L 1825 531 
L 1825 4091 
L 703 3866 
L 703 4441 
L 1819 4666 
L 2450 4666 
L 2450 531 
L 3481 531 
L 3481 0 
L 794 0 
L 794 531 
z
" id="DejaVuSans-31" transform="scale(0.015625)"/>
       </defs>
       <use xlink:href="#DejaVuSans-31"/>
       <use x="63.623047" xlink:href="#DejaVuSans-2e"/>
       <use x="95.410156" xlink:href="#DejaVuSans-30"/>
      </g>
     </g>
    </g>
    <g id="xtick_6">
     <g id="line2d_6">
      <g>
       <use style="stroke:#000000;stroke-width:0.8;" x="315.18073" xlink:href="#m23c6f0a8e2" y="307.584"/>
      </g>
     </g>
     <g id="text_6">
      <!-- 1.2 -->
      <g transform="translate(307.229168 322.182437)scale(0.1 -0.1)">
       <use xlink:href="#DejaVuSans-31"/>
       <use x="63.623047" xlink:href="#DejaVuSans-2e"/>
       <use x="95.410156" xlink:href="#DejaVuSans-32"/>
      </g>
     </g>
    </g>
    <g id="xtick_7">
     <g id="line2d_7">
      <g>
       <use style="stroke:#000000;stroke-width:0.8;" x="359.174551" xlink:href="#m23c6f0a8e2" y="307.584"/>
      </g>
     </g>
     <g id="text_7">
      <!-- 1.4 -->
      <g transform="translate(351.222988 322.182437)scale(0.1 -0.1)">
       <use xlink:href="#DejaVuSans-31"/>
       <use x="63.623047" xlink:href="#DejaVuSans-2e"/>
       <use x="95.410156" xlink:href="#DejaVuSans-34"/>
      </g>
     </g>
    </g>
    <g id="xtick_8">
     <g id="line2d_8">
      <g>
       <use style="stroke:#000000;stroke-width:0.8;" x="403.168371" xlink:href="#m23c6f0a8e2" y="307.584"/>
      </g>
     </g>
     <g id="text_8">
      <!-- 1.6 -->
      <g transform="translate(395.216808 322.182437)scale(0.1 -0.1)">
       <use xlink:href="#DejaVuSans-31"/>
       <use x="63.623047" xlink:href="#DejaVuSans-2e"/>
       <use x="95.410156" xlink:href="#DejaVuSans-36"/>
      </g>
     </g>
    </g>
   </g>
   <g id="matplotlib.axis_2">
    <g id="ytick_1">
     <g id="line2d_9">
      <defs>
       <path d="M 0 0 
L -3.5 0 
" id="m54377b1a4c" style="stroke:#000000;stroke-width:0.8;"/>
      </defs>
      <g>
       <use style="stroke:#000000;stroke-width:0.8;" x="57.6" xlink:href="#m54377b1a4c" y="305.78574"/>
      </g>
     </g>
     <g id="text_9">
      <!-- −100 -->
      <g transform="translate(23.132812 309.584959)scale(0.1 -0.1)">
       <defs>
        <path d="M 678 2272 
L 4684 2272 
L 4684 1741 
L 678 1741 
L 678 2272 
z
" id="DejaVuSans-2212" transform="scale(0.015625)"/>
       </defs>
       <use xlink:href="#DejaVuSans-2212"/>
       <use x="83.789062" xlink:href="#DejaVuSans-31"/>
       <use x="147.412109" xlink:href="#DejaVuSans-30"/>
       <use x="211.035156" xlink:href="#DejaVuSans-30"/>
      </g>
     </g>
    </g>
    <g id="ytick_2">
     <g id="line2d_10">
      <g>
       <use style="stroke:#000000;stroke-width:0.8;" x="57.6" xlink:href="#m54377b1a4c" y="264.711411"/>
      </g>
     </g>
     <g id="text_10">
      <!-- −80 -->
      <g transform="translate(29.495313 268.51063)scale(0.1 -0.1)">
       <use xlink:href="#DejaVuSans-2212"/>
       <use x="83.789062" xlink:href="#DejaVuSans-38"/>
       <use x="147.412109" xlink:href="#DejaVuSans-30"/>
      </g>
     </g>
    </g>
    <g id="ytick_3">
     <g id="line2d_11">
      <g>
       <use style="stroke:#000000;stroke-width:0.8;" x="57.6" xlink:href="#m54377b1a4c" y="223.637082"/>
      </g>
     </g>
     <g id="text_11">
      <!-- −60 -->
      <g transform="translate(29.495313 227.436301)scale(0.1 -0.1)">
       <use xlink:href="#DejaVuSans-2212"/>
       <use x="83.789062" xlink:href="#DejaVuSans-36"/>
       <use x="147.412109" xlink:href="#DejaVuSans-30"/>
      </g>
     </g>
    </g>
    <g id="ytick_4">
     <g id="line2d_12">
      <g>
       <use style="stroke:#000000;stroke-width:0.8;" x="57.6" xlink:href="#m54377b1a4c" y="182.562753"/>
      </g>
     </g>
     <g id="text_12">
      <!-- −40 -->
      <g transform="translate(29.495313 186.361971)scale(0.1 -0.1)">
       <use xlink:href="#DejaVuSans-2212"/>
       <use x="83.789062" xlink:href="#DejaVuSans-34"/>
       <use x="147.412109" xlink:href="#DejaVuSans-30"/>
      </g>
     </g>
    </g>
    <g id="ytick_5">
     <g id="line2d_13">
      <g>
       <use style="stroke:#000000;stroke-width:0.8;" x="57.6" xlink:href="#m54377b1a4c" y="141.488424"/>
      </g>
     </g>
     <g id="text_13">
      <!-- −20 -->
      <g transform="translate(29.495313 145.287642)scale(0.1 -0.1)">
       <use xlink:href="#DejaVuSans-2212"/>
       <use x="83.789062" xlink:href="#DejaVuSans-32"/>
       <use x="147.412109" xlink:href="#DejaVuSans-30"/>
      </g>
     </g>
    </g>
    <g id="ytick_6">
     <g id="line2d_14">
      <g>
       <use style="stroke:#000000;stroke-width:0.8;" x="57.6" xlink:href="#m54377b1a4c" y="100.414094"/>
      </g>
     </g>
     <g id="text_14">
      <!-- 0 -->
      <g transform="translate(44.2375 104.213313)scale(0.1 -0.1)">
       <use xlink:href="#DejaVuSans-30"/>
      </g>
     </g>
    </g>
    <g id="ytick_7">
     <g id="line2d_15">
      <g>
       <use style="stroke:#000000;stroke-width:0.8;" x="57.6" xlink:href="#m54377b1a4c" y="59.339765"/>
      </g>
     </g>
     <g id="text_15">
      <!-- 20 -->
      <g transform="translate(37.875 63.138984)scale(0.1 -0.1)">
       <use xlink:href="#DejaVuSans-32"/>
       <use x="63.623047" xlink:href="#DejaVuSans-30"/>
      </g>
     </g>
    </g>
   </g>
   <g id="line2d_16">
    <path clip-path="url(#p8c2de22038)" d="M 73.832727 225.345958 
L 74.050178 225.401647 
L 74.485081 225.327381 
L 74.919983 225.430226 
L 76.442141 225.128937 
L 76.877043 225.02568 
L 77.311945 225.012373 
L 77.746848 224.992722 
L 77.964299 224.866868 
L 78.834103 224.928403 
L 79.051555 225.207779 
L 79.921359 232.370259 
L 81.443517 241.443475 
L 83.400577 251.247448 
L 85.140186 258.620465 
L 87.967051 268.890464 
L 91.011367 277.346225 
L 91.446269 278.138111 
L 93.403329 282.04087 
L 96.230194 286.221215 
L 98.839608 289.319621 
L 99.491961 289.576071 
L 99.709412 289.506828 
L 101.014119 290.198056 
L 101.449021 290.324862 
L 103.188631 290.914315 
L 103.623533 291.010773 
L 104.275886 291.320062 
L 104.493337 291.346516 
L 104.92824 291.106367 
L 106.232946 291.927748 
L 106.8853 291.975302 
L 107.320202 292.256828 
L 107.755104 292.459725 
L 108.190007 292.655579 
L 108.84236 292.410313 
L 110.147067 292.804992 
L 112.539029 293.949448 
L 112.973932 293.9959 
L 114.930992 294.56369 
L 115.800796 294.847622 
L 117.105503 295.08925 
L 118.627661 295.344251 
L 119.062563 295.442103 
L 119.932368 295.468618 
L 120.584721 294.967546 
L 121.237075 295.120951 
L 121.454526 295.016144 
L 121.889428 294.623012 
L 122.976684 294.699849 
L 123.194135 294.616909 
L 124.498842 293.475853 
L 125.586098 293.394402 
L 126.021 293.141047 
L 126.673353 292.443975 
L 127.108255 291.971017 
L 127.543158 290.947342 
L 128.195511 290.773625 
L 128.412962 290.577522 
L 128.630413 290.085998 
L 128.847865 289.909057 
L 129.065316 290.057964 
L 129.282767 289.917049 
L 129.717669 288.928305 
L 129.93512 288.44673 
L 130.587474 288.165778 
L 130.804925 288.297699 
L 131.022376 288.264617 
L 131.457278 287.718949 
L 131.674729 287.488235 
L 131.89218 287.450117 
L 132.109632 287.691831 
L 132.327083 287.735929 
L 132.761985 287.351651 
L 133.196887 287.603098 
L 133.849241 286.364947 
L 134.284143 286.26538 
L 134.719045 285.401518 
L 135.153948 284.901113 
L 135.371399 284.929705 
L 136.023752 285.370451 
L 136.458654 285.648913 
L 136.893557 286.048842 
L 137.328459 286.412261 
L 137.980812 286.813858 
L 139.285519 285.273522 
L 139.50297 285.456098 
L 139.937872 285.473355 
L 140.155324 285.565009 
L 140.590226 285.278809 
L 141.025128 285.155686 
L 141.677482 285.524407 
L 141.894933 285.457652 
L 142.329835 285.611974 
L 142.547286 285.502616 
L 145.1567 285.650947 
L 145.809053 284.9967 
L 146.243955 285.382497 
L 146.461407 285.610346 
L 147.11376 285.608352 
L 147.331211 285.594139 
L 147.983565 285.940738 
L 148.201016 286.221998 
L 148.635918 286.217136 
L 149.07082 285.976958 
L 149.723174 286.238563 
L 150.158076 286.323227 
L 150.592978 285.556893 
L 151.245332 285.679689 
L 152.115136 284.198575 
L 153.202392 284.55915 
L 153.419843 284.354633 
L 154.072196 284.362496 
L 154.507099 284.253351 
L 155.159452 283.658882 
L 155.594354 283.605074 
L 156.464159 283.124596 
L 156.68161 283.308525 
L 156.899061 283.118267 
L 157.116512 282.693482 
L 157.551414 282.62068 
L 158.203768 281.903179 
L 158.856121 280.923361 
L 159.291024 280.113272 
L 159.508475 280.083146 
L 159.943377 279.668178 
L 160.378279 280.147368 
L 161.030633 280.47599 
L 161.248084 280.697246 
L 161.682986 280.775492 
L 162.117888 281.238714 
L 162.335339 281.322518 
L 162.987693 282.392437 
L 163.205144 282.586341 
L 163.640046 282.447612 
L 163.857497 282.555054 
L 164.2924 282.474535 
L 164.509851 282.385291 
L 164.944753 282.409093 
L 165.379655 281.748503 
L 165.814558 281.429224 
L 166.466911 282.129655 
L 166.901813 282.046448 
L 167.119264 281.939447 
L 167.336716 281.663573 
L 167.554167 281.570249 
L 167.771618 281.294576 
L 167.989069 281.219309 
L 168.20652 281.448276 
L 168.641422 281.476418 
L 169.293776 281.716294 
L 169.728678 281.498442 
L 170.598483 281.789871 
L 171.033385 281.608156 
L 171.468287 281.263005 
L 171.685738 281.198104 
L 172.120641 280.659697 
L 172.338092 280.408897 
L 172.772994 280.201268 
L 172.990445 279.71244 
L 173.207896 279.527997 
L 173.425347 279.550301 
L 173.642799 279.306544 
L 173.86025 279.306556 
L 174.512603 280.098973 
L 174.947505 280.139842 
L 175.164956 279.985624 
L 175.382408 279.990255 
L 175.599859 280.174281 
L 176.034761 279.849302 
L 176.469663 280.039919 
L 176.687114 280.021301 
L 176.904566 279.826382 
L 177.339468 279.259677 
L 177.77437 279.359643 
L 178.644175 280.091091 
L 179.079077 280.168845 
L 179.513979 279.987271 
L 180.383784 280.798446 
L 180.818686 280.965308 
L 181.253588 281.131958 
L 181.688491 281.47079 
L 182.340844 282.039873 
L 182.558295 282.008101 
L 182.993197 281.099654 
L 183.863002 281.024319 
L 184.080453 280.758723 
L 184.297904 280.683646 
L 184.950258 281.155369 
L 185.167709 281.08888 
L 185.38516 280.84917 
L 185.602611 280.817581 
L 185.820062 281.078102 
L 186.254964 281.051671 
L 186.472416 281.215576 
L 186.907318 280.706874 
L 187.34222 280.222893 
L 187.777122 278.732645 
L 188.429476 278.206951 
L 189.081829 277.751831 
L 189.516731 276.812413 
L 189.951634 276.666478 
L 190.169085 276.723252 
L 190.386536 276.522659 
L 190.603987 276.702431 
L 191.038889 277.813395 
L 191.25634 278.166459 
L 191.473792 278.178021 
L 191.691243 278.077601 
L 191.908694 277.776708 
L 192.343596 276.66585 
L 192.561047 276.463994 
L 192.99595 275.712729 
L 193.430852 275.622095 
L 193.865754 274.600924 
L 194.083205 274.667387 
L 194.300656 274.878439 
L 194.518108 274.631552 
L 194.95301 273.887649 
L 195.387912 274.199596 
L 196.257717 273.858918 
L 196.91007 274.485657 
L 197.344972 275.260896 
L 197.562423 275.24965 
L 197.779875 275.358896 
L 197.997326 275.736139 
L 198.214777 275.773084 
L 198.432228 275.531631 
L 198.86713 275.537726 
L 199.519484 274.812985 
L 199.736935 274.891556 
L 200.606739 274.693754 
L 200.82419 274.892698 
L 201.041642 275.34985 
L 201.259093 275.451501 
L 201.476544 275.155331 
L 201.693995 275.181394 
L 202.128897 275.492264 
L 202.998702 276.089996 
L 203.216153 275.92859 
L 204.52086 274.027069 
L 204.738311 273.90202 
L 204.955762 273.910079 
L 205.173213 273.581236 
L 205.390664 273.493408 
L 205.608115 273.690063 
L 206.47792 272.740156 
L 206.695371 272.82589 
L 206.912822 272.744299 
L 207.130273 272.785257 
L 207.565176 273.102748 
L 208.000078 272.956902 
L 208.869882 273.731819 
L 209.087334 273.638916 
L 209.304785 273.823252 
L 209.739687 274.613953 
L 209.957138 274.741871 
L 210.609492 274.55569 
L 210.826943 274.523598 
L 211.044394 274.800829 
L 211.696747 276.076151 
L 211.914198 276.409026 
L 212.13165 276.429611 
L 212.566552 276.159639 
L 212.784003 276.411861 
L 213.001454 276.43909 
L 213.218905 275.965497 
L 213.653807 275.924852 
L 213.871259 276.11711 
L 214.08871 276.5172 
L 214.523612 276.897819 
L 216.263221 279.168776 
L 216.480672 279.244736 
L 217.567928 280.233694 
L 218.00283 280.370829 
L 218.872635 281.060927 
L 219.95989 282.416708 
L 220.177342 282.317972 
L 221.047146 282.483155 
L 221.482048 282.745213 
L 221.916951 282.75591 
L 223.004206 283.316377 
L 223.221657 283.313534 
L 223.65656 283.153963 
L 224.526364 281.634637 
L 225.396169 282.625524 
L 225.831071 283.215924 
L 226.483424 283.706888 
L 226.700876 283.746609 
L 227.135778 284.096548 
L 227.353229 284.068159 
L 229.092838 285.392843 
L 229.52774 285.733406 
L 229.962643 285.960748 
L 231.267349 286.999351 
L 231.919703 286.904332 
L 232.572056 287.195507 
L 233.006959 287.256303 
L 233.659312 287.748387 
L 233.876763 287.758901 
L 234.529116 288.182164 
L 235.398921 288.59397 
L 235.833823 288.814967 
L 236.268726 288.937507 
L 236.703628 289.175856 
L 237.573432 289.588913 
L 238.225786 289.918119 
L 239.313041 290.144645 
L 240.182846 290.161469 
L 240.400297 289.914612 
L 241.052651 289.854301 
L 242.357357 290.038407 
L 244.096966 287.541832 
L 244.531869 286.919345 
L 244.966771 286.39936 
L 246.488929 284.681978 
L 246.923831 284.00396 
L 247.576185 284.001271 
L 247.793636 283.919165 
L 248.228538 283.221303 
L 249.098343 283.229479 
L 249.750696 283.500661 
L 251.055403 284.333955 
L 251.707756 284.801548 
L 252.142658 284.656494 
L 253.447365 284.246004 
L 253.664816 283.798004 
L 253.882268 283.628994 
L 254.752072 283.872032 
L 255.404426 283.609448 
L 255.621877 283.388224 
L 255.839328 282.921541 
L 256.056779 283.002088 
L 256.27423 283.247182 
L 256.491681 283.120044 
L 256.926583 283.196758 
L 257.796388 281.8765 
L 258.883644 278.697414 
L 259.101095 278.514075 
L 259.753448 279.256921 
L 259.970899 279.238591 
L 260.18835 279.100753 
L 260.623253 279.658209 
L 261.058155 279.618443 
L 261.275606 279.715681 
L 261.493057 279.947777 
L 261.92796 279.971091 
L 262.362862 280.446596 
L 262.580313 280.329856 
L 262.797764 280.001317 
L 263.450118 278.223075 
L 263.667569 278.266588 
L 264.102471 278.768534 
L 264.319922 278.816575 
L 264.972275 279.292047 
L 265.189727 278.95182 
L 265.84208 277.075779 
L 266.059531 276.893238 
L 266.276982 276.415423 
L 266.711885 275.118358 
L 266.929336 274.852068 
L 267.364238 273.708096 
L 268.016591 273.022064 
L 268.234043 272.941423 
L 268.668945 273.405875 
L 269.321298 272.796426 
L 269.538749 272.944406 
L 270.191103 272.735443 
L 270.408554 272.856672 
L 270.843456 273.640501 
L 271.060907 273.800646 
L 272.583065 275.936279 
L 273.017967 276.388885 
L 273.670321 276.62884 
L 274.105223 276.922037 
L 274.757577 277.857087 
L 276.062283 279.153523 
L 276.279735 279.323035 
L 276.714637 279.847337 
L 277.584441 280.555731 
L 278.019344 280.584642 
L 278.236795 280.745937 
L 278.671697 281.318281 
L 278.889148 281.393732 
L 279.541502 282.184832 
L 280.411306 282.990745 
L 281.281111 283.823222 
L 281.716013 283.949144 
L 281.933464 284.028912 
L 282.803269 284.847778 
L 284.542878 285.502477 
L 284.97778 285.583675 
L 285.847584 286.29068 
L 286.282487 286.384541 
L 286.717389 286.633845 
L 287.152291 286.773263 
L 287.369742 286.975938 
L 287.804645 286.940764 
L 288.674449 286.695421 
L 289.544254 286.82724 
L 289.979156 287.026498 
L 290.414058 287.204991 
L 290.848961 287.373949 
L 293.458374 288.530183 
L 293.893277 288.755443 
L 294.980532 289.156953 
L 296.285239 289.850802 
L 296.50269 289.70603 
L 297.589946 281.640737 
L 298.677201 275.957287 
L 299.981908 270.429921 
L 302.15642 263.091006 
L 304.330931 257.231111 
L 305.418187 254.568317 
L 305.853089 253.370042 
L 306.287991 252.610868 
L 306.722894 251.820595 
L 307.375247 250.81228 
L 308.462503 248.892874 
L 309.114856 247.501499 
L 309.984661 246.261121 
L 312.376623 241.977711 
L 313.028976 240.978267 
L 317.377999 234.707862 
L 318.247804 234.186118 
L 319.769962 233.776635 
L 321.074668 233.139701 
L 321.509571 233.175869 
L 323.466631 232.203288 
L 324.553887 231.316289 
L 325.858593 230.969949 
L 326.510947 230.734989 
L 327.815654 230.41075 
L 328.250556 230.264378 
L 328.902909 230.342456 
L 329.555263 230.394327 
L 330.207616 230.461538 
L 331.077421 230.35046 
L 331.729774 230.516279 
L 332.382128 230.768408 
L 333.251932 230.652323 
L 334.339188 230.690023 
L 336.296248 230.564846 
L 336.73115 230.383001 
L 339.123113 230.249702 
L 339.775466 230.568621 
L 340.42782 230.718794 
L 341.080173 230.878447 
L 341.949977 230.736318 
L 343.907038 230.728339 
L 344.559391 230.65118 
L 344.994293 230.439648 
L 345.429196 230.472592 
L 345.864098 230.413159 
L 346.516451 230.40374 
L 346.733902 230.501529 
L 348.473512 230.130239 
L 348.908414 229.964367 
L 349.343316 229.96693 
L 349.560767 230.100436 
L 349.995669 229.918897 
L 350.430572 229.994444 
L 351.300376 229.779939 
L 351.95273 229.500374 
L 352.822534 229.402104 
L 353.257437 229.454536 
L 353.474888 229.249296 
L 353.692339 229.267039 
L 354.127241 229.46664 
L 355.431948 229.424386 
L 355.86685 229.172689 
L 356.736655 229.157888 
L 357.171557 229.006248 
L 357.606459 228.832167 
L 358.041362 228.76948 
L 358.693715 228.495941 
L 358.911166 228.521539 
L 359.346068 228.281121 
L 359.998422 228.168459 
L 360.868226 228.004391 
L 361.52058 228.174541 
L 361.955482 227.986782 
L 362.390384 227.867933 
L 363.47764 227.573768 
L 363.912542 227.28525 
L 364.129993 227.339874 
L 364.564896 227.232616 
L 365.4347 227.375142 
L 365.869602 227.249784 
L 366.521956 227.221518 
L 367.174309 227.223648 
L 367.826663 227.196981 
L 368.913918 227.037078 
L 369.348821 227.040448 
L 370.001174 226.874077 
L 371.08843 226.62339 
L 371.523332 226.69426 
L 371.958234 226.599127 
L 373.262941 226.557946 
L 373.915294 226.626032 
L 374.567648 226.484565 
L 375.220001 226.654734 
L 376.089806 226.743666 
L 376.524708 226.728704 
L 377.394513 226.641999 
L 377.829415 226.429164 
L 379.134122 226.379378 
L 379.786475 226.418323 
L 380.873731 226.321604 
L 381.308633 226.09724 
L 382.61334 226.182034 
L 383.048242 226.415498 
L 384.135498 226.360148 
L 385.657656 226.41008 
L 385.875107 226.422773 
L 386.310009 226.188524 
L 388.049618 226.18578 
L 388.48452 226.217112 
L 389.136874 226.216638 
L 389.571776 226.319827 
L 390.006678 226.265032 
L 390.441581 226.348481 
L 391.963739 226.241289 
L 396.530213 225.94972 
L 396.965115 225.954116 
L 397.182566 225.851565 
L 397.617468 225.912813 
L 398.487273 225.677527 
L 398.487273 225.677527 
" style="fill:none;stroke:#000000;stroke-linecap:square;stroke-width:1.5;"/>
   </g>
   <g id="line2d_17">
    <path clip-path="url(#p8c2de22038)" d="M 73.832727 237.202863 
L 74.919983 237.133413 
L 75.789787 237.105071 
L 76.659592 236.728202 
L 77.311945 236.84561 
L 77.746848 236.779055 
L 78.399201 236.968534 
L 78.616652 236.729969 
L 78.834103 237.130295 
L 79.051555 236.532038 
L 79.921359 222.007823 
L 80.573712 213.796627 
L 80.791164 212.121647 
L 81.226066 206.971105 
L 81.443517 205.323671 
L 81.660968 201.860529 
L 81.878419 201.358436 
L 82.09587 197.29921 
L 82.313322 197.041084 
L 82.748224 190.491843 
L 82.965675 190.777334 
L 83.183126 181.568515 
L 83.400577 190.371188 
L 83.83548 53.999379 
L 84.052931 97.427436 
L 84.270382 164.887869 
L 84.705284 202.913908 
L 84.922735 203.77217 
L 85.140186 207.453988 
L 85.357637 207.570636 
L 85.575089 207.433036 
L 85.79254 207.793188 
L 86.009991 206.114096 
L 86.227442 206.71775 
L 86.444893 205.216414 
L 86.662344 205.132909 
L 86.879795 204.408721 
L 87.097247 203.295257 
L 87.314698 202.952583 
L 87.532149 201.497352 
L 87.7496 201.035573 
L 88.184502 199.078543 
L 88.401953 198.271061 
L 88.619404 196.771521 
L 88.836856 196.296586 
L 89.054307 194.709158 
L 89.271758 193.955419 
L 89.70666 191.18827 
L 89.924111 190.709516 
L 90.141562 188.420374 
L 90.359014 188.503241 
L 90.576465 186.020972 
L 90.793916 185.757857 
L 91.011367 184.280275 
L 91.228818 181.746892 
L 91.446269 183.276432 
L 91.66372 176.270258 
L 91.881172 183.35735 
L 92.098623 141.933824 
L 92.316074 59.47158 
L 92.533525 79.513587 
L 92.750976 146.497797 
L 93.185878 194.709134 
L 93.620781 200.675541 
L 93.838232 201.681647 
L 94.055683 201.694253 
L 94.273134 202.483089 
L 94.490585 201.413275 
L 94.708036 201.938819 
L 94.925487 200.932767 
L 95.36039 200.224584 
L 95.577841 199.41568 
L 95.795292 199.115112 
L 96.012743 198.068535 
L 96.230194 197.607618 
L 96.665097 196.143082 
L 97.31745 194.021155 
L 97.534901 192.909622 
L 97.752352 192.439843 
L 98.187254 190.177269 
L 98.404706 189.242967 
L 98.622157 187.698965 
L 98.839608 187.225418 
L 99.057059 185.123524 
L 99.27451 184.962428 
L 99.491961 182.880268 
L 99.709412 182.483077 
L 99.926864 181.848319 
L 100.144315 178.636955 
L 100.361766 179.903234 
L 100.579217 173.32168 
L 100.796668 178.689525 
L 101.014119 145.897424 
L 101.23157 64.609844 
L 101.449021 70.038047 
L 101.883924 170.850206 
L 102.101375 189.423267 
L 102.536277 196.912309 
L 102.753728 198.109626 
L 102.971179 197.447453 
L 103.188631 198.094243 
L 103.406082 197.23083 
L 103.623533 197.649692 
L 104.058435 196.659557 
L 104.275886 196.492944 
L 104.493337 195.640929 
L 104.710789 195.282913 
L 105.580593 192.21719 
L 106.450398 189.182787 
L 106.667849 187.644626 
L 106.8853 187.183362 
L 107.320202 184.487759 
L 107.537653 184.002583 
L 107.755104 181.722145 
L 107.972556 182.355052 
L 108.190007 179.204547 
L 108.407458 179.306959 
L 109.059811 171.828262 
L 109.494714 53.568 
L 110.147067 176.939555 
L 110.364518 188.640985 
L 110.79942 193.772281 
L 111.016871 193.315483 
L 111.234323 193.880114 
L 111.886676 192.973319 
L 112.104127 192.132357 
L 112.321578 191.990867 
L 112.539029 191.004433 
L 113.408834 189.216422 
L 114.061187 186.982269 
L 114.278638 186.530259 
L 114.49609 185.784326 
L 114.713541 184.464255 
L 114.930992 183.963064 
L 115.148443 182.575897 
L 115.365894 182.212425 
L 115.800796 180.154173 
L 116.018248 179.559508 
L 116.235699 177.707795 
L 116.45315 178.252382 
L 116.670601 175.167878 
L 116.888052 175.418588 
L 117.540406 165.284973 
L 117.975308 56.836271 
L 118.627661 173.522801 
L 118.845112 183.768445 
L 119.280015 188.604548 
L 119.497466 188.229458 
L 119.714917 188.931738 
L 120.149819 188.360058 
L 120.36727 188.490617 
L 120.584721 187.895821 
L 120.802173 188.010615 
L 121.237075 187.411126 
L 121.671977 186.792107 
L 122.106879 185.810868 
L 123.846488 180.309809 
L 124.281391 178.588683 
L 124.498842 176.896421 
L 124.716293 176.665607 
L 124.933744 174.018284 
L 125.151195 174.408108 
L 125.368646 170.598345 
L 125.586098 169.886209 
L 125.803549 158.788723 
L 126.238451 59.578977 
L 126.890804 172.805597 
L 127.108255 181.409771 
L 127.543158 186.54554 
L 127.760609 186.208647 
L 127.97806 186.526864 
L 128.195511 185.769119 
L 128.630413 185.276641 
L 128.847865 184.535395 
L 129.065316 184.457878 
L 129.282767 183.563819 
L 129.500218 183.181576 
L 130.152571 181.103731 
L 130.370023 180.028856 
L 130.587474 179.584548 
L 131.457278 174.906999 
L 131.674729 174.545759 
L 131.89218 173.098616 
L 132.109632 172.723521 
L 132.544534 169.808972 
L 132.761985 168.582745 
L 133.196887 163.160584 
L 133.63179 66.61537 
L 133.849241 82.992118 
L 134.284143 162.497338 
L 134.501594 176.127995 
L 134.936496 182.552397 
L 135.371399 183.646631 
L 135.58885 183.697322 
L 135.806301 183.101995 
L 136.023752 183.175457 
L 136.241203 182.525899 
L 136.458654 182.29061 
L 137.54591 179.76975 
L 138.198263 177.640472 
L 138.415715 177.145293 
L 139.50297 173.02253 
L 139.720421 171.730119 
L 139.937872 171.308867 
L 140.590226 166.675277 
L 140.807677 162.90498 
L 141.025128 161.175694 
L 141.242579 126.727633 
L 141.46003 71.700746 
L 141.677482 75.121579 
L 142.112384 157.031075 
L 142.329835 173.429084 
L 142.764737 180.465455 
L 142.982188 181.098737 
L 143.417091 181.33858 
L 143.634542 180.971345 
L 143.851993 181.10714 
L 144.069444 180.796294 
L 144.286895 180.855307 
L 144.504346 180.718446 
L 145.374151 179.46048 
L 145.809053 178.658041 
L 146.026504 178.371988 
L 146.678858 176.717819 
L 147.11376 175.956028 
L 147.983565 173.036024 
L 148.418467 171.149093 
L 148.635918 170.032253 
L 148.853369 168.065381 
L 149.07082 167.272978 
L 149.288271 163.478295 
L 149.505722 162.317693 
L 149.723174 132.890725 
L 149.940625 75.956246 
L 150.158076 71.266825 
L 150.592978 151.986048 
L 150.810429 170.793699 
L 151.02788 176.710207 
L 151.245332 179.568332 
L 151.462783 180.643762 
L 151.680234 180.671555 
L 151.897685 181.09276 
L 152.115136 180.772055 
L 152.332587 180.989451 
L 152.767489 180.718871 
L 152.984941 180.705302 
L 153.854745 179.775746 
L 155.376903 176.539782 
L 156.029257 174.571708 
L 156.464159 173.517458 
L 156.68161 172.203492 
L 156.899061 171.704783 
L 157.116512 170.428447 
L 157.333963 169.905327 
L 157.986317 165.65894 
L 158.421219 159.372496 
L 158.856121 70.073206 
L 159.073572 77.881628 
L 159.508475 157.03614 
L 159.725926 172.681724 
L 160.160828 180.48161 
L 160.378279 181.185691 
L 160.59573 181.227064 
L 160.813182 181.154589 
L 161.030633 180.715847 
L 161.248084 180.868689 
L 161.465535 180.442923 
L 161.900437 180.12835 
L 162.335339 179.597195 
L 162.770242 178.897944 
L 163.857497 176.605699 
L 164.727302 173.65833 
L 164.944753 173.159821 
L 165.597106 170.282152 
L 165.814558 169.725695 
L 166.466911 165.648973 
L 166.901813 159.642777 
L 167.119264 129.119212 
L 167.336716 75.530999 
L 167.554167 72.017088 
L 167.989069 149.999638 
L 168.20652 168.020479 
L 168.641422 177.218354 
L 168.858874 178.405185 
L 169.293776 179.155766 
L 169.511227 178.834794 
L 169.728678 179.099135 
L 170.16358 179.141117 
L 170.598483 178.54975 
L 171.033385 177.741209 
L 172.120641 175.763182 
L 172.990445 173.675153 
L 173.207896 173.29103 
L 174.295152 169.74925 
L 174.512603 168.412972 
L 174.730054 167.798394 
L 175.599859 159.711091 
L 175.81731 151.941576 
L 176.252212 68.723065 
L 176.469663 87.419108 
L 176.904566 157.439111 
L 177.122017 169.674474 
L 177.339468 173.465801 
L 177.556919 175.25143 
L 178.209272 175.914455 
L 178.426723 175.717967 
L 178.644175 175.785026 
L 178.861626 175.370527 
L 179.296528 175.070336 
L 180.383784 173.686394 
L 180.818686 172.491664 
L 181.471039 170.782165 
L 182.993197 165.248639 
L 183.4281 161.897122 
L 183.863002 154.193923 
L 184.080453 127.112571 
L 184.297904 82.893805 
L 184.515355 76.521264 
L 185.167709 162.111979 
L 185.38516 169.145645 
L 185.820062 174.313285 
L 186.254964 175.692663 
L 186.689867 176.085922 
L 187.34222 176.724672 
L 187.994573 176.699854 
L 188.429476 176.532636 
L 189.516731 175.34175 
L 190.821438 172.47389 
L 191.038889 171.889657 
L 192.126145 166.422882 
L 192.778498 159.095957 
L 192.99595 156.14532 
L 193.213401 130.008024 
L 193.430852 80.256216 
L 193.648303 74.296959 
L 194.083205 147.662268 
L 194.300656 165.040948 
L 194.518108 170.931846 
L 194.95301 174.375471 
L 195.170461 174.42478 
L 195.387912 174.765259 
L 195.605363 174.710665 
L 195.822814 174.927455 
L 196.257717 175.05047 
L 196.475168 175.20569 
L 196.692619 175.176145 
L 196.91007 175.337716 
L 197.562423 174.781295 
L 198.214777 173.846272 
L 198.86713 172.311022 
L 199.084581 171.87119 
L 200.171837 168.185114 
L 200.82419 164.34798 
L 201.259093 160.771291 
L 201.693995 153.762446 
L 201.911446 126.833106 
L 202.128897 80.589363 
L 202.346348 76.06742 
L 202.781251 148.761265 
L 202.998702 165.735671 
L 203.216153 171.359743 
L 203.433604 173.809281 
L 203.651055 174.765751 
L 204.085957 175.601227 
L 204.303409 175.566756 
L 204.52086 175.826771 
L 204.738311 175.815317 
L 206.47792 174.611885 
L 207.130273 173.58378 
L 207.347725 173.27395 
L 208.000078 171.49594 
L 209.522236 165.865435 
L 210.174589 159.477355 
L 210.39204 156.723318 
L 210.609492 137.082433 
L 210.826943 90.341929 
L 211.044394 71.644982 
L 211.696747 158.771232 
L 211.914198 167.645684 
L 212.349101 172.341958 
L 212.784003 173.591014 
L 213.653807 174.356209 
L 213.871259 174.372969 
L 214.958514 173.103521 
L 215.393417 172.516033 
L 216.04577 171.839627 
L 216.480672 170.93544 
L 217.133026 168.519912 
L 218.437732 162.301604 
L 218.872635 156.779527 
L 219.090086 147.798828 
L 219.524988 75.45375 
L 219.742439 86.437054 
L 220.177342 152.477282 
L 220.394793 165.086628 
L 220.829695 171.718483 
L 221.047146 172.643755 
L 221.264597 172.960525 
L 221.482048 173.078417 
L 221.699499 173.04443 
L 222.351853 173.703437 
L 222.786755 173.451152 
L 223.004206 173.468236 
L 223.221657 173.354513 
L 223.65656 173.394792 
L 223.874011 173.205539 
L 226.048522 169.29338 
L 227.135778 164.783472 
L 227.57068 161.584463 
L 228.005582 156.001802 
L 228.223034 142.433975 
L 228.657936 73.479227 
L 228.875387 93.275024 
L 229.310289 156.086703 
L 229.52774 167.022348 
L 229.745191 170.381091 
L 229.962643 171.645398 
L 230.397545 171.919815 
L 230.614996 171.715215 
L 231.267349 171.699611 
L 231.484801 171.734445 
L 231.702252 171.571969 
L 231.919703 171.580886 
L 232.572056 171.152668 
L 234.746568 167.523553 
L 235.18147 166.232955 
L 235.833823 163.842161 
L 236.051274 163.235305 
L 236.486177 159.980916 
L 236.921079 154.800233 
L 237.13853 145.803041 
L 237.573432 79.808967 
L 237.790884 85.218404 
L 238.225786 148.033061 
L 238.443237 161.779746 
L 238.660688 167.506736 
L 238.878139 170.176668 
L 239.09559 171.358181 
L 239.530493 172.316845 
L 240.182846 172.928117 
L 240.617748 173.231538 
L 241.052651 173.155737 
L 241.270102 173.141474 
L 241.922455 172.585039 
L 242.79226 171.32156 
L 244.531869 166.93437 
L 245.401673 163.272178 
L 245.836576 160.061897 
L 246.271478 154.1092 
L 246.488929 140.600342 
L 246.923831 74.329803 
L 247.141282 93.250393 
L 247.576185 154.330947 
L 247.793636 164.370773 
L 248.011087 168.135449 
L 248.228538 169.850862 
L 248.445989 170.631798 
L 248.66344 170.940557 
L 248.880891 170.89972 
L 249.315794 171.267267 
L 249.533245 171.254158 
L 249.968147 171.570457 
L 250.837952 171.707536 
L 251.707756 171.18553 
L 252.36011 170.484998 
L 252.795012 169.884882 
L 253.012463 169.631096 
L 253.664816 168.07857 
L 254.31717 165.95635 
L 255.186974 161.139279 
L 255.621877 156.163562 
L 255.839328 149.964292 
L 256.27423 82.384594 
L 256.491681 81.489192 
L 256.926583 146.176346 
L 257.144035 162.110058 
L 257.361486 167.768728 
L 257.578937 170.459078 
L 258.013839 172.196516 
L 259.535997 174.193779 
L 259.970899 174.41195 
L 260.405802 174.362077 
L 260.623253 174.483012 
L 261.92796 173.83161 
L 262.362862 173.134454 
L 263.667569 169.836301 
L 264.537373 167.16101 
L 265.624629 160.601683 
L 266.059531 153.724833 
L 266.276982 128.832459 
L 266.494433 84.01938 
L 266.711885 75.86366 
L 267.146787 146.448738 
L 267.364238 163.061501 
L 267.581689 168.233967 
L 267.79914 170.525328 
L 268.016591 171.403228 
L 269.538749 173.5847 
L 269.7562 173.82974 
L 270.408554 173.928199 
L 270.843456 173.624067 
L 271.060907 173.656399 
L 271.930712 173.056397 
L 273.45287 170.296211 
L 274.540125 166.695131 
L 274.975028 164.477254 
L 275.627381 157.699519 
L 275.844832 154.762958 
L 276.062283 135.425043 
L 276.279735 90.196345 
L 276.497186 73.603268 
L 277.149539 158.780984 
L 277.36699 166.377193 
L 277.801892 170.98351 
L 278.236795 171.491008 
L 278.454246 171.334333 
L 279.106599 171.771812 
L 279.32405 171.877609 
L 279.541502 171.84735 
L 279.758953 171.996157 
L 280.411306 172.018097 
L 280.846208 171.465911 
L 281.281111 171.088917 
L 281.716013 170.429093 
L 282.803269 167.951948 
L 283.02072 167.430506 
L 284.107975 162.604255 
L 284.542878 159.365297 
L 284.97778 152.567871 
L 285.195231 133.506317 
L 285.412682 92.848439 
L 285.630133 75.990634 
L 286.499938 164.305701 
L 286.717389 167.885878 
L 286.93484 169.451932 
L 287.369742 170.43904 
L 288.022096 171.133529 
L 288.674449 171.406589 
L 289.109352 171.485735 
L 289.544254 171.226379 
L 289.761705 171.237722 
L 289.979156 171.071813 
L 290.631509 169.761122 
L 291.501314 168.720858 
L 291.936216 167.896596 
L 292.806021 165.263999 
L 293.675825 162.170282 
L 294.110728 158.924155 
L 294.54563 153.240494 
L 294.763081 142.227192 
L 295.197983 78.581307 
L 295.415434 87.622626 
L 295.850337 147.722901 
L 296.067788 160.980593 
L 296.937592 177.813735 
L 297.807397 188.927568 
L 298.894653 199.781471 
L 299.981908 208.035549 
L 300.851713 213.384065 
L 302.373871 220.831743 
L 303.461126 224.766503 
L 304.548382 227.871638 
L 307.375247 233.999159 
L 309.332307 236.782249 
L 309.767209 237.176494 
L 310.637014 238.177092 
L 311.506818 238.886413 
L 312.159172 239.251313 
L 312.811525 239.745268 
L 313.898781 240.478046 
L 314.986037 240.993679 
L 315.63839 241.239842 
L 316.290743 241.411479 
L 316.725646 241.616483 
L 316.943097 241.610266 
L 318.900157 242.678963 
L 319.769962 242.832786 
L 320.422315 242.873013 
L 321.074668 242.968462 
L 322.379375 243.280999 
L 323.466631 243.285214 
L 324.553887 243.376993 
L 327.1633 243.511027 
L 328.685458 243.663741 
L 329.772714 243.71546 
L 330.207616 243.606967 
L 330.425067 243.723503 
L 331.512323 243.772058 
L 332.81703 244.008022 
L 336.078797 243.978803 
L 336.73115 243.897178 
L 338.905662 243.77203 
L 339.340564 243.886054 
L 339.558015 243.836327 
L 339.992917 243.944187 
L 341.732526 243.698909 
L 342.167429 243.731075 
L 344.34194 243.463133 
L 344.776842 243.304785 
L 345.646647 243.301806 
L 346.299 243.169034 
L 346.733902 243.211239 
L 347.603707 243.247207 
L 348.038609 243.293286 
L 348.473512 243.276851 
L 349.125865 243.40346 
L 349.560767 243.343525 
L 350.213121 243.464356 
L 353.692339 242.727316 
L 354.127241 242.571645 
L 354.562143 242.513062 
L 354.997046 242.677822 
L 355.649399 242.631187 
L 356.519204 242.680843 
L 358.693715 242.384423 
L 359.128617 242.156657 
L 362.172933 242.419238 
L 362.607835 242.414766 
L 368.044114 242.397134 
L 368.479016 242.495681 
L 370.001174 242.518674 
L 370.870979 242.224755 
L 371.740783 242.296552 
L 372.393136 242.379618 
L 373.04549 242.349434 
L 375.00255 242.308066 
L 375.437452 242.429328 
L 378.264317 242.269233 
L 378.699219 242.150216 
L 379.134122 242.235599 
L 379.569024 242.286946 
L 380.438828 242.377549 
L 380.873731 242.30933 
L 381.526084 242.340207 
L 381.960986 242.512062 
L 382.395889 242.473569 
L 382.830791 242.542991 
L 383.265693 242.466649 
L 384.135498 242.343456 
L 385.222753 242.133786 
L 386.310009 242.289905 
L 387.397265 242.356773 
L 387.832167 242.481805 
L 388.267069 242.484348 
L 389.354325 242.625562 
L 389.789227 242.677543 
L 390.22413 242.834347 
L 391.746288 242.914372 
L 392.616092 242.936319 
L 393.703348 242.914313 
L 396.312761 242.916705 
L 398.05237 243.177334 
L 398.487273 242.98162 
L 398.487273 242.98162 
" style="fill:none;stroke:#000000;stroke-linecap:square;stroke-width:1.5;"/>
   </g>
   <g id="line2d_18">
    <path clip-path="url(#p8c2de22038)" d="M 73.832727 220.783549 
L 74.919983 220.912582 
L 76.007239 220.680261 
L 76.877043 220.69145 
L 77.311945 220.709002 
L 78.616652 221.033611 
L 78.834103 220.995549 
L 79.051555 221.098981 
L 79.921359 224.095719 
L 82.313322 229.663356 
L 83.400577 231.885241 
L 88.619404 241.470702 
L 89.271758 242.529707 
L 91.011367 245.267209 
L 93.620781 248.994554 
L 94.055683 249.481683 
L 95.142939 250.928676 
L 96.230194 252.253622 
L 97.099999 253.364646 
L 98.404706 254.728634 
L 98.839608 255.192066 
L 101.449021 257.786607 
L 104.92824 260.687219 
L 105.363142 261.105686 
L 105.798044 261.23848 
L 109.059811 263.69512 
L 109.494714 263.97715 
L 110.364518 264.584011 
L 110.79942 264.818877 
L 111.234323 265.152794 
L 111.669225 265.39778 
L 112.539029 265.905701 
L 113.408834 266.288902 
L 113.626285 266.314623 
L 114.278638 266.674253 
L 116.235699 267.655794 
L 116.888052 267.647396 
L 118.845112 268.438524 
L 120.149819 268.93861 
L 120.584721 269.206078 
L 121.019624 269.392085 
L 121.671977 269.649189 
L 122.324331 270.064455 
L 122.759233 270.220939 
L 122.976684 270.259922 
L 123.411586 270.57963 
L 123.846488 270.567355 
L 124.281391 270.77131 
L 127.108255 271.29501 
L 127.543158 271.301521 
L 129.717669 272.031509 
L 130.370023 272.231779 
L 130.804925 272.305281 
L 131.239827 272.394989 
L 132.109632 272.699283 
L 132.544534 272.672356 
L 132.979436 272.796906 
L 133.63179 272.822142 
L 134.501594 272.956814 
L 135.371399 273.178986 
L 136.023752 273.282155 
L 136.676105 273.442799 
L 137.328459 273.675259 
L 138.198263 273.808442 
L 138.850617 273.841533 
L 141.46003 274.304898 
L 142.764737 274.002794 
L 143.19964 273.715193 
L 143.634542 273.707441 
L 144.069444 273.947272 
L 144.939249 274.04183 
L 145.374151 274.11035 
L 146.026504 274.165761 
L 146.678858 274.192317 
L 147.11376 274.277419 
L 147.548662 274.338053 
L 148.853369 274.335879 
L 149.723174 274.250209 
L 150.158076 274.202928 
L 150.592978 274.182419 
L 152.767489 274.219696 
L 153.419843 273.854113 
L 155.159452 273.947835 
L 156.68161 273.936742 
L 157.768866 273.965245 
L 158.203768 273.999939 
L 158.421219 274.041844 
L 158.856121 273.972793 
L 159.508475 274.070312 
L 159.725926 274.117696 
L 160.160828 274.074192 
L 160.378279 274.195797 
L 160.813182 274.206676 
L 161.030633 274.287232 
L 161.465535 274.226864 
L 162.117888 274.314676 
L 162.770242 274.289864 
L 166.901813 274.316821 
L 168.641422 274.009409 
L 169.728678 274.159365 
L 172.990445 273.843417 
L 174.730054 272.938069 
L 176.034761 272.825221 
L 177.122017 272.907011 
L 183.863002 272.815459 
L 184.515355 272.768184 
L 185.820062 272.713726 
L 188.429476 272.5051 
L 189.29928 272.140337 
L 189.951634 272.133446 
L 190.386536 271.968614 
L 190.821438 272.100378 
L 191.908694 272.098685 
L 192.126145 272.17653 
L 193.213401 272.058178 
L 193.648303 272.022992 
L 194.083205 271.978579 
L 196.692619 271.866237 
L 197.997326 271.732432 
L 199.519484 271.655103 
L 200.171837 271.453884 
L 200.606739 271.379639 
L 201.041642 271.153335 
L 201.259093 271.021979 
L 201.911446 271.128265 
L 204.738311 270.681041 
L 206.260469 270.76844 
L 208.869882 270.529689 
L 209.739687 270.510604 
L 210.826943 270.293215 
L 214.741063 270.228083 
L 215.175965 269.857761 
L 215.610868 269.808904 
L 216.04577 269.804883 
L 216.915574 269.81865 
L 217.350477 269.700715 
L 217.567928 269.652204 
L 218.00283 269.424886 
L 219.524988 269.536773 
L 221.482048 269.56323 
L 222.569304 269.419614 
L 223.65656 269.51498 
L 224.091462 269.574093 
L 224.526364 269.471826 
L 224.961267 269.609434 
L 225.396169 269.523748 
L 226.048522 269.544037 
L 228.440485 269.484033 
L 229.310289 269.397946 
L 230.397545 269.37382 
L 231.049898 269.53597 
L 232.354605 269.584137 
L 234.311665 269.448968 
L 234.746568 268.733016 
L 235.398921 268.310961 
L 235.833823 268.290692 
L 236.268726 268.257908 
L 236.703628 268.305373 
L 237.355981 268.29415 
L 239.747944 268.417164 
L 240.617748 268.453858 
L 240.835199 268.482298 
L 241.270102 268.364374 
L 241.705004 268.435841 
L 243.444613 268.417947 
L 244.314418 268.444633 
L 245.401673 268.343714 
L 248.445989 268.330595 
L 249.315794 268.448686 
L 249.750696 268.464131 
L 250.185598 268.474312 
L 251.055403 268.478666 
L 251.490305 268.440263 
L 253.012463 268.626347 
L 257.361486 268.732589 
L 257.796388 268.573874 
L 258.23129 268.340636 
L 258.883644 268.214285 
L 259.318546 268.137056 
L 260.18835 268.117521 
L 260.623253 268.024949 
L 261.275606 268.222825 
L 264.754824 267.904768 
L 265.624629 267.77422 
L 268.668945 268.059657 
L 269.103847 268.057589 
L 271.060907 268.293313 
L 271.278358 268.362156 
L 271.713261 268.298703 
L 272.148163 268.277465 
L 272.583065 268.13805 
L 273.235419 268.09429 
L 274.540125 267.932617 
L 275.627381 267.863592 
L 276.279735 267.752529 
L 277.801892 267.956491 
L 278.236795 267.937013 
L 279.976404 268.045975 
L 280.411306 268.074006 
L 280.846208 268.137887 
L 281.281111 268.122815 
L 281.716013 268.247564 
L 282.368366 268.143109 
L 282.803269 268.210926 
L 283.455622 268.1081 
L 284.325427 268.095847 
L 284.760329 267.92443 
L 284.97778 267.921208 
L 285.630133 267.358463 
L 286.499938 267.625262 
L 288.456998 267.363774 
L 289.544254 267.447751 
L 289.979156 267.344562 
L 290.196607 267.401484 
L 290.631509 267.324312 
L 291.066412 267.33396 
L 291.936216 267.337251 
L 292.58857 267.510354 
L 293.893277 267.525286 
L 294.328179 267.372804 
L 294.763081 267.380223 
L 295.632886 267.409321 
L 296.285239 267.761935 
L 296.50269 267.608306 
L 297.155044 265.104437 
L 298.242299 262.386074 
L 299.112104 260.499186 
L 304.11348 251.912194 
L 305.200736 250.484749 
L 306.940345 248.327265 
L 307.375247 247.688256 
L 310.419563 244.312939 
L 312.159172 242.549649 
L 313.463879 241.31793 
L 314.551134 240.536438 
L 317.59545 238.215431 
L 319.335059 237.318144 
L 319.769962 236.96563 
L 324.553887 234.614679 
L 325.423691 234.554595 
L 326.293496 234.261724 
L 327.1633 233.615217 
L 328.250556 233.347262 
L 329.12036 233.224871 
L 330.207616 232.815351 
L 330.642518 232.686368 
L 331.512323 232.490025 
L 331.947225 232.321286 
L 332.382128 232.352571 
L 333.686834 231.98697 
L 334.556639 231.584248 
L 335.426443 231.389575 
L 336.078797 231.460139 
L 336.513699 231.377648 
L 337.600955 231.337308 
L 341.080173 231.041315 
L 341.732526 230.870441 
L 346.516451 230.089637 
L 347.168805 230.135461 
L 347.603707 229.97903 
L 348.473512 229.842299 
L 350.648023 229.8278 
L 351.082925 229.609199 
L 351.517827 229.579003 
L 353.039985 229.32075 
L 354.127241 229.312322 
L 354.562143 229.133872 
L 356.519204 228.892938 
L 356.954106 228.952822 
L 357.389008 228.952075 
L 357.82391 228.991086 
L 358.258813 228.929777 
L 358.911166 228.784628 
L 359.563519 228.564233 
L 360.215873 228.53432 
L 361.303129 228.555565 
L 361.955482 228.571352 
L 362.390384 228.577474 
L 362.607835 228.638602 
L 363.47764 228.501717 
L 364.347444 228.514124 
L 371.958234 228.560719 
L 372.393136 228.681795 
L 373.04549 228.66305 
L 375.00255 228.823921 
L 375.437452 228.706469 
L 375.872355 228.741656 
L 376.742159 228.44124 
L 377.394513 228.489526 
L 378.699219 228.487432 
L 379.569024 228.517365 
L 380.438828 228.241036 
L 380.873731 228.183142 
L 381.308633 228.085862 
L 382.395889 228.185619 
L 383.265693 228.224211 
L 384.5704 228.214985 
L 385.222753 228.127875 
L 386.092558 228.186891 
L 386.962363 228.19467 
L 387.614716 228.082833 
L 388.267069 228.006408 
L 388.919423 227.846924 
L 390.006678 227.66115 
L 390.659032 227.701536 
L 393.703348 227.954903 
L 394.13825 228.063538 
L 395.442957 228.075315 
L 395.877859 228.01751 
L 396.09531 228.053673 
L 396.530213 227.954265 
L 396.747664 228.007943 
L 397.182566 227.923103 
L 397.617468 228.010736 
L 398.05237 227.912907 
L 398.487273 227.810251 
L 398.487273 227.810251 
" style="fill:none;stroke:#000000;stroke-linecap:square;stroke-width:1.5;"/>
   </g>
   <g id="line2d_19">
    <path clip-path="url(#p8c2de22038)" d="M 73.832727 224.207775 
L 79.051555 223.612092 
L 79.703908 221.18369 
L 80.356261 219.519536 
L 81.878419 216.209789 
L 83.400577 213.189637 
L 84.922735 210.707181 
L 85.79254 209.114648 
L 86.227442 208.394153 
L 88.836856 204.117822 
L 89.489209 202.85195 
L 91.228818 200.424535 
L 93.403329 197.153908 
L 93.838232 196.386919 
L 94.490585 195.218549 
L 94.708036 194.571248 
L 94.925487 194.456642 
L 95.142939 193.797645 
L 95.577841 193.060305 
L 95.795292 192.113081 
L 96.012743 192.371129 
L 96.230194 190.863691 
L 96.447645 191.0229 
L 96.882548 189.098558 
L 97.099999 189.458975 
L 97.31745 186.976 
L 97.534901 189.018231 
L 97.752352 185.474825 
L 97.969803 187.106501 
L 98.404706 182.362716 
L 98.622157 184.061815 
L 99.057059 67.022817 
L 99.491961 182.422332 
L 99.926864 210.377775 
L 100.144315 211.236803 
L 100.361766 215.473935 
L 100.579217 215.020512 
L 100.796668 216.532367 
L 101.23157 217.147422 
L 101.449021 218.201735 
L 101.666473 217.777561 
L 101.883924 218.77584 
L 102.101375 218.570459 
L 102.536277 219.090127 
L 102.753728 219.049644 
L 102.971179 219.423694 
L 103.188631 219.299059 
L 103.406082 219.490439 
L 103.840984 219.331926 
L 104.058435 219.346726 
L 104.275886 219.211773 
L 104.493337 219.252275 
L 104.92824 219.048641 
L 105.363142 218.76824 
L 105.580593 218.725012 
L 107.755104 216.907957 
L 108.84236 215.629222 
L 109.929616 214.456814 
L 111.016871 213.140103 
L 112.104127 211.910306 
L 113.843736 209.657764 
L 114.278638 209.165787 
L 114.930992 208.351337 
L 115.800796 207.169997 
L 116.45315 206.32163 
L 117.322954 205.341758 
L 118.41021 203.711296 
L 119.280015 202.524026 
L 121.019624 199.854867 
L 121.671977 198.829688 
L 122.976684 196.392535 
L 124.281391 194.045111 
L 124.716293 192.547808 
L 124.933744 192.194484 
L 125.151195 191.464245 
L 125.368646 191.333336 
L 125.586098 190.272075 
L 125.803549 190.134916 
L 126.238451 188.402819 
L 126.455902 188.401777 
L 126.673353 186.620814 
L 126.890804 187.336872 
L 127.108255 185.416386 
L 127.325707 186.036509 
L 127.760609 182.867361 
L 127.97806 184.43654 
L 128.195511 177.581032 
L 128.412962 185.474695 
L 128.630413 141.542669 
L 128.847865 65.328536 
L 129.065316 96.730052 
L 129.282767 161.922625 
L 129.717669 203.582272 
L 130.370023 211.507061 
L 130.587474 211.771363 
L 130.804925 212.941075 
L 131.022376 212.503404 
L 131.239827 213.745872 
L 131.457278 213.484846 
L 131.89218 214.359962 
L 132.109632 214.361873 
L 132.327083 214.975537 
L 132.544534 214.785607 
L 132.761985 215.072223 
L 133.196887 215.174523 
L 133.414338 215.293873 
L 133.63179 215.187754 
L 133.849241 215.277366 
L 134.066692 215.158682 
L 134.501594 215.200661 
L 134.936496 215.045677 
L 135.371399 214.813318 
L 137.328459 213.765968 
L 138.198263 213.235148 
L 138.633166 212.959945 
L 139.50297 212.334347 
L 141.242579 210.498074 
L 141.677482 210.078837 
L 142.764737 209.020199 
L 146.026504 205.535203 
L 146.461407 205.113681 
L 149.288271 201.571751 
L 150.158076 200.42983 
L 150.592978 199.909388 
L 152.550038 196.651701 
L 152.984941 195.972686 
L 153.637294 195.027143 
L 154.289647 194.050643 
L 154.72455 193.275516 
L 155.376903 192.230719 
L 155.811805 191.142867 
L 156.899061 189.233446 
L 157.116512 188.321918 
L 157.333963 188.065482 
L 157.551414 187.596558 
L 157.768866 186.634596 
L 157.986317 186.813217 
L 158.203768 184.891546 
L 158.421219 185.246613 
L 158.63867 183.788595 
L 159.073572 183.671785 
L 159.291024 180.538678 
L 159.508475 182.842461 
L 159.725926 176.034578 
L 159.943377 182.522077 
L 160.160828 153.402059 
L 160.378279 72.430634 
L 160.59573 82.92209 
L 160.813182 151.032429 
L 161.248084 199.910359 
L 161.682986 206.725817 
L 161.900437 208.552065 
L 162.117888 208.376847 
L 162.335339 209.884012 
L 162.552791 209.444403 
L 162.770242 210.742945 
L 162.987693 210.857256 
L 163.205144 211.212354 
L 163.422595 212.008508 
L 163.640046 211.964994 
L 163.857497 212.60912 
L 164.074949 212.637947 
L 164.509851 213.234057 
L 164.727302 213.299725 
L 164.944753 213.520326 
L 165.162204 213.484597 
L 165.379655 213.65959 
L 165.814558 213.719284 
L 166.684362 213.817149 
L 168.641422 213.238473 
L 170.598483 212.03764 
L 171.033385 211.91054 
L 171.685738 211.451311 
L 172.772994 210.186746 
L 173.425347 209.555124 
L 174.295152 208.675164 
L 175.164956 208.027475 
L 176.034761 206.907787 
L 179.73143 202.617902 
L 180.166333 201.930639 
L 181.036137 200.757702 
L 182.558295 198.537858 
L 182.993197 197.720206 
L 184.515355 195.332673 
L 185.602611 193.284556 
L 186.254964 192.112269 
L 186.472416 191.461098 
L 186.689867 191.207054 
L 187.34222 189.649622 
L 187.559671 188.557066 
L 187.777122 188.514199 
L 187.994573 187.384735 
L 188.429476 186.213816 
L 188.646927 184.805609 
L 188.864378 185.432014 
L 189.081829 183.256029 
L 189.29928 184.250065 
L 189.516731 181.859345 
L 189.951634 180.87274 
L 190.169085 175.955724 
L 190.386536 180.49922 
L 190.821438 60.66476 
L 191.473792 188.165736 
L 191.691243 201.15938 
L 191.908694 203.33139 
L 192.126145 206.853825 
L 192.343596 207.190632 
L 192.778498 208.473962 
L 192.99595 208.297091 
L 193.213401 209.498775 
L 193.430852 209.129443 
L 193.648303 209.814652 
L 194.083205 210.160112 
L 194.300656 210.668098 
L 194.518108 210.583562 
L 194.735559 210.959299 
L 195.822814 211.630458 
L 196.257717 211.753948 
L 197.127521 211.864618 
L 197.562423 211.773941 
L 199.084581 210.941837 
L 199.519484 210.497361 
L 200.389288 210.009678 
L 201.041642 209.560147 
L 201.476544 209.214571 
L 203.433604 207.486974 
L 203.868506 207.16863 
L 205.608115 205.259012 
L 206.260469 204.106146 
L 206.695371 203.470559 
L 207.347725 202.913049 
L 208.43498 201.670194 
L 209.522236 200.385794 
L 214.08871 194.032222 
L 216.04577 190.75974 
L 216.263221 189.952049 
L 216.480672 189.735669 
L 217.133026 188.411676 
L 217.350477 187.091638 
L 217.567928 187.30293 
L 217.785379 186.068726 
L 218.00283 185.714145 
L 218.220281 185.095358 
L 218.437732 183.518001 
L 218.655184 184.446663 
L 218.872635 180.648706 
L 219.090086 182.380966 
L 219.307537 177.407298 
L 219.524988 178.716348 
L 219.742439 168.851994 
L 219.95989 91.082386 
L 220.177342 64.556708 
L 220.612244 173.485095 
L 220.829695 193.931185 
L 221.047146 201.608643 
L 221.482048 206.839568 
L 221.699499 206.476621 
L 221.916951 207.833628 
L 222.134402 207.691517 
L 222.569304 208.954162 
L 222.786755 208.908314 
L 223.004206 209.704686 
L 223.221657 209.555292 
L 223.439109 209.89154 
L 223.874011 210.011608 
L 224.091462 210.207573 
L 224.308913 210.164613 
L 224.526364 210.355487 
L 224.743815 210.255025 
L 225.831071 210.552379 
L 226.048522 210.5376 
L 226.265973 210.367144 
L 226.700876 210.400191 
L 227.135778 210.276813 
L 227.57068 210.100757 
L 227.788131 209.907998 
L 228.223034 209.795086 
L 228.657936 209.398105 
L 229.092838 209.18439 
L 233.22441 205.677892 
L 234.311665 204.634288 
L 234.964019 204.101187 
L 236.268726 202.908249 
L 237.13853 201.886514 
L 237.573432 201.477144 
L 238.225786 200.84274 
L 239.530493 199.540186 
L 239.965395 199.21041 
L 242.357357 196.064338 
L 242.79226 195.503447 
L 244.74932 193.176019 
L 246.923831 190.052981 
L 247.141282 189.798296 
L 247.358733 189.152874 
L 247.576185 188.963615 
L 247.793636 188.369619 
L 248.011087 188.127293 
L 248.228538 187.711953 
L 248.445989 186.938776 
L 248.66344 186.767387 
L 248.880891 185.48489 
L 249.098343 185.585857 
L 249.533245 183.839896 
L 249.750696 183.708882 
L 249.968147 181.931559 
L 250.185598 183.058556 
L 250.403049 179.710286 
L 250.620501 181.209426 
L 250.837952 177.485325 
L 251.055403 177.223834 
L 251.272854 172.230567 
L 251.707756 60.98291 
L 252.142658 168.130246 
L 252.36011 190.159076 
L 252.577561 199.481527 
L 253.012463 204.67063 
L 253.229914 204.268289 
L 253.447365 205.447529 
L 253.664816 205.281538 
L 253.882268 205.662541 
L 254.099719 206.397916 
L 254.31717 206.236303 
L 254.534621 207.003796 
L 254.752072 206.917997 
L 254.969523 207.249209 
L 256.056779 207.760008 
L 256.27423 207.784772 
L 256.709132 207.962792 
L 256.926583 207.984965 
L 257.144035 208.191389 
L 257.578937 208.169403 
L 258.013839 208.117138 
L 258.448741 207.983564 
L 260.405802 206.893167 
L 260.840704 206.699574 
L 261.275606 206.422486 
L 261.92796 206.174339 
L 262.580313 205.780598 
L 263.015215 205.642581 
L 264.102471 204.630477 
L 264.319922 204.524654 
L 264.754824 204.054504 
L 265.189727 203.916963 
L 266.494433 202.938817 
L 266.929336 202.526921 
L 267.581689 201.938213 
L 269.103847 200.529208 
L 270.191103 199.133172 
L 271.060907 197.729707 
L 271.49581 197.252924 
L 271.930712 196.763791 
L 274.540125 192.812077 
L 274.975028 191.997771 
L 275.192479 191.677119 
L 275.627381 190.672733 
L 275.844832 190.037175 
L 276.062283 189.757309 
L 277.801892 185.188935 
L 278.019344 183.790901 
L 278.236795 184.228641 
L 278.454246 182.103855 
L 278.671697 182.808683 
L 279.106599 179.519533 
L 279.32405 179.271775 
L 279.541502 173.838805 
L 279.758953 179.09373 
L 280.193855 60.269167 
L 280.411306 92.935811 
L 280.628757 152.474989 
L 281.06366 196.394333 
L 281.498562 202.955631 
L 282.150915 205.050344 
L 282.368366 204.968073 
L 282.585817 206.169598 
L 282.803269 205.982757 
L 283.238171 207.028161 
L 283.455622 207.251517 
L 283.673073 207.845162 
L 283.890524 207.990446 
L 284.107975 208.46958 
L 284.325427 208.600901 
L 284.760329 209.145427 
L 284.97778 209.09428 
L 285.412682 209.262981 
L 287.152291 209.616418 
L 287.804645 209.267021 
L 288.456998 209.112509 
L 288.8919 208.788785 
L 289.326803 208.711203 
L 290.848961 208.020998 
L 292.371119 206.596834 
L 293.240923 206.017898 
L 293.675825 205.628872 
L 294.54563 205.046059 
L 295.632886 203.948922 
L 296.285239 203.074184 
L 296.50269 202.875482 
L 297.155044 204.617364 
L 297.807397 205.582751 
L 298.677201 206.479091 
L 299.112104 206.930247 
L 300.199359 207.557985 
L 300.851713 208.077815 
L 302.591322 209.115168 
L 303.461126 209.317358 
L 304.983284 210.170236 
L 306.505442 210.856725 
L 306.722894 210.824041 
L 308.679954 211.453377 
L 309.114856 211.386558 
L 311.941721 211.846199 
L 312.376623 212.084757 
L 313.246428 212.20034 
L 314.116232 212.334023 
L 314.551134 212.626392 
L 314.768586 212.653638 
L 315.203488 212.913882 
L 315.420939 212.87146 
L 316.073292 213.128582 
L 316.508195 213.227051 
L 317.59545 213.571596 
L 318.465255 213.792049 
L 319.769962 214.197344 
L 319.987413 214.167577 
L 320.422315 214.284141 
L 321.29212 214.533301 
L 321.509571 214.515593 
L 321.944473 214.680416 
L 322.596826 214.830133 
L 324.771338 215.65229 
L 324.988789 215.61704 
L 325.423691 215.793433 
L 325.641142 215.769629 
L 326.076045 215.905393 
L 326.293496 215.890721 
L 326.945849 216.150047 
L 327.380751 216.146032 
L 328.033105 216.248357 
L 328.685458 216.217852 
L 329.12036 216.30345 
L 329.990165 216.374911 
L 331.947225 217.092516 
L 332.382128 217.066807 
L 334.77409 217.87338 
L 335.208992 217.841365 
L 335.643895 217.84982 
L 335.861346 217.813149 
L 336.296248 217.945169 
L 336.513699 217.938945 
L 336.73115 218.052243 
L 337.166052 217.993071 
L 337.818406 218.36728 
L 338.470759 218.477511 
L 339.340564 218.662733 
L 339.558015 218.650316 
L 339.992917 218.763986 
L 340.862722 218.644195 
L 341.297624 218.731585 
L 342.167429 218.867086 
L 342.602331 219.02811 
L 343.254684 219.062566 
L 343.689587 219.056331 
L 344.34194 219.255682 
L 344.776842 219.455743 
L 345.429196 219.671239 
L 346.516451 219.777384 
L 347.386256 219.637754 
L 348.038609 219.685589 
L 352.170181 220.240684 
L 352.822534 220.43913 
L 353.692339 220.571057 
L 354.127241 220.655051 
L 354.562143 220.745005 
L 357.171557 220.754156 
L 359.563519 220.48706 
L 360.433324 220.245061 
L 360.868226 220.234001 
L 361.303129 220.171631 
L 363.260189 220.740077 
L 365.217249 221.082982 
L 366.304505 220.987999 
L 368.044114 221.420636 
L 368.479016 221.371775 
L 368.913918 221.512518 
L 370.001174 221.527942 
L 370.436076 221.658034 
L 371.523332 221.635371 
L 372.393136 221.396177 
L 372.828039 221.398384 
L 373.262941 221.524617 
L 373.697843 221.519129 
L 374.567648 221.696951 
L 375.220001 221.710324 
L 377.177061 222.03577 
L 377.829415 222.229519 
L 378.264317 222.218191 
L 378.699219 222.157396 
L 379.134122 222.100198 
L 379.569024 222.094104 
L 383.048242 222.822182 
L 384.135498 223.186749 
L 384.5704 223.270535 
L 385.440205 223.428824 
L 386.310009 223.476793 
L 386.962363 223.535497 
L 388.049618 223.631487 
L 388.919423 223.898765 
L 389.354325 223.882129 
L 390.006678 223.723269 
L 390.22413 223.63766 
L 391.963739 224.017076 
L 392.398641 224.126203 
L 396.312761 224.267414 
L 396.965115 224.096872 
L 398.487273 223.931703 
L 398.487273 223.931703 
" style="fill:none;stroke:#000000;stroke-linecap:square;stroke-width:1.5;"/>
   </g>
   <g id="patch_3">
    <path d="M 57.6 307.584 
L 57.6 41.472 
" style="fill:none;stroke:#000000;stroke-linecap:square;stroke-linejoin:miter;stroke-width:0.8;"/>
   </g>
   <g id="patch_4">
    <path d="M 414.72 307.584 
L 414.72 41.472 
" style="fill:none;stroke:#000000;stroke-linecap:square;stroke-linejoin:miter;stroke-width:0.8;"/>
   </g>
   <g id="patch_5">
    <path d="M 57.6 307.584 
L 414.72 307.584 
" style="fill:none;stroke:#000000;stroke-linecap:square;stroke-linejoin:miter;stroke-width:0.8;"/>
   </g>
   <g id="patch_6">
    <path d="M 57.6 41.472 
L 414.72 41.472 
" style="fill:none;stroke:#000000;stroke-linecap:square;stroke-linejoin:miter;stroke-width:0.8;"/>
   </g>
  </g>
 </g>
 <defs>
  <clipPath id="p8c2de22038">
   <rect height="266.112" width="357.12" x="57.6" y="41.472"/>
  </clipPath>
 </defs>
</svg>
