<?xml version="1.0" encoding="utf-8" standalone="no"?>
<!DOCTYPE svg PUBLIC "-//W3C//DTD SVG 1.1//EN"
  "http://www.w3.org/Graphics/SVG/1.1/DTD/svg11.dtd">
<svg height="345.6pt" version="1.1" viewBox="0 0 460.8 345.6" width="460.8pt" xmlns="http://www.w3.org/2000/svg" xmlns:xlink="http://www.w3.org/1999/xlink">
 <metadata>
  <rdf:RDF xmlns:cc="http://creativecommons.org/ns#" xmlns:dc="http://purl.org/dc/elements/1.1/" xmlns:rdf="http://www.w3.org/1999/02/22-rdf-syntax-ns#">
   <cc:Work>
    <dc:type rdf:resource="http://purl.org/dc/dcmitype/StillImage"/>
    <dc:date>2024-08-06T14:41:18.583541</dc:date>
    <dc:format>image/svg+xml</dc:format>
    <dc:creator>
     <cc:Agent>
      <dc:title>Matplotlib v3.4.2, https://matplotlib.org/</dc:title>
     </cc:Agent>
    </dc:creator>
   </cc:Work>
  </rdf:RDF>
 </metadata>
 <defs>
  <style type="text/css">*{stroke-linecap:butt;stroke-linejoin:round;}</style>
 </defs>
 <g id="figure_1">
  <g id="patch_1">
   <path d="M 0 345.6 
L 460.8 345.6 
L 460.8 0 
L 0 0 
z
" style="fill:#ffffff;"/>
  </g>
  <g id="axes_1">
   <g id="patch_2">
    <path d="M 57.6 307.584 
L 414.72 307.584 
L 414.72 41.472 
L 57.6 41.472 
z
" style="fill:#ffffff;"/>
   </g>
   <g id="matplotlib.axis_1">
    <g id="xtick_1">
     <g id="line2d_1">
      <defs>
       <path d="M 0 0 
L 0 3.5 
" id="m64578f77c7" style="stroke:#000000;stroke-width:0.8;"/>
      </defs>
      <g>
       <use style="stroke:#000000;stroke-width:0.8;" x="95.211629" xlink:href="#m64578f77c7" y="307.584"/>
      </g>
     </g>
     <g id="text_1">
      <!-- 0.2 -->
      <g transform="translate(87.260067 322.182437)scale(0.1 -0.1)">
       <defs>
        <path d="M 2034 4250 
Q 1547 4250 1301 3770 
Q 1056 3291 1056 2328 
Q 1056 1369 1301 889 
Q 1547 409 2034 409 
Q 2525 409 2770 889 
Q 3016 1369 3016 2328 
Q 3016 3291 2770 3770 
Q 2525 4250 2034 4250 
z
M 2034 4750 
Q 2819 4750 3233 4129 
Q 3647 3509 3647 2328 
Q 3647 1150 3233 529 
Q 2819 -91 2034 -91 
Q 1250 -91 836 529 
Q 422 1150 422 2328 
Q 422 3509 836 4129 
Q 1250 4750 2034 4750 
z
" id="DejaVuSans-30" transform="scale(0.015625)"/>
        <path d="M 684 794 
L 1344 794 
L 1344 0 
L 684 0 
L 684 794 
z
" id="DejaVuSans-2e" transform="scale(0.015625)"/>
        <path d="M 1228 531 
L 3431 531 
L 3431 0 
L 469 0 
L 469 531 
Q 828 903 1448 1529 
Q 2069 2156 2228 2338 
Q 2531 2678 2651 2914 
Q 2772 3150 2772 3378 
Q 2772 3750 2511 3984 
Q 2250 4219 1831 4219 
Q 1534 4219 1204 4116 
Q 875 4013 500 3803 
L 500 4441 
Q 881 4594 1212 4672 
Q 1544 4750 1819 4750 
Q 2544 4750 2975 4387 
Q 3406 4025 3406 3419 
Q 3406 3131 3298 2873 
Q 3191 2616 2906 2266 
Q 2828 2175 2409 1742 
Q 1991 1309 1228 531 
z
" id="DejaVuSans-32" transform="scale(0.015625)"/>
       </defs>
       <use xlink:href="#DejaVuSans-30"/>
       <use x="63.623047" xlink:href="#DejaVuSans-2e"/>
       <use x="95.410156" xlink:href="#DejaVuSans-32"/>
      </g>
     </g>
    </g>
    <g id="xtick_2">
     <g id="line2d_2">
      <g>
       <use style="stroke:#000000;stroke-width:0.8;" x="139.20545" xlink:href="#m64578f77c7" y="307.584"/>
      </g>
     </g>
     <g id="text_2">
      <!-- 0.4 -->
      <g transform="translate(131.253887 322.182437)scale(0.1 -0.1)">
       <defs>
        <path d="M 2419 4116 
L 825 1625 
L 2419 1625 
L 2419 4116 
z
M 2253 4666 
L 3047 4666 
L 3047 1625 
L 3713 1625 
L 3713 1100 
L 3047 1100 
L 3047 0 
L 2419 0 
L 2419 1100 
L 313 1100 
L 313 1709 
L 2253 4666 
z
" id="DejaVuSans-34" transform="scale(0.015625)"/>
       </defs>
       <use xlink:href="#DejaVuSans-30"/>
       <use x="63.623047" xlink:href="#DejaVuSans-2e"/>
       <use x="95.410156" xlink:href="#DejaVuSans-34"/>
      </g>
     </g>
    </g>
    <g id="xtick_3">
     <g id="line2d_3">
      <g>
       <use style="stroke:#000000;stroke-width:0.8;" x="183.19927" xlink:href="#m64578f77c7" y="307.584"/>
      </g>
     </g>
     <g id="text_3">
      <!-- 0.6 -->
      <g transform="translate(175.247707 322.182437)scale(0.1 -0.1)">
       <defs>
        <path d="M 2113 2584 
Q 1688 2584 1439 2293 
Q 1191 2003 1191 1497 
Q 1191 994 1439 701 
Q 1688 409 2113 409 
Q 2538 409 2786 701 
Q 3034 994 3034 1497 
Q 3034 2003 2786 2293 
Q 2538 2584 2113 2584 
z
M 3366 4563 
L 3366 3988 
Q 3128 4100 2886 4159 
Q 2644 4219 2406 4219 
Q 1781 4219 1451 3797 
Q 1122 3375 1075 2522 
Q 1259 2794 1537 2939 
Q 1816 3084 2150 3084 
Q 2853 3084 3261 2657 
Q 3669 2231 3669 1497 
Q 3669 778 3244 343 
Q 2819 -91 2113 -91 
Q 1303 -91 875 529 
Q 447 1150 447 2328 
Q 447 3434 972 4092 
Q 1497 4750 2381 4750 
Q 2619 4750 2861 4703 
Q 3103 4656 3366 4563 
z
" id="DejaVuSans-36" transform="scale(0.015625)"/>
       </defs>
       <use xlink:href="#DejaVuSans-30"/>
       <use x="63.623047" xlink:href="#DejaVuSans-2e"/>
       <use x="95.410156" xlink:href="#DejaVuSans-36"/>
      </g>
     </g>
    </g>
    <g id="xtick_4">
     <g id="line2d_4">
      <g>
       <use style="stroke:#000000;stroke-width:0.8;" x="227.19309" xlink:href="#m64578f77c7" y="307.584"/>
      </g>
     </g>
     <g id="text_4">
      <!-- 0.8 -->
      <g transform="translate(219.241528 322.182437)scale(0.1 -0.1)">
       <defs>
        <path d="M 2034 2216 
Q 1584 2216 1326 1975 
Q 1069 1734 1069 1313 
Q 1069 891 1326 650 
Q 1584 409 2034 409 
Q 2484 409 2743 651 
Q 3003 894 3003 1313 
Q 3003 1734 2745 1975 
Q 2488 2216 2034 2216 
z
M 1403 2484 
Q 997 2584 770 2862 
Q 544 3141 544 3541 
Q 544 4100 942 4425 
Q 1341 4750 2034 4750 
Q 2731 4750 3128 4425 
Q 3525 4100 3525 3541 
Q 3525 3141 3298 2862 
Q 3072 2584 2669 2484 
Q 3125 2378 3379 2068 
Q 3634 1759 3634 1313 
Q 3634 634 3220 271 
Q 2806 -91 2034 -91 
Q 1263 -91 848 271 
Q 434 634 434 1313 
Q 434 1759 690 2068 
Q 947 2378 1403 2484 
z
M 1172 3481 
Q 1172 3119 1398 2916 
Q 1625 2713 2034 2713 
Q 2441 2713 2670 2916 
Q 2900 3119 2900 3481 
Q 2900 3844 2670 4047 
Q 2441 4250 2034 4250 
Q 1625 4250 1398 4047 
Q 1172 3844 1172 3481 
z
" id="DejaVuSans-38" transform="scale(0.015625)"/>
       </defs>
       <use xlink:href="#DejaVuSans-30"/>
       <use x="63.623047" xlink:href="#DejaVuSans-2e"/>
       <use x="95.410156" xlink:href="#DejaVuSans-38"/>
      </g>
     </g>
    </g>
    <g id="xtick_5">
     <g id="line2d_5">
      <g>
       <use style="stroke:#000000;stroke-width:0.8;" x="271.18691" xlink:href="#m64578f77c7" y="307.584"/>
      </g>
     </g>
     <g id="text_5">
      <!-- 1.0 -->
      <g transform="translate(263.235348 322.182437)scale(0.1 -0.1)">
       <defs>
        <path d="M 794 531 
L 1825 531 
L 1825 4091 
L 703 3866 
L 703 4441 
L 1819 4666 
L 2450 4666 
L 2450 531 
L 3481 531 
L 3481 0 
L 794 0 
L 794 531 
z
" id="DejaVuSans-31" transform="scale(0.015625)"/>
       </defs>
       <use xlink:href="#DejaVuSans-31"/>
       <use x="63.623047" xlink:href="#DejaVuSans-2e"/>
       <use x="95.410156" xlink:href="#DejaVuSans-30"/>
      </g>
     </g>
    </g>
    <g id="xtick_6">
     <g id="line2d_6">
      <g>
       <use style="stroke:#000000;stroke-width:0.8;" x="315.18073" xlink:href="#m64578f77c7" y="307.584"/>
      </g>
     </g>
     <g id="text_6">
      <!-- 1.2 -->
      <g transform="translate(307.229168 322.182437)scale(0.1 -0.1)">
       <use xlink:href="#DejaVuSans-31"/>
       <use x="63.623047" xlink:href="#DejaVuSans-2e"/>
       <use x="95.410156" xlink:href="#DejaVuSans-32"/>
      </g>
     </g>
    </g>
    <g id="xtick_7">
     <g id="line2d_7">
      <g>
       <use style="stroke:#000000;stroke-width:0.8;" x="359.174551" xlink:href="#m64578f77c7" y="307.584"/>
      </g>
     </g>
     <g id="text_7">
      <!-- 1.4 -->
      <g transform="translate(351.222988 322.182437)scale(0.1 -0.1)">
       <use xlink:href="#DejaVuSans-31"/>
       <use x="63.623047" xlink:href="#DejaVuSans-2e"/>
       <use x="95.410156" xlink:href="#DejaVuSans-34"/>
      </g>
     </g>
    </g>
    <g id="xtick_8">
     <g id="line2d_8">
      <g>
       <use style="stroke:#000000;stroke-width:0.8;" x="403.168371" xlink:href="#m64578f77c7" y="307.584"/>
      </g>
     </g>
     <g id="text_8">
      <!-- 1.6 -->
      <g transform="translate(395.216808 322.182437)scale(0.1 -0.1)">
       <use xlink:href="#DejaVuSans-31"/>
       <use x="63.623047" xlink:href="#DejaVuSans-2e"/>
       <use x="95.410156" xlink:href="#DejaVuSans-36"/>
      </g>
     </g>
    </g>
   </g>
   <g id="matplotlib.axis_2">
    <g id="ytick_1">
     <g id="line2d_9">
      <defs>
       <path d="M 0 0 
L -3.5 0 
" id="m9697a390d6" style="stroke:#000000;stroke-width:0.8;"/>
      </defs>
      <g>
       <use style="stroke:#000000;stroke-width:0.8;" x="57.6" xlink:href="#m9697a390d6" y="292.352117"/>
      </g>
     </g>
     <g id="text_9">
      <!-- −100 -->
      <g transform="translate(23.132812 296.151335)scale(0.1 -0.1)">
       <defs>
        <path d="M 678 2272 
L 4684 2272 
L 4684 1741 
L 678 1741 
L 678 2272 
z
" id="DejaVuSans-2212" transform="scale(0.015625)"/>
       </defs>
       <use xlink:href="#DejaVuSans-2212"/>
       <use x="83.789062" xlink:href="#DejaVuSans-31"/>
       <use x="147.412109" xlink:href="#DejaVuSans-30"/>
       <use x="211.035156" xlink:href="#DejaVuSans-30"/>
      </g>
     </g>
    </g>
    <g id="ytick_2">
     <g id="line2d_10">
      <g>
       <use style="stroke:#000000;stroke-width:0.8;" x="57.6" xlink:href="#m9697a390d6" y="255.292915"/>
      </g>
     </g>
     <g id="text_10">
      <!-- −80 -->
      <g transform="translate(29.495313 259.092134)scale(0.1 -0.1)">
       <use xlink:href="#DejaVuSans-2212"/>
       <use x="83.789062" xlink:href="#DejaVuSans-38"/>
       <use x="147.412109" xlink:href="#DejaVuSans-30"/>
      </g>
     </g>
    </g>
    <g id="ytick_3">
     <g id="line2d_11">
      <g>
       <use style="stroke:#000000;stroke-width:0.8;" x="57.6" xlink:href="#m9697a390d6" y="218.233714"/>
      </g>
     </g>
     <g id="text_11">
      <!-- −60 -->
      <g transform="translate(29.495313 222.032932)scale(0.1 -0.1)">
       <use xlink:href="#DejaVuSans-2212"/>
       <use x="83.789062" xlink:href="#DejaVuSans-36"/>
       <use x="147.412109" xlink:href="#DejaVuSans-30"/>
      </g>
     </g>
    </g>
    <g id="ytick_4">
     <g id="line2d_12">
      <g>
       <use style="stroke:#000000;stroke-width:0.8;" x="57.6" xlink:href="#m9697a390d6" y="181.174512"/>
      </g>
     </g>
     <g id="text_12">
      <!-- −40 -->
      <g transform="translate(29.495313 184.973731)scale(0.1 -0.1)">
       <use xlink:href="#DejaVuSans-2212"/>
       <use x="83.789062" xlink:href="#DejaVuSans-34"/>
       <use x="147.412109" xlink:href="#DejaVuSans-30"/>
      </g>
     </g>
    </g>
    <g id="ytick_5">
     <g id="line2d_13">
      <g>
       <use style="stroke:#000000;stroke-width:0.8;" x="57.6" xlink:href="#m9697a390d6" y="144.115311"/>
      </g>
     </g>
     <g id="text_13">
      <!-- −20 -->
      <g transform="translate(29.495313 147.914529)scale(0.1 -0.1)">
       <use xlink:href="#DejaVuSans-2212"/>
       <use x="83.789062" xlink:href="#DejaVuSans-32"/>
       <use x="147.412109" xlink:href="#DejaVuSans-30"/>
      </g>
     </g>
    </g>
    <g id="ytick_6">
     <g id="line2d_14">
      <g>
       <use style="stroke:#000000;stroke-width:0.8;" x="57.6" xlink:href="#m9697a390d6" y="107.056109"/>
      </g>
     </g>
     <g id="text_14">
      <!-- 0 -->
      <g transform="translate(44.2375 110.855328)scale(0.1 -0.1)">
       <use xlink:href="#DejaVuSans-30"/>
      </g>
     </g>
    </g>
    <g id="ytick_7">
     <g id="line2d_15">
      <g>
       <use style="stroke:#000000;stroke-width:0.8;" x="57.6" xlink:href="#m9697a390d6" y="69.996908"/>
      </g>
     </g>
     <g id="text_15">
      <!-- 20 -->
      <g transform="translate(37.875 73.796126)scale(0.1 -0.1)">
       <use xlink:href="#DejaVuSans-32"/>
       <use x="63.623047" xlink:href="#DejaVuSans-30"/>
      </g>
     </g>
    </g>
   </g>
   <g id="line2d_16">
    <path clip-path="url(#p62825f9412)" d="M 73.832727 193.056371 
L 74.050178 197.750537 
L 74.26763 197.275503 
L 74.485081 199.262613 
L 74.702532 199.251058 
L 76.22469 204.1941 
L 76.442141 204.606372 
L 76.659592 205.289219 
L 76.877043 205.582261 
L 77.311945 206.517803 
L 78.18175 207.848809 
L 79.051555 208.751927 
L 80.573712 218.15482 
L 81.660968 223.222594 
L 82.965675 228.855576 
L 84.487833 234.850932 
L 85.79254 239.35892 
L 90.141562 252.860926 
L 91.881172 257.393587 
L 92.968427 259.905042 
L 97.31745 269.088508 
L 101.666473 276.801493 
L 102.318826 277.748441 
L 102.536277 278.112597 
L 102.753728 278.044837 
L 102.971179 277.444583 
L 103.188631 277.200546 
L 103.623533 277.599304 
L 105.363142 280.257359 
L 110.364518 285.990266 
L 111.016871 286.547009 
L 112.321578 287.682371 
L 113.626285 288.623497 
L 114.930992 289.347258 
L 115.800796 289.818204 
L 117.540406 290.772641 
L 118.41021 291.230602 
L 121.237075 292.4482 
L 121.671977 292.585511 
L 122.106879 292.827743 
L 123.846488 293.364322 
L 124.498842 293.655179 
L 127.97806 294.504532 
L 129.282767 294.781712 
L 131.022376 294.913616 
L 132.109632 295.068348 
L 132.761985 295.161325 
L 133.63179 295.214473 
L 134.066692 295.244645 
L 136.676105 295.371104 
L 137.111008 295.367637 
L 138.633166 295.474512 
L 139.50297 295.437105 
L 139.720421 295.31863 
L 141.46003 295.448205 
L 142.112384 295.420113 
L 142.547286 295.468041 
L 144.286895 295.387391 
L 145.591602 295.430152 
L 149.505722 295.19399 
L 151.245332 295.181583 
L 151.897685 295.06496 
L 152.767489 294.916904 
L 155.376903 294.709576 
L 156.464159 294.579571 
L 157.116512 294.674349 
L 158.63867 294.611546 
L 159.073572 294.583967 
L 159.943377 294.524645 
L 160.813182 294.612542 
L 161.465535 294.559937 
L 163.205144 294.434729 
L 164.2924 294.460297 
L 166.901813 294.578319 
L 168.641422 294.530418 
L 169.293776 294.478123 
L 169.728678 294.400866 
L 171.468287 294.353084 
L 172.120641 294.241469 
L 172.338092 294.129374 
L 172.772994 294.176131 
L 173.425347 293.650715 
L 173.642799 293.192801 
L 174.077701 292.925792 
L 174.730054 292.910231 
L 174.947505 292.651477 
L 175.382408 290.411197 
L 175.81731 289.45158 
L 176.252212 289.456254 
L 177.991821 290.201703 
L 178.426723 290.145239 
L 179.296528 290.366688 
L 180.383784 290.644181 
L 181.253588 290.917421 
L 183.863002 291.639848 
L 186.037513 292.188327 
L 186.689867 292.379434 
L 188.429476 292.696304 
L 189.081829 292.699203 
L 190.603987 292.93945 
L 191.25634 292.913218 
L 192.561047 292.748814 
L 192.99595 292.034881 
L 193.430852 291.911559 
L 193.865754 291.923809 
L 194.083205 291.84692 
L 194.518108 291.943727 
L 194.95301 291.927431 
L 195.387912 291.970948 
L 196.040265 291.683347 
L 196.692619 291.814878 
L 197.344972 291.95889 
L 197.562423 292.0306 
L 198.214777 291.406051 
L 198.649679 291.351464 
L 201.693995 292.041329 
L 207.130273 292.464217 
L 209.087334 292.447049 
L 210.826943 292.214475 
L 211.479296 292.193035 
L 213.871259 292.199354 
L 214.08871 292.235028 
L 214.741063 292.014179 
L 216.698123 291.987339 
L 217.567928 291.9557 
L 218.655184 291.884383 
L 221.482048 291.652413 
L 221.699499 291.610592 
L 222.134402 291.684637 
L 222.569304 291.664689 
L 225.396169 291.685356 
L 225.831071 291.769396 
L 229.745191 291.947036 
L 230.614996 292.036323 
L 232.572056 291.923438 
L 233.441861 292.001403 
L 235.18147 291.912557 
L 238.225786 291.693839 
L 238.660688 291.540723 
L 240.400297 291.467871 
L 241.705004 291.506762 
L 242.79226 291.263535 
L 243.227162 291.246492 
L 243.879515 291.265077 
L 244.531869 291.316679 
L 246.923831 291.215092 
L 247.576185 291.33449 
L 249.098343 291.145837 
L 249.750696 291.099615 
L 250.620501 291.118253 
L 252.142658 290.53289 
L 252.36011 290.563395 
L 253.012463 290.200127 
L 253.447365 290.216451 
L 253.664816 290.130517 
L 253.882268 290.215061 
L 254.31717 290.211377 
L 254.534621 289.878796 
L 254.969523 287.737416 
L 255.186974 287.296983 
L 255.621877 286.954996 
L 256.056779 285.323472 
L 256.491681 285.144496 
L 257.578937 285.718331 
L 259.753448 287.066282 
L 260.405802 287.257678 
L 260.623253 287.393938 
L 260.840704 287.29574 
L 261.275606 286.356124 
L 261.493057 286.202745 
L 261.710508 286.188861 
L 263.450118 286.904694 
L 263.88502 286.896469 
L 264.754824 287.208448 
L 265.407178 287.425872 
L 266.276982 287.748696 
L 266.711885 287.911001 
L 267.146787 287.990655 
L 267.581689 288.054247 
L 268.451494 288.320479 
L 268.886396 288.365854 
L 269.7562 288.645322 
L 270.191103 288.705078 
L 270.626005 288.810153 
L 271.713261 288.93299 
L 273.017967 289.214425 
L 273.887772 289.267516 
L 274.540125 289.293645 
L 274.975028 289.30974 
L 278.671697 289.838863 
L 279.106599 289.842689 
L 281.281111 290.021881 
L 281.716013 290.079928 
L 283.890524 290.046279 
L 284.325427 290.121999 
L 284.760329 290.112168 
L 285.195231 290.175171 
L 285.847584 290.168443 
L 288.022096 290.351509 
L 290.848961 290.492005 
L 291.936216 290.533413 
L 295.415434 290.513643 
L 296.067788 290.460898 
L 296.285239 290.499323 
L 296.50269 290.420661 
L 298.242299 281.501073 
L 299.329555 277.189448 
L 300.634262 272.41151 
L 301.286615 270.091911 
L 303.243675 264.628404 
L 304.983284 260.235187 
L 307.375247 254.947096 
L 308.462503 252.957921 
L 309.114856 251.825704 
L 310.202112 250.017901 
L 310.637014 249.299839 
L 311.72427 247.576648 
L 315.203488 242.47637 
L 316.508195 240.812798 
L 317.59545 237.488202 
L 317.812901 237.174547 
L 318.247804 236.037997 
L 318.900157 235.307818 
L 319.335059 234.951514 
L 319.769962 234.589036 
L 320.422315 234.066016 
L 320.857217 233.676561 
L 321.509571 233.152308 
L 323.684082 231.496026 
L 325.423691 230.736337 
L 326.293496 230.411486 
L 329.337812 229.879897 
L 330.425067 229.612344 
L 331.512323 229.531341 
L 333.469383 229.311098 
L 337.166052 228.59953 
L 338.035857 228.357758 
L 339.340564 228.33393 
L 346.081549 227.575656 
L 346.516451 227.46808 
L 348.473512 227.080587 
L 351.517827 226.280045 
L 351.95273 226.161625 
L 352.387632 225.862049 
L 352.822534 225.721007 
L 356.301752 224.996314 
L 357.389008 224.896719 
L 357.82391 224.924376 
L 358.693715 224.806773 
L 360.433324 224.700808 
L 361.085677 224.645144 
L 363.47764 224.5239 
L 364.782347 224.26557 
L 365.4347 224.174686 
L 366.304505 224.136322 
L 371.740783 223.407825 
L 372.610588 223.207803 
L 373.480392 223.219358 
L 373.915294 223.18193 
L 375.220001 223.33842 
L 379.134122 222.768463 
L 380.221377 222.662924 
L 381.960986 222.510474 
L 382.395889 222.453448 
L 382.830791 222.418413 
L 383.265693 222.359951 
L 384.135498 222.260615 
L 385.222753 222.117083 
L 385.657656 222.04415 
L 386.092558 221.987303 
L 386.962363 221.783228 
L 387.614716 221.705865 
L 388.049618 221.902416 
L 388.48452 221.949437 
L 388.919423 222.095796 
L 390.659032 221.99534 
L 391.528836 221.861756 
L 393.920799 221.344555 
L 395.008055 221.065449 
L 395.442957 220.939012 
L 395.877859 220.864117 
L 396.312761 220.782534 
L 398.487273 220.162331 
L 398.487273 220.162331 
" style="fill:none;stroke:#000000;stroke-linecap:square;stroke-width:1.5;"/>
   </g>
   <g id="line2d_17">
    <path clip-path="url(#p62825f9412)" d="M 73.832727 209.896397 
L 74.485081 209.933614 
L 75.789787 209.990217 
L 76.007239 210.13111 
L 76.22469 210.043947 
L 76.442141 210.137839 
L 76.877043 210.032515 
L 77.094494 210.160422 
L 77.311945 209.874742 
L 77.529397 210.230308 
L 77.746848 209.859574 
L 77.964299 210.140534 
L 78.18175 210.134062 
L 78.399201 209.83083 
L 78.616652 210.581774 
L 78.834103 209.622645 
L 79.051555 210.617308 
L 79.486457 204.386734 
L 79.703908 202.956839 
L 79.921359 198.840819 
L 80.13881 199.801896 
L 80.356261 193.651514 
L 80.573712 195.156919 
L 80.791164 189.602289 
L 81.226066 186.172541 
L 81.443517 96.796991 
L 81.660968 53.568 
L 82.09587 165.84443 
L 82.313322 189.407792 
L 82.530773 197.984623 
L 82.748224 197.722456 
L 82.965675 200.172095 
L 83.183126 197.064648 
L 83.400577 197.584705 
L 83.618028 195.836589 
L 84.487833 193.149545 
L 84.705284 191.960945 
L 84.922735 191.469328 
L 86.444893 184.295621 
L 86.662344 182.055976 
L 86.879795 182.727218 
L 87.097247 177.546885 
L 87.314698 180.682325 
L 87.532149 142.229803 
L 87.7496 70.325386 
L 87.967051 77.945506 
L 88.401953 159.270529 
L 88.619404 180.764653 
L 89.054307 189.918331 
L 89.271758 190.902167 
L 89.489209 190.503641 
L 89.70666 191.158744 
L 89.924111 190.023848 
L 90.141562 190.387849 
L 90.359014 189.635287 
L 90.576465 189.405053 
L 90.793916 189.339938 
L 91.011367 188.456828 
L 91.228818 188.440367 
L 92.533525 183.895937 
L 92.968427 182.487688 
L 93.185878 181.004231 
L 93.403329 180.890147 
L 93.620781 178.358469 
L 93.838232 178.368375 
L 94.055683 175.099258 
L 94.273134 174.178443 
L 94.490585 160.961141 
L 94.925487 66.391721 
L 95.577841 164.817641 
L 95.795292 177.832368 
L 96.230194 185.091007 
L 96.447645 184.992516 
L 96.665097 185.844358 
L 97.099999 185.041836 
L 97.31745 184.88517 
L 97.534901 184.14198 
L 97.752352 183.869288 
L 97.969803 183.232571 
L 98.187254 182.964483 
L 99.491961 179.904081 
L 100.144315 177.845743 
L 100.361766 176.698775 
L 100.579217 176.254851 
L 101.23157 172.614061 
L 101.449021 169.804738 
L 101.666473 161.160707 
L 102.101375 76.292103 
L 102.318826 85.223283 
L 102.753728 144.915194 
L 102.971179 164.19234 
L 103.406082 177.26362 
L 103.840984 180.327148 
L 104.058435 181.209195 
L 104.275886 181.517902 
L 104.493337 182.133066 
L 104.710789 182.054907 
L 104.92824 182.290445 
L 105.580593 181.868739 
L 106.232946 180.718941 
L 107.102751 178.882362 
L 108.407458 173.583751 
L 108.624909 172.604623 
L 109.277262 167.389602 
L 109.494714 161.914077 
L 109.712165 135.602629 
L 109.929616 90.473917 
L 110.147067 77.476439 
L 111.016871 165.111992 
L 111.451774 175.997911 
L 111.886676 179.739582 
L 112.539029 182.06875 
L 112.973932 182.736146 
L 113.408834 182.817803 
L 114.278638 182.35336 
L 114.713541 181.6681 
L 115.800796 178.697613 
L 117.322954 172.743765 
L 117.540406 170.789288 
L 117.757857 169.891458 
L 118.192759 164.106144 
L 118.41021 145.988198 
L 118.627661 96.915153 
L 118.845112 73.804181 
L 119.714917 165.788629 
L 120.149819 176.399491 
L 120.584721 179.70871 
L 121.454526 181.490443 
L 121.671977 181.835045 
L 121.889428 181.798429 
L 122.324331 181.871358 
L 122.759233 181.747761 
L 124.06394 179.763986 
L 124.498842 178.603004 
L 125.803549 173.407758 
L 126.021 172.514702 
L 126.455902 169.284678 
L 126.890804 162.926567 
L 127.108255 140.286124 
L 127.325707 93.222352 
L 127.543158 75.517893 
L 128.412962 163.952513 
L 128.847865 175.234454 
L 129.282767 179.449664 
L 130.152571 182.668952 
L 130.370023 183.062642 
L 130.804925 183.233389 
L 132.109632 181.938066 
L 132.979436 180.264123 
L 133.414338 179.36154 
L 133.63179 178.869394 
L 135.371399 171.812707 
L 135.806301 168.508779 
L 136.241203 161.165552 
L 136.458654 132.446046 
L 136.676105 86.410376 
L 136.893557 78.356182 
L 137.54591 155.843121 
L 137.980812 173.28444 
L 138.415715 178.509146 
L 138.633166 180.164507 
L 139.285519 182.107829 
L 139.720421 182.720916 
L 139.937872 182.568555 
L 140.155324 182.634048 
L 140.807677 182.133953 
L 141.677482 180.41168 
L 142.547286 177.658479 
L 143.19964 175.123361 
L 143.851993 171.969413 
L 144.504346 165.960603 
L 144.721797 163.018281 
L 144.939249 145.764053 
L 145.374151 76.271254 
L 145.591602 90.971449 
L 146.243955 159.915112 
L 146.678858 173.22522 
L 147.11376 178.180406 
L 147.548662 180.345259 
L 147.983565 181.842681 
L 148.201016 182.348104 
L 148.853369 182.800477 
L 149.288271 182.731321 
L 149.723174 182.422994 
L 151.02788 180.003644 
L 151.680234 178.417758 
L 152.115136 176.96801 
L 152.767489 174.491726 
L 153.637294 169.320175 
L 154.072196 163.441699 
L 154.289647 145.959933 
L 154.72455 75.769386 
L 154.942001 94.084407 
L 155.376903 146.904902 
L 155.594354 162.247543 
L 156.029257 173.955796 
L 156.464159 177.843091 
L 156.899061 179.568458 
L 157.551414 181.210688 
L 157.986317 181.602124 
L 158.421219 181.63127 
L 158.63867 181.662456 
L 159.725926 180.653604 
L 160.59573 178.759833 
L 162.117888 174.087906 
L 162.770242 170.758686 
L 163.422595 164.789107 
L 163.640046 161.438145 
L 163.857497 142.927739 
L 164.2924 76.068702 
L 164.509851 92.309545 
L 164.944753 143.996114 
L 165.379655 167.427532 
L 165.814558 174.863157 
L 166.24946 177.87328 
L 166.901813 180.877519 
L 167.336716 182.132427 
L 167.771618 182.829542 
L 167.989069 182.86447 
L 168.641422 182.573374 
L 169.076325 182.158363 
L 169.946129 180.654331 
L 171.033385 178.188054 
L 172.120641 173.932236 
L 172.555543 171.633789 
L 173.207896 164.994142 
L 173.425347 160.879783 
L 173.642799 136.231829 
L 173.86025 91.028676 
L 174.077701 76.75885 
L 174.947505 162.415618 
L 175.382408 172.740353 
L 175.81731 176.961062 
L 176.469663 179.734524 
L 176.687114 179.994857 
L 177.122017 180.799732 
L 177.339468 180.971361 
L 177.77437 180.909686 
L 178.209272 180.329255 
L 178.426723 180.101028 
L 179.296528 178.254954 
L 180.383784 175.216327 
L 180.818686 173.902874 
L 181.688491 170.097452 
L 182.340844 164.365238 
L 182.558295 161.018349 
L 182.775746 148.710752 
L 183.210648 82.57131 
L 183.4281 85.457781 
L 184.080453 150.412066 
L 184.515355 166.251479 
L 184.950258 171.592768 
L 185.38516 174.754036 
L 185.820062 176.994134 
L 186.254964 178.124514 
L 186.689867 178.959343 
L 187.34222 179.357041 
L 188.212025 178.511123 
L 189.29928 176.309239 
L 189.951634 174.704082 
L 190.603987 172.438331 
L 191.473792 168.322417 
L 191.908694 164.998742 
L 192.126145 162.191352 
L 192.343596 157.773523 
L 192.561047 140.482509 
L 192.99595 80.389024 
L 193.213401 90.699003 
L 193.865754 155.041914 
L 194.300656 168.847883 
L 194.735559 173.902141 
L 195.387912 177.692172 
L 195.822814 179.098715 
L 196.257717 179.682062 
L 196.692619 179.952885 
L 197.344972 180.080956 
L 197.779875 179.886724 
L 197.997326 179.747223 
L 198.86713 178.583907 
L 199.519484 177.083199 
L 200.82419 173.001758 
L 201.041642 172.175447 
L 201.911446 166.529323 
L 202.128897 164.378498 
L 202.346348 161.057039 
L 202.5638 154.922635 
L 203.216153 80.862507 
L 204.085957 157.209759 
L 204.52086 168.363406 
L 204.955762 173.380381 
L 205.608115 177.343198 
L 206.043018 179.000436 
L 206.695371 179.815328 
L 206.912822 179.950087 
L 207.565176 179.764488 
L 208.000078 179.192161 
L 209.739687 176.03223 
L 210.174589 174.972807 
L 210.39204 174.42277 
L 211.696747 169.137025 
L 212.13165 165.744106 
L 212.566552 159.689136 
L 212.784003 148.497132 
L 213.218905 84.145948 
L 213.436356 84.957186 
L 214.08871 150.711068 
L 214.523612 165.432335 
L 214.958514 171.347536 
L 215.393417 174.899598 
L 215.828319 177.120157 
L 216.263221 178.66598 
L 216.915574 179.792558 
L 217.350477 179.947883 
L 217.567928 179.996319 
L 218.220281 179.625452 
L 219.742439 176.719689 
L 220.394793 175.042778 
L 221.264597 171.914984 
L 221.916951 169.200092 
L 222.351853 166.340831 
L 222.569304 164.777029 
L 223.004206 157.947546 
L 223.221657 144.514524 
L 223.65656 81.646791 
L 223.874011 88.775171 
L 224.526364 149.91611 
L 224.961267 163.732926 
L 225.396169 169.585329 
L 226.048522 174.718887 
L 226.700876 177.300138 
L 227.135778 178.429633 
L 228.005582 179.246383 
L 228.875387 178.766204 
L 229.310289 178.432289 
L 230.832447 175.363107 
L 232.354605 170.619027 
L 233.006959 167.039037 
L 233.441861 162.987924 
L 233.659312 159.342148 
L 233.876763 148.292793 
L 234.311665 86.113807 
L 234.529116 83.727984 
L 235.398921 158.528268 
L 235.833823 169.713155 
L 236.268726 175.155434 
L 236.703628 178.362922 
L 237.13853 180.06111 
L 237.573432 180.950635 
L 238.008335 181.556782 
L 238.443237 181.596928 
L 238.878139 181.64028 
L 239.530493 181.032461 
L 241.270102 177.172708 
L 241.922455 175.571843 
L 242.79226 172.6936 
L 243.227162 170.915611 
L 243.879515 167.082815 
L 244.096966 165.432333 
L 244.531869 159.556924 
L 244.74932 144.424861 
L 245.184222 79.611806 
L 245.401673 89.423264 
L 246.054027 154.286075 
L 246.488929 168.1948 
L 246.923831 173.160999 
L 247.576185 176.72875 
L 248.228538 178.486881 
L 249.315794 179.697366 
L 249.533245 179.765894 
L 250.185598 179.327663 
L 250.620501 178.741855 
L 251.055403 177.886895 
L 252.577561 174.230008 
L 253.229914 172.267008 
L 253.664816 170.214429 
L 254.534621 164.817754 
L 254.969523 159.042711 
L 255.186974 146.135079 
L 255.621877 82.787804 
L 255.839328 86.046489 
L 256.491681 147.305462 
L 256.926583 164.062606 
L 257.361486 171.244374 
L 257.796388 174.799977 
L 258.23129 176.916246 
L 258.666193 178.068842 
L 259.101095 178.578765 
L 259.535997 178.798853 
L 259.753448 178.802177 
L 260.18835 178.487946 
L 260.623253 178.366522 
L 261.493057 177.466088 
L 261.92796 176.814855 
L 262.362862 175.933502 
L 262.797764 174.696115 
L 263.232666 173.790655 
L 263.88502 171.763505 
L 264.537373 169.379498 
L 265.189727 166.187956 
L 265.624629 162.397483 
L 265.84208 159.234485 
L 266.059531 152.844683 
L 266.711885 82.813148 
L 266.929336 97.952919 
L 267.364238 142.664275 
L 267.79914 161.96945 
L 268.234043 168.934556 
L 268.886396 173.388287 
L 269.538749 175.943648 
L 269.973652 177.106464 
L 270.626005 177.95859 
L 271.278358 178.167257 
L 271.49581 178.235996 
L 272.365614 177.741994 
L 272.800516 177.320151 
L 273.887772 175.839826 
L 274.757577 173.763229 
L 275.40993 171.487325 
L 275.844832 169.577842 
L 276.497186 166.046075 
L 276.932088 161.914586 
L 277.149539 157.158293 
L 277.36699 138.114152 
L 277.801892 82.203198 
L 278.019344 90.7189 
L 278.671697 146.296511 
L 279.106599 162.742685 
L 279.541502 169.846093 
L 279.976404 173.851615 
L 280.411306 176.08737 
L 280.846208 177.451339 
L 281.498562 178.414302 
L 281.716013 178.517372 
L 282.368366 178.548852 
L 282.803269 178.232913 
L 283.02072 178.226692 
L 283.455622 177.72784 
L 283.890524 177.286924 
L 284.97778 175.553839 
L 285.630133 173.951477 
L 286.499938 170.991741 
L 287.152291 167.856436 
L 287.804645 162.309172 
L 288.022096 157.588976 
L 288.239547 142.06744 
L 288.674449 84.0433 
L 288.8919 87.684889 
L 289.544254 145.257152 
L 289.979156 161.044215 
L 290.414058 167.875817 
L 290.848961 171.973906 
L 291.283863 174.559385 
L 292.371119 177.877202 
L 293.240923 179.152574 
L 293.458374 179.260952 
L 293.893277 179.674829 
L 294.763081 179.475396 
L 295.197983 179.201833 
L 296.067788 177.652848 
L 296.285239 177.067812 
L 296.50269 176.833601 
L 297.807397 188.714252 
L 298.45975 193.127146 
L 299.981908 200.987929 
L 300.634262 203.84345 
L 302.15642 209.036173 
L 303.026224 211.294103 
L 304.330931 213.997939 
L 305.418187 215.935456 
L 306.07054 216.9066 
L 307.810149 219.414311 
L 309.767209 221.451814 
L 311.506818 222.67002 
L 313.028976 223.420875 
L 313.463879 223.682937 
L 313.898781 223.837304 
L 314.551134 224.11183 
L 314.986037 224.295283 
L 315.63839 224.400368 
L 316.290743 224.534964 
L 317.160548 224.526022 
L 318.247804 224.677426 
L 319.335059 224.968419 
L 320.422315 224.99307 
L 324.336435 225.148334 
L 325.423691 225.027091 
L 325.858593 225.095455 
L 326.728398 224.879751 
L 327.1633 224.958243 
L 328.902909 224.566533 
L 329.990165 224.527791 
L 330.642518 224.458598 
L 331.294872 224.245753 
L 331.947225 224.18708 
L 332.81703 224.109307 
L 333.251932 224.107109 
L 334.121737 224.082836 
L 334.556639 224.091938 
L 338.035857 223.58903 
L 338.68821 223.346244 
L 339.775466 223.294473 
L 340.862722 223.33718 
L 342.38488 223.360685 
L 342.819782 223.249543 
L 343.254684 223.218986 
L 343.689587 223.210764 
L 344.124489 223.235551 
L 350.865474 222.461394 
L 351.300376 222.491954 
L 351.735279 222.486001 
L 352.605083 222.417302 
L 353.257437 222.221128 
L 353.692339 222.133883 
L 354.127241 222.089687 
L 354.562143 221.969603 
L 354.997046 221.969455 
L 357.171557 221.786134 
L 357.606459 221.796697 
L 358.041362 221.611882 
L 358.693715 221.537849 
L 359.346068 221.401927 
L 362.390384 221.188881 
L 363.042738 221.174302 
L 363.912542 221.036494 
L 364.347444 221.055909 
L 365.217249 220.963955 
L 366.521956 221.057675 
L 367.39176 220.952186 
L 368.044114 220.92903 
L 368.696467 220.942934 
L 370.870979 220.769478 
L 371.305881 220.624037 
L 371.740783 220.647001 
L 376.95961 220.31164 
L 378.699219 220.043606 
L 381.526084 219.8907 
L 382.61334 219.525601 
L 383.483144 219.255475 
L 383.918047 219.364992 
L 384.787851 219.326976 
L 385.222753 219.292979 
L 385.657656 219.201181 
L 386.52746 219.183276 
L 388.919423 219.047247 
L 389.571776 218.958617 
L 393.050994 218.488701 
L 393.485897 218.434734 
L 394.790603 218.340466 
L 395.660408 218.207615 
L 396.09531 218.1758 
L 398.05237 217.825605 
L 398.487273 217.774865 
L 398.487273 217.774865 
" style="fill:none;stroke:#000000;stroke-linecap:square;stroke-width:1.5;"/>
   </g>
   <g id="line2d_18">
    <path clip-path="url(#p62825f9412)" d="M 73.832727 205.837808 
L 74.26763 205.617009 
L 74.702532 205.55507 
L 78.399201 203.873773 
L 78.616652 203.881109 
L 79.051555 203.597209 
L 81.226066 206.965489 
L 86.662344 213.333922 
L 88.836856 215.088905 
L 89.271758 215.373958 
L 89.70666 215.748298 
L 94.925487 219.215355 
L 95.36039 219.503841 
L 96.012743 219.848021 
L 98.622157 221.058579 
L 99.491961 221.636255 
L 101.449021 222.496644 
L 103.623533 223.303082 
L 104.275886 223.684022 
L 106.232946 224.219527 
L 106.667849 224.474671 
L 107.537653 224.803903 
L 111.451774 225.975819 
L 111.886676 225.963146 
L 113.191383 226.36965 
L 114.061187 226.968996 
L 114.49609 227.049461 
L 114.930992 227.350486 
L 116.018248 227.618189 
L 116.670601 227.859645 
L 117.540406 228.156033 
L 117.975308 228.317975 
L 118.41021 228.500853 
L 118.845112 228.617427 
L 119.497466 228.786498 
L 119.714917 228.826165 
L 120.149819 229.041283 
L 120.584721 229.140198 
L 122.106879 229.669514 
L 122.976684 229.662242 
L 123.846488 229.482751 
L 124.281391 229.50011 
L 125.586098 229.855566 
L 126.021 230.105642 
L 126.455902 230.154421 
L 127.325707 230.403873 
L 128.412962 230.681924 
L 128.847865 230.800492 
L 129.282767 230.892597 
L 131.457278 231.313536 
L 131.89218 231.528987 
L 132.761985 231.723208 
L 133.196887 231.864512 
L 134.284143 231.964677 
L 134.719045 232.063283 
L 135.153948 232.203457 
L 135.58885 232.277018 
L 136.241203 232.393399 
L 136.893557 232.529089 
L 137.54591 232.559786 
L 137.980812 232.59478 
L 138.633166 232.531963 
L 139.50297 232.793962 
L 139.937872 232.8452 
L 140.372775 232.948306 
L 141.242579 233.06941 
L 141.677482 233.113931 
L 142.329835 233.219236 
L 143.19964 233.395134 
L 143.634542 233.408069 
L 144.286895 233.518665 
L 144.721797 233.522998 
L 146.678858 234.040215 
L 147.548662 234.244584 
L 148.201016 234.30378 
L 151.462783 235.070599 
L 151.897685 235.047067 
L 153.637294 235.409334 
L 154.507099 235.399909 
L 154.942001 235.531825 
L 156.68161 235.473401 
L 157.551414 235.672331 
L 159.725926 235.722946 
L 159.943377 235.7961 
L 160.378279 235.745087 
L 160.813182 235.886952 
L 163.205144 235.948896 
L 163.857497 235.983307 
L 166.901813 236.328875 
L 167.119264 236.398347 
L 167.771618 236.332753 
L 168.20652 236.435025 
L 168.858874 236.425723 
L 169.728678 236.447606 
L 172.555543 236.31184 
L 172.990445 236.388496 
L 173.642799 236.345915 
L 176.469663 236.592898 
L 177.122017 236.604257 
L 180.601235 236.900168 
L 181.905942 237.007332 
L 183.863002 237.332612 
L 185.167709 237.433465 
L 186.689867 237.661303 
L 187.124769 237.644014 
L 187.559671 237.697123 
L 189.081829 237.593841 
L 190.386536 237.611973 
L 190.821438 237.599821 
L 191.473792 237.537412 
L 192.126145 237.560788 
L 194.735559 237.629079 
L 195.387912 237.537942 
L 196.91007 237.524697 
L 198.649679 237.53801 
L 199.084581 237.502034 
L 200.171837 237.49317 
L 201.693995 237.571251 
L 202.128897 237.635757 
L 202.781251 237.502725 
L 203.868506 237.564736 
L 204.738311 237.716016 
L 206.260469 237.76384 
L 207.130273 237.814676 
L 207.565176 237.817247 
L 208.217529 237.944014 
L 209.304785 237.949619 
L 209.739687 237.921851 
L 218.655184 237.874258 
L 220.394793 238.033459 
L 221.916951 238.063929 
L 222.569304 238.244612 
L 223.221657 238.561132 
L 223.874011 238.784088 
L 224.743815 238.836247 
L 225.396169 238.936559 
L 226.265973 239.013188 
L 226.700876 239.067907 
L 227.135778 239.109834 
L 228.223034 239.043996 
L 228.657936 238.986689 
L 230.397545 239.008309 
L 230.832447 239.04953 
L 231.267349 239.025562 
L 231.702252 238.934294 
L 232.354605 238.937822 
L 232.789507 238.828175 
L 233.22441 238.868117 
L 234.094214 238.743906 
L 234.746568 238.788574 
L 235.616372 238.796965 
L 236.051274 238.796069 
L 236.486177 238.762519 
L 236.921079 238.878638 
L 237.355981 238.830707 
L 238.225786 238.837198 
L 238.660688 238.716748 
L 239.530493 238.754788 
L 240.182846 238.682014 
L 240.617748 238.758495 
L 241.270102 238.723485 
L 241.705004 238.740195 
L 242.139906 238.717162 
L 242.574809 238.663375 
L 244.096966 238.669914 
L 245.619124 238.659808 
L 246.054027 238.52022 
L 246.488929 238.487677 
L 251.055403 238.339793 
L 251.707756 238.467708 
L 253.012463 238.544367 
L 253.447365 238.499385 
L 254.31717 238.506847 
L 254.752072 238.541447 
L 255.186974 238.632338 
L 256.056779 238.512065 
L 256.491681 238.568854 
L 257.144035 238.412716 
L 257.578937 238.339053 
L 262.797764 238.469379 
L 263.232666 238.393396 
L 263.667569 238.444053 
L 264.319922 238.34728 
L 267.364238 238.536169 
L 268.016591 238.340079 
L 272.365614 238.614924 
L 272.800516 238.597925 
L 273.45287 238.732104 
L 275.192479 238.730744 
L 276.279735 238.487082 
L 278.236795 238.641735 
L 278.889148 238.489453 
L 279.106599 238.277511 
L 279.758953 238.26129 
L 281.498562 238.361435 
L 283.890524 238.130603 
L 284.325427 238.13627 
L 285.195231 238.204882 
L 285.630133 238.18892 
L 286.065036 238.173353 
L 287.152291 238.250969 
L 287.587194 238.204856 
L 288.022096 238.077838 
L 288.674449 238.078313 
L 289.109352 238.163365 
L 291.283863 238.190436 
L 291.718765 238.248887 
L 296.285239 238.691045 
L 296.50269 238.60948 
L 298.024848 235.440732 
L 298.677201 234.371425 
L 300.416811 231.546001 
L 303.243675 227.668319 
L 304.330931 226.395397 
L 305.200736 225.456947 
L 308.0276 222.683105 
L 309.984661 221.419498 
L 310.419563 220.98252 
L 310.637014 220.922492 
L 312.594074 219.199365 
L 313.246428 218.80582 
L 314.551134 217.717393 
L 315.420939 216.973035 
L 316.290743 216.676856 
L 317.160548 216.267391 
L 317.59545 216.040364 
L 318.030353 215.978282 
L 319.552511 214.789434 
L 320.422315 214.534754 
L 324.118984 214.165316 
L 324.553887 214.100932 
L 324.988789 213.874197 
L 326.076045 213.442578 
L 326.945849 212.976262 
L 328.250556 212.615109 
L 328.685458 212.482786 
L 329.337812 212.325442 
L 329.990165 212.077245 
L 330.85997 211.638038 
L 335.861346 210.152726 
L 336.296248 210.105874 
L 337.818406 209.60399 
L 339.123113 209.470769 
L 339.340564 209.325552 
L 339.775466 209.259748 
L 341.515075 208.985949 
L 343.689587 209.018 
L 345.646647 208.525714 
L 346.299 208.487925 
L 346.516451 208.37898 
L 347.168805 208.359324 
L 348.038609 208.12777 
L 349.560767 207.569681 
L 349.995669 207.509357 
L 350.213121 207.396303 
L 350.648023 207.370828 
L 351.517827 207.052334 
L 352.605083 206.703525 
L 353.039985 206.685661 
L 353.474888 206.611065 
L 356.519204 206.01583 
L 356.736655 206.085538 
L 358.476264 205.495232 
L 359.128617 205.168328 
L 360.433324 204.919573 
L 362.607835 203.738712 
L 363.042738 203.60242 
L 363.47764 203.431039 
L 364.347444 203.183945 
L 365.4347 202.544179 
L 366.304505 202.258447 
L 367.174309 201.887403 
L 367.826663 201.540005 
L 369.348821 200.579071 
L 370.001174 200.463792 
L 370.436076 200.267821 
L 370.870979 200.086601 
L 371.305881 199.826316 
L 372.175685 199.332873 
L 373.697843 198.843064 
L 374.785099 198.307962 
L 375.654903 197.73194 
L 376.089806 197.580183 
L 376.524708 197.197219 
L 377.611964 196.579286 
L 378.046866 196.123136 
L 378.481768 195.959152 
L 379.134122 195.545433 
L 379.569024 195.522163 
L 380.003926 195.30682 
L 380.438828 195.228695 
L 381.091182 194.929013 
L 382.61334 194.750209 
L 384.5704 193.793916 
L 385.222753 193.284868 
L 385.657656 193.139463 
L 386.092558 192.94369 
L 386.744911 192.67074 
L 388.919423 191.873182 
L 390.006678 190.969564 
L 390.876483 189.626931 
L 391.093934 189.928022 
L 391.311385 189.416093 
L 391.746288 189.238599 
L 391.963739 188.171765 
L 392.18119 188.736879 
L 392.398641 187.018744 
L 392.616092 187.533327 
L 393.050994 186.26006 
L 393.268445 186.957266 
L 393.485897 183.643335 
L 393.703348 186.753306 
L 393.920799 180.1534 
L 394.13825 186.636084 
L 394.355701 163.967093 
L 394.573152 78.629345 
L 394.790603 74.689756 
L 395.225506 173.991949 
L 395.442957 195.471661 
L 395.877859 205.130108 
L 396.09531 208.11536 
L 396.312761 208.218882 
L 396.530213 210.313233 
L 396.747664 209.759471 
L 396.965115 211.243263 
L 397.400017 212.139313 
L 397.617468 213.184088 
L 397.834919 213.202365 
L 398.05237 214.044441 
L 398.269822 214.186427 
L 398.487273 214.687486 
L 398.487273 214.687486 
" style="fill:none;stroke:#000000;stroke-linecap:square;stroke-width:1.5;"/>
   </g>
   <g id="line2d_19">
    <path clip-path="url(#p62825f9412)" d="M 73.832727 193.580852 
L 74.702532 193.322023 
L 75.354885 193.036335 
L 76.22469 193.041876 
L 76.659592 192.94711 
L 77.094494 192.921632 
L 77.746848 192.866031 
L 77.964299 192.882282 
L 78.834103 192.39274 
L 79.051555 192.599196 
L 79.921359 189.882978 
L 80.13881 189.6235 
L 80.356261 188.63668 
L 80.573712 188.553545 
L 81.008615 187.0563 
L 81.226066 186.989091 
L 81.443517 185.439636 
L 81.660968 185.893163 
L 81.878419 183.988026 
L 82.09587 184.734652 
L 82.530773 182.071765 
L 82.748224 183.036169 
L 82.965675 177.590778 
L 83.183126 183.381912 
L 83.400577 138.799924 
L 83.618028 66.322119 
L 83.83548 83.603155 
L 84.270382 166.392188 
L 84.487833 186.905848 
L 84.922735 197.896729 
L 85.575089 202.95056 
L 85.79254 202.849128 
L 86.009991 204.277395 
L 86.227442 204.234841 
L 86.444893 205.084299 
L 86.662344 205.427967 
L 86.879795 205.517364 
L 87.097247 206.059831 
L 87.314698 205.973472 
L 87.532149 206.398295 
L 87.967051 206.405859 
L 90.359014 205.745455 
L 91.228818 205.226081 
L 92.098623 204.588135 
L 94.925487 202.439898 
L 95.577841 201.818155 
L 96.230194 201.261158 
L 97.534901 199.632238 
L 98.622157 198.500998 
L 100.361766 196.580803 
L 100.796668 196.073138 
L 101.014119 195.922172 
L 102.101375 194.437588 
L 103.188631 193.14894 
L 105.580593 189.65871 
L 105.798044 189.031879 
L 106.015495 188.967994 
L 106.232946 188.249774 
L 106.667849 187.634519 
L 106.8853 186.824613 
L 107.102751 187.17729 
L 107.320202 185.741312 
L 107.537653 185.917614 
L 107.755104 184.791715 
L 107.972556 184.367613 
L 108.190007 184.488697 
L 108.407458 181.702274 
L 108.624909 183.743476 
L 108.84236 178.324609 
L 109.059811 182.641674 
L 109.277262 158.568039 
L 109.494714 81.48358 
L 109.712165 69.765084 
L 110.147067 155.607609 
L 110.364518 181.235674 
L 110.79942 195.284147 
L 111.016871 198.993765 
L 111.234323 200.058222 
L 111.451774 202.329909 
L 111.669225 202.365855 
L 111.886676 203.771564 
L 112.321578 204.703934 
L 112.539029 205.593939 
L 112.756481 205.636369 
L 112.973932 206.315214 
L 113.191383 206.423262 
L 113.626285 206.938658 
L 113.843736 206.98681 
L 114.061187 207.219945 
L 114.278638 207.198908 
L 114.713541 207.420152 
L 115.800796 207.36582 
L 117.757857 206.773722 
L 119.932368 205.353598 
L 120.584721 204.69399 
L 122.324331 202.766281 
L 122.759233 202.478318 
L 123.194135 202.012961 
L 123.846488 201.34017 
L 124.498842 200.544292 
L 125.586098 199.507857 
L 126.021 198.998884 
L 126.673353 198.452221 
L 129.065316 196.068369 
L 133.849241 190.031362 
L 135.371399 187.27731 
L 135.58885 187.35913 
L 135.806301 186.68686 
L 136.023752 186.517586 
L 136.458654 185.355375 
L 136.676105 185.570152 
L 136.893557 184.213676 
L 137.111008 184.731509 
L 137.328459 183.495889 
L 137.54591 183.288156 
L 137.763361 182.80771 
L 137.980812 180.623247 
L 138.198263 182.178229 
L 138.415715 176.831612 
L 138.633166 181.085583 
L 138.850617 149.650461 
L 139.068068 75.584497 
L 139.285519 74.586404 
L 139.720421 158.613798 
L 139.937872 181.528854 
L 140.372775 194.723805 
L 140.590226 197.479632 
L 140.807677 198.410885 
L 141.025128 200.216127 
L 141.242579 200.338769 
L 141.46003 201.917264 
L 141.677482 202.197993 
L 142.112384 203.585577 
L 142.329835 203.69427 
L 142.547286 204.384505 
L 142.764737 204.521861 
L 143.19964 205.11261 
L 143.634542 205.437952 
L 143.851993 205.329358 
L 144.504346 205.569042 
L 145.591602 205.282742 
L 146.678858 204.982449 
L 148.853369 203.579663 
L 149.940625 202.739812 
L 150.592978 202.283668 
L 151.680234 201.536573 
L 154.072196 199.142184 
L 155.594354 197.392554 
L 156.899061 196.21485 
L 159.073572 194.062172 
L 160.59573 192.191811 
L 162.117888 190.277594 
L 163.640046 188.217435 
L 164.2924 186.700525 
L 164.509851 186.470418 
L 164.727302 186.417151 
L 164.944753 185.661194 
L 165.162204 185.921247 
L 165.379655 184.805752 
L 165.597106 184.810939 
L 166.032009 183.185206 
L 166.24946 183.711397 
L 166.466911 181.023175 
L 166.684362 182.606313 
L 166.901813 178.288876 
L 167.119264 180.81985 
L 167.336716 161.470232 
L 167.554167 88.391596 
L 167.771618 67.19376 
L 168.20652 149.63438 
L 168.423971 176.321317 
L 168.858874 192.092956 
L 169.076325 196.150104 
L 169.293776 197.134798 
L 169.511227 199.449098 
L 169.728678 199.744445 
L 169.946129 200.979795 
L 170.598483 202.799405 
L 170.815934 202.873284 
L 171.033385 203.542566 
L 171.250836 203.705818 
L 172.120641 204.735696 
L 172.338092 204.807794 
L 172.555543 205.022617 
L 172.990445 204.941352 
L 173.642799 205.196682 
L 174.295152 205.21503 
L 176.034761 204.632381 
L 176.252212 204.586174 
L 176.687114 204.258547 
L 177.122017 204.096052 
L 177.556919 203.840313 
L 177.991821 203.621532 
L 179.73143 202.181849 
L 184.515355 197.103011 
L 185.167709 196.352506 
L 186.037513 195.407296 
L 188.646927 192.208955 
L 191.473792 188.049212 
L 191.691243 187.336608 
L 191.908694 187.213641 
L 192.343596 185.946974 
L 192.561047 185.874433 
L 192.778498 184.632618 
L 192.99595 184.942337 
L 193.213401 183.493673 
L 193.430852 183.704152 
L 193.648303 182.924246 
L 193.865754 181.500857 
L 194.083205 182.295654 
L 194.300656 177.718759 
L 194.518108 181.481235 
L 194.735559 142.732569 
L 194.95301 71.197879 
L 195.170461 76.045291 
L 195.605363 156.663026 
L 195.822814 179.633452 
L 196.257717 192.720001 
L 196.692619 197.028288 
L 196.91007 199.033209 
L 197.127521 199.2789 
L 197.344972 200.849757 
L 197.562423 201.256983 
L 197.997326 202.697288 
L 198.214777 202.909556 
L 198.432228 203.495 
L 198.649679 203.649931 
L 198.86713 204.161691 
L 199.302033 204.381791 
L 199.519484 204.648466 
L 199.736935 204.642272 
L 200.171837 204.836213 
L 201.476544 205.001173 
L 202.998702 204.592383 
L 204.085957 204.06621 
L 204.738311 203.713187 
L 205.173213 203.392991 
L 205.608115 203.04349 
L 206.47792 202.314711 
L 206.912822 201.937741 
L 211.479296 197.53454 
L 211.914198 197.230657 
L 218.220281 190.022521 
L 219.524988 187.792211 
L 219.742439 187.687883 
L 219.95989 186.875274 
L 220.177342 186.570726 
L 220.612244 185.502332 
L 220.829695 185.528212 
L 221.047146 184.226233 
L 221.264597 184.425961 
L 221.482048 182.924642 
L 221.699499 183.16796 
L 221.916951 182.260339 
L 222.134402 180.665984 
L 222.351853 181.606419 
L 222.569304 176.885953 
L 222.786755 180.274299 
L 223.004206 142.36415 
L 223.221657 72.14472 
L 223.439109 77.231142 
L 223.874011 156.980045 
L 224.091462 179.492304 
L 224.526364 192.997644 
L 224.961267 197.942697 
L 225.178718 199.993624 
L 225.396169 200.465202 
L 225.61362 202.102212 
L 225.831071 202.466624 
L 226.265973 203.929105 
L 226.483424 204.147218 
L 226.700876 204.78149 
L 226.918327 204.908538 
L 227.135778 205.301388 
L 227.57068 205.630904 
L 227.788131 205.902401 
L 228.005582 205.974638 
L 228.440485 206.272726 
L 228.875387 206.474787 
L 229.310289 206.392783 
L 231.267349 206.467501 
L 232.137154 206.045305 
L 232.572056 205.78037 
L 234.964019 203.847763 
L 235.616372 203.280261 
L 236.703628 202.227658 
L 238.878139 200.364232 
L 239.747944 199.334018 
L 241.052651 198.028115 
L 243.662064 194.652707 
L 244.314418 193.862723 
L 244.531869 193.686187 
L 245.401673 192.41448 
L 246.054027 191.594792 
L 246.923831 190.379066 
L 247.141282 190.232859 
L 247.576185 189.592249 
L 247.793636 189.300085 
L 248.011087 188.737152 
L 248.228538 188.517275 
L 248.445989 187.987173 
L 248.66344 187.869291 
L 249.098343 186.595938 
L 249.315794 186.282593 
L 249.533245 185.466749 
L 249.750696 185.610298 
L 249.968147 184.134317 
L 250.185598 184.072714 
L 250.620501 182.471712 
L 250.837952 182.979544 
L 251.055403 180.373965 
L 251.272854 181.946633 
L 251.490305 177.24396 
L 251.707756 179.962816 
L 251.925207 159.32419 
L 252.142658 86.029618 
L 252.36011 67.782663 
L 252.795012 149.595825 
L 253.012463 175.911353 
L 253.447365 191.797692 
L 253.664816 195.840736 
L 253.882268 197.086423 
L 254.099719 199.43676 
L 254.31717 199.823054 
L 254.534621 201.24119 
L 255.186974 203.08139 
L 255.404426 203.09716 
L 255.621877 203.740392 
L 256.056779 204.340507 
L 256.709132 205.123074 
L 257.144035 205.322369 
L 258.23129 205.690143 
L 258.666193 205.630916 
L 259.101095 205.604058 
L 260.623253 205.188546 
L 261.275606 204.875073 
L 261.710508 204.62061 
L 262.362862 203.972554 
L 263.88502 202.860968 
L 264.972275 201.842455 
L 265.84208 201.111401 
L 266.276982 200.840666 
L 267.581689 199.794226 
L 268.234043 199.289462 
L 269.321298 198.135863 
L 270.843456 196.391553 
L 275.40993 191.520562 
L 277.149539 189.240288 
L 277.36699 188.953854 
L 277.584441 188.455507 
L 277.801892 188.316878 
L 278.236795 187.645733 
L 278.454246 187.41699 
L 278.671697 186.959569 
L 278.889148 186.828893 
L 279.106599 186.07515 
L 279.32405 185.957558 
L 279.758953 184.784905 
L 279.976404 184.697636 
L 280.193855 183.592938 
L 280.411306 183.91031 
L 280.628757 182.406666 
L 280.846208 183.030498 
L 281.281111 180.882157 
L 281.498562 181.258596 
L 281.716013 177.274305 
L 281.933464 179.588758 
L 282.368366 68.950914 
L 282.585817 81.799057 
L 283.02072 157.683644 
L 283.238171 179.008749 
L 283.673073 192.793658 
L 284.107975 197.310556 
L 284.325427 199.110768 
L 284.542878 199.472966 
L 284.760329 200.967362 
L 284.97778 201.180725 
L 285.412682 202.477575 
L 285.630133 202.719929 
L 285.847584 203.324281 
L 286.065036 203.434995 
L 286.282487 203.888161 
L 288.022096 204.995036 
L 289.544254 205.098098 
L 289.979156 204.958881 
L 290.196607 204.890689 
L 290.631509 204.54465 
L 291.066412 204.282498 
L 291.718765 203.71305 
L 292.153667 203.110401 
L 296.50269 198.847875 
L 298.024848 200.511791 
L 298.677201 201.108063 
L 299.329555 201.613058 
L 301.721517 202.968621 
L 302.15642 203.143907 
L 302.591322 203.350348 
L 303.026224 203.464014 
L 304.765833 203.993028 
L 306.505442 204.127072 
L 306.940345 204.244362 
L 308.0276 204.477749 
L 308.462503 204.61915 
L 309.767209 204.686458 
L 310.637014 204.805707 
L 311.72427 204.811401 
L 312.594074 204.996758 
L 313.68133 205.010598 
L 314.116232 205.01411 
L 314.551134 205.017185 
L 315.203488 205.108572 
L 321.509571 205.023442 
L 321.944473 204.920492 
L 322.379375 204.796393 
L 324.118984 204.56522 
L 324.771338 204.561146 
L 325.858593 204.43331 
L 326.293496 204.290376 
L 327.815654 203.998921 
L 329.337812 203.722018 
L 329.772714 203.464633 
L 330.85997 203.395649 
L 332.164676 203.231299 
L 334.991541 202.331354 
L 335.208992 202.335708 
L 336.296248 201.875933 
L 336.73115 201.753862 
L 337.166052 201.518682 
L 337.818406 201.243174 
L 338.253308 201.019529 
L 339.123113 200.863978 
L 340.42782 200.625915 
L 341.515075 200.123079 
L 341.949977 199.860917 
L 342.602331 199.758736 
L 343.689587 199.348389 
L 344.124489 199.182497 
L 344.559391 199.066414 
L 347.603707 198.875073 
L 348.038609 198.634441 
L 348.908414 198.111719 
L 349.778218 197.853431 
L 351.082925 197.740428 
L 351.735279 197.487398 
L 352.822534 196.817444 
L 353.257437 196.745056 
L 354.997046 195.981357 
L 357.171557 194.526806 
L 357.606459 194.29328 
L 358.041362 194.03694 
L 358.476264 193.901961 
L 359.346068 193.477191 
L 360.650775 193.241549 
L 361.085677 193.073354 
L 361.52058 193.008749 
L 361.955482 192.963078 
L 362.607835 192.980371 
L 363.47764 192.881186 
L 364.129993 192.83869 
L 364.564896 192.804945 
L 366.739407 191.742017 
L 367.826663 191.640839 
L 368.261565 191.751316 
L 368.696467 191.875585 
L 369.348821 191.99346 
L 370.653527 192.072099 
L 371.08843 192.085446 
L 371.958234 192.398022 
L 374.350197 192.13247 
L 374.785099 192.006293 
L 375.220001 192.044151 
L 375.654903 192.09269 
L 376.089806 192.159815 
L 376.524708 192.335373 
L 377.394513 192.403145 
L 377.829415 192.319248 
L 378.264317 192.015801 
L 379.351573 191.800901 
L 379.786475 191.766646 
L 380.221377 191.796471 
L 380.873731 191.682163 
L 381.308633 191.649562 
L 382.61334 191.73439 
L 383.265693 191.60415 
L 383.483144 191.41943 
L 383.918047 191.293995 
L 384.135498 191.17837 
L 384.5704 191.118468 
L 386.52746 190.639319 
L 388.049618 190.345261 
L 388.48452 190.18376 
L 389.136874 189.973039 
L 391.528836 188.082323 
L 392.18119 187.303836 
L 392.398641 186.855013 
L 392.616092 186.745557 
L 393.050994 186.167182 
L 393.268445 186.17997 
L 393.485897 185.801086 
L 393.703348 185.788921 
L 393.920799 185.294019 
L 394.13825 185.275388 
L 394.355701 184.929997 
L 394.573152 184.337609 
L 394.790603 184.755686 
L 395.008055 183.596315 
L 395.225506 183.816099 
L 395.442957 182.569992 
L 395.660408 182.410828 
L 395.877859 182.425715 
L 396.09531 180.539038 
L 396.312761 182.042848 
L 396.530213 177.485431 
L 396.747664 181.233011 
L 396.965115 151.250593 
L 397.182566 77.945673 
L 397.400017 71.486206 
L 397.834919 152.778144 
L 398.05237 178.241709 
L 398.487273 193.243784 
L 398.487273 193.243784 
" style="fill:none;stroke:#000000;stroke-linecap:square;stroke-width:1.5;"/>
   </g>
   <g id="patch_3">
    <path d="M 57.6 307.584 
L 57.6 41.472 
" style="fill:none;stroke:#000000;stroke-linecap:square;stroke-linejoin:miter;stroke-width:0.8;"/>
   </g>
   <g id="patch_4">
    <path d="M 414.72 307.584 
L 414.72 41.472 
" style="fill:none;stroke:#000000;stroke-linecap:square;stroke-linejoin:miter;stroke-width:0.8;"/>
   </g>
   <g id="patch_5">
    <path d="M 57.6 307.584 
L 414.72 307.584 
" style="fill:none;stroke:#000000;stroke-linecap:square;stroke-linejoin:miter;stroke-width:0.8;"/>
   </g>
   <g id="patch_6">
    <path d="M 57.6 41.472 
L 414.72 41.472 
" style="fill:none;stroke:#000000;stroke-linecap:square;stroke-linejoin:miter;stroke-width:0.8;"/>
   </g>
  </g>
 </g>
 <defs>
  <clipPath id="p62825f9412">
   <rect height="266.112" width="357.12" x="57.6" y="41.472"/>
  </clipPath>
 </defs>
</svg>
