<?xml version="1.0" encoding="utf-8" standalone="no"?>
<!DOCTYPE svg PUBLIC "-//W3C//DTD SVG 1.1//EN"
  "http://www.w3.org/Graphics/SVG/1.1/DTD/svg11.dtd">
<svg height="345.6pt" version="1.1" viewBox="0 0 460.8 345.6" width="460.8pt" xmlns="http://www.w3.org/2000/svg" xmlns:xlink="http://www.w3.org/1999/xlink">
 <metadata>
  <rdf:RDF xmlns:cc="http://creativecommons.org/ns#" xmlns:dc="http://purl.org/dc/elements/1.1/" xmlns:rdf="http://www.w3.org/1999/02/22-rdf-syntax-ns#">
   <cc:Work>
    <dc:type rdf:resource="http://purl.org/dc/dcmitype/StillImage"/>
    <dc:date>2024-08-06T14:44:57.773828</dc:date>
    <dc:format>image/svg+xml</dc:format>
    <dc:creator>
     <cc:Agent>
      <dc:title>Matplotlib v3.4.2, https://matplotlib.org/</dc:title>
     </cc:Agent>
    </dc:creator>
   </cc:Work>
  </rdf:RDF>
 </metadata>
 <defs>
  <style type="text/css">*{stroke-linecap:butt;stroke-linejoin:round;}</style>
 </defs>
 <g id="figure_1">
  <g id="patch_1">
   <path d="M 0 345.6 
L 460.8 345.6 
L 460.8 0 
L 0 0 
z
" style="fill:#ffffff;"/>
  </g>
  <g id="axes_1">
   <g id="patch_2">
    <path d="M 57.6 307.584 
L 414.72 307.584 
L 414.72 41.472 
L 57.6 41.472 
z
" style="fill:#ffffff;"/>
   </g>
   <g id="matplotlib.axis_1">
    <g id="xtick_1">
     <g id="line2d_1">
      <defs>
       <path d="M 0 0 
L 0 3.5 
" id="m67476ded68" style="stroke:#000000;stroke-width:0.8;"/>
      </defs>
      <g>
       <use style="stroke:#000000;stroke-width:0.8;" x="59.701804" xlink:href="#m67476ded68" y="307.584"/>
      </g>
     </g>
     <g id="text_1">
      <!-- 0.75 -->
      <g transform="translate(48.568992 322.182437)scale(0.1 -0.1)">
       <defs>
        <path d="M 2034 4250 
Q 1547 4250 1301 3770 
Q 1056 3291 1056 2328 
Q 1056 1369 1301 889 
Q 1547 409 2034 409 
Q 2525 409 2770 889 
Q 3016 1369 3016 2328 
Q 3016 3291 2770 3770 
Q 2525 4250 2034 4250 
z
M 2034 4750 
Q 2819 4750 3233 4129 
Q 3647 3509 3647 2328 
Q 3647 1150 3233 529 
Q 2819 -91 2034 -91 
Q 1250 -91 836 529 
Q 422 1150 422 2328 
Q 422 3509 836 4129 
Q 1250 4750 2034 4750 
z
" id="DejaVuSans-30" transform="scale(0.015625)"/>
        <path d="M 684 794 
L 1344 794 
L 1344 0 
L 684 0 
L 684 794 
z
" id="DejaVuSans-2e" transform="scale(0.015625)"/>
        <path d="M 525 4666 
L 3525 4666 
L 3525 4397 
L 1831 0 
L 1172 0 
L 2766 4134 
L 525 4134 
L 525 4666 
z
" id="DejaVuSans-37" transform="scale(0.015625)"/>
        <path d="M 691 4666 
L 3169 4666 
L 3169 4134 
L 1269 4134 
L 1269 2991 
Q 1406 3038 1543 3061 
Q 1681 3084 1819 3084 
Q 2600 3084 3056 2656 
Q 3513 2228 3513 1497 
Q 3513 744 3044 326 
Q 2575 -91 1722 -91 
Q 1428 -91 1123 -41 
Q 819 9 494 109 
L 494 744 
Q 775 591 1075 516 
Q 1375 441 1709 441 
Q 2250 441 2565 725 
Q 2881 1009 2881 1497 
Q 2881 1984 2565 2268 
Q 2250 2553 1709 2553 
Q 1456 2553 1204 2497 
Q 953 2441 691 2322 
L 691 4666 
z
" id="DejaVuSans-35" transform="scale(0.015625)"/>
       </defs>
       <use xlink:href="#DejaVuSans-30"/>
       <use x="63.623047" xlink:href="#DejaVuSans-2e"/>
       <use x="95.410156" xlink:href="#DejaVuSans-37"/>
       <use x="159.033203" xlink:href="#DejaVuSans-35"/>
      </g>
     </g>
    </g>
    <g id="xtick_2">
     <g id="line2d_2">
      <g>
       <use style="stroke:#000000;stroke-width:0.8;" x="99.713241" xlink:href="#m67476ded68" y="307.584"/>
      </g>
     </g>
     <g id="text_2">
      <!-- 1.00 -->
      <g transform="translate(88.580428 322.182437)scale(0.1 -0.1)">
       <defs>
        <path d="M 794 531 
L 1825 531 
L 1825 4091 
L 703 3866 
L 703 4441 
L 1819 4666 
L 2450 4666 
L 2450 531 
L 3481 531 
L 3481 0 
L 794 0 
L 794 531 
z
" id="DejaVuSans-31" transform="scale(0.015625)"/>
       </defs>
       <use xlink:href="#DejaVuSans-31"/>
       <use x="63.623047" xlink:href="#DejaVuSans-2e"/>
       <use x="95.410156" xlink:href="#DejaVuSans-30"/>
       <use x="159.033203" xlink:href="#DejaVuSans-30"/>
      </g>
     </g>
    </g>
    <g id="xtick_3">
     <g id="line2d_3">
      <g>
       <use style="stroke:#000000;stroke-width:0.8;" x="139.724677" xlink:href="#m67476ded68" y="307.584"/>
      </g>
     </g>
     <g id="text_3">
      <!-- 1.25 -->
      <g transform="translate(128.591864 322.182437)scale(0.1 -0.1)">
       <defs>
        <path d="M 1228 531 
L 3431 531 
L 3431 0 
L 469 0 
L 469 531 
Q 828 903 1448 1529 
Q 2069 2156 2228 2338 
Q 2531 2678 2651 2914 
Q 2772 3150 2772 3378 
Q 2772 3750 2511 3984 
Q 2250 4219 1831 4219 
Q 1534 4219 1204 4116 
Q 875 4013 500 3803 
L 500 4441 
Q 881 4594 1212 4672 
Q 1544 4750 1819 4750 
Q 2544 4750 2975 4387 
Q 3406 4025 3406 3419 
Q 3406 3131 3298 2873 
Q 3191 2616 2906 2266 
Q 2828 2175 2409 1742 
Q 1991 1309 1228 531 
z
" id="DejaVuSans-32" transform="scale(0.015625)"/>
       </defs>
       <use xlink:href="#DejaVuSans-31"/>
       <use x="63.623047" xlink:href="#DejaVuSans-2e"/>
       <use x="95.410156" xlink:href="#DejaVuSans-32"/>
       <use x="159.033203" xlink:href="#DejaVuSans-35"/>
      </g>
     </g>
    </g>
    <g id="xtick_4">
     <g id="line2d_4">
      <g>
       <use style="stroke:#000000;stroke-width:0.8;" x="179.736113" xlink:href="#m67476ded68" y="307.584"/>
      </g>
     </g>
     <g id="text_4">
      <!-- 1.50 -->
      <g transform="translate(168.6033 322.182437)scale(0.1 -0.1)">
       <use xlink:href="#DejaVuSans-31"/>
       <use x="63.623047" xlink:href="#DejaVuSans-2e"/>
       <use x="95.410156" xlink:href="#DejaVuSans-35"/>
       <use x="159.033203" xlink:href="#DejaVuSans-30"/>
      </g>
     </g>
    </g>
    <g id="xtick_5">
     <g id="line2d_5">
      <g>
       <use style="stroke:#000000;stroke-width:0.8;" x="219.747549" xlink:href="#m67476ded68" y="307.584"/>
      </g>
     </g>
     <g id="text_5">
      <!-- 1.75 -->
      <g transform="translate(208.614737 322.182437)scale(0.1 -0.1)">
       <use xlink:href="#DejaVuSans-31"/>
       <use x="63.623047" xlink:href="#DejaVuSans-2e"/>
       <use x="95.410156" xlink:href="#DejaVuSans-37"/>
       <use x="159.033203" xlink:href="#DejaVuSans-35"/>
      </g>
     </g>
    </g>
    <g id="xtick_6">
     <g id="line2d_6">
      <g>
       <use style="stroke:#000000;stroke-width:0.8;" x="259.758985" xlink:href="#m67476ded68" y="307.584"/>
      </g>
     </g>
     <g id="text_6">
      <!-- 2.00 -->
      <g transform="translate(248.626173 322.182437)scale(0.1 -0.1)">
       <use xlink:href="#DejaVuSans-32"/>
       <use x="63.623047" xlink:href="#DejaVuSans-2e"/>
       <use x="95.410156" xlink:href="#DejaVuSans-30"/>
       <use x="159.033203" xlink:href="#DejaVuSans-30"/>
      </g>
     </g>
    </g>
    <g id="xtick_7">
     <g id="line2d_7">
      <g>
       <use style="stroke:#000000;stroke-width:0.8;" x="299.770421" xlink:href="#m67476ded68" y="307.584"/>
      </g>
     </g>
     <g id="text_7">
      <!-- 2.25 -->
      <g transform="translate(288.637609 322.182437)scale(0.1 -0.1)">
       <use xlink:href="#DejaVuSans-32"/>
       <use x="63.623047" xlink:href="#DejaVuSans-2e"/>
       <use x="95.410156" xlink:href="#DejaVuSans-32"/>
       <use x="159.033203" xlink:href="#DejaVuSans-35"/>
      </g>
     </g>
    </g>
    <g id="xtick_8">
     <g id="line2d_8">
      <g>
       <use style="stroke:#000000;stroke-width:0.8;" x="339.781858" xlink:href="#m67476ded68" y="307.584"/>
      </g>
     </g>
     <g id="text_8">
      <!-- 2.50 -->
      <g transform="translate(328.649045 322.182437)scale(0.1 -0.1)">
       <use xlink:href="#DejaVuSans-32"/>
       <use x="63.623047" xlink:href="#DejaVuSans-2e"/>
       <use x="95.410156" xlink:href="#DejaVuSans-35"/>
       <use x="159.033203" xlink:href="#DejaVuSans-30"/>
      </g>
     </g>
    </g>
    <g id="xtick_9">
     <g id="line2d_9">
      <g>
       <use style="stroke:#000000;stroke-width:0.8;" x="379.793294" xlink:href="#m67476ded68" y="307.584"/>
      </g>
     </g>
     <g id="text_9">
      <!-- 2.75 -->
      <g transform="translate(368.660481 322.182437)scale(0.1 -0.1)">
       <use xlink:href="#DejaVuSans-32"/>
       <use x="63.623047" xlink:href="#DejaVuSans-2e"/>
       <use x="95.410156" xlink:href="#DejaVuSans-37"/>
       <use x="159.033203" xlink:href="#DejaVuSans-35"/>
      </g>
     </g>
    </g>
   </g>
   <g id="matplotlib.axis_2">
    <g id="ytick_1">
     <g id="line2d_10">
      <defs>
       <path d="M 0 0 
L -3.5 0 
" id="mec135ff907" style="stroke:#000000;stroke-width:0.8;"/>
      </defs>
      <g>
       <use style="stroke:#000000;stroke-width:0.8;" x="57.6" xlink:href="#mec135ff907" y="271.896499"/>
      </g>
     </g>
     <g id="text_10">
      <!-- −80 -->
      <g transform="translate(29.495313 275.695718)scale(0.1 -0.1)">
       <defs>
        <path d="M 678 2272 
L 4684 2272 
L 4684 1741 
L 678 1741 
L 678 2272 
z
" id="DejaVuSans-2212" transform="scale(0.015625)"/>
        <path d="M 2034 2216 
Q 1584 2216 1326 1975 
Q 1069 1734 1069 1313 
Q 1069 891 1326 650 
Q 1584 409 2034 409 
Q 2484 409 2743 651 
Q 3003 894 3003 1313 
Q 3003 1734 2745 1975 
Q 2488 2216 2034 2216 
z
M 1403 2484 
Q 997 2584 770 2862 
Q 544 3141 544 3541 
Q 544 4100 942 4425 
Q 1341 4750 2034 4750 
Q 2731 4750 3128 4425 
Q 3525 4100 3525 3541 
Q 3525 3141 3298 2862 
Q 3072 2584 2669 2484 
Q 3125 2378 3379 2068 
Q 3634 1759 3634 1313 
Q 3634 634 3220 271 
Q 2806 -91 2034 -91 
Q 1263 -91 848 271 
Q 434 634 434 1313 
Q 434 1759 690 2068 
Q 947 2378 1403 2484 
z
M 1172 3481 
Q 1172 3119 1398 2916 
Q 1625 2713 2034 2713 
Q 2441 2713 2670 2916 
Q 2900 3119 2900 3481 
Q 2900 3844 2670 4047 
Q 2441 4250 2034 4250 
Q 1625 4250 1398 4047 
Q 1172 3844 1172 3481 
z
" id="DejaVuSans-38" transform="scale(0.015625)"/>
       </defs>
       <use xlink:href="#DejaVuSans-2212"/>
       <use x="83.789062" xlink:href="#DejaVuSans-38"/>
       <use x="147.412109" xlink:href="#DejaVuSans-30"/>
      </g>
     </g>
    </g>
    <g id="ytick_2">
     <g id="line2d_11">
      <g>
       <use style="stroke:#000000;stroke-width:0.8;" x="57.6" xlink:href="#mec135ff907" y="223.671513"/>
      </g>
     </g>
     <g id="text_11">
      <!-- −60 -->
      <g transform="translate(29.495313 227.470732)scale(0.1 -0.1)">
       <defs>
        <path d="M 2113 2584 
Q 1688 2584 1439 2293 
Q 1191 2003 1191 1497 
Q 1191 994 1439 701 
Q 1688 409 2113 409 
Q 2538 409 2786 701 
Q 3034 994 3034 1497 
Q 3034 2003 2786 2293 
Q 2538 2584 2113 2584 
z
M 3366 4563 
L 3366 3988 
Q 3128 4100 2886 4159 
Q 2644 4219 2406 4219 
Q 1781 4219 1451 3797 
Q 1122 3375 1075 2522 
Q 1259 2794 1537 2939 
Q 1816 3084 2150 3084 
Q 2853 3084 3261 2657 
Q 3669 2231 3669 1497 
Q 3669 778 3244 343 
Q 2819 -91 2113 -91 
Q 1303 -91 875 529 
Q 447 1150 447 2328 
Q 447 3434 972 4092 
Q 1497 4750 2381 4750 
Q 2619 4750 2861 4703 
Q 3103 4656 3366 4563 
z
" id="DejaVuSans-36" transform="scale(0.015625)"/>
       </defs>
       <use xlink:href="#DejaVuSans-2212"/>
       <use x="83.789062" xlink:href="#DejaVuSans-36"/>
       <use x="147.412109" xlink:href="#DejaVuSans-30"/>
      </g>
     </g>
    </g>
    <g id="ytick_3">
     <g id="line2d_12">
      <g>
       <use style="stroke:#000000;stroke-width:0.8;" x="57.6" xlink:href="#mec135ff907" y="175.446527"/>
      </g>
     </g>
     <g id="text_12">
      <!-- −40 -->
      <g transform="translate(29.495313 179.245745)scale(0.1 -0.1)">
       <defs>
        <path d="M 2419 4116 
L 825 1625 
L 2419 1625 
L 2419 4116 
z
M 2253 4666 
L 3047 4666 
L 3047 1625 
L 3713 1625 
L 3713 1100 
L 3047 1100 
L 3047 0 
L 2419 0 
L 2419 1100 
L 313 1100 
L 313 1709 
L 2253 4666 
z
" id="DejaVuSans-34" transform="scale(0.015625)"/>
       </defs>
       <use xlink:href="#DejaVuSans-2212"/>
       <use x="83.789062" xlink:href="#DejaVuSans-34"/>
       <use x="147.412109" xlink:href="#DejaVuSans-30"/>
      </g>
     </g>
    </g>
    <g id="ytick_4">
     <g id="line2d_13">
      <g>
       <use style="stroke:#000000;stroke-width:0.8;" x="57.6" xlink:href="#mec135ff907" y="127.22154"/>
      </g>
     </g>
     <g id="text_13">
      <!-- −20 -->
      <g transform="translate(29.495313 131.020759)scale(0.1 -0.1)">
       <use xlink:href="#DejaVuSans-2212"/>
       <use x="83.789062" xlink:href="#DejaVuSans-32"/>
       <use x="147.412109" xlink:href="#DejaVuSans-30"/>
      </g>
     </g>
    </g>
    <g id="ytick_5">
     <g id="line2d_14">
      <g>
       <use style="stroke:#000000;stroke-width:0.8;" x="57.6" xlink:href="#mec135ff907" y="78.996554"/>
      </g>
     </g>
     <g id="text_14">
      <!-- 0 -->
      <g transform="translate(44.2375 82.795773)scale(0.1 -0.1)">
       <use xlink:href="#DejaVuSans-30"/>
      </g>
     </g>
    </g>
   </g>
   <g id="line2d_15">
    <path clip-path="url(#p2c11b0dba7)" d="M 73.832727 222.064231 
L 73.990941 222.022326 
L 74.307368 222.180444 
L 74.623796 222.088401 
L 74.940223 222.045359 
L 75.256651 222.170152 
L 79.05378 221.945609 
L 79.844848 222.20135 
L 80.635917 222.223644 
L 81.268772 222.169938 
L 81.585199 222.297013 
L 81.901627 222.152169 
L 82.218054 222.252676 
L 82.534482 222.211326 
L 83.800191 222.274602 
L 84.433046 222.041838 
L 85.698756 222.093488 
L 86.015183 221.901066 
L 86.173397 221.834646 
L 87.280893 220.346747 
L 87.597321 220.170325 
L 88.071962 220.117551 
L 89.970526 219.889917 
L 91.236236 220.305808 
L 91.552663 220.369105 
L 92.185518 220.334437 
L 92.501946 220.285687 
L 93.451228 220.832317 
L 94.084083 220.937448 
L 94.558724 221.223952 
L 95.824434 221.244713 
L 96.140861 221.182693 
L 96.457289 221.301755 
L 96.93193 221.357436 
L 97.564785 221.499695 
L 98.355853 221.592644 
L 99.305136 221.831773 
L 99.93799 221.785108 
L 100.254418 221.698165 
L 100.570845 221.803285 
L 101.361914 221.720384 
L 101.678341 221.829809 
L 101.994769 221.789521 
L 103.893333 222.203673 
L 105.000829 222.022953 
L 105.47547 222.033082 
L 106.582967 234.486948 
L 107.374035 239.560001 
L 109.2726 249.31785 
L 110.380096 254.020107 
L 112.436874 261.635627 
L 115.284721 269.412536 
L 115.759362 270.633111 
L 116.866858 273.15163 
L 117.657927 274.45515 
L 118.290781 276.025931 
L 119.240064 277.836114 
L 121.138628 280.704944 
L 121.61327 281.331739 
L 122.087911 281.808051 
L 122.562552 278.867874 
L 122.720766 278.750041 
L 123.037193 278.950913 
L 124.302903 280.718792 
L 124.61933 280.883893 
L 125.726826 282.588311 
L 126.834322 284.106789 
L 127.15075 284.559996 
L 128.100032 285.361674 
L 128.416459 285.474913 
L 128.8911 285.924253 
L 129.523955 286.330188 
L 130.15681 287.083999 
L 130.473238 287.35021 
L 130.789665 287.61294 
L 131.42252 287.946201 
L 131.580734 287.963539 
L 132.68823 288.797355 
L 133.162871 289.033301 
L 133.479298 289.159271 
L 133.637512 289.200943 
L 134.270367 289.730552 
L 135.061435 290.163727 
L 135.536077 290.044143 
L 136.010718 290.411786 
L 136.168931 290.403602 
L 137.592855 291.263791 
L 138.383923 291.342625 
L 138.858565 291.655112 
L 139.174992 291.810321 
L 139.649633 291.951345 
L 140.440702 292.385539 
L 141.389984 292.570311 
L 141.706411 292.624123 
L 142.339266 292.434763 
L 142.655694 292.651146 
L 143.130335 292.771279 
L 143.76319 293.135078 
L 144.396045 293.032075 
L 145.661754 293.610812 
L 146.294609 293.453039 
L 146.927464 293.406772 
L 147.243892 293.462022 
L 147.718533 293.303595 
L 148.03496 293.492619 
L 148.193174 293.473209 
L 148.509601 293.700784 
L 149.458884 293.499723 
L 151.041021 293.93449 
L 151.515662 293.952743 
L 151.832089 294.122139 
L 152.939585 294.063008 
L 153.256013 294.218797 
L 154.047081 294.066709 
L 154.363509 294.219918 
L 154.679936 294.28456 
L 154.83815 294.336753 
L 155.154577 294.212222 
L 155.945646 294.446614 
L 156.262073 294.46029 
L 156.578501 294.301354 
L 157.053142 294.131117 
L 159.742775 294.787618 
L 160.217416 294.724183 
L 160.850271 294.891732 
L 161.483126 295.240262 
L 162.115981 295.270032 
L 162.590622 295.339636 
L 162.907049 295.293126 
L 163.539904 295.066926 
L 164.014545 295.124111 
L 164.330973 295.276848 
L 165.280255 295.126979 
L 166.387751 295.08896 
L 167.17882 295.04441 
L 168.128102 295.077419 
L 168.919171 294.747829 
L 169.393812 294.678752 
L 169.868453 294.646033 
L 170.18488 294.747625 
L 170.659522 294.652306 
L 170.975949 294.549138 
L 171.45059 294.324001 
L 171.767018 294.425266 
L 172.874514 294.231469 
L 173.190941 294.214283 
L 173.823796 294.40261 
L 174.298437 294.469603 
L 176.355215 294.435808 
L 177.146284 294.362457 
L 177.462711 294.329634 
L 177.937352 294.341591 
L 178.095566 294.352193 
L 178.570207 294.036017 
L 179.203062 293.912885 
L 179.677703 294.056089 
L 179.994131 294.095056 
L 180.310558 294.211929 
L 181.892695 294.728021 
L 183.79126 294.868282 
L 184.582329 295.057792 
L 186.006252 295.190344 
L 186.322679 295.009552 
L 186.955534 295.115803 
L 187.271962 294.716362 
L 187.588389 294.886978 
L 188.06303 294.653155 
L 188.379458 294.744001 
L 188.537671 294.812087 
L 188.695885 294.731583 
L 189.012313 294.489096 
L 189.32874 294.468301 
L 189.803381 294.56896 
L 190.119809 294.795847 
L 190.436236 294.818804 
L 190.752663 294.985081 
L 192.493014 294.720118 
L 192.809442 294.58194 
L 194.233365 294.259448 
L 196.606571 294.49281 
L 196.922998 294.386382 
L 197.714067 294.63864 
L 198.663349 294.656542 
L 199.296204 294.853538 
L 199.929059 295.016284 
L 200.087273 295.099472 
L 200.4037 295.012262 
L 200.720128 295.141767 
L 201.827624 295.037739 
L 202.460478 294.900833 
L 202.776906 294.942407 
L 203.093333 294.853266 
L 203.567974 294.915965 
L 204.833684 294.998487 
L 205.466539 295.140775 
L 205.782967 295.025615 
L 206.099394 295.081713 
L 206.732249 295.126407 
L 207.048676 295.095366 
L 207.365104 294.965381 
L 207.523317 295.001104 
L 207.839745 294.855737 
L 208.156172 294.796047 
L 208.4726 294.817277 
L 208.789027 294.844333 
L 209.105455 294.756888 
L 209.580096 294.921626 
L 209.896523 294.761398 
L 210.371164 294.798071 
L 211.636874 294.791587 
L 212.902584 294.401584 
L 213.377225 294.578568 
L 213.693652 294.565438 
L 213.851866 294.647985 
L 214.484721 294.470786 
L 214.801148 294.528569 
L 214.959362 294.595625 
L 215.275789 294.499107 
L 215.592217 294.644334 
L 216.383285 294.783545 
L 217.01614 294.933955 
L 218.123636 294.960048 
L 219.072919 295.134925 
L 219.705774 295.115793 
L 220.338628 295.132477 
L 220.655056 295.13767 
L 222.55362 295.370745 
L 222.870048 295.472765 
L 223.344689 295.381144 
L 224.926826 295.299456 
L 225.08504 295.095781 
L 225.243254 295.086538 
L 225.559681 295.291232 
L 227.774673 294.949918 
L 228.0911 295.013178 
L 228.723955 294.811229 
L 230.780734 294.552039 
L 231.255375 294.63181 
L 231.571802 294.653835 
L 232.046443 294.487835 
L 232.521085 294.686775 
L 232.679298 294.464445 
L 232.995726 293.53948 
L 233.470367 293.447055 
L 233.786794 293.371759 
L 234.103222 293.475919 
L 234.89429 292.664128 
L 236.001786 292.842778 
L 236.318214 292.712717 
L 236.951069 292.999112 
L 237.900351 293.365528 
L 238.691419 293.415096 
L 239.007847 293.328837 
L 240.115343 293.28268 
L 240.43177 293.535642 
L 240.748198 293.538859 
L 241.064625 293.515909 
L 241.381053 293.612271 
L 241.69748 293.549531 
L 242.488549 293.73264 
L 242.96319 293.910038 
L 243.437831 293.74961 
L 243.912472 293.352943 
L 244.387113 292.758413 
L 245.178182 292.166914 
L 245.811037 291.955405 
L 246.443892 292.057501 
L 246.918533 291.737157 
L 247.23496 291.771253 
L 247.867815 291.839069 
L 248.342456 291.957011 
L 249.449952 291.990152 
L 249.76638 292.011716 
L 250.241021 292.245433 
L 250.715662 292.248124 
L 251.032089 292.357949 
L 251.664944 292.36494 
L 251.981372 292.439227 
L 252.456013 292.394719 
L 252.77244 292.5769 
L 253.247081 292.545345 
L 253.879936 292.786708 
L 254.196364 292.781784 
L 254.512791 292.915942 
L 254.829219 292.815937 
L 255.620287 292.881645 
L 255.936715 293.006533 
L 256.094928 293.064944 
L 256.411356 292.966951 
L 257.044211 293.046301 
L 258.942775 293.047758 
L 259.417416 292.963169 
L 259.892057 293.179276 
L 260.683126 293.130342 
L 260.999553 293.052157 
L 261.632408 292.515016 
L 262.265263 292.389753 
L 262.739904 292.340759 
L 263.214545 292.416555 
L 263.689187 292.544401 
L 264.796683 280.017843 
L 266.062392 271.833307 
L 267.011675 267.194729 
L 268.277384 261.68196 
L 270.175949 254.278343 
L 271.599872 249.466387 
L 274.447719 241.551076 
L 277.295566 234.719288 
L 278.71949 231.799631 
L 279.668772 229.6719 
L 281.092695 227.086318 
L 281.72555 225.844995 
L 283.307687 222.389466 
L 286.155534 215.160865 
L 288.054099 209.538261 
L 289.636236 204.491763 
L 290.585518 200.510524 
L 291.060159 198.041028 
L 291.218373 197.886332 
L 291.534801 195.919232 
L 291.693014 195.282058 
L 291.851228 193.390892 
L 292.009442 193.564483 
L 292.167656 190.889193 
L 292.325869 191.550616 
L 292.642297 187.80037 
L 292.80051 187.642328 
L 292.958724 181.315757 
L 293.116938 187.538322 
L 293.433365 59.431321 
L 293.591579 87.199687 
L 293.908006 161.298847 
L 294.224434 186.85115 
L 294.540861 195.679832 
L 294.857289 198.786948 
L 295.015502 198.386808 
L 295.173716 199.314333 
L 295.33193 198.507594 
L 295.490144 198.922466 
L 295.964785 197.952951 
L 296.281212 196.858095 
L 296.914067 194.419107 
L 297.546922 192.478867 
L 298.33799 190.254518 
L 299.6037 186.950571 
L 300.394769 184.322317 
L 301.976906 178.567608 
L 302.13512 177.139488 
L 302.293333 176.939227 
L 302.609761 174.660263 
L 302.767974 174.040149 
L 302.926188 171.204368 
L 303.084402 171.521611 
L 303.242616 166.335467 
L 303.400829 167.306403 
L 303.559043 142.915305 
L 303.717257 78.241532 
L 303.87547 67.974762 
L 304.350112 159.440792 
L 304.666539 179.400833 
L 304.982967 187.639102 
L 305.299394 191.896051 
L 305.615821 194.685035 
L 306.248676 197.706236 
L 306.40689 197.785186 
L 306.723317 198.100682 
L 306.881531 198.105235 
L 307.039745 198.309318 
L 307.197959 198.204616 
L 308.147241 198.441199 
L 308.463668 198.269674 
L 308.780096 198.272049 
L 309.254737 198.100935 
L 312.260797 196.761902 
L 312.577225 196.655063 
L 313.21008 196.233079 
L 313.526507 196.112117 
L 313.684721 195.931548 
L 314.475789 195.822783 
L 315.108644 195.509566 
L 315.425072 195.121061 
L 316.532568 194.963919 
L 316.848995 194.823675 
L 317.165423 194.583623 
L 317.956491 194.307619 
L 318.272919 194.029921 
L 318.589346 194.013659 
L 319.380415 193.615931 
L 319.696842 193.367882 
L 320.171483 193.0966 
L 320.646124 192.766391 
L 320.804338 192.793573 
L 321.75362 191.975974 
L 322.228262 191.863657 
L 323.01933 191.464866 
L 323.493971 190.774794 
L 324.126826 190.263752 
L 324.443254 190.023257 
L 325.234322 189.519006 
L 325.55075 189.543387 
L 326.500032 188.737669 
L 326.816459 188.611249 
L 327.765742 188.025549 
L 328.082169 187.759436 
L 328.55681 187.353847 
L 329.031451 186.723988 
L 329.664306 186.295873 
L 329.82252 186.11455 
L 330.138947 186.029959 
L 331.08823 185.109195 
L 332.512153 183.461797 
L 333.303222 182.370135 
L 333.936077 181.995778 
L 334.09429 181.998487 
L 334.568931 181.500348 
L 334.885359 180.896179 
L 335.36 180.759782 
L 335.676427 180.412813 
L 335.992855 180.136048 
L 336.309282 179.755451 
L 337.258565 178.553013 
L 337.891419 177.718217 
L 338.840702 176.29455 
L 339.473557 174.308875 
L 339.63177 174.036605 
L 339.789984 173.132263 
L 339.948198 172.882561 
L 340.264625 171.306135 
L 340.422839 170.818816 
L 340.581053 169.232802 
L 340.739266 169.270705 
L 340.89748 166.794889 
L 341.055694 166.509428 
L 341.372121 161.524294 
L 341.530335 151.484698 
L 341.846762 62.433119 
L 342.479617 166.886651 
L 342.954258 185.450358 
L 343.270686 190.979285 
L 343.903541 196.832142 
L 345.011037 200.824575 
L 345.802105 202.489234 
L 346.909601 203.786307 
L 347.226029 204.008855 
L 347.858884 204.440022 
L 348.017097 204.47107 
L 348.649952 205.051253 
L 349.441021 205.425624 
L 349.915662 205.536381 
L 350.548517 205.887711 
L 351.181372 206.158721 
L 352.130654 206.718099 
L 353.712791 207.458879 
L 354.029219 207.68749 
L 354.345646 207.867361 
L 354.662073 208.077314 
L 355.136715 208.15217 
L 355.453142 208.26585 
L 355.769569 208.300139 
L 356.402424 208.815267 
L 356.560638 208.835251 
L 356.718852 208.988652 
L 356.877065 208.948869 
L 357.351707 209.139475 
L 359.408485 209.875321 
L 361.623477 210.720833 
L 361.939904 210.726042 
L 362.256332 210.735259 
L 362.414545 210.649143 
L 362.730973 210.682872 
L 362.889187 210.651922 
L 363.205614 210.919091 
L 363.838469 210.903841 
L 364.31311 211.068693 
L 366.211675 211.042404 
L 366.369888 210.984301 
L 366.84453 211.136531 
L 368.110239 211.291818 
L 368.901308 211.597551 
L 369.85059 211.639737 
L 370.641659 211.833358 
L 371.274514 211.961728 
L 371.590941 212.1403 
L 371.749155 212.099704 
L 372.38201 212.317374 
L 372.698437 212.261915 
L 373.014864 212.432833 
L 373.489506 212.36114 
L 374.12236 212.584808 
L 374.438788 212.689481 
L 374.913429 212.941903 
L 375.546284 212.914689 
L 375.704498 212.806918 
L 376.337352 212.96727 
L 376.65378 212.886764 
L 376.970207 212.930649 
L 377.444848 213.039032 
L 377.761276 212.89293 
L 379.026986 212.854516 
L 379.976268 213.25863 
L 380.292695 213.188948 
L 380.767337 213.319873 
L 381.716619 213.487169 
L 382.19126 213.586283 
L 382.665901 213.829698 
L 382.982329 213.823408 
L 383.773397 214.027622 
L 383.931611 214.010499 
L 384.564466 214.459779 
L 384.880893 214.313341 
L 385.355534 214.451113 
L 388.045167 214.5722 
L 388.99445 214.777269 
L 389.310877 214.750448 
L 389.943732 214.8995 
L 391.684083 215.136007 
L 392.158724 214.000568 
L 392.475152 213.197681 
L 392.949793 212.673998 
L 393.899075 212.685407 
L 394.215502 212.823634 
L 394.690144 212.846504 
L 395.481212 213.151716 
L 396.905136 213.565635 
L 397.221563 213.479053 
L 397.53799 213.597495 
L 397.854418 213.723546 
L 398.012632 213.732895 
L 398.487273 214.131727 
L 398.487273 214.131727 
" style="fill:none;stroke:#000000;stroke-linecap:square;stroke-width:1.5;"/>
   </g>
   <g id="line2d_16">
    <path clip-path="url(#p2c11b0dba7)" d="M 73.832727 223.614364 
L 74.149155 223.552471 
L 74.465582 223.468864 
L 75.098437 223.666044 
L 75.414864 223.631046 
L 75.731292 223.700856 
L 75.889506 223.675505 
L 76.205933 223.810121 
L 76.680574 223.802134 
L 77.313429 223.86469 
L 77.629856 223.854099 
L 77.946284 223.865332 
L 78.737352 223.936929 
L 79.528421 224.067765 
L 80.31949 223.935665 
L 80.635917 223.876286 
L 80.794131 223.827671 
L 81.110558 223.912723 
L 81.268772 223.895795 
L 81.585199 223.972844 
L 81.901627 223.982576 
L 83.958405 224.44498 
L 84.749474 224.435143 
L 85.698756 224.442262 
L 86.173397 224.367044 
L 86.489825 224.462691 
L 86.964466 224.383622 
L 87.755534 223.980977 
L 88.546603 223.967823 
L 88.86303 223.933282 
L 89.021244 223.994914 
L 89.495885 223.830599 
L 90.603381 223.883288 
L 90.919809 223.829606 
L 94.084083 223.985761 
L 94.242297 224.056777 
L 95.033365 223.818209 
L 95.349793 223.788285 
L 95.66622 223.797021 
L 96.299075 223.868182 
L 96.773716 223.905644 
L 97.090144 223.954008 
L 97.406571 224.00627 
L 97.722998 223.813249 
L 99.146922 223.628896 
L 99.621563 223.672688 
L 100.254418 223.626293 
L 100.729059 223.718147 
L 101.045486 223.59899 
L 101.836555 223.525842 
L 102.311196 223.649097 
L 102.944051 223.511028 
L 103.260478 223.615097 
L 103.576906 223.495731 
L 104.051547 223.511675 
L 105.47547 223.360027 
L 106.424753 227.802755 
L 109.589027 234.794735 
L 109.905455 235.27075 
L 110.380096 236.171136 
L 112.753301 239.74126 
L 115.917576 243.597721 
L 116.234003 243.919905 
L 116.550431 244.207421 
L 116.866858 244.323443 
L 117.81614 245.315635 
L 118.132568 245.66752 
L 118.607209 246.109819 
L 119.872919 247.324358 
L 120.505774 247.782673 
L 121.138628 248.247922 
L 121.455056 248.406822 
L 121.771483 248.483592 
L 122.087911 248.548213 
L 124.302903 250.227064 
L 124.935758 250.473224 
L 126.517895 251.240111 
L 128.100032 251.752314 
L 128.416459 251.905395 
L 128.574673 252.063267 
L 128.8911 252.133001 
L 129.207528 252.263267 
L 131.42252 253.038914 
L 132.055375 253.058408 
L 132.371802 253.104591 
L 132.68823 253.031741 
L 133.162871 253.147146 
L 133.479298 253.140042 
L 133.795726 253.31636 
L 134.270367 253.411091 
L 134.903222 253.662969 
L 135.219649 253.700319 
L 135.536077 253.850372 
L 136.010718 253.828806 
L 136.801786 253.967156 
L 137.434641 254.239749 
L 138.700351 254.542481 
L 139.333206 254.822359 
L 139.649633 254.831182 
L 140.440702 254.772611 
L 140.757129 254.858699 
L 141.389984 254.758173 
L 141.706411 254.888724 
L 142.181053 254.813678 
L 142.49748 254.833343 
L 142.813907 254.810295 
L 143.446762 254.688026 
L 143.76319 254.825583 
L 144.079617 254.802894 
L 144.396045 254.937139 
L 145.661754 254.539119 
L 146.611037 254.910927 
L 147.085678 254.998735 
L 147.243892 255.045146 
L 147.560319 254.624887 
L 147.876746 254.26093 
L 149.458884 254.553322 
L 149.775311 254.634062 
L 150.882807 254.69673 
L 151.199234 254.654645 
L 151.990303 254.74244 
L 153.256013 255.108801 
L 154.047081 255.129823 
L 154.679936 254.755159 
L 155.312791 254.819966 
L 157.053142 254.396723 
L 157.527783 254.489293 
L 157.685997 254.541949 
L 157.844211 254.390072 
L 158.793493 252.249045 
L 159.268134 251.861779 
L 160.059203 251.687337 
L 160.850271 251.94444 
L 161.483126 252.011562 
L 161.799553 252.049176 
L 162.590622 252.052669 
L 163.065263 252.222815 
L 164.805614 252.373278 
L 166.229537 252.539121 
L 167.337033 252.563033 
L 167.495247 252.635813 
L 167.811675 252.466918 
L 168.286316 252.464614 
L 168.919171 252.603665 
L 169.077384 252.687284 
L 169.552026 252.576219 
L 170.18488 252.655201 
L 170.343094 252.657471 
L 170.501308 252.790205 
L 170.659522 252.679442 
L 171.134163 251.201648 
L 171.45059 250.767422 
L 171.925231 250.729619 
L 172.558086 251.129658 
L 173.823796 251.872223 
L 174.140223 251.911017 
L 174.456651 252.039734 
L 175.089506 252.16426 
L 175.72236 252.381662 
L 176.038788 252.604103 
L 176.513429 252.630403 
L 176.671643 252.59066 
L 176.98807 252.854723 
L 177.462711 252.700846 
L 178.095566 252.789878 
L 178.411994 252.769317 
L 179.044848 252.93899 
L 179.677703 253.147994 
L 179.994131 253.089283 
L 180.626986 253.272612 
L 180.943413 253.242549 
L 181.259841 253.388047 
L 182.050909 253.441327 
L 182.841978 253.50251 
L 183.474833 253.230527 
L 183.949474 253.367271 
L 184.265901 253.455625 
L 184.740542 253.457612 
L 185.05697 253.416324 
L 185.689825 253.45062 
L 185.848038 253.507936 
L 186.639107 253.248576 
L 186.955534 253.236098 
L 187.746603 253.264642 
L 188.06303 253.292685 
L 188.695885 253.427803 
L 188.854099 253.433776 
L 189.170526 253.667409 
L 189.486954 253.641811 
L 189.961595 253.541553 
L 191.543732 253.663871 
L 191.860159 253.818923 
L 193.60051 253.512467 
L 193.916938 253.615901 
L 195.024434 253.75437 
L 195.340861 253.7997 
L 195.657289 253.671843 
L 195.973716 253.701738 
L 196.290144 253.68181 
L 196.606571 253.676282 
L 196.922998 253.721575 
L 197.39764 253.838107 
L 198.346922 254.079976 
L 198.821563 254.049616 
L 199.296204 253.890744 
L 199.929059 253.947948 
L 201.352982 254.045396 
L 203.251547 254.335597 
L 203.884402 253.993632 
L 204.359043 254.1833 
L 204.67547 254.156129 
L 205.308325 254.291177 
L 205.624753 254.244873 
L 206.257608 254.122948 
L 206.574035 254.158427 
L 206.890463 254.215359 
L 207.365104 254.240586 
L 208.156172 254.417124 
L 208.789027 254.423969 
L 209.263668 254.272283 
L 209.738309 254.146106 
L 210.054737 253.999302 
L 210.687592 254.142415 
L 211.004019 254.067198 
L 211.320447 254.074869 
L 211.636874 254.169602 
L 212.111515 254.248394 
L 213.060797 254.188215 
L 214.01008 254.02372 
L 214.168293 253.824911 
L 214.484721 253.791592 
L 214.801148 253.659091 
L 215.592217 253.512303 
L 216.225072 253.509301 
L 218.756491 253.63541 
L 219.389346 253.741351 
L 220.81327 253.708776 
L 221.129697 253.775427 
L 221.446124 253.726537 
L 221.920766 253.565797 
L 223.186475 253.316076 
L 223.81933 253.622762 
L 224.135758 253.527345 
L 224.610399 253.665036 
L 225.08504 253.576206 
L 225.559681 253.656093 
L 226.192536 253.618942 
L 229.989665 253.428358 
L 230.62252 253.345545 
L 231.413589 253.274398 
L 231.730016 253.262368 
L 232.204657 253.307008 
L 232.521085 253.462008 
L 232.995726 253.632781 
L 233.786794 253.537682 
L 234.103222 253.650625 
L 234.736077 253.627031 
L 235.052504 253.755092 
L 235.685359 253.584332 
L 236.001786 253.629105 
L 236.318214 253.569745 
L 236.792855 253.710929 
L 237.109282 253.708603 
L 237.42571 253.534148 
L 238.533206 253.451906 
L 239.324274 253.212059 
L 239.798915 253.369719 
L 241.222839 253.042405 
L 241.69748 253.052033 
L 242.013907 253.0908 
L 242.172121 252.995205 
L 242.804976 253.266385 
L 242.96319 253.235618 
L 243.279617 253.075709 
L 244.387113 253.068661 
L 245.178182 253.412998 
L 245.652823 253.480653 
L 246.760319 253.327876 
L 247.076746 253.494057 
L 247.551388 253.546566 
L 247.867815 253.663485 
L 248.342456 253.7232 
L 249.291738 253.593727 
L 249.449952 253.470147 
L 249.76638 253.555665 
L 250.715662 253.56257 
L 251.50673 253.441985 
L 252.297799 253.125704 
L 252.930654 253.313691 
L 254.196364 253.46863 
L 254.671005 253.574771 
L 255.145646 253.580719 
L 255.620287 253.523692 
L 255.778501 253.391821 
L 257.044211 253.493336 
L 257.518852 253.388499 
L 257.835279 253.382436 
L 258.30992 253.462117 
L 258.784561 253.586053 
L 259.100989 253.503571 
L 259.417416 253.571756 
L 259.733844 253.567596 
L 260.050271 253.474255 
L 260.524912 253.500986 
L 261.632408 253.3503 
L 262.581691 252.982911 
L 262.898118 253.118167 
L 263.372759 253.019514 
L 263.689187 253.026904 
L 264.480255 248.610785 
L 265.429537 245.706605 
L 266.853461 242.270449 
L 267.169888 241.480367 
L 268.119171 239.64362 
L 268.752026 238.389492 
L 269.701308 237.054394 
L 271.599872 234.847993 
L 271.758086 234.801781 
L 272.707368 233.757476 
L 275.871643 230.297389 
L 276.346284 230.067329 
L 277.611994 229.299217 
L 277.770207 229.291714 
L 278.244848 229.031676 
L 279.985199 228.063486 
L 280.618054 227.598513 
L 280.934482 227.490715 
L 281.250909 227.411162 
L 281.567337 227.244423 
L 282.99126 226.553304 
L 283.307687 226.409935 
L 283.782329 226.199259 
L 284.415183 226.081096 
L 284.889825 225.741878 
L 285.206252 225.633524 
L 285.680893 225.435609 
L 286.313748 225.239359 
L 286.630175 225.226595 
L 287.26303 225.001377 
L 287.895885 224.9664 
L 288.212313 224.891037 
L 288.686954 224.782117 
L 289.161595 224.578058 
L 289.478022 224.680288 
L 291.376587 223.858797 
L 291.693014 223.801421 
L 292.009442 223.893284 
L 295.33193 222.813171 
L 295.806571 222.825124 
L 296.122998 222.792142 
L 296.439426 222.622874 
L 296.755853 222.564159 
L 299.761914 221.754316 
L 300.236555 221.618059 
L 300.552982 221.416492 
L 300.86941 221.434413 
L 301.185837 221.303831 
L 301.660478 221.300026 
L 303.242616 221.187783 
L 303.559043 221.224418 
L 304.033684 220.94142 
L 304.350112 220.951002 
L 304.666539 220.787517 
L 305.299394 220.851061 
L 305.615821 220.736404 
L 306.248676 220.544248 
L 306.565104 220.559028 
L 306.881531 220.709082 
L 308.305455 220.662582 
L 308.780096 220.741455 
L 309.096523 220.612445 
L 309.254737 220.651519 
L 309.571164 220.582513 
L 310.204019 220.523959 
L 311.153301 220.354924 
L 312.102584 220.191058 
L 312.419011 220.292006 
L 312.735439 220.204359 
L 313.21008 220.341214 
L 313.684721 220.308675 
L 314.159362 220.339405 
L 314.475789 220.241368 
L 315.425072 219.993624 
L 315.741499 220.025262 
L 316.057927 219.851025 
L 317.323636 219.670526 
L 319.380415 219.666652 
L 319.538628 219.562176 
L 320.01327 219.704454 
L 320.646124 219.636149 
L 321.120766 219.549314 
L 321.911834 219.198518 
L 324.28504 219.059427 
L 324.759681 219.138497 
L 325.234322 219.229964 
L 325.55075 219.362159 
L 326.025391 219.282079 
L 327.923955 219.064404 
L 328.240383 219.10894 
L 328.55681 219.114732 
L 328.873238 219.26555 
L 329.189665 219.209661 
L 329.347879 219.253337 
L 329.506093 219.172961 
L 329.82252 219.296611 
L 330.297161 219.114403 
L 330.613589 219.076044 
L 332.353939 218.941451 
L 332.828581 218.743132 
L 332.986794 218.780067 
L 333.303222 218.670231 
L 333.461435 218.766582 
L 333.777863 218.70499 
L 334.252504 218.877075 
L 334.885359 218.934453 
L 335.201786 218.930246 
L 335.518214 218.842608 
L 336.151069 219.045638 
L 336.62571 218.929354 
L 337.100351 218.900194 
L 338.207847 218.852057 
L 338.840702 218.682 
L 339.157129 218.691513 
L 339.473557 218.835134 
L 340.581053 218.929198 
L 340.89748 218.798537 
L 342.004976 218.796932 
L 342.479617 218.456163 
L 342.954258 218.29937 
L 343.270686 218.365583 
L 343.745327 218.326293 
L 346.118533 218.253149 
L 346.43496 218.180131 
L 347.542456 218.176077 
L 347.858884 218.256872 
L 348.333525 218.388647 
L 352.447081 219.517874 
L 352.921722 219.448163 
L 353.396364 219.671563 
L 356.244211 219.874038 
L 356.877065 219.666658 
L 357.351707 219.717739 
L 357.668134 219.759136 
L 357.984561 219.848233 
L 358.300989 219.793376 
L 358.77563 219.832309 
L 359.092057 219.85534 
L 360.515981 219.952147 
L 360.674195 219.670594 
L 361.148836 217.916698 
L 361.939904 217.901106 
L 362.730973 217.990205 
L 363.522041 218.228011 
L 363.996683 218.521966 
L 364.471324 218.468239 
L 364.945965 218.546274 
L 365.262392 218.75201 
L 365.57882 218.772071 
L 366.211675 219.085276 
L 366.528102 219.130619 
L 366.686316 219.224502 
L 367.002743 219.158305 
L 367.319171 219.228978 
L 367.793812 219.246771 
L 368.268453 219.389461 
L 368.58488 219.531327 
L 369.217735 219.671856 
L 370.167018 219.287922 
L 370.483445 219.315388 
L 370.799872 219.298133 
L 371.1163 219.437332 
L 371.274514 219.356161 
L 371.590941 219.398917 
L 371.749155 219.3618 
L 371.907368 219.536329 
L 372.065582 219.498121 
L 372.540223 219.175028 
L 373.014864 219.227966 
L 373.647719 219.322024 
L 373.964147 219.247433 
L 374.280574 219.258493 
L 374.438788 219.215294 
L 374.755215 219.341062 
L 375.071643 219.140458 
L 377.761276 219.297614 
L 378.394131 219.530994 
L 378.710558 219.516388 
L 379.026986 219.132191 
L 379.501627 218.582536 
L 380.767337 217.726023 
L 381.716619 217.949425 
L 382.19126 217.936187 
L 383.615183 218.237554 
L 383.773397 218.153322 
L 384.406252 218.367659 
L 385.355534 218.359486 
L 385.671962 218.375635 
L 386.621244 218.579905 
L 386.937671 218.710549 
L 389.469091 218.846259 
L 389.785518 218.984673 
L 390.418373 218.88133 
L 391.051228 218.862864 
L 391.367656 218.874379 
L 392.633365 219.14487 
L 393.108006 219.275181 
L 394.057289 218.199756 
L 394.373716 217.950587 
L 395.164785 217.834218 
L 396.114067 217.979051 
L 397.53799 218.531254 
L 398.487273 218.453989 
L 398.487273 218.453989 
" style="fill:none;stroke:#000000;stroke-linecap:square;stroke-width:1.5;"/>
   </g>
   <g id="line2d_17">
    <path clip-path="url(#p2c11b0dba7)" d="M 73.832727 224.07181 
L 76.047719 224.727558 
L 76.52236 224.694374 
L 76.838788 224.669102 
L 77.155215 224.849274 
L 77.78807 224.936785 
L 78.262711 225.09711 
L 78.579139 225.092803 
L 79.211994 225.366409 
L 79.528421 225.359391 
L 79.844848 225.463817 
L 80.794131 225.461166 
L 81.110558 225.521484 
L 82.850909 225.583708 
L 83.958405 225.407727 
L 84.433046 225.32775 
L 87.913748 225.437919 
L 88.546603 225.189824 
L 88.86303 225.219667 
L 90.12874 225.13931 
L 90.445167 225.292394 
L 95.033365 225.115577 
L 95.349793 225.025152 
L 97.722998 225.15121 
L 99.146922 225.064395 
L 101.361914 225.037944 
L 101.678341 224.970758 
L 101.994769 225.001683 
L 103.102265 225.017683 
L 103.418692 225.030162 
L 104.526188 225.246049 
L 105.47547 225.237419 
L 106.424753 220.86992 
L 107.215821 218.715272 
L 108.323317 216.208126 
L 109.589027 213.666866 
L 112.120447 209.377588 
L 114.019011 206.806238 
L 114.968293 205.730662 
L 115.917576 204.499674 
L 116.234003 204.091695 
L 116.550431 203.695015 
L 117.183285 203.091458 
L 117.81614 202.268351 
L 118.132568 201.997742 
L 118.607209 201.524285 
L 119.556491 200.563733 
L 120.34756 199.781002 
L 120.822201 199.188473 
L 121.929697 198.358885 
L 122.246124 198.278135 
L 123.037193 197.646144 
L 123.511834 197.191688 
L 124.461116 196.398927 
L 124.61933 196.367557 
L 124.935758 196.203699 
L 125.88504 195.802247 
L 127.941818 195.189315 
L 128.416459 195.098352 
L 128.8911 194.623409 
L 129.207528 194.401412 
L 129.840383 193.820331 
L 130.315024 193.540126 
L 130.631451 193.296416 
L 130.947879 193.246223 
L 132.371802 192.425829 
L 133.162871 191.558417 
L 134.112153 191.155287 
L 134.428581 190.884145 
L 134.745008 190.630615 
L 135.536077 189.898015 
L 136.168931 189.695971 
L 136.643573 189.281209 
L 138.383923 188.395377 
L 138.700351 188.15748 
L 139.649633 187.335001 
L 139.807847 187.260777 
L 140.282488 186.630074 
L 140.915343 186.203801 
L 141.389984 185.56771 
L 142.181053 184.773098 
L 142.655694 184.411975 
L 143.288549 183.852521 
L 143.604976 183.281099 
L 144.079617 182.915604 
L 144.712472 182.144186 
L 145.0289 182.089881 
L 145.503541 181.993268 
L 145.978182 181.608592 
L 146.136396 181.591987 
L 146.294609 181.457898 
L 147.402105 179.55649 
L 148.351388 178.417794 
L 148.826029 177.812547 
L 149.458884 175.760976 
L 149.617097 175.848044 
L 149.775311 175.195567 
L 149.933525 175.176767 
L 150.091738 174.865047 
L 150.249952 173.993459 
L 150.408166 174.289108 
L 150.56638 172.847776 
L 150.724593 173.312806 
L 150.882807 171.924814 
L 151.041021 171.866109 
L 151.199234 171.605953 
L 151.357448 168.738853 
L 151.515662 170.828914 
L 151.673876 164.334555 
L 151.832089 169.459053 
L 151.990303 140.583704 
L 152.148517 64.272111 
L 152.30673 67.858199 
L 152.623158 153.693115 
L 152.939585 185.855276 
L 153.256013 197.212206 
L 153.888868 202.859138 
L 154.205295 203.361393 
L 154.363509 203.855609 
L 154.521722 203.720545 
L 154.679936 204.127067 
L 154.83815 203.907217 
L 155.154577 204.025472 
L 155.312791 203.926577 
L 155.471005 203.972782 
L 155.629219 203.817741 
L 155.787432 203.829718 
L 157.053142 202.985624 
L 157.369569 202.940649 
L 157.685997 202.709186 
L 157.844211 202.642939 
L 158.318852 202.166409 
L 162.274195 199.478543 
L 162.432408 199.486499 
L 163.223477 198.85071 
L 164.014545 198.643677 
L 164.172759 198.628344 
L 164.489187 198.441266 
L 164.6474 198.39582 
L 164.963828 198.206942 
L 165.122041 198.168393 
L 165.596683 197.798816 
L 166.071324 197.659243 
L 167.653461 196.945644 
L 168.919171 196.432455 
L 169.235598 196.243971 
L 169.552026 196.15305 
L 170.18488 195.592708 
L 170.659522 195.344538 
L 171.134163 195.091536 
L 171.45059 195.025044 
L 172.399872 194.786257 
L 173.190941 194.504571 
L 173.823796 194.241503 
L 174.140223 194.324278 
L 174.456651 194.094736 
L 174.614864 194.119833 
L 175.089506 193.856399 
L 176.038788 193.488937 
L 176.671643 193.068866 
L 177.304498 192.827861 
L 177.779139 192.870279 
L 178.728421 192.431074 
L 179.203062 192.326476 
L 179.835917 192.060795 
L 180.152344 191.83438 
L 180.468772 191.792131 
L 181.734482 191.293775 
L 182.050909 191.35009 
L 182.209123 191.250407 
L 182.683764 191.411726 
L 183.158405 191.357778 
L 183.633046 191.327837 
L 184.107687 191.027108 
L 184.740542 190.800147 
L 185.05697 190.593531 
L 185.215183 190.627761 
L 186.164466 190.138718 
L 186.480893 190.195057 
L 186.955534 190.289165 
L 187.271962 190.309134 
L 187.588389 190.152479 
L 187.746603 190.188185 
L 188.06303 189.992513 
L 188.379458 190.041499 
L 188.695885 189.916382 
L 190.278022 189.340659 
L 190.436236 189.511615 
L 190.752663 189.384034 
L 191.543732 189.012539 
L 192.018373 188.95189 
L 192.176587 189.037763 
L 192.651228 188.930381 
L 193.916938 188.782136 
L 195.340861 188.343465 
L 195.815502 188.297217 
L 196.290144 187.978078 
L 196.606571 188.009539 
L 196.922998 188.002065 
L 197.239426 187.895635 
L 197.555853 187.762701 
L 197.872281 187.879488 
L 198.346922 187.993818 
L 198.821563 188.142702 
L 199.296204 188.406345 
L 199.612632 188.349072 
L 199.929059 188.197505 
L 200.245486 188.223691 
L 200.4037 188.233902 
L 200.720128 188.118527 
L 201.352982 188.302121 
L 201.511196 188.359768 
L 201.827624 188.264528 
L 202.144051 188.353847 
L 202.460478 188.256104 
L 202.93512 188.395067 
L 203.251547 188.287877 
L 203.567974 188.441185 
L 204.042616 188.31207 
L 204.359043 188.064547 
L 205.308325 188.264999 
L 205.624753 188.215872 
L 205.782967 188.226343 
L 205.94118 188.089314 
L 206.574035 188.139238 
L 206.890463 188.120832 
L 207.365104 188.093305 
L 207.681531 188.056416 
L 207.997959 188.139788 
L 208.4726 188.08539 
L 208.789027 187.917655 
L 211.953301 188.048968 
L 212.269729 188.191603 
L 212.586156 188.096648 
L 212.902584 187.971043 
L 214.01008 188.176022 
L 214.168293 188.343704 
L 216.225072 187.910213 
L 216.541499 187.746403 
L 216.857927 187.733319 
L 217.174354 187.594636 
L 217.332568 187.596367 
L 217.490781 187.46325 
L 217.965423 187.455024 
L 218.598278 187.267907 
L 219.231132 187.222428 
L 219.705774 187.226436 
L 220.022201 187.286289 
L 220.496842 187.429184 
L 220.81327 187.318889 
L 221.129697 187.413832 
L 222.55362 187.324212 
L 223.028262 187.297299 
L 223.502903 187.256477 
L 223.81933 187.16798 
L 224.293971 187.150949 
L 224.610399 187.167475 
L 224.926826 187.093714 
L 225.401467 186.988607 
L 225.876108 186.921216 
L 226.034322 186.781364 
L 226.667177 186.855444 
L 227.300032 186.984832 
L 227.616459 187.081251 
L 227.774673 187.074687 
L 228.0911 186.145047 
L 228.723955 184.627008 
L 229.198596 183.881389 
L 229.515024 183.665716 
L 229.831451 183.614038 
L 229.989665 183.62203 
L 230.306093 183.513546 
L 230.464306 183.56152 
L 230.780734 183.49002 
L 231.097161 183.627352 
L 231.413589 183.428422 
L 231.88823 183.39308 
L 232.204657 183.346202 
L 232.995726 183.643472 
L 234.419649 183.782237 
L 234.736077 183.923247 
L 236.16 183.980524 
L 236.318214 183.87441 
L 236.634641 183.943518 
L 236.951069 183.85435 
L 237.900351 184.308424 
L 238.058565 184.441204 
L 238.374992 184.417249 
L 238.849633 184.611299 
L 239.640702 184.560939 
L 239.957129 184.688502 
L 240.273557 184.568633 
L 240.589984 184.765638 
L 241.855694 184.578006 
L 242.330335 184.546039 
L 242.96319 184.579263 
L 243.121404 184.642523 
L 243.754258 184.352681 
L 244.2289 184.241588 
L 244.545327 184.016855 
L 245.494609 184.100563 
L 246.918533 183.838903 
L 247.23496 183.743204 
L 247.867815 183.845015 
L 248.184242 183.939311 
L 248.50067 184.144753 
L 250.873876 183.809638 
L 251.190303 183.742496 
L 251.981372 183.620437 
L 252.297799 183.721446 
L 252.77244 183.543516 
L 253.405295 183.476201 
L 254.03815 183.334757 
L 254.354577 183.323152 
L 255.145646 183.012181 
L 255.30386 183.052422 
L 255.936715 182.7811 
L 256.727783 182.884521 
L 257.360638 183.044265 
L 258.151707 182.830235 
L 258.626348 182.664872 
L 259.100989 182.675788 
L 259.892057 182.843244 
L 260.366699 182.863945 
L 260.999553 182.711462 
L 261.474195 182.773598 
L 261.790622 182.939484 
L 262.265263 182.886272 
L 262.581691 182.996004 
L 262.739904 183.048224 
L 263.056332 182.98124 
L 263.372759 182.920054 
L 263.689187 182.709839 
L 264.005614 184.565481 
L 264.638469 187.604097 
L 265.429537 190.089113 
L 266.37882 192.695435 
L 267.011675 194.358342 
L 268.435598 197.924303 
L 271.599872 204.923624 
L 271.9163 205.396052 
L 272.390941 206.356851 
L 273.18201 207.362375 
L 273.973078 208.265971 
L 274.605933 209.082693 
L 275.397002 209.994103 
L 276.662711 211.807299 
L 277.295566 212.364571 
L 277.770207 212.948263 
L 279.194131 214.363751 
L 279.985199 214.951116 
L 281.092695 216.144811 
L 281.567337 216.41303 
L 282.516619 217.317087 
L 284.25697 218.516585 
L 286.471962 219.663072 
L 287.104817 219.828639 
L 287.737671 220.035848 
L 288.054099 220.095306 
L 288.370526 220.014312 
L 290.110877 220.810844 
L 290.427305 220.948306 
L 291.693014 221.492593 
L 292.167656 221.62911 
L 293.116938 221.968694 
L 293.591579 222.099272 
L 293.908006 222.283332 
L 295.33193 222.623252 
L 295.490144 222.520931 
L 296.122998 222.795057 
L 296.59764 222.80983 
L 297.072281 222.939058 
L 297.230494 222.949428 
L 297.546922 223.181501 
L 298.021563 223.233693 
L 298.33799 223.215679 
L 298.654418 223.390201 
L 299.761914 223.634377 
L 300.078341 223.433588 
L 301.502265 223.49273 
L 302.926188 223.832429 
L 305.774035 224.237636 
L 306.090463 224.189102 
L 306.40689 224.219885 
L 307.514386 224.350413 
L 307.6726 224.27329 
L 307.989027 224.37289 
L 308.305455 224.442788 
L 309.096523 224.532478 
L 310.045805 224.818795 
L 310.520447 224.709548 
L 311.627943 224.823862 
L 312.260797 224.897437 
L 312.893652 224.945751 
L 313.368293 224.910712 
L 313.842935 224.975413 
L 314.159362 224.908986 
L 315.425072 224.964025 
L 315.741499 224.830817 
L 320.01327 225.4164 
L 320.329697 225.427288 
L 320.646124 225.520522 
L 321.911834 224.903289 
L 322.544689 225.022245 
L 322.861116 225.095783 
L 323.335758 225.123695 
L 323.652185 225.113672 
L 323.810399 225.035301 
L 324.917895 225.449001 
L 325.234322 225.565515 
L 326.974673 225.619574 
L 327.765742 225.735013 
L 328.082169 225.686007 
L 328.873238 225.778374 
L 329.189665 225.867894 
L 330.455375 225.747623 
L 330.771802 225.753517 
L 332.037512 225.77971 
L 332.353939 225.96237 
L 333.461435 225.756017 
L 333.936077 225.628253 
L 334.410718 225.640306 
L 334.727145 225.467314 
L 335.043573 225.523813 
L 335.36 225.61506 
L 336.62571 225.790036 
L 337.258565 225.724572 
L 338.207847 225.698975 
L 338.524274 225.803665 
L 339.157129 225.778274 
L 340.106411 225.777119 
L 341.846762 225.883408 
L 342.16319 225.835114 
L 342.321404 225.885773 
L 342.637831 225.808947 
L 342.954258 225.924302 
L 343.587113 225.918601 
L 344.378182 225.95361 
L 345.485678 225.759371 
L 345.802105 225.713301 
L 346.909601 225.662821 
L 347.226029 225.506738 
L 347.70067 225.495633 
L 348.175311 225.4504 
L 348.491738 225.356043 
L 348.808166 225.455289 
L 349.915662 225.209445 
L 357.984561 225.041083 
L 358.933844 224.778468 
L 359.724912 224.949951 
L 360.357767 224.888096 
L 360.990622 224.836478 
L 361.939904 225.205986 
L 362.256332 225.183788 
L 362.889187 225.285253 
L 365.57882 225.521973 
L 366.211675 225.303233 
L 367.160957 225.498856 
L 367.477384 225.523415 
L 370.483445 225.717671 
L 370.799872 225.915503 
L 372.223796 225.95465 
L 372.856651 226.098607 
L 373.489506 226.164607 
L 373.805933 226.016216 
L 375.229856 225.967977 
L 375.862711 225.887756 
L 376.020925 225.954059 
L 376.337352 225.801738 
L 376.65378 225.892488 
L 377.444848 225.745158 
L 377.91949 225.882736 
L 379.185199 225.8266 
L 379.501627 225.7352 
L 380.292695 225.711601 
L 380.767337 225.768264 
L 383.140542 225.654582 
L 384.880893 225.695776 
L 385.197321 225.609058 
L 387.570526 225.671762 
L 387.886954 225.542707 
L 388.678022 225.573769 
L 389.152663 225.490396 
L 390.734801 225.318428 
L 391.842297 225.36931 
L 393.582648 225.643807 
L 394.215502 225.70212 
L 394.53193 225.768603 
L 395.006571 225.732567 
L 395.322998 225.736504 
L 395.639426 225.714101 
L 396.588708 225.79388 
L 396.905136 225.732173 
L 397.221563 225.825412 
L 397.53799 225.691798 
L 398.487273 225.649203 
L 398.487273 225.649203 
" style="fill:none;stroke:#000000;stroke-linecap:square;stroke-width:1.5;"/>
   </g>
   <g id="line2d_18">
    <path clip-path="url(#p2c11b0dba7)" d="M 73.832727 227.491142 
L 74.149155 227.482832 
L 74.465582 227.336275 
L 75.414864 227.60726 
L 76.364147 227.654033 
L 77.155215 227.451036 
L 78.104498 227.75047 
L 78.420925 227.839232 
L 79.686635 227.638014 
L 80.477703 227.918744 
L 80.952344 227.921941 
L 82.059841 227.86813 
L 83.958405 228.074413 
L 84.274833 228.063396 
L 84.749474 228.120675 
L 85.224115 227.991307 
L 85.540542 228.113184 
L 87.597321 227.808128 
L 88.704817 227.93339 
L 89.179458 227.972214 
L 90.919809 227.823419 
L 91.236236 227.707609 
L 91.710877 227.837362 
L 92.027305 227.82413 
L 92.501946 227.866686 
L 93.451228 227.93521 
L 94.084083 228.051431 
L 94.558724 227.768693 
L 95.349793 227.870823 
L 95.66622 227.801338 
L 96.140861 228.018513 
L 96.299075 228.072509 
L 97.090144 227.775526 
L 97.722998 227.716832 
L 98.830494 227.712457 
L 99.305136 227.787854 
L 99.93799 227.64195 
L 100.412632 227.762073 
L 100.729059 227.641679 
L 101.2037 227.77814 
L 101.520128 227.700585 
L 101.994769 227.782298 
L 102.627624 227.748926 
L 102.944051 227.845786 
L 103.576906 227.85268 
L 103.893333 227.851524 
L 104.526188 227.782032 
L 104.684402 227.875834 
L 104.842616 227.790311 
L 105.000829 227.933036 
L 105.159043 227.765317 
L 105.47547 228.014607 
L 106.424753 206.006864 
L 107.215821 195.428471 
L 107.848676 187.791642 
L 108.00689 186.495692 
L 108.481531 180.764747 
L 108.797959 177.80464 
L 108.956172 175.150331 
L 109.114386 175.500131 
L 109.2726 170.831266 
L 109.430813 171.845364 
L 109.589027 166.2183 
L 109.747241 166.548694 
L 109.905455 158.341997 
L 110.221882 54.22832 
L 110.538309 140.707374 
L 110.854737 174.789187 
L 111.171164 184.553463 
L 111.329378 184.50289 
L 111.487592 186.085329 
L 111.804019 184.94537 
L 111.962233 184.273807 
L 112.436874 180.60311 
L 112.753301 178.601293 
L 113.54437 173.015408 
L 115.126507 161.364766 
L 115.759362 156.288873 
L 115.917576 152.975126 
L 116.075789 152.566963 
L 116.392217 146.710388 
L 116.550431 135.596285 
L 116.866858 53.568 
L 117.341499 147.12908 
L 117.657927 169.011305 
L 117.974354 177.283807 
L 118.132568 179.343143 
L 118.607209 180.300212 
L 118.765423 179.805433 
L 118.923636 179.70439 
L 119.556491 176.221487 
L 120.34756 171.543792 
L 123.037193 152.763117 
L 123.195407 149.993008 
L 123.35362 149.207083 
L 123.670048 142.514082 
L 123.828262 123.106712 
L 123.986475 71.559838 
L 124.144689 57.41707 
L 124.61933 142.34977 
L 124.935758 163.952479 
L 125.252185 173.074013 
L 125.568612 176.723166 
L 125.88504 178.00313 
L 126.201467 177.879074 
L 126.992536 174.85878 
L 129.365742 162.016573 
L 131.106093 149.81239 
L 131.738947 138.27968 
L 131.897161 132.662822 
L 132.213589 58.989155 
L 132.371802 71.76786 
L 132.846443 146.159871 
L 133.162871 163.794652 
L 133.479298 171.157768 
L 133.795726 174.355183 
L 133.953939 175.445214 
L 134.270367 175.780247 
L 134.745008 175.009999 
L 135.377863 172.632739 
L 136.643573 166.253692 
L 138.383923 157.391563 
L 139.174992 152.3764 
L 139.649633 148.798591 
L 140.440702 138.989199 
L 140.757129 129.063816 
L 141.073557 65.850258 
L 141.23177 66.397455 
L 141.706411 137.646941 
L 142.022839 157.903837 
L 142.339266 168.498854 
L 142.655694 173.755456 
L 142.972121 175.80649 
L 143.130335 176.24719 
L 143.288549 176.345085 
L 143.604976 176.018569 
L 144.396045 173.313723 
L 147.085678 159.997047 
L 148.03496 154.847487 
L 149.142456 146.092343 
L 149.617097 137.296342 
L 149.775311 133.150571 
L 149.933525 118.776175 
L 150.249952 60.395245 
L 151.041021 153.503517 
L 151.357448 165.25451 
L 151.673876 171.372588 
L 151.990303 174.555118 
L 152.30673 175.682697 
L 152.623158 175.547765 
L 152.939585 174.901612 
L 153.414226 172.966893 
L 154.83815 166.529874 
L 156.578501 157.551074 
L 157.685997 150.150973 
L 158.793493 138.21006 
L 159.10992 128.792099 
L 159.584561 64.58667 
L 160.217416 148.388335 
L 160.533844 163.492175 
L 161.008485 173.216678 
L 161.324912 175.536323 
L 161.64134 176.346993 
L 162.115981 175.86208 
L 162.748836 173.917982 
L 164.963828 164.323397 
L 167.495247 149.655157 
L 168.44453 140.111486 
L 168.602743 137.677461 
L 168.919171 128.201796 
L 169.393812 64.644032 
L 170.026667 146.04716 
L 170.343094 162.340317 
L 170.659522 170.601717 
L 170.975949 174.512472 
L 171.292376 175.922068 
L 171.45059 176.162678 
L 171.767018 175.877318 
L 172.558086 173.286436 
L 175.405933 159.824728 
L 176.671643 152.194054 
L 177.462711 145.910051 
L 177.779139 142.676992 
L 178.095566 137.755368 
L 178.411994 127.549327 
L 178.570207 108.109609 
L 178.728421 73.027927 
L 178.886635 65.051927 
L 179.51949 143.30481 
L 179.994131 163.714173 
L 180.310558 169.892199 
L 180.626986 173.2809 
L 180.943413 174.523561 
L 181.259841 174.729182 
L 181.576268 174.367139 
L 181.892695 173.659207 
L 182.367337 171.909611 
L 183.474833 167.304505 
L 184.740542 161.329618 
L 185.689825 156.126642 
L 186.797321 149.31747 
L 187.430175 144.609351 
L 187.904817 139.687661 
L 188.221244 133.682364 
L 188.379458 128.788584 
L 188.537671 116.164556 
L 188.854099 64.927589 
L 189.012313 77.896058 
L 189.486954 139.511889 
L 189.961595 162.732075 
L 190.278022 169.173249 
L 190.752663 173.307187 
L 191.069091 174.208011 
L 191.227305 174.246315 
L 191.385518 174.070583 
L 191.860159 172.802879 
L 192.493014 170.590698 
L 193.916938 165.165127 
L 194.549793 162.029711 
L 196.13193 154.827769 
L 196.922998 150.357461 
L 198.188708 140.502338 
L 198.663349 131.958166 
L 198.821563 125.711235 
L 198.979777 108.325718 
L 199.296204 66.468158 
L 200.245486 155.9349 
L 200.720128 168.424741 
L 201.036555 172.036176 
L 201.352982 174.025365 
L 201.66941 174.612 
L 201.827624 174.601751 
L 202.144051 174.235731 
L 202.618692 172.935049 
L 204.517257 165.233858 
L 207.048676 152.279611 
L 208.156172 144.84767 
L 208.4726 141.89938 
L 208.789027 137.826081 
L 209.105455 131.721349 
L 209.263668 126.782677 
L 209.421882 114.15661 
L 209.738309 65.261484 
L 209.896523 76.756962 
L 210.371164 136.316888 
L 210.687592 155.713322 
L 211.004019 165.744358 
L 211.320447 170.907928 
L 211.636874 173.325192 
L 211.953301 174.408575 
L 212.111515 174.442084 
L 212.269729 174.262975 
L 212.902584 172.613083 
L 214.168293 167.473797 
L 217.490781 150.33102 
L 218.914705 140.476521 
L 219.231132 136.299316 
L 219.54756 128.710818 
L 219.705774 121.948829 
L 220.180415 69.012074 
L 220.971483 149.611288 
L 221.287911 161.212752 
L 221.604338 167.186512 
L 221.920766 170.160686 
L 222.237193 171.774739 
L 222.55362 172.316111 
L 222.711834 172.341439 
L 223.028262 171.877416 
L 223.502903 170.663425 
L 224.135758 168.352728 
L 225.08504 165.250999 
L 225.559681 163.693795 
L 228.407528 151.044594 
L 229.515024 143.062835 
L 230.147879 135.52818 
L 230.464306 126.091613 
L 230.62252 115.411879 
L 230.938947 67.589347 
L 231.097161 75.014004 
L 231.571802 133.115063 
L 231.88823 153.189755 
L 232.362871 167.457312 
L 232.837512 173.367929 
L 233.153939 174.779809 
L 233.470367 175.00287 
L 234.103222 173.918063 
L 236.001786 167.804969 
L 237.900351 160.104493 
L 239.324274 154.099698 
L 240.43177 147.481971 
L 240.748198 145.471987 
L 241.222839 140.509099 
L 241.539266 136.363165 
L 241.855694 128.266842 
L 242.013907 121.61415 
L 242.488549 66.272512 
L 243.279617 149.371181 
L 243.596045 161.456199 
L 243.912472 167.984082 
L 244.2289 171.489612 
L 244.545327 173.378631 
L 244.861754 173.826794 
L 245.178182 173.690868 
L 245.811037 172.566383 
L 246.285678 171.301337 
L 246.918533 169.181308 
L 249.291738 159.229997 
L 250.873876 151.232644 
L 251.50673 147.21907 
L 252.297799 140.266511 
L 252.77244 130.472998 
L 252.930654 123.994912 
L 253.405295 67.267117 
L 254.196364 148.527889 
L 254.671005 165.196704 
L 255.145646 171.781059 
L 255.462073 173.352333 
L 255.778501 173.823698 
L 256.253142 173.189778 
L 256.885997 171.495206 
L 257.835279 168.120909 
L 259.417416 162.210246 
L 260.683126 156.50868 
L 260.999553 154.963052 
L 262.898118 142.770894 
L 263.530973 136.852536 
L 263.689187 134.258218 
L 263.8474 134.862132 
L 264.005614 136.667769 
L 264.322041 136.857224 
L 264.480255 137.000587 
L 264.796683 137.869707 
L 264.954896 138.728479 
L 265.429537 144.369389 
L 266.37882 158.519778 
L 267.328102 172.031959 
L 268.277384 181.704477 
L 269.38488 189.920061 
L 270.808804 197.508985 
L 271.9163 202.107562 
L 273.023796 205.783049 
L 273.973078 208.148925 
L 274.605933 209.886578 
L 276.662711 214.225386 
L 277.295566 215.192204 
L 277.611994 215.572383 
L 278.086635 216.434036 
L 278.71949 217.326881 
L 281.567337 220.777264 
L 281.883764 220.983792 
L 282.200191 221.142868 
L 283.940542 222.676228 
L 284.731611 223.008903 
L 285.206252 223.441938 
L 286.630175 224.286328 
L 286.946603 224.288006 
L 287.421244 224.486183 
L 289.161595 225.561042 
L 289.952663 225.643743 
L 290.269091 225.755277 
L 290.427305 225.828823 
L 290.585518 225.761185 
L 291.376587 226.064083 
L 295.33193 227.224089 
L 295.806571 227.227401 
L 296.439426 227.436172 
L 297.230494 227.448136 
L 298.021563 227.513666 
L 298.33799 227.577218 
L 298.654418 227.71248 
L 298.970845 227.885774 
L 300.236555 227.991897 
L 300.711196 228.09487 
L 301.344051 228.046524 
L 302.13512 228.199931 
L 305.932249 228.969902 
L 306.248676 228.974462 
L 308.938309 229.251989 
L 309.729378 229.193536 
L 310.520447 229.039305 
L 310.836874 228.840171 
L 311.469729 228.70874 
L 311.786156 228.629266 
L 312.102584 228.812094 
L 312.735439 228.709279 
L 314.317576 228.582446 
L 315.741499 228.452141 
L 316.057927 228.367465 
L 316.848995 228.566704 
L 317.007209 228.477955 
L 317.323636 228.639844 
L 318.114705 228.497971 
L 318.589346 228.444147 
L 318.905774 228.429883 
L 319.696842 228.430277 
L 320.01327 228.514671 
L 323.968612 228.306653 
L 324.28504 228.400399 
L 324.759681 228.320888 
L 325.234322 228.397296 
L 325.708963 228.390328 
L 326.025391 228.39655 
L 326.816459 228.557884 
L 328.398596 228.544827 
L 329.031451 228.691155 
L 329.506093 228.642393 
L 330.138947 228.701554 
L 330.455375 228.869342 
L 331.08823 228.630317 
L 331.562871 228.801485 
L 332.986794 228.501302 
L 333.777863 228.540712 
L 334.09429 228.591565 
L 334.568931 228.459283 
L 334.885359 228.402651 
L 337.733206 228.527679 
L 338.049633 228.422465 
L 338.682488 228.534227 
L 339.157129 228.451977 
L 339.63177 228.604012 
L 339.948198 228.390355 
L 340.264625 227.892401 
L 340.739266 227.849838 
L 341.055694 227.997944 
L 341.846762 228.046644 
L 342.16319 228.163624 
L 342.479617 228.137627 
L 343.270686 228.331126 
L 344.378182 228.335415 
L 345.960319 228.332593 
L 348.175311 228.640929 
L 348.808166 228.63935 
L 349.441021 228.812718 
L 349.757448 228.829809 
L 350.70673 228.625582 
L 352.447081 228.954323 
L 352.921722 228.85512 
L 354.029219 228.655035 
L 354.820287 228.778928 
L 354.978501 228.700538 
L 355.294928 228.774892 
L 355.611356 228.757524 
L 357.984561 228.934018 
L 358.300989 228.800947 
L 359.408485 228.72242 
L 359.724912 228.885348 
L 360.04134 228.884722 
L 360.357767 228.940171 
L 360.674195 228.90364 
L 360.990622 228.688245 
L 361.939904 228.692647 
L 362.256332 228.823535 
L 362.730973 228.991817 
L 363.205614 229.094502 
L 367.793812 229.340626 
L 368.110239 229.251608 
L 368.426667 229.28545 
L 368.743094 229.120184 
L 369.375949 229.273268 
L 377.128421 229.332647 
L 377.761276 229.301129 
L 378.077703 229.352865 
L 378.394131 229.348281 
L 379.185199 229.382316 
L 381.874833 229.458963 
L 382.19126 229.495305 
L 382.665901 229.389742 
L 383.45697 229.350513 
L 385.355534 229.306047 
L 385.671962 229.213727 
L 386.304817 229.322725 
L 386.779458 229.384841 
L 389.627305 229.355289 
L 389.943732 229.242941 
L 392.791579 229.357359 
L 393.424434 229.279535 
L 395.639426 229.263365 
L 396.114067 229.23149 
L 396.430494 229.295784 
L 396.905136 229.215241 
L 397.221563 229.241515 
L 397.379777 229.305209 
L 397.854418 229.199385 
L 398.487273 229.172275 
L 398.487273 229.172275 
" style="fill:none;stroke:#000000;stroke-linecap:square;stroke-width:1.5;"/>
   </g>
   <g id="patch_3">
    <path d="M 57.6 307.584 
L 57.6 41.472 
" style="fill:none;stroke:#000000;stroke-linecap:square;stroke-linejoin:miter;stroke-width:0.8;"/>
   </g>
   <g id="patch_4">
    <path d="M 414.72 307.584 
L 414.72 41.472 
" style="fill:none;stroke:#000000;stroke-linecap:square;stroke-linejoin:miter;stroke-width:0.8;"/>
   </g>
   <g id="patch_5">
    <path d="M 57.6 307.584 
L 414.72 307.584 
" style="fill:none;stroke:#000000;stroke-linecap:square;stroke-linejoin:miter;stroke-width:0.8;"/>
   </g>
   <g id="patch_6">
    <path d="M 57.6 41.472 
L 414.72 41.472 
" style="fill:none;stroke:#000000;stroke-linecap:square;stroke-linejoin:miter;stroke-width:0.8;"/>
   </g>
  </g>
 </g>
 <defs>
  <clipPath id="p2c11b0dba7">
   <rect height="266.112" width="357.12" x="57.6" y="41.472"/>
  </clipPath>
 </defs>
</svg>
