<?xml version="1.0" encoding="utf-8" standalone="no"?>
<!DOCTYPE svg PUBLIC "-//W3C//DTD SVG 1.1//EN"
  "http://www.w3.org/Graphics/SVG/1.1/DTD/svg11.dtd">
<svg xmlns:xlink="http://www.w3.org/1999/xlink" width="265.704687pt" height="197.398125pt" viewBox="0 0 265.704687 197.398125" xmlns="http://www.w3.org/2000/svg" version="1.1">
 <metadata>
  <rdf:RDF xmlns:dc="http://purl.org/dc/elements/1.1/" xmlns:cc="http://creativecommons.org/ns#" xmlns:rdf="http://www.w3.org/1999/02/22-rdf-syntax-ns#">
   <cc:Work>
    <dc:type rdf:resource="http://purl.org/dc/dcmitype/StillImage"/>
    <dc:date>2025-12-18T16:01:47.070406</dc:date>
    <dc:format>image/svg+xml</dc:format>
    <dc:creator>
     <cc:Agent>
      <dc:title>Matplotlib v3.10.7, https://matplotlib.org/</dc:title>
     </cc:Agent>
    </dc:creator>
   </cc:Work>
  </rdf:RDF>
 </metadata>
 <defs>
  <style type="text/css">*{stroke-linejoin: round; stroke-linecap: butt}</style>
 </defs>
 <g id="figure_1">
  <g id="patch_1">
   <path d="M 0 197.398125 
L 265.704687 197.398125 
L 265.704687 0 
L 0 0 
z
" style="fill: #ffffff"/>
  </g>
  <g id="axes_1">
   <g id="patch_2">
    <path d="M 35.304688 173.52 
L 258.504687 173.52 
L 258.504687 7.2 
L 35.304688 7.2 
z
" style="fill: #ffffff"/>
   </g>
   <g id="matplotlib.axis_1">
    <g id="xtick_1">
     <g id="line2d_1">
      <defs>
       <path id="m003fee1914" d="M 0 0 
L 0 3.5 
" style="stroke: #000000; stroke-width: 0.8"/>
      </defs>
      <g>
       <use xlink:href="#m003fee1914" x="56.886362" y="173.52" style="stroke: #000000; stroke-width: 0.8"/>
      </g>
     </g>
     <g id="text_1">
      <!-- 0.6 -->
      <g transform="translate(48.9348 188.118438) scale(0.1 -0.1)">
       <defs>
        <path id="DejaVuSans-30" d="M 2034 4250 
Q 1547 4250 1301 3770 
Q 1056 3291 1056 2328 
Q 1056 1369 1301 889 
Q 1547 409 2034 409 
Q 2525 409 2770 889 
Q 3016 1369 3016 2328 
Q 3016 3291 2770 3770 
Q 2525 4250 2034 4250 
z
M 2034 4750 
Q 2819 4750 3233 4129 
Q 3647 3509 3647 2328 
Q 3647 1150 3233 529 
Q 2819 -91 2034 -91 
Q 1250 -91 836 529 
Q 422 1150 422 2328 
Q 422 3509 836 4129 
Q 1250 4750 2034 4750 
z
" transform="scale(0.015625)"/>
        <path id="DejaVuSans-2e" d="M 684 794 
L 1344 794 
L 1344 0 
L 684 0 
L 684 794 
z
" transform="scale(0.015625)"/>
        <path id="DejaVuSans-36" d="M 2113 2584 
Q 1688 2584 1439 2293 
Q 1191 2003 1191 1497 
Q 1191 994 1439 701 
Q 1688 409 2113 409 
Q 2538 409 2786 701 
Q 3034 994 3034 1497 
Q 3034 2003 2786 2293 
Q 2538 2584 2113 2584 
z
M 3366 4563 
L 3366 3988 
Q 3128 4100 2886 4159 
Q 2644 4219 2406 4219 
Q 1781 4219 1451 3797 
Q 1122 3375 1075 2522 
Q 1259 2794 1537 2939 
Q 1816 3084 2150 3084 
Q 2853 3084 3261 2657 
Q 3669 2231 3669 1497 
Q 3669 778 3244 343 
Q 2819 -91 2113 -91 
Q 1303 -91 875 529 
Q 447 1150 447 2328 
Q 447 3434 972 4092 
Q 1497 4750 2381 4750 
Q 2619 4750 2861 4703 
Q 3103 4656 3366 4563 
z
" transform="scale(0.015625)"/>
       </defs>
       <use xlink:href="#DejaVuSans-30"/>
       <use xlink:href="#DejaVuSans-2e" transform="translate(63.623047 0)"/>
       <use xlink:href="#DejaVuSans-36" transform="translate(95.410156 0)"/>
      </g>
     </g>
    </g>
    <g id="xtick_2">
     <g id="line2d_2">
      <g>
       <use xlink:href="#m003fee1914" x="103.450776" y="173.52" style="stroke: #000000; stroke-width: 0.8"/>
      </g>
     </g>
     <g id="text_2">
      <!-- 0.7 -->
      <g transform="translate(95.499214 188.118438) scale(0.1 -0.1)">
       <defs>
        <path id="DejaVuSans-37" d="M 525 4666 
L 3525 4666 
L 3525 4397 
L 1831 0 
L 1172 0 
L 2766 4134 
L 525 4134 
L 525 4666 
z
" transform="scale(0.015625)"/>
       </defs>
       <use xlink:href="#DejaVuSans-30"/>
       <use xlink:href="#DejaVuSans-2e" transform="translate(63.623047 0)"/>
       <use xlink:href="#DejaVuSans-37" transform="translate(95.410156 0)"/>
      </g>
     </g>
    </g>
    <g id="xtick_3">
     <g id="line2d_3">
      <g>
       <use xlink:href="#m003fee1914" x="150.01519" y="173.52" style="stroke: #000000; stroke-width: 0.8"/>
      </g>
     </g>
     <g id="text_3">
      <!-- 0.8 -->
      <g transform="translate(142.063628 188.118438) scale(0.1 -0.1)">
       <defs>
        <path id="DejaVuSans-38" d="M 2034 2216 
Q 1584 2216 1326 1975 
Q 1069 1734 1069 1313 
Q 1069 891 1326 650 
Q 1584 409 2034 409 
Q 2484 409 2743 651 
Q 3003 894 3003 1313 
Q 3003 1734 2745 1975 
Q 2488 2216 2034 2216 
z
M 1403 2484 
Q 997 2584 770 2862 
Q 544 3141 544 3541 
Q 544 4100 942 4425 
Q 1341 4750 2034 4750 
Q 2731 4750 3128 4425 
Q 3525 4100 3525 3541 
Q 3525 3141 3298 2862 
Q 3072 2584 2669 2484 
Q 3125 2378 3379 2068 
Q 3634 1759 3634 1313 
Q 3634 634 3220 271 
Q 2806 -91 2034 -91 
Q 1263 -91 848 271 
Q 434 634 434 1313 
Q 434 1759 690 2068 
Q 947 2378 1403 2484 
z
M 1172 3481 
Q 1172 3119 1398 2916 
Q 1625 2713 2034 2713 
Q 2441 2713 2670 2916 
Q 2900 3119 2900 3481 
Q 2900 3844 2670 4047 
Q 2441 4250 2034 4250 
Q 1625 4250 1398 4047 
Q 1172 3844 1172 3481 
z
" transform="scale(0.015625)"/>
       </defs>
       <use xlink:href="#DejaVuSans-30"/>
       <use xlink:href="#DejaVuSans-2e" transform="translate(63.623047 0)"/>
       <use xlink:href="#DejaVuSans-38" transform="translate(95.410156 0)"/>
      </g>
     </g>
    </g>
    <g id="xtick_4">
     <g id="line2d_4">
      <g>
       <use xlink:href="#m003fee1914" x="196.579604" y="173.52" style="stroke: #000000; stroke-width: 0.8"/>
      </g>
     </g>
     <g id="text_4">
      <!-- 0.9 -->
      <g transform="translate(188.628042 188.118438) scale(0.1 -0.1)">
       <defs>
        <path id="DejaVuSans-39" d="M 703 97 
L 703 672 
Q 941 559 1184 500 
Q 1428 441 1663 441 
Q 2288 441 2617 861 
Q 2947 1281 2994 2138 
Q 2813 1869 2534 1725 
Q 2256 1581 1919 1581 
Q 1219 1581 811 2004 
Q 403 2428 403 3163 
Q 403 3881 828 4315 
Q 1253 4750 1959 4750 
Q 2769 4750 3195 4129 
Q 3622 3509 3622 2328 
Q 3622 1225 3098 567 
Q 2575 -91 1691 -91 
Q 1453 -91 1209 -44 
Q 966 3 703 97 
z
M 1959 2075 
Q 2384 2075 2632 2365 
Q 2881 2656 2881 3163 
Q 2881 3666 2632 3958 
Q 2384 4250 1959 4250 
Q 1534 4250 1286 3958 
Q 1038 3666 1038 3163 
Q 1038 2656 1286 2365 
Q 1534 2075 1959 2075 
z
" transform="scale(0.015625)"/>
       </defs>
       <use xlink:href="#DejaVuSans-30"/>
       <use xlink:href="#DejaVuSans-2e" transform="translate(63.623047 0)"/>
       <use xlink:href="#DejaVuSans-39" transform="translate(95.410156 0)"/>
      </g>
     </g>
    </g>
    <g id="xtick_5">
     <g id="line2d_5">
      <g>
       <use xlink:href="#m003fee1914" x="243.144019" y="173.52" style="stroke: #000000; stroke-width: 0.8"/>
      </g>
     </g>
     <g id="text_5">
      <!-- 1.0 -->
      <g transform="translate(235.192456 188.118438) scale(0.1 -0.1)">
       <defs>
        <path id="DejaVuSans-31" d="M 794 531 
L 1825 531 
L 1825 4091 
L 703 3866 
L 703 4441 
L 1819 4666 
L 2450 4666 
L 2450 531 
L 3481 531 
L 3481 0 
L 794 0 
L 794 531 
z
" transform="scale(0.015625)"/>
       </defs>
       <use xlink:href="#DejaVuSans-31"/>
       <use xlink:href="#DejaVuSans-2e" transform="translate(63.623047 0)"/>
       <use xlink:href="#DejaVuSans-30" transform="translate(95.410156 0)"/>
      </g>
     </g>
    </g>
   </g>
   <g id="matplotlib.axis_2">
    <g id="ytick_1">
     <g id="line2d_6">
      <defs>
       <path id="m8e7325ba46" d="M 0 0 
L -3.5 0 
" style="stroke: #000000; stroke-width: 0.8"/>
      </defs>
      <g>
       <use xlink:href="#m8e7325ba46" x="35.304688" y="154.114839" style="stroke: #000000; stroke-width: 0.8"/>
      </g>
     </g>
     <g id="text_6">
      <!-- −50 -->
      <g transform="translate(7.2 157.914057) scale(0.1 -0.1)">
       <defs>
        <path id="DejaVuSans-2212" d="M 678 2272 
L 4684 2272 
L 4684 1741 
L 678 1741 
L 678 2272 
z
" transform="scale(0.015625)"/>
        <path id="DejaVuSans-35" d="M 691 4666 
L 3169 4666 
L 3169 4134 
L 1269 4134 
L 1269 2991 
Q 1406 3038 1543 3061 
Q 1681 3084 1819 3084 
Q 2600 3084 3056 2656 
Q 3513 2228 3513 1497 
Q 3513 744 3044 326 
Q 2575 -91 1722 -91 
Q 1428 -91 1123 -41 
Q 819 9 494 109 
L 494 744 
Q 775 591 1075 516 
Q 1375 441 1709 441 
Q 2250 441 2565 725 
Q 2881 1009 2881 1497 
Q 2881 1984 2565 2268 
Q 2250 2553 1709 2553 
Q 1456 2553 1204 2497 
Q 953 2441 691 2322 
L 691 4666 
z
" transform="scale(0.015625)"/>
       </defs>
       <use xlink:href="#DejaVuSans-2212"/>
       <use xlink:href="#DejaVuSans-35" transform="translate(83.789062 0)"/>
       <use xlink:href="#DejaVuSans-30" transform="translate(147.412109 0)"/>
      </g>
     </g>
    </g>
    <g id="ytick_2">
     <g id="line2d_7">
      <g>
       <use xlink:href="#m8e7325ba46" x="35.304688" y="126.243871" style="stroke: #000000; stroke-width: 0.8"/>
      </g>
     </g>
     <g id="text_7">
      <!-- −40 -->
      <g transform="translate(7.2 130.04309) scale(0.1 -0.1)">
       <defs>
        <path id="DejaVuSans-34" d="M 2419 4116 
L 825 1625 
L 2419 1625 
L 2419 4116 
z
M 2253 4666 
L 3047 4666 
L 3047 1625 
L 3713 1625 
L 3713 1100 
L 3047 1100 
L 3047 0 
L 2419 0 
L 2419 1100 
L 313 1100 
L 313 1709 
L 2253 4666 
z
" transform="scale(0.015625)"/>
       </defs>
       <use xlink:href="#DejaVuSans-2212"/>
       <use xlink:href="#DejaVuSans-34" transform="translate(83.789062 0)"/>
       <use xlink:href="#DejaVuSans-30" transform="translate(147.412109 0)"/>
      </g>
     </g>
    </g>
    <g id="ytick_3">
     <g id="line2d_8">
      <g>
       <use xlink:href="#m8e7325ba46" x="35.304688" y="98.372903" style="stroke: #000000; stroke-width: 0.8"/>
      </g>
     </g>
     <g id="text_8">
      <!-- −30 -->
      <g transform="translate(7.2 102.172122) scale(0.1 -0.1)">
       <defs>
        <path id="DejaVuSans-33" d="M 2597 2516 
Q 3050 2419 3304 2112 
Q 3559 1806 3559 1356 
Q 3559 666 3084 287 
Q 2609 -91 1734 -91 
Q 1441 -91 1130 -33 
Q 819 25 488 141 
L 488 750 
Q 750 597 1062 519 
Q 1375 441 1716 441 
Q 2309 441 2620 675 
Q 2931 909 2931 1356 
Q 2931 1769 2642 2001 
Q 2353 2234 1838 2234 
L 1294 2234 
L 1294 2753 
L 1863 2753 
Q 2328 2753 2575 2939 
Q 2822 3125 2822 3475 
Q 2822 3834 2567 4026 
Q 2313 4219 1838 4219 
Q 1578 4219 1281 4162 
Q 984 4106 628 3988 
L 628 4550 
Q 988 4650 1302 4700 
Q 1616 4750 1894 4750 
Q 2613 4750 3031 4423 
Q 3450 4097 3450 3541 
Q 3450 3153 3228 2886 
Q 3006 2619 2597 2516 
z
" transform="scale(0.015625)"/>
       </defs>
       <use xlink:href="#DejaVuSans-2212"/>
       <use xlink:href="#DejaVuSans-33" transform="translate(83.789062 0)"/>
       <use xlink:href="#DejaVuSans-30" transform="translate(147.412109 0)"/>
      </g>
     </g>
    </g>
    <g id="ytick_4">
     <g id="line2d_9">
      <g>
       <use xlink:href="#m8e7325ba46" x="35.304688" y="70.501935" style="stroke: #000000; stroke-width: 0.8"/>
      </g>
     </g>
     <g id="text_9">
      <!-- −20 -->
      <g transform="translate(7.2 74.301154) scale(0.1 -0.1)">
       <defs>
        <path id="DejaVuSans-32" d="M 1228 531 
L 3431 531 
L 3431 0 
L 469 0 
L 469 531 
Q 828 903 1448 1529 
Q 2069 2156 2228 2338 
Q 2531 2678 2651 2914 
Q 2772 3150 2772 3378 
Q 2772 3750 2511 3984 
Q 2250 4219 1831 4219 
Q 1534 4219 1204 4116 
Q 875 4013 500 3803 
L 500 4441 
Q 881 4594 1212 4672 
Q 1544 4750 1819 4750 
Q 2544 4750 2975 4387 
Q 3406 4025 3406 3419 
Q 3406 3131 3298 2873 
Q 3191 2616 2906 2266 
Q 2828 2175 2409 1742 
Q 1991 1309 1228 531 
z
" transform="scale(0.015625)"/>
       </defs>
       <use xlink:href="#DejaVuSans-2212"/>
       <use xlink:href="#DejaVuSans-32" transform="translate(83.789062 0)"/>
       <use xlink:href="#DejaVuSans-30" transform="translate(147.412109 0)"/>
      </g>
     </g>
    </g>
    <g id="ytick_5">
     <g id="line2d_10">
      <g>
       <use xlink:href="#m8e7325ba46" x="35.304688" y="42.630968" style="stroke: #000000; stroke-width: 0.8"/>
      </g>
     </g>
     <g id="text_10">
      <!-- −10 -->
      <g transform="translate(7.2 46.430186) scale(0.1 -0.1)">
       <use xlink:href="#DejaVuSans-2212"/>
       <use xlink:href="#DejaVuSans-31" transform="translate(83.789062 0)"/>
       <use xlink:href="#DejaVuSans-30" transform="translate(147.412109 0)"/>
      </g>
     </g>
    </g>
    <g id="ytick_6">
     <g id="line2d_11">
      <g>
       <use xlink:href="#m8e7325ba46" x="35.304688" y="14.76" style="stroke: #000000; stroke-width: 0.8"/>
      </g>
     </g>
     <g id="text_11">
      <!-- 0 -->
      <g transform="translate(21.942187 18.559219) scale(0.1 -0.1)">
       <use xlink:href="#DejaVuSans-30"/>
      </g>
     </g>
    </g>
   </g>
   <g id="line2d_12">
    <path d="M 45.450142 161.082591 
L 45.478081 160.908398 
L 45.561897 161.256774 
L 45.645713 160.908398 
L 45.673651 161.082591 
L 45.785406 160.908398 
L 45.822657 160.647107 
L 45.869222 161.082591 
L 45.953038 160.647107 
L 45.980976 160.908398 
L 46.018228 160.995495 
L 46.092731 160.56 
L 46.18586 160.995495 
L 46.204486 160.82129 
L 46.223111 160.56 
L 46.278989 160.908398 
L 46.31624 160.647107 
L 46.325553 160.908398 
L 46.427995 160.734204 
L 46.446621 160.82129 
L 46.511811 160.995495 
L 46.502498 160.647107 
L 46.558375 160.908398 
L 46.660817 160.56 
L 46.577001 161.082591 
L 46.67013 160.734204 
L 46.744633 160.908398 
L 46.707381 160.647107 
L 46.772571 160.647107 
L 46.781884 160.647107 
L 46.8657 160.995495 
L 46.809823 160.56 
L 46.893639 160.908398 
L 46.93089 160.647107 
L 46.940203 160.995495 
L 46.996081 160.82129 
L 47.089209 161.082591 
L 47.098522 160.995495 
L 47.173025 160.56 
L 47.21959 160.647107 
L 47.294093 160.995495 
L 47.256841 160.56 
L 47.322031 160.734204 
L 47.331344 160.472914 
L 47.396535 160.995495 
L 47.41516 160.82129 
L 47.424473 161.082591 
L 47.471038 160.734204 
L 47.517602 160.734204 
L 47.564166 160.82129 
L 47.620044 160.56 
L 47.713173 161.082591 
L 47.741111 160.908398 
L 47.787676 161.256774 
L 47.843553 160.82129 
L 47.862179 161.169688 
L 47.955308 160.908398 
L 47.96462 160.82129 
L 47.973933 160.995495 
L 48.048436 160.995495 
L 48.076375 161.082591 
L 48.113627 160.647107 
L 48.122939 160.734204 
L 48.132252 160.647107 
L 48.141565 161.082591 
L 48.197442 160.995495 
L 48.206755 160.995495 
L 48.234694 161.082591 
L 48.309197 160.82129 
L 48.393013 161.082591 
L 48.327823 160.734204 
L 48.420952 160.995495 
L 48.44889 160.908398 
L 48.486142 160.734204 
L 48.504768 161.082591 
L 48.551332 160.908398 
L 48.579271 160.908398 
L 48.6724 161.169688 
L 48.607209 160.82129 
L 48.691025 161.082591 
L 48.756215 160.82129 
L 48.793467 160.995495 
L 48.830719 161.082591 
L 48.812093 160.82129 
L 48.895909 160.995495 
L 48.914534 161.082591 
L 49.016976 160.647107 
L 49.072853 160.995495 
L 49.138044 160.908398 
L 49.231172 160.647107 
L 49.249798 160.82129 
L 49.259111 160.82129 
L 49.277737 160.56 
L 49.370866 161.082591 
L 49.436056 160.56 
L 49.491933 160.647107 
L 49.54781 160.908398 
L 49.510559 160.472914 
L 49.603688 160.82129 
L 49.715442 160.472914 
L 49.724755 160.647107 
L 49.845823 160.56 
L 49.911013 160.472914 
L 49.873761 160.734204 
L 49.920326 160.56 
L 49.976203 160.82129 
L 49.948264 160.385806 
L 50.03208 160.647107 
L 50.153148 160.29872 
L 50.209025 160.647107 
L 50.25559 160.472914 
L 50.32078 160.211624 
L 50.367344 160.385806 
L 50.38597 160.124516 
L 50.413909 160.647107 
L 50.460473 160.29872 
L 50.469786 160.56 
L 50.553602 160.124516 
L 50.572228 160.385806 
L 50.58154 160.385806 
L 50.674669 160.211624 
L 50.683982 160.385806 
L 50.814363 160.385806 
L 50.851614 160.124516 
L 50.907491 160.56 
L 50.93543 160.472914 
L 50.954056 160.03743 
L 51.047185 160.385806 
L 51.121688 160.29872 
L 51.131001 160.56 
L 51.177565 160.124516 
L 51.224129 160.472914 
L 51.270694 160.124516 
L 51.335884 160.29872 
L 51.345197 160.647107 
L 51.363823 160.211624 
L 51.438326 160.29872 
L 51.522142 160.29872 
L 51.540767 160.56 
L 51.578019 160.211624 
L 51.633896 160.472914 
L 51.745651 160.211624 
L 51.857405 160.647107 
L 51.866718 160.472914 
L 51.876031 160.472914 
L 51.96916 160.647107 
L 51.978473 160.472914 
L 52.043663 160.29872 
L 52.006412 160.647107 
L 52.062289 160.472914 
L 52.09954 160.385806 
L 52.174043 160.734204 
L 52.276485 160.472914 
L 52.201982 160.82129 
L 52.285798 160.647107 
L 52.332362 160.908398 
L 52.304424 160.56 
L 52.397553 160.82129 
L 52.45343 160.647107 
L 52.462743 160.908398 
L 52.499994 160.82129 
L 52.527933 160.734204 
L 52.593123 160.647107 
L 52.602436 160.908398 
L 52.611749 160.82129 
L 52.686252 160.995495 
L 52.695565 160.647107 
L 52.704878 160.647107 
L 52.751442 160.56 
L 52.816632 160.82129 
L 52.891135 160.56 
L 52.919074 160.908398 
L 53.030829 160.82129 
L 53.058767 160.647107 
L 53.142583 161.082591 
L 53.254338 160.734204 
L 53.272964 160.734204 
L 53.319528 160.995495 
L 53.375405 160.82129 
L 53.412657 160.56 
L 53.394031 160.908398 
L 53.477847 160.647107 
L 53.570976 160.56 
L 53.589602 160.995495 
L 53.68273 161.082591 
L 53.729295 160.56 
L 53.803798 160.82129 
L 53.850362 160.734204 
L 53.859675 160.734204 
L 53.915553 160.472914 
L 53.943491 160.82129 
L 53.962117 160.734204 
L 53.980743 161.082591 
L 54.008681 160.56 
L 54.064559 160.734204 
L 54.176313 160.56 
L 54.241503 160.82129 
L 54.213565 160.472914 
L 54.288068 160.734204 
L 54.306694 160.82129 
L 54.39051 160.472914 
L 54.399822 160.82129 
L 54.502264 160.734204 
L 54.623332 160.472914 
L 54.725773 160.734204 
L 54.735086 160.647107 
L 54.865467 160.56 
L 54.874779 160.82129 
L 54.93997 160.472914 
L 54.977221 160.734204 
L 55.061037 160.472914 
L 55.023786 160.82129 
L 55.088976 160.56 
L 55.13554 160.82129 
L 55.191417 160.734204 
L 55.237982 160.56 
L 55.275233 160.908398 
L 55.293859 160.734204 
L 55.312485 160.734204 
L 55.321798 160.908398 
L 55.331111 160.56 
L 55.414927 160.734204 
L 55.42424 160.472914 
L 55.517368 160.908398 
L 55.629123 160.56 
L 55.638436 160.734204 
L 55.666375 160.647107 
L 55.675687 160.472914 
L 55.712939 160.908398 
L 55.768816 160.734204 
L 55.852632 160.995495 
L 55.834006 160.56 
L 55.871258 160.908398 
L 55.927135 160.472914 
L 55.992325 160.56 
L 56.029577 160.82129 
L 56.020264 160.472914 
L 56.10408 160.647107 
L 56.159957 160.908398 
L 56.215835 160.734204 
L 56.225147 160.647107 
L 56.281025 160.908398 
L 56.299651 160.734204 
L 56.392779 161.082591 
L 56.411405 160.82129 
L 56.485908 160.734204 
L 56.495221 160.56 
L 56.569724 160.908398 
L 56.58835 160.82129 
L 56.65354 160.908398 
L 56.746669 160.647107 
L 56.765295 160.734204 
L 56.858424 160.995495 
L 56.793233 160.56 
L 56.877049 160.82129 
L 56.895675 160.995495 
L 56.932927 160.647107 
L 56.979491 160.82129 
L 57.026055 160.56 
L 57.044681 160.995495 
L 57.081933 160.82129 
L 57.119184 160.995495 
L 57.147123 160.647107 
L 57.165749 160.647107 
L 57.221626 160.56 
L 57.333381 160.82129 
L 57.361319 160.647107 
L 57.398571 161.082591 
L 57.445135 160.734204 
L 57.454448 160.734204 
L 57.547577 160.56 
L 57.482387 160.908398 
L 57.55689 160.82129 
L 57.575515 160.995495 
L 57.62208 160.647107 
L 57.650019 160.647107 
L 57.715209 160.472914 
L 57.677957 160.734204 
L 57.761773 160.56 
L 57.808338 160.995495 
L 57.873528 160.647107 
L 57.929405 160.995495 
L 57.910779 160.56 
L 57.966657 160.56 
L 57.975969 160.472914 
L 58.022534 160.995495 
L 58.04116 160.82129 
L 58.050473 160.82129 
L 58.059785 160.56 
L 58.134288 160.908398 
L 58.162227 160.647107 
L 58.17154 160.647107 
L 58.273982 160.82129 
L 58.339172 160.647107 
L 58.367111 160.995495 
L 58.376423 160.734204 
L 58.478865 160.995495 
L 58.395049 160.56 
L 58.488178 160.908398 
L 58.506804 160.734204 
L 58.581307 161.082591 
L 58.599933 160.82129 
L 58.702374 160.995495 
L 58.637184 160.56 
L 58.711687 160.908398 
L 58.823442 160.82129 
L 58.935196 161.082591 
L 58.897945 160.734204 
L 58.944509 160.995495 
L 59.037638 160.908398 
L 59.046951 160.647107 
L 59.065577 161.082591 
L 59.14008 160.995495 
L 59.168018 160.995495 
L 59.261147 160.734204 
L 59.251834 161.082591 
L 59.279773 160.908398 
L 59.354276 160.734204 
L 59.298399 160.995495 
L 59.382215 160.82129 
L 59.447405 161.082591 
L 59.428779 160.734204 
L 59.484656 160.82129 
L 59.493969 160.82129 
L 59.587098 160.647107 
L 59.577785 160.908398 
L 59.605724 160.734204 
L 59.615037 160.734204 
L 59.62435 160.472914 
L 59.670914 160.82129 
L 59.726791 160.56 
L 59.838546 160.56 
L 59.866485 160.472914 
L 59.959613 160.82129 
L 60.062055 160.56 
L 59.978239 160.908398 
L 60.071368 160.647107 
L 60.089994 160.472914 
L 60.192436 160.82129 
L 60.248313 160.734204 
L 60.322816 160.472914 
L 60.266939 160.908398 
L 60.341442 160.82129 
L 60.350755 160.82129 
L 60.360067 160.995495 
L 60.425258 160.56 
L 60.443883 160.734204 
L 60.462509 160.472914 
L 60.481135 160.82129 
L 60.527699 160.82129 
L 60.564951 160.56 
L 60.620828 160.908398 
L 60.741896 160.56 
L 60.779147 160.995495 
L 60.85365 160.734204 
L 60.862963 160.472914 
L 60.881589 160.82129 
L 60.956092 160.82129 
L 61.077159 160.56 
L 61.160975 160.908398 
L 61.188914 160.82129 
L 61.27273 160.647107 
L 61.244791 160.995495 
L 61.291356 160.734204 
L 61.309981 160.908398 
L 61.328607 160.647107 
L 61.40311 160.82129 
L 61.412423 160.82129 
L 61.514865 160.908398 
L 61.524178 160.56 
L 61.580055 160.82129 
L 61.635932 160.734204 
L 61.654558 160.82129 
L 61.69181 160.908398 
L 61.729061 160.647107 
L 61.738374 160.647107 
L 61.747687 160.647107 
L 61.859442 160.908398 
L 61.971196 160.472914 
L 61.915319 160.995495 
L 61.980509 160.734204 
L 61.999135 160.647107 
L 62.073638 160.472914 
L 62.017761 160.82129 
L 62.101577 160.647107 
L 62.157454 160.995495 
L 62.194705 160.56 
L 62.213331 160.647107 
L 62.315773 160.908398 
L 62.231957 160.56 
L 62.325086 160.82129 
L 62.427527 160.472914 
L 62.43684 160.647107 
L 62.474092 160.908398 
L 62.539282 160.82129 
L 62.613785 160.385806 
L 62.651037 160.56 
L 62.753478 160.82129 
L 62.762791 160.734204 
L 62.79073 160.385806 
L 62.827981 160.82129 
L 62.865233 160.647107 
L 62.874546 160.82129 
L 62.930423 160.472914 
L 62.967675 160.647107 
L 63.023552 160.29872 
L 63.014239 160.82129 
L 63.070116 160.472914 
L 63.088742 160.385806 
L 63.181871 160.734204 
L 63.191184 160.734204 
L 63.219122 160.385806 
L 63.302938 160.472914 
L 63.368129 160.647107 
L 63.321564 160.385806 
L 63.40538 160.472914 
L 63.424006 160.56 
L 63.517135 160.211624 
L 63.545073 160.472914 
L 63.619576 160.29872 
L 63.666141 160.124516 
L 63.638202 160.472914 
L 63.722018 160.29872 
L 63.805834 160.211624 
L 63.833773 160.472914 
L 63.88965 160.124516 
L 63.945527 160.211624 
L 63.992092 160.56 
L 64.010718 160.124516 
L 64.038656 160.211624 
L 64.085221 160.56 
L 64.141098 160.03743 
L 64.215601 160.29872 
L 64.252852 160.124516 
L 64.37392 160.472914 
L 64.43911 159.950323 
L 64.485675 160.03743 
L 64.550865 160.472914 
L 64.588116 160.29872 
L 64.709184 159.950323 
L 64.737122 160.03743 
L 64.783687 159.950323 
L 64.839564 160.211624 
L 64.867503 159.77614 
L 64.92338 160.29872 
L 64.951319 160.124516 
L 65.016509 159.77614 
L 64.969944 160.211624 
L 65.05376 160.03743 
L 65.146889 160.124516 
L 65.072386 159.77614 
L 65.156202 160.03743 
L 65.221392 159.863236 
L 65.174828 160.124516 
L 65.267957 159.950323 
L 65.27727 160.124516 
L 65.314521 159.77614 
L 65.379711 160.03743 
L 65.435589 160.211624 
L 65.491466 159.950323 
L 65.565969 160.03743 
L 65.612533 160.124516 
L 65.60322 159.863236 
L 65.649785 159.950323 
L 65.724288 159.77614 
L 65.742914 159.950323 
L 65.817417 159.77614 
L 65.854668 160.03743 
L 65.873294 159.950323 
L 65.994362 159.77614 
L 66.003674 160.03743 
L 66.08749 159.601946 
L 66.096803 159.950323 
L 66.134055 159.689032 
L 66.208558 159.863236 
L 66.217871 159.950323 
L 66.283061 159.689032 
L 66.301687 159.863236 
L 66.394816 159.950323 
L 66.413441 159.77614 
L 66.450693 159.950323 
L 66.487944 159.689032 
L 66.515883 159.689032 
L 66.599699 159.950323 
L 66.543822 159.427753 
L 66.609012 159.863236 
L 66.692828 159.601946 
L 66.683515 159.950323 
L 66.720766 159.689032 
L 66.785957 159.601946 
L 66.813895 159.77614 
L 66.851147 159.601946 
L 66.879085 159.863236 
L 66.916337 159.863236 
L 66.944276 159.601946 
L 67.028092 159.77614 
L 67.05603 159.689032 
L 67.139846 159.950323 
L 67.232975 159.77614 
L 67.167785 160.03743 
L 67.242288 159.863236 
L 67.316791 160.124516 
L 67.34473 159.863236 
L 67.363355 159.950323 
L 67.437858 159.77614 
L 67.549613 160.124516 
L 67.577552 159.863236 
L 67.586865 160.211624 
L 67.652055 160.124516 
L 67.717245 160.03743 
L 67.745184 159.950323 
L 67.773122 160.29872 
L 67.810374 160.124516 
L 67.838312 160.29872 
L 67.856938 159.950323 
L 67.912815 160.124516 
L 67.922128 160.124516 
L 68.005944 160.472914 
L 67.987318 160.03743 
L 68.043196 160.385806 
L 68.099073 160.472914 
L 68.164263 160.211624 
L 68.201515 160.647107 
L 68.285331 160.472914 
L 68.341208 160.124516 
L 68.359834 160.647107 
L 68.387772 160.29872 
L 68.499527 160.647107 
L 68.415711 160.211624 
L 68.50884 160.56 
L 68.592656 160.29872 
L 68.601969 160.647107 
L 68.611282 160.385806 
L 68.63922 160.734204 
L 68.685785 160.29872 
L 68.723036 160.56 
L 68.778914 160.29872 
L 68.769601 160.647107 
L 68.825478 160.385806 
L 68.946545 160.734204 
L 68.965171 160.56 
L 69.0583 160.82129 
L 69.12349 160.56 
L 69.086239 160.995495 
L 69.160742 160.82129 
L 69.18868 160.647107 
L 69.272496 160.908398 
L 69.365625 160.734204 
L 69.421502 161.082591 
L 69.47738 160.995495 
L 69.533257 160.734204 
L 69.523944 161.082591 
L 69.579821 160.995495 
L 69.589134 160.995495 
L 69.654324 160.82129 
L 69.617073 161.082591 
L 69.700889 160.908398 
L 69.710202 160.908398 
L 69.803331 161.169688 
L 69.794018 160.82129 
L 69.821956 160.995495 
L 69.887147 160.734204 
L 69.868521 161.169688 
L 69.924398 160.995495 
L 69.998901 161.082591 
L 69.952337 160.82129 
L 70.02684 160.995495 
L 70.045466 160.734204 
L 70.129282 160.908398 
L 70.166533 161.169688 
L 70.194472 160.82129 
L 70.231723 160.995495 
L 70.287601 161.082591 
L 70.343478 160.734204 
L 70.408668 160.995495 
L 70.455232 160.82129 
L 70.473858 160.734204 
L 70.5763 160.995495 
L 70.594926 160.908398 
L 70.669429 160.734204 
L 70.613551 160.995495 
L 70.688054 160.995495 
L 70.70668 161.082591 
L 70.715993 160.908398 
L 70.762558 160.995495 
L 70.837061 160.647107 
L 70.827748 161.082591 
L 70.874312 160.734204 
L 70.892938 160.995495 
L 70.930189 160.56 
L 70.986067 160.82129 
L 70.99538 160.82129 
L 71.004693 160.995495 
L 71.088508 160.56 
L 71.097821 160.734204 
L 71.107134 160.56 
L 71.181637 160.995495 
L 71.19095 160.734204 
L 71.302705 161.082591 
L 71.312018 160.995495 
L 71.367895 160.734204 
L 71.414459 161.082591 
L 71.54484 160.82129 
L 71.572778 161.082591 
L 71.619343 160.734204 
L 71.637969 160.82129 
L 71.74041 160.647107 
L 71.731097 160.908398 
L 71.749723 160.734204 
L 71.777662 160.734204 
L 71.842852 160.647107 
L 71.889416 160.908398 
L 71.908042 160.82129 
L 71.935981 160.472914 
L 72.019797 160.647107 
L 72.103613 160.995495 
L 72.112926 160.56 
L 72.122238 160.647107 
L 72.168803 160.56 
L 72.15949 160.82129 
L 72.215367 160.647107 
L 72.327122 160.908398 
L 72.410938 160.647107 
L 72.438876 160.734204 
L 72.494754 160.647107 
L 72.541318 160.908398 
L 72.559944 160.56 
L 72.625134 161.082591 
L 72.64376 160.82129 
L 72.681011 160.56 
L 72.764827 160.995495 
L 72.885895 160.734204 
L 72.913833 161.082591 
L 72.997649 160.995495 
L 73.06284 160.734204 
L 73.109404 160.908398 
L 73.146656 160.908398 
L 73.155968 160.734204 
L 73.239784 161.082591 
L 73.249097 160.908398 
L 73.332913 161.169688 
L 73.295662 160.82129 
L 73.351539 160.995495 
L 73.370165 161.082591 
L 73.463294 160.908398 
L 73.519171 160.82129 
L 73.575048 161.082591 
L 73.602987 160.734204 
L 73.67749 161.082591 
L 73.705429 160.995495 
L 73.714741 160.908398 
L 73.751993 161.169688 
L 73.798557 160.995495 
L 73.826496 161.169688 
L 73.817183 160.908398 
L 73.910312 161.082591 
L 73.938251 161.169688 
L 74.031379 160.908398 
L 73.956876 161.343882 
L 74.040692 161.082591 
L 74.124508 161.169688 
L 74.115195 160.995495 
L 74.143134 161.082591 
L 74.171073 161.169688 
L 74.29214 161.343882 
L 74.338705 161.082591 
L 74.413208 161.169688 
L 74.478398 160.995495 
L 74.515649 161.256774 
L 74.534275 160.995495 
L 74.627404 161.169688 
L 74.701907 161.343882 
L 74.720533 161.082591 
L 74.795036 161.343882 
L 74.822974 161.169688 
L 74.869539 160.995495 
L 74.8416 161.256774 
L 74.925416 161.082591 
L 75.037171 161.256774 
L 75.083735 161.343882 
L 75.139612 160.908398 
L 75.167551 161.343882 
L 75.251367 161.169688 
L 75.279306 161.082591 
L 75.297931 160.908398 
L 75.307244 161.169688 
L 75.381747 161.082591 
L 75.512128 161.082591 
L 75.586631 161.256774 
L 75.623882 160.908398 
L 75.74495 161.256774 
L 75.81014 160.908398 
L 75.856704 161.169688 
L 75.866017 161.256774 
L 75.884643 160.995495 
L 75.949833 161.169688 
L 76.042962 160.995495 
L 75.977772 161.343882 
L 76.052275 161.082591 
L 76.089527 161.256774 
L 76.154717 161.082591 
L 76.182655 161.169688 
L 76.247846 160.908398 
L 76.331661 161.256774 
L 76.3596 160.995495 
L 76.368913 160.908398 
L 76.396852 161.256774 
L 76.434103 161.082591 
L 76.508606 161.343882 
L 76.545858 161.169688 
L 76.611048 161.343882 
L 76.648299 161.256774 
L 76.694864 161.082591 
L 76.676238 161.343882 
L 76.741428 161.256774 
L 76.760054 161.169688 
L 76.853183 161.605172 
L 76.927686 161.256774 
L 76.955625 161.518075 
L 77.002189 161.692258 
L 76.97425 161.343882 
L 77.039441 161.430978 
L 77.067379 161.169688 
L 77.086005 161.518075 
L 77.141882 161.430978 
L 77.253637 161.779365 
L 77.235011 161.343882 
L 77.272263 161.692258 
L 77.449207 161.692258 
L 77.45852 161.518075 
L 77.486459 161.866462 
L 77.551649 161.692258 
L 77.570275 161.430978 
L 77.663404 161.866462 
L 77.74722 162.040656 
L 77.784471 161.692258 
L 77.803097 161.779365 
L 77.868287 162.040656 
L 77.840348 161.692258 
L 77.905539 161.866462 
L 77.989355 161.779365 
L 77.980042 162.127742 
L 77.998668 161.866462 
L 78.063858 162.040656 
L 78.017293 161.779365 
L 78.110422 161.953548 
L 78.259428 162.040656 
L 78.268741 162.214849 
L 78.278054 161.866462 
L 78.352557 161.953548 
L 78.36187 161.779365 
L 78.399121 162.127742 
L 78.454999 161.866462 
L 78.604005 162.301946 
L 78.650569 162.301946 
L 78.743698 161.953548 
L 78.762324 162.214849 
L 78.827514 162.214849 
L 78.836827 161.953548 
L 78.892704 162.389032 
L 78.939269 162.127742 
L 79.04171 162.389032 
L 79.051023 162.301946 
L 79.106901 162.040656 
L 79.069649 162.47614 
L 79.153465 162.127742 
L 79.274532 162.389032 
L 79.283845 162.389032 
L 79.367661 162.127742 
L 79.302471 162.47614 
L 79.386287 162.301946 
L 79.488729 162.47614 
L 79.432851 162.127742 
L 79.498042 162.389032 
L 79.516667 162.389032 
L 79.52598 162.563226 
L 79.544606 162.301946 
L 79.628422 162.47614 
L 79.637735 162.214849 
L 79.693612 162.563226 
L 79.730864 162.301946 
L 79.833305 162.47614 
L 79.842618 162.301946 
L 79.861244 162.563226 
L 79.935747 162.47614 
L 80.038189 162.73743 
L 79.954373 162.389032 
L 80.047502 162.563226 
L 80.056815 162.563226 
L 80.07544 162.73743 
L 80.149943 162.389032 
L 80.168569 162.650333 
L 80.224446 162.73743 
L 80.215134 162.47614 
L 80.252385 162.47614 
L 80.261698 162.389032 
L 80.271011 162.73743 
L 80.336201 162.563226 
L 80.457269 162.911624 
L 80.466581 162.824516 
L 80.485207 162.650333 
L 80.513146 162.99871 
L 80.55971 162.911624 
L 80.569023 163.085817 
L 80.615588 162.73743 
L 80.652839 162.911624 
L 80.671465 162.73743 
L 80.699404 162.99871 
L 80.745968 162.99871 
L 80.755281 163.085817 
L 80.783219 162.73743 
L 80.829784 162.99871 
L 80.894974 162.650333 
L 80.950851 162.73743 
L 81.04398 163.085817 
L 81.062606 162.99871 
L 81.10917 162.911624 
L 81.146422 163.085817 
L 81.155735 163.26 
L 81.183673 162.911624 
L 81.258176 163.172914 
L 81.267489 163.172914 
L 81.369931 162.99871 
L 81.341992 163.26 
L 81.379244 163.085817 
L 81.435121 163.347107 
L 81.407183 162.99871 
L 81.490999 163.172914 
L 81.584127 162.911624 
L 81.546876 163.26 
L 81.59344 163.085817 
L 81.602753 163.434204 
L 81.612066 162.911624 
L 81.705195 163.26 
L 81.751759 163.26 
L 81.835575 163.434204 
L 81.770385 163.172914 
L 81.854201 163.26 
L 81.891453 162.99871 
L 81.88214 163.434204 
L 81.956643 163.26 
L 81.993894 163.347107 
L 82.040459 163.172914 
L 82.114962 163.608398 
L 82.170839 163.347107 
L 82.217403 163.521301 
L 82.226716 163.695484 
L 82.263968 163.26 
L 82.319845 163.521301 
L 82.329158 163.521301 
L 82.394348 163.26 
L 82.36641 163.608398 
L 82.4316 163.434204 
L 82.49679 163.608398 
L 82.487477 163.172914 
L 82.515416 163.434204 
L 82.524729 163.172914 
L 82.543354 163.521301 
L 82.617857 163.521301 
L 82.729612 163.26 
L 82.655109 163.608398 
L 82.738925 163.347107 
L 82.757551 163.521301 
L 82.776176 163.26 
L 82.832054 163.26 
L 82.841367 163.26 
L 82.962434 163.521301 
L 82.98106 163.695484 
L 83.008998 163.347107 
L 83.064876 163.608398 
L 83.11144 163.26 
L 83.139379 163.869688 
L 83.17663 163.347107 
L 83.260446 163.172914 
L 83.307011 163.869688 
L 83.344262 163.26 
L 83.418765 163.347107 
L 83.474643 163.869688 
L 83.53052 163.608398 
L 83.549146 163.608398 
L 83.558459 163.434204 
L 83.577084 163.695484 
L 83.651587 163.608398 
L 83.679526 163.521301 
L 83.72609 163.869688 
L 83.791281 163.782591 
L 83.865784 163.521301 
L 83.828532 163.869688 
L 83.903035 163.695484 
L 83.958913 163.869688 
L 83.968225 163.434204 
L 83.996164 163.782591 
L 84.033416 163.434204 
L 84.07998 163.956774 
L 84.098606 163.521301 
L 84.21036 163.869688 
L 84.256925 163.695484 
L 84.266238 163.956774 
L 84.312802 163.782591 
L 84.322115 163.956774 
L 84.340741 163.695484 
L 84.415244 163.869688 
L 84.471121 163.608398 
L 84.526998 163.782591 
L 84.582876 163.956774 
L 84.592189 163.608398 
L 84.638753 163.869688 
L 84.676004 163.869688 
L 84.769133 163.695484 
L 84.731882 163.956774 
L 84.787759 163.782591 
L 84.843636 163.608398 
L 84.899514 163.956774 
L 84.992643 163.695484 
L 85.011268 163.869688 
L 85.039207 164.043882 
L 85.04852 163.782591 
L 85.11371 163.869688 
L 85.132336 163.956774 
L 85.1789 164.218075 
L 85.169587 163.782591 
L 85.24409 164.043882 
L 85.253403 163.782591 
L 85.346532 163.869688 
L 85.458287 164.218075 
L 85.551415 163.782591 
L 85.570041 164.043882 
L 85.59798 163.956774 
L 85.66317 164.218075 
L 85.681796 163.869688 
L 85.756299 164.392258 
L 85.79355 164.043882 
L 85.895992 164.218075 
L 85.979808 164.305172 
L 86.01706 163.782591 
L 86.091563 164.305172 
L 86.128814 164.130968 
L 86.138127 163.956774 
L 86.21263 164.305172 
L 86.231256 164.130968 
L 86.268507 163.956774 
L 86.333698 164.392258 
L 86.426826 164.043882 
L 86.398888 164.479365 
L 86.445452 164.305172 
L 86.473391 164.479365 
L 86.492017 164.130968 
L 86.547894 164.305172 
L 86.594458 164.566452 
L 86.668961 164.043882 
L 86.678274 164.043882 
L 86.752777 164.392258 
L 86.780716 164.043882 
L 86.790029 163.956774 
L 86.845906 164.305172 
L 86.864532 164.130968 
L 86.883158 164.043882 
L 86.976287 164.305172 
L 87.022851 163.956774 
L 87.05079 164.479365 
L 87.097354 164.130968 
L 87.190483 164.305172 
L 87.171857 163.956774 
L 87.199796 164.218075 
L 87.227734 164.305172 
L 87.31155 164.043882 
L 87.367428 163.869688 
L 87.423305 164.392258 
L 87.516434 164.130968 
L 87.53506 164.218075 
L 87.581624 163.956774 
L 87.656127 164.479365 
L 87.702691 164.043882 
L 87.767882 164.130968 
L 87.823759 164.043882 
L 87.888949 164.479365 
L 87.907575 164.130968 
L 88.000704 164.305172 
L 88.159023 164.305172 
L 88.261464 164.043882 
L 88.177648 164.392258 
L 88.270777 164.218075 
L 88.298716 164.043882 
L 88.382532 164.479365 
L 88.494286 164.043882 
L 88.559477 164.479365 
L 88.606041 164.218075 
L 88.63398 164.043882 
L 88.671231 164.305172 
L 88.708483 164.218075 
L 88.717796 164.218075 
L 88.727109 164.392258 
L 88.736421 164.043882 
L 88.82955 164.305172 
L 88.848176 164.305172 
L 88.931992 164.043882 
L 88.885428 164.392258 
L 88.950618 164.305172 
L 89.006495 164.392258 
L 88.997182 164.130968 
L 89.034434 164.130968 
L 89.043747 164.130968 
L 89.053059 163.956774 
L 89.136875 164.305172 
L 89.146188 164.392258 
L 89.202066 164.043882 
L 89.211378 164.305172 
L 89.220691 164.043882 
L 89.276569 164.392258 
L 89.31382 164.218075 
L 89.397636 164.392258 
L 89.406949 164.130968 
L 89.425575 164.305172 
L 89.528016 164.043882 
L 89.4442 164.392258 
L 89.537329 164.218075 
L 89.593207 164.043882 
L 89.649084 164.392258 
L 89.760839 164.130968 
L 89.816716 164.653559 
L 89.872593 164.392258 
L 89.92847 164.218075 
L 89.965722 164.392258 
L 90.021599 164.653559 
L 90.002973 164.305172 
L 90.077477 164.479365 
L 90.15198 164.305172 
L 90.189231 164.392258 
L 90.207857 164.130968 
L 90.245108 164.479365 
L 90.310299 164.218075 
L 90.356863 164.566452 
L 90.422053 164.392258 
L 90.431366 164.305172 
L 90.47793 164.827742 
L 90.524495 164.392258 
L 90.608311 164.740656 
L 90.636249 164.566452 
L 90.645562 164.566452 
L 90.70144 164.392258 
L 90.710753 164.653559 
L 90.748004 164.566452 
L 90.757317 164.566452 
L 90.841133 164.827742 
L 90.859759 164.305172 
L 90.952888 164.827742 
L 90.971513 164.653559 
L 91.064642 164.566452 
L 91.073955 164.479365 
L 91.083268 164.740656 
L 91.157771 164.566452 
L 91.213648 164.653559 
L 91.195022 164.479365 
L 91.241587 164.566452 
L 91.2509 164.392258 
L 91.278838 164.827742 
L 91.344029 164.653559 
L 91.409219 165.001935 
L 91.455783 164.827742 
L 91.465096 164.392258 
L 91.567538 164.566452 
L 91.651354 164.827742 
L 91.614102 164.479365 
L 91.669979 164.740656 
L 91.725857 164.479365 
L 91.753795 164.827742 
L 91.781734 164.653559 
L 91.791047 164.653559 
L 91.884176 164.479365 
L 91.902802 164.827742 
L 91.912114 164.827742 
L 92.023869 164.566452 
L 92.042495 164.740656 
L 92.061121 164.392258 
L 92.116998 164.566452 
L 92.144937 164.392258 
L 92.182188 164.827742 
L 92.21944 164.653559 
L 92.312568 164.740656 
L 92.247378 164.566452 
L 92.321881 164.653559 
L 92.340507 164.479365 
L 92.359133 164.827742 
L 92.424323 164.566452 
L 92.508139 164.827742 
L 92.536078 164.653559 
L 92.582642 164.479365 
L 92.638519 164.653559 
L 92.657145 164.566452 
L 92.666458 164.479365 
L 92.675771 164.827742 
L 92.750274 164.653559 
L 92.806151 164.653559 
L 92.862028 164.479365 
L 92.824777 164.827742 
L 92.917906 164.566452 
L 92.927219 164.566452 
L 92.936532 164.914849 
L 93.02966 164.740656 
L 93.113476 165.001935 
L 93.141415 164.566452 
L 93.271795 164.914849 
L 93.374237 164.392258 
L 93.392863 164.479365 
L 93.51393 164.827742 
L 93.57912 164.740656 
L 93.662936 164.566452 
L 93.672249 164.914849 
L 93.681562 164.827742 
L 93.690875 164.827742 
L 93.728127 164.479365 
L 93.784004 164.566452 
L 93.793317 165.001935 
L 93.895758 164.740656 
L 93.960949 164.827742 
L 94.026139 165.001935 
L 94.007513 164.653559 
L 94.054077 164.827742 
L 94.128581 164.914849 
L 94.165832 164.479365 
L 94.2869 164.827742 
L 94.296212 164.827742 
L 94.389341 164.653559 
L 94.342777 165.001935 
L 94.398654 164.827742 
L 94.41728 164.827742 
L 94.519722 164.479365 
L 94.529035 164.566452 
L 94.594225 164.740656 
L 94.631476 164.653559 
L 94.668728 164.740656 
L 94.733918 164.566452 
L 94.771169 164.827742 
L 94.808421 164.479365 
L 94.83636 164.653559 
L 94.882924 164.566452 
L 94.892237 164.740656 
L 94.938801 164.653559 
L 94.96674 164.566452 
L 94.994679 164.740656 
L 95.078495 164.479365 
L 95.087807 164.827742 
L 95.190249 164.653559 
L 95.236814 164.653559 
L 95.246126 164.479365 
L 95.274065 164.740656 
L 95.329942 164.653559 
L 95.404445 164.914849 
L 95.441697 164.740656 
L 95.5162 164.653559 
L 95.600016 164.566452 
L 95.553452 164.740656 
L 95.609329 164.653559 
L 95.674519 164.566452 
L 95.730396 165.001935 
L 95.758335 164.479365 
L 95.842151 164.653559 
L 95.907341 164.653559 
L 96.00047 164.479365 
L 95.972531 164.740656 
L 96.019096 164.566452 
L 96.112225 164.914849 
L 96.13085 164.653559 
L 96.205353 164.479365 
L 96.186728 164.740656 
L 96.242605 164.566452 
L 96.261231 164.305172 
L 96.298482 164.827742 
L 96.326421 164.653559 
L 96.335734 164.827742 
L 96.372985 164.305172 
L 96.41955 164.479365 
L 96.456801 164.392258 
L 96.48474 164.305172 
L 96.568556 164.653559 
L 96.605807 164.392258 
L 96.689623 164.479365 
L 96.698936 164.479365 
L 96.773439 164.740656 
L 96.801378 164.479365 
L 96.885194 164.392258 
L 96.847942 164.653559 
L 96.90382 164.479365 
L 96.996948 164.653559 
L 97.006261 164.566452 
L 97.043513 164.827742 
L 97.108703 164.305172 
L 97.220458 164.740656 
L 97.239083 164.392258 
L 97.322899 164.566452 
L 97.416028 164.740656 
L 97.378777 164.392258 
L 97.425341 164.479365 
L 97.499844 164.740656 
L 97.537096 164.653559 
L 97.611599 164.479365 
L 97.58366 164.914849 
L 97.639537 164.653559 
L 97.676789 164.566452 
L 97.686102 164.827742 
L 97.723353 164.479365 
L 97.779231 164.479365 
L 97.816482 164.653559 
L 97.853734 164.392258 
L 97.863047 164.218075 
L 97.890985 164.566452 
L 97.946863 164.479365 
L 98.021366 164.653559 
L 98.030678 164.305172 
L 98.039991 164.479365 
L 98.142433 164.305172 
L 98.207623 164.479365 
L 98.188997 164.218075 
L 98.254188 164.392258 
L 98.300752 164.218075 
L 98.310065 164.479365 
L 98.347316 164.305172 
L 98.365942 164.566452 
L 98.412507 164.218075 
L 98.449758 164.392258 
L 98.514948 164.218075 
L 98.496323 164.479365 
L 98.542887 164.392258 
L 98.5522 164.566452 
L 98.636016 164.130968 
L 98.729145 164.479365 
L 98.766396 164.392258 
L 98.831586 164.653559 
L 98.878151 164.305172 
L 98.906089 164.392258 
L 98.961967 164.479365 
L 98.924715 164.218075 
L 98.989905 164.305172 
L 98.999218 164.043882 
L 99.03647 164.479365 
L 99.092347 164.305172 
L 99.157537 164.392258 
L 99.129599 164.130968 
L 99.194789 164.305172 
L 99.241353 164.218075 
L 99.250666 164.130968 
L 99.278605 164.479365 
L 99.325169 164.218075 
L 99.390359 164.566452 
L 99.427611 164.392258 
L 99.502114 164.130968 
L 99.446237 164.479365 
L 99.539365 164.218075 
L 99.576617 164.305172 
L 99.688372 163.956774 
L 99.800126 164.305172 
L 99.893255 164.043882 
L 99.911881 164.218075 
L 99.921194 164.043882 
L 99.939819 164.392258 
L 100.014322 164.130968 
L 100.0702 164.392258 
L 100.051574 164.043882 
L 100.107451 164.130968 
L 100.163329 164.043882 
L 100.126077 164.305172 
L 100.20058 164.218075 
L 100.209893 164.566452 
L 100.26577 164.043882 
L 100.303022 164.218075 
L 100.340273 163.956774 
L 100.358899 164.392258 
L 100.414776 164.130968 
L 100.433402 164.043882 
L 100.535844 164.392258 
L 100.610347 164.218075 
L 100.55447 164.479365 
L 100.628973 164.479365 
L 100.647599 164.392258 
L 100.75004 164.130968 
L 100.703476 164.566452 
L 100.759353 164.218075 
L 100.871108 164.479365 
L 100.992175 164.218075 
L 101.085304 164.653559 
L 101.113243 164.566452 
L 101.197059 164.305172 
L 101.23431 164.392258 
L 101.280875 164.566452 
L 101.2995 164.305172 
L 101.327439 164.479365 
L 101.336752 164.218075 
L 101.364691 164.566452 
L 101.429881 164.479365 
L 101.495071 164.566452 
L 101.52301 164.479365 
L 101.597513 164.653559 
L 101.644077 164.305172 
L 101.699954 164.479365 
L 101.709267 164.740656 
L 101.746519 164.392258 
L 101.811709 164.653559 
L 101.914151 164.218075 
L 101.858273 164.827742 
L 101.923463 164.566452 
L 101.988654 164.827742 
L 102.016592 164.479365 
L 102.025905 164.740656 
L 102.053844 164.392258 
L 102.119034 164.653559 
L 102.13766 164.392258 
L 102.165598 164.740656 
L 102.212163 164.653559 
L 102.221476 164.827742 
L 102.26804 164.392258 
L 102.314605 164.653559 
L 102.444985 164.218075 
L 102.528801 164.653559 
L 102.55674 164.392258 
L 102.612617 164.305172 
L 102.668494 164.566452 
L 102.733684 164.392258 
L 102.770936 164.479365 
L 102.808187 164.827742 
L 102.892003 164.740656 
L 102.929255 164.392258 
L 103.013071 164.479365 
L 103.031697 164.392258 
L 103.124825 164.740656 
L 103.190016 164.305172 
L 103.23658 164.653559 
L 103.292457 164.479365 
L 103.255206 164.827742 
L 103.329709 164.653559 
L 103.339022 164.740656 
L 103.357647 164.479365 
L 103.43215 164.653559 
L 103.450776 164.566452 
L 103.469402 164.740656 
L 103.534592 164.392258 
L 103.618408 164.827742 
L 103.646347 164.566452 
L 103.674285 164.653559 
L 103.702224 164.827742 
L 103.711537 164.566452 
L 103.776727 164.740656 
L 103.795353 164.479365 
L 103.888482 164.566452 
L 103.935046 164.827742 
L 103.972298 164.479365 
L 104.000236 164.653559 
L 104.111991 164.653559 
L 104.13993 164.479365 
L 104.20512 164.740656 
L 104.214433 164.653559 
L 104.223746 164.653559 
L 104.316874 164.305172 
L 104.3355 164.566452 
L 104.410003 164.653559 
L 104.382065 164.392258 
L 104.437942 164.566452 
L 104.447255 164.566452 
L 104.456568 164.218075 
L 104.475193 164.740656 
L 104.549696 164.653559 
L 104.568322 164.653559 
L 104.633512 164.392258 
L 104.680077 164.566452 
L 104.763893 164.479365 
L 104.866334 164.305172 
L 104.801144 164.653559 
L 104.875647 164.392258 
L 104.912899 164.740656 
L 104.987402 164.653559 
L 105.006028 164.566452 
L 105.117782 164.827742 
L 105.182972 164.566452 
L 105.201598 164.914849 
L 105.220224 164.827742 
L 105.294727 164.740656 
L 105.36923 164.479365 
L 105.359917 164.914849 
L 105.397169 164.740656 
L 105.462359 165.001935 
L 105.49961 164.740656 
L 105.508923 164.740656 
L 105.564801 165.001935 
L 105.527549 164.653559 
L 105.620678 164.827742 
L 105.629991 164.827742 
L 105.695181 164.566452 
L 105.657929 165.001935 
L 105.732433 164.740656 
L 105.778997 165.089043 
L 105.844187 164.827742 
L 105.881439 165.089043 
L 105.937316 164.827742 
L 105.974568 164.653559 
L 105.98388 165.001935 
L 106.039758 164.914849 
L 106.067696 165.089043 
L 106.086322 164.740656 
L 106.114261 165.001935 
L 106.123574 164.566452 
L 106.216702 165.17614 
L 106.226015 164.914849 
L 106.27258 164.914849 
L 106.384334 165.089043 
L 106.393647 165.089043 
L 106.449525 164.653559 
L 106.496089 165.001935 
L 106.505402 165.17614 
L 106.551966 164.914849 
L 106.598531 165.001935 
L 106.607844 164.914849 
L 106.617156 165.263226 
L 106.682347 165.001935 
L 106.803414 165.263226 
L 106.88723 164.914849 
L 106.915169 165.17614 
L 106.924482 165.263226 
L 106.943107 164.914849 
L 106.998985 165.001935 
L 107.01761 164.740656 
L 107.054862 165.350333 
L 107.092113 165.263226 
L 107.194555 165.089043 
L 107.222494 165.43743 
L 107.213181 165.001935 
L 107.296997 165.089043 
L 107.30631 165.001935 
L 107.343561 165.350333 
L 107.380813 165.17614 
L 107.43669 165.263226 
L 107.418064 165.089043 
L 107.483255 165.17614 
L 107.511193 165.263226 
L 107.595009 164.827742 
L 107.706764 165.263226 
L 107.734702 165.350333 
L 107.818518 164.914849 
L 107.930273 165.263226 
L 107.995463 165.089043 
L 107.98615 165.350333 
L 108.023402 165.263226 
L 108.032715 165.43743 
L 108.042027 165.17614 
L 108.135156 165.350333 
L 108.228285 165.17614 
L 108.246911 165.263226 
L 108.321414 165.17614 
L 108.358666 165.43743 
L 108.433169 165.350333 
L 108.498359 165.263226 
L 108.489046 165.43743 
L 108.53561 165.350333 
L 108.610113 165.524527 
L 108.628739 165.263226 
L 108.647365 165.43743 
L 108.675304 165.43743 
L 108.759119 165.089043 
L 108.693929 165.524527 
L 108.777745 165.350333 
L 108.870874 165.524527 
L 108.796371 165.089043 
L 108.880187 165.350333 
L 108.926751 165.43743 
L 108.982629 165.350333 
L 109.038506 165.611624 
L 109.094383 165.263226 
L 109.150261 165.524527 
L 109.159573 165.611624 
L 109.187512 165.263226 
L 109.252702 165.524527 
L 109.355144 165.350333 
L 109.271328 165.69871 
L 109.364457 165.43743 
L 109.401708 165.43743 
L 109.43896 165.611624 
L 109.476211 165.17614 
L 109.50415 165.43743 
L 109.522776 165.350333 
L 109.56934 165.611624 
L 109.587966 165.524527 
L 109.643843 165.43743 
L 109.699721 165.611624 
L 109.764911 165.350333 
L 109.718346 165.785817 
L 109.811475 165.524527 
L 109.839414 165.611624 
L 109.913917 165.43743 
L 109.960481 165.96 
L 110.062923 165.611624 
L 110.072236 165.96 
L 110.1188 165.350333 
L 110.165365 165.524527 
L 110.267806 165.785817 
L 110.286432 165.69871 
L 110.295745 165.69871 
L 110.379561 165.524527 
L 110.4075 165.611624 
L 110.482003 165.524527 
L 110.426125 165.785817 
L 110.509941 165.611624 
L 110.528567 165.524527 
L 110.621696 165.69871 
L 110.658948 165.43743 
L 110.705512 165.69871 
L 110.724138 165.872914 
L 110.733451 165.524527 
L 110.798641 165.69871 
L 110.817267 165.524527 
L 110.854518 165.872914 
L 110.910395 165.611624 
L 110.994211 165.43743 
L 110.929021 165.785817 
L 111.012837 165.611624 
L 111.059402 165.785817 
L 111.040776 165.43743 
L 111.105966 165.524527 
L 111.133905 165.524527 
L 111.15253 165.872914 
L 111.217721 165.350333 
L 111.254972 165.785817 
L 111.320162 165.350333 
L 111.366727 165.611624 
L 111.394665 165.43743 
L 111.385352 165.69871 
L 111.459855 165.69871 
L 111.487794 165.611624 
L 111.552984 165.350333 
L 111.57161 165.69871 
L 111.590236 165.43743 
L 111.627487 165.69871 
L 111.70199 165.524527 
L 111.729929 165.263226 
L 111.813745 165.43743 
L 111.841684 165.350333 
L 111.897561 165.263226 
L 111.906874 165.524527 
L 111.9255 165.524527 
L 111.934813 165.524527 
L 112.018628 165.089043 
L 112.046567 165.350333 
L 112.05588 165.350333 
L 112.130383 165.43743 
L 112.167635 165.089043 
L 112.298015 165.350333 
L 112.307328 165.350333 
L 112.419082 165.17614 
L 112.428395 165.17614 
L 112.47496 165.524527 
L 112.60534 159.863236 
L 113.061671 140.353548 
L 113.1548 136.608387 
L 113.843953 109.434194 
L 113.909144 107.692258 
L 114.011585 108.301935 
L 114.160592 109.434194 
L 114.169904 109.26 
L 114.179217 109.26 
L 114.300285 109.695484 
L 114.337536 109.434194 
L 114.346849 109.869677 
L 114.393414 109.695484 
L 114.561045 110.305161 
L 114.579671 110.305161 
L 114.588984 110.130968 
L 114.60761 110.566452 
L 114.654174 110.566452 
L 114.775242 110.914849 
L 114.952187 111.69871 
L 114.970812 111.524516 
L 115.02669 111.872903 
L 115.045315 111.872903 
L 115.09188 111.96 
L 115.231573 112.395484 
L 115.240886 112.308387 
L 115.306076 112.656785 
L 115.315389 112.569677 
L 115.483021 113.266452 
L 115.492334 113.179355 
L 115.538898 113.527753 
L 115.557524 113.527753 
L 115.70653 114.311613 
L 115.725156 114.39871 
L 115.734469 114.050333 
L 115.808972 114.660011 
L 115.818285 114.485817 
L 115.902101 115.095495 
L 115.939352 115.008387 
L 115.976604 114.921301 
L 116.069732 115.705161 
L 116.097671 115.443871 
L 116.106984 115.443871 
L 116.218739 115.879355 
L 116.228051 115.792269 
L 116.395683 116.663236 
L 116.246677 115.705161 
L 116.414309 116.576129 
L 116.423622 116.489043 
L 116.460874 116.750323 
L 116.488812 116.750323 
L 116.619193 117.185806 
L 116.628505 117.011613 
L 116.703009 117.447097 
L 116.712321 117.447097 
L 116.730947 117.447097 
L 116.74026 117.09872 
L 116.796137 117.708387 
L 116.824076 117.708387 
L 116.852015 117.621301 
L 116.954456 118.143871 
L 116.973082 117.882581 
L 117.047585 118.318065 
L 117.056898 118.230978 
L 117.075524 118.143871 
L 117.196591 118.753548 
L 117.373536 119.450323 
L 117.382849 119.450323 
L 117.392162 119.189032 
L 117.448039 119.53743 
L 117.485291 119.53743 
L 117.503916 119.53743 
L 117.634297 120.234204 
L 117.64361 120.147097 
L 117.811242 120.756774 
L 117.895058 120.756774 
L 118.025438 121.279355 
L 118.099941 121.192258 
L 118.081315 121.453548 
L 118.109254 121.366462 
L 118.25826 121.889032 
L 118.267573 121.801946 
L 118.314137 122.150323 
L 118.332763 122.063236 
L 118.45383 122.324516 
L 118.528334 122.23743 
L 118.481769 122.49872 
L 118.537646 122.411613 
L 118.593524 122.847097 
L 118.574898 122.324516 
L 118.668027 122.76 
L 118.714591 122.672914 
L 118.733217 123.02129 
L 118.751843 122.934204 
L 118.817033 123.369688 
L 118.789094 122.847097 
L 118.863597 123.02129 
L 118.87291 123.02129 
L 118.9381 123.456774 
L 118.984665 123.369688 
L 118.993978 123.369688 
L 119.087107 123.892258 
L 119.124358 123.805172 
L 119.142984 123.630968 
L 119.152297 123.979365 
L 119.208174 123.892258 
L 119.385119 124.763226 
L 119.42237 124.589032 
L 119.478248 124.93743 
L 119.496873 124.850323 
L 119.590002 125.111624 
L 119.608628 124.93743 
L 119.617941 125.372914 
L 119.692444 125.19871 
L 119.84145 125.808398 
L 119.850763 125.72129 
L 119.878702 125.808398 
L 119.97183 126.330968 
L 119.897327 125.72129 
L 119.999769 126.243882 
L 120.009082 125.982591 
L 120.046333 126.330968 
L 120.092898 126.330968 
L 120.158088 126.853548 
L 120.223278 126.766452 
L 120.26053 126.853548 
L 120.316407 126.766452 
L 120.428162 127.463226 
L 120.446787 127.289032 
L 120.465413 127.550333 
L 120.52129 127.463226 
L 120.567855 127.89871 
L 120.633045 127.637419 
L 120.819303 128.595484 
L 120.893806 128.769677 
L 120.921744 128.421301 
L 121.042812 128.943882 
L 121.052125 128.856785 
L 121.098689 128.856785 
L 121.22907 129.292258 
L 121.238382 129.292258 
L 121.350137 129.727742 
L 121.35945 129.553559 
L 121.378076 129.553559 
L 121.48983 129.989043 
L 121.499143 129.814849 
L 121.564333 130.337419 
L 121.582959 130.250333 
L 121.620211 130.07614 
L 121.638836 130.424527 
L 121.657462 130.424527 
L 121.731965 130.685817 
L 121.676088 130.250333 
L 121.769217 130.59871 
L 121.77853 130.424527 
L 121.825094 130.860011 
L 121.862346 130.59871 
L 121.992726 131.208387 
L 122.011352 131.121301 
L 122.113793 131.556785 
L 122.123106 131.556785 
L 122.132419 131.730968 
L 122.160358 131.469677 
L 122.169671 131.643871 
L 122.281425 14.76 
L 248.359233 14.76 
L 248.359233 14.76 
" clip-path="url(#pd51a4d51e4)" style="fill: none; stroke: #000000; stroke-opacity: 0.5; stroke-width: 1.5; stroke-linecap: square"/>
   </g>
   <g id="patch_3">
    <path d="M 35.304688 173.52 
L 35.304688 7.2 
" style="fill: none; stroke: #000000; stroke-width: 0.8; stroke-linejoin: miter; stroke-linecap: square"/>
   </g>
   <g id="patch_4">
    <path d="M 35.304688 173.52 
L 258.504687 173.52 
" style="fill: none; stroke: #000000; stroke-width: 0.8; stroke-linejoin: miter; stroke-linecap: square"/>
   </g>
  </g>
 </g>
 <defs>
  <clipPath id="pd51a4d51e4">
   <rect x="35.304688" y="7.2" width="223.2" height="166.32"/>
  </clipPath>
 </defs>
</svg>
