<?xml version="1.0" encoding="utf-8" standalone="no"?>
<!DOCTYPE svg PUBLIC "-//W3C//DTD SVG 1.1//EN"
  "http://www.w3.org/Graphics/SVG/1.1/DTD/svg11.dtd">
<svg xmlns:xlink="http://www.w3.org/1999/xlink" width="265.704687pt" height="197.398125pt" viewBox="0 0 265.704687 197.398125" xmlns="http://www.w3.org/2000/svg" version="1.1">
 <metadata>
  <rdf:RDF xmlns:dc="http://purl.org/dc/elements/1.1/" xmlns:cc="http://creativecommons.org/ns#" xmlns:rdf="http://www.w3.org/1999/02/22-rdf-syntax-ns#">
   <cc:Work>
    <dc:type rdf:resource="http://purl.org/dc/dcmitype/StillImage"/>
    <dc:date>2024-09-04T19:31:40.890843</dc:date>
    <dc:format>image/svg+xml</dc:format>
    <dc:creator>
     <cc:Agent>
      <dc:title>Matplotlib v3.9.2, https://matplotlib.org/</dc:title>
     </cc:Agent>
    </dc:creator>
   </cc:Work>
  </rdf:RDF>
 </metadata>
 <defs>
  <style type="text/css">*{stroke-linejoin: round; stroke-linecap: butt}</style>
 </defs>
 <g id="figure_1">
  <g id="patch_1">
   <path d="M 0 197.398125 
L 265.704687 197.398125 
L 265.704687 0 
L 0 0 
z
" style="fill: #ffffff"/>
  </g>
  <g id="axes_1">
   <g id="patch_2">
    <path d="M 35.304688 173.52 
L 258.504687 173.52 
L 258.504687 7.2 
L 35.304688 7.2 
z
" style="fill: #ffffff"/>
   </g>
   <g id="matplotlib.axis_1">
    <g id="xtick_1">
     <g id="line2d_1">
      <defs>
       <path id="mffe221ddd6" d="M 0 0 
L 0 3.5 
" style="stroke: #000000; stroke-width: 0.8"/>
      </defs>
      <g>
       <use xlink:href="#mffe221ddd6" x="75.147053" y="173.52" style="stroke: #000000; stroke-width: 0.8"/>
      </g>
     </g>
     <g id="text_1">
      <!-- 0.2 -->
      <g transform="translate(67.19549 188.118438) scale(0.1 -0.1)">
       <defs>
        <path id="DejaVuSans-30" d="M 2034 4250 
Q 1547 4250 1301 3770 
Q 1056 3291 1056 2328 
Q 1056 1369 1301 889 
Q 1547 409 2034 409 
Q 2525 409 2770 889 
Q 3016 1369 3016 2328 
Q 3016 3291 2770 3770 
Q 2525 4250 2034 4250 
z
M 2034 4750 
Q 2819 4750 3233 4129 
Q 3647 3509 3647 2328 
Q 3647 1150 3233 529 
Q 2819 -91 2034 -91 
Q 1250 -91 836 529 
Q 422 1150 422 2328 
Q 422 3509 836 4129 
Q 1250 4750 2034 4750 
z
" transform="scale(0.015625)"/>
        <path id="DejaVuSans-2e" d="M 684 794 
L 1344 794 
L 1344 0 
L 684 0 
L 684 794 
z
" transform="scale(0.015625)"/>
        <path id="DejaVuSans-32" d="M 1228 531 
L 3431 531 
L 3431 0 
L 469 0 
L 469 531 
Q 828 903 1448 1529 
Q 2069 2156 2228 2338 
Q 2531 2678 2651 2914 
Q 2772 3150 2772 3378 
Q 2772 3750 2511 3984 
Q 2250 4219 1831 4219 
Q 1534 4219 1204 4116 
Q 875 4013 500 3803 
L 500 4441 
Q 881 4594 1212 4672 
Q 1544 4750 1819 4750 
Q 2544 4750 2975 4387 
Q 3406 4025 3406 3419 
Q 3406 3131 3298 2873 
Q 3191 2616 2906 2266 
Q 2828 2175 2409 1742 
Q 1991 1309 1228 531 
z
" transform="scale(0.015625)"/>
       </defs>
       <use xlink:href="#DejaVuSans-30"/>
       <use xlink:href="#DejaVuSans-2e" x="63.623047"/>
       <use xlink:href="#DejaVuSans-32" x="95.410156"/>
      </g>
     </g>
    </g>
    <g id="xtick_2">
     <g id="line2d_2">
      <g>
       <use xlink:href="#mffe221ddd6" x="124.641904" y="173.52" style="stroke: #000000; stroke-width: 0.8"/>
      </g>
     </g>
     <g id="text_2">
      <!-- 0.4 -->
      <g transform="translate(116.690341 188.118438) scale(0.1 -0.1)">
       <defs>
        <path id="DejaVuSans-34" d="M 2419 4116 
L 825 1625 
L 2419 1625 
L 2419 4116 
z
M 2253 4666 
L 3047 4666 
L 3047 1625 
L 3713 1625 
L 3713 1100 
L 3047 1100 
L 3047 0 
L 2419 0 
L 2419 1100 
L 313 1100 
L 313 1709 
L 2253 4666 
z
" transform="scale(0.015625)"/>
       </defs>
       <use xlink:href="#DejaVuSans-30"/>
       <use xlink:href="#DejaVuSans-2e" x="63.623047"/>
       <use xlink:href="#DejaVuSans-34" x="95.410156"/>
      </g>
     </g>
    </g>
    <g id="xtick_3">
     <g id="line2d_3">
      <g>
       <use xlink:href="#mffe221ddd6" x="174.136754" y="173.52" style="stroke: #000000; stroke-width: 0.8"/>
      </g>
     </g>
     <g id="text_3">
      <!-- 0.6 -->
      <g transform="translate(166.185192 188.118438) scale(0.1 -0.1)">
       <defs>
        <path id="DejaVuSans-36" d="M 2113 2584 
Q 1688 2584 1439 2293 
Q 1191 2003 1191 1497 
Q 1191 994 1439 701 
Q 1688 409 2113 409 
Q 2538 409 2786 701 
Q 3034 994 3034 1497 
Q 3034 2003 2786 2293 
Q 2538 2584 2113 2584 
z
M 3366 4563 
L 3366 3988 
Q 3128 4100 2886 4159 
Q 2644 4219 2406 4219 
Q 1781 4219 1451 3797 
Q 1122 3375 1075 2522 
Q 1259 2794 1537 2939 
Q 1816 3084 2150 3084 
Q 2853 3084 3261 2657 
Q 3669 2231 3669 1497 
Q 3669 778 3244 343 
Q 2819 -91 2113 -91 
Q 1303 -91 875 529 
Q 447 1150 447 2328 
Q 447 3434 972 4092 
Q 1497 4750 2381 4750 
Q 2619 4750 2861 4703 
Q 3103 4656 3366 4563 
z
" transform="scale(0.015625)"/>
       </defs>
       <use xlink:href="#DejaVuSans-30"/>
       <use xlink:href="#DejaVuSans-2e" x="63.623047"/>
       <use xlink:href="#DejaVuSans-36" x="95.410156"/>
      </g>
     </g>
    </g>
    <g id="xtick_4">
     <g id="line2d_4">
      <g>
       <use xlink:href="#mffe221ddd6" x="223.631605" y="173.52" style="stroke: #000000; stroke-width: 0.8"/>
      </g>
     </g>
     <g id="text_4">
      <!-- 0.8 -->
      <g transform="translate(215.680043 188.118438) scale(0.1 -0.1)">
       <defs>
        <path id="DejaVuSans-38" d="M 2034 2216 
Q 1584 2216 1326 1975 
Q 1069 1734 1069 1313 
Q 1069 891 1326 650 
Q 1584 409 2034 409 
Q 2484 409 2743 651 
Q 3003 894 3003 1313 
Q 3003 1734 2745 1975 
Q 2488 2216 2034 2216 
z
M 1403 2484 
Q 997 2584 770 2862 
Q 544 3141 544 3541 
Q 544 4100 942 4425 
Q 1341 4750 2034 4750 
Q 2731 4750 3128 4425 
Q 3525 4100 3525 3541 
Q 3525 3141 3298 2862 
Q 3072 2584 2669 2484 
Q 3125 2378 3379 2068 
Q 3634 1759 3634 1313 
Q 3634 634 3220 271 
Q 2806 -91 2034 -91 
Q 1263 -91 848 271 
Q 434 634 434 1313 
Q 434 1759 690 2068 
Q 947 2378 1403 2484 
z
M 1172 3481 
Q 1172 3119 1398 2916 
Q 1625 2713 2034 2713 
Q 2441 2713 2670 2916 
Q 2900 3119 2900 3481 
Q 2900 3844 2670 4047 
Q 2441 4250 2034 4250 
Q 1625 4250 1398 4047 
Q 1172 3844 1172 3481 
z
" transform="scale(0.015625)"/>
       </defs>
       <use xlink:href="#DejaVuSans-30"/>
       <use xlink:href="#DejaVuSans-2e" x="63.623047"/>
       <use xlink:href="#DejaVuSans-38" x="95.410156"/>
      </g>
     </g>
    </g>
   </g>
   <g id="matplotlib.axis_2">
    <g id="ytick_1">
     <g id="line2d_5">
      <defs>
       <path id="m1323e41df1" d="M 0 0 
L -3.5 0 
" style="stroke: #000000; stroke-width: 0.8"/>
      </defs>
      <g>
       <use xlink:href="#m1323e41df1" x="35.304688" y="155.447641" style="stroke: #000000; stroke-width: 0.8"/>
      </g>
     </g>
     <g id="text_5">
      <!-- −60 -->
      <g transform="translate(7.2 159.24686) scale(0.1 -0.1)">
       <defs>
        <path id="DejaVuSans-2212" d="M 678 2272 
L 4684 2272 
L 4684 1741 
L 678 1741 
L 678 2272 
z
" transform="scale(0.015625)"/>
       </defs>
       <use xlink:href="#DejaVuSans-2212"/>
       <use xlink:href="#DejaVuSans-36" x="83.789062"/>
       <use xlink:href="#DejaVuSans-30" x="147.412109"/>
      </g>
     </g>
    </g>
    <g id="ytick_2">
     <g id="line2d_6">
      <g>
       <use xlink:href="#m1323e41df1" x="35.304688" y="131.409756" style="stroke: #000000; stroke-width: 0.8"/>
      </g>
     </g>
     <g id="text_6">
      <!-- −40 -->
      <g transform="translate(7.2 135.208975) scale(0.1 -0.1)">
       <use xlink:href="#DejaVuSans-2212"/>
       <use xlink:href="#DejaVuSans-34" x="83.789062"/>
       <use xlink:href="#DejaVuSans-30" x="147.412109"/>
      </g>
     </g>
    </g>
    <g id="ytick_3">
     <g id="line2d_7">
      <g>
       <use xlink:href="#m1323e41df1" x="35.304688" y="107.371872" style="stroke: #000000; stroke-width: 0.8"/>
      </g>
     </g>
     <g id="text_7">
      <!-- −20 -->
      <g transform="translate(7.2 111.17109) scale(0.1 -0.1)">
       <use xlink:href="#DejaVuSans-2212"/>
       <use xlink:href="#DejaVuSans-32" x="83.789062"/>
       <use xlink:href="#DejaVuSans-30" x="147.412109"/>
      </g>
     </g>
    </g>
    <g id="ytick_4">
     <g id="line2d_8">
      <g>
       <use xlink:href="#m1323e41df1" x="35.304688" y="83.333987" style="stroke: #000000; stroke-width: 0.8"/>
      </g>
     </g>
     <g id="text_8">
      <!-- 0 -->
      <g transform="translate(21.942187 87.133205) scale(0.1 -0.1)">
       <use xlink:href="#DejaVuSans-30"/>
      </g>
     </g>
    </g>
    <g id="ytick_5">
     <g id="line2d_9">
      <g>
       <use xlink:href="#m1323e41df1" x="35.304688" y="59.296102" style="stroke: #000000; stroke-width: 0.8"/>
      </g>
     </g>
     <g id="text_9">
      <!-- 20 -->
      <g transform="translate(15.579687 63.095321) scale(0.1 -0.1)">
       <use xlink:href="#DejaVuSans-32"/>
       <use xlink:href="#DejaVuSans-30" x="63.623047"/>
      </g>
     </g>
    </g>
    <g id="ytick_6">
     <g id="line2d_10">
      <g>
       <use xlink:href="#m1323e41df1" x="35.304688" y="35.258217" style="stroke: #000000; stroke-width: 0.8"/>
      </g>
     </g>
     <g id="text_10">
      <!-- 40 -->
      <g transform="translate(15.579687 39.057436) scale(0.1 -0.1)">
       <use xlink:href="#DejaVuSans-34"/>
       <use xlink:href="#DejaVuSans-30" x="63.623047"/>
      </g>
     </g>
    </g>
    <g id="ytick_7">
     <g id="line2d_11">
      <g>
       <use xlink:href="#m1323e41df1" x="35.304688" y="11.220332" style="stroke: #000000; stroke-width: 0.8"/>
      </g>
     </g>
     <g id="text_11">
      <!-- 60 -->
      <g transform="translate(15.579687 15.019551) scale(0.1 -0.1)">
       <use xlink:href="#DejaVuSans-36"/>
       <use xlink:href="#DejaVuSans-30" x="63.623047"/>
      </g>
     </g>
    </g>
   </g>
   <g id="line2d_12">
    <path d="M 45.450142 153.674457 
L 46.133171 153.698734 
L 48.023874 153.736299 
L 48.538621 153.716062 
L 48.885085 153.717127 
L 49.112761 153.76071 
L 50.330334 154.03273 
L 50.914374 156.960949 
L 51.973563 158.96272 
L 52.626895 159.802995 
L 54.101842 161.697125 
L 55.547092 162.731836 
L 55.774768 162.850344 
L 56.794362 163.421061 
L 57.160624 163.660575 
L 59.031529 164.47497 
L 59.50668 164.639004 
L 60.229305 164.830619 
L 60.397587 164.864997 
L 60.75395 164.95544 
L 62.080412 165.232064 
L 62.407078 165.326752 
L 63.149501 165.384671 
L 64.495761 165.54258 
L 64.753134 165.502069 
L 65.010507 165.528351 
L 65.406466 165.6322 
L 68.989893 165.59819 
L 69.217569 165.639964 
L 69.50464 165.656244 
L 70.36585 165.671288 
L 70.860799 165.650208 
L 71.029081 165.663551 
L 71.266656 165.640448 
L 71.731908 165.611407 
L 72.603017 165.606643 
L 72.919784 165.645355 
L 75.790486 165.853268 
L 76.117152 165.875082 
L 76.51311 165.862652 
L 78.007855 165.776579 
L 78.235531 165.788408 
L 79.492701 165.892329 
L 81.650676 165.856482 
L 81.967443 165.874902 
L 86.600161 165.647683 
L 86.788242 165.629514 
L 88.837328 165.673948 
L 89.035308 165.71111 
L 89.470862 165.708289 
L 89.738135 165.663811 
L 90.272679 165.765063 
L 90.807223 165.800506 
L 91.025001 165.795921 
L 91.341768 165.848405 
L 91.787221 165.831167 
L 92.133685 165.765573 
L 92.38116 165.718363 
L 92.886007 165.621401 
L 93.836308 164.993678 
L 94.20257 165.072283 
L 94.558933 165.150718 
L 100.983365 165.832869 
L 101.260536 165.825293 
L 101.804979 165.900916 
L 102.478109 165.88632 
L 102.923563 165.926688 
L 103.24033 165.948251 
L 103.42841 165.902349 
L 103.774874 165.917259 
L 106.12093 165.777 
L 106.309011 165.767642 
L 107.437493 165.798876 
L 107.882947 165.754066 
L 115.35667 165.644835 
L 115.802123 165.455047 
L 116.366364 165.589728 
L 116.732626 165.634242 
L 117.217676 165.592432 
L 117.445352 165.623729 
L 118.296664 165.606303 
L 118.662926 165.573224 
L 119.128177 165.650656 
L 119.920095 165.68421 
L 120.177468 165.721829 
L 120.415043 165.67178 
L 121.652415 165.721668 
L 121.860293 165.782516 
L 122.127565 165.786178 
L 123.275846 165.868446 
L 123.513421 165.857172 
L 123.790592 165.800604 
L 124.09746 165.834131 
L 124.38453 165.813696 
L 124.58251 165.761275 
L 124.938873 165.867918 
L 125.394225 165.688132 
L 125.592205 165.675013 
L 126.037658 165.683055 
L 131.383102 165.874911 
L 131.571183 165.863888 
L 132.422494 165.889221 
L 132.669968 165.888388 
L 133.03623 165.917375 
L 133.412391 165.865043 
L 133.778653 165.824469 
L 134.253804 165.870094 
L 134.639863 165.844384 
L 139.876419 165.743804 
L 140.123893 165.75266 
L 141.192982 165.728876 
L 141.489951 165.721372 
L 142.083889 165.753977 
L 144.598227 165.734545 
L 144.776409 165.696997 
L 145.548529 165.775334 
L 145.845498 165.801992 
L 146.122669 165.720056 
L 146.538426 165.749893 
L 147.409535 165.638961 
L 147.627312 165.625251 
L 148.043069 165.677897 
L 148.359836 165.673446 
L 148.587512 165.670437 
L 149.003269 165.56812 
L 149.28044 165.606151 
L 152.042253 165.625081 
L 152.35902 165.685007 
L 152.566898 165.709471 
L 154.051744 165.771734 
L 154.37841 165.711271 
L 154.596187 165.684013 
L 155.803862 165.465327 
L 156.041437 165.466545 
L 156.506689 165.444525 
L 156.813557 165.421834 
L 158.397392 165.497797 
L 158.70426 165.515134 
L 159.456582 165.593632 
L 160.189105 165.43943 
L 160.604862 165.52948 
L 161.287891 165.560562 
L 161.525466 165.52742 
L 162.119405 165.562129 
L 163.03011 165.57668 
L 163.257786 165.585384 
L 163.475564 165.610333 
L 164.465461 165.598235 
L 164.841621 165.509976 
L 165.128692 165.496177 
L 166.207679 165.42915 
L 166.603638 165.258713 
L 166.851112 165.224407 
L 167.276768 165.175586 
L 167.415354 165.213285 
L 167.672727 165.235028 
L 174.750491 165.521393 
L 175.017763 165.556604 
L 175.364227 165.591671 
L 175.641398 165.61678 
L 176.314528 165.586969 
L 176.750083 165.57266 
L 177.710283 165.676034 
L 177.987454 165.664241 
L 178.244827 165.742174 
L 178.739776 165.749338 
L 179.046644 165.799754 
L 181.165023 165.870864 
L 181.452093 165.818639 
L 181.758962 165.811735 
L 181.986638 165.824711 
L 182.174718 165.905617 
L 182.461788 165.881995 
L 182.92704 165.743303 
L 183.332898 165.663936 
L 184.471279 165.650325 
L 184.887036 165.669372 
L 185.431479 165.653432 
L 185.698752 165.643788 
L 186.164003 165.628609 
L 186.490669 165.635299 
L 186.708447 165.634905 
L 187.054911 165.502893 
L 188.361575 165.558314 
L 188.618948 165.51885 
L 189.331674 165.597957 
L 189.796925 165.598056 
L 190.004804 165.611846 
L 191.123387 165.611613 
L 191.588639 165.61421 
L 191.796517 165.644809 
L 192.093486 165.627266 
L 194.55833 165.752329 
L 195.389843 165.653316 
L 195.676914 165.622583 
L 196.854891 165.523722 
L 197.062769 165.535542 
L 197.330042 165.583755 
L 198.300141 165.728438 
L 198.795089 165.59493 
L 198.913877 164.606597 
L 199.161351 163.171266 
L 199.596906 162.156633 
L 200.091854 161.293452 
L 200.745186 160.388917 
L 202.032052 158.987078 
L 202.358718 158.703747 
L 202.695283 158.483504 
L 203.992049 157.645249 
L 207.892243 155.794719 
L 208.149616 155.69306 
L 208.49608 155.574534 
L 209.149412 155.446498 
L 209.436482 155.37224 
L 210.089814 155.314083 
L 210.495672 155.202958 
L 210.951025 155.120404 
L 211.386579 154.969475 
L 211.723144 154.888555 
L 212.04981 154.758952 
L 212.33688 154.688061 
L 212.614052 154.707834 
L 212.802132 154.681565 
L 213.732635 154.185701 
L 213.950413 154.099448 
L 215.138289 153.892664 
L 215.554046 153.85234 
L 215.811419 153.882482 
L 216.365761 153.841053 
L 216.672629 153.813638 
L 218.820706 153.751621 
L 219.285958 153.700453 
L 219.701714 153.7204 
L 223.403929 153.641629 
L 223.760292 153.677314 
L 225.393622 153.591778 
L 225.660894 153.587439 
L 225.98756 153.58889 
L 226.403317 153.63237 
L 227.541699 153.708674 
L 227.848567 153.72713 
L 228.175233 153.645507 
L 228.432606 153.672367 
L 228.590989 153.717145 
L 228.887959 153.731688 
L 229.184928 153.694951 
L 229.778866 153.630082 
L 230.283713 153.585245 
L 230.580682 153.636744 
L 230.976641 153.65443 
L 231.392398 153.618517 
L 232.629769 153.610757 
L 232.916839 153.592163 
L 233.985928 153.537243 
L 234.381887 153.495496 
L 235.094613 153.430385 
L 236.619054 153.451868 
L 236.85663 153.422814 
L 237.193195 153.414571 
L 237.658446 153.421278 
L 238.311778 153.387304 
L 238.826525 153.513025 
L 239.479857 153.455794 
L 240.440057 153.611492 
L 242.746517 153.772656 
L 242.993991 153.78517 
L 245.359845 153.275973 
L 245.765703 153.288107 
L 246.032975 153.288214 
L 246.46853 153.324002 
L 247.527719 153.373558 
L 248.032567 153.455105 
L 248.309738 153.471465 
L 248.359233 153.476995 
L 248.359233 153.476995 
" clip-path="url(#paedc8d1ad6)" style="fill: none; stroke: #000000; stroke-opacity: 0.5; stroke-width: 1.5; stroke-linecap: square"/>
   </g>
   <g id="line2d_13">
    <path d="M 45.450142 154.691943 
L 46.113373 154.82156 
L 46.52913 154.727198 
L 46.895392 154.730592 
L 49.013771 154.735132 
L 50.350132 154.541059 
L 50.864879 154.938093 
L 51.478615 155.188246 
L 52.993157 155.816439 
L 53.666287 156.054418 
L 54.002852 156.212098 
L 54.22063 156.252834 
L 54.438407 156.269794 
L 54.765073 156.328287 
L 55.121436 156.404806 
L 55.418405 156.511999 
L 55.85396 156.640008 
L 56.180626 156.632254 
L 56.942846 156.723897 
L 57.28931 156.758561 
L 57.754562 156.867823 
L 58.16042 156.932822 
L 58.863247 156.983949 
L 59.199812 157.028799 
L 59.645265 157.015546 
L 60.704455 157.085913 
L 61.169707 157.115245 
L 61.397383 157.146748 
L 63.357379 157.235736 
L 63.951317 157.298863 
L 64.268084 157.299535 
L 64.931315 157.380974 
L 65.129295 157.362393 
L 65.535153 157.299132 
L 66.604241 157.40457 
L 66.960604 157.413037 
L 67.19818 157.367927 
L 67.792118 157.437578 
L 68.148481 157.443322 
L 68.821611 157.478501 
L 69.059186 157.450123 
L 69.771912 157.53082 
L 72.266452 157.558078 
L 72.830694 157.56102 
L 73.068269 157.60403 
L 75.305436 157.64352 
L 75.998364 157.612738 
L 78.067249 157.584889 
L 78.5325 157.637444 
L 78.770076 157.626511 
L 79.433307 157.634395 
L 80.452901 157.6667 
L 80.908253 157.591614 
L 81.185424 157.65869 
L 81.442798 157.682026 
L 81.818959 157.643278 
L 82.076332 157.67021 
L 82.699967 157.664466 
L 83.521581 157.550717 
L 83.937338 157.431784 
L 84.867841 157.338846 
L 85.036124 157.357065 
L 86.214101 157.400899 
L 86.481373 157.432052 
L 87.530664 157.501188 
L 87.966219 157.54534 
L 88.352279 157.51702 
L 89.698539 157.600801 
L 95.004387 157.689548 
L 95.350851 157.712642 
L 95.598325 157.715665 
L 96.548626 157.570794 
L 96.825797 157.608337 
L 97.18216 157.467643 
L 97.330645 157.498891 
L 97.558321 157.473258 
L 97.766199 157.511468 
L 98.488824 157.539685 
L 98.785793 157.581307 
L 99.023369 157.590176 
L 101.339728 157.461245 
L 101.50801 157.504627 
L 102.08215 157.573229 
L 102.398918 157.577035 
L 103.012654 157.632622 
L 105.428002 157.632963 
L 105.764567 157.666888 
L 106.03184 157.677392 
L 107.427594 157.711492 
L 107.734462 157.705429 
L 108.833248 157.696045 
L 109.130217 157.734434 
L 109.357894 157.693752 
L 109.724155 157.673214 
L 109.941933 157.646986 
L 110.100316 157.679854 
L 110.466578 157.687144 
L 110.624962 157.602037 
L 111.040719 157.299517 
L 114.782529 157.406786 
L 115.227983 157.39043 
L 115.515053 157.400715 
L 116.019901 157.406692 
L 116.21788 157.397729 
L 116.683132 157.4415 
L 117.039494 157.48532 
L 117.455251 157.420496 
L 117.702725 157.423975 
L 118.108583 157.424356 
L 118.643128 157.472054 
L 118.81141 157.463408 
L 123.919279 157.665249 
L 124.09746 157.684462 
L 126.700889 157.648141 
L 127.215636 157.654257 
L 129.29442 157.624039 
L 129.591389 157.601491 
L 130.066539 157.568927 
L 130.353609 157.503239 
L 130.997042 157.541126 
L 131.50189 157.529476 
L 131.739465 157.528406 
L 132.036434 157.516554 
L 132.293808 157.431045 
L 134.085521 157.413874 
L 134.234006 157.381117 
L 134.422086 157.36332 
L 134.986327 157.488951 
L 135.590165 157.491763 
L 135.807942 157.527412 
L 136.134608 157.624079 
L 136.659253 157.604536 
L 136.916627 157.63628 
L 137.263091 157.577371 
L 137.688746 157.661645 
L 138.42127 157.649623 
L 138.738037 157.623309 
L 138.916219 157.647635 
L 139.371571 157.757085 
L 140.777225 157.533036 
L 141.004901 157.527197 
L 141.341466 157.520101 
L 141.628536 157.45799 
L 141.777021 157.505849 
L 142.004697 157.530354 
L 142.766918 157.510658 
L 143.143079 157.603586 
L 143.400452 157.568045 
L 143.667724 157.558387 
L 145.004085 157.633383 
L 145.330751 157.577667 
L 146.597819 157.634892 
L 146.904687 157.608319 
L 150.884074 157.573932 
L 151.022659 157.61037 
L 151.260234 157.594887 
L 151.458214 157.667627 
L 153.873563 157.636876 
L 154.09134 157.671809 
L 154.37841 157.719882 
L 155.279216 157.711501 
L 155.962245 157.706307 
L 156.358204 157.754135 
L 157.249111 157.790343 
L 157.437192 157.790872 
L 158.783452 157.727866 
L 159.753551 157.760076 
L 160.179207 157.768055 
L 160.981023 157.78163 
L 161.307689 157.828294 
L 161.535365 157.817606 
L 162.198596 157.825948 
L 162.970716 157.761469 
L 163.198392 157.767047 
L 163.693341 157.817718 
L 163.881421 157.807863 
L 166.286871 157.774363 
L 166.544244 157.812905 
L 166.87091 157.764621 
L 167.197576 157.762248 
L 167.633131 157.724557 
L 168.118181 157.809489 
L 169.929692 157.478622 
L 170.226661 157.462356 
L 170.503832 157.428157 
L 170.978983 157.367157 
L 171.275952 157.391259 
L 171.770901 157.365259 
L 172.117365 157.419632 
L 172.572717 157.413534 
L 173.275544 157.4669 
L 174.314936 157.249831 
L 174.671299 157.291654 
L 174.938571 157.330554 
L 175.126652 157.333576 
L 175.918569 157.25177 
L 176.433316 157.288386 
L 176.700588 157.293611 
L 177.225233 157.369884 
L 177.670687 157.444226 
L 177.947858 157.487917 
L 179.026846 157.518659 
L 179.195128 157.483077 
L 179.591087 157.480767 
L 180.076137 157.4923 
L 180.363207 157.569674 
L 180.679974 157.587011 
L 181.165023 157.641111 
L 181.739164 157.535995 
L 182.877545 157.458612 
L 183.659564 157.475089 
L 183.966432 157.424114 
L 184.65936 157.550717 
L 184.986026 157.603595 
L 185.154308 157.556882 
L 185.352288 157.542506 
L 185.589863 157.5303 
L 185.857135 157.567404 
L 186.213498 157.57121 
L 186.540164 157.561946 
L 186.906426 157.568466 
L 188.450665 157.579601 
L 188.668443 157.547704 
L 188.995109 157.549002 
L 189.529653 157.587347 
L 189.84642 157.56487 
L 190.281975 157.703517 
L 190.687833 157.656733 
L 191.083791 157.671567 
L 194.568229 157.656988 
L 194.815703 157.610938 
L 195.112672 157.558647 
L 195.409641 157.606967 
L 195.894691 157.626631 
L 196.112468 157.597049 
L 196.528225 157.613562 
L 196.973679 157.628664 
L 197.320143 157.61268 
L 198.379332 157.639782 
L 198.646605 157.657924 
L 198.814887 157.580317 
L 199.45832 156.968923 
L 200.002764 156.724931 
L 200.646197 156.482865 
L 201.101549 156.41998 
L 201.665791 156.232587 
L 203.952453 155.711977 
L 204.190028 155.686232 
L 204.991845 155.579831 
L 205.318511 155.56814 
L 206.140125 155.440552 
L 206.644973 155.41756 
L 207.219113 155.344238 
L 209.010826 155.271754 
L 209.753249 155.166736 
L 210.456076 155.174625 
L 210.713449 155.232424 
L 212.010214 154.960941 
L 212.218093 155.001269 
L 213.415868 154.723455 
L 214.316674 154.716923 
L 214.603745 154.745833 
L 214.979905 154.855982 
L 215.207582 154.792962 
L 215.445157 154.783918 
L 215.712429 154.758169 
L 215.90051 154.786618 
L 216.732023 154.74064 
L 218.018889 154.77606 
L 218.256465 154.763985 
L 218.652423 154.759955 
L 219.256261 154.753843 
L 219.513634 154.746823 
L 221.275651 154.749997 
L 221.562721 154.804984 
L 224.799684 154.70092 
L 225.888571 154.744396 
L 226.215237 154.734461 
L 226.532004 154.716153 
L 229.046342 154.700518 
L 229.224524 154.695691 
L 229.828361 154.787339 
L 230.155027 154.765749 
L 233.372192 154.722255 
L 233.659262 154.730015 
L 233.886939 154.702179 
L 234.748149 154.748068 
L 235.104512 154.790406 
L 235.480673 154.776651 
L 235.767743 154.769183 
L 238.846323 154.543947 
L 239.430362 154.644729 
L 239.697634 154.609461 
L 239.945108 154.589053 
L 242.301063 154.681547 
L 242.776214 154.685608 
L 243.191971 154.739359 
L 243.934393 154.762883 
L 244.360049 154.76972 
L 244.785705 154.741365 
L 245.864692 154.533721 
L 246.339843 154.383034 
L 246.834792 154.315425 
L 247.527719 154.362469 
L 247.933577 154.470979 
L 248.359233 154.545752 
L 248.359233 154.545752 
" clip-path="url(#paedc8d1ad6)" style="fill: none; stroke: #000000; stroke-opacity: 0.5; stroke-width: 1.5; stroke-linecap: square"/>
   </g>
   <g id="line2d_14">
    <path d="M 45.450142 154.718736 
L 45.588728 154.709651 
L 46.360847 154.677204 
L 46.875594 154.699824 
L 47.212159 154.695794 
L 48.26145 154.699882 
L 49.162256 154.704055 
L 49.419629 154.700415 
L 49.785891 154.630334 
L 50.231345 154.635985 
L 50.716394 154.716179 
L 50.914374 154.705349 
L 51.706291 154.714899 
L 52.379421 154.770249 
L 53.943458 154.776007 
L 54.646285 154.806319 
L 54.814568 154.831374 
L 55.220426 154.865653 
L 55.903455 154.86645 
L 56.081636 154.894609 
L 56.319211 154.968163 
L 56.626079 154.917913 
L 57.121028 154.989404 
L 57.457593 154.958273 
L 59.397791 154.883061 
L 59.674962 154.843893 
L 60.160012 154.813348 
L 60.486678 154.868281 
L 62.882229 154.27601 
L 63.594954 154.385237 
L 63.882025 154.386741 
L 64.169095 154.414255 
L 64.822427 154.483601 
L 65.396567 154.490585 
L 66.247878 154.501739 
L 66.505252 154.446425 
L 66.831918 154.460958 
L 67.049695 154.528854 
L 69.296761 154.694115 
L 69.573932 154.727915 
L 69.910497 154.692543 
L 71.177566 154.740223 
L 71.504232 154.800762 
L 74.652104 154.844605 
L 74.939174 154.839792 
L 78.007855 154.941218 
L 78.275127 154.979733 
L 78.779975 154.943757 
L 78.948257 154.940206 
L 79.354115 154.991903 
L 79.680781 155.028017 
L 88.282986 155.157213 
L 88.540359 155.110943 
L 88.876924 155.132601 
L 89.480761 155.139876 
L 89.738135 155.1359 
L 90.83692 155.087638 
L 91.599141 154.993143 
L 91.856514 154.986319 
L 92.222776 155.0052 
L 92.559341 154.959549 
L 92.747422 154.973751 
L 93.024593 155.025425 
L 94.529236 155.012772 
L 94.964791 155.02658 
L 95.232063 154.985777 
L 95.697315 154.835377 
L 97.845391 154.94797 
L 98.102764 154.947643 
L 98.568016 154.945194 
L 98.81549 154.939584 
L 99.389631 154.921133 
L 99.607408 154.917797 
L 102.022757 154.979693 
L 102.37912 154.970205 
L 103.319522 154.984206 
L 103.636289 154.922807 
L 104.052046 154.957847 
L 104.655883 154.997817 
L 107.962139 155.009199 
L 108.575875 155.044539 
L 108.853046 155.028586 
L 109.090621 155.060474 
L 109.565772 155.04085 
L 109.724155 155.060134 
L 109.951832 155.130845 
L 110.397285 155.078509 
L 111.634657 155.008464 
L 111.832636 155.033359 
L 112.109807 154.957977 
L 113.465966 155.01266 
L 113.634249 155.014133 
L 113.842127 155.050024 
L 114.069803 155.071157 
L 114.901317 155.090907 
L 115.574447 155.054913 
L 115.93081 155.013528 
L 116.475253 154.946202 
L 116.851414 154.908999 
L 117.118686 154.895088 
L 118.346159 155.016318 
L 122.196858 154.837634 
L 122.790796 154.708648 
L 122.959079 154.81342 
L 123.147159 154.809395 
L 123.493623 154.729137 
L 123.889582 154.755567 
L 125.463518 154.771238 
L 125.889174 154.821546 
L 126.21584 154.77521 
L 126.542506 154.833205 
L 126.829576 154.841833 
L 127.5621 154.869777 
L 128.076846 154.893789 
L 128.363916 154.849194 
L 128.660885 154.873887 
L 129.126137 154.933678 
L 129.363712 154.907521 
L 129.720075 154.876905 
L 130.165529 154.835963 
L 132.491787 154.906326 
L 132.966937 154.960789 
L 133.23421 154.927365 
L 133.550977 154.983682 
L 134.95663 154.993201 
L 135.273398 154.997159 
L 140.381266 154.930387 
L 140.618841 154.892003 
L 141.084093 154.882515 
L 141.529547 154.911193 
L 141.697829 154.918133 
L 142.083889 154.866347 
L 142.776817 154.949215 
L 143.024291 154.858856 
L 143.212372 154.874518 
L 144.509137 154.860379 
L 145.944487 154.929761 
L 146.320648 154.967765 
L 147.013576 155.001793 
L 147.508525 154.985361 
L 147.894585 155.018839 
L 161.337386 155.067114 
L 161.852132 155.066693 
L 162.139203 155.107626 
L 162.446071 155.132014 
L 163.41617 155.211828 
L 163.624048 155.170847 
L 163.980411 155.090468 
L 166.098791 155.054501 
L 169.593127 154.972166 
L 169.820803 154.973183 
L 170.088076 154.955846 
L 170.325651 154.96901 
L 171.909486 155.003051 
L 172.087668 155.026276 
L 172.513323 155.07469 
L 173.275544 155.052043 
L 173.60221 155.027601 
L 176.532305 155.082534 
L 177.165839 155.139952 
L 177.482606 155.151746 
L 178.036949 155.114655 
L 178.591291 155.177925 
L 180.769065 155.148477 
L 181.066034 155.125293 
L 181.620376 155.17039 
L 182.422193 155.113433 
L 182.63997 155.128213 
L 183.055727 155.210172 
L 183.362595 155.172364 
L 183.619968 155.240224 
L 183.877341 155.171375 
L 184.105017 155.191577 
L 185.144409 155.190426 
L 185.401783 155.259239 
L 185.61956 155.185577 
L 186.599558 155.197174 
L 187.005416 155.231565 
L 188.232888 155.212616 
L 189.242583 155.165227 
L 189.529653 155.122047 
L 190.024602 155.076861 
L 190.192884 155.084303 
L 191.994497 155.140132 
L 192.360759 155.188819 
L 195.063177 155.112989 
L 195.627419 155.104308 
L 196.260953 155.075205 
L 196.67671 155.1168 
L 197.547819 155.074 
L 197.884384 155.042412 
L 198.993069 154.989194 
L 199.478118 154.991674 
L 199.755289 154.995999 
L 200.250238 154.956352 
L 200.537308 154.949027 
L 200.774883 154.967353 
L 202.269628 154.85874 
L 202.517102 154.826028 
L 203.081343 154.808665 
L 203.378312 154.858109 
L 203.635686 154.819688 
L 204.477098 154.815 
L 205.150228 154.832091 
L 206.357902 154.623726 
L 209.07022 154.751081 
L 209.386987 154.756713 
L 209.862138 154.787343 
L 210.406581 154.771032 
L 210.70355 154.745466 
L 210.951025 154.744902 
L 211.643953 154.796289 
L 215.306571 154.605561 
L 215.950005 154.631695 
L 216.246974 154.692964 
L 216.66273 154.69377 
L 217.058689 154.711971 
L 217.504143 154.770222 
L 218.088182 154.717832 
L 219.681916 154.731635 
L 220.404541 154.767428 
L 220.622318 154.773983 
L 220.879692 154.698485 
L 221.08757 154.715293 
L 221.602317 154.80973 
L 225.848975 154.894062 
L 226.294428 154.841301 
L 227.81887 154.850775 
L 228.056445 154.873538 
L 229.105736 154.772666 
L 229.412604 154.823221 
L 229.848159 154.717921 
L 230.145128 154.687703 
L 230.966742 154.7313 
L 231.243913 154.767647 
L 231.75866 154.733906 
L 231.986336 154.764021 
L 232.461487 154.799222 
L 234.035423 154.774462 
L 234.282897 154.751193 
L 236.460671 154.793379 
L 236.638852 154.780945 
L 237.361477 154.760806 
L 237.579254 154.822509 
L 237.945516 154.878803 
L 238.430566 154.837405 
L 238.905716 154.864982 
L 245.389542 154.857728 
L 245.627117 154.80318 
L 245.854793 154.860974 
L 246.052773 154.851151 
L 246.46853 154.823091 
L 247.250548 154.877348 
L 248.022668 154.819187 
L 248.280041 154.847282 
L 248.359233 154.807792 
L 248.359233 154.807792 
" clip-path="url(#paedc8d1ad6)" style="fill: none; stroke: #000000; stroke-opacity: 0.5; stroke-width: 1.5; stroke-linecap: square"/>
   </g>
   <g id="line2d_15">
    <path d="M 45.450142 155.917239 
L 46.24206 155.851949 
L 48.172359 155.815548 
L 48.370338 155.839256 
L 48.687105 155.868941 
L 50.003668 155.863644 
L 50.340233 155.592851 
L 50.874778 153.258193 
L 51.587504 152.034702 
L 53.003056 150.325524 
L 53.844469 149.619164 
L 55.75497 148.089428 
L 56.447898 147.724246 
L 56.962644 147.477984 
L 57.20022 147.29771 
L 57.576381 147.12726 
L 58.150521 146.872447 
L 58.605873 146.579906 
L 60.090719 145.890829 
L 60.65496 145.700441 
L 61.219202 145.47019 
L 64.555155 144.581117 
L 64.822427 144.511641 
L 65.139194 144.452915 
L 65.406466 144.41753 
L 66.960604 144.156936 
L 68.188077 143.860031 
L 68.603833 143.852074 
L 68.930499 143.811146 
L 69.771912 143.729483 
L 74.859982 143.187618 
L 75.107457 143.20423 
L 81.858554 142.673272 
L 82.066433 142.67552 
L 83.046431 142.670178 
L 83.382996 142.66455 
L 83.976934 142.66412 
L 86.550666 142.613539 
L 87.035716 142.612532 
L 87.372281 142.525907 
L 87.550462 142.592097 
L 87.966219 142.549964 
L 88.253289 142.584288 
L 88.688844 142.548366 
L 89.144196 142.487849 
L 89.856922 142.580867 
L 90.153891 142.541533 
L 91.163586 142.540387 
L 91.391263 142.554934 
L 91.678333 142.585909 
L 92.361362 142.546629 
L 92.589038 142.537486 
L 92.945401 142.502531 
L 93.578935 142.564467 
L 93.925399 142.523745 
L 94.222368 142.488207 
L 94.737115 142.527824 
L 95.093478 142.555113 
L 96.687212 142.41339 
L 97.023777 142.399958 
L 97.241554 142.384399 
L 99.528216 142.429849 
L 99.765791 142.40988 
L 100.033064 142.435276 
L 102.765179 142.366673 
L 103.081946 142.42598 
L 103.388815 142.44072 
L 103.863965 142.268868 
L 104.378712 142.276032 
L 105.299316 142.25485 
L 105.536891 142.200261 
L 105.823961 142.213183 
L 106.576283 142.212435 
L 106.79406 142.239076 
L 107.348403 142.31512 
L 107.793856 142.192143 
L 108.199714 142.291837 
L 108.674865 142.294031 
L 108.862945 142.361936 
L 109.070823 142.326452 
L 109.704358 142.300264 
L 110.011226 142.384497 
L 110.902133 142.438083 
L 111.298092 142.497543 
L 111.664354 142.484478 
L 112.248393 142.511665 
L 112.545362 142.486994 
L 113.1393 142.478868 
L 114.317278 142.481182 
L 116.702929 142.331453 
L 117.019697 142.242595 
L 117.376059 142.236004 
L 117.762119 142.191678 
L 118.167977 142.262658 
L 118.722319 142.243956 
L 119.029187 142.30805 
L 119.642924 142.339804 
L 120.870396 142.065446 
L 121.771202 142.061797 
L 121.969182 142.094178 
L 122.345342 142.104668 
L 124.760691 142.215001 
L 125.05766 142.240002 
L 125.54271 142.207891 
L 125.869376 142.123608 
L 129.710176 142.265792 
L 130.076438 142.170074 
L 130.54169 142.200006 
L 130.808962 142.214857 
L 131.323708 142.189197 
L 131.719667 142.193102 
L 133.442088 142.208961 
L 134.055824 142.201631 
L 138.579654 142.327545 
L 138.787532 142.317833 
L 139.133996 142.307817 
L 140.282276 142.438831 
L 140.519852 142.478478 
L 140.737629 142.486775 
L 141.460254 142.454891 
L 142.450151 142.489546 
L 142.638231 142.490079 
L 142.905504 142.517884 
L 143.499442 142.486649 
L 143.717219 142.542039 
L 144.113178 142.578441 
L 144.845702 142.565478 
L 145.479236 142.539586 
L 145.746508 142.576282 
L 146.548325 142.5102 
L 147.013576 142.542639 
L 149.676399 142.601266 
L 149.943671 142.600049 
L 150.141651 142.572163 
L 151.062255 142.590337 
L 151.873971 142.620403 
L 152.17094 142.614287 
L 152.665888 142.57318 
L 153.051948 142.496038 
L 157.84305 142.607821 
L 158.080625 142.595858 
L 158.407291 142.554876 
L 158.694361 142.590194 
L 158.961633 142.564234 
L 160.020823 142.643032 
L 160.416782 142.5871 
L 162.376778 142.40379 
L 162.634151 142.437868 
L 163.109302 142.41052 
L 163.386473 142.47054 
L 163.594351 142.499388 
L 169.573329 142.425551 
L 169.76141 142.491574 
L 169.899995 142.444262 
L 170.038581 142.495537 
L 170.583024 142.547278 
L 171.315548 142.522249 
L 171.493729 142.533931 
L 171.919385 142.565626 
L 172.315344 142.597622 
L 172.968676 142.599032 
L 173.740796 142.668436 
L 181.00664 142.703875 
L 181.382801 142.387564 
L 183.02603 142.352399 
L 183.471483 142.355931 
L 184.075321 142.421987 
L 184.312896 142.396053 
L 185.154308 142.465449 
L 185.570065 142.547166 
L 185.956125 142.555955 
L 187.500364 142.427973 
L 187.807232 142.39291 
L 188.589251 142.370452 
L 189.529653 142.359957 
L 189.826622 142.389015 
L 190.192884 142.346681 
L 190.410661 142.36404 
L 191.39066 142.412924 
L 191.9648 142.407171 
L 192.340961 142.543862 
L 195.597722 142.659647 
L 195.756105 142.586334 
L 196.053074 142.623886 
L 196.686609 142.674485 
L 196.86479 142.68593 
L 197.310244 142.658613 
L 197.528021 142.640184 
L 197.864586 142.690013 
L 198.715897 142.566701 
L 198.814887 142.718077 
L 199.527613 145.191611 
L 200.220541 146.202636 
L 202.517102 148.942928 
L 202.764576 149.167708 
L 203.526797 149.86535 
L 204.150432 150.334954 
L 206.644973 152.118237 
L 206.823154 152.206625 
L 209.565169 153.530446 
L 209.891835 153.656736 
L 210.574864 153.899174 
L 211.129206 154.019083 
L 211.564761 154.1451 
L 212.020113 154.34922 
L 214.534452 154.954722 
L 215.455056 155.158256 
L 215.712429 155.166924 
L 216.217277 155.25182 
L 216.672629 155.286955 
L 217.415052 155.385068 
L 217.910001 155.42797 
L 218.899898 155.560408 
L 219.543331 155.542288 
L 220.077875 155.651997 
L 220.384743 155.618565 
L 221.047974 155.664176 
L 221.889387 155.796582 
L 222.612011 155.783176 
L 222.869385 155.873602 
L 223.948372 155.852625 
L 224.176049 155.897408 
L 225.967762 155.963549 
L 226.225136 155.969338 
L 226.532004 155.935717 
L 227.403113 156.0053 
L 228.402909 155.928114 
L 228.630585 155.918573 
L 231.016237 156.09137 
L 231.313206 156.092462 
L 233.085122 156.024088 
L 233.372192 156.073017 
L 233.550374 156.072197 
L 236.975417 156.162278 
L 237.311982 156.125125 
L 237.608951 156.181048 
L 237.90592 156.21007 
L 238.341475 156.165569 
L 238.648343 156.174573 
L 240.301471 156.193154 
L 240.588541 156.192026 
L 240.88551 156.180394 
L 242.746517 156.13969 
L 243.855202 156.160693 
L 244.577826 156.115033 
L 245.043078 156.183022 
L 245.330148 156.013767 
L 245.666713 156.014188 
L 247.458427 156.166693 
L 247.765295 156.152473 
L 248.359233 156.116788 
L 248.359233 156.116788 
" clip-path="url(#paedc8d1ad6)" style="fill: none; stroke: #000000; stroke-opacity: 0.5; stroke-width: 1.5; stroke-linecap: square"/>
   </g>
   <g id="line2d_16">
    <path d="M 45.450142 156.219835 
L 47.043876 156.352429 
L 47.291351 156.357493 
L 50.300637 156.218335 
L 50.399627 155.369196 
L 50.657 153.452356 
L 51.072757 152.311629 
L 52.042856 150.26747 
L 52.67639 149.148741 
L 55.111537 145.678282 
L 55.527294 145.258302 
L 56.24002 144.519225 
L 58.051531 142.920129 
L 58.407894 142.649913 
L 58.675166 142.447696 
L 59.328498 141.880283 
L 63.654348 139.395579 
L 63.941418 139.247627 
L 64.604649 138.898788 
L 65.0798 138.706631 
L 67.227876 137.65779 
L 69.296761 137.059188 
L 69.564033 136.966864 
L 70.771708 136.375439 
L 71.068677 136.357489 
L 71.405242 136.29875 
L 71.910089 136.114769 
L 72.791098 135.979534 
L 73.088067 135.939891 
L 73.523621 135.893048 
L 74.20665 135.704012 
L 74.50362 135.684486 
L 75.681597 135.478897 
L 75.889475 135.464596 
L 76.255737 135.435923 
L 76.978362 135.295977 
L 77.255533 135.254709 
L 77.5723 135.229524 
L 77.85937 135.244747 
L 78.186036 135.122603 
L 79.660983 134.936142 
L 83.165218 134.62271 
L 84.036328 134.280923 
L 84.254105 134.263985 
L 84.778751 134.1945 
L 85.065821 134.110271 
L 85.352891 134.123981 
L 87.441574 133.794775 
L 88.015714 133.718964 
L 88.203794 133.79807 
L 101.607 134.089254 
L 101.89407 134.122911 
L 102.18114 134.068904 
L 102.497907 134.165576 
L 102.784977 134.104992 
L 103.121542 134.077975 
L 103.566996 134.176353 
L 104.29952 134.194339 
L 104.58659 134.197701 
L 105.814062 134.237729 
L 106.101132 134.200289 
L 106.398101 134.280533 
L 106.89305 134.244096 
L 107.140524 134.206826 
L 107.615675 134.232137 
L 108.952036 134.22787 
L 109.219308 134.331714 
L 109.724155 134.381821 
L 110.199306 134.323651 
L 111.050617 134.394411 
L 111.436677 134.341059 
L 113.951016 134.325482 
L 114.29748 134.286667 
L 114.515257 134.270419 
L 115.435861 134.247929 
L 115.73283 134.285472 
L 116.722727 134.275809 
L 116.99 134.277762 
L 117.811614 134.342187 
L 118.742117 134.330183 
L 119.573631 134.335117 
L 119.8706 134.347976 
L 120.939689 134.382999 
L 121.147567 134.376448 
L 122.038474 134.414416 
L 122.256252 134.476218 
L 122.968978 134.543599 
L 123.176856 134.552558 
L 123.325341 134.574811 
L 123.513421 134.609613 
L 124.137056 134.567656 
L 124.552813 134.654365 
L 125.245741 134.63847 
L 125.572407 134.693269 
L 126.641496 134.656863 
L 126.978061 134.663409 
L 127.255232 134.743456 
L 127.5621 134.74925 
L 128.255028 134.748552 
L 128.690582 134.663844 
L 128.918259 134.649247 
L 129.304319 134.631633 
L 129.492399 134.637454 
L 130.116034 134.637535 
L 130.4427 134.65411 
L 131.393001 134.695069 
L 131.838455 134.69031 
L 132.283909 134.711412 
L 132.570979 134.705022 
L 133.03623 134.66105 
L 133.818249 134.71408 
L 134.699257 134.807174 
L 135.025923 134.83647 
L 135.263499 134.889675 
L 135.570367 134.962428 
L 135.807942 134.940091 
L 136.50087 135.032115 
L 137.965917 134.946422 
L 138.32228 134.956053 
L 138.688542 134.939844 
L 139.015208 134.966928 
L 139.609146 134.99446 
L 140.173388 134.856202 
L 141.420658 134.888874 
L 141.697829 134.895975 
L 142.618433 135.017299 
L 142.875807 134.958157 
L 143.360856 134.972883 
L 143.529139 135.017908 
L 143.895401 135.093496 
L 144.132976 135.063967 
L 144.449743 135.020088 
L 144.825904 135.085799 
L 145.350549 135.081093 
L 145.72671 135.083789 
L 148.300442 135.107967 
L 148.547917 135.121197 
L 148.904279 135.101819 
L 149.201249 135.152902 
L 149.775389 135.116563 
L 150.161449 135.139147 
L 151.834375 135.143423 
L 152.07195 135.147578 
L 152.299626 135.112386 
L 152.863868 134.999716 
L 153.160837 135.009061 
L 153.546896 134.958941 
L 156.486891 135.119903 
L 156.764062 135.079302 
L 157.84305 134.979156 
L 158.298402 134.750016 
L 158.694361 134.715607 
L 159.347693 134.627814 
L 159.921833 134.525443 
L 160.505873 134.479997 
L 160.783044 134.49154 
L 161.099811 134.442709 
L 161.941223 134.350488 
L 162.416374 134.226751 
L 162.64405 134.30206 
L 163.574553 134.235974 
L 163.772533 134.202434 
L 164.148694 134.283081 
L 164.940611 134.251743 
L 165.415762 134.256095 
L 166.128488 134.224252 
L 166.49475 134.141572 
L 167.336162 134.239475 
L 168.147878 134.215445 
L 168.741816 134.29684 
L 169.76141 134.281487 
L 170.058379 134.292886 
L 171.632315 134.286269 
L 172.018375 134.213238 
L 172.305445 134.254363 
L 176.5818 134.368948 
L 177.047052 134.405108 
L 177.373718 134.41122 
L 178.898159 134.362286 
L 179.224825 134.263273 
L 179.699976 134.261191 
L 180.125631 134.250575 
L 180.660176 134.299455 
L 180.957145 134.335735 
L 181.521386 134.332565 
L 181.897547 134.393355 
L 182.402395 134.405977 
L 182.778555 134.437009 
L 183.174514 134.41524 
L 184.223805 134.501126 
L 184.500976 134.557411 
L 184.698956 134.554443 
L 184.887036 134.599539 
L 185.292894 134.63106 
L 185.797741 134.635067 
L 188.381373 134.665939 
L 188.569453 134.711949 
L 189.569249 134.774095 
L 190.004804 134.744947 
L 190.598742 134.791481 
L 190.935307 134.809776 
L 191.311468 134.763036 
L 191.67773 134.8402 
L 192.370658 134.853628 
L 192.588435 134.870225 
L 192.895303 134.854133 
L 193.707019 134.894829 
L 193.934695 134.932519 
L 194.716714 135.011331 
L 195.478934 134.793527 
L 195.835297 134.773661 
L 198.78519 134.691286 
L 198.88418 135.518321 
L 199.151452 137.404002 
L 199.864178 139.404789 
L 201.883568 143.596468 
L 204.912653 148.000829 
L 206.338105 149.652794 
L 208.357494 151.429876 
L 210.03042 152.159483 
L 210.634258 152.335154 
L 211.158903 152.593831 
L 211.455872 152.762074 
L 212.158699 152.898205 
L 213.990008 153.58306 
L 214.425563 153.558121 
L 214.930411 153.684164 
L 215.435258 153.9136 
L 215.672833 154.002598 
L 216.484549 154.339961 
L 216.652831 154.400361 
L 216.9597 154.517956 
L 217.43485 154.679048 
L 217.880304 154.830797 
L 219.177069 155.184512 
L 219.45424 155.258863 
L 219.672017 155.175208 
L 220.147168 155.219977 
L 220.780702 155.405754 
L 227.254629 156.359212 
L 227.749577 156.358433 
L 228.254425 156.396988 
L 228.412808 156.41522 
L 228.858262 156.506322 
L 229.333412 156.522696 
L 229.689775 156.545414 
L 230.966742 156.647522 
L 231.333004 156.646125 
L 231.580478 156.596381 
L 231.847751 156.643913 
L 232.065528 156.633037 
L 232.471386 156.636503 
L 232.669365 156.646671 
L 233.194011 156.757281 
L 233.431586 156.768143 
L 233.916635 156.762752 
L 234.144312 156.750757 
L 234.876836 156.832353 
L 235.282693 156.738113 
L 235.639056 156.722608 
L 236.510166 156.67418 
L 236.648751 156.727837 
L 236.94572 156.779435 
L 237.282285 156.756161 
L 237.519861 156.799861 
L 238.00491 156.872977 
L 238.767131 156.76144 
L 239.489756 156.709171 
L 240.50935 156.690617 
L 241.281469 156.653539 
L 242.607931 156.74096 
L 242.845507 156.794976 
L 246.458631 156.82052 
L 247.527719 156.834149 
L 247.90388 156.913873 
L 248.181051 156.868047 
L 248.359233 156.920755 
L 248.359233 156.920755 
" clip-path="url(#paedc8d1ad6)" style="fill: none; stroke: #000000; stroke-opacity: 0.5; stroke-width: 1.5; stroke-linecap: square"/>
   </g>
   <g id="line2d_17">
    <path d="M 45.450142 157.713762 
L 45.836202 157.607379 
L 46.083676 157.594282 
L 46.509332 157.839783 
L 46.826099 157.864131 
L 47.10327 157.772026 
L 47.281452 157.679666 
L 47.58832 157.508038 
L 47.756602 157.662196 
L 47.984278 157.811293 
L 48.786095 157.841596 
L 49.350336 157.682505 
L 49.825487 157.958577 
L 50.201648 157.682778 
L 50.290738 157.465839 
L 50.379829 156.209631 
L 50.676798 151.850725 
L 51.102454 150.014519 
L 52.824875 143.968232 
L 53.794974 141.041365 
L 54.210731 140.052378 
L 54.873962 138.510481 
L 55.695576 136.554356 
L 56.824059 134.266308 
L 57.378401 133.025387 
L 57.87335 132.285952 
L 58.843449 130.10178 
L 59.387892 129.376875 
L 60.328294 127.314219 
L 60.823243 126.706103 
L 61.021222 126.352262 
L 63.367278 121.199848 
L 63.693944 120.407771 
L 63.941418 119.907024 
L 64.297781 118.696005 
L 64.951113 115.782679 
L 65.030305 114.227291 
L 65.099598 106.65967 
L 65.208487 59.683479 
L 65.356971 14.76 
L 65.386668 16.125009 
L 65.614344 42.347249 
L 66.099394 90.690731 
L 66.475555 108.422031 
L 66.831918 115.764312 
L 67.089291 117.538247 
L 67.406058 118.172511 
L 67.584239 118.064351 
L 67.841613 117.673787 
L 68.376157 116.938624 
L 69.098782 116.713164 
L 69.474943 116.421725 
L 69.663023 116.279182 
L 70.019386 115.880147 
L 70.118376 115.944105 
L 70.415345 116.189462 
L 71.03898 115.942744 
L 71.187465 115.926999 
L 71.543827 115.649988 
L 71.563625 115.670652 
L 71.771504 115.762785 
L 71.979382 115.783905 
L 72.177362 115.774933 
L 72.939582 114.993209 
L 73.097966 115.133121 
L 73.315743 115.198185 
L 73.642409 115.113895 
L 73.790894 115.085847 
L 74.01857 114.779939 
L 74.681801 113.950399 
L 75.493517 113.63557 
L 75.859778 113.062427 
L 76.334929 112.823524 
L 76.730888 112.27576 
L 76.928867 112.154995 
L 77.087251 111.985147 
L 77.493109 111.554739 
L 77.938562 111.197934 
L 78.215733 110.686991 
L 78.453309 109.790561 
L 78.819571 108.70976 
L 79.255125 107.485696 
L 79.433307 105.999408 
L 79.512498 103.499052 
L 79.601589 89.983462 
L 79.839164 25.017323 
L 79.928255 28.540629 
L 81.056738 92.477069 
L 81.640777 111.576929 
L 81.967443 116.515148 
L 82.304008 118.64983 
L 82.719765 119.997255 
L 83.24441 120.363431 
L 83.402794 120.432705 
L 83.571076 120.48054 
L 83.868045 120.47516 
L 84.570872 121.153037 
L 84.97673 121.305609 
L 85.16481 121.315352 
L 85.531072 121.374001 
L 85.976526 121.815465 
L 86.382384 121.790427 
L 86.867433 121.710147 
L 87.075312 121.814502 
L 87.639553 122.298894 
L 87.817734 122.300265 
L 88.025613 122.307012 
L 88.213693 122.3338 
L 88.451269 122.266836 
L 88.678945 122.287701 
L 88.867025 122.457605 
L 89.124399 122.682084 
L 89.946013 122.7947 
L 90.322174 122.672091 
L 91.12399 123.123324 
L 91.945605 123.086385 
L 92.440554 123.392402 
L 92.866209 123.269291 
L 93.509642 123.30936 
L 93.875904 123.508707 
L 94.360954 123.411982 
L 94.68762 123.284662 
L 94.984589 123.230844 
L 95.212265 123.308939 
L 95.469638 123.441833 
L 96.766403 123.203523 
L 97.09307 123.343379 
L 97.370241 123.353825 
L 98.132461 122.945566 
L 98.558117 123.209836 
L 98.746198 123.202359 
L 98.91448 123.202435 
L 99.10256 123.175852 
L 99.934074 122.964971 
L 100.498315 123.192271 
L 101.042759 122.933974 
L 101.488212 122.755433 
L 101.963363 123.047642 
L 102.131645 122.937972 
L 102.537503 122.774041 
L 102.814674 122.557097 
L 103.012654 122.549387 
L 103.656087 122.750965 
L 104.042147 122.569021 
L 104.29952 122.357916 
L 104.497499 122.240088 
L 104.705378 122.303099 
L 104.982549 122.484729 
L 105.25972 122.360011 
L 105.576487 122.22122 
L 105.903153 122.041009 
L 106.190223 121.864125 
L 106.655475 122.082094 
L 107.001939 121.979803 
L 107.18012 121.864407 
L 107.190019 121.870684 
L 107.387999 121.889928 
L 107.813654 121.495567 
L 108.249209 121.654654 
L 108.496683 121.688888 
L 109.090621 121.464575 
L 109.437085 121.215595 
L 109.961731 121.55329 
L 110.35769 121.34137 
L 110.684356 121.17199 
L 111.060516 121.02086 
L 111.743545 121.103794 
L 112.030616 120.988389 
L 112.198898 120.930273 
L 112.683948 120.748161 
L 113.089805 120.921376 
L 113.505562 120.641666 
L 114.188591 120.203397 
L 114.861721 120.35239 
L 115.317074 119.953079 
L 115.505154 119.968548 
L 115.812022 119.768516 
L 116.247577 119.992458 
L 117.069191 119.63258 
L 117.286969 119.473659 
L 117.801715 119.639251 
L 118.03929 119.672133 
L 118.33626 119.474198 
L 118.643128 119.250814 
L 119.068783 119.000668 
L 119.563732 119.178826 
L 120.286357 118.67199 
L 120.573427 118.512008 
L 120.890194 118.616797 
L 121.414839 118.446611 
L 121.98898 118.096241 
L 122.206757 118.023125 
L 122.711604 118.235385 
L 122.998674 118.105838 
L 123.473825 117.882922 
L 123.701501 117.768054 
L 124.186551 117.898221 
L 125.334831 117.27217 
L 126.067355 117.408919 
L 126.552405 117.127691 
L 126.730586 117.050451 
L 127.067151 116.854735 
L 127.07705 116.865436 
L 127.294828 116.965396 
L 127.423514 117.032692 
L 127.621494 117.020258 
L 128.076846 116.778328 
L 128.225331 116.661304 
L 128.542098 116.288247 
L 129.017248 116.411295 
L 129.175632 116.434985 
L 129.373611 116.312279 
L 129.888358 115.851348 
L 130.066539 115.73222 
L 130.294216 115.929139 
L 130.551589 116.097015 
L 130.789164 116.091257 
L 131.274214 115.755774 
L 131.472193 115.708739 
L 131.897849 115.281043 
L 131.967141 115.370204 
L 132.194818 115.493293 
L 132.937241 114.771396 
L 133.3233 114.402579 
L 133.976632 114.590272 
L 134.778449 113.838464 
L 135.016024 113.782984 
L 135.025923 113.799922 
L 135.223903 113.995688 
L 135.243701 113.982739 
L 136.144507 113.419865 
L 136.283092 113.309602 
L 136.570163 112.996698 
L 136.78794 113.058688 
L 136.995818 113.071621 
L 137.154202 112.867192 
L 137.421474 112.658251 
L 137.84713 112.183243 
L 138.1342 111.912564 
L 138.668744 111.769784 
L 139.025107 111.385927 
L 139.520056 110.966296 
L 139.846722 110.149611 
L 140.123893 110.058162 
L 140.282276 109.886413 
L 140.490155 109.14142 
L 140.886114 106.628093 
L 140.965305 102.177287 
L 141.064295 77.389136 
L 141.262274 22.489089 
L 141.30187 23.625257 
L 141.529547 42.000178 
L 142.034394 81.775068 
L 142.440252 96.005862 
L 143.123281 112.864165 
L 143.430149 115.855656 
L 143.727118 117.217944 
L 144.370551 118.50467 
L 144.588328 118.917695 
L 145.291155 120.098924 
L 146.330547 121.118436 
L 146.855193 121.812245 
L 147.063071 121.874736 
L 147.231354 121.913202 
L 147.419434 121.976154 
L 147.666908 122.040808 
L 148.458826 122.932774 
L 149.409127 123.261953 
L 149.706096 123.655812 
L 150.181247 123.829258 
L 151.01276 123.959882 
L 151.359224 124.423365 
L 151.626496 124.595047 
L 152.64609 124.784812 
L 153.022251 125.136898 
L 153.358816 125.005145 
L 153.566694 125.014158 
L 153.784472 125.003211 
L 154.229925 124.880736 
L 154.804066 125.23168 
L 155.259418 125.147563 
L 155.82366 125.178614 
L 156.180023 125.524139 
L 156.447295 125.507121 
L 156.803658 125.406209 
L 157.041233 125.318685 
L 157.249111 125.219336 
L 158.13012 125.616347 
L 158.466685 125.56273 
L 158.644866 125.539645 
L 159.030926 125.595912 
L 159.2784 125.777001 
L 159.575369 125.834912 
L 160.020823 125.720953 
L 160.169308 125.689566 
L 160.426681 125.549302 
L 161.050316 125.924751 
L 161.347285 125.781689 
L 161.614557 125.664314 
L 161.842234 125.557689 
L 162.119405 125.477104 
L 162.871726 125.773352 
L 163.079605 125.661497 
L 163.485463 125.512744 
L 163.683442 125.481989 
L 164.326875 125.675185 
L 164.990106 125.520589 
L 165.287075 125.362814 
L 165.841417 125.583752 
L 167.088688 125.100313 
L 167.425253 125.19766 
L 167.662828 125.028303 
L 168.02909 124.507209 
L 168.573533 124.423934 
L 168.880401 124.55826 
L 169.37535 124.392041 
L 169.652521 124.276815 
L 170.127672 124.046341 
L 170.583024 124.263186 
L 171.087872 124.044084 
L 171.7808 123.828622 
L 172.166859 123.958463 
L 172.473727 123.870992 
L 172.83009 123.739647 
L 172.998373 123.644234 
L 173.21615 123.509365 
L 173.226049 123.517447 
L 173.7012 123.79643 
L 173.928876 123.65313 
L 174.324835 123.474571 
L 174.958369 123.227889 
L 175.195944 123.345465 
L 175.532509 123.32465 
L 175.977963 123.183428 
L 176.126447 123.052737 
L 176.48281 122.860782 
L 176.651093 122.981367 
L 176.908466 123.044136 
L 178.244827 122.615604 
L 178.799169 122.600672 
L 179.155532 122.370421 
L 179.353512 122.312761 
L 179.680178 122.128834 
L 180.4325 122.238987 
L 181.244215 121.844357 
L 181.471891 121.931734 
L 181.689669 122.029704 
L 181.897547 121.957797 
L 182.92704 121.43279 
L 183.293302 121.508252 
L 184.649461 120.8773 
L 185.154308 120.916612 
L 185.540368 120.665947 
L 185.926428 120.537904 
L 186.223397 120.482902 
L 186.550063 120.665741 
L 187.896323 120.113576 
L 188.163595 120.222129 
L 188.292282 120.142084 
L 188.708039 119.841227 
L 189.262381 119.653442 
L 189.866218 119.924775 
L 190.895711 119.360499 
L 191.261973 119.538236 
L 191.558942 119.417807 
L 192.202375 119.033644 
L 192.499344 118.993999 
L 193.004192 119.111461 
L 193.558534 118.625743 
L 193.825806 118.520014 
L 194.053483 118.566863 
L 194.37025 118.786254 
L 194.983986 118.580148 
L 195.201763 118.579749 
L 195.61752 118.305517 
L 196.359943 118.314875 
L 196.934083 118.019776 
L 197.15186 117.938706 
L 197.43893 118.115442 
L 197.607213 118.17117 
L 198.725796 117.850599 
L 198.804988 118.314257 
L 198.98317 121.937478 
L 199.230644 124.158334 
L 200.012663 127.937644 
L 201.744982 134.665277 
L 202.15084 136.228133 
L 202.645789 137.841324 
L 203.744574 140.847431 
L 204.17023 142.073998 
L 205.061137 143.75371 
L 205.219521 144.168694 
L 205.813459 145.676953 
L 207.120123 147.826729 
L 207.516082 148.401158 
L 207.892243 148.838354 
L 208.159515 149.126018 
L 208.308 149.231976 
L 208.585171 149.797414 
L 209.030624 150.538434 
L 209.55527 151.045303 
L 210.208602 151.754779 
L 210.61446 152.297817 
L 211.257893 152.664744 
L 211.47567 152.718809 
L 211.66375 153.013875 
L 212.178497 153.698904 
L 212.455668 153.750336 
L 212.643749 153.814833 
L 213.356474 154.379474 
L 213.68314 154.707869 
L 214.207786 154.881857 
L 214.762128 155.059825 
L 215.356066 155.620378 
L 215.643136 155.65142 
L 215.841116 155.693234 
L 216.18758 155.699386 
L 216.37566 155.750397 
L 216.969598 156.091979 
L 217.712021 156.236285 
L 218.068384 156.291183 
L 218.464343 156.653047 
L 218.761312 156.760831 
L 219.236463 156.547165 
L 219.652219 156.569485 
L 219.949189 156.774129 
L 220.760904 156.728057 
L 220.939086 156.680901 
L 221.146964 156.667997 
L 221.938882 157.17534 
L 222.295244 157.09896 
L 222.879284 157.212991 
L 223.29504 157.471024 
L 224.374028 157.325481 
L 224.819482 157.62566 
L 225.789581 157.517526 
L 225.928167 157.510443 
L 225.938065 157.522227 
L 226.403317 157.9167 
L 226.630993 157.943847 
L 227.086346 157.452572 
L 227.413012 156.96501 
L 227.571396 156.953664 
L 228.234627 157.354311 
L 228.719676 157.378794 
L 228.848363 157.308673 
L 229.105736 157.193666 
L 229.541291 157.696891 
L 229.759068 157.739408 
L 230.719268 157.569213 
L 230.877652 157.719802 
L 231.154823 157.92334 
L 231.461691 157.926537 
L 231.877448 157.824631 
L 232.065528 157.707762 
L 232.253608 157.667022 
L 232.897042 158.055339 
L 233.659262 157.90115 
L 233.837444 157.887731 
L 234.233402 158.134016 
L 234.609563 158.23032 
L 234.748149 158.026235 
L 235.045118 157.73044 
L 235.282693 157.557129 
L 235.540067 157.475425 
L 235.876632 157.697813 
L 237.242689 157.697249 
L 237.777234 157.987627 
L 238.717636 157.810859 
L 239.133393 158.122213 
L 239.420463 158.157182 
L 239.826321 157.989865 
L 240.182684 157.938066 
L 240.331168 157.944984 
L 240.79642 158.242024 
L 241.885306 158.05931 
L 242.33076 158.380044 
L 242.598032 158.343115 
L 243.063284 158.20929 
L 243.320657 158.150143 
L 243.568131 158.109502 
L 243.756212 158.23456 
L 244.092777 158.354604 
L 244.63722 158.183773 
L 244.864896 158.1156 
L 245.072775 158.028183 
L 245.775602 158.280162 
L 246.7556 158.019233 
L 247.121862 158.281336 
L 247.359437 158.304166 
L 247.923678 158.148052 
L 248.131557 157.988889 
L 248.349334 158.017693 
L 248.359233 158.025452 
L 248.359233 158.025452 
" clip-path="url(#paedc8d1ad6)" style="fill: none; stroke: #000000; stroke-opacity: 0.5; stroke-width: 1.5; stroke-linecap: square"/>
   </g>
   <g id="line2d_18">
    <path d="M 45.450142 159.603509 
L 45.786707 159.58088 
L 45.915394 159.483756 
L 46.063878 159.460545 
L 46.746907 159.795339 
L 47.835794 159.631143 
L 48.370338 159.848145 
L 48.518823 159.73964 
L 48.855388 159.653871 
L 49.50872 159.596828 
L 49.855184 159.794694 
L 50.211547 159.711334 
L 50.280839 159.37243 
L 50.360031 157.378816 
L 50.716394 146.418285 
L 51.161848 142.121306 
L 52.894168 128.925731 
L 54.02265 121.173696 
L 54.636386 116.268343 
L 54.705679 112.199525 
L 54.79477 88.058802 
L 55.002648 16.032465 
L 55.052143 17.617131 
L 55.349112 44.405709 
L 55.883657 82.312078 
L 56.319211 102.656069 
L 56.626079 108.465636 
L 56.873554 109.90214 
L 56.992341 109.999118 
L 57.022038 109.980707 
L 57.160624 109.737036 
L 57.507088 109.083829 
L 57.813956 108.119667 
L 58.239612 106.228219 
L 58.615772 104.656683 
L 59.269104 102.31922 
L 59.50668 101.029384 
L 59.684861 99.027495 
L 59.79375 94.816875 
L 59.952133 76.537554 
L 60.259001 47.490291 
L 60.308496 47.301732 
L 60.36789 47.50892 
L 60.724253 50.038349 
L 61.04102 53.226196 
L 61.32809 58.307769 
L 61.892332 73.089402 
L 62.48627 95.187562 
L 62.941622 107.886081 
L 63.278187 111.95077 
L 63.585055 113.412025 
L 63.951317 114.30061 
L 64.129499 114.410728 
L 64.495761 114.214313 
L 65.495557 112.765691 
L 65.832122 112.450061 
L 66.891311 110.253278 
L 67.683229 109.272077 
L 69.583831 105.209338 
L 70.07878 103.827647 
L 70.474739 103.288397 
L 70.692516 102.445608 
L 70.900394 100.633865 
L 71.029081 97.857647 
L 71.128071 89.326393 
L 71.474535 35.518982 
L 71.583423 37.098664 
L 72.117968 49.615581 
L 72.751502 73.467228 
L 73.602813 106.092723 
L 73.959176 112.117905 
L 74.295741 114.434127 
L 74.622407 115.228537 
L 74.919376 115.429568 
L 75.305436 115.699106 
L 75.602405 115.556928 
L 75.75089 115.352277 
L 76.186444 114.758071 
L 76.730888 114.250479 
L 77.314927 113.699136 
L 78.265228 112.105737 
L 78.433511 112.01353 
L 79.393711 110.487261 
L 79.710478 110.101821 
L 80.027245 109.927466 
L 80.304416 109.490613 
L 81.195323 107.829276 
L 81.858554 106.772219 
L 82.224816 105.923234 
L 83.086027 103.998428 
L 83.185016 103.824566 
L 83.957136 101.244846 
L 84.264004 99.108437 
L 84.382792 96.344911 
L 84.481781 86.427588 
L 84.798549 34.429097 
L 84.87774 35.727576 
L 85.659759 56.626056 
L 86.32299 83.876376 
L 86.907029 105.823862 
L 87.263392 111.840576 
L 87.599957 114.249875 
L 87.995916 115.802325 
L 88.411673 116.256536 
L 88.91652 116.171111 
L 89.352075 115.906103 
L 89.58965 115.974878 
L 89.97571 115.654367 
L 90.193487 115.462873 
L 90.500355 115.164322 
L 90.876516 114.689652 
L 91.440758 114.461177 
L 91.569444 114.272331 
L 92.153483 113.337261 
L 92.589038 112.831193 
L 92.747422 112.783887 
L 93.697723 111.26705 
L 94.054086 110.621616 
L 94.440146 110.452176 
L 95.152871 109.313339 
L 95.568628 108.601799 
L 95.855698 108.507392 
L 95.984385 108.432232 
L 97.46923 105.7209 
L 97.66721 105.628399 
L 98.379936 104.220951 
L 98.676905 103.310348 
L 99.310439 101.27411 
L 99.666802 98.535013 
L 99.765791 93.674602 
L 99.884579 71.969051 
L 100.122154 33.097284 
L 100.132053 33.130716 
L 100.211245 34.74804 
L 101.092253 62.334785 
L 102.478109 111.382404 
L 102.804775 114.414601 
L 103.111643 115.5851 
L 103.388815 116.005145 
L 103.735279 116.314937 
L 104.061945 116.657499 
L 104.29952 116.634041 
L 104.744973 116.276337 
L 104.992448 116.126404 
L 105.200326 116.037062 
L 105.507194 116.024779 
L 106.012042 115.653362 
L 106.546586 114.953835 
L 106.79406 114.68447 
L 107.27911 114.573611 
L 107.962139 113.735448 
L 108.130421 113.534329 
L 108.417491 113.22647 
L 108.882743 113.113456 
L 109.090621 112.936247 
L 110.110215 111.511039 
L 110.367589 111.421265 
L 110.64476 111.108301 
L 111.545566 109.663514 
L 112.268191 109.139152 
L 112.693847 108.455741 
L 113.060108 108.047039 
L 113.317482 107.818485 
L 113.584754 107.571505 
L 114.188591 106.696322 
L 114.861721 105.448899 
L 115.109195 105.298875 
L 115.554649 104.373906 
L 115.83182 103.801152 
L 116.039698 103.163097 
L 116.465354 101.928746 
L 116.663334 101.245823 
L 116.940505 99.818002 
L 117.138484 97.435114 
L 117.237474 92.418649 
L 117.36616 68.25529 
L 117.593837 33.269458 
L 117.603736 33.310157 
L 117.692826 35.11701 
L 118.365956 54.870467 
L 119.187571 88.823507 
L 119.732014 107.04072 
L 120.088377 112.894155 
L 120.424942 115.092567 
L 120.771406 115.965554 
L 121.355445 116.536577 
L 121.632617 116.789929 
L 121.929586 116.699797 
L 122.46413 116.301245 
L 122.770998 116.102103 
L 123.275846 116.217643 
L 123.750996 115.764567 
L 124.562712 115.053032 
L 124.810186 115.029709 
L 125.25564 114.606961 
L 125.938669 113.812139 
L 126.483112 113.568855 
L 126.987959 113.054636 
L 127.552201 112.22761 
L 127.958059 112.011251 
L 128.918259 110.600575 
L 129.215228 110.133299 
L 129.551793 110.095691 
L 131.066335 108.223977 
L 131.195022 108.026112 
L 131.739465 107.26954 
L 132.066131 106.853318 
L 132.422494 106.269082 
L 133.065927 105.333519 
L 133.976632 103.630287 
L 134.372591 103.194378 
L 134.788348 102.162831 
L 135.243701 100.573816 
L 135.392185 99.735574 
L 135.560468 97.313638 
L 135.659457 91.787001 
L 135.788144 66.266684 
L 136.005921 33.89025 
L 136.01582 33.926683 
L 136.104911 35.693726 
L 136.916627 58.839938 
L 137.401676 80.336801 
L 138.015412 104.213189 
L 138.401472 111.656392 
L 138.747936 114.510872 
L 139.133996 116.445545 
L 139.430965 116.97074 
L 139.925914 117.298184 
L 140.024903 117.203292 
L 140.232782 117.056408 
L 140.450559 117.115396 
L 140.82672 117.31015 
L 141.054396 117.26585 
L 142.17298 116.332475 
L 142.420454 116.248575 
L 143.568735 115.132712 
L 144.043885 114.98388 
L 144.321056 114.652259 
L 144.637823 114.272504 
L 144.924893 113.894281 
L 145.162469 113.736397 
L 145.647518 113.606512 
L 145.91479 113.198887 
L 146.251355 112.799039 
L 146.459234 112.471152 
L 146.726506 112.140285 
L 146.944283 112.037087 
L 147.518424 111.336134 
L 147.924281 110.770047 
L 148.478624 110.104758 
L 148.696401 110.013625 
L 149.181451 109.439987 
L 149.369531 109.261441 
L 149.508117 109.132355 
L 149.676399 108.829049 
L 149.973368 108.292576 
L 150.171348 108.308426 
L 150.300034 108.266835 
L 150.854377 107.689767 
L 151.39882 106.75062 
L 152.081849 106.111833 
L 152.497606 105.36371 
L 153.121241 104.425607 
L 153.388513 104.240999 
L 153.873563 103.52259 
L 154.526895 101.553875 
L 155.140631 98.383885 
L 155.269317 95.474719 
L 155.368307 86.33142 
L 155.675175 33.666219 
L 155.784064 35.600099 
L 156.427497 54.801945 
L 157.239212 88.031419 
L 157.753959 105.650627 
L 158.159817 112.504967 
L 158.486483 114.882747 
L 158.862643 116.136615 
L 159.238804 116.585918 
L 159.585268 116.719815 
L 159.902035 117.053713 
L 160.288095 116.997197 
L 160.585064 116.813832 
L 160.703852 116.709307 
L 161.070114 116.36886 
L 161.248295 116.386112 
L 161.555163 116.451207 
L 162.376778 115.604708 
L 162.762838 115.246075 
L 163.079605 115.313793 
L 163.485463 114.929158 
L 164.27738 113.928469 
L 164.960409 113.623334 
L 165.841417 112.590571 
L 166.138387 112.520383 
L 166.366063 112.433978 
L 166.999597 111.930496 
L 167.286667 111.473328 
L 167.514343 111.216361 
L 167.979595 111.16124 
L 168.880401 110.22377 
L 169.157572 110.023375 
L 169.523834 110.04475 
L 170.731509 108.838861 
L 170.771105 108.887482 
L 170.969084 108.991814 
L 171.167063 108.934797 
L 171.384841 108.799733 
L 172.345041 107.717768 
L 172.582616 107.649625 
L 172.869686 107.520503 
L 174.097159 106.024336 
L 174.334734 105.959118 
L 174.889076 105.200133 
L 175.245439 104.464271 
L 175.572105 103.835458 
L 175.829478 103.729422 
L 176.205639 103.147742 
L 177.225233 100.195369 
L 177.482606 99.064623 
L 177.650889 96.976543 
L 177.759778 92.548608 
L 177.878565 75.050371 
L 178.145837 34.545706 
L 178.155736 34.593203 
L 178.254726 36.384568 
L 178.818967 51.503965 
L 179.4624 76.505135 
L 180.224621 105.285729 
L 180.62058 112.455244 
L 180.947246 115.0276 
L 181.353104 116.320802 
L 181.669871 116.639833 
L 181.877749 116.778906 
L 182.25391 117.281009 
L 182.610273 117.358528 
L 183.60017 117.033386 
L 183.916937 117.010244 
L 184.817743 116.113124 
L 185.461176 115.883725 
L 185.886832 115.484161 
L 186.154104 115.276134 
L 186.272892 115.156254 
L 186.629255 114.71235 
L 187.233092 114.576374 
L 187.559758 114.230877 
L 187.817131 114.010728 
L 187.985414 113.742923 
L 188.292282 113.347707 
L 188.59915 113.3981 
L 189.153492 112.807935 
L 189.816723 111.974637 
L 190.549247 111.581791 
L 190.915509 111.026374 
L 191.430255 110.534224 
L 191.776719 110.259658 
L 192.459748 109.538893 
L 192.608233 109.491654 
L 193.004192 109.017949 
L 193.271464 108.80214 
L 193.40015 108.690863 
L 194.102977 107.903885 
L 194.350452 107.806495 
L 194.55833 107.645434 
L 195.241359 106.680535 
L 195.775903 106.226571 
L 195.884792 106.134216 
L 196.19166 105.822405 
L 197.122163 104.63328 
L 197.458728 104.29237 
L 197.785394 103.699745 
L 198.715897 102.263253 
L 198.745594 102.325285 
L 198.814887 103.190232 
L 199.002968 110.99051 
L 199.260341 115.54204 
L 199.982966 122.231236 
L 200.933267 129.065982 
L 202.556698 137.31779 
L 204.55629 143.997935 
L 204.94235 144.902791 
L 205.714469 146.968917 
L 206.57568 148.45854 
L 207.05083 149.620118 
L 207.496284 150.225436 
L 208.189212 151.135729 
L 208.525777 151.814351 
L 208.862342 152.128159 
L 209.109816 152.317808 
L 209.476078 152.638968 
L 209.644361 152.777535 
L 210.822338 153.94663 
L 211.040115 153.977645 
L 211.1886 153.997798 
L 211.445973 154.416162 
L 211.822134 154.786775 
L 212.396274 155.078451 
L 212.614052 155.056753 
L 212.772435 155.085127 
L 213.059505 155.390257 
L 213.475262 155.766059 
L 213.732635 155.763091 
L 213.920716 155.760982 
L 214.178089 155.881863 
L 214.465159 155.829397 
L 214.960108 156.369143 
L 215.306571 156.391808 
L 215.603541 156.378304 
L 216.118287 156.472625 
L 216.623135 156.900929 
L 216.979497 156.799216 
L 217.137881 156.837663 
L 217.43485 156.834583 
L 217.652627 156.824625 
L 218.068384 157.234254 
L 218.286162 157.208724 
L 218.731615 157.025706 
L 219.078079 156.929755 
L 219.246362 156.953481 
L 219.731411 157.406316 
L 220.216461 157.428368 
L 220.543127 157.417156 
L 220.948985 157.509803 
L 221.255853 157.784926 
L 221.542923 157.823991 
L 222.24575 157.576937 
L 222.423931 157.589657 
L 223.29504 157.977091 
L 223.869181 157.762937 
L 224.077059 157.76441 
L 224.581907 158.010905 
L 225.156047 157.86033 
L 225.631197 157.731389 
L 225.977661 158.068327 
L 226.621094 158.021548 
L 227.215033 157.857509 
L 227.709981 158.330529 
L 228.076243 158.298878 
L 228.798868 158.126793 
L 229.392806 158.474898 
L 229.729371 158.408924 
L 230.471794 158.18033 
L 230.937045 158.577646 
L 231.18452 158.575622 
L 231.679468 158.398057 
L 231.94674 158.271176 
L 232.204114 158.488062 
L 232.402093 158.58481 
L 232.758456 158.592063 
L 233.471182 158.303248 
L 233.599868 158.300123 
L 233.609767 158.309512 
L 234.193807 158.729842 
L 234.520473 158.641932 
L 234.748149 158.639917 
L 234.876836 158.558393 
L 235.154007 158.345148 
L 235.183704 158.376821 
L 235.69845 158.787726 
L 236.08451 158.735824 
L 236.322085 158.702153 
L 236.539863 158.619133 
L 236.896225 158.580198 
L 237.321881 158.951581 
L 237.559456 158.867128 
L 238.381071 158.584192 
L 238.67804 158.875895 
L 238.945312 158.971219 
L 239.578846 158.732689 
L 239.895613 158.644234 
L 240.12329 158.784144 
L 240.519249 159.035425 
L 240.79642 158.942912 
L 241.004298 158.903628 
L 241.330964 158.819694 
L 241.548741 158.75008 
L 241.825913 158.82881 
L 242.093185 159.038523 
L 242.360457 159.009035 
L 243.251364 158.738098 
L 243.855202 159.097481 
L 244.92429 158.819614 
L 245.359845 159.151139 
L 245.518229 159.154389 
L 245.914187 158.94525 
L 246.448732 158.828219 
L 247.121862 159.085115 
L 247.636608 158.864218 
L 247.963274 158.76258 
L 248.359233 159.130775 
L 248.359233 159.130775 
" clip-path="url(#paedc8d1ad6)" style="fill: none; stroke: #000000; stroke-opacity: 0.5; stroke-width: 1.5; stroke-linecap: square"/>
   </g>
   <g id="line2d_19">
    <path d="M 45.450142 159.643367 
L 45.677818 159.526811 
L 45.925293 159.70245 
L 46.311352 159.89917 
L 46.588524 159.763916 
L 46.786503 159.739452 
L 47.014179 159.656924 
L 47.340845 159.567895 
L 48.043672 159.882594 
L 48.914782 159.605004 
L 49.459225 159.895301 
L 50.221446 159.683135 
L 50.290738 159.123191 
L 50.379829 155.756975 
L 50.666899 145.028409 
L 51.191545 138.868257 
L 52.062654 130.552341 
L 53.755378 116.085286 
L 53.83457 111.973305 
L 53.923661 88.846231 
L 54.141438 17.083231 
L 54.181034 18.582141 
L 54.527498 48.505236 
L 55.131335 87.67554 
L 55.547092 103.737741 
L 55.844061 108.210729 
L 56.091535 109.401579 
L 56.24002 109.492675 
L 56.249919 109.487275 
L 56.437999 109.24286 
L 57.180422 107.351109 
L 57.516987 106.099325 
L 58.487086 102.117547 
L 58.595974 101.782412 
L 58.784055 100.299059 
L 59.090923 98.377544 
L 59.318599 96.164638 
L 59.437387 92.411101 
L 59.615568 76.317263 
L 59.952133 51.357003 
L 60.001628 51.15048 
L 60.061022 51.326295 
L 60.219406 52.699642 
L 61.347888 67.554293 
L 61.882433 79.846464 
L 62.96142 107.318312 
L 63.337581 110.315053 
L 63.684045 111.648852 
L 63.961216 111.98879 
L 64.149297 111.920545 
L 64.396771 111.613355 
L 65.149093 110.622102 
L 65.46586 110.314865 
L 65.693536 109.754504 
L 66.049899 109.028977 
L 67.752522 105.555636 
L 68.455349 103.994262 
L 68.692924 103.473818 
L 68.960196 102.537912 
L 69.247266 101.700718 
L 69.375953 101.347378 
L 69.762013 100.015441 
L 70.128275 98.73619 
L 70.563829 95.718471 
L 70.732112 93.021527 
L 70.8509 86.124234 
L 71.256757 43.633728 
L 71.375545 44.962658 
L 72.137766 58.730613 
L 72.702007 73.903892 
L 73.959176 110.348412 
L 74.285842 112.949059 
L 74.612508 113.814111 
L 74.850084 113.93109 
L 75.127255 113.936694 
L 75.354931 113.937016 
L 75.790486 113.527078 
L 78.235531 109.401926 
L 78.44341 109.195599 
L 78.611692 109.100904 
L 79.423408 107.432641 
L 79.868861 106.44229 
L 80.829061 104.768755 
L 82.927643 99.825593 
L 83.481986 97.523216 
L 83.670066 95.558403 
L 83.788854 91.374357 
L 83.927439 74.848403 
L 84.214509 41.503907 
L 84.224408 41.51391 
L 84.293701 42.347396 
L 84.867841 54.427878 
L 85.639961 76.120762 
L 86.600161 105.903016 
L 86.966423 110.894192 
L 87.293089 112.681905 
L 87.66925 113.525267 
L 87.837532 113.603635 
L 88.253289 113.797746 
L 88.659147 113.575828 
L 89.055106 113.112325 
L 89.30258 112.716858 
L 89.540155 112.515277 
L 89.748034 112.455006 
L 90.341972 111.754991 
L 91.272475 110.137741 
L 91.519949 110.036993 
L 91.638737 109.932524 
L 91.89611 109.320245 
L 92.222776 108.641735 
L 93.569036 106.590983 
L 93.846207 106.053837 
L 94.529236 105.055653 
L 94.717317 104.814053 
L 95.350851 103.638924 
L 95.657719 102.986201 
L 95.944789 102.342621 
L 96.350647 102.120668 
L 96.627818 101.76765 
L 96.944585 101.28208 
L 97.993876 98.495416 
L 98.399734 96.695816 
L 98.91448 93.115275 
L 99.053066 89.951662 
L 99.171853 80.694713 
L 99.518317 42.91146 
L 99.577711 43.409016 
L 100.013266 51.404172 
L 100.656699 67.936863 
L 102.002959 107.909484 
L 102.389019 111.721137 
L 102.725584 113.417328 
L 103.012654 113.96834 
L 103.299724 114.086978 
L 103.5274 114.103555 
L 104.002551 113.934437 
L 104.497499 113.694094 
L 105.576487 112.283889 
L 105.982345 112.01959 
L 107.120726 110.266287 
L 107.66517 109.712009 
L 108.52638 108.224022 
L 108.724359 108.014634 
L 108.902541 107.898794 
L 109.427186 107.156721 
L 109.77365 106.318844 
L 110.179508 105.458177 
L 110.723951 104.940951 
L 111.416879 103.758014 
L 111.575263 103.426594 
L 111.921727 102.748136 
L 112.109807 102.547568 
L 112.584958 101.750175 
L 112.901725 101.271415 
L 113.208593 100.314317 
L 113.842127 98.906689 
L 114.218288 98.049908 
L 114.455863 96.443514 
L 114.693439 93.244467 
L 114.812226 88.399263 
L 114.960711 69.027882 
L 115.218084 42.34394 
L 115.227983 42.337922 
L 115.247781 42.431169 
L 115.366568 44.498583 
L 116.60394 75.91565 
L 117.643332 106.482555 
L 117.999695 110.711858 
L 118.494643 113.286577 
L 118.801511 114.083506 
L 119.00939 114.129197 
L 119.237066 114.104493 
L 119.524136 113.962363 
L 119.8706 113.733892 
L 120.118074 113.846431 
L 120.306155 113.823903 
L 120.820901 113.207004 
L 121.454435 112.341036 
L 121.741505 112.230178 
L 122.097868 111.892286 
L 122.36514 111.45226 
L 122.94918 110.498794 
L 123.256048 110.307589 
L 123.612411 110.377367 
L 123.889582 110.075465 
L 124.216248 109.667721 
L 124.354833 109.418484 
L 124.552813 109.182153 
L 125.05766 109.001924 
L 126.394021 106.953379 
L 126.542506 106.921612 
L 127.859069 104.890695 
L 128.264927 104.612988 
L 128.829168 103.700965 
L 129.046945 103.554527 
L 129.512197 102.735055 
L 129.729974 102.641553 
L 131.195022 100.563073 
L 131.313809 100.450439 
L 131.581082 99.834962 
L 131.897849 99.003659 
L 132.085929 98.250462 
L 132.56108 96.52081 
L 132.739261 95.421109 
L 133.006533 92.241184 
L 133.125321 86.802513 
L 133.283705 64.964887 
L 133.52128 42.672035 
L 133.531179 42.663931 
L 133.550977 42.74041 
L 133.669764 44.416257 
L 134.19441 55.958557 
L 134.897237 75.294052 
L 136.065315 108.447516 
L 136.411779 112.044388 
L 136.738445 113.40964 
L 137.124505 114.091717 
L 137.401676 114.139401 
L 137.866928 114.554573 
L 138.074806 114.491921 
L 138.747936 113.685901 
L 139.044905 113.340469 
L 139.529955 113.315113 
L 139.757631 112.880317 
L 140.62874 111.531687 
L 140.846518 111.509777 
L 141.21278 111.296986 
L 142.232374 109.68808 
L 142.776817 109.334013 
L 142.964897 109.026364 
L 143.222271 108.641112 
L 143.440048 108.327904 
L 143.80631 107.736592 
L 144.014188 107.74663 
L 144.123077 107.74708 
L 144.142875 107.72508 
L 144.548733 107.047109 
L 144.855601 106.48984 
L 145.033782 106.158955 
L 145.43964 105.472473 
L 145.944487 105.205288 
L 146.152366 104.951706 
L 147.003677 103.43691 
L 147.518424 103.272901 
L 148.23115 102.456428 
L 148.637007 101.926425 
L 148.80529 101.921752 
L 149.032966 102.004092 
L 149.270541 101.698098 
L 149.696197 100.752884 
L 149.923873 100.538684 
L 151.101851 98.999466 
L 151.250335 98.925451 
L 151.557203 98.191739 
L 151.844274 97.429526 
L 152.022455 97.133662 
L 152.507505 95.362183 
L 152.655989 94.452566 
L 152.93316 91.1135 
L 153.061847 85.387544 
L 153.249927 63.058506 
L 153.477604 45.990605 
L 153.497402 45.937588 
L 153.536998 46.136687 
L 153.744876 49.127152 
L 154.507097 63.776561 
L 155.110934 80.785864 
L 156.041437 107.101046 
L 156.387901 111.172655 
L 156.843254 113.75194 
L 157.100627 114.357162 
L 157.318404 114.509215 
L 157.961837 114.352318 
L 158.149918 114.201747 
L 158.159817 114.208074 
L 158.506281 114.333087 
L 158.763654 114.188854 
L 159.050724 113.763134 
L 159.595167 112.931167 
L 159.812945 112.783151 
L 160.070318 112.682855 
L 160.317792 112.511202 
L 160.802842 111.727249 
L 161.466073 110.890039 
L 162.010516 110.498974 
L 162.713343 109.409041 
L 163.03011 109.041448 
L 163.70324 108.437646 
L 164.287279 107.715454 
L 164.524854 107.396056 
L 164.534753 107.401075 
L 164.683238 107.367653 
L 164.990106 107.286274 
L 165.138591 107.123635 
L 166.118589 105.983434 
L 166.663032 105.838521 
L 167.54404 104.637898 
L 167.801414 104.369726 
L 168.50424 103.689758 
L 169.345653 102.687856 
L 170.137571 101.895943 
L 170.444439 101.44962 
L 170.592923 101.359925 
L 171.176962 100.549059 
L 171.553123 100.282664 
L 171.68181 100.134863 
L 172.285647 99.142292 
L 172.602414 98.945854 
L 172.810292 98.889834 
L 172.909282 98.743792 
L 173.295342 97.971157 
L 173.730897 97.260857 
L 174.433724 95.873745 
L 174.602006 95.313845 
L 174.799985 94.100547 
L 175.087056 91.064056 
L 175.225641 86.552838 
L 175.384025 71.874869 
L 175.690893 46.44439 
L 175.710691 46.372621 
L 175.760186 46.580481 
L 175.977963 49.524589 
L 176.611497 61.112677 
L 177.195536 76.320356 
L 178.383413 109.073858 
L 178.719978 112.092742 
L 179.185229 114.177744 
L 179.442603 114.610785 
L 179.769269 114.764427 
L 181.402599 113.806166 
L 181.719366 113.515679 
L 181.897547 113.262439 
L 182.214314 113.009412 
L 182.44199 113.029554 
L 182.818151 112.728782 
L 184.015927 111.161708 
L 184.253502 110.903422 
L 184.906834 110.189428 
L 185.025622 110.079882 
L 185.500772 109.461364 
L 185.956125 109.168929 
L 187.005416 107.726884 
L 187.272688 107.715373 
L 187.767636 107.158245 
L 188.331878 106.398819 
L 188.50016 106.311149 
L 188.777331 106.30911 
L 188.925816 106.248584 
L 190.479954 104.537365 
L 190.707631 104.463472 
L 191.182781 103.861825 
L 191.648033 103.224294 
L 192.053891 102.99789 
L 192.430051 102.885377 
L 192.628031 102.613948 
L 192.865606 102.40488 
L 193.152676 102.01026 
L 193.192272 102.045509 
L 193.410049 102.120034 
L 193.568433 101.914015 
L 193.835705 101.701521 
L 193.954493 101.603308 
L 194.310856 101.22956 
L 194.528633 101.256077 
L 194.904794 100.902791 
L 194.934491 100.932236 
L 195.082975 100.971062 
L 195.092874 100.960785 
L 195.469035 100.679578 
L 195.647217 100.529041 
L 196.033277 100.028938 
L 196.350044 99.587401 
L 196.498528 99.376662 
L 196.538124 99.403297 
L 196.736103 99.428043 
L 196.844992 99.219781 
L 197.023174 99.05973 
L 197.320143 99.087474 
L 198.072464 98.097758 
L 198.092262 98.111316 
L 198.369434 98.207989 
L 198.379332 98.19131 
L 198.705998 97.671574 
L 198.735695 97.715328 
L 198.795089 98.313211 
L 198.903978 103.040864 
L 199.161351 111.754944 
L 199.587007 116.967062 
L 200.369025 124.220243 
L 201.19064 129.492226 
L 202.695283 137.008903 
L 204.150432 142.223758 
L 204.635482 143.687471 
L 205.090834 144.995818 
L 205.932247 146.645187 
L 206.209418 147.326997 
L 206.625175 148.256932 
L 207.328002 149.294808 
L 207.605173 149.583775 
L 208.486181 151.092226 
L 209.189008 151.575374 
L 210.020521 152.735568 
L 210.297693 152.914011 
L 211.000519 153.51259 
L 211.386579 153.955531 
L 211.653851 154.020113 
L 211.792437 154.073032 
L 212.04981 154.218467 
L 212.396274 154.321931 
L 212.871425 154.80412 
L 213.841524 155.130707 
L 214.039503 155.219928 
L 214.791825 155.83965 
L 215.554046 155.865565 
L 215.761924 156.01696 
L 216.147984 156.315437 
L 216.850811 156.335818 
L 217.256669 156.354995 
L 217.474446 156.593667 
L 217.801112 156.8523 
L 218.652423 156.696854 
L 218.840504 156.773453 
L 219.533432 157.235929 
L 219.978885 157.188423 
L 220.22636 157.127575 
L 220.404541 157.099193 
L 220.652015 157.316106 
L 220.89949 157.479629 
L 221.57262 157.321801 
L 222.087366 157.358556 
L 222.453628 157.712441 
L 222.7209 157.730033 
L 223.126758 157.585596 
L 223.730595 157.685697 
L 224.512614 157.902211 
L 224.730391 157.88243 
L 225.255037 157.812063 
L 225.621298 158.12168 
L 226.08655 158.121918 
L 226.363721 158.083081 
L 226.918064 158.057613 
L 227.373416 158.319241 
L 227.709981 158.323817 
L 227.957455 158.286556 
L 228.125738 158.190829 
L 228.333616 158.104003 
L 229.095837 158.484372 
L 229.392806 158.38869 
L 229.580887 158.369585 
L 230.065936 158.321019 
L 230.60048 158.676561 
L 230.917247 158.538227 
L 231.18452 158.462263 
L 231.65967 158.48456 
L 232.04573 158.772798 
L 233.184112 158.521705 
L 233.481081 158.738152 
L 233.837444 158.686402 
L 234.174009 158.564187 
L 234.45118 158.435864 
L 234.649159 158.34975 
L 235.332188 158.728516 
L 235.609359 158.660836 
L 235.787541 158.67494 
L 236.08451 158.634822 
L 236.361681 158.482277 
L 237.133801 158.82898 
L 237.539659 158.744796 
L 237.747537 158.597615 
L 237.935617 158.516798 
L 238.183092 158.730307 
L 238.697838 158.912099 
L 239.608543 158.716535 
L 240.232178 159.033517 
L 240.548945 158.87499 
L 241.251772 158.728203 
L 241.717024 159.03504 
L 242.132781 158.848771 
L 242.746517 158.775493 
L 243.558232 159.033625 
L 243.96409 158.972956 
L 244.211564 158.871623 
L 244.419443 158.869868 
L 244.73621 159.091831 
L 245.201461 159.084381 
L 245.963682 158.895559 
L 246.65661 159.174941 
L 247.725699 159.081094 
L 248.062264 159.297039 
L 248.359233 159.283401 
L 248.359233 159.283401 
" clip-path="url(#paedc8d1ad6)" style="fill: none; stroke: #000000; stroke-opacity: 0.5; stroke-width: 1.5; stroke-linecap: square"/>
   </g>
   <g id="patch_3">
    <path d="M 35.304688 173.52 
L 35.304688 7.2 
" style="fill: none; stroke: #000000; stroke-width: 0.8; stroke-linejoin: miter; stroke-linecap: square"/>
   </g>
   <g id="patch_4">
    <path d="M 35.304688 173.52 
L 258.504687 173.52 
" style="fill: none; stroke: #000000; stroke-width: 0.8; stroke-linejoin: miter; stroke-linecap: square"/>
   </g>
  </g>
 </g>
 <defs>
  <clipPath id="paedc8d1ad6">
   <rect x="35.304688" y="7.2" width="223.2" height="166.32"/>
  </clipPath>
 </defs>
</svg>
