<?xml version="1.0" encoding="utf-8" standalone="no"?>
<!DOCTYPE svg PUBLIC "-//W3C//DTD SVG 1.1//EN"
  "http://www.w3.org/Graphics/SVG/1.1/DTD/svg11.dtd">
<svg xmlns:xlink="http://www.w3.org/1999/xlink" width="265.704687pt" height="197.398125pt" viewBox="0 0 265.704687 197.398125" xmlns="http://www.w3.org/2000/svg" version="1.1">
 <metadata>
  <rdf:RDF xmlns:dc="http://purl.org/dc/elements/1.1/" xmlns:cc="http://creativecommons.org/ns#" xmlns:rdf="http://www.w3.org/1999/02/22-rdf-syntax-ns#">
   <cc:Work>
    <dc:type rdf:resource="http://purl.org/dc/dcmitype/StillImage"/>
    <dc:date>2025-12-19T10:52:44.926610</dc:date>
    <dc:format>image/svg+xml</dc:format>
    <dc:creator>
     <cc:Agent>
      <dc:title>Matplotlib v3.10.7, https://matplotlib.org/</dc:title>
     </cc:Agent>
    </dc:creator>
   </cc:Work>
  </rdf:RDF>
 </metadata>
 <defs>
  <style type="text/css">*{stroke-linejoin: round; stroke-linecap: butt}</style>
 </defs>
 <g id="figure_1">
  <g id="patch_1">
   <path d="M 0 197.398125 
L 265.704687 197.398125 
L 265.704687 0 
L 0 0 
z
" style="fill: #ffffff"/>
  </g>
  <g id="axes_1">
   <g id="patch_2">
    <path d="M 35.304688 173.52 
L 258.504687 173.52 
L 258.504687 7.2 
L 35.304688 7.2 
z
" style="fill: #ffffff"/>
   </g>
   <g id="matplotlib.axis_1">
    <g id="xtick_1">
     <g id="line2d_1">
      <defs>
       <path id="mf45eb08e45" d="M 0 0 
L 0 3.5 
" style="stroke: #000000; stroke-width: 0.8"/>
      </defs>
      <g>
       <use xlink:href="#mf45eb08e45" x="67.774204" y="173.52" style="stroke: #000000; stroke-width: 0.8"/>
      </g>
     </g>
     <g id="text_1">
      <!-- 0.6 -->
      <g transform="translate(59.822642 188.118438) scale(0.1 -0.1)">
       <defs>
        <path id="DejaVuSans-30" d="M 2034 4250 
Q 1547 4250 1301 3770 
Q 1056 3291 1056 2328 
Q 1056 1369 1301 889 
Q 1547 409 2034 409 
Q 2525 409 2770 889 
Q 3016 1369 3016 2328 
Q 3016 3291 2770 3770 
Q 2525 4250 2034 4250 
z
M 2034 4750 
Q 2819 4750 3233 4129 
Q 3647 3509 3647 2328 
Q 3647 1150 3233 529 
Q 2819 -91 2034 -91 
Q 1250 -91 836 529 
Q 422 1150 422 2328 
Q 422 3509 836 4129 
Q 1250 4750 2034 4750 
z
" transform="scale(0.015625)"/>
        <path id="DejaVuSans-2e" d="M 684 794 
L 1344 794 
L 1344 0 
L 684 0 
L 684 794 
z
" transform="scale(0.015625)"/>
        <path id="DejaVuSans-36" d="M 2113 2584 
Q 1688 2584 1439 2293 
Q 1191 2003 1191 1497 
Q 1191 994 1439 701 
Q 1688 409 2113 409 
Q 2538 409 2786 701 
Q 3034 994 3034 1497 
Q 3034 2003 2786 2293 
Q 2538 2584 2113 2584 
z
M 3366 4563 
L 3366 3988 
Q 3128 4100 2886 4159 
Q 2644 4219 2406 4219 
Q 1781 4219 1451 3797 
Q 1122 3375 1075 2522 
Q 1259 2794 1537 2939 
Q 1816 3084 2150 3084 
Q 2853 3084 3261 2657 
Q 3669 2231 3669 1497 
Q 3669 778 3244 343 
Q 2819 -91 2113 -91 
Q 1303 -91 875 529 
Q 447 1150 447 2328 
Q 447 3434 972 4092 
Q 1497 4750 2381 4750 
Q 2619 4750 2861 4703 
Q 3103 4656 3366 4563 
z
" transform="scale(0.015625)"/>
       </defs>
       <use xlink:href="#DejaVuSans-30"/>
       <use xlink:href="#DejaVuSans-2e" transform="translate(63.623047 0)"/>
       <use xlink:href="#DejaVuSans-36" transform="translate(95.410156 0)"/>
      </g>
     </g>
    </g>
    <g id="xtick_2">
     <g id="line2d_2">
      <g>
       <use xlink:href="#mf45eb08e45" x="116.136558" y="173.52" style="stroke: #000000; stroke-width: 0.8"/>
      </g>
     </g>
     <g id="text_2">
      <!-- 0.7 -->
      <g transform="translate(108.184996 188.118438) scale(0.1 -0.1)">
       <defs>
        <path id="DejaVuSans-37" d="M 525 4666 
L 3525 4666 
L 3525 4397 
L 1831 0 
L 1172 0 
L 2766 4134 
L 525 4134 
L 525 4666 
z
" transform="scale(0.015625)"/>
       </defs>
       <use xlink:href="#DejaVuSans-30"/>
       <use xlink:href="#DejaVuSans-2e" transform="translate(63.623047 0)"/>
       <use xlink:href="#DejaVuSans-37" transform="translate(95.410156 0)"/>
      </g>
     </g>
    </g>
    <g id="xtick_3">
     <g id="line2d_3">
      <g>
       <use xlink:href="#mf45eb08e45" x="164.498912" y="173.52" style="stroke: #000000; stroke-width: 0.8"/>
      </g>
     </g>
     <g id="text_3">
      <!-- 0.8 -->
      <g transform="translate(156.547349 188.118438) scale(0.1 -0.1)">
       <defs>
        <path id="DejaVuSans-38" d="M 2034 2216 
Q 1584 2216 1326 1975 
Q 1069 1734 1069 1313 
Q 1069 891 1326 650 
Q 1584 409 2034 409 
Q 2484 409 2743 651 
Q 3003 894 3003 1313 
Q 3003 1734 2745 1975 
Q 2488 2216 2034 2216 
z
M 1403 2484 
Q 997 2584 770 2862 
Q 544 3141 544 3541 
Q 544 4100 942 4425 
Q 1341 4750 2034 4750 
Q 2731 4750 3128 4425 
Q 3525 4100 3525 3541 
Q 3525 3141 3298 2862 
Q 3072 2584 2669 2484 
Q 3125 2378 3379 2068 
Q 3634 1759 3634 1313 
Q 3634 634 3220 271 
Q 2806 -91 2034 -91 
Q 1263 -91 848 271 
Q 434 634 434 1313 
Q 434 1759 690 2068 
Q 947 2378 1403 2484 
z
M 1172 3481 
Q 1172 3119 1398 2916 
Q 1625 2713 2034 2713 
Q 2441 2713 2670 2916 
Q 2900 3119 2900 3481 
Q 2900 3844 2670 4047 
Q 2441 4250 2034 4250 
Q 1625 4250 1398 4047 
Q 1172 3844 1172 3481 
z
" transform="scale(0.015625)"/>
       </defs>
       <use xlink:href="#DejaVuSans-30"/>
       <use xlink:href="#DejaVuSans-2e" transform="translate(63.623047 0)"/>
       <use xlink:href="#DejaVuSans-38" transform="translate(95.410156 0)"/>
      </g>
     </g>
    </g>
    <g id="xtick_4">
     <g id="line2d_4">
      <g>
       <use xlink:href="#mf45eb08e45" x="212.861265" y="173.52" style="stroke: #000000; stroke-width: 0.8"/>
      </g>
     </g>
     <g id="text_4">
      <!-- 0.9 -->
      <g transform="translate(204.909703 188.118438) scale(0.1 -0.1)">
       <defs>
        <path id="DejaVuSans-39" d="M 703 97 
L 703 672 
Q 941 559 1184 500 
Q 1428 441 1663 441 
Q 2288 441 2617 861 
Q 2947 1281 2994 2138 
Q 2813 1869 2534 1725 
Q 2256 1581 1919 1581 
Q 1219 1581 811 2004 
Q 403 2428 403 3163 
Q 403 3881 828 4315 
Q 1253 4750 1959 4750 
Q 2769 4750 3195 4129 
Q 3622 3509 3622 2328 
Q 3622 1225 3098 567 
Q 2575 -91 1691 -91 
Q 1453 -91 1209 -44 
Q 966 3 703 97 
z
M 1959 2075 
Q 2384 2075 2632 2365 
Q 2881 2656 2881 3163 
Q 2881 3666 2632 3958 
Q 2384 4250 1959 4250 
Q 1534 4250 1286 3958 
Q 1038 3666 1038 3163 
Q 1038 2656 1286 2365 
Q 1534 2075 1959 2075 
z
" transform="scale(0.015625)"/>
       </defs>
       <use xlink:href="#DejaVuSans-30"/>
       <use xlink:href="#DejaVuSans-2e" transform="translate(63.623047 0)"/>
       <use xlink:href="#DejaVuSans-39" transform="translate(95.410156 0)"/>
      </g>
     </g>
    </g>
   </g>
   <g id="matplotlib.axis_2">
    <g id="ytick_1">
     <g id="line2d_5">
      <defs>
       <path id="m2985fa9280" d="M 0 0 
L -3.5 0 
" style="stroke: #000000; stroke-width: 0.8"/>
      </defs>
      <g>
       <use xlink:href="#m2985fa9280" x="35.304688" y="162.143812" style="stroke: #000000; stroke-width: 0.8"/>
      </g>
     </g>
     <g id="text_5">
      <!-- −70 -->
      <g transform="translate(7.2 165.943031) scale(0.1 -0.1)">
       <defs>
        <path id="DejaVuSans-2212" d="M 678 2272 
L 4684 2272 
L 4684 1741 
L 678 1741 
L 678 2272 
z
" transform="scale(0.015625)"/>
       </defs>
       <use xlink:href="#DejaVuSans-2212"/>
       <use xlink:href="#DejaVuSans-37" transform="translate(83.789062 0)"/>
       <use xlink:href="#DejaVuSans-30" transform="translate(147.412109 0)"/>
      </g>
     </g>
    </g>
    <g id="ytick_2">
     <g id="line2d_6">
      <g>
       <use xlink:href="#m2985fa9280" x="35.304688" y="141.088982" style="stroke: #000000; stroke-width: 0.8"/>
      </g>
     </g>
     <g id="text_6">
      <!-- −60 -->
      <g transform="translate(7.2 144.8882) scale(0.1 -0.1)">
       <use xlink:href="#DejaVuSans-2212"/>
       <use xlink:href="#DejaVuSans-36" transform="translate(83.789062 0)"/>
       <use xlink:href="#DejaVuSans-30" transform="translate(147.412109 0)"/>
      </g>
     </g>
    </g>
    <g id="ytick_3">
     <g id="line2d_7">
      <g>
       <use xlink:href="#m2985fa9280" x="35.304688" y="120.034151" style="stroke: #000000; stroke-width: 0.8"/>
      </g>
     </g>
     <g id="text_7">
      <!-- −50 -->
      <g transform="translate(7.2 123.83337) scale(0.1 -0.1)">
       <defs>
        <path id="DejaVuSans-35" d="M 691 4666 
L 3169 4666 
L 3169 4134 
L 1269 4134 
L 1269 2991 
Q 1406 3038 1543 3061 
Q 1681 3084 1819 3084 
Q 2600 3084 3056 2656 
Q 3513 2228 3513 1497 
Q 3513 744 3044 326 
Q 2575 -91 1722 -91 
Q 1428 -91 1123 -41 
Q 819 9 494 109 
L 494 744 
Q 775 591 1075 516 
Q 1375 441 1709 441 
Q 2250 441 2565 725 
Q 2881 1009 2881 1497 
Q 2881 1984 2565 2268 
Q 2250 2553 1709 2553 
Q 1456 2553 1204 2497 
Q 953 2441 691 2322 
L 691 4666 
z
" transform="scale(0.015625)"/>
       </defs>
       <use xlink:href="#DejaVuSans-2212"/>
       <use xlink:href="#DejaVuSans-35" transform="translate(83.789062 0)"/>
       <use xlink:href="#DejaVuSans-30" transform="translate(147.412109 0)"/>
      </g>
     </g>
    </g>
    <g id="ytick_4">
     <g id="line2d_8">
      <g>
       <use xlink:href="#m2985fa9280" x="35.304688" y="98.979321" style="stroke: #000000; stroke-width: 0.8"/>
      </g>
     </g>
     <g id="text_8">
      <!-- −40 -->
      <g transform="translate(7.2 102.77854) scale(0.1 -0.1)">
       <defs>
        <path id="DejaVuSans-34" d="M 2419 4116 
L 825 1625 
L 2419 1625 
L 2419 4116 
z
M 2253 4666 
L 3047 4666 
L 3047 1625 
L 3713 1625 
L 3713 1100 
L 3047 1100 
L 3047 0 
L 2419 0 
L 2419 1100 
L 313 1100 
L 313 1709 
L 2253 4666 
z
" transform="scale(0.015625)"/>
       </defs>
       <use xlink:href="#DejaVuSans-2212"/>
       <use xlink:href="#DejaVuSans-34" transform="translate(83.789062 0)"/>
       <use xlink:href="#DejaVuSans-30" transform="translate(147.412109 0)"/>
      </g>
     </g>
    </g>
    <g id="ytick_5">
     <g id="line2d_9">
      <g>
       <use xlink:href="#m2985fa9280" x="35.304688" y="77.924491" style="stroke: #000000; stroke-width: 0.8"/>
      </g>
     </g>
     <g id="text_9">
      <!-- −30 -->
      <g transform="translate(7.2 81.72371) scale(0.1 -0.1)">
       <defs>
        <path id="DejaVuSans-33" d="M 2597 2516 
Q 3050 2419 3304 2112 
Q 3559 1806 3559 1356 
Q 3559 666 3084 287 
Q 2609 -91 1734 -91 
Q 1441 -91 1130 -33 
Q 819 25 488 141 
L 488 750 
Q 750 597 1062 519 
Q 1375 441 1716 441 
Q 2309 441 2620 675 
Q 2931 909 2931 1356 
Q 2931 1769 2642 2001 
Q 2353 2234 1838 2234 
L 1294 2234 
L 1294 2753 
L 1863 2753 
Q 2328 2753 2575 2939 
Q 2822 3125 2822 3475 
Q 2822 3834 2567 4026 
Q 2313 4219 1838 4219 
Q 1578 4219 1281 4162 
Q 984 4106 628 3988 
L 628 4550 
Q 988 4650 1302 4700 
Q 1616 4750 1894 4750 
Q 2613 4750 3031 4423 
Q 3450 4097 3450 3541 
Q 3450 3153 3228 2886 
Q 3006 2619 2597 2516 
z
" transform="scale(0.015625)"/>
       </defs>
       <use xlink:href="#DejaVuSans-2212"/>
       <use xlink:href="#DejaVuSans-33" transform="translate(83.789062 0)"/>
       <use xlink:href="#DejaVuSans-30" transform="translate(147.412109 0)"/>
      </g>
     </g>
    </g>
    <g id="ytick_6">
     <g id="line2d_10">
      <g>
       <use xlink:href="#m2985fa9280" x="35.304688" y="56.869661" style="stroke: #000000; stroke-width: 0.8"/>
      </g>
     </g>
     <g id="text_10">
      <!-- −20 -->
      <g transform="translate(7.2 60.668879) scale(0.1 -0.1)">
       <defs>
        <path id="DejaVuSans-32" d="M 1228 531 
L 3431 531 
L 3431 0 
L 469 0 
L 469 531 
Q 828 903 1448 1529 
Q 2069 2156 2228 2338 
Q 2531 2678 2651 2914 
Q 2772 3150 2772 3378 
Q 2772 3750 2511 3984 
Q 2250 4219 1831 4219 
Q 1534 4219 1204 4116 
Q 875 4013 500 3803 
L 500 4441 
Q 881 4594 1212 4672 
Q 1544 4750 1819 4750 
Q 2544 4750 2975 4387 
Q 3406 4025 3406 3419 
Q 3406 3131 3298 2873 
Q 3191 2616 2906 2266 
Q 2828 2175 2409 1742 
Q 1991 1309 1228 531 
z
" transform="scale(0.015625)"/>
       </defs>
       <use xlink:href="#DejaVuSans-2212"/>
       <use xlink:href="#DejaVuSans-32" transform="translate(83.789062 0)"/>
       <use xlink:href="#DejaVuSans-30" transform="translate(147.412109 0)"/>
      </g>
     </g>
    </g>
    <g id="ytick_7">
     <g id="line2d_11">
      <g>
       <use xlink:href="#m2985fa9280" x="35.304688" y="35.81483" style="stroke: #000000; stroke-width: 0.8"/>
      </g>
     </g>
     <g id="text_11">
      <!-- −10 -->
      <g transform="translate(7.2 39.614049) scale(0.1 -0.1)">
       <defs>
        <path id="DejaVuSans-31" d="M 794 531 
L 1825 531 
L 1825 4091 
L 703 3866 
L 703 4441 
L 1819 4666 
L 2450 4666 
L 2450 531 
L 3481 531 
L 3481 0 
L 794 0 
L 794 531 
z
" transform="scale(0.015625)"/>
       </defs>
       <use xlink:href="#DejaVuSans-2212"/>
       <use xlink:href="#DejaVuSans-31" transform="translate(83.789062 0)"/>
       <use xlink:href="#DejaVuSans-30" transform="translate(147.412109 0)"/>
      </g>
     </g>
    </g>
    <g id="ytick_8">
     <g id="line2d_12">
      <g>
       <use xlink:href="#m2985fa9280" x="35.304688" y="14.76" style="stroke: #000000; stroke-width: 0.8"/>
      </g>
     </g>
     <g id="text_12">
      <!-- 0 -->
      <g transform="translate(21.942187 18.559219) scale(0.1 -0.1)">
       <use xlink:href="#DejaVuSans-30"/>
      </g>
     </g>
    </g>
   </g>
   <g id="line2d_13">
    <path d="M 45.450142 162.53859 
L 45.537194 162.53859 
L 45.614574 162.735979 
L 45.604902 162.47281 
L 45.643591 162.670199 
L 45.662936 162.47281 
L 45.672609 162.735979 
L 45.759661 162.53859 
L 45.769334 162.53859 
L 45.866058 162.801775 
L 45.895076 162.735979 
L 46.001473 162.604402 
L 46.059508 162.801775 
L 46.049835 162.53859 
L 46.10787 162.670199 
L 46.14656 162.53859 
L 46.156232 162.801775 
L 46.214267 162.735979 
L 46.252957 162.867588 
L 46.26263 162.604402 
L 46.320664 162.801775 
L 46.417389 162.53859 
L 46.427062 162.670199 
L 46.436734 162.867588 
L 46.475424 162.604402 
L 46.533459 162.604402 
L 46.552804 162.604402 
L 46.630183 162.735979 
L 46.620511 162.53859 
L 46.659201 162.604402 
L 46.678546 162.47281 
L 46.717236 162.735979 
L 46.746253 162.604402 
L 46.81396 162.867588 
L 46.823633 162.53859 
L 46.862323 162.670199 
L 46.93003 162.735979 
L 46.939703 162.53859 
L 46.949375 162.604402 
L 47.00741 162.407013 
L 46.96872 162.867588 
L 47.036427 162.670199 
L 47.055772 162.867588 
L 47.08479 162.47281 
L 47.142824 162.670199 
L 47.181514 162.53859 
L 47.249222 162.604402 
L 47.355619 162.801775 
L 47.307256 162.341201 
L 47.365291 162.735979 
L 47.481361 162.53859 
L 47.520051 162.867588 
L 47.597431 162.801775 
L 47.616775 162.735979 
L 47.626448 162.604402 
L 47.703828 162.867588 
L 47.723173 162.801775 
L 47.75219 162.670199 
L 47.781207 162.867588 
L 47.819897 162.735979 
L 47.82957 162.867588 
L 47.90695 162.604402 
L 47.926295 162.801775 
L 47.964984 162.53859 
L 48.032692 162.604402 
L 48.061709 162.801775 
L 48.081054 162.53859 
L 48.139089 162.53859 
L 48.245486 162.867588 
L 48.274503 162.801775 
L 48.332538 162.933368 
L 48.400246 162.604402 
L 48.516315 162.801775 
L 48.57435 162.670199 
L 48.555005 162.867588 
L 48.622712 162.867588 
L 48.65173 162.801775 
L 48.72911 162.670199 
L 48.671075 162.867588 
L 48.738782 162.801775 
L 48.748455 162.933368 
L 48.796817 162.604402 
L 48.835507 162.604402 
L 48.903214 162.999164 
L 48.961249 162.735979 
L 49.019284 162.867588 
L 49.077319 162.604402 
L 49.096664 162.670199 
L 49.212733 162.867588 
L 49.290113 162.670199 
L 49.251423 162.933368 
L 49.31913 162.867588 
L 49.328803 162.867588 
L 49.444872 162.735979 
L 49.502907 162.801775 
L 49.599632 162.867588 
L 49.618977 162.604402 
L 49.647994 162.867588 
L 49.735047 162.735979 
L 49.802754 162.735979 
L 49.889806 162.867588 
L 49.851116 162.604402 
L 49.909151 162.801775 
L 50.015548 162.604402 
L 50.025221 162.735979 
L 50.044566 162.670199 
L 50.054238 162.867588 
L 50.073583 162.604402 
L 50.150963 162.604402 
L 50.199325 162.933368 
L 50.276705 162.735979 
L 50.286377 162.735979 
L 50.29605 162.604402 
L 50.325067 162.867588 
L 50.392775 162.801775 
L 50.479827 162.735979 
L 50.460482 162.933368 
L 50.489499 162.801775 
L 50.557207 162.933368 
L 50.547534 162.735979 
L 50.586224 162.735979 
L 50.634586 162.801775 
L 50.644259 162.604402 
L 50.750656 162.670199 
L 50.770001 162.670199 
L 50.837708 162.867588 
L 50.857053 162.604402 
L 50.876398 162.604402 
L 50.905416 162.53859 
L 51.00214 162.933368 
L 51.04083 162.604402 
L 51.11821 162.801775 
L 51.185917 162.867588 
L 51.243952 162.604402 
L 51.350349 162.801775 
L 51.292314 162.53859 
L 51.360022 162.735979 
L 51.437401 162.801775 
L 51.447074 162.53859 
L 51.456746 162.867588 
L 51.543799 162.735979 
L 51.650196 162.867588 
L 51.563144 162.670199 
L 51.659868 162.801775 
L 51.708231 162.670199 
L 51.727576 162.867588 
L 51.766265 162.801775 
L 51.8243 162.801775 
L 51.833973 162.670199 
L 51.911352 162.999164 
L 51.930697 162.801775 
L 51.97906 162.867588 
L 52.085457 162.670199 
L 51.998405 162.999164 
L 52.095129 162.735979 
L 52.162837 162.867588 
L 52.211199 162.801775 
L 52.356286 162.735979 
L 52.365959 162.670199 
L 52.385304 162.999164 
L 52.443338 162.735979 
L 52.491701 162.670199 
L 52.559408 162.999164 
L 52.656133 162.735979 
L 52.675478 162.801775 
L 52.733513 162.933368 
L 52.694823 162.735979 
L 52.772202 162.867588 
L 52.849582 162.735979 
L 52.859255 162.933368 
L 52.8786 162.801775 
L 52.946307 162.999164 
L 52.965652 162.867588 
L 53.062377 162.604402 
L 53.081721 162.670199 
L 53.178446 162.933368 
L 53.197791 162.801775 
L 53.217136 162.735979 
L 53.246153 162.867588 
L 53.294516 162.801775 
L 53.362223 162.999164 
L 53.333206 162.735979 
L 53.391241 162.933368 
L 53.497638 162.670199 
L 53.478293 162.999164 
L 53.50731 162.801775 
L 53.555673 162.801775 
L 53.66207 162.604402 
L 53.691087 162.999164 
L 53.778139 162.801775 
L 53.836174 162.670199 
L 53.865192 162.933368 
L 53.884537 162.801775 
L 53.923226 162.735979 
L 53.932899 162.670199 
L 53.952244 162.933368 
L 54.019951 162.735979 
L 54.145693 162.999164 
L 54.25209 162.735979 
L 54.261763 162.801775 
L 54.32947 162.999164 
L 54.358488 162.670199 
L 54.377833 162.933368 
L 54.397177 162.999164 
L 54.493902 162.735979 
L 54.580954 162.933368 
L 54.609972 162.867588 
L 54.658334 162.604402 
L 54.629317 162.933368 
L 54.726041 162.735979 
L 54.813094 162.999164 
L 54.755059 162.604402 
L 54.842111 162.933368 
L 54.880801 162.670199 
L 54.958181 162.801775 
L 54.987198 162.867588 
L 55.016216 162.999164 
L 55.035561 162.735979 
L 55.093595 162.867588 
L 55.199993 162.735979 
L 55.316062 162.999164 
L 55.325735 162.933368 
L 55.412787 162.735979 
L 55.432132 162.933368 
L 55.470822 162.999164 
L 55.480494 162.801775 
L 55.509512 162.801775 
L 55.557874 162.735979 
L 55.538529 162.933368 
L 55.596564 162.867588 
L 55.702961 163.064977 
L 55.712633 162.999164 
L 55.741651 162.801775 
L 55.780341 163.064977 
L 55.828703 162.867588 
L 55.906083 162.933368 
L 55.857721 162.735979 
L 55.9351 162.867588 
L 55.944773 162.867588 
L 55.954445 162.999164 
L 55.983463 162.801775 
L 56.05117 162.933368 
L 56.186585 162.735979 
L 56.302654 162.999164 
L 56.312327 162.933368 
L 56.360689 163.064977 
L 56.428396 162.735979 
L 56.505776 163.064977 
L 56.544466 162.933368 
L 56.641191 162.801775 
L 56.612173 162.999164 
L 56.650863 162.999164 
L 56.660536 162.999164 
L 56.71857 162.801775 
L 56.728243 163.064977 
L 56.766933 162.867588 
L 56.776605 162.999164 
L 56.786278 162.735979 
L 56.883002 162.933368 
L 56.892675 162.735979 
L 56.95071 163.064977 
L 56.9894 162.933368 
L 57.037762 162.999164 
L 57.047434 163.064977 
L 57.066779 162.801775 
L 57.124814 162.933368 
L 57.211866 162.801775 
L 57.173177 162.999164 
L 57.231211 162.999164 
L 57.337609 162.735979 
L 57.347281 162.933368 
L 57.366626 162.867588 
L 57.453678 162.999164 
L 57.560075 162.801775 
L 57.637455 162.999164 
L 57.666473 162.867588 
L 57.676145 162.867588 
L 57.724507 162.735979 
L 57.792215 163.130757 
L 57.85025 162.801775 
L 57.908284 162.933368 
L 57.937302 163.064977 
L 58.005009 162.801775 
L 58.092061 162.999164 
L 58.111406 162.867588 
L 58.121079 162.735979 
L 58.179114 163.130757 
L 58.217803 162.867588 
L 58.314528 162.801775 
L 58.324201 163.064977 
L 58.333873 162.801775 
L 58.430598 162.867588 
L 58.44027 163.064977 
L 58.459615 162.801775 
L 58.536995 162.801775 
L 58.546667 162.801775 
L 58.55634 162.999164 
L 58.624047 162.670199 
L 58.653065 162.867588 
L 58.701427 162.867588 
L 58.778807 162.47281 
L 58.720772 162.999164 
L 58.817497 162.604402 
L 58.836842 162.735979 
L 58.865859 162.47281 
L 58.923894 162.604402 
L 59.039963 162.341201 
L 59.068981 162.604402 
L 59.146361 162.407013 
L 59.194723 162.275405 
L 59.175378 162.53859 
L 59.243085 162.47281 
L 59.272103 162.53859 
L 59.281775 162.604402 
L 59.330138 162.341201 
L 59.349482 162.407013 
L 59.436535 162.275405 
L 59.41719 162.47281 
L 59.446207 162.47281 
L 59.45588 162.47281 
L 59.562277 162.275405 
L 59.571949 162.407013 
L 59.697691 162.209624 
L 59.784744 162.407013 
L 59.813761 162.275405 
L 59.871796 162.275405 
L 59.881468 162.53859 
L 59.958848 162.143812 
L 59.978193 162.407013 
L 60.08459 162.209624 
L 60.094263 162.275405 
L 60.132953 162.275405 
L 60.181315 162.47281 
L 60.220005 162.209624 
L 60.249022 162.407013 
L 60.27804 162.47281 
L 60.374764 162.209624 
L 60.403782 162.143812 
L 60.394109 162.341201 
L 60.461817 162.209624 
L 60.481162 162.47281 
L 60.568214 162.209624 
L 60.587559 162.275405 
L 60.606904 162.407013 
L 60.645594 162.143812 
L 60.684283 162.341201 
L 60.790681 162.143812 
L 60.800353 162.275405 
L 60.829371 162.275405 
L 60.839043 162.143812 
L 60.877733 162.407013 
L 60.926095 162.275405 
L 60.935768 162.407013 
L 60.964785 162.209624 
L 61.032492 162.209624 
L 61.042165 162.209624 
L 61.080855 162.143812 
L 61.158235 162.341201 
L 61.245287 162.143812 
L 61.216269 162.47281 
L 61.274304 162.275405 
L 61.303322 162.209624 
L 61.312994 162.078016 
L 61.332339 162.275405 
L 61.409719 162.275405 
L 61.467754 162.209624 
L 61.438736 162.47281 
L 61.516116 162.275405 
L 61.545133 162.209624 
L 61.632186 162.341201 
L 61.72891 162.143812 
L 61.748255 162.209624 
L 61.777273 162.209624 
L 61.84498 162.143812 
L 61.88367 162.407013 
L 61.990067 162.209624 
L 61.999739 162.275405 
L 62.048102 162.341201 
L 62.115809 162.209624 
L 62.212534 162.209624 
L 62.222206 162.078016 
L 62.299586 162.341201 
L 62.309259 162.275405 
L 62.367293 162.341201 
L 62.376966 162.143812 
L 62.405983 162.209624 
L 62.415656 162.209624 
L 62.425328 162.341201 
L 62.444673 162.143812 
L 62.522053 162.209624 
L 62.599433 162.209624 
L 62.609105 162.078016 
L 62.62845 162.341201 
L 62.715502 162.143812 
L 62.78321 162.341201 
L 62.734847 162.078016 
L 62.821899 162.143812 
L 62.879934 162.209624 
L 62.976659 162.341201 
L 62.996004 162.275405 
L 63.073384 162.143812 
L 63.025021 162.341201 
L 63.112074 162.209624 
L 63.131419 162.209624 
L 63.208798 162.47281 
L 63.257161 162.407013 
L 63.382903 162.209624 
L 63.421593 162.143812 
L 63.402248 162.341201 
L 63.479627 162.209624 
L 63.595697 162.407013 
L 63.653732 162.143812 
L 63.711767 162.209624 
L 63.740784 162.47281 
L 63.827836 162.341201 
L 63.856854 162.275405 
L 63.924561 162.143812 
L 63.905216 162.407013 
L 63.953579 162.341201 
L 64.001941 162.341201 
L 64.098666 162.209624 
L 64.040631 162.47281 
L 64.108338 162.341201 
L 64.19539 162.209624 
L 64.224408 162.47281 
L 64.263098 162.275405 
L 64.340477 162.407013 
L 64.369495 162.53859 
L 64.379167 162.341201 
L 64.446875 162.341201 
L 64.466219 162.604402 
L 64.495237 162.209624 
L 64.562944 162.47281 
L 64.582289 162.275405 
L 64.679014 162.341201 
L 64.746721 162.47281 
L 64.766066 162.143812 
L 64.785411 162.407013 
L 64.843446 162.209624 
L 64.901481 162.341201 
L 64.998205 162.47281 
L 64.949843 162.275405 
L 65.01755 162.407013 
L 65.046568 162.53859 
L 65.13362 162.275405 
L 65.230345 162.47281 
L 65.24969 162.341201 
L 65.298052 162.275405 
L 65.356087 162.47281 
L 65.317397 162.209624 
L 65.404449 162.407013 
L 65.530191 162.143812 
L 65.646261 162.47281 
L 65.694623 162.275405 
L 65.752658 162.47281 
L 65.791348 162.47281 
L 65.907418 162.275405 
L 66.004142 162.53859 
L 66.013815 162.407013 
L 66.129884 162.407013 
L 66.226609 162.47281 
L 66.245954 162.275405 
L 66.255627 162.275405 
L 66.313661 162.47281 
L 66.362024 162.275405 
L 66.458748 162.47281 
L 66.468421 162.341201 
L 66.545801 162.275405 
L 66.487766 162.407013 
L 66.574818 162.341201 
L 66.584491 162.53859 
L 66.594163 162.275405 
L 66.681215 162.47281 
L 66.73925 162.275405 
L 66.70056 162.53859 
L 66.797285 162.407013 
L 66.884337 162.275405 
L 66.903682 162.53859 
L 67.010079 162.209624 
L 67.019752 162.275405 
L 67.097132 162.275405 
L 67.116476 162.143812 
L 67.203529 162.47281 
L 67.251891 162.209624 
L 67.309926 162.407013 
L 67.387306 162.209624 
L 67.416323 162.47281 
L 67.493703 162.275405 
L 67.542065 162.341201 
L 67.580755 162.275405 
L 67.658135 162.47281 
L 67.735515 162.341201 
L 67.687152 162.604402 
L 67.764532 162.407013 
L 67.774204 162.604402 
L 67.812894 162.275405 
L 67.870929 162.407013 
L 68.006344 162.604402 
L 68.122413 162.47281 
L 68.170776 162.670199 
L 68.219138 162.407013 
L 68.238483 162.53859 
L 68.315863 162.53859 
L 68.325535 162.735979 
L 68.364225 162.47281 
L 68.42226 162.47281 
L 68.470622 162.341201 
L 68.451277 162.604402 
L 68.528657 162.47281 
L 68.567347 162.735979 
L 68.635054 162.53859 
L 68.683417 162.670199 
L 68.741452 162.47281 
L 68.818831 162.735979 
L 68.770469 162.341201 
L 68.857521 162.53859 
L 68.925228 162.407013 
L 68.934901 162.604402 
L 68.954246 162.604402 
L 68.963918 162.604402 
L 68.983263 162.407013 
L 68.992936 162.735979 
L 69.070316 162.53859 
L 69.176713 162.735979 
L 69.138023 162.407013 
L 69.186385 162.670199 
L 69.273437 162.407013 
L 69.24442 162.735979 
L 69.302455 162.47281 
L 69.312127 162.735979 
L 69.39918 162.407013 
L 69.408852 162.53859 
L 69.437869 162.47281 
L 69.524922 162.604402 
L 69.602301 162.47281 
L 69.553939 162.670199 
L 69.621646 162.604402 
L 69.718371 162.735979 
L 69.670009 162.47281 
L 69.737716 162.670199 
L 69.786078 162.735979 
L 69.863458 162.47281 
L 69.902148 162.53859 
L 69.9892 162.735979 
L 69.931165 162.47281 
L 70.008545 162.604402 
L 70.02789 162.47281 
L 70.06658 162.735979 
L 70.124615 162.53859 
L 70.134287 162.53859 
L 70.172977 162.47281 
L 70.260029 162.801775 
L 70.269702 162.604402 
L 70.366427 162.735979 
L 70.395444 162.670199 
L 70.443806 162.735979 
L 70.492169 162.53859 
L 70.608238 162.801775 
L 70.646928 162.604402 
L 70.733981 162.670199 
L 70.743653 162.670199 
L 70.821033 162.801775 
L 70.792015 162.53859 
L 70.85005 162.670199 
L 70.908085 162.867588 
L 70.96612 162.53859 
L 71.082189 162.867588 
L 71.091862 162.735979 
L 71.120879 162.53859 
L 71.169242 162.933368 
L 71.198259 162.735979 
L 71.285311 162.670199 
L 71.227277 162.867588 
L 71.294984 162.735979 
L 71.420726 162.933368 
L 71.469088 162.604402 
L 71.546468 162.735979 
L 71.604503 162.933368 
L 71.63352 162.670199 
L 71.652865 162.801775 
L 71.730245 162.735979 
L 71.7109 162.867588 
L 71.74959 162.801775 
L 71.82697 162.933368 
L 71.836642 162.604402 
L 71.943039 162.735979 
L 71.962384 162.933368 
L 72.059109 162.867588 
L 72.088126 162.735979 
L 72.078454 162.999164 
L 72.165506 162.933368 
L 72.184851 162.933368 
L 72.252558 162.735979 
L 72.242886 162.999164 
L 72.300921 162.867588 
L 72.339611 162.867588 
L 72.426663 162.999164 
L 72.446008 162.867588 
L 72.475025 162.933368 
L 72.504043 162.999164 
L 72.581422 162.735979 
L 72.64913 162.999164 
L 72.68782 162.933368 
L 72.697492 162.735979 
L 72.765199 162.999164 
L 72.803889 162.801775 
L 72.910286 163.064977 
L 73.016684 162.867588 
L 73.055374 163.130757 
L 73.123081 162.933368 
L 73.132753 162.735979 
L 73.219806 162.999164 
L 73.229478 162.867588 
L 73.27784 162.867588 
L 73.31653 162.735979 
L 73.39391 162.999164 
L 73.500307 162.801775 
L 73.50998 162.867588 
L 73.538997 163.064977 
L 73.626049 162.933368 
L 73.635722 162.670199 
L 73.713102 162.999164 
L 73.732446 162.801775 
L 73.819499 162.735979 
L 73.858189 163.064977 
L 73.925896 162.801775 
L 73.964586 162.933368 
L 73.993603 162.801775 
L 74.070983 162.999164 
L 74.17738 162.801775 
L 74.187053 162.867588 
L 74.283777 162.933368 
L 74.37083 163.064977 
L 74.341812 162.867588 
L 74.390174 162.999164 
L 74.486899 162.867588 
L 74.428864 163.130757 
L 74.496572 162.933368 
L 74.564279 163.064977 
L 74.583624 162.867588 
L 74.593296 162.867588 
L 74.602969 162.867588 
L 74.690021 163.064977 
L 74.719038 162.933368 
L 74.757728 163.064977 
L 74.767401 162.867588 
L 74.825436 162.999164 
L 74.902815 162.933368 
L 74.854453 163.130757 
L 74.912488 163.130757 
L 74.92216 163.130757 
L 75.028558 162.867588 
L 75.03823 162.933368 
L 75.163972 163.064977 
L 75.222007 162.867588 
L 75.280042 162.999164 
L 75.289714 163.064977 
L 75.357422 162.801775 
L 75.376766 162.999164 
L 75.434801 162.867588 
L 75.483164 162.933368 
L 75.589561 163.064977 
L 75.512181 162.867588 
L 75.599233 162.999164 
L 75.676613 162.801775 
L 75.715303 162.867588 
L 75.734648 162.999164 
L 75.78301 162.735979 
L 75.812028 162.801775 
L 75.831373 162.735979 
L 75.870062 162.933368 
L 75.89908 162.867588 
L 75.93777 163.130757 
L 75.97646 162.735979 
L 75.986132 162.735979 
L 75.995805 162.604402 
L 76.024822 162.999164 
L 76.102202 162.670199 
L 76.227944 162.999164 
L 76.344014 162.735979 
L 76.363358 162.801775 
L 76.402048 162.867588 
L 76.489101 162.604402 
L 76.518118 162.735979 
L 76.624515 162.867588 
L 76.595498 162.670199 
L 76.634188 162.801775 
L 76.692222 162.933368 
L 76.701895 162.670199 
L 76.72124 162.735979 
L 76.769602 162.867588 
L 76.827637 162.670199 
L 76.943707 162.867588 
L 76.982397 162.670199 
L 77.021086 162.999164 
L 77.059776 162.801775 
L 77.088794 163.130757 
L 77.117811 162.735979 
L 77.185519 162.933368 
L 77.301588 162.735979 
L 77.417658 162.933368 
L 77.50471 162.735979 
L 77.524055 162.801775 
L 77.533727 163.064977 
L 77.572417 162.735979 
L 77.630452 162.867588 
L 77.649797 162.735979 
L 77.717504 162.867588 
L 77.727177 162.999164 
L 77.736849 162.801775 
L 77.833574 162.933368 
L 77.843247 162.999164 
L 77.852919 162.735979 
L 77.920626 162.867588 
L 77.988334 162.801775 
L 77.939971 162.999164 
L 78.027023 162.867588 
L 78.085058 162.867588 
L 78.094731 162.735979 
L 78.114076 163.064977 
L 78.201128 162.801775 
L 78.2108 162.735979 
L 78.220473 162.933368 
L 78.297853 162.867588 
L 78.375232 163.064977 
L 78.40425 162.801775 
L 78.413922 162.933368 
L 78.491302 162.735979 
L 78.462285 162.999164 
L 78.529992 162.801775 
L 78.617044 163.064977 
L 78.655734 162.933368 
L 78.771804 162.867588 
L 78.781476 163.064977 
L 78.868528 162.735979 
L 78.878201 162.735979 
L 78.994271 162.999164 
L 79.003943 162.933368 
L 79.042633 162.735979 
L 79.11034 162.999164 
L 79.22641 162.801775 
L 79.323135 162.999164 
L 79.342479 162.933368 
L 79.439204 162.999164 
L 79.390842 162.867588 
L 79.448877 162.933368 
L 79.458549 162.933368 
L 79.468222 163.130757 
L 79.535929 162.801775 
L 79.564946 162.867588 
L 79.574619 162.867588 
L 79.584291 162.999164 
L 79.613309 162.735979 
L 79.681016 162.867588 
L 79.729378 162.933368 
L 79.748723 162.867588 
L 79.835775 163.064977 
L 79.845448 162.867588 
L 79.942173 162.999164 
L 79.990535 162.801775 
L 80.029225 163.130757 
L 80.145295 162.867588 
L 80.154967 162.867588 
L 80.232347 163.064977 
L 80.271037 162.999164 
L 80.280709 162.999164 
L 80.319399 162.801775 
L 80.338744 163.064977 
L 80.396779 162.933368 
L 80.416124 162.867588 
L 80.503176 163.130757 
L 80.512848 162.867588 
L 80.522521 163.196554 
L 80.609573 162.999164 
L 80.648263 163.196554 
L 80.667608 162.933368 
L 80.71597 162.999164 
L 80.735315 162.735979 
L 80.744988 163.064977 
L 80.812695 163.064977 
L 80.851385 163.196554 
L 80.841712 162.999164 
L 80.928765 163.130757 
L 80.977127 163.196554 
L 81.044834 162.999164 
L 81.102869 163.196554 
L 81.160904 163.130757 
L 81.189921 163.130757 
L 81.238284 162.999164 
L 81.296319 163.064977 
L 81.373698 163.130757 
L 81.393043 163.064977 
L 81.489768 162.933368 
L 81.470423 163.196554 
L 81.509113 162.999164 
L 81.567148 163.196554 
L 81.557475 162.933368 
L 81.625183 163.130757 
L 81.644528 163.196554 
L 81.73158 163.064977 
L 81.741252 163.196554 
L 81.77027 162.933368 
L 81.837977 163.064977 
L 81.847649 163.064977 
L 81.915357 163.262366 
L 81.934702 162.933368 
L 81.954047 163.130757 
L 81.973392 163.196554 
L 82.079789 162.999164 
L 82.147496 163.196554 
L 82.176513 163.064977 
L 82.186186 162.933368 
L 82.234548 163.196554 
L 82.273238 163.064977 
L 82.282911 163.196554 
L 82.3216 162.867588 
L 82.389308 163.130757 
L 82.495705 162.999164 
L 82.611775 163.130757 
L 82.689154 162.933368 
L 82.640792 163.196554 
L 82.727844 163.064977 
L 82.795552 163.196554 
L 82.747189 162.999164 
L 82.834241 163.064977 
L 82.863259 162.999164 
L 82.872931 162.933368 
L 82.892276 163.130757 
L 82.940639 163.130757 
L 82.950311 163.196554 
L 82.959984 162.999164 
L 83.008346 162.999164 
L 83.018018 162.867588 
L 83.027691 163.130757 
L 83.114743 163.064977 
L 83.201795 163.130757 
L 83.22114 162.933368 
L 83.230813 163.196554 
L 83.308192 163.064977 
L 83.385572 162.999164 
L 83.433935 163.262366 
L 83.462952 162.999164 
L 83.550004 163.064977 
L 83.608039 163.196554 
L 83.588694 162.999164 
L 83.666074 163.130757 
L 83.772471 162.867588 
L 83.733781 163.196554 
L 83.782144 162.999164 
L 83.878868 163.196554 
L 83.898213 163.130757 
L 83.946576 163.130757 
L 83.994938 163.196554 
L 84.062645 162.999164 
L 84.111008 162.933368 
L 84.169042 163.130757 
L 84.188387 162.999164 
L 84.19806 163.196554 
L 84.27544 163.064977 
L 84.343147 163.196554 
L 84.314129 162.999164 
L 84.362492 162.999164 
L 84.372164 162.933368 
L 84.391509 163.130757 
L 84.459216 162.999164 
L 84.536596 163.262366 
L 84.565614 163.064977 
L 84.575286 163.064977 
L 84.691356 163.196554 
L 84.78808 162.933368 
L 84.817098 163.064977 
L 84.86546 163.196554 
L 84.923495 163.064977 
L 84.98153 163.064977 
L 84.991202 162.933368 
L 85.05891 163.262366 
L 85.078255 163.262366 
L 85.087927 163.262366 
L 85.194324 163.064977 
L 85.107272 163.328162 
L 85.203997 163.130757 
L 85.281376 163.262366 
L 85.242687 163.064977 
L 85.310394 163.196554 
L 85.349084 163.130757 
L 85.378101 163.328162 
L 85.407119 163.262366 
L 85.426464 163.393943 
L 85.474826 163.064977 
L 85.494171 163.262366 
L 85.523188 163.328162 
L 85.600568 163.130757 
L 85.610241 163.328162 
L 85.629585 163.064977 
L 85.706965 163.196554 
L 85.794017 163.064977 
L 85.745655 163.328162 
L 85.80369 163.262366 
L 85.84238 163.262366 
L 85.900415 162.999164 
L 85.939105 163.262366 
L 85.948777 163.393943 
L 85.968122 163.130757 
L 86.045502 163.196554 
L 86.171244 163.393943 
L 86.209934 163.130757 
L 86.306658 163.196554 
L 86.355021 163.393943 
L 86.326003 163.130757 
L 86.413056 163.262366 
L 86.432401 163.328162 
L 86.54847 163.064977 
L 86.654867 163.262366 
L 86.66454 163.130757 
L 86.722575 163.328162 
L 86.770937 163.262366 
L 86.799954 163.393943 
L 86.887007 163.130757 
L 86.935369 163.393943 
L 87.003076 163.328162 
L 87.099801 163.196554 
L 87.109473 163.328162 
L 87.186853 163.393943 
L 87.177181 163.130757 
L 87.196526 163.262366 
L 87.273905 163.064977 
L 87.235216 163.328162 
L 87.312595 163.196554 
L 87.322268 163.393943 
L 87.360958 163.130757 
L 87.428665 163.328162 
L 87.515717 163.064977 
L 87.535062 163.130757 
L 87.56408 163.064977 
L 87.651132 163.262366 
L 87.738184 163.130757 
L 87.747857 163.196554 
L 87.776874 163.393943 
L 87.854254 163.196554 
L 87.921961 163.328162 
L 87.970323 163.262366 
L 87.989668 163.328162 
L 88.086393 163.196554 
L 88.1541 163.130757 
L 88.183118 163.262366 
L 88.289515 163.064977 
L 88.299187 163.130757 
L 88.366895 163.064977 
L 88.405585 163.262366 
L 88.463619 163.064977 
L 88.521654 163.196554 
L 88.540999 163.262366 
L 88.637724 163.130757 
L 88.724776 163.328162 
L 88.676414 163.064977 
L 88.744121 163.130757 
L 88.792483 163.064977 
L 88.811828 162.999164 
L 88.850518 163.196554 
L 88.889208 163.130757 
L 88.927898 163.196554 
L 89.005278 162.999164 
L 89.034295 163.130757 
L 89.140692 163.196554 
L 89.256762 162.999164 
L 89.276107 163.064977 
L 89.382504 162.867588 
L 89.392177 162.933368 
L 89.411521 162.999164 
L 89.421194 162.801775 
L 89.469556 163.130757 
L 89.517919 163.064977 
L 89.585626 162.801775 
L 89.575954 163.130757 
L 89.643661 162.933368 
L 89.692023 163.130757 
L 89.730713 162.801775 
L 89.750058 162.999164 
L 89.779075 162.867588 
L 89.827438 163.064977 
L 89.83711 162.933368 
L 89.904818 163.130757 
L 89.943507 163.064977 
L 89.982197 162.867588 
L 90.049905 162.999164 
L 90.117612 163.130757 
L 90.078922 162.933368 
L 90.156302 163.064977 
L 90.224009 162.867588 
L 90.214337 163.130757 
L 90.262699 162.999164 
L 90.359424 163.130757 
L 90.320734 162.801775 
L 90.369096 162.999164 
L 90.378769 162.999164 
L 90.398114 163.130757 
L 90.427131 162.933368 
L 90.475493 162.999164 
L 90.485166 162.867588 
L 90.494838 163.130757 
L 90.58189 162.999164 
L 90.610908 162.933368 
L 90.707633 163.196554 
L 90.804357 162.933368 
L 90.823702 163.064977 
L 90.881737 163.196554 
L 90.939772 162.933368 
L 90.949444 162.933368 
L 91.026824 162.867588 
L 91.075186 163.130757 
L 91.162239 162.999164 
L 91.181584 163.130757 
L 91.191256 163.130757 
L 91.297653 162.999164 
L 91.307326 163.130757 
L 91.394378 162.867588 
L 91.40405 162.670199 
L 91.433068 163.196554 
L 91.491103 163.064977 
L 91.529793 162.933368 
L 91.510448 163.130757 
L 91.587827 163.064977 
L 91.665207 163.130757 
L 91.63619 162.933368 
L 91.67488 162.999164 
L 91.703897 162.867588 
L 91.694225 163.196554 
L 91.771604 162.933368 
L 91.878002 163.130757 
L 91.887674 162.999164 
L 91.965054 163.130757 
L 91.936036 162.933368 
L 91.984399 163.064977 
L 92.090796 162.867588 
L 92.042434 163.130757 
L 92.100468 162.933368 
L 92.139158 163.130757 
L 92.177848 162.801775 
L 92.206866 162.933368 
L 92.216538 162.867588 
L 92.235883 163.064977 
L 92.293918 163.064977 
L 92.38097 163.064977 
L 92.390642 163.196554 
L 92.409987 162.933368 
L 92.487367 163.064977 
L 92.555074 163.130757 
L 92.622782 162.867588 
L 92.729179 163.130757 
L 92.651799 162.801775 
L 92.758196 163.064977 
L 92.767869 163.064977 
L 92.816231 163.130757 
L 92.883938 162.933368 
L 92.922628 162.933368 
L 92.961318 162.801775 
L 93.038698 163.064977 
L 93.04837 162.801775 
L 93.058043 163.130757 
L 93.145095 163.130757 
L 93.270837 162.933368 
L 93.377234 163.130757 
L 93.386907 162.999164 
L 93.406252 162.999164 
L 93.415924 162.867588 
L 93.502977 162.999164 
L 93.512649 163.130757 
L 93.570684 162.735979 
L 93.609374 163.064977 
L 93.677081 162.867588 
L 93.706099 163.064977 
L 93.715771 163.196554 
L 93.793151 162.867588 
L 93.812496 163.130757 
L 93.851186 162.933368 
L 93.918893 163.196554 
L 94.015618 162.999164 
L 93.94791 163.262366 
L 94.02529 163.130757 
L 94.034963 163.262366 
L 94.073652 162.933368 
L 94.131687 163.130757 
L 94.209067 162.999164 
L 94.170377 163.262366 
L 94.247757 163.064977 
L 94.286447 163.262366 
L 94.363827 163.130757 
L 94.402516 163.262366 
L 94.489569 162.999164 
L 94.557276 163.130757 
L 94.537931 162.933368 
L 94.586293 162.999164 
L 94.673346 162.933368 
L 94.615311 163.130757 
L 94.683018 162.999164 
L 94.712035 162.933368 
L 94.799088 163.196554 
L 94.88614 162.867588 
L 94.915157 162.933368 
L 94.96352 163.196554 
L 95.031227 162.999164 
L 95.069917 163.064977 
L 95.079589 163.130757 
L 95.098934 162.933368 
L 95.147297 163.064977 
L 95.234349 163.130757 
L 95.253694 162.867588 
L 95.360091 163.064977 
L 95.321401 162.801775 
L 95.369763 162.933368 
L 95.389108 162.867588 
L 95.418126 162.801775 
L 95.427798 163.064977 
L 95.466488 163.064977 
L 95.476161 163.064977 
L 95.572885 162.735979 
L 95.59223 162.867588 
L 95.611575 162.999164 
L 95.659938 162.735979 
L 95.679283 162.735979 
L 95.688955 162.735979 
L 95.698627 162.604402 
L 95.737317 162.999164 
L 95.795352 162.801775 
L 95.872732 162.604402 
L 95.911422 162.933368 
L 95.930767 162.670199 
L 96.008147 162.867588 
L 96.017819 163.064977 
L 96.046836 162.735979 
L 96.114544 162.867588 
L 96.124216 162.933368 
L 96.162906 162.604402 
L 96.201596 162.735979 
L 96.211268 162.604402 
L 96.269303 162.801775 
L 96.307993 162.670199 
L 96.346683 162.735979 
L 96.3757 162.604402 
L 96.395045 162.604402 
L 96.404718 162.47281 
L 96.424063 162.670199 
L 96.501443 162.53859 
L 96.578822 162.735979 
L 96.53046 162.407013 
L 96.627185 162.670199 
L 96.656202 162.604402 
L 96.665875 162.407013 
L 96.762599 162.47281 
L 96.849651 162.53859 
L 96.781944 162.407013 
L 96.868996 162.47281 
L 96.927031 162.53859 
L 96.985066 162.275405 
L 97.023756 162.604402 
L 97.091463 162.407013 
L 97.120481 162.341201 
L 97.159171 162.53859 
L 97.188188 162.407013 
L 97.265568 162.53859 
L 97.23655 162.341201 
L 97.304258 162.47281 
L 97.333275 162.341201 
L 97.39131 162.604402 
L 97.400982 162.53859 
L 97.459017 162.604402 
L 97.43 162.407013 
L 97.488035 162.47281 
L 97.536397 162.604402 
L 97.575087 162.341201 
L 97.642794 162.604402 
L 97.681484 162.53859 
L 97.739519 162.341201 
L 97.787881 162.47281 
L 97.903951 162.604402 
L 97.913623 162.407013 
L 97.942641 162.735979 
L 98.010348 162.670199 
L 98.02002 162.801775 
L 98.078055 162.53859 
L 98.116745 162.670199 
L 98.165108 162.604402 
L 98.21347 162.47281 
L 98.242487 162.670199 
L 98.261832 162.670199 
L 98.319867 162.867588 
L 98.29085 162.604402 
L 98.358557 162.670199 
L 98.368229 162.53859 
L 98.406919 162.735979 
L 98.464954 162.670199 
L 98.484299 162.670199 
L 98.581024 162.47281 
L 98.513316 162.735979 
L 98.600369 162.53859 
L 98.619714 162.801775 
L 98.706766 162.670199 
L 98.726111 162.47281 
L 98.822836 162.604402 
L 98.861525 162.604402 
L 98.871198 162.47281 
L 98.900215 162.735979 
L 98.967923 162.604402 
L 99.025957 162.53859 
L 99.083992 162.735979 
L 99.190389 162.47281 
L 99.200062 162.604402 
L 99.229079 162.53859 
L 99.238752 162.867588 
L 99.335476 162.604402 
L 99.422529 162.53859 
L 99.364494 162.735979 
L 99.432201 162.670199 
L 99.451546 162.735979 
L 99.461219 162.53859 
L 99.567616 162.604402 
L 99.586961 162.47281 
L 99.625651 162.867588 
L 99.66434 162.604402 
L 99.693358 162.867588 
L 99.732048 162.47281 
L 99.78041 162.735979 
L 99.828772 162.47281 
L 99.886807 162.604402 
L 99.983532 162.735979 
L 100.002877 162.670199 
L 100.089929 162.47281 
L 100.031894 162.735979 
L 100.128619 162.53859 
L 100.167309 162.604402 
L 100.244689 162.407013 
L 100.273706 162.53859 
L 100.322068 162.670199 
L 100.370431 162.407013 
L 100.380103 162.604402 
L 100.467156 162.407013 
L 100.4865 162.53859 
L 100.496173 162.735979 
L 100.505845 162.47281 
L 100.592898 162.47281 
L 100.660605 162.407013 
L 100.670277 162.735979 
L 100.767002 162.53859 
L 100.815364 162.275405 
L 100.863727 162.604402 
L 100.892744 162.407013 
L 100.931434 162.53859 
L 100.912089 162.275405 
L 100.999141 162.407013 
L 101.076521 162.275405 
L 101.018486 162.47281 
L 101.095866 162.47281 
L 101.163573 162.407013 
L 101.173246 162.341201 
L 101.202263 162.53859 
L 101.269971 162.407013 
L 101.357023 162.604402 
L 101.376368 162.47281 
L 101.444075 162.604402 
L 101.482765 162.341201 
L 101.57949 162.604402 
L 101.589162 162.53859 
L 101.598835 162.341201 
L 101.627852 162.604402 
L 101.695559 162.53859 
L 101.724577 162.53859 
L 101.801957 162.670199 
L 101.743922 162.47281 
L 101.830974 162.53859 
L 101.840646 162.53859 
L 101.850319 162.407013 
L 101.937371 162.604402 
L 101.947044 162.53859 
L 101.956716 162.53859 
L 101.966389 162.407013 
L 102.043768 162.670199 
L 102.072786 162.47281 
L 102.082458 162.407013 
L 102.092131 162.53859 
L 102.16951 162.47281 
L 102.227545 162.735979 
L 102.198528 162.407013 
L 102.28558 162.604402 
L 102.382305 162.47281 
L 102.36296 162.670199 
L 102.391977 162.604402 
L 102.40165 162.604402 
L 102.44034 162.407013 
L 102.508047 162.604402 
L 102.537064 162.53859 
L 102.643461 162.47281 
L 102.740186 162.53859 
L 102.711169 162.407013 
L 102.749859 162.47281 
L 102.769204 162.53859 
L 102.778876 162.341201 
L 102.856256 162.801775 
L 102.875601 162.604402 
L 102.914291 162.47281 
L 102.981998 162.670199 
L 103.011015 162.407013 
L 103.088395 162.604402 
L 103.127085 162.735979 
L 103.14643 162.47281 
L 103.175447 162.47281 
L 103.18512 162.407013 
L 103.194792 162.735979 
L 103.252827 162.53859 
L 103.359224 162.670199 
L 103.301189 162.47281 
L 103.368897 162.604402 
L 103.388242 162.604402 
L 103.397914 162.735979 
L 103.417259 162.47281 
L 103.504311 162.670199 
L 103.513984 162.670199 
L 103.601036 162.47281 
L 103.630053 162.53859 
L 103.668743 162.53859 
L 103.678416 162.670199 
L 103.707433 162.341201 
L 103.765468 162.341201 
L 103.794485 162.670199 
L 103.823503 162.275405 
L 103.881538 162.407013 
L 103.89121 162.341201 
L 103.958917 162.53859 
L 104.026625 162.275405 
L 104.055642 162.604402 
L 104.094332 162.341201 
L 104.104005 162.735979 
L 104.162039 162.604402 
L 104.171712 162.604402 
L 104.181384 162.735979 
L 104.191057 162.47281 
L 104.278109 162.53859 
L 104.297454 162.53859 
L 104.374834 162.735979 
L 104.326471 162.407013 
L 104.403851 162.604402 
L 104.423196 162.407013 
L 104.510248 162.670199 
L 104.519921 162.47281 
L 104.548938 162.407013 
L 104.645663 162.735979 
L 104.684353 162.341201 
L 104.761733 162.53859 
L 104.771405 162.735979 
L 104.800422 162.47281 
L 104.858457 162.47281 
L 104.86813 162.341201 
L 104.945509 162.801775 
L 104.964854 162.53859 
L 104.974527 162.53859 
L 105.071252 162.735979 
L 105.032562 162.47281 
L 105.090597 162.670199 
L 105.109941 162.604402 
L 105.119614 162.407013 
L 105.129286 162.735979 
L 105.216339 162.47281 
L 105.293718 162.735979 
L 105.342081 162.670199 
L 105.400116 162.735979 
L 105.419461 162.53859 
L 105.429133 162.604402 
L 105.467823 162.801775 
L 105.545203 162.53859 
L 105.641927 162.735979 
L 105.632255 162.47281 
L 105.6516 162.53859 
L 105.680617 162.47281 
L 105.777342 162.735979 
L 105.864394 162.53859 
L 105.883739 162.735979 
L 105.999809 162.53859 
L 106.009481 162.604402 
L 106.048171 162.735979 
L 106.028826 162.407013 
L 106.096534 162.604402 
L 106.193258 162.407013 
L 106.144896 162.670199 
L 106.202931 162.53859 
L 106.212603 162.735979 
L 106.222276 162.407013 
L 106.309328 162.53859 
L 106.348018 162.604402 
L 106.43507 162.735979 
L 106.377035 162.53859 
L 106.454415 162.53859 
L 106.531795 162.735979 
L 106.541467 162.53859 
L 106.58983 162.407013 
L 106.570485 162.735979 
L 106.638192 162.670199 
L 106.686554 162.670199 
L 106.802624 162.53859 
L 106.831641 162.604402 
L 106.841314 162.867588 
L 106.880004 162.47281 
L 106.938038 162.604402 
L 106.986401 162.801775 
L 106.996073 162.407013 
L 107.054108 162.670199 
L 107.073453 162.801775 
L 107.150833 162.604402 
L 107.199195 162.801775 
L 107.247558 162.670199 
L 107.25723 162.47281 
L 107.33461 162.801775 
L 107.353955 162.604402 
L 107.363627 162.735979 
L 107.41199 162.47281 
L 107.460352 162.604402 
L 107.479697 162.670199 
L 107.586094 162.47281 
L 107.702164 162.670199 
L 107.789216 162.407013 
L 107.818233 162.604402 
L 107.856923 162.47281 
L 107.934303 162.53859 
L 107.982665 162.53859 
L 108.021355 162.341201 
L 108.108407 162.735979 
L 108.137425 162.47281 
L 108.224477 162.670199 
L 108.321202 162.47281 
L 108.340547 162.53859 
L 108.398582 162.604402 
L 108.379237 162.47281 
L 108.446944 162.53859 
L 108.495306 162.47281 
L 108.533996 162.53859 
L 108.592031 162.341201 
L 108.698428 162.604402 
L 108.708101 162.53859 
L 108.727446 162.341201 
L 108.82417 162.801775 
L 108.90155 162.53859 
L 108.94024 162.604402 
L 109.046637 162.670199 
L 109.114344 162.735979 
L 109.065982 162.53859 
L 109.143362 162.604402 
L 109.211069 162.341201 
L 109.162707 162.670199 
L 109.269104 162.47281 
L 109.278776 162.47281 
L 109.365829 162.670199 
L 109.394846 162.604402 
L 109.443208 162.670199 
L 109.539933 162.407013 
L 109.559278 162.53859 
L 109.56895 162.53859 
L 109.626985 162.735979 
L 109.588295 162.47281 
L 109.675348 162.47281 
L 109.694693 162.47281 
L 109.791417 162.670199 
L 109.810762 162.604402 
L 109.888142 162.735979 
L 109.917159 162.407013 
L 109.975194 162.867588 
L 110.023557 162.670199 
L 110.091264 162.735979 
L 110.139626 162.53859 
L 110.236351 162.670199 
L 110.255696 162.604402 
L 110.265368 162.604402 
L 110.362093 162.735979 
L 110.313731 162.53859 
L 110.371766 162.604402 
L 110.381438 162.47281 
L 110.4298 162.735979 
L 110.46849 162.670199 
L 110.478163 162.801775 
L 110.50718 162.407013 
L 110.574887 162.604402 
L 110.62325 162.604402 
L 110.70063 162.735979 
L 110.681285 162.47281 
L 110.729647 162.670199 
L 110.748992 162.801775 
L 110.855389 162.53859 
L 110.894079 162.801775 
L 110.923096 162.47281 
L 110.961786 162.604402 
L 111.039166 162.53859 
L 111.029494 162.670199 
L 111.068183 162.604402 
L 111.116546 162.735979 
L 111.145563 162.53859 
L 111.184253 162.670199 
L 111.193926 162.670199 
L 111.25196 162.407013 
L 111.309995 162.47281 
L 111.435737 162.801775 
L 111.532462 162.53859 
L 111.551807 162.604402 
L 111.571152 162.735979 
L 111.600169 162.47281 
L 111.658204 162.604402 
L 111.716239 162.47281 
L 111.725911 162.735979 
L 111.774274 162.53859 
L 111.870999 162.47281 
L 111.803291 162.670199 
L 111.880671 162.53859 
L 111.890343 162.53859 
L 111.977396 162.735979 
L 111.938706 162.47281 
L 112.006413 162.604402 
L 112.045103 162.735979 
L 112.035431 162.53859 
L 112.103138 162.604402 
L 112.1515 162.53859 
L 112.132155 162.735979 
L 112.19019 162.604402 
L 112.286915 162.735979 
L 112.209535 162.47281 
L 112.296587 162.53859 
L 112.383639 162.735979 
L 112.393312 162.47281 
L 112.402984 162.670199 
L 112.432002 162.53859 
L 112.441674 163.064977 
L 112.451347 165.96 
L 112.528727 156.35375 
L 112.857591 128.192906 
L 113.408921 101.216397 
L 113.91189 79.306218 
L 113.931235 81.543298 
L 114.308461 103.519277 
L 114.530928 108.980366 
L 115.208001 116.678538 
L 115.217673 116.61275 
L 115.256363 117.00752 
L 115.266036 116.875927 
L 115.449813 117.928676 
L 115.459485 117.928676 
L 115.585227 118.520836 
L 115.720642 119.244595 
L 115.730314 119.178807 
L 115.778677 119.441992 
L 115.798022 119.376188 
L 115.923764 119.968363 
L 115.933436 119.902559 
L 116.107541 120.363133 
L 116.117213 120.23154 
L 116.194593 120.626327 
L 116.204265 120.428938 
L 116.310663 121.021105 
L 116.426732 14.76 
L 248.359233 14.76 
L 248.359233 14.76 
" clip-path="url(#p14e07e7ad9)" style="fill: none; stroke: #000000; stroke-opacity: 0.5; stroke-width: 1.5; stroke-linecap: square"/>
   </g>
   <g id="patch_3">
    <path d="M 35.304688 173.52 
L 35.304688 7.2 
" style="fill: none; stroke: #000000; stroke-width: 0.8; stroke-linejoin: miter; stroke-linecap: square"/>
   </g>
   <g id="patch_4">
    <path d="M 35.304688 173.52 
L 258.504687 173.52 
" style="fill: none; stroke: #000000; stroke-width: 0.8; stroke-linejoin: miter; stroke-linecap: square"/>
   </g>
  </g>
 </g>
 <defs>
  <clipPath id="p14e07e7ad9">
   <rect x="35.304688" y="7.2" width="223.2" height="166.32"/>
  </clipPath>
 </defs>
</svg>
