<?xml version="1.0" encoding="utf-8" standalone="no"?>
<!DOCTYPE svg PUBLIC "-//W3C//DTD SVG 1.1//EN"
  "http://www.w3.org/Graphics/SVG/1.1/DTD/svg11.dtd">
<svg xmlns:xlink="http://www.w3.org/1999/xlink" width="460.8pt" height="345.6pt" viewBox="0 0 460.8 345.6" xmlns="http://www.w3.org/2000/svg" version="1.1">
 <metadata>
  <rdf:RDF xmlns:dc="http://purl.org/dc/elements/1.1/" xmlns:cc="http://creativecommons.org/ns#" xmlns:rdf="http://www.w3.org/1999/02/22-rdf-syntax-ns#">
   <cc:Work>
    <dc:type rdf:resource="http://purl.org/dc/dcmitype/StillImage"/>
    <dc:date>2024-02-29T19:36:27.053148</dc:date>
    <dc:format>image/svg+xml</dc:format>
    <dc:creator>
     <cc:Agent>
      <dc:title>Matplotlib v3.6.2, https://matplotlib.org/</dc:title>
     </cc:Agent>
    </dc:creator>
   </cc:Work>
  </rdf:RDF>
 </metadata>
 <defs>
  <style type="text/css">*{stroke-linejoin: round; stroke-linecap: butt}</style>
 </defs>
 <g id="figure_1">
  <g id="patch_1">
   <path d="M 0 345.6 
L 460.8 345.6 
L 460.8 0 
L 0 0 
z
" style="fill: #ffffff"/>
  </g>
  <g id="axes_1">
   <g id="patch_2">
    <path d="M 57.6 307.584 
L 414.72 307.584 
L 414.72 41.472 
L 57.6 41.472 
z
" style="fill: #ffffff"/>
   </g>
   <g id="matplotlib.axis_1">
    <g id="xtick_1">
     <g id="line2d_1">
      <defs>
       <path id="m3027c362de" d="M 0 0 
L 0 3.5 
" style="stroke: #000000; stroke-width: 0.8"/>
      </defs>
      <g>
       <use xlink:href="#m3027c362de" x="121.347784" y="307.584" style="stroke: #000000; stroke-width: 0.8"/>
      </g>
     </g>
     <g id="text_1">
      <!-- 0.2 -->
      <g transform="translate(113.396222 322.182437) scale(0.1 -0.1)">
       <defs>
        <path id="DejaVuSans-30" d="M 2034 4250 
Q 1547 4250 1301 3770 
Q 1056 3291 1056 2328 
Q 1056 1369 1301 889 
Q 1547 409 2034 409 
Q 2525 409 2770 889 
Q 3016 1369 3016 2328 
Q 3016 3291 2770 3770 
Q 2525 4250 2034 4250 
z
M 2034 4750 
Q 2819 4750 3233 4129 
Q 3647 3509 3647 2328 
Q 3647 1150 3233 529 
Q 2819 -91 2034 -91 
Q 1250 -91 836 529 
Q 422 1150 422 2328 
Q 422 3509 836 4129 
Q 1250 4750 2034 4750 
z
" transform="scale(0.015625)"/>
        <path id="DejaVuSans-2e" d="M 684 794 
L 1344 794 
L 1344 0 
L 684 0 
L 684 794 
z
" transform="scale(0.015625)"/>
        <path id="DejaVuSans-32" d="M 1228 531 
L 3431 531 
L 3431 0 
L 469 0 
L 469 531 
Q 828 903 1448 1529 
Q 2069 2156 2228 2338 
Q 2531 2678 2651 2914 
Q 2772 3150 2772 3378 
Q 2772 3750 2511 3984 
Q 2250 4219 1831 4219 
Q 1534 4219 1204 4116 
Q 875 4013 500 3803 
L 500 4441 
Q 881 4594 1212 4672 
Q 1544 4750 1819 4750 
Q 2544 4750 2975 4387 
Q 3406 4025 3406 3419 
Q 3406 3131 3298 2873 
Q 3191 2616 2906 2266 
Q 2828 2175 2409 1742 
Q 1991 1309 1228 531 
z
" transform="scale(0.015625)"/>
       </defs>
       <use xlink:href="#DejaVuSans-30"/>
       <use xlink:href="#DejaVuSans-2e" x="63.623047"/>
       <use xlink:href="#DejaVuSans-32" x="95.410156"/>
      </g>
     </g>
    </g>
    <g id="xtick_2">
     <g id="line2d_2">
      <g>
       <use xlink:href="#m3027c362de" x="200.539546" y="307.584" style="stroke: #000000; stroke-width: 0.8"/>
      </g>
     </g>
     <g id="text_2">
      <!-- 0.4 -->
      <g transform="translate(192.587983 322.182437) scale(0.1 -0.1)">
       <defs>
        <path id="DejaVuSans-34" d="M 2419 4116 
L 825 1625 
L 2419 1625 
L 2419 4116 
z
M 2253 4666 
L 3047 4666 
L 3047 1625 
L 3713 1625 
L 3713 1100 
L 3047 1100 
L 3047 0 
L 2419 0 
L 2419 1100 
L 313 1100 
L 313 1709 
L 2253 4666 
z
" transform="scale(0.015625)"/>
       </defs>
       <use xlink:href="#DejaVuSans-30"/>
       <use xlink:href="#DejaVuSans-2e" x="63.623047"/>
       <use xlink:href="#DejaVuSans-34" x="95.410156"/>
      </g>
     </g>
    </g>
    <g id="xtick_3">
     <g id="line2d_3">
      <g>
       <use xlink:href="#m3027c362de" x="279.731307" y="307.584" style="stroke: #000000; stroke-width: 0.8"/>
      </g>
     </g>
     <g id="text_3">
      <!-- 0.6 -->
      <g transform="translate(271.779745 322.182437) scale(0.1 -0.1)">
       <defs>
        <path id="DejaVuSans-36" d="M 2113 2584 
Q 1688 2584 1439 2293 
Q 1191 2003 1191 1497 
Q 1191 994 1439 701 
Q 1688 409 2113 409 
Q 2538 409 2786 701 
Q 3034 994 3034 1497 
Q 3034 2003 2786 2293 
Q 2538 2584 2113 2584 
z
M 3366 4563 
L 3366 3988 
Q 3128 4100 2886 4159 
Q 2644 4219 2406 4219 
Q 1781 4219 1451 3797 
Q 1122 3375 1075 2522 
Q 1259 2794 1537 2939 
Q 1816 3084 2150 3084 
Q 2853 3084 3261 2657 
Q 3669 2231 3669 1497 
Q 3669 778 3244 343 
Q 2819 -91 2113 -91 
Q 1303 -91 875 529 
Q 447 1150 447 2328 
Q 447 3434 972 4092 
Q 1497 4750 2381 4750 
Q 2619 4750 2861 4703 
Q 3103 4656 3366 4563 
z
" transform="scale(0.015625)"/>
       </defs>
       <use xlink:href="#DejaVuSans-30"/>
       <use xlink:href="#DejaVuSans-2e" x="63.623047"/>
       <use xlink:href="#DejaVuSans-36" x="95.410156"/>
      </g>
     </g>
    </g>
    <g id="xtick_4">
     <g id="line2d_4">
      <g>
       <use xlink:href="#m3027c362de" x="358.923069" y="307.584" style="stroke: #000000; stroke-width: 0.8"/>
      </g>
     </g>
     <g id="text_4">
      <!-- 0.8 -->
      <g transform="translate(350.971506 322.182437) scale(0.1 -0.1)">
       <defs>
        <path id="DejaVuSans-38" d="M 2034 2216 
Q 1584 2216 1326 1975 
Q 1069 1734 1069 1313 
Q 1069 891 1326 650 
Q 1584 409 2034 409 
Q 2484 409 2743 651 
Q 3003 894 3003 1313 
Q 3003 1734 2745 1975 
Q 2488 2216 2034 2216 
z
M 1403 2484 
Q 997 2584 770 2862 
Q 544 3141 544 3541 
Q 544 4100 942 4425 
Q 1341 4750 2034 4750 
Q 2731 4750 3128 4425 
Q 3525 4100 3525 3541 
Q 3525 3141 3298 2862 
Q 3072 2584 2669 2484 
Q 3125 2378 3379 2068 
Q 3634 1759 3634 1313 
Q 3634 634 3220 271 
Q 2806 -91 2034 -91 
Q 1263 -91 848 271 
Q 434 634 434 1313 
Q 434 1759 690 2068 
Q 947 2378 1403 2484 
z
M 1172 3481 
Q 1172 3119 1398 2916 
Q 1625 2713 2034 2713 
Q 2441 2713 2670 2916 
Q 2900 3119 2900 3481 
Q 2900 3844 2670 4047 
Q 2441 4250 2034 4250 
Q 1625 4250 1398 4047 
Q 1172 3844 1172 3481 
z
" transform="scale(0.015625)"/>
       </defs>
       <use xlink:href="#DejaVuSans-30"/>
       <use xlink:href="#DejaVuSans-2e" x="63.623047"/>
       <use xlink:href="#DejaVuSans-38" x="95.410156"/>
      </g>
     </g>
    </g>
   </g>
   <g id="matplotlib.axis_2">
    <g id="ytick_1">
     <g id="line2d_5">
      <defs>
       <path id="m80cdb17e1f" d="M 0 0 
L -3.5 0 
" style="stroke: #000000; stroke-width: 0.8"/>
      </defs>
      <g>
       <use xlink:href="#m80cdb17e1f" x="57.6" y="297.558973" style="stroke: #000000; stroke-width: 0.8"/>
      </g>
     </g>
     <g id="text_5">
      <!-- −100 -->
      <g transform="translate(23.132812 301.358192) scale(0.1 -0.1)">
       <defs>
        <path id="DejaVuSans-2212" d="M 678 2272 
L 4684 2272 
L 4684 1741 
L 678 1741 
L 678 2272 
z
" transform="scale(0.015625)"/>
        <path id="DejaVuSans-31" d="M 794 531 
L 1825 531 
L 1825 4091 
L 703 3866 
L 703 4441 
L 1819 4666 
L 2450 4666 
L 2450 531 
L 3481 531 
L 3481 0 
L 794 0 
L 794 531 
z
" transform="scale(0.015625)"/>
       </defs>
       <use xlink:href="#DejaVuSans-2212"/>
       <use xlink:href="#DejaVuSans-31" x="83.789062"/>
       <use xlink:href="#DejaVuSans-30" x="147.412109"/>
       <use xlink:href="#DejaVuSans-30" x="211.035156"/>
      </g>
     </g>
    </g>
    <g id="ytick_2">
     <g id="line2d_6">
      <g>
       <use xlink:href="#m80cdb17e1f" x="57.6" y="264.858567" style="stroke: #000000; stroke-width: 0.8"/>
      </g>
     </g>
     <g id="text_6">
      <!-- −80 -->
      <g transform="translate(29.495313 268.657786) scale(0.1 -0.1)">
       <use xlink:href="#DejaVuSans-2212"/>
       <use xlink:href="#DejaVuSans-38" x="83.789062"/>
       <use xlink:href="#DejaVuSans-30" x="147.412109"/>
      </g>
     </g>
    </g>
    <g id="ytick_3">
     <g id="line2d_7">
      <g>
       <use xlink:href="#m80cdb17e1f" x="57.6" y="232.158162" style="stroke: #000000; stroke-width: 0.8"/>
      </g>
     </g>
     <g id="text_7">
      <!-- −60 -->
      <g transform="translate(29.495313 235.957381) scale(0.1 -0.1)">
       <use xlink:href="#DejaVuSans-2212"/>
       <use xlink:href="#DejaVuSans-36" x="83.789062"/>
       <use xlink:href="#DejaVuSans-30" x="147.412109"/>
      </g>
     </g>
    </g>
    <g id="ytick_4">
     <g id="line2d_8">
      <g>
       <use xlink:href="#m80cdb17e1f" x="57.6" y="199.457756" style="stroke: #000000; stroke-width: 0.8"/>
      </g>
     </g>
     <g id="text_8">
      <!-- −40 -->
      <g transform="translate(29.495313 203.256975) scale(0.1 -0.1)">
       <use xlink:href="#DejaVuSans-2212"/>
       <use xlink:href="#DejaVuSans-34" x="83.789062"/>
       <use xlink:href="#DejaVuSans-30" x="147.412109"/>
      </g>
     </g>
    </g>
    <g id="ytick_5">
     <g id="line2d_9">
      <g>
       <use xlink:href="#m80cdb17e1f" x="57.6" y="166.757351" style="stroke: #000000; stroke-width: 0.8"/>
      </g>
     </g>
     <g id="text_9">
      <!-- −20 -->
      <g transform="translate(29.495313 170.556569) scale(0.1 -0.1)">
       <use xlink:href="#DejaVuSans-2212"/>
       <use xlink:href="#DejaVuSans-32" x="83.789062"/>
       <use xlink:href="#DejaVuSans-30" x="147.412109"/>
      </g>
     </g>
    </g>
    <g id="ytick_6">
     <g id="line2d_10">
      <g>
       <use xlink:href="#m80cdb17e1f" x="57.6" y="134.056945" style="stroke: #000000; stroke-width: 0.8"/>
      </g>
     </g>
     <g id="text_10">
      <!-- 0 -->
      <g transform="translate(44.2375 137.856164) scale(0.1 -0.1)">
       <use xlink:href="#DejaVuSans-30"/>
      </g>
     </g>
    </g>
    <g id="ytick_7">
     <g id="line2d_11">
      <g>
       <use xlink:href="#m80cdb17e1f" x="57.6" y="101.356539" style="stroke: #000000; stroke-width: 0.8"/>
      </g>
     </g>
     <g id="text_11">
      <!-- 20 -->
      <g transform="translate(37.875 105.155758) scale(0.1 -0.1)">
       <use xlink:href="#DejaVuSans-32"/>
       <use xlink:href="#DejaVuSans-30" x="63.623047"/>
      </g>
     </g>
    </g>
    <g id="ytick_8">
     <g id="line2d_12">
      <g>
       <use xlink:href="#m80cdb17e1f" x="57.6" y="68.656134" style="stroke: #000000; stroke-width: 0.8"/>
      </g>
     </g>
     <g id="text_12">
      <!-- 40 -->
      <g transform="translate(37.875 72.455353) scale(0.1 -0.1)">
       <use xlink:href="#DejaVuSans-34"/>
       <use xlink:href="#DejaVuSans-30" x="63.623047"/>
      </g>
     </g>
    </g>
   </g>
   <g id="line2d_13">
    <path d="M 73.832727 232.851819 
L 74.070303 232.897817 
L 74.292039 232.861266 
L 75.036442 232.81721 
L 75.178987 232.863111 
L 75.337371 232.868782 
L 75.559108 232.860054 
L 75.860036 232.771857 
L 76.145127 232.650818 
L 76.842014 232.643472 
L 76.968721 232.722575 
L 77.111266 232.84644 
L 77.142943 232.81414 
L 77.253811 232.769177 
L 77.285488 232.802805 
L 77.507225 232.896654 
L 77.665609 232.8329 
L 78.077406 232.813665 
L 78.330819 232.943859 
L 79.328636 232.909597 
L 80.358128 233.212152 
L 80.516512 233.244665 
L 81.276753 233.215648 
L 81.641035 233.390043 
L 81.704388 234.513411 
L 82.163701 246.485411 
L 82.733881 252.989495 
L 83.494122 259.59207 
L 85.299694 271.631844 
L 87.200297 280.518138 
L 88.198113 283.728105 
L 88.578233 284.841282 
L 90.843118 289.335678 
L 91.254915 289.999077 
L 91.666712 290.409179 
L 91.967641 290.783625 
L 92.617013 291.304728 
L 92.74372 291.385689 
L 93.060487 291.681574 
L 93.836566 292.272954 
L 94.438424 292.38739 
L 94.707676 292.63082 
L 94.739352 292.593056 
L 94.897736 292.531977 
L 94.913574 292.5507 
L 95.119473 292.656463 
L 95.34121 292.709929 
L 95.547108 292.699453 
L 96.133127 292.776625 
L 96.339026 292.920163 
L 96.386541 292.857366 
L 96.497409 292.893388 
L 97.431872 293.226513 
L 97.621932 293.337294 
L 97.843669 293.455751 
L 98.12876 293.545933 
L 98.588072 293.551342 
L 98.69894 293.60968 
L 98.873162 293.641987 
L 99.269121 293.818051 
L 99.459181 293.913069 
L 99.744272 293.902605 
L 99.870978 294.006797 
L 100.061039 294.127421 
L 100.314452 294.136789 
L 100.520351 294.142161 
L 101.549844 294.35164 
L 102.500145 294.400088 
L 103.149517 294.450971 
L 103.402931 294.44192 
L 103.624668 294.539923 
L 105.33521 294.683389 
L 105.588624 294.588906 
L 105.873714 294.60065 
L 106.142966 294.654201 
L 106.348865 294.670269 
L 106.475571 294.705645 
L 106.934884 294.823054 
L 107.140782 294.808228 
L 107.299166 294.845371 
L 107.647609 294.717656 
L 108.091083 294.692952 
L 108.328659 294.635624 
L 109.009708 294.586141 
L 109.37399 294.532443 
L 109.722434 294.526219 
L 109.912494 294.653202 
L 110.292614 294.791929 
L 110.498513 294.806767 
L 110.973663 294.827342 
L 112.288247 294.963973 
L 112.494145 294.939963 
L 112.652529 294.907559 
L 112.779236 294.979578 
L 113.064326 295.182272 
L 113.206871 295.245898 
L 113.444446 295.32871 
L 113.650345 295.289704 
L 114.141334 295.234203 
L 114.347232 295.282249 
L 114.632323 295.257641 
L 115.13915 295.207696 
L 116.548763 295.117367 
L 116.802177 295.121265 
L 116.944722 295.173343 
L 117.150621 295.166277 
L 117.324843 295.090604 
L 117.54658 295.103127 
L 117.847508 295.184964 
L 117.958377 295.126638 
L 118.100922 295.14223 
L 118.401851 295.238893 
L 118.576073 295.263915 
L 118.797809 295.14474 
L 118.924516 295.18131 
L 119.954009 295.438615 
L 121.87045 295.163147 
L 122.012995 295.132497 
L 122.203055 295.071746 
L 123.976951 295.005124 
L 124.182849 295.068238 
L 124.452101 295.099752 
L 124.75303 295.038173 
L 125.592463 295.122678 
L 125.735008 295.119986 
L 125.90923 295.119633 
L 126.146805 295.165717 
L 127.398035 295.218318 
L 127.714802 295.223617 
L 127.936539 295.2238 
L 128.966032 294.967262 
L 129.26696 294.883646 
L 129.710434 294.764581 
L 130.106393 294.877677 
L 130.993341 294.78875 
L 131.278431 294.81728 
L 131.801097 294.855433 
L 131.991157 294.919717 
L 132.133702 294.899129 
L 132.276247 294.916306 
L 132.672206 294.990981 
L 132.83059 295.078824 
L 133.052327 295.111678 
L 133.258225 295.114273 
L 133.511639 295.259383 
L 134.17685 295.16501 
L 135.127151 295.032606 
L 135.507271 294.938148 
L 136.09329 294.940389 
L 136.235835 294.864301 
L 136.346704 294.94179 
L 136.520926 294.957371 
L 136.695148 294.950098 
L 136.916884 295.05161 
L 137.392035 295.109437 
L 137.756317 295.008595 
L 137.946377 295.03866 
L 139.086739 295.076692 
L 139.736111 295.095221 
L 139.894495 295.115101 
L 140.03704 295.089812 
L 140.749766 294.98802 
L 140.876473 294.930546 
L 141.209078 294.824662 
L 141.367461 294.795291 
L 141.620875 294.666139 
L 142.143541 294.557538 
L 143.394771 294.472594 
L 143.854083 294.565542 
L 144.107496 294.464249 
L 144.804384 294.521114 
L 145.200343 294.394679 
L 147.069268 294.506058 
L 148.39969 294.478259 
L 148.748134 294.321125 
L 149.001547 294.33511 
L 149.254961 294.266635 
L 149.445021 294.167353 
L 149.619243 294.156487 
L 149.856818 294.13445 
L 150.886311 294.236583 
L 151.044695 294.267513 
L 151.234755 294.282362 
L 151.931642 294.291681 
L 152.280086 294.417751 
L 152.72356 294.430311 
L 152.834429 294.51439 
L 153.056165 294.536354 
L 153.658023 294.448413 
L 153.958952 294.246341 
L 155.32105 293.670931 
L 156.255513 293.627746 
L 156.445573 293.659443 
L 156.651471 293.714323 
L 156.904885 293.714359 
L 157.126622 293.750247 
L 157.300844 293.732644 
L 157.665126 293.65987 
L 157.855186 293.656434 
L 158.045246 293.674086 
L 158.219468 293.674232 
L 159.185608 293.788681 
L 159.755789 293.933754 
L 160.262616 293.807063 
L 160.436838 293.778984 
L 160.642736 293.826128 
L 160.753605 293.830489 
L 160.769443 293.81503 
L 160.959503 293.760687 
L 161.260432 293.758372 
L 161.846451 293.56546 
L 162.020673 293.558833 
L 162.258248 293.550611 
L 162.590854 293.63173 
L 162.71756 293.597998 
L 163.034327 293.538904 
L 163.842083 293.744071 
L 164.649839 293.744887 
L 164.824061 293.712057 
L 165.330889 293.758884 
L 165.600141 293.750856 
L 165.726847 293.8243 
L 166.344543 294.070642 
L 166.518765 294.088208 
L 166.645472 294.16153 
L 166.677148 294.125265 
L 166.867209 294.08286 
L 167.263167 293.967937 
L 167.484904 294.031672 
L 167.611611 293.919063 
L 167.643288 293.969545 
L 167.81751 294.08269 
L 168.023408 294.013509 
L 168.229307 293.94663 
L 169.116255 293.72324 
L 169.337992 293.645239 
L 169.876496 293.792956 
L 170.494191 293.866644 
L 170.668413 293.875756 
L 170.905989 293.860322 
L 171.111887 293.83312 
L 171.634553 293.771797 
L 171.824613 293.794808 
L 172.204733 293.711643 
L 172.442309 293.685586 
L 173.614347 293.534275 
L 173.756892 293.443033 
L 173.788569 293.475339 
L 173.915275 293.523652 
L 173.946952 293.493953 
L 174.152851 293.449185 
L 176.132645 292.867721 
L 176.65531 292.928337 
L 176.829532 292.945855 
L 177.098784 293.157015 
L 177.463066 293.062971 
L 177.969894 293.101088 
L 178.128277 293.108093 
L 178.302499 293.102757 
L 178.445044 293.122565 
L 178.603428 293.118837 
L 178.856841 293.109506 
L 179.458699 293.436308 
L 179.632921 293.422092 
L 179.886334 293.390212 
L 180.076395 293.3548 
L 180.250616 293.415197 
L 180.567383 293.327122 
L 181.676068 293.066821 
L 182.024512 293.085983 
L 182.515501 292.963385 
L 182.943136 293.023746 
L 184.384426 293.105571 
L 184.558648 293.057757 
L 184.859577 293.137829 
L 185.239697 293.157917 
L 185.413919 293.127998 
L 186.158322 293.371489 
L 186.680987 293.298666 
L 187.156138 293.263984 
L 187.393713 293.314819 
L 187.61545 293.317608 
L 187.80551 293.328243 
L 188.248984 293.084314 
L 188.67662 293.098189 
L 188.977548 293.056771 
L 189.436861 293.035099 
L 190.165425 293.184449 
L 190.719767 293.128802 
L 190.957343 293.039375 
L 191.210756 293.100041 
L 191.780937 292.810344 
L 192.018512 292.887333 
L 192.778753 293.053128 
L 193.19055 292.934989 
L 193.713216 292.901635 
L 194.44178 292.853638 
L 194.552649 292.798138 
L 194.584325 292.827411 
L 194.72687 292.804801 
L 194.980284 292.734865 
L 195.566303 292.702096 
L 195.740525 292.706579 
L 197.245168 292.638214 
L 197.451067 292.657791 
L 197.736157 292.673262 
L 198.369691 292.748765 
L 198.528075 292.77872 
L 198.76565 292.778939 
L 198.892357 292.803486 
L 198.908195 292.784287 
L 199.019064 292.738824 
L 199.050741 292.767866 
L 199.240801 292.827143 
L 200.001042 292.802828 
L 200.191102 292.876954 
L 200.792959 292.773713 
L 200.935504 292.731686 
L 201.917482 292.591363 
L 202.028351 292.500194 
L 202.170896 292.509574 
L 203.010329 292.305723 
L 204.229882 291.280255 
L 204.514972 291.337668 
L 205.005961 291.357585 
L 205.227698 291.407104 
L 205.544465 291.551252 
L 206.035454 291.876569 
L 206.177999 291.891942 
L 206.55812 291.982356 
L 206.795695 292.067142 
L 207.017432 292.196306 
L 207.540097 292.330745 
L 207.698481 292.358336 
L 207.888541 292.251014 
L 208.015248 292.296501 
L 208.56959 292.553612 
L 209.900012 292.632647 
L 210.058395 292.684798 
L 210.280132 292.719321 
L 211.103727 292.71345 
L 211.26211 292.763554 
L 211.277949 292.745366 
L 211.404655 292.682288 
L 211.436332 292.713693 
L 211.673907 292.81127 
L 211.832291 292.814961 
L 212.101543 292.942554 
L 212.560855 292.832259 
L 212.845945 292.791889 
L 213.226066 292.825949 
L 213.495318 292.877283 
L 213.717055 292.854406 
L 213.907115 292.855051 
L 214.477296 292.68598 
L 214.778224 292.622402 
L 215.332567 292.589317 
L 215.522627 292.61033 
L 216.076969 292.674114 
L 216.203676 292.732112 
L 216.235353 292.697857 
L 216.425413 292.630296 
L 216.805533 292.632197 
L 217.185654 292.722854 
L 217.328199 292.698149 
L 217.486583 292.678609 
L 217.724158 292.630893 
L 217.882541 292.674114 
L 218.246824 292.805423 
L 218.46856 292.869938 
L 218.832843 293.043785 
L 219.086256 293.113879 
L 219.197125 293.037024 
L 219.418862 293.003426 
L 221.192757 292.683178 
L 221.303626 292.723585 
L 221.493686 292.78218 
L 222.111382 292.757146 
L 222.31728 292.626191 
L 222.428149 292.684542 
L 222.570694 292.711622 
L 222.824107 292.780815 
L 223.030006 292.804753 
L 223.47348 292.744197 
L 224.328751 292.75075 
L 224.550488 292.777234 
L 225.405759 293.000393 
L 225.564142 293.04186 
L 225.722526 293.088492 
L 225.865071 293.026109 
L 226.039293 292.960498 
L 227.781512 292.853784 
L 228.050764 292.690548 
L 228.335854 292.669644 
L 228.684298 292.593008 
L 228.795166 292.675393 
L 228.985226 292.735243 
L 231.155081 292.851811 
L 231.392656 292.751786 
L 231.614393 292.798442 
L 231.756938 292.924646 
L 231.804453 292.888551 
L 231.978675 292.902451 
L 232.184574 293.015267 
L 233.119036 292.812671 
L 233.356612 292.833648 
L 233.56251 292.872021 
L 233.895116 292.898955 
L 234.259398 292.693118 
L 234.544488 292.666842 
L 234.924609 292.687246 
L 235.225537 292.660641 
L 235.684849 292.535071 
L 237.078624 292.621745 
L 237.252846 292.608868 
L 237.427068 292.693569 
L 237.617128 292.668864 
L 237.823027 292.635754 
L 237.997249 292.705507 
L 238.409046 292.843466 
L 238.66246 292.905168 
L 239.264317 292.963446 
L 239.454377 292.906471 
L 239.707791 292.79737 
L 239.882013 292.784786 
L 240.072073 292.821941 
L 240.230457 292.813255 
L 240.325487 292.805569 
L 240.341325 292.786224 
L 240.499709 292.76867 
L 240.67393 292.761263 
L 241.877645 292.434558 
L 242.812108 292.477816 
L 242.970491 292.519344 
L 243.17639 292.579876 
L 243.540672 292.561286 
L 243.699056 292.570435 
L 245.061154 292.59358 
L 245.67885 292.682569 
L 246.454929 292.607017 
L 246.644989 292.598014 
L 246.945918 292.533682 
L 247.135978 292.483152 
L 247.3102 292.423071 
L 247.547775 292.366048 
L 248.022926 292.347787 
L 248.244663 292.334716 
L 248.387208 292.406796 
L 248.418885 292.373296 
L 248.65646 292.28248 
L 248.830682 292.299754 
L 249.828498 292.49386 
L 249.939367 292.522158 
L 250.145265 292.557376 
L 250.541224 292.502764 
L 250.731284 292.467778 
L 251.919161 292.697333 
L 252.251766 292.796603 
L 252.441826 292.83556 
L 252.536856 292.718651 
L 252.679401 292.589585 
L 252.711078 292.610087 
L 253.043684 292.727581 
L 253.249582 292.727861 
L 253.407966 292.699282 
L 253.582188 292.61446 
L 254.532489 292.325592 
L 255.197699 292.285611 
L 255.356083 292.418734 
L 255.38776 292.393566 
L 255.561982 292.320025 
L 255.57782 292.339381 
L 255.783719 292.474429 
L 258.27034 292.593044 
L 258.761329 292.806251 
L 259.743307 292.666489 
L 259.854175 292.586235 
L 259.949205 292.498769 
L 259.99672 292.540687 
L 260.234295 292.593117 
L 260.408517 292.528371 
L 260.899506 292.52714 
L 261.073728 292.533183 
L 261.327142 292.464124 
L 262.483342 292.582519 
L 262.673402 292.540224 
L 263.006007 292.472517 
L 263.275259 292.428029 
L 263.544511 292.463917 
L 263.687056 292.430599 
L 263.908793 292.428808 
L 264.083015 292.430246 
L 264.241399 292.472614 
L 264.431459 292.518162 
L 264.684872 292.616421 
L 264.874933 292.616385 
L 265.017478 292.659179 
L 265.175861 292.700683 
L 265.936102 292.710014 
L 266.44293 292.608028 
L 266.91808 292.616762 
L 267.393231 292.48113 
L 267.583291 292.452587 
L 267.868381 292.499975 
L 268.042603 292.490363 
L 268.200987 292.495114 
L 268.470239 292.532037 
L 269.547247 292.580119 
L 269.879852 292.460725 
L 270.57674 292.473711 
L 270.735123 292.484906 
L 271.067728 292.574479 
L 271.226112 292.567365 
L 271.447849 292.625204 
L 273.728572 292.504653 
L 274.979801 292.208293 
L 275.755881 292.309889 
L 276.072648 292.312996 
L 276.326061 292.332803 
L 276.500283 292.295965 
L 276.72202 292.312569 
L 276.943757 292.289083 
L 277.181332 292.356899 
L 278.638461 292.546388 
L 278.796844 292.523242 
L 279.462055 292.511182 
L 279.747146 292.552162 
L 280.523225 292.427249 
L 280.903345 292.443354 
L 281.188436 292.451991 
L 281.473526 292.463831 
L 281.758616 292.511901 
L 281.932838 292.518966 
L 282.138737 292.549726 
L 282.344635 292.623584 
L 282.48718 292.577683 
L 282.661402 292.584639 
L 282.883139 292.602607 
L 283.675057 292.557461 
L 284.039339 292.628506 
L 284.767903 292.687758 
L 284.973802 292.714266 
L 285.258892 292.709076 
L 285.543982 292.614058 
L 285.781558 292.576245 
L 286.985273 292.503045 
L 287.507938 292.495967 
L 287.951412 292.497429 
L 288.236502 292.38186 
L 288.6483 292.554306 
L 289.487732 292.365378 
L 289.646116 292.360456 
L 289.804499 292.354109 
L 290.073751 292.283089 
L 290.343003 292.29644 
L 290.533063 292.270517 
L 291.309143 292.421597 
L 291.43585 292.468217 
L 291.594233 292.53607 
L 291.610071 292.524095 
L 291.800132 292.503617 
L 291.958515 292.451308 
L 292.116899 292.456668 
L 292.924655 292.498282 
L 293.083038 292.482153 
L 293.225583 292.417138 
L 293.336452 292.368435 
L 293.368129 292.399024 
L 293.494835 292.376256 
L 293.843279 292.188107 
L 294.128369 292.16233 
L 295.537983 292.244387 
L 295.85475 292.313775 
L 296.108163 292.308988 
L 296.868404 292.389327 
L 297.074303 292.36355 
L 297.359393 292.364561 
L 297.517777 292.393664 
L 298.420563 292.658875 
L 298.705653 292.593117 
L 298.879875 292.561786 
L 299.719308 292.463722 
L 300.036075 292.543549 
L 300.194458 292.402764 
L 300.384519 292.349395 
L 301.651587 292.445339 
L 301.746617 292.43546 
L 301.762455 292.415457 
L 301.905 292.384625 
L 302.538534 292.513156 
L 303.330452 292.430051 
L 303.631381 292.334691 
L 303.758088 292.37935 
L 303.916471 292.456364 
L 304.059016 292.509793 
L 304.280753 292.611195 
L 304.534167 292.611487 
L 304.850934 292.667378 
L 305.183539 292.621464 
L 305.436953 292.604251 
L 305.769558 292.510902 
L 305.975457 292.499244 
L 306.434769 292.5239 
L 306.878243 292.337737 
L 307.242525 292.254133 
L 307.638484 292.300156 
L 308.018604 292.238297 
L 308.224503 292.203249 
L 308.44624 292.218586 
L 308.588785 292.265657 
L 308.604623 292.253341 
L 308.715492 292.288011 
L 308.92139 292.380654 
L 309.206481 292.211387 
L 309.444056 292.049636 
L 310.394357 291.904709 
L 311.059568 291.962975 
L 311.297143 292.046469 
L 311.51888 292.070577 
L 311.803971 292.050452 
L 311.994031 292.028659 
L 312.358313 292.072148 
L 312.659242 292.120815 
L 312.880979 292.205613 
L 313.102715 292.136529 
L 313.73625 291.991431 
L 314.163885 291.981259 
L 314.338107 291.967652 
L 315.225055 292.070869 
L 315.383438 292.08059 
L 315.84275 292.071186 
L 317.949251 292.306137 
L 318.34521 292.460554 
L 318.757007 292.452271 
L 318.978744 292.519661 
L 319.216319 292.330343 
L 319.295511 290.65423 
L 319.675632 280.018025 
L 320.150782 274.01621 
L 320.65761 269.683138 
L 321.592072 263.6372 
L 322.19393 260.559553 
L 323.286776 255.999533 
L 324.078694 253.344962 
L 325.567499 249.496057 
L 326.185194 248.064848 
L 327.008789 246.094483 
L 327.325556 245.598621 
L 327.578969 245.009165 
L 327.816545 244.724098 
L 327.927413 244.615838 
L 328.33921 243.811701 
L 329.954722 241.625547 
L 330.287328 241.27594 
L 330.55658 240.994807 
L 333.755927 237.875145 
L 333.993502 237.636989 
L 334.326108 237.384655 
L 334.959642 237.035267 
L 335.16554 236.882872 
L 335.498146 236.6693 
L 335.957458 236.360051 
L 336.369255 235.976323 
L 336.559315 235.968283 
L 336.923597 235.807306 
L 337.161173 235.724049 
L 338.333211 235.251521 
L 340.613933 233.949629 
L 340.962377 233.881124 
L 341.199952 233.735326 
L 341.564235 233.663142 
L 342.752111 233.2431 
L 343.037201 233.215215 
L 343.258938 233.085942 
L 343.860796 233.005578 
L 344.082533 233.040187 
L 344.652713 232.993195 
L 344.811097 232.965116 
L 345.270409 232.77397 
L 345.365439 232.695014 
L 345.555499 232.606178 
L 345.872266 232.46831 
L 346.157357 232.289687 
L 346.284064 232.146849 
L 346.474124 232.061259 
L 346.806729 231.962562 
L 346.980951 231.955167 
L 347.519455 231.799033 
L 347.788707 231.84924 
L 347.899575 231.85918 
L 347.915414 231.840768 
L 348.105474 231.789872 
L 348.248019 231.66851 
L 348.485595 231.607065 
L 348.612301 231.573254 
L 348.834038 231.481464 
L 349.625956 231.296093 
L 349.911046 231.227052 
L 350.16446 231.174646 
L 350.465389 231.238308 
L 350.940539 231.241713 
L 351.162276 231.247006 
L 351.447366 231.153127 
L 351.669103 231.122087 
L 351.843325 231.094325 
L 352.112577 231.061592 
L 352.492698 231.110904 
L 353.347969 230.703957 
L 353.870634 230.736684 
L 354.155725 230.590039 
L 354.329947 230.541573 
L 354.345785 230.560607 
L 354.535845 230.61333 
L 355.882105 230.490154 
L 356.262225 230.432808 
L 357.006628 230.58558 
L 357.529294 230.552214 
L 357.830222 230.673271 
L 358.146989 230.628156 
L 358.479595 230.534331 
L 358.653817 230.491019 
L 358.796362 230.479629 
L 358.954745 230.451884 
L 359.192321 230.39812 
L 359.889208 230.175168 
L 360.142622 230.248314 
L 360.459389 230.117608 
L 362.169931 230.005615 
L 362.486698 229.894888 
L 362.645081 229.886573 
L 363.04104 229.900443 
L 363.405322 229.81978 
L 363.611221 229.849352 
L 363.943826 229.976122 
L 364.133887 229.942336 
L 364.498169 230.002648 
L 365.305925 229.7958 
L 365.606853 229.765565 
L 365.796914 229.719024 
L 366.208711 229.553071 
L 366.668023 229.38688 
L 367.412426 229.459338 
L 367.935091 229.534536 
L 368.315212 229.608517 
L 369.202159 229.481478 
L 369.471411 229.433336 
L 369.724825 229.431411 
L 370.104945 229.372341 
L 370.199976 229.478957 
L 370.358359 229.53146 
L 370.611773 229.575973 
L 370.785995 229.713348 
L 371.150277 229.820785 
L 371.30866 229.766418 
L 371.451205 229.790044 
L 371.593751 229.823161 
L 371.609589 229.80783 
L 371.894679 229.683941 
L 372.211446 229.718561 
L 373.035041 229.499245 
L 373.573545 229.576424 
L 373.826958 229.580772 
L 374.222917 229.567129 
L 374.476331 229.624712 
L 375.109865 229.656428 
L 375.268248 229.660679 
L 375.410793 229.606074 
L 375.790914 229.681127 
L 375.965136 229.610764 
L 376.440286 229.604046 
L 376.662023 229.650489 
L 376.994629 229.631486 
L 377.248042 229.738795 
L 377.406426 229.767386 
L 377.548971 229.82634 
L 377.675678 229.777936 
L 377.8499 229.763372 
L 377.992445 229.715711 
L 379.29119 229.616142 
L 379.57628 229.494878 
L 380.304844 229.389006 
L 380.684965 229.32312 
L 380.92254 229.328815 
L 381.096762 229.386107 
L 381.239307 229.337501 
L 381.270984 229.375009 
L 381.429367 229.393891 
L 381.603589 229.397314 
L 382.17377 229.405287 
L 382.522214 229.403508 
L 382.918172 229.473676 
L 383.092394 229.488848 
L 383.377485 229.544075 
L 383.567545 229.610332 
L 383.884312 229.648162 
L 384.137726 229.724932 
L 384.391139 229.715638 
L 384.517846 229.690921 
L 384.723745 229.597632 
L 385.642369 229.615101 
L 385.784914 229.602298 
L 386.228388 229.387428 
L 386.40261 229.358533 
L 386.861922 229.431989 
L 387.242043 229.447113 
L 387.8439 229.568767 
L 389.047615 229.561592 
L 389.253513 229.580827 
L 389.427735 229.540353 
L 389.586119 229.601543 
L 389.712826 229.657762 
L 389.744502 229.623506 
L 389.871209 229.629853 
L 390.108784 229.675961 
L 390.25133 229.711313 
L 390.378036 229.69354 
L 390.552258 229.681449 
L 390.932379 229.783436 
L 391.122439 229.736225 
L 391.217469 229.754291 
L 391.233307 229.775682 
L 391.423368 229.864482 
L 391.581751 229.919787 
L 391.740135 229.893639 
L 392.579567 229.809682 
L 392.722112 229.737687 
L 393.276455 229.714097 
L 393.529868 229.843949 
L 393.79912 229.798298 
L 395.066189 229.879928 
L 396.30158 230.071031 
L 396.428287 230.013533 
L 396.602509 230.059799 
L 396.776731 230.108234 
L 397.093498 230.17789 
L 397.251881 230.194043 
L 397.600325 230.206779 
L 397.822062 230.28221 
L 398.202182 230.241138 
L 398.487273 230.305532 
L 398.487273 230.305532 
" clip-path="url(#p4da764d1b8)" style="fill: none; stroke: #1f77b4; stroke-width: 1.5; stroke-linecap: square"/>
   </g>
   <g id="line2d_14">
    <path d="M 73.832727 232.930739 
L 74.038626 232.880336 
L 74.149494 232.910474 
L 74.371231 232.993548 
L 74.561291 232.894979 
L 74.640483 232.92494 
L 74.656322 232.949901 
L 74.830543 233.033438 
L 75.020604 233.013569 
L 75.242341 233.057345 
L 75.369047 233.077634 
L 75.543269 233.077908 
L 75.92339 233.04311 
L 76.351025 233.102588 
L 76.49357 233.014245 
L 76.683631 232.983005 
L 77.206296 233.150688 
L 77.602255 233.189292 
L 78.489203 233.321849 
L 78.71094 233.381571 
L 80.088876 233.085162 
L 80.405643 233.078072 
L 80.564027 233.057156 
L 80.864956 233.077244 
L 80.991663 233.124722 
L 81.49849 233.211658 
L 81.641035 233.246145 
L 81.736065 233.731701 
L 82.06867 235.661258 
L 83.050648 237.920193 
L 83.351577 238.391375 
L 83.684182 238.964787 
L 83.858404 239.199202 
L 84.634484 240.490417 
L 85.172988 241.149175 
L 85.584785 241.48727 
L 86.503409 242.332654 
L 86.88353 242.385073 
L 87.16862 242.615907 
L 87.327003 242.783127 
L 88.039729 243.323124 
L 91.080693 245.565376 
L 91.429137 245.777767 
L 91.999317 245.897807 
L 92.426953 246.093776 
L 92.569498 246.089671 
L 92.775397 246.224378 
L 93.155517 246.329909 
L 94.881897 246.997207 
L 95.056119 247.001641 
L 95.198665 247.057787 
L 95.990582 247.424534 
L 96.164804 247.465647 
L 96.323188 247.483043 
L 96.497409 247.596115 
L 96.513248 247.584896 
L 96.671631 247.547972 
L 96.68747 247.566696 
L 96.940883 247.708529 
L 97.321004 247.84454 
L 97.558579 247.852433 
L 97.875346 248.093281 
L 98.999869 248.350525 
L 99.269121 248.414126 
L 99.934332 248.372087 
L 100.124392 248.382953 
L 100.346129 248.44435 
L 100.552028 248.419389 
L 100.852956 248.517368 
L 101.264753 248.685319 
L 101.438975 248.799865 
L 101.454814 248.789425 
L 101.676551 248.740844 
L 102.3576 248.855377 
L 102.690205 249.001669 
L 103.070326 249.068158 
L 103.197032 249.059082 
L 103.355416 249.101122 
L 103.545476 249.103193 
L 103.688021 249.120686 
L 104.08398 249.269512 
L 104.606646 249.414476 
L 105.794522 249.562424 
L 105.905391 249.522358 
L 106.079613 249.455601 
L 106.412218 249.52756 
L 106.665632 249.50724 
L 107.109105 249.599847 
L 107.568418 249.601175 
L 108.186113 249.777824 
L 108.550396 249.845725 
L 109.342313 249.952329 
L 109.500697 249.966654 
L 109.674919 249.967751 
L 110.134231 249.905721 
L 111.575521 250.242208 
L 111.828934 250.180616 
L 112.082348 250.224045 
L 112.240732 250.294602 
L 112.557499 250.244961 
L 112.874266 250.195905 
L 113.191033 250.035823 
L 114.014627 250.164013 
L 114.426424 250.211169 
L 114.616484 250.180945 
L 114.917413 250.294371 
L 115.376725 250.229076 
L 115.915229 250.32915 
L 117.008076 250.428651 
L 117.356519 250.54874 
L 117.815832 250.688112 
L 118.069245 250.611476 
L 118.259305 250.55667 
L 118.496881 250.530479 
L 120.460836 250.282469 
L 120.856795 250.268289 
L 122.408954 250.359397 
L 122.583176 250.315798 
L 122.789074 250.396869 
L 123.280063 250.403812 
L 123.5018 250.350943 
L 124.103657 250.700489 
L 126.47941 250.530418 
L 126.606117 250.542417 
L 126.827854 250.595798 
L 127.128783 250.518115 
L 128.934355 250.695921 
L 130.42316 250.844722 
L 130.676574 250.987031 
L 131.088371 250.994656 
L 131.468491 250.930202 
L 131.67439 251.005303 
L 132.038672 250.912368 
L 132.212894 250.889357 
L 132.656368 250.844734 
L 132.878105 250.756343 
L 134.604485 250.839545 
L 134.794545 250.824683 
L 135.095474 250.762239 
L 135.412241 250.812221 
L 135.99826 250.835854 
L 138.088923 251.089139 
L 138.59575 251.040058 
L 139.229284 251.064556 
L 139.371829 251.003939 
L 139.546051 250.855174 
L 139.672758 250.837547 
L 140.432999 250.810357 
L 140.591382 250.841055 
L 140.860634 250.827351 
L 141.19324 250.866613 
L 141.731744 250.999054 
L 141.921804 250.972546 
L 142.365278 250.933881 
L 142.507823 250.927997 
L 142.697883 250.931749 
L 143.173034 251.058136 
L 143.505639 251.158027 
L 144.107496 251.296766 
L 144.519294 251.30918 
L 145.691332 251.201078 
L 146.150644 251.12767 
L 146.388219 251.040947 
L 146.67331 251.00897 
L 146.847531 250.995034 
L 146.990077 250.974958 
L 147.14846 250.945941 
L 147.449389 250.953128 
L 147.623611 250.951533 
L 147.972054 251.041873 
L 148.146276 251.020762 
L 148.526397 250.972997 
L 148.795649 251.010968 
L 149.017386 251.023125 
L 149.191608 251.053933 
L 149.682596 250.985922 
L 149.809303 251.03186 
L 150.015202 251.070683 
L 150.252777 251.147307 
L 150.395322 251.159623 
L 150.585383 251.206657 
L 150.775443 251.190346 
L 150.965503 251.19908 
L 151.456492 251.139913 
L 151.66239 251.123735 
L 151.789097 251.045808 
L 151.963319 251.045979 
L 153.97479 250.87341 
L 154.418264 250.972827 
L 155.115151 250.76364 
L 155.273535 250.780365 
L 155.400242 250.823575 
L 155.590302 250.923466 
L 155.843715 250.860741 
L 156.081291 250.801257 
L 156.382219 250.935112 
L 156.47725 250.877966 
L 156.508926 250.912831 
L 156.619795 250.993755 
L 156.66731 250.948889 
L 156.873208 250.902732 
L 157.174137 251.046015 
L 157.411712 251.140144 
L 157.554258 251.077213 
L 157.728479 251.079332 
L 157.966055 251.065323 
L 160.389323 250.767769 
L 160.579383 250.778246 
L 161.007018 250.75951 
L 161.656391 250.825049 
L 161.798936 250.822222 
L 162.036511 250.772459 
L 162.62253 250.734598 
L 164.887415 250.97011 
L 166.138644 250.620333 
L 166.708825 250.692096 
L 166.914724 250.736401 
L 167.579935 250.796774 
L 167.769995 250.675748 
L 170.98518 251.006485 
L 171.254432 250.791183 
L 171.381139 250.734221 
L 171.571199 250.773763 
L 171.666229 250.773434 
L 171.682068 250.751897 
L 171.824613 250.685298 
L 171.840451 250.696104 
L 172.014673 250.686906 
L 172.14138 250.72467 
L 172.299764 250.687503 
L 172.616531 250.606019 
L 172.854106 250.631723 
L 173.012489 250.63461 
L 173.20255 250.681023 
L 173.376771 250.629518 
L 175.578302 250.586248 
L 176.08513 250.454306 
L 176.259352 250.41692 
L 176.686987 250.605373 
L 176.972077 250.786505 
L 177.257168 250.791841 
L 177.399713 250.742285 
L 177.573935 250.719444 
L 178.77765 250.852178 
L 179.2528 250.751482 
L 179.379507 250.697115 
L 179.743789 250.645366 
L 179.981364 250.646146 
L 180.409 250.582106 
L 180.773282 250.67185 
L 181.026696 250.683873 
L 183.228227 251.083925 
L 183.38661 251.092976 
L 184.131013 251.08669 
L 184.321073 251.102856 
L 184.495295 251.099225 
L 184.73287 251.009579 
L 184.970445 251.054116 
L 185.160506 251.084778 
L 185.382243 251.001576 
L 185.508949 250.981135 
L 185.809878 250.909067 
L 186.110807 250.860169 
L 186.395897 250.851447 
L 186.585957 250.83857 
L 186.871048 250.913927 
L 186.966078 250.933053 
L 186.997754 250.894814 
L 187.203653 250.8092 
L 187.362037 250.832821 
L 187.757995 250.933747 
L 188.375691 250.942713 
L 188.549913 250.959768 
L 188.993387 250.838753 
L 189.262639 250.941751 
L 189.468537 250.955175 
L 189.769466 251.001356 
L 190.783121 250.979198 
L 191.068211 250.912867 
L 191.480008 250.986555 
L 191.638392 250.985167 
L 191.733422 250.923709 
L 191.970997 250.729056 
L 192.762915 250.618115 
L 193.206389 250.562444 
L 193.507317 250.604167 
L 193.729054 250.612463 
L 194.029983 250.651676 
L 194.267558 250.653443 
L 194.489295 250.657901 
L 195.898908 250.57755 
L 196.07313 250.548971 
L 196.484927 250.619224 
L 196.690826 250.673835 
L 197.577774 250.5699 
L 197.894541 250.427884 
L 198.068763 250.453843 
L 198.227146 250.415665 
L 198.417206 250.351369 
L 198.702297 250.294894 
L 199.319993 250.194211 
L 199.462538 250.119914 
L 199.620921 250.071613 
L 199.779305 250.034507 
L 199.92185 250.030098 
L 200.191102 250.067618 
L 200.460354 250.100143 
L 200.618737 250.10621 
L 200.713768 250.13407 
L 200.745444 250.101447 
L 200.903828 250.072892 
L 201.331463 250.067666 
L 201.616554 250.041159 
L 201.917482 250.090398 
L 202.107543 250.105308 
L 202.329279 250.12821 
L 202.630208 250.110291 
L 205.275213 250.065754 
L 205.512788 250.031109 
L 205.766202 250.049004 
L 206.035454 249.881101 
L 206.399736 249.981212 
L 206.779856 250.09147 
L 206.985755 250.144449 
L 207.809349 250.228187 
L 207.983571 250.205979 
L 208.141955 250.250735 
L 209.155609 250.375209 
L 209.313993 250.374016 
L 209.488215 250.346265 
L 209.662437 250.385223 
L 209.979204 250.539177 
L 210.391001 250.645074 
L 210.612738 250.568791 
L 210.771121 250.572129 
L 211.230433 250.436447 
L 211.879806 250.44964 
L 212.275765 250.390144 
L 212.434148 250.422536 
L 212.735077 250.342708 
L 213.020167 250.404324 
L 213.226066 250.365902 
L 214.14469 250.460019 
L 214.23972 250.423303 
L 214.271397 250.461688 
L 214.429781 250.497186 
L 214.635679 250.538568 
L 214.841578 250.600561 
L 215.554304 250.556609 
L 216.187838 250.566075 
L 216.330383 250.616739 
L 216.583797 250.693131 
L 216.995594 250.728069 
L 217.328199 250.662226 
L 219.403023 250.509392 
L 219.703952 250.430893 
L 219.81482 250.474114 
L 219.989042 250.520368 
L 220.369163 250.483701 
L 220.844313 250.571666 
L 221.271949 250.391789 
L 221.477847 250.388293 
L 221.604554 250.438799 
L 221.889645 250.512511 
L 222.713239 250.60865 
L 222.903299 250.64896 
L 223.125036 250.742127 
L 223.315096 250.774299 
L 223.505157 250.719261 
L 223.742732 250.722307 
L 226.688665 250.59039 
L 226.752019 250.589476 
L 226.783695 250.543648 
L 226.862887 250.457632 
L 226.910402 250.515313 
L 227.037109 250.648936 
L 227.068786 250.622184 
L 227.258846 250.570046 
L 227.733997 250.615959 
L 228.066602 250.595372 
L 228.779328 250.6479 
L 229.206963 250.532879 
L 229.365347 250.511865 
L 229.52373 250.60502 
L 229.729629 250.713719 
L 229.840497 250.791171 
L 229.919689 250.803426 
L 229.951366 250.768561 
L 230.125588 250.729555 
L 230.39484 250.730749 
L 230.664092 250.654028 
L 230.838314 250.56186 
L 231.028374 250.546657 
L 231.155081 250.540139 
L 231.440171 250.406833 
L 231.7411 250.367669 
L 232.105382 250.301558 
L 232.31128 250.252173 
L 232.628047 250.195783 
L 232.833946 250.274819 
L 233.514995 250.196002 
L 234.196044 250.304372 
L 234.401943 250.249639 
L 234.639518 250.237433 
L 235.415597 250.227675 
L 235.811556 250.043802 
L 235.938263 250.085135 
L 235.96994 250.053755 
L 236.128323 250.047286 
L 236.508444 250.222193 
L 236.714342 250.154267 
L 236.872726 250.085854 
L 237.015271 250.163002 
L 237.189493 250.118745 
L 237.664643 249.742521 
L 237.823027 249.917464 
L 237.88638 249.837454 
L 237.997249 249.86105 
L 238.203147 249.904308 
L 238.741651 249.799008 
L 238.884197 249.865167 
L 238.979227 249.801079 
L 239.121772 249.670623 
L 239.153449 249.70578 
L 239.375186 249.868262 
L 239.612761 249.908072 
L 239.771144 249.849709 
L 239.913689 249.876143 
L 240.072073 249.849331 
L 240.420517 249.86496 
L 241.149081 249.44158 
L 241.307464 249.412916 
L 241.45001 249.413428 
L 241.64007 249.425122 
L 241.92516 249.380707 
L 242.036029 249.445186 
L 242.067705 249.422674 
L 242.336957 249.394814 
L 242.827946 249.597435 
L 242.938815 249.672901 
L 243.160552 249.891919 
L 244.190045 249.682878 
L 244.475135 249.77105 
L 247.040948 249.564568 
L 247.199332 249.54649 
L 247.468584 249.493694 
L 247.943734 249.400881 
L 248.181309 249.348828 
L 248.339693 249.328228 
L 248.56143 249.285713 
L 249.321671 249.625197 
L 249.90769 249.832069 
L 250.968859 249.923994 
L 251.111405 249.934823 
L 251.25395 249.901043 
L 252.172574 249.919413 
L 252.346796 249.882636 
L 252.711078 249.873585 
L 252.901138 249.890628 
L 253.138714 249.856908 
L 253.803924 249.696802 
L 254.23156 249.673096 
L 254.500812 249.747637 
L 254.928447 249.694159 
L 255.118508 249.669831 
L 255.498628 249.668126 
L 255.593658 249.628754 
L 255.625335 249.663326 
L 255.95794 249.866556 
L 256.591474 249.944374 
L 257.225009 249.898887 
L 257.478422 249.767664 
L 257.668482 249.715574 
L 258.159471 249.700164 
L 258.302017 249.755348 
L 258.317855 249.742691 
L 258.476238 249.749635 
L 258.602945 249.698593 
L 258.74549 249.7165 
L 259.173126 249.887485 
L 259.664115 249.645979 
L 261.263788 249.719412 
L 261.659747 249.561218 
L 262.182413 249.568795 
L 262.261605 249.556772 
L 262.293281 249.601942 
L 262.483342 249.711993 
L 262.610048 249.673925 
L 262.752594 249.683122 
L 263.211906 249.883099 
L 263.401966 249.742715 
L 263.560349 249.764497 
L 263.671218 249.770441 
L 263.687056 249.747271 
L 263.766248 249.701285 
L 263.813763 249.733932 
L 264.051338 249.708558 
L 264.178045 249.733409 
L 264.273075 249.769126 
L 264.304752 249.740961 
L 264.653196 249.591295 
L 264.811579 249.635004 
L 264.922448 249.610762 
L 265.175861 249.442311 
L 267.773351 249.285799 
L 267.963411 249.266015 
L 268.280178 249.27721 
L 268.913713 249.289953 
L 269.42054 249.505267 
L 269.563085 249.525562 
L 270.608416 249.359913 
L 270.7668 249.348876 
L 271.020213 249.334952 
L 271.210274 249.322308 
L 271.368657 249.314304 
L 271.495364 249.261496 
L 271.606232 249.20306 
L 271.637909 249.225693 
L 271.827969 249.220967 
L 271.954676 249.305058 
L 272.097221 249.312014 
L 272.39815 249.224902 
L 272.746594 249.375128 
L 273.300936 249.604695 
L 273.45932 249.563703 
L 273.617703 249.586751 
L 273.74441 249.528741 
L 273.886955 249.487006 
L 273.902794 249.502599 
L 274.140369 249.591161 
L 275.138185 249.500954 
L 275.344084 249.468027 
L 275.945941 249.687093 
L 276.373576 249.865167 
L 276.579475 249.771891 
L 276.880404 249.680905 
L 277.054626 249.647185 
L 277.403069 249.727464 
L 277.925735 249.641509 
L 278.274179 249.495497 
L 279.41454 249.431469 
L 279.683792 249.482377 
L 279.794661 249.429203 
L 279.858014 249.390416 
L 279.905529 249.443797 
L 280.048074 249.493499 
L 280.063913 249.480428 
L 280.190619 249.510347 
L 280.744962 249.64626 
L 280.95086 249.688238 
L 281.441849 249.605134 
L 281.568556 249.216386 
L 281.869485 248.502201 
L 282.154575 248.399569 
L 282.328797 248.43302 
L 282.819786 248.547335 
L 282.994008 248.651295 
L 283.199906 248.664573 
L 283.865117 248.73591 
L 284.150207 248.868668 
L 284.435298 248.814422 
L 284.672873 248.891107 
L 284.847095 248.902838 
L 285.037155 248.917164 
L 285.195539 248.932756 
L 285.480629 248.980802 
L 286.605152 249.309821 
L 286.779374 249.336768 
L 287.064464 249.323769 
L 287.270363 249.423064 
L 287.4921 249.421042 
L 287.77719 249.49987 
L 288.030604 249.477151 
L 288.252341 249.444455 
L 288.901713 249.556016 
L 289.107612 249.662535 
L 289.31351 249.745761 
L 289.535247 249.767956 
L 289.661954 249.738537 
L 289.677792 249.754678 
L 289.915368 249.84709 
L 290.992376 249.760781 
L 291.340819 249.419775 
L 291.499203 249.44627 
L 291.879323 249.501576 
L 292.338636 249.485289 
L 292.576211 249.499858 
L 293.748249 249.582232 
L 294.856934 249.541715 
L 295.205377 249.378783 
L 295.379599 249.406448 
L 295.902265 249.474739 
L 296.060648 249.477346 
L 296.456607 249.410443 
L 296.931758 249.604853 
L 297.058465 249.480867 
L 297.20101 249.479551 
L 297.406908 249.395594 
L 297.565292 249.395362 
L 297.723675 249.365809 
L 298.119634 249.158961 
L 299.307511 249.312599 
L 299.576763 249.298882 
L 299.703469 249.331273 
L 299.861853 249.38033 
L 300.337004 249.262617 
L 300.748801 249.288442 
L 300.859669 249.329105 
L 301.002214 249.299394 
L 301.23979 249.294496 
L 301.635748 249.385946 
L 302.253444 249.437633 
L 302.633565 249.727549 
L 302.918655 249.621177 
L 303.0612 249.573778 
L 303.077038 249.586422 
L 303.330452 249.652448 
L 303.552189 249.534601 
L 304.565844 249.315413 
L 305.3736 249.497032 
L 305.65869 249.604939 
L 305.927942 249.696169 
L 306.086325 249.710689 
L 306.498123 249.900921 
L 307.622646 249.987619 
L 307.923574 250.045715 
L 308.335371 249.941012 
L 308.588785 250.002701 
L 308.778845 250.04457 
L 309.206481 250.151404 
L 309.444056 250.020023 
L 309.69747 249.983258 
L 309.998398 249.896085 
L 310.140944 249.887229 
L 310.568579 249.847747 
L 310.837831 249.793928 
L 310.980376 249.753192 
L 311.360497 249.665799 
L 311.788132 249.601954 
L 311.930677 249.510481 
L 312.168253 249.462545 
L 312.801787 249.539668 
L 313.071039 249.613758 
L 313.276937 249.550157 
L 313.498674 249.47932 
L 313.862956 249.569392 
L 314.353945 249.555346 
L 314.575682 249.60746 
L 314.797419 249.511991 
L 314.939964 249.462984 
L 315.050833 249.493901 
L 315.161701 249.5581 
L 315.193378 249.526195 
L 315.320085 249.50506 
L 315.335923 249.522529 
L 315.65269 249.752254 
L 317.394909 249.609787 
L 317.489939 249.59227 
L 317.505777 249.572133 
L 317.616646 249.51059 
L 317.648323 249.537597 
L 317.775029 249.510261 
L 318.028443 249.464774 
L 318.598624 249.482146 
L 318.741169 249.425975 
L 318.962906 249.473704 
L 319.137128 249.457733 
L 319.247996 249.324025 
L 319.374703 248.441219 
L 319.628117 247.240003 
L 320.008237 246.098308 
L 321.449527 243.549 
L 322.447343 242.643023 
L 322.76411 242.317013 
L 323.033362 241.95509 
L 323.381806 241.513863 
L 323.54019 241.341904 
L 323.841118 241.027686 
L 324.332107 240.433236 
L 324.601359 240.126107 
L 325.3616 239.491883 
L 325.694206 239.304514 
L 325.915942 239.202601 
L 326.074326 239.027024 
L 326.755375 238.367864 
L 326.961274 238.247946 
L 327.230526 238.033947 
L 327.420586 238.01671 
L 328.402564 237.661621 
L 328.608462 237.498384 
L 329.463733 237.292633 
L 330.033914 236.822925 
L 330.334843 236.653987 
L 330.509065 236.619159 
L 330.683287 236.529635 
L 330.968377 236.380139 
L 331.269306 236.202242 
L 331.950355 235.922102 
L 332.203768 235.80194 
L 332.393829 235.751757 
L 333.518352 235.598649 
L 333.755927 235.501566 
L 334.927965 235.382172 
L 335.244732 235.341448 
L 335.498146 235.353965 
L 335.704044 235.372719 
L 335.878266 235.283456 
L 336.100003 235.211766 
L 336.575154 235.250979 
L 336.876082 235.130074 
L 337.192849 235.129636 
L 337.303718 235.054187 
L 337.652162 234.828446 
L 337.905575 234.719296 
L 338.111474 234.708235 
L 338.349049 234.632147 
L 339.188482 234.67641 
L 339.346865 234.673949 
L 339.679471 234.710818 
L 339.964561 234.55771 
L 340.154621 234.426177 
L 340.408035 234.451929 
L 340.582257 234.395101 
L 340.788155 234.470805 
L 341.104922 234.518247 
L 342.27696 234.636551 
L 342.736273 234.54875 
L 343.068878 234.610323 
L 343.2431 234.584997 
L 343.480675 234.576397 
L 343.813281 234.40939 
L 344.003341 234.413203 
L 345.729721 234.234593 
L 345.967296 234.319506 
L 346.252387 234.245581 
L 346.474124 234.286414 
L 346.648346 234.300466 
L 347.044304 234.268891 
L 347.297718 234.331591 
L 347.551132 234.185427 
L 347.75703 234.179786 
L 347.962929 234.240909 
L 348.311373 234.380348 
L 348.659816 234.510219 
L 349.00826 234.360577 
L 349.182482 234.386951 
L 349.720986 234.326328 
L 350.275328 234.226047 
L 350.465389 234.109485 
L 350.607934 234.07406 
L 350.623772 234.092223 
L 350.750479 234.129311 
L 350.766317 234.115277 
L 350.940539 234.097419 
L 351.146438 234.082058 
L 351.41569 233.963754 
L 351.764133 233.833469 
L 352.017547 233.753075 
L 352.191769 233.845547 
L 352.350152 233.827688 
L 352.508536 233.93255 
L 352.587728 233.967664 
L 352.635243 233.919284 
L 352.888656 233.820757 
L 353.110393 233.818619 
L 354.282431 233.806218 
L 354.48833 233.81162 
L 354.630875 233.893044 
L 354.77342 233.915836 
L 354.979319 233.901498 
L 355.232733 234.03576 
L 355.5495 234.014607 
L 355.692045 233.877055 
L 355.723722 233.900804 
L 355.92962 233.990365 
L 355.945458 233.972878 
L 356.103842 233.954331 
L 357.054143 233.988349 
L 357.18085 233.841868 
L 357.228365 233.89037 
L 357.323395 233.905762 
L 357.355072 233.869161 
L 357.576809 233.748098 
L 357.592647 233.763167 
L 357.751031 233.878292 
L 357.782707 233.848136 
L 358.020283 233.731525 
L 359.905047 233.708739 
L 360.06343 233.668338 
L 360.316844 233.612624 
L 361.59975 233.551709 
L 361.853164 233.590709 
L 362.138254 233.503091 
L 362.264961 233.547786 
L 362.391668 233.619178 
L 362.423345 233.582772 
L 362.597566 233.478885 
L 362.613405 233.491689 
L 362.85098 233.576261 
L 363.341969 233.583004 
L 363.627059 233.573867 
L 364.10221 233.405819 
L 364.561522 233.392272 
L 364.941643 233.230668 
L 365.575177 233.366325 
L 365.812752 233.398382 
L 365.971135 233.301085 
L 366.002812 233.339263 
L 366.161196 233.374603 
L 366.731376 233.23082 
L 366.953113 233.254928 
L 368.299373 233.225832 
L 369.043776 233.322702 
L 369.313028 233.184474 
L 371.720457 233.326113 
L 371.942194 233.311415 
L 372.686597 233.315143 
L 372.860819 233.36585 
L 373.066717 233.328951 
L 373.320131 233.304344 
L 374.080372 233.250086 
L 375.046511 233.537303 
L 375.790914 233.529806 
L 376.250226 233.532157 
L 376.78873 233.565986 
L 377.089659 233.452755 
L 377.438103 233.344258 
L 377.596486 233.357816 
L 377.881576 233.375206 
L 378.340889 233.353705 
L 378.641817 233.414194 
L 379.069453 233.389775 
L 379.322866 233.435682 
L 379.607957 233.451482 
L 379.702987 233.418323 
L 379.734664 233.451866 
L 379.893047 233.467233 
L 380.114784 233.454412 
L 381.571912 233.684978 
L 381.904518 233.768704 
L 382.062901 233.73345 
L 382.284638 233.695948 
L 382.45886 233.68647 
L 382.823142 233.55205 
L 383.377485 233.528746 
L 383.551707 233.574202 
L 383.80512 233.541774 
L 384.042695 233.549967 
L 385.974974 233.485445 
L 386.49764 233.299715 
L 386.671862 233.338892 
L 387.638001 233.251511 
L 387.875577 233.364796 
L 387.970607 233.397791 
L 388.002284 233.371106 
L 388.255697 233.320789 
L 388.509111 233.383435 
L 388.873393 233.24355 
L 389.443574 233.240602 
L 389.839532 233.077853 
L 390.235491 233.050626 
L 390.362198 232.94705 
L 390.520582 232.918971 
L 392.2628 232.838169 
L 392.579567 232.789149 
L 392.753789 232.798633 
L 392.880496 232.833546 
L 393.070556 232.861229 
L 393.545707 232.7458 
L 393.624899 232.68232 
L 393.672414 232.726644 
L 393.878312 232.77271 
L 394.448493 232.987061 
L 394.67023 233.072207 
L 395.082027 233.152613 
L 396.887599 232.941124 
L 397.156851 232.869957 
L 397.55281 232.947062 
L 397.853739 232.871578 
L 398.487273 232.947458 
L 398.487273 232.947458 
" clip-path="url(#p4da764d1b8)" style="fill: none; stroke: #ff7f0e; stroke-width: 1.5; stroke-linecap: square"/>
   </g>
   <g id="line2d_15">
    <path d="M 73.832727 234.003332 
L 74.086141 234.020107 
L 74.687998 234.163603 
L 74.893897 234.12375 
L 75.369047 234.12252 
L 75.543269 234.110904 
L 75.780845 234.189045 
L 76.097612 234.076612 
L 77.950699 234.396873 
L 78.109082 234.356795 
L 78.441688 234.240574 
L 78.679263 234.202956 
L 79.106899 234.257354 
L 79.312797 234.248657 
L 79.582049 234.193022 
L 79.993846 233.939024 
L 80.310613 234.039519 
L 80.484835 234.036138 
L 80.928309 233.980175 
L 81.165884 234.041248 
L 81.736065 234.105355 
L 81.941964 234.054721 
L 82.132024 234.108949 
L 82.923941 234.043563 
L 84.333555 234.237559 
L 84.602807 234.335349 
L 85.109634 234.214145 
L 85.410563 234.288832 
L 85.600623 234.29644 
L 85.901552 234.287133 
L 86.139127 234.179981 
L 86.661793 234.054447 
L 87.121105 234.014217 
L 88.736617 234.200873 
L 89.085061 234.152158 
L 89.829463 234.127843 
L 90.114553 234.244978 
L 90.573866 234.124164 
L 90.763926 234.193899 
L 90.906471 234.270249 
L 91.064855 234.30021 
L 91.080693 234.279282 
L 91.175723 234.19809 
L 91.223238 234.242785 
L 91.286592 234.232266 
L 91.318268 234.182466 
L 91.39746 234.146055 
L 91.444975 234.182625 
L 91.571682 234.141852 
L 91.77758 234.097991 
L 92.949618 234.066611 
L 93.282224 233.855097 
L 93.694021 233.941729 
L 93.931596 233.920417 
L 94.058303 233.897399 
L 94.232525 233.863942 
L 94.739352 234.053515 
L 95.499593 234.102298 
L 95.81636 234.138533 
L 96.576601 234.081796 
L 96.940883 234.156306 
L 97.305165 234.279684 
L 98.097083 234.408708 
L 98.31882 234.27218 
L 98.50888 234.19935 
L 98.904839 234.258305 
L 99.189929 234.313848 
L 99.680918 234.051652 
L 101.027178 234.116027 
L 101.613197 234.241366 
L 101.866611 234.211806 
L 102.024994 234.177837 
L 102.183378 234.244448 
L 102.310085 234.222033 
L 102.484307 234.152432 
L 102.690205 234.199576 
L 102.959457 234.12445 
L 103.307901 234.01633 
L 103.466284 234.005598 
L 103.577153 234.016026 
L 103.592991 233.998021 
L 103.735536 233.987624 
L 104.163172 234.185969 
L 104.559131 234.11613 
L 105.224342 233.782585 
L 105.509432 233.660407 
L 106.49141 233.250202 
L 106.618117 233.208229 
L 106.697308 233.227336 
L 106.713147 233.250354 
L 106.950722 233.426845 
L 107.283327 233.382978 
L 107.584256 233.54094 
L 108.756294 233.779515 
L 109.548212 233.817736 
L 110.229261 234.085956 
L 110.450998 234.079883 
L 110.989502 234.149283 
L 111.179562 234.116885 
L 111.749743 234.024791 
L 111.939803 233.984213 
L 112.810912 233.903106 
L 113.143518 233.763112 
L 113.381093 233.825654 
L 113.682022 233.96058 
L 114.505616 233.953308 
L 114.711515 234.116758 
L 115.455917 234.011689 
L 115.931068 233.975881 
L 116.089451 234.0316 
L 116.216158 233.986156 
L 116.48541 233.914965 
L 116.86553 234.004069 
L 117.087267 234.008546 
L 117.958377 234.087271 
L 118.21179 234.022854 
L 118.338497 233.936186 
L 118.465204 233.98841 
L 118.639426 234.018042 
L 119.051223 233.917012 
L 119.352152 233.758234 
L 119.732272 233.714988 
L 119.906494 233.708056 
L 120.128231 233.706357 
L 120.555867 233.738365 
L 120.983502 233.920605 
L 121.411138 234.014607 
L 121.96548 233.93473 
L 122.187217 233.960087 
L 122.44063 233.937435 
L 123.818567 234.129378 
L 123.961112 234.190817 
L 123.976951 234.180444 
L 124.230364 234.134318 
L 124.388748 234.132758 
L 124.658 234.025881 
L 124.75303 233.833511 
L 125.069797 233.184584 
L 125.877553 233.0246 
L 126.067613 232.961139 
L 127.588095 233.27169 
L 127.714802 233.212468 
L 127.984054 233.147862 
L 129.251122 233.261695 
L 129.441182 233.178158 
L 129.900494 233.345135 
L 130.090555 233.362695 
L 130.2331 233.44047 
L 130.581544 233.54513 
L 132.212894 233.523191 
L 132.450469 233.483582 
L 132.783075 233.413633 
L 133.147357 233.45373 
L 133.479962 233.431863 
L 133.701699 233.532382 
L 133.955113 233.486871 
L 135.079636 233.769581 
L 136.679309 233.572795 
L 136.916884 233.471735 
L 137.392035 233.490373 
L 137.72464 233.344702 
L 137.962216 233.353814 
L 138.722457 233.397224 
L 138.960032 233.29564 
L 139.324314 233.260702 
L 139.482698 233.257785 
L 139.831141 233.342595 
L 139.926171 233.038889 
L 140.195423 232.108714 
L 140.623059 232.05018 
L 140.971503 232.239254 
L 142.63453 232.383627 
L 142.887943 232.452668 
L 143.125519 232.483141 
L 143.964951 232.75225 
L 144.17085 232.266048 
L 144.804384 230.082031 
L 145.390403 228.789214 
L 145.643817 228.516615 
L 146.055614 228.196683 
L 146.974238 227.921842 
L 147.528581 228.172508 
L 147.956216 228.507661 
L 148.146276 228.545218 
L 148.383852 228.599677 
L 149.191608 229.004138 
L 149.349991 228.994722 
L 149.571728 229.142134 
L 149.793465 229.289608 
L 150.141909 229.548247 
L 150.363646 229.636535 
L 150.775443 229.844443 
L 150.917988 229.838078 
L 151.076371 229.893206 
L 151.440654 229.940673 
L 151.599037 230.004689 
L 151.836612 230.147405 
L 153.024489 230.296913 
L 153.293741 230.35351 
L 153.436286 230.27819 
L 153.578831 230.330072 
L 154.149012 230.632024 
L 154.703354 230.794615 
L 155.178505 230.73577 
L 155.479433 230.892283 
L 156.350543 231.14868 
L 156.920723 231.337273 
L 157.04743 231.348944 
L 157.807671 231.605932 
L 157.934378 231.683543 
L 158.092762 231.696644 
L 158.282822 231.756012 
L 158.567912 231.752041 
L 158.710457 231.811501 
L 158.916356 231.845019 
L 160.104232 231.934422 
L 161.434654 232.106174 
L 163.430286 232.378468 
L 163.842083 232.535316 
L 164.190527 232.508784 
L 164.396426 232.561056 
L 164.618163 232.519607 
L 164.792385 232.483634 
L 165.172505 232.516404 
L 165.362565 232.470271 
L 165.774362 232.431027 
L 166.201998 232.497802 
L 166.502927 232.403459 
L 166.867209 232.460623 
L 167.104784 232.493508 
L 167.516581 232.507633 
L 167.769995 232.561233 
L 167.91254 232.592327 
L 168.118439 232.706416 
L 168.260984 232.72813 
L 168.466882 232.797006 
L 169.195446 232.847317 
L 169.35383 232.885763 
L 169.63892 233.022955 
L 169.908172 233.019855 
L 170.319969 233.15374 
L 170.826797 233.12566 
L 171.111887 233.189853 
L 171.444493 233.191723 
L 172.220572 233.137702 
L 172.442309 233.038767 
L 172.632369 233.049603 
L 172.759076 233.07376 
L 172.996651 233.127999 
L 173.424287 233.187477 
L 174.865577 233.24324 
L 175.388242 233.150578 
L 175.863393 233.183975 
L 176.65531 233.484471 
L 176.956239 233.55557 
L 177.209653 233.50275 
L 177.352198 233.503481 
L 177.748157 233.540641 
L 178.080762 233.513238 
L 178.223307 233.518854 
L 178.476721 233.472654 
L 178.730135 233.415345 
L 179.632921 233.405575 
L 179.775466 233.418859 
L 180.044718 233.426363 
L 180.583222 233.544259 
L 180.979181 233.51481 
L 181.216756 233.513317 
L 182.214572 233.593273 
L 182.341279 233.543346 
L 182.372956 233.571285 
L 182.689723 233.716529 
L 182.943136 233.769861 
L 184.226043 233.783158 
L 184.384426 233.793506 
L 184.590325 233.804348 
L 184.764547 233.79763 
L 184.970445 233.861499 
L 185.619818 233.787409 
L 187.1403 233.821122 
L 187.409552 233.933616 
L 187.583773 233.96636 
L 187.853025 233.986034 
L 188.233146 233.909678 
L 188.77165 233.800535 
L 189.611083 233.9177 
L 189.769466 233.934907 
L 189.92785 233.969595 
L 190.102072 234.106446 
L 190.133748 234.078159 
L 190.339647 233.964277 
L 190.941504 234.107572 
L 192.493663 233.720214 
L 193.554832 233.817529 
L 193.871599 233.905262 
L 194.932769 233.71902 
L 195.455435 233.771433 
L 196.009777 233.814325 
L 196.279029 233.9749 
L 196.469089 234.004295 
L 196.611634 233.959204 
L 196.84921 233.976075 
L 197.403552 233.944524 
L 197.641127 233.979809 
L 197.942056 234.000001 
L 198.369691 233.957955 
L 198.559752 233.927531 
L 199.272477 233.915848 
L 199.367508 233.970612 
L 199.415023 233.939122 
L 199.937688 233.916963 
L 200.127749 233.983427 
L 200.317809 233.981953 
L 201.014696 234.059369 
L 201.236433 233.998466 
L 201.394817 234.02649 
L 201.774937 233.941455 
L 201.980836 233.912559 
L 202.345118 233.87024 
L 202.725238 233.901255 
L 203.216227 234.150928 
L 203.849761 234.108644 
L 204.198205 234.074925 
L 204.419942 234.049349 
L 206.019616 233.87158 
L 206.177999 233.881477 
L 206.510604 233.960489 
L 206.700665 233.983634 
L 206.874887 233.958454 
L 207.03327 233.979529 
L 207.191654 233.982849 
L 207.524259 234.066885 
L 207.983571 234.133788 
L 208.126116 234.096834 
L 208.411207 233.997826 
L 208.617105 234.071837 
L 208.854681 234.091943 
L 209.282316 234.189026 
L 210.422678 234.315492 
L 210.644414 234.340075 
L 210.802798 234.306185 
L 211.879806 234.165333 
L 212.291603 234.059387 
L 212.89346 234.126046 
L 213.131036 234.087491 
L 214.097175 234.190141 
L 214.572326 234.15831 
L 214.841578 234.168579 
L 215.459274 234.09843 
L 215.886909 234.196585 
L 217.106462 234.360943 
L 217.328199 234.232418 
L 217.549936 234.22799 
L 218.025087 234.203797 
L 218.37353 234.166125 
L 218.658621 234.047047 
L 218.817004 234.088971 
L 218.991226 234.132935 
L 220.939343 234.152121 
L 221.271949 234.134586 
L 223.932792 234.142315 
L 224.027822 234.086199 
L 224.075337 234.131431 
L 224.265397 234.159936 
L 224.81974 234.059832 
L 225.057315 234.004051 
L 225.484951 233.979834 
L 225.896748 233.982946 
L 226.023455 234.075096 
L 226.26103 234.064351 
L 226.435252 234.153334 
L 226.561959 234.10926 
L 226.73618 234.11694 
L 226.862887 234.009338 
L 227.005432 234.029603 
L 227.179654 234.029176 
L 227.51226 234.031241 
L 227.749835 234.05301 
L 228.098279 233.910683 
L 228.351692 233.977318 
L 228.842681 234.011896 
L 230.141426 234.075205 
L 230.29981 234.159479 
L 230.426516 234.11074 
L 230.664092 233.954556 
L 230.67993 233.968602 
L 230.86999 234.01284 
L 231.218434 233.867078 
L 231.376818 233.919759 
L 231.392656 233.903484 
L 231.598555 233.831794 
L 232.232089 233.684375 
L 233.08736 233.765329 
L 233.578349 233.661839 
L 233.784247 233.656783 
L 235.399759 233.73267 
L 235.732364 233.840449 
L 236.06497 233.90695 
L 236.334222 233.975984 
L 236.730181 233.845194 
L 236.888564 233.844298 
L 237.062786 233.839225 
L 239.786983 233.626858 
L 240.056235 233.653256 
L 240.325487 233.697732 
L 240.547224 233.644954 
L 241.434171 233.723881 
L 241.671747 233.670871 
L 241.988514 233.706156 
L 242.194412 233.72072 
L 243.318935 233.850931 
L 243.524834 233.825684 
L 243.667379 233.788713 
L 243.825763 233.788999 
L 244.221721 233.805365 
L 244.839417 233.575969 
L 245.029477 233.52665 
L 245.393759 233.59708 
L 245.647173 233.506355 
L 247.02511 233.67441 
L 247.199332 233.657033 
L 247.69032 233.587371 
L 248.228824 233.633394 
L 249.068257 233.61101 
L 249.242479 233.210751 
L 249.780983 231.580953 
L 250.794638 229.968679 
L 250.905506 229.914647 
L 250.937183 229.939022 
L 251.048051 229.933589 
L 251.06389 229.907709 
L 251.285626 229.711112 
L 251.713262 229.647109 
L 251.871645 229.614254 
L 252.679401 229.606738 
L 253.423804 230.006967 
L 253.598026 230.073029 
L 253.772248 230.111718 
L 253.978146 230.087008 
L 254.168207 230.162444 
L 254.484974 230.259417 
L 254.785902 230.477107 
L 255.070993 230.508999 
L 255.403598 230.743883 
L 255.799557 230.952059 
L 255.95794 230.961037 
L 256.163839 231.033714 
L 258.602945 231.320889 
L 258.983066 231.37458 
L 259.283994 231.47005 
L 259.458216 231.45372 
L 260.044235 231.678999 
L 261.406334 231.80773 
L 262.30912 232.011295 
L 262.530857 232.082845 
L 262.720917 232.116047 
L 262.942654 232.105613 
L 263.164391 232.085994 
L 263.275259 232.158482 
L 263.465319 232.226122 
L 264.098853 232.181263 
L 264.352267 232.187688 
L 264.621519 232.179581 
L 266.173678 232.215463 
L 266.411253 232.259519 
L 266.680505 232.185118 
L 266.807212 232.214824 
L 266.981434 232.226762 
L 267.424907 232.339974 
L 267.741674 232.313734 
L 267.900058 232.377878 
L 268.121795 232.388719 
L 269.182965 232.635274 
L 269.452217 232.721796 
L 269.673953 232.672368 
L 272.002191 232.533397 
L 272.11306 232.483945 
L 272.287282 232.482709 
L 273.617703 232.555264 
L 273.74441 232.58863 
L 273.871117 232.55142 
L 274.061177 232.491412 
L 274.377944 232.51887 
L 274.615519 232.504228 
L 275.106508 232.67316 
L 275.660851 232.875573 
L 275.835073 232.91651 
L 275.993456 232.945071 
L 276.278546 232.968046 
L 276.81705 232.943779 
L 276.943757 232.897062 
L 277.149656 232.88619 
L 277.292201 232.857782 
L 278.385047 232.756593 
L 278.543431 232.692492 
L 278.733491 232.727984 
L 278.891875 232.699241 
L 279.145288 232.769749 
L 279.715469 232.887615 
L 280.744962 232.896873 
L 282.154575 233.051382 
L 282.740594 233.213473 
L 283.279098 233.189767 
L 283.627542 233.237965 
L 284.371944 233.247741 
L 284.657035 233.183348 
L 284.89461 233.175728 
L 285.401437 233.176045 
L 285.559821 233.207407 
L 285.734043 233.219181 
L 286.811051 233.373713 
L 286.969434 233.416429 
L 287.460423 233.448863 
L 287.602968 233.387546 
L 287.888059 233.409065 
L 289.361025 233.708245 
L 289.598601 233.730495 
L 289.788661 233.722321 
L 289.978721 233.681031 
L 290.453872 233.667668 
L 291.103244 233.423312 
L 291.214113 233.452847 
L 291.43585 233.560467 
L 292.465342 233.524488 
L 292.97217 233.568477 
L 293.178068 233.603341 
L 293.526512 233.711961 
L 293.764087 233.655821 
L 293.985824 233.630854 
L 295.300407 233.828882 
L 295.411276 233.800529 
L 295.506306 233.872042 
L 295.66469 233.923639 
L 296.630829 233.750693 
L 296.915919 233.739571 
L 297.058465 233.728504 
L 297.248525 233.705023 
L 297.612807 233.665292 
L 297.977089 233.561515 
L 299.275834 233.865044 
L 299.339187 233.875185 
L 299.370864 233.834327 
L 299.481732 233.720896 
L 299.529248 233.774606 
L 299.750984 233.936698 
L 300.067752 233.859136 
L 301.002214 233.827518 
L 301.366496 233.827323 
L 301.493203 233.85969 
L 301.61991 233.85888 
L 301.794132 233.813235 
L 302.095061 233.995658 
L 302.332636 234.030705 
L 302.570211 233.963486 
L 303.773926 233.931776 
L 304.02734 233.857674 
L 304.328268 233.813965 
L 304.50249 233.695759 
L 304.771742 233.604352 
L 305.056833 233.648682 
L 305.452791 233.753361 
L 305.690367 233.759239 
L 305.927942 233.795565 
L 306.260547 233.899634 
L 307.242525 233.891363 
L 307.559292 233.924808 
L 308.113635 233.847198 
L 308.335371 233.924333 
L 308.652138 233.986637 
L 309.016421 234.067129 
L 309.174804 234.042229 
L 309.349026 234.057548 
L 309.713308 233.900018 
L 312.659242 233.756492 
L 313.071039 233.813764 
L 313.324452 233.795461 
L 313.546189 233.869941 
L 313.815441 233.807217 
L 314.068855 233.798105 
L 314.544006 233.763374 
L 314.955803 233.800974 
L 315.525983 234.014101 
L 315.985296 233.958339 
L 317.014788 233.799037 
L 317.18901 233.822761 
L 317.410747 233.773108 
L 317.584969 233.716882 
L 317.790868 233.638559 
L 318.123473 233.604834 
L 318.947067 233.679594 
L 319.121289 233.719203 
L 319.327188 233.81201 
L 319.548925 233.829966 
L 319.770662 233.806656 
L 321.085245 233.894762 
L 321.291144 233.834583 
L 321.702941 234.008979 
L 322.225606 234.191341 
L 322.463182 234.206714 
L 322.827464 234.157335 
L 323.033362 234.099405 
L 323.286776 234.133197 
L 323.397644 234.054021 
L 323.44516 234.0936 
L 323.603543 234.101122 
L 324.284592 233.915769 
L 324.743904 233.842623 
L 325.013156 233.747191 
L 325.615014 233.722839 
L 325.757559 233.763904 
L 326.010973 233.83705 
L 326.359416 233.818887 
L 326.565315 233.908966 
L 328.24418 233.887038 
L 328.782684 234.154564 
L 329.051936 234.058571 
L 329.49541 234.010812 
L 329.717147 234.034128 
L 330.192298 233.951261 
L 330.366519 234.015855 
L 330.588256 233.850694 
L 330.762478 233.715822 
L 330.778317 233.726841 
L 330.968377 233.744243 
L 331.491042 233.788341 
L 331.633588 233.767297 
L 332.045385 233.796807 
L 332.219607 233.789145 
L 332.330475 233.862815 
L 332.488859 233.869972 
L 333.787604 233.849945 
L 333.898472 233.818753 
L 333.930149 233.84738 
L 334.088532 233.855353 
L 334.500329 233.881867 
L 334.832935 234.018621 
L 335.086348 234.127429 
L 335.292247 234.230292 
L 335.545661 234.144167 
L 335.878266 234.171832 
L 336.03665 234.176631 
L 336.400932 234.114949 
L 337.256203 234.028135 
L 337.367071 233.945596 
L 337.414586 233.986509 
L 337.525455 233.920331 
L 337.683838 233.877597 
L 338.063959 233.892362 
L 338.380726 233.812394 
L 338.507433 233.841996 
L 338.523271 233.828681 
L 338.681654 233.834553 
L 338.903391 233.877798 
L 339.726986 233.881343 
L 340.012076 233.92035 
L 340.55058 233.822749 
L 340.883185 233.825508 
L 341.089084 233.791947 
L 342.039385 234.086406 
L 342.292799 234.011311 
L 342.625404 233.919582 
L 343.702412 234.016519 
L 344.225078 233.801802 
L 344.890289 233.812796 
L 345.032834 233.820598 
L 345.207056 233.741727 
L 345.222894 233.759677 
L 345.412954 233.82312 
L 346.189033 233.799987 
L 346.363255 233.844432 
L 346.727537 233.789852 
L 347.725354 233.792958 
L 347.836222 233.845949 
L 348.232181 233.982507 
L 348.422241 234.003521 
L 348.580625 234.008747 
L 348.707331 234.035797 
L 349.039937 234.07777 
L 349.340866 233.973194 
L 349.530926 233.982203 
L 349.736824 233.967 
L 349.87937 233.956822 
L 350.148622 233.890492 
L 350.291167 233.891406 
L 351.859164 233.874722 
L 352.096739 233.885558 
L 352.270961 233.987989 
L 353.300454 234.012073 
L 353.538029 233.996596 
L 353.823119 233.996517 
L 354.013179 233.935565 
L 354.440815 234.101415 
L 354.67839 234.171594 
L 354.77342 234.232838 
L 354.820935 234.203109 
L 355.058511 234.257866 
L 355.723722 234.30716 
L 355.850428 234.263866 
L 355.992974 234.250654 
L 356.11968 234.203364 
L 356.483962 234.111599 
L 356.674023 234.097955 
L 356.864083 234.082594 
L 357.149173 234.012134 
L 357.418425 234.001414 
L 357.703516 233.969004 
L 357.861899 233.989512 
L 358.020283 233.993191 
L 358.226181 233.940913 
L 358.542948 233.993684 
L 358.828039 234.108681 
L 359.192321 234.141377 
L 359.382381 234.140031 
L 359.841693 234.133404 
L 360.918701 234.109759 
L 361.69478 234.379922 
L 362.724273 234.047644 
L 362.930172 234.058522 
L 363.151909 234.033976 
L 363.405322 234.020868 
L 363.627059 233.925046 
L 363.943826 233.913022 
L 364.118048 233.878194 
L 364.529845 233.784339 
L 364.878289 233.858228 
L 365.020834 233.878444 
L 365.290086 234.044361 
L 366.177034 233.94277 
L 366.620508 234.041084 
L 366.858083 234.027349 
L 367.507456 234.112872 
L 367.745031 234.14388 
L 368.33105 234.263512 
L 368.473595 234.338644 
L 368.61614 234.276474 
L 368.837877 234.283277 
L 368.996261 234.212318 
L 369.77234 234.14826 
L 370.595934 233.989433 
L 370.912701 233.968663 
L 371.039408 234.010788 
L 371.181953 234.006262 
L 371.340337 234.016276 
L 371.672942 234.05019 
L 371.958033 234.15602 
L 372.607405 234.1984 
L 372.702435 234.106208 
L 372.74995 234.1429 
L 373.082556 234.295532 
L 373.478514 234.308707 
L 373.890312 234.358927 
L 374.96732 234.551254 
L 375.125703 234.542605 
L 375.34744 234.522712 
L 375.917621 234.494206 
L 376.155196 234.456187 
L 376.440286 234.427943 
L 377.105497 234.097754 
L 377.248042 234.040018 
L 377.501456 233.924857 
L 378.13499 234.054435 
L 378.974423 234.110484 
L 379.307028 234.06733 
L 379.512927 234.100209 
L 380.019754 234.11853 
L 380.463228 234.201598 
L 380.684965 234.15923 
L 381.128439 234.352726 
L 381.318499 234.410578 
L 382.474699 234.432286 
L 382.696435 234.418837 
L 382.981526 234.471718 
L 383.234939 234.509226 
L 383.488353 234.365377 
L 383.741767 234.350363 
L 383.963504 234.292822 
L 384.470331 234.313032 
L 385.864106 234.456071 
L 386.054166 234.477066 
L 386.972791 234.405004 
L 387.527133 234.431774 
L 387.717193 234.123908 
L 388.303212 233.227787 
L 388.730848 232.982292 
L 389.28519 233.034016 
L 389.57028 233.004768 
L 389.712826 233.06416 
L 389.839532 233.01913 
L 390.108784 232.939333 
L 390.773995 233.122469 
L 391.217469 233.196705 
L 391.344176 233.258309 
L 391.375853 233.234213 
L 391.518398 233.266519 
L 391.660943 233.318536 
L 391.69262 233.286638 
L 391.88268 233.252474 
L 392.35783 233.443552 
L 392.516214 233.415174 
L 393.260616 233.641799 
L 393.577384 233.576998 
L 394.274271 233.836368 
L 394.448493 233.893074 
L 394.622715 233.983866 
L 394.781098 233.996839 
L 394.986997 234.003338 
L 395.177057 234.023658 
L 395.604693 233.913382 
L 395.873945 233.834303 
L 396.064005 233.773564 
L 396.650024 233.797392 
L 396.871761 233.79124 
L 396.998468 233.753556 
L 397.156851 233.785978 
L 397.283558 233.750705 
L 397.473618 233.675957 
L 397.663678 233.673308 
L 397.853739 233.701119 
L 398.487273 233.839072 
L 398.487273 233.839072 
" clip-path="url(#p4da764d1b8)" style="fill: none; stroke: #2ca02c; stroke-width: 1.5; stroke-linecap: square"/>
   </g>
   <g id="line2d_16">
    <path d="M 73.832727 239.234164 
L 74.165333 239.230851 
L 74.323716 239.197728 
L 75.099795 239.218535 
L 75.543269 239.168735 
L 75.812521 239.183719 
L 76.01842 239.28629 
L 76.097612 239.329962 
L 76.145127 239.27116 
L 76.287672 239.258552 
L 76.620277 239.333751 
L 77.032074 239.461672 
L 77.348841 239.588571 
L 78.093244 239.381284 
L 78.346658 239.442023 
L 78.726778 239.486852 
L 79.09106 239.360344 
L 79.28112 239.227196 
L 79.550372 239.219838 
L 79.756271 239.256615 
L 79.914655 239.167249 
L 80.073038 239.121555 
L 80.24726 239.098812 
L 80.453159 239.149464 
L 80.801602 239.193416 
L 81.371783 239.205817 
L 81.561843 239.1878 
L 81.641035 239.051729 
L 81.720227 237.838514 
L 82.100347 229.563328 
L 82.623013 224.350288 
L 83.509961 218.345604 
L 84.650322 211.310969 
L 85.426401 206.591684 
L 86.693469 196.882774 
L 86.851853 193.525949 
L 86.915206 184.26354 
L 87.010236 114.86204 
L 87.105267 53.568 
L 87.152782 62.624323 
L 87.596255 201.945946 
L 87.770477 208.221615 
L 87.817992 208.323303 
L 87.881346 208.216353 
L 88.008053 207.505505 
L 88.60991 202.94819 
L 88.768293 202.42314 
L 89.95617 197.840529 
L 90.367967 196.64647 
L 90.558027 196.049833 
L 90.858956 195.401229 
L 91.270753 194.105622 
L 91.460813 193.589715 
L 92.221054 189.540309 
L 92.506145 185.95273 
L 92.585336 180.544835 
L 92.664528 151.547617 
L 92.822912 64.681204 
L 92.870427 72.183518 
L 93.408931 197.896261 
L 93.630668 204.773713 
L 93.789051 205.314922 
L 93.979111 205.185429 
L 94.327555 203.665092 
L 94.961089 200.504639 
L 95.848037 198.161387 
L 95.974744 197.827561 
L 96.117289 197.726379 
L 96.228157 197.638006 
L 97.416034 195.123233 
L 97.542741 194.961446 
L 98.762294 191.103844 
L 98.904839 190.343977 
L 99.364151 186.173276 
L 99.506696 183.375605 
L 99.57005 175.897794 
L 99.66508 127.117701 
L 99.791787 63.477887 
L 99.839302 68.999463 
L 100.472836 199.377221 
L 100.694573 204.346965 
L 100.900471 205.129186 
L 101.058855 205.101752 
L 101.185562 204.724151 
L 101.676551 202.922334 
L 102.563498 201.305236 
L 103.117841 199.620894 
L 103.244547 199.413803 
L 104.163172 197.229737 
L 104.527454 196.453156 
L 105.937067 192.399987 
L 106.903207 186.365104 
L 107.045752 184.047562 
L 107.124944 176.455172 
L 107.219974 130.519338 
L 107.362519 62.96969 
L 107.394196 67.139714 
L 108.075245 199.366476 
L 108.281144 202.687267 
L 108.487042 203.45339 
L 108.613749 203.667601 
L 108.661264 203.595156 
L 109.27896 202.261889 
L 109.453182 202.111857 
L 109.785787 201.509075 
L 109.975847 201.243998 
L 110.102554 201.088588 
L 110.482674 200.246109 
L 110.736088 199.441754 
L 111.052855 198.894338 
L 111.385461 198.331208 
L 111.797258 197.178086 
L 112.953457 194.671542 
L 113.032649 194.598025 
L 113.143518 194.02549 
L 113.396931 192.948072 
L 113.586992 192.008803 
L 113.824567 191.239629 
L 114.204687 190.042665 
L 114.901575 183.514335 
L 114.980767 177.781404 
L 115.059958 148.419158 
L 115.218342 63.797447 
L 115.281695 72.040351 
L 115.851876 192.64165 
L 116.073613 200.92501 
L 116.29535 202.478567 
L 116.48541 203.095054 
L 116.517087 203.065964 
L 117.293166 201.956545 
L 117.467388 201.82682 
L 117.609933 201.438036 
L 117.784155 201.252367 
L 117.9267 201.16978 
L 118.306821 200.574477 
L 118.766133 199.81422 
L 119.0829 199.584416 
L 119.304637 199.368541 
L 119.383828 199.171116 
L 119.65308 198.415981 
L 119.811464 198.050075 
L 120.42916 196.391431 
L 120.444998 196.40195 
L 120.555867 196.422933 
L 120.571705 196.403838 
L 120.951825 195.663583 
L 121.474491 194.279646 
L 122.012995 192.97151 
L 122.472307 192.017726 
L 122.599014 191.676031 
L 123.105841 190.071499 
L 123.295902 188.912067 
L 123.707699 183.858429 
L 123.78689 180.486125 
L 123.866082 160.843634 
L 124.056142 62.912271 
L 124.135334 77.986531 
L 124.578808 181.431765 
L 124.816383 198.285276 
L 125.069797 202.179546 
L 125.275696 202.966109 
L 125.576624 202.863027 
L 125.671654 202.69446 
L 125.956745 202.258368 
L 126.210158 202.057203 
L 126.431895 201.600433 
L 126.716986 201.091779 
L 126.764501 201.119609 
L 126.859531 201.059479 
L 128.506719 198.731869 
L 128.69678 198.568541 
L 128.950193 198.224434 
L 129.393667 197.551551 
L 129.631242 197.193021 
L 130.80328 194.839451 
L 131.056694 193.983286 
L 131.262593 193.513645 
L 131.373461 193.431473 
L 131.595198 192.649495 
L 132.577176 190.117924 
L 132.703883 189.942877 
L 132.862266 189.17176 
L 133.242387 185.823785 
L 133.432447 182.246341 
L 133.4958 174.713639 
L 133.590831 126.330357 
L 133.717537 61.774023 
L 133.765052 66.197625 
L 134.446102 198.219202 
L 134.667838 201.488585 
L 134.921252 202.368577 
L 134.984606 202.389232 
L 135.016282 202.337891 
L 135.206342 201.956727 
L 135.253857 201.997202 
L 135.475594 202.045564 
L 136.346704 201.48398 
L 136.742663 200.748367 
L 137.597934 199.090801 
L 137.819671 198.907903 
L 138.263144 197.986157 
L 138.960032 196.531991 
L 139.75195 195.390905 
L 140.718089 193.019306 
L 141.082371 191.560334 
L 141.272431 190.758574 
L 141.890127 187.483459 
L 142.191056 184.839781 
L 142.301924 181.683004 
L 142.381116 170.235238 
L 142.507823 94.01618 
L 142.602853 63.343588 
L 142.650368 69.921732 
L 143.268064 195.28795 
L 143.489801 201.809869 
L 143.711538 203.065117 
L 143.901598 203.418951 
L 143.996628 203.33536 
L 144.218365 203.072329 
L 144.376748 202.988859 
L 144.677677 202.754279 
L 144.883576 202.593966 
L 145.61214 201.506645 
L 145.99226 201.479497 
L 146.451573 200.927879 
L 146.641633 200.752509 
L 147.069268 200.682451 
L 147.370197 200.307079 
L 147.655287 199.818855 
L 147.908701 199.38618 
L 148.257145 198.639409 
L 148.573912 197.9838 
L 148.716457 197.756194 
L 149.381668 195.584986 
L 150.331969 192.451589 
L 150.632898 191.707984 
L 151.614875 187.527399 
L 151.915804 186.125932 
L 152.042511 185.503841 
L 152.295925 182.637616 
L 152.406793 178.89093 
L 152.485985 161.979729 
L 152.676045 63.062979 
L 152.755237 76.453537 
L 153.246226 187.858099 
L 153.467963 200.533644 
L 153.705538 203.370309 
L 153.87976 203.519683 
L 153.943113 203.436542 
L 154.544971 202.044083 
L 154.592486 202.017028 
L 154.640001 202.071748 
L 154.798384 202.115871 
L 155.51111 201.396636 
L 155.812039 201.189271 
L 155.907069 201.219762 
L 155.938746 201.176638 
L 156.461411 200.078426 
L 156.76234 199.539081 
L 157.205814 198.719072 
L 158.251145 196.445256 
L 159.613243 193.980618 
L 159.850819 193.542894 
L 159.961687 193.300597 
L 160.547706 191.06993 
L 161.513846 185.06319 
L 161.672229 182.189196 
L 161.751421 171.62547 
L 161.878128 95.667516 
L 161.973158 62.912155 
L 162.020673 69.124972 
L 162.654207 195.862111 
L 162.875944 201.649562 
L 163.097681 202.804298 
L 163.461963 203.357811 
L 163.699538 203.187776 
L 163.952952 202.795905 
L 164.190527 202.651641 
L 164.538971 202.037061 
L 165.774362 200.586787 
L 167.009754 198.797377 
L 167.136461 198.759375 
L 167.421551 197.908632 
L 168.1026 196.320898 
L 168.419367 195.590992 
L 168.878679 194.311958 
L 169.211285 194.06756 
L 169.337992 194.001699 
L 170.367485 191.200245 
L 171.412816 186.371603 
L 171.682068 182.759901 
L 171.777098 179.733981 
L 171.85629 165.85631 
L 172.062188 62.760162 
L 172.157218 82.255758 
L 172.584854 181.803519 
L 172.822429 199.349452 
L 173.044166 202.465466 
L 173.29758 203.44887 
L 173.440125 203.653513 
L 173.471802 203.617954 
L 173.804407 203.204551 
L 173.994467 203.198965 
L 174.200366 202.781116 
L 174.675516 202.146703 
L 174.944768 201.909772 
L 175.388242 201.720113 
L 175.641656 201.256953 
L 175.673333 201.28432 
L 175.815878 201.346392 
L 175.831716 201.332627 
L 176.607795 200.398449 
L 177.558096 198.081742 
L 177.969894 196.995815 
L 178.413368 196.222761 
L 178.841003 195.278619 
L 179.427022 193.625335 
L 179.807143 192.561353 
L 179.886334 192.619735 
L 180.044718 192.604806 
L 180.725767 190.931964 
L 181.47017 187.764732 
L 181.676068 185.897632 
L 181.94532 182.355506 
L 182.056189 177.911616 
L 182.13538 158.889766 
L 182.325441 62.609717 
L 182.404632 76.563898 
L 182.879783 184.171052 
L 183.117358 199.665973 
L 183.323257 202.534372 
L 183.592509 202.937245 
L 184.067659 203.452537 
L 184.131013 203.33084 
L 184.210204 203.23266 
L 184.25772 203.283922 
L 184.35275 203.389234 
L 184.400265 203.327167 
L 185.160506 201.898937 
L 185.398081 201.381105 
L 185.841555 201.163585 
L 186.015777 201.077106 
L 186.395897 200.475688 
L 186.744341 199.705369 
L 186.997754 199.152715 
L 187.536258 197.961848 
L 187.948056 196.973754 
L 188.359853 196.015036 
L 188.518236 195.929239 
L 188.597428 195.826778 
L 188.819165 195.513996 
L 188.898357 195.428425 
L 189.389346 194.224097 
L 189.405184 194.23084 
L 189.547729 194.193965 
L 189.83282 193.412895 
L 190.893989 190.36524 
L 191.305786 188.360424 
L 191.875967 184.649412 
L 192.113542 181.797522 
L 192.192734 177.901696 
L 192.271926 158.729558 
L 192.461986 63.08674 
L 192.541178 76.257537 
L 193.032167 185.583078 
L 193.269742 199.548637 
L 193.538994 203.088226 
L 193.681539 203.413768 
L 193.713216 203.402823 
L 193.824084 203.462562 
L 193.998306 203.497939 
L 194.140851 203.54736 
L 194.283397 203.492286 
L 194.457618 203.521407 
L 194.869416 203.554499 
L 194.996122 203.352853 
L 195.297051 202.945626 
L 195.819717 202.350335 
L 196.104807 202.104189 
L 196.469089 201.099028 
L 196.627473 200.880948 
L 197.070947 200.024966 
L 197.371875 199.666211 
L 198.242985 197.967689 
L 198.591428 197.467173 
L 198.718135 197.210544 
L 199.066579 196.432898 
L 199.304154 196.270203 
L 199.430861 196.05068 
L 199.906012 195.265188 
L 200.01688 195.059211 
L 201.378978 191.126307 
L 202.345118 187.099231 
L 202.61437 184.591454 
L 202.741077 180.799207 
L 202.820268 165.57766 
L 203.026167 61.94633 
L 203.121197 81.819855 
L 203.548833 179.685342 
L 203.786408 198.74846 
L 204.023983 202.939248 
L 204.229882 203.919705 
L 204.499134 204.123891 
L 204.625841 204.171022 
L 204.736709 204.311534 
L 204.784224 204.260449 
L 205.671172 203.009215 
L 205.861232 202.792585 
L 206.225514 202.403454 
L 206.320544 202.365879 
L 206.542281 202.118673 
L 206.65315 201.893083 
L 206.84321 201.700811 
L 207.017432 201.571269 
L 207.730158 200.248649 
L 208.268662 199.023667 
L 208.442883 198.774859 
L 209.123933 197.723882 
L 209.250639 197.541123 
L 209.678275 196.61032 
L 210.264294 195.462132 
L 210.676091 194.348766 
L 211.103727 193.330375 
L 211.372979 192.826875 
L 211.658069 192.229934 
L 212.149058 190.672588 
L 212.41831 189.708212 
L 212.89346 187.621351 
L 213.273581 182.261261 
L 213.352773 172.590876 
L 213.463641 109.691338 
L 213.57451 62.258081 
L 213.622025 67.486282 
L 214.287235 196.601635 
L 214.508972 202.359563 
L 214.794063 204.17154 
L 214.999961 204.519064 
L 215.031638 204.500748 
L 215.190022 204.171985 
L 215.522627 203.755238 
L 215.633495 203.799403 
L 215.776041 203.996627 
L 215.823556 203.954265 
L 216.853049 202.746428 
L 217.106462 202.313851 
L 217.233169 202.379888 
L 217.312361 202.424687 
L 217.344037 202.389488 
L 217.961733 201.662371 
L 218.120117 201.59866 
L 219.102095 199.413407 
L 219.260478 199.230058 
L 219.925689 198.090561 
L 220.084072 197.919869 
L 220.717607 196.706642 
L 221.081889 195.768975 
L 221.620393 194.662168 
L 221.905483 193.826743 
L 222.348957 193.146484 
L 222.966653 190.910481 
L 223.520995 188.332948 
L 223.66354 187.732127 
L 223.901115 185.771001 
L 224.122852 182.213615 
L 224.202044 174.098809 
L 224.297074 126.583806 
L 224.423781 61.843673 
L 224.471296 65.876986 
L 225.19986 199.250803 
L 225.421597 202.939894 
L 225.690849 203.702429 
L 225.880909 203.654445 
L 226.181838 203.305155 
L 226.371898 203.259442 
L 226.514443 203.239452 
L 226.752019 203.202108 
L 226.847049 203.111061 
L 227.211331 202.499484 
L 227.448906 202.426886 
L 227.60729 202.373475 
L 227.749835 202.11891 
L 228.034925 201.582349 
L 228.193309 201.620045 
L 228.430884 201.470854 
L 228.779328 201.145599 
L 229.254478 200.31155 
L 229.381185 200.216891 
L 229.61876 199.90615 
L 229.713791 199.829478 
L 230.790799 197.237278 
L 231.028374 196.766784 
L 231.265949 196.241155 
L 231.962837 194.567022 
L 233.071521 191.828451 
L 233.404127 190.899414 
L 234.338589 186.691919 
L 234.71871 183.070739 
L 234.861255 179.422195 
L 234.940447 166.246178 
L 235.146345 62.855857 
L 235.257214 84.751557 
L 235.684849 179.912484 
L 235.938263 198.511061 
L 236.16 202.141222 
L 236.397575 203.185937 
L 236.54012 203.257 
L 236.571797 203.20971 
L 236.872726 202.816108 
L 237.347876 202.685366 
L 237.474583 202.639776 
L 237.807189 202.367786 
L 237.965572 202.314393 
L 238.56743 201.573243 
L 238.599106 201.601285 
L 238.678298 201.601834 
L 238.709975 201.555165 
L 239.105934 200.590618 
L 239.295994 200.449711 
L 239.771144 199.841252 
L 240.087911 199.076225 
L 240.182941 198.958811 
L 240.230457 198.993827 
L 240.373002 198.99024 
L 240.658092 198.368667 
L 241.750938 196.237075 
L 241.988514 195.929672 
L 242.416149 194.693403 
L 242.748755 193.770956 
L 243.413965 192.4215 
L 244.14253 189.632027 
L 244.981962 184.374002 
L 245.092831 180.950677 
L 245.172022 167.050512 
L 245.377921 62.898043 
L 245.48879 85.224506 
L 245.900587 177.561597 
L 246.154 197.601338 
L 246.375737 201.534054 
L 246.454929 201.680151 
L 246.502444 201.645268 
L 246.597474 201.656274 
L 246.613313 201.675984 
L 246.914241 202.128632 
L 246.977595 201.975573 
L 247.199332 201.568559 
L 247.278523 201.533195 
L 247.326038 201.589207 
L 247.547775 201.732167 
L 247.737836 201.70555 
L 248.529753 200.794451 
L 248.75149 200.578071 
L 249.131611 199.971445 
L 249.701791 199.268071 
L 250.525386 197.918992 
L 251.269788 196.475187 
L 252.061706 195.24239 
L 252.410149 194.413677 
L 252.901138 193.501604 
L 253.376289 192.505993 
L 253.677218 192.027935 
L 253.819763 191.836363 
L 254.51665 190.309411 
L 254.659195 190.068271 
L 255.007639 188.664574 
L 255.847072 183.548222 
L 256.021294 179.578278 
L 256.100486 167.325697 
L 256.322222 63.484775 
L 256.433091 86.29307 
L 256.860726 180.493263 
L 257.098302 197.239044 
L 257.351715 201.496875 
L 257.541776 202.021498 
L 257.731836 202.161084 
L 257.811028 202.242696 
L 257.858543 202.189705 
L 258.096118 201.978527 
L 258.206986 201.945392 
L 258.634622 201.437714 
L 258.793005 201.387025 
L 259.537408 200.488565 
L 259.71163 200.476115 
L 260.044235 200.140158 
L 260.487709 199.682638 
L 260.630254 199.609626 
L 261.580555 198.204285 
L 261.849807 197.679814 
L 263.338613 195.469831 
L 263.465319 195.320945 
L 263.813763 194.442481 
L 264.368105 192.762592 
L 265.524305 189.618858 
L 265.920264 187.712289 
L 266.332061 185.949118 
L 266.63299 183.013877 
L 266.775535 179.701708 
L 266.854727 169.337862 
L 266.981434 96.543043 
L 267.076464 64.396538 
L 267.123979 69.912657 
L 267.78919 195.052408 
L 268.010926 201.229666 
L 268.232663 202.682693 
L 268.501915 203.242771 
L 268.533592 203.223457 
L 268.771167 203.029479 
L 268.977066 202.759237 
L 269.499732 202.054383 
L 269.721469 201.796822 
L 269.911529 201.708961 
L 270.275811 201.039184 
L 270.434194 200.902376 
L 271.020213 200.023736 
L 271.33698 199.867449 
L 271.970515 198.940532 
L 272.065545 198.761099 
L 272.413988 198.047961 
L 272.556534 198.089532 
L 272.651564 198.074804 
L 272.667402 198.052566 
L 273.269259 197.279884 
L 273.380128 197.138982 
L 274.552166 194.561284 
L 274.80558 194.115039 
L 275.074832 193.401755 
L 275.391599 192.955065 
L 276.025133 191.100865 
L 276.468607 189.70181 
L 277.624806 182.685862 
L 277.751513 179.372768 
L 277.830705 167.168314 
L 278.052442 63.738676 
L 278.16331 87.44551 
L 278.575107 177.868419 
L 278.812683 196.798895 
L 279.03442 200.690119 
L 279.287833 201.580345 
L 279.493732 202.062216 
L 279.572924 201.981944 
L 279.69963 201.998389 
L 279.889691 202.051624 
L 280.222296 201.764486 
L 280.649932 201.778744 
L 281.315142 201.387817 
L 281.568556 201.360822 
L 282.756432 199.814031 
L 283.215745 198.318131 
L 283.564188 197.323519 
L 283.896794 197.043513 
L 284.166046 196.701477 
L 285.132185 194.521054 
L 285.654851 193.068569 
L 286.415092 191.110355 
L 286.700182 189.965712 
L 287.602968 187.036872 
L 287.856382 185.076697 
L 288.046442 183.058389 
L 288.173149 179.912241 
L 288.252341 168.652368 
L 288.394886 85.074182 
L 288.474078 64.177137 
L 288.521593 69.980546 
L 289.170965 193.31608 
L 289.40854 200.064935 
L 289.630277 201.421774 
L 289.693631 201.463606 
L 289.756984 201.41832 
L 289.852014 201.507114 
L 290.010398 201.795629 
L 290.057913 201.726277 
L 290.643932 200.581409 
L 290.770639 200.45356 
L 291.039891 200.163876 
L 291.166598 200.220601 
L 291.404173 200.224913 
L 291.499203 200.101907 
L 291.657586 200.022658 
L 291.81597 199.925635 
L 292.19609 199.333951 
L 292.354474 199.185058 
L 292.497019 199.044881 
L 293.146392 198.290216 
L 293.463159 197.988069 
L 293.732411 197.686605 
L 294.350106 196.786013 
L 294.619358 196.165317 
L 294.872772 195.951416 
L 295.126186 195.73905 
L 295.268731 195.6194 
L 296.852566 191.656687 
L 297.517777 190.318273 
L 297.644484 189.996733 
L 298.182988 188.195549 
L 298.784845 185.595954 
L 299.291672 180.554989 
L 299.370864 175.848717 
L 299.450056 153.496635 
L 299.640116 64.654781 
L 299.703469 73.947895 
L 300.289488 190.031013 
L 300.527064 199.353326 
L 300.764639 201.588775 
L 300.875507 201.772032 
L 300.923023 201.735079 
L 301.350658 201.429716 
L 301.825809 201.600695 
L 302.158414 201.043186 
L 302.174252 201.050203 
L 302.427666 201.053614 
L 302.68108 200.901889 
L 302.855302 200.773803 
L 303.029523 200.530994 
L 303.219584 200.179261 
L 303.393806 199.926403 
L 303.441321 199.956486 
L 303.599704 199.925361 
L 304.074855 199.574987 
L 304.249077 199.578172 
L 304.470813 199.361725 
L 305.072671 198.566451 
L 305.611175 197.508111 
L 305.75372 197.36043 
L 306.894081 194.971971 
L 307.242525 194.236145 
L 307.749352 193.25885 
L 308.335371 192.521373 
L 308.557108 191.986973 
L 308.953067 190.793712 
L 309.222319 190.026712 
L 310.378519 185.364694 
L 310.568579 182.561096 
L 310.663609 178.678676 
L 310.742801 162.341868 
L 310.9487 63.837068 
L 311.027891 77.701616 
L 311.51888 183.518745 
L 311.756456 198.200198 
L 311.994031 201.300059 
L 312.326636 202.411116 
L 312.437505 202.404971 
L 312.453343 202.389043 
L 312.738433 202.224241 
L 312.817625 202.113636 
L 313.166069 201.435247 
L 313.308614 201.293085 
L 314.084693 200.614391 
L 314.195562 200.53918 
L 314.49649 200.226959 
L 314.813258 200.029814 
L 315.209216 199.159385 
L 316.539638 196.794632 
L 316.761375 196.333549 
L 317.109819 195.612919 
L 317.220687 195.402654 
L 317.489939 194.882435 
L 317.838383 194.596204 
L 318.361048 193.807581 
L 318.487755 193.64703 
L 318.709492 193.170781 
L 318.915391 192.83723 
L 319.105451 192.392257 
L 319.216319 191.943222 
L 319.247996 192.108109 
L 319.343026 194.342316 
L 319.643955 200.427704 
L 320.119106 205.565509 
L 320.800155 209.639595 
L 321.354497 212.186339 
L 322.399828 215.440452 
L 323.334291 217.636164 
L 323.492675 217.862728 
L 324.442976 220.290613 
L 324.633036 220.775256 
L 326.311901 224.513555 
L 327.578969 226.408381 
L 327.705676 226.468237 
L 328.751008 227.873066 
L 329.938884 229.067082 
L 329.986399 229.001538 
L 330.049752 228.970072 
L 330.097267 229.025365 
L 330.429873 229.342368 
L 330.809993 229.555446 
L 330.984215 229.645842 
L 332.37799 231.136864 
L 332.678919 231.359682 
L 332.979848 231.572243 
L 333.090716 231.617834 
L 333.62922 232.169093 
L 334.357784 232.541236 
L 334.927965 232.842908 
L 335.086348 232.892275 
L 335.244732 232.911339 
L 335.403116 232.933608 
L 336.13168 233.209252 
L 336.41677 233.205391 
L 336.527639 233.267506 
L 336.559315 233.240066 
L 336.70186 233.261981 
L 337.240364 233.599699 
L 337.462101 233.698536 
L 338.016444 234.037222 
L 338.301534 234.368075 
L 338.665816 234.608125 
L 339.283512 234.634906 
L 339.457734 234.715666 
L 340.313005 235.189047 
L 340.708964 235.463881 
L 341.770133 235.875153 
L 342.387829 236.11664 
L 342.593727 236.22666 
L 342.815464 236.269345 
L 343.195585 236.177494 
L 343.43316 236.189603 
L 343.813281 236.452743 
L 344.921965 236.735849 
L 345.302086 236.827238 
L 345.618853 236.836471 
L 345.808913 236.791191 
L 346.109842 236.925033 
L 346.5058 236.667607 
L 346.632507 236.750796 
L 346.901759 236.989926 
L 347.361072 237.173336 
L 347.630323 237.369135 
L 347.820384 237.425171 
L 347.994606 237.431238 
L 348.295534 237.073725 
L 348.960745 236.162565 
L 349.467572 235.841567 
L 349.689309 235.702195 
L 350.006076 235.488483 
L 351.003893 235.80004 
L 351.288983 236.060019 
L 351.859164 236.362597 
L 352.144254 236.518172 
L 352.381829 236.574671 
L 353.268777 236.945182 
L 353.411322 236.964612 
L 353.664736 237.130602 
L 354.171563 237.372838 
L 355.106026 237.820838 
L 355.296086 237.882125 
L 355.707883 238.069409 
L 356.167195 238.066497 
L 356.293902 238.096087 
L 356.864083 238.140136 
L 357.18085 238.198585 
L 357.37091 238.36868 
L 357.545132 238.453368 
L 357.941091 238.598795 
L 358.352888 238.812636 
L 358.780524 238.697322 
L 359.018099 238.71216 
L 359.239836 238.66102 
L 359.461573 238.509807 
L 359.635795 238.470862 
L 359.825855 238.507492 
L 360.126783 238.529188 
L 360.237652 238.473542 
L 360.269329 238.505458 
L 360.665287 238.785263 
L 360.934539 238.781547 
L 361.092923 238.759145 
L 361.31466 238.590195 
L 361.50472 238.447838 
L 361.742295 238.403581 
L 361.853164 238.337348 
L 361.884841 238.360981 
L 362.391668 238.65834 
L 362.597566 238.720638 
L 362.75595 238.694581 
L 362.993525 238.675894 
L 363.737928 238.863531 
L 364.038856 238.99769 
L 364.514007 239.193367 
L 364.878289 239.272208 
L 365.084188 239.160293 
L 365.511823 238.9394 
L 366.493801 239.053739 
L 366.731376 239.179638 
L 367.935091 239.72078 
L 368.093475 239.645094 
L 368.23602 239.677401 
L 368.457757 239.654669 
L 368.631979 239.63798 
L 368.980422 239.848982 
L 369.138806 239.866938 
L 369.249674 239.788779 
L 369.629795 239.362268 
L 369.804017 239.319254 
L 370.390036 239.516771 
L 370.627611 239.424993 
L 370.865186 239.41331 
L 370.976055 239.365363 
L 371.007731 239.403662 
L 371.261145 239.582516 
L 371.387852 239.528563 
L 371.625427 239.380712 
L 371.847164 239.438234 
L 373.225101 239.681823 
L 373.399323 239.761407 
L 373.557706 239.790838 
L 374.254594 240.174152 
L 374.729744 240.064418 
L 374.935643 240.103778 
L 375.34744 240.057718 
L 375.600854 240.131443 
L 376.060166 240.115594 
L 376.772892 240.160935 
L 377.628163 240.233149 
L 378.214182 240.299686 
L 378.562626 240.364384 
L 380.051431 240.315194 
L 380.859187 240.504768 
L 381.065085 240.488761 
L 382.110416 240.665531 
L 383.488353 240.558599 
L 383.567545 240.512479 
L 383.61506 240.556857 
L 383.979342 240.741217 
L 384.454493 240.792832 
L 384.565361 240.74408 
L 384.597038 240.772963 
L 384.802936 240.822787 
L 385.626531 240.852681 
L 386.022489 240.704185 
L 386.418448 240.971808 
L 386.624347 240.878897 
L 387.986445 241.192725 
L 389.538604 240.693099 
L 389.66531 240.697168 
L 390.013754 240.608837 
L 390.25133 240.649902 
L 391.534236 240.892516 
L 392.136093 240.459683 
L 392.532052 240.597118 
L 392.753789 240.547636 
L 392.975526 240.597021 
L 393.735767 240.884439 
L 393.957504 240.892674 
L 394.115887 240.985232 
L 394.48017 241.044509 
L 394.907805 240.878787 
L 395.14538 240.868408 
L 395.287926 240.901189 
L 395.414632 240.933995 
L 395.430471 240.919742 
L 395.557178 240.860563 
L 395.588854 240.892857 
L 395.699723 240.919791 
L 395.731399 240.882722 
L 396.412449 240.181352 
L 396.618347 240.303061 
L 396.935114 240.338656 
L 397.584487 240.338607 
L 397.93293 240.115825 
L 398.423919 240.209955 
L 398.487273 240.219396 
L 398.487273 240.219396 
" clip-path="url(#p4da764d1b8)" style="fill: none; stroke: #d62728; stroke-width: 1.5; stroke-linecap: square"/>
   </g>
   <g id="patch_3">
    <path d="M 57.6 307.584 
L 57.6 41.472 
" style="fill: none; stroke: #000000; stroke-width: 0.8; stroke-linejoin: miter; stroke-linecap: square"/>
   </g>
   <g id="patch_4">
    <path d="M 414.72 307.584 
L 414.72 41.472 
" style="fill: none; stroke: #000000; stroke-width: 0.8; stroke-linejoin: miter; stroke-linecap: square"/>
   </g>
   <g id="patch_5">
    <path d="M 57.6 307.584 
L 414.72 307.584 
" style="fill: none; stroke: #000000; stroke-width: 0.8; stroke-linejoin: miter; stroke-linecap: square"/>
   </g>
   <g id="patch_6">
    <path d="M 57.6 41.472 
L 414.72 41.472 
" style="fill: none; stroke: #000000; stroke-width: 0.8; stroke-linejoin: miter; stroke-linecap: square"/>
   </g>
  </g>
 </g>
 <defs>
  <clipPath id="p4da764d1b8">
   <rect x="57.6" y="41.472" width="357.12" height="266.112"/>
  </clipPath>
 </defs>
</svg>
