<?xml version="1.0" encoding="utf-8" standalone="no"?>
<!DOCTYPE svg PUBLIC "-//W3C//DTD SVG 1.1//EN"
  "http://www.w3.org/Graphics/SVG/1.1/DTD/svg11.dtd">
<svg xmlns:xlink="http://www.w3.org/1999/xlink" width="460.8pt" height="345.6pt" viewBox="0 0 460.8 345.6" xmlns="http://www.w3.org/2000/svg" version="1.1">
 <metadata>
  <rdf:RDF xmlns:dc="http://purl.org/dc/elements/1.1/" xmlns:cc="http://creativecommons.org/ns#" xmlns:rdf="http://www.w3.org/1999/02/22-rdf-syntax-ns#">
   <cc:Work>
    <dc:type rdf:resource="http://purl.org/dc/dcmitype/StillImage"/>
    <dc:date>2024-02-29T19:38:33.853513</dc:date>
    <dc:format>image/svg+xml</dc:format>
    <dc:creator>
     <cc:Agent>
      <dc:title>Matplotlib v3.6.2, https://matplotlib.org/</dc:title>
     </cc:Agent>
    </dc:creator>
   </cc:Work>
  </rdf:RDF>
 </metadata>
 <defs>
  <style type="text/css">*{stroke-linejoin: round; stroke-linecap: butt}</style>
 </defs>
 <g id="figure_1">
  <g id="patch_1">
   <path d="M 0 345.6 
L 460.8 345.6 
L 460.8 0 
L 0 0 
z
" style="fill: #ffffff"/>
  </g>
  <g id="axes_1">
   <g id="patch_2">
    <path d="M 57.6 307.584 
L 414.72 307.584 
L 414.72 41.472 
L 57.6 41.472 
z
" style="fill: #ffffff"/>
   </g>
   <g id="matplotlib.axis_1">
    <g id="xtick_1">
     <g id="line2d_1">
      <defs>
       <path id="mcbc4aee0d2" d="M 0 0 
L 0 3.5 
" style="stroke: #000000; stroke-width: 0.8"/>
      </defs>
      <g>
       <use xlink:href="#mcbc4aee0d2" x="121.347784" y="307.584" style="stroke: #000000; stroke-width: 0.8"/>
      </g>
     </g>
     <g id="text_1">
      <!-- 0.2 -->
      <g transform="translate(113.396222 322.182437) scale(0.1 -0.1)">
       <defs>
        <path id="DejaVuSans-30" d="M 2034 4250 
Q 1547 4250 1301 3770 
Q 1056 3291 1056 2328 
Q 1056 1369 1301 889 
Q 1547 409 2034 409 
Q 2525 409 2770 889 
Q 3016 1369 3016 2328 
Q 3016 3291 2770 3770 
Q 2525 4250 2034 4250 
z
M 2034 4750 
Q 2819 4750 3233 4129 
Q 3647 3509 3647 2328 
Q 3647 1150 3233 529 
Q 2819 -91 2034 -91 
Q 1250 -91 836 529 
Q 422 1150 422 2328 
Q 422 3509 836 4129 
Q 1250 4750 2034 4750 
z
" transform="scale(0.015625)"/>
        <path id="DejaVuSans-2e" d="M 684 794 
L 1344 794 
L 1344 0 
L 684 0 
L 684 794 
z
" transform="scale(0.015625)"/>
        <path id="DejaVuSans-32" d="M 1228 531 
L 3431 531 
L 3431 0 
L 469 0 
L 469 531 
Q 828 903 1448 1529 
Q 2069 2156 2228 2338 
Q 2531 2678 2651 2914 
Q 2772 3150 2772 3378 
Q 2772 3750 2511 3984 
Q 2250 4219 1831 4219 
Q 1534 4219 1204 4116 
Q 875 4013 500 3803 
L 500 4441 
Q 881 4594 1212 4672 
Q 1544 4750 1819 4750 
Q 2544 4750 2975 4387 
Q 3406 4025 3406 3419 
Q 3406 3131 3298 2873 
Q 3191 2616 2906 2266 
Q 2828 2175 2409 1742 
Q 1991 1309 1228 531 
z
" transform="scale(0.015625)"/>
       </defs>
       <use xlink:href="#DejaVuSans-30"/>
       <use xlink:href="#DejaVuSans-2e" x="63.623047"/>
       <use xlink:href="#DejaVuSans-32" x="95.410156"/>
      </g>
     </g>
    </g>
    <g id="xtick_2">
     <g id="line2d_2">
      <g>
       <use xlink:href="#mcbc4aee0d2" x="200.539546" y="307.584" style="stroke: #000000; stroke-width: 0.8"/>
      </g>
     </g>
     <g id="text_2">
      <!-- 0.4 -->
      <g transform="translate(192.587983 322.182437) scale(0.1 -0.1)">
       <defs>
        <path id="DejaVuSans-34" d="M 2419 4116 
L 825 1625 
L 2419 1625 
L 2419 4116 
z
M 2253 4666 
L 3047 4666 
L 3047 1625 
L 3713 1625 
L 3713 1100 
L 3047 1100 
L 3047 0 
L 2419 0 
L 2419 1100 
L 313 1100 
L 313 1709 
L 2253 4666 
z
" transform="scale(0.015625)"/>
       </defs>
       <use xlink:href="#DejaVuSans-30"/>
       <use xlink:href="#DejaVuSans-2e" x="63.623047"/>
       <use xlink:href="#DejaVuSans-34" x="95.410156"/>
      </g>
     </g>
    </g>
    <g id="xtick_3">
     <g id="line2d_3">
      <g>
       <use xlink:href="#mcbc4aee0d2" x="279.731307" y="307.584" style="stroke: #000000; stroke-width: 0.8"/>
      </g>
     </g>
     <g id="text_3">
      <!-- 0.6 -->
      <g transform="translate(271.779745 322.182437) scale(0.1 -0.1)">
       <defs>
        <path id="DejaVuSans-36" d="M 2113 2584 
Q 1688 2584 1439 2293 
Q 1191 2003 1191 1497 
Q 1191 994 1439 701 
Q 1688 409 2113 409 
Q 2538 409 2786 701 
Q 3034 994 3034 1497 
Q 3034 2003 2786 2293 
Q 2538 2584 2113 2584 
z
M 3366 4563 
L 3366 3988 
Q 3128 4100 2886 4159 
Q 2644 4219 2406 4219 
Q 1781 4219 1451 3797 
Q 1122 3375 1075 2522 
Q 1259 2794 1537 2939 
Q 1816 3084 2150 3084 
Q 2853 3084 3261 2657 
Q 3669 2231 3669 1497 
Q 3669 778 3244 343 
Q 2819 -91 2113 -91 
Q 1303 -91 875 529 
Q 447 1150 447 2328 
Q 447 3434 972 4092 
Q 1497 4750 2381 4750 
Q 2619 4750 2861 4703 
Q 3103 4656 3366 4563 
z
" transform="scale(0.015625)"/>
       </defs>
       <use xlink:href="#DejaVuSans-30"/>
       <use xlink:href="#DejaVuSans-2e" x="63.623047"/>
       <use xlink:href="#DejaVuSans-36" x="95.410156"/>
      </g>
     </g>
    </g>
    <g id="xtick_4">
     <g id="line2d_4">
      <g>
       <use xlink:href="#mcbc4aee0d2" x="358.923069" y="307.584" style="stroke: #000000; stroke-width: 0.8"/>
      </g>
     </g>
     <g id="text_4">
      <!-- 0.8 -->
      <g transform="translate(350.971506 322.182437) scale(0.1 -0.1)">
       <defs>
        <path id="DejaVuSans-38" d="M 2034 2216 
Q 1584 2216 1326 1975 
Q 1069 1734 1069 1313 
Q 1069 891 1326 650 
Q 1584 409 2034 409 
Q 2484 409 2743 651 
Q 3003 894 3003 1313 
Q 3003 1734 2745 1975 
Q 2488 2216 2034 2216 
z
M 1403 2484 
Q 997 2584 770 2862 
Q 544 3141 544 3541 
Q 544 4100 942 4425 
Q 1341 4750 2034 4750 
Q 2731 4750 3128 4425 
Q 3525 4100 3525 3541 
Q 3525 3141 3298 2862 
Q 3072 2584 2669 2484 
Q 3125 2378 3379 2068 
Q 3634 1759 3634 1313 
Q 3634 634 3220 271 
Q 2806 -91 2034 -91 
Q 1263 -91 848 271 
Q 434 634 434 1313 
Q 434 1759 690 2068 
Q 947 2378 1403 2484 
z
M 1172 3481 
Q 1172 3119 1398 2916 
Q 1625 2713 2034 2713 
Q 2441 2713 2670 2916 
Q 2900 3119 2900 3481 
Q 2900 3844 2670 4047 
Q 2441 4250 2034 4250 
Q 1625 4250 1398 4047 
Q 1172 3844 1172 3481 
z
" transform="scale(0.015625)"/>
       </defs>
       <use xlink:href="#DejaVuSans-30"/>
       <use xlink:href="#DejaVuSans-2e" x="63.623047"/>
       <use xlink:href="#DejaVuSans-38" x="95.410156"/>
      </g>
     </g>
    </g>
   </g>
   <g id="matplotlib.axis_2">
    <g id="ytick_1">
     <g id="line2d_5">
      <defs>
       <path id="mcef5e80a1b" d="M 0 0 
L -3.5 0 
" style="stroke: #000000; stroke-width: 0.8"/>
      </defs>
      <g>
       <use xlink:href="#mcef5e80a1b" x="57.6" y="296.055199" style="stroke: #000000; stroke-width: 0.8"/>
      </g>
     </g>
     <g id="text_5">
      <!-- −80 -->
      <g transform="translate(29.495313 299.854418) scale(0.1 -0.1)">
       <defs>
        <path id="DejaVuSans-2212" d="M 678 2272 
L 4684 2272 
L 4684 1741 
L 678 1741 
L 678 2272 
z
" transform="scale(0.015625)"/>
       </defs>
       <use xlink:href="#DejaVuSans-2212"/>
       <use xlink:href="#DejaVuSans-38" x="83.789062"/>
       <use xlink:href="#DejaVuSans-30" x="147.412109"/>
      </g>
     </g>
    </g>
    <g id="ytick_2">
     <g id="line2d_6">
      <g>
       <use xlink:href="#mcef5e80a1b" x="57.6" y="256.636307" style="stroke: #000000; stroke-width: 0.8"/>
      </g>
     </g>
     <g id="text_6">
      <!-- −60 -->
      <g transform="translate(29.495313 260.435526) scale(0.1 -0.1)">
       <use xlink:href="#DejaVuSans-2212"/>
       <use xlink:href="#DejaVuSans-36" x="83.789062"/>
       <use xlink:href="#DejaVuSans-30" x="147.412109"/>
      </g>
     </g>
    </g>
    <g id="ytick_3">
     <g id="line2d_7">
      <g>
       <use xlink:href="#mcef5e80a1b" x="57.6" y="217.217414" style="stroke: #000000; stroke-width: 0.8"/>
      </g>
     </g>
     <g id="text_7">
      <!-- −40 -->
      <g transform="translate(29.495313 221.016633) scale(0.1 -0.1)">
       <use xlink:href="#DejaVuSans-2212"/>
       <use xlink:href="#DejaVuSans-34" x="83.789062"/>
       <use xlink:href="#DejaVuSans-30" x="147.412109"/>
      </g>
     </g>
    </g>
    <g id="ytick_4">
     <g id="line2d_8">
      <g>
       <use xlink:href="#mcef5e80a1b" x="57.6" y="177.798522" style="stroke: #000000; stroke-width: 0.8"/>
      </g>
     </g>
     <g id="text_8">
      <!-- −20 -->
      <g transform="translate(29.495313 181.597741) scale(0.1 -0.1)">
       <use xlink:href="#DejaVuSans-2212"/>
       <use xlink:href="#DejaVuSans-32" x="83.789062"/>
       <use xlink:href="#DejaVuSans-30" x="147.412109"/>
      </g>
     </g>
    </g>
    <g id="ytick_5">
     <g id="line2d_9">
      <g>
       <use xlink:href="#mcef5e80a1b" x="57.6" y="138.379629" style="stroke: #000000; stroke-width: 0.8"/>
      </g>
     </g>
     <g id="text_9">
      <!-- 0 -->
      <g transform="translate(44.2375 142.178848) scale(0.1 -0.1)">
       <use xlink:href="#DejaVuSans-30"/>
      </g>
     </g>
    </g>
    <g id="ytick_6">
     <g id="line2d_10">
      <g>
       <use xlink:href="#mcef5e80a1b" x="57.6" y="98.960737" style="stroke: #000000; stroke-width: 0.8"/>
      </g>
     </g>
     <g id="text_10">
      <!-- 20 -->
      <g transform="translate(37.875 102.759956) scale(0.1 -0.1)">
       <use xlink:href="#DejaVuSans-32"/>
       <use xlink:href="#DejaVuSans-30" x="63.623047"/>
      </g>
     </g>
    </g>
    <g id="ytick_7">
     <g id="line2d_11">
      <g>
       <use xlink:href="#mcef5e80a1b" x="57.6" y="59.541844" style="stroke: #000000; stroke-width: 0.8"/>
      </g>
     </g>
     <g id="text_11">
      <!-- 40 -->
      <g transform="translate(37.875 63.341063) scale(0.1 -0.1)">
       <use xlink:href="#DejaVuSans-34"/>
       <use xlink:href="#DejaVuSans-30" x="63.623047"/>
      </g>
     </g>
    </g>
   </g>
   <g id="line2d_12">
    <path d="M 73.832727 240.911169 
L 74.925574 241.13956 
L 75.163149 241.186205 
L 75.416563 241.22067 
L 75.749168 241.301708 
L 76.636116 241.438569 
L 78.410011 241.587266 
L 78.695101 241.67431 
L 79.154414 241.754892 
L 79.819624 241.881914 
L 80.34229 241.955932 
L 81.466813 242.138801 
L 81.577682 242.436041 
L 81.68855 243.627835 
L 82.559659 257.377403 
L 83.367415 264.428899 
L 84.301878 270.39834 
L 85.172988 274.931736 
L 86.487571 280.334877 
L 88.071406 284.900917 
L 88.594072 286.047967 
L 89.512696 287.845636 
L 90.811441 289.6205 
L 91.239076 290.039557 
L 92.411115 291.209075 
L 93.203032 292.026292 
L 93.583153 292.306299 
L 94.311717 292.761187 
L 94.881897 293.374184 
L 97.685286 294.172825 
L 97.875346 294.242269 
L 98.22379 294.425593 
L 98.920677 294.55517 
L 99.585888 294.587491 
L 102.959457 294.940775 
L 103.640506 294.707245 
L 104.543292 294.725043 
L 105.018443 294.946282 
L 105.493594 295.059868 
L 106.697308 295.188976 
L 107.093267 295.178006 
L 107.473388 295.228316 
L 107.805993 295.307599 
L 108.265305 295.299096 
L 108.898839 295.151662 
L 109.27896 295.047004 
L 112.129863 295.266555 
L 112.525822 295.39929 
L 113.000973 295.327996 
L 113.428608 295.250138 
L 114.85406 295.348819 
L 115.218342 295.353121 
L 115.820199 295.443623 
L 119.732272 294.869701 
L 120.112393 294.852946 
L 120.825119 295.009544 
L 121.062694 295.0442 
L 121.347784 295.110868 
L 121.997157 294.865208 
L 122.979134 294.72168 
L 123.232548 294.693794 
L 123.69186 294.522981 
L 124.75303 294.503157 
L 125.339049 294.463215 
L 127.192136 294.423669 
L 128.094922 294.660386 
L 128.554234 294.762973 
L 128.950193 294.8749 
L 131.310108 294.965181 
L 131.927804 294.825501 
L 132.593014 294.846514 
L 132.798913 294.769669 
L 133.131518 294.704264 
L 133.654184 294.850832 
L 134.36691 294.693001 
L 134.857899 294.512159 
L 135.459756 293.479605 
L 135.887392 293.538814 
L 136.172482 293.620696 
L 136.425896 293.660609 
L 137.201975 293.860644 
L 139.387667 294.09601 
L 139.656919 294.04269 
L 140.242938 294.264091 
L 140.464675 294.331978 
L 140.718089 294.327249 
L 141.114048 294.516271 
L 141.684229 294.379732 
L 142.127702 294.185072 
L 143.505639 294.512482 
L 144.867737 294.553819 
L 145.61214 294.487063 
L 146.023937 294.432832 
L 146.879208 294.438618 
L 147.14846 294.479764 
L 147.639449 294.56219 
L 147.892863 294.566962 
L 148.621427 294.572366 
L 149.730111 294.71654 
L 150.173585 294.623733 
L 150.553706 294.678889 
L 151.66239 294.622558 
L 152.010834 294.648917 
L 152.881944 294.826646 
L 154.006467 294.883167 
L 154.370749 294.914181 
L 155.336888 294.929174 
L 156.112967 294.883578 
L 156.651471 294.765778 
L 157.126622 294.799024 
L 157.871025 294.92869 
L 158.266983 294.990057 
L 159.391506 294.983346 
L 160.167586 294.873622 
L 161.007018 294.898087 
L 162.765075 294.902962 
L 163.034327 294.940761 
L 163.303579 294.975798 
L 163.889598 294.897309 
L 166.360381 294.887118 
L 166.629633 294.973581 
L 166.978077 294.984169 
L 168.260984 294.853049 
L 172.806591 294.657904 
L 173.186711 294.646582 
L 173.756892 294.79945 
L 174.263719 294.857161 
L 175.229859 294.736394 
L 177.288844 294.442818 
L 177.859025 294.41828 
L 179.110255 294.466137 
L 179.34783 294.492261 
L 179.838819 294.633278 
L 180.203101 294.681738 
L 180.519868 294.738347 
L 181.406816 294.729801 
L 182.293764 294.70469 
L 182.800591 294.631325 
L 183.57667 294.56774 
L 184.368588 294.379967 
L 184.669517 294.38916 
L 185.287212 294.191827 
L 185.619818 294.305942 
L 185.825716 294.284135 
L 186.110807 294.2008 
L 186.538442 294.283254 
L 186.855209 294.213678 
L 187.203653 294.316544 
L 187.678804 294.354857 
L 188.328176 294.24268 
L 188.629105 294.105232 
L 189.389346 294.225998 
L 189.816981 294.212077 
L 190.086233 294.216747 
L 190.387162 294.196365 
L 190.640575 294.254487 
L 191.337463 294.080899 
L 193.523156 294.036199 
L 193.871599 294.003335 
L 195.328728 294.105232 
L 195.724687 294.140093 
L 196.674988 293.848866 
L 197.593612 293.900292 
L 198.623105 293.92555 
L 199.019064 293.844725 
L 199.367508 293.737307 
L 200.064395 293.780671 
L 200.444516 293.816516 
L 201.569039 293.709656 
L 204.499134 293.881481 
L 204.990123 293.91997 
L 205.908747 293.792242 
L 206.827372 293.52783 
L 207.476744 293.557508 
L 208.173631 293.199378 
L 208.427045 292.994512 
L 208.823004 292.938196 
L 209.694113 292.679202 
L 210.327647 292.89188 
L 210.644414 292.940663 
L 211.35714 292.938446 
L 211.879806 293.093281 
L 216.171999 293.663619 
L 217.169816 293.445199 
L 218.326015 293.581693 
L 219.133771 293.150933 
L 219.52973 292.703872 
L 220.131587 292.546144 
L 220.400839 292.403732 
L 222.079705 291.914174 
L 223.267581 291.850311 
L 224.107014 291.938096 
L 224.518811 291.854848 
L 225.025638 291.950313 
L 225.326567 291.834495 
L 225.706687 291.486042 
L 226.166 291.64847 
L 226.767857 291.913998 
L 227.306361 291.876156 
L 228.288339 291.909784 
L 228.906035 291.991401 
L 229.191125 291.984514 
L 229.777144 292.109319 
L 230.236456 292.071726 
L 232.374634 292.394173 
L 232.770593 292.509521 
L 233.008168 292.590213 
L 233.784247 292.730143 
L 235.510628 292.793199 
L 235.843233 292.824625 
L 236.239192 292.863671 
L 236.872726 292.877372 
L 237.173655 292.872467 
L 237.585452 292.725665 
L 238.915873 292.981002 
L 241.608393 293.496449 
L 242.131059 293.501104 
L 242.574533 293.4489 
L 243.493157 293.476066 
L 244.158368 293.707306 
L 244.918609 293.686718 
L 245.916425 293.676894 
L 246.819211 293.902583 
L 247.21517 293.986785 
L 247.516099 294.055744 
L 248.450561 293.903861 
L 249.448378 293.826781 
L 250.129427 293.756514 
L 251.44401 293.728276 
L 253.027845 293.619727 
L 253.344612 293.537199 
L 254.754226 293.195971 
L 255.039316 292.926757 
L 255.609497 292.509888 
L 256.021294 292.447434 
L 257.320039 292.343364 
L 257.826866 292.450782 
L 258.587107 292.436993 
L 259.220641 292.527759 
L 260.281811 292.614883 
L 260.899506 292.543633 
L 261.849807 292.649495 
L 262.150736 292.555675 
L 262.372473 292.581417 
L 262.78427 292.66205 
L 263.322774 292.534044 
L 263.702895 292.525571 
L 264.415621 292.68581 
L 264.827418 292.526364 
L 265.936102 292.379326 
L 266.252869 292.288619 
L 267.155655 292.446773 
L 267.567453 292.408461 
L 267.836705 292.355611 
L 268.422724 292.365479 
L 268.818682 292.250219 
L 270.719285 292.515013 
L 272.39815 292.598789 
L 272.58821 292.741627 
L 272.873301 292.880191 
L 273.443481 292.957124 
L 274.172046 292.730599 
L 274.599681 292.697499 
L 275.660851 292.666896 
L 275.945941 292.695253 
L 276.500283 292.633063 
L 277.323878 292.884288 
L 277.545615 292.903966 
L 279.113611 292.54331 
L 279.921367 292.792627 
L 280.190619 292.795622 
L 281.014214 293.040842 
L 281.885323 292.740114 
L 282.265444 292.81737 
L 282.582211 292.797487 
L 283.215745 292.812187 
L 284.783742 292.975333 
L 285.734043 293.038052 
L 286.019133 293.148877 
L 286.367577 293.260363 
L 286.890242 293.093413 
L 287.222848 293.202036 
L 287.602968 293.22349 
L 287.96725 293.206558 
L 288.379048 293.286061 
L 288.901713 293.389647 
L 289.487732 293.356489 
L 290.200458 293.377738 
L 290.390518 293.398678 
L 290.707285 293.476316 
L 291.847647 293.440177 
L 293.178068 293.513762 
L 294.286753 293.451998 
L 294.651035 293.374463 
L 294.967802 293.251773 
L 295.823073 293.213064 
L 296.108163 293.131769 
L 296.456607 293.083104 
L 296.947596 293.010107 
L 298.087957 292.891895 
L 298.721492 292.918768 
L 299.291672 293.179671 
L 299.719308 293.213372 
L 300.622094 293.04745 
L 301.414011 292.861527 
L 301.778294 292.740217 
L 302.221767 292.749087 
L 302.522696 292.812906 
L 302.823625 292.854258 
L 303.314614 292.906066 
L 303.583866 292.906477 
L 303.948148 292.98037 
L 304.59752 292.902424 
L 305.009317 292.978652 
L 305.56366 293.122268 
L 305.769558 293.100447 
L 306.197194 292.932763 
L 307.685999 292.672902 
L 308.176988 292.670788 
L 308.842199 292.680377 
L 311.788132 293.092179 
L 314.132208 293.171961 
L 314.591521 293.280863 
L 315.161701 293.224738 
L 315.478468 293.298778 
L 315.858589 293.322347 
L 316.207033 293.328985 
L 316.80889 293.327267 
L 317.553292 293.329807 
L 317.901736 293.253403 
L 318.266018 293.257705 
L 318.867876 293.074881 
L 319.089613 292.935626 
L 319.184643 292.496187 
L 319.31135 290.585842 
L 319.88153 280.239191 
L 320.546741 273.497322 
L 321.465365 266.404914 
L 322.225606 261.656461 
L 323.286776 256.463708 
L 324.363784 252.314558 
L 325.345762 249.482265 
L 325.757559 248.548062 
L 326.61283 246.589948 
L 326.99295 245.971363 
L 327.547293 245.081024 
L 327.990767 244.448217 
L 329.384542 242.803187 
L 330.239813 241.884315 
L 330.635771 241.570107 
L 331.079245 241.287192 
L 331.348497 241.141887 
L 332.235445 240.581659 
L 332.520535 240.388482 
L 332.884817 240.169835 
L 333.43916 239.972215 
L 334.120209 239.823937 
L 335.102187 239.336361 
L 335.498146 239.116267 
L 335.909943 239.011404 
L 337.715515 238.904514 
L 338.254019 238.636783 
L 338.808361 238.579454 
L 339.39438 238.501691 
L 339.742824 238.41862 
L 340.233813 238.425786 
L 340.629772 238.307898 
L 340.962377 238.318515 
L 341.168276 238.188541 
L 341.500881 238.086871 
L 341.881002 238.113884 
L 343.227262 238.344683 
L 343.559867 238.333346 
L 344.082533 238.396813 
L 344.320108 238.305622 
L 344.811097 238.127342 
L 345.793075 238.24595 
L 346.062327 238.161161 
L 346.379094 238.071217 
L 346.822568 238.175713 
L 348.612301 238.29731 
L 350.402035 238.376497 
L 350.63961 238.479393 
L 351.162276 238.264717 
L 351.732457 237.987896 
L 352.033385 237.923379 
L 352.334314 237.931346 
L 352.730273 237.992478 
L 353.205424 238.097598 
L 354.029018 238.099015 
L 354.234916 238.135808 
L 354.900127 238.119449 
L 355.201056 238.189055 
L 355.818752 238.122856 
L 356.167195 238.094162 
L 357.18085 238.293184 
L 357.592647 238.168885 
L 357.941091 238.287295 
L 358.368726 238.396608 
L 359.065614 238.37055 
L 359.319027 238.381137 
L 359.635795 238.322502 
L 359.87337 238.252412 
L 360.237652 238.156176 
L 360.966216 238.264152 
L 361.948194 238.241075 
L 362.169931 238.302765 
L 362.423345 238.385293 
L 363.848796 238.688576 
L 364.48233 238.634507 
L 364.989158 238.723628 
L 365.73356 238.989098 
L 365.986974 239.076509 
L 366.747215 239.094314 
L 367.554971 239.047727 
L 368.584464 238.964362 
L 369.946562 238.944934 
L 370.310844 238.964934 
L 370.548419 239.006375 
L 371.039408 239.161357 
L 371.435367 239.149389 
L 372.243123 239.37753 
L 373.62106 239.517732 
L 374.09621 239.595377 
L 374.460492 239.522343 
L 375.06235 239.60631 
L 375.379117 239.61656 
L 376.060166 239.870003 
L 378.546787 240.038421 
L 379.069453 240.13302 
L 381.413529 239.733589 
L 381.619428 239.724977 
L 382.617244 239.50989 
L 383.155748 239.578776 
L 383.931827 239.690475 
L 384.185241 239.684087 
L 384.882128 239.530096 
L 385.088027 239.604489 
L 385.452309 239.531124 
L 385.753237 239.498524 
L 385.974974 239.539149 
L 386.640185 239.60559 
L 386.830245 239.727135 
L 387.067821 239.75986 
L 387.590486 239.6446 
L 387.923092 239.627221 
L 388.271535 239.523892 
L 388.524949 239.431239 
L 389.427735 239.648235 
L 389.744502 239.724448 
L 390.092946 239.763473 
L 390.900702 239.876479 
L 392.215285 239.741681 
L 392.706274 239.697443 
L 393.181425 239.727385 
L 393.561545 239.703603 
L 394.369301 239.683206 
L 396.317418 239.33711 
L 396.681701 239.247761 
L 398.027961 239.604937 
L 398.297212 239.675174 
L 398.487273 239.629042 
L 398.487273 239.629042 
" clip-path="url(#p85554bf126)" style="fill: none; stroke: #1f77b4; stroke-width: 1.5; stroke-linecap: square"/>
   </g>
   <g id="line2d_13">
    <path d="M 73.832727 242.890113 
L 74.57713 242.827461 
L 74.925574 242.87316 
L 75.479916 242.873909 
L 75.749168 242.920327 
L 76.01842 242.876757 
L 76.541086 242.736834 
L 77.047913 242.786197 
L 77.285488 242.732356 
L 77.538902 242.738127 
L 78.489203 242.810875 
L 78.695101 242.779662 
L 79.075222 242.634908 
L 80.025523 242.807409 
L 80.310613 242.863776 
L 81.055016 242.771666 
L 81.387621 242.737172 
L 81.609358 242.874019 
L 81.751903 243.395435 
L 82.211216 245.255228 
L 83.557476 247.85032 
L 84.365232 248.722046 
L 85.901552 250.186623 
L 86.376702 250.651995 
L 87.184458 251.284024 
L 87.770477 251.439638 
L 87.976376 251.546542 
L 88.926677 252.127843 
L 89.718595 252.498117 
L 90.558027 252.773014 
L 91.159885 252.930037 
L 91.540005 253.072009 
L 91.745904 253.141387 
L 91.983479 253.153465 
L 92.252731 253.210889 
L 93.282224 253.524121 
L 94.137495 253.719677 
L 94.4701 253.664683 
L 95.404563 253.778474 
L 95.800522 253.792572 
L 96.370703 253.859871 
L 96.909207 253.851259 
L 97.16262 253.902354 
L 97.606094 253.921253 
L 100.742088 253.626231 
L 101.185562 253.530927 
L 101.518167 253.552998 
L 101.819096 253.543402 
L 102.468468 253.622692 
L 102.801074 253.675087 
L 103.197032 253.587309 
L 103.973112 253.562 
L 104.400747 253.485206 
L 104.875898 253.404287 
L 105.081796 253.447261 
L 105.382725 253.532711 
L 105.921229 253.546309 
L 106.222158 253.579379 
L 107.536741 253.795553 
L 107.964376 253.896172 
L 108.376174 253.943082 
L 108.962193 253.989464 
L 109.358151 254.102418 
L 110.292614 254.135429 
L 111.00534 254.065795 
L 111.543844 253.862265 
L 111.939803 253.914337 
L 112.383277 253.87587 
L 112.890104 253.963325 
L 113.618668 253.803673 
L 113.935435 253.66828 
L 116.501248 253.85993 
L 117.150621 253.972782 
L 117.372358 253.977635 
L 117.863347 253.71019 
L 118.560234 253.763973 
L 119.035385 253.633243 
L 119.700596 253.839467 
L 120.444998 253.907641 
L 122.012995 253.95776 
L 122.377277 254.051352 
L 123.21671 253.995081 
L 123.5018 253.804312 
L 123.897759 253.632876 
L 124.800545 253.527821 
L 126.57444 253.802572 
L 127.572257 254.040655 
L 127.9207 253.833997 
L 128.174114 253.74818 
L 128.459204 253.785582 
L 129.742111 254.065046 
L 130.438998 254.056866 
L 131.183401 253.998245 
L 131.658552 254.148433 
L 132.608853 254.137104 
L 132.83059 254.045978 
L 133.099842 253.987547 
L 133.321579 253.952187 
L 133.574992 253.925622 
L 134.002628 253.924051 
L 134.319395 253.945307 
L 134.889575 254.029164 
L 137.106945 254.033151 
L 137.407873 254.058452 
L 137.819671 254.009251 
L 138.199791 253.953126 
L 139.086739 253.812528 
L 139.783626 253.841978 
L 140.068717 253.760955 
L 140.733927 253.670094 
L 141.161563 253.672634 
L 141.47833 253.724009 
L 142.016834 253.780941 
L 146.419896 253.68237 
L 146.689148 253.645688 
L 147.306844 253.514201 
L 147.750317 253.606296 
L 148.272983 253.687422 
L 148.573912 253.66179 
L 148.843164 253.633588 
L 149.223284 253.635313 
L 149.888495 253.576039 
L 150.458676 253.513614 
L 150.870473 253.562132 
L 151.519845 253.401159 
L 151.931642 253.36966 
L 152.185056 253.238166 
L 152.501823 253.21854 
L 153.072004 253.395065 
L 154.750869 253.527887 
L 155.194343 253.633771 
L 156.350543 253.612787 
L 156.936562 253.531698 
L 158.29866 253.709618 
L 158.694619 253.670021 
L 160.199262 253.885709 
L 162.194895 254.005624 
L 162.670045 253.803056 
L 163.208549 253.785941 
L 163.525316 253.778445 
L 163.794568 253.758554 
L 164.412264 253.773188 
L 168.181792 253.750713 
L 168.577751 253.756499 
L 169.496375 253.720301 
L 169.939849 253.704177 
L 170.620898 253.630732 
L 170.921827 253.670366 
L 172.014673 253.611318 
L 172.347279 253.738561 
L 173.075843 253.875753 
L 174.073659 253.842279 
L 174.596325 253.913764 
L 175.372404 253.956974 
L 175.609979 254.003128 
L 175.942585 254.006344 
L 176.195998 254.06614 
L 176.528604 254.149167 
L 177.478905 254.077528 
L 177.954055 254.060494 
L 179.44286 254.100164 
L 179.696274 254.080384 
L 181.026696 254.042916 
L 182.182895 254.050699 
L 182.91146 253.999971 
L 183.750892 254.103424 
L 184.226043 254.059282 
L 185.065475 254.10675 
L 186.094968 254.165496 
L 187.662965 254.137434 
L 187.979732 254.173191 
L 188.48656 254.172457 
L 188.86668 254.128351 
L 189.230962 254.200402 
L 189.816981 254.209763 
L 190.086233 254.198691 
L 191.099888 254.063893 
L 191.511685 254.114981 
L 191.970997 254.093226 
L 192.778753 254.288796 
L 193.475641 254.245763 
L 193.934953 254.306322 
L 195.661333 254.325376 
L 196.294867 254.279978 
L 196.817533 254.25414 
L 197.292683 254.186444 
L 197.831187 254.148403 
L 198.242985 254.18397 
L 198.76565 254.293987 
L 199.114094 254.303062 
L 199.573406 254.242459 
L 199.810981 254.254162 
L 200.048557 254.332307 
L 200.333647 254.317556 
L 201.727422 254.341676 
L 202.202573 254.279655 
L 203.928953 254.198904 
L 204.720871 254.20339 
L 205.370243 254.333944 
L 205.845394 254.446539 
L 207.809349 254.422434 
L 208.56959 254.572159 
L 209.250639 254.567218 
L 210.501869 254.527371 
L 211.024535 254.535499 
L 211.436332 254.4551 
L 214.017983 254.594025 
L 214.429781 254.555867 
L 214.746548 254.623049 
L 215.063315 254.568084 
L 216.061131 254.645605 
L 217.423229 254.445144 
L 217.755835 254.478779 
L 218.199308 254.63653 
L 218.484399 254.652235 
L 218.769489 254.746518 
L 219.181286 254.591962 
L 219.387185 254.593019 
L 219.672275 254.585809 
L 219.957366 254.510968 
L 220.97102 254.647183 
L 221.541201 254.823355 
L 222.174735 254.664497 
L 222.618209 254.564729 
L 223.093359 254.574553 
L 223.457641 254.448294 
L 224.027822 254.462692 
L 224.344589 254.438954 
L 224.962285 254.517297 
L 225.579981 254.506629 
L 225.880909 254.470042 
L 226.466928 254.459065 
L 226.783695 254.425048 
L 227.084624 254.396619 
L 227.322199 254.396141 
L 227.559775 254.382264 
L 228.557591 254.397022 
L 228.937711 254.483067 
L 229.872174 254.332197 
L 230.505708 254.265617 
L 230.806637 254.219587 
L 231.851968 254.365465 
L 232.105382 254.399651 
L 232.754754 254.263509 
L 233.245743 254.314759 
L 234.005984 254.377506 
L 234.354428 254.452017 
L 234.845417 254.486724 
L 235.209699 254.435474 
L 235.684849 254.378872 
L 236.017455 254.323944 
L 236.920241 254.257584 
L 237.727997 254.121567 
L 238.456561 254.087851 
L 239.818659 254.173448 
L 240.246295 254.101266 
L 240.5789 254.165761 
L 240.895667 254.184388 
L 241.291626 254.156061 
L 242.463664 254.373307 
L 242.780431 254.337322 
L 244.601842 254.013627 
L 245.694688 254.032629 
L 246.090647 254.052828 
L 246.502444 254.008275 
L 247.104301 254.094283 
L 247.706159 254.111148 
L 248.038764 254.009912 
L 248.418885 253.933258 
L 248.894035 253.835708 
L 249.242479 253.782579 
L 249.543408 253.722364 
L 250.176942 253.655953 
L 250.462032 253.646922 
L 250.810476 253.539929 
L 251.380657 253.60789 
L 252.568533 253.838285 
L 252.869462 253.858616 
L 253.328774 253.763944 
L 253.819763 253.793504 
L 254.389943 253.786543 
L 254.659195 253.828828 
L 255.371921 253.824768 
L 257.636806 253.592566 
L 258.001088 253.536779 
L 258.4604 253.403068 
L 258.808844 253.481183 
L 260.09175 253.484707 
L 260.804476 253.605995 
L 263.734571 253.735213 
L 264.241399 253.674683 
L 264.542327 253.596619 
L 264.874933 253.458884 
L 265.730204 253.698347 
L 266.553798 253.732702 
L 267.10814 253.846259 
L 267.440746 253.881091 
L 267.709998 253.961636 
L 270.022397 254.04912 
L 270.434194 254.131633 
L 271.178597 254.134211 
L 271.574556 254.185673 
L 272.081383 254.274391 
L 272.556534 254.286248 
L 273.332613 254.337131 
L 273.776087 254.231754 
L 274.0295 254.212274 
L 275.37576 254.262195 
L 276.24687 254.193867 
L 276.516122 254.120745 
L 277.213009 254.13413 
L 277.751513 254.122566 
L 278.226664 254.18745 
L 279.398702 254.145386 
L 280.66577 254.256145 
L 280.982537 254.295419 
L 281.410173 254.152846 
L 281.806131 254.106273 
L 283.944309 253.709118 
L 284.292753 253.737967 
L 284.98964 253.78611 
L 286.098325 253.807168 
L 286.43093 253.686812 
L 286.731859 253.681203 
L 288.284017 253.889645 
L 288.553269 253.972106 
L 289.376864 253.923676 
L 289.646116 253.905321 
L 290.232135 254.013664 
L 290.56474 254.018907 
L 291.119082 254.175563 
L 291.499203 254.15358 
L 293.0672 254.155672 
L 293.716572 254.272702 
L 294.334268 254.309002 
L 294.635197 254.315207 
L 294.904449 254.273517 
L 295.268731 254.29362 
L 296.599152 254.296256 
L 298.705653 254.318746 
L 300.812154 254.259875 
L 301.303143 254.190585 
L 301.52488 254.224397 
L 301.794132 254.263274 
L 303.013685 254.153683 
L 303.900633 254.173801 
L 304.518329 254.119959 
L 304.961802 254.08835 
L 306.308062 253.958655 
L 306.640668 254.045119 
L 307.891898 253.861744 
L 308.16115 253.889821 
L 308.6363 253.918573 
L 310.774478 253.800465 
L 311.439688 253.945094 
L 312.215768 253.980433 
L 314.876611 254.122162 
L 315.27257 254.120921 
L 315.795235 254.22212 
L 316.840567 254.169667 
L 317.28404 254.069304 
L 317.664161 254.109812 
L 318.661977 254.046602 
L 319.232158 253.905394 
L 319.469733 252.829947 
L 319.849854 251.664879 
L 320.546741 250.24415 
L 321.465365 248.99872 
L 322.178091 248.112742 
L 322.843302 247.342501 
L 323.191746 247.0388 
L 324.173724 246.299368 
L 324.633036 245.990688 
L 325.139863 245.61675 
L 326.137679 245.076838 
L 326.359416 245.005082 
L 326.723698 244.859498 
L 327.246364 244.866811 
L 328.069958 244.466345 
L 328.450079 244.431182 
L 329.622117 244.096261 
L 329.986399 244.094543 
L 333.264938 243.74366 
L 334.516168 243.700774 
L 334.801258 243.672777 
L 335.197217 243.564155 
L 336.195033 243.484285 
L 336.749375 243.474417 
L 337.145334 243.388313 
L 339.473572 243.226803 
L 340.043753 243.360331 
L 341.136599 243.40023 
L 341.738456 243.466891 
L 342.245284 243.424026 
L 342.767949 243.360647 
L 343.005525 243.262047 
L 343.353968 243.223279 
L 343.781604 243.134525 
L 344.209239 243.103606 
L 345.143702 243.227956 
L 345.903943 243.115508 
L 346.299902 243.182603 
L 346.711699 243.128453 
L 347.424425 243.101514 
L 347.899575 243.074325 
L 348.438079 243.088709 
L 349.689309 242.980607 
L 350.25949 243.128702 
L 350.687125 243.256797 
L 351.41569 243.194688 
L 351.89084 243.121918 
L 352.318476 243.03848 
L 352.682758 243.102857 
L 353.680574 243.172243 
L 354.329947 243.133299 
L 354.630875 243.202588 
L 355.327763 243.15468 
L 357.640162 243.193991 
L 358.33705 243.223881 
L 358.8122 243.182162 
L 359.841693 243.374113 
L 360.491066 243.366602 
L 361.235468 243.483587 
L 361.710619 243.51325 
L 362.439183 243.695237 
L 362.597566 243.64622 
L 362.771788 243.652674 
L 363.167747 243.772398 
L 363.579544 243.735246 
L 367.111497 244.106827 
L 367.412426 244.077047 
L 367.966768 244.138429 
L 368.505272 244.014703 
L 369.202159 243.880059 
L 369.851532 243.66437 
L 370.231652 243.589163 
L 370.944378 243.704893 
L 371.181953 243.63735 
L 373.035041 243.492075 
L 373.478514 243.497031 
L 373.826958 243.51176 
L 374.729744 243.639201 
L 375.743399 243.310345 
L 379.38622 243.64028 
L 380.193976 243.844911 
L 380.494905 243.83599 
L 380.954217 243.907637 
L 381.366014 243.909854 
L 381.587751 243.922953 
L 381.904518 243.935361 
L 382.379668 243.767971 
L 382.633082 243.740797 
L 382.997364 243.624891 
L 383.963504 243.77872 
L 385.135542 243.681772 
L 385.404794 243.640229 
L 386.165035 243.816819 
L 386.624347 243.742772 
L 387.004467 243.732911 
L 387.638001 243.771356 
L 388.398242 243.682726 
L 388.841716 243.590279 
L 390.457228 243.770203 
L 390.805672 243.797839 
L 392.690436 243.914832 
L 393.577384 243.872658 
L 393.862474 243.797259 
L 394.226756 243.84682 
L 394.5752 243.77966 
L 396.824246 243.464747 
L 397.885415 243.554624 
L 398.360566 243.592041 
L 398.487273 243.742287 
L 398.487273 243.742287 
" clip-path="url(#p85554bf126)" style="fill: none; stroke: #ff7f0e; stroke-width: 1.5; stroke-linecap: square"/>
   </g>
   <g id="line2d_14">
    <path d="M 73.832727 244.249371 
L 74.244524 244.334396 
L 74.783028 244.292742 
L 75.05228 244.359646 
L 75.305694 244.356349 
L 75.685814 244.337281 
L 76.335187 244.435507 
L 76.810338 244.521023 
L 77.55474 244.511089 
L 80.199745 244.980999 
L 80.484835 245.088652 
L 80.849117 245.01028 
L 81.229238 244.969141 
L 83.161517 245.195557 
L 84.713675 244.951857 
L 86.123289 244.999134 
L 86.408379 245.025295 
L 87.057751 245.202642 
L 87.612094 245.140166 
L 88.261466 245.078175 
L 88.499042 245.005926 
L 89.797786 245.165534 
L 90.367967 245.071537 
L 90.858956 245.012211 
L 91.2074 244.937547 
L 91.856772 244.904771 
L 92.189378 244.994531 
L 92.997134 244.906239 
L 93.868243 244.786155 
L 94.248363 244.740009 
L 94.976928 244.594535 
L 95.895552 243.881615 
L 96.465733 243.872276 
L 97.115105 243.960883 
L 97.558579 244.001024 
L 97.843669 244.095571 
L 98.160436 244.178775 
L 98.41385 244.214561 
L 98.809809 244.326488 
L 99.205768 244.351496 
L 100.092715 244.371085 
L 100.82128 244.331216 
L 102.26257 244.478019 
L 102.595175 244.551839 
L 102.864427 244.579689 
L 103.783051 244.582581 
L 104.099819 244.4986 
L 104.638322 244.408436 
L 104.970928 244.464891 
L 105.541109 244.496103 
L 105.889552 244.509041 
L 106.348865 244.579483 
L 106.760662 244.557566 
L 111.765581 244.647348 
L 111.97148 244.673068 
L 112.209055 244.684398 
L 112.557499 244.706498 
L 113.064326 244.678891 
L 113.539476 244.712585 
L 116.29535 244.577398 
L 116.707147 244.646019 
L 117.134782 244.550466 
L 117.863347 244.611723 
L 118.290982 244.582692 
L 118.544396 244.609675 
L 119.225445 244.695595 
L 120.001524 244.525113 
L 120.745927 244.529885 
L 121.062694 244.511845 
L 121.347784 244.529247 
L 121.712066 244.543182 
L 121.997157 244.39113 
L 122.503984 244.236574 
L 123.628507 244.231089 
L 124.784707 244.218857 
L 126.38438 244.476749 
L 126.938723 244.497263 
L 127.524742 244.534012 
L 127.762317 244.576465 
L 128.284982 244.633948 
L 129.029385 244.63947 
L 129.773788 244.714149 
L 130.090555 244.712005 
L 130.407322 244.776008 
L 130.898311 244.679478 
L 131.658552 244.818058 
L 132.212894 244.864623 
L 134.55697 244.777388 
L 135.000444 244.852633 
L 136.457572 244.653707 
L 136.980238 244.601304 
L 137.772156 244.570599 
L 138.168114 244.570944 
L 138.453205 244.67718 
L 139.023385 244.655197 
L 139.371829 244.612046 
L 140.084555 244.714391 
L 140.575544 244.735823 
L 140.971503 244.680411 
L 141.905965 244.717086 
L 142.618691 244.72829 
L 143.774891 244.774576 
L 144.07582 244.678671 
L 145.8022 244.947789 
L 146.182321 245.070333 
L 146.562441 245.022065 
L 146.831693 244.979237 
L 147.861186 244.805172 
L 148.193791 244.852229 
L 150.189424 244.757256 
L 150.601221 244.807764 
L 151.47233 244.91679 
L 152.612692 245.02285 
L 152.945297 245.017733 
L 153.309579 245.041022 
L 153.594669 245.047711 
L 153.911437 245.007395 
L 154.180688 245.001976 
L 154.861738 244.800943 
L 155.32105 244.809988 
L 158.187792 244.918266 
L 158.520397 244.920792 
L 158.821326 244.882795 
L 159.502375 245.004649 
L 160.262616 245.114013 
L 161.402977 244.898067 
L 161.846451 244.930865 
L 162.844267 244.891936 
L 163.176873 244.982974 
L 163.477801 244.99539 
L 164.095497 245.003246 
L 165.330889 244.912935 
L 165.584302 244.929118 
L 165.853554 244.954677 
L 167.690803 244.734795 
L 167.944217 244.679882 
L 168.482721 244.750214 
L 169.195446 244.793072 
L 169.607244 244.717512 
L 169.892334 244.628493 
L 170.383323 244.487329 
L 170.715928 244.557706 
L 171.032695 244.561744 
L 173.091681 244.65762 
L 173.519317 244.708627 
L 174.406264 244.435999 
L 174.786385 244.554071 
L 175.087314 244.556744 
L 176.243513 244.505259 
L 176.56028 244.480134 
L 176.892886 244.498078 
L 177.748157 244.51233 
L 182.277925 244.212469 
L 182.768914 244.273601 
L 183.465802 244.253064 
L 183.782569 244.239547 
L 184.210204 244.196506 
L 184.558648 244.178518 
L 185.508949 244.401439 
L 186.047453 244.316891 
L 187.71048 244.225009 
L 188.217308 244.289556 
L 189.009225 244.327626 
L 189.2468 244.325974 
L 189.531891 244.449083 
L 189.943688 244.525517 
L 190.513869 244.592611 
L 191.590877 244.872207 
L 192.826268 244.78827 
L 193.174712 244.763108 
L 193.538994 244.806787 
L 195.281213 244.846384 
L 195.819717 244.802095 
L 197.261007 244.620086 
L 197.51442 244.651372 
L 197.910379 244.780883 
L 198.67062 244.768768 
L 198.95571 244.830914 
L 199.304154 244.819754 
L 199.715951 244.769495 
L 203.897276 244.85637 
L 204.119013 244.864615 
L 204.514972 244.77194 
L 205.49695 244.797602 
L 205.845394 244.823462 
L 208.157793 244.658633 
L 208.601267 244.778233 
L 208.981387 244.750295 
L 209.250639 244.734707 
L 210.058395 244.747931 
L 210.501869 244.748966 
L 211.943159 244.701843 
L 212.180735 244.6729 
L 212.51334 244.769246 
L 213.416126 244.740691 
L 213.95463 244.625505 
L 214.429781 244.545224 
L 215.633495 244.610468 
L 219.260478 245.09015 
L 219.798982 245.011984 
L 220.052396 245.016712 
L 220.448355 244.978245 
L 220.939343 245.069797 
L 221.240272 245.118734 
L 222.792431 244.951409 
L 223.045844 244.904169 
L 223.790247 244.99434 
L 224.598003 244.878654 
L 225.484951 244.665036 
L 226.07097 244.589248 
L 226.387737 244.584072 
L 227.100462 244.46075 
L 227.844865 244.474319 
L 228.193309 244.416263 
L 228.890196 244.468533 
L 229.777144 244.340666 
L 230.109749 244.363838 
L 230.426516 244.373266 
L 231.677746 244.399485 
L 231.883645 244.436961 
L 232.137059 244.452681 
L 232.390472 244.492711 
L 232.865623 244.420991 
L 233.261582 244.322714 
L 234.797902 244.247888 
L 235.241376 244.316363 
L 235.906586 244.338963 
L 236.35006 244.271185 
L 237.062786 244.210097 
L 237.300361 244.230406 
L 237.617128 244.287192 
L 238.108117 244.302155 
L 238.504076 244.227932 
L 238.979227 244.272434 
L 239.311832 244.272602 
L 240.959021 244.124933 
L 241.259949 244.108141 
L 241.687585 244.136989 
L 241.972675 244.145697 
L 242.780431 244.155918 
L 243.762409 244.163113 
L 244.649357 244.316436 
L 245.219538 244.086665 
L 245.425436 244.121681 
L 245.884748 244.186227 
L 246.407414 243.997661 
L 247.02511 244.027875 
L 247.278523 244.055849 
L 247.642805 244.020694 
L 249.923528 244.23722 
L 250.509547 244.135793 
L 253.598026 244.229988 
L 254.073176 244.178944 
L 254.627519 244.260444 
L 254.960124 244.316759 
L 255.261053 244.362744 
L 256.227192 244.317207 
L 256.591474 244.225626 
L 256.971595 244.223181 
L 257.383392 244.401167 
L 257.652644 244.414368 
L 258.17531 244.315041 
L 259.299833 244.216147 
L 259.600761 244.261787 
L 259.99672 244.326326 
L 261.042051 244.346922 
L 261.707262 244.408494 
L 262.134898 244.381343 
L 262.483342 244.448209 
L 262.863462 244.338801 
L 263.116876 244.375469 
L 264.019662 244.588257 
L 265.825234 244.441366 
L 266.347899 244.483335 
L 266.648828 244.527521 
L 267.123979 244.425353 
L 267.456584 244.468782 
L 267.836705 244.562126 
L 270.291649 244.506287 
L 270.719285 244.522624 
L 272.857462 244.436755 
L 273.190068 244.41859 
L 273.791925 244.328566 
L 274.615519 244.376342 
L 275.344084 244.39113 
L 275.676689 244.442563 
L 276.547798 244.420367 
L 277.133817 244.43467 
L 280.935022 244.325548 
L 281.220112 244.270253 
L 281.774455 244.134155 
L 283.45332 244.184127 
L 283.975986 244.154002 
L 284.276914 244.158576 
L 284.641196 244.110447 
L 285.385599 243.963666 
L 286.019133 243.86268 
L 286.3359 243.671368 
L 286.557637 243.043524 
L 286.953596 242.180013 
L 287.460423 241.754752 
L 287.919735 241.635953 
L 289.646116 242.043644 
L 289.978721 242.138456 
L 290.247973 242.280192 
L 290.691447 242.492452 
L 290.960699 242.576162 
L 291.214113 242.610179 
L 294.41346 242.845986 
L 294.69855 242.865524 
L 295.300407 243.039985 
L 295.696366 243.107175 
L 296.488284 243.275894 
L 297.501938 243.3045 
L 297.834544 243.227964 
L 298.198826 243.290498 
L 299.054097 243.366822 
L 299.98856 243.427088 
L 300.669609 243.587709 
L 301.287305 243.733836 
L 301.762455 243.691787 
L 302.348474 243.740077 
L 302.982008 243.76018 
L 303.235422 243.788948 
L 303.758088 243.874728 
L 304.866772 243.750011 
L 305.183539 243.705091 
L 307.575131 243.817686 
L 307.876059 243.84019 
L 308.145311 243.883466 
L 308.35121 243.847239 
L 308.652138 243.834522 
L 309.238158 243.973189 
L 309.523248 243.955847 
L 309.871692 243.921227 
L 310.679448 243.986376 
L 311.487204 243.922703 
L 314.02134 244.008587 
L 316.381254 244.220846 
L 316.745537 244.281795 
L 319.960722 244.17304 
L 320.562579 244.140609 
L 321.006053 244.359411 
L 323.112554 244.518527 
L 323.44516 244.570951 
L 324.062855 244.506199 
L 325.108187 244.511243 
L 325.393277 244.406989 
L 325.662529 244.373303 
L 327.642323 244.360255 
L 328.117473 244.401718 
L 328.751008 244.385043 
L 329.241996 244.49371 
L 329.527087 244.467806 
L 329.796339 244.576583 
L 330.097267 244.63878 
L 331.380174 244.777785 
L 331.823648 244.771757 
L 332.172092 244.754524 
L 336.068326 244.40229 
L 336.385093 244.358478 
L 336.939436 244.38972 
L 337.493778 244.338471 
L 338.14315 244.375021 
L 340.027914 244.268094 
L 340.534742 243.884259 
L 341.089084 243.862166 
L 341.500881 243.838354 
L 342.688758 244.14113 
L 343.037201 244.267632 
L 343.52819 244.070996 
L 345.207056 244.419383 
L 345.492146 244.467211 
L 345.84059 244.520759 
L 349.29335 244.730309 
L 349.515087 244.748357 
L 350.021915 244.789408 
L 350.797994 244.887641 
L 351.336498 244.869072 
L 352.397668 244.853271 
L 353.791443 244.632186 
L 354.044856 244.643765 
L 354.472492 244.67895 
L 355.010996 244.737762 
L 355.343601 244.797132 
L 355.802913 244.856818 
L 357.608485 244.763842 
L 357.941091 244.703568 
L 358.558787 244.582045 
L 360.174299 244.250399 
L 360.475227 244.209847 
L 360.966216 244.164083 
L 361.267145 244.080042 
L 362.217446 243.978894 
L 362.455021 243.931749 
L 362.803465 243.916448 
L 363.627059 243.984445 
L 364.038856 243.9665 
L 364.371462 243.78615 
L 364.830774 243.655486 
L 365.5435 243.845851 
L 366.826406 243.707462 
L 367.206527 243.658129 
L 369.344704 243.855286 
L 369.598118 243.918525 
L 371.007731 243.608143 
L 371.40369 243.613201 
L 371.910518 243.540314 
L 372.718274 243.588465 
L 373.288454 243.736824 
L 373.652736 243.923614 
L 374.048695 243.90771 
L 374.317947 243.943908 
L 374.745583 244.020121 
L 375.204895 244.074638 
L 375.474147 244.080659 
L 375.870106 244.086518 
L 376.519478 244.204693 
L 377.184689 244.170302 
L 377.596486 244.262514 
L 379.465412 244.169318 
L 379.893047 244.232565 
L 380.178137 244.269115 
L 382.2688 244.321165 
L 382.838981 244.355453 
L 383.440838 244.373626 
L 383.884312 244.548726 
L 384.137726 244.509033 
L 384.739583 244.508798 
L 385.563177 244.598037 
L 386.101681 244.57507 
L 389.19016 244.788953 
L 389.506927 244.746418 
L 389.982078 244.804041 
L 390.378036 244.855526 
L 391.613428 244.887957 
L 394.48017 244.864035 
L 394.844452 244.822331 
L 395.287926 244.842699 
L 395.573016 244.874997 
L 395.873945 244.838697 
L 398.487273 244.258564 
L 398.487273 244.258564 
" clip-path="url(#p85554bf126)" style="fill: none; stroke: #2ca02c; stroke-width: 1.5; stroke-linecap: square"/>
   </g>
   <g id="line2d_15">
    <path d="M 73.832727 245.513869 
L 75.242341 245.192025 
L 75.669976 245.152736 
L 76.176803 245.10996 
L 76.477732 245.072125 
L 77.285488 244.998136 
L 77.618093 244.998422 
L 78.029891 244.928575 
L 78.552556 244.98318 
L 78.821808 245.022674 
L 79.154414 245.006969 
L 79.550372 244.963363 
L 80.0572 245.344452 
L 80.358128 245.491328 
L 80.674895 245.417428 
L 80.959986 245.381531 
L 81.514328 245.249237 
L 81.609358 244.945308 
L 81.736065 243.459093 
L 82.290407 235.47139 
L 82.955618 230.234972 
L 84.064303 223.474908 
L 85.299694 217.876388 
L 87.691286 208.274104 
L 88.134759 205.238207 
L 88.213951 202.019839 
L 88.308981 186.23084 
L 88.483203 96.721052 
L 88.60991 57.63587 
L 88.657425 61.445429 
L 88.847485 116.10019 
L 89.227606 197.986999 
L 89.433504 207.360313 
L 89.576049 208.193889 
L 89.591888 208.18673 
L 89.734433 207.881443 
L 90.035362 206.831605 
L 90.637219 204.603469 
L 90.763926 204.461476 
L 90.795603 204.481491 
L 91.033178 204.544819 
L 91.2074 204.583975 
L 91.413298 204.607133 
L 91.58752 204.623653 
L 92.474468 205.384356 
L 92.664528 205.532136 
L 93.488122 206.435934 
L 93.931596 206.569638 
L 94.549292 207.081421 
L 95.404563 207.291794 
L 95.689653 207.197606 
L 96.228157 207.034085 
L 96.481571 206.999642 
L 96.845853 206.320799 
L 97.051752 206.194334 
L 97.495226 206.289021 
L 97.701124 206.182924 
L 98.03373 206.303816 
L 98.382173 206.339536 
L 98.556395 206.298639 
L 98.841486 206.213762 
L 99.364151 206.537567 
L 99.554211 206.514218 
L 99.823463 206.594749 
L 100.013524 206.595777 
L 100.868795 207.16193 
L 101.2014 206.991044 
L 101.454814 206.874037 
L 101.755742 206.812567 
L 102.373438 206.83651 
L 102.531822 206.455545 
L 102.785235 205.988448 
L 103.117841 205.763779 
L 103.735536 204.928595 
L 103.925597 204.967378 
L 104.289879 205.37824 
L 104.464101 205.446869 
L 104.479939 205.433102 
L 104.970928 205.045155 
L 105.6203 205.155474 
L 105.794522 205.048701 
L 106.713147 204.205705 
L 107.140782 204.083345 
L 107.473388 204.253673 
L 107.885185 203.910822 
L 108.629587 204.155072 
L 108.787971 204.470066 
L 109.088899 204.977025 
L 109.421505 205.385436 
L 109.627403 205.427632 
L 109.896655 205.228677 
L 110.498513 204.777931 
L 110.656896 204.897405 
L 111.322107 205.609642 
L 111.733904 205.856278 
L 112.018995 205.740064 
L 112.319923 205.836424 
L 112.557499 205.404621 
L 112.763397 205.271336 
L 112.985134 205.398674 
L 113.381093 205.718484 
L 113.650345 205.702735 
L 113.919597 205.752641 
L 114.220526 205.528604 
L 114.743191 204.948647 
L 114.94909 204.669697 
L 115.281695 203.607172 
L 115.582624 202.836234 
L 115.804361 202.734968 
L 115.978583 202.951259 
L 116.263673 203.218491 
L 116.722985 203.022839 
L 116.913046 203.06787 
L 117.134782 202.734601 
L 117.404034 201.94212 
L 117.625771 200.697351 
L 117.720801 198.459273 
L 117.815832 188.087787 
L 117.942538 139.969485 
L 118.164275 53.568 
L 118.195952 54.769904 
L 118.322659 79.952408 
L 118.845325 186.76335 
L 119.098738 203.168144 
L 119.352152 207.294922 
L 119.668919 209.073325 
L 119.954009 209.729187 
L 121.347784 211.233221 
L 121.506168 211.398622 
L 121.949642 212.460398 
L 122.725721 213.823327 
L 123.010811 214.019963 
L 124.008627 214.883209 
L 124.531293 215.078787 
L 124.94309 214.959232 
L 125.560786 214.882923 
L 126.47941 215.349014 
L 127.398035 215.412753 
L 127.936539 215.65696 
L 128.316659 215.509555 
L 128.60175 215.426036 
L 129.092738 215.006193 
L 129.409505 214.795277 
L 129.726273 214.952947 
L 129.979686 215.046782 
L 130.32813 214.850102 
L 130.597382 214.81889 
L 131.088371 214.443491 
L 131.3893 214.433483 
L 132.688044 214.271709 
L 132.878105 214.211025 
L 133.559154 213.927185 
L 134.081819 213.96969 
L 134.430263 213.71063 
L 134.857899 213.643337 
L 135.396403 213.843981 
L 135.99826 213.589834 
L 136.362542 213.280258 
L 137.392035 213.495294 
L 137.914701 213.804179 
L 138.437366 213.717678 
L 139.134254 213.87189 
L 139.387667 213.649307 
L 139.894495 213.22232 
L 140.13207 213.199816 
L 141.050694 213.118676 
L 141.399138 213.110805 
L 141.826774 213.154675 
L 142.333601 213.019304 
L 142.602853 213.138338 
L 142.951297 213.268584 
L 143.093842 213.070539 
L 143.363094 212.768042 
L 143.616508 212.626592 
L 143.949113 212.418752 
L 144.661839 212.411939 
L 144.851899 212.37356 
L 145.295373 212.522397 
L 145.786362 212.123715 
L 146.039775 211.871807 
L 146.641633 211.85898 
L 147.180137 211.492046 
L 147.655287 211.083188 
L 147.861186 210.808004 
L 147.892863 210.828563 
L 148.621427 211.475012 
L 149.286638 211.339413 
L 149.93601 211.415186 
L 150.268615 211.572489 
L 150.553706 211.48676 
L 151.060533 211.492854 
L 151.551522 211.276629 
L 152.121703 211.26295 
L 152.406793 211.354553 
L 152.72356 211.302283 
L 153.119519 211.146706 
L 154.228204 210.973133 
L 154.465779 211.113776 
L 154.925091 211.361866 
L 156.128806 211.704695 
L 156.508926 211.95686 
L 156.9524 212.018095 
L 157.490904 212.324198 
L 157.871025 212.29775 
L 158.235307 212.207741 
L 158.472882 212.151403 
L 159.312315 212.701961 
L 159.581567 212.82913 
L 159.945849 213.062375 
L 160.484353 213.0662 
L 160.769443 213.169822 
L 161.292109 213.42803 
L 161.529684 213.46265 
L 161.957319 213.391943 
L 162.194895 213.481842 
L 162.590854 213.674315 
L 163.604508 213.687215 
L 164.190527 213.865245 
L 165.425919 213.698698 
L 167.263167 213.993435 
L 167.72248 213.559407 
L 168.118439 213.29147 
L 168.466882 213.419469 
L 168.847003 213.50478 
L 170.240778 213.011125 
L 171.064372 212.972798 
L 171.365301 212.778395 
L 172.283925 212.872274 
L 172.632369 212.68072 
L 173.091681 212.586246 
L 173.550993 212.313904 
L 173.836084 212.4 
L 174.121174 212.43738 
L 175.039798 212.164722 
L 175.388242 211.839214 
L 176.338543 211.683652 
L 177.573935 211.155304 
L 177.779833 211.116272 
L 178.033247 211.039471 
L 178.508398 211.103511 
L 179.2528 210.696371 
L 179.601244 210.680673 
L 179.807143 210.721181 
L 180.028879 210.756865 
L 180.298131 210.668316 
L 182.151219 210.003739 
L 182.452147 209.920741 
L 182.768914 209.791787 
L 183.164873 209.575203 
L 183.418287 209.25391 
L 183.766731 209.372209 
L 183.956791 209.398891 
L 184.194366 209.379133 
L 184.780385 209.703026 
L 185.128829 209.760671 
L 185.556464 210.181225 
L 186.047453 210.459647 
L 186.316705 210.455564 
L 186.617634 210.634967 
L 186.966078 210.81241 
L 187.472905 211.068026 
L 187.773834 211.186502 
L 188.153954 211.392043 
L 188.629105 211.279507 
L 188.850842 211.203977 
L 189.262639 211.302548 
L 189.816981 211.379385 
L 190.323808 211.3731 
L 190.846474 211.225857 
L 191.052373 211.369289 
L 191.321625 211.450342 
L 191.638392 211.430282 
L 192.224411 211.275983 
L 192.414471 211.366272 
L 192.731238 211.590632 
L 193.032167 211.595199 
L 193.412287 211.529543 
L 193.697377 211.580962 
L 194.457618 211.759902 
L 195.281213 211.705921 
L 195.930585 211.828575 
L 196.16816 211.89995 
L 196.374059 211.891212 
L 196.564119 211.926169 
L 196.817533 212.015408 
L 197.118462 211.993638 
L 197.942056 212.52783 
L 198.242985 212.38334 
L 198.464722 212.372033 
L 198.76565 212.333801 
L 199.098256 212.110697 
L 199.399184 212.004527 
L 199.605083 212.018 
L 199.92185 212.154979 
L 200.365324 211.997397 
L 200.745444 211.933982 
L 201.07805 211.863811 
L 201.489847 211.648629 
L 202.661885 211.731612 
L 203.168712 211.496473 
L 203.374611 211.412279 
L 203.659701 211.293164 
L 204.15069 211.278142 
L 204.720871 211.087512 
L 205.085153 211.157485 
L 205.433597 211.200783 
L 205.718687 211.241863 
L 205.987939 211.093944 
L 206.74818 210.719022 
L 207.001593 210.771337 
L 207.22333 210.737224 
L 207.698481 210.504677 
L 207.936056 210.46088 
L 208.648782 210.262733 
L 208.807166 210.449111 
L 209.123933 210.800074 
L 209.789143 211.037034 
L 210.739445 211.098034 
L 211.277949 211.157977 
L 211.499685 210.889497 
L 211.832291 210.456893 
L 212.449987 210.214016 
L 213.653701 210.529193 
L 213.891277 210.589158 
L 214.999961 210.32606 
L 215.221698 210.266595 
L 216.108646 210.718956 
L 216.377898 210.864606 
L 217.660805 210.994 
L 217.835026 210.967472 
L 218.310177 211.229278 
L 219.007064 211.31246 
L 219.292155 211.264801 
L 219.593083 211.260432 
L 219.798982 211.35912 
L 220.084072 211.5022 
L 220.49587 211.297562 
L 220.765122 211.221275 
L 221.06605 211.191737 
L 221.493686 211.012709 
L 222.729077 211.5219 
L 223.362611 211.753257 
L 223.774409 211.666419 
L 224.138691 211.602064 
L 224.502973 211.468051 
L 224.993962 211.854457 
L 225.865071 212.173011 
L 226.229353 212.13674 
L 226.577797 212.214077 
L 227.116301 212.477418 
L 227.543936 212.462373 
L 228.08244 212.176154 
L 228.541753 212.127217 
L 228.763489 212.059132 
L 229.222802 212.155845 
L 229.555407 212.034506 
L 230.727445 212.239401 
L 231.139242 212.127907 
L 231.329303 212.080938 
L 231.83613 211.73347 
L 232.247927 211.942998 
L 232.501341 211.817995 
L 232.770593 211.68139 
L 233.499157 211.840146 
L 234.085176 211.470739 
L 234.924609 211.533435 
L 235.178022 211.514763 
L 235.447274 211.520277 
L 235.684849 211.514822 
L 236.207515 211.316028 
L 236.619312 211.552518 
L 236.983594 211.626705 
L 237.141978 211.504455 
L 237.490422 211.235666 
L 239.882013 211.076345 
L 240.768961 211.529837 
L 241.434171 211.297408 
L 241.798453 211.31887 
L 242.083544 211.375898 
L 242.970491 211.889245 
L 243.27142 211.756062 
L 243.572349 211.570257 
L 244.095015 211.652895 
L 244.52265 211.457082 
L 244.823579 211.472258 
L 245.219538 211.647851 
L 245.742203 211.77792 
L 246.201515 211.911191 
L 246.534121 211.819742 
L 247.040948 211.779043 
L 247.674482 211.315037 
L 248.054603 211.347578 
L 248.498076 211.397447 
L 248.830682 211.129202 
L 250.09775 211.379495 
L 250.47787 211.055889 
L 250.652092 211.204322 
L 250.889668 211.299317 
L 251.475687 211.135612 
L 251.713262 211.142286 
L 252.267604 211.377197 
L 252.98033 211.27102 
L 253.328774 211.36973 
L 253.772248 211.56113 
L 254.120692 211.851366 
L 254.675034 211.858796 
L 255.308568 211.540491 
L 256.132162 211.474013 
L 256.417253 211.211121 
L 257.351715 211.406258 
L 257.700159 211.538516 
L 258.476238 211.586623 
L 258.793005 211.681633 
L 259.062257 211.665825 
L 259.99672 211.867284 
L 260.788638 211.858796 
L 261.089567 211.710158 
L 261.295465 211.62879 
L 261.723101 211.353423 
L 262.008191 211.375552 
L 262.657563 211.248023 
L 262.942654 211.230299 
L 263.259421 211.357446 
L 263.607865 211.322328 
L 264.811579 211.906991 
L 265.856911 211.581123 
L 266.157839 211.449049 
L 266.458768 211.51607 
L 266.680505 211.489094 
L 266.886403 211.50828 
L 267.092302 211.456568 
L 267.519938 211.326645 
L 267.741674 211.335684 
L 267.947573 211.368298 
L 268.596946 211.522311 
L 268.787006 211.57011 
L 269.246318 211.687 
L 269.468055 211.564419 
L 269.89569 211.300484 
L 270.370841 211.506195 
L 270.640093 211.639752 
L 270.988537 211.655942 
L 271.33698 211.501011 
L 271.653748 211.439321 
L 273.015846 211.407345 
L 273.617703 211.518677 
L 274.172046 211.25273 
L 274.536328 211.128798 
L 274.99564 211.045749 
L 275.201538 211.178991 
L 275.882588 211.511922 
L 276.310223 211.439622 
L 276.642828 211.508236 
L 276.975434 211.765174 
L 277.767351 211.86721 
L 278.337532 211.727515 
L 278.955228 211.691332 
L 279.240318 211.513023 
L 279.69963 211.452654 
L 280.507386 211.243904 
L 280.744962 211.263163 
L 281.188436 211.25284 
L 281.853646 211.401192 
L 282.075383 211.424394 
L 282.550534 211.343151 
L 283.437482 211.612857 
L 283.801764 211.689452 
L 284.340268 211.631639 
L 284.562005 211.696486 
L 285.243054 211.489094 
L 285.528144 211.716002 
L 285.908265 211.90227 
L 286.351738 212.31256 
L 286.589314 212.54308 
L 287.127818 213.018357 
L 288.030604 212.821693 
L 288.252341 212.969274 
L 288.505754 213.018827 
L 288.727491 212.848331 
L 288.965067 212.751265 
L 289.788661 212.713055 
L 290.08959 212.530385 
L 290.46971 212.650477 
L 290.7548 212.575218 
L 291.752617 212.770333 
L 292.560373 212.601312 
L 292.813786 212.604029 
L 293.114715 212.651695 
L 293.716572 212.776434 
L 294.001663 212.644661 
L 294.350106 212.572971 
L 295.728043 212.118942 
L 295.997295 212.204451 
L 296.219032 212.247852 
L 297.39107 212.77255 
L 297.77119 212.682687 
L 298.167149 212.803109 
L 298.499755 212.715368 
L 299.164965 212.734157 
L 299.671793 212.762124 
L 300.020236 212.556076 
L 300.337004 212.631599 
L 301.128921 212.747682 
L 301.61991 212.861165 
L 302.506858 212.867612 
L 302.902817 212.949347 
L 303.631381 212.865607 
L 304.280753 212.666468 
L 306.403092 213.033615 
L 306.767375 212.885806 
L 307.131657 213.018937 
L 307.876059 212.570195 
L 308.509593 212.31455 
L 308.937229 212.469679 
L 309.190642 212.464378 
L 309.396541 212.469246 
L 309.950883 212.038823 
L 310.125105 211.847929 
L 310.140944 211.85696 
L 310.505226 212.020364 
L 311.154598 211.734475 
L 311.661425 211.796327 
L 312.247444 211.329912 
L 312.58005 211.121133 
L 313.387806 211.331146 
L 313.83128 211.511599 
L 314.084693 211.60981 
L 314.369784 211.693072 
L 314.797419 211.73087 
L 315.098348 211.813083 
L 315.351762 211.805535 
L 315.74772 211.915912 
L 316.016972 212.028852 
L 316.444608 212.103164 
L 316.650506 211.920751 
L 316.824728 211.773001 
L 316.840567 211.787201 
L 317.331556 212.220017 
L 317.521616 212.244541 
L 317.980928 212.468643 
L 318.519432 212.693569 
L 318.852037 212.720912 
L 319.089613 212.815202 
L 319.200481 213.350216 
L 319.358865 215.767102 
L 319.7865 222.302153 
L 320.420034 227.709104 
L 321.03773 231.398153 
L 322.162253 236.889108 
L 323.524351 241.159193 
L 325.393277 245.13449 
L 325.868427 245.858981 
L 327.278041 247.520516 
L 327.737353 247.855217 
L 328.624301 248.551858 
L 329.067775 248.794155 
L 329.463733 248.966789 
L 329.653794 249.056042 
L 330.113106 249.360184 
L 330.74664 249.666675 
L 331.015892 249.771201 
L 331.491042 249.949157 
L 334.136047 250.146181 
L 334.532006 250.199538 
L 335.118025 250.285627 
L 339.267673 249.970053 
L 339.901208 249.769005 
L 340.186298 249.713923 
L 340.629772 249.64047 
L 341.009892 249.547597 
L 341.675103 249.537545 
L 342.767949 249.310021 
L 343.195585 249.14299 
L 343.448998 249.044764 
L 344.225078 249.06895 
L 345.001157 249.142469 
L 345.207056 249.095617 
L 345.523823 249.098194 
L 345.998973 248.998574 
L 347.693677 248.649387 
L 348.453918 248.772789 
L 348.802362 248.763751 
L 349.134967 248.728581 
L 349.530926 248.569561 
L 350.085268 248.562666 
L 350.528742 248.567365 
L 350.782156 248.458728 
L 351.463205 248.159205 
L 351.906679 248.047748 
L 355.026834 247.457189 
L 356.357256 247.368824 
L 356.848245 247.499451 
L 357.323395 247.56076 
L 357.703516 247.725001 
L 357.956929 247.751404 
L 358.257858 247.648163 
L 359.176482 248.015706 
L 360.205975 248.122845 
L 361.964032 248.263135 
L 363.452837 247.949985 
L 364.118048 248.203031 
L 364.418977 248.265933 
L 364.640714 248.267247 
L 364.989158 248.205358 
L 365.495985 248.261821 
L 365.939459 248.160607 
L 366.446286 248.289377 
L 366.873922 248.312748 
L 367.333234 248.440071 
L 367.634162 248.514368 
L 368.774524 248.654688 
L 369.075453 248.692413 
L 369.39222 248.693925 
L 370.500904 248.668895 
L 370.83351 248.696701 
L 371.372014 248.67032 
L 372.163931 248.535367 
L 372.670758 248.50914 
L 373.81112 248.547247 
L 374.222917 248.547321 
L 376.709538 248.622917 
L 377.659839 248.677471 
L 378.182505 248.644981 
L 378.863554 248.633857 
L 380.985893 248.599429 
L 381.366014 248.670063 
L 382.110416 248.623586 
L 382.712274 248.618248 
L 383.013203 248.537849 
L 383.298293 248.579774 
L 384.929643 248.687875 
L 387.337073 248.25207 
L 388.90507 248.347433 
L 389.301028 248.43687 
L 390.156299 248.539479 
L 390.63145 248.579605 
L 391.581751 248.437274 
L 392.151932 248.263231 
L 393.60906 248.000984 
L 394.163403 247.943531 
L 394.559361 247.932201 
L 394.923643 247.825495 
L 395.382956 247.769297 
L 395.858106 247.716931 
L 396.364934 247.512432 
L 396.634186 247.586774 
L 396.950953 247.595254 
L 398.218021 247.581524 
L 398.487273 247.50882 
L 398.487273 247.50882 
" clip-path="url(#p85554bf126)" style="fill: none; stroke: #d62728; stroke-width: 1.5; stroke-linecap: square"/>
   </g>
   <g id="patch_3">
    <path d="M 57.6 307.584 
L 57.6 41.472 
" style="fill: none; stroke: #000000; stroke-width: 0.8; stroke-linejoin: miter; stroke-linecap: square"/>
   </g>
   <g id="patch_4">
    <path d="M 414.72 307.584 
L 414.72 41.472 
" style="fill: none; stroke: #000000; stroke-width: 0.8; stroke-linejoin: miter; stroke-linecap: square"/>
   </g>
   <g id="patch_5">
    <path d="M 57.6 307.584 
L 414.72 307.584 
" style="fill: none; stroke: #000000; stroke-width: 0.8; stroke-linejoin: miter; stroke-linecap: square"/>
   </g>
   <g id="patch_6">
    <path d="M 57.6 41.472 
L 414.72 41.472 
" style="fill: none; stroke: #000000; stroke-width: 0.8; stroke-linejoin: miter; stroke-linecap: square"/>
   </g>
  </g>
 </g>
 <defs>
  <clipPath id="p85554bf126">
   <rect x="57.6" y="41.472" width="357.12" height="266.112"/>
  </clipPath>
 </defs>
</svg>
