<?xml version="1.0" encoding="utf-8" standalone="no"?>
<!DOCTYPE svg PUBLIC "-//W3C//DTD SVG 1.1//EN"
  "http://www.w3.org/Graphics/SVG/1.1/DTD/svg11.dtd">
<svg xmlns:xlink="http://www.w3.org/1999/xlink" width="460.8pt" height="345.6pt" viewBox="0 0 460.8 345.6" xmlns="http://www.w3.org/2000/svg" version="1.1">
 <metadata>
  <rdf:RDF xmlns:dc="http://purl.org/dc/elements/1.1/" xmlns:cc="http://creativecommons.org/ns#" xmlns:rdf="http://www.w3.org/1999/02/22-rdf-syntax-ns#">
   <cc:Work>
    <dc:type rdf:resource="http://purl.org/dc/dcmitype/StillImage"/>
    <dc:date>2024-02-29T19:38:31.159611</dc:date>
    <dc:format>image/svg+xml</dc:format>
    <dc:creator>
     <cc:Agent>
      <dc:title>Matplotlib v3.6.2, https://matplotlib.org/</dc:title>
     </cc:Agent>
    </dc:creator>
   </cc:Work>
  </rdf:RDF>
 </metadata>
 <defs>
  <style type="text/css">*{stroke-linejoin: round; stroke-linecap: butt}</style>
 </defs>
 <g id="figure_1">
  <g id="patch_1">
   <path d="M 0 345.6 
L 460.8 345.6 
L 460.8 0 
L 0 0 
z
" style="fill: #ffffff"/>
  </g>
  <g id="axes_1">
   <g id="patch_2">
    <path d="M 57.6 307.584 
L 414.72 307.584 
L 414.72 41.472 
L 57.6 41.472 
z
" style="fill: #ffffff"/>
   </g>
   <g id="matplotlib.axis_1">
    <g id="xtick_1">
     <g id="line2d_1">
      <defs>
       <path id="m11ea1c9022" d="M 0 0 
L 0 3.5 
" style="stroke: #000000; stroke-width: 0.8"/>
      </defs>
      <g>
       <use xlink:href="#m11ea1c9022" x="121.347784" y="307.584" style="stroke: #000000; stroke-width: 0.8"/>
      </g>
     </g>
     <g id="text_1">
      <!-- 0.2 -->
      <g transform="translate(113.396222 322.182437) scale(0.1 -0.1)">
       <defs>
        <path id="DejaVuSans-30" d="M 2034 4250 
Q 1547 4250 1301 3770 
Q 1056 3291 1056 2328 
Q 1056 1369 1301 889 
Q 1547 409 2034 409 
Q 2525 409 2770 889 
Q 3016 1369 3016 2328 
Q 3016 3291 2770 3770 
Q 2525 4250 2034 4250 
z
M 2034 4750 
Q 2819 4750 3233 4129 
Q 3647 3509 3647 2328 
Q 3647 1150 3233 529 
Q 2819 -91 2034 -91 
Q 1250 -91 836 529 
Q 422 1150 422 2328 
Q 422 3509 836 4129 
Q 1250 4750 2034 4750 
z
" transform="scale(0.015625)"/>
        <path id="DejaVuSans-2e" d="M 684 794 
L 1344 794 
L 1344 0 
L 684 0 
L 684 794 
z
" transform="scale(0.015625)"/>
        <path id="DejaVuSans-32" d="M 1228 531 
L 3431 531 
L 3431 0 
L 469 0 
L 469 531 
Q 828 903 1448 1529 
Q 2069 2156 2228 2338 
Q 2531 2678 2651 2914 
Q 2772 3150 2772 3378 
Q 2772 3750 2511 3984 
Q 2250 4219 1831 4219 
Q 1534 4219 1204 4116 
Q 875 4013 500 3803 
L 500 4441 
Q 881 4594 1212 4672 
Q 1544 4750 1819 4750 
Q 2544 4750 2975 4387 
Q 3406 4025 3406 3419 
Q 3406 3131 3298 2873 
Q 3191 2616 2906 2266 
Q 2828 2175 2409 1742 
Q 1991 1309 1228 531 
z
" transform="scale(0.015625)"/>
       </defs>
       <use xlink:href="#DejaVuSans-30"/>
       <use xlink:href="#DejaVuSans-2e" x="63.623047"/>
       <use xlink:href="#DejaVuSans-32" x="95.410156"/>
      </g>
     </g>
    </g>
    <g id="xtick_2">
     <g id="line2d_2">
      <g>
       <use xlink:href="#m11ea1c9022" x="200.539546" y="307.584" style="stroke: #000000; stroke-width: 0.8"/>
      </g>
     </g>
     <g id="text_2">
      <!-- 0.4 -->
      <g transform="translate(192.587983 322.182437) scale(0.1 -0.1)">
       <defs>
        <path id="DejaVuSans-34" d="M 2419 4116 
L 825 1625 
L 2419 1625 
L 2419 4116 
z
M 2253 4666 
L 3047 4666 
L 3047 1625 
L 3713 1625 
L 3713 1100 
L 3047 1100 
L 3047 0 
L 2419 0 
L 2419 1100 
L 313 1100 
L 313 1709 
L 2253 4666 
z
" transform="scale(0.015625)"/>
       </defs>
       <use xlink:href="#DejaVuSans-30"/>
       <use xlink:href="#DejaVuSans-2e" x="63.623047"/>
       <use xlink:href="#DejaVuSans-34" x="95.410156"/>
      </g>
     </g>
    </g>
    <g id="xtick_3">
     <g id="line2d_3">
      <g>
       <use xlink:href="#m11ea1c9022" x="279.731307" y="307.584" style="stroke: #000000; stroke-width: 0.8"/>
      </g>
     </g>
     <g id="text_3">
      <!-- 0.6 -->
      <g transform="translate(271.779745 322.182437) scale(0.1 -0.1)">
       <defs>
        <path id="DejaVuSans-36" d="M 2113 2584 
Q 1688 2584 1439 2293 
Q 1191 2003 1191 1497 
Q 1191 994 1439 701 
Q 1688 409 2113 409 
Q 2538 409 2786 701 
Q 3034 994 3034 1497 
Q 3034 2003 2786 2293 
Q 2538 2584 2113 2584 
z
M 3366 4563 
L 3366 3988 
Q 3128 4100 2886 4159 
Q 2644 4219 2406 4219 
Q 1781 4219 1451 3797 
Q 1122 3375 1075 2522 
Q 1259 2794 1537 2939 
Q 1816 3084 2150 3084 
Q 2853 3084 3261 2657 
Q 3669 2231 3669 1497 
Q 3669 778 3244 343 
Q 2819 -91 2113 -91 
Q 1303 -91 875 529 
Q 447 1150 447 2328 
Q 447 3434 972 4092 
Q 1497 4750 2381 4750 
Q 2619 4750 2861 4703 
Q 3103 4656 3366 4563 
z
" transform="scale(0.015625)"/>
       </defs>
       <use xlink:href="#DejaVuSans-30"/>
       <use xlink:href="#DejaVuSans-2e" x="63.623047"/>
       <use xlink:href="#DejaVuSans-36" x="95.410156"/>
      </g>
     </g>
    </g>
    <g id="xtick_4">
     <g id="line2d_4">
      <g>
       <use xlink:href="#m11ea1c9022" x="358.923069" y="307.584" style="stroke: #000000; stroke-width: 0.8"/>
      </g>
     </g>
     <g id="text_4">
      <!-- 0.8 -->
      <g transform="translate(350.971506 322.182437) scale(0.1 -0.1)">
       <defs>
        <path id="DejaVuSans-38" d="M 2034 2216 
Q 1584 2216 1326 1975 
Q 1069 1734 1069 1313 
Q 1069 891 1326 650 
Q 1584 409 2034 409 
Q 2484 409 2743 651 
Q 3003 894 3003 1313 
Q 3003 1734 2745 1975 
Q 2488 2216 2034 2216 
z
M 1403 2484 
Q 997 2584 770 2862 
Q 544 3141 544 3541 
Q 544 4100 942 4425 
Q 1341 4750 2034 4750 
Q 2731 4750 3128 4425 
Q 3525 4100 3525 3541 
Q 3525 3141 3298 2862 
Q 3072 2584 2669 2484 
Q 3125 2378 3379 2068 
Q 3634 1759 3634 1313 
Q 3634 634 3220 271 
Q 2806 -91 2034 -91 
Q 1263 -91 848 271 
Q 434 634 434 1313 
Q 434 1759 690 2068 
Q 947 2378 1403 2484 
z
M 1172 3481 
Q 1172 3119 1398 2916 
Q 1625 2713 2034 2713 
Q 2441 2713 2670 2916 
Q 2900 3119 2900 3481 
Q 2900 3844 2670 4047 
Q 2441 4250 2034 4250 
Q 1625 4250 1398 4047 
Q 1172 3844 1172 3481 
z
" transform="scale(0.015625)"/>
       </defs>
       <use xlink:href="#DejaVuSans-30"/>
       <use xlink:href="#DejaVuSans-2e" x="63.623047"/>
       <use xlink:href="#DejaVuSans-38" x="95.410156"/>
      </g>
     </g>
    </g>
   </g>
   <g id="matplotlib.axis_2">
    <g id="ytick_1">
     <g id="line2d_5">
      <defs>
       <path id="m81f5bc4e86" d="M 0 0 
L -3.5 0 
" style="stroke: #000000; stroke-width: 0.8"/>
      </defs>
      <g>
       <use xlink:href="#m81f5bc4e86" x="57.6" y="281.416578" style="stroke: #000000; stroke-width: 0.8"/>
      </g>
     </g>
     <g id="text_5">
      <!-- −80 -->
      <g transform="translate(29.495313 285.215797) scale(0.1 -0.1)">
       <defs>
        <path id="DejaVuSans-2212" d="M 678 2272 
L 4684 2272 
L 4684 1741 
L 678 1741 
L 678 2272 
z
" transform="scale(0.015625)"/>
       </defs>
       <use xlink:href="#DejaVuSans-2212"/>
       <use xlink:href="#DejaVuSans-38" x="83.789062"/>
       <use xlink:href="#DejaVuSans-30" x="147.412109"/>
      </g>
     </g>
    </g>
    <g id="ytick_2">
     <g id="line2d_6">
      <g>
       <use xlink:href="#m81f5bc4e86" x="57.6" y="243.961652" style="stroke: #000000; stroke-width: 0.8"/>
      </g>
     </g>
     <g id="text_6">
      <!-- −60 -->
      <g transform="translate(29.495313 247.760871) scale(0.1 -0.1)">
       <use xlink:href="#DejaVuSans-2212"/>
       <use xlink:href="#DejaVuSans-36" x="83.789062"/>
       <use xlink:href="#DejaVuSans-30" x="147.412109"/>
      </g>
     </g>
    </g>
    <g id="ytick_3">
     <g id="line2d_7">
      <g>
       <use xlink:href="#m81f5bc4e86" x="57.6" y="206.506726" style="stroke: #000000; stroke-width: 0.8"/>
      </g>
     </g>
     <g id="text_7">
      <!-- −40 -->
      <g transform="translate(29.495313 210.305945) scale(0.1 -0.1)">
       <use xlink:href="#DejaVuSans-2212"/>
       <use xlink:href="#DejaVuSans-34" x="83.789062"/>
       <use xlink:href="#DejaVuSans-30" x="147.412109"/>
      </g>
     </g>
    </g>
    <g id="ytick_4">
     <g id="line2d_8">
      <g>
       <use xlink:href="#m81f5bc4e86" x="57.6" y="169.0518" style="stroke: #000000; stroke-width: 0.8"/>
      </g>
     </g>
     <g id="text_8">
      <!-- −20 -->
      <g transform="translate(29.495313 172.851018) scale(0.1 -0.1)">
       <use xlink:href="#DejaVuSans-2212"/>
       <use xlink:href="#DejaVuSans-32" x="83.789062"/>
       <use xlink:href="#DejaVuSans-30" x="147.412109"/>
      </g>
     </g>
    </g>
    <g id="ytick_5">
     <g id="line2d_9">
      <g>
       <use xlink:href="#m81f5bc4e86" x="57.6" y="131.596873" style="stroke: #000000; stroke-width: 0.8"/>
      </g>
     </g>
     <g id="text_9">
      <!-- 0 -->
      <g transform="translate(44.2375 135.396092) scale(0.1 -0.1)">
       <use xlink:href="#DejaVuSans-30"/>
      </g>
     </g>
    </g>
    <g id="ytick_6">
     <g id="line2d_10">
      <g>
       <use xlink:href="#m81f5bc4e86" x="57.6" y="94.141947" style="stroke: #000000; stroke-width: 0.8"/>
      </g>
     </g>
     <g id="text_10">
      <!-- 20 -->
      <g transform="translate(37.875 97.941166) scale(0.1 -0.1)">
       <use xlink:href="#DejaVuSans-32"/>
       <use xlink:href="#DejaVuSans-30" x="63.623047"/>
      </g>
     </g>
    </g>
    <g id="ytick_7">
     <g id="line2d_11">
      <g>
       <use xlink:href="#m81f5bc4e86" x="57.6" y="56.687021" style="stroke: #000000; stroke-width: 0.8"/>
      </g>
     </g>
     <g id="text_11">
      <!-- 40 -->
      <g transform="translate(37.875 60.486239) scale(0.1 -0.1)">
       <use xlink:href="#DejaVuSans-34"/>
       <use xlink:href="#DejaVuSans-30" x="63.623047"/>
      </g>
     </g>
    </g>
   </g>
   <g id="line2d_12">
    <path d="M 73.832727 232.009009 
L 74.101979 232.078432 
L 74.450423 232.132716 
L 74.830543 232.181224 
L 76.667792 232.335852 
L 77.063751 232.413542 
L 77.301326 232.371628 
L 77.602255 232.371648 
L 78.235789 232.427963 
L 81.276753 232.476443 
L 81.530166 232.735607 
L 81.625197 233.549446 
L 81.78358 237.852831 
L 82.116186 245.477188 
L 82.718043 252.339861 
L 83.652506 260.472716 
L 84.887897 269.482017 
L 85.885713 275.352204 
L 86.820176 279.985718 
L 87.881346 284.063022 
L 88.641587 286.430365 
L 89.354313 288.321827 
L 90.763926 290.94846 
L 91.381622 291.75143 
L 92.300246 292.799666 
L 92.632851 293.04344 
L 93.108002 293.282567 
L 93.345577 293.434711 
L 93.836566 293.821057 
L 95.135311 294.477604 
L 96.893368 294.949371 
L 98.889001 294.933045 
L 99.284959 294.932125 
L 99.680918 295.053739 
L 99.981847 295.081199 
L 100.377806 295.10538 
L 100.995501 295.204028 
L 101.597359 295.249235 
L 101.977479 295.319196 
L 102.230893 295.428658 
L 102.64269 295.455615 
L 103.054487 295.413505 
L 103.323739 295.384622 
L 103.60883 295.395101 
L 103.862243 295.455587 
L 105.477755 295.207711 
L 105.71533 295.23238 
L 106.364703 295.371255 
L 106.808177 295.386687 
L 107.140782 295.373473 
L 108.075245 295.278495 
L 108.708779 295.373529 
L 114.394748 294.984086 
L 115.820199 295.110919 
L 116.279511 295.154466 
L 116.928884 295.101291 
L 117.293166 295.125974 
L 119.732272 294.863713 
L 120.540028 294.882159 
L 122.741559 294.929655 
L 123.21671 294.814835 
L 124.262041 294.761283 
L 124.94309 294.687862 
L 125.782523 294.655575 
L 126.146805 294.689676 
L 126.732824 294.623706 
L 127.461388 294.576364 
L 128.189952 294.522756 
L 128.459204 294.481078 
L 128.680941 294.439568 
L 129.045223 294.489785 
L 129.377829 294.494348 
L 129.678757 294.457595 
L 130.106393 294.467865 
L 130.42316 294.413085 
L 131.927804 294.000354 
L 132.181217 294.027353 
L 132.513823 293.987754 
L 133.131518 293.995498 
L 133.464124 293.968974 
L 133.717537 293.983834 
L 134.240203 293.875628 
L 134.762869 293.993084 
L 135.887392 294.064412 
L 136.378381 294.018605 
L 139.878656 293.878753 
L 140.242938 293.890697 
L 144.234203 293.411103 
L 144.471779 293.444283 
L 144.804384 293.430763 
L 145.279535 293.292641 
L 146.435734 293.301753 
L 147.607772 293.274963 
L 148.827325 293.303371 
L 149.413344 293.295823 
L 150.236939 293.217811 
L 150.569544 293.198012 
L 150.886311 293.144753 
L 151.393138 293.142297 
L 153.135357 292.971219 
L 153.6897 292.954085 
L 154.402425 292.89611 
L 154.592486 292.956624 
L 154.830061 293.042352 
L 157.079107 292.924867 
L 158.282822 292.813787 
L 158.757972 292.761142 
L 159.201446 292.836251 
L 159.581567 292.749519 
L 161.513846 292.805485 
L 161.798936 292.780146 
L 162.115703 292.71479 
L 162.495823 292.605328 
L 163.208549 292.44272 
L 163.430286 292.43259 
L 163.747053 292.465323 
L 164.808223 292.274083 
L 166.28119 292.242465 
L 166.629633 292.292836 
L 167.231491 292.221801 
L 167.690803 292.213164 
L 168.118439 292.221257 
L 168.530236 292.179258 
L 172.33144 292.007133 
L 172.632369 291.979562 
L 173.091681 292.000994 
L 173.471802 291.959581 
L 173.756892 291.990097 
L 174.279558 291.993264 
L 178.239146 291.739235 
L 178.555913 291.693204 
L 178.904356 291.738453 
L 179.316154 291.735774 
L 179.632921 291.741732 
L 179.886334 291.726984 
L 180.424838 291.72344 
L 180.947504 291.782852 
L 182.848106 291.641438 
L 183.19655 291.613671 
L 185.603979 291.399422 
L 185.9841 291.474866 
L 186.601796 291.34015 
L 186.918563 291.332657 
L 187.726319 291.417798 
L 188.660781 291.427524 
L 188.945872 291.364135 
L 189.199285 291.382316 
L 189.436861 291.399032 
L 189.753628 291.40178 
L 190.244617 291.321467 
L 190.751444 291.131077 
L 191.194918 291.112813 
L 194.44178 291.045643 
L 195.170344 291.189317 
L 195.708848 291.078865 
L 197.118462 290.893527 
L 197.672804 290.903615 
L 198.100439 290.895815 
L 198.322176 290.935637 
L 198.638943 290.968036 
L 199.272477 290.945167 
L 201.014696 290.916075 
L 201.854129 290.963515 
L 202.661885 290.871439 
L 203.469641 290.786632 
L 205.132668 290.675189 
L 205.560303 290.66739 
L 205.972101 290.665841 
L 206.732341 290.602675 
L 207.1283 290.65186 
L 207.508421 290.553854 
L 207.793511 290.62154 
L 208.18947 290.697779 
L 209.472376 290.447964 
L 210.216779 290.352902 
L 210.533546 290.391705 
L 211.182918 290.419751 
L 211.610554 290.365711 
L 211.943159 290.464875 
L 212.180735 290.46267 
L 212.545017 290.360032 
L 213.036006 290.360604 
L 213.57451 290.132053 
L 214.746548 290.327145 
L 216.045293 290.146104 
L 217.565774 290.116426 
L 217.80335 290.109156 
L 218.072602 290.115993 
L 218.579429 290.245924 
L 219.212963 290.138569 
L 219.894012 290.179661 
L 220.416678 290.201707 
L 220.749283 290.228287 
L 222.586532 290.268249 
L 225.120668 290.090208 
L 226.403575 290.135988 
L 227.068786 290.134634 
L 227.670643 290.206646 
L 227.971572 290.213888 
L 228.335854 290.207302 
L 229.175287 290.166461 
L 229.460377 290.123723 
L 229.856336 290.153722 
L 230.442355 290.096012 
L 231.487686 289.9671 
L 231.915322 290.009671 
L 232.184574 289.960165 
L 232.707239 289.949059 
L 233.530834 289.990695 
L 234.354428 290.223362 
L 234.607841 290.088603 
L 235.178022 289.936515 
L 236.365899 289.867001 
L 236.682666 289.864029 
L 237.094463 289.825491 
L 237.870542 289.723605 
L 240.959021 289.790455 
L 241.418333 289.849825 
L 241.845968 289.781343 
L 242.146897 289.76852 
L 242.590371 289.715317 
L 243.018007 289.71102 
L 243.635702 289.63206 
L 244.791902 289.714341 
L 245.140346 289.687118 
L 245.86891 289.582442 
L 246.296545 289.683686 
L 246.518282 289.628348 
L 246.819211 289.633204 
L 248.086279 289.705132 
L 249.432539 289.745051 
L 249.701791 289.739512 
L 250.081912 289.65091 
L 254.104853 289.79951 
L 254.42162 289.870071 
L 255.086831 289.714731 
L 256.338061 289.714662 
L 256.749858 289.603484 
L 257.193332 289.548495 
L 257.779351 289.467358 
L 258.17531 289.485371 
L 260.329326 289.505212 
L 260.947021 289.581591 
L 261.960676 289.491776 
L 262.59421 289.519626 
L 263.702895 289.397453 
L 263.972147 289.408629 
L 264.32059 289.428694 
L 264.653196 289.47693 
L 264.954124 289.526728 
L 265.365922 289.494231 
L 265.698527 289.425666 
L 266.332061 289.473162 
L 267.535776 289.599884 
L 267.820866 289.510473 
L 268.422724 289.56468 
L 268.723652 289.533104 
L 269.087934 289.522612 
L 269.6106 289.47859 
L 271.384496 289.492864 
L 271.732939 289.444238 
L 271.954676 289.484297 
L 272.334797 289.573945 
L 273.760248 289.584326 
L 274.0295 289.677602 
L 274.853095 289.479832 
L 275.138185 289.495194 
L 277.735675 289.310009 
L 278.448401 289.427117 
L 278.828521 289.358803 
L 280.396518 289.427647 
L 280.871669 289.395444 
L 281.235951 289.371696 
L 281.774455 289.39889 
L 282.091222 289.370286 
L 282.328797 289.365124 
L 282.756432 289.260922 
L 286.716021 289.360352 
L 287.444585 289.436438 
L 290.548902 289.21651 
L 292.386151 289.13201 
L 292.766271 289.15273 
L 293.954148 289.20511 
L 295.157862 289.175586 
L 295.458791 289.2493 
L 296.108163 289.224142 
L 296.519961 289.133112 
L 296.757536 289.162163 
L 296.947596 289.118197 
L 297.153495 289.090891 
L 297.438585 289.129094 
L 297.691999 289.120331 
L 298.024604 289.148279 
L 298.309694 289.168009 
L 298.721492 289.101816 
L 299.069935 289.0995 
L 300.162782 289.116006 
L 300.416195 288.971913 
L 301.635748 287.125604 
L 302.77611 286.803651 
L 303.979825 286.914299 
L 304.470813 287.120497 
L 305.294408 287.260265 
L 305.627013 287.320737 
L 305.912104 287.409213 
L 306.561476 287.60224 
L 307.495939 287.869399 
L 308.050281 287.835102 
L 308.367048 287.944606 
L 308.73133 288.027124 
L 309.50741 288.053565 
L 310.156782 288.052993 
L 311.217952 288.265582 
L 311.61391 288.330003 
L 312.96017 288.417893 
L 313.720411 288.528806 
L 314.068855 288.520811 
L 315.446792 288.540778 
L 315.700205 288.529476 
L 316.032811 288.502225 
L 316.270386 288.532559 
L 316.571315 288.521034 
L 317.252364 288.526504 
L 317.600808 288.553573 
L 319.089613 288.496672 
L 319.184643 287.876948 
L 319.327188 284.467869 
L 319.69147 275.841035 
L 320.182459 270.629083 
L 321.053568 263.543196 
L 321.908839 258.266781 
L 323.207584 251.820445 
L 324.648874 246.298562 
L 325.725882 243.012703 
L 326.739537 240.437884 
L 329.875531 233.799834 
L 330.509065 232.823602 
L 331.095084 231.931311 
L 331.427689 231.462384 
L 332.029546 230.737454 
L 334.215239 228.236251 
L 335.941619 226.48829 
L 336.432608 226.09217 
L 339.172643 224.366011 
L 339.600279 224.15495 
L 340.059591 223.984569 
L 340.328843 223.921097 
L 340.74064 223.53817 
L 340.9307 223.421676 
L 341.390013 223.092 
L 342.435344 222.419219 
L 342.847141 222.105652 
L 343.163908 221.969505 
L 343.639059 221.762756 
L 343.971664 221.644176 
L 344.557683 221.333804 
L 346.046488 220.716668 
L 347.313556 220.544055 
L 347.630323 220.452816 
L 348.105474 220.351391 
L 348.453918 220.313662 
L 348.865715 220.34244 
L 349.720986 220.111552 
L 350.560419 220.17949 
L 351.067246 220.127626 
L 351.352336 220.156997 
L 351.669103 220.218307 
L 352.714435 220.140491 
L 355.470308 220.552734 
L 355.771237 220.650238 
L 359.746663 220.624243 
L 360.269329 220.698543 
L 360.491066 220.606027 
L 360.760318 220.570601 
L 361.02957 220.583054 
L 361.282983 220.575631 
L 361.536397 220.637484 
L 361.979871 220.556696 
L 362.423345 220.650851 
L 365.432631 221.53124 
L 365.73356 221.612077 
L 365.986974 221.555797 
L 366.192872 221.558393 
L 366.79473 221.740961 
L 367.301557 221.729324 
L 369.835693 222.132393 
L 370.184137 222.200365 
L 374.143725 223.180965 
L 374.618876 223.351673 
L 374.919805 223.457284 
L 376.123519 223.560062 
L 376.440286 223.55319 
L 376.662023 223.642727 
L 376.962952 223.76333 
L 377.200527 223.821898 
L 377.438103 223.862717 
L 377.865738 223.897579 
L 378.277535 223.863436 
L 378.451757 223.966514 
L 378.768524 224.17348 
L 379.085291 224.138981 
L 384.739583 225.272045 
L 385.689884 225.37963 
L 386.165035 225.477559 
L 386.450125 225.488896 
L 386.925276 225.573612 
L 387.242043 225.600193 
L 387.590486 225.611899 
L 387.986445 225.618576 
L 388.762524 225.655063 
L 389.934562 225.770148 
L 390.853187 225.799512 
L 391.233307 225.829644 
L 393.070556 226.221606 
L 393.79912 226.177186 
L 394.195079 226.2575 
L 395.715561 226.436106 
L 396.000651 226.454524 
L 396.49164 226.653355 
L 397.36275 226.647613 
L 397.774547 226.707932 
L 398.487273 226.762105 
L 398.487273 226.762105 
" clip-path="url(#p64670dfe5c)" style="fill: none; stroke: #1f77b4; stroke-width: 1.5; stroke-linecap: square"/>
   </g>
   <g id="line2d_13">
    <path d="M 73.832727 232.616901 
L 74.307878 232.40997 
L 74.893897 232.054635 
L 76.176803 231.763812 
L 76.873691 231.824989 
L 77.301326 231.943457 
L 77.760639 231.961094 
L 78.140759 232.063677 
L 79.265282 232.10059 
L 79.946331 232.190712 
L 80.231422 232.134907 
L 80.421482 232.170118 
L 80.801602 232.278247 
L 81.371783 232.407166 
L 81.59352 232.52742 
L 81.720227 233.089896 
L 82.163701 235.279401 
L 82.65469 236.36845 
L 83.446607 237.907597 
L 84.080141 238.974105 
L 84.333555 239.427077 
L 84.887897 240.225589 
L 85.980743 241.566246 
L 86.20248 241.850644 
L 86.661793 242.342587 
L 87.279488 243.05083 
L 87.913022 243.79842 
L 89.243444 245.108409 
L 90.890633 246.442069 
L 92.537821 247.165806 
L 93.012972 247.382951 
L 93.488122 247.540509 
L 93.80489 247.622204 
L 94.105818 247.797928 
L 94.390909 247.915022 
L 94.771029 248.032751 
L 97.875346 249.028887 
L 98.287143 249.131484 
L 98.889001 249.357872 
L 99.126576 249.368979 
L 99.490858 249.344965 
L 99.997685 249.440935 
L 101.724066 249.90885 
L 101.993318 249.868637 
L 103.672183 250.254662 
L 104.147334 250.333664 
L 104.654161 250.370138 
L 105.224342 250.437698 
L 105.509432 250.464879 
L 105.968744 250.419294 
L 106.39638 250.491139 
L 106.68147 250.457372 
L 107.124944 250.510477 
L 110.894472 251.013834 
L 111.638874 251.112663 
L 112.240732 251.276807 
L 112.525822 251.171336 
L 112.715882 251.204362 
L 112.969296 251.230734 
L 113.539476 250.999309 
L 114.268041 251.089375 
L 114.664 251.076287 
L 115.154988 251.183349 
L 116.39038 251.126365 
L 116.722985 251.250784 
L 117.071429 251.209511 
L 117.609933 251.167847 
L 118.417689 251.084715 
L 120.587543 251.16415 
L 120.856795 251.256631 
L 121.236916 251.198098 
L 121.474491 251.201237 
L 122.393115 251.385138 
L 122.773236 251.407003 
L 123.897759 251.503976 
L 124.262041 251.460624 
L 125.434079 251.624349 
L 125.782523 251.624572 
L 126.162643 251.540854 
L 126.416057 251.589313 
L 126.827854 251.584611 
L 127.366358 251.65573 
L 129.773788 251.819859 
L 130.074716 251.836882 
L 131.357623 251.709351 
L 132.545499 251.668427 
L 133.068165 251.581792 
L 133.511639 251.524404 
L 133.780891 251.536766 
L 134.113496 251.499637 
L 134.382748 251.524892 
L 134.810384 251.545194 
L 139.546051 251.393789 
L 139.815303 251.355 
L 140.607221 251.495995 
L 140.923988 251.466387 
L 141.28827 251.433541 
L 142.143541 251.359074 
L 144.535132 251.473084 
L 147.496904 251.26097 
L 148.20963 251.219864 
L 148.415528 251.263858 
L 148.700619 251.330917 
L 149.524213 251.36739 
L 149.809303 251.356604 
L 150.553706 251.320326 
L 150.949665 251.24138 
L 151.630714 251.32927 
L 152.216733 251.227957 
L 152.549338 251.272258 
L 152.961135 251.186796 
L 153.467963 251.192907 
L 156.461411 251.172843 
L 157.221652 251.139913 
L 157.459227 251.141127 
L 157.871025 251.240473 
L 158.536235 251.208576 
L 158.710457 251.171838 
L 158.963871 251.048716 
L 159.423183 251.188637 
L 159.83498 251.190465 
L 160.120071 251.115147 
L 160.911988 251.065739 
L 161.244594 251.079622 
L 161.672229 250.946985 
L 162.068188 250.923711 
L 162.33744 250.960952 
L 162.670045 250.921339 
L 163.129358 251.077069 
L 164.143012 250.833993 
L 164.824061 250.821742 
L 166.724664 250.470181 
L 167.326521 250.502817 
L 167.595773 250.468242 
L 168.213469 250.512124 
L 168.625266 250.439568 
L 168.878679 250.492073 
L 170.763443 250.572052 
L 171.032695 250.577606 
L 172.790752 250.488515 
L 173.107519 250.479837 
L 173.661862 250.522979 
L 173.946952 250.533081 
L 174.279558 250.504519 
L 174.659678 250.511189 
L 174.881415 250.48652 
L 175.293212 250.567085 
L 175.546626 250.476418 
L 175.974261 250.241323 
L 176.291028 250.242774 
L 176.576119 250.219487 
L 177.779833 250.176637 
L 178.191631 250.13228 
L 178.460883 250.133271 
L 178.714296 250.151745 
L 179.078578 250.15307 
L 179.490375 250.217059 
L 180.155586 250.252639 
L 180.393162 250.212412 
L 180.646575 250.235784 
L 181.026696 250.29814 
L 182.182895 250.359924 
L 182.721399 250.384802 
L 183.750892 250.510101 
L 184.178528 250.500361 
L 184.73287 250.451317 
L 185.033799 250.427164 
L 185.318889 250.448554 
L 185.904908 250.386365 
L 186.36422 250.416741 
L 187.948056 250.365101 
L 188.407368 250.402076 
L 188.77165 250.383881 
L 189.135932 250.443726 
L 189.611083 250.490301 
L 190.133748 250.491836 
L 191.46417 250.376779 
L 192.256087 250.184116 
L 192.826268 250.227872 
L 193.19055 250.225221 
L 193.538994 250.249653 
L 194.679355 250.311005 
L 194.996122 250.25176 
L 195.518788 250.253518 
L 195.803878 250.324595 
L 196.595796 250.331544 
L 196.880886 250.28935 
L 197.989571 250.315609 
L 198.242985 250.282708 
L 198.702297 250.205366 
L 199.700113 250.175521 
L 200.191102 250.222668 
L 200.555384 250.188692 
L 201.252272 250.077891 
L 201.74326 250.058929 
L 202.265926 250.196046 
L 202.693562 250.257355 
L 202.99449 250.252541 
L 203.327096 250.304503 
L 204.05566 250.30174 
L 204.610002 250.257383 
L 205.196021 250.249848 
L 205.528627 250.1656 
L 205.734525 250.164986 
L 206.209676 250.230314 
L 207.049108 250.229617 
L 207.904379 250.142382 
L 208.442883 250.210557 
L 208.886357 250.192404 
L 209.250639 250.058273 
L 209.4407 249.956332 
L 209.773305 249.823625 
L 210.200941 249.772124 
L 211.404655 249.55168 
L 211.958998 249.489952 
L 212.291603 249.504044 
L 213.590348 249.641858 
L 215.855232 249.694782 
L 216.092808 249.672611 
L 216.536281 249.591446 
L 216.995594 249.593288 
L 217.739996 249.578512 
L 218.151793 249.492338 
L 220.733445 249.615027 
L 220.923505 249.633891 
L 221.224434 249.583074 
L 221.889645 249.699415 
L 222.570694 249.690568 
L 223.140874 249.75785 
L 223.330935 249.699387 
L 223.536833 249.68482 
L 223.980307 249.682852 
L 224.170367 249.726986 
L 224.407943 249.711247 
L 225.231537 249.658072 
L 225.880909 249.692913 
L 226.387737 249.733139 
L 227.369714 249.635356 
L 228.399207 249.576907 
L 229.04858 249.730293 
L 229.33367 249.680746 
L 230.093911 249.641091 
L 230.410678 249.614734 
L 230.885829 249.60279 
L 232.453826 249.518848 
L 234.956285 249.489561 
L 235.304729 249.498226 
L 237.50626 249.467557 
L 237.902219 249.385611 
L 238.85252 249.339663 
L 239.406862 249.241811 
L 239.961205 249.329059 
L 241.814292 249.466245 
L 242.083544 249.472831 
L 242.8913 249.497402 
L 243.778247 249.59033 
L 244.52265 249.482794 
L 245.282891 249.464515 
L 245.726365 249.483798 
L 249.099934 249.474171 
L 249.876013 249.433163 
L 250.47787 249.377755 
L 250.937183 249.375104 
L 251.681585 249.161594 
L 254.389943 249.038724 
L 255.625335 249.248885 
L 256.306384 249.130605 
L 257.050787 249.126265 
L 258.206986 249.027255 
L 258.793005 249.043942 
L 259.458216 249.022036 
L 260.123427 248.955829 
L 260.566901 248.966336 
L 261.849807 249.190366 
L 262.150736 249.203007 
L 263.465319 249.038096 
L 264.003823 249.089053 
L 264.542327 249.08435 
L 268.07428 249.045812 
L 268.375209 249.053877 
L 268.628622 249.092457 
L 268.882036 249.105754 
L 270.386679 249.144279 
L 270.703446 249.102392 
L 270.988537 249.104066 
L 271.463687 249.108043 
L 274.599681 248.962178 
L 275.740042 249.026585 
L 276.421092 248.956652 
L 277.4981 248.906296 
L 277.941573 248.897491 
L 279.002743 248.931885 
L 279.303672 248.920207 
L 280.095589 248.889566 
L 281.584394 248.916649 
L 283.73841 248.868581 
L 284.055177 248.799304 
L 289.060097 248.866125 
L 289.915368 248.885952 
L 291.451688 248.886496 
L 291.689263 248.886622 
L 292.19609 248.918323 
L 293.716572 248.924979 
L 294.001663 249.000967 
L 294.286753 249.039073 
L 294.69855 249.019413 
L 294.999479 249.098164 
L 295.66469 249.123586 
L 295.94978 249.151506 
L 296.203194 249.107708 
L 296.646667 249.112089 
L 298.483916 248.971945 
L 299.006582 249.02138 
L 299.89353 248.982758 
L 300.241973 248.919244 
L 300.732962 248.946606 
L 301.097244 248.987949 
L 301.746617 248.957057 
L 301.984192 248.934955 
L 302.300959 248.947652 
L 305.072671 248.694474 
L 305.484468 248.636402 
L 305.722043 248.670043 
L 306.118002 248.735454 
L 306.941596 248.659243 
L 309.190642 248.694781 
L 309.60244 248.711441 
L 310.204297 248.714678 
L 311.154598 248.597173 
L 311.534719 248.58029 
L 312.199929 248.640762 
L 314.829096 248.6335 
L 315.731882 248.660973 
L 316.016972 248.634762 
L 317.078142 248.601212 
L 317.363232 248.540698 
L 317.790868 248.515171 
L 319.200481 248.13818 
L 319.358865 247.336857 
L 319.707308 245.801561 
L 320.277489 244.608024 
L 323.160069 240.497171 
L 324.332107 239.187691 
L 324.902288 238.673145 
L 325.45663 238.229347 
L 327.468101 236.935544 
L 329.337027 235.947089 
L 329.574602 235.894598 
L 331.491042 234.788519 
L 333.391645 234.186012 
L 333.803442 234.079125 
L 334.532006 233.964863 
L 335.213055 233.818579 
L 335.894104 233.707918 
L 336.400932 233.562457 
L 337.303718 233.251318 
L 338.032282 233.044778 
L 338.380726 233.026053 
L 339.01426 232.84668 
L 340.899024 232.663211 
L 341.722618 232.642903 
L 342.197769 232.511521 
L 345.365439 232.10172 
L 345.713883 232.13557 
L 345.903943 232.04888 
L 346.252387 231.900935 
L 346.664184 231.965615 
L 347.044304 231.957927 
L 347.487778 231.915802 
L 347.788707 231.930321 
L 349.182482 231.917505 
L 349.435896 231.836277 
L 350.116945 231.664445 
L 351.954194 231.530866 
L 352.85698 231.453231 
L 353.284615 231.383842 
L 353.633059 231.423434 
L 354.124048 231.481374 
L 356.278064 231.498271 
L 356.99079 231.388426 
L 357.592647 231.396191 
L 358.099474 231.36022 
L 358.606302 231.429197 
L 358.90723 231.384966 
L 360.475227 231.378917 
L 360.791994 231.395926 
L 361.156276 231.451333 
L 363.025202 231.441985 
L 363.579544 231.394719 
L 364.339785 231.316589 
L 364.593199 231.346867 
L 365.35344 231.447733 
L 366.224549 231.367957 
L 366.557154 231.38551 
L 367.190689 231.45404 
L 367.697516 231.507146 
L 368.109313 231.451257 
L 368.568625 231.326712 
L 369.138806 231.322428 
L 369.455573 231.291013 
L 370.976055 231.219992 
L 371.783811 231.267704 
L 372.306476 231.241647 
L 373.969503 231.343183 
L 374.650553 231.386131 
L 375.236572 231.357157 
L 375.72756 231.418551 
L 376.88376 231.293985 
L 377.548971 231.392214 
L 378.499272 231.528368 
L 378.816039 231.472702 
L 379.19616 231.505039 
L 380.621611 231.808378 
L 381.096762 231.901752 
L 381.556074 231.867071 
L 384.77126 231.790971 
L 389.459412 231.976254 
L 391.344176 231.647702 
L 391.708458 231.425618 
L 392.532052 231.149403 
L 393.814959 231.02811 
L 396.064005 230.892925 
L 396.554994 230.786645 
L 396.887599 230.876852 
L 398.218021 231.047469 
L 398.487273 231.209011 
L 398.487273 231.209011 
" clip-path="url(#p64670dfe5c)" style="fill: none; stroke: #ff7f0e; stroke-width: 1.5; stroke-linecap: square"/>
   </g>
   <g id="line2d_14">
    <path d="M 73.832727 232.962316 
L 74.149494 232.905994 
L 74.751352 232.783431 
L 75.05228 232.780745 
L 75.448239 232.877167 
L 77.823992 233.083003 
L 78.61591 232.955639 
L 79.677079 233.056499 
L 80.120553 233.111418 
L 80.754087 233.046655 
L 81.561843 232.986001 
L 81.87861 233.023653 
L 82.274569 233.067033 
L 83.383254 233.105383 
L 83.589152 233.085005 
L 84.000949 233.087314 
L 84.745352 233.111969 
L 86.740984 233.127757 
L 87.041913 233.093565 
L 87.279488 233.071415 
L 87.54874 233.022265 
L 87.802154 232.987348 
L 88.103083 233.024714 
L 89.449343 233.201673 
L 89.908655 233.137685 
L 90.304614 233.214043 
L 94.866059 233.50624 
L 95.927229 233.61716 
L 96.513248 233.533484 
L 96.87753 233.637176 
L 97.130944 233.647278 
L 97.447711 233.610553 
L 97.716963 233.607121 
L 98.176275 233.561034 
L 98.540557 233.602258 
L 99.269121 233.732203 
L 99.680918 233.740812 
L 100.251099 233.837095 
L 100.472836 233.812921 
L 100.694573 233.83496 
L 102.563498 234.030324 
L 102.943619 233.986149 
L 103.735536 234.020013 
L 104.685838 233.956101 
L 105.14515 233.955298 
L 105.52527 233.9157 
L 105.71533 233.938743 
L 106.095451 234.128002 
L 107.267489 234.069609 
L 107.600094 234.121375 
L 108.914678 234.152071 
L 109.310636 234.152608 
L 109.548212 234.15092 
L 109.975847 234.098003 
L 111.132047 234.104561 
L 111.702228 233.986442 
L 113.761213 234.029215 
L 114.743191 233.914639 
L 115.028282 233.27026 
L 115.978583 231.474216 
L 116.279511 231.167507 
L 116.643794 231.074455 
L 117.198136 230.928534 
L 119.114576 230.828379 
L 120.508352 231.306103 
L 121.189401 231.467386 
L 121.442814 231.522306 
L 121.743743 231.616335 
L 122.963296 232.100917 
L 123.771052 232.160323 
L 124.293718 232.376113 
L 128.918517 233.697062 
L 129.26696 233.65152 
L 129.488697 233.693009 
L 130.581544 233.888833 
L 131.373461 233.961487 
L 135.839877 234.640679 
L 136.473411 234.569742 
L 136.790178 234.586192 
L 137.993892 234.410335 
L 138.263144 234.457587 
L 138.754133 234.404552 
L 140.290454 234.368832 
L 140.718089 234.315943 
L 141.57336 234.389706 
L 142.048511 234.594927 
L 142.412793 234.613645 
L 143.20471 234.717609 
L 145.263696 234.638823 
L 146.055614 234.726051 
L 147.766156 234.719765 
L 148.067085 234.758757 
L 149.46086 234.658253 
L 149.761788 234.698877 
L 150.664574 234.646825 
L 151.725744 234.433232 
L 153.721376 234.587281 
L 154.529132 234.703998 
L 154.877576 234.726421 
L 155.669494 234.718656 
L 155.891231 234.707319 
L 156.619795 234.681331 
L 157.82351 234.564147 
L 158.330337 234.554184 
L 163.652023 234.666227 
L 164.047982 234.575595 
L 164.348911 234.582851 
L 164.649839 234.542896 
L 165.41008 234.604799 
L 165.837716 234.734011 
L 166.233675 234.630828 
L 166.708825 234.683285 
L 167.548258 234.764603 
L 176.908724 235.231939 
L 178.920195 235.150461 
L 180.709929 235.183829 
L 180.963342 235.1653 
L 181.961158 235.200336 
L 182.293764 235.113541 
L 182.563016 235.185427 
L 183.149035 235.181743 
L 184.099336 235.073237 
L 184.938769 234.981768 
L 185.176344 235.00484 
L 185.493111 235.051352 
L 186.094968 234.926193 
L 187.346198 234.957169 
L 188.375691 234.948525 
L 188.708297 234.927407 
L 189.009225 234.921205 
L 189.341831 234.949383 
L 190.482192 234.737729 
L 192.129381 234.852856 
L 193.634024 234.906415 
L 196.754179 234.87216 
L 197.387714 234.711477 
L 198.242985 234.687652 
L 198.829004 234.694789 
L 199.145771 234.689354 
L 200.428677 234.712684 
L 201.204756 234.760892 
L 201.74326 234.742125 
L 203.707216 234.727969 
L 204.214043 234.701772 
L 205.322728 234.762664 
L 205.560303 234.766556 
L 205.908747 234.756643 
L 206.510604 234.734367 
L 207.350037 234.753887 
L 207.904379 234.740694 
L 208.823004 234.263807 
L 210.153426 234.299925 
L 210.723606 234.26493 
L 211.214595 234.264937 
L 213.289419 234.631058 
L 214.002145 234.710751 
L 214.413942 234.79673 
L 214.92077 234.843661 
L 215.601819 234.855368 
L 216.013616 234.885632 
L 216.330383 234.948051 
L 218.975388 235.034964 
L 219.197125 235.014209 
L 219.608922 234.947702 
L 220.860152 234.997298 
L 222.016351 234.984936 
L 222.333118 234.990628 
L 222.665724 234.96672 
L 224.138691 234.764973 
L 224.582164 234.727544 
L 225.484951 234.82841 
L 225.960101 234.80986 
L 226.371898 234.727767 
L 226.64115 234.743694 
L 228.08244 234.943467 
L 230.236456 235.045024 
L 231.123404 235.145193 
L 231.551039 235.110415 
L 232.406311 235.249234 
L 233.245743 235.306832 
L 233.768409 235.331222 
L 234.306913 235.362854 
L 234.734548 235.434475 
L 235.114669 235.374016 
L 235.415597 235.305067 
L 236.128323 235.296409 
L 236.524282 235.310767 
L 237.759674 235.371009 
L 238.108117 235.396174 
L 238.345693 235.522177 
L 238.56743 235.573831 
L 239.992881 235.380072 
L 241.560878 235.444256 
L 242.511179 235.445805 
L 243.778247 235.287549 
L 244.253398 235.166597 
L 244.601842 235.242948 
L 244.791902 235.244337 
L 245.140346 235.195082 
L 246.407414 235.165 
L 247.547775 235.247023 
L 248.925712 235.159663 
L 249.828498 235.091711 
L 250.588739 234.855409 
L 251.507363 234.998282 
L 252.425988 234.947841 
L 252.853623 234.922384 
L 253.978146 234.998924 
L 254.342428 235.037839 
L 258.016926 235.031671 
L 258.397047 235.026488 
L 259.489893 235.00147 
L 259.822498 234.99067 
L 260.471871 235.167665 
L 261.026213 235.264004 
L 261.469687 235.103941 
L 261.865646 235.110967 
L 262.356635 235.047438 
L 262.8793 235.06677 
L 263.322774 235.048638 
L 264.241399 235.037985 
L 264.954124 234.932081 
L 265.334245 234.953758 
L 267.915896 235.130501 
L 268.406885 235.103146 
L 269.737307 235.044801 
L 271.083567 235.040525 
L 271.321142 235.040343 
L 272.128898 234.926982 
L 273.047523 234.898894 
L 273.712733 234.99007 
L 273.981985 235.052943 
L 274.282914 235.098548 
L 274.615519 235.024827 
L 275.027317 234.987552 
L 275.391599 235.016072 
L 275.740042 234.966566 
L 276.690344 234.955027 
L 278.385047 234.980164 
L 279.367025 234.980087 
L 280.697447 235.087246 
L 281.061729 235.087065 
L 281.489364 235.142054 
L 282.946493 235.047403 
L 283.326613 234.982201 
L 283.659219 234.918205 
L 283.991824 234.923577 
L 285.813234 234.934042 
L 287.77719 234.951958 
L 288.109796 234.940558 
L 289.519409 235.014321 
L 289.931206 234.93933 
L 291.594233 234.908278 
L 292.037707 234.91508 
L 292.322797 234.929877 
L 292.560373 234.902571 
L 292.829625 234.848293 
L 293.193907 234.86106 
L 295.094509 234.87493 
L 295.522144 234.796102 
L 296.04481 234.752199 
L 297.280202 234.727272 
L 298.040442 234.816278 
L 299.386702 234.897136 
L 300.542902 234.994898 
L 302.997847 235.027792 
L 303.631381 234.979033 
L 304.280753 235.085377 
L 305.056833 235.153628 
L 308.44624 235.147014 
L 308.763007 235.142793 
L 309.998398 235.098423 
L 310.505226 235.098499 
L 310.837831 235.102295 
L 311.122921 235.13034 
L 311.42385 235.12704 
L 312.453343 235.0775 
L 313.783765 235.223623 
L 314.11637 235.192069 
L 315.034994 235.213738 
L 316.302063 235.112976 
L 316.555476 235.10992 
L 318.075958 235.155037 
L 318.709492 235.097279 
L 318.994583 235.131366 
L 319.247996 235.187932 
L 319.564763 235.291317 
L 319.802338 235.356533 
L 320.214136 235.428677 
L 320.420034 235.423654 
L 320.689286 235.348789 
L 321.164437 235.457483 
L 321.655426 235.385025 
L 321.845486 235.485759 
L 322.051385 235.527221 
L 322.716595 235.372872 
L 323.476836 235.438835 
L 323.714412 235.445623 
L 324.300431 235.588342 
L 325.028995 235.524451 
L 327.183011 235.683969 
L 327.674 235.702032 
L 328.735169 235.591956 
L 329.463733 235.606244 
L 330.018076 235.634792 
L 330.366519 235.646247 
L 330.873347 235.787815 
L 331.554396 235.767743 
L 331.855325 235.746521 
L 332.235445 235.766404 
L 332.504697 235.784355 
L 333.613382 235.913239 
L 334.167724 235.866329 
L 335.814913 235.716668 
L 338.158989 235.874254 
L 338.507433 235.831258 
L 338.950906 235.907992 
L 339.457734 236.032593 
L 339.742824 236.04903 
L 340.012076 236.073057 
L 340.313005 236.03477 
L 340.613933 236.115418 
L 341.152437 236.092075 
L 341.738456 235.954226 
L 342.720434 235.921394 
L 343.021363 235.924345 
L 344.826935 235.984106 
L 345.175379 235.899104 
L 345.698045 235.92828 
L 346.759214 235.969986 
L 347.931252 235.990343 
L 348.152989 235.981092 
L 348.786523 235.863106 
L 349.451734 235.801391 
L 349.926885 235.78418 
L 353.506352 235.775299 
L 354.250755 235.802724 
L 356.769053 235.708317 
L 357.069981 235.712971 
L 358.210343 235.642536 
L 358.511272 235.68489 
L 358.796362 235.677125 
L 358.986422 235.766355 
L 359.271512 235.84595 
L 360.665287 235.790033 
L 361.140438 235.770597 
L 361.473043 235.723512 
L 361.837326 235.635266 
L 363.421161 235.747484 
L 363.927988 235.741763 
L 369.059614 235.558462 
L 369.360543 235.582531 
L 369.724825 235.568752 
L 370.421712 235.626155 
L 370.675126 235.567971 
L 370.881025 235.597181 
L 371.150277 235.590665 
L 371.641266 235.578212 
L 372.338153 235.803624 
L 372.94001 235.839985 
L 373.462676 235.871512 
L 374.017018 235.841381 
L 374.777259 235.841667 
L 375.078188 235.800177 
L 376.012651 235.544843 
L 377.374749 235.492436 
L 378.483434 235.371644 
L 379.053614 235.347575 
L 379.29119 235.350896 
L 379.972239 235.39069 
L 380.352359 235.416866 
L 380.779995 235.396181 
L 381.096762 235.345713 
L 381.476882 235.329422 
L 382.633082 235.289614 
L 383.155748 235.434803 
L 383.551707 235.434907 
L 383.868474 235.433917 
L 384.137726 235.343062 
L 384.359462 235.344645 
L 384.692068 235.361424 
L 384.96132 235.314576 
L 385.43647 235.499433 
L 385.800753 235.485459 
L 386.165035 235.490692 
L 386.386772 235.487671 
L 386.766892 235.471283 
L 387.162851 235.564259 
L 387.352911 235.492366 
L 387.685516 235.414885 
L 388.271535 235.466937 
L 389.522765 235.313544 
L 389.728664 235.345727 
L 390.108784 235.457344 
L 390.63145 235.405404 
L 391.312499 235.468409 
L 391.565913 235.524277 
L 392.056902 235.640778 
L 392.294477 235.5925 
L 394.195079 235.750783 
L 394.464331 235.770506 
L 395.937298 235.878279 
L 396.238227 235.895742 
L 396.760892 236.030828 
L 397.109336 235.981155 
L 397.346911 235.92565 
L 398.487273 235.830281 
L 398.487273 235.830281 
" clip-path="url(#p64670dfe5c)" style="fill: none; stroke: #2ca02c; stroke-width: 1.5; stroke-linecap: square"/>
   </g>
   <g id="line2d_15">
    <path d="M 73.832727 237.606727 
L 74.181171 237.653177 
L 74.95725 237.702571 
L 76.145127 237.721428 
L 76.572762 237.683029 
L 77.333003 237.578675 
L 81.355945 237.766197 
L 81.49849 237.701894 
L 81.59352 237.274931 
L 81.720227 235.185015 
L 82.132024 227.501567 
L 82.686366 222.610948 
L 84.032626 212.898427 
L 85.44224 204.470702 
L 87.897184 190.324468 
L 88.071406 187.471391 
L 88.166436 180.858644 
L 88.277305 153.13591 
L 88.546557 55.294131 
L 88.594072 59.869071 
L 88.784132 114.642272 
L 89.132576 193.343105 
L 89.370151 205.897122 
L 89.560211 207.39658 
L 89.639403 207.274456 
L 89.845301 206.212643 
L 90.415482 201.761488 
L 91.30243 195.740009 
L 91.840934 192.751531 
L 92.236893 191.115969 
L 94.945251 183.796329 
L 95.198665 183.603184 
L 95.357048 183.463988 
L 95.895552 182.439964 
L 96.465733 180.588963 
L 96.814176 180.218747 
L 97.146782 179.96583 
L 97.305165 179.846187 
L 97.748639 179.054313 
L 98.239628 178.172871 
L 98.429688 178.150016 
L 98.762294 177.562094 
L 99.364151 176.178363 
L 99.506696 174.644002 
L 99.601726 170.132661 
L 99.712595 151.036428 
L 100.029362 59.774288 
L 100.108554 65.914333 
L 100.409482 128.407246 
L 100.789603 183.783642 
L 101.074693 197.196309 
L 101.343945 200.969171 
L 101.565682 201.773481 
L 101.787419 201.867859 
L 101.929964 201.626478 
L 103.339578 198.614943 
L 103.672183 198.282177 
L 104.812544 196.655915 
L 105.414402 195.839912 
L 105.889552 195.288767 
L 106.428056 194.879852 
L 106.728985 194.644067 
L 107.093267 194.533307 
L 107.647609 194.385984 
L 108.186113 193.817348 
L 108.645426 193.266126 
L 108.914678 193.24392 
L 109.991686 191.920383 
L 110.355968 191.682428 
L 110.546028 191.391555 
L 110.989502 190.647851 
L 111.607198 190.599155 
L 112.06651 190.289041 
L 112.652529 189.644438 
L 113.586992 188.74859 
L 113.824567 188.547875 
L 114.236364 188.277054 
L 114.632323 188.049284 
L 114.94909 187.817932 
L 115.313372 187.895864 
L 115.550947 187.976976 
L 115.788523 187.73586 
L 116.548763 186.160206 
L 116.833854 185.360511 
L 117.435711 184.399373 
L 117.720801 183.839922 
L 118.005892 183.414058 
L 118.702779 182.720445 
L 118.98787 182.586691 
L 119.225445 182.124887 
L 120.318291 180.030653 
L 120.650897 179.828121 
L 121.015179 178.966164 
L 121.363623 177.137607 
L 121.458653 174.666742 
L 121.553683 164.891094 
L 121.696228 119.872193 
L 121.933803 55.008708 
L 121.949642 55.600254 
L 122.044672 68.300151 
L 122.773236 190.171487 
L 123.042488 199.007805 
L 123.295902 201.510026 
L 123.549315 202.070464 
L 123.771052 202.216218 
L 124.087819 201.909635 
L 124.721353 201.310302 
L 124.958928 201.125864 
L 125.735008 200.327771 
L 126.115128 199.862457 
L 126.511087 199.537889 
L 126.701147 199.427101 
L 127.192136 199.103251 
L 127.889024 198.47662 
L 128.665103 197.768286 
L 128.966032 197.487753 
L 129.552051 196.863829 
L 130.04304 196.288677 
L 130.771604 195.464052 
L 131.230916 194.981144 
L 131.500168 194.852581 
L 132.038672 194.180239 
L 132.371277 193.574265 
L 132.656368 193.146486 
L 133.21071 192.487986 
L 133.685861 191.922141 
L 134.55697 190.973396 
L 134.889575 190.549049 
L 135.475594 190.0514 
L 135.744846 189.75066 
L 136.901046 187.527695 
L 137.15446 187.368895 
L 137.407873 187.063097 
L 137.930539 185.941858 
L 138.564073 185.207917 
L 138.849163 184.605358 
L 139.577728 182.990607 
L 140.005363 183.074409 
L 140.179585 182.837141 
L 140.496352 182.027003 
L 141.272431 178.453083 
L 141.367461 174.302547 
L 141.47833 155.263622 
L 141.795097 54.04045 
L 141.890127 62.814078 
L 142.72956 195.963536 
L 142.998812 201.59018 
L 143.236387 202.986454 
L 143.458124 203.241788 
L 143.679861 203.252818 
L 143.901598 202.895871 
L 144.851899 201.357178 
L 145.532948 200.615231 
L 145.881392 200.446358 
L 146.990077 199.714604 
L 147.33852 199.117197 
L 148.336336 197.69301 
L 149.302476 196.848341 
L 150.157747 195.790135 
L 150.363646 195.621359 
L 150.933826 194.835719 
L 151.488169 194.199676 
L 152.327601 193.095871 
L 152.581015 192.834266 
L 153.848083 191.121403 
L 154.038143 191.167511 
L 154.212365 191.142821 
L 154.434102 190.817673 
L 155.891231 187.946796 
L 156.445573 187.273892 
L 156.746502 186.938011 
L 157.189975 186.703715 
L 157.411712 186.629876 
L 157.570096 186.516954 
L 158.599589 185.286825 
L 158.900517 185.019732 
L 159.328153 184.342797 
L 159.54989 184.16349 
L 159.819142 183.677181 
L 160.199262 182.758289 
L 160.484353 182.573795 
L 160.690251 182.142795 
L 161.27627 179.928461 
L 161.3713 178.489148 
L 161.466331 172.383905 
L 161.593037 142.33432 
L 161.878128 53.893078 
L 161.925643 56.665653 
L 162.084026 87.47837 
L 162.590854 182.197292 
L 162.860106 196.979842 
L 163.145196 202.159422 
L 163.430286 203.771299 
L 163.6837 204.185523 
L 163.826245 204.135787 
L 164.428102 203.323957 
L 164.808223 202.704833 
L 166.18616 200.947718 
L 166.392058 200.695712 
L 166.740502 200.230448 
L 167.500743 199.519191 
L 168.00757 198.826772 
L 170.589221 196.363898 
L 170.953504 195.981794 
L 171.507846 195.699112 
L 171.713744 195.352198 
L 172.188895 194.449805 
L 173.598508 192.756673 
L 174.628001 191.112194 
L 175.11899 190.422139 
L 175.974261 189.044824 
L 176.671149 188.176107 
L 176.845371 188.03291 
L 177.383875 186.976155 
L 177.81151 185.987962 
L 178.159954 185.363078 
L 178.413368 184.641601 
L 178.87268 182.784269 
L 179.34783 180.003835 
L 179.44286 176.087393 
L 179.553729 157.723185 
L 179.886334 53.568 
L 179.981364 64.334436 
L 180.757444 193.837001 
L 181.026696 201.403641 
L 181.280109 203.454942 
L 181.517685 203.884242 
L 181.723583 203.869173 
L 181.929482 203.702357 
L 182.357117 203.27584 
L 182.531339 203.119789 
L 183.069843 202.49509 
L 183.323257 202.286827 
L 184.25772 200.969792 
L 184.574487 200.595634 
L 185.160506 199.958692 
L 185.730686 199.260948 
L 186.332544 198.307934 
L 186.712664 198.032522 
L 187.156138 197.688252 
L 187.536258 197.112235 
L 188.739973 195.798004 
L 189.325992 194.919744 
L 189.611083 194.475981 
L 190.165425 193.746481 
L 190.450515 193.633391 
L 190.814797 193.1369 
L 191.765099 191.7471 
L 192.778753 190.774231 
L 193.09552 190.761554 
L 193.317257 190.677313 
L 194.600164 189.050911 
L 195.075314 188.329095 
L 195.233698 188.29941 
L 195.423758 188.290023 
L 195.930585 187.767262 
L 196.294867 187.072037 
L 196.94424 185.80268 
L 197.276845 185.406357 
L 198.163793 184.256267 
L 198.433045 183.912467 
L 198.86068 183.323345 
L 199.050741 183.197813 
L 199.304154 182.513563 
L 200.127749 180.257425 
L 200.238617 179.2809 
L 200.333647 175.787301 
L 200.444516 159.375012 
L 200.777121 53.910066 
L 200.887989 64.989413 
L 201.64823 190.815915 
L 201.933321 199.68997 
L 202.186734 202.211362 
L 202.42431 202.758782 
L 202.677723 202.917477 
L 203.137035 202.482289 
L 203.564671 202.215988 
L 203.944791 201.894105 
L 204.895093 200.917154 
L 205.449435 200.586628 
L 205.655333 200.425874 
L 206.051292 200.003781 
L 206.320544 199.777783 
L 208.680459 197.097996 
L 208.870519 196.869878 
L 209.234801 196.443765 
L 210.137587 195.753508 
L 210.644414 195.108689 
L 211.182918 194.358517 
L 212.481663 192.659532 
L 212.766754 192.251844 
L 213.431964 191.089807 
L 213.938792 190.333105 
L 214.604003 189.599799 
L 215.20586 189.167548 
L 215.791879 188.603862 
L 216.187838 188.412733 
L 216.789695 187.9186 
L 217.518259 187.247832 
L 218.056763 186.826017 
L 218.706136 185.688317 
L 218.927873 185.417303 
L 219.14961 185.299327 
L 219.307993 185.142394 
L 219.735629 184.211394 
L 220.289971 183.110642 
L 220.49587 182.612996 
L 221.604554 177.919117 
L 221.731261 176.338813 
L 221.826291 171.18837 
L 221.93716 149.480625 
L 222.238088 53.921563 
L 222.31728 59.276778 
L 222.570694 113.202967 
L 222.982491 180.893042 
L 223.267581 196.250062 
L 223.56851 201.874919 
L 223.821924 203.244278 
L 223.964469 203.416292 
L 223.980307 203.407243 
L 224.376266 203.233318 
L 224.598003 203.175099 
L 224.851416 203.05287 
L 225.152345 202.99011 
L 225.849233 202.499793 
L 228.161632 200.401003 
L 230.664092 197.191767 
L 231.566878 196.088807 
L 232.12122 195.472752 
L 232.406311 195.050023 
L 233.800086 193.266796 
L 234.148529 192.934448 
L 234.90877 191.671712 
L 235.193861 191.247148 
L 235.605658 190.519009 
L 236.841049 189.13562 
L 237.015271 189.032493 
L 238.092279 187.657008 
L 238.393208 187.080775 
L 238.995065 186.094473 
L 239.359347 185.024072 
L 239.739468 183.776495 
L 240.863991 181.127753 
L 241.275788 179.493555 
L 241.370818 177.018026 
L 241.465848 167.174995 
L 241.608393 121.697528 
L 241.845968 54.078654 
L 241.861807 54.594212 
L 241.956837 67.217729 
L 242.669563 187.621508 
L 242.954653 198.445825 
L 243.239743 202.256584 
L 243.445642 202.834673 
L 243.699056 202.897008 
L 245.013639 202.136965 
L 245.615496 201.44331 
L 245.948102 201.185499 
L 246.359899 200.819009 
L 247.531937 199.943266 
L 247.817027 199.761277 
L 249.242479 198.173615 
L 249.701791 197.77753 
L 250.081912 197.458836 
L 250.319487 197.380461 
L 250.604577 196.951803 
L 251.016374 196.422808 
L 251.317303 196.055885 
L 251.887484 195.344928 
L 252.568533 194.644562 
L 252.806108 194.44848 
L 253.993985 192.85186 
L 254.32659 192.603496 
L 254.51665 192.396014 
L 254.833417 192.134932 
L 255.039316 192.059488 
L 256.543959 190.147181 
L 257.20917 189.363187 
L 258.096118 188.798657 
L 258.761329 188.603688 
L 259.014742 188.14969 
L 259.505731 187.272996 
L 260.09175 186.751361 
L 260.408517 185.985573 
L 260.836153 185.027351 
L 261.121243 184.870954 
L 261.327142 184.63355 
L 261.865646 183.902941 
L 262.039868 184.037703 
L 262.261605 184.127302 
L 262.49918 184.125869 
L 262.990169 184.281675 
L 264.083015 183.681904 
L 264.336429 183.679556 
L 264.605681 183.515967 
L 264.795741 183.521935 
L 265.603497 182.560679 
L 266.933919 179.13177 
L 267.171494 176.795007 
L 267.266524 172.446802 
L 267.377392 153.499509 
L 267.709998 54.387483 
L 267.78919 61.511826 
L 268.121795 132.195852 
L 268.486077 183.406028 
L 268.771167 196.609381 
L 269.056258 200.920015 
L 269.32551 202.128349 
L 269.626438 202.361588 
L 269.816499 202.30445 
L 270.054074 201.903621 
L 270.307488 201.549876 
L 270.560901 201.430375 
L 271.542879 200.174155 
L 272.176413 199.758989 
L 273.712733 198.532278 
L 274.187884 198.147328 
L 274.457136 197.969315 
L 274.99564 197.228087 
L 275.312407 196.863187 
L 276.326061 195.775094 
L 276.563637 195.62798 
L 278.385047 193.102464 
L 279.176965 191.754628 
L 280.079751 190.899969 
L 280.364841 190.675541 
L 280.681608 189.912086 
L 280.966699 189.596663 
L 282.075383 188.312802 
L 282.423827 187.689362 
L 282.629726 187.412959 
L 283.136553 186.67861 
L 283.437482 186.313972 
L 283.865117 185.802097 
L 284.071016 185.716921 
L 285.892426 183.401106 
L 286.24087 183.177424 
L 286.684344 182.483131 
L 287.111979 182.232702 
L 287.365393 182.130928 
L 287.713837 181.513422 
L 288.759168 179.175146 
L 288.996743 177.225759 
L 289.12345 175.128714 
L 289.21848 168.76062 
L 289.345187 139.01123 
L 289.630277 54.849294 
L 289.661954 56.141814 
L 289.788661 76.299 
L 290.37468 179.84874 
L 290.65977 194.321005 
L 290.944861 199.440964 
L 291.229951 201.166802 
L 291.610071 202.06323 
L 291.831808 202.1277 
L 292.291121 201.730024 
L 293.051361 201.000719 
L 293.985824 200.088797 
L 294.270915 199.85996 
L 294.571843 199.696765 
L 296.013133 198.35068 
L 297.834544 196.373212 
L 298.278018 195.830222 
L 298.578946 195.656814 
L 298.800683 195.310115 
L 299.101612 195.022703 
L 299.830176 194.373189 
L 300.432034 194.027223 
L 300.859669 193.852768 
L 301.350658 193.2972 
L 301.540718 193.186147 
L 302.205929 192.474089 
L 302.570211 192.311926 
L 302.823625 191.974256 
L 303.235422 191.472469 
L 303.900633 191.14751 
L 304.518329 190.600173 
L 304.819257 190.440885 
L 305.547821 190.170413 
L 305.75372 189.887574 
L 306.244709 189.068652 
L 306.767375 188.622999 
L 307.448424 188.388455 
L 307.765191 188.152038 
L 308.557108 187.394367 
L 309.095612 186.635638 
L 309.412379 186.101711 
L 309.744985 185.675117 
L 310.014237 185.235876 
L 310.568579 184.015392 
L 310.996215 183.752 
L 311.170436 183.768468 
L 311.867324 183.18746 
L 312.184091 183.121375 
L 313.071039 181.934089 
L 313.435321 181.722868 
L 313.657058 181.630481 
L 314.749904 179.705418 
L 314.924126 178.400162 
L 315.019156 175.972018 
L 315.114186 167.107679 
L 315.256731 124.795067 
L 315.510145 53.79083 
L 315.525983 54.314349 
L 315.621013 66.38363 
L 316.365416 187.625429 
L 316.650506 196.627953 
L 316.967273 200.294855 
L 317.236525 201.286464 
L 317.458262 201.476232 
L 318.044281 201.394293 
L 318.994583 200.681125 
L 319.089613 200.638421 
L 319.121289 200.686985 
L 319.200481 201.162149 
L 319.343026 203.913306 
L 319.675632 209.824243 
L 320.245812 214.29318 
L 321.386174 220.308695 
L 322.257283 223.755767 
L 323.255099 227.150251 
L 324.997318 231.797271 
L 326.026811 233.76839 
L 327.674 236.139739 
L 328.022443 236.629965 
L 328.355049 237.071167 
L 330.018076 238.714215 
L 331.015892 239.392438 
L 332.029546 240.250146 
L 333.138231 241.001008 
L 335.16554 241.775967 
L 335.545661 241.841756 
L 340.249651 243.659252 
L 341.025731 243.9134 
L 341.263306 243.915318 
L 342.292799 244.042689 
L 342.783788 244.296006 
L 344.082533 244.523023 
L 344.320108 244.544329 
L 344.763582 244.691589 
L 345.397116 244.939835 
L 346.394932 244.927668 
L 348.089636 245.172404 
L 348.564786 245.208019 
L 349.404219 245.3814 
L 349.895208 245.40736 
L 350.576257 245.579701 
L 351.716618 245.680225 
L 352.492698 245.773683 
L 353.284615 245.819707 
L 355.628691 246.03457 
L 355.977135 246.089531 
L 356.325579 246.05806 
L 357.481779 246.079973 
L 357.861899 246.128062 
L 358.24202 246.16268 
L 359.081452 246.242805 
L 359.810016 246.382085 
L 360.744479 246.261279 
L 361.061246 246.27503 
L 361.346337 246.307087 
L 361.821487 246.224157 
L 362.344153 246.243712 
L 364.244755 246.326691 
L 365.036673 246.519459 
L 365.400955 246.568009 
L 366.208711 246.579011 
L 366.557154 246.647597 
L 366.810568 246.641235 
L 367.063982 246.606317 
L 367.380749 246.679319 
L 369.534765 246.692833 
L 370.675126 246.819178 
L 371.02357 246.84534 
L 372.860819 246.982645 
L 373.209262 246.992356 
L 374.476331 246.965538 
L 375.394955 246.9408 
L 375.743399 246.898424 
L 378.404242 246.962608 
L 378.721009 246.957613 
L 379.639633 246.985296 
L 382.189608 246.917882 
L 385.420632 247.010383 
L 385.626531 247.082563 
L 385.864106 247.110315 
L 386.465963 246.947246 
L 386.861922 247.023702 
L 387.194528 246.92836 
L 388.334889 246.943925 
L 388.825878 246.989733 
L 389.221837 246.991338 
L 389.681149 246.925793 
L 391.328337 246.984263 
L 392.278639 247.031522 
L 393.308132 246.961129 
L 393.529868 246.93503 
L 393.830797 246.91177 
L 394.226756 246.893757 
L 394.654391 246.83994 
L 396.174873 246.853705 
L 397.45778 246.838196 
L 397.964607 246.8401 
L 398.487273 246.907068 
L 398.487273 246.907068 
" clip-path="url(#p64670dfe5c)" style="fill: none; stroke: #d62728; stroke-width: 1.5; stroke-linecap: square"/>
   </g>
   <g id="patch_3">
    <path d="M 57.6 307.584 
L 57.6 41.472 
" style="fill: none; stroke: #000000; stroke-width: 0.8; stroke-linejoin: miter; stroke-linecap: square"/>
   </g>
   <g id="patch_4">
    <path d="M 414.72 307.584 
L 414.72 41.472 
" style="fill: none; stroke: #000000; stroke-width: 0.8; stroke-linejoin: miter; stroke-linecap: square"/>
   </g>
   <g id="patch_5">
    <path d="M 57.6 307.584 
L 414.72 307.584 
" style="fill: none; stroke: #000000; stroke-width: 0.8; stroke-linejoin: miter; stroke-linecap: square"/>
   </g>
   <g id="patch_6">
    <path d="M 57.6 41.472 
L 414.72 41.472 
" style="fill: none; stroke: #000000; stroke-width: 0.8; stroke-linejoin: miter; stroke-linecap: square"/>
   </g>
  </g>
 </g>
 <defs>
  <clipPath id="p64670dfe5c">
   <rect x="57.6" y="41.472" width="357.12" height="266.112"/>
  </clipPath>
 </defs>
</svg>
