<?xml version="1.0" encoding="utf-8" standalone="no"?>
<!DOCTYPE svg PUBLIC "-//W3C//DTD SVG 1.1//EN"
  "http://www.w3.org/Graphics/SVG/1.1/DTD/svg11.dtd">
<svg xmlns:xlink="http://www.w3.org/1999/xlink" width="265.704687pt" height="197.398125pt" viewBox="0 0 265.704687 197.398125" xmlns="http://www.w3.org/2000/svg" version="1.1">
 <metadata>
  <rdf:RDF xmlns:dc="http://purl.org/dc/elements/1.1/" xmlns:cc="http://creativecommons.org/ns#" xmlns:rdf="http://www.w3.org/1999/02/22-rdf-syntax-ns#">
   <cc:Work>
    <dc:type rdf:resource="http://purl.org/dc/dcmitype/StillImage"/>
    <dc:date>2024-09-04T19:50:45.934359</dc:date>
    <dc:format>image/svg+xml</dc:format>
    <dc:creator>
     <cc:Agent>
      <dc:title>Matplotlib v3.9.2, https://matplotlib.org/</dc:title>
     </cc:Agent>
    </dc:creator>
   </cc:Work>
  </rdf:RDF>
 </metadata>
 <defs>
  <style type="text/css">*{stroke-linejoin: round; stroke-linecap: butt}</style>
 </defs>
 <g id="figure_1">
  <g id="patch_1">
   <path d="M 0 197.398125 
L 265.704687 197.398125 
L 265.704687 0 
L 0 0 
z
" style="fill: #ffffff"/>
  </g>
  <g id="axes_1">
   <g id="patch_2">
    <path d="M 35.304688 173.52 
L 258.504687 173.52 
L 258.504687 7.2 
L 35.304688 7.2 
z
" style="fill: #ffffff"/>
   </g>
   <g id="matplotlib.axis_1">
    <g id="xtick_1">
     <g id="line2d_1">
      <defs>
       <path id="mf0806e8b39" d="M 0 0 
L 0 3.5 
" style="stroke: #000000; stroke-width: 0.8"/>
      </defs>
      <g>
       <use xlink:href="#mf0806e8b39" x="75.147053" y="173.52" style="stroke: #000000; stroke-width: 0.8"/>
      </g>
     </g>
     <g id="text_1">
      <!-- 0.2 -->
      <g transform="translate(67.19549 188.118438) scale(0.1 -0.1)">
       <defs>
        <path id="DejaVuSans-30" d="M 2034 4250 
Q 1547 4250 1301 3770 
Q 1056 3291 1056 2328 
Q 1056 1369 1301 889 
Q 1547 409 2034 409 
Q 2525 409 2770 889 
Q 3016 1369 3016 2328 
Q 3016 3291 2770 3770 
Q 2525 4250 2034 4250 
z
M 2034 4750 
Q 2819 4750 3233 4129 
Q 3647 3509 3647 2328 
Q 3647 1150 3233 529 
Q 2819 -91 2034 -91 
Q 1250 -91 836 529 
Q 422 1150 422 2328 
Q 422 3509 836 4129 
Q 1250 4750 2034 4750 
z
" transform="scale(0.015625)"/>
        <path id="DejaVuSans-2e" d="M 684 794 
L 1344 794 
L 1344 0 
L 684 0 
L 684 794 
z
" transform="scale(0.015625)"/>
        <path id="DejaVuSans-32" d="M 1228 531 
L 3431 531 
L 3431 0 
L 469 0 
L 469 531 
Q 828 903 1448 1529 
Q 2069 2156 2228 2338 
Q 2531 2678 2651 2914 
Q 2772 3150 2772 3378 
Q 2772 3750 2511 3984 
Q 2250 4219 1831 4219 
Q 1534 4219 1204 4116 
Q 875 4013 500 3803 
L 500 4441 
Q 881 4594 1212 4672 
Q 1544 4750 1819 4750 
Q 2544 4750 2975 4387 
Q 3406 4025 3406 3419 
Q 3406 3131 3298 2873 
Q 3191 2616 2906 2266 
Q 2828 2175 2409 1742 
Q 1991 1309 1228 531 
z
" transform="scale(0.015625)"/>
       </defs>
       <use xlink:href="#DejaVuSans-30"/>
       <use xlink:href="#DejaVuSans-2e" x="63.623047"/>
       <use xlink:href="#DejaVuSans-32" x="95.410156"/>
      </g>
     </g>
    </g>
    <g id="xtick_2">
     <g id="line2d_2">
      <g>
       <use xlink:href="#mf0806e8b39" x="124.641904" y="173.52" style="stroke: #000000; stroke-width: 0.8"/>
      </g>
     </g>
     <g id="text_2">
      <!-- 0.4 -->
      <g transform="translate(116.690341 188.118438) scale(0.1 -0.1)">
       <defs>
        <path id="DejaVuSans-34" d="M 2419 4116 
L 825 1625 
L 2419 1625 
L 2419 4116 
z
M 2253 4666 
L 3047 4666 
L 3047 1625 
L 3713 1625 
L 3713 1100 
L 3047 1100 
L 3047 0 
L 2419 0 
L 2419 1100 
L 313 1100 
L 313 1709 
L 2253 4666 
z
" transform="scale(0.015625)"/>
       </defs>
       <use xlink:href="#DejaVuSans-30"/>
       <use xlink:href="#DejaVuSans-2e" x="63.623047"/>
       <use xlink:href="#DejaVuSans-34" x="95.410156"/>
      </g>
     </g>
    </g>
    <g id="xtick_3">
     <g id="line2d_3">
      <g>
       <use xlink:href="#mf0806e8b39" x="174.136754" y="173.52" style="stroke: #000000; stroke-width: 0.8"/>
      </g>
     </g>
     <g id="text_3">
      <!-- 0.6 -->
      <g transform="translate(166.185192 188.118438) scale(0.1 -0.1)">
       <defs>
        <path id="DejaVuSans-36" d="M 2113 2584 
Q 1688 2584 1439 2293 
Q 1191 2003 1191 1497 
Q 1191 994 1439 701 
Q 1688 409 2113 409 
Q 2538 409 2786 701 
Q 3034 994 3034 1497 
Q 3034 2003 2786 2293 
Q 2538 2584 2113 2584 
z
M 3366 4563 
L 3366 3988 
Q 3128 4100 2886 4159 
Q 2644 4219 2406 4219 
Q 1781 4219 1451 3797 
Q 1122 3375 1075 2522 
Q 1259 2794 1537 2939 
Q 1816 3084 2150 3084 
Q 2853 3084 3261 2657 
Q 3669 2231 3669 1497 
Q 3669 778 3244 343 
Q 2819 -91 2113 -91 
Q 1303 -91 875 529 
Q 447 1150 447 2328 
Q 447 3434 972 4092 
Q 1497 4750 2381 4750 
Q 2619 4750 2861 4703 
Q 3103 4656 3366 4563 
z
" transform="scale(0.015625)"/>
       </defs>
       <use xlink:href="#DejaVuSans-30"/>
       <use xlink:href="#DejaVuSans-2e" x="63.623047"/>
       <use xlink:href="#DejaVuSans-36" x="95.410156"/>
      </g>
     </g>
    </g>
    <g id="xtick_4">
     <g id="line2d_4">
      <g>
       <use xlink:href="#mf0806e8b39" x="223.631605" y="173.52" style="stroke: #000000; stroke-width: 0.8"/>
      </g>
     </g>
     <g id="text_4">
      <!-- 0.8 -->
      <g transform="translate(215.680043 188.118438) scale(0.1 -0.1)">
       <defs>
        <path id="DejaVuSans-38" d="M 2034 2216 
Q 1584 2216 1326 1975 
Q 1069 1734 1069 1313 
Q 1069 891 1326 650 
Q 1584 409 2034 409 
Q 2484 409 2743 651 
Q 3003 894 3003 1313 
Q 3003 1734 2745 1975 
Q 2488 2216 2034 2216 
z
M 1403 2484 
Q 997 2584 770 2862 
Q 544 3141 544 3541 
Q 544 4100 942 4425 
Q 1341 4750 2034 4750 
Q 2731 4750 3128 4425 
Q 3525 4100 3525 3541 
Q 3525 3141 3298 2862 
Q 3072 2584 2669 2484 
Q 3125 2378 3379 2068 
Q 3634 1759 3634 1313 
Q 3634 634 3220 271 
Q 2806 -91 2034 -91 
Q 1263 -91 848 271 
Q 434 634 434 1313 
Q 434 1759 690 2068 
Q 947 2378 1403 2484 
z
M 1172 3481 
Q 1172 3119 1398 2916 
Q 1625 2713 2034 2713 
Q 2441 2713 2670 2916 
Q 2900 3119 2900 3481 
Q 2900 3844 2670 4047 
Q 2441 4250 2034 4250 
Q 1625 4250 1398 4047 
Q 1172 3844 1172 3481 
z
" transform="scale(0.015625)"/>
       </defs>
       <use xlink:href="#DejaVuSans-30"/>
       <use xlink:href="#DejaVuSans-2e" x="63.623047"/>
       <use xlink:href="#DejaVuSans-38" x="95.410156"/>
      </g>
     </g>
    </g>
   </g>
   <g id="matplotlib.axis_2">
    <g id="ytick_1">
     <g id="line2d_5">
      <defs>
       <path id="mcef54b8047" d="M 0 0 
L -3.5 0 
" style="stroke: #000000; stroke-width: 0.8"/>
      </defs>
      <g>
       <use xlink:href="#mcef54b8047" x="35.304688" y="153.302928" style="stroke: #000000; stroke-width: 0.8"/>
      </g>
     </g>
     <g id="text_5">
      <!-- −75 -->
      <g transform="translate(7.2 157.102147) scale(0.1 -0.1)">
       <defs>
        <path id="DejaVuSans-2212" d="M 678 2272 
L 4684 2272 
L 4684 1741 
L 678 1741 
L 678 2272 
z
" transform="scale(0.015625)"/>
        <path id="DejaVuSans-37" d="M 525 4666 
L 3525 4666 
L 3525 4397 
L 1831 0 
L 1172 0 
L 2766 4134 
L 525 4134 
L 525 4666 
z
" transform="scale(0.015625)"/>
        <path id="DejaVuSans-35" d="M 691 4666 
L 3169 4666 
L 3169 4134 
L 1269 4134 
L 1269 2991 
Q 1406 3038 1543 3061 
Q 1681 3084 1819 3084 
Q 2600 3084 3056 2656 
Q 3513 2228 3513 1497 
Q 3513 744 3044 326 
Q 2575 -91 1722 -91 
Q 1428 -91 1123 -41 
Q 819 9 494 109 
L 494 744 
Q 775 591 1075 516 
Q 1375 441 1709 441 
Q 2250 441 2565 725 
Q 2881 1009 2881 1497 
Q 2881 1984 2565 2268 
Q 2250 2553 1709 2553 
Q 1456 2553 1204 2497 
Q 953 2441 691 2322 
L 691 4666 
z
" transform="scale(0.015625)"/>
       </defs>
       <use xlink:href="#DejaVuSans-2212"/>
       <use xlink:href="#DejaVuSans-37" x="83.789062"/>
       <use xlink:href="#DejaVuSans-35" x="147.412109"/>
      </g>
     </g>
    </g>
    <g id="ytick_2">
     <g id="line2d_6">
      <g>
       <use xlink:href="#mcef54b8047" x="35.304688" y="128.016679" style="stroke: #000000; stroke-width: 0.8"/>
      </g>
     </g>
     <g id="text_6">
      <!-- −50 -->
      <g transform="translate(7.2 131.815898) scale(0.1 -0.1)">
       <use xlink:href="#DejaVuSans-2212"/>
       <use xlink:href="#DejaVuSans-35" x="83.789062"/>
       <use xlink:href="#DejaVuSans-30" x="147.412109"/>
      </g>
     </g>
    </g>
    <g id="ytick_3">
     <g id="line2d_7">
      <g>
       <use xlink:href="#mcef54b8047" x="35.304688" y="102.73043" style="stroke: #000000; stroke-width: 0.8"/>
      </g>
     </g>
     <g id="text_7">
      <!-- −25 -->
      <g transform="translate(7.2 106.529648) scale(0.1 -0.1)">
       <use xlink:href="#DejaVuSans-2212"/>
       <use xlink:href="#DejaVuSans-32" x="83.789062"/>
       <use xlink:href="#DejaVuSans-35" x="147.412109"/>
      </g>
     </g>
    </g>
    <g id="ytick_4">
     <g id="line2d_8">
      <g>
       <use xlink:href="#mcef54b8047" x="35.304688" y="77.444181" style="stroke: #000000; stroke-width: 0.8"/>
      </g>
     </g>
     <g id="text_8">
      <!-- 0 -->
      <g transform="translate(21.942187 81.243399) scale(0.1 -0.1)">
       <use xlink:href="#DejaVuSans-30"/>
      </g>
     </g>
    </g>
    <g id="ytick_5">
     <g id="line2d_9">
      <g>
       <use xlink:href="#mcef54b8047" x="35.304688" y="52.157931" style="stroke: #000000; stroke-width: 0.8"/>
      </g>
     </g>
     <g id="text_9">
      <!-- 25 -->
      <g transform="translate(15.579687 55.95715) scale(0.1 -0.1)">
       <use xlink:href="#DejaVuSans-32"/>
       <use xlink:href="#DejaVuSans-35" x="63.623047"/>
      </g>
     </g>
    </g>
    <g id="ytick_6">
     <g id="line2d_10">
      <g>
       <use xlink:href="#mcef54b8047" x="35.304688" y="26.871682" style="stroke: #000000; stroke-width: 0.8"/>
      </g>
     </g>
     <g id="text_10">
      <!-- 50 -->
      <g transform="translate(15.579687 30.670901) scale(0.1 -0.1)">
       <use xlink:href="#DejaVuSans-35"/>
       <use xlink:href="#DejaVuSans-30" x="63.623047"/>
      </g>
     </g>
    </g>
   </g>
   <g id="line2d_11">
    <path d="M 45.450142 131.675686 
L 45.717414 131.754971 
L 46.449938 131.801286 
L 47.261654 131.85218 
L 48.409934 131.873646 
L 48.795994 131.837847 
L 50.211547 131.985618 
L 50.280839 132.152915 
L 50.360031 133.211394 
L 50.785687 140.640334 
L 51.458817 146.181282 
L 52.5873 153.161791 
L 53.517803 157.404271 
L 54.478003 160.523353 
L 55.398607 162.550982 
L 55.903455 163.335152 
L 57.20022 164.63972 
L 58.279207 165.239697 
L 58.704863 165.388237 
L 59.209711 165.523883 
L 59.437387 165.600749 
L 59.932335 165.660765 
L 61.060818 165.644163 
L 61.71415 165.746975 
L 62.832734 165.84397 
L 63.367278 165.959661 
L 64.743235 165.896917 
L 65.188689 165.821927 
L 65.475759 165.842809 
L 66.475555 165.855522 
L 66.940806 165.86813 
L 67.891107 165.841754 
L 68.861207 165.7391 
L 69.554134 165.727141 
L 76.156748 165.596197 
L 77.809876 165.503875 
L 83.967035 165.211053 
L 84.184812 165.208581 
L 84.59067 165.161625 
L 86.362586 165.070019 
L 87.006019 165.095 
L 88.91652 164.966913 
L 89.322378 164.896626 
L 89.728236 164.869029 
L 91.945605 164.823204 
L 92.143584 164.796986 
L 92.717725 164.778041 
L 93.192875 164.737136 
L 93.697723 164.68605 
L 94.638125 164.656502 
L 95.271659 164.584444 
L 96.617919 164.58568 
L 96.914888 164.597941 
L 97.647412 164.537375 
L 99.904377 164.519454 
L 100.191447 164.546199 
L 100.458719 164.500826 
L 100.755688 164.423839 
L 102.250433 164.222156 
L 103.012654 164.203738 
L 103.329421 164.240107 
L 103.705582 164.198712 
L 104.358914 164.192766 
L 104.962751 164.170904 
L 105.338912 164.165878 
L 106.111031 164.093066 
L 106.398101 164.082644 
L 109.437085 164.070896 
L 110.040923 164.025891 
L 110.912032 163.908897 
L 111.50597 163.914134 
L 112.1791 163.9473 
L 116.534647 163.739934 
L 117.197878 163.777132 
L 117.475049 163.759046 
L 118.257068 163.680371 
L 118.62333 163.587235 
L 121.107971 163.597619 
L 121.355445 163.605004 
L 121.662314 163.576782 
L 124.404328 163.496503 
L 124.740893 163.495252 
L 125.245741 163.517776 
L 128.146139 163.369289 
L 128.492603 163.325536 
L 129.09644 163.29916 
L 129.571591 163.323335 
L 130.551589 163.219408 
L 131.204921 163.235527 
L 131.571183 163.193198 
L 141.856213 163.124177 
L 143.242069 163.070913 
L 143.964693 162.97101 
L 144.291359 162.980241 
L 144.558632 162.98364 
L 145.370347 163.043422 
L 145.687114 163.094802 
L 145.934588 163.043844 
L 146.380042 162.979819 
L 146.874991 162.951959 
L 148.142059 162.857256 
L 149.706096 162.869562 
L 152.052152 162.79681 
L 152.517404 162.827007 
L 153.141039 162.781211 
L 153.447907 162.783103 
L 158.120221 162.887708 
L 158.377594 162.903157 
L 158.793351 162.850828 
L 159.238804 162.841973 
L 160.456378 162.722642 
L 160.733549 162.719575 
L 172.493525 162.61882 
L 172.849888 162.611254 
L 173.374534 162.66913 
L 173.810088 162.611925 
L 176.205639 162.597803 
L 177.35392 162.619717 
L 177.611293 162.572444 
L 178.185433 162.568224 
L 178.719978 162.681014 
L 179.383209 162.694676 
L 180.204823 162.629702 
L 180.422601 162.549076 
L 181.145225 162.551299 
L 181.709467 162.536762 
L 183.243807 162.581977 
L 185.075117 162.529799 
L 185.292894 162.503205 
L 186.48077 162.511871 
L 187.124203 162.340354 
L 187.658748 161.557021 
L 188.044808 161.350794 
L 188.470463 161.262194 
L 190.90561 161.700987 
L 191.558942 161.822978 
L 191.836113 161.826753 
L 192.133082 161.891328 
L 192.776515 161.941042 
L 193.380353 162.011307 
L 193.865402 162.054126 
L 194.489037 162.126704 
L 195.409641 162.208491 
L 196.37974 162.246781 
L 196.736103 162.212447 
L 197.577516 162.196501 
L 198.003172 162.236193 
L 198.755493 162.124526 
L 198.834685 161.248147 
L 199.319735 153.33743 
L 200.062157 148.117403 
L 200.933267 143.891306 
L 202.022154 140.022535 
L 202.764576 137.934246 
L 203.68518 135.882498 
L 205.981742 131.944796 
L 207.090426 130.648777 
L 209.812643 128.364713 
L 211.307388 127.543912 
L 212.020113 127.295616 
L 212.326981 127.084818 
L 214.079099 126.141796 
L 214.35627 126.023946 
L 214.682936 125.89833 
L 215.930207 125.592591 
L 216.326165 125.507187 
L 217.058689 125.351695 
L 217.454648 125.325531 
L 217.870405 125.248649 
L 218.731615 125.256095 
L 218.979089 125.307388 
L 219.384947 125.285749 
L 219.860098 125.277836 
L 220.840096 125.343707 
L 221.394438 125.436312 
L 221.820094 125.514233 
L 222.691203 125.510669 
L 224.077059 125.525081 
L 225.116451 125.506946 
L 225.324329 125.517055 
L 225.997459 125.568314 
L 228.086142 126.013817 
L 228.303919 126.084071 
L 228.610787 126.11467 
L 228.907757 126.130424 
L 240.004502 128.040941 
L 240.360865 128.09523 
L 240.746925 128.129221 
L 244.53823 128.502413 
L 245.12227 128.491226 
L 245.458835 128.538936 
L 245.924086 128.612599 
L 248.359233 128.84189 
L 248.359233 128.84189 
" clip-path="url(#p9cee2e32eb)" style="fill: none; stroke: #000000; stroke-opacity: 0.5; stroke-width: 1.5; stroke-linecap: square"/>
   </g>
   <g id="line2d_12">
    <path d="M 45.450142 132.004002 
L 45.846101 131.82273 
L 46.33115 131.620561 
L 46.875594 131.539214 
L 48.083268 131.687588 
L 48.439631 131.715343 
L 48.627711 131.770766 
L 48.825691 131.728233 
L 49.211751 131.761078 
L 50.350132 132.111411 
L 50.835182 133.814107 
L 51.854776 135.437458 
L 52.141846 135.877588 
L 53.012955 136.821376 
L 53.26043 137.076194 
L 54.151337 137.941284 
L 55.289718 138.895953 
L 56.606281 139.680782 
L 58.091127 140.179202 
L 58.388096 140.277651 
L 61.209303 141.065325 
L 61.724049 141.077405 
L 62.209099 141.236623 
L 65.515355 141.621699 
L 66.099394 141.639688 
L 67.178382 141.77085 
L 68.24747 141.923934 
L 70.029285 141.988471 
L 70.336153 141.957755 
L 70.672718 141.995804 
L 71.048879 141.997499 
L 71.702211 142.005427 
L 74.048267 141.992714 
L 74.216549 141.953919 
L 74.414529 141.967559 
L 75.196547 142.044606 
L 75.572708 142.086249 
L 76.146849 142.17411 
L 78.126643 142.234028 
L 78.423612 142.24595 
L 78.859166 142.280065 
L 79.334317 142.261504 
L 79.651084 142.276576 
L 80.541991 142.392802 
L 83.293905 142.216002 
L 83.739359 142.225083 
L 84.560973 142.209574 
L 84.947033 142.256598 
L 85.570668 142.242845 
L 86.461576 142.182181 
L 86.728848 142.136408 
L 87.213897 142.188639 
L 87.590058 142.170749 
L 88.282986 142.136047 
L 90.609244 142.090959 
L 91.025001 142.081773 
L 93.52944 142.071713 
L 93.796712 142.118006 
L 94.024389 142.121359 
L 95.083579 142.026671 
L 95.628022 141.980619 
L 95.915092 142.01181 
L 96.50903 141.968983 
L 97.033676 142.009715 
L 97.459331 142.061735 
L 97.815694 142.051645 
L 98.092866 142.025028 
L 98.389835 142.045164 
L 98.538319 141.987137 
L 98.696703 141.981877 
L 98.954076 142.032096 
L 99.617307 141.980981 
L 100.438921 141.885712 
L 100.983365 141.895215 
L 101.31993 141.960995 
L 102.626594 141.78666 
L 103.438309 141.638934 
L 105.982345 141.722334 
L 106.31891 141.701791 
L 106.982141 141.658746 
L 107.387999 141.662672 
L 108.249209 141.67066 
L 108.506582 141.650698 
L 108.714461 141.704662 
L 109.021329 141.649733 
L 109.397489 141.498314 
L 110.595265 141.494433 
L 111.11991 141.460017 
L 113.762935 141.624367 
L 114.455863 141.655008 
L 115.772426 141.617517 
L 119.286561 141.503491 
L 119.534035 141.511487 
L 119.860701 141.505782 
L 120.306155 141.529912 
L 120.702113 141.508134 
L 121.88999 141.597336 
L 122.186959 141.566687 
L 122.46413 141.562068 
L 123.13726 141.536363 
L 123.661905 141.462172 
L 127.324524 141.496709 
L 127.888766 141.481532 
L 128.334219 141.513944 
L 128.759875 141.502263 
L 129.215228 141.46319 
L 129.918055 141.45548 
L 130.304114 141.314815 
L 130.898053 141.218529 
L 137.282888 141.197218 
L 137.451171 141.16504 
L 137.787736 141.191408 
L 138.361876 141.231529 
L 139.054804 141.230165 
L 139.609146 141.226796 
L 140.104095 141.213812 
L 140.82672 141.247919 
L 142.499646 141.25272 
L 142.925301 141.170141 
L 143.539038 141.181701 
L 146.083073 141.141075 
L 146.469133 141.126237 
L 147.775797 141.090645 
L 148.052968 141.065671 
L 148.557816 141.048927 
L 148.933976 140.982935 
L 149.498218 141.048708 
L 149.913974 141.034593 
L 150.775185 141.11626 
L 151.715587 141.170285 
L 153.725078 141.038429 
L 154.19033 141.095265 
L 155.318812 141.093607 
L 156.120629 141.060313 
L 157.021435 140.961533 
L 158.882441 140.9872 
L 159.149714 140.958782 
L 159.545672 140.929023 
L 160.179207 140.871773 
L 160.91173 140.849572 
L 161.545264 140.852805 
L 162.84203 140.921216 
L 163.41617 140.925368 
L 165.178186 140.833084 
L 165.475156 140.898111 
L 165.673135 140.838683 
L 166.267073 140.822707 
L 166.633335 140.832993 
L 174.364431 140.792691 
L 175.423621 140.850424 
L 175.661196 140.823619 
L 176.027458 140.816316 
L 179.224825 140.715614 
L 181.00664 140.807929 
L 181.58078 140.783641 
L 182.174718 140.817914 
L 182.956737 140.81658 
L 183.560574 140.862572 
L 184.411886 140.91628 
L 184.867238 140.887214 
L 187.431071 140.832443 
L 187.846828 140.852986 
L 188.183393 140.832677 
L 189.84642 140.67428 
L 190.61854 140.711379 
L 191.489649 140.654464 
L 191.836113 140.740257 
L 192.301365 140.745856 
L 192.895303 140.720724 
L 193.21207 140.69278 
L 194.330654 140.644739 
L 195.092874 140.59134 
L 195.954085 140.628605 
L 196.37974 140.665169 
L 198.062565 140.559569 
L 198.844584 140.257824 
L 199.280139 138.820376 
L 200.111652 137.587919 
L 201.131246 136.444144 
L 202.487405 135.155345 
L 203.289222 134.680848 
L 206.120327 133.369878 
L 207.555678 132.854785 
L 209.149412 132.584227 
L 209.594866 132.505847 
L 211.426175 132.085792 
L 212.930819 131.997803 
L 213.960312 131.81106 
L 216.781518 131.646352 
L 217.14778 131.583329 
L 218.464343 131.491968 
L 219.236463 131.417653 
L 221.493428 131.443908 
L 221.909185 131.419058 
L 222.542719 131.372837 
L 222.998071 131.306035 
L 223.275242 131.378463 
L 223.453424 131.353458 
L 223.918676 131.296608 
L 224.562109 131.321785 
L 225.22534 131.411496 
L 226.462711 131.343391 
L 230.343107 131.283058 
L 230.808359 131.263465 
L 231.333004 131.274121 
L 232.154619 131.282425 
L 235.837036 131.409544 
L 236.153803 131.376232 
L 236.866529 131.449454 
L 237.52976 131.60674 
L 238.153395 131.567391 
L 238.430566 131.518562 
L 238.87602 131.582026 
L 239.262079 131.560288 
L 239.796624 131.558465 
L 242.687123 131.66382 
L 243.330556 131.622802 
L 243.845303 131.530382 
L 244.211564 131.305508 
L 244.53823 131.210823 
L 245.627117 131.146964 
L 246.409136 131.11751 
L 246.795196 131.090965 
L 247.23075 131.05336 
L 247.785093 131.112506 
L 248.151355 131.136282 
L 248.359233 131.243615 
L 248.359233 131.243615 
" clip-path="url(#p9cee2e32eb)" style="fill: none; stroke: #000000; stroke-opacity: 0.5; stroke-width: 1.5; stroke-linecap: square"/>
   </g>
   <g id="line2d_13">
    <path d="M 45.450142 132.190556 
L 45.865899 132.104485 
L 47.439835 132.237384 
L 47.914986 132.262784 
L 48.706903 132.197433 
L 49.518619 132.245745 
L 50.003668 132.206728 
L 50.805485 132.267464 
L 51.201444 132.303241 
L 52.320027 132.276141 
L 52.953561 132.253602 
L 63.070309 132.738114 
L 63.495965 132.734983 
L 63.901822 132.745507 
L 64.525458 132.800832 
L 67.010099 132.838036 
L 67.841613 132.811167 
L 68.287066 132.825191 
L 68.663227 132.833748 
L 69.59373 132.750895 
L 70.425244 132.766434 
L 71.058778 132.64179 
L 71.880392 131.289418 
L 72.256553 131.154176 
L 73.484026 131.025591 
L 75.622203 131.530876 
L 76.285434 131.709164 
L 76.701191 131.78054 
L 77.136746 131.919645 
L 81.304212 132.732149 
L 81.749666 132.766483 
L 83.293905 132.989681 
L 83.551278 133.048133 
L 84.194711 133.098503 
L 85.600365 132.99901 
L 85.83794 132.974003 
L 86.867433 132.96673 
L 87.302988 132.919341 
L 87.837532 132.992443 
L 88.134501 133.062707 
L 88.639349 133.100832 
L 89.223388 133.137128 
L 90.045003 133.08024 
L 90.539951 133.14798 
L 91.658535 133.139736 
L 91.975302 133.168704 
L 92.509846 133.116344 
L 94.885599 133.05302 
L 97.785997 133.070643 
L 98.568016 133.062221 
L 98.973874 133.098397 
L 100.44882 133.143048 
L 100.894274 133.110466 
L 102.586998 133.057195 
L 107.417695 133.323698 
L 107.704766 133.351645 
L 109.941933 133.406679 
L 110.723951 133.35698 
L 111.496071 133.399226 
L 111.723747 133.389818 
L 111.981121 133.400617 
L 113.010614 133.410244 
L 113.327381 133.362779 
L 113.673845 133.388876 
L 114.208389 133.337176 
L 115.881315 133.276795 
L 116.821717 133.264993 
L 119.128177 133.15561 
L 120.266559 133.243573 
L 121.246557 133.292635 
L 122.246353 133.233282 
L 122.85019 133.122961 
L 123.414431 133.149879 
L 124.820085 133.124174 
L 125.44372 133.158801 
L 125.750588 133.122426 
L 126.037658 133.168244 
L 126.671192 133.133375 
L 127.542302 133.125655 
L 128.116442 133.157746 
L 129.561692 132.978991 
L 130.046741 132.921617 
L 131.224719 132.882735 
L 132.264111 133.068616 
L 132.610575 133.091826 
L 133.293603 133.177136 
L 134.065723 133.211379 
L 134.501278 133.263026 
L 139.440864 133.154114 
L 141.351365 133.197589 
L 142.004697 133.245965 
L 146.538426 133.446036 
L 147.003677 133.447833 
L 150.131752 133.549646 
L 150.478216 133.520739 
L 151.666092 133.44639 
L 152.101647 133.376238 
L 152.497606 133.39833 
L 153.744876 133.392094 
L 154.4774 133.364795 
L 154.734773 133.384784 
L 155.62568 133.275325 
L 155.991942 133.231519 
L 156.625476 133.275619 
L 157.664868 133.227627 
L 158.80325 133.300672 
L 160.396984 133.271361 
L 161.317588 133.270547 
L 161.881829 133.329143 
L 162.426273 133.44408 
L 162.802434 133.374268 
L 163.069706 133.329244 
L 165.257378 133.27774 
L 169.009088 133.263803 
L 169.345653 133.25442 
L 170.543428 133.319681 
L 170.781004 133.320311 
L 171.186861 133.286173 
L 171.889688 133.267819 
L 172.483626 133.288 
L 174.255542 133.322786 
L 174.730693 133.34091 
L 175.037561 133.366958 
L 175.324631 133.363525 
L 176.463012 133.247209 
L 176.799577 133.249812 
L 178.254726 133.291787 
L 179.056543 133.290845 
L 181.264013 133.244933 
L 182.164819 133.232947 
L 182.392496 133.227318 
L 182.986434 133.205957 
L 186.39168 133.229386 
L 187.144001 133.288332 
L 191.469851 133.391419 
L 191.76682 133.449253 
L 196.458932 133.430101 
L 196.706407 133.391442 
L 197.082567 133.33958 
L 198.013071 133.375469 
L 198.775291 133.394422 
L 199.329634 133.492901 
L 200.735287 133.518154 
L 201.071852 133.499356 
L 201.903366 133.601094 
L 202.15084 133.579089 
L 202.754677 133.586354 
L 203.437706 133.675971 
L 203.863362 133.652666 
L 205.457096 133.636969 
L 206.278711 133.705692 
L 207.14982 133.723111 
L 207.644769 133.829371 
L 208.892039 133.700617 
L 209.307796 133.689181 
L 210.376884 133.774566 
L 213.30698 133.782781 
L 214.0692 133.79266 
L 214.534452 133.814725 
L 215.237279 133.774062 
L 215.860914 133.825799 
L 216.504347 133.824571 
L 217.523941 133.755357 
L 222.305143 133.680179 
L 222.760496 133.687323 
L 223.354434 133.653898 
L 223.908777 133.742494 
L 224.235443 133.770441 
L 224.730391 133.715395 
L 225.759884 133.620838 
L 226.75968 133.691706 
L 232.352598 133.731454 
L 232.748557 133.763673 
L 238.470162 133.456168 
L 238.846323 133.507555 
L 239.559048 133.487875 
L 239.786725 133.458982 
L 239.964906 133.496586 
L 240.331168 133.580642 
L 241.142884 133.540852 
L 241.776418 133.532687 
L 242.301063 133.534224 
L 242.766315 133.4574 
L 242.954395 133.519955 
L 243.162274 133.528109 
L 243.57803 133.544153 
L 245.201461 133.707229 
L 246.102268 133.735922 
L 247.745497 133.770569 
L 248.19095 133.784269 
L 248.359233 133.739513 
L 248.359233 133.739513 
" clip-path="url(#p9cee2e32eb)" style="fill: none; stroke: #000000; stroke-opacity: 0.5; stroke-width: 1.5; stroke-linecap: square"/>
   </g>
   <g id="line2d_14">
    <path d="M 45.450142 134.698953 
L 45.836202 134.749503 
L 46.261858 134.732672 
L 46.71721 134.721232 
L 47.162664 134.740163 
L 47.885289 134.673737 
L 48.578217 134.685644 
L 48.894984 134.654227 
L 50.261042 134.708384 
L 50.340233 134.097664 
L 50.904475 127.139898 
L 51.983462 120.48475 
L 53.042652 115.193237 
L 54.082044 110.366635 
L 54.329518 108.086281 
L 54.40871 104.049929 
L 54.497801 81.709431 
L 54.646285 36.233898 
L 54.69578 42.176629 
L 55.151133 117.396211 
L 55.279819 118.38278 
L 55.309516 118.359901 
L 55.428304 117.902936 
L 55.844061 115.140117 
L 56.546888 111.180964 
L 57.140826 109.058349 
L 57.576381 107.994224 
L 58.714762 105.561246 
L 59.140418 105.1331 
L 59.279003 104.760883 
L 59.625467 103.864583 
L 60.031325 103.566328 
L 60.189709 103.415458 
L 60.555971 102.77602 
L 60.744051 102.61648 
L 60.862839 102.539192 
L 61.377585 101.668071 
L 61.496373 100.693468 
L 61.565666 97.432992 
L 61.664655 76.622126 
L 61.823039 38.653581 
L 61.872534 41.969753 
L 62.525866 113.739432 
L 62.743643 115.288125 
L 62.921824 115.396778 
L 63.06041 115.168482 
L 64.089903 113.473788 
L 65.317375 111.974858 
L 65.990505 111.505949 
L 66.376565 111.426935 
L 66.653736 111.309221 
L 66.960604 110.989586 
L 67.227876 110.756814 
L 67.406058 110.700227 
L 67.980198 110.048832 
L 68.395955 109.73864 
L 68.712722 109.347433 
L 68.979994 109.355085 
L 69.97979 108.605018 
L 70.55393 108.119388 
L 71.266656 107.806658 
L 71.702211 107.716941 
L 72.226856 106.65433 
L 72.504028 106.266989 
L 72.721805 105.907145 
L 72.969279 105.555914 
L 73.424632 105.057567 
L 73.7315 104.897967 
L 74.572912 103.592626 
L 74.731296 103.462726 
L 74.97877 102.871594 
L 75.186648 101.609233 
L 75.255941 97.931131 
L 75.354931 74.740409 
L 75.513315 36.079743 
L 75.55291 38.960465 
L 75.830082 89.081618 
L 76.077556 110.725054 
L 76.305232 114.901278 
L 76.503212 115.478293 
L 76.691292 115.567243 
L 78.017754 114.438186 
L 78.403814 114.135552 
L 78.789874 113.909057 
L 79.294721 113.508344 
L 82.046635 110.896442 
L 82.304008 110.615772 
L 82.907845 109.983722 
L 84.372893 108.437346 
L 85.026225 107.566045 
L 85.214305 107.325231 
L 85.521173 106.787438 
L 85.956728 106.333706 
L 86.273495 105.650595 
L 86.540767 105.201379 
L 86.560565 105.210005 
L 86.827837 105.234565 
L 87.035716 104.921364 
L 87.372281 103.850947 
L 87.590058 102.895754 
L 87.659351 100.509051 
L 87.748442 84.801585 
L 87.926623 35.556798 
L 87.986017 40.295339 
L 88.560157 113.507297 
L 88.777935 115.85681 
L 88.966015 116.138822 
L 89.134297 116.116244 
L 89.916316 115.014354 
L 90.223184 114.748684 
L 91.480353 113.796897 
L 95.64782 109.624136 
L 95.806203 109.463813 
L 96.875292 107.813715 
L 97.043575 107.580321 
L 97.320746 107.325416 
L 97.56822 107.189531 
L 98.172057 106.5922 
L 98.419532 106.446694 
L 98.667006 106.201491 
L 98.944177 105.907444 
L 99.171853 105.625979 
L 99.508418 105.045653 
L 99.706398 104.817813 
L 100.082559 103.65648 
L 100.16175 102.770189 
L 100.231043 98.370389 
L 100.339932 69.007201 
L 100.478517 35.477204 
L 100.518113 38.006572 
L 100.725992 77.586318 
L 101.003163 109.647335 
L 101.230839 115.174966 
L 101.458515 116.44947 
L 101.656495 116.64916 
L 101.953464 116.380369 
L 103.854066 114.269921 
L 104.022349 114.081531 
L 104.388611 113.698825 
L 105.903153 112.453097 
L 106.200122 112.205946 
L 106.566384 111.98652 
L 107.348403 110.977257 
L 107.724563 110.611627 
L 108.387794 109.637139 
L 108.793652 109.148531 
L 109.536075 108.047889 
L 109.734054 108.000283 
L 109.882539 107.84839 
L 110.912032 105.793475 
L 111.377283 103.832418 
L 111.446576 102.067313 
L 111.525768 91.554718 
L 111.733646 35.301633 
L 111.812838 44.542363 
L 112.268191 110.641805 
L 112.495867 115.655877 
L 112.693847 116.431037 
L 112.872028 116.479926 
L 113.050209 116.33555 
L 113.33728 116.126776 
L 114.396469 115.032772 
L 114.742933 114.650205 
L 115.307175 114.136219 
L 115.812022 113.433562 
L 116.366364 112.994453 
L 116.970202 112.403458 
L 117.732422 111.525621 
L 118.197674 111.007827 
L 118.415451 110.872927 
L 119.900297 109.389332 
L 120.177468 109.296754 
L 120.613023 108.910513 
L 120.890194 108.538666 
L 121.325749 108.068606 
L 121.494031 108.026712 
L 121.810798 107.660618 
L 122.157262 107.137226 
L 123.077866 105.915485 
L 123.265947 105.786919 
L 124.127157 104.494205 
L 124.434025 103.428255 
L 124.503318 101.834707 
L 124.58251 92.446852 
L 124.790388 35.486379 
L 124.889378 46.694021 
L 125.315034 108.504374 
L 125.552609 114.743182 
L 125.760487 115.800065 
L 125.988163 115.957968 
L 127.928362 114.48648 
L 128.185735 114.335969 
L 128.898461 113.570741 
L 129.353813 113.129221 
L 130.393205 112.248517 
L 131.036638 111.643309 
L 132.293808 110.185179 
L 132.778857 109.498678 
L 133.224311 108.944417 
L 133.550977 108.706895 
L 135.62976 107.191343 
L 135.966325 106.670346 
L 136.154406 106.490975 
L 136.589961 105.963144 
L 137.46107 103.933028 
L 137.807534 102.462322 
L 137.896625 101.371922 
L 137.965917 96.736114 
L 138.074806 67.021473 
L 138.203493 35.492588 
L 138.252988 38.384882 
L 138.540058 89.816536 
L 138.797431 110.871939 
L 139.044905 115.477566 
L 139.262683 116.235654 
L 139.638843 116.132269 
L 141.697829 114.789008 
L 142.182879 114.341953 
L 142.786716 113.617094 
L 144.330955 111.977432 
L 144.598227 111.664448 
L 145.330751 110.847629 
L 146.716607 109.035673 
L 147.082869 108.655218 
L 147.340242 108.520186 
L 147.498626 108.398811 
L 148.834987 106.538451 
L 149.409127 105.182399 
L 149.755591 104.412397 
L 150.092156 103.394133 
L 150.161449 101.975652 
L 150.24064 93.130187 
L 150.458418 35.577431 
L 150.547509 46.169361 
L 150.983063 108.217096 
L 151.220639 114.625419 
L 151.428517 115.892929 
L 151.626496 115.948416 
L 152.725282 115.238991 
L 153.200433 114.875407 
L 153.556795 114.583855 
L 153.873563 114.397929 
L 154.239824 114.202712 
L 155.002045 113.447782 
L 156.29881 112.363153 
L 157.160021 111.495553 
L 157.367899 111.312017 
L 158.258806 110.393196 
L 158.456786 110.191709 
L 160.545468 108.343213 
L 161.060215 108.201053 
L 162.060011 106.818927 
L 162.396576 106.254606 
L 162.663848 106.043181 
L 163.010312 105.708333 
L 163.376574 105.819252 
L 163.732937 105.863949 
L 164.415966 105.600713 
L 164.544652 105.538745 
L 164.712935 105.50112 
L 164.841621 105.447005 
L 165.712731 104.142946 
L 166.029498 103.551689 
L 166.158185 102.994669 
L 166.306669 101.397463 
L 166.375962 96.539103 
L 166.484851 66.862287 
L 166.623436 35.744227 
L 166.663032 38.380609 
L 166.890708 79.484214 
L 167.167879 108.736575 
L 167.405455 114.403088 
L 167.633131 115.537465 
L 167.880605 115.665816 
L 168.038989 115.511056 
L 168.335958 115.21459 
L 168.484443 115.036622 
L 168.880401 114.559295 
L 169.306057 114.308151 
L 169.810905 114.036663 
L 170.167267 113.739247 
L 171.493729 112.547609 
L 172.008476 112.106141 
L 172.206455 111.964907 
L 172.839989 111.239258 
L 174.245643 109.512499 
L 174.592107 109.247386 
L 174.958369 108.727274 
L 175.562206 108.164104 
L 175.948266 107.589843 
L 176.383821 107.08534 
L 177.195536 106.316487 
L 177.324223 106.170611 
L 177.680586 105.685505 
L 178.096343 105.415209 
L 178.225029 105.265396 
L 178.551695 104.872039 
L 178.848664 104.780298 
L 179.007048 104.597895 
L 179.769269 103.184848 
L 179.94745 101.903732 
L 180.026642 100.26951 
L 180.105834 91.615423 
L 180.323611 35.993646 
L 180.412702 45.792804 
L 180.868054 108.051874 
L 181.105629 113.701052 
L 181.343205 115.072847 
L 181.640174 115.543893 
L 181.788658 115.464544 
L 183.243807 114.309047 
L 183.471483 114.167478 
L 184.243603 113.549897 
L 185.015723 112.899116 
L 185.797741 112.111838 
L 186.055115 111.855011 
L 186.332286 111.649508 
L 187.846828 110.620614 
L 189.014907 109.724563 
L 189.282179 109.568227 
L 189.836521 109.221727 
L 190.311672 109.049545 
L 190.499752 108.720859 
L 190.80662 108.371699 
L 191.054095 108.240019 
L 191.519346 108.060062 
L 192.241971 107.430078 
L 192.855707 106.685109 
L 193.083383 106.365521 
L 193.439746 105.731395 
L 193.716918 105.637676 
L 193.835705 105.56904 
L 194.211866 105.308646 
L 194.479138 105.180389 
L 194.884996 104.702529 
L 195.498732 104.255208 
L 195.894691 103.777026 
L 196.043176 103.341455 
L 196.161963 102.267926 
L 196.231256 98.890921 
L 196.330246 77.285058 
L 196.498528 35.421981 
L 196.548023 39.328126 
L 197.171658 111.87144 
L 197.429031 114.648486 
L 197.646809 115.164032 
L 197.914081 115.204688 
L 198.240747 115.068356 
L 198.587211 114.834649 
L 198.745594 114.742237 
L 198.775291 114.821458 
L 198.854483 115.690425 
L 199.220745 120.596752 
L 199.715693 123.360269 
L 200.487813 126.522968 
L 201.794477 130.200837 
L 202.705182 132.034688 
L 203.378312 133.080243 
L 204.011847 133.852212 
L 204.26922 134.083312 
L 204.635482 134.490755 
L 205.03144 134.829972 
L 205.744166 135.397281 
L 208.139717 136.75443 
L 208.664363 136.926343 
L 209.634462 137.195939 
L 210.188804 137.36899 
L 211.416276 137.817258 
L 214.910613 138.611081 
L 215.167986 138.660645 
L 215.950005 138.679462 
L 216.692427 138.843398 
L 217.494244 138.900335 
L 217.72192 138.895007 
L 218.602929 139.012661 
L 219.384947 139.130289 
L 219.919492 139.143865 
L 224.106756 139.433364 
L 224.661098 139.389765 
L 225.423319 139.348031 
L 226.056853 139.407045 
L 226.363721 139.412504 
L 228.363313 139.566689 
L 228.610787 139.551218 
L 228.788969 139.592062 
L 229.283917 139.60756 
L 233.560273 139.711687 
L 233.886939 139.731016 
L 234.292796 139.723537 
L 234.965926 139.747874 
L 235.243097 139.731352 
L 235.658854 139.789811 
L 236.678448 139.74079 
L 236.925922 139.749784 
L 237.282285 139.725078 
L 238.014809 139.689008 
L 240.093593 139.821006 
L 240.31137 139.810769 
L 240.519249 139.811658 
L 240.895409 139.766876 
L 241.123086 139.768538 
L 241.429954 139.739717 
L 242.340659 139.77168 
L 242.647527 139.73738 
L 243.122678 139.716615 
L 243.508738 139.739023 
L 245.043078 139.739634 
L 246.617014 139.702195 
L 246.904084 139.693921 
L 248.151355 139.706321 
L 248.359233 139.721966 
L 248.359233 139.721966 
" clip-path="url(#p9cee2e32eb)" style="fill: none; stroke: #000000; stroke-opacity: 0.5; stroke-width: 1.5; stroke-linecap: square"/>
   </g>
   <g id="line2d_15">
    <path d="M 45.450142 137.706142 
L 50.261042 137.643247 
L 50.330334 136.985206 
L 51.092555 124.39131 
L 52.240836 114.474637 
L 53.082248 107.197879 
L 53.171339 104.364706 
L 53.250531 91.212579 
L 53.428712 35.635544 
L 53.498005 44.997297 
L 53.893964 113.414398 
L 54.032549 115.102343 
L 54.052347 115.078277 
L 54.151337 114.557317 
L 54.40871 111.539657 
L 55.428304 98.241355 
L 55.527294 81.597609 
L 55.705475 45.407958 
L 55.75497 47.979601 
L 56.012343 85.835425 
L 56.279615 106.909497 
L 56.497393 110.029759 
L 56.576585 110.145118 
L 56.626079 110.08748 
L 56.774564 109.523596 
L 57.922844 104.747959 
L 58.605873 103.077177 
L 58.744459 102.739085 
L 59.249306 101.313866 
L 59.665063 100.749537 
L 59.704659 100.805496 
L 59.942234 101.038992 
L 60.160012 100.807578 
L 60.298597 100.56662 
L 60.664859 99.862508 
L 60.872738 99.399345 
L 61.219202 98.733831 
L 61.337989 98.785398 
L 61.565666 98.936858 
L 61.575564 98.928704 
L 61.842837 98.833507 
L 62.060614 98.889781 
L 62.535765 99.553292 
L 63.050511 100.059571 
L 63.505864 100.577097 
L 63.63455 100.489688 
L 63.862227 100.44442 
L 64.089903 100.457073 
L 64.40667 100.478444 
L 65.356971 99.343692 
L 65.891515 97.453354 
L 65.970707 94.7088 
L 66.069697 79.903926 
L 66.277575 41.55089 
L 66.32707 43.910437 
L 66.554746 73.218392 
L 66.881413 101.78234 
L 67.148685 108.312851 
L 67.396159 109.988383 
L 67.643633 110.406911 
L 67.910905 110.538107 
L 69.762013 108.626536 
L 70.375749 107.505104 
L 72.474331 103.25912 
L 72.998976 100.851618 
L 73.068269 98.060279 
L 73.15736 82.807778 
L 73.34544 37.452971 
L 73.404834 40.823767 
L 74.097762 109.238249 
L 74.315539 111.239171 
L 74.59271 111.837208 
L 74.721397 111.825595 
L 76.334929 110.173242 
L 76.621999 109.894715 
L 77.443614 108.836183 
L 78.878964 106.678394 
L 79.235327 105.982929 
L 79.40361 105.811776 
L 79.829266 105.036944 
L 81.314111 102.478784 
L 81.472495 102.363677 
L 81.927847 101.226798 
L 82.026837 100.452594 
L 82.09613 97.693558 
L 82.18522 82.146782 
L 82.373301 37.272532 
L 82.432695 41.714607 
L 83.026633 107.627317 
L 83.293905 111.417519 
L 83.541379 112.331788 
L 83.689864 112.324701 
L 84.056126 112.078737 
L 84.610468 111.569092 
L 84.956932 111.120594 
L 85.422184 110.58515 
L 85.669658 110.323383 
L 86.283394 109.594369 
L 88.807631 106.24701 
L 89.01551 105.906272 
L 89.510458 105.001559 
L 90.0747 103.959941 
L 90.292477 103.644848 
L 90.589446 103.186203 
L 90.767628 102.828715 
L 91.064597 102.39108 
L 91.163586 102.05383 
L 91.242778 100.620504 
L 91.32197 92.917228 
L 91.549646 36.626823 
L 91.658535 48.013156 
L 92.103989 104.930258 
L 92.351463 111.216345 
L 92.559341 112.320213 
L 92.777119 112.456767 
L 92.945401 112.292963 
L 93.707622 111.319511 
L 96.875292 108.154795 
L 98.676905 104.722825 
L 99.280742 102.700699 
L 99.359934 100.796468 
L 99.439125 91.589676 
L 99.656903 36.476271 
L 99.755892 45.708587 
L 100.231043 105.061505 
L 100.468618 110.83053 
L 100.706194 112.265582 
L 100.93387 112.583867 
L 101.270435 112.467713 
L 103.982753 109.601355 
L 104.556893 108.786802 
L 105.002347 108.201471 
L 105.497295 107.448014 
L 106.309011 106.402841 
L 107.071231 104.832689 
L 107.417695 103.830666 
L 107.576079 102.381686 
L 107.645372 99.031311 
L 107.744361 78.090697 
L 107.912644 36.375749 
L 107.962139 39.356834 
L 108.664966 110.567173 
L 108.892642 112.162057 
L 109.189611 112.609049 
L 109.496479 112.641641 
L 110.921931 111.247743 
L 111.278294 110.949043 
L 111.763343 110.518145 
L 112.436473 109.780034 
L 112.66415 109.497879 
L 113.04031 109.000919 
L 113.327381 108.625691 
L 115.15869 105.951345 
L 115.346771 105.798068 
L 117.059292 103.564254 
L 117.267171 103.346178 
L 117.831412 102.60969 
L 118.484744 101.31166 
L 118.860905 100.352584 
L 118.969794 98.799469 
L 119.048985 93.008836 
L 119.177672 57.614412 
L 119.286561 37.205221 
L 119.336056 39.764601 
L 119.593429 81.098568 
L 119.8706 105.410445 
L 120.127973 110.972159 
L 120.355649 112.212175 
L 120.563528 112.412505 
L 120.989184 112.259768 
L 121.256456 112.090176 
L 121.474233 112.011328 
L 122.959079 110.370147 
L 123.315442 109.861637 
L 123.473825 109.73231 
L 123.691602 109.62958 
L 123.869784 109.513399 
L 124.315238 108.953758 
L 128.076846 103.734241 
L 128.383714 103.420395 
L 128.80937 102.672607 
L 129.056844 102.27955 
L 129.680479 99.876414 
L 129.749772 98.113076 
L 129.828964 88.573796 
L 130.046741 36.682505 
L 130.125933 43.896857 
L 130.640679 105.69412 
L 130.878255 110.403576 
L 131.105931 111.589812 
L 131.323708 111.792222 
L 132.016636 111.363351 
L 133.283705 110.197462 
L 134.461682 108.6682 
L 135.095216 107.921867 
L 135.392185 107.567505 
L 136.203901 106.399903 
L 136.570163 106.015588 
L 138.292583 103.078952 
L 138.926118 101.157995 
L 139.035006 99.626979 
L 139.114198 93.247707 
L 139.252784 53.574509 
L 139.351773 36.894573 
L 139.401268 39.392652 
L 139.658641 79.12917 
L 139.95561 105.192319 
L 140.203085 110.811034 
L 140.450559 112.362663 
L 140.707932 112.565058 
L 140.836619 112.424932 
L 141.123689 112.102479 
L 142.331363 111.173108 
L 142.499646 110.997804 
L 145.112974 107.747377 
L 145.53863 107.034252 
L 145.875195 106.546152 
L 146.191962 106.28477 
L 146.667112 105.527801 
L 146.914586 105.188956 
L 147.063071 105.014196 
L 147.389737 104.513488 
L 147.864888 103.860604 
L 148.488523 102.539184 
L 148.825088 100.450854 
L 148.894381 97.500766 
L 148.983471 81.500318 
L 149.171552 36.654645 
L 149.221047 39.920745 
L 149.904075 109.377953 
L 150.141651 111.655932 
L 150.488115 112.341672 
L 150.765286 112.120772 
L 151.636395 111.38548 
L 152.250131 110.695781 
L 153.734977 108.80373 
L 154.170532 108.157736 
L 155.883053 105.993783 
L 156.348305 105.268746 
L 157.051132 104.70606 
L 157.872746 104.216658 
L 158.60527 102.962132 
L 158.773553 102.76803 
L 159.040825 102.128058 
L 159.466481 100.070898 
L 159.555571 98.292603 
L 159.634763 89.968543 
L 159.862439 36.749756 
L 159.95153 45.548585 
L 160.426681 104.191198 
L 160.684054 110.101968 
L 160.901831 111.438586 
L 161.248295 111.937669 
L 161.268093 111.92641 
L 161.644254 111.528587 
L 162.020415 111.301892 
L 162.307485 111.173635 
L 164.435764 109.000124 
L 165.029702 107.930978 
L 165.712731 107.195712 
L 165.890912 106.980547 
L 166.415558 106.151752 
L 166.851112 105.573525 
L 167.148082 105.216081 
L 167.306465 104.949842 
L 167.573737 104.640667 
L 167.821212 104.468657 
L 169.197168 101.644563 
L 169.484238 101.004314 
L 169.573329 100.663901 
L 169.652521 99.130903 
L 169.731713 91.438916 
L 169.959389 36.761176 
L 170.068278 47.297388 
L 170.52363 102.639999 
L 170.781004 109.578958 
L 171.038377 111.628505 
L 171.285851 112.020443 
L 171.464033 112.000616 
L 171.988678 111.793179 
L 172.265849 111.582352 
L 172.839989 111.06028 
L 173.473523 110.466463 
L 174.413926 109.282824 
L 174.780188 108.691631 
L 175.126652 108.315189 
L 176.522406 106.696207 
L 179.521794 103.179258 
L 179.670279 103.133321 
L 180.452297 102.126314 
L 180.610681 101.875043 
L 181.184821 100.322972 
L 181.333306 99.479553 
L 181.402599 97.419689 
L 181.491689 84.850364 
L 181.699568 37.211664 
L 181.758962 41.696069 
L 182.372698 107.113514 
L 182.630071 110.661993 
L 182.847848 111.271119 
L 183.154716 111.422191 
L 183.41209 111.3532 
L 183.619968 111.245105 
L 184.263401 110.637404 
L 184.540572 110.477104 
L 185.094914 109.842089 
L 186.1937 108.762763 
L 186.441174 108.479769 
L 186.926224 107.918769 
L 187.530061 107.262604 
L 187.82703 106.880228 
L 187.985414 106.747696 
L 188.59915 105.850292 
L 189.163391 105.277306 
L 189.301977 105.161139 
L 190.668035 102.783556 
L 190.826418 102.612149 
L 191.261973 102.062701 
L 191.657932 101.42437 
L 192.014295 100.850278 
L 192.053891 100.878065 
L 192.192476 100.898934 
L 192.212274 100.871241 
L 192.499344 100.181218 
L 192.578536 99.091581 
L 192.657728 93.627856 
L 192.786414 60.138853 
L 192.915101 37.352401 
L 192.954697 39.395297 
L 193.162575 69.953342 
L 193.489241 102.092417 
L 193.746614 108.345672 
L 194.033685 110.573206 
L 194.360351 111.370209 
L 194.627623 111.504125 
L 194.904794 111.365359 
L 195.379945 111.149094 
L 197.25085 109.478497 
L 197.726 108.988632 
L 198.003172 108.594716 
L 198.725796 107.799587 
L 198.745594 107.829599 
L 198.804988 108.256536 
L 198.933675 111.721554 
L 199.200947 116.425374 
L 199.695896 120.702375 
L 200.388823 124.815694 
L 201.279731 128.541698 
L 201.952861 130.644154 
L 204.001948 134.983101 
L 204.536492 135.657717 
L 205.437298 136.633592 
L 207.219113 137.953643 
L 209.584967 139.029003 
L 209.990825 139.13371 
L 210.426379 139.262808 
L 210.871833 139.374007 
L 211.911225 139.595691 
L 212.227992 139.696604 
L 213.297081 139.962783 
L 213.544555 140.019113 
L 213.801928 140.061857 
L 215.504551 140.306238 
L 215.870813 140.316932 
L 216.652831 140.421967 
L 217.108184 140.445562 
L 219.464139 140.610929 
L 219.959087 140.605767 
L 226.413216 140.88273 
L 226.640892 140.901547 
L 231.600276 141.113811 
L 231.926942 141.119169 
L 232.273406 141.056432 
L 238.796828 141.167217 
L 239.054201 141.159636 
L 239.598644 141.174987 
L 239.945108 141.209027 
L 240.350966 141.206683 
L 242.053589 141.388705 
L 242.756416 141.340633 
L 244.211564 141.320204 
L 245.488532 141.346624 
L 245.953783 141.35153 
L 248.359233 141.398193 
L 248.359233 141.398193 
" clip-path="url(#p9cee2e32eb)" style="fill: none; stroke: #000000; stroke-opacity: 0.5; stroke-width: 1.5; stroke-linecap: square"/>
   </g>
   <g id="line2d_16">
    <path d="M 45.450142 139.443903 
L 45.816404 139.439781 
L 46.509332 139.43712 
L 47.014179 139.425496 
L 49.281044 139.339463 
L 49.775992 139.341109 
L 50.261042 139.110967 
L 50.330334 137.879433 
L 51.092555 115.10298 
L 51.71619 102.327298 
L 51.795382 89.626376 
L 51.973563 33.445114 
L 52.052755 43.839969 
L 52.428916 107.191925 
L 52.547704 108.840475 
L 52.5873 108.76089 
L 52.715986 107.643184 
L 53.111945 101.238511 
L 53.5475 92.44196 
L 53.656388 77.548119 
L 53.844469 49.820439 
L 53.884065 50.994942 
L 54.032549 66.849917 
L 54.388912 98.642191 
L 54.59679 102.215827 
L 54.636386 102.276152 
L 54.69578 102.169711 
L 54.873962 101.224801 
L 55.735172 93.867975 
L 55.863859 90.958476 
L 55.972747 81.175944 
L 56.24002 55.334376 
L 56.259817 55.509793 
L 56.348908 58.955812 
L 57.121028 98.637105 
L 57.338805 99.841592 
L 57.477391 99.941009 
L 57.497189 99.924428 
L 57.645673 99.586602 
L 58.417793 96.63584 
L 58.952337 94.852119 
L 59.318599 93.096269 
L 59.447286 91.68927 
L 59.546276 86.588372 
L 59.902639 54.420631 
L 59.98183 55.61484 
L 60.169911 64.449627 
L 60.75395 92.333509 
L 61.090515 97.93164 
L 61.367686 99.484549 
L 61.644857 99.877966 
L 61.862635 99.806481 
L 62.723845 98.954158 
L 62.941622 98.456482 
L 64.149297 95.9329 
L 64.287882 95.681662 
L 64.614548 94.289083 
L 64.852124 91.891451 
L 64.941214 86.118017 
L 65.26788 50.11052 
L 65.347072 51.926329 
L 65.584647 67.257954 
L 66.04 91.43673 
L 66.376565 98.335492 
L 66.683433 100.835877 
L 66.990301 101.623041 
L 67.19818 101.774845 
L 67.663431 101.589822 
L 68.871106 99.824876 
L 69.484842 98.988509 
L 69.633326 98.492285 
L 70.088679 97.151619 
L 70.890495 95.065722 
L 71.048879 94.603633 
L 71.167667 93.484971 
L 71.256757 89.724089 
L 71.385444 70.659505 
L 71.583423 46.274745 
L 71.61312 46.560662 
L 71.722009 52.490285 
L 72.38524 94.945044 
L 72.711906 100.863636 
L 72.998976 102.753622 
L 73.286046 103.436831 
L 73.484026 103.51986 
L 73.889883 103.275222 
L 74.157156 103.111126 
L 74.30564 102.962498 
L 74.869881 102.25381 
L 76.641797 99.853902 
L 76.879372 99.541909 
L 77.849471 96.993476 
L 78.324622 95.456302 
L 78.601793 95.371099 
L 78.760177 95.305589 
L 78.898762 94.911214 
L 79.037348 93.892252 
L 79.126439 90.556015 
L 79.245226 72.477209 
L 79.443206 43.164395 
L 79.482802 44.147802 
L 79.641185 57.670555 
L 80.096538 93.303852 
L 80.383608 100.630155 
L 80.700375 103.752276 
L 80.977546 104.765889 
L 81.264616 104.793256 
L 81.452697 104.631831 
L 82.145625 103.664698 
L 82.412897 102.972447 
L 82.67027 102.590835 
L 83.115724 101.707437 
L 83.580975 101.006172 
L 84.68966 99.19568 
L 85.253901 97.47011 
L 85.501375 97.07951 
L 85.738951 95.142775 
L 85.818142 92.204462 
L 85.927031 75.887249 
L 86.13491 42.051521 
L 86.174505 43.029767 
L 86.32299 56.30856 
L 86.788242 94.036184 
L 87.085211 101.733941 
L 87.372281 104.406862 
L 87.629654 105.073118 
L 87.936522 105.324962 
L 88.223592 105.182573 
L 88.451269 104.900282 
L 88.748238 104.504542 
L 89.639145 103.391712 
L 89.965811 102.841846 
L 90.965607 100.938505 
L 91.737727 99.52773 
L 91.886211 99.366305 
L 92.232675 99.043811 
L 92.400958 98.883543 
L 92.589038 98.339678 
L 92.905805 97.488933 
L 93.747218 95.129193 
L 93.836308 92.805934 
L 93.935298 80.892943 
L 94.162974 41.137241 
L 94.222368 43.912016 
L 95.024185 101.009433 
L 95.311255 103.974922 
L 95.558729 104.808785 
L 95.776506 104.997282 
L 96.301152 104.770561 
L 96.558525 104.638073 
L 96.89509 104.362877 
L 97.112867 103.943757 
L 98.983773 100.752628 
L 99.359934 100.253754 
L 99.528216 100.070465 
L 100.666598 98.163054 
L 100.805183 98.096167 
L 101.399122 97.429143 
L 101.646596 97.20307 
L 102.616695 93.607239 
L 102.695887 91.083255 
L 102.794876 77.865681 
L 103.012654 41.189612 
L 103.062149 43.121787 
L 103.299724 68.079594 
L 103.665986 94.7884 
L 103.953056 101.872759 
L 104.230227 104.016823 
L 104.517297 104.863729 
L 104.744973 104.961754 
L 105.051842 104.771511 
L 105.428002 104.181515 
L 106.665374 101.803414 
L 108.397693 99.367534 
L 109.268803 98.014069 
L 109.456883 97.66966 
L 110.130013 96.129061 
L 110.516073 95.414334 
L 110.753648 93.525597 
L 110.83284 89.536792 
L 110.961527 66.544631 
L 111.129809 41.685567 
L 111.169405 42.642139 
L 111.31789 56.180318 
L 111.783141 95.231009 
L 112.060312 102.257455 
L 112.337484 104.481449 
L 112.594857 104.997829 
L 112.862129 105.091679 
L 113.030412 104.902017 
L 113.366977 104.505211 
L 114.01041 103.712826 
L 114.742933 102.565123 
L 115.020105 102.128493 
L 115.376467 101.487621 
L 115.93081 100.528372 
L 116.297072 99.775485 
L 117.17808 97.886568 
L 117.484948 97.291306 
L 117.712624 96.684069 
L 117.861109 95.481924 
L 117.940301 92.612181 
L 118.049189 76.682946 
L 118.266967 41.588343 
L 118.306563 42.872425 
L 118.484744 59.55756 
L 118.9104 93.167615 
L 119.217268 101.376312 
L 119.504338 104.039904 
L 119.741913 104.680328 
L 119.999287 104.791021 
L 120.226963 104.697979 
L 121.276254 103.595424 
L 122.236454 102.126024 
L 122.533423 101.712305 
L 122.939281 101.215379 
L 124.632005 98.915117 
L 126.027759 95.71021 
L 126.196042 95.370464 
L 126.384122 94.630214 
L 126.512809 93.157782 
L 126.592001 88.87552 
L 126.720687 64.958165 
L 126.879071 41.668879 
L 126.918667 42.612776 
L 127.067151 56.683568 
L 127.502706 92.873843 
L 127.789776 100.709406 
L 128.057048 103.072529 
L 128.413411 104.257345 
L 128.591593 104.309434 
L 128.967754 103.959707 
L 129.799267 102.811045 
L 130.125933 102.423463 
L 130.54169 101.650226 
L 131.60088 100.028443 
L 131.947344 99.665439 
L 132.27401 99.022202 
L 132.570979 98.247352 
L 133.046129 97.284887 
L 133.640067 95.879093 
L 133.937037 95.594337 
L 134.075622 95.471592 
L 134.352793 95.244119 
L 134.48148 94.973694 
L 134.897237 93.943572 
L 135.016024 93.807025 
L 135.223903 93.140294 
L 135.461478 91.450812 
L 135.550569 88.84704 
L 135.659457 75.298236 
L 135.887134 43.220941 
L 135.92673 44.337613 
L 136.095012 58.636571 
L 136.550365 93.381227 
L 136.837435 100.557856 
L 137.124505 103.229568 
L 137.381878 103.948716 
L 137.708544 104.318364 
L 137.975816 104.210547 
L 138.431169 103.935411 
L 138.955814 103.338522 
L 139.232986 103.077684 
L 139.609146 102.622386 
L 140.569347 100.922001 
L 141.460254 99.372536 
L 141.806718 98.934834 
L 142.370959 97.747738 
L 142.618433 97.502654 
L 143.212372 96.647696 
L 143.370755 96.430385 
L 143.954794 95.36108 
L 144.152774 95.121646 
L 144.330955 94.421794 
L 144.469541 92.890619 
L 144.558632 88.077803 
L 144.697217 61.841017 
L 144.855601 41.851135 
L 144.885298 42.612659 
L 145.023883 54.54729 
L 145.489135 93.01092 
L 145.786104 100.558346 
L 146.063275 103.154169 
L 146.290951 103.732491 
L 146.568123 103.968213 
L 146.845294 103.898683 
L 147.201657 103.411416 
L 147.478828 103.15604 
L 147.736201 102.992694 
L 148.250947 102.351388 
L 148.726098 101.705317 
L 149.300238 100.940935 
L 149.745692 100.496107 
L 150.062459 100.127204 
L 150.270337 99.778831 
L 150.547509 99.465263 
L 151.072154 98.912782 
L 151.992758 96.965844 
L 152.368919 95.172415 
L 152.45801 93.779866 
L 152.547101 87.237604 
L 152.824272 42.259252 
L 152.93316 48.625632 
L 153.556795 96.544951 
L 153.853765 102.252476 
L 154.101239 103.553645 
L 154.516996 104.417507 
L 154.655581 104.398168 
L 155.991942 102.89517 
L 157.041233 100.893399 
L 157.318404 100.268634 
L 157.852949 99.35379 
L 158.060827 99.071113 
L 158.476584 98.459209 
L 158.60527 98.337338 
L 158.89234 98.028457 
L 159.37739 97.78358 
L 159.486279 97.652222 
L 160.060419 96.653947 
L 160.268297 96.346232 
L 160.891932 94.970879 
L 161.070114 94.593845 
L 161.248295 94.45393 
L 161.386881 94.223541 
L 161.565062 94.134552 
L 161.664052 93.969772 
L 161.881829 93.658668 
L 161.961021 93.562593 
L 162.485667 91.714435 
L 162.614353 90.156805 
L 162.703444 85.931259 
L 162.84203 63.43898 
L 163.010312 43.498691 
L 163.040009 44.041011 
L 163.158797 52.635002 
L 163.70324 93.192807 
L 164.000209 99.645156 
L 164.346673 102.694073 
L 164.633743 103.396857 
L 164.920813 103.496958 
L 165.108894 103.335391 
L 166.138387 102.230428 
L 166.544244 101.853801 
L 166.702628 101.684607 
L 167.098587 101.270125 
L 167.326263 100.921316 
L 167.563838 100.598889 
L 167.811313 100.258274 
L 168.118181 99.777369 
L 168.98929 99.117173 
L 169.256562 98.704259 
L 169.553531 98.315874 
L 169.672319 98.178504 
L 169.880197 98.003496 
L 170.038581 97.824057 
L 170.424641 97.151097 
L 170.662216 96.947004 
L 171.127468 96.390844 
L 171.543224 96.094307 
L 171.691709 96.108685 
L 171.988678 96.12007 
L 172.147061 96.000975 
L 172.364839 95.523026 
L 172.632111 94.850665 
L 172.879585 92.835198 
L 172.968676 88.505754 
L 173.107262 64.926202 
L 173.285443 43.099274 
L 173.31514 43.802146 
L 173.443827 53.86101 
L 173.948674 93.035651 
L 174.235744 99.546726 
L 174.572309 102.627068 
L 174.809884 103.200165 
L 175.275136 103.377271 
L 175.651297 103.272464 
L 175.819579 103.107699 
L 176.997557 101.38929 
L 178.571493 98.732673 
L 178.898159 98.221796 
L 179.304017 97.65881 
L 179.709875 97.180794 
L 180.204823 96.203054 
L 180.392904 96.032846 
L 181.066034 94.597753 
L 181.204619 94.384877 
L 181.729265 93.200232 
L 182.026234 92.191414 
L 182.145021 90.837854 
L 182.234112 86.124889 
L 182.392496 58.838339 
L 182.54098 44.121796 
L 182.570677 44.671569 
L 182.689465 52.81617 
L 183.233908 92.91 
L 183.530877 99.482531 
L 183.857543 102.38188 
L 184.134714 103.396105 
L 184.362391 103.648352 
L 184.540572 103.668971 
L 185.144409 103.127163 
L 185.461176 102.610815 
L 186.183801 101.464889 
L 186.748043 100.596556 
L 187.163799 100.14357 
L 188.064606 98.48416 
L 188.411069 98.238914 
L 188.856523 97.888996 
L 189.727633 96.383041 
L 189.94541 96.028752 
L 190.153288 95.875972 
L 190.380965 95.313659 
L 190.608641 94.958675 
L 191.024398 94.915781 
L 191.549043 93.699921 
L 191.756921 93.416911 
L 191.776719 93.425223 
L 191.885608 93.362251 
L 192.647829 92.096451 
L 192.865606 92.215784 
L 193.014091 92.201275 
L 193.172474 92.258968 
L 193.31106 92.137979 
L 193.509039 91.987421 
L 193.528837 92.002152 
L 193.845604 92.479437 
L 194.152472 92.912138 
L 194.776107 93.089021 
L 194.924592 93.119265 
L 195.221561 93.486407 
L 195.676914 93.36954 
L 195.8056 93.366417 
L 195.815499 93.376509 
L 196.043176 93.776058 
L 196.19166 93.902827 
L 196.211458 93.893605 
L 196.488629 93.623234 
L 196.993477 92.825183 
L 197.34984 92.775764 
L 197.627011 93.038787 
L 197.884384 93.132444 
L 198.013071 92.933589 
L 198.280343 92.508086 
L 198.517918 92.377055 
L 198.705998 92.108296 
L 198.735695 92.094103 
L 198.765392 92.200202 
L 198.834685 93.589287 
L 199.418724 111.879439 
L 199.963168 118.565841 
L 200.576904 123.503047 
L 201.319327 127.851979 
L 201.972659 130.498994 
L 203.002152 133.691446 
L 203.843564 135.523891 
L 205.338309 137.890334 
L 206.249014 138.767131 
L 207.298305 139.459397 
L 207.644769 139.66649 
L 208.535676 140.098312 
L 208.88214 140.256709 
L 209.159311 140.352354 
L 210.357086 140.92515 
L 211.337084 141.116441 
L 211.693447 141.216261 
L 212.109204 141.258643 
L 213.356474 141.42976 
L 213.653443 141.487139 
L 214.178089 141.514524 
L 215.336268 141.55668 
L 217.989192 141.69589 
L 218.187172 141.704534 
L 218.771211 141.794467 
L 220.008582 141.753668 
L 220.434238 141.785763 
L 220.978681 141.804053 
L 221.770599 141.91529 
L 222.126962 141.92887 
L 223.512818 141.796057 
L 223.829585 141.801219 
L 224.156251 141.790172 
L 224.670997 141.77143 
L 225.819278 141.728973 
L 226.413216 141.74987 
L 226.670589 141.721083 
L 227.709981 141.719071 
L 236.866529 141.542022 
L 237.114003 141.552211 
L 238.173193 141.616779 
L 239.014605 141.655686 
L 241.420055 141.637728 
L 241.667529 141.61069 
L 242.083286 141.630223 
L 242.924698 141.686388 
L 248.359233 141.200873 
L 248.359233 141.200873 
" clip-path="url(#p9cee2e32eb)" style="fill: none; stroke: #000000; stroke-opacity: 0.5; stroke-width: 1.5; stroke-linecap: square"/>
   </g>
   <g id="line2d_17">
    <path d="M 45.450142 138.91373 
L 46.469736 138.869529 
L 46.826099 138.889186 
L 50.231345 138.889747 
L 50.290738 137.987973 
L 50.379829 131.371718 
L 50.736192 101.626432 
L 50.845081 87.460615 
L 51.04306 26.663842 
L 51.132151 38.959373 
L 51.478615 93.982165 
L 51.597403 95.901132 
L 51.636998 95.798098 
L 51.755786 94.436519 
L 52.122048 86.437265 
L 52.29033 79.285519 
L 52.5873 55.396235 
L 52.656592 57.011799 
L 52.87437 71.521688 
L 53.16144 84.260943 
L 53.319823 85.367826 
L 53.339621 85.351165 
L 53.438611 84.980202 
L 53.646489 83.066552 
L 54.062246 76.689548 
L 54.200832 70.773323 
L 54.458205 60.969219 
L 54.487902 61.028182 
L 54.576993 62.083457 
L 54.834366 68.62162 
L 55.260022 77.322568 
L 55.497597 78.744638 
L 55.606485 78.836047 
L 55.636182 78.798781 
L 55.75497 78.332157 
L 56.319211 74.582779 
L 56.586484 70.626859 
L 56.91315 67.639736 
L 57.00224 67.432449 
L 57.051735 67.47982 
L 57.20022 67.978708 
L 58.407894 73.215527 
L 58.417793 73.212872 
L 58.63557 73.232737 
L 58.83355 73.301548 
L 58.942438 73.148234 
L 59.209711 72.736648 
L 59.318599 72.659383 
L 59.447286 72.231715 
L 59.813548 70.811245 
L 59.882841 70.851025 
L 59.89274 70.872098 
L 60.090719 71.233972 
L 60.130315 71.198361 
L 60.288698 70.985919 
L 60.348092 71.073633 
L 60.882637 71.885553 
L 61.367686 72.40037 
L 61.446878 72.305738 
L 61.595362 71.923531 
L 61.763645 71.624228 
L 61.783443 71.631319 
L 61.991321 71.849443 
L 62.298189 72.210333 
L 62.614956 72.451905 
L 62.77334 72.666596 
L 62.822835 72.612358 
L 63.129703 72.321192 
L 63.268288 72.240349 
L 63.377177 72.293983 
L 63.812732 72.830901 
L 63.951317 72.85035 
L 63.961216 72.838437 
L 64.347276 72.48192 
L 64.475963 72.603492 
L 64.802629 72.990174 
L 65.040204 73.325421 
L 65.55495 74.333769 
L 65.693536 74.420252 
L 65.812324 74.448058 
L 65.832122 74.429131 
L 66.069697 74.317087 
L 66.287474 74.308522 
L 66.534949 74.267181 
L 66.970503 74.720357 
L 67.208079 74.738244 
L 67.782219 75.722 
L 67.9604 75.755799 
L 68.098986 75.821384 
L 68.237571 75.847824 
L 68.24747 75.839683 
L 68.782015 75.536082 
L 68.930499 75.822755 
L 69.158176 76.157856 
L 69.168075 76.153397 
L 69.395751 76.06241 
L 69.425448 76.110369 
L 69.702619 76.339088 
L 70.098578 76.340952 
L 70.336153 76.314195 
L 70.722213 76.526379 
L 71.03898 76.286552 
L 71.236959 76.425242 
L 71.385444 76.512089 
L 71.415141 76.481563 
L 71.583423 76.392584 
L 71.603221 76.410048 
L 71.791302 76.625271 
L 71.850696 76.525541 
L 72.335745 75.481179 
L 72.355543 75.49465 
L 72.692108 75.663422 
L 72.830694 75.523024 
L 72.929683 75.407172 
L 72.979178 75.471327 
L 73.711702 76.798046 
L 74.384832 77.48122 
L 74.434327 77.415265 
L 74.662003 77.267837 
L 74.909477 77.086061 
L 75.246042 76.360243 
L 75.414325 76.046348 
L 75.444022 76.06424 
L 75.6519 76.106707 
L 75.780587 76.235459 
L 75.899374 76.25656 
L 75.919172 76.234181 
L 76.334929 75.808556 
L 76.770484 76.107498 
L 77.275331 77.015798 
L 78.087047 77.296844 
L 78.304824 77.310865 
L 78.5325 77.171429 
L 78.680985 77.194572 
L 79.047247 77.268503 
L 79.265024 77.255015 
L 79.423408 77.214527 
L 79.700579 77.016799 
L 79.948053 76.986639 
L 80.284618 76.871374 
L 80.541991 76.392684 
L 80.710274 76.263272 
L 80.997344 76.420488 
L 81.195323 76.432957 
L 81.32401 76.348042 
L 81.363606 76.402455 
L 81.947645 77.305655 
L 82.353503 77.616835 
L 82.888047 77.518191 
L 83.165218 77.648952 
L 83.373097 77.682993 
L 83.491884 77.649645 
L 83.521581 77.687674 
L 84.075924 78.359647 
L 84.392691 78.299091 
L 84.729256 77.849903 
L 85.224204 77.681242 
L 85.402386 77.601846 
L 85.847839 76.915172 
L 86.016122 76.892543 
L 86.629858 77.179989 
L 87.213897 78.123402 
L 87.253493 78.092042 
L 87.411877 78.106509 
L 87.599957 78.01423 
L 87.966219 77.879374 
L 88.1444 77.915263 
L 88.322582 77.844154 
L 88.777935 77.295733 
L 89.01551 77.007462 
L 89.183792 77.115823 
L 89.40157 77.435466 
L 89.510458 77.5195 
L 89.550054 77.500795 
L 90.064801 77.457664 
L 90.26278 77.566756 
L 90.629042 77.510152 
L 90.787426 77.669486 
L 91.203182 78.338294 
L 91.282374 78.248078 
L 91.777323 77.196998 
L 91.915908 76.963028 
L 91.945605 76.977273 
L 92.509846 77.240345 
L 92.777119 77.254114 
L 93.004795 77.366791 
L 93.133481 77.314767 
L 93.539339 76.848044 
L 93.608632 76.939583 
L 93.767016 76.968079 
L 94.034288 76.794219 
L 94.20257 76.668337 
L 94.222368 76.682664 
L 94.40055 76.843336 
L 94.450044 76.757559 
L 94.747014 76.18402 
L 94.77671 76.206379 
L 95.16277 76.484754 
L 95.281558 76.548294 
L 95.608224 76.830388 
L 95.826001 76.910854 
L 95.93489 76.946457 
L 95.964587 76.916573 
L 96.380344 76.600062 
L 96.538727 76.670842 
L 96.786201 76.783887 
L 96.944585 76.822358 
L 97.132665 76.890359 
L 97.271251 76.945982 
L 97.409837 76.99276 
L 97.429635 76.972918 
L 97.627614 76.572253 
L 97.894886 76.240456 
L 98.310643 76.284051 
L 98.538319 76.66332 
L 98.746198 77.182397 
L 98.973874 77.507418 
L 99.191651 77.276758 
L 99.330237 77.28677 
L 99.518317 77.311299 
L 99.825185 77.350688 
L 100.280538 77.573321 
L 100.656699 77.443271 
L 100.815082 77.079858 
L 100.864577 77.142516 
L 101.03286 77.341102 
L 101.062557 77.32007 
L 101.468414 77.0309 
L 101.616899 77.209243 
L 101.804979 77.387413 
L 101.824777 77.373315 
L 102.012858 77.252845 
L 102.052454 77.299811 
L 102.270231 77.407052 
L 102.418715 77.502692 
L 102.596897 77.564908 
L 102.695887 77.633371 
L 102.923563 77.862347 
L 103.072048 77.700863 
L 103.200734 77.599502 
L 103.230431 77.618736 
L 103.418511 77.61927 
L 103.685784 77.590348 
L 103.844167 77.639334 
L 103.854066 77.63085 
L 104.210429 77.432945 
L 104.39851 77.611689 
L 104.497499 77.680193 
L 104.537095 77.646944 
L 104.675681 77.665237 
L 105.051842 77.853416 
L 105.457699 78.054807 
L 105.695275 78.076383 
L 105.913052 77.907127 
L 106.12093 77.996436 
L 106.31891 78.006389 
L 106.50699 77.696881 
L 106.734666 77.298304 
L 106.744565 77.30197 
L 107.031636 77.328979 
L 107.239514 77.089512 
L 107.259312 77.106295 
L 107.387999 77.451061 
L 107.724563 78.219331 
L 107.962139 78.423995 
L 108.189815 78.449184 
L 108.694663 78.713285 
L 108.803551 78.61337 
L 108.932238 78.431292 
L 108.971834 78.488143 
L 109.308399 78.991293 
L 109.466782 78.805281 
L 109.724155 78.540909 
L 110.44678 78.224068 
L 110.793244 77.565436 
L 110.822941 77.585785 
L 111.070415 77.965762 
L 111.149607 77.811479 
L 111.307991 77.643229 
L 111.327789 77.654954 
L 111.50597 77.945205 
L 112.099908 78.520605 
L 112.555261 78.298788 
L 112.792836 78.326299 
L 113.228391 78.144564 
L 113.297684 78.142549 
L 113.327381 78.180755 
L 113.564956 78.364521 
L 113.733238 78.222686 
L 113.990612 77.85361 
L 114.445964 77.625867 
L 115.119094 76.526588 
L 115.218084 76.349819 
L 115.267579 76.401328 
L 115.475457 77.040258 
L 115.614043 77.223507 
L 115.64374 77.201232 
L 115.83182 77.091319 
L 115.861517 77.121981 
L 116.168385 77.321202 
L 116.346567 77.367295 
L 116.980101 77.87682 
L 117.187979 77.904573 
L 117.376059 78.099773 
L 117.46515 78.159363 
L 117.504746 78.106699 
L 117.772018 77.756995 
L 117.791816 77.768313 
L 118.108583 77.853788 
L 118.435249 77.706873 
L 118.573835 77.478256 
L 118.62333 77.538107 
L 118.851006 77.731973 
L 119.227167 77.918049 
L 119.662722 77.547405 
L 119.949792 77.420514 
L 120.068579 77.303514 
L 120.296256 76.95818 
L 120.34575 77.006682 
L 120.613023 77.293785 
L 120.64272 77.26988 
L 120.811002 76.977006 
L 120.949588 76.648245 
L 120.999083 76.702263 
L 121.226759 76.845022 
L 121.335648 76.684233 
L 121.553425 76.209031 
L 121.612819 76.243967 
L 122.602716 76.774938 
L 122.790796 76.696525 
L 122.810594 76.721783 
L 123.345138 77.371992 
L 123.562916 77.526678 
L 123.90938 77.876491 
L 124.711196 78.181223 
L 124.919075 77.944679 
L 124.948772 77.966972 
L 125.146751 78.047913 
L 125.166549 78.023945 
L 125.404124 77.879072 
L 126.047557 77.727549 
L 126.265335 77.894269 
L 126.443516 77.953474 
L 126.730586 78.105172 
L 126.879071 78.174463 
L 127.067151 78.231642 
L 127.235434 78.103648 
L 127.502706 77.876063 
L 128.007553 77.541503 
L 128.245129 77.242034 
L 128.492603 77.332269 
L 128.5223 77.26972 
L 128.749976 77.047019 
L 129.225127 76.770158 
L 129.343914 76.684888 
L 129.611187 76.500742 
L 129.918055 76.708503 
L 130.224923 77.203552 
L 130.660477 77.150629 
L 130.838659 76.846323 
L 130.898053 76.914677 
L 131.165325 77.225928 
L 131.185123 77.213619 
L 131.986939 76.793162 
L 132.501686 77.347192 
L 132.570979 77.245854 
L 132.907544 76.883067 
L 133.145119 76.749113 
L 133.451987 76.652187 
L 133.917239 76.987985 
L 134.402288 77.559742 
L 134.689358 77.50405 
L 134.877439 77.723286 
L 134.926934 77.673763 
L 135.303094 77.349617 
L 136.124709 77.027827 
L 136.312789 76.880153 
L 136.580062 76.830803 
L 136.916627 76.628122 
L 137.104707 76.884669 
L 137.411575 77.127904 
L 137.668948 76.869915 
L 137.866928 76.619519 
L 137.896625 76.648215 
L 138.272785 76.970764 
L 138.619249 76.935473 
L 138.827128 76.85104 
L 139.114198 76.943087 
L 139.549753 77.625397 
L 139.757631 77.612533 
L 140.064499 77.509476 
L 140.450559 77.720025 
L 141.024699 77.938031 
L 141.173184 77.918591 
L 141.846314 77.656559 
L 142.252172 77.709295 
L 142.549141 77.823078 
L 142.915403 77.898974 
L 143.13318 78.01325 
L 143.360856 77.88012 
L 143.667724 77.505698 
L 143.885502 77.555292 
L 144.123077 77.658309 
L 144.439844 77.466879 
L 144.895197 76.86421 
L 145.172368 76.785799 
L 145.796003 75.917671 
L 145.924689 75.967351 
L 146.518628 76.632684 
L 146.865092 76.618328 
L 147.043273 76.838059 
L 147.290747 77.163865 
L 147.577817 77.235964 
L 147.736201 77.304444 
L 147.765898 77.27007 
L 147.904483 77.193505 
L 147.93418 77.223974 
L 148.23115 77.433642 
L 148.924077 77.243641 
L 149.230945 76.96331 
L 149.240844 76.970416 
L 149.518016 77.064954 
L 149.76549 77.095835 
L 150.05256 77.248627 
L 150.270337 77.120167 
L 150.43862 77.088129 
L 150.448519 77.101281 
L 150.745488 77.520468 
L 150.804882 77.470208 
L 151.151346 77.098092 
L 151.21074 77.196763 
L 151.438416 77.563387 
L 151.468113 77.541368 
L 152.269929 76.782614 
L 152.962857 77.264534 
L 153.635987 77.459523 
L 154.061643 77.143654 
L 154.437804 77.300417 
L 154.625884 77.068832 
L 154.982247 76.307091 
L 155.002045 76.315331 
L 155.180227 76.515237 
L 155.358408 76.73203 
L 155.388105 76.711052 
L 155.556387 76.716994 
L 155.704872 76.632229 
L 155.843458 76.545562 
L 155.873154 76.578947 
L 156.368103 77.110849 
L 156.467093 76.97003 
L 156.744264 76.598369 
L 156.892748 76.648902 
L 157.288707 76.99623 
L 157.417394 76.918391 
L 157.565878 76.946874 
L 157.793555 77.161593 
L 158.268705 77.9202 
L 158.3182 77.875702 
L 158.70426 77.372934 
L 158.773553 77.477634 
L 159.070522 78.0507 
L 159.110118 78.021706 
L 159.515976 77.728225 
L 159.674359 77.678444 
L 159.773349 77.677986 
L 159.793147 77.703524 
L 160.040621 77.882449 
L 160.466277 77.79529 
L 160.882033 77.212744 
L 161.179003 77.108181 
L 161.317588 77.143346 
L 161.456174 77.084903 
L 161.693749 76.93284 
L 161.703648 76.941121 
L 162.010516 77.081431 
L 162.208495 77.011281 
L 162.525262 77.037969 
L 162.663848 77.12849 
L 162.871726 77.295168 
L 162.901423 77.252502 
L 163.188493 76.928411 
L 163.534957 76.743307 
L 163.544856 76.755614 
L 163.970512 77.423008 
L 164.039805 77.327626 
L 164.227885 77.139304 
L 164.247683 77.150601 
L 164.703036 77.308581 
L 165.504852 76.525352 
L 165.593943 76.641225 
L 166.19778 77.150991 
L 166.336366 77.090472 
L 166.564042 76.983989 
L 167.078789 77.238868 
L 167.464849 76.888523 
L 167.494545 76.921987 
L 167.722222 77.054826 
L 168.385453 76.559062 
L 168.553735 76.483022 
L 168.712119 76.396378 
L 169.256562 75.870406 
L 169.721814 76.207147 
L 169.909894 76.221498 
L 170.078177 76.192696 
L 170.761206 76.696235 
L 170.949286 76.777805 
L 171.889688 77.885663 
L 172.216354 77.590602 
L 172.592515 77.08674 
L 172.938979 76.847914 
L 173.582412 76.240974 
L 173.671503 76.365132 
L 173.88928 76.648811 
L 174.037765 76.729078 
L 174.27534 76.961751 
L 174.285239 76.955475 
L 174.423825 76.704607 
L 174.552511 76.586752 
L 174.582208 76.606797 
L 175.077157 76.935194 
L 175.671095 76.677532 
L 175.869074 76.726881 
L 176.373922 76.710602 
L 176.522406 76.695342 
L 176.77978 76.305093 
L 176.918365 76.035997 
L 176.957961 76.082993 
L 177.363819 76.66116 
L 177.64099 76.821483 
L 177.848868 76.89274 
L 178.175534 77.148965 
L 178.630887 76.812753 
L 178.680382 76.879402 
L 178.828866 76.981641 
L 178.858563 76.953547 
L 179.145633 76.763847 
L 179.442603 77.058643 
L 180.254318 78.232595 
L 180.630479 78.188049 
L 180.739368 78.157373 
L 180.769065 78.196685 
L 180.976943 78.400804 
L 181.00664 78.375287 
L 181.323407 77.869942 
L 181.521386 77.72588 
L 181.996537 77.673304 
L 182.204415 77.329547 
L 182.392496 77.190925 
L 182.550879 77.129078 
L 183.055727 76.690139 
L 183.303201 76.697036 
L 183.421989 76.571977 
L 183.461584 76.607413 
L 183.78825 76.932641 
L 183.817947 76.901069 
L 184.253502 76.493524 
L 184.451481 76.472409 
L 184.689057 76.740738 
L 184.857339 76.763456 
L 185.263197 76.986632 
L 185.510671 77.257486 
L 185.639358 77.096681 
L 185.966024 76.707249 
L 186.233296 76.808672 
L 186.738144 77.3233 
L 187.084607 77.218122 
L 187.381577 77.469543 
L 187.708243 77.583389 
L 188.272484 77.178091 
L 188.767432 76.976283 
L 188.945614 76.898439 
L 189.143593 76.888986 
L 189.400967 76.500873 
L 189.509855 76.601092 
L 189.668239 76.566338 
L 189.866218 76.548643 
L 190.153288 76.752836 
L 190.460156 77.116956 
L 190.668035 77.075205 
L 190.895711 76.941006 
L 191.19268 77.196269 
L 191.539144 77.507473 
L 191.806416 77.691004 
L 192.014295 77.785315 
L 192.25187 77.796526 
L 192.766616 77.771383 
L 193.014091 77.501606 
L 193.459544 77.691341 
L 193.845604 78.106277 
L 193.914897 78.00122 
L 194.112876 77.853251 
L 194.291058 77.821459 
L 194.865198 77.07833 
L 194.964188 76.947025 
L 195.013683 77.010478 
L 195.370046 77.522331 
L 195.488833 77.472072 
L 195.766004 77.283785 
L 196.033277 77.22999 
L 196.142165 77.163847 
L 196.181761 77.2109 
L 196.300549 77.319943 
L 196.340145 77.283198 
L 196.548023 77.176985 
L 197.231052 77.573926 
L 197.339941 77.388868 
L 197.547819 77.045862 
L 197.577516 77.063154 
L 197.993273 77.287359 
L 198.359535 77.029655 
L 198.59711 76.95076 
L 198.686201 76.832657 
L 198.725796 76.94877 
L 198.78519 78.115085 
L 198.88418 86.519372 
L 199.161351 107.125794 
L 199.527613 116.197413 
L 200.081955 124.089833 
L 200.557106 128.186237 
L 201.408417 133.064437 
L 202.101345 135.578617 
L 202.675486 137.056175 
L 203.160535 138.03211 
L 204.110836 139.514371 
L 205.882752 141.193171 
L 206.615276 141.567313 
L 207.070628 141.817331 
L 208.466383 142.342447 
L 209.060321 142.550513 
L 209.377088 142.639014 
L 209.792845 142.732783 
L 211.47567 143.016713 
L 212.455668 143.123715 
L 213.039707 143.231403 
L 216.019297 143.544745 
L 218.028788 143.638763 
L 218.59303 143.639992 
L 220.246158 143.621581 
L 220.642116 143.647686 
L 227.155639 143.690324 
L 227.452608 143.68694 
L 230.996439 143.463087 
L 231.412196 143.351337 
L 232.293204 143.428625 
L 232.471386 143.407072 
L 232.728759 143.375452 
L 233.312798 143.376944 
L 233.728555 143.395535 
L 234.16411 143.418821 
L 235.154007 143.320101 
L 235.530168 143.247892 
L 239.865917 142.977609 
L 240.133189 143.006947 
L 244.35015 142.662489 
L 244.825301 142.676453 
L 245.082674 142.602887 
L 245.755804 142.55575 
L 246.399237 142.557649 
L 247.072367 142.480007 
L 247.527719 142.439509 
L 248.359233 142.351731 
L 248.359233 142.351731 
" clip-path="url(#p9cee2e32eb)" style="fill: none; stroke: #000000; stroke-opacity: 0.5; stroke-width: 1.5; stroke-linecap: square"/>
   </g>
   <g id="line2d_18">
    <path d="M 45.450142 141.234317 
L 47.934784 141.276661 
L 48.152561 141.241054 
L 48.904883 141.123803 
L 50.211547 141.023388 
L 50.261042 140.366273 
L 50.330334 135.356003 
L 50.528314 91.298025 
L 50.716394 24.216223 
L 50.785687 14.76 
L 50.835182 19.733921 
L 51.260838 74.672897 
L 51.320231 75.224793 
L 51.379625 74.910394 
L 51.547908 71.850365 
L 51.825079 62.830552 
L 52.072553 54.593301 
L 52.092351 54.629505 
L 52.181442 55.438568 
L 52.77538 63.144454 
L 52.844673 62.951483 
L 53.092147 61.044542 
L 53.785075 54.915558 
L 53.83457 55.02753 
L 54.091943 56.679717 
L 54.458205 58.294329 
L 54.547296 58.176699 
L 54.69578 57.563406 
L 54.933355 56.208276 
L 54.98285 56.264591 
L 55.101638 56.448181 
L 55.151133 56.383647 
L 55.804465 54.956877 
L 55.863859 55.003146 
L 56.012343 55.143688 
L 56.051939 55.067777 
L 56.418201 54.246343 
L 56.447898 54.261149 
L 56.655776 54.504496 
L 56.863655 55.178123 
L 56.923048 55.149383 
L 57.061634 55.204388 
L 57.368502 55.466601 
L 57.427896 55.368173 
L 57.665471 55.127846 
L 57.764461 55.026537 
L 57.883249 54.828469 
L 57.932743 54.908913 
L 58.279207 55.72342 
L 58.328702 55.687632 
L 58.704863 55.399219 
L 58.73456 55.444398 
L 59.199812 56.234246 
L 59.239408 56.192886 
L 59.813548 55.092987 
L 59.98183 54.813322 
L 60.001628 54.820139 
L 60.189709 55.024491 
L 60.704455 56.214231 
L 61.090515 57.923391 
L 61.377585 58.480301 
L 61.496373 58.429928 
L 61.664655 58.301642 
L 61.704251 58.355563 
L 61.90223 58.522434 
L 61.912129 58.516409 
L 62.407078 58.04353 
L 62.684249 57.686051 
L 62.733744 57.737377 
L 63.080208 58.177865 
L 63.139602 58.105248 
L 63.337581 57.927284 
L 63.357379 57.942457 
L 63.555359 57.982844 
L 63.664247 58.039911 
L 63.951317 58.350656 
L 64.089903 58.47756 
L 64.129499 58.437599 
L 64.555155 58.016477 
L 65.416365 57.627549 
L 65.693536 57.918158 
L 65.733132 57.883551 
L 65.842021 57.867502 
L 65.861819 57.89306 
L 66.158788 58.151518 
L 66.406262 58.230554 
L 66.564645 58.715896 
L 66.891311 59.727966 
L 66.90121 59.72381 
L 67.138786 59.6972 
L 67.514947 59.955802 
L 67.663431 59.949681 
L 67.861411 59.913518 
L 68.227672 60.306422 
L 68.34646 60.366495 
L 68.376157 60.334744 
L 68.643429 60.144887 
L 68.782015 60.179379 
L 68.970095 60.222196 
L 69.078984 60.344823 
L 69.484842 60.998298 
L 69.663023 61.085713 
L 69.69272 61.044199 
L 70.108477 60.508132 
L 70.256961 60.41107 
L 70.662819 59.640054 
L 70.959788 59.648287 
L 71.434939 60.072567 
L 71.583423 60.277206 
L 71.959584 60.618736 
L 72.048675 60.512712 
L 72.187261 60.302283 
L 72.236755 60.351939 
L 72.682209 60.821289 
L 72.899986 60.869148 
L 73.107865 60.94679 
L 73.484026 61.254771 
L 73.939378 61.152497 
L 74.186853 61.38225 
L 74.325438 61.498555 
L 74.424428 61.52514 
L 74.454125 61.493259 
L 74.731296 61.315348 
L 75.17675 61.414549 
L 75.315335 61.243733 
L 75.681597 60.82616 
L 75.998364 60.922971 
L 76.186444 61.076886 
L 76.22604 61.019033 
L 76.463616 60.779965 
L 76.473515 60.785215 
L 76.730888 61.047387 
L 76.988261 61.238442 
L 76.99816 61.230707 
L 77.28523 61.106478 
L 77.740583 61.690047 
L 77.95836 61.833018 
L 78.285026 62.013036 
L 78.483006 61.799052 
L 78.542399 61.900977 
L 78.760177 62.135355 
L 78.898762 62.259025 
L 79.314519 62.793976 
L 79.482802 62.734422 
L 79.651084 62.370451 
L 79.839164 62.217665 
L 80.066841 62.337297 
L 80.621183 62.423667 
L 81.165626 61.745613 
L 81.32401 61.477324 
L 81.363606 61.50753 
L 81.591282 61.611203 
L 81.71007 61.684144 
L 81.957544 61.797785 
L 82.264412 61.789285 
L 82.501987 61.838701 
L 82.709866 61.865684 
L 82.868249 62.066062 
L 83.086027 62.307839 
L 83.095926 62.302615 
L 83.234511 62.086056 
L 83.501783 61.669785 
L 83.848247 61.848833 
L 84.11552 61.952105 
L 84.244206 61.903122 
L 84.273903 61.934598 
L 84.461984 62.001114 
L 84.867841 61.784324 
L 85.026225 61.991454 
L 85.253901 62.208418 
L 85.273699 62.191189 
L 85.639961 61.936503 
L 85.818142 62.084696 
L 86.03592 62.155574 
L 86.837736 62.177196 
L 87.055514 62.246065 
L 87.194099 62.40354 
L 87.441574 62.626121 
L 87.57026 62.573788 
L 88.183996 61.95077 
L 88.193895 61.961325 
L 88.411673 62.343541 
L 88.500763 62.213556 
L 88.659147 62.175225 
L 88.896722 62.143739 
L 89.144196 62.050472 
L 89.460964 62.135098 
L 89.649044 62.087774 
L 89.827225 62.137003 
L 90.530052 63.69349 
L 90.629042 63.748713 
L 90.668638 63.714669 
L 90.846819 63.677821 
L 91.044799 63.679395 
L 91.341768 63.447023 
L 91.549646 63.3649 
L 91.737727 63.242882 
L 92.014898 63.388606 
L 92.301968 63.676166 
L 92.430655 63.619099 
L 92.836512 63.173882 
L 93.024593 63.129958 
L 93.133481 63.029523 
L 93.489844 62.693706 
L 93.707622 62.846329 
L 93.856106 62.865934 
L 93.866005 62.853592 
L 94.232267 62.446913 
L 94.271863 62.488086 
L 94.529236 62.753756 
L 94.568832 62.711249 
L 94.964791 62.303785 
L 95.192467 62.248067 
L 95.410245 62.205377 
L 95.558729 62.357775 
L 96.014082 62.757404 
L 96.192263 62.670769 
L 96.400142 62.581854 
L 96.627818 62.689594 
L 96.825797 62.694535 
L 97.489028 62.463004 
L 97.865189 62.641868 
L 98.24135 63.035805 
L 98.379936 63.007101 
L 98.558117 62.945904 
L 98.775894 62.923294 
L 99.023369 62.870428 
L 99.359934 62.836869 
L 99.518317 62.636195 
L 99.815286 62.173368 
L 100.003367 62.197475 
L 100.16175 62.237392 
L 100.171649 62.227286 
L 100.567608 61.868523 
L 100.597305 61.906476 
L 100.943769 62.265477 
L 101.359526 62.465294 
L 101.933666 61.980157 
L 102.092049 61.765714 
L 102.121746 61.78149 
L 102.37912 62.10686 
L 102.646392 62.274148 
L 102.794876 62.369598 
L 103.012654 62.50591 
L 103.270027 62.627409 
L 103.62639 62.71035 
L 103.883763 62.563818 
L 104.061945 62.460591 
L 104.289621 62.232431 
L 104.339116 62.32645 
L 104.546994 62.546945 
L 104.952852 62.556541 
L 105.596285 61.752005 
L 105.635881 61.801454 
L 105.843759 61.936694 
L 105.952648 62.106089 
L 106.130829 62.230441 
L 106.338708 62.338331 
L 106.60598 62.76719 
L 106.695071 62.646562 
L 106.873252 62.568262 
L 107.08113 62.73922 
L 107.219716 62.683969 
L 107.536483 62.609912 
L 107.803755 62.60537 
L 108.001735 62.483354 
L 108.021533 62.500997 
L 108.288805 62.615858 
L 108.52638 62.36984 
L 108.595673 62.462535 
L 108.81345 62.986716 
L 109.001531 63.166986 
L 109.159914 63.261563 
L 109.357894 63.32613 
L 109.763751 63.45356 
L 109.882539 63.534092 
L 109.912236 63.510839 
L 110.209205 63.398073 
L 110.575467 63.546513 
L 110.803143 63.318227 
L 111.040719 62.888005 
L 111.080314 62.90804 
L 111.595061 63.054093 
L 111.79304 62.941129 
L 111.961323 63.002658 
L 112.119706 63.137848 
L 112.149403 63.119828 
L 112.644352 62.633929 
L 112.891826 62.333915 
L 113.119502 62.519428 
L 113.228391 62.623431 
L 113.267987 62.582314 
L 113.535259 62.36357 
L 113.792632 62.311841 
L 114.040106 62.185183 
L 114.218288 62.263403 
L 114.48556 62.477036 
L 114.782529 62.745925 
L 115.0597 62.835175 
L 115.218084 62.827331 
L 115.416063 62.791584 
L 115.54475 62.660271 
L 115.663538 62.572374 
L 115.703133 62.61227 
L 115.911012 63.111682 
L 116.019901 63.226547 
L 116.059496 63.202221 
L 116.950404 62.4367 
L 117.108787 62.291449 
L 117.128585 62.303333 
L 117.554241 62.508916 
L 117.75222 62.450613 
L 118.474845 63.072214 
L 119.138076 62.728986 
L 119.494439 62.841755 
L 119.682519 62.764434 
L 119.801307 62.634135 
L 119.979489 62.565188 
L 120.434841 63.006745 
L 120.583326 63.073867 
L 120.603124 63.057952 
L 120.820901 63.011059 
L 121.008981 62.993124 
L 121.325749 63.064056 
L 121.543526 63.040794 
L 122.038474 62.639125 
L 122.196858 62.587823 
L 122.513625 62.669238 
L 122.622514 62.767278 
L 122.820493 62.90002 
L 123.127361 63.12509 
L 123.513421 63.204905 
L 124.434025 63.085087 
L 124.958671 63.330678 
L 125.216044 63.260592 
L 125.433821 63.232799 
L 125.859477 62.922946 
L 126.176244 62.615524 
L 126.700889 62.445307 
L 126.869172 62.496559 
L 126.88897 62.469668 
L 127.057252 62.419138 
L 127.255232 62.402343 
L 127.433413 62.387146 
L 127.740281 62.457237 
L 127.898665 62.50548 
L 128.156038 62.609175 
L 128.32432 62.6035 
L 128.5223 62.908154 
L 128.690582 63.005285 
L 129.205329 62.851231 
L 129.442904 62.857427 
L 129.591389 62.589111 
L 129.799267 62.395019 
L 129.957651 62.521294 
L 130.106135 62.531233 
L 130.581286 62.354168 
L 130.719871 62.410223 
L 130.917851 62.597448 
L 130.957447 62.545739 
L 131.096032 62.392484 
L 131.135628 62.433323 
L 131.531587 62.858689 
L 131.541486 62.850312 
L 131.719667 62.709438 
L 131.769162 62.766258 
L 132.135424 63.006484 
L 132.27401 63.125457 
L 132.481888 63.218138 
L 132.937241 63.22592 
L 133.659865 62.781823 
L 133.798451 62.937461 
L 134.115218 63.155151 
L 134.461682 63.010453 
L 134.610167 63.078835 
L 134.639863 63.049613 
L 134.907136 62.926452 
L 135.15461 62.560093 
L 135.322892 62.407579 
L 135.34269 62.419873 
L 136.263295 62.923876 
L 136.421678 62.721357 
L 136.797839 62.262731 
L 136.926526 62.38968 
L 137.164101 62.531056 
L 137.183899 62.506567 
L 137.599656 61.941232 
L 137.64915 62.000189 
L 138.084705 62.556489 
L 138.549957 62.759711 
L 138.777633 62.735748 
L 138.965713 62.765383 
L 139.183491 62.875686 
L 139.916015 62.459025 
L 140.113994 62.414336 
L 140.272377 62.630661 
L 140.420862 62.670863 
L 140.737629 62.327302 
L 140.915811 62.222848 
L 141.093992 62.203225 
L 141.222679 62.080266 
L 141.262274 62.118129 
L 141.450355 62.571844 
L 141.727526 63.060922 
L 141.975 63.062381 
L 142.786716 63.175308 
L 143.13318 63.386833 
L 143.360856 63.341035 
L 143.499442 63.2342 
L 143.657825 63.130951 
L 143.687522 63.154142 
L 144.113178 63.390718 
L 144.984287 62.969367 
L 145.122873 62.89759 
L 145.142671 62.910364 
L 145.449539 63.010724 
L 145.657417 63.013946 
L 145.835599 63.084928 
L 145.984083 63.191794 
L 146.092972 63.191 
L 146.11277 63.162488 
L 146.667112 62.423787 
L 147.181859 62.272555 
L 148.161857 63.124914 
L 148.478624 63.159615 
L 148.80529 62.875154 
L 149.141855 62.445532 
L 149.884278 62.019878 
L 150.161449 62.362721 
L 150.33963 62.389761 
L 150.854377 62.338523 
L 151.052356 62.151975 
L 151.161245 62.031021 
L 151.21074 62.088562 
L 151.478012 62.333666 
L 151.695789 62.317065 
L 152.636191 61.294153 
L 152.665888 61.334073 
L 152.903463 61.525993 
L 153.160837 61.796302 
L 153.339018 61.851041 
L 153.942855 61.787943 
L 154.516996 62.165175 
L 154.536794 62.136119 
L 154.86346 61.76622 
L 155.002045 61.940222 
L 155.308913 62.216848 
L 155.833559 62.726064 
L 155.892952 62.656358 
L 156.071134 62.553772 
L 156.090932 62.576028 
L 156.457194 62.952464 
L 157.041233 62.596978 
L 157.803454 61.88038 
L 157.912342 61.714118 
L 158.011332 61.639331 
L 158.050928 61.671902 
L 158.258806 61.725459 
L 158.357796 61.822635 
L 158.664664 62.467039 
L 158.70426 62.433894 
L 158.89234 62.225278 
L 158.941835 62.286112 
L 159.18931 62.487544 
L 159.387289 62.418433 
L 159.525874 62.441123 
L 159.783248 62.913092 
L 160.05052 63.185626 
L 160.189105 63.261558 
L 160.396984 63.333354 
L 160.664256 63.012591 
L 161.080013 62.546628 
L 161.228497 62.463387 
L 161.248295 62.47814 
L 161.822436 62.926006 
L 161.862031 62.868255 
L 161.961021 62.797429 
L 162.000617 62.833579 
L 162.1689 62.855436 
L 162.426273 62.823283 
L 162.713343 62.910351 
L 162.891524 62.789425 
L 163.148898 62.575122 
L 164.069502 62.733835 
L 164.198188 62.797049 
L 164.227885 62.762813 
L 164.505056 62.541762 
L 164.673339 62.477944 
L 165.009904 62.305265 
L 165.871114 62.591682 
L 166.128488 63.052294 
L 166.445255 63.060328 
L 166.692729 62.996977 
L 167.098587 62.900661 
L 167.227273 62.819894 
L 167.850908 62.464004 
L 168.058787 62.384085 
L 168.197372 62.41268 
L 168.464645 62.519115 
L 168.870502 62.443873 
L 168.969492 62.478381 
L 168.999189 62.444686 
L 169.207067 62.277208 
L 169.236764 62.300167 
L 169.672319 62.50529 
L 170.018783 62.376992 
L 170.177166 62.661873 
L 170.583024 63.301389 
L 170.711711 63.225187 
L 171.147265 62.84694 
L 171.464033 62.951686 
L 171.473932 62.935343 
L 171.572921 62.85943 
L 171.612517 62.904647 
L 171.731305 62.994172 
L 171.770901 62.946943 
L 172.374738 62.130635 
L 172.681606 62.254931 
L 172.968676 62.431634 
L 173.325039 62.381105 
L 173.720998 62.515832 
L 173.978371 62.621583 
L 174.107058 62.497317 
L 174.37433 62.167621 
L 174.394128 62.181915 
L 174.740592 62.66278 
L 175.166247 63.047266 
L 175.33453 63.019508 
L 175.730489 62.719126 
L 175.938367 62.597016 
L 176.265033 62.472594 
L 176.354124 62.453967 
L 176.383821 62.488893 
L 176.700588 62.771157 
L 176.96786 62.701221 
L 177.344021 62.330498 
L 178.046848 62.502402 
L 178.284423 62.20431 
L 178.333918 62.245121 
L 178.88826 62.568163 
L 179.036745 62.485443 
L 179.234724 62.471992 
L 179.66038 62.714611 
L 179.680178 62.687575 
L 180.086036 62.248099 
L 180.244419 62.238555 
L 180.472095 62.146194 
L 180.650277 62.103735 
L 180.660176 62.115774 
L 180.858155 62.203399 
L 181.046236 62.209657 
L 181.174922 62.140567 
L 181.491689 61.894805 
L 181.67977 61.97112 
L 182.273708 62.709902 
L 182.758758 63.270049 
L 182.976535 63.433183 
L 183.243807 63.524129 
L 183.570473 63.416977 
L 183.689261 63.359536 
L 183.946634 63.283964 
L 184.17431 63.167113 
L 184.580168 62.764377 
L 184.609865 62.806647 
L 184.797945 63.063186 
L 184.837541 63.0249 
L 184.995925 62.945958 
L 185.015723 62.963032 
L 185.372086 63.152881 
L 186.1937 63.2644 
L 186.322387 63.315097 
L 186.490669 63.351553 
L 186.589659 63.433942 
L 186.76784 63.555695 
L 187.183597 63.526707 
L 187.371678 63.492263 
L 187.520162 63.238961 
L 187.668647 63.081419 
L 187.698344 63.1021 
L 187.945818 63.18757 
L 188.420968 63.079013 
L 188.609049 63.061266 
L 188.975311 62.693358 
L 189.034705 62.777167 
L 189.321775 63.041714 
L 189.539552 63.017756 
L 190.242379 62.370621 
L 190.400763 62.55537 
L 190.757125 62.83559 
L 191.083791 62.964484 
L 191.667831 62.23932 
L 191.945002 61.86753 
L 192.063789 62.020795 
L 192.301365 62.267998 
L 192.905202 62.433527 
L 193.231868 62.214914 
L 193.469443 62.18184 
L 193.914897 62.115356 
L 194.390047 61.80702 
L 194.607825 61.63617 
L 194.924592 61.666163 
L 195.181965 61.923511 
L 195.756105 62.058634 
L 196.567821 63.010747 
L 196.587619 62.995458 
L 196.844992 62.930321 
L 197.141961 63.02593 
L 197.330042 62.958564 
L 197.973475 62.721564 
L 198.21105 62.47159 
L 198.607009 62.431724 
L 198.676302 62.462299 
L 198.686201 62.490315 
L 198.745594 63.186419 
L 198.814887 67.962987 
L 199.299937 118.885503 
L 199.685997 127.096811 
L 200.151248 132.441136 
L 200.636298 135.840176 
L 201.200539 138.376248 
L 201.744982 139.808986 
L 202.230032 140.712185 
L 203.625787 142.153311 
L 204.021745 142.286915 
L 205.22942 142.643641 
L 206.536084 143.163769 
L 207.258709 143.28582 
L 207.951637 143.537873 
L 208.416888 143.608152 
L 210.040319 143.835503 
L 210.337288 143.917207 
L 210.683752 143.921555 
L 211.634054 143.958044 
L 212.307184 144.035716 
L 212.653647 143.984367 
L 212.990212 144.02078 
L 215.118491 144.212591 
L 215.455056 144.226103 
L 215.791621 144.276066 
L 216.870609 144.313534 
L 217.345759 144.297407 
L 217.801112 144.299171 
L 222.671405 144.285388 
L 223.087162 144.292366 
L 224.938269 144.241627 
L 225.235239 144.204513 
L 225.759884 144.107737 
L 225.947964 144.12831 
L 226.136045 144.105114 
L 226.482509 144.041956 
L 227.106144 144.087593 
L 227.413012 144.051753 
L 227.799072 144.066048 
L 228.333616 144.042868 
L 228.600888 144.022815 
L 230.481693 144.028225 
L 230.847955 144.005791 
L 231.639872 144.026349 
L 231.926942 143.993447 
L 233.708757 143.872089 
L 234.055221 143.859633 
L 234.946128 143.925285 
L 235.183704 143.85759 
L 235.846935 143.812722 
L 239.608543 143.766436 
L 240.152987 143.70627 
L 240.905308 143.768441 
L 241.291368 143.800257 
L 241.677428 143.789014 
L 242.023892 143.70896 
L 242.301063 143.676006 
L 245.12227 143.61348 
L 245.359845 143.582236 
L 246.716004 143.512454 
L 247.092165 143.544173 
L 248.359233 143.513939 
L 248.359233 143.513939 
" clip-path="url(#p9cee2e32eb)" style="fill: none; stroke: #000000; stroke-opacity: 0.5; stroke-width: 1.5; stroke-linecap: square"/>
   </g>
   <g id="patch_3">
    <path d="M 35.304688 173.52 
L 35.304688 7.2 
" style="fill: none; stroke: #000000; stroke-width: 0.8; stroke-linejoin: miter; stroke-linecap: square"/>
   </g>
   <g id="patch_4">
    <path d="M 35.304688 173.52 
L 258.504687 173.52 
" style="fill: none; stroke: #000000; stroke-width: 0.8; stroke-linejoin: miter; stroke-linecap: square"/>
   </g>
  </g>
 </g>
 <defs>
  <clipPath id="p9cee2e32eb">
   <rect x="35.304688" y="7.2" width="223.2" height="166.32"/>
  </clipPath>
 </defs>
</svg>
