<?xml version="1.0" encoding="utf-8" standalone="no"?>
<!DOCTYPE svg PUBLIC "-//W3C//DTD SVG 1.1//EN"
  "http://www.w3.org/Graphics/SVG/1.1/DTD/svg11.dtd">
<svg xmlns:xlink="http://www.w3.org/1999/xlink" width="460.8pt" height="345.6pt" viewBox="0 0 460.8 345.6" xmlns="http://www.w3.org/2000/svg" version="1.1">
 <metadata>
  <rdf:RDF xmlns:dc="http://purl.org/dc/elements/1.1/" xmlns:cc="http://creativecommons.org/ns#" xmlns:rdf="http://www.w3.org/1999/02/22-rdf-syntax-ns#">
   <cc:Work>
    <dc:type rdf:resource="http://purl.org/dc/dcmitype/StillImage"/>
    <dc:date>2024-02-29T19:38:33.587899</dc:date>
    <dc:format>image/svg+xml</dc:format>
    <dc:creator>
     <cc:Agent>
      <dc:title>Matplotlib v3.6.2, https://matplotlib.org/</dc:title>
     </cc:Agent>
    </dc:creator>
   </cc:Work>
  </rdf:RDF>
 </metadata>
 <defs>
  <style type="text/css">*{stroke-linejoin: round; stroke-linecap: butt}</style>
 </defs>
 <g id="figure_1">
  <g id="patch_1">
   <path d="M 0 345.6 
L 460.8 345.6 
L 460.8 0 
L 0 0 
z
" style="fill: #ffffff"/>
  </g>
  <g id="axes_1">
   <g id="patch_2">
    <path d="M 57.6 307.584 
L 414.72 307.584 
L 414.72 41.472 
L 57.6 41.472 
z
" style="fill: #ffffff"/>
   </g>
   <g id="matplotlib.axis_1">
    <g id="xtick_1">
     <g id="line2d_1">
      <defs>
       <path id="m557c22c50b" d="M 0 0 
L 0 3.5 
" style="stroke: #000000; stroke-width: 0.8"/>
      </defs>
      <g>
       <use xlink:href="#m557c22c50b" x="121.347784" y="307.584" style="stroke: #000000; stroke-width: 0.8"/>
      </g>
     </g>
     <g id="text_1">
      <!-- 0.2 -->
      <g transform="translate(113.396222 322.182437) scale(0.1 -0.1)">
       <defs>
        <path id="DejaVuSans-30" d="M 2034 4250 
Q 1547 4250 1301 3770 
Q 1056 3291 1056 2328 
Q 1056 1369 1301 889 
Q 1547 409 2034 409 
Q 2525 409 2770 889 
Q 3016 1369 3016 2328 
Q 3016 3291 2770 3770 
Q 2525 4250 2034 4250 
z
M 2034 4750 
Q 2819 4750 3233 4129 
Q 3647 3509 3647 2328 
Q 3647 1150 3233 529 
Q 2819 -91 2034 -91 
Q 1250 -91 836 529 
Q 422 1150 422 2328 
Q 422 3509 836 4129 
Q 1250 4750 2034 4750 
z
" transform="scale(0.015625)"/>
        <path id="DejaVuSans-2e" d="M 684 794 
L 1344 794 
L 1344 0 
L 684 0 
L 684 794 
z
" transform="scale(0.015625)"/>
        <path id="DejaVuSans-32" d="M 1228 531 
L 3431 531 
L 3431 0 
L 469 0 
L 469 531 
Q 828 903 1448 1529 
Q 2069 2156 2228 2338 
Q 2531 2678 2651 2914 
Q 2772 3150 2772 3378 
Q 2772 3750 2511 3984 
Q 2250 4219 1831 4219 
Q 1534 4219 1204 4116 
Q 875 4013 500 3803 
L 500 4441 
Q 881 4594 1212 4672 
Q 1544 4750 1819 4750 
Q 2544 4750 2975 4387 
Q 3406 4025 3406 3419 
Q 3406 3131 3298 2873 
Q 3191 2616 2906 2266 
Q 2828 2175 2409 1742 
Q 1991 1309 1228 531 
z
" transform="scale(0.015625)"/>
       </defs>
       <use xlink:href="#DejaVuSans-30"/>
       <use xlink:href="#DejaVuSans-2e" x="63.623047"/>
       <use xlink:href="#DejaVuSans-32" x="95.410156"/>
      </g>
     </g>
    </g>
    <g id="xtick_2">
     <g id="line2d_2">
      <g>
       <use xlink:href="#m557c22c50b" x="200.539546" y="307.584" style="stroke: #000000; stroke-width: 0.8"/>
      </g>
     </g>
     <g id="text_2">
      <!-- 0.4 -->
      <g transform="translate(192.587983 322.182437) scale(0.1 -0.1)">
       <defs>
        <path id="DejaVuSans-34" d="M 2419 4116 
L 825 1625 
L 2419 1625 
L 2419 4116 
z
M 2253 4666 
L 3047 4666 
L 3047 1625 
L 3713 1625 
L 3713 1100 
L 3047 1100 
L 3047 0 
L 2419 0 
L 2419 1100 
L 313 1100 
L 313 1709 
L 2253 4666 
z
" transform="scale(0.015625)"/>
       </defs>
       <use xlink:href="#DejaVuSans-30"/>
       <use xlink:href="#DejaVuSans-2e" x="63.623047"/>
       <use xlink:href="#DejaVuSans-34" x="95.410156"/>
      </g>
     </g>
    </g>
    <g id="xtick_3">
     <g id="line2d_3">
      <g>
       <use xlink:href="#m557c22c50b" x="279.731307" y="307.584" style="stroke: #000000; stroke-width: 0.8"/>
      </g>
     </g>
     <g id="text_3">
      <!-- 0.6 -->
      <g transform="translate(271.779745 322.182437) scale(0.1 -0.1)">
       <defs>
        <path id="DejaVuSans-36" d="M 2113 2584 
Q 1688 2584 1439 2293 
Q 1191 2003 1191 1497 
Q 1191 994 1439 701 
Q 1688 409 2113 409 
Q 2538 409 2786 701 
Q 3034 994 3034 1497 
Q 3034 2003 2786 2293 
Q 2538 2584 2113 2584 
z
M 3366 4563 
L 3366 3988 
Q 3128 4100 2886 4159 
Q 2644 4219 2406 4219 
Q 1781 4219 1451 3797 
Q 1122 3375 1075 2522 
Q 1259 2794 1537 2939 
Q 1816 3084 2150 3084 
Q 2853 3084 3261 2657 
Q 3669 2231 3669 1497 
Q 3669 778 3244 343 
Q 2819 -91 2113 -91 
Q 1303 -91 875 529 
Q 447 1150 447 2328 
Q 447 3434 972 4092 
Q 1497 4750 2381 4750 
Q 2619 4750 2861 4703 
Q 3103 4656 3366 4563 
z
" transform="scale(0.015625)"/>
       </defs>
       <use xlink:href="#DejaVuSans-30"/>
       <use xlink:href="#DejaVuSans-2e" x="63.623047"/>
       <use xlink:href="#DejaVuSans-36" x="95.410156"/>
      </g>
     </g>
    </g>
    <g id="xtick_4">
     <g id="line2d_4">
      <g>
       <use xlink:href="#m557c22c50b" x="358.923069" y="307.584" style="stroke: #000000; stroke-width: 0.8"/>
      </g>
     </g>
     <g id="text_4">
      <!-- 0.8 -->
      <g transform="translate(350.971506 322.182437) scale(0.1 -0.1)">
       <defs>
        <path id="DejaVuSans-38" d="M 2034 2216 
Q 1584 2216 1326 1975 
Q 1069 1734 1069 1313 
Q 1069 891 1326 650 
Q 1584 409 2034 409 
Q 2484 409 2743 651 
Q 3003 894 3003 1313 
Q 3003 1734 2745 1975 
Q 2488 2216 2034 2216 
z
M 1403 2484 
Q 997 2584 770 2862 
Q 544 3141 544 3541 
Q 544 4100 942 4425 
Q 1341 4750 2034 4750 
Q 2731 4750 3128 4425 
Q 3525 4100 3525 3541 
Q 3525 3141 3298 2862 
Q 3072 2584 2669 2484 
Q 3125 2378 3379 2068 
Q 3634 1759 3634 1313 
Q 3634 634 3220 271 
Q 2806 -91 2034 -91 
Q 1263 -91 848 271 
Q 434 634 434 1313 
Q 434 1759 690 2068 
Q 947 2378 1403 2484 
z
M 1172 3481 
Q 1172 3119 1398 2916 
Q 1625 2713 2034 2713 
Q 2441 2713 2670 2916 
Q 2900 3119 2900 3481 
Q 2900 3844 2670 4047 
Q 2441 4250 2034 4250 
Q 1625 4250 1398 4047 
Q 1172 3844 1172 3481 
z
" transform="scale(0.015625)"/>
       </defs>
       <use xlink:href="#DejaVuSans-30"/>
       <use xlink:href="#DejaVuSans-2e" x="63.623047"/>
       <use xlink:href="#DejaVuSans-38" x="95.410156"/>
      </g>
     </g>
    </g>
   </g>
   <g id="matplotlib.axis_2">
    <g id="ytick_1">
     <g id="line2d_5">
      <defs>
       <path id="m1625abd6ac" d="M 0 0 
L -3.5 0 
" style="stroke: #000000; stroke-width: 0.8"/>
      </defs>
      <g>
       <use xlink:href="#m1625abd6ac" x="57.6" y="275.481673" style="stroke: #000000; stroke-width: 0.8"/>
      </g>
     </g>
     <g id="text_5">
      <!-- −80 -->
      <g transform="translate(29.495313 279.280891) scale(0.1 -0.1)">
       <defs>
        <path id="DejaVuSans-2212" d="M 678 2272 
L 4684 2272 
L 4684 1741 
L 678 1741 
L 678 2272 
z
" transform="scale(0.015625)"/>
       </defs>
       <use xlink:href="#DejaVuSans-2212"/>
       <use xlink:href="#DejaVuSans-38" x="83.789062"/>
       <use xlink:href="#DejaVuSans-30" x="147.412109"/>
      </g>
     </g>
    </g>
    <g id="ytick_2">
     <g id="line2d_6">
      <g>
       <use xlink:href="#m1625abd6ac" x="57.6" y="238.145477" style="stroke: #000000; stroke-width: 0.8"/>
      </g>
     </g>
     <g id="text_6">
      <!-- −60 -->
      <g transform="translate(29.495313 241.944696) scale(0.1 -0.1)">
       <use xlink:href="#DejaVuSans-2212"/>
       <use xlink:href="#DejaVuSans-36" x="83.789062"/>
       <use xlink:href="#DejaVuSans-30" x="147.412109"/>
      </g>
     </g>
    </g>
    <g id="ytick_3">
     <g id="line2d_7">
      <g>
       <use xlink:href="#m1625abd6ac" x="57.6" y="200.809281" style="stroke: #000000; stroke-width: 0.8"/>
      </g>
     </g>
     <g id="text_7">
      <!-- −40 -->
      <g transform="translate(29.495313 204.6085) scale(0.1 -0.1)">
       <use xlink:href="#DejaVuSans-2212"/>
       <use xlink:href="#DejaVuSans-34" x="83.789062"/>
       <use xlink:href="#DejaVuSans-30" x="147.412109"/>
      </g>
     </g>
    </g>
    <g id="ytick_4">
     <g id="line2d_8">
      <g>
       <use xlink:href="#m1625abd6ac" x="57.6" y="163.473086" style="stroke: #000000; stroke-width: 0.8"/>
      </g>
     </g>
     <g id="text_8">
      <!-- −20 -->
      <g transform="translate(29.495313 167.272304) scale(0.1 -0.1)">
       <use xlink:href="#DejaVuSans-2212"/>
       <use xlink:href="#DejaVuSans-32" x="83.789062"/>
       <use xlink:href="#DejaVuSans-30" x="147.412109"/>
      </g>
     </g>
    </g>
    <g id="ytick_5">
     <g id="line2d_9">
      <g>
       <use xlink:href="#m1625abd6ac" x="57.6" y="126.13689" style="stroke: #000000; stroke-width: 0.8"/>
      </g>
     </g>
     <g id="text_9">
      <!-- 0 -->
      <g transform="translate(44.2375 129.936109) scale(0.1 -0.1)">
       <use xlink:href="#DejaVuSans-30"/>
      </g>
     </g>
    </g>
    <g id="ytick_6">
     <g id="line2d_10">
      <g>
       <use xlink:href="#m1625abd6ac" x="57.6" y="88.800694" style="stroke: #000000; stroke-width: 0.8"/>
      </g>
     </g>
     <g id="text_10">
      <!-- 20 -->
      <g transform="translate(37.875 92.599913) scale(0.1 -0.1)">
       <use xlink:href="#DejaVuSans-32"/>
       <use xlink:href="#DejaVuSans-30" x="63.623047"/>
      </g>
     </g>
    </g>
    <g id="ytick_7">
     <g id="line2d_11">
      <g>
       <use xlink:href="#m1625abd6ac" x="57.6" y="51.464498" style="stroke: #000000; stroke-width: 0.8"/>
      </g>
     </g>
     <g id="text_11">
      <!-- 40 -->
      <g transform="translate(37.875 55.263717) scale(0.1 -0.1)">
       <use xlink:href="#DejaVuSans-34"/>
       <use xlink:href="#DejaVuSans-30" x="63.623047"/>
      </g>
     </g>
    </g>
   </g>
   <g id="line2d_12">
    <path d="M 73.832727 230.629358 
L 74.656322 230.647558 
L 74.941412 230.605122 
L 75.527431 230.74284 
L 75.796683 230.762667 
L 76.176803 230.792877 
L 76.604439 230.791647 
L 77.190458 230.663428 
L 77.538902 230.630603 
L 78.61591 230.808907 
L 80.849117 230.794317 
L 81.355945 230.856309 
L 81.530166 230.977767 
L 81.625197 231.50003 
L 81.767742 234.040405 
L 82.211216 242.276713 
L 82.84475 249.047434 
L 83.842566 257.24696 
L 84.887897 264.207544 
L 85.980743 270.290398 
L 87.247812 276.004418 
L 88.79997 281.350661 
L 89.829463 284.049333 
L 90.843118 286.154336 
L 91.714227 287.770929 
L 92.727882 289.225152 
L 92.997134 289.626574 
L 93.551476 290.331348 
L 94.644322 291.422119 
L 98.873162 293.909669 
L 99.237444 293.987586 
L 100.14023 294.410929 
L 100.773765 294.705893 
L 101.074693 294.812769 
L 101.423137 294.863689 
L 101.929964 294.939005 
L 102.515983 294.991817 
L 103.767213 294.972845 
L 104.448262 295.115856 
L 107.410034 295.329398 
L 107.83767 295.353836 
L 109.37399 295.435536 
L 109.833302 295.377077 
L 111.417137 295.47398 
L 111.702228 295.437553 
L 112.842589 295.189767 
L 116.532925 295.200616 
L 117.309004 295.059734 
L 117.958377 295.079178 
L 118.496881 294.999967 
L 119.415505 294.994849 
L 120.666735 295.211729 
L 121.062694 295.201701 
L 121.522006 295.118081 
L 123.280063 295.164328 
L 123.517638 295.142936 
L 124.056142 295.120807 
L 124.737192 295.081056 
L 125.703331 295.104061 
L 126.431895 295.180323 
L 129.346152 295.013389 
L 129.678757 294.982136 
L 130.70825 294.693834 
L 131.040856 294.703682 
L 131.690228 294.698939 
L 132.814751 294.53405 
L 133.685861 294.676379 
L 134.398586 294.554593 
L 135.047959 294.599115 
L 135.380564 294.617405 
L 135.697331 294.623136 
L 136.251674 294.48064 
L 136.505087 294.407146 
L 136.932723 294.284665 
L 138.152276 294.331635 
L 138.532396 294.357895 
L 138.944194 294.410915 
L 139.815303 294.305222 
L 140.32213 294.391665 
L 143.426447 294.183603 
L 143.727376 294.114588 
L 145.105313 294.124922 
L 145.675493 294.086311 
L 146.895046 294.185843 
L 148.716457 294.133907 
L 148.969871 294.099678 
L 149.413344 293.915761 
L 150.173585 294.010188 
L 151.298108 294.02158 
L 151.709906 293.784712 
L 152.058349 292.755961 
L 152.691883 291.289039 
L 153.087842 291.017581 
L 153.6897 290.827072 
L 154.323234 290.87496 
L 154.861738 291.017971 
L 158.979709 292.430355 
L 159.296476 292.53922 
L 159.724112 292.674719 
L 160.278454 292.918944 
L 160.785281 292.995776 
L 161.165402 293.027795 
L 161.498007 293.123293 
L 162.163218 293.095753 
L 163.351094 293.062887 
L 163.604508 293.149497 
L 163.87376 293.219236 
L 165.109152 293.169831 
L 165.394242 293.253145 
L 165.647656 293.240919 
L 165.980261 293.234313 
L 167.484904 293.395057 
L 173.725215 293.06169 
L 174.041982 293.022704 
L 174.390426 293.046502 
L 174.92893 293.07642 
L 175.800039 293.068631 
L 177.162138 293.014609 
L 177.605612 292.979837 
L 178.650943 292.839747 
L 179.553729 292.915564 
L 180.044718 292.963731 
L 180.59906 292.79791 
L 181.105887 292.783361 
L 181.454331 292.793264 
L 181.85029 292.678975 
L 183.259903 292.471498 
L 184.131013 292.542586 
L 184.431941 292.495184 
L 185.318889 292.590181 
L 185.936585 292.683621 
L 186.918563 292.797353 
L 187.393713 292.748756 
L 188.201469 292.823933 
L 188.86668 292.817577 
L 190.767282 292.787103 
L 192.145219 292.635218 
L 192.493663 292.650045 
L 193.143035 292.879499 
L 194.520972 292.853142 
L 194.885254 292.745752 
L 195.946424 292.314272 
L 196.279029 292.238581 
L 196.516604 292.209442 
L 197.276845 292.129382 
L 197.546097 292.090911 
L 198.433045 292.12546 
L 198.829004 292.087475 
L 199.763466 292.198245 
L 200.127749 292.242642 
L 200.602899 292.294132 
L 200.998858 292.330546 
L 202.044189 292.380603 
L 202.265926 292.427685 
L 202.772753 292.496798 
L 206.431413 292.418366 
L 206.922402 292.288012 
L 208.791327 292.315399 
L 209.361508 292.360436 
L 209.852497 292.34604 
L 211.911483 292.269138 
L 212.22825 292.17791 
L 212.782592 292.196353 
L 213.431964 292.126197 
L 214.556487 291.979988 
L 215.316728 291.883725 
L 216.156161 291.678097 
L 216.64715 291.664077 
L 217.201492 291.705998 
L 217.549936 291.747613 
L 218.056763 291.803415 
L 218.405207 291.777378 
L 218.737812 291.763567 
L 219.561407 291.886646 
L 219.894012 291.874823 
L 220.701768 291.953784 
L 221.604554 291.881346 
L 221.84213 291.873919 
L 222.269765 291.882723 
L 223.045844 292.007068 
L 223.75857 292.127964 
L 225.136507 292.130565 
L 225.421597 292.172764 
L 225.801718 292.260195 
L 226.35606 292.326776 
L 226.656989 292.302352 
L 227.290523 292.302505 
L 230.664092 292.091217 
L 231.234272 292.007416 
L 232.786431 291.967372 
L 233.039845 291.981267 
L 234.053499 291.852388 
L 234.687033 291.799201 
L 235.035477 291.691338 
L 237.237008 291.746751 
L 237.60129 291.824181 
L 238.820843 291.65957 
L 239.23264 291.415401 
L 239.866174 291.116751 
L 241.988514 290.951445 
L 242.447826 290.951125 
L 243.508995 291.09796 
L 243.825763 291.195503 
L 245.235376 291.137308 
L 245.615496 291.098892 
L 245.821395 291.171927 
L 246.185677 291.284171 
L 246.518282 291.333798 
L 246.787534 291.36131 
L 247.484422 291.256229 
L 247.817027 291.276535 
L 248.482238 291.155473 
L 249.71763 291.088419 
L 250.050235 291.054926 
L 250.446194 290.986523 
L 250.778799 290.963893 
L 251.618232 290.995925 
L 252.125059 291.076694 
L 252.362634 291.10689 
L 252.616048 291.079253 
L 253.328774 291.156836 
L 254.42162 291.025718 
L 254.801741 290.95068 
L 255.38776 290.927744 
L 261.770616 291.284756 
L 262.340796 291.341156 
L 263.101037 291.367082 
L 263.306936 291.365844 
L 263.892955 291.194362 
L 265.128346 291.246479 
L 265.730204 291.375719 
L 266.173678 291.447016 
L 268.422724 291.299694 
L 268.897874 291.320585 
L 269.927367 291.314228 
L 270.972698 291.305382 
L 271.400334 291.35633 
L 274.172046 291.263906 
L 274.884771 291.041004 
L 275.692527 290.87585 
L 276.832889 290.983852 
L 277.561453 290.952043 
L 280.649932 291.120576 
L 281.917 290.937758 
L 282.233767 290.920164 
L 282.645564 290.97388 
L 284.688711 291.176628 
L 285.037155 291.217145 
L 286.953596 291.338666 
L 287.222848 291.335759 
L 289.21848 290.861997 
L 291.214113 290.87165 
L 291.340819 290.504624 
L 291.847647 288.733281 
L 292.275282 288.442197 
L 292.544534 288.405617 
L 292.797948 288.324876 
L 293.051361 288.386075 
L 293.859117 288.620424 
L 295.965618 289.086328 
L 296.456607 289.145051 
L 297.438585 289.431865 
L 297.644484 289.484398 
L 298.087957 289.620788 
L 298.436401 289.783953 
L 299.054097 290.056565 
L 299.719308 290.222484 
L 300.527064 290.307035 
L 301.382335 290.324366 
L 301.778294 290.362963 
L 303.615542 290.733827 
L 304.280753 290.9262 
L 304.708389 290.912556 
L 305.46863 290.943684 
L 306.276386 290.813692 
L 306.735698 290.803928 
L 307.258363 290.741269 
L 307.781029 290.704313 
L 308.081958 290.7612 
L 308.810522 290.633378 
L 309.539086 290.815987 
L 310.394357 290.743675 
L 311.027891 290.690543 
L 311.281305 290.67516 
L 311.677264 290.775192 
L 312.817625 290.706956 
L 313.641219 290.733424 
L 314.2114 290.6315 
L 315.050833 290.615004 
L 315.621013 290.55713 
L 315.858589 290.638357 
L 316.286224 290.770908 
L 316.824728 290.696552 
L 318.582785 290.586895 
L 318.883714 290.50066 
L 319.121289 290.262444 
L 319.216319 289.605516 
L 319.390541 286.032564 
L 319.770662 279.088518 
L 320.340842 272.832067 
L 321.338659 264.674171 
L 322.146415 259.471536 
L 323.318453 253.464624 
L 324.300431 249.561351 
L 325.615014 245.21237 
L 326.61283 242.344831 
L 328.513432 238.211256 
L 331.538558 233.872081 
L 333.138231 232.127867 
L 333.882634 231.403009 
L 334.452814 231.056491 
L 335.323924 230.250858 
L 335.862428 229.910196 
L 336.495962 229.39379 
L 339.726986 228.189968 
L 340.122945 228.078558 
L 341.009892 227.702025 
L 341.643426 227.580226 
L 342.704596 227.473524 
L 343.195585 227.311821 
L 343.813281 227.254648 
L 344.019179 227.177399 
L 344.272593 227.157036 
L 344.700228 227.025306 
L 346.284064 226.477333 
L 346.584992 226.416482 
L 347.962929 225.976595 
L 348.200504 225.894324 
L 348.675655 225.686429 
L 348.91323 225.687987 
L 349.562602 225.422043 
L 352.841141 224.877805 
L 353.363807 224.827866 
L 354.219078 224.761124 
L 355.359439 224.455019 
L 355.802913 224.508658 
L 356.151357 224.387269 
L 356.499801 224.336572 
L 357.941091 224.378847 
L 358.226181 224.36925 
L 359.493249 224.19249 
L 359.857531 224.285617 
L 360.110945 224.250664 
L 360.475227 224.257813 
L 361.378013 224.108585 
L 361.837326 224.158587 
L 362.85098 224.184743 
L 363.151909 224.110734 
L 364.213078 224.126569 
L 365.92362 224.517456 
L 366.224549 224.452133 
L 366.905598 224.5161 
L 367.222365 224.479749 
L 367.713354 224.440366 
L 368.23602 224.384752 
L 368.61614 224.396894 
L 372.765789 224.11981 
L 373.193424 224.083417 
L 373.763605 224.009395 
L 374.397139 223.949594 
L 374.650553 223.93645 
L 374.903966 223.978899 
L 375.173218 224.017656 
L 377.184689 223.794016 
L 377.517294 223.75512 
L 378.879393 223.814358 
L 379.512927 223.756275 
L 381.160115 223.563061 
L 381.461044 223.582109 
L 382.015386 223.729549 
L 382.775627 223.84646 
L 382.997364 223.836007 
L 383.345808 223.739856 
L 383.646737 223.785087 
L 384.026857 223.807285 
L 384.96132 223.918452 
L 385.293925 223.950588 
L 385.642369 224.060795 
L 386.608509 223.971535 
L 387.083659 223.904612 
L 387.400426 223.829616 
L 387.875577 223.898917 
L 389.396059 224.275616 
L 390.773995 224.511579 
L 391.264984 224.732041 
L 393.22894 225.092891 
L 393.529868 225.212076 
L 394.353463 225.284019 
L 394.844452 225.284367 
L 396.095682 225.336094 
L 397.172689 225.401973 
L 397.410265 225.315001 
L 397.917092 225.132232 
L 398.487273 225.203049 
L 398.487273 225.203049 
" clip-path="url(#p7e7bcdd3e7)" style="fill: none; stroke: #1f77b4; stroke-width: 1.5; stroke-linecap: square"/>
   </g>
   <g id="line2d_13">
    <path d="M 73.832727 231.719031 
L 75.194826 231.624639 
L 75.860036 231.326844 
L 76.081773 231.3037 
L 76.905368 231.410561 
L 78.029891 231.27794 
L 78.410011 231.017164 
L 78.885162 230.766645 
L 80.136391 230.672587 
L 80.421482 230.715197 
L 80.674895 230.707915 
L 81.30843 230.759315 
L 81.59352 230.910115 
L 81.736065 231.35937 
L 82.227054 233.189408 
L 82.971457 234.717605 
L 85.062119 237.928003 
L 87.374518 240.367679 
L 88.071406 240.717854 
L 88.736617 240.896708 
L 89.100899 240.948748 
L 89.306797 240.986914 
L 90.067038 241.668605 
L 90.542189 241.95334 
L 91.413298 242.506139 
L 92.284408 242.667933 
L 95.467917 244.251563 
L 95.705492 244.350051 
L 96.228157 244.583024 
L 96.544924 244.697953 
L 97.083428 244.82711 
L 97.479387 244.879658 
L 97.891184 244.930355 
L 98.556395 244.984043 
L 99.189929 245.132214 
L 100.092715 245.458807 
L 100.346129 245.534318 
L 100.678734 245.57692 
L 101.233077 245.641694 
L 101.518167 245.668204 
L 102.500145 245.94065 
L 103.276224 245.910843 
L 104.939251 245.895905 
L 105.6203 246.009777 
L 107.568418 246.226295 
L 107.853508 246.257799 
L 108.201952 246.320347 
L 109.152253 246.560733 
L 110.118392 246.327398 
L 110.609381 246.1834 
L 110.81528 246.228868 
L 111.068694 246.216851 
L 114.426424 245.997606 
L 114.980767 246.084676 
L 115.265857 246.107945 
L 115.535109 246.190202 
L 115.836038 246.2219 
L 116.818015 245.942903 
L 117.277328 245.888311 
L 117.499065 245.925016 
L 117.720801 245.901065 
L 118.766133 245.70146 
L 119.320475 245.849603 
L 119.858979 245.880745 
L 123.866082 245.766192 
L 124.182849 245.79718 
L 124.452101 245.848226 
L 124.974767 245.85493 
L 125.956745 245.947813 
L 126.463572 245.760865 
L 127.112944 245.799781 
L 127.493065 245.783633 
L 128.237467 245.737692 
L 128.902678 245.886517 
L 129.536212 245.821507 
L 130.993341 246.088876 
L 131.95948 246.22656 
L 132.339601 246.337594 
L 132.593014 246.365328 
L 133.068165 246.43967 
L 134.208526 246.622794 
L 134.604485 246.671002 
L 135.364726 246.815069 
L 136.077452 246.768099 
L 136.853531 246.820591 
L 137.24949 246.763551 
L 138.152276 246.795221 
L 138.40569 246.756583 
L 138.833325 246.803956 
L 139.466859 246.865892 
L 140.163747 246.827852 
L 140.607221 246.805639 
L 141.034856 246.816516 
L 142.491984 246.85247 
L 143.046327 246.788865 
L 143.616508 246.961432 
L 145.437918 246.64783 
L 145.675493 246.618733 
L 146.546603 246.280929 
L 146.910885 246.221538 
L 147.322682 246.254697 
L 149.920172 246.27257 
L 150.141909 246.220926 
L 150.490352 246.259273 
L 150.870473 246.360947 
L 151.060533 246.354312 
L 151.361462 246.335785 
L 152.153379 246.625715 
L 152.34344 246.632753 
L 152.676045 246.610707 
L 152.976974 246.589844 
L 154.386587 246.500007 
L 154.671677 246.583807 
L 155.051798 246.588509 
L 155.352727 246.496933 
L 155.907069 246.373284 
L 156.698987 246.624046 
L 157.744318 246.35427 
L 157.981893 246.30367 
L 158.39369 246.230454 
L 158.662942 246.238146 
L 158.932194 246.218715 
L 159.217285 246.167085 
L 159.565728 246.174276 
L 160.056717 246.174179 
L 161.054533 246.13643 
L 161.513846 246.145026 
L 161.719744 246.222623 
L 162.14738 246.279177 
L 163.826245 246.256408 
L 165.093313 246.262973 
L 166.930562 246.269941 
L 167.199814 246.279135 
L 168.039247 246.427389 
L 168.482721 246.394828 
L 169.718112 246.378068 
L 169.955687 246.32381 
L 170.430838 246.157892 
L 171.682068 245.98972 
L 172.347279 246.044243 
L 172.774914 246.055036 
L 175.229859 246.156348 
L 175.689171 245.998469 
L 176.037615 245.955324 
L 177.732318 245.604682 
L 178.0966 245.603264 
L 178.460883 245.620302 
L 179.680436 245.807362 
L 180.345646 245.785052 
L 180.915827 245.88016 
L 181.486008 245.950622 
L 182.499662 245.771074 
L 184.131013 245.834345 
L 184.606163 245.850034 
L 185.033799 245.811618 
L 185.69901 245.839199 
L 186.07913 245.851856 
L 187.472905 245.884417 
L 188.043086 245.841953 
L 189.389346 245.575891 
L 189.83282 245.634364 
L 190.403 245.606045 
L 192.667885 245.631262 
L 193.00049 245.646103 
L 196.595796 245.872427 
L 197.165977 245.771324 
L 197.530259 245.807737 
L 198.274661 245.790615 
L 198.607267 245.811548 
L 199.240801 245.92567 
L 200.032718 245.706495 
L 200.286132 245.711627 
L 200.634576 245.788933 
L 201.600715 245.709499 
L 202.060027 245.717052 
L 202.946975 245.807737 
L 203.263742 245.79508 
L 203.77057 245.898868 
L 204.483295 245.919731 
L 205.544465 245.946478 
L 205.956262 245.934001 
L 206.336383 245.946686 
L 207.270845 245.782729 
L 207.492582 245.876363 
L 207.777673 245.95129 
L 209.424861 245.855667 
L 211.056212 245.747929 
L 211.958998 245.719361 
L 212.576693 245.720974 
L 213.020167 245.66111 
L 213.447803 245.618174 
L 214.651518 245.745356 
L 215.380082 245.702447 
L 215.823556 245.701738 
L 216.773857 245.740154 
L 217.058947 245.734424 
L 217.534098 245.677523 
L 217.914218 245.717205 
L 218.46856 245.801353 
L 218.896196 245.843775 
L 219.387185 245.903166 
L 220.68593 245.772993 
L 222.760754 246.128725 
L 223.505157 246.130769 
L 223.869439 246.139615 
L 224.233721 246.087708 
L 224.72471 246.229105 
L 225.025638 246.219341 
L 226.530282 246.110908 
L 227.496421 246.281054 
L 227.79735 246.260163 
L 229.14361 246.218659 
L 229.634599 246.295756 
L 230.030558 246.228576 
L 230.442355 246.184819 
L 232.105382 246.323268 
L 232.517179 246.257993 
L 233.435803 246.395941 
L 233.673379 246.054313 
L 234.116853 245.585641 
L 236.286707 245.657091 
L 236.476767 245.667439 
L 236.888564 245.856209 
L 238.123956 245.925322 
L 239.311832 246.055259 
L 239.929528 246.057039 
L 240.262133 246.132939 
L 240.5789 246.116958 
L 241.038213 246.23293 
L 242.036029 246.304671 
L 242.336957 246.279413 
L 243.192228 246.32662 
L 243.398127 246.246505 
L 243.651541 246.157794 
L 244.776064 246.355828 
L 247.02511 246.466181 
L 247.706159 246.605547 
L 248.007088 246.521204 
L 249.099934 246.480465 
L 250.319487 246.253056 
L 250.667931 246.196252 
L 251.095566 246.249968 
L 251.428172 246.207532 
L 252.045867 246.063604 
L 252.69524 246.106554 
L 253.012007 246.14625 
L 253.281259 246.190146 
L 254.13653 246.310638 
L 255.894587 246.043019 
L 256.464768 245.947813 
L 256.876565 246.020041 
L 257.145817 246.096512 
L 257.937734 246.2625 
L 258.159471 246.326397 
L 258.618784 246.391184 
L 259.283994 246.377665 
L 259.917528 246.33669 
L 260.281811 246.168282 
L 262.673402 246.020041 
L 263.021846 246.031683 
L 263.592026 245.867044 
L 263.84544 245.779043 
L 264.605681 245.87386 
L 265.603497 245.736594 
L 266.189516 245.714479 
L 267.092302 245.685228 
L 267.250686 245.596935 
L 267.963411 244.76484 
L 269.864014 244.263135 
L 270.069912 244.261717 
L 271.004375 243.913982 
L 272.746594 244.542911 
L 274.393782 244.843648 
L 275.09067 244.819641 
L 275.37576 244.770974 
L 275.882588 244.787317 
L 276.262708 244.796997 
L 276.674505 244.872091 
L 277.529776 244.836248 
L 277.894058 244.858154 
L 278.321694 244.767525 
L 278.527592 244.751502 
L 279.398702 244.949327 
L 280.649932 245.004587 
L 281.299304 244.905152 
L 283.136553 245.012362 
L 283.975986 244.983111 
L 284.51449 245.042919 
L 285.163862 245.198475 
L 285.639013 245.318063 
L 285.939941 245.397942 
L 286.510122 245.571093 
L 287.476261 245.651805 
L 289.503571 245.610997 
L 290.026236 245.448013 
L 291.420011 245.774732 
L 292.037707 245.568978 
L 292.291121 245.525513 
L 292.924655 245.643905 
L 295.015317 245.869145 
L 295.458791 245.755579 
L 295.791396 245.702378 
L 296.04481 245.66819 
L 296.409092 245.700139 
L 297.787029 245.750238 
L 299.640116 245.486763 
L 300.289488 245.051195 
L 301.176436 245.148125 
L 301.493203 245.072156 
L 301.80997 245.13608 
L 302.538534 245.420557 
L 303.282937 245.370138 
L 303.520512 245.455385 
L 303.837279 245.537405 
L 304.154046 245.550118 
L 305.246893 245.611971 
L 306.102164 245.699082 
L 306.830728 245.948355 
L 308.272018 245.884542 
L 308.715492 245.907769 
L 309.127289 245.926546 
L 310.521064 246.008469 
L 310.837831 245.990499 
L 311.930677 245.763173 
L 312.310798 245.726871 
L 313.73625 245.759585 
L 314.195562 245.71274 
L 316.587153 245.698275 
L 317.87006 245.621874 
L 318.456079 245.536028 
L 318.962906 245.541592 
L 319.216319 245.457972 
L 319.390541 244.760556 
L 319.738985 243.653748 
L 320.594256 241.922191 
L 320.911023 241.331449 
L 321.449527 240.396241 
L 323.270938 238.240625 
L 325.329923 236.510006 
L 327.325556 235.182215 
L 327.594808 234.9922 
L 328.196665 234.466891 
L 329.732985 233.651174 
L 330.319004 233.34212 
L 330.699125 233.212921 
L 331.316821 233.026077 
L 332.061223 232.68207 
L 332.37799 232.564172 
L 333.486675 232.488383 
L 334.088532 232.233587 
L 334.737905 232.16992 
L 335.593176 231.934541 
L 336.480123 231.643631 
L 336.812729 231.572474 
L 337.446263 231.358104 
L 338.190666 231.3108 
L 339.172643 231.205531 
L 339.473572 231.185071 
L 340.186298 231.066262 
L 341.184114 231.094747 
L 341.390013 231.065692 
L 341.738456 230.98605 
L 342.292799 230.985953 
L 343.2431 230.810848 
L 344.652713 230.80954 
L 345.001157 230.746151 
L 345.587176 230.755414 
L 346.648346 230.901401 
L 347.329395 230.743675 
L 349.039937 230.050425 
L 349.863531 229.807938 
L 350.307005 229.025971 
L 350.702964 228.732175 
L 352.191769 229.014225 
L 352.492698 229.107574 
L 352.999525 229.235486 
L 354.3933 229.709812 
L 354.789259 229.764446 
L 355.311924 229.715772 
L 355.771237 229.895828 
L 356.135519 229.976903 
L 356.594831 230.150534 
L 358.020283 230.282785 
L 359.018099 230.36411 
L 360.205975 230.570274 
L 360.586096 230.486313 
L 361.172115 230.531732 
L 361.869002 230.544021 
L 362.344153 230.491459 
L 363.088555 230.518519 
L 364.814936 230.721769 
L 365.25841 230.67169 
L 366.177034 231.046317 
L 366.953113 231.187227 
L 367.776708 231.274157 
L 368.774524 231.114143 
L 369.265513 231.110402 
L 369.67731 231.222597 
L 370.104945 231.275652 
L 370.485066 231.001718 
L 370.896863 230.842024 
L 372.195608 231.086437 
L 372.591567 231.2275 
L 375.410793 231.093864 
L 375.711722 231.013909 
L 376.361095 231.004896 
L 377.105497 230.91677 
L 377.390587 230.903272 
L 378.008283 230.985681 
L 378.610141 230.961244 
L 379.10113 231.134596 
L 379.76634 231.252251 
L 380.130622 231.316231 
L 380.54242 231.343298 
L 380.938378 231.256542 
L 381.20763 231.214725 
L 381.967871 231.366846 
L 383.947665 231.131863 
L 384.153564 231.168269 
L 384.454493 231.282982 
L 384.787098 231.25787 
L 386.370933 231.233996 
L 386.78273 231.155967 
L 387.780547 231.322414 
L 389.015938 231.198771 
L 390.568097 231.170411 
L 391.059085 231.108559 
L 391.819326 231.23314 
L 392.151932 231.304284 
L 392.421184 231.289485 
L 394.400978 231.488151 
L 394.828613 231.562285 
L 395.113704 231.570672 
L 395.557178 231.534496 
L 398.487273 232.022396 
L 398.487273 232.022396 
" clip-path="url(#p7e7bcdd3e7)" style="fill: none; stroke: #ff7f0e; stroke-width: 1.5; stroke-linecap: square"/>
   </g>
   <g id="line2d_14">
    <path d="M 73.832727 232.004906 
L 75.115634 231.927913 
L 75.622461 231.934583 
L 76.699469 231.998494 
L 77.222135 231.993619 
L 77.475548 231.996957 
L 78.156597 231.909929 
L 79.328636 232.0486 
L 79.550372 232.063239 
L 80.041361 232.104708 
L 80.421482 231.888148 
L 80.754087 231.656726 
L 83.557476 231.727905 
L 84.428585 231.763984 
L 84.792867 231.79176 
L 85.743168 232.02467 
L 89.67108 232.318828 
L 89.908655 232.354998 
L 90.33629 232.230375 
L 93.678183 232.325295 
L 94.121657 232.262024 
L 98.857324 232.550069 
L 99.284959 232.618896 
L 100.726249 232.552225 
L 101.058855 232.502201 
L 101.470652 232.468709 
L 101.819096 232.474467 
L 102.45263 232.540166 
L 102.785235 232.589702 
L 103.688021 232.716404 
L 104.131495 232.751948 
L 104.574969 232.79138 
L 105.113473 232.873748 
L 105.921229 233.003114 
L 106.697308 232.895626 
L 107.267489 232.952472 
L 107.695124 232.97097 
L 107.996053 232.979364 
L 109.057223 232.939856 
L 109.785787 232.929439 
L 110.340129 232.965761 
L 112.430792 233.088715 
L 113.666183 232.217683 
L 114.236364 232.035136 
L 116.231996 232.093748 
L 116.881369 232.189378 
L 117.340681 232.181276 
L 118.813648 232.400013 
L 120.666735 232.45688 
L 121.110209 232.490838 
L 122.06051 232.574013 
L 122.44063 232.620468 
L 122.963296 232.723303 
L 123.533477 232.635058 
L 123.897759 232.666353 
L 125.893391 232.89596 
L 133.21071 233.100858 
L 135.079636 232.911733 
L 136.410057 232.825721 
L 137.328682 232.667911 
L 138.009731 232.749848 
L 139.736111 232.878804 
L 140.559706 232.950142 
L 141.256593 232.96008 
L 142.206894 233.037642 
L 144.646 232.995784 
L 145.548786 233.097916 
L 146.340704 232.997536 
L 147.370197 232.985157 
L 147.623611 232.957298 
L 147.987893 232.921309 
L 148.653104 233.019651 
L 149.033224 233.02196 
L 154.35491 232.996528 
L 154.877576 232.916538 
L 156.556441 232.924487 
L 157.364197 232.968926 
L 157.680964 233.022454 
L 158.39369 233.161076 
L 158.710457 233.191912 
L 159.518213 233.225877 
L 160.357646 233.38836 
L 161.260432 233.356697 
L 161.561361 233.338629 
L 162.765075 233.568771 
L 163.066004 233.650993 
L 163.762892 233.54055 
L 164.190527 233.551942 
L 164.570648 233.586533 
L 164.887415 233.640777 
L 165.394242 233.565878 
L 168.260984 233.359715 
L 169.084578 233.359388 
L 169.559729 233.29097 
L 170.446676 233.287243 
L 171.365301 233.340236 
L 171.650391 233.348011 
L 173.218388 233.094001 
L 174.137012 233.033247 
L 174.580486 232.98668 
L 175.134829 232.982556 
L 175.435757 233.032197 
L 176.037615 233.07941 
L 176.671149 233.126012 
L 177.082946 233.055752 
L 177.558096 233.037343 
L 178.270822 233.11985 
L 178.761811 233.138905 
L 179.173608 233.077901 
L 179.537891 233.048373 
L 180.139748 233.067171 
L 181.010857 232.912018 
L 181.343463 232.916649 
L 183.497479 232.823975 
L 185.271374 233.021202 
L 185.873231 232.934668 
L 186.411735 233.009776 
L 187.346198 232.852836 
L 189.2468 232.911608 
L 191.068211 232.890292 
L 192.097704 232.820811 
L 192.382794 232.822369 
L 192.762915 232.769153 
L 193.713216 232.53045 
L 194.235881 232.521848 
L 195.059476 232.503078 
L 197.847026 232.566453 
L 198.338015 232.66273 
L 198.76565 232.749528 
L 199.779305 232.851813 
L 200.191102 232.761017 
L 201.315625 232.650685 
L 201.521524 232.683246 
L 201.854129 232.766107 
L 203.485479 232.9314 
L 203.897276 232.971847 
L 204.198205 233.141938 
L 204.546649 233.229647 
L 205.68701 233.235822 
L 207.920218 233.286923 
L 208.727974 233.352746 
L 209.282316 233.271505 
L 210.10591 233.241838 
L 210.470193 233.277145 
L 210.755283 233.299288 
L 211.040373 233.29588 
L 211.468009 233.341265 
L 212.655885 233.401476 
L 214.477296 233.397296 
L 214.857416 233.333198 
L 215.316728 233.410892 
L 215.633495 233.346035 
L 215.997778 233.392992 
L 216.251191 233.362476 
L 217.80335 233.276116 
L 218.215147 233.381294 
L 219.894012 233.552561 
L 221.541201 233.49244 
L 222.523179 233.430664 
L 222.903299 233.451687 
L 223.695217 233.589586 
L 224.170367 233.778683 
L 225.880909 233.655381 
L 226.245191 233.69169 
L 226.64115 233.607174 
L 227.211331 233.674638 
L 227.448906 233.66429 
L 228.08244 233.563368 
L 228.763489 233.657134 
L 229.222802 233.599058 
L 229.808821 233.505048 
L 230.062234 233.367135 
L 230.410678 233.314219 
L 231.028374 233.46965 
L 231.329303 233.474268 
L 231.915322 233.455046 
L 232.168735 233.459761 
L 232.564694 233.462564 
L 233.27742 233.327467 
L 233.958469 233.209924 
L 235.241376 233.173045 
L 236.017455 233.153704 
L 237.363715 233.00278 
L 237.807189 233.070453 
L 239.707791 233.041043 
L 240.040396 232.936643 
L 240.452193 232.902115 
L 241.576716 232.879541 
L 242.099382 232.941039 
L 242.558694 232.940148 
L 242.98633 232.911322 
L 243.350612 232.894701 
L 244.110853 233.020284 
L 244.42762 233.09665 
L 245.710526 233.091296 
L 247.294362 232.984483 
L 247.880381 233.060668 
L 248.117956 233.095753 
L 248.482238 233.108125 
L 250.525386 233.115114 
L 250.747122 233.177294 
L 251.364818 233.097541 
L 251.776615 233.052128 
L 252.093382 233.013344 
L 252.758593 233.036307 
L 254.009823 232.882823 
L 254.342428 232.921093 
L 254.675034 232.957208 
L 255.134346 233.014602 
L 255.466951 232.992341 
L 256.100486 233.036154 
L 256.480606 233.016362 
L 256.765696 233.037691 
L 256.971595 233.075794 
L 257.240847 233.078242 
L 257.700159 233.067963 
L 258.238663 233.094995 
L 258.935551 233.0935 
L 259.283994 233.108299 
L 260.107589 233.073318 
L 263.718733 232.919466 
L 264.067177 232.933841 
L 264.304752 232.899451 
L 264.684872 232.964238 
L 265.76188 232.927123 
L 266.284546 232.898165 
L 266.53796 232.864158 
L 266.838888 232.872878 
L 267.266524 232.911663 
L 268.834521 233.101136 
L 269.151288 232.988822 
L 269.626438 232.656068 
L 269.943205 232.58877 
L 270.434194 232.441677 
L 270.909345 232.503836 
L 271.178597 232.508704 
L 271.479526 232.484245 
L 271.796293 232.439946 
L 272.49318 232.500171 
L 272.714917 232.482694 
L 273.126714 232.244137 
L 273.776087 232.239492 
L 274.203722 232.307777 
L 274.631358 232.509455 
L 275.233215 232.496353 
L 276.943757 232.768395 
L 277.403069 232.767999 
L 277.672321 232.735292 
L 277.957412 232.70929 
L 278.210825 232.724875 
L 278.622623 232.670707 
L 279.161126 232.666583 
L 281.077567 232.249325 
L 281.552718 232.416683 
L 282.122898 232.257622 
L 283.279098 232.426245 
L 283.469158 232.488508 
L 283.73841 232.550027 
L 284.055177 232.571036 
L 284.371944 232.621226 
L 284.910448 232.691354 
L 285.496467 232.791748 
L 286.52596 232.790121 
L 286.747697 232.858448 
L 287.444585 232.997536 
L 288.410724 232.894639 
L 288.616623 232.940148 
L 288.949228 233.026383 
L 289.535247 232.899124 
L 290.738962 232.979107 
L 291.134921 232.945775 
L 291.705102 233.068346 
L 292.227767 233.030841 
L 292.512857 233.039993 
L 292.908816 232.978662 
L 293.368129 232.98554 
L 294.904449 232.964016 
L 295.189539 233.017349 
L 295.680528 233.062706 
L 296.203194 233.03299 
L 296.710021 233.163955 
L 297.232686 233.082818 
L 298.515593 233.233569 
L 299.085774 233.259787 
L 300.859669 233.292278 
L 301.366496 233.305623 
L 301.61991 233.259098 
L 301.857485 233.317001 
L 302.380151 233.375606 
L 302.712756 233.409634 
L 304.328268 233.351717 
L 304.740065 233.367629 
L 306.213032 233.237978 
L 306.608991 233.262075 
L 306.973273 233.289733 
L 307.369232 233.300595 
L 307.717676 233.29828 
L 308.192826 233.244904 
L 308.747169 233.218659 
L 309.016421 233.17808 
L 309.285673 233.208067 
L 309.618278 233.21361 
L 310.07759 233.194402 
L 310.410196 233.248361 
L 310.726963 233.193073 
L 314.369784 233.0508 
L 314.607359 233.064771 
L 314.971641 233.053554 
L 318.139312 232.903846 
L 319.802338 232.470948 
L 320.229974 232.493029 
L 320.75264 232.553309 
L 322.0989 232.708268 
L 322.85914 232.817793 
L 323.44516 232.820338 
L 325.535822 232.816993 
L 326.264386 232.787388 
L 326.454446 232.720417 
L 326.692022 232.66579 
L 328.275857 232.609571 
L 328.608462 232.553101 
L 329.241996 232.654461 
L 329.970561 232.728567 
L 330.667448 232.730348 
L 331.554396 232.704095 
L 332.140415 232.65789 
L 333.945987 232.63001 
L 334.389461 232.643014 
L 334.706228 232.559791 
L 335.593176 232.659441 
L 336.41677 232.627318 
L 339.790339 232.528121 
L 340.534742 232.56098 
L 341.564235 232.60448 
L 342.910495 232.699429 
L 343.512352 232.868894 
L 344.177563 232.71888 
L 345.112025 232.814468 
L 346.616669 232.83038 
L 347.028466 232.860068 
L 347.662 232.813947 
L 348.057959 232.723852 
L 348.374726 232.798084 
L 350.592095 232.691876 
L 353.300454 232.704352 
L 354.060695 232.821854 
L 356.594831 232.954189 
L 357.196688 232.904604 
L 358.099474 232.294619 
L 358.574625 231.932427 
L 358.938907 231.846109 
L 359.176482 231.779103 
L 359.556603 231.759276 
L 361.647265 232.16017 
L 362.312476 232.179468 
L 363.81712 232.463118 
L 365.63853 232.410953 
L 365.891944 232.432372 
L 366.446286 232.5078 
L 367.36491 232.527196 
L 367.824223 232.580682 
L 368.932907 232.631526 
L 369.217998 232.651026 
L 370.754318 232.607554 
L 371.261145 232.571516 
L 373.573545 232.692328 
L 373.795281 232.626525 
L 374.00118 232.673892 
L 374.460492 232.669587 
L 375.109865 232.564541 
L 375.521662 232.630343 
L 375.822591 232.619557 
L 377.881576 232.704693 
L 378.340889 232.624696 
L 383.915989 233.005805 
L 385.183057 232.943779 
L 386.11752 232.809155 
L 387.400426 232.807347 
L 387.875577 232.836569 
L 388.176505 232.907518 
L 388.667494 232.924132 
L 389.332705 232.907038 
L 390.473066 233.057462 
L 391.470883 233.105962 
L 394.100049 233.143899 
L 394.416816 233.179971 
L 395.034512 233.275789 
L 395.668046 233.378387 
L 397.172689 233.46013 
L 397.980445 233.354986 
L 398.265536 233.304441 
L 398.487273 233.213971 
L 398.487273 233.213971 
" clip-path="url(#p7e7bcdd3e7)" style="fill: none; stroke: #2ca02c; stroke-width: 1.5; stroke-linecap: square"/>
   </g>
   <g id="line2d_15">
    <path d="M 73.832727 236.257964 
L 74.292039 236.167467 
L 74.561291 236.214694 
L 74.76719 236.330958 
L 75.147311 236.447806 
L 75.416563 236.462285 
L 75.780845 236.492891 
L 76.129288 236.548353 
L 78.346658 237.04432 
L 78.695101 237.068515 
L 79.170252 237.027066 
L 79.661241 237.041984 
L 80.326452 237.064154 
L 81.165884 237.050969 
L 81.561843 236.882213 
L 81.656873 236.290873 
L 81.846934 233.078785 
L 82.227054 227.942342 
L 82.923941 221.978304 
L 83.937596 215.370176 
L 86.677631 198.642042 
L 86.772661 195.858979 
L 86.867691 183.633042 
L 87.010236 122.632571 
L 87.184458 61.656471 
L 87.216135 63.901027 
L 87.35868 102.100306 
L 87.738801 189.05877 
L 87.960538 201.118827 
L 88.055568 201.68945 
L 88.103083 201.545459 
L 88.261466 200.018925 
L 88.70494 195.974192 
L 89.053384 193.911723 
L 89.417666 192.836829 
L 89.686918 192.161633 
L 89.924493 191.806388 
L 90.257099 191.826284 
L 90.858956 192.235023 
L 91.096531 192.36845 
L 91.270753 192.566546 
L 91.540005 192.837796 
L 91.904287 192.622717 
L 92.490306 192.152251 
L 92.680367 192.054417 
L 93.092164 192.1465 
L 93.313901 191.645901 
L 93.630668 191.087163 
L 93.963273 190.905806 
L 94.295878 190.619194 
L 94.454262 190.601668 
L 94.755191 190.389336 
L 94.913574 190.332491 
L 95.119473 189.718855 
L 95.610462 188.003397 
L 95.689653 185.936999 
L 95.784684 175.775106 
L 95.927229 124.876721 
L 96.133127 62.384048 
L 96.148966 62.956862 
L 96.243996 77.381963 
L 96.830015 182.675788 
L 97.083428 196.524321 
L 97.305165 199.257076 
L 97.558579 199.981552 
L 97.891184 200.305572 
L 98.12876 200.194788 
L 98.398012 200.159898 
L 98.572234 200.122281 
L 98.889001 199.900783 
L 99.554211 200.213022 
L 100.583704 201.100655 
L 100.884633 201.109821 
L 101.233077 201.291943 
L 101.565682 201.733792 
L 101.834934 201.688324 
L 102.26257 201.474552 
L 102.468468 201.351285 
L 102.706044 201.299308 
L 103.006972 201.126345 
L 103.228709 201.109738 
L 103.640506 200.883476 
L 104.020627 201.15951 
L 104.384909 201.024484 
L 104.986766 200.803514 
L 105.256018 200.742072 
L 105.572785 200.663821 
L 105.826199 200.406724 
L 106.523086 200.041923 
L 106.87153 199.824535 
L 107.140782 199.468143 
L 108.12276 199.061553 
L 108.455365 198.679137 
L 108.772132 198.729362 
L 109.073061 198.736768 
L 109.310636 198.415649 
L 109.548212 198.204499 
L 110.023362 198.063707 
L 110.355968 197.77069 
L 110.561866 197.617143 
L 111.432976 196.179174 
L 111.702228 195.826314 
L 112.129863 195.03027 
L 112.478307 193.798422 
L 112.810912 192.329366 
L 112.937619 192.120379 
L 113.016811 191.244673 
L 113.096003 187.279207 
L 113.206871 164.333599 
L 113.491961 55.772506 
L 113.571153 62.473523 
L 114.394748 191.691236 
L 114.648161 198.881198 
L 114.869898 200.267364 
L 115.154988 200.680213 
L 115.693492 201.073172 
L 115.851876 201.178746 
L 116.960561 202.825008 
L 117.419873 203.719602 
L 118.861163 204.830819 
L 119.035385 204.97602 
L 119.478859 205.461049 
L 119.748111 205.567604 
L 120.080716 205.797579 
L 120.318291 205.892994 
L 120.983502 206.313513 
L 121.331946 206.254512 
L 121.537844 206.30973 
L 121.902127 206.466148 
L 122.662367 206.033508 
L 122.915781 205.950041 
L 123.232548 206.026581 
L 123.644345 206.026052 
L 124.182849 205.82886 
L 124.46794 205.659506 
L 125.275696 205.881804 
L 125.608301 205.614247 
L 126.115128 205.421068 
L 126.38438 205.324339 
L 126.685309 204.701516 
L 127.144621 203.862821 
L 128.110761 203.575256 
L 128.585911 203.674934 
L 129.504536 203.268977 
L 129.821303 203.124465 
L 130.2331 203.248935 
L 130.644897 202.949026 
L 130.961664 202.740707 
L 131.405138 202.622544 
L 132.862266 202.040724 
L 134.446102 200.986255 
L 136.029937 199.553306 
L 136.505087 199.479235 
L 136.742663 199.611682 
L 137.043591 199.487365 
L 137.407873 199.324186 
L 137.582095 199.361504 
L 137.930539 199.534696 
L 138.437366 198.68525 
L 138.754133 198.216607 
L 139.229284 198.081371 
L 139.672758 197.693468 
L 140.005363 197.603068 
L 140.32213 197.406411 
L 140.591382 197.333494 
L 140.828958 197.468479 
L 141.003179 197.393205 
L 141.129886 197.459139 
L 141.446653 197.783625 
L 141.795097 197.741829 
L 142.856267 197.990039 
L 143.030488 198.016925 
L 143.268064 198.461617 
L 143.537316 198.733514 
L 143.727376 198.709514 
L 144.155011 198.474295 
L 144.329233 198.458787 
L 144.820222 198.040055 
L 145.136989 198.032294 
L 145.342888 197.973397 
L 145.532948 197.993043 
L 145.754685 197.984489 
L 145.928907 198.077915 
L 146.261512 198.273243 
L 147.702802 197.45464 
L 147.877024 197.387565 
L 147.892863 197.404026 
L 148.30466 197.778889 
L 149.001547 197.959495 
L 149.286638 198.157077 
L 149.809303 198.036668 
L 150.300292 197.639544 
L 150.617059 197.295412 
L 151.108048 197.136121 
L 151.345623 197.130585 
L 151.694067 196.924491 
L 152.058349 196.656858 
L 152.644368 196.58296 
L 153.341256 197.014384 
L 153.737215 196.854787 
L 153.895598 196.730074 
L 154.149012 196.574726 
L 154.703354 196.565449 
L 155.004283 196.683479 
L 155.447757 196.502282 
L 155.812039 195.950012 
L 156.619795 196.267467 
L 157.395874 195.578347 
L 157.855186 195.528519 
L 158.187792 195.701392 
L 158.504559 195.593786 
L 158.757972 195.669262 
L 158.979709 195.618864 
L 159.597405 196.326204 
L 159.771627 196.513694 
L 159.787465 196.502088 
L 160.262616 196.179848 
L 161.070372 196.517492 
L 161.434654 196.430485 
L 161.608876 196.374683 
L 161.925643 196.167031 
L 162.115703 196.191865 
L 162.305763 196.172928 
L 162.448308 196.213883 
L 162.670045 196.281904 
L 162.875944 196.329507 
L 163.192711 196.575359 
L 163.509478 196.825238 
L 163.810407 196.75287 
L 164.364749 196.54693 
L 165.679332 197.207849 
L 165.916908 196.861144 
L 166.645472 195.87594 
L 167.152299 196.090442 
L 167.374036 195.639073 
L 167.865025 194.671319 
L 168.086762 194.875305 
L 168.561912 195.190563 
L 169.306315 194.74708 
L 169.702274 195.024985 
L 169.971526 195.224535 
L 170.161586 195.093959 
L 170.60506 194.685972 
L 171.222756 194.411864 
L 171.412816 194.031729 
L 171.713744 193.569497 
L 172.315602 192.018893 
L 172.537339 190.35768 
L 172.616531 187.241465 
L 172.711561 172.728116 
L 172.885783 94.351283 
L 173.044166 53.579405 
L 173.075843 55.426357 
L 173.234226 85.91086 
L 173.725215 171.079754 
L 174.010306 193.394169 
L 174.263719 198.47255 
L 174.485456 199.573961 
L 174.865577 199.929387 
L 175.451596 200.633396 
L 177.035431 204.558791 
L 178.397529 206.569393 
L 179.046902 206.999127 
L 179.506214 207.479844 
L 179.743789 207.624537 
L 180.282293 207.583923 
L 180.59906 207.65022 
L 180.899989 207.771727 
L 181.311786 207.938084 
L 183.830084 208.300269 
L 184.162689 208.213068 
L 184.368588 208.245524 
L 185.049637 207.899014 
L 186.031615 207.681438 
L 186.601796 207.424918 
L 186.791856 207.27457 
L 187.029431 207.131741 
L 187.219491 207.025311 
L 187.647127 206.804286 
L 188.201469 206.624236 
L 188.898357 206.346073 
L 189.642759 206.370372 
L 190.767282 205.629185 
L 191.099888 205.544654 
L 191.384978 205.474603 
L 191.701745 205.282884 
L 192.145219 204.965929 
L 192.794591 204.843275 
L 194.093336 204.567171 
L 195.281213 204.128194 
L 196.025615 203.496087 
L 196.579958 203.497138 
L 197.466905 202.764296 
L 197.736157 202.463733 
L 198.242985 202.20843 
L 198.528075 202.068403 
L 199.478376 201.877442 
L 199.715951 201.894918 
L 199.953527 201.932257 
L 200.191102 201.914119 
L 200.492031 201.923654 
L 200.666252 201.816452 
L 201.030535 201.539152 
L 201.933321 201.165408 
L 202.265926 200.804335 
L 202.598531 200.439131 
L 202.962814 200.590403 
L 203.580509 200.431787 
L 203.881438 200.332451 
L 204.451619 199.603253 
L 204.641679 199.451139 
L 205.116829 199.436987 
L 205.433597 199.118336 
L 205.797879 198.822057 
L 206.035454 198.878924 
L 206.304706 198.994596 
L 206.573958 198.951861 
L 206.906563 199.118406 
L 207.144139 199.162517 
L 208.173631 200.069901 
L 208.823004 200.168222 
L 209.108094 200.142025 
L 209.551568 200.378774 
L 209.72579 200.450161 
L 209.995042 200.603387 
L 210.834475 200.338591 
L 211.16708 200.297136 
L 211.563039 200.194406 
L 212.006513 200.351081 
L 212.370795 200.585424 
L 212.60837 200.403073 
L 213.416126 199.655154 
L 213.653701 199.292996 
L 213.66954 199.299888 
L 214.002145 199.388556 
L 214.208044 199.343596 
L 214.699033 199.526963 
L 215.190022 199.384537 
L 215.966101 199.749219 
L 216.171999 199.713293 
L 216.789695 199.440735 
L 217.296522 199.362102 
L 218.357692 198.996509 
L 218.500237 198.956799 
L 218.769489 198.84895 
L 218.943711 198.989519 
L 219.24464 199.224905 
L 220.099911 199.017727 
L 220.305809 198.920497 
L 220.796798 198.372351 
L 221.018535 198.418326 
L 221.382817 198.68968 
L 222.063866 198.388763 
L 222.570694 198.553402 
L 222.887461 198.823559 
L 223.631863 198.60282 
L 223.964469 198.500193 
L 224.233721 198.787473 
L 224.534649 198.97664 
L 224.930608 198.962613 
L 225.437435 198.885023 
L 226.957917 199.053848 
L 227.41723 199.105992 
L 227.670643 198.754106 
L 227.971572 198.520013 
L 228.129955 198.592311 
L 228.415046 198.793586 
L 228.668459 198.789351 
L 228.826843 198.690647 
L 229.064418 198.488781 
L 229.080257 198.50148 
L 229.856336 199.110784 
L 230.268133 199.060441 
L 230.553223 199.012761 
L 230.790799 198.927896 
L 231.218434 198.730071 
L 231.551039 198.925449 
L 231.883645 198.60823 
L 232.105382 198.480359 
L 232.881461 198.966702 
L 233.08736 199.059891 
L 233.37245 199.087201 
L 233.610025 198.921151 
L 233.863439 198.825507 
L 234.069337 198.783572 
L 234.338589 198.662544 
L 234.560326 198.766985 
L 234.90877 199.065274 
L 235.431436 199.036427 
L 235.859071 199.097904 
L 236.698504 198.934468 
L 237.110301 198.555731 
L 237.363715 198.374242 
L 237.949734 198.438264 
L 238.472399 198.255885 
L 238.85252 198.096295 
L 239.105934 197.912421 
L 239.945366 197.287122 
L 240.19878 197.176999 
L 240.48387 197.005357 
L 240.721445 197.243525 
L 240.895667 197.272316 
L 241.35498 196.956913 
L 241.592555 197.100528 
L 242.162736 197.566307 
L 242.669563 197.398288 
L 242.859623 197.374942 
L 243.002168 197.443332 
L 243.303097 197.648084 
L 244.031661 197.585842 
L 244.475135 197.548024 
L 244.696872 197.62334 
L 245.330406 197.631602 
L 245.86891 197.222731 
L 246.407414 197.163528 
L 246.724181 197.123102 
L 246.945918 197.183981 
L 247.231008 197.169919 
L 247.563614 197.3976 
L 247.59529 197.357605 
L 248.149633 196.731972 
L 248.719813 196.830572 
L 249.163287 197.025894 
L 249.511731 196.838813 
L 249.923528 196.812143 
L 250.303649 196.601626 
L 250.557062 196.665224 
L 250.810476 196.354084 
L 251.048051 196.138678 
L 252.077544 196.737668 
L 252.315119 196.83793 
L 253.518834 196.93299 
L 254.294913 197.590995 
L 254.484974 197.170316 
L 254.785902 196.711853 
L 255.023478 196.669195 
L 255.229376 196.583287 
L 255.546143 196.643624 
L 255.815395 196.444123 
L 256.132162 196.017699 
L 256.543959 195.929768 
L 257.082463 196.411819 
L 257.510099 196.530927 
L 257.763513 196.685684 
L 258.064441 196.581347 
L 258.317855 196.537673 
L 258.507915 196.463518 
L 259.157288 195.886532 
L 259.315671 195.939323 
L 259.505731 196.007803 
L 259.695792 195.695724 
L 259.965044 195.362121 
L 260.915345 195.061378 
L 261.311303 194.603937 
L 261.754777 194.337785 
L 261.928999 194.288047 
L 262.942654 192.936827 
L 263.148552 192.773294 
L 263.481158 192.274078 
L 263.544511 192.328691 
L 263.813763 192.801668 
L 263.987985 192.931986 
L 264.003823 192.922688 
L 264.352267 192.53039 
L 264.478974 192.308176 
L 264.605681 191.52214 
L 264.700711 189.488163 
L 264.795741 180.413439 
L 264.922448 137.293872 
L 265.160023 53.568 
L 265.1917 55.194567 
L 265.334245 81.585201 
L 265.825234 167.06431 
L 266.126163 191.772652 
L 266.379576 197.577788 
L 266.648828 199.484409 
L 266.91808 199.99037 
L 267.393231 200.839302 
L 268.422724 204.240571 
L 268.945389 205.879321 
L 269.198803 206.376395 
L 269.816499 207.663231 
L 270.750961 208.992504 
L 271.33698 209.553071 
L 271.812131 209.832304 
L 272.318958 210.015198 
L 272.58821 210.000657 
L 273.45932 210.33387 
L 274.203722 210.001422 
L 274.615519 210.208538 
L 274.837256 210.209254 
L 275.597497 210.0344 
L 276.025133 209.931968 
L 276.373576 209.854628 
L 276.753697 209.79103 
L 277.054626 209.783526 
L 277.672321 209.782956 
L 278.099957 209.738566 
L 278.385047 209.818076 
L 279.842176 209.177922 
L 280.253973 208.894955 
L 280.66577 208.957523 
L 280.95086 208.898828 
L 281.72694 208.48575 
L 281.932838 208.390496 
L 282.376312 208.205251 
L 282.851463 208.051399 
L 283.770087 207.062823 
L 284.118531 206.674009 
L 284.562005 206.4123 
L 286.700182 205.206302 
L 287.270363 204.585155 
L 288.426563 204.714201 
L 288.822521 204.753695 
L 289.804499 204.302333 
L 290.168781 204.297868 
L 290.833992 203.748206 
L 291.150759 203.395777 
L 291.562556 203.079018 
L 291.847647 202.872242 
L 292.132737 202.712659 
L 292.465342 202.384481 
L 292.497019 202.412229 
L 292.813786 202.591527 
L 293.25726 202.809548 
L 293.44732 202.801196 
L 293.811602 202.711581 
L 294.556005 202.821016 
L 294.777742 202.869161 
L 295.157862 202.747362 
L 295.395438 202.784019 
L 295.997295 202.304762 
L 296.298224 202.10844 
L 297.026788 201.712963 
L 297.501938 201.775358 
L 297.739514 201.712504 
L 298.198826 201.85694 
L 298.45224 201.679332 
L 298.753168 201.516063 
L 298.943229 201.59503 
L 299.212481 201.684102 
L 299.434217 201.579626 
L 299.687631 201.527962 
L 299.972721 201.399278 
L 300.701286 201.073992 
L 300.986376 201.018107 
L 301.42985 200.718121 
L 302.934493 201.5959 
L 303.488836 201.54605 
L 304.755904 201.064451 
L 305.215216 200.699852 
L 305.405276 200.711674 
L 305.690367 200.816206 
L 305.959619 200.580813 
L 306.339739 200.296893 
L 307.19501 200.311476 
L 307.907736 199.991956 
L 308.113635 200.057863 
L 308.382886 199.998542 
L 308.763007 200.160621 
L 308.984744 200.1308 
L 309.428218 199.948414 
L 309.649955 200.068941 
L 309.998398 200.216381 
L 310.489387 199.932927 
L 310.742801 200.024544 
L 311.23379 200.056103 
L 311.582234 199.634151 
L 311.772294 199.580387 
L 312.29496 199.743516 
L 312.690918 199.763455 
L 312.896817 199.880949 
L 313.071039 200.001184 
L 313.625381 200.41984 
L 314.559844 200.357563 
L 314.844934 200.553017 
L 315.098348 200.550019 
L 315.55766 200.846138 
L 315.684367 200.727461 
L 316.048649 200.311726 
L 316.397093 200.300592 
L 317.109819 200.25913 
L 317.664161 199.651078 
L 317.980928 199.347004 
L 318.677815 199.218438 
L 319.010421 198.996543 
L 319.026259 199.015522 
L 319.152966 199.401214 
L 319.279673 200.72429 
L 319.992399 210.660248 
L 320.736801 216.28658 
L 321.402012 220.10601 
L 322.716595 226.02691 
L 324.142047 230.551247 
L 324.902288 232.412517 
L 326.121841 234.754171 
L 326.723698 235.223385 
L 329.083613 238.669093 
L 330.018076 239.53799 
L 330.794155 239.922041 
L 331.142599 240.077569 
L 331.506881 240.21882 
L 332.156253 240.538744 
L 333.106554 240.933372 
L 335.704044 241.849615 
L 336.70186 241.991666 
L 337.715515 242.021625 
L 338.903391 242.126873 
L 339.188482 242.168148 
L 339.742824 242.155866 
L 340.756479 242.081398 
L 341.247468 242.100127 
L 341.595911 242.11149 
L 342.118577 242.151853 
L 342.862979 242.183753 
L 345.143702 241.993898 
L 345.603014 242.047155 
L 345.84059 242.046014 
L 346.537477 241.971859 
L 346.933436 241.998015 
L 348.374726 241.954835 
L 348.992422 241.762448 
L 350.307005 241.701625 
L 350.592095 241.65076 
L 351.162276 241.558941 
L 351.41569 241.508898 
L 351.875002 241.524267 
L 353.110393 241.438366 
L 353.33213 241.401055 
L 353.569706 241.37168 
L 354.361623 241.375317 
L 354.710067 241.40874 
L 355.723722 241.242919 
L 356.103842 241.132101 
L 358.067798 240.737577 
L 359.857531 240.516782 
L 360.190137 240.438663 
L 360.696964 240.420567 
L 361.1246 240.597084 
L 361.631427 240.613462 
L 362.233284 240.567709 
L 363.547868 240.464255 
L 363.991341 240.486613 
L 364.830774 240.404225 
L 365.195056 240.372359 
L 365.796914 240.196218 
L 366.826406 240.157712 
L 367.048143 240.162524 
L 367.681678 240.012065 
L 368.077636 239.969435 
L 368.631979 240.01354 
L 368.980422 239.988553 
L 369.629795 239.976097 
L 370.05743 239.950693 
L 370.548419 239.790512 
L 371.055247 239.708971 
L 371.467044 239.749119 
L 371.926356 239.81198 
L 372.417345 239.834332 
L 372.765789 239.78709 
L 373.145909 239.714758 
L 374.302109 239.649963 
L 375.854267 239.573312 
L 376.171034 239.615024 
L 376.566993 239.551948 
L 377.818223 239.26923 
L 378.705171 239.282562 
L 379.227836 239.235049 
L 379.702987 239.302862 
L 381.761973 239.279697 
L 388.097314 238.925557 
L 390.504743 238.992869 
L 390.948217 238.918728 
L 391.613428 239.039881 
L 392.341992 239.063262 
L 392.722112 239.043601 
L 394.258433 239.031028 
L 395.034512 239.056175 
L 395.620531 238.92144 
L 397.36275 238.787561 
L 397.663678 238.806338 
L 398.487273 238.721849 
L 398.487273 238.721849 
" clip-path="url(#p7e7bcdd3e7)" style="fill: none; stroke: #d62728; stroke-width: 1.5; stroke-linecap: square"/>
   </g>
   <g id="patch_3">
    <path d="M 57.6 307.584 
L 57.6 41.472 
" style="fill: none; stroke: #000000; stroke-width: 0.8; stroke-linejoin: miter; stroke-linecap: square"/>
   </g>
   <g id="patch_4">
    <path d="M 414.72 307.584 
L 414.72 41.472 
" style="fill: none; stroke: #000000; stroke-width: 0.8; stroke-linejoin: miter; stroke-linecap: square"/>
   </g>
   <g id="patch_5">
    <path d="M 57.6 307.584 
L 414.72 307.584 
" style="fill: none; stroke: #000000; stroke-width: 0.8; stroke-linejoin: miter; stroke-linecap: square"/>
   </g>
   <g id="patch_6">
    <path d="M 57.6 41.472 
L 414.72 41.472 
" style="fill: none; stroke: #000000; stroke-width: 0.8; stroke-linejoin: miter; stroke-linecap: square"/>
   </g>
  </g>
 </g>
 <defs>
  <clipPath id="p7e7bcdd3e7">
   <rect x="57.6" y="41.472" width="357.12" height="266.112"/>
  </clipPath>
 </defs>
</svg>
