<?xml version="1.0" encoding="utf-8" standalone="no"?>
<!DOCTYPE svg PUBLIC "-//W3C//DTD SVG 1.1//EN"
  "http://www.w3.org/Graphics/SVG/1.1/DTD/svg11.dtd">
<svg height="345.6pt" version="1.1" viewBox="0 0 460.8 345.6" width="460.8pt" xmlns="http://www.w3.org/2000/svg" xmlns:xlink="http://www.w3.org/1999/xlink">
 <metadata>
  <rdf:RDF xmlns:cc="http://creativecommons.org/ns#" xmlns:dc="http://purl.org/dc/elements/1.1/" xmlns:rdf="http://www.w3.org/1999/02/22-rdf-syntax-ns#">
   <cc:Work>
    <dc:type rdf:resource="http://purl.org/dc/dcmitype/StillImage"/>
    <dc:date>2024-08-06T14:44:56.559345</dc:date>
    <dc:format>image/svg+xml</dc:format>
    <dc:creator>
     <cc:Agent>
      <dc:title>Matplotlib v3.4.2, https://matplotlib.org/</dc:title>
     </cc:Agent>
    </dc:creator>
   </cc:Work>
  </rdf:RDF>
 </metadata>
 <defs>
  <style type="text/css">*{stroke-linecap:butt;stroke-linejoin:round;}</style>
 </defs>
 <g id="figure_1">
  <g id="patch_1">
   <path d="M 0 345.6 
L 460.8 345.6 
L 460.8 0 
L 0 0 
z
" style="fill:#ffffff;"/>
  </g>
  <g id="axes_1">
   <g id="patch_2">
    <path d="M 57.6 307.584 
L 414.72 307.584 
L 414.72 41.472 
L 57.6 41.472 
z
" style="fill:#ffffff;"/>
   </g>
   <g id="matplotlib.axis_1">
    <g id="xtick_1">
     <g id="line2d_1">
      <defs>
       <path d="M 0 0 
L 0 3.5 
" id="mdb5b308255" style="stroke:#000000;stroke-width:0.8;"/>
      </defs>
      <g>
       <use style="stroke:#000000;stroke-width:0.8;" x="59.701804" xlink:href="#mdb5b308255" y="307.584"/>
      </g>
     </g>
     <g id="text_1">
      <!-- 0.75 -->
      <g transform="translate(48.568992 322.182437)scale(0.1 -0.1)">
       <defs>
        <path d="M 2034 4250 
Q 1547 4250 1301 3770 
Q 1056 3291 1056 2328 
Q 1056 1369 1301 889 
Q 1547 409 2034 409 
Q 2525 409 2770 889 
Q 3016 1369 3016 2328 
Q 3016 3291 2770 3770 
Q 2525 4250 2034 4250 
z
M 2034 4750 
Q 2819 4750 3233 4129 
Q 3647 3509 3647 2328 
Q 3647 1150 3233 529 
Q 2819 -91 2034 -91 
Q 1250 -91 836 529 
Q 422 1150 422 2328 
Q 422 3509 836 4129 
Q 1250 4750 2034 4750 
z
" id="DejaVuSans-30" transform="scale(0.015625)"/>
        <path d="M 684 794 
L 1344 794 
L 1344 0 
L 684 0 
L 684 794 
z
" id="DejaVuSans-2e" transform="scale(0.015625)"/>
        <path d="M 525 4666 
L 3525 4666 
L 3525 4397 
L 1831 0 
L 1172 0 
L 2766 4134 
L 525 4134 
L 525 4666 
z
" id="DejaVuSans-37" transform="scale(0.015625)"/>
        <path d="M 691 4666 
L 3169 4666 
L 3169 4134 
L 1269 4134 
L 1269 2991 
Q 1406 3038 1543 3061 
Q 1681 3084 1819 3084 
Q 2600 3084 3056 2656 
Q 3513 2228 3513 1497 
Q 3513 744 3044 326 
Q 2575 -91 1722 -91 
Q 1428 -91 1123 -41 
Q 819 9 494 109 
L 494 744 
Q 775 591 1075 516 
Q 1375 441 1709 441 
Q 2250 441 2565 725 
Q 2881 1009 2881 1497 
Q 2881 1984 2565 2268 
Q 2250 2553 1709 2553 
Q 1456 2553 1204 2497 
Q 953 2441 691 2322 
L 691 4666 
z
" id="DejaVuSans-35" transform="scale(0.015625)"/>
       </defs>
       <use xlink:href="#DejaVuSans-30"/>
       <use x="63.623047" xlink:href="#DejaVuSans-2e"/>
       <use x="95.410156" xlink:href="#DejaVuSans-37"/>
       <use x="159.033203" xlink:href="#DejaVuSans-35"/>
      </g>
     </g>
    </g>
    <g id="xtick_2">
     <g id="line2d_2">
      <g>
       <use style="stroke:#000000;stroke-width:0.8;" x="99.713241" xlink:href="#mdb5b308255" y="307.584"/>
      </g>
     </g>
     <g id="text_2">
      <!-- 1.00 -->
      <g transform="translate(88.580428 322.182437)scale(0.1 -0.1)">
       <defs>
        <path d="M 794 531 
L 1825 531 
L 1825 4091 
L 703 3866 
L 703 4441 
L 1819 4666 
L 2450 4666 
L 2450 531 
L 3481 531 
L 3481 0 
L 794 0 
L 794 531 
z
" id="DejaVuSans-31" transform="scale(0.015625)"/>
       </defs>
       <use xlink:href="#DejaVuSans-31"/>
       <use x="63.623047" xlink:href="#DejaVuSans-2e"/>
       <use x="95.410156" xlink:href="#DejaVuSans-30"/>
       <use x="159.033203" xlink:href="#DejaVuSans-30"/>
      </g>
     </g>
    </g>
    <g id="xtick_3">
     <g id="line2d_3">
      <g>
       <use style="stroke:#000000;stroke-width:0.8;" x="139.724677" xlink:href="#mdb5b308255" y="307.584"/>
      </g>
     </g>
     <g id="text_3">
      <!-- 1.25 -->
      <g transform="translate(128.591864 322.182437)scale(0.1 -0.1)">
       <defs>
        <path d="M 1228 531 
L 3431 531 
L 3431 0 
L 469 0 
L 469 531 
Q 828 903 1448 1529 
Q 2069 2156 2228 2338 
Q 2531 2678 2651 2914 
Q 2772 3150 2772 3378 
Q 2772 3750 2511 3984 
Q 2250 4219 1831 4219 
Q 1534 4219 1204 4116 
Q 875 4013 500 3803 
L 500 4441 
Q 881 4594 1212 4672 
Q 1544 4750 1819 4750 
Q 2544 4750 2975 4387 
Q 3406 4025 3406 3419 
Q 3406 3131 3298 2873 
Q 3191 2616 2906 2266 
Q 2828 2175 2409 1742 
Q 1991 1309 1228 531 
z
" id="DejaVuSans-32" transform="scale(0.015625)"/>
       </defs>
       <use xlink:href="#DejaVuSans-31"/>
       <use x="63.623047" xlink:href="#DejaVuSans-2e"/>
       <use x="95.410156" xlink:href="#DejaVuSans-32"/>
       <use x="159.033203" xlink:href="#DejaVuSans-35"/>
      </g>
     </g>
    </g>
    <g id="xtick_4">
     <g id="line2d_4">
      <g>
       <use style="stroke:#000000;stroke-width:0.8;" x="179.736113" xlink:href="#mdb5b308255" y="307.584"/>
      </g>
     </g>
     <g id="text_4">
      <!-- 1.50 -->
      <g transform="translate(168.6033 322.182437)scale(0.1 -0.1)">
       <use xlink:href="#DejaVuSans-31"/>
       <use x="63.623047" xlink:href="#DejaVuSans-2e"/>
       <use x="95.410156" xlink:href="#DejaVuSans-35"/>
       <use x="159.033203" xlink:href="#DejaVuSans-30"/>
      </g>
     </g>
    </g>
    <g id="xtick_5">
     <g id="line2d_5">
      <g>
       <use style="stroke:#000000;stroke-width:0.8;" x="219.747549" xlink:href="#mdb5b308255" y="307.584"/>
      </g>
     </g>
     <g id="text_5">
      <!-- 1.75 -->
      <g transform="translate(208.614737 322.182437)scale(0.1 -0.1)">
       <use xlink:href="#DejaVuSans-31"/>
       <use x="63.623047" xlink:href="#DejaVuSans-2e"/>
       <use x="95.410156" xlink:href="#DejaVuSans-37"/>
       <use x="159.033203" xlink:href="#DejaVuSans-35"/>
      </g>
     </g>
    </g>
    <g id="xtick_6">
     <g id="line2d_6">
      <g>
       <use style="stroke:#000000;stroke-width:0.8;" x="259.758985" xlink:href="#mdb5b308255" y="307.584"/>
      </g>
     </g>
     <g id="text_6">
      <!-- 2.00 -->
      <g transform="translate(248.626173 322.182437)scale(0.1 -0.1)">
       <use xlink:href="#DejaVuSans-32"/>
       <use x="63.623047" xlink:href="#DejaVuSans-2e"/>
       <use x="95.410156" xlink:href="#DejaVuSans-30"/>
       <use x="159.033203" xlink:href="#DejaVuSans-30"/>
      </g>
     </g>
    </g>
    <g id="xtick_7">
     <g id="line2d_7">
      <g>
       <use style="stroke:#000000;stroke-width:0.8;" x="299.770421" xlink:href="#mdb5b308255" y="307.584"/>
      </g>
     </g>
     <g id="text_7">
      <!-- 2.25 -->
      <g transform="translate(288.637609 322.182437)scale(0.1 -0.1)">
       <use xlink:href="#DejaVuSans-32"/>
       <use x="63.623047" xlink:href="#DejaVuSans-2e"/>
       <use x="95.410156" xlink:href="#DejaVuSans-32"/>
       <use x="159.033203" xlink:href="#DejaVuSans-35"/>
      </g>
     </g>
    </g>
    <g id="xtick_8">
     <g id="line2d_8">
      <g>
       <use style="stroke:#000000;stroke-width:0.8;" x="339.781858" xlink:href="#mdb5b308255" y="307.584"/>
      </g>
     </g>
     <g id="text_8">
      <!-- 2.50 -->
      <g transform="translate(328.649045 322.182437)scale(0.1 -0.1)">
       <use xlink:href="#DejaVuSans-32"/>
       <use x="63.623047" xlink:href="#DejaVuSans-2e"/>
       <use x="95.410156" xlink:href="#DejaVuSans-35"/>
       <use x="159.033203" xlink:href="#DejaVuSans-30"/>
      </g>
     </g>
    </g>
    <g id="xtick_9">
     <g id="line2d_9">
      <g>
       <use style="stroke:#000000;stroke-width:0.8;" x="379.793294" xlink:href="#mdb5b308255" y="307.584"/>
      </g>
     </g>
     <g id="text_9">
      <!-- 2.75 -->
      <g transform="translate(368.660481 322.182437)scale(0.1 -0.1)">
       <use xlink:href="#DejaVuSans-32"/>
       <use x="63.623047" xlink:href="#DejaVuSans-2e"/>
       <use x="95.410156" xlink:href="#DejaVuSans-37"/>
       <use x="159.033203" xlink:href="#DejaVuSans-35"/>
      </g>
     </g>
    </g>
   </g>
   <g id="matplotlib.axis_2">
    <g id="ytick_1">
     <g id="line2d_10">
      <defs>
       <path d="M 0 0 
L -3.5 0 
" id="m33082d3b6d" style="stroke:#000000;stroke-width:0.8;"/>
      </defs>
      <g>
       <use style="stroke:#000000;stroke-width:0.8;" x="57.6" xlink:href="#m33082d3b6d" y="258.987572"/>
      </g>
     </g>
     <g id="text_10">
      <!-- −80 -->
      <g transform="translate(29.495313 262.786791)scale(0.1 -0.1)">
       <defs>
        <path d="M 678 2272 
L 4684 2272 
L 4684 1741 
L 678 1741 
L 678 2272 
z
" id="DejaVuSans-2212" transform="scale(0.015625)"/>
        <path d="M 2034 2216 
Q 1584 2216 1326 1975 
Q 1069 1734 1069 1313 
Q 1069 891 1326 650 
Q 1584 409 2034 409 
Q 2484 409 2743 651 
Q 3003 894 3003 1313 
Q 3003 1734 2745 1975 
Q 2488 2216 2034 2216 
z
M 1403 2484 
Q 997 2584 770 2862 
Q 544 3141 544 3541 
Q 544 4100 942 4425 
Q 1341 4750 2034 4750 
Q 2731 4750 3128 4425 
Q 3525 4100 3525 3541 
Q 3525 3141 3298 2862 
Q 3072 2584 2669 2484 
Q 3125 2378 3379 2068 
Q 3634 1759 3634 1313 
Q 3634 634 3220 271 
Q 2806 -91 2034 -91 
Q 1263 -91 848 271 
Q 434 634 434 1313 
Q 434 1759 690 2068 
Q 947 2378 1403 2484 
z
M 1172 3481 
Q 1172 3119 1398 2916 
Q 1625 2713 2034 2713 
Q 2441 2713 2670 2916 
Q 2900 3119 2900 3481 
Q 2900 3844 2670 4047 
Q 2441 4250 2034 4250 
Q 1625 4250 1398 4047 
Q 1172 3844 1172 3481 
z
" id="DejaVuSans-38" transform="scale(0.015625)"/>
       </defs>
       <use xlink:href="#DejaVuSans-2212"/>
       <use x="83.789062" xlink:href="#DejaVuSans-38"/>
       <use x="147.412109" xlink:href="#DejaVuSans-30"/>
      </g>
     </g>
    </g>
    <g id="ytick_2">
     <g id="line2d_11">
      <g>
       <use style="stroke:#000000;stroke-width:0.8;" x="57.6" xlink:href="#m33082d3b6d" y="204.700694"/>
      </g>
     </g>
     <g id="text_11">
      <!-- −60 -->
      <g transform="translate(29.495313 208.499913)scale(0.1 -0.1)">
       <defs>
        <path d="M 2113 2584 
Q 1688 2584 1439 2293 
Q 1191 2003 1191 1497 
Q 1191 994 1439 701 
Q 1688 409 2113 409 
Q 2538 409 2786 701 
Q 3034 994 3034 1497 
Q 3034 2003 2786 2293 
Q 2538 2584 2113 2584 
z
M 3366 4563 
L 3366 3988 
Q 3128 4100 2886 4159 
Q 2644 4219 2406 4219 
Q 1781 4219 1451 3797 
Q 1122 3375 1075 2522 
Q 1259 2794 1537 2939 
Q 1816 3084 2150 3084 
Q 2853 3084 3261 2657 
Q 3669 2231 3669 1497 
Q 3669 778 3244 343 
Q 2819 -91 2113 -91 
Q 1303 -91 875 529 
Q 447 1150 447 2328 
Q 447 3434 972 4092 
Q 1497 4750 2381 4750 
Q 2619 4750 2861 4703 
Q 3103 4656 3366 4563 
z
" id="DejaVuSans-36" transform="scale(0.015625)"/>
       </defs>
       <use xlink:href="#DejaVuSans-2212"/>
       <use x="83.789062" xlink:href="#DejaVuSans-36"/>
       <use x="147.412109" xlink:href="#DejaVuSans-30"/>
      </g>
     </g>
    </g>
    <g id="ytick_3">
     <g id="line2d_12">
      <g>
       <use style="stroke:#000000;stroke-width:0.8;" x="57.6" xlink:href="#m33082d3b6d" y="150.413815"/>
      </g>
     </g>
     <g id="text_12">
      <!-- −40 -->
      <g transform="translate(29.495313 154.213034)scale(0.1 -0.1)">
       <defs>
        <path d="M 2419 4116 
L 825 1625 
L 2419 1625 
L 2419 4116 
z
M 2253 4666 
L 3047 4666 
L 3047 1625 
L 3713 1625 
L 3713 1100 
L 3047 1100 
L 3047 0 
L 2419 0 
L 2419 1100 
L 313 1100 
L 313 1709 
L 2253 4666 
z
" id="DejaVuSans-34" transform="scale(0.015625)"/>
       </defs>
       <use xlink:href="#DejaVuSans-2212"/>
       <use x="83.789062" xlink:href="#DejaVuSans-34"/>
       <use x="147.412109" xlink:href="#DejaVuSans-30"/>
      </g>
     </g>
    </g>
    <g id="ytick_4">
     <g id="line2d_13">
      <g>
       <use style="stroke:#000000;stroke-width:0.8;" x="57.6" xlink:href="#m33082d3b6d" y="96.126937"/>
      </g>
     </g>
     <g id="text_13">
      <!-- −20 -->
      <g transform="translate(29.495313 99.926155)scale(0.1 -0.1)">
       <use xlink:href="#DejaVuSans-2212"/>
       <use x="83.789062" xlink:href="#DejaVuSans-32"/>
       <use x="147.412109" xlink:href="#DejaVuSans-30"/>
      </g>
     </g>
    </g>
    <g id="ytick_5">
     <g id="line2d_14">
      <g>
       <use style="stroke:#000000;stroke-width:0.8;" x="57.6" xlink:href="#m33082d3b6d" y="41.840058"/>
      </g>
     </g>
     <g id="text_14">
      <!-- 0 -->
      <g transform="translate(44.2375 45.639277)scale(0.1 -0.1)">
       <use xlink:href="#DejaVuSans-30"/>
      </g>
     </g>
    </g>
   </g>
   <g id="line2d_15">
    <path clip-path="url(#paf744078f8)" d="M 73.832727 199.661763 
L 74.149155 199.541232 
L 74.465582 199.531387 
L 75.098437 199.687315 
L 75.414864 199.783827 
L 76.047719 200.108859 
L 76.205933 200.117142 
L 76.52236 199.987923 
L 77.313429 200.101147 
L 77.629856 199.952458 
L 80.31949 199.813215 
L 80.794131 199.668941 
L 82.218054 199.615748 
L 82.376268 199.523985 
L 82.692695 199.529738 
L 83.32555 199.245057 
L 83.641978 199.216493 
L 84.274833 198.990426 
L 84.59126 199.07591 
L 84.907687 199.037313 
L 86.015183 199.267344 
L 86.806252 199.427001 
L 87.122679 199.429062 
L 87.439107 199.408757 
L 90.603381 199.58245 
L 91.236236 199.447411 
L 91.552663 199.523654 
L 91.869091 199.536663 
L 92.343732 199.61494 
L 93.134801 199.621106 
L 93.451228 199.551629 
L 95.349793 200.138186 
L 95.824434 200.037542 
L 96.140861 200.017191 
L 96.457289 199.824019 
L 97.090144 199.863325 
L 97.564785 199.842572 
L 97.881212 199.804228 
L 99.621563 199.842925 
L 100.096204 199.794511 
L 101.836555 199.854555 
L 102.152982 199.956245 
L 102.785837 199.800488 
L 103.418692 199.919278 
L 105.159043 200.26225 
L 105.47547 200.068994 
L 106.74118 218.433497 
L 107.690463 226.909769 
L 109.114386 237.039501 
L 109.747241 240.673222 
L 110.854737 246.53566 
L 111.804019 250.624558 
L 113.069729 255.506369 
L 114.177225 258.750309 
L 116.550431 264.888698 
L 118.448995 268.616278 
L 120.505774 272.072812 
L 122.087911 273.777521 
L 122.562552 274.40479 
L 123.511834 275.474154 
L 124.61933 276.489016 
L 125.252185 277.142633 
L 125.568612 277.417063 
L 125.88504 277.782361 
L 126.517895 278.144433 
L 126.834322 278.405478 
L 127.308963 278.539008 
L 128.574673 279.426134 
L 129.840383 280.158143 
L 131.106093 280.924154 
L 131.580734 281.073121 
L 131.738947 281.064486 
L 133.162871 281.922509 
L 133.479298 282.067891 
L 134.112153 282.485229 
L 134.270367 282.449163 
L 134.586794 281.256809 
L 135.219649 278.687471 
L 135.536077 278.199194 
L 136.010718 278.117732 
L 136.643573 278.326292 
L 137.118214 278.524333 
L 137.592855 278.874273 
L 138.383923 279.798788 
L 138.700351 280.047033 
L 139.016778 280.375564 
L 140.915343 282.108579 
L 142.49748 282.864446 
L 142.813907 283.123567 
L 144.396045 283.837386 
L 144.870686 284.070454 
L 145.187113 284.136006 
L 145.503541 284.147996 
L 146.294609 284.425575 
L 146.611037 284.40315 
L 147.876746 284.779828 
L 148.509601 284.653249 
L 148.984242 284.75928 
L 149.458884 284.969891 
L 151.041021 285.242665 
L 151.199234 285.411104 
L 151.990303 285.472902 
L 152.781372 285.530079 
L 154.205295 286.077548 
L 156.420287 286.624844 
L 157.369569 287.117934 
L 157.685997 287.19291 
L 158.002424 287.324483 
L 158.951707 287.760477 
L 159.268134 287.770416 
L 159.426348 287.850746 
L 159.742775 287.718541 
L 160.217416 287.835627 
L 160.692057 287.862616 
L 161.166699 288.032345 
L 161.64134 288.00718 
L 162.115981 288.128058 
L 162.432408 288.118002 
L 162.748836 288.212029 
L 162.907049 288.212784 
L 163.223477 288.369105 
L 164.489187 288.101992 
L 164.805614 288.073622 
L 165.280255 288.108748 
L 166.387751 288.443779 
L 166.704179 288.367629 
L 168.602743 288.784094 
L 168.919171 289.038371 
L 169.393812 288.962849 
L 169.710239 289.035887 
L 170.026667 289.08721 
L 170.659522 289.101414 
L 170.975949 289.154063 
L 171.608804 289.109907 
L 171.925231 289.132448 
L 173.98201 289.590459 
L 174.614864 289.889777 
L 175.089506 289.934012 
L 175.405933 290.129866 
L 175.72236 290.257226 
L 176.197002 290.374168 
L 176.513429 290.319002 
L 176.98807 290.268483 
L 177.620925 290.257641 
L 177.937352 290.453637 
L 178.095566 290.434035 
L 179.044848 290.903936 
L 179.51949 291.123064 
L 180.626986 291.642839 
L 180.785199 291.57926 
L 181.101627 291.72769 
L 181.418054 291.710561 
L 182.209123 291.796864 
L 183.474833 291.419851 
L 183.79126 291.518429 
L 184.582329 291.817442 
L 185.373397 291.834728 
L 186.006252 292.089827 
L 186.797321 292.317992 
L 189.486954 292.056525 
L 189.803381 291.94892 
L 190.119809 292.092528 
L 190.436236 292.005399 
L 190.910877 292.001887 
L 191.227305 291.949881 
L 192.809442 292.315993 
L 194.075152 291.634738 
L 194.86622 291.726495 
L 195.024434 291.708932 
L 195.499075 292.040954 
L 195.973716 292.165515 
L 196.448357 292.305266 
L 196.606571 292.324555 
L 197.081212 292.589925 
L 197.555853 292.67834 
L 198.030494 292.950809 
L 198.188708 292.914208 
L 198.821563 293.119706 
L 199.296204 293.18871 
L 199.770845 293.529524 
L 200.878341 293.558803 
L 201.194769 293.64023 
L 201.511196 293.746147 
L 202.144051 293.775381 
L 202.460478 293.782852 
L 202.776906 293.918433 
L 204.833684 294.326007 
L 205.150112 294.381593 
L 205.466539 294.367908 
L 205.624753 294.30425 
L 205.94118 294.377978 
L 206.415821 294.126076 
L 208.630813 294.524068 
L 208.789027 294.425316 
L 209.105455 294.431638 
L 209.738309 294.33232 
L 209.896523 294.352593 
L 210.212951 294.544174 
L 210.371164 294.502641 
L 210.687592 294.579646 
L 211.004019 294.683238 
L 211.320447 294.724681 
L 211.636874 294.755803 
L 212.902584 294.96842 
L 213.219011 294.837879 
L 213.851866 294.90062 
L 214.168293 294.743755 
L 214.642935 294.708333 
L 216.225072 294.459541 
L 216.541499 294.573251 
L 216.857927 294.469965 
L 217.174354 294.539452 
L 217.648995 294.540316 
L 219.231132 294.641405 
L 219.389346 294.574873 
L 219.705774 294.649605 
L 220.338628 294.382253 
L 220.655056 294.526335 
L 220.971483 294.635785 
L 224.293971 294.683482 
L 224.610399 294.637352 
L 225.717895 294.403815 
L 226.35075 294.647246 
L 226.667177 294.613613 
L 227.141818 294.781054 
L 227.458246 294.935996 
L 227.616459 295.077209 
L 228.249314 294.964976 
L 228.565742 295.203284 
L 228.882169 295.141993 
L 229.515024 295.318352 
L 230.464306 295.044808 
L 230.62252 295.10673 
L 230.938947 295.021568 
L 231.097161 295.026701 
L 231.255375 294.903146 
L 231.88823 294.882086 
L 232.204657 294.726478 
L 232.679298 294.414771 
L 233.628581 294.618104 
L 234.261435 294.472508 
L 235.368931 294.969751 
L 235.685359 295.050063 
L 236.634641 295.4471 
L 236.792855 295.339969 
L 237.42571 295.439864 
L 237.583923 295.445477 
L 238.058565 295.202921 
L 238.374992 295.103672 
L 238.849633 295.056343 
L 239.166061 295.21934 
L 239.482488 295.1903 
L 240.115343 295.390082 
L 240.43177 295.275061 
L 240.748198 295.238097 
L 241.539266 294.884895 
L 241.855694 295.025116 
L 242.013907 294.969527 
L 242.330335 295.076564 
L 243.121404 294.974504 
L 243.437831 295.022311 
L 243.754258 295.00267 
L 244.070686 295.073105 
L 244.545327 295.27091 
L 244.861754 295.269726 
L 245.494609 295.286138 
L 246.443892 294.948772 
L 246.760319 294.711038 
L 248.026029 294.806122 
L 248.50067 294.820399 
L 249.133525 295.083962 
L 249.291738 295.017286 
L 249.76638 295.223733 
L 250.082807 295.219073 
L 250.399234 295.222044 
L 250.715662 295.169282 
L 251.032089 294.934726 
L 251.190303 294.987636 
L 251.50673 294.846762 
L 251.664944 294.90612 
L 252.456013 294.648039 
L 252.77244 294.736913 
L 253.088868 294.640455 
L 253.405295 294.573389 
L 253.721722 294.407902 
L 254.354577 294.542302 
L 254.671005 294.430462 
L 255.462073 294.446849 
L 256.411356 294.30026 
L 256.727783 294.346099 
L 258.151707 294.065038 
L 258.468134 294.001293 
L 259.100989 294.122642 
L 260.84134 294.45167 
L 261.790622 294.267743 
L 262.739904 293.927899 
L 262.898118 294.041682 
L 263.056332 293.908953 
L 263.372759 293.95596 
L 263.530973 293.908089 
L 263.689187 294.042058 
L 264.005614 287.955397 
L 264.638469 279.120815 
L 265.429537 271.217898 
L 266.695247 260.521155 
L 267.960957 251.865046 
L 271.125231 233.930604 
L 273.656651 222.985821 
L 277.295566 209.448473 
L 280.776268 196.403494 
L 281.409123 193.388206 
L 281.567337 193.100958 
L 281.883764 191.677296 
L 282.200191 190.089029 
L 282.358405 190.239585 
L 282.516619 188.49433 
L 282.674833 188.684724 
L 282.833046 186.82586 
L 282.99126 186.833492 
L 283.149474 186.209423 
L 283.307687 183.98656 
L 283.465901 185.729275 
L 283.624115 179.714842 
L 283.782329 185.704447 
L 283.940542 151.526616 
L 284.098756 77.082347 
L 284.25697 83.32644 
L 284.573397 151.747699 
L 284.889825 180.976499 
L 285.206252 192.392265 
L 285.522679 196.130255 
L 285.680893 196.010882 
L 285.839107 197.126459 
L 285.997321 196.750622 
L 286.313748 196.870358 
L 286.471962 196.373951 
L 286.630175 196.435088 
L 286.946603 195.464503 
L 288.370526 191.485754 
L 288.845167 190.588435 
L 289.952663 187.285345 
L 290.585518 185.216415 
L 290.901946 184.371322 
L 291.851228 180.96211 
L 292.325869 179.228422 
L 292.642297 177.796544 
L 292.80051 177.366052 
L 292.958724 176.462991 
L 293.116938 176.295532 
L 293.433365 174.872761 
L 293.908006 172.676809 
L 294.06622 170.59058 
L 294.224434 171.021772 
L 294.382648 168.569248 
L 294.540861 168.127192 
L 295.015502 161.447393 
L 295.33193 62.172386 
L 295.964785 165.627496 
L 296.439426 186.449384 
L 296.755853 191.557173 
L 297.072281 193.969234 
L 297.230494 193.91783 
L 297.388708 194.407597 
L 297.705136 194.346822 
L 297.863349 194.322589 
L 298.021563 194.051941 
L 298.179777 194.056394 
L 298.496204 193.523983 
L 299.129059 192.318594 
L 300.552982 189.755758 
L 301.027624 188.89275 
L 301.660478 187.762492 
L 301.818692 187.615405 
L 302.451547 186.506545 
L 302.767974 186.033812 
L 303.084402 185.436236 
L 303.400829 184.976929 
L 304.191898 183.853486 
L 305.299394 182.627539 
L 306.090463 181.496812 
L 306.881531 180.132738 
L 308.780096 176.692375 
L 309.571164 174.814542 
L 310.362233 172.606602 
L 310.520447 172.416304 
L 311.153301 169.896403 
L 311.311515 169.924335 
L 311.469729 168.776571 
L 311.627943 168.69505 
L 311.94437 167.036167 
L 312.102584 167.10766 
L 312.260797 164.733907 
L 312.419011 165.335109 
L 312.577225 161.127501 
L 312.735439 161.97897 
L 312.893652 142.384391 
L 313.051866 80.642198 
L 313.21008 64.810754 
L 313.684721 152.471605 
L 314.001148 175.458711 
L 314.317576 186.408522 
L 314.634003 191.24159 
L 314.950431 193.623649 
L 315.108644 193.933404 
L 315.266858 194.535954 
L 315.425072 194.467984 
L 315.583285 194.754129 
L 315.899713 194.58652 
L 316.057927 194.60664 
L 318.272919 192.955448 
L 320.962552 189.563044 
L 321.911834 189.065631 
L 322.386475 188.620446 
L 323.335758 187.803 
L 323.968612 187.240797 
L 324.28504 186.954491 
L 325.076108 186.607696 
L 326.658246 185.570079 
L 327.132887 185.597325 
L 327.449314 185.451608 
L 327.765742 185.319417 
L 328.55681 184.817015 
L 329.82252 184.458052 
L 330.297161 183.959903 
L 331.08823 183.341369 
L 331.879298 183.087974 
L 332.353939 182.693409 
L 332.828581 182.086977 
L 333.303222 181.892063 
L 333.619649 181.558443 
L 334.252504 181.404804 
L 334.727145 181.143467 
L 334.885359 181.216535 
L 335.36 180.992575 
L 336.309282 180.164064 
L 336.62571 180.007451 
L 337.100351 179.674106 
L 337.733206 178.860431 
L 338.366061 178.201226 
L 338.840702 177.713368 
L 339.315343 177.586266 
L 340.264625 176.779044 
L 340.422839 176.541926 
L 340.89748 176.54758 
L 341.372121 175.897475 
L 342.637831 174.23908 
L 343.270686 173.870888 
L 344.378182 172.306254 
L 344.852823 171.381634 
L 345.485678 170.809591 
L 346.276746 169.567486 
L 346.751388 169.089225 
L 347.226029 168.294099 
L 347.542456 167.378622 
L 347.70067 167.19918 
L 349.282807 162.635458 
L 349.915662 160.615303 
L 350.073876 157.934796 
L 350.232089 158.042161 
L 350.548517 153.542511 
L 350.70673 143.481885 
L 351.023158 60.850886 
L 351.497799 146.696067 
L 351.814226 171.025683 
L 352.130654 182.854922 
L 352.447081 188.542802 
L 352.763509 191.348941 
L 353.396364 193.50326 
L 353.871005 194.070483 
L 354.029219 194.098005 
L 354.187432 194.332831 
L 354.820287 194.368321 
L 355.136715 194.523164 
L 355.927783 194.478757 
L 356.085997 194.579041 
L 357.035279 194.442391 
L 357.668134 194.335686 
L 358.142775 194.125472 
L 358.459203 193.852055 
L 358.933844 193.783069 
L 359.250271 193.567804 
L 359.566699 193.540359 
L 361.307049 193.310378 
L 361.781691 192.907893 
L 363.838469 192.00717 
L 364.154896 192.020212 
L 364.471324 191.891595 
L 364.629537 191.878049 
L 364.945965 191.533952 
L 365.895247 191.675575 
L 366.686316 191.358106 
L 367.002743 191.101685 
L 367.319171 191.039714 
L 367.793812 190.816606 
L 367.952026 190.723922 
L 368.268453 190.803445 
L 369.692376 190.331113 
L 369.85059 190.253544 
L 370.167018 190.282189 
L 370.483445 190.177828 
L 370.958086 190.191592 
L 372.856651 189.599399 
L 373.805933 189.662215 
L 374.12236 189.519592 
L 374.597002 189.554289 
L 374.913429 189.53324 
L 375.071643 189.559528 
L 375.38807 189.420538 
L 375.704498 189.421019 
L 375.862711 189.315379 
L 376.495566 189.352991 
L 377.286635 189.037802 
L 377.603062 188.815749 
L 377.91949 188.775273 
L 378.235917 188.525892 
L 378.710558 188.528708 
L 379.185199 188.473895 
L 379.818054 188.226603 
L 380.292695 188.001536 
L 382.033046 187.356994 
L 383.298756 187.708672 
L 383.615183 187.501563 
L 383.931611 187.627618 
L 384.248038 187.485386 
L 384.880893 186.943854 
L 385.039107 187.011833 
L 385.671962 186.795552 
L 386.46303 186.699228 
L 386.779458 186.801927 
L 387.412313 186.686108 
L 387.72874 186.869398 
L 388.361595 186.771478 
L 389.152663 186.567186 
L 389.627305 186.424287 
L 390.893014 186.476068 
L 391.684083 186.266963 
L 392.158724 186.015203 
L 393.108006 185.79975 
L 393.424434 185.72063 
L 393.740861 185.869608 
L 394.215502 185.719561 
L 396.114067 185.364859 
L 396.746922 185.64394 
L 397.063349 185.51828 
L 397.53799 185.570843 
L 398.487273 185.447433 
L 398.487273 185.447433 
" style="fill:none;stroke:#000000;stroke-linecap:square;stroke-width:1.5;"/>
   </g>
   <g id="line2d_16">
    <path clip-path="url(#paf744078f8)" d="M 73.832727 195.003222 
L 74.465582 195.163408 
L 74.623796 195.096727 
L 75.098437 195.19404 
L 79.211994 194.681083 
L 80.003062 194.321783 
L 82.059841 195.006337 
L 82.692695 194.925864 
L 83.009123 195.056639 
L 83.32555 195.017808 
L 83.641978 195.075116 
L 84.274833 195.023749 
L 84.907687 195.184777 
L 85.224115 195.095996 
L 85.698756 195.106672 
L 86.015183 195.096103 
L 86.173397 195.024736 
L 86.489825 195.081017 
L 86.964466 194.971316 
L 87.439107 194.962975 
L 88.86303 194.805666 
L 89.179458 194.859728 
L 89.654099 194.911312 
L 90.12874 195.037567 
L 90.445167 194.987228 
L 91.869091 195.470327 
L 92.027305 195.435214 
L 92.501946 195.56341 
L 93.609442 195.901524 
L 94.084083 195.756887 
L 94.40051 195.768679 
L 94.875152 195.546206 
L 95.508006 195.403694 
L 96.140861 195.485358 
L 96.457289 195.630629 
L 96.93193 195.487591 
L 97.248357 195.445534 
L 97.722998 195.296879 
L 98.039426 195.352601 
L 98.514067 195.380865 
L 99.305136 195.924145 
L 99.93799 195.900929 
L 100.570845 195.727427 
L 100.887273 195.835233 
L 101.361914 195.893795 
L 101.678341 196.050176 
L 101.994769 196.027625 
L 102.46941 196.210968 
L 102.944051 196.220628 
L 103.73512 196.310903 
L 104.051547 196.446511 
L 104.367974 196.541312 
L 104.526188 196.609654 
L 104.684402 196.542143 
L 105.000829 196.721466 
L 105.317257 196.567097 
L 105.47547 196.639248 
L 106.74118 204.130097 
L 107.532249 207.408371 
L 108.639745 210.867978 
L 109.114386 212.130527 
L 109.747241 213.939735 
L 110.696523 216.06589 
L 111.645805 218.175046 
L 112.753301 220.011164 
L 113.386156 220.982451 
L 114.493652 222.670727 
L 118.448995 227.326718 
L 119.872919 228.190308 
L 120.663987 228.808395 
L 120.980415 229.094552 
L 121.61327 229.390678 
L 121.929697 229.586833 
L 122.087911 229.569342 
L 122.878979 229.993485 
L 124.302903 230.58746 
L 124.61933 230.878155 
L 124.777544 230.938442 
L 125.093971 231.213733 
L 126.201467 231.694351 
L 126.517895 231.735339 
L 126.992536 231.997134 
L 127.625391 232.228136 
L 127.941818 232.337716 
L 129.049314 232.577533 
L 131.42252 233.270003 
L 131.738947 233.257473 
L 132.371802 233.397323 
L 132.846443 233.209286 
L 133.795726 233.376553 
L 134.112153 233.531423 
L 136.485359 234.177327 
L 136.96 234.152794 
L 138.22571 234.251481 
L 138.858565 234.359287 
L 139.333206 234.561495 
L 139.807847 234.506446 
L 140.124274 234.340007 
L 140.598915 234.265582 
L 141.073557 234.364343 
L 141.389984 234.326916 
L 142.972121 234.49539 
L 143.288549 234.489312 
L 143.604976 234.629212 
L 146.76925 234.586859 
L 147.243892 234.645871 
L 147.718533 234.581994 
L 148.667815 234.437268 
L 148.984242 234.478269 
L 150.56638 234.05285 
L 150.882807 234.195976 
L 152.148517 234.272955 
L 152.464944 234.365654 
L 152.939585 234.149128 
L 153.730654 234.002265 
L 154.679936 234.193111 
L 155.154577 234.230559 
L 155.629219 234.198352 
L 155.945646 234.179641 
L 156.262073 234.287327 
L 158.793493 234.385632 
L 159.10992 234.384808 
L 159.584561 234.454724 
L 161.483126 233.895866 
L 161.64134 233.777511 
L 163.065263 234.013604 
L 163.539904 233.918779 
L 164.172759 234.029758 
L 164.489187 234.172165 
L 164.963828 234.310491 
L 166.387751 234.215755 
L 166.862392 234.33746 
L 167.495247 234.345111 
L 167.811675 234.437593 
L 168.286316 234.410739 
L 169.077384 234.28518 
L 169.552026 234.071634 
L 170.026667 234.147432 
L 170.343094 234.117103 
L 170.659522 233.938978 
L 170.975949 233.917689 
L 171.292376 233.835034 
L 171.608804 233.869011 
L 172.241659 233.86714 
L 172.874514 233.855926 
L 173.190941 233.883 
L 173.665582 233.813704 
L 173.823796 233.773403 
L 173.98201 233.857652 
L 174.298437 233.741706 
L 174.614864 233.862089 
L 175.089506 233.950536 
L 175.405933 233.870672 
L 175.72236 233.916788 
L 176.355215 233.828324 
L 176.513429 233.724437 
L 176.829856 233.802942 
L 177.462711 233.78969 
L 178.25378 233.984145 
L 178.570207 233.979902 
L 178.886635 234.021514 
L 179.203062 234.027521 
L 179.51949 234.042389 
L 180.310558 233.984456 
L 180.943413 233.967608 
L 181.576268 233.869519 
L 182.209123 233.887602 
L 182.52555 233.93484 
L 183.000191 233.837361 
L 183.316619 233.900333 
L 184.107687 233.782432 
L 184.582329 233.571127 
L 184.898756 233.56529 
L 185.689825 233.690715 
L 186.006252 233.743729 
L 186.322679 233.748368 
L 186.639107 233.766441 
L 187.271962 233.451522 
L 187.588389 233.371439 
L 187.904817 233.454571 
L 188.221244 233.491054 
L 188.695885 233.595114 
L 189.645167 233.449514 
L 190.119809 233.417051 
L 190.436236 233.396224 
L 190.752663 233.444781 
L 191.069091 233.506995 
L 191.701946 233.504108 
L 192.018373 233.566653 
L 192.334801 233.34729 
L 192.651228 233.401724 
L 193.60051 233.393049 
L 194.075152 233.513796 
L 195.815502 233.724955 
L 196.448357 233.673843 
L 196.922998 233.645237 
L 197.39764 233.765748 
L 197.872281 233.631235 
L 198.346922 233.626009 
L 198.663349 233.62955 
L 198.979777 233.717852 
L 200.087273 233.534822 
L 201.352982 233.276389 
L 201.985837 233.22306 
L 202.302265 233.085117 
L 203.567974 233.036069 
L 204.042616 233.149849 
L 204.359043 233.243187 
L 204.991898 233.210413 
L 205.466539 233.131501 
L 206.257608 233.21512 
L 206.415821 233.070088 
L 206.890463 233.206873 
L 207.20689 233.400959 
L 207.523317 233.343822 
L 207.997959 233.306418 
L 210.529378 233.369932 
L 211.162233 232.974086 
L 211.795088 232.807158 
L 212.269729 233.03107 
L 213.060797 233.150745 
L 213.535439 232.992817 
L 214.01008 232.972087 
L 214.801148 233.144117 
L 216.066858 233.326561 
L 216.541499 233.266209 
L 217.01614 233.259796 
L 218.598278 233.126999 
L 218.914705 233.044114 
L 219.54756 233.168322 
L 220.180415 233.293632 
L 220.81327 233.252544 
L 221.129697 233.284916 
L 221.446124 233.27224 
L 222.395407 233.319603 
L 223.186475 233.359786 
L 223.661116 233.481272 
L 223.977544 233.401119 
L 224.293971 233.45284 
L 224.926826 233.194165 
L 226.35075 233.27057 
L 226.667177 233.165702 
L 227.141818 233.113145 
L 228.407528 233.352383 
L 229.673238 233.187437 
L 229.831451 233.221772 
L 230.147879 233.06311 
L 230.62252 233.151908 
L 231.255375 233.038745 
L 231.571802 233.097197 
L 232.046443 232.973445 
L 233.153939 232.958047 
L 233.470367 232.904677 
L 237.742137 233.49697 
L 238.216778 233.348159 
L 238.533206 233.423407 
L 238.691419 233.364225 
L 239.166061 233.448571 
L 239.640702 233.453371 
L 239.957129 233.382986 
L 240.115343 233.490731 
L 240.748198 233.382029 
L 241.064625 233.450966 
L 241.69748 233.34505 
L 242.172121 233.384034 
L 243.279617 233.16817 
L 244.387113 233.224179 
L 244.703541 233.196801 
L 245.178182 233.051784 
L 245.652823 233.282288 
L 245.96925 233.272063 
L 246.285678 233.499206 
L 247.076746 233.410029 
L 247.393174 233.418213 
L 247.867815 233.297624 
L 248.184242 233.297977 
L 248.50067 233.210416 
L 248.975311 233.161877 
L 249.449952 232.812802 
L 249.76638 232.471874 
L 250.399234 232.194329 
L 252.614226 232.031201 
L 253.879936 232.074611 
L 254.512791 232.07362 
L 255.145646 232.048501 
L 255.620287 231.923686 
L 256.411356 231.914725 
L 257.835279 232.368747 
L 258.151707 232.280611 
L 258.30992 232.19905 
L 258.942775 232.367801 
L 259.259203 232.221025 
L 259.892057 232.277362 
L 260.366699 232.216826 
L 260.999553 232.373503 
L 261.157767 232.469313 
L 261.790622 232.270811 
L 261.948836 232.271845 
L 262.265263 232.481784 
L 263.372759 232.470556 
L 263.689187 232.389811 
L 264.796683 225.847038 
L 265.587751 223.169431 
L 267.328102 218.033681 
L 270.808804 210.923698 
L 271.283445 210.157326 
L 274.289506 205.700345 
L 276.662711 202.601673 
L 277.611994 201.48333 
L 278.086635 201.193596 
L 278.71949 200.468758 
L 280.459841 198.915994 
L 282.041978 197.718814 
L 282.200191 197.680583 
L 282.516619 197.393523 
L 282.833046 197.159484 
L 283.149474 196.993065 
L 283.624115 196.85114 
L 284.415183 196.244647 
L 285.997321 194.953532 
L 286.313748 194.829658 
L 287.26303 193.977503 
L 287.421244 193.956299 
L 288.054099 193.474617 
L 288.370526 193.418591 
L 288.845167 193.186826 
L 290.269091 192.321208 
L 290.585518 192.22359 
L 290.901946 192.101568 
L 291.376587 192.01547 
L 292.167656 191.517362 
L 293.749793 190.867982 
L 294.06622 190.844781 
L 294.382648 190.604405 
L 294.699075 190.525906 
L 295.648357 189.984746 
L 295.964785 189.741471 
L 296.281212 189.812746 
L 296.439426 189.981428 
L 297.388708 189.588069 
L 297.863349 189.139839 
L 298.33799 188.934638 
L 298.812632 188.685494 
L 299.129059 188.508569 
L 299.445486 188.394927 
L 299.6037 188.38234 
L 299.920128 188.154532 
L 300.078341 188.186448 
L 300.394769 187.98692 
L 300.711196 187.91995 
L 301.502265 187.246588 
L 301.976906 187.140504 
L 302.451547 186.692373 
L 305.14118 185.610211 
L 305.299394 185.608656 
L 306.565104 184.523288 
L 306.881531 184.661273 
L 310.362233 182.968739 
L 310.67866 183.044219 
L 310.995088 182.806491 
L 311.311515 182.763708 
L 311.469729 182.74575 
L 311.94437 182.317334 
L 312.260797 182.180767 
L 312.419011 181.933843 
L 314.159362 181.479052 
L 316.374354 179.756054 
L 317.48185 178.163971 
L 317.798278 177.600356 
L 317.956491 177.550723 
L 319.538628 175.597911 
L 320.01327 175.344238 
L 320.646124 174.575481 
L 320.962552 174.247119 
L 321.120766 174.446224 
L 321.278979 173.648818 
L 321.595407 173.10351 
L 321.75362 172.524918 
L 321.911834 172.52944 
L 322.070048 171.414349 
L 322.228262 171.576505 
L 322.386475 170.45456 
L 322.702903 169.994239 
L 322.861116 169.001869 
L 323.01933 169.9986 
L 323.177544 167.062438 
L 323.335758 168.833747 
L 323.493971 164.517422 
L 323.652185 165.885801 
L 323.810399 155.589356 
L 324.126826 60.863008 
L 324.443254 138.25043 
L 324.759681 176.299384 
L 325.076108 191.837616 
L 325.55075 198.371908 
L 325.867177 200.45329 
L 326.025391 200.482199 
L 326.183604 201.279812 
L 326.341818 201.043482 
L 326.500032 201.25288 
L 326.816459 201.140632 
L 326.974673 201.263749 
L 327.132887 201.160485 
L 327.2911 201.247634 
L 327.449314 201.121274 
L 327.923955 201.156155 
L 328.082169 201.345497 
L 330.771802 200.966831 
L 331.246443 200.725032 
L 331.879298 200.405414 
L 332.195726 200.111782 
L 332.512153 200.041059 
L 332.986794 199.672289 
L 334.252504 199.383586 
L 334.885359 199.244523 
L 335.201786 199.14114 
L 336.151069 198.793828 
L 336.309282 198.65851 
L 336.62571 198.624871 
L 337.416778 198.514299 
L 337.891419 198.330529 
L 338.207847 198.237562 
L 338.366061 198.174749 
L 338.524274 198.236683 
L 339.315343 197.960192 
L 339.63177 198.043921 
L 339.948198 197.967012 
L 340.264625 197.990331 
L 340.89748 197.984851 
L 341.372121 198.08829 
L 342.321404 197.660237 
L 342.637831 197.552304 
L 342.796045 197.474301 
L 342.954258 197.568209 
L 343.587113 197.377163 
L 344.061754 197.293079 
L 344.694609 197.203551 
L 345.011037 197.213981 
L 345.16925 197.079794 
L 345.485678 197.10283 
L 345.960319 196.886367 
L 346.909601 196.947925 
L 347.384242 196.809379 
L 348.808166 196.542082 
L 349.282807 196.535134 
L 349.599234 196.474173 
L 350.073876 196.488942 
L 350.548517 196.167608 
L 351.97244 195.998925 
L 352.288868 196.006066 
L 352.605295 195.856298 
L 352.763509 195.898572 
L 353.23815 195.595421 
L 353.554577 195.647892 
L 354.029219 195.512623 
L 354.345646 195.409212 
L 355.611356 195.261699 
L 355.927783 195.078633 
L 356.085997 195.103131 
L 356.718852 194.759724 
L 357.351707 194.86644 
L 357.668134 194.793664 
L 358.142775 194.821704 
L 359.092057 194.747762 
L 359.408485 194.606207 
L 359.724912 194.614287 
L 359.883126 194.585767 
L 360.515981 194.830679 
L 360.674195 194.864357 
L 361.465263 194.55067 
L 362.098118 194.665174 
L 362.730973 194.901496 
L 363.363828 194.895313 
L 364.629537 194.729055 
L 364.945965 194.842516 
L 365.737033 194.561245 
L 366.686316 194.347802 
L 367.002743 194.469036 
L 368.58488 194.283285 
L 369.692376 194.30004 
L 370.008804 194.232076 
L 370.325231 194.220537 
L 370.799872 194.027904 
L 371.907368 194.068875 
L 372.540223 193.819167 
L 372.698437 193.718723 
L 373.489506 193.898467 
L 374.438788 193.839879 
L 375.38807 193.347823 
L 376.020925 193.228838 
L 376.337352 193.048098 
L 376.65378 192.994407 
L 376.970207 192.993797 
L 377.444848 193.054288 
L 379.185199 192.87641 
L 379.501627 192.764856 
L 380.134482 192.869041 
L 380.92555 192.976337 
L 381.241978 193.094907 
L 381.716619 193.054726 
L 382.349474 193.16833 
L 382.665901 193.210833 
L 383.773397 193.602393 
L 385.513748 193.762434 
L 385.830175 193.680627 
L 386.304817 193.65706 
L 386.779458 193.64108 
L 388.836236 193.769845 
L 390.101946 193.553854 
L 390.576587 193.583536 
L 392.316938 194.024044 
L 392.633365 194.036622 
L 392.949793 194.093925 
L 393.582648 193.958977 
L 394.373716 194.013595 
L 394.690144 193.926589 
L 395.322998 193.953668 
L 396.272281 193.69193 
L 396.746922 193.817557 
L 397.854418 193.754911 
L 398.170845 193.865281 
L 398.329059 193.763591 
L 398.487273 193.802981 
L 398.487273 193.802981 
" style="fill:none;stroke:#000000;stroke-linecap:square;stroke-width:1.5;"/>
   </g>
   <g id="line2d_17">
    <path clip-path="url(#paf744078f8)" d="M 73.832727 204.131492 
L 74.307368 204.148584 
L 75.098437 204.06571 
L 75.414864 203.909732 
L 76.364147 203.922275 
L 76.680574 204.005965 
L 77.313429 204.07845 
L 77.629856 204.199727 
L 78.737352 203.915149 
L 80.161276 203.576465 
L 80.31949 203.593612 
L 80.635917 203.422712 
L 81.268772 203.439295 
L 81.585199 203.468593 
L 81.901627 203.467675 
L 82.534482 203.265576 
L 83.167337 203.141347 
L 84.116619 202.868996 
L 84.59126 202.904111 
L 85.224115 202.825005 
L 85.540542 202.809077 
L 86.331611 202.689354 
L 87.280893 202.801834 
L 89.179458 202.675834 
L 89.495885 202.716152 
L 89.812313 202.825136 
L 90.919809 202.844315 
L 91.236236 202.888201 
L 91.552663 202.799921 
L 92.185518 202.763173 
L 92.343732 202.792556 
L 92.660159 202.567499 
L 93.767656 202.369182 
L 94.242297 202.375892 
L 95.033365 202.237821 
L 96.140861 202.44819 
L 96.457289 202.429588 
L 96.615502 202.529118 
L 96.93193 202.414365 
L 97.881212 202.790586 
L 99.146922 202.681337 
L 100.570845 202.810837 
L 101.520128 202.51464 
L 102.311196 202.57285 
L 102.627624 202.54693 
L 103.102265 202.628457 
L 103.73512 202.714606 
L 104.051547 202.7872 
L 104.526188 202.700475 
L 104.842616 202.737238 
L 105.159043 202.693287 
L 105.47547 202.788428 
L 106.899394 194.671453 
L 108.481531 189.477726 
L 109.114386 187.784356 
L 110.380096 183.985791 
L 111.645805 180.865888 
L 112.27866 179.119831 
L 113.227943 176.762962 
L 113.386156 176.053203 
L 113.54437 175.98555 
L 113.860797 174.863318 
L 114.019011 174.627663 
L 114.177225 173.520975 
L 114.335439 173.979281 
L 114.493652 172.619207 
L 114.651866 172.648762 
L 114.968293 170.771461 
L 115.126507 171.462452 
L 115.284721 168.340344 
L 115.442935 170.449075 
L 115.601148 165.355955 
L 115.759362 168.961777 
L 115.917576 152.966076 
L 116.075789 80.100415 
L 116.234003 65.072017 
L 116.550431 141.744182 
L 116.866858 176.627365 
L 117.183285 190.261298 
L 117.657927 195.085077 
L 117.81614 196.153704 
L 117.974354 196.422042 
L 118.132568 196.172763 
L 118.290781 196.450113 
L 118.448995 195.872503 
L 118.607209 195.874269 
L 118.923636 195.192442 
L 119.398278 194.096564 
L 119.872919 193.045767 
L 120.505774 191.658093 
L 121.929697 188.780471 
L 124.461116 183.369598 
L 124.935758 182.487728 
L 126.043254 180.828907 
L 126.359681 180.374236 
L 127.308963 178.585599 
L 127.625391 178.151078 
L 128.258246 177.059405 
L 129.049314 175.857733 
L 130.631451 173.024094 
L 131.42252 171.83697 
L 133.953939 167.213542 
L 134.428581 165.998489 
L 134.745008 165.448657 
L 134.903222 164.960688 
L 135.061435 164.855804 
L 135.219649 164.054114 
L 135.377863 163.971349 
L 135.852504 162.46194 
L 136.010718 161.10013 
L 136.168931 161.304477 
L 136.327145 159.855463 
L 136.485359 160.10693 
L 136.801786 156.695312 
L 136.96 156.963892 
L 137.118214 152.148119 
L 137.276427 155.308376 
L 137.592855 60.814617 
L 137.751069 74.902687 
L 138.067496 141.964912 
L 138.383923 172.370618 
L 138.700351 185.320338 
L 139.016778 189.988307 
L 139.174992 190.366426 
L 139.333206 191.58982 
L 139.491419 191.483756 
L 139.807847 191.79917 
L 139.966061 191.547358 
L 140.124274 191.689292 
L 140.282488 191.259621 
L 140.598915 191.013721 
L 141.073557 190.218849 
L 141.389984 189.620354 
L 142.181053 188.042121 
L 143.446762 185.808502 
L 145.503541 183.026477 
L 148.193174 179.813895 
L 148.509601 179.63626 
L 149.30067 178.687209 
L 149.617097 178.345303 
L 150.249952 177.775032 
L 151.832089 175.821566 
L 152.148517 175.568213 
L 153.414226 173.956253 
L 154.205295 173.435606 
L 155.154577 172.614944 
L 155.787432 172.025575 
L 156.10386 171.788479 
L 156.578501 171.18381 
L 157.369569 170.370657 
L 157.685997 170.147532 
L 158.477065 169.321605 
L 159.10992 168.778875 
L 159.584561 168.154948 
L 160.059203 167.577746 
L 160.850271 166.392059 
L 162.590622 163.340099 
L 163.223477 161.635031 
L 163.856332 160.795763 
L 164.172759 160.237354 
L 164.330973 159.792781 
L 164.489187 159.781188 
L 164.6474 158.822601 
L 164.805614 158.675855 
L 165.438469 155.410983 
L 165.596683 156.009726 
L 165.754896 153.441766 
L 165.91311 153.736655 
L 166.229537 150.085741 
L 166.387751 144.018743 
L 166.704179 55.860766 
L 167.337033 161.738104 
L 167.653461 178.696798 
L 168.128102 186.781314 
L 168.44453 188.604614 
L 168.602743 188.505792 
L 168.760957 188.99935 
L 168.919171 188.722844 
L 169.077384 188.725531 
L 169.235598 188.609234 
L 169.393812 188.25816 
L 169.552026 188.234744 
L 170.18488 187.260248 
L 170.659522 186.693168 
L 171.134163 186.073962 
L 172.083445 185.077329 
L 173.349155 183.800078 
L 174.140223 182.985709 
L 176.355215 180.556048 
L 176.829856 180.459267 
L 180.785199 177.734645 
L 181.101627 177.445367 
L 181.734482 177.125656 
L 182.367337 176.764434 
L 182.841978 176.479413 
L 183.158405 176.130029 
L 183.316619 176.056624 
L 183.633046 175.727556 
L 184.107687 175.50029 
L 185.531611 174.573644 
L 186.164466 173.782785 
L 186.480893 173.580875 
L 187.113748 172.927088 
L 187.271962 172.839106 
L 187.588389 172.466838 
L 187.904817 172.276298 
L 188.379458 171.642074 
L 189.012313 170.742402 
L 189.170526 170.735902 
L 189.803381 170.228416 
L 190.910877 169.521935 
L 192.334801 168.525683 
L 192.809442 168.28531 
L 193.60051 167.767574 
L 194.075152 167.278341 
L 194.549793 166.937043 
L 194.86622 166.46683 
L 195.340861 166.305378 
L 196.448357 166.237589 
L 196.606571 166.172391 
L 197.081212 166.240991 
L 197.239426 166.269003 
L 197.555853 166.143818 
L 198.188708 166.156612 
L 198.663349 166.032478 
L 198.821563 166.006816 
L 198.979777 165.863627 
L 199.296204 165.926007 
L 199.612632 165.67541 
L 199.770845 165.487216 
L 200.4037 165.561705 
L 200.720128 165.469811 
L 201.036555 165.527261 
L 201.352982 165.527935 
L 201.511196 165.441653 
L 202.144051 165.619479 
L 202.460478 165.217133 
L 202.93512 165.230758 
L 203.251547 165.080061 
L 203.726188 165.358499 
L 204.67547 164.846623 
L 204.833684 164.833041 
L 205.150112 165.081457 
L 205.466539 164.9037 
L 205.782967 164.855182 
L 207.20689 164.735183 
L 207.681531 164.174197 
L 208.314386 163.137598 
L 208.947241 162.245918 
L 210.687592 160.999373 
L 211.004019 160.751703 
L 211.953301 159.704516 
L 212.111515 159.718428 
L 212.427943 160.08036 
L 212.586156 160.050688 
L 212.902584 160.19868 
L 213.535439 159.927308 
L 214.01008 159.963964 
L 214.642935 159.656853 
L 214.959362 159.277422 
L 215.117576 159.223927 
L 215.434003 158.921419 
L 215.908644 159.054701 
L 216.225072 158.816001 
L 216.541499 158.856501 
L 217.01614 158.739304 
L 217.174354 158.809508 
L 217.965423 158.271649 
L 218.914705 158.131685 
L 219.389346 157.831138 
L 219.705774 157.731595 
L 220.022201 157.663312 
L 220.180415 157.587455 
L 220.496842 157.782089 
L 220.655056 157.677136 
L 221.762552 158.189897 
L 222.237193 158.826936 
L 223.344689 159.899579 
L 224.610399 160.199153 
L 224.926826 160.26136 
L 225.717895 160.871783 
L 226.192536 161.581624 
L 226.983604 162.284252 
L 227.774673 163.050307 
L 228.249314 163.148609 
L 229.198596 163.318965 
L 229.673238 163.800211 
L 229.989665 163.899586 
L 230.306093 164.188603 
L 231.413589 164.50639 
L 231.730016 164.487035 
L 232.046443 164.651204 
L 232.362871 164.603236 
L 232.837512 164.754101 
L 234.103222 165.634533 
L 234.419649 165.651521 
L 235.052504 165.9665 
L 235.210718 165.903939 
L 235.685359 166.108972 
L 236.318214 166.037587 
L 236.476427 165.932586 
L 236.792855 166.158382 
L 237.583923 166.732295 
L 237.900351 167.050866 
L 238.216778 167.226397 
L 238.374992 167.189643 
L 238.691419 167.27079 
L 240.115343 167.7344 
L 240.43177 167.882824 
L 240.748198 167.926776 
L 241.064625 168.143725 
L 241.539266 168.209978 
L 242.330335 168.610602 
L 243.121404 169.543677 
L 244.387113 170.266145 
L 244.703541 170.450446 
L 244.861754 170.498129 
L 245.336396 170.911291 
L 245.494609 170.874292 
L 245.96925 171.069797 
L 246.127464 171.063433 
L 246.760319 170.515256 
L 247.076746 170.464961 
L 247.551388 170.527138 
L 247.867815 170.70265 
L 248.184242 170.531526 
L 248.658884 170.582514 
L 249.291738 170.341505 
L 249.76638 170.370334 
L 250.082807 170.330159 
L 252.297799 170.540211 
L 252.614226 170.524324 
L 253.879936 170.691061 
L 254.354577 170.952629 
L 254.671005 170.919865 
L 254.987432 170.750026 
L 255.30386 170.920617 
L 255.778501 170.945814 
L 256.411356 170.996017 
L 258.784561 171.596063 
L 259.100989 171.552816 
L 259.259203 171.657116 
L 260.050271 171.457123 
L 260.524912 171.711191 
L 260.999553 171.651779 
L 261.790622 171.803982 
L 262.107049 171.974248 
L 262.739904 172.094754 
L 263.056332 171.959267 
L 263.372759 171.863926 
L 263.530973 171.940872 
L 263.689187 171.836035 
L 263.8474 172.672724 
L 264.163828 175.244705 
L 264.796683 178.249829 
L 266.37882 183.657404 
L 267.802743 187.562022 
L 270.492376 193.146198 
L 271.758086 195.31291 
L 272.549155 196.703583 
L 273.656651 197.837796 
L 273.973078 198.234228 
L 274.447719 198.820649 
L 276.346284 200.383023 
L 277.45378 201.002953 
L 278.244848 201.110962 
L 278.561276 201.367948 
L 280.143413 201.649527 
L 280.776268 202.026606 
L 281.250909 202.22644 
L 282.516619 202.688555 
L 283.465901 203.174264 
L 286.313748 204.161681 
L 286.630175 204.20295 
L 287.26303 204.321108 
L 288.054099 204.465435 
L 289.319809 204.43015 
L 289.636236 204.526745 
L 291.218373 204.82589 
L 291.534801 205.044662 
L 292.484083 205.04535 
L 292.80051 205.122348 
L 295.806571 205.464768 
L 296.122998 205.312347 
L 296.439426 205.255819 
L 296.755853 205.222912 
L 297.230494 205.199762 
L 297.546922 205.096074 
L 298.812632 205.24419 
L 300.078341 205.371232 
L 300.394769 205.385554 
L 301.344051 205.473925 
L 301.818692 205.508361 
L 304.350112 205.729017 
L 304.666539 205.773398 
L 304.982967 205.87157 
L 305.774035 205.914754 
L 306.40689 205.908819 
L 306.723317 205.956105 
L 307.989027 205.57225 
L 308.463668 205.637973 
L 309.571164 205.474742 
L 311.153301 205.471043 
L 313.051866 205.552808 
L 313.684721 205.457664 
L 315.266858 205.473535 
L 315.583285 205.439797 
L 315.741499 205.482001 
L 316.057927 205.365526 
L 316.848995 205.457447 
L 317.956491 205.374091 
L 318.905774 205.26362 
L 319.222201 205.32157 
L 319.696842 205.300217 
L 320.171483 205.375595 
L 320.646124 205.435805 
L 320.962552 205.560681 
L 321.278979 205.520166 
L 321.595407 205.542264 
L 321.911834 205.536389 
L 322.386475 205.582721 
L 322.702903 205.589679 
L 323.01933 205.46794 
L 323.335758 205.529461 
L 323.810399 205.446237 
L 324.126826 205.308402 
L 324.443254 205.373349 
L 324.917895 205.216781 
L 325.55075 205.089389 
L 326.183604 205.096659 
L 326.500032 204.965407 
L 326.816459 204.929474 
L 327.2911 204.962975 
L 329.664306 204.785796 
L 330.297161 204.650135 
L 330.613589 204.652529 
L 331.08823 204.573117 
L 331.404657 204.52171 
L 334.885359 204.478886 
L 335.518214 204.652535 
L 335.992855 204.671358 
L 338.682488 204.52951 
L 339.157129 204.488608 
L 339.63177 204.498954 
L 341.372121 204.191359 
L 341.846762 204.254458 
L 342.16319 204.412812 
L 342.479617 204.339422 
L 342.796045 204.509291 
L 342.954258 204.583656 
L 343.270686 204.562747 
L 343.903541 204.573741 
L 344.219968 204.496492 
L 344.852823 204.555284 
L 345.16925 204.631546 
L 345.802105 204.891873 
L 346.593174 205.178137 
L 346.909601 205.234433 
L 349.599234 204.892093 
L 352.130654 204.910742 
L 353.554577 204.774514 
L 353.871005 204.773249 
L 354.345646 204.672798 
L 354.820287 204.817676 
L 355.136715 204.717553 
L 355.611356 204.807019 
L 355.927783 204.828594 
L 356.402424 204.815469 
L 356.718852 204.705311 
L 357.193493 204.712045 
L 358.459203 204.650308 
L 358.77563 204.672633 
L 361.623477 205.106143 
L 362.414545 204.987632 
L 362.889187 204.96637 
L 363.363828 204.715237 
L 363.680255 204.788307 
L 365.262392 204.52102 
L 365.57882 204.515867 
L 366.211675 204.387368 
L 366.84453 204.435557 
L 367.160957 204.41709 
L 367.477384 204.624434 
L 367.793812 204.493546 
L 368.426667 204.397908 
L 368.743094 204.331916 
L 369.534163 204.457629 
L 370.167018 204.309018 
L 371.749155 204.103086 
L 372.065582 203.966601 
L 372.540223 204.018786 
L 372.698437 204.142581 
L 373.331292 203.923661 
L 373.805933 203.71434 
L 374.12236 203.657178 
L 374.597002 203.526693 
L 374.913429 203.526383 
L 375.862711 203.217965 
L 376.337352 203.186174 
L 376.65378 202.961479 
L 378.235917 202.63905 
L 378.710558 202.525476 
L 379.818054 202.46204 
L 380.292695 202.356758 
L 380.767337 202.331971 
L 381.241978 202.149242 
L 381.558405 202.172687 
L 382.982329 202.22684 
L 383.45697 202.351717 
L 384.248038 202.294335 
L 384.880893 202.462158 
L 385.039107 202.573509 
L 385.355534 202.552495 
L 385.513748 202.547596 
L 385.830175 202.171238 
L 386.46303 201.870401 
L 386.779458 201.814218 
L 387.412313 201.394001 
L 387.886954 201.196744 
L 389.943732 201.084823 
L 390.260159 201.166276 
L 390.418373 201.14107 
L 390.734801 201.257809 
L 391.525869 201.217292 
L 391.842297 201.204552 
L 392.633365 201.335799 
L 396.588708 201.357485 
L 397.063349 201.214459 
L 398.329059 201.23446 
L 398.487273 201.174632 
L 398.487273 201.174632 
" style="fill:none;stroke:#000000;stroke-linecap:square;stroke-width:1.5;"/>
   </g>
   <g id="line2d_18">
    <path clip-path="url(#paf744078f8)" d="M 73.832727 202.81141 
L 74.623796 202.804505 
L 76.680574 202.25786 
L 76.997002 202.273138 
L 77.78807 202.109056 
L 80.794131 202.203533 
L 82.692695 202.180727 
L 83.483764 201.971981 
L 84.59126 201.937854 
L 85.224115 202.154356 
L 87.439107 202.58382 
L 87.755534 202.667998 
L 88.704817 202.789087 
L 89.021244 202.844529 
L 89.812313 202.944932 
L 90.286954 202.999874 
L 91.236236 202.92934 
L 91.552663 202.764156 
L 92.818373 202.771705 
L 93.134801 202.661533 
L 93.767656 202.670169 
L 93.925869 202.576477 
L 94.40051 202.592589 
L 97.248357 202.461176 
L 97.564785 202.395021 
L 97.722998 202.313519 
L 98.514067 202.487326 
L 101.361914 202.524499 
L 102.46941 202.354983 
L 103.418692 202.445217 
L 103.893333 202.564939 
L 104.051547 202.48721 
L 104.367974 202.673671 
L 104.526188 202.463331 
L 104.684402 202.777771 
L 104.842616 202.459819 
L 105.000829 202.778292 
L 105.317257 202.696608 
L 105.47547 203.195393 
L 106.74118 161.462312 
L 106.899394 159.871344 
L 107.057608 153.64724 
L 107.215821 152.356644 
L 107.374035 140.694613 
L 107.690463 68.339473 
L 108.165104 131.718744 
L 108.481531 148.887325 
L 108.797959 155.72513 
L 108.956172 157.590491 
L 109.114386 157.288023 
L 109.2726 157.317291 
L 109.430813 156.631232 
L 110.538309 146.5538 
L 111.487592 133.735357 
L 111.645805 131.935485 
L 111.962233 124.908931 
L 112.27866 61.470484 
L 112.436874 63.768343 
L 112.911515 120.709842 
L 113.227943 138.234951 
L 113.54437 145.970009 
L 113.860797 148.777984 
L 114.019011 149.32548 
L 114.335439 148.32419 
L 114.651866 146.717989 
L 115.126507 142.978655 
L 116.234003 132.817574 
L 116.550431 129.446833 
L 117.183285 121.135176 
L 117.499713 113.26505 
L 117.657927 96.470616 
L 117.81614 64.014216 
L 117.974354 55.397169 
L 118.765423 126.191605 
L 119.08185 137.278262 
L 119.398278 142.210967 
L 119.714705 143.767503 
L 119.872919 143.771916 
L 120.031132 143.540873 
L 120.505774 141.326683 
L 120.822201 139.478711 
L 122.562552 124.511424 
L 123.037193 117.97459 
L 123.35362 107.753456 
L 123.828262 56.453516 
L 124.61933 123.716674 
L 124.935758 134.920431 
L 125.252185 140.549195 
L 125.568612 142.781271 
L 125.726826 142.936831 
L 125.88504 142.843459 
L 126.201467 141.980932 
L 126.992536 138.153684 
L 128.416459 128.481017 
L 129.365742 119.677917 
L 129.840383 112.169887 
L 129.998596 107.487682 
L 130.15681 97.49406 
L 130.473238 53.568 
L 130.631451 58.89454 
L 131.264306 116.755442 
L 131.580734 131.010024 
L 131.897161 137.769698 
L 132.213589 140.770368 
L 132.530016 141.327035 
L 132.68823 141.207161 
L 133.004657 140.40376 
L 133.637512 137.341768 
L 135.536077 125.388189 
L 136.485359 117.099025 
L 136.801786 112.988987 
L 137.118214 106.525683 
L 137.276427 100.235136 
L 137.751069 53.966348 
L 138.858565 131.208536 
L 139.174992 137.462261 
L 139.491419 140.061442 
L 139.649633 140.56351 
L 139.807847 140.595615 
L 140.124274 140.032461 
L 140.598915 138.126932 
L 142.022839 129.72009 
L 143.130335 121.276346 
L 144.079617 111.158839 
L 144.396045 103.111092 
L 144.554258 94.063311 
L 144.870686 56.418125 
L 145.0289 57.374652 
L 145.819968 118.777787 
L 146.136396 130.044301 
L 146.452823 136.070385 
L 146.76925 138.815862 
L 147.085678 139.749454 
L 147.243892 139.67083 
L 147.402105 139.428795 
L 147.876746 137.709832 
L 149.142456 130.041726 
L 150.882807 116.819915 
L 151.673876 107.22632 
L 151.990303 98.437973 
L 152.148517 88.849092 
L 152.464944 55.710128 
L 152.623158 55.944319 
L 153.57244 122.80651 
L 153.888868 132.126084 
L 154.205295 136.904002 
L 154.521722 138.780672 
L 154.679936 139.065303 
L 154.83815 139.024966 
L 155.154577 138.388555 
L 155.629219 136.499954 
L 156.578501 131.127535 
L 157.685997 123.627282 
L 158.793493 114.248393 
L 159.268134 107.635196 
L 159.584561 100.23608 
L 159.742775 93.589772 
L 160.217416 55.235095 
L 160.37563 61.775237 
L 161.008485 109.122577 
L 161.483126 127.425414 
L 161.799553 133.181463 
L 162.115981 135.777855 
L 162.274195 136.441343 
L 162.432408 136.5899 
L 162.590622 136.56302 
L 162.907049 135.843538 
L 163.381691 134.268107 
L 164.6474 128.176363 
L 165.91311 120.877942 
L 167.17882 111.687049 
L 167.495247 108.661402 
L 167.811675 103.313071 
L 168.128102 94.088194 
L 168.44453 72.304 
L 168.602743 59.829707 
L 168.760957 57.263931 
L 169.077384 76.632559 
L 169.552026 107.881543 
L 170.026667 125.57198 
L 170.343094 131.238891 
L 170.659522 134.127492 
L 170.975949 135.376458 
L 171.134163 135.59287 
L 171.292376 135.538497 
L 171.608804 135.101415 
L 171.925231 134.318791 
L 172.7163 131.138808 
L 173.349155 127.68099 
L 174.298437 121.708985 
L 175.247719 114.003272 
L 176.038788 103.943745 
L 176.355215 97.037573 
L 176.671643 84.442251 
L 177.146284 57.066313 
L 177.304498 62.144983 
L 178.095566 111.376327 
L 178.570207 125.422287 
L 178.886635 130.296155 
L 179.203062 132.595167 
L 179.51949 133.457319 
L 179.677703 133.538304 
L 179.835917 133.393974 
L 180.152344 132.578382 
L 180.943413 129.079431 
L 182.367337 121.250238 
L 183.474833 113.390572 
L 184.265901 105.359101 
L 184.582329 100.8689 
L 184.898756 93.709453 
L 185.215183 80.918191 
L 185.531611 63.440618 
L 185.689825 62.043536 
L 186.006252 75.791877 
L 186.639107 107.335952 
L 187.113748 120.785396 
L 187.588389 127.628723 
L 187.904817 129.784025 
L 188.221244 130.446062 
L 188.379458 130.569188 
L 188.537671 130.479702 
L 188.695885 130.156336 
L 189.645167 126.460687 
L 190.436236 122.705951 
L 191.069091 119.283747 
L 191.860159 114.080665 
L 192.651228 106.026878 
L 193.284083 97.402763 
L 193.60051 90.897599 
L 194.391579 68.404486 
L 194.549793 69.26699 
L 194.86622 78.954975 
L 195.815502 111.587103 
L 196.290144 119.474932 
L 196.764785 123.552261 
L 197.081212 124.908024 
L 197.39764 125.1466 
L 197.714067 125.136627 
L 198.188708 124.65663 
L 198.663349 123.817805 
L 199.13799 122.419563 
L 199.929059 119.489776 
L 200.245486 118.358346 
L 201.827624 110.588409 
L 202.776906 103.99529 
L 203.884402 94.954465 
L 204.67547 86.381553 
L 204.991898 84.484113 
L 205.150112 84.150196 
L 205.308325 84.630456 
L 205.782967 87.429273 
L 206.574035 96.064407 
L 207.20689 103.238018 
L 207.997959 109.798161 
L 208.630813 112.610658 
L 208.947241 113.538648 
L 209.263668 113.846402 
L 209.738309 114.017083 
L 210.054737 113.628783 
L 210.212951 113.734574 
L 210.529378 113.585172 
L 211.004019 112.960313 
L 211.795088 110.540671 
L 212.427943 108.345013 
L 212.74437 107.215802 
L 213.377225 104.407917 
L 214.484721 101.711127 
L 215.117576 99.865116 
L 215.434003 99.462233 
L 216.066858 99.414642 
L 216.541499 99.415353 
L 216.857927 99.22236 
L 217.490781 98.446076 
L 217.648995 98.508222 
L 217.807209 98.4021 
L 217.965423 98.500495 
L 218.440064 99.356484 
L 218.756491 99.688412 
L 219.231132 100.957271 
L 219.705774 102.13504 
L 220.022201 102.614061 
L 220.338628 103.256526 
L 220.496842 103.36888 
L 221.129697 104.220196 
L 221.920766 104.878037 
L 222.237193 104.919476 
L 222.870048 104.587743 
L 223.028262 104.508311 
L 223.344689 104.177359 
L 223.661116 103.914794 
L 224.135758 103.663151 
L 224.452185 103.854823 
L 224.768612 103.959386 
L 224.926826 104.068282 
L 225.717895 103.836301 
L 226.192536 104.232369 
L 226.508963 104.473677 
L 226.983604 104.169627 
L 227.300032 104.346288 
L 227.774673 104.028528 
L 228.0911 103.107042 
L 228.407528 101.834195 
L 228.723955 101.184667 
L 229.515024 99.519184 
L 229.831451 99.342748 
L 230.306093 98.129234 
L 230.62252 97.148765 
L 230.938947 96.482389 
L 231.255375 96.240616 
L 231.88823 96.045435 
L 232.046443 96.080292 
L 232.362871 96.877847 
L 233.312153 99.095206 
L 233.470367 99.613623 
L 233.786794 99.910875 
L 234.89429 102.176627 
L 236.001786 105.417421 
L 237.109282 106.957047 
L 238.849633 104.978003 
L 239.166061 104.619756 
L 239.482488 104.442769 
L 240.115343 103.65577 
L 240.273557 103.836031 
L 240.906411 103.858734 
L 241.381053 103.532105 
L 241.539266 103.446886 
L 242.804976 101.770935 
L 243.437831 101.696447 
L 243.754258 102.029401 
L 244.070686 102.559759 
L 244.703541 102.642875 
L 245.336396 102.906186 
L 246.127464 102.350832 
L 246.285678 102.194112 
L 246.443892 102.334623 
L 246.918533 103.204092 
L 247.709601 104.65303 
L 248.026029 104.802167 
L 248.342456 105.101173 
L 249.133525 104.667544 
L 249.608166 104.426119 
L 249.76638 104.405478 
L 250.082807 104.036993 
L 250.241021 104.159559 
L 250.399234 104.042852 
L 250.873876 103.014438 
L 251.664944 100.888273 
L 252.139585 100.233176 
L 252.614226 99.632482 
L 253.088868 99.527602 
L 253.563509 100.050754 
L 254.03815 100.937257 
L 255.30386 104.645371 
L 255.462073 104.94634 
L 256.727783 105.302067 
L 257.044211 105.196237 
L 257.835279 104.215342 
L 258.151707 104.103088 
L 258.784561 103.21558 
L 258.942775 103.093642 
L 259.733844 101.614293 
L 260.208485 101.241953 
L 260.524912 101.516986 
L 261.315981 102.639568 
L 261.632408 102.81378 
L 262.739904 102.283631 
L 262.898118 101.966623 
L 263.056332 102.110228 
L 263.214545 102.01478 
L 263.372759 102.079784 
L 263.530973 101.973365 
L 263.689187 101.564636 
L 264.005614 115.317957 
L 264.638469 135.782029 
L 265.271324 149.712323 
L 266.062392 161.896882 
L 266.853461 170.68181 
L 267.64453 177.053855 
L 268.593812 182.987984 
L 269.543094 187.292175 
L 270.175949 189.487191 
L 272.232727 194.982091 
L 273.340223 197.354545 
L 274.92236 199.584818 
L 275.397002 200.179318 
L 276.504498 201.417578 
L 277.295566 202.447683 
L 277.611994 202.776157 
L 277.928421 203.067806 
L 278.403062 203.387992 
L 280.776268 205.26028 
L 281.72555 205.678682 
L 282.041978 205.995832 
L 283.465901 206.863749 
L 284.098756 206.904903 
L 284.415183 206.992256 
L 284.731611 207.029828 
L 285.206252 207.311039 
L 286.788389 207.889051 
L 286.946603 207.875158 
L 288.212313 208.598094 
L 288.52874 208.702253 
L 289.003381 208.912513 
L 289.952663 208.983944 
L 290.269091 209.048098 
L 290.743732 209.285634 
L 291.376587 209.55057 
L 291.693014 209.458117 
L 292.167656 209.523607 
L 293.591579 209.989648 
L 293.908006 210.042938 
L 294.224434 210.031887 
L 294.699075 209.997956 
L 295.015502 210.060176 
L 295.490144 210.039016 
L 296.122998 210.252814 
L 299.445486 210.653325 
L 299.761914 210.620897 
L 300.394769 210.715896 
L 300.711196 210.723027 
L 301.027624 210.748273 
L 301.502265 210.644005 
L 301.976906 210.734009 
L 302.451547 210.617342 
L 302.926188 210.665958 
L 303.242616 210.532315 
L 303.717257 210.579583 
L 306.723317 211.009837 
L 307.039745 211.02069 
L 307.197959 211.079333 
L 307.6726 210.875211 
L 308.147241 210.861574 
L 308.938309 210.776766 
L 309.254737 210.822833 
L 310.836874 210.450318 
L 311.153301 210.268306 
L 311.94437 210.111028 
L 312.893652 209.84615 
L 313.526507 209.920798 
L 314.317576 209.780874 
L 314.634003 209.854306 
L 314.792217 209.822424 
L 315.108644 209.939778 
L 315.583285 209.811899 
L 316.374354 209.819716 
L 316.532568 209.747611 
L 316.848995 209.842319 
L 317.323636 209.785848 
L 317.640064 209.836946 
L 321.595407 209.554926 
L 322.386475 209.762659 
L 323.968612 209.844539 
L 324.126826 209.883124 
L 324.443254 209.80514 
L 324.759681 209.867344 
L 326.816459 209.647369 
L 327.132887 209.569932 
L 327.765742 209.480491 
L 328.398596 209.409319 
L 328.55681 209.266728 
L 329.189665 209.230279 
L 330.297161 209.04108 
L 330.455375 209.141093 
L 330.771802 209.052881 
L 331.08823 209.108906 
L 333.777863 208.598099 
L 334.410718 208.438244 
L 334.885359 208.351411 
L 335.676427 208.137405 
L 337.416778 207.680517 
L 337.574992 207.699147 
L 337.891419 207.940035 
L 338.207847 207.901679 
L 338.998915 207.967691 
L 339.473557 207.912113 
L 339.948198 207.90608 
L 340.264625 207.842471 
L 341.530335 208.090057 
L 342.004976 208.038708 
L 342.321404 208.09104 
L 342.954258 207.894685 
L 343.4289 207.839534 
L 344.378182 207.687313 
L 345.011037 207.87177 
L 345.643892 208.06284 
L 345.960319 208.13816 
L 346.276746 208.169157 
L 346.593174 208.266865 
L 347.542456 208.257083 
L 347.858884 208.313964 
L 348.333525 208.429536 
L 348.808166 208.448386 
L 350.232089 208.263231 
L 352.288868 207.731808 
L 352.447081 207.668594 
L 352.763509 207.683039 
L 353.079936 207.631857 
L 354.187432 207.640321 
L 354.345646 207.521997 
L 354.662073 207.560378 
L 355.136715 207.479805 
L 355.611356 207.569915 
L 356.085997 207.576049 
L 358.142775 207.955241 
L 358.617416 207.887225 
L 358.933844 208.024315 
L 359.566699 207.880666 
L 359.883126 207.912468 
L 360.357767 207.844101 
L 360.674195 207.886199 
L 361.148836 207.743496 
L 361.781691 207.817731 
L 363.0474 207.635276 
L 363.363828 207.540645 
L 363.680255 207.517754 
L 363.996683 207.488364 
L 364.629537 207.563247 
L 365.57882 207.301133 
L 365.895247 207.367139 
L 366.211675 207.292035 
L 366.369888 207.206274 
L 367.477384 207.391652 
L 367.952026 207.458479 
L 368.268453 207.296651 
L 368.743094 207.170027 
L 369.217735 207.034989 
L 369.534163 207.073612 
L 369.85059 207.07308 
L 370.641659 207.149718 
L 370.799872 207.106663 
L 371.274514 207.307736 
L 371.590941 207.413134 
L 372.698437 207.019442 
L 373.173078 207.043882 
L 373.489506 206.921386 
L 373.805933 207.048863 
L 374.597002 206.875914 
L 376.65378 206.874035 
L 377.286635 206.763184 
L 378.552344 206.718538 
L 379.026986 206.620575 
L 379.501627 206.686652 
L 381.083764 206.717602 
L 381.400191 206.679219 
L 381.558405 206.749616 
L 381.874833 206.576563 
L 382.349474 206.62678 
L 383.140542 206.805232 
L 383.931611 206.619466 
L 385.988389 206.743205 
L 387.570526 206.567422 
L 388.203381 206.600126 
L 389.943732 206.533524 
L 390.734801 206.487155 
L 391.842297 206.421657 
L 392.158724 206.481585 
L 392.475152 206.43695 
L 392.949793 206.396972 
L 394.373716 206.756642 
L 394.690144 206.701939 
L 396.272281 206.900977 
L 396.588708 206.850782 
L 396.905136 206.937817 
L 397.063349 206.921115 
L 397.379777 207.067596 
L 397.53799 207.011812 
L 397.854418 207.084129 
L 398.329059 207.089402 
L 398.487273 207.1766 
L 398.487273 207.1766 
" style="fill:none;stroke:#000000;stroke-linecap:square;stroke-width:1.5;"/>
   </g>
   <g id="patch_3">
    <path d="M 57.6 307.584 
L 57.6 41.472 
" style="fill:none;stroke:#000000;stroke-linecap:square;stroke-linejoin:miter;stroke-width:0.8;"/>
   </g>
   <g id="patch_4">
    <path d="M 414.72 307.584 
L 414.72 41.472 
" style="fill:none;stroke:#000000;stroke-linecap:square;stroke-linejoin:miter;stroke-width:0.8;"/>
   </g>
   <g id="patch_5">
    <path d="M 57.6 307.584 
L 414.72 307.584 
" style="fill:none;stroke:#000000;stroke-linecap:square;stroke-linejoin:miter;stroke-width:0.8;"/>
   </g>
   <g id="patch_6">
    <path d="M 57.6 41.472 
L 414.72 41.472 
" style="fill:none;stroke:#000000;stroke-linecap:square;stroke-linejoin:miter;stroke-width:0.8;"/>
   </g>
  </g>
 </g>
 <defs>
  <clipPath id="paf744078f8">
   <rect height="266.112" width="357.12" x="57.6" y="41.472"/>
  </clipPath>
 </defs>
</svg>
