<?xml version="1.0" encoding="utf-8" standalone="no"?>
<!DOCTYPE svg PUBLIC "-//W3C//DTD SVG 1.1//EN"
  "http://www.w3.org/Graphics/SVG/1.1/DTD/svg11.dtd">
<svg height="345.6pt" version="1.1" viewBox="0 0 460.8 345.6" width="460.8pt" xmlns="http://www.w3.org/2000/svg" xmlns:xlink="http://www.w3.org/1999/xlink">
 <metadata>
  <rdf:RDF xmlns:cc="http://creativecommons.org/ns#" xmlns:dc="http://purl.org/dc/elements/1.1/" xmlns:rdf="http://www.w3.org/1999/02/22-rdf-syntax-ns#">
   <cc:Work>
    <dc:type rdf:resource="http://purl.org/dc/dcmitype/StillImage"/>
    <dc:date>2024-08-06T14:44:49.489981</dc:date>
    <dc:format>image/svg+xml</dc:format>
    <dc:creator>
     <cc:Agent>
      <dc:title>Matplotlib v3.4.2, https://matplotlib.org/</dc:title>
     </cc:Agent>
    </dc:creator>
   </cc:Work>
  </rdf:RDF>
 </metadata>
 <defs>
  <style type="text/css">*{stroke-linecap:butt;stroke-linejoin:round;}</style>
 </defs>
 <g id="figure_1">
  <g id="patch_1">
   <path d="M 0 345.6 
L 460.8 345.6 
L 460.8 0 
L 0 0 
z
" style="fill:#ffffff;"/>
  </g>
  <g id="axes_1">
   <g id="patch_2">
    <path d="M 57.6 307.584 
L 414.72 307.584 
L 414.72 41.472 
L 57.6 41.472 
z
" style="fill:#ffffff;"/>
   </g>
   <g id="matplotlib.axis_1">
    <g id="xtick_1">
     <g id="line2d_1">
      <defs>
       <path d="M 0 0 
L 0 3.5 
" id="m161fb73117" style="stroke:#000000;stroke-width:0.8;"/>
      </defs>
      <g>
       <use style="stroke:#000000;stroke-width:0.8;" x="95.211629" xlink:href="#m161fb73117" y="307.584"/>
      </g>
     </g>
     <g id="text_1">
      <!-- 0.2 -->
      <g transform="translate(87.260067 322.182437)scale(0.1 -0.1)">
       <defs>
        <path d="M 2034 4250 
Q 1547 4250 1301 3770 
Q 1056 3291 1056 2328 
Q 1056 1369 1301 889 
Q 1547 409 2034 409 
Q 2525 409 2770 889 
Q 3016 1369 3016 2328 
Q 3016 3291 2770 3770 
Q 2525 4250 2034 4250 
z
M 2034 4750 
Q 2819 4750 3233 4129 
Q 3647 3509 3647 2328 
Q 3647 1150 3233 529 
Q 2819 -91 2034 -91 
Q 1250 -91 836 529 
Q 422 1150 422 2328 
Q 422 3509 836 4129 
Q 1250 4750 2034 4750 
z
" id="DejaVuSans-30" transform="scale(0.015625)"/>
        <path d="M 684 794 
L 1344 794 
L 1344 0 
L 684 0 
L 684 794 
z
" id="DejaVuSans-2e" transform="scale(0.015625)"/>
        <path d="M 1228 531 
L 3431 531 
L 3431 0 
L 469 0 
L 469 531 
Q 828 903 1448 1529 
Q 2069 2156 2228 2338 
Q 2531 2678 2651 2914 
Q 2772 3150 2772 3378 
Q 2772 3750 2511 3984 
Q 2250 4219 1831 4219 
Q 1534 4219 1204 4116 
Q 875 4013 500 3803 
L 500 4441 
Q 881 4594 1212 4672 
Q 1544 4750 1819 4750 
Q 2544 4750 2975 4387 
Q 3406 4025 3406 3419 
Q 3406 3131 3298 2873 
Q 3191 2616 2906 2266 
Q 2828 2175 2409 1742 
Q 1991 1309 1228 531 
z
" id="DejaVuSans-32" transform="scale(0.015625)"/>
       </defs>
       <use xlink:href="#DejaVuSans-30"/>
       <use x="63.623047" xlink:href="#DejaVuSans-2e"/>
       <use x="95.410156" xlink:href="#DejaVuSans-32"/>
      </g>
     </g>
    </g>
    <g id="xtick_2">
     <g id="line2d_2">
      <g>
       <use style="stroke:#000000;stroke-width:0.8;" x="139.20545" xlink:href="#m161fb73117" y="307.584"/>
      </g>
     </g>
     <g id="text_2">
      <!-- 0.4 -->
      <g transform="translate(131.253887 322.182437)scale(0.1 -0.1)">
       <defs>
        <path d="M 2419 4116 
L 825 1625 
L 2419 1625 
L 2419 4116 
z
M 2253 4666 
L 3047 4666 
L 3047 1625 
L 3713 1625 
L 3713 1100 
L 3047 1100 
L 3047 0 
L 2419 0 
L 2419 1100 
L 313 1100 
L 313 1709 
L 2253 4666 
z
" id="DejaVuSans-34" transform="scale(0.015625)"/>
       </defs>
       <use xlink:href="#DejaVuSans-30"/>
       <use x="63.623047" xlink:href="#DejaVuSans-2e"/>
       <use x="95.410156" xlink:href="#DejaVuSans-34"/>
      </g>
     </g>
    </g>
    <g id="xtick_3">
     <g id="line2d_3">
      <g>
       <use style="stroke:#000000;stroke-width:0.8;" x="183.19927" xlink:href="#m161fb73117" y="307.584"/>
      </g>
     </g>
     <g id="text_3">
      <!-- 0.6 -->
      <g transform="translate(175.247707 322.182437)scale(0.1 -0.1)">
       <defs>
        <path d="M 2113 2584 
Q 1688 2584 1439 2293 
Q 1191 2003 1191 1497 
Q 1191 994 1439 701 
Q 1688 409 2113 409 
Q 2538 409 2786 701 
Q 3034 994 3034 1497 
Q 3034 2003 2786 2293 
Q 2538 2584 2113 2584 
z
M 3366 4563 
L 3366 3988 
Q 3128 4100 2886 4159 
Q 2644 4219 2406 4219 
Q 1781 4219 1451 3797 
Q 1122 3375 1075 2522 
Q 1259 2794 1537 2939 
Q 1816 3084 2150 3084 
Q 2853 3084 3261 2657 
Q 3669 2231 3669 1497 
Q 3669 778 3244 343 
Q 2819 -91 2113 -91 
Q 1303 -91 875 529 
Q 447 1150 447 2328 
Q 447 3434 972 4092 
Q 1497 4750 2381 4750 
Q 2619 4750 2861 4703 
Q 3103 4656 3366 4563 
z
" id="DejaVuSans-36" transform="scale(0.015625)"/>
       </defs>
       <use xlink:href="#DejaVuSans-30"/>
       <use x="63.623047" xlink:href="#DejaVuSans-2e"/>
       <use x="95.410156" xlink:href="#DejaVuSans-36"/>
      </g>
     </g>
    </g>
    <g id="xtick_4">
     <g id="line2d_4">
      <g>
       <use style="stroke:#000000;stroke-width:0.8;" x="227.19309" xlink:href="#m161fb73117" y="307.584"/>
      </g>
     </g>
     <g id="text_4">
      <!-- 0.8 -->
      <g transform="translate(219.241528 322.182437)scale(0.1 -0.1)">
       <defs>
        <path d="M 2034 2216 
Q 1584 2216 1326 1975 
Q 1069 1734 1069 1313 
Q 1069 891 1326 650 
Q 1584 409 2034 409 
Q 2484 409 2743 651 
Q 3003 894 3003 1313 
Q 3003 1734 2745 1975 
Q 2488 2216 2034 2216 
z
M 1403 2484 
Q 997 2584 770 2862 
Q 544 3141 544 3541 
Q 544 4100 942 4425 
Q 1341 4750 2034 4750 
Q 2731 4750 3128 4425 
Q 3525 4100 3525 3541 
Q 3525 3141 3298 2862 
Q 3072 2584 2669 2484 
Q 3125 2378 3379 2068 
Q 3634 1759 3634 1313 
Q 3634 634 3220 271 
Q 2806 -91 2034 -91 
Q 1263 -91 848 271 
Q 434 634 434 1313 
Q 434 1759 690 2068 
Q 947 2378 1403 2484 
z
M 1172 3481 
Q 1172 3119 1398 2916 
Q 1625 2713 2034 2713 
Q 2441 2713 2670 2916 
Q 2900 3119 2900 3481 
Q 2900 3844 2670 4047 
Q 2441 4250 2034 4250 
Q 1625 4250 1398 4047 
Q 1172 3844 1172 3481 
z
" id="DejaVuSans-38" transform="scale(0.015625)"/>
       </defs>
       <use xlink:href="#DejaVuSans-30"/>
       <use x="63.623047" xlink:href="#DejaVuSans-2e"/>
       <use x="95.410156" xlink:href="#DejaVuSans-38"/>
      </g>
     </g>
    </g>
    <g id="xtick_5">
     <g id="line2d_5">
      <g>
       <use style="stroke:#000000;stroke-width:0.8;" x="271.18691" xlink:href="#m161fb73117" y="307.584"/>
      </g>
     </g>
     <g id="text_5">
      <!-- 1.0 -->
      <g transform="translate(263.235348 322.182437)scale(0.1 -0.1)">
       <defs>
        <path d="M 794 531 
L 1825 531 
L 1825 4091 
L 703 3866 
L 703 4441 
L 1819 4666 
L 2450 4666 
L 2450 531 
L 3481 531 
L 3481 0 
L 794 0 
L 794 531 
z
" id="DejaVuSans-31" transform="scale(0.015625)"/>
       </defs>
       <use xlink:href="#DejaVuSans-31"/>
       <use x="63.623047" xlink:href="#DejaVuSans-2e"/>
       <use x="95.410156" xlink:href="#DejaVuSans-30"/>
      </g>
     </g>
    </g>
    <g id="xtick_6">
     <g id="line2d_6">
      <g>
       <use style="stroke:#000000;stroke-width:0.8;" x="315.18073" xlink:href="#m161fb73117" y="307.584"/>
      </g>
     </g>
     <g id="text_6">
      <!-- 1.2 -->
      <g transform="translate(307.229168 322.182437)scale(0.1 -0.1)">
       <use xlink:href="#DejaVuSans-31"/>
       <use x="63.623047" xlink:href="#DejaVuSans-2e"/>
       <use x="95.410156" xlink:href="#DejaVuSans-32"/>
      </g>
     </g>
    </g>
    <g id="xtick_7">
     <g id="line2d_7">
      <g>
       <use style="stroke:#000000;stroke-width:0.8;" x="359.174551" xlink:href="#m161fb73117" y="307.584"/>
      </g>
     </g>
     <g id="text_7">
      <!-- 1.4 -->
      <g transform="translate(351.222988 322.182437)scale(0.1 -0.1)">
       <use xlink:href="#DejaVuSans-31"/>
       <use x="63.623047" xlink:href="#DejaVuSans-2e"/>
       <use x="95.410156" xlink:href="#DejaVuSans-34"/>
      </g>
     </g>
    </g>
    <g id="xtick_8">
     <g id="line2d_8">
      <g>
       <use style="stroke:#000000;stroke-width:0.8;" x="403.168371" xlink:href="#m161fb73117" y="307.584"/>
      </g>
     </g>
     <g id="text_8">
      <!-- 1.6 -->
      <g transform="translate(395.216808 322.182437)scale(0.1 -0.1)">
       <use xlink:href="#DejaVuSans-31"/>
       <use x="63.623047" xlink:href="#DejaVuSans-2e"/>
       <use x="95.410156" xlink:href="#DejaVuSans-36"/>
      </g>
     </g>
    </g>
   </g>
   <g id="matplotlib.axis_2">
    <g id="ytick_1">
     <g id="line2d_9">
      <defs>
       <path d="M 0 0 
L -3.5 0 
" id="m76b7a4e69d" style="stroke:#000000;stroke-width:0.8;"/>
      </defs>
      <g>
       <use style="stroke:#000000;stroke-width:0.8;" x="57.6" xlink:href="#m76b7a4e69d" y="290.754189"/>
      </g>
     </g>
     <g id="text_9">
      <!-- −2.5 -->
      <g transform="translate(26.317187 294.553408)scale(0.1 -0.1)">
       <defs>
        <path d="M 678 2272 
L 4684 2272 
L 4684 1741 
L 678 1741 
L 678 2272 
z
" id="DejaVuSans-2212" transform="scale(0.015625)"/>
        <path d="M 691 4666 
L 3169 4666 
L 3169 4134 
L 1269 4134 
L 1269 2991 
Q 1406 3038 1543 3061 
Q 1681 3084 1819 3084 
Q 2600 3084 3056 2656 
Q 3513 2228 3513 1497 
Q 3513 744 3044 326 
Q 2575 -91 1722 -91 
Q 1428 -91 1123 -41 
Q 819 9 494 109 
L 494 744 
Q 775 591 1075 516 
Q 1375 441 1709 441 
Q 2250 441 2565 725 
Q 2881 1009 2881 1497 
Q 2881 1984 2565 2268 
Q 2250 2553 1709 2553 
Q 1456 2553 1204 2497 
Q 953 2441 691 2322 
L 691 4666 
z
" id="DejaVuSans-35" transform="scale(0.015625)"/>
       </defs>
       <use xlink:href="#DejaVuSans-2212"/>
       <use x="83.789062" xlink:href="#DejaVuSans-32"/>
       <use x="147.412109" xlink:href="#DejaVuSans-2e"/>
       <use x="179.199219" xlink:href="#DejaVuSans-35"/>
      </g>
     </g>
    </g>
    <g id="ytick_2">
     <g id="line2d_10">
      <g>
       <use style="stroke:#000000;stroke-width:0.8;" x="57.6" xlink:href="#m76b7a4e69d" y="252.770513"/>
      </g>
     </g>
     <g id="text_10">
      <!-- −2.0 -->
      <g transform="translate(26.317187 256.569732)scale(0.1 -0.1)">
       <use xlink:href="#DejaVuSans-2212"/>
       <use x="83.789062" xlink:href="#DejaVuSans-32"/>
       <use x="147.412109" xlink:href="#DejaVuSans-2e"/>
       <use x="179.199219" xlink:href="#DejaVuSans-30"/>
      </g>
     </g>
    </g>
    <g id="ytick_3">
     <g id="line2d_11">
      <g>
       <use style="stroke:#000000;stroke-width:0.8;" x="57.6" xlink:href="#m76b7a4e69d" y="214.786838"/>
      </g>
     </g>
     <g id="text_11">
      <!-- −1.5 -->
      <g transform="translate(26.317187 218.586056)scale(0.1 -0.1)">
       <use xlink:href="#DejaVuSans-2212"/>
       <use x="83.789062" xlink:href="#DejaVuSans-31"/>
       <use x="147.412109" xlink:href="#DejaVuSans-2e"/>
       <use x="179.199219" xlink:href="#DejaVuSans-35"/>
      </g>
     </g>
    </g>
    <g id="ytick_4">
     <g id="line2d_12">
      <g>
       <use style="stroke:#000000;stroke-width:0.8;" x="57.6" xlink:href="#m76b7a4e69d" y="176.803162"/>
      </g>
     </g>
     <g id="text_12">
      <!-- −1.0 -->
      <g transform="translate(26.317187 180.60238)scale(0.1 -0.1)">
       <use xlink:href="#DejaVuSans-2212"/>
       <use x="83.789062" xlink:href="#DejaVuSans-31"/>
       <use x="147.412109" xlink:href="#DejaVuSans-2e"/>
       <use x="179.199219" xlink:href="#DejaVuSans-30"/>
      </g>
     </g>
    </g>
    <g id="ytick_5">
     <g id="line2d_13">
      <g>
       <use style="stroke:#000000;stroke-width:0.8;" x="57.6" xlink:href="#m76b7a4e69d" y="138.819486"/>
      </g>
     </g>
     <g id="text_13">
      <!-- −0.5 -->
      <g transform="translate(26.317187 142.618705)scale(0.1 -0.1)">
       <use xlink:href="#DejaVuSans-2212"/>
       <use x="83.789062" xlink:href="#DejaVuSans-30"/>
       <use x="147.412109" xlink:href="#DejaVuSans-2e"/>
       <use x="179.199219" xlink:href="#DejaVuSans-35"/>
      </g>
     </g>
    </g>
    <g id="ytick_6">
     <g id="line2d_14">
      <g>
       <use style="stroke:#000000;stroke-width:0.8;" x="57.6" xlink:href="#m76b7a4e69d" y="100.83581"/>
      </g>
     </g>
     <g id="text_14">
      <!-- 0.0 -->
      <g transform="translate(34.696875 104.635029)scale(0.1 -0.1)">
       <use xlink:href="#DejaVuSans-30"/>
       <use x="63.623047" xlink:href="#DejaVuSans-2e"/>
       <use x="95.410156" xlink:href="#DejaVuSans-30"/>
      </g>
     </g>
    </g>
    <g id="ytick_7">
     <g id="line2d_15">
      <g>
       <use style="stroke:#000000;stroke-width:0.8;" x="57.6" xlink:href="#m76b7a4e69d" y="62.852134"/>
      </g>
     </g>
     <g id="text_15">
      <!-- 0.5 -->
      <g transform="translate(34.696875 66.651353)scale(0.1 -0.1)">
       <use xlink:href="#DejaVuSans-30"/>
       <use x="63.623047" xlink:href="#DejaVuSans-2e"/>
       <use x="95.410156" xlink:href="#DejaVuSans-35"/>
      </g>
     </g>
    </g>
    <g id="text_16">
     <!-- 1e−6 -->
     <g transform="translate(57.6 38.472)scale(0.1 -0.1)">
      <defs>
       <path d="M 3597 1894 
L 3597 1613 
L 953 1613 
Q 991 1019 1311 708 
Q 1631 397 2203 397 
Q 2534 397 2845 478 
Q 3156 559 3463 722 
L 3463 178 
Q 3153 47 2828 -22 
Q 2503 -91 2169 -91 
Q 1331 -91 842 396 
Q 353 884 353 1716 
Q 353 2575 817 3079 
Q 1281 3584 2069 3584 
Q 2775 3584 3186 3129 
Q 3597 2675 3597 1894 
z
M 3022 2063 
Q 3016 2534 2758 2815 
Q 2500 3097 2075 3097 
Q 1594 3097 1305 2825 
Q 1016 2553 972 2059 
L 3022 2063 
z
" id="DejaVuSans-65" transform="scale(0.015625)"/>
      </defs>
      <use xlink:href="#DejaVuSans-31"/>
      <use x="63.623047" xlink:href="#DejaVuSans-65"/>
      <use x="125.146484" xlink:href="#DejaVuSans-2212"/>
      <use x="208.935547" xlink:href="#DejaVuSans-36"/>
     </g>
    </g>
   </g>
   <g id="line2d_16">
    <path clip-path="url(#pd4f611d21e)" d="M 73.832727 184.782909 
L 74.485081 184.743002 
L 76.007239 184.561636 
L 76.659592 184.546372 
L 77.094494 184.434676 
L 78.616652 184.397219 
L 78.834103 184.303217 
L 79.051555 184.470859 
L 81.008615 208.788235 
L 81.878419 215.547324 
L 82.748224 220.480761 
L 84.052931 226.419099 
L 86.444893 234.727345 
L 87.314698 237.23873 
L 88.184502 239.731309 
L 89.489209 243.355164 
L 91.011367 245.923161 
L 92.098623 248.192681 
L 92.533525 248.696833 
L 93.620781 250.612724 
L 94.273134 251.274522 
L 94.708036 252.212604 
L 95.142939 252.980092 
L 96.665097 255.618055 
L 97.969803 258.352658 
L 100.579217 262.125703 
L 101.014119 263.202084 
L 101.449021 263.942701 
L 103.623533 268.006898 
L 104.710789 269.397325 
L 105.363142 270.532041 
L 106.015495 271.329007 
L 106.232946 271.478897 
L 107.755104 271.452173 
L 107.972556 271.476094 
L 109.059811 272.229275 
L 109.712165 272.320599 
L 110.147067 272.907465 
L 110.79942 273.159454 
L 111.016871 273.161471 
L 111.451774 273.028275 
L 111.669225 273.041103 
L 112.104127 272.796125 
L 112.321578 272.896064 
L 112.973932 273.562783 
L 113.408834 273.702373 
L 113.626285 273.740261 
L 113.843736 273.632994 
L 114.061187 273.675516 
L 114.930992 275.132798 
L 115.365894 275.974954 
L 115.800796 276.175688 
L 116.018248 276.186147 
L 116.670601 276.662524 
L 116.888052 276.862378 
L 117.540406 277.860728 
L 117.975308 278.318304 
L 118.192759 278.371906 
L 119.932368 280.245851 
L 120.149819 280.234532 
L 120.584721 279.907032 
L 121.237075 279.961423 
L 121.671977 280.527492 
L 121.889428 280.632372 
L 122.541782 281.282729 
L 122.759233 281.38552 
L 122.976684 281.194391 
L 123.629037 281.351894 
L 123.846488 281.690832 
L 124.281391 281.977893 
L 124.933744 282.670542 
L 126.238451 282.834179 
L 126.890804 283.150745 
L 127.108255 283.165536 
L 127.543158 283.704517 
L 128.847865 285.222563 
L 129.93512 285.12213 
L 130.804925 285.803047 
L 131.022376 285.833509 
L 131.457278 285.485512 
L 131.89218 285.379617 
L 132.544534 285.731247 
L 132.761985 285.578714 
L 133.196887 285.76109 
L 134.501594 287.084059 
L 134.719045 287.457954 
L 135.153948 287.601327 
L 135.806301 287.992501 
L 137.763361 288.311206 
L 137.980812 288.240947 
L 138.415715 288.64998 
L 138.850617 288.569372 
L 139.937872 288.834071 
L 140.372775 289.326711 
L 140.807677 289.266852 
L 141.46003 289.15617 
L 141.894933 289.343837 
L 142.329835 289.210012 
L 144.069444 289.376896 
L 144.504346 289.658043 
L 144.721797 289.78291 
L 144.939249 289.775613 
L 145.374151 289.323545 
L 146.026504 289.119807 
L 146.461407 289.119151 
L 147.11376 289.373246 
L 147.331211 289.354268 
L 148.418467 290.044547 
L 149.07082 290.404926 
L 149.940625 291.072553 
L 151.02788 291.78677 
L 151.245332 291.73059 
L 152.115136 292.13212 
L 152.332587 292.252114 
L 152.767489 292.677617 
L 153.202392 292.631821 
L 153.637294 292.902879 
L 153.854745 292.772659 
L 155.376903 293.043637 
L 155.811805 293.273091 
L 156.246708 293.254764 
L 156.68161 293.263433 
L 157.116512 293.210658 
L 157.551414 293.039532 
L 157.986317 293.088929 
L 158.421219 293.011282 
L 160.813182 293.924446 
L 161.248084 293.890616 
L 161.682986 293.639327 
L 162.117888 293.789533 
L 162.552791 293.866553 
L 164.074949 293.78767 
L 164.727302 293.920765 
L 165.162204 294.096718 
L 165.597106 293.857427 
L 166.032009 294.243661 
L 166.466911 294.212318 
L 166.901813 294.652844 
L 167.771618 295.038965 
L 168.423971 295.443369 
L 168.641422 295.488 
L 168.858874 295.397875 
L 169.293776 295.089647 
L 169.511227 295.017944 
L 169.728678 294.785238 
L 170.16358 294.626786 
L 171.250836 293.790429 
L 171.468287 293.818673 
L 171.903189 294.206835 
L 172.555543 293.989685 
L 172.772994 293.834871 
L 173.425347 293.903341 
L 174.077701 293.895762 
L 174.947505 293.766063 
L 175.382408 293.568271 
L 175.599859 293.378987 
L 176.034761 293.340481 
L 176.687114 292.870049 
L 177.339468 292.982415 
L 177.556919 293.132519 
L 178.861626 292.890958 
L 179.079077 292.935351 
L 179.73143 292.597724 
L 179.948881 292.449674 
L 180.601235 292.503614 
L 180.818686 292.37993 
L 181.253588 292.420496 
L 181.688491 292.386437 
L 182.123393 292.069772 
L 182.558295 292.073924 
L 183.863002 292.224009 
L 184.950258 292.351597 
L 185.167709 292.296446 
L 186.037513 292.665019 
L 186.472416 292.769286 
L 187.34222 292.476774 
L 187.777122 292.864268 
L 188.212025 292.612713 
L 188.646927 291.971432 
L 189.516731 291.377914 
L 189.951634 291.339595 
L 190.169085 291.230134 
L 190.386536 291.309576 
L 191.908694 290.408983 
L 192.126145 290.474339 
L 192.561047 290.301849 
L 193.213401 290.670744 
L 193.648303 291.044856 
L 194.300656 291.26023 
L 194.735559 291.223643 
L 195.170461 291.15359 
L 195.605363 291.050732 
L 196.257717 291.241019 
L 196.475168 291.266699 
L 197.127521 290.912911 
L 197.779875 290.983684 
L 197.997326 291.110486 
L 198.432228 291.036628 
L 198.649679 291.045654 
L 198.86713 290.887809 
L 199.302033 290.976533 
L 199.519484 290.809601 
L 200.389288 290.844684 
L 200.82419 290.896534 
L 201.476544 290.600794 
L 202.5638 290.15434 
L 202.998702 290.307006 
L 203.216153 290.369326 
L 203.868506 290.303636 
L 205.390664 290.433816 
L 205.608115 290.425407 
L 206.043018 290.552044 
L 206.47792 290.537163 
L 207.130273 290.986837 
L 207.565176 291.007244 
L 208.43498 291.37613 
L 208.869882 291.64635 
L 209.087334 291.650711 
L 209.957138 291.045204 
L 210.826943 291.026872 
L 211.261845 290.816346 
L 211.696747 290.897783 
L 211.914198 290.834983 
L 212.349101 290.949709 
L 212.566552 290.931938 
L 213.218905 291.182923 
L 213.653807 291.099356 
L 214.306161 291.030636 
L 214.958514 290.770444 
L 216.04577 291.033847 
L 216.698123 291.208241 
L 217.133026 290.994661 
L 217.567928 291.07324 
L 217.785379 291.260604 
L 218.437732 291.041787 
L 219.090086 290.858513 
L 219.524988 290.332146 
L 219.95989 290.1025 
L 221.047146 290.033246 
L 221.699499 290.545195 
L 223.439109 290.647271 
L 223.874011 291.18548 
L 224.961267 291.295515 
L 226.265973 291.016916 
L 226.700876 291.167232 
L 227.57068 290.677643 
L 227.788131 290.640058 
L 228.440485 290.873107 
L 228.657936 290.674762 
L 229.310289 290.680089 
L 229.962643 291.351602 
L 230.180094 291.520877 
L 231.702252 291.404203 
L 232.354605 291.203836 
L 233.22441 290.72754 
L 233.441861 290.71228 
L 234.311665 291.248445 
L 235.18147 291.555158 
L 235.833823 292.136203 
L 236.268726 291.97742 
L 236.703628 291.66588 
L 237.13853 291.837214 
L 238.225786 291.484908 
L 238.443237 291.677194 
L 238.878139 291.584774 
L 239.530493 291.185186 
L 239.965395 290.981454 
L 240.182846 290.783204 
L 240.400297 290.809197 
L 241.052651 291.280839 
L 241.270102 291.309435 
L 241.487553 291.170364 
L 242.139906 291.324253 
L 242.574809 291.40031 
L 242.79226 291.332989 
L 243.879515 290.393304 
L 244.314418 290.446225 
L 245.401673 290.108631 
L 246.488929 290.283748 
L 246.70638 290.191876 
L 246.923831 289.978468 
L 247.358733 290.03849 
L 247.576185 289.861545 
L 248.011087 289.918407 
L 248.66344 289.54058 
L 249.315794 289.610782 
L 249.533245 289.331699 
L 249.750696 289.274479 
L 250.185598 289.421817 
L 250.837952 289.511194 
L 251.272854 289.52459 
L 251.490305 289.69794 
L 251.925207 289.706886 
L 252.36011 289.921803 
L 252.577561 290.01701 
L 253.447365 289.608451 
L 253.882268 289.777157 
L 254.31717 289.640331 
L 255.186974 289.844112 
L 255.621877 289.688674 
L 255.839328 289.581735 
L 256.27423 289.896659 
L 257.578937 289.183276 
L 258.013839 289.010788 
L 258.666193 289.02484 
L 259.101095 288.989738 
L 259.535997 288.938583 
L 259.753448 289.0136 
L 260.405802 288.755464 
L 260.840704 288.74414 
L 262.145411 289.17519 
L 262.580313 289.459446 
L 263.015215 289.556586 
L 263.450118 289.688098 
L 263.88502 289.664398 
L 264.319922 289.926151 
L 264.754824 289.952405 
L 265.407178 289.996427 
L 266.276982 290.457417 
L 266.929336 290.463075 
L 268.016591 290.026062 
L 268.451494 289.86645 
L 269.538749 289.098391 
L 269.973652 289.055772 
L 270.408554 289.056409 
L 271.060907 289.006066 
L 271.930712 289.561597 
L 272.365614 289.741328 
L 273.017967 289.853378 
L 274.322674 289.887874 
L 274.757577 290.407775 
L 274.975028 290.48093 
L 275.844832 289.929067 
L 276.279735 289.93031 
L 276.497186 289.845737 
L 276.932088 289.901198 
L 277.36699 289.589655 
L 277.801892 289.638933 
L 278.236795 289.440935 
L 278.454246 289.389638 
L 278.889148 289.105234 
L 279.541502 288.858017 
L 280.411306 289.528697 
L 280.846208 289.594011 
L 281.281111 289.936984 
L 281.498562 289.875864 
L 282.368366 290.332566 
L 282.803269 289.856509 
L 283.455622 289.953028 
L 284.325427 290.417275 
L 287.369742 291.350462 
L 287.804645 291.547746 
L 288.456998 291.610999 
L 291.718765 291.082078 
L 292.153667 291.217184 
L 292.806021 291.100038 
L 293.675825 290.584729 
L 294.54563 290.916755 
L 294.980532 290.939888 
L 296.067788 290.63881 
L 296.285239 290.662906 
L 296.50269 290.286624 
L 298.242299 267.546852 
L 299.112104 260.031511 
L 299.981908 254.727982 
L 301.069164 249.161421 
L 303.243675 240.869068 
L 304.330931 237.514291 
L 306.07054 232.497822 
L 308.679954 226.28264 
L 309.332307 225.042612 
L 312.811525 218.759225 
L 313.463879 217.80474 
L 315.63839 214.075292 
L 316.508195 212.773719 
L 317.160548 211.938778 
L 319.335059 209.080548 
L 320.422315 207.725969 
L 322.596826 204.877672 
L 325.423691 201.445064 
L 327.815654 197.81435 
L 330.425067 192.293175 
L 331.294872 189.256406 
L 331.512323 188.751909 
L 332.164676 167.662434 
L 332.382128 166.927018 
L 332.599579 167.673689 
L 333.469383 173.332117 
L 333.904285 175.609423 
L 334.556639 177.642665 
L 334.991541 178.444359 
L 335.426443 178.766605 
L 336.078797 178.479161 
L 336.513699 177.945874 
L 337.600955 175.617384 
L 338.470759 172.759942 
L 338.905662 170.364679 
L 339.123113 166.433563 
L 339.558015 153.721874 
L 339.775466 151.363551 
L 339.992917 150.376302 
L 340.210368 150.664152 
L 340.645271 152.636175 
L 342.38488 163.4591 
L 343.037233 165.990184 
L 343.689587 167.72316 
L 344.559391 169.159591 
L 344.994293 169.544421 
L 345.864098 169.85695 
L 346.299 169.655015 
L 346.733902 169.344783 
L 347.168805 168.988364 
L 348.25606 167.455459 
L 348.908414 166.181425 
L 349.995669 163.635848 
L 350.865474 160.799203 
L 351.300376 158.497928 
L 351.517827 156.870356 
L 351.95273 150.62097 
L 352.387632 143.234321 
L 352.822534 140.057428 
L 353.039985 139.60206 
L 353.257437 139.713499 
L 353.474888 140.315379 
L 353.90979 142.701409 
L 356.736655 162.443385 
L 357.606459 166.289729 
L 358.258813 168.259987 
L 358.911166 169.672662 
L 359.346068 170.364528 
L 360.433324 171.297381 
L 360.868226 171.385882 
L 361.738031 171.122111 
L 362.825286 170.515614 
L 363.260189 170.272712 
L 364.564896 169.126318 
L 365.4347 167.950671 
L 367.39176 163.88912 
L 367.826663 161.691004 
L 368.044114 159.552541 
L 368.913918 142.973672 
L 369.131369 141.867537 
L 369.348821 141.855496 
L 369.566272 142.526775 
L 370.001174 145.068586 
L 371.08843 153.485266 
L 372.393136 163.077715 
L 373.04549 166.57734 
L 373.915294 170.117393 
L 375.00255 173.02095 
L 375.437452 173.871417 
L 376.307257 174.946342 
L 376.95961 175.310862 
L 377.611964 175.622809 
L 379.351573 175.627312 
L 379.786475 175.512821 
L 380.65628 175.092145 
L 381.743535 174.56845 
L 382.178438 174.467802 
L 383.700596 173.67576 
L 384.787851 172.972227 
L 385.440205 172.435499 
L 386.310009 171.676058 
L 387.832167 170.188259 
L 388.919423 169.021004 
L 389.354325 168.582154 
L 390.441581 166.980617 
L 390.659032 166.52949 
L 391.093934 164.928368 
L 391.311385 163.034367 
L 391.963739 147.252201 
L 392.18119 145.532797 
L 392.398641 145.245537 
L 392.616092 146.020452 
L 393.050994 148.898376 
L 395.008055 163.620373 
L 395.877859 168.42333 
L 396.747664 172.078777 
L 397.400017 174.116309 
L 398.05237 175.560193 
L 398.487273 176.266282 
L 398.487273 176.266282 
" style="fill:none;stroke:#000000;stroke-linecap:square;stroke-width:1.5;"/>
   </g>
   <g id="line2d_17">
    <path clip-path="url(#pd4f611d21e)" d="M 73.832727 182.83761 
L 77.529397 182.72313 
L 78.18175 182.724215 
L 78.834103 182.581237 
L 79.051555 182.616492 
L 79.486457 185.208895 
L 80.356261 189.638718 
L 81.226066 193.084124 
L 82.09587 195.533094 
L 82.965675 197.525696 
L 84.270382 199.808721 
L 85.357637 201.433422 
L 86.227442 202.711571 
L 89.489209 207.309379 
L 91.228818 209.20988 
L 91.881172 210.022847 
L 92.750976 211.113249 
L 93.403329 211.651744 
L 94.490585 212.219992 
L 94.925487 212.430085 
L 95.142939 212.49414 
L 96.447645 213.501061 
L 98.187254 214.771449 
L 98.404706 215.022713 
L 99.057059 215.353851 
L 99.491961 215.628593 
L 99.926864 215.797434 
L 101.23157 216.589008 
L 102.101375 217.259534 
L 103.840984 218.165064 
L 104.493337 218.720632 
L 106.232946 219.718948 
L 106.8853 220.078377 
L 107.102751 220.255657 
L 107.537653 220.350441 
L 107.972556 220.669972 
L 108.407458 220.892965 
L 108.84236 221.056796 
L 109.929616 221.533918 
L 110.581969 221.936821 
L 111.886676 222.16622 
L 112.321578 222.438882 
L 113.626285 222.987166 
L 114.061187 223.244063 
L 114.713541 223.544697 
L 115.148443 223.820264 
L 116.888052 224.037892 
L 117.322954 224.443345 
L 118.627661 225.228895 
L 119.062563 225.230518 
L 120.584721 225.721896 
L 121.019624 225.905821 
L 122.324331 226.476299 
L 124.716293 227.028238 
L 125.368646 227.160155 
L 125.803549 227.235079 
L 126.238451 227.391231 
L 126.890804 227.435228 
L 127.97806 227.764357 
L 129.500218 228.114983 
L 129.93512 228.41676 
L 130.587474 228.645936 
L 131.239827 229.027167 
L 131.89218 229.458957 
L 132.761985 229.640327 
L 133.63179 230.175354 
L 134.501594 230.456106 
L 137.111008 230.399721 
L 138.198263 230.323404 
L 138.633166 230.432237 
L 139.068068 230.664656 
L 142.329835 231.296827 
L 142.764737 231.604886 
L 143.634542 231.850139 
L 144.069444 231.918085 
L 145.1567 231.559211 
L 146.243955 231.797386 
L 146.896309 231.738117 
L 148.201016 231.980984 
L 148.853369 231.905616 
L 149.288271 231.917935 
L 149.505722 231.870953 
L 150.810429 232.184302 
L 152.115136 232.282897 
L 152.550038 232.220561 
L 154.72455 232.465802 
L 155.594354 232.449085 
L 157.768866 233.264272 
L 158.856121 233.657255 
L 159.291024 233.725551 
L 160.160828 234.047254 
L 160.813182 233.973485 
L 163.205144 234.397427 
L 163.640046 234.39584 
L 164.727302 234.478992 
L 165.162204 234.421213 
L 165.597106 234.387778 
L 166.032009 234.408098 
L 166.466911 234.366289 
L 166.901813 234.581133 
L 167.771618 234.577224 
L 168.20652 234.755274 
L 169.076325 234.832976 
L 169.728678 235.083624 
L 170.815934 235.346215 
L 171.468287 235.332744 
L 171.685738 235.465669 
L 172.555543 235.308973 
L 173.207896 235.270115 
L 173.642799 235.097608 
L 174.295152 235.212954 
L 178.209272 234.706943 
L 179.296528 234.868806 
L 180.166333 235.087458 
L 180.818686 235.090962 
L 181.253588 235.353453 
L 181.688491 235.375799 
L 183.210648 235.635662 
L 183.863002 235.724473 
L 184.297904 235.663348 
L 185.38516 236.025489 
L 185.820062 235.832984 
L 186.472416 235.902083 
L 187.777122 236.090823 
L 188.646927 236.023975 
L 190.169085 235.948272 
L 192.343596 236.047944 
L 192.99595 236.059076 
L 193.430852 236.272826 
L 193.865754 236.323244 
L 194.083205 236.488581 
L 195.822814 236.497847 
L 196.475168 236.635613 
L 197.779875 236.884945 
L 198.214777 236.800714 
L 199.954386 237.042568 
L 201.041642 237.096187 
L 202.5638 236.924001 
L 202.998702 236.924952 
L 204.085957 236.768113 
L 205.825567 237.632841 
L 206.695371 237.602062 
L 207.130273 237.599918 
L 208.43498 237.69855 
L 209.957138 237.803516 
L 210.609492 237.496898 
L 212.13165 237.089084 
L 212.566552 237.182144 
L 213.871259 236.908756 
L 217.133026 237.352769 
L 217.785379 237.264649 
L 218.220281 237.295414 
L 218.655184 237.27715 
L 219.090086 237.38952 
L 219.95989 237.794954 
L 221.264597 237.626988 
L 221.916951 237.53722 
L 222.134402 237.49121 
L 222.569304 237.564348 
L 223.004206 237.431718 
L 224.743815 237.476541 
L 225.178718 237.578654 
L 225.831071 237.505688 
L 226.048522 237.534522 
L 226.700876 237.292345 
L 230.832447 236.978946 
L 231.267349 237.019349 
L 231.702252 236.877398 
L 232.137154 236.889939 
L 233.006959 236.865152 
L 233.876763 236.821613 
L 234.529116 236.673466 
L 234.964019 236.720155 
L 235.616372 236.557747 
L 238.443237 236.730893 
L 238.878139 236.587043 
L 239.747944 236.681877 
L 243.009711 236.463038 
L 243.444613 236.617037 
L 243.879515 236.625903 
L 244.74932 236.770367 
L 245.619124 236.621313 
L 246.271478 236.545899 
L 246.70638 236.599351 
L 248.011087 236.753934 
L 248.66344 236.632239 
L 250.403049 236.818489 
L 253.012463 237.784574 
L 254.969523 237.306379 
L 255.839328 237.427724 
L 256.27423 237.439482 
L 256.709132 237.505085 
L 257.144035 237.485502 
L 257.796388 237.544929 
L 258.883644 237.491338 
L 261.493057 237.218252 
L 262.580313 236.996509 
L 263.450118 236.974742 
L 264.319922 236.896762 
L 265.189727 237.003465 
L 265.84208 236.962403 
L 267.79914 237.057043 
L 268.234043 237.088327 
L 271.278358 237.479923 
L 271.930712 237.462129 
L 273.887772 237.541245 
L 274.322674 237.54389 
L 274.975028 237.504602 
L 275.192479 237.441785 
L 275.627381 237.539616 
L 276.932088 237.477348 
L 277.801892 237.386833 
L 278.454246 237.55594 
L 279.976404 237.132772 
L 281.06366 237.28842 
L 284.760329 237.363746 
L 285.195231 237.267517 
L 285.630133 237.273957 
L 286.065036 237.156786 
L 286.93484 237.517773 
L 288.456998 237.497336 
L 288.8919 237.368931 
L 289.109352 237.441758 
L 289.544254 237.283189 
L 291.066412 237.524505 
L 291.501314 237.705715 
L 292.806021 237.9232 
L 293.675825 237.695822 
L 295.415434 237.609634 
L 295.850337 237.611015 
L 296.50269 237.555658 
L 297.807397 230.414552 
L 298.677201 227.069326 
L 299.547006 224.569156 
L 301.069164 221.380681 
L 301.721517 220.335159 
L 303.896029 215.702031 
L 304.765833 214.409627 
L 309.114856 210.186104 
L 309.549758 209.945684 
L 310.202112 209.411511 
L 311.72427 208.176781 
L 313.463879 206.932644 
L 314.116232 206.518432 
L 314.768586 206.051637 
L 315.203488 205.777263 
L 315.63839 205.568919 
L 317.59545 204.37145 
L 318.465255 203.76691 
L 319.769962 202.906035 
L 320.204864 202.699594 
L 320.639766 202.519236 
L 322.161924 201.612098 
L 322.596826 201.327389 
L 323.031729 201.179688 
L 323.901533 200.686775 
L 324.771338 200.274323 
L 325.20624 200.086071 
L 326.076045 199.712254 
L 327.1633 199.09858 
L 327.598203 199.00063 
L 329.555263 197.746986 
L 331.512323 196.787643 
L 332.382128 196.232731 
L 335.426443 194.869429 
L 337.166052 193.721988 
L 339.558015 192.300744 
L 340.210368 191.903686 
L 344.34194 188.806727 
L 345.211745 188.048284 
L 346.081549 187.411833 
L 347.386256 186.002402 
L 349.560767 183.371878 
L 349.778218 182.789939 
L 349.995669 182.644453 
L 350.648023 180.532576 
L 351.082925 161.740911 
L 351.300376 158.749549 
L 351.517827 157.918401 
L 351.735279 158.851876 
L 353.474888 171.873139 
L 354.344692 175.99688 
L 354.997046 178.013661 
L 355.649399 179.433058 
L 356.736655 180.867075 
L 357.606459 181.249063 
L 358.041362 181.376378 
L 358.693715 181.233536 
L 359.563519 180.681166 
L 360.215873 180.343531 
L 361.738031 179.28499 
L 364.564896 176.217392 
L 365.652151 174.107219 
L 366.521956 171.695899 
L 366.739407 166.991816 
L 367.174309 153.262814 
L 367.39176 151.140683 
L 367.609211 150.564411 
L 368.044114 152.298196 
L 370.653527 169.394488 
L 371.305881 172.284495 
L 371.958234 174.430945 
L 372.610588 176.050823 
L 373.697843 177.802916 
L 374.350197 178.371849 
L 375.00255 178.778423 
L 375.437452 178.907586 
L 376.089806 179.007785 
L 376.95961 178.998682 
L 377.829415 178.755937 
L 378.916671 178.410506 
L 382.178438 176.915355 
L 384.135498 175.463073 
L 386.962363 172.859012 
L 389.354325 169.466575 
L 389.789227 168.339532 
L 390.006678 166.885186 
L 390.659032 150.369723 
L 390.876483 148.262191 
L 391.093934 147.593389 
L 391.311385 148.056987 
L 391.528836 148.869207 
L 392.18119 153.095649 
L 394.573152 169.133217 
L 395.442957 173.122836 
L 396.312761 176.129338 
L 397.182566 178.277186 
L 398.05237 179.821093 
L 398.487273 180.287334 
L 398.487273 180.287334 
" style="fill:none;stroke:#000000;stroke-linecap:square;stroke-width:1.5;"/>
   </g>
   <g id="line2d_18">
    <path clip-path="url(#pd4f611d21e)" d="M 73.832727 184.22607 
L 77.964299 183.903517 
L 78.18175 183.871745 
L 78.616652 183.981486 
L 78.834103 183.997943 
L 79.051555 183.89819 
L 79.921359 178.628868 
L 80.791164 174.409046 
L 81.660968 171.192237 
L 83.183126 167.025533 
L 86.444893 160.599472 
L 86.662344 159.744588 
L 86.879795 159.600875 
L 87.097247 155.908316 
L 87.532149 141.404058 
L 87.7496 139.483032 
L 87.967051 138.895127 
L 88.401953 140.579305 
L 89.489209 147.445534 
L 90.359014 151.860393 
L 91.228818 155.129962 
L 92.098623 157.546965 
L 92.968427 159.117626 
L 94.273134 160.824252 
L 94.925487 161.101928 
L 95.36039 161.439619 
L 96.447645 161.69014 
L 96.665097 161.709482 
L 98.622157 160.943727 
L 99.057059 160.850519 
L 100.361766 160.275022 
L 101.23157 159.5104 
L 101.666473 159.17912 
L 102.101375 158.806667 
L 102.753728 158.585808 
L 103.188631 158.565289 
L 104.92824 157.553778 
L 105.363142 157.289114 
L 106.232946 156.619801 
L 107.102751 155.910648 
L 108.190007 154.720161 
L 108.624909 154.08358 
L 109.712165 152.979949 
L 110.147067 151.977455 
L 110.364518 148.9152 
L 110.79942 135.1717 
L 111.016871 132.672864 
L 111.234323 131.672564 
L 111.451774 132.112158 
L 111.886676 134.403039 
L 112.973932 141.887646 
L 114.061187 149.102298 
L 114.713541 152.468204 
L 115.800796 156.485803 
L 116.45315 158.028218 
L 117.540406 159.828034 
L 118.41021 160.693846 
L 118.845112 160.834278 
L 119.062563 160.895535 
L 119.497466 161.19289 
L 120.149819 161.375187 
L 121.019624 161.238048 
L 121.454526 161.180949 
L 121.889428 161.100311 
L 122.324331 161.062721 
L 123.194135 160.831177 
L 123.846488 160.595145 
L 126.238451 159.610915 
L 126.673353 159.276891 
L 126.890804 159.157196 
L 127.325707 158.660964 
L 128.412962 157.922429 
L 129.065316 157.365071 
L 129.500218 157.068749 
L 131.239827 155.646527 
L 133.196887 154.667254 
L 135.806301 152.582977 
L 136.241203 152.103894 
L 136.893557 151.492472 
L 138.415715 149.531153 
L 139.068068 148.476096 
L 139.285519 147.803281 
L 139.50297 144.307804 
L 139.937872 131.656235 
L 140.155324 129.113213 
L 140.372775 127.884354 
L 140.590226 128.038442 
L 141.025128 129.945151 
L 141.894933 136.068003 
L 142.982188 143.991433 
L 144.069444 150.589351 
L 144.939249 154.463616 
L 145.591602 156.372491 
L 146.243955 157.840315 
L 146.678858 158.499924 
L 147.766113 159.2746 
L 149.288271 159.382205 
L 149.723174 159.509514 
L 150.375527 159.457895 
L 150.810429 159.530266 
L 151.245332 159.613713 
L 152.115136 159.509925 
L 152.332587 159.55136 
L 153.419843 159.078215 
L 153.854745 158.766596 
L 154.72455 158.447379 
L 156.246708 158.125276 
L 156.899061 157.798415 
L 157.986317 157.073027 
L 158.856121 156.232257 
L 162.335339 153.982368 
L 162.770242 153.70279 
L 164.2924 152.418836 
L 166.032009 151.0184 
L 166.24946 150.908826 
L 166.901813 150.102114 
L 170.598483 146.557566 
L 171.468287 145.12794 
L 171.903189 143.498841 
L 172.120641 140.48553 
L 172.555543 129.963605 
L 172.990445 125.932973 
L 173.207896 125.79907 
L 173.425347 126.277075 
L 173.86025 128.371221 
L 174.730054 134.121235 
L 175.599859 140.304949 
L 176.904566 147.815884 
L 177.556919 150.225279 
L 178.209272 151.896639 
L 179.079077 153.777764 
L 180.383784 155.767029 
L 180.818686 156.132101 
L 182.993197 157.156995 
L 183.4281 157.144272 
L 184.297904 157.263095 
L 184.732806 157.069645 
L 186.254964 156.728492 
L 186.907318 156.739762 
L 187.559671 156.432349 
L 188.646927 155.643349 
L 189.081829 155.258265 
L 189.734183 155.022886 
L 190.821438 154.227593 
L 191.473792 154.175106 
L 192.126145 153.952113 
L 192.343596 153.949549 
L 193.213401 153.532352 
L 194.735559 153.093286 
L 196.91007 151.747988 
L 200.389288 148.774022 
L 201.041642 148.208171 
L 201.476544 147.765595 
L 201.911446 147.429154 
L 202.346348 147.059735 
L 202.998702 146.290243 
L 203.216153 146.136398 
L 203.868506 145.140291 
L 204.303409 144.0846 
L 204.52086 143.248197 
L 204.738311 141.304888 
L 205.390664 127.492028 
L 205.608115 125.612961 
L 205.825567 124.938814 
L 206.043018 125.077004 
L 206.260469 125.658413 
L 207.130273 129.758382 
L 209.739687 145.075137 
L 210.609492 148.904865 
L 212.566552 153.402334 
L 213.001454 153.920329 
L 213.653807 154.391596 
L 214.306161 154.994119 
L 214.741063 155.370811 
L 215.175965 155.790362 
L 216.915574 156.788577 
L 218.00283 156.767808 
L 220.612244 156.030976 
L 221.047146 155.715047 
L 221.699499 155.588985 
L 222.569304 155.324762 
L 223.221657 155.155802 
L 223.65656 155.274661 
L 224.091462 155.09189 
L 224.743815 155.026103 
L 227.135778 153.787842 
L 227.788131 153.443958 
L 228.875387 152.918457 
L 229.310289 152.55521 
L 229.745191 152.252879 
L 233.22441 150.22643 
L 233.659312 150.123951 
L 234.094214 149.911513 
L 234.529116 149.733385 
L 234.964019 149.502949 
L 235.833823 149.019288 
L 236.268726 148.593691 
L 237.790884 146.969247 
L 239.09559 145.436103 
L 239.313041 145.270055 
L 240.400297 143.406813 
L 240.617748 142.621696 
L 240.835199 141.064972 
L 241.705004 124.789265 
L 241.922455 123.733709 
L 242.139906 123.489279 
L 242.357357 123.798705 
L 242.79226 125.285939 
L 243.444613 129.016887 
L 244.314418 135.330024 
L 245.619124 144.336639 
L 246.271478 147.306474 
L 247.358733 151.180466 
L 248.011087 152.868329 
L 249.098343 154.355035 
L 250.403049 155.780057 
L 250.837952 155.969461 
L 251.272854 156.259777 
L 252.142658 156.580174 
L 253.229914 156.715914 
L 253.664816 156.707377 
L 253.882268 156.778073 
L 254.534621 156.626213 
L 258.013839 156.290407 
L 260.18835 155.332492 
L 262.145411 154.263642 
L 263.450118 153.79401 
L 264.537373 153.325326 
L 265.84208 153.044127 
L 266.494433 152.479591 
L 269.538749 150.45732 
L 270.408554 150.160792 
L 270.843456 150.177816 
L 272.583065 148.940364 
L 273.45287 148.124741 
L 274.975028 147.222726 
L 275.844832 146.422782 
L 277.36699 144.695934 
L 279.32405 142.382616 
L 279.758953 141.41738 
L 280.193855 139.423484 
L 280.411306 136.418182 
L 280.846208 127.302796 
L 281.281111 122.992518 
L 281.498562 122.39457 
L 281.716013 122.327735 
L 281.933464 122.625948 
L 282.368366 123.984642 
L 282.803269 126.103105 
L 283.673073 131.951626 
L 284.542878 137.748144 
L 285.412682 142.426514 
L 286.282487 145.648247 
L 287.152291 148.444995 
L 288.674449 152.142756 
L 289.109352 152.723848 
L 290.196607 154.139633 
L 290.631509 154.49182 
L 291.283863 154.736405 
L 291.718765 155.114967 
L 292.58857 155.475629 
L 293.240923 155.690475 
L 293.893277 155.728609 
L 294.328179 155.591499 
L 294.763081 155.63078 
L 295.197983 155.5642 
L 295.415434 155.383732 
L 296.50269 155.304076 
L 296.937592 157.904974 
L 297.807397 162.591318 
L 298.677201 166.028171 
L 299.547006 168.664705 
L 300.416811 170.731506 
L 301.286615 172.438631 
L 303.243675 175.233156 
L 304.548382 176.57751 
L 304.983284 176.882655 
L 305.418187 177.192397 
L 307.375247 178.620008 
L 310.637014 180.011992 
L 311.72427 180.308878 
L 312.159172 180.44384 
L 312.594074 180.550398 
L 313.463879 180.798963 
L 313.898781 180.922731 
L 314.551134 181.196515 
L 315.420939 181.404999 
L 316.725646 181.752336 
L 317.59545 182.018397 
L 318.465255 182.461718 
L 323.031729 183.169201 
L 323.466631 183.167379 
L 325.858593 183.469549 
L 327.598203 183.656183 
L 328.033105 183.68043 
L 328.468007 183.784973 
L 330.642518 184.150837 
L 331.077421 184.244542 
L 331.512323 184.353067 
L 331.947225 184.429735 
L 332.382128 184.598835 
L 333.469383 184.670331 
L 333.904285 184.729068 
L 334.339188 184.755361 
L 336.078797 184.987331 
L 337.166052 185.136842 
L 337.600955 185.158027 
L 338.253308 185.206199 
L 341.297624 185.530818 
L 344.994293 185.734318 
L 346.081549 185.84868 
L 346.516451 185.815037 
L 346.951354 185.899815 
L 348.038609 185.965233 
L 348.473512 186.050238 
L 349.125865 186.064522 
L 349.995669 186.082489 
L 351.082925 186.28103 
L 351.517827 186.257888 
L 351.95273 186.295543 
L 352.387632 186.207891 
L 353.257437 186.242526 
L 353.692339 186.187836 
L 354.127241 186.26307 
L 355.86685 186.225318 
L 356.736655 186.348092 
L 357.389008 186.325142 
L 358.041362 186.446924 
L 359.346068 186.518515 
L 359.780971 186.500159 
L 361.085677 186.572189 
L 362.825286 186.742482 
L 363.260189 186.654406 
L 363.912542 186.811212 
L 364.782347 186.8331 
L 365.652151 186.861954 
L 366.304505 186.876504 
L 367.39176 186.960648 
L 367.609211 187.022158 
L 368.261565 186.956417 
L 368.913918 187.048833 
L 370.001174 187.15246 
L 370.653527 187.113383 
L 371.305881 187.159874 
L 371.958234 187.110435 
L 372.828039 187.076846 
L 373.262941 186.983211 
L 373.697843 186.999231 
L 374.350197 186.939534 
L 375.00255 186.97958 
L 375.437452 186.892084 
L 376.524708 186.998437 
L 376.95961 186.98801 
L 377.394513 187.030799 
L 377.829415 186.994746 
L 378.699219 186.994421 
L 379.134122 186.876179 
L 380.003926 186.915767 
L 380.873731 186.794509 
L 381.743535 186.728524 
L 382.395889 186.755171 
L 382.830791 186.765071 
L 383.700596 186.869698 
L 386.310009 186.96419 
L 386.962363 187.08269 
L 389.136874 187.150999 
L 391.963739 187.285566 
L 392.616092 187.312003 
L 393.703348 187.34938 
L 394.355701 187.373069 
L 398.487273 187.046349 
L 398.487273 187.046349 
" style="fill:none;stroke:#000000;stroke-linecap:square;stroke-width:1.5;"/>
   </g>
   <g id="line2d_19">
    <path clip-path="url(#pd4f611d21e)" d="M 73.832727 187.683358 
L 78.18175 187.803394 
L 78.399201 188.068186 
L 78.616652 187.860402 
L 78.834103 188.051268 
L 79.051555 187.664548 
L 81.008615 137.392431 
L 81.660968 125.239282 
L 82.313322 96.678388 
L 82.530773 93.510008 
L 82.748224 92.533065 
L 84.052931 92.490318 
L 84.270382 92.813311 
L 84.705284 92.570971 
L 85.140186 92.188857 
L 85.357637 92.290535 
L 86.444893 91.173204 
L 87.532149 89.130521 
L 88.184502 86.735398 
L 88.619404 85.479346 
L 90.141562 78.479417 
L 90.359014 77.049881 
L 90.576465 73.700671 
L 91.228818 59.129658 
L 91.66372 55.983344 
L 91.881172 55.658601 
L 92.098623 56.102321 
L 93.403329 61.848028 
L 93.620781 62.771319 
L 94.273134 66.971084 
L 94.490585 67.922729 
L 94.708036 68.343526 
L 95.142939 69.835914 
L 95.36039 70.403651 
L 95.795292 72.450886 
L 96.230194 73.50172 
L 96.665097 73.971531 
L 96.882548 74.082191 
L 97.31745 74.665621 
L 97.969803 74.524862 
L 98.404706 74.34327 
L 98.839608 73.768911 
L 99.491961 73.470873 
L 99.709412 73.17323 
L 99.926864 73.075675 
L 100.144315 73.253203 
L 100.579217 72.682675 
L 100.796668 72.735224 
L 102.101375 71.239307 
L 102.318826 71.216319 
L 102.753728 70.243203 
L 102.971179 69.916547 
L 103.840984 66.77916 
L 104.275886 64.213088 
L 105.580593 59.19876 
L 106.015495 57.559133 
L 107.102751 54.898815 
L 107.320202 54.536675 
L 107.537653 53.947634 
L 108.190007 53.568 
L 108.84236 53.983884 
L 109.277262 55.697955 
L 110.364518 60.290562 
L 111.016871 63.031238 
L 111.886676 67.688811 
L 112.321578 69.221442 
L 113.191383 71.544501 
L 113.408834 71.684109 
L 114.061187 71.760339 
L 114.713541 72.050976 
L 115.365894 71.930447 
L 115.583345 71.940514 
L 115.800796 71.830168 
L 116.018248 71.867804 
L 116.235699 71.701246 
L 116.45315 71.866584 
L 116.888052 72.327403 
L 117.105503 72.546477 
L 117.322954 72.366535 
L 117.757857 71.775802 
L 117.975308 71.616242 
L 118.192759 71.823596 
L 118.41021 71.83418 
L 118.627661 71.605192 
L 119.280015 71.460835 
L 120.149819 70.814588 
L 120.36727 70.724335 
L 121.019624 69.760641 
L 121.237075 69.323812 
L 121.889428 67.487721 
L 122.324331 66.86296 
L 123.194135 66.713362 
L 123.629037 66.260724 
L 123.846488 66.422673 
L 124.06394 66.38178 
L 124.281391 66.204709 
L 124.498842 66.356103 
L 124.716293 66.089165 
L 124.933744 65.52435 
L 125.368646 65.294154 
L 125.803549 65.35603 
L 126.673353 65.378247 
L 127.108255 65.159078 
L 127.325707 64.878061 
L 127.760609 65.047942 
L 127.97806 65.220234 
L 128.412962 66.280521 
L 128.847865 66.695471 
L 129.500218 66.300132 
L 129.93512 66.460587 
L 130.152571 66.235847 
L 131.022376 67.146688 
L 131.239827 67.265393 
L 131.674729 67.875972 
L 131.89218 67.994251 
L 132.327083 68.515111 
L 132.544534 68.538589 
L 132.761985 68.43552 
L 133.414338 69.179425 
L 134.284143 68.696375 
L 135.153948 69.000441 
L 135.58885 68.547977 
L 136.023752 67.941148 
L 136.241203 67.984823 
L 136.458654 67.799808 
L 136.893557 67.003617 
L 137.54591 66.321654 
L 137.980812 65.8827 
L 138.415715 66.326879 
L 139.285519 66.03342 
L 139.720421 65.561562 
L 139.937872 65.331015 
L 140.807677 63.641492 
L 141.025128 63.537703 
L 141.677482 62.723555 
L 141.894933 62.910257 
L 142.112384 62.725351 
L 142.982188 62.741678 
L 143.634542 63.27861 
L 144.286895 62.943166 
L 145.1567 62.940976 
L 146.026504 63.203554 
L 146.243955 62.98787 
L 146.678858 63.178032 
L 146.896309 62.924759 
L 147.11376 62.998953 
L 147.331211 63.314762 
L 147.548662 63.308932 
L 147.766113 62.918021 
L 147.983565 62.855318 
L 148.201016 63.159239 
L 148.418467 63.064042 
L 148.853369 62.338738 
L 149.07082 62.194645 
L 149.505722 62.256874 
L 150.375527 63.197549 
L 151.245332 62.768544 
L 151.462783 62.782034 
L 151.680234 62.952689 
L 151.897685 63.341974 
L 152.332587 63.498391 
L 152.550038 63.578811 
L 152.984941 62.890326 
L 153.637294 62.767743 
L 154.289647 61.805783 
L 154.507099 61.885199 
L 154.942001 62.290242 
L 156.029257 63.044676 
L 156.464159 62.896837 
L 156.68161 62.6925 
L 157.116512 62.719643 
L 158.203768 62.434052 
L 158.421219 62.611019 
L 158.63867 62.560001 
L 159.073572 61.853567 
L 159.291024 61.617811 
L 159.725926 60.532166 
L 160.59573 60.170068 
L 161.030633 59.633566 
L 161.465535 59.820377 
L 161.900437 59.896738 
L 162.552791 60.76931 
L 162.770242 60.687597 
L 163.205144 60.209235 
L 163.422595 60.016437 
L 163.640046 59.977722 
L 164.074949 60.191157 
L 164.2924 60.063389 
L 164.509851 59.772154 
L 164.727302 59.763018 
L 165.379655 60.356599 
L 165.814558 60.035272 
L 166.466911 60.480404 
L 166.684362 60.406546 
L 166.901813 60.457936 
L 167.989069 61.751113 
L 168.423971 62.448461 
L 168.858874 62.655745 
L 169.076325 62.531094 
L 169.511227 62.622502 
L 169.946129 62.135607 
L 170.16358 61.771654 
L 170.815934 61.672104 
L 171.685738 62.25328 
L 171.903189 62.305677 
L 172.120641 62.484944 
L 172.338092 62.397613 
L 172.555543 62.119806 
L 172.990445 62.753712 
L 173.425347 62.553627 
L 173.86025 62.950537 
L 174.295152 62.443652 
L 174.512603 62.470167 
L 174.730054 62.64071 
L 174.947505 63.018102 
L 175.382408 63.162085 
L 175.599859 63.044303 
L 176.034761 62.359567 
L 176.252212 62.20634 
L 176.687114 62.508843 
L 176.904566 62.529488 
L 177.122017 62.669886 
L 177.556919 62.431328 
L 177.991821 62.143555 
L 178.426723 62.114568 
L 178.861626 62.431789 
L 179.296528 62.487163 
L 179.513979 62.394193 
L 180.166333 62.948868 
L 180.383784 63.224828 
L 180.818686 63.181406 
L 182.123393 62.820093 
L 183.210648 63.627788 
L 183.4281 63.558281 
L 183.645551 63.831548 
L 184.080453 63.76534 
L 184.297904 64.212467 
L 184.950258 64.348421 
L 185.167709 64.298235 
L 186.472416 64.646672 
L 186.689867 64.649252 
L 186.907318 64.332883 
L 187.124769 64.228762 
L 187.34222 64.291656 
L 187.777122 64.02391 
L 188.212025 63.976584 
L 188.429476 64.275241 
L 188.864378 64.477007 
L 189.081829 64.69514 
L 189.734183 64.445621 
L 190.169085 63.958363 
L 191.473792 64.58528 
L 191.691243 64.769133 
L 192.126145 64.344255 
L 192.561047 64.58065 
L 192.99595 64.405962 
L 194.083205 64.787699 
L 194.300656 64.729065 
L 195.387912 63.94913 
L 195.605363 63.421282 
L 195.822814 63.268503 
L 196.257717 64.248298 
L 196.692619 64.765816 
L 196.91007 64.692762 
L 197.344972 63.966534 
L 197.997326 63.923808 
L 198.432228 63.786927 
L 198.649679 64.024177 
L 198.86713 64.083434 
L 199.519484 63.656422 
L 199.736935 63.747976 
L 200.171837 63.367325 
L 200.389288 63.529896 
L 200.82419 63.469699 
L 201.476544 64.031884 
L 201.693995 63.845749 
L 202.128897 63.085932 
L 202.346348 63.011575 
L 202.5638 63.181995 
L 203.216153 63.068456 
L 203.433604 62.972166 
L 204.085957 63.413169 
L 204.303409 63.46489 
L 204.738311 63.772101 
L 204.955762 63.757124 
L 205.173213 63.887168 
L 205.390664 63.816863 
L 205.608115 63.497026 
L 206.043018 63.520226 
L 206.260469 63.056318 
L 207.130273 62.4795 
L 207.347725 62.157525 
L 207.565176 61.614614 
L 207.782627 61.594318 
L 208.217529 61.999218 
L 208.43498 62.309915 
L 208.652431 62.163961 
L 209.087334 61.6452 
L 209.739687 61.570301 
L 209.957138 61.234911 
L 210.174589 61.1283 
L 210.609492 61.53672 
L 210.826943 61.787023 
L 211.261845 61.766268 
L 211.479296 61.578648 
L 211.696747 61.237042 
L 212.784003 61.870975 
L 213.001454 61.847474 
L 213.653807 61.430362 
L 214.306161 62.458356 
L 214.523612 62.637547 
L 215.393417 63.947618 
L 215.610868 64.029374 
L 216.480672 63.517988 
L 217.133026 62.492005 
L 217.350477 62.622357 
L 217.567928 62.947084 
L 218.00283 63.023897 
L 218.437732 63.078796 
L 218.872635 63.773302 
L 219.090086 63.982241 
L 219.307537 63.937353 
L 220.177342 62.456622 
L 220.394793 62.447256 
L 220.829695 62.753029 
L 221.047146 62.713541 
L 221.916951 63.183556 
L 222.134402 62.896221 
L 222.351853 62.862991 
L 222.786755 62.99252 
L 223.221657 63.123093 
L 224.091462 62.319735 
L 224.526364 61.76991 
L 225.178718 62.614668 
L 225.396169 62.694341 
L 226.048522 62.397155 
L 226.265973 62.506404 
L 226.483424 62.757147 
L 226.918327 62.550752 
L 227.57068 62.583578 
L 228.223034 63.179324 
L 228.440485 63.128268 
L 228.657936 62.925001 
L 229.52774 63.215015 
L 229.745191 63.093236 
L 229.962643 63.232608 
L 230.397545 63.212962 
L 230.614996 63.433384 
L 231.702252 63.768936 
L 232.137154 64.227073 
L 232.789507 64.361847 
L 233.006959 64.582576 
L 233.22441 64.588604 
L 233.441861 63.976481 
L 233.659312 63.921059 
L 233.876763 64.260888 
L 234.094214 64.360028 
L 234.746568 65.308672 
L 234.964019 65.255511 
L 235.398921 65.499181 
L 235.616372 65.225581 
L 236.051274 65.118281 
L 236.268726 64.543084 
L 236.486177 64.374902 
L 236.703628 64.402003 
L 237.13853 63.962679 
L 237.355981 63.733793 
L 237.790884 62.951121 
L 238.443237 62.104935 
L 238.660688 62.195262 
L 239.747944 63.714456 
L 240.182846 64.511677 
L 241.922455 64.42589 
L 243.444613 63.861118 
L 243.662064 63.949884 
L 244.74932 63.160888 
L 245.619124 63.248704 
L 245.836576 63.175201 
L 246.054027 63.291176 
L 246.271478 63.2619 
L 246.70638 63.506208 
L 247.576185 63.159493 
L 248.011087 63.126226 
L 248.445989 62.728342 
L 248.880891 62.795373 
L 249.750696 62.243263 
L 249.968147 61.850888 
L 250.403049 61.957328 
L 250.837952 62.297987 
L 251.272854 62.10934 
L 251.490305 62.103364 
L 252.142658 62.503185 
L 252.36011 62.726444 
L 252.577561 62.752342 
L 253.229914 62.33038 
L 253.447365 62.065771 
L 253.882268 61.313527 
L 254.31717 60.957403 
L 254.752072 61.602873 
L 255.186974 61.476803 
L 255.404426 61.277465 
L 255.839328 60.575607 
L 256.491681 60.105815 
L 257.144035 60.372325 
L 257.361486 60.256908 
L 257.578937 60.277891 
L 258.013839 60.161706 
L 258.23129 60.134434 
L 258.666193 59.501976 
L 259.535997 60.157311 
L 259.753448 60.442921 
L 260.18835 60.343972 
L 260.405802 60.375334 
L 260.623253 60.280663 
L 261.058155 60.693315 
L 261.275606 60.841784 
L 261.710508 61.639195 
L 262.145411 61.859883 
L 262.362862 61.786343 
L 262.797764 61.313288 
L 263.232666 60.39029 
L 263.450118 60.322794 
L 263.88502 60.776138 
L 264.754824 60.521505 
L 264.972275 60.615755 
L 265.407178 60.651779 
L 265.624629 60.87137 
L 266.059531 60.789405 
L 266.494433 61.2322 
L 267.146787 62.145597 
L 267.581689 62.018372 
L 268.234043 62.901449 
L 268.668945 63.093449 
L 268.886396 63.128252 
L 269.538749 63.951424 
L 269.7562 64.242599 
L 270.191103 64.137817 
L 270.626005 63.925831 
L 270.843456 64.045746 
L 271.278358 64.065999 
L 271.713261 64.671145 
L 271.930712 65.053922 
L 272.148163 65.120917 
L 272.583065 64.726325 
L 273.45287 64.731695 
L 274.322674 63.406822 
L 275.192479 62.763281 
L 275.40993 62.638833 
L 275.627381 62.782073 
L 275.844832 62.653398 
L 276.062283 62.262548 
L 276.932088 62.844551 
L 277.149539 62.796236 
L 277.36699 63.086487 
L 278.019344 63.359641 
L 278.236795 63.312075 
L 278.889148 63.622198 
L 279.541502 63.488416 
L 279.976404 62.891018 
L 280.411306 62.085377 
L 281.06366 61.94561 
L 281.498562 62.248707 
L 281.716013 62.255801 
L 281.933464 61.912754 
L 282.150915 61.861784 
L 282.585817 62.393971 
L 282.803269 62.530684 
L 283.02072 62.491816 
L 283.455622 62.762899 
L 284.107975 62.922836 
L 284.325427 62.748622 
L 284.760329 62.071122 
L 285.195231 62.004556 
L 285.630133 61.574335 
L 285.847584 61.616628 
L 286.717389 61.30484 
L 286.93484 61.373221 
L 287.152291 61.615102 
L 287.587194 61.717295 
L 288.022096 61.045937 
L 289.109352 62.079027 
L 289.326803 61.966141 
L 289.544254 62.038444 
L 289.761705 62.333549 
L 289.979156 62.155612 
L 290.631509 61.128399 
L 291.501314 60.474872 
L 291.718765 60.42708 
L 291.936216 60.506446 
L 292.153667 60.45585 
L 292.58857 59.816587 
L 292.806021 59.385268 
L 293.023472 59.254363 
L 293.240923 59.359075 
L 293.458374 59.317622 
L 293.893277 58.917884 
L 294.110728 58.988197 
L 294.54563 58.60247 
L 294.980532 57.943394 
L 295.415434 57.610259 
L 295.632886 58.012715 
L 295.850337 58.066695 
L 296.067788 58.272427 
L 296.285239 57.789608 
L 296.50269 57.918247 
L 298.242299 102.930295 
L 299.329555 119.942636 
L 300.416811 132.619202 
L 301.504066 141.73122 
L 302.591322 148.998634 
L 303.678578 154.694176 
L 304.548382 158.233036 
L 305.635638 162.052994 
L 307.592698 166.943468 
L 308.679954 169.147485 
L 309.549758 170.646436 
L 310.854465 172.50282 
L 312.811525 174.647169 
L 313.68133 175.445744 
L 314.333683 176.001328 
L 314.768586 176.312583 
L 315.63839 177.114128 
L 316.290743 177.710604 
L 317.160548 178.370784 
L 321.727022 180.711636 
L 322.596826 181.005424 
L 327.815654 183.205528 
L 332.599579 184.33026 
L 333.469383 184.432254 
L 334.77409 184.817625 
L 336.078797 185.070387 
L 336.73115 185.056122 
L 337.818406 185.08826 
L 338.470759 185.178245 
L 339.558015 185.264155 
L 339.992917 185.253535 
L 341.080173 185.432049 
L 341.515075 185.488283 
L 342.38488 185.695033 
L 352.387632 186.488824 
L 353.039985 186.566274 
L 356.084301 186.63311 
L 356.954106 186.751857 
L 357.389008 186.758802 
L 357.82391 186.769442 
L 358.476264 186.705501 
L 359.346068 186.630574 
L 361.303129 186.801222 
L 361.955482 186.789356 
L 363.260189 186.944834 
L 363.695091 187.076019 
L 364.999798 187.175498 
L 365.4347 187.115985 
L 365.869602 187.139859 
L 367.174309 187.229927 
L 370.870979 187.371171 
L 371.740783 187.282883 
L 372.828039 187.323966 
L 382.178438 187.725995 
L 384.135498 187.651211 
L 385.875107 187.744528 
L 386.962363 187.64757 
L 388.701972 187.825653 
L 389.136874 187.923267 
L 390.22413 187.968398 
L 393.920799 188.173765 
L 395.225506 188.043098 
L 395.877859 187.994282 
L 396.747664 188.07763 
L 398.05237 187.999555 
L 398.487273 188.026308 
L 398.487273 188.026308 
" style="fill:none;stroke:#000000;stroke-linecap:square;stroke-width:1.5;"/>
   </g>
   <g id="patch_3">
    <path d="M 57.6 307.584 
L 57.6 41.472 
" style="fill:none;stroke:#000000;stroke-linecap:square;stroke-linejoin:miter;stroke-width:0.8;"/>
   </g>
   <g id="patch_4">
    <path d="M 414.72 307.584 
L 414.72 41.472 
" style="fill:none;stroke:#000000;stroke-linecap:square;stroke-linejoin:miter;stroke-width:0.8;"/>
   </g>
   <g id="patch_5">
    <path d="M 57.6 307.584 
L 414.72 307.584 
" style="fill:none;stroke:#000000;stroke-linecap:square;stroke-linejoin:miter;stroke-width:0.8;"/>
   </g>
   <g id="patch_6">
    <path d="M 57.6 41.472 
L 414.72 41.472 
" style="fill:none;stroke:#000000;stroke-linecap:square;stroke-linejoin:miter;stroke-width:0.8;"/>
   </g>
  </g>
 </g>
 <defs>
  <clipPath id="pd4f611d21e">
   <rect height="266.112" width="357.12" x="57.6" y="41.472"/>
  </clipPath>
 </defs>
</svg>
