<?xml version="1.0" encoding="utf-8" standalone="no"?>
<!DOCTYPE svg PUBLIC "-//W3C//DTD SVG 1.1//EN"
  "http://www.w3.org/Graphics/SVG/1.1/DTD/svg11.dtd">
<svg height="345.6pt" version="1.1" viewBox="0 0 460.8 345.6" width="460.8pt" xmlns="http://www.w3.org/2000/svg" xmlns:xlink="http://www.w3.org/1999/xlink">
 <metadata>
  <rdf:RDF xmlns:cc="http://creativecommons.org/ns#" xmlns:dc="http://purl.org/dc/elements/1.1/" xmlns:rdf="http://www.w3.org/1999/02/22-rdf-syntax-ns#">
   <cc:Work>
    <dc:type rdf:resource="http://purl.org/dc/dcmitype/StillImage"/>
    <dc:date>2024-08-06T14:44:53.308304</dc:date>
    <dc:format>image/svg+xml</dc:format>
    <dc:creator>
     <cc:Agent>
      <dc:title>Matplotlib v3.4.2, https://matplotlib.org/</dc:title>
     </cc:Agent>
    </dc:creator>
   </cc:Work>
  </rdf:RDF>
 </metadata>
 <defs>
  <style type="text/css">*{stroke-linecap:butt;stroke-linejoin:round;}</style>
 </defs>
 <g id="figure_1">
  <g id="patch_1">
   <path d="M 0 345.6 
L 460.8 345.6 
L 460.8 0 
L 0 0 
z
" style="fill:#ffffff;"/>
  </g>
  <g id="axes_1">
   <g id="patch_2">
    <path d="M 57.6 307.584 
L 414.72 307.584 
L 414.72 41.472 
L 57.6 41.472 
z
" style="fill:#ffffff;"/>
   </g>
   <g id="matplotlib.axis_1">
    <g id="xtick_1">
     <g id="line2d_1">
      <defs>
       <path d="M 0 0 
L 0 3.5 
" id="m49b628c119" style="stroke:#000000;stroke-width:0.8;"/>
      </defs>
      <g>
       <use style="stroke:#000000;stroke-width:0.8;" x="95.211629" xlink:href="#m49b628c119" y="307.584"/>
      </g>
     </g>
     <g id="text_1">
      <!-- 0.2 -->
      <g transform="translate(87.260067 322.182437)scale(0.1 -0.1)">
       <defs>
        <path d="M 2034 4250 
Q 1547 4250 1301 3770 
Q 1056 3291 1056 2328 
Q 1056 1369 1301 889 
Q 1547 409 2034 409 
Q 2525 409 2770 889 
Q 3016 1369 3016 2328 
Q 3016 3291 2770 3770 
Q 2525 4250 2034 4250 
z
M 2034 4750 
Q 2819 4750 3233 4129 
Q 3647 3509 3647 2328 
Q 3647 1150 3233 529 
Q 2819 -91 2034 -91 
Q 1250 -91 836 529 
Q 422 1150 422 2328 
Q 422 3509 836 4129 
Q 1250 4750 2034 4750 
z
" id="DejaVuSans-30" transform="scale(0.015625)"/>
        <path d="M 684 794 
L 1344 794 
L 1344 0 
L 684 0 
L 684 794 
z
" id="DejaVuSans-2e" transform="scale(0.015625)"/>
        <path d="M 1228 531 
L 3431 531 
L 3431 0 
L 469 0 
L 469 531 
Q 828 903 1448 1529 
Q 2069 2156 2228 2338 
Q 2531 2678 2651 2914 
Q 2772 3150 2772 3378 
Q 2772 3750 2511 3984 
Q 2250 4219 1831 4219 
Q 1534 4219 1204 4116 
Q 875 4013 500 3803 
L 500 4441 
Q 881 4594 1212 4672 
Q 1544 4750 1819 4750 
Q 2544 4750 2975 4387 
Q 3406 4025 3406 3419 
Q 3406 3131 3298 2873 
Q 3191 2616 2906 2266 
Q 2828 2175 2409 1742 
Q 1991 1309 1228 531 
z
" id="DejaVuSans-32" transform="scale(0.015625)"/>
       </defs>
       <use xlink:href="#DejaVuSans-30"/>
       <use x="63.623047" xlink:href="#DejaVuSans-2e"/>
       <use x="95.410156" xlink:href="#DejaVuSans-32"/>
      </g>
     </g>
    </g>
    <g id="xtick_2">
     <g id="line2d_2">
      <g>
       <use style="stroke:#000000;stroke-width:0.8;" x="139.20545" xlink:href="#m49b628c119" y="307.584"/>
      </g>
     </g>
     <g id="text_2">
      <!-- 0.4 -->
      <g transform="translate(131.253887 322.182437)scale(0.1 -0.1)">
       <defs>
        <path d="M 2419 4116 
L 825 1625 
L 2419 1625 
L 2419 4116 
z
M 2253 4666 
L 3047 4666 
L 3047 1625 
L 3713 1625 
L 3713 1100 
L 3047 1100 
L 3047 0 
L 2419 0 
L 2419 1100 
L 313 1100 
L 313 1709 
L 2253 4666 
z
" id="DejaVuSans-34" transform="scale(0.015625)"/>
       </defs>
       <use xlink:href="#DejaVuSans-30"/>
       <use x="63.623047" xlink:href="#DejaVuSans-2e"/>
       <use x="95.410156" xlink:href="#DejaVuSans-34"/>
      </g>
     </g>
    </g>
    <g id="xtick_3">
     <g id="line2d_3">
      <g>
       <use style="stroke:#000000;stroke-width:0.8;" x="183.19927" xlink:href="#m49b628c119" y="307.584"/>
      </g>
     </g>
     <g id="text_3">
      <!-- 0.6 -->
      <g transform="translate(175.247707 322.182437)scale(0.1 -0.1)">
       <defs>
        <path d="M 2113 2584 
Q 1688 2584 1439 2293 
Q 1191 2003 1191 1497 
Q 1191 994 1439 701 
Q 1688 409 2113 409 
Q 2538 409 2786 701 
Q 3034 994 3034 1497 
Q 3034 2003 2786 2293 
Q 2538 2584 2113 2584 
z
M 3366 4563 
L 3366 3988 
Q 3128 4100 2886 4159 
Q 2644 4219 2406 4219 
Q 1781 4219 1451 3797 
Q 1122 3375 1075 2522 
Q 1259 2794 1537 2939 
Q 1816 3084 2150 3084 
Q 2853 3084 3261 2657 
Q 3669 2231 3669 1497 
Q 3669 778 3244 343 
Q 2819 -91 2113 -91 
Q 1303 -91 875 529 
Q 447 1150 447 2328 
Q 447 3434 972 4092 
Q 1497 4750 2381 4750 
Q 2619 4750 2861 4703 
Q 3103 4656 3366 4563 
z
" id="DejaVuSans-36" transform="scale(0.015625)"/>
       </defs>
       <use xlink:href="#DejaVuSans-30"/>
       <use x="63.623047" xlink:href="#DejaVuSans-2e"/>
       <use x="95.410156" xlink:href="#DejaVuSans-36"/>
      </g>
     </g>
    </g>
    <g id="xtick_4">
     <g id="line2d_4">
      <g>
       <use style="stroke:#000000;stroke-width:0.8;" x="227.19309" xlink:href="#m49b628c119" y="307.584"/>
      </g>
     </g>
     <g id="text_4">
      <!-- 0.8 -->
      <g transform="translate(219.241528 322.182437)scale(0.1 -0.1)">
       <defs>
        <path d="M 2034 2216 
Q 1584 2216 1326 1975 
Q 1069 1734 1069 1313 
Q 1069 891 1326 650 
Q 1584 409 2034 409 
Q 2484 409 2743 651 
Q 3003 894 3003 1313 
Q 3003 1734 2745 1975 
Q 2488 2216 2034 2216 
z
M 1403 2484 
Q 997 2584 770 2862 
Q 544 3141 544 3541 
Q 544 4100 942 4425 
Q 1341 4750 2034 4750 
Q 2731 4750 3128 4425 
Q 3525 4100 3525 3541 
Q 3525 3141 3298 2862 
Q 3072 2584 2669 2484 
Q 3125 2378 3379 2068 
Q 3634 1759 3634 1313 
Q 3634 634 3220 271 
Q 2806 -91 2034 -91 
Q 1263 -91 848 271 
Q 434 634 434 1313 
Q 434 1759 690 2068 
Q 947 2378 1403 2484 
z
M 1172 3481 
Q 1172 3119 1398 2916 
Q 1625 2713 2034 2713 
Q 2441 2713 2670 2916 
Q 2900 3119 2900 3481 
Q 2900 3844 2670 4047 
Q 2441 4250 2034 4250 
Q 1625 4250 1398 4047 
Q 1172 3844 1172 3481 
z
" id="DejaVuSans-38" transform="scale(0.015625)"/>
       </defs>
       <use xlink:href="#DejaVuSans-30"/>
       <use x="63.623047" xlink:href="#DejaVuSans-2e"/>
       <use x="95.410156" xlink:href="#DejaVuSans-38"/>
      </g>
     </g>
    </g>
    <g id="xtick_5">
     <g id="line2d_5">
      <g>
       <use style="stroke:#000000;stroke-width:0.8;" x="271.18691" xlink:href="#m49b628c119" y="307.584"/>
      </g>
     </g>
     <g id="text_5">
      <!-- 1.0 -->
      <g transform="translate(263.235348 322.182437)scale(0.1 -0.1)">
       <defs>
        <path d="M 794 531 
L 1825 531 
L 1825 4091 
L 703 3866 
L 703 4441 
L 1819 4666 
L 2450 4666 
L 2450 531 
L 3481 531 
L 3481 0 
L 794 0 
L 794 531 
z
" id="DejaVuSans-31" transform="scale(0.015625)"/>
       </defs>
       <use xlink:href="#DejaVuSans-31"/>
       <use x="63.623047" xlink:href="#DejaVuSans-2e"/>
       <use x="95.410156" xlink:href="#DejaVuSans-30"/>
      </g>
     </g>
    </g>
    <g id="xtick_6">
     <g id="line2d_6">
      <g>
       <use style="stroke:#000000;stroke-width:0.8;" x="315.18073" xlink:href="#m49b628c119" y="307.584"/>
      </g>
     </g>
     <g id="text_6">
      <!-- 1.2 -->
      <g transform="translate(307.229168 322.182437)scale(0.1 -0.1)">
       <use xlink:href="#DejaVuSans-31"/>
       <use x="63.623047" xlink:href="#DejaVuSans-2e"/>
       <use x="95.410156" xlink:href="#DejaVuSans-32"/>
      </g>
     </g>
    </g>
    <g id="xtick_7">
     <g id="line2d_7">
      <g>
       <use style="stroke:#000000;stroke-width:0.8;" x="359.174551" xlink:href="#m49b628c119" y="307.584"/>
      </g>
     </g>
     <g id="text_7">
      <!-- 1.4 -->
      <g transform="translate(351.222988 322.182437)scale(0.1 -0.1)">
       <use xlink:href="#DejaVuSans-31"/>
       <use x="63.623047" xlink:href="#DejaVuSans-2e"/>
       <use x="95.410156" xlink:href="#DejaVuSans-34"/>
      </g>
     </g>
    </g>
    <g id="xtick_8">
     <g id="line2d_8">
      <g>
       <use style="stroke:#000000;stroke-width:0.8;" x="403.168371" xlink:href="#m49b628c119" y="307.584"/>
      </g>
     </g>
     <g id="text_8">
      <!-- 1.6 -->
      <g transform="translate(395.216808 322.182437)scale(0.1 -0.1)">
       <use xlink:href="#DejaVuSans-31"/>
       <use x="63.623047" xlink:href="#DejaVuSans-2e"/>
       <use x="95.410156" xlink:href="#DejaVuSans-36"/>
      </g>
     </g>
    </g>
   </g>
   <g id="matplotlib.axis_2">
    <g id="ytick_1">
     <g id="line2d_9">
      <defs>
       <path d="M 0 0 
L -3.5 0 
" id="m3f69b33651" style="stroke:#000000;stroke-width:0.8;"/>
      </defs>
      <g>
       <use style="stroke:#000000;stroke-width:0.8;" x="57.6" xlink:href="#m3f69b33651" y="287.332361"/>
      </g>
     </g>
     <g id="text_9">
      <!-- −100 -->
      <g transform="translate(23.132812 291.13158)scale(0.1 -0.1)">
       <defs>
        <path d="M 678 2272 
L 4684 2272 
L 4684 1741 
L 678 1741 
L 678 2272 
z
" id="DejaVuSans-2212" transform="scale(0.015625)"/>
       </defs>
       <use xlink:href="#DejaVuSans-2212"/>
       <use x="83.789062" xlink:href="#DejaVuSans-31"/>
       <use x="147.412109" xlink:href="#DejaVuSans-30"/>
       <use x="211.035156" xlink:href="#DejaVuSans-30"/>
      </g>
     </g>
    </g>
    <g id="ytick_2">
     <g id="line2d_10">
      <g>
       <use style="stroke:#000000;stroke-width:0.8;" x="57.6" xlink:href="#m3f69b33651" y="244.703741"/>
      </g>
     </g>
     <g id="text_10">
      <!-- −80 -->
      <g transform="translate(29.495313 248.502959)scale(0.1 -0.1)">
       <use xlink:href="#DejaVuSans-2212"/>
       <use x="83.789062" xlink:href="#DejaVuSans-38"/>
       <use x="147.412109" xlink:href="#DejaVuSans-30"/>
      </g>
     </g>
    </g>
    <g id="ytick_3">
     <g id="line2d_11">
      <g>
       <use style="stroke:#000000;stroke-width:0.8;" x="57.6" xlink:href="#m3f69b33651" y="202.07512"/>
      </g>
     </g>
     <g id="text_11">
      <!-- −60 -->
      <g transform="translate(29.495313 205.874339)scale(0.1 -0.1)">
       <use xlink:href="#DejaVuSans-2212"/>
       <use x="83.789062" xlink:href="#DejaVuSans-36"/>
       <use x="147.412109" xlink:href="#DejaVuSans-30"/>
      </g>
     </g>
    </g>
    <g id="ytick_4">
     <g id="line2d_12">
      <g>
       <use style="stroke:#000000;stroke-width:0.8;" x="57.6" xlink:href="#m3f69b33651" y="159.4465"/>
      </g>
     </g>
     <g id="text_12">
      <!-- −40 -->
      <g transform="translate(29.495313 163.245719)scale(0.1 -0.1)">
       <use xlink:href="#DejaVuSans-2212"/>
       <use x="83.789062" xlink:href="#DejaVuSans-34"/>
       <use x="147.412109" xlink:href="#DejaVuSans-30"/>
      </g>
     </g>
    </g>
    <g id="ytick_5">
     <g id="line2d_13">
      <g>
       <use style="stroke:#000000;stroke-width:0.8;" x="57.6" xlink:href="#m3f69b33651" y="116.817879"/>
      </g>
     </g>
     <g id="text_13">
      <!-- −20 -->
      <g transform="translate(29.495313 120.617098)scale(0.1 -0.1)">
       <use xlink:href="#DejaVuSans-2212"/>
       <use x="83.789062" xlink:href="#DejaVuSans-32"/>
       <use x="147.412109" xlink:href="#DejaVuSans-30"/>
      </g>
     </g>
    </g>
    <g id="ytick_6">
     <g id="line2d_14">
      <g>
       <use style="stroke:#000000;stroke-width:0.8;" x="57.6" xlink:href="#m3f69b33651" y="74.189259"/>
      </g>
     </g>
     <g id="text_14">
      <!-- 0 -->
      <g transform="translate(44.2375 77.988478)scale(0.1 -0.1)">
       <use xlink:href="#DejaVuSans-30"/>
      </g>
     </g>
    </g>
   </g>
   <g id="line2d_15">
    <path clip-path="url(#paba9eee450)" d="M 73.832727 193.918968 
L 74.26763 193.953007 
L 75.137434 193.779433 
L 75.789787 193.687957 
L 76.442141 193.515174 
L 77.311945 193.591242 
L 78.18175 193.524437 
L 78.399201 193.314307 
L 78.616652 193.375871 
L 78.834103 193.206629 
L 79.051555 193.48743 
L 79.921359 203.857971 
L 80.791164 210.631763 
L 82.313322 220.517485 
L 84.052931 230.765155 
L 86.227442 242.107497 
L 89.70666 258.069773 
L 93.185878 271.500738 
L 94.925487 277.182329 
L 96.447645 281.349548 
L 96.882548 282.022 
L 98.839608 286.626794 
L 100.361766 289.397564 
L 103.623533 293.471228 
L 105.580593 295.064238 
L 106.667849 295.488 
L 107.320202 295.424754 
L 107.755104 295.316035 
L 108.624909 295.285692 
L 109.929616 294.919176 
L 110.364518 294.61152 
L 110.79942 294.474985 
L 111.669225 293.851283 
L 112.104127 293.676294 
L 112.539029 293.322983 
L 112.973932 293.072595 
L 114.061187 292.202425 
L 114.278638 292.096934 
L 115.365894 291.030528 
L 115.800796 290.603585 
L 116.235699 290.105995 
L 116.670601 289.764565 
L 117.757857 288.498218 
L 119.497466 286.593252 
L 119.932368 286.083761 
L 120.36727 285.695053 
L 121.454526 284.361486 
L 124.933744 280.335155 
L 125.803549 279.238879 
L 127.760609 277.004407 
L 128.195511 276.594391 
L 129.282767 275.255228 
L 130.804925 273.448335 
L 132.544534 271.932153 
L 133.414338 270.922165 
L 134.066692 270.37238 
L 136.458654 268.299296 
L 137.111008 267.716713 
L 139.285519 265.727909 
L 139.720421 265.416306 
L 140.155324 264.912962 
L 141.025128 264.285505 
L 141.46003 263.770185 
L 142.112384 263.342377 
L 142.982188 262.562 
L 143.851993 261.744341 
L 144.721797 260.931384 
L 145.1567 260.29278 
L 145.591602 259.912992 
L 146.461407 259.454491 
L 147.11376 259.093452 
L 147.983565 258.320377 
L 148.635918 257.95704 
L 149.288271 257.68636 
L 150.158076 257.153955 
L 150.592978 257.1086 
L 151.245332 256.774775 
L 152.550038 256.297063 
L 153.202392 256.05404 
L 153.637294 255.812534 
L 154.507099 255.56759 
L 155.159452 255.229333 
L 156.029257 254.833504 
L 156.464159 254.771195 
L 156.899061 254.661587 
L 157.986317 254.371937 
L 159.291024 253.80309 
L 159.725926 253.506189 
L 160.59573 253.006937 
L 161.030633 252.9356 
L 161.682986 252.742121 
L 165.162204 252.295229 
L 165.597106 252.138076 
L 166.24946 252.059716 
L 168.423971 251.679729 
L 168.858874 251.552897 
L 169.293776 251.419921 
L 169.946129 251.236987 
L 170.381031 251.044516 
L 171.033385 251.073758 
L 174.077701 250.504783 
L 174.295152 250.572636 
L 176.252212 250.175019 
L 177.339468 250.114277 
L 177.77437 249.979596 
L 178.209272 250.126141 
L 179.513979 249.99235 
L 180.166333 249.836741 
L 180.818686 249.854155 
L 181.471039 249.783507 
L 181.905942 249.796833 
L 182.775746 249.51978 
L 183.4281 249.440907 
L 184.950258 249.175627 
L 185.602611 249.334268 
L 186.907318 248.910911 
L 187.34222 248.765046 
L 188.429476 248.719535 
L 191.038889 248.825542 
L 192.99595 248.82591 
L 193.430852 248.725106 
L 194.95301 248.551744 
L 195.822814 248.505832 
L 196.257717 248.653142 
L 198.649679 248.691439 
L 198.86713 248.581115 
L 200.171837 248.688798 
L 201.259093 248.226694 
L 202.781251 248.121466 
L 202.998702 247.853218 
L 205.608115 248.001471 
L 206.043018 247.971464 
L 207.565176 248.019921 
L 208.652431 247.931711 
L 209.087334 247.896299 
L 211.261845 247.797948 
L 211.914198 247.554116 
L 213.001454 247.567121 
L 214.08871 247.487004 
L 214.741063 247.557818 
L 215.175965 247.422805 
L 215.393417 247.317839 
L 216.04577 247.368156 
L 216.915574 247.355872 
L 218.437732 247.226563 
L 218.872635 247.193854 
L 219.307537 247.321612 
L 219.742439 247.34604 
L 219.95989 247.206839 
L 224.526364 247.285033 
L 224.961267 247.239065 
L 226.048522 247.298578 
L 226.700876 247.205994 
L 228.875387 247.040682 
L 229.310289 247.068236 
L 232.137154 247.092492 
L 232.354605 247.217975 
L 232.572056 247.184863 
L 233.006959 246.768305 
L 234.094214 246.923689 
L 234.746568 247.124237 
L 235.18147 247.204039 
L 235.833823 247.115397 
L 236.268726 247.314092 
L 237.13853 247.305095 
L 238.225786 246.873749 
L 238.660688 246.850747 
L 240.835199 247.084441 
L 241.487553 247.248957 
L 246.70638 248.001338 
L 247.576185 248.198475 
L 248.011087 248.210633 
L 248.445989 248.328695 
L 249.098343 248.230005 
L 249.533245 248.293737 
L 250.185598 248.311645 
L 250.837952 248.364125 
L 252.142658 248.10947 
L 253.012463 248.094639 
L 253.447365 248.044705 
L 253.882268 247.927798 
L 254.752072 247.956807 
L 255.186974 247.868042 
L 255.839328 247.918946 
L 256.491681 247.858899 
L 258.666193 247.764685 
L 261.275606 247.608306 
L 262.145411 247.66603 
L 262.580313 247.53281 
L 263.015215 247.565887 
L 263.667569 247.477008 
L 266.059531 247.276852 
L 267.146787 246.976564 
L 269.103847 247.030255 
L 269.538749 247.012706 
L 270.626005 247.0934 
L 271.278358 247.052598 
L 271.713261 247.032155 
L 272.365614 247.023262 
L 274.540125 246.849633 
L 275.192479 246.592616 
L 275.627381 246.454893 
L 276.932088 246.428273 
L 277.584441 246.446874 
L 278.019344 246.343609 
L 279.32405 246.096636 
L 279.758953 246.217248 
L 280.411306 246.233515 
L 282.585817 246.19106 
L 283.455622 246.317007 
L 283.890524 246.456723 
L 284.107975 246.339176 
L 285.412682 246.478743 
L 287.152291 246.382822 
L 287.587194 246.514009 
L 288.022096 246.519722 
L 289.979156 246.643755 
L 291.936216 246.691652 
L 292.371119 246.579043 
L 292.806021 246.599883 
L 293.675825 246.641576 
L 294.328179 246.665372 
L 294.763081 246.538016 
L 296.285239 246.5392 
L 296.50269 246.27336 
L 297.372495 236.123868 
L 298.45975 228.163912 
L 299.547006 221.262479 
L 300.851713 214.371806 
L 302.15642 208.218162 
L 304.330931 199.165226 
L 305.853089 193.49848 
L 306.287991 192.107469 
L 308.679954 183.464302 
L 308.897405 182.139241 
L 309.114856 181.587178 
L 309.549758 179.301063 
L 309.767209 178.940328 
L 309.984661 176.798304 
L 310.202112 176.80005 
L 310.419563 174.50927 
L 310.637014 174.195844 
L 310.854465 172.695683 
L 311.071916 169.781138 
L 311.289367 170.742431 
L 311.506818 163.421519 
L 311.72427 169.813797 
L 311.941721 135.142689 
L 312.159172 66.596356 
L 312.376623 91.493997 
L 312.594074 142.356592 
L 313.028976 161.972929 
L 313.246428 155.706396 
L 313.463879 154.850709 
L 313.68133 140.42145 
L 313.898781 82.599146 
L 314.116232 66.72192 
L 314.551134 136.94444 
L 314.768586 151.890985 
L 314.986037 156.857337 
L 315.203488 157.407019 
L 315.420939 156.945029 
L 315.63839 153.780531 
L 315.855841 153.529218 
L 316.073292 147.352629 
L 316.290743 147.017697 
L 316.508195 127.452473 
L 316.725646 73.683046 
L 316.943097 66.364799 
L 317.377999 137.615402 
L 317.59545 154.807809 
L 317.812901 161.011961 
L 318.030353 164.035343 
L 318.247804 165.4125 
L 318.465255 164.929097 
L 318.682706 164.791147 
L 319.552511 161.686985 
L 319.769962 161.275978 
L 320.422315 159.127298 
L 320.639766 157.881655 
L 320.857217 157.581987 
L 321.29212 155.668153 
L 321.509571 155.435072 
L 321.727022 153.165008 
L 321.944473 153.859192 
L 322.161924 148.771038 
L 322.379375 150.074634 
L 322.596826 133.104324 
L 322.814278 73.967137 
L 323.031729 64.123804 
L 323.466631 142.949266 
L 323.684082 160.223336 
L 323.901533 166.826196 
L 324.336435 171.439566 
L 324.553887 171.173423 
L 324.771338 171.461749 
L 324.988789 170.467869 
L 325.20624 170.434028 
L 325.641142 169.371041 
L 325.858593 169.450315 
L 326.076045 169.022454 
L 326.293496 168.875261 
L 326.728398 168.333334 
L 327.815654 166.96831 
L 328.033105 166.791335 
L 328.250556 166.432875 
L 328.685458 166.17456 
L 329.555263 165.135154 
L 330.85997 163.293602 
L 331.077421 163.154391 
L 331.729774 162.133686 
L 332.382128 161.125343 
L 332.599579 161.062588 
L 333.251932 160.006607 
L 333.469383 159.338247 
L 333.686834 159.613414 
L 333.904285 158.927216 
L 334.121737 158.892774 
L 334.339188 158.532417 
L 334.556639 157.642267 
L 334.77409 157.986294 
L 334.991541 156.508542 
L 335.208992 157.555225 
L 335.426443 155.596121 
L 335.643895 155.384809 
L 335.861346 153.917563 
L 336.078797 150.280691 
L 336.296248 151.352932 
L 336.73115 58.179648 
L 337.383504 157.356889 
L 337.600955 168.552742 
L 338.035857 174.172929 
L 338.253308 174.268232 
L 338.470759 174.717528 
L 338.68821 174.77646 
L 338.905662 174.369189 
L 339.123113 174.817344 
L 339.340564 174.22135 
L 339.558015 174.539779 
L 339.992917 174.275077 
L 340.210368 174.468183 
L 340.42782 174.307943 
L 340.645271 174.387201 
L 340.862722 174.243981 
L 341.297624 174.363156 
L 341.515075 174.32788 
L 341.732526 174.476985 
L 342.602331 174.407462 
L 343.472135 174.321911 
L 345.429196 174.842981 
L 345.864098 174.793946 
L 346.951354 175.026849 
L 347.386256 175.298813 
L 348.473512 175.366763 
L 348.908414 175.315974 
L 349.560767 175.264481 
L 350.430572 175.175619 
L 350.865474 175.378888 
L 351.300376 175.38275 
L 353.474888 176.069349 
L 354.127241 176.086223 
L 355.431948 176.444056 
L 355.649399 176.622194 
L 356.736655 176.652077 
L 357.171557 176.697498 
L 358.041362 176.941816 
L 358.476264 177.15567 
L 358.911166 177.100869 
L 359.346068 177.318104 
L 359.780971 177.359419 
L 360.650775 177.625037 
L 361.085677 177.62965 
L 361.303129 177.564075 
L 362.825286 178.041436 
L 363.695091 178.399513 
L 364.129993 178.427436 
L 364.564896 178.530029 
L 364.782347 178.530978 
L 364.999798 178.686506 
L 366.521956 178.842211 
L 368.261565 179.093954 
L 368.696467 179.198134 
L 369.566272 179.439248 
L 371.740783 179.847522 
L 372.175685 179.792368 
L 372.610588 179.830549 
L 372.828039 179.986344 
L 373.480392 180.060092 
L 373.915294 180.250468 
L 374.350197 180.279842 
L 374.785099 180.52005 
L 375.654903 180.758051 
L 375.872355 180.690941 
L 376.524708 180.895321 
L 377.394513 180.997416 
L 380.003926 181.565313 
L 380.438828 181.689012 
L 381.091182 181.883872 
L 382.178438 182.313625 
L 382.830791 182.328485 
L 383.265693 182.254105 
L 383.918047 182.538006 
L 384.135498 182.50325 
L 386.310009 183.57118 
L 386.962363 183.762425 
L 387.397265 183.933942 
L 387.832167 184.013789 
L 389.354325 184.205216 
L 389.789227 184.47847 
L 390.659032 184.448404 
L 393.703348 185.198619 
L 394.13825 185.166267 
L 395.442957 185.62199 
L 398.487273 186.237269 
L 398.487273 186.237269 
" style="fill:none;stroke:#000000;stroke-linecap:square;stroke-width:1.5;"/>
   </g>
   <g id="line2d_16">
    <path clip-path="url(#paba9eee450)" d="M 73.832727 197.167274 
L 74.485081 197.055216 
L 75.137434 196.997949 
L 76.22469 196.938176 
L 76.877043 196.7569 
L 77.311945 196.468486 
L 77.746848 196.379453 
L 78.18175 196.189687 
L 78.834103 196.048529 
L 79.051555 196.137558 
L 80.13881 200.658691 
L 80.791164 202.492204 
L 82.748224 207.207551 
L 83.183126 208.190029 
L 83.83548 209.671291 
L 85.140186 212.327983 
L 86.009991 214.067547 
L 86.662344 215.239505 
L 88.836856 218.86697 
L 90.141562 220.852984 
L 90.793916 221.910279 
L 92.316074 223.827844 
L 93.403329 225.0231 
L 94.055683 225.620002 
L 94.925487 226.650501 
L 97.752352 229.427475 
L 98.839608 230.194737 
L 100.144315 230.821168 
L 101.23157 231.609782 
L 101.449021 231.657913 
L 102.318826 232.385544 
L 104.710789 233.944157 
L 104.92824 234.029463 
L 105.580593 234.506933 
L 106.8853 235.056019 
L 107.537653 235.304961 
L 110.364518 236.573192 
L 110.79942 236.695924 
L 111.234323 236.828461 
L 113.843736 237.728982 
L 114.061187 237.757542 
L 114.49609 237.678645 
L 115.148443 237.836676 
L 115.583345 237.831581 
L 116.235699 238.073398 
L 116.670601 238.109099 
L 117.540406 238.206916 
L 117.975308 237.968683 
L 118.192759 237.780645 
L 118.627661 237.854174 
L 119.714917 238.151294 
L 120.149819 238.292861 
L 120.584721 238.325854 
L 120.802173 238.445018 
L 122.324331 238.409477 
L 122.976684 238.489547 
L 123.629037 238.486395 
L 125.368646 238.095539 
L 125.803549 238.004577 
L 126.673353 237.598817 
L 127.108255 237.466595 
L 128.412962 237.193193 
L 129.282767 237.013984 
L 129.93512 237.044474 
L 130.370023 237.007352 
L 130.804925 236.959231 
L 131.239827 236.707075 
L 131.674729 236.625202 
L 132.109632 236.619853 
L 132.544534 236.3575 
L 132.979436 235.946588 
L 134.501594 235.58448 
L 134.936496 235.535861 
L 135.371399 235.347743 
L 137.54591 234.980035 
L 137.980812 234.863778 
L 138.415715 234.778049 
L 139.50297 234.374132 
L 140.155324 234.173486 
L 141.025128 233.989843 
L 141.46003 234.149805 
L 141.894933 233.957921 
L 142.112384 234.002552 
L 142.547286 233.857581 
L 142.982188 233.782668 
L 143.851993 233.491477 
L 144.504346 233.330372 
L 147.766113 232.573983 
L 148.418467 232.292313 
L 148.853369 232.251551 
L 149.505722 232.091834 
L 150.158076 231.837421 
L 151.02788 231.394121 
L 152.115136 231.045416 
L 155.159452 230.520912 
L 155.594354 230.30948 
L 156.246708 230.168624 
L 157.333963 229.928881 
L 159.508475 228.977016 
L 159.943377 228.873627 
L 162.770242 228.207404 
L 165.597106 227.900524 
L 166.032009 227.924258 
L 166.466911 227.872048 
L 166.901813 227.889544 
L 167.989069 227.52691 
L 168.423971 227.432273 
L 168.858874 227.210601 
L 170.598483 226.709797 
L 172.555543 226.59242 
L 174.077701 226.301659 
L 174.512603 226.321449 
L 176.252212 225.697097 
L 177.122017 225.40383 
L 179.513979 225.018929 
L 179.948881 224.956056 
L 180.601235 224.815817 
L 182.340844 224.535022 
L 182.775746 224.49633 
L 183.863002 224.082479 
L 184.297904 224.073993 
L 184.732806 224.051416 
L 185.167709 224.021936 
L 187.777122 223.664642 
L 188.212025 223.523779 
L 188.864378 223.433239 
L 190.169085 223.024743 
L 190.603987 222.767124 
L 192.561047 222.420165 
L 192.99595 222.419228 
L 196.475168 222.421001 
L 196.91007 222.525383 
L 200.171837 222.576059 
L 200.606739 222.488664 
L 201.476544 222.432621 
L 202.128897 222.310817 
L 206.912822 222.396257 
L 209.522236 222.311684 
L 209.957138 222.20418 
L 210.609492 222.27015 
L 211.261845 222.316322 
L 211.914198 222.345004 
L 212.349101 222.257961 
L 214.306161 222.300636 
L 214.523612 222.368322 
L 215.175965 222.315103 
L 216.915574 222.330734 
L 217.350477 222.29662 
L 217.785379 222.349171 
L 221.482048 221.919017 
L 221.916951 221.896626 
L 222.351853 221.725104 
L 222.786755 221.77972 
L 223.65656 221.462199 
L 225.831071 221.505858 
L 226.265973 221.570815 
L 228.223034 221.036037 
L 228.440485 221.095508 
L 228.875387 221.037624 
L 229.962643 220.969856 
L 230.397545 221.010505 
L 231.267349 221.271744 
L 231.702252 221.054509 
L 232.137154 221.179095 
L 232.572056 220.975896 
L 233.006959 221.0018 
L 233.659312 220.95277 
L 234.094214 220.88528 
L 234.964019 220.951002 
L 236.486177 220.868757 
L 238.008335 220.513926 
L 238.660688 220.287864 
L 239.09559 220.326373 
L 239.965395 220.265144 
L 244.096966 220.038401 
L 245.184222 220.288287 
L 246.054027 220.174473 
L 249.098343 220.161666 
L 249.533245 220.156493 
L 249.968147 220.285967 
L 250.620501 220.396772 
L 251.490305 220.374001 
L 252.36011 220.333025 
L 252.795012 220.391202 
L 253.447365 220.41876 
L 254.31717 220.688963 
L 255.839328 220.878351 
L 257.361486 220.788607 
L 257.796388 220.870018 
L 258.448741 220.905486 
L 259.753448 220.983564 
L 260.623253 220.687485 
L 262.580313 220.825327 
L 263.015215 220.497976 
L 263.450118 220.439815 
L 264.102471 220.225038 
L 264.537373 220.295154 
L 265.407178 220.072938 
L 267.79914 219.989745 
L 268.668945 219.693036 
L 269.321298 219.496299 
L 269.973652 219.259259 
L 270.843456 219.070403 
L 271.49581 218.705706 
L 272.148163 218.57482 
L 274.540125 218.783463 
L 274.975028 218.840774 
L 275.627381 218.930079 
L 278.019344 219.199423 
L 278.671697 219.31029 
L 279.758953 219.473667 
L 280.411306 219.455718 
L 280.846208 219.425131 
L 281.716013 219.360911 
L 282.150915 219.354378 
L 282.585817 219.406097 
L 283.238171 219.318849 
L 283.455622 219.391118 
L 283.890524 219.314033 
L 284.325427 219.472465 
L 284.97778 219.372072 
L 285.847584 219.210209 
L 286.282487 219.332826 
L 286.717389 219.479096 
L 287.152291 219.553044 
L 287.587194 219.633154 
L 288.456998 219.513701 
L 288.8919 219.555054 
L 289.326803 219.703358 
L 289.761705 219.606349 
L 290.414058 219.693909 
L 291.283863 219.790433 
L 291.936216 219.772832 
L 292.153667 219.843033 
L 292.58857 219.613544 
L 293.023472 219.630021 
L 293.458374 219.652496 
L 294.54563 219.823398 
L 296.50269 219.920346 
L 297.372495 215.877034 
L 298.45975 212.567395 
L 298.894653 211.487955 
L 300.199359 208.165251 
L 300.851713 206.724771 
L 302.373871 203.197622 
L 303.461126 200.961104 
L 306.505442 195.996768 
L 306.940345 195.334672 
L 307.592698 194.376341 
L 308.0276 193.781639 
L 308.462503 193.316117 
L 310.202112 191.074559 
L 310.854465 190.19273 
L 312.811525 187.798246 
L 315.855841 184.661496 
L 316.290743 184.23055 
L 318.900157 181.38593 
L 319.552511 180.795814 
L 319.987413 180.226535 
L 321.074668 178.752603 
L 321.727022 178.053222 
L 323.466631 175.815478 
L 323.901533 174.95593 
L 324.118984 174.7022 
L 324.336435 174.109245 
L 324.553887 174.050687 
L 324.771338 173.216599 
L 324.988789 172.9078 
L 325.423691 171.660465 
L 325.641142 171.6807 
L 325.858593 170.40218 
L 326.076045 170.832469 
L 326.293496 169.460221 
L 326.728398 168.715059 
L 326.945849 167.112657 
L 327.1633 168.225709 
L 327.380751 164.365264 
L 327.598203 166.902285 
L 327.815654 161.956207 
L 328.033105 163.96279 
L 328.250556 156.078689 
L 328.468007 85.01766 
L 328.685458 68.477406 
L 329.12036 151.45793 
L 329.337812 162.182271 
L 329.555263 164.697293 
L 329.772714 163.263514 
L 329.990165 162.595232 
L 330.642518 157.789212 
L 331.294872 145.927034 
L 331.729774 59.133142 
L 332.164676 135.969897 
L 332.382128 154.965268 
L 332.599579 163.500404 
L 333.034481 167.129657 
L 333.251932 165.927684 
L 333.469383 165.98864 
L 333.904285 164.599382 
L 334.121737 164.276055 
L 334.339188 163.48723 
L 334.556639 163.306031 
L 335.208992 161.14197 
L 335.426443 160.747999 
L 335.861346 159.578405 
L 336.078797 158.989802 
L 336.296248 157.938103 
L 336.513699 157.900615 
L 336.73115 156.465426 
L 336.948601 157.196995 
L 337.166052 155.046795 
L 337.383504 154.785842 
L 337.600955 153.503449 
L 337.818406 150.53016 
L 338.035857 150.583007 
L 338.470759 58.085191 
L 339.123113 155.137244 
L 339.340564 166.86231 
L 339.775466 173.297456 
L 340.42782 174.078944 
L 340.645271 173.825232 
L 340.862722 174.190878 
L 341.080173 173.63548 
L 341.297624 173.96398 
L 341.732526 173.896993 
L 341.949977 174.026275 
L 342.167429 173.950182 
L 342.38488 174.144853 
L 342.602331 174.079583 
L 342.819782 174.195127 
L 343.689587 174.107747 
L 344.124489 174.091122 
L 344.559391 174.352211 
L 344.776842 174.321904 
L 345.864098 174.676279 
L 346.299 174.583806 
L 347.168805 174.926083 
L 347.821158 175.040637 
L 348.473512 175.382974 
L 348.908414 175.629658 
L 349.560767 175.807399 
L 350.213121 175.931775 
L 350.430572 175.86119 
L 351.300376 176.264408 
L 352.822534 177.214294 
L 353.257437 177.351957 
L 353.474888 177.3348 
L 354.127241 177.693976 
L 354.997046 178.067529 
L 355.431948 178.384232 
L 356.954106 178.472211 
L 357.171557 178.461466 
L 358.258813 179.155659 
L 358.693715 179.30453 
L 359.346068 179.561575 
L 362.172933 180.669526 
L 362.607835 181.188007 
L 364.347444 182.435014 
L 365.652151 183.07095 
L 366.521956 183.071309 
L 367.609211 183.403966 
L 368.261565 183.347684 
L 368.479016 183.3635 
L 368.913918 183.54613 
L 369.348821 183.618439 
L 370.436076 183.888052 
L 370.870979 183.883947 
L 373.480392 184.944159 
L 374.567648 185.060632 
L 374.785099 185.137221 
L 375.437452 185.040977 
L 376.307257 185.520856 
L 376.95961 185.664712 
L 377.829415 185.849845 
L 378.046866 185.815936 
L 378.481768 185.994831 
L 378.916671 186.072203 
L 379.786475 186.405487 
L 380.003926 186.302835 
L 380.65628 186.481171 
L 380.873731 186.580609 
L 383.700596 186.334304 
L 384.352949 186.464571 
L 384.787851 186.717976 
L 386.962363 187.128447 
L 388.267069 187.409596 
L 388.701972 187.533755 
L 388.919423 187.488893 
L 389.571776 187.664818 
L 390.441581 187.721514 
L 390.659032 187.85395 
L 391.311385 187.936512 
L 393.050994 188.279079 
L 393.485897 188.203835 
L 394.355701 188.489826 
L 394.573152 188.418085 
L 395.225506 188.641089 
L 398.487273 189.099623 
L 398.487273 189.099623 
" style="fill:none;stroke:#000000;stroke-linecap:square;stroke-width:1.5;"/>
   </g>
   <g id="line2d_17">
    <path clip-path="url(#paba9eee450)" d="M 73.832727 193.880535 
L 74.26763 193.747929 
L 74.702532 193.802609 
L 77.094494 193.560653 
L 77.746848 193.720839 
L 79.051555 193.633005 
L 79.921359 189.472088 
L 80.791164 186.651933 
L 82.09587 182.862095 
L 83.83548 178.4452 
L 86.444893 171.637726 
L 86.662344 171.27289 
L 86.879795 170.164067 
L 87.097247 170.054121 
L 87.314698 168.703468 
L 87.532149 168.570123 
L 87.967051 166.784257 
L 88.184502 167.246185 
L 88.401953 165.025859 
L 88.619404 166.520199 
L 88.836856 163.386011 
L 89.054307 164.004506 
L 89.271758 162.185586 
L 89.489209 158.907066 
L 89.70666 162.301148 
L 90.141562 60.79322 
L 90.576465 148.135984 
L 91.011367 166.569486 
L 91.228818 164.750175 
L 91.446269 165.909397 
L 91.66372 163.688141 
L 91.881172 163.119008 
L 92.316074 160.363449 
L 93.403329 157.005845 
L 93.620781 155.833004 
L 93.838232 156.230787 
L 94.055683 153.502668 
L 94.273134 154.098473 
L 94.490585 150.085035 
L 94.708036 150.288282 
L 94.925487 141.795872 
L 95.142939 81.668169 
L 95.36039 60.541323 
L 95.795292 142.376517 
L 96.012743 158.458186 
L 96.230194 165.358105 
L 96.665097 168.306513 
L 96.882548 167.402574 
L 97.099999 167.756115 
L 97.31745 166.607921 
L 97.752352 166.016765 
L 97.969803 165.117525 
L 98.187254 165.054878 
L 98.404706 164.192168 
L 99.27451 163.2294 
L 99.491961 162.657006 
L 99.709412 162.456302 
L 100.144315 161.429412 
L 100.361766 161.150561 
L 100.579217 160.529077 
L 100.796668 160.325316 
L 101.014119 159.47691 
L 101.23157 159.394169 
L 101.666473 158.039329 
L 101.883924 158.014565 
L 102.101375 156.484434 
L 102.318826 156.346357 
L 102.536277 154.625464 
L 102.753728 154.877538 
L 103.188631 151.773899 
L 103.406082 152.141812 
L 103.623533 146.635965 
L 103.840984 150.122526 
L 104.058435 115.924428 
L 104.275886 59.033534 
L 104.493337 79.697969 
L 104.710789 128.093892 
L 105.145691 163.193599 
L 105.580593 168.869656 
L 105.798044 169.147028 
L 106.015495 168.578924 
L 106.232946 168.705923 
L 106.450398 167.686717 
L 106.667849 167.977011 
L 106.8853 167.302368 
L 107.102751 167.209962 
L 107.320202 166.921091 
L 107.537653 166.343321 
L 107.755104 166.339619 
L 107.972556 165.823905 
L 108.190007 165.618325 
L 109.059811 164.241754 
L 109.494714 163.860501 
L 110.364518 162.834071 
L 112.539029 158.815042 
L 112.973932 157.581998 
L 113.408834 156.280939 
L 113.626285 156.466326 
L 113.843736 155.129134 
L 114.061187 155.253156 
L 114.278638 154.251915 
L 114.49609 153.971908 
L 114.713541 153.370452 
L 114.930992 151.10732 
L 115.148443 151.816116 
L 115.365894 146.752165 
L 115.583345 150.123662 
L 115.800796 125.205841 
L 116.018248 64.391904 
L 116.235699 68.399948 
L 116.670601 145.096651 
L 116.888052 160.561742 
L 117.322954 168.828612 
L 117.540406 170.292368 
L 117.757857 170.051067 
L 117.975308 170.341419 
L 118.192759 169.323915 
L 118.41021 169.453842 
L 118.845112 168.477795 
L 119.062563 168.406899 
L 119.280015 168.019378 
L 119.497466 168.102589 
L 119.714917 167.789086 
L 119.932368 167.713897 
L 120.584721 166.954885 
L 121.019624 166.553174 
L 121.671977 166.109564 
L 122.324331 165.727515 
L 124.933744 163.065085 
L 125.586098 162.554311 
L 126.021 162.104559 
L 127.108255 160.561233 
L 127.543158 160.119928 
L 128.412962 159.698192 
L 129.93512 158.255695 
L 131.022376 156.227193 
L 131.239827 155.425347 
L 131.457278 155.329671 
L 131.674729 154.549343 
L 131.89218 154.382913 
L 132.109632 153.848077 
L 132.327083 152.882694 
L 132.544534 152.87256 
L 132.761985 151.476941 
L 132.979436 152.22949 
L 133.196887 150.451989 
L 133.414338 150.278177 
L 134.066692 145.633664 
L 134.501594 54.912367 
L 135.153948 153.067657 
L 135.371399 164.261445 
L 135.806301 169.708721 
L 136.241203 170.391556 
L 136.458654 170.314604 
L 136.676105 169.949705 
L 136.893557 169.988155 
L 137.111008 169.219153 
L 137.328459 169.268799 
L 137.980812 168.336266 
L 138.198263 167.976227 
L 138.415715 167.866728 
L 138.633166 167.451755 
L 139.068068 167.25759 
L 139.285519 167.031854 
L 139.937872 166.817572 
L 140.372775 166.460908 
L 141.025128 166.121657 
L 141.46003 165.885496 
L 142.547286 165.846021 
L 143.19964 165.608702 
L 143.634542 165.510388 
L 144.504346 165.069109 
L 145.591602 163.966839 
L 145.809053 163.815722 
L 146.243955 163.760851 
L 147.11376 162.96223 
L 147.548662 162.711248 
L 148.418467 161.174522 
L 148.853369 160.857772 
L 149.723174 159.726708 
L 150.158076 159.483179 
L 151.897685 157.489655 
L 152.984941 155.424813 
L 153.202392 155.297927 
L 153.419843 154.853115 
L 153.637294 154.733768 
L 153.854745 154.475316 
L 154.072196 153.988424 
L 154.289647 153.903674 
L 154.507099 153.116726 
L 154.72455 153.342665 
L 155.376903 151.476199 
L 155.594354 150.216076 
L 155.811805 150.715439 
L 156.029257 148.146396 
L 156.246708 148.266953 
L 156.899061 139.56967 
L 157.333963 54.985379 
L 157.986317 152.853414 
L 158.203768 163.308649 
L 158.63867 170.601995 
L 159.073572 172.06768 
L 159.508475 171.92567 
L 159.725926 172.254474 
L 159.943377 171.927217 
L 160.160828 172.095494 
L 160.378279 171.940445 
L 160.813182 171.8961 
L 161.465535 171.471072 
L 162.117888 171.384616 
L 162.552791 171.110711 
L 162.987693 170.96283 
L 163.640046 170.743076 
L 164.2924 170.396875 
L 164.509851 170.391553 
L 165.597106 169.581036 
L 166.466911 169.163961 
L 166.901813 168.95893 
L 167.119264 168.989215 
L 167.554167 168.801257 
L 168.20652 168.781564 
L 168.641422 168.664389 
L 169.076325 168.506744 
L 172.338092 167.40359 
L 172.772994 167.170518 
L 172.990445 167.199676 
L 173.425347 167.095788 
L 174.512603 166.912929 
L 175.81731 166.184013 
L 176.687114 165.937868 
L 176.904566 165.716968 
L 177.991821 165.466407 
L 178.644175 164.975586 
L 179.73143 164.086011 
L 180.601235 163.634745 
L 181.036137 163.271326 
L 181.688491 162.893022 
L 182.558295 162.121087 
L 183.210648 161.832951 
L 183.645551 161.397476 
L 184.080453 161.300573 
L 184.515355 160.88129 
L 185.820062 160.078507 
L 186.472416 159.622414 
L 187.34222 159.604622 
L 187.559671 159.500606 
L 188.646927 158.157658 
L 189.29928 157.743208 
L 189.951634 157.089251 
L 190.603987 156.518126 
L 191.473792 155.621829 
L 191.908694 154.98441 
L 192.126145 155.050368 
L 192.343596 154.53362 
L 192.561047 154.410983 
L 192.99595 153.396422 
L 193.213401 153.434188 
L 193.430852 152.338155 
L 193.648303 152.472842 
L 193.865754 151.1564 
L 194.083205 151.109331 
L 194.518108 148.086329 
L 194.735559 148.165508 
L 194.95301 143.986666 
L 195.170461 145.831787 
L 195.387912 112.077931 
L 195.605363 58.024055 
L 195.822814 73.069647 
L 196.257717 146.911809 
L 196.475168 161.606025 
L 196.91007 170.439361 
L 197.127521 171.89053 
L 197.562423 172.981434 
L 197.779875 172.675268 
L 197.997326 173.240025 
L 198.214777 173.042259 
L 198.649679 173.370726 
L 198.86713 173.286793 
L 199.084581 173.460153 
L 199.302033 173.279295 
L 199.954386 173.381385 
L 202.781251 172.862398 
L 203.433604 172.474678 
L 203.868506 172.30381 
L 204.738311 172.052477 
L 205.825567 171.6585 
L 206.260469 171.357548 
L 207.130273 171.189973 
L 207.347725 171.003758 
L 208.000078 170.992022 
L 208.869882 170.893303 
L 210.609492 170.072673 
L 211.044394 169.841091 
L 211.261845 169.554209 
L 211.914198 169.35457 
L 212.349101 169.187761 
L 212.784003 168.802848 
L 213.871259 168.147339 
L 214.741063 167.398681 
L 215.393417 167.359089 
L 215.828319 167.304399 
L 216.263221 167.267352 
L 216.698123 167.155112 
L 217.350477 166.947793 
L 218.00283 166.899077 
L 218.655184 166.525711 
L 219.307537 166.500139 
L 220.829695 166.226406 
L 221.916951 165.52949 
L 222.351853 165.438043 
L 222.569304 165.480304 
L 223.004206 165.354358 
L 223.221657 165.336971 
L 223.65656 165.082222 
L 224.091462 164.847229 
L 224.526364 164.536538 
L 224.961267 164.169635 
L 226.483424 163.635904 
L 227.353229 163.096007 
L 228.657936 162.868577 
L 228.875387 162.764509 
L 229.310289 162.271202 
L 230.180094 162.06346 
L 231.049898 161.436299 
L 232.137154 160.624667 
L 232.572056 160.187491 
L 233.22441 159.875382 
L 233.659312 159.905772 
L 233.876763 159.819723 
L 234.311665 159.416432 
L 235.833823 158.477781 
L 236.268726 157.839439 
L 237.355981 156.586455 
L 237.573432 156.418543 
L 238.443237 155.349615 
L 238.878139 155.068614 
L 239.09559 154.933082 
L 239.313041 154.652701 
L 239.530493 154.612525 
L 241.052651 152.700355 
L 241.270102 151.903492 
L 241.487553 151.534377 
L 241.705004 151.449403 
L 241.922455 150.486697 
L 242.139906 150.621314 
L 242.357357 149.086492 
L 242.574809 149.422955 
L 243.009711 146.684401 
L 243.227162 145.916739 
L 243.444613 141.483512 
L 243.662064 143.077806 
L 244.096966 55.692726 
L 244.314418 77.625262 
L 244.74932 148.949216 
L 244.966771 162.592489 
L 245.401673 170.430746 
L 245.836576 171.979424 
L 246.054027 172.510449 
L 246.271478 172.337552 
L 246.488929 173.01674 
L 246.70638 172.784297 
L 246.923831 173.128244 
L 247.358733 173.321828 
L 247.576185 173.659451 
L 247.793636 173.528782 
L 248.011087 173.676148 
L 248.445989 173.463587 
L 249.750696 173.042864 
L 250.620501 172.721473 
L 251.055403 172.672585 
L 251.490305 172.720992 
L 252.577561 172.317812 
L 253.447365 171.768163 
L 254.31717 171.880024 
L 254.752072 172.025835 
L 255.404426 171.834027 
L 256.709132 170.535989 
L 257.144035 170.402983 
L 257.796388 170.371112 
L 258.23129 170.222119 
L 258.448741 170.284993 
L 262.145411 169.319859 
L 262.580313 169.050489 
L 262.797764 169.063176 
L 263.450118 168.824235 
L 263.88502 168.71498 
L 266.276982 168.112217 
L 267.146787 167.999395 
L 269.538749 166.390555 
L 269.973652 166.224058 
L 271.278358 165.070424 
L 273.670321 164.120955 
L 274.105223 164.09252 
L 274.540125 163.960645 
L 274.975028 163.656108 
L 275.40993 163.331993 
L 275.627381 163.26953 
L 275.844832 163.363772 
L 276.932088 163.054972 
L 278.019344 162.681848 
L 278.671697 162.079142 
L 279.32405 162.044807 
L 280.411306 162.478347 
L 281.498562 161.855299 
L 281.933464 162.043566 
L 282.150915 162.012366 
L 282.585817 162.208811 
L 282.803269 162.117394 
L 284.107975 162.362263 
L 284.542878 162.217122 
L 284.760329 162.166374 
L 284.97778 161.943938 
L 285.412682 161.78661 
L 285.847584 161.385755 
L 286.499938 161.223959 
L 286.93484 161.103693 
L 287.369742 160.827298 
L 288.456998 160.84943 
L 289.326803 160.428897 
L 289.979156 160.014345 
L 290.414058 159.566137 
L 292.371119 157.56284 
L 293.675825 156.519592 
L 294.328179 155.784995 
L 294.980532 154.961066 
L 295.197983 154.844051 
L 296.50269 152.516735 
L 296.720141 152.830677 
L 297.372495 154.583871 
L 298.45975 156.611387 
L 299.112104 157.486063 
L 302.373871 164.804548 
L 304.983284 172.051395 
L 306.722894 176.503792 
L 309.767209 182.609451 
L 312.159172 186.061505 
L 312.594074 186.438704 
L 312.811525 186.631821 
L 313.246428 187.237891 
L 313.68133 187.696474 
L 315.855841 189.883403 
L 317.160548 191.048123 
L 317.59545 191.527185 
L 318.030353 192.070262 
L 318.900157 193.007596 
L 319.552511 193.71012 
L 321.509571 194.712282 
L 321.944473 195.277556 
L 324.988789 197.365514 
L 325.423691 197.572969 
L 326.076045 197.804929 
L 326.945849 198.343042 
L 328.033105 198.774309 
L 329.12036 199.242758 
L 329.337812 199.241272 
L 329.772714 199.384212 
L 329.990165 199.264798 
L 330.85997 199.365213 
L 331.729774 199.675766 
L 332.164676 199.719901 
L 332.81703 199.896807 
L 333.469383 200.104241 
L 333.904285 200.271896 
L 334.339188 200.196672 
L 334.991541 200.158999 
L 335.861346 199.89794 
L 336.296248 199.955927 
L 338.035857 199.607852 
L 338.253308 199.69269 
L 339.558015 199.371992 
L 341.732526 199.520714 
L 342.602331 199.353976 
L 343.037233 199.228656 
L 343.472135 199.319411 
L 345.211745 199.212826 
L 346.951354 199.201851 
L 349.995669 199.012728 
L 350.648023 198.799705 
L 351.300376 198.696726 
L 351.735279 198.647697 
L 352.170181 198.782426 
L 352.605083 198.654544 
L 353.692339 198.80372 
L 357.82391 197.886211 
L 358.693715 197.939364 
L 359.346068 197.913674 
L 360.433324 197.73118 
L 360.868226 197.592494 
L 361.52058 197.451145 
L 363.47764 197.263206 
L 363.912542 197.398322 
L 365.4347 197.121681 
L 366.739407 197.39533 
L 367.39176 197.376726 
L 367.826663 197.516355 
L 368.479016 197.484536 
L 370.001174 197.592308 
L 370.653527 197.450009 
L 371.740783 197.319041 
L 372.175685 197.279626 
L 373.262941 197.060361 
L 374.350197 197.017503 
L 378.481768 197.041419 
L 379.351573 197.009733 
L 379.786475 196.733882 
L 380.221377 196.40805 
L 381.308633 196.163077 
L 382.395889 196.192824 
L 383.048242 196.117827 
L 383.483144 196.193475 
L 384.135498 195.858883 
L 384.352949 195.771919 
L 384.787851 195.832901 
L 386.52746 195.687331 
L 387.179814 195.530944 
L 387.614716 195.305458 
L 389.789227 195.551144 
L 390.22413 195.633312 
L 391.093934 195.637731 
L 391.746288 195.888068 
L 392.18119 195.830957 
L 393.050994 195.955708 
L 396.312761 196.302636 
L 396.965115 196.426885 
L 398.269822 196.406311 
L 398.487273 196.396656 
L 398.487273 196.396656 
" style="fill:none;stroke:#000000;stroke-linecap:square;stroke-width:1.5;"/>
   </g>
   <g id="line2d_18">
    <path clip-path="url(#paba9eee450)" d="M 73.832727 200.083019 
L 75.572336 199.994962 
L 75.789787 200.100221 
L 76.877043 200.088778 
L 77.094494 199.832396 
L 77.311945 200.014031 
L 77.746848 199.780874 
L 77.964299 199.91312 
L 78.18175 199.537102 
L 78.399201 200.116681 
L 78.616652 199.475014 
L 78.834103 200.135177 
L 79.051555 199.548874 
L 79.703908 182.551526 
L 80.573712 168.815019 
L 80.791164 164.099472 
L 81.008615 163.7791 
L 81.226066 155.462679 
L 81.443517 159.883865 
L 81.660968 125.02946 
L 81.878419 57.818939 
L 82.09587 80.424442 
L 82.313322 127.638051 
L 82.748224 151.73026 
L 82.965675 148.520844 
L 83.183126 148.577608 
L 83.400577 142.323144 
L 83.618028 139.368916 
L 83.83548 122.887819 
L 84.052931 68.496636 
L 84.270382 58.286809 
L 84.705284 122.34773 
L 84.922735 136.334176 
L 85.140186 141.267133 
L 85.357637 142.001422 
L 85.575089 141.56557 
L 85.79254 137.950579 
L 86.009991 136.275727 
L 86.444893 129.140101 
L 86.662344 121.35283 
L 87.097247 53.568 
L 87.314698 71.324575 
L 87.7496 122.96739 
L 87.967051 134.960936 
L 88.184502 139.342826 
L 88.401953 141.229405 
L 88.619404 140.604202 
L 89.054307 137.308434 
L 89.924111 124.972301 
L 90.141562 116.910358 
L 90.576465 54.390788 
L 90.793916 64.555991 
L 91.228818 117.583867 
L 91.446269 131.526345 
L 91.881172 140.773633 
L 92.098623 141.157889 
L 92.316074 140.523296 
L 92.750976 136.994261 
L 93.185878 132.117655 
L 93.620781 124.966438 
L 93.838232 116.787249 
L 94.273134 58.469413 
L 94.490585 58.430185 
L 95.142939 127.231285 
L 95.36039 135.798131 
L 95.577841 139.936539 
L 95.795292 141.39088 
L 96.012743 141.034801 
L 96.230194 139.804278 
L 96.882548 133.24758 
L 97.752352 120.379394 
L 97.969803 109.267877 
L 98.404706 55.108068 
L 98.622157 67.009028 
L 99.057059 116.791453 
L 99.491961 136.923583 
L 99.709412 140.513974 
L 99.926864 141.452192 
L 100.144315 141.428014 
L 100.579217 138.746794 
L 101.014119 135.012447 
L 101.449021 130.371007 
L 101.883924 123.800875 
L 102.101375 119.681915 
L 102.318826 109.425809 
L 102.753728 55.172555 
L 102.971179 64.169257 
L 103.406082 115.932791 
L 103.840984 137.98801 
L 104.058435 141.639218 
L 104.275886 142.370951 
L 104.493337 141.914756 
L 104.710789 140.871038 
L 105.580593 133.68604 
L 106.232946 126.951114 
L 106.450398 123.835276 
L 106.667849 118.863994 
L 106.8853 103.343935 
L 107.320202 54.48276 
L 107.537653 65.756119 
L 107.972556 116.31829 
L 108.407458 137.656703 
L 108.624909 140.932442 
L 108.84236 141.915708 
L 109.059811 141.798652 
L 109.277262 140.980589 
L 109.929616 136.432609 
L 110.79942 127.247483 
L 111.234323 119.959108 
L 111.451774 114.091055 
L 112.104127 56.248904 
L 112.973932 133.503331 
L 113.191383 139.079269 
L 113.408834 141.376375 
L 113.626285 141.95895 
L 113.843736 141.420159 
L 114.49609 136.957547 
L 115.365894 128.632947 
L 115.800796 122.129805 
L 116.018248 118.173268 
L 116.235699 110.326901 
L 116.670601 61.030581 
L 116.888052 58.321988 
L 117.757857 133.117563 
L 117.975308 138.585633 
L 118.192759 140.741624 
L 118.41021 141.525115 
L 118.627661 141.36995 
L 119.062563 139.82436 
L 119.497466 137.295052 
L 120.584721 127.707766 
L 121.019624 122.200103 
L 121.237075 118.794153 
L 121.454526 111.640692 
L 122.106879 56.99892 
L 122.324331 70.8236 
L 122.759233 116.804946 
L 123.194135 137.11223 
L 123.411586 140.232367 
L 123.629037 141.329792 
L 123.846488 141.285414 
L 124.06394 140.594896 
L 124.716293 136.750737 
L 125.586098 130.167573 
L 126.238451 123.110338 
L 126.673353 115.141936 
L 126.890804 104.16215 
L 127.325707 58.293812 
L 127.543158 61.28535 
L 128.195511 123.496697 
L 128.630413 138.721596 
L 128.847865 141.281646 
L 129.065316 142.23405 
L 129.282767 141.985041 
L 129.717669 139.911562 
L 130.587474 133.874782 
L 131.457278 126.520319 
L 132.109632 117.404353 
L 132.327083 112.367129 
L 132.544534 97.317731 
L 132.979436 56.737995 
L 133.196887 65.272865 
L 133.849241 125.801749 
L 134.284143 138.680499 
L 134.501594 140.642923 
L 134.719045 140.977438 
L 134.936496 140.546755 
L 135.806301 136.481031 
L 136.893557 128.827132 
L 137.763361 120.735015 
L 138.198263 113.595123 
L 138.415715 106.57675 
L 138.850617 62.381364 
L 139.068068 58.786307 
L 140.155324 135.891051 
L 140.372775 139.533352 
L 140.590226 141.12604 
L 140.807677 141.467615 
L 141.025128 141.120885 
L 141.46003 139.430769 
L 141.894933 136.825604 
L 142.982188 128.880265 
L 143.634542 122.322868 
L 144.069444 115.379927 
L 144.286895 109.241672 
L 144.939249 58.189034 
L 145.1567 68.54471 
L 145.809053 124.941437 
L 146.243955 137.085069 
L 146.461407 139.048715 
L 146.678858 139.634783 
L 146.896309 139.400277 
L 147.548662 136.440527 
L 148.418467 131.385116 
L 149.288271 124.468172 
L 149.723174 120.235283 
L 150.158076 113.792892 
L 150.375527 107.893643 
L 151.02788 61.853363 
L 151.245332 66.186258 
L 152.115136 125.755073 
L 152.550038 134.420054 
L 152.767489 135.67518 
L 152.984941 135.926952 
L 153.202392 135.555722 
L 153.854745 133.33133 
L 154.507099 129.912784 
L 155.159452 125.330375 
L 155.811805 118.731841 
L 156.246708 112.409564 
L 156.464159 106.780162 
L 156.68161 95.555009 
L 157.116512 64.313384 
L 157.333963 63.759461 
L 157.768866 92.446464 
L 158.203768 118.453894 
L 158.63867 129.826201 
L 158.856121 132.249562 
L 159.073572 133.178257 
L 159.291024 133.167429 
L 159.508475 132.752795 
L 159.943377 131.204877 
L 160.59573 127.54048 
L 161.682986 121.280128 
L 162.117888 118.110544 
L 162.770242 111.451479 
L 163.205144 105.22274 
L 163.422595 100.383476 
L 164.2924 70.920907 
L 164.509851 76.644758 
L 165.379655 115.802959 
L 165.814558 124.484751 
L 166.24946 127.712548 
L 166.466911 128.201169 
L 166.684362 128.137769 
L 166.901813 127.768546 
L 167.771618 124.566003 
L 168.641422 119.626187 
L 169.293776 113.967485 
L 169.946129 106.128054 
L 170.16358 103.060503 
L 170.381031 97.657863 
L 170.815934 80.807112 
L 171.033385 76.613797 
L 171.250836 77.587884 
L 171.685738 89.8524 
L 172.338092 110.886442 
L 172.772994 118.592628 
L 173.207896 122.214246 
L 173.425347 122.836243 
L 173.642799 123.096159 
L 173.86025 123.090155 
L 174.512603 122.358496 
L 174.947505 120.986367 
L 175.81731 117.590113 
L 176.904566 112.112816 
L 177.77437 106.840735 
L 178.209272 105.169149 
L 179.73143 95.692889 
L 179.948881 95.232436 
L 180.166333 95.52396 
L 180.601235 97.139 
L 181.905942 108.605863 
L 182.775746 113.028247 
L 183.210648 114.154423 
L 183.4281 114.248885 
L 183.863002 113.654636 
L 184.297904 113.034969 
L 184.515355 112.843216 
L 184.950258 111.591643 
L 186.254964 107.57685 
L 186.472416 107.282473 
L 187.124769 105.824627 
L 187.559671 105.696315 
L 187.994573 104.988391 
L 188.212025 104.917859 
L 189.29928 103.813653 
L 189.734183 102.783691 
L 189.951634 102.855495 
L 190.169085 103.183491 
L 190.386536 103.075431 
L 190.603987 103.261177 
L 191.25634 105.286263 
L 192.343596 107.976038 
L 192.778498 108.359728 
L 192.99595 108.396413 
L 193.648303 109.212205 
L 193.865754 109.303283 
L 194.518108 108.752573 
L 194.95301 108.737183 
L 195.170461 108.576833 
L 195.387912 108.635437 
L 195.605363 108.491744 
L 196.040265 108.062726 
L 196.257717 107.957627 
L 196.475168 108.095289 
L 196.91007 108.051958 
L 197.127521 107.90499 
L 197.562423 106.974247 
L 197.779875 106.698728 
L 197.997326 106.702809 
L 198.432228 107.256035 
L 198.86713 108.035318 
L 199.084581 108.204856 
L 199.302033 108.189943 
L 199.736935 107.556058 
L 199.954386 107.490013 
L 200.171837 107.250619 
L 200.606739 106.383799 
L 201.041642 106.212783 
L 201.259093 106.16013 
L 201.693995 105.855828 
L 201.911446 105.894552 
L 202.128897 106.14829 
L 202.998702 108.150977 
L 203.216153 108.322992 
L 204.738311 111.432984 
L 205.390664 111.901261 
L 205.825567 112.426277 
L 206.260469 112.007961 
L 206.695371 112.171943 
L 206.912822 112.333674 
L 207.130273 112.322651 
L 207.565176 111.992393 
L 207.782627 111.958498 
L 208.000078 111.660409 
L 209.522236 106.853931 
L 210.174589 105.383274 
L 210.609492 105.508104 
L 210.826943 105.155522 
L 211.044394 105.034752 
L 211.261845 105.072974 
L 211.696747 104.705759 
L 211.914198 104.897014 
L 213.436356 107.255681 
L 213.653807 107.265275 
L 214.08871 106.906464 
L 214.306161 106.69282 
L 214.741063 106.027686 
L 215.393417 105.888727 
L 216.263221 107.302579 
L 216.480672 107.392374 
L 216.698123 107.630839 
L 217.785379 110.133547 
L 218.655184 111.086981 
L 218.872635 111.092755 
L 219.524988 110.676276 
L 219.95989 110.814475 
L 220.612244 110.875443 
L 221.264597 111.097552 
L 222.134402 110.218775 
L 222.569304 110.401166 
L 223.221657 109.908545 
L 223.874011 109.863492 
L 224.308913 109.425381 
L 224.743815 108.752962 
L 225.178718 107.94176 
L 226.048522 108.18933 
L 226.918327 107.673705 
L 227.353229 107.927294 
L 227.788131 108.341932 
L 228.875387 107.939371 
L 229.310289 108.185825 
L 229.962643 107.955147 
L 230.397545 108.048486 
L 230.614996 107.98133 
L 231.049898 108.009665 
L 231.484801 107.911808 
L 231.919703 107.5491 
L 232.789507 107.673928 
L 233.006959 107.789644 
L 233.659312 108.665492 
L 233.876763 109.061561 
L 234.311665 109.13218 
L 235.18147 110.813599 
L 235.398921 110.674606 
L 235.833823 110.603654 
L 236.051274 110.353704 
L 236.268726 110.312406 
L 236.486177 110.126841 
L 237.13853 109.073958 
L 237.790884 107.245107 
L 238.008335 107.189078 
L 238.660688 106.645304 
L 238.878139 106.441096 
L 239.747944 106.24206 
L 240.182846 106.822034 
L 241.052651 109.326889 
L 241.487553 110.664545 
L 242.139906 111.363112 
L 242.79226 112.669223 
L 243.009711 112.664627 
L 243.444613 113.20634 
L 244.531869 113.378723 
L 244.74932 113.269741 
L 245.184222 112.671541 
L 245.619124 112.198385 
L 246.271478 110.957568 
L 246.70638 110.963106 
L 247.141282 110.488565 
L 247.358733 110.393379 
L 248.011087 109.58538 
L 248.445989 109.40784 
L 249.315794 108.372905 
L 249.533245 108.305237 
L 249.968147 108.462399 
L 250.185598 108.484123 
L 250.620501 109.027218 
L 251.055403 108.779319 
L 251.707756 109.588091 
L 251.925207 109.757646 
L 252.142658 109.65394 
L 252.36011 109.713113 
L 252.577561 109.588035 
L 252.795012 109.191363 
L 253.012463 109.091241 
L 253.882268 109.294003 
L 254.31717 109.67248 
L 254.534621 109.83045 
L 254.969523 110.635832 
L 255.186974 110.703193 
L 255.621877 110.530448 
L 255.839328 110.323797 
L 256.491681 110.166031 
L 257.361486 109.345348 
L 257.578937 109.029088 
L 258.013839 108.147443 
L 258.666193 107.486398 
L 258.883644 107.429377 
L 259.101095 107.654915 
L 259.535997 108.316666 
L 259.753448 108.312643 
L 260.18835 108.654373 
L 260.623253 109.477654 
L 261.058155 110.27125 
L 261.493057 110.412057 
L 261.710508 110.407625 
L 262.580313 108.782098 
L 262.797764 108.530863 
L 263.232666 108.623395 
L 263.450118 108.503448 
L 264.319922 107.555275 
L 264.537373 107.360983 
L 264.754824 107.355313 
L 265.624629 108.24951 
L 266.059531 108.580922 
L 266.276982 108.316845 
L 266.494433 108.321209 
L 267.364238 108.927403 
L 268.016591 109.645029 
L 268.668945 110.482282 
L 268.886396 110.765141 
L 269.7562 112.554601 
L 269.973652 112.645921 
L 270.191103 112.465178 
L 271.060907 111.261395 
L 271.713261 111.26474 
L 271.930712 111.414146 
L 272.365614 111.952401 
L 272.800516 111.983103 
L 273.670321 111.415152 
L 273.887772 111.664964 
L 274.105223 111.612562 
L 274.322674 111.282956 
L 274.757577 111.141512 
L 275.40993 110.889827 
L 275.627381 110.58579 
L 276.062283 110.439851 
L 276.497186 109.212425 
L 277.584441 108.590347 
L 278.019344 108.986063 
L 278.671697 109.903576 
L 279.106599 110.448302 
L 279.541502 111.23835 
L 279.758953 111.153382 
L 280.628757 111.559985 
L 280.846208 111.454981 
L 281.06366 111.07025 
L 281.498562 110.896969 
L 281.716013 110.923357 
L 281.933464 110.698518 
L 282.585817 109.300384 
L 283.02072 108.650474 
L 283.455622 108.210976 
L 283.890524 107.713001 
L 284.325427 107.956765 
L 284.760329 107.959088 
L 285.412682 108.672702 
L 285.847584 108.72515 
L 286.282487 108.537576 
L 286.499938 108.774993 
L 287.804645 108.766775 
L 288.022096 108.768992 
L 288.456998 109.31779 
L 288.674449 109.305389 
L 289.326803 109.804738 
L 289.761705 110.052499 
L 290.196607 110.013795 
L 290.848961 110.443253 
L 291.501314 111.695224 
L 293.240923 112.130909 
L 294.110728 111.446617 
L 294.54563 110.461451 
L 294.980532 109.962627 
L 295.415434 108.573476 
L 295.632886 108.436359 
L 295.850337 107.949777 
L 296.285239 108.210803 
L 296.50269 109.088195 
L 297.372495 129.558879 
L 298.242299 142.846577 
L 299.112104 152.69436 
L 300.416811 164.006185 
L 301.504066 171.206781 
L 303.678578 182.623328 
L 305.200736 188.91794 
L 307.375247 196.077894 
L 309.114856 200.818349 
L 309.984661 202.741888 
L 312.159172 206.399562 
L 314.551134 208.964181 
L 316.073292 210.271788 
L 316.725646 210.62797 
L 317.59545 211.158918 
L 318.247804 211.595629 
L 319.335059 212.189211 
L 319.987413 212.595569 
L 320.639766 212.894512 
L 321.074668 213.094302 
L 321.29212 213.163304 
L 321.727022 213.506718 
L 323.24918 214.042846 
L 324.553887 213.82762 
L 326.076045 214.075345 
L 326.728398 214.041022 
L 327.380751 213.691463 
L 328.250556 213.534609 
L 328.685458 213.674924 
L 330.642518 213.696318 
L 332.81703 213.445389 
L 334.339188 213.192573 
L 334.556639 213.106251 
L 335.208992 213.14708 
L 336.078797 213.004387 
L 339.558015 212.470814 
L 340.862722 212.411332 
L 341.297624 212.330446 
L 341.949977 212.14206 
L 342.38488 212.095278 
L 343.037233 211.947971 
L 343.907038 211.943734 
L 345.864098 211.328696 
L 346.299 211.281287 
L 346.951354 211.110166 
L 347.821158 210.935657 
L 349.343316 210.424439 
L 350.213121 209.913836 
L 351.082925 209.770163 
L 351.735279 209.537169 
L 352.170181 209.501006 
L 352.605083 209.237292 
L 353.039985 209.171567 
L 354.127241 209.002533 
L 354.562143 208.942033 
L 355.86685 208.5975 
L 356.301752 208.324542 
L 356.954106 208.24343 
L 357.389008 207.942851 
L 358.258813 207.816043 
L 359.563519 207.088737 
L 360.433324 207.104877 
L 361.303129 206.898442 
L 361.738031 206.839849 
L 363.695091 206.154585 
L 364.564896 205.609145 
L 365.217249 205.491754 
L 366.956858 205.286699 
L 367.826663 205.329664 
L 368.044114 205.388907 
L 368.479016 205.214654 
L 369.131369 205.304338 
L 370.436076 205.3505 
L 370.870979 205.246985 
L 371.958234 205.188604 
L 373.262941 204.88072 
L 373.697843 204.766884 
L 374.785099 204.695973 
L 375.654903 204.582048 
L 376.524708 204.568667 
L 378.481768 204.089985 
L 379.134122 203.835646 
L 379.569024 203.784152 
L 380.221377 203.738352 
L 381.308633 203.525374 
L 383.048242 202.953766 
L 383.483144 203.031269 
L 385.222753 202.788885 
L 386.092558 202.771353 
L 387.614716 202.459976 
L 388.049618 202.205491 
L 388.701972 202.26903 
L 389.354325 202.195671 
L 389.789227 202.282657 
L 390.006678 202.199869 
L 390.659032 202.251931 
L 391.528836 202.241555 
L 392.18119 202.298934 
L 393.050994 202.337053 
L 393.703348 202.269913 
L 394.573152 202.361064 
L 395.442957 202.351724 
L 395.877859 202.378303 
L 396.312761 202.32656 
L 397.617468 202.21392 
L 398.05237 202.227541 
L 398.487273 202.103917 
L 398.487273 202.103917 
" style="fill:none;stroke:#000000;stroke-linecap:square;stroke-width:1.5;"/>
   </g>
   <g id="patch_3">
    <path d="M 57.6 307.584 
L 57.6 41.472 
" style="fill:none;stroke:#000000;stroke-linecap:square;stroke-linejoin:miter;stroke-width:0.8;"/>
   </g>
   <g id="patch_4">
    <path d="M 414.72 307.584 
L 414.72 41.472 
" style="fill:none;stroke:#000000;stroke-linecap:square;stroke-linejoin:miter;stroke-width:0.8;"/>
   </g>
   <g id="patch_5">
    <path d="M 57.6 307.584 
L 414.72 307.584 
" style="fill:none;stroke:#000000;stroke-linecap:square;stroke-linejoin:miter;stroke-width:0.8;"/>
   </g>
   <g id="patch_6">
    <path d="M 57.6 41.472 
L 414.72 41.472 
" style="fill:none;stroke:#000000;stroke-linecap:square;stroke-linejoin:miter;stroke-width:0.8;"/>
   </g>
  </g>
 </g>
 <defs>
  <clipPath id="paba9eee450">
   <rect height="266.112" width="357.12" x="57.6" y="41.472"/>
  </clipPath>
 </defs>
</svg>
