<?xml version="1.0" encoding="utf-8" standalone="no"?>
<!DOCTYPE svg PUBLIC "-//W3C//DTD SVG 1.1//EN"
  "http://www.w3.org/Graphics/SVG/1.1/DTD/svg11.dtd">
<svg height="345.6pt" version="1.1" viewBox="0 0 460.8 345.6" width="460.8pt" xmlns="http://www.w3.org/2000/svg" xmlns:xlink="http://www.w3.org/1999/xlink">
 <metadata>
  <rdf:RDF xmlns:cc="http://creativecommons.org/ns#" xmlns:dc="http://purl.org/dc/elements/1.1/" xmlns:rdf="http://www.w3.org/1999/02/22-rdf-syntax-ns#">
   <cc:Work>
    <dc:type rdf:resource="http://purl.org/dc/dcmitype/StillImage"/>
    <dc:date>2024-08-06T14:41:01.139158</dc:date>
    <dc:format>image/svg+xml</dc:format>
    <dc:creator>
     <cc:Agent>
      <dc:title>Matplotlib v3.4.2, https://matplotlib.org/</dc:title>
     </cc:Agent>
    </dc:creator>
   </cc:Work>
  </rdf:RDF>
 </metadata>
 <defs>
  <style type="text/css">*{stroke-linecap:butt;stroke-linejoin:round;}</style>
 </defs>
 <g id="figure_1">
  <g id="patch_1">
   <path d="M 0 345.6 
L 460.8 345.6 
L 460.8 0 
L 0 0 
z
" style="fill:#ffffff;"/>
  </g>
  <g id="axes_1">
   <g id="patch_2">
    <path d="M 57.6 307.584 
L 414.72 307.584 
L 414.72 41.472 
L 57.6 41.472 
z
" style="fill:#ffffff;"/>
   </g>
   <g id="matplotlib.axis_1">
    <g id="xtick_1">
     <g id="line2d_1">
      <defs>
       <path d="M 0 0 
L 0 3.5 
" id="m5fbcfdc190" style="stroke:#000000;stroke-width:0.8;"/>
      </defs>
      <g>
       <use style="stroke:#000000;stroke-width:0.8;" x="95.211629" xlink:href="#m5fbcfdc190" y="307.584"/>
      </g>
     </g>
     <g id="text_1">
      <!-- 0.2 -->
      <g transform="translate(87.260067 322.182437)scale(0.1 -0.1)">
       <defs>
        <path d="M 2034 4250 
Q 1547 4250 1301 3770 
Q 1056 3291 1056 2328 
Q 1056 1369 1301 889 
Q 1547 409 2034 409 
Q 2525 409 2770 889 
Q 3016 1369 3016 2328 
Q 3016 3291 2770 3770 
Q 2525 4250 2034 4250 
z
M 2034 4750 
Q 2819 4750 3233 4129 
Q 3647 3509 3647 2328 
Q 3647 1150 3233 529 
Q 2819 -91 2034 -91 
Q 1250 -91 836 529 
Q 422 1150 422 2328 
Q 422 3509 836 4129 
Q 1250 4750 2034 4750 
z
" id="DejaVuSans-30" transform="scale(0.015625)"/>
        <path d="M 684 794 
L 1344 794 
L 1344 0 
L 684 0 
L 684 794 
z
" id="DejaVuSans-2e" transform="scale(0.015625)"/>
        <path d="M 1228 531 
L 3431 531 
L 3431 0 
L 469 0 
L 469 531 
Q 828 903 1448 1529 
Q 2069 2156 2228 2338 
Q 2531 2678 2651 2914 
Q 2772 3150 2772 3378 
Q 2772 3750 2511 3984 
Q 2250 4219 1831 4219 
Q 1534 4219 1204 4116 
Q 875 4013 500 3803 
L 500 4441 
Q 881 4594 1212 4672 
Q 1544 4750 1819 4750 
Q 2544 4750 2975 4387 
Q 3406 4025 3406 3419 
Q 3406 3131 3298 2873 
Q 3191 2616 2906 2266 
Q 2828 2175 2409 1742 
Q 1991 1309 1228 531 
z
" id="DejaVuSans-32" transform="scale(0.015625)"/>
       </defs>
       <use xlink:href="#DejaVuSans-30"/>
       <use x="63.623047" xlink:href="#DejaVuSans-2e"/>
       <use x="95.410156" xlink:href="#DejaVuSans-32"/>
      </g>
     </g>
    </g>
    <g id="xtick_2">
     <g id="line2d_2">
      <g>
       <use style="stroke:#000000;stroke-width:0.8;" x="139.20545" xlink:href="#m5fbcfdc190" y="307.584"/>
      </g>
     </g>
     <g id="text_2">
      <!-- 0.4 -->
      <g transform="translate(131.253887 322.182437)scale(0.1 -0.1)">
       <defs>
        <path d="M 2419 4116 
L 825 1625 
L 2419 1625 
L 2419 4116 
z
M 2253 4666 
L 3047 4666 
L 3047 1625 
L 3713 1625 
L 3713 1100 
L 3047 1100 
L 3047 0 
L 2419 0 
L 2419 1100 
L 313 1100 
L 313 1709 
L 2253 4666 
z
" id="DejaVuSans-34" transform="scale(0.015625)"/>
       </defs>
       <use xlink:href="#DejaVuSans-30"/>
       <use x="63.623047" xlink:href="#DejaVuSans-2e"/>
       <use x="95.410156" xlink:href="#DejaVuSans-34"/>
      </g>
     </g>
    </g>
    <g id="xtick_3">
     <g id="line2d_3">
      <g>
       <use style="stroke:#000000;stroke-width:0.8;" x="183.19927" xlink:href="#m5fbcfdc190" y="307.584"/>
      </g>
     </g>
     <g id="text_3">
      <!-- 0.6 -->
      <g transform="translate(175.247707 322.182437)scale(0.1 -0.1)">
       <defs>
        <path d="M 2113 2584 
Q 1688 2584 1439 2293 
Q 1191 2003 1191 1497 
Q 1191 994 1439 701 
Q 1688 409 2113 409 
Q 2538 409 2786 701 
Q 3034 994 3034 1497 
Q 3034 2003 2786 2293 
Q 2538 2584 2113 2584 
z
M 3366 4563 
L 3366 3988 
Q 3128 4100 2886 4159 
Q 2644 4219 2406 4219 
Q 1781 4219 1451 3797 
Q 1122 3375 1075 2522 
Q 1259 2794 1537 2939 
Q 1816 3084 2150 3084 
Q 2853 3084 3261 2657 
Q 3669 2231 3669 1497 
Q 3669 778 3244 343 
Q 2819 -91 2113 -91 
Q 1303 -91 875 529 
Q 447 1150 447 2328 
Q 447 3434 972 4092 
Q 1497 4750 2381 4750 
Q 2619 4750 2861 4703 
Q 3103 4656 3366 4563 
z
" id="DejaVuSans-36" transform="scale(0.015625)"/>
       </defs>
       <use xlink:href="#DejaVuSans-30"/>
       <use x="63.623047" xlink:href="#DejaVuSans-2e"/>
       <use x="95.410156" xlink:href="#DejaVuSans-36"/>
      </g>
     </g>
    </g>
    <g id="xtick_4">
     <g id="line2d_4">
      <g>
       <use style="stroke:#000000;stroke-width:0.8;" x="227.19309" xlink:href="#m5fbcfdc190" y="307.584"/>
      </g>
     </g>
     <g id="text_4">
      <!-- 0.8 -->
      <g transform="translate(219.241528 322.182437)scale(0.1 -0.1)">
       <defs>
        <path d="M 2034 2216 
Q 1584 2216 1326 1975 
Q 1069 1734 1069 1313 
Q 1069 891 1326 650 
Q 1584 409 2034 409 
Q 2484 409 2743 651 
Q 3003 894 3003 1313 
Q 3003 1734 2745 1975 
Q 2488 2216 2034 2216 
z
M 1403 2484 
Q 997 2584 770 2862 
Q 544 3141 544 3541 
Q 544 4100 942 4425 
Q 1341 4750 2034 4750 
Q 2731 4750 3128 4425 
Q 3525 4100 3525 3541 
Q 3525 3141 3298 2862 
Q 3072 2584 2669 2484 
Q 3125 2378 3379 2068 
Q 3634 1759 3634 1313 
Q 3634 634 3220 271 
Q 2806 -91 2034 -91 
Q 1263 -91 848 271 
Q 434 634 434 1313 
Q 434 1759 690 2068 
Q 947 2378 1403 2484 
z
M 1172 3481 
Q 1172 3119 1398 2916 
Q 1625 2713 2034 2713 
Q 2441 2713 2670 2916 
Q 2900 3119 2900 3481 
Q 2900 3844 2670 4047 
Q 2441 4250 2034 4250 
Q 1625 4250 1398 4047 
Q 1172 3844 1172 3481 
z
" id="DejaVuSans-38" transform="scale(0.015625)"/>
       </defs>
       <use xlink:href="#DejaVuSans-30"/>
       <use x="63.623047" xlink:href="#DejaVuSans-2e"/>
       <use x="95.410156" xlink:href="#DejaVuSans-38"/>
      </g>
     </g>
    </g>
    <g id="xtick_5">
     <g id="line2d_5">
      <g>
       <use style="stroke:#000000;stroke-width:0.8;" x="271.18691" xlink:href="#m5fbcfdc190" y="307.584"/>
      </g>
     </g>
     <g id="text_5">
      <!-- 1.0 -->
      <g transform="translate(263.235348 322.182437)scale(0.1 -0.1)">
       <defs>
        <path d="M 794 531 
L 1825 531 
L 1825 4091 
L 703 3866 
L 703 4441 
L 1819 4666 
L 2450 4666 
L 2450 531 
L 3481 531 
L 3481 0 
L 794 0 
L 794 531 
z
" id="DejaVuSans-31" transform="scale(0.015625)"/>
       </defs>
       <use xlink:href="#DejaVuSans-31"/>
       <use x="63.623047" xlink:href="#DejaVuSans-2e"/>
       <use x="95.410156" xlink:href="#DejaVuSans-30"/>
      </g>
     </g>
    </g>
    <g id="xtick_6">
     <g id="line2d_6">
      <g>
       <use style="stroke:#000000;stroke-width:0.8;" x="315.18073" xlink:href="#m5fbcfdc190" y="307.584"/>
      </g>
     </g>
     <g id="text_6">
      <!-- 1.2 -->
      <g transform="translate(307.229168 322.182437)scale(0.1 -0.1)">
       <use xlink:href="#DejaVuSans-31"/>
       <use x="63.623047" xlink:href="#DejaVuSans-2e"/>
       <use x="95.410156" xlink:href="#DejaVuSans-32"/>
      </g>
     </g>
    </g>
    <g id="xtick_7">
     <g id="line2d_7">
      <g>
       <use style="stroke:#000000;stroke-width:0.8;" x="359.174551" xlink:href="#m5fbcfdc190" y="307.584"/>
      </g>
     </g>
     <g id="text_7">
      <!-- 1.4 -->
      <g transform="translate(351.222988 322.182437)scale(0.1 -0.1)">
       <use xlink:href="#DejaVuSans-31"/>
       <use x="63.623047" xlink:href="#DejaVuSans-2e"/>
       <use x="95.410156" xlink:href="#DejaVuSans-34"/>
      </g>
     </g>
    </g>
    <g id="xtick_8">
     <g id="line2d_8">
      <g>
       <use style="stroke:#000000;stroke-width:0.8;" x="403.168371" xlink:href="#m5fbcfdc190" y="307.584"/>
      </g>
     </g>
     <g id="text_8">
      <!-- 1.6 -->
      <g transform="translate(395.216808 322.182437)scale(0.1 -0.1)">
       <use xlink:href="#DejaVuSans-31"/>
       <use x="63.623047" xlink:href="#DejaVuSans-2e"/>
       <use x="95.410156" xlink:href="#DejaVuSans-36"/>
      </g>
     </g>
    </g>
   </g>
   <g id="matplotlib.axis_2">
    <g id="ytick_1">
     <g id="line2d_9">
      <defs>
       <path d="M 0 0 
L -3.5 0 
" id="mdba9d522ec" style="stroke:#000000;stroke-width:0.8;"/>
      </defs>
      <g>
       <use style="stroke:#000000;stroke-width:0.8;" x="57.6" xlink:href="#mdba9d522ec" y="294.746058"/>
      </g>
     </g>
     <g id="text_9">
      <!-- −80 -->
      <g transform="translate(29.495313 298.545276)scale(0.1 -0.1)">
       <defs>
        <path d="M 678 2272 
L 4684 2272 
L 4684 1741 
L 678 1741 
L 678 2272 
z
" id="DejaVuSans-2212" transform="scale(0.015625)"/>
       </defs>
       <use xlink:href="#DejaVuSans-2212"/>
       <use x="83.789062" xlink:href="#DejaVuSans-38"/>
       <use x="147.412109" xlink:href="#DejaVuSans-30"/>
      </g>
     </g>
    </g>
    <g id="ytick_2">
     <g id="line2d_10">
      <g>
       <use style="stroke:#000000;stroke-width:0.8;" x="57.6" xlink:href="#mdba9d522ec" y="242.407909"/>
      </g>
     </g>
     <g id="text_10">
      <!-- −60 -->
      <g transform="translate(29.495313 246.207128)scale(0.1 -0.1)">
       <use xlink:href="#DejaVuSans-2212"/>
       <use x="83.789062" xlink:href="#DejaVuSans-36"/>
       <use x="147.412109" xlink:href="#DejaVuSans-30"/>
      </g>
     </g>
    </g>
    <g id="ytick_3">
     <g id="line2d_11">
      <g>
       <use style="stroke:#000000;stroke-width:0.8;" x="57.6" xlink:href="#mdba9d522ec" y="190.06976"/>
      </g>
     </g>
     <g id="text_11">
      <!-- −40 -->
      <g transform="translate(29.495313 193.868979)scale(0.1 -0.1)">
       <use xlink:href="#DejaVuSans-2212"/>
       <use x="83.789062" xlink:href="#DejaVuSans-34"/>
       <use x="147.412109" xlink:href="#DejaVuSans-30"/>
      </g>
     </g>
    </g>
    <g id="ytick_4">
     <g id="line2d_12">
      <g>
       <use style="stroke:#000000;stroke-width:0.8;" x="57.6" xlink:href="#mdba9d522ec" y="137.731611"/>
      </g>
     </g>
     <g id="text_12">
      <!-- −20 -->
      <g transform="translate(29.495313 141.53083)scale(0.1 -0.1)">
       <use xlink:href="#DejaVuSans-2212"/>
       <use x="83.789062" xlink:href="#DejaVuSans-32"/>
       <use x="147.412109" xlink:href="#DejaVuSans-30"/>
      </g>
     </g>
    </g>
    <g id="ytick_5">
     <g id="line2d_13">
      <g>
       <use style="stroke:#000000;stroke-width:0.8;" x="57.6" xlink:href="#mdba9d522ec" y="85.393463"/>
      </g>
     </g>
     <g id="text_13">
      <!-- 0 -->
      <g transform="translate(44.2375 89.192681)scale(0.1 -0.1)">
       <use xlink:href="#DejaVuSans-30"/>
      </g>
     </g>
    </g>
   </g>
   <g id="line2d_14">
    <path clip-path="url(#p09ee6a53c3)" d="M 73.832727 208.183767 
L 74.919983 206.80557 
L 75.789787 206.35737 
L 76.442141 206.258014 
L 77.529397 206.180419 
L 78.399201 206.276907 
L 78.616652 206.597459 
L 79.051555 206.670871 
L 80.356261 221.189352 
L 81.226066 227.531667 
L 82.313322 233.811653 
L 83.618028 239.996423 
L 85.357637 246.966726 
L 86.227442 249.927865 
L 87.532149 253.883326 
L 88.184502 255.78605 
L 89.054307 258.048458 
L 90.359014 261.088759 
L 92.316074 265.18828 
L 93.403329 267.088836 
L 94.273134 268.556741 
L 94.925487 269.643934 
L 95.795292 271.191436 
L 96.447645 271.98546 
L 99.27451 275.768251 
L 99.709412 276.01704 
L 100.579217 276.844205 
L 101.014119 276.943254 
L 103.406082 278.910562 
L 105.363142 279.939046 
L 105.798044 279.975652 
L 107.102751 280.669569 
L 107.320202 280.732259 
L 107.755104 281.155722 
L 108.407458 281.398142 
L 110.147067 282.672857 
L 112.973932 283.271904 
L 113.843736 283.619614 
L 115.148443 284.14061 
L 115.583345 284.157477 
L 116.018248 284.42209 
L 116.45315 284.524575 
L 116.888052 284.511762 
L 117.540406 284.757343 
L 117.975308 284.808556 
L 118.627661 284.190341 
L 119.062563 283.565101 
L 119.497466 283.322237 
L 120.36727 283.281739 
L 120.802173 283.362471 
L 121.237075 283.231659 
L 122.106879 283.388383 
L 122.541782 283.512471 
L 123.629037 283.286153 
L 124.06394 283.309402 
L 124.498842 283.363708 
L 124.933744 283.342094 
L 127.325707 283.502563 
L 127.760609 283.435106 
L 128.195511 283.565402 
L 128.412962 283.468044 
L 128.847865 283.465527 
L 129.065316 283.427303 
L 130.152571 283.811086 
L 131.674729 284.281555 
L 132.979436 284.417125 
L 133.414338 284.311238 
L 134.066692 284.51329 
L 134.936496 284.903081 
L 135.58885 285.545503 
L 136.458654 286.038462 
L 136.893557 286.087096 
L 137.328459 286.220805 
L 139.720421 287.278881 
L 140.372775 287.39142 
L 141.025128 287.233835 
L 142.329835 287.632186 
L 142.764737 287.921787 
L 143.851993 288.145465 
L 144.069444 288.238635 
L 144.504346 288.230734 
L 147.331211 288.670059 
L 147.548662 288.656187 
L 147.983565 288.458556 
L 148.418467 288.426158 
L 151.245332 289.197448 
L 151.680234 289.251656 
L 152.332587 289.421656 
L 152.984941 289.660891 
L 153.202392 289.823232 
L 153.419843 289.800046 
L 153.854745 289.59177 
L 154.507099 289.475409 
L 154.942001 289.53422 
L 155.811805 289.387726 
L 157.333963 289.667432 
L 157.986317 289.580164 
L 158.421219 289.74461 
L 159.508475 289.536951 
L 161.030633 289.774781 
L 162.987693 289.385722 
L 163.640046 289.375503 
L 164.727302 289.350633 
L 165.379655 289.154543 
L 165.814558 289.213477 
L 166.466911 289.188369 
L 168.20652 289.804608 
L 170.598483 290.181503 
L 171.468287 290.548952 
L 173.425347 290.664726 
L 174.077701 290.992792 
L 175.599859 291.465726 
L 176.034761 291.556175 
L 177.556919 292.103703 
L 178.861626 292.891218 
L 180.166333 293.156691 
L 181.688491 293.234703 
L 181.905942 293.103841 
L 182.993197 293.500385 
L 183.645551 293.444405 
L 184.297904 293.437332 
L 184.732806 293.561024 
L 185.167709 293.559802 
L 186.254964 293.600734 
L 187.559671 293.525225 
L 190.169085 293.682144 
L 190.821438 293.638977 
L 192.343596 294.022124 
L 196.040265 294.267677 
L 196.475168 294.305151 
L 198.214777 294.972312 
L 199.302033 295.026443 
L 199.736935 295.260491 
L 200.171837 295.199312 
L 200.606739 295.315994 
L 201.476544 295.271878 
L 201.911446 295.278559 
L 202.346348 295.185493 
L 202.781251 295.275327 
L 203.651055 295.246592 
L 204.303409 295.383499 
L 205.608115 295.120665 
L 206.043018 295.037875 
L 206.695371 295.013676 
L 206.912822 295.17862 
L 207.347725 295.266632 
L 207.565176 295.36888 
L 208.000078 295.278969 
L 209.087334 295.454432 
L 211.044394 295.371129 
L 211.914198 295.399559 
L 212.349101 295.380974 
L 212.784003 295.359836 
L 213.218905 295.21345 
L 213.436356 295.264525 
L 213.871259 295.150919 
L 214.306161 295.346745 
L 214.741063 295.440887 
L 215.175965 295.309107 
L 215.610868 295.154144 
L 216.915574 294.882333 
L 218.437732 295.337786 
L 219.95989 295.199707 
L 220.394793 295.086043 
L 221.047146 295.11042 
L 221.482048 295.32962 
L 221.916951 295.439745 
L 222.351853 295.454609 
L 222.786755 295.170718 
L 223.439109 295.101453 
L 223.874011 295.162595 
L 224.743815 295.030734 
L 225.178718 294.946129 
L 226.265973 294.991377 
L 226.700876 295.00817 
L 227.57068 295.012644 
L 228.440485 295.106851 
L 229.310289 294.973076 
L 229.745191 295.073054 
L 230.180094 295.182994 
L 230.397545 295.061932 
L 230.832447 295.080575 
L 231.702252 294.863408 
L 232.789507 294.627091 
L 233.22441 294.581826 
L 234.094214 294.442399 
L 234.311665 294.550847 
L 235.616372 294.132173 
L 237.355981 294.106345 
L 238.008335 294.019617 
L 238.443237 293.952943 
L 238.878139 294.008523 
L 239.747944 294.203086 
L 239.965395 294.103423 
L 240.400297 294.144353 
L 241.270102 294.003079 
L 241.487553 294.036893 
L 242.574809 293.717492 
L 243.009711 293.688103 
L 243.879515 293.388341 
L 244.531869 293.055151 
L 245.184222 292.87674 
L 245.619124 292.98153 
L 246.488929 293.073183 
L 247.141282 293.061054 
L 247.793636 293.277867 
L 248.880891 293.005267 
L 249.315794 292.792207 
L 250.403049 292.725067 
L 250.620501 292.407766 
L 252.142658 288.03395 
L 252.577561 287.477615 
L 253.882268 286.197126 
L 254.534621 285.813713 
L 254.969523 285.681684 
L 255.186974 285.549323 
L 255.621877 285.500599 
L 255.839328 285.403403 
L 256.491681 285.532628 
L 256.926583 285.552839 
L 257.144035 285.58759 
L 257.361486 285.473123 
L 257.796388 285.427267 
L 258.013839 285.293154 
L 258.448741 285.462613 
L 258.883644 285.558994 
L 259.318546 285.770541 
L 261.058155 286.004436 
L 261.710508 286.16209 
L 262.580313 286.210133 
L 263.667569 286.654641 
L 265.407178 286.67217 
L 266.494433 286.250322 
L 267.146787 285.779211 
L 267.581689 285.146094 
L 268.668945 284.552319 
L 269.103847 284.511548 
L 269.973652 284.888754 
L 271.060907 284.985148 
L 272.148163 285.705505 
L 272.583065 285.867634 
L 273.45287 286.398231 
L 273.887772 286.403353 
L 274.540125 286.481019 
L 274.975028 286.495963 
L 275.627381 286.696053 
L 276.062283 286.745541 
L 276.497186 286.806792 
L 279.106599 287.525701 
L 280.411306 288.302453 
L 281.281111 288.332041 
L 281.716013 288.617456 
L 282.368366 288.823968 
L 282.803269 288.924891 
L 284.107975 289.210317 
L 286.282487 290.008962 
L 286.717389 290.349972 
L 287.369742 290.636796 
L 288.022096 290.898122 
L 289.544254 291.541942 
L 290.414058 291.986374 
L 290.848961 292.070488 
L 292.153667 292.963502 
L 292.806021 293.072629 
L 293.023472 293.005142 
L 294.54563 293.590436 
L 294.980532 293.651279 
L 295.415434 293.827131 
L 295.632886 293.732311 
L 296.067788 293.73887 
L 296.285239 293.773268 
L 296.50269 293.650765 
L 297.807397 279.84287 
L 298.677201 274.0702 
L 299.547006 269.171255 
L 300.851713 263.287734 
L 302.591322 256.800616 
L 303.896029 252.441957 
L 305.635638 247.919697 
L 306.505442 246.163806 
L 307.157796 244.656068 
L 308.245051 241.91587 
L 309.114856 238.000455 
L 309.767209 235.913861 
L 310.419563 234.222326 
L 312.594074 229.781296 
L 313.028976 229.058854 
L 314.116232 226.679587 
L 314.551134 225.82049 
L 315.420939 223.926667 
L 317.812901 218.864522 
L 319.552511 214.278435 
L 319.987413 212.970716 
L 320.639766 210.795191 
L 321.29212 207.486239 
L 321.509571 207.313966 
L 321.944473 205.024148 
L 322.161924 204.713366 
L 322.379375 202.498551 
L 322.596826 203.119572 
L 322.814278 200.044103 
L 323.031729 200.399396 
L 323.466631 196.608502 
L 323.684082 197.51993 
L 323.901533 190.596066 
L 324.118984 195.714915 
L 324.336435 184.821429 
L 324.553887 191.432211 
L 324.771338 171.620217 
L 324.988789 83.177542 
L 325.20624 122.626086 
L 325.423691 211.487723 
L 325.858593 234.55851 
L 326.293496 230.719937 
L 326.510947 230.952646 
L 326.728398 226.068931 
L 326.945849 226.826661 
L 327.1633 223.040327 
L 327.380751 222.906694 
L 327.815654 219.207433 
L 328.033105 218.786455 
L 328.250556 216.611887 
L 328.468007 216.221638 
L 328.902909 213.656566 
L 329.772714 209.682103 
L 330.207616 207.615602 
L 330.85997 204.984417 
L 331.077421 203.165227 
L 331.294872 202.756668 
L 331.729774 199.810787 
L 331.947225 199.616661 
L 332.164676 196.512107 
L 332.382128 197.34693 
L 332.599579 193.689319 
L 332.81703 194.233811 
L 333.251932 187.888637 
L 333.469383 190.45301 
L 333.686834 178.738359 
L 333.904285 190.078396 
L 334.339188 74.877179 
L 334.77409 216.085168 
L 334.991541 223.603551 
L 335.208992 235.370281 
L 335.426443 230.431127 
L 335.643895 232.013233 
L 336.078797 226.920206 
L 336.296248 226.500906 
L 336.513699 223.089432 
L 336.73115 223.584919 
L 336.948601 221.274881 
L 337.166052 221.045399 
L 337.383504 220.284501 
L 337.600955 219.076556 
L 337.818406 219.07287 
L 338.035857 217.749884 
L 338.253308 217.492813 
L 338.68821 216.076524 
L 338.905662 215.611709 
L 339.123113 214.82231 
L 339.340564 214.453601 
L 340.210368 211.803082 
L 341.949977 207.87831 
L 342.819782 205.131188 
L 343.472135 203.198716 
L 343.689587 202.059321 
L 343.907038 201.639142 
L 344.34194 199.810318 
L 344.559391 199.025701 
L 344.776842 197.66755 
L 344.994293 197.534514 
L 345.211745 195.246943 
L 345.429196 195.603075 
L 345.864098 192.389254 
L 346.081549 192.32647 
L 346.299 188.713456 
L 346.516451 191.163801 
L 346.733902 185.576833 
L 346.951354 187.718146 
L 347.386256 179.081673 
L 347.603707 179.55439 
L 347.821158 100.196842 
L 348.038609 91.269581 
L 348.25606 185.778016 
L 348.473512 217.553084 
L 348.908414 233.641415 
L 349.125865 229.584383 
L 349.343316 232.238185 
L 349.560767 227.811632 
L 349.778218 228.175304 
L 350.213121 224.448262 
L 350.430572 224.257389 
L 350.648023 222.143224 
L 350.865474 222.31791 
L 351.082925 220.578217 
L 351.300376 220.247831 
L 352.822534 215.54094 
L 356.301752 208.162179 
L 357.171557 206.51924 
L 358.693715 203.158614 
L 359.128617 202.087134 
L 359.563519 201.06029 
L 360.215873 199.485847 
L 360.433324 198.623049 
L 360.650775 198.393528 
L 360.868226 197.311307 
L 361.085677 196.877212 
L 361.52058 194.832927 
L 361.738031 195.092825 
L 361.955482 193.002396 
L 362.172933 193.30107 
L 362.390384 191.543796 
L 362.607835 190.700275 
L 362.825286 190.708279 
L 363.042738 187.492714 
L 363.260189 189.636623 
L 363.47764 183.715406 
L 363.695091 186.086696 
L 363.912542 180.408453 
L 364.347444 176.468928 
L 364.564896 95.870048 
L 364.782347 92.743827 
L 364.999798 187.942062 
L 365.217249 218.55073 
L 365.4347 229.503267 
L 365.652151 234.724527 
L 365.869602 231.149696 
L 366.087054 233.444897 
L 366.304505 228.823874 
L 366.521956 229.001575 
L 366.739407 226.499192 
L 366.956858 225.339525 
L 367.174309 225.105547 
L 367.39176 223.25955 
L 367.609211 223.680274 
L 367.826663 222.272567 
L 368.044114 222.107444 
L 368.479016 220.803574 
L 368.696467 220.67824 
L 368.913918 219.864837 
L 369.131369 219.839417 
L 369.566272 219.172215 
L 369.783723 219.031078 
L 370.436076 218.215047 
L 370.653527 218.228974 
L 371.08843 217.91018 
L 371.958234 217.069499 
L 372.175685 216.953336 
L 372.610588 216.41016 
L 373.697843 215.727534 
L 374.350197 213.457877 
L 375.654903 212.547641 
L 376.089806 212.469648 
L 376.742159 211.781161 
L 377.177061 211.504454 
L 377.611964 211.116411 
L 377.829415 211.102471 
L 378.046866 210.896833 
L 378.481768 210.191254 
L 378.916671 209.82593 
L 379.351573 209.345914 
L 379.786475 209.163442 
L 380.221377 208.863049 
L 380.873731 208.306143 
L 382.178438 207.744959 
L 384.352949 205.332732 
L 384.787851 204.73602 
L 385.440205 204.329282 
L 385.657656 203.730972 
L 386.52746 202.858461 
L 387.397265 201.444158 
L 388.049618 200.928559 
L 388.48452 199.862403 
L 389.136874 198.875233 
L 389.789227 196.80964 
L 390.441581 195.282117 
L 390.659032 195.016095 
L 390.876483 194.511827 
L 391.093934 194.374089 
L 391.528836 193.165782 
L 391.746288 193.2837 
L 391.963739 191.987704 
L 392.18119 192.368248 
L 392.398641 191.08782 
L 392.833543 190.117792 
L 393.050994 187.442783 
L 393.268445 188.606587 
L 393.485897 185.035888 
L 393.703348 186.402316 
L 394.13825 181.587812 
L 394.355701 182.389278 
L 394.573152 172.980322 
L 394.790603 182.305993 
L 395.225506 73.788834 
L 395.660408 213.12445 
L 396.09531 234.098079 
L 396.312761 229.900643 
L 396.530213 232.094074 
L 396.965115 227.610002 
L 397.182566 226.76194 
L 397.400017 223.998125 
L 397.617468 224.310736 
L 397.834919 221.894354 
L 398.05237 221.629393 
L 398.487273 219.679864 
L 398.487273 219.679864 
" style="fill:none;stroke:#000000;stroke-linecap:square;stroke-width:1.5;"/>
   </g>
   <g id="line2d_15">
    <path clip-path="url(#p09ee6a53c3)" d="M 73.832727 247.227965 
L 75.354885 247.266773 
L 75.572336 247.179807 
L 76.007239 247.21032 
L 76.22469 247.076056 
L 76.442141 247.196941 
L 76.877043 247.029495 
L 77.311945 246.97769 
L 77.529397 247.157923 
L 77.746848 246.852144 
L 77.964299 247.154978 
L 78.18175 246.831163 
L 78.616652 247.188001 
L 78.834103 246.978523 
L 79.051555 247.292212 
L 79.921359 226.526311 
L 80.13881 224.122816 
L 80.356261 218.545555 
L 80.573712 217.001775 
L 81.008615 209.611613 
L 81.226066 208.184966 
L 81.443517 202.466194 
L 81.660968 204.94886 
L 81.878419 195.21786 
L 82.09587 198.902611 
L 82.313322 190.273731 
L 82.530773 188.397143 
L 82.748224 189.507575 
L 82.965675 85.8639 
L 83.183126 90.947198 
L 83.400577 206.557244 
L 83.618028 224.943026 
L 83.83548 230.038494 
L 84.052931 229.863463 
L 84.270382 221.934769 
L 84.487833 221.180862 
L 84.705284 213.824198 
L 84.922735 210.940339 
L 85.357637 203.025966 
L 85.575089 198.365577 
L 85.79254 197.711521 
L 86.009991 190.256938 
L 86.227442 192.138094 
L 86.444893 182.733454 
L 86.662344 182.846372 
L 86.879795 175.455669 
L 87.097247 76.526911 
L 87.314698 90.543148 
L 87.532149 201.943534 
L 87.7496 221.674921 
L 87.967051 229.06451 
L 88.184502 228.563231 
L 88.401953 219.954655 
L 88.619404 221.116843 
L 88.836856 211.824004 
L 89.054307 211.145678 
L 89.489209 201.981828 
L 89.70666 201.69125 
L 89.924111 194.392968 
L 90.141562 196.34879 
L 90.359014 188.645111 
L 90.793916 185.43569 
L 91.011367 174.766304 
L 91.228818 185.095621 
L 91.66372 63.433688 
L 91.881172 166.824378 
L 92.098623 217.332552 
L 92.533525 228.984707 
L 92.750976 220.086147 
L 92.968427 221.214895 
L 93.185878 214.333769 
L 93.403329 212.7252 
L 93.838232 204.662895 
L 94.055683 203.126108 
L 94.273134 197.323562 
L 94.490585 197.191369 
L 94.708036 190.7617 
L 94.925487 191.513726 
L 95.142939 185.061709 
L 95.36039 184.336423 
L 95.577841 181.449491 
L 95.795292 173.522918 
L 96.012743 179.197692 
L 96.230194 97.374964 
L 96.447645 67.701867 
L 96.665097 172.211145 
L 96.882548 215.467015 
L 97.31745 227.34357 
L 97.534901 219.003869 
L 97.752352 220.503234 
L 97.969803 213.77963 
L 98.404706 208.569175 
L 98.622157 203.327725 
L 98.839608 203.350489 
L 99.057059 197.508357 
L 99.27451 196.554997 
L 99.709412 189.519191 
L 99.926864 190.832036 
L 100.144315 182.657426 
L 100.361766 186.203752 
L 100.579217 176.716251 
L 100.796668 177.511759 
L 101.014119 166.596861 
L 101.23157 73.494108 
L 101.449021 88.253848 
L 101.666473 191.13447 
L 101.883924 215.442698 
L 102.101375 224.062848 
L 102.318826 224.429082 
L 102.536277 218.870151 
L 102.753728 218.488027 
L 102.971179 212.245567 
L 103.188631 210.356186 
L 103.623533 203.587154 
L 104.058435 198.845857 
L 104.710789 189.616561 
L 104.92824 189.648036 
L 105.363142 181.943286 
L 105.580593 180.68946 
L 105.798044 170.306005 
L 106.015495 178.72838 
L 106.450398 59.388883 
L 106.8853 212.155402 
L 107.320202 227.682495 
L 107.537653 219.655464 
L 107.755104 220.681821 
L 107.972556 214.463965 
L 108.407458 208.823781 
L 108.624909 203.790964 
L 108.84236 203.93372 
L 109.059811 197.675863 
L 109.277262 198.090655 
L 109.494714 193.164571 
L 109.929616 189.768127 
L 110.147067 183.432008 
L 110.364518 185.949939 
L 110.581969 172.509289 
L 110.79942 182.158441 
L 111.016871 134.366044 
L 111.234323 55.975173 
L 111.669225 207.576068 
L 112.104127 227.174885 
L 112.321578 221.009699 
L 112.539029 220.605984 
L 112.756481 217.471186 
L 112.973932 212.541871 
L 113.191383 211.409441 
L 113.408834 205.362745 
L 113.626285 205.068255 
L 114.061187 198.165125 
L 114.278638 197.052448 
L 114.49609 192.400116 
L 114.713541 193.205015 
L 114.930992 188.177096 
L 115.148443 188.702826 
L 115.583345 181.110003 
L 115.800796 182.623356 
L 116.018248 170.865252 
L 116.235699 180.649518 
L 116.670601 55.420362 
L 117.105503 209.156934 
L 117.540406 227.570252 
L 117.757857 220.621121 
L 117.975308 220.702611 
L 118.41021 211.09852 
L 118.627661 209.008007 
L 118.845112 203.414934 
L 119.062563 203.369884 
L 119.280015 198.296881 
L 119.497466 197.432248 
L 119.932368 191.538583 
L 120.149819 191.711683 
L 120.36727 186.210699 
L 120.584721 187.985967 
L 120.802173 181.70648 
L 121.019624 181.564186 
L 121.237075 178.186585 
L 121.454526 171.224284 
L 121.671977 176.084557 
L 121.889428 95.953558 
L 122.106879 65.927004 
L 122.324331 166.366223 
L 122.541782 211.678157 
L 122.976684 225.338941 
L 123.194135 218.315301 
L 123.411586 219.063043 
L 123.629037 212.612729 
L 123.846488 210.881769 
L 124.281391 203.958561 
L 124.498842 201.919392 
L 124.716293 198.058451 
L 124.933744 197.979026 
L 125.151195 193.286021 
L 125.368646 193.180612 
L 125.586098 188.665376 
L 125.803549 187.984871 
L 126.238451 180.161989 
L 126.455902 181.333525 
L 126.673353 169.532478 
L 126.890804 178.234882 
L 127.325707 55.928819 
L 127.760609 205.693073 
L 128.195511 224.681739 
L 128.412962 218.202191 
L 128.630413 217.900853 
L 129.065316 209.45927 
L 129.93512 197.305285 
L 130.152571 196.698222 
L 130.370023 192.394082 
L 130.587474 191.866077 
L 131.022376 186.840597 
L 131.239827 184.838015 
L 131.457278 179.329624 
L 131.674729 181.561159 
L 131.89218 169.751145 
L 132.109632 177.441064 
L 132.327083 131.870931 
L 132.544534 56.784559 
L 132.979436 201.990488 
L 133.414338 223.802538 
L 133.63179 218.563589 
L 133.849241 218.261599 
L 134.719045 203.558477 
L 134.936496 202.590115 
L 135.153948 198.127975 
L 135.371399 197.579306 
L 135.58885 193.686633 
L 135.806301 192.067407 
L 136.241203 186.816806 
L 136.458654 186.101376 
L 136.676105 179.267659 
L 136.893557 182.202178 
L 137.111008 170.513861 
L 137.328459 175.206874 
L 137.54591 145.211379 
L 137.763361 59.981209 
L 137.980812 105.440048 
L 138.198263 196.493334 
L 138.633166 225.292586 
L 139.285519 217.258279 
L 139.50297 210.897981 
L 139.720421 209.074873 
L 140.155324 202.071497 
L 140.372775 200.148551 
L 140.590226 196.00628 
L 140.807677 194.572755 
L 141.242579 188.447313 
L 141.46003 188.47155 
L 141.677482 181.356754 
L 141.894933 183.67603 
L 142.112384 174.886371 
L 142.329835 174.716648 
L 142.547286 161.793902 
L 142.764737 72.320086 
L 142.982188 82.22205 
L 143.19964 181.859465 
L 143.417091 210.700298 
L 143.634542 220.72152 
L 143.851993 222.146996 
L 144.069444 217.592792 
L 144.286895 218.06815 
L 144.504346 211.513439 
L 144.721797 210.725158 
L 144.939249 206.085463 
L 145.374151 201.958529 
L 145.591602 197.492208 
L 145.809053 197.858644 
L 146.026504 193.09163 
L 146.243955 192.212281 
L 146.678858 186.520244 
L 146.896309 186.99893 
L 147.11376 179.373536 
L 147.331211 182.496995 
L 147.548662 172.392169 
L 147.766113 174.518235 
L 147.983565 155.103942 
L 148.201016 65.548554 
L 148.418467 90.484578 
L 148.635918 186.588711 
L 148.853369 210.904005 
L 149.07082 222.126184 
L 149.288271 221.485621 
L 149.505722 217.968603 
L 149.723174 216.315726 
L 149.940625 210.475404 
L 150.158076 208.982347 
L 150.375527 204.104458 
L 150.592978 202.678976 
L 150.810429 198.614389 
L 151.02788 196.953157 
L 151.897685 185.695376 
L 152.115136 186.23578 
L 152.332587 179.508193 
L 152.550038 181.636138 
L 152.767489 172.816562 
L 152.984941 173.191103 
L 153.202392 158.668822 
L 153.419843 69.313607 
L 153.637294 84.212242 
L 153.854745 183.216933 
L 154.072196 211.33717 
L 154.289647 221.982278 
L 154.507099 222.661724 
L 154.72455 218.120911 
L 154.942001 217.19356 
L 155.159452 211.31643 
L 155.376903 209.576919 
L 155.811805 202.88716 
L 156.899061 190.89838 
L 157.551414 184.459818 
L 157.768866 185.312272 
L 157.986317 179.343247 
L 158.203768 181.396279 
L 158.421219 173.45968 
L 158.63867 172.490413 
L 158.856121 161.885952 
L 159.073572 74.740815 
L 159.291024 79.380566 
L 159.508475 177.011934 
L 159.725926 207.948405 
L 159.943377 219.04166 
L 160.160828 221.521294 
L 160.378279 216.684956 
L 160.59573 217.181325 
L 160.813182 210.514273 
L 161.030633 209.321998 
L 161.465535 202.316149 
L 161.682986 200.857791 
L 161.900437 196.352659 
L 162.117888 196.458849 
L 162.335339 192.062176 
L 162.552791 191.083517 
L 162.770242 189.149256 
L 162.987693 185.551021 
L 163.205144 185.966352 
L 163.422595 178.610298 
L 163.640046 180.937585 
L 163.857497 171.545868 
L 164.074949 172.571587 
L 164.2924 156.973967 
L 164.509851 69.051372 
L 164.727302 85.326433 
L 164.944753 182.523835 
L 165.162204 210.41619 
L 165.379655 220.917875 
L 165.597106 221.186376 
L 165.814558 216.428848 
L 166.032009 216.10636 
L 166.24946 209.81893 
L 166.466911 208.874521 
L 166.901813 202.162951 
L 167.119264 200.556616 
L 167.336716 196.292363 
L 167.554167 196.015434 
L 167.989069 190.83748 
L 168.20652 189.95081 
L 168.423971 185.315379 
L 168.641422 186.35859 
L 168.858874 179.949734 
L 169.076325 180.797031 
L 169.511227 169.968884 
L 169.728678 168.896376 
L 169.946129 88.042971 
L 170.16358 66.322886 
L 170.381031 163.284061 
L 170.598483 207.592036 
L 170.815934 218.085778 
L 171.033385 223.021873 
L 171.250836 217.615612 
L 171.468287 217.305866 
L 171.685738 211.448112 
L 171.903189 209.008634 
L 172.338092 202.230308 
L 172.990445 194.202999 
L 173.642799 186.623872 
L 173.86025 186.811774 
L 174.077701 180.740068 
L 174.295152 181.940828 
L 174.512603 173.384303 
L 174.730054 172.410069 
L 174.947505 160.748926 
L 175.164956 73.292532 
L 175.382408 77.512077 
L 175.599859 174.712384 
L 175.81731 207.393065 
L 176.034761 218.537388 
L 176.252212 220.7538 
L 176.469663 215.621065 
L 176.687114 215.384434 
L 176.904566 208.978913 
L 177.122017 207.159512 
L 177.556919 199.996119 
L 177.77437 198.62454 
L 177.991821 194.67487 
L 178.209272 193.844083 
L 178.644175 188.77744 
L 178.861626 188.480516 
L 179.079077 183.768562 
L 179.296528 184.403112 
L 179.513979 179.321512 
L 179.948881 176.209997 
L 180.166333 167.328655 
L 180.383784 171.073263 
L 180.818686 57.010285 
L 181.253588 203.678006 
L 181.688491 222.031546 
L 181.905942 216.256836 
L 182.123393 216.394938 
L 182.558295 208.93329 
L 183.4281 197.856654 
L 183.645551 197.095635 
L 183.863002 193.595901 
L 184.080453 192.6953 
L 184.515355 187.897583 
L 184.732806 186.401143 
L 184.950258 182.522807 
L 185.167709 183.402959 
L 185.38516 177.110186 
L 185.602611 178.517566 
L 185.820062 170.927374 
L 186.037513 170.019645 
L 186.254964 156.493066 
L 186.472416 71.581201 
L 186.689867 78.19318 
L 186.907318 173.470787 
L 187.124769 207.334293 
L 187.34222 219.450594 
L 187.559671 221.659989 
L 187.777122 217.262998 
L 187.994573 216.859667 
L 188.212025 211.347623 
L 188.429476 208.956003 
L 188.864378 202.027767 
L 190.603987 183.50785 
L 190.821438 183.05841 
L 191.038889 177.247536 
L 191.25634 179.477628 
L 191.473792 169.298736 
L 191.691243 172.320681 
L 191.908694 148.393374 
L 192.126145 63.130242 
L 192.343596 91.495532 
L 192.561047 183.296886 
L 192.778498 208.311486 
L 192.99595 220.265216 
L 193.213401 220.151012 
L 193.430852 216.756303 
L 193.648303 216.049277 
L 193.865754 210.060779 
L 194.083205 208.453147 
L 194.518108 201.546712 
L 194.735559 199.723103 
L 194.95301 195.998625 
L 195.170461 195.257405 
L 195.605363 189.798158 
L 195.822814 188.983138 
L 196.040265 185.028262 
L 196.257717 185.808045 
L 196.475168 179.630088 
L 196.692619 179.114262 
L 197.127521 168.395202 
L 197.344972 168.386003 
L 197.562423 91.577403 
L 197.779875 61.65168 
L 198.214777 204.892912 
L 198.649679 222.868927 
L 198.86713 217.693297 
L 199.084581 217.342766 
L 199.302033 211.869291 
L 201.259093 189.107868 
L 201.476544 188.238867 
L 201.693995 184.201046 
L 201.911446 184.672878 
L 202.128897 179.790768 
L 202.5638 175.461873 
L 202.781251 167.642701 
L 202.998702 171.882918 
L 203.433604 56.435858 
L 203.868506 199.846532 
L 204.303409 221.541753 
L 204.52086 215.666375 
L 204.738311 215.991298 
L 205.173213 208.017961 
L 205.390664 205.633911 
L 205.608115 201.338179 
L 205.825567 200.756945 
L 206.043018 196.696198 
L 206.260469 195.475992 
L 206.47792 193.591723 
L 206.695371 189.809881 
L 206.912822 189.527048 
L 207.130273 184.545792 
L 207.347725 184.539284 
L 207.782627 177.275665 
L 208.000078 177.560843 
L 208.217529 167.589056 
L 208.43498 172.893525 
L 208.869882 53.568 
L 209.304785 198.596214 
L 209.739687 222.754742 
L 209.957138 218.271242 
L 210.174589 217.559658 
L 211.044394 203.370297 
L 211.261845 201.650256 
L 211.696747 195.800205 
L 211.914198 194.757618 
L 212.13165 191.163519 
L 212.349101 189.99288 
L 212.784003 185.04703 
L 213.001454 185.361292 
L 213.218905 178.929121 
L 213.436356 180.470005 
L 213.653807 172.15075 
L 213.871259 172.084444 
L 214.08871 157.776491 
L 214.306161 71.121924 
L 214.523612 78.99354 
L 214.741063 174.812144 
L 214.958514 206.612302 
L 215.175965 218.11184 
L 215.393417 219.871207 
L 215.610868 215.59965 
L 215.828319 215.281686 
L 216.04577 209.128872 
L 216.263221 208.365417 
L 216.480672 203.704093 
L 216.915574 199.490184 
L 217.133026 195.981348 
L 217.350477 195.429592 
L 217.567928 190.88531 
L 217.785379 190.850744 
L 218.00283 186.581066 
L 218.220281 185.131316 
L 218.437732 182.666546 
L 218.655184 177.308353 
L 218.872635 178.040854 
L 219.090086 166.695392 
L 219.307537 172.545075 
L 219.742439 54.10261 
L 220.394793 209.978222 
L 220.612244 220.709876 
L 220.829695 217.365018 
L 221.047146 216.258031 
L 221.916951 201.768253 
L 222.569304 194.556637 
L 222.786755 191.338858 
L 223.004206 190.187886 
L 223.221657 186.101404 
L 223.439109 185.53839 
L 223.874011 178.286624 
L 224.091462 176.019634 
L 224.308913 167.141696 
L 224.526364 170.48614 
L 224.961267 55.089465 
L 225.396169 198.544902 
L 225.831071 221.216606 
L 226.048522 215.788237 
L 226.265973 216.194947 
L 226.700876 208.032408 
L 226.918327 205.718601 
L 227.135778 201.057247 
L 227.353229 200.356796 
L 227.57068 195.968852 
L 228.005582 192.150486 
L 228.223034 188.30949 
L 228.440485 188.021513 
L 228.657936 183.577684 
L 228.875387 183.747414 
L 229.092838 179.345584 
L 229.52774 176.062817 
L 229.745191 167.634603 
L 229.962643 171.296663 
L 230.397545 55.619477 
L 230.832447 196.234812 
L 231.267349 220.191085 
L 231.484801 215.907722 
L 231.702252 215.599057 
L 232.137154 207.743682 
L 232.354605 205.738828 
L 232.572056 201.257457 
L 232.789507 199.667293 
L 233.22441 194.339662 
L 233.441861 193.148451 
L 233.659312 189.562967 
L 233.876763 188.964449 
L 234.311665 183.549405 
L 234.529116 182.795472 
L 234.746568 176.80373 
L 234.964019 178.425307 
L 235.18147 168.736306 
L 235.398921 171.690778 
L 235.616372 147.064301 
L 235.833823 62.938521 
L 236.051274 87.932389 
L 236.268726 177.563798 
L 236.486177 205.485219 
L 236.703628 218.899467 
L 236.921079 219.128797 
L 237.13853 215.745037 
L 237.355981 214.313743 
L 237.573432 208.358041 
L 237.790884 207.320015 
L 238.008335 202.597712 
L 238.443237 198.682136 
L 238.660688 195.398846 
L 238.878139 195.002821 
L 239.09559 190.378507 
L 239.313041 189.907089 
L 239.747944 184.27919 
L 239.965395 182.856106 
L 240.182846 176.470689 
L 240.400297 178.305374 
L 240.617748 167.551136 
L 240.835199 171.222485 
L 241.052651 137.903673 
L 241.270102 57.329912 
L 241.487553 98.602017 
L 241.705004 185.182363 
L 242.139906 219.82073 
L 242.357357 218.580364 
L 243.227162 207.197887 
L 243.662064 200.510743 
L 243.879515 198.244032 
L 244.096966 194.663292 
L 244.314418 193.053626 
L 244.74932 188.153756 
L 244.966771 186.894558 
L 245.184222 182.78252 
L 245.401673 183.453966 
L 245.619124 178.656692 
L 245.836576 177.330716 
L 246.054027 174.317449 
L 246.271478 166.196157 
L 246.488929 167.991506 
L 246.923831 55.651926 
L 247.358733 197.352784 
L 247.793636 220.986153 
L 248.011087 216.5334 
L 248.228538 216.108607 
L 248.66344 207.508201 
L 250.185598 188.79022 
L 250.403049 187.561991 
L 250.837952 182.426713 
L 251.055403 182.013555 
L 251.272854 176.045339 
L 251.490305 177.444415 
L 251.707756 168.723983 
L 251.925207 169.036076 
L 252.142658 149.666781 
L 252.36011 66.579039 
L 252.577561 80.716355 
L 252.795012 172.570766 
L 253.012463 205.478501 
L 253.229914 218.125289 
L 253.447365 219.199297 
L 253.664816 215.972245 
L 253.882268 214.723528 
L 254.099719 209.262877 
L 254.31717 207.502534 
L 254.534621 202.681977 
L 254.752072 201.037843 
L 255.186974 194.866256 
L 255.404426 192.681543 
L 255.621877 189.314974 
L 255.839328 188.309127 
L 256.056779 184.067049 
L 256.27423 184.70067 
L 256.491681 179.095556 
L 256.709132 178.599001 
L 257.361486 163.52865 
L 257.578937 85.168432 
L 257.796388 62.270771 
L 258.23129 199.572715 
L 258.448741 213.665415 
L 258.666193 219.526858 
L 258.883644 214.86373 
L 259.101095 214.52378 
L 259.318546 208.296141 
L 259.535997 206.45376 
L 259.970899 199.333573 
L 260.18835 198.04435 
L 260.405802 193.895755 
L 260.623253 193.361194 
L 260.840704 189.155071 
L 261.058155 188.014145 
L 261.493057 182.360225 
L 261.710508 181.83953 
L 261.92796 175.459197 
L 262.145411 176.836759 
L 262.362862 166.829558 
L 262.580313 168.80476 
L 262.797764 142.90108 
L 263.015215 62.068428 
L 263.232666 88.438682 
L 263.450118 176.056951 
L 263.667569 204.826035 
L 263.88502 217.278077 
L 264.102471 217.307396 
L 264.319922 214.102753 
L 264.537373 212.584866 
L 264.754824 207.290695 
L 264.972275 205.589467 
L 265.407178 198.917395 
L 265.624629 197.323608 
L 265.84208 194.024376 
L 266.059531 192.670162 
L 266.494433 187.223893 
L 266.711885 186.066455 
L 266.929336 182.080107 
L 267.146787 182.16568 
L 267.364238 177.161839 
L 267.581689 175.898998 
L 267.79914 172.34065 
L 268.016591 165.567587 
L 268.234043 164.66232 
L 268.668945 57.631479 
L 269.103847 195.671871 
L 269.538749 218.509732 
L 269.7562 214.120229 
L 269.973652 214.5233 
L 270.408554 206.657707 
L 270.626005 204.156104 
L 270.843456 200.056506 
L 271.060907 199.196618 
L 271.278358 195.246575 
L 271.713261 191.613181 
L 271.930712 188.409296 
L 272.148163 188.029205 
L 272.365614 183.56198 
L 272.583065 183.828884 
L 273.017967 176.560215 
L 273.235419 174.62086 
L 273.45287 165.270199 
L 273.670321 168.395624 
L 274.105223 55.270362 
L 274.540125 192.413909 
L 274.975028 218.003862 
L 275.192479 214.224731 
L 275.40993 213.741762 
L 275.844832 206.745174 
L 276.062283 204.508666 
L 276.497186 198.937749 
L 277.584441 186.496794 
L 277.801892 185.047785 
L 278.019344 181.340855 
L 278.236795 181.36043 
L 278.454246 176.318035 
L 278.671697 175.399416 
L 279.32405 162.506245 
L 279.541502 91.8891 
L 279.758953 60.7973 
L 280.193855 196.681113 
L 280.411306 211.4552 
L 280.628757 218.629219 
L 280.846208 214.857854 
L 281.06366 215.057988 
L 281.281111 209.969781 
L 281.498562 207.826668 
L 281.933464 201.151483 
L 282.150915 199.66791 
L 282.368366 196.043328 
L 282.585817 195.140182 
L 282.803269 191.725204 
L 283.02072 190.426603 
L 283.455622 185.309877 
L 283.673073 184.42542 
L 283.890524 180.607466 
L 284.107975 181.302144 
L 284.325427 175.911477 
L 284.542878 175.655197 
L 285.195231 159.697918 
L 285.412682 83.887034 
L 285.630133 62.898161 
L 286.065036 195.805377 
L 286.282487 211.611311 
L 286.499938 217.826866 
L 286.717389 214.659528 
L 286.93484 215.158229 
L 287.152291 210.317301 
L 287.369742 208.274894 
L 287.804645 201.504438 
L 288.022096 199.700104 
L 288.239547 195.902064 
L 288.456998 194.915529 
L 288.674449 191.148937 
L 288.8919 189.940847 
L 289.544254 184.136943 
L 289.761705 180.211599 
L 289.979156 180.78627 
L 290.196607 175.235744 
L 290.414058 174.200004 
L 291.066412 161.40923 
L 291.283863 89.83964 
L 291.501314 58.816523 
L 291.936216 196.187451 
L 292.153667 211.755037 
L 292.371119 219.240622 
L 292.58857 215.882102 
L 292.806021 216.04608 
L 293.240923 208.625479 
L 294.110728 196.732857 
L 294.328179 195.041299 
L 294.763081 189.954821 
L 296.067788 176.51661 
L 296.50269 169.668889 
L 296.720141 169.224826 
L 297.372495 175.624619 
L 298.894653 193.362489 
L 299.764457 199.850495 
L 300.851713 206.006793 
L 301.504066 208.722099 
L 302.15642 211.13545 
L 302.808773 212.749767 
L 303.243675 213.782685 
L 304.11348 216.098768 
L 305.200736 218.208325 
L 305.635638 218.781586 
L 306.722894 220.865459 
L 309.767209 225.964664 
L 310.637014 227.13931 
L 311.941721 229.050974 
L 313.898781 230.843348 
L 314.333683 231.442759 
L 314.768586 231.810264 
L 315.203488 232.240324 
L 315.855841 232.640871 
L 316.725646 233.65638 
L 317.812901 234.673779 
L 318.247804 235.010671 
L 318.465255 235.301052 
L 320.422315 236.075294 
L 320.857217 236.389911 
L 321.074668 236.440766 
L 321.509571 236.78457 
L 322.161924 236.836653 
L 323.684082 237.138804 
L 324.771338 237.115224 
L 324.988789 237.183817 
L 325.423691 237.116146 
L 328.468007 237.057666 
L 328.902909 237.356783 
L 329.12036 237.358505 
L 329.555263 237.606225 
L 329.772714 237.584793 
L 330.207616 237.825268 
L 330.85997 237.679586 
L 331.512323 237.897062 
L 331.729774 238.129336 
L 331.947225 238.15736 
L 332.382128 238.567462 
L 332.599579 238.602614 
L 333.469383 239.218795 
L 333.686834 239.264157 
L 334.121737 238.980321 
L 335.426443 239.133816 
L 336.296248 239.122819 
L 336.948601 239.122722 
L 338.253308 239.128702 
L 339.558015 239.399458 
L 339.992917 238.679693 
L 340.645271 237.536235 
L 341.080173 237.272573 
L 341.515075 236.913415 
L 341.949977 236.838278 
L 343.472135 236.753503 
L 343.907038 236.849558 
L 344.34194 236.802705 
L 344.559391 236.877007 
L 344.994293 236.649798 
L 345.211745 236.550566 
L 345.864098 236.799731 
L 346.299 236.881959 
L 346.516451 236.900081 
L 347.168805 237.260977 
L 348.473512 238.051061 
L 349.560767 238.025002 
L 351.082925 238.362127 
L 351.300376 238.294532 
L 351.735279 238.484337 
L 352.387632 238.465431 
L 352.822534 238.511724 
L 353.039985 238.456089 
L 353.474888 238.526271 
L 353.90979 238.592295 
L 354.779594 238.820448 
L 355.214497 238.898978 
L 355.431948 239.016495 
L 356.084301 239.016343 
L 358.258813 239.480241 
L 358.693715 239.479162 
L 359.563519 239.627451 
L 360.868226 239.983994 
L 361.738031 239.777492 
L 362.172933 239.827455 
L 362.607835 239.61442 
L 362.825286 239.65063 
L 363.260189 239.540525 
L 364.129993 239.855444 
L 364.782347 239.752749 
L 365.652151 239.866937 
L 365.869602 239.714385 
L 366.739407 239.784802 
L 367.826663 239.561171 
L 368.261565 239.46087 
L 368.913918 239.282902 
L 369.566272 239.182723 
L 370.870979 239.365504 
L 371.958234 239.678732 
L 372.393136 239.818846 
L 373.262941 239.931294 
L 373.915294 239.918674 
L 374.350197 240.04464 
L 374.567648 239.986095 
L 375.437452 240.315449 
L 376.089806 240.240536 
L 376.524708 240.382083 
L 376.742159 240.311239 
L 377.611964 240.55711 
L 378.046866 240.633601 
L 378.481768 240.619174 
L 379.569024 240.849496 
L 380.221377 241.034804 
L 380.65628 241.146332 
L 380.873731 241.2569 
L 381.743535 241.080475 
L 382.395889 240.859022 
L 382.830791 240.893839 
L 383.265693 241.103909 
L 384.135498 241.237014 
L 384.5704 241.337967 
L 385.657656 241.382386 
L 386.092558 241.371387 
L 386.310009 241.335463 
L 386.744911 241.500492 
L 386.962363 241.411639 
L 388.701972 241.687314 
L 389.136874 241.650513 
L 390.006678 241.390237 
L 390.659032 241.767566 
L 391.093934 242.084369 
L 391.528836 242.240552 
L 391.746288 242.392647 
L 392.18119 242.322021 
L 392.398641 242.448823 
L 393.485897 242.507736 
L 394.355701 242.56481 
L 395.660408 242.677786 
L 396.09531 242.64682 
L 398.05237 242.904179 
L 398.487273 243.044705 
L 398.487273 243.044705 
" style="fill:none;stroke:#000000;stroke-linecap:square;stroke-width:1.5;"/>
   </g>
   <g id="line2d_16">
    <path clip-path="url(#p09ee6a53c3)" d="M 73.832727 222.373922 
L 74.26763 222.231287 
L 74.702532 222.120462 
L 75.572336 221.746884 
L 76.007239 221.773333 
L 76.442141 221.600216 
L 76.877043 221.687555 
L 77.746848 221.610927 
L 78.399201 221.639611 
L 78.834103 221.57855 
L 79.051555 221.698889 
L 80.13881 226.741891 
L 81.226066 230.28338 
L 82.965675 234.955587 
L 83.618028 236.298619 
L 85.140186 239.674622 
L 85.575089 240.61274 
L 86.009991 241.472771 
L 86.879795 243.302516 
L 89.924111 248.596559 
L 90.359014 248.998046 
L 94.055683 254.260788 
L 97.752352 257.922197 
L 98.187254 258.164814 
L 99.709412 259.07562 
L 100.796668 260.012075 
L 101.23157 260.21328 
L 101.883924 260.599126 
L 102.971179 261.108303 
L 104.058435 261.957384 
L 104.92824 262.66908 
L 106.015495 263.331277 
L 106.8853 263.564025 
L 107.755104 264.217668 
L 109.059811 264.675368 
L 109.929616 265.260002 
L 110.581969 265.504344 
L 111.669225 266.152535 
L 112.104127 266.364345 
L 112.539029 266.534899 
L 113.843736 267.099405 
L 114.713541 267.536029 
L 117.975308 269.280751 
L 118.845112 269.907409 
L 119.280015 270.180096 
L 119.714917 270.379667 
L 121.454526 270.888472 
L 121.671977 271.011285 
L 122.106879 270.751673 
L 123.846488 271.408724 
L 124.716293 271.393682 
L 125.586098 271.648644 
L 126.238451 271.909091 
L 126.673353 272.133555 
L 127.325707 271.744653 
L 128.412962 271.94297 
L 129.500218 272.299301 
L 130.587474 272.429707 
L 131.239827 272.497486 
L 131.674729 272.513701 
L 132.109632 272.670709 
L 133.196887 272.686833 
L 133.63179 272.719344 
L 134.284143 273.003739 
L 134.501594 272.984298 
L 135.371399 273.255956 
L 135.806301 273.317186 
L 136.241203 273.478817 
L 136.676105 273.395528 
L 137.111008 273.558802 
L 137.54591 273.523252 
L 138.415715 273.717719 
L 138.850617 273.687615 
L 139.50297 273.792024 
L 139.937872 274.028116 
L 140.372775 273.961034 
L 140.807677 274.040695 
L 141.46003 273.967426 
L 142.112384 274.030287 
L 142.547286 274.253932 
L 143.19964 274.15362 
L 143.634542 274.377092 
L 143.851993 274.370086 
L 144.069444 274.47806 
L 144.504346 274.479278 
L 144.939249 274.524745 
L 145.374151 274.376027 
L 146.243955 274.522918 
L 146.678858 274.451626 
L 147.983565 274.867414 
L 148.635918 274.770292 
L 149.07082 274.667904 
L 149.288271 274.785239 
L 149.723174 274.770008 
L 149.940625 274.841646 
L 150.375527 274.785471 
L 150.592978 274.930733 
L 151.245332 274.929516 
L 151.680234 275.081763 
L 153.419843 275.123954 
L 153.854745 275.034048 
L 154.507099 275.088296 
L 154.942001 274.931661 
L 156.464159 274.970721 
L 157.768866 275.257964 
L 158.203768 275.242387 
L 159.291024 275.083764 
L 161.248084 275.067592 
L 161.682986 275.133134 
L 162.117888 274.965516 
L 164.074949 274.820927 
L 164.727302 274.681051 
L 165.379655 274.943015 
L 166.032009 274.677828 
L 166.466911 274.963628 
L 166.901813 274.835208 
L 167.336716 274.619111 
L 167.771618 274.551638 
L 168.20652 274.305339 
L 169.511227 274.713595 
L 170.598483 274.971594 
L 171.033385 274.973564 
L 172.772994 275.140016 
L 172.990445 275.060942 
L 173.86025 275.21027 
L 177.77437 275.301331 
L 178.209272 275.446179 
L 181.253588 276.72173 
L 181.688491 276.860183 
L 182.123393 276.977872 
L 183.863002 277.541879 
L 184.297904 277.806951 
L 184.732806 277.770431 
L 186.254964 278.012109 
L 186.907318 278.102106 
L 190.169085 278.186676 
L 191.038889 278.475237 
L 192.126145 278.552304 
L 192.343596 278.496861 
L 193.213401 278.66451 
L 193.648303 278.621 
L 193.865754 278.583442 
L 194.300656 278.695747 
L 194.518108 278.614482 
L 195.822814 278.878377 
L 196.475168 278.722337 
L 196.692619 278.828501 
L 197.562423 278.790679 
L 197.997326 278.819892 
L 198.214777 278.715628 
L 200.606739 279.115948 
L 201.041642 279.282262 
L 202.128897 279.584945 
L 202.5638 279.606391 
L 202.781251 279.708392 
L 203.216153 279.424808 
L 203.651055 279.228181 
L 204.085957 278.993525 
L 205.173213 279.437581 
L 205.825567 279.351507 
L 206.260469 279.224436 
L 206.912822 279.106527 
L 207.565176 279.081701 
L 208.652431 279.136541 
L 209.087334 279.275797 
L 209.957138 279.29333 
L 210.39204 279.323811 
L 212.566552 279.628893 
L 213.001454 279.581198 
L 213.436356 279.735185 
L 213.653807 279.838427 
L 214.958514 279.761213 
L 215.828319 279.927567 
L 216.263221 280.020482 
L 216.480672 279.915279 
L 216.915574 280.016226 
L 217.567928 279.879976 
L 217.785379 279.667762 
L 218.00283 279.619203 
L 218.220281 279.735172 
L 218.437732 279.691958 
L 219.307537 279.95234 
L 219.742439 279.996173 
L 223.004206 280.049189 
L 223.439109 280.04349 
L 223.874011 279.862506 
L 224.961267 279.577578 
L 226.048522 279.584549 
L 226.483424 279.584844 
L 227.57068 280.002206 
L 228.005582 279.962972 
L 228.223034 280.040714 
L 228.657936 279.903777 
L 229.092838 279.894412 
L 229.52774 279.895655 
L 230.180094 279.89718 
L 230.614996 279.786748 
L 231.702252 279.700703 
L 231.919703 279.766485 
L 232.572056 279.51746 
L 233.441861 279.688598 
L 233.876763 279.67426 
L 234.529116 279.373075 
L 235.833823 279.555781 
L 237.573432 279.5669 
L 238.225786 279.413165 
L 238.878139 279.468954 
L 239.313041 279.479888 
L 239.747944 279.53368 
L 240.617748 279.705465 
L 241.052651 279.557454 
L 241.487553 279.671984 
L 242.574809 279.541663 
L 243.009711 279.660036 
L 243.444613 279.72885 
L 243.879515 279.774871 
L 244.314418 279.957568 
L 244.74932 279.83372 
L 245.401673 280.005389 
L 246.923831 279.761762 
L 247.358733 279.992573 
L 248.011087 279.961386 
L 248.880891 280.098058 
L 251.055403 279.988378 
L 251.490305 280.190082 
L 253.012463 280.298681 
L 254.099719 280.240622 
L 254.534621 280.427551 
L 255.839328 280.163673 
L 256.491681 280.325526 
L 257.578937 279.870904 
L 259.318546 279.927587 
L 259.753448 280.034031 
L 260.623253 279.948564 
L 261.058155 279.950665 
L 261.493057 279.960074 
L 263.88502 280.35469 
L 264.102471 280.31708 
L 264.537373 280.459835 
L 264.972275 280.253774 
L 265.84208 280.179801 
L 266.276982 280.120599 
L 266.711885 280.222922 
L 268.668945 280.267598 
L 269.103847 280.543904 
L 270.191103 280.3891 
L 270.626005 280.600172 
L 271.930712 280.461237 
L 272.365614 280.32206 
L 272.800516 280.279388 
L 273.235419 280.21096 
L 274.540125 280.532952 
L 274.975028 280.253048 
L 275.627381 280.212414 
L 276.279735 280.082112 
L 276.714637 279.984976 
L 277.36699 280.001191 
L 277.801892 280.140648 
L 281.716013 280.123263 
L 282.150915 280.077777 
L 282.803269 280.23907 
L 286.499938 280.544842 
L 288.239547 280.396409 
L 288.8919 280.31103 
L 289.109352 280.375378 
L 289.544254 280.241852 
L 289.979156 280.376253 
L 290.414058 280.096158 
L 291.283863 280.110684 
L 291.718765 279.960407 
L 292.806021 280.033907 
L 293.240923 279.992977 
L 293.675825 280.042831 
L 294.54563 279.947941 
L 296.285239 279.764652 
L 296.50269 279.621083 
L 297.589946 274.677605 
L 298.45975 272.212417 
L 300.199359 268.133104 
L 302.808773 263.147705 
L 303.678578 261.763637 
L 305.200736 258.880909 
L 306.722894 256.322705 
L 309.332307 252.742933 
L 309.984661 251.741409 
L 310.419563 251.52653 
L 311.071916 250.887029 
L 312.376623 249.241181 
L 312.811525 248.610171 
L 313.463879 248.143619 
L 313.898781 247.727594 
L 314.116232 247.6281 
L 315.855841 245.908609 
L 316.073292 245.730026 
L 316.508195 245.096236 
L 317.160548 244.531798 
L 317.59545 244.332873 
L 318.465255 243.488008 
L 321.509571 241.022664 
L 322.596826 240.186195 
L 323.031729 239.650328 
L 323.24918 239.581977 
L 323.684082 239.254534 
L 324.336435 239.143457 
L 325.858593 238.427256 
L 327.815654 237.458882 
L 328.468007 237.421039 
L 328.902909 237.131959 
L 329.555263 236.707974 
L 329.990165 236.586591 
L 330.207616 236.426397 
L 330.85997 236.326315 
L 331.729774 235.95112 
L 332.382128 235.859448 
L 333.469383 235.566235 
L 334.77409 234.889567 
L 335.643895 234.592528 
L 336.296248 234.482882 
L 336.948601 234.513232 
L 338.253308 233.991335 
L 338.470759 234.034087 
L 339.558015 233.551734 
L 340.210368 233.182323 
L 340.645271 233.24154 
L 341.080173 232.802991 
L 341.515075 232.58551 
L 342.167429 232.101983 
L 342.602331 231.902648 
L 346.081549 230.392951 
L 347.821158 230.209297 
L 348.690963 229.745314 
L 349.778218 229.583269 
L 350.213121 229.806666 
L 350.648023 229.849886 
L 350.865474 229.890676 
L 351.300376 229.662841 
L 353.039985 229.42508 
L 353.474888 229.322366 
L 353.90979 229.348554 
L 355.214497 229.221068 
L 356.519204 228.868865 
L 356.954106 228.713836 
L 357.606459 228.698736 
L 359.346068 227.872834 
L 360.650775 227.816597 
L 361.085677 227.92349 
L 361.738031 227.823758 
L 362.172933 227.939448 
L 362.607835 228.049803 
L 363.260189 228.033101 
L 364.347444 228.487284 
L 365.652151 228.397653 
L 366.087054 228.446931 
L 366.521956 228.253719 
L 366.739407 228.228058 
L 366.956858 227.975418 
L 367.826663 227.823442 
L 369.783723 228.037571 
L 370.218625 227.898498 
L 370.653527 227.992524 
L 371.523332 227.779155 
L 372.175685 227.802288 
L 372.610588 227.908414 
L 372.828039 227.780646 
L 373.697843 227.808874 
L 374.350197 227.64648 
L 374.785099 227.682385 
L 375.00255 227.644072 
L 375.654903 227.901186 
L 376.524708 227.553531 
L 376.95961 227.654328 
L 377.177061 227.561548 
L 379.351573 227.891161 
L 379.569024 227.810564 
L 381.091182 228.204006 
L 381.526084 228.48075 
L 381.960986 228.6958 
L 382.61334 228.787959 
L 383.265693 228.807126 
L 383.700596 228.673758 
L 384.135498 228.94603 
L 384.5704 229.126596 
L 385.005302 229.362775 
L 385.222753 229.375183 
L 385.657656 229.70142 
L 386.092558 229.747527 
L 386.52746 229.861931 
L 386.744911 229.829574 
L 386.962363 229.925431 
L 387.397265 229.865576 
L 387.614716 230.050776 
L 388.48452 230.133584 
L 388.919423 230.308953 
L 389.571776 230.29656 
L 390.006678 230.588826 
L 390.22413 230.513938 
L 390.876483 230.830969 
L 391.963739 230.718861 
L 392.616092 230.904314 
L 393.268445 230.908664 
L 393.920799 231.451244 
L 394.355701 231.645798 
L 395.225506 231.862158 
L 396.09531 231.802534 
L 396.312761 231.93697 
L 396.747664 231.8489 
L 397.182566 232.04157 
L 398.269822 231.678201 
L 398.487273 231.751705 
L 398.487273 231.751705 
" style="fill:none;stroke:#000000;stroke-linecap:square;stroke-width:1.5;"/>
   </g>
   <g id="line2d_17">
    <path clip-path="url(#p09ee6a53c3)" d="M 73.832727 233.82684 
L 74.050178 233.761754 
L 74.26763 233.837936 
L 74.485081 233.751863 
L 74.702532 233.817266 
L 76.442141 233.21311 
L 76.659592 233.024607 
L 77.094494 232.896109 
L 77.746848 232.390859 
L 78.399201 232.397091 
L 79.051555 232.036104 
L 80.356261 225.996368 
L 82.530773 219.632882 
L 83.183126 218.085476 
L 84.052931 215.727116 
L 86.444893 210.873598 
L 87.097247 209.713264 
L 88.401953 206.471962 
L 88.619404 205.666891 
L 88.836856 205.289904 
L 89.054307 204.493177 
L 89.271758 204.237965 
L 89.924111 202.413267 
L 90.141562 201.24446 
L 90.359014 200.978408 
L 90.576465 199.786877 
L 90.793916 199.438114 
L 91.011367 198.710356 
L 91.228818 197.346458 
L 91.446269 197.947555 
L 91.66372 195.771641 
L 91.881172 196.583445 
L 92.098623 194.937754 
L 92.316074 195.035172 
L 92.533525 195.369067 
L 92.750976 191.400966 
L 92.968427 194.737425 
L 93.185878 186.283066 
L 93.403329 194.188923 
L 93.620781 168.663065 
L 93.838232 106.232753 
L 94.490585 222.660827 
L 94.708036 237.033973 
L 94.925487 237.481217 
L 95.142939 239.364092 
L 95.36039 239.799103 
L 95.577841 237.592749 
L 95.795292 238.187672 
L 96.012743 235.717454 
L 96.230194 236.043454 
L 96.447645 234.450225 
L 96.882548 233.198065 
L 97.099999 231.845357 
L 97.31745 231.746207 
L 97.534901 230.605817 
L 97.752352 230.224946 
L 98.622157 227.613728 
L 98.839608 227.305193 
L 99.27451 226.040393 
L 99.709412 225.124249 
L 101.449021 221.394706 
L 102.536277 219.146295 
L 103.188631 217.533752 
L 104.493337 214.45987 
L 104.92824 213.757324 
L 106.450398 210.557307 
L 107.320202 208.408419 
L 107.755104 207.670854 
L 108.407458 206.389511 
L 108.84236 205.755097 
L 109.929616 203.513824 
L 110.581969 202.067059 
L 111.016871 201.061565 
L 111.886676 199.269653 
L 112.104127 199.097697 
L 112.321578 197.784127 
L 112.539029 197.512364 
L 112.973932 195.812438 
L 113.191383 196.063883 
L 113.408834 194.477227 
L 113.626285 194.811438 
L 113.843736 193.125225 
L 114.061187 193.132566 
L 114.278638 192.802416 
L 114.49609 191.067667 
L 114.713541 192.540466 
L 114.930992 188.127519 
L 115.148443 191.494358 
L 115.365894 185.391648 
L 115.583345 186.687002 
L 115.800796 177.110061 
L 116.018248 112.00224 
L 116.235699 125.84248 
L 116.45315 196.911839 
L 116.888052 230.877065 
L 117.105503 235.354581 
L 117.322954 235.632541 
L 117.540406 238.140089 
L 117.757857 235.510535 
L 117.975308 236.482722 
L 118.192759 234.39205 
L 118.41021 234.259672 
L 118.627661 233.517652 
L 118.845112 232.228708 
L 119.062563 232.23435 
L 119.280015 230.742874 
L 119.497466 230.541733 
L 119.932368 228.885272 
L 120.149819 228.408696 
L 120.36727 227.61909 
L 120.584721 227.277236 
L 121.019624 225.861054 
L 122.324331 222.312429 
L 124.933744 216.555923 
L 126.455902 214.114319 
L 127.108255 212.56321 
L 128.847865 208.846953 
L 130.587474 205.709776 
L 130.804925 205.46618 
L 131.89218 203.07051 
L 132.109632 202.232924 
L 132.327083 201.951779 
L 133.196887 199.64783 
L 133.414338 199.682216 
L 133.63179 198.632584 
L 133.849241 198.71704 
L 134.284143 197.224655 
L 134.501594 197.166925 
L 134.719045 194.7805 
L 134.936496 195.867856 
L 135.153948 193.638488 
L 135.371399 194.190955 
L 135.58885 192.768066 
L 135.806301 189.876059 
L 136.023752 191.674766 
L 136.241203 182.602695 
L 136.458654 190.260084 
L 136.893557 101.159753 
L 137.328459 208.925708 
L 137.763361 235.267204 
L 137.980812 235.266316 
L 138.198263 238.16318 
L 138.415715 237.657226 
L 138.633166 236.464177 
L 138.850617 236.588027 
L 139.068068 234.292078 
L 139.285519 234.624235 
L 139.50297 232.787295 
L 139.720421 232.409525 
L 139.937872 231.774326 
L 140.155324 230.727348 
L 140.372775 230.528579 
L 140.590226 229.362896 
L 140.807677 229.048412 
L 141.677482 226.312126 
L 141.894933 225.827831 
L 142.764737 223.032442 
L 144.721797 218.796549 
L 145.809053 216.308526 
L 146.026504 216.062165 
L 148.635918 210.156822 
L 151.02788 204.16865 
L 151.462783 203.182277 
L 152.767489 200.603366 
L 154.072196 196.904392 
L 154.289647 195.585558 
L 154.507099 195.455442 
L 154.72455 193.669572 
L 154.942001 193.301181 
L 155.376903 190.278341 
L 155.594354 190.907959 
L 155.811805 188.443803 
L 156.029257 190.207075 
L 156.246708 186.862508 
L 156.464159 187.489062 
L 156.68161 186.445596 
L 156.899061 181.526347 
L 157.116512 184.844192 
L 157.333963 130.199377 
L 157.551414 105.35627 
L 157.986317 210.44971 
L 158.421219 232.873619 
L 158.63867 232.230945 
L 158.856121 235.930902 
L 159.073572 234.020835 
L 159.291024 234.227997 
L 159.725926 231.902392 
L 159.943377 231.962805 
L 160.160828 230.150325 
L 160.378279 230.133336 
L 160.813182 228.329979 
L 161.030633 227.876867 
L 161.248084 227.024175 
L 161.465535 226.756559 
L 161.682986 225.946567 
L 161.900437 225.598301 
L 162.335339 224.233159 
L 162.552791 223.866536 
L 163.422595 221.601842 
L 165.162204 217.443372 
L 166.032009 215.144775 
L 168.858874 209.062915 
L 169.511227 207.91702 
L 169.946129 207.174607 
L 171.250836 205.278552 
L 172.338092 203.023717 
L 172.772994 202.39843 
L 173.425347 200.850291 
L 173.642799 200.637817 
L 175.599859 195.525844 
L 175.81731 195.409156 
L 176.034761 193.811699 
L 176.252212 194.255357 
L 176.469663 192.521328 
L 176.687114 192.478687 
L 176.904566 191.57966 
L 177.122017 189.932567 
L 177.339468 190.93927 
L 177.556919 186.470129 
L 177.77437 189.125174 
L 177.991821 182.179103 
L 178.209272 184.375748 
L 178.426723 171.997507 
L 178.644175 107.649568 
L 178.861626 124.254269 
L 179.079077 193.299039 
L 179.513979 227.960449 
L 179.73143 232.379878 
L 179.948881 233.472938 
L 180.166333 235.833456 
L 180.383784 233.298002 
L 180.601235 234.07002 
L 180.818686 231.984304 
L 181.036137 231.622067 
L 181.471039 229.623999 
L 181.688491 229.480865 
L 181.905942 228.036101 
L 182.123393 227.80877 
L 182.558295 226.149257 
L 183.210648 224.281329 
L 183.645551 222.891539 
L 184.297904 221.079118 
L 185.167709 218.952674 
L 186.472416 216.434292 
L 187.124769 214.951679 
L 187.559671 213.70195 
L 188.212025 212.479612 
L 190.603987 207.712309 
L 191.038889 206.810722 
L 191.473792 206.155754 
L 192.343596 204.468455 
L 192.778498 203.932137 
L 193.213401 203.405203 
L 194.300656 201.75385 
L 194.95301 200.678453 
L 195.387912 200.033366 
L 197.997326 193.882266 
L 198.214777 193.085817 
L 198.432228 192.8099 
L 199.302033 190.827316 
L 199.519484 190.916167 
L 199.736935 189.412385 
L 199.954386 189.284443 
L 200.389288 187.805461 
L 200.606739 187.789325 
L 200.82419 185.398723 
L 201.041642 186.560252 
L 201.259093 182.753462 
L 201.476544 184.046258 
L 201.911446 177.916764 
L 202.128897 175.545892 
L 202.346348 117.050602 
L 202.5638 108.276782 
L 202.781251 177.498583 
L 202.998702 209.083036 
L 203.433604 230.898249 
L 203.651055 230.756398 
L 203.868506 234.040155 
L 204.085957 232.066691 
L 204.303409 232.716631 
L 204.738311 230.858869 
L 204.955762 230.674337 
L 205.173213 229.270698 
L 205.390664 229.400856 
L 205.608115 228.142046 
L 206.043018 227.110852 
L 206.695371 225.023572 
L 206.912822 224.794799 
L 208.217529 221.697238 
L 208.652431 220.805037 
L 211.479296 215.346054 
L 214.08871 211.458223 
L 216.915574 206.494625 
L 217.567928 205.578935 
L 219.742439 202.023891 
L 222.786755 195.335397 
L 223.004206 194.973174 
L 223.439109 193.83805 
L 224.091462 192.029817 
L 224.308913 190.844683 
L 224.526364 191.030065 
L 224.961267 189.956414 
L 225.178718 189.651099 
L 225.396169 187.650263 
L 225.61362 188.620225 
L 225.831071 186.647653 
L 226.048522 187.340755 
L 226.483424 183.264053 
L 226.700876 184.171681 
L 226.918327 177.135624 
L 227.135778 183.099753 
L 227.57068 98.012884 
L 228.005582 202.271624 
L 228.440485 228.880056 
L 228.657936 229.274738 
L 228.875387 232.344598 
L 229.310289 230.792968 
L 229.52774 230.710856 
L 229.745191 228.842811 
L 229.962643 229.069288 
L 230.180094 227.509792 
L 230.397545 227.328646 
L 231.919703 222.948967 
L 232.572056 221.331925 
L 233.441861 219.148304 
L 236.268726 213.048863 
L 236.921079 211.758942 
L 237.790884 209.735077 
L 238.443237 208.377721 
L 239.965395 205.506679 
L 241.270102 204.126665 
L 241.922455 203.144994 
L 242.139906 202.686139 
L 243.227162 201.632208 
L 243.662064 201.008176 
L 243.879515 200.883125 
L 247.141282 195.885738 
L 247.576185 195.634664 
L 247.793636 195.009264 
L 248.011087 194.925286 
L 248.880891 192.158451 
L 249.098343 192.358599 
L 249.315794 190.7585 
L 249.533245 191.015484 
L 249.968147 188.977954 
L 250.185598 189.162638 
L 250.403049 186.663477 
L 250.620501 187.825476 
L 250.837952 183.897286 
L 251.055403 184.767779 
L 251.707756 176.087557 
L 251.925207 119.000067 
L 252.142658 107.165825 
L 252.36011 175.212273 
L 252.577561 207.359619 
L 253.012463 230.21031 
L 253.229914 230.656133 
L 253.447365 234.104678 
L 253.664816 231.93956 
L 253.882268 232.331708 
L 254.31717 230.177621 
L 254.534621 230.212203 
L 254.752072 228.680037 
L 254.969523 228.530471 
L 255.186974 227.190607 
L 255.621877 226.056107 
L 255.839328 225.114043 
L 256.056779 224.776499 
L 256.491681 223.438379 
L 257.578937 220.825661 
L 258.666193 218.008692 
L 259.318546 216.562129 
L 259.753448 215.769171 
L 260.18835 214.726062 
L 260.623253 213.929914 
L 261.710508 211.317434 
L 263.015215 208.431086 
L 264.319922 206.294686 
L 264.754824 205.372402 
L 267.79914 200.027259 
L 269.321298 197.08246 
L 269.538749 196.852354 
L 270.191103 195.644919 
L 271.278358 193.264249 
L 271.713261 192.398009 
L 271.930712 191.324079 
L 272.148163 191.540364 
L 272.365614 190.431386 
L 272.583065 190.365202 
L 273.017967 188.09093 
L 273.235419 188.406331 
L 273.45287 185.703916 
L 273.670321 186.700646 
L 273.887772 183.08413 
L 274.105223 183.179872 
L 274.322674 180.990992 
L 274.540125 176.638539 
L 274.757577 178.119697 
L 274.975028 124.195647 
L 275.192479 102.088569 
L 275.627381 206.318724 
L 276.062283 229.90348 
L 276.279735 229.829712 
L 276.497186 233.135726 
L 276.714637 231.119388 
L 276.932088 231.045432 
L 277.36699 229.032191 
L 277.584441 229.010187 
L 277.801892 227.464969 
L 278.019344 227.478561 
L 278.454246 225.61936 
L 278.671697 225.149532 
L 278.889148 224.253276 
L 279.106599 223.864028 
L 279.541502 222.372336 
L 280.628757 219.208923 
L 285.195231 208.136645 
L 286.717389 205.511321 
L 288.022096 203.470371 
L 288.456998 202.751712 
L 290.196607 199.844956 
L 293.675825 191.551184 
L 294.328179 189.288838 
L 294.54563 189.568188 
L 294.763081 188.003584 
L 294.980532 188.164097 
L 295.197983 187.149513 
L 295.415434 185.414362 
L 295.632886 186.113302 
L 295.850337 181.67263 
L 296.067788 183.524434 
L 296.285239 176.927455 
L 296.50269 178.220787 
L 296.720141 165.764679 
L 296.937592 106.422296 
L 297.155044 122.073019 
L 297.372495 188.904265 
L 297.807397 227.10795 
L 298.024848 232.58337 
L 298.45975 237.250904 
L 298.677201 235.662594 
L 298.894653 237.115402 
L 299.112104 236.000706 
L 299.329555 236.431694 
L 299.547006 236.269679 
L 299.764457 235.655825 
L 299.981908 236.002548 
L 300.199359 235.22814 
L 300.416811 235.514979 
L 300.851713 234.785541 
L 301.069164 234.612448 
L 301.286615 234.258928 
L 301.504066 234.409821 
L 301.721517 234.182092 
L 304.11348 233.448111 
L 304.548382 233.098267 
L 305.635638 232.6324 
L 306.07054 232.443846 
L 306.940345 232.13392 
L 308.245051 231.98285 
L 308.679954 231.962264 
L 309.114856 231.89729 
L 309.549758 231.850519 
L 309.767209 231.925379 
L 310.419563 231.755858 
L 310.637014 231.839893 
L 311.071916 231.603644 
L 311.289367 231.790116 
L 311.941721 231.743338 
L 312.376623 231.532079 
L 313.68133 231.639303 
L 314.333683 231.642905 
L 314.986037 231.891289 
L 315.63839 231.786865 
L 316.943097 231.164358 
L 317.59545 230.948344 
L 318.030353 230.711581 
L 318.465255 230.517853 
L 319.117608 230.334667 
L 319.552511 229.966211 
L 319.987413 229.933457 
L 320.204864 229.788809 
L 320.857217 229.044166 
L 321.29212 228.665518 
L 322.161924 228.091073 
L 323.466631 228.314388 
L 324.118984 228.203137 
L 324.336435 228.305772 
L 324.771338 228.191668 
L 324.988789 228.319917 
L 325.423691 228.15835 
L 325.641142 228.228535 
L 326.945849 227.915036 
L 327.380751 227.97918 
L 328.685458 227.515641 
L 329.12036 227.162328 
L 329.555263 227.121362 
L 330.85997 227.158581 
L 331.294872 227.0957 
L 332.164676 227.24463 
L 332.382128 227.247207 
L 332.81703 227.114142 
L 333.251932 227.129437 
L 334.121737 226.654967 
L 334.556639 226.614538 
L 336.078797 226.309988 
L 336.513699 226.038427 
L 337.166052 225.846198 
L 338.470759 225.192179 
L 339.123113 225.495451 
L 339.775466 225.411129 
L 340.210368 225.3654 
L 340.645271 225.214503 
L 341.732526 224.974149 
L 342.167429 225.005351 
L 342.819782 224.871978 
L 343.254684 224.846043 
L 343.907038 224.954597 
L 344.124489 224.920183 
L 344.559391 225.013018 
L 344.994293 224.852661 
L 346.299 224.630354 
L 346.733902 224.472772 
L 347.168805 224.272419 
L 347.821158 224.649047 
L 348.473512 224.654942 
L 349.343316 224.93843 
L 350.213121 225.015844 
L 350.430572 225.055697 
L 351.082925 224.891108 
L 351.300376 224.849572 
L 351.735279 224.545021 
L 352.170181 224.514726 
L 352.822534 224.688981 
L 353.692339 224.615168 
L 354.127241 224.664188 
L 355.649399 224.736922 
L 355.86685 224.563519 
L 358.258813 224.430955 
L 358.693715 224.714434 
L 359.563519 224.674854 
L 359.998422 224.772028 
L 360.433324 224.566433 
L 360.868226 224.577902 
L 361.303129 224.787356 
L 362.390384 225.09616 
L 363.260189 225.326184 
L 363.695091 225.358359 
L 363.912542 225.244728 
L 364.347444 225.368553 
L 364.564896 225.258679 
L 364.999798 225.305017 
L 365.217249 225.237285 
L 365.652151 225.367056 
L 366.087054 225.339691 
L 366.304505 225.37668 
L 366.956858 225.128973 
L 370.870979 225.164516 
L 371.305881 225.127268 
L 371.740783 225.245477 
L 372.175685 225.357353 
L 372.610588 225.18498 
L 373.04549 225.316101 
L 373.697843 225.226667 
L 374.132746 224.954469 
L 374.567648 224.704134 
L 375.00255 224.500674 
L 376.307257 224.574308 
L 378.046866 224.82824 
L 378.916671 224.665347 
L 380.003926 224.672691 
L 380.438828 224.444436 
L 380.873731 224.477058 
L 381.308633 224.199068 
L 381.526084 224.231156 
L 382.395889 223.882868 
L 383.700596 223.934042 
L 383.918047 224.045259 
L 385.657656 223.782278 
L 386.092558 223.866229 
L 386.744911 223.652606 
L 387.179814 223.679885 
L 387.614716 223.856283 
L 387.832167 223.736704 
L 388.267069 223.775725 
L 388.48452 223.697514 
L 388.919423 223.935512 
L 389.571776 223.863472 
L 390.006678 223.882742 
L 390.876483 223.523816 
L 391.311385 223.723772 
L 391.746288 223.592539 
L 394.355701 223.316465 
L 394.790603 223.59991 
L 395.225506 223.618757 
L 395.877859 223.76696 
L 396.312761 223.753329 
L 396.747664 223.646285 
L 397.182566 223.666764 
L 397.617468 223.71536 
L 398.05237 223.810962 
L 398.487273 224.114348 
L 398.487273 224.114348 
" style="fill:none;stroke:#000000;stroke-linecap:square;stroke-width:1.5;"/>
   </g>
   <g id="patch_3">
    <path d="M 57.6 307.584 
L 57.6 41.472 
" style="fill:none;stroke:#000000;stroke-linecap:square;stroke-linejoin:miter;stroke-width:0.8;"/>
   </g>
   <g id="patch_4">
    <path d="M 414.72 307.584 
L 414.72 41.472 
" style="fill:none;stroke:#000000;stroke-linecap:square;stroke-linejoin:miter;stroke-width:0.8;"/>
   </g>
   <g id="patch_5">
    <path d="M 57.6 307.584 
L 414.72 307.584 
" style="fill:none;stroke:#000000;stroke-linecap:square;stroke-linejoin:miter;stroke-width:0.8;"/>
   </g>
   <g id="patch_6">
    <path d="M 57.6 41.472 
L 414.72 41.472 
" style="fill:none;stroke:#000000;stroke-linecap:square;stroke-linejoin:miter;stroke-width:0.8;"/>
   </g>
  </g>
 </g>
 <defs>
  <clipPath id="p09ee6a53c3">
   <rect height="266.112" width="357.12" x="57.6" y="41.472"/>
  </clipPath>
 </defs>
</svg>
