<?xml version="1.0" encoding="utf-8" standalone="no"?>
<!DOCTYPE svg PUBLIC "-//W3C//DTD SVG 1.1//EN"
  "http://www.w3.org/Graphics/SVG/1.1/DTD/svg11.dtd">
<svg xmlns:xlink="http://www.w3.org/1999/xlink" width="265.704687pt" height="197.398125pt" viewBox="0 0 265.704687 197.398125" xmlns="http://www.w3.org/2000/svg" version="1.1">
 <metadata>
  <rdf:RDF xmlns:dc="http://purl.org/dc/elements/1.1/" xmlns:cc="http://creativecommons.org/ns#" xmlns:rdf="http://www.w3.org/1999/02/22-rdf-syntax-ns#">
   <cc:Work>
    <dc:type rdf:resource="http://purl.org/dc/dcmitype/StillImage"/>
    <dc:date>2025-12-19T12:05:42.146171</dc:date>
    <dc:format>image/svg+xml</dc:format>
    <dc:creator>
     <cc:Agent>
      <dc:title>Matplotlib v3.10.7, https://matplotlib.org/</dc:title>
     </cc:Agent>
    </dc:creator>
   </cc:Work>
  </rdf:RDF>
 </metadata>
 <defs>
  <style type="text/css">*{stroke-linejoin: round; stroke-linecap: butt}</style>
 </defs>
 <g id="figure_1">
  <g id="patch_1">
   <path d="M 0 197.398125 
L 265.704687 197.398125 
L 265.704687 0 
L 0 0 
z
" style="fill: #ffffff"/>
  </g>
  <g id="axes_1">
   <g id="patch_2">
    <path d="M 35.304688 173.52 
L 258.504687 173.52 
L 258.504687 7.2 
L 35.304688 7.2 
z
" style="fill: #ffffff"/>
   </g>
   <g id="matplotlib.axis_1">
    <g id="xtick_1">
     <g id="line2d_1">
      <defs>
       <path id="m63eb5bf5a8" d="M 0 0 
L 0 3.5 
" style="stroke: #000000; stroke-width: 0.8"/>
      </defs>
      <g>
       <use xlink:href="#m63eb5bf5a8" x="76.350396" y="173.52" style="stroke: #000000; stroke-width: 0.8"/>
      </g>
     </g>
     <g id="text_1">
      <!-- 1 -->
      <g transform="translate(73.169146 188.118438) scale(0.1 -0.1)">
       <defs>
        <path id="DejaVuSans-31" d="M 794 531 
L 1825 531 
L 1825 4091 
L 703 3866 
L 703 4441 
L 1819 4666 
L 2450 4666 
L 2450 531 
L 3481 531 
L 3481 0 
L 794 0 
L 794 531 
z
" transform="scale(0.015625)"/>
       </defs>
       <use xlink:href="#DejaVuSans-31"/>
      </g>
     </g>
    </g>
    <g id="xtick_2">
     <g id="line2d_2">
      <g>
       <use xlink:href="#m63eb5bf5a8" x="127.850819" y="173.52" style="stroke: #000000; stroke-width: 0.8"/>
      </g>
     </g>
     <g id="text_2">
      <!-- 2 -->
      <g transform="translate(124.669569 188.118438) scale(0.1 -0.1)">
       <defs>
        <path id="DejaVuSans-32" d="M 1228 531 
L 3431 531 
L 3431 0 
L 469 0 
L 469 531 
Q 828 903 1448 1529 
Q 2069 2156 2228 2338 
Q 2531 2678 2651 2914 
Q 2772 3150 2772 3378 
Q 2772 3750 2511 3984 
Q 2250 4219 1831 4219 
Q 1534 4219 1204 4116 
Q 875 4013 500 3803 
L 500 4441 
Q 881 4594 1212 4672 
Q 1544 4750 1819 4750 
Q 2544 4750 2975 4387 
Q 3406 4025 3406 3419 
Q 3406 3131 3298 2873 
Q 3191 2616 2906 2266 
Q 2828 2175 2409 1742 
Q 1991 1309 1228 531 
z
" transform="scale(0.015625)"/>
       </defs>
       <use xlink:href="#DejaVuSans-32"/>
      </g>
     </g>
    </g>
    <g id="xtick_3">
     <g id="line2d_3">
      <g>
       <use xlink:href="#m63eb5bf5a8" x="179.351241" y="173.52" style="stroke: #000000; stroke-width: 0.8"/>
      </g>
     </g>
     <g id="text_3">
      <!-- 3 -->
      <g transform="translate(176.169991 188.118438) scale(0.1 -0.1)">
       <defs>
        <path id="DejaVuSans-33" d="M 2597 2516 
Q 3050 2419 3304 2112 
Q 3559 1806 3559 1356 
Q 3559 666 3084 287 
Q 2609 -91 1734 -91 
Q 1441 -91 1130 -33 
Q 819 25 488 141 
L 488 750 
Q 750 597 1062 519 
Q 1375 441 1716 441 
Q 2309 441 2620 675 
Q 2931 909 2931 1356 
Q 2931 1769 2642 2001 
Q 2353 2234 1838 2234 
L 1294 2234 
L 1294 2753 
L 1863 2753 
Q 2328 2753 2575 2939 
Q 2822 3125 2822 3475 
Q 2822 3834 2567 4026 
Q 2313 4219 1838 4219 
Q 1578 4219 1281 4162 
Q 984 4106 628 3988 
L 628 4550 
Q 988 4650 1302 4700 
Q 1616 4750 1894 4750 
Q 2613 4750 3031 4423 
Q 3450 4097 3450 3541 
Q 3450 3153 3228 2886 
Q 3006 2619 2597 2516 
z
" transform="scale(0.015625)"/>
       </defs>
       <use xlink:href="#DejaVuSans-33"/>
      </g>
     </g>
    </g>
    <g id="xtick_4">
     <g id="line2d_4">
      <g>
       <use xlink:href="#m63eb5bf5a8" x="230.851664" y="173.52" style="stroke: #000000; stroke-width: 0.8"/>
      </g>
     </g>
     <g id="text_4">
      <!-- 4 -->
      <g transform="translate(227.670414 188.118438) scale(0.1 -0.1)">
       <defs>
        <path id="DejaVuSans-34" d="M 2419 4116 
L 825 1625 
L 2419 1625 
L 2419 4116 
z
M 2253 4666 
L 3047 4666 
L 3047 1625 
L 3713 1625 
L 3713 1100 
L 3047 1100 
L 3047 0 
L 2419 0 
L 2419 1100 
L 313 1100 
L 313 1709 
L 2253 4666 
z
" transform="scale(0.015625)"/>
       </defs>
       <use xlink:href="#DejaVuSans-34"/>
      </g>
     </g>
    </g>
   </g>
   <g id="matplotlib.axis_2">
    <g id="ytick_1">
     <g id="line2d_5">
      <defs>
       <path id="m3d0af2dc8f" d="M 0 0 
L -3.5 0 
" style="stroke: #000000; stroke-width: 0.8"/>
      </defs>
      <g>
       <use xlink:href="#m3d0af2dc8f" x="35.304688" y="160.128565" style="stroke: #000000; stroke-width: 0.8"/>
      </g>
     </g>
     <g id="text_5">
      <!-- −80 -->
      <g transform="translate(7.2 163.927784) scale(0.1 -0.1)">
       <defs>
        <path id="DejaVuSans-2212" d="M 678 2272 
L 4684 2272 
L 4684 1741 
L 678 1741 
L 678 2272 
z
" transform="scale(0.015625)"/>
        <path id="DejaVuSans-38" d="M 2034 2216 
Q 1584 2216 1326 1975 
Q 1069 1734 1069 1313 
Q 1069 891 1326 650 
Q 1584 409 2034 409 
Q 2484 409 2743 651 
Q 3003 894 3003 1313 
Q 3003 1734 2745 1975 
Q 2488 2216 2034 2216 
z
M 1403 2484 
Q 997 2584 770 2862 
Q 544 3141 544 3541 
Q 544 4100 942 4425 
Q 1341 4750 2034 4750 
Q 2731 4750 3128 4425 
Q 3525 4100 3525 3541 
Q 3525 3141 3298 2862 
Q 3072 2584 2669 2484 
Q 3125 2378 3379 2068 
Q 3634 1759 3634 1313 
Q 3634 634 3220 271 
Q 2806 -91 2034 -91 
Q 1263 -91 848 271 
Q 434 634 434 1313 
Q 434 1759 690 2068 
Q 947 2378 1403 2484 
z
M 1172 3481 
Q 1172 3119 1398 2916 
Q 1625 2713 2034 2713 
Q 2441 2713 2670 2916 
Q 2900 3119 2900 3481 
Q 2900 3844 2670 4047 
Q 2441 4250 2034 4250 
Q 1625 4250 1398 4047 
Q 1172 3844 1172 3481 
z
" transform="scale(0.015625)"/>
        <path id="DejaVuSans-30" d="M 2034 4250 
Q 1547 4250 1301 3770 
Q 1056 3291 1056 2328 
Q 1056 1369 1301 889 
Q 1547 409 2034 409 
Q 2525 409 2770 889 
Q 3016 1369 3016 2328 
Q 3016 3291 2770 3770 
Q 2525 4250 2034 4250 
z
M 2034 4750 
Q 2819 4750 3233 4129 
Q 3647 3509 3647 2328 
Q 3647 1150 3233 529 
Q 2819 -91 2034 -91 
Q 1250 -91 836 529 
Q 422 1150 422 2328 
Q 422 3509 836 4129 
Q 1250 4750 2034 4750 
z
" transform="scale(0.015625)"/>
       </defs>
       <use xlink:href="#DejaVuSans-2212"/>
       <use xlink:href="#DejaVuSans-38" transform="translate(83.789062 0)"/>
       <use xlink:href="#DejaVuSans-30" transform="translate(147.412109 0)"/>
      </g>
     </g>
    </g>
    <g id="ytick_2">
     <g id="line2d_6">
      <g>
       <use xlink:href="#m3d0af2dc8f" x="35.304688" y="136.473652" style="stroke: #000000; stroke-width: 0.8"/>
      </g>
     </g>
     <g id="text_6">
      <!-- −60 -->
      <g transform="translate(7.2 140.272871) scale(0.1 -0.1)">
       <defs>
        <path id="DejaVuSans-36" d="M 2113 2584 
Q 1688 2584 1439 2293 
Q 1191 2003 1191 1497 
Q 1191 994 1439 701 
Q 1688 409 2113 409 
Q 2538 409 2786 701 
Q 3034 994 3034 1497 
Q 3034 2003 2786 2293 
Q 2538 2584 2113 2584 
z
M 3366 4563 
L 3366 3988 
Q 3128 4100 2886 4159 
Q 2644 4219 2406 4219 
Q 1781 4219 1451 3797 
Q 1122 3375 1075 2522 
Q 1259 2794 1537 2939 
Q 1816 3084 2150 3084 
Q 2853 3084 3261 2657 
Q 3669 2231 3669 1497 
Q 3669 778 3244 343 
Q 2819 -91 2113 -91 
Q 1303 -91 875 529 
Q 447 1150 447 2328 
Q 447 3434 972 4092 
Q 1497 4750 2381 4750 
Q 2619 4750 2861 4703 
Q 3103 4656 3366 4563 
z
" transform="scale(0.015625)"/>
       </defs>
       <use xlink:href="#DejaVuSans-2212"/>
       <use xlink:href="#DejaVuSans-36" transform="translate(83.789062 0)"/>
       <use xlink:href="#DejaVuSans-30" transform="translate(147.412109 0)"/>
      </g>
     </g>
    </g>
    <g id="ytick_3">
     <g id="line2d_7">
      <g>
       <use xlink:href="#m3d0af2dc8f" x="35.304688" y="112.818739" style="stroke: #000000; stroke-width: 0.8"/>
      </g>
     </g>
     <g id="text_7">
      <!-- −40 -->
      <g transform="translate(7.2 116.617958) scale(0.1 -0.1)">
       <use xlink:href="#DejaVuSans-2212"/>
       <use xlink:href="#DejaVuSans-34" transform="translate(83.789062 0)"/>
       <use xlink:href="#DejaVuSans-30" transform="translate(147.412109 0)"/>
      </g>
     </g>
    </g>
    <g id="ytick_4">
     <g id="line2d_8">
      <g>
       <use xlink:href="#m3d0af2dc8f" x="35.304688" y="89.163827" style="stroke: #000000; stroke-width: 0.8"/>
      </g>
     </g>
     <g id="text_8">
      <!-- −20 -->
      <g transform="translate(7.2 92.963045) scale(0.1 -0.1)">
       <use xlink:href="#DejaVuSans-2212"/>
       <use xlink:href="#DejaVuSans-32" transform="translate(83.789062 0)"/>
       <use xlink:href="#DejaVuSans-30" transform="translate(147.412109 0)"/>
      </g>
     </g>
    </g>
    <g id="ytick_5">
     <g id="line2d_9">
      <g>
       <use xlink:href="#m3d0af2dc8f" x="35.304688" y="65.508914" style="stroke: #000000; stroke-width: 0.8"/>
      </g>
     </g>
     <g id="text_9">
      <!-- 0 -->
      <g transform="translate(21.942187 69.308133) scale(0.1 -0.1)">
       <use xlink:href="#DejaVuSans-30"/>
      </g>
     </g>
    </g>
    <g id="ytick_6">
     <g id="line2d_10">
      <g>
       <use xlink:href="#m3d0af2dc8f" x="35.304688" y="41.854001" style="stroke: #000000; stroke-width: 0.8"/>
      </g>
     </g>
     <g id="text_10">
      <!-- 20 -->
      <g transform="translate(15.579687 45.65322) scale(0.1 -0.1)">
       <use xlink:href="#DejaVuSans-32"/>
       <use xlink:href="#DejaVuSans-30" transform="translate(63.623047 0)"/>
      </g>
     </g>
    </g>
    <g id="ytick_7">
     <g id="line2d_11">
      <g>
       <use xlink:href="#m3d0af2dc8f" x="35.304688" y="18.199088" style="stroke: #000000; stroke-width: 0.8"/>
      </g>
     </g>
     <g id="text_11">
      <!-- 40 -->
      <g transform="translate(15.579687 21.998307) scale(0.1 -0.1)">
       <use xlink:href="#DejaVuSans-34"/>
       <use xlink:href="#DejaVuSans-30" transform="translate(63.623047 0)"/>
      </g>
     </g>
    </g>
   </g>
   <g id="line2d_12">
    <path d="M 45.450142 142.281986 
L 45.468167 142.354175 
L 45.522243 142.173703 
L 45.553143 142.209797 
L 45.661294 142.137608 
L 45.576318 142.318081 
L 45.666444 142.173703 
L 45.733394 142.101513 
L 45.78232 142.281986 
L 45.872446 142.173703 
L 45.831245 142.354175 
L 45.895621 142.245892 
L 45.926521 142.318081 
L 46.011497 142.39027 
L 45.954846 142.245892 
L 46.034672 142.245892 
L 46.122223 142.354175 
L 46.073297 142.209797 
L 46.150548 142.318081 
L 46.250974 142.209797 
L 46.266424 142.245892 
L 46.490451 142.173703 
L 46.493026 142.101513 
L 46.567701 142.281986 
L 46.598601 142.173703 
L 46.652677 142.281986 
L 46.629502 142.137608 
L 46.714477 142.245892 
L 46.794303 142.318081 
L 46.796878 142.39027 
L 46.848379 142.209797 
L 46.902454 142.281986 
L 47.64921 142.39027 
L 47.651785 142.426364 
L 47.65951 142.245892 
L 47.752211 142.318081 
L 47.762511 142.354175 
L 47.865512 142.245892 
L 47.891262 142.354175 
L 47.896412 142.209797 
L 47.973663 142.209797 
L 48.030313 142.245892 
L 48.040613 142.209797 
L 48.141039 142.354175 
L 48.210565 142.245892 
L 48.166789 142.39027 
L 48.251765 142.281986 
L 48.357341 142.39027 
L 48.28524 142.245892 
L 48.362491 142.354175 
L 48.416566 142.426364 
L 48.470642 142.281986 
L 48.576218 142.534648 
L 48.583943 142.426364 
L 49.536701 142.498553 
L 49.572751 142.570742 
L 49.629401 142.39027 
L 49.644851 142.462459 
L 49.714377 142.318081 
L 49.650002 142.498553 
L 49.758152 142.426364 
L 50.072305 142.39027 
L 50.09033 142.426364 
L 50.183031 142.245892 
L 50.288607 142.39027 
L 50.293757 142.354175 
L 50.404483 142.245892 
L 50.365857 142.39027 
L 50.407058 142.281986 
L 50.430233 142.39027 
L 50.484308 142.209797 
L 50.512634 142.245892 
L 50.584734 142.137608 
L 50.600184 142.209797 
L 50.723785 145.999723 
L 50.73666 146.108007 
L 51.138364 150.294973 
L 51.140939 150.222783 
L 51.148664 150.331067 
L 51.298015 151.413903 
L 51.31604 151.449998 
L 51.442216 152.388455 
L 51.447366 152.352361 
L 51.637918 153.471291 
L 51.655943 153.507386 
L 51.779544 154.193182 
L 51.782119 154.157088 
L 51.913445 154.770695 
L 51.934045 154.878978 
L 51.944345 154.806789 
L 52.088547 155.492585 
L 52.129747 155.600869 
L 52.253348 155.997909 
L 52.291973 156.070098 
L 52.405274 156.539327 
L 52.415574 156.431043 
L 52.44905 156.503232 
L 52.5572 156.864178 
L 52.5675 156.828083 
L 52.685951 157.152934 
L 52.696252 157.080745 
L 52.788952 157.333407 
L 52.871353 157.513879 
L 52.796677 157.261217 
L 52.909978 157.477785 
L 52.974354 157.586068 
L 52.989804 157.549974 
L 53.09023 157.694352 
L 53.10568 157.586068 
L 53.188081 157.874825 
L 53.198381 157.766541 
L 53.216406 157.694352 
L 53.311682 157.910919 
L 53.461033 158.019203 
L 53.574334 158.199675 
L 53.494508 157.947014 
L 53.582059 158.163581 
L 53.612959 158.199675 
L 53.69536 158.055297 
L 53.71081 158.091392 
L 53.759735 158.199675 
L 53.803511 157.983108 
L 53.821536 158.127486 
L 53.919387 158.055297 
L 53.852436 158.163581 
L 53.932262 158.091392 
L 53.970887 158.163581 
L 53.981187 158.019203 
L 54.042988 158.127486 
L 54.143413 157.947014 
L 54.156289 158.091392 
L 54.212939 157.983108 
L 54.215514 157.947014 
L 54.251564 158.091392 
L 54.31594 158.019203 
L 54.318515 158.127486 
L 54.38804 157.910919 
L 54.424091 157.983108 
L 54.720218 157.910919 
L 54.782019 157.802635 
L 54.725368 157.947014 
L 54.830944 157.910919 
L 54.841244 157.947014 
L 54.949395 157.658257 
L 54.964845 157.802635 
L 55.000895 157.622163 
L 55.060121 157.658257 
L 55.160547 157.730446 
L 55.093596 157.549974 
L 55.170847 157.658257 
L 55.428349 157.549974 
L 55.5365 157.405596 
L 55.433499 157.586068 
L 55.544225 157.44169 
L 55.58285 157.513879 
L 55.611175 157.405596 
L 55.652376 157.44169 
L 55.696151 157.477785 
L 55.770827 157.297312 
L 55.773402 157.44169 
L 55.788852 157.261217 
L 55.881553 157.297312 
L 55.992279 157.189028 
L 56.082404 157.116839 
L 56.000004 157.261217 
L 56.103005 157.189028 
L 56.11073 157.297312 
L 56.200855 157.04465 
L 56.211155 157.116839 
L 56.432607 157.008556 
L 56.545908 156.900272 
L 56.517583 157.080745 
L 56.548483 156.936367 
L 56.623159 157.008556 
L 56.648909 156.828083 
L 56.654059 156.864178 
L 56.73646 156.755894 
L 56.659209 156.936367 
L 56.76221 156.864178 
L 56.764785 156.900272 
L 56.816285 156.755894 
L 56.865211 156.755894 
L 57.228289 156.683705 
L 57.261764 156.719799 
L 57.344165 156.503232 
L 57.354465 156.64761 
L 57.426565 156.467138 
L 57.454891 156.503232 
L 57.735568 156.394949 
L 57.745868 156.503232 
L 57.848869 156.358854 
L 57.923544 156.467138 
L 57.895219 156.32276 
L 57.95702 156.394949 
L 58.067746 156.250571 
L 58.070321 156.286665 
L 58.119246 156.394949 
L 58.173322 156.214476 
L 58.178472 156.286665 
L 58.299498 156.142287 
L 58.314948 156.214476 
L 58.317523 156.286665 
L 58.389623 156.106192 
L 58.423099 156.178381 
L 58.626525 156.070098 
L 58.678026 155.997909 
L 58.721801 156.178381 
L 58.734676 156.070098 
L 58.742401 156.178381 
L 58.788752 155.997909 
L 58.840252 156.070098 
L 58.948403 155.961814 
L 58.860852 156.106192 
L 58.950978 155.997909 
L 58.999903 156.034003 
L 59.041104 155.853531 
L 59.056554 155.92572 
L 59.128654 155.709153 
L 59.17758 155.745247 
L 59.18273 155.853531 
L 59.22908 155.673058 
L 59.283156 155.745247 
L 59.357831 155.636963 
L 59.296031 155.781342 
L 59.393882 155.745247 
L 59.509757 155.636963 
L 59.584433 155.745247 
L 59.610183 155.600869 
L 59.620483 155.636963 
L 59.713184 155.709153 
L 59.630783 155.600869 
L 59.728634 155.636963 
L 59.731209 155.564774 
L 59.80331 155.709153 
L 59.83936 155.636963 
L 60.004162 155.564774 
L 60.006737 155.492585 
L 60.027337 155.636963 
L 60.112312 155.564774 
L 60.122613 155.492585 
L 60.220463 155.636963 
L 60.333764 155.492585 
L 60.344064 155.636963 
L 60.426465 155.456491 
L 60.447065 155.564774 
L 60.557791 155.420396 
L 60.562941 155.456491 
L 60.632467 155.52868 
L 60.609292 155.420396 
L 60.676242 155.492585 
L 60.763793 155.420396 
L 60.694267 155.600869 
L 60.789543 155.456491 
L 60.812718 155.564774 
L 60.871944 155.384302 
L 60.900269 155.52868 
L 61.02387 151.63047 
L 61.402398 147.80445 
L 61.404973 147.876639 
L 61.484799 147.154748 
L 61.489949 147.190843 
L 61.626425 146.071912 
L 61.636725 146.108007 
L 61.68565 145.638778 
L 61.703675 145.674872 
L 61.835002 144.808603 
L 61.840152 144.844698 
L 61.904527 144.447658 
L 61.917402 144.447658 
L 62.082204 143.689673 
L 62.097654 143.653578 
L 62.21353 143.11216 
L 62.21868 143.148255 
L 62.247005 143.076066 
L 62.373181 142.642931 
L 62.422106 142.570742 
L 62.535407 142.101513 
L 62.545707 142.137608 
L 62.563733 142.173703 
L 62.638408 141.921041 
L 62.643558 141.957135 
L 62.759434 141.632285 
L 62.774884 141.59619 
L 62.893335 141.271339 
L 62.89591 141.343528 
L 62.991186 141.090867 
L 62.998911 141.126961 
L 63.014361 141.19915 
L 63.040111 140.982583 
L 63.099337 141.018677 
L 63.212638 140.80211 
L 63.109637 141.054772 
L 63.215213 140.838205 
L 63.217788 140.874299 
L 63.310489 140.693827 
L 63.318214 140.729921 
L 63.436665 140.441165 
L 63.441815 140.513354 
L 63.467565 140.585543 
L 63.51649 140.40507 
L 63.549966 140.477259 
L 63.642666 140.40507 
L 63.652966 140.477259 
L 63.758542 140.260692 
L 63.766267 140.332881 
L 63.869268 140.152409 
L 63.951669 140.296787 
L 63.979994 140.188503 
L 64.072695 140.08022 
L 63.995444 140.224598 
L 64.093295 140.152409 
L 64.201446 140.08022 
L 64.240071 140.152409 
L 64.312172 140.008031 
L 64.330197 140.152409 
L 64.412598 139.935841 
L 64.420323 139.971936 
L 64.443498 139.935841 
L 64.502723 140.116314 
L 64.525899 140.044125 
L 64.693275 140.116314 
L 64.698425 140.08022 
L 64.809151 140.296787 
L 64.873527 140.188503 
L 64.899277 140.332881 
L 64.919877 140.296787 
L 65.195404 140.40507 
L 65.241755 140.296787 
L 65.308705 140.441165 
L 65.378231 140.296787 
L 65.422006 140.368976 
L 65.429731 140.296787 
L 65.504407 140.477259 
L 65.525007 140.368976 
L 65.635733 140.513354 
L 65.712983 140.441165 
L 65.723283 140.621638 
L 65.743884 140.585543 
L 65.87006 140.657732 
L 65.872635 140.729921 
L 65.88036 140.621638 
L 65.978211 140.621638 
L 66.179062 140.621638 
L 66.266613 140.766016 
L 66.222838 140.585543 
L 66.289788 140.729921 
L 66.444289 140.838205 
L 66.488065 140.766016 
L 66.560165 140.910394 
L 66.709517 140.982583 
L 66.789342 141.126961 
L 66.822818 141.054772 
L 66.959294 141.126961 
L 66.979894 141.271339 
L 67.07002 141.163056 
L 67.08032 141.126961 
L 67.129245 141.271339 
L 67.175595 141.19915 
L 67.219371 141.126961 
L 67.291471 141.307434 
L 67.304346 141.19915 
L 67.345547 141.343528 
L 67.399622 141.343528 
L 67.500048 141.451812 
L 67.404772 141.307434 
L 67.512923 141.415717 
L 67.579874 141.343528 
L 67.556699 141.487906 
L 67.621074 141.415717 
L 67.7215 141.560095 
L 67.626224 141.379623 
L 67.73695 141.487906 
L 68.063978 141.59619 
L 68.141228 141.704474 
L 68.069128 141.560095 
L 68.174704 141.59619 
L 68.177279 141.560095 
L 68.205604 141.704474 
L 68.280279 141.668379 
L 68.694858 141.704474 
L 68.702583 141.668379 
L 68.808159 141.812757 
L 68.857084 141.704474 
L 68.89571 141.848852 
L 68.918885 141.776663 
L 69.029611 141.884946 
L 69.021886 141.704474 
L 69.032186 141.812757 
L 69.706841 141.848852 
L 69.737741 141.99323 
L 69.778942 141.812757 
L 69.817567 141.848852 
L 70.015844 141.957135 
L 70.067344 142.029324 
L 70.103394 141.921041 
L 70.123995 141.99323 
L 70.129145 141.921041 
L 70.19352 142.065419 
L 70.232146 141.99323 
L 70.304246 141.884946 
L 70.345446 142.065419 
L 70.435572 141.884946 
L 70.458747 141.957135 
L 70.554023 142.065419 
L 70.497373 141.921041 
L 70.572048 141.99323 
L 70.723975 142.101513 
L 70.7523 141.99323 
L 70.832125 142.137608 
L 70.914526 141.99323 
L 70.942851 142.065419 
L 71.120528 142.173703 
L 71.164303 142.101513 
L 71.236404 142.281986 
L 71.251854 142.173703 
L 71.293054 142.354175 
L 71.34713 142.281986 
L 71.457856 142.39027 
L 71.35743 142.245892 
L 71.460431 142.318081 
L 71.571157 142.281986 
L 71.573732 142.173703 
L 71.656132 142.426364 
L 71.679307 142.354175 
L 71.710208 142.426364 
L 71.692182 142.281986 
L 71.790033 142.354175 
L 71.820934 142.426364 
L 71.903334 142.245892 
L 72.016635 142.354175 
L 72.122211 142.245892 
L 72.075861 142.426364 
L 72.127361 142.281986 
L 72.150536 142.39027 
L 72.135086 142.209797 
L 72.243237 142.354175 
L 72.297312 142.245892 
L 72.315338 142.426364 
L 72.353963 142.318081 
L 72.464689 142.426364 
L 72.384863 142.209797 
L 72.467264 142.39027 
L 72.500739 142.245892 
L 72.534214 142.462459 
L 72.57799 142.354175 
L 72.673266 142.426364 
L 72.590865 142.318081 
L 72.691291 142.39027 
L 72.696441 142.281986 
L 72.760816 142.462459 
L 72.802017 142.354175 
L 72.863817 142.426364 
L 72.886992 142.281986 
L 72.912743 142.354175 
L 73.443197 142.462459 
L 73.489547 142.534648 
L 73.448347 142.39027 
L 73.551348 142.426364 
L 73.739324 142.318081 
L 73.744474 142.281986 
L 73.754774 142.462459 
L 73.847475 142.354175 
L 73.909276 142.462459 
L 73.911851 142.318081 
L 73.958201 142.354175 
L 74.058627 142.281986 
L 73.971076 142.426364 
L 74.068927 142.354175 
L 75.158161 142.426364 
L 75.160736 142.498553 
L 75.248287 142.318081 
L 75.266312 142.354175 
L 75.369313 142.462459 
L 75.359013 142.281986 
L 75.377038 142.39027 
L 75.449138 142.281986 
L 75.387338 142.426364 
L 75.487764 142.39027 
L 75.871442 142.498553 
L 75.964143 142.606837 
L 75.879167 142.462459 
L 75.984743 142.570742 
L 76.090319 142.498553 
L 76.007918 142.606837 
L 76.095469 142.570742 
L 76.350396 142.534648 
L 76.473997 148.165395 
L 76.759824 153.110346 
L 76.772699 153.21863 
L 77.279978 158.813282 
L 77.285128 158.777188 
L 77.346929 159.3547 
L 77.349504 159.3547 
L 77.599281 161.303805 
L 77.619881 161.412089 
L 77.815583 162.639303 
L 77.828458 162.603208 
L 77.895408 163.072437 
L 77.921159 163.180721 
L 77.934034 163.144626 
L 78.083385 163.938706 
L 78.08596 163.830423 
L 78.170936 164.191368 
L 78.188961 164.155273 
L 78.317712 164.480124 
L 78.320287 164.44403 
L 78.348612 164.552313 
L 78.472213 164.985448 
L 78.485088 164.913259 
L 78.487663 164.877164 
L 78.575214 165.202015 
L 78.585514 165.129826 
L 78.70139 165.418582 
L 78.740015 165.490771 
L 78.850741 165.635149 
L 78.745165 165.418582 
L 78.853316 165.56296 
L 78.971767 165.779527 
L 78.976917 165.743433 
L 79.224119 165.815622 
L 79.26017 165.743433 
L 79.334845 165.923905 
L 79.404371 165.779527 
L 79.401796 165.96 
L 79.445571 165.887811 
L 79.615523 165.815622 
L 79.708223 165.707338 
L 79.659298 165.851716 
L 79.726248 165.779527 
L 79.749424 165.743433 
L 79.831824 165.56296 
L 79.767449 165.779527 
L 79.862725 165.635149 
L 79.976026 165.526866 
L 80.081601 165.454677 
L 80.061001 165.599055 
L 80.089326 165.490771 
L 80.140827 165.490771 
L 80.228378 165.310298 
L 80.251553 165.382487 
L 80.254128 165.418582 
L 80.333953 165.238109 
L 80.354554 165.310298 
L 80.467855 165.093731 
L 80.478155 165.129826 
L 80.539955 165.057637 
L 80.653256 164.877164 
L 80.655831 164.949353 
L 80.727932 164.660597 
L 80.756257 164.732786 
L 80.782007 164.76888 
L 80.882433 164.516219 
L 80.967409 164.44403 
L 81.052384 164.227462 
L 81.083285 164.263557 
L 81.124485 164.335746 
L 81.16311 164.155273 
L 81.186285 164.191368 
L 81.276411 164.010895 
L 81.304736 164.04699 
L 81.320187 164.083084 
L 81.381987 163.830423 
L 81.405162 163.902612 
L 81.451513 163.866517 
L 81.503013 163.902612 
L 81.564814 163.64995 
L 81.580264 163.758233 
L 81.670389 163.541666 
L 81.75794 163.469477 
L 81.77339 163.505572 
L 81.871241 163.289005 
L 81.907291 163.397288 
L 81.953642 163.180721 
L 81.976817 163.216815 
L 82.087543 162.964154 
L 81.989692 163.25291 
L 82.095268 163.072437 
L 82.097843 163.108532 
L 82.180244 162.819776 
L 82.190544 162.85587 
L 82.314145 162.567114 
L 82.195694 162.891965 
L 82.31672 162.603208 
L 82.37337 162.639303 
L 82.40942 162.422736 
L 82.414571 162.422736 
L 82.496971 162.314452 
L 82.502121 162.386641 
L 82.620572 162.06179 
L 82.697823 162.133979 
L 82.715848 161.953507 
L 82.728723 161.989601 
L 82.744173 162.097885 
L 82.780224 161.845223 
L 82.831724 161.917412 
L 82.95275 161.628656 
L 82.9579 161.664751 
L 83.027426 161.700845 
L 83.011975 161.520372 
L 83.058326 161.556467 
L 83.176777 161.3399 
L 83.078926 161.592561 
L 83.181927 161.375994 
L 83.297803 161.267711 
L 83.390504 161.087238 
L 83.308103 161.303805 
L 83.418829 161.123333 
L 83.498654 161.051143 
L 83.60423 160.834576 
L 83.61453 160.870671 
L 83.617105 160.94286 
L 83.694356 160.762387 
L 83.722681 160.834576 
L 83.838557 160.618009 
L 83.864307 160.726293 
L 83.938983 160.473631 
L 83.944133 160.509725 
L 84.016234 160.401442 
L 84.129535 160.184875 
L 84.13211 160.257064 
L 84.144985 160.293158 
L 84.253136 160.076591 
L 84.258286 160.14878 
L 84.330386 159.932213 
L 84.356136 160.004402 
L 84.474587 159.787835 
L 84.484888 159.860024 
L 84.559563 159.715646 
L 84.580163 159.715646 
L 84.662564 159.607362 
L 84.685739 159.679551 
L 84.78874 159.390795 
L 84.796465 159.462984 
L 84.850541 159.282511 
L 84.894316 159.318606 
L 84.961266 159.210322 
L 84.974142 159.246417 
L 85.079717 159.065944 
L 85.095168 159.102039 
L 85.172418 158.849377 
L 85.182718 158.957661 
L 85.280569 158.741093 
L 85.303744 158.777188 
L 85.319194 158.849377 
L 85.401595 158.63281 
L 85.411895 158.741093 
L 85.514896 158.488432 
L 85.525196 158.560621 
L 85.653947 158.488432 
L 85.769823 158.271864 
L 85.870249 158.091392 
L 85.803298 158.344053 
L 85.885699 158.163581 
L 85.919174 158.199675 
L 85.955225 158.019203 
L 85.9887 158.055297 
L 86.076251 157.83873 
L 86.112301 157.874825 
L 86.125176 157.947014 
L 86.161226 157.766541 
L 86.215302 157.802635 
L 86.326028 157.586068 
L 86.328603 157.658257 
L 86.398128 157.549974 
L 86.434179 157.622163 
L 86.514004 157.44169 
L 86.524304 157.513879 
L 86.60413 157.261217 
L 86.611855 157.261217 
L 86.683956 157.152934 
L 86.799832 156.972461 
L 86.694256 157.225123 
L 86.802407 157.008556 
L 86.812707 157.080745 
L 86.866782 156.864178 
L 86.905407 156.936367 
L 87.023858 156.719799 
L 86.915707 156.972461 
L 87.029008 156.755894 
L 87.041884 156.864178 
L 87.062484 156.64761 
L 87.129434 156.683705 
L 87.247885 156.467138 
L 87.312261 156.539327 
L 87.307111 156.394949 
L 87.356036 156.467138 
L 87.477062 156.214476 
L 87.502812 156.32276 
L 87.580063 156.106192 
L 87.585213 156.178381 
L 87.726839 156.106192 
L 87.80924 155.889625 
L 87.84014 156.034003 
L 87.89164 156.070098 
L 87.925116 155.92572 
L 87.948291 155.997909 
L 88.059017 155.817436 
L 87.971466 156.106192 
L 88.066742 155.853531 
L 88.082192 155.889625 
L 88.146568 155.709153 
L 88.177468 155.853531 
L 88.290769 155.564774 
L 88.293344 155.636963 
L 88.45557 155.564774 
L 88.568871 155.456491 
L 88.604921 155.384302 
L 88.682172 155.52868 
L 88.798048 155.276018 
L 88.836673 155.420396 
L 88.872724 155.239924 
L 88.908774 155.312113 
L 88.929374 155.239924 
L 88.960274 155.276018 
L 89.042675 155.095545 
L 89.112201 155.13164 
L 89.117351 154.987262 
L 89.148251 155.023356 
L 89.251252 154.915073 
L 89.346527 154.770695 
L 89.269277 154.951167 
L 89.367128 154.806789 
L 89.398028 154.878978 
L 89.457253 154.698506 
L 89.472703 154.7346 
L 89.488154 154.806789 
L 89.591154 154.626317 
L 89.616905 154.7346 
L 89.663255 154.554127 
L 89.70188 154.626317 
L 89.817756 154.481938 
L 89.70703 154.662411 
L 89.820331 154.518033 
L 89.858957 154.445844 
L 89.871832 154.518033 
L 89.972258 154.33756 
L 89.992858 154.373655 
L 90.041783 154.193182 
L 90.077833 154.265371 
L 90.165384 154.193182 
L 90.26581 154.084899 
L 90.27611 154.193182 
L 90.278685 154.229277 
L 90.335336 153.976615 
L 90.376536 154.048804 
L 90.474387 154.012709 
L 90.500137 153.832237 
L 90.587688 153.868331 
L 90.646913 153.94052 
L 90.592838 153.832237 
L 90.695839 153.832237 
L 90.773089 153.832237 
L 90.863215 153.579575 
L 90.88639 153.687859 
L 91.007416 153.471291 
L 91.009991 153.507386 
L 91.151617 153.399102 
L 91.254618 153.254724 
L 91.167067 153.435197 
L 91.267493 153.326913 
L 91.270068 153.363008 
L 91.349894 153.182535 
L 91.370494 153.21863 
L 91.545595 153.110346 
L 91.558471 153.182535 
L 91.661471 152.965968 
L 91.692372 153.074252 
L 91.749022 152.857684 
L 91.769622 152.893779 
L 91.854598 152.749401 
L 91.846873 152.929873 
L 91.882923 152.785495 
L 91.885498 152.857684 
L 91.936999 152.677212 
L 91.991074 152.713306 
L 92.088925 152.605023 
L 92.114675 152.641117 
L 92.199651 152.460645 
L 92.202226 152.568928 
L 92.289777 152.352361 
L 92.307802 152.388455 
L 92.379902 152.280172 
L 92.454578 152.135794 
L 92.385052 152.316266 
L 92.498353 152.171888 
L 92.511228 152.244077 
L 92.593629 152.02751 
L 92.603929 152.135794 
L 92.70178 151.955321 
L 92.719805 151.991416 
L 92.74298 152.02751 
L 92.786756 151.847037 
L 92.825381 151.919227 
L 92.943832 151.702659 
L 92.948982 151.738754 
L 92.987607 151.847037 
L 92.995332 151.666565 
L 93.057133 151.738754 
L 93.178159 151.594376 
L 93.185884 151.702659 
L 93.252835 151.486092 
L 93.28631 151.522187 
L 93.445961 151.449998 
L 93.556687 151.305619 
L 93.559262 151.341714 
L 93.561837 151.377809 
L 93.649388 151.197336 
L 93.664838 151.341714 
L 93.778139 151.125147 
L 93.780714 151.161241 
L 93.842514 151.197336 
L 93.796164 151.125147 
L 93.88629 151.125147 
L 93.971265 151.016863 
L 93.904315 151.197336 
L 93.997016 151.089052 
L 94.071691 151.161241 
L 94.089716 151.016863 
L 94.102591 151.016863 
L 94.179842 150.90858 
L 94.259668 150.836391 
L 94.195292 151.016863 
L 94.293143 150.872485 
L 94.295718 150.944674 
L 94.334343 150.728107 
L 94.398719 150.872485 
L 94.49142 150.728107 
L 94.509445 150.836391 
L 94.620171 150.619823 
L 94.633046 150.655918 
L 94.790122 150.547634 
L 94.810722 150.475445 
L 94.833897 150.619823 
L 94.900848 150.51154 
L 94.929173 150.547634 
L 94.960074 150.367162 
L 95.011574 150.51154 
L 95.124875 150.294973 
L 95.130025 150.331067 
L 95.1326 150.403256 
L 95.186675 150.186689 
L 95.240751 150.331067 
L 95.359202 150.150594 
L 95.361777 150.186689 
L 95.390102 150.258878 
L 95.410702 150.078405 
L 95.467353 150.150594 
L 95.562628 149.934027 
L 95.583229 150.006216 
L 95.647604 149.861838 
L 95.632154 150.042311 
L 95.693955 149.897933 
L 95.69653 150.006216 
L 95.776355 149.753555 
L 95.802105 149.789649 
L 95.881931 149.861838 
L 95.884506 149.681365 
L 95.910256 149.753555 
L 96.033857 149.573082 
L 96.131708 149.464798 
L 96.245009 149.32042 
L 96.162608 149.500893 
L 96.247584 149.392609 
L 96.391785 149.32042 
L 96.502511 149.103853 
L 96.505086 149.139947 
L 96.608087 149.176042 
L 96.543712 149.031664 
L 96.615812 149.139947 
L 96.636412 149.139947 
L 96.747138 148.995569 
L 96.762588 149.103853 
L 96.847564 148.92338 
L 96.852714 148.995569 
L 96.966015 148.779002 
L 96.976315 148.887286 
L 97.040691 148.706813 
L 97.074166 148.815097 
L 97.192617 148.598529 
L 97.200342 148.742908 
L 97.293043 148.490246 
L 97.300768 148.598529 
L 97.380593 148.345868 
L 97.424369 148.418057 
L 97.53252 148.309773 
L 97.53767 148.345868 
L 97.648396 148.20149 
L 97.671571 148.237584 
L 97.748821 148.057111 
L 97.751396 148.093206 
L 97.841522 147.948828 
L 97.774572 148.129301 
L 97.867272 147.984922 
L 97.890448 148.057111 
L 97.944523 147.840544 
L 97.975423 147.984922 
L 98.088724 147.80445 
L 98.093874 147.840544 
L 98.111899 147.876639 
L 98.1531 147.696166 
L 98.202025 147.80445 
L 98.302451 147.587883 
L 98.323051 147.660072 
L 98.374552 147.696166 
L 98.423477 147.551788 
L 98.428627 147.623977 
L 98.541928 147.479599 
L 98.565103 147.551788 
L 98.634629 147.299126 
L 98.650079 147.443504 
L 98.776255 147.190843 
L 98.82518 147.299126 
L 98.866381 147.118654 
L 98.881831 147.190843 
L 98.997707 147.01037 
L 99.165083 146.902086 
L 99.288684 146.721614 
L 99.324734 146.865992 
L 99.39426 146.649425 
L 99.396835 146.721614 
L 99.484386 146.541141 
L 99.401985 146.757708 
L 99.512711 146.649425 
L 99.515286 146.685519 
L 99.556486 146.468952 
L 99.613137 146.505047 
L 99.626012 146.541141 
L 99.731588 146.360668 
L 99.747038 146.396763 
L 99.757338 146.252385 
L 99.834589 146.252385 
L 99.950465 146.144101 
L 100.03029 146.108007 
L 100.01999 146.288479 
L 100.05604 146.21629 
L 100.07149 146.144101 
L 100.179641 146.035818 
L 100.182216 146.071912 
L 100.184791 146.108007 
L 100.259467 145.891439 
L 100.282642 145.963629 
L 100.401093 145.855345 
L 100.478344 145.81925 
L 100.586495 145.638778 
L 100.496369 145.855345 
L 100.591645 145.674872 
L 100.694646 145.566589 
L 100.802796 145.386116 
L 100.710096 145.602683 
L 100.815672 145.422211 
L 100.849147 145.530494 
L 100.908372 145.313927 
L 100.923822 145.386116 
L 100.970173 145.277832 
L 100.977898 145.350021 
L 101.083474 145.205643 
L 101.158149 145.277832 
L 101.101499 145.169549 
L 101.191625 145.241738 
L 101.307501 145.09736 
L 101.449127 145.025171 
L 101.559853 144.880793 
L 101.562428 144.916887 
L 101.621653 144.844698 
L 101.649978 144.952982 
L 101.737529 144.70032 
L 101.758129 144.772509 
L 101.786455 144.628131 
L 101.84568 144.664225 
L 101.943531 144.519847 
L 101.961556 144.592036 
L 102.031082 144.519847 
L 102.046532 144.555942 
L 102.146958 144.267185 
L 102.216483 144.411564 
L 102.260258 144.375469 
L 102.332359 144.158902 
L 102.383859 144.194996 
L 102.49201 144.122807 
L 102.605311 143.942335 
L 102.638787 144.050618 
L 102.679987 143.797957 
L 102.708312 143.834051 
L 102.824188 143.689673 
L 102.916889 143.581389 
L 103.027615 143.473106 
L 102.942639 143.653578 
L 103.03019 143.545295 
L 103.09199 143.473106 
L 103.110015 143.5092 
L 103.207866 143.328728 
L 103.367518 143.220444 
L 103.377818 143.148255 
L 103.403568 143.292633 
L 103.478243 143.220444 
L 103.558069 143.148255 
L 103.63017 143.256539 
L 103.67137 143.039971 
L 103.725445 143.148255 
L 103.774371 142.931688 
L 103.779521 142.967782 
L 103.831021 143.039971 
L 103.872222 142.895593 
L 103.887672 142.931688 
L 103.972648 142.823404 
L 103.990673 142.859499 
L 104.091098 142.715121 
L 104.119424 142.823404 
L 104.129724 142.679026 
L 104.201824 142.715121 
L 104.243025 142.642931 
L 104.2868 142.715121 
L 104.356326 142.570742 
L 104.387226 142.606837 
L 104.423276 142.426364 
L 104.461902 142.534648 
L 104.557177 142.281986 
L 104.577777 142.354175 
L 104.644728 142.245892 
L 104.752879 142.137608 
L 104.670478 142.318081 
L 104.760604 142.173703 
L 104.86618 142.101513 
L 104.873905 142.137608 
L 104.979481 141.99323 
L 105.002656 142.065419 
L 105.036131 141.884946 
L 105.087632 141.957135 
L 105.193208 141.776663 
L 105.206083 141.812757 
L 105.242133 141.884946 
L 105.303933 141.704474 
L 105.314234 141.740568 
L 105.386334 141.560095 
L 105.432685 141.632285 
L 105.569161 141.524001 
L 105.605211 141.632285 
L 105.685037 141.451812 
L 105.800913 141.343528 
L 105.826663 141.379623 
L 105.919364 141.19915 
L 106.009489 141.271339 
L 105.950264 141.126961 
L 106.030089 141.19915 
L 106.151115 141.090867 
L 106.259266 140.946488 
L 106.187166 141.163056 
L 106.266991 141.018677 
L 106.418918 140.982583 
L 106.524493 140.766016 
L 106.532219 140.80211 
L 106.684145 140.729921 
L 106.794871 140.585543 
L 106.797446 140.621638 
L 106.882421 140.549449 
L 106.918472 140.585543 
L 106.995722 140.441165 
L 107.008597 140.513354 
L 107.054948 140.332881 
L 107.101298 140.368976 
L 107.178549 140.224598 
L 107.219749 140.260692 
L 107.255799 140.368976 
L 107.2764 140.188503 
L 107.3279 140.260692 
L 107.451501 140.08022 
L 107.551927 140.116314 
L 107.510727 140.008031 
L 107.559652 140.08022 
L 107.678103 139.863652 
L 107.781104 139.791463 
L 107.688403 139.971936 
L 107.788829 139.863652 
L 107.842904 139.755369 
L 107.855779 139.791463 
L 107.966505 139.574896 
L 107.976805 139.647085 
L 108.059206 139.394423 
L 108.072081 139.466613 
L 108.123582 139.358329 
L 108.211132 139.213951 
L 108.234308 139.28614 
L 108.239458 139.394423 
L 108.316708 139.069573 
L 108.332158 139.105667 
L 108.406834 139.105667 
L 108.51756 138.925195 
L 108.445459 139.141762 
L 108.520135 138.961289 
L 108.641161 138.8891 
L 108.741587 138.744722 
L 108.654036 138.961289 
L 108.754462 138.780816 
L 108.782787 138.672533 
L 108.883213 138.564249 
L 108.798237 138.780816 
L 108.896088 138.636438 
L 108.975914 138.600344 
L 109.068614 138.311587 
L 109.089215 138.455966 
L 109.171615 138.419871 
L 109.207666 138.239398 
L 109.284916 138.275493 
L 109.460018 138.203304 
L 109.565593 138.022831 
L 109.573319 138.058926 
L 109.575894 138.131115 
L 109.673744 137.914548 
L 109.678894 137.950642 
L 109.79477 137.806264 
L 109.81537 137.878453 
L 109.843696 137.69798 
L 109.902921 137.734075 
L 109.946697 137.806264 
L 109.956997 137.661886 
L 110.008497 137.69798 
L 110.119223 137.589697 
L 110.023947 137.734075 
L 110.121798 137.625791 
L 110.134673 137.69798 
L 110.147548 137.553602 
L 110.227374 137.589697 
L 110.281449 137.409224 
L 110.340675 137.481413 
L 110.464276 137.409224 
L 110.580152 137.192657 
L 110.595602 137.300941 
L 110.636802 137.012184 
L 110.685728 137.120468 
L 110.773278 136.939995 
L 110.693453 137.192657 
L 110.801604 137.048279 
L 110.835079 136.939995 
L 110.945805 136.831712 
L 110.842804 137.012184 
L 110.950955 136.867806 
L 111.097731 136.759523 
L 111.208457 136.687333 
L 111.108031 136.795617 
L 111.211032 136.723428 
L 111.296008 136.651239 
L 111.401584 136.57905 
L 111.301158 136.723428 
L 111.406734 136.615144 
L 111.429909 136.651239 
L 111.473684 136.434672 
L 111.507159 136.506861 
L 111.61531 136.290294 
L 111.525185 136.57905 
L 111.623035 136.326388 
L 111.679686 136.398577 
L 111.705436 136.254199 
L 111.728611 136.254199 
L 111.741486 136.362483 
L 111.847062 136.145915 
L 111.867662 136.254199 
L 111.950063 136.073726 
L 111.952638 136.073726 
L 112.076239 135.965443 
L 112.186965 135.857159 
L 112.18954 135.893254 
L 112.297691 135.640592 
L 112.313141 135.676687 
L 112.323441 135.712781 
L 112.410992 135.532308 
L 112.413567 135.568403 
L 112.534593 135.424025 
L 112.640169 135.351836 
L 112.750895 135.171363 
L 112.678794 135.424025 
L 112.75347 135.243552 
L 112.78952 135.351836 
L 112.83072 135.171363 
L 112.861621 135.243552 
L 112.964621 135.063079 
L 112.871921 135.279647 
L 112.977496 135.135269 
L 113.008397 135.171363 
L 113.075347 134.99089 
L 113.077922 135.026985 
L 113.188648 134.846512 
L 113.191223 134.918701 
L 113.247874 134.954796 
L 113.286499 134.774323 
L 113.294224 134.810418 
L 113.35345 134.629945 
L 113.307099 134.846512 
L 113.407525 134.738229 
L 113.412675 134.774323 
L 113.531126 134.557756 
L 113.770603 134.485567 
L 113.883904 134.305094 
L 113.886479 134.341189 
L 114.136256 134.269 
L 114.252132 134.052433 
L 114.275307 134.160716 
L 114.355133 133.944149 
L 114.422083 133.835865 
L 114.442683 133.944149 
L 114.537959 133.763676 
L 114.540534 133.835865 
L 114.58946 133.655393 
L 114.64611 133.727582 
L 114.759411 133.547109 
L 114.821212 133.655393 
L 114.826362 133.47492 
L 114.864987 133.47492 
L 114.993738 133.402731 
L 115.107039 133.150069 
L 115.112189 133.186164 
L 115.153389 133.222258 
L 115.20489 133.005691 
L 115.217765 133.113975 
L 115.341366 132.897407 
L 115.374841 133.005691 
L 115.390291 132.825218 
L 115.452092 132.933502 
L 115.567968 132.716935 
L 115.611743 132.753029 
L 115.663244 132.572557 
L 115.673544 132.644746 
L 115.699294 132.536462 
L 115.80487 132.392084 
L 115.707019 132.608651 
L 115.812595 132.464273 
L 115.833195 132.500368 
L 115.86667 132.2838 
L 115.920746 132.428179 
L 116.046922 132.211611 
L 116.093272 132.139422 
L 116.196273 131.922855 
L 116.209148 131.995044 
L 116.222023 132.067233 
L 116.242623 131.850666 
L 116.319874 131.995044 
L 116.353349 132.031139 
L 116.43575 131.814571 
L 116.4924 131.922855 
L 116.531026 131.742382 
L 116.543901 131.778477 
L 116.693252 131.742382 
L 116.796253 131.56191 
L 116.806553 131.598004 
L 116.811703 131.706288 
L 116.863203 131.525815 
L 116.914704 131.525815 
L 116.927579 131.417532 
L 116.937879 131.489721 
L 117.04088 131.345343 
L 117.06663 131.453626 
L 117.10783 131.200964 
L 117.146456 131.200964 
L 117.177356 131.273153 
L 117.267482 131.056586 
L 117.313832 130.984397 
L 117.383358 130.803925 
L 117.427133 130.840019 
L 117.429708 130.912208 
L 117.524984 130.623452 
L 117.532709 130.695641 
L 117.535284 130.731735 
L 117.563609 130.479074 
L 117.63056 130.515168 
L 117.71296 130.442979 
L 117.828836 130.262507 
L 117.839136 130.334696 
L 117.908662 130.154223 
L 117.936987 130.298601 
L 118.047713 130.045939 
L 118.050288 130.154223 
L 118.081188 130.190317 
L 118.142989 129.937656 
L 118.148139 129.97375 
L 118.158439 130.009845 
L 118.264015 129.865467 
L 118.28719 129.937656 
L 118.359291 129.721089 
L 118.369591 129.757183 
L 118.426241 129.721089 
L 118.521517 129.468427 
L 118.542117 129.504521 
L 118.709494 129.396238 
L 118.750694 129.179671 
L 118.714644 129.432332 
L 118.822794 129.360143 
L 118.87687 129.468427 
L 118.88202 129.324049 
L 118.930945 129.360143 
L 119.036521 129.107481 
L 118.941245 129.396238 
L 119.057121 129.143576 
L 119.072571 129.179671 
L 119.121497 128.85482 
L 119.154972 128.999198 
L 119.227073 128.710442 
L 119.273423 128.782631 
L 119.306898 128.818725 
L 119.345524 128.602158 
L 119.376424 128.674347 
L 119.494875 128.349496 
L 119.386724 128.746536 
L 119.49745 128.385591 
L 119.695727 128.349496 
L 119.814178 127.952456 
L 119.829628 128.024646 
L 119.883703 127.808078 
L 119.914603 127.808078 
L 120.040779 127.519322 
L 119.930054 127.844173 
L 120.043354 127.555417 
L 120.13348 127.447133 
L 120.257081 127.122282 
L 120.141205 127.483228 
L 120.262231 127.158377 
L 120.269956 127.230566 
L 120.357507 126.905715 
L 120.362657 126.977904 
L 120.398707 127.013999 
L 120.478533 126.833526 
L 120.638184 126.725242 
L 120.756635 126.472581 
L 120.645909 126.797431 
L 120.761785 126.508675 
L 120.766935 126.580864 
L 120.833886 126.400392 
L 120.867361 126.436486 
L 120.931737 126.328202 
L 121.065638 125.931163 
L 121.068213 125.967257 
L 121.140313 125.858974 
L 121.274215 125.534123 
L 121.372065 125.461934 
L 121.495666 124.95661 
L 121.498241 124.992705 
L 121.500816 125.064894 
L 121.583217 124.776138 
L 121.606392 124.95661 
L 121.717118 124.667854 
L 121.619267 124.992705 
L 121.722268 124.703948 
L 121.858744 124.23472 
L 121.861319 124.306909 
L 121.874194 124.23472 
L 122.000371 123.801585 
L 122.018396 123.909869 
L 122.020971 123.982058 
L 122.116246 123.657207 
L 122.118822 123.657207 
L 122.160022 123.585018 
L 122.288773 123.079694 
L 122.329973 123.007505 
L 122.358298 123.0436 
L 122.448424 122.574371 
L 122.479324 122.466087 
L 122.654426 121.563724 
L 122.657001 121.599819 
L 122.726526 121.166684 
L 122.736827 121.202779 
L 122.875878 120.33651 
L 122.891328 120.408699 
L 122.953128 119.903376 
L 122.958278 119.93947 
L 123.092179 119.289768 
L 123.099905 119.361958 
L 123.177155 118.567878 
L 123.17973 118.640067 
L 123.308481 113.045414 
L 123.339382 14.76 
L 123.416632 111.782106 
L 123.547958 128.45778 
L 123.949662 132.572557 
L 123.952237 132.536462 
L 124.029487 132.825218 
L 124.044937 132.753029 
L 124.158238 133.005691 
L 124.160813 132.969597 
L 124.271539 132.897407 
L 124.194289 133.041786 
L 124.274114 132.933502 
L 124.289564 132.969597 
L 124.361665 132.789124 
L 124.377115 132.861313 
L 124.38999 132.897407 
L 124.505866 132.608651 
L 124.559942 132.536462 
L 124.665517 132.247706 
L 124.678393 132.319895 
L 124.709293 132.247706 
L 124.827744 131.742382 
L 124.835469 131.814571 
L 124.98997 131.200964 
L 124.992545 131.237059 
L 125.067221 130.876114 
L 125.080096 130.912208 
L 125.224297 130.406885 
L 125.234597 130.442979 
L 125.301548 130.082034 
L 125.314423 130.118128 
L 125.335023 130.045939 
L 125.466349 129.468427 
L 125.474074 129.504521 
L 125.54875 129.143576 
L 125.5539 129.215765 
L 125.682651 128.385591 
L 125.690376 128.45778 
L 125.765051 128.096835 
L 125.775352 128.132929 
L 125.806252 128.024646 
L 125.958178 127.26666 
L 125.811402 128.06074 
L 125.968478 127.302755 
L 126.001953 127.194471 
L 126.141005 126.400392 
L 126.177055 126.292108 
L 126.347006 125.389745 
L 126.349581 125.425839 
L 126.352156 125.461934 
L 126.424257 124.992705 
L 126.429407 124.992705 
L 126.583908 124.379098 
L 126.599358 124.451287 
L 126.643134 124.16253 
L 126.686909 124.16253 
L 126.82596 123.368451 
L 126.833685 123.404545 
L 126.898061 122.863127 
L 126.900636 122.863127 
L 126.921236 122.790938 
L 127.060287 121.960764 
L 127.073162 121.888575 
L 127.196763 121.058401 
L 127.212213 121.094495 
L 127.629367 113.839494 
L 127.647392 57.856873 
L 127.665417 16.023309 
L 127.747818 115.391559 
L 127.881719 127.302755 
L 128.247372 130.948303 
L 128.249947 130.912208 
L 128.293722 131.020492 
L 128.378698 131.273153 
L 128.409598 131.16487 
L 128.643925 131.056586 
L 128.65165 131.092681 
L 128.780401 130.695641 
L 128.849927 130.623452 
L 128.970953 130.190317 
L 128.973528 130.226412 
L 129.050778 129.865467 
L 129.061079 129.901561 
L 129.097129 129.793278 
L 129.259355 129.071387 
L 129.26708 129.107481 
L 129.334031 128.746536 
L 129.344331 128.782631 
L 129.485957 127.916362 
L 129.498832 127.844173 
L 129.640458 126.94181 
L 129.643033 126.977904 
L 129.722859 126.580864 
L 129.725434 126.580864 
L 129.746034 126.472581 
L 129.915986 125.642406 
L 129.918561 125.714595 
L 129.998386 125.137083 
L 130.008686 125.137083 
L 130.013836 125.173177 
L 130.078212 124.703948 
L 130.093662 124.776138 
L 130.109112 124.667854 
L 130.273913 123.801585 
L 130.114262 124.740043 
L 130.276488 123.873774 
L 130.291939 123.765491 
L 130.297089 123.801585 
L 130.479915 122.610466 
L 130.48249 122.682655 
L 130.567466 122.105142 
L 130.570041 122.105142 
L 130.830118 119.975565 
L 130.835268 120.047754 
L 130.917669 119.434147 
L 130.922819 119.470241 
L 130.940844 119.361958 
L 131.180321 115.752504 
L 131.221521 113.659021 
L 131.236971 90.95556 
L 131.260147 17.46709 
L 131.342547 112.756658 
L 131.476448 126.183824 
L 131.65155 128.890914 
L 131.66185 128.999198 
L 131.795751 129.97375 
L 131.806051 129.937656 
L 131.867852 130.226412 
L 131.888452 130.226412 
L 131.927077 130.334696 
L 131.999178 130.442979 
L 131.934802 130.262507 
L 132.037803 130.334696 
L 132.091878 130.226412 
L 132.102178 130.334696 
L 132.220629 129.901561 
L 132.223204 129.97375 
L 132.315905 129.540616 
L 132.321055 129.648899 
L 132.442081 129.107481 
L 132.447231 129.143576 
L 132.449806 129.179671 
L 132.529632 128.782631 
L 132.532207 128.818725 
L 132.715034 127.808078 
L 132.720184 127.844173 
L 132.789709 127.374944 
L 132.797434 127.411038 
L 132.94421 126.328202 
L 132.951935 126.400392 
L 133.034336 125.786784 
L 133.036911 125.858974 
L 133.224888 124.776138 
L 133.242913 124.667854 
L 133.425739 123.657207 
L 133.438614 123.548923 
L 133.654916 122.069048 
L 133.657491 122.177331 
L 133.739892 121.45544 
L 133.750192 121.52763 
L 133.984519 119.722903 
L 133.987094 119.795092 
L 134.059195 118.784445 
L 134.466048 111.709916 
L 134.484073 74.893492 
L 134.504673 18.910871 
L 134.587074 111.565538 
L 134.720975 125.281461 
L 134.932127 128.205118 
L 134.934702 128.132929 
L 135.019677 128.746536 
L 135.024827 128.674347 
L 135.171604 129.25186 
L 135.174179 129.215765 
L 135.284905 129.107481 
L 135.290055 129.143576 
L 135.37503 129.035292 
L 135.524382 128.421685 
L 135.526957 128.493874 
L 135.614507 128.096835 
L 135.624807 128.205118 
L 135.750983 127.519322 
L 135.91321 126.761337 
L 135.915785 126.797431 
L 135.99046 126.292108 
L 136.008486 126.256013 
L 136.137237 125.425839 
L 136.142387 125.461934 
L 136.199037 124.95661 
L 136.211912 124.95661 
L 136.410189 123.657207 
L 136.412764 123.729396 
L 136.49259 122.971411 
L 136.495165 123.007505 
L 136.634216 121.816386 
L 136.786142 120.589172 
L 136.788717 120.625266 
L 136.847942 120.047754 
L 136.855667 120.083848 
L 137.023044 118.4235 
L 137.028194 118.459594 
L 137.092569 117.882082 
L 137.293421 115.211086 
L 137.295996 115.283275 
L 137.401572 112.251334 
L 137.424747 108.966732 
L 137.460797 20.282464 
L 137.535473 105.032428 
L 137.666799 124.126436 
L 137.669374 124.090341 
L 137.839326 126.616959 
L 137.849626 126.725242 
L 138.045327 127.916362 
L 138.047902 127.771984 
L 138.071077 127.952456 
L 138.156053 127.916362 
L 138.264204 127.699795 
L 138.279654 127.735889 
L 138.32343 127.6637 
L 138.452181 127.158377 
L 138.467631 127.050093 
L 138.477931 127.086188 
L 138.619557 126.472581 
L 138.637582 126.400392 
L 138.645307 126.436486 
L 138.774058 125.642406 
L 138.784358 125.678501 
L 138.853884 125.209272 
L 138.856459 125.317556 
L 139.00581 124.23472 
L 139.008385 124.270814 
L 139.075336 123.765491 
L 139.085636 123.801585 
L 139.093361 123.693302 
L 139.337988 121.780291 
L 139.340563 121.816386 
L 139.410088 121.238873 
L 139.412663 121.274968 
L 139.649565 119.470241 
L 139.659866 119.506336 
L 139.721666 118.928823 
L 139.726816 119.001012 
L 140.213495 110.62708 
L 140.23667 94.131879 
L 140.264995 21.545772 
L 140.342246 106.115264 
L 140.478722 123.44064 
L 140.633224 125.498028 
L 140.635799 125.425839 
L 140.818625 126.508675 
L 140.8212 126.472581 
L 140.919051 126.364297 
L 140.849525 126.54477 
L 140.931926 126.472581 
L 141.022052 126.400392 
L 141.140503 126.003352 
L 141.029777 126.436486 
L 141.145653 126.039446 
L 141.150803 126.111635 
L 141.240928 125.642406 
L 141.264104 125.534123 
L 141.45723 124.343003 
L 141.459805 124.379098 
L 141.534481 123.873774 
L 141.537056 123.945963 
L 141.683832 122.863127 
L 141.686407 122.899222 
L 141.761083 122.393898 
L 141.776533 122.285615 
L 141.99026 120.841833 
L 142.003135 120.73355 
L 142.273512 118.4235 
L 142.276087 118.459594 
L 142.278662 118.495689 
L 142.340463 117.845987 
L 142.886367 108.641881 
L 142.906967 92.182774 
L 142.935292 23.603161 
L 143.012543 103.29989 
L 143.149019 121.238873 
L 143.501797 124.631759 
L 143.617673 124.631759 
L 143.674323 124.667854 
L 143.730974 124.343003 
L 143.759299 124.270814 
L 143.87775 123.909869 
L 143.880325 123.982058 
L 143.8932 123.873774 
L 144.050277 123.187978 
L 144.052852 123.260167 
L 144.142977 122.718749 
L 144.145552 122.827033 
L 144.269153 121.816386 
L 144.279453 121.85248 
L 144.297479 121.744197 
L 144.495755 120.408699 
L 144.49833 120.516983 
L 144.588456 119.758997 
L 144.591031 119.758997 
L 144.601331 119.650714 
L 144.614206 119.686808 
L 144.902609 116.979718 
L 144.905184 117.051907 
L 144.972134 116.04126 
L 144.979859 116.04126 
L 145.371262 109.038921 
L 145.397013 99.762626 
L 145.433063 24.685997 
L 145.505164 99.762626 
L 145.64164 119.975565 
L 145.845066 122.64656 
L 145.850216 122.610466 
L 145.919742 123.0436 
L 145.927467 123.007505 
L 146.056218 123.296262 
L 146.069093 123.368451 
L 146.166944 123.260167 
L 146.223594 123.296262 
L 146.239045 123.151884 
L 146.26737 123.187978 
L 146.393546 122.718749 
L 146.396121 122.754844 
L 146.468221 122.321709 
L 146.475946 122.393898 
L 146.607273 121.491535 
L 146.635598 121.383251 
L 146.839024 120.047754 
L 146.841599 120.156037 
L 146.931725 119.470241 
L 146.9343 119.506336 
L 147.181502 117.557231 
L 147.184077 117.593325 
L 147.240728 116.979718 
L 147.251028 116.979718 
L 147.439004 114.777952 
L 147.444154 114.669668 
L 147.814957 107.91999 
L 147.845858 101.098124 
L 147.884483 26.418534 
L 147.956584 97.019441 
L 148.095635 119.001012 
L 148.440688 122.285615 
L 148.484463 122.177331 
L 148.574589 122.105142 
L 148.528238 122.285615 
L 148.597764 122.141237 
L 148.644114 122.213426 
L 148.69819 122.032953 
L 148.70334 122.069048 
L 148.865566 121.347157 
L 148.881016 121.238873 
L 149.074143 120.047754 
L 149.084443 120.083848 
L 149.153968 119.614619 
L 149.156543 119.650714 
L 149.388295 117.918176 
L 149.39087 117.954271 
L 149.455246 117.304569 
L 149.478421 117.196286 
L 149.759098 114.777952 
L 149.761673 114.814046 
L 149.820899 114.12825 
L 149.823474 114.164345 
L 149.983125 112.070862 
L 150.261228 106.692776 
L 150.317878 95.611755 
L 150.356503 28.114977 
L 150.428604 95.431282 
L 150.56508 117.557231 
L 150.881808 120.480888 
L 150.971933 120.408699 
L 150.912708 120.625266 
L 150.987384 120.516983 
L 151.010559 120.625266 
L 151.080084 120.408699 
L 151.090384 120.516983 
L 151.21141 120.083848 
L 151.219135 120.119943 
L 151.293811 119.795092 
L 151.301536 119.867281 
L 151.430287 119.037107 
L 151.435437 119.073201 
L 151.504963 118.567878 
L 151.72899 116.871435 
L 151.731565 116.943624 
L 151.74959 116.907529 
L 151.880916 115.71641 
L 151.888641 115.608126 
L 152.496346 105.60994 
L 152.527246 92.976854 
L 152.565871 29.161719 
L 152.635397 92.615908 
L 152.777023 116.366111 
L 152.977875 118.892729 
L 153.114351 119.686808 
L 153.137526 119.614619 
L 153.140101 119.54243 
L 153.209627 119.831186 
L 153.243102 119.722903 
L 153.358978 119.650714 
L 153.480004 119.253674 
L 153.389878 119.722903 
L 153.482579 119.289768 
L 153.521204 119.181485 
L 153.701456 118.206932 
L 153.714331 118.134743 
L 153.866257 116.979718 
L 153.881707 116.907529 
L 154.038784 115.608126 
L 154.079984 115.499842 
L 154.224185 114.056061 
L 154.22676 114.092156 
L 154.304011 113.659021 
L 154.309161 113.695116 
L 154.507437 111.240688 
L 154.713439 106.80106 
L 154.77524 100.267949 
L 154.824165 30.136271 
L 154.896266 93.121232 
L 155.035317 115.31937 
L 155.359769 118.387405 
L 155.362344 118.315216 
L 155.455045 118.640067 
L 155.460195 118.640067 
L 155.496246 118.676161 
L 155.550321 118.387405 
L 155.558046 118.459594 
L 155.681647 118.02646 
L 155.704822 118.062554 
L 155.766623 117.701609 
L 155.771773 117.737704 
L 155.970049 116.510489 
L 155.988075 116.402206 
L 156.209526 114.850141 
L 156.230127 114.741857 
L 156.400078 113.081509 
L 156.966583 103.805214 
L 157.015508 86.010609 
L 157.051558 32.446321 
L 157.121084 88.898171 
L 157.265285 113.659021 
L 157.270435 113.767305 
L 157.597463 116.83534 
L 157.600038 116.763151 
L 157.664413 117.088002 
L 157.700464 116.979718 
L 157.788014 117.124096 
L 157.798314 116.943624 
L 157.808615 117.015813 
L 157.929641 116.654868 
L 157.937366 116.727057 
L 158.022341 116.185639 
L 158.024916 116.221733 
L 158.073842 116.149544 
L 158.189718 115.71641 
L 158.197443 115.752504 
L 158.205168 115.788599 
L 158.266968 115.247181 
L 158.269543 115.247181 
L 158.403444 114.236534 
L 158.408594 114.164345 
L 158.560521 112.937131 
L 158.563096 112.973225 
L 158.624896 112.287429 
L 158.637771 112.179145 
L 159.302127 101.38688 
L 159.351052 89.186928 
L 159.394828 34.467615 
L 159.464353 86.33546 
L 159.608554 112.467902 
L 159.611129 112.431807 
L 159.786231 115.138897 
L 159.994807 116.582678 
L 159.997382 116.546584 
L 160.157034 116.4383 
L 160.28836 116.077355 
L 160.290935 116.11345 
L 160.30896 116.04126 
L 160.437711 115.247181 
L 160.445436 115.283275 
L 160.453161 115.355464 
L 160.517537 114.92233 
L 160.530412 114.958424 
L 160.733839 113.514643 
L 160.738989 113.550738 
L 160.741564 113.622927 
L 160.816239 112.792752 
L 160.823964 112.864942 
L 161.542395 101.278596 
L 161.593896 88.753793 
L 161.640246 35.189506 
L 161.707197 84.927773 
L 161.853973 111.457255 
L 162.227351 115.247181 
L 162.229926 115.174992 
L 162.302026 115.283275 
L 162.371552 115.499842 
L 162.417902 115.427653 
L 162.487428 115.31937 
L 162.611029 114.92233 
L 162.639354 114.850141 
L 162.773255 114.200439 
L 162.976682 112.901036 
L 162.984407 112.792752 
L 163.216159 111.060215 
L 163.218734 111.132404 
L 163.295985 110.30223 
L 163.29856 110.30223 
L 163.867639 100.773273 
L 163.916565 96.478023 
L 163.96034 61.97165 
L 163.98609 37.174705 
L 164.055616 85.902325 
L 164.204967 110.121757 
L 164.374918 112.720563 
L 164.377493 112.684469 
L 164.439294 113.33417 
L 164.441869 113.261981 
L 164.573195 113.839494 
L 164.57577 113.803399 
L 164.645296 114.200439 
L 164.660746 114.092156 
L 164.722546 114.164345 
L 164.748296 113.947778 
L 164.763747 113.947778 
L 164.768897 114.019967 
L 164.895073 113.659021 
L 164.910523 113.550738 
L 165.080474 112.684469 
L 165.083049 112.720563 
L 165.152575 112.143051 
L 165.16545 112.034767 
L 165.371452 110.69927 
L 165.386902 110.590986 
L 165.608354 109.002826 
L 165.610929 109.038921 
L 165.662429 108.425314 
L 165.677879 108.425314 
L 166.053832 104.707577 
L 166.066707 104.599293 
L 166.267559 100.231855 
L 166.37571 91.136032 
L 166.44266 40.134457 
L 166.512186 81.823643 
L 166.666687 107.162005 
L 166.921614 111.204593 
L 166.939639 111.312877 
L 167.068391 112.034767 
L 167.073541 111.962578 
L 167.109591 112.070862 
L 167.243492 112.431807 
L 167.369668 112.070862 
L 167.372243 112.106956 
L 167.405718 112.179145 
L 167.472669 111.890389 
L 167.624595 111.240688 
L 167.66322 111.312877 
L 167.717296 110.879742 
L 167.719871 110.879742 
L 167.900122 109.869095 
L 167.907847 109.90519 
L 167.964498 109.327677 
L 167.969648 109.327677 
L 168.149899 108.208747 
L 168.157624 108.244841 
L 168.16535 108.172652 
L 168.301826 107.089816 
L 168.312126 106.981533 
L 168.512977 104.454915 
L 168.515552 104.527104 
L 168.582503 103.372079 
L 168.585078 103.444268 
L 168.747304 101.278596 
L 168.88378 97.849616 
L 168.997081 85.794042 
L 169.056307 42.372318 
L 169.125832 77.456204 
L 169.293209 105.429468 
L 169.597061 110.843648 
L 169.761863 111.601633 
L 169.779888 111.709916 
L 169.885464 111.782106 
L 169.880314 111.637727 
L 169.888039 111.746011 
L 169.952414 111.565538 
L 169.998765 111.673822 
L 170.003915 111.709916 
L 170.076015 111.42116 
L 170.08889 111.42116 
L 170.233092 110.843648 
L 170.235667 110.879742 
L 170.240817 110.951931 
L 170.320642 110.266135 
L 170.323217 110.266135 
L 170.336092 110.338324 
L 170.488019 109.50815 
L 170.513769 109.435961 
L 170.67342 108.064369 
L 170.675995 108.172652 
L 170.760971 107.1981 
L 170.763546 107.270289 
L 170.928347 105.754318 
L 171.360951 98.138372 
L 171.474252 89.04255 
L 171.523177 59.661599 
L 171.548927 42.769358 
L 171.618453 77.492299 
L 171.783254 104.924144 
L 171.989256 108.930637 
L 172.154057 110.482702 
L 172.231308 110.590986 
L 172.241608 110.482702 
L 172.349759 110.735364 
L 172.352334 110.663175 
L 172.42701 110.951931 
L 172.45276 110.951931 
L 172.596961 110.374419 
L 172.599536 110.410513 
L 172.679362 110.518797 
L 172.689662 110.338324 
L 172.705112 110.374419 
L 172.841588 109.327677 
L 172.849313 109.363772 
L 172.851888 109.435961 
L 172.929139 108.677976 
L 172.934289 108.677976 
L 173.168616 106.909344 
L 173.173766 106.945438 
L 173.230416 106.223547 
L 173.248441 106.115264 
L 173.784046 97.09163 
L 173.902497 87.815335 
L 173.977172 44.104856 
L 174.051848 78.105906 
L 174.221799 102.794567 
L 174.523077 108.136558 
L 174.685303 108.894543 
L 174.687878 108.858448 
L 174.757404 109.147205 
L 174.785729 109.002826 
L 174.855254 109.183299 
L 174.89388 109.002826 
L 175.004606 108.71407 
L 174.917055 109.038921 
L 175.012331 108.750165 
L 175.040656 108.641881 
L 175.202882 107.811707 
L 175.056106 108.677976 
L 175.205457 107.883896 
L 175.208032 107.91999 
L 175.277558 107.486856 
L 175.287858 107.486856 
L 175.318758 107.450762 
L 175.455234 106.331831 
L 175.462959 106.367926 
L 175.522185 105.934791 
L 175.53506 105.934791 
L 175.553085 105.970886 
L 175.684411 104.815861 
L 175.705011 104.743672 
L 175.849213 103.263796 
L 175.864663 103.155512 
L 176.052639 100.98984 
L 176.238041 96.838969 
L 176.366792 90.233669 
L 176.438892 67.530208 
L 176.474943 47.533836 
L 176.541893 71.572795 
L 176.732445 100.628895 
L 176.866346 104.021781 
L 177.036297 106.512304 
L 177.038872 106.440115 
L 177.121273 107.089816 
L 177.123848 107.089816 
L 177.265474 108.100463 
L 177.268049 108.028274 
L 177.291224 108.100463 
L 177.394225 108.280936 
L 177.327275 108.064369 
L 177.404525 108.244841 
L 177.409675 108.280936 
L 177.520401 108.136558 
L 177.548727 108.280936 
L 177.605377 107.91999 
L 177.623402 107.956085 
L 177.775328 107.270289 
L 177.777903 107.342478 
L 177.790779 107.234194 
L 177.916955 106.548398 
L 177.93498 106.476209 
L 178.056006 105.898697 
L 178.058581 105.934791 
L 178.339258 103.480363 
L 178.341833 103.552552 
L 178.416509 102.650189 
L 178.419084 102.650189 
L 178.56586 101.134218 
L 178.58646 101.025935 
L 179.109189 92.254963 
L 179.255966 74.71302 
L 179.310041 50.818439 
L 179.376992 69.948541 
L 179.575268 96.044889 
L 179.809595 102.975039 
L 180.198423 106.981533 
L 180.203573 106.945438 
L 180.273099 106.873249 
L 180.358075 106.764965 
L 180.280824 106.945438 
L 180.383825 106.873249 
L 180.4173 106.764965 
L 180.4585 107.017627 
L 180.486826 106.981533 
L 180.538326 106.873249 
L 180.661927 106.620587 
L 180.574376 106.981533 
L 180.664502 106.656682 
L 180.752053 106.692776 
L 180.682527 106.476209 
L 180.770078 106.584493 
L 180.973505 105.2129 
L 180.99668 105.321184 
L 181.066205 104.779766 
L 181.06878 104.815861 
L 181.210407 103.949592 
L 181.218132 103.841308 
L 181.362333 102.90285 
L 181.372633 102.794567 
L 181.529709 101.495164 
L 181.532284 101.531258 
L 181.59151 100.881556 
L 181.599235 100.917651 
L 181.895362 98.246656 
L 181.897937 98.28275 
L 181.908237 98.210561 
L 182.114239 95.503471 
L 182.119389 95.539566 
L 182.17604 94.962053 
L 182.183765 94.962053 
L 182.302216 91.74964 
L 182.461867 80.379862 
L 182.549418 53.200678 
L 182.624093 71.031377 
L 182.82752 93.409988 
L 183.154548 102.541905 
L 183.167423 102.650189 
L 183.316774 104.851955 
L 183.522776 106.223547 
L 183.612901 106.115264 
L 183.558826 106.259642 
L 183.630927 106.223547 
L 183.705602 106.151358 
L 183.754528 106.40402 
L 183.883279 106.079169 
L 183.885854 106.115264 
L 183.924479 106.187453 
L 183.968254 106.295736 
L 184.01718 106.00698 
L 184.030055 106.043075 
L 184.194856 105.248995 
L 184.202581 105.357279 
L 184.264382 104.743672 
L 184.274682 104.851955 
L 184.470383 103.552552 
L 184.475533 103.588646 
L 184.501284 103.588646 
L 184.624885 121.419346 
L 185.057488 134.99089 
L 185.685793 142.245892 
L 185.701244 142.354175 
L 185.896945 143.653578 
L 185.89952 143.617484 
L 185.907245 143.581389 
L 185.976771 144.050618 
L 185.984496 143.978429 
L 186.141572 144.70032 
L 186.144147 144.664225 
L 186.175047 144.70032 
L 186.296073 145.169549 
L 186.337274 145.277832 
L 186.360449 145.241738 
L 186.471175 145.602683 
L 186.553576 145.674872 
L 186.669451 145.963629 
L 186.672026 145.927534 
L 186.674602 145.891439 
L 186.710652 146.144101 
L 186.767302 146.071912 
L 186.870303 146.252385 
L 186.880603 146.21629 
L 186.911503 146.180196 
L 186.921804 146.324574 
L 186.986179 146.252385 
L 187.05313 146.468952 
L 187.10463 146.396763 
L 187.127805 146.324574 
L 187.192181 146.468952 
L 187.212781 146.432857 
L 187.269431 146.505047 
L 187.300332 146.324574 
L 187.323507 146.432857 
L 187.452258 146.432857 
L 187.467708 146.252385 
L 187.562984 146.360668 
L 187.609334 146.288479 
L 187.671135 146.396763 
L 187.781861 146.288479 
L 187.784436 146.324574 
L 187.902887 146.108007 
L 187.789586 146.360668 
L 187.905462 146.144101 
L 187.908037 146.180196 
L 187.974987 145.999723 
L 188.011037 146.108007 
L 188.129488 145.891439 
L 188.26854 145.81925 
L 188.348365 145.638778 
L 188.286565 145.855345 
L 188.381841 145.747061 
L 188.392141 145.710967 
L 188.410166 145.747061 
L 188.505442 145.566589 
L 188.518317 145.638778 
L 188.608442 145.458305 
L 188.613592 145.530494 
L 188.737193 145.241738 
L 188.762944 145.350021 
L 188.801569 145.133454 
L 188.845344 145.241738 
L 188.88912 145.061265 
L 188.958645 145.133454 
L 188.999846 145.025171 
L 189.113147 144.844698 
L 189.017871 145.09736 
L 189.118297 144.916887 
L 189.169797 144.844698 
L 189.277948 144.70032 
L 189.229022 144.880793 
L 189.283098 144.772509 
L 189.295973 144.808603 
L 189.404124 144.592036 
L 189.414424 144.664225 
L 189.465924 144.483753 
L 189.507125 144.483753 
L 189.5612 144.411564 
L 189.579225 144.447658 
L 189.677076 144.231091 
L 189.710551 144.30328 
L 189.728577 144.158902 
L 189.780077 144.158902 
L 189.867628 144.050618 
L 189.795527 144.194996 
L 189.893378 144.086713 
L 189.898528 144.122807 
L 189.986079 143.942335 
L 189.998954 144.014524 
L 190.194655 143.90624 
L 190.259031 143.761862 
L 190.210106 143.978429 
L 190.310531 143.834051 
L 190.313106 143.870146 
L 190.356882 143.725767 
L 190.416107 143.761862 
L 190.531983 143.545295 
L 190.616959 143.653578 
L 190.642709 143.545295 
L 190.650434 143.617484 
L 190.701935 143.437011 
L 190.753435 143.545295 
L 190.856436 143.364822 
L 190.874461 143.400917 
L 191.000637 143.292633 
L 191.093338 143.148255 
L 191.005787 143.364822 
L 191.113938 143.256539 
L 191.116513 143.292633 
L 191.204064 143.11216 
L 191.216939 143.184349 
L 191.232389 143.256539 
L 191.33024 143.039971 
L 191.363715 143.148255 
L 191.39719 142.931688 
L 191.438391 143.003877 
L 191.644392 142.931688 
L 191.755118 142.823404 
L 191.757693 142.859499 
L 191.858119 142.78731 
L 191.780868 142.931688 
L 191.870994 142.823404 
L 191.876144 142.931688 
L 191.94052 142.679026 
L 191.984295 142.895593 
L 192.092446 142.715121 
L 192.105321 142.751215 
L 192.262397 142.715121 
L 192.373123 142.534648 
L 192.486424 142.642931 
L 192.5405 142.498553 
L 192.499299 142.679026 
L 192.594575 142.606837 
L 192.59715 142.679026 
L 192.671826 142.462459 
L 192.700151 142.498553 
L 192.823752 142.39027 
L 192.834052 142.318081 
L 192.839202 142.462459 
L 192.934478 142.39027 
L 193.040054 142.498553 
L 192.965378 142.354175 
L 193.047779 142.426364 
L 193.15593 142.318081 
L 193.117304 142.462459 
L 193.16108 142.354175 
L 193.215155 142.462459 
L 193.271806 142.39027 
L 194.36104 142.498553 
L 194.389365 142.570742 
L 194.451165 142.39027 
L 194.474341 142.534648 
L 194.487216 142.426364 
L 194.577341 142.606837 
L 194.585066 142.534648 
L 194.762743 142.642931 
L 194.842569 142.679026 
L 194.775618 142.534648 
L 194.868319 142.606837 
L 194.948144 142.570742 
L 194.909519 142.679026 
L 194.97647 142.642931 
L 195.056295 142.751215 
L 195.004795 142.570742 
L 195.089771 142.715121 
L 195.197921 142.534648 
L 195.210797 142.570742 
L 195.264872 142.679026 
L 195.375598 142.78731 
L 195.282897 142.642931 
L 195.380748 142.751215 
L 196.060554 142.642931 
L 196.096604 142.715121 
L 196.173855 142.570742 
L 196.282005 142.679026 
L 196.22793 142.534648 
L 196.287155 142.606837 
L 196.385006 142.534648 
L 196.305181 142.679026 
L 196.397881 142.570742 
L 196.415906 142.679026 
L 196.493157 142.462459 
L 196.508607 142.570742 
L 196.606458 142.426364 
L 196.621908 142.498553 
L 196.773834 142.606837 
L 196.815035 142.679026 
L 196.78671 142.534648 
L 196.88456 142.642931 
L 196.936061 142.498553 
L 196.997861 142.570742 
L 197.021036 142.715121 
L 197.072537 142.534648 
L 197.106012 142.570742 
L 197.180688 142.534648 
L 197.193563 142.642931 
L 197.211588 142.570742 
L 197.214163 142.679026 
L 197.301714 142.462459 
L 197.319739 142.498553 
L 197.399565 142.642931 
L 197.378964 142.462459 
L 197.43304 142.570742 
L 197.507715 142.534648 
L 197.525741 142.679026 
L 197.538616 142.570742 
L 197.633891 142.715121 
L 197.651917 142.642931 
L 197.705992 142.570742 
L 197.677667 142.715121 
L 197.760068 142.679026 
L 197.893969 142.642931 
L 197.924869 142.534648 
L 197.989244 142.679026 
L 198.004695 142.606837 
L 198.02787 142.570742 
L 198.051045 142.715121 
L 198.11542 142.606837 
L 198.143746 142.715121 
L 198.179796 142.534648 
L 198.226146 142.606837 
L 198.313697 142.715121 
L 198.275072 142.534648 
L 198.339447 142.679026 
L 198.442448 142.534648 
L 198.411548 142.751215 
L 198.457898 142.570742 
L 198.553174 142.823404 
L 198.578924 142.715121 
L 198.645875 142.642931 
L 198.596949 142.78731 
L 198.687075 142.78731 
L 198.782351 142.642931 
L 198.805526 142.679026 
L 199.477607 142.715121 
L 199.480182 142.823404 
L 199.485332 142.679026 
L 199.588333 142.751215 
L 199.799484 142.823404 
L 199.86386 142.895593 
L 199.85871 142.751215 
L 199.91021 142.823404 
L 200.301613 142.895593 
L 200.304188 142.967782 
L 200.340239 142.78731 
L 200.412339 142.931688 
L 200.420064 142.931688 
L 200.422639 142.78731 
L 200.432939 142.967782 
L 200.53079 142.895593 
L 200.561691 142.967782 
L 200.543665 142.859499 
L 200.641516 142.931688 
L 200.729067 142.751215 
L 200.759967 142.78731 
L 200.793442 142.895593 
L 200.862968 142.715121 
L 200.868118 142.715121 
L 200.935069 142.679026 
L 200.886143 142.78731 
L 200.973694 142.751215 
L 200.983994 142.859499 
L 201.04837 142.642931 
L 201.07927 142.679026 
L 201.107595 142.606837 
L 201.086995 142.78731 
L 201.189996 142.679026 
L 201.411448 142.606837 
L 201.434623 142.498553 
L 201.504148 142.679026 
L 201.522173 142.570742 
L 201.614874 142.642931 
L 201.583974 142.462459 
L 201.630324 142.570742 
L 201.705 142.462459 
L 201.640624 142.606837 
L 201.743625 142.534648 
L 201.846626 142.642931 
L 201.854351 142.606837 
L 201.931602 142.534648 
L 201.959927 142.679026 
L 201.962502 142.606837 
L 202.039753 142.642931 
L 202.003702 142.534648 
L 202.070653 142.570742 
L 202.585657 142.462459 
L 202.613982 142.426364 
L 202.624282 142.534648 
L 202.691233 142.498553 
L 202.778784 142.606837 
L 202.771059 142.426364 
L 202.804534 142.570742 
L 202.827709 142.606837 
L 202.922985 142.426364 
L 202.989935 142.606837 
L 203.038861 142.570742 
L 203.049161 142.498553 
L 203.108386 142.642931 
L 203.147012 142.570742 
L 203.159887 142.642931 
L 203.231987 142.462459 
L 203.255163 142.534648 
L 203.334988 142.426364 
L 203.345288 142.606837 
L 203.363314 142.570742 
L 203.448289 142.462459 
L 203.450864 142.426364 
L 203.497215 142.570742 
L 203.553865 142.534648 
L 203.865443 142.462459 
L 203.963293 142.39027 
L 203.891193 142.498553 
L 203.976169 142.426364 
L 204.213071 142.498553 
L 204.316071 142.570742 
L 204.231096 142.426364 
L 204.321221 142.534648 
L 204.323796 142.426364 
L 204.354697 142.570742 
L 204.431947 142.498553 
L 204.439672 142.426364 
L 204.504048 142.606837 
L 204.534948 142.534648 
L 204.607049 142.751215 
L 204.648249 142.606837 
L 204.869701 142.715121 
L 204.895451 142.642931 
L 204.980427 142.823404 
L 205.026777 142.642931 
L 205.091153 142.715121 
L 205.848209 142.606837 
L 205.881684 142.570742 
L 205.933185 142.715121 
L 205.953785 142.679026 
L 205.99241 142.606837 
L 206.051636 142.498553 
L 206.00271 142.642931 
L 206.103136 142.534648 
L 206.211287 142.642931 
L 206.157211 142.498553 
L 206.216437 142.606837 
L 206.249912 142.642931 
L 206.309138 142.498553 
L 206.324588 142.570742 
L 207.220695 142.462459 
L 207.290221 142.426364 
L 207.297946 142.570742 
L 207.326271 142.498553 
L 207.375196 142.534648 
L 207.385497 142.39027 
L 207.434422 142.462459 
L 207.617248 142.498553 
L 207.619823 142.318081 
L 207.727974 142.426364 
L 207.78205 142.570742 
L 207.7563 142.354175 
L 207.84385 142.498553 
L 207.949426 142.39027 
L 207.957151 142.462459 
L 208.258429 142.354175 
L 208.369155 142.245892 
L 208.374305 142.281986 
L 208.600907 142.173703 
L 208.608632 142.137608 
L 208.606057 142.281986 
L 208.703907 142.281986 
L 208.979435 142.39027 
L 209.02321 142.318081 
L 209.090161 142.462459 
L 209.092736 142.39027 
L 209.126211 142.570742 
L 209.200886 142.462459 
L 209.231787 142.570742 
L 209.283287 142.39027 
L 209.309037 142.462459 
L 209.329638 142.354175 
L 209.370838 142.570742 
L 209.417188 142.498553 
L 209.481564 142.426364 
L 209.504739 142.354175 
L 209.515039 142.498553 
L 209.59229 142.426364 
L 210.037768 142.498553 
L 210.081544 142.570742 
L 210.091844 142.426364 
L 210.148494 142.498553 
L 210.215445 142.606837 
L 210.21802 142.642931 
L 210.256645 142.498553 
L 210.323596 142.570742 
L 210.439472 142.498553 
L 210.480672 142.354175 
L 210.552773 142.426364 
L 210.733024 142.534648 
L 210.745899 142.462459 
L 210.846325 142.606837 
L 210.86435 142.498553 
L 210.913276 142.642931 
L 210.962201 142.534648 
L 210.990526 142.462459 
L 211.078077 142.679026 
L 211.116702 142.498553 
L 211.188803 142.570742 
L 211.291804 142.534648 
L 211.302104 142.679026 
L 211.853158 142.570742 
L 211.855733 142.498553 
L 211.927834 142.679026 
L 211.961309 142.606837 
L 212.319237 142.715121 
L 212.370737 142.78731 
L 212.386188 142.606837 
L 212.424813 142.679026 
L 212.496914 142.570742 
L 212.440263 142.715121 
L 212.538114 142.642931 
L 213.135519 142.570742 
L 213.223069 142.498553 
L 213.207619 142.715121 
L 213.24367 142.642931 
L 213.30032 142.606837 
L 213.387871 142.498553 
L 213.31577 142.679026 
L 213.411046 142.534648 
L 213.426496 142.498553 
L 213.526922 142.642931 
L 213.568122 142.498553 
L 213.640223 142.570742 
L 213.8591 142.462459 
L 213.962101 142.39027 
L 213.892575 142.570742 
L 213.969826 142.426364 
L 214.052226 142.534648 
L 214.016176 142.39027 
L 214.080552 142.426364 
L 214.206728 142.462459 
L 214.309728 142.606837 
L 214.240203 142.39027 
L 214.317453 142.498553 
L 214.397279 142.642931 
L 214.350929 142.462459 
L 214.428179 142.534648 
L 214.52603 142.642931 
L 214.54148 142.426364 
L 214.631606 142.642931 
L 214.654781 142.570742 
L 215.347462 142.642931 
L 215.391237 142.606837 
L 215.460763 142.715121 
L 215.66934 142.823404 
L 215.76204 142.859499 
L 215.69509 142.642931 
L 215.77749 142.78731 
L 215.805816 142.679026 
L 215.816116 142.895593 
L 215.888216 142.751215 
L 215.996367 142.859499 
L 215.998942 142.78731 
L 216.186919 142.78731 
L 216.189494 142.642931 
L 216.220394 142.823404 
L 216.297645 142.78731 
L 217.036676 142.715121 
L 217.088176 142.642931 
L 217.049551 142.751215 
L 217.144827 142.715121 
L 217.175727 142.78731 
L 217.178302 142.642931 
L 217.250403 142.642931 
L 217.309628 142.751215 
L 217.379154 142.823404 
L 217.412629 142.642931 
L 217.417779 142.715121 
L 217.507905 142.606837 
L 217.448679 142.751215 
L 217.528505 142.715121 
L 217.60318 142.642931 
L 217.55168 142.751215 
L 217.641806 142.679026 
L 217.721631 142.78731 
L 217.649531 142.642931 
L 217.749957 142.715121 
L 217.767982 142.751215 
L 217.863258 142.570742 
L 217.868408 142.679026 
L 217.894158 142.534648 
L 217.973983 142.606837 
L 218.16196 142.715121 
L 218.174835 142.642931 
L 218.275261 142.751215 
L 218.303586 142.606837 
L 218.329336 142.823404 
L 218.383412 142.78731 
L 218.540488 142.895593 
L 218.628039 142.931688 
L 218.635764 142.78731 
L 218.648639 142.895593 
L 218.759365 142.78731 
L 218.658939 142.931688 
L 218.76194 142.859499 
L 218.983392 142.967782 
L 218.985967 143.039971 
L 219.029742 142.859499 
L 219.091543 142.967782 
L 219.132743 142.859499 
L 219.104418 143.039971 
L 219.204844 142.931688 
L 219.591097 142.823404 
L 219.645172 142.715121 
L 219.603972 142.859499 
L 219.699248 142.823404 
L 219.719848 142.931688 
L 219.730148 142.715121 
L 219.809974 142.823404 
L 220.476904 142.715121 
L 220.54128 142.679026 
L 220.507804 142.823404 
L 220.58248 142.78731 
L 220.65458 142.859499 
L 220.60823 142.715121 
L 220.693206 142.78731 
L 220.755006 142.715121 
L 220.863157 142.606837 
L 220.765306 142.751215 
L 220.868307 142.642931 
L 221.154135 142.715121 
L 221.185035 142.78731 
L 221.226235 142.606837 
L 221.262285 142.715121 
L 221.270011 142.751215 
L 221.375586 142.642931 
L 221.76184 142.751215 
L 221.831365 142.823404 
L 221.79274 142.679026 
L 221.86999 142.715121 
L 221.885441 142.679026 
L 221.908616 142.823404 
L 221.978141 142.751215 
L 222.650222 142.642931 
L 222.673397 142.570742 
L 222.693997 142.715121 
L 222.755798 142.642931 
L 222.758373 142.715121 
L 222.822748 142.534648 
L 222.863949 142.606837 
L 223.02875 142.534648 
L 223.031325 142.462459 
L 223.0545 142.642931 
L 223.136901 142.606837 
L 223.152351 142.679026 
L 223.178101 142.534648 
L 223.247627 142.606837 
L 223.729156 142.715121 
L 223.793531 142.78731 
L 223.770356 142.642931 
L 223.837307 142.715121 
L 223.914557 142.606837 
L 223.863057 142.78731 
L 223.948033 142.679026 
L 224.017558 142.823404 
L 224.061333 142.78731 
L 224.094809 142.823404 
L 224.177209 142.715121 
L 224.220985 142.78731 
L 224.210685 142.642931 
L 224.287935 142.715121 
L 224.81839 142.823404 
L 224.820965 142.859499 
L 224.893065 142.715121 
L 224.926541 142.823404 
L 225.026966 142.679026 
L 224.952291 142.859499 
L 225.042417 142.751215 
L 225.127392 142.823404 
L 225.050142 142.679026 
L 225.153142 142.751215 
L 226.389153 142.679026 
L 226.391728 142.606837 
L 226.417478 142.78731 
L 226.497303 142.715121 
L 226.955657 142.642931 
L 226.958232 142.570742 
L 227.050933 142.78731 
L 227.061233 142.78731 
L 227.272385 142.679026 
L 227.370236 142.642931 
L 227.282685 142.751215 
L 227.377961 142.751215 
L 227.620013 142.679026 
L 227.661213 142.570742 
L 227.694688 142.715121 
L 227.730739 142.642931 
L 227.800264 142.751215 
L 227.751339 142.606837 
L 227.838889 142.715121 
L 227.867215 142.606837 
L 227.887815 142.78731 
L 227.949615 142.642931 
L 228.196817 142.534648 
L 228.292093 142.498553 
L 228.227718 142.679026 
L 228.304968 142.534648 
L 228.382219 142.606837 
L 228.377069 142.498553 
L 228.413119 142.498553 
L 229.466303 142.570742 
L 229.468878 142.679026 
L 229.512653 142.462459 
L 229.577029 142.570742 
L 229.67488 142.462459 
L 229.595054 142.606837 
L 229.69033 142.534648 
L 229.862856 142.498553 
L 229.865431 142.679026 
L 229.973582 142.498553 
L 230.032807 142.426364 
L 230.086883 142.570742 
L 230.197609 142.462459 
L 230.200184 142.498553 
L 230.28001 142.426364 
L 230.207909 142.570742 
L 230.31091 142.498553 
L 230.344385 142.570742 
L 230.359835 142.642931 
L 230.424211 142.498553 
L 230.455111 142.570742 
L 230.524637 142.642931 
L 230.501461 142.498553 
L 230.565837 142.606837 
L 230.589012 142.498553 
L 230.617337 142.642931 
L 230.681713 142.534648 
L 231.433619 142.426364 
L 231.436194 142.39027 
L 231.51602 142.570742 
L 231.539195 142.462459 
L 231.595845 142.534648 
L 231.60872 142.318081 
L 231.649921 142.462459 
L 231.688546 142.534648 
L 231.696271 142.39027 
L 231.755497 142.426364 
L 231.819872 142.354175 
L 231.806997 142.498553 
L 231.866223 142.426364 
L 231.938323 142.534648 
L 231.881673 142.39027 
L 231.979523 142.462459 
L 232.038749 142.39027 
L 232.074799 142.570742 
L 232.085099 142.498553 
L 232.17265 142.642931 
L 232.092824 142.426364 
L 232.1984 142.570742 
L 232.301401 142.462459 
L 232.244751 142.606837 
L 232.309126 142.534648 
L 232.319426 142.498553 
L 232.422427 142.679026 
L 232.497103 142.534648 
L 232.453327 142.715121 
L 232.535728 142.570742 
L 232.631004 142.534648 
L 232.654179 142.679026 
L 232.759755 142.570742 
L 232.685079 142.715121 
L 232.76748 142.642931 
L 232.816405 142.570742 
L 232.883356 142.751215 
L 232.999232 142.570742 
L 233.112533 142.679026 
L 233.261884 142.570742 
L 233.333985 142.498553 
L 233.32626 142.751215 
L 233.36746 142.642931 
L 234.196617 142.570742 
L 234.304768 142.462459 
L 234.245542 142.679026 
L 234.309918 142.498553 
L 234.320218 142.534648 
L 234.423219 142.39027 
L 234.482444 142.354175 
L 234.536519 142.498553 
L 234.590595 142.318081 
L 234.64982 142.354175 
L 234.719346 142.462459 
L 234.675571 142.318081 
L 234.757971 142.426364 
L 234.871272 142.245892 
L 234.969123 142.354175 
L 235.023198 142.209797 
L 235.079849 142.39027 
L 235.188 142.245892 
L 235.115899 142.426364 
L 235.19315 142.318081 
L 235.272976 142.245892 
L 235.2292 142.354175 
L 235.301301 142.318081 
L 235.321901 142.39027 
L 235.386276 142.173703 
L 235.409452 142.245892 
L 235.468677 142.281986 
L 235.440352 142.173703 
L 235.517603 142.209797 
L 235.548503 142.101513 
L 235.610303 142.318081 
L 235.625753 142.209797 
L 235.674679 142.318081 
L 235.646354 142.173703 
L 235.736479 142.245892 
L 235.826605 142.209797 
L 235.79828 142.318081 
L 235.84463 142.281986 
L 235.947631 142.39027 
L 235.932181 142.245892 
L 235.955356 142.318081 
L 235.996556 142.173703 
L 235.965656 142.39027 
L 236.066082 142.318081 
L 236.282384 142.426364 
L 236.290109 142.462459 
L 236.349334 142.318081 
L 236.39311 142.426364 
L 236.815413 142.354175 
L 236.923564 142.281986 
L 236.838588 142.426364 
L 236.926139 142.318081 
L 237.103816 142.39027 
L 237.217116 142.498553 
L 237.332992 142.354175 
L 237.222267 142.534648 
L 237.335567 142.39027 
L 237.363893 142.462459 
L 237.366468 142.534648 
L 237.448868 142.354175 
L 237.472044 142.462459 
L 237.567319 142.354175 
L 237.477194 142.498553 
L 237.582769 142.39027 
L 237.667745 142.426364 
L 237.62912 142.281986 
L 237.693495 142.39027 
L 237.755296 142.318081 
L 237.855722 142.245892 
L 237.809371 142.39027 
L 237.863447 142.354175 
L 238.308925 142.281986 
L 238.429951 141.812757 
L 238.468577 141.921041 
L 238.502052 141.704474 
L 238.540677 141.848852 
L 238.615353 141.632285 
L 238.661703 141.704474 
L 238.731229 141.632285 
L 238.738954 141.668379 
L 238.847105 141.451812 
L 238.92178 141.524001 
L 238.944956 141.379623 
L 238.955256 141.415717 
L 239.205033 141.307434 
L 239.287433 141.235245 
L 239.223058 141.379623 
L 239.315759 141.307434 
L 239.338934 141.307434 
L 239.387859 141.343528 
L 239.44966 141.163056 
L 239.51146 141.307434 
L 239.557811 141.235245 
L 239.635061 141.126961 
L 239.658237 141.271339 
L 239.668537 141.19915 
L 239.730337 141.163056 
L 239.676262 141.271339 
L 239.774112 141.235245 
L 239.864238 141.307434 
L 239.817888 141.163056 
L 239.879688 141.163056 
L 240.276242 141.126961 
L 240.278817 141.018677 
L 240.330317 141.19915 
L 240.386968 141.090867 
L 240.518294 141.19915 
L 240.626444 141.379623 
L 240.554344 141.126961 
L 240.63932 141.343528 
L 240.672795 141.271339 
L 240.744895 141.19915 
L 240.70627 141.343528 
L 240.783521 141.271339 
L 240.896822 141.415717 
L 240.901972 141.379623 
L 240.961197 141.271339 
L 240.909697 141.487906 
L 241.010123 141.379623 
L 241.033298 141.487906 
L 241.074498 141.307434 
L 241.123424 141.415717 
L 241.221274 141.307434 
L 241.128574 141.451812 
L 241.234149 141.379623 
L 241.313975 141.487906 
L 241.24445 141.307434 
L 241.350025 141.451812 
L 241.501952 141.560095 
L 241.594652 141.632285 
L 241.514827 141.487906 
L 241.610103 141.524001 
L 241.769754 141.560095 
L 241.808379 141.524001 
L 241.88048 141.668379 
L 241.92168 141.487906 
L 241.993781 141.560095 
L 242.135407 141.487906 
L 242.137982 141.379623 
L 242.166307 141.524001 
L 242.246133 141.451812 
L 242.331108 141.415717 
L 242.264158 141.524001 
L 242.351709 141.487906 
L 242.467585 141.59619 
L 242.570585 141.524001 
L 242.53711 141.632285 
L 242.57831 141.59619 
L 242.588611 141.487906 
L 242.591186 141.451812 
L 242.642686 141.668379 
L 242.691611 141.59619 
L 243.049539 141.704474 
L 243.052114 141.776663 
L 243.108765 141.560095 
L 243.160265 141.740568 
L 243.188591 141.632285 
L 243.214341 141.812757 
L 243.270991 141.704474 
L 243.273566 141.668379 
L 243.283866 141.812757 
L 243.379142 141.740568 
L 243.476993 141.812757 
L 243.433218 141.632285 
L 243.489868 141.776663 
L 243.708745 141.776663 
L 243.822046 141.632285 
L 243.876121 141.776663 
L 243.919897 141.59619 
L 243.932772 141.632285 
L 244.040923 141.560095 
L 244.010022 141.740568 
L 244.046073 141.59619 
L 244.138773 141.560095 
L 244.161948 141.776663 
L 244.270099 141.560095 
L 244.275249 141.668379 
L 244.646052 141.59619 
L 244.664078 141.524001 
L 244.710428 141.668379 
L 244.756778 141.560095 
L 244.859779 141.632285 
L 244.774804 141.487906 
L 244.867504 141.59619 
L 244.970505 141.524001 
L 244.92673 141.740568 
L 244.97823 141.59619 
L 244.996255 141.632285 
L 244.99883 141.740568 
L 245.00913 141.59619 
L 245.106981 141.632285 
L 245.122431 141.560095 
L 245.130156 141.668379 
L 245.217707 141.59619 
L 245.315558 141.632285 
L 245.261483 141.524001 
L 245.325858 141.59619 
L 245.431434 141.487906 
L 245.392809 141.632285 
L 245.436584 141.524001 
L 245.459759 141.668379 
L 245.513835 141.487906 
L 245.54731 141.524001 
L 245.634861 141.451812 
L 245.56276 141.560095 
L 245.658036 141.524001 
L 245.678636 141.59619 
L 245.719836 141.451812 
L 245.768762 141.524001 
L 245.776487 141.451812 
L 245.838287 141.632285 
L 245.876913 141.560095 
L 245.900088 141.487906 
L 245.995364 141.668379 
L 246.605644 141.740568 
L 246.639119 141.884946 
L 246.667444 141.668379 
L 246.716369 141.740568 
L 246.81937 141.632285 
L 246.73182 141.776663 
L 246.82967 141.668379 
L 246.927521 141.776663 
L 246.891471 141.632285 
L 246.940396 141.704474 
L 247.007347 141.560095 
L 247.043397 141.776663 
L 247.045972 141.776663 
L 247.285449 141.884946 
L 247.33695 141.776663 
L 247.3936 141.921041 
L 247.478576 141.812757 
L 247.455401 141.957135 
L 247.501751 141.957135 
L 247.514626 141.921041 
L 247.620202 141.812757 
L 247.571276 141.957135 
L 247.625352 141.848852 
L 247.648527 141.957135 
L 247.663977 141.99323 
L 247.730928 141.848852 
L 247.756678 141.957135 
L 247.859679 141.884946 
L 247.787578 141.99323 
L 247.867404 141.921041 
L 247.872554 142.029324 
L 247.921479 141.848852 
L 247.97298 141.848852 
L 248.359233 141.884946 
L 248.359233 141.884946 
" clip-path="url(#pf98e73ce92)" style="fill: none; stroke: #000000; stroke-opacity: 0.5; stroke-width: 1.5; stroke-linecap: square"/>
   </g>
   <g id="patch_3">
    <path d="M 35.304688 173.52 
L 35.304688 7.2 
" style="fill: none; stroke: #000000; stroke-width: 0.8; stroke-linejoin: miter; stroke-linecap: square"/>
   </g>
   <g id="patch_4">
    <path d="M 35.304688 173.52 
L 258.504687 173.52 
" style="fill: none; stroke: #000000; stroke-width: 0.8; stroke-linejoin: miter; stroke-linecap: square"/>
   </g>
  </g>
 </g>
 <defs>
  <clipPath id="pf98e73ce92">
   <rect x="35.304688" y="7.2" width="223.2" height="166.32"/>
  </clipPath>
 </defs>
</svg>
