<?xml version="1.0" encoding="utf-8" standalone="no"?>
<!DOCTYPE svg PUBLIC "-//W3C//DTD SVG 1.1//EN"
  "http://www.w3.org/Graphics/SVG/1.1/DTD/svg11.dtd">
<svg xmlns:xlink="http://www.w3.org/1999/xlink" width="272.067187pt" height="197.398125pt" viewBox="0 0 272.067187 197.398125" xmlns="http://www.w3.org/2000/svg" version="1.1">
 <metadata>
  <rdf:RDF xmlns:dc="http://purl.org/dc/elements/1.1/" xmlns:cc="http://creativecommons.org/ns#" xmlns:rdf="http://www.w3.org/1999/02/22-rdf-syntax-ns#">
   <cc:Work>
    <dc:type rdf:resource="http://purl.org/dc/dcmitype/StillImage"/>
    <dc:date>2025-12-19T12:04:12.271473</dc:date>
    <dc:format>image/svg+xml</dc:format>
    <dc:creator>
     <cc:Agent>
      <dc:title>Matplotlib v3.10.7, https://matplotlib.org/</dc:title>
     </cc:Agent>
    </dc:creator>
   </cc:Work>
  </rdf:RDF>
 </metadata>
 <defs>
  <style type="text/css">*{stroke-linejoin: round; stroke-linecap: butt}</style>
 </defs>
 <g id="figure_1">
  <g id="patch_1">
   <path d="M 0 197.398125 
L 272.067187 197.398125 
L 272.067187 0 
L 0 0 
z
" style="fill: #ffffff"/>
  </g>
  <g id="axes_1">
   <g id="patch_2">
    <path d="M 41.667188 173.52 
L 264.867188 173.52 
L 264.867188 7.2 
L 41.667188 7.2 
z
" style="fill: #ffffff"/>
   </g>
   <g id="matplotlib.axis_1">
    <g id="xtick_1">
     <g id="line2d_1">
      <defs>
       <path id="m85ae1ad9c9" d="M 0 0 
L 0 3.5 
" style="stroke: #000000; stroke-width: 0.8"/>
      </defs>
      <g>
       <use xlink:href="#m85ae1ad9c9" x="82.712896" y="173.52" style="stroke: #000000; stroke-width: 0.8"/>
      </g>
     </g>
     <g id="text_1">
      <!-- 1 -->
      <g transform="translate(79.531646 188.118438) scale(0.1 -0.1)">
       <defs>
        <path id="DejaVuSans-31" d="M 794 531 
L 1825 531 
L 1825 4091 
L 703 3866 
L 703 4441 
L 1819 4666 
L 2450 4666 
L 2450 531 
L 3481 531 
L 3481 0 
L 794 0 
L 794 531 
z
" transform="scale(0.015625)"/>
       </defs>
       <use xlink:href="#DejaVuSans-31"/>
      </g>
     </g>
    </g>
    <g id="xtick_2">
     <g id="line2d_2">
      <g>
       <use xlink:href="#m85ae1ad9c9" x="134.213319" y="173.52" style="stroke: #000000; stroke-width: 0.8"/>
      </g>
     </g>
     <g id="text_2">
      <!-- 2 -->
      <g transform="translate(131.032069 188.118438) scale(0.1 -0.1)">
       <defs>
        <path id="DejaVuSans-32" d="M 1228 531 
L 3431 531 
L 3431 0 
L 469 0 
L 469 531 
Q 828 903 1448 1529 
Q 2069 2156 2228 2338 
Q 2531 2678 2651 2914 
Q 2772 3150 2772 3378 
Q 2772 3750 2511 3984 
Q 2250 4219 1831 4219 
Q 1534 4219 1204 4116 
Q 875 4013 500 3803 
L 500 4441 
Q 881 4594 1212 4672 
Q 1544 4750 1819 4750 
Q 2544 4750 2975 4387 
Q 3406 4025 3406 3419 
Q 3406 3131 3298 2873 
Q 3191 2616 2906 2266 
Q 2828 2175 2409 1742 
Q 1991 1309 1228 531 
z
" transform="scale(0.015625)"/>
       </defs>
       <use xlink:href="#DejaVuSans-32"/>
      </g>
     </g>
    </g>
    <g id="xtick_3">
     <g id="line2d_3">
      <g>
       <use xlink:href="#m85ae1ad9c9" x="185.713741" y="173.52" style="stroke: #000000; stroke-width: 0.8"/>
      </g>
     </g>
     <g id="text_3">
      <!-- 3 -->
      <g transform="translate(182.532491 188.118438) scale(0.1 -0.1)">
       <defs>
        <path id="DejaVuSans-33" d="M 2597 2516 
Q 3050 2419 3304 2112 
Q 3559 1806 3559 1356 
Q 3559 666 3084 287 
Q 2609 -91 1734 -91 
Q 1441 -91 1130 -33 
Q 819 25 488 141 
L 488 750 
Q 750 597 1062 519 
Q 1375 441 1716 441 
Q 2309 441 2620 675 
Q 2931 909 2931 1356 
Q 2931 1769 2642 2001 
Q 2353 2234 1838 2234 
L 1294 2234 
L 1294 2753 
L 1863 2753 
Q 2328 2753 2575 2939 
Q 2822 3125 2822 3475 
Q 2822 3834 2567 4026 
Q 2313 4219 1838 4219 
Q 1578 4219 1281 4162 
Q 984 4106 628 3988 
L 628 4550 
Q 988 4650 1302 4700 
Q 1616 4750 1894 4750 
Q 2613 4750 3031 4423 
Q 3450 4097 3450 3541 
Q 3450 3153 3228 2886 
Q 3006 2619 2597 2516 
z
" transform="scale(0.015625)"/>
       </defs>
       <use xlink:href="#DejaVuSans-33"/>
      </g>
     </g>
    </g>
    <g id="xtick_4">
     <g id="line2d_4">
      <g>
       <use xlink:href="#m85ae1ad9c9" x="237.214164" y="173.52" style="stroke: #000000; stroke-width: 0.8"/>
      </g>
     </g>
     <g id="text_4">
      <!-- 4 -->
      <g transform="translate(234.032914 188.118438) scale(0.1 -0.1)">
       <defs>
        <path id="DejaVuSans-34" d="M 2419 4116 
L 825 1625 
L 2419 1625 
L 2419 4116 
z
M 2253 4666 
L 3047 4666 
L 3047 1625 
L 3713 1625 
L 3713 1100 
L 3047 1100 
L 3047 0 
L 2419 0 
L 2419 1100 
L 313 1100 
L 313 1709 
L 2253 4666 
z
" transform="scale(0.015625)"/>
       </defs>
       <use xlink:href="#DejaVuSans-34"/>
      </g>
     </g>
    </g>
   </g>
   <g id="matplotlib.axis_2">
    <g id="ytick_1">
     <g id="line2d_5">
      <defs>
       <path id="m111f09040c" d="M 0 0 
L -3.5 0 
" style="stroke: #000000; stroke-width: 0.8"/>
      </defs>
      <g>
       <use xlink:href="#m111f09040c" x="41.667188" y="158.306664" style="stroke: #000000; stroke-width: 0.8"/>
      </g>
     </g>
     <g id="text_5">
      <!-- −100 -->
      <g transform="translate(7.2 162.105883) scale(0.1 -0.1)">
       <defs>
        <path id="DejaVuSans-2212" d="M 678 2272 
L 4684 2272 
L 4684 1741 
L 678 1741 
L 678 2272 
z
" transform="scale(0.015625)"/>
        <path id="DejaVuSans-30" d="M 2034 4250 
Q 1547 4250 1301 3770 
Q 1056 3291 1056 2328 
Q 1056 1369 1301 889 
Q 1547 409 2034 409 
Q 2525 409 2770 889 
Q 3016 1369 3016 2328 
Q 3016 3291 2770 3770 
Q 2525 4250 2034 4250 
z
M 2034 4750 
Q 2819 4750 3233 4129 
Q 3647 3509 3647 2328 
Q 3647 1150 3233 529 
Q 2819 -91 2034 -91 
Q 1250 -91 836 529 
Q 422 1150 422 2328 
Q 422 3509 836 4129 
Q 1250 4750 2034 4750 
z
" transform="scale(0.015625)"/>
       </defs>
       <use xlink:href="#DejaVuSans-2212"/>
       <use xlink:href="#DejaVuSans-31" transform="translate(83.789062 0)"/>
       <use xlink:href="#DejaVuSans-30" transform="translate(147.412109 0)"/>
       <use xlink:href="#DejaVuSans-30" transform="translate(211.035156 0)"/>
      </g>
     </g>
    </g>
    <g id="ytick_2">
     <g id="line2d_6">
      <g>
       <use xlink:href="#m111f09040c" x="41.667188" y="134.780921" style="stroke: #000000; stroke-width: 0.8"/>
      </g>
     </g>
     <g id="text_6">
      <!-- −80 -->
      <g transform="translate(13.5625 138.58014) scale(0.1 -0.1)">
       <defs>
        <path id="DejaVuSans-38" d="M 2034 2216 
Q 1584 2216 1326 1975 
Q 1069 1734 1069 1313 
Q 1069 891 1326 650 
Q 1584 409 2034 409 
Q 2484 409 2743 651 
Q 3003 894 3003 1313 
Q 3003 1734 2745 1975 
Q 2488 2216 2034 2216 
z
M 1403 2484 
Q 997 2584 770 2862 
Q 544 3141 544 3541 
Q 544 4100 942 4425 
Q 1341 4750 2034 4750 
Q 2731 4750 3128 4425 
Q 3525 4100 3525 3541 
Q 3525 3141 3298 2862 
Q 3072 2584 2669 2484 
Q 3125 2378 3379 2068 
Q 3634 1759 3634 1313 
Q 3634 634 3220 271 
Q 2806 -91 2034 -91 
Q 1263 -91 848 271 
Q 434 634 434 1313 
Q 434 1759 690 2068 
Q 947 2378 1403 2484 
z
M 1172 3481 
Q 1172 3119 1398 2916 
Q 1625 2713 2034 2713 
Q 2441 2713 2670 2916 
Q 2900 3119 2900 3481 
Q 2900 3844 2670 4047 
Q 2441 4250 2034 4250 
Q 1625 4250 1398 4047 
Q 1172 3844 1172 3481 
z
" transform="scale(0.015625)"/>
       </defs>
       <use xlink:href="#DejaVuSans-2212"/>
       <use xlink:href="#DejaVuSans-38" transform="translate(83.789062 0)"/>
       <use xlink:href="#DejaVuSans-30" transform="translate(147.412109 0)"/>
      </g>
     </g>
    </g>
    <g id="ytick_3">
     <g id="line2d_7">
      <g>
       <use xlink:href="#m111f09040c" x="41.667188" y="111.255178" style="stroke: #000000; stroke-width: 0.8"/>
      </g>
     </g>
     <g id="text_7">
      <!-- −60 -->
      <g transform="translate(13.5625 115.054397) scale(0.1 -0.1)">
       <defs>
        <path id="DejaVuSans-36" d="M 2113 2584 
Q 1688 2584 1439 2293 
Q 1191 2003 1191 1497 
Q 1191 994 1439 701 
Q 1688 409 2113 409 
Q 2538 409 2786 701 
Q 3034 994 3034 1497 
Q 3034 2003 2786 2293 
Q 2538 2584 2113 2584 
z
M 3366 4563 
L 3366 3988 
Q 3128 4100 2886 4159 
Q 2644 4219 2406 4219 
Q 1781 4219 1451 3797 
Q 1122 3375 1075 2522 
Q 1259 2794 1537 2939 
Q 1816 3084 2150 3084 
Q 2853 3084 3261 2657 
Q 3669 2231 3669 1497 
Q 3669 778 3244 343 
Q 2819 -91 2113 -91 
Q 1303 -91 875 529 
Q 447 1150 447 2328 
Q 447 3434 972 4092 
Q 1497 4750 2381 4750 
Q 2619 4750 2861 4703 
Q 3103 4656 3366 4563 
z
" transform="scale(0.015625)"/>
       </defs>
       <use xlink:href="#DejaVuSans-2212"/>
       <use xlink:href="#DejaVuSans-36" transform="translate(83.789062 0)"/>
       <use xlink:href="#DejaVuSans-30" transform="translate(147.412109 0)"/>
      </g>
     </g>
    </g>
    <g id="ytick_4">
     <g id="line2d_8">
      <g>
       <use xlink:href="#m111f09040c" x="41.667188" y="87.729435" style="stroke: #000000; stroke-width: 0.8"/>
      </g>
     </g>
     <g id="text_8">
      <!-- −40 -->
      <g transform="translate(13.5625 91.528654) scale(0.1 -0.1)">
       <use xlink:href="#DejaVuSans-2212"/>
       <use xlink:href="#DejaVuSans-34" transform="translate(83.789062 0)"/>
       <use xlink:href="#DejaVuSans-30" transform="translate(147.412109 0)"/>
      </g>
     </g>
    </g>
    <g id="ytick_5">
     <g id="line2d_9">
      <g>
       <use xlink:href="#m111f09040c" x="41.667188" y="64.203692" style="stroke: #000000; stroke-width: 0.8"/>
      </g>
     </g>
     <g id="text_9">
      <!-- −20 -->
      <g transform="translate(13.5625 68.002911) scale(0.1 -0.1)">
       <use xlink:href="#DejaVuSans-2212"/>
       <use xlink:href="#DejaVuSans-32" transform="translate(83.789062 0)"/>
       <use xlink:href="#DejaVuSans-30" transform="translate(147.412109 0)"/>
      </g>
     </g>
    </g>
    <g id="ytick_6">
     <g id="line2d_10">
      <g>
       <use xlink:href="#m111f09040c" x="41.667188" y="40.677949" style="stroke: #000000; stroke-width: 0.8"/>
      </g>
     </g>
     <g id="text_10">
      <!-- 0 -->
      <g transform="translate(28.304688 44.477167) scale(0.1 -0.1)">
       <use xlink:href="#DejaVuSans-30"/>
      </g>
     </g>
    </g>
    <g id="ytick_7">
     <g id="line2d_11">
      <g>
       <use xlink:href="#m111f09040c" x="41.667188" y="17.152206" style="stroke: #000000; stroke-width: 0.8"/>
      </g>
     </g>
     <g id="text_11">
      <!-- 20 -->
      <g transform="translate(21.942188 20.951424) scale(0.1 -0.1)">
       <use xlink:href="#DejaVuSans-32"/>
       <use xlink:href="#DejaVuSans-30" transform="translate(63.623047 0)"/>
      </g>
     </g>
    </g>
   </g>
   <g id="line2d_12">
    <path d="M 51.812642 117.247179 
L 51.923368 117.498462 
L 51.925943 117.390769 
L 51.980018 117.534359 
L 52.018644 117.354872 
L 52.036669 117.426667 
L 52.072719 117.318974 
L 52.126795 117.534359 
L 52.147395 117.390769 
L 52.18087 117.318974 
L 52.258121 117.498462 
L 52.278721 117.354872 
L 52.309621 117.534359 
L 52.368847 117.498462 
L 52.392022 117.390769 
L 52.448672 117.570256 
L 52.479573 117.498462 
L 52.582573 117.677949 
L 52.600599 117.642051 
L 52.605749 117.570256 
L 52.706174 117.785641 
L 52.804025 117.857436 
L 52.8066 117.677949 
L 52.8169 117.785641 
L 52.855526 117.677949 
L 52.863251 117.570256 
L 52.958526 117.857436 
L 52.961101 117.821538 
L 52.971402 117.749744 
L 53.038352 117.893333 
L 53.069252 117.857436 
L 53.110453 118.001026 
L 53.182553 117.929231 
L 53.301004 117.606154 
L 53.352505 117.677949 
L 53.324179 117.534359 
L 53.41173 117.606154 
L 53.434905 117.642051 
L 53.532756 117.426667 
L 53.643482 117.570256 
L 53.558506 117.390769 
L 53.648632 117.498462 
L 53.790258 117.534359 
L 53.857209 117.677949 
L 53.875234 117.498462 
L 53.898409 117.534359 
L 53.983385 117.426667 
L 53.957635 117.606154 
L 54.014285 117.462564 
L 54.101836 117.354872 
L 54.222862 117.211282 
L 54.305263 117.283077 
L 54.392813 117.354872 
L 54.405688 117.211282 
L 54.410838 117.247179 
L 54.534439 116.457436 
L 54.544739 116.565128 
L 54.56019 116.457436 
L 54.61169 116.565128 
L 54.670916 116.421538 
L 54.696666 116.457436 
L 54.699241 116.313846 
L 54.776491 116.349744 
L 54.822842 116.457436 
L 54.933568 116.672821 
L 54.946443 116.636923 
L 55.046869 116.457436 
L 55.059744 116.493333 
L 55.075194 116.601026 
L 55.121544 116.421538 
L 55.16532 116.421538 
L 55.559298 116.349744 
L 55.615948 116.242051 
L 55.628823 116.385641 
L 55.670024 116.349744 
L 55.754999 116.206154 
L 55.711224 116.385641 
L 55.783325 116.313846 
L 55.888901 116.457436 
L 55.79105 116.277949 
L 55.899201 116.421538 
L 55.904351 116.385641 
L 55.976451 116.636923 
L 55.994476 116.565128 
L 56.105202 116.708718 
L 56.015077 116.529231 
L 56.107777 116.672821 
L 56.182453 116.601026 
L 56.208203 116.493333 
L 56.264854 116.672821 
L 56.293179 116.601026 
L 56.336954 116.493333 
L 56.354979 116.529231 
L 56.460555 116.277949 
L 56.46313 116.313846 
L 56.553256 116.062564 
L 56.558406 116.098462 
L 56.854533 115.990769 
L 56.926634 115.918974 
L 56.954959 116.098462 
L 56.957534 116.062564 
L 56.978134 117.821538 
L 57.243362 128.626667 
L 57.351513 131.677949 
L 57.686265 137.924103 
L 58.533447 148.190769 
L 58.543747 148.298462 
L 58.548897 148.262564 
L 58.754899 149.698462 
L 58.778074 149.770256 
L 58.901675 150.308718 
L 58.906825 150.272821 
L 58.9094 150.201026 
L 59.002101 150.488205 
L 59.009826 150.41641 
L 59.130852 150.811282 
L 59.133427 150.775385 
L 59.200378 150.452308 
L 59.249303 150.667692 
L 59.347154 150.775385 
L 59.313679 150.631795 
L 59.362604 150.739487 
L 59.372904 150.811282 
L 59.44758 150.488205 
L 59.455305 150.524103 
L 59.506805 150.344615 
L 59.54028 150.631795 
L 59.558306 150.595897 
L 59.661306 150.667692 
L 59.625256 150.488205 
L 59.669032 150.631795 
L 59.671607 150.595897 
L 59.733407 150.883077 
L 59.766882 150.775385 
L 59.774607 150.811282 
L 59.800358 150.631795 
L 59.872458 150.70359 
L 59.890483 150.847179 
L 60.019234 150.165128 
L 60.021809 150.236923 
L 60.10936 149.662564 
L 60.111935 149.662564 
L 60.222661 148.836923 
L 60.258711 149.088205 
L 60.302487 149.339487 
L 60.372012 149.195897 
L 60.392612 149.30359 
L 60.513638 149.590769 
L 60.629514 149.339487 
L 60.632089 149.375385 
L 60.637239 149.411282 
L 60.717065 149.16 
L 60.727365 149.16 
L 60.807191 149.124103 
L 60.920492 148.693333 
L 60.925642 148.765128 
L 61.049243 148.513846 
L 61.051818 148.549744 
L 61.072418 148.621538 
L 61.100743 148.442051 
L 61.157394 148.477949 
L 61.25782 148.118974 
L 61.275845 148.190769 
L 61.322195 148.298462 
L 61.35052 148.083077 
L 61.378846 148.190769 
L 61.456096 147.975385 
L 61.492147 148.047179 
L 61.548797 147.939487 
L 61.638923 147.544615 
L 61.579697 147.975385 
L 61.677548 147.652308 
L 61.705873 147.544615 
L 61.788274 147.76 
L 61.901575 147.365128 
L 61.90415 147.436923 
L 62.027751 146.970256 
L 61.9299 147.508718 
L 62.030326 147.006154 
L 62.043201 146.898462 
L 62.146202 146.50359 
L 62.174527 146.539487 
L 62.177102 146.647179 
L 62.213152 146.467692 
L 62.285253 146.575385 
L 62.49383 146.467692 
L 62.591681 146.324103 
L 62.50413 146.50359 
L 62.609706 146.395897 
L 62.648331 146.21641 
L 62.723007 146.431795 
L 62.748757 146.50359 
L 62.764207 146.575385 
L 62.777082 146.431795 
L 62.856908 146.431795 
L 62.887808 146.36 
L 63.024284 145.534359 
L 63.026859 145.642051 
L 63.11956 145.067692 
L 63.122135 145.10359 
L 63.230286 144.924103 
L 63.13501 145.139487 
L 63.240586 144.995897 
L 63.374487 144.924103 
L 63.377062 144.852308 
L 63.400237 145.067692 
L 63.482638 144.995897 
L 63.500663 144.96 
L 63.616539 144.708718 
L 63.647439 144.672821 
L 63.74014 144.888205 
L 63.843141 144.96 
L 63.961592 145.318974 
L 63.964167 145.247179 
L 64.082618 145.570256 
L 63.969317 145.211282 
L 64.090343 145.462564 
L 64.095493 145.390769 
L 64.172744 145.570256 
L 64.198494 145.534359 
L 64.306645 145.713846 
L 64.203644 145.498462 
L 64.31952 145.677949 
L 64.37617 145.821538 
L 64.432821 145.570256 
L 64.538397 145.749744 
L 64.546122 145.677949 
L 64.595047 145.785641 
L 64.597622 145.821538 
L 64.690323 145.570256 
L 64.692898 145.606154 
L 64.801049 145.498462 
L 64.806199 145.570256 
L 64.834524 145.642051 
L 64.898899 145.426667 
L 64.91435 145.534359 
L 65.00705 145.642051 
L 65.032801 145.713846 
L 65.102326 145.498462 
L 65.107476 145.534359 
L 65.249102 144.708718 
L 65.269703 144.780513 
L 65.328928 144.96 
L 65.385578 144.924103 
L 65.395879 144.81641 
L 65.475704 145.067692 
L 65.491154 144.96 
L 65.51433 145.031795 
L 65.58128 144.852308 
L 65.599305 144.924103 
L 65.635356 144.780513 
L 65.671406 144.96 
L 65.715181 144.81641 
L 65.717756 144.852308 
L 65.805307 144.636923 
L 65.820757 144.744615 
L 66.19156 144.672821 
L 66.286836 144.529231 
L 66.204435 144.708718 
L 66.302286 144.672821 
L 66.328036 144.601026 
L 66.382112 144.780513 
L 66.402712 144.780513 
L 66.516013 145.031795 
L 66.526313 144.995897 
L 66.534038 144.96 
L 66.557213 145.139487 
L 66.629314 145.10359 
L 66.727164 145.067692 
L 66.81214 144.888205 
L 66.840465 144.924103 
L 66.855916 145.031795 
L 66.925441 144.601026 
L 67.092817 143.775385 
L 67.110843 143.847179 
L 67.182943 143.488205 
L 67.193243 143.488205 
L 67.291094 140.580513 
L 67.592372 129.954872 
L 67.903949 124.318974 
L 67.911674 124.211282 
L 68.429253 118.467692 
L 68.431828 118.50359 
L 68.444704 118.395897 
L 68.655855 116.995897 
L 68.666155 116.888205 
L 68.851557 115.847179 
L 68.859282 115.775385 
L 68.982883 115.41641 
L 69.116784 114.985641 
L 69.119359 115.093333 
L 69.21721 114.662564 
L 69.219785 114.662564 
L 69.26871 114.590769 
L 69.392311 114.124103 
L 69.423212 114.231795 
L 69.495312 113.944615 
L 69.554538 113.836923 
L 69.678139 113.621538 
L 69.78629 113.693333 
L 69.696164 113.549744 
L 69.79144 113.657436 
L 70.087567 113.729231 
L 70.110742 113.836923 
L 70.157093 113.621538 
L 70.195718 113.657436 
L 70.509871 113.585641 
L 70.545921 113.513846 
L 70.584546 113.657436 
L 70.620596 113.585641 
L 70.718447 113.693333 
L 70.643772 113.549744 
L 70.736472 113.657436 
L 70.844623 113.765128 
L 70.870374 113.693333 
L 70.960499 113.908718 
L 71.060925 113.765128 
L 70.999125 113.944615 
L 71.071225 113.872821 
L 71.174226 113.765128 
L 71.091825 113.908718 
L 71.181951 113.801026 
L 71.233451 113.872821 
L 71.282377 113.621538 
L 71.287527 113.693333 
L 71.426578 113.801026 
L 71.524429 114.052308 
L 71.431728 113.765128 
L 71.550179 113.980513 
L 71.565629 114.088205 
L 71.573354 114.052308 
L 71.686655 114.231795 
L 71.730431 114.124103 
L 71.758756 114.30359 
L 71.794806 114.267692 
L 71.838581 114.411282 
L 71.815406 114.231795 
L 71.905532 114.30359 
L 71.926132 114.231795 
L 71.980208 114.16 
L 72.021408 114.339487 
L 72.036858 114.195897 
L 72.119259 114.267692 
L 72.057458 114.124103 
L 72.147584 114.231795 
L 72.150159 114.195897 
L 72.186209 114.411282 
L 72.250585 114.339487 
L 72.31496 114.411282 
L 72.425686 114.626667 
L 72.430836 114.590769 
L 72.461737 114.483077 
L 72.464312 114.626667 
L 72.538987 114.626667 
L 72.567312 114.734359 
L 72.675463 115.057436 
L 72.688338 115.021538 
L 72.804214 115.057436 
L 72.90979 115.236923 
L 72.809364 115.021538 
L 72.917515 115.165128 
L 73.015366 115.272821 
L 73.136392 115.56 
L 73.151842 115.452308 
L 73.221368 115.667692 
L 73.236818 115.631795 
L 73.344969 115.811282 
L 73.241968 115.595897 
L 73.352694 115.775385 
L 73.355269 115.739487 
L 73.435095 116.026667 
L 73.450545 115.883077 
L 73.571571 116.170256 
L 73.635946 116.098462 
L 73.581871 116.206154 
L 73.682297 116.170256 
L 73.854823 116.098462 
L 73.962974 115.990769 
L 73.901173 116.277949 
L 73.965549 116.062564 
L 74.081425 116.313846 
L 74.508878 116.206154 
L 74.622179 116.098462 
L 74.557804 116.313846 
L 74.624754 116.134359 
L 74.660805 116.206154 
L 74.76638 116.313846 
L 74.696855 116.134359 
L 74.774106 116.277949 
L 74.980107 116.170256 
L 75.018733 116.134359 
L 75.031608 116.277949 
L 75.085683 116.242051 
L 75.170659 116.493333 
L 75.201559 116.421538 
L 75.29941 116.385641 
L 75.296835 116.565128 
L 75.312285 116.421538 
L 75.420436 116.529231 
L 75.384386 116.385641 
L 75.425586 116.457436 
L 75.526012 116.313846 
L 75.433311 116.493333 
L 75.541462 116.385641 
L 75.639313 116.313846 
L 75.644463 116.206154 
L 75.742314 116.421538 
L 75.744889 116.421538 
L 75.886515 116.313846 
L 75.917415 116.242051 
L 75.989516 116.421538 
L 75.994666 116.385641 
L 76.203242 116.457436 
L 76.306243 116.601026 
L 76.247018 116.421538 
L 76.313968 116.565128 
L 76.373194 116.708718 
L 76.422119 116.529231 
L 76.476195 116.708718 
L 76.53542 116.601026 
L 76.58692 116.565128 
L 76.589495 116.708718 
L 76.643571 116.636923 
L 76.762022 116.852308 
L 76.767172 116.780513 
L 76.865023 116.995897 
L 76.867598 116.995897 
L 76.949998 116.924103 
L 76.888198 117.067692 
L 76.978324 116.96 
L 77.063299 117.067692 
L 77.032399 116.924103 
L 77.091625 117.031795 
L 77.09935 116.96 
L 77.174025 117.10359 
L 77.194625 117.10359 
L 77.274451 117.211282 
L 77.20235 116.995897 
L 77.310501 117.175385 
L 77.369727 117.10359 
L 77.343977 117.211282 
L 77.421227 117.175385 
L 77.426377 117.139487 
L 77.534528 117.318974 
L 77.609204 117.139487 
L 77.645254 117.211282 
L 77.727655 117.354872 
L 77.665854 117.175385 
L 77.76113 117.283077 
L 77.763705 117.211282 
L 77.78688 117.390769 
L 77.871856 117.283077 
L 77.879581 117.318974 
L 77.987732 117.211282 
L 78.008332 117.283077 
L 78.034082 117.139487 
L 78.098458 117.211282 
L 78.373985 117.10359 
L 78.394585 117.175385 
L 78.489861 116.995897 
L 78.569687 117.067692 
L 78.533636 116.96 
L 78.598012 116.96 
L 78.742213 116.852308 
L 78.762813 116.924103 
L 78.852939 116.744615 
L 78.886414 116.888205 
L 78.907014 116.708718 
L 78.963665 116.744615 
L 79.010015 116.601026 
L 79.066666 116.852308 
L 79.071816 116.780513 
L 79.089841 116.708718 
L 79.159367 116.493333 
L 79.205717 116.565128 
L 79.324168 116.457436 
L 79.409144 116.385641 
L 79.329318 116.529231 
L 79.434894 116.421538 
L 79.437469 116.457436 
L 79.470944 116.313846 
L 79.543045 116.421538 
L 79.599695 116.313846 
L 79.646046 116.529231 
L 79.648621 116.493333 
L 79.731021 116.601026 
L 79.653771 116.457436 
L 79.761922 116.529231 
L 79.931873 116.457436 
L 79.934448 116.385641 
L 80.016849 116.636923 
L 80.037449 116.565128 
L 80.086374 116.744615 
L 80.15075 116.601026 
L 80.209975 116.672821 
L 80.315551 116.81641 
L 80.323276 116.744615 
L 80.331001 116.708718 
L 80.446877 116.924103 
L 80.537003 116.888205 
L 80.552453 116.995897 
L 80.555028 116.924103 
L 80.640004 117.067692 
L 80.668329 116.995897 
L 80.730129 116.852308 
L 80.78163 116.96 
L 80.825405 116.888205 
L 80.892356 117.031795 
L 80.954156 116.924103 
L 80.969606 117.067692 
L 81.003082 117.031795 
L 81.018532 116.924103 
L 81.198783 115.883077 
L 81.219383 115.990769 
L 81.283759 115.811282 
L 81.309509 115.954872 
L 81.330109 115.847179 
L 81.404785 116.134359 
L 81.40736 116.134359 
L 81.536111 116.206154 
L 81.644262 116.349744 
L 81.572161 116.134359 
L 81.649412 116.277949 
L 81.651987 116.242051 
L 81.739538 116.421538 
L 81.752413 116.385641 
L 81.837389 116.457436 
L 81.945539 116.601026 
L 81.863139 116.421538 
L 81.950689 116.565128 
L 82.05884 116.636923 
L 82.164416 116.744615 
L 82.071715 116.601026 
L 82.169566 116.672821 
L 82.218492 116.601026 
L 82.264842 116.744615 
L 82.277717 116.636923 
L 82.331793 116.708718 
L 82.318918 116.565128 
L 82.388443 116.636923 
L 82.61762 116.529231 
L 82.692296 116.457436 
L 82.630495 116.601026 
L 82.712896 116.493333 
L 82.849372 127.693333 
L 83.155799 141.334359 
L 83.408151 149.267692 
L 83.861355 158.888205 
L 83.86393 158.81641 
L 83.930881 159.965128 
L 84.124007 162.298462 
L 84.134307 162.370256 
L 84.286234 163.518974 
L 84.301684 163.626667 
L 84.430435 164.41641 
L 84.600386 165.385641 
L 84.44846 164.380513 
L 84.605536 165.349744 
L 84.608111 165.313846 
L 84.687937 165.636923 
L 84.695662 165.636923 
L 84.752312 165.744615 
L 84.839863 165.924103 
L 84.870763 165.852308 
L 85.01239 165.744615 
L 85.025265 165.708718 
L 85.07419 165.96 
L 85.117965 165.81641 
L 85.156591 165.888205 
L 85.210666 165.565128 
L 85.220966 165.601026 
L 85.298217 165.421538 
L 85.336842 165.457436 
L 85.388343 165.421538 
L 85.501644 165.170256 
L 85.393493 165.457436 
L 85.504219 165.206154 
L 85.604644 165.134359 
L 85.728245 164.775385 
L 85.774596 164.667692 
L 85.787471 164.70359 
L 85.918797 164.201026 
L 85.944547 164.093333 
L 86.075873 163.734359 
L 85.954847 164.129231 
L 86.078448 163.770256 
L 86.093898 163.877949 
L 86.165999 163.554872 
L 86.178874 163.662564 
L 86.29475 163.267692 
L 86.297325 163.30359 
L 86.418351 163.052308 
L 86.30505 163.339487 
L 86.420926 163.088205 
L 86.426076 163.124103 
L 86.508477 162.765128 
L 86.511052 162.801026 
L 86.541952 162.693333 
L 86.673278 162.406154 
L 86.717054 162.298462 
L 86.845805 161.939487 
L 86.84838 162.011282 
L 86.850955 162.047179 
L 86.89988 161.831795 
L 86.943655 161.831795 
L 86.951381 161.867692 
L 87.072407 161.580513 
L 87.134207 161.472821 
L 87.250083 161.257436 
L 87.152232 161.508718 
L 87.255233 161.293333 
L 87.270683 161.329231 
L 87.299008 161.113846 
L 87.353084 161.185641 
L 87.471535 160.970256 
L 87.481835 160.934359 
L 87.584836 161.077949 
L 87.674961 160.898462 
L 87.633761 161.185641 
L 87.695562 160.970256 
L 87.698137 161.006154 
L 87.775387 160.683077 
L 87.777962 160.683077 
L 87.950489 158.098462 
L 88.08439 157.739487 
L 88.177091 157.883077 
L 88.195116 157.811282 
L 88.269791 157.739487 
L 88.292967 157.883077 
L 88.303267 157.811282 
L 88.377942 157.990769 
L 88.416568 157.918974 
L 88.483518 157.811282 
L 88.506693 157.990769 
L 88.527293 157.918974 
L 88.671495 158.026667 
L 88.76162 158.098462 
L 88.702395 157.954872 
L 88.779646 157.990769 
L 89.039723 157.883077 
L 89.158174 157.631795 
L 89.222549 157.56 
L 89.338425 157.308718 
L 89.359025 157.41641 
L 89.438851 157.057436 
L 89.518677 156.949744 
L 89.644853 156.698462 
L 89.647428 156.806154 
L 89.747853 156.554872 
L 89.753004 156.626667 
L 89.871455 156.375385 
L 89.89978 156.447179 
L 89.96158 156.124103 
L 89.97188 156.16 
L 90.087756 155.908718 
L 89.979605 156.231795 
L 90.098056 155.944615 
L 90.154707 155.836923 
L 90.167582 155.872821 
L 90.291183 155.442051 
L 90.327233 155.477949 
L 90.383884 155.226667 
L 90.414784 155.262564 
L 90.52036 154.795897 
L 90.564135 154.867692 
L 90.618211 154.652308 
L 90.625936 154.652308 
L 90.690311 154.580513 
L 90.811337 154.257436 
L 90.829362 154.149744 
L 90.937513 153.790769 
L 90.834512 154.185641 
L 90.963263 153.826667 
L 90.970989 153.862564 
L 91.045664 153.539487 
L 91.055964 153.647179 
L 91.18214 153.21641 
L 91.292866 153.144615 
L 91.465393 151.421538 
L 91.470543 151.457436 
L 91.514318 151.134359 
L 91.555518 151.134359 
L 91.666244 151.026667 
L 91.668819 151.098462 
L 91.931471 151.206154 
L 91.934046 151.242051 
L 92.011297 150.990769 
L 92.029322 151.062564 
L 92.137473 150.739487 
L 92.150348 150.775385 
L 92.328025 150.70359 
L 92.446476 150.41641 
L 92.477376 150.524103 
L 92.523726 150.308718 
L 92.552052 150.344615 
L 92.624152 150.236923 
L 92.758053 149.913846 
L 92.773503 149.949744 
L 92.840454 149.698462 
L 92.853329 149.698462 
L 92.861054 149.734359 
L 92.979505 149.483077 
L 93.02328 149.375385 
L 93.131431 149.16 
L 93.144306 149.231795 
L 93.216407 149.124103 
L 93.340008 148.836923 
L 93.226707 149.16 
L 93.342583 148.872821 
L 93.350308 148.908718 
L 93.417259 148.657436 
L 93.437859 148.657436 
L 93.481634 148.585641 
L 93.605235 148.154872 
L 93.646436 148.226667 
L 93.679911 147.975385 
L 93.705661 148.011282 
L 93.777762 147.90359 
L 93.919388 147.472821 
L 93.927113 147.544615 
L 94.012089 147.185641 
L 94.022389 147.293333 
L 94.14599 146.898462 
L 94.15629 147.006154 
L 94.236115 146.647179 
L 94.23869 146.683077 
L 94.246415 146.718974 
L 94.367441 146.324103 
L 94.370016 146.431795 
L 94.465292 146.001026 
L 94.470442 146.072821 
L 94.606918 145.713846 
L 94.650694 145.749744 
L 94.684169 145.534359 
L 94.704769 145.570256 
L 94.709919 145.606154 
L 94.830945 145.318974 
L 94.83352 145.390769 
L 94.918496 145.175385 
L 94.936521 145.175385 
L 95.047247 145.10359 
L 95.155398 144.924103 
L 95.163123 144.96 
L 95.214623 144.852308 
L 95.330499 144.529231 
L 95.345949 144.565128 
L 95.348524 144.601026 
L 95.42835 144.277949 
L 95.4335 144.349744 
L 95.541651 143.883077 
L 95.551951 143.918974 
L 95.567401 143.954872 
L 95.611177 143.667692 
L 95.639502 143.667692 
L 95.739928 143.380513 
L 95.652377 143.70359 
L 95.755378 143.41641 
L 95.760528 143.452308 
L 95.891854 143.057436 
L 95.894429 143.093333 
L 95.97168 142.806154 
L 95.98198 142.842051 
L 96.00258 142.877949 
L 96.105581 142.483077 
L 96.162231 142.375385 
L 96.285832 141.980513 
L 96.419733 141.872821 
L 96.540759 141.585641 
L 96.427458 141.908718 
L 96.548484 141.621538 
L 96.62831 141.513846 
L 96.677235 141.549744 
L 96.739036 141.406154 
L 96.744186 141.513846 
L 96.808561 141.262564 
L 96.844612 141.298462 
L 96.939888 141.118974 
L 96.860062 141.370256 
L 96.965638 141.154872 
L 96.988813 141.190769 
L 97.040313 140.90359 
L 97.055763 140.975385 
L 97.174214 140.365128 
L 97.179365 140.436923 
L 97.20254 140.329231 
L 97.19224 140.472821 
L 97.292665 140.401026 
L 97.362191 140.365128 
L 97.467767 139.934359 
L 97.480642 140.006154 
L 97.524417 139.934359 
L 97.550168 140.042051 
L 97.640293 139.754872 
L 97.684069 139.647179 
L 97.81797 139.324103 
L 97.846295 139.395897 
L 97.908095 139.072821 
L 97.915821 139.144615 
L 97.962171 139.072821 
L 98.080622 138.713846 
L 98.083197 138.749744 
L 98.132122 138.642051 
L 98.250573 138.390769 
L 98.361299 138.283077 
L 98.482325 137.995897 
L 98.582751 137.888205 
L 98.497775 138.031795 
L 98.598201 137.924103 
L 98.660002 137.96 
L 98.683177 137.81641 
L 98.698627 137.852308 
L 98.873728 135.949744 
L 98.711502 137.888205 
L 98.876303 135.985641 
L 98.904629 135.877949 
L 98.922654 135.913846 
L 99.025655 135.698462 
L 99.113205 135.770256 
L 99.035955 135.626667 
L 99.133806 135.662564 
L 99.489158 135.590769 
L 99.530359 135.626667 
L 99.602459 135.483077 
L 99.702885 135.411282 
L 99.808461 135.267692 
L 99.71061 135.447179 
L 99.816186 135.30359 
L 99.826486 135.339487 
L 99.914037 135.16 
L 99.919187 135.231795 
L 99.957812 135.088205 
L 100.035063 135.124103 
L 100.089138 135.052308 
L 100.145789 135.231795 
L 100.26424 134.980513 
L 100.318315 134.908718 
L 100.434191 134.477949 
L 100.333765 134.980513 
L 100.439341 134.585641 
L 100.459941 134.513846 
L 100.560367 134.262564 
L 100.575817 134.370256 
L 100.609293 134.298462 
L 100.730319 133.975385 
L 100.738044 134.047179 
L 100.820444 133.795897 
L 100.830744 133.90359 
L 100.944045 133.724103 
L 100.87967 133.975385 
L 100.94662 133.76 
L 101.041896 133.688205 
L 101.044471 133.580513 
L 101.119147 133.76 
L 101.150047 133.688205 
L 101.165497 133.76 
L 101.242748 133.544615 
L 101.255623 133.652308 
L 101.358624 133.401026 
L 101.368924 133.472821 
L 101.428149 133.401026 
L 101.544025 133.221538 
L 101.585226 133.149744 
L 101.695952 132.970256 
L 101.595526 133.185641 
L 101.701102 133.006154 
L 101.796377 132.934359 
L 101.909678 132.683077 
L 101.914828 132.718974 
L 101.932854 132.611282 
L 102.06418 132.288205 
L 102.07963 132.324103 
L 102.15173 132.072821 
L 102.164605 132.180513 
L 102.288206 131.821538 
L 102.293356 131.929231 
L 102.388632 131.677949 
L 102.396357 131.749744 
L 102.512233 131.462564 
L 102.522533 131.498462 
L 102.545709 131.534359 
L 102.615234 131.247179 
L 102.620384 131.318974 
L 102.67446 131.247179 
L 102.682185 131.283077 
L 102.795486 130.96 
L 102.798061 130.995897 
L 102.888186 130.780513 
L 102.893336 130.780513 
L 102.942262 130.708718 
L 103.052988 130.313846 
L 103.065863 130.349744 
L 103.083888 130.385641 
L 103.207489 129.918974 
L 103.26929 129.811282 
L 103.400616 129.524103 
L 103.408341 129.631795 
L 103.464991 129.41641 
L 103.506191 129.41641 
L 103.637518 129.021538 
L 103.519067 129.452308 
L 103.640093 129.057436 
L 103.642668 129.129231 
L 103.740518 128.806154 
L 103.743093 128.842051 
L 103.853819 128.483077 
L 103.864119 128.518974 
L 103.89502 128.483077 
L 104.003171 128.16 
L 104.010896 128.231795 
L 104.057246 128.16 
L 104.167972 128.01641 
L 104.064971 128.195897 
L 104.170547 128.088205 
L 104.222047 128.01641 
L 104.325048 127.765128 
L 104.232347 128.052308 
L 104.337923 127.801026 
L 104.381699 127.765128 
L 104.497575 127.370256 
L 104.50015 127.406154 
L 104.54135 127.298462 
L 104.55165 127.370256 
L 104.659801 127.190769 
L 104.739627 127.190769 
L 104.845202 126.867692 
L 104.852928 126.939487 
L 104.940478 126.867692 
L 105.048629 126.61641 
L 104.966228 126.90359 
L 105.058929 126.652308 
L 105.12073 126.580513 
L 105.313856 124.283077 
L 105.458057 123.457436 
L 105.481233 123.493333 
L 105.506983 123.565128 
L 105.548183 123.313846 
L 105.581658 123.349744 
L 105.669209 123.134359 
L 105.702684 123.206154 
L 105.707835 123.134359 
L 105.815985 123.242051 
L 105.911261 123.170256 
L 105.867486 123.313846 
L 105.926711 123.242051 
L 106.021987 123.170256 
L 106.024562 123.098462 
L 106.124988 123.313846 
L 106.127563 123.242051 
L 106.204814 123.421538 
L 106.132713 123.170256 
L 106.243439 123.349744 
L 106.354165 123.062564 
L 106.369615 123.098462 
L 106.441716 123.242051 
L 106.470041 123.062564 
L 106.480341 123.170256 
L 106.524116 123.313846 
L 106.593642 123.134359 
L 106.722393 123.062564 
L 106.809944 122.883077 
L 106.835694 122.990769 
L 106.856294 123.062564 
L 106.93612 122.847179 
L 107.02367 122.847179 
L 107.139546 122.452308 
L 107.407348 122.344615 
L 107.520649 122.093333 
L 107.523224 122.129231 
L 107.528374 122.236923 
L 107.621075 121.877949 
L 107.626225 121.913846 
L 107.731801 121.698462 
L 107.742101 121.734359 
L 107.783302 121.662564 
L 107.899178 121.375385 
L 107.909478 121.483077 
L 108.002178 121.195897 
L 108.076854 121.088205 
L 108.092304 121.16 
L 108.200455 120.908718 
L 108.20303 120.944615 
L 108.282856 120.621538 
L 108.293156 120.693333 
L 108.416757 120.406154 
L 108.419332 120.442051 
L 108.439932 120.477949 
L 108.499157 120.262564 
L 108.517183 120.262564 
L 108.658809 120.190769 
L 108.784985 119.724103 
L 108.81846 119.652308 
L 108.929186 119.365128 
L 108.934336 119.436923 
L 108.942061 119.472821 
L 109.027037 119.185641 
L 109.093987 119.113846 
L 109.207288 118.718974 
L 109.101712 119.149744 
L 109.215013 118.754872 
L 109.243339 118.790769 
L 109.305139 118.50359 
L 109.307714 118.539487 
L 109.42359 118.288205 
L 109.318014 118.575385 
L 109.426165 118.324103 
L 109.539466 118.108718 
L 109.431315 118.36 
L 109.549766 118.144615 
L 109.603842 118.036923 
L 109.608992 118.072821 
L 109.719717 117.929231 
L 109.730018 117.893333 
L 109.830443 118.001026 
L 109.925719 117.785641 
L 109.943744 117.821538 
L 109.969495 117.857436 
L 110.03902 117.606154 
L 110.04417 117.677949 
L 110.154896 117.642051 
L 110.263047 117.462564 
L 110.268197 117.534359 
L 110.373773 117.390769 
L 110.306822 117.606154 
L 110.386648 117.426667 
L 110.435573 117.390769 
L 110.438148 117.283077 
L 110.484499 117.498462 
L 110.546299 117.390769 
L 110.605525 117.318974 
L 110.723976 116.96 
L 110.729126 117.067692 
L 110.826977 116.780513 
L 110.829552 116.81641 
L 110.855302 116.81641 
L 110.971178 116.493333 
L 111.099929 116.098462 
L 110.976328 116.529231 
L 111.105079 116.170256 
L 111.123104 116.098462 
L 111.226105 115.954872 
L 111.141129 116.170256 
L 111.236405 115.990769 
L 111.308506 115.918974 
L 111.421806 115.56 
L 111.426956 115.595897 
L 111.429532 115.631795 
L 111.514507 115.272821 
L 111.594333 115.201026 
L 111.707634 114.806154 
L 111.717934 114.842051 
L 111.728234 114.877949 
L 111.841535 114.662564 
L 111.903335 114.554872 
L 111.908485 114.626667 
L 112.032086 114.267692 
L 112.034661 114.375385 
L 112.114487 114.052308 
L 112.137662 114.088205 
L 112.263838 113.765128 
L 112.145387 114.124103 
L 112.266413 113.801026 
L 112.268988 113.872821 
L 112.366839 113.621538 
L 112.369414 113.621538 
L 112.42864 113.513846 
L 112.487865 113.226667 
L 112.552241 113.334359 
L 112.588291 113.262564 
L 112.701592 113.047179 
L 112.704167 113.118974 
L 112.791718 113.083077 
L 112.899869 112.939487 
L 112.848368 113.118974 
L 112.905019 112.975385 
L 113.005444 112.831795 
L 112.941069 113.047179 
L 113.02347 112.867692 
L 113.026045 112.939487 
L 113.118745 112.724103 
L 113.129045 112.76 
L 113.201146 112.688205 
L 113.319597 112.436923 
L 113.365947 112.329231 
L 113.494698 111.970256 
L 113.371097 112.365128 
L 113.497273 112.006154 
L 113.520449 112.042051 
L 113.587399 111.790769 
L 113.597699 111.862564 
L 113.631175 111.754872 
L 113.754776 111.50359 
L 113.757351 111.539487 
L 113.780526 111.467692 
L 113.896402 111.144615 
L 113.788251 111.539487 
L 113.898977 111.180513 
L 113.901552 111.252308 
L 113.989103 110.857436 
L 113.996828 110.893333 
L 114.112704 110.642051 
L 114.115279 110.677949 
L 114.192529 110.570256 
L 114.31613 110.390769 
L 114.318705 110.426667 
L 114.398531 109.995897 
L 114.403681 110.067692 
L 114.529857 109.744615 
L 114.532432 109.81641 
L 114.540157 109.852308 
L 114.625133 109.636923 
L 114.640583 109.780513 
L 114.658608 109.81641 
L 114.756459 109.672821 
L 114.769334 109.780513 
L 114.836284 109.529231 
L 114.85946 109.601026 
L 114.92126 109.672821 
L 114.977911 109.493333 
L 115.047436 109.385641 
L 115.124687 109.277949 
L 115.083487 109.421538 
L 115.160737 109.313846 
L 115.186487 109.349744 
L 115.232838 109.134359 
L 115.263738 109.242051 
L 115.387339 108.883077 
L 115.395064 108.918974 
L 115.508365 108.667692 
L 115.577891 108.847179 
L 115.549565 108.631795 
L 115.619091 108.739487 
L 115.742692 108.524103 
L 115.752992 108.595897 
L 115.827668 108.272821 
L 115.837968 108.308718 
L 115.966719 108.057436 
L 116.015644 107.985641 
L 116.134095 107.662564 
L 116.13667 107.698462 
L 116.16757 107.626667 
L 116.286021 107.30359 
L 116.296321 107.411282 
L 116.342672 107.231795 
L 116.396747 107.30359 
L 116.530648 106.980513 
L 116.535798 107.01641 
L 116.618199 106.729231 
L 116.620774 106.729231 
L 116.749525 106.370256 
L 116.7521 106.442051 
L 116.754675 106.477949 
L 116.783 106.298462 
L 116.852526 106.298462 
L 116.968402 106.190769 
L 117.079128 105.975385 
L 116.981277 106.226667 
L 117.089428 106.047179 
L 117.092003 106.083077 
L 117.153804 105.688205 
L 117.179554 105.76 
L 117.184704 105.76 
L 117.31603 104.324103 
L 117.318605 104.36 
L 117.339205 104.252308 
L 117.488556 103.642051 
L 117.519457 103.749744 
L 117.591557 103.534359 
L 117.596707 103.606154 
L 117.694558 103.713846 
L 117.740908 103.785641 
L 117.792409 103.606154 
L 117.800134 103.677949 
L 117.92116 103.354872 
L 117.98296 103.247179 
L 118.067936 103.10359 
L 118.075661 103.318974 
L 118.096261 103.175385 
L 118.183812 103.247179 
L 118.129737 103.031795 
L 118.209562 103.211282 
L 118.263638 103.318974 
L 118.291963 103.390769 
L 118.338313 103.211282 
L 118.369213 103.318974 
L 118.487664 103.10359 
L 118.534015 103.031795 
L 118.652466 102.601026 
L 118.657616 102.636923 
L 118.693666 102.708718 
L 118.670491 102.529231 
L 118.758042 102.529231 
L 118.884218 102.277949 
L 118.956318 102.421538 
L 118.992369 102.242051 
L 118.994944 102.277949 
L 119.097944 102.170256 
L 119.000094 102.313846 
L 119.11082 102.206154 
L 119.291071 102.098462 
L 119.404372 101.775385 
L 119.298796 102.134359 
L 119.419822 101.847179 
L 119.422397 101.883077 
L 119.494498 101.41641 
L 119.502223 101.452308 
L 119.571748 101.380513 
L 119.579473 101.41641 
L 119.695349 100.949744 
L 119.718525 100.985641 
L 119.76745 100.698462 
L 119.78805 100.734359 
L 119.826675 100.554872 
L 119.878176 100.770256 
L 119.901351 100.698462 
L 119.968302 100.806154 
L 119.978602 100.662564 
L 120.012077 100.734359 
L 120.053277 100.626667 
L 120.042977 100.806154 
L 120.120228 100.734359 
L 120.122803 100.770256 
L 120.182028 100.411282 
L 120.207779 100.483077 
L 120.318504 100.195897 
L 120.323655 100.231795 
L 120.38288 100.30359 
L 120.35198 100.124103 
L 120.431805 100.231795 
L 120.539956 99.944615 
L 120.557981 100.01641 
L 120.578582 100.088205 
L 120.606907 99.944615 
L 120.668707 100.01641 
L 120.689308 99.908718 
L 120.694458 99.944615 
L 120.812909 99.729231 
L 120.905609 99.872821 
L 120.820634 99.657436 
L 120.93136 99.836923 
L 121.062686 99.477949 
L 121.065261 99.513846 
L 121.088436 99.406154 
L 121.103886 99.477949 
L 121.209462 99.083077 
L 121.212037 99.154872 
L 121.250662 99.011282 
L 121.317613 99.083077 
L 121.441214 98.795897 
L 121.443789 98.831795 
L 121.515889 99.047179 
L 121.528764 98.76 
L 121.55194 98.795897 
L 121.64464 98.724103 
L 121.564815 98.831795 
L 121.657515 98.831795 
L 121.696141 98.90359 
L 121.755366 98.724103 
L 121.763091 98.76 
L 121.848067 98.652308 
L 121.938193 98.365128 
L 121.855792 98.724103 
L 121.963943 98.436923 
L 121.997418 98.472821 
L 122.051494 98.185641 
L 122.056644 98.221538 
L 122.195695 97.683077 
L 122.061794 98.257436 
L 122.20342 97.718974 
L 122.216295 97.647179 
L 122.275521 97.395897 
L 122.226595 97.683077 
L 122.324446 97.611282 
L 122.329596 97.718974 
L 122.419722 97.50359 
L 122.430022 97.50359 
L 122.548473 97.395897 
L 122.692674 96.929231 
L 122.7725 97.072821 
L 122.79825 96.893333 
L 122.800825 96.893333 
L 122.8446 96.893333 
L 122.847175 96.749744 
L 122.914126 96.929231 
L 122.955326 96.857436 
L 122.960476 96.965128 
L 123.027427 96.677949 
L 123.060902 96.785641 
L 123.078927 96.857436 
L 123.202528 96.354872 
L 123.310679 96.462564 
L 123.254029 96.247179 
L 123.313254 96.426667 
L 123.336429 96.498462 
L 123.42913 96.570256 
L 123.36733 96.462564 
L 123.447155 96.498462 
L 123.44973 96.534359 
L 123.524406 96.139487 
L 123.529556 96.175385 
L 123.611957 96.211282 
L 123.648007 95.924103 
L 123.743283 95.852308 
L 123.882334 95.062564 
L 123.931259 95.170256 
L 123.967309 94.918974 
L 123.980185 94.918974 
L 124.02911 94.595897 
L 124.096061 94.847179 
L 124.175886 94.954872 
L 124.229962 94.990769 
L 124.247987 94.775385 
L 124.278887 94.847179 
L 124.284037 94.775385 
L 124.361288 95.098462 
L 124.384463 94.990769 
L 124.469439 94.883077 
L 124.605915 94.452308 
L 124.60849 94.524103 
L 124.652265 94.236923 
L 124.708916 94.236923 
L 124.765566 94.165128 
L 124.881442 93.554872 
L 124.894317 93.626667 
L 124.943242 93.842051 
L 124.999893 93.590769 
L 125.002468 93.662564 
L 125.005043 93.590769 
L 125.056543 93.985641 
L 125.102894 93.877949 
L 125.144094 94.057436 
L 125.20332 93.770256 
L 125.216195 93.842051 
L 125.337221 93.411282 
L 125.391296 93.554872 
L 125.435071 93.267692 
L 125.437647 93.339487 
L 125.545797 93.01641 
L 125.556097 93.124103 
L 125.615323 93.30359 
L 125.653948 92.944615 
L 125.656523 92.980513 
L 125.769824 92.693333 
L 125.780124 92.765128 
L 125.81875 92.872821 
L 125.841925 92.693333 
L 125.89085 92.801026 
L 125.991276 92.406154 
L 125.898575 92.836923 
L 126.011876 92.442051 
L 126.017026 92.477949 
L 126.099427 92.190769 
L 126.104577 92.190769 
L 126.120027 92.011282 
L 126.158652 92.298462 
L 126.223028 92.047179 
L 126.243628 92.083077 
L 126.310579 91.76 
L 126.315729 91.795897 
L 126.346629 91.939487 
L 126.44963 91.401026 
L 126.570656 91.867692 
L 126.483105 91.329231 
L 126.575806 91.831795 
L 126.611856 91.939487 
L 126.622156 91.90359 
L 126.738032 92.406154 
L 126.913134 91.508718 
L 126.951759 91.401026 
L 126.972359 91.329231 
L 127.03931 91.724103 
L 127.07021 91.652308 
L 127.08566 91.580513 
L 127.150036 91.831795 
L 127.178361 91.724103 
L 127.263337 92.154872 
L 127.191236 91.688205 
L 127.299387 92.011282 
L 127.428138 91.472821 
L 127.430713 91.61641 
L 127.505388 91.329231 
L 127.536289 91.401026 
L 127.577489 91.221538 
L 127.63414 91.580513 
L 127.657315 91.688205 
L 127.734565 91.867692 
L 127.672765 91.652308 
L 127.770616 91.724103 
L 127.780916 91.795897 
L 127.896792 91.472821 
L 127.901942 91.544615 
L 127.956017 91.329231 
L 127.999793 91.365128 
L 128.017818 91.293333 
L 128.105368 90.754872 
L 128.138844 91.006154 
L 128.174894 90.862564 
L 128.231544 91.042051 
L 128.24957 90.934359 
L 128.349995 91.149744 
L 128.362871 91.077949 
L 128.504497 90.611282 
L 128.555997 90.718974 
L 128.602347 90.431795 
L 128.612648 90.575385 
L 128.651273 90.467692 
L 128.780024 89.965128 
L 128.787749 90.108718 
L 128.790324 90.144615 
L 128.872725 89.749744 
L 128.8753 89.821538 
L 128.888175 89.929231 
L 129.001476 89.606154 
L 129.091602 89.713846 
L 129.137952 89.893333 
L 129.101902 89.677949 
L 129.204902 89.821538 
L 129.261553 89.390769 
L 129.320778 89.677949 
L 129.418629 90.144615 
L 129.439229 89.893333 
L 129.570555 89.175385 
L 129.57313 89.211282 
L 129.645231 89.318974 
L 129.722482 89.677949 
L 129.763682 89.570256 
L 129.923333 88.349744 
L 129.946509 88.529231 
L 130.06496 88.744615 
L 130.224611 89.570256 
L 130.229761 89.534359 
L 130.232336 89.462564 
L 130.258086 89.749744 
L 130.337912 89.534359 
L 130.361087 89.642051 
L 130.425462 88.888205 
L 130.430613 88.924103 
L 130.469238 88.457436 
L 130.513013 88.565128 
L 130.649489 87.129231 
L 130.652064 87.093333 
L 130.688115 87.595897 
L 130.729315 87.56 
L 130.755065 87.667692 
L 130.77824 87.56 
L 130.919867 88.529231 
L 130.948192 88.565128 
L 131.033167 88.349744 
L 131.084668 88.493333 
L 131.115568 88.170256 
L 131.141318 88.313846 
L 131.223719 88.206154 
L 131.28552 87.739487 
L 131.249469 88.277949 
L 131.339595 88.098462 
L 131.37307 88.170256 
L 131.414271 87.739487 
L 131.535297 86.626667 
L 131.537872 86.662564 
L 131.553322 86.590769 
L 131.694948 87.344615 
L 131.818549 86.770256 
L 131.710398 87.380513 
L 131.821124 86.806154 
L 131.939575 87.129231 
L 131.870049 86.698462 
L 131.94215 87.093333 
L 132.130126 88.170256 
L 132.312953 86.124103 
L 132.318103 86.01641 
L 132.377328 85.226667 
L 132.439129 85.693333 
L 132.681181 87.56 
L 132.683756 87.488205 
L 132.773882 87.847179 
L 132.789332 87.631795 
L 132.900058 87.272821 
L 132.799632 87.667692 
L 132.918083 87.380513 
L 132.920658 87.41641 
L 132.982458 87.021538 
L 133.003059 87.021538 
L 133.15756 85.513846 
L 133.165285 85.549744 
L 133.191035 85.477949 
L 133.314636 84.401026 
L 133.335236 84.544615 
L 133.340386 84.652308 
L 133.556688 86.375385 
L 133.564413 86.30359 
L 133.569563 86.231795 
L 133.641664 86.554872 
L 133.675139 86.30359 
L 133.685439 86.411282 
L 133.695739 86.554872 
L 133.75239 86.16 
L 133.77814 86.16 
L 134.092293 82.965128 
L 134.105168 83.144615 
L 134.501721 87.236923 
L 134.506871 87.201026 
L 134.514596 87.236923 
L 134.638197 86.626667 
L 134.908574 84.401026 
L 134.911149 84.436923 
L 134.98325 84.006154 
L 134.985825 84.006154 
L 135.114576 83.431795 
L 135.140326 83.539487 
L 135.184102 83.180513 
L 135.207277 83.21641 
L 135.245902 82.929231 
L 135.305128 83.324103 
L 135.307703 83.324103 
L 135.402978 83.754872 
L 135.423579 83.395897 
L 135.446754 82.965128 
L 135.513704 84.149744 
L 135.693956 85.118974 
L 135.812407 84.329231 
L 135.701681 85.226667 
L 135.843307 84.544615 
L 135.954033 84.867692 
L 135.956608 84.831795 
L 135.966908 84.90359 
L 135.972058 84.975385 
L 136.057034 84.365128 
L 136.059609 84.436923 
L 136.080209 84.329231 
L 136.093084 84.221538 
L 136.15746 84.76 
L 136.160035 84.76 
L 136.196085 84.90359 
L 136.247585 84.113846 
L 136.296511 83.180513 
L 136.371186 83.324103 
L 136.399512 83.072821 
L 136.520538 84.401026 
L 136.564313 84.472821 
L 136.677614 83.754872 
L 136.690489 83.790769 
L 136.757439 84.401026 
L 136.80894 84.113846 
L 136.901641 84.436923 
L 136.81409 84.077949 
L 136.919666 84.113846 
L 137.063867 81.170256 
L 137.084467 48.180513 
L 137.105067 20.324103 
L 137.179743 81.96 
L 137.316219 95.888205 
L 137.457845 96.785641 
L 137.568571 96.606154 
L 137.501621 96.893333 
L 137.573721 96.642051 
L 137.584021 96.677949 
L 137.648397 96.247179 
L 137.653547 96.247179 
L 137.913624 94.165128 
L 137.929074 94.129231 
L 138.07585 92.549744 
L 138.081 92.585641 
L 138.147951 92.047179 
L 138.482704 85.836923 
L 138.508454 83.001026 
L 138.541929 14.76 
L 138.61403 87.021538 
L 138.750506 97.575385 
L 138.886982 98.293333 
L 139.000283 98.006154 
L 138.894707 98.329231 
L 139.010583 98.077949 
L 139.013158 98.113846 
L 139.085259 97.683077 
L 139.087834 97.683077 
L 139.22431 96.965128 
L 139.523012 94.308718 
L 139.525587 94.344615 
L 139.574513 93.626667 
L 139.579663 93.626667 
L 139.718714 91.975385 
L 139.731589 91.867692 
L 140.151317 87.057436 
L 140.169342 87.272821 
L 140.179643 87.344615 
L 140.251743 87.021538 
L 140.267193 87.129231 
L 140.359894 86.088205 
L 140.442295 86.231795 
L 140.457745 86.30359 
L 140.519545 85.765128 
L 140.52212 85.801026 
L 140.632846 80.990769 
L 140.666322 15.765128 
L 140.738422 84.580513 
L 140.872323 96.893333 
L 140.880048 96.821538 
L 140.949574 97.180513 
L 140.959874 97.180513 
L 141.078325 97.467692 
L 141.08605 97.395897 
L 141.243126 96.642051 
L 141.248276 96.677949 
L 141.263726 96.749744 
L 141.320377 96.175385 
L 141.330677 96.211282 
L 141.482603 94.739487 
L 141.866281 90.934359 
L 141.879157 90.826667 
L 142.32721 85.872821 
L 142.340085 85.944615 
L 142.350385 85.836923 
L 142.450811 85.657436 
L 142.427636 85.944615 
L 142.468836 85.693333 
L 142.535787 85.872821 
L 142.574412 85.621538 
L 142.582137 85.657436 
L 142.780414 81.349744 
L 142.816464 17.021538 
L 142.88599 81.780513 
L 143.022466 96.10359 
L 143.061091 96.211282 
L 143.164092 96.462564 
L 143.179542 96.354872 
L 143.189842 96.390769 
L 143.313443 95.96 
L 143.316018 96.031795 
L 143.388119 95.493333 
L 143.408719 95.529231 
L 143.416444 95.421538 
L 143.771797 91.90359 
L 143.774372 92.011282 
L 143.856773 91.113846 
L 143.864498 91.149744 
L 144.214701 87.811282 
L 144.250751 87.918974 
L 144.253326 87.954872 
L 144.304826 87.272821 
L 144.315127 87.272821 
L 144.328002 87.201026 
L 144.441303 86.698462 
L 144.451603 86.734359 
L 144.492803 86.877949 
L 144.536578 86.231795 
L 144.541728 86.231795 
L 144.688505 84.975385 
L 144.69623 85.011282 
L 144.740005 84.90359 
L 144.871331 84.042051 
L 144.879056 83.934359 
L 144.922831 80.201026 
L 144.956307 17.201026 
L 145.030982 81.457436 
L 145.167459 95.385641 
L 145.170034 95.349744 
L 145.303935 95.672821 
L 145.35801 95.565128 
L 145.479036 95.313846 
L 145.484186 95.349744 
L 145.497061 95.277949 
L 145.664438 93.698462 
L 145.667013 93.770256 
L 145.749413 93.052308 
L 145.751988 93.052308 
L 145.92194 91.401026 
L 145.934815 91.293333 
L 146.218067 81.81641 
L 146.248967 15.513846 
L 146.326218 85.944615 
L 146.462694 95.995897 
L 146.483294 96.067692 
L 146.60947 96.642051 
L 146.612045 96.606154 
L 146.712471 96.498462 
L 146.720196 96.534359 
L 146.864397 95.852308 
L 146.879848 95.924103 
L 146.946798 95.277949 
L 146.954523 95.277949 
L 147.129625 93.447179 
L 147.139925 93.375385 
L 147.330476 91.113846 
L 147.348501 91.006154 
L 147.575103 87.775385 
L 147.603428 86.052308 
L 147.618879 61.390769 
L 147.642054 15.226667 
L 147.719304 86.052308 
L 147.848056 95.888205 
L 147.853206 95.81641 
L 147.907281 95.744615 
L 147.951056 95.995897 
L 147.956206 95.924103 
L 148.043757 96.211282 
L 148.069507 96.10359 
L 148.185383 95.672821 
L 148.090107 96.139487 
L 148.193108 95.708718 
L 148.195683 95.744615 
L 148.270359 95.277949 
L 148.504686 93.518974 
L 148.512411 93.554872 
L 148.576786 92.980513 
L 148.615412 92.908718 
L 148.798238 90.898462 
L 148.805963 90.970256 
L 148.862614 90.288205 
L 148.867764 90.324103 
L 149.359593 82.606154 
L 149.395643 16.267692 
L 149.467744 83.108718 
L 149.570745 94.488205 
L 149.59907 94.452308 
L 149.65057 94.56 
L 149.689196 94.595897 
L 149.745846 94.452308 
L 149.753571 94.452308 
L 149.820522 94.344615 
L 149.949273 93.842051 
L 149.954423 93.877949 
L 150.018798 93.267692 
L 150.031673 93.16 
L 150.384451 89.642051 
L 150.389601 89.677949 
L 150.405052 89.713846 
L 150.474577 89.426667 
L 150.479727 89.498462 
L 150.629078 87.883077 
L 150.909756 85.513846 
L 150.914906 85.585641 
L 150.974131 84.867692 
L 151.115757 78.334359 
L 151.149233 17.344615 
L 151.223908 82.10359 
L 151.319184 94.021538 
L 151.362959 93.842051 
L 151.473685 94.057436 
L 151.378409 93.770256 
L 151.478835 94.021538 
L 151.520036 94.129231 
L 151.589561 93.949744 
L 151.607586 94.093333 
L 151.684837 93.554872 
L 151.847063 92.118974 
L 152.413568 84.401026 
L 151.852213 92.154872 
L 152.485669 84.76 
L 152.513994 85.118974 
L 152.583519 84.580513 
L 152.588669 84.61641 
L 152.596394 84.544615 
L 152.65562 85.083077 
L 152.673645 84.939487 
L 152.67622 84.975385 
L 152.743171 84.544615 
L 152.753471 84.544615 
L 152.897672 83.970256 
L 152.784371 84.61641 
L 152.900247 84.006154 
L 152.982648 84.221538 
L 152.910547 83.970256 
L 153.010973 84.006154 
L 153.335426 79.626667 
L 153.016123 84.042051 
L 153.384351 80.344615 
L 153.399801 80.41641 
L 153.525977 81.888205 
L 153.538852 81.636923 
L 153.556877 81.565128 
L 153.721679 74.062564 
L 153.757729 21.436923 
L 153.82983 75.749744 
L 153.968881 92.585641 
L 154.040981 92.765128 
L 154.082182 92.729231 
L 154.226383 91.795897 
L 154.615211 87.847179 
L 154.617786 87.918974 
L 154.692462 87.165128 
L 154.702762 87.236923 
L 154.733662 87.129231 
L 155.024639 81.565128 
L 155.037515 77.508718 
L 155.073565 18.277949 
L 155.145665 79.052308 
L 155.282142 93.088205 
L 155.284717 93.052308 
L 155.287292 93.01641 
L 155.364542 93.339487 
L 155.379992 93.267692 
L 155.382567 93.30359 
L 155.457243 92.944615 
L 155.467543 92.980513 
L 155.69672 91.329231 
L 155.699295 91.365128 
L 155.773971 90.898462 
L 155.776546 90.898462 
L 156.502702 82.247179 
L 156.621153 82.749744 
L 156.747329 81.96 
L 156.664928 82.857436 
L 156.749904 81.995897 
L 156.855479 82.354872 
L 156.767929 81.852308 
L 156.873505 82.175385 
L 157.028006 78.657436 
L 157.043456 66.021538 
L 157.074356 20.108718 
L 157.146457 76.395897 
L 157.272633 92.442051 
L 157.285508 92.370256 
L 157.293233 92.262564 
L 157.440009 91.76 
L 157.460609 91.652308 
L 157.591936 90.898462 
L 157.47091 91.688205 
L 157.597086 90.934359 
L 157.602236 90.826667 
L 157.854588 88.852308 
L 157.859738 88.780513 
L 158.039989 86.842051 
L 158.068314 86.734359 
L 158.354142 83.790769 
L 158.379892 83.898462 
L 158.382467 83.934359 
L 158.441692 83.252308 
L 158.573019 81.349744 
L 158.578169 81.385641 
L 158.593619 81.277949 
L 158.686319 73.739487 
L 158.719795 19.606154 
L 158.79447 77.113846 
L 158.933522 91.688205 
L 159.010772 91.436923 
L 159.046822 91.544615 
L 159.082873 91.436923 
L 159.283724 90.108718 
L 159.286299 90.180513 
L 159.371275 89.498462 
L 159.379 89.498462 
L 159.510326 88.242051 
L 159.520626 88.134359 
L 159.739503 85.083077 
L 159.742078 85.190769 
L 159.821904 84.113846 
L 159.824479 84.113846 
L 159.93778 83.647179 
L 159.94808 83.754872 
L 160.038206 83.862564 
L 160.087131 84.042051 
L 160.136056 83.754872 
L 160.156657 83.970256 
L 160.166957 83.898462 
L 160.306008 82.965128 
L 160.182407 83.970256 
L 160.308583 83.036923 
L 160.354933 83.072821 
L 160.390983 82.642051 
L 160.393559 82.677949 
L 160.409009 82.570256 
L 160.414159 82.606154 
L 160.756636 79.267692 
L 160.772087 79.16 
L 160.826162 76.862564 
L 160.841612 68.606154 
L 160.875087 21.76 
L 160.947188 74.134359 
L 161.086239 91.113846 
L 161.150615 91.365128 
L 161.20469 91.293333 
L 161.346316 90.324103 
L 161.348891 90.36 
L 161.693944 87.093333 
L 161.729994 87.021538 
L 161.884496 85.190769 
L 162.311949 77.975385 
L 162.350575 19.606154 
L 162.42525 75.749744 
L 162.561726 90.395897 
L 162.564301 90.36 
L 162.597777 90.467692 
L 162.667302 90.790769 
L 162.711078 90.539487 
L 162.844979 89.534359 
L 162.847554 89.606154 
L 162.929954 89.10359 
L 162.940254 89.10359 
L 162.95313 88.995897 
L 163.079306 88.206154 
L 163.087031 88.313846 
L 163.148831 88.242051 
L 163.318783 86.554872 
L 163.336808 86.483077 
L 163.586585 78.693333 
L 163.622635 18.421538 
L 163.697311 78.621538 
L 163.828637 91.436923 
L 163.833787 91.401026 
L 163.844087 91.544615 
L 163.926488 91.185641 
L 163.929063 91.185641 
L 163.957388 91.221538 
L 164.055239 90.718974 
L 164.065539 90.754872 
L 164.127339 90.180513 
L 164.418317 87.595897 
L 164.420892 87.70359 
L 164.505867 86.806154 
L 164.508442 86.806154 
L 164.729894 85.047179 
L 164.742769 85.083077 
L 164.747919 84.975385 
L 164.89212 83.754872 
L 164.758219 85.011282 
L 164.899846 83.790769 
L 164.902421 83.826667 
L 164.961646 83.108718 
L 164.964221 83.144615 
L 164.995121 83.072821 
L 165.185673 80.847179 
L 165.216573 80.775385 
L 165.319574 79.698462 
L 165.350474 79.770256 
L 165.525576 81.565128 
L 165.541026 81.457436 
L 165.674927 81.098462 
L 165.680077 81.134359 
L 165.721277 80.344615 
L 165.729002 80.344615 
L 165.873203 76.898462 
L 165.891229 66.308718 
L 165.924704 22.477949 
L 165.996805 72.124103 
L 166.128131 89.498462 
L 166.135856 89.426667 
L 166.166756 89.606154 
L 166.218256 89.139487 
L 166.228556 89.175385 
L 166.241432 89.247179 
L 166.377908 88.601026 
L 166.380483 88.636923 
L 166.444858 88.026667 
L 166.596784 86.877949 
L 166.949562 83.252308 
L 166.959862 83.36 
L 166.965012 83.288205 
L 167.065438 82.354872 
L 167.101489 82.534359 
L 167.129814 82.713846 
L 167.183889 82.211282 
L 167.186464 82.211282 
L 167.377016 79.985641 
L 167.384741 79.877949 
L 167.474867 71.549744 
L 167.510917 21.149744 
L 167.583018 73.021538 
L 167.719494 89.570256 
L 167.722069 89.534359 
L 167.87142 88.852308 
L 167.755544 89.749744 
L 167.87657 88.924103 
L 167.904895 88.81641 
L 168.146947 86.985641 
L 168.159822 86.877949 
L 168.340074 84.867692 
L 168.352949 84.939487 
L 168.399299 84.221538 
L 168.401874 84.221538 
L 168.628476 80.811282 
L 168.728902 81.170256 
L 168.767527 81.457436 
L 168.816453 80.918974 
L 168.826753 80.775385 
L 168.916878 81.170256 
L 168.942629 81.098462 
L 169.164081 73.057436 
L 169.202706 22.406154 
L 169.274806 71.226667 
L 169.413858 88.493333 
L 169.434458 88.421538 
L 169.570934 87.667692 
L 169.588959 87.56 
L 169.720285 86.949744 
L 169.72286 86.949744 
L 169.851611 85.621538 
L 169.856761 85.657436 
L 170.158039 82.965128 
L 170.181214 83.001026 
L 170.232714 82.606154 
L 170.240439 82.606154 
L 170.384641 77.329231 
L 170.425841 21.975385 
L 170.500516 73.201026 
L 170.639568 88.493333 
L 170.683343 88.565128 
L 170.724543 88.349744 
L 170.745143 88.421538 
L 170.806944 88.313846 
L 171.067021 86.231795 
L 171.079896 86.16 
L 171.239548 84.652308 
L 171.242123 84.724103 
L 171.275598 84.652308 
L 171.450699 82.821538 
L 171.460999 82.857436 
L 171.5228 82.283077 
L 171.53825 82.175385 
L 171.703051 78.370256 
L 171.718501 68.10359 
L 171.751977 21.221538 
L 171.826652 72.842051 
L 171.968279 88.134359 
L 171.970854 88.098462 
L 172.032654 87.990769 
L 172.109905 87.847179 
L 172.066129 88.098462 
L 172.14853 87.883077 
L 172.151105 87.918974 
L 172.218056 87.308718 
L 172.236081 87.236923 
L 172.380282 86.30359 
L 172.545083 85.513846 
L 172.547658 85.549744 
L 172.612034 84.939487 
L 172.964812 78.621538 
L 172.982837 70.724103 
L 173.016312 21.580513 
L 173.090988 72.30359 
L 173.232614 88.134359 
L 173.255789 88.242051 
L 173.320165 87.954872 
L 173.32789 87.954872 
L 173.515866 86.806154 
L 173.518441 86.877949 
L 173.600842 86.16 
L 173.757918 84.508718 
L 173.765643 84.580513 
L 173.768218 84.61641 
L 173.822294 83.970256 
L 173.835169 84.006154 
L 173.866069 84.077949 
L 173.98967 83.36 
L 173.992245 83.395897 
L 174.048896 82.749744 
L 174.051471 82.785641 
L 174.167347 81.81641 
L 174.177647 81.852308 
L 174.185372 81.96 
L 174.195672 82.031795 
L 174.265197 81.170256 
L 174.319273 80.775385 
L 174.381073 81.026667 
L 174.383648 81.062564 
L 174.440299 80.524103 
L 174.458324 80.631795 
L 174.466049 80.667692 
L 174.617975 73.595897 
L 174.656601 21.939487 
L 174.728701 70.580513 
L 174.865177 87.631795 
L 174.870327 87.595897 
L 174.885777 87.631795 
L 174.942428 87.201026 
L 174.950153 87.236923 
L 175.102079 86.088205 
L 175.112379 85.980513 
L 175.256581 84.544615 
L 175.555283 80.883077 
L 175.604208 81.242051 
L 175.606783 81.277949 
L 175.668584 80.667692 
L 175.676309 80.775385 
L 175.681459 80.595897 
L 175.745835 81.062564 
L 175.787035 80.70359 
L 175.792185 80.739487 
L 175.85141 80.380513 
L 175.872011 80.380513 
L 176.119213 77.544615 
L 176.157838 77.90359 
L 176.289164 78.477949 
L 176.309764 78.370256 
L 176.45139 77.365128 
L 176.453965 77.401026 
L 176.484866 77.329231 
L 176.605892 75.534359 
L 176.649667 75.785641 
L 176.726918 76.431795 
L 176.770693 76.072821 
L 176.961245 74.852308 
L 176.96382 74.888205 
L 176.992145 75.175385 
L 177.059095 74.744615 
L 177.079696 74.924103 
L 177.174971 74.493333 
L 177.406723 69.754872 
L 177.432473 57.801026 
L 177.473674 32.026667 
L 177.540624 59.56 
L 177.697701 84.293333 
L 177.738901 84.61641 
L 177.816152 84.472821 
L 177.952628 83.36 
L 177.957778 83.467692 
L 178.011853 82.749744 
L 178.019578 82.749744 
L 178.449607 78.226667 
L 178.452182 78.262564 
L 178.516557 78.513846 
L 178.465057 78.154872 
L 178.557758 78.190769 
L 178.624708 77.401026 
L 178.686509 77.867692 
L 178.689084 77.939487 
L 178.779209 77.544615 
L 178.781784 77.544615 
L 178.864185 73.129231 
L 178.913111 28.149744 
L 178.985211 64.370256 
L 179.126837 85.334359 
L 179.137137 85.262564 
L 179.186063 85.442051 
L 179.219538 84.939487 
L 179.224688 84.939487 
L 179.368889 84.006154 
L 179.804068 79.483077 
L 179.968869 80.308718 
L 179.971444 80.272821 
L 180.128521 78.298462 
L 180.267572 74.924103 
L 180.293322 66.452308 
L 180.334522 25.852308 
L 180.404048 65.590769 
L 180.550824 85.370256 
L 180.6255 85.262564 
L 180.911327 82.713846 
L 180.916477 82.749744 
L 180.931927 82.642051 
L 181.107029 80.847179 
L 181.395431 75.426667 
L 181.418606 67.134359 
L 181.457231 26.462564 
L 181.529332 64.370256 
L 181.668383 85.262564 
L 181.676108 85.190769 
L 181.732759 85.083077 
L 181.753359 85.190769 
L 182.119012 81.242051 
L 182.126737 81.277949 
L 182.175662 80.56 
L 182.183387 80.631795 
L 182.350764 78.729231 
L 182.358489 78.801026 
L 182.404839 78.872821 
L 182.500115 79.447179 
L 182.52844 79.231795 
L 182.569641 79.16 
L 182.796242 75.929231 
L 182.832293 76.072821 
L 182.863193 75.354872 
L 182.886368 70.257436 
L 182.930144 27.683077 
L 183.002244 64.154872 
L 183.151595 84.508718 
L 183.231421 84.795897 
L 183.264896 84.61641 
L 183.267471 84.652308 
L 183.321547 84.042051 
L 183.326697 84.042051 
L 183.468323 82.713846 
L 183.669175 81.457436 
L 183.684625 81.421538 
L 183.810801 80.344615 
L 183.818526 80.452308 
L 183.885476 80.524103 
L 183.911227 80.201026 
L 183.918952 80.129231 
L 184.140403 66.739487 
L 184.179029 25.636923 
L 184.251129 65.483077 
L 184.400481 85.406154 
L 184.413356 85.334359 
L 184.446831 85.370256 
L 184.539532 84.90359 
L 184.925785 80.954872 
L 184.930935 80.990769 
L 184.93351 80.990769 
L 185.082861 78.765128 
L 185.088011 78.657436 
L 185.162687 76.431795 
L 185.185862 55.970256 
L 185.216762 25.780513 
L 185.288863 65.339487 
L 185.435639 84.652308 
L 185.448514 84.580513 
L 185.592715 83.647179 
L 185.806442 82.10359 
L 185.811592 82.139487 
L 185.832192 82.067692 
L 185.986694 80.847179 
L 186.295696 77.257436 
L 186.339472 77.401026 
L 186.347197 77.472821 
L 186.414147 76.431795 
L 186.553198 75.642051 
L 186.658774 74.780513 
L 186.694824 75.175385 
L 186.859626 77.724103 
L 186.885376 77.401026 
L 187.034727 75.713846 
L 187.037302 75.749744 
L 187.086228 74.995897 
L 187.093953 74.995897 
L 187.253604 72.842051 
L 187.310254 73.488205 
L 187.449306 74.565128 
L 187.475056 74.242051 
L 187.583207 73.847179 
L 187.593507 74.026667 
L 187.603807 74.206154 
L 187.650157 73.308718 
L 187.724833 72.554872 
L 187.771183 72.842051 
L 187.791783 73.021538 
L 187.869034 72.698462 
L 187.871609 72.698462 
L 187.930835 72.088205 
L 187.987485 72.518974 
L 188.103361 72.949744 
L 188.108511 72.842051 
L 188.129111 72.626667 
L 188.203787 73.272821 
L 188.206362 73.236923 
L 188.337688 74.206154 
L 188.347988 74.134359 
L 188.430389 73.954872 
L 188.440689 74.277949 
L 188.450989 74.242051 
L 188.453564 74.277949 
L 188.502489 73.667692 
L 188.512789 73.667692 
L 188.664716 71.370256 
L 188.677591 71.262564 
L 188.757416 68.642051 
L 188.790892 63.185641 
L 188.850117 37.518974 
L 188.914493 55.252308 
L 189.094744 79.375385 
L 189.097319 79.30359 
L 189.14367 79.447179 
L 189.171995 79.16 
L 189.20032 79.231795 
L 189.357396 77.939487 
L 189.666399 75.031795 
L 189.671549 75.067692 
L 189.694724 75.139487 
L 189.746224 74.601026 
L 190.016602 72.052308 
L 190.034627 72.124103 
L 190.037202 72.231795 
L 190.086127 71.585641 
L 190.137628 71.836923 
L 190.150503 71.908718 
L 190.230328 72.375385 
L 190.271529 72.231795 
L 190.279254 72.30359 
L 190.40028 68.929231 
L 190.43633 60.995897 
L 190.495556 37.411282 
L 190.554781 54.929231 
L 190.727308 79.985641 
L 190.760783 80.093333 
L 190.799408 80.344615 
L 190.861209 79.949744 
L 190.863784 79.913846 
L 190.992535 105.939487 
L 191.206261 115.990769 
L 191.211412 116.062564 
L 191.391663 119.939487 
L 191.57449 121.949744 
L 191.60024 122.057436 
L 191.744441 122.990769 
L 191.757316 123.098462 
L 191.932417 124.031795 
L 191.994218 124.175385 
L 192.058593 123.780513 
L 192.102369 123.852308 
L 192.143569 123.672821 
L 192.164169 123.780513 
L 192.259445 123.493333 
L 192.280045 123.636923 
L 192.370171 123.744615 
L 192.375321 123.708718 
L 192.501497 124.067692 
L 192.509222 123.995897 
L 192.601923 124.354872 
L 192.679174 124.462564 
L 192.79505 124.642051 
L 192.8002 124.606154 
L 192.828525 124.534359 
L 192.85685 124.785641 
L 192.9032 124.713846 
L 192.923801 124.821538 
L 192.967576 124.642051 
L 193.019076 124.785641 
L 193.049977 124.857436 
L 193.137527 124.677949 
L 194.09286 124.785641 
L 194.154661 124.857436 
L 194.105735 124.713846 
L 194.201011 124.749744 
L 194.242211 124.642051 
L 194.252511 124.713846 
L 194.347787 124.606154 
L 194.368387 124.713846 
L 194.448213 124.534359 
L 194.455938 124.570256 
L 194.502289 124.498462 
L 194.491988 124.642051 
L 194.566664 124.570256 
L 194.659365 124.606154 
L 194.615589 124.462564 
L 194.67224 124.498462 
L 194.824166 124.390769 
L 194.945192 124.175385 
L 194.947767 124.211282 
L 194.999268 124.10359 
L 195.066218 123.852308 
L 195.117719 123.995897 
L 195.27222 123.888205 
L 195.357196 123.995897 
L 195.390671 123.708718 
L 195.393246 123.780513 
L 195.439596 123.601026 
L 195.498822 123.672821 
L 195.511697 123.708718 
L 195.606973 123.636923 
L 195.691948 123.780513 
L 195.624998 123.601026 
L 195.720274 123.708718 
L 195.820699 123.780513 
L 195.730574 123.672821 
L 195.830999 123.708718 
L 196.016401 123.708718 
L 196.078201 123.529231 
L 196.127127 123.565128 
L 196.134852 123.708718 
L 196.183777 123.457436 
L 196.237853 123.565128 
L 196.240428 123.529231 
L 196.284203 123.672821 
L 196.346004 123.565128 
L 196.353729 123.672821 
L 196.443854 123.493333 
L 196.454155 123.493333 
L 196.49278 123.385641 
L 196.521105 123.349744 
L 196.510805 123.493333 
L 196.600931 123.421538 
L 196.920233 123.313846 
L 197.007784 123.134359 
L 196.925383 123.385641 
L 197.036109 123.206154 
L 197.079885 123.313846 
L 197.105635 123.134359 
L 197.14941 123.242051 
L 197.267861 123.098462 
L 197.270436 123.170256 
L 197.337387 122.990769 
L 197.376012 123.026667 
L 197.576864 122.918974 
L 197.66699 122.775385 
L 197.589739 122.954872 
L 197.69274 122.811282 
L 197.816341 123.062564 
L 197.71334 122.775385 
L 197.818916 123.026667 
L 197.849816 123.062564 
L 197.852391 123.170256 
L 197.955392 122.954872 
L 197.957967 122.990769 
L 197.965692 123.098462 
L 197.981142 122.918974 
L 198.068693 122.990769 
L 198.351945 122.918974 
L 198.39057 122.954872 
L 198.465246 122.811282 
L 198.490996 122.70359 
L 198.581122 122.883077 
L 198.733048 122.811282 
L 198.843774 122.667692 
L 198.740773 122.847179 
L 198.846349 122.739487 
L 198.926175 122.811282 
L 198.92875 122.883077 
L 199.006001 122.631795 
L 199.029176 122.631795 
L 199.209427 122.56 
L 199.222302 122.595897 
L 199.322728 122.41641 
L 199.420579 122.524103 
L 199.358778 122.380513 
L 199.433454 122.488205 
L 199.482379 122.524103 
L 199.55448 122.308718 
L 199.577655 122.380513 
L 199.608555 122.165128 
L 199.654906 122.272821 
L 199.765632 122.021538 
L 199.768207 122.093333 
L 199.799107 121.985641 
L 199.889233 121.842051 
L 199.835157 122.057436 
L 199.904683 122.021538 
L 199.907258 122.057436 
L 199.989659 121.806154 
L 199.999959 121.842051 
L 200.007684 121.877949 
L 200.11841 121.698462 
L 200.12871 121.734359 
L 200.157035 121.518974 
L 200.221411 121.590769 
L 200.301236 121.698462 
L 200.337286 121.518974 
L 200.427412 121.554872 
L 200.406812 121.447179 
L 200.448012 121.518974 
L 200.548438 121.447179 
L 200.471188 121.590769 
L 200.556163 121.518974 
L 200.630839 121.626667 
L 200.561313 121.447179 
L 200.669464 121.554872 
L 200.818815 121.483077 
L 200.82139 121.411282 
L 200.893491 121.590769 
L 200.926966 121.518974 
L 200.993917 121.590769 
L 200.996492 121.662564 
L 201.084043 121.411282 
L 201.099493 121.483077 
L 201.199919 121.375385 
L 201.125243 121.590769 
L 201.210219 121.447179 
L 201.269444 121.518974 
L 201.279744 121.375385 
L 201.31837 121.411282 
L 201.41107 121.30359 
L 201.434245 121.339487 
L 201.467721 121.447179 
L 201.526946 121.231795 
L 201.534671 121.231795 
L 201.622222 121.124103 
L 201.552696 121.30359 
L 201.645397 121.195897 
L 201.647972 121.267692 
L 201.727798 120.980513 
L 201.748398 120.980513 
L 201.781873 121.052308 
L 201.797323 120.872821 
L 201.853974 120.980513 
L 201.962125 120.657436 
L 201.975 120.693333 
L 202.013625 120.765128 
L 202.02135 120.621538 
L 202.083151 120.621538 
L 202.137226 120.693333 
L 202.173277 120.477949 
L 202.191302 120.621538 
L 202.281427 120.477949 
L 202.222202 120.657436 
L 202.302028 120.621538 
L 202.368978 120.693333 
L 202.387003 120.585641 
L 202.410178 120.585641 
L 202.446229 120.549744 
L 202.443654 120.693333 
L 202.518329 120.585641 
L 202.56983 120.693333 
L 202.55953 120.549744 
L 202.63163 120.657436 
L 202.760381 120.406154 
L 202.865957 120.477949 
L 202.775831 120.334359 
L 202.871107 120.442051 
L 202.989558 120.298462 
L 203.041059 120.226667 
L 203.102859 120.406154 
L 203.192985 120.190769 
L 203.21616 120.226667 
L 203.267661 120.298462 
L 203.321736 120.154872 
L 203.324311 120.190769 
L 203.401562 120.083077 
L 203.453062 119.975385 
L 203.411862 120.154872 
L 203.512288 120.083077 
L 203.713139 120.011282 
L 203.79039 119.867692 
L 203.82129 119.939487 
L 203.823865 120.047179 
L 203.929441 119.867692 
L 203.932016 119.975385 
L 204.086517 120.083077 
L 204.094242 120.047179 
L 204.204968 120.190769 
L 204.215268 120.083077 
L 204.284794 120.298462 
L 204.315694 120.154872 
L 204.344019 120.298462 
L 204.41097 119.975385 
L 204.42127 120.011282 
L 204.503671 119.831795 
L 204.539721 119.867692 
L 204.616972 120.011282 
L 204.575771 119.831795 
L 204.653022 119.975385 
L 204.735423 119.867692 
L 204.753448 119.724103 
L 204.802373 120.011282 
L 204.840998 119.939487 
L 204.938849 120.154872 
L 204.954299 120.011282 
L 204.964599 120.083077 
L 205.02125 119.867692 
L 205.0573 119.90359 
L 205.0779 119.975385 
L 205.080475 120.047179 
L 205.108801 119.831795 
L 205.186051 119.90359 
L 205.214376 119.76 
L 205.289052 119.939487 
L 205.294202 119.939487 
L 205.327677 119.90359 
L 205.435828 119.724103 
L 205.440978 119.76 
L 205.549129 119.90359 
L 205.559429 119.867692 
L 205.680455 119.831795 
L 205.719081 119.401026 
L 205.796331 119.544615 
L 205.917357 119.795897 
L 205.919932 119.724103 
L 206.097609 119.61641 
L 206.177434 119.365128 
L 206.102759 119.652308 
L 206.218635 119.472821 
L 206.555963 119.580513 
L 206.625488 119.688205 
L 206.566263 119.508718 
L 206.664113 119.61641 
L 206.767114 119.508718 
L 206.682139 119.652308 
L 206.774839 119.61641 
L 206.859815 119.544615 
L 206.965391 119.293333 
L 206.864965 119.580513 
L 206.975691 119.401026 
L 207.032341 119.508718 
L 207.086417 119.329231 
L 207.127617 119.508718 
L 207.197143 119.436923 
L 207.305294 119.365128 
L 207.256368 119.472821 
L 207.307869 119.401026 
L 207.343919 119.508718 
L 207.367094 119.329231 
L 207.423745 119.472821 
L 207.43662 119.401026 
L 207.500995 119.652308 
L 207.52417 119.580513 
L 207.544771 119.652308 
L 207.580821 119.472821 
L 207.624596 119.508718 
L 207.627171 119.436923 
L 207.717297 119.688205 
L 207.727597 119.652308 
L 207.743047 119.580513 
L 207.853773 119.867692 
L 207.956774 119.61641 
L 207.977374 119.652308 
L 208.05205 119.688205 
L 208.023725 119.580513 
L 208.08295 119.580513 
L 208.417703 119.544615 
L 208.507829 119.257436 
L 208.533579 119.329231 
L 208.976482 119.436923 
L 209.092358 119.61641 
L 209.009958 119.401026 
L 209.097508 119.580513 
L 209.210809 119.401026 
L 209.105233 119.61641 
L 209.215959 119.436923 
L 209.244285 119.544615 
L 209.31896 119.365128 
L 209.326685 119.436923 
L 209.437411 119.221538 
L 209.442561 119.293333 
L 209.452861 119.293333 
L 209.535262 119.149744 
L 209.563587 119.293333 
L 209.566162 119.329231 
L 209.599637 119.113846 
L 209.671738 119.257436 
L 209.733539 119.149744 
L 209.694913 119.329231 
L 209.779889 119.221538 
L 209.87259 119.436923 
L 209.89319 119.401026 
L 209.942115 119.185641 
L 210.006491 119.329231 
L 210.027091 119.365128 
L 210.122367 119.257436 
L 210.227943 119.293333 
L 210.197042 119.149744 
L 210.230518 119.221538 
L 210.263993 119.113846 
L 210.320643 119.257436 
L 210.374719 119.077949 
L 210.446819 119.221538 
L 210.382444 119.042051 
L 210.485445 119.149744 
L 210.598746 118.970256 
L 210.601321 119.006154 
L 210.809897 119.113846 
L 210.820198 119.042051 
L 210.923198 119.221538 
L 210.946374 119.113846 
L 211.013324 119.329231 
L 211.031349 119.257436 
L 211.036499 119.329231 
L 211.116325 119.149744 
L 211.13435 119.149744 
L 211.306877 119.077949 
L 211.327477 118.934359 
L 211.417602 119.042051 
L 211.796131 118.934359 
L 211.896556 118.862564 
L 211.837331 119.006154 
L 211.904281 118.970256 
L 211.999557 119.042051 
L 212.094833 119.149744 
L 212.102558 118.970256 
L 212.110283 119.042051 
L 212.151483 119.185641 
L 212.123158 118.970256 
L 212.215859 119.006154 
L 212.32401 118.898462 
L 212.223584 119.042051 
L 212.326585 118.970256 
L 212.367785 119.006154 
L 212.342035 118.898462 
L 212.432161 118.934359 
L 212.486236 118.862564 
L 212.519711 119.042051 
L 212.540312 118.970256 
L 212.578937 118.898462 
L 212.661338 119.113846 
L 212.725713 118.934359 
L 212.772064 119.006154 
L 212.813264 119.077949 
L 212.890515 118.862564 
L 212.988365 118.970256 
L 212.962615 118.826667 
L 213.00124 118.898462 
L 213.021841 118.934359 
L 213.114541 118.754872 
L 213.155742 118.898462 
L 213.204667 118.683077 
L 213.222692 118.718974 
L 213.323118 118.575385 
L 213.287068 118.790769 
L 213.335993 118.647179 
L 213.359168 118.718974 
L 213.426119 118.50359 
L 213.441569 118.611282 
L 213.444144 118.50359 
L 213.541995 118.683077 
L 213.552295 118.611282 
L 213.673321 118.718974 
L 213.681046 118.790769 
L 213.735121 118.611282 
L 213.778897 118.647179 
L 213.941123 118.611282 
L 214.044124 118.288205 
L 214.056999 118.324103 
L 214.14455 118.395897 
L 214.098199 118.21641 
L 214.167725 118.36 
L 214.178025 118.431795 
L 214.278451 118.288205 
L 214.281026 118.324103 
L 214.311926 118.108718 
L 214.386602 118.252308 
L 214.438102 118.144615 
L 214.487028 118.108718 
L 214.533378 118.288205 
L 214.535953 118.21641 
L 214.538528 118.324103 
L 214.564278 118.180513 
L 214.644104 118.180513 
L 214.73938 118.144615 
L 214.819205 117.965128 
L 214.852681 118.036923 
L 215.007182 117.929231 
L 215.079282 117.749744 
L 215.017482 117.965128 
L 215.117908 117.893333 
L 215.128208 117.821538 
L 215.233784 118.001026 
L 215.262109 117.929231 
L 215.269834 118.072821 
L 215.341935 118.036923 
L 215.468111 118.144615 
L 215.491286 118.180513 
L 215.547936 117.965128 
L 215.571112 118.072821 
L 215.589137 118.144615 
L 215.692138 117.929231 
L 215.728188 117.965128 
L 215.738488 117.857436 
L 215.797713 117.857436 
L 215.887839 117.785641 
L 215.892989 117.821538 
L 216.00629 117.570256 
L 216.014015 117.534359 
L 216.114441 117.642051 
L 216.220017 117.426667 
L 216.124741 117.677949 
L 216.227742 117.498462 
L 216.338468 117.354872 
L 216.248342 117.570256 
L 216.346193 117.390769 
L 216.449194 117.570256 
L 216.462069 117.534359 
L 216.577945 117.390769 
L 216.603695 117.318974 
L 216.693821 117.462564 
L 216.783946 117.354872 
L 216.791672 117.498462 
L 216.801972 117.498462 
L 216.907547 117.570256 
L 216.871497 117.354872 
L 216.915273 117.534359 
L 217.031149 117.283077 
L 216.946173 117.606154 
L 217.038874 117.354872 
L 217.350451 117.426667 
L 217.471477 117.713846 
L 217.474052 117.642051 
L 217.559028 117.785641 
L 217.582203 117.713846 
L 217.605378 117.857436 
L 217.654304 117.642051 
L 217.692929 117.713846 
L 217.759879 117.498462 
L 217.81653 117.534359 
L 217.865455 117.642051 
L 217.86803 117.677949 
L 217.947856 117.462564 
L 217.963306 117.462564 
L 218.300634 117.354872 
L 218.321234 117.283077 
L 218.40106 117.498462 
L 218.403635 117.462564 
L 218.460285 117.354872 
L 218.571011 117.031795 
L 218.589036 117.10359 
L 218.601911 117.031795 
L 218.704912 117.175385 
L 218.712637 117.10359 
L 218.807913 116.636923 
L 218.836238 116.744615 
L 218.946964 117.067692 
L 218.967564 117.031795 
L 218.970139 116.995897 
L 219.008765 117.175385 
L 219.070565 117.067692 
L 219.160691 117.283077 
L 219.183866 117.175385 
L 219.294592 117.247179 
L 219.299742 117.211282 
L 219.413043 117.534359 
L 219.510894 117.462564 
L 219.472269 117.606154 
L 219.523769 117.534359 
L 219.68857 117.642051 
L 219.750371 117.570256 
L 219.799296 117.677949 
L 219.812171 117.570256 
L 219.850797 117.749744 
L 219.907447 117.642051 
L 220.018173 117.893333 
L 220.023323 117.821538 
L 220.072248 117.713846 
L 220.175249 117.677949 
L 220.154649 117.785641 
L 220.177824 117.785641 
L 220.401851 117.857436 
L 220.517727 118.001026 
L 220.569228 118.072821 
L 220.574378 118.001026 
L 220.679953 118.180513 
L 220.703129 118.108718 
L 220.749479 118.324103 
L 220.785529 118.324103 
L 220.81643 118.252308 
L 220.88853 118.431795 
L 220.89368 118.324103 
L 221.009556 118.539487 
L 221.014706 118.50359 
L 221.073932 118.395897 
L 221.040456 118.539487 
L 221.125432 118.467692 
L 221.205258 118.611282 
L 221.243883 118.575385 
L 221.267058 118.539487 
L 221.315984 118.683077 
L 221.354609 118.575385 
L 221.874763 118.683077 
L 221.877338 118.718974 
L 221.964889 118.50359 
L 221.975189 118.575385 
L 222.09364 118.288205 
L 222.09879 118.395897 
L 222.160591 118.21641 
L 222.201791 118.252308 
L 222.248141 118.324103 
L 222.279042 118.395897 
L 222.322817 118.21641 
L 222.356292 118.288205 
L 222.389768 118.324103 
L 222.469593 118.21641 
L 222.505643 118.288205 
L 222.515944 118.144615 
L 222.577744 118.180513 
L 222.72452 118.108718 
L 222.817221 117.821538 
L 222.842971 117.893333 
L 222.987172 118.001026 
L 223.090173 118.072821 
L 223.015498 117.965128 
L 223.095323 117.965128 
L 223.221499 118.072821 
L 223.239524 118.001026 
L 223.3348 118.21641 
L 223.363125 118.108718 
L 223.424926 118.324103 
L 223.442951 118.21641 
L 223.450676 118.288205 
L 223.517627 118.001026 
L 223.548527 118.144615 
L 223.646378 118.036923 
L 223.648953 118.001026 
L 223.692728 118.180513 
L 223.749379 118.108718 
L 223.762254 118.21641 
L 223.808604 118.036923 
L 223.854955 118.108718 
L 223.92448 118.001026 
L 223.963105 118.108718 
L 224.078981 118.324103 
L 224.081556 118.288205 
L 224.109882 118.144615 
L 224.171682 118.395897 
L 224.192282 118.288205 
L 224.310733 118.395897 
L 224.375109 118.431795 
L 224.403434 118.252308 
L 224.413734 118.288205 
L 224.552785 118.324103 
L 224.653211 118.50359 
L 224.606861 118.288205 
L 224.666086 118.467692 
L 224.717587 118.36 
L 224.766512 118.539487 
L 224.774237 118.467692 
L 224.825738 118.611282 
L 224.887538 118.539487 
L 224.985389 118.431795 
L 224.944188 118.575385 
L 225.000839 118.467692 
L 225.11414 118.36 
L 225.011139 118.539487 
L 225.116715 118.395897 
L 225.376792 118.50359 
L 225.425717 118.575385 
L 225.469493 118.36 
L 225.482368 118.467692 
L 225.526143 118.395897 
L 225.515843 118.539487 
L 225.587944 118.50359 
L 225.68322 118.575385 
L 225.600819 118.467692 
L 225.69867 118.539487 
L 225.788795 118.467692 
L 225.793945 118.611282 
L 225.809396 118.539487 
L 225.884071 118.611282 
L 225.912396 118.431795 
L 226.337275 118.539487 
L 226.440276 118.647179 
L 226.342425 118.431795 
L 226.448001 118.539487 
L 226.551002 118.467692 
L 226.458301 118.575385 
L 226.558727 118.50359 
L 226.607652 118.611282 
L 226.612802 118.575385 
L 226.723528 118.718974 
L 226.759578 118.611282 
L 226.790479 118.790769 
L 226.831679 118.754872 
L 226.854854 118.826667 
L 226.883179 118.647179 
L 226.93983 118.718974 
L 227.022231 118.683077 
L 226.968155 118.790769 
L 227.047981 118.754872 
L 227.060856 118.683077 
L 227.163857 118.826667 
L 227.269433 118.647179 
L 227.181882 118.862564 
L 227.279733 118.683077 
L 227.349258 118.575385 
L 227.359558 118.611282 
L 227.470284 118.431795 
L 227.55011 118.395897 
L 227.663411 118.144615 
L 227.665986 118.180513 
L 227.982713 118.288205 
L 228.041939 118.395897 
L 228.013614 118.252308 
L 228.090864 118.324103 
L 228.19644 118.252308 
L 228.096014 118.36 
L 228.20159 118.288205 
L 228.338066 118.21641 
L 228.350941 118.144615 
L 228.410167 118.395897 
L 228.441067 118.36 
L 228.482268 118.50359 
L 228.520893 118.324103 
L 228.556943 118.431795 
L 228.84277 118.50359 
L 228.886546 118.431795 
L 228.953496 118.611282 
L 228.956071 118.539487 
L 228.979247 118.718974 
L 229.061647 118.647179 
L 229.138898 118.539487 
L 229.249624 118.467692 
L 229.146623 118.647179 
L 229.252199 118.50359 
L 229.38095 118.50359 
L 229.494251 118.288205 
L 229.584377 118.395897 
L 229.599827 118.21641 
L 229.604977 118.288205 
L 229.901104 118.180513 
L 230.01183 118.072821 
L 229.921704 118.21641 
L 230.01698 118.108718 
L 230.083931 118.144615 
L 230.068481 118.001026 
L 230.122556 118.072821 
L 230.233282 117.929231 
L 230.130281 118.144615 
L 230.235857 118.001026 
L 230.297657 117.893333 
L 230.287357 118.036923 
L 230.346583 118.001026 
L 230.413533 117.893333 
L 230.457309 117.857436 
L 230.467609 118.001026 
L 230.519109 117.929231 
L 230.568035 118.036923 
L 230.614385 117.749744 
L 230.624685 117.785641 
L 230.63241 117.821538 
L 230.686486 117.570256 
L 230.722536 117.606154 
L 230.810087 117.534359 
L 230.792061 117.677949 
L 230.830687 117.606154 
L 230.928538 117.677949 
L 230.913087 117.570256 
L 230.941413 117.642051 
L 230.992913 117.570256 
L 231.034113 117.749744 
L 231.049564 117.677949 
L 231.296766 117.749744 
L 231.307066 117.713846 
L 231.412642 117.893333 
L 231.510492 117.965128 
L 231.466717 117.821538 
L 231.525943 117.929231 
L 231.716494 118.036923 
L 231.778295 118.144615 
L 231.814345 117.965128 
L 231.819495 117.965128 
L 231.922496 117.749744 
L 231.83752 118.001026 
L 231.935371 117.893333 
L 232.164548 117.785641 
L 232.179998 117.606154 
L 232.270124 117.785641 
L 232.373124 117.929231 
L 232.38085 117.857436 
L 232.465825 117.785641 
L 232.4375 117.965128 
L 232.489 117.893333 
L 232.599726 118.036923 
L 232.530201 117.857436 
L 232.604876 117.965128 
L 232.777403 116.924103 
L 232.620326 118.001026 
L 232.782553 116.96 
L 232.785128 117.031795 
L 232.864954 116.349744 
L 232.875254 116.457436 
L 232.901004 116.349744 
L 232.947354 116.601026 
L 232.98598 116.457436 
L 233.119881 116.81641 
L 233.148206 116.96 
L 233.246057 116.601026 
L 233.261507 116.493333 
L 233.387683 115.883077 
L 233.390258 115.918974 
L 233.495834 115.990769 
L 233.418583 115.775385 
L 233.503559 115.954872 
L 233.539609 116.062564 
L 233.61686 116.242051 
L 233.547334 116.026667 
L 233.660635 116.206154 
L 233.753336 116.277949 
L 233.820286 116.421538 
L 233.864062 116.277949 
L 233.884662 116.242051 
L 233.933587 116.493333 
L 233.956762 116.457436 
L 234.077788 116.852308 
L 234.080363 116.81641 
L 234.103539 116.780513 
L 234.149889 116.672821 
L 234.155039 116.81641 
L 234.21169 116.81641 
L 234.26319 116.924103 
L 234.312115 116.995897 
L 234.361041 116.780513 
L 234.368766 116.852308 
L 234.505242 115.990769 
L 234.507817 116.062564 
L 234.525842 115.990769 
L 234.595368 115.883077 
L 234.623693 116.026667 
L 234.633993 116.026667 
L 234.724119 116.098462 
L 234.639143 115.990769 
L 234.744719 116.026667 
L 234.785919 116.098462 
L 234.90952 116.493333 
L 234.912095 116.385641 
L 235.004796 116.708718 
L 235.015096 116.672821 
L 235.017671 116.636923 
L 235.084622 116.924103 
L 235.110372 116.888205 
L 235.239123 117.318974 
L 235.249423 117.283077 
L 235.251998 117.211282 
L 235.347274 117.462564 
L 235.354999 117.426667 
L 235.365299 117.318974 
L 235.429675 117.677949 
L 235.450275 117.642051 
L 235.571301 117.857436 
L 235.594476 117.749744 
L 235.656276 117.893333 
L 235.682027 117.857436 
L 235.700052 117.821538 
L 235.720652 118.001026 
L 235.779877 117.965128 
L 235.895753 118.144615 
L 235.931804 118.072821 
L 235.978154 118.288205 
L 235.996179 118.288205 
L 236.09918 118.467692 
L 236.003904 118.252308 
L 236.112055 118.431795 
L 236.153256 118.288205 
L 236.212481 118.539487 
L 236.222781 118.431795 
L 236.385007 118.539487 
L 236.392732 118.575385 
L 236.444233 118.395897 
L 236.488008 118.467692 
L 236.621909 118.072821 
L 236.544659 118.575385 
L 236.624484 118.108718 
L 236.655385 118.036923 
L 236.778986 117.462564 
L 236.887137 117.498462 
L 236.817611 117.390769 
L 236.889712 117.462564 
L 236.933487 117.534359 
L 236.961812 117.498462 
L 237.049363 117.677949 
L 237.059663 117.749744 
L 237.082838 117.570256 
L 237.160089 117.677949 
L 237.170389 117.570256 
L 237.193564 117.749744 
L 237.27339 117.606154 
L 237.35579 117.713846 
L 237.445916 117.893333 
L 237.36094 117.677949 
L 237.471666 117.785641 
L 237.492266 117.857436 
L 237.587542 118.108718 
L 237.605567 118.001026 
L 237.613292 118.036923 
L 237.747194 117.534359 
L 237.855344 117.713846 
L 237.757494 117.462564 
L 237.86307 117.642051 
L 237.875945 117.570256 
L 237.92487 117.821538 
L 237.96607 117.749744 
L 237.981521 117.821538 
L 238.048471 117.354872 
L 238.061346 117.390769 
L 238.190097 116.924103 
L 238.202972 116.96 
L 238.231298 116.852308 
L 238.267348 116.780513 
L 238.303398 116.995897 
L 238.339448 116.888205 
L 238.532575 116.995897 
L 238.5403 116.96 
L 238.661326 117.247179 
L 238.733427 117.10359 
L 238.666476 117.283077 
L 238.769477 117.283077 
L 239.014104 117.175385 
L 239.016679 117.139487 
L 239.024404 117.283077 
L 239.111955 117.283077 
L 239.178905 117.247179 
L 239.225256 117.390769 
L 239.294781 117.283077 
L 239.390057 116.924103 
L 239.413232 117.031795 
L 239.482758 117.139487 
L 239.418382 116.995897 
L 239.523958 117.031795 
L 239.897336 116.924103 
L 240.010637 116.601026 
L 240.023512 116.708718 
L 240.033812 116.601026 
L 240.154838 116.206154 
L 240.038962 116.636923 
L 240.167713 116.277949 
L 240.206339 116.170256 
L 240.30419 116.062564 
L 240.317065 116.134359 
L 240.432941 116.421538 
L 240.440666 116.349744 
L 240.644092 114.949744 
L 240.453541 116.421538 
L 240.646667 114.985641 
L 240.654392 114.949744 
L 240.780568 115.308718 
L 240.790869 115.272821 
L 240.870694 115.56 
L 240.878419 115.488205 
L 241.035496 116.134359 
L 241.050946 116.062564 
L 241.123046 116.349744 
L 241.133346 116.313846 
L 241.254372 116.529231 
L 241.313598 116.349744 
L 241.365098 116.493333 
L 241.488699 116.672821 
L 241.522175 116.601026 
L 241.532475 116.744615 
L 241.59685 116.708718 
L 241.625175 116.81641 
L 241.738476 116.96 
L 241.6329 116.744615 
L 241.741051 116.888205 
L 241.756502 116.81641 
L 241.800277 116.995897 
L 241.846627 116.924103 
L 241.962503 117.067692 
L 241.975378 116.995897 
L 242.039754 117.211282 
L 242.062929 117.139487 
L 242.101554 117.283077 
L 242.14533 117.067692 
L 242.17623 117.211282 
L 242.284381 117.354872 
L 242.183955 117.175385 
L 242.289531 117.318974 
L 242.351331 117.390769 
L 242.446607 116.026667 
L 242.472357 115.918974 
L 242.595958 115.488205 
L 242.613984 115.41641 
L 242.709259 115.595897 
L 242.711834 115.488205 
L 242.76076 115.667692 
L 242.81741 115.631795 
L 242.946161 116.026667 
L 242.953886 115.990769 
L 242.995087 115.883077 
L 243.020837 115.811282 
L 243.080062 116.098462 
L 243.090362 116.026667 
L 243.185638 116.277949 
L 243.206238 116.206154 
L 243.234564 116.277949 
L 243.35559 116.565128 
L 243.399365 116.493333 
L 243.44829 116.672821 
L 243.461166 116.636923 
L 243.520391 116.744615 
L 243.569316 116.888205 
L 243.610517 116.672821 
L 243.623392 116.672821 
L 243.646567 116.601026 
L 243.700642 116.780513 
L 243.726393 116.744615 
L 243.757293 116.852308 
L 243.785618 116.636923 
L 243.831969 116.708718 
L 243.886044 116.601026 
L 243.929819 116.81641 
L 243.940119 116.744615 
L 244.061145 116.96 
L 244.06372 116.924103 
L 244.089471 116.852308 
L 244.161571 117.10359 
L 244.164146 117.067692 
L 244.285172 117.139487 
L 244.406198 117.426667 
L 244.421648 117.354872 
L 244.483449 117.570256 
L 244.509199 117.462564 
L 244.61735 117.713846 
L 244.62765 117.677949 
L 244.630225 117.606154 
L 244.722926 117.857436 
L 244.735801 117.749744 
L 244.841377 117.929231 
L 244.854252 117.857436 
L 244.918627 117.929231 
L 245.006178 118.036923 
L 244.964978 117.893333 
L 245.029353 117.929231 
L 245.124629 117.965128 
L 245.152954 118.072821 
L 245.209605 117.426667 
L 245.219905 117.462564 
L 245.333206 117.139487 
L 245.340931 117.175385 
L 245.415607 117.247179 
L 245.505732 117.390769 
L 245.528907 117.354872 
L 245.552083 117.283077 
L 245.626758 117.498462 
L 245.634483 117.426667 
L 245.758084 117.642051 
L 245.85336 117.534359 
L 245.871385 117.570256 
L 245.940911 117.713846 
L 245.971811 117.462564 
L 246.043912 117.318974 
L 246.028462 117.498462 
L 246.085112 117.390769 
L 246.193263 117.570256 
L 246.206138 117.534359 
L 246.291114 117.606154 
L 246.409565 117.821538 
L 246.50484 117.857436 
L 246.520291 117.713846 
L 246.553766 117.821538 
L 246.605266 117.606154 
L 246.628442 117.642051 
L 246.749468 117.713846 
L 246.839593 117.893333 
L 246.764918 117.677949 
L 246.862768 117.821538 
L 246.937444 117.857436 
L 247.04817 118.036923 
L 247.050745 117.965128 
L 247.117696 118.036923 
L 247.182071 118.144615 
L 247.127996 118.001026 
L 247.230996 118.108718 
L 247.344297 118.072821 
L 247.467898 117.211282 
L 247.473048 117.247179 
L 247.527124 117.318974 
L 247.643 117.570256 
L 247.645575 117.534359 
L 247.725401 117.606154 
L 247.743426 117.713846 
L 247.810376 117.498462 
L 247.833551 117.534359 
L 247.975178 117.462564 
L 248.075603 117.283077 
L 247.995778 117.498462 
L 248.088478 117.354872 
L 248.196629 117.462564 
L 248.281605 117.606154 
L 248.201779 117.426667 
L 248.312505 117.534359 
L 248.32538 117.462564 
L 248.425806 116.708718 
L 248.459282 116.744615 
L 248.588033 117.067692 
L 248.624083 116.96 
L 248.634383 117.10359 
L 248.698759 117.067692 
L 248.783734 116.995897 
L 248.835235 116.81641 
L 248.796609 117.067692 
L 248.89446 116.96 
L 248.982011 117.175385 
L 249.015486 117.10359 
L 249.038661 117.067692 
L 249.056686 117.211282 
L 249.123637 117.139487 
L 249.236938 117.354872 
L 249.239513 117.318974 
L 249.293588 117.390769 
L 249.399164 117.570256 
L 249.406889 117.462564 
L 249.53564 117.785641 
L 249.538215 117.749744 
L 249.54079 117.713846 
L 249.576841 117.893333 
L 249.643791 117.821538 
L 249.705592 117.929231 
L 249.790567 118.072821 
L 249.713317 117.893333 
L 249.818893 117.965128 
L 249.932194 118.072821 
L 249.937344 118.036923 
L 250.055795 118.36 
L 250.117595 118.252308 
L 250.133045 118.467692 
L 250.163946 118.467692 
L 250.236046 118.575385 
L 250.284972 118.324103 
L 250.295272 118.288205 
L 250.359647 117.929231 
L 250.411148 118.036923 
L 250.529599 118.288205 
L 250.534749 118.252308 
L 250.560499 118.144615 
L 250.570799 118.288205 
L 250.64805 118.21641 
L 250.7459 118.108718 
L 250.779376 118.21641 
L 250.921002 117.211282 
L 250.946752 117.10359 
L 251.031728 116.995897 
L 250.962202 117.139487 
L 251.052328 117.139487 
L 251.057478 117.10359 
L 251.175929 117.390769 
L 251.227429 117.211282 
L 251.271205 117.462564 
L 251.286655 117.390769 
L 251.397381 117.642051 
L 251.399956 117.570256 
L 251.593082 116.313846 
L 251.410256 117.677949 
L 251.598232 116.349744 
L 251.719258 116.780513 
L 251.734708 116.708718 
L 251.763034 116.780513 
L 251.86861 117.175385 
L 251.88406 117.139487 
L 251.896935 117.211282 
L 252.023111 116.708718 
L 252.035986 116.852308 
L 252.105511 116.349744 
L 252.108086 116.349744 
L 252.128687 116.313846 
L 252.185337 116.098462 
L 252.239413 116.277949 
L 252.244563 116.242051 
L 252.370739 116.601026 
L 252.411939 116.529231 
L 252.455714 116.672821 
L 252.47889 116.636923 
L 252.597341 116.744615 
L 252.720942 116.995897 
L 252.723517 116.96 
L 252.775017 116.924103 
L 252.798192 117.10359 
L 252.818792 117.10359 
L 252.831667 117.067692 
L 252.937243 117.318974 
L 252.947543 117.283077 
L 252.965569 117.426667 
L 253.042819 117.390769 
L 253.158695 117.570256 
L 253.107195 117.354872 
L 253.16127 117.534359 
L 253.308046 116.744615 
L 253.212771 117.642051 
L 253.326071 116.780513 
L 253.393022 116.672821 
L 253.470273 116.601026 
L 253.488298 116.780513 
L 253.503748 116.672821 
L 253.539798 116.744615 
L 253.658249 116.96 
L 253.69945 116.888205 
L 253.748375 117.139487 
L 253.758675 117.031795 
L 253.877126 117.354872 
L 253.879701 117.318974 
L 253.993002 117.462564 
L 253.995577 117.426667 
L 254.018752 117.390769 
L 254.062528 117.534359 
L 254.096003 117.534359 
L 254.191279 117.570256 
L 254.142353 117.426667 
L 254.204154 117.498462 
L 254.206729 117.426667 
L 254.283979 117.642051 
L 254.30973 117.606154 
L 254.35093 117.677949 
L 254.31488 117.570256 
L 254.41788 117.570256 
L 254.497706 117.498462 
L 254.582682 117.390769 
L 254.605857 117.606154 
L 254.693408 117.462564 
L 254.716583 117.570256 
L 254.719158 117.606154 
L 254.721733 117.570256 
" clip-path="url(#p58b3d2961a)" style="fill: none; stroke: #000000; stroke-opacity: 0.5; stroke-width: 1.5; stroke-linecap: square"/>
   </g>
   <g id="patch_3">
    <path d="M 41.667188 173.52 
L 41.667188 7.2 
" style="fill: none; stroke: #000000; stroke-width: 0.8; stroke-linejoin: miter; stroke-linecap: square"/>
   </g>
   <g id="patch_4">
    <path d="M 41.667188 173.52 
L 264.867187 173.52 
" style="fill: none; stroke: #000000; stroke-width: 0.8; stroke-linejoin: miter; stroke-linecap: square"/>
   </g>
  </g>
 </g>
 <defs>
  <clipPath id="p58b3d2961a">
   <rect x="41.667188" y="7.2" width="223.2" height="166.32"/>
  </clipPath>
 </defs>
</svg>
