<?xml version="1.0" encoding="utf-8" standalone="no"?>
<!DOCTYPE svg PUBLIC "-//W3C//DTD SVG 1.1//EN"
  "http://www.w3.org/Graphics/SVG/1.1/DTD/svg11.dtd">
<svg xmlns:xlink="http://www.w3.org/1999/xlink" width="272.067187pt" height="197.398125pt" viewBox="0 0 272.067187 197.398125" xmlns="http://www.w3.org/2000/svg" version="1.1">
 <metadata>
  <rdf:RDF xmlns:dc="http://purl.org/dc/elements/1.1/" xmlns:cc="http://creativecommons.org/ns#" xmlns:rdf="http://www.w3.org/1999/02/22-rdf-syntax-ns#">
   <cc:Work>
    <dc:type rdf:resource="http://purl.org/dc/dcmitype/StillImage"/>
    <dc:date>2025-12-19T12:05:07.146958</dc:date>
    <dc:format>image/svg+xml</dc:format>
    <dc:creator>
     <cc:Agent>
      <dc:title>Matplotlib v3.10.7, https://matplotlib.org/</dc:title>
     </cc:Agent>
    </dc:creator>
   </cc:Work>
  </rdf:RDF>
 </metadata>
 <defs>
  <style type="text/css">*{stroke-linejoin: round; stroke-linecap: butt}</style>
 </defs>
 <g id="figure_1">
  <g id="patch_1">
   <path d="M 0 197.398125 
L 272.067187 197.398125 
L 272.067187 0 
L 0 0 
z
" style="fill: #ffffff"/>
  </g>
  <g id="axes_1">
   <g id="patch_2">
    <path d="M 41.667188 173.52 
L 264.867188 173.52 
L 264.867188 7.2 
L 41.667188 7.2 
z
" style="fill: #ffffff"/>
   </g>
   <g id="matplotlib.axis_1">
    <g id="xtick_1">
     <g id="line2d_1">
      <defs>
       <path id="m91f7aaf3db" d="M 0 0 
L 0 3.5 
" style="stroke: #000000; stroke-width: 0.8"/>
      </defs>
      <g>
       <use xlink:href="#m91f7aaf3db" x="82.712896" y="173.52" style="stroke: #000000; stroke-width: 0.8"/>
      </g>
     </g>
     <g id="text_1">
      <!-- 1 -->
      <g transform="translate(79.531646 188.118438) scale(0.1 -0.1)">
       <defs>
        <path id="DejaVuSans-31" d="M 794 531 
L 1825 531 
L 1825 4091 
L 703 3866 
L 703 4441 
L 1819 4666 
L 2450 4666 
L 2450 531 
L 3481 531 
L 3481 0 
L 794 0 
L 794 531 
z
" transform="scale(0.015625)"/>
       </defs>
       <use xlink:href="#DejaVuSans-31"/>
      </g>
     </g>
    </g>
    <g id="xtick_2">
     <g id="line2d_2">
      <g>
       <use xlink:href="#m91f7aaf3db" x="134.213319" y="173.52" style="stroke: #000000; stroke-width: 0.8"/>
      </g>
     </g>
     <g id="text_2">
      <!-- 2 -->
      <g transform="translate(131.032069 188.118438) scale(0.1 -0.1)">
       <defs>
        <path id="DejaVuSans-32" d="M 1228 531 
L 3431 531 
L 3431 0 
L 469 0 
L 469 531 
Q 828 903 1448 1529 
Q 2069 2156 2228 2338 
Q 2531 2678 2651 2914 
Q 2772 3150 2772 3378 
Q 2772 3750 2511 3984 
Q 2250 4219 1831 4219 
Q 1534 4219 1204 4116 
Q 875 4013 500 3803 
L 500 4441 
Q 881 4594 1212 4672 
Q 1544 4750 1819 4750 
Q 2544 4750 2975 4387 
Q 3406 4025 3406 3419 
Q 3406 3131 3298 2873 
Q 3191 2616 2906 2266 
Q 2828 2175 2409 1742 
Q 1991 1309 1228 531 
z
" transform="scale(0.015625)"/>
       </defs>
       <use xlink:href="#DejaVuSans-32"/>
      </g>
     </g>
    </g>
    <g id="xtick_3">
     <g id="line2d_3">
      <g>
       <use xlink:href="#m91f7aaf3db" x="185.713741" y="173.52" style="stroke: #000000; stroke-width: 0.8"/>
      </g>
     </g>
     <g id="text_3">
      <!-- 3 -->
      <g transform="translate(182.532491 188.118438) scale(0.1 -0.1)">
       <defs>
        <path id="DejaVuSans-33" d="M 2597 2516 
Q 3050 2419 3304 2112 
Q 3559 1806 3559 1356 
Q 3559 666 3084 287 
Q 2609 -91 1734 -91 
Q 1441 -91 1130 -33 
Q 819 25 488 141 
L 488 750 
Q 750 597 1062 519 
Q 1375 441 1716 441 
Q 2309 441 2620 675 
Q 2931 909 2931 1356 
Q 2931 1769 2642 2001 
Q 2353 2234 1838 2234 
L 1294 2234 
L 1294 2753 
L 1863 2753 
Q 2328 2753 2575 2939 
Q 2822 3125 2822 3475 
Q 2822 3834 2567 4026 
Q 2313 4219 1838 4219 
Q 1578 4219 1281 4162 
Q 984 4106 628 3988 
L 628 4550 
Q 988 4650 1302 4700 
Q 1616 4750 1894 4750 
Q 2613 4750 3031 4423 
Q 3450 4097 3450 3541 
Q 3450 3153 3228 2886 
Q 3006 2619 2597 2516 
z
" transform="scale(0.015625)"/>
       </defs>
       <use xlink:href="#DejaVuSans-33"/>
      </g>
     </g>
    </g>
    <g id="xtick_4">
     <g id="line2d_4">
      <g>
       <use xlink:href="#m91f7aaf3db" x="237.214164" y="173.52" style="stroke: #000000; stroke-width: 0.8"/>
      </g>
     </g>
     <g id="text_4">
      <!-- 4 -->
      <g transform="translate(234.032914 188.118438) scale(0.1 -0.1)">
       <defs>
        <path id="DejaVuSans-34" d="M 2419 4116 
L 825 1625 
L 2419 1625 
L 2419 4116 
z
M 2253 4666 
L 3047 4666 
L 3047 1625 
L 3713 1625 
L 3713 1100 
L 3047 1100 
L 3047 0 
L 2419 0 
L 2419 1100 
L 313 1100 
L 313 1709 
L 2253 4666 
z
" transform="scale(0.015625)"/>
       </defs>
       <use xlink:href="#DejaVuSans-34"/>
      </g>
     </g>
    </g>
   </g>
   <g id="matplotlib.axis_2">
    <g id="ytick_1">
     <g id="line2d_5">
      <defs>
       <path id="m2dbe9d260a" d="M 0 0 
L -3.5 0 
" style="stroke: #000000; stroke-width: 0.8"/>
      </defs>
      <g>
       <use xlink:href="#m2dbe9d260a" x="41.667188" y="164.267097" style="stroke: #000000; stroke-width: 0.8"/>
      </g>
     </g>
     <g id="text_5">
      <!-- −100 -->
      <g transform="translate(7.2 168.066315) scale(0.1 -0.1)">
       <defs>
        <path id="DejaVuSans-2212" d="M 678 2272 
L 4684 2272 
L 4684 1741 
L 678 1741 
L 678 2272 
z
" transform="scale(0.015625)"/>
        <path id="DejaVuSans-30" d="M 2034 4250 
Q 1547 4250 1301 3770 
Q 1056 3291 1056 2328 
Q 1056 1369 1301 889 
Q 1547 409 2034 409 
Q 2525 409 2770 889 
Q 3016 1369 3016 2328 
Q 3016 3291 2770 3770 
Q 2525 4250 2034 4250 
z
M 2034 4750 
Q 2819 4750 3233 4129 
Q 3647 3509 3647 2328 
Q 3647 1150 3233 529 
Q 2819 -91 2034 -91 
Q 1250 -91 836 529 
Q 422 1150 422 2328 
Q 422 3509 836 4129 
Q 1250 4750 2034 4750 
z
" transform="scale(0.015625)"/>
       </defs>
       <use xlink:href="#DejaVuSans-2212"/>
       <use xlink:href="#DejaVuSans-31" transform="translate(83.789062 0)"/>
       <use xlink:href="#DejaVuSans-30" transform="translate(147.412109 0)"/>
       <use xlink:href="#DejaVuSans-30" transform="translate(211.035156 0)"/>
      </g>
     </g>
    </g>
    <g id="ytick_2">
     <g id="line2d_6">
      <g>
       <use xlink:href="#m2dbe9d260a" x="41.667188" y="139.721536" style="stroke: #000000; stroke-width: 0.8"/>
      </g>
     </g>
     <g id="text_6">
      <!-- −80 -->
      <g transform="translate(13.5625 143.520754) scale(0.1 -0.1)">
       <defs>
        <path id="DejaVuSans-38" d="M 2034 2216 
Q 1584 2216 1326 1975 
Q 1069 1734 1069 1313 
Q 1069 891 1326 650 
Q 1584 409 2034 409 
Q 2484 409 2743 651 
Q 3003 894 3003 1313 
Q 3003 1734 2745 1975 
Q 2488 2216 2034 2216 
z
M 1403 2484 
Q 997 2584 770 2862 
Q 544 3141 544 3541 
Q 544 4100 942 4425 
Q 1341 4750 2034 4750 
Q 2731 4750 3128 4425 
Q 3525 4100 3525 3541 
Q 3525 3141 3298 2862 
Q 3072 2584 2669 2484 
Q 3125 2378 3379 2068 
Q 3634 1759 3634 1313 
Q 3634 634 3220 271 
Q 2806 -91 2034 -91 
Q 1263 -91 848 271 
Q 434 634 434 1313 
Q 434 1759 690 2068 
Q 947 2378 1403 2484 
z
M 1172 3481 
Q 1172 3119 1398 2916 
Q 1625 2713 2034 2713 
Q 2441 2713 2670 2916 
Q 2900 3119 2900 3481 
Q 2900 3844 2670 4047 
Q 2441 4250 2034 4250 
Q 1625 4250 1398 4047 
Q 1172 3844 1172 3481 
z
" transform="scale(0.015625)"/>
       </defs>
       <use xlink:href="#DejaVuSans-2212"/>
       <use xlink:href="#DejaVuSans-38" transform="translate(83.789062 0)"/>
       <use xlink:href="#DejaVuSans-30" transform="translate(147.412109 0)"/>
      </g>
     </g>
    </g>
    <g id="ytick_3">
     <g id="line2d_7">
      <g>
       <use xlink:href="#m2dbe9d260a" x="41.667188" y="115.175975" style="stroke: #000000; stroke-width: 0.8"/>
      </g>
     </g>
     <g id="text_7">
      <!-- −60 -->
      <g transform="translate(13.5625 118.975193) scale(0.1 -0.1)">
       <defs>
        <path id="DejaVuSans-36" d="M 2113 2584 
Q 1688 2584 1439 2293 
Q 1191 2003 1191 1497 
Q 1191 994 1439 701 
Q 1688 409 2113 409 
Q 2538 409 2786 701 
Q 3034 994 3034 1497 
Q 3034 2003 2786 2293 
Q 2538 2584 2113 2584 
z
M 3366 4563 
L 3366 3988 
Q 3128 4100 2886 4159 
Q 2644 4219 2406 4219 
Q 1781 4219 1451 3797 
Q 1122 3375 1075 2522 
Q 1259 2794 1537 2939 
Q 1816 3084 2150 3084 
Q 2853 3084 3261 2657 
Q 3669 2231 3669 1497 
Q 3669 778 3244 343 
Q 2819 -91 2113 -91 
Q 1303 -91 875 529 
Q 447 1150 447 2328 
Q 447 3434 972 4092 
Q 1497 4750 2381 4750 
Q 2619 4750 2861 4703 
Q 3103 4656 3366 4563 
z
" transform="scale(0.015625)"/>
       </defs>
       <use xlink:href="#DejaVuSans-2212"/>
       <use xlink:href="#DejaVuSans-36" transform="translate(83.789062 0)"/>
       <use xlink:href="#DejaVuSans-30" transform="translate(147.412109 0)"/>
      </g>
     </g>
    </g>
    <g id="ytick_4">
     <g id="line2d_8">
      <g>
       <use xlink:href="#m2dbe9d260a" x="41.667188" y="90.630414" style="stroke: #000000; stroke-width: 0.8"/>
      </g>
     </g>
     <g id="text_8">
      <!-- −40 -->
      <g transform="translate(13.5625 94.429632) scale(0.1 -0.1)">
       <use xlink:href="#DejaVuSans-2212"/>
       <use xlink:href="#DejaVuSans-34" transform="translate(83.789062 0)"/>
       <use xlink:href="#DejaVuSans-30" transform="translate(147.412109 0)"/>
      </g>
     </g>
    </g>
    <g id="ytick_5">
     <g id="line2d_9">
      <g>
       <use xlink:href="#m2dbe9d260a" x="41.667188" y="66.084853" style="stroke: #000000; stroke-width: 0.8"/>
      </g>
     </g>
     <g id="text_9">
      <!-- −20 -->
      <g transform="translate(13.5625 69.884071) scale(0.1 -0.1)">
       <use xlink:href="#DejaVuSans-2212"/>
       <use xlink:href="#DejaVuSans-32" transform="translate(83.789062 0)"/>
       <use xlink:href="#DejaVuSans-30" transform="translate(147.412109 0)"/>
      </g>
     </g>
    </g>
    <g id="ytick_6">
     <g id="line2d_10">
      <g>
       <use xlink:href="#m2dbe9d260a" x="41.667188" y="41.539292" style="stroke: #000000; stroke-width: 0.8"/>
      </g>
     </g>
     <g id="text_10">
      <!-- 0 -->
      <g transform="translate(28.304688 45.33851) scale(0.1 -0.1)">
       <use xlink:href="#DejaVuSans-30"/>
      </g>
     </g>
    </g>
    <g id="ytick_7">
     <g id="line2d_11">
      <g>
       <use xlink:href="#m2dbe9d260a" x="41.667188" y="16.993731" style="stroke: #000000; stroke-width: 0.8"/>
      </g>
     </g>
     <g id="text_11">
      <!-- 20 -->
      <g transform="translate(21.942188 20.792949) scale(0.1 -0.1)">
       <use xlink:href="#DejaVuSans-32"/>
       <use xlink:href="#DejaVuSans-30" transform="translate(63.623047 0)"/>
      </g>
     </g>
    </g>
   </g>
   <g id="line2d_12">
    <path d="M 51.812642 117.832182 
L 51.923368 118.01945 
L 51.817792 117.794729 
L 51.928518 117.981997 
L 51.931093 117.944543 
L 51.969718 118.094357 
L 52.031519 118.094357 
L 52.080444 118.094357 
L 52.13967 118.056904 
L 52.193745 118.281625 
L 52.22722 118.131811 
L 52.304471 118.281625 
L 52.337946 118.356532 
L 52.353396 118.281625 
L 52.464122 118.618707 
L 52.482148 118.5438 
L 52.541373 118.768521 
L 52.567123 118.731068 
L 52.680424 118.880882 
L 52.592873 118.656161 
L 52.682999 118.805975 
L 52.703599 118.843428 
L 52.82205 119.06815 
L 52.878701 118.955789 
L 52.932776 119.105603 
L 52.992002 118.955789 
L 53.046077 119.030696 
L 53.133628 119.105603 
L 53.089853 118.955789 
L 53.156803 119.030696 
L 53.288129 118.955789 
L 53.39628 118.880882 
L 53.38083 119.030696 
L 53.398855 118.955789 
L 53.468381 118.918335 
L 53.483831 118.843428 
L 53.499281 119.030696 
L 53.576532 118.993243 
L 53.741333 118.918335 
L 53.751633 118.955789 
L 53.864934 118.731068 
L 53.926734 118.768521 
L 53.875234 118.656161 
L 53.973085 118.731068 
L 53.97566 118.618707 
L 54.02716 118.843428 
L 54.081236 118.843428 
L 54.140461 118.768521 
L 54.099261 118.955789 
L 54.191962 118.843428 
L 54.251187 118.768521 
L 54.284662 118.955789 
L 54.300112 118.880882 
L 54.377363 118.993243 
L 54.349038 118.805975 
L 54.413413 118.955789 
L 54.470064 118.805975 
L 54.428864 118.993243 
L 54.526714 118.918335 
L 54.557615 118.880882 
L 54.640015 118.993243 
L 54.722416 118.918335 
L 54.743016 119.06815 
L 54.745591 119.06815 
L 54.997943 119.030696 
L 55.026268 118.880882 
L 55.093219 119.06815 
L 55.108669 118.955789 
L 55.111244 119.030696 
L 55.193645 118.805975 
L 55.21682 118.880882 
L 55.278621 118.918335 
L 55.312096 118.693614 
L 55.314671 118.693614 
L 55.384196 118.768521 
L 55.417672 118.880882 
L 55.471747 118.693614 
L 55.492347 118.731068 
L 55.582473 118.319079 
L 55.621098 118.468893 
L 55.639123 118.393986 
L 55.690624 118.431439 
L 55.757574 118.281625 
L 55.84255 118.319079 
L 55.8065 118.206718 
L 55.860575 118.244171 
L 55.865725 118.131811 
L 55.942976 118.356532 
L 55.971301 118.206718 
L 56.082027 118.319079 
L 55.984176 118.169264 
L 56.084602 118.281625 
L 56.115502 118.319079 
L 56.148978 118.244171 
L 56.228803 118.468893 
L 56.267429 118.393986 
L 56.316354 118.581253 
L 56.339529 118.468893 
L 56.450255 118.618707 
L 56.360129 118.431439 
L 56.45283 118.5438 
L 56.499181 118.5438 
L 56.532656 118.356532 
L 56.609906 118.468893 
L 56.720632 118.656161 
L 56.620207 118.431439 
L 56.728357 118.618707 
L 56.769558 118.581253 
L 56.792733 118.731068 
L 56.831358 118.731068 
L 56.872559 118.805975 
L 56.877709 118.768521 
L 56.993585 122.176795 
L 57.284562 132.701243 
L 57.547214 137.120763 
L 57.549789 137.120763 
L 57.69399 138.581452 
L 58.152344 143.675135 
L 58.154919 143.637681 
L 58.219295 144.274392 
L 58.371221 144.911102 
L 58.373796 144.873649 
L 58.461347 145.135824 
L 58.469072 145.023463 
L 58.605548 145.772534 
L 58.626148 145.847441 
L 58.790949 146.633966 
L 58.796099 146.596512 
L 58.87335 146.971048 
L 58.8785 146.971048 
L 58.88365 146.933594 
L 59.017551 147.383037 
L 59.025276 147.345583 
L 59.099952 147.645212 
L 59.110252 147.645212 
L 59.231278 147.982294 
L 59.233853 147.907387 
L 59.331704 148.132108 
L 59.336854 148.094654 
L 59.372904 148.169562 
L 59.486205 148.431736 
L 59.48878 148.394283 
L 59.49393 148.319376 
L 59.584056 148.619004 
L 59.591781 148.581551 
L 59.604656 148.544097 
L 59.712807 148.768818 
L 59.728257 148.656458 
L 59.769457 148.843726 
L 59.823533 148.768818 
L 59.880183 148.806272 
L 59.970309 148.918633 
L 59.905933 148.768818 
L 59.988334 148.768818 
L 59.990909 148.768818 
L 60.117085 147.570305 
L 60.127385 147.607758 
L 60.181461 147.532851 
L 60.230386 147.42049 
L 60.284462 147.645212 
L 60.356562 147.720119 
L 60.485313 148.019747 
L 60.490463 147.907387 
L 60.580589 148.169562 
L 60.590889 148.132108 
L 60.637239 148.207015 
L 60.75569 148.394283 
L 60.796891 148.281922 
L 60.843241 148.46919 
L 60.861266 148.431736 
L 60.971992 148.581551 
L 60.871566 148.394283 
L 60.974567 148.544097 
L 61.062118 148.581551 
L 61.162544 148.693911 
L 61.126494 148.506644 
L 61.172844 148.581551 
L 61.239794 148.731365 
L 61.28872 148.656458 
L 61.31447 148.693911 
L 61.376271 148.656458 
L 61.427771 148.806272 
L 61.525622 148.656458 
L 61.538497 148.806272 
L 61.541072 148.843726 
L 61.597722 148.656458 
L 61.641498 148.693911 
L 61.739349 148.768818 
L 61.839774 148.918633 
L 61.754799 148.731365 
L 61.852649 148.843726 
L 61.92475 148.843726 
L 62.032901 149.143354 
L 62.038051 149.030993 
L 62.092126 149.1059 
L 62.187402 149.255715 
L 62.097276 149.068447 
L 62.210577 149.218261 
L 62.380529 149.143354 
L 62.455204 149.068447 
L 62.388254 149.180808 
L 62.491255 149.143354 
L 62.49383 149.218261 
L 62.547905 149.030993 
L 62.599406 149.1059 
L 62.720432 148.956086 
L 62.820857 149.030993 
L 62.730732 148.918633 
L 62.833733 148.99354 
L 62.957334 148.806272 
L 63.050034 148.918633 
L 63.019134 148.768818 
L 63.068059 148.843726 
L 63.08351 148.768818 
L 63.122135 148.918633 
L 63.17621 148.843726 
L 63.245736 148.881179 
L 63.235436 148.731365 
L 63.279211 148.768818 
L 63.315261 148.843726 
L 63.413112 148.431736 
L 63.467188 148.46919 
L 63.531563 148.581551 
L 63.485213 148.431736 
L 63.577914 148.506644 
L 63.814816 148.46919 
L 63.928117 148.356829 
L 64.010517 148.506644 
L 64.043992 148.46919 
L 64.090343 148.544097 
L 64.162443 148.319376 
L 64.198494 148.46919 
L 64.231969 148.244469 
L 64.275744 148.394283 
L 64.38647 148.319376 
L 64.342695 148.46919 
L 64.389045 148.356829 
L 64.497196 148.319376 
L 64.499771 148.244469 
L 64.589897 148.46919 
L 64.602772 148.46919 
L 64.659423 148.506644 
L 64.749548 148.693911 
L 64.772723 148.619004 
L 64.837099 148.731365 
L 64.886024 148.581551 
L 64.922075 148.619004 
L 65.0019 148.394283 
L 65.035376 148.46919 
L 65.068851 148.619004 
L 65.135801 148.394283 
L 65.143526 148.431736 
L 65.231077 148.394283 
L 65.166702 148.506644 
L 65.249102 148.46919 
L 65.251677 148.506644 
L 65.264552 148.394283 
L 65.354678 148.431736 
L 65.462829 148.356829 
L 65.455104 148.46919 
L 65.465404 148.394283 
L 65.52463 148.46919 
L 65.480854 148.319376 
L 65.573555 148.356829 
L 65.692006 148.431736 
L 65.722906 148.46919 
L 65.774407 148.244469 
L 65.789857 148.281922 
L 65.890283 148.207015 
L 65.846507 148.394283 
L 65.900583 148.281922 
L 65.941783 148.244469 
L 65.946933 148.132108 
L 65.990708 148.281922 
L 66.052509 148.169562 
L 66.062809 148.244469 
L 66.065384 148.281922 
L 66.073109 148.094654 
L 66.17096 148.244469 
L 66.279111 148.132108 
L 66.204435 148.281922 
L 66.281686 148.207015 
L 66.335761 148.132108 
L 66.356361 148.057201 
L 66.397562 148.244469 
L 66.446487 148.132108 
L 66.711714 148.094654 
L 66.819865 147.982294 
L 66.722014 148.132108 
L 66.825015 148.019747 
L 66.835315 148.094654 
L 66.940891 147.94484 
L 66.956341 148.019747 
L 67.025867 147.83248 
L 67.051617 147.982294 
L 67.144318 147.83248 
L 67.167493 147.907387 
L 67.226719 147.982294 
L 67.247319 148.057201 
L 67.265344 147.195769 
L 67.419845 138.806173 
L 67.710823 130.940926 
L 67.718548 130.866019 
L 67.909099 127.382839 
L 68.079051 123.337855 
L 68.117676 27.831291 
L 68.207802 104.311449 
L 68.609505 112.775952 
L 68.614655 112.85086 
L 68.769156 114.798444 
L 69.044684 117.232925 
L 69.054984 117.195472 
L 69.127084 117.607461 
L 69.25326 118.169264 
L 69.255835 118.131811 
L 69.392311 118.506346 
L 69.420637 118.506346 
L 69.423212 118.393986 
L 69.469562 118.656161 
L 69.528787 118.581253 
L 69.544238 118.656161 
L 69.642088 118.468893 
L 69.652389 118.693614 
L 69.752814 118.506346 
L 69.85839 118.618707 
L 69.866115 118.581253 
L 69.876415 118.618707 
L 69.979416 118.468893 
L 70.002591 118.656161 
L 70.092717 118.581253 
L 70.172543 118.431439 
L 70.108167 118.618707 
L 70.208593 118.468893 
L 70.231768 118.393986 
L 70.321894 118.5438 
L 70.41202 118.468893 
L 70.399145 118.618707 
L 70.430045 118.5438 
L 70.48927 118.618707 
L 70.525321 118.431439 
L 70.538196 118.506346 
L 70.574246 118.5438 
L 70.690122 118.693614 
L 70.785398 118.581253 
L 70.757073 118.768521 
L 70.805998 118.618707 
L 70.914149 118.768521 
L 70.811148 118.5438 
L 70.924449 118.731068 
L 71.045475 118.768521 
L 71.07895 118.880882 
L 71.148476 118.618707 
L 71.151051 118.656161 
L 71.189676 118.618707 
L 71.264352 118.393986 
L 71.302977 118.468893 
L 71.418853 118.281625 
L 71.328727 118.581253 
L 71.424003 118.319079 
L 71.472928 118.244171 
L 71.478079 118.206718 
L 71.560479 118.393986 
L 71.578504 118.319079 
L 71.686655 118.393986 
L 71.588804 118.281625 
L 71.68923 118.319079 
L 71.738156 118.244171 
L 71.805106 118.169264 
L 71.838581 118.319079 
L 71.841156 118.319079 
L 71.902957 118.356532 
L 71.941582 118.169264 
L 72.101234 117.420193 
L 72.145009 117.457647 
L 72.168184 117.307833 
L 72.209385 117.420193 
L 72.21711 117.345286 
L 72.25831 117.532554 
L 72.31496 117.4951 
L 72.343286 117.457647 
L 72.361311 117.38274 
L 72.441136 117.570007 
L 72.451436 117.532554 
L 72.456587 117.457647 
L 72.479762 117.607461 
L 72.557012 117.607461 
L 72.721814 117.570007 
L 72.835115 117.38274 
L 72.83769 117.420193 
L 72.850565 117.345286 
L 72.85829 117.38274 
L 72.969016 117.232925 
L 73.077167 117.38274 
L 72.992191 117.195472 
L 73.084892 117.307833 
L 73.100342 117.232925 
L 73.185318 117.457647 
L 73.388744 117.532554 
L 73.429945 117.607461 
L 73.45827 117.420193 
L 73.496895 117.570007 
L 73.602471 117.307833 
L 73.615346 117.345286 
L 73.726072 117.4951 
L 73.728647 117.420193 
L 73.811048 117.345286 
L 73.834223 117.4951 
L 73.836798 117.457647 
L 73.852248 117.38274 
L 73.921774 117.4951 
L 73.957824 117.345286 
L 73.960399 117.457647 
L 74.0531 117.232925 
L 74.065975 117.232925 
L 74.153525 117.345286 
L 74.176701 117.270379 
L 74.246226 117.195472 
L 74.359527 117.083111 
L 74.282277 117.232925 
L 74.362102 117.120565 
L 74.377552 117.195472 
L 74.462528 117.045658 
L 74.472828 117.120565 
L 74.485703 117.158018 
L 74.599004 116.895843 
L 74.609304 117.008204 
L 74.69428 116.85839 
L 74.70458 116.895843 
L 74.73033 116.820936 
L 74.779256 117.008204 
L 74.812731 116.933297 
L 74.887406 116.933297 
L 74.931182 116.783483 
L 74.974957 116.970751 
L 74.998132 116.933297 
L 75.085683 117.008204 
L 75.106283 116.895843 
L 75.217009 116.895843 
L 75.250484 116.783483 
L 75.265935 116.970751 
L 75.327735 116.85839 
L 75.332885 116.933297 
L 75.404986 116.746029 
L 75.435886 116.85839 
L 75.513137 116.783483 
L 75.528587 116.933297 
L 75.544037 116.895843 
L 75.641888 117.045658 
L 75.562062 116.85839 
L 75.662488 117.008204 
L 75.726863 117.008204 
L 75.837589 117.158018 
L 75.912265 117.008204 
L 75.95089 117.083111 
L 76.030716 117.158018 
L 75.984365 117.045658 
L 76.064191 117.120565 
L 76.125992 117.045658 
L 76.128567 117.008204 
L 76.205817 117.232925 
L 76.231568 117.120565 
L 76.306243 117.083111 
L 76.411819 116.895843 
L 76.419544 116.933297 
L 76.517395 117.008204 
L 76.53027 116.970751 
L 76.57662 116.783483 
L 76.537995 117.008204 
L 76.643571 116.895843 
L 76.746572 116.970751 
L 76.762022 117.008204 
L 76.821247 116.446401 
L 76.831547 116.371494 
L 76.883048 116.109319 
L 76.952573 116.221679 
L 77.006649 116.33404 
L 76.996349 116.184226 
L 77.068449 116.296587 
L 77.10965 116.146772 
L 77.179175 116.221679 
L 77.292476 116.408947 
L 77.300201 116.371494 
L 77.395477 116.408947 
L 77.493328 116.558761 
L 77.508778 116.483854 
L 77.537103 116.558761 
L 77.542253 116.596215 
L 77.565428 116.446401 
L 77.640104 116.483854 
L 77.779155 115.959505 
L 77.784305 115.996958 
L 77.789455 115.959505 
L 77.902756 116.109319 
L 78.031507 116.146772 
L 78.072708 116.221679 
L 78.119058 116.034412 
L 78.142233 116.146772 
L 78.157683 116.034412 
L 78.214334 116.221679 
L 78.252959 116.146772 
L 78.38171 116.221679 
L 78.461536 116.296587 
L 78.410035 116.146772 
L 78.489861 116.184226 
L 78.518186 116.259133 
L 78.636637 116.408947 
L 78.657237 116.296587 
L 78.703588 116.483854 
L 78.744788 116.446401 
L 78.765388 116.483854 
L 78.834914 116.633669 
L 78.876114 116.558761 
L 78.881264 116.521308 
L 78.948215 116.746029 
L 78.97654 116.708576 
L 79.058941 116.746029 
L 79.161942 116.85839 
L 79.105291 116.633669 
L 79.169667 116.783483 
L 79.246917 116.895843 
L 79.277818 116.746029 
L 79.285543 116.820936 
L 79.339618 116.596215 
L 79.388543 116.746029 
L 79.414294 116.671122 
L 79.458069 116.85839 
L 79.496694 116.746029 
L 79.517295 116.820936 
L 79.59712 116.633669 
L 79.599695 116.671122 
L 79.676946 116.521308 
L 79.630595 116.783483 
L 79.712996 116.633669 
L 79.764497 116.746029 
L 79.736171 116.596215 
L 79.818572 116.596215 
L 79.888098 116.408947 
L 79.831447 116.671122 
L 79.931873 116.521308 
L 80.037449 116.671122 
L 79.942173 116.483854 
L 80.050324 116.633669 
L 80.073499 116.596215 
L 80.204825 115.996958 
L 80.256326 115.922051 
L 80.274351 115.884597 
L 80.266626 115.959505 
L 80.364476 115.922051 
L 80.436577 116.071865 
L 80.372202 115.884597 
L 80.480352 115.996958 
L 80.488077 116.034412 
L 80.493228 116.109319 
L 80.524128 115.959505 
L 80.598803 116.034412 
L 80.634854 115.996958 
L 80.719829 116.184226 
L 80.722404 116.109319 
L 80.815105 116.296587 
L 80.82798 116.221679 
L 80.856305 116.146772 
L 80.941281 116.33404 
L 80.987632 116.221679 
L 80.979907 116.408947 
L 81.052007 116.296587 
L 81.064882 116.371494 
L 81.098357 116.184226 
L 81.165308 116.33404 
L 81.281184 116.109319 
L 81.180758 116.371494 
L 81.288909 116.146772 
L 81.35586 116.259133 
L 81.312084 116.109319 
L 81.40221 116.221679 
L 81.42281 116.259133 
L 81.494911 116.071865 
L 81.533536 116.146772 
L 81.554136 116.221679 
L 81.556711 116.259133 
L 81.636537 115.996958 
L 81.657137 116.109319 
L 81.754988 116.071865 
L 81.891464 115.322794 
L 81.899189 115.397701 
L 82.020215 115.060619 
L 82.035665 115.023166 
L 82.136091 114.760991 
L 82.151541 114.798444 
L 82.154116 114.835898 
L 82.236517 114.64863 
L 82.257117 114.723537 
L 82.295742 114.760991 
L 82.403893 114.985712 
L 82.411618 114.948259 
L 82.434793 114.985712 
L 82.545519 115.210433 
L 82.550669 115.135526 
L 82.589295 115.098073 
L 82.681995 115.472608 
L 82.712896 115.397701 
L 82.718046 117.38274 
L 82.952373 133.562675 
L 83.943756 159.21836 
L 83.954056 159.255814 
L 84.136882 161.353213 
L 84.144607 161.390666 
L 84.306834 162.926262 
L 84.311984 162.963716 
L 84.461335 164.087322 
L 84.46391 164.049869 
L 84.533436 164.574218 
L 84.538586 164.574218 
L 84.554036 164.649126 
L 84.705962 165.32329 
L 84.708537 165.285836 
L 84.742012 165.360743 
L 84.868188 165.660372 
L 84.870763 165.622918 
L 84.881064 165.660372 
L 84.973764 165.885093 
L 84.996939 165.810186 
L 85.10509 165.885093 
L 85.107665 165.697825 
L 85.179766 165.922546 
L 85.215816 165.810186 
L 85.331692 165.96 
L 85.228691 165.772732 
L 85.334267 165.922546 
L 85.414093 165.772732 
L 85.444993 165.885093 
L 85.473318 165.922546 
L 85.532544 165.660372 
L 85.542844 165.735279 
L 85.64327 165.548011 
L 85.65357 165.622918 
L 85.712795 165.697825 
L 85.67932 165.548011 
L 85.764296 165.622918 
L 85.841546 165.697825 
L 85.949697 165.810186 
L 85.849271 165.660372 
L 85.957422 165.772732 
L 86.006348 165.697825 
L 86.037248 165.772732 
L 86.135099 165.43565 
L 86.196899 165.510557 
L 86.165999 165.360743 
L 86.24325 165.43565 
L 86.364276 165.210929 
L 86.366851 165.285836 
L 86.459552 164.986208 
L 86.467277 165.023661 
L 86.593453 164.686579 
L 86.482727 165.061115 
L 86.596028 164.724033 
L 86.637228 164.79894 
L 86.691303 164.649126 
L 86.704179 164.686579 
L 86.86898 164.649126 
L 86.94623 164.536765 
L 86.979706 164.611672 
L 87.044081 164.761486 
L 87.093007 164.649126 
L 87.103307 164.574218 
L 87.167682 164.79894 
L 87.196008 164.761486 
L 87.262958 164.686579 
L 87.337634 164.574218 
L 87.373684 164.649126 
L 87.605436 164.724033 
L 87.700712 164.79894 
L 87.620886 164.686579 
L 87.718737 164.761486 
L 87.744487 164.761486 
L 87.850063 164.9113 
L 87.808863 164.724033 
L 87.855213 164.836393 
L 87.976239 164.649126 
L 88.001989 164.724033 
L 88.07409 164.461858 
L 88.07924 164.536765 
L 88.189966 164.237136 
L 88.202841 164.312044 
L 88.213141 164.349497 
L 88.277516 164.087322 
L 88.298117 164.124776 
L 88.403692 163.825147 
L 88.426868 163.862601 
L 88.457768 163.787694 
L 88.591669 163.413158 
L 88.609694 163.488065 
L 88.661195 163.225891 
L 88.697245 163.300798 
L 88.813121 163.076076 
L 88.818271 163.150983 
L 88.908397 162.851355 
L 88.993372 162.813901 
L 89.114398 162.476819 
L 89.150449 162.514273 
L 89.189074 162.289552 
L 89.214824 162.327005 
L 89.232849 162.252098 
L 89.3616 161.915016 
L 89.245724 162.289552 
L 89.364175 161.95247 
L 89.3822 161.915016 
L 89.500651 161.465573 
L 89.505802 161.503027 
L 89.549577 161.42812 
L 89.693778 160.941224 
L 89.696353 161.016131 
L 89.796779 160.716502 
L 89.837979 160.641595 
L 89.848279 160.679049 
L 89.969305 160.304513 
L 89.97703 160.416874 
L 90.020806 160.229606 
L 90.077456 160.229606 
L 90.146982 160.154699 
L 90.268008 159.892524 
L 90.270583 160.004885 
L 90.371009 159.74271 
L 90.373584 159.780163 
L 90.389034 159.855071 
L 90.49976 159.555442 
L 90.51006 159.517989 
L 90.625936 159.255814 
L 90.628511 159.330721 
L 90.723787 158.993639 
L 90.728937 159.068546 
L 90.855113 158.768918 
L 90.873138 158.881278 
L 90.945238 158.58165 
L 90.960688 158.619103 
L 91.009614 158.544196 
L 91.117765 158.356928 
L 91.019914 158.58165 
L 91.12549 158.431836 
L 91.128065 158.469289 
L 91.20789 158.169661 
L 91.215616 158.169661 
L 91.339217 157.944939 
L 91.346942 158.019846 
L 91.413892 157.757672 
L 91.442217 157.832579 
L 91.578694 157.458043 
L 91.583844 157.53295 
L 91.663669 157.120961 
L 91.666244 157.120961 
L 91.81302 156.484251 
L 91.81817 156.521704 
L 91.859371 156.446797 
L 91.962372 156.334436 
L 91.869671 156.484251 
L 91.972672 156.409344 
L 92.006147 156.334436 
L 92.122023 156.072262 
L 92.029322 156.37189 
L 92.124598 156.109715 
L 92.250774 155.772633 
L 92.255924 155.810087 
L 92.271374 155.73518 
L 92.39755 155.435551 
L 92.400125 155.473005 
L 92.40785 155.473005 
L 92.526301 155.061016 
L 92.528876 155.135923 
L 92.606127 154.836294 
L 92.629302 154.873748 
L 92.642177 154.873748 
L 92.758053 154.649027 
L 92.886804 154.311945 
L 92.889379 154.349398 
L 92.899679 154.424305 
L 92.938305 154.199584 
L 92.99753 154.311945 
L 93.010405 154.274491 
L 93.015555 154.349398 
L 93.123706 154.16213 
L 93.195807 154.124677 
L 93.321983 153.637781 
L 93.337433 153.675234 
L 93.450734 153.300699 
L 93.453309 153.338152 
L 93.466184 153.375606 
L 93.53571 153.113431 
L 93.553735 153.188338 
L 93.57691 153.113431 
L 93.708236 152.813802 
L 93.733986 152.738895 
L 93.739136 152.776349 
L 93.870462 152.36436 
L 93.919388 152.289453 
L 94.055864 151.84001 
L 93.927113 152.326906 
L 94.058439 151.877463 
L 94.091914 151.802556 
L 94.220665 151.502928 
L 94.23354 151.577835 
L 94.300491 151.278207 
L 94.315941 151.278207 
L 94.439542 151.016032 
L 94.442117 151.053485 
L 94.465292 150.978578 
L 94.594043 150.604043 
L 94.599193 150.641496 
L 94.617218 150.716403 
L 94.671294 150.416775 
L 94.697044 150.491682 
L 94.82837 150.192054 
L 94.851545 150.117146 
L 94.975146 149.854972 
L 94.866996 150.1546 
L 94.977721 149.892425 
L 94.985446 149.854972 
L 95.103897 149.51789 
L 94.993172 149.892425 
L 95.106472 149.555343 
L 95.157973 149.51789 
L 95.271274 149.1059 
L 95.273849 149.143354 
L 95.276424 149.180808 
L 95.333074 148.956086 
L 95.374275 148.99354 
L 95.500451 148.544097 
L 95.536501 148.619004 
L 95.603452 148.356829 
L 95.608602 148.431736 
L 95.611177 148.46919 
L 95.698727 148.169562 
L 95.701302 148.169562 
L 95.752803 148.132108 
L 95.873829 147.795026 
L 95.876404 147.907387 
L 95.958804 147.682665 
L 95.98198 147.795026 
L 96.087556 147.42049 
L 96.097856 147.457944 
L 96.100431 147.495398 
L 96.151931 147.195769 
L 96.190556 147.195769 
L 96.314157 146.858687 
L 96.321882 146.896141 
L 96.334758 146.933594 
L 96.414583 146.633966 
L 96.533034 146.409244 
L 96.440333 146.708873 
L 96.538184 146.446698 
L 96.545909 146.409244 
L 96.66436 146.034709 
L 96.666935 146.072162 
L 96.66951 146.109616 
L 96.759636 145.847441 
L 96.762211 145.922348 
L 96.885812 145.547813 
L 97.022288 145.135824 
L 97.035163 145.173277 
L 97.096964 144.911102 
L 97.112414 144.948556 
L 97.225715 144.686381 
L 97.22829 144.723835 
L 97.349316 144.386753 
L 97.351891 144.46166 
L 97.434292 144.162031 
L 97.452317 144.162031 
L 97.578493 143.899856 
L 97.581068 143.93731 
L 97.663468 143.675135 
L 97.673769 143.675135 
L 97.686644 143.600228 
L 97.79737 143.300599 
L 97.81282 143.338053 
L 97.82312 143.41296 
L 97.910671 143.150785 
L 97.918396 143.188239 
L 97.949296 143.113332 
L 97.957021 143.150785 
L 98.078047 142.813703 
L 98.080622 142.851157 
L 98.168173 142.588982 
L 98.173323 142.588982 
L 98.204223 142.551528 
L 98.214523 142.588982 
L 98.325249 142.214446 
L 98.348424 142.139539 
L 98.46945 141.72755 
L 98.472025 141.765004 
L 98.497775 141.72755 
L 98.51065 141.765004 
L 98.621376 141.315561 
L 98.626526 141.465375 
L 98.708927 141.165747 
L 98.724377 141.165747 
L 98.829953 140.903572 
L 98.850553 140.941026 
L 98.863428 140.866118 
L 98.958704 140.753758 
L 98.909779 140.978479 
L 98.974154 140.866118 
L 98.976729 140.903572 
L 99.061705 140.641397 
L 99.06943 140.641397 
L 99.195606 140.304315 
L 99.200756 140.341769 
L 99.203331 140.379222 
L 99.280582 140.04214 
L 99.290882 140.079594 
L 99.414483 139.667605 
L 99.419633 139.742512 
L 99.494309 139.40543 
L 99.504609 139.40543 
L 99.625635 139.143255 
L 99.538084 139.442883 
L 99.630785 139.180708 
L 99.65911 139.255616 
L 99.661685 139.293069 
L 99.751811 138.993441 
L 99.754386 139.030894 
L 99.880562 138.731266 
L 99.759536 139.068348 
L 99.883137 138.768719 
L 99.937212 138.768719 
L 100.055663 138.394184 
L 100.089138 138.319277 
L 100.186989 138.019648 
L 100.099438 138.35673 
L 100.217889 138.057102 
L 100.23849 138.019648 
L 100.367241 137.457845 
L 100.426466 137.382938 
L 100.537192 137.120763 
L 100.431616 137.420391 
L 100.552642 137.158216 
L 100.586117 137.083309 
L 100.704568 136.783681 
L 100.738044 136.858588 
L 100.807569 136.633867 
L 100.810144 136.708774 
L 100.928595 136.296785 
L 100.933745 136.334238 
L 100.94662 136.296785 
L 101.067646 135.922249 
L 101.103697 136.03461 
L 101.162922 135.734981 
L 101.165497 135.772435 
L 101.332874 134.948457 
L 101.358624 134.87355 
L 101.502825 134.3492 
L 101.53115 134.274293 
L 101.616126 134.424107 
L 101.732002 134.049571 
L 101.734577 134.087025 
L 101.783502 134.012118 
L 101.919978 133.562675 
L 101.922553 133.600129 
L 101.956029 133.562675 
L 102.07448 133.337954 
L 102.077055 133.375407 
L 102.16203 133.150686 
L 102.174906 133.18814 
L 102.252156 133.113233 
L 102.370607 132.888511 
L 102.409232 133.038325 
L 102.453008 132.813604 
L 102.478758 132.813604 
L 102.489058 132.776151 
L 102.602359 132.476522 
L 102.604934 132.551429 
L 102.728535 132.13944 
L 102.73626 132.176894 
L 102.738835 132.251801 
L 102.831536 131.914719 
L 102.836686 131.952172 
L 102.949987 131.727451 
L 102.846986 131.989626 
L 102.952562 131.764905 
L 102.975737 131.727451 
L 103.081313 131.427823 
L 103.094188 131.50273 
L 103.153414 131.465276 
L 103.225514 131.240555 
L 103.189464 131.50273 
L 103.264139 131.390369 
L 103.28474 131.427823 
L 103.31564 131.240555 
L 103.36714 131.278008 
L 103.398041 131.240555 
L 103.506191 130.940926 
L 103.513917 131.015834 
L 103.534517 131.053287 
L 103.598892 130.828566 
L 103.611767 130.828566 
L 103.642668 130.753659 
L 103.647818 130.791112 
L 103.779144 130.379123 
L 103.820344 130.304216 
L 103.96197 129.81732 
L 103.985145 129.854773 
L 104.041796 129.517691 
L 104.044371 129.517691 
L 104.185997 128.169363 
L 104.201447 128.13191 
L 104.319898 127.907189 
L 104.373974 127.869735 
L 104.48985 127.682467 
L 104.55165 127.794828 
L 104.590275 127.60756 
L 104.598 127.645014 
L 104.719026 127.382839 
L 104.721601 127.457746 
L 104.811727 127.420292 
L 104.883828 127.233025 
L 104.855503 127.457746 
L 104.925028 127.307932 
L 104.971378 127.233025 
L 105.048629 127.120664 
L 104.991979 127.307932 
L 105.084679 127.158117 
L 105.11043 127.195571 
L 105.174805 127.008303 
L 105.18768 127.045757 
L 105.210855 127.045757 
L 105.326731 126.671221 
L 105.329306 126.671221 
L 105.447757 126.334139 
L 105.576508 126.034511 
L 105.584234 126.109418 
L 105.671784 125.697429 
L 105.676934 125.734882 
L 105.70526 125.772336 
L 105.707835 125.622522 
L 105.779935 125.659975 
L 105.885511 125.360347 
L 105.908686 125.3978 
L 105.916411 125.435254 
L 105.991087 125.023265 
L 105.993662 125.023265 
L 106.029712 124.948358 
L 106.034862 125.023265 
L 106.150738 124.76109 
L 106.153313 124.798543 
L 106.217689 124.498915 
L 106.243439 124.498915 
L 106.258889 124.424008 
L 106.39279 124.049472 
L 106.39794 124.124379 
L 106.495791 123.862205 
L 106.498366 123.899658 
L 106.529266 123.937112 
L 106.583342 123.674937 
L 106.593642 123.674937 
L 106.709518 123.412762 
L 106.603942 123.71239 
L 106.719818 123.450216 
L 106.727543 123.487669 
L 106.771318 123.225494 
L 106.815094 123.262948 
L 106.822819 123.337855 
L 106.933545 122.963319 
L 106.943845 123.038226 
L 107.026245 122.813505 
L 107.03397 122.850959 
L 107.180747 122.326609 
L 107.227097 122.251702 
L 107.234822 122.326609 
L 107.350698 122.02698 
L 107.353273 122.101888 
L 107.448549 121.652445 
L 107.5773 120.828467 
L 107.585025 120.86592 
L 107.610775 120.940827 
L 107.6185 120.978281 
L 107.685451 120.678652 
L 107.706051 120.716106 
L 107.742101 120.641199 
L 107.870852 120.34157 
L 107.896603 120.379024 
L 107.930078 120.191756 
L 107.976428 120.266663 
L 108.115479 119.817221 
L 108.125779 119.854674 
L 108.20818 119.592499 
L 108.21333 119.667406 
L 108.329206 119.330324 
L 108.331781 119.367778 
L 108.342081 119.480139 
L 108.424482 119.105603 
L 108.427057 119.143057 
L 108.571258 118.656161 
L 108.573833 118.731068 
L 108.671684 118.393986 
L 108.676834 118.506346 
L 108.707734 118.431439 
L 108.826185 118.169264 
L 108.82876 118.206718 
L 108.895711 117.832182 
L 108.913736 117.832182 
L 108.947211 117.757275 
L 108.954936 117.794729 
L 109.073387 117.532554 
L 109.088837 117.570007 
L 109.153213 117.345286 
L 109.166088 117.345286 
L 109.176388 117.38274 
L 109.284539 117.083111 
L 109.287114 117.158018 
L 109.36694 116.895843 
L 109.38754 116.895843 
L 109.405565 116.933297 
L 109.516291 116.633669 
L 109.526591 116.671122 
L 109.603842 116.371494 
L 109.608992 116.408947 
L 109.730018 116.109319 
L 109.660492 116.483854 
L 109.735168 116.184226 
L 109.760918 116.146772 
L 109.879369 115.80969 
L 109.936019 115.734783 
L 109.990095 115.772237 
L 110.057045 115.510062 
L 110.05962 115.584969 
L 110.157471 115.247887 
L 110.160046 115.285341 
L 110.291372 114.985712 
L 110.304247 114.948259 
L 110.414973 114.798444 
L 110.309397 115.060619 
L 110.417548 114.835898 
L 110.430423 114.760991 
L 110.566899 114.386455 
L 110.605525 114.423909 
L 110.646725 114.199188 
L 110.662175 114.199188 
L 110.803801 113.749745 
L 110.814101 113.824652 
L 110.886202 113.48757 
L 110.893927 113.48757 
L 110.901652 113.525024 
L 111.020103 113.262849 
L 111.027828 113.375209 
L 111.117954 112.96322 
L 111.120529 112.96322 
L 111.125679 113.000674 
L 111.21323 112.701045 
L 111.215805 112.738499 
L 111.236405 112.663592 
L 111.383181 112.139242 
L 111.385756 112.139242 
L 111.388331 112.251603 
L 111.475882 111.80216 
L 111.488757 111.839614 
L 111.550558 111.80216 
L 111.669008 111.465078 
L 111.671583 111.502532 
L 111.707634 111.427624 
L 111.85956 110.716007 
L 111.862135 110.75346 
L 111.87501 110.790914 
L 111.957411 110.566193 
L 111.967711 110.75346 
L 112.083587 110.304018 
L 112.086162 110.341471 
L 112.109337 110.266564 
L 112.248388 109.817122 
L 112.256113 109.892029 
L 112.346239 109.554947 
L 112.351389 109.5924 
L 112.47499 109.217865 
L 112.529066 109.292772 
L 112.572841 109.068051 
L 112.577991 109.105504 
L 112.706742 108.693515 
L 112.714467 108.730969 
L 112.747942 108.730969 
L 112.863818 108.318979 
L 112.866393 108.356433 
L 112.984844 108.131712 
L 112.989994 108.169165 
L 113.03377 108.244072 
L 113.087845 107.981897 
L 113.224321 107.569908 
L 113.244921 107.644815 
L 113.293847 107.382641 
L 113.327322 107.457548 
L 113.353072 107.382641 
L 113.474098 107.083012 
L 113.489548 107.27028 
L 113.584824 107.120466 
L 113.67495 107.045559 
L 113.795976 106.708477 
L 113.806276 106.74593 
L 113.832026 106.671023 
L 113.932452 106.22158 
L 113.963352 106.371395 
L 113.986528 106.296487 
L 114.104978 106.10922 
L 113.999403 106.371395 
L 114.107553 106.146673 
L 114.110129 106.184127 
L 114.192529 105.884498 
L 114.197679 105.884498 
L 114.357331 105.097974 
L 114.359906 105.172881 
L 114.450031 104.648531 
L 114.452606 104.685985 
L 114.583932 104.311449 
L 114.586507 104.348903 
L 114.663758 104.53617 
L 114.697233 104.461263 
L 114.704958 104.498717 
L 114.818259 104.161635 
L 114.828559 104.199088 
L 114.90066 103.787099 
L 114.903235 103.862006 
L 115.031986 103.075482 
L 115.055161 103.038028 
L 115.080911 103.300203 
L 115.132412 103.225296 
L 115.235413 103.187842 
L 115.346139 102.663493 
L 115.361589 102.700946 
L 115.428539 102.7384 
L 115.544415 102.288957 
L 115.56244 102.21405 
L 115.662866 101.876968 
L 115.691191 101.951875 
L 115.693767 101.989329 
L 115.755567 101.57734 
L 115.778742 101.614793 
L 115.930668 100.903176 
L 115.935819 100.940629 
L 115.943544 100.865722 
L 115.977019 98.993044 
L 116.007919 20.677662 
L 116.087745 98.393787 
L 116.224221 103.524924 
L 116.70575 108.95569 
L 116.708325 108.880783 
L 116.77785 109.142958 
L 116.808751 109.068051 
L 116.919477 109.180411 
L 116.891151 108.993143 
L 116.922052 109.142958 
L 116.932352 109.180411 
L 117.014752 108.918236 
L 117.017327 108.918236 
L 117.045653 108.843329 
L 117.195004 108.281526 
L 117.215604 108.244072 
L 117.380405 106.558662 
L 117.38298 106.596116 
L 117.568382 105.435056 
L 117.570957 105.509963 
L 117.661083 104.910706 
L 117.694558 104.835799 
L 117.828459 102.513678 
L 117.861934 20.228219 
L 117.94176 97.831984 
L 118.080811 103.787099 
L 118.085961 103.862006 
L 118.60869 109.892029 
L 118.691091 109.704761 
L 118.631866 109.966936 
L 118.721991 109.817122 
L 118.724566 109.892029 
L 118.819842 109.5924 
L 118.824992 109.704761 
L 118.946018 109.217865 
L 119.13142 108.131712 
L 119.149445 108.094258 
L 119.296221 107.045559 
L 119.309096 107.083012 
L 119.376047 106.708477 
L 119.378622 106.708477 
L 119.545998 105.06052 
L 119.548573 105.135427 
L 119.623249 104.348903 
L 119.633549 97.382541 
L 119.664449 20.490394 
L 119.744275 97.307634 
L 119.880751 103.300203 
L 120.135678 107.532455 
L 120.145978 107.607362 
L 120.315929 108.543701 
L 120.344255 108.393887 
L 120.421505 108.656061 
L 120.42408 108.693515 
L 120.483306 108.468794 
L 120.519356 108.468794 
L 120.529656 108.393887 
L 120.537381 108.43134 
L 120.648107 108.281526 
L 120.653257 108.206619 
L 120.658407 108.244072 
L 120.800033 107.682269 
L 120.802608 107.719723 
L 120.864409 107.045559 
L 120.866984 107.045559 
L 121.103886 105.097974 
L 121.106461 105.172881 
L 121.114186 105.097974 
L 121.358813 103.112935 
L 121.366538 103.150389 
L 121.412888 102.401318 
L 121.415463 102.401318 
L 121.448939 100.491187 
L 121.482414 19.966044 
L 121.56224 96.558563 
L 121.696141 102.663493 
L 121.889267 106.259034 
L 121.894417 106.22158 
L 121.951068 106.933198 
L 121.956218 106.895744 
L 122.133894 107.944444 
L 122.136469 107.869537 
L 122.20857 108.131712 
L 122.24462 107.944444 
L 122.252345 107.981897 
L 122.332171 107.79463 
L 122.345046 107.79463 
L 122.460922 107.532455 
L 122.350196 107.832083 
L 122.471222 107.569908 
L 122.486672 107.495001 
L 122.664349 106.483755 
L 122.666924 106.521209 
L 122.728724 105.959405 
L 122.739024 105.996859 
L 122.942451 104.648531 
L 122.947601 104.611078 
L 123.109827 103.112935 
L 123.215403 100.341372 
L 123.230853 74.573327 
L 123.251454 19.104612 
L 123.333854 95.99676 
L 123.47548 102.663493 
L 123.483205 102.7384 
L 123.905509 107.345187 
L 123.908084 107.27028 
L 123.951859 107.495001 
L 124.011085 107.495001 
L 124.02396 107.420094 
L 124.160436 107.045559 
L 124.191336 106.970651 
L 124.314937 106.408848 
L 124.320087 106.446302 
L 124.343263 106.371395 
L 124.515789 105.472509 
L 124.518364 105.509963 
L 124.580164 104.873252 
L 124.582739 104.910706 
L 124.721791 103.562378 
L 124.737241 103.637285 
L 124.793891 103.075482 
L 124.796466 103.075482 
L 124.842817 100.865722 
L 124.876292 19.067159 
L 124.958693 94.985514 
L 125.097744 101.202804 
L 125.347521 105.285242 
L 125.357821 105.360149 
L 125.520047 106.408848 
L 125.538072 106.371395 
L 125.561248 106.446302 
L 125.607598 106.596116 
L 125.664248 106.333941 
L 125.787849 105.809591 
L 125.790424 105.847045 
L 125.792999 105.884498 
L 125.83935 105.58487 
L 125.8857 105.622324 
L 125.937201 105.547416 
L 126.130327 104.348903 
L 126.132902 104.386356 
L 126.205003 103.824553 
L 126.212728 103.749646 
L 126.411005 99.817023 
L 126.447055 18.467902 
L 126.52688 94.685886 
L 126.665932 101.839514 
L 126.926009 106.184127 
L 127.08051 106.895744 
L 127.083085 106.820837 
L 127.13201 107.120466 
L 127.186086 107.008105 
L 127.224711 106.970651 
L 127.350887 106.521209 
L 127.366337 106.558662 
L 127.425563 106.071766 
L 127.428138 106.071766 
L 127.667615 104.199088 
L 127.683065 104.124181 
L 127.948292 101.839514 
L 127.956017 101.876968 
L 128.010093 101.202804 
L 128.015243 101.202804 
L 128.087343 98.730869 
L 128.123394 18.280634 
L 128.203219 93.787 
L 128.34227 101.539886 
L 128.581747 105.322695 
L 128.607498 105.360149 
L 128.733674 105.884498 
L 128.846975 105.734684 
L 128.852125 105.772138 
L 128.90105 105.697231 
L 129.063276 104.873252 
L 129.065851 104.910706 
L 129.078726 104.873252 
L 129.233228 103.599832 
L 129.238378 103.562378 
L 129.395454 102.176596 
L 129.400604 102.251504 
L 129.472705 101.352618 
L 129.477855 101.390072 
L 129.48043 101.390072 
L 129.52163 95.697132 
L 129.555105 17.981006 
L 129.632356 92.775754 
L 129.773982 101.202804 
L 129.956809 104.42381 
L 129.959384 104.386356 
L 130.023759 105.023067 
L 130.17826 105.734684 
L 130.263236 105.509963 
L 130.204011 105.772138 
L 130.291561 105.547416 
L 130.294136 105.622324 
L 130.391987 105.285242 
L 130.394562 105.322695 
L 130.428037 105.360149 
L 130.549063 104.611078 
L 130.551639 104.685985 
L 130.631464 103.974367 
L 130.639189 104.049274 
L 130.809141 97.270181 
L 130.842616 18.093366 
L 130.922442 92.663394 
L 131.061493 100.978083 
L 131.303545 104.835799 
L 131.31642 104.910706 
L 131.437446 105.58487 
L 131.445171 105.509963 
L 131.517271 105.697231 
L 131.561047 105.360149 
L 131.620272 105.509963 
L 131.666623 105.285242 
L 131.671773 105.360149 
L 131.831424 104.648531 
L 131.839149 104.685985 
L 131.91125 104.199088 
L 131.913825 104.273996 
L 132.058026 103.300203 
L 132.063176 103.37511 
L 132.130126 102.813307 
L 132.132701 102.813307 
L 132.300078 99.554848 
L 132.336128 17.756284 
L 132.415954 91.98923 
L 132.55243 100.041744 
L 132.732681 103.26275 
L 132.735256 103.150389 
L 132.825382 103.936914 
L 132.827957 103.89946 
L 132.977308 104.461263 
L 133.015934 104.53617 
L 133.124085 104.760892 
L 133.13181 104.648531 
L 133.288886 103.974367 
L 133.294036 104.011821 
L 133.360987 103.487471 
L 133.366137 103.487471 
L 133.538663 102.588586 
L 133.551538 102.513678 
L 133.796165 100.566094 
L 133.80904 100.52864 
L 133.875991 96.258935 
L 133.909466 17.456656 
L 133.989292 91.127798 
L 134.128343 99.817023 
L 134.365245 103.487471 
L 134.481121 103.974367 
L 134.370395 103.450017 
L 134.504296 103.89946 
L 134.532621 103.936914 
L 134.548071 104.049274 
L 134.627897 103.787099 
L 134.638197 103.787099 
L 134.661372 103.712192 
L 134.844199 102.663493 
L 134.877674 102.588586 
L 134.9987 101.876968 
L 135.00385 101.914422 
L 135.01415 101.914422 
L 135.130026 100.903176 
L 135.142901 101.015536 
L 135.153201 101.090443 
L 135.222727 100.603547 
L 135.225302 100.603547 
L 135.402978 95.210235 
L 135.436454 16.595224 
L 135.516279 90.753262 
L 135.65533 99.442487 
L 135.66048 99.517394 
L 135.881932 102.7384 
L 135.889657 102.700946 
L 135.954033 103.225296 
L 135.959183 103.225296 
L 136.075059 103.562378 
L 136.087934 103.487471 
L 136.129134 103.450017 
L 136.134284 103.487471 
L 136.26561 102.700946 
L 136.268185 102.7384 
L 136.337711 102.288957 
L 136.342861 102.326411 
L 136.481912 101.05299 
L 136.489637 101.090443 
L 136.559163 100.603547 
L 136.561738 100.641001 
L 136.765165 97.419995 
L 136.801215 17.231935 
L 136.883615 90.30382 
L 137.022667 98.581055 
L 137.184893 101.614793 
L 137.334244 102.775853 
L 137.336819 102.7384 
L 137.385745 103.000575 
L 137.43467 102.813307 
L 137.506771 103.038028 
L 137.45527 102.775853 
L 137.547971 102.925668 
L 137.578871 102.85076 
L 137.705047 102.21405 
L 137.707622 102.288957 
L 137.728222 102.21405 
L 137.949674 100.603547 
L 137.962549 100.641001 
L 138.021775 100.191558 
L 138.026925 100.229012 
L 138.150526 92.738301 
L 138.184001 16.707585 
L 138.261252 89.292574 
L 138.397728 98.543602 
L 138.776256 102.7384 
L 138.789131 102.663493 
L 138.807156 102.7384 
L 138.915307 102.401318 
L 138.917882 102.476225 
L 139.010583 102.026782 
L 139.013158 102.026782 
L 139.273235 97.345088 
L 139.309285 16.894853 
L 139.389111 88.992945 
L 139.530737 98.581055 
L 139.749614 101.764607 
L 139.759914 101.839514 
L 139.883515 102.513678 
L 139.888665 102.438771 
L 139.893815 102.401318 
L 139.960766 102.700946 
L 139.986516 102.588586 
L 139.994241 102.626039 
L 140.066342 102.288957 
L 140.076642 102.288957 
L 140.099817 102.21405 
L 140.112692 102.251504 
L 140.231143 101.57734 
L 140.256893 101.502432 
L 140.49637 99.629755 
L 140.504095 99.704662 
L 140.555596 98.955591 
L 140.558171 98.955591 
L 140.607096 94.8357 
L 140.640571 16.295596 
L 140.720397 88.318781 
L 140.859448 98.31888 
L 141.245701 102.513678 
L 141.253426 102.476225 
L 141.366727 102.288957 
L 141.279177 102.551132 
L 141.371877 102.363864 
L 141.400203 102.438771 
L 141.449128 102.101689 
L 141.469728 102.176596 
L 141.67058 100.790815 
L 141.673155 100.828269 
L 141.683455 100.753361 
L 141.912632 98.918137 
L 141.915207 98.993044 
L 141.922932 99.030498 
L 142.000182 98.693416 
L 142.002758 98.693416 
L 142.193309 94.723339 
L 142.229359 15.883607 
L 142.309185 88.73077 
L 142.445661 96.933099 
L 142.667113 100.154105 
L 142.672263 100.079197 
L 142.746939 100.603547 
L 142.770114 100.641001 
L 142.842214 100.828269 
L 142.883415 100.715908 
L 142.898865 100.641001 
L 143.063666 99.704662 
L 143.071391 99.742115 
L 143.073966 99.742115 
L 143.197567 98.955591 
L 143.202717 98.993044 
L 143.460219 96.745831 
L 143.478245 96.670924 
L 143.48597 96.708378 
L 143.594121 94.536071 
L 143.632746 15.958514 
L 143.712572 87.794432 
L 143.846473 96.970552 
L 143.849048 96.933099 
L 144.024149 99.779569 
L 144.037024 99.854476 
L 144.170925 100.566094 
L 144.222426 100.378826 
L 144.281651 100.52864 
L 144.338302 100.453733 
L 144.492803 99.779569 
L 144.497953 99.817023 
L 144.559754 99.255219 
L 144.562329 99.255219 
L 144.760605 92.363765 
L 144.79408 16.183235 
L 144.873906 86.633371 
L 145.010382 96.296388 
L 145.247284 100.116651 
L 145.249859 100.079197 
L 145.255009 100.079197 
L 145.36316 100.453733 
L 145.267884 100.041744 
L 145.370885 100.378826 
L 145.401785 100.303919 
L 145.463586 100.566094 
L 145.481611 100.378826 
L 145.486761 100.453733 
L 145.569162 99.704662 
L 145.576887 99.742115 
L 145.641262 99.217766 
L 145.643837 99.292673 
L 145.811214 88.243874 
L 145.844689 15.958514 
L 145.92194 86.371196 
L 146.060991 96.63347 
L 146.066141 96.708378 
L 146.277293 99.704662 
L 146.295318 99.629755 
L 146.354543 99.966837 
L 146.372568 99.89193 
L 146.493594 100.191558 
L 146.498744 100.116651 
L 146.642946 99.592301 
L 146.668696 99.629755 
L 146.730496 99.255219 
L 146.903023 98.20652 
L 146.910748 98.243973 
L 146.923623 98.169066 
L 147.090999 94.610978 
L 147.129625 15.733792 
L 147.20945 86.371196 
L 147.351076 96.408749 
L 147.567378 99.479941 
L 147.572528 99.405033 
L 147.613729 99.667208 
L 147.660079 99.667208 
L 147.729605 99.779569 
L 147.765655 99.554848 
L 147.909856 98.84323 
L 147.770805 99.629755 
L 147.920156 98.918137 
L 147.927881 98.880684 
L 147.981957 98.918137 
L 148.048907 98.543602 
L 148.061782 98.581055 
L 148.126158 98.094159 
L 148.128733 98.094159 
L 148.244609 95.285142 
L 148.283234 15.546525 
L 148.365635 87.195175 
L 148.504686 95.846946 
L 148.705538 98.581055 
L 148.708113 98.543602 
L 148.710688 98.543602 
L 148.803388 99.142859 
L 148.831714 99.105405 
L 148.878064 98.993044 
L 148.919264 99.142859 
L 148.939864 99.105405 
L 148.942439 99.142859 
L 148.99394 98.693416 
L 149.022265 98.693416 
L 149.04029 98.655962 
L 149.176766 97.757077 
L 149.179341 97.831984 
L 149.380193 96.52111 
L 149.408518 96.446203 
L 149.544994 93.000476 
L 149.581045 15.359257 
L 149.66087 85.210136 
L 149.797347 95.022968 
L 150.067724 98.169066 
L 150.114074 98.056705 
L 150.116649 97.981798 
L 150.201625 98.393787 
L 150.217075 98.20652 
L 150.22995 98.243973 
L 150.304626 97.869438 
L 150.307201 97.944345 
L 150.441102 97.345088 
L 150.453977 97.382541 
L 150.456552 97.419995 
L 150.531228 96.970552 
L 150.533803 96.970552 
L 150.678004 95.959306 
L 150.680579 95.99676 
L 150.760404 95.547317 
L 150.77328 95.47241 
L 150.83508 95.547317 
L 150.961256 92.176497 
L 150.997306 14.76 
L 151.077132 85.172683 
L 151.211033 94.161536 
L 151.41961 97.045459 
L 151.44021 97.120367 
L 151.532911 97.270181 
L 151.550936 97.15782 
L 151.708012 96.446203 
L 151.710587 96.558563 
L 151.808438 96.184028 
L 151.811013 96.184028 
L 151.826463 96.109121 
L 152.08139 91.764508 
L 152.120016 15.059628 
L 152.197266 83.899262 
L 152.331167 94.049175 
L 152.501119 96.670924 
L 152.524294 96.708378 
L 152.565494 97.045459 
L 152.637595 96.933099 
L 152.683945 96.708378 
L 152.748321 96.895645 
L 152.771496 96.820738 
L 152.866772 96.596017 
L 152.889947 96.708378 
L 152.928572 96.63347 
L 153.165474 94.798246 
L 153.168049 94.798246 
L 153.22985 87.45735 
L 153.263325 15.097082 
L 153.343151 83.412366 
L 153.477052 93.26265 
L 153.690778 96.52111 
L 153.695929 96.483656 
L 153.744854 96.333842 
L 153.786054 96.596017 
L 153.798929 96.596017 
L 153.904505 96.858192 
L 153.837555 96.558563 
L 153.92253 96.820738 
L 154.056431 96.408749 
L 153.93283 96.895645 
L 154.059007 96.446203 
L 154.069307 96.371296 
L 154.210933 93.000476 
L 154.249558 15.434164 
L 154.329384 83.449819 
L 154.468435 93.412465 
L 154.473585 93.487372 
L 154.689887 96.596017 
L 154.749112 96.596017 
L 154.751687 96.483656 
L 154.831513 96.895645 
L 154.854688 96.783285 
L 154.888163 96.708378 
L 155.05554 95.846946 
L 155.068415 95.921853 
L 155.130215 95.022968 
L 155.135365 95.022968 
L 155.261541 94.198989 
L 155.15339 95.097875 
L 155.295017 94.273896 
L 155.338792 94.423711 
L 155.382567 93.974268 
L 155.410893 92.62594 
L 155.452093 14.797454 
L 155.534494 84.648333 
L 155.673545 93.337558 
L 155.879546 96.221481 
L 155.882121 96.184028 
L 155.969672 96.408749 
L 156.000572 96.296388 
L 156.131899 95.697132 
L 156.335325 91.689601 
L 156.373951 14.834907 
L 156.453776 82.138945 
L 156.592827 93.300104 
L 156.755054 95.659678 
L 156.757629 95.622224 
L 156.842604 95.99676 
L 156.845179 95.959306 
L 156.88638 96.071667 
L 156.94818 95.884399 
L 156.95333 95.959306 
L 156.976505 96.034214 
L 157.079506 95.734585 
L 157.092381 95.659678 
L 157.254608 92.588486 
L 157.295808 14.909814 
L 157.378209 83.337459 
L 157.514685 92.663394 
L 157.854588 96.109121 
L 157.859738 96.071667 
L 157.900938 95.99676 
L 158.042564 95.509864 
L 158.050289 95.584771 
L 158.13269 94.910607 
L 158.204791 92.963022 
L 158.227966 47.794035 
L 158.245991 15.171989 
L 158.328392 82.51348 
L 158.464868 92.213951 
L 158.704345 95.397503 
L 158.781595 95.247689 
L 158.923221 94.685886 
L 158.815071 95.322596 
L 158.925796 94.723339 
L 158.928371 94.760793 
L 158.990172 94.049175 
L 159.095748 93.26265 
L 159.124073 93.375011 
L 159.149823 93.300104 
L 159.198749 90.30382 
L 159.237374 14.76 
L 159.3172 81.090245 
L 159.456251 91.764508 
L 159.623627 94.049175 
L 159.641652 93.936814 
L 159.654527 93.974268 
L 159.760103 94.348804 
L 159.775553 94.31135 
L 159.801304 94.348804 
L 159.803879 94.423711 
L 159.894004 93.861907 
L 159.945505 93.899361 
L 159.94808 93.974268 
L 160.01503 93.26265 
L 160.033056 93.300104 
L 160.076831 91.352519 
L 160.118031 15.209443 
L 160.197857 81.427327 
L 160.336908 91.914323 
L 160.52231 94.198989 
L 160.524885 94.161536 
L 160.53261 94.236443 
L 160.669086 94.760793 
L 160.674236 94.723339 
L 160.748911 94.873153 
L 160.790112 94.536071 
L 160.797837 94.461164 
L 160.802987 94.498618 
L 160.962638 90.528541 
L 161.003839 14.797454 
L 161.081089 80.453535 
L 161.217565 91.539787 
L 161.426142 94.423711 
L 161.436442 94.461164 
L 161.475067 94.31135 
L 161.549743 94.610978 
L 161.681069 94.011722 
L 161.686219 94.049175 
L 161.688794 94.124082 
L 161.755745 92.925568 
L 161.771195 87.195175 
L 161.807245 15.583978 
L 161.887071 78.618311 
L 162.026122 91.165251 
L 162.350575 94.461164 
L 162.3583 94.423711 
L 162.528251 93.300104 
L 162.366025 94.498618 
L 162.541126 93.375011 
L 162.554001 93.300104 
L 162.641552 90.565995 
L 162.682752 15.059628 
L 162.765153 80.378628 
L 162.904204 90.903077 
L 162.906779 90.903077 
L 163.06643 93.15029 
L 163.076731 93.112836 
L 163.133381 93.637186 
L 163.143681 93.599732 
L 163.208057 93.67464 
L 163.223507 93.449918 
L 163.249257 93.562279 
L 163.267282 93.712093 
L 163.365133 93.487372 
L 163.367708 93.524825 
L 163.437233 93.037929 
L 163.450109 93.112836 
L 163.535084 90.903077 
L 163.576285 14.76 
L 163.66126 81.539688 
L 163.797736 90.565995 
L 164.034638 93.67464 
L 164.114464 93.562279 
L 164.361666 89.105306 
L 164.400291 15.246896 
L 164.480117 78.880486 
L 164.611443 90.154005 
L 164.614018 90.116552 
L 164.78912 92.026683 
L 164.80457 92.10159 
L 164.943621 92.663394 
L 164.948771 92.588486 
L 164.953921 92.62594 
L 165.141897 88.543503 
L 165.183098 15.28435 
L 165.262923 77.794332 
L 165.40455 90.041645 
L 165.698102 93.037929 
L 165.710977 92.925568 
L 165.757328 92.738301 
L 165.790803 93.000476 
L 165.821703 92.888115 
L 165.837153 92.813208 
L 165.981354 89.667109 
L 166.022555 15.583978 
L 166.104955 78.955393 
L 166.244007 89.667109 
L 166.246582 89.629656 
L 166.516959 92.588486 
L 166.547859 92.438672 
L 166.553009 92.476126 
L 166.70236 89.592202 
L 166.746136 15.658885 
L 166.825961 78.655764 
L 166.965012 89.404934 
L 167.24054 91.98923 
L 167.248265 91.914323 
L 167.397616 91.165251 
L 167.402766 91.277612 
L 167.415641 91.352519 
L 167.443966 91.46488 
L 167.492892 90.865623 
L 167.495467 90.903077 
L 167.546967 84.760694 
L 167.585593 15.246896 
L 167.662843 77.120168 
L 167.799319 88.431142 
L 167.807044 88.506049 
L 168.067122 91.202705 
L 168.090297 91.052891 
L 168.275698 87.344989 
L 168.316899 15.39671 
L 168.396724 76.783086 
L 168.5332 88.393688 
L 168.5435 88.468595 
L 168.716027 90.977984 
L 168.739202 90.94053 
L 168.857653 91.165251 
L 168.785552 90.715809 
L 168.860228 91.127798 
L 168.958079 90.94053 
L 168.922029 91.277612 
L 168.978679 91.015437 
L 168.983829 90.94053 
L 169.079105 84.08653 
L 169.11773 15.28435 
L 169.194981 74.61078 
L 169.331457 87.944246 
L 169.511708 90.378727 
L 169.594109 90.154005 
L 169.606984 90.191459 
L 169.73831 86.895546 
L 169.782086 16.070874 
L 169.861911 75.172584 
L 170.003537 87.831885 
L 170.214689 90.491087 
L 170.28679 90.341273 
L 170.35374 90.266366 
L 170.423266 88.431142 
L 170.451591 41.464384 
L 170.469616 16.295596 
L 170.549442 75.284944 
L 170.688493 87.56971 
L 170.945995 89.704563 
L 170.96402 89.742016 
L 170.971745 89.854377 
L 171.051571 89.25512 
L 171.061871 89.292574 
L 171.095346 89.554749 
L 171.195772 87.120268 
L 171.239548 15.39671 
L 171.321948 75.809294 
L 171.460999 87.344989 
L 171.463574 87.232628 
L 171.540825 88.61841 
L 171.5434 88.61841 
L 171.674726 89.517295 
L 171.695326 89.592202 
L 171.731377 89.891831 
L 171.782877 89.25512 
L 171.862703 84.985415 
L 171.906478 16.407956 
L 171.983729 73.44972 
L 172.120205 87.307535 
L 172.12278 87.270082 
L 172.290156 89.816923 
L 172.328781 89.742016 
L 172.333932 89.77947 
L 172.444657 87.082814 
L 172.475558 40.041149 
L 172.493583 17.344295 
L 172.570833 71.876671 
L 172.715035 87.082814 
L 172.71761 87.04536 
L 172.756235 88.056606 
L 172.913311 89.442388 
L 172.949362 89.292574 
L 173.137338 88.168967 
L 173.147638 88.09406 
L 173.191414 85.846847 
L 173.237764 16.707585 
L 173.315015 74.086431 
L 173.454066 86.858093 
L 173.624017 88.655863 
L 173.750193 88.056606 
L 173.752768 88.09406 
L 173.760493 88.168967 
L 173.817144 86.858093 
L 173.845469 48.430746 
L 173.868644 17.007213 
L 173.945895 73.337359 
L 174.087521 86.371196 
L 174.092671 86.446104 
L 174.260047 88.431142 
L 174.267772 88.356235 
L 174.275497 88.281328 
L 174.342448 88.843131 
L 174.345023 88.805677 
L 174.373348 88.918038 
L 174.429999 88.468595 
L 174.473774 86.708278 
L 174.514974 20.378033 
L 174.5227 17.08212 
L 174.576775 56.48326 
L 174.726126 85.996661 
L 174.993928 88.543503 
L 175.004228 88.506049 
L 175.109804 83.262551 
L 175.156155 16.819946 
L 175.23083 70.640703 
L 175.369881 85.809393 
L 175.377607 85.8843 
L 175.629959 88.056606 
L 175.632534 87.981699 
L 175.645409 87.906792 
L 175.859135 83.974169 
L 175.905486 16.670131 
L 175.982736 71.651949 
L 176.124363 85.397404 
L 176.129513 85.472311 
L 176.350965 87.157721 
L 176.35354 87.120268 
L 176.36899 87.195175 
L 176.443665 85.097776 
L 176.495166 17.569017 
L 176.574991 71.726857 
L 176.714043 85.322497 
L 176.899444 87.532257 
L 176.96897 87.419896 
L 177.059095 82.101491 
L 177.105446 17.643924 
L 177.180121 68.356037 
L 177.324323 84.985415 
L 177.538049 87.157721 
L 177.563799 86.895546 
L 177.6153 87.232628 
L 177.692551 83.786901 
L 177.741476 17.831191 
L 177.818727 70.60325 
L 177.957778 84.685786 
L 178.207555 86.745732 
L 178.341456 81.764409 
L 178.387806 17.419202 
L 178.465057 69.105108 
L 178.601533 84.161437 
L 178.604108 84.08653 
L 178.763759 85.622125 
L 178.78951 85.659579 
L 178.910536 80.453535 
L 178.959461 18.617716 
L 179.031562 66.633173 
L 179.175763 84.348704 
L 179.343139 85.996661 
L 179.402365 83.711994 
L 179.459015 20.527847 
L 179.541416 69.367283 
L 179.683042 83.674541 
L 179.878743 86.40865 
L 179.883894 86.371196 
L 179.907069 86.40865 
L 179.981744 84.311251 
L 180.03582 19.216973 
L 180.11822 70.003993 
L 180.259847 83.936715 
L 180.501899 85.846847 
L 180.607474 85.434858 
L 180.517349 85.8843 
L 180.622925 85.547218 
L 180.63065 85.472311 
L 180.658975 82.738202 
L 180.7079 17.981006 
L 180.787726 70.378529 
L 180.931927 83.711994 
L 181.040078 85.060322 
L 181.063253 84.760694 
L 181.153379 79.592103 
L 181.207454 19.891137 
L 181.28213 65.060124 
L 181.428906 83.899262 
L 181.431481 83.861808 
L 181.490707 84.610879 
L 181.531907 84.873054 
L 181.596283 84.573426 
L 181.601433 84.610879 
L 181.665808 80.19136 
L 181.719884 20.565301 
L 181.791984 64.947763 
L 181.93361 83.374912 
L 182.124162 85.097776 
L 182.147337 84.910508 
L 182.193687 83.150191 
L 182.242613 25.621531 
L 182.255488 20.265673 
L 182.314713 57.045063 
L 182.464065 82.700748 
L 182.636591 84.498519 
L 182.662341 84.648333 
L 182.716417 84.049076 
L 182.721567 84.123983 
L 182.755042 82.738202 
L 182.798817 31.164657 
L 182.814268 20.490394 
L 182.883793 62.026386 
L 183.030569 82.251305 
L 183.236571 83.861808 
L 183.244296 83.824355 
L 183.288071 79.592103 
L 183.347297 21.539093 
L 183.419398 62.625643 
L 183.563599 81.914223 
L 183.566174 81.914223 
L 183.67175 83.112737 
L 183.694925 83.000377 
L 183.7593 83.674541 
L 183.808226 83.03783 
L 183.867451 82.700748 
L 183.908652 83.150191 
L 183.924102 83.337459 
L 183.973027 80.790617 
L 184.029678 19.29188 
L 184.106928 67.606966 
L 184.251129 82.138945 
L 184.253704 82.101491 
L 184.305205 82.925469 
L 184.451981 83.899262 
L 184.472581 83.786901 
L 184.573007 80.82807 
L 184.629657 19.628962 
L 184.706908 66.108823 
L 184.851109 81.801863 
L 184.853684 81.764409 
L 184.900035 82.663295 
L 184.90261 82.663295 
L 184.90776 82.738202 
L 184.97471 83.225098 
L 185.023636 82.850562 
L 185.121487 74.985316 
L 185.178137 21.127104 
L 185.245088 60.827872 
L 185.391864 81.277513 
L 185.500015 82.438573 
L 185.57469 82.363666 
L 185.651941 75.509666 
L 185.708591 22.400525 
L 185.780692 61.202408 
L 185.930043 81.165152 
L 185.932618 81.165152 
L 186.069094 83.03783 
L 186.071669 82.962923 
L 186.120595 82.813109 
L 186.166945 83.150191 
L 186.17467 83.075284 
L 186.228746 83.300005 
L 186.259646 82.700748 
L 186.295696 81.202606 
L 186.334321 40.041149 
L 186.354922 19.81623 
L 186.429597 63.000178 
L 186.576373 80.82807 
L 186.720575 82.288759 
L 186.741175 82.363666 
L 186.831301 76.333644 
L 186.890526 22.175804 
L 186.960052 58.992648 
L 187.111978 80.940431 
L 187.279354 82.326213 
L 187.315405 82.288759 
L 187.341155 82.363666 
L 187.35403 82.476027 
L 187.418405 81.577141 
L 187.439006 74.798048 
L 187.493081 20.490394 
L 187.562607 61.314768 
L 187.709383 80.453535 
L 187.711958 80.416081 
L 187.874184 81.614595 
L 187.892209 81.464781 
L 187.946285 77.756879 
L 188.01066 22.363072 
L 188.082761 61.164954 
L 188.229537 80.303721 
L 188.232112 80.266267 
L 188.371163 81.165152 
L 188.407214 81.389874 
L 188.502489 78.431043 
L 188.56944 22.812514 
L 188.651841 63.149993 
L 188.803767 79.442289 
L 188.870717 80.004092 
L 188.927368 79.629557 
L 188.932518 79.66701 
L 188.963418 78.093961 
L 189.035519 30.415586 
L 189.048394 27.19458 
L 189.102469 48.093664 
L 189.274996 78.618311 
L 189.486147 80.303721 
L 189.496447 80.266267 
L 189.550523 75.547119 
L 189.617473 23.861214 
L 189.689574 57.269784 
L 189.84665 79.329928 
L 190.055227 80.865524 
L 190.057802 80.82807 
L 190.093852 79.0303 
L 190.150503 34.385663 
L 190.171103 24.34811 
L 190.238054 56.820342 
L 190.392555 78.431043 
L 190.40028 78.431043 
L 190.498131 79.779371 
L 190.539331 79.704464 
L 190.559931 79.741917 
L 190.626882 80.453535 
L 190.662932 79.517196 
L 190.683532 72.213753 
L 190.745333 23.561585 
L 190.812283 56.370899 
L 191.03116 111.80216 
L 191.260337 122.214248 
L 191.262912 122.214248 
L 191.450888 125.585068 
L 191.61569 127.195571 
L 191.618265 127.158117 
L 191.68779 127.757374 
L 191.690365 127.719921 
L 191.855167 128.543899 
L 191.873192 128.506445 
L 191.940143 128.843527 
L 191.945293 128.843527 
L 191.976193 128.918434 
L 192.061169 129.180609 
L 191.994218 128.880981 
L 192.092069 129.068249 
L 192.107519 129.105702 
L 192.228545 129.480238 
L 192.24657 129.367877 
L 192.339271 129.480238 
L 192.372746 129.405331 
L 192.416521 129.517691 
L 192.486047 129.367877 
L 192.550423 129.555145 
L 192.599348 129.480238 
L 192.679174 129.405331 
L 192.720374 129.330424 
L 192.707499 129.442784 
L 192.789899 129.405331 
L 192.880025 129.480238 
L 192.970151 129.592598 
L 192.990751 129.517691 
L 193.001051 129.480238 
L 193.083452 129.667506 
L 193.091177 129.592598 
L 193.196753 129.704959 
L 193.204478 129.667506 
L 193.219928 129.592598 
L 193.304904 129.854773 
L 193.312629 129.742413 
L 193.343529 129.81732 
L 193.384729 129.92968 
L 193.361554 129.779866 
L 193.45683 129.854773 
L 193.474855 129.779866 
L 193.521205 129.742413 
L 193.544381 129.892227 
L 193.585581 129.779866 
L 193.647382 129.779866 
L 193.680857 129.667506 
L 193.747807 129.92968 
L 193.752957 129.81732 
L 193.858533 129.92968 
L 193.819908 129.779866 
L 193.863683 129.854773 
L 194.005309 129.779866 
L 194.018185 129.892227 
L 194.11346 129.704959 
L 194.221611 129.854773 
L 194.226761 129.81732 
L 194.270537 129.892227 
L 194.298862 130.004588 
L 194.368387 129.81732 
L 194.381263 129.892227 
L 194.383838 129.81732 
L 194.417313 130.004588 
L 194.489413 129.967134 
L 194.491988 129.92968 
L 194.540914 130.079495 
L 194.592414 130.079495 
L 194.613014 130.191855 
L 194.695415 129.92968 
L 194.700565 130.004588 
L 194.816441 129.81732 
L 194.849916 129.854773 
L 194.955492 130.042041 
L 194.865367 129.779866 
L 194.963217 129.967134 
L 195.037893 129.854773 
L 195.019868 130.042041 
L 195.071368 129.967134 
L 195.176944 130.042041 
L 195.115144 129.92968 
L 195.179519 129.967134 
L 195.184669 129.92968 
L 195.25162 130.079495 
L 195.28767 130.004588 
L 195.321145 130.079495 
L 195.426721 130.116948 
L 195.33917 130.004588 
L 195.429296 130.079495 
L 195.457621 130.154402 
L 195.547747 129.967134 
L 195.671348 129.92968 
L 195.784649 129.779866 
L 195.879925 129.854773 
L 195.854175 129.704959 
L 195.895375 129.779866 
L 195.90825 129.742413 
L 195.980351 129.92968 
L 196.003526 129.81732 
L 196.101377 129.92968 
L 196.039576 129.779866 
L 196.116827 129.892227 
L 196.204378 130.004588 
L 196.127127 129.854773 
L 196.224978 129.892227 
L 196.315103 129.81732 
L 196.235278 129.92968 
L 196.335704 129.854773 
L 196.425829 130.004588 
L 196.454155 129.967134 
L 196.50823 130.042041 
L 196.603506 129.967134 
L 196.618956 130.079495 
L 196.737407 129.92968 
L 196.783757 130.004588 
L 196.755432 129.892227 
L 196.850708 129.967134 
L 196.974309 130.042041 
L 197.06186 130.116948 
L 197.018084 130.004588 
L 197.085035 130.079495 
L 197.151985 129.92968 
L 197.195761 130.042041 
L 197.211211 129.967134 
L 197.301337 129.92968 
L 197.254986 130.042041 
L 197.316787 130.004588 
L 197.352837 130.079495 
L 197.347687 129.967134 
L 197.424938 130.004588 
L 197.471288 129.892227 
L 197.486738 130.042041 
L 197.535663 129.967134 
L 197.615489 129.892227 
L 197.625789 129.854773 
L 197.679865 130.042041 
L 197.715915 129.92968 
L 197.829216 130.116948 
L 197.927067 130.004588 
L 197.875566 130.191855 
L 197.939942 130.079495 
L 197.988867 129.92968 
L 198.053243 130.116948 
L 198.161394 129.92968 
L 198.171694 130.004588 
L 198.251519 129.967134 
L 198.254094 129.892227 
L 198.32362 130.154402 
L 198.35967 129.967134 
L 198.439496 130.191855 
L 198.478121 130.079495 
L 198.552797 130.154402 
L 198.588847 130.229309 
L 198.655798 130.042041 
L 198.666098 130.191855 
L 198.787124 130.042041 
L 198.859224 129.967134 
L 198.95965 129.92968 
L 198.866949 130.079495 
L 198.967375 129.967134 
L 198.9854 130.004588 
L 199.067801 129.854773 
L 199.072951 129.892227 
L 199.273803 129.92968 
L 199.374229 130.116948 
L 199.389679 130.079495 
L 199.415429 130.004588 
L 199.487529 130.191855 
L 199.495255 130.154402 
L 199.618856 130.116948 
L 199.724431 129.967134 
L 199.631731 130.154402 
L 199.729581 130.042041 
L 199.765632 130.116948 
L 199.770782 130.004588 
L 199.837732 130.004588 
L 199.971633 129.967134 
L 199.984509 129.892227 
L 200.046309 130.116948 
L 200.074634 130.116948 
L 200.146735 130.304216 
L 200.079784 130.079495 
L 200.18536 130.116948 
L 200.21626 130.304216 
L 200.293511 130.154402 
L 200.375912 129.967134 
L 200.301236 130.191855 
L 200.406812 130.079495 
L 200.437712 130.042041 
L 200.496938 129.92968 
L 200.512388 130.079495 
L 200.548438 130.004588 
L 200.561313 129.967134 
L 200.563888 129.892227 
L 200.664314 130.154402 
L 200.71324 130.079495 
L 200.798215 130.042041 
L 200.720965 130.229309 
L 200.823965 130.079495 
L 200.862591 130.154402 
L 200.939841 130.266762 
L 200.955292 130.079495 
L 200.968167 130.079495 
L 201.004217 130.116948 
L 201.011942 130.191855 
L 201.096918 129.967134 
L 201.112368 130.042041 
L 201.120093 130.116948 
L 201.207644 129.81732 
L 201.212794 129.892227 
L 201.233394 129.81732 
L 201.241119 129.854773 
L 201.377595 129.330424 
L 201.41107 129.367877 
L 201.470296 129.630052 
L 201.429095 129.29297 
L 201.526946 129.555145 
L 201.609347 129.480238 
L 201.619647 129.630052 
L 201.635097 129.592598 
L 201.686598 129.667506 
L 201.805049 129.854773 
L 201.812774 129.742413 
L 201.859124 129.892227 
L 201.915774 129.854773 
L 201.998175 129.92968 
L 202.02135 129.81732 
L 202.0265 129.854773 
L 202.111476 129.92968 
L 202.124351 130.004588 
L 202.170702 129.854773 
L 202.217052 129.854773 
L 202.278852 129.81732 
L 202.304603 129.742413 
L 202.332928 129.892227 
L 202.387003 129.854773 
L 202.410178 129.92968 
L 202.520904 130.004588 
L 202.451379 129.892227 
L 202.523479 129.967134 
L 202.62133 129.892227 
L 202.623905 129.854773 
L 202.677981 130.004588 
L 202.726906 129.967134 
L 202.765531 129.892227 
L 202.804157 129.854773 
L 202.858232 130.042041 
L 202.865957 129.967134 
L 202.961233 130.079495 
L 202.979258 130.042041 
L 203.218735 129.967134 
L 203.306286 130.079495 
L 203.329461 129.892227 
L 203.373236 129.967134 
L 203.396412 129.779866 
L 203.437612 129.81732 
L 203.473662 129.854773 
L 203.494262 129.704959 
L 203.543188 129.742413 
L 203.571513 129.81732 
L 203.679664 130.042041 
L 203.625588 129.779866 
L 203.689964 129.92968 
L 203.792965 129.854773 
L 203.707989 130.004588 
L 203.80069 129.92968 
L 203.885666 130.116948 
L 203.916566 130.079495 
L 203.970641 129.967134 
L 203.934591 130.116948 
L 204.027292 130.004588 
L 204.055617 130.116948 
L 204.094242 129.892227 
L 204.132868 129.92968 
L 204.235868 129.854773 
L 204.184368 130.004588 
L 204.246169 129.892227 
L 204.356894 129.967134 
L 204.367195 130.042041 
L 204.387795 129.892227 
L 204.46762 129.967134 
L 204.485646 130.004588 
L 204.516546 129.854773 
L 204.583496 130.042041 
L 204.596371 129.967134 
L 204.681347 129.892227 
L 204.614397 130.004588 
L 204.704522 130.004588 
L 204.712247 129.967134 
L 204.792073 129.854773 
L 204.822973 129.92968 
L 204.977475 129.967134 
L 204.98005 130.042041 
L 205.023825 129.854773 
L 205.0882 129.967134 
L 205.137126 129.892227 
L 205.237552 129.81732 
L 205.170601 129.967134 
L 205.247852 129.892227 
L 205.379178 129.854773 
L 205.489904 129.367877 
L 205.505354 129.405331 
L 205.569729 129.480238 
L 205.554279 129.330424 
L 205.61608 129.405331 
L 205.66758 129.480238 
L 205.726806 129.592598 
L 205.685605 129.442784 
L 205.778306 129.517691 
L 205.829807 129.442784 
L 205.845257 129.555145 
L 205.886457 129.517691 
L 205.912207 129.442784 
L 206.004908 129.667506 
L 206.071859 129.592598 
L 206.100184 129.854773 
L 206.105334 129.81732 
L 206.19031 129.81732 
L 206.21091 129.704959 
L 206.27786 129.92968 
L 206.29846 129.892227 
L 206.370561 129.92968 
L 206.414336 129.81732 
L 206.496737 129.92968 
L 206.527637 129.854773 
L 206.633213 129.742413 
L 206.545662 129.892227 
L 206.638363 129.81732 
L 206.646088 129.704959 
L 206.731064 129.967134 
L 206.743939 129.892227 
L 207.009166 129.967134 
L 207.114742 130.079495 
L 207.045217 129.854773 
L 207.122467 130.042041 
L 207.130192 129.967134 
L 207.158517 130.116948 
L 207.233193 130.004588 
L 207.341344 130.079495 
L 207.240918 129.967134 
L 207.346494 130.042041 
L 207.395419 129.967134 
L 207.49842 129.779866 
L 207.51387 129.854773 
L 207.565371 129.779866 
L 207.575671 129.704959 
L 207.660647 129.892227 
L 207.673522 129.854773 
L 207.706997 129.92968 
L 207.730172 129.967134 
L 207.758497 129.779866 
L 207.809998 129.81732 
L 207.812573 129.742413 
L 207.874373 130.004588 
L 207.915574 129.967134 
L 208.015999 129.92968 
L 207.951624 130.079495 
L 208.023725 129.967134 
L 208.106125 130.004588 
L 208.034025 129.892227 
L 208.126725 129.892227 
L 208.234876 129.81732 
L 208.142176 129.92968 
L 208.237451 129.892227 
L 208.363627 129.81732 
L 208.425428 129.704959 
L 208.368777 129.892227 
L 208.476928 129.779866 
L 208.600529 130.116948 
L 208.608254 130.079495 
L 208.621129 130.004588 
L 208.664905 130.191855 
L 208.71383 130.154402 
L 208.767906 130.229309 
L 208.870907 130.34167 
L 208.773056 130.191855 
L 208.878632 130.266762 
L 208.971332 130.079495 
L 208.994508 130.154402 
L 208.997083 130.229309 
L 209.038283 130.004588 
L 209.105233 130.154402 
L 209.143859 130.116948 
L 209.146434 130.042041 
L 209.190209 130.229309 
L 209.25201 130.154402 
L 209.259735 130.116948 
L 209.28291 129.967134 
L 209.26746 130.154402 
L 209.370461 130.116948 
L 209.380761 130.042041 
L 209.383336 130.004588 
L 209.452861 130.229309 
L 209.486337 130.116948 
L 209.548137 130.229309 
L 209.591912 130.079495 
L 209.597062 130.116948 
L 209.707788 130.042041 
L 209.710363 130.004588 
L 209.738689 130.154402 
L 209.813364 130.079495 
L 209.926665 130.304216 
L 210.039966 129.81732 
L 210.042541 129.892227 
L 210.055416 129.967134 
L 210.132667 129.742413 
L 210.142967 129.81732 
L 210.258843 129.667506 
L 210.356694 129.704959 
L 210.294893 129.592598 
L 210.366994 129.667506 
L 210.431369 129.779866 
L 210.48287 129.592598 
L 210.48802 129.555145 
L 210.598746 129.779866 
L 210.642521 129.854773 
L 210.737797 129.967134 
L 210.657971 129.81732 
L 210.748097 129.81732 
L 210.840798 129.704959 
L 210.763547 129.854773 
L 210.861398 129.742413 
L 210.959249 129.92968 
L 210.876848 129.704959 
L 210.977274 129.892227 
L 211.018474 129.854773 
L 211.0777 130.042041 
L 211.08285 129.967134 
L 211.216751 129.92968 
L 211.332627 129.630052 
L 211.227051 130.004588 
L 211.335202 129.667506 
L 211.337777 129.779866 
L 211.394427 129.555145 
L 211.445928 129.704959 
L 211.505153 129.779866 
L 211.592704 129.892227 
L 211.528328 129.704959 
L 211.621029 129.854773 
L 211.762655 129.892227 
L 211.860506 129.967134 
L 211.839906 129.81732 
L 211.873381 129.892227 
L 211.978957 129.779866 
L 211.888831 129.967134 
L 211.989257 129.81732 
L 212.007282 129.854773 
L 212.110283 129.967134 
L 212.074233 129.81732 
L 212.118008 129.892227 
L 212.208134 129.779866 
L 212.136033 129.967134 
L 212.231309 129.854773 
L 212.305985 129.92968 
L 212.33431 129.742413 
L 212.33946 129.81732 
L 212.38581 129.704959 
L 212.36006 129.854773 
L 212.455336 129.742413 
L 212.493961 129.81732 
L 212.532587 129.892227 
L 212.581512 129.704959 
L 212.599537 129.742413 
L 212.638162 129.704959 
L 212.679363 129.854773 
L 212.707688 129.742413 
L 212.831289 129.967134 
L 212.854464 129.854773 
L 212.926565 130.042041 
L 212.93944 130.004588 
L 213.016691 130.116948 
L 212.962615 129.92968 
L 213.042441 129.92968 
L 213.045016 129.892227 
L 213.091366 130.116948 
L 213.150592 129.967134 
L 213.243292 130.116948 
L 213.160892 129.92968 
L 213.266468 130.079495 
L 213.348868 129.92968 
L 213.379769 130.042041 
L 213.485344 130.191855 
L 213.402944 130.004588 
L 213.49822 130.154402 
L 213.57032 130.004588 
L 213.608945 130.079495 
L 213.652721 130.154402 
L 213.706796 129.967134 
L 213.714521 130.004588 
L 213.820097 129.92968 
L 213.747997 130.042041 
L 213.825247 130.004588 
L 213.876748 130.042041 
L 213.979748 130.304216 
L 213.992624 130.191855 
L 214.085324 130.266762 
L 214.067299 130.154402 
L 214.103349 130.191855 
L 214.2115 130.079495 
L 214.1909 130.229309 
L 214.214075 130.191855 
L 214.281026 130.116948 
L 214.291326 130.229309 
L 214.322226 130.191855 
L 214.417502 130.229309 
L 214.373727 130.079495 
L 214.425227 130.079495 
L 214.502478 130.042041 
L 214.430377 130.154402 
L 214.530803 130.116948 
L 214.636379 130.229309 
L 214.564278 130.079495 
L 214.641529 130.154402 
L 214.677579 130.191855 
L 214.752255 130.34167 
L 214.767705 130.154402 
L 214.79088 130.304216 
L 214.834655 130.191855 
L 214.904181 130.266762 
L 214.955681 130.229309 
L 214.968557 130.266762 
L 215.068982 130.116948 
L 215.089583 130.229309 
L 215.171983 130.004588 
L 215.174558 129.967134 
L 215.254384 130.116948 
L 215.280134 130.042041 
L 215.326485 130.154402 
L 215.383135 129.967134 
L 215.39086 130.042041 
L 215.504161 129.92968 
L 215.450086 130.079495 
L 215.506736 129.967134 
L 215.532486 129.967134 
L 215.622612 129.742413 
L 215.643212 129.779866 
L 215.741063 129.967134 
L 215.756513 129.92968 
L 215.792563 130.042041 
L 215.823464 129.854773 
L 215.862089 129.854773 
L 215.952215 129.779866 
L 216.02174 129.667506 
L 215.957365 129.81732 
L 216.060366 129.779866 
L 216.065516 129.742413 
L 216.171091 129.854773 
L 216.243192 129.779866 
L 216.276667 129.967134 
L 216.279242 129.92968 
L 216.364218 129.81732 
L 216.387393 129.967134 
L 216.451769 129.967134 
L 216.454344 130.079495 
L 216.531594 129.630052 
L 216.55477 129.630052 
L 216.665496 129.480238 
L 216.668071 129.517691 
L 216.724721 129.592598 
L 216.794247 129.667506 
L 216.745321 129.480238 
L 216.832872 129.592598 
L 216.874072 129.517691 
L 216.917848 129.742413 
L 216.935873 129.704959 
L 217.025998 129.704959 
L 217.113549 129.555145 
L 217.136724 129.667506 
L 217.183075 129.630052 
L 217.229425 129.779866 
L 217.239725 129.704959 
L 217.350451 129.892227 
L 217.353026 129.81732 
L 217.381351 129.967134 
L 217.422552 129.779866 
L 217.466327 129.892227 
L 217.551303 129.81732 
L 217.504952 129.967134 
L 217.574478 129.892227 
L 217.584778 129.92968 
L 217.605378 129.779866 
L 217.680054 129.854773 
L 217.79593 129.667506 
L 217.695504 129.892227 
L 217.80108 129.704959 
L 217.953006 129.667506 
L 217.955581 129.592598 
L 217.994206 129.742413 
L 218.063732 129.667506 
L 218.110082 129.630052 
L 218.068882 129.742413 
L 218.174458 129.667506 
L 218.269734 129.779866 
L 218.256859 129.630052 
L 218.287759 129.742413 
L 218.359859 129.630052 
L 218.393335 129.779866 
L 218.39591 129.779866 
L 218.44741 129.81732 
L 218.449985 129.892227 
L 218.534961 129.704959 
L 218.555561 129.742413 
L 218.609636 129.592598 
L 218.668862 129.630052 
L 218.694612 129.742413 
L 218.756413 129.517691 
L 218.779588 129.630052 
L 218.854263 129.555145 
L 218.952114 129.442784 
L 218.970139 129.480238 
L 218.983015 129.555145 
L 219.091165 129.667506 
L 219.075715 129.517691 
L 219.09889 129.630052 
L 219.134941 129.517691 
L 219.150391 129.667506 
L 219.214766 129.555145 
L 219.289442 129.667506 
L 219.328067 129.592598 
L 219.364118 129.517691 
L 219.456818 129.367877 
L 219.477419 129.480238 
L 219.534069 129.442784 
L 219.593295 129.555145 
L 219.791571 129.592598 
L 219.889422 129.742413 
L 219.902297 129.704959 
L 219.994998 129.592598 
L 219.946072 129.742413 
L 220.013023 129.667506 
L 220.041348 129.742413 
L 220.097999 129.517691 
L 220.116024 129.592598 
L 220.203575 129.442784 
L 220.229325 129.517691 
L 220.275675 129.667506 
L 220.265375 129.442784 
L 220.342626 129.555145 
L 220.450777 129.405331 
L 220.355501 129.592598 
L 220.461077 129.442784 
L 220.491977 129.517691 
L 220.551202 129.555145 
L 220.587253 129.367877 
L 220.597553 129.442784 
L 220.636178 129.480238 
L 220.736604 129.630052 
L 220.685104 129.442784 
L 220.749479 129.555145 
L 220.819005 129.480238 
L 220.803554 129.630052 
L 220.860205 129.517691 
L 220.875655 129.480238 
L 220.973506 129.667506 
L 220.994106 129.592598 
L 221.035306 129.81732 
L 221.073932 129.779866 
L 221.153757 129.854773 
L 221.109982 129.704959 
L 221.184658 129.779866 
L 221.310834 129.742413 
L 221.321134 129.667506 
L 221.328859 129.779866 
L 221.42156 129.742413 
L 221.527135 129.81732 
L 221.480785 129.667506 
L 221.53486 129.779866 
L 221.630136 129.742413 
L 221.661037 129.779866 
L 221.743437 129.630052 
L 221.784638 129.667506 
L 221.825838 129.517691 
L 221.849013 129.555145 
L 221.921114 129.517691 
L 222.03184 129.330424 
L 222.03699 129.367877 
L 222.070465 129.330424 
L 222.07304 129.480238 
L 222.101365 129.255516 
L 222.181191 129.330424 
L 222.289342 129.480238 
L 222.297067 129.405331 
L 222.410368 129.442784 
L 222.521094 129.555145 
L 222.443843 129.405331 
L 222.523669 129.517691 
L 222.595769 129.592598 
L 222.618944 129.442784 
L 222.634395 129.517691 
L 222.696195 129.442784 
L 222.66787 129.555145 
L 222.742545 129.517691 
L 222.801771 129.630052 
L 222.781171 129.442784 
L 222.850696 129.480238 
L 223.175149 129.405331 
L 223.27815 129.180609 
L 223.291025 129.255516 
L 223.327075 129.180609 
L 223.337375 129.068249 
L 223.414626 129.255516 
L 223.435226 129.218063 
L 223.460976 129.29297 
L 223.455826 129.180609 
L 223.545952 129.218063 
L 223.556252 129.105702 
L 223.620628 129.29297 
L 223.654103 129.255516 
L 223.847229 129.180609 
L 223.988856 128.65626 
L 223.85753 129.255516 
L 223.991431 128.693713 
L 224.048081 128.65626 
L 224.115032 128.581352 
L 224.125332 128.731167 
L 224.158807 128.65626 
L 224.282408 128.843527 
L 224.336483 128.76862 
L 224.287558 128.880981 
L 224.393134 128.843527 
L 224.617161 128.843527 
L 224.715012 128.955888 
L 224.678961 128.806074 
L 224.725312 128.806074 
L 224.856638 128.880981 
L 224.964789 129.068249 
L 224.864363 128.76862 
L 224.975089 129.030795 
L 225.07294 128.918434 
L 225.08839 128.993342 
L 225.168215 129.180609 
L 225.206841 129.143156 
L 225.219716 129.180609 
L 225.320142 129.030795 
L 225.351042 129.218063 
L 225.430867 129.105702 
L 225.539018 128.955888 
L 225.546743 128.993342 
L 225.631719 129.030795 
L 225.564769 128.918434 
L 225.654894 128.955888 
L 225.79137 129.030795 
L 225.840296 128.955888 
L 225.904671 129.068249 
L 225.927847 128.880981 
L 226.015397 129.030795 
L 226.023122 129.105702 
L 226.110673 128.880981 
L 226.115823 128.880981 
L 226.128698 128.843527 
L 226.239424 128.468992 
L 226.244574 128.543899 
L 226.278049 128.468992 
L 226.399075 128.206817 
L 226.404225 128.24427 
L 226.504651 128.468992 
L 226.525251 128.394085 
L 226.527826 128.281724 
L 226.540702 128.431538 
L 226.635977 128.394085 
L 226.666878 128.431538 
L 226.762153 128.581352 
L 226.672028 128.394085 
L 226.777604 128.431538 
L 226.865154 128.543899 
L 226.834254 128.394085 
L 226.890904 128.468992 
L 226.94498 128.431538 
L 226.947555 128.356631 
L 227.019656 128.693713 
L 227.047981 128.65626 
L 227.073731 128.618806 
L 227.166432 128.431538 
L 227.084031 128.65626 
L 227.187032 128.543899 
L 227.256557 128.618806 
L 227.282308 128.319178 
L 227.284883 128.356631 
L 227.308058 128.281724 
L 227.326083 128.169363 
L 227.372433 128.356631 
L 227.418784 128.24427 
L 227.490884 128.24427 
L 227.493459 128.356631 
L 227.50891 128.169363 
L 227.60161 128.319178 
L 227.637661 128.206817 
L 227.663411 128.468992 
L 227.704611 128.431538 
L 227.794737 128.543899 
L 227.709761 128.394085 
L 227.815337 128.506445 
L 227.841087 128.468992 
L 227.871988 128.65626 
L 227.920913 128.581352 
L 227.962113 128.731167 
L 228.034214 128.618806 
L 228.065114 128.731167 
L 228.147515 128.543899 
L 228.219615 128.618806 
L 228.235065 128.468992 
L 228.255666 128.506445 
L 228.368967 128.431538 
L 228.410167 128.356631 
L 228.451367 128.581352 
L 228.474542 128.506445 
L 228.533768 128.581352 
L 228.574968 128.543899 
L 228.647069 128.693713 
L 228.706294 128.76862 
L 228.76037 128.581352 
L 228.881396 128.506445 
L 228.981822 128.468992 
L 228.917446 128.581352 
L 228.989547 128.506445 
L 229.095123 128.543899 
L 229.012722 128.394085 
L 229.100273 128.506445 
L 229.180098 128.431538 
L 229.113148 128.618806 
L 229.210999 128.468992 
L 229.329449 128.731167 
L 229.378375 128.76862 
L 229.481376 128.880981 
L 229.424725 128.693713 
L 229.489101 128.806074 
L 229.525151 128.880981 
L 229.602402 128.731167 
L 229.610127 128.806074 
L 229.697678 128.581352 
L 229.705403 128.618806 
L 229.731153 128.543899 
L 229.821279 128.394085 
L 229.738878 128.581352 
L 229.847029 128.468992 
L 229.908829 128.431538 
L 229.998955 128.319178 
L 229.94488 128.468992 
L 230.019555 128.431538 
L 230.153456 128.468992 
L 230.261607 128.76862 
L 230.271907 128.693713 
L 230.320833 128.581352 
L 230.295082 128.806074 
L 230.382633 128.65626 
L 230.400658 128.731167 
L 230.462459 128.506445 
L 230.485634 128.581352 
L 230.501084 128.65626 
L 230.60151 128.506445 
L 230.61696 128.618806 
L 230.671035 128.468992 
L 230.709661 128.468992 
L 230.714811 128.543899 
L 230.828112 128.356631 
L 230.833262 128.431538 
L 230.923388 128.24427 
L 230.931113 128.281724 
L 230.980038 128.169363 
L 231.018663 128.356631 
L 231.041839 128.24427 
L 231.052139 128.319178 
L 231.098489 128.169363 
L 231.149989 128.206817 
L 231.219515 128.169363 
L 231.22724 128.057003 
L 231.25299 128.206817 
L 231.330241 128.169363 
L 231.412642 128.169363 
L 231.507917 128.057003 
L 231.438392 128.206817 
L 231.523367 128.13191 
L 231.538818 128.057003 
L 231.639243 127.944642 
L 231.572293 128.13191 
L 231.652119 128.019549 
L 231.724219 128.057003 
L 231.773145 127.982096 
L 231.83752 128.13191 
L 231.904471 128.206817 
L 231.86327 128.057003 
L 231.943096 128.169363 
L 231.997171 128.019549 
L 232.053822 128.094456 
L 232.058972 128.057003 
L 232.177423 127.832281 
L 232.187723 127.869735 
L 232.308749 127.195571 
L 232.311324 127.233025 
L 232.393725 126.821035 
L 232.4787 126.746128 
L 232.561101 126.708675 
L 232.581701 126.858489 
L 232.584276 126.821035 
L 232.599726 126.895943 
L 232.604876 126.858489 
L 232.728477 127.195571 
L 232.731052 127.120664 
L 232.831478 127.420292 
L 232.849503 127.307932 
L 232.895854 127.495199 
L 232.944779 127.382839 
L 233.03233 127.532653 
L 233.060655 127.457746 
L 233.070955 127.532653 
L 233.171381 127.420292 
L 233.271807 127.570107 
L 233.282107 127.495199 
L 233.336182 127.420292 
L 233.346482 127.570107 
L 233.392833 127.457746 
L 233.477809 127.682467 
L 233.508709 127.60756 
L 233.534459 127.532653 
L 233.62716 127.495199 
L 233.591109 127.645014 
L 233.64261 127.570107 
L 233.861487 127.645014 
L 233.910412 127.60756 
L 233.979938 127.757374 
L 234.103539 127.570107 
L 234.21169 127.495199 
L 234.291515 127.382839 
L 234.22714 127.570107 
L 234.32499 127.420292 
L 234.415116 127.645014 
L 234.438291 127.570107 
L 234.440866 127.532653 
L 234.528417 127.719921 
L 234.536142 127.719921 
L 234.657168 127.907189 
L 234.739569 127.757374 
L 234.752444 127.944642 
L 234.770469 127.832281 
L 234.85287 127.982096 
L 234.778194 127.794828 
L 234.886345 127.907189 
L 234.906945 127.907189 
L 234.940421 128.019549 
L 234.968746 127.832281 
L 235.015096 127.869735 
L 235.120672 127.869735 
L 235.123247 127.757374 
L 235.130972 127.907189 
L 235.231398 127.832281 
L 235.251998 127.869735 
L 235.347274 127.982096 
L 235.290623 127.794828 
L 235.362724 127.907189 
L 235.45285 127.869735 
L 235.398774 128.057003 
L 235.470875 127.907189 
L 235.537825 128.057003 
L 235.48375 127.869735 
L 235.586751 127.982096 
L 235.599626 127.944642 
L 235.651126 127.645014 
L 235.712927 127.794828 
L 235.723227 127.907189 
L 235.738677 127.757374 
L 235.823653 127.794828 
L 235.841678 127.832281 
L 235.844253 127.907189 
L 235.942104 127.682467 
L 235.949829 127.757374 
L 236.055405 127.682467 
L 235.965279 127.832281 
L 236.060555 127.719921 
L 236.173856 127.832281 
L 236.065705 127.682467 
L 236.176431 127.794828 
L 236.230506 127.757374 
L 236.186731 127.907189 
L 236.279432 127.869735 
L 236.387582 127.907189 
L 236.289732 127.794828 
L 236.390157 127.869735 
L 236.513758 127.682467 
L 236.583284 127.832281 
L 236.614184 127.60756 
L 236.624484 127.757374 
L 236.65281 127.832281 
L 236.737785 127.60756 
L 236.845936 127.719921 
L 236.848511 127.682467 
L 236.894862 127.60756 
L 236.912887 127.719921 
L 236.959237 127.645014 
L 237.051938 127.719921 
L 237.062238 127.570107 
L 237.064813 127.60756 
L 237.111163 127.645014 
L 237.178114 127.495199 
L 237.224464 127.420292 
L 237.29399 127.570107 
L 237.412441 127.345385 
L 237.461366 127.307932 
L 237.487116 127.345385 
L 237.574667 127.195571 
L 237.584967 127.270478 
L 237.641618 126.97085 
L 237.669943 126.97085 
L 237.734318 126.97085 
L 237.744619 126.858489 
L 237.845044 126.97085 
L 237.942895 126.783582 
L 237.875945 127.008303 
L 237.96092 126.821035 
L 238.004696 126.783582 
L 238.053621 126.821035 
L 238.120572 126.633768 
L 238.223573 126.596314 
L 238.128297 126.708675 
L 238.228723 126.671221 
L 238.249323 126.671221 
L 238.275073 126.558861 
L 238.357474 126.783582 
L 238.383224 126.708675 
L 238.398674 126.671221 
L 238.470775 126.858489 
L 238.48365 126.858489 
L 238.53515 126.933396 
L 238.532575 126.821035 
L 238.594376 126.858489 
L 238.625276 126.895943 
L 238.723127 126.821035 
L 238.738577 126.97085 
L 238.759177 126.858489 
L 238.851878 126.895943 
L 238.942003 126.821035 
L 238.857028 126.933396 
L 238.962604 126.895943 
L 239.07848 126.821035 
L 239.086205 126.858489 
L 239.199506 126.633768 
L 239.240706 126.708675 
L 239.256156 126.521407 
L 239.307656 126.558861 
L 239.552283 126.596314 
L 239.601209 126.708675 
L 239.585759 126.521407 
L 239.663009 126.633768 
L 239.673309 126.558861 
L 239.71966 126.746128 
L 239.768585 126.671221 
L 239.853561 126.783582 
L 239.856136 126.596314 
L 239.881886 126.708675 
L 239.990037 126.746128 
L 240.098188 126.821035 
L 240.002912 126.671221 
L 240.100763 126.746128 
L 240.232089 126.671221 
L 240.32479 126.596314 
L 240.239814 126.708675 
L 240.342815 126.671221 
L 240.34539 126.671221 
L 240.389165 126.783582 
L 240.450966 126.596314 
L 240.453541 126.671221 
L 240.456116 126.558861 
L 240.487016 126.746128 
L 240.561692 126.708675 
L 240.615767 126.783582 
L 240.641517 126.746128 
L 240.726493 126.895943 
L 240.803744 126.746128 
L 240.837219 126.895943 
L 240.896444 126.708675 
L 240.95052 126.821035 
L 241.045796 126.895943 
L 241.009745 126.746128 
L 241.063821 126.858489 
L 241.153947 126.708675 
L 241.177122 126.821035 
L 241.354798 126.783582 
L 241.426899 126.708675 
L 241.393424 126.858489 
L 241.465524 126.783582 
L 241.54535 126.708675 
L 241.470674 126.821035 
L 241.573675 126.746128 
L 241.643201 126.858489 
L 241.61745 126.708675 
L 241.684401 126.746128 
L 241.728176 126.708675 
L 241.841477 127.008303 
L 241.892978 127.08321 
L 241.959928 126.895943 
L 241.985678 126.858489 
L 241.995978 126.895943 
L 242.098979 126.746128 
L 242.117004 126.708675 
L 242.21228 126.858489 
L 242.320431 126.671221 
L 242.325581 126.708675 
L 242.353906 126.708675 
L 242.374507 126.596314 
L 242.462057 126.783582 
L 242.572783 126.633768 
L 242.580508 126.671221 
L 242.608834 126.633768 
L 242.722134 126.409046 
L 242.724709 126.4465 
L 242.82256 126.371593 
L 242.835435 126.483953 
L 242.951311 126.371593 
L 243.049162 126.4465 
L 242.992512 126.334139 
L 243.062037 126.409046 
L 243.170188 126.296686 
L 243.136713 126.4465 
L 243.172763 126.334139 
L 243.260314 126.409046 
L 243.198513 126.296686 
L 243.280914 126.296686 
L 243.293789 126.371593 
L 243.316964 126.296686 
L 243.40709 126.4465 
L 243.507516 126.371593 
L 243.41739 126.483953 
L 243.515241 126.4465 
L 243.530691 126.483953 
L 243.597642 126.221779 
L 243.613092 126.296686 
L 243.726393 126.184325 
L 243.808793 126.371593 
L 243.839694 126.296686 
L 243.893769 126.371593 
L 243.98647 126.4465 
L 243.942694 126.296686 
L 244.004495 126.409046 
L 244.249122 126.334139 
L 244.326373 126.184325 
L 244.362423 126.296686 
L 244.462849 126.221779 
L 244.506624 126.071964 
L 244.467999 126.259232 
L 244.571 126.221779 
L 244.573575 126.259232 
L 244.594175 126.109418 
L 244.674 126.109418 
L 244.751251 126.146871 
L 244.854252 126.259232 
L 244.861977 126.146871 
L 244.936653 126.259232 
L 244.880002 126.109418 
L 244.975278 126.221779 
L 245.088579 126.071964 
L 245.093729 126.109418 
L 245.189005 126.071964 
L 245.194155 125.997057 
L 245.255955 126.259232 
L 245.294581 126.146871 
L 245.397581 126.109418 
L 245.410457 126.259232 
L 245.531483 126.109418 
L 245.629333 126.334139 
L 245.652508 126.259232 
L 245.683409 126.334139 
L 245.688559 126.371593 
L 245.704009 126.184325 
L 245.78641 126.296686 
L 245.876535 126.184325 
L 245.897136 126.259232 
L 245.902286 126.184325 
L 245.912586 126.334139 
L 246.002711 126.259232 
L 246.056787 126.371593 
L 246.061937 126.221779 
L 246.110862 126.296686 
L 246.118587 126.184325 
L 246.200988 126.334139 
L 246.221588 126.259232 
L 246.280814 126.334139 
L 246.231888 126.221779 
L 246.334889 126.296686 
L 246.360639 126.259232 
L 246.461065 126.184325 
L 246.378664 126.334139 
L 246.46879 126.334139 
L 246.497115 126.259232 
L 246.515141 126.221779 
L 246.582091 126.409046 
L 246.600116 126.371593 
L 246.687667 126.4465 
L 246.651617 126.334139 
L 246.710842 126.409046 
L 246.800968 126.371593 
L 246.775218 126.521407 
L 246.818993 126.4465 
L 246.837018 126.409046 
L 246.921994 126.259232 
L 246.950319 126.334139 
L 246.99667 126.409046 
L 246.955469 126.296686 
L 247.06362 126.371593 
L 247.107395 126.259232 
L 247.179496 126.296686 
L 247.200096 126.334139 
L 247.277347 126.109418 
L 247.279922 126.184325 
L 247.321122 126.296686 
L 247.395798 126.109418 
L 247.408673 126.221779 
L 247.488499 126.034511 
L 247.503949 126.109418 
L 247.601799 125.997057 
L 247.599224 126.146871 
L 247.61725 126.034511 
L 247.7048 126.071964 
L 247.640425 125.959604 
L 247.722825 125.997057 
L 247.758876 125.92215 
L 247.797501 126.109418 
L 247.828401 126.034511 
L 247.874752 126.071964 
L 247.915952 125.92215 
L 247.931402 125.92215 
L 247.949427 125.997057 
L 248.047278 125.809789 
L 248.073028 125.92215 
L 248.096204 125.734882 
L 248.155429 125.772336 
L 248.24298 125.659975 
L 248.168304 125.809789 
L 248.26358 125.734882 
L 248.371731 125.884697 
L 248.26873 125.697429 
L 248.376881 125.809789 
L 248.433531 125.772336 
L 248.541682 125.585068 
L 248.441256 125.809789 
L 248.549407 125.622522 
L 248.588033 125.697429 
L 248.660133 125.547615 
L 248.716784 125.510161 
L 248.776009 125.734882 
L 248.781159 125.697429 
L 248.806909 125.847243 
L 248.87901 125.847243 
L 248.886735 125.772336 
L 248.989736 125.959604 
L 248.992311 125.847243 
L 249.066987 126.071964 
L 249.097887 125.959604 
L 249.105612 126.071964 
L 249.115912 125.92215 
L 249.208613 125.997057 
L 249.249813 125.847243 
L 249.319339 125.959604 
L 249.321914 125.997057 
L 249.370839 125.847243 
L 249.419764 125.847243 
L 249.48929 125.772336 
L 249.424914 125.884697 
L 249.527915 125.847243 
L 249.561391 125.884697 
L 249.579416 125.734882 
L 249.633491 125.809789 
L 249.651516 125.847243 
L 249.746792 125.734882 
L 249.847218 125.847243 
L 249.829193 125.659975 
L 249.860093 125.809789 
L 249.890993 125.847243 
L 249.975969 125.697429 
L 250.045495 125.92215 
L 250.08927 125.809789 
L 250.13562 125.734882 
L 250.148495 125.809789 
L 250.248921 125.659975 
L 250.284972 125.734882 
L 250.336472 125.360347 
L 250.475523 124.648729 
L 250.488398 124.76109 
L 250.650625 124.798543 
L 250.774226 125.173079 
L 250.815426 125.060718 
L 250.848901 125.28544 
L 250.879801 125.247986 
L 250.954477 125.3978 
L 250.995677 125.322893 
L 251.060053 125.322893 
L 251.152754 125.210533 
L 251.106403 125.360347 
L 251.170779 125.28544 
L 251.186229 125.247986 
L 251.217129 125.435254 
L 251.27378 125.322893 
L 251.389656 125.547615 
L 251.407681 125.435254 
L 251.500382 125.547615 
L 251.541582 125.472707 
L 251.623983 125.734882 
L 251.634283 125.697429 
L 251.742433 125.622522 
L 251.644583 125.734882 
L 251.745009 125.659975 
L 251.837709 125.585068 
L 251.87376 125.622522 
L 251.953585 125.435254 
L 251.963885 125.547615 
L 252.028261 125.322893 
L 252.051436 125.322893 
L 252.169887 125.098172 
L 252.50979 125.173079 
L 252.558715 125.210533 
L 252.53554 125.098172 
L 252.617941 125.135625 
L 252.661716 125.060718 
L 252.708066 125.098172 
L 252.777592 124.948358 
L 252.818792 125.023265 
L 252.867718 124.798543 
L 252.883168 124.948358 
L 252.962994 124.835997 
L 252.901193 124.985811 
L 252.993894 124.873451 
L 253.065994 124.948358 
L 253.19217 125.173079 
L 253.241096 125.135625 
L 253.274571 125.023265 
L 253.346672 125.247986 
L 253.349247 125.210533 
L 253.354397 125.098172 
L 253.413622 125.28544 
L 253.457398 125.173079 
L 253.560398 125.28544 
L 253.534648 125.135625 
L 253.568123 125.210533 
L 253.624774 125.135625 
L 253.78185 124.349101 
L 253.80245 124.461461 
L 253.843651 124.274194 
L 253.890001 124.311647 
L 253.910601 124.386554 
L 254.034202 124.573822 
L 254.041927 124.498915 
L 254.129478 124.723636 
L 254.137203 124.648729 
L 254.199004 124.835997 
L 254.250504 124.723636 
L 254.258229 124.686183 
L 254.32518 124.910904 
L 254.35093 124.798543 
L 254.464231 124.948358 
L 254.520881 124.873451 
L 254.546632 125.098172 
L 254.569807 124.985811 
L 254.677958 125.173079 
L 254.585257 124.948358 
L 254.685683 125.060718 
L 254.688258 125.023265 
L 254.703708 125.173079 
L 254.721733 125.173079 
" clip-path="url(#pfb4c2f7e1a)" style="fill: none; stroke: #000000; stroke-opacity: 0.5; stroke-width: 1.5; stroke-linecap: square"/>
   </g>
   <g id="patch_3">
    <path d="M 41.667188 173.52 
L 41.667188 7.2 
" style="fill: none; stroke: #000000; stroke-width: 0.8; stroke-linejoin: miter; stroke-linecap: square"/>
   </g>
   <g id="patch_4">
    <path d="M 41.667188 173.52 
L 264.867187 173.52 
" style="fill: none; stroke: #000000; stroke-width: 0.8; stroke-linejoin: miter; stroke-linecap: square"/>
   </g>
  </g>
 </g>
 <defs>
  <clipPath id="pfb4c2f7e1a">
   <rect x="41.667188" y="7.2" width="223.2" height="166.32"/>
  </clipPath>
 </defs>
</svg>
