<?xml version="1.0" encoding="utf-8" standalone="no"?>
<!DOCTYPE svg PUBLIC "-//W3C//DTD SVG 1.1//EN"
  "http://www.w3.org/Graphics/SVG/1.1/DTD/svg11.dtd">
<svg xmlns:xlink="http://www.w3.org/1999/xlink" width="265.704687pt" height="197.398125pt" viewBox="0 0 265.704687 197.398125" xmlns="http://www.w3.org/2000/svg" version="1.1">
 <metadata>
  <rdf:RDF xmlns:dc="http://purl.org/dc/elements/1.1/" xmlns:cc="http://creativecommons.org/ns#" xmlns:rdf="http://www.w3.org/1999/02/22-rdf-syntax-ns#">
   <cc:Work>
    <dc:type rdf:resource="http://purl.org/dc/dcmitype/StillImage"/>
    <dc:date>2025-12-19T12:03:29.890527</dc:date>
    <dc:format>image/svg+xml</dc:format>
    <dc:creator>
     <cc:Agent>
      <dc:title>Matplotlib v3.10.7, https://matplotlib.org/</dc:title>
     </cc:Agent>
    </dc:creator>
   </cc:Work>
  </rdf:RDF>
 </metadata>
 <defs>
  <style type="text/css">*{stroke-linejoin: round; stroke-linecap: butt}</style>
 </defs>
 <g id="figure_1">
  <g id="patch_1">
   <path d="M 0 197.398125 
L 265.704687 197.398125 
L 265.704687 0 
L 0 0 
z
" style="fill: #ffffff"/>
  </g>
  <g id="axes_1">
   <g id="patch_2">
    <path d="M 35.304688 173.52 
L 258.504687 173.52 
L 258.504687 7.2 
L 35.304688 7.2 
z
" style="fill: #ffffff"/>
   </g>
   <g id="matplotlib.axis_1">
    <g id="xtick_1">
     <g id="line2d_1">
      <defs>
       <path id="m19cb1d6fdf" d="M 0 0 
L 0 3.5 
" style="stroke: #000000; stroke-width: 0.8"/>
      </defs>
      <g>
       <use xlink:href="#m19cb1d6fdf" x="76.350396" y="173.52" style="stroke: #000000; stroke-width: 0.8"/>
      </g>
     </g>
     <g id="text_1">
      <!-- 1 -->
      <g transform="translate(73.169146 188.118438) scale(0.1 -0.1)">
       <defs>
        <path id="DejaVuSans-31" d="M 794 531 
L 1825 531 
L 1825 4091 
L 703 3866 
L 703 4441 
L 1819 4666 
L 2450 4666 
L 2450 531 
L 3481 531 
L 3481 0 
L 794 0 
L 794 531 
z
" transform="scale(0.015625)"/>
       </defs>
       <use xlink:href="#DejaVuSans-31"/>
      </g>
     </g>
    </g>
    <g id="xtick_2">
     <g id="line2d_2">
      <g>
       <use xlink:href="#m19cb1d6fdf" x="127.850819" y="173.52" style="stroke: #000000; stroke-width: 0.8"/>
      </g>
     </g>
     <g id="text_2">
      <!-- 2 -->
      <g transform="translate(124.669569 188.118438) scale(0.1 -0.1)">
       <defs>
        <path id="DejaVuSans-32" d="M 1228 531 
L 3431 531 
L 3431 0 
L 469 0 
L 469 531 
Q 828 903 1448 1529 
Q 2069 2156 2228 2338 
Q 2531 2678 2651 2914 
Q 2772 3150 2772 3378 
Q 2772 3750 2511 3984 
Q 2250 4219 1831 4219 
Q 1534 4219 1204 4116 
Q 875 4013 500 3803 
L 500 4441 
Q 881 4594 1212 4672 
Q 1544 4750 1819 4750 
Q 2544 4750 2975 4387 
Q 3406 4025 3406 3419 
Q 3406 3131 3298 2873 
Q 3191 2616 2906 2266 
Q 2828 2175 2409 1742 
Q 1991 1309 1228 531 
z
" transform="scale(0.015625)"/>
       </defs>
       <use xlink:href="#DejaVuSans-32"/>
      </g>
     </g>
    </g>
    <g id="xtick_3">
     <g id="line2d_3">
      <g>
       <use xlink:href="#m19cb1d6fdf" x="179.351241" y="173.52" style="stroke: #000000; stroke-width: 0.8"/>
      </g>
     </g>
     <g id="text_3">
      <!-- 3 -->
      <g transform="translate(176.169991 188.118438) scale(0.1 -0.1)">
       <defs>
        <path id="DejaVuSans-33" d="M 2597 2516 
Q 3050 2419 3304 2112 
Q 3559 1806 3559 1356 
Q 3559 666 3084 287 
Q 2609 -91 1734 -91 
Q 1441 -91 1130 -33 
Q 819 25 488 141 
L 488 750 
Q 750 597 1062 519 
Q 1375 441 1716 441 
Q 2309 441 2620 675 
Q 2931 909 2931 1356 
Q 2931 1769 2642 2001 
Q 2353 2234 1838 2234 
L 1294 2234 
L 1294 2753 
L 1863 2753 
Q 2328 2753 2575 2939 
Q 2822 3125 2822 3475 
Q 2822 3834 2567 4026 
Q 2313 4219 1838 4219 
Q 1578 4219 1281 4162 
Q 984 4106 628 3988 
L 628 4550 
Q 988 4650 1302 4700 
Q 1616 4750 1894 4750 
Q 2613 4750 3031 4423 
Q 3450 4097 3450 3541 
Q 3450 3153 3228 2886 
Q 3006 2619 2597 2516 
z
" transform="scale(0.015625)"/>
       </defs>
       <use xlink:href="#DejaVuSans-33"/>
      </g>
     </g>
    </g>
    <g id="xtick_4">
     <g id="line2d_4">
      <g>
       <use xlink:href="#m19cb1d6fdf" x="230.851664" y="173.52" style="stroke: #000000; stroke-width: 0.8"/>
      </g>
     </g>
     <g id="text_4">
      <!-- 4 -->
      <g transform="translate(227.670414 188.118438) scale(0.1 -0.1)">
       <defs>
        <path id="DejaVuSans-34" d="M 2419 4116 
L 825 1625 
L 2419 1625 
L 2419 4116 
z
M 2253 4666 
L 3047 4666 
L 3047 1625 
L 3713 1625 
L 3713 1100 
L 3047 1100 
L 3047 0 
L 2419 0 
L 2419 1100 
L 313 1100 
L 313 1709 
L 2253 4666 
z
" transform="scale(0.015625)"/>
       </defs>
       <use xlink:href="#DejaVuSans-34"/>
      </g>
     </g>
    </g>
   </g>
   <g id="matplotlib.axis_2">
    <g id="ytick_1">
     <g id="line2d_5">
      <defs>
       <path id="m7bc9f83bfb" d="M 0 0 
L -3.5 0 
" style="stroke: #000000; stroke-width: 0.8"/>
      </defs>
      <g>
       <use xlink:href="#m7bc9f83bfb" x="35.304688" y="155.729075" style="stroke: #000000; stroke-width: 0.8"/>
      </g>
     </g>
     <g id="text_5">
      <!-- −80 -->
      <g transform="translate(7.2 159.528294) scale(0.1 -0.1)">
       <defs>
        <path id="DejaVuSans-2212" d="M 678 2272 
L 4684 2272 
L 4684 1741 
L 678 1741 
L 678 2272 
z
" transform="scale(0.015625)"/>
        <path id="DejaVuSans-38" d="M 2034 2216 
Q 1584 2216 1326 1975 
Q 1069 1734 1069 1313 
Q 1069 891 1326 650 
Q 1584 409 2034 409 
Q 2484 409 2743 651 
Q 3003 894 3003 1313 
Q 3003 1734 2745 1975 
Q 2488 2216 2034 2216 
z
M 1403 2484 
Q 997 2584 770 2862 
Q 544 3141 544 3541 
Q 544 4100 942 4425 
Q 1341 4750 2034 4750 
Q 2731 4750 3128 4425 
Q 3525 4100 3525 3541 
Q 3525 3141 3298 2862 
Q 3072 2584 2669 2484 
Q 3125 2378 3379 2068 
Q 3634 1759 3634 1313 
Q 3634 634 3220 271 
Q 2806 -91 2034 -91 
Q 1263 -91 848 271 
Q 434 634 434 1313 
Q 434 1759 690 2068 
Q 947 2378 1403 2484 
z
M 1172 3481 
Q 1172 3119 1398 2916 
Q 1625 2713 2034 2713 
Q 2441 2713 2670 2916 
Q 2900 3119 2900 3481 
Q 2900 3844 2670 4047 
Q 2441 4250 2034 4250 
Q 1625 4250 1398 4047 
Q 1172 3844 1172 3481 
z
" transform="scale(0.015625)"/>
        <path id="DejaVuSans-30" d="M 2034 4250 
Q 1547 4250 1301 3770 
Q 1056 3291 1056 2328 
Q 1056 1369 1301 889 
Q 1547 409 2034 409 
Q 2525 409 2770 889 
Q 3016 1369 3016 2328 
Q 3016 3291 2770 3770 
Q 2525 4250 2034 4250 
z
M 2034 4750 
Q 2819 4750 3233 4129 
Q 3647 3509 3647 2328 
Q 3647 1150 3233 529 
Q 2819 -91 2034 -91 
Q 1250 -91 836 529 
Q 422 1150 422 2328 
Q 422 3509 836 4129 
Q 1250 4750 2034 4750 
z
" transform="scale(0.015625)"/>
       </defs>
       <use xlink:href="#DejaVuSans-2212"/>
       <use xlink:href="#DejaVuSans-38" transform="translate(83.789062 0)"/>
       <use xlink:href="#DejaVuSans-30" transform="translate(147.412109 0)"/>
      </g>
     </g>
    </g>
    <g id="ytick_2">
     <g id="line2d_6">
      <g>
       <use xlink:href="#m7bc9f83bfb" x="35.304688" y="133.043537" style="stroke: #000000; stroke-width: 0.8"/>
      </g>
     </g>
     <g id="text_6">
      <!-- −60 -->
      <g transform="translate(7.2 136.842756) scale(0.1 -0.1)">
       <defs>
        <path id="DejaVuSans-36" d="M 2113 2584 
Q 1688 2584 1439 2293 
Q 1191 2003 1191 1497 
Q 1191 994 1439 701 
Q 1688 409 2113 409 
Q 2538 409 2786 701 
Q 3034 994 3034 1497 
Q 3034 2003 2786 2293 
Q 2538 2584 2113 2584 
z
M 3366 4563 
L 3366 3988 
Q 3128 4100 2886 4159 
Q 2644 4219 2406 4219 
Q 1781 4219 1451 3797 
Q 1122 3375 1075 2522 
Q 1259 2794 1537 2939 
Q 1816 3084 2150 3084 
Q 2853 3084 3261 2657 
Q 3669 2231 3669 1497 
Q 3669 778 3244 343 
Q 2819 -91 2113 -91 
Q 1303 -91 875 529 
Q 447 1150 447 2328 
Q 447 3434 972 4092 
Q 1497 4750 2381 4750 
Q 2619 4750 2861 4703 
Q 3103 4656 3366 4563 
z
" transform="scale(0.015625)"/>
       </defs>
       <use xlink:href="#DejaVuSans-2212"/>
       <use xlink:href="#DejaVuSans-36" transform="translate(83.789062 0)"/>
       <use xlink:href="#DejaVuSans-30" transform="translate(147.412109 0)"/>
      </g>
     </g>
    </g>
    <g id="ytick_3">
     <g id="line2d_7">
      <g>
       <use xlink:href="#m7bc9f83bfb" x="35.304688" y="110.357999" style="stroke: #000000; stroke-width: 0.8"/>
      </g>
     </g>
     <g id="text_7">
      <!-- −40 -->
      <g transform="translate(7.2 114.157218) scale(0.1 -0.1)">
       <use xlink:href="#DejaVuSans-2212"/>
       <use xlink:href="#DejaVuSans-34" transform="translate(83.789062 0)"/>
       <use xlink:href="#DejaVuSans-30" transform="translate(147.412109 0)"/>
      </g>
     </g>
    </g>
    <g id="ytick_4">
     <g id="line2d_8">
      <g>
       <use xlink:href="#m7bc9f83bfb" x="35.304688" y="87.672461" style="stroke: #000000; stroke-width: 0.8"/>
      </g>
     </g>
     <g id="text_8">
      <!-- −20 -->
      <g transform="translate(7.2 91.47168) scale(0.1 -0.1)">
       <use xlink:href="#DejaVuSans-2212"/>
       <use xlink:href="#DejaVuSans-32" transform="translate(83.789062 0)"/>
       <use xlink:href="#DejaVuSans-30" transform="translate(147.412109 0)"/>
      </g>
     </g>
    </g>
    <g id="ytick_5">
     <g id="line2d_9">
      <g>
       <use xlink:href="#m7bc9f83bfb" x="35.304688" y="64.986923" style="stroke: #000000; stroke-width: 0.8"/>
      </g>
     </g>
     <g id="text_9">
      <!-- 0 -->
      <g transform="translate(21.942187 68.786142) scale(0.1 -0.1)">
       <use xlink:href="#DejaVuSans-30"/>
      </g>
     </g>
    </g>
    <g id="ytick_6">
     <g id="line2d_10">
      <g>
       <use xlink:href="#m7bc9f83bfb" x="35.304688" y="42.301385" style="stroke: #000000; stroke-width: 0.8"/>
      </g>
     </g>
     <g id="text_10">
      <!-- 20 -->
      <g transform="translate(15.579687 46.100604) scale(0.1 -0.1)">
       <use xlink:href="#DejaVuSans-32"/>
       <use xlink:href="#DejaVuSans-30" transform="translate(63.623047 0)"/>
      </g>
     </g>
    </g>
    <g id="ytick_7">
     <g id="line2d_11">
      <g>
       <use xlink:href="#m7bc9f83bfb" x="35.304688" y="19.615847" style="stroke: #000000; stroke-width: 0.8"/>
      </g>
     </g>
     <g id="text_11">
      <!-- 40 -->
      <g transform="translate(15.579687 23.415066) scale(0.1 -0.1)">
       <use xlink:href="#DejaVuSans-34"/>
       <use xlink:href="#DejaVuSans-30" transform="translate(63.623047 0)"/>
      </g>
     </g>
    </g>
   </g>
   <g id="line2d_12">
    <path d="M 45.450142 138.856154 
L 45.452717 138.890769 
L 45.493917 138.717692 
L 45.558293 138.856154 
L 45.676744 138.752308 
L 45.764295 138.856154 
L 45.712794 138.683077 
L 45.78232 138.821538 
L 45.784895 138.683077 
L 45.826095 138.890769 
L 45.893046 138.821538 
L 45.905921 138.856154 
L 46.006347 138.752308 
L 46.111922 138.821538 
L 46.047547 138.683077 
L 46.119648 138.786923 
L 46.338524 138.683077 
L 46.341099 138.648462 
L 46.431225 138.821538 
L 46.43895 138.786923 
L 46.541951 138.856154 
L 46.4441 138.752308 
L 46.552251 138.821538 
L 46.799453 138.856154 
L 46.892154 138.96 
L 46.881854 138.821538 
L 46.910179 138.890769 
L 48.022588 138.96 
L 48.053488 139.063846 
L 48.040613 138.890769 
L 48.133314 139.029231 
L 48.171939 138.925385 
L 48.200265 139.098462 
L 48.246615 138.994615 
L 48.308416 139.133077 
L 48.359916 139.063846 
L 48.362491 138.994615 
L 48.385666 139.167692 
L 48.468067 139.098462 
L 48.578793 139.029231 
L 48.583943 139.063846 
L 48.689519 138.96 
L 48.720419 139.029231 
L 48.730719 138.856154 
L 48.79767 138.925385 
L 48.887795 138.786923 
L 48.867195 138.994615 
L 48.91097 138.821538 
L 48.934146 138.752308 
L 49.021696 138.856154 
L 49.080922 138.752308 
L 49.137572 138.786923 
L 49.328124 138.890769 
L 49.43885 138.96 
L 49.343574 138.856154 
L 49.441425 138.925385 
L 49.5058 139.029231 
L 49.575326 139.063846 
L 49.52125 138.925385 
L 49.608801 138.925385 
L 49.763302 138.856154 
L 49.830253 138.786923 
L 49.863728 138.96 
L 49.871453 138.890769 
L 50.296332 138.994615 
L 50.399333 139.063846 
L 50.345257 138.925385 
L 50.407058 139.029231 
L 50.499759 138.96 
L 50.476583 139.063846 
L 50.517784 138.994615 
L 50.522934 138.96 
L 50.656835 142.352308 
L 50.888587 147.233077 
L 51.076563 149.344615 
L 51.084288 149.413846 
L 51.246515 150.798462 
L 51.261965 150.902308 
L 51.411316 151.940769 
L 51.617318 153.256154 
L 51.619893 153.221538 
L 51.697143 153.671538 
L 51.715168 153.740769 
L 51.725469 153.706154 
L 51.84907 154.398462 
L 51.877395 154.502308 
L 52.037046 155.194615 
L 52.039621 155.16 
L 52.111722 155.506154 
L 52.122022 155.506154 
L 52.129747 155.471538 
L 52.261073 155.956154 
L 52.263648 155.852308 
L 52.364074 156.267692 
L 52.376949 156.163846 
L 52.441324 156.475385 
L 52.4645 156.475385 
L 52.600976 156.821538 
L 52.667926 156.925385 
L 52.776077 157.133077 
L 52.783802 157.098462 
L 52.853328 157.202308 
L 52.868778 157.133077 
L 52.971779 157.375385 
L 52.974354 157.306154 
L 53.051604 157.513846 
L 53.07993 157.444615 
L 53.11598 157.340769 
L 53.14688 157.548462 
L 53.190656 157.444615 
L 53.291081 157.583077 
L 53.200956 157.375385 
L 53.309107 157.548462 
L 53.659309 157.617692 
L 53.72626 157.686923 
L 53.713385 157.548462 
L 53.76746 157.583077 
L 53.903936 157.513846 
L 53.973462 157.306154 
L 54.019812 157.375385 
L 54.035263 157.479231 
L 54.117663 157.306154 
L 54.127963 157.340769 
L 54.627517 157.271538 
L 54.738243 157.167692 
L 54.681593 157.340769 
L 54.740818 157.202308 
L 54.794894 157.236923 
L 54.825794 157.063846 
L 54.846394 157.133077 
L 54.969995 157.029231 
L 55.080721 156.96 
L 54.99832 157.098462 
L 55.083296 156.994615 
L 55.235222 156.925385 
L 55.302173 156.856154 
L 55.255823 156.994615 
L 55.345948 156.925385 
L 55.433499 156.821538 
L 55.353673 156.96 
L 55.456674 156.925385 
L 55.5468 156.821538 
L 55.660101 156.717692 
L 55.559675 156.856154 
L 55.662676 156.752308 
L 55.760527 156.648462 
L 55.868678 156.579231 
L 55.788852 156.752308 
L 55.873828 156.613846 
L 55.948503 156.648462 
L 55.915028 156.544615 
L 55.981979 156.613846 
L 56.061804 156.51 
L 56.000004 156.683077 
L 56.092704 156.579231 
L 56.12618 156.648462 
L 56.139055 156.51 
L 56.200855 156.613846 
L 56.316731 156.440769 
L 56.329606 156.613846 
L 56.378532 156.406154 
L 56.427457 156.475385 
L 56.538183 156.371538 
L 56.643759 156.267692 
L 56.581958 156.440769 
L 56.648909 156.371538 
L 56.654059 156.336923 
L 56.710709 156.233077 
L 56.661784 156.406154 
L 56.764785 156.302308 
L 57.032587 156.198462 
L 57.117563 156.163846 
L 57.102113 156.302308 
L 57.143313 156.198462 
L 57.310689 156.094615 
L 57.405965 155.990769 
L 57.318414 156.163846 
L 57.42399 156.025385 
L 57.436865 156.129231 
L 57.501241 155.956154 
L 57.534716 156.025385 
L 57.714968 155.921538 
L 57.805093 155.852308 
L 57.722693 155.990769 
L 57.825694 155.921538 
L 58.088346 155.852308 
L 58.193922 155.644615 
L 58.093496 155.886923 
L 58.201647 155.713846 
L 58.289197 155.748462 
L 58.258297 155.61 
L 58.304648 155.644615 
L 58.399923 155.506154 
L 58.322673 155.713846 
L 58.417949 155.540769 
L 58.459149 155.644615 
L 58.505499 155.506154 
L 58.531249 155.61 
L 58.61365 155.436923 
L 58.64455 155.471538 
L 58.708926 155.575385 
L 58.665151 155.436923 
L 58.755276 155.540769 
L 58.827377 155.402308 
L 58.868577 155.471538 
L 58.871152 155.506154 
L 58.930378 155.367692 
L 58.971578 155.402308 
L 58.987028 155.471538 
L 59.084879 155.333077 
L 59.097754 155.402308 
L 59.126079 155.263846 
L 59.19303 155.298462 
L 60.318314 155.333077 
L 60.320889 155.16 
L 60.42904 155.298462 
L 60.521741 155.194615 
L 60.48569 155.367692 
L 60.542341 155.263846 
L 60.588691 155.333077 
L 60.617017 155.194615 
L 60.650492 155.229231 
L 60.889969 155.16 
L 60.897694 155.194615 
L 61.374073 145.121538 
L 61.657325 142.802308 
L 61.6702 142.698462 
L 61.873627 141.417692 
L 61.876202 141.452308 
L 61.945727 141.036923 
L 61.956028 141.036923 
L 62.092504 140.31 
L 62.131129 140.206154 
L 62.277905 139.652308 
L 62.28048 139.686923 
L 62.308805 139.583077 
L 62.453007 139.133077 
L 62.455582 139.236923 
L 62.545707 138.717692 
L 62.553432 138.752308 
L 62.592058 138.786923 
L 62.643558 138.544615 
L 62.648708 138.544615 
L 62.736259 138.440769 
L 62.872735 138.06 
L 62.88561 138.163846 
L 62.955136 137.921538 
L 62.978311 137.990769 
L 63.089037 137.783077 
L 62.988611 138.025385 
L 63.099337 137.852308 
L 63.184313 137.748462 
L 63.295039 137.575385 
L 63.192038 137.817692 
L 63.300189 137.679231 
L 63.359414 137.61 
L 63.47014 137.436923 
L 63.47529 137.471538 
L 63.534516 137.367692 
L 63.588591 137.333077 
L 63.539666 137.436923 
L 63.642666 137.402308 
L 63.668417 137.471538 
L 63.660692 137.333077 
L 63.748242 137.333077 
L 64.227196 137.263846 
L 64.268397 137.16 
L 64.240071 137.333077 
L 64.337922 137.229231 
L 64.343072 137.298462 
L 64.358522 137.125385 
L 64.451223 137.263846 
L 64.502723 137.194615 
L 64.556799 137.090769 
L 64.587699 137.263846 
L 64.613449 137.16 
L 64.734475 137.298462 
L 64.757651 137.194615 
L 64.829751 137.367692 
L 64.842626 137.298462 
L 64.953352 137.367692 
L 64.870951 137.263846 
L 64.955927 137.333077 
L 65.043478 137.229231 
L 65.033178 137.402308 
L 65.061503 137.333077 
L 65.154204 137.436923 
L 65.110428 137.229231 
L 65.172229 137.333077 
L 65.288105 137.471538 
L 65.205704 137.298462 
L 65.29068 137.436923 
L 65.388531 137.540769 
L 65.396256 137.471538 
L 65.504407 137.61 
L 65.530157 137.575385 
L 65.563632 137.748462 
L 65.607408 137.713846 
L 65.697533 137.886923 
L 65.720708 137.817692 
L 65.813409 137.748462 
L 65.831434 137.817692 
L 65.96791 137.713846 
L 66.001386 137.61 
L 66.016836 137.817692 
L 66.076061 137.713846 
L 66.166187 137.852308 
L 66.186787 137.817692 
L 66.235713 137.713846 
L 66.287213 137.852308 
L 66.297513 137.817692 
L 66.320688 137.783077 
L 66.374764 137.956154 
L 66.397939 137.886923 
L 66.482915 137.990769 
L 66.436564 137.852308 
L 66.508665 137.886923 
L 66.601366 138.025385 
L 66.524115 137.817692 
L 66.624541 137.956154 
L 66.709517 138.025385 
L 66.773892 138.163846 
L 66.820242 138.06 
L 66.874318 138.163846 
L 66.879468 138.198462 
L 66.912943 137.990769 
L 66.979894 138.094615 
L 66.982469 138.025385 
L 67.000494 138.198462 
L 67.088045 138.129231 
L 67.154995 138.267692 
L 67.201346 138.233077 
L 67.312072 138.129231 
L 67.211646 138.267692 
L 67.314647 138.163846 
L 67.317222 138.129231 
L 67.376447 138.336923 
L 67.412497 138.336923 
L 67.523223 138.406154 
L 67.422797 138.302308 
L 67.525798 138.371538 
L 67.827076 138.406154 
L 67.881151 138.579231 
L 67.940377 138.544615 
L 68.015052 138.475385 
L 68.030502 138.613846 
L 68.048528 138.579231 
L 68.375555 138.683077 
L 68.401305 138.752308 
L 68.38843 138.613846 
L 68.481131 138.648462 
L 68.571257 138.579231 
L 68.524906 138.717692 
L 68.589282 138.613846 
L 68.612457 138.717692 
L 68.620182 138.579231 
L 68.700008 138.613846 
L 68.725758 138.544615 
L 68.761808 138.717692 
L 68.805584 138.683077 
L 68.929185 138.786923 
L 69.011585 138.890769 
L 69.027036 138.683077 
L 69.032186 138.786923 
L 69.034761 138.683077 
L 69.104286 138.856154 
L 69.142912 138.786923 
L 69.153212 138.717692 
L 69.258788 138.890769 
L 69.315438 138.717692 
L 69.377238 138.752308 
L 69.459639 138.925385 
L 69.490539 138.821538 
L 69.55749 138.786923 
L 69.58324 138.925385 
L 69.596115 138.890769 
L 69.822717 138.786923 
L 69.825292 138.752308 
L 69.845892 138.925385 
L 69.930868 138.786923 
L 70.039019 138.890769 
L 70.046744 138.856154 
L 70.170345 138.96 
L 70.250171 138.994615 
L 70.216695 138.856154 
L 70.275921 138.925385 
L 70.286221 138.856154 
L 70.337721 139.029231 
L 70.381497 138.994615 
L 70.466472 139.063846 
L 70.386647 138.96 
L 70.492223 138.994615 
L 70.605524 139.063846 
L 70.667324 139.167692 
L 70.610674 138.96 
L 70.718825 139.133077 
L 70.74715 139.029231 
L 70.811525 138.994615 
L 70.845001 139.133077 
L 70.852726 139.098462 
L 70.955726 139.167692 
L 70.875901 138.994615 
L 70.963452 139.133077 
L 70.996927 139.236923 
L 71.076752 139.098462 
L 71.166878 139.202308 
L 71.190053 139.167692 
L 71.223529 139.063846 
L 71.233829 139.202308 
L 71.298204 139.133077 
L 71.326529 139.236923 
L 71.34198 139.098462 
L 71.406355 139.133077 
L 71.40893 139.098462 
L 71.491331 139.271538 
L 71.514506 139.167692 
L 71.571157 139.306154 
L 71.602057 139.133077 
L 71.627807 139.236923 
L 71.723083 139.098462 
L 71.645832 139.271538 
L 71.743683 139.167692 
L 72.297312 139.063846 
L 72.366838 139.029231 
L 72.315338 139.133077 
L 72.400313 139.133077 
L 72.493014 139.167692 
L 72.449239 139.029231 
L 72.511039 139.133077 
L 72.621765 138.994615 
L 72.62434 139.029231 
L 72.64494 139.063846 
L 72.719616 138.890769 
L 72.727341 138.994615 
L 72.768541 138.856154 
L 72.794292 139.029231 
L 72.840642 138.925385 
L 72.938493 138.821538 
L 72.977118 138.786923 
L 72.948793 138.925385 
L 73.046644 138.821538 
L 73.051794 138.96 
L 73.059519 138.786923 
L 73.159945 138.856154 
L 73.23462 138.96 
L 73.288696 139.029231 
L 73.247495 138.890769 
L 73.345346 138.994615 
L 73.404572 138.96 
L 73.432897 139.098462 
L 73.453497 139.029231 
L 73.548773 139.098462 
L 73.646624 139.167692 
L 73.656924 139.029231 
L 73.667224 139.063846 
L 73.669799 139.167692 
L 73.677524 139.029231 
L 73.77795 139.098462 
L 74.125577 139.133077 
L 74.238878 139.236923 
L 74.339304 139.133077 
L 74.254329 139.271538 
L 74.352179 139.202308 
L 75.062885 139.202308 
L 75.168461 139.41 
L 75.173611 139.340769 
L 75.194211 139.41 
L 75.284337 139.271538 
L 75.402788 139.375385 
L 75.425963 139.271538 
L 75.446563 139.444615 
L 75.513514 139.340769 
L 75.580464 139.41 
L 75.554714 139.306154 
L 75.626815 139.375385 
L 75.732391 139.236923 
L 75.745266 139.271538 
L 75.771016 139.202308 
L 75.858567 139.340769 
L 75.956418 139.202308 
L 75.971868 139.271538 
L 75.984743 139.306154 
L 76.092894 139.133077 
L 76.267995 139.063846 
L 76.350396 138.96 
L 76.481722 147.06 
L 76.736649 152.875385 
L 76.744374 152.944615 
L 76.924625 155.748462 
L 77.117752 158.067692 
L 77.120327 158.033077 
L 77.42418 160.663846 
L 77.426755 160.594615 
L 77.51173 161.252308 
L 77.717732 162.567692 
L 77.720307 162.533077 
L 77.794983 162.983077 
L 77.797558 162.948462 
L 77.959784 163.779231 
L 77.967509 163.744615 
L 77.998409 163.813846 
L 78.12716 164.367692 
L 78.134885 164.298462 
L 78.214711 164.679231 
L 78.217286 164.644615 
L 78.340887 164.990769 
L 78.361487 164.956154 
L 78.420713 165.198462 
L 78.433588 165.198462 
L 78.549464 165.475385 
L 78.446463 165.163846 
L 78.559764 165.440769 
L 78.572639 165.406154 
L 78.626714 165.579231 
L 78.662765 165.544615 
L 78.734865 165.648462 
L 78.835291 165.821538 
L 78.850741 165.752308 
L 78.858466 165.648462 
L 78.938292 165.821538 
L 78.958892 165.786923 
L 79.172619 165.890769 
L 79.273045 165.96 
L 79.190644 165.821538 
L 79.283345 165.890769 
L 79.461021 165.856154 
L 79.545997 165.717692 
L 79.574322 165.752308 
L 79.633548 165.648462 
L 79.757149 165.440769 
L 79.759724 165.51 
L 79.836974 165.302308 
L 79.862725 165.302308 
L 79.958 165.233077 
L 80.076451 165.025385 
L 80.133102 165.06 
L 80.169152 164.886923 
L 80.179452 164.956154 
L 80.184602 164.990769 
L 80.300478 164.817692 
L 80.46528 164.713846 
L 80.51163 164.783077 
L 80.581155 164.575385 
L 80.609481 164.713846 
L 80.637806 164.506154 
L 80.689306 164.540769 
L 80.820632 164.436923 
L 80.923633 164.333077 
L 80.833508 164.506154 
L 80.936508 164.367692 
L 81.036934 164.298462 
L 81.088435 164.194615 
L 81.049809 164.333077 
L 81.150235 164.229231 
L 81.240361 164.16 
L 81.356237 164.021538 
L 81.423187 163.917692 
L 81.472113 163.986923 
L 81.546788 163.71 
L 81.564814 163.848462 
L 81.600864 163.675385 
L 81.654939 163.71 
L 81.76309 163.571538 
L 81.770815 163.606154 
L 81.786265 163.640769 
L 81.827466 163.467692 
L 81.868666 163.502308 
L 81.984542 163.294615 
L 82.010292 163.363846 
L 82.059218 163.190769 
L 82.090118 163.225385 
L 82.180244 162.983077 
L 82.105568 163.26 
L 82.213719 163.017692 
L 82.226594 163.052308 
L 82.275519 162.81 
L 82.314145 162.879231 
L 82.36822 162.81 
L 82.39912 162.844615 
L 82.486671 162.567692 
L 82.530446 162.636923 
L 82.589672 162.429231 
L 82.592247 162.429231 
L 82.700398 162.256154 
L 82.610272 162.498462 
L 82.705548 162.290769 
L 82.728723 162.325385 
L 82.764773 162.152308 
L 82.811124 162.221538 
L 82.818849 162.152308 
L 82.93215 161.979231 
L 82.826574 162.186923 
L 82.934725 162.013846 
L 83.068626 161.667692 
L 83.081501 161.702308 
L 83.151027 161.46 
L 83.171627 161.563846 
L 83.300378 161.286923 
L 83.326128 161.356154 
L 83.372478 161.183077 
L 83.408529 161.252308 
L 83.467754 161.183077 
L 83.581055 160.975385 
L 83.58363 161.01 
L 83.730406 160.906154 
L 83.848857 160.698462 
L 83.851432 160.733077 
L 83.854007 160.767692 
L 83.938983 160.525385 
L 83.946708 160.56 
L 84.078034 160.283077 
L 84.114084 160.352308 
L 84.16816 160.179231 
L 84.186185 160.213846 
L 84.21451 160.248462 
L 84.307211 160.075385 
L 84.397337 159.971538 
L 84.513213 159.763846 
L 84.402487 160.006154 
L 84.518363 159.798462 
L 84.546688 159.867692 
L 84.613639 159.694615 
L 84.621364 159.694615 
L 84.708914 159.590769 
L 84.82994 159.417692 
L 84.84024 159.452308 
L 84.925216 159.244615 
L 84.930366 159.313846 
L 85.041092 159.140769 
L 85.043667 159.21 
L 85.084867 159.106154 
L 85.092593 159.140769 
L 85.203318 158.967692 
L 85.213619 159.071538 
L 85.303744 158.829231 
L 85.306319 158.863846 
L 85.339795 158.898462 
L 85.427345 158.725385 
L 85.437645 158.794615 
L 85.514896 158.621538 
L 85.530346 158.656154 
L 85.538071 158.725385 
L 85.656522 158.413846 
L 85.666822 158.517692 
L 85.713173 158.31 
L 85.756948 158.344615 
L 85.875399 158.067692 
L 85.895999 158.136923 
L 85.929474 157.963846 
L 85.980975 157.998462 
L 86.0505 157.929231 
L 86.058225 157.963846 
L 86.168951 157.721538 
L 86.308002 157.617692 
L 86.367228 157.479231 
L 86.318303 157.652308 
L 86.423878 157.513846 
L 86.426453 157.548462 
L 86.477954 157.375385 
L 86.524304 157.41 
L 86.64533 157.098462 
L 86.65563 157.202308 
L 86.748331 157.029231 
L 86.864207 156.856154 
L 86.776656 157.098462 
L 86.866782 156.890769 
L 86.895107 156.994615 
L 86.974933 156.821538 
L 86.977508 156.925385 
L 86.992958 156.96 
L 87.098534 156.717692 
L 87.101109 156.786923 
L 87.16291 156.648462 
L 87.206685 156.683077 
L 87.319986 156.544615 
L 87.350886 156.579231 
L 87.397236 156.406154 
L 87.422987 156.440769 
L 87.536288 156.198462 
L 87.598088 156.129231 
L 87.701089 155.921538 
L 87.713964 155.956154 
L 87.863315 155.886923 
L 87.917391 155.748462 
L 87.873615 155.921538 
L 87.974041 155.852308 
L 88.048717 155.748462 
L 88.110517 155.783077 
L 88.167168 155.644615 
L 88.169743 155.679231 
L 88.252143 155.471538 
L 88.270169 155.540769 
L 88.375744 155.333077 
L 88.386045 155.367692 
L 88.38862 155.436923 
L 88.468445 155.263846 
L 88.49677 155.367692 
L 88.499345 155.402308 
L 88.592046 155.16 
L 88.594621 155.194615 
L 88.687322 155.090769 
L 88.615221 155.263846 
L 88.710497 155.125385 
L 88.718222 155.229231 
L 88.754273 154.986923 
L 88.813498 155.056154 
L 88.826373 155.090769 
L 88.934524 154.917692 
L 88.967999 155.056154 
L 89.027225 154.848462 
L 89.0401 154.883077 
L 89.140526 154.675385 
L 89.155976 154.71 
L 89.233227 154.675385 
L 89.320777 154.467692 
L 89.346527 154.502308 
L 89.423778 154.398462 
L 89.441803 154.467692 
L 89.542229 154.26 
L 89.583429 154.363846 
L 89.62463 154.190769 
L 89.65038 154.26 
L 89.753381 154.086923 
L 89.768831 154.121538 
L 89.784281 154.190769 
L 89.864107 153.948462 
L 89.869257 154.017692 
L 90.003158 153.706154 
L 90.077833 153.602308 
L 90.196284 153.36 
L 90.198859 153.463846 
L 90.201434 153.498462 
L 90.25551 153.290769 
L 90.30186 153.36 
L 90.348211 153.256154 
L 90.461512 153.152308 
L 90.366236 153.325385 
L 90.464087 153.186923 
L 90.523312 153.186923 
L 90.621163 152.979231 
L 90.634038 153.083077 
L 90.744764 153.048462 
L 90.767939 153.083077 
L 90.858065 152.840769 
L 90.89154 152.979231 
L 90.93274 152.806154 
L 90.966216 152.840769 
L 91.076942 152.667692 
L 91.082092 152.702308 
L 91.182518 152.598462 
L 91.102692 152.771538 
L 91.195393 152.633077 
L 91.200543 152.667692 
L 91.249468 152.494615 
L 91.298393 152.563846 
L 91.349894 152.425385 
L 91.352469 152.598462 
L 91.411694 152.494615 
L 91.42972 152.529231 
L 91.49667 152.321538 
L 91.51212 152.356154 
L 91.599671 152.183077 
L 91.627996 152.252308 
L 91.653746 152.286923 
L 91.712972 152.113846 
L 91.730997 152.148462 
L 91.797948 152.044615 
L 91.906098 151.871538 
L 91.810823 152.079231 
L 91.911248 151.906154 
L 91.993649 151.940769 
L 91.980774 151.836923 
L 92.019399 151.871538 
L 92.088925 151.802308 
L 92.197076 151.629231 
L 92.094075 151.836923 
L 92.202226 151.733077 
L 92.315527 151.663846 
L 92.423678 151.490769 
L 92.431403 151.525385 
L 92.433978 151.56 
L 92.529254 151.352308 
L 92.639979 151.248462 
L 92.647705 151.283077 
L 92.75843 151.11 
L 92.766156 151.213846 
L 92.858856 150.971538 
L 92.861431 150.971538 
L 92.972157 150.798462 
L 92.874306 151.006154 
L 92.979882 150.867692 
L 93.026233 150.833077 
L 93.136959 150.694615 
L 93.139534 150.729231 
L 93.288885 150.694615 
L 93.389311 150.556154 
L 93.402186 150.590769 
L 93.500037 150.486923 
L 93.600462 150.313846 
L 93.621063 150.348462 
L 93.731788 150.244615 
L 93.845089 150.106154 
L 93.736938 150.279231 
L 93.847664 150.175385 
L 94.025341 150.071538 
L 94.087141 149.967692 
L 94.035641 150.106154 
L 94.138642 150.002308 
L 94.143792 150.071538 
L 94.197867 149.863846 
L 94.244218 149.933077 
L 94.370394 149.725385 
L 94.398719 149.794615 
L 94.468244 149.621538 
L 94.478545 149.656154 
L 94.586695 149.483077 
L 94.594421 149.517692 
L 94.609871 149.448462 
L 94.725747 149.275385 
L 94.728322 149.344615 
L 94.774672 149.171538 
L 94.833897 149.206154 
L 94.939473 148.963846 
L 94.960074 148.998462 
L 94.990974 149.033077 
L 95.039899 148.825385 
L 95.057924 148.963846 
L 95.166075 148.756154 
L 95.171225 148.825385 
L 95.220151 148.721538 
L 95.307701 148.583077 
L 95.235601 148.756154 
L 95.338602 148.617692 
L 95.379802 148.652308 
L 95.436452 148.444615 
L 95.444178 148.583077 
L 95.554903 148.375385 
L 95.565203 148.444615 
L 95.73258 148.340769 
L 95.848456 148.202308 
L 95.961757 148.133077 
L 96.075058 147.856154 
L 96.080208 147.890769 
L 96.144583 147.821538 
L 96.257884 147.613846 
L 96.157458 147.856154 
L 96.260459 147.683077 
L 96.31196 147.752308 
L 96.37376 147.613846 
L 96.430411 147.683077 
L 96.458736 147.51 
L 96.481911 147.544615 
L 96.520536 147.648462 
L 96.595212 147.475385 
L 96.610662 147.579231 
L 96.685338 147.371538 
L 96.700788 147.406154 
L 96.711088 147.475385 
L 96.819239 147.267692 
L 96.914515 147.336923 
L 96.844989 147.198462 
L 96.924815 147.198462 
L 97.102491 147.163846 
L 97.205492 147.025385 
L 97.215792 147.06 
L 97.295618 147.129231 
L 97.259567 146.990769 
L 97.321368 147.06 
L 97.434669 146.956154 
L 97.591745 146.886923 
L 97.699896 146.679231 
L 97.705046 146.748462 
L 97.707621 146.783077 
L 97.797747 146.575385 
L 97.802897 146.575385 
L 97.859547 146.506154 
L 97.939373 146.436923 
L 97.913623 146.575385 
L 97.970273 146.471538 
L 97.990873 146.506154 
L 98.034649 146.333077 
L 98.073274 146.367692 
L 98.099024 146.436923 
L 98.1943 146.16 
L 98.2046 146.298462 
L 98.307601 146.263846 
L 98.420902 146.056154 
L 98.423477 146.125385 
L 98.536778 145.848462 
L 98.552228 145.883077 
L 98.554803 145.952308 
L 98.585703 145.71 
L 98.655229 145.744615 
L 98.76853 145.502308 
L 98.781405 145.536923 
L 98.786555 145.571538 
L 98.817455 145.433077 
L 98.889556 145.502308 
L 98.943631 145.502308 
L 99.051782 145.329231 
L 99.056932 145.363846 
L 99.103283 145.398462 
L 99.123883 145.26 
L 99.165083 145.363846 
L 99.291259 145.086923 
L 99.293834 145.156154 
L 99.360785 144.983077 
L 99.396835 145.017692 
L 99.515286 144.740769 
L 99.556486 144.81 
L 99.589962 144.602308 
L 99.620862 144.671538 
L 99.713563 144.671538 
L 99.808838 144.463846 
L 99.826863 144.498462 
L 99.914414 144.429231 
L 100.02514 144.256154 
L 99.947889 144.463846 
L 100.03029 144.290769 
L 100.032865 144.325385 
L 100.084366 144.152308 
L 100.133291 144.186923 
L 100.138441 144.221538 
L 100.259467 143.944615 
L 100.264617 144.013846 
L 100.303242 143.771538 
L 100.365043 143.806154 
L 100.465469 143.736923 
L 100.57877 143.529231 
L 100.496369 143.771538 
L 100.581345 143.563846 
L 100.748721 143.529231 
L 100.859447 143.356154 
L 100.862022 143.390769 
L 100.975323 143.183077 
L 100.980473 143.252308 
L 100.983048 143.321538 
L 101.080899 143.044615 
L 101.083474 143.044615 
L 101.2148 142.940769 
L 101.330676 142.802308 
L 101.428527 142.629231 
L 101.335826 142.836923 
L 101.449127 142.698462 
L 101.513502 142.594615 
L 101.631953 142.386923 
L 101.531527 142.629231 
L 101.634528 142.421538 
L 101.665429 142.490769 
L 101.652553 142.317692 
L 101.740104 142.352308 
L 101.80448 142.248462 
L 101.915206 142.11 
L 101.80963 142.283077 
L 101.917781 142.144615 
L 101.920356 142.213846 
L 102.018206 141.971538 
L 102.023357 142.040769 
L 102.041382 142.075385 
L 102.139232 141.902308 
L 102.144383 141.971538 
L 102.231933 141.798462 
L 102.244808 141.833077 
L 102.365834 141.729231 
L 102.47656 141.590769 
L 102.383859 141.833077 
L 102.48171 141.625385 
L 102.543511 141.694615 
L 102.515186 141.521538 
L 102.592436 141.625385 
L 102.669687 141.452308 
L 102.703162 141.556154 
L 102.746937 141.486923 
L 102.754663 141.521538 
L 102.862813 141.244615 
L 102.932339 141.383077 
L 102.968389 141.21 
L 102.973539 141.279231 
L 103.001865 141.175385 
L 103.125466 141.002308 
L 103.151216 141.071538 
L 103.223316 140.898462 
L 103.228466 140.967692 
L 103.339192 140.863846 
L 103.297992 141.036923 
L 103.341767 140.898462 
L 103.352067 140.933077 
L 103.452493 140.829231 
L 103.475668 140.967692 
L 103.465368 140.76 
L 103.563219 140.863846 
L 103.689395 140.76 
L 103.694545 140.794615 
L 103.812996 140.517692 
L 103.815571 140.621538 
L 103.864497 140.448462 
L 103.921147 140.483077 
L 103.977798 140.379231 
L 104.047323 140.206154 
L 103.998398 140.413846 
L 104.093674 140.275385 
L 104.129724 140.31 
L 104.183799 140.102308 
L 104.188949 140.136923 
L 104.289375 140.033077 
L 104.222425 140.171538 
L 104.2971 140.102308 
L 104.299675 140.171538 
L 104.402676 139.963846 
L 104.415551 140.033077 
L 104.472202 139.825385 
L 104.503102 139.894615 
L 104.618978 139.652308 
L 104.624128 139.756154 
L 104.703954 139.513846 
L 104.727129 139.583077 
L 104.843005 139.306154 
L 104.732279 139.617692 
L 104.85588 139.340769 
L 104.858455 139.375385 
L 104.948581 139.236923 
L 104.958881 139.271538 
L 105.064456 139.133077 
L 104.997506 139.306154 
L 105.074757 139.202308 
L 105.334834 139.098462 
L 105.339984 139.133077 
L 105.458435 138.890769 
L 105.473885 138.994615 
L 105.52281 138.752308 
L 105.564011 138.821538 
L 105.600061 138.856154 
L 105.677312 138.752308 
L 105.700487 138.786923 
L 105.731387 138.648462 
L 105.780312 138.683077 
L 105.839538 138.51 
L 105.893613 138.579231 
L 105.896188 138.613846 
L 105.934814 138.406154 
L 105.996614 138.51 
L 106.104765 138.336923 
L 106.115065 138.406154 
L 106.192316 138.302308 
L 106.305617 138.06 
L 106.197466 138.336923 
L 106.315917 138.094615 
L 106.331367 138.233077 
L 106.416343 137.921538 
L 106.418918 137.921538 
L 106.550244 137.817692 
L 106.637794 137.713846 
L 106.594019 137.886923 
L 106.663545 137.748462 
L 106.678995 137.852308 
L 106.761395 137.575385 
L 106.766545 137.644615 
L 106.820621 137.61 
L 106.926197 137.367692 
L 106.933922 137.436923 
L 106.939072 137.471538 
L 107.024048 137.263846 
L 107.036923 137.333077 
L 107.160524 137.056154 
L 107.163099 137.125385 
L 107.242924 137.021538 
L 107.356225 136.848462 
L 107.253224 137.056154 
L 107.36395 136.883077 
L 107.464376 136.813846 
L 107.575102 136.675385 
L 107.492701 136.848462 
L 107.577677 136.744615 
L 107.634328 136.571538 
L 107.582827 136.813846 
L 107.693553 136.640769 
L 107.696128 136.71 
L 107.799129 136.502308 
L 107.91243 136.467692 
L 107.94848 136.363846 
L 107.92273 136.502308 
L 108.023156 136.398462 
L 108.077231 136.571538 
L 108.128732 136.329231 
L 108.244608 136.156154 
L 108.144182 136.363846 
L 108.249758 136.190769 
L 108.252333 136.26 
L 108.347608 136.017692 
L 108.352758 136.052308 
L 108.48151 135.775385 
L 108.571635 135.844615 
L 108.57421 135.671538 
L 108.58966 135.81 
L 108.705536 135.498462 
L 108.708111 135.533077 
L 108.720987 135.567692 
L 108.790512 135.325385 
L 108.803387 135.394615 
L 108.921838 135.186923 
L 108.929563 135.256154 
L 109.004239 135.013846 
L 109.022264 135.048462 
L 109.145865 134.875385 
L 109.16389 134.979231 
L 109.243716 134.771538 
L 109.254016 134.840769 
L 109.266891 134.875385 
L 109.369892 134.667692 
L 109.385342 134.736923 
L 109.467743 134.529231 
L 109.478043 134.598462 
L 109.568168 134.529231 
L 109.684044 134.356154 
L 109.776745 134.286923 
L 109.892621 134.079231 
L 109.895196 134.148462 
L 109.969872 133.940769 
L 110.000772 134.01 
L 110.106348 133.802308 
L 110.124373 133.836923 
L 110.173298 133.871538 
L 110.222224 133.663846 
L 110.227374 133.733077 
L 110.32265 133.767692 
L 110.345825 133.594615 
L 110.4205 133.663846 
L 110.428226 133.56 
L 110.456551 133.594615 
L 110.490026 133.490769 
L 110.593027 133.317692 
L 110.500326 133.56 
L 110.608477 133.352308 
L 110.652252 133.421538 
L 110.639377 133.248462 
L 110.714053 133.386923 
L 110.827354 133.144615 
L 110.92263 133.248462 
L 110.863404 133.040769 
L 110.93808 133.144615 
L 110.95868 133.075385 
L 110.97928 133.11 
L 111.074556 132.902308 
L 111.087431 133.006154 
L 111.123481 132.798462 
L 111.182707 132.867692 
L 111.208457 132.798462 
L 111.216182 132.833077 
L 111.321758 132.66 
L 111.411884 132.486923 
L 111.326908 132.729231 
L 111.437634 132.521538 
L 111.440209 132.590769 
L 111.517459 132.383077 
L 111.54321 132.417692 
L 111.54836 132.486923 
L 111.659086 132.279231 
L 111.782687 132.106154 
L 111.792987 132.140769 
L 111.831612 131.967692 
L 111.885687 132.036923 
L 111.924313 131.829231 
L 112.006713 131.898462 
L 112.050489 131.794615 
L 112.114864 131.586923 
L 112.15864 131.829231 
L 112.171515 131.794615 
L 112.282241 131.552308 
L 112.287391 131.586923 
L 112.403267 131.344615 
L 112.405842 131.379231 
L 112.475367 131.413846 
L 112.444467 131.275385 
L 112.506268 131.275385 
L 112.619569 131.136923 
L 112.622144 131.171538 
L 112.653044 131.206154 
L 112.689094 131.033077 
L 112.719994 131.067692 
L 112.83587 130.825385 
L 112.838445 130.86 
L 112.936296 130.756154 
L 112.941446 130.790769 
L 113.062472 130.513846 
L 113.083072 130.583077 
L 113.157748 130.340769 
L 113.160323 130.41 
L 113.278774 130.098462 
L 113.186073 130.444615 
L 113.281349 130.133077 
L 113.337999 130.029231 
L 113.350875 130.063846 
L 113.4616 129.856154 
L 113.528551 129.925385 
L 113.564601 129.786923 
L 113.569751 129.821538 
L 113.683052 129.51 
L 113.585201 129.856154 
L 113.695927 129.613846 
L 113.726828 129.579231 
L 113.840129 129.198462 
L 113.842704 129.233077 
L 113.868454 129.371538 
L 113.919954 129.198462 
L 113.950854 129.198462 
L 114.002355 129.094615 
L 114.007505 129.129231 
L 114.131106 128.817692 
L 114.133681 128.886923 
L 114.226382 128.644615 
L 114.236682 128.679231 
L 114.244407 128.713846 
L 114.355133 128.575385 
L 114.360283 128.61 
L 114.434958 128.367692 
L 114.458134 128.471538 
L 114.478734 128.471538 
L 114.581735 128.16 
L 114.592035 128.298462 
L 114.713061 128.021538 
L 114.715636 128.056154 
L 114.795461 127.813846 
L 114.808336 127.813846 
L 114.821212 127.848462 
L 114.931937 127.606154 
L 114.944813 127.640769 
L 115.014338 127.398462 
L 115.027213 127.433077 
L 115.045238 127.467692 
L 115.161114 127.086923 
L 115.168839 127.156154 
L 115.253815 126.913846 
L 115.258965 126.948462 
L 115.379991 126.706154 
L 115.302741 127.052308 
L 115.382566 126.775385 
L 115.413466 126.706154 
L 115.498442 126.498462 
L 115.439217 126.740769 
L 115.526767 126.567692 
L 115.562818 126.602308 
L 115.614318 126.36 
L 115.622043 126.36 
L 115.658093 126.394615 
L 115.750794 126.083077 
L 115.758519 126.186923 
L 115.797145 125.944615 
L 115.85637 125.944615 
L 115.86667 126.083077 
L 115.907871 125.806154 
L 115.961946 125.875385 
L 116.023746 125.944615 
L 116.126747 126.117692 
L 116.072672 125.91 
L 116.137047 126.048462 
L 116.185973 125.944615 
L 116.319874 125.529231 
L 116.322449 125.598462 
L 116.325024 125.633077 
L 116.391974 125.390769 
L 116.422875 125.46 
L 116.484675 125.183077 
L 116.543901 125.321538 
L 116.587676 125.252308 
L 116.698402 124.975385 
L 116.646902 125.321538 
L 116.706127 125.044615 
L 116.868353 124.352308 
L 116.912129 124.386923 
L 116.961054 124.11 
L 116.963629 124.144615 
L 116.973929 124.213846 
L 116.976504 124.283077 
L 117.069205 123.867692 
L 117.07178 123.902308 
L 117.172206 123.452308 
L 117.100105 123.936923 
L 117.192806 123.486923 
L 117.221131 123.417692 
L 117.352457 122.863846 
L 117.355032 122.898462 
L 117.440008 122.586923 
L 117.442583 122.586923 
L 117.460608 122.483077 
L 117.63056 121.513846 
L 117.638285 121.583077 
L 117.66146 121.617692 
L 117.694935 121.271538 
L 117.725835 121.306154 
L 117.929262 119.990769 
L 117.931837 120.06 
L 118.014238 119.402308 
L 118.081188 114.106154 
L 118.109514 14.76 
L 118.186764 120.856154 
L 118.29234 132.175385 
L 118.31809 132.071538 
L 118.436541 132.175385 
L 118.441691 132.106154 
L 118.557567 132.313846 
L 118.670868 132.106154 
L 118.676018 132.175385 
L 118.696618 132.21 
L 118.766144 131.967692 
L 118.771294 132.002308 
L 118.91807 131.517692 
L 118.94382 131.413846 
L 119.108622 130.686923 
L 119.111197 130.721538 
L 119.175572 130.340769 
L 119.193597 130.340769 
L 119.384149 129.267692 
L 119.420199 129.198462 
L 119.551525 128.436923 
L 119.556675 128.471538 
L 119.574701 128.402308 
L 119.695727 127.883077 
L 119.713752 127.952308 
L 119.780702 127.571538 
L 119.783277 127.606154 
L 119.922328 126.740769 
L 119.924903 126.775385 
L 119.935204 126.706154 
L 120.074255 125.944615 
L 120.09228 125.840769 
L 120.269956 124.906154 
L 120.272531 124.975385 
L 120.354932 124.421538 
L 120.360082 124.421538 
L 120.553209 123.313846 
L 120.566084 123.21 
L 120.800411 121.548462 
L 120.802986 121.583077 
L 120.859636 120.890769 
L 121.078513 114.140769 
L 121.106838 16.594615 
L 121.186664 116.91 
L 121.315415 130.202308 
L 121.31799 130.167692 
L 121.439016 130.756154 
L 121.446741 130.652308 
L 121.567767 130.86 
L 121.570342 130.825385 
L 121.673343 130.686923 
L 121.575492 130.86 
L 121.688793 130.721538 
L 121.722268 130.686923 
L 121.840719 130.236923 
L 121.853594 130.306154 
L 121.92312 129.890769 
L 121.93857 129.925385 
L 122.103371 129.163846 
L 122.105946 129.267692 
L 122.203797 128.748462 
L 122.368599 128.021538 
L 122.373749 128.056154 
L 122.448424 127.640769 
L 122.453574 127.675385 
L 122.461299 127.571538 
L 122.466449 127.606154 
L 122.633826 126.740769 
L 122.636401 126.775385 
L 122.708501 126.290769 
L 122.914503 124.940769 
L 122.917078 124.975385 
L 122.932528 124.871538 
L 123.130805 123.694615 
L 123.161705 123.625385 
L 123.293031 122.690769 
L 123.300756 122.76 
L 123.378007 122.171538 
L 123.383157 122.206154 
L 123.545383 120.786923 
L 123.558258 120.717692 
L 123.79001 112.236923 
L 123.82091 18.36 
L 123.898161 115.871538 
L 124.021762 128.817692 
L 124.029487 128.783077 
L 124.037212 128.886923 
L 124.160813 129.267692 
L 124.315315 129.233077 
L 124.433766 128.921538 
L 124.487841 128.817692 
L 124.665517 127.848462 
L 124.670667 127.952308 
L 124.750493 127.398462 
L 124.760793 127.467692 
L 124.902419 126.636923 
L 125.113571 125.252308 
L 125.116146 125.286923 
L 125.183097 124.733077 
L 125.383948 123.417692 
L 125.386523 123.452308 
L 125.389098 123.486923 
L 125.461199 123.071538 
L 125.468924 123.140769 
L 125.618275 122.102308 
L 125.628575 121.998462 
L 125.759901 120.96 
L 125.762476 121.029231 
L 126.012253 118.952308 
L 126.025129 118.986923 
L 126.027704 119.021538 
L 126.099804 118.536923 
L 126.102379 118.536923 
L 126.254305 108.463846 
L 126.285206 19.675385 
L 126.362456 113.379231 
L 126.486057 127.398462 
L 126.493782 127.363846 
L 126.516958 127.329231 
L 126.573608 127.571538 
L 126.591633 127.502308 
L 126.702359 127.71 
L 126.715234 127.675385 
L 126.77446 127.744615 
L 126.833685 127.536923 
L 126.83626 127.640769 
L 126.923811 127.294615 
L 126.939261 127.329231 
L 126.954711 127.225385 
L 127.114363 126.567692 
L 127.119513 126.602308 
L 127.196763 126.256154 
L 127.199338 126.256154 
L 127.38989 125.148462 
L 127.392465 125.217692 
L 127.46714 124.663846 
L 127.482591 124.663846 
L 127.722068 122.933077 
L 127.734943 122.829231 
L 127.899744 121.375385 
L 128.157246 119.402308 
L 128.167546 119.298462 
L 128.337498 117.671538 
L 128.342648 117.602308 
L 128.350373 117.636923 
L 128.507449 110.402308 
L 128.540924 21.371538 
L 128.6156 110.921538 
L 128.713451 126.636923 
L 128.746926 126.567692 
L 128.752076 126.498462 
L 128.834477 126.81 
L 128.847352 126.775385 
L 128.960653 126.948462 
L 129.084254 126.567692 
L 129.110004 126.602308 
L 129.166654 126.325385 
L 129.176954 126.36 
L 129.313431 125.667692 
L 129.506557 124.525385 
L 129.509132 124.56 
L 129.570933 123.971538 
L 129.581233 124.040769 
L 129.730584 123.002308 
L 129.993236 120.96 
L 130.006111 120.856154 
L 130.45674 116.252308 
L 130.46189 116.286923 
L 130.50824 115.490769 
L 130.629266 110.056154 
L 130.665317 22.86 
L 130.739992 109.017692 
L 130.863593 125.148462 
L 130.873893 125.113846 
L 130.879043 125.079231 
L 131.018095 125.598462 
L 131.12367 125.46 
L 131.133971 125.529231 
L 131.136546 125.563846 
L 131.208646 125.183077 
L 131.216371 125.183077 
L 131.224096 125.217692 
L 131.406923 124.11 
L 131.430098 124.075385 
L 131.561424 123.140769 
L 131.563999 123.21 
L 131.65155 122.586923 
L 131.66185 122.621538 
L 131.7288 122.136923 
L 131.731375 122.171538 
L 131.952827 120.579231 
L 131.955402 120.683077 
L 132.035228 119.921538 
L 132.045528 119.956154 
L 132.220629 118.190769 
L 132.23093 118.086923 
L 132.421481 115.836923 
L 132.424056 115.871538 
L 132.563107 112.548462 
L 132.581132 87.348462 
L 132.606883 24.140769 
L 132.684133 110.090769 
L 132.812884 123.590769 
L 132.815459 123.556154 
L 132.84636 123.66 
L 132.86696 123.556154 
L 132.975111 123.936923 
L 133.000861 123.971538 
L 133.090987 123.763846 
L 133.119312 123.66 
L 133.232613 123.417692 
L 133.124462 123.729231 
L 133.242913 123.452308 
L 133.258363 123.486923 
L 133.299563 123.244615 
L 133.338189 123.244615 
L 133.484965 122.275385 
L 133.50814 122.171538 
L 133.763067 120.233077 
L 133.770792 120.267692 
L 133.832593 119.679231 
L 133.850618 119.575385 
L 134.180221 116.563846 
L 134.182796 116.598462 
L 134.190521 116.529231 
L 134.404247 103.929231 
L 134.440298 25.629231 
L 134.512398 105.486923 
L 134.643724 122.725385 
L 134.646299 122.690769 
L 134.684925 122.794615 
L 134.803376 122.967692 
L 134.805951 122.933077 
L 134.926977 122.656154 
L 134.929552 122.690769 
L 135.004227 122.344615 
L 135.009377 122.379231 
L 135.138128 121.583077 
L 135.140703 121.652308 
L 135.223104 120.994615 
L 135.225679 120.994615 
L 135.259154 120.96 
L 135.395631 119.921538 
L 135.408506 119.956154 
L 135.467731 119.471538 
L 135.470306 119.471538 
L 135.637682 117.948462 
L 135.647983 117.879231 
L 135.807634 116.46 
L 135.810209 116.494615 
L 135.823084 116.390769 
L 136.029086 113.725385 
L 136.031661 113.76 
L 136.129512 111.094615 
L 136.144962 97.213846 
L 136.178437 26.944615 
L 136.250538 104.033077 
L 136.368989 121.513846 
L 136.384439 121.41 
L 136.402464 121.306154 
L 136.441089 121.548462 
L 136.487439 121.513846 
L 136.59044 121.652308 
L 136.567265 121.444615 
L 136.603315 121.583077 
L 136.629066 121.721538 
L 136.744942 121.098462 
L 136.752667 121.306154 
L 136.827342 120.821538 
L 136.847942 120.890769 
L 136.876268 120.786923 
L 137.126045 118.917692 
L 137.141495 118.813846 
L 137.465948 115.906154 
L 137.468523 115.975385 
L 137.543198 115.11 
L 137.700274 113.206154 
L 137.702849 113.240769 
L 137.75435 112.444615 
L 137.839326 110.056154 
L 137.857351 92.402308 
L 137.890826 28.571538 
L 137.960352 101.61 
L 138.094253 120.094615 
L 138.184378 119.886923 
L 138.212704 119.990769 
L 138.243604 119.886923 
L 138.346605 119.783077 
L 138.274504 119.956154 
L 138.35433 119.886923 
L 138.392955 119.852308 
L 138.40068 119.886923 
L 138.513981 119.436923 
L 138.560331 119.333077 
L 138.789508 117.740769 
L 138.820409 117.636923 
L 138.987785 116.113846 
L 138.99551 116.01 
L 139.183487 113.898462 
L 139.204087 113.794615 
L 139.459014 109.917692 
L 139.464164 109.813846 
L 139.518239 107.633077 
L 139.53884 89.183077 
L 139.572315 30.233077 
L 139.64184 100.848462 
L 139.770591 118.883077 
L 139.775741 118.848462 
L 139.804067 118.917692 
L 139.925093 119.263846 
L 139.958568 119.333077 
L 140.056419 118.986923 
L 140.071869 119.056154 
L 140.156845 118.71 
L 140.19032 118.606154 
L 140.337096 117.636923 
L 140.360271 117.533077 
L 140.517348 116.252308 
L 140.530223 116.183077 
L 140.700174 114.486923 
L 140.702749 114.556154 
L 140.77485 113.621538 
L 140.777425 113.621538 
L 141.063252 103.271538 
L 141.107027 31.444615 
L 141.176553 98.044615 
L 141.310454 117.498462 
L 141.313029 117.463846 
L 141.38513 117.567692 
L 141.434055 117.706154 
L 141.392855 117.533077 
L 141.503581 117.671538 
L 141.534481 117.740769 
L 141.632332 117.394615 
L 141.634907 117.463846 
L 141.725032 117.152308 
L 141.732758 117.186923 
L 141.900134 116.425385 
L 141.913009 116.356154 
L 142.044335 115.490769 
L 142.054635 115.421538 
L 142.214286 114.106154 
L 142.752466 105.556154 
L 142.788516 59.863846 
L 142.809116 32.76 
L 142.881217 99.048462 
L 143.017693 117.186923 
L 143.020268 117.152308 
L 143.035718 117.221538 
L 143.112969 116.979231 
L 143.118119 116.979231 
L 143.259745 116.875385 
L 143.414246 116.252308 
L 143.424546 116.356154 
L 143.499222 115.906154 
L 144.150702 105.936923 
L 144.191903 48.233077 
L 144.207353 33.417692 
L 144.276878 95.344615 
L 144.41078 115.906154 
L 144.413355 115.836923 
L 144.542106 116.321538 
L 144.552406 116.217692 
L 144.627081 116.563846 
L 144.637381 116.46 
L 144.691457 116.529231 
L 144.730082 116.286923 
L 144.742957 116.356154 
L 144.876858 115.594615 
L 144.879433 115.629231 
L 144.894883 115.525385 
L 145.183286 113.067692 
L 145.185861 113.136923 
L 145.260537 112.236923 
L 145.263112 112.236923 
L 145.440788 109.536923 
L 145.554089 104.517692 
L 145.610739 34.975385 
L 145.67769 93.544615 
L 145.814166 115.006154 
L 145.935192 114.729231 
L 145.989267 114.971538 
L 146.043343 114.729231 
L 146.107718 114.556154 
L 146.087118 114.763846 
L 146.159219 114.590769 
L 146.197844 114.694615 
L 146.259645 114.383077 
L 146.26222 114.417692 
L 146.416721 113.206154 
L 146.421871 113.102308 
L 146.962625 104.413846 
L 146.998676 78.936923 
L 147.032151 37.294615 
L 147.096527 91.536923 
L 147.235578 113.344615 
L 147.240728 113.379231 
L 147.266478 113.171538 
L 147.336004 113.240769 
L 147.343729 113.136923 
L 147.413254 113.344615 
L 147.441579 113.31 
L 147.46218 113.379231 
L 147.536855 112.963846 
L 147.53943 113.033077 
L 147.696507 112.375385 
L 147.704232 112.444615 
L 147.784057 112.063846 
L 147.802082 111.96 
L 148.15486 108.533077 
L 147.807232 112.029231 
L 148.16001 108.602308 
L 148.162585 108.636923 
L 148.201211 107.806154 
L 148.208936 107.806154 
L 148.420087 103.479231 
L 148.443263 96.452308 
L 148.505063 39.717692 
L 148.566864 88.11 
L 148.70849 111.648462 
L 148.711065 111.613846 
L 148.76514 111.925385 
L 148.798616 111.925385 
L 148.842391 112.098462 
L 148.852691 111.890769 
L 148.911916 111.96 
L 148.981442 111.786923 
L 148.935092 112.029231 
L 149.027792 111.856154 
L 149.063843 111.96 
L 149.115343 111.717692 
L 149.130793 111.786923 
L 149.151393 111.890769 
L 149.34452 110.367692 
L 149.347095 110.402308 
L 149.414046 109.848462 
L 149.421771 109.917692 
L 149.424346 109.917692 
L 149.563397 108.36 
L 149.573697 108.290769 
L 149.877549 97.283077 
L 149.9445 40.41 
L 150.0063 86.102308 
L 150.147927 110.956154 
L 150.194277 110.886923 
L 150.245777 111.094615 
L 150.253502 111.094615 
L 150.297278 111.198462 
L 150.299853 111.233077 
L 150.377104 110.886923 
L 150.387404 110.921538 
L 150.438904 110.817692 
L 150.474954 111.025385 
L 150.490404 110.990769 
L 150.526455 111.025385 
L 150.572805 110.644615 
L 150.57538 110.644615 
L 150.603705 110.540769 
L 150.889533 108.186923 
L 150.892108 108.221538 
L 150.966783 107.771538 
L 151.466337 99.567692 
L 151.517838 77.829231 
L 151.559038 42.729231 
L 151.618264 84.371538 
L 151.757315 109.26 
L 151.76504 109.225385 
L 151.77019 109.294615 
L 151.842291 109.086923 
L 151.870616 109.190769 
L 151.909241 109.121538 
L 151.937566 109.467692 
L 151.958166 109.467692 
L 152.014817 109.536923 
L 152.058592 109.363846 
L 152.061167 109.398462 
L 152.184768 108.983077 
L 152.074042 109.502308 
L 152.195068 109.052308 
L 152.200218 109.121538 
L 152.264594 108.533077 
L 152.439695 107.667692 
L 152.449996 107.633077 
L 152.591622 106.352308 
L 153.039675 98.944615 
L 153.086026 84.994615 
L 153.142676 45.879231 
L 153.199327 82.017692 
L 153.346103 108.221538 
L 153.467129 107.840769 
L 153.358978 108.290769 
L 153.480004 107.875385 
L 153.54953 108.013846 
L 153.518629 107.806154 
L 153.59073 107.875385 
L 153.63708 107.979231 
L 153.675706 108.048462 
L 153.704031 107.840769 
L 153.747806 108.013846 
L 153.892007 107.529231 
L 153.920333 107.633077 
L 153.987283 107.183077 
L 153.989858 107.183077 
L 153.995008 107.113846 
L 154.152085 105.729231 
L 154.15466 105.763846 
L 154.172685 105.729231 
L 154.301436 104.690769 
L 154.306586 104.725385 
L 154.311736 104.76 
L 154.358086 103.998462 
L 154.360661 103.998462 
L 154.690264 92.471538 
L 154.782965 47.713846 
L 154.834465 79.594615 
L 154.983816 107.044615 
L 155.112567 107.425385 
L 155.117717 107.356154 
L 155.169218 107.46 
L 155.182093 107.529231 
L 155.220718 107.321538 
L 155.272219 107.356154 
L 155.285094 107.252308 
L 155.303119 107.321538 
L 155.42157 106.56 
L 155.429295 106.490769 
L 155.555471 106.040769 
L 155.578646 106.075385 
L 155.635297 105.694615 
L 155.774348 104.863846 
L 155.776923 104.898462 
L 155.820698 104.413846 
L 155.851598 104.448462 
L 156.523679 93.96 
L 156.61638 80.494615 
L 156.685905 56.021538 
L 156.737406 76.617692 
L 156.889332 101.817692 
L 156.943407 101.956154 
L 156.984608 101.644615 
L 156.987183 101.644615 
L 157.054133 101.575385 
L 157.056708 101.506154 
L 157.128809 101.921538 
L 157.154559 101.852308 
L 157.190609 102.025385 
L 157.234385 101.748462 
L 157.265285 101.852308 
L 157.280735 101.748462 
L 157.360561 102.025385 
L 157.370861 101.990769 
L 157.381161 102.094615 
L 157.404336 101.886923 
L 157.479012 102.025385 
L 157.589738 101.852308 
L 157.494462 102.129231 
L 157.594888 101.886923 
L 157.664413 101.817692 
L 157.790589 101.021538 
L 157.800889 101.090769 
L 157.865265 101.298462 
L 157.813765 101.021538 
L 157.911615 101.125385 
L 158.212893 98.563846 
L 158.215468 98.633077 
L 158.295294 97.802308 
L 158.297869 97.802308 
L 158.42662 96.833077 
L 158.434345 96.729231 
L 158.624896 94.513846 
L 158.627471 94.583077 
L 158.684122 93.267692 
L 158.689272 93.267692 
L 158.848923 91.294615 
L 158.969949 90.36 
L 159.011149 90.602308 
L 159.0575 90.775385 
L 159.096125 90.36 
L 159.106425 90.429231 
L 159.116725 90.36 
L 159.201701 90.844615 
L 159.217151 90.913846 
L 159.363927 91.952308 
L 159.387102 91.917692 
L 159.446328 92.333077 
L 159.454053 92.436923 
L 159.482378 92.367692 
L 159.608554 93.06 
L 159.611129 93.025385 
L 159.67808 93.51 
L 159.685805 93.475385 
L 159.796531 93.752308 
L 159.809406 93.683077 
L 159.824856 93.786923 
L 159.940732 93.406154 
L 159.943307 93.440769 
L 159.987082 93.129231 
L 160.033433 93.163846 
L 160.072058 93.129231 
L 160.095233 93.371538 
L 160.133859 93.267692 
L 160.198234 93.371538 
L 160.223984 93.025385 
L 160.226559 93.025385 
L 160.260035 93.129231 
L 160.26261 93.163846 
L 160.33986 92.886923 
L 160.365611 93.094615 
L 160.435136 92.886923 
L 160.391361 93.163846 
L 160.476336 93.025385 
L 160.579337 93.336923 
L 160.486637 92.956154 
L 160.597362 93.198462 
L 160.728688 92.471538 
L 160.607663 93.233077 
L 160.754439 92.575385 
L 160.767314 92.471538 
L 160.782764 92.402308 
L 160.847139 92.783077 
L 160.860015 92.713846 
L 160.880615 92.61 
L 160.88834 92.540769 
L 160.947565 93.06 
L 160.957865 93.025385 
L 161.029966 93.233077 
L 161.060866 92.990769 
L 161.066016 92.990769 
L 161.076316 92.886923 
L 161.338969 90.671538 
L 161.344119 90.740769 
L 161.346694 90.775385 
L 161.423944 90.429231 
L 161.429094 90.429231 
L 161.511495 90.533077 
L 161.55012 90.290769 
L 161.604196 90.256154 
L 161.720072 89.840769 
L 161.722647 89.91 
L 161.846248 89.806154 
L 161.941523 89.667692 
L 161.853973 89.875385 
L 161.959549 89.771538 
L 162.067699 90.844615 
L 162.126925 90.567692 
L 162.18615 90.463846 
L 162.201601 90.706154 
L 162.235076 90.567692 
L 162.260826 90.636923 
L 162.322627 90.36 
L 162.327777 90.36 
L 162.350952 90.256154 
L 162.420477 90.567692 
L 162.428202 90.567692 
L 162.456528 90.463846 
L 162.569829 91.398462 
L 162.74493 92.471538 
L 162.752655 92.436923 
L 162.858231 91.917692 
L 162.878831 92.021538 
L 162.891706 92.125385 
L 162.914881 92.056154 
L 163.053933 92.817692 
L 163.056508 92.783077 
L 163.118308 93.440769 
L 163.244484 94.063846 
L 163.429886 95.067692 
L 163.455636 95.136923 
L 163.581812 94.479231 
L 163.584387 94.513846 
L 163.664213 94.133077 
L 163.666788 94.133077 
L 163.682238 94.098462 
L 163.805839 93.094615 
L 163.816139 93.163846 
L 163.829014 93.198462 
L 163.890814 92.679231 
L 163.952615 92.367692 
L 164.009265 92.540769 
L 164.014415 92.61 
L 164.104541 92.229231 
L 164.114841 92.436923 
L 164.122566 92.333077 
L 164.163767 92.679231 
L 164.225567 92.367692 
L 164.233292 92.471538 
L 164.328568 92.090769 
L 164.418694 92.194615 
L 164.457319 91.813846 
L 164.459894 91.848462 
L 164.521695 91.26 
L 164.52427 91.294615 
L 164.637571 90.740769 
L 164.647871 90.775385 
L 164.840997 89.217692 
L 164.660746 90.81 
L 164.866747 89.321538 
L 164.871898 89.390769 
L 164.936273 88.906154 
L 164.949148 88.940769 
L 164.959448 88.871538 
L 164.964598 88.906154 
L 165.098499 88.11 
L 165.157725 87.902308 
L 165.103649 88.144615 
L 165.2118 88.040769 
L 165.348276 88.663846 
L 165.219525 87.971538 
L 165.361152 88.56 
L 165.515653 87.383077 
L 165.541403 87.521538 
L 165.598053 87.002308 
L 165.667579 86.033077 
L 165.719079 86.690769 
L 166.025507 89.425385 
L 166.028082 89.356154 
L 166.048682 89.46 
L 166.167133 90.048462 
L 166.172283 90.013846 
L 166.270134 90.325385 
L 166.185158 89.979231 
L 166.288159 90.117692 
L 166.308759 90.048462 
L 166.373135 90.636923 
L 166.38086 90.602308 
L 166.393735 90.81 
L 166.476136 90.498462 
L 166.481286 90.498462 
L 166.527636 90.256154 
L 166.573986 90.533077 
L 166.592012 90.463846 
L 166.622912 90.602308 
L 166.664112 90.325385 
L 166.705313 90.533077 
L 166.713038 90.463846 
L 166.846939 90.983077 
L 166.870114 90.844615 
L 166.94994 91.086923 
L 166.988565 90.983077 
L 167.088991 91.467692 
L 167.145641 91.329231 
L 167.184266 91.744615 
L 167.189417 91.71 
L 167.207442 91.640769 
L 167.210017 91.571538 
L 167.279542 92.263846 
L 167.297567 92.16 
L 167.328468 92.194615 
L 167.369668 91.779231 
L 167.379968 91.779231 
L 167.441769 91.536923 
L 167.397993 91.813846 
L 167.488119 91.744615 
L 167.624595 92.436923 
L 167.634895 92.540769 
L 167.758496 93.579231 
L 167.815147 93.51 
L 167.853772 93.475385 
L 167.892397 93.752308 
L 167.910422 93.648462 
L 167.912997 93.717692 
L 168.000548 93.233077 
L 168.010848 93.406154 
L 168.028873 93.302308 
L 168.209125 91.433077 
L 168.229725 91.571538 
L 168.286376 90.983077 
L 168.306976 90.948462 
L 168.446027 89.667692 
L 168.448602 89.702308 
L 168.461477 89.598462 
L 168.546453 88.663846 
L 168.628853 88.802308 
L 168.698379 89.183077 
L 168.762754 89.148462 
L 168.80653 88.767692 
L 168.85288 89.390769 
L 169.025407 90.429231 
L 169.030557 90.290769 
L 169.094932 90.256154 
L 169.221108 89.356154 
L 169.130982 90.325385 
L 169.226258 89.390769 
L 169.465735 87.21 
L 169.491485 87.313846 
L 169.501786 87.417692 
L 169.550711 87.348462 
L 169.617661 87.66 
L 169.656287 87.556154 
L 169.661437 87.521538 
L 169.736112 87.729231 
L 169.754138 87.729231 
L 169.761863 87.833077 
L 169.777313 87.763846 
L 169.967864 89.113846 
L 169.970439 89.079231 
L 170.029665 89.598462 
L 170.06829 89.252308 
L 170.137816 89.183077 
L 170.209916 88.767692 
L 170.253692 89.01 
L 170.294892 89.079231 
L 170.328367 88.594615 
L 170.341242 88.733077 
L 170.449393 88.248462 
L 170.475144 88.421538 
L 170.518919 88.317692 
L 170.61677 87.21 
L 170.69917 87.383077 
L 170.701745 87.383077 
L 170.815046 87.002308 
L 170.817621 87.036923 
L 170.869122 86.448462 
L 170.930922 86.933077 
L 171.005598 87.002308 
L 171.121474 87.244615 
L 171.046798 86.76 
L 171.124049 87.21 
L 171.131774 87.140769 
L 171.2116 87.556154 
L 171.2219 87.486923 
L 171.345501 88.040769 
L 171.24765 87.452308 
L 171.368676 87.971538 
L 171.384126 87.902308 
L 171.448502 88.386923 
L 171.466527 88.248462 
L 171.489702 88.317692 
L 171.554077 88.075385 
L 171.564377 88.11 
L 171.584978 87.798462 
L 171.654503 88.386923 
L 171.667378 88.317692 
L 171.690553 88.213846 
L 171.772954 88.040769 
L 171.698279 88.317692 
L 171.798704 88.213846 
L 171.906855 88.283077 
L 171.834755 88.075385 
L 171.90943 88.248462 
L 172.033031 87.417692 
L 172.079382 87.452308 
L 172.081957 87.521538 
L 172.166932 86.829231 
L 172.282808 87.106154 
L 172.290533 87.002308 
L 172.308559 86.898462 
L 172.365209 86.656154 
L 172.421859 86.829231 
L 172.496535 86.621538 
L 172.439885 86.898462 
L 172.53001 86.863846 
L 172.54031 86.933077 
L 172.653611 87.106154 
L 172.656186 87.071538 
L 172.733437 87.556154 
L 172.787513 87.383077 
L 172.790088 87.348462 
L 172.844163 88.040769 
L 172.846738 88.040769 
L 172.921414 88.56 
L 172.972914 88.248462 
L 172.988364 88.283077 
L 173.096515 88.836923 
L 173.10939 88.767692 
L 173.111965 88.733077 
L 173.171191 89.217692 
L 173.186641 89.217692 
L 173.238141 89.529231 
L 173.317967 89.494615 
L 173.392642 89.183077 
L 173.338567 89.563846 
L 173.428693 89.494615 
L 173.446718 89.563846 
L 173.547144 89.875385 
L 173.562594 89.702308 
L 173.570319 89.563846 
L 173.66302 89.840769 
L 173.665595 89.771538 
L 173.66817 89.875385 
L 173.72997 89.494615 
L 173.771171 89.633077 
L 173.789196 89.771538 
L 173.902497 89.321538 
L 173.905072 89.356154 
L 173.974597 88.802308 
L 173.977172 88.871538 
L 174.000347 88.594615 
L 174.090473 88.767692 
L 174.098198 88.906154 
L 174.185749 88.421538 
L 174.190899 88.421538 
L 174.196049 88.386923 
L 174.27845 88.698462 
L 174.281025 88.698462 
L 174.317075 88.871538 
L 174.378876 88.525385 
L 174.479301 88.040769 
L 174.499902 88.213846 
L 174.530802 88.144615 
L 174.602902 87.452308 
L 174.662128 87.556154 
L 174.713628 87.452308 
L 174.837229 87.140769 
L 174.754829 87.556154 
L 174.839804 87.244615 
L 174.865555 87.313846 
L 174.968555 87.486923 
L 174.89388 87.21 
L 174.978855 87.417692 
L 174.984006 87.452308 
L 175.141082 86.033077 
L 175.249233 86.933077 
L 175.146232 85.998462 
L 175.305883 86.76 
L 175.313608 86.829231 
L 175.318758 86.76 
L 175.460384 87.798462 
L 175.620036 88.663846 
L 175.627761 88.56 
L 175.663811 88.663846 
L 175.668961 88.629231 
L 175.795137 88.975385 
L 175.797712 88.940769 
L 175.856938 89.494615 
L 175.864663 89.46 
L 175.887838 89.771538 
L 175.975389 89.563846 
L 176.032039 89.702308 
L 176.091265 89.425385 
L 176.122165 89.390769 
L 176.248341 88.629231 
L 176.250916 88.663846 
L 176.333317 88.56 
L 176.304991 88.767692 
L 176.353917 88.733077 
L 176.366792 88.906154 
L 176.438892 88.386923 
L 176.552193 87.833077 
L 176.462068 88.56 
L 176.577944 87.971538 
L 176.701545 88.490769 
L 176.706695 88.456154 
L 176.722145 88.352308 
L 176.727295 88.317692 
L 176.799395 88.767692 
L 176.804545 88.733077 
L 176.861196 89.01 
L 176.902396 88.629231 
L 177.046597 87.694615 
L 177.049172 87.763846 
L 177.126423 86.898462 
L 177.128998 86.898462 
L 177.242299 86.552308 
L 177.244874 86.621538 
L 177.316975 86.344615 
L 177.262899 86.690769 
L 177.36075 86.413846 
L 177.461176 87.140769 
L 177.504951 86.863846 
L 177.571902 86.517692 
L 177.530701 86.933077 
L 177.618252 86.690769 
L 177.636277 86.76 
L 177.785629 87.867692 
L 177.821679 87.902308 
L 177.927255 87.383077 
L 177.98648 87.694615 
L 178.032831 87.383077 
L 178.177032 85.963846 
L 178.197632 85.86 
L 178.295483 84.96 
L 178.326383 85.133077 
L 178.344408 85.202308 
L 178.421659 84.96 
L 178.424234 84.96 
L 178.52981 84.821538 
L 178.53496 84.96 
L 178.728086 86.136923 
L 178.838812 85.790769 
L 178.843962 85.86 
L 178.926363 85.929231 
L 179.065414 86.725385 
L 179.086014 86.656154 
L 179.106614 86.863846 
L 179.17614 86.725385 
L 179.281716 87.071538 
L 179.297166 86.863846 
L 179.310041 86.933077 
L 179.436217 87.556154 
L 179.441367 87.486923 
L 179.554668 87.002308 
L 179.459392 87.521538 
L 179.564968 87.106154 
L 179.701444 87.833077 
L 179.778695 87.556154 
L 179.732345 88.006154 
L 179.814745 87.729231 
L 179.81732 87.798462 
L 179.891996 87.279231 
L 179.907446 87.279231 
L 179.930621 87.21 
L 180.000147 86.483077 
L 180.049072 86.621538 
L 180.067097 86.794615 
L 180.134048 85.929231 
L 180.139198 85.963846 
L 180.198423 85.444615 
L 180.211298 85.479231 
L 180.260224 85.513846 
L 180.332324 85.098462 
L 180.373525 85.271538 
L 180.507426 84.925385 
L 180.618152 85.617692 
L 180.651627 85.375385 
L 180.775228 84.994615 
L 180.852479 84.890769 
L 180.901404 85.202308 
L 180.96578 84.821538 
L 180.98638 84.925385 
L 180.988955 84.96 
L 181.05848 84.440769 
L 181.089381 84.025385 
L 181.171781 84.302308 
L 181.189806 84.406154 
L 181.254182 84.579231 
L 181.287657 84.267692 
L 181.292807 84.302308 
L 181.331433 84.025385 
L 181.380358 84.406154 
L 181.403533 84.267692 
L 181.506534 84.890769 
L 181.540009 84.613846 
L 181.573485 84.302308 
L 181.630135 84.717692 
L 181.64301 84.683077 
L 181.64816 84.717692 
L 181.720261 84.233077 
L 181.722836 84.267692 
L 181.823262 83.886923 
L 181.743436 84.371538 
L 181.846437 84.025385 
L 181.993213 84.994615 
L 182.029263 85.098462 
L 182.18634 86.586923 
L 182.194065 86.552308 
L 182.20694 86.344615 
L 182.294491 86.690769 
L 182.297066 86.656154 
L 182.309941 86.725385 
L 182.438692 87.313846 
L 182.441267 87.279231 
L 182.585468 88.283077 
L 182.616368 88.179231 
L 182.631818 88.040769 
L 182.647268 88.213846 
L 182.727094 88.144615 
L 182.819795 88.386923 
L 182.845545 88.317692 
L 182.933096 87.902308 
L 182.966571 88.040769 
L 182.976871 87.936923 
L 183.105622 87.452308 
L 183.180298 87.486923 
L 183.221498 87.729231 
L 183.291024 87.590769 
L 183.370849 86.933077 
L 183.301324 87.625385 
L 183.4172 87.140769 
L 183.430075 87.036923 
L 183.563976 86.171538 
L 183.455825 87.106154 
L 183.569126 86.240769 
L 183.574276 86.275385 
L 183.638652 85.929231 
L 183.672127 86.206154 
L 183.790578 85.721538 
L 183.700452 86.344615 
L 183.793153 85.756154 
L 183.847228 85.86 
L 183.965679 84.925385 
L 183.973404 84.856154 
L 184.01718 84.544615 
L 184.066105 85.063846 
L 184.07898 84.96 
L 184.158806 85.617692 
L 184.202581 85.306154 
L 184.246357 85.236923 
L 184.254082 85.271538 
L 184.393133 84.267692 
L 184.447208 84.336923 
L 184.503859 88.213846 
L 184.65321 113.344615 
L 185.039463 128.16 
L 185.042038 128.125385 
L 185.085813 128.921538 
L 185.088388 128.921538 
L 185.312415 132.036923 
L 185.31499 132.002308 
L 185.374216 132.694615 
L 185.539017 134.183077 
L 185.551892 134.252308 
L 185.706394 135.463846 
L 185.721844 135.567692 
L 185.93042 136.883077 
L 185.932995 136.848462 
L 185.999946 137.263846 
L 186.010246 137.194615 
L 186.136422 137.921538 
L 186.159597 137.886923 
L 186.211098 138.129231 
L 186.229123 138.129231 
L 186.368174 138.683077 
L 186.378474 138.648462 
L 186.383624 138.613846 
L 186.4583 138.925385 
L 186.4686 138.856154 
L 186.589626 139.306154 
L 186.630826 139.375385 
L 186.751852 139.686923 
L 186.769877 139.617692 
L 186.844553 139.86 
L 186.849703 139.86 
L 186.965579 139.963846 
L 187.086605 140.171538 
L 186.983604 139.929231 
L 187.08918 140.136923 
L 187.197331 140.240769 
L 187.313207 140.379231 
L 187.215356 140.206154 
L 187.315782 140.344615 
L 187.441958 140.413846 
L 187.457408 140.552308 
L 187.462558 140.379231 
L 187.552684 140.413846 
L 187.560409 140.448462 
L 187.665985 140.379231 
L 187.67371 140.413846 
L 187.676285 140.517692 
L 187.67886 140.344615 
L 187.781861 140.379231 
L 188.005887 140.31 
L 188.052238 140.136923 
L 188.116613 140.206154 
L 188.134639 140.240769 
L 188.193864 140.102308 
L 188.222189 140.136923 
L 188.281415 140.067692 
L 188.379266 139.998462 
L 188.327765 140.171538 
L 188.392141 140.033077 
L 188.482266 140.102308 
L 188.438491 139.998462 
L 188.500292 140.067692 
L 188.616167 139.894615 
L 188.629043 140.033077 
L 188.662518 139.86 
L 188.724318 139.929231 
L 188.765519 139.721538 
L 188.837619 139.790769 
L 188.92002 139.825385 
L 188.912295 139.686923 
L 188.943195 139.756154 
L 188.95607 139.825385 
L 189.056496 139.686923 
L 189.164647 139.825385 
L 189.169797 139.721538 
L 189.391249 139.617692 
L 189.424724 139.548462 
L 189.401549 139.652308 
L 189.501975 139.617692 
L 189.620426 139.513846 
L 189.628151 139.583077 
L 189.736302 139.41 
L 189.762052 139.479231 
L 189.831577 139.306154 
L 189.844453 139.340769 
L 189.867628 139.375385 
L 189.921703 139.167692 
L 189.950028 139.271538 
L 190.004104 139.098462 
L 190.065904 139.133077 
L 190.071054 139.236923 
L 190.15088 139.063846 
L 190.174055 139.098462 
L 190.305381 139.063846 
L 190.413532 138.856154 
L 190.418682 138.890769 
L 190.449583 138.821538 
L 190.506233 138.717692 
L 190.477908 138.925385 
L 190.560308 138.786923 
L 190.611809 138.856154 
L 190.673609 138.717692 
L 190.779185 138.821538 
L 190.72511 138.683077 
L 190.784335 138.717692 
L 190.846136 138.648462 
L 190.949137 138.579231 
L 190.882186 138.717692 
L 190.956862 138.648462 
L 191.013512 138.544615 
L 190.964587 138.683077 
L 191.067588 138.648462 
L 191.162863 138.579231 
L 191.232389 138.475385 
L 191.188614 138.648462 
L 191.273589 138.579231 
L 191.301915 138.544615 
L 191.384315 138.336923 
L 191.41264 138.51 
L 191.525941 138.336923 
L 191.531091 138.371538 
L 191.631517 138.440769 
L 191.551692 138.336923 
L 191.641817 138.406154 
L 191.749968 138.336923 
L 191.739668 138.475385 
L 191.752543 138.406154 
L 191.855544 138.302308 
L 191.760268 138.440769 
L 191.865844 138.371538 
L 191.91992 138.440769 
L 191.870994 138.302308 
L 191.973995 138.406154 
L 192.089871 138.163846 
L 192.125921 138.336923 
L 192.200597 138.233077 
L 192.306173 138.129231 
L 192.213472 138.267692 
L 192.316473 138.163846 
L 192.450374 138.094615 
L 192.452949 137.990769 
L 192.455524 138.163846 
L 192.5611 138.06 
L 192.674401 138.198462 
L 192.676976 138.129231 
L 192.934478 138.094615 
L 193.016879 137.921538 
L 192.983403 138.129231 
L 193.047779 137.990769 
L 193.403132 137.956154 
L 193.426307 137.817692 
L 193.416007 137.990769 
L 193.513858 137.921538 
L 193.624584 137.783077 
L 193.629734 137.852308 
L 193.753335 137.748462 
L 193.84861 137.644615 
L 193.773935 137.817692 
L 193.864061 137.713846 
L 193.866636 137.783077 
L 193.938736 137.61 
L 193.972211 137.644615 
L 194.072637 137.679231 
L 194.052037 137.575385 
L 194.080362 137.61 
L 194.234864 137.713846 
L 194.322414 137.748462 
L 194.247739 137.61 
L 194.340439 137.679231 
L 194.409965 137.783077 
L 194.45374 137.644615 
L 194.538716 137.783077 
L 194.564466 137.713846 
L 194.677767 137.61 
L 194.574766 137.783077 
L 194.680342 137.644615 
L 194.788493 137.817692 
L 194.690642 137.61 
L 194.793643 137.748462 
L 194.821968 137.644615 
L 194.837419 137.817692 
L 194.901794 137.783077 
L 195.01252 137.679231 
L 195.06917 137.644615 
L 195.092346 137.817692 
L 195.120671 137.679231 
L 195.231397 137.783077 
L 195.236547 137.748462 
L 195.251997 137.679231 
L 195.329248 137.817692 
L 195.342123 137.817692 
L 195.512074 137.713846 
L 195.625375 137.575385 
L 195.550699 137.748462 
L 195.62795 137.61 
L 195.694901 137.783077 
L 195.645975 137.540769 
L 195.743826 137.679231 
L 195.846827 137.783077 
L 195.960128 137.886923 
L 195.918927 137.713846 
L 195.962703 137.852308 
L 196.572983 137.886923 
L 196.580708 137.990769 
L 196.596158 137.852308 
L 196.683709 137.956154 
L 196.78671 137.852308 
L 196.79701 137.921538 
L 197.626166 138.025385 
L 197.628741 138.06 
L 197.677667 137.886923 
L 197.731742 137.956154 
L 197.798693 137.886923 
L 197.827018 138.025385 
L 197.842468 137.921538 
L 197.917144 138.025385 
L 197.909419 137.886923 
L 197.955769 137.990769 
L 197.976369 137.886923 
L 198.009845 138.025385 
L 198.066495 137.990769 
L 198.076795 138.025385 
L 198.184946 137.852308 
L 198.228721 137.956154 
L 198.295672 137.886923 
L 198.326572 137.852308 
L 198.388373 138.06 
L 198.398673 137.990769 
L 198.470773 137.886923 
L 198.511974 138.06 
L 198.566049 137.956154 
L 198.529999 138.129231 
L 198.620125 138.06 
L 198.6536 138.163846 
L 198.63815 137.990769 
L 198.73085 138.094615 
L 198.769476 137.990769 
L 198.802951 138.129231 
L 198.841576 138.06 
L 198.895652 138.129231 
L 198.911102 137.956154 
L 198.947152 137.990769 
L 199.042428 137.921538 
L 199.008953 138.094615 
L 199.055303 138.025385 
L 199.078478 138.025385 
L 199.168604 137.886923 
L 199.189204 137.956154 
L 199.266455 138.094615 
L 199.30508 138.06 
L 199.410656 137.921538 
L 199.418381 137.990769 
L 199.464732 138.094615 
L 199.428681 137.921538 
L 199.531682 138.025385 
L 199.634683 137.921538 
L 199.647558 137.956154 
L 199.660433 138.025385 
L 199.740259 137.852308 
L 199.753134 137.921538 
L 199.83811 137.852308 
L 199.856135 137.990769 
L 199.86386 137.921538 
L 199.972011 138.025385 
L 199.88961 137.783077 
L 199.974586 137.990769 
L 200.005486 137.956154 
L 200.044111 138.094615 
L 200.080162 138.025385 
L 200.144537 138.094615 
L 200.090462 137.990769 
L 200.190887 138.025385 
L 200.239813 138.129231 
L 200.242388 138.163846 
L 200.283588 137.956154 
L 200.342814 138.06 
L 200.368564 137.990769 
L 200.440665 138.163846 
L 200.44839 138.129231 
L 200.507615 138.198462 
L 200.49474 138.06 
L 200.553965 138.094615 
L 200.55654 138.06 
L 200.608041 138.198462 
L 200.654391 138.163846 
L 200.716192 138.267692 
L 200.662116 138.094615 
L 200.765117 138.198462 
L 201.002019 138.302308 
L 201.004594 138.336923 
L 201.025194 138.198462 
L 201.107595 138.302308 
L 201.128195 138.198462 
L 201.189996 138.371538 
L 201.218321 138.302308 
L 201.228621 138.233077 
L 201.241496 138.406154 
L 201.326472 138.302308 
L 201.354797 138.371538 
L 201.375397 138.233077 
L 201.434623 138.267692 
L 201.591699 138.198462 
L 201.686975 138.06 
L 201.640624 138.233077 
L 201.705 138.129231 
L 201.787401 138.06 
L 201.733325 138.198462 
L 201.813151 138.163846 
L 201.869801 138.094615 
L 201.905852 138.129231 
L 201.983102 138.025385 
L 202.057778 138.163846 
L 202.001127 137.990769 
L 202.093828 138.06 
L 202.191679 138.025385 
L 202.181379 138.129231 
L 202.201979 138.06 
L 202.207129 138.129231 
L 202.297255 137.921538 
L 202.307555 137.990769 
L 202.37708 137.852308 
L 202.410556 138.025385 
L 202.423431 137.921538 
L 202.500681 137.886923 
L 202.510982 137.783077 
L 202.508407 137.921538 
L 202.608832 137.886923 
L 202.696383 137.921538 
L 202.686083 137.783077 
L 202.719558 137.886923 
L 202.776209 137.817692 
L 202.804534 137.956154 
L 202.827709 137.852308 
L 202.93586 137.956154 
L 202.835434 137.817692 
L 202.938435 137.921538 
L 202.984785 137.817692 
L 202.974485 137.956154 
L 203.049161 137.921538 
L 203.059461 137.852308 
L 203.105811 137.990769 
L 203.162462 137.886923 
L 203.239713 137.921538 
L 203.185637 137.817692 
L 203.270613 137.852308 
L 203.337563 137.783077 
L 203.286063 137.921538 
L 203.381339 137.817692 
L 203.412239 137.956154 
L 203.396789 137.783077 
L 203.492065 137.852308 
L 203.56674 137.748462 
L 203.52554 137.921538 
L 203.60279 137.852308 
L 203.623391 137.783077 
L 203.638841 137.921538 
L 203.710941 137.886923 
L 203.793342 137.990769 
L 203.721241 137.817692 
L 203.824242 137.921538 
L 203.909218 137.886923 
L 203.842267 137.990769 
L 203.934968 137.921538 
L 204.20277 137.921538 
L 204.238821 137.783077 
L 204.313496 137.852308 
L 204.388172 137.748462 
L 204.449972 137.713846 
L 204.408772 137.852308 
L 204.496323 137.783077 
L 204.887726 137.679231 
L 204.983002 137.575385 
L 204.908326 137.783077 
L 204.998452 137.679231 
L 205.567532 137.783077 
L 205.639632 137.921538 
L 205.572682 137.713846 
L 205.675683 137.817692 
L 205.763233 137.713846 
L 205.781258 137.852308 
L 205.788983 137.748462 
L 205.804434 137.886923 
L 205.807009 137.713846 
L 205.897134 137.783077 
L 205.899709 137.713846 
L 205.989835 137.956154 
L 206.00271 137.886923 
L 206.079961 137.990769 
L 206.175237 138.025385 
L 206.123736 137.921538 
L 206.188112 137.990769 
L 206.211287 137.886923 
L 206.247337 138.129231 
L 206.296263 138.025385 
L 206.401838 138.198462 
L 206.358063 137.990769 
L 206.406989 138.06 
L 206.412139 138.025385 
L 206.504839 138.198462 
L 206.515139 138.094615 
L 206.625865 138.198462 
L 206.62844 138.163846 
L 206.731441 137.990769 
L 206.739166 138.094615 
L 206.767491 138.06 
L 206.770067 137.956154 
L 206.803542 138.129231 
L 206.878217 138.025385 
L 206.893668 138.094615 
L 206.927143 137.956154 
L 206.986368 137.990769 
L 207.16147 137.886923 
L 207.17692 137.817692 
L 207.18207 137.956154 
L 207.274771 137.852308 
L 207.331421 137.817692 
L 207.388072 137.990769 
L 207.408672 137.852308 
L 207.455022 138.06 
L 207.501373 137.956154 
L 207.506523 138.025385 
L 207.606948 137.817692 
L 207.609523 137.886923 
L 207.707374 137.817692 
L 207.627549 137.956154 
L 207.720249 137.852308 
L 207.733124 137.817692 
L 207.836125 137.956154 
L 207.890201 137.886923 
L 207.918526 138.025385 
L 207.946851 137.956154 
L 208.036977 138.025385 
L 208.039552 138.094615 
L 208.124528 137.886923 
L 208.142553 137.921538 
L 208.521081 137.817692 
L 208.588031 137.783077 
L 208.618932 137.921538 
L 208.626657 137.886923 
L 208.891884 137.956154 
L 208.99746 138.06 
L 208.902184 137.817692 
L 209.005185 138.025385 
L 209.149386 137.956154 
L 209.260112 137.817692 
L 209.175136 137.990769 
L 209.262687 137.852308 
L 209.352813 137.921538 
L 209.368263 137.783077 
L 209.373413 137.852308 
L 209.589715 137.921538 
L 209.692715 137.990769 
L 209.60259 137.852308 
L 209.700441 137.921538 
L 209.759666 138.06 
L 209.731341 137.886923 
L 209.816317 138.025385 
L 209.921892 137.921538 
L 209.821467 138.06 
L 209.929617 137.956154 
L 210.527022 138.06 
L 210.624873 138.163846 
L 210.560498 137.956154 
L 210.637748 138.06 
L 210.671224 137.990769 
L 210.730449 138.163846 
L 210.740749 138.163846 
L 210.957051 138.06 
L 210.959626 138.025385 
L 211.011126 138.267692 
L 211.057477 138.129231 
L 211.155328 138.233077 
L 211.070352 138.094615 
L 211.170778 138.198462 
L 211.286654 138.094615 
L 211.389654 138.267692 
L 211.296954 138.06 
L 211.40253 138.233077 
L 211.40768 138.336923 
L 211.430855 138.163846 
L 211.513255 138.233077 
L 211.528706 138.163846 
L 211.611106 138.371538 
L 211.616256 138.336923 
L 211.729557 138.406154 
L 211.745007 138.51 
L 211.811958 138.302308 
L 211.837708 138.406154 
L 211.896934 138.302308 
L 211.845433 138.440769 
L 211.948434 138.371538 
L 211.958734 138.336923 
L 212.05916 138.440769 
L 212.118385 138.336923 
L 212.066885 138.475385 
L 212.169886 138.371538 
L 212.267737 138.51 
L 212.195636 138.302308 
L 212.283187 138.475385 
L 212.293487 138.440769 
L 212.296062 138.336923 
L 212.355287 138.544615 
L 212.401638 138.440769 
L 212.417088 138.544615 
L 212.455713 138.336923 
L 212.512364 138.440769 
L 212.592189 138.336923 
L 212.545839 138.51 
L 212.62824 138.371538 
L 213.011918 138.440769 
L 213.014493 138.51 
L 213.058268 138.336923 
L 213.120069 138.406154 
L 213.223069 138.267692 
L 213.235945 138.336923 
L 213.526922 138.233077 
L 213.624773 138.198462 
L 213.557822 138.302308 
L 213.632498 138.233077 
L 213.637648 138.302308 
L 213.738074 138.129231 
L 213.740649 138.198462 
L 213.85395 138.094615 
L 213.856525 138.129231 
L 213.8797 138.163846 
L 213.90545 137.990769 
L 213.964676 138.129231 
L 213.995576 137.990769 
L 214.080552 138.06 
L 214.144927 138.163846 
L 214.101152 138.025385 
L 214.191277 138.06 
L 214.291703 137.990769 
L 214.302003 138.163846 
L 214.386979 137.886923 
L 214.415304 138.06 
L 214.974084 138.163846 
L 214.976659 138.198462 
L 215.056485 138.06 
L 215.082235 138.163846 
L 215.182661 138.025385 
L 215.192961 138.129231 
L 215.615264 138.198462 
L 215.68994 138.302308 
L 215.72084 138.163846 
L 215.72599 138.198462 
L 215.803241 138.163846 
L 215.75174 138.302308 
L 215.834141 138.233077 
L 216.179194 138.163846 
L 216.181769 138.094615 
L 216.282195 138.267692 
L 216.287345 138.163846 
L 216.37232 138.233077 
L 216.33627 138.129231 
L 216.398071 138.198462 
L 216.678748 138.267692 
L 216.740548 138.233077 
L 216.789474 138.371538 
L 216.897625 138.267692 
L 216.802349 138.406154 
L 216.902775 138.302308 
L 216.97745 138.233077 
L 217.013501 138.371538 
L 217.036676 138.198462 
L 217.126802 138.267692 
L 217.258128 138.336923 
L 217.260703 138.440769 
L 217.309628 138.267692 
L 217.366278 138.371538 
L 217.458979 138.198462 
L 217.404904 138.406154 
L 217.479579 138.233077 
L 217.52078 138.336923 
L 217.580005 138.163846 
L 217.590305 138.267692 
L 217.667556 138.129231 
L 217.703606 138.198462 
L 217.886433 138.094615 
L 217.976559 137.990769 
L 217.940508 138.129231 
L 217.997159 138.06 
L 218.097585 138.094615 
L 218.012609 137.990769 
L 218.10531 138.06 
L 218.113035 137.990769 
L 218.200585 138.198462 
L 218.21346 138.094615 
L 218.295861 137.990769 
L 218.329336 138.198462 
L 218.344787 138.06 
L 218.419462 138.302308 
L 218.440062 138.198462 
L 218.689839 138.094615 
L 218.75164 138.06 
L 218.74134 138.198462 
L 218.800565 138.094615 
L 218.80829 138.198462 
L 218.836616 138.06 
L 218.913866 138.163846 
L 218.967942 138.094615 
L 218.993692 138.163846 
L 219.076093 138.025385 
L 219.078668 138.129231 
L 219.155918 137.990769 
L 219.186818 138.06 
L 219.197119 138.129231 
L 219.305269 137.956154 
L 219.431445 138.198462 
L 219.537021 138.094615 
L 219.542171 138.129231 
L 219.593672 138.267692 
L 219.616847 138.094615 
L 219.652897 138.129231 
L 219.670922 138.06 
L 219.727573 138.302308 
L 219.758473 138.198462 
L 219.768773 138.163846 
L 219.874349 138.302308 
L 219.954175 138.233077 
L 219.949025 138.336923 
L 219.9825 138.302308 
L 220.085501 138.406154 
L 220.00825 138.198462 
L 220.098376 138.371538 
L 220.193652 138.302308 
L 220.152451 138.440769 
L 220.209102 138.371538 
L 220.765306 138.302308 
L 220.876032 138.198462 
L 220.803932 138.371538 
L 220.878607 138.233077 
L 221.012508 138.267692 
L 221.015083 138.371538 
L 221.066584 138.198462 
L 221.123234 138.267692 
L 221.215935 138.198462 
L 221.16186 138.336923 
L 221.231385 138.302308 
L 221.769565 138.336923 
L 221.882866 138.475385 
L 221.900891 138.371538 
L 221.944666 138.544615 
L 221.993591 138.440769 
L 222.086292 138.475385 
L 222.075992 138.302308 
L 222.099167 138.406154 
L 222.202168 138.302308 
L 222.171268 138.475385 
L 222.207318 138.406154 
L 222.307744 138.440769 
L 222.256244 138.336923 
L 222.315469 138.371538 
L 222.611597 138.371538 
L 222.614172 138.51 
L 222.645072 138.302308 
L 222.719747 138.371538 
L 222.827898 138.198462 
L 222.835623 138.233077 
L 222.974675 138.163846 
L 223.072525 138.094615 
L 222.990125 138.233077 
L 223.0854 138.129231 
L 223.541179 138.233077 
L 223.543754 138.267692 
L 223.564354 138.129231 
L 223.646755 138.198462 
L 223.66478 138.233077 
L 223.762631 138.094615 
L 223.816706 138.198462 
L 223.824432 138.06 
L 223.873357 138.094615 
L 223.906832 138.06 
L 223.991808 138.233077 
L 224.099959 138.129231 
L 224.038158 138.302308 
L 224.102534 138.163846 
L 224.179784 138.302308 
L 224.215835 138.267692 
L 224.26991 138.371538 
L 224.23386 138.198462 
L 224.326561 138.302308 
L 224.378061 138.371538 
L 224.414111 138.475385 
L 224.463037 138.336923 
L 224.488787 138.406154 
L 224.591788 138.475385 
L 224.589213 138.336923 
L 224.599513 138.406154 
L 224.710239 138.267692 
L 224.609813 138.440769 
L 224.715389 138.336923 
L 224.820965 138.336923 
L 224.82354 138.198462 
L 224.931691 138.336923 
L 225.191768 138.302308 
L 225.279318 138.198462 
L 225.302494 138.267692 
L 225.361719 138.163846 
L 225.392619 138.336923 
L 225.410645 138.302308 
L 226.123925 138.233077 
L 226.201176 138.163846 
L 226.129075 138.267692 
L 226.234651 138.233077 
L 226.332502 138.336923 
L 226.242376 138.163846 
L 226.347952 138.267692 
L 226.363402 138.198462 
L 226.386578 138.371538 
L 226.450953 138.336923 
L 226.546229 138.406154 
L 226.474128 138.267692 
L 226.561679 138.336923 
L 226.656955 138.233077 
L 226.754806 138.163846 
L 226.667255 138.302308 
L 226.767681 138.198462 
L 226.839781 138.302308 
L 226.852656 138.129231 
L 226.880982 138.267692 
L 226.922182 138.163846 
L 226.942782 138.336923 
L 226.991708 138.198462 
L 227.007158 138.302308 
L 227.099858 138.129231 
L 227.205434 138.371538 
L 227.218309 138.233077 
L 227.983091 138.336923 
L 227.985666 138.371538 
L 228.029441 138.198462 
L 228.088667 138.267692 
L 228.498095 138.336923 
L 228.601096 138.440769 
L 228.50582 138.302308 
L 228.611396 138.406154 
L 228.678346 138.302308 
L 228.616546 138.440769 
L 228.719547 138.406154 
L 228.753022 138.302308 
L 228.832848 138.475385 
L 228.892073 138.371538 
L 228.917823 138.51 
L 228.943574 138.475385 
L 228.971899 138.406154 
L 229.139275 136.883077 
L 229.275751 136.536923 
L 229.301501 136.675385 
L 229.345277 136.433077 
L 229.383902 136.502308 
L 229.486903 136.606154 
L 229.620804 136.952308 
L 229.651704 136.883077 
L 229.71093 137.194615 
L 229.71608 137.16 
L 229.754705 137.229231 
L 229.868006 137.471538 
L 229.870581 137.367692 
L 229.996757 137.61 
L 230.019932 137.575385 
L 230.058558 137.713846 
L 230.099758 137.644615 
L 230.207909 137.921538 
L 230.215634 137.852308 
L 230.231084 137.783077 
L 230.272284 137.956154 
L 230.323785 137.921538 
L 230.37271 137.852308 
L 230.359835 137.990769 
L 230.431936 137.956154 
L 230.583862 137.852308 
L 230.686863 137.817692 
L 230.622487 137.956154 
L 230.694588 137.852308 
L 230.861964 137.886923 
L 230.96239 138.06 
L 230.975265 137.990769 
L 231.001015 138.094615 
L 231.039641 137.990769 
L 231.119466 138.233077 
L 231.142642 138.129231 
L 231.199292 138.336923 
L 231.230192 138.233077 
L 231.346068 138.406154 
L 231.348643 138.371538 
L 231.351218 138.302308 
L 231.454219 138.51 
L 231.456794 138.440769 
L 231.59842 138.544615 
L 231.678246 138.613846 
L 231.619021 138.440769 
L 231.706571 138.544615 
L 231.742622 138.440769 
L 231.796697 138.613846 
L 231.812147 138.613846 
L 231.928023 138.683077 
L 231.987249 138.821538 
L 231.940898 138.613846 
L 232.038749 138.717692 
L 232.134025 138.856154 
L 232.090249 138.648462 
L 232.154625 138.786923 
L 232.175225 138.648462 
L 232.267926 138.752308 
L 232.600104 138.683077 
L 232.692804 138.579231 
L 232.615554 138.752308 
L 232.710829 138.683077 
L 232.81898 138.786923 
L 232.831855 138.890769 
L 232.826705 138.717692 
L 232.927131 138.821538 
L 233.037857 138.648462 
L 233.040432 138.683077 
L 233.055882 138.821538 
L 233.153733 138.717692 
L 233.33656 138.613846 
L 233.40866 138.579231 
L 233.364885 138.717692 
L 233.43956 138.683077 
L 233.501361 138.752308 
L 233.485911 138.579231 
L 233.550286 138.683077 
L 233.645562 138.613846 
L 233.684187 138.544615 
L 233.730538 138.717692 
L 233.753713 138.613846 
L 233.761438 138.752308 
L 233.810364 138.579231 
L 233.864439 138.648462 
L 233.885039 138.544615 
L 233.949415 138.683077 
L 233.975165 138.648462 
L 234.078166 138.683077 
L 233.98804 138.579231 
L 234.080741 138.648462 
L 234.142541 138.544615 
L 234.103916 138.717692 
L 234.191467 138.613846 
L 234.199192 138.544615 
L 234.304768 138.683077 
L 234.335668 138.613846 
L 234.361418 138.786923 
L 234.412918 138.752308 
L 234.709046 138.821538 
L 234.711621 138.890769 
L 234.727071 138.752308 
L 234.819772 138.821538 
L 234.837797 138.856154 
L 234.935648 138.717692 
L 235.038649 138.821538 
L 234.948523 138.683077 
L 235.046374 138.752308 
L 235.149374 138.613846 
L 235.1571 138.683077 
L 235.22405 138.786923 
L 235.195725 138.648462 
L 235.267825 138.717692 
L 235.2704 138.613846 
L 235.365676 138.821538 
L 235.375976 138.717692 
L 235.412027 138.648462 
L 235.486702 138.752308 
L 235.589703 138.648462 
L 235.556228 138.821538 
L 235.600003 138.717692 
L 236.127883 138.717692 
L 236.130458 138.579231 
L 236.145908 138.752308 
L 236.238608 138.683077 
L 236.472935 138.613846 
L 236.521861 138.717692 
L 236.583661 138.544615 
L 236.614562 138.613846 
L 236.681512 138.440769 
L 236.686662 138.440769 
L 236.833438 138.371538 
L 236.836013 138.267692 
L 236.931289 138.440769 
L 236.941589 138.440769 
L 237.057465 138.336923 
L 237.147591 138.51 
L 237.170766 138.406154 
L 237.232567 138.336923 
L 237.263467 138.475385 
L 237.278917 138.406154 
L 237.371618 138.475385 
L 237.325267 138.336923 
L 237.389643 138.440769 
L 237.454018 138.336923 
L 237.399943 138.475385 
L 237.500369 138.406154 
L 237.533844 138.475385 
L 237.58792 138.302308 
L 237.605945 138.336923 
L 237.693495 138.198462 
L 237.62397 138.371538 
L 237.719246 138.302308 
L 237.845422 138.267692 
L 237.958723 138.094615 
L 238.002498 138.198462 
L 238.028248 138.06 
L 238.072023 138.129231 
L 238.110649 138.198462 
L 238.187899 138.025385 
L 238.2703 138.163846 
L 238.298625 138.06 
L 239.580986 138.129231 
L 239.591286 138.06 
L 239.694287 138.198462 
L 239.743212 138.06 
L 239.707162 138.267692 
L 239.805013 138.198462 
L 239.812738 138.129231 
L 239.820463 138.267692 
L 239.913164 138.233077 
L 240.077965 138.267692 
L 240.08054 138.371538 
L 240.12174 138.198462 
L 240.186116 138.302308 
L 240.214441 138.163846 
L 240.296842 138.198462 
L 240.353492 138.336923 
L 240.410143 138.267692 
L 240.505418 138.336923 
L 240.495118 138.163846 
L 240.518294 138.302308 
L 240.520869 138.233077 
L 240.549194 138.406154 
L 240.629019 138.302308 
L 240.72687 138.544615 
L 240.74232 138.51 
L 240.770646 138.406154 
L 240.853046 138.475385 
L 240.858196 138.440769 
L 240.966347 138.544615 
L 240.989522 138.440769 
L 241.051323 138.613846 
L 241.077073 138.51 
L 241.396376 138.406154 
L 241.453026 138.336923 
L 241.409251 138.51 
L 241.501952 138.475385 
L 241.594652 138.51 
L 241.519977 138.371538 
L 241.607528 138.440769 
L 241.643578 138.371538 
L 241.705378 138.544615 
L 241.710528 138.51 
L 241.749154 138.613846 
L 241.718253 138.475385 
L 241.823829 138.544615 
L 242.266733 138.648462 
L 242.287333 138.683077 
L 242.307933 138.51 
L 242.369734 138.579231 
L 242.385184 138.51 
L 242.416084 138.648462 
L 242.47531 138.648462 
L 242.691611 138.579231 
L 242.789462 138.440769 
L 242.737962 138.613846 
L 242.804912 138.51 
L 242.907913 138.544615 
L 242.815212 138.406154 
L 242.913063 138.475385 
L 242.923363 138.440769 
L 242.943963 138.544615 
L 243.021214 138.51 
L 243.098465 138.579231 
L 243.214341 138.717692 
L 243.296741 138.579231 
L 243.304466 138.752308 
L 243.327642 138.683077 
L 243.355967 138.613846 
L 243.358542 138.544615 
L 243.415192 138.717692 
L 243.464118 138.683077 
L 243.525918 138.717692 
L 243.541368 138.579231 
L 243.572269 138.648462 
L 243.801446 138.579231 
L 243.819471 138.613846 
L 243.912171 138.51 
L 243.943072 138.440769 
L 244.022897 138.579231 
L 244.040923 138.475385 
L 244.074398 138.648462 
L 244.133623 138.579231 
L 244.92158 138.648462 
L 245.011705 138.752308 
L 244.944755 138.613846 
L 245.032306 138.683077 
L 245.086381 138.613846 
L 245.122431 138.717692 
L 245.140457 138.717692 
L 245.191957 138.683077 
L 245.279508 138.440769 
L 245.305258 138.579231 
L 245.392809 138.579231 
L 245.50611 138.440769 
L 245.52156 138.579231 
L 245.575635 138.406154 
L 245.616835 138.440769 
L 245.791937 138.51 
L 245.794512 138.579231 
L 245.822837 138.371538 
L 245.902663 138.544615 
L 246.021114 138.440769 
L 246.986747 138.371538 
L 247.082022 138.267692 
L 247.004772 138.440769 
L 247.097473 138.371538 
L 247.133523 138.233077 
L 247.166998 138.406154 
L 247.208199 138.371538 
L 247.491451 138.475385 
L 247.542951 138.51 
L 247.537801 138.371538 
L 247.597027 138.475385 
L 247.702603 138.371538 
L 247.707753 138.440769 
L 248.287132 138.544615 
L 248.356658 138.579231 
L 248.302582 138.406154 
L 248.359233 138.51 
" clip-path="url(#pde67251c02)" style="fill: none; stroke: #000000; stroke-opacity: 0.5; stroke-width: 1.5; stroke-linecap: square"/>
   </g>
   <g id="patch_3">
    <path d="M 35.304688 173.52 
L 35.304688 7.2 
" style="fill: none; stroke: #000000; stroke-width: 0.8; stroke-linejoin: miter; stroke-linecap: square"/>
   </g>
   <g id="patch_4">
    <path d="M 35.304688 173.52 
L 258.504687 173.52 
" style="fill: none; stroke: #000000; stroke-width: 0.8; stroke-linejoin: miter; stroke-linecap: square"/>
   </g>
  </g>
 </g>
 <defs>
  <clipPath id="pde67251c02">
   <rect x="35.304688" y="7.2" width="223.2" height="166.32"/>
  </clipPath>
 </defs>
</svg>
