<?xml version="1.0" encoding="utf-8" standalone="no"?>
<!DOCTYPE svg PUBLIC "-//W3C//DTD SVG 1.1//EN"
  "http://www.w3.org/Graphics/SVG/1.1/DTD/svg11.dtd">
<svg xmlns:xlink="http://www.w3.org/1999/xlink" width="265.704687pt" height="197.398125pt" viewBox="0 0 265.704687 197.398125" xmlns="http://www.w3.org/2000/svg" version="1.1">
 <metadata>
  <rdf:RDF xmlns:dc="http://purl.org/dc/elements/1.1/" xmlns:cc="http://creativecommons.org/ns#" xmlns:rdf="http://www.w3.org/1999/02/22-rdf-syntax-ns#">
   <cc:Work>
    <dc:type rdf:resource="http://purl.org/dc/dcmitype/StillImage"/>
    <dc:date>2025-12-19T12:02:50.877030</dc:date>
    <dc:format>image/svg+xml</dc:format>
    <dc:creator>
     <cc:Agent>
      <dc:title>Matplotlib v3.10.7, https://matplotlib.org/</dc:title>
     </cc:Agent>
    </dc:creator>
   </cc:Work>
  </rdf:RDF>
 </metadata>
 <defs>
  <style type="text/css">*{stroke-linejoin: round; stroke-linecap: butt}</style>
 </defs>
 <g id="figure_1">
  <g id="patch_1">
   <path d="M 0 197.398125 
L 265.704687 197.398125 
L 265.704687 0 
L 0 0 
z
" style="fill: #ffffff"/>
  </g>
  <g id="axes_1">
   <g id="patch_2">
    <path d="M 35.304688 173.52 
L 258.504687 173.52 
L 258.504687 7.2 
L 35.304688 7.2 
z
" style="fill: #ffffff"/>
   </g>
   <g id="matplotlib.axis_1">
    <g id="xtick_1">
     <g id="line2d_1">
      <defs>
       <path id="m75aa3fa051" d="M 0 0 
L 0 3.5 
" style="stroke: #000000; stroke-width: 0.8"/>
      </defs>
      <g>
       <use xlink:href="#m75aa3fa051" x="76.350396" y="173.52" style="stroke: #000000; stroke-width: 0.8"/>
      </g>
     </g>
     <g id="text_1">
      <!-- 1 -->
      <g transform="translate(73.169146 188.118438) scale(0.1 -0.1)">
       <defs>
        <path id="DejaVuSans-31" d="M 794 531 
L 1825 531 
L 1825 4091 
L 703 3866 
L 703 4441 
L 1819 4666 
L 2450 4666 
L 2450 531 
L 3481 531 
L 3481 0 
L 794 0 
L 794 531 
z
" transform="scale(0.015625)"/>
       </defs>
       <use xlink:href="#DejaVuSans-31"/>
      </g>
     </g>
    </g>
    <g id="xtick_2">
     <g id="line2d_2">
      <g>
       <use xlink:href="#m75aa3fa051" x="127.850819" y="173.52" style="stroke: #000000; stroke-width: 0.8"/>
      </g>
     </g>
     <g id="text_2">
      <!-- 2 -->
      <g transform="translate(124.669569 188.118438) scale(0.1 -0.1)">
       <defs>
        <path id="DejaVuSans-32" d="M 1228 531 
L 3431 531 
L 3431 0 
L 469 0 
L 469 531 
Q 828 903 1448 1529 
Q 2069 2156 2228 2338 
Q 2531 2678 2651 2914 
Q 2772 3150 2772 3378 
Q 2772 3750 2511 3984 
Q 2250 4219 1831 4219 
Q 1534 4219 1204 4116 
Q 875 4013 500 3803 
L 500 4441 
Q 881 4594 1212 4672 
Q 1544 4750 1819 4750 
Q 2544 4750 2975 4387 
Q 3406 4025 3406 3419 
Q 3406 3131 3298 2873 
Q 3191 2616 2906 2266 
Q 2828 2175 2409 1742 
Q 1991 1309 1228 531 
z
" transform="scale(0.015625)"/>
       </defs>
       <use xlink:href="#DejaVuSans-32"/>
      </g>
     </g>
    </g>
    <g id="xtick_3">
     <g id="line2d_3">
      <g>
       <use xlink:href="#m75aa3fa051" x="179.351241" y="173.52" style="stroke: #000000; stroke-width: 0.8"/>
      </g>
     </g>
     <g id="text_3">
      <!-- 3 -->
      <g transform="translate(176.169991 188.118438) scale(0.1 -0.1)">
       <defs>
        <path id="DejaVuSans-33" d="M 2597 2516 
Q 3050 2419 3304 2112 
Q 3559 1806 3559 1356 
Q 3559 666 3084 287 
Q 2609 -91 1734 -91 
Q 1441 -91 1130 -33 
Q 819 25 488 141 
L 488 750 
Q 750 597 1062 519 
Q 1375 441 1716 441 
Q 2309 441 2620 675 
Q 2931 909 2931 1356 
Q 2931 1769 2642 2001 
Q 2353 2234 1838 2234 
L 1294 2234 
L 1294 2753 
L 1863 2753 
Q 2328 2753 2575 2939 
Q 2822 3125 2822 3475 
Q 2822 3834 2567 4026 
Q 2313 4219 1838 4219 
Q 1578 4219 1281 4162 
Q 984 4106 628 3988 
L 628 4550 
Q 988 4650 1302 4700 
Q 1616 4750 1894 4750 
Q 2613 4750 3031 4423 
Q 3450 4097 3450 3541 
Q 3450 3153 3228 2886 
Q 3006 2619 2597 2516 
z
" transform="scale(0.015625)"/>
       </defs>
       <use xlink:href="#DejaVuSans-33"/>
      </g>
     </g>
    </g>
    <g id="xtick_4">
     <g id="line2d_4">
      <g>
       <use xlink:href="#m75aa3fa051" x="230.851664" y="173.52" style="stroke: #000000; stroke-width: 0.8"/>
      </g>
     </g>
     <g id="text_4">
      <!-- 4 -->
      <g transform="translate(227.670414 188.118438) scale(0.1 -0.1)">
       <defs>
        <path id="DejaVuSans-34" d="M 2419 4116 
L 825 1625 
L 2419 1625 
L 2419 4116 
z
M 2253 4666 
L 3047 4666 
L 3047 1625 
L 3713 1625 
L 3713 1100 
L 3047 1100 
L 3047 0 
L 2419 0 
L 2419 1100 
L 313 1100 
L 313 1709 
L 2253 4666 
z
" transform="scale(0.015625)"/>
       </defs>
       <use xlink:href="#DejaVuSans-34"/>
      </g>
     </g>
    </g>
   </g>
   <g id="matplotlib.axis_2">
    <g id="ytick_1">
     <g id="line2d_5">
      <defs>
       <path id="mefad684a2d" d="M 0 0 
L -3.5 0 
" style="stroke: #000000; stroke-width: 0.8"/>
      </defs>
      <g>
       <use xlink:href="#mefad684a2d" x="35.304688" y="160.520689" style="stroke: #000000; stroke-width: 0.8"/>
      </g>
     </g>
     <g id="text_5">
      <!-- −80 -->
      <g transform="translate(7.2 164.319908) scale(0.1 -0.1)">
       <defs>
        <path id="DejaVuSans-2212" d="M 678 2272 
L 4684 2272 
L 4684 1741 
L 678 1741 
L 678 2272 
z
" transform="scale(0.015625)"/>
        <path id="DejaVuSans-38" d="M 2034 2216 
Q 1584 2216 1326 1975 
Q 1069 1734 1069 1313 
Q 1069 891 1326 650 
Q 1584 409 2034 409 
Q 2484 409 2743 651 
Q 3003 894 3003 1313 
Q 3003 1734 2745 1975 
Q 2488 2216 2034 2216 
z
M 1403 2484 
Q 997 2584 770 2862 
Q 544 3141 544 3541 
Q 544 4100 942 4425 
Q 1341 4750 2034 4750 
Q 2731 4750 3128 4425 
Q 3525 4100 3525 3541 
Q 3525 3141 3298 2862 
Q 3072 2584 2669 2484 
Q 3125 2378 3379 2068 
Q 3634 1759 3634 1313 
Q 3634 634 3220 271 
Q 2806 -91 2034 -91 
Q 1263 -91 848 271 
Q 434 634 434 1313 
Q 434 1759 690 2068 
Q 947 2378 1403 2484 
z
M 1172 3481 
Q 1172 3119 1398 2916 
Q 1625 2713 2034 2713 
Q 2441 2713 2670 2916 
Q 2900 3119 2900 3481 
Q 2900 3844 2670 4047 
Q 2441 4250 2034 4250 
Q 1625 4250 1398 4047 
Q 1172 3844 1172 3481 
z
" transform="scale(0.015625)"/>
        <path id="DejaVuSans-30" d="M 2034 4250 
Q 1547 4250 1301 3770 
Q 1056 3291 1056 2328 
Q 1056 1369 1301 889 
Q 1547 409 2034 409 
Q 2525 409 2770 889 
Q 3016 1369 3016 2328 
Q 3016 3291 2770 3770 
Q 2525 4250 2034 4250 
z
M 2034 4750 
Q 2819 4750 3233 4129 
Q 3647 3509 3647 2328 
Q 3647 1150 3233 529 
Q 2819 -91 2034 -91 
Q 1250 -91 836 529 
Q 422 1150 422 2328 
Q 422 3509 836 4129 
Q 1250 4750 2034 4750 
z
" transform="scale(0.015625)"/>
       </defs>
       <use xlink:href="#DejaVuSans-2212"/>
       <use xlink:href="#DejaVuSans-38" transform="translate(83.789062 0)"/>
       <use xlink:href="#DejaVuSans-30" transform="translate(147.412109 0)"/>
      </g>
     </g>
    </g>
    <g id="ytick_2">
     <g id="line2d_6">
      <g>
       <use xlink:href="#mefad684a2d" x="35.304688" y="137.751748" style="stroke: #000000; stroke-width: 0.8"/>
      </g>
     </g>
     <g id="text_6">
      <!-- −60 -->
      <g transform="translate(7.2 141.550967) scale(0.1 -0.1)">
       <defs>
        <path id="DejaVuSans-36" d="M 2113 2584 
Q 1688 2584 1439 2293 
Q 1191 2003 1191 1497 
Q 1191 994 1439 701 
Q 1688 409 2113 409 
Q 2538 409 2786 701 
Q 3034 994 3034 1497 
Q 3034 2003 2786 2293 
Q 2538 2584 2113 2584 
z
M 3366 4563 
L 3366 3988 
Q 3128 4100 2886 4159 
Q 2644 4219 2406 4219 
Q 1781 4219 1451 3797 
Q 1122 3375 1075 2522 
Q 1259 2794 1537 2939 
Q 1816 3084 2150 3084 
Q 2853 3084 3261 2657 
Q 3669 2231 3669 1497 
Q 3669 778 3244 343 
Q 2819 -91 2113 -91 
Q 1303 -91 875 529 
Q 447 1150 447 2328 
Q 447 3434 972 4092 
Q 1497 4750 2381 4750 
Q 2619 4750 2861 4703 
Q 3103 4656 3366 4563 
z
" transform="scale(0.015625)"/>
       </defs>
       <use xlink:href="#DejaVuSans-2212"/>
       <use xlink:href="#DejaVuSans-36" transform="translate(83.789062 0)"/>
       <use xlink:href="#DejaVuSans-30" transform="translate(147.412109 0)"/>
      </g>
     </g>
    </g>
    <g id="ytick_3">
     <g id="line2d_7">
      <g>
       <use xlink:href="#mefad684a2d" x="35.304688" y="114.982808" style="stroke: #000000; stroke-width: 0.8"/>
      </g>
     </g>
     <g id="text_7">
      <!-- −40 -->
      <g transform="translate(7.2 118.782027) scale(0.1 -0.1)">
       <use xlink:href="#DejaVuSans-2212"/>
       <use xlink:href="#DejaVuSans-34" transform="translate(83.789062 0)"/>
       <use xlink:href="#DejaVuSans-30" transform="translate(147.412109 0)"/>
      </g>
     </g>
    </g>
    <g id="ytick_4">
     <g id="line2d_8">
      <g>
       <use xlink:href="#mefad684a2d" x="35.304688" y="92.213867" style="stroke: #000000; stroke-width: 0.8"/>
      </g>
     </g>
     <g id="text_8">
      <!-- −20 -->
      <g transform="translate(7.2 96.013086) scale(0.1 -0.1)">
       <use xlink:href="#DejaVuSans-2212"/>
       <use xlink:href="#DejaVuSans-32" transform="translate(83.789062 0)"/>
       <use xlink:href="#DejaVuSans-30" transform="translate(147.412109 0)"/>
      </g>
     </g>
    </g>
    <g id="ytick_5">
     <g id="line2d_9">
      <g>
       <use xlink:href="#mefad684a2d" x="35.304688" y="69.444926" style="stroke: #000000; stroke-width: 0.8"/>
      </g>
     </g>
     <g id="text_9">
      <!-- 0 -->
      <g transform="translate(21.942187 73.244145) scale(0.1 -0.1)">
       <use xlink:href="#DejaVuSans-30"/>
      </g>
     </g>
    </g>
    <g id="ytick_6">
     <g id="line2d_10">
      <g>
       <use xlink:href="#mefad684a2d" x="35.304688" y="46.675986" style="stroke: #000000; stroke-width: 0.8"/>
      </g>
     </g>
     <g id="text_10">
      <!-- 20 -->
      <g transform="translate(15.579687 50.475205) scale(0.1 -0.1)">
       <use xlink:href="#DejaVuSans-32"/>
       <use xlink:href="#DejaVuSans-30" transform="translate(63.623047 0)"/>
      </g>
     </g>
    </g>
    <g id="ytick_7">
     <g id="line2d_11">
      <g>
       <use xlink:href="#mefad684a2d" x="35.304688" y="23.907045" style="stroke: #000000; stroke-width: 0.8"/>
      </g>
     </g>
     <g id="text_11">
      <!-- 40 -->
      <g transform="translate(15.579687 27.706264) scale(0.1 -0.1)">
       <use xlink:href="#DejaVuSans-34"/>
       <use xlink:href="#DejaVuSans-30" transform="translate(63.623047 0)"/>
      </g>
     </g>
    </g>
   </g>
   <g id="line2d_12">
    <path d="M 45.450142 143.168824 
L 45.568593 143.377279 
L 45.717944 143.446765 
L 45.77202 143.620478 
L 45.831245 143.550993 
L 45.954846 143.655221 
L 46.047547 143.759449 
L 45.996047 143.585735 
L 46.068147 143.724706 
L 46.081022 143.759449 
L 46.181448 143.689963 
L 46.276724 143.620478 
L 46.281874 143.689963 
L 46.3926 143.481507 
L 46.441525 143.655221 
L 46.508476 143.620478 
L 46.608902 143.481507 
L 46.619202 143.51625 
L 46.717052 143.655221 
L 46.637227 143.481507 
L 46.732503 143.620478 
L 46.802028 143.689963 
L 46.843228 143.585735 
L 46.899879 143.689963 
L 46.853529 143.481507 
L 46.959104 143.655221 
L 46.98743 143.51625 
L 47.072405 143.585735 
L 47.116181 143.655221 
L 47.190856 143.481507 
L 47.291282 143.550993 
L 47.247507 143.446765 
L 47.299007 143.51625 
L 47.425183 143.099338 
L 47.466384 142.925625 
L 47.535909 143.168824 
L 47.58226 143.064596 
L 47.636335 143.273051 
L 47.641485 143.238309 
L 47.656935 143.134081 
L 47.757361 143.377279 
L 47.821737 143.307794 
L 47.814011 143.446765 
L 47.865512 143.412022 
L 47.906712 143.51625 
L 47.940187 143.550993 
L 47.968513 143.377279 
L 48.009713 143.412022 
L 48.179664 143.307794 
L 48.28524 143.168824 
L 48.210565 143.377279 
L 48.29554 143.238309 
L 48.524717 143.307794 
L 48.540167 143.446765 
L 48.627718 143.203566 
L 48.632868 143.273051 
L 48.661193 143.134081 
L 48.746169 143.238309 
L 48.815695 143.273051 
L 48.82342 143.134081 
L 48.85432 143.203566 
L 49.001096 143.099338 
L 49.119547 142.890882 
L 49.006246 143.134081 
L 49.122122 142.925625 
L 49.227698 142.960368 
L 49.191648 142.821397 
L 49.230273 142.890882 
L 49.359024 142.786654 
L 49.4337 142.717169 
L 49.402799 142.85614 
L 49.4646 142.821397 
L 49.557301 142.85614 
L 49.544426 142.682426 
L 49.570176 142.786654 
L 49.621676 142.682426 
L 49.683477 142.751912 
L 49.750427 142.682426 
L 49.827678 142.578199 
L 49.763302 142.717169 
L 49.861153 142.647684 
L 49.966729 142.543456 
L 50.082605 142.300257 
L 50.09033 142.369743 
L 50.273157 142.300257 
L 50.275732 142.230772 
L 50.347832 142.473971 
L 50.376157 142.439228 
L 50.489458 142.578199 
L 50.492033 142.543456 
L 50.502334 142.682426 
L 50.600184 142.508713 
L 50.73151 147.511654 
L 50.937512 150.08261 
L 50.947812 150.152096 
L 51.112614 151.611287 
L 51.122914 151.715515 
L 51.267115 152.618824 
L 51.29029 152.723051 
L 51.455091 153.556875 
L 51.298015 152.688309 
L 51.460241 153.522132 
L 51.493717 153.62636 
L 51.650793 154.251728 
L 51.676543 154.321213 
L 51.813019 155.016066 
L 51.818169 154.946581 
L 51.882545 155.224522 
L 51.91602 155.224522 
L 51.954645 155.32875 
L 52.057646 155.606691 
L 52.078246 155.537206 
L 52.083397 155.502463 
L 52.140047 155.884632 
L 52.160647 155.84989 
L 52.289398 156.336287 
L 52.304848 156.301544 
L 52.374374 156.648971 
L 52.379524 156.614228 
L 52.420724 156.718456 
L 52.5469 156.961654 
L 52.595826 156.926912 
L 52.631876 157.135368 
L 52.647326 157.065882 
L 52.727152 157.309081 
L 52.768352 157.204853 
L 52.814703 157.309081 
L 52.827578 157.413309 
L 52.863628 157.239596 
L 52.925428 157.378566 
L 53.023279 157.100625 
L 53.043879 157.17011 
L 53.07478 157.03114 
L 53.056754 157.239596 
L 53.15718 157.135368 
L 53.278206 157.482794 
L 53.280781 157.448051 
L 53.360607 157.760735 
L 53.373482 157.656507 
L 53.499658 158.073419 
L 53.507383 158.003934 
L 53.597509 158.21239 
L 53.605234 158.108162 
L 53.718535 158.316618 
L 53.72111 158.281875 
L 53.842136 158.35136 
L 53.855011 158.455588 
L 53.903936 158.281875 
L 53.950287 158.316618 
L 54.001787 158.247132 
L 54.022387 158.386103 
L 54.061013 158.316618 
L 54.107363 158.281875 
L 54.174314 158.455588 
L 54.259289 158.35136 
L 54.28504 158.420846 
L 54.39319 158.525074 
L 54.400916 158.490331 
L 54.478166 158.559816 
L 54.529667 158.629301 
L 54.583742 158.455588 
L 54.586317 158.490331 
L 54.612067 158.594559 
L 54.627517 158.629301 
L 54.658418 158.420846 
L 54.715068 158.525074 
L 54.825794 158.316618 
L 54.833519 158.386103 
L 54.846394 158.455588 
L 54.882444 158.281875 
L 54.94167 158.316618 
L 55.000895 158.35136 
L 55.034371 158.073419 
L 55.142522 157.969191 
L 55.150247 157.899706 
L 55.181147 158.108162 
L 55.245522 158.038676 
L 55.271273 158.142904 
L 55.302173 157.899706 
L 55.348523 157.969191 
L 55.376849 157.830221 
L 55.459249 157.969191 
L 55.518475 158.073419 
L 55.580275 157.830221 
L 55.616326 157.899706 
L 55.631776 157.760735 
L 55.688426 157.830221 
L 55.778552 157.621765 
L 55.806877 157.69125 
L 55.866103 157.795478 
L 55.899578 157.587022 
L 55.909878 157.656507 
L 56.028329 157.448051 
L 56.043779 157.413309 
L 56.149355 157.621765 
L 56.254931 157.482794 
L 56.265231 157.517537 
L 56.337331 157.621765 
L 56.293556 157.448051 
L 56.378532 157.552279 
L 56.417157 157.517537 
L 56.496983 157.343824 
L 56.530458 157.378566 
L 56.641184 157.552279 
L 56.540758 157.343824 
L 56.648909 157.517537 
L 56.651484 157.448051 
L 56.713285 157.621765 
L 56.759635 157.482794 
L 56.78281 157.587022 
L 56.785385 157.621765 
L 56.79826 157.482794 
L 56.890961 157.587022 
L 56.939886 157.413309 
L 56.999112 157.621765 
L 57.004262 157.552279 
L 57.153613 157.448051 
L 57.156188 157.378566 
L 57.223139 157.621765 
L 57.259189 157.587022 
L 57.32099 157.621765 
L 57.32614 157.725993 
L 57.42399 157.587022 
L 57.431715 157.621765 
L 57.511541 157.69125 
L 57.442016 157.587022 
L 57.539866 157.587022 
L 57.563041 157.517537 
L 57.588792 157.725993 
L 57.645442 157.656507 
L 57.732993 157.725993 
L 57.655742 157.587022 
L 57.756168 157.656507 
L 57.841144 157.517537 
L 57.771618 157.725993 
L 57.874619 157.552279 
L 57.879769 157.621765 
L 57.926119 157.448051 
L 57.98792 157.587022 
L 58.206797 157.482794 
L 58.284047 157.552279 
L 58.322673 157.413309 
L 58.338123 157.482794 
L 58.402498 157.204853 
L 58.425674 157.309081 
L 58.497774 157.135368 
L 58.54155 157.17011 
L 58.660001 157.378566 
L 58.662576 157.343824 
L 58.665151 157.309081 
L 58.737251 157.517537 
L 58.773301 157.343824 
L 58.969003 157.378566 
L 58.971578 157.482794 
L 59.053979 157.274338 
L 59.074579 157.274338 
L 59.159555 157.100625 
L 59.079729 157.309081 
L 59.19303 157.17011 
L 59.24453 157.204853 
L 59.272856 157.03114 
L 59.298606 157.135368 
L 59.378431 156.892169 
L 59.414482 156.996397 
L 59.442807 157.065882 
L 59.530358 156.926912 
L 59.610183 156.787941 
L 59.643659 156.996397 
L 59.656534 157.065882 
L 59.713184 156.892169 
L 59.749234 156.926912 
L 59.759535 156.857426 
L 59.795585 157.065882 
L 59.84966 157.065882 
L 59.973261 157.135368 
L 60.083987 157.274338 
L 60.197288 157.135368 
L 60.217888 157.239596 
L 60.220463 157.274338 
L 60.259089 157.100625 
L 60.323464 157.17011 
L 60.45994 157.239596 
L 60.547491 157.378566 
L 60.570666 157.343824 
L 60.604141 157.239596 
L 60.673667 157.448051 
L 60.678817 157.378566 
L 60.740618 157.448051 
L 60.768943 157.274338 
L 60.781818 157.274338 
L 60.859069 157.17011 
L 60.864219 157.239596 
L 60.946619 154.529669 
L 61.121721 150.985919 
L 61.132021 150.881691 
L 61.278797 149.4225 
L 61.299397 149.318272 
L 61.505399 148.032794 
L 61.518274 148.032794 
L 61.64445 147.129485 
L 61.647025 147.198971 
L 61.737151 146.677831 
L 61.762901 146.573603 
L 61.770626 146.608346 
L 61.917402 145.948235 
L 61.932852 145.982978 
L 61.984353 145.566066 
L 61.997228 145.600809 
L 62.113104 145.253382 
L 62.118254 145.288125 
L 62.141429 145.21864 
L 62.26503 144.801728 
L 62.267605 144.871213 
L 62.329406 144.593272 
L 62.368031 144.593272 
L 62.483907 144.280588 
L 62.489057 144.315331 
L 62.581758 144.245846 
L 62.700209 143.863676 
L 62.728534 143.898419 
L 62.777459 143.689963 
L 62.798059 143.689963 
L 62.841835 143.655221 
L 62.955136 143.481507 
L 62.983461 143.377279 
L 63.107062 143.203566 
L 63.400614 143.099338 
L 63.477865 142.925625 
L 63.41864 143.134081 
L 63.51649 142.960368 
L 63.519065 143.029853 
L 63.552541 142.85614 
L 63.622066 142.85614 
L 63.776568 142.751912 
L 63.882143 142.612941 
L 63.786868 142.786654 
L 63.887293 142.682426 
L 63.931069 142.578199 
L 63.995444 142.717169 
L 64.077845 142.508713 
L 64.108745 142.543456 
L 64.11132 142.647684 
L 64.214321 142.439228 
L 64.216896 142.439228 
L 64.325047 142.508713 
L 64.265822 142.404485 
L 64.327622 142.439228 
L 64.443498 142.230772 
L 64.332772 142.473971 
L 64.448648 142.265515 
L 64.500148 142.369743 
L 64.456373 142.230772 
L 64.561949 142.300257 
L 64.7319 142.404485 
L 64.840051 142.578199 
L 64.73705 142.335 
L 64.845201 142.543456 
L 64.963652 142.404485 
L 64.979102 142.543456 
L 65.074378 142.439228 
L 65.076953 142.404485 
L 65.089828 142.578199 
L 65.174804 142.543456 
L 65.187679 142.612941 
L 65.26493 142.404485 
L 65.282955 142.508713 
L 65.31128 142.578199 
L 65.319005 142.647684 
L 65.396256 142.473971 
L 65.422006 142.578199 
L 65.424581 142.543456 
L 65.458056 142.682426 
L 65.532732 142.578199 
L 65.640883 142.612941 
L 65.697533 142.786654 
L 65.754184 142.717169 
L 65.774784 142.85614 
L 65.86491 142.751912 
L 65.94216 142.647684 
L 65.980786 142.682426 
L 66.083786 142.751912 
L 65.996236 142.647684 
L 66.091512 142.682426 
L 66.797067 142.578199 
L 66.879468 142.508713 
L 66.827968 142.612941 
L 66.907793 142.543456 
L 67.028819 142.682426 
L 67.124095 142.751912 
L 67.129245 142.85614 
L 67.201346 142.682426 
L 67.232246 142.682426 
L 67.317222 142.786654 
L 67.412497 142.925625 
L 67.373872 142.717169 
L 67.435673 142.890882 
L 67.438248 142.85614 
L 67.487173 143.029853 
L 67.543823 142.890882 
L 67.654549 143.029853 
L 67.657124 142.99511 
L 67.801326 142.925625 
L 67.917202 142.786654 
L 68.012477 142.717169 
L 68.020202 142.85614 
L 68.025352 142.821397 
L 68.089728 142.751912 
L 68.141228 142.925625 
L 68.174704 142.99511 
L 68.254529 142.85614 
L 68.37298 143.168824 
L 68.486281 142.99511 
L 68.849359 142.960368 
L 68.94206 142.85614 
L 68.854509 143.029853 
L 68.960085 142.925625 
L 68.970385 142.85614 
L 68.99356 142.99511 
L 69.070811 142.925625 
L 69.088836 142.85614 
L 69.184112 142.99511 
L 69.186687 142.890882 
L 69.227887 143.029853 
L 69.294838 142.960368 
L 69.351488 142.925625 
L 69.408139 143.064596 
L 69.629591 142.960368 
L 69.655341 143.064596 
L 69.742891 142.890882 
L 70.095669 142.925625 
L 70.17292 143.099338 
L 70.108544 142.890882 
L 70.206395 143.029853 
L 70.260471 142.960368 
L 70.283646 143.134081 
L 70.317121 143.029853 
L 70.394372 143.099338 
L 70.371197 142.925625 
L 70.427847 143.029853 
L 70.451022 143.134081 
L 70.505098 142.925625 
L 70.541148 143.099338 
L 70.584923 142.99511 
L 70.600374 143.168824 
L 70.649299 143.134081 
L 70.883626 143.064596 
L 70.989202 142.960368 
L 70.940276 143.134081 
L 70.991777 143.029853 
L 70.999502 142.99511 
L 71.107653 143.168824 
L 71.208079 143.064596 
L 71.275029 143.029853 
L 71.220954 143.168824 
L 71.316229 143.099338 
L 71.42438 143.168824 
L 71.329105 143.064596 
L 71.42953 143.134081 
L 71.733383 143.064596 
L 71.756558 142.99511 
L 71.820934 143.307794 
L 71.836384 143.168824 
L 71.939385 143.273051 
L 71.859559 143.134081 
L 71.949685 143.238309 
L 71.985735 143.168824 
L 71.990885 143.203566 
L 72.096461 143.064596 
L 72.173711 143.168824 
L 72.127361 142.99511 
L 72.209762 143.134081 
L 72.266412 143.099338 
L 72.294737 143.238309 
L 72.317913 143.134081 
L 72.395163 143.203566 
L 72.426064 143.064596 
L 72.428639 143.168824 
L 72.714466 143.238309 
L 72.809742 143.446765 
L 72.727341 143.203566 
L 72.827767 143.307794 
L 72.879267 143.203566 
L 72.987418 143.029853 
L 72.894717 143.238309 
L 72.997718 143.064596 
L 73.085269 143.203566 
L 73.111019 143.168824 
L 73.221745 143.064596 
L 73.22432 143.134081 
L 73.345346 143.273051 
L 73.461222 143.134081 
L 73.541048 143.203566 
L 73.649199 143.377279 
L 73.651774 143.307794 
L 73.654349 143.238309 
L 73.703274 143.412022 
L 73.762499 143.273051 
L 73.790825 143.412022 
L 73.85005 143.168824 
L 73.87065 143.203566 
L 73.883525 143.273051 
L 73.986526 143.134081 
L 74.089527 143.307794 
L 74.107552 143.273051 
L 74.231153 143.377279 
L 74.292954 143.446765 
L 74.249178 143.273051 
L 74.341879 143.412022 
L 74.43458 143.342537 
L 74.39338 143.481507 
L 74.45518 143.377279 
L 74.553031 143.446765 
L 74.48608 143.307794 
L 74.568481 143.412022 
L 74.594231 143.273051 
L 74.681782 143.377279 
L 74.735857 143.446765 
L 74.784783 143.273051 
L 74.787358 143.342537 
L 74.823408 143.203566 
L 74.880059 143.377279 
L 74.895509 143.377279 
L 74.98821 143.307794 
L 75.001085 143.377279 
L 75.10151 143.203566 
L 75.209661 143.377279 
L 75.214811 143.342537 
L 75.245712 143.446765 
L 75.286912 143.51625 
L 75.340987 143.377279 
L 75.351288 143.412022 
L 75.474889 143.203566 
L 75.521239 143.307794 
L 75.549564 143.168824 
L 75.585614 143.238309 
L 75.693765 143.134081 
L 75.611365 143.307794 
L 75.70149 143.168824 
L 75.750416 143.238309 
L 75.765866 143.099338 
L 75.809641 143.134081 
L 75.858567 143.064596 
L 75.892042 143.203566 
L 75.917792 143.168824 
L 76.054268 143.238309 
L 76.134094 143.342537 
L 76.164994 143.273051 
L 76.273145 143.203566 
L 76.183019 143.307794 
L 76.27572 143.273051 
L 76.350396 143.273051 
L 76.479147 150.325809 
L 77.298004 159.914779 
L 77.300579 159.880037 
L 77.372679 160.331691 
L 77.375254 160.331691 
L 77.382979 160.296949 
L 77.547781 161.235 
L 77.552931 161.165515 
L 77.635331 161.686654 
L 77.640481 161.651912 
L 77.810433 162.450993 
L 77.851633 162.555221 
L 78.011284 163.250074 
L 78.016434 163.215331 
L 78.098835 163.493272 
L 78.10656 163.458529 
L 78.232736 163.944926 
L 78.250761 163.805956 
L 78.325437 164.153382 
L 78.328012 164.11864 
L 78.464488 164.466066 
L 78.554614 164.500809 
L 78.662765 164.744007 
L 78.667915 164.639779 
L 78.703965 164.709265 
L 78.714265 164.674522 
L 78.822416 164.987206 
L 78.909967 164.952463 
L 78.899667 165.126176 
L 78.925417 165.091434 
L 79.087643 165.160919 
L 79.175194 165.404118 
L 79.203519 165.334632 
L 79.221544 165.404118 
L 79.324545 165.577831 
L 79.239569 165.369375 
L 79.33742 165.543088 
L 79.360595 165.508346 
L 79.401796 165.716801 
L 79.437846 165.647316 
L 79.538272 165.751544 
L 79.466171 165.612574 
L 79.553722 165.716801 
L 79.620673 165.786287 
L 79.731398 165.96 
L 79.736549 165.925257 
L 79.852424 165.751544 
L 79.857575 165.786287 
L 79.888475 165.96 
L 79.97345 165.855772 
L 80.140827 165.751544 
L 80.236103 165.716801 
L 80.225803 165.855772 
L 80.246403 165.821029 
L 80.429229 165.716801 
L 80.545105 165.577831 
L 80.439529 165.751544 
L 80.54768 165.612574 
L 80.612056 165.682059 
L 80.637806 165.508346 
L 80.650681 165.543088 
L 80.717632 165.369375 
L 80.655831 165.577831 
L 80.766557 165.43886 
L 80.792307 165.508346 
L 80.805182 165.369375 
L 80.877283 165.43886 
L 80.990584 165.29989 
L 80.892733 165.473603 
L 80.993159 165.369375 
L 81.206886 165.265147 
L 81.214611 165.334632 
L 81.320187 165.195662 
L 81.327912 165.230404 
L 81.407737 165.056691 
L 81.420612 165.091434 
L 81.544213 164.813493 
L 81.549363 164.848235 
L 81.551938 164.917721 
L 81.634339 164.744007 
L 81.654939 164.77875 
L 81.781115 164.466066 
L 81.78369 164.535551 
L 81.873816 164.500809 
L 81.989692 164.188125 
L 82.010292 164.292353 
L 82.041192 164.083897 
L 82.100418 164.188125 
L 82.169944 164.11864 
L 82.288394 163.875441 
L 82.32187 163.805956 
L 82.450621 163.284816 
L 82.478946 163.389044 
L 82.535597 163.07636 
L 82.551047 163.07636 
L 82.679798 162.728934 
L 82.684948 162.763676 
L 82.751898 162.728934 
L 82.867774 162.450993 
L 82.934725 162.555221 
L 82.960475 162.346765 
L 82.975925 162.41625 
L 83.030001 162.242537 
L 83.096951 162.277279 
L 83.264328 162.207794 
L 83.377628 161.999338 
L 83.380203 162.034081 
L 83.490929 161.964596 
L 83.60423 161.75614 
L 83.617105 161.825625 
L 83.663456 161.651912 
L 83.707231 161.651912 
L 83.748431 161.547684 
L 83.761307 161.617169 
L 83.879758 161.269743 
L 83.985333 161.373971 
L 83.905508 161.200257 
L 83.995634 161.339228 
L 84.134685 161.269743 
L 84.258286 160.887574 
L 84.260861 160.957059 
L 84.348411 160.71386 
L 84.361287 160.748603 
L 84.484888 160.540147 
L 84.510638 160.609632 
L 84.585313 160.435919 
L 84.587888 160.505404 
L 84.603338 160.401176 
L 84.657414 160.609632 
L 84.698614 160.435919 
L 84.701189 160.57489 
L 84.76814 160.331691 
L 84.806765 160.366434 
L 84.925216 160.05375 
L 84.84539 160.401176 
L 84.935516 160.123235 
L 84.953541 160.019007 
L 85.069417 159.845294 
L 84.958691 160.05375 
L 85.074567 159.880037 
L 85.110618 159.914779 
L 85.172418 159.706324 
L 85.177568 159.775809 
L 85.252244 159.706324 
L 85.270269 159.845294 
L 85.285719 159.810551 
L 85.319194 159.706324 
L 85.44022 159.428382 
L 85.442795 159.53261 
L 85.471121 159.428382 
L 85.581847 159.219926 
L 85.586997 159.289412 
L 85.597297 159.254669 
L 85.713173 159.046213 
L 85.726048 159.115699 
L 85.795573 158.976728 
L 85.821323 159.011471 
L 85.829049 159.080956 
L 85.944925 158.803015 
L 85.975825 158.907243 
L 86.027325 158.698787 
L 86.0505 158.803015 
L 86.107151 158.559816 
L 86.166376 158.664044 
L 86.271952 158.455588 
L 86.181826 158.733529 
L 86.287402 158.525074 
L 86.395553 158.629301 
L 86.331178 158.455588 
L 86.403278 158.594559 
L 86.441904 158.664044 
L 86.526879 158.420846 
L 86.534604 158.455588 
L 86.61958 158.247132 
L 86.627305 158.281875 
L 86.653055 158.21239 
L 86.678806 158.281875 
L 86.763781 158.108162 
L 86.771506 158.21239 
L 86.820432 158.003934 
L 86.871932 158.038676 
L 86.946608 158.177647 
L 86.982658 158.108162 
L 87.090809 157.934449 
L 87.095959 157.969191 
L 87.150034 157.934449 
L 87.21441 158.108162 
L 87.312261 157.864963 
L 87.332861 157.899706 
L 87.538863 157.795478 
L 87.654739 157.587022 
L 87.546588 157.830221 
L 87.659889 157.621765 
L 87.688214 157.656507 
L 87.703664 157.517537 
L 87.762889 157.517537 
L 87.853015 157.413309 
L 87.914816 157.378566 
L 87.953441 157.517537 
L 87.958591 157.448051 
L 88.002366 157.552279 
L 88.053867 157.343824 
L 88.066742 157.413309 
L 88.146568 157.309081 
L 88.151718 157.343824 
L 88.265019 157.204853 
L 88.301069 157.309081 
L 88.319094 157.135368 
L 88.373169 157.17011 
L 88.42467 157.100625 
L 88.540546 156.926912 
L 88.543121 156.961654 
L 88.612646 156.822684 
L 88.643547 156.822684 
L 88.870149 156.753199 
L 88.960274 156.475257 
L 88.9886 156.544743 
L 89.03495 156.683713 
L 89.08645 156.475257 
L 89.094175 156.475257 
L 89.153401 156.405772 
L 89.271852 156.197316 
L 89.282152 156.266801 
L 89.372278 156.023603 
L 89.377428 156.127831 
L 89.511329 155.676176 
L 89.519054 155.710919 
L 89.65038 155.641434 
L 89.758531 155.537206 
L 89.719906 155.710919 
L 89.761106 155.606691 
L 89.786856 155.676176 
L 89.879557 155.467721 
L 89.949082 155.745662 
L 90.005733 155.676176 
L 90.131909 155.467721 
L 90.191134 155.502463 
L 90.227185 155.32875 
L 90.23491 155.398235 
L 90.26581 155.32875 
L 90.330186 155.537206 
L 90.340486 155.467721 
L 90.355936 155.432978 
L 90.453787 155.537206 
L 90.525887 155.432978 
L 90.556787 155.606691 
L 90.561937 155.502463 
L 90.579963 155.641434 
L 90.613438 155.467721 
L 90.675238 155.606691 
L 90.775664 155.432978 
L 90.793689 155.467721 
L 90.806564 155.398235 
L 90.90699 155.537206 
L 91.007416 155.189779 
L 91.035741 155.259265 
L 91.038316 155.294007 
L 91.079517 155.050809 
L 91.131017 155.050809 
L 91.267493 155.016066 
L 91.349894 154.877096 
L 91.378219 154.946581 
L 91.463195 154.911838 
L 91.576496 154.738125 
L 91.646021 154.66864 
L 91.759322 154.494926 
L 91.761897 154.599154 
L 91.862323 154.286471 
L 91.864898 154.286471 
L 91.913824 154.355956 
L 91.949874 154.078015 
L 91.965324 154.1475 
L 92.083775 154.043272 
L 92.173901 153.939044 
L 92.1121 154.078015 
L 92.199651 153.973787 
L 92.312952 153.904301 
L 92.426253 153.730588 
L 92.570454 153.62636 
L 92.69148 153.48739 
L 92.699205 153.556875 
L 92.791906 153.348419 
L 92.961857 153.278934 
L 93.057133 153.174706 
L 93.075158 153.209449 
L 93.245109 153.174706 
L 93.335235 152.96625 
L 93.35841 153.000993 
L 93.36871 153.035735 
L 93.445961 152.827279 
L 93.456261 152.862022 
L 93.574712 152.618824 
L 93.582437 152.653566 
L 93.649388 152.584081 
L 93.767839 152.340882 
L 93.793589 152.410368 
L 93.824489 152.236654 
L 93.87599 152.30614 
L 94.133492 152.236654 
L 94.244218 152.132426 
L 94.277693 152.201912 
L 94.326618 151.923971 
L 94.347218 151.958713 
L 94.372969 151.854485 
L 94.385844 151.923971 
L 94.499145 151.646029 
L 94.594421 151.750257 
L 94.602146 151.576544 
L 94.609871 151.646029 
L 94.761797 151.541801 
L 94.800422 151.368088 
L 94.766947 151.576544 
L 94.872523 151.472316 
L 94.893123 151.541801 
L 94.885398 151.437574 
L 94.983249 151.507059 
L 95.088825 151.26386 
L 95.099125 151.333346 
L 95.1017 151.402831 
L 95.112 151.229118 
L 95.204701 151.26386 
L 95.294826 151.159632 
L 95.209851 151.298603 
L 95.315426 151.26386 
L 95.351477 151.194375 
L 95.469928 150.985919 
L 95.500828 151.090147 
L 95.570354 150.951176 
L 95.578079 150.985919 
L 95.621854 151.090147 
L 95.699105 150.812206 
L 95.72743 150.881691 
L 95.750605 150.707978 
L 95.80468 150.742721 
L 96.118833 150.638493 
L 96.234709 150.499522 
L 96.123983 150.707978 
L 96.237284 150.534265 
L 96.239859 150.60375 
L 96.293934 150.360551 
L 96.34286 150.395294 
L 96.739413 150.325809 
L 96.783188 150.360551 
L 96.852714 150.152096 
L 96.96344 150.221581 
L 97.017515 150.08261 
L 97.032966 150.256324 
L 97.071591 150.256324 
L 97.174592 150.291066 
L 97.084466 150.186838 
L 97.182317 150.256324 
L 97.305918 150.047868 
L 97.421794 150.221581 
L 97.424369 150.152096 
L 97.735946 150.047868 
L 97.779722 149.94364 
L 97.743671 150.08261 
L 97.846672 150.013125 
L 97.859547 150.047868 
L 97.941948 149.804669 
L 98.449227 149.769926 
L 98.523903 149.596213 
L 98.562528 149.630956 
L 98.598578 149.665699 
L 98.642354 149.526728 
L 98.668104 149.561471 
L 98.79428 149.353015 
L 98.917881 149.248787 
L 98.977107 149.144559 
L 99.028607 149.214044 
L 99.113583 149.248787 
L 99.095557 149.144559 
L 99.134183 149.214044 
L 99.206283 149.075074 
L 99.247484 149.144559 
L 99.34791 149.075074 
L 99.463786 148.936103 
L 99.559061 149.005588 
L 99.546186 148.831875 
L 99.571936 148.90136 
L 99.680087 148.727647 
L 99.597687 148.936103 
L 99.690387 148.76239 
L 99.752188 148.831875 
L 99.788238 148.692904 
L 99.798538 148.727647 
L 99.865489 148.623419 
L 99.873214 148.692904 
L 99.98909 148.414963 
L 100.007115 148.484449 
L 100.074066 148.275993 
L 100.094666 148.345478 
L 100.187366 148.24125 
L 100.207967 148.310735 
L 100.228567 148.380221 
L 100.305817 148.137022 
L 100.308392 148.171765 
L 100.413968 147.998051 
L 100.429418 148.032794 
L 100.522119 147.928566 
L 100.532419 147.998051 
L 100.648295 147.72011 
L 100.67662 147.615882 
L 100.694646 147.546397 
L 100.704946 147.685368 
L 100.789921 147.58114 
L 100.880047 147.476912 
L 100.908372 147.372684 
L 100.946998 147.58114 
L 100.988198 147.442169 
L 100.993348 147.58114 
L 101.029398 147.407426 
L 101.098924 147.442169 
L 101.124674 147.511654 
L 101.212225 147.337941 
L 101.2148 147.407426 
L 101.297201 147.129485 
L 101.312651 147.164228 
L 101.320376 147.198971 
L 101.433677 146.851544 
L 101.454277 146.955772 
L 101.490327 146.782059 
L 101.546978 146.886287 
L 101.552128 146.851544 
L 101.603628 146.990515 
L 101.655128 146.921029 
L 101.660279 146.990515 
L 101.752979 146.816801 
L 101.758129 146.816801 
L 101.904906 146.782059 
L 102.015631 146.608346 
L 102.018206 146.643088 
L 102.146958 146.573603 
L 102.257683 146.39989 
L 102.170133 146.608346 
L 102.260258 146.469375 
L 102.473985 146.434632 
L 102.484285 146.469375 
L 102.587286 146.260919 
L 102.618186 146.156691 
L 102.633637 146.121949 
L 102.685137 146.295662 
L 102.718612 146.260919 
L 102.726337 146.330404 
L 102.816463 146.121949 
L 102.819038 146.156691 
L 102.929764 145.844007 
L 102.937489 145.913493 
L 102.945214 145.982978 
L 103.017315 145.739779 
L 103.037915 145.809265 
L 103.09199 145.635551 
L 103.05594 145.87875 
L 103.153791 145.705037 
L 103.200141 145.844007 
L 103.272242 145.809265 
L 103.380393 145.635551 
L 103.393268 145.670294 
L 103.416443 145.600809 
L 103.529744 145.322868 
L 103.534894 145.35761 
L 103.612145 145.427096 
L 103.560644 145.322868 
L 103.64562 145.35761 
L 103.728021 145.253382 
L 103.841321 145.114412 
L 103.843896 145.149154 
L 103.846471 145.21864 
L 103.939172 144.975441 
L 103.946897 144.975441 
L 103.970073 144.905956 
L 104.085948 144.766985 
L 104.194099 144.871213 
L 104.124574 144.662757 
L 104.199249 144.836471 
L 104.29195 144.6975 
L 104.315125 144.766985 
L 104.3177 144.871213 
L 104.328 144.6975 
L 104.423276 144.6975 
L 104.621553 144.593272 
L 104.734854 144.350074 
L 104.747729 144.384816 
L 104.750304 144.454301 
L 104.812104 144.17636 
L 104.85073 144.17636 
L 104.935705 144.002647 
L 104.966606 144.072132 
L 104.969181 144.141618 
L 105.064456 143.898419 
L 105.074757 144.002647 
L 105.085057 144.03739 
L 105.198358 143.794191 
L 105.224108 143.898419 
L 105.255008 143.759449 
L 105.306508 143.794191 
L 105.419809 143.585735 
L 105.427534 143.655221 
L 105.530535 143.550993 
L 105.615511 143.412022 
L 105.643836 143.481507 
L 105.648986 143.51625 
L 105.708212 143.342537 
L 105.746837 143.412022 
L 105.764862 143.446765 
L 105.865288 143.307794 
L 105.911638 143.238309 
L 105.937389 143.273051 
L 106.024939 143.099338 
L 106.048115 143.168824 
L 106.10219 142.99511 
L 106.130515 142.99511 
L 106.202616 142.890882 
L 106.310767 142.717169 
L 106.323642 142.751912 
L 106.336517 142.821397 
L 106.408618 142.508713 
L 106.413768 142.543456 
L 106.452393 142.335 
L 106.529644 142.369743 
L 106.594019 142.404485 
L 106.617194 142.230772 
L 106.630069 142.230772 
L 106.663545 142.196029 
L 106.776846 142.022316 
L 106.825771 142.126544 
L 106.854096 141.918088 
L 106.884996 141.987574 
L 106.921047 141.779118 
L 107.000872 141.848603 
L 107.083273 141.987574 
L 107.114173 141.918088 
L 107.186274 141.848603 
L 107.304725 141.605404 
L 107.32275 141.709632 
L 107.3691 141.501176 
L 107.402576 141.501176 
L 107.510727 141.223235 
L 107.521027 141.257978 
L 107.585402 141.396949 
L 107.631753 141.292721 
L 107.703853 141.188493 
L 107.670378 141.362206 
L 107.742478 141.257978 
L 107.745053 141.327463 
L 107.786254 141.119007 
L 107.848054 141.119007 
L 107.91243 141.15375 
L 107.920155 141.049522 
L 107.956205 141.119007 
L 108.079806 140.841066 
L 108.084956 140.875809 
L 108.092681 140.945294 
L 108.164782 140.702096 
L 108.190532 140.841066 
L 108.283233 140.424154 
L 108.308983 140.563125 
L 108.388809 140.63261 
L 108.316708 140.49364 
L 108.419709 140.563125 
L 108.52786 140.458897 
L 108.430009 140.597868 
L 108.530435 140.528382 
L 108.597385 140.563125 
L 108.625711 140.354669 
L 108.695236 140.285184 
L 108.646311 140.389412 
L 108.733862 140.354669 
L 108.736437 140.424154 
L 108.836862 140.180956 
L 108.839437 140.215699 
L 108.849738 140.250441 
L 108.924413 139.9725 
L 108.934713 140.007243 
L 109.009389 139.937757 
L 109.089215 139.764044 
L 109.066039 139.9725 
L 109.120115 139.798787 
L 109.220541 139.903015 
L 109.161315 139.729301 
L 109.230841 139.833529 
L 109.233416 139.868272 
L 109.297791 139.659816 
L 109.333842 139.764044 
L 109.426542 139.625074 
L 109.351867 139.798787 
L 109.452293 139.659816 
L 109.72782 139.555588 
L 109.856571 139.31239 
L 109.946697 139.208162 
L 110.044547 138.930221 
L 110.072873 138.999706 
L 110.093473 139.034449 
L 110.160423 138.860735 
L 110.181023 138.964963 
L 110.209349 138.860735 
L 110.219649 138.930221 
L 110.3278 138.582794 
L 110.3896 138.756507 
L 110.3484 138.548051 
L 110.441101 138.721765 
L 110.538951 138.548051 
L 110.556977 138.582794 
L 110.670278 138.721765 
L 110.672853 138.687022 
L 110.716628 138.548051 
L 110.786153 138.582794 
L 110.788728 138.652279 
L 110.876279 138.443824 
L 110.891729 138.443824 
L 110.912329 138.582794 
L 111.002455 138.478566 
L 111.092581 138.27011 
L 111.123481 138.339596 
L 111.203307 138.235368 
L 111.311458 138.096397 
L 111.208457 138.339596 
L 111.319183 138.165882 
L 111.324333 138.200625 
L 111.404159 137.853199 
L 111.409309 137.887941 
L 111.53291 137.783713 
L 111.61016 137.540515 
L 111.53806 137.887941 
L 111.653936 137.61 
L 111.702861 137.679485 
L 111.756936 137.471029 
L 111.759511 137.505772 
L 111.859937 137.401544 
L 111.772387 137.575257 
L 111.875387 137.436287 
L 111.890838 137.540515 
L 111.965513 137.297316 
L 111.975813 137.297316 
L 112.078814 137.193088 
L 112.004138 137.332059 
L 112.089114 137.262574 
L 112.18954 137.193088 
L 112.305416 136.984632 
L 112.307991 137.054118 
L 112.385242 136.845662 
L 112.410992 136.880404 
L 112.472792 136.810919 
L 112.477942 136.845662 
L 112.586093 136.671949 
L 112.588668 136.741434 
L 112.650469 136.567721 
L 112.694244 136.637206 
L 112.75862 136.567721 
L 112.709694 136.671949 
L 112.807545 136.602463 
L 112.81012 136.671949 
L 112.864196 136.463493 
L 112.913121 136.498235 
L 112.959471 136.602463 
L 112.972346 136.671949 
L 113.044447 136.463493 
L 113.059897 136.498235 
L 113.067622 136.532978 
L 113.183498 136.255037 
L 113.276199 136.324522 
L 113.206673 136.220294 
L 113.294224 136.255037 
L 113.371475 136.150809 
L 113.412675 136.185551 
L 113.492501 135.942353 
L 113.544001 136.046581 
L 113.518251 135.90761 
L 113.603227 136.011838 
L 113.644427 135.942353 
L 113.665027 136.046581 
L 113.708802 136.011838 
L 113.742278 136.116066 
L 113.804078 135.942353 
L 113.819528 136.011838 
L 113.845279 136.011838 
L 113.847854 135.872868 
L 113.935404 136.116066 
L 113.953429 136.046581 
L 114.012655 135.977096 
L 114.107931 135.699154 
L 114.131106 135.76864 
L 114.280457 135.2475 
L 114.303632 135.143272 
L 114.419508 135.004301 
L 114.331958 135.212757 
L 114.422083 135.039044 
L 114.543109 134.969559 
L 114.66156 134.656875 
L 114.664135 134.691618 
L 114.669285 134.72636 
L 114.792886 134.448419 
L 114.859837 134.378934 
L 114.978288 134.031507 
L 114.980863 134.06625 
L 114.998888 134.100993 
L 115.073564 133.927279 
L 115.081289 133.962022 
L 115.20489 133.440882 
L 115.207465 133.510368 
L 115.295015 133.40614 
L 115.297591 133.371397 
L 115.374841 133.614596 
L 115.398016 133.510368 
L 115.405741 133.579853 
L 115.477842 133.40614 
L 115.501017 133.40614 
L 115.521617 133.336654 
L 115.588568 133.54511 
L 115.604018 133.510368 
L 115.833195 133.40614 
L 115.864095 133.267169 
L 115.89757 133.475625 
L 115.951646 133.301912 
L 116.067522 133.197684 
L 116.183398 133.023971 
L 116.185973 133.058713 
L 116.211723 133.128199 
L 116.258073 132.885 
L 116.286399 132.954485 
L 116.291549 132.885 
L 116.337899 133.058713 
L 116.39455 132.989228 
L 116.397125 133.023971 
L 116.479525 132.815515 
L 116.494975 132.885 
L 116.597976 132.780772 
L 116.523301 132.954485 
L 116.608276 132.850257 
L 116.664927 132.919743 
L 116.667502 132.989228 
L 116.749902 132.676544 
L 116.767928 132.746029 
L 116.811703 132.641801 
L 116.901829 132.502831 
L 116.925004 132.572316 
L 117.01513 132.36386 
L 116.976504 132.607059 
L 117.04088 132.502831 
L 117.05633 132.398603 
L 117.151606 132.537574 
L 117.169631 132.641801 
L 117.270057 132.398603 
L 117.272632 132.433346 
L 117.303532 132.22489 
L 117.378208 132.36386 
L 117.563609 132.259632 
L 117.69751 131.946949 
L 117.774761 132.016434 
L 117.720685 131.877463 
L 117.805661 131.946949 
L 117.808236 131.912206 
L 117.882912 132.120662 
L 117.908662 132.016434 
L 117.944712 132.085919 
L 117.967887 131.946949 
L 118.016813 132.016434 
L 118.083763 131.877463 
L 118.034838 132.051176 
L 118.132689 131.946949 
L 118.150714 132.016434 
L 118.199639 131.807978 
L 118.23054 131.807978 
L 118.25629 131.877463 
L 118.359291 131.564779 
L 118.361866 131.599522 
L 118.439116 131.356324 
L 118.449416 131.425809 
L 118.562717 131.078382 
L 118.565292 131.113125 
L 118.663143 130.869926 
L 118.570442 131.147868 
L 118.688893 130.939412 
L 118.85627 130.835184 
L 118.972146 130.5225 
L 118.977296 130.557243 
L 119.049396 130.453015 
L 119.144672 130.348787 
L 119.057121 130.487757 
L 119.162697 130.418272 
L 119.191022 130.348787 
L 119.250248 130.279301 
L 119.263123 130.383529 
L 119.301748 130.314044 
L 119.394449 130.244559 
L 119.50775 130.070846 
L 119.510325 130.105588 
L 119.53865 130.070846 
L 119.610751 130.244559 
L 119.651951 130.279301 
L 119.672551 130.140331 
L 119.716327 130.175074 
L 119.749802 130.279301 
L 119.852803 129.827647 
L 119.888853 129.86239 
L 119.912028 129.723419 
L 119.960954 129.792904 
L 120.089705 129.688676 
L 120.100005 129.723419 
L 120.221031 129.410735 
L 120.233906 129.306507 
L 120.367807 128.959081 
L 120.378107 129.028566 
L 120.460508 128.750625 
L 120.465658 128.785368 
L 120.501708 128.889596 
L 120.607284 128.959081 
L 120.576384 128.82011 
L 120.609859 128.889596 
L 120.74376 128.576912 
L 120.828736 128.611654 
L 120.813286 128.472684 
L 120.846761 128.507426 
L 120.954912 128.403199 
L 120.854486 128.576912 
L 120.960062 128.437941 
L 120.965212 128.472684 
L 121.029588 128.16 
L 121.050188 128.16 
L 121.083663 128.194743 
L 121.086238 128.298971 
L 121.181514 127.986287 
L 121.189239 128.021029 
L 121.32314 127.916801 
L 121.336015 127.882059 
L 121.395241 128.055772 
L 121.426141 127.951544 
L 121.477641 128.055772 
L 121.531717 127.882059 
L 121.534292 127.916801 
L 121.686218 127.360919 
L 121.714543 127.465147 
L 121.760894 127.49989 
L 121.812394 127.326176 
L 121.822694 127.430404 
L 121.94887 127.117721 
L 121.856169 127.49989 
L 121.95402 127.152463 
L 121.98492 127.082978 
L 122.100796 126.874522 
L 122.113671 126.805037 
L 122.167747 126.666066 
L 122.118822 126.839779 
L 122.224397 126.770294 
L 122.299073 126.839779 
L 122.265598 126.631324 
L 122.327398 126.700809 
L 122.337698 126.735551 
L 122.448424 126.561838 
L 122.5437 126.596581 
L 122.474174 126.45761 
L 122.551425 126.492353 
L 122.687901 126.040699 
L 122.693051 126.075441 
L 122.716226 126.005956 
L 122.834677 125.693272 
L 122.837252 125.728015 
L 122.868153 125.762757 
L 122.973729 125.380588 
L 123.022654 125.27636 
L 123.030379 125.311103 
L 123.15913 124.928934 
L 123.241531 125.033162 
L 123.20033 124.894191 
L 123.269856 124.928934 
L 123.308481 124.998419 
L 123.331656 125.067904 
L 123.406332 124.755221 
L 123.411482 124.824706 
L 123.496458 124.720478 
L 123.504183 124.755221 
L 123.614909 124.546765 
L 123.635509 124.650993 
L 123.71276 124.199338 
L 123.71791 124.234081 
L 123.761685 124.268824 
L 123.808035 124.025625 
L 123.81576 124.060368 
L 123.877561 123.990882 
L 124.006312 123.365515 
L 124.008887 123.435 
L 124.145363 123.052831 
L 124.147938 123.087574 
L 124.230339 122.844375 
L 124.243214 122.879118 
L 124.258664 122.948603 
L 124.40029 122.25375 
L 124.42089 122.149522 
L 124.472391 121.871581 
L 124.536766 121.975809 
L 124.565092 122.080037 
L 124.642342 122.288493 
L 124.670667 122.045294 
L 124.675817 122.114779 
L 124.804569 121.802096 
L 124.807144 121.871581 
L 124.840619 121.524154 
L 124.902419 121.524154 
L 124.98997 121.141985 
L 124.912719 121.59364 
L 125.02602 121.350441 
L 125.049196 121.419926 
L 125.162496 121.975809 
L 125.177947 121.906324 
L 125.224297 121.802096 
L 125.412274 120.759816 
L 125.419999 120.864044 
L 125.471499 120.169191 
L 125.474074 120.169191 
L 125.602825 119.578566 
L 125.6054 119.682794 
L 125.682651 118.397316 
L 125.829427 108.460919 
L 125.855177 14.76 
L 125.932428 126.874522 
L 126.001953 138.026912 
L 126.058604 137.123603 
L 126.259456 134.656875 
L 126.285206 134.552647 
L 126.493782 133.058713 
L 126.504083 133.093456 
L 126.506658 133.128199 
L 126.576183 132.607059 
L 126.722959 131.634265 
L 126.761585 131.530037 
L 126.900636 130.696213 
L 126.903211 130.730956 
L 126.965011 130.279301 
L 126.977886 130.279301 
L 127.163288 129.202279 
L 127.165863 129.237022 
L 127.191613 129.132794 
L 127.40019 127.812574 
L 127.41564 127.812574 
L 127.536666 127.013493 
L 127.539241 127.048235 
L 127.567566 126.944007 
L 127.696317 126.422868 
L 127.698892 126.45761 
L 127.770993 126.075441 
L 127.773568 126.075441 
L 127.899744 125.415331 
L 128.069695 124.546765 
L 128.07227 124.581507 
L 128.123771 124.477279 
L 128.319472 123.296029 
L 128.327197 123.330772 
L 128.391573 122.844375 
L 128.396723 122.879118 
L 128.540924 122.357978 
L 128.401873 122.91386 
L 128.543499 122.392721 
L 128.564099 122.288493 
L 128.759801 121.0725 
L 128.762376 121.141985 
L 128.847352 120.516618 
L 128.849927 120.516618 
L 129.174379 114.64511 
L 129.192405 111.865699 
L 129.22073 15.663309 
L 129.29283 120.342904 
L 129.359781 137.08886 
L 129.421581 136.220294 
L 129.635308 133.40614 
L 129.658483 133.336654 
L 129.82071 131.946949 
L 129.823285 132.016434 
L 129.905685 131.252096 
L 130.034436 130.591985 
L 130.039587 130.626728 
L 130.261038 129.098051 
L 130.263613 129.167537 
L 130.346014 128.542169 
L 130.351164 128.542169 
L 130.541716 127.430404 
L 130.562316 127.465147 
L 130.626691 127.082978 
L 130.629266 127.117721 
L 130.817243 126.040699 
L 130.822393 126.075441 
L 130.876468 125.658529 
L 130.894494 125.658529 
L 131.038695 124.720478 
L 131.06187 124.789963 
L 131.121095 124.407794 
L 131.12367 124.407794 
L 131.345122 122.91386 
L 131.381173 122.809632 
L 131.582024 121.59364 
L 131.589749 121.628382 
L 131.6567 121.107243 
L 131.659275 121.176728 
L 131.831801 119.474338 
L 131.839526 119.543824 
L 131.914202 118.71 
L 131.924502 118.640515 
L 132.140804 110.858162 
L 132.171704 16.60136 
L 132.24123 118.883713 
L 132.31333 136.220294 
L 132.367406 135.2475 
L 132.570832 132.746029 
L 132.805159 131.008897 
L 132.807734 131.078382 
L 132.89271 130.453015 
L 132.895285 130.487757 
L 132.90301 130.383529 
L 133.150212 128.472684 
L 133.152787 128.507426 
L 133.157937 128.472684 
L 133.294413 127.291434 
L 133.296988 127.326176 
L 133.320163 127.256691 
L 133.46694 126.283897 
L 133.47724 126.179669 
L 133.48239 126.214412 
L 133.714142 124.477279 
L 133.742467 124.407794 
L 133.891818 123.157059 
L 133.896968 123.191801 
L 133.914993 123.087574 
L 134.177646 120.933529 
L 134.180221 121.003015 
L 134.198246 120.898787 
L 134.339872 119.995478 
L 134.342447 120.030221 
L 134.399097 119.439596 
L 134.411972 119.474338 
L 134.700375 114.193456 
L 134.736425 107.800809 
L 134.76475 18.859632 
L 134.839426 120.898787 
L 134.911527 134.239963 
L 134.965602 133.475625 
L 135.107228 131.842721 
L 135.114953 131.877463 
L 135.132978 131.773235 
L 135.272029 130.591985 
L 135.274605 130.661471 
L 135.351855 130.00136 
L 135.357005 130.00136 
L 135.514081 128.715882 
L 135.550132 128.611654 
L 135.696908 127.604118 
L 135.714933 127.534632 
L 135.846259 126.666066 
L 136.062561 125.241618 
L 136.065136 125.27636 
L 136.121786 124.650993 
L 136.129512 124.650993 
L 136.137237 124.581507 
L 136.284013 123.052831 
L 136.289163 123.087574 
L 136.350963 122.496949 
L 136.356113 122.531691 
L 136.368989 122.427463 
L 136.505465 121.176728 
L 136.50804 121.211471 
L 136.52349 121.107243 
L 136.696016 119.439596 
L 136.698591 119.509081 
L 136.765542 118.744743 
L 136.778417 118.744743 
L 136.966393 115.617904 
L 137.038494 113.151176 
L 137.059094 105.889963 
L 137.087419 18.269007 
L 137.162095 120.829301 
L 137.241921 133.996765 
L 137.290846 133.058713 
L 137.298571 132.954485 
L 137.468523 131.04364 
L 137.478823 131.078382 
L 137.7183 129.34125 
L 137.726025 129.271765 
L 137.880526 127.986287 
L 137.883101 128.021029 
L 138.194678 125.311103 
L 138.212704 125.241618 
L 138.217854 125.27636 
L 138.367205 123.990882 
L 138.36978 124.025625 
L 138.43673 123.469743 
L 138.439305 123.504485 
L 138.586082 122.010551 
L 138.902809 119.23114 
L 138.915684 119.126912 
L 139.229837 113.429118 
L 139.265887 109.433713 
L 139.299363 19.241801 
L 139.368888 114.471397 
L 139.440989 132.676544 
L 139.497639 131.912206 
L 139.786042 129.514963 
L 139.798917 129.445478 
L 139.966293 127.882059 
L 139.968868 127.916801 
L 140.025519 127.291434 
L 140.028094 127.291434 
L 140.187745 125.936471 
L 140.19032 125.971213 
L 140.25727 125.415331 
L 140.259845 125.450074 
L 140.391172 124.268824 
L 140.398897 124.303566 
L 140.409197 124.199338 
L 140.77485 120.690331 
L 140.777425 120.725074 
L 140.78 120.759816 
L 140.8418 120.203934 
L 140.84695 120.203934 
L 141.034927 118.119375 
L 141.279554 113.32489 
L 141.328479 106.202647 
L 141.359379 20.839963 
L 141.43148 115.756875 
L 141.508731 131.18261 
L 141.560231 130.591985 
L 141.704432 129.063309 
L 141.707007 129.098051 
L 141.714732 129.098051 
L 141.840908 128.194743 
L 141.843483 128.229485 
L 141.900134 127.777831 
L 141.915584 127.777831 
L 142.06751 126.666066 
L 142.070085 126.700809 
L 142.139611 126.144926 
L 142.152486 126.040699 
L 142.420288 123.851912 
L 142.422863 123.886654 
L 142.425438 123.921397 
L 142.492389 123.330772 
L 142.494964 123.365515 
L 142.64174 121.871581 
L 143.29837 111.6225 
L 143.334421 100.33114 
L 143.362746 21.465331 
L 143.434847 115.652647 
L 143.499222 131.008897 
L 143.563598 129.931875 
L 144.039976 124.963676 
L 144.042552 124.998419 
L 144.106927 124.407794 
L 144.112077 124.442537 
L 144.428805 121.663125 
L 144.433955 121.59364 
L 144.606481 119.89125 
L 144.616781 119.787022 
L 145.175561 110.753934 
L 145.216761 98.524522 
L 145.245086 22.472868 
L 145.317187 113.637574 
L 145.386713 129.792904 
L 145.445938 128.750625 
L 145.590139 127.187206 
L 145.592714 127.256691 
L 145.613314 127.152463 
L 145.772966 125.693272 
L 145.778116 125.7975 
L 145.857941 125.102647 
L 145.868241 125.13739 
L 146.027893 123.782426 
L 146.040768 123.678199 
L 146.589247 117.737206 
L 146.594397 117.771949 
L 146.643323 116.972868 
L 146.645898 117.00761 
L 146.9549 111.344559 
L 147.006401 104.812941 
L 147.039876 22.855037 
L 147.109402 110.545478 
L 147.194377 128.82011 
L 147.238153 128.090515 
L 147.418404 126.179669 
L 147.420979 126.214412 
L 147.47763 125.623787 
L 147.485355 125.623787 
L 147.773757 123.226544 
L 147.778907 123.296029 
L 147.858733 122.601176 
L 148.14456 120.238676 
L 148.147135 120.273419 
L 148.211511 119.682794 
L 148.214086 119.682794 
L 148.224386 119.578566 
L 148.407212 117.563493 
L 148.409787 117.632978 
L 148.489613 116.86864 
L 148.492188 116.86864 
L 148.806341 111.136103 
L 148.857841 105.681507 
L 148.893891 24.036287 
L 148.960842 106.828015 
L 149.035517 128.368456 
L 149.089593 127.395662 
L 149.094743 127.291434 
L 149.421771 124.338309 
L 149.426921 124.373051 
L 149.486146 123.747684 
L 149.488721 123.747684 
L 149.501596 123.643456 
L 149.836349 120.620846 
L 149.856949 120.516618 
L 150.021751 119.022684 
L 150.024326 119.092169 
L 150.104151 118.258346 
L 150.109301 118.293088 
L 150.163377 117.737206 
L 150.168527 117.771949 
L 150.307578 116.208529 
L 150.317878 116.139044 
L 150.660356 104.396029 
L 150.696406 25.009081 
L 150.763357 107.383897 
L 150.848332 127.847316 
L 150.892108 127.082978 
L 151.062059 124.650993 
L 151.072359 124.581507 
L 151.22686 123.365515 
L 151.237161 123.261287 
L 151.551313 120.516618 
L 151.577063 120.447132 
L 151.747015 118.848971 
L 151.74959 118.918456 
L 151.824265 117.980404 
L 152.323819 109.850625 
L 152.372745 100.261654 
L 152.40622 25.564963 
L 152.475746 108.252463 
L 152.542696 126.666066 
L 152.604497 125.589044 
L 152.782173 123.782426 
L 152.784748 123.817169 
L 152.851699 123.261287 
L 153.00105 122.219007 
L 153.003625 122.25375 
L 153.070576 121.663125 
L 153.073151 121.697868 
L 153.088601 121.59364 
L 153.976983 108.113493 
L 154.005308 97.794926 
L 154.038784 26.746213 
L 154.108309 108.59989 
L 154.182985 126.214412 
L 154.239635 125.033162 
L 154.388986 122.844375 
L 154.391561 122.91386 
L 154.473962 122.219007 
L 154.734039 120.099706 
L 154.736614 120.134449 
L 154.739189 120.169191 
L 154.80099 119.543824 
L 154.80614 119.578566 
L 154.986391 117.598235 
L 154.988966 117.667721 
L 155.063642 116.86864 
L 155.068792 116.86864 
L 155.200118 115.409449 
L 155.516846 109.676912 
L 155.594096 102.69364 
L 155.635297 27.197868 
L 155.702247 103.631691 
L 155.792373 124.546765 
L 155.836148 124.025625 
L 155.841298 123.95614 
L 156.0061 122.427463 
L 156.008675 122.462206 
L 156.07305 121.906324 
L 156.0782 121.975809 
L 156.237852 120.655588 
L 156.250727 120.586103 
L 156.392353 119.335368 
L 156.405228 119.23114 
L 157.175159 107.349154 
L 157.229235 94.56386 
L 157.26271 28.726544 
L 157.332236 105.889963 
L 157.414636 123.990882 
L 157.463562 122.91386 
L 157.466137 122.948603 
L 157.520212 122.219007 
L 157.522787 122.25375 
L 157.666988 121.350441 
L 157.674713 121.246213 
L 157.906465 119.613309 
L 157.91419 119.509081 
L 158.068692 118.293088 
L 158.089292 118.293088 
L 158.230918 116.625441 
L 158.233493 116.660184 
L 158.287568 115.895846 
L 158.290143 115.965331 
L 158.444645 114.193456 
L 158.769097 102.658897 
L 158.799998 40.504301 
L 158.812873 29.247684 
L 158.877248 98.211838 
L 158.967374 124.129853 
L 159.011149 123.504485 
L 159.405128 119.682794 
L 159.425728 119.578566 
L 159.603404 117.771949 
L 159.613704 117.702463 
L 159.768206 116.521213 
L 159.775931 116.416985 
L 159.943307 114.888309 
L 159.945882 114.923051 
L 160.002533 114.193456 
L 160.015408 114.089228 
L 160.337285 108.252463 
L 160.414536 103.284265 
L 160.440286 85.843456 
L 160.468611 29.873051 
L 160.540712 106.515331 
L 160.612813 122.462206 
L 160.669463 121.628382 
L 160.818814 120.030221 
L 160.821389 120.064963 
L 160.906365 119.717537 
L 160.93984 119.648051 
L 161.071166 118.814228 
L 161.235968 117.355037 
L 161.52952 114.64511 
L 161.537245 114.749338 
L 161.53982 114.784081 
L 161.596471 114.123971 
L 161.599046 114.123971 
L 162.062549 106.37636 
L 162.116625 99.914228 
L 162.1604 30.602647 
L 162.224776 100.539596 
L 162.309751 122.219007 
L 162.356102 121.489412 
L 162.361252 121.419926 
L 162.533778 119.543824 
L 162.538928 119.578566 
L 162.554378 119.509081 
L 162.70373 118.466801 
L 162.706305 118.501544 
L 162.773255 118.015147 
L 162.891706 117.077096 
L 162.904581 117.111838 
L 162.917456 117.00761 
L 163.566362 106.793272 
L 163.641037 99.323603 
L 163.684813 31.679669 
L 163.749188 97.204301 
L 163.847039 120.898787 
L 163.883089 120.377647 
L 164.176642 117.910919 
L 164.189517 117.841434 
L 164.331143 116.521213 
L 164.338868 116.555956 
L 164.387794 115.895846 
L 164.392944 115.895846 
L 164.766322 112.317353 
L 164.768897 112.352096 
L 164.815247 111.518272 
L 165.090774 106.306875 
L 165.157725 101.51239 
L 165.188625 79.72875 
L 165.21695 32.339779 
L 165.289051 102.137757 
L 165.363727 121.141985 
L 165.422952 120.41239 
L 165.572303 118.848971 
L 165.592903 118.814228 
L 165.721654 118.015147 
L 165.72423 118.084632 
L 165.80663 117.320294 
L 166.030657 115.756875 
L 166.038382 115.791618 
L 166.107908 115.305221 
L 166.666687 106.272132 
L 166.733638 94.668088 
L 166.772263 32.339779 
L 166.839214 99.254118 
L 166.942215 120.342904 
L 166.973115 119.995478 
L 167.264092 117.424522 
L 167.269242 117.494007 
L 167.271817 117.52875 
L 167.331043 117.042353 
L 167.343918 117.042353 
L 167.650345 114.297684 
L 167.65292 114.332426 
L 167.655495 114.367169 
L 167.725021 113.846029 
L 167.920723 111.553015 
L 167.925873 111.587757 
L 167.969648 110.753934 
L 167.972223 110.753934 
L 167.977373 110.719191 
L 168.276075 94.911287 
L 168.317276 33.972684 
L 168.384226 96.856875 
L 168.479502 118.953199 
L 168.518127 118.327831 
L 168.662329 116.903382 
L 168.670054 116.972868 
L 168.731854 116.451728 
L 168.742154 116.521213 
L 168.876055 115.895846 
L 169.270034 111.969926 
L 169.272609 112.004669 
L 169.275184 112.039412 
L 169.326684 111.275074 
L 169.329259 111.275074 
L 169.599636 106.202647 
L 169.730962 90.151544 
L 169.769588 34.632794 
L 169.836538 94.320662 
L 169.934389 117.632978 
L 169.973014 117.355037 
L 170.124941 116.243272 
L 170.130091 116.278015 
L 170.199616 115.791618 
L 170.343817 115.235735 
L 170.346392 115.305221 
L 170.385018 115.200993 
L 170.554969 113.602831 
L 170.557544 113.637574 
L 170.61162 112.977463 
L 170.61677 113.046949 
L 170.768696 111.344559 
L 171.111174 105.229853 
L 171.2322 93.417353 
L 171.275975 36.856324 
L 171.342926 93.24364 
L 171.438201 117.00761 
L 171.479402 116.764412 
L 171.767804 114.367169 
L 171.772954 114.471397 
L 171.850205 113.985 
L 171.860505 114.054485 
L 172.128307 111.726728 
L 172.146332 111.6225 
L 172.630436 103.596949 
L 172.694812 99.010919 
L 172.736012 73.405588 
L 172.764337 37.030037 
L 172.833863 96.231507 
L 172.939439 116.416985 
L 172.970339 115.930588 
L 172.975489 116.000074 
L 173.045015 115.444191 
L 173.05789 115.374706 
L 173.196941 114.610368 
L 173.199516 114.64511 
L 173.261316 114.054485 
L 173.263891 114.054485 
L 173.536844 111.830956 
L 173.539419 111.865699 
L 173.606369 111.309816 
L 173.608944 111.309816 
L 173.804646 108.912574 
L 173.807221 108.947316 
L 174.149699 102.936838 
L 174.242399 88.032243 
L 174.2836 39.496765 
L 174.35055 89.665147 
L 174.461276 114.50614 
L 174.492176 114.332426 
L 174.538527 114.228199 
L 174.672428 113.568088 
L 174.685303 113.46386 
L 174.716203 113.359632 
L 174.741954 113.533346 
L 174.793454 113.46386 
L 174.801179 113.533346 
L 174.86813 113.046949 
L 174.870705 113.046949 
L 175.014906 112.14364 
L 175.017481 112.178382 
L 175.068981 111.448787 
L 175.074131 111.448787 
L 175.084431 111.379301 
L 175.236358 110.128566 
L 175.238933 110.163309 
L 175.259533 110.198051 
L 175.295583 109.468456 
L 175.632911 103.423235 
L 175.753937 90.950625 
L 175.802862 40.122132 
L 175.867238 89.144007 
L 175.977964 113.637574 
L 176.008864 113.394375 
L 176.019164 113.290147 
L 176.032039 113.32489 
L 176.178815 112.595294 
L 176.189115 112.699522 
L 176.240616 112.386838 
L 176.286966 112.491066 
L 176.304991 112.525809 
L 176.361642 112.247868 
L 176.384817 112.317353 
L 176.516143 111.483529 
L 176.531593 111.414044 
L 176.70412 109.676912 
L 176.706695 109.711654 
L 176.77622 109.225257 
L 176.953897 107.41864 
L 177.358175 100.47011 
L 177.448301 87.094191 
L 177.494651 41.511838 
L 177.556452 86.121397 
L 177.695503 112.699522 
L 177.703228 112.664779 
L 177.790779 112.386838 
L 177.831979 112.421581 
L 177.878329 112.352096 
L 178.01738 111.483529 
L 178.019955 111.518272 
L 178.189907 110.684449 
L 178.195057 110.753934 
L 178.256857 110.163309 
L 178.259432 110.198051 
L 178.388183 109.155772 
L 178.406209 109.051544 
L 178.934088 100.435368 
L 179.026789 92.444559 
L 179.070564 59.578015 
L 179.091164 43.978566 
L 179.158115 88.831324 
L 179.279141 111.448787 
L 179.299741 111.240331 
L 179.438792 110.545478 
L 179.312616 111.275074 
L 179.449092 110.580221 
L 179.451667 110.719191 
L 179.513468 110.510735 
L 179.557243 110.510735 
L 179.559818 110.545478 
L 179.616469 109.92011 
L 179.621619 109.92011 
L 179.74007 109.607426 
L 179.78127 109.676912 
L 179.783845 109.746397 
L 179.866246 109.155772 
L 179.873971 109.190515 
L 179.899721 109.086287 
L 180.34005 104.604485 
L 180.342625 104.639228 
L 180.399275 103.979118 
L 180.713428 87.233162 
L 180.770078 45.437757 
L 180.831879 83.93261 
L 180.95548 109.746397 
L 180.98123 109.607426 
L 181.086806 108.391434 
L 181.122856 108.669375 
L 181.249032 109.155772 
L 181.295382 109.225257 
L 181.362333 109.016801 
L 181.382933 108.947316 
L 181.498809 108.565147 
L 181.503959 108.634632 
L 181.519409 108.530404 
L 181.534859 108.565147 
L 181.666185 108.044007 
L 181.676485 107.974522 
L 181.843862 106.411103 
L 181.864462 106.306875 
L 182.142564 103.909632 
L 181.882487 106.37636 
L 182.150289 103.944375 
L 182.152864 103.979118 
L 182.199215 103.180037 
L 182.204365 103.180037 
L 182.412942 98.871949 
L 182.533968 89.69989 
L 182.606068 48.946765 
L 182.665294 82.195478 
L 182.79147 108.009265 
L 182.814645 107.800809 
L 182.81722 107.870294 
L 182.886745 107.140699 
L 182.902196 107.210184 
L 182.948546 107.314412 
L 183.064422 107.453382 
L 182.963996 107.244926 
L 183.066997 107.41864 
L 183.090172 107.314412 
L 183.206048 106.758529 
L 183.234373 106.862757 
L 183.254973 106.758529 
L 183.368274 106.202647 
L 183.381149 106.23739 
L 183.399175 106.306875 
L 183.4687 105.71625 
L 183.471275 105.750993 
L 184.434333 91.298051 
L 184.501284 87.406875 
L 184.514159 92.791985 
L 184.771661 126.561838 
L 184.985388 132.120662 
L 185.22229 135.525441 
L 185.235165 135.594926 
L 185.402541 137.158346 
L 185.412841 137.262574 
L 185.626568 138.721765 
L 185.631718 138.617537 
L 185.714119 139.138676 
L 185.721844 139.138676 
L 185.881495 139.868272 
L 185.88407 139.833529 
L 185.912395 139.937757 
L 185.917545 139.903015 
L 186.074622 140.63261 
L 186.141572 140.736838 
L 186.270323 141.223235 
L 186.43255 141.918088 
L 186.440275 141.848603 
L 186.522675 142.196029 
L 186.556151 142.300257 
L 186.677177 142.578199 
L 186.754427 142.682426 
L 186.865153 142.925625 
L 186.777602 142.647684 
L 186.878028 142.85614 
L 186.885753 142.821397 
L 186.963004 143.134081 
L 186.970729 143.099338 
L 187.001629 143.203566 
L 187.04798 143.307794 
L 187.009354 143.168824 
L 187.112355 143.273051 
L 187.11493 143.203566 
L 187.197331 143.412022 
L 187.220506 143.307794 
L 187.338957 143.585735 
L 187.349257 143.51625 
L 187.431658 143.794191 
L 187.436808 143.759449 
L 187.501183 143.794191 
L 187.606759 144.03739 
L 187.617059 144.002647 
L 187.68916 144.106875 
L 187.799886 144.17636 
L 187.70976 144.03739 
L 187.802461 144.141618 
L 187.972412 144.245846 
L 188.008462 144.350074 
L 188.067688 144.17636 
L 188.083138 144.245846 
L 188.088288 144.17636 
L 188.132063 144.315331 
L 188.191289 144.280588 
L 188.250514 144.211103 
L 188.302015 144.350074 
L 188.312315 144.245846 
L 188.381841 144.454301 
L 188.410166 144.350074 
L 188.459091 144.419559 
L 188.497716 144.245846 
L 188.523467 144.384816 
L 188.546642 144.280588 
L 188.629043 144.106875 
L 188.554367 144.315331 
L 188.659943 144.17636 
L 188.716593 144.245846 
L 188.742343 144.211103 
L 188.837619 144.523787 
L 188.881395 144.419559 
L 188.963795 144.454301 
L 189.002421 144.280588 
L 189.017871 144.245846 
L 189.118297 144.454301 
L 189.156922 144.523787 
L 189.252198 144.593272 
L 189.200697 144.454301 
L 189.265073 144.523787 
L 189.334598 144.419559 
L 189.324298 144.593272 
L 189.375799 144.523787 
L 189.5097 144.593272 
L 189.51485 144.6975 
L 189.584375 144.523787 
L 189.617851 144.558529 
L 189.702826 144.350074 
L 189.731152 144.454301 
L 189.800677 144.523787 
L 189.736302 144.384816 
L 189.839302 144.384816 
L 189.932003 144.454301 
L 189.893378 144.315331 
L 189.950028 144.419559 
L 190.063329 144.280588 
L 190.037579 144.454301 
L 190.068479 144.315331 
L 190.189505 144.315331 
L 190.284781 144.17636 
L 190.19723 144.350074 
L 190.300231 144.245846 
L 190.408382 144.315331 
L 190.511383 144.454301 
L 190.416107 144.280588 
L 190.521683 144.384816 
L 190.565458 144.454301 
L 190.609234 144.245846 
L 190.619534 144.245846 
L 190.72511 144.17636 
L 190.624684 144.280588 
L 190.732835 144.211103 
L 190.974887 144.106875 
L 191.000637 144.002647 
L 191.028962 144.17636 
L 191.083038 144.106875 
L 191.090763 144.211103 
L 191.098488 144.072132 
L 191.191189 144.072132 
L 191.327665 143.967904 
L 191.353415 143.794191 
L 191.443541 143.863676 
L 191.556842 144.03739 
L 191.559417 144.002647 
L 191.757693 144.106875 
L 191.824644 144.17636 
L 191.798894 144.002647 
L 191.863269 144.106875 
L 191.91992 144.17636 
L 191.97657 144.002647 
L 192.025495 144.072132 
L 192.076996 143.933162 
L 192.087296 144.002647 
L 192.151671 143.863676 
L 192.205747 143.898419 
L 192.267547 143.967904 
L 192.288148 144.03739 
L 192.303598 143.898419 
L 192.378273 144.002647 
L 192.499299 143.828934 
L 192.61775 144.002647 
L 192.620325 143.967904 
L 192.746501 144.03739 
L 192.764527 144.141618 
L 192.810877 143.967904 
L 192.854652 143.967904 
L 193.078679 143.933162 
L 193.099279 143.794191 
L 193.14563 144.002647 
L 193.19198 143.828934 
L 193.282106 143.933162 
L 193.235755 143.794191 
L 193.302706 143.828934 
L 193.377382 143.759449 
L 193.500983 143.412022 
L 193.606558 143.620478 
L 193.508708 143.377279 
L 193.616859 143.550993 
L 193.77136 143.655221 
L 193.80226 143.620478 
L 193.887236 143.724706 
L 193.972211 143.620478 
L 193.997962 143.689963 
L 194.031437 143.585735 
L 194.034012 143.550993 
L 194.062337 143.689963 
L 194.139588 143.585735 
L 194.258039 143.689963 
L 194.507816 143.794191 
L 194.615967 143.898419 
L 194.621117 143.863676 
L 194.639142 143.933162 
L 194.713818 143.759449 
L 194.731843 143.863676 
L 194.816818 143.655221 
L 194.845144 143.724706 
L 194.886344 143.863676 
L 194.922394 143.689963 
L 194.953294 143.689963 
L 195.282897 143.620478 
L 195.290622 143.550993 
L 195.331823 143.794191 
L 195.388473 143.759449 
L 195.421948 143.828934 
L 195.483749 143.655221 
L 195.499199 143.794191 
L 195.604775 143.620478 
L 195.6125 143.724706 
L 195.702626 143.481507 
L 195.630525 143.759449 
L 195.733526 143.51625 
L 195.754126 143.481507 
L 195.849402 143.655221 
L 196.003903 143.724706 
L 196.112054 143.898419 
L 196.011628 143.689963 
L 196.117204 143.794191 
L 196.189305 143.863676 
L 196.21248 143.724706 
L 196.22793 143.794191 
L 196.230505 143.689963 
L 196.25368 143.828934 
L 196.338656 143.759449 
L 196.433932 143.620478 
L 196.385006 143.794191 
L 196.457107 143.655221 
L 196.624483 143.550993 
L 196.639933 143.446765 
L 196.699159 143.689963 
L 196.730059 143.585735 
L 196.845935 143.724706 
L 196.742934 143.550993 
L 196.84851 143.689963 
L 196.89486 143.620478 
L 197.005586 143.412022 
L 197.010736 143.446765 
L 197.718867 143.550993 
L 197.760068 143.446765 
L 197.829593 143.585735 
L 197.873368 143.51625 
L 197.909419 143.724706 
L 197.935169 143.655221 
L 198.071645 143.759449 
L 198.112845 143.828934 
L 198.138596 143.689963 
L 198.182371 143.759449 
L 198.300822 143.550993 
L 198.349747 143.689963 
L 198.414123 143.620478 
L 198.550599 143.724706 
L 198.65875 143.794191 
L 198.607249 143.655221 
L 198.6639 143.759449 
L 198.717975 143.724706 
L 198.728275 143.863676 
L 198.772051 143.794191 
L 198.810676 143.759449 
L 198.890502 143.898419 
L 198.911102 143.794191 
L 198.998653 143.933162 
L 199.047578 143.828934 
L 199.111954 143.724706 
L 199.055303 143.863676 
L 199.160879 143.794191 
L 199.25873 143.898419 
L 199.178904 143.759449 
L 199.276755 143.863676 
L 199.379756 143.828934 
L 199.29478 143.967904 
L 199.382331 143.933162 
L 199.531682 144.002647 
L 199.637258 144.141618 
L 199.644983 144.106875 
L 199.750559 144.03739 
L 199.706784 144.211103 
L 199.755709 144.106875 
L 199.817509 144.002647 
L 199.820084 143.967904 
L 199.871585 144.141618 
L 199.917935 144.106875 
L 199.995186 144.17636 
L 199.961711 143.967904 
L 200.028661 144.106875 
L 200.293888 144.17636 
L 200.306763 144.141618 
L 200.407189 144.315331 
L 200.44839 144.17636 
L 200.492165 144.384816 
L 200.52049 144.280588 
L 200.901593 144.17636 
L 200.973694 144.280588 
L 201.014894 144.141618 
L 201.13077 144.315331 
L 201.6638 144.245846 
L 201.686975 144.141618 
L 201.72045 144.315331 
L 201.77195 144.280588 
L 201.867226 144.419559 
L 201.777101 144.245846 
L 201.885251 144.315331 
L 202.227729 144.280588 
L 202.230304 144.17636 
L 202.245754 144.384816 
L 202.338455 144.245846 
L 202.418281 144.211103 
L 202.400256 144.350074 
L 202.446606 144.280588 
L 202.449181 144.315331 
L 202.498106 144.106875 
L 202.547032 144.17636 
L 202.632008 143.933162 
L 202.670633 143.967904 
L 202.675783 143.898419 
L 202.783934 144.072132 
L 202.786509 144.002647 
L 202.838009 144.141618 
L 202.892085 144.106875 
L 203.002811 144.072132 
L 203.023411 143.967904 
L 203.062036 144.106875 
L 203.113536 144.072132 
L 203.51524 144.002647 
L 203.605366 143.898419 
L 203.522965 144.03739 
L 203.628541 143.933162 
L 203.849993 143.828934 
L 203.852568 143.794191 
L 203.932393 144.002647 
L 203.952993 143.898419 
L 203.981319 144.002647 
L 204.009644 143.863676 
L 204.063719 143.898419 
L 204.16157 143.828934 
L 204.269721 143.585735 
L 204.280021 143.620478 
L 204.318646 143.689963 
L 204.323796 143.620478 
L 204.431947 143.759449 
L 204.486023 143.863676 
L 204.524648 143.933162 
L 204.568423 143.794191 
L 204.594174 143.863676 
L 204.622499 143.794191 
L 204.650824 143.898419 
L 204.702325 143.898419 
L 205.073128 143.794191 
L 205.083428 143.863676 
L 205.186429 143.689963 
L 205.279129 143.828934 
L 205.245654 143.620478 
L 205.297154 143.759449 
L 205.395005 143.863676 
L 205.513456 144.072132 
L 205.405305 143.794191 
L 205.516031 144.03739 
L 205.595857 143.933162 
L 205.619032 144.106875 
L 205.624182 144.072132 
L 205.786408 144.002647 
L 205.817309 143.933162 
L 205.884259 144.106875 
L 205.894559 144.072132 
L 206.010435 143.933162 
L 206.01301 143.967904 
L 206.311713 144.03739 
L 206.396688 144.17636 
L 206.347763 143.967904 
L 206.422439 144.072132 
L 206.53059 143.967904 
L 206.471364 144.106875 
L 206.53574 144.03739 
L 206.818992 143.933162 
L 206.924568 143.863676 
L 206.883367 144.002647 
L 206.929718 143.898419 
L 206.955468 143.863676 
L 207.043019 143.967904 
L 207.084219 143.828934 
L 207.138295 144.002647 
L 207.153745 143.933162 
L 207.19237 143.863676 
L 207.272196 144.072132 
L 207.372621 143.898419 
L 207.390647 143.967904 
L 207.485922 143.863676 
L 207.501373 143.967904 
L 207.599223 143.828934 
L 207.653299 143.933162 
L 207.658449 143.967904 
L 207.699649 143.759449 
L 207.75115 143.863676 
L 207.810375 143.689963 
L 207.86445 143.724706 
L 207.944276 143.759449 
L 207.946851 143.863676 
L 207.954576 143.724706 
L 208.052427 143.794191 
L 208.142553 143.550993 
L 208.165728 143.689963 
L 208.230103 143.655221 
L 208.276454 143.794191 
L 208.351129 143.620478 
L 208.38718 143.724706 
L 208.41293 143.759449 
L 208.477306 143.51625 
L 208.487606 143.620478 
L 208.554556 143.51625 
L 208.526231 143.655221 
L 208.595756 143.655221 
L 208.598332 143.724706 
L 208.608632 143.550993 
L 208.703907 143.620478 
L 208.879009 143.51625 
L 208.951109 143.307794 
L 208.99231 143.377279 
L 209.113336 143.655221 
L 209.118486 143.620478 
L 209.121061 143.585735 
L 209.131361 143.689963 
L 209.226637 143.620478 
L 209.265262 143.689963 
L 209.283287 143.51625 
L 209.334788 143.585735 
L 209.396588 143.550993 
L 209.399163 143.446765 
L 209.489289 143.689963 
L 209.502164 143.655221 
L 209.60259 143.689963 
L 209.543364 143.585735 
L 209.61289 143.655221 
L 209.682415 143.446765 
L 209.61804 143.689963 
L 209.728766 143.550993 
L 209.847217 143.689963 
L 209.947643 143.585735 
L 209.901292 143.724706 
L 209.957943 143.655221 
L 210.045493 143.51625 
L 210.068669 143.620478 
L 210.089269 143.724706 
L 210.171669 143.550993 
L 210.174244 143.585735 
L 210.27982 143.273051 
L 210.184545 143.620478 
L 210.30042 143.377279 
L 210.305571 143.446765 
L 210.336471 143.273051 
L 210.411146 143.377279 
L 210.434322 143.307794 
L 210.472947 143.481507 
L 210.516722 143.412022 
L 210.583673 143.550993 
L 210.630023 143.446765 
L 210.632598 143.377279 
L 210.699549 143.620478 
L 210.733024 143.585735 
L 210.85405 143.828934 
L 210.946751 143.655221 
L 210.967351 143.724706 
L 211.060052 143.828934 
L 211.080652 143.620478 
L 211.168203 143.794191 
L 211.193953 143.724706 
L 211.320129 143.828934 
L 211.394804 143.933162 
L 211.410255 143.724706 
L 211.42828 143.794191 
L 211.49523 143.898419 
L 211.497805 143.933162 
L 211.536431 143.794191 
L 211.598231 143.828934 
L 211.600806 143.759449 
L 211.654882 143.933162 
L 211.706382 143.898419 
L 211.824833 144.002647 
L 211.902084 144.106875 
L 211.894359 143.967904 
L 211.932984 144.03739 
L 211.992209 143.898419 
L 211.951009 144.072132 
L 212.046285 143.967904 
L 212.11066 143.759449 
L 212.167311 143.828934 
L 212.236836 143.967904 
L 212.285762 143.933162 
L 212.404213 143.724706 
L 212.406788 143.759449 
L 212.409363 143.863676 
L 212.450563 143.655221 
L 212.517514 143.794191 
L 212.62824 143.620478 
L 212.63854 143.655221 
L 212.69004 143.550993 
L 212.775016 143.377279 
L 212.803341 143.51625 
L 213.037668 143.620478 
L 213.122644 143.794191 
L 213.156119 143.759449 
L 213.256545 143.550993 
L 213.27972 143.585735 
L 213.640223 143.51625 
L 213.694298 143.412022 
L 213.714899 143.550993 
L 213.750949 143.51625 
L 213.792149 143.412022 
L 213.846225 143.585735 
L 213.8591 143.550993 
L 213.928625 143.446765 
L 213.949225 143.377279 
L 214.005876 143.585735 
L 214.031626 143.550993 
L 214.191277 143.620478 
L 214.193852 143.689963 
L 214.217028 143.51625 
L 214.296853 143.585735 
L 214.358654 143.51625 
L 214.374104 143.689963 
L 214.405004 143.620478 
L 214.45908 143.689963 
L 214.53118 143.655221 
L 214.569806 143.759449 
L 214.585256 143.724706 
L 214.639331 143.863676 
L 214.675381 143.794191 
L 214.695982 143.828934 
L 214.742332 143.620478 
L 214.778382 143.689963 
L 214.786107 143.585735 
L 214.855633 143.794191 
L 214.883958 143.724706 
L 214.889108 143.794191 
L 214.966359 143.620478 
L 214.989534 143.689963 
L 215.035884 143.481507 
L 215.10541 143.620478 
L 215.252186 143.724706 
L 215.254761 143.759449 
L 215.270211 143.585735 
L 215.362912 143.724706 
L 215.409262 143.655221 
L 215.391237 143.794191 
L 215.471063 143.724706 
L 215.496813 143.794191 
L 215.545739 143.655221 
L 215.584364 143.759449 
L 215.625564 143.655221 
L 215.728565 143.585735 
L 215.635864 143.689963 
L 215.73629 143.655221 
L 215.764615 143.550993 
L 215.870191 143.481507 
L 215.787791 143.655221 
L 215.877916 143.51625 
L 215.986067 143.620478 
L 215.883066 143.481507 
L 215.991217 143.585735 
L 216.016967 143.620478 
L 216.107093 143.412022 
L 216.186919 143.585735 
L 216.217819 143.481507 
L 216.261594 143.377279 
L 216.235844 143.585735 
L 216.333695 143.412022 
L 216.34657 143.342537 
L 216.349145 143.273051 
L 216.452146 143.446765 
L 216.454721 143.412022 
L 216.516522 143.585735 
L 216.462446 143.377279 
L 216.568022 143.481507 
L 216.604072 143.412022 
L 216.650423 143.585735 
L 216.676173 143.51625 
L 216.792049 143.724706 
L 216.807499 143.655221 
L 216.88475 143.828934 
L 216.902775 143.724706 
L 217.206627 143.655221 
L 217.304478 143.585735 
L 217.234952 143.724706 
L 217.317353 143.620478 
L 217.430654 143.724706 
L 217.322503 143.585735 
L 217.433229 143.689963 
L 217.461554 143.585735 
L 217.52078 143.759449 
L 217.543955 143.689963 
L 217.652106 143.898419 
L 217.56713 143.655221 
L 217.659831 143.863676 
L 217.755107 143.759449 
L 217.670131 143.898419 
L 217.775707 143.794191 
L 217.876133 143.898419 
L 217.788582 143.724706 
L 217.886433 143.794191 
L 218.079559 143.759449 
L 218.16711 143.620478 
L 218.190285 143.724706 
L 218.262386 143.655221 
L 218.252086 143.759449 
L 218.301011 143.724706 
L 218.383412 143.863676 
L 218.331911 143.655221 
L 218.416887 143.794191 
L 218.525038 143.724706 
L 218.486413 143.828934 
L 218.527613 143.759449 
L 218.628039 143.828934 
L 218.540488 143.724706 
L 218.640914 143.794191 
L 218.700139 143.620478 
L 218.754215 143.759449 
L 218.864941 143.689963 
L 218.898416 143.759449 
L 218.978242 143.585735 
L 219.045192 143.724706 
L 218.991117 143.550993 
L 219.091543 143.655221 
L 219.171368 143.724706 
L 219.204844 143.550993 
L 219.261494 143.794191 
L 219.328445 143.759449 
L 219.421145 143.655221 
L 219.441746 143.724706 
L 219.467496 143.620478 
L 219.495821 143.550993 
L 219.542171 143.759449 
L 219.573072 143.689963 
L 219.663197 143.794191 
L 219.763623 143.898419 
L 219.691523 143.724706 
L 219.779073 143.863676 
L 219.851174 143.759449 
L 219.812549 143.933162 
L 219.889799 143.863676 
L 219.954175 143.655221 
L 220.0031 143.794191 
L 220.010825 143.759449 
L 220.121551 143.898419 
L 220.250302 143.967904 
L 220.288927 144.03739 
L 220.265752 143.898419 
L 220.361028 143.967904 
L 220.585055 143.898419 
L 220.652005 143.828934 
L 220.61338 143.967904 
L 220.695781 143.898419 
L 221.123234 143.794191 
L 221.15671 143.724706 
L 221.221085 143.898419 
L 221.231385 143.828934 
L 221.25971 143.898419 
L 221.285461 143.724706 
L 221.336961 143.759449 
L 221.499187 143.655221 
L 221.555838 143.51625 
L 221.506912 143.724706 
L 221.617638 143.550993 
L 221.640814 143.481507 
L 221.702614 143.377279 
L 221.75154 143.446765 
L 221.85969 143.550993 
L 221.82364 143.377279 
L 221.86484 143.51625 
L 221.867415 143.446765 
L 221.893166 143.655221 
L 221.970416 143.620478 
L 221.985866 143.51625 
L 222.083717 143.655221 
L 222.209893 143.446765 
L 222.284569 143.550993 
L 222.258819 143.412022 
L 222.320619 143.446765 
L 222.325769 143.481507 
L 222.41847 143.307794 
L 222.421045 143.342537 
L 222.511171 143.273051 
L 222.436495 143.377279 
L 222.531771 143.307794 
L 222.565246 143.377279 
L 222.593571 143.238309 
L 222.642497 143.342537 
L 222.742923 143.203566 
L 222.660522 143.377279 
L 222.760948 143.238309 
L 222.776398 143.307794 
L 222.858799 143.446765 
L 222.781548 143.273051 
L 222.887124 143.307794 
L 222.9824 143.273051 
L 223.000425 143.412022 
L 223.0442 143.307794 
L 223.103426 143.481507 
L 223.108576 143.481507 
L 223.206426 143.203566 
L 223.234752 143.238309 
L 223.345478 143.412022 
L 223.283677 143.168824 
L 223.353203 143.377279 
L 223.451053 143.307794 
L 223.366078 143.446765 
L 223.458779 143.377279 
L 223.574654 143.51625 
L 223.667355 143.412022 
L 223.60298 143.550993 
L 223.69053 143.446765 
L 223.927432 143.342537 
L 223.984083 143.273051 
L 224.020133 143.481507 
L 224.035583 143.377279 
L 224.220985 143.481507 
L 224.28536 143.620478 
L 224.23901 143.377279 
L 224.336861 143.550993 
L 224.445012 143.377279 
L 224.349736 143.585735 
L 224.450162 143.446765 
L 224.545437 143.620478 
L 224.563463 143.585735 
L 224.609813 143.481507 
L 224.630413 143.620478 
L 224.674188 143.550993 
L 224.699939 143.585735 
L 224.759164 143.377279 
L 224.779764 143.481507 
L 224.90594 143.585735 
L 225.003791 143.550993 
L 225.021816 143.655221 
L 225.099067 143.550993 
L 225.132542 143.620478 
L 225.263868 143.655221 
L 225.377169 143.898419 
L 225.379744 143.863676 
L 225.42352 143.794191 
L 225.508495 143.655221 
L 225.536821 143.689963 
L 225.539396 143.724706 
L 225.583171 143.550993 
L 225.644971 143.655221 
L 225.825223 143.585735 
L 225.840673 143.481507 
L 225.853548 143.655221 
L 225.935949 143.585735 
L 225.997749 143.481507 
L 226.05955 143.273051 
L 226.0235 143.550993 
L 226.113625 143.412022 
L 226.237226 143.51625 
L 226.262977 143.585735 
L 226.332502 143.412022 
L 226.340227 143.412022 
L 226.402028 143.481507 
L 226.404603 143.550993 
L 226.489578 143.307794 
L 226.507604 143.342537 
L 226.641505 143.307794 
L 226.672405 143.168824 
L 226.73163 143.342537 
L 226.749656 143.273051 
L 226.842356 143.412022 
L 226.862956 143.342537 
L 226.906732 143.273051 
L 226.937632 143.446765 
L 226.973682 143.342537 
L 227.063808 143.51625 
L 227.030333 143.273051 
L 227.086983 143.412022 
L 227.130759 143.481507 
L 227.177109 143.307794 
L 227.189984 143.307794 
L 227.35221 143.412022 
L 227.393411 143.585735 
L 227.359936 143.377279 
L 227.460361 143.412022 
L 227.517012 143.203566 
L 227.470661 143.446765 
L 227.576237 143.307794 
L 227.601988 143.446765 
L 227.671513 143.273051 
L 227.686963 143.307794 
L 227.777089 143.203566 
L 227.88009 143.029853 
L 227.833739 143.307794 
L 227.89039 143.099338 
L 228.003691 143.273051 
L 227.90584 143.064596 
L 228.006266 143.238309 
L 228.050041 143.273051 
L 228.096392 143.168824 
L 228.163342 143.377279 
L 228.274068 143.238309 
L 228.250893 143.412022 
L 228.276643 143.307794 
L 228.317843 143.446765 
L 228.351319 143.238309 
L 228.379644 143.273051 
L 228.395094 143.203566 
L 228.446594 143.377279 
L 228.49037 143.273051 
L 228.528995 143.203566 
L 228.601096 143.307794 
L 228.629421 143.099338 
L 228.698947 143.342537 
L 228.709247 143.307794 
L 228.807097 143.481507 
L 228.745297 143.273051 
L 228.819973 143.342537 
L 228.822548 143.273051 
L 228.845723 143.481507 
L 228.925548 143.481507 
L 229.010524 143.342537 
L 228.961599 143.550993 
L 229.043999 143.377279 
L 229.1264 143.446765 
L 229.149575 143.307794 
L 229.15215 143.342537 
L 229.221676 143.238309 
L 229.288626 143.134081 
L 229.322102 143.342537 
L 229.329827 143.273051 
L 229.342702 143.307794 
L 229.355577 143.134081 
L 229.437978 143.238309 
L 229.474028 143.134081 
L 229.520378 143.273051 
L 229.548704 143.203566 
L 229.66973 143.481507 
L 229.677455 143.446765 
L 229.904056 143.342537 
L 229.906631 143.273051 
L 229.916932 143.412022 
L 230.009632 143.377279 
L 230.048258 143.51625 
L 230.115208 143.238309 
L 230.117783 143.307794 
L 230.187309 143.342537 
L 230.197609 143.168824 
L 230.220784 143.203566 
L 230.29031 143.307794 
L 230.32121 143.342537 
L 230.36241 143.134081 
L 230.39331 143.203566 
L 230.452536 143.134081 
L 230.411336 143.273051 
L 230.498886 143.238309 
L 230.514336 143.273051 
L 230.573562 143.064596 
L 230.601887 143.134081 
L 230.699738 143.029853 
L 230.725488 142.925625 
L 230.764113 143.134081 
L 230.810464 143.029853 
L 231.021616 143.064596 
L 231.127191 143.203566 
L 231.031916 143.029853 
L 231.134917 143.168824 
L 231.250792 143.377279 
L 231.258518 143.342537 
L 231.320318 143.273051 
L 231.351218 143.446765 
L 231.369243 143.342537 
L 231.479969 143.412022 
L 231.413019 143.273051 
L 231.482544 143.377279 
L 231.621596 143.446765 
L 231.724596 143.51625 
L 231.678246 143.377279 
L 231.732321 143.481507 
L 231.814722 143.446765 
L 231.825022 143.585735 
L 231.835322 143.550993 
L 231.951198 143.689963 
L 231.961498 143.620478 
L 232.007849 143.828934 
L 232.059349 143.724706 
L 232.1675 143.794191 
L 232.079949 143.689963 
L 232.170075 143.759449 
L 232.244751 143.828934 
L 232.280801 143.689963 
L 232.401827 143.828934 
L 232.468777 143.724706 
L 232.512553 143.828934 
L 232.79323 143.933162 
L 232.806105 144.002647 
L 232.865331 143.828934 
L 232.903956 143.933162 
L 232.914256 143.863676 
L 232.988932 144.17636 
L 232.996657 144.106875 
L 233.076482 144.17636 
L 233.022407 144.002647 
L 233.107383 144.106875 
L 233.854139 144.17636 
L 233.864439 144.141618 
L 233.970015 144.315331 
L 234.212067 144.211103 
L 234.299618 144.106875 
L 234.219792 144.280588 
L 234.322793 144.211103 
L 234.580295 144.141618 
L 234.688446 143.967904 
L 234.59832 144.17636 
L 234.693596 144.002647 
L 234.698746 143.967904 
L 234.809472 144.106875 
L 234.920198 144.002647 
L 234.922773 144.03739 
L 234.994873 144.141618 
L 235.033499 144.03739 
L 235.144224 143.967904 
L 235.159675 143.898419 
L 235.195725 144.072132 
L 235.252375 143.967904 
L 235.355376 144.106875 
L 235.368251 144.072132 
L 235.427477 144.03739 
L 235.409452 144.141618 
L 235.476402 144.072132 
L 235.584553 144.17636 
L 235.522753 144.002647 
L 235.589703 144.106875 
L 235.705579 144.03739 
L 235.708154 143.967904 
L 235.741629 144.141618 
L 235.81373 144.072132 
L 235.842055 144.17636 
L 235.921881 144.03739 
L 235.947631 144.106875 
L 236.040332 143.933162 
L 236.197408 143.863676 
L 236.261784 143.759449 
L 236.300409 143.898419 
L 236.305559 143.898419 
L 236.39311 144.002647 
L 236.40341 143.933162 
L 236.508986 144.072132 
L 236.648037 143.967904 
L 236.650612 143.933162 
L 236.704687 144.106875 
L 236.751038 144.03739 
L 236.784513 144.211103 
L 236.820563 144.002647 
L 236.861764 144.072132 
L 236.962189 144.002647 
L 236.874639 144.106875 
L 236.972489 144.072132 
L 237.07549 144.002647 
L 237.09094 143.933162 
L 237.168191 144.141618 
L 237.181066 144.106875 
L 237.366468 144.141618 
L 237.459168 144.280588 
L 237.374193 144.106875 
L 237.479769 144.245846 
L 237.544144 144.17636 
L 237.577619 144.315331 
L 237.58792 144.280588 
L 237.703795 144.17636 
L 237.737271 144.106875 
L 237.775896 144.280588 
L 237.814521 144.17636 
L 237.832547 144.245846 
L 237.858297 144.106875 
L 237.925247 144.17636 
L 238.077174 144.141618 
L 238.079749 144.03739 
L 238.141549 144.211103 
L 238.187899 144.141618 
L 238.262575 144.03739 
L 238.200775 144.17636 
L 238.3012 144.072132 
L 238.363001 144.141618 
L 238.314075 144.03739 
L 238.411926 144.072132 
L 238.981006 144.106875 
L 239.084007 144.280588 
L 238.988731 144.072132 
L 239.094307 144.245846 
L 239.125207 144.315331 
L 239.102032 144.17636 
L 239.205033 144.245846 
L 239.441935 144.211103 
L 239.50631 144.03739 
L 239.47026 144.245846 
L 239.552661 144.106875 
L 239.586136 144.211103 
L 239.568111 144.072132 
L 239.663387 144.141618 
L 239.776687 144.211103 
L 239.779263 144.280588 
L 239.812738 144.141618 
L 239.887413 144.245846 
L 239.944064 144.141618 
L 239.995564 144.106875 
L 240.018739 144.280588 
L 240.047065 144.245846 
L 240.227316 144.315331 
L 240.332892 144.454301 
L 240.278817 144.280588 
L 240.340617 144.384816 
L 240.381817 144.454301 
L 240.350917 144.350074 
L 240.451343 144.384816 
L 240.67022 144.489044 
L 240.677945 144.454301 
L 240.783521 144.558529 
L 240.786096 144.523787 
L 240.840171 144.6975 
L 240.894247 144.558529 
L 240.981797 144.628015 
L 240.956047 144.523787 
L 241.007548 144.593272 
L 241.401526 144.523787 
L 241.494227 144.419559 
L 241.509677 144.558529 
L 241.512252 144.489044 
L 241.517402 144.419559 
L 241.625553 144.523787 
L 241.723403 144.350074 
L 241.741429 144.419559 
L 241.85988 144.523787 
L 241.96803 144.384816 
L 241.867605 144.558529 
L 241.973181 144.489044 
L 241.980906 144.558529 
L 242.006656 144.350074 
L 242.078756 144.489044 
L 242.122532 144.523787 
L 242.194632 144.350074 
L 242.225533 144.384816 
L 242.228108 144.211103 
L 242.305358 144.350074 
L 242.382609 144.17636 
L 242.416084 144.315331 
L 242.472735 144.211103 
L 242.439259 144.419559 
L 242.52166 144.384816 
L 242.619511 144.280588 
L 242.622086 144.211103 
L 242.642686 144.350074 
L 242.730237 144.280588 
L 242.743112 144.315331 
L 242.779162 144.419559 
L 242.755987 144.280588 
L 242.853838 144.350074 
L 242.923363 144.280588 
L 243.023789 144.072132 
L 243.036664 144.141618 
L 243.039239 144.17636 
L 243.108765 144.002647 
L 243.14224 144.072132 
L 243.15769 144.03739 
L 243.216916 144.245846 
L 243.245241 144.17636 
L 243.325067 144.106875 
L 243.327642 144.03739 
L 243.392017 144.350074 
L 243.428067 144.315331 
L 243.525918 144.245846 
L 243.495018 144.384816 
L 243.538793 144.280588 
L 243.636644 144.419559 
L 243.654669 144.384816 
L 243.729345 144.280588 
L 243.688145 144.419559 
L 243.76282 144.419559 
L 243.847796 144.315331 
L 243.888996 144.280588 
L 243.943072 144.419559 
L 243.955947 144.350074 
L 244.151648 144.454301 
L 244.249499 144.558529 
L 244.177399 144.384816 
L 244.264949 144.489044 
L 244.406576 144.384816 
L 244.450351 144.17636 
L 244.519876 144.280588 
L 244.615152 144.350074 
L 244.553352 144.211103 
L 244.630602 144.280588 
L 244.658928 144.211103 
L 244.713003 144.072132 
L 244.697553 144.245846 
L 244.767078 144.245846 
L 244.882954 144.141618 
L 244.91128 144.072132 
L 244.96793 144.245846 
L 244.99368 144.106875 
L 245.078656 144.245846 
L 245.106981 144.17636 
L 245.194532 144.072132 
L 245.191957 144.211103 
L 245.220282 144.141618 
L 245.431434 144.072132 
L 245.452034 144.002647 
L 245.467484 144.211103 
L 245.54216 144.072132 
L 245.629711 144.17636 
L 245.616835 144.03739 
L 245.652886 144.141618 
L 245.727561 143.898419 
L 245.773912 143.967904 
L 245.846012 144.141618 
L 245.887213 144.072132 
L 245.897513 144.002647 
L 245.936138 144.17636 
L 245.997939 144.03739 
L 246.111239 144.17636 
L 246.13699 144.245846 
L 246.22454 144.106875 
L 246.268316 144.17636 
L 246.237416 144.072132 
L 246.335266 144.141618 
L 246.373892 144.002647 
L 246.363592 144.17636 
L 246.443417 144.106875 
L 246.445992 144.17636 
L 246.525818 144.03739 
L 246.554143 144.106875 
L 246.659719 144.141618 
L 246.579893 144.03739 
L 246.662294 144.072132 
L 246.711219 144.072132 
L 246.80907 144.245846 
L 246.821945 144.141618 
L 246.906921 144.211103 
L 246.842546 144.072132 
L 246.932671 144.17636 
L 246.968722 144.03739 
L 247.048547 144.106875 
L 247.110348 144.002647 
L 247.133523 143.933162 
L 247.203048 144.106875 
L 247.218499 144.002647 
L 247.293174 144.106875 
L 247.334375 144.072132 
L 247.39875 144.17636 
L 247.401325 144.211103 
L 247.4451 144.072132 
L 247.506901 144.17636 
L 247.527501 144.211103 
L 247.620202 144.106875 
L 247.707753 144.280588 
L 247.733503 144.17636 
L 247.782428 144.280588 
L 247.826204 144.072132 
L 247.839079 144.106875 
L 247.911179 143.933162 
L 247.949805 144.106875 
L 248.274257 144.03739 
L 248.348933 143.933162 
L 248.338633 144.072132 
L 248.359233 144.03739 
" clip-path="url(#p20aec75107)" style="fill: none; stroke: #000000; stroke-opacity: 0.5; stroke-width: 1.5; stroke-linecap: square"/>
   </g>
   <g id="patch_3">
    <path d="M 35.304688 173.52 
L 35.304688 7.2 
" style="fill: none; stroke: #000000; stroke-width: 0.8; stroke-linejoin: miter; stroke-linecap: square"/>
   </g>
   <g id="patch_4">
    <path d="M 35.304688 173.52 
L 258.504687 173.52 
" style="fill: none; stroke: #000000; stroke-width: 0.8; stroke-linejoin: miter; stroke-linecap: square"/>
   </g>
  </g>
 </g>
 <defs>
  <clipPath id="p20aec75107">
   <rect x="35.304688" y="7.2" width="223.2" height="166.32"/>
  </clipPath>
 </defs>
</svg>
