<?xml version="1.0" encoding="utf-8" standalone="no"?>
<!DOCTYPE svg PUBLIC "-//W3C//DTD SVG 1.1//EN"
  "http://www.w3.org/Graphics/SVG/1.1/DTD/svg11.dtd">
<svg xmlns:xlink="http://www.w3.org/1999/xlink" width="272.067187pt" height="201.178052pt" viewBox="0 0 272.067187 201.178052" xmlns="http://www.w3.org/2000/svg" version="1.1">
 <metadata>
  <rdf:RDF xmlns:dc="http://purl.org/dc/elements/1.1/" xmlns:cc="http://creativecommons.org/ns#" xmlns:rdf="http://www.w3.org/1999/02/22-rdf-syntax-ns#">
   <cc:Work>
    <dc:type rdf:resource="http://purl.org/dc/dcmitype/StillImage"/>
    <dc:date>2025-12-19T12:06:43.224146</dc:date>
    <dc:format>image/svg+xml</dc:format>
    <dc:creator>
     <cc:Agent>
      <dc:title>Matplotlib v3.10.7, https://matplotlib.org/</dc:title>
     </cc:Agent>
    </dc:creator>
   </cc:Work>
  </rdf:RDF>
 </metadata>
 <defs>
  <style type="text/css">*{stroke-linejoin: round; stroke-linecap: butt}</style>
 </defs>
 <g id="figure_1">
  <g id="patch_1">
   <path d="M 0 201.178052 
L 272.067187 201.178052 
L 272.067187 0 
L 0 0 
z
" style="fill: #ffffff"/>
  </g>
  <g id="axes_1">
   <g id="patch_2">
    <path d="M 41.667188 177.299927 
L 264.867188 177.299927 
L 264.867188 10.979927 
L 41.667188 10.979927 
z
" style="fill: #ffffff"/>
   </g>
   <g id="matplotlib.axis_1">
    <g id="xtick_1">
     <g id="line2d_1">
      <defs>
       <path id="m98658d2556" d="M 0 0 
L 0 3.5 
" style="stroke: #000000; stroke-width: 0.8"/>
      </defs>
      <g>
       <use xlink:href="#m98658d2556" x="82.712896" y="177.299927" style="stroke: #000000; stroke-width: 0.8"/>
      </g>
     </g>
     <g id="text_1">
      <!-- 1 -->
      <g transform="translate(79.531646 191.898364) scale(0.1 -0.1)">
       <defs>
        <path id="DejaVuSans-31" d="M 794 531 
L 1825 531 
L 1825 4091 
L 703 3866 
L 703 4441 
L 1819 4666 
L 2450 4666 
L 2450 531 
L 3481 531 
L 3481 0 
L 794 0 
L 794 531 
z
" transform="scale(0.015625)"/>
       </defs>
       <use xlink:href="#DejaVuSans-31"/>
      </g>
     </g>
    </g>
    <g id="xtick_2">
     <g id="line2d_2">
      <g>
       <use xlink:href="#m98658d2556" x="134.213319" y="177.299927" style="stroke: #000000; stroke-width: 0.8"/>
      </g>
     </g>
     <g id="text_2">
      <!-- 2 -->
      <g transform="translate(131.032069 191.898364) scale(0.1 -0.1)">
       <defs>
        <path id="DejaVuSans-32" d="M 1228 531 
L 3431 531 
L 3431 0 
L 469 0 
L 469 531 
Q 828 903 1448 1529 
Q 2069 2156 2228 2338 
Q 2531 2678 2651 2914 
Q 2772 3150 2772 3378 
Q 2772 3750 2511 3984 
Q 2250 4219 1831 4219 
Q 1534 4219 1204 4116 
Q 875 4013 500 3803 
L 500 4441 
Q 881 4594 1212 4672 
Q 1544 4750 1819 4750 
Q 2544 4750 2975 4387 
Q 3406 4025 3406 3419 
Q 3406 3131 3298 2873 
Q 3191 2616 2906 2266 
Q 2828 2175 2409 1742 
Q 1991 1309 1228 531 
z
" transform="scale(0.015625)"/>
       </defs>
       <use xlink:href="#DejaVuSans-32"/>
      </g>
     </g>
    </g>
    <g id="xtick_3">
     <g id="line2d_3">
      <g>
       <use xlink:href="#m98658d2556" x="185.713741" y="177.299927" style="stroke: #000000; stroke-width: 0.8"/>
      </g>
     </g>
     <g id="text_3">
      <!-- 3 -->
      <g transform="translate(182.532491 191.898364) scale(0.1 -0.1)">
       <defs>
        <path id="DejaVuSans-33" d="M 2597 2516 
Q 3050 2419 3304 2112 
Q 3559 1806 3559 1356 
Q 3559 666 3084 287 
Q 2609 -91 1734 -91 
Q 1441 -91 1130 -33 
Q 819 25 488 141 
L 488 750 
Q 750 597 1062 519 
Q 1375 441 1716 441 
Q 2309 441 2620 675 
Q 2931 909 2931 1356 
Q 2931 1769 2642 2001 
Q 2353 2234 1838 2234 
L 1294 2234 
L 1294 2753 
L 1863 2753 
Q 2328 2753 2575 2939 
Q 2822 3125 2822 3475 
Q 2822 3834 2567 4026 
Q 2313 4219 1838 4219 
Q 1578 4219 1281 4162 
Q 984 4106 628 3988 
L 628 4550 
Q 988 4650 1302 4700 
Q 1616 4750 1894 4750 
Q 2613 4750 3031 4423 
Q 3450 4097 3450 3541 
Q 3450 3153 3228 2886 
Q 3006 2619 2597 2516 
z
" transform="scale(0.015625)"/>
       </defs>
       <use xlink:href="#DejaVuSans-33"/>
      </g>
     </g>
    </g>
    <g id="xtick_4">
     <g id="line2d_4">
      <g>
       <use xlink:href="#m98658d2556" x="237.214164" y="177.299927" style="stroke: #000000; stroke-width: 0.8"/>
      </g>
     </g>
     <g id="text_4">
      <!-- 4 -->
      <g transform="translate(234.032914 191.898364) scale(0.1 -0.1)">
       <defs>
        <path id="DejaVuSans-34" d="M 2419 4116 
L 825 1625 
L 2419 1625 
L 2419 4116 
z
M 2253 4666 
L 3047 4666 
L 3047 1625 
L 3713 1625 
L 3713 1100 
L 3047 1100 
L 3047 0 
L 2419 0 
L 2419 1100 
L 313 1100 
L 313 1709 
L 2253 4666 
z
" transform="scale(0.015625)"/>
       </defs>
       <use xlink:href="#DejaVuSans-34"/>
      </g>
     </g>
    </g>
   </g>
   <g id="matplotlib.axis_2">
    <g id="ytick_1">
     <g id="line2d_5">
      <defs>
       <path id="m2a7e981f3e" d="M 0 0 
L -3.5 0 
" style="stroke: #000000; stroke-width: 0.8"/>
      </defs>
      <g>
       <use xlink:href="#m2a7e981f3e" x="41.667188" y="163.580171" style="stroke: #000000; stroke-width: 0.8"/>
      </g>
     </g>
     <g id="text_5">
      <!-- −100 -->
      <g transform="translate(7.2 167.37939) scale(0.1 -0.1)">
       <defs>
        <path id="DejaVuSans-2212" d="M 678 2272 
L 4684 2272 
L 4684 1741 
L 678 1741 
L 678 2272 
z
" transform="scale(0.015625)"/>
        <path id="DejaVuSans-30" d="M 2034 4250 
Q 1547 4250 1301 3770 
Q 1056 3291 1056 2328 
Q 1056 1369 1301 889 
Q 1547 409 2034 409 
Q 2525 409 2770 889 
Q 3016 1369 3016 2328 
Q 3016 3291 2770 3770 
Q 2525 4250 2034 4250 
z
M 2034 4750 
Q 2819 4750 3233 4129 
Q 3647 3509 3647 2328 
Q 3647 1150 3233 529 
Q 2819 -91 2034 -91 
Q 1250 -91 836 529 
Q 422 1150 422 2328 
Q 422 3509 836 4129 
Q 1250 4750 2034 4750 
z
" transform="scale(0.015625)"/>
       </defs>
       <use xlink:href="#DejaVuSans-2212"/>
       <use xlink:href="#DejaVuSans-31" transform="translate(83.789062 0)"/>
       <use xlink:href="#DejaVuSans-30" transform="translate(147.412109 0)"/>
       <use xlink:href="#DejaVuSans-30" transform="translate(211.035156 0)"/>
      </g>
     </g>
    </g>
    <g id="ytick_2">
     <g id="line2d_6">
      <g>
       <use xlink:href="#m2a7e981f3e" x="41.667188" y="141.782892" style="stroke: #000000; stroke-width: 0.8"/>
      </g>
     </g>
     <g id="text_6">
      <!-- −80 -->
      <g transform="translate(13.5625 145.582111) scale(0.1 -0.1)">
       <defs>
        <path id="DejaVuSans-38" d="M 2034 2216 
Q 1584 2216 1326 1975 
Q 1069 1734 1069 1313 
Q 1069 891 1326 650 
Q 1584 409 2034 409 
Q 2484 409 2743 651 
Q 3003 894 3003 1313 
Q 3003 1734 2745 1975 
Q 2488 2216 2034 2216 
z
M 1403 2484 
Q 997 2584 770 2862 
Q 544 3141 544 3541 
Q 544 4100 942 4425 
Q 1341 4750 2034 4750 
Q 2731 4750 3128 4425 
Q 3525 4100 3525 3541 
Q 3525 3141 3298 2862 
Q 3072 2584 2669 2484 
Q 3125 2378 3379 2068 
Q 3634 1759 3634 1313 
Q 3634 634 3220 271 
Q 2806 -91 2034 -91 
Q 1263 -91 848 271 
Q 434 634 434 1313 
Q 434 1759 690 2068 
Q 947 2378 1403 2484 
z
M 1172 3481 
Q 1172 3119 1398 2916 
Q 1625 2713 2034 2713 
Q 2441 2713 2670 2916 
Q 2900 3119 2900 3481 
Q 2900 3844 2670 4047 
Q 2441 4250 2034 4250 
Q 1625 4250 1398 4047 
Q 1172 3844 1172 3481 
z
" transform="scale(0.015625)"/>
       </defs>
       <use xlink:href="#DejaVuSans-2212"/>
       <use xlink:href="#DejaVuSans-38" transform="translate(83.789062 0)"/>
       <use xlink:href="#DejaVuSans-30" transform="translate(147.412109 0)"/>
      </g>
     </g>
    </g>
    <g id="ytick_3">
     <g id="line2d_7">
      <g>
       <use xlink:href="#m2a7e981f3e" x="41.667188" y="119.985613" style="stroke: #000000; stroke-width: 0.8"/>
      </g>
     </g>
     <g id="text_7">
      <!-- −60 -->
      <g transform="translate(13.5625 123.784832) scale(0.1 -0.1)">
       <defs>
        <path id="DejaVuSans-36" d="M 2113 2584 
Q 1688 2584 1439 2293 
Q 1191 2003 1191 1497 
Q 1191 994 1439 701 
Q 1688 409 2113 409 
Q 2538 409 2786 701 
Q 3034 994 3034 1497 
Q 3034 2003 2786 2293 
Q 2538 2584 2113 2584 
z
M 3366 4563 
L 3366 3988 
Q 3128 4100 2886 4159 
Q 2644 4219 2406 4219 
Q 1781 4219 1451 3797 
Q 1122 3375 1075 2522 
Q 1259 2794 1537 2939 
Q 1816 3084 2150 3084 
Q 2853 3084 3261 2657 
Q 3669 2231 3669 1497 
Q 3669 778 3244 343 
Q 2819 -91 2113 -91 
Q 1303 -91 875 529 
Q 447 1150 447 2328 
Q 447 3434 972 4092 
Q 1497 4750 2381 4750 
Q 2619 4750 2861 4703 
Q 3103 4656 3366 4563 
z
" transform="scale(0.015625)"/>
       </defs>
       <use xlink:href="#DejaVuSans-2212"/>
       <use xlink:href="#DejaVuSans-36" transform="translate(83.789062 0)"/>
       <use xlink:href="#DejaVuSans-30" transform="translate(147.412109 0)"/>
      </g>
     </g>
    </g>
    <g id="ytick_4">
     <g id="line2d_8">
      <g>
       <use xlink:href="#m2a7e981f3e" x="41.667188" y="98.188334" style="stroke: #000000; stroke-width: 0.8"/>
      </g>
     </g>
     <g id="text_8">
      <!-- −40 -->
      <g transform="translate(13.5625 101.987553) scale(0.1 -0.1)">
       <use xlink:href="#DejaVuSans-2212"/>
       <use xlink:href="#DejaVuSans-34" transform="translate(83.789062 0)"/>
       <use xlink:href="#DejaVuSans-30" transform="translate(147.412109 0)"/>
      </g>
     </g>
    </g>
    <g id="ytick_5">
     <g id="line2d_9">
      <g>
       <use xlink:href="#m2a7e981f3e" x="41.667188" y="76.391055" style="stroke: #000000; stroke-width: 0.8"/>
      </g>
     </g>
     <g id="text_9">
      <!-- −20 -->
      <g transform="translate(13.5625 80.190274) scale(0.1 -0.1)">
       <use xlink:href="#DejaVuSans-2212"/>
       <use xlink:href="#DejaVuSans-32" transform="translate(83.789062 0)"/>
       <use xlink:href="#DejaVuSans-30" transform="translate(147.412109 0)"/>
      </g>
     </g>
    </g>
    <g id="ytick_6">
     <g id="line2d_10">
      <g>
       <use xlink:href="#m2a7e981f3e" x="41.667188" y="54.593777" style="stroke: #000000; stroke-width: 0.8"/>
      </g>
     </g>
     <g id="text_10">
      <!-- 0 -->
      <g transform="translate(28.304688 58.392995) scale(0.1 -0.1)">
       <use xlink:href="#DejaVuSans-30"/>
      </g>
     </g>
    </g>
    <g id="ytick_7">
     <g id="line2d_11">
      <g>
       <use xlink:href="#m2a7e981f3e" x="41.667188" y="32.796498" style="stroke: #000000; stroke-width: 0.8"/>
      </g>
     </g>
     <g id="text_11">
      <!-- 20 -->
      <g transform="translate(21.942188 36.595716) scale(0.1 -0.1)">
       <use xlink:href="#DejaVuSans-32"/>
       <use xlink:href="#DejaVuSans-30" transform="translate(63.623047 0)"/>
      </g>
     </g>
    </g>
    <g id="ytick_8">
     <g id="line2d_12">
      <g>
       <use xlink:href="#m2a7e981f3e" x="41.667188" y="10.999219" style="stroke: #000000; stroke-width: 0.8"/>
      </g>
     </g>
     <g id="text_12">
      <!-- 40 -->
      <g transform="translate(21.942188 14.798438) scale(0.1 -0.1)">
       <use xlink:href="#DejaVuSans-34"/>
       <use xlink:href="#DejaVuSans-30" transform="translate(63.623047 0)"/>
      </g>
     </g>
    </g>
   </g>
   <g id="line2d_13">
    <path d="M 51.812642 125.736935 
L 51.964568 125.836715 
L 51.969718 125.803455 
L 52.085594 125.969755 
L 52.090744 125.903235 
L 52.106194 126.036275 
L 52.19632 125.969755 
L 52.242671 126.069535 
L 52.250396 126.036275 
L 52.361122 126.202575 
L 52.363697 126.136055 
L 52.461547 126.302355 
L 52.469272 126.269095 
L 52.567123 126.368875 
L 52.670124 126.535176 
L 52.680424 126.468656 
L 52.809175 126.734736 
L 52.83235 126.701476 
L 52.904451 126.901036 
L 52.909601 126.867776 
L 52.953376 126.967556 
L 52.961101 126.934296 
L 53.079552 127.167116 
L 53.089853 127.133856 
L 53.167103 127.366676 
L 53.182553 127.266896 
L 53.298429 127.399936 
L 53.313879 127.466456 
L 53.419455 127.100596 
L 53.42203 127.167116 
L 53.519881 126.834516 
L 53.545631 126.734736 
L 53.658932 126.535176 
L 53.664082 126.568436 
L 53.700133 126.634956 
L 53.764508 126.435396 
L 53.772233 126.501916 
L 53.790258 126.535176 
L 53.888109 126.368875 
L 53.97566 126.468656 
L 53.988535 126.302355 
L 53.998835 126.368875 
L 54.408263 126.468656 
L 54.452039 126.435396 
L 54.521564 126.535176 
L 54.524139 126.501916 
L 54.57049 126.668216 
L 54.62199 126.668216 
L 54.722416 126.734736 
L 54.833142 126.834516 
L 54.753316 126.668216 
L 54.835717 126.801256 
L 54.951593 126.901036 
L 55.052019 127.100596 
L 54.985068 126.867776 
L 55.070044 127.034076 
L 55.142144 126.967556 
L 55.162745 127.100596 
L 55.18077 127.034076 
L 55.22712 127.167116 
L 55.276045 127.000816 
L 55.294071 127.100596 
L 55.402222 126.934296 
L 55.407372 127.034076 
L 55.999626 127.100596 
L 56.112927 127.200376 
L 56.190178 127.100596 
L 56.123227 127.233636 
L 56.226228 127.167116 
L 56.264854 127.300156 
L 56.326654 127.067336 
L 56.329229 127.100596 
L 56.486305 126.501916 
L 56.48888 126.535176 
L 56.532656 126.368875 
L 56.579006 126.368875 
L 56.700032 125.936495 
L 56.702607 126.036275 
L 56.782433 125.836715 
L 56.810758 125.936495 
L 56.921484 125.770195 
L 56.924059 125.803455 
L 56.952384 125.736935 
L 56.978134 127.832316 
L 57.204736 135.382338 
L 58.502547 150.748462 
L 58.507697 150.715202 
L 58.566922 151.280622 
L 58.569498 151.280622 
L 58.793524 152.910363 
L 58.801249 152.843843 
L 58.803824 152.810582 
L 58.870775 153.276223 
L 58.881075 153.242963 
L 59.045876 153.941423 
L 59.066477 154.007943 
L 59.192653 154.440323 
L 59.244153 154.540103 
L 59.367754 154.905963 
L 59.545431 154.806183 
L 59.627831 154.739663 
L 59.560881 154.872703 
L 59.656156 154.806183 
L 59.658731 154.772923 
L 59.725682 155.005743 
L 59.754007 154.972483 
L 59.882758 155.072263 
L 60.006359 155.305083 
L 60.008934 155.271823 
L 60.019234 155.205303 
L 60.086185 155.404863 
L 60.10936 155.404863 
L 60.176311 155.471383 
L 60.284462 155.704203 
L 60.294762 155.670943 
L 60.384887 155.903763 
L 60.299912 155.637683 
L 60.420938 155.870503 
L 60.433813 155.803983 
L 60.487888 156.036803 
L 60.521364 156.003543 
L 60.547114 156.070063 
L 60.66299 156.369403 
L 60.66814 156.336143 
L 60.696465 156.402663 
L 60.807191 156.668744 
L 60.814916 156.602223 
L 60.938517 156.768524 
L 60.941092 156.668744 
L 60.979717 156.901564 
L 61.046668 156.835044 
L 61.105893 156.735264 
L 61.29387 155.637683 
L 61.29902 155.670943 
L 61.453521 155.571163 
L 61.525622 155.404863 
L 61.564247 155.471383 
L 61.803724 155.537903 
L 61.90415 155.737463 
L 61.8578 155.504643 
L 61.9196 155.670943 
L 62.022601 155.770723 
L 62.068951 155.870503 
L 62.128177 155.704203 
L 62.135902 155.837243 
L 62.146202 155.737463 
L 62.208002 155.937023 
L 62.244053 155.870503 
L 62.365079 156.003543 
L 62.782232 155.903763 
L 62.941883 155.271823 
L 62.957334 155.305083 
L 63.039734 155.105523 
L 63.101535 155.039003 
L 63.189085 154.972483 
L 63.15561 155.138783 
L 63.212261 155.005743 
L 63.240586 155.072263 
L 63.299811 154.772923 
L 63.302386 154.806183 
L 63.441438 154.007943 
L 63.454313 154.041203 
L 63.503238 153.775123 
L 63.536713 153.808383 
L 63.572764 153.775123 
L 63.68349 153.542303 
L 63.686065 153.575563 
L 63.794215 153.675343 
L 63.69894 153.542303 
L 63.80194 153.642083 
L 63.917816 153.708603 
L 64.015667 153.808383 
L 63.922966 153.675343 
L 64.028542 153.775123 
L 64.043992 153.708603 
L 64.077468 153.874903 
L 64.131543 153.841643 
L 64.224244 153.941423 
L 64.185619 153.808383 
L 64.242269 153.841643 
L 64.347845 154.041203 
L 64.363295 153.974683 
L 64.474021 154.041203 
L 64.502346 154.140983 
L 64.512646 153.974683 
L 64.584747 154.041203 
L 64.664573 154.140983 
L 64.764998 154.174243 
L 64.721223 154.041203 
L 64.775298 154.140983 
L 64.801049 154.207503 
L 64.891174 154.074463 
L 64.942675 154.174243 
L 64.94525 154.274023 
L 65.045676 154.041203 
L 65.048251 154.041203 
L 65.264552 152.677542 
L 65.267128 152.710802 
L 65.349528 152.378202 
L 65.354678 152.411462 
L 65.413904 152.311682 
L 65.429354 152.344942 
L 65.52978 152.178642 
L 65.558105 152.311682 
L 65.57613 152.112122 
L 65.640506 152.245162 
L 65.673981 152.178642 
L 65.725481 152.344942 
L 65.748656 152.245162 
L 65.849082 152.411462 
L 65.761532 152.211902 
L 65.861957 152.344942 
L 66.013884 152.245162 
L 66.147785 151.646482 
L 66.168385 151.679742 
L 66.188985 151.746262 
L 66.261086 151.480182 
L 66.268811 151.613222 
L 66.351211 151.480182 
L 66.382112 151.546702 
L 66.405287 151.480182 
L 66.503138 151.679742 
L 66.549488 151.679742 
L 66.647339 151.879302 
L 66.662789 151.846042 
L 66.763215 151.812782 
L 66.727164 151.945822 
L 66.77094 151.846042 
L 66.881666 152.012342 
L 66.884241 151.912562 
L 67.007842 152.211902 
L 67.020717 152.078862 
L 67.103118 152.344942 
L 67.115993 152.344942 
L 67.131443 152.211902 
L 67.206118 152.511242 
L 67.224144 152.411462 
L 67.249894 152.511242 
L 67.257619 152.544502 
L 67.267919 151.313882 
L 67.499671 143.29822 
L 67.502246 143.33148 
L 67.685072 140.537639 
L 68.341703 133.486517 
L 68.352003 133.419997 
L 68.485904 132.455457 
L 68.501354 132.355677 
L 68.730531 130.792457 
L 68.733106 130.858977 
L 68.820657 130.393337 
L 68.825807 130.393337 
L 68.998333 129.595096 
L 69.029233 129.528576 
L 69.152834 128.963156 
L 69.160559 128.996416 
L 69.18116 128.896636 
L 69.302186 128.430996 
L 69.307336 128.464256 
L 69.338236 128.397736 
L 69.464412 127.965356 
L 69.466987 127.998616 
L 69.544238 127.699276 
L 69.549388 127.699276 
L 69.672989 127.366676 
L 69.683289 127.399936 
L 69.799165 127.167116 
L 69.835215 127.067336 
L 69.956241 126.767996 
L 69.971691 126.834516 
L 70.056667 126.568436 
L 70.059242 126.601696 
L 70.190568 126.335615 
L 70.270394 126.302355 
L 70.363094 126.036275 
L 70.38627 126.069535 
L 70.44292 125.969755 
L 70.476395 126.036275 
L 70.556221 125.936495 
L 70.641197 126.036275 
L 70.666947 126.003015 
L 70.751923 125.803455 
L 70.787973 125.869975 
L 70.803423 125.903235 
L 70.821448 125.770195 
L 70.893549 125.803455 
L 71.035175 125.703675 
L 71.045475 125.736935 
L 71.145901 125.670415 
L 71.212851 125.603895 
L 71.254052 125.703675 
L 71.364778 125.603895 
L 71.266927 125.770195 
L 71.367353 125.637155 
L 71.529579 125.570635 
L 71.532154 125.504115 
L 71.62228 125.670415 
L 71.63773 125.637155 
L 71.776781 125.670415 
L 71.887507 125.836715 
L 72.000808 125.703675 
L 72.047158 125.736935 
L 72.070333 125.603895 
L 72.111534 125.703675 
L 72.175909 125.570635 
L 72.229985 125.603895 
L 72.83254 125.504115 
L 72.87889 125.437595 
L 72.938115 125.570635 
L 72.953566 125.470855 
L 72.966441 125.504115 
L 73.100342 124.971955 
L 73.102917 125.005215 
L 73.167292 124.705875 
L 73.195618 124.772395 
L 73.316644 124.572835 
L 73.319219 124.606095 
L 73.404194 124.639355 
L 73.339819 124.506315 
L 73.429945 124.606095 
L 73.50462 124.473055 
L 73.44282 124.639355 
L 73.54067 124.539575 
L 73.568996 124.572835 
L 73.628221 124.273495 
L 73.630796 124.273495 
L 73.777572 123.774595 
L 73.790447 123.841115 
L 73.877998 123.575035 
L 73.880573 123.641555 
L 74.024774 123.209175 
L 74.0737 123.142655 
L 74.184426 122.909835 
L 74.189576 122.943095 
L 74.215326 122.909835 
L 74.308027 123.042875 
L 74.315752 123.109395 
L 74.421328 122.909835 
L 74.498578 123.076135 
L 74.534629 123.009615 
L 74.835906 123.076135 
L 74.866806 123.042875 
L 74.949207 123.142655 
L 74.972382 123.175915 
L 75.065083 123.042875 
L 75.067658 123.109395 
L 75.150059 122.909835 
L 75.173234 122.976355 
L 75.201559 122.909835 
L 75.26851 122.843315 
L 75.260785 122.976355 
L 75.30971 122.943095 
L 75.603262 123.042875 
L 75.706263 123.175915 
L 75.662488 122.976355 
L 75.719138 123.142655 
L 75.755189 123.209175 
L 75.837589 123.042875 
L 75.840164 123.109395 
L 75.87879 122.876575 
L 75.943165 122.909835 
L 76.017841 123.042875 
L 76.056466 122.876575 
L 76.159467 122.976355 
L 76.074491 122.843315 
L 76.169767 122.943095 
L 76.198092 122.909835 
L 76.262468 123.109395 
L 76.267618 123.076135 
L 76.378344 123.209175 
L 76.283068 123.042875 
L 76.386069 123.175915 
L 76.450444 123.109395 
L 76.486495 123.308955 
L 76.491645 123.275695 
L 76.553445 123.342215 
L 76.651296 123.475255 
L 76.584345 123.308955 
L 76.666746 123.408735 
L 76.669321 123.441995 
L 76.751722 123.242435 
L 76.769747 123.308955 
L 76.867598 123.242435 
L 76.774897 123.375475 
L 76.880473 123.308955 
L 76.955148 123.375475 
L 77.034974 123.475255 
L 76.973174 123.342215 
L 77.065874 123.408735 
L 77.16115 123.508515 
L 77.259001 123.608295 
L 77.274451 123.575035 
L 77.277026 123.541775 
L 77.372302 123.741335 
L 77.380027 123.608295 
L 77.493328 123.874375 
L 77.498478 123.841115 
L 77.503628 123.807855 
L 77.568004 124.007415 
L 77.598904 123.940895 
L 77.606629 123.874375 
L 77.71993 124.073935 
L 77.78173 124.140455 
L 77.895031 124.306755 
L 77.933657 124.206975 
L 77.936232 124.173715 
L 78.013482 124.340015 
L 78.036657 124.306755 
L 78.142233 124.373275 
L 78.064983 124.206975 
L 78.149958 124.340015 
L 78.157683 124.273495 
L 78.201459 124.439795 
L 78.255534 124.406535 
L 78.286434 124.306755 
L 78.368835 124.473055 
L 78.435786 124.373275 
L 78.474411 124.506315 
L 78.476986 124.506315 
L 78.531061 124.473055 
L 78.646937 124.107195 
L 78.543937 124.506315 
L 78.649512 124.140455 
L 78.749938 124.007415 
L 78.675263 124.173715 
L 78.765388 124.073935 
L 79.00744 123.974155 
L 79.107866 123.575035 
L 79.125891 123.608295 
L 79.136191 123.508515 
L 79.141341 123.541775 
L 79.262367 123.275695 
L 79.339618 123.209175 
L 79.378243 123.375475 
L 79.380818 123.275695 
L 79.442619 123.575035 
L 79.483819 123.508515 
L 79.53017 123.541775 
L 79.646046 123.807855 
L 79.707846 123.907635 
L 79.797972 124.107195 
L 79.823722 124.073935 
L 79.849472 124.040675 
L 79.916423 124.306755 
L 79.918998 124.273495 
L 80.016849 124.340015 
L 80.132725 124.539575 
L 80.153325 124.506315 
L 80.20225 124.672615 
L 80.235725 124.606095 
L 80.346451 124.838915 
L 80.351601 124.805655 
L 80.379927 124.805655 
L 80.485502 125.005215 
L 80.493228 124.938695 
L 80.555028 125.038475 
L 80.627129 124.572835 
L 80.629704 124.639355 
L 80.683779 124.373275 
L 80.730129 124.406535 
L 80.840855 124.240235 
L 80.737855 124.439795 
L 80.84343 124.340015 
L 80.964456 124.606095 
L 81.046857 124.705875 
L 81.167883 125.005215 
L 81.175608 124.971955 
L 81.209083 124.938695 
L 81.237409 125.138255 
L 81.276034 125.104995 
L 81.36616 125.204775 
L 81.476886 125.371075 
L 81.373885 125.171515 
L 81.487186 125.337815 
L 81.530961 125.238035 
L 81.507786 125.371075 
L 81.600487 125.271295 
L 81.672587 125.204775 
L 81.713788 125.337815 
L 81.731813 125.271295 
L 81.747263 125.371075 
L 81.824513 125.337815 
L 81.901764 125.437595 
L 82.004765 125.537375 
L 81.922364 125.337815 
L 82.01249 125.470855 
L 82.115491 125.371075 
L 82.02279 125.537375 
L 82.125791 125.404335 
L 82.244242 125.637155 
L 82.251967 125.603895 
L 82.354968 125.670415 
L 82.411618 125.770195 
L 82.447669 125.637155 
L 82.463119 125.670415 
L 82.465694 125.603895 
L 82.519769 125.770195 
L 82.57127 125.703675 
L 82.687146 125.869975 
L 82.700021 125.836715 
L 82.715471 126.934296 
L 82.862247 137.111858 
L 82.929198 139.340279 
L 83.119749 144.5621 
L 83.593553 153.941423 
L 84.48451 164.019205 
L 84.49481 164.085725 
L 84.657037 165.449386 
L 84.664762 165.382866 
L 84.744587 166.048066 
L 84.762613 166.147846 
L 84.976339 167.511506 
L 84.984064 167.444986 
L 85.051015 167.910626 
L 85.05359 167.877366 
L 85.179766 168.442787 
L 85.184916 168.409527 
L 85.197791 168.509307 
L 85.210666 168.476047 
L 85.341992 168.941687 
L 85.411518 169.008207 
L 85.416668 168.974947 
L 85.532544 169.307547 
L 85.581469 169.340807 
L 85.69477 169.606887 
L 85.697345 169.573627 
L 85.741121 169.640147 
L 85.838971 169.739927 
L 85.748846 169.606887 
L 85.851847 169.706667 
L 85.913647 169.573627 
L 85.965147 169.673407 
L 86.2587 169.640147 
L 86.361701 169.407327 
L 86.26385 169.673407 
L 86.372001 169.440587 
L 86.513627 169.340807 
L 86.529077 169.374067 
L 86.642378 169.107987 
L 86.727354 169.041467 
L 86.84323 168.808647 
L 86.845805 168.841907 
L 86.917905 168.775387 
L 86.928205 168.808647 
L 87.036356 168.575827 
L 87.049231 168.642347 
L 87.129057 168.409527 
L 87.136782 168.476047 
L 87.234633 168.076927 
L 87.270683 168.176707 
L 87.358234 168.110187 
L 87.476685 167.844106 
L 87.492135 167.877366 
L 87.55136 167.611286 
L 87.571961 167.644546 
L 87.695562 167.278686 
L 87.705862 167.378466 
L 87.788262 167.112386 
L 87.795987 167.178906 
L 87.929889 166.846306 
L 87.940189 166.946086 
L 87.989114 166.746526 
L 88.038039 166.846306 
L 88.169366 166.513706 
L 88.171941 166.546966 
L 88.231166 166.447186 
L 88.362492 166.147846 
L 88.370217 166.181106 
L 88.447468 165.915026 
L 88.452618 165.915026 
L 88.568494 165.682206 
L 88.457768 165.981546 
L 88.578794 165.715466 
L 88.601969 165.648946 
L 88.609694 165.715466 
L 88.72042 165.382866 
L 88.73072 165.482646 
L 88.818271 165.216566 
L 88.820846 165.283086 
L 88.926422 165.017006 
L 88.939297 165.083526 
L 89.075773 164.750926 
L 89.078348 164.784186 
L 89.168474 164.584626 
L 89.173624 164.617886 
L 89.415676 162.921625 
L 89.433701 162.821845 
L 89.593352 162.056865 
L 89.598502 162.090125 
L 89.601077 162.123385 
L 89.657728 161.890565 
L 89.696353 161.957085 
L 89.812229 161.591225 
L 89.814804 161.624485 
L 90.020806 160.393864 
L 90.031106 160.460385 
L 90.092906 160.094524 
L 90.113507 160.161044 
L 90.257708 159.728664 
L 90.414784 159.628884 
L 90.49461 159.462584 
L 90.533235 159.495844 
L 90.54096 159.562364 
L 90.58216 159.396064 
L 90.636236 159.396064 
L 90.746962 159.296284 
L 90.685161 159.429324 
L 90.749537 159.362804 
L 90.788162 159.296284 
L 90.793312 159.329544 
L 90.904038 159.096724 
L 90.929788 159.129984 
L 90.986439 158.863904 
L 90.996739 158.897164 
L 91.001889 158.930424 
L 91.128065 158.597824 
L 91.143515 158.697604 
L 91.18729 158.498044 
L 91.231066 158.531304 
L 91.292866 158.365004 
L 91.344367 158.431524 
L 91.346942 158.498044 
L 91.424192 158.331744 
L 91.452517 158.431524 
L 91.558093 158.231964 
L 91.568393 158.298484 
L 91.684269 158.132184 
L 91.689419 158.165444 
L 91.722895 158.098924 
L 91.831046 157.766324 
L 91.843921 157.799584 
L 91.877396 157.699804 
L 91.921171 157.766324 
L 92.000997 157.466984 
L 92.026747 157.533504 
L 92.029322 157.400464 
L 92.106573 157.400464 
L 92.225024 157.234164 
L 92.116873 157.466984 
L 92.227599 157.267424 
L 92.302274 157.200904 
L 92.364075 157.067864 
L 92.3203 157.234164 
L 92.415575 157.101124 
L 92.41815 157.134384 
L 92.505701 156.835044 
L 92.510851 156.901564 
L 92.637027 156.602223 
L 92.642177 156.635484 
L 92.685953 156.568963 
L 92.804404 156.236363 
L 92.696253 156.602223 
L 92.806979 156.302883 
L 92.825004 156.203103 
L 92.94603 156.070063 
L 92.95118 156.103323 
L 93.036155 155.870503 
L 93.046456 155.937023 
L 93.154606 155.637683 
L 93.059331 155.970283 
L 93.172632 155.737463 
L 93.203532 155.704203 
L 93.319408 155.371603 
L 93.321983 155.404863 
L 93.365758 155.305083 
L 93.504809 154.939223 
L 93.509959 155.039003 
L 93.59236 154.673143 
L 93.594935 154.706403 
L 93.726261 154.407063 
L 93.736561 154.473583 
L 93.808662 154.207503 
L 93.818962 154.240763 
L 93.898788 154.074463 
L 93.831837 154.274023 
L 93.934838 154.107723 
L 93.973463 154.007943 
L 94.055864 153.874903 
L 94.045564 154.041203 
L 94.086764 153.941423 
L 94.109939 154.007943 
L 94.14084 153.874903 
L 94.194915 153.874903 
L 94.220665 153.908163 
L 94.251565 153.741863 
L 94.297916 153.775123 
L 94.501343 152.378202 
L 94.514218 152.411462 
L 94.527093 152.311682 
L 94.666144 151.646482 
L 94.681594 151.713002 
L 94.684169 151.746262 
L 94.769145 151.480182 
L 94.77687 151.546702 
L 94.78202 151.579962 
L 94.897896 151.413662 
L 95.003472 151.313882 
L 95.101322 151.214102 
L 95.008622 151.347142 
L 95.114198 151.313882 
L 95.304749 151.214102 
L 95.420625 151.047802 
L 95.322774 151.247362 
L 95.4232 151.081062 
L 95.500451 151.114322 
L 95.521051 151.014542 
L 95.528776 151.047802 
L 95.647227 150.881502 
L 95.649802 150.914762 
L 95.809453 150.814982 
L 95.878979 150.681942 
L 95.814603 150.848242 
L 95.927904 150.715202 
L 96.005155 150.615422 
L 96.121031 150.482382 
L 96.015455 150.715202 
L 96.123606 150.515642 
L 96.146781 150.482382 
L 96.260082 150.282822 
L 96.275532 150.316082 
L 96.381108 150.116522 
L 96.383683 150.183042 
L 96.440333 149.983482 
L 96.489259 150.050002 
L 96.494409 150.083262 
L 96.605135 149.883702 
L 96.63346 149.983482 
L 96.66436 149.783922 
L 96.713286 149.783922 
L 96.728736 149.850442 
L 96.749336 149.717402 
L 96.816287 149.717402 
L 96.945038 149.451322 
L 96.955338 149.551102 
L 97.042888 149.318282 
L 97.048038 149.351542 
L 97.114989 149.251762 
L 97.063489 149.418062 
L 97.161339 149.318282 
L 97.18194 149.351542 
L 97.251465 149.185242 
L 97.26434 149.218502 
L 97.390516 148.952421 
L 97.475492 149.018941 
L 97.442017 148.919161 
L 97.501242 148.952421 
L 97.619693 148.653081 
L 97.622268 148.686341 
L 97.635143 148.752861 
L 97.722694 148.553301 
L 97.761319 148.453521 
L 97.987921 146.956821 
L 98.018821 146.857041 
L 98.157873 146.424661 
L 98.160448 146.457921 
L 98.211948 146.358141 
L 98.302074 146.225101 
L 98.229973 146.391401 
L 98.327824 146.291621 
L 98.835103 146.225101 
L 98.930379 146.125321 
L 98.945829 146.158581 
L 98.948404 146.225101 
L 99.01793 146.058801 
L 99.056555 146.158581 
L 99.113205 146.191841 
L 99.213631 145.992281 
L 99.226506 146.025541 
L 99.265132 146.092061 
L 99.285732 145.959021 
L 99.334657 145.992281 
L 99.517484 145.892501 
L 99.62306 145.692941 
L 99.530359 145.925761 
L 99.635935 145.792721 
L 99.744086 145.726201 
L 99.852236 145.493381 
L 99.859962 145.559901 
L 99.870262 145.593161 
L 99.947512 145.393601 
L 99.957812 145.426861 
L 100.065963 145.327081 
L 99.975837 145.460121 
L 100.071113 145.360341 
L 100.102014 145.360341 
L 100.220464 144.8947 
L 100.22819 144.82818 
L 100.380116 143.76386 
L 100.400716 143.69734 
L 100.526892 142.99888 
L 100.529467 143.03214 
L 100.598993 142.69954 
L 100.614443 142.69954 
L 100.632468 142.76606 
L 100.735469 142.5665 
L 100.830744 142.69954 
L 100.846195 142.5665 
L 100.962071 142.76606 
L 100.985246 142.79932 
L 101.077947 142.69954 
L 101.255623 142.69954 
L 101.348324 142.36694 
L 101.371499 142.4002 
L 101.392099 142.46672 
L 101.466775 142.30042 
L 101.477075 142.33368 
L 101.592951 142.20064 
L 101.5363 142.4002 
L 101.595526 142.2339 
L 101.659901 142.33368 
L 101.762902 142.4002 
L 101.677926 142.26716 
L 101.770627 142.36694 
L 101.829853 142.26716 
L 101.883928 142.33368 
L 101.953454 142.2339 
L 102.025554 142.13412 
L 101.958604 142.26716 
L 102.06933 142.16738 
L 102.12598 142.20064 
L 102.12083 142.0676 
L 102.172331 142.10086 
L 102.257306 141.93456 
L 102.244431 142.16738 
L 102.293356 141.96782 
L 102.489058 141.9013 
L 102.602359 141.735 
L 102.617809 141.83478 
L 102.648709 141.66848 
L 102.71051 141.735 
L 102.798061 141.53544 
L 102.834111 141.5687 
L 102.913937 141.468919 
L 102.919087 141.50218 
L 103.040113 141.236099 
L 103.068438 141.369139 
L 103.132813 141.136319 
L 103.148264 141.169579 
L 103.181739 141.103059 
L 103.297615 140.870239 
L 103.194614 141.136319 
L 103.30019 140.903499 
L 103.34139 140.803719 
L 103.467566 140.570899 
L 103.483016 140.670679 
L 103.573142 140.437859 
L 103.575717 140.537639 
L 103.676143 140.304819 
L 103.694168 140.338079 
L 103.810044 140.105259 
L 103.817769 140.138519 
L 103.892445 140.171779 
L 103.913045 139.972219 
L 103.93622 140.071999 
L 104.031496 139.839179 
L 104.034071 139.905699 
L 104.126772 139.639619 
L 104.134497 139.639619 
L 104.227197 139.539839 
L 104.327623 139.373539 
L 104.245223 139.606359 
L 104.348223 139.406799 
L 104.386849 139.373539 
L 104.50015 139.207239 
L 104.502725 139.273759 
L 104.5877 139.007679 
L 104.60315 139.074199 
L 104.737052 138.741599 
L 104.749927 138.774859 
L 104.829752 138.608559 
L 104.840052 138.641819 
L 104.968803 138.408999 
L 104.973954 138.442259 
L 105.046054 138.209439 
L 105.069229 138.275959 
L 105.17223 138.109659 
L 105.185105 138.176179 
L 105.210855 138.275959 
L 105.239181 138.076399 
L 105.290681 138.076399 
L 105.509558 136.612958 
L 105.512133 136.646218 
L 105.525008 136.579698 
L 105.646034 135.981018 
L 105.648609 136.047538 
L 105.651184 136.080798 
L 105.73616 135.748198 
L 105.738735 135.781458 
L 105.76706 135.714938 
L 105.882936 135.515378 
L 105.895811 135.548638 
L 105.955037 135.349078 
L 105.980787 135.349078 
L 106.034862 135.382338 
L 106.104388 135.149518 
L 106.106963 135.216038 
L 106.171338 134.983218 
L 106.209964 135.016478 
L 106.32069 134.783658 
L 106.222839 135.049738 
L 106.333565 134.850178 
L 106.395365 134.783658 
L 106.511241 134.550838 
L 106.513816 134.584098 
L 106.549866 134.584098 
L 106.642567 134.218238 
L 106.665742 134.284758 
L 106.735268 134.184978 
L 106.843419 134.018678 
L 106.742993 134.218238 
L 106.851144 134.051938 
L 106.858869 134.151718 
L 106.943845 133.852377 
L 106.954145 133.885637 
L 107.026245 133.652817 
L 107.070021 133.686077 
L 107.072596 133.719337 
L 107.144696 133.453257 
L 107.167872 133.519777 
L 107.188472 133.453257 
L 107.309498 133.153917 
L 107.345548 133.120657 
L 107.435674 132.854577 
L 107.461424 132.887837 
L 107.533525 132.821317 
L 107.646825 132.555237 
L 107.651975 132.588497 
L 107.708626 132.521977 
L 107.814202 132.156117 
L 107.829652 132.189377 
L 107.883727 132.222637 
L 107.930078 132.056337 
L 107.932653 132.122857 
L 108.058829 131.890037 
L 108.061404 131.923297 
L 108.154105 131.723737 
L 108.159255 131.756997 
L 108.282856 131.524177 
L 108.174705 131.790257 
L 108.285431 131.557437 
L 108.334356 131.457657 
L 108.427057 131.191577 
L 108.344656 131.490917 
L 108.463107 131.224837 
L 108.530058 131.125057 
L 108.640784 130.892237 
L 108.653659 130.958757 
L 108.671684 130.992017 
L 108.728334 130.759197 
L 108.75151 130.792457 
L 108.81846 130.692677 
L 108.939486 130.393337 
L 108.82361 130.725937 
L 108.944636 130.426597 
L 108.947211 130.493117 
L 109.045062 130.227037 
L 109.047637 130.293557 
L 109.171238 129.994216 
L 109.176388 130.060736 
L 109.220163 129.960956 
L 109.333464 129.761396 
L 109.230463 129.994216 
L 109.336039 129.827916 
L 109.410715 129.728136 
L 109.451915 129.794656 
L 109.534316 129.561836 
L 109.616717 129.495316 
L 109.740318 129.162716 
L 109.776368 129.229236 
L 109.838168 128.996416 
L 109.845894 129.029676 
L 109.97207 128.697076 
L 109.871644 129.062936 
L 109.979795 128.730336 
L 109.995245 128.663816 
L 110.105971 128.464256 
L 110.000395 128.697076 
L 110.111121 128.530776 
L 110.154896 128.497516 
L 110.263047 128.231436 
L 110.268197 128.264696 
L 110.273347 128.364476 
L 110.371198 128.098396 
L 110.438148 128.065136 
L 110.548874 127.765796 
L 110.554024 127.799056 
L 110.61325 127.732536 
L 110.731701 127.433196 
L 110.742001 127.499716 
L 110.775476 127.333416 
L 110.837277 127.333416 
L 110.945428 127.100596 
L 110.842427 127.366676 
L 110.963453 127.133856 
L 110.966028 127.167116 
L 111.056153 126.901036 
L 111.058728 126.934296 
L 111.169454 126.734736 
L 111.071604 127.000816 
L 111.177179 126.801256 
L 111.18748 126.867776 
L 111.226105 126.734736 
L 111.28533 126.734736 
L 111.287905 126.767996 
L 111.367731 126.535176 
L 111.383181 126.601696 
L 111.496482 126.269095 
L 111.504207 126.302355 
L 111.511932 126.335615 
L 111.573733 126.069535 
L 111.596908 126.102795 
L 111.728234 125.770195 
L 111.730809 125.803455 
L 111.751409 125.770195 
L 111.85441 125.537375 
L 111.867285 125.570635 
L 111.882735 125.570635 
L 112.001186 125.138255 
L 112.008911 125.204775 
L 112.086162 124.838915 
L 112.088737 124.838915 
L 112.217488 124.306755 
L 112.227788 124.340015 
L 112.307614 124.073935 
L 112.310189 124.073935 
L 112.356539 123.974155 
L 112.498165 123.575035 
L 112.601166 123.508515 
L 112.606316 123.541775 
L 112.719617 123.308955 
L 112.897294 123.275695 
L 113.005444 123.042875 
L 113.01317 123.076135 
L 113.051795 122.976355 
L 113.172821 122.677015 
L 113.175396 122.776795 
L 113.177971 122.810055 
L 113.244921 122.543974 
L 113.270672 122.577234 
L 113.298997 122.510714 
L 113.412298 122.377674 
L 113.427748 122.444194 
L 113.484398 122.244634 
L 113.515299 122.277894 
L 113.556499 122.178114 
L 113.6698 122.011814 
L 113.571949 122.211374 
L 113.677525 122.045074 
L 113.6801 122.078334 
L 113.754776 121.845514 
L 113.777951 121.912034 
L 113.906702 121.579434 
L 113.783101 121.945294 
L 113.911852 121.612694 
L 113.945327 121.546174 
L 114.061203 121.246834 
L 114.063778 121.280094 
L 114.066353 121.313354 
L 114.148754 121.047274 
L 114.159054 121.080534 
L 114.246605 120.980754 
L 114.377931 120.714674 
L 114.439731 120.648154 
L 114.558182 120.249034 
L 114.630283 120.348814 
L 114.656033 120.149254 
L 114.661183 120.182514 
L 114.792509 119.916434 
L 114.838859 119.816654 
L 114.95731 119.583834 
L 115.037136 119.617094 
L 115.011386 119.484054 
L 115.060311 119.484054 
L 115.104087 119.517314 
L 115.189062 119.251234 
L 115.297213 119.151454 
L 115.420814 118.918634 
L 115.423389 119.018414 
L 115.518665 118.685813 
L 115.52639 118.719073 
L 115.554715 118.619293 
L 115.678316 118.353213 
L 115.56244 118.652553 
L 115.683466 118.386473 
L 115.716942 118.286693 
L 115.732392 118.319953 
L 115.845693 118.020613 
L 115.861143 118.120393 
L 115.938394 117.821053 
L 115.948694 117.854313 
L 115.987319 117.754533 
L 116.128945 117.322153 
L 116.149545 117.355413 
L 116.195896 117.089333 
L 116.224221 117.122593 
L 116.267996 117.056073 
L 116.389022 116.723473 
L 116.417347 116.823253 
L 116.468848 116.623693 
L 116.497173 116.656953 
L 116.502323 116.690213 
L 116.628499 116.390873 
L 116.631074 116.424133 
L 116.69545 116.091533 
L 116.718625 116.158053 
L 116.865401 115.692413 
L 116.873126 115.758933 
L 116.958102 115.426333 
L 116.965827 115.492853 
L 117.092003 115.060473 
L 117.094578 115.093733 
L 117.158954 114.860912 
L 117.192429 114.960692 
L 117.29543 114.694612 
L 117.31088 114.761132 
L 117.35723 114.661352 
L 117.36238 114.694612 
L 117.498856 114.262232 
L 117.524607 114.328752 
L 117.588982 114.029412 
L 117.594132 114.062672 
L 117.733183 113.630292 
L 117.735758 113.696812 
L 117.831034 113.397472 
L 117.833609 113.397472 
L 117.89026 113.297692 
L 118.019011 112.931832 
L 117.903135 113.330952 
L 118.026736 112.965092 
L 118.065361 112.998352 
L 118.176087 112.632492 
L 118.178662 112.665752 
L 118.219862 112.565972 
L 118.402689 111.634692 
L 118.405264 111.701212 
L 118.490239 111.036011 
L 118.50054 110.969491 
L 118.634441 109.905171 
L 118.637016 109.938431 
L 118.652466 109.871911 
L 118.806967 106.21331 
L 118.848167 18.539927 
L 118.922843 99.494788 
L 119.056744 118.220173 
L 119.059319 118.153653 
L 119.18292 118.586033 
L 119.296221 118.452993 
L 119.311671 118.519513 
L 119.386347 118.286693 
L 119.394072 118.319953 
L 119.406947 118.353213 
L 119.548573 117.688013 
L 119.551148 117.754533 
L 119.630974 117.222373 
L 119.641274 117.288893 
L 119.790625 116.756733 
L 119.7932 116.856513 
L 119.888476 116.324353 
L 119.901351 116.257833 
L 120.050702 115.260033 
L 120.084178 115.160253 
L 120.297904 113.796592 
L 120.300479 113.829852 
L 120.36743 113.264432 
L 120.370005 113.297692 
L 120.390605 113.231172 
L 120.539956 112.166852 
L 120.545106 112.266632 
L 120.604332 111.701212 
L 120.612057 111.701212 
L 120.776858 110.304291 
L 120.794883 110.204511 
L 121.085861 106.04701 
L 121.129636 19.271647 
L 121.206887 98.064608 
L 121.343363 116.025013 
L 121.358813 116.091533 
L 121.461814 116.656953 
L 121.363963 116.058273 
L 121.482414 116.623693 
L 121.575115 116.490653 
L 121.487564 116.690213 
L 121.59829 116.557173 
L 121.662666 116.490653 
L 121.775966 116.025013 
L 121.788842 116.058273 
L 121.814592 115.958493 
L 121.969093 115.326553 
L 121.976818 115.393073 
L 122.059219 114.860912 
L 122.061794 114.860912 
L 122.247195 113.763332 
L 122.25492 113.796592 
L 122.26522 113.730072 
L 122.270371 113.763332 
L 122.396547 113.197912 
L 122.427447 113.131392 
L 122.581948 111.967292 
L 122.592248 111.900772 
L 122.741599 110.337551 
L 122.744174 110.337551 
L 122.908976 107.510451 
L 122.991376 103.652289 
L 123.032577 19.837067 
L 123.107252 94.572307 
L 123.243729 114.694612 
L 123.246304 114.661352 
L 123.39308 115.193513 
L 123.395655 115.160253 
L 123.545006 115.093733 
L 123.658307 114.761132 
L 123.550156 115.160253 
L 123.666032 114.827652 
L 123.668607 114.860912 
L 123.743283 114.428532 
L 123.933834 113.364212 
L 123.936409 113.397472 
L 124.005935 112.998352 
L 124.01366 112.998352 
L 124.157861 112.100332 
L 124.170736 112.000552 
L 124.433388 110.038211 
L 124.448838 109.971691 
L 124.616215 108.408471 
L 124.61879 108.474991 
L 124.69604 107.809791 
L 124.703765 107.809791 
L 124.894317 101.423869 
L 124.935517 20.302707 
L 125.010193 92.942567 
L 125.149244 113.231172 
L 125.27027 113.796592 
L 125.272845 113.696812 
L 125.319196 113.863112 
L 125.380996 113.796592 
L 125.383571 113.829852 
L 125.471122 113.563772 
L 125.476272 113.597032 
L 125.605023 113.131392 
L 125.615323 113.197912 
L 125.697724 112.732272 
L 125.708024 112.798792 
L 125.898575 111.568172 
L 125.908875 111.501652 
L 126.065952 110.304291 
L 126.081402 110.237771 
L 126.251353 108.707811 
L 126.614431 103.053609 
L 126.640181 37.498132 
L 126.660782 20.668568 
L 126.725157 83.529984 
L 126.864208 112.100332 
L 126.869358 112.033812 
L 126.938884 112.399672 
L 126.951759 112.333152 
L 127.05991 112.532712 
L 127.06506 112.499452 
L 127.191236 112.033812 
L 127.211836 112.100332 
L 127.271062 111.800992 
L 127.281362 111.800992 
L 127.482213 110.603631 
L 127.497663 110.636891 
L 127.549164 110.271031 
L 127.559464 110.271031 
L 127.683065 109.572571 
L 127.68564 109.605831 
L 127.693365 109.506051 
L 128.228969 101.390609 
L 128.246995 64.738079 
L 128.27532 21.267248 
L 128.349995 90.980226 
L 128.489047 110.902971 
L 128.622948 111.601432 
L 128.625523 111.568172 
L 128.684748 111.667952 
L 128.710498 111.701212 
L 128.713073 111.601432 
L 128.790324 111.601432 
L 128.92165 110.803191 
L 128.929375 110.836451 
L 129.001476 110.437331 
L 129.207477 109.173451 
L 129.215203 109.206711 
L 129.274428 108.641291 
L 129.282153 108.741071 
L 129.454679 107.07807 
L 129.457255 107.11133 
L 129.508755 106.41287 
L 129.51133 106.44613 
L 129.784282 98.264168 
L 129.828058 21.533328 
L 129.900158 88.884846 
L 130.034059 110.137991 
L 130.036634 110.038211 
L 130.160235 110.603631 
L 130.273536 110.337551 
L 130.17311 110.670151 
L 130.278686 110.370811 
L 130.281261 110.404071 
L 130.368812 110.137991 
L 130.371387 110.137991 
L 130.389412 110.038211 
L 130.652064 108.042611 
L 130.654639 108.075871 
L 130.71644 107.44393 
L 130.922442 104.88291 
L 130.925017 104.91617 
L 131.100118 101.357349 
L 131.120718 92.377147 
L 131.159343 22.464608 
L 131.234019 88.153125 
L 131.37307 108.574771 
L 131.504396 109.439531 
L 131.648598 109.007151 
L 131.671773 108.973891 
L 131.800524 108.208911 
L 131.803099 108.242171 
L 131.859749 107.710011 
L 131.870049 107.710011 
L 132.52668 97.898308 
L 132.54728 60.347758 
L 132.575605 22.863728 
L 132.647706 84.561044 
L 132.786757 107.610231 
L 132.915508 108.341951 
L 132.923233 108.275431 
L 132.964433 108.175651 
L 133.093184 107.643491 
L 133.100909 107.710011 
L 133.17816 107.31089 
L 133.19361 107.37741 
L 133.389312 106.24657 
L 133.391887 106.27983 
L 133.456262 105.68115 
L 133.458837 105.74767 
L 133.649389 103.685549 
L 133.868266 99.428268 
L 133.894016 94.372747 
L 133.937791 23.163068 
L 134.009892 84.461264 
L 134.148943 106.87851 
L 134.166968 106.97829 
L 134.303444 107.44393 
L 134.311169 107.41067 
L 134.349795 107.31089 
L 134.491421 106.77873 
L 134.354945 107.34415 
L 134.496571 106.81199 
L 134.499146 106.84525 
L 134.558371 106.44613 
L 134.584122 106.51265 
L 134.748923 105.11573 
L 134.764373 105.01595 
L 135.199552 98.097868 
L 135.220152 85.492325 
L 135.258777 23.562188 
L 135.330878 83.463464 
L 135.472504 105.88071 
L 135.59353 106.47939 
L 135.657905 106.41287 
L 135.781506 105.94723 
L 135.784081 105.98049 
L 135.814982 105.88071 
L 136.008108 104.71661 
L 136.010683 104.78313 
L 136.031283 104.68335 
L 136.175485 103.319689 
L 136.19351 103.219909 
L 136.407237 100.525849 
L 136.409812 100.559109 
L 136.456162 99.794128 
L 136.657014 91.844986 
L 136.703364 23.928048 
L 136.77289 82.133064 
L 136.911941 104.94943 
L 136.914516 104.91617 
L 136.971166 105.44833 
L 136.976316 105.44833 
L 137.087042 105.74767 
L 137.092192 105.71441 
L 137.130818 105.61463 
L 137.329094 104.45053 
L 137.336819 104.51705 
L 137.401195 103.95163 
L 137.887874 96.235308 
L 137.903324 85.126465 
L 137.941949 24.493469 
L 138.01405 80.370283 
L 138.155676 104.08467 
L 138.297302 104.61683 
L 138.302452 104.58357 
L 138.328202 104.65009 
L 138.423478 104.38401 
L 138.426053 104.48379 
L 138.523904 104.01815 
L 138.536779 104.05141 
L 138.596005 103.519249 
L 138.59858 103.552509 
L 138.611455 103.485989 
L 138.771106 101.556909 
L 138.781406 101.457129 
L 138.930757 99.927169 
L 139.185684 95.204247 
L 139.226885 90.714146 
L 139.27581 24.892589 
L 139.347911 80.403543 
L 139.489537 103.319689 
L 139.502412 103.419469 
L 139.651763 104.11793 
L 139.659488 104.05141 
L 139.690389 104.18445 
L 139.775364 103.95163 
L 139.780514 104.01815 
L 139.852615 103.619029 
L 139.862915 103.652289 
L 139.893815 103.552509 
L 140.048316 102.388409 
L 140.058617 102.388409 
L 140.189943 101.157789 
L 140.192518 101.191049 
L 140.205393 101.091269 
L 140.406244 98.763068 
L 140.689497 93.774067 
L 140.715247 86.357085 
L 140.759022 24.892589 
L 140.831123 78.075343 
L 140.972749 102.454929 
L 141.1015 102.953829 
L 141.140125 103.053609 
L 141.155576 103.153389 
L 141.217376 102.987089 
L 141.245701 102.987089 
L 141.271452 102.887309 
L 141.400203 102.388409 
L 141.418228 102.288629 
L 141.73753 99.594568 
L 141.740105 99.627828 
L 141.796756 98.962628 
L 141.799331 98.995888 
L 142.005333 96.534648 
L 142.211334 92.476927 
L 142.237084 85.691885 
L 142.28086 25.790609 
L 142.35296 78.175123 
L 142.494587 101.257569 
L 142.510037 101.357349 
L 142.649088 101.789729 
L 142.515187 101.324089 
L 142.651663 101.756469 
L 142.695438 101.856249 
L 142.718613 101.889509 
L 142.782989 101.590169 
L 142.788139 101.623429 
L 142.94779 100.958229 
L 142.95294 100.991489 
L 143.009591 100.392809 
L 143.166667 98.596768 
L 143.179542 98.530248 
L 143.393269 95.836187 
L 143.406144 95.736407 
L 143.555495 87.454665 
L 143.604421 25.890389 
L 143.676521 76.478862 
L 143.820722 100.559109 
L 143.959774 101.290829 
L 144.1117 101.191049 
L 144.299676 100.126729 
L 144.302251 100.159989 
L 144.304826 100.193249 
L 144.361477 99.528048 
L 144.364052 99.528048 
L 144.510828 98.064608 
L 144.513403 98.064608 
L 144.675629 95.403807 
L 144.876481 88.119865 
L 144.930557 26.588849 
L 145.005232 77.310363 
L 145.146858 99.893908 
L 145.283334 100.592369 
L 145.329685 100.692149 
L 145.40436 100.459329 
L 145.432686 100.492589 
L 145.486761 100.159989 
L 145.491911 100.193249 
L 145.682463 99.062408 
L 145.687613 99.095668 
L 145.700488 98.995888 
L 145.860139 97.732008 
L 146.333943 90.248506 
L 146.369993 82.698484 
L 146.418919 26.422549 
L 146.491019 73.618502 
L 146.637796 99.195448 
L 146.787147 100.193249 
L 146.836072 100.259769 
L 146.905598 100.093469 
L 146.915898 100.126729 
L 146.982848 99.727608 
L 146.985423 99.727608 
L 147.194 98.463728 
L 147.201725 98.363948 
L 147.379402 96.534648 
L 147.381977 96.567908 
L 147.634329 91.911506 
L 147.73218 82.532184 
L 147.781105 26.987969 
L 147.850631 73.385681 
L 147.994832 97.931568 
L 148.118433 98.995888 
L 148.131308 98.962628 
L 148.239459 99.195448 
L 148.252334 99.128928 
L 148.257484 99.162188 
L 148.39911 98.663288 
L 148.41971 98.563508 
L 148.581937 97.199848 
L 148.584512 97.233108 
L 148.651462 96.700948 
L 148.654037 96.700948 
L 149.00939 90.714146 
L 149.06089 85.625365 
L 149.114966 27.254049 
L 149.189642 73.518722 
L 149.338993 97.432668 
L 149.341568 97.366148 
L 149.423968 97.898308 
L 149.429118 97.898308 
L 149.462594 97.931568 
L 149.478044 97.798528 
L 149.534694 97.865048 
L 149.555295 97.898308 
L 149.681471 97.399408 
L 149.707221 97.332888 
L 149.843697 96.301828 
L 150.394751 87.887045 
L 150.425652 70.924441 
L 150.466852 27.719689 
L 150.536378 69.36122 
L 150.685729 96.268568 
L 150.85568 97.831788 
L 150.904606 97.732008 
L 151.033357 97.465928 
L 151.035932 97.499188 
L 151.108032 97.100068 
L 151.118332 97.166588 
L 151.285709 95.669887 
L 151.319184 95.570107 
L 151.46596 94.539047 
L 151.468535 94.572307 
L 151.883114 87.820525 
L 151.921739 80.436803 
L 151.975814 27.719689 
L 152.04534 71.057481 
L 152.192116 95.669887 
L 152.207566 95.769667 
L 152.356918 96.434868 
L 152.362068 96.335088 
L 152.367218 96.301828 
L 152.385243 96.434868 
L 152.470218 96.335088 
L 152.526869 96.401608 
L 152.568069 96.135527 
L 152.573219 96.135527 
L 152.588669 96.069007 
L 152.758621 94.505787 
L 152.766346 94.439267 
L 152.907972 93.208647 
L 152.910547 93.241907 
L 152.967198 92.576707 
L 153.216975 87.986825 
L 153.32255 77.210582 
L 153.376626 29.74855 
L 153.446151 68.82906 
L 153.595503 94.239707 
L 153.757729 95.570107 
L 153.775754 95.570107 
L 153.84528 95.802927 
L 153.889055 95.703147 
L 153.92768 95.603367 
L 154.349984 91.578906 
L 154.357709 91.512386 
L 154.731087 79.937903 
L 154.795463 30.01463 
L 154.864988 67.73148 
L 155.014339 93.674287 
L 155.210041 94.771867 
L 155.325917 94.605567 
L 155.225491 94.871647 
L 155.331067 94.638827 
L 155.349092 94.771867 
L 155.408318 94.239707 
L 155.418618 94.372747 
L 155.565394 93.408207 
L 155.578269 93.341687 
L 155.72247 92.476927 
L 155.730195 92.443667 
L 155.882121 90.813926 
L 155.892422 90.714146 
L 156.090698 86.756205 
L 156.155074 80.303763 
L 156.219449 30.24745 
L 156.29155 66.86672 
L 156.446051 92.077806 
L 156.649478 93.341687 
L 156.652053 93.308427 
L 156.700978 93.241907 
L 156.822004 92.975827 
L 156.852904 92.909307 
L 156.989381 92.244106 
L 156.991956 92.277366 
L 157.048606 91.612166 
L 157.051181 91.645426 
L 157.226283 89.749606 
L 157.231433 89.782866 
L 157.234008 89.816126 
L 157.293233 89.217446 
L 157.300958 89.250706 
L 157.445159 87.953565 
L 157.48636 87.853785 
L 157.658886 85.459065 
L 157.890638 76.711682 
L 157.934413 57.021757 
L 157.975614 33.407151 
L 158.037414 61.877718 
L 158.19449 90.248506 
L 158.343842 91.379346 
L 158.346417 91.312826 
L 158.433967 91.246306 
L 158.562718 90.780666 
L 158.606494 90.747406 
L 158.735245 90.015686 
L 159.134373 86.290565 
L 159.144673 86.224045 
L 159.288874 84.461264 
L 159.497451 76.279302 
L 159.554102 55.392017 
L 159.595302 36.433812 
L 159.657102 61.112738 
L 159.811604 86.955765 
L 159.814179 86.889245 
L 159.94293 87.986825 
L 159.945505 87.953565 
L 159.95323 88.053345 
L 160.133481 89.217446 
L 160.143781 89.150926 
L 160.192707 89.250706 
L 160.259657 88.984626 
L 160.282833 88.884846 
L 160.432184 88.053345 
L 160.452784 88.086605 
L 160.455359 88.119865 
L 160.514585 87.720745 
L 160.530035 87.754005 
L 160.674236 86.390345 
L 160.738611 86.290565 
L 161.323141 77.310363 
L 161.408117 69.959901 
L 161.498243 40.192193 
L 161.560043 61.445338 
L 161.724844 85.159725 
L 161.899946 86.822725 
L 162.064747 87.554445 
L 162.134273 87.521185 
L 162.167748 87.654225 
L 162.301649 87.554445 
L 162.4201 86.855985 
L 162.458725 86.922505 
L 162.4613 86.955765 
L 162.525676 86.423605 
L 162.533401 86.456865 
L 162.561726 86.490125 
L 162.695627 85.691885 
L 162.705927 85.791665 
L 162.788328 85.026685 
L 162.790903 85.059945 
L 162.852704 84.428004 
L 162.855279 84.461264 
L 164.191715 68.19712 
L 164.20459 68.42994 
L 164.717019 78.807063 
L 164.727319 78.906843 
L 164.925596 80.037683 
L 164.928171 80.004423 
L 164.979671 80.669623 
L 164.984821 80.669623 
L 165.051772 81.135264 
L 165.123872 81.035484 
L 165.149623 81.102004 
L 165.273224 81.434604 
L 165.332449 81.268304 
L 165.378799 81.501124 
L 165.383949 81.434604 
L 165.4303 81.534384 
L 165.494675 81.634164 
L 165.530726 81.401344 
L 165.566776 81.301564 
L 165.595101 81.102004 
L 165.654327 81.401344 
L 165.682652 81.168524 
L 165.685227 81.235044 
L 165.772778 80.636363 
L 165.777928 80.702883 
L 165.850028 80.203983 
L 165.860328 80.170723 
L 165.99938 78.973363 
L 166.05088 79.073143 
L 166.08693 78.740543 
L 166.09208 78.740543 
L 166.10238 78.707283 
L 166.246582 77.376883 
L 166.287782 77.509923 
L 166.349582 77.243843 
L 166.352157 77.277103 
L 166.475758 76.611902 
L 166.534984 76.179522 
L 166.591634 76.512122 
L 166.704935 76.744942 
L 166.637985 76.478862 
L 166.715235 76.678422 
L 166.733261 76.778202 
L 166.746136 76.811462 
L 166.815661 76.611902 
L 166.836261 76.744942 
L 166.838836 76.678422 
L 166.869737 76.944502 
L 166.944412 76.778202 
L 167.011363 76.911242 
L 167.001063 76.711682 
L 167.055138 76.844722 
L 167.083463 76.877982 
L 167.222515 75.381282 
L 167.24054 75.447802 
L 167.29719 75.115202 
L 167.310065 75.115202 
L 167.348691 75.048682 
L 167.369291 75.214982 
L 167.418216 75.148462 
L 167.472292 75.248242 
L 167.528942 75.414542 
L 167.567567 75.081942 
L 167.570142 75.115202 
L 167.667993 74.483262 
L 167.704044 74.815862 
L 167.724644 74.882382 
L 167.807044 74.948902 
L 167.755544 74.782602 
L 167.832795 74.849122 
L 167.85597 74.782602 
L 167.858545 74.716082 
L 167.946096 75.248242 
L 168.067122 76.046482 
L 168.085147 76.013222 
L 168.087722 75.979962 
L 168.149522 76.578642 
L 168.154672 76.545382 
L 168.213898 76.744942 
L 168.252523 76.512122 
L 168.257673 76.512122 
L 168.291148 76.379082 
L 168.360674 76.744942 
L 168.363249 76.711682 
L 168.388999 76.744942 
L 168.432775 76.179522 
L 168.45595 76.279302 
L 168.561526 76.379082 
L 168.49715 76.046482 
L 168.571826 76.345822 
L 168.705727 76.412342 
L 168.741777 76.146262 
L 168.824178 76.611902 
L 168.940054 76.013222 
L 168.942629 76.046482 
L 168.958079 76.113002 
L 169.019879 75.880182 
L 169.04048 75.913442 
L 169.135755 75.348022 
L 169.164081 75.514322 
L 169.254206 75.846922 
L 169.176956 75.481062 
L 169.272231 75.580842 
L 169.326307 75.148462 
L 169.388107 75.281502 
L 169.462783 75.081942 
L 169.519433 75.813662 
L 169.66621 76.345822 
L 169.668785 76.312562 
L 169.720285 76.079742 
L 169.766635 76.379082 
L 169.771786 76.379082 
L 169.941737 77.210582 
L 169.944312 77.177322 
L 170.127138 76.246042 
L 170.142589 76.212782 
L 170.268765 75.414542 
L 170.28164 75.447802 
L 170.34344 74.948902 
L 170.34859 75.015422 
L 170.485066 74.350222 
L 170.513392 74.250442 
L 170.644718 73.718282 
L 170.662743 73.651762 
L 170.709093 73.418941 
L 170.776044 73.518722 
L 170.801794 73.585242 
L 170.848144 73.219381 
L 170.863594 73.219381 
L 171.043846 71.988761 
L 170.868745 73.252641 
L 171.059296 72.121801 
L 171.208647 73.452201 
L 171.218947 73.385681 
L 171.288473 73.618502 
L 171.249848 73.252641 
L 171.319373 73.352421 
L 171.432674 73.086341 
L 171.435249 73.119601 
L 171.468724 73.019821 
L 171.620651 72.288101 
L 171.53825 73.186121 
L 171.633526 72.321361 
L 171.672151 72.254841 
L 171.800902 71.689421 
L 171.803477 71.722681 
L 171.865278 71.789201 
L 171.934803 72.121801 
L 171.976004 71.822461 
L 171.996604 71.755941 
L 172.048104 72.321361 
L 172.055829 72.221581 
L 172.073854 72.321361 
L 172.13308 72.188321 
L 172.19488 72.520921 
L 172.197455 72.454401 
L 172.287581 72.986561 
L 172.290156 72.920041 
L 172.390582 73.285901 
L 172.408607 73.219381 
L 172.431782 73.119601 
L 172.493583 73.518722 
L 172.514183 73.352421 
L 172.609459 73.252641 
L 172.648084 73.651762 
L 172.678984 73.585242 
L 172.715035 73.385681 
L 172.75366 73.618502 
L 172.79486 73.452201 
L 172.820611 73.551982 
L 172.903011 73.917842 
L 172.933911 73.651762 
L 172.998287 73.518722 
L 173.039487 73.718282 
L 173.090988 73.818062 
L 173.237764 74.316962 
L 173.240339 74.250442 
L 173.32274 74.782602 
L 173.330465 74.782602 
L 173.41029 75.214982 
L 173.456641 75.015422 
L 173.500416 74.749342 
L 173.557067 75.281502 
L 173.559642 75.281502 
L 173.598267 75.181722 
L 173.685818 74.749342 
L 173.603417 75.214982 
L 173.739893 74.782602 
L 173.747618 74.815862 
L 173.819719 74.483262 
L 173.835169 74.616302 
L 173.891819 74.516522 
L 173.92787 74.749342 
L 173.935595 74.749342 
L 174.064346 74.649562 
L 174.383648 71.955501 
L 174.396523 71.988761 
L 174.476349 71.789201 
L 174.481499 71.855721 
L 174.55875 71.589641 
L 174.597375 71.722681 
L 174.607675 71.822461 
L 174.646301 71.955501 
L 174.692651 71.556381 
L 174.695226 71.589641 
L 174.826552 70.990961 
L 174.939853 71.190521 
L 174.942428 71.157261 
L 174.947578 71.223781 
L 175.073754 71.689421 
L 175.076329 71.656161 
L 175.13813 72.288101 
L 175.15873 72.354621 
L 175.166455 72.421141 
L 175.238555 71.955501 
L 175.256581 72.088541 
L 175.261731 72.022021 
L 175.297781 72.288101 
L 175.349281 72.254841 
L 175.472882 72.787001 
L 175.475457 72.753741 
L 175.552708 73.119601 
L 175.555283 73.119601 
L 175.722659 73.851322 
L 175.730384 73.951102 
L 175.745835 74.050882 
L 175.807635 73.818062 
L 175.84111 73.984362 
L 175.928661 74.084142 
L 176.016212 74.549782 
L 176.049687 74.383482 
L 176.096037 74.084142 
L 176.155263 74.416742 
L 176.157838 74.383482 
L 176.268564 75.115202 
L 176.294314 75.048682 
L 176.330364 75.181722 
L 176.37414 74.849122 
L 176.38959 74.849122 
L 176.39989 74.782602 
L 176.556966 73.551982 
L 176.574991 73.718282 
L 176.652242 73.385681 
L 176.662542 73.452201 
L 176.675417 73.418941 
L 176.739793 73.884582 
L 176.768118 74.183922 
L 176.832493 73.751542 
L 176.842794 73.818062 
L 176.896869 73.951102 
L 176.992145 73.252641 
L 177.04107 73.418941 
L 177.087421 72.986561 
L 177.089996 72.986561 
L 177.169821 72.653961 
L 177.192996 73.019821 
L 177.200721 72.986561 
L 177.218747 72.886781 
L 177.339773 71.722681 
L 177.355223 71.822461 
L 177.378398 71.789201 
L 177.396423 71.656161 
L 177.437623 72.055281 
L 177.481399 71.988761 
L 177.586975 72.221581 
L 177.512299 71.789201 
L 177.602425 72.121801 
L 177.62045 72.088541 
L 177.67195 72.587441 
L 177.674525 72.587441 
L 177.731176 73.186121 
L 177.792976 72.787001 
L 177.844477 72.820261 
L 177.890827 72.620701 
L 177.898552 72.720481 
L 177.916577 72.620701 
L 178.035028 72.387881 
L 177.947478 72.753741 
L 178.040178 72.421141 
L 178.083954 72.520921 
L 178.107129 72.254841 
L 178.150904 72.454401 
L 178.25133 72.554181 
L 178.320856 72.687221 
L 178.351756 72.321361 
L 178.398106 72.221581 
L 178.550033 71.622901 
L 178.552608 71.656161 
L 178.676209 72.221581 
L 178.570633 71.589641 
L 178.683934 72.188321 
L 178.730284 72.288101 
L 178.745734 72.421141 
L 178.797235 72.155061 
L 178.838435 72.221581 
L 178.941436 72.288101 
L 179.072762 72.953301 
L 179.075337 72.920041 
L 179.147437 72.820261 
L 179.180913 72.653961 
L 179.253013 72.886781 
L 179.314814 72.953301 
L 179.44099 73.385681 
L 179.520816 73.485462 
L 179.652142 74.183922 
L 179.680467 74.117402 
L 179.804068 73.751542 
L 179.814368 73.818062 
L 179.937969 74.183922 
L 179.945694 74.150662 
L 180.074445 73.452201 
L 180.326797 71.223781 
L 180.089895 73.485462 
L 180.349972 71.323561 
L 180.360272 71.290301 
L 180.481298 70.658361 
L 180.540524 70.558581 
L 180.633225 69.793601 
L 180.674425 69.959901 
L 180.813476 71.157261 
L 180.679575 69.926641 
L 180.862402 70.957701 
L 180.877852 71.057481 
L 180.957677 71.223781 
L 180.986003 71.024221 
L 181.192004 68.49646 
L 181.269255 68.72928 
L 181.284705 68.7958 
L 181.361956 68.36342 
L 181.364531 68.39668 
L 181.485557 67.86452 
L 181.503582 67.99756 
L 181.611733 67.9643 
L 181.637483 68.33016 
L 181.748209 68.23038 
L 181.727609 68.39668 
L 181.753359 68.26364 
L 181.864085 68.33016 
L 181.768809 68.16386 
L 181.86666 68.2969 
L 181.925885 68.42994 
L 181.982536 68.19712 
L 181.992836 68.2969 
L 182.072661 67.798 
L 182.075237 67.798 
L 182.147337 66.73368 
L 182.227163 67.26584 
L 182.399689 68.4632 
L 182.412564 68.2969 
L 182.45634 68.03082 
L 182.520715 68.39668 
L 182.525865 68.33016 
L 182.595391 69.09514 
L 182.603116 69.06188 
L 182.747317 69.959901 
L 182.749892 69.926641 
L 182.801392 70.625101 
L 182.803968 70.625101 
L 183.048595 72.354621 
L 183.151595 72.188321 
L 183.09237 72.421141 
L 183.15932 72.354621 
L 183.280346 72.820261 
L 183.342147 72.753741 
L 183.375622 73.019821 
L 183.378197 72.986561 
L 183.391072 73.086341 
L 183.429698 73.186121 
L 183.478623 72.886781 
L 183.486348 72.886781 
L 183.532698 72.620701 
L 183.599649 72.853521 
L 183.612524 72.753741 
L 183.656299 73.019821 
L 183.77475 71.423341 
L 183.875176 71.589641 
L 183.805651 71.356821 
L 183.890626 71.523121 
L 183.906077 71.356821 
L 183.985902 71.755941 
L 183.996202 71.689421 
L 184.163579 73.152861 
L 184.189329 73.086341 
L 184.30778 72.853521 
L 184.315505 72.753741 
L 184.35413 72.787001 
L 184.446831 72.487661 
L 184.467431 72.421141 
L 184.632233 71.024221 
L 184.771284 71.489861 
L 184.647683 70.891181 
L 184.773859 71.423341 
L 184.809909 71.390081 
L 184.941235 70.591841 
L 184.96441 70.492061 
L 185.221912 68.16386 
L 185.239938 68.36342 
L 185.270838 68.42994 
L 185.283713 68.49646 
L 185.363539 68.09734 
L 185.366114 68.09734 
L 185.466539 67.53192 
L 185.515465 67.59844 
L 185.541215 67.33236 
L 185.672541 68.19712 
L 185.680266 68.26364 
L 185.814167 68.89558 
L 185.816742 68.86232 
L 185.868243 69.461 
L 185.881118 69.461 
L 186.009869 69.993161 
L 186.130895 69.49426 
L 186.136045 69.59404 
L 186.344622 69.52752 
L 186.419297 68.99536 
L 186.460498 69.26144 
L 186.527448 69.59404 
L 186.578948 69.56078 
L 186.594399 69.66056 
L 186.7077 69.760341 
L 186.604699 69.59404 
L 186.710275 69.727081 
L 186.76435 69.793601 
L 186.875076 69.959901 
L 186.839026 69.727081 
L 186.877651 69.926641 
L 186.887951 70.026421 
L 186.942026 70.092941 
L 186.983227 69.926641 
L 186.985802 69.926641 
L 187.104253 69.461 
L 187.109403 69.52752 
L 187.202104 69.56078 
L 187.163478 69.32796 
L 187.209829 69.49426 
L 187.212404 69.39448 
L 187.305104 69.860121 
L 187.31283 69.793601 
L 187.320555 69.893381 
L 187.39008 69.59404 
L 187.42098 69.760341 
L 187.441581 69.66056 
L 187.462181 69.56078 
L 187.521406 69.860121 
L 187.542006 69.793601 
L 187.565182 69.727081 
L 187.693933 69.22818 
L 187.760883 69.1284 
L 187.766033 69.06188 
L 187.835559 69.39448 
L 187.858734 69.2947 
L 187.982335 70.026421 
L 187.99521 69.959901 
L 188.041561 70.059681 
L 188.069886 70.126201 
L 188.113661 69.959901 
L 188.144561 69.993161 
L 188.347988 68.7958 
L 188.376313 68.76254 
L 188.497339 68.1306 
L 188.412364 68.7958 
L 188.502489 68.16386 
L 188.54369 68.23038 
L 188.59519 67.76474 
L 188.60034 67.86452 
L 188.602915 67.798 
L 188.685316 68.2969 
L 188.690466 68.2969 
L 188.775442 69.22818 
L 188.832092 69.09514 
L 188.852692 69.06188 
L 188.929943 68.42994 
L 188.973718 68.6295 
L 188.984018 68.69602 
L 189.030369 68.76254 
L 189.089594 68.56298 
L 189.092169 68.59624 
L 189.171995 68.2969 
L 189.187445 68.39668 
L 189.21062 68.23038 
L 189.290446 68.52972 
L 189.298171 68.39668 
L 189.331646 68.33016 
L 189.442372 67.69822 
L 189.460397 67.86452 
L 189.465547 67.798 
L 189.540223 68.26364 
L 189.560823 68.36342 
L 189.607173 68.4632 
L 189.666399 68.26364 
L 189.668974 68.33016 
L 189.720474 68.42994 
L 189.782275 68.52972 
L 189.81575 68.26364 
L 189.823475 68.33016 
L 189.8312 68.33016 
L 189.926476 68.52972 
L 189.941926 68.4632 
L 190.029477 68.03082 
L 190.068102 68.06408 
L 190.088702 67.9643 
L 190.183978 67.798 
L 190.199428 67.9643 
L 190.230328 68.06408 
L 190.261229 68.2969 
L 190.317879 68.03082 
L 190.346204 68.19712 
L 190.361655 68.36342 
L 190.44663 68.1306 
L 190.449205 68.1306 
L 190.492981 67.93104 
L 190.547056 68.23038 
L 190.549631 68.23038 
L 190.619157 68.7958 
L 190.665507 68.39668 
L 190.686107 68.33016 
L 190.825158 67.53192 
L 190.853484 67.59844 
L 190.840608 67.49866 
L 190.863784 67.49866 
L 190.997685 100.758669 
L 191.353038 116.623693 
L 191.654315 121.546174 
L 191.66204 121.645954 
L 192.053443 125.271295 
L 192.068894 125.337815 
L 192.21567 126.302355 
L 192.23112 126.269095 
L 192.28262 126.634956 
L 192.29807 126.634956 
L 192.416521 127.067336 
L 192.308371 126.601696 
L 192.424246 127.034076 
L 192.426822 127.000816 
L 192.509222 127.333416 
L 192.516947 127.266896 
L 192.674024 127.965356 
L 192.676599 127.865576 
L 192.777024 128.231436 
L 192.80535 128.297956 
L 192.81565 128.264696 
L 192.923801 128.530776 
L 193.008776 128.630556 
L 193.096327 128.763596 
L 193.019076 128.597296 
L 193.122077 128.730336 
L 193.124652 128.630556 
L 193.158128 128.796856 
L 193.230228 128.730336 
L 193.333229 128.929896 
L 193.235378 128.663816 
L 193.351254 128.863376 
L 193.353829 128.830116 
L 193.382154 128.996416 
L 193.45168 128.996416 
L 193.541806 129.096196 
L 193.570131 129.029676 
L 193.655107 129.195976 
L 194.01561 129.096196 
L 194.038785 129.129456 
L 194.139211 128.929896 
L 194.576964 128.863376 
L 194.589839 128.929896 
L 194.68769 128.796856 
L 194.749491 128.863376 
L 194.767516 128.730336 
L 194.793266 128.796856 
L 194.909142 128.597296 
L 194.911717 128.663816 
L 194.968367 128.464256 
L 195.017293 128.530776 
L 195.048193 128.397736 
L 195.130594 128.430996 
L 195.140894 128.497516 
L 195.194969 128.331216 
L 195.23617 128.464256 
L 195.28252 128.297956 
L 195.30312 128.497516 
L 195.346895 128.364476 
L 195.388096 128.464256 
L 195.429296 128.297956 
L 195.457621 128.397736 
L 195.570922 128.264696 
L 195.738299 128.164916 
L 195.843875 128.131656 
L 195.761474 128.264696 
L 195.849025 128.164916 
L 196.085927 128.065136 
L 196.111677 128.131656 
L 196.201802 127.965356 
L 196.315103 128.065136 
L 196.317678 128.031876 
L 196.428404 127.898836 
L 196.430979 127.932096 
L 196.510805 127.965356 
L 196.531405 127.799056 
L 196.732257 127.732536 
L 196.866158 127.133856 
L 196.899633 127.034076 
L 197.018084 126.668216 
L 197.036109 126.701476 
L 197.126235 126.634956 
L 197.236961 126.402136 
L 197.244686 126.435396 
L 197.314212 126.335615 
L 197.275586 126.501916 
L 197.357987 126.368875 
L 197.391462 126.402136 
L 197.437813 126.269095 
L 197.463563 126.302355 
L 197.473863 126.402136 
L 197.489313 126.435396 
L 197.525363 126.269095 
L 197.574289 126.302355 
L 197.648964 126.235835 
L 197.607764 126.368875 
L 197.685015 126.302355 
L 197.75454 126.368875 
L 197.695315 126.269095 
L 197.795741 126.302355 
L 198.053243 126.402136 
L 198.078993 126.335615 
L 198.158819 126.435396 
L 198.274695 126.235835 
L 198.326195 126.335615 
L 198.300445 126.202575 
L 198.382845 126.202575 
L 198.426621 126.136055 
L 198.467821 126.302355 
L 198.488421 126.269095 
L 198.779399 126.235835 
L 198.799999 126.136055 
L 198.861799 126.302355 
L 198.88755 126.269095 
L 199.165652 126.202575 
L 199.168227 126.136055 
L 199.196552 126.335615 
L 199.271228 126.302355 
L 199.477229 126.368875 
L 199.587955 126.535176 
L 199.593105 126.501916 
L 199.672931 126.634956 
L 199.711556 126.601696 
L 200.043734 126.701476 
L 200.048884 126.734736 
L 200.054034 126.601696 
L 200.151885 126.668216 
L 200.20596 126.535176 
L 200.17506 126.734736 
L 200.265186 126.601696 
L 200.375912 126.734736 
L 200.381062 126.668216 
L 200.445437 126.734736 
L 200.448012 126.834516 
L 200.514963 126.501916 
L 200.548438 126.535176 
L 200.579338 126.468656 
L 200.628264 126.668216 
L 200.654014 126.601696 
L 200.715815 126.801256 
L 200.77504 126.734736 
L 200.82139 126.634956 
L 200.79564 126.767996 
L 200.888341 126.701476 
L 200.921816 126.801256 
L 200.955292 126.668216 
L 200.999067 126.767996 
L 201.022242 126.601696 
L 201.109793 126.634956 
L 201.125243 126.767996 
L 201.220519 126.668216 
L 201.228244 126.634956 
L 201.287469 126.801256 
L 201.32867 126.701476 
L 201.39047 126.801256 
L 201.41107 126.767996 
L 201.506346 127.000816 
L 201.508921 127.034076 
L 201.601622 126.834516 
L 201.609347 126.901036 
L 201.702048 126.801256 
L 201.720073 126.867776 
L 201.771573 126.867776 
L 201.841099 127.034076 
L 201.884874 127.000816 
L 201.918349 126.934296 
L 201.902899 127.067336 
L 201.987875 127.034076 
L 202.057401 127.167116 
L 201.9956 127.000816 
L 202.101176 127.100596 
L 202.235077 127.167116 
L 202.237652 127.233636 
L 202.247952 127.100596 
L 202.345803 127.200376 
L 202.397303 127.034076 
L 202.456529 127.167116 
L 202.541505 127.100596 
L 202.608455 127.034076 
L 202.64193 127.200376 
L 202.64708 127.200376 
L 202.729481 127.133856 
L 202.775831 127.067336 
L 202.829907 127.233636 
L 202.837632 127.133856 
L 202.938058 127.266896 
L 202.956083 127.233636 
L 203.100284 127.266896 
L 203.102859 127.366676 
L 203.14921 127.200376 
L 203.21101 127.266896 
L 203.239335 127.333416 
L 203.324311 127.200376 
L 203.370661 127.266896 
L 203.332036 127.133856 
L 203.432462 127.200376 
L 203.530313 127.133856 
L 203.442762 127.233636 
L 203.545763 127.167116 
L 203.656489 127.233636 
L 203.553488 127.133856 
L 203.659064 127.200376 
L 203.664214 127.167116 
L 203.702839 127.300156 
L 203.76464 127.233636 
L 203.875365 127.333416 
L 203.777515 127.200376 
L 203.877941 127.300156 
L 203.893391 127.366676 
L 203.950041 127.200376 
L 203.986091 127.266896 
L 204.089092 127.366676 
L 204.107117 127.399936 
L 204.161193 127.233636 
L 204.194668 127.300156 
L 204.302819 127.233636 
L 204.310544 127.133856 
L 204.354319 127.300156 
L 204.413545 127.233636 
L 204.493371 127.200376 
L 204.495946 127.333416 
L 204.521696 127.233636 
L 204.619547 127.300156 
L 204.588646 127.200376 
L 204.632422 127.266896 
L 204.753448 127.000816 
L 204.761173 127.034076 
L 204.835848 127.200376 
L 204.877049 127.167116 
L 204.902799 127.200376 
L 204.897649 127.100596 
L 204.982625 127.133856 
L 205.07275 127.034076 
L 205.013525 127.167116 
L 205.095926 127.067336 
L 205.198926 127.133856 
L 205.108801 127.000816 
L 205.206651 127.100596 
L 205.592905 127.200376 
L 205.685605 127.300156 
L 205.61093 127.133856 
L 205.706206 127.233636 
L 205.883882 127.300156 
L 205.886457 127.366676 
L 205.974008 127.133856 
L 205.989458 127.233636 
L 206.105334 127.034076 
L 206.218635 127.200376 
L 206.22121 127.133856 
L 206.27786 127.266896 
L 206.329361 127.167116 
L 206.427211 127.233636 
L 206.355111 127.100596 
L 206.440087 127.167116 
L 206.530212 127.067336 
L 206.463262 127.233636 
L 206.550812 127.133856 
L 206.638363 127.167116 
L 206.581713 127.067336 
L 206.653813 127.100596 
L 206.656388 127.034076 
L 206.741364 127.167116 
L 206.764539 127.100596 
L 206.844365 127.034076 
L 206.955091 126.934296 
L 206.85724 127.100596 
L 206.957666 126.967556 
L 207.014316 126.901036 
L 207.052942 126.801256 
L 207.086417 126.967556 
L 207.125042 126.834516 
L 207.228043 126.934296 
L 207.143067 126.801256 
L 207.240918 126.901036 
L 207.743047 126.834516 
L 207.773948 126.867776 
L 207.856348 126.734736 
L 207.969649 126.867776 
L 208.080375 126.701476 
L 208.085525 126.734736 
L 208.265777 126.767996 
L 208.268352 126.867776 
L 208.278652 126.734736 
L 208.376502 126.834516 
L 208.466628 126.734736 
L 208.487228 126.767996 
L 208.574779 126.801256 
L 208.559329 126.701476 
L 208.592804 126.734736 
L 208.618554 126.601696 
L 208.690655 126.801256 
L 208.70353 126.734736 
L 208.752456 126.634956 
L 208.855456 126.601696 
L 208.796231 126.734736 
L 208.863181 126.634956 
L 208.976482 126.734736 
L 209.009958 126.601696 
L 209.038283 126.801256 
L 209.087208 126.701476 
L 209.635688 126.801256 
L 209.638263 126.834516 
L 209.728389 126.668216 
L 209.741264 126.734736 
L 209.831389 126.767996 
L 209.895765 126.934296 
L 209.849415 126.734736 
L 209.942115 126.801256 
L 209.957565 126.734736 
L 209.985891 126.901036 
L 210.052841 126.801256 
L 210.148117 126.834516 
L 210.124942 126.701476 
L 210.160992 126.801256 
L 210.261418 126.734736 
L 210.189317 126.834516 
L 210.274293 126.767996 
L 210.300043 126.867776 
L 210.359269 126.668216 
L 210.382444 126.734736 
L 210.46742 126.601696 
L 210.418494 126.767996 
L 210.49317 126.634956 
L 210.572995 126.734736 
L 210.578146 126.601696 
L 210.603896 126.634956 
L 210.977274 126.535176 
L 211.080275 126.468656 
L 211.005599 126.568436 
L 211.088 126.535176 
L 211.203876 126.601696 
L 211.206451 126.701476 
L 211.288851 126.435396 
L 211.312027 126.535176 
L 211.417602 126.402136 
L 211.427903 126.468656 
L 211.440778 126.402136 
L 211.525753 126.235835 
L 211.554079 126.302355 
L 211.863081 126.402136 
L 211.873381 126.335615 
L 211.976382 126.501916 
L 212.051058 126.402136 
L 212.022732 126.535176 
L 212.089683 126.435396 
L 212.197834 126.402136 
L 212.143758 126.501916 
L 212.200409 126.435396 
L 212.269934 126.535176 
L 212.28281 126.568436 
L 212.305985 126.468656 
L 212.378085 126.501916 
L 212.607262 126.568436 
L 212.612412 126.535176 
L 212.720563 126.668216 
L 212.810689 126.767996 
L 212.882789 126.867776 
L 212.836439 126.734736 
L 212.921415 126.767996 
L 212.92399 126.668216 
L 212.94459 126.834516 
L 213.032141 126.767996 
L 213.039866 126.668216 
L 213.050166 126.801256 
L 213.142867 126.767996 
L 213.235567 126.834516 
L 213.153167 126.734736 
L 213.253592 126.767996 
L 213.317968 126.867776 
L 213.436419 127.000816 
L 213.52912 126.834516 
L 213.55487 126.901036 
L 213.665596 127.067336 
L 213.58577 126.867776 
L 213.675896 127.034076 
L 213.696496 127.000816 
L 213.760872 126.834516 
L 213.807222 127.000816 
L 213.899923 126.867776 
L 213.830397 127.034076 
L 213.920523 126.934296 
L 214.023524 127.067336 
L 214.033824 126.967556 
L 214.095624 127.067336 
L 214.103349 127.100596 
L 214.147125 126.934296 
L 214.203775 127.034076 
L 214.244976 126.934296 
L 214.268151 127.100596 
L 214.311926 127.034076 
L 214.319651 127.100596 
L 214.391752 126.867776 
L 214.409777 126.867776 
L 214.561703 126.235835 
L 214.566853 126.269095 
L 214.590028 126.202575 
L 214.698179 125.903235 
L 214.602904 126.235835 
L 214.708479 125.969755 
L 214.80633 126.069535 
L 214.721355 125.936495 
L 214.82178 126.036275 
L 214.929931 126.003015 
L 214.953106 125.903235 
L 215.007182 126.069535 
L 215.040657 126.003015 
L 215.146233 126.069535 
L 215.092158 125.936495 
L 215.151383 126.036275 
L 215.153958 126.003015 
L 215.200308 126.136055 
L 215.256959 126.102795 
L 215.372835 126.368875 
L 215.37541 126.335615 
L 215.434635 126.269095 
L 215.398585 126.402136 
L 215.480986 126.402136 
L 215.576262 126.501916 
L 215.684412 126.634956 
L 215.689562 126.601696 
L 215.808013 126.701476 
L 215.913589 126.801256 
L 215.820889 126.634956 
L 215.918739 126.767996 
L 215.952215 126.701476 
L 216.024315 126.867776 
L 216.02689 126.767996 
L 216.050065 126.867776 
L 216.104141 126.734736 
L 216.140191 126.801256 
L 216.449194 126.901036 
L 216.485244 126.867776 
L 216.56507 127.000816 
L 216.58567 126.901036 
L 216.61657 127.067336 
L 216.675796 127.000816 
L 216.773646 127.100596 
L 216.691246 126.934296 
L 216.789097 127.067336 
L 216.879222 127.034076 
L 216.838022 127.200376 
L 216.899822 127.067336 
L 217.613103 127.133856 
L 217.723829 127.266896 
L 217.656879 127.100596 
L 217.726404 127.200376 
L 217.83198 127.167116 
L 217.736704 127.266896 
L 217.834555 127.200376 
L 217.891206 127.300156 
L 217.945281 127.233636 
L 218.210508 127.333416 
L 218.292909 127.466456 
L 218.251709 127.300156 
L 218.326384 127.433196 
L 218.383035 127.333416 
L 218.419085 127.566236 
L 218.434535 127.466456 
L 218.522086 127.566236 
L 218.444835 127.433196 
L 218.547836 127.499716 
L 218.843963 127.532976 
L 218.905764 127.433196 
L 218.954689 127.632756 
L 219.06284 127.366676 
L 219.070565 127.433196 
L 219.075715 127.399936 
L 219.183866 127.499716 
L 219.240517 127.433196 
L 219.250817 127.566236 
L 219.294592 127.499716 
L 219.361543 127.433196 
L 219.469694 127.333416 
L 219.402743 127.466456 
L 219.474844 127.366676 
L 219.549519 127.300156 
L 219.629345 127.200376 
L 219.582994 127.333416 
L 219.66282 127.233636 
L 220.134049 127.300156 
L 220.2319 127.466456 
L 220.249925 127.433196 
L 220.327176 127.300156 
L 220.365801 127.333416 
L 220.471377 127.399936 
L 220.476527 127.366676 
L 220.528027 127.300156 
L 220.571803 127.466456 
L 220.584678 127.366676 
L 220.659353 127.466456 
L 220.618153 127.300156 
L 220.692829 127.366676 
L 220.780379 127.266896 
L 220.721154 127.399936 
L 220.803554 127.366676 
L 221.063632 127.433196 
L 221.171783 127.599496 
L 221.068782 127.399936 
L 221.176933 127.566236 
L 221.187233 127.499716 
L 221.194958 127.632756 
L 221.287658 127.566236 
L 221.292808 127.599496 
L 221.372634 127.266896 
L 221.375209 127.300156 
L 221.511685 126.901036 
L 221.521985 127.034076 
L 221.550311 126.834516 
L 221.617261 126.834516 
L 221.622411 126.767996 
L 221.632711 126.901036 
L 221.727987 126.834516 
L 221.988064 126.901036 
L 222.029265 127.000816 
L 222.000939 126.867776 
L 222.09879 126.934296 
L 222.155441 126.901036 
L 222.173466 127.067336 
L 222.204366 126.967556 
L 222.255866 127.100596 
L 222.307367 126.934296 
L 222.312517 126.967556 
L 222.418093 126.867776 
L 222.317667 127.000816 
L 222.423243 126.934296 
L 222.451568 127.000816 
L 222.521094 126.801256 
L 222.531394 126.901036 
L 222.618944 126.801256 
L 222.626669 126.934296 
L 222.64212 126.867776 
L 222.711645 126.901036 
L 222.773446 127.000816 
L 222.716795 126.834516 
L 222.819796 126.834516 
L 222.840396 126.934296 
L 222.881597 126.767996 
L 222.927947 126.834516 
L 223.010348 126.801256 
L 222.963997 126.901036 
L 223.033523 126.901036 
L 223.066998 126.834516 
L 223.126224 126.767996 
L 223.159699 126.901036 
L 223.177724 126.834516 
L 223.795729 126.867776 
L 223.88328 126.967556 
L 223.906455 126.867776 
L 223.921905 126.967556 
L 224.012031 126.801256 
L 224.019756 126.867776 
L 224.022331 126.934296 
L 224.084131 126.734736 
L 224.127907 126.801256 
L 224.194857 126.701476 
L 224.230908 126.834516 
L 224.238633 126.734736 
L 224.303008 126.801256 
L 224.292708 126.701476 
L 224.349359 126.767996 
L 224.424034 126.668216 
L 224.460085 126.701476 
L 224.55021 126.834516 
L 224.573385 126.801256 
L 224.645486 126.634956 
L 224.689261 126.701476 
L 224.784537 126.834516 
L 224.802562 126.801256 
L 224.838613 126.701476 
L 224.923588 126.568436 
L 224.861788 126.767996 
L 224.954489 126.634956 
L 225.031739 126.701476 
L 224.990539 126.568436 
L 225.065214 126.634956 
L 225.12444 126.701476 
L 225.237741 126.934296 
L 225.13474 126.668216 
L 225.240316 126.867776 
L 225.286666 126.901036 
L 225.289241 127.000816 
L 225.291816 126.867776 
L 225.397392 126.901036 
L 225.505543 127.000816 
L 225.405117 126.867776 
L 225.510693 126.967556 
L 225.608544 126.867776 
L 225.518418 127.000816 
L 225.623994 126.934296 
L 225.680645 127.000816 
L 225.69867 126.867776 
L 225.726995 126.867776 
L 225.72957 126.834516 
L 225.817121 127.100596 
L 225.819696 127.100596 
L 225.878921 127.000816 
L 225.881496 126.967556 
L 225.938147 127.133856 
L 225.981922 127.100596 
L 226.012822 127.034076 
L 226.095223 127.167116 
L 226.105523 127.133856 
L 226.187924 127.333416 
L 226.193074 127.233636 
L 226.306375 127.399936 
L 226.411951 127.433196 
L 226.414526 127.532976 
L 226.422251 127.399936 
L 226.522676 127.433196 
L 226.999055 127.366676 
L 227.014505 127.399936 
L 227.112356 127.233636 
L 227.197332 127.366676 
L 227.223082 127.300156 
L 227.341533 126.934296 
L 227.362133 126.901036 
L 227.457409 127.067336 
L 227.478009 126.934296 
L 227.547535 127.133856 
L 227.57071 127.000816 
L 227.658261 127.133856 
L 227.640236 126.967556 
L 227.684011 127.067336 
L 227.740661 127.000816 
L 227.730361 127.133856 
L 227.792162 127.100596 
L 227.851387 127.200376 
L 227.805037 127.067336 
L 227.905463 127.167116 
L 227.908038 127.100596 
L 227.985288 127.233636 
L 228.013614 127.233636 
L 228.12434 127.100596 
L 228.039364 127.266896 
L 228.132065 127.133856 
L 228.451367 127.067336 
L 228.564668 126.967556 
L 229.028172 127.067336 
L 229.077097 127.133856 
L 229.123448 127.000816 
L 229.133748 127.034076 
L 229.221299 126.934296 
L 229.156923 127.100596 
L 229.247049 126.967556 
L 229.352625 127.000816 
L 229.313999 126.867776 
L 229.357775 126.967556 
L 229.465926 126.834516 
L 229.368075 127.000816 
L 229.468501 126.901036 
L 229.566351 126.934296 
L 229.568926 126.801256 
L 229.574076 126.834516 
L 229.638452 126.801256 
L 229.584377 126.901036 
L 229.682227 126.867776 
L 229.772353 127.133856 
L 229.808403 127.067336 
L 229.839304 126.967556 
L 229.880504 126.867776 
L 229.849604 127.000816 
L 229.947455 126.967556 
L 230.03758 127.034076 
L 229.98608 126.867776 
L 230.050455 126.901036 
L 230.153456 126.767996 
L 230.094231 126.934296 
L 230.163756 126.801256 
L 230.485634 126.867776 
L 230.578335 126.967556 
L 230.539709 126.801256 
L 230.598935 126.934296 
L 230.707086 126.767996 
L 230.61696 126.967556 
L 230.712236 126.834516 
L 230.807512 126.767996 
L 230.910512 126.402136 
L 230.925963 126.435396 
L 230.933688 126.468656 
L 231.044414 126.302355 
L 231.124239 126.368875 
L 231.149989 126.235835 
L 231.16029 126.335615 
L 231.162865 126.368875 
L 231.21179 126.235835 
L 231.265865 126.269095 
L 231.79632 126.302355 
L 231.81692 126.402136 
L 231.86842 126.202575 
L 231.904471 126.202575 
L 231.997171 126.169315 
L 232.022922 126.302355 
L 232.298449 126.368875 
L 232.383425 126.501916 
L 232.409175 126.402136 
L 232.599726 126.402136 
L 232.602301 126.568436 
L 232.604876 126.368875 
L 232.710452 126.468656 
L 232.725902 126.435396 
L 232.805728 126.601696 
L 232.808303 126.568436 
L 232.810878 126.634956 
L 232.888129 126.435396 
L 232.913879 126.501916 
L 232.934479 126.402136 
L 233.01688 126.568436 
L 233.024605 126.501916 
L 233.63231 126.468656 
L 233.634885 126.368875 
L 233.735311 126.535176 
L 233.740461 126.501916 
L 233.918137 126.568436 
L 233.941312 126.634956 
L 233.987663 126.501916 
L 234.026288 126.535176 
L 234.134439 126.501916 
L 234.059763 126.601696 
L 234.137014 126.535176 
L 234.577343 126.601696 
L 234.579918 126.668216 
L 234.605668 126.535176 
L 234.685493 126.634956 
L 234.767894 126.535176 
L 234.698369 126.668216 
L 234.796219 126.634956 
L 234.82712 126.501916 
L 234.881195 126.668216 
L 234.906945 126.634956 
L 235.213373 126.568436 
L 235.321524 126.501916 
L 235.259723 126.668216 
L 235.324099 126.535176 
L 235.419374 126.601696 
L 235.406499 126.501916 
L 235.434825 126.568436 
L 235.486325 126.402136 
L 235.53525 126.601696 
L 235.545551 126.501916 
L 235.571301 126.468656 
L 235.658851 126.634956 
L 235.666577 126.535176 
L 235.730952 126.701476 
L 235.767002 126.701476 
L 235.851978 126.634956 
L 235.818503 126.734736 
L 235.877728 126.701476 
L 235.978154 126.701476 
L 235.980729 126.568436 
L 236.016779 126.767996 
L 236.08888 126.634956 
L 236.112055 126.734736 
L 236.163556 126.801256 
L 236.142955 126.634956 
L 236.215056 126.668216 
L 236.217631 126.601696 
L 236.227931 126.767996 
L 236.323207 126.734736 
L 236.390157 126.767996 
L 236.498308 126.934296 
L 236.395307 126.734736 
L 236.503458 126.867776 
L 236.691435 126.801256 
L 236.717185 126.701476 
L 236.75066 126.867776 
L 236.802161 126.801256 
L 236.987562 126.834516 
L 236.990137 126.934296 
L 237.033913 126.734736 
L 237.098288 126.867776 
L 237.203864 126.801256 
L 237.206439 126.734736 
L 237.30429 126.934296 
L 237.312015 126.867776 
L 237.327465 126.834516 
L 237.427891 126.967556 
L 237.435616 127.000816 
L 237.541192 126.867776 
L 237.546342 126.967556 
L 237.595267 126.834516 
L 237.651918 126.867776 
L 237.767794 126.801256 
L 237.827019 126.901036 
L 237.778094 126.734736 
L 237.875945 126.767996 
L 237.901695 126.668216 
L 237.91972 126.801256 
L 237.989246 126.734736 
L 238.022721 126.701476 
L 238.105122 126.834516 
L 238.156622 126.734736 
L 238.133447 126.867776 
L 238.215847 126.834516 
L 238.295673 126.967556 
L 238.226148 126.767996 
L 238.334298 126.934296 
L 238.336873 126.867776 
L 238.357474 127.000816 
L 238.442449 126.901036 
L 238.53515 126.967556 
L 238.5506 126.834516 
L 238.604676 126.901036 
L 238.633001 126.734736 
L 238.661326 126.834516 
L 238.684501 126.901036 
L 238.777202 126.767996 
L 238.954879 126.867776 
L 238.960029 126.901036 
L 238.978054 126.734736 
L 239.060454 126.834516 
L 239.07848 126.867776 
L 239.173755 126.634956 
L 239.194355 126.834516 
L 239.245856 126.601696 
L 239.281906 126.601696 
L 239.585759 126.701476 
L 239.68876 126.901036 
L 239.634684 126.668216 
L 239.70421 126.867776 
L 239.70936 126.801256 
L 239.794335 126.967556 
L 239.812361 126.934296 
L 239.897336 126.901036 
L 239.899911 126.801256 
L 239.953987 127.100596 
L 240.002912 127.000816 
L 240.018362 127.100596 
L 240.010637 126.934296 
L 240.113638 127.000816 
L 240.180589 127.067336 
L 240.183164 127.133856 
L 240.188314 127.000816 
L 240.291314 127.067336 
L 240.466416 127.034076 
L 240.492166 126.934296 
L 240.577142 127.034076 
L 240.680143 126.934296 
L 240.587442 127.067336 
L 240.687868 127.034076 
L 240.708468 126.934296 
L 240.780568 127.167116 
L 240.790869 127.133856 
L 240.94022 127.200376 
L 241.00717 127.333416 
L 240.968545 127.133856 
L 241.050946 127.300156 
L 241.169397 127.034076 
L 241.184847 127.133856 
L 241.256947 126.634956 
L 241.267247 126.634956 
L 241.434624 125.836715 
L 241.437199 125.869975 
L 241.475824 125.770195 
L 241.5711 125.504115 
L 241.486124 125.803455 
L 241.602 125.570635 
L 241.625175 125.504115 
L 241.705001 125.337815 
L 241.635476 125.537375 
L 241.738476 125.437595 
L 241.851777 125.171515 
L 241.751351 125.470855 
L 241.864652 125.238035 
L 241.941903 125.337815 
L 241.977953 125.304555 
L 242.078379 125.171515 
L 241.985678 125.337815 
L 242.091254 125.238035 
L 242.12988 125.337815 
L 242.189105 125.171515 
L 242.20713 125.304555 
L 242.253481 125.204775 
L 242.315281 125.371075 
L 242.415707 125.437595 
L 242.510983 125.603895 
L 242.428582 125.404335 
L 242.529008 125.537375 
L 242.557333 125.637155 
L 242.655184 125.903235 
L 242.562483 125.603895 
L 242.683509 125.836715 
L 242.691234 125.770195 
L 242.758185 125.969755 
L 242.789085 125.903235 
L 242.84831 126.036275 
L 242.902386 125.969755 
L 242.951311 125.936495 
L 242.984787 126.102795 
L 243.007962 125.969755 
L 243.033712 126.036275 
L 243.067187 125.903235 
L 243.118688 126.003015 
L 243.198513 126.102795 
L 243.260314 126.036275 
L 243.314389 126.235835 
L 243.40194 126.102795 
L 243.37104 126.302355 
L 243.42254 126.235835 
L 243.520391 126.402136 
L 243.540991 126.368875 
L 243.543566 126.302355 
L 243.646567 126.435396 
L 243.651717 126.335615 
L 243.741843 126.302355 
L 243.767593 126.435396 
L 243.770168 126.368875 
L 243.808793 126.568436 
L 243.875744 126.435396 
L 243.99677 126.701476 
L 244.004495 126.668216 
L 244.104921 126.767996 
L 244.140971 126.668216 
L 244.225947 126.901036 
L 244.249122 126.834516 
L 244.303197 127.034076 
L 244.328948 126.967556 
L 244.434523 127.034076 
L 244.334098 126.934296 
L 244.439674 127.000816 
L 244.480874 126.901036 
L 244.532374 127.067336 
L 244.547824 127.000816 
L 244.655975 127.100596 
L 244.5607 126.967556 
L 244.661125 127.067336 
L 244.740951 127.167116 
L 244.679151 127.034076 
L 244.771851 127.100596 
L 244.872277 127.034076 
L 244.797601 127.133856 
L 244.882577 127.067336 
L 244.977853 127.300156 
L 244.998453 127.200376 
L 245.091154 127.266896 
L 245.034503 127.067336 
L 245.106604 127.200376 
L 245.214755 127.133856 
L 245.20188 127.266896 
L 245.21733 127.200376 
L 245.24308 127.266896 
L 245.289431 127.133856 
L 245.325481 127.167116 
L 245.534058 127.266896 
L 245.621608 127.366676 
L 245.539208 127.233636 
L 245.647358 127.300156 
L 245.655084 127.233636 
L 245.732334 127.433196 
L 245.755509 127.366676 
L 245.819885 127.466456 
L 245.84306 127.300156 
L 245.866235 127.366676 
L 245.88426 127.433196 
L 245.976961 127.499716 
L 245.989836 127.366676 
L 245.992411 127.466456 
L 246.033612 127.300156 
L 246.108287 127.333416 
L 246.216438 127.466456 
L 246.221588 127.433196 
L 246.528016 127.466456 
L 246.582091 127.632756 
L 246.638742 127.532976 
L 246.705692 127.499716 
L 246.700542 127.666016 
L 246.744317 127.599496 
L 246.785518 127.666016 
L 246.811268 127.632756 
L 246.896244 127.732536 
L 246.994095 127.599496 
L 247.009545 127.699276 
L 247.04302 127.599496 
L 247.151171 127.566236 
L 247.04817 127.666016 
L 247.153746 127.599496 
L 247.905652 127.699276 
L 247.908227 127.765796 
L 247.993203 127.599496 
L 248.013803 127.632756 
L 248.096204 127.499716 
L 248.026678 127.666016 
L 248.127104 127.599496 
L 248.150279 127.566236 
L 248.163154 127.599496 
L 248.261005 127.466456 
L 248.345981 127.566236 
L 248.371731 127.466456 
L 248.420656 127.566236 
L 248.485032 127.433196 
L 248.531382 127.632756 
L 248.575157 127.532976 
L 248.590608 127.699276 
L 248.642108 127.632756 
L 248.757984 127.499716 
L 248.760559 127.532976 
L 248.82236 127.599496 
L 248.835235 127.466456 
L 248.86871 127.466456 
L 248.961411 127.366676 
L 248.917635 127.599496 
L 248.982011 127.399936 
L 248.997461 127.532976 
L 249.020636 127.333416 
L 249.087587 127.333416 
L 249.108187 127.433196 
L 249.177712 127.532976 
L 249.118487 127.399936 
L 249.221488 127.466456 
L 249.278138 127.399936 
L 249.352814 127.333416 
L 249.283288 127.466456 
L 249.388864 127.399936 
L 249.589716 127.300156 
L 249.625766 127.399936 
L 249.705592 127.233636 
L 249.741642 127.366676 
L 249.793142 127.167116 
L 249.813743 127.266896 
L 249.911593 127.133856 
L 249.849793 127.300156 
L 249.924469 127.167116 
L 250.014594 127.233636 
L 249.955369 127.133856 
L 250.035194 127.167116 
L 250.05837 127.100596 
L 250.14592 127.200376 
L 250.205146 127.133856 
L 250.163946 127.266896 
L 250.256646 127.167116 
L 250.328747 127.233636 
L 250.344197 127.100596 
L 250.367372 127.167116 
L 250.416298 127.233636 
L 250.478098 127.133856 
L 250.575949 127.233636 
L 250.591399 127.167116 
L 250.73045 127.133856 
L 250.7562 127.000816 
L 250.776801 127.167116 
L 250.841176 127.100596 
L 251.057478 127.133856 
L 251.168204 127.333416 
L 251.170779 127.266896 
L 251.29438 127.100596 
L 251.634283 127.034076 
L 251.642008 126.934296 
L 251.683208 127.167116 
L 251.742433 127.067336 
L 252.378464 127.000816 
L 252.383614 126.901036 
L 252.391339 127.034076 
L 252.48919 126.967556 
L 252.579315 127.034076 
L 252.496915 126.934296 
L 252.599916 127.000816 
L 252.638541 126.867776 
L 252.713216 126.934296 
L 252.805917 127.067336 
L 252.718367 126.901036 
L 252.826517 127.034076 
L 252.859993 126.901036 
L 252.939818 126.934296 
L 252.965569 127.067336 
L 253.040244 126.901036 
L 253.047969 126.934296 
L 253.143245 126.834516 
L 253.055694 126.967556 
L 253.15612 126.867776 
L 253.158695 126.967556 
L 253.179295 126.801256 
L 253.266846 126.867776 
L 253.336372 126.834516 
L 253.362122 126.734736 
L 253.398172 126.867776 
L 253.447097 126.801256 
L 253.508898 126.734736 
L 253.550098 126.867776 
L 253.555248 126.834516 
L 253.655674 126.934296 
L 253.683999 126.967556 
L 253.6943 126.801256 
L 253.76125 126.901036 
L 253.843651 126.767996 
L 253.874551 126.867776 
L 253.946652 126.934296 
L 253.951802 127.000816 
L 254.031627 126.801256 
L 254.052227 126.801256 
L 254.085703 126.701476 
L 254.077978 126.867776 
L 254.165528 126.767996 
L 254.191279 126.867776 
L 254.217029 126.701476 
L 254.271104 126.801256 
L 254.294279 126.834516 
L 254.384405 126.668216 
L 254.443631 126.634956 
L 254.497706 126.767996 
L 254.721733 126.701476 
L 254.721733 126.701476 
" clip-path="url(#p0c7a525716)" style="fill: none; stroke: #000000; stroke-opacity: 0.5; stroke-width: 1.5; stroke-linecap: square"/>
   </g>
   <g id="patch_3">
    <path d="M 41.667188 177.299927 
L 41.667188 10.979927 
" style="fill: none; stroke: #000000; stroke-width: 0.8; stroke-linejoin: miter; stroke-linecap: square"/>
   </g>
   <g id="patch_4">
    <path d="M 41.667188 177.299927 
L 264.867187 177.299927 
" style="fill: none; stroke: #000000; stroke-width: 0.8; stroke-linejoin: miter; stroke-linecap: square"/>
   </g>
  </g>
 </g>
 <defs>
  <clipPath id="p0c7a525716">
   <rect x="41.667188" y="10.979927" width="223.2" height="166.32"/>
  </clipPath>
 </defs>
</svg>
