<?xml version="1.0" encoding="utf-8" standalone="no"?>
<!DOCTYPE svg PUBLIC "-//W3C//DTD SVG 1.1//EN"
  "http://www.w3.org/Graphics/SVG/1.1/DTD/svg11.dtd">
<svg xmlns:xlink="http://www.w3.org/1999/xlink" width="272.067187pt" height="197.398125pt" viewBox="0 0 272.067187 197.398125" xmlns="http://www.w3.org/2000/svg" version="1.1">
 <metadata>
  <rdf:RDF xmlns:dc="http://purl.org/dc/elements/1.1/" xmlns:cc="http://creativecommons.org/ns#" xmlns:rdf="http://www.w3.org/1999/02/22-rdf-syntax-ns#">
   <cc:Work>
    <dc:type rdf:resource="http://purl.org/dc/dcmitype/StillImage"/>
    <dc:date>2025-12-19T12:06:08.048720</dc:date>
    <dc:format>image/svg+xml</dc:format>
    <dc:creator>
     <cc:Agent>
      <dc:title>Matplotlib v3.10.7, https://matplotlib.org/</dc:title>
     </cc:Agent>
    </dc:creator>
   </cc:Work>
  </rdf:RDF>
 </metadata>
 <defs>
  <style type="text/css">*{stroke-linejoin: round; stroke-linecap: butt}</style>
 </defs>
 <g id="figure_1">
  <g id="patch_1">
   <path d="M 0 197.398125 
L 272.067187 197.398125 
L 272.067187 0 
L 0 0 
z
" style="fill: #ffffff"/>
  </g>
  <g id="axes_1">
   <g id="patch_2">
    <path d="M 41.667188 173.52 
L 264.867188 173.52 
L 264.867188 7.2 
L 41.667188 7.2 
z
" style="fill: #ffffff"/>
   </g>
   <g id="matplotlib.axis_1">
    <g id="xtick_1">
     <g id="line2d_1">
      <defs>
       <path id="m7c0f811a72" d="M 0 0 
L 0 3.5 
" style="stroke: #000000; stroke-width: 0.8"/>
      </defs>
      <g>
       <use xlink:href="#m7c0f811a72" x="82.712896" y="173.52" style="stroke: #000000; stroke-width: 0.8"/>
      </g>
     </g>
     <g id="text_1">
      <!-- 1 -->
      <g transform="translate(79.531646 188.118438) scale(0.1 -0.1)">
       <defs>
        <path id="DejaVuSans-31" d="M 794 531 
L 1825 531 
L 1825 4091 
L 703 3866 
L 703 4441 
L 1819 4666 
L 2450 4666 
L 2450 531 
L 3481 531 
L 3481 0 
L 794 0 
L 794 531 
z
" transform="scale(0.015625)"/>
       </defs>
       <use xlink:href="#DejaVuSans-31"/>
      </g>
     </g>
    </g>
    <g id="xtick_2">
     <g id="line2d_2">
      <g>
       <use xlink:href="#m7c0f811a72" x="134.213319" y="173.52" style="stroke: #000000; stroke-width: 0.8"/>
      </g>
     </g>
     <g id="text_2">
      <!-- 2 -->
      <g transform="translate(131.032069 188.118438) scale(0.1 -0.1)">
       <defs>
        <path id="DejaVuSans-32" d="M 1228 531 
L 3431 531 
L 3431 0 
L 469 0 
L 469 531 
Q 828 903 1448 1529 
Q 2069 2156 2228 2338 
Q 2531 2678 2651 2914 
Q 2772 3150 2772 3378 
Q 2772 3750 2511 3984 
Q 2250 4219 1831 4219 
Q 1534 4219 1204 4116 
Q 875 4013 500 3803 
L 500 4441 
Q 881 4594 1212 4672 
Q 1544 4750 1819 4750 
Q 2544 4750 2975 4387 
Q 3406 4025 3406 3419 
Q 3406 3131 3298 2873 
Q 3191 2616 2906 2266 
Q 2828 2175 2409 1742 
Q 1991 1309 1228 531 
z
" transform="scale(0.015625)"/>
       </defs>
       <use xlink:href="#DejaVuSans-32"/>
      </g>
     </g>
    </g>
    <g id="xtick_3">
     <g id="line2d_3">
      <g>
       <use xlink:href="#m7c0f811a72" x="185.713741" y="173.52" style="stroke: #000000; stroke-width: 0.8"/>
      </g>
     </g>
     <g id="text_3">
      <!-- 3 -->
      <g transform="translate(182.532491 188.118438) scale(0.1 -0.1)">
       <defs>
        <path id="DejaVuSans-33" d="M 2597 2516 
Q 3050 2419 3304 2112 
Q 3559 1806 3559 1356 
Q 3559 666 3084 287 
Q 2609 -91 1734 -91 
Q 1441 -91 1130 -33 
Q 819 25 488 141 
L 488 750 
Q 750 597 1062 519 
Q 1375 441 1716 441 
Q 2309 441 2620 675 
Q 2931 909 2931 1356 
Q 2931 1769 2642 2001 
Q 2353 2234 1838 2234 
L 1294 2234 
L 1294 2753 
L 1863 2753 
Q 2328 2753 2575 2939 
Q 2822 3125 2822 3475 
Q 2822 3834 2567 4026 
Q 2313 4219 1838 4219 
Q 1578 4219 1281 4162 
Q 984 4106 628 3988 
L 628 4550 
Q 988 4650 1302 4700 
Q 1616 4750 1894 4750 
Q 2613 4750 3031 4423 
Q 3450 4097 3450 3541 
Q 3450 3153 3228 2886 
Q 3006 2619 2597 2516 
z
" transform="scale(0.015625)"/>
       </defs>
       <use xlink:href="#DejaVuSans-33"/>
      </g>
     </g>
    </g>
    <g id="xtick_4">
     <g id="line2d_4">
      <g>
       <use xlink:href="#m7c0f811a72" x="237.214164" y="173.52" style="stroke: #000000; stroke-width: 0.8"/>
      </g>
     </g>
     <g id="text_4">
      <!-- 4 -->
      <g transform="translate(234.032914 188.118438) scale(0.1 -0.1)">
       <defs>
        <path id="DejaVuSans-34" d="M 2419 4116 
L 825 1625 
L 2419 1625 
L 2419 4116 
z
M 2253 4666 
L 3047 4666 
L 3047 1625 
L 3713 1625 
L 3713 1100 
L 3047 1100 
L 3047 0 
L 2419 0 
L 2419 1100 
L 313 1100 
L 313 1709 
L 2253 4666 
z
" transform="scale(0.015625)"/>
       </defs>
       <use xlink:href="#DejaVuSans-34"/>
      </g>
     </g>
    </g>
   </g>
   <g id="matplotlib.axis_2">
    <g id="ytick_1">
     <g id="line2d_5">
      <defs>
       <path id="m56b456e064" d="M 0 0 
L -3.5 0 
" style="stroke: #000000; stroke-width: 0.8"/>
      </defs>
      <g>
       <use xlink:href="#m56b456e064" x="41.667188" y="173.070763" style="stroke: #000000; stroke-width: 0.8"/>
      </g>
     </g>
     <g id="text_5">
      <!-- −120 -->
      <g transform="translate(7.2 176.869982) scale(0.1 -0.1)">
       <defs>
        <path id="DejaVuSans-2212" d="M 678 2272 
L 4684 2272 
L 4684 1741 
L 678 1741 
L 678 2272 
z
" transform="scale(0.015625)"/>
        <path id="DejaVuSans-30" d="M 2034 4250 
Q 1547 4250 1301 3770 
Q 1056 3291 1056 2328 
Q 1056 1369 1301 889 
Q 1547 409 2034 409 
Q 2525 409 2770 889 
Q 3016 1369 3016 2328 
Q 3016 3291 2770 3770 
Q 2525 4250 2034 4250 
z
M 2034 4750 
Q 2819 4750 3233 4129 
Q 3647 3509 3647 2328 
Q 3647 1150 3233 529 
Q 2819 -91 2034 -91 
Q 1250 -91 836 529 
Q 422 1150 422 2328 
Q 422 3509 836 4129 
Q 1250 4750 2034 4750 
z
" transform="scale(0.015625)"/>
       </defs>
       <use xlink:href="#DejaVuSans-2212"/>
       <use xlink:href="#DejaVuSans-31" transform="translate(83.789062 0)"/>
       <use xlink:href="#DejaVuSans-32" transform="translate(147.412109 0)"/>
       <use xlink:href="#DejaVuSans-30" transform="translate(211.035156 0)"/>
      </g>
     </g>
    </g>
    <g id="ytick_2">
     <g id="line2d_6">
      <g>
       <use xlink:href="#m56b456e064" x="41.667188" y="148.819557" style="stroke: #000000; stroke-width: 0.8"/>
      </g>
     </g>
     <g id="text_6">
      <!-- −100 -->
      <g transform="translate(7.2 152.618776) scale(0.1 -0.1)">
       <use xlink:href="#DejaVuSans-2212"/>
       <use xlink:href="#DejaVuSans-31" transform="translate(83.789062 0)"/>
       <use xlink:href="#DejaVuSans-30" transform="translate(147.412109 0)"/>
       <use xlink:href="#DejaVuSans-30" transform="translate(211.035156 0)"/>
      </g>
     </g>
    </g>
    <g id="ytick_3">
     <g id="line2d_7">
      <g>
       <use xlink:href="#m56b456e064" x="41.667188" y="124.56835" style="stroke: #000000; stroke-width: 0.8"/>
      </g>
     </g>
     <g id="text_7">
      <!-- −80 -->
      <g transform="translate(13.5625 128.367569) scale(0.1 -0.1)">
       <defs>
        <path id="DejaVuSans-38" d="M 2034 2216 
Q 1584 2216 1326 1975 
Q 1069 1734 1069 1313 
Q 1069 891 1326 650 
Q 1584 409 2034 409 
Q 2484 409 2743 651 
Q 3003 894 3003 1313 
Q 3003 1734 2745 1975 
Q 2488 2216 2034 2216 
z
M 1403 2484 
Q 997 2584 770 2862 
Q 544 3141 544 3541 
Q 544 4100 942 4425 
Q 1341 4750 2034 4750 
Q 2731 4750 3128 4425 
Q 3525 4100 3525 3541 
Q 3525 3141 3298 2862 
Q 3072 2584 2669 2484 
Q 3125 2378 3379 2068 
Q 3634 1759 3634 1313 
Q 3634 634 3220 271 
Q 2806 -91 2034 -91 
Q 1263 -91 848 271 
Q 434 634 434 1313 
Q 434 1759 690 2068 
Q 947 2378 1403 2484 
z
M 1172 3481 
Q 1172 3119 1398 2916 
Q 1625 2713 2034 2713 
Q 2441 2713 2670 2916 
Q 2900 3119 2900 3481 
Q 2900 3844 2670 4047 
Q 2441 4250 2034 4250 
Q 1625 4250 1398 4047 
Q 1172 3844 1172 3481 
z
" transform="scale(0.015625)"/>
       </defs>
       <use xlink:href="#DejaVuSans-2212"/>
       <use xlink:href="#DejaVuSans-38" transform="translate(83.789062 0)"/>
       <use xlink:href="#DejaVuSans-30" transform="translate(147.412109 0)"/>
      </g>
     </g>
    </g>
    <g id="ytick_4">
     <g id="line2d_8">
      <g>
       <use xlink:href="#m56b456e064" x="41.667188" y="100.317144" style="stroke: #000000; stroke-width: 0.8"/>
      </g>
     </g>
     <g id="text_8">
      <!-- −60 -->
      <g transform="translate(13.5625 104.116362) scale(0.1 -0.1)">
       <defs>
        <path id="DejaVuSans-36" d="M 2113 2584 
Q 1688 2584 1439 2293 
Q 1191 2003 1191 1497 
Q 1191 994 1439 701 
Q 1688 409 2113 409 
Q 2538 409 2786 701 
Q 3034 994 3034 1497 
Q 3034 2003 2786 2293 
Q 2538 2584 2113 2584 
z
M 3366 4563 
L 3366 3988 
Q 3128 4100 2886 4159 
Q 2644 4219 2406 4219 
Q 1781 4219 1451 3797 
Q 1122 3375 1075 2522 
Q 1259 2794 1537 2939 
Q 1816 3084 2150 3084 
Q 2853 3084 3261 2657 
Q 3669 2231 3669 1497 
Q 3669 778 3244 343 
Q 2819 -91 2113 -91 
Q 1303 -91 875 529 
Q 447 1150 447 2328 
Q 447 3434 972 4092 
Q 1497 4750 2381 4750 
Q 2619 4750 2861 4703 
Q 3103 4656 3366 4563 
z
" transform="scale(0.015625)"/>
       </defs>
       <use xlink:href="#DejaVuSans-2212"/>
       <use xlink:href="#DejaVuSans-36" transform="translate(83.789062 0)"/>
       <use xlink:href="#DejaVuSans-30" transform="translate(147.412109 0)"/>
      </g>
     </g>
    </g>
    <g id="ytick_5">
     <g id="line2d_9">
      <g>
       <use xlink:href="#m56b456e064" x="41.667188" y="76.065937" style="stroke: #000000; stroke-width: 0.8"/>
      </g>
     </g>
     <g id="text_9">
      <!-- −40 -->
      <g transform="translate(13.5625 79.865156) scale(0.1 -0.1)">
       <use xlink:href="#DejaVuSans-2212"/>
       <use xlink:href="#DejaVuSans-34" transform="translate(83.789062 0)"/>
       <use xlink:href="#DejaVuSans-30" transform="translate(147.412109 0)"/>
      </g>
     </g>
    </g>
    <g id="ytick_6">
     <g id="line2d_10">
      <g>
       <use xlink:href="#m56b456e064" x="41.667188" y="51.814731" style="stroke: #000000; stroke-width: 0.8"/>
      </g>
     </g>
     <g id="text_10">
      <!-- −20 -->
      <g transform="translate(13.5625 55.613949) scale(0.1 -0.1)">
       <use xlink:href="#DejaVuSans-2212"/>
       <use xlink:href="#DejaVuSans-32" transform="translate(83.789062 0)"/>
       <use xlink:href="#DejaVuSans-30" transform="translate(147.412109 0)"/>
      </g>
     </g>
    </g>
    <g id="ytick_7">
     <g id="line2d_11">
      <g>
       <use xlink:href="#m56b456e064" x="41.667188" y="27.563524" style="stroke: #000000; stroke-width: 0.8"/>
      </g>
     </g>
     <g id="text_11">
      <!-- 0 -->
      <g transform="translate(28.304688 31.362743) scale(0.1 -0.1)">
       <use xlink:href="#DejaVuSans-30"/>
      </g>
     </g>
    </g>
   </g>
   <g id="line2d_12">
    <path d="M 51.812642 107.567048 
L 51.923368 107.641057 
L 51.817792 107.49304 
L 51.925943 107.604053 
L 52.031519 107.419031 
L 51.969718 107.678062 
L 52.039244 107.530044 
L 52.041819 107.567048 
L 52.090744 107.382026 
L 52.14482 107.49304 
L 52.255546 107.234009 
L 52.258121 107.308018 
L 52.322496 107.197004 
L 52.309621 107.382026 
L 52.371422 107.234009 
L 52.428072 107.271013 
L 52.448672 107.16 
L 52.476997 107.197004 
L 52.482148 107.16 
L 52.541373 107.382026 
L 52.579998 107.271013 
L 52.585148 107.345022 
L 52.605749 107.234009 
L 52.688149 107.271013 
L 52.778275 107.197004 
L 52.74995 107.308018 
L 52.7963 107.271013 
L 52.909601 107.456035 
L 52.8169 107.197004 
L 52.914751 107.382026 
L 52.968827 107.345022 
L 53.040927 107.197004 
L 53.079552 107.271013 
L 53.182553 107.345022 
L 53.128478 107.234009 
L 53.190278 107.271013 
L 53.306154 107.382026 
L 53.321604 107.271013 
L 53.37568 107.456035 
L 53.41173 107.456035 
L 53.491556 107.567048 
L 53.424605 107.382026 
L 53.522456 107.456035 
L 53.594557 107.382026 
L 53.705283 107.197004 
L 53.707858 107.271013 
L 53.808283 107.122996 
L 53.759358 107.308018 
L 53.821159 107.197004 
L 54.04776 107.308018 
L 54.155911 107.419031 
L 54.055485 107.234009 
L 54.161061 107.345022 
L 54.542164 107.382026 
L 54.544739 107.49304 
L 54.640015 107.271013 
L 54.650315 107.271013 
L 54.735291 107.122996 
L 54.768766 107.16 
L 55.445997 107.122996 
L 55.492347 107.234009 
L 55.559298 106.974978 
L 55.641698 107.122996 
L 55.670024 107.011982 
L 55.721524 106.937974 
L 55.81165 106.752952 
L 55.83225 106.789956 
L 55.942976 106.937974 
L 55.945551 106.900969 
L 56.082027 106.974978 
L 56.200478 107.197004 
L 56.285454 107.085991 
L 56.267429 107.271013 
L 56.308629 107.16 
L 56.41678 107.308018 
L 56.42193 107.271013 
L 56.429655 107.308018 
L 56.542956 107.122996 
L 56.560981 107.16 
L 56.622782 106.974978 
L 56.645957 107.011982 
L 56.741233 106.974978 
L 56.857108 106.678943 
L 56.903459 106.641938 
L 57.08371 116.300088 
L 57.305162 125.921233 
L 57.62189 134.802291 
L 58.597823 147.235771 
L 58.615848 147.346784 
L 58.793524 148.308899 
L 58.796099 148.271894 
L 58.865625 148.678943 
L 58.8785 148.678943 
L 58.901675 148.789956 
L 58.906825 148.752952 
L 59.040726 149.234009 
L 59.063902 149.16 
L 59.141152 149.456035 
L 59.143727 149.456035 
L 59.190078 149.567048 
L 59.195228 149.530044 
L 59.316254 149.789075 
L 59.344579 149.715066 
L 59.390929 149.900088 
L 59.42183 149.863084 
L 59.522255 149.974097 
L 59.537705 149.937093 
L 59.589206 150.011101 
L 59.594356 150.08511 
L 59.638131 149.863084 
L 59.697357 149.937093 
L 59.800358 149.826079 
L 59.895633 149.75207 
L 59.813233 149.863084 
L 59.911084 149.826079 
L 59.980609 149.75207 
L 60.096485 149.567048 
L 60.166011 149.641057 
L 60.186611 149.49304 
L 60.204636 149.49304 
L 60.209786 149.530044 
L 60.315362 149.419031 
L 60.338537 149.456035 
L 60.400338 149.271013 
L 60.418363 149.308018 
L 60.477588 149.234009 
L 60.593464 148.900969 
L 60.608914 148.974978 
L 60.691315 148.641938 
L 60.696465 148.678943 
L 60.72994 148.604934 
L 60.835516 148.308899 
L 60.848391 148.345903 
L 60.889592 148.23489 
L 60.992592 147.938855 
L 60.902467 148.271894 
L 61.018343 147.975859 
L 61.056968 147.864846 
L 61.062118 147.90185 
L 61.185719 147.605815 
L 61.244944 147.494802 
L 61.378846 147.124758 
L 61.381421 147.198767 
L 61.458671 146.828722 
L 61.481846 146.902731 
L 61.620898 146.495683 
L 61.711023 146.38467 
L 61.832049 146.125639 
L 61.718748 146.421674 
L 61.837199 146.162643 
L 61.8681 146.236652 
L 61.932475 145.977621 
L 61.937625 146.014626 
L 62.020026 145.903612 
L 62.125602 145.644581 
L 62.035476 145.940617 
L 62.135902 145.681586 
L 62.146202 145.71859 
L 62.226028 145.459559 
L 62.233753 145.533568 
L 62.354779 145.237533 
L 62.377954 145.12652 
L 62.48868 144.867489 
L 62.501555 144.904493 
L 62.50413 144.941498 
L 62.591681 144.645463 
L 62.594256 144.645463 
L 62.707556 144.571454 
L 62.815707 144.312423 
L 62.725582 144.608458 
L 62.823432 144.386432 
L 62.826007 144.423436 
L 62.910983 144.238414 
L 62.923858 144.275419 
L 62.929008 144.312423 
L 63.050034 143.942379 
L 63.052609 144.053392 
L 63.137585 143.831366 
L 63.158185 143.86837 
L 63.243161 143.609339 
L 63.281786 143.683348 
L 63.317837 143.572335 
L 63.420837 143.313304 
L 63.333287 143.609339 
L 63.441438 143.350308 
L 63.482638 143.424317 
L 63.518688 143.2763 
L 63.547013 143.350308 
L 63.662889 143.128282 
L 63.673189 143.2763 
L 63.727265 143.091278 
L 63.773615 143.128282 
L 63.840566 143.091278 
L 63.935842 142.832247 
L 63.848291 143.128282 
L 63.956442 142.869251 
L 64.005367 142.758238 
L 64.100643 142.573216 
L 64.013092 142.832247 
L 64.121243 142.61022 
L 64.131543 142.684229 
L 64.167593 142.536211 
L 64.226819 142.536211 
L 64.332395 142.388194 
L 64.34012 142.462203 
L 64.443121 142.203172 
L 64.461146 142.240176 
L 64.471446 142.351189 
L 64.564147 142.01815 
L 64.566722 142.129163 
L 64.667148 142.055154 
L 64.592472 142.166167 
L 64.680023 142.092159 
L 64.749548 141.981145 
L 64.837099 141.722115 
L 64.865424 141.796123 
L 64.95555 141.68511 
L 65.035376 141.426079 
L 65.074001 141.463084 
L 65.388154 141.426079 
L 65.498879 141.278062 
L 65.398454 141.463084 
L 65.501454 141.315066 
L 65.61733 141.167048 
L 65.619905 141.204053 
L 65.707456 141.167048 
L 65.823332 140.834009 
L 65.825907 140.945022 
L 65.916033 140.722996 
L 65.931483 140.797004 
L 66.001009 140.611982 
L 66.049934 140.685991 
L 66.405287 140.574978 
L 66.510863 140.42696 
L 66.425887 140.685991 
L 66.516013 140.574978 
L 66.557213 140.537974 
L 66.660214 140.315947 
L 66.670514 140.389956 
L 66.788965 140.241938 
L 66.81214 140.315947 
L 66.861066 140.130925 
L 66.891966 140.16793 
L 66.897116 140.204934 
L 67.005267 140.093921 
L 67.033592 140.241938 
L 67.079942 140.019912 
L 67.115993 140.130925 
L 67.262769 140.019912 
L 67.414695 128.548546 
L 68.249002 107.715066 
L 68.251577 107.75207 
L 68.308227 107.048987 
L 68.310802 107.048987 
L 68.588905 104.606696 
L 68.594055 104.6437 
L 68.666155 104.199648 
L 68.671305 104.273656 
L 68.797481 103.570573 
L 68.800057 103.607577 
L 68.879882 103.274537 
L 68.890182 103.311542 
L 69.013783 103.015507 
L 69.018933 103.052511 
L 69.054984 102.978502 
L 69.183735 102.386432 
L 69.230085 102.423436 
L 69.27901 102.238414 
L 69.28416 102.312423 
L 69.405186 102.016388 
L 69.472137 101.905374 
L 69.585438 101.609339 
L 69.500462 101.942379 
L 69.598313 101.646344 
L 69.626638 101.720352 
L 69.696164 101.424317 
L 69.703889 101.53533 
L 69.747664 101.461322 
L 69.85324 101.2763 
L 69.860965 101.350308 
L 69.943366 101.313304 
L 70.036067 101.128282 
L 70.054092 101.165286 
L 70.108167 101.2763 
L 70.110742 101.091278 
L 70.164818 101.202291 
L 70.177693 101.165286 
L 70.211168 101.313304 
L 70.275544 101.202291 
L 70.296144 101.313304 
L 70.319319 101.128282 
L 70.388845 101.2763 
L 70.435195 101.202291 
L 70.476395 101.461322 
L 70.49442 101.424317 
L 70.599996 101.646344 
L 70.618021 101.609339 
L 70.713297 101.53533 
L 70.646347 101.646344 
L 70.728747 101.609339 
L 70.999125 101.720352 
L 71.060925 101.86837 
L 71.019725 101.646344 
L 71.117576 101.831366 
L 71.158776 101.905374 
L 71.264352 102.20141 
L 71.171651 101.86837 
L 71.277227 102.164405 
L 71.506404 102.053392 
L 71.508979 101.979383 
L 71.599104 102.164405 
L 71.614555 102.127401 
L 71.756181 102.090396 
L 71.848882 101.905374 
L 71.866907 101.942379 
L 71.872057 101.905374 
L 71.985358 102.090396 
L 71.987933 102.016388 
L 72.023983 102.164405 
L 72.093509 102.090396 
L 72.186209 102.349427 
L 72.214535 102.238414 
L 72.21711 102.20141 
L 72.281485 102.497445 
L 72.30981 102.460441 
L 72.335561 102.497445 
L 72.343286 102.349427 
L 72.415386 102.423436 
L 72.417961 102.312423 
L 72.435986 102.460441 
L 72.526112 102.386432 
L 72.577613 102.497445 
L 72.611088 102.423436 
L 72.690913 102.571454 
L 72.799064 102.830485 
L 72.809364 102.756476 
L 72.86859 102.497445 
L 72.922665 102.608458 
L 72.927815 102.571454 
L 73.043691 102.756476 
L 73.290893 102.830485 
L 73.308919 102.79348 
L 73.404194 102.941498 
L 73.47887 102.830485 
L 73.450545 102.978502 
L 73.51492 102.941498 
L 73.550971 102.830485 
L 73.561271 103.015507 
L 73.625646 102.941498 
L 73.736372 103.12652 
L 73.741522 103.052511 
L 73.808473 102.978502 
L 73.841948 103.200529 
L 73.844523 103.163524 
L 73.962974 103.237533 
L 74.076275 103.496564 
L 74.07885 103.459559 
L 74.081425 103.496564 
L 74.13035 103.348546 
L 74.187001 103.459559 
L 74.217901 103.385551 
L 74.256526 103.607577 
L 74.290002 103.570573 
L 74.367252 103.681586 
L 74.377552 103.755595 
L 74.395577 103.607577 
L 74.480553 103.71859 
L 74.516603 103.644581 
L 74.632479 103.496564 
L 74.74578 103.866608 
L 74.75093 103.829604 
L 74.866806 103.977621 
L 74.794706 103.792599 
L 74.869381 103.940617 
L 75.132034 103.829604 
L 75.242759 103.71859 
L 75.139759 103.940617 
L 75.247909 103.755595 
L 75.28396 103.866608 
L 75.260785 103.681586 
L 75.358635 103.792599 
L 75.438461 103.681586 
L 75.459061 103.829604 
L 75.469361 103.755595 
L 75.580087 103.866608 
L 75.577512 103.71859 
L 75.582662 103.829604 
L 75.798964 103.903612 
L 75.855614 103.866608 
L 75.91484 104.088634 
L 76.022991 103.903612 
L 76.028141 103.977621 
L 76.100241 104.162643 
L 76.043591 103.940617 
L 76.141442 104.05163 
L 76.228993 104.125639 
L 76.293368 104.199648 
L 76.316543 104.014626 
L 76.337143 104.088634 
L 76.476195 104.162643 
L 76.47877 104.273656 
L 76.53027 104.014626 
L 76.584345 104.162643 
L 76.58692 104.125639 
L 76.648721 104.38467 
L 76.682196 104.347665 
L 76.723397 104.421674 
L 76.728547 104.495683 
L 76.813522 104.273656 
L 76.831547 104.38467 
L 76.916523 104.273656 
L 76.980899 104.162643 
L 77.014374 104.347665 
L 77.024674 104.310661 
L 77.233251 104.38467 
L 77.238401 104.347665 
L 77.346552 104.495683 
L 77.382602 104.38467 
L 77.410927 104.569692 
L 77.452128 104.532687 
L 77.495903 104.6437 
L 77.557703 104.458678 
L 77.560278 104.532687 
L 77.573154 104.569692 
L 77.681304 104.347665 
L 77.689029 104.458678 
L 77.753405 104.199648 
L 77.789455 104.421674 
L 77.882156 104.310661 
L 77.80233 104.458678 
L 77.900181 104.347665 
L 77.967132 104.458678 
L 78.052107 104.569692 
L 78.080433 104.495683 
L 78.155108 104.421674 
L 78.252959 104.310661 
L 78.167983 104.495683 
L 78.265834 104.38467 
L 78.307035 104.458678 
L 78.353385 104.273656 
L 78.373985 104.310661 
L 78.399735 104.273656 
L 78.451236 104.421674 
L 78.479561 104.38467 
L 79.115591 104.495683 
L 79.172242 104.6437 
L 79.159367 104.458678 
L 79.231467 104.606696 
L 79.272667 104.532687 
L 79.290693 104.6437 
L 79.334468 104.6437 
L 79.445194 104.754714 
L 79.339618 104.569692 
L 79.447769 104.717709 
L 79.55077 104.569692 
L 79.473519 104.754714 
L 79.558495 104.6437 
L 79.604845 104.717709 
L 79.640896 104.569692 
L 79.666646 104.680705 
L 79.779947 104.458678 
L 79.895823 104.680705 
L 79.903548 104.6437 
L 79.967923 104.865727 
L 79.993673 104.865727 
L 80.063199 104.939736 
L 79.998823 104.791718 
L 80.099249 104.791718 
L 80.16105 104.865727 
L 80.220275 104.6437 
L 80.323276 104.680705 
L 80.382502 104.791718 
L 80.328426 104.6437 
L 80.434002 104.754714 
L 80.544728 104.6437 
L 80.490652 104.791718 
L 80.549878 104.680705 
L 80.737855 104.754714 
L 80.846005 105.050749 
L 80.85373 104.97674 
L 80.951581 104.902731 
L 80.956731 104.828722 
L 81.021107 105.050749 
L 81.059732 104.97674 
L 81.324959 104.939736 
L 81.348135 104.828722 
L 81.368735 104.97674 
L 81.435685 104.865727 
L 81.512936 104.902731 
L 81.44856 104.828722 
L 81.546411 104.865727 
L 81.577311 104.939736 
L 81.662287 104.791718 
L 81.97129 104.902731 
L 81.973865 104.97674 
L 82.05369 104.6437 
L 82.076866 104.754714 
L 82.172141 104.680705 
L 82.290592 104.458678 
L 82.396168 104.680705 
L 82.306042 104.421674 
L 82.411618 104.6437 
L 82.424493 104.606696 
L 82.483719 104.791718 
L 82.517194 104.717709 
L 82.640795 104.828722 
L 82.681995 104.754714 
L 82.723196 107.308018 
L 82.970398 128.91859 
L 83.693979 155.339736 
L 84.445885 164.553833 
L 84.44846 164.479824 
L 84.538586 165.03489 
L 84.541161 164.997885 
L 84.687937 165.552952 
L 84.705962 165.478943 
L 84.752312 165.737974 
L 84.788363 165.663965 
L 84.909389 165.848987 
L 84.942864 165.774978 
L 84.994364 165.96 
L 85.014965 165.96 
L 85.07934 165.885991 
L 85.187491 165.737974 
L 85.092215 165.922996 
L 85.192641 165.811982 
L 85.202941 165.848987 
L 85.336842 165.330925 
L 85.388343 165.256916 
L 85.504219 164.997885 
L 85.509369 165.03489 
L 85.630395 164.775859 
L 85.69477 164.664846 
L 85.810646 164.405815 
L 85.71022 164.70185 
L 85.815796 164.479824 
L 85.833821 164.516828 
L 85.893047 164.294802 
L 85.916222 164.331806 
L 86.044973 163.924758 
L 86.047548 164.035771 
L 86.068148 163.961762 
L 86.191749 163.554714 
L 86.230375 163.4437 
L 86.374576 162.925639 
L 86.387451 162.962643 
L 86.459552 162.555595 
L 86.462127 162.592599 
L 86.475002 162.51859 
L 86.598603 162.074537 
L 86.608903 162.148546 
L 86.691303 161.889515 
L 86.699028 161.963524 
L 86.82778 161.556476 
L 86.830355 161.630485 
L 86.861255 161.667489 
L 86.92048 161.408458 
L 86.928205 161.445463 
L 86.992581 161.334449 
L 87.129057 160.890396 
L 87.149657 161.00141 
L 87.206308 160.742379 
L 87.232058 160.816388 
L 87.353084 160.33533 
L 87.412309 160.33533 
L 87.53076 159.891278 
L 87.628611 159.669251 
L 87.53591 159.928282 
L 87.649211 159.706256 
L 87.651786 159.780264 
L 87.749637 159.484229 
L 87.752212 159.521233 
L 87.765087 159.632247 
L 87.878388 159.225198 
L 87.888688 159.299207 
L 87.958214 159.077181 
L 87.983964 159.114185 
L 88.123015 158.670132 
L 88.12559 158.707137 
L 88.200266 158.337093 
L 88.207991 158.337093 
L 88.218291 158.374097 
L 88.347042 157.930044 
L 88.401117 157.89304 
L 88.516993 157.374978 
L 88.519568 157.411982 
L 88.666345 156.856916 
L 88.66892 156.893921 
L 88.743595 156.63489 
L 88.76162 156.63489 
L 88.913547 156.042819 
L 88.962472 155.931806 
L 89.083498 155.339736 
L 89.091223 155.37674 
L 89.114398 155.265727 
L 89.245724 154.858678 
L 89.119548 155.302731 
L 89.248299 154.932687 
L 89.2689 154.858678 
L 89.395076 154.340617 
L 89.400226 154.377621 
L 89.472326 154.044581 
L 89.482626 154.081586 
L 89.606227 153.674537 
L 89.657728 153.563524 
L 89.804504 152.897445 
L 89.812229 152.934449 
L 89.832829 152.897445 
L 89.94613 152.379383 
L 89.953855 152.416388 
L 89.997631 152.305374 
L 90.139257 151.861322 
L 90.146982 151.787313 
L 90.152132 151.824317 
L 90.270583 151.417269 
L 90.407059 150.973216 
L 90.283458 151.454273 
L 90.409634 151.01022 
L 90.430234 150.899207 
L 90.57701 150.381145 
L 90.579585 150.41815 
L 90.649111 150.048106 
L 90.664561 150.08511 
L 90.795887 149.456035 
L 90.798462 149.567048 
L 90.893738 149.197004 
L 90.901463 149.271013 
L 91.045664 148.789956 
L 91.048239 148.82696 
L 91.122915 148.493921 
L 91.14094 148.56793 
L 91.285141 148.086872 
L 91.300591 148.123877 
L 91.370117 147.827841 
L 91.380417 147.90185 
L 91.529768 147.272775 
L 91.532343 147.383789 
L 91.625044 146.939736 
L 91.632769 146.939736 
L 91.643069 146.97674 
L 91.712595 146.680705 
L 91.72547 146.680705 
L 91.75122 146.569692 
L 91.75637 146.606696 
L 91.887696 146.199648 
L 91.897996 146.236652 
L 91.970097 145.903612 
L 91.985547 146.014626 
L 92.101423 145.607577 
L 92.103998 145.681586 
L 92.194124 145.274537 
L 92.201849 145.348546 
L 92.3409 144.79348 
L 92.34605 144.830485 
L 92.35635 144.867489 
L 92.428451 144.571454 
L 92.436176 144.608458 
L 92.554627 144.238414 
L 92.611277 144.127401 
L 92.752903 143.683348 
L 92.783803 143.720352 
L 92.827579 143.461322 
L 92.853329 143.53533 
L 92.899679 143.461322 
L 93.01813 143.091278 
L 93.020705 143.202291 
L 93.113406 142.832247 
L 93.121131 142.869251 
L 93.260182 142.462203 
L 93.283358 142.351189 
L 93.396658 142.01815 
L 93.404384 142.055154 
L 93.432709 141.944141 
L 93.450734 141.981145 
L 93.574335 141.500088 
L 93.58721 141.611101 
L 93.661886 141.315066 
L 93.669611 141.315066 
L 93.795787 140.945022 
L 93.798362 141.019031 
L 93.811237 141.09304 
L 93.888487 140.76 
L 93.891063 140.76 
L 93.939988 140.685991 
L 94.058439 140.278943 
L 94.061014 140.352952 
L 94.15114 139.982907 
L 94.158865 140.056916 
L 94.310791 139.464846 
L 94.370016 139.353833 
L 94.375166 139.390837 
L 94.501343 138.983789 
L 94.503918 139.094802 
L 94.586318 138.798767 
L 94.606918 138.798767 
L 94.645544 138.687753 
L 94.77172 138.317709 
L 94.650694 138.724758 
L 94.779445 138.354714 
L 94.79747 138.280705 
L 94.913346 137.836652 
L 94.915921 137.873656 
L 94.923646 137.799648 
L 95.021497 137.466608 
L 95.044672 137.503612 
L 95.078147 137.429604 
L 95.196598 137.059559 
L 95.245524 136.985551 
L 95.3511 136.615507 
L 95.363975 136.689515 
L 95.36655 136.72652 
L 95.44895 136.39348 
L 95.4541 136.430485 
L 95.595727 135.912423 
L 95.598302 135.949427 
L 95.639502 135.875419 
L 95.652377 135.949427 
L 95.763103 135.505374 
L 95.817178 135.394361 
L 95.925329 135.098326 
L 95.933054 135.13533 
L 96.05408 134.8763 
L 95.943354 135.172335 
L 96.05923 134.913304 
L 96.092706 134.802291 
L 96.206007 134.54326 
L 96.213732 134.580264 
L 96.216307 134.654273 
L 96.296132 134.395242 
L 96.316732 134.395242 
L 96.339908 134.358238 
L 96.455784 133.988194 
L 96.458359 134.025198 
L 96.574235 133.729163 
L 96.476384 134.062203 
L 96.57681 133.803172 
L 96.579385 133.840176 
L 96.661785 133.544141 
L 96.672085 133.581145 
L 96.816287 133.100088 
L 96.870362 132.989075 
L 96.991388 132.69304 
L 97.127864 132.322996 
L 97.166489 132.248987 
L 97.26949 131.915947 
L 97.28494 131.952952 
L 97.287515 131.989956 
L 97.372491 131.693921 
L 97.380216 131.730925 
L 97.521842 131.249868 
L 97.552743 131.286872 
L 97.596518 131.064846 
L 97.617118 131.064846 
L 97.727844 130.694802 
L 97.622268 131.10185 
L 97.738144 130.768811 
L 97.872045 130.435771 
L 97.902945 130.324758 
L 98.031697 129.991718 
L 98.047147 130.102731 
L 98.121822 129.8437 
L 98.137272 129.8437 
L 98.266023 129.510661 
L 98.276324 129.621674 
L 98.363874 129.325639 
L 98.369024 129.325639 
L 98.394774 129.399648 
L 98.5055 128.91859 
L 98.5158 128.992599 
L 98.585326 128.770573 
L 98.605926 128.770573 
L 98.618801 128.807577 
L 98.734677 128.474537 
L 98.737252 128.511542 
L 98.814503 128.289515 
L 98.832528 128.289515 
L 98.863428 128.178502 
L 98.979304 127.882467 
L 98.868578 128.215507 
L 98.981879 127.919471 
L 99.02823 127.845463 
L 99.146681 127.549427 
L 99.156981 127.623436 
L 99.221356 127.253392 
L 99.236806 127.253392 
L 99.244531 127.290396 
L 99.378433 126.809339 
L 99.450533 126.698326 
L 99.576709 126.402291 
L 99.579284 126.439295 
L 99.607609 126.439295 
L 99.723485 126.106256 
L 99.72606 126.217269 
L 99.785286 125.995242 
L 99.831636 126.032247 
L 99.965537 125.662203 
L 99.968112 125.699207 
L 100.045363 125.440176 
L 100.063388 125.477181 
L 100.114889 125.403172 
L 100.230765 125.033128 
L 100.235915 125.107137 
L 100.266815 125.070132 
L 100.380116 124.811101 
L 100.413591 124.700088 
L 100.431616 124.774097 
L 100.547492 124.330044 
L 100.550067 124.404053 
L 100.606718 124.182026 
L 100.650493 124.219031 
L 100.774094 123.848987 
L 100.786969 123.885991 
L 100.85392 123.589956 
L 100.866795 123.700969 
L 100.962071 123.330925 
L 100.982671 123.441938 
L 101.003271 123.404934 
L 101.121722 122.997885 
L 101.129447 123.03489 
L 101.193822 122.812863 
L 101.216998 122.812863 
L 101.340599 122.516828 
L 101.224723 122.849868 
L 101.343174 122.553833 
L 101.368924 122.590837 
L 101.410124 122.368811 
L 101.4436 122.405815 
L 101.4642 122.331806 
L 101.574926 122.072775 
L 101.471925 122.368811 
L 101.580076 122.146784 
L 101.636726 122.072775 
L 101.755177 121.77674 
L 101.757752 121.813744 
L 101.824703 121.517709 
L 101.853028 121.591718 
L 101.963754 121.258678 
L 101.971479 121.295683 
L 101.976629 121.332687 
L 102.06418 121.073656 
L 102.06933 121.110661 
L 102.198081 120.85163 
L 102.249581 120.777621 
L 102.365457 120.555595 
L 102.491633 120.222555 
L 102.380907 120.629604 
L 102.496783 120.259559 
L 102.530258 120.185551 
L 102.648709 119.815507 
L 102.651284 119.889515 
L 102.66931 119.815507 
L 102.790336 119.408458 
L 102.792911 119.445463 
L 102.916512 119.149427 
L 102.921662 119.186432 
L 102.983462 119.075419 
L 102.993762 119.112423 
L 103.109638 118.816388 
L 103.112213 118.853392 
L 103.204914 118.631366 
L 103.210064 118.705374 
L 103.338815 118.372335 
L 103.233239 118.816388 
L 103.34139 118.409339 
L 103.392891 118.298326 
L 103.529367 117.854273 
L 103.531942 117.891278 
L 103.542242 118.002291 
L 103.606617 117.669251 
L 103.627217 117.669251 
L 103.660693 117.558238 
L 103.665843 117.595242 
L 103.784294 117.336211 
L 103.833219 117.373216 
L 103.876995 117.225198 
L 103.88987 117.262203 
L 103.928495 117.151189 
L 104.031496 116.966167 
L 103.933645 117.188194 
L 104.046946 117.003172 
L 104.049521 117.040176 
L 104.131922 116.707137 
L 104.137072 116.744141 
L 104.265823 116.448106 
L 104.273548 116.48511 
L 104.343073 116.263084 
L 104.363673 116.263084 
L 104.476974 115.967048 
L 104.371399 116.300088 
L 104.482124 116.004053 
L 104.484699 116.041057 
L 104.554225 115.782026 
L 104.579975 115.856035 
L 104.716451 115.485991 
L 104.785977 115.374978 
L 104.791127 115.411982 
L 104.907003 115.189956 
L 104.948203 115.22696 
L 105.004854 115.041938 
L 105.010004 115.078943 
L 105.071804 114.96793 
L 105.195405 114.597885 
L 105.20313 114.63489 
L 105.210855 114.708899 
L 105.293256 114.375859 
L 105.295831 114.412863 
L 105.416857 114.116828 
L 105.419432 114.153833 
L 105.494108 113.820793 
L 105.509558 113.857797 
L 105.607409 113.746784 
L 105.718135 113.487753 
L 105.612559 113.783789 
L 105.73101 113.561762 
L 105.759335 113.487753 
L 105.877786 113.154714 
L 105.888086 113.191718 
L 105.957612 112.969692 
L 105.978212 113.006696 
L 106.052887 112.895683 
L 106.070913 112.932687 
L 106.173913 112.525639 
L 106.186788 112.636652 
L 106.251164 112.340617 
L 106.271764 112.377621 
L 106.385065 112.11859 
L 106.390215 112.155595 
L 106.516391 111.933568 
L 106.524116 112.044581 
L 106.593642 111.711542 
L 106.609092 111.785551 
L 106.724968 111.415507 
L 106.727543 111.452511 
L 106.740418 111.489515 
L 106.861444 111.119471 
L 106.915519 111.045463 
L 107.031395 110.675419 
L 106.923245 111.082467 
L 107.036545 110.712423 
L 107.075171 110.60141 
L 107.211647 110.194361 
L 107.214222 110.26837 
L 107.314648 109.972335 
L 107.384173 110.083348 
L 107.412499 109.898326 
L 107.422799 109.972335 
L 107.559275 109.602291 
L 107.6288 109.491278 
L 107.762701 109.084229 
L 107.636525 109.528282 
L 107.765276 109.121233 
L 107.814202 109.01022 
L 107.935228 108.714185 
L 107.829652 109.084229 
L 107.942953 108.751189 
L 107.991878 108.640176 
L 108.115479 108.344141 
L 108.002178 108.714185 
L 108.120629 108.381145 
L 108.154105 108.270132 
L 108.288006 107.937093 
L 108.378131 107.826079 
L 108.499157 107.567048 
L 108.501732 107.678062 
L 108.560958 107.456035 
L 108.607308 107.456035 
L 108.615033 107.530044 
L 108.676834 107.197004 
L 108.702584 107.234009 
L 108.826185 106.863965 
L 108.965236 106.456916 
L 108.980686 106.56793 
L 109.060512 106.308899 
L 109.068237 106.345903 
L 109.186688 106.086872 
L 109.227888 105.975859 
L 109.333464 105.494802 
L 109.351489 105.568811 
L 109.354064 105.679824 
L 109.431315 105.457797 
L 109.45964 105.494802 
L 109.578091 105.272775 
L 109.580666 105.30978 
L 109.583241 105.383789 
L 109.681092 105.013744 
L 109.683667 105.087753 
L 109.778943 105.013744 
L 109.899969 104.717709 
L 109.902544 104.791718 
L 109.99782 104.495683 
L 110.00297 104.532687 
L 110.06992 104.495683 
L 110.188371 104.162643 
L 110.214122 104.199648 
L 110.265622 103.903612 
L 110.281072 103.940617 
L 110.404673 103.681586 
L 110.412398 103.755595 
L 110.502524 103.496564 
L 110.510249 103.533568 
L 110.61325 103.385551 
L 110.6287 103.422555 
L 110.6493 103.459559 
L 110.713676 103.274537 
L 110.729126 103.348546 
L 110.842427 103.163524 
L 110.845002 103.200529 
L 110.922252 103.015507 
L 110.945428 103.089515 
L 111.063879 102.719471 
L 111.094779 102.608458 
L 111.110229 102.645463 
L 111.21838 102.423436 
L 111.251855 102.312423 
L 111.262155 102.349427 
L 111.372881 102.090396 
L 111.375456 102.164405 
L 111.475882 101.86837 
L 111.478457 101.942379 
L 111.509357 101.831366 
L 111.630383 101.572335 
L 111.635533 101.609339 
L 111.658708 101.498326 
L 111.666433 101.53533 
L 111.790034 101.202291 
L 111.80291 101.239295 
L 111.882735 100.94326 
L 111.944536 100.832247 
L 112.096462 100.240176 
L 112.189163 100.129163 
L 112.199463 100.166167 
L 112.312764 99.907137 
L 112.315339 99.944141 
L 112.410615 99.722115 
L 112.46469 99.648106 
L 112.583141 99.278062 
L 112.585716 99.315066 
L 112.632066 99.204053 
L 112.765967 98.834009 
L 112.768543 98.908018 
L 112.858668 98.574978 
L 112.866393 98.574978 
L 112.977119 98.42696 
L 112.984844 98.463965 
L 113.026045 98.352952 
L 113.136771 97.908899 
L 113.165096 97.945903 
L 113.198571 98.019912 
L 113.262947 97.797885 
L 113.265522 97.83489 
L 113.360797 97.760881 
L 113.288697 97.945903 
L 113.378823 97.797885 
L 113.401998 97.83489 
L 113.463798 97.538855 
L 113.468948 97.538855 
L 113.607999 97.131806 
L 113.692975 97.020793 
L 113.729025 96.798767 
L 113.798551 97.057797 
L 113.801126 97.057797 
L 113.803701 97.094802 
L 113.886102 96.724758 
L 113.909277 96.761762 
L 114.007128 96.57674 
L 114.020003 96.613744 
L 114.079228 96.317709 
L 114.099828 96.317709 
L 114.210554 96.021674 
L 114.110129 96.354714 
L 114.218279 96.095683 
L 114.34188 95.910661 
L 114.344455 95.947665 
L 114.432006 95.65163 
L 114.434581 95.65163 
L 114.465481 95.577621 
L 114.586507 95.244581 
L 114.589082 95.281586 
L 114.676633 95.022555 
L 114.761609 94.72652 
L 114.795084 94.800529 
L 114.823409 94.689515 
L 114.903235 94.504493 
L 114.939285 94.615507 
L 114.962461 94.689515 
L 115.039711 94.467489 
L 115.165887 94.060441 
L 115.044861 94.504493 
L 115.173612 94.134449 
L 115.176187 94.208458 
L 115.266313 93.912423 
L 115.276613 93.949427 
L 115.299788 93.838414 
L 115.425964 93.579383 
L 115.451715 93.616388 
L 115.50064 93.320352 
L 115.51609 93.320352 
L 115.52639 93.357357 
L 115.634541 93.098326 
L 115.637116 93.209339 
L 115.722092 92.765286 
L 115.737542 92.765286 
L 115.866293 92.432247 
L 115.868868 92.469251 
L 115.907493 92.358238 
L 115.917793 92.395242 
L 116.036244 92.062203 
L 116.087745 92.136211 
L 116.13152 91.951189 
L 116.14182 92.025198 
L 116.249971 91.803172 
L 116.257696 91.840176 
L 116.319497 91.729163 
L 116.327222 91.766167 
L 116.448248 91.433128 
L 116.450823 91.470132 
L 116.530648 91.174097 
L 116.540948 91.174097 
L 116.654249 90.767048 
L 116.677425 90.804053 
L 116.816476 90.69304 
L 116.940077 90.322996 
L 117.071403 89.952952 
L 117.073978 89.989956 
L 117.079128 90.063965 
L 117.169254 89.76793 
L 117.30058 89.471894 
L 117.34178 89.545903 
L 117.38813 89.212863 
L 117.395855 89.249868 
L 117.419031 89.138855 
L 117.470531 88.879824 
L 117.537482 89.027841 
L 117.650783 88.953833 
L 117.779534 88.398767 
L 117.789834 88.472775 
L 117.867084 88.065727 
L 117.877384 88.065727 
L 118.031886 87.399648 
L 118.055061 87.510661 
L 118.122011 87.25163 
L 118.137462 87.288634 
L 118.258488 86.881586 
L 118.261063 86.91859 
L 118.392389 86.807577 
L 118.492814 86.511542 
L 118.407839 86.844581 
L 118.518565 86.585551 
L 118.544315 86.696564 
L 118.559765 86.770573 
L 118.642166 86.400529 
L 118.644741 86.400529 
L 118.657616 86.474537 
L 118.714266 86.178502 
L 118.740017 86.215507 
L 118.747742 86.252511 
L 118.897093 85.512423 
L 118.899668 85.549427 
L 118.966618 85.253392 
L 118.997519 85.40141 
L 119.16232 84.624317 
L 119.164895 84.661322 
L 119.211245 84.365286 
L 119.265321 84.513304 
L 119.381197 84.069251 
L 119.404372 84.106256 
L 119.430122 84.106256 
L 119.540848 83.736211 
L 119.545998 83.773216 
L 119.566598 83.884229 
L 119.643849 83.477181 
L 119.646424 83.514185 
L 119.770025 82.848106 
L 119.775175 82.88511 
L 119.790625 82.996123 
L 119.860151 82.55207 
L 119.878176 82.55207 
L 119.880751 82.589075 
L 119.942551 81.96 
L 119.945126 81.997004 
L 120.084178 81.145903 
L 120.099628 81.071894 
L 120.140828 81.108899 
L 120.215504 80.849868 
L 120.223229 80.886872 
L 120.269579 80.072775 
L 120.421505 79.295683 
L 120.274729 80.10978 
L 120.426655 79.369692 
L 120.555406 79.998767 
L 120.444681 79.332687 
L 120.568282 79.813744 
L 120.576007 79.887753 
L 120.586307 80.035771 
L 120.666132 79.628722 
L 120.681582 79.739736 
L 120.766558 78.888634 
L 120.815484 79.073656 
L 120.869559 78.888634 
L 120.954535 79.480705 
L 121.006035 79.369692 
L 121.072986 76.816388 
L 121.119336 14.76 
L 121.178562 77.371454 
L 121.294437 91.28511 
L 121.315038 91.174097 
L 121.647215 87.991718 
L 121.660091 87.880705 
L 122.373371 79.147665 
L 122.375946 79.18467 
L 122.396547 79.073656 
L 122.450622 77.556476 
L 122.504697 15.870132 
L 122.561348 75.41022 
L 122.654049 88.583789 
L 122.695249 88.139736 
L 123.570756 76.631366 
L 123.593931 76.779383 
L 123.635132 76.964405 
L 123.684057 76.520352 
L 123.691782 76.594361 
L 123.825683 75.595242 
L 123.859159 75.521233 
L 123.995635 66.196123 
L 124.047135 20.902731 
L 124.101211 67.380264 
L 124.240262 84.698326 
L 124.405063 83.144141 
L 124.407638 83.181145 
L 124.464289 82.478062 
L 124.466864 82.478062 
L 124.894317 77.889515 
L 124.904617 77.963524 
L 124.968993 77.112423 
L 124.976718 77.112423 
L 125.128644 73.819031 
L 125.20332 24.455154 
L 125.25997 64.049868 
L 125.396446 82.700088 
L 125.404171 82.663084 
L 125.432496 82.626079 
L 125.574123 81.256916 
L 125.957801 74.559119 
L 126.120027 52.245463 
L 126.158652 30.930925 
L 126.212728 57.463084 
L 126.367229 79.77674 
L 126.488255 80.072775 
L 126.493405 79.998767 
L 126.552631 79.887753 
L 126.732882 77.889515 
L 126.740607 77.852511 
L 126.895108 75.965286 
L 127.193811 73.22696 
L 127.240161 73.411982 
L 127.289087 73.078943 
L 127.291662 73.078943 
L 127.425563 66.677181 
L 127.528564 33.521233 
L 127.569764 49.28511 
L 127.729415 77.445463 
L 127.788641 77.889515 
L 127.837566 77.408458 
L 128.463296 67.158238 
L 128.527672 56.611982 
L 128.592047 58.94326 
L 128.893325 69.896564 
L 128.903625 70.007577 
L 129.063276 71.413744 
L 129.104477 71.302731 
L 129.135377 71.191718 
L 129.313053 70.155595 
L 129.372279 70.303612 
L 129.354254 70.11859 
L 129.426354 70.266608 
L 129.444379 70.155595 
L 129.591156 69.119471 
L 129.691581 68.971454 
L 129.601456 69.19348 
L 129.707032 69.045463 
L 129.743082 68.971454 
L 129.864108 68.527401 
L 129.974834 68.786432 
L 129.871833 68.453392 
L 129.985134 68.675419 
L 130.000584 68.564405 
L 130.013459 68.453392 
L 130.052084 68.712423 
L 130.113885 68.490396 
L 130.185986 69.082467 
L 130.227186 68.675419 
L 130.234911 68.749427 
L 130.270961 68.490396 
L 130.325037 68.527401 
L 130.340487 68.564405 
L 130.474388 64.789956 
L 130.536188 54.2437 
L 130.608289 56.204934 
L 130.976517 67.306256 
L 130.991967 67.195242 
L 131.033167 66.825198 
L 131.002267 67.232247 
L 131.100118 67.232247 
L 131.110418 67.306256 
L 131.179944 66.862203 
L 131.185094 66.899207 
L 131.249469 66.936211 
L 131.30612 66.566167 
L 131.339595 66.714185 
L 131.385945 66.159119 
L 131.38852 66.159119 
L 131.535297 59.054273 
L 131.573922 55.168811 
L 131.646022 58.721233 
L 131.826274 64.974978 
L 131.828849 64.937974 
L 131.91125 66.08511 
L 131.9576 66.011101 
L 131.9885 65.937093 
L 132.114676 65.234009 
L 132.132701 65.308018 
L 132.212527 64.863965 
L 132.233127 64.752952 
L 132.253727 64.641938 
L 132.307803 65.085991 
L 132.320678 65.085991 
L 132.343853 64.974978 
L 132.508655 66.196123 
L 132.513805 66.159119 
L 132.57303 66.455154 
L 132.616805 66.233128 
L 132.655431 66.122115 
L 132.794482 64.82696 
L 132.874308 65.048987 
L 132.907783 64.863965 
L 132.920658 64.789956 
L 132.977308 60.164405 
L 133.028809 54.613744 
L 133.093184 58.425198 
L 133.322361 65.234009 
L 133.337811 65.122996 
L 133.474287 64.382907 
L 133.494888 64.419912 
L 133.621064 65.085991 
L 133.636514 64.974978 
L 133.639089 64.937974 
L 133.706039 65.197004 
L 133.73179 65.197004 
L 133.76269 65.308018 
L 133.806465 64.715947 
L 133.80904 64.715947 
L 133.909466 64.123877 
L 133.948091 64.197885 
L 133.950666 64.308899 
L 134.022767 63.716828 
L 134.051092 64.012863 
L 134.053667 63.938855 
L 134.128343 64.493921 
L 134.148943 64.382907 
L 134.208169 64.271894 
L 134.326619 63.753833 
L 134.34207 63.938855 
L 134.42962 64.308899 
L 134.470821 64.23489 
L 134.627897 62.865727 
L 134.633047 62.902731 
L 134.699998 62.421674 
L 134.705148 62.421674 
L 134.720598 62.347665 
L 134.782398 62.717709 
L 134.797848 62.680705 
L 134.815874 62.754714 
L 134.862224 62.939736 
L 134.911149 62.421674 
L 134.913724 62.458678 
L 135.016725 61.459559 
L 135.057925 61.940617 
L 135.227877 63.642819 
L 135.464779 58.684229 
L 135.500829 53.947665 
L 135.57808 57.241057 
L 135.750606 62.754714 
L 135.776356 62.865727 
L 136.020983 65.011982 
L 136.031283 64.937974 
L 136.067334 64.82696 
L 136.075059 64.863965 
L 136.281061 63.30978 
L 136.286211 63.346784 
L 136.353161 62.754714 
L 136.358311 62.680705 
L 136.456162 62.125639 
L 136.481912 62.310661 
L 136.600363 63.013744 
L 136.633838 62.902731 
L 136.770315 61.71859 
L 136.80379 62.014626 
L 136.891341 62.162643 
L 136.914516 62.014626 
L 136.984041 61.903612 
L 137.035542 61.570573 
L 137.097342 61.755595 
L 137.182318 62.088634 
L 137.133393 61.681586 
L 137.208068 61.755595 
L 137.285319 60.904493 
L 137.331669 61.385551 
L 137.40377 62.162643 
L 137.45012 61.755595 
L 137.473295 61.829604 
L 137.532521 61.459559 
L 137.545396 61.533568 
L 137.586596 61.607577 
L 137.614921 61.681586 
L 137.663847 61.385551 
L 137.689597 61.496564 
L 137.797748 59.350308 
L 137.844098 60.127401 
L 137.965124 61.644581 
L 137.985725 61.533568 
L 138.0089 61.385551 
L 138.06555 61.755595 
L 138.083575 61.681586 
L 138.155676 61.71859 
L 138.122201 61.422555 
L 138.191726 61.644581 
L 138.271552 61.903612 
L 138.310177 61.459559 
L 138.346227 61.903612 
L 138.402878 60.941498 
L 138.559954 58.240176 
L 138.601155 58.425198 
L 138.61403 58.536211 
L 138.783981 60.423436 
L 138.789131 60.386432 
L 138.897282 59.86837 
L 138.817456 60.497445 
L 138.923032 59.979383 
L 139.049208 60.719471 
L 139.121309 60.571454 
L 139.149634 60.867489 
L 139.154784 60.867489 
L 139.30671 59.831366 
L 139.332461 59.905374 
L 139.365936 60.164405 
L 139.443187 59.942379 
L 139.497262 59.646344 
L 139.556487 59.86837 
L 139.574513 59.757357 
L 139.690389 60.20141 
L 139.721289 60.238414 
L 139.84489 60.978502 
L 139.847465 60.941498 
L 139.883515 61.163524 
L 139.940166 60.719471 
L 139.996816 59.683348 
L 140.081792 60.20141 
L 140.220843 61.015507 
L 140.231143 61.089515 
L 140.246593 61.274537 
L 140.313544 60.275419 
L 140.45517 58.869251 
L 140.46032 58.906256 
L 140.504095 58.055154 
L 140.609671 50.54326 
L 140.679197 55.205815 
L 140.872323 62.310661 
L 140.887773 62.236652 
L 141.0397 61.052511 
L 141.1221 61.533568 
L 141.047425 60.978502 
L 141.160726 61.200529 
L 141.176176 61.12652 
L 141.322952 59.979383 
L 141.325527 60.016388 
L 141.454278 59.387313 
L 141.472303 59.498326 
L 141.487753 59.609339 
L 141.557279 60.053392 
L 141.608779 59.794361 
L 141.73238 59.239295 
L 141.65513 60.016388 
L 141.74783 59.387313 
L 141.786456 59.2763 
L 141.819931 59.017269 
L 141.791606 59.313304 
L 141.897182 59.2763 
L 142.013058 60.571454 
L 142.041383 60.386432 
L 142.167559 59.720352 
L 142.195884 59.794361 
L 142.239659 59.202291 
L 142.242234 59.202291 
L 142.262835 59.091278 
L 142.32206 58.499207 
L 142.373561 58.94326 
L 142.489437 59.831366 
L 142.510037 59.720352 
L 142.528062 59.646344 
L 142.646513 58.980264 
L 142.651663 59.054273 
L 142.667113 59.017269 
L 142.736639 59.424317 
L 142.795864 59.683348 
L 142.819039 59.2763 
L 142.842214 59.350308 
L 142.909165 59.2763 
L 143.058516 57.611101 
L 143.073966 57.722115 
L 143.158942 57.611101 
L 143.161517 57.574097 
L 143.218167 58.314185 
L 143.220743 58.314185 
L 143.236193 58.388194 
L 143.297993 58.203172 
L 143.357219 58.684229 
L 143.388119 58.795242 
L 143.560645 59.720352 
L 143.712572 58.980264 
L 143.604421 59.979383 
L 143.717722 59.017269 
L 143.764072 59.202291 
L 143.805272 58.721233 
L 143.807847 58.721233 
L 143.836173 58.795242 
L 143.977799 59.831366 
L 143.980374 59.794361 
L 144.034449 59.609339 
L 144.09625 59.646344 
L 144.124575 59.53533 
L 144.186375 59.2763 
L 144.230151 59.572335 
L 144.232726 59.498326 
L 144.248176 59.609339 
L 144.330577 59.128282 
L 144.407827 58.092159 
L 144.474778 58.61022 
L 144.577779 59.054273 
L 144.603529 58.906256 
L 144.74773 57.426079 
L 144.861031 55.982907 
L 144.902231 56.722996 
L 145.069608 59.239295 
L 145.090208 58.980264 
L 145.105658 58.869251 
L 145.249859 57.537093 
L 145.288484 57.796123 
L 145.29106 57.833128 
L 145.370885 57.426079 
L 145.37861 57.500088 
L 145.40436 57.611101 
L 145.422386 57.796123 
L 145.471311 56.982026 
L 145.540837 56.500969 
L 145.594912 56.797004 
L 145.713363 57.315066 
L 145.731388 57.278062 
L 145.777739 57.389075 
L 145.844689 57.09304 
L 145.854989 57.204053 
L 145.939965 57.722115 
L 145.976015 57.389075 
L 146.053266 57.167048 
L 146.086741 57.389075 
L 146.220642 58.573216 
L 146.272143 58.462203 
L 146.297893 58.573216 
L 146.357118 59.017269 
L 146.421494 58.758238 
L 146.52707 58.832247 
L 146.56312 59.128282 
L 146.60432 58.758238 
L 146.635221 58.758238 
L 146.828347 57.130044 
L 146.848947 57.278062 
L 147.060099 59.165286 
L 146.866972 57.241057 
L 147.083274 59.091278 
L 147.348501 56.834009 
L 147.428327 56.982026 
L 147.384552 56.76 
L 147.459227 56.908018 
L 147.469527 56.945022 
L 147.510728 57.241057 
L 147.580253 56.982026 
L 147.629179 56.389956 
L 147.678104 57.278062 
L 147.930456 59.313304 
L 148.185383 57.130044 
L 148.200833 57.241057 
L 148.254909 56.722996 
L 148.288384 56.908018 
L 148.33731 56.797004 
L 148.381085 57.278062 
L 148.38881 57.167048 
L 148.558761 58.573216 
L 148.587087 58.425198 
L 148.602537 58.314185 
L 148.821413 56.574978 
L 148.829139 56.648987 
L 148.842014 56.76 
L 148.950165 58.055154 
L 148.99909 57.463084 
L 149.05059 56.722996 
L 149.122691 57.09304 
L 149.235992 57.981145 
L 149.266892 57.574097 
L 149.372468 56.463965 
L 149.400793 56.574978 
L 149.485769 56.611982 
L 149.516669 56.352952 
L 149.575895 56.42696 
L 149.60937 55.908899 
L 149.696921 54.132687 
L 149.758721 55.279824 
L 149.905497 57.981145 
L 149.915797 57.944141 
L 149.933823 58.092159 
L 150.003348 57.648106 
L 150.005923 57.648106 
L 150.011073 57.68511 
L 150.157849 56.389956 
L 150.163 56.42696 
L 150.2145 55.612863 
L 150.26085 55.649868 
L 150.397326 56.834009 
L 150.402476 56.76 
L 150.474577 57.500088 
L 150.484877 57.463084 
L 150.500327 57.537093 
L 150.520927 57.648106 
L 150.590453 57.056035 
L 150.595603 57.09304 
L 150.629078 57.278062 
L 150.688304 56.834009 
L 150.690879 56.871013 
L 150.84023 55.723877 
L 150.873705 55.353833 
L 150.997306 56.389956 
L 151.064257 56.241938 
L 151.025632 56.500969 
L 151.102882 56.463965 
L 151.180133 57.426079 
L 151.226483 56.908018 
L 151.357809 55.316828 
L 151.362959 55.390837 
L 151.391285 55.279824 
L 151.40931 55.205815 
L 151.46596 55.686872 
L 151.47111 55.686872 
L 151.509736 55.83489 
L 151.522611 55.649868 
L 151.581836 55.723877 
L 151.607586 55.686872 
L 151.638487 55.760881 
L 151.728612 55.205815 
L 151.908864 56.500969 
L 151.733762 55.168811 
L 151.921739 56.389956 
L 151.929464 56.389956 
L 152.05049 55.686872 
L 152.145766 56.204934 
L 152.171516 55.908899 
L 152.228166 55.353833 
L 152.284817 55.797885 
L 152.318292 55.908899 
L 152.431593 56.76 
L 152.447043 56.42696 
L 152.462493 56.352952 
L 152.596394 55.353833 
L 152.472793 56.42696 
L 152.60412 55.464846 
L 152.748321 54.835771 
L 152.63502 55.538855 
L 152.756046 54.872775 
L 152.895097 56.204934 
L 152.902822 56.16793 
L 152.964623 56.685991 
L 152.974923 56.574978 
L 152.987798 56.685991 
L 153.062473 56.093921 
L 153.070198 56.130925 
L 153.170624 55.797885 
L 153.139724 56.241938 
L 153.188649 55.908899 
L 153.222125 56.130925 
L 153.263325 55.723877 
L 153.2865 55.723877 
L 153.294225 55.649868 
L 153.407526 55.279824 
L 153.415251 55.353833 
L 153.497652 56.019912 
L 153.533702 55.575859 
L 153.541427 55.649868 
L 153.592928 55.390837 
L 153.641853 55.538855 
L 153.657303 55.538855 
L 153.695929 55.908899 
L 153.762879 55.464846 
L 153.765454 55.575859 
L 153.82983 54.872775 
L 153.883905 55.168811 
L 153.904505 55.057797 
L 153.935405 54.946784 
L 153.992056 55.353833 
L 153.994631 55.242819 
L 154.048706 55.760881 
L 154.113082 55.649868 
L 154.138832 55.538855 
L 154.316509 54.391718 
L 154.143982 55.612863 
L 154.319084 54.465727 
L 154.386034 55.057797 
L 154.432385 54.539736 
L 154.45041 54.650749 
L 154.617786 56.130925 
L 154.45556 54.613744 
L 154.651261 56.019912 
L 154.759412 55.279824 
L 154.772287 55.353833 
L 154.834088 55.242819 
L 154.841813 55.205815 
L 154.890738 55.760881 
L 154.911338 55.686872 
L 154.965414 56.093921 
L 154.924214 55.649868 
L 155.024639 55.797885 
L 155.058115 55.686872 
L 155.192016 54.465727 
L 155.228066 54.835771 
L 155.251241 54.90978 
L 155.302742 54.391718 
L 155.346517 53.873656 
L 155.413468 54.317709 
L 155.539644 55.50185 
L 155.570544 55.057797 
L 155.673545 54.761762 
L 155.68642 54.872775 
L 155.771396 56.16793 
L 155.822896 56.019912 
L 155.936197 54.983789 
L 155.828046 56.056916 
L 155.977397 55.390837 
L 156.031473 55.908899 
L 156.088123 55.390837 
L 156.137049 55.205815 
L 156.173099 55.612863 
L 156.191124 55.612863 
L 156.240049 56.056916 
L 156.294125 55.427841 
L 156.461501 54.280705 
L 156.476951 54.391718 
L 156.585102 55.464846 
L 156.639178 55.168811 
L 156.809129 54.132687 
L 156.814279 54.2437 
L 157.012556 55.538855 
L 157.141307 54.983789 
L 157.146457 54.946784 
L 157.282933 53.836652 
L 157.347308 53.725639 
L 157.401384 53.98467 
L 157.447734 53.910661 
L 157.48636 54.317709 
L 157.57391 55.131806 
L 157.612536 54.983789 
L 157.622836 55.020793 
L 157.669186 55.612863 
L 157.736137 55.242819 
L 157.767037 55.020793 
L 157.831412 55.353833 
L 157.833987 55.353833 
L 157.882913 55.686872 
L 157.924113 55.168811 
L 157.939563 55.205815 
L 157.944713 55.316828 
L 158.011664 55.723877 
L 157.949863 55.242819 
L 158.058014 55.427841 
L 158.253716 52.837533 
L 158.256291 52.874537 
L 158.261441 52.763524 
L 158.289766 52.689515 
L 158.338692 53.207577 
L 158.348992 53.096564 
L 158.372167 53.207577 
L 158.552418 54.946784 
L 158.591044 54.761762 
L 158.688895 53.947665 
L 158.730095 54.354714 
L 158.77387 54.206696 
L 158.851121 54.539736 
L 158.853696 54.502731 
L 158.936097 54.872775 
L 158.943822 54.761762 
L 159.021072 54.835771 
L 158.979872 54.465727 
L 159.044247 54.687753 
L 159.085448 54.724758 
L 159.165273 54.095683 
L 159.268274 53.392599 
L 159.178149 54.132687 
L 159.30175 53.688634 
L 159.36355 53.577621 
L 159.445951 54.2437 
L 159.579852 53.355595 
L 159.585002 53.392599 
L 159.603027 53.503612 
L 159.785854 54.835771 
L 159.628777 53.392599 
L 159.796154 54.724758 
L 159.997005 52.837533 
L 160.027906 52.985551 
L 160.056231 53.096564 
L 160.130906 53.540617 
L 160.174682 53.429604 
L 160.264807 52.911542 
L 160.287983 53.244581 
L 160.419309 53.947665 
L 160.437334 53.799648 
L 160.463084 53.910661 
L 160.560935 53.429604 
L 160.58411 53.540617 
L 160.661361 53.133568 
L 160.725736 52.800529 
L 160.774662 53.207577 
L 160.777237 53.170573 
L 160.836462 53.873656 
L 160.839037 53.873656 
L 160.849337 53.947665 
L 160.924013 54.169692 
L 160.952338 53.799648 
L 160.957488 53.873656 
L 161.060489 53.98467 
L 161.078514 54.280705 
L 161.160915 53.65163 
L 161.16349 53.65163 
L 161.196965 53.540617 
L 161.372067 52.171454 
L 161.395242 52.282467 
L 161.454467 52.541498 
L 161.490518 52.023436 
L 161.505968 52.319471 
L 161.508543 52.282467 
L 161.554893 53.133568 
L 161.668194 54.983789 
L 161.699094 54.613744 
L 161.724844 54.687753 
L 161.729994 54.761762 
L 161.786645 54.428722 
L 161.82527 54.502731 
L 161.972046 52.763524 
L 161.974621 52.800529 
L 162.010672 52.837533 
L 162.103373 52.541498 
L 162.111098 52.430485 
L 162.123973 52.282467 
L 162.216673 52.578502 
L 162.35315 54.613744 
L 162.4201 53.947665 
L 162.564301 52.245463 
L 162.584901 52.39348 
L 162.600352 52.319471 
L 162.726528 53.392599 
L 162.793478 53.31859 
L 162.819228 53.65163 
L 162.824378 53.614626 
L 162.875879 53.910661 
L 162.919654 53.244581 
L 162.924804 53.244581 
L 163.01493 53.355595 
L 163.107631 53.947665 
L 163.143681 53.65163 
L 163.305907 52.171454 
L 163.460409 53.355595 
L 163.493884 53.281586 
L 163.519634 53.170573 
L 163.638085 52.319471 
L 163.648385 52.39348 
L 163.761686 51.80141 
L 163.653535 52.430485 
L 163.782286 51.912423 
L 163.880137 52.948546 
L 163.908462 52.874537 
L 163.993438 53.577621 
L 164.039788 53.207577 
L 164.153089 52.985551 
L 164.160814 53.022555 
L 164.305016 54.798767 
L 164.364241 54.354714 
L 164.572818 52.911542 
L 164.575393 52.948546 
L 164.637193 52.319471 
L 164.680969 51.949427 
L 164.727319 52.430485 
L 164.742769 52.430485 
L 164.755644 52.504493 
L 164.786545 52.72652 
L 164.84062 52.282467 
L 164.86122 52.430485 
L 164.894695 52.319471 
L 164.933321 52.948546 
L 164.935896 52.948546 
L 164.961646 53.096564 
L 165.026022 52.39348 
L 165.095547 52.504493 
L 165.175373 53.429604 
L 165.221723 52.948546 
L 165.224298 52.985551 
L 165.301549 52.504493 
L 165.448325 51.209339 
L 165.479225 51.542379 
L 165.4921 51.653392 
L 165.587376 52.060441 
L 165.605401 51.727401 
L 165.677502 51.283348 
L 165.718702 51.653392 
L 165.731577 51.542379 
L 165.736727 51.394361 
L 165.824278 51.986432 
L 165.826853 51.986432 
L 165.911829 53.133568 
L 165.968479 52.911542 
L 166.022555 52.874537 
L 166.094655 52.171454 
L 166.138431 52.39348 
L 166.213106 53.059559 
L 166.256882 52.689515 
L 166.421683 51.875419 
L 166.424258 51.912423 
L 166.480908 51.172335 
L 166.483484 51.172335 
L 166.527259 50.506256 
L 166.578759 51.505374 
L 166.581334 51.505374 
L 166.694635 52.060441 
L 166.71781 51.875419 
L 166.836261 51.394361 
L 166.849137 51.46837 
L 166.998488 53.133568 
L 167.029388 53.244581 
L 167.083463 53.688634 
L 167.129814 52.874537 
L 167.299765 49.359119 
L 167.351266 49.544141 
L 167.505767 51.505374 
L 167.523792 51.320352 
L 167.585593 51.727401 
L 167.613918 51.616388 
L 167.678293 51.727401 
L 167.693743 51.80141 
L 167.776144 51.542379 
L 167.778719 51.616388 
L 167.819919 51.209339 
L 167.89202 51.505374 
L 167.979571 52.72652 
L 168.046521 52.208458 
L 168.162397 50.432247 
L 168.206173 50.765286 
L 168.244798 50.654273 
L 168.306598 49.803172 
L 168.376124 50.284229 
L 168.494575 52.060441 
L 168.515175 51.912423 
L 168.520325 52.023436 
L 168.695427 53.688634 
L 168.721177 53.355595 
L 168.906578 50.987313 
L 168.955504 51.579383 
L 169.001854 51.912423 
L 169.043055 51.283348 
L 169.04563 51.283348 
L 169.156355 50.54326 
L 169.176956 50.654273 
L 169.390682 52.356476 
L 169.398407 52.319471 
L 169.475658 52.541498 
L 169.511708 52.208458 
L 169.519433 52.097445 
L 169.71771 49.322115 
L 169.72286 49.396123 
L 169.861911 50.802291 
L 169.910837 50.506256 
L 169.926287 50.617269 
L 170.163189 52.652511 
L 170.170914 52.578502 
L 170.400091 49.28511 
L 170.492791 49.507137 
L 170.680768 51.875419 
L 170.719393 51.246344 
L 170.832694 50.025198 
L 170.863594 50.284229 
L 171.023246 52.245463 
L 171.074746 51.727401 
L 171.097921 51.616388 
L 171.260148 49.914185 
L 171.265298 49.951189 
L 171.283323 50.062203 
L 171.332248 49.470132 
L 171.334823 49.470132 
L 171.350273 49.322115 
L 171.422374 50.728282 
L 171.432674 50.839295 
L 171.607776 51.986432 
L 171.618076 51.912423 
L 171.700476 50.8763 
L 171.782877 51.098326 
L 171.813777 51.320352 
L 171.865278 50.839295 
L 171.870428 50.839295 
L 171.873003 50.728282 
L 171.965704 51.431366 
L 171.968279 51.394361 
L 171.976004 51.46837 
L 172.14338 50.469251 
L 172.156255 50.506256 
L 172.230931 50.173216 
L 172.277281 49.951189 
L 172.331357 50.321233 
L 172.444657 51.616388 
L 172.493583 51.13533 
L 172.555383 50.54326 
L 172.612034 50.913304 
L 172.614609 50.950308 
L 172.668684 50.21022 
L 172.678984 50.284229 
L 172.70216 50.358238 
L 172.704735 50.432247 
L 172.771685 49.840176 
L 172.80516 50.173216 
L 172.807735 50.136211 
L 172.874686 50.691278 
L 172.884986 50.580264 
L 173.018887 51.320352 
L 173.090988 50.617269 
L 173.039487 51.431366 
L 173.132188 51.283348 
L 173.163088 51.394361 
L 173.209439 51.727401 
L 173.255789 51.172335 
L 173.436041 49.877181 
L 173.443766 49.988194 
L 173.448916 49.951189 
L 173.569942 50.765286 
L 173.575092 50.728282 
L 173.616292 51.024317 
L 173.678093 50.802291 
L 173.680668 50.8763 
L 173.755343 50.062203 
L 173.760493 50.099207 
L 173.850619 48.915066 
L 173.891819 49.433128 
L 174.154471 51.838414 
L 174.162197 51.727401 
L 174.280648 49.248106 
L 174.308973 49.544141 
L 174.342448 49.433128 
L 174.345023 49.396123 
L 174.419699 49.803172 
L 174.422274 49.803172 
L 174.440299 50.099207 
L 174.507249 48.804053 
L 174.509824 48.878062 
L 174.5845 48.95207 
L 174.749301 51.283348 
L 174.767327 51.13533 
L 174.903803 49.914185 
L 174.906378 49.951189 
L 174.983628 49.470132 
L 174.988778 49.396123 
L 175.042854 49.840176 
L 175.084054 49.544141 
L 175.114954 49.692159 
L 175.17418 48.989075 
L 175.228255 48.434009 
L 175.277181 49.100088 
L 175.416232 50.062203 
L 175.418807 49.988194 
L 175.503783 50.580264 
L 175.539833 50.136211 
L 175.640259 50.025198 
L 175.750985 48.397004 
L 175.81021 49.174097 
L 175.866861 49.766167 
L 175.951836 49.655154 
L 176.062562 49.137093 
L 176.075437 49.28511 
L 176.204188 49.914185 
L 176.093462 49.248106 
L 176.206763 49.877181 
L 176.229939 49.766167 
L 176.332939 49.211101 
L 176.366415 49.396123 
L 176.433365 50.173216 
L 176.495166 49.914185 
L 176.536366 49.655154 
L 176.605892 49.840176 
L 176.742368 50.765286 
L 176.762968 50.54326 
L 176.850519 49.470132 
L 176.891719 49.988194 
L 176.932919 50.321233 
L 176.986995 49.877181 
L 176.99987 49.914185 
L 177.095146 49.28511 
L 177.138921 49.433128 
L 177.257372 50.765286 
L 177.146646 49.396123 
L 177.288272 50.580264 
L 177.362948 49.729163 
L 177.401573 50.432247 
L 177.411873 50.506256 
L 177.468524 49.803172 
L 177.471099 49.840176 
L 177.483974 49.803172 
L 177.561224 49.174097 
L 177.5947 49.692159 
L 177.6771 50.654273 
L 177.749201 50.321233 
L 177.764651 50.21022 
L 177.926877 49.359119 
L 177.787826 50.284229 
L 177.932028 49.396123 
L 177.975803 49.507137 
L 178.017003 49.100088 
L 178.019578 49.137093 
L 178.037603 48.989075 
L 178.117429 49.470132 
L 178.120004 49.433128 
L 178.156054 49.544141 
L 178.284805 50.136211 
L 178.21528 49.507137 
L 178.295105 49.988194 
L 178.349181 49.581145 
L 178.408406 49.914185 
L 178.410981 49.951189 
L 178.454757 49.063084 
L 178.459907 49.063084 
L 178.470207 48.95207 
L 178.516557 49.507137 
L 178.570633 49.026079 
L 178.696809 49.655154 
L 178.578358 48.989075 
L 178.701959 49.61815 
L 178.753459 49.988194 
L 178.82041 49.396123 
L 178.859035 49.28511 
L 178.89251 48.878062 
L 178.977486 48.95207 
L 179.085637 49.877181 
L 179.113962 49.692159 
L 179.250438 48.804053 
L 179.126837 49.766167 
L 179.253013 48.841057 
L 179.278764 48.95207 
L 179.386914 49.396123 
L 179.39979 49.248106 
L 179.533691 48.545022 
L 179.574891 48.137974 
L 179.649567 48.619031 
L 179.713942 48.508018 
L 179.675317 48.841057 
L 179.752567 48.730044 
L 179.762868 48.989075 
L 179.801493 48.582026 
L 179.868443 48.878062 
L 179.871018 48.915066 
L 179.919944 48.434009 
L 179.963719 48.656035 
L 179.981744 48.767048 
L 180.084745 48.95207 
L 179.999769 48.656035 
L 180.095045 48.841057 
L 180.105345 48.915066 
L 180.169721 48.471013 
L 180.185171 48.545022 
L 180.190321 48.508018 
L 180.254697 49.100088 
L 180.257272 49.100088 
L 180.349972 50.321233 
L 180.378298 49.766167 
L 180.530224 49.063084 
L 180.535374 49.100088 
L 180.545674 48.989075 
L 180.6461 47.582907 
L 180.677 48.100969 
L 180.795451 49.803172 
L 180.839226 49.692159 
L 180.937077 48.582026 
L 180.978278 48.878062 
L 181.037503 48.69304 
L 180.988578 48.95207 
L 181.083853 48.915066 
L 181.086428 48.95207 
L 181.145654 48.248987 
L 181.148229 48.248987 
L 181.168829 48.174978 
L 181.23063 48.397004 
L 181.25123 48.36 
L 181.320755 49.100088 
L 181.385131 48.730044 
L 181.452081 48.02696 
L 181.503582 48.397004 
L 181.593708 48.989075 
L 181.645208 48.878062 
L 181.725034 48.619031 
L 181.678683 48.915066 
L 181.755934 48.878062 
L 181.87181 49.100088 
L 181.794559 48.730044 
L 181.874385 48.989075 
L 181.941335 49.026079 
L 182.016011 48.508018 
L 182.018586 48.545022 
L 182.082962 47.915947 
L 182.085537 47.952952 
L 182.090687 47.915947 
L 182.139612 48.730044 
L 182.142187 48.730044 
L 182.245188 49.396123 
L 182.270938 49.248106 
L 182.330164 49.322115 
L 182.384239 49.729163 
L 182.430589 49.211101 
L 182.54389 47.582907 
L 182.567066 47.730925 
L 182.585091 47.619912 
L 182.760192 48.989075 
L 182.775642 49.137093 
L 182.894093 48.322996 
L 182.896668 48.36 
L 182.968769 47.878943 
L 182.973919 47.878943 
L 182.986794 47.989956 
L 183.020269 48.211982 
L 183.06147 47.508899 
L 183.16447 47.027841 
L 183.185071 47.249868 
L 183.334422 48.36 
L 183.514673 46.805815 
L 183.360172 48.582026 
L 183.532698 47.064846 
L 183.579049 47.841938 
L 183.658875 47.360881 
L 183.66145 47.286872 
L 183.736125 48.248987 
L 183.7387 48.248987 
L 183.77475 48.137974 
L 183.841701 47.471894 
L 183.877751 48.211982 
L 183.880326 48.211982 
L 184.014227 48.841057 
L 184.027103 48.730044 
L 184.045128 48.841057 
L 184.073453 49.026079 
L 184.130103 48.397004 
L 184.142978 48.471013 
L 184.173879 48.36 
L 184.26658 47.323877 
L 184.31808 47.841938 
L 184.470006 49.507137 
L 184.32323 47.804934 
L 184.516357 49.137093 
L 184.645108 48.767048 
L 184.529232 49.248106 
L 184.647683 48.841057 
L 184.678583 48.95207 
L 184.742958 49.174097 
L 184.779009 48.69304 
L 184.941235 46.472775 
L 185.008186 46.990837 
L 185.165262 48.915066 
L 185.180712 48.804053 
L 185.291438 47.841938 
L 185.319763 47.989956 
L 185.348088 47.878943 
L 185.438214 47.43489 
L 185.373839 47.915947 
L 185.461389 47.730925 
L 185.58499 48.285991 
L 185.587565 48.322996 
L 185.664816 47.841938 
L 185.739492 46.731806 
L 185.814167 47.212863 
L 185.899143 48.100969 
L 185.937768 47.841938 
L 186.081969 46.842819 
L 186.092269 46.916828 
L 186.192695 48.248987 
L 186.239046 47.952952 
L 186.254496 47.878943 
L 186.331746 47.064846 
L 186.370372 47.656916 
L 186.429597 48.248987 
L 186.488823 47.989956 
L 186.493973 48.02696 
L 186.553198 48.322996 
L 186.591824 47.619912 
L 186.718 47.10185 
L 186.882801 48.063965 
L 186.73345 47.064846 
L 186.887951 48.02696 
L 186.960052 47.397885 
L 187.001252 47.878943 
L 187.003827 47.841938 
L 187.050177 48.69304 
L 187.088803 49.396123 
L 187.150603 48.36 
L 187.153178 48.36 
L 187.351455 46.805815 
L 187.35918 46.990837 
L 187.39008 47.10185 
L 187.392655 47.138855 
L 187.475056 46.731806 
L 187.477631 46.805815 
L 187.503381 46.657797 
L 187.557457 47.175859 
L 187.578057 47.064846 
L 187.647582 46.953833 
L 187.737708 46.472775 
L 187.766033 46.842819 
L 187.99521 48.619031 
L 188.093061 47.582907 
L 188.123961 47.76793 
L 188.131686 47.878943 
L 188.160011 48.02696 
L 188.206362 47.360881 
L 188.304213 45.658678 
L 188.366013 46.620793 
L 188.530815 47.545903 
L 188.535965 47.508899 
L 188.587465 47.76793 
L 188.64669 47.43489 
L 188.778017 48.36 
L 188.958268 46.435771 
L 188.991743 46.879824 
L 188.994318 46.879824 
L 189.020069 47.286872 
L 189.097319 46.472775 
L 189.112769 46.398767 
L 189.177145 45.399648 
L 189.223495 46.361762 
L 189.329071 47.323877 
L 189.228645 46.324758 
L 189.390872 47.175859 
L 189.429497 47.138855 
L 189.450097 46.953833 
L 189.524773 47.545903 
L 189.529923 47.471894 
L 189.532498 47.545903 
L 189.612323 46.879824 
L 189.617473 46.879824 
L 189.697299 46.250749 
L 189.728199 46.879824 
L 189.782275 47.619912 
L 189.83635 46.768811 
L 189.844075 46.694802 
L 189.874976 46.324758 
L 189.934201 47.027841 
L 189.947076 47.027841 
L 190.006302 46.694802 
L 190.052652 47.10185 
L 190.078402 47.027841 
L 190.165953 46.324758 
L 190.209728 46.435771 
L 190.220028 46.546784 
L 190.36423 47.508899 
L 190.40028 47.397885 
L 190.492981 45.991718 
L 190.557356 46.731806 
L 190.601132 47.138855 
L 190.647482 46.435771 
L 190.722158 45.58467 
L 190.755633 46.472775 
L 190.866359 50.802291 
L 191.01571 87.658678 
L 191.232012 99.944141 
L 191.613115 107.75207 
L 191.623415 107.863084 
L 191.937567 110.823436 
L 191.953018 110.786432 
L 192.012243 111.304493 
L 192.014818 111.230485 
L 192.153869 112.081586 
L 192.179619 112.192599 
L 192.308371 112.78467 
L 192.310946 112.747665 
L 192.383046 113.191718 
L 192.390771 113.191718 
L 192.431972 113.265727 
L 192.565873 113.931806 
L 192.568448 113.894802 
L 192.640548 114.338855 
L 192.645698 114.264846 
L 192.758999 114.597885 
L 192.761574 114.560881 
L 192.802775 114.449868 
L 192.797625 114.63489 
L 192.869725 114.560881 
L 192.918651 114.708899 
L 192.983026 114.63489 
L 193.142677 114.745903 
L 193.250828 115.078943 
L 193.263703 115.041938 
L 193.271428 115.004934 
L 193.395029 115.337974 
L 193.562406 115.263965 
L 193.577856 115.152952 
L 193.616481 115.337974 
L 193.673132 115.263965 
L 193.686007 115.22696 
L 193.722057 115.411982 
L 193.781283 115.300969 
L 193.825058 115.189956 
L 193.899734 115.448987 
L 193.971834 115.337974 
L 193.979559 115.485991 
L 194.01046 115.448987 
L 194.116035 115.634009 
L 194.01561 115.411982 
L 194.126335 115.522996 
L 194.219036 115.597004 
L 194.332337 115.819031 
L 194.226761 115.522996 
L 194.334912 115.745022 
L 194.448213 115.89304 
L 194.368387 115.708018 
L 194.450788 115.819031 
L 194.540914 115.634009 
L 194.569239 115.708018 
L 195.061068 115.819031 
L 195.138319 115.89304 
L 195.079093 115.745022 
L 195.171794 115.819031 
L 195.274795 115.708018 
L 195.395821 115.448987 
L 195.400971 115.485991 
L 195.460196 115.411982 
L 195.537447 115.263965 
L 195.570922 115.374978 
L 195.717699 115.300969 
L 195.820699 115.189956 
L 195.805249 115.374978 
L 195.828424 115.300969 
L 195.869625 115.152952 
L 195.926275 115.337974 
L 195.936575 115.337974 
L 196.158027 115.22696 
L 196.212103 115.300969 
L 196.276478 115.115947 
L 196.325404 115.189956 
L 196.376904 115.004934 
L 196.382054 115.041938 
L 196.423254 114.96793 
L 196.415529 115.115947 
L 196.485055 115.078943 
L 196.585481 115.22696 
L 196.598356 115.152952 
L 196.675606 115.22696 
L 196.693632 115.041938 
L 196.706507 115.115947 
L 196.827533 114.930925 
L 196.855858 115.041938 
L 196.925383 114.856916 
L 196.938259 114.96793 
L 197.033534 114.782907 
L 196.945984 115.004934 
L 197.059285 114.819912 
L 197.115935 114.708899 
L 197.231811 114.523877 
L 197.126235 114.819912 
L 197.236961 114.560881 
L 197.244686 114.523877 
L 197.355412 114.708899 
L 197.419787 114.63489 
L 197.442963 114.782907 
L 197.463563 114.745903 
L 197.515063 114.63489 
L 197.538238 114.708899 
L 197.628364 114.523877 
L 197.741665 114.671894 
L 197.746815 114.63489 
L 197.813766 114.819912 
L 197.847241 114.745903 
L 197.852391 114.819912 
L 197.901316 114.671894 
L 197.952817 114.745903 
L 198.042943 114.449868 
L 198.068693 114.523877 
L 198.31847 114.486872 
L 198.38027 114.523877 
L 198.431771 114.338855 
L 198.681548 114.30185 
L 198.779399 114.079824 
L 198.794849 114.190837 
L 198.818024 114.116828 
L 198.820599 114.005815 
L 198.866949 114.338855 
L 198.92875 114.079824 
L 198.93905 114.153833 
L 199.018876 113.931806 
L 199.029176 113.968811 
L 199.054926 114.005815 
L 199.145052 113.820793 
L 199.260928 113.968811 
L 199.358778 113.70978 
L 199.384529 113.746784 
L 199.461779 113.857797 
L 199.495255 113.820793 
L 199.54933 113.746784 
L 199.55963 113.857797 
L 199.603405 113.857797 
L 199.657481 113.783789 
L 199.750182 113.635771 
L 199.665206 113.820793 
L 199.768207 113.70978 
L 199.773357 113.672775 
L 199.878933 113.746784 
L 199.987084 113.598767 
L 199.989659 113.672775 
L 200.010259 113.70978 
L 200.048884 113.561762 
L 200.092659 113.561762 
L 200.239436 113.635771 
L 200.242011 113.70978 
L 200.306386 113.487753 
L 200.347587 113.598767 
L 200.463462 113.339736 
L 200.466038 113.37674 
L 200.499513 113.302731 
L 200.566463 113.487753 
L 200.666889 113.672775 
L 200.684914 113.598767 
L 201.045417 113.70978 
L 201.127818 113.746784 
L 201.084043 113.635771 
L 201.150993 113.672775 
L 201.277169 113.302731 
L 201.284894 113.339736 
L 201.308069 113.37674 
L 201.356995 113.154714 
L 201.38017 113.191718 
L 201.496046 113.0437 
L 201.550121 112.932687 
L 201.503771 113.117709 
L 201.606772 113.0437 
L 201.650547 112.932687 
L 201.748398 112.858678 
L 201.663422 112.969692 
L 201.761273 112.932687 
L 201.841099 113.006696 
L 201.812774 112.858678 
L 201.866849 112.895683 
L 201.877149 112.858678 
L 201.9647 113.080705 
L 201.967275 113.0437 
L 201.9956 113.117709 
L 202.062551 112.895683 
L 202.070276 112.932687 
L 202.353528 112.821674 
L 202.358678 112.858678 
L 202.479704 112.599648 
L 202.714031 112.636652 
L 202.822182 112.858678 
L 202.827332 112.78467 
L 202.938058 112.895683 
L 202.858232 112.747665 
L 202.943208 112.858678 
L 203.208435 112.747665 
L 203.24706 112.710661 
L 203.22131 112.821674 
L 203.314011 112.821674 
L 203.429887 112.969692 
L 203.329461 112.78467 
L 203.432462 112.932687 
L 203.535463 113.0437 
L 203.545763 113.006696 
L 203.653914 113.154714 
L 203.728589 113.006696 
L 203.762065 113.080705 
L 203.76464 113.191718 
L 203.777515 113.006696 
L 203.870215 113.0437 
L 204.127718 112.969692 
L 204.143168 112.895683 
L 204.215268 113.154714 
L 204.230718 113.154714 
L 204.295094 113.080705 
L 204.349169 112.895683 
L 204.40582 113.0437 
L 204.501096 112.858678 
L 204.42127 113.080705 
L 204.521696 112.895683 
L 204.575771 113.080705 
L 204.634997 112.969692 
L 204.807523 112.895683 
L 204.866749 112.969692 
L 204.920824 112.821674 
L 204.969749 113.006696 
L 205.034125 112.932687 
L 205.0367 112.858678 
L 205.129401 113.080705 
L 205.142276 113.006696 
L 205.247852 112.895683 
L 205.214376 113.080705 
L 205.250427 113.006696 
L 205.281327 112.969692 
L 205.366303 113.154714 
L 205.474454 113.0437 
L 205.386903 113.191718 
L 205.479604 113.080705 
L 205.598055 113.302731 
L 205.60063 113.265727 
L 205.703631 113.0437 
L 205.62123 113.339736 
L 205.719081 113.154714 
L 205.904482 113.117709 
L 205.948258 112.932687 
L 205.981733 113.154714 
L 206.015208 113.0437 
L 206.594588 113.006696 
L 206.710464 112.673656 
L 206.715614 112.747665 
L 206.787714 112.525639 
L 206.818615 112.710661 
L 206.937066 112.488634 
L 206.942216 112.45163 
L 207.050367 112.599648 
L 207.060667 112.525639 
L 207.076117 112.673656 
L 207.161092 112.599648 
L 207.243493 112.45163 
L 207.276968 112.488634 
L 207.294994 112.377621 
L 207.387694 112.525639 
L 207.397994 112.377621 
L 207.439195 112.562643 
L 207.50357 112.45163 
L 207.506145 112.488634 
L 207.596271 112.266608 
L 207.606571 112.340617 
L 207.650346 112.229604 
L 207.743047 112.081586 
L 207.766222 112.11859 
L 207.879523 112.266608 
L 207.882098 112.229604 
L 207.884673 112.155595 
L 207.977374 112.45163 
L 207.985099 112.414626 
L 208.180801 112.340617 
L 208.281227 112.11859 
L 208.296677 112.192599 
L 208.350752 112.081586 
L 208.312127 112.229604 
L 208.412553 112.11859 
L 208.695805 112.192599 
L 208.798806 112.377621 
L 208.811681 112.340617 
L 208.914682 112.229604 
L 208.819406 112.377621 
L 208.924982 112.266608 
L 208.971332 112.377621 
L 208.997083 112.192599 
L 209.033133 112.266608 
L 209.138709 112.11859 
L 209.043433 112.303612 
L 209.149009 112.155595 
L 209.231409 112.266608 
L 209.195359 112.11859 
L 209.26231 112.229604 
L 209.28291 112.155595 
L 209.31896 112.303612 
L 209.367886 112.266608 
L 209.437411 112.377621 
L 209.463161 112.229604 
L 209.478612 112.266608 
L 209.676888 112.192599 
L 209.785039 112.044581 
L 209.682038 112.229604 
L 209.790189 112.11859 
L 209.90864 111.896564 
L 209.911215 111.970573 
L 209.988466 111.896564 
L 210.099192 111.711542 
L 210.101767 111.822555 
L 210.106917 111.748546 
L 210.184167 111.970573 
L 210.202192 111.970573 
L 210.413344 112.081586 
L 210.49317 112.192599 
L 210.431369 111.970573 
L 210.52407 112.11859 
L 210.601321 111.933568 
L 210.637371 111.970573 
L 210.742947 111.859559 
L 210.822773 111.785551 
L 210.755822 111.933568 
L 210.856248 111.822555 
L 210.902598 111.896564 
L 210.918048 111.711542 
L 210.964399 111.785551 
L 211.242501 111.748546 
L 211.301726 111.637533 
L 211.342927 111.822555 
L 211.350652 111.822555 
L 211.448503 111.859559 
L 211.358377 111.748546 
L 211.461378 111.822555 
L 211.639054 111.711542 
L 211.644204 111.748546 
L 211.75493 111.600529 
L 211.827031 111.711542 
L 211.868231 111.674537 
L 211.899131 111.600529 
L 211.978957 111.415507 
L 212.012432 111.52652 
L 212.033032 111.600529 
L 212.045908 111.563524 
L 212.146333 111.785551 
L 212.205559 111.859559 
L 212.257059 111.674537 
L 212.267359 111.748546 
L 212.29826 111.600529 
L 212.36521 111.637533 
L 212.602112 111.748546 
L 212.620137 111.785551 
L 212.630437 111.674537 
L 212.707688 111.711542 
L 212.715413 111.674537 
L 212.754038 111.859559 
L 212.808114 111.748546 
L 212.810689 111.859559 
L 212.849314 111.674537 
L 212.91884 111.748546 
L 212.92399 111.859559 
L 213.00639 111.52652 
L 213.016691 111.563524 
L 213.024416 111.452511 
L 213.060466 111.637533 
L 213.124841 111.637533 
L 213.253592 111.52652 
L 213.299943 111.489515 
L 213.266468 111.600529 
L 213.356593 111.600529 
L 213.359168 111.637533 
L 213.433844 111.415507 
L 213.454444 111.415507 
L 213.943698 111.52652 
L 213.979748 111.637533 
L 213.951423 111.489515 
L 214.054424 111.563524 
L 214.100774 111.637533 
L 214.17545 111.378502 
L 214.281026 111.489515 
L 214.265576 111.341498 
L 214.286176 111.378502 
L 214.306776 111.489515 
L 214.412352 111.563524 
L 214.311926 111.415507 
L 214.417502 111.489515 
L 214.762555 111.563524 
L 214.862981 111.711542 
L 214.875856 111.674537 
L 215.102458 111.563524 
L 215.213184 111.304493 
L 215.226059 111.378502 
L 215.274984 111.304493 
L 215.277559 111.230485 
L 215.282709 111.341498 
L 215.38571 111.304493 
L 215.684412 111.378502 
L 215.792563 111.52652 
L 215.692138 111.341498 
L 215.797713 111.452511 
L 215.900714 111.304493 
L 215.805438 111.489515 
L 215.916164 111.341498 
L 215.93934 111.230485 
L 216.00114 111.119471 
L 216.03719 111.304493 
L 216.044915 111.267489 
L 216.050065 111.378502 
L 216.086116 111.230485 
L 216.155641 111.304493 
L 216.158216 111.230485 
L 216.186542 111.415507 
L 216.261217 111.378502 
L 216.276667 111.341498 
L 216.379668 111.563524 
L 216.454344 111.378502 
L 216.402843 111.600529 
L 216.490394 111.489515 
L 216.60627 111.637533 
L 216.608845 111.600529 
L 216.727296 111.341498 
L 216.61657 111.674537 
L 216.735021 111.378502 
L 216.889522 111.304493 
L 217.000248 111.19348 
L 216.938448 111.378502 
L 217.002823 111.230485 
L 217.005398 111.267489 
L 217.020848 111.119471 
L 217.103249 111.119471 
L 217.108399 111.045463 
L 217.16505 111.230485 
L 217.2114 111.156476 
L 217.337576 111.230485 
L 217.453452 111.378502 
L 217.561603 111.267489 
L 217.566753 111.341498 
L 217.808805 111.267489 
L 217.922106 111.082467 
L 217.82683 111.304493 
L 217.924681 111.119471 
L 217.942706 111.082467 
L 218.009657 111.304493 
L 218.027682 111.230485 
L 218.053432 111.341498 
L 218.115232 111.156476 
L 218.143558 111.304493 
L 218.243983 111.415507 
L 218.251709 111.341498 
L 218.359859 111.489515 
L 218.43196 111.52652 
L 218.545261 111.637533 
L 218.583886 111.415507 
L 218.658562 111.452511 
L 218.769288 111.674537 
L 218.774438 111.600529 
L 218.856838 111.563524 
L 218.815638 111.711542 
L 218.877439 111.674537 
L 218.99074 111.822555 
L 218.939239 111.637533 
L 218.993315 111.748546 
L 219.091165 111.600529 
L 219.02164 111.896564 
L 219.111766 111.637533 
L 219.196741 111.52652 
L 219.219916 111.452511 
L 219.286867 111.674537 
L 219.297167 111.674537 
L 219.320342 111.711542 
L 219.335792 111.563524 
L 219.402743 111.637533 
L 219.500594 111.452511 
L 219.413043 111.674537 
L 219.521194 111.52652 
L 219.66282 111.452511 
L 219.776121 111.267489 
L 219.778696 111.304493 
L 220.002723 111.415507 
L 220.069673 111.52652 
L 220.010448 111.378502 
L 220.116024 111.452511 
L 220.22675 111.19348 
L 220.239625 111.230485 
L 220.244775 111.19348 
L 220.352926 111.341498 
L 220.409576 111.267489 
L 220.388976 111.415507 
L 220.458502 111.378502 
L 220.461077 111.415507 
L 220.507427 111.230485 
L 220.558927 111.230485 
L 220.623303 111.119471 
L 220.692829 110.971454 
L 220.633603 111.156476 
L 220.739179 111.008458 
L 220.800979 111.119471 
L 220.84218 110.971454 
L 220.849905 111.045463 
L 220.955481 110.897445 
L 220.88853 111.119471 
L 220.963206 110.971454 
L 221.025006 111.082467 
L 221.068782 110.897445 
L 221.073932 110.971454 
L 221.146032 110.860441 
L 221.189808 111.045463 
L 221.197533 110.934449 
L 221.228433 111.082467 
L 221.300534 111.045463 
L 221.406109 111.156476 
L 221.411259 111.082467 
L 221.552886 111.008458 
L 221.632711 110.860441 
L 221.558036 111.045463 
L 221.666187 110.934449 
L 221.691937 111.045463 
L 221.676487 110.897445 
L 221.776912 110.934449 
L 221.885063 111.008458 
L 221.962314 111.156476 
L 221.892788 110.971454 
L 221.995789 111.082467 
L 222.10394 110.934449 
L 222.049865 111.156476 
L 222.111665 111.008458 
L 222.155441 111.082467 
L 222.240416 111.156476 
L 222.245566 111.008458 
L 222.263591 111.045463 
L 222.469593 110.934449 
L 222.531394 110.823436 
L 222.515944 110.971454 
L 222.582894 110.897445 
L 222.69877 111.082467 
L 222.608644 110.860441 
L 222.701345 111.008458 
L 223.265275 110.934449 
L 223.376001 110.749427 
L 223.29875 110.971454 
L 223.378576 110.860441 
L 223.437801 110.823436 
L 223.396601 110.934449 
L 223.484151 110.934449 
L 223.515052 110.860441 
L 223.538227 110.934449 
L 223.628353 110.712423 
L 223.664403 110.823436 
L 223.728778 110.638414 
L 223.736504 110.638414 
L 223.749379 110.749427 
L 223.85238 110.712423 
L 223.90903 110.60141 
L 223.963105 110.675419 
L 224.066106 110.712423 
L 224.097007 110.823436 
L 224.166532 110.638414 
L 224.176832 110.712423 
L 224.187132 110.564405 
L 224.266958 110.823436 
L 224.279833 110.786432 
L 224.305583 110.897445 
L 224.364809 110.675419 
L 224.385409 110.786432 
L 224.48326 110.638414 
L 224.49871 110.712423 
L 224.57081 110.638414 
L 224.578535 110.527401 
L 224.637761 110.749427 
L 224.678961 110.638414 
L 224.707287 110.712423 
L 224.766512 110.416388 
L 224.781962 110.527401 
L 224.799987 110.453392 
L 224.841188 110.638414 
L 224.890113 110.564405 
L 224.913288 110.490396 
L 224.939038 110.379383 
L 225.021439 110.564405 
L 225.206841 110.453392 
L 225.317567 110.342379 
L 225.219716 110.490396 
L 225.322717 110.379383 
L 225.371642 110.305374 
L 225.387092 110.231366 
L 225.464343 110.416388 
L 225.479793 110.379383 
L 225.523568 110.453392 
L 225.636869 110.749427 
L 225.642019 110.675419 
L 225.667769 110.749427 
L 225.71412 110.564405 
L 225.752745 110.675419 
L 225.871196 110.749427 
L 225.886646 110.823436 
L 225.925272 110.564405 
L 225.976772 110.712423 
L 225.984497 110.638414 
L 226.005097 110.823436 
L 226.084923 110.749427 
L 226.213674 110.675419 
L 226.321825 110.564405 
L 226.270324 110.712423 
L 226.3244 110.675419 
L 226.383625 110.527401 
L 226.32955 110.712423 
L 226.437701 110.564405 
L 226.504651 110.675419 
L 226.548427 110.638414 
L 226.602502 110.564405 
L 226.623102 110.712423 
L 226.659153 110.638414 
L 226.749278 110.823436 
L 226.775029 110.786432 
L 226.813654 110.897445 
L 226.870304 110.675419 
L 226.885754 110.823436 
L 226.968155 110.712423 
L 226.937255 110.860441 
L 226.99648 110.786432 
L 227.004205 110.860441 
L 227.050556 110.675419 
L 227.102056 110.712423 
L 227.215357 110.60141 
L 227.331233 110.342379 
L 227.333808 110.379383 
L 227.364708 110.342379 
L 227.390459 110.527401 
L 227.434234 110.527401 
L 227.478009 110.60141 
L 227.55011 110.749427 
L 227.588735 110.675419 
L 227.59131 110.60141 
L 227.668561 110.860441 
L 227.694311 110.786432 
L 227.748387 110.934449 
L 227.807612 110.860441 
L 228.021339 110.749427 
L 228.126915 110.675419 
L 228.026489 110.786432 
L 228.12949 110.712423 
L 228.204165 110.823436 
L 228.15524 110.675419 
L 228.240216 110.786432 
L 228.302016 110.564405 
L 228.353516 110.749427 
L 228.448792 110.897445 
L 228.469392 110.823436 
L 228.495143 110.749427 
L 228.482268 110.860441 
L 228.582693 110.786432 
L 228.587843 110.860441 
L 228.631619 110.712423 
L 228.690844 110.749427 
L 228.762945 110.675419 
L 228.701144 110.860441 
L 228.80157 110.749427 
L 228.963796 110.823436 
L 228.994697 110.971454 
L 229.059072 110.638414 
L 229.069372 110.675419 
L 229.151773 110.564405 
L 229.141473 110.749427 
L 229.177523 110.712423 
L 229.628152 110.638414 
L 229.751753 110.120352 
L 229.754328 110.157357 
L 229.800678 110.26837 
L 229.829004 110.046344 
L 229.857329 110.120352 
L 229.890804 110.046344 
L 229.962905 110.194361 
L 230.065906 110.342379 
L 229.98608 110.157357 
L 230.076206 110.231366 
L 230.163756 110.305374 
L 230.171481 110.416388 
L 230.202382 110.231366 
L 230.274482 110.342379 
L 230.297657 110.26837 
L 230.372333 110.527401 
L 230.426408 110.453392 
L 230.544859 110.231366 
L 230.58091 110.379383 
L 230.55516 110.194361 
L 230.655585 110.231366 
L 230.748286 110.157357 
L 230.676186 110.305374 
L 230.766311 110.231366 
L 231.088189 110.342379 
L 231.129389 110.416388 
L 231.17059 110.26837 
L 231.19634 110.305374 
L 231.224665 110.26837 
L 231.335391 110.046344 
L 231.27359 110.305374 
L 231.337966 110.083348 
L 231.453842 110.194361 
L 231.466717 110.120352 
L 231.574868 110.342379 
L 231.670144 110.231366 
L 231.788595 110.083348 
L 231.84267 110.26837 
L 231.901896 110.157357 
L 231.904471 110.194361 
L 231.945671 110.009339 
L 232.002321 110.046344 
L 232.004896 110.009339 
L 232.030647 110.120352 
L 232.107897 110.083348 
L 232.141373 110.194361 
L 232.177423 110.046344 
L 232.216048 110.083348 
L 232.231498 110.009339 
L 232.272699 110.194361 
L 232.321624 110.157357 
L 232.352524 110.046344 
L 232.465825 109.898326 
L 232.362824 110.083348 
L 232.470975 109.93533 
L 232.522476 110.046344 
L 232.489 109.898326 
L 232.586851 110.009339 
L 232.790278 110.083348 
L 232.908729 110.342379 
L 232.934479 110.379383 
L 233.03233 110.157357 
L 233.09413 110.231366 
L 233.145631 110.342379 
L 233.112156 110.157357 
L 233.202281 110.26837 
L 233.264082 110.120352 
L 233.307857 110.305374 
L 233.313007 110.231366 
L 233.325882 110.342379 
L 233.343907 110.194361 
L 233.421158 110.194361 
L 233.794536 110.305374 
L 233.864062 110.453392 
L 233.907837 110.379383 
L 233.979938 110.26837 
L 234.000538 110.416388 
L 234.015988 110.379383 
L 234.070063 110.416388 
L 234.116414 110.231366 
L 234.121564 110.305374 
L 234.23229 110.046344 
L 234.240015 110.083348 
L 234.301815 110.231366 
L 234.27864 110.046344 
L 234.353316 110.194361 
L 234.389366 110.083348 
L 234.458892 110.26837 
L 234.461467 110.231366 
L 234.559317 110.453392 
L 234.582493 110.379383 
L 234.613393 110.305374 
L 234.659743 110.453392 
L 234.693219 110.342379 
L 234.744719 110.416388 
L 234.783344 110.231366 
L 234.793644 110.231366 
L 234.906945 110.083348 
L 234.948146 110.231366 
L 234.912095 110.046344 
L 235.015096 110.046344 
L 235.097497 109.93533 
L 235.125822 110.046344 
L 235.179898 109.93533 
L 235.208223 110.083348 
L 235.236548 110.046344 
L 235.331824 110.194361 
L 235.251998 110.009339 
L 235.349849 110.120352 
L 235.357574 110.009339 
L 235.406499 110.231366 
L 235.455425 110.157357 
L 235.553276 110.231366 
L 235.4683 110.083348 
L 235.568726 110.194361 
L 235.625376 110.009339 
L 235.684602 110.083348 
L 235.787603 110.194361 
L 235.800478 110.157357 
L 235.815928 109.972335 
L 235.903478 110.194361 
L 235.908628 110.194361 
L 236.070855 110.120352 
L 236.07343 110.046344 
L 236.11463 110.231366 
L 236.179006 110.157357 
L 236.243381 110.083348 
L 236.297457 110.305374 
L 236.395307 110.231366 
L 236.315482 110.342379 
L 236.408183 110.305374 
L 236.583284 110.194361 
L 236.621909 110.157357 
L 236.64251 110.305374 
L 236.68886 110.231366 
L 236.776411 110.379383 
L 236.712035 110.194361 
L 236.797011 110.305374 
L 236.889712 110.083348 
L 236.910312 110.194361 
L 236.997862 110.009339 
L 237.026188 110.046344 
L 237.116313 110.157357 
L 237.087988 109.972335 
L 237.136914 110.083348 
L 237.407291 110.009339 
L 237.518017 109.861322 
L 237.520592 109.898326 
L 237.530892 109.93533 
L 237.610717 109.6763 
L 237.621018 109.750308 
L 237.734318 109.565286 
L 237.834744 109.713304 
L 237.793544 109.528282 
L 237.847619 109.6763 
L 237.917145 109.602291 
L 237.953195 109.750308 
L 237.95577 109.6763 
L 238.012421 109.898326 
L 238.069071 109.787313 
L 238.074221 109.824317 
L 238.187522 109.6763 
L 238.202972 109.713304 
L 238.262198 109.861322 
L 238.208122 109.6763 
L 238.313698 109.713304 
L 238.352324 109.787313 
L 238.370349 109.898326 
L 238.390949 109.6763 
L 238.463049 109.787313 
L 238.486225 109.861322 
L 238.4888 109.93533 
L 238.589226 109.713304 
L 238.591801 109.713304 
L 238.702526 109.824317 
L 238.617551 109.639295 
L 238.707676 109.787313 
L 238.857028 109.713304 
L 238.859603 109.639295 
L 238.952303 109.824317 
L 238.962604 109.824317 
L 239.016679 109.898326 
L 239.12483 110.009339 
L 239.050154 109.861322 
L 239.127405 109.93533 
L 239.251006 109.6763 
L 239.132555 109.972335 
L 239.253581 109.713304 
L 239.305081 109.787313 
L 239.310231 109.602291 
L 239.359157 109.713304 
L 239.467308 109.565286 
L 239.469883 109.639295 
L 239.639834 109.528282 
L 239.686185 109.380264 
L 239.652709 109.565286 
L 239.75056 109.491278 
L 239.763435 109.528282 
L 239.820086 109.269251 
L 239.848411 109.306256 
L 239.917936 109.232247 
L 239.920511 109.158238 
L 239.966862 109.306256 
L 240.028662 109.195242 
L 240.144538 109.380264 
L 240.257839 109.121233 
L 240.268139 109.195242 
L 240.368565 109.306256 
L 240.30419 109.121233 
L 240.384015 109.269251 
L 240.39689 109.232247 
L 240.458691 109.417269 
L 240.489591 109.306256 
L 240.615767 109.6763 
L 240.618342 109.565286 
L 240.891294 109.491278 
L 240.994295 109.380264 
L 240.953095 109.565286 
L 241.00202 109.454273 
L 241.045796 109.565286 
L 241.112746 109.713304 
L 241.050946 109.528282 
L 241.161672 109.639295 
L 241.251797 109.528282 
L 241.236347 109.713304 
L 241.274973 109.602291 
L 241.336773 109.787313 
L 241.292998 109.565286 
L 241.388273 109.6763 
L 241.532475 109.750308 
L 241.53505 109.824317 
L 241.6329 109.565286 
L 241.640626 109.6763 
L 241.728176 109.565286 
L 241.648351 109.713304 
L 241.753926 109.602291 
L 241.820877 109.750308 
L 241.828602 109.565286 
L 241.864652 109.639295 
L 241.877528 109.6763 
L 241.985678 109.454273 
L 242.093829 109.565286 
L 242.026879 109.380264 
L 242.098979 109.528282 
L 242.14018 109.417269 
L 242.111854 109.639295 
L 242.204555 109.602291 
L 242.274081 109.6763 
L 242.359056 109.787313 
L 242.299831 109.639295 
L 242.384807 109.713304 
L 242.426007 109.6763 
L 242.454332 109.824317 
L 242.485232 109.824317 
L 242.516133 109.898326 
L 242.575358 109.713304 
L 242.598533 109.861322 
L 242.724709 109.380264 
L 242.80711 109.454273 
L 242.799385 109.34326 
L 242.83286 109.417269 
L 242.835435 109.34326 
L 242.912686 109.602291 
L 242.938436 109.528282 
L 243.092937 109.528282 
L 243.201088 109.380264 
L 243.203663 109.417269 
L 243.229414 109.454273 
L 243.288639 109.306256 
L 243.306664 109.34326 
L 243.435415 109.047225 
L 243.512666 109.158238 
L 243.466316 109.01022 
L 243.546141 109.047225 
L 243.901494 109.158238 
L 243.99162 109.306256 
L 243.932394 109.121233 
L 244.014795 109.195242 
L 244.138396 109.269251 
L 244.254272 109.417269 
L 244.290322 109.269251 
L 244.352123 109.491278 
L 244.359848 109.454273 
L 244.383023 109.528282 
L 244.460274 109.306256 
L 244.462849 109.34326 
L 244.56585 109.306256 
L 244.478299 109.380264 
L 244.571 109.34326 
L 244.6431 109.417269 
L 244.599325 109.269251 
L 244.679151 109.34326 
L 244.717776 109.269251 
L 244.764126 109.454273 
L 244.789876 109.34326 
L 244.898027 109.454273 
L 244.990728 109.528282 
L 244.905752 109.417269 
L 245.011328 109.491278 
L 245.080854 109.380264 
L 245.086004 109.454273 
L 245.204455 109.195242 
L 245.214755 109.121233 
L 245.320331 109.380264 
L 245.431057 109.158238 
L 245.433632 109.195242 
L 245.570108 109.306256 
L 245.644783 109.454273 
L 245.685984 109.380264 
L 245.997561 109.269251 
L 246.069662 109.158238 
L 246.092837 109.306256 
L 246.108287 109.232247 
L 246.211288 109.34326 
L 246.121162 109.121233 
L 246.224163 109.306256 
L 246.226738 109.269251 
L 246.270514 109.454273 
L 246.332314 109.34326 
L 246.373514 109.232247 
L 246.376089 109.195242 
L 246.466215 109.417269 
L 246.47394 109.34326 
L 246.546041 109.380264 
L 246.507416 109.232247 
L 246.579516 109.269251 
L 246.664492 109.121233 
L 246.695392 109.195242 
L 246.849893 109.121233 
L 246.914269 108.973216 
L 246.942594 109.232247 
L 246.955469 109.158238 
L 247.04302 109.306256 
L 247.06877 109.232247 
L 247.08422 109.269251 
L 247.187221 108.973216 
L 247.297947 109.084229 
L 247.413823 108.862203 
L 247.436998 108.936211 
L 247.462748 108.751189 
L 247.524549 108.899207 
L 247.527124 108.825198 
L 247.583774 108.973216 
L 247.635275 108.899207 
L 247.727976 109.01022 
L 247.825826 109.047225 
L 247.766601 108.862203 
L 247.833551 108.936211 
L 247.854152 108.899207 
L 247.887627 109.084229 
L 247.939127 109.01022 
L 247.964877 109.158238 
L 248.018953 108.862203 
L 248.047278 108.899207 
L 248.127104 108.936211 
L 248.230105 109.047225 
L 248.176029 108.899207 
L 248.23783 109.01022 
L 248.25843 109.01022 
L 248.361431 109.195242 
L 248.369156 109.121233 
L 248.425806 109.01022 
L 248.374306 109.158238 
L 248.477307 109.084229 
L 248.503057 109.047225 
L 248.588033 109.195242 
L 248.636958 109.047225 
L 248.662708 109.232247 
L 248.696183 109.158238 
L 248.786309 109.34326 
L 248.809484 109.306256 
L 248.92021 109.158238 
L 248.92536 109.232247 
L 248.987161 109.306256 
L 249.000036 109.232247 
L 249.100462 109.380264 
L 249.206038 109.232247 
L 249.121062 109.417269 
L 249.218913 109.269251 
L 249.556241 109.195242 
L 249.633491 108.899207 
L 249.672116 109.01022 
L 250.14592 108.936211 
L 250.148495 108.862203 
L 250.179396 109.01022 
L 250.256646 108.936211 
L 250.400847 108.936211 
L 250.416298 108.788194 
L 250.511573 108.899207 
L 250.563074 109.01022 
L 250.666075 109.084229 
L 250.568224 108.936211 
L 250.6738 109.01022 
L 250.722725 109.121233 
L 250.733025 109.158238 
L 250.799976 108.936211 
L 250.823151 109.01022 
L 250.921002 108.899207 
L 250.830876 109.084229 
L 250.936452 108.973216 
L 251.021428 109.01022 
L 250.951902 108.899207 
L 251.042028 108.936211 
L 251.127003 108.973216 
L 251.160479 108.825198 
L 251.255754 108.899207 
L 251.209404 108.714185 
L 251.26863 108.862203 
L 251.322705 108.751189 
L 251.296955 108.899207 
L 251.37678 108.899207 
L 251.436006 108.862203 
L 251.472056 108.714185 
L 251.508107 108.899207 
L 251.544157 108.788194 
L 251.562182 108.899207 
L 251.605957 108.714185 
L 251.654883 108.862203 
L 251.683208 108.714185 
L 251.747584 108.899207 
L 251.763034 108.862203 
L 251.837709 108.899207 
L 251.786209 108.788194 
L 251.871185 108.862203 
L 251.88406 108.973216 
L 251.98191 108.788194 
L 251.984485 108.899207 
L 251.997361 108.751189 
L 252.092636 108.862203 
L 252.159587 108.751189 
L 252.272888 108.566167 
L 252.280613 108.603172 
L 252.332113 108.566167 
L 252.437689 108.41815 
L 252.442839 108.492159 
L 252.481465 108.603172 
L 252.57159 108.677181 
L 252.486615 108.529163 
L 252.59219 108.603172 
L 252.769867 108.714185 
L 252.826517 108.751189 
L 252.857418 108.603172 
L 252.872868 108.677181 
L 252.944968 108.714185 
L 252.983594 108.566167 
L 252.986169 108.640176 
L 253.035094 108.492159 
L 253.091745 108.529163 
L 253.210196 108.41815 
L 253.320921 108.640176 
L 253.259121 108.381145 
L 253.323496 108.566167 
L 253.441947 108.714185 
L 253.459973 108.603172 
L 253.532073 108.825198 
L 253.552673 108.677181 
L 253.578424 108.640176 
L 253.668549 108.862203 
L 253.69945 108.751189 
L 253.712325 108.899207 
L 253.78185 108.788194 
L 253.794725 108.714185 
L 253.877126 108.973216 
L 253.884851 108.899207 
L 254.090853 108.825198 
L 254.193854 108.714185 
L 254.201579 108.825198 
L 254.255654 108.714185 
L 254.278829 108.936211 
L 254.312305 108.825198 
L 254.317455 108.899207 
L 254.36123 108.751189 
L 254.41788 108.751189 
L 254.528606 108.640176 
L 254.533756 108.677181 
L 254.721733 108.603172 
L 254.721733 108.603172 
" clip-path="url(#pb8f7c6789b)" style="fill: none; stroke: #000000; stroke-opacity: 0.5; stroke-width: 1.5; stroke-linecap: square"/>
   </g>
   <g id="patch_3">
    <path d="M 41.667188 173.52 
L 41.667188 7.2 
" style="fill: none; stroke: #000000; stroke-width: 0.8; stroke-linejoin: miter; stroke-linecap: square"/>
   </g>
   <g id="patch_4">
    <path d="M 41.667188 173.52 
L 264.867187 173.52 
" style="fill: none; stroke: #000000; stroke-width: 0.8; stroke-linejoin: miter; stroke-linecap: square"/>
   </g>
  </g>
 </g>
 <defs>
  <clipPath id="pb8f7c6789b">
   <rect x="41.667188" y="7.2" width="223.2" height="166.32"/>
  </clipPath>
 </defs>
</svg>
