<?xml version="1.0" encoding="utf-8" standalone="no"?>
<!DOCTYPE svg PUBLIC "-//W3C//DTD SVG 1.1//EN"
  "http://www.w3.org/Graphics/SVG/1.1/DTD/svg11.dtd">
<svg height="345.6pt" version="1.1" viewBox="0 0 460.8 345.6" width="460.8pt" xmlns="http://www.w3.org/2000/svg" xmlns:xlink="http://www.w3.org/1999/xlink">
 <metadata>
  <rdf:RDF xmlns:cc="http://creativecommons.org/ns#" xmlns:dc="http://purl.org/dc/elements/1.1/" xmlns:rdf="http://www.w3.org/1999/02/22-rdf-syntax-ns#">
   <cc:Work>
    <dc:type rdf:resource="http://purl.org/dc/dcmitype/StillImage"/>
    <dc:date>2024-08-06T14:40:57.627424</dc:date>
    <dc:format>image/svg+xml</dc:format>
    <dc:creator>
     <cc:Agent>
      <dc:title>Matplotlib v3.4.2, https://matplotlib.org/</dc:title>
     </cc:Agent>
    </dc:creator>
   </cc:Work>
  </rdf:RDF>
 </metadata>
 <defs>
  <style type="text/css">*{stroke-linecap:butt;stroke-linejoin:round;}</style>
 </defs>
 <g id="figure_1">
  <g id="patch_1">
   <path d="M 0 345.6 
L 460.8 345.6 
L 460.8 0 
L 0 0 
z
" style="fill:#ffffff;"/>
  </g>
  <g id="axes_1">
   <g id="patch_2">
    <path d="M 57.6 307.584 
L 414.72 307.584 
L 414.72 41.472 
L 57.6 41.472 
z
" style="fill:#ffffff;"/>
   </g>
   <g id="matplotlib.axis_1">
    <g id="xtick_1">
     <g id="line2d_1">
      <defs>
       <path d="M 0 0 
L 0 3.5 
" id="m6663df301b" style="stroke:#000000;stroke-width:0.8;"/>
      </defs>
      <g>
       <use style="stroke:#000000;stroke-width:0.8;" x="95.211629" xlink:href="#m6663df301b" y="307.584"/>
      </g>
     </g>
     <g id="text_1">
      <!-- 0.2 -->
      <g transform="translate(87.260067 322.182437)scale(0.1 -0.1)">
       <defs>
        <path d="M 2034 4250 
Q 1547 4250 1301 3770 
Q 1056 3291 1056 2328 
Q 1056 1369 1301 889 
Q 1547 409 2034 409 
Q 2525 409 2770 889 
Q 3016 1369 3016 2328 
Q 3016 3291 2770 3770 
Q 2525 4250 2034 4250 
z
M 2034 4750 
Q 2819 4750 3233 4129 
Q 3647 3509 3647 2328 
Q 3647 1150 3233 529 
Q 2819 -91 2034 -91 
Q 1250 -91 836 529 
Q 422 1150 422 2328 
Q 422 3509 836 4129 
Q 1250 4750 2034 4750 
z
" id="DejaVuSans-30" transform="scale(0.015625)"/>
        <path d="M 684 794 
L 1344 794 
L 1344 0 
L 684 0 
L 684 794 
z
" id="DejaVuSans-2e" transform="scale(0.015625)"/>
        <path d="M 1228 531 
L 3431 531 
L 3431 0 
L 469 0 
L 469 531 
Q 828 903 1448 1529 
Q 2069 2156 2228 2338 
Q 2531 2678 2651 2914 
Q 2772 3150 2772 3378 
Q 2772 3750 2511 3984 
Q 2250 4219 1831 4219 
Q 1534 4219 1204 4116 
Q 875 4013 500 3803 
L 500 4441 
Q 881 4594 1212 4672 
Q 1544 4750 1819 4750 
Q 2544 4750 2975 4387 
Q 3406 4025 3406 3419 
Q 3406 3131 3298 2873 
Q 3191 2616 2906 2266 
Q 2828 2175 2409 1742 
Q 1991 1309 1228 531 
z
" id="DejaVuSans-32" transform="scale(0.015625)"/>
       </defs>
       <use xlink:href="#DejaVuSans-30"/>
       <use x="63.623047" xlink:href="#DejaVuSans-2e"/>
       <use x="95.410156" xlink:href="#DejaVuSans-32"/>
      </g>
     </g>
    </g>
    <g id="xtick_2">
     <g id="line2d_2">
      <g>
       <use style="stroke:#000000;stroke-width:0.8;" x="139.20545" xlink:href="#m6663df301b" y="307.584"/>
      </g>
     </g>
     <g id="text_2">
      <!-- 0.4 -->
      <g transform="translate(131.253887 322.182437)scale(0.1 -0.1)">
       <defs>
        <path d="M 2419 4116 
L 825 1625 
L 2419 1625 
L 2419 4116 
z
M 2253 4666 
L 3047 4666 
L 3047 1625 
L 3713 1625 
L 3713 1100 
L 3047 1100 
L 3047 0 
L 2419 0 
L 2419 1100 
L 313 1100 
L 313 1709 
L 2253 4666 
z
" id="DejaVuSans-34" transform="scale(0.015625)"/>
       </defs>
       <use xlink:href="#DejaVuSans-30"/>
       <use x="63.623047" xlink:href="#DejaVuSans-2e"/>
       <use x="95.410156" xlink:href="#DejaVuSans-34"/>
      </g>
     </g>
    </g>
    <g id="xtick_3">
     <g id="line2d_3">
      <g>
       <use style="stroke:#000000;stroke-width:0.8;" x="183.19927" xlink:href="#m6663df301b" y="307.584"/>
      </g>
     </g>
     <g id="text_3">
      <!-- 0.6 -->
      <g transform="translate(175.247707 322.182437)scale(0.1 -0.1)">
       <defs>
        <path d="M 2113 2584 
Q 1688 2584 1439 2293 
Q 1191 2003 1191 1497 
Q 1191 994 1439 701 
Q 1688 409 2113 409 
Q 2538 409 2786 701 
Q 3034 994 3034 1497 
Q 3034 2003 2786 2293 
Q 2538 2584 2113 2584 
z
M 3366 4563 
L 3366 3988 
Q 3128 4100 2886 4159 
Q 2644 4219 2406 4219 
Q 1781 4219 1451 3797 
Q 1122 3375 1075 2522 
Q 1259 2794 1537 2939 
Q 1816 3084 2150 3084 
Q 2853 3084 3261 2657 
Q 3669 2231 3669 1497 
Q 3669 778 3244 343 
Q 2819 -91 2113 -91 
Q 1303 -91 875 529 
Q 447 1150 447 2328 
Q 447 3434 972 4092 
Q 1497 4750 2381 4750 
Q 2619 4750 2861 4703 
Q 3103 4656 3366 4563 
z
" id="DejaVuSans-36" transform="scale(0.015625)"/>
       </defs>
       <use xlink:href="#DejaVuSans-30"/>
       <use x="63.623047" xlink:href="#DejaVuSans-2e"/>
       <use x="95.410156" xlink:href="#DejaVuSans-36"/>
      </g>
     </g>
    </g>
    <g id="xtick_4">
     <g id="line2d_4">
      <g>
       <use style="stroke:#000000;stroke-width:0.8;" x="227.19309" xlink:href="#m6663df301b" y="307.584"/>
      </g>
     </g>
     <g id="text_4">
      <!-- 0.8 -->
      <g transform="translate(219.241528 322.182437)scale(0.1 -0.1)">
       <defs>
        <path d="M 2034 2216 
Q 1584 2216 1326 1975 
Q 1069 1734 1069 1313 
Q 1069 891 1326 650 
Q 1584 409 2034 409 
Q 2484 409 2743 651 
Q 3003 894 3003 1313 
Q 3003 1734 2745 1975 
Q 2488 2216 2034 2216 
z
M 1403 2484 
Q 997 2584 770 2862 
Q 544 3141 544 3541 
Q 544 4100 942 4425 
Q 1341 4750 2034 4750 
Q 2731 4750 3128 4425 
Q 3525 4100 3525 3541 
Q 3525 3141 3298 2862 
Q 3072 2584 2669 2484 
Q 3125 2378 3379 2068 
Q 3634 1759 3634 1313 
Q 3634 634 3220 271 
Q 2806 -91 2034 -91 
Q 1263 -91 848 271 
Q 434 634 434 1313 
Q 434 1759 690 2068 
Q 947 2378 1403 2484 
z
M 1172 3481 
Q 1172 3119 1398 2916 
Q 1625 2713 2034 2713 
Q 2441 2713 2670 2916 
Q 2900 3119 2900 3481 
Q 2900 3844 2670 4047 
Q 2441 4250 2034 4250 
Q 1625 4250 1398 4047 
Q 1172 3844 1172 3481 
z
" id="DejaVuSans-38" transform="scale(0.015625)"/>
       </defs>
       <use xlink:href="#DejaVuSans-30"/>
       <use x="63.623047" xlink:href="#DejaVuSans-2e"/>
       <use x="95.410156" xlink:href="#DejaVuSans-38"/>
      </g>
     </g>
    </g>
    <g id="xtick_5">
     <g id="line2d_5">
      <g>
       <use style="stroke:#000000;stroke-width:0.8;" x="271.18691" xlink:href="#m6663df301b" y="307.584"/>
      </g>
     </g>
     <g id="text_5">
      <!-- 1.0 -->
      <g transform="translate(263.235348 322.182437)scale(0.1 -0.1)">
       <defs>
        <path d="M 794 531 
L 1825 531 
L 1825 4091 
L 703 3866 
L 703 4441 
L 1819 4666 
L 2450 4666 
L 2450 531 
L 3481 531 
L 3481 0 
L 794 0 
L 794 531 
z
" id="DejaVuSans-31" transform="scale(0.015625)"/>
       </defs>
       <use xlink:href="#DejaVuSans-31"/>
       <use x="63.623047" xlink:href="#DejaVuSans-2e"/>
       <use x="95.410156" xlink:href="#DejaVuSans-30"/>
      </g>
     </g>
    </g>
    <g id="xtick_6">
     <g id="line2d_6">
      <g>
       <use style="stroke:#000000;stroke-width:0.8;" x="315.18073" xlink:href="#m6663df301b" y="307.584"/>
      </g>
     </g>
     <g id="text_6">
      <!-- 1.2 -->
      <g transform="translate(307.229168 322.182437)scale(0.1 -0.1)">
       <use xlink:href="#DejaVuSans-31"/>
       <use x="63.623047" xlink:href="#DejaVuSans-2e"/>
       <use x="95.410156" xlink:href="#DejaVuSans-32"/>
      </g>
     </g>
    </g>
    <g id="xtick_7">
     <g id="line2d_7">
      <g>
       <use style="stroke:#000000;stroke-width:0.8;" x="359.174551" xlink:href="#m6663df301b" y="307.584"/>
      </g>
     </g>
     <g id="text_7">
      <!-- 1.4 -->
      <g transform="translate(351.222988 322.182437)scale(0.1 -0.1)">
       <use xlink:href="#DejaVuSans-31"/>
       <use x="63.623047" xlink:href="#DejaVuSans-2e"/>
       <use x="95.410156" xlink:href="#DejaVuSans-34"/>
      </g>
     </g>
    </g>
    <g id="xtick_8">
     <g id="line2d_8">
      <g>
       <use style="stroke:#000000;stroke-width:0.8;" x="403.168371" xlink:href="#m6663df301b" y="307.584"/>
      </g>
     </g>
     <g id="text_8">
      <!-- 1.6 -->
      <g transform="translate(395.216808 322.182437)scale(0.1 -0.1)">
       <use xlink:href="#DejaVuSans-31"/>
       <use x="63.623047" xlink:href="#DejaVuSans-2e"/>
       <use x="95.410156" xlink:href="#DejaVuSans-36"/>
      </g>
     </g>
    </g>
   </g>
   <g id="matplotlib.axis_2">
    <g id="ytick_1">
     <g id="line2d_9">
      <defs>
       <path d="M 0 0 
L -3.5 0 
" id="m7892768129" style="stroke:#000000;stroke-width:0.8;"/>
      </defs>
      <g>
       <use style="stroke:#000000;stroke-width:0.8;" x="57.6" xlink:href="#m7892768129" y="280.340943"/>
      </g>
     </g>
     <g id="text_9">
      <!-- −100 -->
      <g transform="translate(23.132812 284.140162)scale(0.1 -0.1)">
       <defs>
        <path d="M 678 2272 
L 4684 2272 
L 4684 1741 
L 678 1741 
L 678 2272 
z
" id="DejaVuSans-2212" transform="scale(0.015625)"/>
       </defs>
       <use xlink:href="#DejaVuSans-2212"/>
       <use x="83.789062" xlink:href="#DejaVuSans-31"/>
       <use x="147.412109" xlink:href="#DejaVuSans-30"/>
       <use x="211.035156" xlink:href="#DejaVuSans-30"/>
      </g>
     </g>
    </g>
    <g id="ytick_2">
     <g id="line2d_10">
      <g>
       <use style="stroke:#000000;stroke-width:0.8;" x="57.6" xlink:href="#m7892768129" y="242.27308"/>
      </g>
     </g>
     <g id="text_10">
      <!-- −80 -->
      <g transform="translate(29.495313 246.072299)scale(0.1 -0.1)">
       <use xlink:href="#DejaVuSans-2212"/>
       <use x="83.789062" xlink:href="#DejaVuSans-38"/>
       <use x="147.412109" xlink:href="#DejaVuSans-30"/>
      </g>
     </g>
    </g>
    <g id="ytick_3">
     <g id="line2d_11">
      <g>
       <use style="stroke:#000000;stroke-width:0.8;" x="57.6" xlink:href="#m7892768129" y="204.205217"/>
      </g>
     </g>
     <g id="text_11">
      <!-- −60 -->
      <g transform="translate(29.495313 208.004436)scale(0.1 -0.1)">
       <use xlink:href="#DejaVuSans-2212"/>
       <use x="83.789062" xlink:href="#DejaVuSans-36"/>
       <use x="147.412109" xlink:href="#DejaVuSans-30"/>
      </g>
     </g>
    </g>
    <g id="ytick_4">
     <g id="line2d_12">
      <g>
       <use style="stroke:#000000;stroke-width:0.8;" x="57.6" xlink:href="#m7892768129" y="166.137354"/>
      </g>
     </g>
     <g id="text_12">
      <!-- −40 -->
      <g transform="translate(29.495313 169.936573)scale(0.1 -0.1)">
       <use xlink:href="#DejaVuSans-2212"/>
       <use x="83.789062" xlink:href="#DejaVuSans-34"/>
       <use x="147.412109" xlink:href="#DejaVuSans-30"/>
      </g>
     </g>
    </g>
    <g id="ytick_5">
     <g id="line2d_13">
      <g>
       <use style="stroke:#000000;stroke-width:0.8;" x="57.6" xlink:href="#m7892768129" y="128.069491"/>
      </g>
     </g>
     <g id="text_13">
      <!-- −20 -->
      <g transform="translate(29.495313 131.86871)scale(0.1 -0.1)">
       <use xlink:href="#DejaVuSans-2212"/>
       <use x="83.789062" xlink:href="#DejaVuSans-32"/>
       <use x="147.412109" xlink:href="#DejaVuSans-30"/>
      </g>
     </g>
    </g>
    <g id="ytick_6">
     <g id="line2d_14">
      <g>
       <use style="stroke:#000000;stroke-width:0.8;" x="57.6" xlink:href="#m7892768129" y="90.001628"/>
      </g>
     </g>
     <g id="text_14">
      <!-- 0 -->
      <g transform="translate(44.2375 93.800847)scale(0.1 -0.1)">
       <use xlink:href="#DejaVuSans-30"/>
      </g>
     </g>
    </g>
    <g id="ytick_7">
     <g id="line2d_15">
      <g>
       <use style="stroke:#000000;stroke-width:0.8;" x="57.6" xlink:href="#m7892768129" y="51.933766"/>
      </g>
     </g>
     <g id="text_15">
      <!-- 20 -->
      <g transform="translate(37.875 55.732984)scale(0.1 -0.1)">
       <use xlink:href="#DejaVuSans-32"/>
       <use x="63.623047" xlink:href="#DejaVuSans-30"/>
      </g>
     </g>
    </g>
   </g>
   <g id="line2d_16">
    <path clip-path="url(#p1d062162f1)" d="M 73.832727 176.581331 
L 74.702532 176.882024 
L 75.354885 176.945433 
L 76.007239 176.957251 
L 77.311945 176.663945 
L 77.964299 176.319472 
L 78.18175 176.360661 
L 78.399201 176.153698 
L 78.616652 176.222464 
L 78.834103 175.974111 
L 79.051555 176.332309 
L 79.921359 190.14661 
L 80.791164 197.960477 
L 81.878419 205.030931 
L 83.183126 211.600185 
L 84.270382 215.786193 
L 85.140186 218.807409 
L 87.314698 225.250424 
L 91.881172 235.465591 
L 93.838232 238.231678 
L 97.099999 241.738879 
L 97.534901 242.222428 
L 97.969803 242.820915 
L 99.057059 243.832356 
L 99.27451 243.917435 
L 100.144315 244.927232 
L 100.579217 245.272335 
L 101.23157 245.625667 
L 103.406082 246.90641 
L 103.840984 247.099759 
L 104.710789 247.145536 
L 105.145691 247.248974 
L 106.667849 248.325953 
L 107.102751 248.556888 
L 108.624909 249.773735 
L 109.059811 249.854137 
L 109.712165 249.800294 
L 110.79942 250.115573 
L 111.234323 250.567911 
L 111.451774 250.604942 
L 112.104127 250.96041 
L 114.278638 252.060933 
L 114.930992 251.96891 
L 116.018248 251.98068 
L 116.45315 251.756169 
L 116.888052 251.782765 
L 117.757857 252.401466 
L 118.192759 252.491328 
L 118.627661 252.660813 
L 119.280015 252.744144 
L 122.976684 252.300359 
L 123.411586 252.428699 
L 123.846488 252.376445 
L 124.933744 252.689319 
L 125.151195 252.707403 
L 125.586098 252.981472 
L 125.803549 252.933287 
L 126.238451 253.08975 
L 128.195511 253.276386 
L 128.630413 253.128315 
L 129.065316 253.162324 
L 129.500218 253.427159 
L 130.152571 253.621258 
L 130.804925 253.338499 
L 132.109632 253.004149 
L 132.761985 253.118427 
L 133.849241 253.677424 
L 135.153948 253.599418 
L 136.458654 253.207334 
L 136.893557 253.187413 
L 137.328459 253.060232 
L 137.763361 252.712562 
L 138.198263 252.704442 
L 138.633166 252.831931 
L 139.068068 252.877105 
L 140.372775 253.065343 
L 141.46003 253.2616 
L 142.112384 253.610123 
L 142.547286 253.879842 
L 142.764737 253.862445 
L 143.19964 254.081585 
L 143.417091 254.103422 
L 143.851993 254.264637 
L 144.286895 254.290979 
L 145.1567 254.69848 
L 145.809053 255.088769 
L 146.896309 255.594162 
L 149.723174 255.798946 
L 150.375527 255.817368 
L 150.810429 255.676181 
L 151.02788 255.772232 
L 153.202392 255.109328 
L 154.289647 254.995791 
L 154.942001 254.906062 
L 156.464159 255.175814 
L 157.333963 255.35461 
L 157.768866 255.241063 
L 158.203768 255.197251 
L 160.378279 255.743584 
L 161.030633 255.996548 
L 161.465535 256.077688 
L 164.509851 256.296693 
L 164.944753 256.434048 
L 165.814558 256.345853 
L 167.119264 257.275023 
L 167.989069 257.650758 
L 169.076325 257.482877 
L 169.728678 257.148854 
L 170.381031 256.788522 
L 171.250836 256.444003 
L 172.555543 256.251085 
L 174.947505 255.481139 
L 175.599859 255.042544 
L 177.122017 254.871642 
L 177.556919 254.644805 
L 177.991821 254.490423 
L 178.644175 254.074404 
L 179.296528 253.801164 
L 179.73143 253.631265 
L 182.558295 251.830525 
L 182.993197 251.889008 
L 183.645551 251.609126 
L 184.297904 251.386535 
L 185.167709 251.038243 
L 185.820062 251.091354 
L 186.907318 251.217625 
L 188.212025 251.519839 
L 188.864378 251.699962 
L 190.821438 251.582883 
L 191.473792 251.786397 
L 192.343596 251.687678 
L 192.778498 251.554939 
L 193.213401 251.596634 
L 193.648303 251.519284 
L 194.300656 251.404246 
L 194.95301 251.037054 
L 195.822814 250.100846 
L 196.475168 250.078368 
L 197.779875 249.678395 
L 197.997326 249.535151 
L 198.649679 249.419978 
L 199.302033 249.395802 
L 200.171837 249.51997 
L 200.389288 249.481083 
L 201.693995 248.657656 
L 202.128897 248.574866 
L 202.5638 248.679934 
L 203.651055 248.255488 
L 204.085957 248.149295 
L 204.738311 247.908842 
L 205.173213 247.932325 
L 205.825567 247.517286 
L 206.260469 247.616558 
L 206.695371 247.813263 
L 208.217529 247.489654 
L 210.174589 247.1988 
L 210.609492 247.199953 
L 212.13165 246.376816 
L 213.653807 245.402762 
L 214.08871 245.135847 
L 215.175965 244.993134 
L 215.393417 245.01217 
L 215.828319 244.873443 
L 216.480672 244.881182 
L 217.785379 245.362766 
L 218.437732 245.443439 
L 219.524988 245.395723 
L 219.95989 245.325774 
L 222.351853 245.465265 
L 223.004206 245.366429 
L 224.526364 245.466772 
L 225.178718 245.193619 
L 226.048522 244.505314 
L 226.483424 244.479493 
L 227.57068 244.377713 
L 228.440485 244.148878 
L 229.092838 244.326174 
L 229.52774 244.595572 
L 231.484801 244.832048 
L 231.919703 245.104316 
L 232.354605 245.229552 
L 232.789507 245.609176 
L 233.22441 245.842406 
L 233.876763 246.409466 
L 234.311665 246.502785 
L 234.746568 246.575277 
L 235.18147 246.780574 
L 236.486177 246.723288 
L 236.703628 246.507466 
L 236.921079 246.454505 
L 237.355981 246.502497 
L 237.573432 246.432535 
L 238.878139 246.711057 
L 239.747944 246.356031 
L 241.052651 246.724442 
L 241.270102 246.701938 
L 241.705004 246.87024 
L 244.096966 246.914684 
L 244.74932 247.096019 
L 247.141282 247.407989 
L 247.576185 247.707916 
L 248.011087 247.748479 
L 248.66344 247.570211 
L 249.098343 247.536894 
L 249.533245 247.488783 
L 249.968147 247.567594 
L 251.055403 247.298065 
L 251.490305 247.166127 
L 252.142658 247.024094 
L 253.447365 247.779584 
L 253.882268 247.84928 
L 254.31717 247.884377 
L 254.752072 248.004287 
L 254.969523 247.962638 
L 255.839328 248.14273 
L 257.144035 248.430487 
L 259.101095 248.965634 
L 259.318546 248.939429 
L 259.970899 249.192112 
L 261.710508 249.501999 
L 262.145411 249.726405 
L 262.797764 249.855018 
L 263.450118 249.848535 
L 263.88502 250.020741 
L 264.319922 250.220217 
L 264.972275 250.108483 
L 265.407178 250.059325 
L 265.624629 250.109934 
L 266.929336 249.57682 
L 267.364238 249.382813 
L 267.79914 249.168322 
L 268.234043 249.014821 
L 269.321298 248.333817 
L 269.7562 248.397494 
L 270.843456 247.416669 
L 271.278358 247.310778 
L 271.713261 247.43353 
L 271.930712 247.522257 
L 273.017967 247.158994 
L 273.235419 247.13239 
L 274.757577 247.791817 
L 276.062283 248.001919 
L 276.714637 247.729435 
L 277.149539 247.556759 
L 277.584441 247.569727 
L 278.236795 247.488686 
L 278.889148 247.519257 
L 279.32405 247.547532 
L 279.758953 247.456931 
L 280.193855 247.458661 
L 282.150915 247.3341 
L 282.585817 247.341386 
L 283.02072 247.23638 
L 284.760329 247.556637 
L 286.282487 248.203621 
L 287.369742 247.868272 
L 288.239547 247.658613 
L 289.761705 247.808798 
L 290.196607 247.928777 
L 290.631509 247.923298 
L 290.848961 248.01291 
L 291.501314 248.000592 
L 292.58857 248.4513 
L 293.675825 248.280754 
L 294.110728 247.968552 
L 294.328179 247.918441 
L 295.415434 247.068298 
L 295.632886 246.666776 
L 295.850337 246.547385 
L 296.067788 246.16503 
L 296.285239 246.167611 
L 296.50269 245.738035 
L 297.372495 231.750677 
L 298.024848 225.434444 
L 298.894653 219.223302 
L 299.981908 213.665214 
L 301.721517 206.867439 
L 303.026224 202.9776 
L 304.330931 199.516966 
L 305.635638 196.970264 
L 306.505442 195.765552 
L 308.245051 193.581928 
L 310.202112 190.815315 
L 311.506818 188.647437 
L 312.811525 187.269752 
L 313.246428 186.727492 
L 313.898781 186.255824 
L 314.768586 185.421158 
L 315.420939 185.175771 
L 316.508195 184.808658 
L 316.943097 184.536946 
L 317.812901 184.336202 
L 318.682706 183.828547 
L 319.552511 183.441244 
L 320.204864 182.844136 
L 321.509571 181.895847 
L 321.944473 181.767206 
L 323.24918 181.718506 
L 323.684082 181.639874 
L 324.553887 181.21928 
L 325.858593 180.87746 
L 327.598203 180.74369 
L 328.468007 180.426149 
L 329.990165 179.985281 
L 330.425067 179.812669 
L 330.85997 179.584491 
L 331.294872 179.291795 
L 333.469383 178.762725 
L 333.904285 178.691514 
L 334.991541 178.083322 
L 336.948601 178.055946 
L 337.383504 178.158451 
L 338.253308 178.095848 
L 338.905662 177.978151 
L 339.340564 177.979442 
L 339.775466 177.977701 
L 341.515075 177.575327 
L 341.949977 177.570959 
L 342.38488 177.457795 
L 343.689587 177.582948 
L 344.559391 177.522691 
L 346.081549 176.510394 
L 348.690963 176.234929 
L 349.125865 176.313492 
L 350.430572 177.158986 
L 351.517827 177.547911 
L 353.692339 177.589527 
L 354.562143 177.404125 
L 356.084301 178.04128 
L 357.606459 177.692669 
L 358.476264 177.368335 
L 359.128617 177.269938 
L 359.563519 177.218053 
L 360.215873 177.205981 
L 362.607835 177.349069 
L 367.39176 178.270776 
L 369.131369 178.315087 
L 370.436076 178.427217 
L 371.740783 178.015607 
L 372.393136 177.572182 
L 373.262941 177.09994 
L 374.132746 177.082491 
L 374.567648 177.110691 
L 375.00255 177.081605 
L 375.437452 177.019453 
L 376.307257 176.985203 
L 377.394513 177.122515 
L 377.611964 177.093737 
L 378.264317 177.326087 
L 379.134122 177.549391 
L 380.003926 177.693329 
L 380.438828 177.788854 
L 384.5704 177.434802 
L 385.222753 177.065969 
L 385.875107 176.864513 
L 386.310009 176.92554 
L 387.614716 177.02045 
L 388.267069 177.099736 
L 389.354325 177.672093 
L 390.006678 177.656217 
L 392.616092 176.814027 
L 393.050994 176.552122 
L 393.920799 176.492734 
L 394.355701 176.383978 
L 395.008055 176.406975 
L 395.442957 176.279436 
L 395.877859 176.295777 
L 398.487273 175.912551 
L 398.487273 175.912551 
" style="fill:none;stroke:#000000;stroke-linecap:square;stroke-width:1.5;"/>
   </g>
   <g id="line2d_17">
    <path clip-path="url(#p1d062162f1)" d="M 73.832727 169.997362 
L 74.485081 169.898663 
L 75.354885 170.099228 
L 75.789787 169.937956 
L 76.22469 169.797361 
L 77.311945 169.350909 
L 77.529397 169.32636 
L 77.746848 169.146697 
L 77.964299 169.214184 
L 78.18175 169.144574 
L 78.399201 169.448651 
L 78.616652 169.253563 
L 78.834103 169.755008 
L 79.051555 169.056893 
L 80.573712 116.443477 
L 81.443517 98.458965 
L 82.965675 73.131986 
L 83.83548 62.59363 
L 84.052931 61.05786 
L 84.487833 60.158146 
L 84.705284 60.105874 
L 84.922735 60.323219 
L 85.140186 60.195099 
L 85.575089 59.121314 
L 86.009991 59.697634 
L 86.662344 59.217909 
L 87.097247 57.798854 
L 87.314698 57.669857 
L 87.532149 57.994609 
L 87.7496 58.012621 
L 87.967051 57.786636 
L 88.184502 57.901848 
L 88.401953 58.225818 
L 88.619404 57.772291 
L 88.836856 57.059643 
L 89.054307 56.919823 
L 89.271758 56.950316 
L 89.70666 57.369358 
L 89.924111 57.087983 
L 90.359014 56.945127 
L 90.576465 56.845683 
L 90.793916 57.145359 
L 91.228818 56.09155 
L 91.446269 56.141659 
L 91.66372 56.013933 
L 91.881172 56.042951 
L 92.316074 55.564151 
L 92.533525 55.453353 
L 92.750976 54.990027 
L 92.968427 55.092128 
L 93.185878 55.492493 
L 93.403329 55.618277 
L 93.620781 55.274315 
L 93.838232 55.145628 
L 94.055683 55.524306 
L 94.925487 55.060015 
L 95.142939 55.294815 
L 96.230194 58.622854 
L 96.447645 59.234787 
L 96.665097 59.306541 
L 96.882548 58.908775 
L 97.31745 58.55398 
L 98.404706 53.967952 
L 98.622157 53.568 
L 99.057059 53.914785 
L 99.27451 54.075856 
L 99.491961 54.072038 
L 99.709412 54.29756 
L 100.144315 55.240784 
L 100.361766 55.682951 
L 100.579217 55.80519 
L 100.796668 55.375586 
L 101.014119 55.65176 
L 101.449021 57.02818 
L 102.101375 58.221532 
L 102.318826 58.126205 
L 102.536277 57.895789 
L 102.971179 58.11816 
L 103.188631 57.947063 
L 103.840984 56.571971 
L 104.058435 56.24892 
L 104.275886 56.413841 
L 104.493337 56.887683 
L 104.710789 57.039463 
L 105.145691 57.726282 
L 105.580593 57.69732 
L 106.015495 57.009405 
L 106.8853 57.915276 
L 107.102751 57.779543 
L 107.320202 57.258904 
L 107.972556 56.850745 
L 108.190007 57.08448 
L 108.624909 57.913029 
L 109.059811 57.756612 
L 109.277262 58.071167 
L 109.494714 57.985114 
L 109.712165 57.633202 
L 109.929616 57.562322 
L 110.147067 57.731345 
L 110.79942 58.632247 
L 111.016871 58.956956 
L 111.451774 57.814992 
L 111.669225 57.895061 
L 111.886676 58.190015 
L 112.104127 59.005187 
L 112.321578 59.338869 
L 112.973932 57.949164 
L 113.191383 58.108392 
L 113.408834 58.847991 
L 113.626285 59.08192 
L 114.061187 58.660038 
L 114.49609 58.159656 
L 114.713541 57.923934 
L 114.930992 58.398393 
L 115.148443 59.168795 
L 115.365894 59.417083 
L 116.45315 62.890806 
L 116.670601 62.660865 
L 117.105503 61.967564 
L 117.757857 61.260503 
L 117.975308 61.272875 
L 118.192759 61.584711 
L 118.41021 61.699381 
L 118.627661 61.51141 
L 118.845112 61.553034 
L 119.280015 61.005431 
L 119.497466 61.257973 
L 119.932368 61.204108 
L 120.149819 61.277733 
L 120.36727 60.664696 
L 120.802173 58.971813 
L 121.019624 59.066021 
L 121.237075 58.907675 
L 121.889428 56.91428 
L 122.541782 55.827616 
L 122.759233 55.461851 
L 122.976684 55.432831 
L 123.194135 55.538983 
L 123.411586 54.96106 
L 123.629037 54.824653 
L 124.06394 55.028704 
L 124.716293 57.50264 
L 125.151195 59.089756 
L 125.586098 60.320394 
L 125.803549 60.392827 
L 126.238451 60.231656 
L 126.673353 57.668188 
L 127.108255 55.273563 
L 127.325707 54.86243 
L 127.543158 54.724607 
L 127.760609 54.366499 
L 127.97806 53.756707 
L 128.195511 53.85034 
L 128.630413 54.825452 
L 129.282767 56.985141 
L 129.93512 57.860887 
L 130.152571 58.124711 
L 130.804925 59.689962 
L 131.022376 59.8393 
L 131.239827 59.697889 
L 131.674729 58.266731 
L 131.89218 58.059272 
L 132.109632 58.075081 
L 132.327083 57.893239 
L 132.544534 57.31479 
L 132.761985 57.089848 
L 133.196887 57.177004 
L 133.414338 56.83464 
L 133.849241 55.261699 
L 134.066692 55.53079 
L 134.501594 57.205436 
L 134.719045 57.271337 
L 135.371399 58.865899 
L 135.58885 59.121223 
L 135.806301 59.165253 
L 136.241203 59.62452 
L 136.458654 59.580401 
L 136.676105 59.656261 
L 136.893557 59.312668 
L 137.111008 59.210597 
L 137.763361 60.253269 
L 137.980812 60.539948 
L 139.285519 64.166338 
L 140.155324 64.806257 
L 140.590226 64.5635 
L 140.807677 64.620253 
L 141.025128 64.290108 
L 141.46003 63.266431 
L 141.677482 63.526984 
L 141.894933 63.545194 
L 142.112384 63.247695 
L 142.329835 63.311452 
L 142.764737 63.984681 
L 142.982188 63.890974 
L 143.19964 64.025041 
L 143.417091 64.51956 
L 143.634542 64.713917 
L 143.851993 64.652595 
L 144.069444 64.749841 
L 144.286895 64.637214 
L 144.721797 63.850665 
L 145.1567 63.72036 
L 145.809053 64.350858 
L 146.243955 65.314387 
L 146.678858 65.706554 
L 147.11376 65.111222 
L 147.548662 65.589124 
L 147.766113 65.567364 
L 148.201016 65.089378 
L 148.635918 65.113842 
L 148.853369 65.002401 
L 149.07082 64.758152 
L 149.505722 64.812856 
L 149.723174 64.674055 
L 150.158076 64.681282 
L 150.375527 65.187169 
L 150.810429 66.411935 
L 151.245332 66.450185 
L 151.897685 67.449247 
L 152.115136 67.556209 
L 152.332587 67.513992 
L 152.767489 68.144727 
L 153.419843 69.080399 
L 154.072196 68.955149 
L 154.507099 69.662066 
L 154.72455 69.571053 
L 154.942001 69.29509 
L 155.159452 69.416634 
L 155.376903 69.222617 
L 155.594354 68.680997 
L 155.811805 68.673372 
L 156.029257 68.791714 
L 156.464159 70.042766 
L 157.333963 68.586614 
L 157.768866 69.314197 
L 158.63867 69.47929 
L 158.856121 69.513368 
L 159.725926 68.652313 
L 160.378279 67.996256 
L 160.59573 67.555374 
L 161.030633 66.156508 
L 161.465535 65.507918 
L 161.682986 65.421401 
L 161.900437 65.059303 
L 162.117888 64.38612 
L 162.335339 64.172045 
L 162.770242 64.213754 
L 162.987693 64.524559 
L 163.205144 64.626046 
L 163.640046 65.260269 
L 163.857497 65.246583 
L 164.074949 65.354078 
L 164.2924 65.61862 
L 164.509851 65.664362 
L 164.944753 65.007852 
L 165.162204 65.062017 
L 165.379655 65.277079 
L 166.466911 67.249226 
L 166.684362 67.244385 
L 167.554167 66.615467 
L 168.20652 64.732441 
L 169.076325 62.826178 
L 169.293776 62.199983 
L 169.728678 62.070641 
L 169.946129 61.57757 
L 170.16358 61.433134 
L 170.598483 62.044116 
L 170.815934 62.161746 
L 171.033385 62.102526 
L 171.250836 62.244782 
L 171.468287 62.660663 
L 171.685738 62.594375 
L 171.903189 62.776206 
L 172.120641 63.351592 
L 172.772994 63.661544 
L 172.990445 63.815254 
L 173.425347 64.317485 
L 174.077701 63.624803 
L 174.512603 63.519257 
L 174.947505 63.485755 
L 175.164956 63.710718 
L 175.599859 63.635916 
L 176.034761 63.714494 
L 176.252212 63.602204 
L 176.469663 63.20808 
L 176.687114 63.160852 
L 177.339468 64.44867 
L 177.556919 64.623857 
L 177.77437 64.168897 
L 178.209272 64.383935 
L 178.426723 64.070566 
L 179.079077 64.326149 
L 179.296528 64.804704 
L 179.513979 64.931705 
L 179.73143 64.763118 
L 180.166333 64.989042 
L 181.253588 64.845555 
L 181.688491 65.35385 
L 182.340844 66.813185 
L 182.558295 66.898084 
L 182.775746 66.70739 
L 183.210648 66.537412 
L 183.863002 65.977182 
L 184.950258 66.395972 
L 185.602611 67.720667 
L 185.820062 67.8398 
L 186.472416 67.419067 
L 187.34222 67.978242 
L 187.559671 67.786386 
L 187.994573 67.074453 
L 188.429476 66.880996 
L 188.864378 67.108158 
L 189.29928 66.621656 
L 189.516731 66.813355 
L 189.951634 66.396715 
L 190.386536 66.697369 
L 190.603987 66.709521 
L 190.821438 66.575305 
L 191.473792 66.529144 
L 191.908694 67.153469 
L 192.126145 67.148125 
L 192.343596 67.384696 
L 192.778498 67.426821 
L 192.99595 67.694707 
L 193.430852 66.846468 
L 193.865754 66.840124 
L 194.300656 67.551188 
L 194.518108 67.580139 
L 194.95301 68.000713 
L 195.387912 68.256881 
L 196.257717 67.731124 
L 196.475168 67.734465 
L 196.692619 67.874399 
L 196.91007 67.56927 
L 197.344972 67.323189 
L 198.214777 66.134657 
L 198.432228 66.40213 
L 199.084581 68.606073 
L 199.302033 68.948034 
L 199.954386 69.115717 
L 200.389288 69.946601 
L 200.606739 70.01116 
L 201.693995 67.670219 
L 202.128897 68.065655 
L 202.781251 67.97433 
L 202.998702 68.018407 
L 203.216153 67.93199 
L 203.651055 67.594127 
L 204.085957 67.600821 
L 204.303409 67.422364 
L 204.52086 67.42188 
L 204.738311 67.606234 
L 205.390664 67.511401 
L 205.825567 66.885258 
L 206.043018 66.847829 
L 206.912822 66.071427 
L 207.347725 66.478539 
L 207.565176 66.501218 
L 208.000078 67.228129 
L 208.217529 67.109061 
L 208.652431 67.277051 
L 208.869882 67.219126 
L 209.087334 67.386967 
L 209.522236 68.077141 
L 209.739687 68.240277 
L 210.609492 68.170345 
L 211.044394 67.53275 
L 211.479296 67.584423 
L 211.696747 67.804532 
L 211.914198 67.855355 
L 212.13165 67.695538 
L 212.566552 66.934859 
L 213.653807 67.563236 
L 213.871259 67.085539 
L 214.08871 67.061172 
L 214.523612 66.633423 
L 214.741063 66.664927 
L 214.958514 66.505126 
L 215.393417 66.828737 
L 215.610868 66.574313 
L 215.828319 66.68346 
L 216.04577 66.654381 
L 216.480672 66.008903 
L 217.133026 65.478567 
L 217.567928 65.755979 
L 218.00283 66.482082 
L 218.437732 66.314577 
L 218.872635 66.393027 
L 219.090086 66.618964 
L 219.307537 66.36675 
L 219.524988 66.307244 
L 219.742439 66.465153 
L 219.95989 66.398556 
L 220.177342 66.788265 
L 220.612244 66.303133 
L 220.829695 66.536339 
L 221.482048 65.872646 
L 221.699499 65.482589 
L 222.134402 63.95011 
L 222.351853 63.962067 
L 222.569304 64.098404 
L 222.786755 64.060441 
L 223.004206 64.214022 
L 223.65656 65.624934 
L 223.874011 65.837854 
L 224.091462 65.883498 
L 224.526364 64.829917 
L 224.961267 64.662406 
L 225.396169 64.803723 
L 225.61362 64.627734 
L 226.048522 64.593099 
L 226.483424 64.062671 
L 226.700876 63.971814 
L 227.135778 63.636124 
L 227.353229 63.720929 
L 228.223034 65.437857 
L 228.440485 64.900497 
L 229.52774 63.825937 
L 229.745191 63.929656 
L 230.397545 65.299624 
L 230.832447 65.680809 
L 231.267349 65.65876 
L 232.137154 66.320397 
L 232.572056 66.006024 
L 232.789507 66.170694 
L 233.006959 65.75942 
L 233.22441 64.584799 
L 233.441861 64.020972 
L 233.659312 63.931604 
L 234.094214 62.858215 
L 234.964019 61.642497 
L 235.616372 60.537772 
L 235.833823 60.584071 
L 236.268726 61.61091 
L 236.486177 62.264033 
L 236.703628 62.391784 
L 237.573432 62.0725 
L 237.790884 61.94916 
L 238.225786 63.047617 
L 238.660688 63.536709 
L 238.878139 63.58904 
L 239.09559 63.950239 
L 239.530493 63.880856 
L 239.747944 63.893316 
L 240.400297 62.54841 
L 240.835199 61.953995 
L 241.052651 62.110554 
L 241.270102 62.506335 
L 241.487553 62.30258 
L 241.922455 62.32521 
L 242.357357 61.878288 
L 242.574809 61.89447 
L 243.444613 63.423548 
L 243.662064 63.219476 
L 243.879515 63.489815 
L 245.184222 66.79801 
L 245.619124 67.524823 
L 245.836576 67.470995 
L 246.054027 67.766599 
L 246.271478 67.724869 
L 246.488929 67.175208 
L 246.923831 66.774814 
L 247.141282 66.465098 
L 247.358733 65.927468 
L 247.793636 64.517708 
L 248.228538 63.767497 
L 248.445989 63.90717 
L 248.66344 63.797601 
L 248.880891 63.385304 
L 249.315794 63.083296 
L 249.533245 62.57015 
L 249.750696 62.532969 
L 249.968147 62.822716 
L 250.185598 62.755913 
L 250.620501 62.180813 
L 251.055403 62.554054 
L 251.272854 62.434081 
L 251.490305 62.556846 
L 251.925207 63.318789 
L 252.36011 63.208916 
L 252.577561 63.318548 
L 253.229914 64.691844 
L 254.099719 65.970958 
L 254.31717 65.679787 
L 254.534621 65.991374 
L 254.752072 65.931155 
L 254.969523 65.58843 
L 255.186974 65.627332 
L 255.621877 65.083121 
L 255.839328 65.00958 
L 256.491681 64.281105 
L 256.709132 64.392997 
L 256.926583 64.163371 
L 257.361486 64.343372 
L 258.448741 62.297196 
L 258.666193 62.060982 
L 258.883644 62.299907 
L 259.318546 63.082206 
L 259.535997 62.824342 
L 259.753448 62.37378 
L 259.970899 62.316815 
L 260.405802 62.912472 
L 260.840704 63.019774 
L 261.275606 62.43972 
L 262.145411 63.308185 
L 263.667569 61.959433 
L 264.102471 62.890132 
L 264.537373 62.754365 
L 265.189727 61.983354 
L 265.624629 62.899175 
L 266.059531 63.527824 
L 266.276982 63.54727 
L 266.711885 64.082766 
L 266.929336 64.046978 
L 267.146787 63.781639 
L 267.581689 64.206059 
L 267.79914 64.124291 
L 268.016591 64.258254 
L 268.234043 64.24556 
L 268.668945 64.604576 
L 268.886396 64.214509 
L 269.103847 64.081095 
L 269.538749 64.281621 
L 269.7562 64.107165 
L 270.191103 63.003906 
L 270.626005 63.147854 
L 271.278358 63.576146 
L 271.713261 63.149472 
L 272.365614 63.88246 
L 272.583065 63.87962 
L 273.017967 62.347928 
L 273.235419 62.237524 
L 274.105223 63.214568 
L 274.322674 63.077212 
L 274.757577 63.397227 
L 275.192479 62.969285 
L 275.40993 62.603183 
L 275.844832 62.538799 
L 276.279735 61.836577 
L 277.149539 62.736631 
L 277.584441 63.361915 
L 278.019344 62.93427 
L 278.236795 63.004102 
L 278.454246 62.698266 
L 278.889148 63.209797 
L 279.32405 62.390764 
L 279.976404 62.374351 
L 280.411306 62.486316 
L 280.846208 62.519337 
L 281.281111 62.979842 
L 281.716013 62.441193 
L 281.933464 62.517373 
L 282.368366 63.212314 
L 282.585817 63.088812 
L 282.803269 62.799487 
L 283.02072 62.885666 
L 283.238171 63.111714 
L 283.455622 63.111553 
L 283.890524 62.132908 
L 284.325427 61.672626 
L 284.542878 61.76179 
L 284.760329 62.041628 
L 285.195231 61.822139 
L 286.282487 63.521017 
L 286.717389 63.606782 
L 286.93484 63.948449 
L 287.152291 63.861644 
L 287.587194 63.357555 
L 287.804645 62.916938 
L 288.239547 62.771304 
L 288.8919 62.216596 
L 289.544254 62.932853 
L 289.761705 63.300982 
L 289.979156 63.357315 
L 290.414058 62.888824 
L 290.848961 63.210673 
L 291.283863 63.274719 
L 291.718765 62.315251 
L 291.936216 62.332323 
L 292.153667 62.628464 
L 292.371119 62.661079 
L 292.58857 62.50882 
L 293.023472 62.6633 
L 293.240923 62.798054 
L 293.675825 62.538475 
L 294.328179 62.133651 
L 294.54563 62.28674 
L 294.980532 61.787418 
L 295.197983 61.863255 
L 295.415434 61.703083 
L 295.850337 62.162045 
L 296.067788 62.730827 
L 296.285239 62.825588 
L 296.50269 64.27166 
L 297.589946 103.556107 
L 298.242299 118.192926 
L 298.894653 128.711767 
L 299.764457 138.636136 
L 300.634262 145.449934 
L 301.286615 148.716251 
L 302.15642 152.134242 
L 303.243675 155.082754 
L 304.548382 157.589946 
L 306.287991 159.877668 
L 306.940345 160.433115 
L 308.0276 161.4993 
L 309.984661 163.019688 
L 310.637014 163.189052 
L 311.289367 163.351902 
L 311.72427 163.566051 
L 312.811525 163.714485 
L 314.986037 164.727281 
L 315.63839 165.144006 
L 316.290743 165.459106 
L 317.59545 166.048989 
L 318.247804 166.238042 
L 320.422315 166.16332 
L 321.509571 165.913092 
L 322.596826 165.863441 
L 323.466631 165.693717 
L 324.771338 165.470491 
L 325.858593 165.730454 
L 326.293496 165.896192 
L 326.945849 166.079279 
L 330.642518 167.098836 
L 331.294872 167.084803 
L 331.729774 166.997377 
L 332.599579 167.17119 
L 334.556639 166.936188 
L 335.643895 166.929441 
L 336.078797 166.895761 
L 336.73115 166.946579 
L 337.166052 167.016566 
L 337.818406 167.124093 
L 339.123113 167.394696 
L 341.080173 167.536383 
L 341.949977 167.738363 
L 345.429196 168.039149 
L 346.081549 167.773369 
L 346.951354 167.59496 
L 347.821158 167.381003 
L 348.473512 167.459341 
L 349.560767 167.586369 
L 350.430572 167.479585 
L 350.865474 167.44904 
L 351.735279 167.270789 
L 353.474888 167.243792 
L 353.90979 167.30355 
L 354.344692 167.429325 
L 357.82391 168.493022 
L 358.693715 168.432172 
L 361.085677 168.495374 
L 362.172933 168.366859 
L 363.260189 168.403562 
L 363.695091 168.40282 
L 364.347444 168.579075 
L 364.999798 168.884806 
L 365.4347 169.040603 
L 366.304505 169.168597 
L 367.174309 169.079406 
L 368.261565 169.315185 
L 368.913918 169.501835 
L 369.348821 169.634423 
L 370.001174 169.892815 
L 370.436076 170.002358 
L 371.08843 170.091536 
L 374.350197 171.036893 
L 374.785099 171.230945 
L 376.95961 171.463256 
L 379.134122 171.378483 
L 381.308633 171.798089 
L 382.830791 172.283703 
L 383.265693 172.454488 
L 383.918047 172.577941 
L 386.310009 173.143741 
L 386.744911 173.050241 
L 390.441581 172.812547 
L 391.093934 172.638843 
L 391.528836 172.563061 
L 393.268445 172.260294 
L 394.355701 172.19375 
L 397.182566 171.890689 
L 398.05237 171.617072 
L 398.487273 171.638019 
L 398.487273 171.638019 
" style="fill:none;stroke:#000000;stroke-linecap:square;stroke-width:1.5;"/>
   </g>
   <g id="line2d_18">
    <path clip-path="url(#p1d062162f1)" d="M 73.832727 194.124971 
L 75.137434 194.234338 
L 76.877043 194.288947 
L 78.18175 193.960855 
L 78.616652 193.791904 
L 78.834103 193.720763 
L 79.051555 193.875497 
L 79.486457 197.725594 
L 80.573712 206.824521 
L 82.313322 218.101213 
L 84.052931 227.785586 
L 84.487833 229.150581 
L 87.967051 237.343099 
L 88.836856 239.774164 
L 89.271758 240.82697 
L 89.70666 242.066995 
L 90.141562 242.660023 
L 90.793916 243.084115 
L 91.446269 243.986872 
L 92.098623 244.606765 
L 92.316074 245.204926 
L 92.750976 245.697118 
L 93.403329 247.237268 
L 94.055683 248.244664 
L 96.012743 253.368943 
L 96.447645 254.817951 
L 97.099999 255.691528 
L 97.752352 257.200791 
L 97.969803 257.396662 
L 99.057059 260.060006 
L 99.27451 260.502718 
L 99.491961 260.667066 
L 99.709412 260.574292 
L 99.926864 260.690536 
L 100.361766 260.456446 
L 100.579217 260.648956 
L 100.796668 260.63381 
L 101.449021 260.15913 
L 102.101375 259.785565 
L 102.753728 259.286634 
L 102.971179 259.161275 
L 103.188631 259.202766 
L 103.623533 259.585357 
L 104.710789 260.114168 
L 105.145691 259.966842 
L 105.798044 260.548312 
L 106.232946 260.867872 
L 107.102751 262.21719 
L 107.755104 263.609631 
L 107.972556 263.713397 
L 108.624909 263.583413 
L 109.059811 263.208202 
L 109.277262 263.239179 
L 109.494714 263.403322 
L 109.929616 263.391708 
L 110.79942 263.790835 
L 112.104127 265.545549 
L 112.539029 266.299265 
L 113.408834 266.822136 
L 114.49609 268.370171 
L 114.713541 268.35924 
L 114.930992 268.225793 
L 115.148443 268.253406 
L 115.583345 268.826686 
L 115.800796 268.79648 
L 116.670601 268.084624 
L 117.105503 268.175461 
L 117.757857 268.483587 
L 118.192759 268.486951 
L 118.41021 268.67517 
L 119.062563 268.475609 
L 119.497466 268.444838 
L 119.932368 268.330297 
L 120.36727 268.460777 
L 121.237075 268.775892 
L 122.759233 270.708959 
L 123.194135 270.953845 
L 123.629037 271.075854 
L 123.846488 271.205952 
L 124.716293 270.533265 
L 125.368646 270.475077 
L 126.455902 269.403192 
L 126.673353 269.354733 
L 126.890804 269.48725 
L 127.543158 268.929418 
L 127.97806 268.984028 
L 128.412962 269.378385 
L 129.065316 269.285009 
L 129.500218 269.679323 
L 129.93512 269.684587 
L 130.370023 269.863686 
L 131.022376 269.72158 
L 131.674729 270.335419 
L 131.89218 270.219399 
L 132.544534 269.485807 
L 132.979436 269.248309 
L 133.63179 269.180041 
L 134.936496 269.361629 
L 135.806301 269.164641 
L 136.241203 269.024269 
L 136.458654 268.997451 
L 136.676105 269.090086 
L 137.111008 269.658136 
L 137.763361 269.698649 
L 138.198263 269.616939 
L 138.633166 269.714777 
L 138.850617 269.648932 
L 139.068068 269.432538 
L 139.285519 269.033088 
L 140.155324 268.382944 
L 140.372775 268.384294 
L 141.025128 267.41731 
L 141.242579 267.48972 
L 141.46003 267.409502 
L 142.112384 267.484724 
L 142.547286 267.30508 
L 143.19964 266.902472 
L 143.634542 267.009261 
L 144.069444 266.949739 
L 144.504346 267.089036 
L 145.374151 267.663103 
L 145.809053 267.215228 
L 146.243955 267.475625 
L 146.678858 268.100172 
L 146.896309 267.976418 
L 147.548662 266.914474 
L 147.766113 266.599839 
L 148.418467 266.331582 
L 148.853369 266.582698 
L 149.288271 266.870591 
L 149.940625 267.264142 
L 150.158076 267.385944 
L 150.375527 267.34346 
L 150.592978 267.500509 
L 151.462783 269.422194 
L 151.897685 269.207246 
L 152.115136 269.181214 
L 152.550038 268.778297 
L 153.637294 268.788975 
L 153.854745 268.97561 
L 154.072196 268.86144 
L 154.72455 268.192062 
L 155.594354 267.609823 
L 155.811805 267.430947 
L 157.551414 267.546888 
L 157.986317 267.949649 
L 158.203768 267.881066 
L 158.421219 268.026738 
L 158.856121 268.664505 
L 159.073572 268.833143 
L 159.291024 268.810208 
L 159.508475 268.646052 
L 159.943377 268.81594 
L 161.030633 269.109367 
L 161.682986 268.571393 
L 162.987693 268.825135 
L 163.205144 268.676729 
L 163.422595 268.209317 
L 163.640046 268.145663 
L 163.857497 268.398374 
L 164.727302 270.21377 
L 165.379655 271.254442 
L 165.597106 271.21052 
L 166.24946 271.968993 
L 166.684362 272.880574 
L 167.336716 273.247114 
L 168.20652 274.432441 
L 168.641422 274.160142 
L 168.858874 273.962112 
L 169.293776 273.882257 
L 169.511227 273.560363 
L 170.381031 273.252251 
L 170.815934 272.372747 
L 171.250836 271.812448 
L 171.468287 271.917192 
L 171.685738 271.779185 
L 172.120641 271.217395 
L 172.338092 271.219271 
L 172.990445 272.198093 
L 173.425347 272.353683 
L 173.86025 272.824996 
L 174.947505 273.462463 
L 175.164956 273.489994 
L 175.599859 273.962138 
L 176.034761 274.25938 
L 176.252212 274.258961 
L 176.687114 274.490825 
L 176.904566 274.496604 
L 177.122017 274.62841 
L 177.556919 274.260012 
L 177.77437 274.360493 
L 178.209272 274.97022 
L 178.644175 275.131231 
L 179.079077 275.210471 
L 179.513979 275.495721 
L 179.73143 275.684506 
L 180.166333 275.474114 
L 180.818686 274.822284 
L 181.036137 274.454578 
L 181.471039 274.198077 
L 181.688491 274.233344 
L 181.905942 274.40289 
L 182.123393 274.341005 
L 183.210648 274.690492 
L 185.38516 277.714191 
L 186.254964 278.124714 
L 186.472416 277.954933 
L 187.124769 278.078972 
L 187.559671 277.888396 
L 187.994573 277.217495 
L 188.429476 277.004596 
L 188.864378 276.792517 
L 189.081829 276.768118 
L 189.516731 276.520542 
L 189.951634 276.913589 
L 190.386536 277.287513 
L 191.038889 277.329725 
L 191.25634 277.071464 
L 191.473792 276.578275 
L 191.691243 276.402114 
L 191.908694 276.422734 
L 192.126145 276.283055 
L 193.430852 276.544346 
L 193.648303 276.337116 
L 193.865754 276.296737 
L 194.518108 277.126611 
L 195.170461 277.312299 
L 195.387912 277.654742 
L 195.822814 277.57726 
L 196.040265 277.741116 
L 196.475168 277.673686 
L 197.344972 277.599443 
L 197.779875 277.403004 
L 198.214777 277.687351 
L 199.302033 276.445463 
L 199.519484 276.578094 
L 199.736935 276.535479 
L 200.389288 276.792263 
L 200.82419 277.450636 
L 201.259093 277.76889 
L 201.911446 278.021149 
L 202.346348 278.522672 
L 202.5638 278.674518 
L 202.781251 278.667234 
L 202.998702 278.500104 
L 203.433604 278.516542 
L 203.651055 278.350025 
L 204.085957 277.63358 
L 204.738311 276.34728 
L 206.043018 275.987401 
L 206.695371 275.307887 
L 206.912822 275.517316 
L 207.130273 275.471296 
L 207.347725 275.235714 
L 207.565176 275.326163 
L 207.782627 275.061033 
L 208.000078 274.458478 
L 208.217529 274.32014 
L 208.869882 274.638124 
L 209.087334 274.498277 
L 209.957138 274.600246 
L 210.174589 274.636698 
L 210.39204 274.842955 
L 210.826943 275.535976 
L 211.261845 275.6466 
L 212.566552 275.136294 
L 213.001454 275.475042 
L 213.436356 275.641596 
L 213.653807 275.641407 
L 214.306161 276.052678 
L 215.175965 276.145145 
L 215.828319 275.823567 
L 216.263221 276.203638 
L 216.698123 276.786619 
L 217.350477 276.664016 
L 217.567928 276.447456 
L 217.785379 276.467569 
L 219.95989 278.109242 
L 220.612244 278.240263 
L 222.134402 278.898922 
L 222.351853 278.747721 
L 223.004206 278.818015 
L 223.874011 278.154367 
L 224.091462 278.084389 
L 224.308913 278.134622 
L 224.743815 278.878183 
L 225.178718 278.86393 
L 226.483424 278.223348 
L 226.918327 278.23886 
L 227.57068 277.928545 
L 228.223034 278.03862 
L 228.657936 278.128969 
L 229.092838 278.544178 
L 229.52774 278.875488 
L 229.745191 278.946241 
L 230.397545 279.625746 
L 230.614996 279.592623 
L 230.832447 279.785441 
L 231.702252 279.831438 
L 232.137154 279.427766 
L 232.354605 279.297035 
L 232.572056 278.939571 
L 233.006959 278.915653 
L 233.441861 279.013393 
L 233.659312 278.7849 
L 233.876763 278.772735 
L 234.311665 279.531563 
L 234.746568 279.674829 
L 234.964019 279.464709 
L 235.18147 279.459773 
L 235.398921 279.607057 
L 235.616372 279.443031 
L 236.268726 279.367577 
L 236.703628 279.223572 
L 237.13853 279.158225 
L 237.790884 279.647587 
L 238.878139 280.854088 
L 239.313041 281.285581 
L 239.747944 281.642194 
L 240.400297 282.388062 
L 240.835199 282.622956 
L 241.487553 282.163368 
L 242.357357 283.156489 
L 242.79226 283.204599 
L 243.009711 283.408683 
L 243.879515 283.683364 
L 244.966771 284.388578 
L 245.184222 284.663078 
L 245.401673 284.691406 
L 245.619124 284.89491 
L 246.923831 287.32324 
L 247.793636 288.524505 
L 248.011087 288.481665 
L 248.228538 288.786204 
L 248.66344 289.832113 
L 249.315794 290.563031 
L 249.750696 290.422526 
L 250.403049 290.568235 
L 250.837952 290.060864 
L 251.272854 290.298634 
L 252.142658 291.614227 
L 253.229914 291.637973 
L 253.447365 291.480008 
L 253.664816 291.519364 
L 254.099719 291.928666 
L 254.969523 293.692291 
L 255.404426 294.079192 
L 255.621877 294.134701 
L 255.839328 294.396783 
L 256.27423 295.146579 
L 256.491681 295.251506 
L 257.361486 294.902581 
L 257.796388 294.386901 
L 258.013839 294.324731 
L 259.535997 295.488 
L 260.18835 295.35871 
L 260.405802 295.110933 
L 261.058155 295.345351 
L 261.493057 295.24047 
L 261.92796 295.357588 
L 262.362862 295.266838 
L 262.797764 294.983067 
L 263.450118 293.65279 
L 263.667569 293.454464 
L 264.102471 293.357752 
L 264.972275 291.885313 
L 265.407178 291.604152 
L 265.84208 290.987857 
L 266.494433 289.655068 
L 267.581689 288.552336 
L 268.016591 288.698216 
L 268.234043 288.737845 
L 268.451494 288.62336 
L 268.886396 288.099223 
L 269.103847 288.001591 
L 269.973652 286.56427 
L 270.626005 285.637277 
L 271.060907 285.817489 
L 271.49581 285.049774 
L 271.713261 284.965119 
L 271.930712 285.07434 
L 272.583065 286.0869 
L 273.235419 285.309571 
L 273.45287 285.06508 
L 273.887772 284.858734 
L 274.105223 284.709758 
L 274.757577 284.685163 
L 275.192479 284.209207 
L 275.40993 283.741308 
L 275.627381 283.542261 
L 275.844832 283.536933 
L 277.149539 282.20281 
L 277.584441 281.687929 
L 278.019344 281.854089 
L 278.671697 281.703232 
L 279.106599 282.345745 
L 279.541502 283.02764 
L 280.411306 283.31518 
L 281.06366 283.951656 
L 281.281111 284.011961 
L 281.716013 283.723435 
L 282.150915 283.89534 
L 282.368366 283.812008 
L 282.585817 283.969885 
L 283.238171 283.739399 
L 283.673073 283.108143 
L 283.890524 283.146204 
L 284.760329 284.706311 
L 284.97778 284.877137 
L 285.195231 284.867522 
L 285.847584 284.11023 
L 286.499938 283.956761 
L 286.93484 283.929211 
L 287.152291 283.748283 
L 287.587194 283.600177 
L 288.456998 282.412951 
L 288.674449 282.371478 
L 288.8919 282.546559 
L 289.109352 282.568487 
L 289.326803 282.470835 
L 289.761705 282.679381 
L 291.066412 282.165753 
L 291.501314 282.034965 
L 291.936216 282.31304 
L 292.371119 282.740717 
L 292.58857 283.017378 
L 293.023472 282.950485 
L 293.458374 282.721078 
L 293.675825 282.757449 
L 293.893277 282.917775 
L 294.328179 283.437293 
L 294.763081 283.538191 
L 295.415434 283.171083 
L 295.632886 283.105583 
L 295.850337 283.375555 
L 296.067788 283.18507 
L 296.50269 283.171962 
L 299.112104 263.579283 
L 301.069164 251.949341 
L 303.026224 243.205813 
L 306.287991 231.473996 
L 308.245051 226.12141 
L 309.549758 223.088049 
L 310.202112 221.99635 
L 310.854465 221.213594 
L 311.72427 219.888632 
L 312.376623 219.003803 
L 313.898781 216.458891 
L 316.073292 212.514006 
L 316.508195 211.929834 
L 317.160548 211.420315 
L 319.335059 208.629698 
L 319.987413 208.025508 
L 321.074668 207.049026 
L 321.727022 206.594162 
L 323.031729 206.05389 
L 323.684082 205.984365 
L 324.771338 205.406564 
L 325.641142 205.067368 
L 326.728398 204.453736 
L 329.12036 203.319576 
L 331.947225 202.711972 
L 333.034481 201.937468 
L 336.296248 199.962202 
L 338.035857 199.673372 
L 338.470759 199.622055 
L 339.123113 199.494462 
L 343.689587 199.300341 
L 344.124489 199.364502 
L 344.994293 199.153246 
L 345.864098 198.800532 
L 347.386256 198.697455 
L 349.995669 198.38324 
L 350.865474 198.20225 
L 352.387632 198.202875 
L 353.039985 198.203991 
L 354.127241 198.18672 
L 355.649399 198.386111 
L 356.301752 198.364006 
L 357.82391 198.408653 
L 359.563519 198.140541 
L 360.215873 198.142933 
L 360.650775 198.169298 
L 361.738031 198.159523 
L 362.172933 198.16502 
L 363.912542 197.695145 
L 364.782347 197.915837 
L 365.217249 198.032099 
L 369.131369 198.121994 
L 369.783723 198.040158 
L 370.218625 198.146017 
L 370.653527 198.20801 
L 371.523332 198.409142 
L 373.697843 198.409296 
L 374.785099 198.734142 
L 375.220001 198.883491 
L 377.177061 198.888426 
L 377.829415 198.629039 
L 378.481768 198.259901 
L 380.003926 197.464704 
L 384.352949 196.555841 
L 385.222753 196.769958 
L 386.092558 196.842397 
L 386.962363 196.821702 
L 387.832167 196.769335 
L 388.267069 196.739213 
L 388.919423 196.814643 
L 390.006678 196.748154 
L 391.093934 196.998621 
L 391.528836 196.940469 
L 391.963739 197.027441 
L 394.790603 196.76334 
L 395.225506 196.63055 
L 395.660408 196.634015 
L 398.487273 196.00819 
L 398.487273 196.00819 
" style="fill:none;stroke:#000000;stroke-linecap:square;stroke-width:1.5;"/>
   </g>
   <g id="line2d_19">
    <path clip-path="url(#p1d062162f1)" d="M 73.832727 196.643144 
L 75.354885 196.874332 
L 75.789787 196.867933 
L 76.22469 196.877378 
L 76.659592 196.827076 
L 77.529397 196.898707 
L 77.964299 196.822395 
L 78.18175 196.795274 
L 78.834103 197.044317 
L 79.051555 196.893228 
L 79.486457 192.895363 
L 80.791164 181.600616 
L 81.878419 173.802562 
L 82.748224 168.409687 
L 84.052931 161.49704 
L 85.357637 155.838198 
L 86.009991 153.194574 
L 87.314698 147.848214 
L 88.184502 144.759788 
L 88.619404 143.700252 
L 89.489209 141.001855 
L 91.228818 136.876638 
L 92.533525 134.509058 
L 93.620781 132.688645 
L 94.273134 131.609745 
L 94.708036 130.741773 
L 94.925487 130.534073 
L 97.31745 126.594841 
L 99.057059 124.440697 
L 99.491961 124.038337 
L 99.926864 123.589313 
L 101.666473 122.065451 
L 101.883924 122.079998 
L 102.536277 121.664532 
L 103.188631 121.41325 
L 103.623533 121.068246 
L 104.493337 120.499121 
L 104.710789 120.285192 
L 105.145691 120.182212 
L 106.450398 119.03747 
L 108.407458 117.720082 
L 108.624909 117.717929 
L 109.277262 117.474077 
L 109.929616 117.641096 
L 110.147067 117.52969 
L 110.364518 117.616123 
L 112.104127 117.370197 
L 112.539029 117.539153 
L 112.973932 117.611584 
L 113.408834 117.423083 
L 113.843736 117.562688 
L 114.49609 117.451558 
L 114.713541 117.286392 
L 115.148443 117.261633 
L 115.583345 117.053578 
L 116.888052 116.669928 
L 118.41021 116.489806 
L 119.497466 116.676451 
L 120.149819 116.525614 
L 120.36727 116.559363 
L 121.237075 116.293822 
L 121.454526 116.342828 
L 122.541782 115.939032 
L 122.976684 116.102855 
L 123.629037 116.043876 
L 124.06394 116.529476 
L 124.498842 116.498605 
L 125.151195 116.104653 
L 125.586098 116.077048 
L 126.238451 115.886717 
L 126.673353 115.531856 
L 126.890804 115.585621 
L 127.325707 115.855289 
L 127.760609 116.020217 
L 128.195511 116.145181 
L 129.065316 116.238546 
L 130.370023 116.91261 
L 130.804925 116.684165 
L 131.239827 116.526618 
L 132.109632 115.690933 
L 132.544534 115.570911 
L 132.979436 115.687126 
L 133.849241 115.304819 
L 134.284143 115.104711 
L 134.501594 115.120257 
L 134.936496 115.361633 
L 135.58885 115.397887 
L 136.023752 115.607763 
L 136.676105 116.230517 
L 137.328459 116.266477 
L 137.763361 116.322087 
L 138.198263 116.669169 
L 138.633166 116.698684 
L 139.50297 116.518279 
L 140.155324 116.672757 
L 140.590226 116.41465 
L 141.025128 116.081101 
L 141.46003 116.129477 
L 141.894933 116.291208 
L 142.329835 116.111087 
L 142.547286 115.936932 
L 142.982188 115.952519 
L 143.634542 116.074169 
L 144.504346 115.831524 
L 144.939249 115.838141 
L 145.374151 115.756036 
L 145.809053 115.659297 
L 146.461407 115.695465 
L 146.896309 115.733242 
L 147.11376 115.76033 
L 147.766113 115.498626 
L 148.201016 115.297633 
L 148.418467 115.378658 
L 148.853369 115.274982 
L 149.288271 115.525056 
L 149.505722 115.548306 
L 149.940625 115.788636 
L 150.158076 115.789998 
L 150.592978 116.009433 
L 151.02788 116.056564 
L 151.462783 115.531479 
L 152.332587 115.646406 
L 152.767489 115.56464 
L 153.202392 115.070381 
L 153.637294 115.003734 
L 153.854745 115.16623 
L 154.289647 115.716286 
L 154.72455 115.808985 
L 154.942001 115.728139 
L 156.464159 116.125101 
L 156.68161 116.09482 
L 157.116512 116.17167 
L 157.768866 116.179938 
L 158.203768 116.475672 
L 158.421219 116.416668 
L 158.856121 116.077503 
L 160.160828 115.859737 
L 160.378279 115.702702 
L 160.59573 115.761255 
L 161.030633 116.14383 
L 161.682986 116.628959 
L 163.422595 116.334862 
L 163.857497 116.615114 
L 164.727302 116.501268 
L 164.944753 116.533602 
L 165.597106 116.035386 
L 168.858874 114.836423 
L 169.293776 114.873256 
L 169.946129 114.612876 
L 170.16358 114.744836 
L 170.381031 114.679192 
L 170.598483 114.432582 
L 171.685738 114.385079 
L 173.207896 114.479479 
L 173.86025 114.702542 
L 174.295152 114.716856 
L 174.730054 114.837408 
L 176.034761 114.877139 
L 176.252212 115.043069 
L 176.469663 115.028355 
L 177.122017 114.345164 
L 177.339468 114.272991 
L 177.991821 114.565136 
L 178.861626 114.663445 
L 179.513979 114.268219 
L 179.73143 114.328408 
L 180.166333 114.206608 
L 180.601235 114.115221 
L 181.688491 113.50861 
L 182.123393 113.638786 
L 182.775746 113.50955 
L 183.210648 113.461614 
L 183.645551 113.887917 
L 184.297904 114.148171 
L 184.950258 114.09811 
L 186.472416 114.317549 
L 187.124769 114.825683 
L 187.777122 114.750856 
L 188.212025 114.558243 
L 188.646927 114.561663 
L 189.081829 114.655764 
L 189.516731 114.351288 
L 189.951634 114.47094 
L 190.821438 114.172461 
L 191.038889 114.066907 
L 191.473792 114.173485 
L 191.908694 114.375202 
L 192.561047 113.818767 
L 192.778498 113.489214 
L 192.99595 113.445069 
L 193.430852 113.609287 
L 193.865754 113.485532 
L 194.735559 113.853714 
L 194.95301 113.739014 
L 195.387912 113.925753 
L 196.257717 114.779437 
L 197.127521 115.123425 
L 197.562423 114.79899 
L 197.997326 114.981322 
L 198.432228 115.12849 
L 199.519484 115.470644 
L 200.171837 115.376641 
L 200.606739 115.568493 
L 200.82419 115.523948 
L 201.476544 115.955948 
L 201.693995 116.091786 
L 202.128897 116.513493 
L 202.5638 116.324824 
L 203.433604 115.931586 
L 203.868506 115.83894 
L 205.173213 115.427265 
L 205.608115 115.20952 
L 205.825567 115.106183 
L 206.260469 115.601158 
L 206.912822 115.776766 
L 207.782627 115.153665 
L 208.217529 115.31508 
L 209.087334 115.470266 
L 209.522236 115.555313 
L 211.044394 115.569543 
L 211.479296 115.563709 
L 211.914198 115.540603 
L 212.349101 115.571559 
L 212.566552 115.567068 
L 213.218905 116.016212 
L 214.306161 116.568226 
L 214.741063 116.515189 
L 215.175965 116.649381 
L 215.610868 116.477406 
L 216.04577 116.329244 
L 216.480672 116.111151 
L 217.567928 116.46831 
L 218.220281 116.049052 
L 219.524988 115.179443 
L 219.95989 115.522736 
L 220.177342 115.363228 
L 221.047146 115.529236 
L 221.264597 115.477596 
L 222.351853 115.956083 
L 222.786755 116.268705 
L 223.439109 115.947778 
L 223.874011 116.115842 
L 224.308913 116.409516 
L 224.743815 116.852491 
L 224.961267 116.821727 
L 225.61362 117.093031 
L 226.048522 117.44711 
L 227.135778 117.424333 
L 227.353229 117.326871 
L 227.788131 117.732189 
L 228.223034 117.706086 
L 228.440485 117.768381 
L 229.092838 117.586774 
L 229.52774 117.736779 
L 230.180094 117.497266 
L 230.614996 117.057367 
L 231.049898 116.852538 
L 231.919703 116.090783 
L 232.572056 115.86277 
L 233.006959 115.672283 
L 233.22441 115.735254 
L 233.876763 115.577678 
L 234.094214 115.514591 
L 235.398921 113.880685 
L 235.833823 113.745366 
L 236.268726 113.63534 
L 236.703628 113.724006 
L 237.13853 113.910753 
L 238.225786 114.13839 
L 238.660688 114.187519 
L 239.09559 114.344874 
L 239.530493 114.295491 
L 240.182846 114.479844 
L 240.400297 114.426217 
L 240.835199 114.631185 
L 241.705004 114.388236 
L 242.357357 114.517452 
L 242.79226 114.589331 
L 243.444613 114.817257 
L 244.096966 115.101913 
L 245.184222 116.412297 
L 245.619124 116.148339 
L 245.836576 115.930456 
L 248.66344 115.344648 
L 248.880891 115.201659 
L 249.533245 115.321218 
L 249.968147 115.376981 
L 250.403049 115.168976 
L 251.055403 114.850283 
L 251.490305 114.762349 
L 252.36011 114.314849 
L 252.795012 114.245771 
L 253.229914 114.402516 
L 253.447365 114.526989 
L 254.534621 113.99598 
L 254.969523 114.314234 
L 255.621877 114.290723 
L 256.491681 114.359627 
L 257.361486 114.174752 
L 257.578937 114.233302 
L 257.796388 114.164167 
L 258.23129 113.651471 
L 258.448741 113.703485 
L 258.666193 113.608765 
L 259.318546 112.873069 
L 260.405802 112.07931 
L 260.840704 111.593324 
L 261.058155 111.479148 
L 261.275606 111.236311 
L 261.493057 111.290238 
L 262.797764 112.625415 
L 263.232666 112.964924 
L 263.667569 112.741101 
L 264.102471 112.711051 
L 264.972275 113.285325 
L 265.407178 113.553144 
L 266.711885 113.207102 
L 266.929336 113.260962 
L 267.364238 113.594104 
L 267.79914 113.731276 
L 269.103847 114.109386 
L 269.7562 113.218396 
L 270.408554 112.929435 
L 270.626005 112.75865 
L 270.843456 112.771427 
L 271.930712 113.354889 
L 272.148163 113.340184 
L 272.583065 113.101818 
L 273.235419 113.062165 
L 273.670321 113.162185 
L 273.887772 112.995396 
L 274.322674 113.141009 
L 274.757577 113.03817 
L 275.844832 113.138208 
L 276.279735 113.065318 
L 276.714637 113.429957 
L 277.149539 113.374947 
L 278.454246 113.958503 
L 279.106599 114.414362 
L 279.758953 114.459736 
L 280.411306 114.28809 
L 280.846208 114.564112 
L 281.06366 114.527179 
L 282.368366 114.96666 
L 283.02072 114.730181 
L 283.890524 114.29656 
L 284.107975 114.299028 
L 284.760329 114.008862 
L 285.412682 113.968174 
L 286.282487 114.42562 
L 287.369742 114.941221 
L 287.587194 115.036846 
L 288.022096 114.751048 
L 289.761705 113.478278 
L 290.196607 112.983059 
L 290.414058 112.903867 
L 290.631509 112.686722 
L 291.066412 112.620477 
L 291.501314 112.046023 
L 291.718765 112.059477 
L 292.371119 112.456834 
L 294.328179 112.363495 
L 294.980532 112.101676 
L 295.197983 112.115752 
L 295.850337 111.305901 
L 296.067788 111.278023 
L 296.285239 111.126623 
L 296.50269 111.325842 
L 297.155044 117.290817 
L 298.024848 124.398706 
L 299.329555 132.89621 
L 300.416811 139.553628 
L 301.286615 143.81339 
L 303.461126 153.277457 
L 304.983284 158.372416 
L 307.157796 164.166139 
L 308.462503 167.03098 
L 310.854465 171.400534 
L 311.941721 172.830246 
L 313.463879 174.773741 
L 314.551134 175.900866 
L 315.203488 176.491491 
L 316.725646 177.827429 
L 317.160548 178.087845 
L 318.247804 178.955553 
L 319.552511 179.716009 
L 320.639766 180.360909 
L 321.509571 180.952493 
L 323.24918 181.95517 
L 324.118984 182.311743 
L 328.902909 184.505937 
L 332.599579 186.467488 
L 333.686834 187.033366 
L 337.166052 188.124672 
L 338.035857 188.267277 
L 338.470759 188.409072 
L 338.905662 188.443208 
L 339.775466 188.591599 
L 340.42782 188.620196 
L 341.732526 188.674397 
L 342.167429 188.682611 
L 343.689587 188.669068 
L 344.776842 188.786053 
L 345.864098 188.76475 
L 347.386256 188.696533 
L 351.300376 189.017341 
L 351.95273 189.084427 
L 356.736655 189.45807 
L 359.128617 189.436278 
L 364.129993 189.567442 
L 364.999798 189.598912 
L 365.652151 189.667493 
L 366.304505 189.790166 
L 368.913918 190.268456 
L 369.783723 190.532987 
L 373.915294 190.970246 
L 375.00255 190.87272 
L 375.437452 190.962378 
L 375.872355 190.982306 
L 376.524708 191.081013 
L 380.438828 191.181957 
L 381.091182 191.133655 
L 382.61334 191.123433 
L 383.048242 191.012578 
L 383.918047 191.001627 
L 384.352949 191.02586 
L 386.52746 190.940744 
L 387.614716 191.078952 
L 388.48452 191.00256 
L 388.919423 191.03437 
L 389.571776 191.044014 
L 391.093934 190.935617 
L 391.746288 190.914277 
L 392.616092 190.809679 
L 392.833543 190.840538 
L 393.268445 190.728689 
L 393.920799 190.771227 
L 394.573152 190.745605 
L 396.530213 190.691842 
L 397.400017 190.522822 
L 397.834919 190.530021 
L 398.05237 190.447215 
L 398.487273 190.531247 
L 398.487273 190.531247 
" style="fill:none;stroke:#000000;stroke-linecap:square;stroke-width:1.5;"/>
   </g>
   <g id="patch_3">
    <path d="M 57.6 307.584 
L 57.6 41.472 
" style="fill:none;stroke:#000000;stroke-linecap:square;stroke-linejoin:miter;stroke-width:0.8;"/>
   </g>
   <g id="patch_4">
    <path d="M 414.72 307.584 
L 414.72 41.472 
" style="fill:none;stroke:#000000;stroke-linecap:square;stroke-linejoin:miter;stroke-width:0.8;"/>
   </g>
   <g id="patch_5">
    <path d="M 57.6 307.584 
L 414.72 307.584 
" style="fill:none;stroke:#000000;stroke-linecap:square;stroke-linejoin:miter;stroke-width:0.8;"/>
   </g>
   <g id="patch_6">
    <path d="M 57.6 41.472 
L 414.72 41.472 
" style="fill:none;stroke:#000000;stroke-linecap:square;stroke-linejoin:miter;stroke-width:0.8;"/>
   </g>
  </g>
 </g>
 <defs>
  <clipPath id="p1d062162f1">
   <rect height="266.112" width="357.12" x="57.6" y="41.472"/>
  </clipPath>
 </defs>
</svg>
