<?xml version="1.0" encoding="utf-8" standalone="no"?>
<!DOCTYPE svg PUBLIC "-//W3C//DTD SVG 1.1//EN"
  "http://www.w3.org/Graphics/SVG/1.1/DTD/svg11.dtd">
<svg height="345.6pt" version="1.1" viewBox="0 0 460.8 345.6" width="460.8pt" xmlns="http://www.w3.org/2000/svg" xmlns:xlink="http://www.w3.org/1999/xlink">
 <metadata>
  <rdf:RDF xmlns:cc="http://creativecommons.org/ns#" xmlns:dc="http://purl.org/dc/elements/1.1/" xmlns:rdf="http://www.w3.org/1999/02/22-rdf-syntax-ns#">
   <cc:Work>
    <dc:type rdf:resource="http://purl.org/dc/dcmitype/StillImage"/>
    <dc:date>2024-08-06T14:45:04.156523</dc:date>
    <dc:format>image/svg+xml</dc:format>
    <dc:creator>
     <cc:Agent>
      <dc:title>Matplotlib v3.4.2, https://matplotlib.org/</dc:title>
     </cc:Agent>
    </dc:creator>
   </cc:Work>
  </rdf:RDF>
 </metadata>
 <defs>
  <style type="text/css">*{stroke-linecap:butt;stroke-linejoin:round;}</style>
 </defs>
 <g id="figure_1">
  <g id="patch_1">
   <path d="M 0 345.6 
L 460.8 345.6 
L 460.8 0 
L 0 0 
z
" style="fill:#ffffff;"/>
  </g>
  <g id="axes_1">
   <g id="patch_2">
    <path d="M 57.6 307.584 
L 414.72 307.584 
L 414.72 41.472 
L 57.6 41.472 
z
" style="fill:#ffffff;"/>
   </g>
   <g id="matplotlib.axis_1">
    <g id="xtick_1">
     <g id="line2d_1">
      <defs>
       <path d="M 0 0 
L 0 3.5 
" id="m6e2b3e1217" style="stroke:#000000;stroke-width:0.8;"/>
      </defs>
      <g>
       <use style="stroke:#000000;stroke-width:0.8;" x="59.701804" xlink:href="#m6e2b3e1217" y="307.584"/>
      </g>
     </g>
     <g id="text_1">
      <!-- 0.75 -->
      <g transform="translate(48.568992 322.182437)scale(0.1 -0.1)">
       <defs>
        <path d="M 2034 4250 
Q 1547 4250 1301 3770 
Q 1056 3291 1056 2328 
Q 1056 1369 1301 889 
Q 1547 409 2034 409 
Q 2525 409 2770 889 
Q 3016 1369 3016 2328 
Q 3016 3291 2770 3770 
Q 2525 4250 2034 4250 
z
M 2034 4750 
Q 2819 4750 3233 4129 
Q 3647 3509 3647 2328 
Q 3647 1150 3233 529 
Q 2819 -91 2034 -91 
Q 1250 -91 836 529 
Q 422 1150 422 2328 
Q 422 3509 836 4129 
Q 1250 4750 2034 4750 
z
" id="DejaVuSans-30" transform="scale(0.015625)"/>
        <path d="M 684 794 
L 1344 794 
L 1344 0 
L 684 0 
L 684 794 
z
" id="DejaVuSans-2e" transform="scale(0.015625)"/>
        <path d="M 525 4666 
L 3525 4666 
L 3525 4397 
L 1831 0 
L 1172 0 
L 2766 4134 
L 525 4134 
L 525 4666 
z
" id="DejaVuSans-37" transform="scale(0.015625)"/>
        <path d="M 691 4666 
L 3169 4666 
L 3169 4134 
L 1269 4134 
L 1269 2991 
Q 1406 3038 1543 3061 
Q 1681 3084 1819 3084 
Q 2600 3084 3056 2656 
Q 3513 2228 3513 1497 
Q 3513 744 3044 326 
Q 2575 -91 1722 -91 
Q 1428 -91 1123 -41 
Q 819 9 494 109 
L 494 744 
Q 775 591 1075 516 
Q 1375 441 1709 441 
Q 2250 441 2565 725 
Q 2881 1009 2881 1497 
Q 2881 1984 2565 2268 
Q 2250 2553 1709 2553 
Q 1456 2553 1204 2497 
Q 953 2441 691 2322 
L 691 4666 
z
" id="DejaVuSans-35" transform="scale(0.015625)"/>
       </defs>
       <use xlink:href="#DejaVuSans-30"/>
       <use x="63.623047" xlink:href="#DejaVuSans-2e"/>
       <use x="95.410156" xlink:href="#DejaVuSans-37"/>
       <use x="159.033203" xlink:href="#DejaVuSans-35"/>
      </g>
     </g>
    </g>
    <g id="xtick_2">
     <g id="line2d_2">
      <g>
       <use style="stroke:#000000;stroke-width:0.8;" x="99.713241" xlink:href="#m6e2b3e1217" y="307.584"/>
      </g>
     </g>
     <g id="text_2">
      <!-- 1.00 -->
      <g transform="translate(88.580428 322.182437)scale(0.1 -0.1)">
       <defs>
        <path d="M 794 531 
L 1825 531 
L 1825 4091 
L 703 3866 
L 703 4441 
L 1819 4666 
L 2450 4666 
L 2450 531 
L 3481 531 
L 3481 0 
L 794 0 
L 794 531 
z
" id="DejaVuSans-31" transform="scale(0.015625)"/>
       </defs>
       <use xlink:href="#DejaVuSans-31"/>
       <use x="63.623047" xlink:href="#DejaVuSans-2e"/>
       <use x="95.410156" xlink:href="#DejaVuSans-30"/>
       <use x="159.033203" xlink:href="#DejaVuSans-30"/>
      </g>
     </g>
    </g>
    <g id="xtick_3">
     <g id="line2d_3">
      <g>
       <use style="stroke:#000000;stroke-width:0.8;" x="139.724677" xlink:href="#m6e2b3e1217" y="307.584"/>
      </g>
     </g>
     <g id="text_3">
      <!-- 1.25 -->
      <g transform="translate(128.591864 322.182437)scale(0.1 -0.1)">
       <defs>
        <path d="M 1228 531 
L 3431 531 
L 3431 0 
L 469 0 
L 469 531 
Q 828 903 1448 1529 
Q 2069 2156 2228 2338 
Q 2531 2678 2651 2914 
Q 2772 3150 2772 3378 
Q 2772 3750 2511 3984 
Q 2250 4219 1831 4219 
Q 1534 4219 1204 4116 
Q 875 4013 500 3803 
L 500 4441 
Q 881 4594 1212 4672 
Q 1544 4750 1819 4750 
Q 2544 4750 2975 4387 
Q 3406 4025 3406 3419 
Q 3406 3131 3298 2873 
Q 3191 2616 2906 2266 
Q 2828 2175 2409 1742 
Q 1991 1309 1228 531 
z
" id="DejaVuSans-32" transform="scale(0.015625)"/>
       </defs>
       <use xlink:href="#DejaVuSans-31"/>
       <use x="63.623047" xlink:href="#DejaVuSans-2e"/>
       <use x="95.410156" xlink:href="#DejaVuSans-32"/>
       <use x="159.033203" xlink:href="#DejaVuSans-35"/>
      </g>
     </g>
    </g>
    <g id="xtick_4">
     <g id="line2d_4">
      <g>
       <use style="stroke:#000000;stroke-width:0.8;" x="179.736113" xlink:href="#m6e2b3e1217" y="307.584"/>
      </g>
     </g>
     <g id="text_4">
      <!-- 1.50 -->
      <g transform="translate(168.6033 322.182437)scale(0.1 -0.1)">
       <use xlink:href="#DejaVuSans-31"/>
       <use x="63.623047" xlink:href="#DejaVuSans-2e"/>
       <use x="95.410156" xlink:href="#DejaVuSans-35"/>
       <use x="159.033203" xlink:href="#DejaVuSans-30"/>
      </g>
     </g>
    </g>
    <g id="xtick_5">
     <g id="line2d_5">
      <g>
       <use style="stroke:#000000;stroke-width:0.8;" x="219.747549" xlink:href="#m6e2b3e1217" y="307.584"/>
      </g>
     </g>
     <g id="text_5">
      <!-- 1.75 -->
      <g transform="translate(208.614737 322.182437)scale(0.1 -0.1)">
       <use xlink:href="#DejaVuSans-31"/>
       <use x="63.623047" xlink:href="#DejaVuSans-2e"/>
       <use x="95.410156" xlink:href="#DejaVuSans-37"/>
       <use x="159.033203" xlink:href="#DejaVuSans-35"/>
      </g>
     </g>
    </g>
    <g id="xtick_6">
     <g id="line2d_6">
      <g>
       <use style="stroke:#000000;stroke-width:0.8;" x="259.758985" xlink:href="#m6e2b3e1217" y="307.584"/>
      </g>
     </g>
     <g id="text_6">
      <!-- 2.00 -->
      <g transform="translate(248.626173 322.182437)scale(0.1 -0.1)">
       <use xlink:href="#DejaVuSans-32"/>
       <use x="63.623047" xlink:href="#DejaVuSans-2e"/>
       <use x="95.410156" xlink:href="#DejaVuSans-30"/>
       <use x="159.033203" xlink:href="#DejaVuSans-30"/>
      </g>
     </g>
    </g>
    <g id="xtick_7">
     <g id="line2d_7">
      <g>
       <use style="stroke:#000000;stroke-width:0.8;" x="299.770421" xlink:href="#m6e2b3e1217" y="307.584"/>
      </g>
     </g>
     <g id="text_7">
      <!-- 2.25 -->
      <g transform="translate(288.637609 322.182437)scale(0.1 -0.1)">
       <use xlink:href="#DejaVuSans-32"/>
       <use x="63.623047" xlink:href="#DejaVuSans-2e"/>
       <use x="95.410156" xlink:href="#DejaVuSans-32"/>
       <use x="159.033203" xlink:href="#DejaVuSans-35"/>
      </g>
     </g>
    </g>
    <g id="xtick_8">
     <g id="line2d_8">
      <g>
       <use style="stroke:#000000;stroke-width:0.8;" x="339.781858" xlink:href="#m6e2b3e1217" y="307.584"/>
      </g>
     </g>
     <g id="text_8">
      <!-- 2.50 -->
      <g transform="translate(328.649045 322.182437)scale(0.1 -0.1)">
       <use xlink:href="#DejaVuSans-32"/>
       <use x="63.623047" xlink:href="#DejaVuSans-2e"/>
       <use x="95.410156" xlink:href="#DejaVuSans-35"/>
       <use x="159.033203" xlink:href="#DejaVuSans-30"/>
      </g>
     </g>
    </g>
    <g id="xtick_9">
     <g id="line2d_9">
      <g>
       <use style="stroke:#000000;stroke-width:0.8;" x="379.793294" xlink:href="#m6e2b3e1217" y="307.584"/>
      </g>
     </g>
     <g id="text_9">
      <!-- 2.75 -->
      <g transform="translate(368.660481 322.182437)scale(0.1 -0.1)">
       <use xlink:href="#DejaVuSans-32"/>
       <use x="63.623047" xlink:href="#DejaVuSans-2e"/>
       <use x="95.410156" xlink:href="#DejaVuSans-37"/>
       <use x="159.033203" xlink:href="#DejaVuSans-35"/>
      </g>
     </g>
    </g>
   </g>
   <g id="matplotlib.axis_2">
    <g id="ytick_1">
     <g id="line2d_10">
      <defs>
       <path d="M 0 0 
L -3.5 0 
" id="m5cfd5c29d3" style="stroke:#000000;stroke-width:0.8;"/>
      </defs>
      <g>
       <use style="stroke:#000000;stroke-width:0.8;" x="57.6" xlink:href="#m5cfd5c29d3" y="274.258395"/>
      </g>
     </g>
     <g id="text_10">
      <!-- −100 -->
      <g transform="translate(23.132812 278.057613)scale(0.1 -0.1)">
       <defs>
        <path d="M 678 2272 
L 4684 2272 
L 4684 1741 
L 678 1741 
L 678 2272 
z
" id="DejaVuSans-2212" transform="scale(0.015625)"/>
       </defs>
       <use xlink:href="#DejaVuSans-2212"/>
       <use x="83.789062" xlink:href="#DejaVuSans-31"/>
       <use x="147.412109" xlink:href="#DejaVuSans-30"/>
       <use x="211.035156" xlink:href="#DejaVuSans-30"/>
      </g>
     </g>
    </g>
    <g id="ytick_2">
     <g id="line2d_11">
      <g>
       <use style="stroke:#000000;stroke-width:0.8;" x="57.6" xlink:href="#m5cfd5c29d3" y="232.558423"/>
      </g>
     </g>
     <g id="text_11">
      <!-- −80 -->
      <g transform="translate(29.495313 236.357641)scale(0.1 -0.1)">
       <defs>
        <path d="M 2034 2216 
Q 1584 2216 1326 1975 
Q 1069 1734 1069 1313 
Q 1069 891 1326 650 
Q 1584 409 2034 409 
Q 2484 409 2743 651 
Q 3003 894 3003 1313 
Q 3003 1734 2745 1975 
Q 2488 2216 2034 2216 
z
M 1403 2484 
Q 997 2584 770 2862 
Q 544 3141 544 3541 
Q 544 4100 942 4425 
Q 1341 4750 2034 4750 
Q 2731 4750 3128 4425 
Q 3525 4100 3525 3541 
Q 3525 3141 3298 2862 
Q 3072 2584 2669 2484 
Q 3125 2378 3379 2068 
Q 3634 1759 3634 1313 
Q 3634 634 3220 271 
Q 2806 -91 2034 -91 
Q 1263 -91 848 271 
Q 434 634 434 1313 
Q 434 1759 690 2068 
Q 947 2378 1403 2484 
z
M 1172 3481 
Q 1172 3119 1398 2916 
Q 1625 2713 2034 2713 
Q 2441 2713 2670 2916 
Q 2900 3119 2900 3481 
Q 2900 3844 2670 4047 
Q 2441 4250 2034 4250 
Q 1625 4250 1398 4047 
Q 1172 3844 1172 3481 
z
" id="DejaVuSans-38" transform="scale(0.015625)"/>
       </defs>
       <use xlink:href="#DejaVuSans-2212"/>
       <use x="83.789062" xlink:href="#DejaVuSans-38"/>
       <use x="147.412109" xlink:href="#DejaVuSans-30"/>
      </g>
     </g>
    </g>
    <g id="ytick_3">
     <g id="line2d_12">
      <g>
       <use style="stroke:#000000;stroke-width:0.8;" x="57.6" xlink:href="#m5cfd5c29d3" y="190.858451"/>
      </g>
     </g>
     <g id="text_12">
      <!-- −60 -->
      <g transform="translate(29.495313 194.657669)scale(0.1 -0.1)">
       <defs>
        <path d="M 2113 2584 
Q 1688 2584 1439 2293 
Q 1191 2003 1191 1497 
Q 1191 994 1439 701 
Q 1688 409 2113 409 
Q 2538 409 2786 701 
Q 3034 994 3034 1497 
Q 3034 2003 2786 2293 
Q 2538 2584 2113 2584 
z
M 3366 4563 
L 3366 3988 
Q 3128 4100 2886 4159 
Q 2644 4219 2406 4219 
Q 1781 4219 1451 3797 
Q 1122 3375 1075 2522 
Q 1259 2794 1537 2939 
Q 1816 3084 2150 3084 
Q 2853 3084 3261 2657 
Q 3669 2231 3669 1497 
Q 3669 778 3244 343 
Q 2819 -91 2113 -91 
Q 1303 -91 875 529 
Q 447 1150 447 2328 
Q 447 3434 972 4092 
Q 1497 4750 2381 4750 
Q 2619 4750 2861 4703 
Q 3103 4656 3366 4563 
z
" id="DejaVuSans-36" transform="scale(0.015625)"/>
       </defs>
       <use xlink:href="#DejaVuSans-2212"/>
       <use x="83.789062" xlink:href="#DejaVuSans-36"/>
       <use x="147.412109" xlink:href="#DejaVuSans-30"/>
      </g>
     </g>
    </g>
    <g id="ytick_4">
     <g id="line2d_13">
      <g>
       <use style="stroke:#000000;stroke-width:0.8;" x="57.6" xlink:href="#m5cfd5c29d3" y="149.158479"/>
      </g>
     </g>
     <g id="text_13">
      <!-- −40 -->
      <g transform="translate(29.495313 152.957697)scale(0.1 -0.1)">
       <defs>
        <path d="M 2419 4116 
L 825 1625 
L 2419 1625 
L 2419 4116 
z
M 2253 4666 
L 3047 4666 
L 3047 1625 
L 3713 1625 
L 3713 1100 
L 3047 1100 
L 3047 0 
L 2419 0 
L 2419 1100 
L 313 1100 
L 313 1709 
L 2253 4666 
z
" id="DejaVuSans-34" transform="scale(0.015625)"/>
       </defs>
       <use xlink:href="#DejaVuSans-2212"/>
       <use x="83.789062" xlink:href="#DejaVuSans-34"/>
       <use x="147.412109" xlink:href="#DejaVuSans-30"/>
      </g>
     </g>
    </g>
    <g id="ytick_5">
     <g id="line2d_14">
      <g>
       <use style="stroke:#000000;stroke-width:0.8;" x="57.6" xlink:href="#m5cfd5c29d3" y="107.458507"/>
      </g>
     </g>
     <g id="text_14">
      <!-- −20 -->
      <g transform="translate(29.495313 111.257725)scale(0.1 -0.1)">
       <use xlink:href="#DejaVuSans-2212"/>
       <use x="83.789062" xlink:href="#DejaVuSans-32"/>
       <use x="147.412109" xlink:href="#DejaVuSans-30"/>
      </g>
     </g>
    </g>
    <g id="ytick_6">
     <g id="line2d_15">
      <g>
       <use style="stroke:#000000;stroke-width:0.8;" x="57.6" xlink:href="#m5cfd5c29d3" y="65.758535"/>
      </g>
     </g>
     <g id="text_15">
      <!-- 0 -->
      <g transform="translate(44.2375 69.557753)scale(0.1 -0.1)">
       <use xlink:href="#DejaVuSans-30"/>
      </g>
     </g>
    </g>
   </g>
   <g id="line2d_16">
    <path clip-path="url(#pf4fc50b526)" d="M 73.832727 188.373178 
L 74.149155 188.275357 
L 75.414864 188.21988 
L 75.731292 188.069876 
L 76.364147 187.779607 
L 76.838788 187.478676 
L 77.155215 187.307636 
L 77.471643 187.241811 
L 77.629856 186.892884 
L 78.262711 183.659976 
L 78.737352 182.89667 
L 79.211994 182.802372 
L 79.844848 182.822321 
L 80.31949 182.809322 
L 80.952344 182.796476 
L 81.585199 183.041805 
L 81.901627 182.952761 
L 82.218054 182.672758 
L 82.692695 182.641931 
L 83.641978 182.903939 
L 85.540542 183.330671 
L 86.648038 183.94103 
L 87.280893 184.06157 
L 87.597321 184.076954 
L 88.071962 183.876055 
L 88.388389 183.83944 
L 88.704817 183.617087 
L 89.179458 183.715714 
L 90.603381 183.644917 
L 91.078022 183.863176 
L 91.552663 183.924588 
L 92.976587 184.443422 
L 93.767656 184.591585 
L 94.084083 184.591942 
L 94.40051 184.68069 
L 95.033365 184.716977 
L 95.508006 184.839333 
L 95.824434 184.833066 
L 96.457289 184.859134 
L 96.773716 184.855944 
L 97.406571 185.082466 
L 98.355853 185.266117 
L 98.988708 185.567322 
L 100.254418 185.801833 
L 100.570845 185.81027 
L 100.729059 185.870546 
L 101.2037 185.792269 
L 101.361914 185.739394 
L 101.678341 185.87759 
L 101.994769 185.85297 
L 102.46941 185.94178 
L 103.576906 185.794355 
L 104.209761 186.017909 
L 104.684402 186.03132 
L 105.000829 186.129642 
L 105.47547 186.206899 
L 105.633684 187.928385 
L 106.108325 195.443327 
L 107.374035 210.129671 
L 108.323317 219.402276 
L 109.589027 230.431037 
L 111.329378 242.012109 
L 114.019011 257.283529 
L 116.550431 268.165342 
L 116.866858 268.004466 
L 120.34756 278.222408 
L 120.663987 278.783918 
L 122.087911 280.905754 
L 123.037193 282.513985 
L 123.511834 283.379408 
L 123.828262 283.536477 
L 124.461116 284.239266 
L 124.935758 284.785619 
L 125.410399 284.96408 
L 126.201467 285.7507 
L 126.517895 285.275503 
L 126.676108 285.400012 
L 126.992536 285.847565 
L 127.467177 286.115022 
L 127.783604 285.9864 
L 128.416459 287.048427 
L 128.8911 287.831843 
L 129.998596 288.588149 
L 130.789665 289.143171 
L 131.106093 289.321496 
L 131.264306 289.317112 
L 131.580734 289.102133 
L 131.897161 289.228788 
L 132.530016 290.048771 
L 132.846443 290.213896 
L 133.162871 290.020435 
L 133.637512 289.956789 
L 134.112153 288.891928 
L 134.745008 287.72911 
L 135.219649 287.770877 
L 135.852504 287.943489 
L 136.801786 288.279698 
L 137.909282 289.202818 
L 138.067496 289.222801 
L 138.700351 289.685617 
L 139.016778 289.982855 
L 139.491419 290.195636 
L 140.124274 290.282035 
L 140.440702 290.45629 
L 140.757129 290.553819 
L 141.23177 290.831955 
L 141.706411 291.13107 
L 142.181053 291.476951 
L 143.604976 291.828806 
L 144.237831 291.980303 
L 145.187113 292.331038 
L 145.503541 292.229595 
L 145.978182 292.106606 
L 146.927464 292.487597 
L 147.402105 292.825576 
L 149.142456 293.859511 
L 149.617097 293.79186 
L 150.56638 293.841219 
L 151.041021 293.637395 
L 151.990303 293.469694 
L 152.148517 293.570621 
L 152.464944 293.474517 
L 152.781372 293.261271 
L 152.939585 293.325835 
L 153.256013 293.256987 
L 155.312791 294.144784 
L 155.787432 294.289846 
L 155.945646 294.363513 
L 156.262073 294.185324 
L 156.736715 294.375904 
L 157.369569 294.772966 
L 157.844211 295.156045 
L 158.160638 295.107868 
L 158.477065 295.140058 
L 158.635279 295.175719 
L 159.10992 294.990617 
L 159.426348 294.993553 
L 159.742775 295.06524 
L 160.217416 295.120412 
L 161.166699 295.446141 
L 161.483126 295.294755 
L 161.799553 295.266844 
L 162.115981 295.243689 
L 164.172759 295.115596 
L 164.805614 294.96986 
L 165.280255 295.066932 
L 165.596683 295.148715 
L 166.229537 295.100275 
L 166.704179 295.028677 
L 167.17882 294.865559 
L 167.811675 294.876269 
L 168.128102 294.959421 
L 168.602743 294.680397 
L 169.235598 294.047302 
L 170.026667 292.132821 
L 170.343094 292.007323 
L 170.501308 291.889092 
L 170.817735 291.949261 
L 170.975949 291.832873 
L 172.241659 292.247125 
L 172.558086 292.599922 
L 172.874514 292.569641 
L 173.190941 292.40501 
L 173.507368 292.576519 
L 173.98201 292.80778 
L 174.298437 292.733078 
L 174.614864 292.761579 
L 174.773078 292.700837 
L 175.089506 292.815269 
L 175.564147 292.884967 
L 176.197002 292.866027 
L 176.355215 292.70188 
L 176.98807 292.830897 
L 177.304498 292.947675 
L 177.620925 292.798865 
L 177.937352 292.217978 
L 178.411994 291.984878 
L 179.044848 292.251115 
L 179.51949 292.695793 
L 179.677703 292.647953 
L 179.835917 292.414645 
L 179.994131 292.441389 
L 180.468772 291.94658 
L 180.943413 291.724499 
L 181.418054 290.943146 
L 181.734482 288.955569 
L 182.050909 288.779885 
L 182.367337 288.948246 
L 182.841978 288.415128 
L 183.158405 287.206372 
L 183.474833 285.992147 
L 183.633046 285.759384 
L 184.107687 286.082286 
L 184.582329 286.571 
L 184.898756 286.649793 
L 185.05697 286.631498 
L 185.689825 287.059462 
L 185.848038 287.046648 
L 186.639107 287.589386 
L 186.955534 287.207136 
L 187.430175 287.378868 
L 187.904817 287.901451 
L 189.170526 288.861705 
L 189.486954 288.82163 
L 190.752663 289.475115 
L 191.385518 289.605947 
L 191.860159 289.835126 
L 192.334801 289.789639 
L 192.651228 289.97798 
L 193.758724 290.830847 
L 194.549793 291.667837 
L 195.024434 291.861947 
L 195.182648 291.710841 
L 195.657289 291.78768 
L 195.973716 291.582244 
L 196.764785 290.805598 
L 196.922998 290.866664 
L 197.555853 291.553206 
L 197.714067 291.660547 
L 198.188708 292.288674 
L 198.663349 292.558106 
L 199.13799 293.009279 
L 199.770845 293.324542 
L 199.929059 292.952945 
L 200.245486 292.088668 
L 200.561914 292.153876 
L 200.878341 292.383748 
L 201.194769 292.322802 
L 201.511196 292.490235 
L 201.985837 292.626205 
L 202.460478 292.962575 
L 203.409761 293.532149 
L 204.200829 293.681319 
L 204.517257 293.926467 
L 204.67547 293.797408 
L 204.991898 293.981854 
L 205.308325 293.981197 
L 205.782967 294.047483 
L 206.890463 294.471385 
L 208.4726 294.450511 
L 208.947241 294.5127 
L 209.421882 294.07625 
L 209.580096 294.025842 
L 209.896523 294.103278 
L 210.687592 293.992982 
L 211.004019 294.041073 
L 211.162233 294.028402 
L 211.47866 294.146197 
L 211.953301 294.207523 
L 212.74437 294.386362 
L 213.060797 294.652782 
L 214.484721 294.603451 
L 215.117576 294.529355 
L 215.434003 294.447293 
L 215.908644 294.540886 
L 216.383285 294.164314 
L 216.541499 294.189977 
L 217.490781 293.415938 
L 217.965423 292.815327 
L 218.598278 292.807474 
L 218.914705 292.863768 
L 219.54756 292.682005 
L 220.338628 293.03054 
L 220.655056 292.942586 
L 220.971483 293.064201 
L 221.287911 293.098008 
L 222.870048 292.820331 
L 223.186475 292.554955 
L 223.344689 292.608403 
L 224.293971 292.239145 
L 225.08504 292.132263 
L 226.034322 291.915262 
L 226.508963 291.908361 
L 226.825391 291.83026 
L 227.932887 292.150385 
L 228.407528 292.154117 
L 228.882169 292.269064 
L 229.35681 292.446666 
L 229.989665 292.663101 
L 230.306093 292.617233 
L 230.780734 292.717547 
L 231.097161 292.697715 
L 232.046443 293.114246 
L 232.521085 293.220563 
L 232.679298 293.180088 
L 233.153939 292.784021 
L 233.470367 292.92639 
L 233.786794 292.803841 
L 234.103222 292.904774 
L 234.261435 293.056659 
L 234.736077 293.104306 
L 235.368931 293.401077 
L 235.843573 293.593966 
L 236.634641 293.504514 
L 236.951069 293.305015 
L 237.42571 293.332064 
L 238.374992 293.962693 
L 238.691419 293.872906 
L 239.640702 293.310865 
L 240.115343 293.245234 
L 240.906411 292.93473 
L 242.96319 291.487501 
L 244.070686 291.79905 
L 244.387113 291.772545 
L 244.703541 292.006632 
L 244.861754 291.922636 
L 245.019968 291.977931 
L 245.494609 291.66674 
L 246.127464 290.696082 
L 246.285678 290.549461 
L 247.076746 288.334156 
L 247.23496 288.156682 
L 247.867815 288.260759 
L 248.342456 288.531759 
L 248.658884 288.646343 
L 248.975311 288.993205 
L 249.291738 289.11106 
L 249.608166 289.018428 
L 250.082807 289.312276 
L 250.241021 289.271201 
L 250.873876 289.534829 
L 251.190303 289.407737 
L 251.50673 288.956102 
L 252.139585 287.979224 
L 252.77244 287.031612 
L 253.088868 286.608942 
L 253.405295 286.808522 
L 253.879936 287.06941 
L 254.354577 287.209791 
L 254.829219 287.597944 
L 255.462073 287.879824 
L 256.885997 288.235744 
L 257.835279 288.965922 
L 258.784561 289.651405 
L 259.733844 290.175563 
L 260.050271 290.278041 
L 260.208485 290.324108 
L 260.524912 290.55003 
L 260.999553 290.636341 
L 261.315981 290.677252 
L 262.107049 291.214135 
L 262.423477 291.52244 
L 262.739904 291.528109 
L 263.689187 291.455551 
L 263.8474 289.735997 
L 264.322041 282.178986 
L 265.271324 271.326377 
L 266.853461 256.905048 
L 267.960957 248.795506 
L 269.226667 241.300324 
L 271.599872 229.67007 
L 272.549155 225.69577 
L 274.447719 219.286469 
L 275.238788 216.772322 
L 276.18807 213.599285 
L 277.295566 210.628489 
L 277.928421 208.979453 
L 279.826986 205.129967 
L 283.940542 198.0713 
L 284.25697 197.761527 
L 284.731611 197.163045 
L 285.364466 196.426902 
L 285.680893 196.026902 
L 287.895885 193.596519 
L 288.52874 192.835228 
L 289.319809 192.220223 
L 290.585518 190.996936 
L 291.060159 190.627015 
L 291.693014 190.262211 
L 292.167656 189.899699 
L 292.642297 189.8134 
L 292.958724 189.624849 
L 293.591579 189.460264 
L 294.224434 189.116302 
L 294.382648 189.018241 
L 294.699075 189.061236 
L 295.490144 188.38157 
L 295.806571 188.351333 
L 296.59764 187.686834 
L 297.072281 187.439691 
L 297.863349 186.874919 
L 298.179777 186.645263 
L 298.496204 186.479506 
L 298.812632 186.283274 
L 299.287273 186.121671 
L 300.236555 185.744786 
L 300.552982 185.52716 
L 300.86941 185.288336 
L 301.027624 185.216451 
L 301.660478 184.58795 
L 302.293333 184.141244 
L 302.609761 183.856268 
L 303.242616 183.13036 
L 304.982967 182.447973 
L 305.299394 182.436192 
L 305.774035 182.163996 
L 306.40689 181.847206 
L 306.881531 181.493048 
L 307.197959 181.407458 
L 307.830813 181.056245 
L 309.096523 180.051057 
L 309.412951 179.766548 
L 309.729378 179.550162 
L 310.045805 179.274493 
L 310.204019 179.035055 
L 310.836874 178.944693 
L 311.469729 178.703302 
L 312.260797 178.062885 
L 313.051866 177.740698 
L 313.526507 177.668961 
L 314.159362 177.546212 
L 315.425072 177.342937 
L 315.741499 177.527242 
L 315.899713 177.641693 
L 316.690781 177.448704 
L 318.589346 177.705464 
L 318.905774 177.525514 
L 319.380415 177.447375 
L 319.855056 177.394165 
L 320.646124 177.667553 
L 320.962552 177.738539 
L 321.278979 177.7764 
L 322.544689 177.972411 
L 322.861116 178.069671 
L 323.177544 178.228772 
L 324.126826 178.439723 
L 324.443254 178.379715 
L 324.759681 178.523546 
L 325.392536 178.526105 
L 326.183604 178.613981 
L 326.658246 178.84083 
L 328.873238 179.234858 
L 330.138947 179.730314 
L 331.404657 179.985907 
L 332.037512 180.404355 
L 336.309282 182.128577 
L 336.62571 182.043896 
L 336.942137 182.230097 
L 339.157129 182.33432 
L 339.789984 182.688906 
L 340.264625 182.915511 
L 340.739266 183.278585 
L 341.055694 183.343558 
L 342.16319 183.682035 
L 345.802105 184.279165 
L 346.593174 184.214463 
L 347.226029 184.353086 
L 347.858884 184.523727 
L 348.649952 184.729971 
L 349.441021 184.80994 
L 351.181372 185.076831 
L 351.814226 184.947868 
L 353.23815 185.236072 
L 353.554577 185.200865 
L 354.029219 185.092035 
L 354.187432 185.040786 
L 354.820287 185.270132 
L 355.136715 185.250073 
L 355.453142 185.371772 
L 355.927783 185.374176 
L 357.193493 185.327176 
L 358.300989 185.35401 
L 358.933844 185.114971 
L 359.408485 184.939843 
L 359.724912 184.828653 
L 360.357767 184.738368 
L 360.674195 184.7501 
L 360.990622 184.651669 
L 362.256332 184.66914 
L 363.205614 184.492689 
L 363.838469 184.552493 
L 363.996683 184.537246 
L 364.154896 184.638889 
L 365.104179 184.407612 
L 365.420606 184.399299 
L 366.053461 184.373302 
L 367.160957 184.337829 
L 367.477384 184.315077 
L 367.793812 184.401184 
L 368.426667 184.666146 
L 368.901308 184.696774 
L 369.375949 184.767604 
L 369.692376 184.793535 
L 370.167018 184.83237 
L 370.483445 184.84111 
L 370.799872 184.721422 
L 371.274514 184.777385 
L 372.698437 184.562974 
L 373.331292 184.501113 
L 374.280574 184.58711 
L 375.704498 184.333734 
L 376.020925 184.327003 
L 377.286635 183.69483 
L 377.91949 183.089433 
L 378.077703 183.114809 
L 378.552344 182.886387 
L 378.868772 182.864926 
L 379.185199 182.922836 
L 381.083764 182.751831 
L 381.558405 182.471226 
L 382.033046 182.421462 
L 382.507687 182.261877 
L 382.982329 182.228914 
L 383.615183 182.259348 
L 384.564466 182.358665 
L 385.039107 182.28536 
L 385.513748 182.2314 
L 385.830175 182.213615 
L 386.304817 182.230754 
L 386.779458 182.031487 
L 387.095885 181.935554 
L 388.519809 181.526397 
L 390.418373 181.568092 
L 390.734801 181.685 
L 391.525869 181.504063 
L 391.684083 181.521957 
L 392.00051 181.37211 
L 392.316938 181.332205 
L 392.633365 181.297108 
L 393.424434 181.397276 
L 393.740861 181.407271 
L 393.899075 181.522226 
L 394.53193 181.492844 
L 394.848357 181.59845 
L 395.164785 181.581075 
L 395.481212 181.616013 
L 396.272281 181.456654 
L 398.329059 181.625754 
L 398.487273 181.579153 
L 398.487273 181.579153 
" style="fill:none;stroke:#000000;stroke-linecap:square;stroke-width:1.5;"/>
   </g>
   <g id="line2d_17">
    <path clip-path="url(#pf4fc50b526)" d="M 73.832727 185.877335 
L 74.940223 185.85912 
L 75.573078 185.671924 
L 76.205933 185.833311 
L 76.52236 185.94048 
L 76.838788 185.866516 
L 77.629856 185.882407 
L 79.211994 185.680353 
L 79.528421 185.485349 
L 80.003062 185.450412 
L 80.477703 185.352817 
L 80.794131 185.456316 
L 81.426986 185.441004 
L 81.901627 185.15151 
L 84.116619 184.706606 
L 84.274833 184.747425 
L 85.382329 184.325085 
L 85.698756 184.292782 
L 86.173397 184.338391 
L 86.489825 184.33639 
L 87.439107 184.366179 
L 88.071962 184.200664 
L 88.86303 184.121558 
L 90.12874 184.073027 
L 90.445167 184.029565 
L 90.603381 184.046596 
L 90.919809 183.921904 
L 91.710877 184.100206 
L 92.343732 184.071869 
L 92.501946 183.916452 
L 93.609442 184.037997 
L 94.558724 184.531192 
L 97.881212 185.261581 
L 98.355853 185.37583 
L 98.672281 185.384798 
L 98.988708 185.407732 
L 100.096204 185.551133 
L 100.570845 185.634795 
L 100.887273 185.653467 
L 101.2037 185.598812 
L 101.361914 185.513882 
L 101.678341 185.635513 
L 105.47547 185.375362 
L 105.791898 187.22848 
L 106.582967 191.252311 
L 107.532249 195.162658 
L 108.481531 198.811335 
L 109.430813 202.164094 
L 110.854737 206.787804 
L 111.645805 208.913471 
L 112.595088 211.310893 
L 113.227943 212.174173 
L 113.860797 213.275156 
L 114.968293 215.744278 
L 115.442935 216.767109 
L 118.290781 221.572818 
L 119.398278 223.389943 
L 120.663987 225.312163 
L 122.246124 227.277539 
L 122.562552 227.382211 
L 122.878979 227.684946 
L 123.35362 228.077822 
L 123.828262 228.406467 
L 124.61933 228.88162 
L 125.568612 229.865588 
L 126.676108 230.540105 
L 126.834322 230.533025 
L 127.941818 231.49779 
L 128.258246 231.829253 
L 128.574673 231.957887 
L 129.049314 232.203741 
L 130.631451 232.832818 
L 130.947879 233.10819 
L 131.738947 233.398031 
L 132.213589 233.567408 
L 133.321085 233.908926 
L 133.795726 234.199017 
L 134.586794 234.575401 
L 135.219649 234.542321 
L 135.852504 234.869271 
L 136.168931 235.159931 
L 136.327145 235.099917 
L 138.858565 236.657399 
L 139.174992 236.838468 
L 139.333206 236.794905 
L 139.966061 237.125928 
L 140.757129 237.245212 
L 141.073557 237.371741 
L 141.864625 237.814788 
L 142.181053 237.918742 
L 142.655694 238.054135 
L 144.079617 238.485483 
L 144.396045 238.417139 
L 146.927464 238.87106 
L 147.718533 239.097492 
L 148.193174 239.13801 
L 148.984242 239.57584 
L 149.30067 239.799156 
L 150.091738 240.175725 
L 151.673876 240.241316 
L 152.464944 240.430594 
L 152.623158 240.333519 
L 152.939585 240.390343 
L 153.57244 240.342467 
L 155.312791 240.167548 
L 155.945646 239.944306 
L 156.420287 240.011821 
L 156.736715 239.937673 
L 157.211356 240.12392 
L 158.951707 240.374528 
L 159.10992 240.41803 
L 159.426348 240.321503 
L 159.742775 240.367487 
L 160.533844 240.216342 
L 160.850271 240.298074 
L 161.483126 240.313653 
L 161.799553 240.40357 
L 162.115981 240.35085 
L 162.907049 240.324825 
L 163.223477 240.181272 
L 163.698118 240.081068 
L 164.172759 240.061985 
L 165.280255 240.223861 
L 165.596683 240.232067 
L 165.91311 240.207402 
L 166.229537 240.150571 
L 166.545965 240.117946 
L 167.337033 240.147158 
L 167.653461 239.862589 
L 169.868453 239.752931 
L 170.18488 239.825678 
L 170.817735 240.148433 
L 171.134163 240.133945 
L 171.45059 240.248208 
L 172.241659 240.108394 
L 173.190941 240.327362 
L 173.823796 240.442433 
L 174.140223 240.384541 
L 174.456651 240.164282 
L 175.405933 239.904902 
L 175.72236 240.202619 
L 176.513429 240.255601 
L 176.98807 240.018498 
L 177.304498 239.777946 
L 178.095566 239.557152 
L 178.411994 239.439418 
L 179.044848 239.206834 
L 180.152344 239.313576 
L 180.468772 239.218264 
L 180.943413 238.704165 
L 181.418054 238.563391 
L 182.209123 238.705634 
L 182.52555 238.789054 
L 182.841978 238.648106 
L 183.316619 238.670641 
L 183.949474 239.117706 
L 185.05697 239.268361 
L 185.373397 239.266025 
L 185.689825 239.378284 
L 186.006252 239.450204 
L 186.322679 239.726262 
L 187.113748 239.874051 
L 188.695885 240.129232 
L 189.012313 240.15127 
L 189.961595 240.5118 
L 190.910877 240.497731 
L 192.018373 240.889559 
L 192.334801 240.940317 
L 193.916938 241.354876 
L 194.233365 241.635145 
L 194.708006 241.724534 
L 195.340861 241.782211 
L 195.973716 241.807602 
L 196.290144 241.804651 
L 196.606571 241.855465 
L 196.922998 242.012455 
L 197.39764 242.02959 
L 197.872281 242.091344 
L 199.296204 241.877401 
L 199.612632 241.910314 
L 199.929059 241.791217 
L 200.245486 241.647413 
L 200.878341 241.663913 
L 201.194769 241.631149 
L 201.66941 241.485275 
L 202.302265 241.798818 
L 203.567974 241.57132 
L 203.884402 241.53579 
L 204.359043 241.440712 
L 204.67547 241.665266 
L 205.150112 241.554078 
L 205.466539 241.351464 
L 205.94118 241.302981 
L 206.257608 241.194447 
L 206.574035 241.164835 
L 207.20689 241.088581 
L 207.839745 240.790852 
L 209.580096 240.763104 
L 210.054737 240.841125 
L 210.371164 240.752577 
L 211.004019 240.695561 
L 211.320447 240.501763 
L 211.47866 240.559815 
L 211.795088 240.509404 
L 211.953301 240.55936 
L 212.427943 240.268502 
L 212.902584 240.25156 
L 213.377225 240.225462 
L 215.275789 240.071348 
L 215.592217 240.137682 
L 215.908644 240.240665 
L 216.225072 240.217718 
L 216.541499 240.069298 
L 217.01614 240.004549 
L 217.648995 240.006629 
L 217.965423 239.956668 
L 218.440064 239.810022 
L 218.914705 239.884565 
L 219.231132 239.863497 
L 219.705774 239.865852 
L 220.180415 239.727088 
L 220.496842 239.781174 
L 221.604338 239.753237 
L 222.870048 239.445197 
L 223.186475 239.583177 
L 225.717895 239.809117 
L 225.876108 239.869182 
L 226.192536 239.853215 
L 226.983604 239.988095 
L 228.0911 239.999898 
L 228.723955 240.279419 
L 230.780734 240.55102 
L 231.097161 240.681217 
L 231.413589 240.680439 
L 232.204657 240.832799 
L 232.521085 240.871801 
L 232.837512 240.93852 
L 233.153939 241.133966 
L 233.628581 241.195941 
L 234.103222 241.172083 
L 234.419649 241.094059 
L 234.736077 241.248255 
L 235.052504 241.178586 
L 235.368931 241.20694 
L 235.685359 241.297 
L 236.634641 241.287217 
L 236.951069 241.272942 
L 237.42571 241.113885 
L 237.742137 240.950148 
L 238.216778 240.990025 
L 241.539266 241.315612 
L 241.855694 241.371902 
L 242.013907 241.45531 
L 242.330335 241.397829 
L 242.804976 241.57871 
L 245.019968 241.664566 
L 245.336396 241.708773 
L 246.127464 241.563122 
L 246.443892 241.233017 
L 247.709601 240.823992 
L 248.184242 240.489586 
L 248.975311 240.175751 
L 249.924593 239.975044 
L 250.241021 239.9114 
L 250.399234 240.017209 
L 250.873876 239.834422 
L 251.664944 239.671312 
L 253.405295 238.567578 
L 253.721722 238.587237 
L 254.196364 238.77679 
L 254.671005 238.83197 
L 255.145646 238.973688 
L 256.411356 239.225175 
L 256.727783 239.22376 
L 257.044211 239.077165 
L 257.835279 239.137499 
L 258.468134 239.070128 
L 258.784561 238.791301 
L 259.733844 238.418058 
L 260.208485 238.517392 
L 260.683126 238.340677 
L 261.157767 238.452805 
L 261.315981 238.421675 
L 261.948836 238.696387 
L 262.898118 238.331284 
L 263.214545 238.085664 
L 263.530973 238.054551 
L 263.689187 238.180278 
L 263.8474 237.479074 
L 264.322041 234.403419 
L 265.11311 230.488363 
L 265.745965 227.887027 
L 266.853461 223.379088 
L 267.64453 220.845957 
L 270.492376 213.038667 
L 271.441659 210.726657 
L 272.074514 209.22573 
L 273.18201 206.822962 
L 273.973078 205.194715 
L 274.289506 204.694833 
L 275.397002 202.543623 
L 276.662711 200.338025 
L 276.979139 199.973235 
L 277.45378 199.245752 
L 277.928421 198.652624 
L 278.403062 198.00547 
L 283.624115 191.894555 
L 283.782329 191.893239 
L 283.940542 191.624813 
L 284.098756 191.758764 
L 284.25697 190.967355 
L 284.731611 180.842464 
L 285.048038 178.675608 
L 285.364466 177.838286 
L 285.997321 177.022869 
L 286.630175 176.623242 
L 286.946603 176.268342 
L 287.26303 175.907757 
L 288.054099 175.38518 
L 289.478022 174.054247 
L 289.79445 173.891759 
L 290.110877 173.88149 
L 290.427305 173.718287 
L 290.901946 173.529758 
L 291.218373 173.330658 
L 291.376587 173.354167 
L 292.642297 172.60192 
L 292.958724 172.199248 
L 293.433365 171.955148 
L 294.382648 171.549597 
L 294.857289 171.640385 
L 295.490144 171.315159 
L 296.122998 171.371967 
L 297.072281 171.174946 
L 297.546922 170.758315 
L 299.445486 169.956548 
L 299.920128 169.833592 
L 300.394769 169.5833 
L 300.552982 169.58789 
L 300.86941 169.364893 
L 301.185837 169.391266 
L 301.976906 169.083868 
L 302.293333 169.076155 
L 302.609761 169.15623 
L 302.926188 169.134494 
L 303.400829 169.239346 
L 304.666539 168.992006 
L 305.299394 169.081915 
L 305.615821 169.015691 
L 305.932249 169.016278 
L 306.248676 168.911012 
L 308.938309 170.645899 
L 309.412951 170.730104 
L 309.887592 170.754338 
L 310.045805 170.854196 
L 310.204019 170.804824 
L 310.520447 171.010503 
L 310.836874 171.019305 
L 311.153301 171.196785 
L 311.469729 171.249435 
L 311.786156 171.478087 
L 312.102584 171.57356 
L 316.21614 174.27571 
L 316.532568 174.442307 
L 317.007209 174.884469 
L 318.431132 175.73002 
L 318.74756 175.732609 
L 319.063987 175.846405 
L 319.380415 175.851123 
L 319.855056 176.027587 
L 320.487911 176.200972 
L 320.804338 176.294079 
L 321.278979 176.498872 
L 322.544689 177.339535 
L 323.968612 178.20864 
L 324.28504 178.369314 
L 324.601467 178.432581 
L 325.234322 178.946082 
L 325.867177 179.166676 
L 326.341818 179.518061 
L 329.189665 179.768244 
L 331.879298 179.380582 
L 332.512153 179.621719 
L 335.043573 180.301804 
L 335.36 180.313646 
L 336.942137 180.651016 
L 338.049633 181.023399 
L 338.366061 181.105047 
L 338.682488 181.217434 
L 340.106411 181.995089 
L 341.213907 181.73998 
L 342.16319 181.859566 
L 342.796045 181.706332 
L 344.219968 181.830746 
L 344.694609 181.930793 
L 345.485678 181.978894 
L 345.802105 181.948422 
L 346.118533 182.027634 
L 346.909601 182.3606 
L 347.384242 182.565641 
L 347.70067 182.589129 
L 348.017097 182.726155 
L 350.073876 182.957068 
L 351.023158 183.160936 
L 351.497799 183.504728 
L 351.656013 183.583809 
L 351.97244 183.506241 
L 352.447081 183.71237 
L 353.554577 184.052793 
L 354.187432 184.338018 
L 354.50386 184.256927 
L 355.294928 184.565133 
L 355.769569 184.638585 
L 356.085997 184.686517 
L 356.718852 184.612736 
L 357.035279 184.575515 
L 357.351707 184.506179 
L 357.668134 184.648991 
L 357.826348 184.630601 
L 358.142775 184.782556 
L 358.77563 184.96547 
L 359.092057 185.01965 
L 359.724912 184.934068 
L 361.148836 185.197241 
L 361.939904 184.840205 
L 364.471324 184.791628 
L 365.420606 184.995815 
L 367.160957 184.754743 
L 367.477384 184.832687 
L 367.793812 184.744789 
L 368.743094 184.960552 
L 370.008804 184.967344 
L 372.698437 185.7018 
L 373.331292 185.499551 
L 374.438788 185.556626 
L 374.913429 185.365107 
L 376.65378 185.144793 
L 378.235917 184.821774 
L 380.450909 185.13852 
L 381.083764 184.956408 
L 381.558405 185.066195 
L 383.298756 185.260562 
L 383.615183 185.213605 
L 384.248038 185.277764 
L 386.46303 185.214051 
L 387.254099 184.296873 
L 387.886954 184.420075 
L 388.678022 184.718632 
L 388.99445 184.670118 
L 389.310877 184.736013 
L 389.627305 184.730225 
L 389.943732 184.742767 
L 390.260159 184.7962 
L 390.576587 184.792395 
L 391.367656 185.022944 
L 392.316938 185.00976 
L 392.633365 184.935799 
L 393.424434 184.948894 
L 394.53193 184.513569 
L 395.164785 183.932974 
L 397.063349 183.852731 
L 397.53799 183.814456 
L 398.487273 183.386225 
L 398.487273 183.386225 
" style="fill:none;stroke:#000000;stroke-linecap:square;stroke-width:1.5;"/>
   </g>
   <g id="line2d_18">
    <path clip-path="url(#pf4fc50b526)" d="M 73.832727 185.45346 
L 76.047719 185.822309 
L 77.78807 185.575339 
L 78.262711 185.680597 
L 78.579139 185.895597 
L 79.686635 186.167046 
L 80.477703 186.582098 
L 80.794131 186.673081 
L 81.268772 186.966416 
L 82.376268 187.210233 
L 83.958405 187.303207 
L 84.433046 187.397761 
L 84.907687 187.492269 
L 85.382329 187.534871 
L 85.85697 187.656098 
L 86.173397 187.693001 
L 86.489825 187.727419 
L 87.122679 187.69043 
L 87.439107 187.783492 
L 87.755534 187.676801 
L 88.071962 187.659826 
L 88.86303 187.615617 
L 89.179458 187.706671 
L 90.286954 187.794543 
L 90.919809 187.677833 
L 91.710877 187.717181 
L 93.134801 187.544614 
L 94.558724 187.78062 
L 95.824434 187.907757 
L 96.299075 187.960049 
L 97.090144 188.063539 
L 98.039426 188.47659 
L 98.355853 188.448801 
L 98.988708 188.598697 
L 99.305136 188.504708 
L 99.621563 188.542078 
L 101.836555 188.253816 
L 102.311196 188.443809 
L 102.627624 188.40819 
L 102.944051 188.398622 
L 103.260478 188.407673 
L 103.576906 188.331111 
L 103.893333 188.390347 
L 104.526188 188.250553 
L 105.000829 188.25492 
L 105.47547 188.170135 
L 105.633684 187.512808 
L 106.266539 183.580032 
L 108.956172 171.98777 
L 111.645805 162.998962 
L 112.753301 159.462465 
L 113.860797 155.95826 
L 114.019011 154.997845 
L 114.177225 155.038576 
L 114.335439 153.511117 
L 114.493652 154.289519 
L 114.651866 151.947754 
L 114.81008 152.037257 
L 114.968293 150.55171 
L 115.126507 147.559822 
L 115.284721 148.777019 
L 115.601148 75.614223 
L 116.075789 151.979833 
L 116.392217 166.40881 
L 116.550431 170.371401 
L 116.708644 170.955769 
L 116.866858 172.179321 
L 117.025072 172.415056 
L 117.183285 172.132855 
L 117.341499 172.453297 
L 117.499713 171.665805 
L 117.657927 171.58417 
L 118.290781 169.507484 
L 118.448995 169.142152 
L 118.923636 167.579352 
L 120.031132 164.27148 
L 120.505774 163.227321 
L 120.980415 162.115181 
L 122.087911 159.255539 
L 122.404338 158.608306 
L 122.878979 157.461981 
L 124.61933 153.588888 
L 124.777544 152.991762 
L 124.935758 152.828575 
L 125.568612 150.587209 
L 125.726826 150.802725 
L 125.88504 149.795514 
L 126.043254 149.733006 
L 126.359681 148.421642 
L 126.517895 148.64649 
L 126.676108 146.357273 
L 126.834322 147.586475 
L 126.992536 142.908833 
L 127.15075 144.598712 
L 127.308963 132.139524 
L 127.467177 83.368503 
L 127.625391 78.682378 
L 127.941818 139.516193 
L 128.258246 163.215525 
L 128.574673 170.531046 
L 128.732887 170.965378 
L 128.8911 172.165548 
L 129.049314 171.816541 
L 129.207528 172.219373 
L 129.365742 172.018118 
L 130.315024 169.856204 
L 130.473238 169.672733 
L 133.004657 163.557395 
L 133.795726 162.270283 
L 134.428581 160.936215 
L 134.745008 160.545568 
L 136.010718 157.479744 
L 137.434641 154.763633 
L 138.22571 152.641446 
L 138.858565 151.243409 
L 139.016778 150.625185 
L 139.174992 150.467511 
L 139.491419 149.275033 
L 139.649633 149.31033 
L 139.807847 148.236904 
L 139.966061 148.33157 
L 140.124274 147.168659 
L 140.282488 147.089038 
L 140.440702 146.13887 
L 140.598915 144.495853 
L 140.757129 145.4789 
L 140.915343 141.34417 
L 141.073557 144.443045 
L 141.23177 121.421486 
L 141.389984 74.94479 
L 141.548198 83.76564 
L 141.864625 141.242744 
L 142.181053 162.826468 
L 142.49748 169.780671 
L 142.813907 171.609698 
L 142.972121 171.248253 
L 143.130335 171.736651 
L 143.288549 171.44749 
L 143.604976 171.512106 
L 143.76319 171.22205 
L 143.921404 171.216173 
L 144.237831 170.740208 
L 144.712472 170.246514 
L 145.503541 169.51074 
L 145.978182 168.939148 
L 146.76925 168.406175 
L 147.243892 168.295372 
L 147.876746 167.906869 
L 148.826029 167.344292 
L 149.142456 167.253022 
L 149.458884 166.880095 
L 149.775311 166.844977 
L 150.56638 165.96999 
L 151.673876 164.948637 
L 151.990303 164.484329 
L 152.30673 164.323415 
L 152.623158 164.127212 
L 152.781372 164.05138 
L 153.097799 163.682736 
L 153.256013 163.622716 
L 153.888868 162.926348 
L 154.205295 162.892246 
L 154.521722 162.577622 
L 155.787432 161.768924 
L 156.262073 161.035071 
L 156.578501 160.481049 
L 156.894928 160.239258 
L 159.10992 156.980813 
L 159.426348 156.902613 
L 160.533844 155.824971 
L 160.850271 155.458625 
L 161.799553 153.935023 
L 163.223477 152.035448 
L 164.172759 149.606393 
L 164.330973 149.53112 
L 164.489187 148.900504 
L 164.6474 148.884565 
L 164.963828 148.009746 
L 165.122041 147.75214 
L 165.280255 147.017586 
L 165.438469 147.090373 
L 165.596683 145.649711 
L 165.754896 145.690952 
L 165.91311 143.879654 
L 166.071324 143.470754 
L 166.229537 142.624486 
L 166.387751 139.513026 
L 166.545965 140.843051 
L 166.862392 70.030451 
L 167.653461 161.568736 
L 167.969888 167.859094 
L 168.286316 169.994982 
L 168.44453 170.036687 
L 168.602743 170.472686 
L 168.760957 170.139614 
L 168.919171 170.382532 
L 171.45059 166.784757 
L 172.399872 165.361736 
L 173.032727 164.789138 
L 173.665582 164.311542 
L 174.931292 162.918979 
L 175.247719 162.71177 
L 175.405933 162.67295 
L 175.880574 162.290088 
L 176.197002 162.014477 
L 176.98807 160.820464 
L 177.462711 160.270463 
L 179.203062 158.849253 
L 179.677703 158.802576 
L 180.310558 158.806156 
L 180.626986 158.805409 
L 180.943413 158.67206 
L 182.367337 157.755881 
L 182.683764 157.382827 
L 183.000191 157.375623 
L 184.582329 155.9003 
L 185.215183 155.501172 
L 185.689825 155.432591 
L 186.164466 155.706916 
L 186.639107 156.101503 
L 186.955534 156.09066 
L 187.271962 155.988359 
L 188.06303 156.165836 
L 188.537671 156.448044 
L 188.854099 156.159909 
L 189.170526 156.283543 
L 189.486954 156.22039 
L 189.803381 156.251278 
L 191.227305 156.225092 
L 191.543732 156.025409 
L 191.860159 156.170984 
L 192.334801 155.779872 
L 192.651228 155.492145 
L 192.967656 155.695984 
L 194.233365 155.718539 
L 194.86622 156.120088 
L 195.815502 156.03182 
L 196.448357 156.725513 
L 196.764785 156.763139 
L 197.081212 156.687302 
L 197.39764 156.806302 
L 198.346922 156.733463 
L 199.13799 156.69988 
L 199.454418 156.71263 
L 200.245486 156.759707 
L 200.4037 156.550032 
L 201.511196 156.478486 
L 201.985837 156.779811 
L 202.776906 157.830671 
L 203.093333 158.03271 
L 203.726188 158.549302 
L 204.200829 158.738562 
L 204.517257 158.970105 
L 205.308325 159.246407 
L 205.624753 159.573057 
L 206.415821 159.780288 
L 206.732249 159.968694 
L 207.523317 160.638021 
L 207.839745 160.871965 
L 208.630813 161.355938 
L 208.947241 161.275998 
L 209.738309 161.604963 
L 209.896523 161.602403 
L 210.371164 161.871153 
L 211.320447 162.365584 
L 212.427943 162.179688 
L 212.586156 162.18485 
L 212.902584 162.437193 
L 213.535439 162.502228 
L 214.326507 162.615412 
L 214.801148 162.892466 
L 214.959362 162.957299 
L 215.750431 162.78513 
L 216.066858 162.865594 
L 216.383285 162.789987 
L 216.699713 162.980863 
L 217.01614 162.840281 
L 217.332568 162.719026 
L 217.490781 162.824205 
L 218.123636 162.606177 
L 218.440064 162.628083 
L 219.705774 163.048642 
L 221.129697 163.143041 
L 221.920766 163.424113 
L 222.55362 163.603129 
L 222.870048 163.75826 
L 223.186475 163.850885 
L 223.502903 164.15065 
L 224.135758 164.022287 
L 224.926826 163.852639 
L 225.559681 164.053734 
L 226.667177 163.828161 
L 226.983604 163.878863 
L 227.774673 163.242417 
L 229.35681 162.828679 
L 231.413589 162.569079 
L 231.730016 162.287952 
L 232.521085 161.866495 
L 232.837512 161.622622 
L 232.995726 161.555949 
L 233.153939 161.351145 
L 234.577863 161.039688 
L 234.89429 160.913227 
L 235.210718 160.90612 
L 235.843573 160.274032 
L 236.318214 160.345832 
L 236.634641 160.339989 
L 238.849633 159.655759 
L 241.381053 159.604011 
L 241.539266 159.504604 
L 242.013907 159.574104 
L 242.330335 159.491159 
L 243.912472 160.149487 
L 244.545327 160.777321 
L 245.019968 161.20901 
L 245.811037 162.035748 
L 246.443892 162.468803 
L 247.076746 163.186844 
L 247.551388 163.609508 
L 248.026029 163.914807 
L 248.342456 163.95003 
L 248.658884 164.106497 
L 249.133525 164.478056 
L 249.449952 164.585918 
L 249.608166 164.629365 
L 250.082807 165.057934 
L 250.557448 165.442271 
L 250.873876 165.579586 
L 251.50673 165.544978 
L 252.139585 165.71948 
L 252.614226 165.699806 
L 253.721722 165.248354 
L 253.879936 165.103451 
L 254.671005 165.058928 
L 254.987432 164.990673 
L 255.30386 165.009823 
L 255.620287 164.928795 
L 255.936715 164.821118 
L 256.253142 164.647324 
L 256.569569 164.531898 
L 256.885997 164.431604 
L 258.784561 163.651401 
L 259.417416 163.082866 
L 259.733844 162.975245 
L 260.366699 163.221859 
L 260.999553 163.509252 
L 263.372759 162.872479 
L 263.689187 162.752153 
L 263.8474 163.376977 
L 264.480255 167.277419 
L 265.745965 172.957928 
L 266.695247 176.302786 
L 268.593812 180.970795 
L 269.543094 182.658559 
L 270.175949 183.565826 
L 270.65059 184.283407 
L 271.441659 185.482314 
L 272.707368 186.671797 
L 273.498437 187.564151 
L 273.973078 188.072169 
L 276.820925 190.093374 
L 278.403062 191.658762 
L 278.71949 191.778248 
L 279.194131 192.116726 
L 279.668772 192.158997 
L 279.985199 192.110222 
L 280.459841 192.003891 
L 280.934482 191.963356 
L 281.409123 191.915035 
L 282.200191 192.04043 
L 282.99126 192.079218 
L 283.307687 192.094179 
L 283.624115 192.102677 
L 283.782329 191.999233 
L 284.25697 192.166672 
L 287.895885 192.407582 
L 289.161595 192.100932 
L 289.478022 192.179893 
L 290.269091 191.977528 
L 292.167656 191.567857 
L 292.80051 191.562795 
L 293.116938 191.543531 
L 293.433365 191.407051 
L 295.173716 191.380561 
L 295.490144 191.284566 
L 295.806571 191.367837 
L 296.439426 191.324443 
L 296.755853 191.286162 
L 298.021563 191.041609 
L 298.179777 191.052292 
L 298.812632 190.766905 
L 299.287273 190.570158 
L 299.920128 190.538161 
L 300.236555 190.577666 
L 300.552982 190.387011 
L 301.027624 190.174363 
L 301.502265 189.959706 
L 302.293333 189.918411 
L 304.824753 188.993565 
L 307.197959 189.038574 
L 307.6726 189.089602 
L 307.989027 189.165392 
L 308.621882 188.938031 
L 309.571164 188.593525 
L 311.627943 188.583096 
L 312.419011 188.312376 
L 313.684721 188.158708 
L 314.634003 187.864947 
L 315.108644 187.891 
L 315.266858 187.880578 
L 315.583285 187.746871 
L 315.899713 187.795444 
L 318.431132 187.681982 
L 318.74756 187.70858 
L 320.804338 187.232092 
L 321.278979 187.248315 
L 321.75362 187.14377 
L 322.070048 187.160823 
L 322.702903 187.107463 
L 323.335758 187.532423 
L 323.652185 187.654828 
L 324.28504 187.83772 
L 325.234322 187.98539 
L 326.183604 188.16025 
L 326.974673 188.17514 
L 327.449314 188.222644 
L 327.765742 188.062959 
L 328.082169 188.059542 
L 328.873238 188.103677 
L 329.664306 188.107198 
L 330.771802 187.982941 
L 331.08823 187.964688 
L 331.562871 188.031252 
L 331.721085 188.086617 
L 332.037512 187.941826 
L 332.512153 187.931446 
L 332.828581 187.925786 
L 333.145008 187.927452 
L 333.619649 187.989062 
L 334.252504 188.087993 
L 335.36 188.25677 
L 335.834641 188.196062 
L 336.467496 188.208542 
L 337.258565 188.305317 
L 337.733206 188.275608 
L 338.049633 188.250019 
L 338.366061 188.191557 
L 338.840702 188.399005 
L 339.157129 188.543342 
L 340.422839 188.873647 
L 342.004976 188.939577 
L 342.479617 189.182019 
L 342.954258 189.295842 
L 343.270686 189.300125 
L 344.536396 188.644736 
L 344.852823 188.585379 
L 345.643892 188.269833 
L 345.960319 188.109079 
L 346.593174 187.623664 
L 347.226029 187.453879 
L 347.542456 187.552504 
L 347.858884 187.598864 
L 348.491738 187.75173 
L 348.96638 187.681968 
L 349.757448 187.738274 
L 350.232089 187.882899 
L 350.548517 187.916144 
L 351.656013 188.37668 
L 353.712791 188.415267 
L 354.345646 188.261059 
L 355.453142 187.997969 
L 355.769569 187.996209 
L 356.085997 187.973971 
L 356.402424 188.1034 
L 357.035279 187.986873 
L 357.351707 188.042591 
L 357.668134 187.934677 
L 358.459203 188.247438 
L 358.77563 188.24944 
L 358.933844 188.275704 
L 359.408485 188.020061 
L 359.724912 188.043466 
L 360.357767 187.958469 
L 360.674195 188.038643 
L 360.990622 187.992541 
L 361.781691 187.87818 
L 362.098118 187.740983 
L 363.996683 187.450086 
L 365.104179 187.684651 
L 365.420606 187.788525 
L 365.895247 187.90951 
L 367.160957 188.012259 
L 367.477384 188.073321 
L 368.58488 188.119221 
L 368.901308 188.038658 
L 369.375949 188.193645 
L 369.692376 188.192817 
L 370.167018 188.100732 
L 370.958086 187.95692 
L 371.274514 188.020347 
L 372.223796 187.532964 
L 372.698437 187.216633 
L 373.331292 187.16316 
L 373.805933 186.98626 
L 374.12236 186.817102 
L 374.597002 186.656856 
L 375.229856 186.708405 
L 375.704498 186.655205 
L 377.761276 186.595297 
L 378.077703 186.796263 
L 378.394131 186.805834 
L 379.818054 186.954997 
L 380.134482 186.9943 
L 380.450909 186.933889 
L 381.083764 187.041273 
L 381.400191 186.923131 
L 382.033046 187.066419 
L 384.089825 186.454379 
L 384.406252 186.544522 
L 385.671962 185.833444 
L 387.095885 185.546583 
L 387.570526 185.43329 
L 388.203381 185.259901 
L 388.519809 185.061072 
L 388.836236 184.981828 
L 388.99445 185.041023 
L 389.785518 184.775861 
L 390.734801 184.537662 
L 391.051228 184.258994 
L 391.209442 184.255299 
L 391.684083 183.99296 
L 392.00051 183.962835 
L 392.475152 184.103637 
L 392.949793 184.158581 
L 394.215502 184.91245 
L 394.848357 185.310631 
L 395.322998 185.48075 
L 396.272281 185.505226 
L 396.746922 185.60472 
L 397.063349 185.66729 
L 397.379777 185.61635 
L 398.487273 185.853009 
L 398.487273 185.853009 
" style="fill:none;stroke:#000000;stroke-linecap:square;stroke-width:1.5;"/>
   </g>
   <g id="line2d_19">
    <path clip-path="url(#pf4fc50b526)" d="M 73.832727 198.389172 
L 74.78201 198.550555 
L 78.420925 199.106754 
L 78.895566 199.281425 
L 79.370207 199.31175 
L 79.844848 199.350546 
L 80.477703 199.216814 
L 82.534482 199.405137 
L 82.850909 199.255275 
L 86.331611 200.070661 
L 86.648038 200.051071 
L 87.122679 200.163402 
L 88.388389 200.225501 
L 89.021244 200.182856 
L 90.445167 200.534204 
L 91.078022 200.535174 
L 92.027305 200.751053 
L 93.451228 200.745235 
L 94.242297 200.568705 
L 94.558724 200.537992 
L 96.299075 200.607243 
L 97.090144 200.787341 
L 97.722998 200.957535 
L 99.621563 200.681351 
L 100.254418 200.733825 
L 103.418692 200.486126 
L 103.576906 200.542823 
L 103.73512 200.446703 
L 104.051547 200.513099 
L 104.526188 200.352994 
L 104.684402 200.517669 
L 104.842616 200.315168 
L 105.000829 200.509873 
L 105.159043 200.518015 
L 105.317257 200.344262 
L 105.47547 200.802643 
L 105.791898 191.501968 
L 106.424753 173.742007 
L 106.899394 163.646644 
L 107.532249 146.677846 
L 107.690463 148.233014 
L 108.00689 73.526148 
L 108.165104 91.78395 
L 108.481531 138.275959 
L 108.639745 148.395608 
L 108.956172 152.37911 
L 109.2726 150.31505 
L 109.905455 142.220756 
L 110.380096 134.594208 
L 110.538309 129.726703 
L 110.696523 129.017825 
L 111.012951 66.650645 
L 111.171164 72.270624 
L 111.487592 121.563232 
L 111.804019 141.851855 
L 112.120447 147.347449 
L 112.27866 147.114261 
L 112.436874 146.520783 
L 113.227943 138.017164 
L 114.019011 124.902962 
L 114.177225 103.593105 
L 114.335439 66.304714 
L 114.493652 63.149653 
L 114.968293 127.590656 
L 115.284721 142.920111 
L 115.601148 146.681276 
L 115.759362 146.634862 
L 116.075789 144.500232 
L 116.550431 139.72623 
L 117.341499 129.375581 
L 117.657927 123.554446 
L 117.81614 116.208014 
L 118.132568 56.988375 
L 118.290781 69.516554 
L 118.765423 131.89106 
L 119.08185 144.475758 
L 119.398278 146.633446 
L 119.556491 146.143147 
L 120.031132 142.809357 
L 120.34756 140.052635 
L 121.296842 129.119237 
L 121.455056 127.436851 
L 121.771483 121.486085 
L 121.929697 101.766255 
L 122.087911 65.372486 
L 122.246124 58.044363 
L 122.878979 135.868646 
L 123.195407 146.296777 
L 123.511834 148.317072 
L 124.144689 144.42537 
L 124.935758 137.065397 
L 125.726826 128.317533 
L 126.043254 122.761326 
L 126.201467 108.929016 
L 126.517895 56.221597 
L 127.308963 141.52328 
L 127.625391 146.806013 
L 127.783604 147.630741 
L 128.100032 146.628618 
L 129.682169 133.487349 
L 129.998596 130.927535 
L 130.631451 121.26009 
L 130.789665 106.377392 
L 131.106093 55.474281 
L 131.42252 97.59123 
L 131.738947 132.61148 
L 132.055375 145.58678 
L 132.371802 148.560794 
L 132.68823 148.10585 
L 133.637512 142.101045 
L 135.061435 131.38884 
L 135.852504 122.496762 
L 136.010718 120.214785 
L 136.168931 110.316376 
L 136.485359 54.427631 
L 136.643573 67.427623 
L 137.118214 130.13365 
L 137.434641 144.633599 
L 137.751069 148.731178 
L 138.067496 148.47627 
L 138.383923 147.033409 
L 139.174992 142.152595 
L 140.915343 128.196669 
L 141.073557 126.40686 
L 141.389984 120.607594 
L 141.548198 101.675492 
L 141.706411 65.808058 
L 141.864625 58.138453 
L 142.49748 135.934886 
L 142.813907 146.547996 
L 143.130335 149.19344 
L 143.446762 148.698924 
L 144.237831 144.616203 
L 146.611037 128.750781 
L 147.243892 121.009013 
L 147.402105 108.152491 
L 147.718533 55.008049 
L 148.03496 96.756727 
L 148.351388 132.146489 
L 148.667815 145.327142 
L 148.984242 149.238345 
L 149.142456 149.612673 
L 149.30067 149.673939 
L 149.617097 148.538709 
L 150.091738 146.048707 
L 151.199234 138.807143 
L 153.256013 124.555875 
L 153.57244 120.049779 
L 153.730654 111.013524 
L 154.047081 55.260282 
L 154.205295 67.83251 
L 154.679936 130.053173 
L 154.996364 144.76379 
L 155.312791 149.297949 
L 155.629219 149.788405 
L 155.787432 149.471526 
L 157.211356 141.869739 
L 158.160638 136.451192 
L 158.951707 131.887205 
L 159.742775 126.700935 
L 159.900989 125.664801 
L 160.217416 120.495177 
L 160.37563 113.092018 
L 160.692057 55.537435 
L 160.850271 65.44486 
L 161.324912 127.575984 
L 161.64134 143.497605 
L 161.957767 148.590963 
L 162.115981 149.06283 
L 162.274195 149.158569 
L 162.432408 149.006613 
L 163.381691 145.603986 
L 164.330973 141.249949 
L 165.280255 136.446614 
L 166.229537 131.70935 
L 166.862392 127.591561 
L 167.337033 122.935597 
L 167.653461 118.456686 
L 167.811675 103.086688 
L 168.128102 54.352025 
L 168.919171 141.436047 
L 169.235598 148.437218 
L 169.393812 149.883031 
L 169.710239 149.891736 
L 170.18488 148.068007 
L 170.975949 144.465819 
L 171.45059 142.345038 
L 173.190941 133.034479 
L 174.140223 126.392686 
L 174.456651 123.560827 
L 174.773078 118.380119 
L 175.247719 56.74435 
L 176.038788 142.397308 
L 176.355215 149.243846 
L 176.513429 150.505827 
L 176.829856 150.842887 
L 177.304498 149.020529 
L 179.51949 137.106005 
L 181.418054 126.980608 
L 181.892695 123.337199 
L 182.209123 117.885018 
L 182.683764 59.404908 
L 183.316619 134.913208 
L 183.633046 145.798431 
L 183.949474 148.687727 
L 184.265901 148.768466 
L 185.215183 144.43606 
L 187.430175 133.548487 
L 188.221244 130.43784 
L 188.379458 129.982035 
L 189.486954 124.046989 
L 190.119809 117.109333 
L 190.278022 110.618619 
L 190.59445 55.275427 
L 190.752663 59.373632 
L 191.227305 124.726863 
L 191.543732 142.168324 
L 191.860159 147.729099 
L 192.176587 148.889449 
L 192.334801 148.786656 
L 192.809442 147.281555 
L 193.284083 145.287126 
L 195.182648 136.288145 
L 197.39764 127.177016 
L 198.188708 120.815396 
L 198.505136 114.899541 
L 198.979777 55.613372 
L 199.770845 141.704133 
L 200.087273 148.316384 
L 200.245486 149.398919 
L 200.561914 149.923107 
L 201.352982 147.150726 
L 202.144051 143.588834 
L 203.567974 137.513754 
L 204.042616 135.713929 
L 205.624753 129.180808 
L 206.257608 124.006467 
L 206.415821 123.031267 
L 206.732249 118.385586 
L 206.890463 99.337942 
L 207.048676 63.519246 
L 207.20689 54.36303 
L 207.997959 140.619696 
L 208.314386 147.401998 
L 208.4726 148.627672 
L 208.630813 148.562535 
L 208.789027 148.731454 
L 209.105455 147.944904 
L 209.896523 144.666742 
L 211.953301 136.162966 
L 212.586156 133.831063 
L 213.693652 128.923711 
L 214.01008 127.030922 
L 214.484721 123.719029 
L 214.801148 120.402337 
L 215.117576 114.709251 
L 215.592217 56.230535 
L 216.225072 132.763039 
L 216.541499 145.048836 
L 216.857927 148.833665 
L 217.174354 149.224376 
L 217.648995 148.002635 
L 219.863987 138.727142 
L 220.81327 134.570406 
L 223.661116 123.705905 
L 224.135758 118.190127 
L 224.293971 115.567591 
L 224.452185 109.657199 
L 224.768612 56.585724 
L 224.926826 58.870575 
L 225.559681 133.540351 
L 225.876108 144.493595 
L 226.192536 148.146421 
L 226.508963 149.0927 
L 226.983604 148.403493 
L 227.616459 146.49094 
L 229.040383 140.521934 
L 230.464306 136.171848 
L 231.255375 134.064433 
L 232.046443 131.259485 
L 233.312153 125.625593 
L 233.470367 125.254316 
L 234.103222 121.717847 
L 234.419649 116.719866 
L 234.577863 111.288402 
L 234.89429 56.839008 
L 235.052504 59.642261 
L 235.685359 134.976573 
L 236.001786 145.986591 
L 236.318214 149.199389 
L 236.634641 149.510273 
L 237.42571 147.032488 
L 239.640702 138.533958 
L 240.273557 136.571586 
L 240.748198 135.392967 
L 242.646762 129.918036 
L 243.121404 128.892966 
L 243.279617 128.513912 
L 244.387113 123.886289 
L 244.861754 118.959666 
L 245.019968 116.601611 
L 245.178182 105.49188 
L 245.494609 53.905592 
L 245.652823 64.390351 
L 246.127464 126.621164 
L 246.443892 143.186323 
L 246.760319 148.582007 
L 247.076746 149.506173 
L 247.23496 149.379584 
L 247.709601 148.092669 
L 248.184242 146.18771 
L 249.291738 140.931211 
L 251.190303 134.005286 
L 251.664944 132.018381 
L 252.614226 128.170478 
L 253.405295 123.384019 
L 253.721722 120.222785 
L 254.03815 114.284487 
L 254.196364 97.151455 
L 254.512791 53.568 
L 255.30386 140.469948 
L 255.620287 148.264097 
L 255.778501 149.798063 
L 256.094928 150.442459 
L 256.411356 149.872513 
L 256.885997 148.126583 
L 258.151707 142.112847 
L 258.942775 138.938952 
L 263.372759 123.493834 
L 263.689187 121.649022 
L 263.8474 124.233102 
L 264.480255 142.703368 
L 265.271324 160.183365 
L 266.062392 172.79569 
L 267.011675 183.870244 
L 267.960957 191.991099 
L 268.910239 197.747812 
L 270.175949 203.313979 
L 270.808804 205.356507 
L 272.074514 208.086835 
L 272.549155 208.889031 
L 273.498437 210.18272 
L 273.814864 210.559716 
L 274.289506 210.996829 
L 275.080574 211.475388 
L 276.346284 211.953403 
L 276.662711 212.117378 
L 278.561276 212.387512 
L 278.877703 212.336594 
L 279.352344 212.359124 
L 279.985199 212.411061 
L 280.459841 212.439188 
L 282.674833 212.722277 
L 282.99126 212.608059 
L 283.465901 212.271626 
L 284.731611 211.645784 
L 287.104817 210.851438 
L 287.579458 210.799172 
L 287.895885 210.691457 
L 288.212313 210.620315 
L 288.686954 210.505042 
L 289.003381 210.464492 
L 290.743732 210.211582 
L 291.218373 209.890035 
L 291.534801 209.787288 
L 292.009442 209.436372 
L 292.325869 209.405724 
L 293.591579 208.966999 
L 294.224434 208.724443 
L 295.015502 208.482504 
L 295.33193 208.387283 
L 295.964785 208.218222 
L 296.755853 207.85753 
L 297.072281 207.932541 
L 297.388708 207.736169 
L 297.705136 207.777864 
L 298.33799 207.403324 
L 298.654418 207.398271 
L 301.027624 207.069525 
L 301.344051 207.137676 
L 302.13512 206.895197 
L 302.451547 206.830959 
L 302.767974 206.786516 
L 303.242616 206.822585 
L 309.096523 206.879564 
L 310.520447 206.669349 
L 311.153301 206.762339 
L 311.786156 206.701065 
L 312.577225 206.426312 
L 314.001148 206.352178 
L 314.317576 206.265427 
L 314.792217 206.127278 
L 315.266858 206.067781 
L 315.583285 206.104848 
L 315.899713 206.050707 
L 316.21614 206.011982 
L 316.690781 205.917761 
L 317.956491 205.654538 
L 318.272919 205.699679 
L 318.431132 205.672466 
L 318.74756 205.844904 
L 319.538628 205.856003 
L 319.855056 205.903011 
L 320.171483 205.805367 
L 320.804338 205.788211 
L 321.120766 205.591421 
L 321.595407 205.517138 
L 323.335758 204.697503 
L 328.398596 202.98138 
L 328.715024 202.877276 
L 330.138947 202.295047 
L 330.455375 202.232083 
L 330.930016 202.19946 
L 331.404657 202.165468 
L 331.721085 202.103062 
L 332.037512 202.155474 
L 333.303222 201.806392 
L 333.936077 201.905942 
L 334.252504 201.809808 
L 334.727145 201.816992 
L 335.201786 201.682312 
L 335.676427 201.653167 
L 336.151069 201.515151 
L 337.891419 201.426101 
L 338.207847 201.525785 
L 338.998915 201.312939 
L 339.789984 201.312645 
L 340.264625 201.328629 
L 340.581053 201.285954 
L 340.89748 201.268413 
L 341.372121 201.253463 
L 342.321404 201.328666 
L 342.637831 201.427864 
L 343.270686 201.47929 
L 343.745327 201.466587 
L 345.960319 201.560828 
L 346.118533 201.620194 
L 346.593174 201.450593 
L 347.384242 201.416829 
L 347.70067 201.47414 
L 348.96638 201.54888 
L 349.599234 201.514965 
L 350.232089 201.554525 
L 350.548517 201.632568 
L 351.497799 201.525794 
L 351.814226 201.425064 
L 352.447081 201.401912 
L 353.871005 201.229528 
L 354.187432 201.214935 
L 355.611356 201.170362 
L 356.560638 201.165181 
L 357.193493 201.031964 
L 357.351707 201.094673 
L 357.984561 200.904536 
L 358.459203 200.922624 
L 358.933844 200.840307 
L 360.04134 200.436557 
L 360.357767 200.5387 
L 360.674195 200.551602 
L 361.148836 200.647272 
L 362.730973 200.704236 
L 363.838469 200.874932 
L 364.471324 200.930832 
L 364.787751 200.958522 
L 365.262392 200.941466 
L 365.895247 201.092679 
L 367.319171 201.201542 
L 367.793812 201.015803 
L 368.426667 201.043211 
L 369.692376 201.25802 
L 370.008804 201.316118 
L 370.483445 201.195435 
L 371.1163 201.160923 
L 375.071643 202.126671 
L 375.862711 202.047449 
L 376.495566 202.059741 
L 378.868772 202.085872 
L 379.185199 202.074656 
L 379.659841 202.131225 
L 379.976268 202.12224 
L 380.767337 201.942634 
L 382.033046 202.137947 
L 382.824115 201.878575 
L 382.982329 201.91008 
L 384.722679 201.094253 
L 385.355534 201.071621 
L 385.671962 201.097062 
L 386.146603 200.935822 
L 386.46303 200.847465 
L 387.254099 200.837051 
L 387.886954 200.822264 
L 388.678022 200.753242 
L 389.469091 200.914469 
L 390.260159 200.878163 
L 390.893014 200.803632 
L 391.209442 200.779922 
L 392.158724 200.901735 
L 393.108006 201.106516 
L 393.899075 201.15986 
L 396.272281 200.915965 
L 396.588708 200.782891 
L 397.221563 200.705832 
L 398.487273 201.021308 
L 398.487273 201.021308 
" style="fill:none;stroke:#000000;stroke-linecap:square;stroke-width:1.5;"/>
   </g>
   <g id="patch_3">
    <path d="M 57.6 307.584 
L 57.6 41.472 
" style="fill:none;stroke:#000000;stroke-linecap:square;stroke-linejoin:miter;stroke-width:0.8;"/>
   </g>
   <g id="patch_4">
    <path d="M 414.72 307.584 
L 414.72 41.472 
" style="fill:none;stroke:#000000;stroke-linecap:square;stroke-linejoin:miter;stroke-width:0.8;"/>
   </g>
   <g id="patch_5">
    <path d="M 57.6 307.584 
L 414.72 307.584 
" style="fill:none;stroke:#000000;stroke-linecap:square;stroke-linejoin:miter;stroke-width:0.8;"/>
   </g>
   <g id="patch_6">
    <path d="M 57.6 41.472 
L 414.72 41.472 
" style="fill:none;stroke:#000000;stroke-linecap:square;stroke-linejoin:miter;stroke-width:0.8;"/>
   </g>
  </g>
 </g>
 <defs>
  <clipPath id="pf4fc50b526">
   <rect height="266.112" width="357.12" x="57.6" y="41.472"/>
  </clipPath>
 </defs>
</svg>
