<?xml version="1.0" encoding="utf-8" standalone="no"?>
<!DOCTYPE svg PUBLIC "-//W3C//DTD SVG 1.1//EN"
  "http://www.w3.org/Graphics/SVG/1.1/DTD/svg11.dtd">
<svg height="345.6pt" version="1.1" viewBox="0 0 460.8 345.6" width="460.8pt" xmlns="http://www.w3.org/2000/svg" xmlns:xlink="http://www.w3.org/1999/xlink">
 <metadata>
  <rdf:RDF xmlns:cc="http://creativecommons.org/ns#" xmlns:dc="http://purl.org/dc/elements/1.1/" xmlns:rdf="http://www.w3.org/1999/02/22-rdf-syntax-ns#">
   <cc:Work>
    <dc:type rdf:resource="http://purl.org/dc/dcmitype/StillImage"/>
    <dc:date>2024-08-06T14:44:54.521592</dc:date>
    <dc:format>image/svg+xml</dc:format>
    <dc:creator>
     <cc:Agent>
      <dc:title>Matplotlib v3.4.2, https://matplotlib.org/</dc:title>
     </cc:Agent>
    </dc:creator>
   </cc:Work>
  </rdf:RDF>
 </metadata>
 <defs>
  <style type="text/css">*{stroke-linecap:butt;stroke-linejoin:round;}</style>
 </defs>
 <g id="figure_1">
  <g id="patch_1">
   <path d="M 0 345.6 
L 460.8 345.6 
L 460.8 0 
L 0 0 
z
" style="fill:#ffffff;"/>
  </g>
  <g id="axes_1">
   <g id="patch_2">
    <path d="M 57.6 307.584 
L 414.72 307.584 
L 414.72 41.472 
L 57.6 41.472 
z
" style="fill:#ffffff;"/>
   </g>
   <g id="matplotlib.axis_1">
    <g id="xtick_1">
     <g id="line2d_1">
      <defs>
       <path d="M 0 0 
L 0 3.5 
" id="m0c7ec68716" style="stroke:#000000;stroke-width:0.8;"/>
      </defs>
      <g>
       <use style="stroke:#000000;stroke-width:0.8;" x="59.701804" xlink:href="#m0c7ec68716" y="307.584"/>
      </g>
     </g>
     <g id="text_1">
      <!-- 0.75 -->
      <g transform="translate(48.568992 322.182437)scale(0.1 -0.1)">
       <defs>
        <path d="M 2034 4250 
Q 1547 4250 1301 3770 
Q 1056 3291 1056 2328 
Q 1056 1369 1301 889 
Q 1547 409 2034 409 
Q 2525 409 2770 889 
Q 3016 1369 3016 2328 
Q 3016 3291 2770 3770 
Q 2525 4250 2034 4250 
z
M 2034 4750 
Q 2819 4750 3233 4129 
Q 3647 3509 3647 2328 
Q 3647 1150 3233 529 
Q 2819 -91 2034 -91 
Q 1250 -91 836 529 
Q 422 1150 422 2328 
Q 422 3509 836 4129 
Q 1250 4750 2034 4750 
z
" id="DejaVuSans-30" transform="scale(0.015625)"/>
        <path d="M 684 794 
L 1344 794 
L 1344 0 
L 684 0 
L 684 794 
z
" id="DejaVuSans-2e" transform="scale(0.015625)"/>
        <path d="M 525 4666 
L 3525 4666 
L 3525 4397 
L 1831 0 
L 1172 0 
L 2766 4134 
L 525 4134 
L 525 4666 
z
" id="DejaVuSans-37" transform="scale(0.015625)"/>
        <path d="M 691 4666 
L 3169 4666 
L 3169 4134 
L 1269 4134 
L 1269 2991 
Q 1406 3038 1543 3061 
Q 1681 3084 1819 3084 
Q 2600 3084 3056 2656 
Q 3513 2228 3513 1497 
Q 3513 744 3044 326 
Q 2575 -91 1722 -91 
Q 1428 -91 1123 -41 
Q 819 9 494 109 
L 494 744 
Q 775 591 1075 516 
Q 1375 441 1709 441 
Q 2250 441 2565 725 
Q 2881 1009 2881 1497 
Q 2881 1984 2565 2268 
Q 2250 2553 1709 2553 
Q 1456 2553 1204 2497 
Q 953 2441 691 2322 
L 691 4666 
z
" id="DejaVuSans-35" transform="scale(0.015625)"/>
       </defs>
       <use xlink:href="#DejaVuSans-30"/>
       <use x="63.623047" xlink:href="#DejaVuSans-2e"/>
       <use x="95.410156" xlink:href="#DejaVuSans-37"/>
       <use x="159.033203" xlink:href="#DejaVuSans-35"/>
      </g>
     </g>
    </g>
    <g id="xtick_2">
     <g id="line2d_2">
      <g>
       <use style="stroke:#000000;stroke-width:0.8;" x="99.713241" xlink:href="#m0c7ec68716" y="307.584"/>
      </g>
     </g>
     <g id="text_2">
      <!-- 1.00 -->
      <g transform="translate(88.580428 322.182437)scale(0.1 -0.1)">
       <defs>
        <path d="M 794 531 
L 1825 531 
L 1825 4091 
L 703 3866 
L 703 4441 
L 1819 4666 
L 2450 4666 
L 2450 531 
L 3481 531 
L 3481 0 
L 794 0 
L 794 531 
z
" id="DejaVuSans-31" transform="scale(0.015625)"/>
       </defs>
       <use xlink:href="#DejaVuSans-31"/>
       <use x="63.623047" xlink:href="#DejaVuSans-2e"/>
       <use x="95.410156" xlink:href="#DejaVuSans-30"/>
       <use x="159.033203" xlink:href="#DejaVuSans-30"/>
      </g>
     </g>
    </g>
    <g id="xtick_3">
     <g id="line2d_3">
      <g>
       <use style="stroke:#000000;stroke-width:0.8;" x="139.724677" xlink:href="#m0c7ec68716" y="307.584"/>
      </g>
     </g>
     <g id="text_3">
      <!-- 1.25 -->
      <g transform="translate(128.591864 322.182437)scale(0.1 -0.1)">
       <defs>
        <path d="M 1228 531 
L 3431 531 
L 3431 0 
L 469 0 
L 469 531 
Q 828 903 1448 1529 
Q 2069 2156 2228 2338 
Q 2531 2678 2651 2914 
Q 2772 3150 2772 3378 
Q 2772 3750 2511 3984 
Q 2250 4219 1831 4219 
Q 1534 4219 1204 4116 
Q 875 4013 500 3803 
L 500 4441 
Q 881 4594 1212 4672 
Q 1544 4750 1819 4750 
Q 2544 4750 2975 4387 
Q 3406 4025 3406 3419 
Q 3406 3131 3298 2873 
Q 3191 2616 2906 2266 
Q 2828 2175 2409 1742 
Q 1991 1309 1228 531 
z
" id="DejaVuSans-32" transform="scale(0.015625)"/>
       </defs>
       <use xlink:href="#DejaVuSans-31"/>
       <use x="63.623047" xlink:href="#DejaVuSans-2e"/>
       <use x="95.410156" xlink:href="#DejaVuSans-32"/>
       <use x="159.033203" xlink:href="#DejaVuSans-35"/>
      </g>
     </g>
    </g>
    <g id="xtick_4">
     <g id="line2d_4">
      <g>
       <use style="stroke:#000000;stroke-width:0.8;" x="179.736113" xlink:href="#m0c7ec68716" y="307.584"/>
      </g>
     </g>
     <g id="text_4">
      <!-- 1.50 -->
      <g transform="translate(168.6033 322.182437)scale(0.1 -0.1)">
       <use xlink:href="#DejaVuSans-31"/>
       <use x="63.623047" xlink:href="#DejaVuSans-2e"/>
       <use x="95.410156" xlink:href="#DejaVuSans-35"/>
       <use x="159.033203" xlink:href="#DejaVuSans-30"/>
      </g>
     </g>
    </g>
    <g id="xtick_5">
     <g id="line2d_5">
      <g>
       <use style="stroke:#000000;stroke-width:0.8;" x="219.747549" xlink:href="#m0c7ec68716" y="307.584"/>
      </g>
     </g>
     <g id="text_5">
      <!-- 1.75 -->
      <g transform="translate(208.614737 322.182437)scale(0.1 -0.1)">
       <use xlink:href="#DejaVuSans-31"/>
       <use x="63.623047" xlink:href="#DejaVuSans-2e"/>
       <use x="95.410156" xlink:href="#DejaVuSans-37"/>
       <use x="159.033203" xlink:href="#DejaVuSans-35"/>
      </g>
     </g>
    </g>
    <g id="xtick_6">
     <g id="line2d_6">
      <g>
       <use style="stroke:#000000;stroke-width:0.8;" x="259.758985" xlink:href="#m0c7ec68716" y="307.584"/>
      </g>
     </g>
     <g id="text_6">
      <!-- 2.00 -->
      <g transform="translate(248.626173 322.182437)scale(0.1 -0.1)">
       <use xlink:href="#DejaVuSans-32"/>
       <use x="63.623047" xlink:href="#DejaVuSans-2e"/>
       <use x="95.410156" xlink:href="#DejaVuSans-30"/>
       <use x="159.033203" xlink:href="#DejaVuSans-30"/>
      </g>
     </g>
    </g>
    <g id="xtick_7">
     <g id="line2d_7">
      <g>
       <use style="stroke:#000000;stroke-width:0.8;" x="299.770421" xlink:href="#m0c7ec68716" y="307.584"/>
      </g>
     </g>
     <g id="text_7">
      <!-- 2.25 -->
      <g transform="translate(288.637609 322.182437)scale(0.1 -0.1)">
       <use xlink:href="#DejaVuSans-32"/>
       <use x="63.623047" xlink:href="#DejaVuSans-2e"/>
       <use x="95.410156" xlink:href="#DejaVuSans-32"/>
       <use x="159.033203" xlink:href="#DejaVuSans-35"/>
      </g>
     </g>
    </g>
    <g id="xtick_8">
     <g id="line2d_8">
      <g>
       <use style="stroke:#000000;stroke-width:0.8;" x="339.781858" xlink:href="#m0c7ec68716" y="307.584"/>
      </g>
     </g>
     <g id="text_8">
      <!-- 2.50 -->
      <g transform="translate(328.649045 322.182437)scale(0.1 -0.1)">
       <use xlink:href="#DejaVuSans-32"/>
       <use x="63.623047" xlink:href="#DejaVuSans-2e"/>
       <use x="95.410156" xlink:href="#DejaVuSans-35"/>
       <use x="159.033203" xlink:href="#DejaVuSans-30"/>
      </g>
     </g>
    </g>
    <g id="xtick_9">
     <g id="line2d_9">
      <g>
       <use style="stroke:#000000;stroke-width:0.8;" x="379.793294" xlink:href="#m0c7ec68716" y="307.584"/>
      </g>
     </g>
     <g id="text_9">
      <!-- 2.75 -->
      <g transform="translate(368.660481 322.182437)scale(0.1 -0.1)">
       <use xlink:href="#DejaVuSans-32"/>
       <use x="63.623047" xlink:href="#DejaVuSans-2e"/>
       <use x="95.410156" xlink:href="#DejaVuSans-37"/>
       <use x="159.033203" xlink:href="#DejaVuSans-35"/>
      </g>
     </g>
    </g>
   </g>
   <g id="matplotlib.axis_2">
    <g id="ytick_1">
     <g id="line2d_10">
      <defs>
       <path d="M 0 0 
L -3.5 0 
" id="m250052b0f6" style="stroke:#000000;stroke-width:0.8;"/>
      </defs>
      <g>
       <use style="stroke:#000000;stroke-width:0.8;" x="57.6" xlink:href="#m250052b0f6" y="257.938047"/>
      </g>
     </g>
     <g id="text_10">
      <!-- −150 -->
      <g transform="translate(23.132812 261.737266)scale(0.1 -0.1)">
       <defs>
        <path d="M 678 2272 
L 4684 2272 
L 4684 1741 
L 678 1741 
L 678 2272 
z
" id="DejaVuSans-2212" transform="scale(0.015625)"/>
       </defs>
       <use xlink:href="#DejaVuSans-2212"/>
       <use x="83.789062" xlink:href="#DejaVuSans-31"/>
       <use x="147.412109" xlink:href="#DejaVuSans-35"/>
       <use x="211.035156" xlink:href="#DejaVuSans-30"/>
      </g>
     </g>
    </g>
    <g id="ytick_2">
     <g id="line2d_11">
      <g>
       <use style="stroke:#000000;stroke-width:0.8;" x="57.6" xlink:href="#m250052b0f6" y="200.382139"/>
      </g>
     </g>
     <g id="text_11">
      <!-- −100 -->
      <g transform="translate(23.132812 204.181358)scale(0.1 -0.1)">
       <use xlink:href="#DejaVuSans-2212"/>
       <use x="83.789062" xlink:href="#DejaVuSans-31"/>
       <use x="147.412109" xlink:href="#DejaVuSans-30"/>
       <use x="211.035156" xlink:href="#DejaVuSans-30"/>
      </g>
     </g>
    </g>
    <g id="ytick_3">
     <g id="line2d_12">
      <g>
       <use style="stroke:#000000;stroke-width:0.8;" x="57.6" xlink:href="#m250052b0f6" y="142.826231"/>
      </g>
     </g>
     <g id="text_12">
      <!-- −50 -->
      <g transform="translate(29.495313 146.625449)scale(0.1 -0.1)">
       <use xlink:href="#DejaVuSans-2212"/>
       <use x="83.789062" xlink:href="#DejaVuSans-35"/>
       <use x="147.412109" xlink:href="#DejaVuSans-30"/>
      </g>
     </g>
    </g>
    <g id="ytick_4">
     <g id="line2d_13">
      <g>
       <use style="stroke:#000000;stroke-width:0.8;" x="57.6" xlink:href="#m250052b0f6" y="85.270322"/>
      </g>
     </g>
     <g id="text_13">
      <!-- 0 -->
      <g transform="translate(44.2375 89.069541)scale(0.1 -0.1)">
       <use xlink:href="#DejaVuSans-30"/>
      </g>
     </g>
    </g>
   </g>
   <g id="line2d_14">
    <path clip-path="url(#p07d20530a5)" d="M 73.832727 164.171506 
L 74.623796 164.270113 
L 80.31949 164.336644 
L 85.224115 164.489371 
L 85.85697 164.490526 
L 86.648038 164.487411 
L 90.286954 164.432214 
L 90.919809 164.488356 
L 91.39445 164.468078 
L 103.102265 164.676104 
L 103.576906 164.643147 
L 105.47547 164.577487 
L 105.791898 166.809154 
L 107.057608 174.964239 
L 108.323317 182.113219 
L 110.538309 193.276133 
L 112.595088 201.963876 
L 115.284721 211.468175 
L 117.81614 219.256771 
L 119.872919 224.677656 
L 122.562552 230.814635 
L 126.359681 238.566021 
L 128.416459 242.396022 
L 129.998596 245.006795 
L 133.479298 250.142035 
L 135.852504 254.025778 
L 137.909282 257.163611 
L 139.174992 259.138134 
L 139.649633 259.83084 
L 140.915343 261.552652 
L 141.389984 262.182217 
L 141.548198 262.169644 
L 142.022839 257.430457 
L 142.181053 257.212629 
L 142.49748 258.285009 
L 142.813907 258.765209 
L 142.972121 258.754406 
L 143.288549 259.302979 
L 143.921404 260.246494 
L 145.0289 261.979761 
L 145.819968 262.940576 
L 146.452823 263.75623 
L 147.560319 265.159289 
L 148.667815 266.473182 
L 149.458884 267.401114 
L 149.617097 266.856809 
L 150.408166 262.459569 
L 150.724593 261.287669 
L 151.673876 256.268419 
L 152.148517 252.671933 
L 152.464944 251.334428 
L 152.939585 248.152698 
L 153.256013 246.639877 
L 153.888868 242.710733 
L 154.363509 240.870802 
L 154.679936 239.530181 
L 155.629219 236.965916 
L 156.262073 235.399911 
L 156.420287 235.133509 
L 157.053142 232.926087 
L 157.527783 231.622976 
L 158.318852 228.822705 
L 158.477065 228.644227 
L 158.951707 227.477941 
L 159.10992 227.394001 
L 159.268134 227.057864 
L 159.584561 225.668406 
L 159.742775 225.514568 
L 160.059203 225.456645 
L 160.217416 225.35784 
L 160.37563 225.45179 
L 160.533844 225.288832 
L 160.692057 224.860594 
L 160.850271 224.782812 
L 161.008485 224.832989 
L 161.166699 224.49612 
L 161.957767 221.740416 
L 162.274195 220.92719 
L 162.590622 221.11318 
L 164.014545 217.968852 
L 164.172759 218.107249 
L 164.330973 218.075346 
L 164.489187 218.184691 
L 164.805614 218.011808 
L 164.963828 218.0441 
L 165.280255 217.92337 
L 165.438469 217.9353 
L 165.596683 217.718099 
L 165.91311 216.986392 
L 166.229537 217.235811 
L 166.387751 217.008681 
L 166.545965 216.528473 
L 166.862392 216.968899 
L 167.811675 213.530212 
L 168.128102 212.953881 
L 168.286316 212.877895 
L 170.026667 214.043922 
L 170.343094 213.530375 
L 170.817735 212.326446 
L 170.975949 212.088474 
L 171.45059 210.967147 
L 171.767018 210.791516 
L 172.241659 209.02086 
L 172.7163 208.036321 
L 173.032727 206.839499 
L 173.349155 207.09611 
L 173.823796 207.041072 
L 173.98201 206.830368 
L 174.140223 206.899268 
L 174.298437 206.823876 
L 174.456651 206.363848 
L 175.089506 206.684112 
L 175.405933 206.267453 
L 176.038788 206.23322 
L 176.197002 205.975267 
L 176.829856 206.190708 
L 177.146284 206.28052 
L 177.779139 206.221474 
L 177.937352 206.098833 
L 178.25378 206.268767 
L 178.728421 206.822852 
L 179.044848 206.823806 
L 179.51949 206.842294 
L 179.677703 206.608423 
L 179.835917 206.596217 
L 179.994131 206.792898 
L 180.152344 207.193646 
L 180.943413 210.475456 
L 182.050909 214.247069 
L 183.79126 219.352654 
L 188.537671 231.298088 
L 191.701946 238.03583 
L 192.018373 238.485516 
L 192.809442 240.045839 
L 193.60051 241.611758 
L 194.549793 243.288478 
L 195.340861 244.821725 
L 196.448357 246.687931 
L 197.239426 247.97225 
L 199.612632 251.901569 
L 200.245486 252.861078 
L 200.878341 253.764866 
L 203.726188 258.121106 
L 204.359043 259.009999 
L 204.833684 259.676138 
L 210.845805 268.231447 
L 214.801148 273.091098 
L 215.434003 273.776317 
L 217.490781 275.95733 
L 217.965423 276.470693 
L 219.231132 277.72234 
L 224.926826 282.853702 
L 225.559681 283.256188 
L 226.192536 283.52728 
L 227.300032 284.180723 
L 228.407528 284.90707 
L 229.198596 285.405626 
L 233.628581 288.148598 
L 234.103222 288.377208 
L 236.318214 289.558676 
L 237.42571 289.808023 
L 238.058565 289.905635 
L 239.640702 290.379524 
L 240.589984 290.729487 
L 241.855694 291.016162 
L 243.121404 291.115551 
L 243.754258 291.303942 
L 244.861754 291.594509 
L 246.127464 292.374851 
L 246.760319 292.590371 
L 247.23496 292.745586 
L 248.342456 293.054183 
L 248.817097 293.259179 
L 252.930654 294.144761 
L 253.247081 294.122443 
L 253.879936 294.239962 
L 254.512791 294.531825 
L 254.829219 294.579404 
L 255.778501 294.876409 
L 257.677065 295.382802 
L 258.151707 295.465888 
L 259.100989 295.488 
L 259.259203 295.450282 
L 259.733844 294.831887 
L 260.366699 294.011616 
L 261.157767 293.391441 
L 261.315981 293.342768 
L 261.632408 293.109086 
L 262.423477 293.174348 
L 262.581691 292.860015 
L 262.898118 291.851001 
L 263.372759 291.720647 
L 263.689187 291.932003 
L 263.8474 291.122381 
L 264.322041 287.500375 
L 266.37882 275.530491 
L 268.277384 265.695634 
L 270.65059 254.303785 
L 273.814864 240.70191 
L 277.137352 228.602484 
L 278.561276 223.907665 
L 283.149474 211.068898 
L 285.997321 204.111736 
L 287.579458 200.631942 
L 290.743732 194.910393 
L 292.009442 193.066021 
L 292.642297 192.13609 
L 294.540861 189.622083 
L 295.648357 188.168617 
L 296.439426 187.321462 
L 300.394769 183.19771 
L 301.818692 181.951004 
L 305.457608 179.131997 
L 311.153301 175.5482 
L 312.102584 175.056557 
L 314.475789 173.832711 
L 314.950431 173.643579 
L 315.741499 173.317134 
L 316.374354 173.016579 
L 317.007209 172.7421 
L 317.640064 172.555511 
L 319.222201 171.980862 
L 322.070048 170.977524 
L 322.702903 170.780635 
L 323.493971 170.522627 
L 325.076108 170.067343 
L 330.613589 168.7739 
L 336.309282 167.506313 
L 337.258565 167.31176 
L 338.049633 167.16768 
L 344.536396 166.366771 
L 345.16925 166.256744 
L 347.70067 166.01379 
L 349.282807 165.881961 
L 356.718852 165.323641 
L 357.193493 165.29067 
L 360.515981 165.087775 
L 361.148836 165.019972 
L 361.781691 164.974639 
L 362.572759 165.006374 
L 363.680255 164.901168 
L 366.686316 164.8381 
L 367.952026 164.728941 
L 368.901308 164.644255 
L 370.008804 164.542787 
L 371.1163 164.515479 
L 371.590941 164.458517 
L 372.540223 164.436856 
L 373.331292 164.394784 
L 374.755215 164.294384 
L 377.761276 164.226707 
L 378.394131 164.230809 
L 380.767337 164.109854 
L 381.241978 164.097172 
L 382.665901 163.980668 
L 384.089825 163.83435 
L 387.095885 163.659979 
L 388.203381 163.608678 
L 388.678022 163.629629 
L 393.108006 163.428731 
L 398.487273 163.340874 
L 398.487273 163.340874 
" style="fill:none;stroke:#000000;stroke-linecap:square;stroke-width:1.5;"/>
   </g>
   <g id="line2d_15">
    <path clip-path="url(#p07d20530a5)" d="M 73.832727 163.07049 
L 74.940223 163.101408 
L 79.844848 163.137383 
L 80.477703 163.153005 
L 80.952344 163.155961 
L 81.585199 163.13173 
L 82.534482 163.123824 
L 83.958405 163.177407 
L 85.224115 163.114351 
L 86.015183 163.191004 
L 88.388389 163.190787 
L 89.179458 163.244268 
L 90.445167 163.217248 
L 91.236236 163.266496 
L 97.881212 163.097078 
L 98.672281 163.166029 
L 102.627624 163.254523 
L 103.102265 163.18959 
L 105.47547 163.163008 
L 105.791898 164.065379 
L 106.582967 166.174568 
L 108.165104 169.80948 
L 110.380096 174.170106 
L 114.019011 179.854473 
L 117.183285 183.822076 
L 118.448995 185.115385 
L 119.240064 185.897847 
L 122.562552 188.829962 
L 123.35362 189.331144 
L 123.986475 189.699906 
L 125.093971 190.101287 
L 125.410399 190.08064 
L 127.467177 190.878842 
L 128.100032 191.263051 
L 128.8911 191.519029 
L 129.207528 191.67843 
L 129.523955 191.649072 
L 129.840383 191.819318 
L 130.473238 192.134944 
L 131.897161 192.864393 
L 133.162871 193.54033 
L 135.219649 194.414743 
L 136.327145 194.802083 
L 136.96 195.057287 
L 137.592855 195.259889 
L 138.700351 195.62824 
L 140.282488 196.121992 
L 142.022839 196.547344 
L 143.604976 196.758793 
L 145.661754 197.081 
L 146.136396 197.163468 
L 149.933525 197.809888 
L 150.724593 197.880362 
L 151.041021 197.988697 
L 153.57244 198.317551 
L 155.154577 198.596041 
L 157.053142 198.923918 
L 157.844211 199.053131 
L 158.318852 199.10745 
L 162.590622 199.697099 
L 163.539904 199.72108 
L 165.754896 199.908072 
L 167.17882 199.973926 
L 167.811675 200.016924 
L 168.44453 199.968032 
L 173.032727 199.933247 
L 173.823796 199.77841 
L 174.931292 199.732931 
L 175.72236 199.757549 
L 176.038788 199.7118 
L 177.462711 199.736438 
L 178.570207 199.775308 
L 179.361276 199.826098 
L 180.152344 199.886852 
L 181.101627 199.996693 
L 181.418054 200.000397 
L 182.367337 199.961846 
L 182.841978 199.924613 
L 183.316619 200.019196 
L 185.848038 199.752464 
L 188.221244 199.645762 
L 189.012313 199.717691 
L 189.32874 199.751797 
L 190.436236 199.901257 
L 190.910877 200.001812 
L 191.701946 200.163852 
L 192.334801 200.217558 
L 199.770845 200.513839 
L 200.561914 200.586436 
L 201.352982 200.603984 
L 202.93512 200.795407 
L 204.991898 201.016043 
L 206.890463 201.15027 
L 207.997959 201.230909 
L 208.789027 201.27025 
L 210.529378 201.255195 
L 211.47866 201.192564 
L 216.857927 201.193937 
L 218.123636 201.065894 
L 219.072919 201.066844 
L 219.705774 201.065255 
L 220.655056 201.102034 
L 222.55362 201.160617 
L 223.028262 201.22297 
L 224.293971 201.275874 
L 225.08504 201.119409 
L 226.667177 201.205893 
L 228.249314 201.206 
L 232.521085 201.535527 
L 237.900351 201.331419 
L 238.374992 201.256328 
L 239.166061 201.252772 
L 240.748198 201.164355 
L 241.381053 201.147767 
L 242.172121 201.176658 
L 243.279617 201.070506 
L 243.596045 201.090885 
L 244.070686 201.121919 
L 245.811037 200.974016 
L 246.285678 200.943625 
L 247.709601 200.891433 
L 248.658884 200.925247 
L 254.354577 201.166386 
L 257.518852 201.436477 
L 260.050271 201.583667 
L 260.683126 201.737065 
L 261.157767 201.800815 
L 263.689187 202.155651 
L 263.8474 201.815561 
L 264.322041 200.253133 
L 265.11311 198.271301 
L 267.169888 193.700589 
L 269.068453 190.08957 
L 269.859522 188.713846 
L 272.074514 185.363393 
L 275.871643 180.743498 
L 277.928421 178.676961 
L 279.668772 177.181539 
L 285.206252 173.404542 
L 287.579458 172.139144 
L 288.370526 171.772336 
L 288.686954 171.65636 
L 289.478022 171.297087 
L 289.952663 171.06365 
L 292.642297 170.001072 
L 296.914067 168.685351 
L 298.179777 168.289269 
L 299.445486 167.936658 
L 312.735439 165.719535 
L 313.842935 165.56423 
L 314.792217 165.443661 
L 315.583285 165.413666 
L 316.848995 165.25723 
L 317.165423 165.213285 
L 317.48185 165.184003 
L 317.798278 165.214461 
L 318.589346 165.131187 
L 319.855056 164.952801 
L 320.329697 164.894953 
L 321.120766 164.840453 
L 322.070048 164.76706 
L 324.759681 164.63283 
L 326.816459 164.536932 
L 328.398596 164.474159 
L 329.506093 164.393674 
L 330.771802 164.311785 
L 331.246443 164.355431 
L 335.518214 164.124876 
L 335.834641 164.052952 
L 336.62571 164.02719 
L 339.473557 164.021571 
L 339.789984 164.023242 
L 340.264625 164.012102 
L 341.846762 163.91895 
L 345.16925 163.89911 
L 345.802105 163.898848 
L 347.384242 163.911194 
L 348.333525 163.695552 
L 348.808166 163.633689 
L 364.31311 163.208509 
L 365.104179 163.14996 
L 370.641659 163.146071 
L 371.590941 163.105234 
L 372.38201 163.087378 
L 375.071643 163.075096 
L 375.38807 163.014507 
L 376.020925 163.04812 
L 379.185199 163.060055 
L 379.501627 163.078628 
L 379.818054 163.026056 
L 381.558405 163.070952 
L 383.45697 163.072468 
L 383.931611 163.094046 
L 392.633365 163.172819 
L 393.26622 163.124288 
L 395.164785 163.190397 
L 395.79764 163.178447 
L 398.487273 163.138083 
L 398.487273 163.138083 
" style="fill:none;stroke:#000000;stroke-linecap:square;stroke-width:1.5;"/>
   </g>
   <g id="line2d_16">
    <path clip-path="url(#p07d20530a5)" d="M 73.832727 162.127746 
L 78.104498 162.100065 
L 78.737352 162.138022 
L 79.844848 162.139514 
L 80.794131 162.127856 
L 83.800191 162.230139 
L 97.090144 161.917 
L 100.570845 162.00356 
L 104.209761 161.940705 
L 105.000829 161.974679 
L 105.47547 161.990046 
L 105.791898 161.00244 
L 106.582967 158.743677 
L 107.848676 155.879644 
L 109.430813 152.732141 
L 110.538309 151.064166 
L 112.595088 148.132116 
L 114.651866 145.774329 
L 117.81614 143.464554 
L 119.240064 142.745103 
L 119.714705 142.455326 
L 120.980415 141.7868 
L 122.404338 140.782129 
L 123.670048 140.307076 
L 124.144689 140.190366 
L 125.410399 139.820143 
L 126.359681 139.569513 
L 126.992536 139.46967 
L 128.416459 139.029443 
L 129.523955 138.953953 
L 130.315024 138.794118 
L 131.106093 138.701221 
L 131.42252 138.632537 
L 131.897161 138.556202 
L 132.846443 138.576412 
L 134.428581 138.292067 
L 135.061435 138.140184 
L 135.536077 138.019159 
L 136.168931 137.981753 
L 137.118214 137.87496 
L 139.491419 137.992867 
L 139.807847 137.908927 
L 140.282488 137.66533 
L 140.915343 137.653523 
L 141.548198 137.603151 
L 142.022839 137.641863 
L 142.655694 137.672342 
L 143.130335 137.646167 
L 143.604976 137.64132 
L 144.396045 137.648199 
L 146.76925 137.319199 
L 147.085678 137.363685 
L 148.351388 136.955969 
L 149.142456 136.872983 
L 150.249952 136.701173 
L 152.464944 136.351619 
L 153.256013 136.085017 
L 155.154577 135.74992 
L 155.945646 135.834113 
L 156.262073 135.828695 
L 156.578501 135.834868 
L 157.053142 135.872804 
L 157.685997 135.80369 
L 159.426348 135.683272 
L 161.483126 136.104584 
L 162.590622 135.919633 
L 163.856332 136.170302 
L 164.489187 136.128903 
L 165.280255 136.34273 
L 165.754896 136.49981 
L 166.704179 136.587293 
L 167.17882 136.577582 
L 168.602743 136.599634 
L 168.919171 136.520377 
L 169.393812 136.52711 
L 169.868453 136.515931 
L 171.925231 136.183329 
L 172.241659 136.056003 
L 172.7163 136.003996 
L 173.190941 135.849844 
L 173.823796 135.817911 
L 175.564147 135.799379 
L 176.513429 135.56707 
L 177.304498 135.287685 
L 177.620925 135.22677 
L 179.51949 135.223385 
L 179.994131 135.164337 
L 180.626986 135.183646 
L 181.418054 135.268821 
L 182.209123 135.2504 
L 182.367337 135.307682 
L 182.841978 135.187499 
L 183.633046 135.069318 
L 183.949474 135.121253 
L 184.740542 135.341151 
L 185.531611 135.320976 
L 186.006252 135.338603 
L 187.746603 135.470065 
L 188.221244 135.37124 
L 189.012313 135.457298 
L 189.32874 135.428529 
L 190.278022 135.513916 
L 192.176587 135.601303 
L 192.809442 135.738217 
L 193.284083 135.783187 
L 193.758724 135.752944 
L 194.233365 135.777764 
L 194.86622 135.715846 
L 197.239426 135.463291 
L 198.663349 135.137172 
L 199.296204 135.133518 
L 199.770845 135.153501 
L 200.087273 135.134376 
L 200.4037 135.093647 
L 200.878341 135.159057 
L 201.194769 135.088769 
L 202.776906 135.255763 
L 203.251547 135.160616 
L 204.517257 135.082224 
L 204.991898 135.029503 
L 205.94118 135.145392 
L 207.048676 135.274079 
L 207.839745 135.349599 
L 208.156172 135.446644 
L 208.630813 135.620757 
L 208.947241 135.700779 
L 209.738309 135.744324 
L 211.004019 135.93405 
L 211.320447 135.957139 
L 212.111515 136.103182 
L 212.902584 136.075061 
L 213.851866 136.048378 
L 214.484721 135.93533 
L 217.965423 135.486957 
L 218.756491 135.501146 
L 222.870048 135.041655 
L 223.81933 135.114187 
L 224.926826 134.92817 
L 225.717895 135.089619 
L 226.983604 135.292366 
L 228.723955 135.407156 
L 229.040383 135.436657 
L 229.35681 135.46521 
L 229.989665 135.584752 
L 230.306093 135.525952 
L 230.938947 135.503328 
L 231.255375 135.403372 
L 233.786794 135.390386 
L 237.109282 134.867698 
L 239.482488 134.948517 
L 240.273557 135.114052 
L 242.646762 135.266625 
L 243.596045 135.219301 
L 244.545327 135.476514 
L 245.336396 135.663738 
L 245.652823 135.627997 
L 246.918533 135.477779 
L 247.393174 135.428029 
L 248.658884 135.337263 
L 250.082807 135.368168 
L 254.03815 135.036036 
L 254.829219 135.17501 
L 256.411356 135.149417 
L 256.727783 135.075502 
L 257.518852 135.137334 
L 257.993493 135.248198 
L 258.468134 135.206233 
L 258.784561 135.194221 
L 259.100989 135.184793 
L 262.739904 134.622308 
L 263.530973 134.594459 
L 263.689187 134.531674 
L 263.8474 134.846422 
L 264.322041 136.467463 
L 265.271324 138.604925 
L 266.853461 141.283175 
L 268.593812 143.871179 
L 271.125231 146.805176 
L 272.549155 148.264779 
L 273.656651 149.274187 
L 278.877703 152.355465 
L 279.985199 152.857231 
L 280.618054 153.052765 
L 287.26303 155.283105 
L 291.534801 156.26413 
L 292.009442 156.33104 
L 292.80051 156.494602 
L 294.540861 156.758273 
L 295.33193 156.928782 
L 297.072281 157.05832 
L 298.654418 157.220023 
L 299.761914 157.298188 
L 303.242616 157.830126 
L 304.982967 157.931033 
L 306.40689 158.117829 
L 307.6726 158.18945 
L 308.147241 158.243964 
L 310.362233 158.259533 
L 310.836874 158.299327 
L 316.690781 158.623412 
L 317.48185 158.718893 
L 319.538628 158.849059 
L 322.228262 158.97148 
L 322.861116 158.998942 
L 325.55075 159.071842 
L 326.341818 159.038775 
L 326.974673 159.054177 
L 327.923955 159.056947 
L 329.664306 159.09212 
L 330.930016 159.074803 
L 332.195726 159.157879 
L 332.986794 159.100868 
L 334.252504 159.083194 
L 334.568931 159.113103 
L 335.201786 159.119633 
L 335.676427 159.168 
L 345.960319 159.552804 
L 347.067815 159.531062 
L 348.017097 159.529747 
L 348.808166 159.483071 
L 352.605295 159.625901 
L 353.396364 159.743102 
L 356.718852 159.755689 
L 358.300989 159.76825 
L 358.77563 159.760808 
L 359.566699 159.705566 
L 360.674195 159.656649 
L 361.307049 159.607686 
L 362.572759 159.640001 
L 362.889187 159.669189 
L 363.205614 159.62619 
L 363.680255 159.631981 
L 365.737033 159.428301 
L 366.686316 159.427708 
L 369.217735 159.474542 
L 369.85059 159.428414 
L 388.678022 159.734033 
L 389.310877 159.724047 
L 390.893014 159.800017 
L 392.00051 159.741977 
L 398.329059 159.970732 
L 398.487273 159.968799 
L 398.487273 159.968799 
" style="fill:none;stroke:#000000;stroke-linecap:square;stroke-width:1.5;"/>
   </g>
   <g id="line2d_17">
    <path clip-path="url(#p07d20530a5)" d="M 73.832727 159.151325 
L 75.098437 159.135925 
L 76.047719 159.219381 
L 77.471643 159.181404 
L 79.370207 159.138432 
L 80.003062 159.108739 
L 82.692695 158.885619 
L 83.32555 158.915593 
L 84.749474 159.018081 
L 85.85697 159.155079 
L 86.331611 159.137896 
L 86.806252 159.175469 
L 87.597321 159.179514 
L 88.388389 159.125024 
L 92.185518 159.300885 
L 92.660159 159.293744 
L 97.248357 159.168745 
L 98.19764 159.190753 
L 98.830494 159.159638 
L 99.305136 159.151732 
L 100.096204 159.169616 
L 101.361914 159.093896 
L 104.842616 159.10581 
L 105.000829 159.270567 
L 105.159043 159.141079 
L 105.47547 159.307854 
L 105.791898 154.356106 
L 106.424753 144.482492 
L 106.899394 139.221631 
L 107.057608 136.449143 
L 107.215821 135.67759 
L 107.532249 131.26387 
L 107.690463 131.397581 
L 107.848676 126.3949 
L 108.00689 129.831223 
L 108.323317 53.568 
L 108.797959 134.661925 
L 108.956172 142.954905 
L 109.114386 143.010568 
L 109.2726 144.516227 
L 109.747241 141.553985 
L 109.905455 139.590466 
L 110.063668 139.255341 
L 110.380096 136.518142 
L 112.436874 122.038035 
L 112.595088 118.262336 
L 112.753301 109.664471 
L 113.069729 61.651371 
L 113.54437 129.276677 
L 113.702584 137.012729 
L 114.019011 140.89457 
L 114.177225 140.674155 
L 114.335439 140.166121 
L 115.126507 134.901984 
L 115.917576 129.247438 
L 116.708644 124.440886 
L 116.866858 123.970827 
L 117.341499 120.474728 
L 117.657927 105.934692 
L 117.974354 64.280835 
L 118.132568 77.860596 
L 118.448995 121.567374 
L 118.765423 136.542024 
L 118.923636 138.960235 
L 119.08185 139.445788 
L 119.398278 138.688595 
L 121.455056 125.717028 
L 122.562552 119.820275 
L 122.878979 117.043381 
L 123.195407 103.46865 
L 123.511834 70.626129 
L 123.670048 74.168887 
L 124.144689 124.507202 
L 124.461116 134.518395 
L 124.61933 135.979019 
L 124.777544 136.251863 
L 124.935758 136.185585 
L 125.726826 132.483112 
L 127.625391 122.21684 
L 128.8911 116.585991 
L 129.207528 113.246985 
L 129.523955 101.558396 
L 129.998596 73.247178 
L 130.315024 100.86253 
L 130.631451 124.526432 
L 130.947879 132.612852 
L 131.264306 134.850983 
L 131.42252 134.842423 
L 131.580734 134.529266 
L 132.055375 132.498655 
L 132.68823 128.97718 
L 133.953939 122.285495 
L 134.586794 119.061326 
L 135.061435 116.575597 
L 135.377863 114.363095 
L 135.69429 107.759681 
L 136.010718 99.932648 
L 136.485359 78.794034 
L 136.643573 82.667104 
L 137.276427 122.719462 
L 137.592855 129.31107 
L 137.909282 131.260419 
L 138.067496 131.39827 
L 138.22571 131.387213 
L 138.542137 130.695068 
L 138.858565 129.407911 
L 140.915343 119.749359 
L 142.181053 113.698884 
L 142.655694 109.463959 
L 143.130335 98.393336 
L 143.604976 87.607993 
L 143.76319 88.322613 
L 144.079617 100.424632 
L 144.554258 116.915687 
L 144.870686 122.046841 
L 145.187113 124.286579 
L 145.503541 125.023003 
L 145.819968 125.159188 
L 145.978182 125.27415 
L 146.136396 125.140693 
L 146.611037 124.106141 
L 147.560319 121.435693 
L 148.984242 116.590345 
L 149.933525 114.117384 
L 150.724593 112.633923 
L 151.041021 111.557939 
L 151.357448 111.269789 
L 151.673876 110.642871 
L 153.256013 107.975742 
L 153.414226 107.833149 
L 153.730654 107.233211 
L 154.047081 107.506083 
L 154.363509 108.31811 
L 154.996364 110.986492 
L 155.787432 113.258144 
L 156.10386 113.486283 
L 156.578501 114.186683 
L 157.527783 114.793862 
L 158.002424 114.419062 
L 158.318852 114.24284 
L 158.951707 113.831545 
L 159.268134 113.63156 
L 159.584561 113.467103 
L 160.059203 113.4581 
L 160.692057 113.035641 
L 161.008485 112.820145 
L 161.324912 112.987092 
L 161.483126 112.959029 
L 162.115981 112.451991 
L 162.274195 112.606617 
L 163.065263 112.341292 
L 163.539904 111.850006 
L 164.172759 111.170358 
L 164.489187 110.759391 
L 164.805614 110.602513 
L 164.963828 110.655406 
L 165.596683 110.411376 
L 166.071324 110.934527 
L 166.704179 111.826724 
L 166.862392 111.912915 
L 167.17882 112.248399 
L 167.495247 112.000465 
L 167.811675 112.141064 
L 167.969888 112.09526 
L 168.286316 112.261306 
L 168.44453 112.2692 
L 168.760957 112.572001 
L 170.026667 113.035703 
L 170.501308 112.909982 
L 170.817735 112.70825 
L 171.608804 111.728038 
L 171.767018 111.681784 
L 172.558086 110.7827 
L 173.190941 110.746184 
L 173.349155 110.692825 
L 173.665582 110.994618 
L 174.140223 110.884662 
L 174.931292 111.585937 
L 175.247719 111.88231 
L 175.564147 112.325959 
L 175.880574 112.400465 
L 176.197002 112.356076 
L 177.462711 111.119781 
L 177.620925 111.075271 
L 177.779139 111.208196 
L 178.411994 111.051661 
L 179.203062 112.013213 
L 179.361276 111.99847 
L 179.677703 112.279224 
L 180.943413 111.177731 
L 181.734482 110.11943 
L 182.050909 110.23089 
L 182.52555 109.823461 
L 183.316619 110.046818 
L 183.474833 110.331719 
L 183.79126 110.3447 
L 184.107687 110.975142 
L 184.898756 111.919334 
L 185.373397 112.522063 
L 185.848038 112.825877 
L 186.639107 112.882946 
L 187.430175 112.053277 
L 188.06303 112.270934 
L 188.221244 112.295661 
L 188.379458 112.160023 
L 188.695885 111.51631 
L 188.854099 111.292774 
L 189.32874 110.324905 
L 190.910877 108.333142 
L 191.069091 108.349742 
L 191.860159 110.215723 
L 192.493014 111.411034 
L 192.967656 112.127637 
L 193.442297 112.217267 
L 193.758724 112.367777 
L 194.075152 112.527544 
L 194.233365 112.501925 
L 194.549793 112.676123 
L 194.708006 112.638657 
L 195.024434 112.744423 
L 195.499075 112.639004 
L 195.657289 112.563838 
L 196.13193 111.666316 
L 196.764785 110.534122 
L 197.39764 109.953484 
L 198.030494 110.056255 
L 198.505136 110.028593 
L 198.663349 110.04413 
L 198.979777 110.282282 
L 199.13799 110.246295 
L 199.929059 111.041587 
L 200.245486 111.228822 
L 200.561914 111.259645 
L 202.144051 109.996943 
L 202.618692 109.637113 
L 202.93512 109.637584 
L 203.093333 109.589192 
L 203.251547 109.668176 
L 204.67547 111.773435 
L 204.833684 111.859847 
L 205.150112 111.590279 
L 205.466539 111.484278 
L 205.782967 111.157031 
L 206.257608 110.881973 
L 206.574035 111.018632 
L 206.732249 111.077016 
L 207.048676 110.88257 
L 207.365104 110.523767 
L 207.523317 110.497951 
L 207.997959 110.86248 
L 208.156172 110.891646 
L 208.630813 111.295447 
L 209.421882 111.328196 
L 209.896523 111.027618 
L 210.054737 111.068728 
L 210.529378 111.439541 
L 210.845805 111.254648 
L 211.162233 110.867384 
L 211.795088 110.509283 
L 213.377225 110.969956 
L 214.326507 110.498004 
L 214.642935 110.723106 
L 215.117576 111.258714 
L 215.434003 111.480701 
L 215.592217 111.579172 
L 215.908644 111.445785 
L 216.225072 111.673631 
L 216.383285 111.701721 
L 216.699713 112.03574 
L 217.648995 112.168737 
L 217.807209 112.047992 
L 218.123636 111.575906 
L 218.598278 111.020751 
L 218.914705 110.434383 
L 219.231132 110.181392 
L 219.705774 109.484659 
L 220.022201 109.247226 
L 220.180415 109.423373 
L 220.655056 110.508965 
L 220.971483 110.723333 
L 221.287911 110.495477 
L 221.604338 110.662173 
L 222.711834 109.28201 
L 223.028262 109.493437 
L 223.661116 108.868809 
L 223.977544 108.831564 
L 224.293971 108.417031 
L 225.401467 108.699341 
L 225.559681 108.767185 
L 225.876108 108.716085 
L 226.192536 109.002035 
L 226.508963 109.384893 
L 226.983604 109.100165 
L 227.300032 108.934846 
L 227.616459 109.014221 
L 227.932887 108.815861 
L 228.0911 108.77742 
L 228.249314 108.884269 
L 228.407528 109.145384 
L 228.723955 109.112724 
L 229.040383 109.31672 
L 229.35681 109.250083 
L 229.831451 109.611109 
L 230.306093 110.051681 
L 230.464306 110.217404 
L 230.780734 110.203443 
L 231.097161 110.391547 
L 231.730016 110.35062 
L 232.362871 110.475151 
L 232.521085 110.807158 
L 232.679298 110.763407 
L 232.837512 110.550895 
L 233.470367 110.525835 
L 233.628581 110.535062 
L 233.945008 110.329009 
L 234.103222 110.447785 
L 235.052504 109.985913 
L 235.527145 109.891361 
L 236.001786 109.402055 
L 236.476427 109.575169 
L 237.42571 111.0951 
L 237.742137 111.722135 
L 238.216778 112.11146 
L 238.533206 112.032968 
L 239.166061 111.648636 
L 239.324274 111.765002 
L 240.115343 111.597682 
L 242.013907 109.641585 
L 242.330335 109.528856 
L 242.96319 109.343197 
L 243.279617 109.46652 
L 243.912472 109.863936 
L 244.387113 109.780265 
L 244.703541 109.67872 
L 245.178182 109.987496 
L 245.494609 110.472037 
L 246.443892 111.143311 
L 246.760319 110.895464 
L 249.133525 109.435143 
L 249.608166 109.578403 
L 249.924593 109.795711 
L 250.082807 109.796525 
L 250.873876 109.300529 
L 251.823158 109.192963 
L 252.456013 108.654029 
L 252.77244 108.602059 
L 253.879936 109.634848 
L 254.829219 110.108897 
L 255.936715 110.738777 
L 256.569569 110.568496 
L 257.202424 110.707912 
L 257.518852 110.963738 
L 257.835279 111.172453 
L 258.151707 111.583054 
L 258.468134 112.146762 
L 259.100989 112.098322 
L 259.417416 111.93614 
L 259.733844 111.87396 
L 260.050271 111.716206 
L 260.208485 111.527928 
L 260.524912 111.494782 
L 260.683126 111.242326 
L 261.157767 111.01071 
L 261.632408 110.602882 
L 261.948836 110.412926 
L 262.265263 110.617132 
L 262.898118 110.474326 
L 263.372759 110.676927 
L 263.689187 110.162109 
L 263.8474 111.779837 
L 264.322041 119.983657 
L 264.796683 125.289656 
L 265.587751 131.000862 
L 266.37882 134.855059 
L 267.169888 137.489036 
L 268.277384 140.697307 
L 268.910239 142.074614 
L 270.175949 144.100213 
L 271.283445 145.598609 
L 272.390941 146.728287 
L 274.92236 148.716156 
L 276.18807 149.522119 
L 277.295566 150.242632 
L 277.928421 150.481534 
L 278.71949 150.897051 
L 279.194131 151.146195 
L 281.250909 151.923108 
L 281.72555 152.118847 
L 284.25697 152.571579 
L 285.048038 152.665355 
L 289.003381 153.048509 
L 289.319809 153.074975 
L 289.79445 153.1863 
L 291.693014 153.397707 
L 292.484083 153.404583 
L 293.433365 153.416773 
L 294.06622 153.353376 
L 296.281212 153.520738 
L 297.388708 153.671687 
L 298.654418 153.794754 
L 299.287273 153.826589 
L 299.6037 153.831788 
L 300.078341 153.823395 
L 301.185837 153.908079 
L 301.818692 153.841587 
L 302.609761 153.83605 
L 303.559043 153.7498 
L 305.615821 153.693844 
L 306.40689 153.798254 
L 307.989027 153.936416 
L 308.305455 153.992964 
L 308.938309 153.99039 
L 309.254737 154.022143 
L 309.729378 154.037279 
L 311.786156 154.337945 
L 312.260797 154.348434 
L 314.634003 154.505553 
L 315.741499 154.646966 
L 316.690781 154.700383 
L 318.74756 154.833752 
L 320.01327 154.90504 
L 320.487911 154.957449 
L 322.070048 155.050642 
L 322.861116 155.116136 
L 324.601467 155.234815 
L 325.392536 155.268475 
L 325.708963 155.225029 
L 326.974673 155.287349 
L 328.873238 155.272595 
L 330.138947 155.356907 
L 330.771802 155.333774 
L 331.08823 155.286859 
L 333.145008 155.136614 
L 334.09429 155.006774 
L 335.043573 155.180274 
L 336.151069 155.238996 
L 337.100351 155.325768 
L 338.366061 155.345432 
L 339.157129 155.286604 
L 342.321404 155.348696 
L 343.270686 155.501404 
L 344.694609 155.489789 
L 345.327464 155.590181 
L 345.960319 155.64742 
L 348.175311 155.720427 
L 349.441021 155.72863 
L 350.864944 155.862444 
L 354.029219 155.954793 
L 354.662073 155.889562 
L 355.769569 155.992936 
L 356.402424 156.116293 
L 357.193493 156.11255 
L 358.142775 156.102833 
L 358.77563 156.119039 
L 360.990622 156.19065 
L 364.471324 156.204483 
L 365.737033 156.092802 
L 366.369888 156.142316 
L 369.85059 156.346526 
L 370.958086 156.281199 
L 372.698437 156.4075 
L 373.173078 156.38967 
L 374.12236 156.432047 
L 375.704498 156.45171 
L 378.077703 156.481543 
L 379.659841 156.525762 
L 380.767337 156.551312 
L 382.033046 156.628295 
L 386.937671 156.655216 
L 387.412313 156.750388 
L 392.158724 156.736939 
L 392.949793 156.905064 
L 394.373716 156.9894 
L 397.221563 157.182153 
L 397.696204 157.218955 
L 398.487273 157.223313 
L 398.487273 157.223313 
" style="fill:none;stroke:#000000;stroke-linecap:square;stroke-width:1.5;"/>
   </g>
   <g id="patch_3">
    <path d="M 57.6 307.584 
L 57.6 41.472 
" style="fill:none;stroke:#000000;stroke-linecap:square;stroke-linejoin:miter;stroke-width:0.8;"/>
   </g>
   <g id="patch_4">
    <path d="M 414.72 307.584 
L 414.72 41.472 
" style="fill:none;stroke:#000000;stroke-linecap:square;stroke-linejoin:miter;stroke-width:0.8;"/>
   </g>
   <g id="patch_5">
    <path d="M 57.6 307.584 
L 414.72 307.584 
" style="fill:none;stroke:#000000;stroke-linecap:square;stroke-linejoin:miter;stroke-width:0.8;"/>
   </g>
   <g id="patch_6">
    <path d="M 57.6 41.472 
L 414.72 41.472 
" style="fill:none;stroke:#000000;stroke-linecap:square;stroke-linejoin:miter;stroke-width:0.8;"/>
   </g>
  </g>
 </g>
 <defs>
  <clipPath id="p07d20530a5">
   <rect height="266.112" width="357.12" x="57.6" y="41.472"/>
  </clipPath>
 </defs>
</svg>
