<?xml version="1.0" encoding="utf-8" standalone="no"?>
<!DOCTYPE svg PUBLIC "-//W3C//DTD SVG 1.1//EN"
  "http://www.w3.org/Graphics/SVG/1.1/DTD/svg11.dtd">
<svg xmlns:xlink="http://www.w3.org/1999/xlink" width="266.510216pt" height="197.398125pt" viewBox="0 0 266.510216 197.398125" xmlns="http://www.w3.org/2000/svg" version="1.1">
 <metadata>
  <rdf:RDF xmlns:dc="http://purl.org/dc/elements/1.1/" xmlns:cc="http://creativecommons.org/ns#" xmlns:rdf="http://www.w3.org/1999/02/22-rdf-syntax-ns#">
   <cc:Work>
    <dc:type rdf:resource="http://purl.org/dc/dcmitype/StillImage"/>
    <dc:date>2025-12-19T12:51:07.252357</dc:date>
    <dc:format>image/svg+xml</dc:format>
    <dc:creator>
     <cc:Agent>
      <dc:title>Matplotlib v3.10.7, https://matplotlib.org/</dc:title>
     </cc:Agent>
    </dc:creator>
   </cc:Work>
  </rdf:RDF>
 </metadata>
 <defs>
  <style type="text/css">*{stroke-linejoin: round; stroke-linecap: butt}</style>
 </defs>
 <g id="figure_1">
  <g id="patch_1">
   <path d="M 0 197.398125 
L 266.510216 197.398125 
L 266.510216 0 
L 0 0 
z
" style="fill: #ffffff"/>
  </g>
  <g id="axes_1">
   <g id="patch_2">
    <path d="M 35.304688 173.52 
L 258.504687 173.52 
L 258.504687 7.2 
L 35.304688 7.2 
z
" style="fill: #ffffff"/>
   </g>
   <g id="matplotlib.axis_1">
    <g id="xtick_1">
     <g id="line2d_1">
      <defs>
       <path id="mc657235ac8" d="M 0 0 
L 0 3.5 
" style="stroke: #000000; stroke-width: 0.8"/>
      </defs>
      <g>
       <use xlink:href="#mc657235ac8" x="35.883024" y="173.52" style="stroke: #000000; stroke-width: 0.8"/>
      </g>
     </g>
     <g id="text_1">
      <!-- 0.6 -->
      <g transform="translate(27.931462 188.118438) scale(0.1 -0.1)">
       <defs>
        <path id="DejaVuSans-30" d="M 2034 4250 
Q 1547 4250 1301 3770 
Q 1056 3291 1056 2328 
Q 1056 1369 1301 889 
Q 1547 409 2034 409 
Q 2525 409 2770 889 
Q 3016 1369 3016 2328 
Q 3016 3291 2770 3770 
Q 2525 4250 2034 4250 
z
M 2034 4750 
Q 2819 4750 3233 4129 
Q 3647 3509 3647 2328 
Q 3647 1150 3233 529 
Q 2819 -91 2034 -91 
Q 1250 -91 836 529 
Q 422 1150 422 2328 
Q 422 3509 836 4129 
Q 1250 4750 2034 4750 
z
" transform="scale(0.015625)"/>
        <path id="DejaVuSans-2e" d="M 684 794 
L 1344 794 
L 1344 0 
L 684 0 
L 684 794 
z
" transform="scale(0.015625)"/>
        <path id="DejaVuSans-36" d="M 2113 2584 
Q 1688 2584 1439 2293 
Q 1191 2003 1191 1497 
Q 1191 994 1439 701 
Q 1688 409 2113 409 
Q 2538 409 2786 701 
Q 3034 994 3034 1497 
Q 3034 2003 2786 2293 
Q 2538 2584 2113 2584 
z
M 3366 4563 
L 3366 3988 
Q 3128 4100 2886 4159 
Q 2644 4219 2406 4219 
Q 1781 4219 1451 3797 
Q 1122 3375 1075 2522 
Q 1259 2794 1537 2939 
Q 1816 3084 2150 3084 
Q 2853 3084 3261 2657 
Q 3669 2231 3669 1497 
Q 3669 778 3244 343 
Q 2819 -91 2113 -91 
Q 1303 -91 875 529 
Q 447 1150 447 2328 
Q 447 3434 972 4092 
Q 1497 4750 2381 4750 
Q 2619 4750 2861 4703 
Q 3103 4656 3366 4563 
z
" transform="scale(0.015625)"/>
       </defs>
       <use xlink:href="#DejaVuSans-30"/>
       <use xlink:href="#DejaVuSans-2e" transform="translate(63.623047 0)"/>
       <use xlink:href="#DejaVuSans-36" transform="translate(95.410156 0)"/>
      </g>
     </g>
    </g>
    <g id="xtick_2">
     <g id="line2d_2">
      <g>
       <use xlink:href="#mc657235ac8" x="78.97815" y="173.52" style="stroke: #000000; stroke-width: 0.8"/>
      </g>
     </g>
     <g id="text_2">
      <!-- 0.7 -->
      <g transform="translate(71.026588 188.118438) scale(0.1 -0.1)">
       <defs>
        <path id="DejaVuSans-37" d="M 525 4666 
L 3525 4666 
L 3525 4397 
L 1831 0 
L 1172 0 
L 2766 4134 
L 525 4134 
L 525 4666 
z
" transform="scale(0.015625)"/>
       </defs>
       <use xlink:href="#DejaVuSans-30"/>
       <use xlink:href="#DejaVuSans-2e" transform="translate(63.623047 0)"/>
       <use xlink:href="#DejaVuSans-37" transform="translate(95.410156 0)"/>
      </g>
     </g>
    </g>
    <g id="xtick_3">
     <g id="line2d_3">
      <g>
       <use xlink:href="#mc657235ac8" x="122.073276" y="173.52" style="stroke: #000000; stroke-width: 0.8"/>
      </g>
     </g>
     <g id="text_3">
      <!-- 0.8 -->
      <g transform="translate(114.121713 188.118438) scale(0.1 -0.1)">
       <defs>
        <path id="DejaVuSans-38" d="M 2034 2216 
Q 1584 2216 1326 1975 
Q 1069 1734 1069 1313 
Q 1069 891 1326 650 
Q 1584 409 2034 409 
Q 2484 409 2743 651 
Q 3003 894 3003 1313 
Q 3003 1734 2745 1975 
Q 2488 2216 2034 2216 
z
M 1403 2484 
Q 997 2584 770 2862 
Q 544 3141 544 3541 
Q 544 4100 942 4425 
Q 1341 4750 2034 4750 
Q 2731 4750 3128 4425 
Q 3525 4100 3525 3541 
Q 3525 3141 3298 2862 
Q 3072 2584 2669 2484 
Q 3125 2378 3379 2068 
Q 3634 1759 3634 1313 
Q 3634 634 3220 271 
Q 2806 -91 2034 -91 
Q 1263 -91 848 271 
Q 434 634 434 1313 
Q 434 1759 690 2068 
Q 947 2378 1403 2484 
z
M 1172 3481 
Q 1172 3119 1398 2916 
Q 1625 2713 2034 2713 
Q 2441 2713 2670 2916 
Q 2900 3119 2900 3481 
Q 2900 3844 2670 4047 
Q 2441 4250 2034 4250 
Q 1625 4250 1398 4047 
Q 1172 3844 1172 3481 
z
" transform="scale(0.015625)"/>
       </defs>
       <use xlink:href="#DejaVuSans-30"/>
       <use xlink:href="#DejaVuSans-2e" transform="translate(63.623047 0)"/>
       <use xlink:href="#DejaVuSans-38" transform="translate(95.410156 0)"/>
      </g>
     </g>
    </g>
    <g id="xtick_4">
     <g id="line2d_4">
      <g>
       <use xlink:href="#mc657235ac8" x="165.168402" y="173.52" style="stroke: #000000; stroke-width: 0.8"/>
      </g>
     </g>
     <g id="text_4">
      <!-- 0.9 -->
      <g transform="translate(157.216839 188.118438) scale(0.1 -0.1)">
       <defs>
        <path id="DejaVuSans-39" d="M 703 97 
L 703 672 
Q 941 559 1184 500 
Q 1428 441 1663 441 
Q 2288 441 2617 861 
Q 2947 1281 2994 2138 
Q 2813 1869 2534 1725 
Q 2256 1581 1919 1581 
Q 1219 1581 811 2004 
Q 403 2428 403 3163 
Q 403 3881 828 4315 
Q 1253 4750 1959 4750 
Q 2769 4750 3195 4129 
Q 3622 3509 3622 2328 
Q 3622 1225 3098 567 
Q 2575 -91 1691 -91 
Q 1453 -91 1209 -44 
Q 966 3 703 97 
z
M 1959 2075 
Q 2384 2075 2632 2365 
Q 2881 2656 2881 3163 
Q 2881 3666 2632 3958 
Q 2384 4250 1959 4250 
Q 1534 4250 1286 3958 
Q 1038 3666 1038 3163 
Q 1038 2656 1286 2365 
Q 1534 2075 1959 2075 
z
" transform="scale(0.015625)"/>
       </defs>
       <use xlink:href="#DejaVuSans-30"/>
       <use xlink:href="#DejaVuSans-2e" transform="translate(63.623047 0)"/>
       <use xlink:href="#DejaVuSans-39" transform="translate(95.410156 0)"/>
      </g>
     </g>
    </g>
    <g id="xtick_5">
     <g id="line2d_5">
      <g>
       <use xlink:href="#mc657235ac8" x="208.263528" y="173.52" style="stroke: #000000; stroke-width: 0.8"/>
      </g>
     </g>
     <g id="text_5">
      <!-- 1.0 -->
      <g transform="translate(200.311965 188.118438) scale(0.1 -0.1)">
       <defs>
        <path id="DejaVuSans-31" d="M 794 531 
L 1825 531 
L 1825 4091 
L 703 3866 
L 703 4441 
L 1819 4666 
L 2450 4666 
L 2450 531 
L 3481 531 
L 3481 0 
L 794 0 
L 794 531 
z
" transform="scale(0.015625)"/>
       </defs>
       <use xlink:href="#DejaVuSans-31"/>
       <use xlink:href="#DejaVuSans-2e" transform="translate(63.623047 0)"/>
       <use xlink:href="#DejaVuSans-30" transform="translate(95.410156 0)"/>
      </g>
     </g>
    </g>
    <g id="xtick_6">
     <g id="line2d_6">
      <g>
       <use xlink:href="#mc657235ac8" x="251.358654" y="173.52" style="stroke: #000000; stroke-width: 0.8"/>
      </g>
     </g>
     <g id="text_6">
      <!-- 1.1 -->
      <g transform="translate(243.407091 188.118438) scale(0.1 -0.1)">
       <use xlink:href="#DejaVuSans-31"/>
       <use xlink:href="#DejaVuSans-2e" transform="translate(63.623047 0)"/>
       <use xlink:href="#DejaVuSans-31" transform="translate(95.410156 0)"/>
      </g>
     </g>
    </g>
   </g>
   <g id="matplotlib.axis_2">
    <g id="ytick_1">
     <g id="line2d_7">
      <defs>
       <path id="m27234b0a87" d="M 0 0 
L -3.5 0 
" style="stroke: #000000; stroke-width: 0.8"/>
      </defs>
      <g>
       <use xlink:href="#m27234b0a87" x="35.304688" y="173.396066" style="stroke: #000000; stroke-width: 0.8"/>
      </g>
     </g>
     <g id="text_7">
      <!-- −70 -->
      <g transform="translate(7.2 177.195284) scale(0.1 -0.1)">
       <defs>
        <path id="DejaVuSans-2212" d="M 678 2272 
L 4684 2272 
L 4684 1741 
L 678 1741 
L 678 2272 
z
" transform="scale(0.015625)"/>
       </defs>
       <use xlink:href="#DejaVuSans-2212"/>
       <use xlink:href="#DejaVuSans-37" transform="translate(83.789062 0)"/>
       <use xlink:href="#DejaVuSans-30" transform="translate(147.412109 0)"/>
      </g>
     </g>
    </g>
    <g id="ytick_2">
     <g id="line2d_8">
      <g>
       <use xlink:href="#m27234b0a87" x="35.304688" y="150.73377" style="stroke: #000000; stroke-width: 0.8"/>
      </g>
     </g>
     <g id="text_8">
      <!-- −60 -->
      <g transform="translate(7.2 154.532989) scale(0.1 -0.1)">
       <use xlink:href="#DejaVuSans-2212"/>
       <use xlink:href="#DejaVuSans-36" transform="translate(83.789062 0)"/>
       <use xlink:href="#DejaVuSans-30" transform="translate(147.412109 0)"/>
      </g>
     </g>
    </g>
    <g id="ytick_3">
     <g id="line2d_9">
      <g>
       <use xlink:href="#m27234b0a87" x="35.304688" y="128.071475" style="stroke: #000000; stroke-width: 0.8"/>
      </g>
     </g>
     <g id="text_9">
      <!-- −50 -->
      <g transform="translate(7.2 131.870694) scale(0.1 -0.1)">
       <defs>
        <path id="DejaVuSans-35" d="M 691 4666 
L 3169 4666 
L 3169 4134 
L 1269 4134 
L 1269 2991 
Q 1406 3038 1543 3061 
Q 1681 3084 1819 3084 
Q 2600 3084 3056 2656 
Q 3513 2228 3513 1497 
Q 3513 744 3044 326 
Q 2575 -91 1722 -91 
Q 1428 -91 1123 -41 
Q 819 9 494 109 
L 494 744 
Q 775 591 1075 516 
Q 1375 441 1709 441 
Q 2250 441 2565 725 
Q 2881 1009 2881 1497 
Q 2881 1984 2565 2268 
Q 2250 2553 1709 2553 
Q 1456 2553 1204 2497 
Q 953 2441 691 2322 
L 691 4666 
z
" transform="scale(0.015625)"/>
       </defs>
       <use xlink:href="#DejaVuSans-2212"/>
       <use xlink:href="#DejaVuSans-35" transform="translate(83.789062 0)"/>
       <use xlink:href="#DejaVuSans-30" transform="translate(147.412109 0)"/>
      </g>
     </g>
    </g>
    <g id="ytick_4">
     <g id="line2d_10">
      <g>
       <use xlink:href="#m27234b0a87" x="35.304688" y="105.40918" style="stroke: #000000; stroke-width: 0.8"/>
      </g>
     </g>
     <g id="text_10">
      <!-- −40 -->
      <g transform="translate(7.2 109.208399) scale(0.1 -0.1)">
       <defs>
        <path id="DejaVuSans-34" d="M 2419 4116 
L 825 1625 
L 2419 1625 
L 2419 4116 
z
M 2253 4666 
L 3047 4666 
L 3047 1625 
L 3713 1625 
L 3713 1100 
L 3047 1100 
L 3047 0 
L 2419 0 
L 2419 1100 
L 313 1100 
L 313 1709 
L 2253 4666 
z
" transform="scale(0.015625)"/>
       </defs>
       <use xlink:href="#DejaVuSans-2212"/>
       <use xlink:href="#DejaVuSans-34" transform="translate(83.789062 0)"/>
       <use xlink:href="#DejaVuSans-30" transform="translate(147.412109 0)"/>
      </g>
     </g>
    </g>
    <g id="ytick_5">
     <g id="line2d_11">
      <g>
       <use xlink:href="#m27234b0a87" x="35.304688" y="82.746885" style="stroke: #000000; stroke-width: 0.8"/>
      </g>
     </g>
     <g id="text_11">
      <!-- −30 -->
      <g transform="translate(7.2 86.546104) scale(0.1 -0.1)">
       <defs>
        <path id="DejaVuSans-33" d="M 2597 2516 
Q 3050 2419 3304 2112 
Q 3559 1806 3559 1356 
Q 3559 666 3084 287 
Q 2609 -91 1734 -91 
Q 1441 -91 1130 -33 
Q 819 25 488 141 
L 488 750 
Q 750 597 1062 519 
Q 1375 441 1716 441 
Q 2309 441 2620 675 
Q 2931 909 2931 1356 
Q 2931 1769 2642 2001 
Q 2353 2234 1838 2234 
L 1294 2234 
L 1294 2753 
L 1863 2753 
Q 2328 2753 2575 2939 
Q 2822 3125 2822 3475 
Q 2822 3834 2567 4026 
Q 2313 4219 1838 4219 
Q 1578 4219 1281 4162 
Q 984 4106 628 3988 
L 628 4550 
Q 988 4650 1302 4700 
Q 1616 4750 1894 4750 
Q 2613 4750 3031 4423 
Q 3450 4097 3450 3541 
Q 3450 3153 3228 2886 
Q 3006 2619 2597 2516 
z
" transform="scale(0.015625)"/>
       </defs>
       <use xlink:href="#DejaVuSans-2212"/>
       <use xlink:href="#DejaVuSans-33" transform="translate(83.789062 0)"/>
       <use xlink:href="#DejaVuSans-30" transform="translate(147.412109 0)"/>
      </g>
     </g>
    </g>
    <g id="ytick_6">
     <g id="line2d_12">
      <g>
       <use xlink:href="#m27234b0a87" x="35.304688" y="60.08459" style="stroke: #000000; stroke-width: 0.8"/>
      </g>
     </g>
     <g id="text_12">
      <!-- −20 -->
      <g transform="translate(7.2 63.883809) scale(0.1 -0.1)">
       <defs>
        <path id="DejaVuSans-32" d="M 1228 531 
L 3431 531 
L 3431 0 
L 469 0 
L 469 531 
Q 828 903 1448 1529 
Q 2069 2156 2228 2338 
Q 2531 2678 2651 2914 
Q 2772 3150 2772 3378 
Q 2772 3750 2511 3984 
Q 2250 4219 1831 4219 
Q 1534 4219 1204 4116 
Q 875 4013 500 3803 
L 500 4441 
Q 881 4594 1212 4672 
Q 1544 4750 1819 4750 
Q 2544 4750 2975 4387 
Q 3406 4025 3406 3419 
Q 3406 3131 3298 2873 
Q 3191 2616 2906 2266 
Q 2828 2175 2409 1742 
Q 1991 1309 1228 531 
z
" transform="scale(0.015625)"/>
       </defs>
       <use xlink:href="#DejaVuSans-2212"/>
       <use xlink:href="#DejaVuSans-32" transform="translate(83.789062 0)"/>
       <use xlink:href="#DejaVuSans-30" transform="translate(147.412109 0)"/>
      </g>
     </g>
    </g>
    <g id="ytick_7">
     <g id="line2d_13">
      <g>
       <use xlink:href="#m27234b0a87" x="35.304688" y="37.422295" style="stroke: #000000; stroke-width: 0.8"/>
      </g>
     </g>
     <g id="text_13">
      <!-- −10 -->
      <g transform="translate(7.2 41.221514) scale(0.1 -0.1)">
       <use xlink:href="#DejaVuSans-2212"/>
       <use xlink:href="#DejaVuSans-31" transform="translate(83.789062 0)"/>
       <use xlink:href="#DejaVuSans-30" transform="translate(147.412109 0)"/>
      </g>
     </g>
    </g>
    <g id="ytick_8">
     <g id="line2d_14">
      <g>
       <use xlink:href="#m27234b0a87" x="35.304688" y="14.76" style="stroke: #000000; stroke-width: 0.8"/>
      </g>
     </g>
     <g id="text_14">
      <!-- 0 -->
      <g transform="translate(21.942187 18.559219) scale(0.1 -0.1)">
       <use xlink:href="#DejaVuSans-30"/>
      </g>
     </g>
    </g>
   </g>
   <g id="line2d_15">
    <path d="M 45.450142 164.118706 
L 45.46738 164.189525 
L 45.519094 163.83541 
L 45.579427 164.118706 
L 45.674237 163.977049 
L 45.596665 164.260328 
L 45.691475 164.047869 
L 45.717332 164.118706 
L 45.725951 163.977049 
L 45.786284 164.047869 
L 45.855236 164.189525 
L 45.889712 163.906247 
L 45.967284 164.189525 
L 46.00176 164.047869 
L 46.010379 164.047869 
L 46.070712 164.260328 
L 46.113807 163.977049 
L 46.208616 164.118706 
L 46.17414 163.906247 
L 46.217235 163.977049 
L 46.225854 163.977049 
L 46.251711 164.331148 
L 46.329283 163.977049 
L 46.389616 163.906247 
L 46.398235 164.118706 
L 46.424092 164.047869 
L 46.432711 164.189525 
L 46.475806 163.906247 
L 46.518901 164.047869 
L 46.536139 163.906247 
L 46.605091 164.118706 
L 46.622329 164.047869 
L 46.665425 163.977049 
L 46.734377 164.260328 
L 46.829186 163.906247 
L 46.855043 164.047869 
L 46.8809 163.977049 
L 46.96709 164.189525 
L 47.0619 163.977049 
L 47.070519 164.047869 
L 47.087757 163.977049 
L 47.173947 164.189525 
L 47.23428 163.906247 
L 47.268756 164.260328 
L 47.277375 163.977049 
L 47.285994 164.189525 
L 47.32909 163.83541 
L 47.380804 163.977049 
L 47.466994 163.977049 
L 47.561803 164.118706 
L 47.535946 163.906247 
L 47.570422 163.906247 
L 47.596279 164.189525 
L 47.665232 163.83541 
L 47.68247 164.118706 
L 47.725565 163.977049 
L 47.751422 164.189525 
L 47.794517 164.047869 
L 47.846231 163.977049 
L 47.897945 164.118706 
L 47.932421 163.977049 
L 48.001374 164.047869 
L 48.061707 164.260328 
L 48.044469 163.906247 
L 48.104802 164.047869 
L 48.182373 163.906247 
L 48.147897 164.401985 
L 48.199611 163.977049 
L 48.242706 164.189525 
L 48.259944 163.906247 
L 48.311658 164.047869 
L 48.354754 164.260328 
L 48.423706 163.977049 
L 48.458182 164.189525 
L 48.501277 163.906247 
L 48.527134 163.977049 
L 48.56161 163.906247 
L 48.570229 163.83541 
L 48.630562 164.118706 
L 48.639181 164.189525 
L 48.682276 163.906247 
L 48.725372 164.047869 
L 48.768467 164.047869 
L 48.8288 163.83541 
L 48.785705 164.118706 
L 48.871895 163.906247 
L 48.983942 164.118706 
L 49.078752 163.906247 
L 49.027037 164.189525 
L 49.09599 164.047869 
L 49.199418 164.047869 
L 49.208037 164.189525 
L 49.242513 163.83541 
L 49.302846 164.047869 
L 49.371799 164.189525 
L 49.414894 163.906247 
L 49.53556 164.189525 
L 49.561417 163.83541 
L 49.647607 164.047869 
L 49.690702 164.118706 
L 49.733798 164.260328 
L 49.759655 163.906247 
L 49.794131 164.047869 
L 49.819988 163.906247 
L 49.88894 164.118706 
L 49.897559 164.118706 
L 49.97513 164.189525 
L 50.009606 163.906247 
L 50.087178 164.331148 
L 50.121654 163.977049 
L 50.147511 164.047869 
L 50.190606 164.260328 
L 50.268177 164.189525 
L 50.362986 164.189525 
L 50.449177 163.977049 
L 50.466415 164.118706 
L 50.475034 164.331148 
L 50.500891 164.047869 
L 50.578462 164.260328 
L 50.673271 163.977049 
L 50.699128 164.118706 
L 50.707747 164.260328 
L 50.785319 163.977049 
L 50.802557 164.118706 
L 50.854271 164.260328 
L 50.914604 163.83541 
L 51.026651 164.401985 
L 51.03527 164.118706 
L 51.138699 163.906247 
L 51.095604 164.331148 
L 51.155937 163.977049 
L 51.207651 164.401985 
L 51.276603 164.189525 
L 51.293841 164.260328 
L 51.380031 163.977049 
L 51.431746 164.260328 
L 51.405888 163.906247 
L 51.492079 164.189525 
L 51.586888 164.047869 
L 51.561031 164.260328 
L 51.595507 164.189525 
L 51.612745 164.401985 
L 51.621364 164.118706 
L 51.690316 164.118706 
L 51.724792 164.189525 
L 51.793745 163.977049 
L 51.802364 164.331148 
L 51.905792 164.189525 
L 51.974744 164.047869 
L 52.000601 164.401985 
L 52.112649 164.118706 
L 52.19022 164.401985 
L 52.216077 164.118706 
L 52.285029 164.047869 
L 52.241934 164.260328 
L 52.319505 164.118706 
L 52.3626 164.118706 
L 52.371219 164.260328 
L 52.440171 163.906247 
L 52.466029 164.047869 
L 52.500505 164.047869 
L 52.612552 164.331148 
L 52.707361 163.977049 
L 52.733218 164.047869 
L 52.819409 163.977049 
L 52.836647 164.260328 
L 52.862504 164.047869 
L 52.948694 164.189525 
L 52.991789 164.118706 
L 53.052122 164.260328 
L 53.112455 164.189525 
L 53.086598 164.331148 
L 53.146932 164.260328 
L 53.207265 163.977049 
L 53.25036 164.401985 
L 53.371026 164.047869 
L 53.379645 164.331148 
L 53.483074 164.260328 
L 53.526169 164.189525 
L 53.560645 164.118706 
L 53.586502 164.331148 
L 53.612359 164.260328 
L 53.620978 164.401985 
L 53.638216 164.189525 
L 53.715787 164.260328 
L 53.758882 164.260328 
L 53.793358 164.047869 
L 53.87093 164.118706 
L 53.905406 164.401985 
L 53.888168 164.047869 
L 53.991596 164.331148 
L 54.103643 164.047869 
L 54.112262 164.260328 
L 54.163977 163.977049 
L 54.207072 164.047869 
L 54.258786 164.118706 
L 54.284643 164.047869 
L 54.370833 164.260328 
L 54.491499 164.047869 
L 54.500118 164.047869 
L 54.525976 163.977049 
L 54.612166 164.331148 
L 54.724213 163.977049 
L 54.741451 164.118706 
L 54.767308 164.118706 
L 54.862118 164.047869 
L 54.879356 164.260328 
L 54.887975 164.047869 
L 54.93107 164.331148 
L 54.991403 164.189525 
L 55.086212 164.401985 
L 55.094831 164.189525 
L 55.155164 164.118706 
L 55.163783 163.977049 
L 55.249974 164.260328 
L 55.258593 164.260328 
L 55.28445 164.047869 
L 55.327545 164.401985 
L 55.362021 164.189525 
L 55.422354 164.260328 
L 55.405116 164.047869 
L 55.448211 164.118706 
L 55.474068 164.047869 
L 55.482687 164.260328 
L 55.517163 164.189525 
L 55.603354 164.401985 
L 55.543021 164.118706 
L 55.620592 164.331148 
L 55.672306 164.047869 
L 55.741258 164.118706 
L 55.827448 164.401985 
L 55.861924 164.260328 
L 55.90502 164.260328 
L 55.939496 164.047869 
L 55.965353 164.401985 
L 56.017067 164.118706 
L 56.051543 164.331148 
L 56.068781 164.047869 
L 56.111876 164.260328 
L 56.16359 163.906247 
L 56.215305 164.047869 
L 56.292876 164.331148 
L 56.327352 164.260328 
L 56.387685 164.331148 
L 56.422161 164.047869 
L 56.43078 164.331148 
L 56.534208 164.118706 
L 56.542827 164.118706 
L 56.551446 163.977049 
L 56.61178 164.401985 
L 56.637637 164.260328 
L 56.646256 164.260328 
L 56.723827 163.977049 
L 56.706589 164.401985 
L 56.758303 164.047869 
L 56.87035 164.260328 
L 56.947922 164.118706 
L 56.896207 164.331148 
L 56.96516 164.260328 
L 56.991017 164.472787 
L 57.016874 164.189525 
L 57.077207 164.401985 
L 57.180635 164.118706 
L 57.197873 164.189525 
L 57.292683 164.401985 
L 57.249588 164.047869 
L 57.301302 164.189525 
L 57.353016 164.189525 
L 57.387492 164.118706 
L 57.465063 164.401985 
L 57.57711 164.047869 
L 57.637444 164.543607 
L 57.689158 164.260328 
L 57.715015 164.260328 
L 57.809824 164.118706 
L 57.766729 164.401985 
L 57.827062 164.189525 
L 57.921871 164.401985 
L 57.930491 164.189525 
L 57.947729 164.189525 
L 58.059776 164.401985 
L 58.128728 164.118706 
L 58.180442 164.189525 
L 58.283871 164.331148 
L 58.214918 164.118706 
L 58.29249 164.260328 
L 58.309728 164.189525 
L 58.370061 163.977049 
L 58.395918 164.331148 
L 58.404537 164.401985 
L 58.413156 164.260328 
L 58.473489 164.260328 
L 58.525203 163.977049 
L 58.585536 164.189525 
L 58.671727 164.401985 
L 58.697584 164.331148 
L 58.81825 164.118706 
L 58.861345 164.401985 
L 58.930297 164.260328 
L 58.973393 164.260328 
L 59.025107 164.401985 
L 59.033726 164.118706 
L 59.076821 164.331148 
L 59.163011 164.118706 
L 59.188868 164.189525 
L 59.249201 164.331148 
L 59.206106 164.118706 
L 59.283677 164.189525 
L 59.300916 164.047869 
L 59.378487 164.260328 
L 59.447439 164.331148 
L 59.456058 164.118706 
L 59.464677 164.260328 
L 59.473296 164.047869 
L 59.481915 164.331148 
L 59.576724 164.189525 
L 59.585343 164.047869 
L 59.619819 164.401985 
L 59.680153 164.118706 
L 59.731867 164.401985 
L 59.697391 164.047869 
L 59.7922 164.189525 
L 59.818057 164.047869 
L 59.809438 164.401985 
L 59.887009 164.189525 
L 59.947342 164.331148 
L 59.955961 164.047869 
L 59.990438 164.260328 
L 60.050771 164.189525 
L 60.007676 164.331148 
L 60.076628 164.331148 
L 60.093866 164.401985 
L 60.102485 164.118706 
L 60.162818 164.189525 
L 60.171437 164.189525 
L 60.257627 164.047869 
L 60.188675 164.260328 
L 60.274865 164.260328 
L 60.283484 164.401985 
L 60.292103 164.118706 
L 60.369675 164.118706 
L 60.386913 164.189525 
L 60.404151 164.118706 
L 60.49896 164.331148 
L 60.542055 164.118706 
L 60.524817 164.401985 
L 60.611007 164.189525 
L 60.67996 164.118706 
L 60.723055 164.331148 
L 60.748912 164.401985 
L 60.85234 164.189525 
L 60.860959 164.260328 
L 60.921292 164.472787 
L 60.947149 164.401985 
L 61.016102 164.118706 
L 61.059197 164.331148 
L 61.067816 164.118706 
L 61.128149 164.401985 
L 61.162625 164.401985 
L 61.179863 164.614444 
L 61.240196 164.331148 
L 61.335005 164.118706 
L 61.352244 164.189525 
L 61.421196 164.118706 
L 61.455672 164.401985 
L 61.567719 164.189525 
L 61.602195 164.401985 
L 61.610814 164.118706 
L 61.679766 164.260328 
L 61.688385 164.260328 
L 61.722862 164.047869 
L 61.757338 164.331148 
L 61.791814 164.260328 
L 61.878004 164.472787 
L 61.809052 164.189525 
L 61.895242 164.260328 
L 61.903861 164.260328 
L 61.955575 164.047869 
L 62.007289 164.331148 
L 62.015908 164.189525 
L 62.136575 164.401985 
L 62.153813 164.331148 
L 62.214146 164.118706 
L 62.196908 164.401985 
L 62.257241 164.260328 
L 62.35205 164.401985 
L 62.308955 164.189525 
L 62.369288 164.331148 
L 62.438241 164.118706 
L 62.386527 164.401985 
L 62.472717 164.189525 
L 62.567526 164.401985 
L 62.576145 164.047869 
L 62.679573 164.260328 
L 62.70543 164.331148 
L 62.714049 164.401985 
L 62.748526 164.118706 
L 62.80024 164.260328 
L 62.834716 164.331148 
L 62.938144 164.401985 
L 62.946763 164.118706 
L 62.955382 164.331148 
L 62.981239 163.977049 
L 63.05881 164.260328 
L 63.093287 164.331148 
L 63.145001 164.118706 
L 63.15362 164.260328 
L 63.205334 163.977049 
L 63.23981 164.331148 
L 63.265667 164.047869 
L 63.300143 164.401985 
L 63.351857 163.977049 
L 63.386333 164.260328 
L 63.412191 164.331148 
L 63.455286 164.047869 
L 63.472524 164.189525 
L 63.498381 164.260328 
L 63.584571 164.118706 
L 63.601809 164.047869 
L 63.705237 164.401985 
L 63.808666 164.118706 
L 63.817285 164.331148 
L 63.825904 164.331148 
L 63.877618 164.118706 
L 63.894856 164.401985 
L 63.929332 164.260328 
L 64.015522 164.401985 
L 63.963808 164.189525 
L 64.024141 164.331148 
L 64.118951 164.189525 
L 64.067236 164.472787 
L 64.136189 164.260328 
L 64.144808 164.260328 
L 64.196522 164.401985 
L 64.205141 164.118706 
L 64.248236 164.189525 
L 64.343045 164.331148 
L 64.317188 164.118706 
L 64.360283 164.260328 
L 64.377521 164.189525 
L 64.437855 164.401985 
L 64.403378 164.047869 
L 64.489569 164.260328 
L 64.506807 164.118706 
L 64.558521 164.401985 
L 64.584378 164.189525 
L 64.687806 164.401985 
L 64.627473 163.977049 
L 64.696425 164.260328 
L 64.722282 164.401985 
L 64.799854 164.189525 
L 64.903282 164.401985 
L 64.911901 164.331148 
L 64.937758 164.401985 
L 65.015329 163.977049 
L 65.049805 164.260328 
L 65.118758 164.118706 
L 65.075662 164.401985 
L 65.153234 164.260328 
L 65.161853 164.260328 
L 65.213567 164.118706 
L 65.265281 164.401985 
L 65.368709 164.118706 
L 65.377328 164.189525 
L 65.472138 164.401985 
L 65.480757 164.260328 
L 65.506614 163.977049 
L 65.575566 164.331148 
L 65.584185 164.401985 
L 65.62728 164.118706 
L 65.670375 164.331148 
L 65.722089 164.118706 
L 65.791041 164.189525 
L 65.842756 164.331148 
L 65.851375 164.118706 
L 65.903089 164.260328 
L 65.928946 164.047869 
L 66.006517 164.118706 
L 66.109945 164.401985 
L 66.118564 164.260328 
L 66.153041 164.260328 
L 66.24785 164.118706 
L 66.351278 164.401985 
L 66.299564 164.047869 
L 66.359897 164.260328 
L 66.368516 164.260328 
L 66.463325 164.401985 
L 66.394373 164.189525 
L 66.471944 164.189525 
L 66.523659 164.260328 
L 66.609849 164.401985 
L 66.60123 164.189525 
L 66.627087 164.189525 
L 66.670182 164.260328 
L 66.756372 164.331148 
L 66.696039 164.118706 
L 66.77361 164.260328 
L 66.877039 164.118706 
L 66.816705 164.401985 
L 66.885658 164.189525 
L 66.911515 164.189525 
L 66.920134 164.331148 
L 66.963229 163.977049 
L 67.023562 164.260328 
L 67.101133 164.047869 
L 67.049419 164.401985 
L 67.144228 164.118706 
L 67.161466 164.118706 
L 67.204562 164.543607 
L 67.273514 164.331148 
L 67.282133 164.331148 
L 67.30799 163.906247 
L 67.402799 164.047869 
L 67.437275 164.472787 
L 67.523466 164.260328 
L 67.566561 164.260328 
L 67.583799 164.331148 
L 67.669989 163.977049 
L 67.773417 164.331148 
L 67.782036 164.189525 
L 67.850989 164.331148 
L 67.859608 164.118706 
L 67.876846 164.118706 
L 67.885465 164.118706 
L 67.980274 164.472787 
L 67.902703 164.047869 
L 67.997512 164.331148 
L 68.01475 164.047869 
L 68.049226 164.401985 
L 68.109559 164.189525 
L 68.152654 164.189525 
L 68.161273 164.047869 
L 68.238845 164.401985 
L 68.264702 164.118706 
L 68.36813 164.260328 
L 68.342273 163.977049 
L 68.376749 164.189525 
L 68.402606 164.047869 
L 68.411225 164.401985 
L 68.480177 164.189525 
L 68.506034 164.047869 
L 68.583606 164.260328 
L 68.643939 163.977049 
L 68.687034 164.331148 
L 68.695653 164.189525 
L 68.781843 164.047869 
L 68.738748 164.260328 
L 68.8077 164.118706 
L 68.893891 164.260328 
L 68.850795 164.047869 
L 68.90251 164.047869 
L 68.980081 163.977049 
L 68.919748 164.118706 
L 68.997319 164.118706 
L 69.092128 164.260328 
L 69.066271 163.977049 
L 69.100747 164.189525 
L 69.152461 163.906247 
L 69.204175 164.189525 
L 69.212794 164.189525 
L 69.247271 164.047869 
L 69.273128 164.260328 
L 69.324842 164.118706 
L 69.393794 164.260328 
L 69.419651 164.047869 
L 69.51446 164.260328 
L 69.531698 164.189525 
L 69.643746 163.977049 
L 69.60927 164.260328 
L 69.652365 164.047869 
L 69.678222 163.977049 
L 69.755793 164.260328 
L 69.876459 163.977049 
L 69.928174 164.260328 
L 69.988507 164.118706 
L 70.083316 164.118706 
L 70.091935 163.977049 
L 70.109173 164.260328 
L 70.186744 164.047869 
L 70.195363 164.260328 
L 70.298792 164.118706 
L 70.307411 163.977049 
L 70.350506 164.260328 
L 70.40222 164.047869 
L 70.48841 164.260328 
L 70.514267 164.118706 
L 70.583219 163.977049 
L 70.5746 164.189525 
L 70.617696 164.047869 
L 70.703886 164.260328 
L 70.738362 164.189525 
L 70.807314 164.047869 
L 70.764219 164.260328 
L 70.84179 164.118706 
L 70.893504 164.189525 
L 70.910742 163.83541 
L 70.92798 163.977049 
L 70.9366 163.977049 
L 70.996933 164.189525 
L 71.048647 164.047869 
L 71.065885 164.118706 
L 71.074504 163.906247 
L 71.091742 164.260328 
L 71.169313 164.118706 
L 71.264122 164.189525 
L 71.221027 163.977049 
L 71.272742 164.118706 
L 71.341694 164.331148 
L 71.384789 163.977049 
L 71.410646 164.047869 
L 71.505455 164.260328 
L 71.436503 163.977049 
L 71.531312 164.189525 
L 71.634741 164.260328 
L 71.64336 163.906247 
L 71.712312 164.260328 
L 71.755407 164.118706 
L 71.798502 164.189525 
L 71.824359 163.906247 
L 71.841597 164.260328 
L 71.910549 164.118706 
L 71.962264 164.189525 
L 72.022597 163.977049 
L 72.117406 164.331148 
L 72.074311 163.906247 
L 72.151882 164.189525 
L 72.160501 164.189525 
L 72.263929 164.047869 
L 72.35012 164.189525 
L 72.375977 164.118706 
L 72.444929 164.047869 
L 72.410453 164.260328 
L 72.453548 164.260328 
L 72.462167 164.331148 
L 72.479405 164.047869 
L 72.5225 164.118706 
L 72.531119 163.977049 
L 72.574214 164.260328 
L 72.617309 164.260328 
L 72.634547 164.260328 
L 72.746595 163.977049 
L 72.755214 164.047869 
L 72.78969 164.260328 
L 72.867261 163.977049 
L 72.987928 164.260328 
L 73.099975 163.977049 
L 73.108594 164.047869 
L 73.194784 163.977049 
L 73.237879 164.331148 
L 73.349927 164.047869 
L 73.418879 164.189525 
L 73.461974 164.118706 
L 73.522307 164.260328 
L 73.556783 164.118706 
L 73.625735 163.906247 
L 73.58264 164.189525 
L 73.660211 164.118706 
L 73.720545 164.260328 
L 73.686069 164.047869 
L 73.746402 164.047869 
L 73.798116 163.977049 
L 73.772259 164.118706 
L 73.841211 164.118706 
L 73.892925 164.260328 
L 73.918782 163.977049 
L 73.93602 164.118706 
L 73.953258 163.906247 
L 74.022211 164.260328 
L 74.048068 164.047869 
L 74.073925 163.977049 
L 74.160115 164.260328 
L 74.211829 163.977049 
L 74.272162 164.118706 
L 74.280781 164.118706 
L 74.298019 163.83541 
L 74.38421 164.047869 
L 74.418686 163.906247 
L 74.487638 164.118706 
L 74.496257 163.906247 
L 74.599685 164.047869 
L 74.625542 164.331148 
L 74.703114 163.977049 
L 74.763447 164.260328 
L 74.720352 163.906247 
L 74.815161 164.047869 
L 74.841018 164.118706 
L 74.849637 164.189525 
L 74.90997 163.83541 
L 74.918589 163.977049 
L 74.99616 163.906247 
L 74.953065 164.118706 
L 75.013398 163.977049 
L 75.099589 164.118706 
L 75.047875 163.83541 
L 75.116827 163.977049 
L 75.151303 164.047869 
L 75.203017 163.977049 
L 75.237493 164.189525 
L 75.246112 163.906247 
L 75.254731 164.260328 
L 75.34954 163.977049 
L 75.44435 164.260328 
L 75.452969 164.118706 
L 75.461588 163.83541 
L 75.565016 164.047869 
L 75.642587 164.260328 
L 75.668444 163.977049 
L 75.677063 164.189525 
L 75.70292 164.260328 
L 75.789111 163.977049 
L 75.858063 164.260328 
L 75.892539 164.118706 
L 75.909777 164.260328 
L 76.013205 163.906247 
L 76.073539 164.189525 
L 76.133872 164.047869 
L 76.211443 163.906247 
L 76.194205 164.189525 
L 76.2373 163.977049 
L 76.306252 164.260328 
L 76.263157 163.906247 
L 76.357966 164.118706 
L 76.366585 164.118706 
L 76.461395 163.906247 
L 76.392442 164.189525 
L 76.470014 163.977049 
L 76.564823 164.189525 
L 76.573442 164.047869 
L 76.582061 163.906247 
L 76.599299 164.189525 
L 76.67687 163.977049 
L 76.728584 164.118706 
L 76.77168 163.83541 
L 76.780299 163.977049 
L 76.806156 163.906247 
L 76.823394 164.118706 
L 76.883727 163.977049 
L 76.918203 163.906247 
L 77.03025 164.189525 
L 77.073345 163.977049 
L 77.107822 164.260328 
L 77.142298 164.047869 
L 77.159536 163.977049 
L 77.254345 164.260328 
L 77.262964 163.977049 
L 77.366392 164.189525 
L 77.426725 164.047869 
L 77.392249 164.331148 
L 77.469821 164.189525 
L 77.512916 164.118706 
L 77.616344 163.977049 
L 77.556011 164.260328 
L 77.624963 164.047869 
L 77.642201 164.047869 
L 77.73701 163.977049 
L 77.754248 164.189525 
L 77.823201 164.260328 
L 77.866296 163.906247 
L 77.943867 164.260328 
L 77.978343 164.118706 
L 78.021438 163.977049 
L 78.0042 164.189525 
L 78.09039 164.047869 
L 78.124867 164.118706 
L 78.133486 164.189525 
L 78.142105 163.906247 
L 78.228295 164.118706 
L 78.297247 163.83541 
L 78.340342 163.977049 
L 78.348961 163.977049 
L 78.426532 164.189525 
L 78.461009 164.047869 
L 78.478247 163.906247 
L 78.495485 164.118706 
L 78.555818 164.118706 
L 78.581675 164.047869 
L 78.642008 163.906247 
L 78.607532 164.118706 
L 78.676484 164.118706 
L 78.685103 164.260328 
L 78.719579 163.977049 
L 78.771293 164.047869 
L 78.857484 163.977049 
L 78.823008 164.260328 
L 78.866103 164.118706 
L 78.874722 164.118706 
L 78.883341 163.906247 
L 78.97815 164.118706 
L 78.986769 164.118706 
L 79.055721 163.906247 
L 79.021245 164.189525 
L 79.098816 164.047869 
L 79.116054 164.189525 
L 79.15915 163.906247 
L 79.202245 164.047869 
L 79.228102 163.906247 
L 79.297054 164.189525 
L 79.305673 163.977049 
L 79.33153 164.331148 
L 79.41772 164.189525 
L 79.521149 164.047869 
L 79.529768 164.118706 
L 79.624577 164.189525 
L 79.590101 163.977049 
L 79.633196 164.118706 
L 79.68491 164.047869 
L 79.745243 163.977049 
L 79.702148 164.118706 
L 79.7711 164.118706 
L 79.86591 164.331148 
L 79.840053 163.906247 
L 79.874529 164.260328 
L 79.9521 163.906247 
L 79.995195 163.977049 
L 80.072766 164.331148 
L 80.115861 164.189525 
L 80.141718 164.189525 
L 80.176195 163.906247 
L 80.236528 164.260328 
L 80.262385 163.977049 
L 80.271004 163.977049 
L 80.400289 164.331148 
L 80.520956 163.977049 
L 80.529575 164.260328 
L 80.555432 163.906247 
L 80.624384 164.189525 
L 80.727812 163.977049 
L 80.736431 164.047869 
L 80.74505 164.189525 
L 80.83124 163.83541 
L 80.874336 164.189525 
L 80.960526 164.047869 
L 81.055335 163.76459 
L 81.01224 164.118706 
L 81.072573 163.977049 
L 81.107049 163.977049 
L 81.132906 163.906247 
L 81.219097 164.118706 
L 81.305287 163.906247 
L 81.270811 164.260328 
L 81.331144 163.977049 
L 81.357001 164.047869 
L 81.434572 164.260328 
L 81.443191 163.977049 
L 81.45181 164.047869 
L 81.54662 163.977049 
L 81.477667 164.260328 
L 81.555239 164.047869 
L 81.606953 164.189525 
L 81.581096 163.83541 
L 81.641429 164.047869 
L 81.650048 163.906247 
L 81.684524 164.331148 
L 81.744857 163.977049 
L 81.80519 164.260328 
L 81.856904 164.047869 
L 81.9 163.977049 
L 81.934476 164.189525 
L 81.960333 164.047869 
L 81.98619 164.260328 
L 82.037904 163.977049 
L 82.063761 164.118706 
L 82.149951 164.260328 
L 82.167189 164.047869 
L 82.236142 164.260328 
L 82.25338 163.977049 
L 82.322332 163.83541 
L 82.270618 164.118706 
L 82.348189 164.047869 
L 82.365427 163.906247 
L 82.468855 164.260328 
L 82.477474 164.260328 
L 82.589522 163.906247 
L 82.710188 164.189525 
L 82.77914 164.401985 
L 82.813616 164.047869 
L 82.917045 164.189525 
L 82.86533 163.906247 
L 82.925664 164.118706 
L 82.951521 164.118706 
L 82.968759 164.260328 
L 83.029092 163.906247 
L 83.054949 164.189525 
L 83.184234 163.977049 
L 83.235948 164.047869 
L 83.253187 164.189525 
L 83.304901 163.906247 
L 83.330758 164.047869 
L 83.408329 163.906247 
L 83.373853 164.189525 
L 83.442805 163.977049 
L 83.520376 163.906247 
L 83.554852 164.118706 
L 83.649662 164.189525 
L 83.658281 163.977049 
L 83.709995 164.118706 
L 83.735852 163.693788 
L 83.75309 163.977049 
L 83.813423 162.489853 
L 83.847899 163.410509 
L 83.959947 165.96 
L 83.977185 165.88918 
L 84.218517 164.756066 
L 84.296089 164.968525 
L 84.244374 164.685246 
L 84.330565 164.826903 
L 84.339184 164.826903 
L 84.382279 164.614444 
L 84.416755 164.897722 
L 84.451231 164.756066 
L 84.494326 164.614444 
L 84.563278 164.897722 
L 84.580516 164.543607 
L 84.683945 164.614444 
L 84.735659 164.756066 
L 84.744278 164.543607 
L 84.787373 164.685246 
L 84.830468 164.401985 
L 84.856325 164.826903 
L 84.890801 164.756066 
L 84.908039 164.685246 
L 84.933896 164.756066 
L 85.028706 164.472787 
L 85.08042 164.756066 
L 85.140753 164.614444 
L 85.226943 164.756066 
L 85.201086 164.543607 
L 85.244181 164.685246 
L 85.304515 164.401985 
L 85.364848 164.472787 
L 85.468276 164.685246 
L 85.425181 164.401985 
L 85.476895 164.543607 
L 85.502752 164.614444 
L 85.563085 164.472787 
L 85.614799 164.685246 
L 85.649276 164.756066 
L 85.735466 164.401985 
L 85.813037 164.685246 
L 85.838894 164.543607 
L 85.847513 164.331148 
L 85.890608 164.614444 
L 85.950941 164.472787 
L 86.002656 164.472787 
L 86.080227 164.685246 
L 86.088846 164.401985 
L 86.106084 164.472787 
L 86.114703 164.401985 
L 86.175036 164.756066 
L 86.192274 164.472787 
L 86.269845 164.685246 
L 86.295702 164.401985 
L 86.31294 164.401985 
L 86.356036 164.685246 
L 86.424988 164.543607 
L 86.442226 164.614444 
L 86.49394 164.826903 
L 86.485321 164.543607 
L 86.545654 164.685246 
L 86.640463 164.756066 
L 86.657701 164.543607 
L 86.67494 164.756066 
L 86.726654 164.472787 
L 86.743892 164.543607 
L 86.752511 164.401985 
L 86.804225 164.756066 
L 86.838701 164.685246 
L 86.855939 164.685246 
L 86.864558 164.472787 
L 86.907653 164.756066 
L 86.967986 164.614444 
L 87.02832 164.756066 
L 86.985224 164.543607 
L 87.062796 164.543607 
L 87.071415 164.543607 
L 87.080034 164.401985 
L 87.131748 164.685246 
L 87.166224 164.472787 
L 87.278271 164.685246 
L 87.364462 164.401985 
L 87.390319 164.472787 
L 87.424795 164.756066 
L 87.493747 164.472787 
L 87.502366 164.401985 
L 87.545461 164.614444 
L 87.571318 164.543607 
L 87.579937 164.826903 
L 87.588556 164.472787 
L 87.683365 164.685246 
L 87.82127 164.401985 
L 87.829889 164.401985 
L 87.933317 164.685246 
L 87.941936 164.472787 
L 87.99365 164.543607 
L 88.062603 164.685246 
L 88.019507 164.401985 
L 88.097079 164.543607 
L 88.122936 164.543607 
L 88.191888 164.401985 
L 88.226364 164.685246 
L 88.286697 164.401985 
L 88.329792 164.756066 
L 88.338411 164.472787 
L 88.44184 164.756066 
L 88.450459 164.685246 
L 88.536649 164.401985 
L 88.562506 164.614444 
L 88.674553 164.401985 
L 88.786601 164.685246 
L 88.855553 164.401985 
L 88.890029 164.756066 
L 89.027933 164.472787 
L 89.071029 164.401985 
L 89.139981 164.685246 
L 89.174457 164.756066 
L 89.277885 164.472787 
L 89.286504 164.614444 
L 89.329599 164.826903 
L 89.355456 164.543607 
L 89.381313 164.614444 
L 89.450266 164.472787 
L 89.41579 164.685246 
L 89.476123 164.543607 
L 89.484742 164.756066 
L 89.579551 164.401985 
L 89.657122 164.756066 
L 89.708836 164.614444 
L 89.777789 164.472787 
L 89.812265 164.543607 
L 89.85536 164.685246 
L 89.829503 164.401985 
L 89.907074 164.614444 
L 89.984645 164.685246 
L 90.010502 164.472787 
L 90.096693 164.401985 
L 90.131169 164.756066 
L 90.234597 164.401985 
L 90.243216 164.543607 
L 90.338025 164.685246 
L 90.312168 164.401985 
L 90.346644 164.543607 
L 90.355263 164.401985 
L 90.363882 164.685246 
L 90.458692 164.472787 
L 90.519025 164.685246 
L 90.527644 164.401985 
L 90.56212 164.472787 
L 90.570739 164.331148 
L 90.587977 164.543607 
L 90.656929 164.543607 
L 90.691405 164.472787 
L 90.768976 164.685246 
L 90.846548 164.401985 
L 90.889643 164.472787 
L 90.941357 164.685246 
L 90.975833 164.401985 
L 90.984452 164.472787 
L 91.00169 164.401985 
L 91.070642 164.614444 
L 91.079261 164.472787 
L 91.165452 164.756066 
L 91.130976 164.401985 
L 91.18269 164.472787 
L 91.26888 164.401985 
L 91.389546 164.685246 
L 91.484356 164.401985 
L 91.492975 164.472787 
L 91.501594 164.685246 
L 91.596403 164.472787 
L 91.673974 164.543607 
L 91.682593 164.685246 
L 91.699831 164.401985 
L 91.786021 164.614444 
L 91.872212 164.756066 
L 91.906688 164.260328 
L 91.958402 164.614444 
L 92.018735 164.543607 
L 92.096306 164.401985 
L 92.087687 164.614444 
L 92.130782 164.472787 
L 92.15664 164.685246 
L 92.208354 164.401985 
L 92.234211 164.472787 
L 92.303163 164.401985 
L 92.294544 164.543607 
L 92.311782 164.472787 
L 92.354877 164.685246 
L 92.41521 164.472787 
L 92.432448 164.472787 
L 92.441067 164.331148 
L 92.492782 164.543607 
L 92.535877 164.472787 
L 92.561734 164.614444 
L 92.553115 164.331148 
L 92.639305 164.472787 
L 92.725495 164.401985 
L 92.673781 164.543607 
L 92.734114 164.543607 
L 92.777209 164.543607 
L 92.880638 164.401985 
L 92.820304 164.685246 
L 92.889257 164.472787 
L 92.94959 164.401985 
L 92.958209 164.331148 
L 92.975447 164.685246 
L 93.027161 164.543607 
L 93.03578 164.685246 
L 93.053018 164.401985 
L 93.12197 164.472787 
L 93.173684 164.401985 
L 93.190923 164.614444 
L 93.21678 164.543607 
L 93.234018 164.472787 
L 93.30297 164.614444 
L 93.346065 164.401985 
L 93.354684 164.401985 
L 93.415017 164.543607 
L 93.458112 164.401985 
L 93.466731 164.189525 
L 93.492588 164.543607 
L 93.552922 164.331148 
L 93.561541 164.685246 
L 93.65635 164.260328 
L 93.664969 164.543607 
L 93.811492 164.472787 
L 93.906302 164.331148 
L 93.82873 164.543607 
L 93.914921 164.401985 
L 94.018349 164.614444 
L 94.026968 164.472787 
L 94.09592 164.614444 
L 94.113158 164.401985 
L 94.121777 164.472787 
L 94.190729 164.401985 
L 94.164872 164.614444 
L 94.207968 164.472787 
L 94.259682 164.685246 
L 94.285539 164.401985 
L 94.311396 164.472787 
L 94.509633 164.401985 
L 94.604443 164.685246 
L 94.621681 164.472787 
L 94.664776 164.401985 
L 94.673395 164.756066 
L 94.725109 164.472787 
L 94.759585 164.685246 
L 94.785442 164.331148 
L 94.828537 164.401985 
L 94.871632 164.614444 
L 94.931966 164.401985 
L 94.940585 164.331148 
L 94.992299 164.543607 
L 95.035394 164.401985 
L 95.052632 164.401985 
L 95.121584 164.614444 
L 95.15606 164.401985 
L 95.207774 164.401985 
L 95.216393 164.260328 
L 95.225012 164.543607 
L 95.311203 164.401985 
L 95.328441 164.401985 
L 95.388774 164.543607 
L 95.406012 164.331148 
L 95.431869 164.331148 
L 95.543916 164.685246 
L 95.457726 164.260328 
L 95.552535 164.543607 
L 95.638726 164.401985 
L 95.60425 164.685246 
L 95.664583 164.472787 
L 95.681821 164.472787 
L 95.768011 164.331148 
L 95.707678 164.614444 
L 95.785249 164.543607 
L 95.793868 164.685246 
L 95.86282 164.331148 
L 95.897296 164.614444 
L 95.923154 164.756066 
L 96.009344 164.401985 
L 96.078296 164.260328 
L 96.13001 164.685246 
L 96.224819 164.401985 
L 96.242057 164.472787 
L 96.276534 164.401985 
L 96.388581 164.685246 
L 96.405819 164.401985 
L 96.466152 164.826903 
L 96.492009 164.685246 
L 96.500628 164.826903 
L 96.56958 164.401985 
L 96.595437 164.614444 
L 96.638533 164.472787 
L 96.66439 164.756066 
L 96.698866 164.614444 
L 96.741961 164.472787 
L 96.793675 164.685246 
L 96.888484 164.472787 
L 96.897103 164.543607 
L 96.991913 164.897722 
L 97.000532 164.756066 
L 97.095341 164.401985 
L 97.112579 164.614444 
L 97.172912 164.756066 
L 97.129817 164.543607 
L 97.198769 164.685246 
L 97.267721 164.756066 
L 97.310817 164.472787 
L 97.319436 164.826903 
L 97.422864 164.543607 
L 97.448721 164.472787 
L 97.440102 164.685246 
L 97.491816 164.543607 
L 97.500435 164.826903 
L 97.569387 163.622951 
L 97.612482 162.702295 
L 97.664197 164.614444 
L 97.707292 164.331148 
L 97.750387 164.685246 
L 97.776244 164.543607 
L 97.802101 164.472787 
L 97.89691 164.826903 
L 98.000339 164.472787 
L 97.965862 164.897722 
L 98.017577 164.543607 
L 98.034815 164.756066 
L 98.086529 164.401985 
L 98.121005 164.472787 
L 98.181338 164.401985 
L 98.172719 164.756066 
L 98.215814 164.472787 
L 98.233052 164.401985 
L 98.336481 164.685246 
L 98.439909 164.401985 
L 98.405433 164.756066 
L 98.448528 164.543607 
L 98.543337 164.756066 
L 98.474385 164.401985 
L 98.551956 164.543607 
L 98.569194 164.543607 
L 98.629527 164.401985 
L 98.672623 164.472787 
L 98.758813 164.685246 
L 98.732956 164.401985 
L 98.78467 164.614444 
L 98.827765 164.401985 
L 98.862241 164.685246 
L 98.896717 164.543607 
L 98.95705 164.756066 
L 99.000146 164.685246 
L 99.034622 164.472787 
L 99.112193 164.543607 
L 99.120812 164.543607 
L 99.172526 164.685246 
L 99.13805 164.401985 
L 99.22424 164.543607 
L 99.284573 164.472787 
L 99.293192 164.685246 
L 99.353526 164.401985 
L 99.396621 164.543607 
L 99.500049 164.472787 
L 99.517287 164.401985 
L 99.569001 164.685246 
L 99.603477 164.472787 
L 99.681049 164.543607 
L 99.689668 164.685246 
L 99.732763 164.331148 
L 99.775858 164.401985 
L 99.784477 164.401985 
L 99.84481 164.685246 
L 99.896524 164.543607 
L 99.905143 164.543607 
L 100.008571 164.401985 
L 99.948238 164.756066 
L 100.01719 164.472787 
L 100.077524 164.543607 
L 100.086143 164.685246 
L 100.103381 164.472787 
L 100.180952 164.543607 
L 100.232666 164.472787 
L 100.241285 164.685246 
L 100.275761 164.614444 
L 100.344713 164.685246 
L 100.318856 164.331148 
L 100.361952 164.543607 
L 100.370571 164.401985 
L 100.37919 164.614444 
L 100.46538 164.472787 
L 100.491237 164.756066 
L 100.560189 164.614444 
L 100.663617 164.401985 
L 100.741189 164.685246 
L 100.767046 164.401985 
L 100.801522 164.472787 
L 100.913569 164.685246 
L 100.939426 164.401985 
L 101.025616 164.543607 
L 101.146283 164.756066 
L 101.275568 164.472787 
L 101.378996 164.756066 
L 101.387615 164.685246 
L 101.404854 164.685246 
L 101.43933 164.472787 
L 101.456568 164.826903 
L 101.516901 164.543607 
L 101.620329 164.756066 
L 101.577234 164.401985 
L 101.628948 164.685246 
L 101.637567 164.685246 
L 101.646186 164.543607 
L 101.654805 164.826903 
L 101.740996 164.685246 
L 101.766853 164.685246 
L 101.775472 164.472787 
L 101.844424 164.826903 
L 101.8789 164.614444 
L 101.956471 164.614444 
L 101.96509 164.401985 
L 102.008185 164.826903 
L 102.059899 164.543607 
L 102.111614 164.685246 
L 102.128852 164.401985 
L 102.171947 164.614444 
L 102.215042 164.401985 
L 102.258137 164.756066 
L 102.283994 164.472787 
L 102.352946 164.826903 
L 102.301232 164.401985 
L 102.396041 164.543607 
L 102.508089 164.826903 
L 102.447756 164.472787 
L 102.516708 164.685246 
L 102.568422 164.401985 
L 102.637374 164.543607 
L 102.67185 164.472787 
L 102.749421 164.685246 
L 102.801136 164.543607 
L 102.76666 164.826903 
L 102.85285 164.685246 
L 102.887326 164.685246 
L 102.964897 164.401985 
L 102.999373 164.472787 
L 103.094182 164.756066 
L 103.12004 164.685246 
L 103.197611 164.685246 
L 103.275182 164.756066 
L 103.309658 164.543607 
L 103.395848 164.756066 
L 103.413086 164.685246 
L 103.447563 164.543607 
L 103.516515 164.685246 
L 103.525134 164.685246 
L 103.542372 164.826903 
L 103.594086 164.543607 
L 103.628562 164.614444 
L 103.6458 164.472787 
L 103.680276 164.756066 
L 103.723371 164.756066 
L 103.792324 164.826903 
L 103.766466 164.614444 
L 103.809562 164.685246 
L 103.818181 164.472787 
L 103.844038 164.756066 
L 103.91299 164.685246 
L 103.947466 164.756066 
L 103.956085 164.543607 
L 104.016418 164.897722 
L 104.059513 164.614444 
L 104.102608 164.756066 
L 104.145704 164.472787 
L 104.154323 164.472787 
L 104.26637 164.685246 
L 104.300846 164.756066 
L 104.378417 164.543607 
L 104.43875 164.968525 
L 104.395655 164.401985 
L 104.490465 164.756066 
L 104.593893 164.472787 
L 104.568036 164.826903 
L 104.602512 164.543607 
L 104.714559 164.685246 
L 104.749035 164.543607 
L 104.800749 164.826903 
L 104.809368 164.756066 
L 104.843845 164.826903 
L 104.912797 164.472787 
L 104.955892 164.614444 
L 104.97313 164.826903 
L 104.998987 164.472787 
L 105.05932 164.685246 
L 105.179987 164.472787 
L 105.292034 164.756066 
L 105.317891 164.897722 
L 105.404081 164.543607 
L 105.4127 164.826903 
L 105.429938 164.472787 
L 105.516129 164.756066 
L 105.541986 164.472787 
L 105.567843 164.826903 
L 105.628176 164.685246 
L 105.645414 164.685246 
L 105.654033 164.472787 
L 105.688509 164.826903 
L 105.748842 164.685246 
L 105.757461 164.826903 
L 105.774699 164.472787 
L 105.86089 164.756066 
L 105.972937 164.543607 
L 105.998794 164.614444 
L 106.007413 164.685246 
L 106.050508 164.401985 
L 106.084984 164.543607 
L 106.093603 164.472787 
L 106.110841 164.685246 
L 106.171174 164.614444 
L 106.222889 164.756066 
L 106.205651 164.401985 
L 106.265984 164.685246 
L 106.291841 164.756066 
L 106.378031 164.472787 
L 106.498697 164.756066 
L 106.584888 164.472787 
L 106.515935 164.826903 
L 106.610745 164.685246 
L 106.627983 164.685246 
L 106.714173 164.401985 
L 106.74003 164.543607 
L 106.774506 164.401985 
L 106.843458 164.685246 
L 106.903792 164.472787 
L 106.877935 164.756066 
L 106.946887 164.685246 
L 106.955506 164.756066 
L 106.964125 164.472787 
L 107.041696 164.614444 
L 107.084791 164.401985 
L 107.136505 164.614444 
L 107.153743 164.472787 
L 107.239934 164.685246 
L 107.334743 164.543607 
L 107.283029 164.756066 
L 107.343362 164.756066 
L 107.369219 164.401985 
L 107.44679 164.685246 
L 107.464028 164.756066 
L 107.498504 164.472787 
L 107.53298 164.685246 
L 107.636409 164.472787 
L 107.593314 164.756066 
L 107.645028 164.543607 
L 107.748456 164.685246 
L 107.662266 164.401985 
L 107.757075 164.614444 
L 107.851884 164.401985 
L 107.808789 164.756066 
L 107.860503 164.472787 
L 107.903599 164.401985 
L 107.972551 164.685246 
L 108.015646 164.543607 
L 108.041503 164.826903 
L 108.075979 164.614444 
L 108.127693 164.756066 
L 108.136312 164.472787 
L 108.162169 164.543607 
L 108.188026 164.401985 
L 108.231121 164.685246 
L 108.24836 164.614444 
L 108.325931 164.826903 
L 108.343169 164.543607 
L 108.351788 164.614444 
L 108.429359 164.401985 
L 108.369026 164.685246 
L 108.446597 164.543607 
L 108.50693 164.472787 
L 108.550025 164.685246 
L 108.670692 164.401985 
L 108.679311 164.401985 
L 108.799977 164.685246 
L 108.886167 164.401985 
L 108.903405 164.685246 
L 108.937882 164.685246 
L 108.95512 164.472787 
L 108.998215 164.756066 
L 109.04131 164.685246 
L 109.067167 164.614444 
L 109.093024 164.401985 
L 109.144738 164.826903 
L 109.161976 164.685246 
L 109.179214 164.614444 
L 109.187833 164.897722 
L 109.248166 164.401985 
L 109.282643 164.614444 
L 109.334357 164.401985 
L 109.351595 164.685246 
L 109.39469 164.543607 
L 109.420547 164.614444 
L 109.429166 164.756066 
L 109.472261 164.472787 
L 109.523975 164.543607 
L 109.541213 164.401985 
L 109.575689 164.826903 
L 109.610166 164.614444 
L 109.670499 164.756066 
L 109.679118 164.472787 
L 109.704975 164.614444 
L 109.739451 164.472787 
L 109.756689 164.826903 
L 109.808403 164.543607 
L 109.817022 164.756066 
L 109.877355 164.401985 
L 109.911831 164.472787 
L 109.929069 164.543607 
L 110.006641 164.756066 
L 109.980784 164.401985 
L 110.041117 164.685246 
L 110.118688 164.401985 
L 110.161783 164.543607 
L 110.179021 164.472787 
L 110.230735 164.401985 
L 110.291069 164.756066 
L 110.403116 164.401985 
L 110.532401 164.756066 
L 110.592734 164.401985 
L 110.653068 164.472787 
L 110.687544 164.685246 
L 110.678925 164.401985 
L 110.765115 164.614444 
L 110.868543 164.401985 
L 110.825448 164.756066 
L 110.877162 164.543607 
L 110.963352 164.401985 
L 110.997829 164.685246 
L 111.023686 164.685246 
L 111.101257 164.472787 
L 111.118495 164.756066 
L 111.135733 164.543607 
L 111.16159 164.543607 
L 111.230542 164.401985 
L 111.282256 164.756066 
L 111.299494 164.401985 
L 111.394304 164.614444 
L 111.471875 164.543607 
L 111.549446 164.401985 
L 111.489113 164.614444 
L 111.583922 164.472787 
L 111.592541 164.472787 
L 111.687351 164.826903 
L 111.644255 164.401985 
L 111.69597 164.756066 
L 111.747684 164.401985 
L 111.808017 164.614444 
L 111.851112 164.472787 
L 111.876969 164.685246 
L 111.911445 164.614444 
L 111.980397 164.401985 
L 112.014874 164.685246 
L 112.032112 164.331148 
L 112.144159 164.472787 
L 112.238968 164.614444 
L 112.247587 164.543607 
L 112.264825 164.685246 
L 112.351016 164.401985 
L 112.445825 164.685246 
L 112.463063 164.543607 
L 112.48892 164.401985 
L 112.514777 164.897722 
L 112.523396 164.543607 
L 112.652681 155.266238 
L 112.945728 135.36591 
L 113.81625 93.157377 
L 113.885202 94.007222 
L 114.281677 105.763287 
L 114.393725 107.39214 
L 114.557486 109.162632 
L 115.005675 111.99541 
L 115.014294 111.924599 
L 115.066008 112.207869 
L 115.074627 112.207869 
L 115.221151 112.916066 
L 115.22977 112.916066 
L 115.272865 112.845255 
L 115.359055 113.340992 
L 115.384912 113.411803 
L 115.531436 113.836721 
L 115.540055 113.76591 
L 115.58315 114.261648 
L 115.591769 114.120009 
L 115.712435 114.544918 
L 115.746911 114.544918 
L 115.798626 114.474107 
L 115.867578 114.828205 
L 115.893435 114.757377 
L 116.02272 115.394763 
L 116.065815 115.323943 
L 116.091672 115.607213 
L 116.100291 115.536402 
L 116.238196 115.819672 
L 116.255434 115.748861 
L 116.307148 116.03214 
L 116.427814 116.386238 
L 116.47091 116.31541 
L 116.488148 116.527869 
L 116.505386 116.527869 
L 116.634671 116.881967 
L 116.677766 116.881967 
L 116.763956 117.165255 
L 116.72948 116.811156 
L 116.798433 117.094426 
L 116.832909 117.165255 
L 116.850147 117.094426 
L 116.944956 117.377714 
L 116.988051 117.448525 
L 117.091479 117.802623 
L 117.117336 117.731812 
L 117.169051 117.590164 
L 117.151813 117.944262 
L 117.203527 117.802623 
L 117.324193 118.08591 
L 117.332812 118.015091 
L 117.358669 118.08591 
L 117.487955 118.51082 
L 117.513812 118.36918 
L 117.565526 118.652468 
L 117.582764 118.652468 
L 117.729287 119.006566 
L 117.746525 119.006566 
L 117.875811 119.360664 
L 117.893049 119.219016 
L 117.910287 119.502304 
L 117.944763 119.360664 
L 117.953382 119.643943 
L 117.987858 119.289845 
L 118.05681 119.431475 
L 118.186096 119.785574 
L 118.203334 119.714763 
L 118.324 120.139672 
L 118.349857 120.068861 
L 118.41019 120.28132 
L 118.427428 120.2105 
L 118.479142 120.422959 
L 118.522238 120.139672 
L 118.660142 120.777058 
L 118.703237 120.564599 
L 118.754951 120.918697 
L 118.76357 120.847869 
L 118.892856 121.131156 
L 118.910094 120.847869 
L 118.918713 121.201967 
L 118.987665 121.060328 
L 119.099712 121.414426 
L 119.11695 121.272796 
L 119.194522 121.556066 
L 119.289331 121.697714 
L 119.228998 121.485255 
L 119.29795 121.626894 
L 119.306569 121.556066 
L 119.349664 121.910173 
L 119.38414 121.768525 
L 119.496187 122.122623 
L 119.504806 121.910173 
L 119.513425 121.839353 
L 119.573759 122.193451 
L 119.582378 122.051812 
L 119.703044 122.40591 
L 119.616854 121.980984 
L 119.711663 122.264271 
L 119.728901 122.264271 
L 119.73752 122.122623 
L 119.789234 122.40591 
L 119.82371 122.40591 
L 119.892663 122.40591 
L 119.987472 122.68918 
L 120.013329 122.618369 
L 120.021948 122.40591 
L 120.065043 122.901648 
L 120.108138 122.901648 
L 120.142614 122.901648 
L 120.151233 122.68918 
L 120.17709 123.043279 
L 120.237424 123.043279 
L 120.254662 122.972468 
L 120.35809 123.326566 
L 120.435661 123.114107 
L 120.44428 123.326566 
L 120.452899 123.609836 
L 120.461518 123.255746 
L 120.556328 123.397377 
L 120.676994 123.680664 
L 120.745946 123.751475 
L 120.840755 124.034763 
L 120.79766 123.609836 
L 120.875231 123.963934 
L 120.88385 123.963934 
L 121.013136 124.388861 
L 121.06485 124.247222 
L 121.107945 124.388861 
L 121.194135 124.318033 
L 121.228611 124.60132 
L 121.297564 124.459672 
L 121.24585 124.672131 
L 121.33204 124.60132 
L 121.41823 124.955418 
L 121.349278 124.5305 
L 121.461325 124.81377 
L 121.469944 124.672131 
L 121.495801 125.02623 
L 121.556134 124.955418 
L 121.642325 125.238697 
L 121.659563 125.097058 
L 121.668182 124.955418 
L 121.711277 125.238697 
L 121.762991 125.167869 
L 121.780229 125.238697 
L 121.883657 125.521976 
L 121.909514 125.451156 
L 121.95261 125.380328 
L 121.978467 125.309517 
L 122.012943 125.663615 
L 122.030181 125.451156 
L 122.090514 125.805255 
L 122.107752 125.734426 
L 122.219799 14.76 
L 248.359233 14.76 
L 248.359233 14.76 
" clip-path="url(#p12d8427a71)" style="fill: none; stroke: #000000; stroke-opacity: 0.5; stroke-width: 1.5; stroke-linecap: square"/>
   </g>
   <g id="patch_3">
    <path d="M 35.304688 173.52 
L 35.304688 7.2 
" style="fill: none; stroke: #000000; stroke-width: 0.8; stroke-linejoin: miter; stroke-linecap: square"/>
   </g>
   <g id="patch_4">
    <path d="M 35.304687 173.52 
L 258.504687 173.52 
" style="fill: none; stroke: #000000; stroke-width: 0.8; stroke-linejoin: miter; stroke-linecap: square"/>
   </g>
  </g>
 </g>
 <defs>
  <clipPath id="p12d8427a71">
   <rect x="35.304688" y="7.2" width="223.2" height="166.32"/>
  </clipPath>
 </defs>
</svg>
