<?xml version="1.0" encoding="utf-8" standalone="no"?>
<!DOCTYPE svg PUBLIC "-//W3C//DTD SVG 1.1//EN"
  "http://www.w3.org/Graphics/SVG/1.1/DTD/svg11.dtd">
<svg height="345.6pt" version="1.1" viewBox="0 0 460.8 345.6" width="460.8pt" xmlns="http://www.w3.org/2000/svg" xmlns:xlink="http://www.w3.org/1999/xlink">
 <metadata>
  <rdf:RDF xmlns:cc="http://creativecommons.org/ns#" xmlns:dc="http://purl.org/dc/elements/1.1/" xmlns:rdf="http://www.w3.org/1999/02/22-rdf-syntax-ns#">
   <cc:Work>
    <dc:type rdf:resource="http://purl.org/dc/dcmitype/StillImage"/>
    <dc:date>2024-08-06T14:41:19.159377</dc:date>
    <dc:format>image/svg+xml</dc:format>
    <dc:creator>
     <cc:Agent>
      <dc:title>Matplotlib v3.4.2, https://matplotlib.org/</dc:title>
     </cc:Agent>
    </dc:creator>
   </cc:Work>
  </rdf:RDF>
 </metadata>
 <defs>
  <style type="text/css">*{stroke-linecap:butt;stroke-linejoin:round;}</style>
 </defs>
 <g id="figure_1">
  <g id="patch_1">
   <path d="M 0 345.6 
L 460.8 345.6 
L 460.8 0 
L 0 0 
z
" style="fill:#ffffff;"/>
  </g>
  <g id="axes_1">
   <g id="patch_2">
    <path d="M 57.6 307.584 
L 414.72 307.584 
L 414.72 41.472 
L 57.6 41.472 
z
" style="fill:#ffffff;"/>
   </g>
   <g id="matplotlib.axis_1">
    <g id="xtick_1">
     <g id="line2d_1">
      <defs>
       <path d="M 0 0 
L 0 3.5 
" id="m3f3d7dfb69" style="stroke:#000000;stroke-width:0.8;"/>
      </defs>
      <g>
       <use style="stroke:#000000;stroke-width:0.8;" x="95.211629" xlink:href="#m3f3d7dfb69" y="307.584"/>
      </g>
     </g>
     <g id="text_1">
      <!-- 0.2 -->
      <g transform="translate(87.260067 322.182437)scale(0.1 -0.1)">
       <defs>
        <path d="M 2034 4250 
Q 1547 4250 1301 3770 
Q 1056 3291 1056 2328 
Q 1056 1369 1301 889 
Q 1547 409 2034 409 
Q 2525 409 2770 889 
Q 3016 1369 3016 2328 
Q 3016 3291 2770 3770 
Q 2525 4250 2034 4250 
z
M 2034 4750 
Q 2819 4750 3233 4129 
Q 3647 3509 3647 2328 
Q 3647 1150 3233 529 
Q 2819 -91 2034 -91 
Q 1250 -91 836 529 
Q 422 1150 422 2328 
Q 422 3509 836 4129 
Q 1250 4750 2034 4750 
z
" id="DejaVuSans-30" transform="scale(0.015625)"/>
        <path d="M 684 794 
L 1344 794 
L 1344 0 
L 684 0 
L 684 794 
z
" id="DejaVuSans-2e" transform="scale(0.015625)"/>
        <path d="M 1228 531 
L 3431 531 
L 3431 0 
L 469 0 
L 469 531 
Q 828 903 1448 1529 
Q 2069 2156 2228 2338 
Q 2531 2678 2651 2914 
Q 2772 3150 2772 3378 
Q 2772 3750 2511 3984 
Q 2250 4219 1831 4219 
Q 1534 4219 1204 4116 
Q 875 4013 500 3803 
L 500 4441 
Q 881 4594 1212 4672 
Q 1544 4750 1819 4750 
Q 2544 4750 2975 4387 
Q 3406 4025 3406 3419 
Q 3406 3131 3298 2873 
Q 3191 2616 2906 2266 
Q 2828 2175 2409 1742 
Q 1991 1309 1228 531 
z
" id="DejaVuSans-32" transform="scale(0.015625)"/>
       </defs>
       <use xlink:href="#DejaVuSans-30"/>
       <use x="63.623047" xlink:href="#DejaVuSans-2e"/>
       <use x="95.410156" xlink:href="#DejaVuSans-32"/>
      </g>
     </g>
    </g>
    <g id="xtick_2">
     <g id="line2d_2">
      <g>
       <use style="stroke:#000000;stroke-width:0.8;" x="139.20545" xlink:href="#m3f3d7dfb69" y="307.584"/>
      </g>
     </g>
     <g id="text_2">
      <!-- 0.4 -->
      <g transform="translate(131.253887 322.182437)scale(0.1 -0.1)">
       <defs>
        <path d="M 2419 4116 
L 825 1625 
L 2419 1625 
L 2419 4116 
z
M 2253 4666 
L 3047 4666 
L 3047 1625 
L 3713 1625 
L 3713 1100 
L 3047 1100 
L 3047 0 
L 2419 0 
L 2419 1100 
L 313 1100 
L 313 1709 
L 2253 4666 
z
" id="DejaVuSans-34" transform="scale(0.015625)"/>
       </defs>
       <use xlink:href="#DejaVuSans-30"/>
       <use x="63.623047" xlink:href="#DejaVuSans-2e"/>
       <use x="95.410156" xlink:href="#DejaVuSans-34"/>
      </g>
     </g>
    </g>
    <g id="xtick_3">
     <g id="line2d_3">
      <g>
       <use style="stroke:#000000;stroke-width:0.8;" x="183.19927" xlink:href="#m3f3d7dfb69" y="307.584"/>
      </g>
     </g>
     <g id="text_3">
      <!-- 0.6 -->
      <g transform="translate(175.247707 322.182437)scale(0.1 -0.1)">
       <defs>
        <path d="M 2113 2584 
Q 1688 2584 1439 2293 
Q 1191 2003 1191 1497 
Q 1191 994 1439 701 
Q 1688 409 2113 409 
Q 2538 409 2786 701 
Q 3034 994 3034 1497 
Q 3034 2003 2786 2293 
Q 2538 2584 2113 2584 
z
M 3366 4563 
L 3366 3988 
Q 3128 4100 2886 4159 
Q 2644 4219 2406 4219 
Q 1781 4219 1451 3797 
Q 1122 3375 1075 2522 
Q 1259 2794 1537 2939 
Q 1816 3084 2150 3084 
Q 2853 3084 3261 2657 
Q 3669 2231 3669 1497 
Q 3669 778 3244 343 
Q 2819 -91 2113 -91 
Q 1303 -91 875 529 
Q 447 1150 447 2328 
Q 447 3434 972 4092 
Q 1497 4750 2381 4750 
Q 2619 4750 2861 4703 
Q 3103 4656 3366 4563 
z
" id="DejaVuSans-36" transform="scale(0.015625)"/>
       </defs>
       <use xlink:href="#DejaVuSans-30"/>
       <use x="63.623047" xlink:href="#DejaVuSans-2e"/>
       <use x="95.410156" xlink:href="#DejaVuSans-36"/>
      </g>
     </g>
    </g>
    <g id="xtick_4">
     <g id="line2d_4">
      <g>
       <use style="stroke:#000000;stroke-width:0.8;" x="227.19309" xlink:href="#m3f3d7dfb69" y="307.584"/>
      </g>
     </g>
     <g id="text_4">
      <!-- 0.8 -->
      <g transform="translate(219.241528 322.182437)scale(0.1 -0.1)">
       <defs>
        <path d="M 2034 2216 
Q 1584 2216 1326 1975 
Q 1069 1734 1069 1313 
Q 1069 891 1326 650 
Q 1584 409 2034 409 
Q 2484 409 2743 651 
Q 3003 894 3003 1313 
Q 3003 1734 2745 1975 
Q 2488 2216 2034 2216 
z
M 1403 2484 
Q 997 2584 770 2862 
Q 544 3141 544 3541 
Q 544 4100 942 4425 
Q 1341 4750 2034 4750 
Q 2731 4750 3128 4425 
Q 3525 4100 3525 3541 
Q 3525 3141 3298 2862 
Q 3072 2584 2669 2484 
Q 3125 2378 3379 2068 
Q 3634 1759 3634 1313 
Q 3634 634 3220 271 
Q 2806 -91 2034 -91 
Q 1263 -91 848 271 
Q 434 634 434 1313 
Q 434 1759 690 2068 
Q 947 2378 1403 2484 
z
M 1172 3481 
Q 1172 3119 1398 2916 
Q 1625 2713 2034 2713 
Q 2441 2713 2670 2916 
Q 2900 3119 2900 3481 
Q 2900 3844 2670 4047 
Q 2441 4250 2034 4250 
Q 1625 4250 1398 4047 
Q 1172 3844 1172 3481 
z
" id="DejaVuSans-38" transform="scale(0.015625)"/>
       </defs>
       <use xlink:href="#DejaVuSans-30"/>
       <use x="63.623047" xlink:href="#DejaVuSans-2e"/>
       <use x="95.410156" xlink:href="#DejaVuSans-38"/>
      </g>
     </g>
    </g>
    <g id="xtick_5">
     <g id="line2d_5">
      <g>
       <use style="stroke:#000000;stroke-width:0.8;" x="271.18691" xlink:href="#m3f3d7dfb69" y="307.584"/>
      </g>
     </g>
     <g id="text_5">
      <!-- 1.0 -->
      <g transform="translate(263.235348 322.182437)scale(0.1 -0.1)">
       <defs>
        <path d="M 794 531 
L 1825 531 
L 1825 4091 
L 703 3866 
L 703 4441 
L 1819 4666 
L 2450 4666 
L 2450 531 
L 3481 531 
L 3481 0 
L 794 0 
L 794 531 
z
" id="DejaVuSans-31" transform="scale(0.015625)"/>
       </defs>
       <use xlink:href="#DejaVuSans-31"/>
       <use x="63.623047" xlink:href="#DejaVuSans-2e"/>
       <use x="95.410156" xlink:href="#DejaVuSans-30"/>
      </g>
     </g>
    </g>
    <g id="xtick_6">
     <g id="line2d_6">
      <g>
       <use style="stroke:#000000;stroke-width:0.8;" x="315.18073" xlink:href="#m3f3d7dfb69" y="307.584"/>
      </g>
     </g>
     <g id="text_6">
      <!-- 1.2 -->
      <g transform="translate(307.229168 322.182437)scale(0.1 -0.1)">
       <use xlink:href="#DejaVuSans-31"/>
       <use x="63.623047" xlink:href="#DejaVuSans-2e"/>
       <use x="95.410156" xlink:href="#DejaVuSans-32"/>
      </g>
     </g>
    </g>
    <g id="xtick_7">
     <g id="line2d_7">
      <g>
       <use style="stroke:#000000;stroke-width:0.8;" x="359.174551" xlink:href="#m3f3d7dfb69" y="307.584"/>
      </g>
     </g>
     <g id="text_7">
      <!-- 1.4 -->
      <g transform="translate(351.222988 322.182437)scale(0.1 -0.1)">
       <use xlink:href="#DejaVuSans-31"/>
       <use x="63.623047" xlink:href="#DejaVuSans-2e"/>
       <use x="95.410156" xlink:href="#DejaVuSans-34"/>
      </g>
     </g>
    </g>
    <g id="xtick_8">
     <g id="line2d_8">
      <g>
       <use style="stroke:#000000;stroke-width:0.8;" x="403.168371" xlink:href="#m3f3d7dfb69" y="307.584"/>
      </g>
     </g>
     <g id="text_8">
      <!-- 1.6 -->
      <g transform="translate(395.216808 322.182437)scale(0.1 -0.1)">
       <use xlink:href="#DejaVuSans-31"/>
       <use x="63.623047" xlink:href="#DejaVuSans-2e"/>
       <use x="95.410156" xlink:href="#DejaVuSans-36"/>
      </g>
     </g>
    </g>
   </g>
   <g id="matplotlib.axis_2">
    <g id="ytick_1">
     <g id="line2d_9">
      <defs>
       <path d="M 0 0 
L -3.5 0 
" id="ma9a42555ce" style="stroke:#000000;stroke-width:0.8;"/>
      </defs>
      <g>
       <use style="stroke:#000000;stroke-width:0.8;" x="57.6" xlink:href="#ma9a42555ce" y="270.588121"/>
      </g>
     </g>
     <g id="text_9">
      <!-- −100 -->
      <g transform="translate(23.132812 274.38734)scale(0.1 -0.1)">
       <defs>
        <path d="M 678 2272 
L 4684 2272 
L 4684 1741 
L 678 1741 
L 678 2272 
z
" id="DejaVuSans-2212" transform="scale(0.015625)"/>
       </defs>
       <use xlink:href="#DejaVuSans-2212"/>
       <use x="83.789062" xlink:href="#DejaVuSans-31"/>
       <use x="147.412109" xlink:href="#DejaVuSans-30"/>
       <use x="211.035156" xlink:href="#DejaVuSans-30"/>
      </g>
     </g>
    </g>
    <g id="ytick_2">
     <g id="line2d_10">
      <g>
       <use style="stroke:#000000;stroke-width:0.8;" x="57.6" xlink:href="#ma9a42555ce" y="231.674275"/>
      </g>
     </g>
     <g id="text_10">
      <!-- −80 -->
      <g transform="translate(29.495313 235.473494)scale(0.1 -0.1)">
       <use xlink:href="#DejaVuSans-2212"/>
       <use x="83.789062" xlink:href="#DejaVuSans-38"/>
       <use x="147.412109" xlink:href="#DejaVuSans-30"/>
      </g>
     </g>
    </g>
    <g id="ytick_3">
     <g id="line2d_11">
      <g>
       <use style="stroke:#000000;stroke-width:0.8;" x="57.6" xlink:href="#ma9a42555ce" y="192.760428"/>
      </g>
     </g>
     <g id="text_11">
      <!-- −60 -->
      <g transform="translate(29.495313 196.559647)scale(0.1 -0.1)">
       <use xlink:href="#DejaVuSans-2212"/>
       <use x="83.789062" xlink:href="#DejaVuSans-36"/>
       <use x="147.412109" xlink:href="#DejaVuSans-30"/>
      </g>
     </g>
    </g>
    <g id="ytick_4">
     <g id="line2d_12">
      <g>
       <use style="stroke:#000000;stroke-width:0.8;" x="57.6" xlink:href="#ma9a42555ce" y="153.846582"/>
      </g>
     </g>
     <g id="text_12">
      <!-- −40 -->
      <g transform="translate(29.495313 157.645801)scale(0.1 -0.1)">
       <use xlink:href="#DejaVuSans-2212"/>
       <use x="83.789062" xlink:href="#DejaVuSans-34"/>
       <use x="147.412109" xlink:href="#DejaVuSans-30"/>
      </g>
     </g>
    </g>
    <g id="ytick_5">
     <g id="line2d_13">
      <g>
       <use style="stroke:#000000;stroke-width:0.8;" x="57.6" xlink:href="#ma9a42555ce" y="114.932736"/>
      </g>
     </g>
     <g id="text_13">
      <!-- −20 -->
      <g transform="translate(29.495313 118.731954)scale(0.1 -0.1)">
       <use xlink:href="#DejaVuSans-2212"/>
       <use x="83.789062" xlink:href="#DejaVuSans-32"/>
       <use x="147.412109" xlink:href="#DejaVuSans-30"/>
      </g>
     </g>
    </g>
    <g id="ytick_6">
     <g id="line2d_14">
      <g>
       <use style="stroke:#000000;stroke-width:0.8;" x="57.6" xlink:href="#ma9a42555ce" y="76.018889"/>
      </g>
     </g>
     <g id="text_14">
      <!-- 0 -->
      <g transform="translate(44.2375 79.818108)scale(0.1 -0.1)">
       <use xlink:href="#DejaVuSans-30"/>
      </g>
     </g>
    </g>
   </g>
   <g id="line2d_15">
    <path clip-path="url(#p0f15313fc2)" d="M 73.832727 168.733883 
L 74.485081 168.705425 
L 75.137434 168.14285 
L 75.789787 167.930946 
L 76.22469 167.679933 
L 76.659592 167.601538 
L 77.964299 166.240742 
L 78.18175 166.197963 
L 78.399201 165.808435 
L 78.834103 165.433966 
L 79.051555 165.582975 
L 81.226066 190.415464 
L 82.09587 197.616675 
L 84.922735 218.427545 
L 86.227442 226.672787 
L 88.836856 240.776833 
L 90.141562 247.360227 
L 91.228818 253.184642 
L 91.881172 255.412096 
L 92.750976 257.316043 
L 93.620781 260.027889 
L 94.490585 262.406845 
L 95.36039 264.675175 
L 97.534901 270.517488 
L 97.752352 270.688104 
L 97.969803 271.02864 
L 99.057059 273.731092 
L 99.709412 274.87346 
L 100.144315 275.027783 
L 100.579217 275.704859 
L 100.796668 276.015636 
L 101.23157 276.011897 
L 101.449021 276.229997 
L 101.883924 276.18187 
L 102.318826 275.906969 
L 103.188631 276.540508 
L 103.623533 276.479206 
L 103.840984 276.291398 
L 104.058435 276.383106 
L 104.710789 277.120049 
L 105.363142 277.370789 
L 105.580593 277.433029 
L 106.015495 277.762463 
L 106.667849 277.937383 
L 106.8853 277.781598 
L 107.320202 277.944735 
L 107.537653 277.796053 
L 107.755104 277.783305 
L 108.624909 278.225821 
L 108.84236 278.089904 
L 109.059811 278.254013 
L 109.494714 278.880408 
L 110.364518 278.739028 
L 110.79942 278.644952 
L 111.016871 278.741786 
L 112.321578 280.675371 
L 112.756481 281.433386 
L 113.191383 281.265227 
L 113.408834 281.085106 
L 113.626285 281.144891 
L 114.061187 281.42779 
L 114.713541 281.658926 
L 116.235699 283.616124 
L 116.670601 283.704408 
L 116.888052 283.764637 
L 117.322954 284.124899 
L 117.540406 284.133207 
L 118.41021 283.208946 
L 118.627661 283.180209 
L 118.845112 283.325623 
L 119.062563 283.332786 
L 119.280015 283.167525 
L 119.714917 282.561932 
L 120.149819 282.480111 
L 120.802173 282.726499 
L 121.019624 282.527332 
L 121.454526 281.410229 
L 121.671977 281.269607 
L 121.889428 281.324083 
L 122.106879 281.235451 
L 122.324331 281.327096 
L 122.759233 282.054321 
L 123.629037 282.528094 
L 124.281391 282.396101 
L 124.716293 282.409621 
L 124.933744 282.194854 
L 125.368646 282.237464 
L 125.586098 281.970364 
L 127.108255 281.605077 
L 128.412962 282.137662 
L 130.152571 279.951931 
L 130.587474 279.563443 
L 131.022376 279.14517 
L 131.457278 279.429418 
L 131.89218 279.61059 
L 132.327083 279.752586 
L 132.761985 280.008652 
L 133.414338 280.692994 
L 135.371399 282.681517 
L 135.58885 282.833842 
L 136.458654 282.897461 
L 137.328459 283.554719 
L 137.980812 283.732222 
L 138.415715 284.201337 
L 138.633166 284.054893 
L 139.068068 283.349792 
L 139.285519 283.297251 
L 139.50297 283.4656 
L 139.720421 283.43096 
L 140.155324 282.969284 
L 140.590226 282.634317 
L 140.807677 282.431094 
L 141.242579 282.586912 
L 141.677482 282.261007 
L 142.547286 280.966972 
L 142.764737 280.851712 
L 143.634542 281.992168 
L 143.851993 282.087463 
L 144.069444 282.037178 
L 144.504346 282.308324 
L 144.939249 282.845193 
L 145.591602 282.973948 
L 146.026504 283.07622 
L 146.243955 282.88368 
L 146.461407 282.872672 
L 146.896309 283.35733 
L 147.11376 283.484421 
L 147.548662 284.45517 
L 148.201016 285.610382 
L 148.635918 286.238816 
L 149.505722 286.803051 
L 151.245332 289.350297 
L 151.680234 289.591508 
L 152.115136 289.975865 
L 152.332587 289.990686 
L 152.550038 289.867893 
L 152.984941 290.054569 
L 153.419843 290.200651 
L 153.854745 290.085652 
L 154.507099 290.501214 
L 155.159452 290.701572 
L 155.594354 291.096023 
L 156.029257 291.182246 
L 156.68161 291.520403 
L 157.116512 291.906479 
L 158.203768 292.006598 
L 158.856121 292.548003 
L 159.508475 293.171513 
L 160.160828 294.105215 
L 160.813182 294.385324 
L 161.682986 294.243657 
L 162.335339 293.821623 
L 162.552791 293.420961 
L 162.770242 293.299685 
L 163.205144 293.425024 
L 163.640046 293.412172 
L 164.727302 294.148562 
L 165.379655 294.229169 
L 165.814558 293.924273 
L 166.032009 293.895464 
L 166.466911 293.045474 
L 166.684362 293.015598 
L 167.771618 293.51881 
L 168.20652 293.314087 
L 168.423971 293.149237 
L 168.858874 293.228798 
L 169.728678 293.58485 
L 169.946129 293.762033 
L 170.381031 293.613069 
L 170.815934 293.626508 
L 171.250836 293.803775 
L 171.685738 293.828518 
L 171.903189 293.696322 
L 172.338092 293.809293 
L 172.772994 293.482496 
L 173.207896 293.635142 
L 173.642799 293.425128 
L 174.512603 292.689242 
L 174.730054 292.509112 
L 175.164956 292.540622 
L 175.599859 292.782197 
L 175.81731 292.998086 
L 176.034761 293.032647 
L 176.469663 292.592612 
L 177.122017 292.632886 
L 177.339468 292.679453 
L 177.556919 292.600057 
L 177.991821 292.090872 
L 178.861626 290.034591 
L 179.079077 289.87286 
L 179.296528 289.532246 
L 179.948881 288.000679 
L 180.601235 287.262754 
L 181.253588 286.983299 
L 181.905942 287.56283 
L 182.340844 287.83945 
L 183.645551 289.564991 
L 184.732806 290.741234 
L 185.38516 290.731476 
L 186.254964 291.390664 
L 186.907318 292.130094 
L 187.777122 292.543173 
L 187.994573 292.442316 
L 188.429476 292.530488 
L 189.081829 292.090179 
L 189.516731 291.904352 
L 189.951634 292.200099 
L 191.25634 290.759664 
L 191.473792 290.665845 
L 191.908694 290.891199 
L 192.99595 292.345722 
L 193.648303 293.100318 
L 194.300656 293.887247 
L 194.735559 294.430989 
L 194.95301 294.52762 
L 195.387912 294.381265 
L 196.257717 294.157589 
L 196.91007 293.492104 
L 197.562423 293.239353 
L 199.084581 293.87678 
L 200.171837 294.256204 
L 200.606739 294.57137 
L 201.259093 295.083975 
L 201.476544 295.060458 
L 201.911446 294.792104 
L 202.781251 294.278595 
L 202.998702 294.017541 
L 203.433604 293.926789 
L 203.868506 293.934079 
L 204.738311 294.362567 
L 205.173213 294.075379 
L 205.390664 293.917649 
L 205.825567 294.010388 
L 206.043018 294.035257 
L 206.260469 293.848825 
L 206.695371 293.186912 
L 207.130273 292.747912 
L 207.565176 292.574897 
L 207.782627 292.520178 
L 208.217529 292.641059 
L 208.43498 292.453282 
L 208.869882 291.668636 
L 209.304785 291.333997 
L 209.739687 291.187681 
L 211.261845 292.014703 
L 211.696747 291.910403 
L 212.784003 291.621351 
L 213.436356 291.450377 
L 214.08871 291.165546 
L 214.523612 291.073118 
L 215.175965 291.283921 
L 215.610868 291.218055 
L 215.828319 291.186195 
L 216.263221 290.751247 
L 216.915574 290.922971 
L 217.133026 290.890214 
L 217.567928 290.393582 
L 217.785379 290.441641 
L 219.307537 288.761832 
L 219.524988 288.86171 
L 219.95989 288.794233 
L 220.394793 289.13065 
L 221.047146 289.687357 
L 221.482048 289.320648 
L 221.916951 289.252142 
L 222.351853 289.023035 
L 223.439109 289.711817 
L 224.743815 291.157612 
L 225.396169 291.524843 
L 225.61362 291.626902 
L 226.265973 291.494357 
L 226.700876 290.997557 
L 227.135778 290.248938 
L 228.875387 289.761481 
L 229.310289 289.863614 
L 229.745191 290.072837 
L 230.180094 290.191697 
L 230.614996 290.136213 
L 230.832447 290.217561 
L 231.484801 289.966455 
L 232.137154 289.266472 
L 233.441861 289.828131 
L 234.094214 290.941276 
L 235.18147 292.644331 
L 235.398921 292.825713 
L 236.268726 292.385483 
L 236.921079 291.927939 
L 237.13853 291.783493 
L 237.790884 292.162899 
L 238.008335 292.071094 
L 238.443237 291.703524 
L 239.313041 292.126252 
L 239.965395 292.798859 
L 240.617748 292.388744 
L 241.270102 292.231381 
L 241.705004 292.337517 
L 241.922455 292.540033 
L 242.139906 292.498368 
L 242.79226 291.928573 
L 243.227162 292.058314 
L 243.879515 291.987284 
L 244.531869 291.718895 
L 244.966771 292.006023 
L 245.401673 292.253793 
L 245.619124 292.174822 
L 246.271478 292.554967 
L 246.70638 292.633154 
L 246.923831 292.512829 
L 247.141282 292.213268 
L 248.011087 291.958968 
L 248.445989 291.49959 
L 248.66344 291.480097 
L 249.098343 290.768982 
L 249.315794 290.411656 
L 249.533245 290.367311 
L 249.750696 290.52615 
L 250.620501 290.635669 
L 251.490305 291.3608 
L 252.577561 290.628767 
L 252.795012 290.617571 
L 253.664816 290.236256 
L 254.099719 290.374669 
L 254.31717 290.535564 
L 254.534621 290.538423 
L 255.621877 289.430172 
L 255.839328 289.222523 
L 256.27423 288.463409 
L 256.491681 288.439065 
L 256.709132 288.537539 
L 256.926583 288.369812 
L 258.013839 286.226085 
L 258.448741 284.995591 
L 258.883644 284.680016 
L 259.101095 284.907712 
L 259.753448 286.008295 
L 259.970899 286.07679 
L 260.623253 285.886934 
L 261.058155 286.24215 
L 261.92796 286.399524 
L 263.232666 286.134525 
L 264.319922 285.463152 
L 264.754824 285.721009 
L 264.972275 285.365156 
L 265.407178 284.404575 
L 265.624629 284.392627 
L 265.84208 284.491966 
L 266.494433 283.914146 
L 266.711885 283.980584 
L 267.364238 284.523308 
L 267.581689 284.322001 
L 267.79914 283.954741 
L 268.016591 283.884053 
L 268.451494 284.177596 
L 268.668945 284.020563 
L 269.321298 284.090293 
L 269.7562 283.921606 
L 269.973652 283.988977 
L 270.408554 284.353115 
L 270.843456 284.226636 
L 271.278358 284.597073 
L 271.49581 284.50466 
L 271.713261 284.563344 
L 272.365614 285.204932 
L 272.800516 285.32005 
L 273.017967 285.503408 
L 273.235419 285.519623 
L 273.45287 285.379149 
L 274.105223 285.368571 
L 274.540125 285.718762 
L 275.192479 286.585474 
L 275.627381 286.573176 
L 276.062283 286.307501 
L 276.497186 286.501603 
L 276.714637 286.77795 
L 277.149539 286.956177 
L 278.019344 287.844611 
L 278.889148 288.453902 
L 279.32405 288.444725 
L 279.758953 288.576107 
L 280.628757 289.203031 
L 280.846208 289.20394 
L 281.498562 289.822034 
L 281.933464 290.346935 
L 282.150915 290.25182 
L 282.585817 290.233344 
L 283.02072 290.175985 
L 284.107975 290.301308 
L 284.542878 290.775107 
L 284.97778 290.918611 
L 285.412682 291.269811 
L 286.065036 290.876375 
L 286.499938 290.82646 
L 286.93484 291.259454 
L 287.369742 291.731879 
L 288.239547 291.661863 
L 288.456998 291.361348 
L 288.674449 291.309924 
L 288.8919 291.508615 
L 289.326803 291.408756 
L 289.544254 291.511577 
L 289.761705 291.343612 
L 289.979156 291.328647 
L 290.196607 291.583185 
L 290.848961 291.603187 
L 291.936216 291.762547 
L 293.023472 292.47583 
L 294.328179 293.775408 
L 294.54563 293.845211 
L 294.980532 294.251357 
L 295.197983 294.308069 
L 295.632886 294.759997 
L 295.850337 295.14397 
L 296.067788 295.246897 
L 296.285239 295.488 
L 296.50269 295.298134 
L 298.024848 278.265321 
L 299.547006 266.625817 
L 300.851713 257.803389 
L 301.504066 254.171857 
L 304.330931 241.804148 
L 305.418187 237.754775 
L 306.722894 233.861029 
L 309.767209 226.24347 
L 312.594074 219.779335 
L 313.68133 217.82761 
L 314.551134 216.507754 
L 316.725646 212.571393 
L 318.900157 209.046088 
L 319.769962 208.026908 
L 320.857217 206.398743 
L 323.031729 203.10956 
L 323.684082 202.158586 
L 324.336435 201.317596 
L 324.988789 200.325651 
L 325.423691 199.796787 
L 329.772714 192.053318 
L 330.85997 189.815478 
L 333.686834 183.451129 
L 335.208992 178.718741 
L 336.73115 172.987762 
L 336.948601 171.247734 
L 337.166052 170.771399 
L 337.383504 169.006106 
L 337.600955 168.338623 
L 338.035857 165.021888 
L 338.253308 164.86823 
L 338.470759 160.281234 
L 338.68821 163.031394 
L 338.905662 139.059452 
L 339.123113 98.321313 
L 339.340564 112.088808 
L 339.558015 142.507914 
L 339.992917 167.161728 
L 340.42782 173.176073 
L 340.645271 174.04348 
L 340.862722 173.936528 
L 341.080173 174.244687 
L 341.297624 173.351161 
L 341.515075 173.225381 
L 341.949977 171.557794 
L 342.167429 170.859562 
L 343.037233 167.074218 
L 343.254684 166.365822 
L 343.689587 164.273997 
L 344.34194 161.338424 
L 344.559391 159.912532 
L 344.776842 159.733546 
L 344.994293 157.651077 
L 345.211745 156.668489 
L 345.429196 155.054661 
L 345.646647 152.158737 
L 345.864098 151.420479 
L 346.299 90.486745 
L 347.168805 164.139432 
L 347.603707 173.579765 
L 348.038609 176.631365 
L 348.25606 177.478937 
L 348.473512 177.614354 
L 348.690963 178.03682 
L 348.908414 177.705574 
L 349.125865 177.893445 
L 349.560767 177.669077 
L 349.778218 177.662422 
L 349.995669 177.361403 
L 350.213121 177.323412 
L 351.082925 176.607514 
L 351.300376 176.570145 
L 352.170181 175.933128 
L 354.344692 173.067817 
L 354.997046 172.196956 
L 355.431948 171.772096 
L 356.519204 170.006402 
L 357.389008 168.041901 
L 358.258813 165.853291 
L 358.476264 165.660869 
L 359.563519 162.617468 
L 359.780971 160.967005 
L 359.998422 160.946503 
L 360.215873 159.376109 
L 360.650775 157.945679 
L 360.868226 154.321077 
L 361.085677 154.80551 
L 361.52058 91.69214 
L 361.738031 109.897411 
L 362.172933 154.108311 
L 362.390384 165.822891 
L 362.825286 175.158342 
L 363.260189 178.021403 
L 363.47764 178.796949 
L 363.695091 178.821477 
L 363.912542 179.359544 
L 364.129993 179.111819 
L 364.347444 179.352676 
L 365.217249 178.530817 
L 365.4347 178.465507 
L 366.304505 177.591433 
L 366.956858 177.078272 
L 369.131369 174.668743 
L 369.566272 174.231717 
L 371.523332 171.559406 
L 373.04549 169.020846 
L 374.350197 166.157079 
L 374.567648 165.910386 
L 375.00255 165.218868 
L 375.654903 164.431641 
L 375.872355 163.927019 
L 376.089806 163.791409 
L 376.524708 162.640303 
L 376.742159 162.299755 
L 376.95961 161.316559 
L 377.177061 161.214297 
L 377.394513 160.076793 
L 377.611964 160.223703 
L 378.046866 158.128399 
L 378.264317 157.703314 
L 378.481768 155.009787 
L 378.699219 154.722495 
L 379.134122 91.10425 
L 379.351573 107.634787 
L 379.786475 153.73757 
L 380.003926 165.562133 
L 380.438828 174.896195 
L 380.873731 177.902071 
L 381.091182 178.802628 
L 381.308633 178.939366 
L 381.526084 179.566106 
L 381.743535 179.519584 
L 381.960986 179.880396 
L 382.61334 180.163803 
L 382.830791 179.866804 
L 383.048242 179.763783 
L 383.483144 179.367621 
L 385.440205 178.430355 
L 386.092558 177.901279 
L 386.962363 177.794208 
L 387.614716 177.583703 
L 388.919423 177.083141 
L 390.441581 176.196442 
L 392.18119 174.070387 
L 393.268445 173.183715 
L 393.920799 172.281645 
L 394.573152 171.528939 
L 395.225506 170.769844 
L 395.877859 170.157752 
L 396.965115 168.733017 
L 397.400017 168.073402 
L 398.269822 167.188977 
L 398.487273 166.83255 
L 398.487273 166.83255 
" style="fill:none;stroke:#000000;stroke-linecap:square;stroke-width:1.5;"/>
   </g>
   <g id="line2d_16">
    <path clip-path="url(#p0f15313fc2)" d="M 73.832727 187.190442 
L 74.26763 187.140919 
L 75.572336 186.680913 
L 76.877043 186.910978 
L 77.094494 186.754718 
L 77.311945 186.882428 
L 77.529397 186.728737 
L 77.746848 186.834222 
L 78.18175 186.548445 
L 78.399201 186.881795 
L 78.616652 186.345747 
L 78.834103 187.126493 
L 79.051555 186.209122 
L 80.791164 147.809537 
L 81.008615 136.03117 
L 81.226066 91.676511 
L 81.443517 84.218191 
L 81.878419 131.910844 
L 82.09587 142.465005 
L 82.313322 146.574914 
L 82.530773 147.882059 
L 82.748224 148.463406 
L 82.965675 146.491502 
L 83.183126 145.561266 
L 84.487833 127.868898 
L 84.705284 119.206258 
L 85.140186 72.432078 
L 86.009991 136.15705 
L 86.444893 142.81735 
L 86.662344 143.096548 
L 86.879795 142.598577 
L 87.314698 139.150867 
L 87.967051 131.790775 
L 88.401953 125.787683 
L 88.619404 121.105627 
L 88.836856 110.963079 
L 89.271758 70.234143 
L 89.489209 80.007636 
L 89.924111 116.804822 
L 90.359014 133.738539 
L 90.576465 137.143691 
L 90.793916 138.410173 
L 91.011367 138.523421 
L 91.228818 137.699344 
L 91.66372 134.383153 
L 92.533525 125.466218 
L 92.968427 118.340964 
L 93.185878 112.003816 
L 93.838232 70.829671 
L 94.055683 80.63892 
L 94.708036 123.591624 
L 95.142939 133.867578 
L 95.36039 135.63733 
L 95.577841 136.15078 
L 95.795292 135.8722 
L 96.230194 133.747314 
L 96.882548 128.857243 
L 97.534901 122.267225 
L 97.969803 115.671166 
L 98.187254 109.291223 
L 98.839608 71.31011 
L 99.057059 76.590861 
L 99.709412 118.276128 
L 100.144315 131.044759 
L 100.361766 133.961038 
L 100.579217 135.296089 
L 100.796668 135.58804 
L 101.014119 135.336858 
L 101.449021 133.592248 
L 101.883924 130.916476 
L 102.753728 123.742468 
L 103.623533 114.143045 
L 103.840984 109.41166 
L 104.058435 101.768765 
L 104.710789 70.923896 
L 104.92824 78.57291 
L 105.580593 119.421441 
L 106.015495 130.989625 
L 106.450398 134.875737 
L 106.667849 135.154218 
L 106.8853 134.967588 
L 107.102751 134.331938 
L 107.972556 129.64902 
L 108.84236 123.632552 
L 109.277262 120.145269 
L 109.929616 112.340085 
L 110.147067 108.027205 
L 110.364518 100.921174 
L 111.016871 71.124274 
L 111.234323 75.643808 
L 112.104127 122.372775 
L 112.539029 132.258471 
L 112.756481 134.556061 
L 112.973932 135.650354 
L 113.191383 135.971364 
L 113.408834 135.711715 
L 113.626285 135.066518 
L 114.278638 131.473814 
L 114.930992 127.096998 
L 116.018248 117.186504 
L 116.235699 114.46354 
L 116.45315 110.313117 
L 116.670601 104.005367 
L 117.322954 69.708711 
L 117.540406 75.384668 
L 118.41021 126.126048 
L 118.845112 135.926411 
L 119.280015 139.091098 
L 119.497466 139.405869 
L 119.714917 139.057415 
L 120.149819 137.246165 
L 121.019624 132.11036 
L 122.541782 121.492526 
L 122.759233 119.112737 
L 122.976684 115.495427 
L 123.411586 100.577061 
L 123.846488 73.785966 
L 124.06394 70.196645 
L 124.281391 79.421495 
L 124.933744 120.926073 
L 125.368646 133.212281 
L 125.803549 137.456361 
L 126.021 137.862932 
L 126.238451 137.626705 
L 126.673353 135.837738 
L 128.195511 127.015517 
L 129.282767 119.509241 
L 129.717669 114.690977 
L 129.93512 111.47379 
L 130.152571 105.96316 
L 130.587474 84.663196 
L 130.804925 73.486658 
L 131.022376 72.112844 
L 131.239827 81.140045 
L 131.89218 118.447257 
L 132.327083 130.560895 
L 132.761985 135.380367 
L 132.979436 136.395516 
L 133.196887 136.841224 
L 133.414338 136.724002 
L 133.849241 135.708456 
L 134.284143 134.075465 
L 135.806301 125.201588 
L 136.458654 120.843198 
L 137.111008 115.344843 
L 137.54591 108.91514 
L 137.980812 95.812589 
L 138.415715 76.493424 
L 138.633166 74.134363 
L 138.850617 79.117679 
L 139.937872 125.67067 
L 140.372775 131.944709 
L 140.807677 134.182845 
L 141.025128 134.28922 
L 141.242579 134.023564 
L 141.46003 133.559421 
L 141.894933 131.66442 
L 142.764737 126.634893 
L 144.721797 114.817992 
L 145.1567 110.353369 
L 145.591602 101.678339 
L 146.461407 74.134718 
L 146.678858 77.720082 
L 147.766113 122.234291 
L 148.201016 128.876541 
L 148.635918 131.181438 
L 148.853369 131.572245 
L 149.07082 131.559243 
L 149.288271 131.290985 
L 149.723174 130.006149 
L 150.375527 127.247117 
L 152.767489 113.611892 
L 153.854745 103.474067 
L 154.507099 95.038758 
L 154.942001 92.456276 
L 155.159452 92.251141 
L 155.376903 92.961009 
L 155.811805 97.531267 
L 157.116512 116.021063 
L 157.551414 119.031604 
L 157.986317 120.534991 
L 158.203768 120.976863 
L 158.421219 121.007825 
L 158.856121 120.448957 
L 159.291024 119.402812 
L 160.378279 116.888079 
L 162.335339 110.397177 
L 163.640046 104.357519 
L 163.857497 104.119362 
L 164.074949 104.141884 
L 164.2924 103.979889 
L 164.509851 104.065482 
L 166.032009 108.177178 
L 167.336716 110.210305 
L 167.771618 110.666052 
L 168.20652 111.104399 
L 168.641422 110.98345 
L 168.858874 110.834366 
L 170.16358 109.030239 
L 170.598483 109.05926 
L 171.033385 109.163379 
L 171.903189 108.050486 
L 172.338092 107.856505 
L 172.772994 107.687912 
L 172.990445 107.688778 
L 173.207896 107.545957 
L 173.425347 107.677146 
L 173.86025 108.833292 
L 174.295152 110.077704 
L 174.512603 110.456732 
L 174.730054 110.589603 
L 175.382408 110.380922 
L 175.599859 110.412871 
L 176.469663 110.9289 
L 176.687114 110.862428 
L 176.904566 110.663911 
L 177.122017 110.755036 
L 177.556919 111.299661 
L 178.861626 112.434279 
L 179.079077 112.517714 
L 179.948881 112.16032 
L 180.166333 111.821864 
L 180.601235 110.854531 
L 181.905942 108.691238 
L 182.123393 108.36811 
L 182.340844 108.440871 
L 183.645551 107.918054 
L 184.080453 108.266013 
L 184.950258 109.436295 
L 185.38516 109.482049 
L 185.820062 109.482287 
L 186.472416 110.623292 
L 186.907318 111.49687 
L 187.34222 111.86283 
L 187.559671 111.854154 
L 187.994573 111.451647 
L 188.212025 111.174674 
L 188.864378 110.929609 
L 189.081829 110.527296 
L 189.516731 109.504464 
L 189.951634 109.473949 
L 190.386536 108.953937 
L 191.038889 107.239397 
L 191.691243 106.181667 
L 191.908694 106.194938 
L 192.126145 106.464934 
L 192.99595 108.414843 
L 193.430852 109.686413 
L 193.865754 110.474549 
L 194.518108 112.105427 
L 194.735559 112.161914 
L 195.605363 111.822158 
L 195.822814 111.60641 
L 196.91007 109.693315 
L 197.562423 109.251765 
L 197.779875 109.219809 
L 198.432228 109.85984 
L 198.86713 110.526482 
L 199.084581 110.589656 
L 199.302033 110.536556 
L 199.519484 110.36797 
L 200.389288 108.910987 
L 201.476544 107.073038 
L 201.693995 106.824093 
L 202.346348 105.769838 
L 202.5638 105.715334 
L 203.433604 104.90106 
L 203.651055 104.621186 
L 203.868506 104.750887 
L 204.303409 106.219767 
L 204.738311 108.361751 
L 205.173213 110.668188 
L 206.043018 113.481058 
L 206.912822 115.432319 
L 207.347725 115.611621 
L 207.565176 115.528068 
L 207.782627 115.211871 
L 208.652431 112.840505 
L 209.304785 110.553344 
L 209.957138 108.207248 
L 210.39204 106.816346 
L 210.826943 104.925117 
L 212.13165 102.127235 
L 212.566552 102.178898 
L 212.784003 102.367301 
L 213.218905 103.504897 
L 213.653807 104.775506 
L 215.393417 111.733247 
L 216.480672 114.665032 
L 216.915574 114.824188 
L 217.350477 115.022736 
L 217.785379 114.544579 
L 218.00283 114.158616 
L 218.655184 112.563535 
L 219.307537 110.768652 
L 220.612244 107.003941 
L 221.264597 105.819945 
L 221.699499 104.319191 
L 222.134402 103.887653 
L 222.351853 103.91605 
L 222.786755 104.123434 
L 223.004206 104.548536 
L 224.308913 110.140229 
L 224.961267 111.857522 
L 225.61362 112.305921 
L 225.831071 112.551048 
L 226.265973 113.332463 
L 226.483424 113.469409 
L 226.700876 113.206487 
L 226.918327 112.763613 
L 227.135778 112.619196 
L 227.353229 112.707501 
L 227.788131 112.989847 
L 228.005582 112.905932 
L 228.223034 112.657865 
L 228.657936 111.912556 
L 229.092838 111.359279 
L 229.52774 110.617101 
L 230.180094 110.507611 
L 230.832447 110.268853 
L 231.049898 110.016671 
L 231.267349 109.994759 
L 231.484801 110.101206 
L 231.702252 110.065452 
L 232.137154 110.251454 
L 232.789507 108.806816 
L 233.006959 108.757179 
L 233.441861 109.064267 
L 233.876763 108.561713 
L 234.311665 107.898831 
L 234.964019 107.763771 
L 235.616372 106.827925 
L 236.268726 107.265505 
L 236.703628 107.855113 
L 237.13853 109.113551 
L 238.008335 110.365534 
L 238.443237 110.930912 
L 239.09559 111.098725 
L 239.313041 110.963385 
L 239.965395 110.0595 
L 240.182846 109.527123 
L 240.400297 109.333995 
L 240.835199 109.3495 
L 241.052651 109.459649 
L 241.487553 109.404935 
L 241.705004 109.237454 
L 242.139906 109.158025 
L 243.662064 106.034797 
L 244.314418 104.861334 
L 244.966771 103.144566 
L 245.184222 103.079396 
L 245.619124 102.553544 
L 245.836576 102.757711 
L 246.271478 103.881523 
L 246.923831 105.973619 
L 247.576185 107.324731 
L 248.011087 107.43254 
L 248.445989 108.201894 
L 248.880891 109.147794 
L 249.098343 109.303448 
L 249.533245 109.240815 
L 249.968147 109.048601 
L 250.403049 108.917314 
L 250.837952 108.383636 
L 251.272854 108.283322 
L 252.142658 107.658491 
L 253.012463 106.4938 
L 253.229914 106.397114 
L 253.664816 105.548036 
L 253.882268 104.948752 
L 254.099719 104.760576 
L 254.31717 104.949909 
L 254.534621 104.969711 
L 254.752072 105.20196 
L 255.186974 106.344571 
L 255.621877 106.649287 
L 256.926583 109.23822 
L 257.144035 109.420811 
L 257.361486 109.420338 
L 257.796388 108.918861 
L 258.23129 108.937843 
L 258.448741 108.621125 
L 258.883644 107.715455 
L 259.318546 107.445048 
L 259.535997 107.277385 
L 260.623253 107.810692 
L 260.840704 107.748418 
L 261.493057 106.7117 
L 262.145411 105.410203 
L 262.580313 104.692282 
L 263.015215 104.80034 
L 263.450118 104.889577 
L 264.537373 105.955063 
L 264.972275 106.62615 
L 265.84208 106.692695 
L 266.276982 107.085584 
L 266.494433 107.128947 
L 266.929336 107.723666 
L 267.146787 107.980965 
L 268.234043 108.349632 
L 268.451494 108.541378 
L 268.886396 108.395811 
L 269.321298 108.642482 
L 269.538749 108.511871 
L 270.626005 109.521355 
L 271.060907 110.43929 
L 271.713261 111.108508 
L 272.800516 112.896896 
L 273.670321 113.648347 
L 273.887772 113.704289 
L 274.105223 113.571592 
L 274.540125 112.782305 
L 274.975028 111.990938 
L 275.627381 110.831205 
L 276.497186 108.302047 
L 277.801892 105.765893 
L 278.019344 105.881345 
L 278.454246 106.771441 
L 278.889148 107.690557 
L 279.32405 108.520994 
L 279.758953 109.594992 
L 280.193855 109.971715 
L 280.628757 109.967544 
L 281.716013 109.834521 
L 282.150915 109.355241 
L 282.368366 109.392802 
L 283.02072 108.960456 
L 283.673073 107.233733 
L 284.107975 106.82908 
L 284.542878 106.48049 
L 285.412682 105.528518 
L 286.282487 105.45168 
L 286.717389 106.045798 
L 286.93484 106.102789 
L 288.239547 107.288231 
L 288.674449 107.256026 
L 289.326803 107.586425 
L 290.196607 108.778432 
L 290.631509 109.813892 
L 291.066412 109.936898 
L 291.501314 109.591762 
L 291.718765 109.719171 
L 291.936216 109.606212 
L 292.153667 109.36044 
L 292.58857 109.654531 
L 293.023472 109.243846 
L 293.675825 108.831134 
L 294.763081 107.08816 
L 295.197983 106.818817 
L 295.415434 106.84755 
L 295.632886 107.265329 
L 296.067788 107.596219 
L 296.285239 107.272211 
L 296.50269 107.573938 
L 298.024848 141.891393 
L 298.894653 155.014032 
L 299.764457 164.415712 
L 300.634262 171.582341 
L 302.15642 181.04443 
L 303.243675 185.969975 
L 304.330931 189.944388 
L 306.07054 194.781318 
L 307.157796 197.340626 
L 308.462503 199.504443 
L 309.767209 200.930804 
L 310.854465 201.497949 
L 312.594074 202.812543 
L 313.68133 203.241681 
L 314.116232 203.465669 
L 314.551134 203.708295 
L 315.203488 203.788359 
L 317.160548 203.813578 
L 317.59545 203.5759 
L 318.030353 203.325355 
L 318.465255 203.268043 
L 321.944473 204.567106 
L 323.466631 204.743436 
L 323.901533 204.860684 
L 324.553887 205.110058 
L 325.641142 205.728185 
L 326.076045 205.738823 
L 329.555263 205.730933 
L 331.077421 205.918091 
L 334.991541 205.781798 
L 338.253308 204.929863 
L 338.68821 204.713231 
L 339.558015 204.306266 
L 340.862722 203.161389 
L 341.949977 202.952442 
L 342.602331 202.857328 
L 343.037233 202.755503 
L 343.907038 202.479811 
L 344.994293 202.337341 
L 345.429196 202.331918 
L 346.081549 202.083098 
L 347.168805 201.716875 
L 348.25606 201.265676 
L 348.690963 201.062485 
L 349.560767 201.135074 
L 351.517827 200.847243 
L 352.170181 200.927583 
L 353.257437 200.832741 
L 354.562143 200.578901 
L 355.431948 200.17142 
L 356.084301 199.863096 
L 356.519204 199.61003 
L 356.954106 199.466794 
L 357.606459 199.310217 
L 359.128617 198.971596 
L 359.563519 198.82214 
L 359.998422 198.829796 
L 360.433324 198.741324 
L 361.955482 198.869929 
L 362.825286 198.800189 
L 363.042738 198.661322 
L 363.47764 198.689489 
L 363.912542 198.583382 
L 364.347444 198.610539 
L 365.4347 198.493638 
L 366.304505 198.630371 
L 368.913918 198.336761 
L 369.783723 197.983199 
L 370.218625 197.757811 
L 371.08843 197.65468 
L 371.523332 197.684209 
L 371.958234 197.538374 
L 372.393136 197.338861 
L 374.785099 196.7373 
L 375.220001 196.745408 
L 376.307257 196.740842 
L 377.177061 196.536692 
L 377.829415 196.173239 
L 380.65628 196.055189 
L 381.743535 195.41937 
L 382.178438 195.200162 
L 384.135498 194.789978 
L 385.005302 194.787717 
L 387.179814 194.574536 
L 387.397265 194.647091 
L 388.701972 194.470165 
L 389.136874 194.429314 
L 390.006678 194.355689 
L 391.311385 194.647464 
L 391.746288 194.828927 
L 392.18119 194.736684 
L 393.050994 194.847862 
L 393.703348 194.686511 
L 394.13825 194.661685 
L 394.790603 194.396247 
L 395.442957 194.194654 
L 396.312761 193.853132 
L 396.747664 193.750696 
L 397.182566 193.4582 
L 398.269822 193.112624 
L 398.487273 193.010877 
L 398.487273 193.010877 
" style="fill:none;stroke:#000000;stroke-linecap:square;stroke-width:1.5;"/>
   </g>
   <g id="line2d_17">
    <path clip-path="url(#p0f15313fc2)" d="M 73.832727 179.007945 
L 74.702532 179.009683 
L 75.354885 179.115609 
L 75.789787 179.083834 
L 76.22469 179.196106 
L 78.18175 179.458002 
L 78.834103 179.452714 
L 79.051555 179.598485 
L 80.573712 186.564083 
L 81.660968 190.649365 
L 82.748224 193.942165 
L 86.444893 203.560382 
L 88.401953 207.896398 
L 90.141562 211.652579 
L 90.793916 213.152185 
L 91.011367 213.429839 
L 92.533525 216.424907 
L 94.490585 218.857165 
L 94.925487 219.348643 
L 95.36039 219.899282 
L 96.665097 221.314058 
L 99.709412 224.815139 
L 100.144315 225.330139 
L 101.449021 226.512061 
L 102.318826 227.657158 
L 106.450398 231.846996 
L 106.8853 231.993795 
L 107.537653 232.513036 
L 108.190007 232.88129 
L 110.147067 234.388368 
L 110.581969 234.798584 
L 111.016871 235.193142 
L 113.191383 236.615574 
L 114.713541 237.007203 
L 115.365894 236.949659 
L 116.018248 237.053425 
L 116.45315 236.824123 
L 117.105503 236.802528 
L 117.975308 237.133667 
L 118.845112 237.236707 
L 119.714917 237.273041 
L 119.932368 237.096925 
L 120.36727 237.187207 
L 120.802173 237.376735 
L 121.019624 237.47046 
L 121.454526 237.44753 
L 122.106879 237.536466 
L 123.411586 237.705871 
L 123.846488 237.61744 
L 125.586098 237.669182 
L 126.021 237.808669 
L 126.455902 237.739525 
L 127.325707 237.407654 
L 128.412962 237.462723 
L 131.022376 236.69665 
L 131.457278 236.643233 
L 132.109632 236.359231 
L 132.761985 236.352561 
L 133.849241 235.671804 
L 134.066692 235.667324 
L 134.284143 235.5327 
L 134.501594 235.578958 
L 134.936496 235.864267 
L 135.371399 235.855202 
L 136.458654 235.667724 
L 136.893557 235.603885 
L 138.415715 235.543311 
L 138.850617 235.499041 
L 139.285519 235.533379 
L 139.937872 235.442027 
L 140.590226 235.412466 
L 141.025128 235.604374 
L 141.677482 235.677327 
L 142.764737 235.999867 
L 143.19964 235.911206 
L 143.634542 236.027706 
L 144.069444 236.21937 
L 144.504346 236.179961 
L 145.591602 236.792735 
L 147.548662 237.829164 
L 147.983565 237.732777 
L 148.418467 237.857336 
L 149.723174 238.554288 
L 150.158076 238.704453 
L 150.810429 238.717553 
L 152.550038 238.249734 
L 153.419843 238.312693 
L 153.854745 238.455911 
L 154.72455 238.511674 
L 155.376903 238.754335 
L 156.464159 239.141892 
L 157.116512 239.303554 
L 157.551414 239.563123 
L 163.422595 240.655215 
L 163.857497 240.817117 
L 164.727302 240.763251 
L 165.162204 240.690567 
L 165.814558 240.554928 
L 167.554167 240.919537 
L 168.423971 241.303193 
L 168.858874 241.465114 
L 169.076325 241.417686 
L 171.250836 242.300157 
L 171.903189 242.47135 
L 173.207896 242.678487 
L 174.295152 242.503808 
L 175.164956 242.788641 
L 176.469663 242.878701 
L 177.122017 242.935189 
L 177.556919 242.683243 
L 177.991821 242.368941 
L 178.426723 242.3829 
L 178.861626 242.434991 
L 179.513979 242.439889 
L 179.948881 242.388988 
L 180.383784 242.435527 
L 180.818686 242.518436 
L 181.253588 242.410566 
L 182.558295 242.604664 
L 184.080453 242.661626 
L 185.820062 242.848743 
L 187.559671 242.641152 
L 187.994573 242.323181 
L 188.429476 242.294638 
L 190.603987 242.475045 
L 191.473792 242.327038 
L 193.213401 241.952039 
L 193.865754 242.164091 
L 194.735559 242.280229 
L 195.605363 242.537427 
L 196.040265 242.638986 
L 196.475168 242.694258 
L 197.127521 242.624416 
L 197.779875 242.702982 
L 199.084581 242.828722 
L 199.302033 242.939438 
L 199.519484 242.836494 
L 199.954386 242.433755 
L 200.606739 242.07463 
L 201.259093 242.209397 
L 201.476544 242.315023 
L 202.128897 242.330019 
L 204.085957 242.641118 
L 206.260469 242.392177 
L 206.47792 242.549366 
L 207.565176 242.595077 
L 208.869882 241.992266 
L 209.304785 241.821469 
L 210.39204 241.611325 
L 211.261845 241.39294 
L 211.696747 241.174072 
L 212.13165 240.989948 
L 212.349101 241.008139 
L 213.871259 240.363892 
L 214.08871 240.327336 
L 215.393417 240.694971 
L 215.828319 240.831196 
L 216.263221 240.893432 
L 217.567928 240.557296 
L 218.00283 240.374801 
L 218.437732 240.278423 
L 218.872635 240.045424 
L 219.524988 240.013865 
L 219.95989 239.84079 
L 220.612244 239.957333 
L 221.264597 239.672669 
L 222.351853 239.073223 
L 223.221657 238.492861 
L 223.874011 238.173381 
L 224.526364 237.408569 
L 225.831071 236.642422 
L 226.048522 236.704198 
L 226.483424 236.606774 
L 227.135778 236.55951 
L 227.788131 236.256982 
L 229.310289 236.438874 
L 229.745191 236.513381 
L 231.049898 236.907321 
L 231.484801 236.974027 
L 231.919703 237.136318 
L 232.354605 237.216858 
L 232.789507 237.310247 
L 233.22441 237.106688 
L 234.529116 237.03799 
L 234.964019 237.137978 
L 236.268726 237.148863 
L 236.921079 236.755196 
L 238.008335 236.728422 
L 238.225786 236.60545 
L 238.878139 236.544403 
L 239.313041 236.500678 
L 240.617748 237.025007 
L 241.052651 237.051809 
L 242.357357 237.379298 
L 243.227162 237.214508 
L 243.879515 237.447983 
L 244.966771 237.813121 
L 245.401673 237.91045 
L 247.141282 237.419938 
L 248.011087 237.025129 
L 248.66344 237.036575 
L 249.098343 237.172576 
L 249.533245 237.348755 
L 249.750696 237.402188 
L 250.185598 237.765377 
L 251.707756 238.553754 
L 251.925207 238.750199 
L 252.36011 238.68873 
L 252.795012 238.641858 
L 253.229914 238.728117 
L 253.664816 238.661063 
L 254.752072 238.659725 
L 255.621877 238.923428 
L 256.056779 238.864038 
L 256.491681 238.681139 
L 256.926583 238.719558 
L 257.796388 238.288625 
L 258.448741 237.9486 
L 258.883644 237.856032 
L 259.535997 237.82572 
L 259.970899 237.753147 
L 260.623253 237.435885 
L 261.92796 237.076037 
L 262.362862 237.156741 
L 262.580313 237.076931 
L 263.667569 237.408263 
L 263.88502 237.360705 
L 264.102471 237.183128 
L 264.972275 237.156403 
L 266.494433 237.08072 
L 267.364238 237.037617 
L 268.234043 236.888628 
L 268.668945 236.796311 
L 269.103847 236.826109 
L 270.191103 237.066117 
L 271.060907 236.923113 
L 271.49581 236.650397 
L 272.583065 236.662976 
L 273.017967 236.706326 
L 274.975028 236.109814 
L 275.627381 236.526921 
L 276.279735 236.478975 
L 276.714637 236.213705 
L 277.149539 235.995725 
L 277.584441 235.65408 
L 278.019344 235.425206 
L 278.454246 235.204692 
L 278.889148 235.008542 
L 279.541502 234.645434 
L 281.06366 234.435939 
L 281.498562 234.471319 
L 282.150915 234.58515 
L 282.585817 234.728153 
L 283.455622 234.656477 
L 283.673073 234.635896 
L 285.195231 235.210077 
L 285.847584 235.458186 
L 286.499938 235.728209 
L 287.369742 235.894774 
L 288.8919 235.643776 
L 289.326803 235.736241 
L 289.761705 236.018575 
L 290.631509 236.036054 
L 290.848961 235.925676 
L 291.283863 235.514012 
L 291.936216 234.976354 
L 292.371119 234.59815 
L 293.240923 234.04699 
L 293.458374 234.018044 
L 293.893277 233.638111 
L 294.980532 233.261146 
L 295.632886 232.599946 
L 296.067788 231.891077 
L 296.50269 231.377088 
L 296.937592 228.873608 
L 297.589946 225.407329 
L 299.329555 217.351128 
L 300.199359 214.084884 
L 300.851713 211.904617 
L 303.026224 206.101047 
L 305.635638 200.462681 
L 306.722894 198.132558 
L 307.157796 197.257809 
L 307.810149 196.135295 
L 308.245051 195.387629 
L 308.679954 194.756786 
L 310.202112 192.346655 
L 313.898781 185.684036 
L 315.63839 182.916217 
L 316.725646 180.980179 
L 317.59545 179.759082 
L 318.030353 179.109409 
L 318.247804 178.897824 
L 320.857217 173.102245 
L 322.161924 169.270466 
L 323.684082 164.396372 
L 323.901533 163.888982 
L 324.118984 162.94385 
L 324.336435 162.842999 
L 324.553887 161.341566 
L 324.771338 161.339917 
L 325.20624 159.151813 
L 325.423691 159.060286 
L 325.641142 156.7118 
L 325.858593 157.734334 
L 326.076045 153.792391 
L 326.293496 155.328453 
L 326.945849 146.302283 
L 327.1633 82.45316 
L 327.380751 64.738571 
L 327.815654 161.536323 
L 328.250556 181.824285 
L 328.468007 181.585195 
L 328.685458 184.200981 
L 328.902909 182.239101 
L 329.12036 182.706192 
L 329.555263 180.647512 
L 329.772714 180.519052 
L 329.990165 179.198232 
L 330.207616 179.366214 
L 330.425067 178.501618 
L 330.642518 178.441256 
L 330.85997 178.125136 
L 331.077421 177.5327 
L 331.294872 177.344502 
L 331.512323 176.6476 
L 331.729774 176.370889 
L 332.164676 175.4351 
L 332.382128 175.194909 
L 333.686834 172.890204 
L 334.556639 171.618792 
L 337.383504 166.980878 
L 337.600955 166.910687 
L 338.035857 166.32128 
L 339.340564 164.301634 
L 339.992917 163.101691 
L 340.210368 162.99861 
L 341.515075 160.440984 
L 341.732526 160.189235 
L 341.949977 159.245609 
L 342.167429 158.901905 
L 342.602331 157.920984 
L 342.819782 157.808806 
L 343.037233 156.634871 
L 343.254684 156.663977 
L 343.472135 155.207334 
L 343.689587 155.179559 
L 344.124489 153.395897 
L 344.34194 153.723043 
L 344.559391 150.122336 
L 344.776842 151.949651 
L 344.994293 146.588736 
L 345.211745 149.020376 
L 345.429196 132.209928 
L 345.646647 67.089033 
L 345.864098 72.486481 
L 346.081549 134.860568 
L 346.516451 176.77188 
L 346.733902 181.621984 
L 347.168805 185.092281 
L 347.386256 183.78634 
L 347.603707 184.60447 
L 347.821158 183.508884 
L 348.038609 183.701385 
L 348.25606 183.336532 
L 348.473512 182.713634 
L 348.690963 182.951943 
L 348.908414 182.373998 
L 349.125865 182.607707 
L 349.560767 182.155657 
L 349.778218 182.112767 
L 350.430572 181.283612 
L 350.648023 181.186318 
L 351.735279 180.033331 
L 352.170181 179.806791 
L 353.257437 178.976821 
L 354.344692 177.849979 
L 355.214497 176.965374 
L 355.649399 176.434873 
L 356.519204 175.941704 
L 357.389008 175.240976 
L 359.128617 174.291046 
L 359.563519 174.208955 
L 360.433324 173.82997 
L 360.868226 173.605116 
L 361.738031 172.710017 
L 362.390384 172.111453 
L 364.347444 170.932518 
L 364.999798 170.298288 
L 365.4347 169.953027 
L 366.304505 169.049351 
L 366.521956 168.867281 
L 367.609211 167.262814 
L 368.261565 166.664215 
L 369.131369 165.710562 
L 370.218625 165.095738 
L 370.870979 164.374498 
L 372.828039 162.881102 
L 374.350197 160.384932 
L 374.785099 159.752141 
L 375.00255 159.040049 
L 375.220001 158.796217 
L 375.654903 157.571771 
L 375.872355 157.347574 
L 376.089806 156.761698 
L 376.307257 156.880153 
L 376.524708 155.897818 
L 376.742159 155.916338 
L 376.95961 155.453855 
L 377.177061 154.519787 
L 377.394513 154.769614 
L 377.611964 152.918504 
L 377.829415 153.920023 
L 378.046866 151.477836 
L 378.264317 151.578423 
L 378.481768 150.090474 
L 378.916671 144.183927 
L 379.351573 56.485967 
L 379.786475 155.214252 
L 380.221377 182.033765 
L 380.438828 183.086331 
L 380.65628 186.220196 
L 380.873731 185.630363 
L 381.091182 186.000092 
L 381.308633 185.751647 
L 381.526084 185.104754 
L 381.743535 185.490533 
L 381.960986 184.607342 
L 382.178438 184.753785 
L 382.61334 184.045045 
L 382.830791 183.711762 
L 383.048242 183.146602 
L 383.265693 183.057207 
L 383.483144 182.549761 
L 383.918047 182.116462 
L 384.5704 181.419253 
L 384.787851 181.300422 
L 386.962363 178.817734 
L 387.397265 178.455374 
L 388.049618 178.118857 
L 388.267069 178.124037 
L 390.22413 177.059642 
L 390.659032 177.009519 
L 391.093934 176.926197 
L 392.18119 176.131186 
L 393.050994 175.34015 
L 393.485897 175.225925 
L 394.13825 174.737641 
L 394.573152 174.645024 
L 395.008055 174.379195 
L 395.225506 174.171846 
L 395.660408 174.087004 
L 396.312761 173.597914 
L 396.747664 173.145451 
L 397.834919 173.254201 
L 398.269822 173.114038 
L 398.487273 172.961776 
L 398.487273 172.961776 
" style="fill:none;stroke:#000000;stroke-linecap:square;stroke-width:1.5;"/>
   </g>
   <g id="line2d_18">
    <path clip-path="url(#p0f15313fc2)" d="M 73.832727 171.67166 
L 74.919983 171.602206 
L 75.354885 171.761523 
L 75.572336 171.698841 
L 76.659592 172.171164 
L 77.094494 172.076719 
L 77.746848 171.953434 
L 77.964299 171.967486 
L 78.399201 171.84254 
L 79.051555 171.629908 
L 80.791164 164.168766 
L 81.008615 163.607401 
L 81.226066 162.452974 
L 81.443517 161.934771 
L 82.313322 158.049374 
L 82.530773 158.130331 
L 82.748224 156.351265 
L 82.965675 155.941443 
L 83.183126 155.166248 
L 83.400577 153.668684 
L 83.618028 153.93806 
L 83.83548 149.783034 
L 84.052931 151.170771 
L 84.270382 145.415761 
L 84.487833 147.266738 
L 84.705284 133.655869 
L 84.922735 67.272733 
L 85.140186 68.056912 
L 85.357637 131.571014 
L 85.79254 174.236846 
L 86.009991 179.441951 
L 86.227442 180.425009 
L 86.444893 182.360049 
L 86.662344 180.361239 
L 86.879795 180.603948 
L 87.097247 178.884016 
L 87.314698 178.342243 
L 89.70666 169.330671 
L 91.228818 164.275496 
L 94.273134 153.84548 
L 94.490585 153.792537 
L 95.142939 151.559369 
L 95.36039 149.89142 
L 95.577841 149.808826 
L 95.795292 147.900373 
L 96.012743 148.090772 
L 96.230194 145.923015 
L 96.447645 144.919336 
L 96.665097 144.883527 
L 96.882548 140.065051 
L 97.099999 142.421073 
L 97.534901 53.568 
L 98.187254 163.113741 
L 98.404706 175.451022 
L 98.839608 180.592814 
L 99.491961 179.689606 
L 99.709412 178.291895 
L 99.926864 178.255112 
L 100.144315 176.99649 
L 100.361766 176.502403 
L 102.318826 169.038043 
L 102.753728 167.526777 
L 104.710789 160.739213 
L 106.8853 155.309181 
L 107.102751 154.967779 
L 107.320202 154.1328 
L 107.537653 153.866067 
L 107.755104 152.681519 
L 107.972556 152.299653 
L 108.190007 151.600036 
L 108.407458 150.392033 
L 108.624909 150.337527 
L 108.84236 148.48866 
L 109.059811 149.06879 
L 109.277262 146.981209 
L 109.494714 146.761968 
L 109.712165 145.443157 
L 110.147067 137.962641 
L 110.581969 55.560674 
L 111.016871 145.895525 
L 111.451774 175.130399 
L 111.886676 180.016486 
L 112.104127 179.54192 
L 112.321578 179.510972 
L 112.539029 178.764346 
L 112.756481 177.620052 
L 112.973932 177.404081 
L 113.191383 176.016986 
L 113.408834 175.611745 
L 113.843736 173.795006 
L 114.061187 173.218295 
L 114.930992 170.020456 
L 116.018248 166.710834 
L 116.45315 165.514804 
L 117.105503 163.867649 
L 118.41021 160.751881 
L 119.062563 159.224143 
L 121.237075 153.302913 
L 121.454526 152.230869 
L 121.671977 151.934042 
L 121.889428 150.453582 
L 122.106879 150.047934 
L 122.541782 147.351158 
L 122.759233 147.019669 
L 122.976684 144.218038 
L 123.194135 144.861495 
L 123.411586 140.694219 
L 123.629037 140.801907 
L 123.846488 117.511006 
L 124.06394 62.282111 
L 124.281391 71.352535 
L 124.716293 153.116805 
L 124.933744 168.343833 
L 125.151195 174.273105 
L 125.586098 178.524118 
L 125.803549 177.543368 
L 126.021 177.651086 
L 126.238451 176.18964 
L 126.455902 175.74101 
L 127.543158 171.675957 
L 128.412962 168.510361 
L 129.282767 166.208658 
L 130.152571 164.028195 
L 130.587474 162.905878 
L 131.674729 160.49229 
L 132.761985 158.283401 
L 133.849241 156.156525 
L 134.284143 155.495496 
L 135.58885 153.409809 
L 136.458654 151.754837 
L 138.198263 147.302125 
L 138.415715 146.420804 
L 138.633166 146.168537 
L 138.850617 144.344488 
L 139.068068 144.274277 
L 139.50297 141.008823 
L 139.720421 139.352268 
L 139.937872 136.249756 
L 140.155324 130.571757 
L 140.590226 56.837846 
L 141.242579 160.085431 
L 141.46003 170.85165 
L 141.894933 176.463601 
L 142.329835 176.558674 
L 142.547286 176.179094 
L 142.764737 175.42692 
L 142.982188 175.26148 
L 143.19964 174.178204 
L 143.417091 173.748866 
L 145.809053 166.585434 
L 146.678858 164.474117 
L 147.331211 162.688146 
L 148.635918 160.162375 
L 149.288271 159.462824 
L 151.02788 155.850679 
L 151.680234 154.712218 
L 152.550038 152.862791 
L 152.984941 152.158378 
L 153.637294 150.458765 
L 153.854745 149.833124 
L 154.072196 149.707629 
L 154.289647 149.043962 
L 154.507099 148.742659 
L 155.159452 146.823162 
L 155.376903 145.216582 
L 155.594354 144.804583 
L 155.811805 143.265749 
L 156.029257 142.798305 
L 156.68161 138.768319 
L 156.899061 134.614285 
L 157.116512 133.210942 
L 157.551414 58.39484 
L 157.768866 83.557441 
L 158.203768 153.49409 
L 158.421219 167.213313 
L 158.856121 174.613523 
L 159.073572 175.507056 
L 159.291024 175.235279 
L 159.508475 175.292883 
L 159.725926 174.410432 
L 159.943377 174.306578 
L 160.160828 173.499333 
L 160.59573 172.850228 
L 161.465535 170.723578 
L 162.770242 167.969401 
L 163.640046 166.098932 
L 165.162204 162.328425 
L 165.597106 161.639701 
L 166.24946 160.693575 
L 168.641422 156.518596 
L 170.598483 153.765276 
L 170.815934 153.684287 
L 171.250836 153.034645 
L 172.120641 151.474221 
L 172.772994 150.463129 
L 172.990445 150.200293 
L 173.86025 148.497688 
L 174.295152 147.705915 
L 175.382408 145.256784 
L 175.599859 144.934034 
L 176.034761 144.025384 
L 177.122017 141.615371 
L 177.339468 140.480146 
L 177.556919 140.371055 
L 178.209272 138.505161 
L 178.426723 136.65341 
L 178.644175 136.585321 
L 179.079077 129.327051 
L 179.296528 104.546488 
L 179.513979 62.961507 
L 179.73143 74.256666 
L 180.166333 146.980886 
L 180.383784 162.935615 
L 180.818686 173.098504 
L 181.036137 175.322893 
L 181.253588 175.539373 
L 181.471039 175.920481 
L 181.688491 175.147195 
L 181.905942 174.979921 
L 182.775746 173.227417 
L 182.993197 172.961923 
L 183.4281 171.935332 
L 185.167709 168.662798 
L 186.037513 166.672918 
L 186.689867 165.463533 
L 187.34222 164.36423 
L 188.864378 162.160324 
L 189.29928 161.364121 
L 189.951634 160.149785 
L 190.821438 157.860002 
L 191.691243 155.969849 
L 192.126145 155.280827 
L 192.343596 155.070101 
L 193.213401 153.155128 
L 194.300656 151.114666 
L 194.95301 150.296358 
L 195.822814 149.406276 
L 196.257717 148.688182 
L 196.475168 148.480072 
L 196.91007 147.77743 
L 197.127521 147.501368 
L 197.779875 146.34004 
L 198.214777 145.206193 
L 199.736935 141.015413 
L 199.954386 139.786635 
L 200.171837 139.662631 
L 201.041642 134.721656 
L 201.259093 133.052441 
L 201.693995 125.248513 
L 202.128897 59.814633 
L 202.346348 82.001677 
L 202.781251 150.072755 
L 202.998702 163.559246 
L 203.433604 171.659848 
L 203.651055 172.826636 
L 204.085957 173.03711 
L 204.303409 172.312223 
L 204.52086 172.275751 
L 204.955762 171.113111 
L 205.825567 169.170995 
L 206.260469 168.173342 
L 206.912822 166.563419 
L 208.000078 164.57219 
L 211.479296 158.0262 
L 212.784003 156.046706 
L 213.218905 155.818045 
L 213.871259 155.097816 
L 214.306161 154.615988 
L 216.263221 153.027926 
L 216.698123 152.856744 
L 217.350477 152.192369 
L 218.655184 150.442732 
L 219.090086 149.642423 
L 219.742439 148.978311 
L 220.177342 148.313974 
L 222.134402 144.420078 
L 222.786755 143.445586 
L 223.221657 142.996869 
L 223.439109 142.661453 
L 224.526364 138.968999 
L 225.396169 134.259153 
L 225.831071 128.930885 
L 226.048522 114.303896 
L 226.265973 72.980762 
L 226.483424 64.523596 
L 226.918327 138.643953 
L 227.353229 166.282647 
L 227.788131 172.753432 
L 228.223034 173.380681 
L 228.657936 172.629209 
L 228.875387 172.380388 
L 229.092838 171.667627 
L 229.310289 171.425148 
L 231.267349 167.022425 
L 234.094214 161.799351 
L 234.529116 161.165974 
L 234.964019 160.498081 
L 236.268726 158.396112 
L 236.921079 157.477623 
L 237.13853 157.351124 
L 237.573432 156.703678 
L 238.225786 155.860986 
L 239.09559 154.74996 
L 240.400297 153.441392 
L 241.270102 152.009744 
L 243.009711 149.427579 
L 243.227162 148.912123 
L 243.662064 148.582993 
L 245.619124 145.282082 
L 246.271478 144.384873 
L 246.488929 144.345399 
L 247.358733 143.322374 
L 247.576185 142.864688 
L 248.011087 141.705958 
L 248.66344 140.558042 
L 248.880891 139.729372 
L 249.098343 139.485063 
L 249.533245 138.01363 
L 250.185598 135.118317 
L 250.837952 128.518129 
L 251.055403 124.886628 
L 251.272854 113.053091 
L 251.490305 76.828784 
L 251.707756 64.502036 
L 252.36011 151.527751 
L 252.577561 162.06525 
L 253.012463 169.211986 
L 253.447365 170.404195 
L 253.882268 169.991279 
L 254.099719 169.670157 
L 254.31717 169.108341 
L 254.534621 168.945438 
L 255.404426 167.450996 
L 256.056779 166.690632 
L 258.448741 163.255081 
L 259.318546 162.802054 
L 259.970899 162.181078 
L 261.493057 160.747364 
L 261.92796 160.459202 
L 262.580313 160.101783 
L 263.88502 159.006413 
L 264.754824 158.015376 
L 265.624629 157.467566 
L 266.059531 157.119248 
L 267.364238 155.858043 
L 268.016591 155.311 
L 268.451494 154.754308 
L 269.973652 152.246167 
L 270.408554 151.87294 
L 270.843456 151.429486 
L 271.278358 150.982443 
L 272.148163 149.676646 
L 272.583065 149.026471 
L 273.017967 148.780701 
L 273.235419 148.426672 
L 273.670321 147.579189 
L 273.887772 147.42123 
L 274.322674 146.805143 
L 274.540125 146.714295 
L 275.627381 145.265523 
L 278.236795 138.720543 
L 278.454246 137.102071 
L 278.671697 136.700721 
L 279.32405 132.863378 
L 279.541502 128.502354 
L 279.758953 120.907263 
L 280.193855 60.382053 
L 281.06366 161.390695 
L 281.498562 169.994646 
L 281.716013 171.157945 
L 281.933464 171.548604 
L 282.150915 171.701231 
L 282.368366 171.249418 
L 282.585817 171.235155 
L 282.803269 170.584782 
L 283.673073 169.431825 
L 284.107975 168.611489 
L 284.97778 166.914182 
L 286.717389 164.202758 
L 287.369742 162.989996 
L 287.804645 162.3353 
L 288.8919 161.463431 
L 289.761705 160.696674 
L 291.066412 158.656983 
L 291.501314 158.312595 
L 291.936216 157.839477 
L 292.153667 157.70714 
L 292.58857 157.655795 
L 292.806021 157.471123 
L 293.023472 157.457464 
L 296.50269 153.871894 
L 297.155044 155.931181 
L 297.589946 157.352826 
L 298.242299 159.165028 
L 298.677201 160.484735 
L 299.547006 162.679865 
L 300.416811 165.26992 
L 301.069164 166.586904 
L 301.504066 167.377601 
L 303.026224 170.491825 
L 303.896029 171.878876 
L 304.330931 172.458444 
L 304.983284 173.304194 
L 305.635638 174.165855 
L 306.07054 174.792662 
L 306.287991 174.929444 
L 306.940345 175.789373 
L 308.462503 177.708855 
L 309.332307 178.08508 
L 310.202112 178.743963 
L 312.376623 180.178247 
L 313.028976 180.496558 
L 313.898781 181.028845 
L 314.116232 181.035084 
L 315.203488 181.711659 
L 316.943097 182.007988 
L 317.59545 181.935308 
L 318.247804 181.799817 
L 322.596826 181.396578 
L 323.901533 181.667643 
L 324.553887 181.612228 
L 325.20624 181.913742 
L 325.641142 182.047532 
L 326.076045 182.238721 
L 326.945849 182.390635 
L 327.380751 182.38268 
L 328.685458 181.679359 
L 329.772714 181.831656 
L 330.207616 181.660445 
L 330.642518 181.633861 
L 331.512323 181.690765 
L 332.164676 181.815714 
L 333.034481 181.761812 
L 333.251932 181.659336 
L 333.686834 181.715923 
L 334.339188 181.596933 
L 337.383504 181.48111 
L 338.68821 181.081223 
L 339.123113 181.116187 
L 340.210368 181.425696 
L 340.645271 181.357604 
L 341.080173 181.321772 
L 341.515075 181.20612 
L 342.602331 181.432256 
L 343.254684 181.565956 
L 343.689587 181.574269 
L 344.124489 181.440201 
L 344.776842 181.420255 
L 345.646647 181.388013 
L 348.038609 181.719525 
L 348.473512 181.778959 
L 348.908414 181.673013 
L 349.343316 181.452278 
L 349.995669 181.408543 
L 350.430572 181.600562 
L 350.648023 181.624849 
L 351.082925 181.503051 
L 351.735279 181.605226 
L 352.822534 181.541551 
L 354.344692 182.118309 
L 354.779594 182.179245 
L 355.214497 182.272469 
L 356.736655 182.968735 
L 356.954106 182.949941 
L 357.606459 183.241589 
L 359.780971 183.044702 
L 361.52058 183.511752 
L 362.172933 183.479601 
L 362.607835 183.556155 
L 363.042738 183.530928 
L 363.47764 183.736949 
L 364.782347 183.808327 
L 365.652151 183.357195 
L 366.304505 183.294257 
L 368.261565 183.240092 
L 369.131369 183.392445 
L 369.566272 183.29659 
L 369.783723 183.332512 
L 370.436076 182.989494 
L 372.175685 182.680714 
L 372.393136 182.540897 
L 374.785099 182.512216 
L 376.307257 182.070687 
L 376.742159 181.675071 
L 377.177061 181.296175 
L 378.699219 180.732889 
L 379.134122 180.596266 
L 379.569024 180.231261 
L 381.091182 179.730328 
L 381.526084 179.638961 
L 382.178438 179.190539 
L 382.830791 178.962617 
L 383.048242 178.952948 
L 383.483144 178.714084 
L 384.787851 178.749334 
L 385.005302 178.769541 
L 385.875107 179.21781 
L 386.310009 179.368917 
L 387.397265 179.454487 
L 388.049618 179.31419 
L 388.48452 179.058369 
L 389.354325 178.874226 
L 389.789227 178.604005 
L 391.093934 178.384783 
L 391.528836 178.433481 
L 393.050994 178.181196 
L 393.485897 178.085731 
L 394.13825 178.127358 
L 395.225506 178.022864 
L 395.660408 177.75459 
L 396.530213 177.616631 
L 398.487273 177.394405 
L 398.487273 177.394405 
" style="fill:none;stroke:#000000;stroke-linecap:square;stroke-width:1.5;"/>
   </g>
   <g id="patch_3">
    <path d="M 57.6 307.584 
L 57.6 41.472 
" style="fill:none;stroke:#000000;stroke-linecap:square;stroke-linejoin:miter;stroke-width:0.8;"/>
   </g>
   <g id="patch_4">
    <path d="M 414.72 307.584 
L 414.72 41.472 
" style="fill:none;stroke:#000000;stroke-linecap:square;stroke-linejoin:miter;stroke-width:0.8;"/>
   </g>
   <g id="patch_5">
    <path d="M 57.6 307.584 
L 414.72 307.584 
" style="fill:none;stroke:#000000;stroke-linecap:square;stroke-linejoin:miter;stroke-width:0.8;"/>
   </g>
   <g id="patch_6">
    <path d="M 57.6 41.472 
L 414.72 41.472 
" style="fill:none;stroke:#000000;stroke-linecap:square;stroke-linejoin:miter;stroke-width:0.8;"/>
   </g>
  </g>
 </g>
 <defs>
  <clipPath id="p0f15313fc2">
   <rect height="266.112" width="357.12" x="57.6" y="41.472"/>
  </clipPath>
 </defs>
</svg>
