<?xml version="1.0" encoding="utf-8" standalone="no"?>
<!DOCTYPE svg PUBLIC "-//W3C//DTD SVG 1.1//EN"
  "http://www.w3.org/Graphics/SVG/1.1/DTD/svg11.dtd">
<svg height="345.6pt" version="1.1" viewBox="0 0 460.8 345.6" width="460.8pt" xmlns="http://www.w3.org/2000/svg" xmlns:xlink="http://www.w3.org/1999/xlink">
 <metadata>
  <rdf:RDF xmlns:cc="http://creativecommons.org/ns#" xmlns:dc="http://purl.org/dc/elements/1.1/" xmlns:rdf="http://www.w3.org/1999/02/22-rdf-syntax-ns#">
   <cc:Work>
    <dc:type rdf:resource="http://purl.org/dc/dcmitype/StillImage"/>
    <dc:date>2024-08-06T14:41:20.532133</dc:date>
    <dc:format>image/svg+xml</dc:format>
    <dc:creator>
     <cc:Agent>
      <dc:title>Matplotlib v3.4.2, https://matplotlib.org/</dc:title>
     </cc:Agent>
    </dc:creator>
   </cc:Work>
  </rdf:RDF>
 </metadata>
 <defs>
  <style type="text/css">*{stroke-linecap:butt;stroke-linejoin:round;}</style>
 </defs>
 <g id="figure_1">
  <g id="patch_1">
   <path d="M 0 345.6 
L 460.8 345.6 
L 460.8 0 
L 0 0 
z
" style="fill:#ffffff;"/>
  </g>
  <g id="axes_1">
   <g id="patch_2">
    <path d="M 57.6 307.584 
L 414.72 307.584 
L 414.72 41.472 
L 57.6 41.472 
z
" style="fill:#ffffff;"/>
   </g>
   <g id="matplotlib.axis_1">
    <g id="xtick_1">
     <g id="line2d_1">
      <defs>
       <path d="M 0 0 
L 0 3.5 
" id="m0a94a63ec1" style="stroke:#000000;stroke-width:0.8;"/>
      </defs>
      <g>
       <use style="stroke:#000000;stroke-width:0.8;" x="95.211629" xlink:href="#m0a94a63ec1" y="307.584"/>
      </g>
     </g>
     <g id="text_1">
      <!-- 0.2 -->
      <g transform="translate(87.260067 322.182437)scale(0.1 -0.1)">
       <defs>
        <path d="M 2034 4250 
Q 1547 4250 1301 3770 
Q 1056 3291 1056 2328 
Q 1056 1369 1301 889 
Q 1547 409 2034 409 
Q 2525 409 2770 889 
Q 3016 1369 3016 2328 
Q 3016 3291 2770 3770 
Q 2525 4250 2034 4250 
z
M 2034 4750 
Q 2819 4750 3233 4129 
Q 3647 3509 3647 2328 
Q 3647 1150 3233 529 
Q 2819 -91 2034 -91 
Q 1250 -91 836 529 
Q 422 1150 422 2328 
Q 422 3509 836 4129 
Q 1250 4750 2034 4750 
z
" id="DejaVuSans-30" transform="scale(0.015625)"/>
        <path d="M 684 794 
L 1344 794 
L 1344 0 
L 684 0 
L 684 794 
z
" id="DejaVuSans-2e" transform="scale(0.015625)"/>
        <path d="M 1228 531 
L 3431 531 
L 3431 0 
L 469 0 
L 469 531 
Q 828 903 1448 1529 
Q 2069 2156 2228 2338 
Q 2531 2678 2651 2914 
Q 2772 3150 2772 3378 
Q 2772 3750 2511 3984 
Q 2250 4219 1831 4219 
Q 1534 4219 1204 4116 
Q 875 4013 500 3803 
L 500 4441 
Q 881 4594 1212 4672 
Q 1544 4750 1819 4750 
Q 2544 4750 2975 4387 
Q 3406 4025 3406 3419 
Q 3406 3131 3298 2873 
Q 3191 2616 2906 2266 
Q 2828 2175 2409 1742 
Q 1991 1309 1228 531 
z
" id="DejaVuSans-32" transform="scale(0.015625)"/>
       </defs>
       <use xlink:href="#DejaVuSans-30"/>
       <use x="63.623047" xlink:href="#DejaVuSans-2e"/>
       <use x="95.410156" xlink:href="#DejaVuSans-32"/>
      </g>
     </g>
    </g>
    <g id="xtick_2">
     <g id="line2d_2">
      <g>
       <use style="stroke:#000000;stroke-width:0.8;" x="139.20545" xlink:href="#m0a94a63ec1" y="307.584"/>
      </g>
     </g>
     <g id="text_2">
      <!-- 0.4 -->
      <g transform="translate(131.253887 322.182437)scale(0.1 -0.1)">
       <defs>
        <path d="M 2419 4116 
L 825 1625 
L 2419 1625 
L 2419 4116 
z
M 2253 4666 
L 3047 4666 
L 3047 1625 
L 3713 1625 
L 3713 1100 
L 3047 1100 
L 3047 0 
L 2419 0 
L 2419 1100 
L 313 1100 
L 313 1709 
L 2253 4666 
z
" id="DejaVuSans-34" transform="scale(0.015625)"/>
       </defs>
       <use xlink:href="#DejaVuSans-30"/>
       <use x="63.623047" xlink:href="#DejaVuSans-2e"/>
       <use x="95.410156" xlink:href="#DejaVuSans-34"/>
      </g>
     </g>
    </g>
    <g id="xtick_3">
     <g id="line2d_3">
      <g>
       <use style="stroke:#000000;stroke-width:0.8;" x="183.19927" xlink:href="#m0a94a63ec1" y="307.584"/>
      </g>
     </g>
     <g id="text_3">
      <!-- 0.6 -->
      <g transform="translate(175.247707 322.182437)scale(0.1 -0.1)">
       <defs>
        <path d="M 2113 2584 
Q 1688 2584 1439 2293 
Q 1191 2003 1191 1497 
Q 1191 994 1439 701 
Q 1688 409 2113 409 
Q 2538 409 2786 701 
Q 3034 994 3034 1497 
Q 3034 2003 2786 2293 
Q 2538 2584 2113 2584 
z
M 3366 4563 
L 3366 3988 
Q 3128 4100 2886 4159 
Q 2644 4219 2406 4219 
Q 1781 4219 1451 3797 
Q 1122 3375 1075 2522 
Q 1259 2794 1537 2939 
Q 1816 3084 2150 3084 
Q 2853 3084 3261 2657 
Q 3669 2231 3669 1497 
Q 3669 778 3244 343 
Q 2819 -91 2113 -91 
Q 1303 -91 875 529 
Q 447 1150 447 2328 
Q 447 3434 972 4092 
Q 1497 4750 2381 4750 
Q 2619 4750 2861 4703 
Q 3103 4656 3366 4563 
z
" id="DejaVuSans-36" transform="scale(0.015625)"/>
       </defs>
       <use xlink:href="#DejaVuSans-30"/>
       <use x="63.623047" xlink:href="#DejaVuSans-2e"/>
       <use x="95.410156" xlink:href="#DejaVuSans-36"/>
      </g>
     </g>
    </g>
    <g id="xtick_4">
     <g id="line2d_4">
      <g>
       <use style="stroke:#000000;stroke-width:0.8;" x="227.19309" xlink:href="#m0a94a63ec1" y="307.584"/>
      </g>
     </g>
     <g id="text_4">
      <!-- 0.8 -->
      <g transform="translate(219.241528 322.182437)scale(0.1 -0.1)">
       <defs>
        <path d="M 2034 2216 
Q 1584 2216 1326 1975 
Q 1069 1734 1069 1313 
Q 1069 891 1326 650 
Q 1584 409 2034 409 
Q 2484 409 2743 651 
Q 3003 894 3003 1313 
Q 3003 1734 2745 1975 
Q 2488 2216 2034 2216 
z
M 1403 2484 
Q 997 2584 770 2862 
Q 544 3141 544 3541 
Q 544 4100 942 4425 
Q 1341 4750 2034 4750 
Q 2731 4750 3128 4425 
Q 3525 4100 3525 3541 
Q 3525 3141 3298 2862 
Q 3072 2584 2669 2484 
Q 3125 2378 3379 2068 
Q 3634 1759 3634 1313 
Q 3634 634 3220 271 
Q 2806 -91 2034 -91 
Q 1263 -91 848 271 
Q 434 634 434 1313 
Q 434 1759 690 2068 
Q 947 2378 1403 2484 
z
M 1172 3481 
Q 1172 3119 1398 2916 
Q 1625 2713 2034 2713 
Q 2441 2713 2670 2916 
Q 2900 3119 2900 3481 
Q 2900 3844 2670 4047 
Q 2441 4250 2034 4250 
Q 1625 4250 1398 4047 
Q 1172 3844 1172 3481 
z
" id="DejaVuSans-38" transform="scale(0.015625)"/>
       </defs>
       <use xlink:href="#DejaVuSans-30"/>
       <use x="63.623047" xlink:href="#DejaVuSans-2e"/>
       <use x="95.410156" xlink:href="#DejaVuSans-38"/>
      </g>
     </g>
    </g>
    <g id="xtick_5">
     <g id="line2d_5">
      <g>
       <use style="stroke:#000000;stroke-width:0.8;" x="271.18691" xlink:href="#m0a94a63ec1" y="307.584"/>
      </g>
     </g>
     <g id="text_5">
      <!-- 1.0 -->
      <g transform="translate(263.235348 322.182437)scale(0.1 -0.1)">
       <defs>
        <path d="M 794 531 
L 1825 531 
L 1825 4091 
L 703 3866 
L 703 4441 
L 1819 4666 
L 2450 4666 
L 2450 531 
L 3481 531 
L 3481 0 
L 794 0 
L 794 531 
z
" id="DejaVuSans-31" transform="scale(0.015625)"/>
       </defs>
       <use xlink:href="#DejaVuSans-31"/>
       <use x="63.623047" xlink:href="#DejaVuSans-2e"/>
       <use x="95.410156" xlink:href="#DejaVuSans-30"/>
      </g>
     </g>
    </g>
    <g id="xtick_6">
     <g id="line2d_6">
      <g>
       <use style="stroke:#000000;stroke-width:0.8;" x="315.18073" xlink:href="#m0a94a63ec1" y="307.584"/>
      </g>
     </g>
     <g id="text_6">
      <!-- 1.2 -->
      <g transform="translate(307.229168 322.182437)scale(0.1 -0.1)">
       <use xlink:href="#DejaVuSans-31"/>
       <use x="63.623047" xlink:href="#DejaVuSans-2e"/>
       <use x="95.410156" xlink:href="#DejaVuSans-32"/>
      </g>
     </g>
    </g>
    <g id="xtick_7">
     <g id="line2d_7">
      <g>
       <use style="stroke:#000000;stroke-width:0.8;" x="359.174551" xlink:href="#m0a94a63ec1" y="307.584"/>
      </g>
     </g>
     <g id="text_7">
      <!-- 1.4 -->
      <g transform="translate(351.222988 322.182437)scale(0.1 -0.1)">
       <use xlink:href="#DejaVuSans-31"/>
       <use x="63.623047" xlink:href="#DejaVuSans-2e"/>
       <use x="95.410156" xlink:href="#DejaVuSans-34"/>
      </g>
     </g>
    </g>
    <g id="xtick_8">
     <g id="line2d_8">
      <g>
       <use style="stroke:#000000;stroke-width:0.8;" x="403.168371" xlink:href="#m0a94a63ec1" y="307.584"/>
      </g>
     </g>
     <g id="text_8">
      <!-- 1.6 -->
      <g transform="translate(395.216808 322.182437)scale(0.1 -0.1)">
       <use xlink:href="#DejaVuSans-31"/>
       <use x="63.623047" xlink:href="#DejaVuSans-2e"/>
       <use x="95.410156" xlink:href="#DejaVuSans-36"/>
      </g>
     </g>
    </g>
   </g>
   <g id="matplotlib.axis_2">
    <g id="ytick_1">
     <g id="line2d_9">
      <defs>
       <path d="M 0 0 
L -3.5 0 
" id="m775b4bc6d0" style="stroke:#000000;stroke-width:0.8;"/>
      </defs>
      <g>
       <use style="stroke:#000000;stroke-width:0.8;" x="57.6" xlink:href="#m775b4bc6d0" y="288.561468"/>
      </g>
     </g>
     <g id="text_9">
      <!-- −100 -->
      <g transform="translate(23.132812 292.360687)scale(0.1 -0.1)">
       <defs>
        <path d="M 678 2272 
L 4684 2272 
L 4684 1741 
L 678 1741 
L 678 2272 
z
" id="DejaVuSans-2212" transform="scale(0.015625)"/>
       </defs>
       <use xlink:href="#DejaVuSans-2212"/>
       <use x="83.789062" xlink:href="#DejaVuSans-31"/>
       <use x="147.412109" xlink:href="#DejaVuSans-30"/>
       <use x="211.035156" xlink:href="#DejaVuSans-30"/>
      </g>
     </g>
    </g>
    <g id="ytick_2">
     <g id="line2d_10">
      <g>
       <use style="stroke:#000000;stroke-width:0.8;" x="57.6" xlink:href="#m775b4bc6d0" y="254.673086"/>
      </g>
     </g>
     <g id="text_10">
      <!-- −80 -->
      <g transform="translate(29.495313 258.472305)scale(0.1 -0.1)">
       <use xlink:href="#DejaVuSans-2212"/>
       <use x="83.789062" xlink:href="#DejaVuSans-38"/>
       <use x="147.412109" xlink:href="#DejaVuSans-30"/>
      </g>
     </g>
    </g>
    <g id="ytick_3">
     <g id="line2d_11">
      <g>
       <use style="stroke:#000000;stroke-width:0.8;" x="57.6" xlink:href="#m775b4bc6d0" y="220.784704"/>
      </g>
     </g>
     <g id="text_11">
      <!-- −60 -->
      <g transform="translate(29.495313 224.583923)scale(0.1 -0.1)">
       <use xlink:href="#DejaVuSans-2212"/>
       <use x="83.789062" xlink:href="#DejaVuSans-36"/>
       <use x="147.412109" xlink:href="#DejaVuSans-30"/>
      </g>
     </g>
    </g>
    <g id="ytick_4">
     <g id="line2d_12">
      <g>
       <use style="stroke:#000000;stroke-width:0.8;" x="57.6" xlink:href="#m775b4bc6d0" y="186.896323"/>
      </g>
     </g>
     <g id="text_12">
      <!-- −40 -->
      <g transform="translate(29.495313 190.695541)scale(0.1 -0.1)">
       <use xlink:href="#DejaVuSans-2212"/>
       <use x="83.789062" xlink:href="#DejaVuSans-34"/>
       <use x="147.412109" xlink:href="#DejaVuSans-30"/>
      </g>
     </g>
    </g>
    <g id="ytick_5">
     <g id="line2d_13">
      <g>
       <use style="stroke:#000000;stroke-width:0.8;" x="57.6" xlink:href="#m775b4bc6d0" y="153.007941"/>
      </g>
     </g>
     <g id="text_13">
      <!-- −20 -->
      <g transform="translate(29.495313 156.80716)scale(0.1 -0.1)">
       <use xlink:href="#DejaVuSans-2212"/>
       <use x="83.789062" xlink:href="#DejaVuSans-32"/>
       <use x="147.412109" xlink:href="#DejaVuSans-30"/>
      </g>
     </g>
    </g>
    <g id="ytick_6">
     <g id="line2d_14">
      <g>
       <use style="stroke:#000000;stroke-width:0.8;" x="57.6" xlink:href="#m775b4bc6d0" y="119.119559"/>
      </g>
     </g>
     <g id="text_14">
      <!-- 0 -->
      <g transform="translate(44.2375 122.918778)scale(0.1 -0.1)">
       <use xlink:href="#DejaVuSans-30"/>
      </g>
     </g>
    </g>
    <g id="ytick_7">
     <g id="line2d_15">
      <g>
       <use style="stroke:#000000;stroke-width:0.8;" x="57.6" xlink:href="#m775b4bc6d0" y="85.231178"/>
      </g>
     </g>
     <g id="text_15">
      <!-- 20 -->
      <g transform="translate(37.875 89.030396)scale(0.1 -0.1)">
       <use xlink:href="#DejaVuSans-32"/>
       <use x="63.623047" xlink:href="#DejaVuSans-30"/>
      </g>
     </g>
    </g>
    <g id="ytick_8">
     <g id="line2d_16">
      <g>
       <use style="stroke:#000000;stroke-width:0.8;" x="57.6" xlink:href="#m775b4bc6d0" y="51.342796"/>
      </g>
     </g>
     <g id="text_16">
      <!-- 40 -->
      <g transform="translate(37.875 55.142015)scale(0.1 -0.1)">
       <use xlink:href="#DejaVuSans-34"/>
       <use x="63.623047" xlink:href="#DejaVuSans-30"/>
      </g>
     </g>
    </g>
   </g>
   <g id="line2d_17">
    <path clip-path="url(#p768a8849e6)" d="M 73.832727 212.359999 
L 74.26763 212.30747 
L 74.702532 212.213973 
L 75.137434 212.197888 
L 76.442141 211.837749 
L 78.616652 211.475939 
L 78.834103 211.302736 
L 79.051555 211.536899 
L 80.573712 233.54264 
L 81.443517 240.805603 
L 82.530773 247.534592 
L 83.400577 251.26272 
L 84.705284 256.363118 
L 85.357637 258.294375 
L 86.009991 260.189182 
L 86.879795 262.873269 
L 87.314698 264.111067 
L 88.401953 266.337417 
L 89.271758 267.848131 
L 90.359014 269.615541 
L 90.793916 270.091377 
L 91.66372 271.271804 
L 92.098623 271.89175 
L 92.533525 272.111517 
L 92.968427 272.650126 
L 93.403329 273.146581 
L 94.490585 274.849842 
L 95.142939 275.52349 
L 95.577841 275.747114 
L 97.534901 278.243225 
L 99.491961 280.297809 
L 99.926864 280.425092 
L 101.014119 281.559704 
L 104.275886 283.675868 
L 104.493337 283.777567 
L 104.710789 283.731741 
L 106.8853 284.457034 
L 107.102751 284.381197 
L 110.581969 286.346666 
L 111.016871 286.808098 
L 111.669225 286.784514 
L 113.191383 287.63764 
L 113.626285 287.489468 
L 114.278638 287.24638 
L 114.713541 287.121301 
L 115.365894 287.483459 
L 116.018248 287.778452 
L 116.235699 287.806818 
L 116.45315 287.629578 
L 116.670601 287.738862 
L 117.322954 288.514671 
L 117.540406 288.633853 
L 117.975308 288.249845 
L 118.41021 288.353273 
L 119.280015 288.72659 
L 119.714917 288.960684 
L 119.932368 288.924739 
L 120.36727 288.713366 
L 120.802173 288.767008 
L 121.454526 289.610409 
L 122.106879 290.066427 
L 122.541782 290.170742 
L 122.976684 290.029854 
L 123.629037 290.333003 
L 124.281391 290.439843 
L 124.933744 290.122264 
L 125.368646 290.226837 
L 126.238451 291.017443 
L 126.673353 291.008058 
L 127.108255 291.357801 
L 127.543158 291.130569 
L 127.97806 291.355276 
L 128.847865 291.243525 
L 129.065316 291.314021 
L 129.282767 291.601589 
L 129.500218 291.660277 
L 129.717669 291.873984 
L 129.93512 292.264004 
L 131.239827 292.970345 
L 131.457278 292.960545 
L 131.89218 292.707638 
L 132.327083 292.730522 
L 133.414338 292.443582 
L 133.849241 292.662822 
L 134.066692 292.694074 
L 134.719045 293.357345 
L 135.153948 293.412554 
L 135.371399 293.354589 
L 136.023752 292.896012 
L 136.458654 292.87361 
L 137.763361 292.917539 
L 138.198263 293.296486 
L 138.633166 293.190517 
L 138.850617 292.966808 
L 139.068068 293.019813 
L 139.285519 293.210455 
L 139.50297 293.185983 
L 140.590226 293.58106 
L 141.025128 293.733401 
L 141.677482 294.27321 
L 142.112384 294.402716 
L 142.547286 294.116235 
L 142.764737 294.196075 
L 143.417091 294.762842 
L 144.286895 295.27033 
L 144.504346 295.432215 
L 144.721797 295.445684 
L 145.374151 295.157428 
L 145.809053 295.181116 
L 146.243955 295.290017 
L 146.678858 295.488 
L 147.766113 295.107297 
L 148.635918 294.928678 
L 148.853369 294.947154 
L 149.07082 294.759521 
L 149.288271 294.784175 
L 149.723174 294.973964 
L 149.940625 294.957669 
L 150.158076 294.747172 
L 150.810429 293.705717 
L 151.245332 293.671882 
L 151.897685 293.450966 
L 152.332587 292.942963 
L 152.767489 292.966041 
L 153.419843 293.058263 
L 154.507099 292.804518 
L 154.942001 292.602037 
L 155.811805 292.795047 
L 156.464159 293.168544 
L 156.68161 293.138766 
L 156.899061 292.95978 
L 157.986317 293.175978 
L 158.203768 293.312655 
L 158.63867 293.300958 
L 158.856121 293.34391 
L 159.073572 293.269576 
L 159.508475 293.454027 
L 159.943377 293.220868 
L 160.160828 293.168045 
L 160.59573 292.719959 
L 161.465535 292.527076 
L 161.682986 292.408238 
L 162.335339 292.502524 
L 162.552791 292.668234 
L 162.987693 292.654686 
L 163.422595 292.695906 
L 164.2924 292.813658 
L 164.727302 293.217605 
L 166.032009 293.424611 
L 166.466911 293.08601 
L 167.119264 293.217282 
L 167.989069 293.953796 
L 168.20652 294.217892 
L 168.423971 294.22035 
L 168.641422 294.110806 
L 169.293776 294.385509 
L 170.16358 294.04559 
L 170.598483 293.770412 
L 171.468287 293.667812 
L 171.903189 293.463041 
L 172.555543 292.769592 
L 172.990445 292.351739 
L 174.077701 291.862434 
L 175.164956 291.275484 
L 175.599859 291.286846 
L 176.034761 291.432697 
L 176.252212 291.360666 
L 176.687114 291.729497 
L 177.122017 292.180281 
L 177.339468 292.130719 
L 177.991821 292.389786 
L 178.209272 292.332324 
L 178.861626 292.46996 
L 179.079077 292.443636 
L 179.513979 291.962362 
L 180.601235 291.328009 
L 181.688491 291.24334 
L 182.123393 291.428862 
L 182.558295 291.484284 
L 182.993197 291.869676 
L 183.210648 291.766182 
L 183.4281 291.484476 
L 183.863002 291.543921 
L 184.080453 291.527971 
L 184.297904 291.784324 
L 184.732806 291.811538 
L 185.38516 291.634533 
L 186.037513 291.079055 
L 186.689867 290.896504 
L 187.124769 291.118771 
L 187.559671 291.14774 
L 188.864378 290.471593 
L 189.081829 290.2219 
L 189.516731 290.1884 
L 189.734183 290.06212 
L 191.908694 290.194746 
L 192.126145 290.276463 
L 192.99595 290.196188 
L 193.648303 290.350927 
L 194.95301 291.041297 
L 196.040265 290.769586 
L 196.475168 290.945481 
L 196.692619 290.875015 
L 197.127521 290.395311 
L 197.344972 290.41194 
L 198.649679 289.270963 
L 199.302033 289.326413 
L 199.519484 289.311103 
L 199.954386 289.539368 
L 200.82419 289.025024 
L 201.041642 289.082356 
L 201.259093 289.00284 
L 202.5638 289.911353 
L 202.781251 289.913028 
L 203.216153 289.682908 
L 204.085957 290.13674 
L 204.52086 290.084673 
L 205.173213 289.774638 
L 205.390664 289.712701 
L 205.608115 289.522793 
L 205.825567 289.489185 
L 207.782627 290.780989 
L 208.217529 291.253091 
L 208.652431 291.557255 
L 209.087334 292.274569 
L 209.957138 292.390433 
L 210.39204 292.551967 
L 210.609492 292.317808 
L 211.479296 292.160551 
L 211.914198 291.943758 
L 212.349101 292.101581 
L 212.784003 292.015875 
L 213.001454 292.135515 
L 213.436356 292.179374 
L 213.653807 292.324198 
L 214.08871 292.219481 
L 214.741063 292.061061 
L 215.175965 291.639408 
L 215.393417 291.732785 
L 216.263221 291.549466 
L 216.915574 292.068126 
L 217.350477 292.329503 
L 218.00283 292.386011 
L 218.437732 292.580907 
L 220.177342 292.656218 
L 220.612244 292.772931 
L 220.829695 292.653341 
L 221.047146 292.689417 
L 221.482048 293.125285 
L 222.569304 293.361482 
L 222.786755 293.314314 
L 223.221657 292.862848 
L 224.526364 293.30459 
L 224.743815 293.287596 
L 224.961267 293.124599 
L 225.61362 292.029756 
L 227.353229 289.744906 
L 228.005582 288.361898 
L 228.875387 287.401928 
L 229.092838 287.327508 
L 229.52774 287.386081 
L 229.745191 287.438193 
L 229.962643 287.306439 
L 230.397545 286.775176 
L 230.832447 286.496936 
L 231.267349 286.083567 
L 231.702252 286.001179 
L 232.137154 285.653237 
L 232.572056 285.31986 
L 233.006959 284.970641 
L 233.441861 284.494933 
L 233.876763 284.38111 
L 234.311665 284.188875 
L 234.746568 284.144269 
L 234.964019 284.168928 
L 235.398921 283.865469 
L 235.616372 283.936817 
L 236.051274 284.346543 
L 236.703628 284.289665 
L 236.921079 284.140741 
L 237.790884 284.198512 
L 238.225786 284.440385 
L 238.660688 284.944089 
L 238.878139 285.027124 
L 239.747944 286.304379 
L 239.965395 286.359827 
L 240.182846 286.272217 
L 240.617748 286.412293 
L 241.052651 286.471194 
L 241.270102 286.597557 
L 241.705004 287.013823 
L 242.357357 287.086381 
L 242.79226 286.960753 
L 243.227162 287.184728 
L 243.879515 287.156543 
L 244.314418 287.241355 
L 244.74932 287.619093 
L 245.184222 287.935636 
L 245.836576 287.433519 
L 246.054027 287.468814 
L 246.70638 288.165203 
L 247.141282 288.277567 
L 247.576185 288.027806 
L 247.793636 288.071024 
L 248.66344 287.463769 
L 249.098343 287.345643 
L 249.533245 287.477736 
L 249.968147 287.256853 
L 250.403049 287.385723 
L 250.837952 287.333062 
L 251.055403 287.430548 
L 252.795012 287.163714 
L 253.447365 287.779594 
L 254.099719 287.819527 
L 254.534621 287.724745 
L 254.969523 288.101641 
L 255.839328 287.519111 
L 256.27423 287.305086 
L 256.709132 287.236351 
L 256.926583 287.124421 
L 257.361486 287.343124 
L 258.23129 288.101693 
L 258.666193 287.991323 
L 258.883644 288.065792 
L 259.101095 287.74112 
L 259.535997 286.805864 
L 259.753448 286.796654 
L 259.970899 286.614219 
L 260.18835 286.276058 
L 260.623253 286.330058 
L 260.840704 286.252308 
L 261.493057 286.564769 
L 261.710508 286.960571 
L 262.145411 286.74195 
L 262.580313 286.127557 
L 263.015215 286.361537 
L 263.450118 286.23751 
L 263.88502 285.717828 
L 264.102471 285.621435 
L 265.84208 286.790452 
L 266.276982 286.576457 
L 266.929336 286.044007 
L 267.146787 286.108068 
L 267.581689 286.37984 
L 267.79914 286.240851 
L 268.668945 286.576768 
L 268.886396 286.504411 
L 269.538749 286.683436 
L 269.973652 286.316024 
L 270.191103 286.385276 
L 270.626005 285.987863 
L 270.843456 285.943789 
L 271.278358 286.058742 
L 271.49581 285.934985 
L 271.930712 286.198298 
L 272.148163 286.186041 
L 272.365614 286.037281 
L 272.583065 286.054601 
L 273.017967 286.567308 
L 273.670321 286.960927 
L 274.757577 287.868093 
L 274.975028 288.00837 
L 275.192479 287.9403 
L 275.40993 288.035622 
L 275.627381 287.9795 
L 276.062283 287.44565 
L 276.497186 287.659344 
L 276.932088 287.450941 
L 277.149539 287.401644 
L 277.584441 287.121771 
L 278.019344 287.188942 
L 278.236795 287.115848 
L 279.541502 288.472238 
L 279.976404 288.578424 
L 280.411306 288.742737 
L 281.06366 288.362096 
L 281.933464 287.786192 
L 282.150915 287.947409 
L 282.585817 287.725279 
L 283.238171 287.779129 
L 283.673073 288.127286 
L 284.107975 287.904839 
L 284.325427 287.91938 
L 284.760329 287.742448 
L 286.93484 287.203305 
L 287.369742 287.432196 
L 287.587194 287.418132 
L 288.022096 287.180627 
L 288.456998 287.740251 
L 288.674449 287.764582 
L 289.544254 288.46219 
L 289.761705 288.449351 
L 289.979156 288.663872 
L 290.196607 288.70738 
L 290.414058 288.500054 
L 290.631509 288.499912 
L 291.283863 288.923521 
L 291.718765 288.817015 
L 292.371119 289.19241 
L 292.58857 289.038964 
L 293.023472 289.122313 
L 293.675825 288.724518 
L 294.110728 288.669357 
L 294.54563 288.86573 
L 295.197983 288.694392 
L 295.850337 288.858239 
L 296.067788 288.640854 
L 296.285239 288.762843 
L 296.50269 288.400441 
L 298.024848 264.988771 
L 298.894653 257.452933 
L 299.764457 251.738049 
L 300.634262 247.447213 
L 301.938969 242.323287 
L 304.765833 232.857613 
L 307.157796 227.120674 
L 313.028976 214.868746 
L 313.68133 213.137084 
L 313.898781 212.938707 
L 314.116232 212.0103 
L 314.333683 211.578202 
L 314.551134 210.567103 
L 314.986037 191.344075 
L 315.203488 191.514823 
L 315.63839 194.866967 
L 316.290743 199.014259 
L 316.725646 200.292308 
L 317.160548 200.588929 
L 317.377999 200.660447 
L 317.59545 200.332511 
L 317.812901 200.317115 
L 318.900157 197.273344 
L 319.552511 178.78196 
L 319.769962 179.934666 
L 321.29212 192.537419 
L 321.944473 195.286867 
L 322.596826 196.835772 
L 323.031729 197.277083 
L 323.466631 197.443793 
L 323.684082 197.421454 
L 324.553887 196.704761 
L 324.771338 196.49708 
L 324.988789 196.092989 
L 325.20624 195.952528 
L 326.293496 193.293223 
L 326.945849 173.664425 
L 327.1633 175.037042 
L 328.685458 191.021771 
L 329.555263 196.503664 
L 330.207616 199.108116 
L 330.85997 200.690942 
L 331.729774 202.188089 
L 332.382128 202.763459 
L 333.034481 202.983844 
L 335.208992 202.914729 
L 336.296248 202.603553 
L 336.73115 202.499349 
L 338.253308 201.693503 
L 340.862722 199.532781 
L 341.515075 198.689405 
L 341.732526 198.097448 
L 341.949977 198.034379 
L 342.167429 197.248582 
L 342.38488 197.101004 
L 342.602331 195.433821 
L 343.037233 177.000165 
L 343.254684 177.09428 
L 343.472135 179.039064 
L 344.559391 192.581384 
L 344.994293 196.754551 
L 345.646647 201.148165 
L 346.081549 203.36221 
L 346.951354 206.120784 
L 347.821158 207.860921 
L 348.690963 209.216967 
L 349.560767 209.976642 
L 350.213121 210.366633 
L 350.865474 210.64398 
L 351.082925 210.662451 
L 351.517827 210.535364 
L 351.95273 210.622749 
L 352.822534 210.468579 
L 353.90979 210.3778 
L 354.344692 210.4343 
L 354.779594 210.315379 
L 355.214497 210.19456 
L 356.301752 210.054452 
L 356.736655 209.974544 
L 356.954106 210.00074 
L 357.82391 209.744892 
L 360.650775 209.06495 
L 361.085677 208.882626 
L 361.738031 208.709784 
L 362.390384 208.453433 
L 363.042738 208.297787 
L 364.564896 207.683401 
L 364.999798 207.630441 
L 366.087054 207.234495 
L 367.826663 206.760692 
L 370.218625 205.567833 
L 374.350197 202.577274 
L 375.872355 201.161729 
L 376.524708 200.552126 
L 376.742159 200.164633 
L 377.177061 199.804599 
L 378.046866 198.671679 
L 378.264317 197.678729 
L 378.481768 197.845311 
L 378.699219 195.344146 
L 379.134122 176.689244 
L 379.351573 177.837167 
L 379.569024 179.895701 
L 380.438828 191.519632 
L 381.091182 197.718354 
L 381.743535 201.980804 
L 382.395889 205.006027 
L 383.265693 207.732547 
L 383.918047 209.025198 
L 385.005302 210.403351 
L 387.179814 211.308971 
L 390.876483 211.057621 
L 394.13825 210.18245 
L 394.573152 210.153001 
L 395.660408 209.586543 
L 398.487273 207.868209 
L 398.487273 207.868209 
" style="fill:none;stroke:#000000;stroke-linecap:square;stroke-width:1.5;"/>
   </g>
   <g id="line2d_18">
    <path clip-path="url(#p768a8849e6)" d="M 73.832727 199.580316 
L 74.485081 199.357237 
L 75.137434 199.10365 
L 76.659592 198.309786 
L 77.311945 198.349344 
L 77.746848 198.041497 
L 77.964299 198.139938 
L 78.18175 197.959906 
L 78.399201 198.130314 
L 78.616652 197.838729 
L 78.834103 198.069543 
L 79.051555 197.611955 
L 79.703908 172.983592 
L 80.573712 145.838207 
L 82.09587 107.974865 
L 82.530773 90.124142 
L 82.965675 84.785122 
L 83.183126 84.168167 
L 83.400577 84.542334 
L 84.052931 84.815888 
L 84.270382 85.277768 
L 84.487833 85.27507 
L 84.705284 84.574287 
L 84.922735 84.963235 
L 85.357637 87.134715 
L 85.575089 87.493158 
L 86.009991 88.511343 
L 86.444893 88.595353 
L 86.662344 88.660678 
L 86.879795 89.138263 
L 87.097247 89.016506 
L 87.314698 89.131389 
L 87.7496 88.714515 
L 87.967051 86.947442 
L 88.401953 71.332581 
L 88.619404 69.123103 
L 88.836856 68.506889 
L 89.271758 71.079375 
L 89.70666 74.23753 
L 90.141562 75.973086 
L 90.793916 79.590407 
L 91.011367 79.875401 
L 91.228818 80.84491 
L 91.446269 81.084796 
L 92.316074 80.272075 
L 92.533525 80.474713 
L 92.968427 80.007346 
L 93.185878 80.166979 
L 93.838232 78.805774 
L 94.055683 79.19098 
L 94.273134 79.960049 
L 94.490585 79.397054 
L 94.708036 79.879688 
L 94.925487 79.876628 
L 95.142939 80.052388 
L 95.36039 79.611165 
L 95.795292 65.258298 
L 96.012743 63.790129 
L 96.230194 64.77767 
L 96.665097 70.517421 
L 97.099999 76.406416 
L 97.752352 82.899903 
L 98.187254 87.109553 
L 98.622157 91.885432 
L 99.057059 92.549297 
L 99.27451 92.52721 
L 99.709412 91.245235 
L 100.361766 89.950172 
L 100.579217 90.44182 
L 101.014119 90.439999 
L 101.23157 90.033262 
L 101.449021 89.170381 
L 101.883924 88.840031 
L 102.536277 86.820174 
L 102.971179 85.526936 
L 103.623533 82.573707 
L 103.840984 78.973187 
L 104.275886 64.67435 
L 104.493337 63.605716 
L 104.710789 64.828294 
L 105.798044 75.576826 
L 106.232946 78.026031 
L 106.450398 78.924313 
L 107.320202 85.327204 
L 107.755104 86.372513 
L 108.407458 90.017983 
L 108.84236 91.969055 
L 109.059811 92.634708 
L 109.277262 92.850921 
L 109.712165 93.597871 
L 110.581969 91.397381 
L 110.79942 91.437146 
L 111.016871 91.146056 
L 111.451774 90.1651 
L 111.886676 87.913851 
L 112.104127 87.509872 
L 112.539029 86.031336 
L 112.973932 82.241115 
L 113.626285 63.940493 
L 113.843736 63.173735 
L 114.061187 63.072394 
L 114.49609 66.472595 
L 115.800796 80.387551 
L 116.235699 83.970647 
L 116.670601 87.691449 
L 116.888052 88.70912 
L 117.105503 88.74193 
L 117.322954 88.570862 
L 117.540406 88.887765 
L 117.975308 88.889629 
L 118.41021 88.915077 
L 118.627661 88.953456 
L 118.845112 88.873517 
L 119.062563 88.916025 
L 119.280015 88.065301 
L 119.497466 86.708864 
L 119.714917 86.236207 
L 119.932368 86.094734 
L 120.36727 85.277668 
L 120.584721 85.09829 
L 121.019624 85.702233 
L 121.237075 85.561202 
L 121.454526 84.966662 
L 121.671977 83.231804 
L 121.889428 82.73136 
L 122.106879 80.794404 
L 122.541782 65.658704 
L 122.759233 62.922299 
L 122.976684 62.150508 
L 123.194135 63.26889 
L 124.716293 79.13078 
L 125.803549 85.672688 
L 126.238451 85.090897 
L 126.455902 85.604254 
L 126.673353 85.652295 
L 127.325707 85.21873 
L 127.543158 85.224086 
L 127.760609 85.76773 
L 128.195511 87.313301 
L 128.412962 87.652149 
L 129.065316 86.262098 
L 129.500218 85.072086 
L 129.717669 84.985353 
L 129.93512 85.246944 
L 130.152571 85.208103 
L 130.370023 85.301168 
L 130.587474 85.658731 
L 131.022376 84.966141 
L 131.239827 84.192793 
L 131.457278 84.010224 
L 131.674729 80.784794 
L 132.109632 66.620748 
L 132.327083 65.251644 
L 132.544534 65.70079 
L 134.284143 80.361231 
L 135.153948 82.755544 
L 135.371399 82.929991 
L 135.806301 84.94733 
L 136.241203 85.186594 
L 136.458654 84.920607 
L 136.893557 82.842502 
L 137.111008 82.569714 
L 137.980812 83.408777 
L 138.198263 84.09368 
L 138.415715 84.139565 
L 138.850617 85.163836 
L 139.068068 84.910059 
L 139.285519 84.89541 
L 139.720421 84.348489 
L 140.155324 84.09256 
L 140.372775 83.418024 
L 141.025128 65.873497 
L 141.242579 65.767848 
L 141.46003 66.638592 
L 142.112384 70.979456 
L 142.329835 71.879707 
L 142.982188 76.621221 
L 143.634542 80.105509 
L 143.851993 80.368986 
L 144.069444 80.878215 
L 144.504346 82.717842 
L 144.939249 84.649763 
L 145.1567 85.021413 
L 145.374151 84.810588 
L 145.809053 83.898031 
L 146.026504 83.008831 
L 146.243955 82.80112 
L 146.461407 82.973448 
L 146.896309 81.004541 
L 147.331211 80.981512 
L 147.548662 80.831478 
L 147.766113 81.129871 
L 148.201016 81.08878 
L 148.635918 81.257399 
L 148.853369 81.035367 
L 149.07082 80.522433 
L 149.288271 80.422033 
L 149.505722 80.509674 
L 149.723174 80.754999 
L 149.940625 80.571859 
L 150.158076 80.156625 
L 150.375527 76.72007 
L 150.810429 62.858283 
L 151.02788 61.144201 
L 151.245332 60.78696 
L 151.462783 61.877265 
L 153.202392 79.154193 
L 153.637294 82.654237 
L 154.289647 85.942582 
L 155.159452 88.390359 
L 155.376903 88.402288 
L 155.594354 87.980483 
L 155.811805 87.803186 
L 156.029257 88.096355 
L 156.464159 89.112376 
L 156.68161 89.123929 
L 156.899061 88.802018 
L 157.333963 87.898263 
L 157.768866 87.827817 
L 158.421219 86.290871 
L 158.63867 85.353893 
L 158.856121 84.975534 
L 159.073572 84.989564 
L 159.291024 84.532612 
L 159.725926 82.70014 
L 159.943377 82.713277 
L 160.378279 80.686021 
L 160.59573 77.827915 
L 161.030633 63.723934 
L 161.248084 61.010498 
L 161.465535 60.14061 
L 161.682986 60.949905 
L 161.900437 62.348079 
L 162.987693 76.182486 
L 163.640046 84.360082 
L 164.944753 92.386911 
L 165.162204 92.696582 
L 165.379655 92.744576 
L 166.684362 94.893558 
L 166.901813 94.393753 
L 167.336716 92.570317 
L 167.554167 92.001785 
L 167.771618 92.360135 
L 167.989069 92.401718 
L 168.423971 90.399819 
L 169.076325 88.667007 
L 169.293776 88.552649 
L 169.511227 88.183494 
L 169.946129 86.925671 
L 170.16358 86.545998 
L 170.815934 84.814982 
L 171.033385 84.770421 
L 171.468287 83.642797 
L 171.685738 82.588129 
L 172.338092 63.825198 
L 172.555543 62.56772 
L 172.990445 65.762047 
L 174.947505 83.839562 
L 175.164956 84.095707 
L 175.382408 83.898317 
L 176.469663 85.776334 
L 176.687114 85.774559 
L 177.122017 85.619988 
L 177.339468 85.199614 
L 177.556919 85.053685 
L 177.991821 86.046412 
L 178.426723 86.329987 
L 178.861626 86.970827 
L 179.079077 86.576125 
L 179.296528 85.840362 
L 179.948881 84.859172 
L 180.383784 84.815129 
L 180.601235 84.457076 
L 181.253588 82.440835 
L 181.688491 80.960794 
L 182.123393 80.724237 
L 183.4281 77.105471 
L 183.645551 76.891149 
L 184.297904 73.823094 
L 184.950258 57.028469 
L 185.167709 55.670303 
L 185.38516 55.735087 
L 185.602611 57.014972 
L 187.124769 72.385201 
L 187.34222 73.738043 
L 188.212025 81.342568 
L 188.864378 83.602489 
L 189.081829 84.346922 
L 189.516731 85.087975 
L 189.951634 85.906062 
L 190.386536 86.914906 
L 190.821438 86.928005 
L 191.038889 87.133391 
L 191.25634 87.171188 
L 191.473792 87.022373 
L 191.908694 84.740872 
L 192.126145 84.977341 
L 192.343596 85.690981 
L 192.561047 85.908242 
L 192.778498 85.9395 
L 192.99595 86.172575 
L 193.648303 85.272173 
L 195.605363 78.780687 
L 195.822814 73.902929 
L 196.257717 61.812876 
L 196.475168 60.572464 
L 196.692619 60.579452 
L 196.91007 61.073492 
L 197.127521 62.523178 
L 198.86713 79.91694 
L 199.736935 85.720427 
L 199.954386 85.658759 
L 200.171837 85.172093 
L 200.389288 85.118321 
L 200.606739 85.437464 
L 200.82419 85.528563 
L 201.041642 85.17603 
L 201.693995 84.888201 
L 202.128897 84.303013 
L 202.346348 84.466104 
L 202.5638 84.37442 
L 202.781251 83.927283 
L 202.998702 83.954556 
L 203.216153 83.738862 
L 205.390664 80.06855 
L 205.608115 79.934775 
L 206.043018 79.057136 
L 206.260469 79.079215 
L 206.47792 78.935498 
L 206.695371 78.47162 
L 207.782627 73.98979 
L 208.43498 57.247758 
L 208.652431 56.639488 
L 208.869882 57.977218 
L 209.739687 68.627563 
L 210.174589 73.21548 
L 210.826943 78.097545 
L 211.044394 78.971347 
L 211.479296 81.300874 
L 211.696747 81.283062 
L 211.914198 81.492059 
L 212.566552 83.076451 
L 212.784003 83.512224 
L 213.653807 83.983566 
L 214.08871 84.286654 
L 214.306161 84.079379 
L 214.741063 83.071531 
L 214.958514 83.080647 
L 215.175965 83.285724 
L 215.393417 83.214348 
L 215.828319 82.701877 
L 216.04577 82.330124 
L 216.263221 82.316067 
L 216.480672 82.438584 
L 216.698123 82.403922 
L 217.133026 81.600026 
L 217.350477 81.488061 
L 217.785379 80.777701 
L 218.220281 79.873343 
L 218.437732 79.83921 
L 218.655184 79.280626 
L 219.090086 76.875904 
L 219.307537 73.863604 
L 219.742439 59.793946 
L 219.95989 56.942624 
L 220.177342 57.098981 
L 221.047146 65.98597 
L 221.699499 72.752921 
L 222.351853 77.636379 
L 222.786755 80.307769 
L 223.874011 83.904364 
L 224.308913 85.249395 
L 224.526364 85.967469 
L 224.743815 85.655341 
L 224.961267 85.066132 
L 226.265973 85.243037 
L 226.483424 85.758926 
L 226.918327 87.290409 
L 227.353229 87.377717 
L 227.57068 87.383087 
L 228.875387 84.605304 
L 229.310289 83.307891 
L 229.52774 82.952623 
L 230.180094 83.136769 
L 231.267349 80.610498 
L 231.484801 80.374447 
L 231.919703 78.71904 
L 232.137154 77.601991 
L 232.354605 72.85006 
L 232.789507 61.287262 
L 233.006959 59.951998 
L 233.22441 60.561837 
L 234.529116 74.444522 
L 235.616372 85.553945 
L 235.833823 86.773287 
L 236.051274 87.154867 
L 236.486177 86.761853 
L 236.703628 86.6044 
L 236.921079 86.306848 
L 238.008335 87.462104 
L 238.225786 87.529182 
L 238.443237 87.756859 
L 238.878139 87.051038 
L 239.09559 87.452737 
L 239.313041 87.601836 
L 239.747944 86.53819 
L 240.400297 84.574128 
L 240.617748 84.349836 
L 241.052651 82.803288 
L 241.270102 82.943185 
L 241.922455 82.84215 
L 242.574809 81.954642 
L 242.79226 81.960625 
L 243.009711 81.837833 
L 243.444613 80.783392 
L 243.662064 80.08194 
L 243.879515 79.774606 
L 244.096966 79.228794 
L 244.966771 75.09085 
L 245.184222 74.819266 
L 245.401673 74.958214 
L 245.619124 70.603176 
L 245.836576 63.253676 
L 246.054027 59.812034 
L 246.271478 59.18924 
L 246.488929 59.542927 
L 246.923831 61.48758 
L 248.445989 76.322926 
L 249.968147 86.033548 
L 250.403049 86.033845 
L 251.925207 89.089752 
L 252.142658 89.006989 
L 252.577561 88.255658 
L 253.229914 88.228282 
L 253.447365 88.505024 
L 253.882268 88.606611 
L 254.099719 88.678894 
L 254.752072 87.560865 
L 255.186974 85.345712 
L 255.404426 83.903025 
L 256.056779 82.138397 
L 256.491681 81.275735 
L 257.796388 77.13714 
L 258.013839 76.954534 
L 258.23129 77.031969 
L 258.883644 75.253129 
L 259.318546 73.547069 
L 259.535997 68.955232 
L 259.970899 57.647454 
L 260.18835 56.423446 
L 260.405802 56.74844 
L 261.275606 62.581047 
L 261.92796 68.70957 
L 262.362862 72.164734 
L 262.580313 72.995059 
L 263.015215 75.665328 
L 263.450118 76.640011 
L 263.88502 78.300058 
L 264.102471 78.68212 
L 264.319922 78.822673 
L 264.754824 79.789297 
L 265.407178 79.505847 
L 265.624629 79.1701 
L 265.84208 79.049156 
L 266.059531 79.120683 
L 266.276982 79.775273 
L 266.494433 80.929616 
L 267.146787 82.471788 
L 267.581689 81.933805 
L 267.79914 82.237478 
L 268.016591 82.119469 
L 268.234043 81.477239 
L 268.451494 81.484195 
L 268.668945 81.349133 
L 269.103847 78.939968 
L 269.321298 78.887567 
L 269.538749 79.211492 
L 269.973652 78.649163 
L 270.191103 79.15409 
L 270.408554 79.006204 
L 271.278358 76.807405 
L 271.713261 74.636958 
L 272.365614 71.604994 
L 272.583065 68.320369 
L 273.017967 56.221269 
L 273.235419 55.024551 
L 273.45287 55.401719 
L 274.322674 60.121119 
L 275.627381 73.473045 
L 275.844832 74.41881 
L 276.062283 74.783932 
L 276.497186 76.935619 
L 277.149539 81.387715 
L 277.36699 81.653727 
L 277.584441 81.618483 
L 278.454246 82.480013 
L 278.889148 83.614819 
L 279.106599 83.636135 
L 279.32405 83.835099 
L 279.541502 83.760556 
L 280.193855 81.371925 
L 280.411306 80.895954 
L 280.628757 81.166589 
L 280.846208 81.199685 
L 281.716013 80.178774 
L 282.150915 79.192478 
L 282.585817 78.621173 
L 282.803269 78.666915 
L 283.02072 78.463619 
L 283.890524 75.18755 
L 284.542878 74.243913 
L 285.195231 72.676336 
L 285.412682 71.912734 
L 285.630133 68.72985 
L 286.065036 56.43825 
L 286.282487 54.299188 
L 286.499938 53.568 
L 286.717389 54.815175 
L 287.587194 64.003266 
L 288.022096 68.343239 
L 288.674449 72.835782 
L 289.326803 74.379071 
L 289.544254 74.058696 
L 291.066412 78.399077 
L 291.501314 78.647071 
L 291.718765 78.327769 
L 292.153667 76.48851 
L 292.371119 76.866983 
L 292.806021 78.551021 
L 293.023472 79.038899 
L 293.240923 78.855926 
L 293.458374 78.34437 
L 293.893277 76.627092 
L 294.110728 76.529645 
L 294.328179 76.305965 
L 294.980532 79.289996 
L 295.197983 80.274023 
L 295.415434 80.0902 
L 295.632886 80.21964 
L 295.850337 80.660867 
L 296.067788 80.676653 
L 296.285239 79.980012 
L 296.50269 80.539137 
L 298.242299 130.149841 
L 298.894653 142.762467 
L 299.764457 155.461072 
L 300.634262 164.513047 
L 301.504066 171.268037 
L 302.591322 178.017813 
L 303.896029 184.241849 
L 304.765833 187.662043 
L 306.07054 191.994099 
L 306.505442 193.151924 
L 307.157796 194.509649 
L 308.0276 196.454814 
L 310.637014 200.107585 
L 311.72427 201.401833 
L 312.159172 201.624249 
L 312.811525 201.761045 
L 314.551134 202.967296 
L 314.986037 203.097389 
L 315.420939 203.033088 
L 316.508195 203.714974 
L 317.160548 204.370997 
L 318.030353 204.813188 
L 318.682706 205.054661 
L 319.117608 205.042796 
L 319.769962 205.273825 
L 321.727022 205.163238 
L 322.161924 205.048162 
L 322.814278 204.775992 
L 323.466631 204.686802 
L 326.510947 206.039373 
L 327.380751 206.104559 
L 328.250556 206.361161 
L 328.468007 206.285253 
L 328.902909 206.518023 
L 330.425067 207.47985 
L 331.512323 207.423841 
L 332.599579 207.858221 
L 333.469383 207.600633 
L 333.904285 207.524495 
L 334.991541 207.562454 
L 335.861346 207.373858 
L 336.296248 207.536179 
L 336.73115 207.625238 
L 337.166052 207.715616 
L 338.035857 207.712612 
L 339.775466 207.991898 
L 341.515075 207.777985 
L 342.602331 207.131711 
L 343.254684 207.048366 
L 343.907038 207.093315 
L 344.34194 207.11944 
L 344.994293 207.02187 
L 345.429196 206.826406 
L 347.821158 206.563741 
L 348.908414 206.00403 
L 349.778218 205.977824 
L 350.430572 205.756297 
L 350.865474 205.630796 
L 352.170181 205.490983 
L 355.431948 204.500169 
L 355.86685 204.627929 
L 356.301752 204.759525 
L 356.736655 204.901732 
L 357.606459 205.040898 
L 358.041362 205.19689 
L 358.911166 205.35951 
L 360.650775 205.459344 
L 361.738031 205.551716 
L 362.825286 205.675104 
L 363.260189 205.54651 
L 364.129993 205.193976 
L 364.782347 205.298173 
L 365.217249 205.344502 
L 365.869602 205.260194 
L 366.521956 205.230251 
L 368.044114 204.639219 
L 368.479016 204.38885 
L 369.131369 204.270404 
L 369.566272 204.33904 
L 370.436076 204.821812 
L 370.870979 204.869316 
L 371.740783 204.849049 
L 372.175685 204.883403 
L 372.610588 204.974588 
L 373.262941 204.960103 
L 374.350197 204.958957 
L 375.437452 205.499419 
L 375.872355 205.509578 
L 376.742159 205.559731 
L 380.873731 205.852545 
L 382.178438 206.302988 
L 383.483144 206.328067 
L 384.787851 206.565629 
L 385.440205 206.252477 
L 386.744911 206.346212 
L 387.832167 206.245115 
L 388.48452 206.113129 
L 388.919423 206.15805 
L 389.571776 206.281631 
L 390.659032 206.541329 
L 391.963739 206.837466 
L 393.050994 206.71861 
L 394.790603 206.234101 
L 396.09531 205.957349 
L 397.182566 206.273727 
L 397.617468 206.333475 
L 398.269822 206.506501 
L 398.487273 206.512726 
L 398.487273 206.512726 
" style="fill:none;stroke:#000000;stroke-linecap:square;stroke-width:1.5;"/>
   </g>
   <g id="line2d_19">
    <path clip-path="url(#p768a8849e6)" d="M 73.832727 209.502915 
L 74.26763 209.542426 
L 76.22469 209.350611 
L 79.051555 209.592039 
L 79.703908 212.184742 
L 80.13881 213.092209 
L 82.313322 216.705365 
L 83.83548 218.745123 
L 84.705284 219.732756 
L 85.357637 220.647773 
L 89.489209 224.584136 
L 90.359014 225.154275 
L 91.228818 226.054532 
L 92.316074 227.085665 
L 96.447645 230.342355 
L 96.882548 230.637177 
L 98.404706 231.771048 
L 99.057059 232.281836 
L 100.579217 233.070936 
L 101.666473 233.557829 
L 102.101375 233.746077 
L 104.058435 234.602375 
L 104.493337 234.728624 
L 105.363142 235.217314 
L 105.580593 235.220658 
L 108.407458 236.673142 
L 108.84236 236.781043 
L 109.494714 236.948044 
L 110.364518 237.142703 
L 110.79942 237.357849 
L 113.843736 238.258516 
L 114.930992 238.689557 
L 115.800796 239.031114 
L 117.105503 239.560427 
L 118.627661 239.924503 
L 119.062563 239.987757 
L 119.714917 240.203298 
L 121.237075 240.254902 
L 121.671977 240.226144 
L 122.324331 240.375373 
L 122.976684 240.416893 
L 124.06394 240.479433 
L 124.498842 240.580836 
L 125.803549 240.739968 
L 126.238451 240.675092 
L 127.760609 240.818848 
L 129.93512 240.73889 
L 130.804925 240.82541 
L 131.89218 240.85505 
L 132.109632 240.920838 
L 132.544534 240.775689 
L 132.979436 240.822295 
L 133.414338 240.809892 
L 133.849241 240.963467 
L 135.153948 240.920338 
L 137.111008 241.490965 
L 137.980812 241.499577 
L 138.415715 241.42107 
L 139.285519 241.397196 
L 139.937872 241.199742 
L 140.590226 241.344451 
L 141.025128 241.401398 
L 142.764737 241.321784 
L 146.896309 241.588638 
L 147.11376 241.499684 
L 147.548662 241.473826 
L 147.983565 241.442959 
L 150.158076 241.703915 
L 150.810429 241.619697 
L 151.245332 241.689742 
L 151.897685 241.718226 
L 153.419843 241.79975 
L 154.289647 241.707812 
L 155.594354 241.832867 
L 156.029257 241.841144 
L 156.464159 241.785041 
L 156.899061 241.900766 
L 158.856121 241.590494 
L 159.508475 241.563899 
L 159.725926 241.541753 
L 160.160828 241.371489 
L 165.379655 240.70021 
L 167.119264 240.636886 
L 167.554167 240.450023 
L 167.989069 240.528992 
L 168.858874 240.471286 
L 169.076325 240.539629 
L 169.728678 240.477306 
L 170.16358 240.518158 
L 171.250836 240.378653 
L 171.903189 240.300974 
L 172.990445 240.278804 
L 173.86025 240.375587 
L 174.295152 240.433561 
L 174.730054 240.368521 
L 175.164956 240.447178 
L 176.904566 240.311319 
L 177.77437 240.389234 
L 179.296528 240.513345 
L 179.73143 240.414635 
L 180.166333 240.546765 
L 180.601235 240.507941 
L 181.036137 240.453879 
L 181.905942 240.342598 
L 182.340844 240.427199 
L 182.775746 240.41711 
L 183.210648 240.425953 
L 185.820062 240.445298 
L 186.254964 240.375585 
L 186.689867 240.331009 
L 187.994573 240.052303 
L 188.646927 239.94849 
L 189.29928 239.803731 
L 189.734183 239.694038 
L 190.169085 239.670173 
L 190.603987 239.676152 
L 191.038889 239.468898 
L 191.691243 239.392129 
L 192.126145 239.575505 
L 192.561047 239.692065 
L 193.648303 239.750641 
L 194.300656 239.900161 
L 194.735559 239.777712 
L 194.95301 239.71765 
L 195.387912 239.776912 
L 196.692619 239.810582 
L 201.041642 240.114111 
L 201.476544 240.008565 
L 201.693995 240.073293 
L 202.5638 239.850328 
L 203.433604 239.81943 
L 208.43498 240.058455 
L 208.869882 240.024633 
L 209.304785 239.88479 
L 210.826943 239.436394 
L 211.261845 239.454399 
L 214.523612 239.28016 
L 216.04577 239.154051 
L 216.698123 239.29796 
L 217.567928 239.361576 
L 218.872635 239.285641 
L 219.742439 239.093141 
L 220.612244 239.108957 
L 221.047146 239.078049 
L 221.482048 239.125045 
L 222.569304 239.034149 
L 223.004206 239.025491 
L 223.874011 238.881707 
L 225.396169 238.922281 
L 226.048522 239.061336 
L 227.135778 239.193367 
L 228.875387 238.966717 
L 229.745191 239.076071 
L 231.267349 239.065491 
L 232.572056 239.072343 
L 233.659312 239.204363 
L 234.311665 239.099672 
L 235.398921 238.85413 
L 236.051274 238.59301 
L 236.486177 238.593212 
L 237.13853 238.744786 
L 239.313041 238.843849 
L 242.139906 239.274156 
L 243.444613 239.35861 
L 245.836576 239.359405 
L 250.620501 239.817947 
L 251.490305 239.879942 
L 251.925207 239.762675 
L 252.36011 239.760496 
L 252.795012 239.752579 
L 253.229914 239.6353 
L 253.882268 239.655118 
L 254.31717 239.586919 
L 255.404426 239.65545 
L 256.056779 239.568017 
L 258.23129 239.687253 
L 258.666193 239.738469 
L 259.318546 239.494803 
L 260.18835 239.433495 
L 260.623253 239.517048 
L 261.710508 239.342036 
L 262.145411 239.343553 
L 263.667569 239.129117 
L 265.624629 239.077033 
L 267.79914 239.087003 
L 268.886396 238.911619 
L 270.843456 238.906318 
L 271.49581 238.952392 
L 272.148163 239.12034 
L 274.105223 239.123948 
L 276.279735 238.9683 
L 277.149539 239.00938 
L 277.584441 239.042888 
L 278.019344 239.2118 
L 278.454246 239.247744 
L 279.106599 239.265803 
L 279.758953 239.229054 
L 280.193855 239.290902 
L 280.628757 239.150925 
L 281.498562 239.190127 
L 282.368366 239.095309 
L 283.02072 239.074713 
L 284.107975 239.260709 
L 284.97778 239.231026 
L 285.847584 239.126743 
L 288.022096 239.027409 
L 288.8919 238.66755 
L 289.326803 238.517679 
L 289.761705 238.527577 
L 291.066412 238.404981 
L 291.718765 238.481025 
L 292.153667 238.380828 
L 292.58857 238.51238 
L 293.023472 238.492198 
L 293.893277 238.490343 
L 294.328179 238.370546 
L 294.980532 238.499159 
L 295.850337 238.58056 
L 296.50269 238.480066 
L 297.155044 235.843909 
L 297.807397 234.437803 
L 298.45975 233.49554 
L 301.504066 229.562958 
L 302.15642 228.918863 
L 304.11348 226.740224 
L 305.200736 225.985523 
L 305.635638 225.719972 
L 306.07054 225.313115 
L 306.505442 225.004623 
L 310.202112 222.346579 
L 310.637014 222.069617 
L 312.376623 220.797271 
L 313.028976 220.448175 
L 313.68133 219.963045 
L 315.203488 218.915672 
L 315.855841 218.574283 
L 316.290743 218.35643 
L 318.465255 217.286473 
L 318.900157 217.053779 
L 319.117608 217.075639 
L 319.769962 216.76679 
L 319.987413 216.755041 
L 321.074668 216.219826 
L 321.509571 216.08199 
L 322.596826 215.568852 
L 323.684082 215.181077 
L 324.553887 214.754083 
L 325.20624 214.435513 
L 325.641142 214.234189 
L 326.076045 213.924019 
L 328.250556 212.570803 
L 328.902909 212.227251 
L 329.337812 211.934552 
L 329.990165 211.71892 
L 330.642518 211.375252 
L 331.512323 211.029802 
L 332.81703 210.423636 
L 333.469383 210.222804 
L 334.77409 209.51803 
L 336.296248 208.756857 
L 337.166052 208.487567 
L 337.600955 208.340474 
L 338.253308 208.252688 
L 341.297624 205.879303 
L 341.732526 205.598718 
L 343.037233 205.037672 
L 344.124489 204.109636 
L 344.776842 203.608968 
L 344.994293 203.321644 
L 345.211745 203.362929 
L 346.081549 202.529899 
L 346.299 202.470192 
L 346.516451 201.738836 
L 346.733902 201.928684 
L 346.951354 201.30993 
L 347.168805 201.089735 
L 347.386256 201.079854 
L 347.603707 199.956359 
L 347.821158 200.559944 
L 348.038609 199.157647 
L 348.25606 200.027413 
L 348.473512 198.585028 
L 348.690963 197.935183 
L 348.908414 198.862405 
L 349.125865 194.847931 
L 349.343316 200.945976 
L 349.778218 120.131849 
L 349.995669 140.286845 
L 350.430572 188.803912 
L 350.648023 202.168715 
L 351.082925 211.878975 
L 351.517827 214.38162 
L 351.735279 215.194086 
L 351.95273 214.770374 
L 352.170181 215.509145 
L 352.387632 215.02635 
L 352.605083 215.372879 
L 353.039985 215.125196 
L 353.257437 215.250409 
L 353.474888 214.905717 
L 353.692339 215.020525 
L 354.127241 214.850356 
L 354.562143 214.764983 
L 354.779594 214.879009 
L 354.997046 214.755012 
L 355.431948 214.834129 
L 356.084301 214.663908 
L 356.519204 214.717641 
L 358.041362 214.427437 
L 359.998422 213.969271 
L 360.433324 213.906386 
L 360.650775 213.923533 
L 361.52058 213.56225 
L 361.955482 213.55977 
L 362.825286 213.539021 
L 363.260189 213.427727 
L 363.695091 213.450848 
L 365.4347 213.44968 
L 366.304505 213.368519 
L 366.739407 213.310915 
L 367.174309 213.287716 
L 368.261565 212.710651 
L 368.913918 212.592323 
L 369.348821 212.42741 
L 369.783723 212.244334 
L 370.218625 212.189717 
L 370.653527 212.135771 
L 370.870979 212.178765 
L 371.740783 211.97969 
L 375.437452 212.157343 
L 375.872355 212.141379 
L 378.916671 212.218452 
L 379.569024 212.026298 
L 380.003926 211.883601 
L 381.743535 211.561453 
L 382.395889 211.506309 
L 383.700596 211.636226 
L 385.875107 211.275732 
L 388.48452 210.834324 
L 388.919423 210.869137 
L 390.876483 210.495971 
L 391.528836 210.544464 
L 392.398641 210.392543 
L 393.050994 210.379241 
L 394.790603 210.576308 
L 395.877859 210.333457 
L 396.312761 210.450951 
L 396.965115 210.431498 
L 397.834919 210.391453 
L 398.05237 210.300446 
L 398.487273 210.326169 
L 398.487273 210.326169 
" style="fill:none;stroke:#000000;stroke-linecap:square;stroke-width:1.5;"/>
   </g>
   <g id="line2d_20">
    <path clip-path="url(#p768a8849e6)" d="M 73.832727 213.228469 
L 74.26763 213.267821 
L 76.22469 213.23562 
L 76.877043 213.329927 
L 77.311945 213.303089 
L 77.964299 213.27492 
L 78.616652 213.220124 
L 78.834103 213.261859 
L 79.051555 213.071687 
L 79.703908 209.937998 
L 80.356261 208.3963 
L 81.008615 207.261357 
L 81.443517 206.563737 
L 82.748224 204.19783 
L 84.052931 201.906124 
L 84.270382 201.325807 
L 84.487833 201.277331 
L 84.705284 200.32919 
L 84.922735 200.603355 
L 85.140186 199.751268 
L 85.575089 199.260981 
L 85.79254 198.112689 
L 86.009991 199.226361 
L 86.227442 196.640421 
L 86.444893 198.348817 
L 86.662344 195.115453 
L 86.879795 195.9185 
L 87.097247 192.273601 
L 87.314698 141.086901 
L 87.532149 120.446698 
L 87.967051 176.991305 
L 88.401953 202.188811 
L 88.836856 210.911846 
L 89.054307 211.718963 
L 89.271758 213.554213 
L 89.489209 213.444744 
L 89.924111 214.142134 
L 90.141562 213.719022 
L 90.359014 214.023457 
L 90.576465 213.554262 
L 90.793916 213.599939 
L 92.968427 211.527368 
L 93.838232 210.618338 
L 94.708036 209.59884 
L 95.142939 209.14821 
L 95.795292 208.348412 
L 97.969803 205.866116 
L 99.491961 203.814548 
L 101.666473 201.0296 
L 101.883924 200.484965 
L 102.101375 200.343813 
L 102.318826 199.886318 
L 102.536277 199.864986 
L 102.971179 198.924829 
L 103.188631 198.954587 
L 103.406082 198.125799 
L 103.623533 198.40331 
L 103.840984 197.348967 
L 104.275886 196.778143 
L 104.493337 195.769634 
L 104.710789 196.609887 
L 104.92824 194.129943 
L 105.145691 195.882732 
L 105.363142 192.394154 
L 105.580593 193.725065 
L 105.798044 188.62205 
L 106.015495 138.462709 
L 106.232946 120.45878 
L 106.667849 173.758147 
L 107.102751 199.405033 
L 107.537653 209.150046 
L 107.755104 210.25514 
L 107.972556 212.274185 
L 108.190007 212.293933 
L 108.624909 213.205151 
L 108.84236 212.943166 
L 109.059811 213.215886 
L 109.277262 212.779667 
L 109.494714 212.873873 
L 109.929616 212.480872 
L 110.147067 212.4694 
L 110.364518 212.26401 
L 110.581969 212.27141 
L 111.451774 211.454488 
L 111.669225 211.347404 
L 113.191383 209.662455 
L 115.148443 207.513931 
L 115.583345 206.975879 
L 116.670601 205.951996 
L 117.322954 205.263695 
L 117.757857 204.899301 
L 119.497466 203.16089 
L 120.802173 202.164119 
L 121.454526 201.807453 
L 121.889428 201.384993 
L 122.324331 201.013219 
L 122.759233 200.656611 
L 123.194135 200.232163 
L 123.411586 200.117715 
L 124.498842 198.688791 
L 124.933744 198.26051 
L 125.151195 197.85002 
L 125.368646 197.68464 
L 125.586098 197.210851 
L 126.021 196.725266 
L 126.238451 196.126793 
L 126.455902 196.068245 
L 126.673353 195.183527 
L 126.890804 195.317058 
L 127.325707 194.135723 
L 127.543158 194.164211 
L 127.760609 192.716807 
L 127.97806 193.537646 
L 128.195511 191.333339 
L 128.412962 192.20661 
L 128.847865 189.130933 
L 129.065316 189.505186 
L 129.500218 116.895303 
L 130.152571 183.827508 
L 130.370023 195.743944 
L 130.804925 207.045685 
L 131.457278 211.90203 
L 131.89218 213.098264 
L 132.109632 212.889117 
L 132.327083 213.379494 
L 132.544534 213.168682 
L 132.761985 213.238939 
L 132.979436 213.175947 
L 133.196887 212.968613 
L 133.414338 212.938824 
L 133.63179 212.555467 
L 134.936496 211.547688 
L 135.58885 210.89811 
L 136.023752 210.561517 
L 136.893557 209.717491 
L 137.328459 209.369588 
L 141.242579 205.694879 
L 141.894933 205.22493 
L 143.851993 203.497875 
L 144.286895 203.276705 
L 144.939249 202.581147 
L 146.026504 201.537303 
L 146.243955 201.336068 
L 146.461407 201.314093 
L 149.07082 198.952927 
L 149.288271 198.888171 
L 151.02788 197.26063 
L 151.245332 196.700266 
L 151.462783 196.684167 
L 151.897685 195.880419 
L 152.115136 195.722212 
L 152.332587 194.948584 
L 152.550038 195.038432 
L 152.767489 194.023479 
L 152.984941 193.972848 
L 153.419843 192.804367 
L 153.637294 193.168236 
L 153.854745 191.066963 
L 154.072196 192.645345 
L 154.289647 188.744522 
L 154.507099 191.358149 
L 154.72455 180.107393 
L 154.942001 131.141932 
L 155.159452 121.538647 
L 155.594354 170.273896 
L 156.029257 195.245505 
L 156.464159 206.232226 
L 157.116512 210.519129 
L 157.333963 211.513044 
L 157.551414 211.834084 
L 157.768866 211.887173 
L 157.986317 212.260021 
L 158.203768 212.06661 
L 158.421219 212.360631 
L 159.073572 212.103196 
L 159.291024 211.922991 
L 159.508475 211.905169 
L 160.378279 211.312358 
L 162.335339 209.792423 
L 165.162204 206.97831 
L 165.597106 206.443563 
L 168.858874 203.810818 
L 169.728678 203.217021 
L 171.033385 202.046315 
L 172.338092 200.99904 
L 173.425347 199.777254 
L 174.077701 199.003749 
L 175.599859 197.807582 
L 176.252212 196.960089 
L 177.122017 195.601375 
L 177.339468 195.452805 
L 177.556919 195.038066 
L 177.991821 194.654583 
L 178.644175 193.308088 
L 178.861626 193.235343 
L 179.079077 192.695934 
L 179.513979 192.278687 
L 179.73143 191.396911 
L 179.948881 191.712883 
L 180.166333 190.323612 
L 180.383784 190.921089 
L 180.818686 189.317908 
L 181.036137 189.436217 
L 181.253588 185.884669 
L 181.471039 189.685842 
L 181.905942 118.022928 
L 182.123393 130.455628 
L 182.558295 175.561419 
L 182.775746 189.695725 
L 183.210648 202.716919 
L 183.645551 207.832867 
L 183.863002 209.295769 
L 184.080453 209.806915 
L 184.297904 210.837062 
L 184.515355 210.79093 
L 184.732806 211.277336 
L 185.38516 211.494201 
L 185.602611 211.309544 
L 185.820062 211.334469 
L 186.037513 211.202477 
L 186.472416 211.251663 
L 186.689867 211.096576 
L 186.907318 211.141353 
L 187.559671 210.845997 
L 190.169085 209.183018 
L 190.821438 208.57384 
L 191.25634 208.282476 
L 192.778498 207.464358 
L 193.430852 206.98115 
L 193.865754 206.813101 
L 197.344972 204.372147 
L 197.779875 204.202918 
L 198.214777 203.871928 
L 198.649679 203.670602 
L 199.302033 203.185368 
L 200.171837 202.704309 
L 202.5638 200.80768 
L 204.085957 199.221823 
L 204.52086 199.051843 
L 204.955762 198.934919 
L 206.912822 196.975358 
L 207.565176 196.446401 
L 208.000078 196.056304 
L 208.652431 195.445141 
L 209.304785 194.761406 
L 209.522236 194.726651 
L 209.739687 194.277734 
L 209.957138 194.162294 
L 210.826943 192.340636 
L 211.044394 192.455044 
L 211.261845 191.462256 
L 211.479296 191.61167 
L 211.696747 191.075081 
L 211.914198 190.887436 
L 212.13165 191.260457 
L 212.349101 189.473638 
L 212.566552 191.036569 
L 212.784003 187.243874 
L 213.001454 190.133074 
L 213.218905 177.817085 
L 213.436356 129.583547 
L 213.653807 120.698849 
L 214.08871 167.752105 
L 214.523612 192.998417 
L 214.958514 204.624351 
L 215.393417 209.003291 
L 215.610868 209.573638 
L 215.828319 210.690568 
L 216.263221 211.163207 
L 216.480672 211.448926 
L 216.698123 211.283233 
L 216.915574 211.486776 
L 217.133026 211.282275 
L 217.567928 211.272067 
L 217.785379 211.110608 
L 218.00283 211.09871 
L 219.307537 210.304217 
L 219.95989 210.073849 
L 220.612244 209.638146 
L 221.047146 209.23376 
L 224.091462 207.064036 
L 224.743815 206.514956 
L 227.57068 204.39909 
L 229.310289 202.68979 
L 229.962643 202.258448 
L 231.484801 200.67641 
L 232.572056 199.721734 
L 234.094214 198.560538 
L 235.18147 197.523237 
L 235.833823 196.972036 
L 238.008335 194.757337 
L 238.225786 194.211881 
L 238.660688 193.682801 
L 238.878139 192.943031 
L 239.09559 193.032436 
L 239.313041 191.971579 
L 239.530493 192.100825 
L 239.747944 191.299585 
L 239.965395 191.008203 
L 240.182846 191.010972 
L 240.400297 188.99596 
L 240.617748 190.327874 
L 240.835199 186.518612 
L 241.052651 189.60604 
L 241.270102 175.117383 
L 241.487553 127.433859 
L 241.705004 121.8909 
L 242.139906 168.586912 
L 242.574809 192.847056 
L 243.009711 204.200437 
L 243.444613 208.847205 
L 243.662064 209.414027 
L 243.879515 210.563582 
L 244.531869 211.616489 
L 244.74932 211.496288 
L 244.966771 211.771894 
L 245.184222 211.611855 
L 245.619124 211.669859 
L 246.488929 211.044695 
L 248.011087 209.646429 
L 248.66344 209.295346 
L 249.750696 208.296425 
L 251.272854 206.957597 
L 251.707756 206.763467 
L 254.099719 204.806601 
L 255.621877 203.722809 
L 256.709132 202.665985 
L 257.796388 201.713156 
L 259.970899 199.779216 
L 261.92796 197.313391 
L 263.450118 195.292525 
L 263.667569 195.267799 
L 263.88502 194.678477 
L 264.102471 194.585936 
L 264.319922 193.84959 
L 264.754824 193.665764 
L 264.972275 192.947768 
L 265.189727 193.291398 
L 265.407178 192.008036 
L 265.624629 192.493861 
L 265.84208 190.810611 
L 266.059531 190.605969 
L 266.276982 190.060694 
L 266.494433 187.333964 
L 266.711885 189.954431 
L 267.146787 116.649717 
L 267.364238 132.600548 
L 267.79914 174.108003 
L 268.234043 195.080747 
L 268.451494 202.023238 
L 268.886396 207.849375 
L 269.103847 209.323679 
L 269.321298 209.903309 
L 269.538749 210.922679 
L 269.7562 210.933335 
L 269.973652 211.519774 
L 270.408554 211.623413 
L 270.626005 211.734547 
L 270.843456 211.513252 
L 271.060907 211.669111 
L 271.930712 211.024029 
L 272.148163 210.937327 
L 272.800516 210.412165 
L 274.105223 209.428665 
L 275.192479 208.485729 
L 276.062283 208.036238 
L 276.932088 207.279182 
L 278.236795 206.158749 
L 278.671697 205.821866 
L 280.628757 204.222179 
L 281.716013 203.107489 
L 284.325427 201.382054 
L 286.282487 199.336991 
L 286.717389 199.058055 
L 290.414058 195.057903 
L 290.631509 194.954854 
L 291.066412 194.406122 
L 291.283863 194.404213 
L 291.501314 194.061327 
L 291.718765 194.058564 
L 292.153667 193.39598 
L 292.371119 193.205075 
L 292.58857 192.639125 
L 292.806021 192.779477 
L 293.023472 191.697591 
L 293.240923 191.665048 
L 293.675825 190.515759 
L 293.893277 190.823315 
L 294.110728 188.91626 
L 294.328179 190.061241 
L 294.54563 186.234181 
L 294.763081 189.002776 
L 294.980532 177.123837 
L 295.197983 129.623882 
L 295.415434 119.803209 
L 295.850337 165.915788 
L 296.285239 191.150059 
L 296.720141 204.250077 
L 297.155044 210.584523 
L 297.807397 214.071884 
L 298.677201 216.111141 
L 299.112104 216.142737 
L 303.243675 218.097332 
L 303.678578 218.160877 
L 305.200736 218.769729 
L 305.635638 218.792728 
L 306.07054 218.951017 
L 306.940345 219.05378 
L 307.592698 219.165823 
L 309.332307 219.08263 
L 309.767209 219.171275 
L 310.419563 219.202809 
L 310.854465 219.261362 
L 311.289367 219.306066 
L 313.463879 219.336764 
L 314.768586 219.434892 
L 315.855841 219.250252 
L 316.290743 219.189189 
L 316.725646 219.086333 
L 317.59545 218.989335 
L 317.812901 218.943271 
L 318.247804 219.009307 
L 318.900157 218.798637 
L 319.335059 218.776344 
L 321.29212 218.405954 
L 321.727022 218.361087 
L 322.379375 218.393154 
L 327.1633 218.0329 
L 329.772714 218.17279 
L 332.164676 217.586287 
L 333.686834 217.176802 
L 335.643895 216.814357 
L 336.078797 216.665321 
L 336.73115 216.510158 
L 337.818406 216.409278 
L 340.645271 216.542783 
L 342.38488 216.44712 
L 342.819782 216.475403 
L 344.559391 216.369839 
L 344.994293 216.331021 
L 345.429196 216.186091 
L 346.516451 216.15031 
L 346.951354 216.083345 
L 348.25606 216.008683 
L 349.125865 215.909824 
L 349.995669 216.071277 
L 353.257437 216.324579 
L 353.692339 216.275243 
L 354.562143 216.347563 
L 355.86685 216.05616 
L 356.954106 216.163883 
L 357.389008 216.14978 
L 358.041362 216.287883 
L 358.911166 216.381403 
L 359.780971 216.264465 
L 361.085677 216.342335 
L 361.52058 216.278869 
L 362.825286 216.552503 
L 363.260189 216.66544 
L 364.564896 216.762445 
L 366.956858 216.768944 
L 367.39176 216.769796 
L 367.826663 216.864038 
L 368.913918 216.934296 
L 369.566272 216.819378 
L 370.001174 216.781148 
L 371.08843 216.801684 
L 371.305881 216.896895 
L 372.828039 216.756731 
L 373.480392 216.669395 
L 373.915294 216.605872 
L 374.350197 216.457944 
L 377.394513 215.882546 
L 379.351573 215.938946 
L 380.221377 215.666586 
L 381.526084 215.506944 
L 381.743535 215.470377 
L 382.395889 215.583934 
L 383.265693 215.51663 
L 384.352949 215.419325 
L 386.310009 215.478479 
L 386.962363 215.564158 
L 387.397265 215.621551 
L 389.136874 215.614114 
L 389.354325 215.756431 
L 390.22413 215.75838 
L 390.659032 215.61739 
L 391.093934 215.587493 
L 391.746288 215.5169 
L 394.355701 215.583687 
L 394.790603 215.51013 
L 395.225506 215.68383 
L 395.660408 215.86487 
L 396.530213 215.99672 
L 398.269822 216.196839 
L 398.487273 216.190504 
L 398.487273 216.190504 
" style="fill:none;stroke:#000000;stroke-linecap:square;stroke-width:1.5;"/>
   </g>
   <g id="patch_3">
    <path d="M 57.6 307.584 
L 57.6 41.472 
" style="fill:none;stroke:#000000;stroke-linecap:square;stroke-linejoin:miter;stroke-width:0.8;"/>
   </g>
   <g id="patch_4">
    <path d="M 414.72 307.584 
L 414.72 41.472 
" style="fill:none;stroke:#000000;stroke-linecap:square;stroke-linejoin:miter;stroke-width:0.8;"/>
   </g>
   <g id="patch_5">
    <path d="M 57.6 307.584 
L 414.72 307.584 
" style="fill:none;stroke:#000000;stroke-linecap:square;stroke-linejoin:miter;stroke-width:0.8;"/>
   </g>
   <g id="patch_6">
    <path d="M 57.6 41.472 
L 414.72 41.472 
" style="fill:none;stroke:#000000;stroke-linecap:square;stroke-linejoin:miter;stroke-width:0.8;"/>
   </g>
  </g>
 </g>
 <defs>
  <clipPath id="p768a8849e6">
   <rect height="266.112" width="357.12" x="57.6" y="41.472"/>
  </clipPath>
 </defs>
</svg>
