<?xml version="1.0" encoding="utf-8" standalone="no"?>
<!DOCTYPE svg PUBLIC "-//W3C//DTD SVG 1.1//EN"
  "http://www.w3.org/Graphics/SVG/1.1/DTD/svg11.dtd">
<svg xmlns:xlink="http://www.w3.org/1999/xlink" width="460.8pt" height="345.6pt" viewBox="0 0 460.8 345.6" xmlns="http://www.w3.org/2000/svg" version="1.1">
 <metadata>
  <rdf:RDF xmlns:dc="http://purl.org/dc/elements/1.1/" xmlns:cc="http://creativecommons.org/ns#" xmlns:rdf="http://www.w3.org/1999/02/22-rdf-syntax-ns#">
   <cc:Work>
    <dc:type rdf:resource="http://purl.org/dc/dcmitype/StillImage"/>
    <dc:date>2024-02-29T19:37:01.706473</dc:date>
    <dc:format>image/svg+xml</dc:format>
    <dc:creator>
     <cc:Agent>
      <dc:title>Matplotlib v3.6.2, https://matplotlib.org/</dc:title>
     </cc:Agent>
    </dc:creator>
   </cc:Work>
  </rdf:RDF>
 </metadata>
 <defs>
  <style type="text/css">*{stroke-linejoin: round; stroke-linecap: butt}</style>
 </defs>
 <g id="figure_1">
  <g id="patch_1">
   <path d="M 0 345.6 
L 460.8 345.6 
L 460.8 0 
L 0 0 
z
" style="fill: #ffffff"/>
  </g>
  <g id="axes_1">
   <g id="patch_2">
    <path d="M 57.6 307.584 
L 414.72 307.584 
L 414.72 41.472 
L 57.6 41.472 
z
" style="fill: #ffffff"/>
   </g>
   <g id="matplotlib.axis_1">
    <g id="xtick_1">
     <g id="line2d_1">
      <defs>
       <path id="m916b44b61d" d="M 0 0 
L 0 3.5 
" style="stroke: #000000; stroke-width: 0.8"/>
      </defs>
      <g>
       <use xlink:href="#m916b44b61d" x="121.347784" y="307.584" style="stroke: #000000; stroke-width: 0.8"/>
      </g>
     </g>
     <g id="text_1">
      <!-- 0.2 -->
      <g transform="translate(113.396222 322.182437) scale(0.1 -0.1)">
       <defs>
        <path id="DejaVuSans-30" d="M 2034 4250 
Q 1547 4250 1301 3770 
Q 1056 3291 1056 2328 
Q 1056 1369 1301 889 
Q 1547 409 2034 409 
Q 2525 409 2770 889 
Q 3016 1369 3016 2328 
Q 3016 3291 2770 3770 
Q 2525 4250 2034 4250 
z
M 2034 4750 
Q 2819 4750 3233 4129 
Q 3647 3509 3647 2328 
Q 3647 1150 3233 529 
Q 2819 -91 2034 -91 
Q 1250 -91 836 529 
Q 422 1150 422 2328 
Q 422 3509 836 4129 
Q 1250 4750 2034 4750 
z
" transform="scale(0.015625)"/>
        <path id="DejaVuSans-2e" d="M 684 794 
L 1344 794 
L 1344 0 
L 684 0 
L 684 794 
z
" transform="scale(0.015625)"/>
        <path id="DejaVuSans-32" d="M 1228 531 
L 3431 531 
L 3431 0 
L 469 0 
L 469 531 
Q 828 903 1448 1529 
Q 2069 2156 2228 2338 
Q 2531 2678 2651 2914 
Q 2772 3150 2772 3378 
Q 2772 3750 2511 3984 
Q 2250 4219 1831 4219 
Q 1534 4219 1204 4116 
Q 875 4013 500 3803 
L 500 4441 
Q 881 4594 1212 4672 
Q 1544 4750 1819 4750 
Q 2544 4750 2975 4387 
Q 3406 4025 3406 3419 
Q 3406 3131 3298 2873 
Q 3191 2616 2906 2266 
Q 2828 2175 2409 1742 
Q 1991 1309 1228 531 
z
" transform="scale(0.015625)"/>
       </defs>
       <use xlink:href="#DejaVuSans-30"/>
       <use xlink:href="#DejaVuSans-2e" x="63.623047"/>
       <use xlink:href="#DejaVuSans-32" x="95.410156"/>
      </g>
     </g>
    </g>
    <g id="xtick_2">
     <g id="line2d_2">
      <g>
       <use xlink:href="#m916b44b61d" x="200.539546" y="307.584" style="stroke: #000000; stroke-width: 0.8"/>
      </g>
     </g>
     <g id="text_2">
      <!-- 0.4 -->
      <g transform="translate(192.587983 322.182437) scale(0.1 -0.1)">
       <defs>
        <path id="DejaVuSans-34" d="M 2419 4116 
L 825 1625 
L 2419 1625 
L 2419 4116 
z
M 2253 4666 
L 3047 4666 
L 3047 1625 
L 3713 1625 
L 3713 1100 
L 3047 1100 
L 3047 0 
L 2419 0 
L 2419 1100 
L 313 1100 
L 313 1709 
L 2253 4666 
z
" transform="scale(0.015625)"/>
       </defs>
       <use xlink:href="#DejaVuSans-30"/>
       <use xlink:href="#DejaVuSans-2e" x="63.623047"/>
       <use xlink:href="#DejaVuSans-34" x="95.410156"/>
      </g>
     </g>
    </g>
    <g id="xtick_3">
     <g id="line2d_3">
      <g>
       <use xlink:href="#m916b44b61d" x="279.731307" y="307.584" style="stroke: #000000; stroke-width: 0.8"/>
      </g>
     </g>
     <g id="text_3">
      <!-- 0.6 -->
      <g transform="translate(271.779745 322.182437) scale(0.1 -0.1)">
       <defs>
        <path id="DejaVuSans-36" d="M 2113 2584 
Q 1688 2584 1439 2293 
Q 1191 2003 1191 1497 
Q 1191 994 1439 701 
Q 1688 409 2113 409 
Q 2538 409 2786 701 
Q 3034 994 3034 1497 
Q 3034 2003 2786 2293 
Q 2538 2584 2113 2584 
z
M 3366 4563 
L 3366 3988 
Q 3128 4100 2886 4159 
Q 2644 4219 2406 4219 
Q 1781 4219 1451 3797 
Q 1122 3375 1075 2522 
Q 1259 2794 1537 2939 
Q 1816 3084 2150 3084 
Q 2853 3084 3261 2657 
Q 3669 2231 3669 1497 
Q 3669 778 3244 343 
Q 2819 -91 2113 -91 
Q 1303 -91 875 529 
Q 447 1150 447 2328 
Q 447 3434 972 4092 
Q 1497 4750 2381 4750 
Q 2619 4750 2861 4703 
Q 3103 4656 3366 4563 
z
" transform="scale(0.015625)"/>
       </defs>
       <use xlink:href="#DejaVuSans-30"/>
       <use xlink:href="#DejaVuSans-2e" x="63.623047"/>
       <use xlink:href="#DejaVuSans-36" x="95.410156"/>
      </g>
     </g>
    </g>
    <g id="xtick_4">
     <g id="line2d_4">
      <g>
       <use xlink:href="#m916b44b61d" x="358.923069" y="307.584" style="stroke: #000000; stroke-width: 0.8"/>
      </g>
     </g>
     <g id="text_4">
      <!-- 0.8 -->
      <g transform="translate(350.971506 322.182437) scale(0.1 -0.1)">
       <defs>
        <path id="DejaVuSans-38" d="M 2034 2216 
Q 1584 2216 1326 1975 
Q 1069 1734 1069 1313 
Q 1069 891 1326 650 
Q 1584 409 2034 409 
Q 2484 409 2743 651 
Q 3003 894 3003 1313 
Q 3003 1734 2745 1975 
Q 2488 2216 2034 2216 
z
M 1403 2484 
Q 997 2584 770 2862 
Q 544 3141 544 3541 
Q 544 4100 942 4425 
Q 1341 4750 2034 4750 
Q 2731 4750 3128 4425 
Q 3525 4100 3525 3541 
Q 3525 3141 3298 2862 
Q 3072 2584 2669 2484 
Q 3125 2378 3379 2068 
Q 3634 1759 3634 1313 
Q 3634 634 3220 271 
Q 2806 -91 2034 -91 
Q 1263 -91 848 271 
Q 434 634 434 1313 
Q 434 1759 690 2068 
Q 947 2378 1403 2484 
z
M 1172 3481 
Q 1172 3119 1398 2916 
Q 1625 2713 2034 2713 
Q 2441 2713 2670 2916 
Q 2900 3119 2900 3481 
Q 2900 3844 2670 4047 
Q 2441 4250 2034 4250 
Q 1625 4250 1398 4047 
Q 1172 3844 1172 3481 
z
" transform="scale(0.015625)"/>
       </defs>
       <use xlink:href="#DejaVuSans-30"/>
       <use xlink:href="#DejaVuSans-2e" x="63.623047"/>
       <use xlink:href="#DejaVuSans-38" x="95.410156"/>
      </g>
     </g>
    </g>
   </g>
   <g id="matplotlib.axis_2">
    <g id="ytick_1">
     <g id="line2d_5">
      <defs>
       <path id="m44a3a33b41" d="M 0 0 
L -3.5 0 
" style="stroke: #000000; stroke-width: 0.8"/>
      </defs>
      <g>
       <use xlink:href="#m44a3a33b41" x="57.6" y="293.428889" style="stroke: #000000; stroke-width: 0.8"/>
      </g>
     </g>
     <g id="text_5">
      <!-- −80 -->
      <g transform="translate(29.495313 297.228107) scale(0.1 -0.1)">
       <defs>
        <path id="DejaVuSans-2212" d="M 678 2272 
L 4684 2272 
L 4684 1741 
L 678 1741 
L 678 2272 
z
" transform="scale(0.015625)"/>
       </defs>
       <use xlink:href="#DejaVuSans-2212"/>
       <use xlink:href="#DejaVuSans-38" x="83.789062"/>
       <use xlink:href="#DejaVuSans-30" x="147.412109"/>
      </g>
     </g>
    </g>
    <g id="ytick_2">
     <g id="line2d_6">
      <g>
       <use xlink:href="#m44a3a33b41" x="57.6" y="255.301041" style="stroke: #000000; stroke-width: 0.8"/>
      </g>
     </g>
     <g id="text_6">
      <!-- −60 -->
      <g transform="translate(29.495313 259.100259) scale(0.1 -0.1)">
       <use xlink:href="#DejaVuSans-2212"/>
       <use xlink:href="#DejaVuSans-36" x="83.789062"/>
       <use xlink:href="#DejaVuSans-30" x="147.412109"/>
      </g>
     </g>
    </g>
    <g id="ytick_3">
     <g id="line2d_7">
      <g>
       <use xlink:href="#m44a3a33b41" x="57.6" y="217.173193" style="stroke: #000000; stroke-width: 0.8"/>
      </g>
     </g>
     <g id="text_7">
      <!-- −40 -->
      <g transform="translate(29.495313 220.972411) scale(0.1 -0.1)">
       <use xlink:href="#DejaVuSans-2212"/>
       <use xlink:href="#DejaVuSans-34" x="83.789062"/>
       <use xlink:href="#DejaVuSans-30" x="147.412109"/>
      </g>
     </g>
    </g>
    <g id="ytick_4">
     <g id="line2d_8">
      <g>
       <use xlink:href="#m44a3a33b41" x="57.6" y="179.045345" style="stroke: #000000; stroke-width: 0.8"/>
      </g>
     </g>
     <g id="text_8">
      <!-- −20 -->
      <g transform="translate(29.495313 182.844563) scale(0.1 -0.1)">
       <use xlink:href="#DejaVuSans-2212"/>
       <use xlink:href="#DejaVuSans-32" x="83.789062"/>
       <use xlink:href="#DejaVuSans-30" x="147.412109"/>
      </g>
     </g>
    </g>
    <g id="ytick_5">
     <g id="line2d_9">
      <g>
       <use xlink:href="#m44a3a33b41" x="57.6" y="140.917497" style="stroke: #000000; stroke-width: 0.8"/>
      </g>
     </g>
     <g id="text_9">
      <!-- 0 -->
      <g transform="translate(44.2375 144.716715) scale(0.1 -0.1)">
       <use xlink:href="#DejaVuSans-30"/>
      </g>
     </g>
    </g>
    <g id="ytick_6">
     <g id="line2d_10">
      <g>
       <use xlink:href="#m44a3a33b41" x="57.6" y="102.789649" style="stroke: #000000; stroke-width: 0.8"/>
      </g>
     </g>
     <g id="text_10">
      <!-- 20 -->
      <g transform="translate(37.875 106.588867) scale(0.1 -0.1)">
       <use xlink:href="#DejaVuSans-32"/>
       <use xlink:href="#DejaVuSans-30" x="63.623047"/>
      </g>
     </g>
    </g>
    <g id="ytick_7">
     <g id="line2d_11">
      <g>
       <use xlink:href="#m44a3a33b41" x="57.6" y="64.6618" style="stroke: #000000; stroke-width: 0.8"/>
      </g>
     </g>
     <g id="text_11">
      <!-- 40 -->
      <g transform="translate(37.875 68.461019) scale(0.1 -0.1)">
       <use xlink:href="#DejaVuSans-34"/>
       <use xlink:href="#DejaVuSans-30" x="63.623047"/>
      </g>
     </g>
    </g>
   </g>
   <g id="line2d_12">
    <path d="M 73.832727 253.694277 
L 74.973089 253.87144 
L 75.242341 253.846981 
L 76.30351 253.705711 
L 77.919022 253.510942 
L 78.394173 253.584808 
L 78.584233 253.656047 
L 78.821808 253.742775 
L 80.231422 253.671465 
L 81.229238 253.797019 
L 81.450975 253.906097 
L 81.561843 254.152666 
L 81.672712 255.244727 
L 82.290407 263.789592 
L 83.098163 269.136572 
L 84.349393 275.312936 
L 85.72733 280.557948 
L 87.121105 284.469442 
L 89.164252 288.874118 
L 92.205216 292.485232 
L 92.822912 292.813125 
L 94.945251 294.276138 
L 95.642138 294.309857 
L 96.243996 294.579132 
L 96.449894 294.591276 
L 96.925045 294.585665 
L 97.463549 294.710232 
L 97.859508 294.631927 
L 98.207951 294.781606 
L 98.873162 294.971567 
L 99.696757 295.155619 
L 100.108554 295.220359 
L 100.567866 295.128603 
L 101.185562 295.419993 
L 101.644874 295.428699 
L 102.104186 295.332412 
L 102.531822 295.367254 
L 103.783051 295.092057 
L 104.95509 295.251508 
L 105.24018 295.201212 
L 105.731169 295.095963 
L 107.315004 295.289773 
L 107.600094 295.357439 
L 111.432976 294.875081 
L 111.860611 294.96401 
L 112.367438 294.930148 
L 112.652529 294.855139 
L 113.000973 294.804701 
L 113.872082 294.820297 
L 114.426424 294.901784 
L 115.487594 294.737901 
L 115.693492 294.715786 
L 115.931068 294.606659 
L 116.231996 294.588378 
L 116.517087 294.569615 
L 116.992237 294.512147 
L 117.309004 294.537231 
L 117.895023 294.589756 
L 118.322659 294.546165 
L 118.496881 294.490259 
L 118.686941 294.466027 
L 119.019546 294.554034 
L 120.476675 294.6391 
L 120.745927 294.684282 
L 121.157724 294.710474 
L 122.282247 294.567612 
L 122.741559 294.427095 
L 123.090003 294.406798 
L 124.135334 294.181939 
L 124.705515 294.365806 
L 125.465756 294.279433 
L 126.115128 294.144824 
L 127.081268 294.05713 
L 127.889024 294.214394 
L 128.411689 294.080368 
L 128.839325 294.000315 
L 130.438998 293.797841 
L 130.977502 293.788183 
L 131.531845 293.78216 
L 131.86445 293.73293 
L 132.14954 293.71759 
L 132.402954 293.730473 
L 132.862266 293.779149 
L 133.226548 293.811008 
L 133.828406 293.818721 
L 134.113496 293.854287 
L 136.077452 293.629527 
L 136.663471 293.427522 
L 137.455388 293.388987 
L 140.369645 293.515741 
L 140.733927 293.606858 
L 141.620875 293.621587 
L 142.238571 293.456483 
L 143.173034 293.462662 
L 145.216181 293.340666 
L 145.453756 293.431712 
L 145.818038 293.351375 
L 149.159931 293.25756 
L 149.619243 293.079814 
L 149.84098 293.125352 
L 150.078555 293.054645 
L 150.474514 292.916102 
L 151.218917 293.102484 
L 151.535684 293.170235 
L 152.660207 293.012943 
L 153.436286 293.050924 
L 153.943113 293.205304 
L 154.513294 293.144683 
L 154.830061 293.109869 
L 155.542787 292.951271 
L 156.002099 293.020201 
L 157.395874 292.94512 
L 157.617611 292.905094 
L 157.886863 292.940291 
L 159.850819 292.870849 
L 160.088394 292.895379 
L 161.022857 292.921528 
L 161.418815 292.845155 
L 162.5275 292.790641 
L 163.066004 292.736993 
L 163.604508 292.676201 
L 163.842083 292.712762 
L 164.238042 292.782616 
L 166.059453 292.738399 
L 166.455412 292.76898 
L 167.073107 292.861702 
L 167.389874 292.833635 
L 168.276822 292.698629 
L 168.704458 292.597811 
L 169.211285 292.639655 
L 170.082394 292.508654 
L 170.98518 292.547615 
L 171.222756 292.570966 
L 173.471802 292.605424 
L 173.915275 292.707989 
L 175.594141 292.498356 
L 176.148483 292.443786 
L 176.718664 292.310626 
L 177.114623 292.410307 
L 177.81151 292.40927 
L 178.239146 292.370267 
L 178.476721 292.342655 
L 178.761811 292.337499 
L 180.12391 292.335482 
L 180.377323 292.396714 
L 181.517685 292.263512 
L 182.483824 292.289604 
L 182.990651 292.211128 
L 185.952423 292.305171 
L 186.253352 292.306492 
L 187.441228 292.54351 
L 188.423206 292.415861 
L 188.67662 292.396643 
L 189.104255 292.297629 
L 189.563568 292.207819 
L 189.864496 292.288794 
L 190.339647 292.274804 
L 191.036534 292.210475 
L 191.416655 292.219423 
L 191.606715 292.242987 
L 191.812614 292.218003 
L 192.271926 292.170946 
L 194.8219 292.295101 
L 195.376243 292.340311 
L 195.629656 292.286849 
L 196.025615 292.322486 
L 196.374059 292.287076 
L 197.261007 292.30537 
L 198.369691 292.354543 
L 198.638943 292.35541 
L 199.129932 292.373605 
L 199.415023 292.357512 
L 200.397001 292.423403 
L 200.919666 292.411813 
L 201.204756 292.356745 
L 201.74326 292.316918 
L 203.485479 292.187309 
L 203.992306 292.257347 
L 204.324912 292.360225 
L 204.831739 292.266608 
L 205.085153 292.194709 
L 205.481112 292.257347 
L 207.619289 292.327485 
L 207.967733 292.291181 
L 208.316177 292.252561 
L 208.775489 292.20583 
L 209.313993 292.123264 
L 209.567406 292.146161 
L 210.200941 292.107569 
L 210.97702 292.232746 
L 211.16708 292.227164 
L 211.45217 292.167012 
L 211.848129 292.112427 
L 212.481663 292.150336 
L 212.750915 292.155279 
L 213.020167 292.233798 
L 213.47948 292.337172 
L 214.556487 292.235175 
L 215.142506 292.151416 
L 215.696849 292.126261 
L 216.235353 292.083707 
L 216.678827 292.112412 
L 217.058947 292.147908 
L 217.613289 292.199765 
L 218.025087 292.115338 
L 218.326015 292.085837 
L 219.577245 292.233869 
L 219.878174 292.265983 
L 220.49587 292.206569 
L 221.050212 292.103791 
L 221.477847 292.128733 
L 221.921321 292.103095 
L 223.821924 292.047786 
L 224.233721 292.151743 
L 224.835578 292.087101 
L 225.10483 292.058026 
L 226.07097 292.031579 
L 226.625312 292.1047 
L 227.227169 292.030201 
L 229.507892 291.730545 
L 229.697952 291.689255 
L 229.888012 291.66508 
L 230.252295 291.799391 
L 231.075889 291.800243 
L 231.693585 291.70995 
L 231.978675 291.717222 
L 233.055683 291.898717 
L 233.261582 291.851533 
L 233.641702 291.853564 
L 233.958469 291.888775 
L 234.275236 291.840368 
L 234.782063 291.788823 
L 235.368082 291.645564 
L 235.764041 291.650791 
L 236.429252 291.530329 
L 236.698504 291.576378 
L 237.046948 291.62362 
L 237.300361 291.773725 
L 237.60129 291.777844 
L 238.218986 291.798269 
L 238.599106 291.775131 
L 239.295994 291.811904 
L 240.863991 291.856206 
L 241.291626 291.883036 
L 241.560878 291.841732 
L 242.02019 291.661245 
L 242.511179 291.697294 
L 242.875461 291.622966 
L 243.033845 291.673347 
L 243.350612 291.801635 
L 243.904954 291.848024 
L 244.205883 291.831775 
L 245.330406 291.846703 
L 245.552143 291.852356 
L 245.86891 291.912694 
L 246.138162 291.937536 
L 246.391576 292.019563 
L 248.909874 291.822244 
L 249.131611 291.755814 
L 249.337509 291.757745 
L 251.25395 291.96414 
L 252.030029 291.871049 
L 252.457665 291.977832 
L 252.948653 292.010572 
L 253.94647 291.925491 
L 254.342428 291.873804 
L 254.722549 291.741454 
L 254.991801 291.678332 
L 255.799557 291.654967 
L 256.290546 291.730645 
L 256.876565 291.719296 
L 257.811028 291.62362 
L 258.634622 291.623364 
L 258.872197 291.635636 
L 259.331509 291.60345 
L 259.695792 291.702947 
L 261.121243 291.635323 
L 262.150736 291.35257 
L 263.354451 291.407552 
L 263.829601 291.562615 
L 264.162207 291.567912 
L 265.128346 291.431585 
L 265.635174 291.545684 
L 265.856911 291.630622 
L 266.237031 291.791692 
L 266.553798 291.667751 
L 266.91808 291.673006 
L 267.377392 291.63663 
L 267.773351 291.57679 
L 268.54943 291.439411 
L 270.386679 291.483145 
L 270.941022 291.50347 
L 271.352819 291.493442 
L 271.606232 291.55726 
L 271.891323 291.628406 
L 272.477342 291.562004 
L 272.968331 291.617682 
L 273.506835 291.587301 
L 273.918632 291.52871 
L 274.140369 291.530372 
L 274.441298 291.528724 
L 275.138185 291.357939 
L 276.072648 291.423631 
L 276.516122 291.423773 
L 276.769535 291.431812 
L 277.117979 291.449425 
L 279.002743 291.623094 
L 279.6046 291.689567 
L 280.222296 291.637979 
L 281.04589 291.567344 
L 281.457688 291.43329 
L 281.72694 291.393278 
L 282.075383 291.379216 
L 282.550534 291.264776 
L 283.136553 291.302004 
L 283.469158 291.325171 
L 284.60952 291.274421 
L 285.148024 291.290698 
L 286.351738 291.447891 
L 286.605152 291.399669 
L 286.985273 291.481554 
L 287.365393 291.427935 
L 287.666322 291.4439 
L 288.06228 291.307558 
L 288.299856 291.361461 
L 288.6483 291.43427 
L 289.060097 291.357626 
L 289.519409 291.416969 
L 289.836176 291.468089 
L 290.168781 291.437068 
L 290.738962 291.398022 
L 291.166598 291.312799 
L 291.53088 291.280117 
L 292.085222 291.34132 
L 292.560373 291.472605 
L 292.782109 291.418134 
L 293.431482 291.319404 
L 295.237054 291.183204 
L 295.743881 291.18863 
L 298.483916 291.251112 
L 298.800683 291.312288 
L 299.513409 291.367512 
L 299.7985 291.290926 
L 300.27365 291.244962 
L 300.574579 291.189909 
L 300.827992 291.310314 
L 301.033891 291.279278 
L 301.42985 291.19042 
L 301.746617 291.199638 
L 303.045362 291.211683 
L 303.425482 291.20353 
L 304.375783 291.258527 
L 304.961802 291.272148 
L 305.3736 291.211413 
L 306.482284 291.216441 
L 306.719859 291.220773 
L 307.258363 291.301564 
L 307.606807 291.240673 
L 308.493755 291.076833 
L 308.92139 291.154584 
L 310.505226 291.292857 
L 311.13876 291.212521 
L 311.455527 291.286039 
L 312.120738 291.346547 
L 312.421666 291.420023 
L 313.514513 291.240346 
L 314.338107 291.176117 
L 314.734066 291.151928 
L 315.288408 291.19863 
L 315.890265 291.125878 
L 316.444608 291.22262 
L 316.919758 291.222535 
L 317.173172 291.205234 
L 317.363232 291.216924 
L 317.775029 291.305001 
L 318.566947 291.35024 
L 319.105451 291.459211 
L 319.200481 290.888406 
L 319.374703 287.621775 
L 319.707308 282.738803 
L 320.198297 279.006971 
L 321.164437 273.557696 
L 322.019708 270.180944 
L 323.44516 265.800911 
L 325.234893 262.000533 
L 325.773397 261.200351 
L 326.343578 260.203179 
L 326.818729 259.552584 
L 327.76903 258.256579 
L 328.545109 257.394015 
L 328.972744 256.939239 
L 329.384542 256.612937 
L 329.606279 256.378199 
L 329.859692 256.164589 
L 330.128944 255.96345 
L 330.334843 255.71247 
L 330.619933 255.47362 
L 331.855325 254.714374 
L 332.346314 254.527908 
L 332.710596 254.245545 
L 333.122393 254.018974 
L 334.136047 253.342592 
L 334.468653 253.209759 
L 335.466469 252.798525 
L 335.767398 252.667042 
L 336.290063 252.438859 
L 338.285696 251.873444 
L 338.729169 251.950037 
L 340.027914 251.483402 
L 340.313005 251.47505 
L 341.785971 250.928221 
L 342.261122 250.903521 
L 343.179746 250.833091 
L 345.048672 250.597899 
L 345.349601 250.601762 
L 346.553316 250.266803 
L 346.759214 250.291077 
L 347.012628 250.258366 
L 347.947091 250.110242 
L 351.494881 250.421062 
L 351.970032 250.530772 
L 352.603566 250.371662 
L 352.872818 250.349689 
L 354.662552 250.289138 
L 354.86845 250.321217 
L 355.153541 250.295892 
L 355.517823 250.303051 
L 355.692045 250.414884 
L 355.913782 250.518898 
L 357.149173 250.214263 
L 358.479595 250.459817 
L 358.764685 250.447943 
L 359.334866 250.370604 
L 359.619956 250.3316 
L 361.59975 250.210727 
L 362.043224 250.206657 
L 362.296638 250.242585 
L 362.502536 250.22351 
L 362.94601 250.184215 
L 363.357807 250.235022 
L 363.658736 250.29325 
L 364.213078 250.293989 
L 364.640714 250.361648 
L 365.575177 250.443867 
L 366.018651 250.461543 
L 366.747215 250.467168 
L 368.853716 250.344689 
L 369.297189 250.50512 
L 369.788178 250.374332 
L 370.05743 250.343886 
L 370.279167 250.391022 
L 371.593751 250.67624 
L 372.005548 250.858232 
L 372.306476 250.71035 
L 372.65492 250.67815 
L 372.892495 250.67886 
L 373.288454 250.694839 
L 373.541868 250.665814 
L 373.985342 250.579356 
L 374.682229 250.718545 
L 375.109865 250.759914 
L 375.870106 250.904252 
L 376.123519 250.882591 
L 377.802385 251.14759 
L 378.277535 251.26377 
L 378.578464 251.255695 
L 379.006099 251.099056 
L 379.259513 251.12914 
L 379.734664 251.18447 
L 380.304844 251.006739 
L 380.589935 250.930415 
L 381.318499 250.94077 
L 382.252962 250.916133 
L 382.506375 250.945606 
L 382.743951 250.904174 
L 383.425 250.946437 
L 383.99518 250.922291 
L 385.309764 251.054364 
L 386.339257 251.007428 
L 386.861922 250.853978 
L 387.115336 250.826394 
L 387.542971 250.958574 
L 388.208182 250.787803 
L 389.158483 251.050707 
L 390.393875 251.14698 
L 391.074924 251.158193 
L 391.866841 251.188739 
L 394.86029 251.113416 
L 395.272087 251.141944 
L 396.174873 251.080464 
L 396.650024 251.088929 
L 397.426103 251.069214 
L 397.996284 251.294634 
L 398.487273 251.327949 
L 398.487273 251.327949 
" clip-path="url(#p8401b89fb2)" style="fill: none; stroke: #1f77b4; stroke-width: 1.5; stroke-linecap: square"/>
   </g>
   <g id="line2d_13">
    <path d="M 73.832727 255.301471 
L 74.307878 255.349778 
L 75.258179 255.340517 
L 75.606623 255.329751 
L 76.240157 255.367107 
L 77.570578 255.234891 
L 77.966537 255.22377 
L 78.948515 255.302039 
L 80.579865 255.266864 
L 80.833279 255.326214 
L 81.165884 255.306634 
L 81.546005 255.335177 
L 81.672712 255.553872 
L 82.242892 257.064048 
L 82.987295 257.973626 
L 83.399092 258.404312 
L 85.473916 260.464016 
L 85.901552 260.79154 
L 87.026075 261.645127 
L 88.689102 262.493871 
L 89.211767 262.696814 
L 89.972008 262.975946 
L 90.399644 263.030815 
L 92.252731 263.861818 
L 92.64869 263.863934 
L 93.012972 264.037731 
L 93.440607 264.252534 
L 93.884081 264.293626 
L 94.723514 264.5876 
L 95.024443 264.597415 
L 95.753007 264.579944 
L 96.117289 264.663008 
L 96.845853 264.534677 
L 98.049568 264.73985 
L 98.968192 264.877541 
L 99.601726 264.981853 
L 100.377806 265.037929 
L 100.615381 265.116263 
L 100.979663 265.26428 
L 101.2014 265.32449 
L 102.896104 265.266581 
L 103.545476 265.307161 
L 103.79889 265.301366 
L 104.495777 265.233657 
L 105.018443 265.439 
L 105.24018 265.430194 
L 105.71533 265.333594 
L 106.333026 265.470618 
L 106.839853 265.430364 
L 107.093267 265.37345 
L 107.821831 265.653022 
L 108.106922 265.61534 
L 108.613749 265.644613 
L 108.930516 265.650451 
L 111.242915 265.650338 
L 111.781419 265.698275 
L 112.557499 265.642923 
L 113.808728 265.714624 
L 114.315556 265.958871 
L 114.806545 265.851335 
L 115.23418 265.806621 
L 115.582624 265.837784 
L 116.231996 265.618819 
L 116.437895 265.618422 
L 116.802177 265.655209 
L 117.45155 265.6098 
L 118.21179 265.75303 
L 118.972031 265.77087 
L 119.257122 265.745716 
L 119.494697 265.730816 
L 119.795626 265.757746 
L 120.223261 265.729211 
L 120.99934 265.821137 
L 121.490329 265.768669 
L 122.3456 265.736085 
L 122.678206 265.624586 
L 124.277879 265.672339 
L 124.56297 265.765686 
L 124.911413 265.875381 
L 125.639978 265.860737 
L 126.067613 265.851406 
L 126.447734 265.913419 
L 126.701147 265.91295 
L 127.429711 266.075654 
L 127.936539 266.0355 
L 128.855163 265.884614 
L 129.678757 265.740929 
L 130.185585 265.746554 
L 130.42316 265.624274 
L 130.866634 265.653065 
L 131.072532 265.606434 
L 131.246754 265.684696 
L 131.531845 265.754366 
L 131.991157 265.760416 
L 132.323762 265.699965 
L 133.179033 265.627796 
L 134.794545 265.731583 
L 134.984606 265.734566 
L 135.253857 265.760303 
L 135.681493 265.658618 
L 135.966583 265.611561 
L 136.758501 265.518499 
L 137.835509 265.534819 
L 138.326498 265.563198 
L 138.69078 265.572828 
L 138.912517 265.487208 
L 139.165931 265.41163 
L 139.498536 265.433191 
L 140.211262 265.54371 
L 140.496352 265.595937 
L 140.765604 265.572501 
L 143.458124 265.304874 
L 143.664023 265.288057 
L 143.98079 265.286481 
L 145.738847 265.276652 
L 145.944745 265.356065 
L 146.245674 265.388946 
L 146.641633 265.386645 
L 148.241306 265.326947 
L 148.49472 265.335824 
L 149.603405 265.11784 
L 149.888495 265.091662 
L 150.110232 265.06388 
L 150.490352 265.020246 
L 150.965503 265.0159 
L 151.979158 265.019422 
L 152.739398 265.055542 
L 152.992812 265.069291 
L 153.436286 265.062672 
L 154.053982 265.221996 
L 154.703354 265.093324 
L 154.956768 265.02195 
L 155.305212 264.984538 
L 155.60614 265.050997 
L 156.334704 264.994139 
L 156.66731 265.004608 
L 157.427551 265.04506 
L 158.156115 265.04658 
L 159.866657 265.166331 
L 160.658575 265.42028 
L 161.007018 265.268399 
L 161.323785 265.196003 
L 161.593037 265.18633 
L 163.39861 265.028413 
L 163.762892 265.031765 
L 164.396426 265.194014 
L 164.824061 265.068965 
L 165.045798 265.063908 
L 165.41008 265.051622 
L 165.821877 265.089574 
L 166.772179 265.148804 
L 167.294844 265.246952 
L 167.785833 265.135168 
L 169.559729 265.025558 
L 169.987364 264.998954 
L 170.573383 264.983572 
L 170.79512 264.983842 
L 170.98518 265.051423 
L 171.206917 265.029535 
L 173.29758 265.27908 
L 173.804407 265.368919 
L 174.073659 265.316536 
L 174.263719 265.288469 
L 174.453779 265.304093 
L 174.675516 265.322345 
L 175.039798 265.276112 
L 175.229859 265.237392 
L 175.720848 265.026978 
L 177.146299 265.009181 
L 177.494743 265.084859 
L 177.748157 265.040444 
L 178.128277 265.061565 
L 178.540074 265.109232 
L 179.34783 265.051707 
L 180.361485 265.310726 
L 181.058372 265.238046 
L 181.486008 265.242847 
L 181.802775 265.181444 
L 182.372956 265.052318 
L 182.626369 265.119984 
L 182.927298 265.119189 
L 183.465802 265.07341 
L 184.115174 265.126305 
L 186.395897 265.286182 
L 186.776018 265.317629 
L 187.346198 265.305499 
L 187.647127 265.264209 
L 188.043086 265.208019 
L 188.248984 265.187665 
L 188.549913 265.184214 
L 189.262639 265.042901 
L 189.880335 265.027944 
L 190.102072 265.011425 
L 190.434677 264.990361 
L 191.765099 265.031311 
L 192.192734 265.092685 
L 193.824084 265.342514 
L 194.188366 265.117712 
L 194.695194 265.09054 
L 194.980284 265.080257 
L 195.344566 264.987506 
L 195.661333 264.904201 
L 195.962262 264.911175 
L 196.690826 264.902625 
L 197.862864 264.946926 
L 198.132116 264.899273 
L 198.512237 264.912866 
L 200.634576 265.173675 
L 201.157241 264.975206 
L 201.410655 264.959298 
L 201.759099 264.974013 
L 202.851945 264.726413 
L 206.209676 265.0629 
L 206.399736 265.084276 
L 207.745996 264.957437 
L 208.727974 264.874104 
L 209.013064 264.770729 
L 209.519891 264.860127 
L 209.852497 264.892015 
L 210.501869 264.902255 
L 211.594716 265.049932 
L 212.671724 265.112215 
L 213.827923 265.217493 
L 214.113014 265.171601 
L 214.651518 265.207408 
L 215.158345 265.076493 
L 215.617657 265.020189 
L 218.658621 265.263186 
L 218.912034 265.235234 
L 219.181286 265.244509 
L 220.052396 265.417964 
L 220.923505 265.230205 
L 221.366979 265.24208 
L 222.50734 265.057374 
L 222.855784 265.033143 
L 223.28342 264.971016 
L 223.56851 265.048 
L 224.04366 265.033171 
L 224.439619 265.00742 
L 224.740548 265.024777 
L 225.833394 264.909783 
L 226.292707 265.042617 
L 227.084624 265.011354 
L 227.448906 264.939739 
L 227.876542 264.944426 
L 228.256662 264.823979 
L 228.715974 264.786992 
L 229.04858 264.800187 
L 229.33367 264.826123 
L 230.252295 264.83422 
L 230.711607 264.845029 
L 231.345141 264.867186 
L 231.725261 264.848722 
L 232.105382 264.770487 
L 233.309097 264.962962 
L 233.530834 264.882328 
L 234.576165 264.880368 
L 235.589819 264.679072 
L 236.049132 264.605042 
L 236.44509 264.622641 
L 236.650989 264.75759 
L 236.856888 264.76536 
L 237.50626 264.78408 
L 238.060602 264.846776 
L 239.169287 264.83135 
L 239.691953 264.988529 
L 240.737284 264.816223 
L 241.038213 264.785174 
L 241.671747 264.728231 
L 243.493157 264.819206 
L 244.047499 264.815641 
L 244.33259 264.864999 
L 244.586003 264.946543 
L 244.80774 264.918121 
L 245.203699 264.932382 
L 245.726365 265.025189 
L 246.05897 265.106136 
L 246.470767 265.050613 
L 246.850888 264.988401 
L 247.167655 264.981001 
L 247.436907 264.935009 
L 248.355531 264.861008 
L 249.194964 264.744807 
L 250.953021 264.858323 
L 251.206435 264.887512 
L 252.410149 264.984339 
L 252.742755 265.100753 
L 254.073176 264.93954 
L 254.484974 264.966783 
L 255.086831 264.871334 
L 255.926264 265.01803 
L 256.179677 265.021141 
L 257.145817 265.086691 
L 258.254501 265.134643 
L 258.476238 265.228984 
L 259.014742 265.313084 
L 260.281811 265.218984 
L 260.487709 265.244224 
L 260.693608 265.216229 
L 260.96286 265.248912 
L 261.390495 265.172538 
L 262.182413 265.092472 
L 263.243582 265.092614 
L 263.576188 265.014721 
L 263.972147 265.071649 
L 264.352267 264.953218 
L 265.033316 264.831379 
L 265.350083 264.907255 
L 266.458768 264.984751 
L 266.759697 264.934612 
L 267.282362 264.871604 
L 267.900058 264.872499 
L 268.533592 264.773073 
L 268.739491 264.866959 
L 268.945389 264.838694 
L 269.42054 264.8376 
L 269.753145 264.793142 
L 271.986353 264.805571 
L 272.176413 264.82628 
L 272.413988 264.855681 
L 273.490996 264.788711 
L 273.966147 264.829461 
L 274.615519 264.723388 
L 274.99564 264.666204 
L 275.454952 264.694924 
L 276.880404 264.822544 
L 277.165494 264.763584 
L 277.59313 264.677041 
L 278.321694 264.690222 
L 279.002743 264.877924 
L 281.093405 264.719013 
L 281.584394 264.701031 
L 282.10706 264.699426 
L 282.598049 264.766297 
L 283.009846 264.790429 
L 283.516673 264.813141 
L 285.100509 264.812857 
L 285.322246 264.852358 
L 285.591498 264.966385 
L 286.177517 264.97576 
L 286.367577 265.010474 
L 286.747697 265.048341 
L 287.096141 265.036495 
L 287.571292 264.991554 
L 287.856382 264.976953 
L 288.284017 264.972521 
L 289.139288 265.013939 
L 289.31351 264.992847 
L 289.551086 264.973203 
L 290.643932 264.840597 
L 290.818154 264.898974 
L 291.103244 264.945676 
L 292.10106 265.105369 
L 292.386151 265.1742 
L 292.845463 265.074973 
L 293.146392 265.073709 
L 293.558189 265.032021 
L 293.859117 265.143208 
L 294.160046 265.107585 
L 294.556005 265.067473 
L 295.506306 265.025302 
L 297.739514 265.007193 
L 298.103796 264.995716 
L 298.468078 265.014863 
L 299.006582 265.205647 
L 299.212481 265.234822 
L 300.717124 265.028228 
L 300.954699 265.013272 
L 301.33482 265.00002 
L 301.984192 264.990248 
L 302.77611 265.096776 
L 303.235422 265.011653 
L 304.264915 265.096861 
L 304.59752 265.094915 
L 305.136024 265.099574 
L 305.864588 265.159982 
L 306.387254 265.092955 
L 306.81489 265.139017 
L 310.093429 265.220589 
L 310.331004 265.282319 
L 310.869508 265.080754 
L 311.170436 265.059562 
L 312.405828 265.267064 
L 312.706757 265.244722 
L 313.086877 265.216229 
L 313.419483 265.182012 
L 316.698021 264.710747 
L 316.99895 264.716158 
L 317.474101 264.714653 
L 317.775029 264.757193 
L 318.028443 264.782333 
L 318.361048 264.899486 
L 318.962906 265.009962 
L 319.168804 264.844091 
L 319.327188 264.310187 
L 319.675632 263.170224 
L 320.293327 262.207282 
L 321.497042 260.598582 
L 323.318453 259.411875 
L 323.761927 259.095643 
L 324.062855 259.002495 
L 324.395461 258.848682 
L 324.965641 258.544858 
L 325.599175 258.352795 
L 328.386725 256.976247 
L 329.542925 256.828678 
L 330.303166 256.662501 
L 331.158437 256.550867 
L 331.839486 256.566661 
L 332.061223 256.609038 
L 332.900656 256.161251 
L 333.850957 256.059922 
L 334.104371 255.919724 
L 334.817096 255.755877 
L 335.577337 255.624194 
L 335.973296 255.663112 
L 336.305902 255.641558 
L 337.018627 255.463458 
L 337.905575 255.386111 
L 338.982583 255.456107 
L 339.267673 255.386246 
L 339.568602 255.357469 
L 339.901208 255.193175 
L 340.138783 255.158006 
L 340.45555 255.031785 
L 340.788155 255.081732 
L 341.437528 255.112313 
L 341.627588 255.116745 
L 341.865163 255.128754 
L 343.639059 255.024285 
L 343.924149 255.016921 
L 344.763582 255.0812 
L 345.397116 255.163127 
L 345.777236 255.052352 
L 346.363255 255.000622 
L 348.834038 255.066932 
L 349.071614 255.147013 
L 349.926885 255.171003 
L 350.54458 255.192103 
L 350.893024 255.161039 
L 352.746111 255.42128 
L 353.933988 255.374358 
L 354.757582 255.400869 
L 355.486146 255.465993 
L 355.961297 255.299639 
L 356.167195 255.310981 
L 356.832406 255.367767 
L 357.671839 255.317933 
L 358.52711 255.408397 
L 358.796362 255.223109 
L 359.065614 255.179213 
L 359.810016 255.097307 
L 361.758134 254.8288 
L 362.074901 254.825469 
L 362.94601 254.940995 
L 363.246939 254.969218 
L 363.627059 254.902133 
L 364.545684 255.029598 
L 365.084188 255.154228 
L 366.287903 255.041124 
L 366.620508 255.056627 
L 366.98479 254.937721 
L 367.254042 254.877994 
L 371.229468 255.245764 
L 373.209262 255.34671 
L 373.446838 255.357548 
L 373.668575 255.296876 
L 374.048695 255.128534 
L 376.376933 255.341561 
L 377.168851 255.328465 
L 377.422264 255.292495 
L 377.691516 255.4376 
L 378.055798 255.518092 
L 379.497088 255.411465 
L 379.940562 255.322685 
L 380.146461 255.283603 
L 380.431551 255.230034 
L 380.985893 255.233556 
L 382.965687 255.31375 
L 383.282455 255.31983 
L 383.71009 255.404463 
L 384.137726 255.502809 
L 384.755421 255.411763 
L 385.167218 255.47154 
L 386.21255 255.397084 
L 386.640185 255.350162 
L 387.226204 255.215091 
L 387.511295 255.263597 
L 388.778363 255.367739 
L 389.221837 255.335766 
L 390.061269 255.13016 
L 390.53642 255.158944 
L 391.027409 255.20414 
L 391.439206 255.234501 
L 392.07274 255.16851 
L 392.547891 255.191889 
L 392.864658 255.167353 
L 396.079843 255.173794 
L 396.364934 255.157048 
L 396.665862 255.10808 
L 397.093498 255.148185 
L 397.521133 255.11673 
L 398.043799 255.364372 
L 398.455596 255.147361 
L 398.487273 255.09338 
L 398.487273 255.09338 
" clip-path="url(#p8401b89fb2)" style="fill: none; stroke: #ff7f0e; stroke-width: 1.5; stroke-linecap: square"/>
   </g>
   <g id="line2d_14">
    <path d="M 73.832727 256.320113 
L 75.860036 256.340893 
L 76.604439 256.275194 
L 76.905368 256.245799 
L 77.823992 256.043062 
L 78.283304 256.200141 
L 78.52088 256.212087 
L 79.312797 256.160499 
L 79.629564 256.118818 
L 80.263098 255.980637 
L 80.975824 256.22732 
L 81.514328 256.346965 
L 83.145678 256.173097 
L 83.399092 256.11597 
L 83.858404 256.053587 
L 84.729514 256.180902 
L 85.093796 256.13822 
L 85.505593 256.132894 
L 85.869875 256.264193 
L 86.154965 256.318671 
L 88.815809 256.300178 
L 89.180091 256.249158 
L 90.0512 256.114621 
L 90.621381 255.925221 
L 92.015156 255.960986 
L 92.363599 256.09796 
L 92.617013 256.060469 
L 92.902103 255.92792 
L 95.230341 256.190284 
L 96.243996 255.919419 
L 98.03373 255.862164 
L 98.207951 255.800491 
L 98.429688 255.746943 
L 99.696757 255.813296 
L 100.472836 255.960027 
L 100.789603 255.984905 
L 101.10637 256.071321 
L 101.29643 256.070064 
L 101.708227 255.95534 
L 102.3576 255.96122 
L 103.244547 255.799845 
L 103.545476 255.716185 
L 103.909758 255.869805 
L 104.337394 255.990331 
L 107.029914 256.372717 
L 107.885185 256.543403 
L 108.455365 256.322933 
L 108.740456 256.274682 
L 109.84914 256.212307 
L 110.181746 256.147786 
L 111.021178 256.165328 
L 111.448814 256.134023 
L 111.987318 256.348109 
L 112.193217 256.400314 
L 112.605014 256.582087 
L 113.476123 256.433572 
L 114.299717 256.592896 
L 114.711515 256.693202 
L 115.059958 256.725417 
L 115.883553 256.565774 
L 116.754662 256.392083 
L 117.150621 256.424674 
L 118.449366 256.492653 
L 118.686941 256.443693 
L 119.035385 256.45698 
L 119.36799 256.473634 
L 120.033201 256.492696 
L 120.460836 256.422884 
L 120.90431 256.514065 
L 121.395299 256.411351 
L 122.092187 256.380685 
L 122.931619 256.497994 
L 125.275696 256.538744 
L 125.624139 256.615607 
L 125.877553 256.585417 
L 127.35052 256.597718 
L 127.714802 256.719018 
L 128.126599 256.750096 
L 128.633426 256.623789 
L 128.823486 256.693827 
L 129.045223 256.688139 
L 129.472859 256.632929 
L 129.694596 256.658766 
L 130.201423 256.615331 
L 130.534029 256.633533 
L 132.482146 256.573934 
L 132.767236 256.595026 
L 133.226548 256.733988 
L 133.416609 256.723897 
L 133.701699 256.705872 
L 133.923436 256.801066 
L 134.287718 256.909454 
L 134.572808 256.885379 
L 135.095474 256.844976 
L 136.09329 256.747226 
L 136.9644 256.672522 
L 137.281167 256.695113 
L 137.740479 256.735111 
L 137.978054 256.720182 
L 140.448837 256.783098 
L 140.813119 256.905229 
L 141.3833 256.911457 
L 142.064349 256.869137 
L 142.365278 256.834799 
L 142.91962 256.767161 
L 143.315579 256.738456 
L 144.36091 256.683558 
L 144.693515 256.712818 
L 145.026121 256.665278 
L 145.342888 256.606936 
L 145.738847 256.578983 
L 147.892863 256.820915 
L 148.336336 256.755031 
L 148.77981 256.858193 
L 149.064901 256.835474 
L 150.284454 256.478826 
L 151.060533 256.562159 
L 151.614875 256.594579 
L 152.5335 256.488299 
L 153.00865 256.582257 
L 153.848083 256.742951 
L 154.339072 256.825347 
L 154.766708 256.711809 
L 155.400242 256.553267 
L 156.160483 256.585226 
L 156.778178 256.497255 
L 157.791833 256.476944 
L 158.029408 256.524228 
L 158.536235 256.476517 
L 158.757972 256.475097 
L 159.233123 256.366808 
L 159.64492 256.419781 
L 159.961687 256.427777 
L 160.563544 256.559837 
L 160.927827 256.587576 
L 163.034327 256.290988 
L 163.271903 256.256331 
L 164.111335 256.232213 
L 164.507294 256.354791 
L 165.061637 256.314701 
L 166.708825 256.32245 
L 167.516581 256.525385 
L 167.81751 256.419859 
L 168.086762 256.344728 
L 169.290477 256.147609 
L 170.89015 256.060298 
L 171.206917 256.182699 
L 171.967158 256.232114 
L 172.410632 256.238243 
L 172.949136 256.213912 
L 173.29758 256.218457 
L 174.754708 256.315277 
L 175.21402 256.316768 
L 177.193814 256.238868 
L 177.843187 256.389299 
L 178.207469 256.298183 
L 178.77765 256.361986 
L 178.983548 256.346497 
L 179.221123 256.359017 
L 179.553729 256.379811 
L 179.743789 256.453806 
L 180.028879 256.545029 
L 180.266455 256.567663 
L 180.614898 256.652864 
L 181.105887 256.546677 
L 181.501846 256.525861 
L 182.087865 256.463798 
L 182.388794 256.532537 
L 182.642208 256.485373 
L 182.91146 256.481546 
L 183.244065 256.442954 
L 183.592509 256.414426 
L 184.590325 256.430739 
L 185.112991 256.480963 
L 185.493111 256.489805 
L 185.746525 256.481034 
L 186.015777 256.417402 
L 186.380059 256.380791 
L 187.599612 256.581021 
L 188.787488 256.464636 
L 189.230962 256.410918 
L 189.658598 256.408368 
L 191.400816 256.467171 
L 192.240249 256.440461 
L 193.871599 256.605452 
L 194.077498 256.620941 
L 194.267558 256.590765 
L 194.600164 256.532296 
L 194.996122 256.527601 
L 195.328728 256.508298 
L 196.326544 256.433707 
L 196.690826 256.311264 
L 196.928401 256.310334 
L 197.736157 256.423161 
L 198.448883 256.401522 
L 199.842658 256.489159 
L 200.143587 256.631665 
L 201.299787 256.640876 
L 201.569039 256.583557 
L 202.012512 256.509882 
L 202.234249 256.489166 
L 202.788592 256.411578 
L 203.073682 256.517992 
L 203.327096 256.50288 
L 204.974284 256.558508 
L 205.227698 256.589409 
L 207.619289 256.561491 
L 208.046925 256.45203 
L 209.551568 256.329736 
L 209.963365 256.321058 
L 210.375162 256.360132 
L 212.465825 256.460943 
L 213.036006 256.487795 
L 213.447803 256.520776 
L 214.223882 256.430057 
L 214.508972 256.425583 
L 214.92077 256.430213 
L 215.39592 256.348535 
L 216.615473 256.350197 
L 217.138139 256.249165 
L 217.676643 256.306201 
L 219.894012 256.444112 
L 220.163264 256.520286 
L 220.891828 256.334367 
L 221.620393 256.38006 
L 221.889645 256.328067 
L 222.190573 256.204353 
L 222.649885 256.165165 
L 223.394288 256.28236 
L 224.107014 256.32811 
L 224.645518 256.237937 
L 224.835578 256.23161 
L 225.120668 256.252638 
L 227.844865 256.367973 
L 228.890196 256.270208 
L 229.492054 256.322869 
L 229.967204 256.315106 
L 230.315648 256.401571 
L 230.537385 256.440021 
L 231.250111 256.324545 
L 231.725261 256.417366 
L 231.978675 256.395925 
L 232.517179 256.454132 
L 233.974307 256.449964 
L 234.417781 256.473073 
L 234.750387 256.435085 
L 235.431436 256.295654 
L 236.666827 256.280286 
L 236.951918 256.372496 
L 237.237008 256.349351 
L 237.569613 256.315646 
L 238.139794 256.304113 
L 238.56743 256.354003 
L 238.836682 256.317642 
L 239.04258 256.337257 
L 240.056235 256.516004 
L 241.101566 256.33948 
L 241.497525 256.340062 
L 241.814292 256.203089 
L 242.178574 256.217122 
L 242.495341 256.200326 
L 242.764593 256.151998 
L 243.572349 256.285555 
L 244.300913 256.3682 
L 244.855255 256.376644 
L 245.520466 256.388099 
L 245.979778 256.511721 
L 246.708343 256.6367 
L 247.262685 256.555852 
L 247.642805 256.580141 
L 248.086279 256.422834 
L 249.004904 256.350914 
L 249.685953 256.249684 
L 250.176942 256.335901 
L 251.586555 256.286841 
L 252.014191 256.204331 
L 252.489341 256.265571 
L 253.502996 256.362454 
L 253.803924 256.293914 
L 254.009823 256.289405 
L 254.469135 256.197876 
L 255.023478 256.221802 
L 255.546143 256.062536 
L 255.831234 256.088727 
L 256.464768 256.095495 
L 258.143633 256.202662 
L 258.761329 256.161635 
L 260.978698 256.299994 
L 261.422172 256.229863 
L 261.865646 256.260834 
L 262.49918 256.282303 
L 262.910977 256.392872 
L 265.334245 256.373008 
L 266.300384 256.538914 
L 267.028949 256.515407 
L 268.406885 256.298197 
L 268.612784 256.284952 
L 269.024581 256.336412 
L 269.452217 256.378462 
L 269.70563 256.334672 
L 270.038236 256.319282 
L 270.275811 256.345829 
L 270.7668 256.33583 
L 271.352819 256.350637 
L 272.11306 256.381232 
L 272.699079 256.491715 
L 273.158391 256.418161 
L 273.380128 256.439858 
L 273.855278 256.384747 
L 274.092854 256.352434 
L 275.011478 256.236311 
L 276.231031 256.174085 
L 276.547798 256.24288 
L 277.070464 256.279696 
L 278.828521 256.270173 
L 279.303672 256.347185 
L 279.905529 256.333337 
L 280.190619 256.28329 
L 280.47571 256.312045 
L 280.713285 256.30581 
L 281.362657 256.287643 
L 281.663586 256.229429 
L 282.819786 256.228861 
L 283.389967 256.320504 
L 283.960147 256.350545 
L 284.530328 256.3421 
L 285.052994 256.364521 
L 285.639013 256.40329 
L 285.987456 256.39334 
L 286.811051 256.267801 
L 287.001111 256.2581 
L 287.207009 256.253256 
L 287.666322 256.125728 
L 288.315694 256.165257 
L 288.632461 256.136942 
L 289.487732 255.970985 
L 290.247973 256.108889 
L 290.770639 256.124194 
L 290.960699 256.095978 
L 291.420011 255.899477 
L 291.895162 255.952691 
L 292.164414 256.014307 
L 292.528696 256.037736 
L 293.54235 255.956689 
L 293.795764 255.88087 
L 294.033339 255.918339 
L 294.460975 255.896373 
L 295.142024 255.759861 
L 295.648851 255.736517 
L 296.124002 255.78366 
L 296.646667 255.874244 
L 297.264363 255.935774 
L 297.691999 255.877326 
L 298.959067 256.156202 
L 299.592601 256.03405 
L 299.861853 256.036649 
L 300.08359 255.96328 
L 300.574579 255.891033 
L 302.047546 255.905591 
L 302.253444 255.905506 
L 302.538534 255.860338 
L 303.457159 256.042373 
L 303.773926 256.117028 
L 304.2174 256.068601 
L 304.550005 256.045093 
L 305.690367 256.299539 
L 306.244709 256.411919 
L 306.656506 256.374556 
L 307.036627 256.317528 
L 307.559292 256.391274 
L 308.034443 256.363932 
L 308.604623 256.349067 
L 309.032259 256.294447 
L 309.681631 256.296116 
L 310.378519 256.348556 
L 310.726963 256.294049 
L 311.075406 256.324133 
L 311.740617 256.328749 
L 312.025708 256.397836 
L 312.690918 256.469238 
L 313.245261 256.400748 
L 313.73625 256.43375 
L 314.49649 256.317201 
L 315.193378 256.290406 
L 315.430953 256.348158 
L 315.858589 256.301471 
L 317.268202 256.384243 
L 317.521616 256.449339 
L 318.757007 256.669994 
L 318.978744 256.621076 
L 319.232158 256.641714 
L 319.517248 256.584423 
L 320.261651 256.376211 
L 321.655426 256.34617 
L 322.083061 256.344806 
L 325.3616 256.687145 
L 325.678367 256.749421 
L 325.884266 256.646167 
L 326.137679 256.597732 
L 329.21032 256.749137 
L 329.637955 256.82017 
L 330.271489 256.81681 
L 330.619933 256.835403 
L 330.952539 256.926769 
L 331.443527 256.999314 
L 331.760294 257.021792 
L 332.346314 257.036642 
L 332.837302 256.929901 
L 333.613382 257.010919 
L 334.199401 256.868938 
L 334.436976 256.764562 
L 335.545661 256.736716 
L 335.814913 256.694871 
L 336.670184 256.751296 
L 337.47794 256.77976 
L 338.269857 256.998043 
L 338.491594 257.040619 
L 338.729169 257.068486 
L 339.125128 257.096418 
L 339.616117 257.001629 
L 340.376358 256.923104 
L 341.61175 256.837022 
L 342.007708 256.700958 
L 342.593727 256.734898 
L 343.163908 256.772282 
L 343.829119 256.734812 
L 344.446815 256.704217 
L 345.048672 256.789972 
L 345.254571 256.764342 
L 345.666368 256.7543 
L 346.141518 256.79162 
L 347.28188 256.644945 
L 347.630323 256.577336 
L 347.947091 256.556335 
L 348.786523 256.648965 
L 349.00826 256.678495 
L 349.420057 256.598442 
L 350.845509 256.467036 
L 351.288983 256.562834 
L 351.716618 256.587655 
L 353.838958 256.401351 
L 354.456653 256.279732 
L 354.694229 256.247752 
L 354.995157 256.249109 
L 355.470308 256.361964 
L 356.373094 256.508249 
L 356.658184 256.414689 
L 356.974951 256.39197 
L 357.719354 256.453046 
L 358.178666 256.462775 
L 358.685493 256.613406 
L 359.461573 256.54613 
L 360.047592 256.486538 
L 360.570257 256.533375 
L 361.251306 256.53802 
L 361.552235 256.534675 
L 361.916517 256.560859 
L 362.122416 256.58274 
L 362.455021 256.57921 
L 363.706251 256.632496 
L 363.975503 256.661329 
L 364.704067 256.736474 
L 364.941643 256.718656 
L 365.195056 256.798765 
L 365.5435 256.757588 
L 365.765237 256.69463 
L 366.129519 256.778695 
L 366.446286 256.787089 
L 366.953113 256.853811 
L 367.238204 256.740139 
L 367.523294 256.669106 
L 367.903414 256.667863 
L 368.299373 256.646856 
L 369.075453 256.764946 
L 369.756502 256.750394 
L 370.136622 256.635038 
L 370.976055 256.63746 
L 371.752134 256.832591 
L 374.713906 256.565845 
L 374.951481 256.586291 
L 375.394955 256.528382 
L 376.6937 256.564659 
L 376.947114 256.544738 
L 378.214182 256.629747 
L 378.736847 256.674212 
L 379.148645 256.568991 
L 380.54242 256.553282 
L 380.970055 256.552529 
L 381.967871 256.604316 
L 382.189608 256.615913 
L 384.264432 256.608662 
L 384.454493 256.691399 
L 384.739583 256.798843 
L 385.214733 256.845417 
L 385.452309 256.903631 
L 385.610692 256.836475 
L 385.879944 256.730601 
L 388.144829 256.599401 
L 393.719929 256.35151 
L 394.337624 256.217605 
L 394.812775 256.211078 
L 395.335441 256.313196 
L 397.141013 256.184269 
L 398.328889 256.480175 
L 398.487273 256.473876 
L 398.487273 256.473876 
" clip-path="url(#p8401b89fb2)" style="fill: none; stroke: #2ca02c; stroke-width: 1.5; stroke-linecap: square"/>
   </g>
   <g id="line2d_15">
    <path d="M 73.832727 257.640286 
L 74.323716 257.641692 
L 74.624645 257.596084 
L 75.400724 257.590076 
L 75.717491 257.622034 
L 76.810338 257.583158 
L 77.111266 257.563245 
L 77.380518 257.4806 
L 77.586417 257.543835 
L 77.823992 257.583847 
L 78.267466 257.591091 
L 78.790132 257.569842 
L 79.027707 257.573798 
L 79.423666 257.683714 
L 81.197561 257.576973 
L 81.435136 257.519739 
L 81.561843 257.254037 
L 81.672712 256.358449 
L 82.306246 249.315039 
L 82.923941 245.833229 
L 83.652506 242.65317 
L 85.093796 236.897513 
L 86.424217 232.153581 
L 87.327003 228.704695 
L 88.41985 224.566161 
L 89.211767 220.21825 
L 89.306797 218.044327 
L 89.401828 208.391905 
L 89.528534 161.059105 
L 89.781948 53.568 
L 89.813625 54.807268 
L 89.940332 79.176296 
L 90.558027 213.673498 
L 90.811441 223.777506 
L 91.096531 227.327033 
L 91.334107 228.271588 
L 91.524167 228.298888 
L 91.825095 228.204426 
L 92.205216 227.812431 
L 92.601175 227.774507 
L 92.854588 227.741121 
L 93.884081 228.209376 
L 94.802706 228.174797 
L 95.166988 227.932602 
L 95.467917 228.061174 
L 95.832199 228.175535 
L 96.339026 228.255239 
L 96.639955 228.346498 
L 96.845853 228.386397 
L 97.479387 228.304384 
L 98.382173 228.265701 
L 98.746455 228.190037 
L 98.999869 228.17072 
L 99.284959 228.063461 
L 99.585888 227.815861 
L 99.981847 227.540486 
L 100.472836 227.318155 
L 100.884633 227.123927 
L 101.264753 226.904614 
L 101.549844 226.793022 
L 101.993318 226.492272 
L 102.325923 226.29298 
L 102.785235 226.148734 
L 106.728985 224.705784 
L 107.014075 224.343866 
L 107.330842 224.048549 
L 107.536741 223.892067 
L 107.964376 223.498254 
L 108.154437 223.443939 
L 108.471204 223.270199 
L 108.787971 223.114618 
L 109.009708 223.056227 
L 109.326475 223.081098 
L 110.355968 222.513133 
L 111.258754 221.417422 
L 112.018995 221.035604 
L 112.668367 220.255656 
L 112.874266 220.107234 
L 113.048488 219.996623 
L 113.301901 219.847782 
L 113.491961 219.707747 
L 115.788523 217.244629 
L 116.231996 216.615908 
L 117.008076 215.818141 
L 117.277328 215.758137 
L 117.784155 215.516553 
L 118.005892 215.455747 
L 118.750294 215.144635 
L 119.146253 215.311068 
L 119.858979 214.84591 
L 120.096554 214.665394 
L 120.540028 214.192503 
L 120.71425 213.906823 
L 120.983502 213.664827 
L 121.442814 213.485128 
L 121.617036 213.428377 
L 122.092187 212.976528 
L 122.757398 213.229873 
L 123.12168 212.912434 
L 123.454285 212.709605 
L 124.531293 211.315601 
L 124.832222 210.743638 
L 125.402402 210.578513 
L 125.877553 210.014362 
L 126.067613 209.930901 
L 126.28935 209.862282 
L 126.416057 209.78071 
L 127.239651 208.248433 
L 127.477227 208.134761 
L 127.889024 207.45926 
L 128.205791 207.239315 
L 128.475043 205.935583 
L 128.807648 203.812544 
L 128.902678 201.014495 
L 128.997708 190.41706 
L 129.140254 139.672316 
L 129.393667 57.996844 
L 129.409505 58.410662 
L 129.504536 69.543766 
L 129.884656 157.376032 
L 130.201423 201.767782 
L 130.470675 213.324577 
L 130.755765 217.608308 
L 131.104209 219.382354 
L 131.911965 222.347375 
L 132.608853 223.848312 
L 132.941458 224.345947 
L 133.574992 225.283393 
L 133.875921 225.671325 
L 134.36691 226.247947 
L 135.649816 227.684171 
L 135.855715 227.875858 
L 136.029937 228.023328 
L 136.394219 228.330306 
L 136.853531 228.428745 
L 137.661287 228.71951 
L 138.769972 229.102222 
L 138.991709 229.094282 
L 139.229284 228.981711 
L 139.688596 228.719652 
L 139.878656 228.801252 
L 140.258777 228.917787 
L 140.718089 228.86318 
L 141.85845 228.431089 
L 142.396954 228.441742 
L 143.442286 228.222777 
L 143.695699 228.102429 
L 143.996628 227.967841 
L 144.519294 227.635822 
L 144.820222 227.48272 
L 144.994444 227.526198 
L 145.485433 227.706791 
L 145.723008 227.560606 
L 146.103129 227.252286 
L 146.704986 226.965818 
L 147.544419 226.297646 
L 148.051246 226.185103 
L 148.383852 226.047305 
L 148.843164 225.803519 
L 149.191608 225.462211 
L 149.397506 225.372834 
L 149.856818 225.151036 
L 150.949665 224.725414 
L 151.440654 224.654225 
L 151.915804 224.508665 
L 152.074188 224.406803 
L 152.81859 223.692874 
L 153.214549 223.556468 
L 153.467963 223.442078 
L 153.673861 223.379802 
L 153.863921 223.38145 
L 154.386587 222.933088 
L 154.735031 222.632913 
L 155.146828 222.248581 
L 155.400242 222.124306 
L 155.812039 222.026534 
L 156.049614 221.893566 
L 156.287189 221.792265 
L 156.794017 221.576354 
L 156.984077 221.503376 
L 157.997731 220.580751 
L 159.074739 220.376374 
L 159.35983 220.117297 
L 159.977525 219.495593 
L 160.626898 219.342484 
L 160.816958 219.294752 
L 161.212917 219.072336 
L 161.387139 218.985196 
L 161.830613 218.681215 
L 162.416632 218.407687 
L 163.145196 217.688346 
L 163.49364 217.726391 
L 163.667862 217.662438 
L 164.000467 217.097755 
L 164.269719 216.888591 
L 164.602324 217.020096 
L 164.808223 216.795258 
L 164.998283 216.714858 
L 165.473434 216.817089 
L 165.758524 216.695541 
L 165.964423 216.663611 
L 166.233675 216.328843 
L 166.47125 216.161786 
L 166.835532 216.123045 
L 167.215652 216.082309 
L 167.801671 215.554463 
L 168.00757 215.570818 
L 168.213469 215.309605 
L 168.466882 215.039024 
L 168.847003 215.086336 
L 169.084578 215.214134 
L 169.274638 215.322843 
L 169.528052 215.423284 
L 170.129909 215.084958 
L 170.399161 214.698858 
L 170.747605 214.016398 
L 171.016857 213.878494 
L 171.365301 213.970044 
L 171.571199 213.916744 
L 171.745421 213.883351 
L 171.919643 213.893763 
L 172.078027 213.846436 
L 172.584854 213.453411 
L 173.155035 213.192446 
L 173.725215 213.254787 
L 173.946952 213.284977 
L 174.247881 213.106294 
L 174.92893 212.502749 
L 175.926746 212.494113 
L 176.338543 212.940167 
L 176.782017 213.055011 
L 177.209653 213.144821 
L 177.90654 212.952041 
L 178.429206 212.429571 
L 178.650943 212.477793 
L 179.06274 212.572588 
L 179.268639 212.610093 
L 180.646575 213.23515 
L 181.216756 213.186197 
L 181.438493 213.198824 
L 181.897805 213.023188 
L 182.452147 213.151667 
L 182.879783 213.288634 
L 183.6717 212.896426 
L 183.988468 212.794642 
L 184.194366 212.794998 
L 184.622002 212.579286 
L 184.954607 212.913876 
L 185.176344 213.002464 
L 185.382243 212.969817 
L 185.651495 213.069307 
L 186.063292 212.992976 
L 186.285029 213.013302 
L 186.617634 213.210975 
L 186.950239 213.171212 
L 187.346198 213.049678 
L 188.233146 212.872784 
L 188.470721 212.772137 
L 188.739973 212.756555 
L 188.945872 212.873012 
L 189.294316 213.096727 
L 190.070395 212.94903 
L 190.292132 212.817496 
L 190.656414 212.608758 
L 191.400816 212.841586 
L 191.701745 213.01975 
L 191.986835 213.124616 
L 192.176896 213.136633 
L 194.425942 212.066467 
L 195.233698 212.071843 
L 195.518788 212.158621 
L 195.962262 212.421816 
L 196.975916 212.220087 
L 197.261007 212.419387 
L 197.276845 212.405077 
L 197.847026 211.933953 
L 198.068763 211.922264 
L 198.38553 211.824805 
L 198.686458 211.582517 
L 198.86068 211.52686 
L 199.145771 211.583988 
L 199.399184 211.56879 
L 199.890173 211.858553 
L 200.080233 211.771874 
L 200.397001 211.499724 
L 200.666252 211.401285 
L 200.856313 211.146733 
L 201.283948 210.498879 
L 202.202573 210.953157 
L 202.598531 211.102069 
L 202.883622 211.222091 
L 203.137035 210.918592 
L 203.374611 210.803464 
L 203.532994 210.903004 
L 203.754731 211.009788 
L 204.784224 210.38574 
L 205.338566 210.545979 
L 205.813717 210.257224 
L 207.001593 210.570637 
L 207.524259 210.331048 
L 207.825188 210.218505 
L 208.791327 209.276002 
L 209.108094 209.313436 
L 209.377346 209.290263 
L 209.646598 209.163551 
L 209.852497 209.128404 
L 210.137587 208.787578 
L 210.264294 208.752552 
L 210.280132 208.767054 
L 210.69193 209.06073 
L 211.103727 209.289226 
L 211.594716 209.183671 
L 211.784776 209.239598 
L 212.022351 209.210807 
L 212.22825 209.13003 
L 212.402472 209.204373 
L 212.909299 209.407834 
L 213.115197 209.382828 
L 213.384449 209.342433 
L 214.493134 208.416897 
L 214.714871 208.231481 
L 214.730709 208.243732 
L 215.285052 208.662855 
L 215.459274 208.83281 
L 215.966101 209.534744 
L 216.377898 209.811177 
L 216.55212 210.017763 
L 216.74218 210.128915 
L 216.963917 210.084798 
L 217.201492 210.193499 
L 217.502421 210.141684 
L 218.389369 210.338214 
L 218.595267 210.266812 
L 219.71979 210.711751 
L 220.622576 210.39184 
L 221.06605 210.518211 
L 221.303626 210.388715 
L 221.541201 210.39804 
L 222.063866 210.420652 
L 222.364795 210.592837 
L 222.539017 210.464428 
L 222.713239 210.427861 
L 222.903299 210.399894 
L 223.077521 210.404417 
L 223.552672 210.668344 
L 223.711055 210.711289 
L 223.932792 210.734157 
L 224.170367 210.769233 
L 224.962285 211.541518 
L 224.993962 211.508665 
L 225.326567 211.265611 
L 225.484951 211.443569 
L 225.817556 211.846664 
L 226.197676 211.886058 
L 226.498605 212.102864 
L 227.068786 212.197056 
L 227.464745 212.680487 
L 227.89238 212.843844 
L 228.668459 213.425082 
L 229.127772 213.719653 
L 229.349509 213.652583 
L 229.729629 213.746861 
L 230.236456 214.083176 
L 230.822475 214.179101 
L 231.471848 214.350079 
L 232.137059 214.140858 
L 232.612209 214.180195 
L 232.786431 214.28472 
L 232.976491 214.302958 
L 233.641702 214.000823 
L 234.085176 214.367564 
L 234.338589 214.413115 
L 234.734548 214.372989 
L 235.035477 214.324249 
L 235.399759 214.468495 
L 235.87491 214.432681 
L 236.207515 214.318049 
L 236.856888 214.054023 
L 237.157816 214.059747 
L 237.395391 214.107621 
L 237.712159 214.159713 
L 238.028926 214.061274 
L 238.409046 214.119687 
L 238.614945 214.136036 
L 238.868358 214.19094 
L 239.264317 214.227948 
L 239.438539 214.211003 
L 240.436355 213.366321 
L 241.323303 213.407533 
L 241.560878 213.447297 
L 241.798453 213.421034 
L 242.067705 213.391235 
L 242.289442 213.419869 
L 242.653724 213.702467 
L 242.954653 213.771014 
L 243.699056 214.082559 
L 244.791902 213.697907 
L 245.156184 213.264999 
L 245.536305 213.199349 
L 245.710526 213.159323 
L 246.328222 212.908052 
L 246.629151 212.919529 
L 247.135978 212.562916 
L 247.373553 212.337666 
L 247.642805 212.237856 
L 247.927896 212.331501 
L 248.133794 212.376279 
L 248.27634 212.462481 
L 248.529753 212.649892 
L 249.020742 212.671574 
L 249.242479 212.748864 
L 250.208618 212.523323 
L 250.715446 212.675452 
L 251.903322 212.544778 
L 252.346796 212.299579 
L 252.79027 212.137415 
L 253.233744 211.574528 
L 253.471319 211.389752 
L 254.120692 210.713221 
L 254.13653 210.726885 
L 254.358267 210.780582 
L 255.498628 210.05715 
L 255.720365 210.093796 
L 255.894587 210.117587 
L 256.243031 210.248489 
L 256.575636 210.002423 
L 256.987433 209.595998 
L 257.225009 209.548089 
L 257.478422 209.447619 
L 258.159471 209.478476 
L 258.634622 209.065389 
L 259.157288 209.350557 
L 259.505731 209.745691 
L 259.743307 209.807513 
L 259.870013 209.734783 
L 260.741123 208.70073 
L 260.96286 208.866189 
L 261.232112 208.938976 
L 261.992353 208.173743 
L 262.388311 208.311647 
L 262.990169 207.703983 
L 263.354451 207.514818 
L 264.051338 207.880954 
L 264.447297 207.837377 
L 264.716549 207.537586 
L 265.017478 207.194509 
L 265.350083 206.553154 
L 265.540144 206.43157 
L 265.841072 206.712555 
L 266.189516 207.037913 
L 266.63299 207.117184 
L 267.361554 206.928083 
L 267.805028 207.395805 
L 268.026765 207.37947 
L 268.16931 207.332435 
L 268.517754 206.704253 
L 268.723652 206.517886 
L 269.087934 206.55265 
L 269.499732 206.450539 
L 271.226112 209.022906 
L 271.542879 209.429999 
L 271.970515 210.029553 
L 272.413988 210.241231 
L 274.80558 210.790106 
L 274.979801 210.815864 
L 275.755881 211.061709 
L 276.072648 210.928265 
L 276.262708 211.128034 
L 277.022949 211.754049 
L 277.323878 211.760462 
L 277.799028 212.177306 
L 278.099957 212.033543 
L 278.321694 211.981948 
L 278.844359 212.358268 
L 279.03442 212.325351 
L 279.256157 212.380504 
L 279.541247 212.304756 
L 280.903345 212.91678 
L 281.061729 212.923719 
L 281.489364 213.28085 
L 281.679425 213.342558 
L 282.914816 214.223112 
L 283.279098 214.435933 
L 283.975986 214.973225 
L 284.308591 215.292759 
L 284.79958 215.391283 
L 285.417276 215.567544 
L 285.639013 215.524578 
L 285.971618 215.63171 
L 286.573475 215.475376 
L 286.795212 215.482052 
L 287.381231 215.39438 
L 288.046442 215.723814 
L 289.02842 215.161758 
L 289.598601 215.471918 
L 289.947044 215.47566 
L 290.311327 215.544641 
L 290.643932 215.709049 
L 290.913184 215.774415 
L 292.227767 215.579333 
L 292.671241 215.485028 
L 293.019685 215.592096 
L 293.273098 215.671118 
L 293.874956 215.431664 
L 294.080854 215.354645 
L 294.31843 215.250858 
L 294.524328 215.199725 
L 294.730227 215.166942 
L 294.951964 215.189256 
L 295.569659 214.882854 
L 296.456607 214.781212 
L 297.29604 215.164542 
L 297.470262 215.074895 
L 297.897897 214.809719 
L 298.357209 215.007697 
L 298.689815 214.738125 
L 299.244157 214.842011 
L 299.941045 214.320968 
L 300.146943 214.261575 
L 300.511225 214.17391 
L 300.812154 213.998352 
L 301.223951 214.131569 
L 301.778294 214.020574 
L 303.0612 215.113906 
L 303.314614 215.276716 
L 303.995663 215.666836 
L 304.233238 215.698155 
L 304.423298 215.660423 
L 304.740065 215.611903 
L 305.009317 215.495191 
L 305.231054 215.348665 
L 305.627013 215.524081 
L 306.387254 215.310315 
L 306.81489 215.514202 
L 307.179172 215.382399 
L 307.812706 215.048824 
L 308.176988 214.780395 
L 308.953067 214.616363 
L 309.412379 214.478324 
L 309.681631 214.470803 
L 310.030075 214.212828 
L 310.378519 214.122002 
L 310.837831 213.787618 
L 311.265467 213.461635 
L 312.136576 213.294394 
L 312.29496 213.295686 
L 312.896817 212.692844 
L 313.134392 212.526973 
L 313.720411 212.555437 
L 314.227238 212.165268 
L 314.40146 212.124724 
L 314.591521 212.087105 
L 314.860773 212.169004 
L 315.399277 212.135589 
L 315.731882 212.116471 
L 316.349578 212.058655 
L 316.587153 211.949002 
L 317.062304 211.905532 
L 317.252364 211.936467 
L 317.474101 211.615868 
L 317.775029 211.254092 
L 318.107635 211.276534 
L 318.566947 211.264205 
L 319.042098 211.126365 
L 319.137128 211.261655 
L 319.247996 212.119766 
L 320.055752 221.431483 
L 320.879346 226.527249 
L 321.544557 229.768761 
L 323.191746 236.181887 
L 325.060671 241.807381 
L 325.820912 243.491737 
L 328.608462 248.691971 
L 328.861876 249.113709 
L 329.321188 249.941701 
L 330.065591 251.259608 
L 330.635771 252.040053 
L 330.952539 252.352962 
L 331.728618 253.233756 
L 332.156253 253.538859 
L 333.296615 254.602278 
L 333.835119 255.050797 
L 334.373623 255.473592 
L 335.149702 255.948316 
L 337.525455 257.441668 
L 337.921414 257.567875 
L 338.539109 257.86805 
L 339.917046 258.151414 
L 340.17046 258.204834 
L 341.279144 258.878553 
L 342.27696 258.962128 
L 342.688758 258.998993 
L 343.702412 259.41941 
L 345.761398 259.486011 
L 346.173195 259.535909 
L 346.458285 259.609633 
L 346.980951 259.667016 
L 347.503617 259.768779 
L 347.788707 259.776207 
L 347.994606 259.782073 
L 348.390564 259.783842 
L 349.245835 259.764092 
L 349.451734 259.837127 
L 349.752663 259.951808 
L 350.132783 259.920375 
L 350.370358 259.838881 
L 350.54458 259.807186 
L 350.829671 259.909502 
L 351.384013 259.763857 
L 351.954194 259.628758 
L 353.42716 259.486813 
L 357.592647 259.610478 
L 357.909414 259.530412 
L 358.780524 259.320537 
L 359.065614 259.375769 
L 359.287351 259.320118 
L 359.635795 259.283984 
L 360.15846 259.345067 
L 360.443551 259.312363 
L 360.649449 259.334841 
L 360.966216 259.384745 
L 362.961849 259.455033 
L 363.373646 259.467319 
L 363.991341 259.340962 
L 364.276432 259.385775 
L 367.048143 259.375428 
L 367.380749 259.381152 
L 367.792546 259.356366 
L 368.030121 259.334741 
L 368.457757 259.267856 
L 369.629795 259.459564 
L 370.041592 259.522863 
L 371.799649 259.381102 
L 372.100578 259.364072 
L 372.686597 259.476019 
L 373.399323 259.413117 
L 373.668575 259.398118 
L 374.048695 259.468796 
L 375.379117 259.496479 
L 375.680045 259.513197 
L 376.329418 259.452767 
L 376.662023 259.48871 
L 377.042144 259.351566 
L 380.162299 259.373915 
L 380.63745 259.412904 
L 381.651104 259.363071 
L 382.316315 259.488255 
L 382.981526 259.614988 
L 383.250778 259.658473 
L 383.90015 259.507949 
L 384.660391 259.460643 
L 385.959136 259.434103 
L 387.8439 259.520782 
L 389.253513 259.488234 
L 389.617795 259.547691 
L 391.724296 259.387465 
L 392.278639 259.189231 
L 393.593222 259.259525 
L 394.163403 259.337291 
L 394.543523 259.302428 
L 395.129542 259.248169 
L 395.319602 259.249029 
L 395.588854 259.235642 
L 396.602509 259.416619 
L 396.840084 259.341225 
L 397.521133 259.304722 
L 398.487273 259.271755 
L 398.487273 259.271755 
" clip-path="url(#p8401b89fb2)" style="fill: none; stroke: #d62728; stroke-width: 1.5; stroke-linecap: square"/>
   </g>
   <g id="patch_3">
    <path d="M 57.6 307.584 
L 57.6 41.472 
" style="fill: none; stroke: #000000; stroke-width: 0.8; stroke-linejoin: miter; stroke-linecap: square"/>
   </g>
   <g id="patch_4">
    <path d="M 414.72 307.584 
L 414.72 41.472 
" style="fill: none; stroke: #000000; stroke-width: 0.8; stroke-linejoin: miter; stroke-linecap: square"/>
   </g>
   <g id="patch_5">
    <path d="M 57.6 307.584 
L 414.72 307.584 
" style="fill: none; stroke: #000000; stroke-width: 0.8; stroke-linejoin: miter; stroke-linecap: square"/>
   </g>
   <g id="patch_6">
    <path d="M 57.6 41.472 
L 414.72 41.472 
" style="fill: none; stroke: #000000; stroke-width: 0.8; stroke-linejoin: miter; stroke-linecap: square"/>
   </g>
  </g>
 </g>
 <defs>
  <clipPath id="p8401b89fb2">
   <rect x="57.6" y="41.472" width="357.12" height="266.112"/>
  </clipPath>
 </defs>
</svg>
