<?xml version="1.0" encoding="utf-8" standalone="no"?>
<!DOCTYPE svg PUBLIC "-//W3C//DTD SVG 1.1//EN"
  "http://www.w3.org/Graphics/SVG/1.1/DTD/svg11.dtd">
<svg xmlns:xlink="http://www.w3.org/1999/xlink" width="265.704687pt" height="197.398125pt" viewBox="0 0 265.704687 197.398125" xmlns="http://www.w3.org/2000/svg" version="1.1">
 <metadata>
  <rdf:RDF xmlns:dc="http://purl.org/dc/elements/1.1/" xmlns:cc="http://creativecommons.org/ns#" xmlns:rdf="http://www.w3.org/1999/02/22-rdf-syntax-ns#">
   <cc:Work>
    <dc:type rdf:resource="http://purl.org/dc/dcmitype/StillImage"/>
    <dc:date>2024-09-04T19:41:56.636821</dc:date>
    <dc:format>image/svg+xml</dc:format>
    <dc:creator>
     <cc:Agent>
      <dc:title>Matplotlib v3.9.2, https://matplotlib.org/</dc:title>
     </cc:Agent>
    </dc:creator>
   </cc:Work>
  </rdf:RDF>
 </metadata>
 <defs>
  <style type="text/css">*{stroke-linejoin: round; stroke-linecap: butt}</style>
 </defs>
 <g id="figure_1">
  <g id="patch_1">
   <path d="M 0 197.398125 
L 265.704687 197.398125 
L 265.704687 0 
L 0 0 
z
" style="fill: #ffffff"/>
  </g>
  <g id="axes_1">
   <g id="patch_2">
    <path d="M 35.304688 173.52 
L 258.504687 173.52 
L 258.504687 7.2 
L 35.304688 7.2 
z
" style="fill: #ffffff"/>
   </g>
   <g id="matplotlib.axis_1">
    <g id="xtick_1">
     <g id="line2d_1">
      <defs>
       <path id="m53967b8189" d="M 0 0 
L 0 3.5 
" style="stroke: #000000; stroke-width: 0.8"/>
      </defs>
      <g>
       <use xlink:href="#m53967b8189" x="75.147053" y="173.52" style="stroke: #000000; stroke-width: 0.8"/>
      </g>
     </g>
     <g id="text_1">
      <!-- 0.2 -->
      <g transform="translate(67.19549 188.118438) scale(0.1 -0.1)">
       <defs>
        <path id="DejaVuSans-30" d="M 2034 4250 
Q 1547 4250 1301 3770 
Q 1056 3291 1056 2328 
Q 1056 1369 1301 889 
Q 1547 409 2034 409 
Q 2525 409 2770 889 
Q 3016 1369 3016 2328 
Q 3016 3291 2770 3770 
Q 2525 4250 2034 4250 
z
M 2034 4750 
Q 2819 4750 3233 4129 
Q 3647 3509 3647 2328 
Q 3647 1150 3233 529 
Q 2819 -91 2034 -91 
Q 1250 -91 836 529 
Q 422 1150 422 2328 
Q 422 3509 836 4129 
Q 1250 4750 2034 4750 
z
" transform="scale(0.015625)"/>
        <path id="DejaVuSans-2e" d="M 684 794 
L 1344 794 
L 1344 0 
L 684 0 
L 684 794 
z
" transform="scale(0.015625)"/>
        <path id="DejaVuSans-32" d="M 1228 531 
L 3431 531 
L 3431 0 
L 469 0 
L 469 531 
Q 828 903 1448 1529 
Q 2069 2156 2228 2338 
Q 2531 2678 2651 2914 
Q 2772 3150 2772 3378 
Q 2772 3750 2511 3984 
Q 2250 4219 1831 4219 
Q 1534 4219 1204 4116 
Q 875 4013 500 3803 
L 500 4441 
Q 881 4594 1212 4672 
Q 1544 4750 1819 4750 
Q 2544 4750 2975 4387 
Q 3406 4025 3406 3419 
Q 3406 3131 3298 2873 
Q 3191 2616 2906 2266 
Q 2828 2175 2409 1742 
Q 1991 1309 1228 531 
z
" transform="scale(0.015625)"/>
       </defs>
       <use xlink:href="#DejaVuSans-30"/>
       <use xlink:href="#DejaVuSans-2e" x="63.623047"/>
       <use xlink:href="#DejaVuSans-32" x="95.410156"/>
      </g>
     </g>
    </g>
    <g id="xtick_2">
     <g id="line2d_2">
      <g>
       <use xlink:href="#m53967b8189" x="124.641904" y="173.52" style="stroke: #000000; stroke-width: 0.8"/>
      </g>
     </g>
     <g id="text_2">
      <!-- 0.4 -->
      <g transform="translate(116.690341 188.118438) scale(0.1 -0.1)">
       <defs>
        <path id="DejaVuSans-34" d="M 2419 4116 
L 825 1625 
L 2419 1625 
L 2419 4116 
z
M 2253 4666 
L 3047 4666 
L 3047 1625 
L 3713 1625 
L 3713 1100 
L 3047 1100 
L 3047 0 
L 2419 0 
L 2419 1100 
L 313 1100 
L 313 1709 
L 2253 4666 
z
" transform="scale(0.015625)"/>
       </defs>
       <use xlink:href="#DejaVuSans-30"/>
       <use xlink:href="#DejaVuSans-2e" x="63.623047"/>
       <use xlink:href="#DejaVuSans-34" x="95.410156"/>
      </g>
     </g>
    </g>
    <g id="xtick_3">
     <g id="line2d_3">
      <g>
       <use xlink:href="#m53967b8189" x="174.136754" y="173.52" style="stroke: #000000; stroke-width: 0.8"/>
      </g>
     </g>
     <g id="text_3">
      <!-- 0.6 -->
      <g transform="translate(166.185192 188.118438) scale(0.1 -0.1)">
       <defs>
        <path id="DejaVuSans-36" d="M 2113 2584 
Q 1688 2584 1439 2293 
Q 1191 2003 1191 1497 
Q 1191 994 1439 701 
Q 1688 409 2113 409 
Q 2538 409 2786 701 
Q 3034 994 3034 1497 
Q 3034 2003 2786 2293 
Q 2538 2584 2113 2584 
z
M 3366 4563 
L 3366 3988 
Q 3128 4100 2886 4159 
Q 2644 4219 2406 4219 
Q 1781 4219 1451 3797 
Q 1122 3375 1075 2522 
Q 1259 2794 1537 2939 
Q 1816 3084 2150 3084 
Q 2853 3084 3261 2657 
Q 3669 2231 3669 1497 
Q 3669 778 3244 343 
Q 2819 -91 2113 -91 
Q 1303 -91 875 529 
Q 447 1150 447 2328 
Q 447 3434 972 4092 
Q 1497 4750 2381 4750 
Q 2619 4750 2861 4703 
Q 3103 4656 3366 4563 
z
" transform="scale(0.015625)"/>
       </defs>
       <use xlink:href="#DejaVuSans-30"/>
       <use xlink:href="#DejaVuSans-2e" x="63.623047"/>
       <use xlink:href="#DejaVuSans-36" x="95.410156"/>
      </g>
     </g>
    </g>
    <g id="xtick_4">
     <g id="line2d_4">
      <g>
       <use xlink:href="#m53967b8189" x="223.631605" y="173.52" style="stroke: #000000; stroke-width: 0.8"/>
      </g>
     </g>
     <g id="text_4">
      <!-- 0.8 -->
      <g transform="translate(215.680043 188.118438) scale(0.1 -0.1)">
       <defs>
        <path id="DejaVuSans-38" d="M 2034 2216 
Q 1584 2216 1326 1975 
Q 1069 1734 1069 1313 
Q 1069 891 1326 650 
Q 1584 409 2034 409 
Q 2484 409 2743 651 
Q 3003 894 3003 1313 
Q 3003 1734 2745 1975 
Q 2488 2216 2034 2216 
z
M 1403 2484 
Q 997 2584 770 2862 
Q 544 3141 544 3541 
Q 544 4100 942 4425 
Q 1341 4750 2034 4750 
Q 2731 4750 3128 4425 
Q 3525 4100 3525 3541 
Q 3525 3141 3298 2862 
Q 3072 2584 2669 2484 
Q 3125 2378 3379 2068 
Q 3634 1759 3634 1313 
Q 3634 634 3220 271 
Q 2806 -91 2034 -91 
Q 1263 -91 848 271 
Q 434 634 434 1313 
Q 434 1759 690 2068 
Q 947 2378 1403 2484 
z
M 1172 3481 
Q 1172 3119 1398 2916 
Q 1625 2713 2034 2713 
Q 2441 2713 2670 2916 
Q 2900 3119 2900 3481 
Q 2900 3844 2670 4047 
Q 2441 4250 2034 4250 
Q 1625 4250 1398 4047 
Q 1172 3844 1172 3481 
z
" transform="scale(0.015625)"/>
       </defs>
       <use xlink:href="#DejaVuSans-30"/>
       <use xlink:href="#DejaVuSans-2e" x="63.623047"/>
       <use xlink:href="#DejaVuSans-38" x="95.410156"/>
      </g>
     </g>
    </g>
   </g>
   <g id="matplotlib.axis_2">
    <g id="ytick_1">
     <g id="line2d_5">
      <defs>
       <path id="meaceb641c6" d="M 0 0 
L -3.5 0 
" style="stroke: #000000; stroke-width: 0.8"/>
      </defs>
      <g>
       <use xlink:href="#meaceb641c6" x="35.304688" y="164.741048" style="stroke: #000000; stroke-width: 0.8"/>
      </g>
     </g>
     <g id="text_5">
      <!-- −80 -->
      <g transform="translate(7.2 168.540267) scale(0.1 -0.1)">
       <defs>
        <path id="DejaVuSans-2212" d="M 678 2272 
L 4684 2272 
L 4684 1741 
L 678 1741 
L 678 2272 
z
" transform="scale(0.015625)"/>
       </defs>
       <use xlink:href="#DejaVuSans-2212"/>
       <use xlink:href="#DejaVuSans-38" x="83.789062"/>
       <use xlink:href="#DejaVuSans-30" x="147.412109"/>
      </g>
     </g>
    </g>
    <g id="ytick_2">
     <g id="line2d_6">
      <g>
       <use xlink:href="#meaceb641c6" x="35.304688" y="142.170138" style="stroke: #000000; stroke-width: 0.8"/>
      </g>
     </g>
     <g id="text_6">
      <!-- −60 -->
      <g transform="translate(7.2 145.969357) scale(0.1 -0.1)">
       <use xlink:href="#DejaVuSans-2212"/>
       <use xlink:href="#DejaVuSans-36" x="83.789062"/>
       <use xlink:href="#DejaVuSans-30" x="147.412109"/>
      </g>
     </g>
    </g>
    <g id="ytick_3">
     <g id="line2d_7">
      <g>
       <use xlink:href="#meaceb641c6" x="35.304688" y="119.599229" style="stroke: #000000; stroke-width: 0.8"/>
      </g>
     </g>
     <g id="text_7">
      <!-- −40 -->
      <g transform="translate(7.2 123.398447) scale(0.1 -0.1)">
       <use xlink:href="#DejaVuSans-2212"/>
       <use xlink:href="#DejaVuSans-34" x="83.789062"/>
       <use xlink:href="#DejaVuSans-30" x="147.412109"/>
      </g>
     </g>
    </g>
    <g id="ytick_4">
     <g id="line2d_8">
      <g>
       <use xlink:href="#meaceb641c6" x="35.304688" y="97.028319" style="stroke: #000000; stroke-width: 0.8"/>
      </g>
     </g>
     <g id="text_8">
      <!-- −20 -->
      <g transform="translate(7.2 100.827538) scale(0.1 -0.1)">
       <use xlink:href="#DejaVuSans-2212"/>
       <use xlink:href="#DejaVuSans-32" x="83.789062"/>
       <use xlink:href="#DejaVuSans-30" x="147.412109"/>
      </g>
     </g>
    </g>
    <g id="ytick_5">
     <g id="line2d_9">
      <g>
       <use xlink:href="#meaceb641c6" x="35.304688" y="74.457409" style="stroke: #000000; stroke-width: 0.8"/>
      </g>
     </g>
     <g id="text_9">
      <!-- 0 -->
      <g transform="translate(21.942187 78.256628) scale(0.1 -0.1)">
       <use xlink:href="#DejaVuSans-30"/>
      </g>
     </g>
    </g>
    <g id="ytick_6">
     <g id="line2d_10">
      <g>
       <use xlink:href="#meaceb641c6" x="35.304688" y="51.886499" style="stroke: #000000; stroke-width: 0.8"/>
      </g>
     </g>
     <g id="text_10">
      <!-- 20 -->
      <g transform="translate(15.579687 55.685718) scale(0.1 -0.1)">
       <use xlink:href="#DejaVuSans-32"/>
       <use xlink:href="#DejaVuSans-30" x="63.623047"/>
      </g>
     </g>
    </g>
    <g id="ytick_7">
     <g id="line2d_11">
      <g>
       <use xlink:href="#meaceb641c6" x="35.304688" y="29.31559" style="stroke: #000000; stroke-width: 0.8"/>
      </g>
     </g>
     <g id="text_11">
      <!-- 40 -->
      <g transform="translate(15.579687 33.114808) scale(0.1 -0.1)">
       <use xlink:href="#DejaVuSans-34"/>
       <use xlink:href="#DejaVuSans-30" x="63.623047"/>
      </g>
     </g>
    </g>
   </g>
   <g id="line2d_12">
    <path d="M 45.450142 141.218967 
L 46.261858 141.301953 
L 46.776604 141.26628 
L 47.014179 141.22249 
L 48.400035 141.178611 
L 48.63761 141.241724 
L 50.033365 141.280495 
L 50.241244 141.380911 
L 50.310536 141.674496 
L 50.439223 143.857031 
L 50.706495 146.976824 
L 51.359827 151.002071 
L 51.953765 153.73591 
L 52.854572 157.03853 
L 54.30972 160.733877 
L 55.002648 162.015498 
L 55.289718 162.425664 
L 56.923048 164.178395 
L 57.566482 164.559435 
L 57.932743 164.778202 
L 58.200016 165.014089 
L 58.605873 165.232638 
L 58.774156 165.189142 
L 59.041428 165.249035 
L 59.724457 165.410996 
L 59.991729 165.480112 
L 60.239204 165.489765 
L 60.516375 165.468912 
L 61.031121 165.652331 
L 61.61516 165.763237 
L 61.922028 165.777531 
L 62.169503 165.753601 
L 62.634754 165.928898 
L 63.001016 165.887529 
L 63.218794 165.895071 
L 63.585055 165.812131 
L 64.139398 165.725837 
L 64.871922 165.809979 
L 65.099598 165.781231 
L 65.426264 165.734413 
L 65.94101 165.801074 
L 66.317171 165.811618 
L 66.71313 165.855342 
L 68.722621 165.58002 
L 69.177974 165.650549 
L 69.682821 165.60231 
L 69.97979 165.553147 
L 71.672514 165.446714 
L 71.860595 165.457115 
L 73.602813 165.405354 
L 75.701395 165.429687 
L 76.206242 165.328796 
L 76.938766 165.219866 
L 77.215937 165.301435 
L 78.839368 165.164943 
L 79.156136 165.2115 
L 79.601589 165.104563 
L 79.829266 165.079321 
L 81.076536 164.96316 
L 81.670474 164.933815 
L 82.304008 164.93067 
L 82.620775 164.961201 
L 85.887435 164.76131 
L 88.005815 164.822464 
L 88.352279 164.736077 
L 88.985813 164.725987 
L 89.866821 164.673065 
L 90.084599 164.708027 
L 90.252881 164.722564 
L 90.54985 164.712996 
L 90.827021 164.666363 
L 91.054698 164.644283 
L 92.460351 164.678337 
L 92.925603 164.553162 
L 93.123582 164.506942 
L 93.410653 164.446662 
L 94.192671 164.503149 
L 94.816306 164.503772 
L 96.103172 164.540163 
L 96.528828 164.462008 
L 96.835696 164.493261 
L 97.399938 164.407328 
L 100.023165 164.409952 
L 101.31993 164.339969 
L 103.210633 164.345023 
L 104.388611 164.343148 
L 106.140728 164.197499 
L 106.358506 164.232343 
L 107.803755 164.302468 
L 108.011634 164.312508 
L 109.951832 164.144266 
L 111.852434 164.073543 
L 112.119706 164.118704 
L 113.545158 164.010775 
L 114.050005 164.037724 
L 114.277682 164.074249 
L 114.881519 164.081893 
L 116.049597 164.193715 
L 116.633637 164.169953 
L 117.574039 164.072458 
L 118.71242 164.022631 
L 119.157874 164.036244 
L 119.514237 164.002863 
L 120.226963 164.085172 
L 121.078274 164.068792 
L 121.751404 164.074182 
L 123.325341 164.094135 
L 127.878867 164.097591 
L 128.057048 164.07578 
L 128.502502 164.147032 
L 128.878663 164.134899 
L 129.225127 164.051555 
L 129.571591 164.0295 
L 138.124301 163.928214 
L 138.371775 163.933519 
L 141.747324 163.851454 
L 142.697625 163.722033 
L 143.60833 163.774358 
L 144.905096 163.795093 
L 145.083277 163.81064 
L 145.370347 163.829097 
L 145.558428 163.814584 
L 145.845498 163.799382 
L 146.805698 163.652505 
L 147.528323 163.702249 
L 147.795595 163.764722 
L 148.745896 163.773106 
L 150.270337 163.807731 
L 150.616801 163.712624 
L 150.992962 163.718266 
L 151.369123 163.769507 
L 151.814577 163.777419 
L 152.378818 163.792672 
L 153.160837 163.873661 
L 153.368715 163.895615 
L 154.031946 163.834629 
L 154.388309 163.823505 
L 155.110934 163.744122 
L 155.793963 163.829357 
L 156.180023 163.883473 
L 156.467093 163.86505 
L 158.021231 163.851067 
L 158.664664 163.706074 
L 159.397188 163.719225 
L 159.842642 163.728365 
L 160.604862 163.667707 
L 160.931528 163.660602 
L 161.149306 163.663839 
L 161.426477 163.679067 
L 161.832335 163.677814 
L 162.515363 163.675678 
L 163.1291 163.513087 
L 163.930916 163.561981 
L 164.287279 163.653018 
L 164.742632 163.556818 
L 165.069298 163.599499 
L 165.267277 163.63193 
L 165.52465 163.711901 
L 165.861215 163.708446 
L 166.425457 163.681219 
L 166.78182 163.62992 
L 168.632927 163.599297 
L 169.345653 163.62723 
L 169.721814 163.676864 
L 170.078177 163.666084 
L 170.404843 163.65005 
L 170.939387 163.548082 
L 171.167063 163.498145 
L 171.850092 163.553976 
L 172.335142 163.553463 
L 174.611905 163.668044 
L 174.780188 163.686777 
L 174.958369 163.639052 
L 175.304833 163.565336 
L 176.10665 163.471415 
L 176.948062 163.518014 
L 177.809272 163.483952 
L 178.31412 163.542028 
L 178.482402 163.564209 
L 178.729877 163.558197 
L 178.927856 163.563848 
L 179.155532 163.525682 
L 179.432704 163.489585 
L 179.789066 163.518737 
L 180.13553 163.495841 
L 181.056135 163.536949 
L 181.620376 163.515113 
L 182.283607 163.554052 
L 182.867646 163.473248 
L 184.867238 163.465033 
L 185.184005 163.480563 
L 186.154104 163.519225 
L 186.431275 163.554699 
L 187.223193 163.427599 
L 187.500364 163.442205 
L 187.73794 163.42728 
L 188.401171 163.40842 
L 188.78723 163.453161 
L 189.103997 163.419578 
L 189.440562 163.42416 
L 189.74743 163.478428 
L 190.489853 163.504956 
L 190.796721 163.454027 
L 191.19268 163.474341 
L 191.588639 163.437294 
L 192.192476 163.385558 
L 192.647829 163.421604 
L 194.479138 163.554279 
L 194.756309 163.498372 
L 195.528429 163.465252 
L 195.775903 163.404291 
L 196.09267 163.416769 
L 196.439134 163.38502 
L 196.686609 163.362132 
L 197.310244 163.426405 
L 198.428827 163.518165 
L 198.745594 163.575039 
L 198.755493 163.548772 
L 198.834685 162.858592 
L 199.309836 156.920199 
L 199.982966 153.185342 
L 200.824378 150.152083 
L 201.507407 148.288152 
L 202.309224 146.619992 
L 202.82397 145.8192 
L 204.279119 143.820816 
L 206.644973 141.831042 
L 207.021133 141.712459 
L 207.347799 141.488928 
L 207.872445 141.239887 
L 208.347595 140.932142 
L 209.426583 140.5093 
L 209.74335 140.404297 
L 210.020521 140.343392 
L 210.61446 140.14823 
L 210.792641 140.166872 
L 211.050014 140.165892 
L 211.643953 139.891234 
L 212.326981 139.812528 
L 212.970415 139.588896 
L 213.712837 139.564916 
L 214.059301 139.502757 
L 214.94031 139.377423 
L 215.207582 139.378016 
L 217.286366 139.151336 
L 217.662526 139.135045 
L 218.088182 139.220961 
L 219.988784 139.225308 
L 220.216461 139.300798 
L 220.889591 139.23589 
L 221.542923 139.218266 
L 221.928983 139.291986 
L 222.156659 139.263385 
L 223.057465 139.179365 
L 224.522513 139.174375 
L 224.829381 139.150192 
L 227.343719 139.27287 
L 228.036647 139.303484 
L 229.669977 139.20295 
L 229.867957 139.251525 
L 230.254016 139.266534 
L 231.352802 139.310371 
L 231.936841 139.480673 
L 232.233811 139.442625 
L 232.520881 139.428882 
L 234.579866 139.604914 
L 234.916431 139.638333 
L 235.975621 139.731766 
L 236.242893 139.670894 
L 237.034811 139.600647 
L 237.252588 139.59532 
L 237.806931 139.569238 
L 239.618442 139.617548 
L 240.103492 139.657428 
L 242.093185 139.563583 
L 242.439649 139.65673 
L 243.00389 139.682494 
L 243.459243 139.681606 
L 243.67702 139.704183 
L 244.142272 139.744375 
L 245.369744 139.707626 
L 245.716208 139.657109 
L 245.973581 139.64223 
L 246.389338 139.701849 
L 247.745497 139.693185 
L 248.270142 139.812099 
L 248.359233 139.818149 
L 248.359233 139.818149 
" clip-path="url(#p85f7011e12)" style="fill: none; stroke: #000000; stroke-opacity: 0.5; stroke-width: 1.5; stroke-linecap: square"/>
   </g>
   <g id="line2d_13">
    <path d="M 45.450142 142.170393 
L 45.895596 142.22316 
L 46.192565 142.208874 
L 46.618221 142.205687 
L 46.905291 142.223988 
L 47.439835 142.134397 
L 48.033773 142.124396 
L 48.93458 142.206927 
L 49.429528 142.198599 
L 49.775992 142.163503 
L 50.043264 142.171621 
L 50.300637 142.218089 
L 50.409526 142.543088 
L 50.666899 143.159161 
L 51.359827 143.946361 
L 52.339825 144.934439 
L 52.755582 145.240186 
L 53.102046 145.533242 
L 53.399015 145.693605 
L 54.666083 146.4144 
L 55.131335 146.58751 
L 55.527294 146.714678 
L 55.873758 146.782592 
L 57.111129 147.242586 
L 57.408098 147.322389 
L 57.87335 147.47822 
L 58.209915 147.564893 
L 58.73456 147.665331 
L 59.160216 147.668332 
L 59.437387 147.685998 
L 59.764053 147.635044 
L 60.526274 147.731008 
L 61.060818 147.869131 
L 61.347888 147.865499 
L 62.011119 147.940148 
L 62.218998 148.00295 
L 62.466472 148.068123 
L 62.87233 148.09598 
L 63.614752 148.069535 
L 64.683841 148.077961 
L 65.099598 148.157688 
L 65.406466 148.12128 
L 65.881617 148.205859 
L 66.168687 148.117757 
L 66.356767 148.204388 
L 66.673534 148.306633 
L 67.109089 148.263002 
L 67.48525 148.290321 
L 68.267268 148.264138 
L 70.425244 148.328991 
L 70.8509 148.45372 
L 71.533928 148.409055 
L 73.028673 148.310888 
L 73.780995 148.376817 
L 74.384832 148.328268 
L 75.107457 148.368939 
L 75.6519 148.364651 
L 75.830082 148.301555 
L 76.087455 148.250205 
L 76.572504 148.266803 
L 78.087047 148.416908 
L 78.651288 148.45821 
L 79.195731 148.52546 
L 79.779771 148.455729 
L 80.344012 148.352391 
L 81.116132 148.303371 
L 82.115928 148.286327 
L 82.393099 148.278045 
L 84.283802 148.273757 
L 85.016326 148.205649 
L 85.313295 148.18552 
L 86.946625 148.23956 
L 87.223796 148.26761 
L 87.758341 148.192028 
L 88.906621 148.126821 
L 89.262984 148.07881 
L 91.737727 148.169317 
L 92.034696 148.093053 
L 92.450452 148.093709 
L 92.925603 147.948935 
L 93.549238 147.921078 
L 93.796712 147.972613 
L 94.004591 147.968039 
L 94.430247 147.936356 
L 95.043983 147.933749 
L 95.281558 147.987563 
L 95.578527 148.045479 
L 96.469434 147.945731 
L 96.746606 147.870494 
L 97.112867 147.91848 
L 98.983773 147.978456 
L 99.449024 148.125501 
L 99.6866 148.15868 
L 99.914276 148.079634 
L 100.349831 148.017505 
L 101.062557 147.98953 
L 101.22094 147.963935 
L 101.597101 147.897005 
L 102.072252 148.025526 
L 103.487804 147.979608 
L 103.903561 148.039921 
L 104.349015 147.98208 
L 105.576487 147.90411 
L 105.93285 147.911467 
L 106.269415 147.935641 
L 106.576283 147.961488 
L 107.714665 148.112149 
L 107.972038 148.104859 
L 108.229411 148.077254 
L 108.397693 148.117824 
L 108.823349 148.052256 
L 109.219308 147.922995 
L 111.090213 147.95657 
L 111.535667 148.017555 
L 112.000919 148.100781 
L 113.941117 147.947817 
L 114.48556 147.965314 
L 114.653843 148.04891 
L 114.921115 148.022886 
L 115.604144 147.974429 
L 116.069395 148.104363 
L 116.712828 148.075858 
L 117.27707 147.936684 
L 117.554241 147.935667 
L 118.13828 147.911358 
L 118.445148 147.939299 
L 118.979693 147.949456 
L 119.316258 147.943873 
L 120.187367 148.116588 
L 120.533831 148.012914 
L 120.721911 147.984485 
L 123.612411 147.907448 
L 124.730994 148.009138 
L 126.186143 147.779549 
L 126.473213 147.789715 
L 126.681091 147.844798 
L 127.096848 147.833203 
L 127.938261 147.815722 
L 128.443108 147.945916 
L 128.690582 147.961413 
L 129.452803 147.897787 
L 129.789368 147.812014 
L 129.977448 147.791397 
L 130.432801 147.854097 
L 130.888154 147.85889 
L 131.452395 147.939366 
L 133.887542 147.91769 
L 134.184511 147.924391 
L 134.461682 147.942292 
L 137.035414 148.045563 
L 138.955814 147.910912 
L 139.292379 147.945731 
L 139.638843 147.936171 
L 139.995206 147.882492 
L 140.53965 147.903353 
L 140.985103 147.914049 
L 143.044089 147.793246 
L 143.370755 147.835927 
L 143.796411 147.814646 
L 144.271561 147.766415 
L 144.66752 147.839122 
L 145.073378 147.934254 
L 145.429741 147.822053 
L 145.964285 147.824113 
L 146.558224 147.72249 
L 148.894381 147.914208 
L 149.052764 147.925871 
L 149.508117 147.833842 
L 149.894176 147.796383 
L 150.547509 147.77902 
L 152.665888 147.907196 
L 153.358816 147.93718 
L 153.645886 147.92894 
L 153.814169 147.884199 
L 154.071542 147.899368 
L 154.358612 147.852147 
L 155.15053 147.790497 
L 155.72467 147.855418 
L 156.189922 147.820489 
L 158.486483 147.858688 
L 159.169512 147.869232 
L 159.496178 147.920725 
L 159.981227 147.957696 
L 161.634355 148.075791 
L 162.089708 148.047337 
L 162.376778 148.056654 
L 162.851928 147.992683 
L 163.633947 148.018303 
L 163.831927 147.96655 
L 164.099199 147.941519 
L 164.485259 147.891027 
L 165.316772 147.914906 
L 165.633539 147.926989 
L 166.573941 147.861194 
L 166.87091 147.82191 
L 167.623232 147.791985 
L 167.969696 147.78583 
L 168.345857 147.814847 
L 170.246459 147.785267 
L 171.493729 147.732479 
L 172.523222 147.776732 
L 172.869686 147.721069 
L 174.077361 147.817925 
L 174.592107 147.769022 
L 177.878565 147.907978 
L 179.016947 147.915344 
L 179.294118 147.914175 
L 180.165227 147.88916 
L 180.650277 147.896509 
L 180.887852 147.853677 
L 181.085832 147.863002 
L 181.372902 147.873378 
L 181.818355 147.943327 
L 182.095527 147.995181 
L 182.788454 147.93834 
L 183.045828 148.005523 
L 184.916733 147.910391 
L 185.263197 147.888513 
L 185.956125 147.984359 
L 186.322387 148.050104 
L 187.06481 147.996047 
L 187.658748 147.908348 
L 188.232888 147.928242 
L 188.708039 147.961203 
L 189.054503 147.936827 
L 189.74743 147.954602 
L 190.13349 148.010517 
L 190.371066 148.019531 
L 193.103181 148.035263 
L 193.31106 148.051457 
L 193.865402 147.955325 
L 194.27126 148.063246 
L 194.627623 148.043512 
L 195.389843 148.005842 
L 197.696304 147.728351 
L 197.993273 147.750002 
L 198.478322 147.899788 
L 198.745594 147.871746 
L 198.864382 147.588529 
L 199.191048 146.690302 
L 200.745186 144.959861 
L 201.774679 144.35939 
L 202.061749 144.262967 
L 202.467607 144.083025 
L 203.012051 143.899177 
L 203.546595 143.630439 
L 203.78417 143.511688 
L 204.378108 143.201838 
L 205.278915 143.070975 
L 205.922348 142.969781 
L 206.437094 142.871996 
L 206.704366 142.91936 
L 206.882548 142.915551 
L 207.347799 142.682203 
L 207.704162 142.724686 
L 207.892243 142.686441 
L 208.278303 142.533149 
L 208.49608 142.461754 
L 209.080119 142.378331 
L 209.317695 142.374299 
L 210.475874 142.217118 
L 211.208398 142.236718 
L 211.416276 142.237895 
L 211.584559 142.156936 
L 211.782538 142.118812 
L 211.950821 142.046135 
L 212.267588 142.034927 
L 213.029808 142.063238 
L 214.504755 142.023054 
L 215.22738 142.057772 
L 215.484753 142.026687 
L 216.781518 141.949641 
L 217.058689 141.917236 
L 217.316062 142.022255 
L 217.523941 142.074854 
L 218.692019 142.108378 
L 219.582927 142.241078 
L 220.176865 142.238463 
L 221.701306 142.224551 
L 221.978477 142.185461 
L 223.473222 142.190577 
L 223.750393 142.099763 
L 224.383927 142.055418 
L 225.354026 141.860109 
L 225.571804 141.887508 
L 227.323921 142.086239 
L 227.581295 142.076064 
L 228.066344 142.033859 
L 228.620686 141.994483 
L 228.887959 141.927456 
L 229.224524 141.908949 
L 229.83826 141.956149 
L 230.610379 142.007726 
L 231.026136 142.050264 
L 232.857446 142.160392 
L 233.144516 142.067728 
L 233.500879 142.12923 
L 233.946332 142.187862 
L 234.540271 142.194126 
L 235.262895 142.194172 
L 235.629157 142.299335 
L 236.520065 142.223092 
L 237.153599 142.124311 
L 237.648547 142.139455 
L 237.975213 142.128709 
L 238.252384 142.191364 
L 239.648139 142.236487 
L 239.915411 142.265916 
L 240.776622 142.225724 
L 242.172377 142.183973 
L 242.687123 142.139615 
L 243.073183 142.063069 
L 243.568131 142.099061 
L 243.874999 142.134317 
L 244.785705 142.099936 
L 245.419239 142.074366 
L 246.458631 142.076128 
L 247.012973 142.094088 
L 247.309942 142.080538 
L 247.656406 142.053656 
L 247.834588 142.121881 
L 248.171153 142.187899 
L 248.349334 142.063263 
L 248.359233 142.047207 
L 248.359233 142.047207 
" clip-path="url(#p85f7011e12)" style="fill: none; stroke: #000000; stroke-opacity: 0.5; stroke-width: 1.5; stroke-linecap: square"/>
   </g>
   <g id="line2d_14">
    <path d="M 45.450142 142.773408 
L 47.043876 142.758358 
L 47.96448 142.61196 
L 48.766297 142.689611 
L 49.60771 142.628029 
L 50.429324 142.758547 
L 51.161848 142.651345 
L 51.508312 142.638144 
L 52.983258 142.746367 
L 53.250531 142.77575 
L 55.675778 142.594988 
L 55.94305 142.53964 
L 57.259613 142.562364 
L 57.477391 142.561885 
L 58.694964 142.722088 
L 61.436979 142.499852 
L 62.842633 142.56788 
L 63.129703 142.563524 
L 63.63455 142.552614 
L 64.109701 142.428878 
L 65.198588 142.655654 
L 65.594546 142.641949 
L 66.604241 142.874304 
L 66.930907 142.85494 
L 67.455553 142.741533 
L 67.87131 142.748659 
L 68.326662 142.710241 
L 69.534337 142.889393 
L 69.781811 142.878643 
L 70.17777 142.838384 
L 70.771708 142.951556 
L 71.029081 142.98748 
L 71.61312 142.970041 
L 72.068473 142.849239 
L 72.375341 142.846279 
L 73.44443 142.861692 
L 73.721601 142.862188 
L 74.028469 142.866022 
L 74.59271 142.834247 
L 74.919376 142.866135 
L 75.255941 142.835701 
L 75.503416 142.810073 
L 77.592098 142.897881 
L 77.928663 142.943774 
L 78.364218 142.903069 
L 78.928459 142.955793 
L 79.245226 143.004196 
L 79.680781 142.960208 
L 79.858962 143.008341 
L 80.096538 142.925855 
L 80.254921 142.976406 
L 80.4628 142.948293 
L 80.759769 142.966379 
L 83.175117 143.104923 
L 83.551278 143.087514 
L 84.046227 143.10639 
L 84.244206 143.042037 
L 84.560973 142.996519 
L 85.244002 142.982486 
L 85.64986 143.048541 
L 85.917132 143.060061 
L 87.124807 143.071958 
L 87.461372 143.116838 
L 89.144196 142.992042 
L 89.40157 142.968767 
L 91.242778 143.018772 
L 91.698131 143.079677 
L 92.341564 143.103212 
L 92.66823 143.029421 
L 93.064189 142.894043 
L 93.549238 142.870718 
L 94.113479 142.922454 
L 94.648024 142.877184 
L 95.004387 142.924485 
L 95.301356 142.9635 
L 95.618123 143.076886 
L 99.478721 142.857693 
L 100.468618 142.846931 
L 101.864373 142.714823 
L 102.171241 142.786954 
L 102.725584 142.724787 
L 103.517501 142.782574 
L 104.01245 142.887493 
L 104.269823 142.819137 
L 104.87366 142.684549 
L 105.784365 142.618178 
L 106.130829 142.635512 
L 106.378304 142.7015 
L 107.150423 142.740368 
L 107.774058 142.729391 
L 108.100724 142.792626 
L 110.199306 142.754851 
L 110.516073 142.802838 
L 110.902133 142.746254 
L 112.911624 142.907017 
L 113.228391 142.874535 
L 113.495663 142.858408 
L 114.129197 142.85454 
L 114.48556 142.873051 
L 115.099296 142.883251 
L 115.584346 142.82324 
L 115.851618 142.83061 
L 116.287173 142.909968 
L 118.286765 142.851492 
L 120.919891 142.901736 
L 121.266355 142.920226 
L 122.147363 142.806277 
L 122.523524 142.787438 
L 123.067967 142.862827 
L 123.315442 142.823169 
L 124.176652 142.848091 
L 124.503318 142.971946 
L 124.790388 142.943181 
L 125.107155 142.961725 
L 125.384326 142.894799 
L 125.631801 142.894253 
L 126.205941 142.881195 
L 126.50291 142.907748 
L 127.354221 142.936929 
L 127.75018 142.929114 
L 129.116238 142.888317 
L 129.403308 142.855226 
L 129.690378 142.84506 
L 130.284317 142.78138 
L 131.313809 142.894585 
L 132.264111 142.871748 
L 132.808554 142.882574 
L 134.441884 142.807471 
L 134.76855 142.75792 
L 135.095216 142.760119 
L 135.471377 142.743933 
L 136.283092 142.765534 
L 137.084909 142.825212 
L 137.728342 142.787467 
L 137.985715 142.778117 
L 138.252988 142.690208 
L 139.124097 142.766947 
L 139.500258 142.783532 
L 140.371367 142.734457 
L 140.856417 142.787291 
L 141.282072 142.778634 
L 146.251355 142.776948 
L 146.954182 142.725073 
L 149.468521 142.83476 
L 150.032762 142.7935 
L 150.399024 142.716825 
L 150.705892 142.722446 
L 150.963265 142.659745 
L 151.656193 142.785546 
L 151.963061 142.795283 
L 152.477808 142.799735 
L 153.042049 142.886837 
L 153.566694 142.935298 
L 153.932956 142.940309 
L 154.140835 142.889973 
L 154.437804 142.844522 
L 154.912954 142.796426 
L 155.566286 142.75499 
L 155.883053 142.790364 
L 156.863052 142.707424 
L 157.74406 142.798474 
L 157.991534 142.775191 
L 160.05052 142.698146 
L 160.842438 142.690313 
L 164.584248 142.77792 
L 164.95051 142.795194 
L 166.989698 142.811477 
L 167.237172 142.77171 
L 167.54404 142.771491 
L 168.573533 142.791503 
L 169.117977 142.812015 
L 169.405047 142.820159 
L 169.810905 142.85058 
L 170.216762 142.833192 
L 173.523018 142.725607 
L 174.17635 142.809198 
L 175.483014 142.739309 
L 176.235336 142.737913 
L 179.828662 142.595976 
L 180.155328 142.540187 
L 181.125427 142.659181 
L 181.521386 142.554502 
L 182.174718 142.599028 
L 183.065626 142.533406 
L 183.451685 142.506146 
L 184.481178 142.518271 
L 184.669259 142.509803 
L 184.995925 142.563482 
L 185.292894 142.509639 
L 185.579964 142.551286 
L 186.243195 142.66785 
L 187.084607 142.524081 
L 188.123999 142.54598 
L 188.906018 142.625052 
L 189.183189 142.655969 
L 189.509855 142.601643 
L 189.816723 142.638035 
L 190.450257 142.759488 
L 191.727225 142.799697 
L 194.211866 142.779538 
L 194.8454 142.837635 
L 196.854891 142.820003 
L 197.557718 142.823699 
L 197.795293 142.85269 
L 199.141553 142.88521 
L 199.676098 142.838316 
L 199.982966 142.811679 
L 200.606601 142.788026 
L 204.07124 142.913361 
L 204.35831 142.903834 
L 204.813663 142.989776 
L 206.971639 143.212222 
L 207.733859 143.181204 
L 208.169414 143.108598 
L 208.377292 143.042967 
L 208.921736 143.068452 
L 210.12941 143.023707 
L 210.861934 143.199933 
L 211.08961 143.214656 
L 211.525165 143.185618 
L 212.53486 143.107252 
L 212.82193 143.073131 
L 213.128798 142.986816 
L 213.673241 143.023951 
L 214.217685 143.014311 
L 214.712633 143.002514 
L 215.22738 143.037707 
L 216.870609 142.92121 
L 217.464547 142.973346 
L 218.236667 142.872513 
L 219.64232 142.884121 
L 221.681508 142.824102 
L 222.24575 142.818094 
L 222.513022 142.85037 
L 222.869385 142.85457 
L 223.20595 142.878937 
L 223.611807 142.959342 
L 224.433422 142.896981 
L 224.760088 142.866156 
L 224.967966 142.870045 
L 225.383723 142.876911 
L 225.868773 142.925174 
L 226.630993 142.963567 
L 226.898266 142.975208 
L 227.462507 143.024615 
L 227.749577 143.050408 
L 227.947556 143.016094 
L 228.20493 143.022576 
L 228.571192 143.066981 
L 228.788969 143.044274 
L 229.125534 142.994589 
L 230.244118 143.028714 
L 230.461895 142.988657 
L 230.729167 142.956092 
L 232.441689 142.947057 
L 232.857446 142.883221 
L 233.481081 142.90869 
L 233.738454 142.914126 
L 235.639056 142.936774 
L 236.015217 142.983028 
L 236.341883 142.934411 
L 236.925922 142.955966 
L 237.222891 142.903014 
L 240.21238 143.118839 
L 240.350966 143.046469 
L 240.588541 143.019146 
L 244.122474 142.943122 
L 244.92429 142.89374 
L 246.46853 142.765442 
L 247.953375 142.83428 
L 248.230546 142.869091 
L 248.359233 142.864433 
L 248.359233 142.864433 
" clip-path="url(#p85f7011e12)" style="fill: none; stroke: #000000; stroke-opacity: 0.5; stroke-width: 1.5; stroke-linecap: square"/>
   </g>
   <g id="line2d_15">
    <path d="M 45.450142 143.554924 
L 45.856 143.527593 
L 46.875594 143.482831 
L 47.271553 143.510944 
L 47.548724 143.478538 
L 47.806097 143.504861 
L 48.013975 143.513265 
L 50.231345 143.448777 
L 50.320435 143.095123 
L 50.508516 140.478202 
L 50.845081 138.038037 
L 51.557807 134.800468 
L 53.102046 129.249405 
L 54.586892 123.884443 
L 55.071941 121.285928 
L 55.141234 119.034992 
L 55.220426 104.089137 
L 55.418405 22.748286 
L 55.507496 35.519143 
L 55.972747 121.058739 
L 56.190525 125.215182 
L 56.408302 126.182836 
L 56.665675 126.166108 
L 57.031937 125.922035 
L 57.734764 126.062547 
L 57.972339 126.131255 
L 58.576177 126.091455 
L 58.83355 125.975828 
L 60.021426 126.19375 
L 60.2689 126.184644 
L 61.011323 126.126711 
L 61.417181 126.019976 
L 63.83253 124.805987 
L 64.010711 124.789641 
L 64.485862 124.595287 
L 64.891719 124.529698 
L 66.010303 124.058369 
L 66.574544 123.4997 
L 66.822019 123.350898 
L 66.990301 123.240875 
L 67.514947 123.117655 
L 67.732724 123.058217 
L 68.405854 122.574288 
L 68.841409 122.111726 
L 69.395751 121.811717 
L 71.890291 119.347436 
L 72.405038 118.797751 
L 72.791098 118.63571 
L 72.998976 118.610401 
L 73.63251 118.465067 
L 73.810692 118.455284 
L 74.048267 118.3127 
L 74.424428 118.02432 
L 74.830286 117.582362 
L 75.701395 117.180865 
L 76.018162 117.277392 
L 76.334929 117.052066 
L 76.602201 116.796676 
L 77.136746 116.131654 
L 77.364422 115.796792 
L 77.611896 115.772862 
L 77.790078 115.478067 
L 77.968259 115.359446 
L 78.126643 115.285268 
L 78.423612 114.920898 
L 78.760177 114.371994 
L 79.314519 113.843611 
L 79.423408 113.746714 
L 79.621387 112.856878 
L 79.819367 111.541519 
L 79.888659 108.742147 
L 79.967851 93.881131 
L 80.175729 25.370071 
L 80.245022 32.205614 
L 80.858758 117.548405 
L 81.086435 120.227186 
L 81.541787 122.073998 
L 82.145625 123.502815 
L 83.452289 125.114538 
L 84.471883 126.168218 
L 84.669862 126.178931 
L 84.897538 126.289757 
L 85.441982 126.472671 
L 86.42198 126.522196 
L 86.728848 126.482803 
L 87.045615 126.546311 
L 87.639553 126.381962 
L 87.976118 126.265759 
L 88.659147 126.295117 
L 89.01551 126.088642 
L 89.916316 125.722039 
L 90.292477 125.819185 
L 91.005203 125.387157 
L 91.628838 124.966476 
L 92.024797 124.85898 
L 92.38116 124.629753 
L 92.579139 124.50729 
L 92.915704 124.354225 
L 93.361158 124.165874 
L 94.073884 123.967 
L 95.321154 123.260201 
L 95.558729 123.228847 
L 95.816102 122.982575 
L 96.093274 122.780666 
L 97.300948 122.205811 
L 97.459331 122.119726 
L 98.003775 121.635643 
L 98.439329 121.529668 
L 98.944177 121.292705 
L 99.350035 120.957932 
L 100.151851 120.690817 
L 100.617103 120.408621 
L 100.983365 120.129313 
L 101.359526 119.896542 
L 101.656495 119.802566 
L 101.963363 119.424877 
L 101.983161 119.438027 
L 102.210837 119.492236 
L 102.586998 119.354693 
L 102.775078 119.341433 
L 102.95326 119.326882 
L 103.121542 119.214295 
L 103.468006 118.944459 
L 103.893662 118.846393 
L 104.170833 118.634823 
L 104.349015 118.621361 
L 104.794468 118.317821 
L 104.804367 118.328928 
L 105.091437 118.494429 
L 105.299316 118.546548 
L 105.784365 118.185335 
L 106.12093 117.64566 
L 106.259516 117.699755 
L 106.427798 117.685145 
L 106.60598 117.675757 
L 107.734462 117.213565 
L 108.269007 117.115099 
L 108.556077 116.847248 
L 109.2985 116.889933 
L 109.555873 117.093099 
L 110.001327 117.194036 
L 110.179508 117.174529 
L 110.496275 117.100393 
L 110.872436 116.790576 
L 111.783141 117.121224 
L 112.099908 117.299397 
L 112.56516 117.239008 
L 112.743341 117.220922 
L 113.070007 117.151738 
L 113.456067 117.269223 
L 113.703541 117.250843 
L 114.346975 117.02867 
L 114.48556 116.953542 
L 114.713236 116.892934 
L 115.099296 117.09024 
L 115.237882 117.163993 
L 115.515053 117.14523 
L 115.782325 117.186708 
L 116.039698 117.263594 
L 116.584142 117.137146 
L 116.782121 117.164981 
L 116.940505 117.063295 
L 117.148383 117.006762 
L 117.455251 117.120527 
L 117.643332 117.176791 
L 118.860905 116.957678 
L 119.19747 117.139542 
L 119.543934 117.118197 
L 120.613023 116.576668 
L 120.870396 116.570622 
L 121.434637 116.587469 
L 121.998879 116.719555 
L 122.474029 116.735938 
L 122.602716 116.776601 
L 122.622514 116.753764 
L 122.939281 116.491895 
L 123.206553 116.446474 
L 123.444128 116.33643 
L 123.632209 116.282062 
L 123.81039 116.272804 
L 123.968774 116.321614 
L 124.216248 116.451098 
L 124.38453 116.357942 
L 124.58251 116.239621 
L 124.800287 116.099837 
L 125.117054 115.654082 
L 125.176448 115.704225 
L 125.651599 115.916178 
L 125.948568 116.023014 
L 126.136648 116.054116 
L 126.493011 115.865463 
L 126.681091 115.926781 
L 126.69099 115.917002 
L 127.037454 115.700601 
L 127.205737 115.604763 
L 127.354221 115.608471 
L 127.730382 115.60911 
L 128.007553 115.519562 
L 128.32432 115.682754 
L 128.601492 115.72887 
L 129.304319 115.346106 
L 129.660681 115.013948 
L 130.591185 114.702979 
L 130.719871 114.614381 
L 130.749568 114.645328 
L 131.046537 114.852055 
L 131.284113 114.908613 
L 131.521688 114.8431 
L 131.719667 114.873424 
L 132.046333 114.875493 
L 132.412595 114.97947 
L 133.204513 114.637533 
L 133.511381 114.31317 
L 133.550977 114.363771 
L 133.788552 114.546883 
L 133.986531 114.696488 
L 134.323096 115.09062 
L 134.620065 115.31735 
L 134.76855 115.42916 
L 134.798247 115.40586 
L 134.926934 115.42493 
L 135.085317 115.451997 
L 135.312993 115.46484 
L 135.798043 115.55306 
L 135.966325 115.529416 
L 136.797839 115.748327 
L 137.193798 115.584806 
L 137.530363 115.642878 
L 137.876827 115.565883 
L 138.144099 115.649596 
L 138.342078 115.677995 
L 138.579654 115.612423 
L 138.767734 115.628634 
L 139.025107 115.748491 
L 139.203289 115.801543 
L 139.470561 115.877079 
L 139.906116 116.265392 
L 139.916015 116.256374 
L 140.173388 116.126134 
L 140.183287 116.136156 
L 140.559448 116.40555 
L 140.698033 116.493564 
L 140.915811 116.59153 
L 141.202881 116.624873 
L 141.618637 117.011168 
L 142.024495 117.237894 
L 142.667928 117.514179 
L 142.905504 117.589698 
L 143.222271 117.769102 
L 143.568735 117.826788 
L 144.014188 117.90504 
L 144.350753 117.790842 
L 144.944691 117.880012 
L 145.320852 117.709895 
L 145.687114 117.970957 
L 146.993778 117.857743 
L 147.231354 117.735423 
L 147.696605 117.794373 
L 147.914382 117.784431 
L 148.102463 117.770477 
L 148.359836 117.774538 
L 148.844886 117.855704 
L 148.983471 117.814995 
L 149.518016 117.356477 
L 149.943671 117.370123 
L 150.775185 117.430247 
L 150.973164 117.543322 
L 151.220639 117.632164 
L 151.606698 117.771503 
L 152.299626 117.541931 
L 152.596595 117.247017 
L 152.774777 117.250359 
L 152.962857 117.181457 
L 154.37841 116.761638 
L 154.497198 116.837372 
L 154.685278 116.911752 
L 154.962449 116.954063 
L 155.130732 116.963056 
L 155.734569 116.875979 
L 156.021639 116.936544 
L 156.744264 116.859301 
L 157.07093 116.719139 
L 157.25901 116.679868 
L 157.783656 116.110574 
L 158.209311 115.833961 
L 158.387493 115.763193 
L 158.545876 115.615854 
L 158.882441 115.394917 
L 159.080421 115.428113 
L 159.337794 115.484041 
L 159.535773 115.459001 
L 159.773349 115.197435 
L 159.971328 115.126847 
L 160.129712 115.038644 
L 160.327691 115.058668 
L 160.62466 115.075808 
L 161.040417 114.80765 
L 161.228497 114.893415 
L 161.58486 115.209774 
L 161.733345 115.182804 
L 162.287687 114.58998 
L 162.624252 114.652395 
L 162.970716 114.256842 
L 163.138999 114.352697 
L 163.287483 114.364372 
L 163.297382 114.353374 
L 163.831927 113.867604 
L 163.980411 113.945133 
L 164.316976 114.094255 
L 164.613945 114.054416 
L 164.802026 113.812685 
L 165.306873 113.266246 
L 165.346469 113.298227 
L 165.940407 113.649783 
L 166.435356 113.580729 
L 166.672931 113.817037 
L 166.68283 113.811214 
L 167.128284 113.40183 
L 167.296566 113.305941 
L 167.54404 113.261339 
L 167.692525 113.191908 
L 167.712323 113.212083 
L 168.593331 114.462665 
L 169.523834 115.490557 
L 170.206863 115.64519 
L 170.484034 115.750029 
L 171.513527 115.948768 
L 171.68181 115.957732 
L 171.889688 115.929164 
L 172.463829 116.383201 
L 172.64201 116.406391 
L 172.978575 116.631848 
L 173.344837 116.629889 
L 173.582412 116.748891 
L 173.740796 116.762244 
L 173.879381 116.734929 
L 174.057563 116.741429 
L 174.522814 116.951809 
L 175.04746 117.215482 
L 175.215742 117.301158 
L 175.384025 117.356376 
L 176.027458 117.80662 
L 176.829274 118.353224 
L 177.056951 118.475103 
L 177.274728 118.533074 
L 178.02705 118.689914 
L 178.660584 118.598503 
L 179.195128 118.729883 
L 179.363411 118.719537 
L 179.907854 118.389872 
L 180.224621 118.588321 
L 180.650277 118.65082 
L 180.957145 118.732485 
L 181.204619 118.772665 
L 181.848052 118.723913 
L 182.273708 118.598348 
L 182.491485 118.698285 
L 182.659768 118.67253 
L 183.273504 118.466652 
L 183.649665 118.424779 
L 184.134714 118.228339 
L 184.590067 118.183225 
L 185.174106 118.397057 
L 185.560166 118.271113 
L 185.738348 118.357878 
L 185.748247 118.349571 
L 186.074913 118.184881 
L 186.589659 118.103253 
L 187.381577 117.7539 
L 187.688445 117.743406 
L 187.935919 117.750978 
L 189.193088 118.711957 
L 189.519754 118.72863 
L 190.153288 118.588691 
L 190.351268 118.609808 
L 190.80662 118.503897 
L 191.083791 118.603594 
L 191.410457 118.520222 
L 191.628235 118.403951 
L 192.004396 118.199385 
L 192.172678 118.117934 
L 192.53894 118.010841 
L 193.528837 117.645437 
L 193.934695 117.384199 
L 194.17227 117.27772 
L 194.340553 117.260239 
L 194.518734 117.28015 
L 195.102773 116.901868 
L 195.280955 116.924495 
L 195.568025 116.691824 
L 195.874893 116.567474 
L 197.033073 116.560591 
L 197.330042 116.421635 
L 197.458728 116.471093 
L 197.607213 116.482138 
L 197.617112 116.472119 
L 198.092262 116.101543 
L 198.448625 116.082591 
L 198.755493 116.071992 
L 198.834685 116.607703 
L 199.428623 122.709927 
L 200.171046 126.659752 
L 201.715285 132.155244 
L 202.833869 134.984862 
L 205.249218 139.176964 
L 206.18962 140.473683 
L 206.96174 141.176202 
L 208.911837 142.648961 
L 209.753249 143.251636 
L 210.060117 143.381826 
L 210.535268 143.533357 
L 210.891631 143.689755 
L 212.495264 144.242636 
L 213.079303 144.384913 
L 213.59405 144.427283 
L 214.148392 144.610357 
L 216.237075 144.794983 
L 216.444953 144.826695 
L 216.920104 144.84191 
L 217.454648 144.826661 
L 219.147372 144.771881 
L 219.444341 144.705102 
L 220.275855 144.662669 
L 220.61242 144.677039 
L 222.027972 144.762775 
L 222.24575 144.757259 
L 222.641708 144.726627 
L 222.91888 144.67511 
L 223.49302 144.571338 
L 223.700898 144.576173 
L 223.918676 144.53102 
L 224.423523 144.568782 
L 225.195643 144.612884 
L 225.641096 144.539841 
L 226.630993 144.568286 
L 226.898266 144.597766 
L 230.145128 144.544314 
L 231.402297 144.637743 
L 234.886735 144.586091 
L 235.302491 144.562409 
L 236.223096 144.508961 
L 236.490368 144.558066 
L 236.688347 144.507923 
L 237.569355 144.612039 
L 238.024708 144.613649 
L 238.935413 144.723949 
L 239.974805 144.602907 
L 242.261467 144.627586 
L 242.508942 144.620304 
L 243.182072 144.62474 
L 246.864488 144.601877 
L 247.191154 144.598089 
L 247.399033 144.565133 
L 248.359233 144.52072 
L 248.359233 144.52072 
" clip-path="url(#p85f7011e12)" style="fill: none; stroke: #000000; stroke-opacity: 0.5; stroke-width: 1.5; stroke-linecap: square"/>
   </g>
   <g id="line2d_16">
    <path d="M 45.450142 143.705248 
L 45.895596 143.742938 
L 48.013975 143.944675 
L 49.884881 143.816839 
L 50.251143 143.786703 
L 50.320435 143.373989 
L 50.478819 139.986589 
L 50.775788 136.368291 
L 51.369726 131.884248 
L 52.913966 120.801096 
L 52.983258 116.735169 
L 53.072349 91.269951 
L 53.240632 24.213406 
L 53.300025 29.770237 
L 53.903863 121.134776 
L 54.12164 122.848929 
L 54.359215 123.229015 
L 55.26992 123.665714 
L 55.705475 123.541888 
L 56.903251 122.837431 
L 59.180014 120.548077 
L 60.971727 117.261404 
L 61.169707 117.058873 
L 61.61516 116.626033 
L 62.28829 115.411981 
L 62.664451 114.749973 
L 62.96142 113.700296 
L 63.238591 111.682745 
L 63.307884 108.340963 
L 63.396975 88.659104 
L 63.594954 27.60367 
L 63.644449 31.370227 
L 63.911721 81.428679 
L 64.178994 109.911742 
L 64.416569 115.816253 
L 64.743235 118.276582 
L 65.119396 119.744839 
L 65.960808 121.554279 
L 66.297373 121.800816 
L 67.039796 122.054209 
L 67.19818 122.102514 
L 67.623835 122.198516 
L 68.079188 122.178896 
L 68.336561 122.187052 
L 68.63353 122.108228 
L 68.989893 122.227513 
L 70.534133 121.443946 
L 72.474331 119.794195 
L 72.919784 119.193661 
L 73.177158 118.8505 
L 73.91958 117.998553 
L 74.40463 117.662186 
L 74.553114 117.5137 
L 74.869881 117.053092 
L 75.087659 116.705051 
L 75.36483 116.280918 
L 75.582607 116.149774 
L 76.03796 115.560216 
L 76.285434 115.137181 
L 76.631898 114.690569 
L 77.18624 114.103798 
L 77.601997 113.198462 
L 78.146441 110.230687 
L 78.225632 106.842868 
L 78.314723 88.621526 
L 78.512702 28.272127 
L 78.572096 32.419492 
L 78.859166 85.992328 
L 79.11654 109.823308 
L 79.354115 114.761774 
L 79.700579 117.239244 
L 80.16583 119.289507 
L 80.858758 120.816731 
L 81.888251 122.197335 
L 82.422796 122.538074 
L 82.897946 122.702393 
L 83.571076 122.746646 
L 83.838348 122.800628 
L 84.11552 122.793683 
L 84.343196 122.717032 
L 85.234103 122.170702 
L 86.214101 121.332174 
L 87.144604 120.920696 
L 87.441574 120.90691 
L 89.233287 119.185139 
L 89.530256 118.922135 
L 90.054902 118.352858 
L 90.322174 118.114012 
L 90.757729 117.77453 
L 90.916112 117.716567 
L 91.203182 117.3315 
L 92.391059 115.634386 
L 92.688028 115.394156 
L 94.261964 112.288997 
L 94.905397 109.570934 
L 94.984589 105.163617 
L 95.083579 80.377936 
L 95.26176 29.012858 
L 95.311255 32.004538 
L 95.509234 67.767245 
L 95.816102 107.871102 
L 96.053678 114.018361 
L 96.390243 116.993838 
L 96.885191 119.370967 
L 97.340544 120.574799 
L 97.865189 121.385331 
L 98.112663 121.755697 
L 98.568016 122.248647 
L 98.993672 122.546041 
L 99.518317 122.651906 
L 100.518113 122.988663 
L 100.716093 122.827581 
L 100.943769 122.785119 
L 101.339728 122.809637 
L 101.567404 122.659641 
L 101.913868 122.419731 
L 102.28013 122.217254 
L 102.715685 121.967792 
L 103.091845 121.892332 
L 103.665986 121.571912 
L 103.844167 121.462086 
L 104.824165 120.748128 
L 107.457291 118.443689 
L 108.23931 117.725299 
L 108.556077 117.399906 
L 109.407388 117.029708 
L 109.783549 117.112236 
L 111.268395 115.031518 
L 111.545566 114.693625 
L 111.713848 114.538958 
L 112.060312 114.011883 
L 113.208593 113.008413 
L 113.505562 112.625364 
L 114.406368 110.301426 
L 114.653843 107.89861 
L 114.733034 103.047731 
L 114.832024 77.267165 
L 115.010206 29.425778 
L 115.049801 31.90183 
L 115.218084 63.148069 
L 115.524952 105.703488 
L 115.762527 112.878294 
L 116.059496 115.545442 
L 116.485152 117.668186 
L 117.118686 119.657333 
L 117.613635 120.528195 
L 118.049189 121.120141 
L 118.306563 121.298086 
L 118.662926 121.5061 
L 119.00939 121.768528 
L 120.088377 122.051606 
L 120.514033 122.027218 
L 121.008981 121.933301 
L 121.385142 121.878332 
L 122.157262 121.330492 
L 122.315646 121.269847 
L 123.077866 120.555064 
L 123.384734 120.23665 
L 124.661701 119.276033 
L 125.126953 118.770827 
L 125.44372 118.471655 
L 125.740689 118.212305 
L 126.037658 118.019851 
L 126.394021 117.730004 
L 127.037454 117.161071 
L 127.235434 117.013543 
L 127.5621 116.862479 
L 127.75018 116.725714 
L 127.977857 116.538002 
L 128.116442 116.469294 
L 128.413411 116.131847 
L 128.730178 116.043892 
L 129.749772 114.652588 
L 130.125933 114.03171 
L 131.284113 113.158253 
L 131.412799 113.0439 
L 131.452395 113.083281 
L 131.650374 113.158039 
L 132.095828 113.028496 
L 132.590777 112.254834 
L 132.788756 112.226267 
L 132.937241 112.194513 
L 133.244109 112.067518 
L 133.590573 112.200899 
L 133.739057 112.122601 
L 134.125117 111.750007 
L 134.639863 111.193721 
L 134.986327 110.570732 
L 135.085317 110.510066 
L 135.124913 110.549148 
L 135.243701 110.605063 
L 135.273398 110.573385 
L 136.184103 109.27061 
L 136.97602 106.476381 
L 137.07501 104.127771 
L 137.164101 94.209516 
L 137.401676 32.479906 
L 137.500666 42.884551 
L 137.975816 108.114445 
L 138.203493 112.494337 
L 138.480664 113.8914 
L 139.28248 116.963922 
L 139.826924 118.58737 
L 140.143691 119.140125 
L 141.262274 120.44999 
L 141.489951 120.677216 
L 141.866112 120.899566 
L 142.054192 120.839619 
L 142.252172 120.845223 
L 142.440252 120.874252 
L 142.84611 120.860669 
L 143.182675 120.908424 
L 143.548937 120.973399 
L 143.974592 121.044008 
L 144.330955 121.037508 
L 144.647722 120.913776 
L 145.132772 120.791103 
L 145.528731 120.68953 
L 145.706912 120.616521 
L 147.122465 119.891833 
L 148.280644 118.843185 
L 148.429129 118.650504 
L 148.80529 118.11822 
L 149.250743 117.674479 
L 150.656397 116.771829 
L 150.854377 116.708868 
L 151.567102 115.845191 
L 152.675787 114.205648 
L 152.893564 114.167588 
L 153.101443 114.133963 
L 153.378614 113.983639 
L 153.80427 113.798967 
L 153.942855 113.695465 
L 154.249723 113.428484 
L 154.427905 113.263862 
L 154.675379 113.115367 
L 154.922853 113.038973 
L 155.269317 113.016674 
L 155.615781 112.88249 
L 155.754367 112.961995 
L 155.793963 112.922526 
L 156.288911 112.513865 
L 156.457194 112.577693 
L 156.595779 112.553098 
L 157.268909 112.198709 
L 157.486687 112.160791 
L 158.001433 111.899965 
L 158.526079 112.221625 
L 158.684462 112.226006 
L 159.18931 112.331707 
L 159.902035 111.875497 
L 160.14951 111.885167 
L 160.52567 111.894735 
L 160.72365 111.971734 
L 160.733549 111.961926 
L 161.01072 111.820586 
L 161.188901 111.805489 
L 161.891728 111.123882 
L 161.911526 111.146159 
L 162.159001 111.300692 
L 162.277788 111.244671 
L 162.74304 110.710138 
L 163.267685 110.796659 
L 163.445867 110.560171 
L 163.673543 110.318331 
L 164.000209 110.118175 
L 164.148694 110.038838 
L 164.76243 109.435703 
L 165.069298 109.485369 
L 165.277176 109.414407 
L 165.386065 109.306846 
L 165.425661 109.337736 
L 165.574145 109.328119 
L 165.999801 109.198891 
L 166.405659 109.211161 
L 166.672931 109.113593 
L 166.890708 109.147151 
L 167.078789 109.123156 
L 167.385657 109.198618 
L 167.593535 109.216349 
L 167.910302 109.103028 
L 168.058787 108.972891 
L 168.078585 108.985312 
L 169.078381 109.858337 
L 169.306057 109.993307 
L 169.444643 110.157543 
L 169.66242 110.321509 
L 169.810905 110.455294 
L 169.979187 110.48997 
L 170.295954 110.518991 
L 170.761206 110.896987 
L 171.256154 111.017315 
L 171.919385 110.681314 
L 172.978575 111.170901 
L 173.245847 111.347446 
L 173.463625 111.03237 
L 173.720998 110.661802 
L 174.602006 110.980087 
L 174.829682 110.999985 
L 175.265237 110.835695 
L 175.52261 110.858271 
L 175.661196 110.804866 
L 176.235336 110.186127 
L 176.383821 110.243274 
L 176.562002 110.257169 
L 176.789678 110.231418 
L 177.274728 110.240382 
L 177.522202 110.144014 
L 177.749879 110.421203 
L 177.918161 110.622372 
L 177.947858 110.604264 
L 178.343817 110.422876 
L 178.482402 110.532096 
L 178.581392 110.577038 
L 178.620988 110.534912 
L 178.759574 110.490121 
L 178.779372 110.508678 
L 179.383209 111.036174 
L 179.541592 111.086069 
L 179.917753 111.387087 
L 180.313712 111.40231 
L 180.541388 111.414755 
L 180.976943 111.084791 
L 181.372902 111.260698 
L 181.521386 111.215389 
L 182.046032 110.957788 
L 182.25391 110.820219 
L 182.748859 110.363753 
L 182.897343 110.265346 
L 183.035929 110.251136 
L 183.154716 110.201998 
L 183.382393 110.058775 
L 183.718958 109.966376 
L 184.411886 109.446548 
L 184.619764 109.387559 
L 184.906834 108.966168 
L 185.094914 108.847989 
L 185.263197 108.747365 
L 185.530469 108.618993 
L 185.728449 108.71057 
L 185.748247 108.681652 
L 186.164003 108.160332 
L 186.451073 107.78329 
L 186.540164 107.749085 
L 186.57976 107.784816 
L 186.67875 107.796573 
L 186.708447 107.756299 
L 186.886628 107.571808 
L 186.916325 107.598282 
L 187.183597 107.804094 
L 187.203395 107.780511 
L 187.332082 107.355571 
L 187.549859 106.983022 
L 187.856727 106.868707 
L 188.21309 106.977454 
L 188.59915 106.187259 
L 189.183189 103.433011 
L 189.331674 101.108991 
L 189.430663 95.033285 
L 189.55935 66.138225 
L 189.697936 38.706519 
L 189.74743 41.248934 
L 189.94541 76.801305 
L 190.212682 104.604956 
L 190.430459 108.764972 
L 190.677934 109.832721 
L 191.489649 112.076006 
L 192.271668 114.220253 
L 193.073484 115.889288 
L 193.459544 116.372661 
L 194.429643 117.584683 
L 195.508631 118.200819 
L 195.864994 118.110148 
L 196.033277 118.095833 
L 196.795497 118.068632 
L 197.112264 118.131623 
L 197.557718 118.077023 
L 198.755493 117.772382 
L 198.824786 118.351227 
L 199.468219 126.88747 
L 200.101753 130.663478 
L 200.764984 133.466597 
L 202.804172 139.201966 
L 203.338717 140.2598 
L 204.041543 141.384686 
L 204.566189 142.016933 
L 206.179721 143.641996 
L 207.664567 144.645151 
L 207.951637 144.880067 
L 208.446585 145.028776 
L 208.634666 145.111606 
L 209.000927 145.140338 
L 209.584967 145.304048 
L 209.891835 145.451773 
L 210.376884 145.60821 
L 210.733247 145.661653 
L 211.168802 145.775813 
L 211.406377 145.757088 
L 211.723144 145.893412 
L 212.039911 146.006983 
L 212.614052 145.948806 
L 213.089202 146.005318 
L 213.504959 145.974897 
L 213.801928 145.997608 
L 214.029604 145.987055 
L 215.306571 145.948671 
L 215.692631 145.918309 
L 216.217277 146.041087 
L 216.949801 145.882237 
L 219.800704 145.847763 
L 220.275855 145.865715 
L 220.592622 145.808765 
L 221.245954 145.8192 
L 222.612011 145.711969 
L 222.928779 145.7575 
L 224.106756 145.791301 
L 224.35423 145.846754 
L 225.571804 145.5987 
L 226.235035 145.463461 
L 226.581499 145.464848 
L 226.888367 145.388417 
L 227.294224 145.496884 
L 227.81887 145.462839 
L 228.175233 145.508042 
L 228.442505 145.527843 
L 229.412604 145.406284 
L 230.12533 145.319696 
L 230.283713 145.263082 
L 230.491592 145.296497 
L 230.778662 145.305174 
L 231.243913 145.304317 
L 236.411176 145.064284 
L 236.75764 145.098918 
L 237.034811 145.100608 
L 237.242689 145.077116 
L 238.351374 144.876602 
L 239.460059 144.824319 
L 239.717432 144.793726 
L 240.390562 144.822617 
L 240.9845 144.905418 
L 241.449752 144.672558 
L 241.964498 144.704177 
L 242.409952 144.472187 
L 242.835608 144.457464 
L 243.033587 144.364565 
L 243.350354 144.390622 
L 244.369948 144.332391 
L 244.953987 144.340063 
L 245.300451 144.179952 
L 245.567723 144.093027 
L 245.805299 144.22265 
L 245.993379 144.254223 
L 246.359641 144.10141 
L 246.814994 144.127892 
L 247.23075 144.092447 
L 248.359233 144.152617 
L 248.359233 144.152617 
" clip-path="url(#p85f7011e12)" style="fill: none; stroke: #000000; stroke-opacity: 0.5; stroke-width: 1.5; stroke-linecap: square"/>
   </g>
   <g id="line2d_17">
    <path d="M 45.450142 144.724487 
L 45.816404 144.769728 
L 46.459837 144.788016 
L 46.885493 144.699746 
L 47.934784 144.726442 
L 48.231753 144.777632 
L 48.627711 144.726409 
L 48.865287 144.745895 
L 49.528518 144.80752 
L 49.944275 144.877569 
L 50.261042 144.605648 
L 50.330334 143.667394 
L 51.052959 126.99484 
L 51.488514 119.27359 
L 51.567706 106.331762 
L 51.785483 24.280117 
L 51.874574 36.719486 
L 52.329926 114.419047 
L 52.547704 118.045349 
L 52.67639 118.318472 
L 52.706087 118.306533 
L 52.844673 118.096072 
L 54.161236 114.710181 
L 54.59679 113.43688 
L 55.972747 109.4963 
L 56.259817 107.35209 
L 56.348908 104.897349 
L 56.437999 93.830237 
L 56.685473 37.505907 
L 56.764665 43.460416 
L 57.348704 105.38838 
L 57.586279 108.47701 
L 58.051531 110.471968 
L 58.457389 111.472373 
L 59.011731 112.319397 
L 59.229509 112.334209 
L 60.021426 111.896585 
L 60.298597 111.814427 
L 60.684657 111.5039 
L 60.981626 111.267882 
L 62.367482 109.379387 
L 62.882229 108.242075 
L 63.1594 107.684499 
L 63.367278 107.389013 
L 63.495965 107.204875 
L 64.080004 105.733087 
L 64.634346 103.827685 
L 64.802629 102.514639 
L 64.901618 99.724925 
L 65.000608 88.731912 
L 65.257981 40.709254 
L 65.337173 46.178651 
L 65.881617 99.129379 
L 66.119192 102.284623 
L 66.544848 104.698414 
L 67.247674 107.509177 
L 67.782219 108.807009 
L 68.009895 108.989201 
L 68.287066 109.184341 
L 68.544439 109.399661 
L 68.712722 109.555205 
L 69.029489 109.93225 
L 69.267064 109.993278 
L 69.613528 109.97969 
L 69.811508 109.919714 
L 70.019386 109.831031 
L 70.385648 109.889133 
L 70.722213 109.899769 
L 70.989485 109.865598 
L 71.217161 109.722671 
L 72.741603 107.989304 
L 72.761401 108.011357 
L 72.880188 108.1068 
L 72.919784 108.0626 
L 73.464228 107.545208 
L 73.672106 107.251401 
L 73.998772 106.650027 
L 74.315539 106.245844 
L 74.523417 105.850854 
L 74.949073 105.008448 
L 75.562809 103.654578 
L 75.839981 103.452196 
L 76.265636 102.149193 
L 76.671494 101.185467 
L 76.938766 99.173726 
L 77.09715 96.710948 
L 77.196139 89.930114 
L 77.394119 52.207153 
L 77.48321 44.470253 
L 77.532704 46.400679 
L 77.730684 71.012363 
L 78.037552 96.169171 
L 78.255329 99.924833 
L 78.492905 100.544534 
L 78.809672 101.361377 
L 79.215529 103.067802 
L 80.106437 106.839736 
L 80.591486 108.197515 
L 80.947849 108.59728 
L 81.442798 108.872472 
L 81.650676 108.929241 
L 81.917948 108.850194 
L 82.195119 108.949553 
L 82.422796 109.078489 
L 83.05633 108.928554 
L 83.274107 108.844048 
L 83.699763 108.732448 
L 83.986833 108.647749 
L 84.174913 108.498764 
L 84.551074 108.029471 
L 85.303396 107.481883 
L 85.620163 107.377166 
L 86.214101 106.502907 
L 86.61006 106.552262 
L 86.778343 106.192686 
L 87.293089 105.07505 
L 88.05531 104.156753 
L 88.718541 102.135229 
L 88.876924 100.962697 
L 89.173893 96.479068 
L 89.282782 90.268999 
L 89.441166 61.814313 
L 89.579751 44.675792 
L 89.619347 45.95231 
L 89.767832 63.335834 
L 90.114296 95.725329 
L 90.351871 100.814057 
L 90.629042 102.247242 
L 91.163586 103.560329 
L 92.143584 106.699443 
L 92.965199 108.309281 
L 93.806611 109.141149 
L 94.034288 109.130484 
L 94.271863 109.364783 
L 94.519337 109.532822 
L 94.766812 109.697881 
L 95.123174 109.945296 
L 96.251657 109.532435 
L 96.548626 109.04029 
L 97.201958 107.946458 
L 97.38014 107.903542 
L 97.736503 107.604882 
L 97.934482 107.520442 
L 98.271047 107.432592 
L 98.469026 107.382793 
L 98.617511 107.345669 
L 98.904581 107.08952 
L 99.864781 106.285699 
L 100.181548 106.029643 
L 101.616899 102.58701 
L 102.191039 99.441691 
L 102.349423 96.274441 
L 102.458311 88.60404 
L 102.735483 45.094977 
L 102.844371 52.833762 
L 103.299724 96.657236 
L 103.537299 101.188141 
L 103.745177 101.896525 
L 104.052046 102.37438 
L 105.437901 107.379724 
L 105.754668 107.940879 
L 105.992244 108.29863 
L 106.457495 109.046861 
L 106.784161 109.215408 
L 107.3781 109.205009 
L 107.734462 109.447221 
L 108.308603 109.462637 
L 108.536279 109.265162 
L 108.843147 109.167564 
L 109.278702 109.09788 
L 109.466782 109.167018 
L 109.595469 109.11558 
L 109.823145 108.949772 
L 110.130013 108.867602 
L 110.654659 108.291644 
L 110.941729 107.884539 
L 111.199102 107.777728 
L 112.129605 106.903494 
L 112.337484 106.642643 
L 112.476069 106.563504 
L 113.456067 105.526594 
L 114.000511 105.26763 
L 114.822125 103.894218 
L 114.97061 103.587396 
L 115.208185 103.12843 
L 115.227983 103.137149 
L 115.396265 103.123587 
L 115.64374 102.601029 
L 116.326769 98.983557 
L 116.485152 95.291696 
L 116.60394 85.046956 
L 116.861313 45.847651 
L 116.940505 50.634835 
L 117.475049 98.827556 
L 117.702725 101.070269 
L 117.880907 101.334132 
L 118.019492 101.633664 
L 118.761915 104.232419 
L 119.108379 105.287407 
L 119.959691 107.718819 
L 120.266559 108.240661 
L 120.593225 108.557734 
L 120.73181 108.76007 
L 121.038678 109.226099 
L 121.375243 109.26768 
L 121.820697 109.654637 
L 121.98898 109.678548 
L 122.147363 109.715711 
L 122.612615 109.962541 
L 123.077866 109.852043 
L 123.404532 109.814315 
L 124.236046 109.393134 
L 125.25564 108.214782 
L 125.394225 108.18439 
L 125.592205 107.863901 
L 125.938669 107.21663 
L 127.195838 105.739284 
L 127.532403 105.617057 
L 127.799675 105.425532 
L 127.958059 105.376083 
L 128.156038 104.963211 
L 128.472805 104.293974 
L 128.977652 103.014226 
L 129.175632 102.811718 
L 129.274622 102.658983 
L 130.165529 100.117983 
L 130.511993 96.89025 
L 130.630781 92.241254 
L 130.759467 75.381292 
L 130.967345 45.741282 
L 131.006941 47.251664 
L 131.165325 66.338248 
L 131.491991 96.319133 
L 131.719667 101.183752 
L 131.917647 101.942657 
L 132.184919 102.315682 
L 133.204513 106.542895 
L 133.90734 108.180844 
L 135.15461 109.515423 
L 135.392185 109.495768 
L 136.045517 109.556813 
L 136.203901 109.493456 
L 136.223699 109.514353 
L 136.540466 109.748482 
L 137.045313 109.355641 
L 137.263091 109.185634 
L 137.777837 108.84311 
L 138.391573 108.226272 
L 138.866724 107.924968 
L 139.054804 107.902011 
L 139.19339 107.785014 
L 139.539854 107.438953 
L 140.193186 107.180674 
L 140.470357 106.86149 
L 140.648538 106.771279 
L 141.143487 106.078697 
L 141.440456 105.631336 
L 141.806718 105.111538 
L 142.034394 104.799175 
L 142.370959 104.221978 
L 142.84611 103.699096 
L 143.073786 103.587646 
L 143.677623 102.145094 
L 144.083481 100.24705 
L 144.360652 97.895668 
L 144.47944 93.502744 
L 144.608126 77.485864 
L 144.825904 44.840785 
L 144.875399 46.790199 
L 145.073378 71.605785 
L 145.380246 97.310687 
L 145.598023 101.29524 
L 145.776205 101.656127 
L 145.993982 101.869847 
L 146.21176 102.675984 
L 146.934384 105.837824 
L 147.657009 108.035287 
L 148.122261 108.936388 
L 149.003269 109.898226 
L 149.636803 109.965594 
L 149.844682 109.934706 
L 149.993166 109.892059 
L 150.53761 109.51867 
L 150.91377 109.488012 
L 151.280032 109.663142 
L 151.458214 109.615103 
L 151.834375 109.51496 
L 152.081849 109.547387 
L 152.695585 109.081684 
L 152.952958 108.893569 
L 153.556795 108.498134 
L 153.843866 108.505941 
L 154.328915 108.101171 
L 154.76447 107.413908 
L 154.992146 106.974494 
L 155.002045 106.978734 
L 155.249519 107.013012 
L 155.892952 105.871667 
L 156.427497 104.742417 
L 156.803658 103.736133 
L 156.902647 103.513817 
L 157.813353 99.739142 
L 157.961837 97.395255 
L 158.070726 90.364661 
L 158.248907 57.283549 
L 158.367695 44.530484 
L 158.407291 45.923902 
L 158.545876 63.320906 
L 158.872542 97.115841 
L 159.080421 101.092101 
L 159.397188 101.970115 
L 159.694157 102.946667 
L 160.446479 105.923347 
L 161.030518 107.758593 
L 161.386881 108.463172 
L 161.594759 108.662727 
L 162.861827 110.064139 
L 163.327079 110.093665 
L 163.505261 110.281204 
L 163.762634 110.312227 
L 164.010108 110.221593 
L 164.821824 110.110292 
L 165.267277 109.971597 
L 165.504852 109.890179 
L 166.435356 108.926582 
L 166.841213 108.54917 
L 167.25697 108.050042 
L 167.425253 107.939119 
L 167.603434 107.856608 
L 167.860807 107.593394 
L 168.21717 107.285923 
L 168.583432 106.933783 
L 168.969492 106.522954 
L 169.226865 106.429071 
L 169.593127 105.951988 
L 170.216762 105.769308 
L 170.503832 105.455899 
L 170.711711 105.337913 
L 171.117569 104.830236 
L 171.275952 104.673313 
L 171.909486 103.535256 
L 172.038173 103.120129 
L 172.671707 99.92753 
L 172.859787 96.189736 
L 172.968676 88.277985 
L 173.255746 44.91045 
L 173.354736 52.609102 
L 173.80019 97.744327 
L 174.017967 101.19398 
L 174.196148 101.530101 
L 174.324835 101.787669 
L 174.839581 103.546386 
L 175.6216 106.646433 
L 176.304629 108.241432 
L 177.522202 109.596941 
L 177.819171 109.618139 
L 178.254726 109.479076 
L 178.809068 109.356058 
L 179.046644 109.305765 
L 179.333714 109.125705 
L 180.402803 109.246726 
L 181.273912 108.702927 
L 181.560982 108.479629 
L 181.848052 108.258686 
L 182.145021 108.080274 
L 182.481586 107.858278 
L 182.887444 107.339837 
L 183.3131 106.800784 
L 183.817947 106.348042 
L 184.015927 106.152709 
L 184.144613 106.068033 
L 184.46138 105.461242 
L 184.738552 104.436924 
L 185.124611 103.565154 
L 185.33249 103.012641 
L 186.253094 99.664688 
L 186.530265 97.512574 
L 186.708447 94.144437 
L 186.817335 86.79745 
L 187.094506 46.374445 
L 187.193496 53.424798 
L 187.648849 96.76494 
L 187.856727 100.002313 
L 188.084403 100.682261 
L 188.242787 101.037939 
L 188.678342 103.019443 
L 189.103997 104.990269 
L 190.182985 108.361938 
L 190.351268 108.50925 
L 191.063994 109.308925 
L 191.351064 109.420987 
L 191.549043 109.368119 
L 191.558942 109.380742 
L 191.875709 109.631203 
L 193.02399 109.846486 
L 193.59813 109.618013 
L 193.796109 109.507727 
L 194.033685 109.465847 
L 194.291058 109.311935 
L 194.726612 109.307645 
L 194.954289 109.157287 
L 195.469035 108.596181 
L 195.686813 108.515301 
L 195.914489 108.218793 
L 196.181761 107.97835 
L 196.548023 107.763303 
L 197.834889 106.486235 
L 198.062565 106.37028 
L 198.527817 106.270591 
L 198.705998 106.038049 
L 198.735695 106.095198 
L 198.804988 106.844932 
L 198.963372 112.969453 
L 199.250442 119.365787 
L 199.74539 125.437552 
L 200.299733 129.832509 
L 201.141145 134.421803 
L 201.873669 137.314799 
L 202.952657 140.495498 
L 203.625787 141.732202 
L 204.081139 142.379226 
L 205.684772 144.453458 
L 206.140125 144.896047 
L 206.506387 145.1137 
L 207.575476 145.732208 
L 208.11002 145.87715 
L 208.367393 145.980337 
L 209.614664 146.580473 
L 209.881936 146.527996 
L 210.218501 146.612239 
L 211.554862 146.810768 
L 212.663546 146.878968 
L 212.980314 146.977354 
L 214.583947 146.996903 
L 214.920512 147.083778 
L 215.365965 147.046024 
L 216.227176 147.074108 
L 218.889999 146.919286 
L 219.26616 146.93749 
L 219.464139 146.98371 
L 220.166966 146.817949 
L 220.41444 146.753238 
L 221.255853 146.884728 
L 221.691407 146.920547 
L 222.008174 146.872031 
L 222.473426 146.773855 
L 223.047566 146.971131 
L 223.334636 146.946882 
L 223.908777 146.821573 
L 224.918472 146.801258 
L 225.997459 146.787796 
L 226.244934 146.771098 
L 226.650791 146.833639 
L 227.739678 146.924289 
L 229.907553 146.730611 
L 230.164926 146.753289 
L 230.907349 146.784021 
L 231.3726 146.876874 
L 231.85765 146.765405 
L 232.352598 146.696659 
L 232.659466 146.669424 
L 232.887143 146.672796 
L 233.253404 146.524128 
L 233.441485 146.55344 
L 233.649363 146.633134 
L 233.936433 146.634286 
L 234.401685 146.606891 
L 234.668957 146.569743 
L 234.92633 146.554945 
L 235.500471 146.677917 
L 236.242893 146.564059 
L 236.520065 146.43801 
L 236.737842 146.380212 
L 240.459855 146.666876 
L 240.9845 146.578194 
L 241.192379 146.522867 
L 241.410156 146.505033 
L 242.122882 146.528131 
L 242.301063 146.567953 
L 242.469346 146.536892 
L 243.221667 146.549799 
L 243.538434 146.614619 
L 243.914595 146.607312 
L 244.06308 146.642047 
L 244.290756 146.686855 
L 245.834996 146.453608 
L 246.805095 146.398819 
L 247.032771 146.451623 
L 248.359233 146.536648 
L 248.359233 146.536648 
" clip-path="url(#p85f7011e12)" style="fill: none; stroke: #000000; stroke-opacity: 0.5; stroke-width: 1.5; stroke-linecap: square"/>
   </g>
   <g id="line2d_18">
    <path d="M 45.450142 145.645779 
L 45.727313 145.696439 
L 46.24206 145.786794 
L 46.865695 145.68629 
L 47.063674 145.66458 
L 47.271553 145.627608 
L 48.132763 145.60673 
L 48.875186 145.669767 
L 49.320639 145.741213 
L 49.587912 145.678764 
L 49.865083 145.728373 
L 50.241244 145.659055 
L 50.310536 144.31174 
L 50.439223 134.12755 
L 50.845081 89.837284 
L 51.033161 21.607285 
L 51.082656 25.902587 
L 51.726089 109.193086 
L 51.785483 109.343849 
L 51.844877 109.245102 
L 51.983462 108.521286 
L 52.320027 104.992848 
L 52.755582 98.476603 
L 52.864471 92.178539 
L 53.240632 59.526998 
L 53.290126 60.423719 
L 53.438611 69.707571 
L 53.83457 92.717262 
L 54.082044 96.244222 
L 54.230529 96.608132 
L 54.250327 96.599877 
L 54.359215 96.367485 
L 55.022446 94.04074 
L 56.259817 86.173593 
L 57.111129 79.900129 
L 57.348704 79.485612 
L 57.368502 79.497876 
L 57.467492 79.788623 
L 57.96244 82.373762 
L 58.318803 84.398814 
L 58.536581 84.389094 
L 58.645469 84.357539 
L 58.675166 84.400222 
L 59.3087 85.301153 
L 59.427488 85.213412 
L 59.902639 84.582198 
L 59.942234 84.615866 
L 60.348092 84.899523 
L 60.357991 84.889438 
L 60.585667 84.809427 
L 60.971727 85.032529 
L 61.130111 85.313767 
L 61.337989 85.610568 
L 61.52607 85.667672 
L 61.674554 85.606286 
L 61.912129 85.515813 
L 62.10021 85.851432 
L 62.377381 86.323177 
L 62.506068 86.411587 
L 62.664451 86.422662 
L 62.77334 86.166646 
L 63.100006 85.331726 
L 63.258389 85.172098 
L 63.278187 85.184195 
L 63.426672 85.465895 
L 63.83253 86.038761 
L 63.981014 86.162939 
L 64.466064 86.825665 
L 64.69374 86.703194 
L 65.198588 86.283894 
L 65.436163 86.095971 
L 65.960808 85.675691 
L 66.010303 85.748836 
L 66.604241 86.582556 
L 67.188281 86.971844 
L 67.19818 86.960163 
L 67.821815 86.339428 
L 67.999996 86.402522 
L 68.257369 86.775115 
L 68.34646 86.645154 
L 68.504844 86.628305 
L 68.63353 86.537261 
L 68.742419 86.495529 
L 68.772116 86.523231 
L 69.059186 86.979383 
L 69.336357 87.45728 
L 70.098578 88.240496 
L 70.167871 88.136134 
L 70.326254 88.094887 
L 70.732112 88.060611 
L 71.296353 87.261045 
L 71.731908 86.907989 
L 72.38524 85.517489 
L 72.494129 85.664668 
L 73.63251 87.513695 
L 73.879984 87.935617 
L 74.186853 88.021581 
L 74.315539 87.983315 
L 74.671902 87.528411 
L 74.6917 87.54162 
L 74.850084 87.819057 
L 75.087659 87.953706 
L 75.602405 87.755563 
L 75.93897 87.610125 
L 76.42402 87.997495 
L 76.621999 88.080577 
L 76.71109 88.012935 
L 76.928867 87.780752 
L 76.948665 87.791815 
L 77.077352 87.736076 
L 77.443614 87.33297 
L 77.493109 87.392046 
L 77.641593 87.471343 
L 77.661391 87.455448 
L 78.047451 87.231543 
L 78.63149 87.463388 
L 78.740379 87.386461 
L 78.779975 87.427953 
L 79.78967 88.695282 
L 79.888659 88.626971 
L 80.16583 88.368988 
L 80.175729 88.375925 
L 80.631082 88.626752 
L 80.779567 88.462735 
L 80.928051 88.462041 
L 81.442798 88.839022 
L 81.858554 89.325175 
L 82.036736 89.27817 
L 82.462392 88.665086 
L 82.600977 88.58859 
L 83.105825 87.949336 
L 83.313703 87.947018 
L 83.452289 88.174776 
L 83.521581 88.226562 
L 83.571076 88.171295 
L 83.709662 88.064276 
L 83.739359 88.091238 
L 83.967035 88.203393 
L 84.066025 88.363918 
L 84.244206 88.499845 
L 84.679761 88.195609 
L 84.818346 88.252622 
L 84.937134 88.235335 
L 84.947033 88.221336 
L 85.540971 87.265091 
L 85.630062 87.340593 
L 85.83794 87.247325 
L 86.026021 87.338911 
L 86.412081 88.02856 
L 86.689252 88.406003 
L 86.966423 88.518194 
L 87.174301 88.451039 
L 87.47127 88.567125 
L 87.85733 88.494117 
L 88.174097 88.984357 
L 88.193895 88.97318 
L 88.431471 88.909955 
L 89.055106 89.304802 
L 89.441166 89.062556 
L 89.817326 89.251149 
L 90.094498 89.225544 
L 90.36177 89.225154 
L 90.668638 88.922571 
L 90.767628 89.00548 
L 91.12399 89.452949 
L 91.262576 89.673245 
L 91.42096 89.981772 
L 91.460555 89.938872 
L 91.70803 89.724063 
L 91.826817 89.495422 
L 92.133685 89.079035 
L 92.450452 88.838193 
L 92.648432 88.713533 
L 92.836512 88.663838 
L 93.024593 88.345705 
L 93.321562 88.010983 
L 93.796712 87.537263 
L 93.81651 87.556246 
L 94.01449 87.654625 
L 94.024389 87.644385 
L 94.558933 87.10729 
L 94.578731 87.128964 
L 94.727216 87.288607 
L 94.77671 87.240852 
L 95.123174 87.043462 
L 95.301356 87.005781 
L 95.469638 86.995341 
L 95.826001 87.128436 
L 95.994284 87.110022 
L 96.479333 87.126733 
L 96.70701 86.853541 
L 96.835696 86.993845 
L 97.112867 87.232292 
L 97.271251 87.257586 
L 97.439533 87.254812 
L 97.696907 86.997576 
L 97.736503 87.03599 
L 98.290845 87.507554 
L 98.419532 87.633477 
L 98.835288 87.91503 
L 99.656903 87.686856 
L 100.092457 87.188786 
L 100.26074 87.122545 
L 100.656699 86.775743 
L 101.131849 86.841976 
L 101.250637 86.794262 
L 101.428818 86.604678 
L 101.478313 86.680358 
L 101.834676 87.271144 
L 103.279926 88.371615 
L 103.656087 88.480536 
L 104.269823 89.119329 
L 104.477701 89.163133 
L 104.735075 89.510974 
L 104.97265 89.613361 
L 105.200326 89.607902 
L 105.408204 89.592266 
L 105.665578 89.671126 
L 105.913052 89.74353 
L 106.477293 89.578695 
L 106.615879 89.902215 
L 106.843555 90.483189 
L 106.89305 90.441406 
L 107.387999 89.711868 
L 107.486988 89.805419 
L 107.66517 89.808343 
L 108.269007 89.618186 
L 108.664966 89.243946 
L 108.892642 89.28177 
L 109.120318 89.290531 
L 109.318298 89.079667 
L 109.367793 89.123254 
L 109.555873 89.198997 
L 109.575671 89.172307 
L 109.87264 88.877437 
L 110.120114 88.543704 
L 110.387386 88.33033 
L 110.486376 88.426893 
L 111.139708 89.552288 
L 111.327789 89.640016 
L 111.723747 90.00756 
L 111.763343 89.952081 
L 112.010818 89.753284 
L 112.169201 89.702961 
L 112.426574 89.519189 
L 112.941321 89.355673 
L 113.168997 89.220263 
L 113.386774 89.129817 
L 113.81243 88.839889 
L 113.990612 88.562764 
L 114.040106 88.621612 
L 114.307379 88.898693 
L 114.68354 88.790729 
L 114.940913 88.323755 
L 115.376467 87.3359 
L 115.633841 87.225646 
L 115.950608 86.891348 
L 116.049597 86.968164 
L 116.396061 87.349953 
L 116.742525 87.407567 
L 116.910808 87.603563 
L 117.168181 87.934847 
L 117.484948 87.903555 
L 117.75222 87.941845 
L 118.227371 88.445355 
L 118.821309 88.952753 
L 119.108379 89.045021 
L 119.781509 89.454874 
L 119.910196 89.527151 
L 120.335852 90.020766 
L 120.454639 89.926706 
L 120.593225 89.855544 
L 120.613023 89.871211 
L 120.811002 90.006825 
L 120.850598 89.945393 
L 121.147567 89.606323 
L 121.355445 89.475799 
L 121.484132 89.405607 
L 121.870192 89.269021 
L 122.543322 89.399256 
L 122.672008 89.366039 
L 123.008573 89.214858 
L 123.216452 89.243098 
L 123.404532 89.173239 
L 123.988572 89.481481 
L 124.107359 89.387135 
L 124.38453 88.861171 
L 124.443924 88.904174 
L 124.562712 88.905899 
L 124.58251 88.880146 
L 125.295236 88.028845 
L 125.780285 88.226115 
L 125.958467 88.220679 
L 126.235638 88.35243 
L 126.453415 88.333877 
L 126.819677 88.719512 
L 127.36412 88.976311 
L 127.532403 89.154902 
L 127.839271 89.336601 
L 127.94816 89.290725 
L 127.987755 89.3484 
L 128.413411 89.946838 
L 128.62129 90.11198 
L 128.650986 90.0835 
L 128.759875 90.052816 
L 128.789572 90.084636 
L 128.957855 90.119706 
L 129.601288 89.75231 
L 129.828964 89.722994 
L 130.096236 89.36438 
L 130.165529 89.463694 
L 130.403104 89.675464 
L 130.571387 89.70847 
L 130.957447 90.169514 
L 130.987143 90.136114 
L 131.422698 89.611991 
L 131.670172 89.623031 
L 131.927546 89.766726 
L 132.224515 90.0639 
L 133.075826 89.715649 
L 133.214412 89.657461 
L 133.382694 89.620865 
L 133.531179 89.570356 
L 133.818249 89.362293 
L 134.253804 89.260174 
L 134.58047 89.104317 
L 134.709156 88.937502 
L 134.966529 88.720004 
L 135.174408 88.313241 
L 135.322892 88.275403 
L 135.491175 88.196493 
L 136.124709 87.576833 
L 136.461274 87.544961 
L 136.718647 87.694969 
L 137.183899 88.015658 
L 137.441272 88.298808 
L 137.926322 88.569662 
L 138.074806 88.51475 
L 138.252988 88.488396 
L 138.916219 89.309749 
L 139.213188 89.708234 
L 139.777429 90.338555 
L 139.995206 90.553009 
L 140.470357 90.981253 
L 140.688134 91.185699 
L 140.995002 91.199405 
L 141.331567 91.19475 
L 141.608738 90.825255 
L 141.895809 90.542876 
L 142.687726 89.776597 
L 142.885706 89.615208 
L 143.044089 89.560063 
L 143.212372 89.519919 
L 143.380654 89.493574 
L 144.182471 88.795866 
L 144.311157 88.606608 
L 144.47944 88.386671 
L 144.519036 88.423035 
L 144.786308 88.630646 
L 145.489135 88.429837 
L 145.657417 88.675548 
L 146.370143 89.396298 
L 146.380042 89.386632 
L 146.578021 89.334942 
L 146.934384 89.46684 
L 147.310545 89.231268 
L 148.409331 89.555984 
L 148.597411 89.573546 
L 149.131956 89.48105 
L 149.270541 89.45162 
L 149.527915 89.260666 
L 149.686298 89.323949 
L 149.894176 89.466443 
L 150.418822 89.096664 
L 150.695993 88.691818 
L 150.953366 88.46231 
L 151.141447 88.2993 
L 151.39882 88.164056 
L 152.101647 87.51027 
L 152.141243 87.555604 
L 152.428313 88.092354 
L 152.903463 88.607155 
L 153.576593 88.379531 
L 153.734977 88.472742 
L 154.239824 88.986424 
L 154.259622 88.96631 
L 154.408107 88.840685 
L 154.447703 88.889947 
L 154.56649 88.965605 
L 154.596187 88.935904 
L 154.823864 88.824762 
L 155.249519 89.018926 
L 155.576185 89.30967 
L 155.91275 89.541226 
L 156.090932 89.56148 
L 156.259214 89.716655 
L 156.615577 89.878353 
L 156.754163 89.971994 
L 157.496586 90.736921 
L 157.684666 90.790623 
L 157.833151 90.789473 
L 158.011332 90.855152 
L 158.357796 90.994052 
L 158.367695 90.979744 
L 159.327895 89.586678 
L 159.515976 89.283282 
L 159.882237 88.686198 
L 160.119813 88.521511 
L 160.486075 88.616679 
L 160.763246 88.174199 
L 160.931528 88.153012 
L 161.78284 88.744034 
L 161.97092 88.654134 
L 162.159001 88.516482 
L 162.188697 88.560316 
L 162.564858 89.132963 
L 162.950918 89.028595 
L 163.247887 88.636595 
L 163.307281 88.692003 
L 163.525058 88.765785 
L 163.713139 88.862689 
L 164.069502 89.275308 
L 164.0893 89.260547 
L 164.237784 89.191731 
L 164.267481 89.229604 
L 164.534753 89.459332 
L 164.782228 89.489672 
L 165.069298 89.773459 
L 165.326671 90.192806 
L 165.395964 90.130699 
L 165.534549 90.144676 
L 166.019599 90.562161 
L 166.148286 90.427179 
L 166.346265 90.300828 
L 166.58384 90.265773 
L 167.227273 89.946683 
L 167.920201 90.416309 
L 168.21717 90.430997 
L 168.355756 90.453297 
L 168.553735 90.505701 
L 169.711915 89.951657 
L 170.058379 89.868293 
L 170.592923 89.137723 
L 170.761206 88.641897 
L 171.077973 87.959077 
L 171.216558 87.856999 
L 171.454134 87.638047 
L 172.147061 87.399513 
L 172.661808 87.793808 
L 172.839989 87.806874 
L 173.206251 88.246094 
L 173.443827 88.558585 
L 173.622008 88.540917 
L 173.829886 88.498883 
L 175.037561 88.653665 
L 175.245439 88.502873 
L 175.463216 88.501522 
L 175.750287 88.421332 
L 175.987862 88.479922 
L 176.19574 88.491276 
L 176.364023 88.366543 
L 176.453114 88.316169 
L 176.492709 88.363254 
L 176.839173 88.757251 
L 176.987658 88.809061 
L 177.274728 89.047927 
L 177.532101 88.781824 
L 177.819171 88.443293 
L 177.967656 88.353916 
L 177.987454 88.367157 
L 178.106242 88.328341 
L 178.264625 88.302134 
L 179.056543 88.49758 
L 179.214926 88.411197 
L 179.432704 88.256506 
L 180.066238 88.609594 
L 180.90765 89.593517 
L 181.778759 89.103999 
L 181.887648 89.023482 
L 181.927244 89.060591 
L 182.273708 89.317507 
L 182.412294 89.278311 
L 182.491485 89.298152 
L 182.511283 89.329003 
L 182.709263 89.460412 
L 183.332898 89.51049 
L 183.550675 89.546965 
L 183.867442 89.532141 
L 184.015927 89.459877 
L 184.243603 89.306645 
L 184.263401 89.324299 
L 185.04542 89.922657 
L 185.471075 89.92286 
L 185.71855 90.071061 
L 185.748247 90.035459 
L 186.144205 89.640298 
L 186.154104 89.647722 
L 186.57976 89.890966 
L 186.926224 89.971918 
L 187.173698 90.02783 
L 187.35188 90.120791 
L 187.500364 90.154974 
L 187.916121 90.03124 
L 188.034909 89.992121 
L 188.242787 89.85841 
L 188.391272 89.620465 
L 188.727837 89.179983 
L 188.876321 89.249714 
L 189.321775 89.169403 
L 189.806824 88.629715 
L 190.321571 88.11464 
L 190.361167 88.180073 
L 190.697732 88.654773 
L 190.925408 88.667483 
L 191.271872 88.423241 
L 191.281771 88.433259 
L 191.420356 88.750567 
L 191.57874 89.028398 
L 191.618336 88.995423 
L 191.846012 88.853356 
L 192.024194 89.101017 
L 192.25187 89.430851 
L 192.281567 89.410718 
L 192.548839 89.303132 
L 192.697324 89.330614 
L 193.489241 89.894263 
L 193.835705 89.964905 
L 194.27126 90.436942 
L 194.439542 90.475801 
L 194.617724 90.549165 
L 194.983986 90.485801 
L 195.280955 90.697942 
L 195.795701 90.587229 
L 196.062973 90.535658 
L 196.231256 90.49421 
L 197.993273 88.832469 
L 198.230848 88.922809 
L 198.418928 88.89533 
L 198.59711 89.068231 
L 198.735695 89.427034 
L 198.804988 91.011792 
L 198.973271 104.142564 
L 199.240543 114.586902 
L 199.676098 123.049745 
L 200.190844 129.22912 
L 200.794681 134.069613 
L 201.566801 138.335245 
L 202.24983 140.842707 
L 203.318919 143.52964 
L 203.992049 144.575282 
L 204.853259 145.552875 
L 205.03144 145.731955 
L 205.437298 146.159611 
L 205.912449 146.425423 
L 207.694263 147.473259 
L 208.39709 147.623894 
L 208.78315 147.75213 
L 210.040319 148.093911 
L 210.743146 148.209694 
L 211.119307 148.340569 
L 211.614256 148.302597 
L 213.39607 148.213704 
L 213.564353 148.213957 
L 213.851423 148.222777 
L 215.474854 148.205557 
L 215.643136 148.18092 
L 215.90051 148.135995 
L 216.108388 148.071183 
L 216.692427 147.971234 
L 217.24677 147.925568 
L 217.593234 148.017185 
L 217.801112 147.90337 
L 217.929799 147.92107 
L 218.117879 147.935112 
L 220.087774 148.043167 
L 222.166558 147.904346 
L 222.414032 147.888857 
L 223.908777 147.89698 
L 224.938269 147.837188 
L 225.611399 147.78266 
L 225.809379 147.814267 
L 226.848771 147.79164 
L 227.106144 147.79365 
L 227.561497 147.782786 
L 227.977253 147.729049 
L 228.254425 147.750431 
L 228.749373 147.674344 
L 229.175029 147.61034 
L 230.02634 147.605556 
L 230.521289 147.571973 
L 230.996439 147.493809 
L 231.214217 147.574983 
L 231.639872 147.678616 
L 233.758252 147.368761 
L 234.154211 147.239937 
L 234.510574 147.270434 
L 235.173805 147.342922 
L 235.926126 147.422347 
L 236.252792 147.433488 
L 236.589357 147.372915 
L 237.559456 147.098223 
L 238.1039 147.135548 
L 239.697634 147.271502 
L 240.004502 147.272856 
L 240.9845 147.164422 
L 241.85561 147.013526 
L 242.14268 147.001443 
L 245.290552 146.922187 
L 245.617218 146.843417 
L 245.874591 146.860612 
L 246.428934 146.876765 
L 248.359233 146.885627 
L 248.359233 146.885627 
" clip-path="url(#p85f7011e12)" style="fill: none; stroke: #000000; stroke-opacity: 0.5; stroke-width: 1.5; stroke-linecap: square"/>
   </g>
   <g id="line2d_19">
    <path d="M 45.450142 147.260159 
L 46.04408 147.208599 
L 46.91519 147.106169 
L 47.172563 147.149741 
L 47.410138 147.156585 
L 48.310944 147.253113 
L 48.54852 147.197954 
L 48.993973 147.205454 
L 49.944275 147.28197 
L 50.231345 147.05175 
L 50.290738 145.677545 
L 50.379829 135.987521 
L 50.617404 76.436376 
L 50.795586 14.76 
L 50.835182 17.647661 
L 51.082656 63.926964 
L 51.349928 91.014806 
L 51.498413 93.155215 
L 51.518211 93.130602 
L 51.607302 92.578236 
L 51.81518 89.599619 
L 52.052755 82.814852 
L 52.399219 69.71208 
L 52.438815 69.80369 
L 52.5873 71.163932 
L 53.181238 77.497872 
L 53.220834 77.482602 
L 53.359419 77.249182 
L 53.537601 76.467913 
L 53.874166 74.989801 
L 54.40871 73.254193 
L 54.428508 73.267426 
L 54.5077 73.617115 
L 54.844265 75.144691 
L 55.052143 75.482882 
L 55.101638 75.43501 
L 55.448102 75.128627 
L 55.814364 74.902965 
L 56.032141 74.410938 
L 56.121232 74.568892 
L 56.388504 75.01013 
L 56.408302 75.000306 
L 56.546888 74.766836 
L 57.022038 74.034607 
L 57.259613 74.007141 
L 57.427896 74.410677 
L 57.655572 74.696996 
L 57.96244 75.109777 
L 58.269308 75.60525 
L 58.3485 75.505285 
L 58.615772 75.359399 
L 58.803853 75.435968 
L 58.902843 75.430896 
L 58.92264 75.403977 
L 59.071125 75.3061 
L 59.100822 75.330885 
L 59.3087 75.395271 
L 59.625467 75.101193 
L 59.674962 75.181708 
L 59.952133 75.60049 
L 59.98183 75.579246 
L 60.199608 75.209795 
L 60.357991 74.886293 
L 60.407486 74.947971 
L 61.04102 75.913484 
L 61.189505 76.299831 
L 61.466676 76.787157 
L 61.575564 76.86136 
L 61.61516 76.818767 
L 61.793342 76.764146 
L 61.892332 76.580685 
L 62.228897 75.783965 
L 62.248694 75.794252 
L 62.426876 75.79408 
L 62.595158 75.792282 
L 62.694148 75.701546 
L 62.921824 75.467535 
L 63.010915 75.375021 
L 63.139602 75.048252 
L 63.189097 75.132908 
L 63.555359 75.875401 
L 63.723641 75.993871 
L 64.178994 76.699963 
L 64.485862 76.691931 
L 64.782831 76.196211 
L 64.832326 76.239113 
L 65.040204 76.350657 
L 65.050103 76.341132 
L 65.436163 75.957767 
L 65.485658 76.025034 
L 65.990505 76.719269 
L 66.178586 76.471587 
L 66.633938 75.709108 
L 66.762625 75.759892 
L 67.019998 76.48953 
L 67.406058 77.037201 
L 67.554542 76.960172 
L 67.712926 76.909156 
L 67.722825 76.917297 
L 68.019794 77.03173 
L 68.128683 77.122651 
L 68.811712 77.97134 
L 69.158176 77.746923 
L 69.395751 77.414985 
L 69.831306 77.727591 
L 70.058982 78.078257 
L 70.207466 78.055817 
L 70.454941 77.809771 
L 70.504436 77.890982 
L 70.831102 78.330253 
L 71.108273 78.45202 
L 71.276555 78.161074 
L 71.494333 77.864332 
L 71.890291 77.670703 
L 71.90019 77.684059 
L 72.157564 77.879357 
L 72.256553 77.716929 
L 72.464432 77.454589 
L 72.603017 77.507978 
L 73.365238 78.658708 
L 73.563217 78.693484 
L 73.701803 78.632755 
L 74.335337 78.233983 
L 74.493721 78.264598 
L 74.50362 78.25351 
L 74.760993 78.109038 
L 75.018366 78.162557 
L 75.216345 78.155607 
L 75.394527 78.044285 
L 75.671698 77.845731 
L 75.820183 77.902685 
L 76.235939 78.33319 
L 76.473515 78.430359 
L 76.582403 78.512982 
L 76.621999 78.458583 
L 77.008059 77.914798 
L 77.136746 77.961838 
L 77.324826 78.052981 
L 77.790078 78.052369 
L 77.978158 78.084627 
L 78.463208 78.554394 
L 78.581995 78.399656 
L 78.680985 78.3402 
L 78.720581 78.371517 
L 78.82947 78.379865 
L 78.849267 78.353762 
L 79.344216 77.763499 
L 79.453105 77.565954 
L 79.651084 77.156815 
L 79.680781 77.172985 
L 79.799569 77.445503 
L 79.908457 77.557379 
L 79.948053 77.53618 
L 80.205426 77.51636 
L 80.759769 78.198278 
L 80.848859 78.090065 
L 81.294313 77.643788 
L 81.482394 77.625666 
L 81.680373 78.015807 
L 81.89815 78.267545 
L 82.313907 78.23381 
L 82.57128 78.129745 
L 82.739563 78.085887 
L 82.927643 77.981291 
L 82.947441 78.001771 
L 83.086027 78.098228 
L 83.125623 78.04538 
L 83.284006 77.803117 
L 83.333501 77.852099 
L 83.759157 78.27456 
L 84.026429 78.25465 
L 84.234307 78.155371 
L 84.659963 78.366754 
L 84.778751 78.475345 
L 84.818346 78.42464 
L 85.135114 78.059839 
L 85.74885 78.140459 
L 85.996324 77.833694 
L 86.372485 77.867849 
L 86.51107 78.211209 
L 86.857534 78.954285 
L 87.006019 79.185599 
L 87.045615 79.135121 
L 87.372281 78.668034 
L 87.38218 78.673029 
L 87.510866 78.653284 
L 87.520765 78.632794 
L 87.85733 78.10194 
L 88.302784 78.1163 
L 89.065005 78.487061 
L 89.332277 78.689506 
L 89.451065 78.779234 
L 89.639145 78.836945 
L 89.767832 78.789016 
L 89.965811 78.461098 
L 90.015306 78.510909 
L 90.569648 79.213471 
L 90.728032 79.303156 
L 90.866617 79.365241 
L 90.896314 79.333816 
L 91.104193 79.26401 
L 91.282374 79.155139 
L 91.668434 78.657007 
L 91.767424 78.735102 
L 92.044595 79.302706 
L 92.103989 79.269639 
L 92.242574 79.305321 
L 92.440554 79.376169 
L 92.915704 79.23532 
L 93.014694 79.143944 
L 93.331461 78.520062 
L 93.371057 78.557349 
L 93.806611 78.94737 
L 94.192671 78.920166 
L 94.380752 79.293571 
L 94.667822 79.70309 
L 94.954892 79.890416 
L 95.133073 79.752639 
L 95.400346 79.577174 
L 95.727012 79.374912 
L 96.132869 79.131131 
L 96.281354 79.180295 
L 96.528828 79.235355 
L 96.667414 79.328061 
L 96.825797 79.337163 
L 97.033676 79.119517 
L 97.102968 79.221993 
L 97.221756 79.222301 
L 97.231655 79.213965 
L 97.884987 78.794265 
L 98.112663 78.951316 
L 98.280946 78.932515 
L 98.518521 78.734146 
L 98.716501 78.511872 
L 98.756097 78.556051 
L 99.082763 78.906241 
L 99.350035 78.977859 
L 99.637105 79.314053 
L 99.904377 79.603646 
L 99.943973 79.553635 
L 100.349831 78.697234 
L 100.537911 78.336809 
L 100.557709 78.343146 
L 100.993264 78.634242 
L 101.517909 78.929187 
L 101.804979 78.855855 
L 101.884171 78.778159 
L 102.260332 78.087566 
L 102.398918 77.949237 
L 102.626594 77.70689 
L 102.646392 77.722043 
L 102.883967 78.101533 
L 103.161138 78.316178 
L 103.33932 78.335943 
L 103.497703 78.393296 
L 103.62639 78.369149 
L 103.794672 78.366524 
L 104.022349 78.521665 
L 104.180732 78.711588 
L 104.705378 79.433538 
L 104.893458 79.563329 
L 105.061741 79.739342 
L 105.101336 79.711789 
L 105.239922 79.741786 
L 105.526992 80.006788 
L 105.556689 79.973929 
L 105.93285 79.587451 
L 106.516889 79.477374 
L 106.645576 79.535481 
L 106.675273 79.502412 
L 106.942545 79.289568 
L 107.071231 79.152338 
L 107.298908 78.937582 
L 107.318706 78.954755 
L 107.506786 79.126109 
L 107.556281 79.059677 
L 107.843351 78.769675 
L 108.041331 78.65857 
L 108.397693 78.673317 
L 108.52638 78.612668 
L 108.664966 78.536609 
L 108.694663 78.571576 
L 109.130217 79.096989 
L 109.338096 79.052007 
L 109.347995 79.067732 
L 109.565772 79.226842 
L 109.852842 79.101561 
L 110.169609 78.544763 
L 110.219104 78.592751 
L 110.308195 78.608817 
L 110.337892 78.566134 
L 110.565568 78.272395 
L 110.595265 78.295444 
L 111.11991 78.679128 
L 111.258496 78.728965 
L 111.575263 78.970934 
L 111.812838 79.218396 
L 111.832636 79.205582 
L 112.070211 79.170801 
L 112.495867 79.309952 
L 112.505766 79.289916 
L 112.971018 78.133996 
L 113.089805 78.296753 
L 113.347179 78.60073 
L 113.951016 78.615354 
L 114.346975 78.925947 
L 114.48556 79.015229 
L 114.68354 79.15843 
L 114.841923 79.002225 
L 115.049801 78.853736 
L 115.247781 78.901226 
L 115.416063 79.107808 
L 115.574447 79.198925 
L 115.584346 79.192521 
L 115.713032 78.971406 
L 116.059496 78.239645 
L 116.069395 78.243533 
L 116.257476 78.486049 
L 116.366364 78.514238 
L 116.396061 78.486631 
L 116.544546 78.496688 
L 117.088989 79.139491 
L 117.286969 79.433917 
L 117.623534 79.481215 
L 117.979897 79.266463 
L 118.088785 79.127317 
L 118.276866 78.972134 
L 118.494643 79.062619 
L 118.662926 79.225727 
L 118.702521 79.175222 
L 118.860905 79.068716 
L 118.880703 79.08094 
L 119.029187 79.060361 
L 119.702317 78.198173 
L 120.127973 78.051696 
L 120.266559 78.088516 
L 120.276458 78.080609 
L 120.514033 78.014802 
L 121.276254 78.54042 
L 121.741505 78.347614 
L 121.909788 78.538708 
L 122.266151 78.798626 
L 122.761099 79.11304 
L 122.780897 79.08719 
L 123.176856 78.487834 
L 123.246149 78.544804 
L 123.434229 78.943506 
L 123.929178 79.696044 
L 124.09746 79.772306 
L 124.127157 79.726649 
L 124.562712 78.938753 
L 124.632005 79.016418 
L 124.998266 79.364573 
L 125.404124 79.331249 
L 125.513013 79.346707 
L 125.532811 79.327602 
L 125.770386 79.216467 
L 125.92877 79.191293 
L 126.69099 78.788703 
L 126.928566 78.776196 
L 127.443312 78.198711 
L 127.482908 78.25265 
L 127.700685 78.495572 
L 127.730382 78.471377 
L 127.94816 78.383333 
L 128.086745 78.624408 
L 128.23523 78.681482 
L 128.383714 78.755675 
L 128.631189 79.089946 
L 128.700481 78.984358 
L 128.938057 78.765382 
L 129.284521 78.823003 
L 129.38351 78.796763 
L 129.413207 78.832691 
L 129.809166 79.247171 
L 130.116034 79.244536 
L 130.244721 79.299003 
L 130.630781 79.563635 
L 131.472193 79.031392 
L 131.650374 79.032725 
L 132.165121 78.985552 
L 132.471989 79.159294 
L 132.640271 79.128416 
L 132.788756 79.193017 
L 132.966937 79.283464 
L 132.986735 79.261978 
L 133.501482 78.573632 
L 133.550977 78.625795 
L 133.748956 78.715564 
L 133.937037 78.682971 
L 133.956834 78.721862 
L 134.224107 79.105594 
L 134.243905 79.094769 
L 134.471581 78.998904 
L 134.491379 79.029659 
L 134.639863 79.227429 
L 134.689358 79.173284 
L 134.966529 78.956083 
L 135.164509 78.88922 
L 135.510973 79.064471 
L 135.699053 79.028716 
L 135.92673 79.025205 
L 136.520668 78.661525 
L 136.530567 78.67469 
L 137.154202 79.378827 
L 137.282888 79.117188 
L 137.411575 78.988697 
L 137.441272 79.007899 
L 137.659049 79.0511 
L 138.084705 78.9922 
L 138.292583 79.061135 
L 138.787532 79.18123 
L 139.28248 79.653278 
L 139.708136 79.29105 
L 139.975408 78.753417 
L 140.678235 77.935826 
L 140.806922 78.109354 
L 141.410759 79.294539 
L 141.658233 79.392965 
L 141.777021 79.491685 
L 141.816617 79.456052 
L 141.994798 79.406575 
L 142.123485 79.332521 
L 142.410555 78.772808 
L 142.608534 78.615945 
L 142.707524 78.518229 
L 142.836211 78.435784 
L 142.865908 78.461402 
L 143.073786 78.87855 
L 143.32126 79.341002 
L 143.350957 79.318748 
L 143.667724 79.080241 
L 143.677623 79.089474 
L 143.836007 79.43221 
L 144.063683 79.665852 
L 145.004085 79.399965 
L 145.221863 79.351582 
L 145.330751 79.382992 
L 145.360448 79.34385 
L 145.528731 79.143883 
L 145.568327 79.195368 
L 145.8257 79.463357 
L 145.964285 79.540024 
L 146.073174 79.472359 
L 146.30085 79.343208 
L 146.805698 79.114574 
L 146.934384 79.050281 
L 146.954182 79.07064 
L 147.132364 79.231547 
L 147.181859 79.185699 
L 147.696605 78.790789 
L 147.726302 78.832977 
L 148.221251 79.60793 
L 148.241048 79.59611 
L 148.666704 79.162976 
L 149.042865 78.816074 
L 149.557612 78.467966 
L 149.577409 78.493994 
L 149.904075 78.767442 
L 150.121853 78.789101 
L 150.567306 79.329876 
L 150.884074 79.21737 
L 151.11175 78.967497 
L 151.250335 79.167032 
L 151.428517 79.290311 
L 151.438416 79.283476 
L 151.705688 79.167139 
L 151.715587 79.179898 
L 152.052152 79.821022 
L 152.250131 79.948621 
L 152.448111 79.8271 
L 152.616393 79.702502 
L 152.636191 79.718396 
L 152.824272 79.85563 
L 152.863868 79.802331 
L 153.180635 79.478312 
L 153.329119 79.528251 
L 153.60629 79.802834 
L 153.695381 79.5943 
L 154.022047 78.816973 
L 154.56649 78.887636 
L 154.794167 78.975945 
L 155.041641 79.015139 
L 155.140631 79.18404 
L 155.368307 79.454678 
L 155.645478 79.490985 
L 155.892952 79.606203 
L 156.427497 79.302676 
L 156.724466 79.281479 
L 157.061031 78.810043 
L 157.07093 78.816582 
L 157.318404 78.880748 
L 157.555979 78.804368 
L 157.912342 79.056149 
L 158.041029 79.062906 
L 158.050928 79.076253 
L 158.367695 79.41543 
L 158.397392 79.393162 
L 158.545876 79.41632 
L 158.842846 79.557648 
L 158.852745 79.545161 
L 158.99133 79.342301 
L 159.040825 79.432153 
L 159.288299 79.803044 
L 159.793147 79.696605 
L 160.367287 79.683091 
L 160.535569 79.713285 
L 160.713751 79.677018 
L 160.921629 79.662117 
L 161.020619 79.694333 
L 161.050316 79.656921 
L 161.159205 79.592675 
L 161.1988 79.627463 
L 161.545264 79.796035 
L 161.733345 79.797176 
L 161.852132 79.734428 
L 162.079809 79.51555 
L 162.218394 79.711537 
L 162.505465 80.055858 
L 162.515363 80.049226 
L 162.762838 79.701426 
L 163.049908 79.423129 
L 163.277584 79.364463 
L 163.713139 78.991604 
L 163.940815 79.224506 
L 164.227885 79.342623 
L 164.782228 78.853091 
L 165.019803 78.876476 
L 165.445459 78.931743 
L 165.643438 79.000179 
L 166.019599 79.365761 
L 166.207679 79.401288 
L 166.346265 79.337185 
L 166.732325 79.060389 
L 166.851112 79.155742 
L 167.167879 79.569799 
L 167.177778 79.564568 
L 167.860807 79.03384 
L 168.207271 78.662646 
L 168.21717 78.670038 
L 168.682422 78.940471 
L 168.811109 79.036992 
L 169.37535 80.011133 
L 169.583228 79.798201 
L 170.028682 79.490307 
L 170.295954 79.29584 
L 170.503832 79.200117 
L 170.642418 79.441064 
L 170.929488 79.979411 
L 170.978983 79.928368 
L 171.365043 79.57966 
L 171.454134 79.618156 
L 171.464033 79.635502 
L 171.68181 79.826636 
L 171.840193 79.957412 
L 172.127264 80.198523 
L 172.15696 80.166444 
L 172.45393 79.618848 
L 172.681606 79.280974 
L 172.839989 79.159066 
L 173.305241 78.269828 
L 173.41413 78.223015 
L 173.443827 78.268639 
L 173.730897 78.629561 
L 173.899179 78.726221 
L 174.245643 78.806744 
L 174.592107 78.457161 
L 174.819783 78.072741 
L 174.84948 78.090444 
L 175.116753 78.514888 
L 175.453318 79.116319 
L 176.017559 79.402365 
L 176.591699 80.154659 
L 176.898567 79.924006 
L 177.15594 79.687121 
L 177.492505 79.625532 
L 177.571697 79.651603 
L 177.611293 79.608071 
L 177.769677 79.582319 
L 177.908262 79.548416 
L 178.046848 79.576952 
L 178.185433 79.531659 
L 178.472503 79.175854 
L 178.551695 79.280994 
L 178.729877 79.463707 
L 178.769473 79.436567 
L 178.88826 79.498862 
L 179.036745 79.503907 
L 179.254522 79.498684 
L 179.383209 79.457849 
L 179.66038 79.317729 
L 180.194924 79.430338 
L 180.422601 78.994158 
L 180.640378 78.719344 
L 181.115528 78.778054 
L 181.372902 78.547819 
L 181.749063 78.637029 
L 182.15492 79.246977 
L 182.194516 79.215494 
L 182.748859 78.807052 
L 182.877545 78.748566 
L 183.481382 78.182229 
L 183.610069 78.275342 
L 184.609865 79.137295 
L 185.263197 78.668497 
L 185.372086 78.810418 
L 185.817539 79.488325 
L 185.995721 79.441603 
L 186.154104 79.120549 
L 186.431275 78.785387 
L 187.005416 78.932371 
L 187.35188 78.895868 
L 187.559758 78.917968 
L 187.688445 79.005033 
L 188.143797 79.740168 
L 188.272484 79.606466 
L 188.648645 78.985065 
L 188.708039 79.024098 
L 188.995109 79.261652 
L 189.361371 80.019589 
L 189.866218 80.194636 
L 190.014703 80.204094 
L 190.311672 80.127704 
L 190.668035 80.31836 
L 190.80662 80.032181 
L 191.083791 79.599727 
L 191.331266 79.529797 
L 191.925204 78.488004 
L 192.202375 78.764663 
L 192.489445 79.051413 
L 192.796313 79.228558 
L 192.974495 79.432243 
L 192.994293 79.41707 
L 193.479342 78.922887 
L 193.518938 78.980425 
L 193.865402 79.524346 
L 194.013887 79.421761 
L 194.27126 79.226467 
L 194.479138 79.219553 
L 194.617724 79.29976 
L 194.924592 79.844184 
L 195.191864 80.066834 
L 195.320551 79.959644 
L 196.053074 79.003458 
L 196.171862 79.201999 
L 196.518326 79.723322 
L 196.538124 79.708021 
L 196.7658 79.288689 
L 196.973679 79.050836 
L 196.993477 79.062754 
L 197.161759 79.044695 
L 197.339941 78.900267 
L 197.567617 78.515764 
L 197.587415 78.528041 
L 197.745798 78.853223 
L 197.943778 78.948846 
L 198.201151 79.067178 
L 198.418928 79.359298 
L 198.438726 79.346687 
L 198.636706 79.268121 
L 198.656504 79.295264 
L 198.725796 79.597813 
L 198.795089 81.894493 
L 198.923776 98.82076 
L 199.151452 116.098327 
L 199.507815 125.575978 
L 199.973067 132.293225 
L 200.468015 136.801211 
L 201.071852 140.348214 
L 202.05185 143.809889 
L 202.655688 145.068026 
L 203.992049 146.725323 
L 204.318715 146.998072 
L 204.833461 147.38282 
L 205.496692 147.730512 
L 205.853055 147.903622 
L 206.486589 148.287756 
L 208.060525 148.535163 
L 208.238707 148.582291 
L 208.892039 148.688346 
L 209.545371 148.719095 
L 210.654056 148.949222 
L 211.030216 148.883797 
L 211.544963 148.887286 
L 211.950821 148.80824 
L 215.761924 148.802119 
L 216.18758 148.702421 
L 217.108184 148.703859 
L 217.415052 148.743841 
L 218.10798 148.702051 
L 218.444545 148.754427 
L 218.889999 148.787665 
L 219.206766 148.711847 
L 219.533432 148.700832 
L 220.048178 148.61199 
L 221.127166 148.570604 
L 221.622114 148.645976 
L 222.018073 148.608383 
L 222.681304 148.713226 
L 223.017869 148.75552 
L 223.20595 148.683544 
L 223.39403 148.650273 
L 225.472814 148.634179 
L 225.809379 148.589472 
L 226.066752 148.592188 
L 226.47261 148.600512 
L 226.690387 148.621163 
L 227.24473 148.647187 
L 227.630789 148.602253 
L 228.125738 148.543142 
L 228.422707 148.499982 
L 228.759272 148.447716 
L 230.808359 148.476616 
L 231.144924 148.494525 
L 231.590377 148.469376 
L 233.342495 148.438282 
L 233.995827 148.436794 
L 234.431382 148.471436 
L 234.73825 148.463785 
L 237.90592 148.402211 
L 238.262283 148.406289 
L 238.687939 148.332825 
L 238.915615 148.370124 
L 239.172989 148.467753 
L 239.370968 148.444647 
L 239.945108 148.369527 
L 241.895205 148.300461 
L 242.340659 148.258319 
L 243.092981 148.2581 
L 243.370152 148.30047 
L 243.884898 148.273874 
L 247.181256 148.20385 
L 247.527719 148.270999 
L 248.359233 148.198956 
L 248.359233 148.198956 
" clip-path="url(#p85f7011e12)" style="fill: none; stroke: #000000; stroke-opacity: 0.5; stroke-width: 1.5; stroke-linecap: square"/>
   </g>
   <g id="patch_3">
    <path d="M 35.304688 173.52 
L 35.304688 7.2 
" style="fill: none; stroke: #000000; stroke-width: 0.8; stroke-linejoin: miter; stroke-linecap: square"/>
   </g>
   <g id="patch_4">
    <path d="M 35.304688 173.52 
L 258.504687 173.52 
" style="fill: none; stroke: #000000; stroke-width: 0.8; stroke-linejoin: miter; stroke-linecap: square"/>
   </g>
  </g>
 </g>
 <defs>
  <clipPath id="p85f7011e12">
   <rect x="35.304688" y="7.2" width="223.2" height="166.32"/>
  </clipPath>
 </defs>
</svg>
