<?xml version="1.0" encoding="utf-8" standalone="no"?>
<!DOCTYPE svg PUBLIC "-//W3C//DTD SVG 1.1//EN"
  "http://www.w3.org/Graphics/SVG/1.1/DTD/svg11.dtd">
<svg xmlns:xlink="http://www.w3.org/1999/xlink" width="272.067187pt" height="197.398125pt" viewBox="0 0 272.067187 197.398125" xmlns="http://www.w3.org/2000/svg" version="1.1">
 <metadata>
  <rdf:RDF xmlns:dc="http://purl.org/dc/elements/1.1/" xmlns:cc="http://creativecommons.org/ns#" xmlns:rdf="http://www.w3.org/1999/02/22-rdf-syntax-ns#">
   <cc:Work>
    <dc:type rdf:resource="http://purl.org/dc/dcmitype/StillImage"/>
    <dc:date>2024-09-09T09:59:52.090165</dc:date>
    <dc:format>image/svg+xml</dc:format>
    <dc:creator>
     <cc:Agent>
      <dc:title>Matplotlib v3.9.2, https://matplotlib.org/</dc:title>
     </cc:Agent>
    </dc:creator>
   </cc:Work>
  </rdf:RDF>
 </metadata>
 <defs>
  <style type="text/css">*{stroke-linejoin: round; stroke-linecap: butt}</style>
 </defs>
 <g id="figure_1">
  <g id="patch_1">
   <path d="M 0 197.398125 
L 272.067187 197.398125 
L 272.067187 0 
L 0 0 
z
" style="fill: #ffffff"/>
  </g>
  <g id="axes_1">
   <g id="patch_2">
    <path d="M 41.667188 173.52 
L 264.867188 173.52 
L 264.867188 7.2 
L 41.667188 7.2 
z
" style="fill: #ffffff"/>
   </g>
   <g id="matplotlib.axis_1">
    <g id="xtick_1">
     <g id="line2d_1">
      <defs>
       <path id="m019140a997" d="M 0 0 
L 0 3.5 
" style="stroke: #000000; stroke-width: 0.8"/>
      </defs>
      <g>
       <use xlink:href="#m019140a997" x="54.118453" y="173.52" style="stroke: #000000; stroke-width: 0.8"/>
      </g>
     </g>
     <g id="text_1">
      <!-- 0.5 -->
      <g transform="translate(46.166891 188.118438) scale(0.1 -0.1)">
       <defs>
        <path id="DejaVuSans-30" d="M 2034 4250 
Q 1547 4250 1301 3770 
Q 1056 3291 1056 2328 
Q 1056 1369 1301 889 
Q 1547 409 2034 409 
Q 2525 409 2770 889 
Q 3016 1369 3016 2328 
Q 3016 3291 2770 3770 
Q 2525 4250 2034 4250 
z
M 2034 4750 
Q 2819 4750 3233 4129 
Q 3647 3509 3647 2328 
Q 3647 1150 3233 529 
Q 2819 -91 2034 -91 
Q 1250 -91 836 529 
Q 422 1150 422 2328 
Q 422 3509 836 4129 
Q 1250 4750 2034 4750 
z
" transform="scale(0.015625)"/>
        <path id="DejaVuSans-2e" d="M 684 794 
L 1344 794 
L 1344 0 
L 684 0 
L 684 794 
z
" transform="scale(0.015625)"/>
        <path id="DejaVuSans-35" d="M 691 4666 
L 3169 4666 
L 3169 4134 
L 1269 4134 
L 1269 2991 
Q 1406 3038 1543 3061 
Q 1681 3084 1819 3084 
Q 2600 3084 3056 2656 
Q 3513 2228 3513 1497 
Q 3513 744 3044 326 
Q 2575 -91 1722 -91 
Q 1428 -91 1123 -41 
Q 819 9 494 109 
L 494 744 
Q 775 591 1075 516 
Q 1375 441 1709 441 
Q 2250 441 2565 725 
Q 2881 1009 2881 1497 
Q 2881 1984 2565 2268 
Q 2250 2553 1709 2553 
Q 1456 2553 1204 2497 
Q 953 2441 691 2322 
L 691 4666 
z
" transform="scale(0.015625)"/>
       </defs>
       <use xlink:href="#DejaVuSans-30"/>
       <use xlink:href="#DejaVuSans-2e" x="63.623047"/>
       <use xlink:href="#DejaVuSans-35" x="95.410156"/>
      </g>
     </g>
    </g>
    <g id="xtick_2">
     <g id="line2d_2">
      <g>
       <use xlink:href="#m019140a997" x="111.763737" y="173.52" style="stroke: #000000; stroke-width: 0.8"/>
      </g>
     </g>
     <g id="text_2">
      <!-- 1.0 -->
      <g transform="translate(103.812174 188.118438) scale(0.1 -0.1)">
       <defs>
        <path id="DejaVuSans-31" d="M 794 531 
L 1825 531 
L 1825 4091 
L 703 3866 
L 703 4441 
L 1819 4666 
L 2450 4666 
L 2450 531 
L 3481 531 
L 3481 0 
L 794 0 
L 794 531 
z
" transform="scale(0.015625)"/>
       </defs>
       <use xlink:href="#DejaVuSans-31"/>
       <use xlink:href="#DejaVuSans-2e" x="63.623047"/>
       <use xlink:href="#DejaVuSans-30" x="95.410156"/>
      </g>
     </g>
    </g>
    <g id="xtick_3">
     <g id="line2d_3">
      <g>
       <use xlink:href="#m019140a997" x="169.40902" y="173.52" style="stroke: #000000; stroke-width: 0.8"/>
      </g>
     </g>
     <g id="text_3">
      <!-- 1.5 -->
      <g transform="translate(161.457457 188.118438) scale(0.1 -0.1)">
       <use xlink:href="#DejaVuSans-31"/>
       <use xlink:href="#DejaVuSans-2e" x="63.623047"/>
       <use xlink:href="#DejaVuSans-35" x="95.410156"/>
      </g>
     </g>
    </g>
    <g id="xtick_4">
     <g id="line2d_4">
      <g>
       <use xlink:href="#m019140a997" x="227.054303" y="173.52" style="stroke: #000000; stroke-width: 0.8"/>
      </g>
     </g>
     <g id="text_4">
      <!-- 2.0 -->
      <g transform="translate(219.10274 188.118438) scale(0.1 -0.1)">
       <defs>
        <path id="DejaVuSans-32" d="M 1228 531 
L 3431 531 
L 3431 0 
L 469 0 
L 469 531 
Q 828 903 1448 1529 
Q 2069 2156 2228 2338 
Q 2531 2678 2651 2914 
Q 2772 3150 2772 3378 
Q 2772 3750 2511 3984 
Q 2250 4219 1831 4219 
Q 1534 4219 1204 4116 
Q 875 4013 500 3803 
L 500 4441 
Q 881 4594 1212 4672 
Q 1544 4750 1819 4750 
Q 2544 4750 2975 4387 
Q 3406 4025 3406 3419 
Q 3406 3131 3298 2873 
Q 3191 2616 2906 2266 
Q 2828 2175 2409 1742 
Q 1991 1309 1228 531 
z
" transform="scale(0.015625)"/>
       </defs>
       <use xlink:href="#DejaVuSans-32"/>
       <use xlink:href="#DejaVuSans-2e" x="63.623047"/>
       <use xlink:href="#DejaVuSans-30" x="95.410156"/>
      </g>
     </g>
    </g>
   </g>
   <g id="matplotlib.axis_2">
    <g id="ytick_1">
     <g id="line2d_5">
      <defs>
       <path id="m8be5dc9e70" d="M 0 0 
L -3.5 0 
" style="stroke: #000000; stroke-width: 0.8"/>
      </defs>
      <g>
       <use xlink:href="#m8be5dc9e70" x="41.667188" y="172.68183" style="stroke: #000000; stroke-width: 0.8"/>
      </g>
     </g>
     <g id="text_5">
      <!-- −100 -->
      <g transform="translate(7.2 176.481049) scale(0.1 -0.1)">
       <defs>
        <path id="DejaVuSans-2212" d="M 678 2272 
L 4684 2272 
L 4684 1741 
L 678 1741 
L 678 2272 
z
" transform="scale(0.015625)"/>
       </defs>
       <use xlink:href="#DejaVuSans-2212"/>
       <use xlink:href="#DejaVuSans-31" x="83.789062"/>
       <use xlink:href="#DejaVuSans-30" x="147.412109"/>
       <use xlink:href="#DejaVuSans-30" x="211.035156"/>
      </g>
     </g>
    </g>
    <g id="ytick_2">
     <g id="line2d_6">
      <g>
       <use xlink:href="#m8be5dc9e70" x="41.667188" y="150.777715" style="stroke: #000000; stroke-width: 0.8"/>
      </g>
     </g>
     <g id="text_6">
      <!-- −80 -->
      <g transform="translate(13.5625 154.576934) scale(0.1 -0.1)">
       <defs>
        <path id="DejaVuSans-38" d="M 2034 2216 
Q 1584 2216 1326 1975 
Q 1069 1734 1069 1313 
Q 1069 891 1326 650 
Q 1584 409 2034 409 
Q 2484 409 2743 651 
Q 3003 894 3003 1313 
Q 3003 1734 2745 1975 
Q 2488 2216 2034 2216 
z
M 1403 2484 
Q 997 2584 770 2862 
Q 544 3141 544 3541 
Q 544 4100 942 4425 
Q 1341 4750 2034 4750 
Q 2731 4750 3128 4425 
Q 3525 4100 3525 3541 
Q 3525 3141 3298 2862 
Q 3072 2584 2669 2484 
Q 3125 2378 3379 2068 
Q 3634 1759 3634 1313 
Q 3634 634 3220 271 
Q 2806 -91 2034 -91 
Q 1263 -91 848 271 
Q 434 634 434 1313 
Q 434 1759 690 2068 
Q 947 2378 1403 2484 
z
M 1172 3481 
Q 1172 3119 1398 2916 
Q 1625 2713 2034 2713 
Q 2441 2713 2670 2916 
Q 2900 3119 2900 3481 
Q 2900 3844 2670 4047 
Q 2441 4250 2034 4250 
Q 1625 4250 1398 4047 
Q 1172 3844 1172 3481 
z
" transform="scale(0.015625)"/>
       </defs>
       <use xlink:href="#DejaVuSans-2212"/>
       <use xlink:href="#DejaVuSans-38" x="83.789062"/>
       <use xlink:href="#DejaVuSans-30" x="147.412109"/>
      </g>
     </g>
    </g>
    <g id="ytick_3">
     <g id="line2d_7">
      <g>
       <use xlink:href="#m8be5dc9e70" x="41.667188" y="128.873599" style="stroke: #000000; stroke-width: 0.8"/>
      </g>
     </g>
     <g id="text_7">
      <!-- −60 -->
      <g transform="translate(13.5625 132.672818) scale(0.1 -0.1)">
       <defs>
        <path id="DejaVuSans-36" d="M 2113 2584 
Q 1688 2584 1439 2293 
Q 1191 2003 1191 1497 
Q 1191 994 1439 701 
Q 1688 409 2113 409 
Q 2538 409 2786 701 
Q 3034 994 3034 1497 
Q 3034 2003 2786 2293 
Q 2538 2584 2113 2584 
z
M 3366 4563 
L 3366 3988 
Q 3128 4100 2886 4159 
Q 2644 4219 2406 4219 
Q 1781 4219 1451 3797 
Q 1122 3375 1075 2522 
Q 1259 2794 1537 2939 
Q 1816 3084 2150 3084 
Q 2853 3084 3261 2657 
Q 3669 2231 3669 1497 
Q 3669 778 3244 343 
Q 2819 -91 2113 -91 
Q 1303 -91 875 529 
Q 447 1150 447 2328 
Q 447 3434 972 4092 
Q 1497 4750 2381 4750 
Q 2619 4750 2861 4703 
Q 3103 4656 3366 4563 
z
" transform="scale(0.015625)"/>
       </defs>
       <use xlink:href="#DejaVuSans-2212"/>
       <use xlink:href="#DejaVuSans-36" x="83.789062"/>
       <use xlink:href="#DejaVuSans-30" x="147.412109"/>
      </g>
     </g>
    </g>
    <g id="ytick_4">
     <g id="line2d_8">
      <g>
       <use xlink:href="#m8be5dc9e70" x="41.667188" y="106.969484" style="stroke: #000000; stroke-width: 0.8"/>
      </g>
     </g>
     <g id="text_8">
      <!-- −40 -->
      <g transform="translate(13.5625 110.768703) scale(0.1 -0.1)">
       <defs>
        <path id="DejaVuSans-34" d="M 2419 4116 
L 825 1625 
L 2419 1625 
L 2419 4116 
z
M 2253 4666 
L 3047 4666 
L 3047 1625 
L 3713 1625 
L 3713 1100 
L 3047 1100 
L 3047 0 
L 2419 0 
L 2419 1100 
L 313 1100 
L 313 1709 
L 2253 4666 
z
" transform="scale(0.015625)"/>
       </defs>
       <use xlink:href="#DejaVuSans-2212"/>
       <use xlink:href="#DejaVuSans-34" x="83.789062"/>
       <use xlink:href="#DejaVuSans-30" x="147.412109"/>
      </g>
     </g>
    </g>
    <g id="ytick_5">
     <g id="line2d_9">
      <g>
       <use xlink:href="#m8be5dc9e70" x="41.667188" y="85.065368" style="stroke: #000000; stroke-width: 0.8"/>
      </g>
     </g>
     <g id="text_9">
      <!-- −20 -->
      <g transform="translate(13.5625 88.864587) scale(0.1 -0.1)">
       <use xlink:href="#DejaVuSans-2212"/>
       <use xlink:href="#DejaVuSans-32" x="83.789062"/>
       <use xlink:href="#DejaVuSans-30" x="147.412109"/>
      </g>
     </g>
    </g>
    <g id="ytick_6">
     <g id="line2d_10">
      <g>
       <use xlink:href="#m8be5dc9e70" x="41.667188" y="63.161253" style="stroke: #000000; stroke-width: 0.8"/>
      </g>
     </g>
     <g id="text_10">
      <!-- 0 -->
      <g transform="translate(28.304688 66.960472) scale(0.1 -0.1)">
       <use xlink:href="#DejaVuSans-30"/>
      </g>
     </g>
    </g>
    <g id="ytick_7">
     <g id="line2d_11">
      <g>
       <use xlink:href="#m8be5dc9e70" x="41.667188" y="41.257137" style="stroke: #000000; stroke-width: 0.8"/>
      </g>
     </g>
     <g id="text_11">
      <!-- 20 -->
      <g transform="translate(21.942188 45.056356) scale(0.1 -0.1)">
       <use xlink:href="#DejaVuSans-32"/>
       <use xlink:href="#DejaVuSans-30" x="63.623047"/>
      </g>
     </g>
    </g>
    <g id="ytick_8">
     <g id="line2d_12">
      <g>
       <use xlink:href="#m8be5dc9e70" x="41.667188" y="19.353022" style="stroke: #000000; stroke-width: 0.8"/>
      </g>
     </g>
     <g id="text_12">
      <!-- 40 -->
      <g transform="translate(21.942188 23.15224) scale(0.1 -0.1)">
       <use xlink:href="#DejaVuSans-34"/>
       <use xlink:href="#DejaVuSans-30" x="63.623047"/>
      </g>
     </g>
    </g>
   </g>
   <g id="line2d_13">
    <path d="M 51.812642 160.21017 
L 51.872593 160.169101 
L 51.925627 160.196483 
L 56.521109 160.30601 
L 56.578754 160.30601 
L 56.551084 160.251247 
L 56.62487 160.271777 
L 56.687127 160.223873 
L 56.737855 160.251247 
L 56.841617 160.299167 
L 56.749384 160.223873 
L 56.855451 160.264942 
L 56.940766 160.223873 
L 56.896956 160.319705 
L 56.96613 160.264942 
L 57.028387 160.30601 
L 57.046834 160.23756 
L 57.079115 160.271777 
L 57.178265 160.30601 
L 57.152901 160.244403 
L 57.196711 160.278628 
L 57.226687 160.230708 
L 57.208241 160.30601 
L 57.305085 160.299167 
L 59.108229 160.18964 
L 59.193544 160.18964 
L 59.126676 160.244403 
L 59.211991 160.21703 
L 59.32267 160.244403 
L 59.216602 160.196483 
L 59.329587 160.223873 
L 61.76683 160.319705 
L 61.771441 160.340235 
L 61.794499 160.264942 
L 61.875203 160.292315 
L 61.932848 160.333384 
L 61.907484 160.28548 
L 61.985882 160.299167 
L 61.992799 160.258098 
L 62.027386 160.326549 
L 62.096561 160.30601 
L 65.709767 160.415521 
L 65.908067 160.709869 
L 65.914984 160.682487 
L 65.91729 160.6688 
L 65.9611 160.798849 
L 66.009522 160.771476 
L 66.122507 160.922055 
L 66.143259 160.901525 
L 66.154788 160.887838 
L 66.311584 161.072659 
L 66.313889 161.058956 
L 66.332336 161.106884 
L 66.415345 161.113728 
L 66.505272 161.216403 
L 66.514495 161.189022 
L 66.625174 161.291697 
L 66.793498 161.387529 
L 66.911095 161.47651 
L 66.9134 161.462815 
L 66.957211 161.449136 
L 66.945682 161.503883 
L 67.01255 161.503883 
L 67.169345 161.640784 
L 67.026385 161.497048 
L 67.171651 161.633949 
L 67.224685 161.551812 
L 67.296165 161.606559 
L 67.404538 161.675017 
L 67.413761 161.654487 
L 67.43682 161.633949 
L 67.494465 161.695556 
L 67.522135 161.668166 
L 67.646648 161.750311 
L 67.727352 161.695556 
L 67.660483 161.777693 
L 67.757327 161.743459 
L 68.133175 161.846135 
L 68.213878 161.859838 
L 68.202349 161.798231 
L 68.241548 161.852987 
L 68.31764 161.805066 
L 68.250771 161.873525 
L 68.349921 161.880369 
L 68.400649 161.935132 
L 68.370673 161.846135 
L 68.455988 161.873525 
L 68.458294 161.852987 
L 68.536692 161.935132 
L 68.562056 161.921437 
L 68.651982 161.894064 
L 68.598949 161.935132 
L 68.670429 161.921437 
L 68.760355 161.969349 
L 68.721157 161.907742 
L 68.781108 161.948811 
L 68.790331 161.894064 
L 68.877952 161.983044 
L 68.894092 161.914594 
L 68.988631 161.983044 
L 69.011689 161.948811 
L 69.124673 162.003583 
L 69.018606 161.941976 
L 69.136203 161.989879 
L 69.14312 161.948811 
L 69.156955 162.017269 
L 69.246881 161.989879 
L 69.645787 162.092555 
L 69.648093 162.10625 
L 69.671151 162.010418 
L 69.749548 162.065181 
L 69.814111 162.037808 
L 69.834863 162.119945 
L 69.860227 162.058338 
L 69.943237 162.024104 
L 69.973212 162.078876 
L 69.989353 162.044643 
L 70.028552 162.119945 
L 70.079279 162.113093 
L 70.178429 162.161013 
L 70.102337 162.058338 
L 70.192264 162.12678 
L 79.311748 162.024104 
L 79.40398 162.024104 
L 79.337112 162.058338 
L 79.415509 162.051486 
L 79.480072 162.119945 
L 79.528494 162.085711 
L 79.593057 162.030956 
L 79.537717 162.099415 
L 79.643785 162.058338 
L 79.742935 162.099415 
L 79.682984 162.024104 
L 79.754464 162.065181 
L 81.089528 161.969349 
L 81.091834 161.948811 
L 81.170232 162.024104 
L 81.197902 161.989879 
L 81.248629 162.024104 
L 81.290134 161.907742 
L 81.294746 161.921437 
L 81.405425 161.777693 
L 81.414648 161.791388 
L 81.437706 161.77085 
L 81.53455 161.8393 
L 81.649841 161.880369 
L 81.550691 161.798231 
L 81.659064 161.866673 
L 81.670593 161.846135 
L 81.739767 161.907742 
L 81.765131 161.880369 
L 81.788189 161.866673 
L 81.880422 161.935132 
L 81.986489 161.921437 
L 81.90348 161.969349 
L 81.991101 161.948811 
L 82.549107 162.051486 
L 82.648257 162.099415 
L 82.659786 162.044643 
L 82.722043 162.113093 
L 82.768159 162.037808 
L 82.814275 162.010418 
L 82.802746 162.078876 
L 82.874226 162.058338 
L 82.938789 162.10625 
L 82.881144 162.051486 
L 82.984905 162.065181 
L 83.079444 162.044643 
L 82.996434 162.092555 
L 83.093278 162.078876 
L 83.171676 162.119945 
L 83.150924 162.058338 
L 83.203957 162.078876 
L 83.293884 162.037808 
L 83.227016 162.099415 
L 83.312331 162.099415 
L 83.429927 162.044643 
L 83.34 162.119945 
L 83.436844 162.072025 
L 90.930731 162.174708 
L 90.949178 162.188387 
L 90.995294 162.12678 
L 91.036799 162.147318 
L 95.131919 162.058338 
L 95.173424 162.024104 
L 95.145754 162.085711 
L 95.242598 162.044643 
L 100.034074 161.948811 
L 100.066356 161.880369 
L 100.147059 161.935132 
L 100.211622 161.894064 
L 100.170117 161.976201 
L 100.257738 161.941976 
L 100.294631 161.92828 
L 100.368417 161.948811 
L 100.398393 161.900907 
L 100.430674 161.969349 
L 100.481402 161.921437 
L 100.545964 161.955662 
L 100.511377 161.900907 
L 100.587469 161.894064 
L 100.670478 161.866673 
L 100.633585 161.941976 
L 100.691231 161.935132 
L 104.777128 162.037808 
L 104.797881 162.072025 
L 104.860137 161.989879 
L 104.883196 162.024104 
L 104.910865 161.976201 
L 104.927006 162.058338 
L 104.993874 162.030956 
L 106.20212 162.12678 
L 106.213649 162.15417 
L 106.248236 162.072025 
L 106.310493 162.113093 
L 110.430978 162.017269 
L 110.433283 161.996739 
L 110.509375 162.10625 
L 110.541657 162.024104 
L 110.569326 162.017269 
L 110.659253 162.065181 
L 110.776849 162.017269 
L 110.799907 162.085711 
L 110.887528 162.024104 
L 110.952091 162.10625 
L 111.009736 162.092555 
L 111.067382 162.024104 
L 111.120415 162.078876 
L 111.219565 162.058338 
L 111.2334 162.10625 
L 111.341773 162.065181 
L 111.353302 162.092555 
L 111.4317 162.12678 
L 111.410947 162.044643 
L 111.461675 162.072025 
L 112.416281 161.962514 
L 112.423199 161.955662 
L 112.462397 162.037808 
L 112.510819 162.017269 
L 112.62611 162.058338 
L 112.52696 161.969349 
L 112.628416 162.051486 
L 112.739095 161.983044 
L 112.746012 162.017269 
L 112.856691 162.051486 
L 112.787517 161.983044 
L 112.863609 162.030956 
L 112.974287 162.003583 
L 112.976593 162.010418 
L 113.087272 162.044643 
L 113.075743 161.983044 
L 113.089578 162.037808 
L 113.211786 161.976201 
L 113.096495 162.044643 
L 113.218703 161.989879 
L 113.278655 162.058338 
L 113.301713 161.976201 
L 113.333994 162.037808 
L 113.36397 161.983044 
L 113.340911 162.065181 
L 113.453896 162.024104 
L 113.553046 162.078876 
L 113.488483 162.003583 
L 113.571493 162.058338 
L 122.589521 161.948811 
L 122.709423 161.914594 
L 122.60105 161.989879 
L 122.714035 161.921437 
L 122.813184 161.948811 
L 122.785515 161.900907 
L 122.827019 161.941976 
L 122.912334 161.92828 
L 122.882359 161.989879 
L 122.930781 161.976201 
L 123.006873 162.003583 
L 122.94231 161.962514 
L 123.036848 161.955662 
L 123.149833 161.921437 
L 123.152139 161.948811 
L 123.170585 161.935132 
L 123.265123 161.989879 
L 123.315851 161.962514 
L 123.28357 162.024104 
L 123.375802 161.983044 
L 123.380414 162.017269 
L 123.419613 161.935132 
L 123.486481 161.976201 
L 123.493399 161.935132 
L 123.548738 162.003583 
L 123.599466 161.948811 
L 123.62483 162.010418 
L 123.684781 161.935132 
L 123.714757 161.996739 
L 123.717062 161.969349 
L 123.777014 162.044643 
L 123.825436 162.003583 
L 123.947644 161.955662 
L 123.836965 162.044643 
L 123.949949 161.969349 
L 124.056017 162.010418 
L 124.000677 161.948811 
L 124.062934 162.003583 
L 124.090604 162.017269 
L 124.189754 161.962514 
L 124.27968 161.996739 
L 124.240482 161.941976 
L 124.305044 161.962514 
L 124.388054 161.948811 
L 124.328102 162.010418 
L 124.413417 161.976201 
L 129.500037 162.058338 
L 129.504649 162.092555 
L 129.59227 161.989879 
L 129.60841 162.017269 
L 137.06771 161.914594 
L 137.150719 161.681852 
L 137.192224 161.716086 
L 137.206059 161.675017 
L 137.252175 161.763998 
L 137.289068 161.77085 
L 137.840157 161.880369 
L 137.90472 161.832457 
L 137.955447 161.907742 
L 138.063821 161.846135 
L 138.079961 161.880369 
L 139.703252 161.989879 
L 139.811626 162.010418 
L 139.786262 161.948811 
L 139.816237 161.989879 
L 139.885411 161.914594 
L 139.830072 161.996739 
L 139.931528 161.955662 
L 140.014537 162.010418 
L 139.947668 161.948811 
L 140.053736 161.976201 
L 145.497756 162.085711 
L 145.599212 162.092555 
L 145.511591 162.044643 
L 145.610741 162.078876 
L 145.714503 162.017269 
L 145.62227 162.092555 
L 145.726032 162.044643 
L 145.735255 162.017269 
L 145.758313 162.065181 
L 145.834405 162.058338 
L 145.841322 162.072025 
L 145.894356 161.976201 
L 145.924331 161.996739 
L 146.009646 162.010418 
L 146.039622 161.948811 
L 146.058068 161.996739 
L 146.051151 161.941976 
L 146.145689 161.921437 
L 146.159524 161.900907 
L 146.168747 161.948811 
L 146.254062 161.948811 
L 149.129409 161.846135 
L 149.193972 161.805066 
L 149.163996 161.866673 
L 149.237782 161.859838 
L 149.341544 161.846135 
L 149.251617 161.825605 
L 149.34385 161.832457 
L 149.401495 161.784528 
L 149.348461 161.8393 
L 149.461446 161.825605 
L 149.55829 161.859838 
L 149.477587 161.798231 
L 149.576736 161.852987 
L 149.666663 161.784528 
L 149.689721 161.8393 
L 149.784259 161.873525 
L 149.705862 161.791388 
L 149.795789 161.8393 
L 149.890327 161.852987 
L 149.911079 161.784528 
L 149.92722 161.763998 
L 150.024064 161.832457 
L 150.035593 161.77085 
L 150.063263 161.8393 
L 150.134743 161.818762 
L 150.220058 161.8393 
L 150.178553 161.777693 
L 150.243116 161.811918 
L 150.31229 161.757163 
L 150.270786 161.832457 
L 150.360712 161.77085 
L 150.413746 161.736624 
L 150.478309 161.798231 
L 150.56593 161.757163 
L 150.522119 161.8393 
L 150.586682 161.818762 
L 151.045538 161.729773 
L 151.107795 161.681852 
L 151.075514 161.784528 
L 151.158523 161.709234 
L 151.239226 161.763998 
L 151.174664 161.702391 
L 151.278425 161.729773 
L 151.349905 161.688704 
L 151.326847 161.750311 
L 151.393716 161.722929 
L 151.455973 161.757163 
L 151.444444 161.702391 
L 151.506701 161.716086 
L 153.104628 161.805066 
L 153.206083 161.832457 
L 153.150744 161.763998 
L 153.213001 161.77085 
L 153.97853 161.880369 
L 154.084598 161.866673 
L 154.001588 161.805066 
L 154.086903 161.859838 
L 159.904465 161.962514 
L 160.005921 161.962514 
L 159.922912 161.914594 
L 160.012839 161.941976 
L 160.079707 161.914594 
L 160.031285 161.962514 
L 160.125823 161.935132 
L 172.581816 161.846135 
L 172.588734 161.798231 
L 172.685578 161.921437 
L 172.687883 161.914594 
L 172.690189 161.92828 
L 172.740917 161.8393 
L 172.791645 161.866673 
L 174.073676 161.976201 
L 174.184355 162.003583 
L 174.094428 161.948811 
L 174.186661 161.989879 
L 180.117207 162.085711 
L 180.121819 162.113093 
L 180.174853 162.017269 
L 180.227886 162.085711 
L 180.285532 162.003583 
L 180.33626 162.065181 
L 180.419269 162.10625 
L 180.449244 162.024104 
L 180.474608 162.099415 
L 180.569147 162.078876 
L 180.636015 162.010418 
L 180.580676 162.085711 
L 180.668296 162.092555 
L 180.670602 162.133632 
L 180.767446 162.051486 
L 180.77667 162.092555 
L 180.889654 162.037808 
L 180.79281 162.10625 
L 180.894266 162.051486 
L 180.928853 162.065181 
L 180.981887 161.969349 
L 181.166352 161.654487 
L 181.196327 161.668166 
L 181.198633 161.675017 
L 181.223997 161.572342 
L 181.277031 161.56549 
L 181.281642 161.572342 
L 181.406156 161.442276 
L 181.408462 161.462815 
L 181.426908 161.380678 
L 181.509918 161.394373 
L 181.641349 161.278002 
L 181.758945 161.168483 
L 181.87193 161.120563 
L 181.881153 161.141101 
L 181.885765 161.168483 
L 181.913435 161.072659 
L 181.982609 161.086346 
L 182.14171 160.98367 
L 182.252389 160.901525 
L 182.150933 160.990514 
L 182.263918 160.908377 
L 182.300811 160.949445 
L 182.342315 160.826231 
L 182.372291 160.901525 
L 182.487582 160.778311 
L 182.402267 160.908377 
L 182.489887 160.81938 
L 182.628236 160.730407 
L 182.494499 160.826231 
L 182.630542 160.737242 
L 182.715857 160.785163 
L 182.660517 160.703026 
L 182.741221 160.723556 
L 182.773502 160.750938 
L 182.861123 160.661957 
L 182.946438 160.716704 
L 182.879569 160.634567 
L 182.974108 160.675635 
L 183.333814 160.579803 
L 183.402989 160.538735 
L 183.345343 160.607193 
L 183.446799 160.552421 
L 183.539031 160.538735 
L 183.499833 160.497666 
L 183.543643 160.497666 
L 184.17313 160.401842 
L 184.198494 160.360774 
L 184.253833 160.429224 
L 184.286114 160.388156 
L 184.346065 160.415521 
L 184.371429 160.333384 
L 184.389876 160.353922 
L 184.472885 160.340235 
L 184.43138 160.415521 
L 184.498249 160.360774 
L 184.507472 160.394991 
L 184.583564 160.312845 
L 184.604316 160.340235 
L 184.634292 160.388156 
L 184.72883 160.30601 
L 184.754194 160.353922 
L 184.830286 160.278628 
L 184.839509 160.30601 
L 184.924824 160.28548 
L 184.906378 160.353922 
L 184.947882 160.319705 
L 185.047032 160.30601 
L 184.987081 160.278628 
L 185.05395 160.292315 
L 189.24822 160.196483 
L 189.345064 160.155414 
L 189.278196 160.21703 
L 189.356593 160.203335 
L 189.388875 160.251247 
L 189.448826 160.162266 
L 189.467272 160.196483 
L 189.476496 160.169101 
L 189.536447 160.244403 
L 189.575646 160.21703 
L 198.282389 160.121198 
L 198.330811 160.086964 
L 198.372316 160.155414 
L 198.393068 160.128033 
L 204.180654 160.23756 
L 204.249829 160.23756 
L 204.226771 160.182805 
L 204.28211 160.21017 
L 204.372037 160.175944 
L 204.305168 160.230708 
L 204.392789 160.196483 
L 204.4366 160.155414 
L 204.503468 160.21703 
L 204.558808 160.148571 
L 204.510386 160.223873 
L 204.616453 160.196483 
L 206.509524 160.093807 
L 206.624814 160.052739 
L 206.534888 160.128033 
L 206.62712 160.059591 
L 206.636344 160.121198 
L 206.72627 160.0322 
L 206.740105 160.093807 
L 206.79775 160.107494 
L 206.862313 160.0322 
L 206.959157 160.059591 
L 206.908429 160.004827 
L 206.972992 160.025365 
L 207.002968 160.004827 
L 207.039861 160.066434 
L 207.079059 160.059591 
L 209.082809 160.162266 
L 209.186571 160.18964 
L 209.149678 160.114346 
L 209.191183 160.162266 
L 209.29725 160.114346 
L 209.209629 160.182805 
L 209.308779 160.128033 
L 214.035692 160.018522 
L 214.118701 159.991132 
L 214.132536 160.073269 
L 214.137148 160.052739 
L 214.236298 160.080129 
L 214.183264 159.997984 
L 214.250133 160.052739 
L 214.353894 160.018522 
L 214.280108 160.073269 
L 214.360811 160.025365 
L 214.38387 160.093807 
L 214.473796 160.059591 
L 214.582169 160.093807 
L 214.515301 160.0322 
L 214.584475 160.080129 
L 214.591393 160.0322 
L 214.690543 160.114346 
L 214.692848 160.100659 
L 214.745882 160.141728 
L 214.718212 160.052739 
L 214.803527 160.107494 
L 214.921124 160.073269 
L 214.808139 160.128033 
L 214.923429 160.086964 
L 215.004133 160.080129 
L 214.934959 160.0322 
L 215.024885 160.059591 
L 215.124035 160.004827 
L 215.094059 160.086964 
L 215.135564 160.0322 
L 215.207044 160.01167 
L 215.25316 160.086964 
L 215.391509 160.01167 
L 215.499882 160.080129 
L 215.405344 159.997984 
L 215.509106 160.045904 
L 220.789413 160.134876 
L 220.900092 160.162266 
L 220.824001 160.100659 
L 220.902398 160.155414 
L 220.936985 160.100659 
L 221.015383 160.155414 
L 221.116839 160.182805 
L 221.068417 160.114346 
L 221.126062 160.155414 
L 221.202154 160.045904 
L 221.135285 160.162266 
L 221.241352 160.134876 
L 221.266716 160.086964 
L 221.326668 160.169101 
L 221.358949 160.128033 
L 221.460405 160.182805 
L 221.368172 160.114346 
L 221.471934 160.128033 
L 221.536496 160.052739 
L 221.49038 160.155414 
L 221.584918 160.086964 
L 227.778328 159.977453 
L 227.819832 159.963758 
L 227.833667 160.018522 
L 227.884395 159.991132 
L 227.923594 160.025365 
L 227.889007 159.977453 
L 227.995074 159.997984 
L 228.230267 159.902151 
L 228.255631 159.861083 
L 228.331722 159.929525 
L 228.340946 159.902151 
L 228.45393 159.936377 
L 228.345557 159.874778 
L 228.458542 159.908995 
L 228.474683 159.854239 
L 228.559998 159.956915 
L 228.562303 159.936377 
L 228.576138 159.977453 
L 228.656842 159.895308 
L 228.668371 159.915846 
L 228.772132 159.888456 
L 228.682206 159.92269 
L 228.776744 159.915846 
L 228.848224 159.963758 
L 228.799802 159.895308 
L 228.892034 159.936377 
L 232.117865 160.018522 
L 232.12017 160.052739 
L 232.212403 159.950063 
L 232.226238 159.977453 
L 232.502935 160.073269 
L 232.509852 160.121198 
L 232.579027 160.018522 
L 232.611308 160.0322 
L 232.717375 160.086964 
L 232.629755 159.991132 
L 232.73121 160.080129 
L 233.76652 159.977453 
L 233.768825 159.963758 
L 233.858752 160.086964 
L 233.861058 160.066434 
L 233.914092 160.066434 
L 233.927926 159.991132 
L 233.962514 160.039052 
L 234.063969 160.004827 
L 233.969431 160.059591 
L 234.073193 160.045904 
L 236.637255 160.148571 
L 236.745628 160.148571 
L 236.683371 160.093807 
L 236.747934 160.141728 
L 236.798662 160.169101 
L 236.863224 160.086964 
L 243.220346 159.977453 
L 243.310273 159.943228 
L 243.280297 160.004827 
L 243.331025 159.984297 
L 243.404811 159.950063 
L 243.377141 160.01167 
L 243.448621 159.977453 
L 243.529325 159.92269 
L 243.561606 159.997984 
L 243.65845 159.943228 
L 243.676897 159.963758 
L 243.7576 160.045904 
L 243.693037 159.915846 
L 243.796799 159.977453 
L 243.868279 159.92269 
L 243.898255 160.01167 
L 243.905172 159.984297 
L 243.937453 160.01167 
L 244.004322 159.943228 
L 244.011239 159.956915 
L 253.460454 160.066434 
L 253.46276 160.080129 
L 253.508876 159.997984 
L 253.566521 160.0322 
L 254.721733 160.052739 
L 254.721733 160.052739 
" clip-path="url(#p9d89cac8a8)" style="fill: none; stroke: #000000; stroke-opacity: 0.5; stroke-width: 1.5; stroke-linecap: square"/>
   </g>
   <g id="line2d_14">
    <path d="M 51.812642 160.744094 
L 65.677486 160.853605 
L 65.919596 162.037808 
L 65.921902 162.030956 
L 65.974935 162.215777 
L 66.67129 163.954418 
L 66.673596 163.940723 
L 66.749688 164.111849 
L 66.754299 164.098162 
L 66.881119 164.330886 
L 66.883425 164.324051 
L 66.888036 164.289818 
L 66.982575 164.440414 
L 67.134758 164.693668 
L 67.146287 164.645765 
L 67.203933 164.762127 
L 67.229297 164.755275 
L 67.326141 164.864803 
L 67.503688 165.06331 
L 67.510606 165.01539 
L 67.600532 165.118066 
L 67.605144 165.111231 
L 67.761939 165.261818 
L 67.614367 165.104379 
L 67.766551 165.248131 
L 67.784997 165.220741 
L 67.851866 165.330268 
L 67.863395 165.323425 
L 67.987908 165.453482 
L 67.891064 165.302887 
L 67.990214 165.426101 
L 68.087058 165.460317 
L 68.100893 165.412405 
L 68.213878 165.528776 
L 68.112422 165.405562 
L 68.220795 165.521924 
L 68.236936 165.474012 
L 68.31764 165.556158 
L 68.33378 165.508238 
L 68.465211 165.590383 
L 68.469823 165.57668 
L 68.472129 165.562993 
L 68.562056 165.67252 
L 68.564361 165.67252 
L 69.31375 165.782031 
L 69.355255 165.829959 
L 69.34142 165.761501 
L 69.426735 165.809421 
L 69.51205 165.775196 
L 69.493603 165.836803 
L 69.53972 165.802569 
L 71.910094 165.905245 
L 71.940069 165.925775 
L 71.988491 165.871028 
L 72.018467 165.891558 
L 76.84453 165.802569 
L 76.846836 165.775196 
L 76.91601 165.871028 
L 76.950597 165.857333 
L 76.964432 165.884706 
L 77.005937 165.809421 
L 77.054359 165.816264 
L 83.66512 165.713589 
L 83.674343 165.761501 
L 83.775799 165.706745 
L 83.791939 165.686207 
L 83.893395 165.768352 
L 83.895701 165.775196 
L 83.909536 165.693059 
L 83.985627 165.699894 
L 85.076276 165.795734 
L 85.163897 165.836803 
L 85.136227 165.761501 
L 85.186955 165.823099 
L 85.246906 165.754657 
L 85.29994 165.782031 
L 99.144031 165.67252 
L 99.146337 165.651982 
L 99.213205 165.768352 
L 99.247793 165.734127 
L 99.374612 165.679355 
L 99.257016 165.761501 
L 99.376918 165.693059 
L 99.478374 165.740962 
L 99.393059 165.686207 
L 99.49682 165.706745 
L 99.584441 165.679355 
L 99.602888 165.740962 
L 99.66745 165.67252 
L 99.612111 165.775196 
L 99.720484 165.713589 
L 99.808105 165.754657 
L 99.833469 165.747814 
L 99.918784 165.734127 
L 99.86575 165.775196 
L 99.939536 165.775196 
L 100.038686 165.768352 
L 99.967206 165.734127 
L 100.045603 165.754657 
L 100.100943 165.706745 
L 100.158588 165.754657 
L 100.248515 165.795734 
L 100.186258 165.727284 
L 100.266961 165.734127 
L 108.168977 165.823099 
L 108.201258 165.877871 
L 108.180506 165.809421 
L 108.279656 165.829959 
L 108.284267 165.816264 
L 108.413393 165.891558 
L 108.47565 165.823099 
L 108.528683 165.871028 
L 108.627833 165.884706 
L 108.597858 165.836803 
L 108.639362 165.864176 
L 108.657809 165.823099 
L 108.678561 165.891558 
L 108.752347 165.850489 
L 108.768488 165.877871 
L 108.837662 165.795734 
L 108.849191 165.795734 
L 108.853803 165.782031 
L 108.883778 165.871028 
L 108.952953 165.843638 
L 109.017515 165.884706 
L 108.999069 165.816264 
L 109.065937 165.857333 
L 116.301573 165.754657 
L 116.317714 165.727284 
L 116.356913 165.809421 
L 116.407641 165.788882 
L 118.199256 165.884706 
L 118.22462 165.836803 
L 118.309935 165.89841 
L 118.392944 165.829959 
L 118.332993 165.905245 
L 118.425225 165.864176 
L 118.515152 165.891558 
L 118.443672 165.829959 
L 118.535904 165.864176 
L 120.15689 165.775196 
L 120.221452 165.562993 
L 120.283709 165.590383 
L 120.352884 165.631452 
L 120.292933 165.562993 
L 120.396694 165.610913 
L 120.495844 165.610913 
L 120.415141 165.665677 
L 120.502761 165.617748 
L 120.608829 165.706745 
L 120.620358 165.679355 
L 120.703367 165.6246 
L 120.654945 165.699894 
L 120.737954 165.67252 
L 120.834798 165.713589 
L 120.850939 165.686207 
L 120.855551 165.679355 
L 120.903973 165.761501 
L 120.940866 165.754657 
L 120.950089 165.782031 
L 120.996205 165.713589 
L 121.049239 165.740962 
L 122.91464 165.651982 
L 123.016096 165.617748 
L 122.940004 165.67252 
L 123.025319 165.64513 
L 123.117552 165.67252 
L 123.046071 165.604061 
L 123.142915 165.651982 
L 123.216701 165.610913 
L 123.246677 165.693059 
L 123.251289 165.67252 
L 123.35505 165.706745 
L 123.290487 165.638287 
L 123.361968 165.67252 
L 127.272624 165.775196 
L 127.277235 165.809421 
L 127.355633 165.706745 
L 127.380997 165.754657 
L 127.482452 165.740962 
L 127.429419 165.795734 
L 127.493981 165.754657 
L 127.606966 165.775196 
L 127.572379 165.727284 
L 127.611578 165.768352 
L 127.689975 165.740962 
L 127.664611 165.788882 
L 127.719951 165.782031 
L 127.809878 165.816264 
L 127.826018 165.747814 
L 127.828324 165.761501 
L 134.171611 165.871028 
L 134.222339 165.891558 
L 134.245397 165.823099 
L 134.275373 165.823099 
L 134.376828 165.816264 
L 134.289207 165.884706 
L 134.383746 165.843638 
L 135.236896 165.734127 
L 135.255342 165.720424 
L 135.271483 165.782031 
L 135.345269 165.747814 
L 135.455948 165.802569 
L 135.400608 165.706745 
L 135.458254 165.795734 
L 135.555098 165.713589 
L 135.57585 165.754657 
L 137.994646 165.651982 
L 138.066126 165.610913 
L 138.031539 165.665677 
L 138.105325 165.64513 
L 138.116854 165.679355 
L 138.142218 165.590383 
L 138.206781 165.610913 
L 138.280567 165.549306 
L 138.227533 165.631452 
L 138.326683 165.57668 
L 138.386634 165.610913 
L 138.347435 165.556158 
L 138.437362 165.57668 
L 138.534206 165.617748 
L 138.550347 165.590383 
L 138.617215 165.604061 
L 138.667943 165.549306 
L 138.755564 165.610913 
L 138.684084 165.515081 
L 138.794763 165.583523 
L 138.882384 165.542454 
L 138.840879 165.604061 
L 138.905442 165.583523 
L 139.013815 165.6246 
L 138.926194 165.556158 
L 139.020732 165.610913 
L 139.087601 165.562993 
L 139.108353 165.6246 
L 139.131411 165.583523 
L 139.225949 165.6246 
L 139.184445 165.562993 
L 139.244396 165.597218 
L 139.265148 165.604061 
L 139.357381 165.549306 
L 139.435778 165.556158 
L 139.373521 165.617748 
L 139.447307 165.610913 
L 139.451919 165.6246 
L 139.537234 165.535619 
L 139.551069 165.569845 
L 139.650219 165.569845 
L 139.587962 165.610913 
L 139.652525 165.583523 
L 139.724005 165.64513 
L 139.765509 165.631452 
L 139.869271 165.590383 
L 139.807014 165.651982 
L 139.878494 165.604061 
L 139.989173 165.64513 
L 139.92461 165.556158 
L 139.991479 165.6246 
L 140.092934 165.658825 
L 140.003008 165.590383 
L 140.111381 165.651982 
L 140.157497 165.597218 
L 140.205919 165.67252 
L 140.22206 165.631452 
L 140.32121 165.67252 
L 140.279705 165.6246 
L 140.332739 165.631452 
L 140.941473 165.528776 
L 141.024482 165.494551 
L 140.950696 165.549306 
L 141.04754 165.549306 
L 141.169748 165.610913 
L 141.056764 165.535619 
L 141.178972 165.597218 
L 141.275816 165.597218 
L 141.227394 165.638287 
L 141.285039 165.617748 
L 141.308097 165.67252 
L 141.321932 165.604061 
L 141.395718 165.610913 
L 141.437222 165.562993 
L 141.404941 165.64513 
L 141.506397 165.6246 
L 141.628605 165.665677 
L 141.727755 165.6246 
L 141.635522 165.679355 
L 141.739284 165.67252 
L 152.749533 165.782031 
L 152.777203 165.802569 
L 152.795649 165.740962 
L 152.8556 165.754657 
L 154.114573 165.864176 
L 154.186053 165.857333 
L 154.13302 165.809421 
L 154.213723 165.823099 
L 154.312873 165.775196 
L 154.257533 165.857333 
L 154.324402 165.829959 
L 154.34746 165.884706 
L 154.329014 165.823099 
L 154.435081 165.816264 
L 154.492726 165.768352 
L 154.441998 165.823099 
L 154.543454 165.823099 
L 154.614934 165.864176 
L 154.557289 165.809421 
L 154.654133 165.816264 
L 154.7602 165.768352 
L 154.771729 165.809421 
L 159.445609 165.699894 
L 159.447915 165.686207 
L 159.524007 165.782031 
L 159.551676 165.734127 
L 159.583958 165.775196 
L 159.639297 165.693059 
L 159.662355 165.740962 
L 159.756893 165.686207 
L 159.696942 165.754657 
L 159.773034 165.720424 
L 165.06026 165.631452 
L 165.062565 165.604061 
L 165.085623 165.699894 
L 165.168633 165.665677 
L 165.279312 165.706745 
L 165.283923 165.67252 
L 165.392296 165.67252 
L 165.300064 165.727284 
L 165.394602 165.679355 
L 165.486835 165.754657 
L 165.413049 165.67252 
L 165.509893 165.706745 
L 172.21058 165.816264 
L 172.215192 165.829959 
L 172.252085 165.727284 
L 172.302813 165.768352 
L 172.316648 165.816264 
L 172.418103 165.727284 
L 172.50803 165.809421 
L 172.547229 165.775196 
L 172.660214 165.734127 
L 172.558758 165.816264 
L 172.667131 165.754657 
L 172.766281 165.829959 
L 172.787033 165.809421 
L 172.837761 165.734127 
L 172.900018 165.747814 
L 172.987639 165.713589 
L 173.017614 165.795734 
L 173.040673 165.67252 
L 173.132905 165.713589 
L 173.188244 165.768352 
L 173.250501 165.754657 
L 174.419548 165.64513 
L 174.424159 165.617748 
L 174.504863 165.706745 
L 174.521003 165.686207 
L 174.523309 165.699894 
L 174.585566 165.631452 
L 174.629377 165.665677 
L 174.723915 165.67252 
L 174.65474 165.638287 
L 174.742361 165.658825 
L 179.508473 165.768352 
L 179.538449 165.768352 
L 179.561507 165.699894 
L 179.603012 165.727284 
L 179.656045 165.693059 
L 179.704467 165.761501 
L 179.713691 165.734127 
L 179.729831 165.768352 
L 179.782865 165.67252 
L 179.815146 165.727284 
L 179.817452 165.686207 
L 179.842816 165.734127 
L 179.925825 165.713589 
L 180.965746 165.604061 
L 181.200939 164.440414 
L 181.20555 164.454092 
L 181.207856 164.460952 
L 181.249361 164.248741 
L 181.256278 164.262444 
L 181.466107 163.666913 
L 181.468413 163.680608 
L 181.546811 163.4821 
L 181.549116 163.495795 
L 181.731275 163.064563 
L 181.733581 163.085093 
L 181.823508 162.900272 
L 181.828119 162.907124 
L 181.989526 162.578567 
L 182.088676 162.482735 
L 182.222413 162.277384 
L 182.24086 162.311601 
L 182.314646 162.181552 
L 182.316951 162.195238 
L 182.446077 161.989879 
L 182.448383 162.010418 
L 182.605178 161.8393 
L 182.614401 161.859838 
L 182.619013 161.873525 
L 182.692799 161.736624 
L 182.708939 161.77085 
L 182.810395 161.633949 
L 182.838065 161.668166 
L 182.939521 161.558655 
L 182.960273 161.599724 
L 183.064034 161.483353 
L 183.082481 161.531273 
L 183.13782 161.442276 
L 183.16549 161.45598 
L 183.296921 161.291697 
L 183.299227 161.325914 
L 183.324591 161.346452 
L 183.426047 161.291697 
L 183.665851 161.189022 
L 183.746555 161.120563 
L 183.670463 161.195865 
L 183.781142 161.141101 
L 183.792671 161.168483 
L 183.834175 161.079494 
L 183.887209 161.093189 
L 184.281503 160.98367 
L 184.392182 160.93575 
L 184.311478 161.011052 
L 184.394488 160.963124 
L 184.479803 160.908377 
L 184.429075 161.004209 
L 184.502861 160.976819 
L 184.560506 160.997349 
L 184.539754 160.922055 
L 184.606622 160.928907 
L 184.712689 160.867308 
L 184.622763 160.95628 
L 184.721913 160.880987 
L 184.82798 160.915212 
L 184.726524 160.867308 
L 184.834897 160.874143 
L 184.947882 160.839918 
L 184.864873 160.901525 
L 184.9548 160.853605 
L 184.97094 160.880987 
L 185.05395 160.805701 
L 185.060867 160.833083 
L 185.081619 160.853605 
L 185.194604 160.764633 
L 185.254555 160.839918 
L 185.309895 160.785163 
L 185.397515 160.744094 
L 185.351399 160.826231 
L 185.422879 160.764633 
L 186.626513 160.661957 
L 186.63343 160.634567 
L 186.674935 160.716704 
L 186.734886 160.661957 
L 186.794837 160.737242 
L 186.762556 160.655097 
L 186.847871 160.682487 
L 186.877846 160.703026 
L 186.967773 160.634567 
L 187.089981 160.709869 
L 187.096898 160.682487 
L 187.202966 160.655097 
L 187.113039 160.689331 
L 187.214495 160.675635 
L 187.223718 160.696174 
L 187.288281 160.614028 
L 187.322868 160.648262 
L 187.419712 160.689331 
L 187.334397 160.62088 
L 187.440464 160.655097 
L 187.537308 160.62088 
L 187.454299 160.682487 
L 187.548837 160.675635 
L 187.659516 160.696174 
L 187.624929 160.634567 
L 187.661822 160.689331 
L 188.291309 160.600342 
L 188.332813 160.566125 
L 188.374318 160.627732 
L 188.401988 160.607193 
L 189.266667 160.511353 
L 189.268973 160.483979 
L 189.328924 160.600342 
L 189.372734 160.57296 
L 191.021389 160.463449 
L 191.046753 160.511353 
L 191.134374 160.436059 
L 191.215077 160.470284 
L 191.15282 160.415521 
L 191.245053 160.449754 
L 191.256582 160.429224 
L 191.344203 160.497666 
L 191.346509 160.497666 
L 191.441047 160.518196 
L 191.364955 160.456598 
L 191.454882 160.477128 
L 194.673794 160.381304 
L 194.6761 160.353922 
L 194.779862 160.436059 
L 194.789085 160.456598 
L 194.839813 160.374452 
L 194.888235 160.415521 
L 194.994302 160.367617 
L 194.915905 160.442911 
L 195.010443 160.388156 
L 195.070394 160.442911 
L 195.021972 160.381304 
L 195.125733 160.415521 
L 196.645263 160.525056 
L 196.649875 160.538735 
L 196.67985 160.449754 
L 196.746719 160.477128 
L 196.825116 160.442911 
L 196.75133 160.490823 
L 196.864315 160.470284 
L 196.965771 160.518196 
L 196.885067 160.456598 
L 196.974994 160.477128 
L 197.085673 160.456598 
L 197.025722 160.525056 
L 197.087979 160.463449 
L 197.157153 160.511353 
L 197.177905 160.442911 
L 197.198658 160.483979 
L 197.235551 160.456598 
L 197.251691 160.511353 
L 197.307031 160.504518 
L 197.353147 160.545586 
L 197.39004 160.470284 
L 197.420016 160.497666 
L 200.039417 160.401842 
L 200.041723 160.381304 
L 200.085534 160.449754 
L 200.14779 160.415521 
L 201.240745 160.525056 
L 201.243051 160.531891 
L 201.28225 160.422381 
L 201.337589 160.490823 
L 201.429822 160.456598 
L 201.36987 160.525056 
L 201.445962 160.511353 
L 201.545112 160.538735 
L 201.46902 160.470284 
L 201.561253 160.525056 
L 201.607369 160.470284 
L 201.651179 160.545586 
L 201.671932 160.518196 
L 201.789528 160.559273 
L 201.720354 160.490823 
L 201.791834 160.531891 
L 207.93221 160.634567 
L 207.936821 160.655097 
L 208.012913 160.559273 
L 208.035971 160.600342 
L 208.10284 160.559273 
L 208.059029 160.627732 
L 208.153567 160.586655 
L 208.206601 160.627732 
L 208.264246 160.579803 
L 208.36109 160.566125 
L 208.333421 160.655097 
L 208.374925 160.586655 
L 208.430265 160.579803 
L 208.492522 160.648262 
L 208.596283 160.593498 
L 208.524803 160.6688 
L 208.605506 160.627732 
L 208.716185 160.6688 
L 208.683904 160.593498 
L 208.723103 160.634567 
L 216.498299 160.525056 
L 216.532886 160.579803 
L 216.604366 160.525056 
L 216.641259 160.586655 
L 216.67354 160.518196 
L 216.717351 160.566125 
L 216.765773 160.497666 
L 216.731186 160.593498 
L 216.830335 160.559273 
L 225.419483 160.456598 
L 225.421788 160.442911 
L 225.465599 160.525056 
L 225.52555 160.490823 
L 225.59703 160.531891 
L 225.560137 160.470284 
L 225.636229 160.518196 
L 225.73999 160.538735 
L 225.749214 160.470284 
L 225.797636 160.559273 
L 225.864504 160.511353 
L 225.982101 160.586655 
L 225.887562 160.497666 
L 225.99363 160.552421 
L 226.088168 160.511353 
L 226.046663 160.627732 
L 226.10892 160.552421 
L 240.36114 160.449754 
L 240.365752 160.436059 
L 240.38881 160.511353 
L 240.464902 160.483979 
L 240.568663 160.518196 
L 240.524853 160.463449 
L 240.573275 160.477128 
L 240.626308 160.456598 
L 240.672425 160.525056 
L 240.67473 160.538735 
L 240.709318 160.449754 
L 240.778492 160.497666 
L 250.087052 160.579803 
L 250.089358 160.614028 
L 250.19312 160.525056 
L 250.292269 160.593498 
L 250.322245 160.566125 
L 250.412172 160.483979 
L 250.405254 160.586655 
L 250.437536 160.525056 
L 250.458288 160.579803 
L 250.50671 160.477128 
L 250.548214 160.545586 
L 250.658893 160.525056 
L 250.608166 160.600342 
L 250.661199 160.538735 
L 250.790325 160.600342 
L 250.79263 160.593498 
L 250.903309 160.531891 
L 250.815689 160.62088 
L 250.91945 160.538735 
L 250.981707 160.627732 
L 251.034741 160.593498 
L 251.126973 160.525056 
L 251.147725 160.559273 
L 251.246875 160.593498 
L 251.205371 160.518196 
L 251.256099 160.538735 
L 253.017738 160.442911 
L 253.047714 160.415521 
L 253.070772 160.490823 
L 253.126112 160.470284 
L 253.204509 160.497666 
L 253.22065 160.415521 
L 253.23679 160.456598 
L 253.349775 160.401842 
L 253.303659 160.504518 
L 253.361304 160.429224 
L 253.476595 160.490823 
L 253.529628 160.401842 
L 253.601109 160.415521 
L 253.63339 160.401842 
L 253.718705 160.456598 
L 254.721733 160.456598 
L 254.721733 160.456598 
" clip-path="url(#p9d89cac8a8)" style="fill: none; stroke: #000000; stroke-opacity: 0.5; stroke-width: 1.5; stroke-linecap: square"/>
   </g>
   <g id="line2d_15">
    <path d="M 51.812642 159.902151 
L 51.918709 159.840553 
L 51.927933 159.874778 
L 54.595756 159.970593 
L 54.598062 159.997984 
L 54.681071 159.902151 
L 54.704129 159.936377 
L 55.621842 159.826849 
L 55.750968 159.772094 
L 55.631066 159.854239 
L 55.753274 159.778946 
L 55.804001 159.751556 
L 55.873176 159.799476 
L 55.893928 159.758407 
L 55.946962 159.820014 
L 55.981549 159.813163 
L 56.016136 159.861083 
L 56.006913 159.806319 
L 56.094534 159.826849 
L 58.190516 159.92269 
L 58.192822 159.943228 
L 58.273525 159.861083 
L 58.298889 159.908995 
L 58.400345 159.861083 
L 58.324253 159.929525 
L 58.41418 159.888456 
L 58.430321 159.950063 
L 58.455684 159.881621 
L 58.524859 159.881621 
L 58.600951 159.867918 
L 58.561752 159.915846 
L 58.635538 159.888456 
L 58.720853 159.874778 
L 58.647067 159.92269 
L 58.736993 159.92269 
L 58.808474 159.915846 
L 58.769275 159.874778 
L 58.838449 159.881621 
L 61.294138 159.977453 
L 61.296444 159.997984 
L 61.312585 159.915846 
L 61.400206 159.936377 
L 61.510884 159.908995 
L 61.418652 159.956915 
L 61.51319 159.915846 
L 61.593894 159.956915 
L 61.626175 159.92269 
L 63.350922 159.826849 
L 63.360145 159.778946 
L 63.424708 159.895308 
L 63.459295 159.861083 
L 63.461601 159.881621 
L 63.553833 159.806319 
L 63.569974 159.854239 
L 63.632231 159.806319 
L 63.583809 159.861083 
L 63.682959 159.861083 
L 63.747521 159.792624 
L 63.800555 159.867918 
L 63.906622 159.826849 
L 63.816696 159.881621 
L 63.922763 159.833701 
L 64.008078 159.881621 
L 63.982714 159.820014 
L 64.038054 159.854239 
L 64.153344 159.826849 
L 64.065723 159.895308 
L 64.160262 159.833701 
L 64.220213 159.908995 
L 64.194849 159.826849 
L 64.275552 159.854239 
L 65.654427 159.915846 
L 65.656733 160.0322 
L 65.730519 158.245656 
L 66.023357 153.919588 
L 66.403816 149.8468 
L 66.408428 149.853643 
L 66.821168 146.259999 
L 66.823474 146.266834 
L 66.848838 146.03411 
L 66.851144 146.03411 
L 67.153205 143.768396 
L 67.169345 143.658877 
L 69.163872 132.474091 
L 69.168484 132.480938 
L 69.2146 132.282431 
L 69.392148 131.461026 
L 69.394453 131.46787 
L 69.791053 129.770302 
L 69.793359 129.777149 
L 69.832558 129.558103 
L 69.834863 129.558103 
L 70.192264 128.161718 
L 70.383646 127.429298 
L 70.385952 127.442989 
L 70.448209 127.162345 
L 70.80561 125.75226 
L 70.967017 125.136207 
L 70.969323 125.149902 
L 71.031579 124.869257 
L 71.033885 124.882948 
L 71.195292 124.273738 
L 71.21835 124.171063 
L 71.398203 123.55501 
L 71.750993 122.165468 
L 71.898565 121.611018 
L 72.255965 120.153022 
L 72.283635 120.057198 
L 72.442736 119.482213 
L 72.770161 118.1885 
L 72.772467 118.202191 
L 72.839336 117.942076 
L 72.841641 117.948923 
L 73.148314 116.696283 
L 74.379617 108.742346 
L 74.432651 106.134393 
L 74.481073 14.76 
L 74.584835 77.179887 
L 74.776217 111.877376 
L 74.953765 113.93773 
L 74.95607 113.930891 
L 74.979128 114.026714 
L 75.186651 114.896035 
L 75.221239 115.005554 
L 75.843808 116.538844 
L 75.846114 116.525157 
L 75.848419 116.504623 
L 75.931429 116.655214 
L 75.947569 116.607298 
L 75.949875 116.600451 
L 76.016744 116.716817 
L 76.030578 116.703126 
L 76.099753 116.798958 
L 76.20582 116.935859 
L 76.111282 116.778424 
L 76.221961 116.894786 
L 76.344169 116.990618 
L 76.355698 116.956393 
L 76.484823 116.908481 
L 76.593196 116.976932 
L 76.514799 116.894786 
L 76.60242 116.970084 
L 76.662371 117.011157 
L 76.69004 116.887943 
L 76.696958 116.91532 
L 76.738462 116.887943 
L 76.70157 116.922164 
L 76.805331 116.935859 
L 77.033606 116.82634 
L 77.075111 116.805806 
L 77.105086 116.874252 
L 77.135062 116.846874 
L 77.188096 116.881099 
L 77.227294 116.785267 
L 77.243435 116.82634 
L 77.372561 116.716817 
L 77.529356 116.559378 
L 77.397925 116.75789 
L 77.536273 116.566229 
L 77.582389 116.607298 
L 77.561637 116.545691 
L 77.637729 116.552539 
L 77.755325 116.408786 
L 77.882145 116.299267 
L 77.889062 116.326649 
L 78.015882 116.148676 
L 78.025105 116.189753 
L 78.098891 116.100764 
L 78.121949 116.128141 
L 78.320249 115.874874 
L 78.329472 115.909104 
L 78.391729 115.820119 
L 78.424011 115.820119 
L 78.541607 115.621607 
L 78.546219 115.628459 
L 78.566971 115.66268 
L 78.596946 115.553157 
L 78.64998 115.580538 
L 78.762965 115.354657 
L 78.772188 115.388878 
L 78.774494 115.395726 
L 78.827528 115.279355 
L 78.845974 115.279355 
L 78.975099 115.053474 
L 78.979711 115.060322 
L 79.207986 114.68384 
L 79.226433 114.731756 
L 79.307136 114.588012 
L 79.309442 114.588012 
L 79.466237 114.314211 
L 79.523883 114.225226 
L 79.650702 114.00618 
L 79.67376 114.026714 
L 79.736017 113.876123 
L 79.855919 113.752917 
L 79.754464 113.889818 
L 79.858225 113.759765 
L 79.860531 113.773447 
L 79.918176 113.643394 
L 79.945846 113.643394 
L 80.109559 113.177937 
L 80.287106 112.746692 
L 80.289412 112.760387 
L 80.291718 112.76723 
L 80.360892 112.637173 
L 80.363198 112.637173 
L 80.506158 112.349685 
L 80.508464 112.356532 
L 80.556886 112.171711 
L 80.715987 111.692563 
L 80.718293 111.713097 
L 80.757492 111.603578 
L 81.488434 109.091445 
L 81.689039 108.290579 
L 81.850446 107.489705 
L 82.138673 102.041058 
L 82.1894 16.491797 
L 82.286245 69.999444 
L 82.496073 106.586164 
L 82.689762 111.788387 
L 83.697401 117.154897 
L 83.702013 117.148058 
L 83.706624 117.113828 
L 83.796551 117.394477 
L 83.828832 117.497149 
L 84.004074 117.89416 
L 84.010991 117.859939 
L 84.096306 118.08582 
L 84.098612 118.078981 
L 84.100918 118.072137 
L 84.17701 118.181656 
L 84.179316 118.174809 
L 84.301524 118.345935 
L 84.197762 118.147431 
L 84.306135 118.339091 
L 84.310747 118.311714 
L 84.393756 118.496522 
L 84.398368 118.48284 
L 84.522882 118.681339 
L 84.525187 118.6745 
L 84.658924 118.777175 
L 84.663536 118.770324 
L 84.790356 118.98937 
L 84.818025 118.955145 
L 84.875671 119.064663 
L 84.896423 119.044125 
L 85.048607 119.187877 
L 85.053218 119.174182 
L 85.076276 119.12627 
L 85.106252 119.208412 
L 85.159285 119.201568 
L 85.276882 119.235789 
L 85.168509 119.187877 
L 85.283799 119.228946 
L 85.364503 119.235789 
L 85.320692 119.276862 
L 85.382949 119.276862 
L 86.722626 119.18103 
L 86.817164 119.112575 
L 86.747989 119.187877 
L 86.840222 119.119427 
L 87.13306 119.009904 
L 87.271409 118.900381 
L 87.278326 118.907229 
L 87.30369 118.955145 
L 87.363641 118.79771 
L 87.370559 118.811396 
L 87.483543 118.74295 
L 87.405146 118.831931 
L 87.490461 118.763484 
L 87.492767 118.770324 
L 87.568858 118.6745 
L 87.580387 118.688187 
L 87.670314 118.578663 
L 87.709513 118.592359 
L 87.797134 118.48284 
L 87.940094 118.387003 
L 88.050773 118.256946 
L 88.059996 118.284328 
L 88.143005 118.174809 
L 88.253684 118.099515 
L 88.258296 118.133736 
L 88.260602 118.140588 
L 88.329776 118.031065 
L 88.336693 118.031065 
L 88.509629 117.805179 
L 88.343611 118.051599 
L 88.518853 117.832557 
L 88.523464 117.839405 
L 88.590333 117.723038 
L 88.611085 117.736729 
L 88.717152 117.572446 
L 88.726376 117.592985 
L 88.779409 117.456084 
L 88.793244 117.462928 
L 88.901617 117.367091 
L 88.91084 117.408164 
L 89.141422 117.038534 
L 89.143727 117.065912 
L 89.219819 116.922164 
L 89.240571 116.922164 
L 89.369697 116.730504 
L 89.249795 116.942702 
L 89.372003 116.744199 
L 89.452706 116.63468 
L 89.653312 116.354031 
L 89.459624 116.662053 
L 89.657923 116.367718 
L 89.660229 116.381413 
L 89.74785 116.265046 
L 89.752462 116.278733 
L 89.902339 116.039161 
L 89.936927 116.080229 
L 90.001489 115.943325 
L 90.114474 115.792733 
L 90.024547 115.970711 
L 90.121391 115.820119 
L 90.179037 115.717443 
L 90.308162 115.47102 
L 90.310468 115.477867 
L 90.446511 115.382035 
L 90.377336 115.512088 
L 90.453428 115.395726 
L 90.571025 115.299894 
L 90.686315 115.142459 
L 90.693233 115.162997 
L 90.928425 114.765977 
L 90.933037 114.772825 
L 90.935343 114.800207 
L 91.022964 114.642768 
L 91.034493 114.68384 
L 91.161312 114.526405 
L 91.163618 114.540096 
L 91.237404 114.348436 
L 91.23971 114.348436 
L 91.396505 114.081478 
L 91.463374 113.992493 
L 91.557912 113.793986 
L 91.585582 113.81452 
L 91.820774 113.417513 
L 91.829998 113.431195 
L 91.862279 113.328524 
L 91.979875 113.150551 
L 91.989099 113.191619 
L 92.166646 112.780921 
L 92.168952 112.787765 
L 92.224291 112.86991 
L 92.268102 112.753544 
L 92.272713 112.753544 
L 92.281937 112.76723 
L 92.443343 112.397601 
L 92.494071 112.294925 
L 92.655478 111.959513 
L 92.66009 111.966364 
L 92.687759 111.856837 
L 93.01749 111.151799 
L 92.692371 111.863689 
L 93.026714 111.192872 
L 93.033631 111.206563 
L 93.082053 111.049124 
L 93.091276 111.055975 
L 93.222708 110.693185 
L 93.225013 110.700029 
L 93.229625 110.720567 
L 93.278047 110.522059 
L 93.280353 110.528907 
L 93.462512 110.214028 
L 93.487876 110.255101 
L 93.490182 110.282479 
L 93.577803 110.042903 
L 93.580108 110.049754 
L 93.732292 109.563754 
L 93.780714 109.461079 
L 93.995154 108.803957 
L 93.787631 109.474765 
L 93.999766 108.810796 
L 94.004378 108.817648 
L 94.050494 108.646522 
L 94.218818 107.893564 
L 94.22343 107.907259 
L 94.405589 107.024243 
L 94.751461 104.238313 
L 94.76299 104.142489 
L 94.885198 100.699428 
L 94.926702 21.01636 
L 94.938231 17.087316 
L 94.993571 49.313744 
L 95.180341 98.85812 
L 95.410923 110.330399 
L 95.816745 114.745443 
L 95.819051 114.71807 
L 95.88592 115.2246 
L 95.904366 115.327275 
L 96.164923 116.655214 
L 96.181064 116.75789 
L 96.506183 118.031065 
L 96.510795 118.024217 
L 96.559217 118.202191 
L 96.561522 118.195343 
L 96.734458 118.74295 
L 96.912006 119.167343 
L 96.914312 119.133114 
L 97.013461 119.283701 
L 97.108 119.379538 
L 97.25096 119.680721 
L 97.253266 119.673873 
L 97.310911 119.790236 
L 97.336275 119.769701 
L 97.580691 120.159873 
L 97.582997 120.153022 
L 97.64756 120.269392 
L 97.670618 120.221476 
L 97.76285 120.358377 
L 97.792826 120.317308 
L 97.806661 120.310461 
L 97.866612 120.426823 
L 97.875835 120.413136 
L 98.057994 120.52266 
L 98.154838 120.556881 
L 98.099499 120.502125 
L 98.170979 120.515808 
L 98.253988 120.52266 
L 98.182508 120.550037 
L 98.265517 120.563728 
L 98.362361 120.632178 
L 98.27474 120.556881 
L 98.383113 120.597949 
L 98.426924 120.59111 
L 98.466123 120.686934 
L 98.47304 120.666399 
L 98.567578 120.707472 
L 98.498404 120.632178 
L 98.588331 120.693785 
L 98.609083 120.680095 
L 98.645976 120.755388 
L 98.682869 120.741702 
L 98.775101 120.830686 
L 98.738208 120.728006 
L 98.800465 120.78277 
L 98.899615 120.741702 
L 98.811994 120.789609 
L 98.91345 120.762236 
L 99.031046 120.71432 
L 98.94112 120.803304 
L 99.035658 120.734854 
L 99.153254 120.789609 
L 99.201676 120.796461 
L 99.192453 120.741702 
L 99.257016 120.748541 
L 99.346943 120.769075 
L 99.372306 120.707472 
L 99.637475 120.604801 
L 99.748154 120.543194 
L 99.72279 120.639026 
L 99.752765 120.570576 
L 99.761989 120.59111 
L 99.842692 120.495274 
L 100.09172 120.385755 
L 100.117084 120.413136 
L 100.211622 120.330999 
L 100.216233 120.36522 
L 100.30616 120.228324 
L 100.398393 120.283079 
L 100.324607 120.187251 
L 100.419145 120.221476 
L 100.54827 120.118801 
L 100.57594 120.153022 
L 100.608221 120.043503 
L 100.645114 120.07088 
L 100.649726 120.077732 
L 100.820356 119.892915 
L 100.822662 119.906606 
L 100.907977 119.817622 
L 100.919506 119.831304 
L 101.053243 119.708094 
L 100.947176 119.858686 
L 101.069384 119.721789 
L 101.073995 119.742324 
L 101.138558 119.61911 
L 101.150087 119.639644 
L 101.267683 119.530129 
L 101.269989 119.536968 
L 101.396809 119.42745 
L 101.412949 119.454827 
L 101.491347 119.352156 
L 101.50057 119.379538 
L 101.597414 119.311087 
L 101.618167 119.317931 
L 101.761127 119.208412 
L 101.894864 119.05782 
L 101.768044 119.228946 
L 101.89717 119.064663 
L 101.899476 119.071507 
L 101.938674 119.003057 
L 102.000931 119.037286 
L 102.173867 118.79771 
L 102.180785 118.831931 
L 102.185396 118.852465 
L 102.2661 118.715568 
L 102.275323 118.729255 
L 102.300687 118.756641 
L 102.358332 118.653966 
L 102.36525 118.653966 
L 102.466705 118.558129 
L 102.379084 118.667648 
L 102.489763 118.564977 
L 102.503598 118.578663 
L 102.549714 118.434924 
L 102.586607 118.475988 
L 102.593525 118.48284 
L 102.653476 118.393851 
L 102.676534 118.421233 
L 102.819494 118.140588 
L 103.010877 117.89416 
L 103.0201 117.921542 
L 103.084663 117.805179 
L 103.110027 117.81887 
L 103.246069 117.586137 
L 103.285268 117.62721 
L 103.324467 117.483462 
L 103.331385 117.510839 
L 103.453593 117.360252 
L 103.46051 117.401321 
L 103.527378 117.394477 
L 103.476651 117.353409 
L 103.550437 117.339718 
L 103.70262 117.100141 
L 103.709538 117.106981 
L 103.771794 116.997466 
L 103.787935 117.024839 
L 103.956259 116.682588 
L 103.958565 116.703126 
L 104.055409 116.573073 
L 104.073856 116.593607 
L 104.140724 116.463554 
L 104.149948 116.477241 
L 104.196064 116.374565 
L 104.320578 116.23766 
L 104.209899 116.388252 
L 104.325189 116.258199 
L 104.332107 116.278733 
L 104.410504 116.155523 
L 104.419727 116.162371 
L 104.493513 116.052852 
L 104.502737 116.059695 
L 104.742541 115.621607 
L 104.744847 115.655836 
L 104.830162 115.505249 
L 104.846303 115.512088 
L 104.9247 115.41626 
L 105.06766 115.121924 
L 105.102248 115.156145 
L 105.157587 115.019249 
L 105.16681 115.026092 
L 105.291324 114.820745 
L 105.369722 114.711222 
L 105.494236 114.512714 
L 105.584162 114.416886 
L 105.60722 114.430573 
L 105.708676 114.293677 
L 105.710982 114.307368 
L 105.796297 114.163619 
L 105.798603 114.163619 
L 105.877 114.0541 
L 106.054548 113.62286 
L 105.883918 114.060944 
L 106.059159 113.629707 
L 106.063771 113.643394 
L 106.128334 113.485963 
L 106.151392 113.513337 
L 106.165227 113.520188 
L 106.294352 113.321677 
L 106.354303 113.225849 
L 106.361221 113.232692 
L 106.499569 112.924669 
L 106.524933 112.952047 
L 106.594108 112.794608 
L 106.596413 112.80146 
L 107.018377 111.843155 
L 107.022988 111.863689 
L 107.025294 111.891066 
L 107.112915 111.644643 
L 107.115221 111.644643 
L 107.212065 111.548815 
L 107.373472 111.103887 
L 107.44034 111.001208 
L 107.606359 110.645269 
L 107.608665 110.665803 
L 108.381111 108.037312 
L 108.551741 107.31174 
L 108.554047 107.318579 
L 108.584023 107.072164 
L 108.586329 107.079007 
L 108.939118 103.047279 
L 108.955258 95.901062 
L 109.001375 17.18314 
L 109.088995 66.41949 
L 109.289601 101.986303 
L 109.529405 110.474143 
L 109.748457 113.047875 
L 110.205008 116.134985 
L 110.230372 116.244512 
L 110.410225 117.079607 
L 110.412531 117.07276 
L 110.465565 117.257572 
L 111.032794 118.619736 
L 111.0351 118.606049 
L 111.037406 118.585515 
L 111.125027 118.756641 
L 111.127333 118.756641 
L 111.26107 118.98937 
L 111.136556 118.708721 
L 111.263375 118.975679 
L 111.510097 119.372694 
L 111.514709 119.338469 
L 111.593106 119.468522 
L 111.611553 119.447984 
L 111.798324 119.660182 
L 111.823688 119.605423 
L 111.881333 119.714946 
L 111.902085 119.694408 
L 111.9874 119.797083 
L 112.109608 119.886072 
L 112.008153 119.769701 
L 112.111914 119.872381 
L 112.340189 119.940827 
L 112.388611 120.00243 
L 112.443951 119.933984 
L 112.450868 119.975057 
L 113.041156 120.07088 
L 113.091884 120.098266 
L 113.131083 120.043503 
L 113.151835 120.077732 
L 113.250985 120.036659 
L 113.244067 120.098266 
L 113.26482 120.064041 
L 113.324771 120.091419 
L 113.310936 120.016125 
L 113.366275 120.036659 
L 113.493095 119.927141 
L 113.495401 119.933984 
L 113.589939 119.954522 
L 113.520765 119.892915 
L 113.601468 119.91345 
L 113.675254 119.838156 
L 113.728288 119.87922 
L 113.993456 119.776549 
L 114.028043 119.790236 
L 114.124887 119.646496 
L 114.147945 119.701255 
L 114.18945 119.571198 
L 114.21712 119.591732 
L 114.31627 119.502747 
L 114.230955 119.625957 
L 114.33241 119.557503 
L 114.489206 119.406915 
L 114.50304 119.441145 
L 114.574521 119.359003 
L 114.595273 119.386377 
L 114.712869 119.235789 
L 114.622943 119.393229 
L 114.715175 119.256324 
L 114.722092 119.297396 
L 114.775126 119.194717 
L 114.818937 119.194717 
L 114.964203 119.064663 
L 114.823548 119.201568 
L 114.966508 119.085202 
L 114.968814 119.098893 
L 115.054129 118.975679 
L 115.058741 118.982522 
L 115.187866 118.859317 
L 115.190172 118.86616 
L 115.263958 118.770324 
L 115.307769 118.6745 
L 115.381555 118.708721 
L 115.489928 118.606049 
L 115.630582 118.434924 
L 115.80813 118.215877 
L 115.817353 118.222725 
L 115.831188 118.250107 
L 115.898056 118.140588 
L 115.904974 118.15427 
L 116.015653 118.031065 
L 116.034099 118.051599 
L 116.188588 117.887321 
L 116.05024 118.065286 
L 116.195506 117.907855 
L 116.197812 117.914698 
L 116.266986 117.812019 
L 116.29235 117.866786 
L 116.423781 117.688809 
L 116.516014 117.592985 
L 116.594411 117.497149 
L 116.631304 117.524535 
L 116.721231 117.421859 
L 116.739677 117.449232 
L 116.850356 117.298641 
L 116.857274 117.339718 
L 116.942589 117.223351 
L 116.951812 117.223351 
L 117.083243 117.079607 
L 117.085549 117.127519 
L 117.184699 116.929016 
L 117.187005 116.929016 
L 117.263097 116.82634 
L 117.392222 116.655214 
L 117.401445 116.682588 
L 117.468314 116.559378 
L 117.484454 116.586764 
L 117.590522 116.456706 
L 117.523653 116.593607 
L 117.615886 116.470393 
L 117.747317 116.360878 
L 117.765763 116.367718 
L 117.869525 116.251355 
L 117.929476 116.148676 
L 118.060907 115.936481 
L 118.063213 115.950176 
L 118.067825 115.957015 
L 118.210785 115.73113 
L 118.215397 115.765355 
L 118.300712 115.66268 
L 118.314547 115.690062 
L 118.432143 115.48471 
L 118.445978 115.491554 
L 118.462118 115.498401 
L 118.515152 115.375192 
L 118.526681 115.395726 
L 118.533599 115.402573 
L 118.678865 115.142459 
L 118.734204 115.149302 
L 118.768791 115.060322 
L 118.775709 115.060322 
L 118.78032 115.067161 
L 118.964785 114.827589 
L 118.976314 114.861814 
L 119.054712 114.697531 
L 119.063935 114.71807 
L 119.179226 114.553783 
L 119.186143 114.594856 
L 119.188449 114.608547 
L 119.243788 114.42373 
L 119.269152 114.437421 
L 119.27607 114.451107 
L 119.405195 114.218375 
L 119.51818 114.108856 
L 119.642694 113.896661 
L 119.651917 113.910352 
L 119.658835 113.924043 
L 119.741844 113.787138 
L 119.834076 113.684463 
L 119.977036 113.396974 
L 119.85944 113.698158 
L 119.988566 113.424352 
L 119.993177 113.438047 
L 120.055434 113.294299 
L 120.060046 113.294299 
L 120.126914 113.191619 
L 120.235287 112.952047 
L 120.262957 112.972586 
L 120.265263 112.999959 
L 120.348272 112.808299 
L 120.362107 112.856215 
L 120.493538 112.678246 
L 120.495844 112.705623 
L 120.578853 112.575566 
L 120.5973 112.589261 
L 120.604217 112.623482 
L 120.684921 112.452356 
L 120.689532 112.479742 
L 120.735648 112.377067 
L 120.855551 112.178559 
L 120.86708 112.199089 
L 121.159918 111.624108 
L 121.169141 111.644643 
L 121.254456 111.548815 
L 121.406639 111.131265 
L 121.408945 111.165494 
L 121.425086 111.172334 
L 121.47812 111.04228 
L 121.487343 111.055975 
L 121.630303 110.638422 
L 121.641832 110.652117 
L 121.646444 110.686338 
L 121.690254 110.467296 
L 121.69256 110.480991 
L 121.826297 109.994995 
L 121.842438 110.015529 
L 121.847049 110.036063 
L 122.518041 107.667683 
L 122.67253 107.024243 
L 122.704811 106.914724 
L 123.087576 102.568131 
L 123.106022 90.787821 
L 123.147527 17.696518 
L 123.232842 64.756146 
L 123.431142 100.692589 
L 123.677864 109.960765 
L 123.763179 111.131265 
L 124.501038 116.716817 
L 125.60091 119.639644 
L 125.72773 119.749167 
L 125.734647 119.73548 
L 125.849938 119.858686 
L 125.856855 119.844999 
L 125.932947 119.947675 
L 126.04132 120.029816 
L 125.958311 119.920293 
L 126.055155 120.009282 
L 126.092048 120.00243 
L 126.122024 120.077732 
L 126.154305 120.029816 
L 126.255761 120.111953 
L 126.269596 120.10511 
L 126.368745 120.187251 
L 126.28343 120.091419 
L 126.389498 120.159873 
L 126.391804 120.153022 
L 126.456366 120.262545 
L 126.479424 120.235163 
L 126.60855 120.372068 
L 126.495565 120.214629 
L 126.613161 120.36522 
L 126.620079 120.324148 
L 126.712311 120.413136 
L 126.716923 120.406289 
L 126.816073 120.419984 
L 126.763039 120.330999 
L 126.82299 120.378911 
L 127.606966 120.276236 
L 127.683058 120.214629 
L 127.616189 120.283079 
L 127.722257 120.248858 
L 127.982813 120.139335 
L 128.091187 120.064041 
L 128.026624 120.187251 
L 128.105021 120.111953 
L 128.111939 120.132487 
L 128.134997 120.050346 
L 128.197254 120.043503 
L 128.222618 120.077732 
L 128.337908 119.968209 
L 128.439364 119.858686 
L 128.524679 119.803931 
L 128.46934 119.87922 
L 128.554655 119.831304 
L 128.563878 119.844999 
L 128.609994 119.756015 
L 128.660722 119.803931 
L 128.85441 119.714946 
L 128.916667 119.625957 
L 128.884386 119.749167 
L 128.972006 119.639644 
L 129.05271 119.557503 
L 129.089603 119.578041 
L 129.135719 119.591732 
L 129.174918 119.509595 
L 129.181835 119.516434 
L 129.287903 119.413763 
L 129.306349 119.441145 
L 129.426251 119.352156 
L 129.467756 119.379538 
L 129.539236 119.297396 
L 129.557683 119.311087 
L 129.580741 119.242637 
L 129.640692 119.256324 
L 129.7629 119.119427 
L 129.765206 119.12627 
L 129.894331 119.016752 
L 130.025762 118.831931 
L 130.198698 118.653966 
L 130.20331 118.688187 
L 130.295542 118.571824 
L 130.420056 118.469145 
L 130.542264 118.291175 
L 130.549181 118.304862 
L 130.650637 118.195343 
L 130.800515 118.058447 
L 130.805126 118.065286 
L 130.807432 118.08582 
L 130.897359 117.976305 
L 130.906582 117.976305 
L 131.033402 117.839405 
L 130.920417 117.989996 
L 131.038013 117.853091 
L 131.118717 117.750416 
L 131.238619 117.675122 
L 131.240925 117.681965 
L 131.333157 117.57929 
L 131.450754 117.442393 
L 131.453059 117.449232 
L 131.464589 117.469767 
L 131.522234 117.367091 
L 131.542986 117.38763 
L 131.660582 117.216504 
L 131.681335 117.223351 
L 131.688252 117.237038 
L 131.752815 117.100141 
L 131.773567 117.113828 
L 131.868105 116.963237 
L 131.904998 116.990618 
L 131.939586 116.887943 
L 131.988008 116.908481 
L 132.064099 116.709969 
L 132.103298 116.716817 
L 132.140191 116.620985 
L 132.154026 116.63468 
L 132.255482 116.422481 
L 132.280846 116.443016 
L 132.283152 116.449859 
L 132.359243 116.354031 
L 132.361549 116.381413 
L 132.47684 116.169214 
L 132.479145 116.176057 
L 132.497592 116.217126 
L 132.555237 116.059695 
L 132.677445 115.943325 
L 132.562155 116.073386 
L 132.684363 115.957015 
L 132.737396 115.861187 
L 132.804265 115.717443 
L 132.864216 115.724283 
L 132.866522 115.737978 
L 132.947225 115.628459 
L 132.96106 115.642145 
L 133.182418 115.279355 
L 132.972589 115.655836 
L 133.18703 115.299894 
L 133.210088 115.320428 
L 133.25851 115.183531 
L 133.283874 115.217752 
L 133.406082 115.080856 
L 133.408387 115.087695 
L 133.498314 115.080856 
L 133.463727 115.005554 
L 133.507537 115.046626 
L 133.634357 114.854966 
L 133.636663 114.875501 
L 133.728895 114.71807 
L 133.74273 114.738604 
L 133.867244 114.540096 
L 133.890302 114.588012 
L 133.959476 114.42373 
L 134.162388 114.12939 
L 133.975617 114.444268 
L 134.166999 114.149924 
L 134.18314 114.19784 
L 134.261538 113.985646 
L 134.406804 113.780299 
L 134.416027 113.787138 
L 134.466755 113.629707 
L 134.494425 113.636551 
L 134.584351 113.554409 
L 134.704253 113.342211 
L 134.59588 113.561257 
L 134.715782 113.349063 
L 134.7227 113.383284 
L 134.79418 113.232692 
L 134.803403 113.232692 
L 134.921 113.109482 
L 134.82185 113.25323 
L 134.925611 113.123173 
L 134.927917 113.136864 
L 135.006315 113.020493 
L 135.015538 113.020493 
L 135.130829 112.883597 
L 135.140052 112.904135 
L 135.368327 112.527658 
L 135.375245 112.541345 
L 135.37755 112.561883 
L 135.469783 112.418135 
L 135.615049 112.116956 
L 135.645024 112.027963 
L 135.77415 111.788387 
L 135.785679 111.802082 
L 135.850242 111.644643 
L 135.859465 111.65149 
L 135.990896 111.411914 
L 135.884829 111.665177 
L 135.997814 111.466673 
L 136.007037 111.494051 
L 136.083129 111.240784 
L 136.090046 111.240784 
L 136.735673 109.645895 
L 136.740285 109.652743 
L 136.744896 109.666426 
L 136.774872 109.54322 
L 136.823294 109.563754 
L 136.977783 109.166743 
L 137.014676 109.070915 
L 137.217588 108.25635 
L 137.236034 108.276884 
L 137.272927 108.078385 
L 137.279845 108.085224 
L 137.669527 106.579316 
L 137.84938 105.354057 
L 138.024622 102.910378 
L 138.040762 97.133168 
L 138.089184 17.874496 
L 138.179111 67.199824 
L 138.382022 100.453013 
L 138.624133 109.892315 
L 138.926194 113.321677 
L 138.9285 113.314837 
L 138.95617 113.5681 
L 139.830072 118.140588 
L 139.832378 118.126897 
L 139.834684 118.106363 
L 139.915387 118.380164 
L 139.922304 118.359626 
L 140.323516 119.263167 
L 140.325821 119.242637 
L 140.406525 119.386377 
L 140.422666 119.372694 
L 140.639412 119.721789 
L 140.650941 119.714946 
L 140.653247 119.694408 
L 140.736256 119.858686 
L 140.743173 119.844999 
L 140.763926 119.831304 
L 140.86077 119.968209 
L 141.008342 120.077732 
L 141.13055 120.200942 
L 141.022176 120.07088 
L 141.135161 120.166717 
L 141.27351 120.283079 
L 141.285039 120.276236 
L 141.395718 120.248858 
L 141.398024 120.269392 
L 141.439528 120.242006 
L 141.513314 120.324148 
L 141.54329 120.262545 
L 141.61477 120.330999 
L 141.623993 120.324148 
L 141.665498 120.269392 
L 141.647051 120.337843 
L 141.734672 120.317308 
L 141.838434 120.385755 
L 141.849963 120.358377 
L 141.852269 120.344682 
L 141.916831 120.440518 
L 141.953724 120.392602 
L 142.034428 120.454205 
L 142.066709 120.406289 
L 142.177388 120.372068 
L 142.08285 120.447362 
L 142.182 120.385755 
L 142.288067 120.461053 
L 142.294984 120.433671 
L 142.377994 120.385755 
L 142.311125 120.447362 
L 142.407969 120.39945 
L 142.470226 120.454205 
L 142.437945 120.385755 
L 142.516342 120.385755 
L 142.597046 120.337843 
L 142.633939 120.351534 
L 142.656997 120.372068 
L 142.700807 120.289927 
L 142.735394 120.296774 
L 142.79304 120.337843 
L 142.852991 120.255701 
L 143.131994 120.146183 
L 143.270342 120.043503 
L 143.27726 120.057198 
L 143.286483 120.077732 
L 143.341823 119.981896 
L 143.357963 119.981896 
L 143.371798 120.009282 
L 143.47556 119.87922 
L 143.526288 119.906606 
L 143.563181 119.81077 
L 143.581627 119.844999 
L 143.696918 119.756015 
L 143.59085 119.851843 
L 143.699223 119.762858 
L 143.846795 119.639644 
L 143.713058 119.769701 
L 143.849101 119.646496 
L 143.865242 119.673873 
L 143.939028 119.550664 
L 143.952863 119.584889 
L 144.072765 119.434297 
L 144.075071 119.454827 
L 144.208808 119.352156 
L 144.211114 119.379538 
L 144.215725 119.393229 
L 144.289511 119.270019 
L 144.305652 119.283701 
L 144.42786 119.222103 
L 144.324098 119.317931 
L 144.437083 119.235789 
L 144.559291 119.12627 
L 144.563903 119.133114 
L 144.688416 118.996217 
L 144.690722 119.016752 
L 144.723004 118.94145 
L 144.794484 118.955145 
L 144.955891 118.770324 
L 144.962808 118.79771 
L 144.969725 118.811396 
L 145.048123 118.715568 
L 145.061958 118.722416 
L 145.068875 118.749789 
L 145.089628 118.647118 
L 145.147273 118.647118 
L 145.264869 118.489683 
L 145.387077 118.380164 
L 145.292539 118.517061 
L 145.391689 118.393851 
L 145.40783 118.434924 
L 145.442417 118.332248 
L 145.486227 118.345935 
L 145.629187 118.147431 
L 145.656857 118.215877 
L 145.672998 118.099515 
L 145.735255 118.113202 
L 145.762925 118.126897 
L 145.781371 118.037912 
L 145.82057 118.031065 
L 145.940472 117.935237 
L 145.945084 117.948923 
L 146.025787 117.839405 
L 146.136466 117.729881 
L 146.074209 117.859939 
L 146.166442 117.757263 
L 146.217169 117.77095 
L 146.247145 117.7025 
L 146.263286 117.729881 
L 146.364741 117.57929 
L 146.385494 117.586137 
L 146.556124 117.380786 
L 146.565347 117.394477 
L 146.569959 117.408164 
L 146.634521 117.291802 
L 146.664497 117.33287 
L 146.759035 117.161744 
L 146.70139 117.339718 
L 146.798234 117.202817 
L 146.809763 117.230195 
L 146.881243 117.059069 
L 146.883549 117.065912 
L 147.012674 116.860565 
L 147.01498 116.867409 
L 147.074931 116.874252 
L 147.095683 116.798958 
L 147.11413 116.819492 
L 147.287066 116.586764 
L 147.293983 116.620985 
L 147.296289 116.63468 
L 147.379298 116.497779 
L 147.388522 116.518309 
L 147.395439 116.532 
L 147.464613 116.408786 
L 147.469225 116.415638 
L 147.58221 116.312962 
L 147.676748 116.148676 
L 147.718253 116.162371 
L 147.835849 116.059695 
L 147.978809 115.868035 
L 147.983421 115.895408 
L 148.059513 115.765355 
L 148.119464 115.66268 
L 148.234754 115.505249 
L 148.23706 115.512088 
L 148.285482 115.409413 
L 148.439971 115.128768 
L 148.444583 115.169836 
L 148.529898 114.998715 
L 148.539121 115.026092 
L 148.573709 115.074008 
L 148.626742 114.971333 
L 148.638271 114.998715 
L 148.765091 114.793359 
L 148.767397 114.800207 
L 148.815819 114.68384 
L 148.845794 114.711222 
L 148.977226 114.471642 
L 148.981837 114.492176 
L 149.037177 114.403191 
L 149.11788 114.238913 
L 149.159385 114.273142 
L 149.293122 114.108856 
L 149.295427 114.115703 
L 149.31618 114.149924 
L 149.389966 113.978798 
L 149.410718 114.019871 
L 149.581348 113.739226 
L 149.599795 113.787138 
L 149.65744 113.663928 
L 149.68511 113.691314 
L 149.818847 113.417513 
L 149.825764 113.424352 
L 149.89955 113.321677 
L 150.063263 112.99312 
L 150.065568 113.013654 
L 150.111685 112.917818 
L 150.167024 112.931513 
L 150.215446 112.842528 
L 150.344572 112.630334 
L 150.489838 112.370219 
L 150.492144 112.383906 
L 150.524425 112.445513 
L 150.58207 112.21278 
L 150.591293 112.21278 
L 150.725031 111.911605 
L 150.727336 111.918444 
L 150.78037 111.82946 
L 150.914107 111.466673 
L 150.921024 111.473517 
L 150.92333 111.494051 
L 151.008645 111.281857 
L 151.010951 111.281857 
L 151.070902 111.172334 
L 151.301483 110.754792 
L 151.07782 111.179185 
L 151.322236 110.768479 
L 151.326847 110.782174 
L 151.386798 110.624735 
L 151.389104 110.624735 
L 151.393716 110.631582 
L 151.679636 110.090819 
L 151.681942 110.111353 
L 151.764951 109.926544 
L 151.771869 109.960765 
L 151.900994 109.54322 
L 151.9033 109.556907 
L 151.986309 109.385781 
L 151.995533 109.413167 
L 152.899411 106.33974 
L 153.095405 104.820145 
L 153.183025 103.149955 
L 153.201472 95.113883 
L 153.247588 18.141445 
L 153.335209 66.097773 
L 153.531203 99.631609 
L 153.803289 109.194121 
L 154.112267 112.733009 
L 154.995393 117.305488 
L 155.56954 118.722416 
L 155.576458 118.695034 
L 155.578763 118.681339 
L 155.657161 118.852465 
L 155.659467 118.838778 
L 155.779369 119.078354 
L 155.793204 119.044125 
L 155.993809 119.393229 
L 156.014562 119.379538 
L 156.035314 119.359003 
L 156.099877 119.489057 
L 156.113712 119.482213 
L 156.254366 119.605423 
L 156.120629 119.454827 
L 156.263589 119.584889 
L 156.360433 119.68756 
L 156.461889 119.81077 
L 156.397326 119.667026 
L 156.487253 119.783396 
L 156.614073 119.892915 
L 156.694776 119.981896 
L 156.632519 119.886072 
L 156.733975 119.940827 
L 157.220501 120.043503 
L 157.229724 120.07088 
L 157.280452 119.961362 
L 157.319651 119.995591 
L 157.418801 119.981896 
L 157.381908 120.043503 
L 157.428024 120.016125 
L 157.796954 119.927141 
L 157.882269 119.892915 
L 157.840764 119.968209 
L 157.905327 119.954522 
L 158.020618 119.920293 
L 157.974501 120.00243 
L 158.025229 119.933984 
L 158.099015 119.981896 
L 158.124379 119.892915 
L 158.138214 119.954522 
L 158.260422 119.865534 
L 158.262728 119.87922 
L 158.375712 119.920293 
L 158.285786 119.865534 
L 158.38263 119.892915 
L 158.516367 119.783396 
L 158.391853 119.91345 
L 158.518673 119.817622 
L 158.532508 119.858686 
L 158.601682 119.756015 
L 158.622434 119.783396 
L 158.689303 119.673873 
L 158.740031 119.701255 
L 158.753866 119.728629 
L 158.876074 119.557503 
L 158.961389 119.653339 
L 158.986752 119.578041 
L 159.09282 119.516434 
L 159.03748 119.61911 
L 159.111266 119.536968 
L 159.129713 119.598575 
L 159.212722 119.475366 
L 159.482502 119.386377 
L 159.519395 119.400072 
L 159.600098 119.30424 
L 159.625462 119.317931 
L 159.650826 119.242637 
L 159.687719 119.235789 
L 159.809927 119.139961 
L 159.812233 119.174182 
L 159.858349 119.064663 
L 159.915994 119.098893 
L 160.038202 118.98937 
L 160.040508 119.003057 
L 160.091236 119.016752 
L 160.121212 118.879847 
L 160.135047 118.907229 
L 160.284924 118.790862 
L 160.28723 118.79771 
L 160.444025 118.688187 
L 160.559316 118.599198 
L 160.480918 118.736103 
L 160.575456 118.633427 
L 160.577762 118.64027 
L 160.644631 118.537595 
L 160.65616 118.544442 
L 160.77145 118.48284 
L 160.690747 118.564977 
L 160.773756 118.489683 
L 160.776062 118.510217 
L 160.875212 118.407538 
L 160.884435 118.434924 
L 160.935163 118.352782 
L 160.974362 118.359626 
L 161.082735 118.270641 
L 161.19572 118.08582 
L 161.103487 118.298019 
L 161.207249 118.106363 
L 161.209555 118.133736 
L 161.283341 118.017374 
L 161.313316 118.065286 
L 161.449359 117.901007 
L 161.451665 117.914698 
L 161.516228 117.812019 
L 161.546203 117.839405 
L 161.673023 117.7025 
L 161.836735 117.524535 
L 161.839041 117.545069 
L 161.841347 117.551912 
L 161.896686 117.408164 
L 161.910521 117.435546 
L 161.935885 117.442393 
L 162.028118 117.33287 
L 162.030423 117.367091 
L 162.099598 117.230195 
L 162.131879 117.237038 
L 162.281757 117.100141 
L 162.138797 117.250733 
L 162.284063 117.106981 
L 162.300203 117.127519 
L 162.380907 117.011157 
L 162.383213 117.011157 
L 162.505421 116.90163 
L 162.510032 116.908481 
L 162.680662 116.716817 
L 162.696803 116.75789 
L 162.736002 116.627832 
L 162.772895 116.648367 
L 162.791341 116.662053 
L 162.938913 116.497779 
L 163.047286 116.388252 
L 163.176412 116.278733 
L 163.056509 116.401947 
L 163.183329 116.312962 
L 163.185635 116.333497 
L 163.268644 116.230821 
L 163.287091 116.258199 
L 163.487696 115.998088 
L 163.501531 116.018627 
L 163.545341 115.895408 
L 163.58454 115.909104 
L 163.713666 115.696909 
L 163.812816 115.587386 
L 164.013421 115.306741 
L 164.027256 115.347806 
L 164.105654 115.121924 
L 164.107959 115.121924 
L 164.207109 115.012405 
L 164.352375 114.813894 
L 164.423856 114.711222 
L 164.516088 114.560626 
L 164.439996 114.745443 
L 164.550675 114.567478 
L 164.778951 114.19784 
L 164.582957 114.581165 
L 164.783562 114.211535 
L 164.792785 114.23207 
L 164.873489 114.088321 
L 164.880406 114.088321 
L 165.00492 113.971959 
L 164.90577 114.108856 
L 165.007226 113.978798 
L 165.034896 114.013028 
L 165.097153 113.86244 
L 165.099458 113.876123 
L 165.267783 113.506498 
L 165.270088 113.513337 
L 165.316205 113.554409 
L 165.360015 113.424352 
L 165.364627 113.431195 
L 165.528339 113.11633 
L 165.606737 113.027341 
L 165.733556 112.835681 
L 166.001031 112.342837 
L 166.005642 112.363371 
L 166.014865 112.424978 
L 166.074817 112.247009 
L 166.08404 112.267543 
L 166.238529 112.007429 
L 166.342291 111.89791 
L 166.506003 111.507746 
L 166.515226 111.514585 
L 166.517532 111.52828 
L 166.598236 111.357155 
L 166.71122 111.151799 
L 166.722749 111.158651 
L 166.849569 110.877998 
L 166.734279 111.165494 
L 166.854181 110.905384 
L 166.877239 110.905384 
L 166.911826 110.747945 
L 167.043257 110.515212 
L 167.047869 110.528907 
L 167.264615 109.878624 
L 167.266921 109.899158 
L 167.347624 109.714346 
L 167.356848 109.721189 
L 167.485973 109.42001 
L 167.488279 109.433701 
L 167.54823 109.139365 
L 167.550536 109.146205 
L 168.182328 106.935259 
L 168.352958 106.052252 
L 168.389851 105.607324 
L 168.588151 103.519588 
L 168.650408 101.466073 
L 168.675772 67.617371 
L 168.708053 18.401564 
L 168.786451 61.949681 
L 168.980139 98.803357 
L 169.217637 108.947701 
L 169.575038 113.335372 
L 169.644212 113.86244 
L 169.826372 115.190375 
L 169.828677 115.183531 
L 170.301369 117.367091 
L 170.30598 117.360252 
L 170.324427 117.462928 
L 170.488139 117.928389 
L 170.534256 118.037912 
L 170.684133 118.393851 
L 170.732555 118.489683 
L 170.861681 118.729255 
L 170.866292 118.708721 
L 170.94469 118.86616 
L 170.956219 118.852465 
L 171.108403 119.112575 
L 171.110708 119.105736 
L 171.205247 119.208412 
L 171.320537 119.372694 
L 171.327455 119.359003 
L 171.350513 119.352156 
L 171.403546 119.454827 
L 171.405852 119.454827 
L 171.410464 119.441145 
L 171.52806 119.564354 
L 171.544201 119.523282 
L 171.608764 119.667026 
L 171.622599 119.653339 
L 171.740195 119.769701 
L 171.631822 119.632805 
L 171.742501 119.756015 
L 171.747112 119.742324 
L 171.79784 119.858686 
L 171.846262 119.803931 
L 171.855486 119.797083 
L 171.966164 119.886072 
L 172.111431 120.009282 
L 172.113736 120.00243 
L 172.178299 119.91345 
L 172.219804 120.016125 
L 172.224415 120.00243 
L 172.245168 119.981896 
L 172.30973 120.064041 
L 172.318954 120.064041 
L 172.662519 120.166717 
L 172.770893 120.214629 
L 172.692495 120.159873 
L 172.780116 120.207785 
L 173.875376 120.111953 
L 173.97222 120.043503 
L 173.909963 120.146183 
L 173.988361 120.091419 
L 174.075982 120.111953 
L 173.99989 120.077732 
L 174.103652 120.091419 
L 174.179743 120.009282 
L 174.129015 120.098266 
L 174.218942 120.064041 
L 174.361902 119.968209 
L 174.451829 119.87922 
L 174.398795 120.00243 
L 174.477193 119.927141 
L 174.488722 119.968209 
L 174.546367 119.797083 
L 174.663964 119.73548 
L 174.557896 119.858686 
L 174.670881 119.769701 
L 174.864569 119.680721 
L 174.942967 119.625957 
L 174.977554 119.639644 
L 174.97986 119.653339 
L 175.058257 119.523282 
L 175.076704 119.564354 
L 175.083621 119.571198 
L 175.258863 119.359003 
L 175.29345 119.379538 
L 175.34879 119.30424 
L 175.362625 119.30424 
L 175.475609 119.215251 
L 175.480221 119.228946 
L 175.526337 119.235789 
L 175.510196 119.160496 
L 175.574759 119.174182 
L 175.708496 119.030442 
L 175.763836 119.064663 
L 175.796117 118.975679 
L 175.816869 119.016752 
L 175.962135 118.907229 
L 175.83301 119.037286 
L 175.964441 118.920915 
L 176.195022 118.818244 
L 176.250362 118.722416 
L 176.314925 118.74295 
L 176.483249 118.633427 
L 176.598539 118.537595 
L 176.497084 118.695034 
L 176.616986 118.578663 
L 176.706913 118.517061 
L 176.796839 118.345935 
L 176.824509 118.352782 
L 176.944411 118.215877 
L 176.95594 118.229572 
L 176.965163 118.250107 
L 177.020503 118.140588 
L 177.057396 118.140588 
L 177.186521 118.031065 
L 177.370986 117.812019 
L 177.384821 117.832557 
L 177.428631 117.7025 
L 177.465524 117.723038 
L 177.606179 117.510839 
L 177.500112 117.764111 
L 177.608485 117.531378 
L 177.617708 117.558756 
L 177.654601 117.428698 
L 177.70994 117.442393 
L 177.712246 117.449232 
L 177.776809 117.312336 
L 177.779115 117.319179 
L 177.899017 117.26442 
L 177.988944 117.154897 
L 178.166491 116.91532 
L 178.175714 116.935859 
L 178.219525 116.963237 
L 178.254112 116.867409 
L 178.27717 116.874252 
L 178.279476 116.881099 
L 178.357873 116.771576 
L 178.424742 116.668905 
L 178.544644 116.497779 
L 178.560785 116.525157 
L 178.563091 116.538844 
L 178.632265 116.408786 
L 178.650711 116.422481 
L 178.766002 116.230821 
L 178.659935 116.436172 
L 178.779837 116.258199 
L 178.895127 116.155523 
L 178.98736 116.018627 
L 179.017335 116.032313 
L 179.019641 116.052852 
L 179.093427 115.915947 
L 179.116485 115.950176 
L 179.240999 115.73113 
L 179.460051 115.402573 
L 179.462357 115.41626 
L 179.485415 115.429947 
L 179.515391 115.306741 
L 179.54306 115.313585 
L 179.727525 115.074008 
L 179.566119 115.347806 
L 179.732137 115.087695 
L 179.745972 115.128768 
L 179.826675 115.012405 
L 179.833593 115.03294 
L 180.013446 114.834428 
L 180.027281 114.854966 
L 180.094149 114.731756 
L 180.195605 114.622233 
L 180.389293 114.341589 
L 180.396211 114.368966 
L 180.398516 114.375818 
L 180.463079 114.245761 
L 180.467691 114.245761 
L 180.663685 113.917196 
L 180.682131 113.951425 
L 180.751306 113.848749 
L 180.880431 113.677623 
L 180.885043 113.698158 
L 180.9473 113.438047 
L 181.014168 115.10139 
L 181.327758 119.933984 
L 181.609067 123.418109 
L 181.904211 126.703726 
L 183.679686 141.530073 
L 183.681992 141.509534 
L 183.746555 141.892855 
L 183.972524 143.255019 
L 183.97483 143.241332 
L 184.023252 143.563045 
L 184.025558 143.563045 
L 184.196188 144.473438 
L 184.219246 144.576114 
L 184.765723 147.163541 
L 184.768029 147.156689 
L 184.807228 147.348362 
L 184.816451 147.341502 
L 184.959411 147.943868 
L 184.989387 148.053396 
L 185.397515 149.607224 
L 185.65346 150.483375 
L 185.655766 150.462845 
L 185.73647 150.729795 
L 186.665712 153.187164 
L 185.743387 150.716116 
L 186.670323 153.173478 
L 186.672629 153.159791 
L 186.753332 153.310378 
L 186.755638 153.310378 
L 186.90321 153.638943 
L 186.917045 153.625257 
L 186.970079 153.775836 
L 186.97469 153.762157 
L 187.267528 154.343977 
L 186.979302 153.755306 
L 187.274446 154.316595 
L 187.276752 154.30976 
L 187.336703 154.439809 
L 187.348232 154.432974 
L 187.546532 154.740993 
L 187.553449 154.727297 
L 187.558061 154.693081 
L 187.627235 154.884737 
L 187.650293 154.87105 
L 187.78403 155.103774 
L 187.786336 155.076401 
L 187.850899 155.23384 
L 187.885486 155.220153 
L 187.950049 155.329664 
L 188.08148 155.56924 
L 188.095315 155.541867 
L 188.099926 155.507633 
L 188.164489 155.637699 
L 188.176018 155.630847 
L 188.291309 155.781443 
L 188.309755 155.767756 
L 188.312061 155.747218 
L 188.399682 155.911492 
L 188.406599 155.877267 
L 188.531113 156.055236 
L 188.544948 156.034698 
L 188.63718 156.144233 
L 188.817034 156.356419 
L 188.819339 156.349584 
L 188.837786 156.329046 
L 188.90696 156.418026 
L 188.920795 156.38381 
L 189.043003 156.582301 
L 189.047615 156.568622 
L 189.052226 156.541232 
L 189.116789 156.671298 
L 189.139847 156.637064 
L 189.289725 156.780808 
L 189.155988 156.609691 
L 189.292031 156.76713 
L 189.294337 156.746591 
L 189.379652 156.828737 
L 189.398098 156.808198 
L 189.531835 156.986159 
L 189.534141 156.951943 
L 189.543364 156.924552 
L 189.693242 157.081992 
L 189.81545 157.170989 
L 189.93074 157.259969 
L 189.933046 157.253126 
L 190.078312 157.39687 
L 190.089841 157.383175 
L 190.142875 157.34895 
L 190.182074 157.451625 
L 190.18438 157.444782 
L 190.357316 157.547457 
L 190.472606 157.615916 
L 190.38268 157.526919 
L 190.474912 157.602221 
L 190.578673 157.595378 
L 190.502582 157.656985 
L 190.580979 157.622759 
L 190.680129 157.73227 
L 190.703187 157.711731 
L 190.710105 157.691201 
L 190.790808 157.787034 
L 190.809255 157.752808 
L 190.820784 157.745957 
L 190.924545 157.841797 
L 190.926851 157.787034 
L 191.026001 157.896561 
L 191.032918 157.862336 
L 191.157432 157.937629 
L 191.231218 157.923943 
L 191.25197 158.00608 
L 191.261194 157.978698 
L 191.6209 158.074522 
L 191.708521 158.14298 
L 191.738497 158.136129 
L 191.823812 158.074522 
L 191.856093 158.122442 
L 191.987524 158.197736 
L 191.86301 158.108755 
L 191.98983 158.184049 
L 191.994442 158.170354 
L 192.054393 158.245656 
L 192.095897 158.204587 
L 192.213494 158.259343 
L 192.273445 158.225118 
L 192.310338 158.32095 
L 192.319561 158.30042 
L 192.434852 158.403095 
L 192.326478 158.29356 
L 192.439463 158.375705 
L 192.455604 158.30042 
L 192.552448 158.32095 
L 192.660821 158.375705 
L 192.605482 158.314098 
L 192.665433 158.362018 
L 193.271861 158.457842 
L 193.373317 158.512606 
L 193.313366 158.430469 
L 193.387152 158.492076 
L 193.389457 158.457842 
L 193.449409 158.533136 
L 193.495525 158.512606 
L 193.527806 158.444164 
L 193.513971 158.519449 
L 193.60851 158.512606 
L 193.691519 158.587908 
L 193.629262 158.492076 
L 193.7238 158.560518 
L 193.790669 158.533136 
L 193.75147 158.601586 
L 193.832173 158.581056 
L 194.530834 158.68374 
L 194.613843 158.731652 
L 194.540057 158.649515 
L 194.643819 158.690583 
L 194.710687 158.663202 
L 194.729134 158.731652 
L 194.749886 158.697418 
L 194.84673 158.75219 
L 194.791391 158.670045 
L 194.860565 158.690583 
L 194.966632 158.745347 
L 194.8744 158.68374 
L 194.982773 158.711122 
L 195.081923 158.697418 
L 195.005831 158.745347 
L 195.091146 158.724809 
L 195.194908 158.779564 
L 195.181073 158.690583 
L 195.206437 158.77272 
L 195.224883 158.731652 
L 195.300975 158.800094 
L 195.317116 158.77272 
L 196.253275 158.882239 
L 196.255581 158.909621 
L 196.340896 158.827484 
L 196.363954 158.882239 
L 196.458492 158.827484 
L 196.488468 158.854866 
L 196.587618 158.902769 
L 196.499997 158.813797 
L 196.612982 158.882239 
L 196.737496 158.820632 
L 196.739801 158.848023 
L 196.765165 158.827484 
L 196.864315 158.882239 
L 196.919655 158.813797 
L 196.974994 158.868553 
L 197.069532 158.882239 
L 197.034945 158.848023 
L 197.083367 158.861701 
L 197.152542 158.827484 
L 197.097202 158.882239 
L 197.194046 158.861701 
L 197.31856 158.916465 
L 197.214798 158.848023 
L 197.323172 158.902769 
L 197.360065 158.848023 
L 197.436156 158.882239 
L 198.801197 158.971228 
L 198.904958 159.025983 
L 198.824255 158.964376 
L 198.914181 158.991767 
L 198.928016 158.936995 
L 198.994885 159.025983 
L 199.02486 158.991767 
L 200.922543 159.101277 
L 201.023999 159.114972 
L 200.980188 159.046522 
L 201.037834 159.108129 
L 201.150818 159.094442 
L 201.072421 159.121816 
L 201.15543 159.101277 
L 201.243051 159.156049 
L 201.206158 159.06706 
L 201.266109 159.121816 
L 201.376788 159.080739 
L 201.293779 159.128667 
L 201.3814 159.101277 
L 201.404458 159.128667 
L 201.427516 159.053374 
L 201.492078 159.101277 
L 201.605063 159.121816 
L 201.498996 159.073904 
L 201.607369 159.101277 
L 205.741689 159.197118 
L 205.838533 159.224491 
L 205.776276 159.156049 
L 205.850062 159.190274 
L 205.935377 159.156049 
L 205.863897 159.224491 
L 205.960741 159.197118 
L 206.066808 159.224491 
L 206.01608 159.142346 
L 206.076031 159.210804 
L 206.122148 159.183414 
L 206.092172 159.231343 
L 206.18671 159.217648 
L 206.308918 159.169736 
L 206.31353 159.183414 
L 207.171292 159.29295 
L 207.173598 159.299785 
L 207.258913 159.210804 
L 210.157317 159.31348 
L 210.247244 159.31348 
L 210.19421 159.245021 
L 210.265691 159.29295 
L 210.334865 159.210804 
L 210.27722 159.31348 
L 210.380981 159.28609 
L 210.399428 159.31348 
L 210.42018 159.238186 
L 210.49166 159.29295 
L 210.574669 159.245021 
L 210.505495 159.327167 
L 210.604645 159.279255 
L 210.643844 159.320315 
L 210.680737 159.26556 
L 210.715324 159.279255 
L 210.823697 159.245021 
L 210.729159 159.320315 
L 210.83292 159.26556 
L 210.93207 159.320315 
L 210.899789 159.245021 
L 210.943599 159.28609 
L 211.047361 159.251873 
L 210.97588 159.320315 
L 211.056584 159.26556 
L 211.116535 159.320315 
L 211.169569 159.279255 
L 211.222602 159.238186 
L 211.259495 159.306628 
L 211.277942 159.29295 
L 211.381703 159.31348 
L 211.358645 159.258725 
L 211.393232 159.299785 
L 211.513135 159.245021 
L 211.51544 159.251873 
L 211.550027 159.347697 
L 211.630731 159.320315 
L 222.557971 159.416156 
L 222.560277 159.436694 
L 222.624839 159.361392 
L 222.666344 159.395625 
L 222.763188 159.375087 
L 222.675567 159.416156 
L 222.774717 159.416156 
L 222.878479 159.409304 
L 222.786246 159.375087 
L 222.880784 159.395625 
L 222.970711 159.361392 
L 222.931512 159.464067 
L 222.991463 159.40246 
L 223.086002 159.464067 
L 223.012216 159.381922 
L 223.106754 159.429842 
L 223.164399 159.354549 
L 223.192069 159.457224 
L 223.217433 159.429842 
L 229.752102 159.320315 
L 229.84664 159.306628 
L 229.765937 159.347697 
L 229.860475 159.320315 
L 229.865087 159.354549 
L 229.931955 159.29295 
L 229.968848 159.31348 
L 230.065692 159.28609 
L 230.054163 159.368235 
L 230.081833 159.320315 
L 230.127949 159.347697 
L 230.091056 159.31348 
L 230.192512 159.31348 
L 230.277827 159.306628 
L 230.250157 159.354549 
L 230.296274 159.340853 
L 230.372365 159.409304 
L 230.300885 159.334018 
L 230.411564 159.340853 
L 230.416176 159.31348 
L 230.45768 159.40246 
L 230.517631 159.368235 
L 230.630616 159.381922 
L 230.591417 159.31348 
L 230.632922 159.368235 
L 230.734378 159.347697 
L 230.665203 159.395625 
L 230.743601 159.375087 
L 230.817387 159.334018 
L 230.856586 159.40246 
L 230.895785 159.340853 
L 230.971876 159.375087 
L 231.094084 159.416156 
L 230.985711 159.334018 
L 231.09639 159.409304 
L 231.188623 159.340853 
L 231.216292 159.381922 
L 231.218598 159.416156 
L 231.23935 159.361392 
L 231.326971 159.388765 
L 231.389228 159.354549 
L 231.439956 159.395625 
L 231.516048 159.354549 
L 231.451485 159.409304 
L 231.555247 159.368235 
L 249.282324 159.450381 
L 249.28463 159.484598 
L 249.372251 159.395625 
L 249.390697 159.416156 
L 249.425284 159.381922 
L 249.457566 159.450381 
L 249.494459 159.450381 
L 249.586691 159.457224 
L 249.517517 159.40246 
L 249.602832 159.429842 
L 249.704288 159.40246 
L 249.681229 159.464067 
L 249.713511 159.422991 
L 249.831107 159.484598 
L 249.946398 159.40246 
L 249.948704 159.429842 
L 250.040936 159.429842 
L 249.962538 159.477763 
L 250.047853 159.464067 
L 250.052465 159.484598 
L 250.105499 159.40246 
L 250.153921 159.429842 
L 250.174673 159.388765 
L 250.230012 159.470919 
L 250.262294 159.422991 
L 250.319939 159.477763 
L 250.266905 159.409304 
L 250.375279 159.457224 
L 250.426006 159.40246 
L 250.37989 159.470919 
L 250.490569 159.429842 
L 250.495181 159.477763 
L 250.502098 159.422991 
L 250.601248 159.450381 
L 250.617389 159.40246 
L 250.688869 159.484598 
L 250.707315 159.464067 
L 250.711927 159.505136 
L 250.74882 159.40246 
L 250.8203 159.484598 
L 250.866416 159.409304 
L 250.944814 159.443529 
L 250.986319 159.484598 
L 251.048576 159.409304 
L 251.053187 159.416156 
L 251.055493 159.388765 
L 251.122361 159.484598 
L 251.159254 159.450381 
L 251.239958 159.505136 
L 251.193842 159.422991 
L 251.265322 159.450381 
L 251.267628 159.422991 
L 251.327579 159.505136 
L 251.373695 159.477763 
L 251.378307 159.484598 
L 251.498209 159.395625 
L 251.576606 159.464067 
L 251.548937 159.388765 
L 251.611193 159.436694 
L 251.666533 159.395625 
L 251.712649 159.477763 
L 251.719567 159.464067 
L 254.721733 159.477763 
L 254.721733 159.477763 
" clip-path="url(#p9d89cac8a8)" style="fill: none; stroke: #000000; stroke-opacity: 0.5; stroke-width: 1.5; stroke-linecap: square"/>
   </g>
   <g id="patch_3">
    <path d="M 41.667188 173.52 
L 41.667188 7.2 
" style="fill: none; stroke: #000000; stroke-width: 0.8; stroke-linejoin: miter; stroke-linecap: square"/>
   </g>
   <g id="patch_4">
    <path d="M 41.667188 173.52 
L 264.867187 173.52 
" style="fill: none; stroke: #000000; stroke-width: 0.8; stroke-linejoin: miter; stroke-linecap: square"/>
   </g>
  </g>
 </g>
 <defs>
  <clipPath id="p9d89cac8a8">
   <rect x="41.667188" y="7.2" width="223.2" height="166.32"/>
  </clipPath>
 </defs>
</svg>
