<?xml version="1.0" encoding="utf-8" standalone="no"?>
<!DOCTYPE svg PUBLIC "-//W3C//DTD SVG 1.1//EN"
  "http://www.w3.org/Graphics/SVG/1.1/DTD/svg11.dtd">
<svg height="345.6pt" version="1.1" viewBox="0 0 460.8 345.6" width="460.8pt" xmlns="http://www.w3.org/2000/svg" xmlns:xlink="http://www.w3.org/1999/xlink">
 <metadata>
  <rdf:RDF xmlns:cc="http://creativecommons.org/ns#" xmlns:dc="http://purl.org/dc/elements/1.1/" xmlns:rdf="http://www.w3.org/1999/02/22-rdf-syntax-ns#">
   <cc:Work>
    <dc:type rdf:resource="http://purl.org/dc/dcmitype/StillImage"/>
    <dc:date>2024-08-06T14:40:54.739484</dc:date>
    <dc:format>image/svg+xml</dc:format>
    <dc:creator>
     <cc:Agent>
      <dc:title>Matplotlib v3.4.2, https://matplotlib.org/</dc:title>
     </cc:Agent>
    </dc:creator>
   </cc:Work>
  </rdf:RDF>
 </metadata>
 <defs>
  <style type="text/css">*{stroke-linecap:butt;stroke-linejoin:round;}</style>
 </defs>
 <g id="figure_1">
  <g id="patch_1">
   <path d="M 0 345.6 
L 460.8 345.6 
L 460.8 0 
L 0 0 
z
" style="fill:#ffffff;"/>
  </g>
  <g id="axes_1">
   <g id="patch_2">
    <path d="M 57.6 307.584 
L 414.72 307.584 
L 414.72 41.472 
L 57.6 41.472 
z
" style="fill:#ffffff;"/>
   </g>
   <g id="matplotlib.axis_1">
    <g id="xtick_1">
     <g id="line2d_1">
      <defs>
       <path d="M 0 0 
L 0 3.5 
" id="m3d6c891b19" style="stroke:#000000;stroke-width:0.8;"/>
      </defs>
      <g>
       <use style="stroke:#000000;stroke-width:0.8;" x="95.211629" xlink:href="#m3d6c891b19" y="307.584"/>
      </g>
     </g>
     <g id="text_1">
      <!-- 0.2 -->
      <g transform="translate(87.260067 322.182437)scale(0.1 -0.1)">
       <defs>
        <path d="M 2034 4250 
Q 1547 4250 1301 3770 
Q 1056 3291 1056 2328 
Q 1056 1369 1301 889 
Q 1547 409 2034 409 
Q 2525 409 2770 889 
Q 3016 1369 3016 2328 
Q 3016 3291 2770 3770 
Q 2525 4250 2034 4250 
z
M 2034 4750 
Q 2819 4750 3233 4129 
Q 3647 3509 3647 2328 
Q 3647 1150 3233 529 
Q 2819 -91 2034 -91 
Q 1250 -91 836 529 
Q 422 1150 422 2328 
Q 422 3509 836 4129 
Q 1250 4750 2034 4750 
z
" id="DejaVuSans-30" transform="scale(0.015625)"/>
        <path d="M 684 794 
L 1344 794 
L 1344 0 
L 684 0 
L 684 794 
z
" id="DejaVuSans-2e" transform="scale(0.015625)"/>
        <path d="M 1228 531 
L 3431 531 
L 3431 0 
L 469 0 
L 469 531 
Q 828 903 1448 1529 
Q 2069 2156 2228 2338 
Q 2531 2678 2651 2914 
Q 2772 3150 2772 3378 
Q 2772 3750 2511 3984 
Q 2250 4219 1831 4219 
Q 1534 4219 1204 4116 
Q 875 4013 500 3803 
L 500 4441 
Q 881 4594 1212 4672 
Q 1544 4750 1819 4750 
Q 2544 4750 2975 4387 
Q 3406 4025 3406 3419 
Q 3406 3131 3298 2873 
Q 3191 2616 2906 2266 
Q 2828 2175 2409 1742 
Q 1991 1309 1228 531 
z
" id="DejaVuSans-32" transform="scale(0.015625)"/>
       </defs>
       <use xlink:href="#DejaVuSans-30"/>
       <use x="63.623047" xlink:href="#DejaVuSans-2e"/>
       <use x="95.410156" xlink:href="#DejaVuSans-32"/>
      </g>
     </g>
    </g>
    <g id="xtick_2">
     <g id="line2d_2">
      <g>
       <use style="stroke:#000000;stroke-width:0.8;" x="139.20545" xlink:href="#m3d6c891b19" y="307.584"/>
      </g>
     </g>
     <g id="text_2">
      <!-- 0.4 -->
      <g transform="translate(131.253887 322.182437)scale(0.1 -0.1)">
       <defs>
        <path d="M 2419 4116 
L 825 1625 
L 2419 1625 
L 2419 4116 
z
M 2253 4666 
L 3047 4666 
L 3047 1625 
L 3713 1625 
L 3713 1100 
L 3047 1100 
L 3047 0 
L 2419 0 
L 2419 1100 
L 313 1100 
L 313 1709 
L 2253 4666 
z
" id="DejaVuSans-34" transform="scale(0.015625)"/>
       </defs>
       <use xlink:href="#DejaVuSans-30"/>
       <use x="63.623047" xlink:href="#DejaVuSans-2e"/>
       <use x="95.410156" xlink:href="#DejaVuSans-34"/>
      </g>
     </g>
    </g>
    <g id="xtick_3">
     <g id="line2d_3">
      <g>
       <use style="stroke:#000000;stroke-width:0.8;" x="183.19927" xlink:href="#m3d6c891b19" y="307.584"/>
      </g>
     </g>
     <g id="text_3">
      <!-- 0.6 -->
      <g transform="translate(175.247707 322.182437)scale(0.1 -0.1)">
       <defs>
        <path d="M 2113 2584 
Q 1688 2584 1439 2293 
Q 1191 2003 1191 1497 
Q 1191 994 1439 701 
Q 1688 409 2113 409 
Q 2538 409 2786 701 
Q 3034 994 3034 1497 
Q 3034 2003 2786 2293 
Q 2538 2584 2113 2584 
z
M 3366 4563 
L 3366 3988 
Q 3128 4100 2886 4159 
Q 2644 4219 2406 4219 
Q 1781 4219 1451 3797 
Q 1122 3375 1075 2522 
Q 1259 2794 1537 2939 
Q 1816 3084 2150 3084 
Q 2853 3084 3261 2657 
Q 3669 2231 3669 1497 
Q 3669 778 3244 343 
Q 2819 -91 2113 -91 
Q 1303 -91 875 529 
Q 447 1150 447 2328 
Q 447 3434 972 4092 
Q 1497 4750 2381 4750 
Q 2619 4750 2861 4703 
Q 3103 4656 3366 4563 
z
" id="DejaVuSans-36" transform="scale(0.015625)"/>
       </defs>
       <use xlink:href="#DejaVuSans-30"/>
       <use x="63.623047" xlink:href="#DejaVuSans-2e"/>
       <use x="95.410156" xlink:href="#DejaVuSans-36"/>
      </g>
     </g>
    </g>
    <g id="xtick_4">
     <g id="line2d_4">
      <g>
       <use style="stroke:#000000;stroke-width:0.8;" x="227.19309" xlink:href="#m3d6c891b19" y="307.584"/>
      </g>
     </g>
     <g id="text_4">
      <!-- 0.8 -->
      <g transform="translate(219.241528 322.182437)scale(0.1 -0.1)">
       <defs>
        <path d="M 2034 2216 
Q 1584 2216 1326 1975 
Q 1069 1734 1069 1313 
Q 1069 891 1326 650 
Q 1584 409 2034 409 
Q 2484 409 2743 651 
Q 3003 894 3003 1313 
Q 3003 1734 2745 1975 
Q 2488 2216 2034 2216 
z
M 1403 2484 
Q 997 2584 770 2862 
Q 544 3141 544 3541 
Q 544 4100 942 4425 
Q 1341 4750 2034 4750 
Q 2731 4750 3128 4425 
Q 3525 4100 3525 3541 
Q 3525 3141 3298 2862 
Q 3072 2584 2669 2484 
Q 3125 2378 3379 2068 
Q 3634 1759 3634 1313 
Q 3634 634 3220 271 
Q 2806 -91 2034 -91 
Q 1263 -91 848 271 
Q 434 634 434 1313 
Q 434 1759 690 2068 
Q 947 2378 1403 2484 
z
M 1172 3481 
Q 1172 3119 1398 2916 
Q 1625 2713 2034 2713 
Q 2441 2713 2670 2916 
Q 2900 3119 2900 3481 
Q 2900 3844 2670 4047 
Q 2441 4250 2034 4250 
Q 1625 4250 1398 4047 
Q 1172 3844 1172 3481 
z
" id="DejaVuSans-38" transform="scale(0.015625)"/>
       </defs>
       <use xlink:href="#DejaVuSans-30"/>
       <use x="63.623047" xlink:href="#DejaVuSans-2e"/>
       <use x="95.410156" xlink:href="#DejaVuSans-38"/>
      </g>
     </g>
    </g>
    <g id="xtick_5">
     <g id="line2d_5">
      <g>
       <use style="stroke:#000000;stroke-width:0.8;" x="271.18691" xlink:href="#m3d6c891b19" y="307.584"/>
      </g>
     </g>
     <g id="text_5">
      <!-- 1.0 -->
      <g transform="translate(263.235348 322.182437)scale(0.1 -0.1)">
       <defs>
        <path d="M 794 531 
L 1825 531 
L 1825 4091 
L 703 3866 
L 703 4441 
L 1819 4666 
L 2450 4666 
L 2450 531 
L 3481 531 
L 3481 0 
L 794 0 
L 794 531 
z
" id="DejaVuSans-31" transform="scale(0.015625)"/>
       </defs>
       <use xlink:href="#DejaVuSans-31"/>
       <use x="63.623047" xlink:href="#DejaVuSans-2e"/>
       <use x="95.410156" xlink:href="#DejaVuSans-30"/>
      </g>
     </g>
    </g>
    <g id="xtick_6">
     <g id="line2d_6">
      <g>
       <use style="stroke:#000000;stroke-width:0.8;" x="315.18073" xlink:href="#m3d6c891b19" y="307.584"/>
      </g>
     </g>
     <g id="text_6">
      <!-- 1.2 -->
      <g transform="translate(307.229168 322.182437)scale(0.1 -0.1)">
       <use xlink:href="#DejaVuSans-31"/>
       <use x="63.623047" xlink:href="#DejaVuSans-2e"/>
       <use x="95.410156" xlink:href="#DejaVuSans-32"/>
      </g>
     </g>
    </g>
    <g id="xtick_7">
     <g id="line2d_7">
      <g>
       <use style="stroke:#000000;stroke-width:0.8;" x="359.174551" xlink:href="#m3d6c891b19" y="307.584"/>
      </g>
     </g>
     <g id="text_7">
      <!-- 1.4 -->
      <g transform="translate(351.222988 322.182437)scale(0.1 -0.1)">
       <use xlink:href="#DejaVuSans-31"/>
       <use x="63.623047" xlink:href="#DejaVuSans-2e"/>
       <use x="95.410156" xlink:href="#DejaVuSans-34"/>
      </g>
     </g>
    </g>
    <g id="xtick_8">
     <g id="line2d_8">
      <g>
       <use style="stroke:#000000;stroke-width:0.8;" x="403.168371" xlink:href="#m3d6c891b19" y="307.584"/>
      </g>
     </g>
     <g id="text_8">
      <!-- 1.6 -->
      <g transform="translate(395.216808 322.182437)scale(0.1 -0.1)">
       <use xlink:href="#DejaVuSans-31"/>
       <use x="63.623047" xlink:href="#DejaVuSans-2e"/>
       <use x="95.410156" xlink:href="#DejaVuSans-36"/>
      </g>
     </g>
    </g>
   </g>
   <g id="matplotlib.axis_2">
    <g id="ytick_1">
     <g id="line2d_9">
      <defs>
       <path d="M 0 0 
L -3.5 0 
" id="mdaa81a5763" style="stroke:#000000;stroke-width:0.8;"/>
      </defs>
      <g>
       <use style="stroke:#000000;stroke-width:0.8;" x="57.6" xlink:href="#mdaa81a5763" y="268.049451"/>
      </g>
     </g>
     <g id="text_9">
      <!-- −80 -->
      <g transform="translate(29.495313 271.84867)scale(0.1 -0.1)">
       <defs>
        <path d="M 678 2272 
L 4684 2272 
L 4684 1741 
L 678 1741 
L 678 2272 
z
" id="DejaVuSans-2212" transform="scale(0.015625)"/>
       </defs>
       <use xlink:href="#DejaVuSans-2212"/>
       <use x="83.789062" xlink:href="#DejaVuSans-38"/>
       <use x="147.412109" xlink:href="#DejaVuSans-30"/>
      </g>
     </g>
    </g>
    <g id="ytick_2">
     <g id="line2d_10">
      <g>
       <use style="stroke:#000000;stroke-width:0.8;" x="57.6" xlink:href="#mdaa81a5763" y="220.405134"/>
      </g>
     </g>
     <g id="text_10">
      <!-- −60 -->
      <g transform="translate(29.495313 224.204353)scale(0.1 -0.1)">
       <use xlink:href="#DejaVuSans-2212"/>
       <use x="83.789062" xlink:href="#DejaVuSans-36"/>
       <use x="147.412109" xlink:href="#DejaVuSans-30"/>
      </g>
     </g>
    </g>
    <g id="ytick_3">
     <g id="line2d_11">
      <g>
       <use style="stroke:#000000;stroke-width:0.8;" x="57.6" xlink:href="#mdaa81a5763" y="172.760817"/>
      </g>
     </g>
     <g id="text_11">
      <!-- −40 -->
      <g transform="translate(29.495313 176.560036)scale(0.1 -0.1)">
       <use xlink:href="#DejaVuSans-2212"/>
       <use x="83.789062" xlink:href="#DejaVuSans-34"/>
       <use x="147.412109" xlink:href="#DejaVuSans-30"/>
      </g>
     </g>
    </g>
    <g id="ytick_4">
     <g id="line2d_12">
      <g>
       <use style="stroke:#000000;stroke-width:0.8;" x="57.6" xlink:href="#mdaa81a5763" y="125.1165"/>
      </g>
     </g>
     <g id="text_12">
      <!-- −20 -->
      <g transform="translate(29.495313 128.915719)scale(0.1 -0.1)">
       <use xlink:href="#DejaVuSans-2212"/>
       <use x="83.789062" xlink:href="#DejaVuSans-32"/>
       <use x="147.412109" xlink:href="#DejaVuSans-30"/>
      </g>
     </g>
    </g>
    <g id="ytick_5">
     <g id="line2d_13">
      <g>
       <use style="stroke:#000000;stroke-width:0.8;" x="57.6" xlink:href="#mdaa81a5763" y="77.472183"/>
      </g>
     </g>
     <g id="text_13">
      <!-- 0 -->
      <g transform="translate(44.2375 81.271402)scale(0.1 -0.1)">
       <use xlink:href="#DejaVuSans-30"/>
      </g>
     </g>
    </g>
   </g>
   <g id="line2d_14">
    <path clip-path="url(#p2c11bdca25)" d="M 73.832727 174.007143 
L 74.050178 173.955622 
L 74.26763 173.727699 
L 74.702532 173.743112 
L 74.919983 173.635452 
L 75.137434 173.300099 
L 75.354885 173.225345 
L 75.572336 173.547792 
L 75.789787 173.601399 
L 76.007239 173.800831 
L 76.22469 173.820664 
L 76.659592 174.375153 
L 76.877043 174.298354 
L 77.094494 174.81291 
L 77.311945 174.493816 
L 77.529397 175.099282 
L 77.746848 175.199441 
L 77.964299 175.447378 
L 78.18175 175.87257 
L 78.399201 175.456988 
L 78.616652 176.408918 
L 78.834103 174.838333 
L 79.051555 175.13965 
L 79.703908 148.091214 
L 80.13881 53.568 
L 80.791164 127.589296 
L 81.008615 138.794624 
L 81.443517 145.116784 
L 81.878419 142.797799 
L 82.530773 134.584043 
L 83.183126 122.684562 
L 84.052931 102.486409 
L 84.270382 101.52684 
L 84.487833 101.769382 
L 84.705284 103.486861 
L 85.575089 114.916433 
L 86.227442 119.233904 
L 86.662344 120.758819 
L 87.097247 121.855294 
L 87.314698 121.339621 
L 87.7496 119.640473 
L 88.184502 119.580579 
L 88.401953 118.844927 
L 88.619404 118.534181 
L 89.054307 119.066664 
L 89.489209 120.445425 
L 89.924111 119.330459 
L 90.141562 118.55875 
L 90.359014 118.322325 
L 90.793916 120.593153 
L 91.66372 121.661233 
L 92.316074 120.438541 
L 93.620781 118.965249 
L 93.838232 118.322706 
L 94.490585 115.409169 
L 94.925487 115.650944 
L 95.142939 115.563565 
L 95.36039 115.687976 
L 95.795292 116.667256 
L 96.012743 116.687111 
L 96.230194 117.007934 
L 96.447645 116.84344 
L 96.882548 116.056614 
L 97.31745 115.639215 
L 97.752352 114.487809 
L 98.187254 113.062481 
L 98.404706 113.183274 
L 98.622157 113.129439 
L 98.839608 113.702225 
L 99.27451 115.391029 
L 99.709412 117.046439 
L 100.144315 118.315938 
L 100.361766 118.758527 
L 100.579217 118.834957 
L 101.014119 118.605549 
L 101.23157 117.796965 
L 101.449021 117.817449 
L 101.666473 118.250928 
L 102.101375 117.74035 
L 102.536277 118.710475 
L 102.971179 117.767417 
L 103.406082 118.126105 
L 104.058435 118.244011 
L 104.275886 118.532128 
L 104.710789 118.635993 
L 104.92824 118.853049 
L 105.363142 118.697867 
L 106.015495 119.388838 
L 106.232946 119.059699 
L 106.450398 119.110009 
L 106.667849 119.533371 
L 106.8853 119.547011 
L 107.320202 119.074508 
L 107.537653 119.149466 
L 107.972556 120.163303 
L 108.190007 120.360197 
L 108.624909 120.981444 
L 108.84236 121.093855 
L 109.059811 120.809273 
L 109.277262 120.224232 
L 109.712165 119.625021 
L 110.364518 117.699457 
L 110.581969 117.996903 
L 111.234323 119.747054 
L 113.191383 126.287649 
L 113.408834 126.845472 
L 113.626285 127.046886 
L 113.843736 126.814135 
L 114.49609 123.634335 
L 114.930992 121.494999 
L 115.148443 121.135074 
L 115.365894 120.990299 
L 115.583345 121.135019 
L 116.888052 119.328498 
L 117.105503 119.3503 
L 117.322954 118.883155 
L 117.757857 118.818808 
L 117.975308 118.5637 
L 118.192759 118.737909 
L 118.845112 118.551813 
L 119.497466 119.971036 
L 120.149819 121.987155 
L 120.36727 121.976469 
L 120.584721 121.710915 
L 120.802173 121.82283 
L 121.237075 122.224715 
L 121.454526 122.361409 
L 121.671977 122.638206 
L 122.106879 123.646221 
L 122.324331 123.74682 
L 122.976684 124.338354 
L 123.194135 123.880958 
L 123.629037 122.217714 
L 124.06394 120.421209 
L 124.281391 119.958012 
L 124.716293 118.512247 
L 125.151195 117.447258 
L 125.586098 118.049222 
L 125.803549 117.872216 
L 126.455902 115.798275 
L 126.673353 115.633257 
L 127.543158 118.579842 
L 127.97806 119.889955 
L 128.195511 121.157832 
L 128.412962 121.743887 
L 128.630413 121.666877 
L 128.847865 121.785741 
L 129.065316 121.682787 
L 129.717669 120.697593 
L 129.93512 120.929125 
L 130.152571 120.59004 
L 130.370023 120.021669 
L 130.587474 120.137593 
L 130.804925 119.542828 
L 131.022376 118.616059 
L 131.674729 119.004514 
L 131.89218 118.720035 
L 132.109632 118.252392 
L 132.327083 118.062881 
L 132.544534 118.151764 
L 133.414338 119.921647 
L 134.066692 122.430422 
L 134.501594 122.889379 
L 134.719045 123.417312 
L 134.936496 123.414672 
L 135.153948 123.205376 
L 135.371399 123.299221 
L 135.58885 123.570421 
L 135.806301 124.132705 
L 136.023752 124.184412 
L 136.458654 123.659371 
L 136.893557 122.302919 
L 137.111008 122.007557 
L 137.54591 120.356116 
L 137.980812 119.930512 
L 138.198263 120.059927 
L 138.415715 120.326922 
L 138.633166 120.785877 
L 138.850617 120.967644 
L 139.937872 119.720083 
L 140.372775 118.361931 
L 141.242579 118.55569 
L 141.677482 119.553583 
L 141.894933 119.750494 
L 142.329835 120.521458 
L 142.547286 120.852186 
L 142.982188 122.240986 
L 143.19964 122.54464 
L 143.634542 123.78435 
L 143.851993 123.714767 
L 144.069444 123.507891 
L 144.286895 123.463557 
L 145.1567 120.590457 
L 145.374151 120.540596 
L 145.591602 120.317977 
L 146.461407 118.154442 
L 146.896309 118.491973 
L 147.11376 118.33954 
L 147.548662 118.547624 
L 147.766113 118.187484 
L 147.983565 118.076091 
L 148.418467 116.922523 
L 148.635918 117.369572 
L 148.853369 117.502741 
L 149.505722 117.041766 
L 149.940625 117.476383 
L 150.810429 120.703907 
L 151.245332 120.970641 
L 151.680234 121.20661 
L 151.897685 121.559523 
L 152.332587 121.778464 
L 153.202392 121.48949 
L 153.637294 121.684098 
L 154.289647 120.925433 
L 154.72455 119.820608 
L 154.942001 119.71686 
L 155.159452 119.866486 
L 155.594354 119.766275 
L 156.029257 120.395098 
L 156.246708 120.109221 
L 156.68161 119.117254 
L 156.899061 119.02654 
L 157.333963 119.217957 
L 157.768866 120.509652 
L 158.203768 121.16016 
L 158.63867 121.325912 
L 159.073572 121.465334 
L 159.291024 121.431349 
L 159.943377 122.212787 
L 160.378279 123.672331 
L 160.59573 123.762929 
L 161.030633 123.177737 
L 162.335339 119.614441 
L 162.552791 119.701593 
L 162.987693 119.406788 
L 163.205144 119.515213 
L 163.422595 119.382839 
L 163.640046 119.030133 
L 163.857497 119.005833 
L 164.2924 120.066726 
L 164.944753 119.256811 
L 165.162204 118.590843 
L 165.379655 118.314823 
L 165.597106 118.534731 
L 166.24946 120.487374 
L 166.684362 121.279029 
L 166.901813 121.168578 
L 167.119264 120.730204 
L 167.336716 120.864515 
L 167.554167 120.741537 
L 167.771618 120.075519 
L 167.989069 120.095673 
L 168.20652 119.919391 
L 168.641422 119.05441 
L 169.076325 116.756586 
L 169.511227 115.959944 
L 169.946129 116.778355 
L 170.381031 117.304275 
L 171.033385 116.811549 
L 171.250836 116.394592 
L 171.468287 116.663258 
L 171.685738 116.723919 
L 171.903189 116.044288 
L 172.338092 115.86108 
L 172.990445 114.69689 
L 173.425347 114.690961 
L 173.642799 114.496926 
L 173.86025 114.593896 
L 174.077701 114.844644 
L 174.512603 114.61824 
L 175.599859 118.775086 
L 176.034761 120.683604 
L 176.252212 121.474424 
L 176.469663 121.387245 
L 176.687114 121.445181 
L 176.904566 122.529782 
L 177.122017 122.931613 
L 177.339468 122.877374 
L 177.556919 123.005758 
L 177.991821 122.038484 
L 178.209272 121.829164 
L 178.426723 121.338867 
L 178.644175 121.128234 
L 179.513979 121.144523 
L 180.166333 120.156629 
L 180.601235 118.954291 
L 180.818686 118.881957 
L 181.253588 117.750362 
L 181.688491 118.079624 
L 181.905942 118.728172 
L 182.340844 121.058241 
L 182.558295 121.216375 
L 182.775746 121.020037 
L 182.993197 120.611099 
L 183.645551 118.553309 
L 183.863002 118.479921 
L 184.080453 118.665121 
L 184.297904 118.430836 
L 184.515355 118.633264 
L 184.732806 119.012809 
L 185.602611 118.857986 
L 185.820062 118.45145 
L 186.254964 117.094896 
L 186.689867 118.168149 
L 186.907318 118.05631 
L 187.34222 116.796551 
L 187.559671 116.700479 
L 187.777122 116.929824 
L 187.994573 116.989254 
L 188.212025 116.798523 
L 188.429476 116.301301 
L 188.864378 114.66134 
L 189.081829 114.410039 
L 189.516731 114.940777 
L 189.734183 114.771631 
L 189.951634 115.190531 
L 190.386536 116.574674 
L 190.821438 117.363669 
L 191.038889 116.873447 
L 191.25634 116.871926 
L 191.473792 117.343262 
L 191.691243 117.28566 
L 191.908694 117.642712 
L 192.343596 118.932062 
L 192.778498 119.334674 
L 192.99595 119.210018 
L 193.430852 119.286219 
L 193.648303 119.019245 
L 193.865754 118.958152 
L 194.300656 119.963713 
L 194.95301 120.087404 
L 195.170461 120.454148 
L 195.387912 120.593579 
L 195.605363 121.115725 
L 195.822814 121.975403 
L 196.040265 122.019462 
L 197.127521 118.020767 
L 197.562423 117.833518 
L 197.997326 116.975725 
L 198.214777 116.957143 
L 198.432228 117.246584 
L 198.649679 117.327862 
L 199.084581 117.270497 
L 200.171837 120.229214 
L 201.041642 120.92048 
L 201.259093 120.6227 
L 201.476544 119.882719 
L 202.346348 118.980677 
L 202.5638 119.065433 
L 202.781251 118.941964 
L 202.998702 118.654951 
L 203.216153 118.822022 
L 203.868506 120.370438 
L 204.085957 120.381646 
L 204.303409 120.536797 
L 205.173213 121.548529 
L 205.608115 121.915657 
L 205.825567 122.330454 
L 206.043018 122.237079 
L 206.47792 121.239915 
L 206.912822 120.416506 
L 207.347725 119.440084 
L 207.565176 119.523417 
L 208.000078 119.9172 
L 208.43498 120.81096 
L 208.652431 120.735564 
L 208.869882 121.081183 
L 209.304785 122.240122 
L 209.522236 122.609665 
L 209.739687 122.561028 
L 210.174589 122.221738 
L 210.39204 121.863868 
L 211.261845 118.634419 
L 211.696747 118.401708 
L 212.13165 118.275454 
L 212.566552 117.86543 
L 212.784003 117.650785 
L 213.001454 117.757637 
L 213.436356 117.073307 
L 213.653807 117.30817 
L 213.871259 116.929876 
L 214.08871 116.841826 
L 214.306161 116.953569 
L 214.523612 116.847847 
L 214.741063 116.968557 
L 214.958514 117.223205 
L 215.393417 118.414595 
L 216.04577 117.621419 
L 216.698123 116.458949 
L 217.133026 115.848779 
L 217.567928 116.378533 
L 218.00283 116.248384 
L 218.437732 115.407961 
L 218.655184 115.40854 
L 218.872635 114.931248 
L 219.090086 114.948288 
L 219.742439 115.976717 
L 220.177342 116.493491 
L 220.394793 116.53019 
L 220.829695 117.266756 
L 221.047146 117.683074 
L 221.482048 118.954547 
L 221.699499 118.982793 
L 221.916951 119.242833 
L 222.351853 120.401187 
L 222.569304 120.747801 
L 222.786755 120.829657 
L 223.221657 120.092493 
L 223.439109 119.991901 
L 223.874011 119.447184 
L 224.091462 119.28457 
L 224.308913 119.312075 
L 224.526364 119.174679 
L 224.743815 118.458254 
L 224.961267 118.199943 
L 225.178718 118.204573 
L 225.396169 117.817802 
L 225.61362 117.89913 
L 225.831071 118.376001 
L 226.048522 118.503379 
L 226.265973 118.382896 
L 226.483424 117.951294 
L 226.700876 117.865111 
L 227.135778 118.330182 
L 227.57068 119.610247 
L 227.788131 119.672098 
L 228.005582 119.41299 
L 228.223034 119.355503 
L 228.657936 120.246592 
L 229.092838 121.625204 
L 229.310289 121.765431 
L 230.180094 119.760433 
L 230.614996 118.499487 
L 230.832447 118.425859 
L 231.484801 119.959352 
L 231.919703 120.762015 
L 232.137154 120.981468 
L 232.572056 120.516947 
L 232.789507 120.066468 
L 233.441861 117.344898 
L 233.659312 117.106796 
L 234.094214 116.081056 
L 234.311665 115.861278 
L 234.529116 115.998665 
L 234.746568 116.500478 
L 234.964019 116.392673 
L 235.18147 116.545535 
L 235.398921 116.92282 
L 236.268726 117.191203 
L 236.486177 117.617443 
L 236.921079 119.165983 
L 237.13853 119.293194 
L 237.355981 119.564285 
L 237.573432 119.547733 
L 238.008335 118.670034 
L 238.225786 118.419073 
L 238.443237 118.555335 
L 239.09559 120.2643 
L 239.313041 120.515682 
L 239.530493 120.471074 
L 239.747944 120.282966 
L 239.965395 119.761078 
L 240.400297 117.405799 
L 240.617748 116.364398 
L 241.052651 115.64296 
L 241.270102 115.913135 
L 241.487553 116.000849 
L 241.922455 115.17307 
L 242.79226 115.706812 
L 243.009711 115.44676 
L 244.096966 117.005655 
L 244.531869 118.010876 
L 244.74932 117.827476 
L 245.184222 118.710348 
L 245.619124 119.441242 
L 246.271478 119.885124 
L 246.488929 120.0178 
L 246.70638 119.987136 
L 247.141282 120.079586 
L 248.011087 118.168976 
L 248.228538 118.629921 
L 248.66344 118.900795 
L 248.880891 118.866885 
L 249.315794 117.268353 
L 249.533245 117.338178 
L 249.968147 118.254993 
L 250.185598 118.301838 
L 250.403049 118.957554 
L 250.837952 120.832175 
L 251.272854 121.704186 
L 251.490305 122.030037 
L 251.707756 121.74102 
L 251.925207 121.170299 
L 252.36011 121.155678 
L 252.795012 120.480803 
L 253.229914 119.649887 
L 253.447365 119.814321 
L 253.664816 120.132319 
L 254.752072 117.840104 
L 254.969523 117.73285 
L 255.621877 119.059166 
L 256.27423 120.193247 
L 256.709132 120.52535 
L 257.144035 120.416165 
L 257.361486 120.436068 
L 257.578937 120.171711 
L 258.013839 119.10174 
L 258.23129 119.245947 
L 258.448741 119.077057 
L 258.666193 119.321032 
L 258.883644 120.126451 
L 259.753448 121.290288 
L 260.18835 120.777998 
L 260.405802 120.73972 
L 260.623253 120.947553 
L 261.058155 120.837684 
L 261.275606 121.169945 
L 261.710508 121.132095 
L 262.145411 121.644348 
L 262.362862 121.602701 
L 263.015215 120.843216 
L 263.88502 117.179784 
L 264.319922 116.426044 
L 264.537373 116.337542 
L 264.754824 116.451086 
L 264.972275 116.970598 
L 265.407178 118.340022 
L 265.624629 118.609471 
L 266.059531 119.357623 
L 266.276982 119.462947 
L 266.711885 119.124712 
L 266.929336 119.448918 
L 267.146787 119.169459 
L 267.364238 118.509328 
L 268.234043 117.926377 
L 268.451494 117.381055 
L 268.668945 117.26232 
L 268.886396 117.449207 
L 269.538749 117.118904 
L 269.7562 116.874761 
L 270.191103 115.737954 
L 270.408554 115.44736 
L 270.626005 114.951352 
L 270.843456 114.749135 
L 271.060907 115.050564 
L 271.278358 115.825116 
L 271.49581 116.077891 
L 271.713261 115.717052 
L 271.930712 115.974149 
L 272.365614 115.828694 
L 272.583065 116.224261 
L 273.45287 115.179501 
L 273.670321 115.104936 
L 274.322674 117.000378 
L 274.757577 118.827372 
L 275.40993 120.164412 
L 275.844832 120.253469 
L 276.062283 120.527641 
L 276.497186 119.999041 
L 276.932088 120.847695 
L 277.149539 120.618496 
L 277.36699 120.574902 
L 277.584441 120.381956 
L 278.019344 120.531269 
L 278.236795 120.053426 
L 278.454246 119.844876 
L 278.671697 120.03637 
L 278.889148 120.402197 
L 279.106599 120.006385 
L 279.32405 119.12926 
L 279.758953 118.638066 
L 279.976404 118.564525 
L 280.193855 118.242061 
L 280.411306 118.412848 
L 280.628757 118.896175 
L 281.281111 116.896053 
L 281.498562 116.621309 
L 281.716013 116.656492 
L 281.933464 116.38476 
L 282.150915 116.35987 
L 282.368366 116.895689 
L 282.585817 116.776052 
L 283.02072 115.318952 
L 283.238171 115.138528 
L 283.455622 115.32461 
L 284.107975 115.0615 
L 284.325427 115.267713 
L 284.542878 115.707314 
L 284.760329 117.099203 
L 285.195231 120.659106 
L 285.630133 122.235107 
L 286.065036 124.564234 
L 286.499938 125.102658 
L 286.717389 125.098959 
L 287.587194 123.049166 
L 288.674449 119.479098 
L 289.544254 117.620235 
L 289.979156 116.425096 
L 290.414058 116.21221 
L 290.631509 116.266995 
L 291.066412 115.930986 
L 291.283863 116.178064 
L 291.501314 116.764823 
L 291.718765 116.845039 
L 292.153667 116.144648 
L 292.58857 116.299423 
L 292.806021 115.914482 
L 293.240923 115.843877 
L 293.675825 116.25106 
L 294.110728 115.169585 
L 294.328179 115.059232 
L 294.54563 115.100185 
L 294.763081 114.871158 
L 294.980532 114.889678 
L 295.197983 115.153205 
L 295.415434 115.168916 
L 295.632886 114.946247 
L 295.850337 114.179067 
L 296.067788 113.933453 
L 296.285239 112.653207 
L 296.50269 112.471558 
L 297.155044 133.718371 
L 297.807397 151.588428 
L 298.45975 163.170614 
L 299.112104 170.193552 
L 299.764457 174.72047 
L 300.634262 178.871608 
L 301.286615 180.807078 
L 301.721517 181.87202 
L 302.15642 182.34988 
L 302.591322 183.569163 
L 303.461126 184.507629 
L 304.548382 184.673199 
L 304.765833 184.953003 
L 305.418187 185.165512 
L 306.07054 184.830544 
L 306.287991 184.984102 
L 306.505442 184.916048 
L 306.940345 184.555548 
L 308.245051 184.040813 
L 309.114856 183.757866 
L 309.767209 182.860767 
L 310.202112 182.615282 
L 310.854465 181.711879 
L 312.811525 181.126397 
L 313.463879 180.060644 
L 313.68133 180.008104 
L 314.116232 179.525982 
L 314.333683 179.284138 
L 314.768586 179.260729 
L 314.986037 179.079006 
L 315.203488 178.706067 
L 315.63839 177.53614 
L 316.073292 177.02883 
L 316.508195 177.101632 
L 317.377999 176.836659 
L 318.030353 176.331316 
L 318.465255 176.446648 
L 319.335059 176.510416 
L 319.552511 176.809209 
L 319.769962 176.870745 
L 319.987413 176.74205 
L 320.422315 176.776974 
L 320.639766 176.620106 
L 321.074668 175.979127 
L 321.509571 175.98468 
L 321.727022 175.812995 
L 322.161924 175.834258 
L 322.814278 175.225975 
L 323.031729 175.034434 
L 323.466631 174.420417 
L 324.553887 174.216358 
L 324.771338 173.991093 
L 325.20624 173.884929 
L 325.858593 173.509417 
L 326.293496 172.984533 
L 326.945849 173.401701 
L 327.380751 173.950328 
L 327.815654 174.078053 
L 328.685458 174.841318 
L 329.12036 174.99017 
L 329.555263 175.233846 
L 331.077421 175.620064 
L 332.164676 176.753518 
L 333.034481 176.197034 
L 333.251932 176.126663 
L 334.121737 175.304418 
L 334.556639 175.013921 
L 334.77409 174.783674 
L 335.208992 174.637811 
L 335.426443 174.300243 
L 335.861346 174.145023 
L 336.296248 173.541483 
L 336.73115 174.258034 
L 337.383504 174.503085 
L 338.253308 174.651318 
L 338.470759 174.554645 
L 338.68821 174.729997 
L 339.123113 175.37619 
L 339.340564 175.246128 
L 340.645271 175.482801 
L 341.080173 175.744907 
L 341.732526 176.573015 
L 342.38488 176.997645 
L 342.819782 176.868197 
L 343.037233 177.012446 
L 343.254684 177.00177 
L 343.907038 176.375358 
L 344.34194 176.159151 
L 344.559391 176.188419 
L 344.994293 175.830655 
L 345.429196 175.94876 
L 345.864098 175.706166 
L 346.081549 175.608531 
L 346.299 175.352451 
L 346.516451 175.381933 
L 346.733902 175.257369 
L 346.951354 174.916036 
L 347.386256 175.024551 
L 347.603707 174.81846 
L 348.038609 174.054282 
L 348.25606 173.985704 
L 348.690963 173.553983 
L 348.908414 173.538561 
L 349.343316 173.09026 
L 349.995669 173.400081 
L 350.430572 173.741714 
L 350.865474 173.390692 
L 351.95273 172.43147 
L 352.387632 172.491555 
L 352.822534 172.357797 
L 353.692339 171.240534 
L 353.90979 170.737536 
L 354.997046 170.141018 
L 355.649399 169.950194 
L 355.86685 169.843687 
L 356.736655 168.753774 
L 356.954106 168.859845 
L 357.171557 168.771933 
L 357.389008 168.546096 
L 357.606459 168.514001 
L 358.041362 167.8371 
L 358.476264 167.829849 
L 358.911166 168.027867 
L 359.346068 167.828966 
L 359.780971 167.651946 
L 359.998422 167.622295 
L 360.433324 166.983324 
L 361.738031 168.158111 
L 362.607835 169.353107 
L 362.825286 169.499327 
L 363.042738 169.442075 
L 363.47764 169.635712 
L 363.695091 169.631054 
L 364.347444 170.307574 
L 364.782347 170.962717 
L 365.217249 171.300613 
L 365.4347 171.592168 
L 365.652151 171.454841 
L 366.087054 171.588266 
L 366.304505 171.304255 
L 366.521956 171.2838 
L 366.956858 171.719564 
L 367.174309 171.712492 
L 368.261565 170.875658 
L 368.696467 170.935515 
L 368.913918 170.976232 
L 369.566272 171.404208 
L 370.436076 171.41123 
L 370.653527 171.5904 
L 370.870979 171.602185 
L 371.08843 171.4797 
L 371.305881 171.542849 
L 372.393136 172.366033 
L 373.04549 173.492412 
L 373.697843 174.070344 
L 374.132746 174.078285 
L 374.350197 173.897181 
L 375.00255 172.866533 
L 375.220001 172.742385 
L 375.654903 172.25562 
L 375.872355 172.328068 
L 376.95961 171.483512 
L 377.177061 171.559284 
L 377.394513 171.399463 
L 378.046866 171.331535 
L 378.481768 171.0242 
L 379.569024 171.183665 
L 379.786475 171.16749 
L 380.438828 171.883363 
L 381.091182 171.366262 
L 381.308633 171.448258 
L 382.395889 170.833477 
L 382.830791 171.244096 
L 383.048242 171.156827 
L 383.918047 171.477669 
L 384.135498 171.388191 
L 384.352949 171.489497 
L 384.5704 171.793237 
L 385.005302 171.806364 
L 385.222753 171.778649 
L 385.657656 171.437023 
L 385.875107 171.592079 
L 386.092558 171.572956 
L 386.310009 171.367835 
L 386.962363 170.466455 
L 387.397265 170.625343 
L 387.832167 170.383404 
L 388.267069 170.629461 
L 388.48452 170.18993 
L 388.919423 168.920196 
L 389.354325 168.310266 
L 389.789227 168.699737 
L 390.659032 169.075724 
L 391.311385 169.602989 
L 392.18119 169.761871 
L 392.616092 169.968478 
L 393.050994 169.635274 
L 393.268445 169.730713 
L 393.703348 170.209346 
L 393.920799 170.202338 
L 394.13825 170.037574 
L 394.355701 170.076876 
L 394.790603 170.445488 
L 395.442957 170.64869 
L 395.877859 170.53545 
L 396.09531 170.520934 
L 396.530213 170.25677 
L 396.965115 170.311582 
L 397.400017 170.881631 
L 397.834919 170.748229 
L 398.05237 171.03832 
L 398.487273 171.061446 
L 398.487273 171.061446 
" style="fill:none;stroke:#000000;stroke-linecap:square;stroke-width:1.5;"/>
   </g>
   <g id="line2d_15">
    <path clip-path="url(#p2c11bdca25)" d="M 73.832727 173.519661 
L 74.485081 172.973963 
L 75.789787 172.456013 
L 76.442141 171.557752 
L 76.877043 171.728971 
L 77.311945 171.028546 
L 77.529397 171.021187 
L 77.746848 170.852674 
L 77.964299 170.474377 
L 78.18175 170.633098 
L 78.399201 170.502285 
L 79.051555 170.555165 
L 79.486457 178.36677 
L 80.573712 195.492762 
L 81.443517 205.886271 
L 82.965675 220.23504 
L 83.83548 226.209239 
L 84.922735 232.185187 
L 87.532149 244.451897 
L 88.401953 247.337871 
L 89.489209 250.091769 
L 90.141562 251.239339 
L 92.533525 258.008208 
L 93.403329 260.821693 
L 94.490585 262.749392 
L 94.925487 263.14607 
L 95.36039 263.033627 
L 95.577841 262.941752 
L 95.795292 262.718247 
L 96.012743 262.762166 
L 96.447645 263.089201 
L 96.665097 263.193605 
L 97.099999 263.816118 
L 97.534901 264.289583 
L 98.404706 264.939102 
L 98.622157 264.993075 
L 99.27451 265.408483 
L 99.491961 265.497165 
L 100.144315 265.400603 
L 100.796668 265.837748 
L 101.014119 265.720841 
L 101.666473 264.940185 
L 102.318826 263.396172 
L 102.536277 263.382345 
L 102.971179 263.61476 
L 103.623533 263.558664 
L 104.058435 263.641703 
L 104.92824 264.789424 
L 105.580593 266.784654 
L 106.450398 268.298561 
L 106.667849 268.507978 
L 106.8853 268.520602 
L 107.102751 268.669504 
L 107.755104 269.466253 
L 108.407458 270.161511 
L 108.84236 271.143899 
L 109.277262 271.609688 
L 109.712165 271.390439 
L 110.364518 271.793739 
L 111.234323 272.032528 
L 112.321578 273.088138 
L 112.539029 273.00609 
L 113.191383 271.297117 
L 113.408834 270.849355 
L 113.626285 271.013216 
L 113.843736 271.005031 
L 114.278638 270.555352 
L 114.713541 269.744114 
L 115.365894 270.428137 
L 115.583345 270.428385 
L 116.235699 271.545624 
L 116.670601 272.069392 
L 117.105503 272.353267 
L 117.322954 272.592288 
L 117.540406 272.590992 
L 117.757857 272.766611 
L 118.192759 273.359824 
L 118.41021 273.271962 
L 118.627661 273.30462 
L 119.062563 274.653916 
L 119.497466 274.770935 
L 119.714917 275.011456 
L 119.932368 275.018038 
L 120.149819 274.855936 
L 120.36727 274.549047 
L 121.237075 274.431253 
L 121.454526 274.640071 
L 122.106879 275.60855 
L 122.324331 275.332495 
L 122.759233 274.465964 
L 123.194135 274.593842 
L 123.629037 274.017969 
L 124.06394 274.660791 
L 124.281391 274.681117 
L 124.716293 274.909577 
L 124.933744 274.887507 
L 125.368646 275.070332 
L 125.586098 275.035088 
L 125.803549 274.88559 
L 126.673353 273.646496 
L 127.108255 273.283866 
L 127.543158 273.433296 
L 127.97806 272.460788 
L 128.195511 271.960309 
L 128.412962 271.819042 
L 128.847865 272.001228 
L 129.282767 272.663092 
L 129.500218 272.685921 
L 129.93512 272.962752 
L 130.587474 273.835752 
L 130.804925 273.945436 
L 131.022376 274.290045 
L 131.674729 274.561844 
L 132.544534 274.487799 
L 133.196887 274.140799 
L 133.849241 274.106838 
L 134.284143 273.573167 
L 134.719045 273.986454 
L 135.153948 273.485555 
L 135.58885 273.435263 
L 135.806301 273.463753 
L 136.676105 274.06874 
L 136.893557 274.14258 
L 137.54591 273.424684 
L 137.980812 273.328314 
L 138.415715 273.459383 
L 138.633166 273.649622 
L 139.068068 274.32219 
L 139.50297 274.38704 
L 139.720421 274.713734 
L 140.372775 276.053232 
L 141.025128 275.802118 
L 141.242579 275.658547 
L 141.677482 276.311499 
L 142.764737 278.366714 
L 142.982188 278.578976 
L 143.417091 278.678824 
L 144.069444 279.366647 
L 144.286895 279.232518 
L 144.721797 279.830694 
L 145.1567 279.534197 
L 145.591602 279.185965 
L 146.026504 279.456364 
L 146.678858 279.118369 
L 148.201016 279.445918 
L 148.635918 279.977642 
L 149.505722 280.086416 
L 149.940625 280.482921 
L 150.592978 280.477722 
L 151.245332 280.058526 
L 151.680234 280.173341 
L 151.897685 280.717836 
L 152.332587 282.235299 
L 152.767489 282.821888 
L 153.202392 283.006269 
L 154.072196 282.88724 
L 154.507099 283.549332 
L 155.376903 285.421766 
L 155.811805 286.388586 
L 156.246708 287.101815 
L 156.68161 287.947157 
L 157.116512 288.530955 
L 157.333963 288.531242 
L 157.551414 288.368369 
L 157.986317 288.531251 
L 158.421219 288.687976 
L 158.856121 288.799738 
L 159.291024 289.270754 
L 159.943377 289.953595 
L 160.378279 290.312878 
L 160.59573 290.223294 
L 160.813182 290.301117 
L 161.465535 290.769796 
L 161.900437 290.707051 
L 162.117888 290.736853 
L 162.335339 290.528104 
L 162.552791 290.510322 
L 162.987693 290.687816 
L 163.205144 290.523813 
L 164.074949 289.081168 
L 164.2924 288.966747 
L 165.162204 287.583458 
L 165.597106 287.528334 
L 165.814558 287.626171 
L 166.24946 287.326605 
L 166.684362 287.516401 
L 166.901813 287.795075 
L 167.119264 287.862403 
L 167.554167 288.43905 
L 168.20652 286.395202 
L 169.076325 286.670339 
L 169.293776 286.632113 
L 169.728678 286.883343 
L 169.946129 286.872353 
L 170.16358 287.202059 
L 170.381031 287.240693 
L 170.598483 286.996444 
L 170.815934 286.928203 
L 171.033385 286.622856 
L 171.685738 285.30822 
L 172.120641 284.940881 
L 172.990445 285.135693 
L 173.642799 285.731368 
L 174.077701 285.443089 
L 174.295152 285.202659 
L 174.512603 285.315902 
L 175.382408 286.948315 
L 175.599859 286.977591 
L 175.81731 286.844549 
L 176.252212 286.93375 
L 176.687114 286.845482 
L 177.122017 286.462267 
L 177.339468 286.38794 
L 177.77437 286.824334 
L 177.991821 286.786283 
L 178.644175 287.249107 
L 178.861626 287.277077 
L 179.296528 286.861718 
L 179.513979 287.06102 
L 179.73143 287.41474 
L 180.818686 287.734924 
L 181.253588 287.573728 
L 182.123393 286.372109 
L 183.4281 285.341657 
L 183.645551 285.077116 
L 184.080453 285.250629 
L 184.732806 284.552373 
L 185.167709 284.311742 
L 185.38516 284.284326 
L 186.037513 283.593039 
L 186.907318 282.300872 
L 187.124769 282.247786 
L 187.559671 281.927626 
L 187.994573 281.287377 
L 188.429476 281.504509 
L 188.646927 281.922673 
L 188.864378 281.93184 
L 189.516731 281.309623 
L 192.126145 284.528437 
L 192.778498 284.623252 
L 192.99595 284.40822 
L 193.213401 284.572355 
L 193.648303 285.299285 
L 194.300656 286.268338 
L 195.387912 287.663369 
L 195.605363 288.048198 
L 196.040265 288.437353 
L 198.214777 292.81339 
L 198.86713 293.55052 
L 199.302033 294.424872 
L 199.736935 294.79455 
L 200.171837 294.818802 
L 200.606739 294.949074 
L 201.041642 295.202022 
L 201.259093 295.226807 
L 201.476544 295.458228 
L 201.693995 295.488 
L 202.346348 295.050489 
L 203.216153 293.278901 
L 203.433604 293.023857 
L 203.651055 293.152914 
L 203.868506 292.944388 
L 204.303409 292.304727 
L 204.738311 292.224236 
L 204.955762 292.196835 
L 205.390664 292.497159 
L 205.608115 292.92166 
L 205.825567 293.034266 
L 206.043018 292.655014 
L 206.47792 293.018476 
L 206.695371 292.862617 
L 207.565176 291.730272 
L 208.000078 291.36647 
L 208.652431 290.392767 
L 208.869882 289.877288 
L 209.087334 289.714266 
L 209.304785 289.947972 
L 209.522236 290.006849 
L 209.957138 289.931051 
L 211.261845 288.512974 
L 211.479296 288.660093 
L 211.696747 288.491583 
L 212.13165 287.706087 
L 212.784003 287.255959 
L 213.218905 287.227693 
L 213.436356 287.073652 
L 213.871259 286.545827 
L 214.741063 286.745401 
L 215.175965 286.106531 
L 216.263221 286.763635 
L 216.698123 286.811123 
L 217.133026 286.784682 
L 217.567928 287.027625 
L 218.437732 286.768987 
L 218.872635 287.072108 
L 219.090086 287.087707 
L 219.524988 286.732264 
L 219.742439 286.76662 
L 220.177342 286.463565 
L 220.394793 286.386387 
L 221.264597 285.260042 
L 222.134402 285.128102 
L 222.569304 285.168467 
L 223.221657 284.986816 
L 224.091462 284.704465 
L 225.178718 285.042325 
L 225.61362 285.049541 
L 225.831071 284.891894 
L 226.265973 284.860014 
L 226.483424 284.787773 
L 227.788131 285.346772 
L 228.440485 286.137732 
L 228.875387 286.40642 
L 229.310289 286.92323 
L 229.745191 286.983506 
L 229.962643 286.869955 
L 230.180094 286.601621 
L 231.267349 286.310935 
L 231.702252 286.599555 
L 232.354605 286.560454 
L 233.22441 285.617618 
L 233.659312 284.099182 
L 234.094214 283.627828 
L 234.529116 283.641219 
L 234.964019 283.749088 
L 236.921079 285.404277 
L 237.573432 284.810977 
L 238.008335 285.087855 
L 238.225786 284.975833 
L 238.660688 285.337053 
L 238.878139 285.105591 
L 239.530493 285.512678 
L 239.965395 286.034428 
L 240.182846 286.217825 
L 240.617748 286.170511 
L 240.835199 286.250234 
L 241.052651 286.125441 
L 241.270102 286.295401 
L 241.487553 286.73384 
L 241.705004 286.834379 
L 242.357357 285.7819 
L 243.009711 286.113157 
L 243.227162 286.115039 
L 244.096966 285.070639 
L 244.531869 284.99488 
L 244.966771 284.585186 
L 245.184222 284.475587 
L 246.054027 285.385496 
L 246.488929 286.05413 
L 246.923831 286.60724 
L 248.011087 286.869971 
L 248.228538 286.689849 
L 249.315794 286.859098 
L 249.533245 286.37302 
L 249.968147 285.014972 
L 250.403049 284.055568 
L 251.272854 283.226248 
L 252.142658 283.52747 
L 252.577561 283.065719 
L 253.012463 283.133836 
L 253.447365 282.571645 
L 254.099719 283.403499 
L 254.534621 283.867353 
L 254.752072 284.033262 
L 255.186974 284.012861 
L 255.621877 284.04307 
L 256.056779 283.965095 
L 256.709132 284.303002 
L 256.926583 284.142839 
L 257.144035 284.1573 
L 257.361486 284.425828 
L 258.23129 284.345148 
L 258.666193 283.783665 
L 259.318546 283.585665 
L 260.18835 282.795026 
L 260.405802 282.695931 
L 260.623253 282.354727 
L 261.058155 281.366528 
L 261.710508 280.998809 
L 262.580313 278.798905 
L 263.015215 278.481666 
L 263.232666 278.434772 
L 263.88502 278.734975 
L 264.102471 278.788311 
L 264.537373 279.214719 
L 265.84208 279.283155 
L 266.276982 279.128259 
L 266.494433 279.151808 
L 267.364238 279.848471 
L 268.016591 279.866235 
L 268.668945 280.54435 
L 268.886396 280.709626 
L 269.321298 280.723345 
L 269.538749 280.918209 
L 269.7562 280.907934 
L 269.973652 280.694505 
L 270.191103 280.716373 
L 270.626005 281.083794 
L 270.843456 281.198564 
L 271.49581 282.127721 
L 272.365614 284.598699 
L 272.800516 285.060947 
L 273.887772 285.253141 
L 274.105223 285.182851 
L 274.322674 285.31819 
L 274.540125 285.734889 
L 274.975028 285.973974 
L 275.192479 286.309327 
L 276.062283 286.575197 
L 276.932088 285.820029 
L 277.36699 285.680792 
L 277.801892 285.7886 
L 278.019344 285.765289 
L 278.454246 285.458996 
L 279.106599 285.684149 
L 279.541502 286.266468 
L 279.976404 286.379209 
L 280.193855 286.204017 
L 280.411306 286.322676 
L 280.628757 286.642267 
L 281.498562 286.539217 
L 281.933464 286.322985 
L 282.803269 287.144462 
L 283.673073 286.846813 
L 283.890524 287.094588 
L 284.107975 287.148922 
L 284.760329 286.345029 
L 285.195231 285.760803 
L 285.847584 285.155082 
L 286.282487 285.122006 
L 286.93484 284.698499 
L 287.152291 284.754744 
L 287.369742 284.684059 
L 287.804645 284.881545 
L 288.022096 284.846392 
L 289.109352 285.459183 
L 289.544254 285.047611 
L 289.761705 285.07714 
L 290.196607 285.643868 
L 290.631509 285.946688 
L 290.848961 285.854777 
L 291.283863 285.882333 
L 291.718765 285.572834 
L 292.153667 285.151684 
L 292.58857 285.055172 
L 293.023472 285.121647 
L 293.458374 284.955794 
L 293.675825 284.740618 
L 294.110728 284.053286 
L 294.763081 283.536338 
L 295.632886 281.86389 
L 295.850337 281.701544 
L 296.067788 281.09417 
L 296.50269 280.700176 
L 298.242299 255.446288 
L 299.329555 244.186208 
L 300.416811 234.691399 
L 302.15642 220.922264 
L 303.243675 213.682362 
L 304.11348 208.869326 
L 305.635638 203.102188 
L 306.940345 200.262696 
L 307.375247 199.902497 
L 307.592698 199.719143 
L 308.0276 199.78997 
L 308.462503 199.68917 
L 309.114856 199.139364 
L 309.332307 198.978346 
L 309.767209 198.341311 
L 310.202112 198.109626 
L 310.637014 197.734432 
L 310.854465 197.744601 
L 311.289367 197.480732 
L 311.72427 197.726331 
L 311.941721 197.59343 
L 312.376623 197.051345 
L 312.594074 197.015096 
L 313.463879 197.857731 
L 313.68133 197.924977 
L 313.898781 198.237914 
L 314.116232 198.219552 
L 314.768586 197.301967 
L 315.203488 196.914135 
L 315.420939 197.032095 
L 315.855841 196.751102 
L 316.073292 196.772685 
L 316.943097 195.88162 
L 317.377999 195.573942 
L 318.030353 194.349346 
L 318.682706 193.486626 
L 318.900157 193.401224 
L 319.552511 192.263143 
L 320.204864 190.892515 
L 320.639766 190.409838 
L 321.074668 190.165481 
L 321.29212 189.969406 
L 321.727022 189.978275 
L 322.161924 190.359363 
L 322.379375 190.333555 
L 322.596826 190.499172 
L 322.814278 190.39677 
L 323.466631 189.661964 
L 323.684082 189.580968 
L 323.901533 189.728107 
L 325.858593 189.395167 
L 326.076045 189.263546 
L 326.510947 188.663234 
L 326.728398 188.716895 
L 326.945849 188.646786 
L 327.380751 188.12724 
L 327.598203 188.078509 
L 328.250556 187.551862 
L 328.685458 187.534993 
L 329.12036 187.889393 
L 329.555263 187.530675 
L 330.207616 187.641245 
L 330.85997 188.355445 
L 331.077421 188.503813 
L 331.294872 188.213416 
L 331.729774 187.051944 
L 332.164676 186.703504 
L 333.034481 186.05205 
L 334.991541 183.684946 
L 335.426443 182.396091 
L 335.861346 182.121402 
L 336.296248 181.792557 
L 337.166052 180.953498 
L 337.383504 180.91546 
L 337.600955 180.752915 
L 338.253308 180.870497 
L 339.123113 180.567141 
L 339.558015 180.713205 
L 340.42782 179.661859 
L 341.515075 180.762253 
L 342.167429 180.8879 
L 342.819782 180.525087 
L 343.037233 180.507149 
L 343.472135 180.862485 
L 343.689587 180.646506 
L 343.907038 180.273523 
L 344.34194 180.40529 
L 344.994293 179.842462 
L 345.211745 179.793509 
L 345.646647 179.864735 
L 346.081549 179.90494 
L 346.299 180.074591 
L 346.516451 179.950568 
L 346.733902 179.524936 
L 346.951354 179.365336 
L 347.168805 179.366259 
L 347.386256 179.103751 
L 347.603707 179.151126 
L 347.821158 179.385026 
L 348.25606 179.088746 
L 349.125865 179.051592 
L 349.343316 179.366716 
L 349.995669 179.099363 
L 351.300376 177.381904 
L 351.517827 177.525475 
L 351.735279 177.467691 
L 353.257437 179.651948 
L 353.692339 179.63975 
L 353.90979 179.152155 
L 354.344692 177.167141 
L 355.431948 174.470168 
L 356.084301 174.218419 
L 356.519204 174.400849 
L 356.736655 174.34755 
L 357.389008 174.883191 
L 357.82391 174.442253 
L 358.476264 174.947894 
L 358.693715 175.154269 
L 359.128617 175.215652 
L 359.780971 174.944047 
L 359.998422 174.950805 
L 360.215873 174.729546 
L 360.868226 173.616724 
L 361.303129 171.97516 
L 361.738031 171.134198 
L 362.172933 170.363973 
L 362.607835 170.003129 
L 362.825286 169.849106 
L 363.042738 169.831739 
L 363.47764 169.484925 
L 363.695091 169.752076 
L 363.912542 169.655452 
L 364.129993 169.430242 
L 364.347444 169.560594 
L 364.999798 169.318819 
L 365.4347 170.447533 
L 365.652151 170.679257 
L 366.304505 172.613687 
L 366.739407 174.059525 
L 367.39176 175.056683 
L 367.826663 174.989345 
L 368.479016 175.913034 
L 368.913918 175.591318 
L 369.348821 174.709357 
L 369.566272 174.784277 
L 370.001174 175.328482 
L 371.305881 176.578766 
L 372.393136 178.16122 
L 372.828039 177.927151 
L 373.480392 178.564366 
L 373.697843 178.370125 
L 374.350197 178.148123 
L 374.567648 178.039712 
L 375.00255 178.11721 
L 376.089806 176.351273 
L 376.524708 176.462845 
L 376.742159 176.273947 
L 376.95961 176.440821 
L 377.829415 174.878569 
L 378.046866 174.968326 
L 378.264317 175.378245 
L 378.481768 175.438542 
L 378.699219 175.352025 
L 378.916671 175.404039 
L 379.351573 175.630239 
L 379.786475 175.825154 
L 380.65628 175.41175 
L 381.526084 175.729223 
L 382.178438 175.551696 
L 382.61334 175.900254 
L 383.048242 175.731275 
L 383.265693 175.53308 
L 383.483144 175.148384 
L 384.5704 175.173859 
L 385.005302 175.534512 
L 385.440205 175.356914 
L 385.875107 175.593096 
L 386.310009 175.325459 
L 386.52746 174.871045 
L 386.744911 174.83594 
L 386.962363 175.029567 
L 387.614716 174.807815 
L 388.267069 174.181556 
L 388.48452 174.192364 
L 388.919423 174.768083 
L 389.136874 175.000381 
L 389.354325 175.052924 
L 389.789227 174.733185 
L 390.006678 174.905362 
L 390.22413 174.796453 
L 390.659032 174.264023 
L 390.876483 173.948601 
L 391.093934 173.942485 
L 391.311385 174.067902 
L 391.528836 173.939017 
L 392.616092 174.78608 
L 393.485897 175.492276 
L 393.703348 175.539696 
L 394.13825 175.874974 
L 394.355701 175.72915 
L 394.573152 175.77124 
L 395.008055 176.328315 
L 395.442957 176.603276 
L 395.877859 176.445607 
L 396.09531 176.458005 
L 396.530213 175.95833 
L 396.747664 175.756052 
L 397.182566 175.937274 
L 397.617468 175.403913 
L 397.834919 175.279848 
L 398.269822 174.797983 
L 398.487273 175.177004 
L 398.487273 175.177004 
" style="fill:none;stroke:#000000;stroke-linecap:square;stroke-width:1.5;"/>
   </g>
   <g id="line2d_16">
    <path clip-path="url(#p2c11bdca25)" d="M 73.832727 164.102395 
L 74.26763 164.440308 
L 74.702532 165.361852 
L 75.354885 165.867228 
L 75.572336 165.937971 
L 75.789787 165.882347 
L 76.442141 165.263513 
L 76.659592 165.352658 
L 77.094494 165.170957 
L 77.964299 164.78551 
L 79.051555 164.972773 
L 79.921359 169.900491 
L 80.791164 173.90409 
L 81.443517 175.952598 
L 81.660968 175.549397 
L 81.878419 175.733614 
L 82.313322 176.603307 
L 83.618028 178.371339 
L 84.052931 178.620258 
L 84.487833 179.347951 
L 85.140186 180.039386 
L 85.575089 180.564607 
L 86.009991 181.260854 
L 86.879795 182.121967 
L 87.097247 182.001589 
L 87.314698 181.716738 
L 87.967051 181.55813 
L 88.184502 181.547298 
L 88.401953 181.722247 
L 89.271758 182.813526 
L 90.141562 183.193019 
L 90.359014 183.006774 
L 91.228818 183.443871 
L 91.66372 184.088367 
L 92.316074 184.30837 
L 92.533525 184.403756 
L 93.838232 183.750345 
L 94.708036 182.722143 
L 95.142939 182.666806 
L 95.577841 182.660764 
L 96.012743 182.715998 
L 97.534901 182.328469 
L 97.969803 181.961566 
L 98.839608 182.622678 
L 99.057059 182.614774 
L 100.144315 183.453306 
L 100.361766 183.729814 
L 100.579217 183.689489 
L 101.014119 183.79998 
L 101.449021 183.181451 
L 101.883924 183.103513 
L 102.318826 183.30119 
L 102.753728 183.002624 
L 103.188631 183.546751 
L 103.623533 183.630583 
L 104.058435 183.891833 
L 104.92824 183.410239 
L 105.363142 183.462828 
L 105.798044 183.059939 
L 106.232946 183.020074 
L 106.450398 182.776498 
L 106.667849 182.802104 
L 106.8853 183.124464 
L 107.102751 183.087759 
L 107.320202 183.306754 
L 107.537653 183.746206 
L 107.972556 184.119307 
L 108.624909 184.738562 
L 109.277262 184.172925 
L 109.494714 183.734225 
L 110.147067 180.147852 
L 110.581969 178.717204 
L 111.016871 177.921247 
L 111.886676 176.934715 
L 112.321578 176.649914 
L 112.756481 176.910786 
L 112.973932 176.88338 
L 113.626285 177.361114 
L 113.843736 177.550067 
L 114.061187 177.564366 
L 114.713541 175.363557 
L 114.930992 175.229631 
L 115.800796 175.244768 
L 116.018248 175.374567 
L 116.235699 175.673951 
L 116.670601 175.958437 
L 117.540406 177.216871 
L 117.975308 178.20389 
L 118.627661 179.873593 
L 119.280015 181.089262 
L 119.932368 181.927156 
L 120.802173 182.374091 
L 121.019624 182.310077 
L 121.454526 182.627688 
L 121.671977 182.565798 
L 121.889428 182.356099 
L 122.324331 182.464657 
L 122.759233 182.656898 
L 123.194135 183.207385 
L 123.629037 183.11732 
L 124.498842 182.521469 
L 124.933744 182.860965 
L 125.151195 182.778776 
L 126.238451 183.082039 
L 127.108255 182.449767 
L 127.325707 182.665317 
L 127.760609 182.29698 
L 128.195511 181.859187 
L 128.412962 182.052269 
L 128.630413 181.807091 
L 128.847865 181.352298 
L 129.282767 181.079426 
L 129.500218 180.775799 
L 129.717669 180.724985 
L 130.152571 180.836235 
L 130.587474 180.855391 
L 130.804925 180.923597 
L 131.239827 181.196744 
L 131.674729 181.095608 
L 131.89218 180.812357 
L 132.109632 180.730231 
L 132.327083 180.005467 
L 132.761985 177.341854 
L 133.196887 176.280073 
L 133.849241 175.471579 
L 134.066692 175.332552 
L 134.719045 175.832702 
L 135.806301 177.241501 
L 136.023752 177.24417 
L 136.458654 177.718855 
L 137.111008 178.353595 
L 137.763361 177.787234 
L 138.415715 177.697836 
L 138.850617 178.006916 
L 139.937872 179.302247 
L 140.372775 179.53924 
L 140.807677 178.937626 
L 141.242579 178.629597 
L 141.894933 178.476008 
L 142.764737 178.894832 
L 142.982188 179.385952 
L 143.19964 179.45774 
L 143.634542 179.97125 
L 143.851993 179.662863 
L 144.286895 179.55581 
L 144.721797 179.621134 
L 144.939249 179.5866 
L 145.1567 179.757097 
L 145.374151 179.683755 
L 145.809053 179.934349 
L 146.026504 179.73524 
L 146.896309 180.57968 
L 147.11376 180.50235 
L 147.548662 180.752155 
L 149.07082 179.744047 
L 149.505722 179.714723 
L 149.723174 179.918876 
L 150.158076 180.033969 
L 150.592978 180.657179 
L 150.810429 180.828159 
L 151.245332 181.604416 
L 152.332587 182.166674 
L 152.767489 182.542694 
L 152.984941 182.572391 
L 153.419843 182.993036 
L 153.637294 183.058477 
L 154.072196 183.431029 
L 154.507099 183.620005 
L 154.942001 183.843823 
L 155.594354 183.821193 
L 155.811805 183.904156 
L 156.68161 185.36857 
L 157.986317 186.897115 
L 158.63867 186.939783 
L 158.856121 186.783924 
L 159.073572 186.7916 
L 159.291024 186.670218 
L 159.943377 185.845342 
L 160.813182 185.698457 
L 161.030633 185.617355 
L 161.465535 185.76872 
L 161.682986 185.84113 
L 162.335339 186.333913 
L 162.770242 186.36545 
L 163.857497 186.190016 
L 164.509851 186.784715 
L 165.162204 186.916296 
L 165.814558 186.737844 
L 166.466911 186.875887 
L 166.684362 186.99687 
L 167.119264 186.986091 
L 167.771618 186.563868 
L 168.20652 186.092266 
L 168.641422 186.272133 
L 169.946129 185.771044 
L 170.381031 185.302811 
L 170.598483 185.279966 
L 171.033385 184.847134 
L 171.468287 184.560237 
L 171.903189 184.73 
L 172.772994 184.100955 
L 172.990445 183.795058 
L 173.207896 183.712881 
L 174.077701 184.027296 
L 174.512603 184.576078 
L 174.947505 184.792741 
L 175.164956 184.629103 
L 175.382408 184.610827 
L 175.81731 184.872751 
L 176.252212 184.960206 
L 176.469663 185.057084 
L 176.904566 184.717807 
L 177.556919 184.895478 
L 177.991821 184.894323 
L 178.426723 184.893429 
L 178.644175 184.80149 
L 178.861626 184.509175 
L 179.079077 184.415511 
L 179.296528 184.560884 
L 179.73143 183.796979 
L 179.948881 183.49609 
L 180.166333 183.544022 
L 180.601235 183.912337 
L 180.818686 183.979368 
L 181.253588 183.404312 
L 181.471039 183.472258 
L 181.905942 182.890791 
L 182.558295 183.599216 
L 182.993197 183.618849 
L 183.210648 183.392584 
L 183.645551 182.738459 
L 183.863002 182.504064 
L 184.515355 182.418374 
L 184.732806 182.202931 
L 185.38516 178.786985 
L 185.820062 177.428357 
L 186.037513 176.995895 
L 186.254964 176.90899 
L 186.689867 177.084175 
L 187.34222 177.843659 
L 187.777122 177.83353 
L 187.994573 177.93948 
L 188.429476 177.61758 
L 188.646927 177.70581 
L 188.864378 177.951975 
L 189.516731 177.925721 
L 190.169085 178.007014 
L 190.386536 178.265778 
L 190.821438 179.156943 
L 191.473792 179.527032 
L 192.561047 180.523591 
L 193.213401 180.515461 
L 193.430852 180.549888 
L 193.648303 180.448808 
L 194.300656 180.877506 
L 194.95301 181.028661 
L 195.387912 181.631792 
L 196.040265 182.251678 
L 196.692619 183.139729 
L 197.127521 183.290007 
L 197.562423 183.781239 
L 198.432228 183.273177 
L 198.649679 183.430427 
L 199.084581 183.842441 
L 199.302033 183.784468 
L 199.954386 184.155893 
L 200.171837 184.498551 
L 200.389288 184.487346 
L 200.606739 184.362107 
L 201.476544 185.291697 
L 202.5638 185.557966 
L 202.998702 185.215299 
L 203.433604 185.278547 
L 203.868506 184.896645 
L 204.085957 184.80655 
L 204.52086 184.479978 
L 204.738311 184.506728 
L 204.955762 184.318272 
L 205.173213 184.32161 
L 206.47792 185.047873 
L 206.912822 184.630515 
L 207.130273 184.669283 
L 208.217529 185.762941 
L 208.43498 185.902585 
L 209.087334 185.746021 
L 209.522236 185.669835 
L 210.39204 184.621527 
L 210.609492 184.594715 
L 210.826943 184.409697 
L 211.479296 184.633769 
L 211.696747 184.965566 
L 211.914198 185.025141 
L 212.349101 184.807623 
L 213.436356 185.698558 
L 214.306161 186.588113 
L 214.741063 186.802603 
L 214.958514 186.883454 
L 215.175965 186.804369 
L 215.610868 186.894842 
L 215.828319 186.774632 
L 216.263221 186.762384 
L 216.698123 186.202596 
L 217.350477 185.96341 
L 218.00283 185.818555 
L 218.437732 186.222327 
L 218.655184 186.666084 
L 218.872635 186.815593 
L 219.090086 186.797861 
L 219.524988 187.143327 
L 219.742439 187.221939 
L 219.95989 187.161077 
L 220.177342 186.863201 
L 220.829695 186.525116 
L 221.264597 186.120894 
L 221.482048 185.980237 
L 221.916951 184.993302 
L 222.351853 184.566664 
L 223.874011 183.97158 
L 224.308913 184.581058 
L 224.526364 184.659863 
L 224.743815 184.924041 
L 225.178718 184.977217 
L 225.831071 184.707537 
L 226.265973 184.378728 
L 226.483424 184.432511 
L 227.788131 183.870367 
L 228.440485 183.062928 
L 228.875387 182.749248 
L 229.092838 182.332032 
L 229.310289 182.24404 
L 229.962643 182.413857 
L 230.614996 181.956471 
L 231.267349 180.963926 
L 231.702252 181.089154 
L 231.919703 180.951984 
L 232.789507 181.176662 
L 233.006959 181.065156 
L 233.441861 180.536127 
L 233.876763 180.444703 
L 234.529116 180.54495 
L 234.746568 180.476123 
L 235.18147 180.790347 
L 235.398921 180.901589 
L 235.833823 181.424703 
L 236.051274 181.345608 
L 236.486177 181.348501 
L 236.703628 181.327579 
L 237.13853 181.62595 
L 237.355981 182.068592 
L 237.573432 182.131364 
L 237.790884 182.032688 
L 238.225786 182.311055 
L 238.878139 182.535799 
L 239.313041 182.567222 
L 239.530493 182.657575 
L 239.747944 182.991209 
L 240.182846 184.104797 
L 241.270102 185.115838 
L 242.139906 185.552518 
L 242.574809 185.828966 
L 242.79226 185.786587 
L 243.879515 186.342206 
L 244.096966 186.269641 
L 244.314418 186.349459 
L 244.74932 186.243654 
L 244.966771 186.246774 
L 245.401673 185.976348 
L 245.836576 186.20816 
L 246.70638 186.047237 
L 247.358733 185.488684 
L 247.793636 185.71049 
L 248.880891 186.335051 
L 249.750696 186.172994 
L 250.185598 185.670823 
L 250.403049 185.641349 
L 250.620501 185.476235 
L 251.925207 185.486181 
L 252.795012 184.839002 
L 253.012463 184.941253 
L 253.229914 184.859019 
L 254.752072 182.842394 
L 255.186974 182.717276 
L 256.056779 182.104062 
L 256.491681 182.112728 
L 257.796388 183.496941 
L 258.666193 184.869747 
L 259.318546 185.631503 
L 260.623253 185.510015 
L 261.058155 185.599093 
L 261.710508 185.294541 
L 262.145411 184.89835 
L 262.580313 184.719751 
L 262.797764 184.556798 
L 263.015215 184.249282 
L 263.450118 183.983406 
L 263.667569 183.664286 
L 264.102471 183.756421 
L 264.537373 183.647936 
L 264.972275 183.724336 
L 265.407178 183.509312 
L 265.84208 183.134895 
L 266.711885 183.417327 
L 267.146787 184.154613 
L 267.364238 184.181014 
L 267.581689 184.356276 
L 267.79914 183.810265 
L 268.234043 181.60729 
L 268.668945 180.442742 
L 268.886396 180.137102 
L 269.321298 179.992337 
L 269.538749 180.049424 
L 269.973652 180.449514 
L 270.408554 180.23456 
L 271.060907 180.690057 
L 271.930712 181.265083 
L 273.45287 182.393422 
L 273.670321 182.66253 
L 273.887772 182.725953 
L 274.105223 182.649112 
L 274.322674 182.719426 
L 274.757577 182.582868 
L 274.975028 182.732793 
L 275.40993 182.593376 
L 275.627381 182.549393 
L 276.279735 182.764646 
L 276.497186 182.842521 
L 276.932088 182.660803 
L 277.584441 182.962371 
L 278.236795 182.626741 
L 278.671697 182.833477 
L 279.32405 182.809894 
L 279.541502 182.997992 
L 279.758953 182.959211 
L 279.976404 183.11232 
L 280.193855 183.52915 
L 280.628757 183.852169 
L 281.498562 184.916403 
L 282.368366 185.322364 
L 283.238171 185.22954 
L 283.890524 185.526564 
L 284.325427 185.634782 
L 284.760329 185.864069 
L 285.412682 185.521299 
L 285.847584 185.683315 
L 286.282487 185.005551 
L 286.499938 184.871814 
L 287.152291 184.090599 
L 287.587194 184.090383 
L 287.804645 184.21255 
L 288.239547 184.776926 
L 288.674449 184.647983 
L 289.109352 184.181219 
L 289.544254 184.348412 
L 289.979156 184.025576 
L 291.718765 184.695652 
L 292.806021 184.296179 
L 293.023472 184.546364 
L 293.458374 184.582759 
L 293.675825 184.477456 
L 293.893277 184.526549 
L 294.110728 184.401948 
L 294.328179 183.925924 
L 295.197983 183.237037 
L 295.850337 182.892984 
L 296.067788 182.909764 
L 296.285239 183.142505 
L 296.50269 183.191888 
L 296.937592 180.773326 
L 299.329555 167.357426 
L 300.199359 163.129862 
L 301.069164 158.274738 
L 301.504066 156.783833 
L 301.938969 154.911221 
L 302.15642 154.644129 
L 302.373871 154.184312 
L 302.591322 154.099823 
L 302.808773 154.136204 
L 303.026224 153.931606 
L 303.243675 153.88324 
L 303.461126 154.092357 
L 303.896029 155.575043 
L 304.11348 156.100839 
L 304.548382 157.932373 
L 305.200736 159.603911 
L 305.635638 160.057837 
L 306.287991 161.735521 
L 306.505442 162.046653 
L 306.722894 162.158149 
L 307.157796 162.811698 
L 307.375247 162.922526 
L 307.810149 162.312353 
L 308.245051 162.446131 
L 308.462503 162.501628 
L 309.984661 163.730629 
L 310.202112 163.490874 
L 310.637014 163.723658 
L 311.071916 163.407362 
L 311.506818 163.24844 
L 312.159172 163.897353 
L 312.594074 163.766545 
L 312.811525 163.869695 
L 313.463879 164.776719 
L 313.898781 164.440035 
L 314.333683 164.206557 
L 314.768586 164.797915 
L 314.986037 164.859483 
L 315.420939 165.184824 
L 316.073292 165.242874 
L 316.290743 165.4947 
L 316.508195 165.509682 
L 317.377999 166.26436 
L 317.59545 166.218175 
L 318.030353 165.837156 
L 320.204864 164.762166 
L 320.639766 164.894208 
L 321.29212 165.268868 
L 321.944473 165.248501 
L 322.814278 164.375218 
L 323.901533 165.112166 
L 324.118984 165.373157 
L 324.771338 165.553107 
L 325.20624 165.87333 
L 325.423691 165.833062 
L 325.641142 165.931209 
L 326.076045 165.898173 
L 326.510947 166.114452 
L 326.728398 166.216331 
L 326.945849 166.127968 
L 327.1633 165.875174 
L 327.380751 165.83749 
L 327.598203 165.929297 
L 328.033105 166.249063 
L 328.250556 166.027783 
L 328.685458 166.119425 
L 329.12036 165.822898 
L 329.555263 165.798516 
L 329.990165 165.70881 
L 330.425067 165.833752 
L 331.077421 165.440514 
L 331.294872 165.625676 
L 331.947225 165.203093 
L 332.81703 164.237608 
L 333.034481 164.529816 
L 333.686834 164.799261 
L 334.339188 165.725439 
L 334.77409 165.67517 
L 334.991541 165.836106 
L 335.208992 165.773437 
L 335.643895 165.517314 
L 336.078797 165.894745 
L 336.73115 165.03317 
L 337.166052 164.150948 
L 337.818406 163.950505 
L 338.035857 164.048713 
L 338.68821 163.695056 
L 338.905662 163.532852 
L 339.123113 163.208819 
L 339.340564 163.352706 
L 339.558015 163.637186 
L 339.775466 163.465997 
L 339.992917 163.002344 
L 340.42782 159.015187 
L 340.862722 157.853399 
L 341.080173 157.786083 
L 341.732526 159.268195 
L 341.949977 159.195673 
L 342.167429 159.4919 
L 342.819782 161.188891 
L 343.037233 161.663664 
L 343.254684 161.712039 
L 343.472135 162.115179 
L 344.124489 164.339094 
L 345.429196 166.076562 
L 346.516451 166.492907 
L 346.951354 166.221184 
L 347.386256 165.84203 
L 347.821158 165.480866 
L 348.038609 165.498504 
L 348.690963 165.007379 
L 348.908414 164.702472 
L 349.343316 163.503104 
L 349.560767 163.201 
L 349.778218 163.333636 
L 351.082925 163.318139 
L 351.517827 162.586748 
L 351.735279 162.502959 
L 351.95273 162.57674 
L 352.170181 162.515774 
L 352.605083 162.01746 
L 352.822534 162.001888 
L 353.039985 162.291623 
L 353.692339 163.81796 
L 354.562143 165.028776 
L 354.997046 164.788401 
L 355.431948 164.922299 
L 355.86685 165.191294 
L 356.084301 165.531494 
L 356.301752 165.495273 
L 356.519204 165.282112 
L 356.736655 165.464329 
L 356.954106 165.499682 
L 357.389008 165.195651 
L 357.606459 165.184095 
L 358.258813 165.535638 
L 358.693715 165.298175 
L 359.128617 165.443847 
L 359.998422 164.440241 
L 360.215873 164.250108 
L 360.650775 164.593307 
L 361.085677 164.362211 
L 361.955482 164.608204 
L 362.172933 164.511957 
L 362.825286 164.982299 
L 363.042738 164.852868 
L 363.695091 165.215798 
L 363.912542 165.433281 
L 364.129993 165.464525 
L 364.999798 164.78104 
L 365.652151 164.548222 
L 366.087054 164.094028 
L 366.521956 164.198467 
L 366.956858 163.872582 
L 367.174309 164.041617 
L 367.39176 164.041002 
L 367.826663 163.669277 
L 368.261565 162.76113 
L 368.479016 162.676413 
L 368.696467 162.77172 
L 368.913918 162.708533 
L 369.131369 162.521072 
L 370.001174 162.703366 
L 370.436076 163.308649 
L 371.08843 164.74102 
L 371.305881 164.921994 
L 371.523332 164.858343 
L 371.958234 165.324508 
L 372.393136 165.254015 
L 372.610588 165.150973 
L 373.04549 164.504728 
L 373.480392 163.80131 
L 373.697843 163.764335 
L 374.132746 163.472311 
L 374.350197 163.431103 
L 375.220001 163.663635 
L 375.437452 163.466714 
L 376.524708 163.946155 
L 376.95961 164.868432 
L 377.177061 165.26926 
L 377.394513 165.386708 
L 377.829415 165.390707 
L 378.916671 165.697642 
L 379.134122 165.563267 
L 380.003926 166.42941 
L 380.438828 166.142363 
L 380.65628 165.930405 
L 381.091182 166.067657 
L 381.526084 165.574911 
L 381.960986 165.994078 
L 382.61334 166.12505 
L 383.048242 165.663263 
L 383.483144 165.657885 
L 383.700596 165.753939 
L 383.918047 165.378625 
L 384.352949 164.296229 
L 385.005302 163.1018 
L 385.222753 163.113307 
L 385.440205 163.33482 
L 385.657656 163.7685 
L 386.092558 163.979822 
L 386.52746 164.396569 
L 386.962363 164.922971 
L 387.179814 164.94802 
L 387.397265 164.767428 
L 387.614716 164.750715 
L 388.049618 165.096775 
L 388.701972 165.174044 
L 389.136874 165.198255 
L 389.354325 165.359465 
L 389.789227 165.346575 
L 390.006678 165.466206 
L 390.441581 165.077109 
L 390.659032 165.21758 
L 391.311385 165.313099 
L 391.528836 165.111226 
L 391.746288 165.073317 
L 391.963739 165.38798 
L 392.616092 165.523327 
L 392.833543 165.479081 
L 393.050994 165.780664 
L 393.485897 165.857819 
L 394.13825 166.433171 
L 394.573152 166.426732 
L 394.790603 166.419205 
L 395.008055 166.550313 
L 395.225506 166.873759 
L 395.442957 166.934008 
L 396.09531 166.706911 
L 396.312761 166.513809 
L 396.530213 166.488382 
L 396.965115 166.727358 
L 397.400017 166.587511 
L 398.487273 166.264667 
L 398.487273 166.264667 
" style="fill:none;stroke:#000000;stroke-linecap:square;stroke-width:1.5;"/>
   </g>
   <g id="line2d_17">
    <path clip-path="url(#p2c11bdca25)" d="M 73.832727 159.949321 
L 74.050178 159.756987 
L 74.26763 159.733759 
L 74.485081 159.874264 
L 74.919983 159.805476 
L 75.572336 159.305458 
L 75.789787 159.115965 
L 76.442141 159.389032 
L 77.094494 159.881354 
L 77.529397 159.924421 
L 77.746848 159.799008 
L 78.18175 160.002726 
L 78.616652 160.534617 
L 78.834103 160.603868 
L 79.051555 160.535779 
L 79.486457 158.303407 
L 81.226066 145.994406 
L 81.660968 143.586097 
L 82.09587 141.967879 
L 82.530773 141.118088 
L 82.748224 141.18097 
L 82.965675 141.001847 
L 83.83548 139.237214 
L 84.052931 139.57314 
L 84.922735 142.408161 
L 85.140186 142.778967 
L 85.357637 142.766607 
L 85.79254 142.924728 
L 86.444893 141.902614 
L 86.662344 141.964736 
L 87.314698 142.919269 
L 87.532149 142.996465 
L 88.401953 141.662906 
L 89.70666 141.785042 
L 89.924111 141.765105 
L 90.359014 142.551794 
L 90.576465 142.507513 
L 90.793916 142.667295 
L 91.228818 142.665917 
L 91.66372 143.043498 
L 92.098623 143.334115 
L 92.533525 143.781977 
L 92.750976 144.05414 
L 92.968427 144.096679 
L 93.620781 144.96058 
L 93.838232 144.915599 
L 95.142939 142.506199 
L 95.36039 142.421501 
L 96.012743 142.670852 
L 96.447645 143.501742 
L 96.665097 143.547303 
L 96.882548 143.831518 
L 97.31745 143.902095 
L 98.187254 143.871632 
L 99.057059 145.341012 
L 99.709412 146.626054 
L 100.144315 147.08884 
L 100.361766 146.913632 
L 100.579217 146.977113 
L 101.883924 149.264073 
L 102.536277 149.950245 
L 102.753728 149.846432 
L 103.188631 149.415932 
L 103.406082 149.189456 
L 103.840984 148.200277 
L 104.275886 147.84545 
L 104.493337 147.808349 
L 105.145691 148.091771 
L 105.798044 146.303869 
L 106.015495 146.124811 
L 106.667849 145.164105 
L 106.8853 144.989951 
L 107.537653 143.827785 
L 107.755104 143.701356 
L 108.190007 143.888139 
L 108.407458 143.732147 
L 108.624909 143.24296 
L 109.277262 142.962418 
L 109.494714 143.028235 
L 109.712165 142.93952 
L 110.147067 142.251188 
L 110.581969 141.45247 
L 110.79942 141.175659 
L 111.016871 141.21511 
L 111.669225 141.750624 
L 112.104127 142.156582 
L 112.321578 142.1117 
L 112.756481 143.108592 
L 112.973932 143.107552 
L 113.408834 144.239132 
L 113.626285 144.499349 
L 114.061187 145.29081 
L 114.49609 145.83241 
L 115.365894 146.549113 
L 115.800796 146.371627 
L 116.45315 146.536833 
L 116.888052 145.580062 
L 117.105503 145.766076 
L 117.540406 145.037054 
L 117.975308 144.222503 
L 118.192759 144.031728 
L 118.41021 144.087387 
L 118.845112 144.826386 
L 119.497466 145.525811 
L 119.714917 145.589179 
L 120.149819 145.096666 
L 120.36727 144.812228 
L 120.584721 144.723947 
L 120.802173 144.82529 
L 121.019624 144.730745 
L 121.237075 144.93149 
L 121.454526 144.948097 
L 121.671977 144.64759 
L 121.889428 144.791583 
L 122.106879 145.079614 
L 122.324331 144.925536 
L 122.541782 144.459592 
L 123.194135 144.370015 
L 123.411586 144.723707 
L 123.846488 144.821965 
L 124.281391 144.631878 
L 124.498842 144.698571 
L 124.933744 144.26992 
L 125.368646 143.92342 
L 125.586098 144.078991 
L 125.803549 143.915425 
L 126.021 144.018418 
L 126.238451 144.435015 
L 126.890804 144.233656 
L 127.108255 143.994674 
L 127.543158 143.227962 
L 128.412962 143.534325 
L 128.847865 144.120427 
L 129.282767 144.067814 
L 130.152571 144.418738 
L 130.370023 144.317241 
L 131.239827 142.491435 
L 131.89218 141.787584 
L 132.327083 141.210501 
L 132.544534 141.171014 
L 132.979436 141.597074 
L 133.414338 142.129109 
L 133.63179 142.306222 
L 134.066692 143.01078 
L 134.936496 144.309047 
L 135.371399 144.432934 
L 135.806301 144.169957 
L 136.023752 144.544233 
L 136.458654 144.628795 
L 136.893557 145.773894 
L 137.328459 146.353693 
L 137.54591 146.495583 
L 137.763361 146.82139 
L 137.980812 146.842631 
L 138.415715 146.54342 
L 138.850617 146.766201 
L 139.720421 144.634523 
L 139.937872 144.264243 
L 140.372775 144.400394 
L 140.590226 143.856677 
L 140.807677 143.72279 
L 141.025128 143.730718 
L 141.242579 143.298039 
L 141.46003 143.288313 
L 141.677482 142.993747 
L 141.894933 142.375616 
L 142.112384 142.500468 
L 142.329835 142.851661 
L 142.764737 142.736642 
L 142.982188 142.96148 
L 143.19964 142.874254 
L 143.417091 142.602573 
L 143.634542 142.509342 
L 144.069444 142.026266 
L 144.286895 142.040203 
L 144.504346 142.303479 
L 144.721797 142.153083 
L 144.939249 141.851773 
L 145.591602 142.770525 
L 147.11376 146.647802 
L 147.331211 146.573252 
L 147.548662 146.355644 
L 147.983565 146.459335 
L 148.853369 146.952502 
L 149.07082 146.855595 
L 149.288271 146.229163 
L 149.723174 145.766347 
L 149.940625 145.702333 
L 150.375527 146.169684 
L 150.810429 145.950994 
L 151.02788 146.065526 
L 151.245332 145.971068 
L 151.462783 145.660435 
L 151.680234 145.732519 
L 152.115136 146.10232 
L 152.332587 146.137425 
L 152.767489 145.500054 
L 152.984941 145.472088 
L 153.202392 145.560376 
L 153.854745 146.47384 
L 154.289647 147.324838 
L 154.72455 147.909656 
L 154.942001 147.843349 
L 155.159452 148.03334 
L 155.376903 148.401189 
L 156.029257 147.787483 
L 156.68161 148.403489 
L 156.899061 148.296878 
L 157.768866 148.469303 
L 158.421219 149.455686 
L 158.856121 149.152707 
L 159.073572 149.401387 
L 159.508475 150.257944 
L 159.725926 150.421622 
L 160.378279 149.59452 
L 160.59573 149.535818 
L 161.030633 148.841932 
L 161.465535 147.881813 
L 161.682986 147.690758 
L 161.900437 147.68049 
L 162.552791 146.290583 
L 162.987693 145.973402 
L 163.640046 145.489344 
L 164.074949 145.637013 
L 164.509851 145.422963 
L 165.162204 146.352685 
L 165.597106 146.685997 
L 166.466911 145.68756 
L 166.684362 145.713957 
L 167.119264 146.050039 
L 167.336716 146.111556 
L 167.771618 146.509152 
L 168.20652 146.668717 
L 168.858874 146.495365 
L 169.293776 146.565252 
L 169.511227 146.725682 
L 169.728678 146.64315 
L 169.946129 146.253777 
L 171.033385 145.8351 
L 171.250836 145.963187 
L 171.468287 145.869018 
L 172.120641 144.761068 
L 172.772994 143.552087 
L 172.990445 143.145563 
L 173.207896 143.165689 
L 173.86025 144.025941 
L 174.730054 144.483807 
L 174.947505 144.866725 
L 175.81731 145.447149 
L 176.034761 145.740296 
L 176.252212 145.787496 
L 176.687114 145.392036 
L 177.122017 145.63588 
L 177.339468 145.897649 
L 177.556919 145.89394 
L 178.426723 145.20177 
L 178.861626 145.501445 
L 179.079077 145.390465 
L 179.296528 145.530971 
L 179.73143 146.134387 
L 179.948881 146.29842 
L 180.166333 146.260572 
L 180.601235 145.995923 
L 181.471039 146.645368 
L 181.905942 146.591677 
L 182.340844 146.916115 
L 182.558295 146.683745 
L 182.775746 146.617764 
L 182.993197 146.839394 
L 183.4281 147.52356 
L 183.863002 147.581855 
L 184.297904 147.379059 
L 184.515355 147.34069 
L 185.38516 145.823585 
L 186.037513 146.037001 
L 186.254964 145.967409 
L 186.689867 145.694662 
L 187.124769 145.518953 
L 187.34222 145.631582 
L 187.777122 144.839832 
L 187.994573 144.843935 
L 188.429476 144.519894 
L 188.646927 144.525897 
L 189.29928 143.761392 
L 189.951634 144.251158 
L 190.169085 144.583311 
L 190.386536 144.508216 
L 190.821438 143.352796 
L 191.25634 143.164562 
L 191.473792 143.377756 
L 191.908694 144.133006 
L 192.126145 144.229868 
L 192.561047 145.012496 
L 192.778498 144.877283 
L 192.99595 144.882633 
L 193.213401 145.0795 
L 193.430852 145.031758 
L 193.865754 145.215571 
L 194.300656 145.255102 
L 194.518108 145.351894 
L 194.735559 145.300367 
L 195.170461 145.044328 
L 195.387912 144.976618 
L 195.605363 144.757452 
L 195.822814 144.819195 
L 196.040265 145.070124 
L 196.475168 144.958028 
L 197.127521 143.97108 
L 197.779875 143.636601 
L 197.997326 143.576304 
L 198.432228 144.003859 
L 198.649679 144.063929 
L 198.86713 143.986636 
L 199.302033 144.210207 
L 199.519484 144.397995 
L 199.954386 144.139711 
L 200.171837 144.511713 
L 200.389288 144.621423 
L 200.606739 144.522341 
L 200.82419 144.216596 
L 201.041642 143.609353 
L 201.693995 143.153685 
L 201.911446 143.346478 
L 202.346348 143.079899 
L 202.5638 143.302628 
L 203.868506 143.343671 
L 204.52086 142.708777 
L 204.738311 142.98095 
L 204.955762 142.83935 
L 205.608115 143.589128 
L 206.260469 146.566218 
L 206.912822 149.031697 
L 207.130273 149.400144 
L 207.347725 149.242386 
L 207.565176 149.231034 
L 208.217529 150.192329 
L 208.652431 149.709441 
L 209.522236 151.761602 
L 209.739687 151.724828 
L 209.957138 151.958215 
L 210.174589 151.86526 
L 211.044394 150.600699 
L 211.914198 148.848673 
L 212.13165 148.856606 
L 213.001454 149.368197 
L 213.436356 149.659236 
L 213.871259 150.059286 
L 214.306161 150.341733 
L 214.958514 150.265322 
L 215.393417 149.442909 
L 215.610868 149.353424 
L 215.828319 149.104486 
L 216.263221 148.363203 
L 216.480672 148.184843 
L 216.915574 147.243116 
L 217.133026 147.34303 
L 217.350477 147.222129 
L 217.567928 147.571359 
L 218.00283 149.003822 
L 218.437732 149.88334 
L 218.872635 149.822947 
L 219.090086 149.679425 
L 219.524988 150.248593 
L 219.742439 150.167495 
L 219.95989 150.37579 
L 220.177342 150.793829 
L 220.612244 152.877651 
L 220.829695 153.104537 
L 221.047146 153.025201 
L 222.569304 151.226528 
L 222.786755 150.7907 
L 223.439109 150.361747 
L 223.874011 150.386169 
L 224.091462 150.142171 
L 224.526364 149.169152 
L 224.961267 147.785311 
L 225.178718 147.474835 
L 225.831071 145.879739 
L 226.483424 144.990024 
L 227.57068 143.822976 
L 228.440485 144.412701 
L 228.657936 144.428942 
L 228.875387 144.124125 
L 229.310289 143.216788 
L 229.745191 143.208022 
L 229.962643 143.089901 
L 230.180094 143.408805 
L 230.614996 143.495685 
L 230.832447 143.736142 
L 231.267349 143.137497 
L 231.702252 143.179719 
L 232.137154 142.85037 
L 232.354605 143.135702 
L 232.572056 143.107547 
L 233.22441 141.677571 
L 233.441861 141.585471 
L 233.876763 141.156752 
L 234.529116 140.666412 
L 234.964019 139.513268 
L 235.398921 139.588091 
L 235.616372 139.916899 
L 236.268726 141.345882 
L 236.703628 142.077604 
L 237.13853 142.095997 
L 237.790884 143.330691 
L 238.008335 143.420659 
L 239.09559 144.419833 
L 239.747944 144.02522 
L 239.965395 143.842924 
L 240.182846 144.079887 
L 240.400297 144.151878 
L 240.617748 143.854744 
L 241.270102 143.835269 
L 242.139906 144.970475 
L 242.574809 144.99409 
L 243.009711 145.782217 
L 243.227162 145.732469 
L 243.662064 145.229367 
L 244.314418 145.735103 
L 244.74932 145.476687 
L 244.966771 145.475991 
L 245.836576 144.917279 
L 246.054027 144.947584 
L 247.576185 144.176388 
L 247.793636 144.131899 
L 248.011087 144.427055 
L 248.445989 145.376793 
L 249.098343 146.122186 
L 249.315794 146.138482 
L 249.750696 146.528092 
L 250.185598 147.013064 
L 250.403049 146.73481 
L 250.620501 146.754359 
L 250.837952 146.887018 
L 251.490305 146.590694 
L 251.707756 146.525567 
L 251.925207 146.320689 
L 252.142658 145.872147 
L 252.577561 145.732585 
L 253.229914 144.742121 
L 253.447365 144.997044 
L 253.882268 144.918562 
L 254.534621 145.594571 
L 254.969523 145.579974 
L 255.404426 144.817554 
L 255.839328 145.11236 
L 256.491681 145.842021 
L 256.926583 146.96741 
L 257.361486 147.523649 
L 257.578937 147.681562 
L 258.23129 148.542289 
L 258.666193 148.439786 
L 259.101095 147.694641 
L 259.535997 147.376948 
L 259.753448 147.457115 
L 260.623253 146.662854 
L 261.275606 145.457849 
L 261.710508 145.623194 
L 261.92796 145.562907 
L 262.797764 146.094842 
L 263.232666 145.287427 
L 263.667569 145.401744 
L 264.319922 144.391861 
L 264.537373 144.499821 
L 264.754824 144.47574 
L 265.407178 143.336169 
L 266.276982 143.326551 
L 266.494433 143.657178 
L 267.581689 144.012992 
L 268.016591 143.406941 
L 268.234043 143.278363 
L 268.886396 142.188729 
L 269.103847 141.888137 
L 269.321298 141.821065 
L 269.973652 142.226313 
L 270.191103 142.247168 
L 270.408554 142.405158 
L 270.626005 142.351525 
L 271.49581 141.741156 
L 271.713261 141.798332 
L 271.930712 141.372829 
L 272.148163 141.417134 
L 272.583065 142.273505 
L 272.800516 142.942052 
L 274.322674 144.286091 
L 275.192479 142.955938 
L 275.40993 142.945434 
L 275.627381 142.769144 
L 276.497186 142.958545 
L 277.149539 142.213515 
L 277.36699 142.077437 
L 277.801892 141.97818 
L 278.236795 141.445742 
L 278.671697 141.323975 
L 279.32405 142.092317 
L 279.758953 142.778397 
L 280.193855 142.979645 
L 280.628757 142.850337 
L 280.846208 142.819415 
L 281.281111 142.372826 
L 281.498562 142.400531 
L 281.716013 142.633441 
L 281.933464 142.565729 
L 282.368366 141.45363 
L 282.585817 141.363603 
L 283.02072 141.556992 
L 283.890524 144.926366 
L 284.325427 145.436886 
L 284.760329 145.996184 
L 284.97778 146.12297 
L 286.065036 145.548786 
L 286.499938 145.664719 
L 286.717389 145.510009 
L 287.152291 144.417539 
L 287.369742 144.530673 
L 288.239547 143.753896 
L 288.456998 143.788737 
L 288.8919 143.573967 
L 289.326803 143.776758 
L 289.544254 143.87099 
L 289.979156 144.779687 
L 290.196607 144.774428 
L 291.066412 144.224826 
L 291.283863 144.34001 
L 291.501314 144.178479 
L 291.718765 144.169039 
L 291.936216 144.483915 
L 292.371119 144.410169 
L 294.110728 147.931293 
L 294.54563 147.94764 
L 294.763081 147.863325 
L 295.197983 147.25144 
L 295.415434 147.275143 
L 295.632886 147.427302 
L 296.285239 147.009394 
L 296.50269 147.124915 
L 298.894653 158.284056 
L 299.764457 160.555025 
L 299.981908 160.807343 
L 300.416811 160.775538 
L 301.286615 161.839642 
L 301.721517 161.733609 
L 303.243675 162.049027 
L 303.461126 162.054211 
L 303.678578 161.794403 
L 304.11348 161.730328 
L 304.765833 160.779941 
L 306.287991 158.304601 
L 306.505442 157.732874 
L 306.722894 157.651471 
L 307.157796 158.568925 
L 307.375247 158.542727 
L 307.592698 158.386709 
L 307.810149 158.681334 
L 308.0276 158.714494 
L 308.245051 158.562971 
L 308.462503 158.795713 
L 309.114856 158.697017 
L 309.549758 158.369933 
L 309.984661 158.270405 
L 310.419563 157.86297 
L 310.637014 157.873654 
L 311.071916 157.58941 
L 311.506818 157.932885 
L 311.941721 157.511532 
L 312.376623 157.957816 
L 313.246428 157.455918 
L 313.463879 157.097915 
L 314.551134 156.736821 
L 314.986037 156.487309 
L 315.420939 156.470295 
L 315.855841 156.317589 
L 316.073292 156.441183 
L 316.290743 156.753908 
L 316.508195 156.836833 
L 316.725646 156.708168 
L 317.160548 156.796559 
L 317.59545 156.221811 
L 318.030353 156.67202 
L 318.465255 156.207983 
L 318.682706 156.395028 
L 318.900157 156.387927 
L 319.335059 156.150369 
L 319.552511 156.052561 
L 320.422315 156.261831 
L 320.639766 156.557896 
L 320.857217 157.23469 
L 321.074668 157.43028 
L 321.29212 157.355477 
L 322.161924 158.16051 
L 322.596826 158.80555 
L 323.031729 158.518364 
L 323.24918 158.52293 
L 323.684082 158.775066 
L 323.901533 158.555657 
L 324.336435 158.429364 
L 324.553887 158.239188 
L 324.988789 158.300345 
L 326.076045 158.266634 
L 326.293496 158.338002 
L 326.728398 157.748974 
L 326.945849 157.472552 
L 327.1633 157.48218 
L 327.815654 158.149368 
L 328.250556 158.595915 
L 328.468007 158.524285 
L 329.337812 157.099431 
L 329.772714 157.130031 
L 330.85997 156.049894 
L 331.077421 156.23149 
L 331.294872 156.066237 
L 331.512323 156.108007 
L 331.947225 156.470004 
L 332.382128 157.51647 
L 332.599579 157.65245 
L 332.81703 157.961617 
L 333.034481 157.906981 
L 333.251932 157.727777 
L 333.686834 157.727458 
L 334.121737 157.272604 
L 334.339188 157.181725 
L 334.556639 156.845359 
L 334.991541 156.842389 
L 335.208992 156.573536 
L 336.078797 156.18043 
L 336.513699 155.443778 
L 336.73115 155.310748 
L 337.383504 154.427382 
L 338.470759 154.41969 
L 338.68821 153.880341 
L 338.905662 153.822741 
L 339.123113 154.09731 
L 339.775466 153.80643 
L 340.210368 153.104887 
L 340.645271 152.900238 
L 341.080173 152.522927 
L 341.297624 152.619374 
L 341.732526 153.367644 
L 341.949977 153.404876 
L 342.38488 152.941946 
L 343.037233 153.762841 
L 343.254684 153.547481 
L 343.472135 153.563329 
L 344.124489 154.178426 
L 345.211745 156.401702 
L 345.646647 157.016349 
L 346.299 157.480312 
L 346.733902 157.537825 
L 346.951354 157.653251 
L 348.25606 157.162164 
L 348.908414 156.381961 
L 349.343316 156.157897 
L 349.560767 156.32014 
L 349.995669 157.118752 
L 350.430572 158.191973 
L 350.865474 158.320146 
L 351.300376 158.884784 
L 351.517827 158.751172 
L 351.735279 158.371415 
L 351.95273 158.319282 
L 352.387632 158.411232 
L 352.605083 158.423114 
L 353.039985 157.891278 
L 353.474888 158.411777 
L 353.90979 158.27364 
L 354.344692 158.912961 
L 354.997046 160.413954 
L 355.86685 161.284439 
L 356.519204 162.575078 
L 356.736655 162.753707 
L 357.389008 162.77357 
L 358.258813 162.118943 
L 358.693715 161.952413 
L 359.128617 161.330691 
L 359.563519 160.633367 
L 359.998422 160.454439 
L 360.650775 159.888395 
L 360.868226 159.662829 
L 361.52058 158.461825 
L 362.390384 158.006246 
L 363.042738 157.037331 
L 363.260189 156.805553 
L 363.695091 156.017769 
L 363.912542 155.730139 
L 364.129993 155.227347 
L 364.347444 155.195148 
L 364.782347 155.679735 
L 364.999798 155.707142 
L 365.4347 154.919756 
L 365.652151 155.044176 
L 366.304505 155.962947 
L 366.956858 156.781084 
L 367.174309 156.97718 
L 368.479016 156.274886 
L 368.696467 156.377161 
L 369.131369 156.075633 
L 369.348821 156.22328 
L 369.783723 156.077014 
L 370.001174 156.169241 
L 370.436076 156.140953 
L 370.870979 156.592891 
L 371.305881 157.023378 
L 371.958234 158.36671 
L 372.175685 158.582784 
L 372.393136 158.478894 
L 372.610588 158.249699 
L 373.04549 158.064581 
L 374.132746 157.774555 
L 374.567648 158.335787 
L 374.785099 158.400961 
L 375.437452 158.005751 
L 375.654903 157.919296 
L 375.872355 157.987502 
L 376.307257 158.286382 
L 376.742159 158.284711 
L 377.394513 158.024964 
L 378.046866 157.771695 
L 378.481768 158.002528 
L 378.699219 157.992377 
L 379.134122 158.641511 
L 379.786475 159.850374 
L 380.003926 160.071894 
L 380.438828 160.876708 
L 380.873731 160.867787 
L 381.091182 160.816943 
L 381.526084 160.185708 
L 382.178438 158.885108 
L 382.395889 158.301807 
L 382.830791 157.952576 
L 383.048242 158.083542 
L 383.265693 158.078822 
L 383.483144 157.787898 
L 383.918047 157.661527 
L 384.135498 157.472246 
L 384.787851 157.59204 
L 385.005302 157.461601 
L 386.310009 155.83819 
L 386.52746 156.149751 
L 386.744911 156.115738 
L 386.962363 155.89358 
L 387.179814 155.888048 
L 387.397265 156.264434 
L 387.832167 157.281602 
L 388.049618 157.551697 
L 388.48452 158.506737 
L 388.701972 158.437432 
L 389.136874 158.952564 
L 389.571776 158.847983 
L 389.789227 158.718286 
L 390.22413 158.93223 
L 390.441581 158.904511 
L 390.876483 159.207179 
L 391.746288 158.897156 
L 391.963739 159.222511 
L 392.833543 161.710617 
L 393.268445 162.332463 
L 394.13825 162.117888 
L 394.573152 162.069656 
L 394.790603 162.296355 
L 395.008055 162.22376 
L 395.225506 161.999137 
L 395.660408 162.394567 
L 396.09531 163.007752 
L 396.530213 163.102481 
L 397.182566 162.543315 
L 397.617468 162.516688 
L 397.834919 162.399924 
L 398.269822 161.875645 
L 398.487273 161.800342 
L 398.487273 161.800342 
" style="fill:none;stroke:#000000;stroke-linecap:square;stroke-width:1.5;"/>
   </g>
   <g id="patch_3">
    <path d="M 57.6 307.584 
L 57.6 41.472 
" style="fill:none;stroke:#000000;stroke-linecap:square;stroke-linejoin:miter;stroke-width:0.8;"/>
   </g>
   <g id="patch_4">
    <path d="M 414.72 307.584 
L 414.72 41.472 
" style="fill:none;stroke:#000000;stroke-linecap:square;stroke-linejoin:miter;stroke-width:0.8;"/>
   </g>
   <g id="patch_5">
    <path d="M 57.6 307.584 
L 414.72 307.584 
" style="fill:none;stroke:#000000;stroke-linecap:square;stroke-linejoin:miter;stroke-width:0.8;"/>
   </g>
   <g id="patch_6">
    <path d="M 57.6 41.472 
L 414.72 41.472 
" style="fill:none;stroke:#000000;stroke-linecap:square;stroke-linejoin:miter;stroke-width:0.8;"/>
   </g>
  </g>
 </g>
 <defs>
  <clipPath id="p2c11bdca25">
   <rect height="266.112" width="357.12" x="57.6" y="41.472"/>
  </clipPath>
 </defs>
</svg>
