<?xml version="1.0" encoding="utf-8" standalone="no"?>
<!DOCTYPE svg PUBLIC "-//W3C//DTD SVG 1.1//EN"
  "http://www.w3.org/Graphics/SVG/1.1/DTD/svg11.dtd">
<svg height="345.6pt" version="1.1" viewBox="0 0 460.8 345.6" width="460.8pt" xmlns="http://www.w3.org/2000/svg" xmlns:xlink="http://www.w3.org/1999/xlink">
 <metadata>
  <rdf:RDF xmlns:cc="http://creativecommons.org/ns#" xmlns:dc="http://purl.org/dc/elements/1.1/" xmlns:rdf="http://www.w3.org/1999/02/22-rdf-syntax-ns#">
   <cc:Work>
    <dc:type rdf:resource="http://purl.org/dc/dcmitype/StillImage"/>
    <dc:date>2024-08-06T14:40:58.210545</dc:date>
    <dc:format>image/svg+xml</dc:format>
    <dc:creator>
     <cc:Agent>
      <dc:title>Matplotlib v3.4.2, https://matplotlib.org/</dc:title>
     </cc:Agent>
    </dc:creator>
   </cc:Work>
  </rdf:RDF>
 </metadata>
 <defs>
  <style type="text/css">*{stroke-linecap:butt;stroke-linejoin:round;}</style>
 </defs>
 <g id="figure_1">
  <g id="patch_1">
   <path d="M 0 345.6 
L 460.8 345.6 
L 460.8 0 
L 0 0 
z
" style="fill:#ffffff;"/>
  </g>
  <g id="axes_1">
   <g id="patch_2">
    <path d="M 57.6 307.584 
L 414.72 307.584 
L 414.72 41.472 
L 57.6 41.472 
z
" style="fill:#ffffff;"/>
   </g>
   <g id="matplotlib.axis_1">
    <g id="xtick_1">
     <g id="line2d_1">
      <defs>
       <path d="M 0 0 
L 0 3.5 
" id="m8db3419de4" style="stroke:#000000;stroke-width:0.8;"/>
      </defs>
      <g>
       <use style="stroke:#000000;stroke-width:0.8;" x="95.211629" xlink:href="#m8db3419de4" y="307.584"/>
      </g>
     </g>
     <g id="text_1">
      <!-- 0.2 -->
      <g transform="translate(87.260067 322.182437)scale(0.1 -0.1)">
       <defs>
        <path d="M 2034 4250 
Q 1547 4250 1301 3770 
Q 1056 3291 1056 2328 
Q 1056 1369 1301 889 
Q 1547 409 2034 409 
Q 2525 409 2770 889 
Q 3016 1369 3016 2328 
Q 3016 3291 2770 3770 
Q 2525 4250 2034 4250 
z
M 2034 4750 
Q 2819 4750 3233 4129 
Q 3647 3509 3647 2328 
Q 3647 1150 3233 529 
Q 2819 -91 2034 -91 
Q 1250 -91 836 529 
Q 422 1150 422 2328 
Q 422 3509 836 4129 
Q 1250 4750 2034 4750 
z
" id="DejaVuSans-30" transform="scale(0.015625)"/>
        <path d="M 684 794 
L 1344 794 
L 1344 0 
L 684 0 
L 684 794 
z
" id="DejaVuSans-2e" transform="scale(0.015625)"/>
        <path d="M 1228 531 
L 3431 531 
L 3431 0 
L 469 0 
L 469 531 
Q 828 903 1448 1529 
Q 2069 2156 2228 2338 
Q 2531 2678 2651 2914 
Q 2772 3150 2772 3378 
Q 2772 3750 2511 3984 
Q 2250 4219 1831 4219 
Q 1534 4219 1204 4116 
Q 875 4013 500 3803 
L 500 4441 
Q 881 4594 1212 4672 
Q 1544 4750 1819 4750 
Q 2544 4750 2975 4387 
Q 3406 4025 3406 3419 
Q 3406 3131 3298 2873 
Q 3191 2616 2906 2266 
Q 2828 2175 2409 1742 
Q 1991 1309 1228 531 
z
" id="DejaVuSans-32" transform="scale(0.015625)"/>
       </defs>
       <use xlink:href="#DejaVuSans-30"/>
       <use x="63.623047" xlink:href="#DejaVuSans-2e"/>
       <use x="95.410156" xlink:href="#DejaVuSans-32"/>
      </g>
     </g>
    </g>
    <g id="xtick_2">
     <g id="line2d_2">
      <g>
       <use style="stroke:#000000;stroke-width:0.8;" x="139.20545" xlink:href="#m8db3419de4" y="307.584"/>
      </g>
     </g>
     <g id="text_2">
      <!-- 0.4 -->
      <g transform="translate(131.253887 322.182437)scale(0.1 -0.1)">
       <defs>
        <path d="M 2419 4116 
L 825 1625 
L 2419 1625 
L 2419 4116 
z
M 2253 4666 
L 3047 4666 
L 3047 1625 
L 3713 1625 
L 3713 1100 
L 3047 1100 
L 3047 0 
L 2419 0 
L 2419 1100 
L 313 1100 
L 313 1709 
L 2253 4666 
z
" id="DejaVuSans-34" transform="scale(0.015625)"/>
       </defs>
       <use xlink:href="#DejaVuSans-30"/>
       <use x="63.623047" xlink:href="#DejaVuSans-2e"/>
       <use x="95.410156" xlink:href="#DejaVuSans-34"/>
      </g>
     </g>
    </g>
    <g id="xtick_3">
     <g id="line2d_3">
      <g>
       <use style="stroke:#000000;stroke-width:0.8;" x="183.19927" xlink:href="#m8db3419de4" y="307.584"/>
      </g>
     </g>
     <g id="text_3">
      <!-- 0.6 -->
      <g transform="translate(175.247707 322.182437)scale(0.1 -0.1)">
       <defs>
        <path d="M 2113 2584 
Q 1688 2584 1439 2293 
Q 1191 2003 1191 1497 
Q 1191 994 1439 701 
Q 1688 409 2113 409 
Q 2538 409 2786 701 
Q 3034 994 3034 1497 
Q 3034 2003 2786 2293 
Q 2538 2584 2113 2584 
z
M 3366 4563 
L 3366 3988 
Q 3128 4100 2886 4159 
Q 2644 4219 2406 4219 
Q 1781 4219 1451 3797 
Q 1122 3375 1075 2522 
Q 1259 2794 1537 2939 
Q 1816 3084 2150 3084 
Q 2853 3084 3261 2657 
Q 3669 2231 3669 1497 
Q 3669 778 3244 343 
Q 2819 -91 2113 -91 
Q 1303 -91 875 529 
Q 447 1150 447 2328 
Q 447 3434 972 4092 
Q 1497 4750 2381 4750 
Q 2619 4750 2861 4703 
Q 3103 4656 3366 4563 
z
" id="DejaVuSans-36" transform="scale(0.015625)"/>
       </defs>
       <use xlink:href="#DejaVuSans-30"/>
       <use x="63.623047" xlink:href="#DejaVuSans-2e"/>
       <use x="95.410156" xlink:href="#DejaVuSans-36"/>
      </g>
     </g>
    </g>
    <g id="xtick_4">
     <g id="line2d_4">
      <g>
       <use style="stroke:#000000;stroke-width:0.8;" x="227.19309" xlink:href="#m8db3419de4" y="307.584"/>
      </g>
     </g>
     <g id="text_4">
      <!-- 0.8 -->
      <g transform="translate(219.241528 322.182437)scale(0.1 -0.1)">
       <defs>
        <path d="M 2034 2216 
Q 1584 2216 1326 1975 
Q 1069 1734 1069 1313 
Q 1069 891 1326 650 
Q 1584 409 2034 409 
Q 2484 409 2743 651 
Q 3003 894 3003 1313 
Q 3003 1734 2745 1975 
Q 2488 2216 2034 2216 
z
M 1403 2484 
Q 997 2584 770 2862 
Q 544 3141 544 3541 
Q 544 4100 942 4425 
Q 1341 4750 2034 4750 
Q 2731 4750 3128 4425 
Q 3525 4100 3525 3541 
Q 3525 3141 3298 2862 
Q 3072 2584 2669 2484 
Q 3125 2378 3379 2068 
Q 3634 1759 3634 1313 
Q 3634 634 3220 271 
Q 2806 -91 2034 -91 
Q 1263 -91 848 271 
Q 434 634 434 1313 
Q 434 1759 690 2068 
Q 947 2378 1403 2484 
z
M 1172 3481 
Q 1172 3119 1398 2916 
Q 1625 2713 2034 2713 
Q 2441 2713 2670 2916 
Q 2900 3119 2900 3481 
Q 2900 3844 2670 4047 
Q 2441 4250 2034 4250 
Q 1625 4250 1398 4047 
Q 1172 3844 1172 3481 
z
" id="DejaVuSans-38" transform="scale(0.015625)"/>
       </defs>
       <use xlink:href="#DejaVuSans-30"/>
       <use x="63.623047" xlink:href="#DejaVuSans-2e"/>
       <use x="95.410156" xlink:href="#DejaVuSans-38"/>
      </g>
     </g>
    </g>
    <g id="xtick_5">
     <g id="line2d_5">
      <g>
       <use style="stroke:#000000;stroke-width:0.8;" x="271.18691" xlink:href="#m8db3419de4" y="307.584"/>
      </g>
     </g>
     <g id="text_5">
      <!-- 1.0 -->
      <g transform="translate(263.235348 322.182437)scale(0.1 -0.1)">
       <defs>
        <path d="M 794 531 
L 1825 531 
L 1825 4091 
L 703 3866 
L 703 4441 
L 1819 4666 
L 2450 4666 
L 2450 531 
L 3481 531 
L 3481 0 
L 794 0 
L 794 531 
z
" id="DejaVuSans-31" transform="scale(0.015625)"/>
       </defs>
       <use xlink:href="#DejaVuSans-31"/>
       <use x="63.623047" xlink:href="#DejaVuSans-2e"/>
       <use x="95.410156" xlink:href="#DejaVuSans-30"/>
      </g>
     </g>
    </g>
    <g id="xtick_6">
     <g id="line2d_6">
      <g>
       <use style="stroke:#000000;stroke-width:0.8;" x="315.18073" xlink:href="#m8db3419de4" y="307.584"/>
      </g>
     </g>
     <g id="text_6">
      <!-- 1.2 -->
      <g transform="translate(307.229168 322.182437)scale(0.1 -0.1)">
       <use xlink:href="#DejaVuSans-31"/>
       <use x="63.623047" xlink:href="#DejaVuSans-2e"/>
       <use x="95.410156" xlink:href="#DejaVuSans-32"/>
      </g>
     </g>
    </g>
    <g id="xtick_7">
     <g id="line2d_7">
      <g>
       <use style="stroke:#000000;stroke-width:0.8;" x="359.174551" xlink:href="#m8db3419de4" y="307.584"/>
      </g>
     </g>
     <g id="text_7">
      <!-- 1.4 -->
      <g transform="translate(351.222988 322.182437)scale(0.1 -0.1)">
       <use xlink:href="#DejaVuSans-31"/>
       <use x="63.623047" xlink:href="#DejaVuSans-2e"/>
       <use x="95.410156" xlink:href="#DejaVuSans-34"/>
      </g>
     </g>
    </g>
    <g id="xtick_8">
     <g id="line2d_8">
      <g>
       <use style="stroke:#000000;stroke-width:0.8;" x="403.168371" xlink:href="#m8db3419de4" y="307.584"/>
      </g>
     </g>
     <g id="text_8">
      <!-- 1.6 -->
      <g transform="translate(395.216808 322.182437)scale(0.1 -0.1)">
       <use xlink:href="#DejaVuSans-31"/>
       <use x="63.623047" xlink:href="#DejaVuSans-2e"/>
       <use x="95.410156" xlink:href="#DejaVuSans-36"/>
      </g>
     </g>
    </g>
   </g>
   <g id="matplotlib.axis_2">
    <g id="ytick_1">
     <g id="line2d_9">
      <defs>
       <path d="M 0 0 
L -3.5 0 
" id="m3a9d498ae8" style="stroke:#000000;stroke-width:0.8;"/>
      </defs>
      <g>
       <use style="stroke:#000000;stroke-width:0.8;" x="57.6" xlink:href="#m3a9d498ae8" y="267.569957"/>
      </g>
     </g>
     <g id="text_9">
      <!-- −80 -->
      <g transform="translate(29.495313 271.369176)scale(0.1 -0.1)">
       <defs>
        <path d="M 678 2272 
L 4684 2272 
L 4684 1741 
L 678 1741 
L 678 2272 
z
" id="DejaVuSans-2212" transform="scale(0.015625)"/>
       </defs>
       <use xlink:href="#DejaVuSans-2212"/>
       <use x="83.789062" xlink:href="#DejaVuSans-38"/>
       <use x="147.412109" xlink:href="#DejaVuSans-30"/>
      </g>
     </g>
    </g>
    <g id="ytick_2">
     <g id="line2d_10">
      <g>
       <use style="stroke:#000000;stroke-width:0.8;" x="57.6" xlink:href="#m3a9d498ae8" y="224.318601"/>
      </g>
     </g>
     <g id="text_10">
      <!-- −60 -->
      <g transform="translate(29.495313 228.11782)scale(0.1 -0.1)">
       <use xlink:href="#DejaVuSans-2212"/>
       <use x="83.789062" xlink:href="#DejaVuSans-36"/>
       <use x="147.412109" xlink:href="#DejaVuSans-30"/>
      </g>
     </g>
    </g>
    <g id="ytick_3">
     <g id="line2d_11">
      <g>
       <use style="stroke:#000000;stroke-width:0.8;" x="57.6" xlink:href="#m3a9d498ae8" y="181.067246"/>
      </g>
     </g>
     <g id="text_11">
      <!-- −40 -->
      <g transform="translate(29.495313 184.866465)scale(0.1 -0.1)">
       <use xlink:href="#DejaVuSans-2212"/>
       <use x="83.789062" xlink:href="#DejaVuSans-34"/>
       <use x="147.412109" xlink:href="#DejaVuSans-30"/>
      </g>
     </g>
    </g>
    <g id="ytick_4">
     <g id="line2d_12">
      <g>
       <use style="stroke:#000000;stroke-width:0.8;" x="57.6" xlink:href="#m3a9d498ae8" y="137.81589"/>
      </g>
     </g>
     <g id="text_12">
      <!-- −20 -->
      <g transform="translate(29.495313 141.615109)scale(0.1 -0.1)">
       <use xlink:href="#DejaVuSans-2212"/>
       <use x="83.789062" xlink:href="#DejaVuSans-32"/>
       <use x="147.412109" xlink:href="#DejaVuSans-30"/>
      </g>
     </g>
    </g>
    <g id="ytick_5">
     <g id="line2d_13">
      <g>
       <use style="stroke:#000000;stroke-width:0.8;" x="57.6" xlink:href="#m3a9d498ae8" y="94.564535"/>
      </g>
     </g>
     <g id="text_13">
      <!-- 0 -->
      <g transform="translate(44.2375 98.363753)scale(0.1 -0.1)">
       <use xlink:href="#DejaVuSans-30"/>
      </g>
     </g>
    </g>
    <g id="ytick_6">
     <g id="line2d_14">
      <g>
       <use style="stroke:#000000;stroke-width:0.8;" x="57.6" xlink:href="#m3a9d498ae8" y="51.313179"/>
      </g>
     </g>
     <g id="text_14">
      <!-- 20 -->
      <g transform="translate(37.875 55.112398)scale(0.1 -0.1)">
       <use xlink:href="#DejaVuSans-32"/>
       <use x="63.623047" xlink:href="#DejaVuSans-30"/>
      </g>
     </g>
    </g>
   </g>
   <g id="line2d_15">
    <path clip-path="url(#pca78b3392b)" d="M 73.832727 242.418862 
L 74.26763 242.408385 
L 74.702532 242.502577 
L 75.137434 242.395624 
L 75.572336 242.683081 
L 76.007239 242.970075 
L 76.442141 243.003339 
L 77.529397 243.073176 
L 78.18175 243.260508 
L 78.399201 243.173886 
L 78.616652 243.381553 
L 78.834103 243.357572 
L 79.051555 243.711032 
L 79.921359 253.348273 
L 80.791164 258.803931 
L 81.660968 263.03018 
L 82.530773 266.683568 
L 83.400577 269.223003 
L 84.922735 272.151273 
L 85.79254 273.808543 
L 86.227442 274.66179 
L 87.314698 276.376776 
L 88.619404 278.686776 
L 89.271758 279.355941 
L 89.70666 279.627872 
L 90.141562 279.648602 
L 90.793916 280.381071 
L 91.228818 280.744027 
L 92.098623 281.331145 
L 94.925487 282.54325 
L 95.36039 282.436879 
L 97.752352 282.853434 
L 98.839608 282.557691 
L 100.579217 283.301589 
L 101.883924 284.09448 
L 102.318826 284.123927 
L 102.971179 284.225705 
L 103.406082 284.499628 
L 104.275886 284.953785 
L 104.493337 284.848053 
L 105.145691 284.86884 
L 105.580593 284.762119 
L 106.450398 284.925332 
L 106.667849 284.773048 
L 106.8853 284.77144 
L 108.190007 285.688389 
L 109.059811 286.613306 
L 109.494714 286.850887 
L 110.147067 286.658269 
L 111.016871 284.801832 
L 111.234323 284.106307 
L 111.451774 283.983176 
L 112.104127 284.621236 
L 112.321578 284.627176 
L 112.756481 283.933398 
L 112.973932 283.823659 
L 113.408834 283.924031 
L 113.843736 284.169811 
L 114.49609 284.382769 
L 114.930992 284.474039 
L 115.365894 284.616294 
L 115.583345 284.660481 
L 116.018248 284.985491 
L 117.540406 285.443519 
L 120.36727 286.325798 
L 122.759233 286.995942 
L 123.194135 287.193076 
L 123.629037 287.201844 
L 124.498842 286.941849 
L 126.673353 285.517952 
L 127.325707 285.359435 
L 127.760609 284.96106 
L 127.97806 284.906756 
L 128.630413 285.09407 
L 129.065316 285.033934 
L 129.93512 284.590696 
L 130.587474 284.741503 
L 131.239827 284.592398 
L 133.196887 285.36835 
L 133.63179 285.265063 
L 134.501594 285.408893 
L 134.719045 285.542723 
L 134.936496 285.540101 
L 135.58885 285.869304 
L 136.893557 285.947372 
L 137.111008 285.748172 
L 137.54591 285.6801 
L 138.415715 285.270141 
L 138.850617 285.39547 
L 139.068068 285.556387 
L 139.50297 285.613651 
L 140.155324 286.131073 
L 140.590226 286.299155 
L 141.025128 286.238305 
L 141.46003 286.392699 
L 141.894933 286.487243 
L 142.112384 286.356446 
L 142.547286 286.356453 
L 142.982188 286.222248 
L 143.417091 286.25667 
L 144.721797 286.707115 
L 145.1567 287.028989 
L 146.026504 287.246463 
L 146.461407 287.172906 
L 146.678858 287.063604 
L 147.766113 287.328718 
L 148.201016 287.86212 
L 148.635918 288.245157 
L 149.288271 288.43823 
L 149.723174 288.280302 
L 149.940625 288.301465 
L 150.810429 287.815712 
L 151.897685 286.998845 
L 152.984941 286.909623 
L 153.419843 286.540954 
L 153.854745 286.342516 
L 155.376903 287.025896 
L 155.811805 287.47509 
L 157.116512 287.934384 
L 157.986317 288.135802 
L 160.160828 287.048208 
L 160.378279 286.818523 
L 161.465535 286.869463 
L 162.987693 287.571114 
L 163.205144 287.68701 
L 164.2924 287.539805 
L 164.509851 287.397383 
L 164.944753 286.826184 
L 166.24946 286.138705 
L 166.684362 286.033304 
L 167.119264 285.733161 
L 167.336716 285.717945 
L 168.423971 285.071261 
L 169.293776 285.016683 
L 172.338092 286.071148 
L 172.990445 286.604207 
L 173.425347 286.479218 
L 173.86025 286.260502 
L 174.295152 286.305447 
L 174.512603 286.403458 
L 174.947505 286.340411 
L 175.382408 286.490024 
L 175.81731 286.517288 
L 176.469663 286.413241 
L 177.556919 285.968414 
L 177.77437 285.9096 
L 178.209272 285.646204 
L 178.644175 285.433289 
L 179.079077 285.179452 
L 179.513979 284.553736 
L 180.166333 284.43092 
L 181.253588 284.780826 
L 181.688491 284.660399 
L 182.340844 284.401919 
L 182.558295 284.386497 
L 182.993197 284.180759 
L 183.4281 284.152113 
L 184.080453 284.165367 
L 185.38516 284.192681 
L 185.820062 284.324579 
L 186.037513 284.51011 
L 186.472416 284.447222 
L 187.124769 284.405642 
L 187.559671 284.354173 
L 188.212025 284.103725 
L 188.646927 284.043774 
L 189.081829 283.848048 
L 189.516731 283.81239 
L 189.734183 283.939459 
L 189.951634 283.909383 
L 190.169085 283.747994 
L 190.386536 283.743661 
L 190.821438 283.951497 
L 191.25634 284.22763 
L 191.691243 284.719761 
L 191.908694 285.043346 
L 193.213401 285.618626 
L 193.865754 285.902826 
L 196.040265 286.986731 
L 196.692619 286.967389 
L 197.127521 286.970405 
L 197.997326 287.310695 
L 198.86713 287.451476 
L 199.302033 287.706811 
L 200.171837 287.844655 
L 200.82419 288.033807 
L 201.911446 287.901113 
L 202.5638 288.153531 
L 204.52086 288.157049 
L 204.955762 288.012903 
L 205.825567 287.960854 
L 206.043018 287.825623 
L 206.912822 287.910277 
L 207.347725 287.956501 
L 208.217529 288.041958 
L 209.957138 289.027854 
L 210.39204 289.491816 
L 210.826943 289.698886 
L 211.044394 289.63722 
L 211.696747 289.83556 
L 212.13165 289.644878 
L 213.218905 288.839877 
L 213.653807 288.707734 
L 214.306161 288.651946 
L 214.958514 288.642319 
L 215.828319 288.514909 
L 216.480672 288.895274 
L 217.133026 289.561303 
L 218.220281 290.160801 
L 218.872635 290.049752 
L 219.307537 289.264661 
L 219.95989 288.784404 
L 220.177342 288.773795 
L 221.482048 287.909439 
L 223.439109 287.606132 
L 223.65656 287.740903 
L 224.526364 287.561021 
L 225.178718 287.5671 
L 226.265973 287.579352 
L 227.788131 288.207332 
L 228.657936 288.00031 
L 229.310289 287.639622 
L 229.962643 287.185137 
L 231.267349 286.481389 
L 232.354605 286.481299 
L 232.572056 286.405236 
L 233.006959 286.123454 
L 233.659312 285.52809 
L 234.311665 284.665246 
L 234.529116 284.485365 
L 235.18147 284.379675 
L 235.833823 284.153727 
L 236.268726 283.941707 
L 236.703628 283.977865 
L 237.573432 284.304117 
L 238.008335 284.453877 
L 239.530493 284.987281 
L 240.617748 284.939666 
L 241.922455 284.936473 
L 242.357357 285.064938 
L 242.79226 285.4577 
L 244.74932 285.402227 
L 245.401673 285.783062 
L 247.793636 286.080807 
L 248.445989 285.988042 
L 249.315794 286.199314 
L 249.968147 286.646391 
L 252.142658 287.760072 
L 253.229914 288.508134 
L 254.31717 288.805944 
L 254.752072 288.865335 
L 255.186974 289.025403 
L 255.621877 289.217608 
L 256.491681 289.702464 
L 256.926583 290.049791 
L 257.361486 290.486723 
L 257.796388 290.603688 
L 258.666193 291.244972 
L 259.101095 291.341817 
L 259.753448 291.750915 
L 260.18835 291.721085 
L 260.623253 291.457065 
L 261.275606 291.22097 
L 261.92796 291.27361 
L 262.580313 291.397201 
L 264.319922 291.564763 
L 264.754824 291.680963 
L 265.189727 291.675603 
L 265.407178 291.536526 
L 265.84208 291.512586 
L 266.276982 291.442561 
L 267.364238 291.518502 
L 268.016591 291.851432 
L 268.234043 292.02018 
L 268.886396 291.986876 
L 269.973652 291.229741 
L 270.408554 291.2288 
L 271.060907 291.546384 
L 271.930712 291.836085 
L 272.365614 291.979237 
L 273.887772 292.885669 
L 274.540125 293.238311 
L 274.975028 293.221914 
L 275.192479 293.402197 
L 276.279735 293.467106 
L 277.149539 293.361304 
L 277.584441 293.641202 
L 278.019344 293.875229 
L 278.454246 293.911338 
L 278.671697 293.863842 
L 279.32405 293.999363 
L 279.758953 293.944525 
L 280.193855 293.69694 
L 281.06366 293.740196 
L 281.498562 293.883406 
L 281.933464 294.008972 
L 282.368366 293.82339 
L 283.890524 293.847749 
L 284.325427 294.042757 
L 285.195231 293.677061 
L 287.804645 293.513482 
L 288.239547 293.558484 
L 288.8919 293.715453 
L 289.326803 293.772676 
L 290.414058 294.325244 
L 290.848961 294.400716 
L 291.066412 294.373285 
L 291.501314 294.02815 
L 292.153667 294.018881 
L 292.371119 293.965139 
L 293.675825 294.567192 
L 294.110728 294.820397 
L 294.54563 294.952365 
L 295.197983 295.279454 
L 295.415434 295.387373 
L 295.632886 295.334971 
L 295.850337 295.418899 
L 296.067788 295.310031 
L 296.285239 295.488 
L 296.50269 295.274449 
L 297.372495 286.265321 
L 298.894653 276.373544 
L 299.764457 271.803973 
L 301.721517 263.878484 
L 303.461126 258.981818 
L 305.853089 254.473273 
L 306.505442 253.666129 
L 306.940345 253.156035 
L 308.679954 251.214661 
L 309.984661 250.020736 
L 310.854465 249.425632 
L 311.941721 248.717688 
L 314.551134 247.620012 
L 314.986037 247.357102 
L 315.203488 247.355965 
L 317.812901 245.613585 
L 318.682706 245.250952 
L 323.466631 245.630709 
L 323.901533 245.565043 
L 326.510947 245.717612 
L 327.598203 245.728573 
L 328.250556 245.632123 
L 328.902909 245.716595 
L 329.772714 245.389895 
L 330.207616 245.460655 
L 331.512323 245.486227 
L 332.81703 245.724792 
L 333.251932 245.924325 
L 333.904285 245.717292 
L 335.861346 245.432868 
L 336.296248 245.488541 
L 336.73115 245.586161 
L 337.166052 245.668236 
L 338.905662 245.821054 
L 339.340564 245.972699 
L 339.775466 245.897924 
L 340.210368 245.803777 
L 342.819782 245.904128 
L 343.472135 245.907706 
L 343.907038 245.798547 
L 345.429196 244.976981 
L 347.603707 245.03295 
L 349.343316 245.788971 
L 349.778218 245.786286 
L 350.430572 246.15736 
L 350.865474 246.302088 
L 351.517827 246.593729 
L 352.170181 246.578851 
L 352.605083 246.497388 
L 352.822534 246.496899 
L 353.257437 246.212802 
L 354.127241 245.970525 
L 354.562143 245.624592 
L 356.084301 245.4967 
L 357.82391 246.160925 
L 358.476264 246.124087 
L 359.128617 246.489198 
L 359.563519 246.622545 
L 360.215873 246.742012 
L 362.172933 246.459844 
L 363.695091 246.562418 
L 364.129993 246.45506 
L 364.999798 246.746019 
L 365.4347 246.982506 
L 366.087054 247.054351 
L 366.739407 246.945314 
L 368.913918 246.660703 
L 369.348821 246.808825 
L 369.783723 246.925339 
L 370.870979 247.292709 
L 371.740783 247.50415 
L 372.393136 247.559052 
L 372.828039 247.449609 
L 373.262941 247.594286 
L 376.089806 246.470593 
L 376.307257 246.360444 
L 377.611964 246.723179 
L 378.264317 247.070564 
L 378.699219 246.987835 
L 379.786475 247.03568 
L 380.221377 247.099235 
L 380.65628 247.228755 
L 382.178438 247.065614 
L 382.61334 246.960351 
L 383.265693 246.836244 
L 383.918047 246.662399 
L 385.440205 246.511552 
L 386.092558 246.487589 
L 387.179814 246.713827 
L 387.614716 246.895348 
L 388.48452 246.950466 
L 389.571776 246.873833 
L 390.22413 246.600459 
L 390.659032 246.572811 
L 392.833543 245.430713 
L 394.573152 243.986419 
L 395.008055 244.054018 
L 396.312761 243.125076 
L 396.965115 242.309977 
L 397.400017 242.046325 
L 398.05237 241.459237 
L 398.487273 241.284038 
L 398.487273 241.284038 
" style="fill:none;stroke:#000000;stroke-linecap:square;stroke-width:1.5;"/>
   </g>
   <g id="line2d_16">
    <path clip-path="url(#pca78b3392b)" d="M 73.832727 269.302247 
L 74.26763 269.455686 
L 74.702532 269.627345 
L 75.137434 269.654658 
L 75.572336 269.78916 
L 76.22469 269.90332 
L 76.659592 269.996791 
L 76.877043 270.129716 
L 77.746848 269.944654 
L 78.399201 270.034586 
L 78.616652 270.103627 
L 78.834103 270.402496 
L 79.051555 270.155933 
L 80.356261 248.487663 
L 81.443517 234.714845 
L 81.660968 232.894485 
L 82.09587 227.693165 
L 82.313322 225.644786 
L 82.530773 222.498439 
L 82.748224 221.314838 
L 82.965675 217.407359 
L 83.183126 216.58562 
L 83.618028 210.528955 
L 83.83548 208.570828 
L 84.052931 202.052659 
L 84.270382 205.237066 
L 84.705284 74.29916 
L 84.922735 95.586367 
L 85.357637 176.237866 
L 85.575089 199.500735 
L 86.009991 214.44243 
L 86.444893 217.770765 
L 86.662344 218.359245 
L 86.879795 217.408031 
L 87.097247 217.611174 
L 87.314698 216.166223 
L 87.532149 215.724942 
L 88.836856 208.511212 
L 89.489209 205.082827 
L 90.141562 201.754092 
L 91.881172 192.719905 
L 92.533525 189.903983 
L 93.185878 187.02156 
L 93.620781 185.549689 
L 94.490585 182.521261 
L 95.577841 178.56332 
L 95.795292 178.204514 
L 96.665097 177.869233 
L 96.882548 178.247177 
L 97.31745 178.55736 
L 97.752352 179.808442 
L 98.187254 180.606535 
L 98.622157 181.199656 
L 99.709412 182.757523 
L 99.926864 183.235183 
L 100.361766 183.458073 
L 100.796668 183.359428 
L 102.101375 184.337651 
L 102.753728 184.195424 
L 102.971179 184.349228 
L 103.623533 184.058219 
L 104.710789 182.595543 
L 105.145691 182.120021 
L 105.363142 181.914939 
L 106.232946 181.726434 
L 106.450398 181.641963 
L 106.667849 181.712618 
L 107.320202 181.230295 
L 108.190007 180.45238 
L 108.407458 180.520601 
L 109.277262 179.961455 
L 110.147067 180.220015 
L 110.581969 180.413131 
L 111.016871 180.425393 
L 111.451774 180.268277 
L 111.669225 180.072087 
L 111.886676 180.039261 
L 112.321578 180.188942 
L 112.539029 180.185081 
L 112.973932 180.586682 
L 113.408834 180.397175 
L 113.843736 180.595632 
L 114.278638 180.502972 
L 114.49609 180.5872 
L 114.713541 180.526172 
L 115.365894 180.745637 
L 115.800796 180.459054 
L 116.235699 180.622901 
L 116.45315 180.743297 
L 116.670601 180.585201 
L 117.105503 179.968595 
L 117.540406 179.817567 
L 117.757857 179.764954 
L 118.192759 179.207223 
L 118.41021 179.2391 
L 119.497466 178.761636 
L 119.932368 178.670575 
L 120.36727 179.06779 
L 120.802173 178.997421 
L 121.019624 179.126686 
L 121.454526 179.097432 
L 121.671977 179.098353 
L 122.106879 178.601648 
L 122.541782 178.788771 
L 123.194135 178.779405 
L 123.629037 178.904555 
L 124.281391 178.820186 
L 125.151195 179.218103 
L 126.021 179.3177 
L 126.455902 179.562104 
L 127.108255 179.423607 
L 127.543158 179.608541 
L 127.760609 179.4067 
L 129.500218 180.079717 
L 130.152571 180.116553 
L 131.022376 180.798068 
L 131.239827 180.886102 
L 131.89218 180.608631 
L 132.327083 180.609455 
L 132.544534 180.71141 
L 132.761985 180.646851 
L 133.196887 180.837329 
L 133.414338 180.666904 
L 133.63179 180.655767 
L 133.849241 180.884751 
L 134.284143 180.717279 
L 134.501594 180.67023 
L 134.719045 180.436866 
L 134.936496 180.379503 
L 135.371399 180.031116 
L 136.023752 180.038089 
L 136.458654 179.712675 
L 137.763361 179.325717 
L 137.980812 178.883429 
L 138.198263 178.753154 
L 138.633166 178.948638 
L 139.720421 178.473696 
L 140.155324 178.430562 
L 141.242579 177.720452 
L 141.677482 177.98606 
L 141.894933 177.953197 
L 142.982188 178.46571 
L 143.851993 178.448013 
L 144.069444 178.581171 
L 144.504346 179.001167 
L 144.939249 179.091846 
L 145.374151 178.90631 
L 145.809053 178.538388 
L 146.026504 178.455222 
L 146.461407 178.061089 
L 146.678858 178.066406 
L 146.896309 177.843126 
L 147.11376 177.380167 
L 147.548662 177.263197 
L 147.983565 177.227944 
L 148.201016 177.25948 
L 148.853369 177.593736 
L 149.07082 177.741306 
L 150.158076 177.867246 
L 150.810429 178.047766 
L 152.332587 178.045347 
L 153.202392 178.546733 
L 153.419843 178.447245 
L 154.507099 178.731393 
L 155.594354 179.705908 
L 156.246708 179.736718 
L 157.986317 179.451448 
L 159.291024 179.275685 
L 159.725926 178.881341 
L 160.160828 179.367182 
L 162.117888 179.842921 
L 162.552791 180.21913 
L 162.770242 180.300416 
L 164.727302 179.823685 
L 165.379655 179.28403 
L 165.814558 179.190453 
L 166.032009 178.959712 
L 166.466911 178.857434 
L 166.684362 178.578299 
L 166.901813 178.579959 
L 167.119264 178.754568 
L 167.771618 178.82061 
L 168.423971 179.550354 
L 169.293776 179.770178 
L 170.16358 180.352314 
L 170.598483 180.769591 
L 171.033385 181.262465 
L 172.120641 181.635848 
L 174.512603 181.093873 
L 174.730054 181.198783 
L 175.164956 181.039179 
L 176.252212 181.250681 
L 176.687114 181.168098 
L 176.904566 181.329214 
L 178.209272 180.97005 
L 178.644175 180.427157 
L 178.861626 180.319469 
L 179.948881 179.182706 
L 180.383784 179.475456 
L 180.601235 179.408606 
L 181.036137 179.028474 
L 181.253588 178.96089 
L 181.688491 179.132633 
L 182.123393 179.537879 
L 182.993197 179.255884 
L 183.645551 179.283912 
L 183.863002 179.211735 
L 184.080453 179.311263 
L 184.297904 179.58359 
L 184.950258 179.753881 
L 185.602611 179.999084 
L 185.820062 179.872673 
L 186.472416 180.380796 
L 186.907318 180.682631 
L 187.34222 180.714316 
L 187.559671 180.895616 
L 187.777122 180.869707 
L 188.212025 180.49497 
L 189.516731 179.710307 
L 190.169085 179.722145 
L 190.821438 179.731079 
L 191.25634 180.026344 
L 191.691243 180.015534 
L 191.908694 179.995013 
L 192.126145 179.831453 
L 192.343596 179.465955 
L 192.561047 179.347819 
L 193.648303 179.666867 
L 194.083205 179.532003 
L 194.518108 179.139285 
L 195.170461 179.097185 
L 195.822814 179.027111 
L 196.257717 178.639257 
L 196.692619 178.335118 
L 197.127521 177.778681 
L 197.562423 177.708031 
L 197.997326 177.351732 
L 198.649679 177.706085 
L 199.084581 177.640289 
L 199.519484 177.937064 
L 199.736935 178.137513 
L 201.041642 178.235043 
L 201.911446 177.610607 
L 202.128897 177.23983 
L 202.346348 177.151704 
L 202.5638 177.236246 
L 203.216153 176.964351 
L 203.433604 177.186509 
L 204.303409 177.333971 
L 204.52086 177.20096 
L 204.955762 177.243523 
L 205.825567 176.524745 
L 206.260469 176.003417 
L 206.695371 175.645009 
L 207.130273 175.025023 
L 207.565176 174.922609 
L 207.782627 174.948274 
L 208.000078 175.128835 
L 208.217529 175.139239 
L 208.43498 175.031077 
L 208.652431 175.107836 
L 209.087334 175.585306 
L 209.522236 176.091537 
L 209.739687 176.168215 
L 210.39204 175.959169 
L 210.609492 176.111158 
L 211.044394 175.968756 
L 212.13165 177.056401 
L 213.653807 179.670736 
L 214.306161 180.129896 
L 214.523612 180.045968 
L 214.741063 180.11121 
L 216.04577 181.998056 
L 216.263221 182.171761 
L 216.698123 182.891241 
L 217.785379 183.239538 
L 218.00283 183.440139 
L 218.220281 183.44176 
L 218.872635 183.717843 
L 219.742439 183.784716 
L 221.047146 182.184762 
L 222.351853 180.107012 
L 223.439109 179.319177 
L 223.874011 179.281311 
L 224.308913 178.817867 
L 225.61362 177.842727 
L 226.048522 177.944359 
L 226.918327 177.57537 
L 227.57068 177.36592 
L 227.788131 177.198633 
L 228.657936 177.455777 
L 229.52774 177.420896 
L 229.745191 177.167291 
L 230.397545 177.412003 
L 230.614996 177.347069 
L 231.049898 177.508713 
L 231.484801 176.968197 
L 231.919703 177.149547 
L 232.354605 177.118014 
L 232.789507 177.424609 
L 233.22441 177.325175 
L 233.876763 177.574424 
L 234.529116 177.921313 
L 234.964019 178.215389 
L 235.18147 178.306176 
L 235.616372 178.907296 
L 236.051274 178.86159 
L 236.921079 178.686337 
L 237.13853 178.547984 
L 237.573432 178.6963 
L 238.008335 178.780117 
L 238.443237 179.197902 
L 239.09559 179.877561 
L 239.965395 180.212821 
L 240.400297 180.10571 
L 240.617748 180.303333 
L 241.270102 180.283164 
L 241.705004 180.275246 
L 241.922455 180.18032 
L 242.574809 180.336891 
L 243.444613 180.326026 
L 244.314418 180.470319 
L 246.054027 180.20323 
L 246.488929 180.270162 
L 246.923831 180.181597 
L 247.141282 180.136319 
L 248.228538 179.393965 
L 248.66344 179.425206 
L 249.533245 178.932057 
L 250.185598 179.039462 
L 250.403049 178.969133 
L 250.620501 178.713165 
L 250.837952 178.651865 
L 251.490305 178.770243 
L 252.36011 178.25622 
L 252.795012 178.731975 
L 254.31717 178.897273 
L 255.404426 179.577315 
L 256.056779 179.662946 
L 256.491681 179.776089 
L 256.709132 179.706513 
L 257.144035 179.884695 
L 258.23129 180.328763 
L 258.883644 180.672032 
L 259.318546 180.914164 
L 259.753448 181.102843 
L 260.405802 181.273956 
L 261.493057 181.182242 
L 261.92796 181.294225 
L 262.362862 181.250545 
L 262.797764 180.742128 
L 263.232666 180.742584 
L 263.667569 180.687318 
L 264.319922 180.651307 
L 264.537373 180.455717 
L 264.972275 180.550848 
L 265.84208 179.181189 
L 267.146787 179.173571 
L 267.364238 178.96402 
L 267.581689 178.950948 
L 267.79914 179.143629 
L 268.016591 179.138993 
L 268.451494 178.918352 
L 269.103847 179.087777 
L 269.538749 179.028359 
L 270.191103 179.074207 
L 270.408554 178.990058 
L 270.843456 178.953201 
L 271.278358 178.67515 
L 271.49581 178.415887 
L 272.148163 178.201594 
L 272.365614 178.064292 
L 274.322674 178.487532 
L 274.540125 178.853818 
L 276.497186 180.119691 
L 278.236795 181.993116 
L 278.671697 182.577059 
L 279.541502 182.715507 
L 280.411306 182.353143 
L 280.846208 182.732237 
L 281.281111 182.658776 
L 282.585817 181.986629 
L 283.02072 181.464268 
L 283.455622 180.70243 
L 283.890524 180.079149 
L 284.325427 179.728346 
L 284.542878 179.75336 
L 285.630133 178.540764 
L 285.847584 178.164032 
L 286.93484 177.510713 
L 287.587194 176.682691 
L 287.804645 176.665284 
L 288.022096 176.886267 
L 288.456998 177.636269 
L 289.326803 177.519453 
L 289.761705 177.794375 
L 290.414058 177.838053 
L 291.066412 178.154189 
L 291.718765 178.340373 
L 292.153667 178.168234 
L 292.58857 178.183002 
L 293.023472 178.482342 
L 293.240923 178.515846 
L 293.458374 178.685242 
L 294.763081 178.578294 
L 295.415434 178.204514 
L 295.632886 178.23974 
L 296.067788 178.078335 
L 296.285239 177.535353 
L 296.50269 177.72286 
L 298.024848 202.950768 
L 299.112104 215.065822 
L 299.981908 222.572673 
L 301.069164 229.914765 
L 301.938969 234.889927 
L 303.678578 242.634448 
L 305.200736 247.651156 
L 307.375247 253.322012 
L 308.462503 255.181785 
L 310.419563 257.557621 
L 311.941721 259.579409 
L 312.376623 259.88561 
L 312.811525 260.337328 
L 313.463879 260.723926 
L 313.68133 260.839047 
L 314.333683 260.661373 
L 315.203488 261.1546 
L 315.420939 261.017144 
L 315.63839 261.127125 
L 316.073292 261.584949 
L 316.943097 262.351885 
L 317.377999 262.326832 
L 317.59545 262.306636 
L 317.812901 262.427113 
L 318.247804 262.901998 
L 318.465255 262.811576 
L 318.900157 263.05199 
L 319.552511 263.56513 
L 319.987413 263.516492 
L 320.204864 263.676388 
L 320.639766 263.547864 
L 320.857217 263.3531 
L 321.074668 262.987653 
L 321.29212 262.965276 
L 321.944473 263.289762 
L 322.161924 263.126824 
L 322.379375 263.153781 
L 323.24918 261.302355 
L 323.466631 261.095692 
L 323.901533 261.310298 
L 325.20624 261.955842 
L 325.641142 261.845626 
L 326.510947 261.908065 
L 326.945849 262.168919 
L 327.380751 261.888078 
L 327.598203 262.025769 
L 328.033105 262.526985 
L 328.902909 263.025747 
L 329.555263 263.515728 
L 329.772714 263.797452 
L 329.990165 263.893309 
L 330.207616 263.852569 
L 330.425067 263.962729 
L 330.85997 264.524769 
L 331.294872 264.408472 
L 331.729774 264.594466 
L 331.947225 264.698496 
L 332.382128 264.655768 
L 332.81703 264.855315 
L 333.251932 264.459631 
L 333.469383 264.23326 
L 334.121737 264.111843 
L 334.339188 263.981683 
L 334.77409 263.497306 
L 334.991541 263.504454 
L 335.426443 263.942355 
L 335.861346 264.019032 
L 336.296248 264.438949 
L 337.166052 264.77419 
L 338.035857 265.286338 
L 339.992917 264.537627 
L 340.42782 264.349538 
L 342.167429 264.679944 
L 342.38488 264.516455 
L 342.819782 264.575978 
L 343.037233 264.350992 
L 343.472135 264.438322 
L 343.689587 264.209524 
L 344.559391 264.518495 
L 344.994293 264.541637 
L 345.864098 264.967342 
L 346.299 265.16094 
L 347.821158 264.930932 
L 348.690963 265.176949 
L 349.560767 265.213459 
L 350.213121 265.613295 
L 350.430572 265.763245 
L 350.648023 265.728869 
L 351.082925 265.525486 
L 351.735279 265.466166 
L 352.387632 265.695556 
L 353.039985 265.409627 
L 353.474888 265.423209 
L 353.90979 265.580326 
L 354.344692 265.489725 
L 354.779594 265.318261 
L 354.997046 265.107345 
L 355.431948 264.973405 
L 355.649399 265.071616 
L 355.86685 265.007077 
L 356.084301 264.728782 
L 358.258813 265.420492 
L 359.563519 265.261688 
L 360.215873 264.657432 
L 361.303129 264.314308 
L 361.52058 264.386079 
L 361.955482 264.115683 
L 363.47764 265.177478 
L 363.695091 265.259019 
L 364.129993 265.26399 
L 364.347444 265.395513 
L 365.217249 265.392233 
L 365.652151 265.552647 
L 366.304505 265.683631 
L 367.174309 265.798615 
L 368.261565 266.277848 
L 368.696467 266.776667 
L 369.131369 267.227701 
L 369.566272 267.395262 
L 371.08843 268.004021 
L 371.523332 268.41446 
L 371.958234 268.498719 
L 373.262941 269.243348 
L 375.654903 269.268854 
L 376.089806 269.428732 
L 376.524708 269.462543 
L 377.611964 270.04119 
L 380.003926 271.199342 
L 382.61334 272.013638 
L 383.048242 271.838497 
L 383.483144 271.795091 
L 383.918047 271.845017 
L 385.657656 271.596499 
L 385.875107 271.505705 
L 388.919423 272.355056 
L 390.22413 272.479692 
L 391.963739 273.219184 
L 392.398641 273.168994 
L 392.833543 273.347555 
L 393.050994 273.328499 
L 393.485897 273.443049 
L 393.920799 273.558734 
L 394.355701 273.94151 
L 395.225506 274.04788 
L 395.660408 274.235603 
L 396.09531 274.322841 
L 397.182566 274.613816 
L 397.617468 274.703973 
L 398.487273 274.945941 
L 398.487273 274.945941 
" style="fill:none;stroke:#000000;stroke-linecap:square;stroke-width:1.5;"/>
   </g>
   <g id="line2d_17">
    <path clip-path="url(#pca78b3392b)" d="M 73.832727 231.526837 
L 74.050178 231.653775 
L 75.137434 231.401605 
L 75.789787 231.285732 
L 77.311945 231.034428 
L 77.529397 231.13231 
L 78.616652 230.949113 
L 79.051555 231.130648 
L 81.878419 239.069808 
L 83.400577 242.60822 
L 85.575089 247.129127 
L 87.314698 250.036158 
L 89.924111 254.131353 
L 91.881172 256.605753 
L 92.316074 257.313478 
L 95.142939 260.245292 
L 95.36039 260.386133 
L 96.012743 261.092179 
L 99.057059 263.381811 
L 99.491961 263.995668 
L 99.709412 264.101723 
L 100.579217 264.958474 
L 101.666473 265.860278 
L 103.623533 267.582604 
L 104.058435 267.741096 
L 104.92824 268.224624 
L 105.145691 268.327814 
L 105.798044 268.936817 
L 106.450398 269.318942 
L 106.8853 269.569684 
L 109.712165 271.149129 
L 112.321578 271.911673 
L 114.061187 272.831439 
L 115.148443 273.367463 
L 116.670601 273.928121 
L 117.322954 274.230134 
L 117.757857 274.461154 
L 118.41021 274.597091 
L 118.845112 274.815672 
L 119.280015 274.910954 
L 120.36727 275.480741 
L 120.802173 275.627379 
L 121.237075 275.94546 
L 123.411586 276.630976 
L 124.281391 276.67966 
L 126.238451 277.284888 
L 126.673353 277.182379 
L 127.108255 277.254325 
L 127.97806 277.275006 
L 128.630413 277.638847 
L 130.587474 278.159099 
L 131.239827 278.351034 
L 131.674729 278.408233 
L 132.109632 278.648038 
L 132.544534 278.748967 
L 133.414338 278.973085 
L 134.936496 279.350455 
L 135.371399 279.451459 
L 136.023752 279.598639 
L 137.111008 279.608073 
L 137.763361 279.659669 
L 139.068068 279.821563 
L 139.50297 279.966163 
L 140.372775 280.007804 
L 140.590226 280.055125 
L 141.242579 279.805843 
L 143.417091 280.31455 
L 144.504346 280.184623 
L 145.1567 280.20831 
L 146.243955 280.175827 
L 146.461407 280.332447 
L 149.07082 280.201391 
L 149.505722 280.279713 
L 149.940625 280.383889 
L 150.810429 280.386837 
L 151.245332 280.381942 
L 152.332587 280.424791 
L 153.637294 280.604972 
L 154.507099 280.751537 
L 155.159452 280.860883 
L 156.246708 280.70287 
L 156.68161 280.674821 
L 158.421219 280.517937 
L 158.856121 280.546453 
L 160.813182 280.405192 
L 161.682986 280.380053 
L 163.205144 280.064098 
L 164.074949 280.049342 
L 164.727302 280.093701 
L 165.379655 280.117062 
L 165.597106 280.087946 
L 166.032009 280.249281 
L 167.119264 280.17449 
L 167.989069 280.258342 
L 168.641422 280.371368 
L 169.946129 280.607487 
L 171.468287 280.483693 
L 172.120641 280.585574 
L 172.555543 280.629442 
L 175.81731 280.354763 
L 177.122017 280.738413 
L 177.556919 280.715537 
L 179.513979 281.164136 
L 180.383784 281.416136 
L 180.818686 281.420445 
L 181.471039 281.397262 
L 182.340844 281.465876 
L 182.993197 281.7014 
L 185.820062 281.608257 
L 186.254964 281.673451 
L 187.777122 281.740863 
L 188.646927 281.691862 
L 189.29928 281.672099 
L 189.734183 281.676546 
L 190.169085 281.757362 
L 191.691243 281.499526 
L 192.561047 281.408713 
L 192.99595 281.407526 
L 193.430852 281.45324 
L 196.692619 281.564398 
L 197.127521 281.552437 
L 197.779875 281.680376 
L 197.997326 281.674689 
L 198.432228 281.511157 
L 198.86713 281.512587 
L 199.519484 281.493063 
L 199.954386 281.596877 
L 200.389288 281.487777 
L 201.476544 281.703163 
L 202.346348 281.704937 
L 202.781251 281.603759 
L 203.216153 281.679805 
L 204.085957 281.757506 
L 204.738311 282.070276 
L 209.522236 282.565507 
L 209.957138 282.472837 
L 210.609492 282.593355 
L 211.479296 282.519258 
L 211.914198 282.650273 
L 212.784003 282.619707 
L 213.218905 282.677707 
L 213.871259 282.510233 
L 214.306161 282.522977 
L 214.741063 282.625037 
L 214.958514 282.552357 
L 215.610868 282.686562 
L 216.480672 282.896058 
L 218.00283 282.798402 
L 218.437732 282.748285 
L 218.655184 282.685226 
L 219.524988 282.920966 
L 220.829695 282.742785 
L 221.264597 282.747656 
L 222.351853 282.501267 
L 222.786755 282.691142 
L 223.221657 282.736038 
L 223.65656 282.710101 
L 224.091462 282.793869 
L 224.526364 282.753614 
L 227.135778 283.106509 
L 229.745191 283.80837 
L 230.180094 283.937438 
L 231.484801 283.875002 
L 234.964019 283.831742 
L 236.268726 284.012824 
L 236.921079 283.9008 
L 237.355981 283.904726 
L 237.790884 283.783565 
L 238.225786 283.51977 
L 238.660688 283.468304 
L 240.400297 283.197863 
L 241.270102 283.449854 
L 242.357357 283.587003 
L 243.662064 283.660187 
L 244.096966 283.61292 
L 244.531869 283.742859 
L 245.401673 283.549514 
L 245.836576 283.495801 
L 246.271478 283.406644 
L 246.923831 283.336406 
L 247.576185 283.212065 
L 250.185598 282.950836 
L 251.055403 282.800577 
L 252.142658 282.847891 
L 254.099719 282.87393 
L 254.534621 282.814953 
L 254.969523 282.787483 
L 255.404426 282.838914 
L 256.27423 282.786166 
L 256.709132 282.772042 
L 256.926583 282.687384 
L 257.361486 282.736305 
L 258.013839 282.650588 
L 259.535997 282.741116 
L 260.623253 282.651686 
L 261.275606 282.740907 
L 262.362862 282.664877 
L 263.015215 282.68102 
L 264.102471 282.449498 
L 264.537373 282.349593 
L 266.494433 282.030968 
L 266.711885 282.070283 
L 267.364238 281.829212 
L 268.234043 281.65704 
L 268.668945 281.6664 
L 269.538749 281.743861 
L 269.973652 281.751108 
L 270.626005 281.625464 
L 272.800516 281.419724 
L 274.757577 281.475909 
L 275.192479 281.420761 
L 276.062283 281.39277 
L 276.714637 281.275436 
L 277.149539 281.292457 
L 278.236795 281.169403 
L 278.889148 281.114999 
L 279.32405 281.065892 
L 280.411306 281.020454 
L 280.628757 281.105438 
L 281.498562 281.025268 
L 281.933464 280.986804 
L 283.673073 280.544937 
L 287.152291 280.374905 
L 287.587194 280.396826 
L 288.239547 280.473563 
L 289.979156 280.101842 
L 291.066412 280.112366 
L 291.718765 280.315252 
L 292.153667 280.302751 
L 292.58857 280.222549 
L 293.023472 280.198562 
L 293.240923 280.142712 
L 293.675825 280.248415 
L 294.54563 280.192863 
L 295.632886 280.456603 
L 296.285239 280.559262 
L 296.50269 280.480119 
L 298.024848 275.504633 
L 299.112104 272.780189 
L 302.15642 265.847297 
L 302.591322 265.031937 
L 303.461126 262.976229 
L 305.635638 259.095498 
L 306.505442 257.754768 
L 308.462503 254.555042 
L 310.202112 252.194052 
L 310.637014 251.530695 
L 311.071916 250.914797 
L 312.159172 249.454575 
L 316.725646 244.346578 
L 316.943097 244.184652 
L 317.59545 243.410055 
L 319.335059 241.791198 
L 320.422315 241.062926 
L 323.031729 239.232055 
L 323.466631 239.054242 
L 324.118984 238.642159 
L 324.771338 238.371339 
L 325.858593 237.593456 
L 327.598203 236.610396 
L 328.468007 236.131484 
L 328.902909 235.869545 
L 330.207616 235.273528 
L 332.164676 234.613562 
L 333.469383 234.177146 
L 334.556639 233.984009 
L 335.426443 233.972437 
L 335.861346 233.80007 
L 336.513699 233.747329 
L 337.166052 233.45755 
L 338.253308 233.376414 
L 339.123113 233.421222 
L 339.558015 233.463217 
L 339.992917 233.492617 
L 341.080173 233.604764 
L 341.515075 233.574971 
L 342.819782 233.361477 
L 343.254684 233.256159 
L 344.34194 233.324371 
L 344.776842 233.197288 
L 345.211745 233.116093 
L 345.646647 233.078763 
L 346.299 233.106532 
L 348.690963 232.748896 
L 349.125865 232.616315 
L 349.995669 232.565735 
L 350.648023 232.486009 
L 350.865474 232.491815 
L 351.517827 232.252945 
L 351.95273 232.21028 
L 352.387632 232.101339 
L 352.822534 232.031486 
L 353.257437 232.006732 
L 353.692339 231.908483 
L 354.344692 231.677468 
L 355.649399 231.316234 
L 356.519204 231.325385 
L 358.041362 231.219628 
L 358.476264 231.078238 
L 359.998422 231.12206 
L 360.433324 231.207856 
L 361.085677 231.067505 
L 361.738031 230.923389 
L 362.607835 230.777099 
L 363.47764 230.756461 
L 364.347444 230.779772 
L 366.087054 230.604896 
L 367.39176 229.918065 
L 368.044114 229.823069 
L 369.131369 229.723006 
L 369.566272 229.616811 
L 370.218625 229.637953 
L 370.870979 229.419836 
L 371.740783 229.408844 
L 373.04549 229.339959 
L 373.480392 229.365305 
L 374.132746 229.254906 
L 375.220001 229.406612 
L 375.872355 229.402322 
L 378.046866 229.000743 
L 378.481768 228.780472 
L 380.65628 228.741138 
L 381.960986 228.680435 
L 382.395889 228.799173 
L 382.61334 228.7826 
L 383.483144 229.160671 
L 384.5704 229.230931 
L 385.005302 229.306584 
L 385.657656 229.451004 
L 386.092558 229.616755 
L 386.52746 229.600698 
L 387.179814 229.711026 
L 387.397265 229.598966 
L 388.267069 229.838871 
L 389.136874 229.83977 
L 390.659032 230.220554 
L 391.311385 230.1288 
L 392.398641 230.237189 
L 393.050994 230.507469 
L 393.920799 230.484002 
L 394.355701 230.60288 
L 394.790603 230.670431 
L 395.442957 230.945328 
L 397.182566 231.255581 
L 397.400017 231.225665 
L 398.05237 231.40944 
L 398.487273 231.427635 
L 398.487273 231.427635 
" style="fill:none;stroke:#000000;stroke-linecap:square;stroke-width:1.5;"/>
   </g>
   <g id="line2d_18">
    <path clip-path="url(#pca78b3392b)" d="M 73.832727 235.069867 
L 75.572336 234.868778 
L 76.22469 234.860041 
L 77.529397 235.209779 
L 77.964299 235.100492 
L 78.616652 235.133895 
L 79.051555 235.024336 
L 81.443517 227.730589 
L 82.965675 223.722306 
L 83.618028 222.000262 
L 84.922735 218.909498 
L 85.575089 217.450703 
L 87.7496 212.166204 
L 88.619404 209.89824 
L 89.489209 208.413869 
L 89.70666 208.221728 
L 90.359014 206.847546 
L 91.228818 204.374563 
L 92.750976 200.176466 
L 92.968427 199.763779 
L 93.185878 197.905599 
L 93.403329 198.471224 
L 93.620781 196.013841 
L 93.838232 197.183222 
L 94.273134 192.791851 
L 94.490585 192.964555 
L 94.708036 185.828301 
L 94.925487 192.894017 
L 95.36039 53.568 
L 96.012743 210.175693 
L 96.230194 227.60682 
L 96.447645 230.49196 
L 96.665097 235.439847 
L 97.099999 237.243188 
L 97.31745 238.389944 
L 97.534901 238.060119 
L 97.752352 239.592786 
L 97.969803 239.066799 
L 98.187254 239.774378 
L 98.622157 240.061149 
L 98.839608 240.528985 
L 99.057059 240.245354 
L 99.27451 240.636905 
L 99.491961 240.512105 
L 100.361766 240.65123 
L 100.579217 240.502739 
L 101.014119 240.392544 
L 101.666473 239.986121 
L 102.536277 239.407843 
L 104.058435 238.215251 
L 104.493337 237.934397 
L 105.145691 237.294022 
L 105.798044 236.535765 
L 110.364518 230.744464 
L 111.016871 229.733471 
L 112.321578 228.029216 
L 116.670601 221.34442 
L 117.540406 220.228266 
L 118.192759 219.235312 
L 120.149819 217.045363 
L 121.889428 215.092066 
L 122.759233 213.666862 
L 123.846488 212.389522 
L 124.281391 211.855652 
L 124.933744 211.334277 
L 125.586098 210.794793 
L 126.455902 209.761765 
L 126.890804 209.273927 
L 127.325707 208.703197 
L 127.760609 208.474547 
L 128.630413 207.439795 
L 129.282767 206.84561 
L 129.500218 206.856033 
L 130.370023 206.197374 
L 130.804925 205.754149 
L 131.239827 205.693172 
L 132.109632 205.56991 
L 132.544534 205.767966 
L 132.979436 205.911082 
L 133.63179 205.83695 
L 133.849241 205.643643 
L 134.066692 205.726534 
L 134.284143 205.686722 
L 134.719045 205.795274 
L 134.936496 205.618188 
L 135.58885 205.734736 
L 135.806301 205.611424 
L 136.023752 205.657772 
L 136.241203 205.86597 
L 136.676105 205.882174 
L 137.111008 206.07082 
L 137.763361 206.14782 
L 138.633166 206.668456 
L 139.720421 206.93252 
L 139.937872 207.143097 
L 140.155324 207.093388 
L 140.807677 207.420495 
L 142.112384 208.811029 
L 142.982188 209.908986 
L 143.851993 210.687617 
L 144.069444 210.807505 
L 145.809053 212.755261 
L 146.243955 213.086594 
L 147.331211 214.261429 
L 148.201016 214.603725 
L 149.07082 214.787306 
L 149.505722 214.926999 
L 150.375527 214.881675 
L 151.02788 215.049945 
L 151.245332 215.0528 
L 152.115136 215.523587 
L 153.202392 215.831862 
L 153.637294 215.888858 
L 154.072196 215.777711 
L 154.507099 215.980914 
L 154.942001 215.828228 
L 155.594354 215.917546 
L 155.811805 215.95628 
L 156.246708 215.819756 
L 156.68161 215.824559 
L 157.116512 215.887398 
L 160.378279 216.069758 
L 161.900437 216.307099 
L 162.335339 216.080159 
L 162.552791 215.792619 
L 163.205144 214.360214 
L 163.422595 214.054489 
L 164.509851 213.702556 
L 164.727302 213.800556 
L 165.162204 213.713028 
L 165.379655 213.776985 
L 166.24946 213.305354 
L 167.989069 213.165226 
L 168.20652 213.201976 
L 168.641422 213.100087 
L 169.076325 213.257489 
L 169.511227 213.088036 
L 169.946129 213.093076 
L 170.598483 212.92454 
L 171.250836 213.147882 
L 171.685738 213.146651 
L 172.120641 213.149074 
L 173.425347 213.048312 
L 173.642799 212.96922 
L 174.077701 213.127506 
L 174.295152 213.036076 
L 174.730054 213.258979 
L 175.599859 214.188762 
L 175.81731 214.23878 
L 176.252212 214.544227 
L 177.122017 214.438837 
L 177.991821 214.971253 
L 179.296528 215.382016 
L 181.036137 216.127313 
L 181.471039 216.226955 
L 182.123393 216.53418 
L 182.775746 216.613927 
L 183.4281 217.036672 
L 184.080453 217.096205 
L 184.515355 217.353678 
L 184.732806 217.439374 
L 185.167709 217.306967 
L 185.602611 217.456652 
L 186.254964 217.560559 
L 187.124769 217.747553 
L 187.777122 217.813223 
L 188.429476 218.121614 
L 188.864378 218.016619 
L 189.29928 218.076032 
L 189.734183 218.004194 
L 189.951634 218.045636 
L 190.386536 217.984655 
L 190.603987 218.004569 
L 191.038889 217.821169 
L 192.126145 217.645244 
L 192.561047 217.385936 
L 194.083205 217.156691 
L 194.300656 217.177486 
L 194.735559 216.993438 
L 197.997326 216.45008 
L 199.519484 216.627834 
L 199.736935 216.550032 
L 200.171837 216.612158 
L 200.82419 216.194309 
L 201.259093 215.98914 
L 201.911446 215.925317 
L 203.433604 215.141211 
L 203.868506 215.050425 
L 204.52086 214.650386 
L 204.738311 214.418152 
L 205.608115 214.194968 
L 206.043018 214.010482 
L 206.47792 214.225196 
L 206.912822 214.061324 
L 208.000078 213.789514 
L 209.739687 213.002012 
L 211.261845 212.858472 
L 211.696747 212.826983 
L 213.436356 212.794803 
L 214.08871 212.378184 
L 216.263221 212.123978 
L 216.698123 212.177498 
L 218.872635 213.676917 
L 219.524988 213.88512 
L 219.95989 214.095004 
L 220.177342 214.147438 
L 220.612244 214.412707 
L 221.047146 214.402218 
L 221.482048 214.578252 
L 221.916951 214.867618 
L 222.351853 214.811748 
L 225.396169 216.026256 
L 225.831071 215.940507 
L 226.265973 216.095313 
L 228.223034 216.09626 
L 228.440485 216.148544 
L 228.875387 216.492266 
L 229.310289 216.510279 
L 229.745191 216.495163 
L 230.180094 216.68334 
L 231.702252 216.734224 
L 232.354605 216.424338 
L 233.006959 216.078175 
L 233.441861 216.167516 
L 233.876763 215.98173 
L 234.311665 215.974134 
L 234.746568 215.784748 
L 235.398921 215.55955 
L 237.355981 215.088937 
L 238.225786 214.990239 
L 239.313041 214.728864 
L 239.747944 214.626069 
L 240.835199 214.509072 
L 241.270102 214.392101 
L 242.357357 214.246994 
L 242.79226 214.174289 
L 243.444613 213.979803 
L 244.096966 214.222737 
L 244.531869 214.308521 
L 245.184222 214.238915 
L 246.054027 214.120308 
L 246.488929 214.231332 
L 246.70638 214.261719 
L 248.445989 215.44078 
L 249.315794 215.819496 
L 249.750696 215.780535 
L 250.403049 215.61833 
L 250.837952 215.771826 
L 251.055403 215.793697 
L 251.490305 215.98371 
L 251.925207 216.16478 
L 252.142658 216.164163 
L 252.36011 216.323125 
L 253.229914 216.332004 
L 253.664816 216.322724 
L 254.099719 216.368444 
L 254.534621 216.462873 
L 254.752072 216.4062 
L 256.056779 216.942444 
L 257.144035 216.854884 
L 257.796388 216.891265 
L 258.23129 217.039269 
L 258.448741 217.05864 
L 258.666193 217.204537 
L 258.883644 217.179255 
L 259.318546 217.010636 
L 259.970899 217.09213 
L 260.405802 217.300614 
L 262.362862 217.09461 
L 263.015215 216.860473 
L 263.450118 216.820281 
L 264.754824 216.478572 
L 265.189727 216.502809 
L 265.624629 216.499954 
L 265.84208 216.403099 
L 266.494433 215.647588 
L 266.711885 215.656569 
L 267.146787 215.364601 
L 267.581689 215.375459 
L 268.234043 215.407006 
L 268.668945 215.100204 
L 269.103847 215.137687 
L 269.973652 214.679139 
L 270.843456 214.439107 
L 271.278358 214.242427 
L 271.49581 214.146226 
L 271.930712 214.114743 
L 272.365614 214.058727 
L 272.583065 213.976016 
L 272.800516 214.088948 
L 273.235419 214.038073 
L 273.887772 214.117493 
L 274.540125 214.017237 
L 274.975028 213.999014 
L 275.40993 213.892635 
L 275.844832 213.744525 
L 276.279735 213.955425 
L 276.932088 214.024704 
L 278.019344 213.981894 
L 278.671697 214.302896 
L 279.541502 214.50657 
L 280.193855 214.541175 
L 280.846208 214.815366 
L 281.716013 215.029331 
L 282.368366 215.399959 
L 282.585817 215.458683 
L 283.02072 215.340801 
L 283.455622 215.368719 
L 283.890524 215.282297 
L 284.107975 215.312322 
L 284.325427 215.182868 
L 284.760329 215.221438 
L 284.97778 215.089839 
L 285.412682 215.089675 
L 285.630133 214.972003 
L 288.239547 215.080705 
L 289.544254 214.58525 
L 289.979156 214.334619 
L 290.414058 214.30553 
L 290.631509 214.322858 
L 291.283863 214.111258 
L 291.718765 214.020177 
L 292.153667 213.960881 
L 292.806021 213.773195 
L 293.023472 213.74417 
L 293.458374 213.899466 
L 294.110728 213.895893 
L 294.328179 213.991198 
L 295.415434 213.929446 
L 296.50269 214.10295 
L 299.112104 221.566875 
L 299.547006 222.554984 
L 300.851713 225.750808 
L 303.243675 229.97219 
L 305.853089 233.596192 
L 307.375247 235.427055 
L 309.332307 237.190084 
L 309.767209 237.293621 
L 313.68133 239.309576 
L 314.116232 239.364655 
L 316.073292 239.832493 
L 316.943097 239.730244 
L 318.900157 240.196706 
L 319.335059 240.109689 
L 319.987413 240.277281 
L 320.422315 240.284277 
L 321.074668 240.376348 
L 321.509571 240.46596 
L 323.031729 240.619457 
L 323.24918 240.705081 
L 323.684082 240.696956 
L 323.901533 240.737081 
L 325.858593 240.155643 
L 326.293496 240.066349 
L 326.728398 240.00216 
L 327.380751 239.918278 
L 328.033105 239.826889 
L 329.12036 239.600195 
L 330.207616 239.270485 
L 331.077421 239.251587 
L 332.599579 238.948241 
L 333.034481 238.921669 
L 334.556639 238.796167 
L 335.426443 238.801735 
L 337.166052 238.571295 
L 337.383504 238.527934 
L 337.818406 238.645335 
L 339.340564 238.491368 
L 340.210368 238.383575 
L 341.515075 238.360729 
L 343.037233 238.00298 
L 343.472135 237.870861 
L 343.689587 237.884721 
L 344.34194 237.61093 
L 347.603707 237.169806 
L 348.038609 237.114837 
L 348.473512 237.128898 
L 349.125865 237.117734 
L 350.648023 237.134676 
L 352.387632 237.251901 
L 352.822534 237.160919 
L 353.474888 237.053561 
L 354.127241 236.866626 
L 354.344692 236.823298 
L 354.562143 236.948731 
L 355.649399 236.872246 
L 355.86685 236.909369 
L 356.736655 236.420033 
L 357.171557 236.332184 
L 357.82391 236.068138 
L 358.041362 236.095852 
L 359.780971 235.503527 
L 360.215873 235.398383 
L 360.650775 235.211878 
L 362.390384 234.651383 
L 362.825286 234.538616 
L 364.347444 233.974458 
L 364.999798 233.697949 
L 365.869602 233.691313 
L 366.521956 233.551027 
L 368.696467 233.062735 
L 369.566272 233.00298 
L 370.218625 232.933098 
L 370.653527 232.918641 
L 372.175685 232.668877 
L 373.262941 232.529359 
L 373.697843 232.471432 
L 374.785099 232.491947 
L 375.437452 232.476724 
L 378.046866 232.703981 
L 378.481768 232.786456 
L 378.916671 232.72365 
L 380.221377 232.976111 
L 381.308633 233.303995 
L 381.743535 233.33085 
L 382.395889 233.448634 
L 383.483144 233.436417 
L 383.918047 233.466987 
L 384.5704 233.149273 
L 385.222753 233.222802 
L 387.397265 233.211364 
L 388.701972 233.402682 
L 390.659032 233.321093 
L 391.528836 233.47895 
L 392.833543 233.592505 
L 394.13825 233.436286 
L 395.442957 233.373075 
L 395.877859 233.372247 
L 396.747664 233.131591 
L 397.617468 232.986556 
L 398.269822 233.130783 
L 398.487273 233.169935 
L 398.487273 233.169935 
" style="fill:none;stroke:#000000;stroke-linecap:square;stroke-width:1.5;"/>
   </g>
   <g id="patch_3">
    <path d="M 57.6 307.584 
L 57.6 41.472 
" style="fill:none;stroke:#000000;stroke-linecap:square;stroke-linejoin:miter;stroke-width:0.8;"/>
   </g>
   <g id="patch_4">
    <path d="M 414.72 307.584 
L 414.72 41.472 
" style="fill:none;stroke:#000000;stroke-linecap:square;stroke-linejoin:miter;stroke-width:0.8;"/>
   </g>
   <g id="patch_5">
    <path d="M 57.6 307.584 
L 414.72 307.584 
" style="fill:none;stroke:#000000;stroke-linecap:square;stroke-linejoin:miter;stroke-width:0.8;"/>
   </g>
   <g id="patch_6">
    <path d="M 57.6 41.472 
L 414.72 41.472 
" style="fill:none;stroke:#000000;stroke-linecap:square;stroke-linejoin:miter;stroke-width:0.8;"/>
   </g>
  </g>
 </g>
 <defs>
  <clipPath id="pca78b3392b">
   <rect height="266.112" width="357.12" x="57.6" y="41.472"/>
  </clipPath>
 </defs>
</svg>
