<?xml version="1.0" encoding="utf-8" standalone="no"?>
<!DOCTYPE svg PUBLIC "-//W3C//DTD SVG 1.1//EN"
  "http://www.w3.org/Graphics/SVG/1.1/DTD/svg11.dtd">
<svg xmlns:xlink="http://www.w3.org/1999/xlink" width="268.997078pt" height="197.398125pt" viewBox="0 0 268.997078 197.398125" xmlns="http://www.w3.org/2000/svg" version="1.1">
 <metadata>
  <rdf:RDF xmlns:dc="http://purl.org/dc/elements/1.1/" xmlns:cc="http://creativecommons.org/ns#" xmlns:rdf="http://www.w3.org/1999/02/22-rdf-syntax-ns#">
   <cc:Work>
    <dc:type rdf:resource="http://purl.org/dc/dcmitype/StillImage"/>
    <dc:date>2024-09-14T19:13:39.009159</dc:date>
    <dc:format>image/svg+xml</dc:format>
    <dc:creator>
     <cc:Agent>
      <dc:title>Matplotlib v3.9.2, https://matplotlib.org/</dc:title>
     </cc:Agent>
    </dc:creator>
   </cc:Work>
  </rdf:RDF>
 </metadata>
 <defs>
  <style type="text/css">*{stroke-linejoin: round; stroke-linecap: butt}</style>
 </defs>
 <g id="figure_1">
  <g id="patch_1">
   <path d="M 0 197.398125 
L 268.997078 197.398125 
L 268.997078 0 
L 0 0 
z
" style="fill: #ffffff"/>
  </g>
  <g id="axes_1">
   <g id="patch_2">
    <path d="M 35.304688 173.52 
L 258.504687 173.52 
L 258.504687 7.2 
L 35.304688 7.2 
z
" style="fill: #ffffff"/>
   </g>
   <g id="matplotlib.axis_1">
    <g id="xtick_1">
     <g id="line2d_1">
      <defs>
       <path id="m064774151b" d="M 0 0 
L 0 3.5 
" style="stroke: #000000; stroke-width: 0.8"/>
      </defs>
      <g>
       <use xlink:href="#m064774151b" x="89.322852" y="173.52" style="stroke: #000000; stroke-width: 0.8"/>
      </g>
     </g>
     <g id="text_1">
      <!-- 1.0 -->
      <g transform="translate(81.37129 188.118438) scale(0.1 -0.1)">
       <defs>
        <path id="DejaVuSans-31" d="M 794 531 
L 1825 531 
L 1825 4091 
L 703 3866 
L 703 4441 
L 1819 4666 
L 2450 4666 
L 2450 531 
L 3481 531 
L 3481 0 
L 794 0 
L 794 531 
z
" transform="scale(0.015625)"/>
        <path id="DejaVuSans-2e" d="M 684 794 
L 1344 794 
L 1344 0 
L 684 0 
L 684 794 
z
" transform="scale(0.015625)"/>
        <path id="DejaVuSans-30" d="M 2034 4250 
Q 1547 4250 1301 3770 
Q 1056 3291 1056 2328 
Q 1056 1369 1301 889 
Q 1547 409 2034 409 
Q 2525 409 2770 889 
Q 3016 1369 3016 2328 
Q 3016 3291 2770 3770 
Q 2525 4250 2034 4250 
z
M 2034 4750 
Q 2819 4750 3233 4129 
Q 3647 3509 3647 2328 
Q 3647 1150 3233 529 
Q 2819 -91 2034 -91 
Q 1250 -91 836 529 
Q 422 1150 422 2328 
Q 422 3509 836 4129 
Q 1250 4750 2034 4750 
z
" transform="scale(0.015625)"/>
       </defs>
       <use xlink:href="#DejaVuSans-31"/>
       <use xlink:href="#DejaVuSans-2e" x="63.623047"/>
       <use xlink:href="#DejaVuSans-30" x="95.410156"/>
      </g>
     </g>
    </g>
    <g id="xtick_2">
     <g id="line2d_2">
      <g>
       <use xlink:href="#m064774151b" x="144.16374" y="173.52" style="stroke: #000000; stroke-width: 0.8"/>
      </g>
     </g>
     <g id="text_2">
      <!-- 1.5 -->
      <g transform="translate(136.212177 188.118438) scale(0.1 -0.1)">
       <defs>
        <path id="DejaVuSans-35" d="M 691 4666 
L 3169 4666 
L 3169 4134 
L 1269 4134 
L 1269 2991 
Q 1406 3038 1543 3061 
Q 1681 3084 1819 3084 
Q 2600 3084 3056 2656 
Q 3513 2228 3513 1497 
Q 3513 744 3044 326 
Q 2575 -91 1722 -91 
Q 1428 -91 1123 -41 
Q 819 9 494 109 
L 494 744 
Q 775 591 1075 516 
Q 1375 441 1709 441 
Q 2250 441 2565 725 
Q 2881 1009 2881 1497 
Q 2881 1984 2565 2268 
Q 2250 2553 1709 2553 
Q 1456 2553 1204 2497 
Q 953 2441 691 2322 
L 691 4666 
z
" transform="scale(0.015625)"/>
       </defs>
       <use xlink:href="#DejaVuSans-31"/>
       <use xlink:href="#DejaVuSans-2e" x="63.623047"/>
       <use xlink:href="#DejaVuSans-35" x="95.410156"/>
      </g>
     </g>
    </g>
    <g id="xtick_3">
     <g id="line2d_3">
      <g>
       <use xlink:href="#m064774151b" x="199.004628" y="173.52" style="stroke: #000000; stroke-width: 0.8"/>
      </g>
     </g>
     <g id="text_3">
      <!-- 2.0 -->
      <g transform="translate(191.053065 188.118438) scale(0.1 -0.1)">
       <defs>
        <path id="DejaVuSans-32" d="M 1228 531 
L 3431 531 
L 3431 0 
L 469 0 
L 469 531 
Q 828 903 1448 1529 
Q 2069 2156 2228 2338 
Q 2531 2678 2651 2914 
Q 2772 3150 2772 3378 
Q 2772 3750 2511 3984 
Q 2250 4219 1831 4219 
Q 1534 4219 1204 4116 
Q 875 4013 500 3803 
L 500 4441 
Q 881 4594 1212 4672 
Q 1544 4750 1819 4750 
Q 2544 4750 2975 4387 
Q 3406 4025 3406 3419 
Q 3406 3131 3298 2873 
Q 3191 2616 2906 2266 
Q 2828 2175 2409 1742 
Q 1991 1309 1228 531 
z
" transform="scale(0.015625)"/>
       </defs>
       <use xlink:href="#DejaVuSans-32"/>
       <use xlink:href="#DejaVuSans-2e" x="63.623047"/>
       <use xlink:href="#DejaVuSans-30" x="95.410156"/>
      </g>
     </g>
    </g>
    <g id="xtick_4">
     <g id="line2d_4">
      <g>
       <use xlink:href="#m064774151b" x="253.845515" y="173.52" style="stroke: #000000; stroke-width: 0.8"/>
      </g>
     </g>
     <g id="text_4">
      <!-- 2.5 -->
      <g transform="translate(245.893953 188.118438) scale(0.1 -0.1)">
       <use xlink:href="#DejaVuSans-32"/>
       <use xlink:href="#DejaVuSans-2e" x="63.623047"/>
       <use xlink:href="#DejaVuSans-35" x="95.410156"/>
      </g>
     </g>
    </g>
   </g>
   <g id="matplotlib.axis_2">
    <g id="ytick_1">
     <g id="line2d_5">
      <defs>
       <path id="meec2c9de58" d="M 0 0 
L -3.5 0 
" style="stroke: #000000; stroke-width: 0.8"/>
      </defs>
      <g>
       <use xlink:href="#meec2c9de58" x="35.304688" y="170.268759" style="stroke: #000000; stroke-width: 0.8"/>
      </g>
     </g>
     <g id="text_5">
      <!-- −80 -->
      <g transform="translate(7.2 174.067977) scale(0.1 -0.1)">
       <defs>
        <path id="DejaVuSans-2212" d="M 678 2272 
L 4684 2272 
L 4684 1741 
L 678 1741 
L 678 2272 
z
" transform="scale(0.015625)"/>
        <path id="DejaVuSans-38" d="M 2034 2216 
Q 1584 2216 1326 1975 
Q 1069 1734 1069 1313 
Q 1069 891 1326 650 
Q 1584 409 2034 409 
Q 2484 409 2743 651 
Q 3003 894 3003 1313 
Q 3003 1734 2745 1975 
Q 2488 2216 2034 2216 
z
M 1403 2484 
Q 997 2584 770 2862 
Q 544 3141 544 3541 
Q 544 4100 942 4425 
Q 1341 4750 2034 4750 
Q 2731 4750 3128 4425 
Q 3525 4100 3525 3541 
Q 3525 3141 3298 2862 
Q 3072 2584 2669 2484 
Q 3125 2378 3379 2068 
Q 3634 1759 3634 1313 
Q 3634 634 3220 271 
Q 2806 -91 2034 -91 
Q 1263 -91 848 271 
Q 434 634 434 1313 
Q 434 1759 690 2068 
Q 947 2378 1403 2484 
z
M 1172 3481 
Q 1172 3119 1398 2916 
Q 1625 2713 2034 2713 
Q 2441 2713 2670 2916 
Q 2900 3119 2900 3481 
Q 2900 3844 2670 4047 
Q 2441 4250 2034 4250 
Q 1625 4250 1398 4047 
Q 1172 3844 1172 3481 
z
" transform="scale(0.015625)"/>
       </defs>
       <use xlink:href="#DejaVuSans-2212"/>
       <use xlink:href="#DejaVuSans-38" x="83.789062"/>
       <use xlink:href="#DejaVuSans-30" x="147.412109"/>
      </g>
     </g>
    </g>
    <g id="ytick_2">
     <g id="line2d_6">
      <g>
       <use xlink:href="#meec2c9de58" x="35.304688" y="146.537154" style="stroke: #000000; stroke-width: 0.8"/>
      </g>
     </g>
     <g id="text_6">
      <!-- −60 -->
      <g transform="translate(7.2 150.336373) scale(0.1 -0.1)">
       <defs>
        <path id="DejaVuSans-36" d="M 2113 2584 
Q 1688 2584 1439 2293 
Q 1191 2003 1191 1497 
Q 1191 994 1439 701 
Q 1688 409 2113 409 
Q 2538 409 2786 701 
Q 3034 994 3034 1497 
Q 3034 2003 2786 2293 
Q 2538 2584 2113 2584 
z
M 3366 4563 
L 3366 3988 
Q 3128 4100 2886 4159 
Q 2644 4219 2406 4219 
Q 1781 4219 1451 3797 
Q 1122 3375 1075 2522 
Q 1259 2794 1537 2939 
Q 1816 3084 2150 3084 
Q 2853 3084 3261 2657 
Q 3669 2231 3669 1497 
Q 3669 778 3244 343 
Q 2819 -91 2113 -91 
Q 1303 -91 875 529 
Q 447 1150 447 2328 
Q 447 3434 972 4092 
Q 1497 4750 2381 4750 
Q 2619 4750 2861 4703 
Q 3103 4656 3366 4563 
z
" transform="scale(0.015625)"/>
       </defs>
       <use xlink:href="#DejaVuSans-2212"/>
       <use xlink:href="#DejaVuSans-36" x="83.789062"/>
       <use xlink:href="#DejaVuSans-30" x="147.412109"/>
      </g>
     </g>
    </g>
    <g id="ytick_3">
     <g id="line2d_7">
      <g>
       <use xlink:href="#meec2c9de58" x="35.304688" y="122.805549" style="stroke: #000000; stroke-width: 0.8"/>
      </g>
     </g>
     <g id="text_7">
      <!-- −40 -->
      <g transform="translate(7.2 126.604768) scale(0.1 -0.1)">
       <defs>
        <path id="DejaVuSans-34" d="M 2419 4116 
L 825 1625 
L 2419 1625 
L 2419 4116 
z
M 2253 4666 
L 3047 4666 
L 3047 1625 
L 3713 1625 
L 3713 1100 
L 3047 1100 
L 3047 0 
L 2419 0 
L 2419 1100 
L 313 1100 
L 313 1709 
L 2253 4666 
z
" transform="scale(0.015625)"/>
       </defs>
       <use xlink:href="#DejaVuSans-2212"/>
       <use xlink:href="#DejaVuSans-34" x="83.789062"/>
       <use xlink:href="#DejaVuSans-30" x="147.412109"/>
      </g>
     </g>
    </g>
    <g id="ytick_4">
     <g id="line2d_8">
      <g>
       <use xlink:href="#meec2c9de58" x="35.304688" y="99.073944" style="stroke: #000000; stroke-width: 0.8"/>
      </g>
     </g>
     <g id="text_8">
      <!-- −20 -->
      <g transform="translate(7.2 102.873163) scale(0.1 -0.1)">
       <use xlink:href="#DejaVuSans-2212"/>
       <use xlink:href="#DejaVuSans-32" x="83.789062"/>
       <use xlink:href="#DejaVuSans-30" x="147.412109"/>
      </g>
     </g>
    </g>
    <g id="ytick_5">
     <g id="line2d_9">
      <g>
       <use xlink:href="#meec2c9de58" x="35.304688" y="75.342339" style="stroke: #000000; stroke-width: 0.8"/>
      </g>
     </g>
     <g id="text_9">
      <!-- 0 -->
      <g transform="translate(21.942187 79.141558) scale(0.1 -0.1)">
       <use xlink:href="#DejaVuSans-30"/>
      </g>
     </g>
    </g>
    <g id="ytick_6">
     <g id="line2d_10">
      <g>
       <use xlink:href="#meec2c9de58" x="35.304688" y="51.610734" style="stroke: #000000; stroke-width: 0.8"/>
      </g>
     </g>
     <g id="text_10">
      <!-- 20 -->
      <g transform="translate(15.579687 55.409953) scale(0.1 -0.1)">
       <use xlink:href="#DejaVuSans-32"/>
       <use xlink:href="#DejaVuSans-30" x="63.623047"/>
      </g>
     </g>
    </g>
    <g id="ytick_7">
     <g id="line2d_11">
      <g>
       <use xlink:href="#meec2c9de58" x="35.304688" y="27.87913" style="stroke: #000000; stroke-width: 0.8"/>
      </g>
     </g>
     <g id="text_11">
      <!-- 40 -->
      <g transform="translate(15.579687 31.678348) scale(0.1 -0.1)">
       <use xlink:href="#DejaVuSans-34"/>
       <use xlink:href="#DejaVuSans-30" x="63.623047"/>
      </g>
     </g>
    </g>
   </g>
   <g id="line2d_12">
    <path d="M 45.450142 160.627803 
L 45.463304 160.731631 
L 45.520338 160.62038 
L 45.55763 160.635208 
L 45.562017 160.531381 
L 45.621246 160.709379 
L 45.667312 160.65746 
L 45.7748 160.598128 
L 45.759445 160.709379 
L 45.779187 160.650046 
L 45.891063 160.568462 
L 45.820866 160.687127 
L 45.893256 160.635208 
L 45.932742 160.739045 
L 45.970034 160.598128 
L 46.007325 160.701955 
L 46.110426 160.568462 
L 46.053392 160.731631 
L 46.121395 160.635208 
L 46.228883 160.679703 
L 46.171848 160.575876 
L 46.235464 160.650046 
L 46.270562 160.598128 
L 46.331984 160.701955 
L 46.345145 160.642623 
L 46.384631 160.709379 
L 46.408761 160.598128 
L 46.457021 160.65746 
L 46.54696 160.605551 
L 46.531604 160.709379 
L 46.573283 160.627803 
L 46.636899 160.709379 
L 46.603994 160.590714 
L 46.682965 160.65746 
L 46.768517 160.561056 
L 46.783872 160.709379 
L 46.792647 160.650046 
L 46.897941 160.724198 
L 46.873811 160.590714 
L 46.904522 160.65746 
L 47.012011 160.546219 
L 47.025172 160.62038 
L 47.049302 160.716793 
L 47.112918 160.568462 
L 47.139241 160.65746 
L 47.275247 160.538804 
L 47.284021 160.553633 
L 47.389316 160.672298 
L 47.39809 160.62038 
L 47.448544 160.553633 
L 47.488029 160.65746 
L 47.509966 160.568462 
L 47.573581 160.679703 
L 47.536289 160.538804 
L 47.624035 160.627803 
L 48.791049 160.523967 
L 48.795436 160.501715 
L 48.865633 160.627803 
L 48.89415 160.568462 
L 48.916086 160.605551 
L 48.948991 160.45722 
L 49.001638 160.546219 
L 49.095964 160.509138 
L 49.043317 160.62038 
L 49.104739 160.583308 
L 49.172742 160.65746 
L 49.210033 160.538804 
L 49.212227 160.538804 
L 49.251712 160.627803 
L 49.271455 160.486886 
L 49.326296 160.575876 
L 49.40088 160.472066 
L 49.354813 160.605551 
L 49.444752 160.531381 
L 49.543466 160.472066 
L 49.45572 160.583308 
L 49.554434 160.538804 
L 49.563209 160.598128 
L 49.598307 160.486886 
L 49.666309 160.568462 
L 49.74528 160.479472 
L 49.699214 160.627803 
L 49.773798 160.590714 
L 49.868124 160.605551 
L 49.852769 160.509138 
L 49.876899 160.575876 
L 49.920771 160.538804 
L 49.93832 160.65746 
L 49.98658 160.590714 
L 50.056777 160.538804 
L 50.076519 160.650046 
L 50.089681 160.62038 
L 50.181814 160.65746 
L 50.159877 160.546219 
L 50.190588 160.568462 
L 50.27614 160.486886 
L 50.205944 160.65746 
L 50.298077 160.62038 
L 50.34853 160.65746 
L 50.337562 160.516561 
L 50.398984 160.568462 
L 50.486729 160.523967 
L 50.453825 160.635208 
L 50.508666 160.561056 
L 50.515246 160.635208 
L 50.587636 160.479472 
L 50.616154 160.523967 
L 50.660026 160.538804 
L 50.679769 160.434977 
L 50.717061 160.45722 
L 50.800419 160.360824 
L 50.723642 160.509138 
L 50.844292 160.405319 
L 50.918875 160.479472 
L 50.868422 160.390473 
L 50.958361 160.449814 
L 50.995653 160.375644 
L 51.013202 160.486886 
L 51.068043 160.434977 
L 51.182112 160.486886 
L 51.094366 160.338572 
L 51.184305 160.472066 
L 51.225984 160.360824 
L 51.197467 160.494309 
L 51.298374 160.390473 
L 51.427799 160.486886 
L 51.43438 160.464634 
L 51.539674 160.420139 
L 51.445348 160.516561 
L 51.552836 160.442391 
L 51.660324 160.531381 
L 51.594515 160.412725 
L 51.664711 160.509138 
L 51.702003 160.434977 
L 51.684454 160.546219 
L 51.7722 160.494309 
L 51.805104 160.449814 
L 51.884075 160.538804 
L 51.921367 160.420139 
L 51.99595 160.494309 
L 52.011306 160.538804 
L 52.031049 160.427562 
L 52.107826 160.516561 
L 52.142924 160.405319 
L 52.156086 160.546219 
L 52.221895 160.45722 
L 52.230669 160.538804 
L 52.30964 160.420139 
L 52.33377 160.486886 
L 52.362288 160.390473 
L 52.384224 160.523967 
L 52.450033 160.479472 
L 52.849275 160.420139 
L 52.851468 160.368239 
L 52.945795 160.516561 
L 52.958956 160.442391 
L 53.064251 160.516561 
L 52.994055 160.383067 
L 53.073025 160.479472 
L 53.158577 160.531381 
L 53.097155 160.405319 
L 53.173933 160.472066 
L 53.27484 160.390473 
L 53.233161 160.509138 
L 53.288002 160.405319 
L 53.375747 160.375644 
L 53.415233 160.509138 
L 53.549044 160.383067 
L 53.557819 160.390473 
L 53.671888 160.501715 
L 53.566593 160.360824 
L 53.674082 160.442391 
L 53.785957 160.383067 
L 53.739891 160.509138 
L 53.788151 160.405319 
L 53.8057 160.509138 
L 53.900026 160.479472 
L 53.919769 160.383067 
L 53.921962 160.338572 
L 53.987771 160.501715 
L 54.029451 160.405319 
L 54.147907 160.368239 
L 54.086485 160.464634 
L 54.1501 160.375644 
L 54.261976 160.45722 
L 54.242233 160.338572 
L 54.272944 160.434977 
L 54.382626 160.338572 
L 54.321204 160.472066 
L 54.389207 160.368239 
L 54.408949 160.472066 
L 54.444048 160.31632 
L 54.501082 160.383067 
L 54.553729 160.286654 
L 54.562504 160.420139 
L 54.610764 160.383067 
L 54.924454 160.286654 
L 54.926647 160.264402 
L 54.974907 160.420139 
L 55.023167 160.390473 
L 55.117494 160.420139 
L 55.102138 160.27924 
L 55.126268 160.353392 
L 55.132849 160.301492 
L 55.222788 160.434977 
L 55.233756 160.397896 
L 55.290791 160.294078 
L 55.244725 160.449814 
L 55.347825 160.368239 
L 55.367568 160.45722 
L 55.431184 160.338572 
L 55.457507 160.338572 
L 55.567189 160.397896 
L 55.540865 160.286654 
L 55.571576 160.353392 
L 55.650547 160.308897 
L 55.654934 160.390473 
L 55.683452 160.331149 
L 55.749261 160.420139 
L 55.71855 160.301492 
L 55.795327 160.375644 
L 55.872104 160.301492 
L 55.894041 160.420139 
L 55.905009 160.353392 
L 56.010303 160.420139 
L 55.962043 160.308897 
L 56.016884 160.397896 
L 56.095855 160.405319 
L 56.062951 160.271826 
L 56.115598 160.360824 
L 56.218699 160.331149 
L 56.212118 160.427562 
L 56.223086 160.375644 
L 56.282314 160.412725 
L 56.291089 160.308897 
L 56.330574 160.345987 
L 56.444643 160.286654 
L 56.396383 160.397896 
L 56.446837 160.301492 
L 56.503871 160.412725 
L 56.528001 160.286654 
L 56.5631 160.338572 
L 56.672781 160.286654 
L 56.596004 160.397896 
L 56.674975 160.301492 
L 56.736397 160.397896 
L 56.78685 160.353392 
L 56.839498 160.256997 
L 56.900919 160.397896 
L 56.933824 160.323744 
L 57.001827 160.420139 
L 57.012795 160.390473 
L 57.350615 160.301492 
L 57.352808 160.271826 
L 57.412036 160.427562 
L 57.453716 160.353392 
L 57.545848 160.442391 
L 57.515137 160.31632 
L 57.563397 160.397896 
L 57.576559 160.449814 
L 57.677466 160.301492 
L 57.741082 160.412725 
L 57.732307 160.286654 
L 57.793729 160.338572 
L 57.846376 160.286654 
L 57.817859 160.405319 
L 57.905604 160.323744 
L 57.942896 160.383067 
L 57.984575 160.271826 
L 58.013093 160.27924 
L 58.21052 160.383067 
L 58.212713 160.405319 
L 58.254393 160.256997 
L 58.315814 160.338572 
L 58.344332 160.301492 
L 58.357493 160.420139 
L 58.425496 160.360824 
L 58.469369 160.264402 
L 58.486918 160.420139 
L 58.539565 160.31632 
L 58.594406 160.427562 
L 58.653634 160.353392 
L 58.664602 160.301492 
L 58.750154 160.464634 
L 58.761122 160.405319 
L 58.86203 160.331149 
L 58.79622 160.449814 
L 58.870804 160.412725 
L 58.978292 160.501715 
L 58.919064 160.360824 
L 58.993648 160.472066 
L 59.050682 160.390473 
L 59.101136 160.494309 
L 59.151589 160.509138 
L 59.160364 160.383067 
L 59.195462 160.390473 
L 59.226173 160.390473 
L 59.274433 160.472066 
L 59.276627 160.516561 
L 59.379728 160.375644 
L 59.390696 160.45722 
L 59.454311 160.538804 
L 59.441149 160.390473 
L 59.502571 160.486886 
L 59.594704 160.390473 
L 59.599091 160.353392 
L 59.631996 160.612956 
L 59.695611 160.486886 
L 59.805293 160.546219 
L 59.708773 160.412725 
L 59.807486 160.531381 
L 59.868908 160.449814 
L 59.827229 160.575876 
L 59.921555 160.494309 
L 60.013688 160.420139 
L 59.969815 160.523967 
L 60.033431 160.472066 
L 60.744169 160.553633 
L 60.84727 160.575876 
L 60.772686 160.427562 
L 60.851657 160.538804 
L 60.915272 160.472066 
L 60.873593 160.598128 
L 60.959145 160.568462 
L 61.04031 160.45722 
L 60.985469 160.583308 
L 61.077601 160.553633 
L 61.139023 160.62038 
L 61.128055 160.523967 
L 61.187283 160.590714 
L 61.270641 160.479472 
L 61.196058 160.598128 
L 61.301352 160.523967 
L 61.33645 160.486886 
L 61.323289 160.575876 
L 61.40884 160.538804 
L 61.415421 160.612956 
L 61.443939 160.479472 
L 61.520716 160.605551 
L 61.566782 160.501715 
L 61.593106 160.62038 
L 61.636978 160.546219 
L 61.702788 160.62038 
L 61.683045 160.464634 
L 61.751048 160.598128 
L 61.775178 160.45722 
L 61.865117 160.561056 
L 61.908989 160.561056 
L 61.922151 160.842873 
L 62.027446 150.76435 
L 62.299456 118.711846 
L 62.330167 14.76 
L 62.420106 83.945047 
L 62.599984 130.384836 
L 62.632889 130.748219 
L 62.698698 130.229094 
L 62.891738 127.729854 
L 62.924643 127.255229 
L 63.148393 119.067824 
L 63.207621 43.1341 
L 63.312916 77.018384 
L 63.602476 124.511263 
L 63.859131 129.272412 
L 63.867906 129.24275 
L 63.874487 129.138918 
L 63.953458 129.346573 
L 63.984168 129.16117 
L 63.992943 129.25016 
L 64.060946 128.857106 
L 64.392185 125.134214 
L 64.411927 125.060053 
L 64.545739 117.651341 
L 64.607161 41.035335 
L 64.708068 70.744341 
L 65.045888 120.721615 
L 65.278413 124.830155 
L 65.486809 126.513617 
L 65.489002 126.506193 
L 65.524101 126.758343 
L 65.717141 127.633446 
L 65.719334 127.626036 
L 65.74127 127.551874 
L 65.800499 127.885596 
L 65.81366 127.841096 
L 65.866308 128.026499 
L 65.92773 127.922681 
L 66.107608 127.403547 
L 65.949666 127.944928 
L 66.109801 127.433209 
L 66.114189 127.492542 
L 66.197547 126.988242 
L 66.19974 127.010494 
L 66.217289 127.069826 
L 66.258968 126.839924 
L 66.265549 126.847338 
L 66.452008 125.7275 
L 66.462977 125.638515 
L 66.75473 120.284066 
L 66.781054 98.836627 
L 66.822733 38.187541 
L 66.917059 66.680303 
L 67.26146 120.321147 
L 67.564182 126.172472 
L 67.572956 126.165053 
L 67.62341 126.721267 
L 67.759415 127.551874 
L 67.76819 127.537041 
L 67.904195 128.085836 
L 67.923938 128.004252 
L 67.932712 127.952343 
L 68.00949 128.159998 
L 68.016071 128.130331 
L 68.119171 128.419558 
L 68.020458 128.108084 
L 68.147689 128.278649 
L 68.261758 128.115494 
L 68.1784 128.367648 
L 68.288081 128.182245 
L 68.303437 128.256402 
L 68.347309 128.011675 
L 68.349503 128.026499 
L 68.380214 128.159998 
L 68.487702 127.744692 
L 68.489896 127.759525 
L 68.540349 127.433209 
L 68.54693 127.433209 
L 68.687323 126.839924 
L 68.69171 126.847338 
L 68.696098 126.854752 
L 68.746551 126.291133 
L 68.88475 125.475359 
L 68.915461 125.497607 
L 68.917655 125.512435 
L 68.95714 125.097129 
L 68.961527 125.097129 
L 69.156761 120.343399 
L 69.185278 92.110201 
L 69.220376 36.45217 
L 69.310315 65.352817 
L 69.615231 119.09749 
L 69.880661 125.93516 
L 70.150478 128.078413 
L 70.152672 128.070999 
L 70.200931 128.286064 
L 70.203125 128.278649 
L 70.277709 128.471467 
L 70.2119 128.263816 
L 70.319388 128.300897 
L 70.325969 128.278649 
L 70.398359 128.538214 
L 70.407133 128.538214 
L 70.521202 128.723617 
L 70.422489 128.501138 
L 70.536558 128.619794 
L 70.567269 128.501138 
L 70.595786 128.664293 
L 70.648433 128.604961 
L 70.786632 128.256402 
L 70.659401 128.679127 
L 70.788826 128.293487 
L 70.793213 128.330563 
L 70.856829 127.900433 
L 70.872184 127.922681 
L 71.047675 126.86959 
L 71.056449 126.936337 
L 71.060837 126.943747 
L 71.155163 126.224381 
L 71.729895 119.401545 
L 71.756219 99.934215 
L 71.797898 37.023213 
L 71.894418 66.442987 
L 72.223463 120.298899 
L 72.460376 126.31338 
L 72.811358 128.760702 
L 72.815745 128.664293 
L 72.885941 128.975767 
L 72.912265 128.946101 
L 72.971493 129.04251 
L 73.083369 129.213084 
L 73.019753 128.998015 
L 73.087756 129.094428 
L 73.111886 129.257584 
L 73.219374 128.857106 
L 73.228148 128.946101 
L 73.293958 128.671703 
L 73.304926 128.70137 
L 73.370735 128.78295 
L 73.43435 128.501138 
L 73.473836 128.434391 
L 73.592292 128.078413 
L 73.598873 128.085836 
L 73.84456 126.65452 
L 73.848947 126.676772 
L 73.851141 126.69902 
L 73.923531 126.32079 
L 73.936693 126.328214 
L 74.267932 123.168936 
L 74.333741 121.374242 
L 74.355677 117.206378 
L 74.412712 35.984955 
L 74.524587 69.861821 
L 74.847051 120.92927 
L 75.103707 126.86959 
L 75.15416 127.410966 
L 75.316489 128.849697 
L 75.32307 128.78295 
L 75.325264 128.768112 
L 75.399848 128.998015 
L 75.557789 129.724799 
L 75.562177 129.687713 
L 75.676246 129.821207 
L 75.610437 129.58389 
L 75.68502 129.732208 
L 75.742055 129.606142 
L 75.691601 129.761875 
L 75.801283 129.665466 
L 75.899997 129.761875 
L 75.915352 129.702551 
L 76.117166 128.938691 
L 75.943869 129.761875 
L 76.128135 129.012852 
L 76.130328 129.027681 
L 76.200525 128.745864 
L 76.213686 128.849697 
L 76.558087 127.166235 
L 76.676544 126.44687 
L 76.689705 126.498784 
L 76.713835 126.439451 
L 76.865196 125.349279 
L 77.110883 122.553403 
L 77.113077 122.560818 
L 77.163531 121.507727 
L 77.213984 116.909728 
L 77.271019 34.961526 
L 77.389475 71.715853 
L 77.69439 121.107254 
L 77.924722 126.402375 
L 78.532359 129.769294 
L 78.602555 129.680304 
L 78.639847 129.821207 
L 78.661784 129.887954 
L 78.716625 129.724799 
L 78.738561 129.732208 
L 78.832887 129.413316 
L 78.865792 129.435563 
L 78.946956 129.339155 
L 79.159739 128.597546 
L 78.964505 129.472649 
L 79.164126 128.619794 
L 79.16632 128.642046 
L 79.249678 128.367648 
L 79.403232 127.603788 
L 79.405426 127.611198 
L 79.409813 127.648283 
L 79.469042 126.980832 
L 79.666469 125.927736 
L 80.076679 122.419909 
L 80.223652 116.442518 
L 80.280687 35.146929 
L 80.401337 71.589779 
L 80.723801 121.648635 
L 80.949745 127.203316 
L 80.951939 127.195897 
L 80.956326 127.240392 
L 81.116462 128.73845 
L 81.456475 130.332917 
L 81.458669 130.303256 
L 81.522284 130.251342 
L 81.48938 130.407079 
L 81.56177 130.318089 
L 81.566157 130.384836 
L 81.664871 130.184599 
L 81.789908 130.065939 
L 81.792102 130.132686 
L 81.807457 130.147514 
L 81.842555 129.962111 
L 81.857911 129.976949 
L 81.993916 129.37624 
L 81.99611 129.391068 
L 82.066306 129.124094 
L 82.0685 129.138918 
L 82.204505 128.708788 
L 82.555487 127.173645 
L 82.562068 127.195897 
L 82.687105 126.595188 
L 83.130219 122.872296 
L 83.356164 114.05452 
L 83.408811 35.028273 
L 83.518493 68.43051 
L 83.825602 120.818032 
L 84.031803 126.99566 
L 84.227037 128.82003 
L 84.229231 128.790364 
L 84.231424 128.78295 
L 84.262135 129.04251 
L 84.275297 129.012852 
L 84.411302 129.665466 
L 84.428851 129.591305 
L 84.656989 130.073357 
L 84.442013 129.576472 
L 84.667958 130.028858 
L 84.773252 129.865707 
L 84.685507 130.043691 
L 84.782027 129.917612 
L 84.78422 129.925035 
L 84.83248 129.709961 
L 84.854417 129.798955 
L 84.865385 129.813793 
L 84.981648 129.561643 
L 84.988228 129.598719 
L 85.043069 129.331745 
L 85.067199 129.339155 
L 85.082555 129.353992 
L 85.24269 128.686541 
L 85.275595 128.619794 
L 85.400632 127.907843 
L 85.402826 127.952343 
L 85.672643 126.773181 
L 85.681417 126.817676 
L 85.687998 126.854752 
L 85.747226 126.454289 
L 85.756001 126.461698 
L 85.762582 126.357875 
L 85.940266 125.527273 
L 85.951234 125.534683 
L 85.955622 125.571768 
L 86.028012 125.074882 
L 86.157436 124.333274 
L 86.572033 120.773533 
L 86.640036 116.776239 
L 86.677328 60.821563 
L 86.701458 35.324918 
L 86.78701 62.327037 
L 87.078763 117.9999 
L 87.304708 125.786833 
L 87.306901 125.772 
L 87.339806 126.283714 
L 87.54162 128.523385 
L 87.543814 128.515966 
L 87.546007 128.501138 
L 87.594267 128.916439 
L 87.818018 129.724799 
L 87.820212 129.717384 
L 87.83118 129.672885 
L 87.916732 129.910202 
L 87.962798 129.991773 
L 87.986928 130.117852 
L 88.035188 129.932449 
L 88.07248 130.014025 
L 88.171194 129.925035 
L 88.116353 130.147514 
L 88.188743 129.954697 
L 88.215066 129.880535 
L 88.232615 129.902787 
L 88.333523 129.672885 
L 88.335716 129.695132 
L 88.425655 129.487482 
L 88.451979 129.413316 
L 88.533143 129.227913 
L 88.465141 129.435563 
L 88.568242 129.25016 
L 88.574823 129.316907 
L 89.066197 127.195897 
L 89.072778 127.21073 
L 89.25485 126.14281 
L 89.730868 122.175178 
L 89.827388 117.020975 
L 89.884423 34.92445 
L 90.020428 74.133511 
L 90.338505 122.50149 
L 90.628065 128.649456 
L 90.630259 128.642046 
L 90.634646 128.590132 
L 90.735553 129.37624 
L 90.867172 130.088191 
L 90.996596 130.466411 
L 90.99879 130.451574 
L 91.005371 130.384836 
L 91.068986 130.614729 
L 91.104084 130.488659 
L 91.220347 130.688895 
L 91.108472 130.473821 
L 91.24009 130.607315 
L 91.330029 130.39966 
L 91.266413 130.614729 
L 91.358546 130.421912 
L 91.474809 130.214257 
L 91.479196 130.236513 
L 91.48797 130.258761 
L 92.154836 127.596369 
L 92.304003 126.535864 
L 92.321552 126.432037 
L 92.799764 122.694312 
L 92.826088 122.590479 
L 92.916027 121.240748 
L 92.977449 117.176712 
L 93.016934 53.880067 
L 93.036677 35.05052 
L 93.124423 61.815324 
L 93.46663 120.803199 
L 93.73206 127.626036 
L 93.982134 129.509729 
L 93.984328 129.50231 
L 94.030394 129.687713 
L 94.036975 129.687713 
L 94.162012 130.229094 
L 94.203691 130.132686 
L 94.251951 130.288418 
L 94.278275 130.192009 
L 94.352858 130.154933 
L 94.401118 130.347755 
L 94.493251 130.184599 
L 94.464734 130.384836 
L 94.517381 130.281008 
L 94.613901 130.177176 
L 94.745519 129.865707 
L 94.7521 129.880535 
L 94.787198 129.932449 
L 94.833265 129.769294 
L 94.927591 129.480063 
L 94.964883 129.554224 
L 94.982432 129.457815 
L 95.193021 128.753288 
L 95.195214 128.760702 
L 95.197408 128.775535 
L 95.261024 128.47889 
L 95.267604 128.523385 
L 95.480387 127.47029 
L 95.491355 127.529627 
L 95.526453 127.321972 
L 95.533034 127.3368 
L 95.664652 126.550693 
L 95.671233 126.57294 
L 95.730462 126.127977 
L 95.732655 126.127977 
L 95.892791 125.037806 
L 95.897178 125.045225 
L 95.91034 125.134214 
L 96.373197 119.134571 
L 96.401714 110.598607 
L 96.452168 34.598143 
L 96.553075 65.130332 
L 96.879927 121.322324 
L 97.090516 126.958584 
L 97.094903 126.943747 
L 97.373495 129.858288 
L 97.375688 129.843455 
L 97.377882 129.836041 
L 97.423948 130.065939 
L 97.434916 129.999196 
L 97.562147 130.347755 
L 97.564341 130.325503 
L 97.566534 130.303256 
L 97.647699 130.518321 
L 97.656474 130.451574 
L 97.757381 130.785304 
L 97.779317 130.770466 
L 97.910935 130.525739 
L 97.790285 130.785304 
L 97.917516 130.592486 
L 97.970163 130.622148 
L 97.946033 130.503492 
L 98.005262 130.503492 
L 98.044747 130.39966 
L 98.966074 126.921499 
L 99.106467 126.10573 
L 99.126209 126.150225 
L 99.183244 125.85358 
L 99.185437 125.85358 
L 99.310475 125.126796 
L 99.321443 125.156466 
L 99.354347 125.052634 
L 99.464029 124.303612 
L 99.628552 122.805553 
L 99.632939 122.827801 
L 99.659263 122.545985 
L 99.907144 116.583422 
L 99.935661 89.744458 
L 99.970759 35.280418 
L 100.060698 61.933982 
L 100.380969 120.083834 
L 100.626656 126.965994 
L 101.188227 130.31067 
L 101.221131 130.229094 
L 101.333007 130.169762 
L 101.308877 130.281008 
L 101.3352 130.214257 
L 101.346168 130.295841 
L 101.440495 130.125267 
L 101.444882 130.199428 
L 101.55237 129.969525 
L 101.460237 130.243923 
L 101.5765 129.991773 
L 101.662052 130.110438 
L 101.583081 129.954697 
L 101.686182 129.976949 
L 101.830962 129.591305 
L 101.690569 129.991773 
L 101.84193 129.680304 
L 102.368403 127.544451 
L 102.513183 126.610025 
L 102.804936 125.289956 
L 102.932167 124.578005 
L 102.815904 125.34187 
L 102.934361 124.592834 
L 102.938748 124.711494 
L 103.008944 124.348107 
L 103.037461 124.414854 
L 103.039655 124.444516 
L 103.123013 124.081124 
L 103.557353 120.410146 
L 103.653873 115.574826 
L 103.688971 68.163529 
L 103.715295 35.680896 
L 103.800847 61.162706 
L 104.103568 117.651341 
L 104.428226 127.054989 
L 104.79237 129.62839 
L 104.945924 130.043691 
L 104.989797 129.917612 
L 104.991991 129.910202 
L 105.027089 130.1401 
L 105.055606 130.065939 
L 105.121415 130.192009 
L 105.167481 130.088191 
L 105.277163 129.843455 
L 105.294712 129.925035 
L 105.310068 129.858288 
L 105.367102 130.021444 
L 105.400007 129.939864 
L 105.410975 130.05111 
L 105.505301 129.873117 
L 105.509689 129.939864 
L 105.669824 129.509729 
L 105.676405 129.554224 
L 105.678599 129.561643 
L 105.720278 129.331745 
L 105.726859 129.368821 
L 105.856283 128.931268 
L 105.862864 128.946101 
L 106.044936 127.974595 
L 106.049323 128.004252 
L 106.088808 127.766939 
L 106.093196 127.796601 
L 106.233588 126.899252 
L 106.240169 126.943747 
L 106.242363 126.958584 
L 106.301591 126.602607 
L 106.332302 126.669349 
L 106.373981 126.491369 
L 106.378368 126.513617 
L 106.551666 125.252875 
L 106.553859 125.260285 
L 106.58457 125.000725 
L 106.588957 125.015558 
L 106.738125 123.851221 
L 106.746899 123.866059 
L 106.749093 123.903135 
L 106.82587 123.346925 
L 107.075944 116.449928 
L 107.11543 53.650167 
L 107.137366 35.525159 
L 107.222918 60.702905 
L 107.547576 118.741513 
L 107.751584 125.712676 
L 107.782295 126.165053 
L 107.970948 128.01909 
L 108.139858 128.975767 
L 108.148632 128.931268 
L 108.484258 129.80637 
L 108.153019 128.879354 
L 108.499614 129.732208 
L 108.596134 129.643219 
L 108.528131 129.821207 
L 108.611489 129.724799 
L 108.61807 129.850869 
L 108.631232 129.702551 
L 108.725558 129.791546 
L 108.824272 129.50231 
L 108.756269 129.821207 
L 108.870338 129.569057 
L 109.460426 127.752106 
L 109.497718 127.826272 
L 109.502105 127.885596 
L 109.550365 127.640864 
L 109.55914 127.655693 
L 109.846506 126.350461 
L 109.857474 126.36529 
L 109.859668 126.409785 
L 109.949607 126.024145 
L 110.26549 124.444516 
L 110.280846 124.518672 
L 110.28304 124.540924 
L 110.33788 123.984715 
L 110.346655 124.088538 
L 110.533114 122.939043 
L 110.69983 120.143158 
L 110.778801 114.781304 
L 110.838029 36.133273 
L 110.969647 71.16706 
L 111.305274 122.368 
L 111.643094 128.538214 
L 111.645287 128.501138 
L 111.722064 129.064757 
L 111.8822 129.895364 
L 112.110338 130.481244 
L 112.130081 130.370003 
L 112.141049 130.332917 
L 112.198083 130.533158 
L 112.230988 130.458997 
L 112.353831 130.629562 
L 112.358219 130.577653 
L 112.6061 130.043691 
L 112.3648 130.636977 
L 112.610487 130.088191 
L 112.647779 130.192009 
L 112.702619 129.895364 
L 112.7092 129.917612 
L 112.75746 129.976949 
L 112.794752 129.784122 
L 112.847399 129.650637 
L 112.908821 129.717384 
L 113.04702 129.257584 
L 113.049214 129.279831 
L 113.053601 129.331745 
L 113.125991 128.953515 
L 113.327806 127.959757 
L 113.329999 127.996842 
L 113.332193 128.056166 
L 113.422132 127.633446 
L 113.426519 127.655693 
L 113.555944 127.077241 
L 113.575686 127.114321 
L 113.580074 127.151397 
L 113.663432 126.728682 
L 113.96396 124.793074 
L 113.966154 124.815322 
L 114.018801 124.244275 
L 114.159193 122.545985 
L 114.345652 118.556109 
L 114.371976 107.965882 
L 114.420236 34.887365 
L 114.521143 64.277478 
L 114.830446 118.823088 
L 115.025679 125.7275 
L 115.288916 128.849697 
L 115.291109 128.834859 
L 115.343757 129.205665 
L 115.560927 130.281008 
L 115.613574 130.370003 
L 115.725449 130.674062 
L 115.617961 130.362584 
L 115.749579 130.622148 
L 115.841712 130.533158 
L 115.753966 130.636977 
L 115.868036 130.585063 
L 115.872423 130.636977 
L 115.9492 130.31067 
L 115.962362 130.377412 
L 116.078625 130.199428 
L 115.97333 130.384836 
L 116.080818 130.221675 
L 116.083012 130.281008 
L 116.135659 130.095605 
L 116.1905 130.192009 
L 117.392612 125.772 
L 117.554941 124.733742 
L 117.76553 123.369173 
L 117.767724 123.376596 
L 117.787467 123.072528 
L 117.969538 121.871114 
L 118.134061 119.112323 
L 118.184515 113.846869 
L 118.243743 35.777304 
L 118.36878 69.765412 
L 118.704406 120.7587 
L 119.059775 127.366471 
L 119.246234 128.434391 
L 119.248428 128.426976 
L 119.255009 128.389896 
L 119.292301 128.656875 
L 119.516051 129.598719 
L 119.307656 128.619794 
L 119.5336 129.546805 
L 119.535794 129.539395 
L 119.579667 129.75446 
L 119.588441 129.687713 
L 119.70251 129.910202 
L 119.704704 129.887954 
L 119.709091 129.850869 
L 119.766126 130.080767 
L 119.79903 130.05111 
L 119.836322 130.132686 
L 119.899938 129.969525 
L 120.022781 129.761875 
L 119.956972 129.999196 
L 120.031556 129.821207 
L 120.033749 129.828622 
L 120.075428 129.658052 
L 120.106139 129.702551 
L 120.23337 129.368821 
L 120.37815 128.975767 
L 120.382537 129.020262 
L 120.465896 128.656875 
L 120.47467 128.70137 
L 120.606288 128.100661 
L 120.628225 128.115494 
L 120.632612 128.130331 
L 120.685259 127.774354 
L 120.689646 127.789191 
L 120.832233 127.143987 
L 120.983594 126.595188 
L 120.987981 126.617435 
L 121.014304 126.31338 
L 121.031853 126.372704 
L 121.040628 126.424622 
L 121.341156 125.000725 
L 121.466193 124.259112 
L 121.347737 125.060053 
L 121.472774 124.296189 
L 121.700912 122.308668 
L 121.806207 120.128329 
L 121.858854 116.627921 
L 121.893952 72.776359 
L 121.92247 35.992369 
L 122.008021 59.894548 
L 122.356809 119.549872 
L 122.613465 126.44687 
L 122.615658 126.439451 
L 122.648563 126.706434 
L 122.984189 129.049933 
L 122.988576 128.998015 
L 123.054385 129.331745 
L 123.082903 129.331745 
L 123.091677 129.309497 
L 123.113614 129.531981 
L 123.144324 129.487482 
L 123.238651 129.776708 
L 123.269362 129.702551 
L 123.278136 129.598719 
L 123.368075 129.850869 
L 123.383431 129.910202 
L 123.464595 129.702551 
L 123.466789 129.724799 
L 123.493113 129.643219 
L 123.604988 129.465234 
L 123.517243 129.658052 
L 123.611569 129.509729 
L 123.694927 129.524558 
L 123.677378 129.442987 
L 123.712476 129.450401 
L 123.716863 129.465234 
L 124.627222 125.972236 
L 124.63819 126.001898 
L 124.776389 125.171291 
L 124.778583 125.178714 
L 124.829037 124.985887 
L 124.978204 124.140456 
L 124.984785 124.19978 
L 124.993559 124.251694 
L 125.063756 124.021791 
L 125.083498 124.110785 
L 125.243634 123.102199 
L 125.588034 118.489367 
L 125.640682 112.534214 
L 125.69991 37.371772 
L 125.813979 67.555406 
L 126.18251 120.951517 
L 126.597107 127.114321 
L 126.5993 127.084655 
L 126.667303 127.670531 
L 126.829632 128.538214 
L 126.847181 128.523385 
L 126.895441 128.693951 
L 126.987574 129.29466 
L 126.991961 130.458997 
L 127.035834 129.205665 
L 127.097256 129.279831 
L 127.114805 129.25016 
L 127.189388 129.420739 
L 127.246423 129.50231 
L 127.20255 129.353992 
L 127.301264 129.435563 
L 127.39559 129.517148 
L 127.358298 129.324321 
L 127.41972 129.494901 
L 127.54037 129.361402 
L 127.428495 129.554224 
L 127.544757 129.405906 
L 127.775089 128.923853 
L 127.566694 129.487482 
L 127.78167 128.975767 
L 127.783864 128.9906 
L 127.834317 128.760702 
L 127.880384 128.886777 
L 128.031744 128.189655 
L 128.040519 128.22674 
L 128.042713 128.234154 
L 128.080004 127.989423 
L 128.26427 127.418385 
L 128.093166 128.048751 
L 128.266463 127.455461 
L 128.268657 127.507375 
L 128.362983 127.181068 
L 128.369564 127.284891 
L 128.50557 126.65452 
L 128.509957 126.706434 
L 128.55383 126.454289 
L 128.678867 125.860994 
L 128.84997 124.748575 
L 128.854358 124.770827 
L 129.01888 123.977301 
L 129.021074 123.999548 
L 129.023268 124.029214 
L 129.104432 123.658408 
L 129.317215 122.28642 
L 129.328183 122.308668 
L 129.470769 121.381656 
L 129.62213 119.750104 
L 129.624324 119.757523 
L 129.692326 117.970234 
L 129.738393 108.811317 
L 129.793234 37.445931 
L 129.896335 64.529627 
L 130.214412 117.933153 
L 130.416226 124.147871 
L 130.947086 128.679127 
L 130.966829 128.619794 
L 130.969022 128.590132 
L 131.050187 128.968353 
L 131.05238 128.946101 
L 131.06993 129.012852 
L 131.194967 129.435563 
L 131.19716 129.37624 
L 131.201548 129.353992 
L 131.22129 129.539395 
L 131.284906 129.457815 
L 131.291487 129.554224 
L 131.313423 129.435563 
L 131.3902 129.450401 
L 131.504269 129.264998 
L 131.515238 129.309497 
L 131.646856 129.109256 
L 131.651243 129.146342 
L 131.822347 128.86453 
L 131.828927 128.923853 
L 131.833315 128.960938 
L 131.905705 128.61238 
L 131.918867 128.708788 
L 132.032936 128.167408 
L 132.043904 128.241573 
L 132.236944 127.410966 
L 132.265461 127.477709 
L 132.269848 127.522204 
L 132.348819 127.195897 
L 132.357594 127.203316 
L 132.489212 126.743515 
L 132.493599 126.773181 
L 132.502374 126.817676 
L 132.844581 125.156466 
L 132.851162 125.163876 
L 132.892841 124.933978 
L 133.395183 120.810609 
L 133.546544 114.951869 
L 133.583836 67.54799 
L 133.61016 37.52009 
L 133.695711 59.864883 
L 134.011595 116.197778 
L 134.312123 125.85358 
L 134.31651 125.838742 
L 134.336253 126.120563 
L 134.584134 128.5308 
L 134.586327 128.471467 
L 134.744269 129.16117 
L 134.757431 129.109256 
L 134.759625 129.094428 
L 134.834208 129.346573 
L 135.084283 129.917612 
L 135.090863 129.828622 
L 135.125962 129.761875 
L 135.176415 129.880535 
L 135.200545 129.843455 
L 135.215901 129.858288 
L 135.349712 129.569057 
L 135.430877 129.620967 
L 135.380423 129.450401 
L 135.457201 129.531981 
L 135.591012 129.087009 
L 135.593206 129.094428 
L 135.5954 129.124094 
L 135.680951 128.871944 
L 135.687532 128.879354 
L 135.69192 128.923853 
L 136.227167 126.669349 
L 136.25349 126.706434 
L 136.371947 126.216972 
L 136.37414 126.224381 
L 136.418013 126.038983 
L 136.426787 126.053816 
L 136.584729 125.104548 
L 136.597891 125.230628 
L 136.650538 124.96364 
L 136.683443 124.971063 
L 136.942292 123.413672 
L 136.944485 123.428505 
L 136.948873 123.443334 
L 136.986165 122.968709 
L 137.295467 120.291485 
L 137.313016 120.2544 
L 137.499475 110.376123 
L 137.55651 37.801906 
L 137.666192 65.612382 
L 138.034722 120.721615 
L 138.324282 126.150225 
L 138.543646 127.80402 
L 138.556808 127.789191 
L 139.01089 129.012852 
L 138.561195 127.670531 
L 139.015277 128.968353 
L 139.081086 128.78295 
L 139.041601 128.998015 
L 139.13154 128.849697 
L 139.133734 128.827449 
L 139.212705 129.153751 
L 139.298256 129.235336 
L 139.269739 129.087009 
L 139.32458 129.168589 
L 139.438649 128.879354 
L 139.350904 129.176003 
L 139.451811 128.886777 
L 139.456198 128.916439 
L 139.54175 128.731036 
L 139.554912 128.82003 
L 139.695304 128.367648 
L 139.56588 128.827449 
L 139.697498 128.397306 
L 139.820342 128.026499 
L 139.704079 128.404729 
L 139.837891 128.100661 
L 139.844472 128.048751 
L 139.973896 127.477709 
L 139.97609 127.514794 
L 140.055061 127.195897 
L 140.07261 127.292306 
L 140.206421 126.706434 
L 140.210809 126.736096 
L 140.219583 126.750934 
L 140.517918 125.393779 
L 140.524499 125.423441 
L 140.588114 125.111967 
L 140.594695 125.163876 
L 140.713151 124.733742 
L 140.724119 124.793074 
L 140.743862 124.733742 
L 140.864512 124.311022 
L 140.868899 124.355521 
L 140.943483 123.888306 
L 140.963226 123.799312 
L 140.969807 123.81414 
L 141.603767 116.17553 
L 141.641059 106.423326 
L 141.693706 38.395196 
L 141.796807 63.884424 
L 142.15437 118.956582 
L 142.353991 124.444516 
L 142.384702 124.911726 
L 142.595291 127.010494 
L 142.597484 127.003079 
L 142.599678 126.988242 
L 142.645744 127.418385 
L 142.647938 127.410966 
L 142.862914 128.464053 
L 142.893625 128.553052 
L 143.027437 129.027681 
L 143.134925 129.153751 
L 143.049373 128.931268 
L 143.152474 129.138918 
L 143.19854 129.027681 
L 143.244607 129.198255 
L 143.259962 129.153751 
L 143.360869 129.383654 
L 143.277511 129.109256 
L 143.382806 129.309497 
L 143.503456 129.138918 
L 143.435453 129.331745 
L 143.505649 129.190837 
L 143.527586 129.094428 
L 143.643848 128.983186 
L 143.687721 128.90902 
L 143.82592 128.404729 
L 143.828114 128.412143 
L 143.839082 128.545633 
L 143.929021 128.278649 
L 143.931215 128.286064 
L 143.979475 128.167408 
L 144.010185 128.182245 
L 144.154965 127.433209 
L 144.16374 127.514794 
L 144.253679 127.218144 
L 144.538852 125.898079 
L 144.558594 125.912908 
L 144.657308 125.638515 
L 144.679244 125.675591 
L 144.712149 125.490188 
L 144.71873 125.497607 
L 144.845961 125.08972 
L 144.848154 125.097129 
L 144.850348 125.156466 
L 144.944674 124.704076 
L 145.08726 124.036624 
L 145.324173 122.850048 
L 145.490889 121.537393 
L 145.49747 121.559645 
L 145.501858 121.60414 
L 145.572054 121.211086 
L 145.574248 121.255581 
L 145.740964 119.468292 
L 145.743157 119.48313 
L 145.808967 118.296545 
L 145.90768 110.123973 
L 145.966908 38.632511 
L 146.078784 65.953523 
L 146.427572 119.149399 
L 146.690808 125.334446 
L 146.695195 125.29737 
L 146.739068 125.912908 
L 146.741262 125.912908 
L 147.024241 127.663112 
L 147.346705 128.627208 
L 147.38619 128.515966 
L 147.397159 128.47889 
L 147.454193 128.797783 
L 147.559488 128.886777 
L 147.513421 128.642046 
L 147.57265 128.842278 
L 147.721817 128.597546 
L 147.737172 128.649456 
L 147.770077 128.716203 
L 147.809562 128.553052 
L 147.842467 128.619794 
L 147.991634 128.174826 
L 148.011377 128.234154 
L 149.068709 124.303612 
L 149.200327 123.636161 
L 149.209102 123.64357 
L 149.248587 123.732569 
L 149.301234 123.398839 
L 149.53376 122.227097 
L 150.029521 118.118556 
L 150.077781 116.524089 
L 150.117267 110.976827 
L 150.180882 39.878421 
L 150.297145 67.392251 
L 150.610835 116.182949 
L 150.838973 123.398839 
L 150.845554 123.450757 
L 151.001302 125.334446 
L 151.003495 125.327032 
L 151.040787 125.579178 
L 151.236021 127.032741 
L 151.238214 127.017908 
L 151.297443 127.344224 
L 151.459772 127.967176 
L 151.464159 127.907843 
L 151.468546 127.863348 
L 151.538743 128.204493 
L 151.560679 128.137746 
L 151.703265 128.449224 
L 151.707652 128.382482 
L 151.716427 128.471467 
L 151.819528 128.664293 
L 151.723008 128.434391 
L 151.834883 128.567885 
L 151.931403 128.679127 
L 151.850239 128.523385 
L 151.955533 128.619794 
L 152.07399 128.434391 
L 152.120056 128.560461 
L 152.17051 128.278649 
L 152.174897 128.308316 
L 152.29774 128.115494 
L 152.299934 128.122913 
L 152.306515 128.174826 
L 152.365743 127.996842 
L 152.403035 128.048751 
L 152.521491 127.692778 
L 152.532459 127.71503 
L 152.558783 127.633446 
L 152.646528 127.240392 
L 152.688208 127.284891 
L 152.690401 127.314553 
L 152.764985 126.891837 
L 152.773759 126.965994 
L 153.135709 125.386365 
L 153.249778 124.852403 
L 153.258553 124.882069 
L 153.265134 124.948811 
L 153.357266 124.615081 
L 153.35946 124.622504 
L 153.394558 124.362936 
L 153.396752 124.370354 
L 153.517402 123.932806 
L 153.523983 124.006967 
L 153.537144 123.910554 
L 153.725797 122.575651 
L 153.727991 122.583065 
L 153.760895 122.330915 
L 154.076779 118.059233 
L 154.15575 106.868296 
L 154.210591 39.225801 
L 154.311498 63.684188 
L 154.675641 118.778593 
L 154.908167 124.53351 
L 155.338119 127.789191 
L 155.340313 127.781773 
L 155.373217 128.01909 
L 155.381992 127.996842 
L 155.51361 128.523385 
L 155.717618 128.953515 
L 155.524578 128.515966 
L 155.741748 128.916439 
L 155.750523 128.886777 
L 155.8273 129.109256 
L 155.833881 129.094428 
L 155.862398 129.005433 
L 155.912852 128.938691 
L 155.893109 129.027681 
L 155.969886 129.020262 
L 155.976467 129.094428 
L 156.062019 128.86453 
L 156.072987 128.960938 
L 156.184863 128.760702 
L 156.101504 129.04251 
L 156.191443 128.790364 
L 156.399839 128.063584 
L 156.208993 128.797783 
L 156.40642 128.078413 
L 156.410807 128.100661 
L 156.467841 127.907843 
L 156.472229 127.952343 
L 156.586298 127.514794 
L 156.601653 127.574122 
L 156.606041 127.618617 
L 156.680624 127.277477 
L 156.687205 127.284891 
L 156.836372 126.595188 
L 156.84076 126.639687 
L 156.91315 126.44687 
L 156.935086 126.469117 
L 156.946054 126.372704 
L 157.093028 125.883241 
L 157.099609 125.920327 
L 157.376007 124.570586 
L 157.512012 123.888306 
L 157.514206 123.925382 
L 157.672147 123.398839 
L 157.52298 123.94022 
L 157.674341 123.421087 
L 157.680922 123.354344 
L 157.827896 122.338334 
L 157.832283 122.368 
L 158.007774 121.35199 
L 158.231524 118.993658 
L 158.233718 119.008491 
L 158.310495 117.161878 
L 158.369723 110.072061 
L 158.431145 39.618857 
L 158.545214 66.168591 
L 158.880841 117.391781 
L 159.181369 124.511263 
L 159.190143 124.600257 
L 159.38757 126.409785 
L 159.391958 126.357875 
L 159.444605 126.862176 
L 159.455573 126.810257 
L 159.609128 127.596369 
L 159.626677 127.485128 
L 159.661775 127.737278 
L 159.716616 127.663112 
L 159.721003 127.633446 
L 159.799974 127.989423 
L 159.802167 127.989423 
L 159.94256 128.337982 
L 159.830685 127.952343 
L 159.973271 128.211902 
L 160.021531 128.14516 
L 160.076372 128.323144 
L 160.078566 128.308316 
L 160.214571 128.708788 
L 160.234314 128.604961 
L 160.387868 128.278649 
L 160.392255 128.337982 
L 160.427354 128.197078 
L 160.49755 128.278649 
L 160.574327 128.063584 
L 160.613813 128.189655 
L 160.659879 128.263816 
L 160.712526 128.130331 
L 160.725688 128.204493 
L 160.936277 127.537041 
L 160.938471 127.551874 
L 160.993312 127.225559 
L 161.006473 127.262639 
L 161.12493 126.847338 
L 161.048152 127.307143 
L 161.135898 126.877 
L 161.138091 126.884423 
L 161.186351 126.706434 
L 161.199513 126.728682 
L 161.335519 126.090892 
L 161.337712 126.14281 
L 161.429845 125.697838 
L 161.436426 125.720086 
L 161.629466 124.681828 
L 161.754503 124.125623 
L 161.763278 124.162704 
L 162.45866 118.645099 
L 162.550793 113.490896 
L 162.596859 52.567412 
L 162.618795 39.982247 
L 162.702154 59.790722 
L 163.029005 114.56623 
L 163.362438 124.45193 
L 163.364632 124.437101 
L 163.54451 126.409785 
L 163.759486 127.826272 
L 164.110468 128.760702 
L 164.119242 128.679127 
L 164.231118 128.501138 
L 164.147759 128.686541 
L 164.235505 128.575299 
L 164.340799 128.649456 
L 164.264022 128.501138 
L 164.345187 128.604961 
L 164.454868 128.352811 
L 164.46803 128.404729 
L 164.577712 128.14516 
L 164.525065 128.434391 
L 164.593067 128.234154 
L 164.601842 128.300897 
L 164.6852 128.070999 
L 164.691781 128.100661 
L 164.80585 127.833686 
L 164.70933 128.115494 
L 164.810237 127.907843 
L 164.87824 127.833686 
L 164.968179 127.551874 
L 164.884821 127.841096 
L 164.994503 127.640864 
L 165.009858 127.537041 
L 165.169994 126.951165 
L 165.02302 127.551874 
L 165.174381 126.980832 
L 165.19193 127.010494 
L 165.255545 126.691597 
L 165.26432 126.713849 
L 165.284063 126.647102 
L 165.404713 126.239219 
L 165.413487 126.276295 
L 165.417874 126.36529 
L 165.488071 126.016735 
L 165.50562 126.10573 
L 165.6504 125.527273 
L 165.654787 125.564349 
L 165.733758 125.186128 
L 165.953121 123.903135 
L 165.968477 123.925382 
L 165.970671 123.94763 
L 166.03648 123.502667 
L 166.078159 123.398839 
L 166.486175 119.883593 
L 166.50153 119.891012 
L 166.714313 115.300428 
L 166.745024 99.073946 
L 166.793284 40.004494 
L 166.889804 62.586602 
L 167.271496 117.792245 
L 167.482085 123.265354 
L 167.596154 124.770827 
L 167.782613 126.65452 
L 167.784807 126.624854 
L 167.791388 126.57294 
L 167.848423 127.143987 
L 167.861584 127.084655 
L 168.048043 128.122913 
L 168.067786 128.078413 
L 168.11824 128.248988 
L 168.127014 128.219326 
L 168.256439 128.627208 
L 168.331022 128.441805 
L 168.372701 128.501138 
L 168.464834 128.604961 
L 168.434123 128.434391 
L 168.484577 128.560461 
L 168.488964 128.545633 
L 168.506513 128.671703 
L 168.592065 128.582709 
L 168.662261 128.493719 
L 168.745619 128.211902 
L 168.782911 128.345401 
L 168.785105 128.352811 
L 168.815816 128.167408 
L 168.833365 128.167408 
L 168.842139 128.174826 
L 168.960596 127.863348 
L 169.01763 127.781773 
L 169.039567 127.796601 
L 169.160217 127.351638 
L 169.164604 127.403547 
L 169.245768 127.003079 
L 169.247962 127.032741 
L 169.412485 126.305966 
L 169.42784 126.31338 
L 169.430034 126.36529 
L 169.498036 126.090892 
L 169.530941 126.14281 
L 169.673527 125.608844 
L 169.677915 125.660762 
L 169.697657 125.749752 
L 170.733053 121.730211 
L 170.88222 120.825447 
L 171.274881 115.715729 
L 171.320948 107.847223 
L 171.382369 40.671946 
L 171.489857 65.248992 
L 171.911035 125.104548 
L 172.538415 139.076532 
L 172.889397 143.147988 
L 173.189925 145.929035 
L 173.37419 147.41226 
L 173.378578 147.404846 
L 173.676912 149.384948 
L 173.679106 149.355282 
L 173.747108 149.844749 
L 173.753689 149.844749 
L 173.948923 150.986839 
L 174.418361 153.441566 
L 174.420555 153.434161 
L 174.422748 153.352576 
L 174.519268 153.849462 
L 174.521462 153.812372 
L 174.707921 154.613326 
L 174.710114 154.605894 
L 176.111847 159.062993 
L 176.120622 159.00367 
L 176.122816 158.988841 
L 176.186431 159.211316 
L 176.208367 159.166812 
L 176.232497 159.270648 
L 176.539606 160.004838 
L 176.236885 159.263225 
L 176.548381 159.975171 
L 176.574705 159.945514 
L 176.63832 160.197655 
L 176.642707 160.167998 
L 176.798455 160.531381 
L 176.800649 160.509138 
L 176.813811 160.472066 
L 176.899363 160.672298 
L 176.901556 160.664875 
L 176.949816 160.820621 
L 176.965172 160.813197 
L 176.978334 160.776126 
L 177.103371 161.102428 
L 177.109952 161.080176 
L 177.186729 161.295246 
L 177.188923 161.280417 
L 177.274474 161.376821 
L 177.302992 161.369416 
L 177.419254 161.606728 
L 177.428029 161.584485 
L 177.460933 161.755042 
L 177.485063 161.740222 
L 177.605713 161.947859 
L 177.493838 161.666052 
L 177.607907 161.903364 
L 177.610101 161.888536 
L 177.693459 162.066534 
L 177.807528 162.274171 
L 177.70004 162.059101 
L 177.816302 162.244513 
L 177.82069 162.200018 
L 177.89308 162.429907 
L 177.912822 162.429907 
L 178.031279 162.541149 
L 177.92379 162.370584 
L 178.037859 162.52633 
L 178.042247 162.452159 
L 178.136573 162.674643 
L 178.143154 162.622734 
L 178.226512 162.852641 
L 178.259417 162.793309 
L 178.26161 162.785894 
L 178.327419 162.911956 
L 178.338388 162.911956 
L 178.404197 163.015783 
L 178.542396 163.149277 
L 178.426133 162.941631 
L 178.546783 163.11962 
L 178.588462 163.11962 
L 178.614786 163.24569 
L 178.634528 163.178944 
L 178.750791 163.319852 
L 178.654271 163.156692 
L 178.752985 163.312437 
L 178.759566 163.282762 
L 178.838536 163.468174 
L 178.856086 163.364356 
L 178.970155 163.594245 
L 178.974542 163.54975 
L 178.976735 163.520084 
L 179.035964 163.67582 
L 179.075449 163.668415 
L 179.191712 163.801891 
L 179.084224 163.62392 
L 179.198293 163.742567 
L 179.200486 163.727739 
L 179.272876 163.876052 
L 179.290425 163.876052 
L 179.312362 163.801891 
L 179.415463 164.016969 
L 179.433012 163.935385 
L 179.472497 164.091122 
L 179.51637 164.046627 
L 179.593147 164.180121 
L 179.527338 164.039221 
L 179.634826 164.143049 
L 179.641407 164.091122 
L 179.700635 164.246858 
L 179.737927 164.209787 
L 179.843221 164.335857 
L 179.773025 164.180121 
L 179.851996 164.254291 
L 180.036261 164.55835 
L 180.038455 164.499018 
L 180.051617 164.424847 
L 180.10207 164.55835 
L 180.141556 164.543513 
L 180.27098 164.654745 
L 180.161299 164.506423 
L 180.277561 164.632512 
L 180.34337 164.565765 
L 180.365307 164.743744 
L 180.385049 164.669592 
L 180.492538 164.773411 
L 180.396018 164.654745 
L 180.503506 164.721492 
L 180.575896 164.817906 
L 180.683384 164.869824 
L 180.593445 164.758582 
L 180.687771 164.840149 
L 180.700933 164.810491 
L 180.82597 164.973652 
L 180.865456 164.825329 
L 180.937846 164.921733 
L 181.051915 165.040399 
L 181.003655 164.854986 
L 181.062883 165.032975 
L 181.104562 164.943976 
L 181.165984 165.07747 
L 181.172565 165.032975 
L 181.266891 165.15164 
L 181.185726 164.995904 
L 181.293215 165.136794 
L 181.315151 165.025561 
L 181.396315 165.188712 
L 181.400703 165.159046 
L 181.505997 165.203541 
L 181.499416 165.107145 
L 181.512578 165.188712 
L 181.569613 165.159046 
L 181.600324 165.285125 
L 181.617873 165.24063 
L 181.861366 165.322206 
L 181.964467 165.411205 
L 181.881109 165.24063 
L 181.975435 165.374124 
L 182.300093 165.477952 
L 182.401 165.522447 
L 182.319836 165.403781 
L 182.403194 165.477952 
L 182.451454 165.403781 
L 182.420743 165.522447 
L 182.510682 165.492771 
L 182.624751 165.54469 
L 182.552361 165.418619 
L 182.626945 165.522447 
L 182.648881 165.448276 
L 182.730046 165.559518 
L 182.73882 165.492771 
L 182.826566 165.618842 
L 182.758563 165.4557 
L 182.861664 165.574347 
L 182.866051 165.500195 
L 182.945022 165.641094 
L 182.966958 165.581761 
L 182.971346 165.655932 
L 182.977927 165.515023 
L 183.07664 165.618842 
L 183.105157 165.54469 
L 183.094189 165.678184 
L 183.186322 165.611437 
L 183.271874 165.700436 
L 183.241163 165.604013 
L 183.300391 165.641094 
L 183.377168 165.730084 
L 183.379362 165.759759 
L 183.480269 165.641094 
L 183.6075 165.737507 
L 183.633824 165.641094 
L 183.721569 165.796831 
L 183.745699 165.663346 
L 183.835638 165.737507 
L 183.910222 165.707841 
L 183.888285 165.811677 
L 183.94532 165.752336 
L 184.048421 165.863578 
L 183.962869 165.744931 
L 184.057195 165.774588 
L 184.158103 165.856172 
L 184.103262 165.744931 
L 184.173458 165.804254 
L 184.263397 165.730084 
L 184.245848 165.841326 
L 184.287527 165.752336 
L 184.366498 165.811677 
L 184.294108 165.730084 
L 184.381853 165.730084 
L 184.386241 165.685589 
L 184.410371 165.826506 
L 184.491535 165.759759 
L 184.74161 165.848758 
L 184.803031 165.878415 
L 184.761352 165.767173 
L 184.846904 165.789425 
L 185.090398 165.878415 
L 185.191305 165.930325 
L 185.118915 165.789425 
L 185.200079 165.878415 
L 185.309761 165.826506 
L 185.285631 165.915496 
L 185.311955 165.848758 
L 185.395313 165.945153 
L 185.322923 165.83392 
L 185.42383 165.871001 
L 185.526931 165.804254 
L 185.509382 165.900667 
L 185.533512 165.878415 
L 185.643194 165.922919 
L 185.564223 165.804254 
L 185.645387 165.893253 
L 185.728746 165.804254 
L 185.669517 165.915496 
L 185.757263 165.893253 
L 186.281542 165.789425 
L 186.285929 165.774588 
L 186.331995 165.908073 
L 186.378062 165.819083 
L 186.489937 165.915496 
L 186.393417 165.782011 
L 186.492131 165.893253 
L 186.562327 165.782011 
L 186.614974 165.819083 
L 186.722462 165.908073 
L 186.70272 165.782011 
L 186.724656 165.811677 
L 186.836531 165.893253 
L 186.838725 165.922919 
L 186.926471 165.737507 
L 186.941826 165.826506 
L 187.036152 165.752336 
L 186.965956 165.871001 
L 187.051508 165.811677 
L 187.086606 165.88583 
L 187.06467 165.759759 
L 187.141447 165.767173 
L 187.14364 165.715255 
L 187.198481 165.841326 
L 187.251129 165.774588 
L 187.358617 165.863578 
L 187.297195 165.759759 
L 187.371779 165.83392 
L 187.452943 165.730084 
L 187.406877 165.848758 
L 187.48146 165.819083 
L 187.525333 165.841326 
L 187.582368 165.730084 
L 187.878508 165.819083 
L 187.880702 165.841326 
L 187.924575 165.700436 
L 187.981609 165.767173 
L 188.021095 165.663346 
L 188.027676 165.83392 
L 188.089097 165.759759 
L 188.095678 165.848758 
L 188.150519 165.678184 
L 188.196585 165.730084 
L 189.128881 165.826506 
L 189.131074 165.841326 
L 189.207851 165.722679 
L 189.227594 165.744931 
L 189.517154 165.641094 
L 189.519348 165.604013 
L 189.569801 165.730084 
L 189.624642 165.655932 
L 189.672902 165.722679 
L 189.648772 165.626265 
L 189.736518 165.663346 
L 189.833038 165.596599 
L 189.769422 165.707841 
L 189.854974 165.641094 
L 189.912008 165.759759 
L 189.885685 165.596599 
L 189.971237 165.700436 
L 190.072144 165.611437 
L 190.054595 165.722679 
L 190.087499 165.663346 
L 190.203762 165.693003 
L 190.107242 165.589194 
L 190.205956 165.685589 
L 190.291507 165.611437 
L 190.258603 165.715255 
L 190.328799 165.641094 
L 190.412157 165.715255 
L 190.344155 165.611437 
L 190.438481 165.641094 
L 190.559131 165.759759 
L 190.473579 165.581761 
L 190.561325 165.744931 
L 190.578874 165.581761 
L 190.677587 165.655932 
L 190.692943 165.715255 
L 190.708298 165.574347 
L 190.776301 165.633689 
L 190.807012 165.559518 
L 190.84211 165.678184 
L 190.888176 165.626265 
L 191.000052 165.678184 
L 190.927662 165.566942 
L 191.002245 165.67076 
L 191.120702 165.596599 
L 191.054893 165.722679 
L 191.13167 165.618842 
L 191.184317 165.67076 
L 191.201866 165.500195 
L 191.236964 165.604013 
L 191.322516 165.566942 
L 191.263288 165.648508 
L 191.351033 165.574347 
L 191.412455 165.67076 
L 191.454134 165.522447 
L 191.458521 165.552104 
L 191.533105 165.492771 
L 191.473877 165.641094 
L 191.570397 165.529852 
L 191.585752 165.596599 
L 191.618657 165.433448 
L 191.682272 165.581761 
L 191.745888 165.500195 
L 191.81389 165.522447 
L 191.816084 165.552104 
L 191.916991 165.418619 
L 191.9828 165.537266 
L 191.945509 165.403781 
L 192.033254 165.463114 
L 192.145129 165.411205 
L 192.050803 165.559518 
L 192.147323 165.4557 
L 192.228488 165.522447 
L 192.246037 165.374124 
L 192.24823 165.36671 
L 192.261392 165.5076 
L 192.325008 165.477952 
L 192.360106 165.5076 
L 192.408366 165.388953 
L 192.425915 165.433448 
L 192.447851 165.403781 
L 192.491724 165.5076 
L 192.535597 165.448276 
L 192.660634 165.351872 
L 192.542177 165.485366 
L 192.667215 165.388953 
L 192.761541 165.492771 
L 192.678183 165.374124 
L 192.781284 165.403781 
L 192.888772 165.322206 
L 192.798833 165.463114 
L 192.893159 165.388953 
L 192.912902 165.433448 
L 192.921676 165.329629 
L 192.991873 165.359277 
L 193.09278 165.314783 
L 193.000647 165.411205 
L 193.103748 165.351872 
L 193.176138 165.277702 
L 193.162976 165.403781 
L 193.215624 165.314783 
L 193.263884 165.381529 
L 193.28582 165.225793 
L 193.325305 165.307377 
L 193.568799 165.225793 
L 193.617059 165.188712 
L 193.592929 165.299954 
L 193.678481 165.233207 
L 193.737709 165.173883 
L 193.702611 165.285125 
L 193.794743 165.225793 
L 193.891263 165.277702 
L 193.838616 165.16646 
L 193.904425 165.210955 
L 194.18521 165.307377 
L 194.187404 165.329629 
L 194.213728 165.181298 
L 194.286118 165.255459 
L 194.340959 165.181298 
L 194.319022 165.29254 
L 194.397993 165.233207 
L 194.417736 165.16646 
L 194.501094 165.233207 
L 194.538386 165.136794 
L 194.608582 165.285125 
L 194.612969 165.203541 
L 194.685359 165.285125 
L 194.720457 165.16646 
L 195.466294 165.092299 
L 195.525522 165.018147 
L 195.549652 165.144217 
L 195.578169 165.07747 
L 195.687851 165.144217 
L 195.602299 165.010723 
L 195.690044 165.107145 
L 195.795339 165.040399 
L 195.716368 165.15164 
L 195.799726 165.114551 
L 196.242841 165.040399 
L 196.324005 164.973652 
L 196.273551 165.099713 
L 196.352522 165.047813 
L 196.4293 165.114551 
L 196.370071 165.040399 
L 196.464398 165.107145 
L 196.530207 164.981066 
L 196.50169 165.136794 
L 196.576273 165.070065 
L 196.793443 165.010723 
L 196.79783 164.914319 
L 196.817573 165.070065 
L 196.905318 164.966228 
L 196.949191 165.062641 
L 196.925061 164.943976 
L 197.021581 165.010723 
L 197.06326 164.906905 
L 197.030356 165.018147 
L 197.131263 164.973652 
L 197.227783 165.032975 
L 197.172942 164.921733 
L 197.240945 164.981066 
L 197.326496 164.936571 
L 197.297979 165.055218 
L 197.348433 164.995904 
L 197.416436 165.018147 
L 197.427404 164.884653 
L 197.458115 164.988471 
L 197.52173 164.943976 
L 197.493213 165.047813 
L 197.554635 165.010723 
L 197.662123 165.047813 
L 197.563409 164.943976 
L 197.664316 165.010723 
L 197.673091 164.877229 
L 197.688446 165.032975 
L 197.776192 164.981066 
L 197.868324 164.906905 
L 197.833226 165.025561 
L 197.88368 165.003318 
L 198.478155 164.929157 
L 198.548351 164.884653 
L 198.532996 164.988471 
L 198.587837 164.943976 
L 198.688744 164.981066 
L 198.625129 164.854986 
L 198.697519 164.929157 
L 198.802813 164.877229 
L 198.813781 164.892076 
L 198.818169 164.929157 
L 198.87959 164.817906 
L 198.923463 164.914319 
L 198.971723 164.825329 
L 199.028758 164.9514 
L 199.035339 164.899481 
L 199.092373 164.936571 
L 199.164763 164.817906 
L 199.26567 164.929157 
L 199.276638 164.869824 
L 200.204546 164.795654 
L 200.305454 164.728907 
L 200.241838 164.869824 
L 200.314228 164.803077 
L 200.412942 164.825329 
L 200.342745 164.751159 
L 200.428297 164.817906 
L 200.491913 164.706664 
L 200.450233 164.847581 
L 200.54456 164.743744 
L 200.553334 164.840149 
L 200.632305 164.691835 
L 200.654242 164.736339 
L 200.671791 164.817906 
L 200.746374 164.669592 
L 200.759536 164.721492 
L 200.845088 164.691835 
L 200.838507 164.803077 
L 200.869218 164.736339 
L 200.875799 164.758582 
L 200.996449 164.669592 
L 201.103937 164.773411 
L 201.112711 164.736339 
L 201.356205 164.632512 
L 201.400078 164.602845 
L 201.406659 164.728907 
L 201.461499 164.691835 
L 201.891452 164.632512 
L 201.944099 164.57317 
L 201.917776 164.691835 
L 202.001134 164.632512 
L 202.003327 164.669592 
L 202.060362 164.52127 
L 202.108622 164.57317 
L 202.11959 164.64734 
L 202.211723 164.543513 
L 202.213916 164.491603 
L 202.270951 164.676997 
L 202.319211 164.57317 
L 202.334566 164.64734 
L 202.389407 164.513855 
L 202.428893 164.55835 
L 202.858845 164.454523 
L 202.937816 164.454523 
L 202.920267 164.57317 
L 202.948784 164.499018 
L 203.054079 164.55835 
L 203.047498 164.439685 
L 203.06066 164.52127 
L 203.086983 164.499018 
L 203.137437 164.602845 
L 203.172535 164.513855 
L 204.398777 164.410028 
L 204.403165 164.365533 
L 204.499685 164.513855 
L 204.506266 164.447099 
L 204.558913 164.513855 
L 204.622528 164.417433 
L 204.701499 164.491603 
L 204.63569 164.387776 
L 204.734404 164.432271 
L 204.837504 164.469351 
L 204.824343 164.365533 
L 204.850666 164.454523 
L 204.92525 164.365533 
L 204.892345 164.48418 
L 204.958154 164.476775 
L 204.995446 164.528675 
L 205.034932 164.387776 
L 205.052481 164.432271 
L 205.109515 164.402604 
L 205.155582 164.543513 
L 205.157775 164.513855 
L 205.23894 164.432271 
L 205.267457 164.528675 
L 205.269651 164.57317 
L 205.2872 164.447099 
L 205.377139 164.506423 
L 205.458303 164.380352 
L 205.493401 164.432271 
L 205.541661 164.499018 
L 205.570179 164.372938 
L 205.603083 164.447099 
L 205.701797 164.387776 
L 205.657924 164.499018 
L 205.712765 164.432271 
L 205.765412 164.461928 
L 205.789542 164.26911 
L 205.820253 164.410028 
L 205.899224 164.232039 
L 205.846577 164.491603 
L 205.932129 164.372938 
L 205.958452 164.454523 
L 205.940903 164.306191 
L 206.054972 164.402604 
L 206.063747 164.298786 
L 206.164654 164.350686 
L 206.195365 164.395181 
L 206.25898 164.254291 
L 206.272142 164.321029 
L 206.351113 164.276534 
L 206.316015 164.380352 
L 206.381824 164.328443 
L 206.495893 164.380352 
L 206.405954 164.246858 
L 206.50028 164.365533 
L 206.574864 164.232039 
L 206.612156 164.335857 
L 206.713063 164.372938 
L 206.647254 164.261696 
L 206.724031 164.335857 
L 206.824938 164.261696 
L 206.737193 164.350686 
L 206.8381 164.335857 
L 206.844681 164.402604 
L 206.881973 164.261696 
L 206.949975 164.3581 
L 206.974105 164.276534 
L 207.026753 164.402604 
L 207.066238 164.298786 
L 207.149596 164.380352 
L 207.167145 164.26911 
L 207.180307 164.335857 
L 207.261472 164.239444 
L 207.217599 164.380352 
L 207.309732 164.254291 
L 207.382122 164.380352 
L 207.338249 164.21721 
L 207.423801 164.335857 
L 208.013889 164.239444 
L 208.070923 164.209787 
L 208.040212 164.291362 
L 208.125764 164.224616 
L 208.206929 164.298786 
L 208.202541 164.172706 
L 208.235446 164.239444 
L 208.310029 164.128211 
L 208.285899 164.26911 
L 208.349515 164.194958 
L 208.474552 164.254291 
L 208.402162 164.128211 
L 208.476746 164.246858 
L 208.518425 164.150463 
L 208.483327 164.276534 
L 208.586428 164.21721 
L 208.671979 164.298786 
L 208.647849 164.187544 
L 208.698303 164.246858 
L 208.759725 164.283939 
L 208.812372 164.180121 
L 208.904505 164.298786 
L 208.878181 164.150463 
L 208.926441 164.21721 
L 209.051478 164.328443 
L 208.979088 164.172706 
L 209.053672 164.283939 
L 209.165547 164.076302 
L 209.169935 164.105968 
L 209.279616 164.21721 
L 209.20942 164.098545 
L 209.288391 164.165292 
L 209.323489 164.083716 
L 209.308134 164.21721 
L 209.398073 164.165292 
L 209.446333 164.246858 
L 209.490205 164.098545 
L 209.492399 164.120797 
L 209.516529 164.098545 
L 209.527497 164.21721 
L 209.597694 164.157869 
L 209.621824 164.254291 
L 209.654728 164.135617 
L 209.705182 164.143049 
L 209.777572 164.113374 
L 209.71615 164.21721 
L 209.810476 164.172706 
L 209.889447 164.202364 
L 209.858736 164.091122 
L 209.920158 164.157869 
L 209.955256 164.068879 
L 209.977192 164.246858 
L 210.034227 164.157869 
L 210.117585 164.224616 
L 210.062744 164.098545 
L 210.139521 164.128211 
L 210.148296 164.05405 
L 210.176813 164.180121 
L 210.249203 164.128211 
L 210.27114 164.187544 
L 210.286495 164.05405 
L 210.352304 164.083716 
L 210.429081 164.172706 
L 210.46418 164.039221 
L 210.545344 164.21721 
L 210.584829 164.187544 
L 210.637477 164.113374 
L 210.604572 164.21721 
L 210.696705 164.157869 
L 210.747159 164.21721 
L 210.723029 164.098545 
L 210.80858 164.187544 
L 210.83271 164.083716 
L 210.896326 164.21721 
L 210.922649 164.105968 
L 211.093753 164.187544 
L 211.095947 164.232039 
L 211.181498 164.113374 
L 211.203435 164.157869 
L 211.240727 164.21721 
L 211.214403 164.091122 
L 211.302148 164.135617 
L 211.335053 164.076302 
L 211.385506 164.180121 
L 211.41183 164.143049 
L 211.517125 164.180121 
L 211.468865 164.068879 
L 211.523705 164.150463 
L 211.600483 164.061464 
L 211.539061 164.180121 
L 211.644355 164.113374 
L 211.661905 164.180121 
L 211.710165 164.024375 
L 211.756231 164.120797 
L 211.8703 164.068879 
L 211.826427 164.21721 
L 211.874687 164.098545 
L 211.879074 164.187544 
L 211.938303 164.05405 
L 211.986563 164.120797 
L 211.999724 164.157869 
L 212.03921 164.024375 
L 212.08747 164.061464 
L 212.091857 164.031798 
L 212.173022 164.143049 
L 212.192764 164.143049 
L 212.743367 164.05405 
L 212.809176 164.024375 
L 212.776271 164.150463 
L 212.846468 164.120797 
L 212.861823 164.180121 
L 212.874985 164.061464 
L 212.956149 164.083716 
L 212.967118 164.150463 
L 212.98686 164.046627 
L 213.068025 164.098545 
L 213.127253 164.016969 
L 213.114091 164.135617 
L 213.182094 164.098545 
L 213.223773 164.157869 
L 213.232548 164.061464 
L 213.293969 164.113374 
L 213.39707 164.031798 
L 213.322487 164.135617 
L 213.401457 164.128211 
L 213.403651 164.150463 
L 213.462879 164.002132 
L 213.504558 164.05405 
L 214.888742 163.97988 
L 215.000618 163.876052 
L 214.950164 164.076302 
L 215.002811 163.89089 
L 215.112493 164.016969 
L 215.119074 163.97988 
L 216.402351 163.89089 
L 216.404545 163.868638 
L 216.441836 163.994726 
L 216.507645 163.950222 
L 216.615134 163.994726 
L 216.566874 163.89089 
L 216.619521 163.965051 
L 216.648038 163.883485 
L 216.623908 163.97988 
L 216.731396 163.950222 
L 216.836691 163.853809 
L 216.746752 163.97988 
L 216.843272 163.942799 
L 216.924436 163.987294 
L 216.865208 163.89089 
L 216.944179 163.898304 
L 216.957341 163.861233 
L 217.012182 163.994726 
L 217.056054 163.876052 
L 217.113089 163.987294 
L 217.154768 163.846395 
L 217.16793 163.905728 
L 217.630787 163.824143 
L 217.63298 163.794486 
L 217.709758 163.942799 
L 217.736081 163.905728 
L 217.852344 163.772243 
L 217.760211 163.950222 
L 217.854538 163.816738 
L 217.861118 163.957637 
L 217.966413 163.913133 
L 217.977381 163.824143 
L 218.038803 163.972474 
L 218.076095 163.898304 
L 218.183583 163.965051 
L 218.161647 163.801891 
L 218.18797 163.92798 
L 218.297652 163.868638 
L 218.192357 163.942799 
L 218.299846 163.905728 
L 218.433657 163.801891 
L 218.363461 163.935385 
L 218.435851 163.831557 
L 218.449013 163.965051 
L 218.466562 163.794486 
L 218.547726 163.846395 
L 218.62231 163.779657 
L 218.587212 163.883485 
L 218.650827 163.861233 
L 218.703475 163.92798 
L 218.729798 163.727739 
L 218.762703 163.89089 
L 218.780252 163.801891 
L 218.782445 163.757405 
L 218.826318 163.89089 
L 218.889934 163.831557 
L 218.894321 163.787062 
L 218.962324 163.898304 
L 218.999615 163.831557 
L 219.058843 163.801891 
L 219.111491 163.89089 
L 219.197043 163.809314 
L 219.212398 163.950222 
L 219.221172 163.920556 
L 219.315499 163.787062 
L 219.262852 163.950222 
L 219.335242 163.824143 
L 219.433955 163.89089 
L 219.447117 163.838981 
L 219.475634 163.883485 
L 219.56338 163.794486 
L 219.618221 163.876052 
L 219.607252 163.742567 
L 219.666481 163.76481 
L 219.679642 163.742567 
L 219.730096 163.876052 
L 219.752032 163.831557 
L 219.758613 163.913133 
L 219.782743 163.727739 
L 219.861714 163.831557 
L 219.894619 163.76481 
L 219.929717 163.868638 
L 219.973589 163.809314 
L 220.081078 163.876052 
L 219.988945 163.742567 
L 220.089852 163.861233 
L 220.157855 163.787062 
L 220.14908 163.89089 
L 220.203921 163.809314 
L 220.296054 163.898304 
L 220.265343 163.801891 
L 220.315797 163.831557 
L 220.350895 163.898304 
L 220.375025 163.76481 
L 220.427672 163.846395 
L 220.484707 163.727739 
L 220.445221 163.861233 
L 220.539547 163.816738 
L 220.765492 163.742567 
L 220.780847 163.772243 
L 220.879561 163.668415 
L 220.940983 163.76481 
L 220.99363 163.816738 
L 221.011179 163.683244 
L 221.050665 163.772243 
L 221.125248 163.683244 
L 221.149378 163.779657 
L 221.16254 163.757405 
L 221.395065 163.668415 
L 221.397259 163.631325 
L 221.491585 163.779657 
L 221.502553 163.690658 
L 221.57275 163.779657 
L 221.579331 163.661001 
L 221.618816 163.742567 
L 221.908376 163.690658 
L 221.91057 163.62392 
L 221.998315 163.76481 
L 222.020251 163.653568 
L 222.035607 163.757405 
L 222.132127 163.661001 
L 222.215485 163.76481 
L 222.169419 163.631325 
L 222.246196 163.71291 
L 222.349297 163.638749 
L 222.270326 163.76481 
L 222.362459 163.705496 
L 222.364652 163.735162 
L 222.397557 163.62392 
L 222.469947 163.661001 
L 222.494077 163.742567 
L 222.474334 163.631325 
L 222.579628 163.646163 
L 222.68931 163.579416 
L 222.61692 163.735162 
L 222.693698 163.594245 
L 222.724408 163.579416 
L 222.812154 163.71291 
L 222.95474 163.653568 
L 223.040292 163.571993 
L 223.011775 163.71291 
L 223.066616 163.62392 
L 224.167821 163.520084 
L 224.170014 163.512678 
L 224.218274 163.646163 
L 224.240211 163.62392 
L 224.270921 163.67582 
L 224.259953 163.557173 
L 224.352086 163.653568 
L 224.398152 163.520084 
L 224.468349 163.557173 
L 224.492479 163.661001 
L 224.562675 163.534921 
L 224.584611 163.609073 
L 224.624097 163.646163 
L 224.593386 163.564578 
L 224.683325 163.564578 
L 224.694293 163.616497 
L 224.812749 163.505246 
L 224.865397 163.594245 
L 224.852235 163.453337 
L 224.926818 163.557173 
L 224.983853 163.520084 
L 225.014564 163.62392 
L 225.032113 163.58683 
L 225.806466 163.483003 
L 225.900793 163.164115 
L 225.95344 163.230862 
L 225.960021 163.319852 
L 226.017055 163.193772 
L 226.063122 163.238267 
L 226.385586 163.327266 
L 226.41191 163.267942 
L 226.499655 163.38659 
L 226.534753 163.438508 
L 226.613724 163.297609 
L 226.661984 163.460751 
L 226.624692 163.267942 
L 226.73218 163.379184 
L 226.782634 163.267942 
L 226.830894 163.445931 
L 226.844056 163.364356 
L 227.122648 163.445931 
L 227.124841 163.505246 
L 227.192844 163.38659 
L 227.234523 163.490426 
L 227.269621 163.520084 
L 227.276202 163.408842 
L 227.339818 163.460751 
L 227.394658 163.371761 
L 227.352979 163.490426 
L 227.453887 163.453337 
L 227.506534 163.505246 
L 227.493372 163.334689 
L 227.561375 163.431085 
L 227.642539 163.364356 
L 227.596473 163.468174 
L 227.666669 163.438508 
L 227.671056 163.490426 
L 227.679831 163.38659 
L 227.776351 163.468174 
L 227.831192 163.371761 
L 227.846547 163.505246 
L 227.888226 163.445931 
L 227.98694 163.38659 
L 227.949648 163.534921 
L 227.997908 163.438508 
L 228.111977 163.497832 
L 228.052749 163.38659 
L 228.114171 163.468174 
L 228.162431 163.371761 
L 228.223853 163.460751 
L 228.294049 163.490426 
L 228.230434 163.38659 
L 228.32476 163.438508 
L 228.379601 163.364356 
L 228.423473 163.505246 
L 228.434442 163.431085 
L 228.535349 163.542326 
L 228.511219 163.38659 
L 228.550704 163.490426 
L 228.59019 163.394004 
L 228.660386 163.520084 
L 229.257055 163.416256 
L 229.259249 163.408842 
L 229.300928 163.564578 
L 229.342607 163.505246 
L 229.386479 163.571993 
L 229.39306 163.483003 
L 229.454482 163.527498 
L 229.583907 163.438508 
L 229.5861 163.416256 
L 229.636554 163.542326 
L 229.687008 163.497832 
L 229.728687 163.54975 
L 229.787915 163.453337 
L 229.796689 163.475589 
L 229.869079 163.564578 
L 229.85153 163.408842 
L 229.904177 163.497832 
L 229.969986 163.401436 
L 229.956825 163.542326 
L 230.016053 163.475589 
L 230.103798 163.438508 
L 230.110379 163.534921 
L 230.123541 163.497832 
L 230.746533 163.438508 
L 230.823311 163.379184 
L 230.799181 163.557173 
L 230.856215 163.468174 
L 230.959316 163.394004 
L 230.900088 163.490426 
L 230.981252 163.416256 
L 231.025125 163.505246 
L 231.053642 163.349509 
L 231.088741 163.379184 
L 231.196229 163.468174 
L 231.108483 163.334689 
L 231.200616 163.423679 
L 231.229133 163.356932 
L 231.246682 163.475589 
L 231.310298 163.431085 
L 231.358558 163.483003 
L 231.409011 163.371761 
L 231.41998 163.431085 
L 231.744638 163.334689 
L 231.810447 163.275357 
L 231.766574 163.438508 
L 231.852126 163.356932 
L 231.900386 163.460751 
L 231.889418 163.312437 
L 231.964001 163.38659 
L 232.047359 163.305014 
L 232.003487 163.438508 
L 232.084651 163.312437 
L 232.19872 163.438508 
L 232.205301 163.379184 
L 232.812938 163.483003 
L 232.815132 163.497832 
L 232.878747 163.334689 
L 232.913845 163.416256 
L 232.920426 163.349509 
L 233.001591 163.497832 
L 233.01914 163.497832 
L 233.023527 163.512678 
L 233.089336 163.342104 
L 233.120047 163.423679 
L 233.218761 163.379184 
L 233.135403 163.490426 
L 233.231922 163.38659 
L 233.299925 163.327266 
L 233.247278 163.453337 
L 233.348185 163.379184 
L 234.164218 163.445931 
L 234.166411 163.490426 
L 234.238801 163.371761 
L 234.273899 163.416256 
L 234.370419 163.379184 
L 234.322159 163.520084 
L 234.381387 163.423679 
L 234.491069 163.527498 
L 234.407711 163.379184 
L 234.504231 163.505246 
L 234.508618 163.408842 
L 234.57004 163.534921 
L 234.6183 163.416256 
L 234.692884 163.505246 
L 234.736756 163.475589 
L 234.749918 163.512678 
L 234.850825 163.371761 
L 234.903473 163.505246 
L 234.890311 163.356932 
L 234.967088 163.438508 
L 234.971475 163.356932 
L 235.057027 163.460751 
L 235.081157 163.38659 
L 235.153547 163.460751 
L 235.098706 163.305014 
L 235.195226 163.408842 
L 235.304908 163.282762 
L 235.219356 163.438508 
L 235.311489 163.297609 
L 235.372911 163.423679 
L 235.399234 163.275357 
L 235.425558 163.371761 
L 235.465043 163.290194 
L 235.447494 163.38659 
L 235.53524 163.38659 
L 235.87306 163.282762 
L 235.877447 163.253114 
L 235.936675 163.38659 
L 235.971773 163.379184 
L 236.07268 163.408842 
L 236.039776 163.290194 
L 236.083649 163.38659 
L 236.908456 163.334689 
L 236.910649 163.275357 
L 236.978652 163.401436 
L 237.020331 163.305014 
L 237.048848 163.379184 
L 237.079559 163.267942 
L 237.132206 163.342104 
L 237.154143 163.230862 
L 237.140981 163.364356 
L 237.246275 163.282762 
L 237.369119 163.364356 
L 237.323053 163.216024 
L 237.371313 163.327266 
L 237.391055 163.267942 
L 237.410798 163.38659 
L 237.480994 163.319852 
L 237.485382 163.38659 
L 237.564353 163.253114 
L 237.586289 163.253114 
L 237.617 163.356932 
L 237.669647 163.379184 
L 237.702552 163.238267 
L 237.717907 163.305014 
L 237.744231 163.230862 
L 237.801265 163.38659 
L 237.831976 163.290194 
L 237.851719 163.364356 
L 237.939464 163.24569 
L 237.941658 163.267942 
L 238.121536 163.371761 
L 238.125923 163.38659 
L 238.161021 163.275357 
L 238.218056 163.267942 
L 239.562755 163.193772 
L 239.564948 163.149277 
L 239.654887 163.290194 
L 239.670243 163.267942 
L 239.768956 163.305014 
L 239.676824 163.230862 
L 239.779924 163.290194 
L 239.786505 163.193772 
L 239.799667 163.342104 
L 239.887413 163.334689 
L 239.929092 163.38659 
L 239.959803 163.267942 
L 239.994901 163.349509 
L 240.111163 163.230862 
L 240.933777 163.149277 
L 240.93597 163.112197 
L 241.034684 163.253114 
L 241.043459 163.17152 
L 241.727873 163.067702 
L 241.844135 162.911956 
L 241.848523 162.971288 
L 241.964785 163.038035 
L 241.870459 162.911956 
L 241.966979 163.03063 
L 242.030595 162.95646 
L 241.97356 163.060278 
L 242.076661 163.03063 
L 242.186343 163.13444 
L 242.087629 162.986126 
L 242.195117 163.11962 
L 242.210473 163.03063 
L 242.232409 163.141872 
L 242.306993 163.067702 
L 242.324542 163.127025 
L 242.379383 163.04545 
L 242.416674 163.04545 
L 242.418868 163.03063 
L 242.478096 163.141872 
L 242.519775 163.08253 
L 242.524163 163.156692 
L 242.585584 163.023198 
L 242.629457 163.075125 
L 242.69746 163.112197 
L 242.732558 163.015783 
L 242.739139 163.060278 
L 242.802754 162.99354 
L 242.756688 163.13444 
L 242.848821 163.04545 
L 242.934372 163.186367 
L 242.857595 163.03063 
L 242.969471 163.178944 
L 243.076959 163.089945 
L 242.984826 163.223448 
L 243.085733 163.112197 
L 243.15593 163.186367 
L 243.129606 163.052873 
L 243.197609 163.13444 
L 243.25903 163.03063 
L 243.300709 163.17152 
L 243.311678 163.08253 
L 243.353357 163.193772 
L 243.42794 163.164115 
L 243.447683 163.04545 
L 243.502524 163.193772 
L 243.537622 163.11962 
L 243.557365 163.238267 
L 243.616593 163.104782 
L 243.649498 163.178944 
L 243.671434 163.11962 
L 243.706532 163.253114 
L 243.761373 163.149277 
L 243.912734 163.238267 
L 243.974156 163.267942 
L 243.923702 163.149277 
L 244.018028 163.193772 
L 244.129904 163.060278 
L 244.024609 163.230862 
L 244.134291 163.089945 
L 244.215455 163.008378 
L 244.274684 162.90455 
L 244.329525 162.926802 
L 244.362429 162.99354 
L 244.390946 162.830389 
L 244.439206 162.934208 
L 244.494047 162.822966 
L 244.485273 162.941631 
L 244.553275 162.882307 
L 244.559856 162.926802 
L 244.573018 162.793309 
L 244.662957 162.882307 
L 244.719992 162.800714 
L 244.761671 162.949036 
L 244.770445 162.911956 
L 244.963485 162.822966 
L 245.051231 162.771066 
L 244.983228 162.95646 
L 245.070973 162.889713 
L 245.095103 162.815561 
L 245.145557 162.95646 
L 245.176268 162.911956 
L 245.283756 162.963883 
L 245.204785 162.845218 
L 245.288143 162.949036 
L 245.400019 162.867461 
L 245.384663 162.986126 
L 245.404406 162.897136 
L 245.46144 162.99354 
L 245.487764 162.867461 
L 245.518475 162.926802 
L 245.60622 162.978703 
L 245.542605 162.867461 
L 245.634738 162.95646 
L 245.707128 162.874884 
L 245.696159 162.978703 
L 245.746613 162.911956 
L 245.790486 163.015783 
L 245.761969 162.882307 
L 245.860682 162.986126 
L 245.972558 162.897136 
L 245.884812 163.03063 
L 245.974751 162.926802 
L 246.012043 163.008378 
L 246.082239 162.889713 
L 246.084433 162.867461 
L 246.152436 162.986126 
L 246.18534 162.971288 
L 246.266505 163.015783 
L 246.202889 162.90455 
L 246.286247 162.941631 
L 246.391542 162.911956 
L 246.352056 163.000955 
L 246.395929 162.949036 
L 246.488062 163.04545 
L 246.45077 162.911956 
L 246.520966 162.986126 
L 246.584582 162.941631 
L 246.531935 163.03063 
L 246.630648 162.978703 
L 246.648197 163.03063 
L 246.670134 162.919388 
L 246.733749 162.934208 
L 246.74033 162.897136 
L 246.834656 163.03063 
L 246.920208 163.04545 
L 246.90924 162.941631 
L 246.937757 162.99354 
L 246.986017 162.934208 
L 246.961887 163.023198 
L 247.040858 163.03063 
L 247.043052 163.04545 
L 247.10228 162.949036 
L 247.148346 163.008378 
L 247.152733 162.963883 
L 247.216349 163.067702 
L 247.262415 162.978703 
L 247.339192 163.067702 
L 247.376484 163.060278 
L 247.462036 162.978703 
L 247.380872 163.089945 
L 247.492747 163.008378 
L 247.532232 162.926802 
L 247.499328 163.038035 
L 247.602429 163.023198 
L 247.68798 163.127025 
L 247.635333 162.963883 
L 247.716498 163.023198 
L 247.797662 163.089945 
L 247.828373 162.963883 
L 247.87444 163.075125 
L 247.940249 163.038035 
L 248.359233 163.052873 
L 248.359233 163.052873 
" clip-path="url(#p9e26ed04a2)" style="fill: none; stroke: #000000; stroke-opacity: 0.5; stroke-width: 1.5; stroke-linecap: square"/>
   </g>
   <g id="patch_3">
    <path d="M 35.304688 173.52 
L 35.304688 7.2 
" style="fill: none; stroke: #000000; stroke-width: 0.8; stroke-linejoin: miter; stroke-linecap: square"/>
   </g>
   <g id="patch_4">
    <path d="M 35.304688 173.52 
L 258.504687 173.52 
" style="fill: none; stroke: #000000; stroke-width: 0.8; stroke-linejoin: miter; stroke-linecap: square"/>
   </g>
  </g>
 </g>
 <defs>
  <clipPath id="p9e26ed04a2">
   <rect x="35.304688" y="7.2" width="223.2" height="166.32"/>
  </clipPath>
 </defs>
</svg>
