<?xml version="1.0" encoding="utf-8" standalone="no"?>
<!DOCTYPE svg PUBLIC "-//W3C//DTD SVG 1.1//EN"
  "http://www.w3.org/Graphics/SVG/1.1/DTD/svg11.dtd">
<svg xmlns:xlink="http://www.w3.org/1999/xlink" width="272.067187pt" height="197.398125pt" viewBox="0 0 272.067187 197.398125" xmlns="http://www.w3.org/2000/svg" version="1.1">
 <metadata>
  <rdf:RDF xmlns:dc="http://purl.org/dc/elements/1.1/" xmlns:cc="http://creativecommons.org/ns#" xmlns:rdf="http://www.w3.org/1999/02/22-rdf-syntax-ns#">
   <cc:Work>
    <dc:type rdf:resource="http://purl.org/dc/dcmitype/StillImage"/>
    <dc:date>2025-12-19T12:25:05.832614</dc:date>
    <dc:format>image/svg+xml</dc:format>
    <dc:creator>
     <cc:Agent>
      <dc:title>Matplotlib v3.10.7, https://matplotlib.org/</dc:title>
     </cc:Agent>
    </dc:creator>
   </cc:Work>
  </rdf:RDF>
 </metadata>
 <defs>
  <style type="text/css">*{stroke-linejoin: round; stroke-linecap: butt}</style>
 </defs>
 <g id="figure_1">
  <g id="patch_1">
   <path d="M 0 197.398125 
L 272.067187 197.398125 
L 272.067187 0 
L 0 0 
z
" style="fill: #ffffff"/>
  </g>
  <g id="axes_1">
   <g id="patch_2">
    <path d="M 41.667188 173.52 
L 264.867188 173.52 
L 264.867188 7.2 
L 41.667188 7.2 
z
" style="fill: #ffffff"/>
   </g>
   <g id="matplotlib.axis_1">
    <g id="xtick_1">
     <g id="line2d_1">
      <defs>
       <path id="m2edee2cca2" d="M 0 0 
L 0 3.5 
" style="stroke: #000000; stroke-width: 0.8"/>
      </defs>
      <g>
       <use xlink:href="#m2edee2cca2" x="82.712896" y="173.52" style="stroke: #000000; stroke-width: 0.8"/>
      </g>
     </g>
     <g id="text_1">
      <!-- 1 -->
      <g transform="translate(79.531646 188.118438) scale(0.1 -0.1)">
       <defs>
        <path id="DejaVuSans-31" d="M 794 531 
L 1825 531 
L 1825 4091 
L 703 3866 
L 703 4441 
L 1819 4666 
L 2450 4666 
L 2450 531 
L 3481 531 
L 3481 0 
L 794 0 
L 794 531 
z
" transform="scale(0.015625)"/>
       </defs>
       <use xlink:href="#DejaVuSans-31"/>
      </g>
     </g>
    </g>
    <g id="xtick_2">
     <g id="line2d_2">
      <g>
       <use xlink:href="#m2edee2cca2" x="134.213319" y="173.52" style="stroke: #000000; stroke-width: 0.8"/>
      </g>
     </g>
     <g id="text_2">
      <!-- 2 -->
      <g transform="translate(131.032069 188.118438) scale(0.1 -0.1)">
       <defs>
        <path id="DejaVuSans-32" d="M 1228 531 
L 3431 531 
L 3431 0 
L 469 0 
L 469 531 
Q 828 903 1448 1529 
Q 2069 2156 2228 2338 
Q 2531 2678 2651 2914 
Q 2772 3150 2772 3378 
Q 2772 3750 2511 3984 
Q 2250 4219 1831 4219 
Q 1534 4219 1204 4116 
Q 875 4013 500 3803 
L 500 4441 
Q 881 4594 1212 4672 
Q 1544 4750 1819 4750 
Q 2544 4750 2975 4387 
Q 3406 4025 3406 3419 
Q 3406 3131 3298 2873 
Q 3191 2616 2906 2266 
Q 2828 2175 2409 1742 
Q 1991 1309 1228 531 
z
" transform="scale(0.015625)"/>
       </defs>
       <use xlink:href="#DejaVuSans-32"/>
      </g>
     </g>
    </g>
    <g id="xtick_3">
     <g id="line2d_3">
      <g>
       <use xlink:href="#m2edee2cca2" x="185.713741" y="173.52" style="stroke: #000000; stroke-width: 0.8"/>
      </g>
     </g>
     <g id="text_3">
      <!-- 3 -->
      <g transform="translate(182.532491 188.118438) scale(0.1 -0.1)">
       <defs>
        <path id="DejaVuSans-33" d="M 2597 2516 
Q 3050 2419 3304 2112 
Q 3559 1806 3559 1356 
Q 3559 666 3084 287 
Q 2609 -91 1734 -91 
Q 1441 -91 1130 -33 
Q 819 25 488 141 
L 488 750 
Q 750 597 1062 519 
Q 1375 441 1716 441 
Q 2309 441 2620 675 
Q 2931 909 2931 1356 
Q 2931 1769 2642 2001 
Q 2353 2234 1838 2234 
L 1294 2234 
L 1294 2753 
L 1863 2753 
Q 2328 2753 2575 2939 
Q 2822 3125 2822 3475 
Q 2822 3834 2567 4026 
Q 2313 4219 1838 4219 
Q 1578 4219 1281 4162 
Q 984 4106 628 3988 
L 628 4550 
Q 988 4650 1302 4700 
Q 1616 4750 1894 4750 
Q 2613 4750 3031 4423 
Q 3450 4097 3450 3541 
Q 3450 3153 3228 2886 
Q 3006 2619 2597 2516 
z
" transform="scale(0.015625)"/>
       </defs>
       <use xlink:href="#DejaVuSans-33"/>
      </g>
     </g>
    </g>
    <g id="xtick_4">
     <g id="line2d_4">
      <g>
       <use xlink:href="#m2edee2cca2" x="237.214164" y="173.52" style="stroke: #000000; stroke-width: 0.8"/>
      </g>
     </g>
     <g id="text_4">
      <!-- 4 -->
      <g transform="translate(234.032914 188.118438) scale(0.1 -0.1)">
       <defs>
        <path id="DejaVuSans-34" d="M 2419 4116 
L 825 1625 
L 2419 1625 
L 2419 4116 
z
M 2253 4666 
L 3047 4666 
L 3047 1625 
L 3713 1625 
L 3713 1100 
L 3047 1100 
L 3047 0 
L 2419 0 
L 2419 1100 
L 313 1100 
L 313 1709 
L 2253 4666 
z
" transform="scale(0.015625)"/>
       </defs>
       <use xlink:href="#DejaVuSans-34"/>
      </g>
     </g>
    </g>
   </g>
   <g id="matplotlib.axis_2">
    <g id="ytick_1">
     <g id="line2d_5">
      <defs>
       <path id="m6e06760194" d="M 0 0 
L -3.5 0 
" style="stroke: #000000; stroke-width: 0.8"/>
      </defs>
      <g>
       <use xlink:href="#m6e06760194" x="41.667188" y="171.477449" style="stroke: #000000; stroke-width: 0.8"/>
      </g>
     </g>
     <g id="text_5">
      <!-- −100 -->
      <g transform="translate(7.2 175.276668) scale(0.1 -0.1)">
       <defs>
        <path id="DejaVuSans-2212" d="M 678 2272 
L 4684 2272 
L 4684 1741 
L 678 1741 
L 678 2272 
z
" transform="scale(0.015625)"/>
        <path id="DejaVuSans-30" d="M 2034 4250 
Q 1547 4250 1301 3770 
Q 1056 3291 1056 2328 
Q 1056 1369 1301 889 
Q 1547 409 2034 409 
Q 2525 409 2770 889 
Q 3016 1369 3016 2328 
Q 3016 3291 2770 3770 
Q 2525 4250 2034 4250 
z
M 2034 4750 
Q 2819 4750 3233 4129 
Q 3647 3509 3647 2328 
Q 3647 1150 3233 529 
Q 2819 -91 2034 -91 
Q 1250 -91 836 529 
Q 422 1150 422 2328 
Q 422 3509 836 4129 
Q 1250 4750 2034 4750 
z
" transform="scale(0.015625)"/>
       </defs>
       <use xlink:href="#DejaVuSans-2212"/>
       <use xlink:href="#DejaVuSans-31" transform="translate(83.789062 0)"/>
       <use xlink:href="#DejaVuSans-30" transform="translate(147.412109 0)"/>
       <use xlink:href="#DejaVuSans-30" transform="translate(211.035156 0)"/>
      </g>
     </g>
    </g>
    <g id="ytick_2">
     <g id="line2d_6">
      <g>
       <use xlink:href="#m6e06760194" x="41.667188" y="150.430204" style="stroke: #000000; stroke-width: 0.8"/>
      </g>
     </g>
     <g id="text_6">
      <!-- −80 -->
      <g transform="translate(13.5625 154.229422) scale(0.1 -0.1)">
       <defs>
        <path id="DejaVuSans-38" d="M 2034 2216 
Q 1584 2216 1326 1975 
Q 1069 1734 1069 1313 
Q 1069 891 1326 650 
Q 1584 409 2034 409 
Q 2484 409 2743 651 
Q 3003 894 3003 1313 
Q 3003 1734 2745 1975 
Q 2488 2216 2034 2216 
z
M 1403 2484 
Q 997 2584 770 2862 
Q 544 3141 544 3541 
Q 544 4100 942 4425 
Q 1341 4750 2034 4750 
Q 2731 4750 3128 4425 
Q 3525 4100 3525 3541 
Q 3525 3141 3298 2862 
Q 3072 2584 2669 2484 
Q 3125 2378 3379 2068 
Q 3634 1759 3634 1313 
Q 3634 634 3220 271 
Q 2806 -91 2034 -91 
Q 1263 -91 848 271 
Q 434 634 434 1313 
Q 434 1759 690 2068 
Q 947 2378 1403 2484 
z
M 1172 3481 
Q 1172 3119 1398 2916 
Q 1625 2713 2034 2713 
Q 2441 2713 2670 2916 
Q 2900 3119 2900 3481 
Q 2900 3844 2670 4047 
Q 2441 4250 2034 4250 
Q 1625 4250 1398 4047 
Q 1172 3844 1172 3481 
z
" transform="scale(0.015625)"/>
       </defs>
       <use xlink:href="#DejaVuSans-2212"/>
       <use xlink:href="#DejaVuSans-38" transform="translate(83.789062 0)"/>
       <use xlink:href="#DejaVuSans-30" transform="translate(147.412109 0)"/>
      </g>
     </g>
    </g>
    <g id="ytick_3">
     <g id="line2d_7">
      <g>
       <use xlink:href="#m6e06760194" x="41.667188" y="129.382959" style="stroke: #000000; stroke-width: 0.8"/>
      </g>
     </g>
     <g id="text_7">
      <!-- −60 -->
      <g transform="translate(13.5625 133.182177) scale(0.1 -0.1)">
       <defs>
        <path id="DejaVuSans-36" d="M 2113 2584 
Q 1688 2584 1439 2293 
Q 1191 2003 1191 1497 
Q 1191 994 1439 701 
Q 1688 409 2113 409 
Q 2538 409 2786 701 
Q 3034 994 3034 1497 
Q 3034 2003 2786 2293 
Q 2538 2584 2113 2584 
z
M 3366 4563 
L 3366 3988 
Q 3128 4100 2886 4159 
Q 2644 4219 2406 4219 
Q 1781 4219 1451 3797 
Q 1122 3375 1075 2522 
Q 1259 2794 1537 2939 
Q 1816 3084 2150 3084 
Q 2853 3084 3261 2657 
Q 3669 2231 3669 1497 
Q 3669 778 3244 343 
Q 2819 -91 2113 -91 
Q 1303 -91 875 529 
Q 447 1150 447 2328 
Q 447 3434 972 4092 
Q 1497 4750 2381 4750 
Q 2619 4750 2861 4703 
Q 3103 4656 3366 4563 
z
" transform="scale(0.015625)"/>
       </defs>
       <use xlink:href="#DejaVuSans-2212"/>
       <use xlink:href="#DejaVuSans-36" transform="translate(83.789062 0)"/>
       <use xlink:href="#DejaVuSans-30" transform="translate(147.412109 0)"/>
      </g>
     </g>
    </g>
    <g id="ytick_4">
     <g id="line2d_8">
      <g>
       <use xlink:href="#m6e06760194" x="41.667188" y="108.335714" style="stroke: #000000; stroke-width: 0.8"/>
      </g>
     </g>
     <g id="text_8">
      <!-- −40 -->
      <g transform="translate(13.5625 112.134932) scale(0.1 -0.1)">
       <use xlink:href="#DejaVuSans-2212"/>
       <use xlink:href="#DejaVuSans-34" transform="translate(83.789062 0)"/>
       <use xlink:href="#DejaVuSans-30" transform="translate(147.412109 0)"/>
      </g>
     </g>
    </g>
    <g id="ytick_5">
     <g id="line2d_9">
      <g>
       <use xlink:href="#m6e06760194" x="41.667188" y="87.288469" style="stroke: #000000; stroke-width: 0.8"/>
      </g>
     </g>
     <g id="text_9">
      <!-- −20 -->
      <g transform="translate(13.5625 91.087687) scale(0.1 -0.1)">
       <use xlink:href="#DejaVuSans-2212"/>
       <use xlink:href="#DejaVuSans-32" transform="translate(83.789062 0)"/>
       <use xlink:href="#DejaVuSans-30" transform="translate(147.412109 0)"/>
      </g>
     </g>
    </g>
    <g id="ytick_6">
     <g id="line2d_10">
      <g>
       <use xlink:href="#m6e06760194" x="41.667188" y="66.241223" style="stroke: #000000; stroke-width: 0.8"/>
      </g>
     </g>
     <g id="text_10">
      <!-- 0 -->
      <g transform="translate(28.304688 70.040442) scale(0.1 -0.1)">
       <use xlink:href="#DejaVuSans-30"/>
      </g>
     </g>
    </g>
    <g id="ytick_7">
     <g id="line2d_11">
      <g>
       <use xlink:href="#m6e06760194" x="41.667188" y="45.193978" style="stroke: #000000; stroke-width: 0.8"/>
      </g>
     </g>
     <g id="text_11">
      <!-- 20 -->
      <g transform="translate(21.942188 48.993197) scale(0.1 -0.1)">
       <use xlink:href="#DejaVuSans-32"/>
       <use xlink:href="#DejaVuSans-30" transform="translate(63.623047 0)"/>
      </g>
     </g>
    </g>
    <g id="ytick_8">
     <g id="line2d_12">
      <g>
       <use xlink:href="#m6e06760194" x="41.667188" y="24.146733" style="stroke: #000000; stroke-width: 0.8"/>
      </g>
     </g>
     <g id="text_12">
      <!-- 40 -->
      <g transform="translate(21.942188 27.945952) scale(0.1 -0.1)">
       <use xlink:href="#DejaVuSans-34"/>
       <use xlink:href="#DejaVuSans-30" transform="translate(63.623047 0)"/>
      </g>
     </g>
    </g>
   </g>
   <g id="line2d_13">
    <path d="M 51.812642 134.743687 
L 51.892468 134.775803 
L 51.869293 134.679456 
L 51.918218 134.711572 
L 51.936243 134.615225 
L 51.956843 134.743687 
L 52.028944 134.711572 
L 52.093319 134.647341 
L 52.057269 134.775803 
L 52.137095 134.743687 
L 52.590298 134.647341 
L 52.646949 134.615225 
L 52.657249 134.743687 
L 52.693299 134.679456 
L 52.804025 134.87215 
L 52.809175 134.807918 
L 52.927626 134.904265 
L 52.948226 134.936381 
L 52.963676 134.775803 
L 53.035777 134.87215 
L 53.602282 134.936381 
L 53.666657 135.032727 
L 53.620307 134.904265 
L 53.713008 135.000612 
L 53.723308 134.904265 
L 53.772233 135.032727 
L 53.826309 134.968496 
L 53.931884 135.129074 
L 53.94476 135.064843 
L 54.04776 135.161189 
L 54.153336 135.193305 
L 54.094111 135.096958 
L 54.155911 135.161189 
L 54.199687 135.129074 
L 54.222862 135.289652 
L 54.258912 135.225421 
L 54.325863 135.321767 
L 54.269212 135.193305 
L 54.372213 135.289652 
L 54.861467 135.225421 
L 54.882067 135.257536 
L 54.974768 135.096958 
L 55.003093 135.193305 
L 55.070044 135.032727 
L 55.085494 135.129074 
L 55.193645 135.032727 
L 55.098369 135.193305 
L 55.198795 135.064843 
L 55.276045 135.129074 
L 55.203945 135.000612 
L 55.306946 135.064843 
L 55.363596 135.000612 
L 55.350721 135.129074 
L 55.415097 135.064843 
L 55.492347 135.225421 
L 55.525823 135.096958 
L 55.528398 135.032727 
L 55.548998 135.161189 
L 55.633973 135.129074 
L 55.984176 135.032727 
L 56.087177 134.968496 
L 55.994476 135.129074 
L 56.092327 135.064843 
L 56.535231 135.161189 
L 56.594456 135.225421 
L 56.545531 135.096958 
L 56.643382 135.129074 
L 56.823633 135.193305 
L 56.924059 135.257536 
L 56.872559 135.096958 
L 56.931784 135.161189 
L 56.934359 135.129074 
L 56.967834 136.028309 
L 57.168686 141.744877 
L 57.171261 141.712761 
L 57.215036 142.547766 
L 57.822741 148.778182 
L 57.825316 148.713951 
L 57.897417 149.292031 
L 57.910292 149.292031 
L 58.134319 150.73723 
L 58.136894 150.705115 
L 58.21157 151.122617 
L 58.21672 151.058386 
L 58.396971 151.925506 
L 58.433021 152.021852 
L 58.590098 152.632048 
L 58.595248 152.599932 
L 58.669923 152.856856 
L 58.677648 152.856856 
L 58.798674 153.274359 
L 58.801249 153.242243 
L 58.886225 153.563398 
L 58.8888 153.531283 
L 59.012401 153.884554 
L 59.014976 153.852438 
L 59.102527 154.077247 
L 59.112827 154.013016 
L 59.220978 154.334172 
L 59.233853 154.269941 
L 59.362604 154.526865 
L 59.367754 154.494749 
L 59.450155 154.719558 
L 59.460455 154.687443 
L 59.550581 154.783789 
L 59.679332 155.072829 
L 59.681907 155.040714 
L 59.761732 155.13706 
L 59.890483 155.361869 
L 59.936834 155.297638 
L 59.926534 155.393985 
L 59.998634 155.393985 
L 60.122235 155.554562 
L 60.12481 155.490331 
L 60.163436 155.618794 
L 60.230386 155.618794 
L 60.269011 155.554562 
L 60.341112 155.683025 
L 60.359137 155.586678 
L 60.384887 155.71514 
L 60.451838 155.683025 
L 60.459563 155.650909 
L 60.565139 155.747256 
L 60.601189 155.683025 
L 60.644965 155.843602 
L 60.67844 155.71514 
L 60.711915 155.811487 
L 60.72994 155.875718 
L 60.753115 155.747256 
L 60.820066 155.811487 
L 60.894742 155.747256 
L 60.930792 155.811487 
L 61.26297 155.747256 
L 61.265545 155.683025 
L 61.27327 155.811487 
L 61.371121 155.811487 
L 61.396871 155.747256 
L 61.386571 155.875718 
L 61.476696 155.811487 
L 61.566822 155.875718 
L 61.530772 155.71514 
L 61.587422 155.843602 
L 61.664673 155.747256 
L 61.698148 155.811487 
L 61.8784 155.71514 
L 61.996851 155.4261 
L 62.025176 155.490331 
L 62.092126 155.265523 
L 62.097276 155.329754 
L 62.200277 155.201291 
L 62.210577 155.265523 
L 62.298128 155.329754 
L 62.256928 155.233407 
L 62.321303 155.265523 
L 62.395979 155.169176 
L 62.349629 155.297638 
L 62.432029 155.265523 
L 62.885233 155.201291 
L 62.957334 155.13706 
L 62.913558 155.265523 
L 62.995959 155.201291 
L 63.227711 155.265523 
L 63.276636 155.329754 
L 63.258611 155.201291 
L 63.338437 155.265523 
L 63.858591 155.169176 
L 63.956442 155.104945 
L 63.889491 155.201291 
L 63.966742 155.201291 
L 64.103218 155.13706 
L 64.154718 155.072829 
L 64.139268 155.201291 
L 64.211369 155.13706 
L 64.224244 155.201291 
L 64.257719 155.072829 
L 64.31952 155.072829 
L 64.352995 155.201291 
L 64.417371 155.040714 
L 64.432821 155.104945 
L 64.566722 155.040714 
L 64.569297 154.976483 
L 64.607922 155.13706 
L 64.674873 155.072829 
L 64.798474 154.976483 
L 64.9401 154.494749 
L 64.94525 154.526865 
L 65.411329 154.55898 
L 65.413904 154.655327 
L 65.496304 154.494749 
L 65.522055 154.55898 
L 65.630205 154.655327 
L 65.635356 154.623212 
L 65.661106 154.55898 
L 65.725481 154.687443 
L 65.743506 154.655327 
L 66.001009 154.751674 
L 66.003584 154.783789 
L 66.031909 154.687443 
L 66.111734 154.751674 
L 66.21731 154.623212 
L 66.19156 154.815905 
L 66.22246 154.687443 
L 66.263661 154.815905 
L 66.235335 154.655327 
L 66.330611 154.687443 
L 66.394987 154.623212 
L 66.343486 154.751674 
L 66.441337 154.655327 
L 66.557213 154.719558 
L 66.564938 154.623212 
L 66.662789 154.815905 
L 66.665364 154.751674 
L 66.902266 154.655327 
L 66.984667 154.623212 
L 66.912566 154.751674 
L 67.010417 154.687443 
L 67.172643 154.591096 
L 67.180368 154.655327 
L 67.327144 151.31531 
L 67.569196 146.401631 
L 67.785498 143.768156 
L 67.800948 143.67181 
L 67.932274 142.387188 
L 68.194927 140.49237 
L 68.197502 140.524486 
L 68.267027 140.042753 
L 68.269602 140.074868 
L 68.411228 139.239864 
L 68.418953 139.304095 
L 68.488479 138.886593 
L 68.491054 138.918709 
L 68.62753 138.276398 
L 68.794906 137.569856 
L 68.810357 137.601971 
L 68.872157 137.280816 
L 68.882457 137.312931 
L 69.039533 136.734851 
L 69.054984 136.766967 
L 69.116784 136.510042 
L 69.132234 136.542158 
L 69.255835 136.221003 
L 69.325361 136.156771 
L 69.451537 135.771385 
L 69.477287 135.8035 
L 69.536513 135.610807 
L 69.549388 135.707154 
L 69.662689 135.385998 
L 69.667839 135.418114 
L 69.716764 135.321767 
L 69.830065 135.129074 
L 69.739939 135.353883 
L 69.840365 135.161189 
L 69.881565 135.096958 
L 69.899591 135.129074 
L 69.997441 134.904265 
L 70.005166 134.968496 
L 70.079842 134.743687 
L 70.095292 134.807918 
L 70.195718 134.615225 
L 70.211168 134.647341 
L 70.370819 134.550994 
L 70.388845 134.58311 
L 70.491845 134.422532 
L 70.49957 134.486763 
L 70.527896 134.358301 
L 70.599996 134.390416 
L 70.641197 134.29407 
L 70.664372 134.326185 
L 70.759648 134.197723 
L 71.357053 134.133492 
L 71.457478 134.037145 
L 71.362203 134.165607 
L 71.467778 134.101376 
L 71.524429 134.00503 
L 71.578504 134.133492 
L 71.650605 134.00503 
L 71.691805 134.069261 
L 71.756181 134.101376 
L 71.733006 133.972914 
L 71.799956 134.037145 
L 72.412811 134.101376 
L 72.518387 134.197723 
L 72.448861 134.037145 
L 72.523537 134.165607 
L 72.809364 134.261954 
L 72.84284 134.197723 
L 72.922665 134.29407 
L 73.025666 134.197723 
L 73.035966 134.261954 
L 73.476295 134.358301 
L 73.589596 134.486763 
L 73.48402 134.326185 
L 73.594746 134.454647 
L 73.841948 134.390416 
L 73.859973 134.486763 
L 73.955249 134.29407 
L 73.973274 134.358301 
L 73.983574 134.422532 
L 74.050525 134.29407 
L 74.084 134.358301 
L 74.393002 134.29407 
L 74.485703 134.165607 
L 74.470253 134.326185 
L 74.503728 134.261954 
L 74.570679 134.326185 
L 74.686555 134.454647 
L 74.805006 134.326185 
L 74.920882 134.486763 
L 75.031608 134.390416 
L 75.036758 134.422532 
L 75.134609 134.58311 
L 75.155209 134.550994 
L 75.250484 134.615225 
L 75.26851 134.486763 
L 75.36121 134.647341 
L 75.286535 134.454647 
L 75.386961 134.615225 
L 75.399836 134.550994 
L 75.392111 134.679456 
L 75.495111 134.615225 
L 75.592962 134.743687 
L 75.505412 134.58311 
L 75.608412 134.711572 
L 75.675363 134.58311 
L 75.639313 134.743687 
L 75.719138 134.711572 
L 75.732013 134.615225 
L 75.765489 134.775803 
L 75.829864 134.711572 
L 76.092516 134.807918 
L 76.097666 134.775803 
L 76.205817 134.87215 
L 76.228993 134.807918 
L 76.306243 134.968496 
L 76.313968 134.904265 
L 76.424694 134.968496 
L 76.331993 134.87215 
L 76.427269 134.936381 
L 76.537995 134.840034 
L 76.455594 135.000612 
L 76.54057 134.87215 
L 76.563745 134.968496 
L 76.568895 135.032727 
L 76.57662 134.904265 
L 76.671896 134.936381 
L 77.027249 134.968496 
L 77.091625 135.096958 
L 77.137975 135.000612 
L 77.220376 134.936381 
L 77.189475 135.096958 
L 77.248701 134.968496 
L 77.351702 135.000612 
L 77.292476 134.904265 
L 77.356852 134.936381 
L 77.403202 134.87215 
L 77.369727 135.000612 
L 77.467578 134.904265 
L 77.477878 134.87215 
L 77.583454 135.000612 
L 77.70963 134.615225 
L 77.732805 134.518879 
L 77.851256 134.326185 
L 77.956832 134.550994 
L 77.964557 134.486763 
L 78.149958 134.518879 
L 78.263259 134.711572 
L 78.33536 134.679456 
L 78.348235 134.775803 
L 78.36626 134.743687 
L 78.474411 134.840034 
L 78.40231 134.679456 
L 78.479561 134.807918 
L 78.518186 134.775803 
L 78.577412 134.904265 
L 78.582562 134.87215 
L 78.695863 135.032727 
L 78.703588 135.000612 
L 78.731913 134.968496 
L 78.755088 135.129074 
L 78.806589 135.096958 
L 78.873539 135.161189 
L 78.829764 135.064843 
L 78.917315 135.129074 
L 78.97654 135.064843 
L 78.968815 135.225421 
L 79.025465 135.193305 
L 79.252067 135.129074 
L 79.254642 135.064843 
L 79.282968 135.193305 
L 79.360218 135.161189 
L 79.635745 135.193305 
L 79.718146 135.321767 
L 79.746471 135.257536 
L 79.754196 135.289652 
L 79.857197 135.193305 
L 79.949898 135.289652 
L 79.967923 135.225421 
L 79.970498 135.193305 
L 80.027149 135.321767 
L 80.073499 135.289652 
L 80.292376 135.353883 
L 80.385077 135.450229 
L 80.315551 135.289652 
L 80.403102 135.353883 
L 80.513828 135.482345 
L 80.415977 135.289652 
L 80.516403 135.418114 
L 80.521553 135.353883 
L 80.591078 135.51446 
L 80.624554 135.450229 
L 80.933556 135.51446 
L 80.985057 135.578692 
L 81.023682 135.450229 
L 81.041707 135.450229 
L 81.147283 135.51446 
L 81.149858 135.578692 
L 81.234834 135.418114 
L 81.258009 135.546576 
L 81.342984 135.418114 
L 81.314659 135.578692 
L 81.37646 135.450229 
L 81.685462 135.353883 
L 81.749838 135.321767 
L 81.703487 135.450229 
L 81.793613 135.353883 
L 81.883739 135.450229 
L 81.811638 135.321767 
L 81.909489 135.418114 
L 82.151541 135.482345 
L 82.185016 135.578692 
L 82.215917 135.450229 
L 82.264842 135.546576 
L 82.372993 135.450229 
L 82.378143 135.51446 
L 82.460544 135.578692 
L 82.470844 135.450229 
L 82.483719 135.482345 
L 82.532644 135.418114 
L 82.494019 135.546576 
L 82.594445 135.450229 
L 82.59702 135.51446 
L 82.635645 135.385998 
L 82.705171 135.482345 
L 82.707746 135.450229 
L 82.718046 136.702736 
L 82.931773 145.727205 
L 83.065674 148.778182 
L 83.271675 152.375123 
L 83.2794 152.47147 
L 84.008131 160.211317 
L 84.013281 160.179201 
L 84.077657 160.725166 
L 84.080232 160.69305 
L 84.296534 162.009788 
L 84.311984 162.041903 
L 84.43301 162.71633 
L 84.43816 162.684214 
L 84.46391 162.780561 
L 84.631286 163.551334 
L 84.639012 163.487103 
L 84.716262 163.93672 
L 84.726562 163.904605 
L 84.754888 164.000952 
L 84.881064 164.386338 
L 84.922264 164.482685 
L 85.030415 164.771725 
L 85.051015 164.739609 
L 85.107665 164.611147 
L 85.128266 164.80384 
L 85.154016 164.80384 
L 85.174616 164.835956 
L 85.192641 164.707494 
L 85.262167 164.80384 
L 85.272467 164.739609 
L 85.347142 164.932302 
L 85.367743 164.932302 
L 85.509369 165.38192 
L 85.514519 165.317689 
L 85.599494 165.574613 
L 85.61237 165.574613 
L 85.733396 165.67096 
L 85.833821 165.767307 
L 85.738546 165.638845 
L 85.846696 165.703076 
L 85.926522 165.767307 
L 86.014073 165.831538 
L 85.931672 165.735191 
L 86.037248 165.767307 
L 86.384876 165.863653 
L 86.408051 165.927884 
L 86.426076 165.799422 
L 86.495602 165.863653 
L 86.500752 165.799422 
L 86.567702 165.96 
L 86.603753 165.895769 
L 86.681003 165.831538 
L 86.758254 165.703076 
L 86.711904 165.863653 
L 86.794304 165.735191 
L 86.997731 165.67096 
L 87.100732 165.542498 
L 87.002881 165.703076 
L 87.108457 165.638845 
L 87.347934 165.574613 
L 87.430334 165.478267 
L 87.353084 165.606729 
L 87.456085 165.542498 
L 87.45866 165.606729 
L 87.53076 165.414036 
L 87.564236 165.510382 
L 87.674961 165.38192 
L 87.682687 165.414036 
L 87.741912 165.446151 
L 87.772812 165.317689 
L 87.788262 165.349805 
L 87.971089 165.253458 
L 88.08439 165.124996 
L 87.991689 165.285573 
L 88.08954 165.157111 
L 88.143615 165.09288 
L 88.254341 164.964418 
L 88.148765 165.124996 
L 88.256916 164.996534 
L 88.390817 164.707494 
L 88.442318 164.611147 
L 88.537594 164.386338 
L 88.452618 164.707494 
L 88.565919 164.450569 
L 88.573644 164.5148 
L 88.650894 164.257876 
L 88.666345 164.322107 
L 88.784796 164.097298 
L 88.789946 164.129414 
L 88.795096 164.161529 
L 88.877496 163.93672 
L 88.887796 164.000952 
L 89.011397 163.744027 
L 89.016547 163.776143 
L 89.042298 163.840374 
L 89.098948 163.647681 
L 89.119548 163.711912 
L 89.250874 163.390756 
L 89.124698 163.744027 
L 89.253449 163.422872 
L 89.286925 163.358641 
L 89.400226 163.037485 
L 89.407951 163.069601 
L 89.480051 162.973254 
L 89.593352 162.748445 
L 89.598502 162.780561 
L 89.629403 162.684214 
L 89.745278 162.491521 
L 89.634553 162.71633 
L 89.750429 162.555752 
L 89.781329 162.459405 
L 89.886905 162.266712 
L 89.786479 162.491521 
L 89.90493 162.298828 
L 89.907505 162.330943 
L 90.000206 162.106134 
L 90.041406 162.041903 
L 90.056856 162.074019 
L 90.167582 161.656517 
L 90.172732 161.720748 
L 90.257708 161.463823 
L 90.262858 161.463823 
L 90.381309 161.303246 
L 90.293758 161.528054 
L 90.383884 161.335361 
L 90.389034 161.367477 
L 90.466284 161.174783 
L 90.47916 161.174783 
L 90.600185 160.917859 
L 90.502335 161.206899 
L 90.602761 160.98209 
L 90.605336 161.014206 
L 90.669711 160.885743 
L 90.703186 160.885743 
L 90.834512 160.628819 
L 90.873138 160.69305 
L 90.932363 160.500357 
L 90.934938 160.532472 
L 90.945238 160.564588 
L 91.061114 160.275548 
L 91.063689 160.371895 
L 91.14609 160.11497 
L 91.169265 160.179201 
L 91.303166 159.890161 
L 91.323766 159.954393 
L 91.390717 159.729584 
L 91.411317 159.82593 
L 91.537493 159.601121 
L 91.558093 159.665353 
L 91.601869 159.472659 
L 91.637919 159.472659 
L 91.72547 159.376313 
L 91.841346 159.183619 
L 91.849071 159.215735 
L 91.908296 159.119388 
L 92.029322 158.862464 
L 91.916021 159.151504 
L 92.034472 158.894579 
L 92.039622 158.926695 
L 92.114298 158.669771 
L 92.129748 158.734002 
L 92.245624 158.573424 
L 92.322875 158.477077 
L 92.328025 158.509193 
L 92.449051 158.252268 
L 92.477376 158.3165 
L 92.523726 158.091691 
L 92.554627 158.220153 
L 92.675653 157.963229 
L 92.683378 157.995344 
L 92.685953 158.059575 
L 92.765778 157.834766 
L 92.788953 157.866882 
L 92.819854 157.834766 
L 92.933155 157.609958 
L 92.93573 157.642073 
L 92.974355 157.577842 
L 93.079931 157.44938 
L 92.99753 157.609958 
L 93.087656 157.513611 
L 93.108256 157.417264 
L 93.121131 157.481495 
L 93.231857 157.224571 
L 93.239582 157.288802 
L 93.303958 157.128224 
L 93.337433 157.16034 
L 93.381208 157.063993 
L 93.497084 156.935531 
L 93.414684 157.16034 
L 93.499659 156.967647 
L 93.548585 156.903415 
L 93.667036 156.678607 
L 93.674761 156.774953 
L 93.749436 156.58226 
L 93.770037 156.58226 
L 93.893638 156.421682 
L 93.901363 156.485913 
L 93.958013 156.261105 
L 93.996638 156.325336 
L 94.117664 156.132642 
L 94.143415 156.261105 
L 94.17174 156.036296 
L 94.225815 156.068411 
L 94.282466 156.100527 
L 94.326241 155.939949 
L 94.328816 155.972065 
L 94.444692 155.747256 
L 94.447267 155.779371 
L 94.501343 155.71514 
L 94.511643 155.779371 
L 94.619793 155.522447 
L 94.663569 155.490331 
L 94.77172 155.297638 
L 94.77687 155.361869 
L 94.85927 155.265523 
L 94.969996 155.13706 
L 94.866996 155.297638 
L 94.977721 155.169176 
L 95.031797 155.13706 
L 95.137373 154.944367 
L 95.057547 155.169176 
L 95.145098 154.976483 
L 95.157973 155.008598 
L 95.217198 154.84802 
L 95.248099 154.912251 
L 95.37685 154.655327 
L 95.456675 154.687443 
L 95.477276 154.55898 
L 95.482426 154.623212 
L 95.603452 154.398403 
L 95.608602 154.430518 
L 95.611177 154.462634 
L 95.654952 154.269941 
L 95.706452 154.269941 
L 95.750228 154.205709 
L 95.819753 154.077247 
L 95.765678 154.269941 
L 95.863529 154.109363 
L 95.989705 154.013016 
L 96.100431 153.820323 
L 96.00258 154.077247 
L 96.113306 153.852438 
L 96.146781 153.884554 
L 96.200856 153.723976 
L 96.216307 153.788207 
L 96.345058 153.467052 
L 96.347633 153.531283 
L 96.401708 153.467052 
L 96.509859 153.33859 
L 96.515009 153.370705 
L 96.525309 153.402821 
L 96.61286 153.210127 
L 96.615435 153.242243 
L 96.728736 153.113781 
L 96.641185 153.306474 
L 96.733886 153.145896 
L 96.805986 153.113781 
L 96.921862 152.888972 
L 96.927012 152.953203 
L 96.999113 152.76051 
L 97.027438 152.824741 
L 97.138164 152.599932 
L 97.153614 152.632048 
L 97.166489 152.696279 
L 97.21799 152.535701 
L 97.256615 152.535701 
L 97.364766 152.343008 
L 97.372491 152.407239 
L 97.375066 152.47147 
L 97.460042 152.214545 
L 97.478067 152.310892 
L 97.599093 152.118199 
L 97.485792 152.343008 
L 97.601668 152.150314 
L 97.645443 152.18243 
L 97.666044 152.021852 
L 97.704669 152.086083 
L 97.825695 151.89339 
L 97.82827 151.925506 
L 97.88492 151.829159 
L 98.000796 151.668581 
L 97.89522 151.861274 
L 98.003371 151.700697 
L 98.034272 151.732812 
L 98.057447 151.540119 
L 98.106372 151.60435 
L 98.129547 151.508003 
L 98.142422 151.540119 
L 98.247998 151.411657 
L 98.250573 151.475888 
L 98.335549 151.251079 
L 98.353574 151.283195 
L 98.454 151.218963 
L 98.559576 151.02627 
L 98.569876 151.090501 
L 98.580176 151.122617 
L 98.693477 150.897808 
L 98.716652 150.929924 
L 98.775878 150.705115 
L 98.793903 150.801461 
L 98.909779 150.576653 
L 98.912354 150.640884 
L 98.999904 150.44819 
L 99.015355 150.512421 
L 99.03338 150.544537 
L 99.138956 150.351844 
L 99.249682 150.255497 
L 99.344957 150.094919 
L 99.278007 150.351844 
L 99.362982 150.191266 
L 99.458258 149.998573 
L 99.478858 150.094919 
L 99.481433 150.127035 
L 99.561259 149.837995 
L 99.571559 149.87011 
L 99.67971 149.773764 
L 99.787861 149.581071 
L 99.69001 149.805879 
L 99.795586 149.613186 
L 99.836786 149.516839 
L 99.852236 149.581071 
L 99.957812 149.356262 
L 99.980988 149.420493 
L 100.060813 149.259915 
L 100.230765 149.163568 
L 100.23849 149.195684 
L 100.349216 149.002991 
L 100.359516 149.099337 
L 100.452216 148.906644 
L 100.454791 148.906644 
L 100.547492 148.842413 
L 100.663368 148.681835 
L 100.665943 148.713951 
L 100.745769 148.521257 
L 100.766369 148.617604 
L 100.89512 148.392795 
L 100.933745 148.424911 
L 100.967221 148.264333 
L 101.000696 148.328564 
L 101.088247 148.264333 
L 101.137172 148.328564 
L 101.201548 148.167986 
L 101.204123 148.232218 
L 101.296823 148.039524 
L 101.307123 148.07164 
L 101.422999 147.814715 
L 101.433299 147.878946 
L 101.50025 147.7826 
L 101.5054 147.814715 
L 101.621276 147.654138 
L 101.716552 147.557791 
L 101.750027 147.589907 
L 101.837578 147.429329 
L 101.896803 147.365098 
L 101.999804 147.172404 
L 101.901953 147.397213 
L 102.012679 147.20452 
L 102.015254 147.268751 
L 102.05903 147.108173 
L 102.118255 147.108173 
L 102.159455 147.076058 
L 102.272756 146.91548 
L 102.295932 146.947596 
L 102.342282 146.754902 
L 102.370607 146.787018 
L 102.496783 146.594325 
L 102.519958 146.658556 
L 102.576609 146.465862 
L 102.602359 146.530093 
L 102.677035 146.433747 
L 102.792911 146.305285 
L 102.68991 146.497978 
L 102.795486 146.3374 
L 102.890761 146.241054 
L 102.903637 146.305285 
L 103.004062 146.112591 
L 103.014362 146.176822 
L 103.096763 146.016245 
L 103.107063 146.016245 
L 103.210064 145.919898 
L 103.333665 145.75932 
L 103.34139 145.823551 
L 103.400616 145.630858 
L 103.441816 145.695089 
L 103.454691 145.727205 
L 103.560267 145.534511 
L 103.591167 145.598743 
L 103.663268 145.438165 
L 103.668418 145.47028 
L 103.727643 145.438165 
L 103.792019 145.213356 
L 103.843519 145.245472 
L 103.892445 145.213356 
L 104.008321 145.020663 
L 104.059821 145.084894 
L 104.082996 144.924316 
L 104.111321 144.924316 
L 104.232347 144.827969 
L 104.348223 144.603161 
L 104.247798 144.860085 
L 104.358523 144.635276 
L 104.394574 144.571045 
L 104.513025 144.378352 
L 104.523325 144.442583 
L 104.559375 144.314121 
L 104.618601 144.346236 
L 104.646926 144.378352 
L 104.739627 144.185658 
L 104.760227 144.24989 
L 104.798852 144.057196 
L 104.842627 144.121427 
L 104.963653 143.864503 
L 104.971378 143.896619 
L 105.061504 143.703925 
L 105.064079 143.736041 
L 105.18253 143.543347 
L 105.18768 143.575463 
L 105.190255 143.639694 
L 105.239181 143.447001 
L 105.293256 143.447001 
L 105.298406 143.543347 
L 105.385957 143.318539 
L 105.396257 143.350654 
L 105.506983 143.125845 
L 105.514708 143.157961 
L 105.525008 143.190076 
L 105.635734 142.997383 
L 105.646034 143.09373 
L 105.72071 142.868921 
L 105.733585 142.868921 
L 105.76191 142.933152 
L 105.857186 142.676228 
L 105.870061 142.772574 
L 105.952462 142.579881 
L 105.962762 142.579881 
L 106.088938 142.483534 
L 106.202239 142.355072 
L 106.101813 142.51565 
L 106.207389 142.387188 
L 106.227989 142.451419 
L 106.276914 142.322957 
L 106.318115 142.387188 
L 106.431415 142.194494 
L 106.439141 142.22661 
L 106.457166 142.258726 
L 106.518966 142.098148 
L 106.536991 142.162379 
L 106.652867 141.969686 
L 106.748143 141.841223 
L 106.694068 142.001801 
L 106.771318 141.873339 
L 106.827969 141.776992 
L 106.848569 141.809108 
L 106.94642 141.680646 
L 107.01852 141.712761 
L 107.041695 141.520068 
L 107.044271 141.552184 
L 107.154996 141.423721 
L 107.090621 141.584299 
L 107.160146 141.487952 
L 107.221947 141.391606 
L 107.348123 141.198912 
L 107.353273 141.263144 
L 107.407348 141.07045 
L 107.456274 141.166797 
L 107.471724 141.198912 
L 107.569575 140.974104 
L 107.59275 141.038335 
L 107.659701 140.877757 
L 107.672576 140.909873 
L 107.685451 140.941988 
L 107.791027 140.78141 
L 107.881152 140.813526 
L 107.894027 140.685064 
L 107.958403 140.652948 
L 107.968703 140.685064 
L 108.071704 140.524486 
L 108.20303 140.428139 
L 108.316331 140.203331 
L 108.326631 140.267562 
L 108.372981 140.171215 
L 108.496582 140.010637 
L 108.584133 139.978522 
L 108.689709 139.753713 
L 108.700009 139.785828 
L 108.75666 139.721597 
L 108.857085 139.528904 
L 108.86996 139.593135 
L 108.996137 139.368326 
L 108.998712 139.432557 
L 109.096562 139.207749 
L 109.099137 139.239864 
L 109.220163 139.015055 
L 109.222738 139.047171 
L 109.227888 139.111402 
L 109.302564 138.886593 
L 109.320589 138.886593 
L 109.421015 138.822362 
L 109.531741 138.661784 
L 109.536891 138.6939 
L 109.616717 138.629669 
L 109.624442 138.661784 
L 109.730018 138.501206 
L 109.737743 138.565438 
L 109.820143 138.372744 
L 109.835593 138.436975 
L 109.948894 138.244282 
L 109.954044 138.276398 
L 109.959194 138.340629 
L 110.02357 138.147935 
L 110.05962 138.180051 
L 110.098246 138.083704 
L 110.105971 138.11582 
L 110.221847 137.923127 
L 110.234722 137.987358 
L 110.317122 137.730433 
L 110.319697 137.858895 
L 110.427848 137.698318 
L 110.430423 137.730433 
L 110.469049 137.666202 
L 110.584925 137.53774 
L 110.67505 137.441393 
L 110.69565 137.505624 
L 110.798651 137.2487 
L 110.814101 137.312931 
L 110.899077 137.120238 
L 110.904227 137.184469 
L 111.032978 136.927545 
L 111.040703 136.991776 
L 111.115379 136.799082 
L 111.130829 136.799082 
L 111.231255 136.67062 
L 111.143704 136.927545 
L 111.246705 136.734851 
L 111.308506 136.702736 
L 111.411506 136.542158 
L 111.421806 136.574274 
L 111.460432 136.477927 
L 111.568583 136.349465 
L 111.473307 136.542158 
L 111.578883 136.38158 
L 111.650983 136.317349 
L 111.746259 136.060425 
L 111.656133 136.349465 
L 111.769434 136.124656 
L 111.805485 136.028309 
L 111.908485 135.771385 
L 111.931661 135.8035 
L 111.962561 135.835616 
L 112.016636 135.675038 
L 112.037236 135.739269 
L 112.142812 135.51446 
L 112.160838 135.578692 
L 112.184013 135.482345 
L 112.297314 135.289652 
L 112.307614 135.321767 
L 112.310189 135.353883 
L 112.364264 135.129074 
L 112.402889 135.129074 
L 112.508465 134.904265 
L 112.415765 135.161189 
L 112.52134 134.936381 
L 112.523915 135.000612 
L 112.585716 134.775803 
L 112.626916 134.840034 
L 112.747942 134.58311 
L 112.809743 134.486763 
L 112.923044 134.390416 
L 112.817468 134.550994 
L 112.925619 134.422532 
L 112.992569 134.358301 
L 113.103295 134.197723 
L 112.997719 134.390416 
L 113.10587 134.229839 
L 113.12132 134.29407 
L 113.162521 134.101376 
L 113.201146 134.133492 
L 113.317022 133.844452 
L 113.389123 133.908683 
L 113.407148 133.780221 
L 113.425173 133.844452 
L 113.533324 133.587528 
L 113.543624 133.651759 
L 113.597699 133.555412 
L 113.703275 133.362719 
L 113.713575 133.394834 
L 113.798551 133.298488 
L 113.806276 133.330603 
L 113.927302 133.041563 
L 113.950477 133.13791 
L 113.999403 132.945217 
L 114.032878 132.977332 
L 114.151329 132.752523 
L 114.153904 132.784639 
L 114.241455 132.591946 
L 114.24918 132.591946 
L 114.262055 132.527715 
L 114.375356 132.335021 
L 114.27493 132.55983 
L 114.377931 132.399252 
L 114.429431 132.302906 
L 114.542732 132.078097 
L 114.452606 132.367137 
L 114.550457 132.142328 
L 114.553032 132.206559 
L 114.599383 132.013866 
L 114.656033 132.013866 
L 114.658608 132.045981 
L 114.748734 131.821172 
L 114.756459 131.885404 
L 114.85946 131.69271 
L 114.872335 131.724826 
L 114.923835 131.660595 
L 115.031986 131.435786 
L 114.934135 131.69271 
L 115.039711 131.467901 
L 115.042286 131.532133 
L 115.137562 131.275208 
L 115.142712 131.275208 
L 115.237988 131.178862 
L 115.369314 130.921937 
L 115.433689 130.82559 
L 115.56244 130.504435 
L 115.56759 130.536551 
L 115.590766 130.632897 
L 115.655141 130.440204 
L 115.675741 130.504435 
L 115.760717 130.279626 
L 115.791617 130.343857 
L 115.886893 130.279626 
L 116.005344 130.022702 
L 116.007919 130.119048 
L 116.10577 129.830008 
L 116.11092 129.862124 
L 116.11607 129.926355 
L 116.180446 129.701546 
L 116.208771 129.701546 
L 116.252546 129.6052 
L 116.368422 129.444622 
L 116.373572 129.476737 
L 116.430223 129.284044 
L 116.471423 129.348275 
L 116.494598 129.31616 
L 116.605324 129.187698 
L 116.607899 129.219813 
L 116.610474 129.251929 
L 116.69545 128.995004 
L 116.70575 129.091351 
L 116.821626 128.802311 
L 116.826776 128.834427 
L 116.952952 128.609618 
L 116.955527 128.641733 
L 117.032778 128.416924 
L 117.048228 128.44904 
L 117.171829 128.288462 
L 117.231054 128.224231 
L 117.34693 128.031538 
L 117.36753 128.127884 
L 117.421606 127.967307 
L 117.455081 127.999422 
L 117.583832 127.774613 
L 117.630182 127.838845 
L 117.650783 127.678267 
L 117.689408 127.742498 
L 117.807859 127.517689 
L 117.833609 127.614036 
L 117.88511 127.421342 
L 117.913435 127.453458 
L 117.964935 127.389227 
L 117.97781 127.453458 
L 118.080811 127.260765 
L 118.132312 127.164418 
L 118.258488 126.939609 
L 118.261063 127.035956 
L 118.348613 126.746916 
L 118.364063 126.779031 
L 118.410414 126.682685 
L 118.423289 126.7148 
L 118.534015 126.522107 
L 118.59839 126.42576 
L 118.719416 126.200952 
L 118.618991 126.457876 
L 118.721991 126.233067 
L 118.791517 126.297298 
L 118.806967 126.13672 
L 118.830142 126.168836 
L 118.951168 125.976143 
L 118.987219 126.072489 
L 119.041294 125.847681 
L 119.051594 125.847681 
L 119.16232 125.654987 
L 119.056744 125.879796 
L 119.164895 125.687103 
L 119.16747 125.719218 
L 119.257596 125.462294 
L 119.291071 125.398063 
L 119.386347 125.109023 
L 119.409522 125.173254 
L 119.437847 125.109023 
L 119.545998 124.884214 
L 119.556298 124.91633 
L 119.636124 124.819983 
L 119.7417 124.595174 
L 119.7623 124.62729 
L 119.826675 124.530943 
L 119.937401 124.33825 
L 119.945126 124.402481 
L 119.950276 124.466712 
L 120.030102 124.241903 
L 120.042977 124.241903 
L 120.117653 124.145556 
L 120.236104 123.984979 
L 120.238679 124.017094 
L 120.264429 123.920748 
L 120.38803 123.76017 
L 120.421505 123.663823 
L 120.550256 123.406899 
L 120.555406 123.439014 
L 120.650682 123.278437 
L 120.694458 123.214206 
L 120.810334 122.957281 
L 120.702183 123.246321 
L 120.812909 123.021512 
L 120.846384 122.925166 
L 120.97256 122.571895 
L 120.98286 122.60401 
L 121.00861 122.507664 
L 121.145086 122.058046 
L 121.02406 122.571895 
L 121.152811 122.090161 
L 121.212037 122.02593 
L 121.325338 121.704775 
L 121.330488 121.769006 
L 121.335638 121.833237 
L 121.423189 121.544197 
L 121.469539 121.479966 
L 121.544215 121.287273 
L 121.497864 121.544197 
L 121.58284 121.415735 
L 121.631765 121.319388 
L 121.727041 120.966117 
L 121.768241 120.998233 
L 121.796567 120.901886 
L 121.930468 120.548615 
L 121.933043 120.644962 
L 122.023168 120.098997 
L 122.028319 120.098997 
L 122.090119 120.034766 
L 122.21372 119.553033 
L 122.26522 119.488802 
L 122.278096 119.520918 
L 122.388821 119.007069 
L 122.517573 118.557451 
L 122.715849 117.401291 
L 122.718424 117.433407 
L 122.723574 117.465523 
L 122.775075 117.015905 
L 122.795675 117.04802 
L 122.975926 112.840884 
L 123.009402 14.76 
L 123.094377 101.150824 
L 123.230853 124.819983 
L 123.354454 125.526525 
L 123.36733 125.49441 
L 123.38278 125.558641 
L 123.493506 125.719218 
L 123.390505 125.526525 
L 123.496081 125.687103 
L 123.568181 125.622872 
L 123.591356 125.751334 
L 123.609382 125.654987 
L 123.648007 125.558641 
L 123.779333 125.141138 
L 123.658307 125.590756 
L 123.789633 125.173254 
L 123.794783 125.237485 
L 123.864309 124.884214 
L 123.877184 124.884214 
L 124.03941 124.241903 
L 124.067735 124.145556 
L 124.224812 123.567477 
L 124.266012 123.47113 
L 124.438538 122.700357 
L 124.484889 122.60401 
L 124.64454 121.993815 
L 124.667715 121.897468 
L 124.817066 121.383619 
L 124.835092 121.415735 
L 124.907192 121.158811 
L 124.909767 121.158811 
L 124.927792 121.062464 
L 124.935517 121.094579 
L 125.084869 120.420153 
L 125.087444 120.484384 
L 125.177569 120.098997 
L 125.182719 120.098997 
L 125.20847 120.002651 
L 125.373271 119.296109 
L 125.383571 119.328224 
L 125.429921 118.974953 
L 125.453097 118.974953 
L 125.584423 118.107833 
L 125.586998 118.139949 
L 125.661673 117.690331 
L 125.664248 117.722447 
L 125.939776 115.667052 
L 125.942351 115.699167 
L 126.001576 115.088972 
L 126.004151 115.121088 
L 126.156077 111.267222 
L 126.192128 16.911742 
L 126.277103 97.168496 
L 126.416155 122.379201 
L 126.41873 122.347086 
L 126.568081 123.47113 
L 126.570656 123.439014 
L 126.573231 123.406899 
L 126.635031 123.695939 
L 126.663357 123.663823 
L 126.745757 123.728054 
L 126.720007 123.599592 
L 126.771507 123.599592 
L 126.799833 123.631708 
L 126.851333 123.406899 
L 126.866783 123.439014 
L 127.000684 123.021512 
L 127.005834 123.053628 
L 127.013559 123.117859 
L 127.067635 122.828819 
L 127.09596 122.860935 
L 127.232436 122.218624 
L 127.235011 122.250739 
L 127.309687 121.865353 
L 127.312262 121.865353 
L 127.479638 121.126695 
L 127.482213 121.158811 
L 127.556889 120.773424 
L 127.562039 120.80554 
L 127.739715 119.970535 
L 127.775766 119.906304 
L 127.907092 119.135531 
L 128.151719 117.433407 
L 128.159444 117.465523 
L 128.221244 117.04802 
L 128.231544 117.080136 
L 128.398921 115.570705 
L 128.401496 115.602821 
L 128.414371 115.506474 
L 128.617798 108.954902 
L 128.653848 18.613866 
L 128.736249 93.507324 
L 128.88045 121.351504 
L 128.898475 121.44785 
L 129.045251 122.475548 
L 129.047826 122.411317 
L 129.083876 122.475548 
L 129.176577 122.411317 
L 129.197177 122.571895 
L 129.336229 122.218624 
L 129.361979 122.122277 
L 129.50103 121.383619 
L 129.519055 121.287273 
L 129.768832 119.553033 
L 129.771407 119.585149 
L 129.835783 119.039184 
L 129.840933 119.0713 
L 130.036634 117.979371 
L 130.041784 118.011487 
L 130.108735 117.561869 
L 130.265811 116.341478 
L 130.268386 116.373594 
L 130.337912 115.859745 
L 130.657214 113.22627 
L 130.659789 113.258386 
L 130.71129 112.583959 
L 130.713865 112.583959 
L 130.79369 110.400102 
L 130.809141 98.067732 
L 130.840041 20.990416 
L 130.922442 91.291351 
L 131.064068 119.296109 
L 131.071793 119.36034 
L 131.228869 120.5165 
L 131.254619 120.580731 
L 131.35762 120.709193 
L 131.365345 120.580731 
L 131.385945 120.612846 
L 131.455471 120.323806 
L 131.470921 120.355922 
L 131.597097 119.906304 
L 131.599672 119.970535 
L 131.682073 119.585149 
L 131.694948 119.585149 
L 131.718123 119.488802 
L 131.849449 118.846491 
L 131.852024 118.878607 
L 131.888074 118.78226 
L 132.104376 117.465523 
L 132.106951 117.497638 
L 132.173902 117.015905 
L 132.176477 117.04802 
L 132.310378 116.084554 
L 132.312953 116.180901 
L 132.405654 115.602821 
L 132.408229 115.634936 
L 132.415954 115.570705 
L 132.57818 114.221852 
L 132.58333 114.253968 
L 132.639981 113.675888 
L 132.781607 112.519728 
L 132.995334 108.473169 
L 133.013359 101.47198 
L 133.051984 23.752353 
L 133.13181 90.07096 
L 133.276011 117.208598 
L 133.438237 118.685913 
L 133.443387 118.653798 
L 133.456262 118.750144 
L 133.597889 119.167647 
L 133.700889 119.039184 
L 133.621064 119.231878 
L 133.713764 119.0713 
L 133.718915 119.103415 
L 133.78844 118.718029 
L 133.79874 118.750144 
L 133.827065 118.653798 
L 133.963542 118.011487 
L 134.187568 116.566287 
L 134.192718 116.598403 
L 134.262244 116.245132 
L 134.272544 116.245132 
L 134.478546 115.024741 
L 134.486271 115.088972 
L 134.548071 114.543008 
L 134.550646 114.543008 
L 134.568671 114.446661 
L 135.01415 107.573934 
L 135.03475 85.67113 
L 135.063076 25.390246 
L 135.142901 87.983449 
L 135.289677 116.75898 
L 135.516279 118.20418 
L 135.518854 118.172065 
L 135.59353 118.364758 
L 135.61413 118.364758 
L 135.647605 118.268411 
L 135.657905 118.332642 
L 135.812407 117.561869 
L 135.814982 117.593985 
L 135.892232 117.176483 
L 135.894807 117.208598 
L 136.075059 116.341478 
L 136.077634 116.373594 
L 136.154885 115.956092 
L 136.15746 115.988207 
L 136.489637 113.22627 
L 136.502512 113.290501 
L 136.566888 112.808768 
L 136.966016 106.610467 
L 136.984041 95.980221 
L 137.022667 27.574104 
L 137.099917 85.799592 
L 137.246693 114.286083 
L 137.501621 116.116669 
L 137.617497 115.956092 
L 137.684447 115.859745 
L 137.851823 115.153203 
L 137.854398 115.185319 
L 137.931649 114.767816 
L 137.934224 114.832048 
L 138.135076 113.708003 
L 138.145376 113.611657 
L 138.299877 112.487613 
L 138.302452 112.551844 
L 138.382278 111.909533 
L 138.384853 111.909533 
L 138.523904 110.84972 
L 138.526479 110.881835 
L 138.583129 110.27164 
L 138.588279 110.27164 
L 138.61403 110.175293 
L 138.822606 107.702396 
L 138.832906 107.606049 
L 138.938482 104.940459 
L 138.959083 91.708853 
L 138.997708 30.689312 
L 139.074958 86.024401 
L 139.22431 112.776653 
L 139.453487 114.38243 
L 139.461212 114.350314 
L 139.569363 114.253968 
L 139.492112 114.38243 
L 139.574513 114.286083 
L 139.744464 113.51531 
L 139.752189 113.579541 
L 139.821715 113.290501 
L 139.837165 113.290501 
L 139.842315 113.194155 
L 140.074067 111.620493 
L 140.076642 111.684724 
L 140.159042 111.042413 
L 140.161617 111.074528 
L 140.411394 109.340289 
L 140.42942 109.372404 
L 140.49122 108.987018 
L 140.640571 107.95932 
L 140.643146 108.023551 
L 140.712672 107.220663 
L 140.715247 107.220663 
L 140.913524 93.571555 
L 140.959874 34.157791 
L 141.03455 82.523806 
L 141.189051 111.170875 
L 141.420803 112.680306 
L 141.423378 112.64819 
L 141.487753 112.969346 
L 141.505778 112.93723 
L 141.508353 113.001461 
L 141.580454 112.712421 
L 141.606204 112.712421 
L 141.63968 112.616075 
L 141.789031 112.102226 
L 141.809631 112.134342 
L 141.855981 111.813186 
L 141.871431 111.813186 
L 142.028508 110.592795 
L 142.046533 110.624911 
L 142.092883 110.143178 
L 142.100608 110.143178 
L 142.252535 109.083364 
L 142.27056 108.987018 
L 142.615613 106.032387 
L 142.618188 106.064503 
L 142.664538 105.390076 
L 142.672263 105.390076 
L 142.85509 98.774274 
L 142.91689 37.016075 
L 142.991566 85.028819 
L 143.140917 109.918369 
L 143.305718 111.267222 
L 143.331468 111.235106 
L 143.359794 111.363568 
L 143.413869 111.299337 
L 143.519445 111.363568 
L 143.49627 111.202991 
L 143.52717 111.331453 
L 143.707422 110.432218 
L 143.709997 110.464333 
L 143.779522 109.9826 
L 143.962349 109.083364 
L 143.990674 108.987018 
L 144.330577 106.064503 
L 143.998399 109.019133 
L 144.333152 106.096619 
L 144.335727 106.128734 
L 144.394952 105.518539 
L 144.611254 102.885064 
L 144.68593 100.572744 
L 144.719405 90.520578 
L 144.77348 39.64955 
L 144.845581 79.986678 
L 145.000082 107.509703 
L 145.141708 108.794325 
L 145.144283 108.762209 
L 145.267884 109.500867 
L 145.283334 109.468751 
L 145.29621 109.532982 
L 145.31681 109.661444 
L 145.39921 109.468751 
L 145.40436 109.500867 
L 145.471311 109.40452 
L 145.618087 108.858556 
L 145.623237 108.890671 
L 145.625812 108.922787 
L 145.685038 108.280476 
L 145.715938 108.184129 
L 145.924515 106.963738 
L 145.939965 106.899507 
L 146.117641 105.133152 
L 146.120216 105.165268 
L 146.122791 105.165268 
L 146.272143 103.206219 
L 146.462694 96.076568 
L 146.534795 43.696109 
L 146.60947 81.335531 
L 146.763972 104.490841 
L 146.977698 107.060085 
L 147.008599 107.156432 
L 147.160525 107.734511 
L 147.271251 107.573934 
L 147.20945 107.830858 
L 147.273826 107.606049 
L 147.276401 107.638165 
L 147.335626 107.477587 
L 147.374252 107.477587 
L 147.495278 107.220663 
L 147.503003 107.124316 
L 147.73733 105.518539 
L 147.508153 107.156432 
L 147.739905 105.550654 
L 147.74248 105.58277 
L 147.79398 104.876228 
L 147.796555 104.908343 
L 147.956206 103.591606 
L 147.958781 103.623721 
L 148.509836 95.466372 
L 148.556186 84.193815 
L 148.620562 48.73825 
L 148.682362 75.779541 
L 148.847164 102.756602 
L 149.063465 105.422192 
L 149.094366 105.518539 
L 149.102091 105.486423 
L 149.235992 105.936041 
L 149.277192 106.032387 
L 149.349293 105.775463 
L 149.375043 105.936041 
L 149.431694 105.58277 
L 149.452294 105.647001 
L 149.575895 105.229499 
L 149.591345 105.29373 
L 149.637695 105.197383 
L 149.789621 104.619303 
L 149.66087 105.229499 
L 149.792196 104.651419 
L 149.830822 104.555072 
L 150.041974 103.302566 
L 150.052274 103.206219 
L 150.2042 101.632557 
L 150.206775 101.664673 
L 150.26085 100.958131 
L 150.497752 97.746576 
L 150.500327 97.778692 
L 150.538953 96.943687 
L 150.683154 81.592455 
L 150.752679 53.105964 
L 150.80933 73.884724 
L 150.976706 100.990246 
L 151.136358 102.403331 
L 151.141508 102.339099 
L 151.156958 102.403331 
L 151.283134 103.174104 
L 151.285709 103.109873 
L 151.308884 103.206219 
L 151.417035 103.334681 
L 151.357809 103.109873 
L 151.422185 103.27045 
L 151.427335 103.206219 
L 151.47626 103.398912 
L 151.517461 103.398912 
L 151.561236 103.55949 
L 151.623037 103.27045 
L 151.625612 103.334681 
L 151.687412 103.238335 
L 151.749213 103.334681 
L 151.813588 103.045641 
L 151.818738 103.077757 
L 151.898564 102.756602 
L 151.901139 102.756602 
L 151.929464 102.660255 
L 152.07109 101.793135 
L 152.073665 101.825251 
L 152.08139 101.728904 
L 152.593819 94.021172 
L 152.722571 82.395344 
L 152.812696 60.685234 
L 152.869347 72.439524 
L 153.062473 97.329074 
L 153.067623 97.425421 
L 153.2453 99.994664 
L 153.253025 100.02678 
L 153.402376 101.600442 
L 153.404951 101.568326 
L 153.518252 101.889482 
L 153.538852 101.857366 
L 153.649578 101.921597 
L 153.683053 102.017944 
L 153.739704 101.76102 
L 153.755154 101.793135 
L 153.86073 101.889482 
L 153.92253 102.082175 
L 153.974031 101.953713 
L 153.989481 101.985828 
L 154.138832 101.215055 
L 154.141407 101.279286 
L 154.231533 100.8939 
L 154.236683 100.8939 
L 154.275308 100.797553 
L 154.514785 99.15966 
L 154.519935 99.191776 
L 154.576586 98.645811 
L 154.584311 98.645811 
L 154.615211 98.549465 
L 155.016914 92.190586 
L 155.161116 79.601291 
L 155.251241 63.67198 
L 155.310467 73.242413 
L 155.529344 94.791946 
L 156.062373 100.058895 
L 156.137049 99.898318 
L 156.082973 100.123127 
L 156.175674 99.994664 
L 156.196274 100.058895 
L 156.252925 99.769856 
L 156.278675 99.898318 
L 156.3173 99.866202 
L 156.376526 99.320238 
L 156.440901 99.352353 
L 156.461501 99.4487 
L 156.528452 99.15966 
L 156.536177 99.191776 
L 156.649478 98.58158 
L 156.667503 98.613696 
L 156.721578 98.677927 
L 156.757629 98.29254 
L 156.760204 98.29254 
L 156.791104 98.356771 
L 156.88638 97.682345 
L 157.159332 95.659065 
L 157.161907 95.691181 
L 157.218557 95.080986 
L 157.318983 94.406559 
L 157.355034 94.438675 
L 157.383359 94.342328 
L 157.530135 93.443093 
L 157.934413 89.749805 
L 157.965314 89.589227 
L 158.050289 89.814036 
L 158.052864 89.749805 
L 158.135265 90.36 
L 158.171315 90.231538 
L 158.266591 90.873849 
L 158.294916 90.93808 
L 158.359292 90.873849 
L 158.421092 91.355582 
L 158.475168 91.259235 
L 158.508643 91.548275 
L 158.516368 91.51616 
L 158.655419 92.286933 
L 158.760995 92.158471 
L 158.665719 92.38328 
L 158.766145 92.254817 
L 158.856271 92.286933 
L 158.817646 92.09424 
L 158.869146 92.190586 
L 158.979872 91.869431 
L 158.992747 91.965777 
L 158.997897 92.09424 
L 159.039097 91.708853 
L 159.098323 91.869431 
L 159.142098 91.965777 
L 159.265699 92.38328 
L 159.278574 92.286933 
L 159.345525 92.030008 
L 159.391875 92.254817 
L 159.502601 92.38328 
L 159.422776 92.126355 
L 159.505176 92.351164 
L 159.512901 92.254817 
L 159.595302 92.768666 
L 159.597877 92.736551 
L 159.713753 92.993475 
L 159.724053 92.961359 
L 159.816754 92.768666 
L 159.770403 93.057706 
L 159.834779 92.961359 
L 159.955805 93.250399 
L 160.017605 93.186168 
L 159.986705 93.346746 
L 160.066531 93.250399 
L 160.081981 93.154053 
L 160.195282 92.993475 
L 160.118031 93.186168 
L 160.197857 93.02559 
L 160.226182 93.121937 
L 160.254507 93.218284 
L 160.306008 92.865013 
L 160.316308 92.865013 
L 160.432184 92.704435 
L 160.401284 92.929244 
L 160.434759 92.736551 
L 160.439909 92.800782 
L 160.491409 92.415395 
L 160.535185 92.511742 
L 160.674236 92.158471 
L 160.705136 92.126355 
L 160.836462 91.355582 
L 160.854487 91.419813 
L 160.898263 91.195004 
L 160.944613 91.323466 
L 160.954913 91.355582 
L 160.960063 91.451929 
L 161.047614 91.195004 
L 161.063064 91.259235 
L 161.088814 91.162889 
L 161.104264 91.098658 
L 161.17379 91.387698 
L 161.19439 91.291351 
L 161.20984 91.195004 
L 161.269066 91.098658 
L 161.299966 91.291351 
L 161.320566 91.195004 
L 161.351466 91.291351 
L 161.420992 91.066542 
L 161.423567 91.098658 
L 161.503393 90.681155 
L 161.431292 91.130773 
L 161.552318 90.873849 
L 161.632144 91.740969 
L 161.678494 91.484044 
L 161.693944 91.580391 
L 161.73772 91.676737 
L 161.781495 91.291351 
L 161.78407 91.323466 
L 161.884496 91.259235 
L 162.010672 90.584809 
L 162.018397 90.681155 
L 162.080197 90.777502 
L 162.087922 90.809618 
L 162.103373 90.64904 
L 162.190923 90.777502 
L 162.229549 90.584809 
L 162.283624 90.970195 
L 162.407225 91.484044 
L 162.412375 91.451929 
L 162.41495 91.419813 
L 162.494776 91.708853 
L 162.502501 91.676737 
L 162.579751 92.09424 
L 162.628677 92.062124 
L 162.685327 92.351164 
L 162.644127 91.997893 
L 162.741978 92.09424 
L 162.770303 91.997893 
L 162.806353 92.126355 
L 162.886179 91.837315 
L 162.966005 91.869431 
L 162.924804 91.740969 
L 162.986605 91.740969 
L 163.058705 91.162889 
L 163.117931 91.484044 
L 163.135956 91.419813 
L 163.236382 90.873849 
L 163.256982 90.93808 
L 163.259557 90.970195 
L 163.326508 90.520578 
L 163.331658 90.520578 
L 163.452684 90.135191 
L 163.349683 90.584809 
L 163.455259 90.167307 
L 163.460409 90.199422 
L 163.499034 89.814036 
L 163.542809 89.878267 
L 163.547959 89.846151 
L 163.59431 90.135191 
L 163.648385 89.942498 
L 163.687011 90.07096 
L 163.658685 89.878267 
L 163.759111 89.942498 
L 163.782286 89.974613 
L 163.784861 90.07096 
L 163.882712 89.589227 
L 163.885287 89.621342 
L 163.936788 89.075378 
L 163.959963 89.171725 
L 163.977988 89.235956 
L 164.016613 89.396534 
L 164.065539 89.075378 
L 164.080989 89.171725 
L 164.091289 89.043263 
L 164.137639 89.396534 
L 164.191715 89.139609 
L 164.330766 89.589227 
L 164.333341 89.557111 
L 164.353941 89.460765 
L 164.408016 89.653458 
L 164.441492 89.621342 
L 164.492992 89.364418 
L 164.451792 89.653458 
L 164.562518 89.49288 
L 164.577968 89.557111 
L 164.614018 89.846151 
L 164.696419 89.78192 
L 164.727319 89.878267 
L 164.763369 90.103076 
L 164.85092 90.038845 
L 164.961646 90.07096 
L 164.977096 90.199422 
L 165.044047 89.942498 
L 165.069797 90.07096 
L 165.095547 90.038845 
L 165.139322 90.327884 
L 165.162498 90.263653 
L 165.293824 90.873849 
L 165.296399 90.841733 
L 165.319574 90.970195 
L 165.383949 90.616924 
L 165.40455 90.456347 
L 165.47665 91.066542 
L 165.479225 91.034427 
L 165.525576 91.22712 
L 165.582226 91.130773 
L 165.700677 91.22712 
L 165.703252 91.291351 
L 165.775353 90.584809 
L 165.783078 90.616924 
L 165.898954 90.392116 
L 165.981354 90.327884 
L 165.924704 90.488462 
L 166.001955 90.456347 
L 166.06118 90.520578 
L 166.09723 90.263653 
L 166.264607 90.327884 
L 166.362458 90.616924 
L 166.287782 90.199422 
L 166.380483 90.456347 
L 166.406233 90.36 
L 166.519534 89.717689 
L 166.534984 89.814036 
L 166.64056 90.006729 
L 166.576184 89.749805 
L 166.648285 89.942498 
L 166.68691 89.685573 
L 166.756436 90.006729 
L 166.838836 90.231538 
L 166.877462 90.135191 
L 166.910937 90.07096 
L 166.970163 90.552693 
L 166.980463 90.64904 
L 167.019088 90.873849 
L 167.083463 90.552693 
L 167.098914 90.745387 
L 167.171014 90.809618 
L 167.22509 90.93808 
L 167.274015 90.777502 
L 167.279165 90.809618 
L 167.353841 90.07096 
L 167.402766 90.424231 
L 167.456841 90.36 
L 167.531517 90.681155 
L 167.541817 90.616924 
L 167.606193 91.066542 
L 167.626793 91.034427 
L 167.649968 91.098658 
L 167.652543 91.162889 
L 167.691168 90.93808 
L 167.760694 91.098658 
L 167.776144 91.195004 
L 167.83537 91.580391 
L 167.889445 91.22712 
L 167.90747 91.195004 
L 168.036221 90.295769 
L 168.041371 90.327884 
L 168.059396 90.231538 
L 168.296298 88.62576 
L 168.298873 88.657876 
L 168.368399 88.208258 
L 168.376124 88.240374 
L 168.492 87.951334 
L 168.49715 87.983449 
L 168.623326 88.689992 
L 168.649076 88.529414 
L 168.703152 88.176143 
L 168.659376 88.593645 
L 168.764952 88.433067 
L 168.901428 89.075378 
L 168.922029 89.011147 
L 168.937479 88.9148 
L 169.07138 88.62576 
L 169.236181 89.300187 
L 169.238756 89.268071 
L 169.279956 89.814036 
L 169.305707 89.749805 
L 169.331457 89.942498 
L 169.419008 89.814036 
L 169.439608 89.717689 
L 169.529734 89.332302 
L 169.568359 89.49288 
L 169.599259 89.428649 
L 169.65076 89.20384 
L 169.694535 89.49288 
L 169.709985 89.428649 
L 169.74861 89.717689 
L 169.823286 89.653458 
L 169.931437 89.235956 
L 169.941737 89.364418 
L 170.039588 89.749805 
L 170.060188 89.589227 
L 170.214689 89.011147 
L 170.325415 89.20384 
L 170.258465 88.9148 
L 170.33314 89.107494 
L 170.35889 89.20384 
L 170.361465 89.235956 
L 170.433566 88.979031 
L 170.467041 89.171725 
L 170.595792 88.561529 
L 170.505667 89.364418 
L 170.598367 88.657876 
L 170.698793 88.818454 
L 170.647293 88.433067 
L 170.711668 88.722107 
L 170.732268 88.786338 
L 170.853294 89.043263 
L 170.866169 89.139609 
L 170.930545 88.786338 
L 170.966595 89.107494 
L 170.96917 89.011147 
L 171.056721 89.621342 
L 171.064446 89.589227 
L 171.079896 89.621342 
L 171.133972 89.428649 
L 171.164872 89.460765 
L 171.172597 89.524996 
L 171.285898 89.78192 
L 171.288473 89.749805 
L 171.391474 89.814036 
L 171.314223 89.653458 
L 171.399199 89.749805 
L 171.571725 88.979031 
L 171.602626 89.075378 
L 171.605201 89.107494 
L 171.659276 88.786338 
L 171.690176 88.786338 
L 171.749402 88.304605 
L 171.803477 88.722107 
L 171.919353 88.9148 
L 171.955403 88.882685 
L 172.081579 88.272489 
L 172.099605 88.176143 
L 172.16913 87.790756 
L 172.220631 87.887103 
L 172.254106 88.079796 
L 172.313331 87.69441 
L 172.362257 87.887103 
L 172.434357 87.533832 
L 172.485858 87.598063 
L 172.506458 87.373254 
L 172.529633 87.373254 
L 172.653234 87.11633 
L 172.534783 87.437485 
L 172.658384 87.148445 
L 172.673834 87.244792 
L 172.740785 86.891521 
L 172.751085 86.923636 
L 172.78456 86.82729 
L 172.908161 86.602481 
L 172.81546 86.891521 
L 172.910736 86.634596 
L 172.959662 86.53825 
L 172.967387 86.441903 
L 173.047212 87.019983 
L 173.057512 86.955752 
L 173.090988 87.052099 
L 173.196564 87.309023 
L 173.139913 86.987867 
L 173.206864 87.244792 
L 173.217164 87.212676 
L 173.33304 86.987867 
L 173.397415 87.373254 
L 173.456641 87.212676 
L 173.541616 87.019983 
L 173.497841 87.244792 
L 173.564792 87.212676 
L 173.662642 87.373254 
L 173.605992 87.148445 
L 173.675518 87.244792 
L 173.732168 87.341138 
L 173.814569 87.437485 
L 173.781093 87.276907 
L 173.840319 87.341138 
L 173.920145 87.052099 
L 173.95362 87.244792 
L 173.96392 87.309023 
L 174.084946 87.758641 
L 174.087521 87.69441 
L 174.167347 87.309023 
L 174.216272 87.469601 
L 174.244597 87.533832 
L 174.357898 87.951334 
L 174.370773 87.919218 
L 174.386223 87.887103 
L 174.427424 88.047681 
L 174.471199 88.015565 
L 174.59995 88.33672 
L 174.6051 88.304605 
L 174.628275 88.368836 
L 174.656601 88.593645 
L 174.713251 88.240374 
L 174.739001 88.400952 
L 174.741576 88.368836 
L 174.829127 88.561529 
L 174.839427 88.529414 
L 174.844577 88.593645 
L 174.883202 88.240374 
L 174.939853 88.400952 
L 174.945003 88.304605 
L 175.009379 88.593645 
L 175.048004 88.497298 
L 175.166455 87.565947 
L 175.187055 87.726525 
L 175.287481 87.822872 
L 175.223105 87.565947 
L 175.292631 87.758641 
L 175.318381 87.533832 
L 175.357006 87.790756 
L 175.403357 87.758641 
L 175.434257 87.951334 
L 175.496058 87.69441 
L 175.508933 87.69441 
L 175.514083 87.630178 
L 175.524383 87.69441 
L 175.655709 86.859405 
L 175.666009 86.795174 
L 175.684034 86.634596 
L 175.74841 87.019983 
L 175.771585 86.923636 
L 175.802485 86.987867 
L 175.866861 87.084214 
L 175.895186 86.859405 
L 175.910636 86.987867 
L 175.920936 86.923636 
L 175.982736 87.244792 
L 176.005912 87.180561 
L 176.075437 87.373254 
L 176.103762 86.987867 
L 176.106338 86.987867 
L 176.155263 86.698828 
L 176.209338 87.084214 
L 176.214488 87.052099 
L 176.232514 87.084214 
L 176.356115 86.602481 
L 176.417915 86.795174 
L 176.46684 86.602481 
L 176.567266 86.730943 
L 176.490016 86.474019 
L 176.580141 86.634596 
L 176.618767 86.698828 
L 176.690867 86.955752 
L 176.726918 86.666712 
L 176.747518 86.53825 
L 176.788718 86.82729 
L 176.840219 86.602481 
L 176.863394 86.506134 
L 176.925194 86.088632 
L 176.986995 86.345556 
L 177.01017 86.313441 
L 177.138921 85.38209 
L 177.280547 84.868241 
L 177.167246 85.414206 
L 177.285697 84.932472 
L 177.295997 84.900357 
L 177.411873 85.317859 
L 177.440198 85.349975 
L 177.530324 85.028819 
L 177.548349 85.09305 
L 177.5844 84.579201 
L 177.6256 84.675548 
L 177.653925 84.611317 
L 177.726026 84.450739 
L 177.764651 84.547086 
L 177.772376 84.51497 
L 177.926877 85.831708 
L 178.035028 86.474019 
L 177.934603 85.799592 
L 178.065929 86.217094 
L 178.166354 85.895939 
L 178.086529 86.313441 
L 178.18953 86.024401 
L 178.349181 86.730943 
L 178.354331 86.698828 
L 178.362056 86.666712 
L 178.418706 86.923636 
L 178.452182 86.795174 
L 178.457332 86.859405 
L 178.550033 86.634596 
L 178.555183 86.634596 
L 178.586083 86.698828 
L 178.678784 87.11633 
L 178.707109 86.987867 
L 178.79466 86.763059 
L 178.714834 87.019983 
L 178.82556 86.891521 
L 178.83586 86.82729 
L 178.974911 86.056517 
L 178.977486 86.120748 
L 179.041862 85.542668 
L 179.070187 85.67113 
L 179.090787 85.478437 
L 179.162888 85.831708 
L 179.173188 85.799592 
L 179.271038 86.313441 
L 179.299364 86.24921 
L 179.312239 86.217094 
L 179.337989 86.409788 
L 179.39979 86.377672 
L 179.422965 86.506134 
L 179.48219 86.024401 
L 179.559441 85.510552 
L 179.626391 85.574783 
L 179.701067 86.120748 
L 179.755142 85.863823 
L 179.891619 85.125166 
L 179.894194 85.157281 
L 179.922519 85.060935 
L 179.984319 85.317859 
L 179.989469 85.285743 
L 180.01007 85.414206 
L 180.058995 85.028819 
L 180.095045 85.189397 
L 180.11822 85.285743 
L 180.131096 85.317859 
L 180.198046 84.996703 
L 180.203196 84.996703 
L 180.236671 84.707664 
L 180.321647 84.900357 
L 180.463273 85.446321 
L 180.468423 85.38209 
L 180.527649 85.09305 
L 180.571424 85.478437 
L 180.573999 85.446321 
L 180.581724 85.542668 
L 180.607474 85.446321 
L 180.720775 85.928054 
L 180.813476 85.606899 
L 180.731075 85.96017 
L 180.836651 85.863823 
L 180.883002 85.67113 
L 180.957677 86.056517 
L 181.094153 85.414206 
L 181.186854 85.606899 
L 181.122479 85.157281 
L 181.207454 85.510552 
L 181.343931 84.836126 
L 181.349081 84.80401 
L 181.367106 84.611317 
L 181.454656 85.060935 
L 181.596283 84.611317 
L 181.598858 84.643432 
L 181.606583 84.579201 
L 181.609158 84.51497 
L 181.678683 84.836126 
L 181.704433 84.771895 
L 181.735334 84.996703 
L 181.817734 84.900357 
L 181.83576 84.964588 
L 181.853785 85.060935 
L 181.91301 84.707664 
L 181.941335 84.80401 
L 182.039186 84.450739 
L 182.057211 84.482855 
L 182.070086 84.386508 
L 182.095837 84.643432 
L 182.162787 84.547086 
L 182.173087 84.51497 
L 182.270938 84.290161 
L 182.185962 84.547086 
L 182.286388 84.418624 
L 182.330164 84.51497 
L 182.337889 84.675548 
L 182.407414 84.161699 
L 182.425439 84.322277 
L 182.453765 84.418624 
L 182.48724 84.579201 
L 182.536165 84.258046 
L 182.564491 84.418624 
L 182.700967 83.969006 
L 182.649466 84.482855 
L 182.706117 84.033237 
L 182.711267 84.097468 
L 182.793667 84.322277 
L 182.821993 84.097468 
L 182.834868 84.001121 
L 182.870918 83.872659 
L 182.899243 84.129584 
L 182.940444 84.065353 
L 182.994519 84.129584 
L 183.020269 84.193815 
L 183.08722 83.744197 
L 183.09237 83.808428 
L 183.177346 84.065353 
L 183.115545 83.744197 
L 183.213396 83.93689 
L 183.215971 83.904775 
L 183.277771 84.22593 
L 183.316397 84.033237 
L 183.329272 84.097468 
L 183.445148 84.482855 
L 183.452873 84.418624 
L 183.591924 84.001121 
L 183.491498 84.482855 
L 183.594499 84.033237 
L 183.694925 84.450739 
L 183.71295 84.386508 
L 183.730975 84.482855 
L 183.795351 84.129584 
L 183.864876 84.80401 
L 183.980752 84.482855 
L 183.872601 84.836126 
L 183.985902 84.51497 
L 184.021953 84.418624 
L 184.153279 84.065353 
L 184.086328 84.482855 
L 184.155854 84.129584 
L 184.184179 84.033237 
L 184.253704 83.615735 
L 184.30778 83.712082 
L 184.34898 83.808428 
L 184.482881 84.418624 
L 184.503481 84.354393 
L 184.536957 84.129584 
L 184.616782 84.290161 
L 184.650258 84.547086 
L 184.706908 84.161699 
L 184.719783 84.193815 
L 184.750683 84.129584 
L 184.797034 84.51497 
L 184.815059 84.386508 
L 184.951535 85.028819 
L 185.000461 84.932472 
L 185.051961 85.157281 
L 185.175562 85.542668 
L 185.185862 85.478437 
L 185.281138 85.285743 
L 185.304313 85.38209 
L 185.340363 85.317859 
L 185.430489 85.799592 
L 185.461389 85.703246 
L 185.505165 85.542668 
L 185.469114 85.767477 
L 185.56954 85.67113 
L 185.669966 86.24921 
L 185.698291 86.217094 
L 185.700866 86.152863 
L 185.726616 86.506134 
L 185.798717 86.409788 
L 185.803867 86.506134 
L 185.827042 86.24921 
L 185.909443 86.409788 
L 186.10772 85.09305 
L 186.120595 85.125166 
L 186.12832 85.157281 
L 186.17982 84.51497 
L 186.259646 84.001121 
L 186.202995 84.579201 
L 186.300846 84.354393 
L 186.414147 84.771895 
L 186.424447 84.707664 
L 186.445047 84.611317 
L 186.509423 84.450739 
L 186.548048 84.707664 
L 186.550623 84.739779 
L 186.627874 84.418624 
L 186.635599 84.482855 
L 186.643324 84.418624 
L 186.725725 84.900357 
L 186.7283 84.868241 
L 186.792675 85.253628 
L 186.857051 85.09305 
L 186.867351 85.028819 
L 186.916276 85.060935 
L 187.014127 84.129584 
L 187.019277 84.033237 
L 187.052752 83.969006 
L 187.114553 84.258046 
L 187.122278 84.22593 
L 187.184078 84.611317 
L 187.240729 84.354393 
L 187.351455 84.001121 
L 187.36433 84.161699 
L 187.469906 84.643432 
L 187.490506 84.579201 
L 187.580632 84.482855 
L 187.593507 84.450739 
L 187.673332 84.707664 
L 187.802084 85.253628 
L 187.804659 85.221512 
L 187.866459 85.349975 
L 187.902509 85.09305 
L 187.910234 85.157281 
L 187.920535 85.125166 
L 187.94371 84.964588 
L 187.972035 85.189397 
L 188.033835 84.996703 
L 188.211512 84.097468 
L 188.051861 85.028819 
L 188.214087 84.129584 
L 188.237262 84.161699 
L 188.273312 83.808428 
L 188.304213 83.904775 
L 188.445839 83.326695 
L 188.458714 83.358811 
L 188.57459 83.808428 
L 188.59519 83.679966 
L 188.723941 83.230348 
L 188.816642 83.166117 
L 188.790892 83.455157 
L 188.829517 83.294579 
L 188.860417 83.230348 
L 188.862992 83.166117 
L 188.953118 83.390926 
L 188.965993 83.326695 
L 188.973718 83.390926 
L 189.056119 83.101886 
L 189.076719 82.909193 
L 189.151395 83.390926 
L 189.156545 83.358811 
L 189.177145 83.455157 
L 189.238945 83.551504 
L 189.20032 83.358811 
L 189.282721 83.455157 
L 189.290446 83.326695 
L 189.331646 83.615735 
L 189.385722 83.583619 
L 189.499022 84.22593 
L 189.537648 84.129584 
L 189.553098 84.001121 
L 189.643224 84.22593 
L 189.684424 84.450739 
L 189.756525 84.322277 
L 189.905876 83.358811 
L 190.117028 82.106304 
L 190.129903 82.009958 
L 190.160803 81.881495 
L 190.227753 82.13842 
L 190.235479 82.074189 
L 190.245779 82.106304 
L 190.371955 82.909193 
L 190.37453 82.844962 
L 190.39513 82.941308 
L 190.511006 83.390926 
L 190.521306 83.358811 
L 190.529031 83.262464 
L 190.678382 82.170535 
L 190.680957 82.234766 
L 190.683532 82.266882 
L 190.740183 81.945726 
L 190.781383 82.13842 
L 190.863784 81.785149 
L 190.99511 106.578352 
L 191.273212 121.190926 
L 191.65689 128.031538 
L 191.669765 128.095769 
L 191.850017 129.830008 
L 191.862892 129.926355 
L 192.099794 131.564248 
L 192.102369 131.500017 
L 192.18992 132.045981 
L 192.21567 132.142328 
L 192.390771 132.977332 
L 192.395921 132.945217 
L 192.465447 133.330603 
L 192.478322 133.234257 
L 192.604498 133.619643 
L 192.625098 133.683874 
L 192.748699 134.101376 
L 192.751274 134.069261 
L 192.885175 134.518879 
L 192.8929 134.454647 
L 192.90835 134.390416 
L 192.975301 134.679456 
L 192.988176 134.647341 
L 193.119502 134.936381 
L 193.147827 134.904265 
L 193.189028 135.064843 
L 193.222503 135.000612 
L 193.340954 135.289652 
L 193.348679 135.225421 
L 193.358979 135.193305 
L 193.418205 135.385998 
L 193.449105 135.353883 
L 193.534081 135.450229 
L 193.652532 135.642923 
L 193.657682 135.610807 
L 193.763257 135.707154 
L 193.876558 135.899847 
L 193.770983 135.675038 
L 193.884283 135.835616 
L 193.969259 135.771385 
L 193.976984 135.899847 
L 193.989859 135.867732 
L 194.100585 135.964078 
L 194.007884 135.835616 
L 194.10316 135.931963 
L 194.201011 135.996194 
L 194.280837 136.060425 
L 194.298862 135.931963 
L 194.311737 136.028309 
L 194.409588 135.996194 
L 194.324612 136.09254 
L 194.419888 136.060425 
L 194.63104 135.964078 
L 194.633615 135.931963 
L 194.65164 136.060425 
L 194.736615 136.028309 
L 195.004418 135.931963 
L 195.084243 135.899847 
L 195.073943 136.028309 
L 195.109994 135.964078 
L 195.135744 136.028309 
L 195.130594 135.931963 
L 195.220719 135.996194 
L 195.321145 135.899847 
L 195.23102 136.028309 
L 195.33402 135.931963 
L 195.34432 135.964078 
L 195.367496 135.835616 
L 195.442171 135.899847 
L 195.470496 135.835616 
L 195.473072 135.771385 
L 195.527147 135.964078 
L 195.578647 135.867732 
L 195.825849 135.771385 
L 195.87735 135.707154 
L 195.8516 135.867732 
L 195.934 135.8035 
L 196.011251 135.707154 
L 196.016401 135.739269 
L 196.127127 135.610807 
L 196.158027 135.675038 
L 196.196652 135.546576 
L 196.232703 135.610807 
L 196.330554 135.418114 
L 196.348579 135.482345 
L 196.848133 135.385998 
L 196.933109 135.289652 
L 196.961434 135.321767 
L 197.182886 135.225421 
L 197.188036 135.129074 
L 197.224086 135.321767 
L 197.285886 135.257536 
L 197.288461 135.321767 
L 197.391462 135.161189 
L 197.736515 135.096958 
L 197.751965 135.129074 
L 197.857541 134.807918 
L 197.883291 134.743687 
L 197.999167 134.550994 
L 198.094443 134.679456 
L 198.042943 134.518879 
L 198.115043 134.615225 
L 198.472971 134.679456 
L 198.483271 134.743687 
L 198.509021 134.647341 
L 198.581122 134.679456 
L 198.586272 134.647341 
L 198.630047 134.743687 
L 198.689273 134.711572 
L 198.781974 134.775803 
L 198.720173 134.615225 
L 198.794849 134.743687 
L 198.8824 134.647341 
L 198.851499 134.775803 
L 198.905575 134.679456 
L 199.016301 134.775803 
L 198.910725 134.647341 
L 199.021451 134.743687 
L 199.088401 134.679456 
L 199.057501 134.775803 
L 199.132177 134.743687 
L 199.369079 134.647341 
L 199.448904 134.615225 
L 199.405129 134.711572 
L 199.479804 134.647341 
L 199.541605 134.711572 
L 199.55963 134.58311 
L 199.59053 134.647341 
L 199.665206 134.58311 
L 199.618856 134.711572 
L 199.703831 134.615225 
L 199.732156 134.743687 
L 199.760482 134.58311 
L 199.814557 134.647341 
L 199.961333 134.550994 
L 199.999959 134.486763 
L 200.043734 134.647341 
L 200.072059 134.518879 
L 200.187935 134.679456 
L 200.20596 134.743687 
L 200.298661 134.647341 
L 200.411962 134.743687 
L 200.520113 134.647341 
L 200.460887 134.775803 
L 200.527838 134.679456 
L 200.597364 134.807918 
L 200.545863 134.647341 
L 200.641139 134.743687 
L 200.947566 134.679456 
L 201.014517 134.58311 
L 200.960442 134.775803 
L 201.055717 134.711572 
L 201.086618 134.647341 
L 201.197344 134.518879 
L 201.199919 134.550994 
L 202.00075 134.454647 
L 202.04195 134.358301 
L 202.096026 134.486763 
L 202.108901 134.486763 
L 202.453954 134.550994 
L 202.562105 134.615225 
L 202.461679 134.518879 
L 202.56468 134.550994 
L 202.577555 134.518879 
L 202.608455 134.647341 
L 202.670256 134.58311 
L 202.677981 134.647341 
L 202.757806 134.454647 
L 202.775831 134.550994 
L 202.811882 134.390416 
L 202.780982 134.58311 
L 202.891707 134.486763 
L 203.030759 134.550994 
L 203.136334 134.615225 
L 203.126034 134.518879 
L 203.138909 134.58311 
L 203.141484 134.518879 
L 203.15436 134.647341 
L 203.24706 134.647341 
L 203.321736 134.743687 
L 203.270236 134.615225 
L 203.357786 134.679456 
L 203.429887 134.840034 
L 203.362936 134.647341 
L 203.471087 134.743687 
L 203.579238 134.647341 
L 203.483962 134.775803 
L 203.581813 134.711572 
L 203.597263 134.775803 
L 203.643614 134.647341 
L 203.689964 134.743687 
L 203.715714 134.615225 
L 203.78524 134.775803 
L 203.803265 134.679456 
L 203.875365 134.743687 
L 203.890816 134.840034 
L 203.962916 134.679456 
L 203.986091 134.775803 
L 204.076217 134.711572 
L 204.083942 134.840034 
L 204.094242 134.743687 
L 204.138018 134.87215 
L 204.204968 134.775803 
L 204.46762 134.679456 
L 204.565471 134.647341 
L 204.48307 134.775803 
L 204.578346 134.679456 
L 204.681347 134.743687 
L 204.647872 134.615225 
L 204.686497 134.679456 
L 204.709672 134.647341 
L 204.774048 134.775803 
L 204.789498 134.743687 
L 204.889924 134.807918 
L 204.804948 134.679456 
L 204.900224 134.775803 
L 204.918249 134.679456 
L 204.962024 134.807918 
L 205.013525 134.743687 
L 205.0367 134.840034 
L 205.04185 134.87215 
L 205.085625 134.743687 
L 205.142276 134.775803 
L 205.917357 134.840034 
L 205.919932 134.904265 
L 205.925082 134.775803 
L 206.025508 134.775803 
L 206.128509 134.807918 
L 206.053833 134.711572 
L 206.133659 134.743687 
L 206.89329 134.679456 
L 206.895865 134.615225 
L 206.89844 134.711572 
L 207.004016 134.679456 
L 207.143067 134.58311 
L 207.225468 134.518879 
L 207.150792 134.615225 
L 207.253793 134.58311 
L 207.549921 134.615225 
L 207.650346 134.711572 
L 207.660647 134.615225 
L 207.884673 134.518879 
L 207.889823 134.486763 
L 207.915574 134.647341 
L 207.990249 134.58311 
L 208.059775 134.679456 
L 208.155051 134.711572 
L 208.10355 134.615225 
L 208.167926 134.679456 
L 208.273502 134.615225 
L 208.180801 134.711572 
L 208.281227 134.647341 
L 208.381652 134.711572 
L 208.343027 134.615225 
L 208.391953 134.647341 
L 208.461478 134.743687 
L 208.469203 134.775803 
L 208.494953 134.647341 
L 208.567054 134.711572 
L 208.64688 134.615225 
L 208.67778 134.711572 
L 208.69323 134.647341 
L 208.788506 134.743687 
L 208.876057 134.615225 
L 208.899232 134.679456 
L 208.966182 134.711572 
L 208.999658 134.615225 
L 209.007383 134.679456 
L 209.022833 134.615225 
L 209.035708 134.743687 
L 209.118109 134.679456 
L 209.182484 134.775803 
L 209.154159 134.647341 
L 209.233984 134.743687 
L 209.321535 134.647341 
L 209.32411 134.58311 
L 209.34986 134.711572 
L 209.429686 134.711572 
L 209.548137 134.615225 
L 209.656288 134.743687 
L 209.586762 134.58311 
L 209.658863 134.711572 
L 209.684613 134.550994 
L 209.772164 134.647341 
L 209.785039 134.58311 
L 209.86744 134.743687 
L 209.880315 134.647341 
L 209.92409 134.775803 
L 209.991041 134.679456 
L 210.019366 134.775803 
L 210.068291 134.647341 
L 210.101767 134.711572 
L 210.142967 134.647341 
L 210.194467 134.775803 
L 210.212493 134.711572 
L 210.289743 134.647341 
L 210.323218 134.775803 
L 210.433944 134.679456 
L 210.436519 134.711572 
L 210.552395 134.550994 
L 210.557545 134.58311 
L 210.616771 134.647341 
L 210.56527 134.518879 
L 210.668271 134.58311 
L 210.701747 134.647341 
L 210.781572 134.550994 
L 210.791872 134.518879 
L 210.900023 134.679456 
L 210.936073 134.550994 
L 210.982424 134.711572 
L 211.010749 134.679456 
L 211.816731 134.775803 
L 211.832181 134.87215 
L 211.839906 134.711572 
L 211.927457 134.807918 
L 211.960932 134.711572 
L 212.030457 134.87215 
L 212.038183 134.807918 
L 212.143758 134.904265 
L 212.154058 134.87215 
L 212.746313 134.904265 
L 212.748888 135.000612 
L 212.828714 134.87215 
L 212.857039 134.936381 
L 212.859614 134.840034 
L 212.867339 134.968496 
L 212.967765 134.904265 
L 213.153167 135.000612 
L 213.258743 135.032727 
L 213.173767 134.904265 
L 213.263893 135.000612 
L 213.382344 134.936381 
L 213.384919 134.87215 
L 213.457019 135.064843 
L 213.490494 135.000612 
L 213.58062 134.904265 
L 213.495644 135.032727 
L 213.60122 135.000612 
L 213.704221 135.064843 
L 213.804647 135.129074 
L 213.709371 135.000612 
L 213.814947 135.096958 
L 213.897348 135.000612 
L 213.933398 135.129074 
L 214.010649 134.968496 
L 214.13425 134.87215 
L 214.247551 134.743687 
L 214.1497 134.904265 
L 214.250126 134.775803 
L 214.329951 134.904265 
L 214.275876 134.743687 
L 214.363427 134.807918 
L 214.986582 134.87215 
L 214.989157 134.936381 
L 215.035507 134.743687 
L 215.094733 134.840034 
L 215.200308 134.936381 
L 215.210609 134.968496 
L 215.220909 134.840034 
L 215.303309 134.87215 
L 215.38056 134.840034 
L 215.362535 134.936381 
L 215.414035 134.87215 
L 215.517036 134.840034 
L 215.519611 134.743687 
L 215.555661 134.904265 
L 215.625187 134.807918 
L 215.663812 134.904265 
L 215.630337 134.775803 
L 215.735913 134.87215 
L 215.748788 134.775803 
L 215.784838 134.904265 
L 215.849214 134.840034 
L 216.441469 134.936381 
L 216.472369 134.904265 
L 216.55477 135.064843 
L 216.593395 134.968496 
L 216.58052 135.096958 
L 216.668071 135.032727 
L 216.722146 135.161189 
L 216.675796 134.968496 
L 216.781371 135.129074 
L 216.783946 135.032727 
L 216.804547 135.161189 
L 216.892097 135.129074 
L 217.83713 135.193305 
L 217.880905 135.257536 
L 217.937556 135.129074 
L 217.947856 135.225421 
L 218.007082 135.096958 
L 218.063732 135.161189 
L 218.164158 135.193305 
L 218.153858 135.096958 
L 218.171883 135.161189 
L 218.272309 135.064843 
L 218.228533 135.225421 
L 218.285184 135.129074 
L 218.359859 135.032727 
L 218.37016 134.968496 
L 218.45256 135.129074 
L 218.46286 135.129074 
L 218.511786 135.064843 
L 218.607061 135.000612 
L 218.617362 135.129074 
L 218.619937 135.064843 
L 218.720362 135.161189 
L 218.648262 135.032727 
L 218.733237 135.129074 
L 218.810488 135.064843 
L 218.758988 135.161189 
L 218.843963 135.129074 
L 219.111766 135.096958 
L 219.186441 134.968496 
L 219.225067 135.000612 
L 219.273992 135.032727 
L 219.328067 134.904265 
L 219.333217 134.968496 
L 219.66797 135.032727 
L 219.69372 135.096958 
L 219.701445 134.968496 
L 219.776121 135.032727 
L 219.868822 134.904265 
L 219.891997 134.968496 
L 220.829305 134.904265 
L 220.934881 134.840034 
L 220.87823 134.936381 
L 220.940031 134.904265 
L 220.991531 134.840034 
L 221.019856 134.968496 
L 221.050757 134.904265 
L 221.151182 134.968496 
L 221.164057 134.936381 
L 221.233583 134.87215 
L 221.179508 135.032727 
L 221.269633 134.968496 
L 221.274783 134.936381 
L 221.388084 135.064843 
L 222.333117 135.129074 
L 222.335692 135.193305 
L 222.343417 135.064843 
L 222.441268 135.129074 
L 222.487618 135.032727 
L 222.526244 135.193305 
L 222.551994 135.096958 
L 222.590619 135.193305 
L 222.618944 135.032727 
L 222.66272 135.129074 
L 222.776021 135.000612 
L 222.799196 135.064843 
L 222.881597 134.936381 
L 222.884172 134.968496 
L 222.966572 134.904265 
L 222.987172 135.032727 
L 222.997472 134.936381 
L 223.082448 135.064843 
L 223.002623 134.904265 
L 223.108198 134.936381 
L 223.260125 135.000612 
L 223.291025 134.936381 
L 223.373426 135.064843 
L 223.455826 134.936381 
L 223.388876 135.096958 
L 223.486727 135.000612 
L 223.527927 135.032727 
L 223.600027 134.936381 
L 223.703028 135.096958 
L 223.715903 135.032727 
L 223.798304 134.936381 
L 223.723628 135.064843 
L 223.829204 135.000612 
L 224.040356 135.096958 
L 224.145932 135.129074 
L 224.109882 135.000612 
L 224.148507 135.064843 
L 224.161382 135.032727 
L 224.181982 135.161189 
L 224.254083 135.129074 
L 224.354509 135.193305 
L 224.274683 135.064843 
L 224.362234 135.161189 
L 224.364809 135.096958 
L 224.424034 135.257536 
L 224.470385 135.193305 
L 224.578535 135.225421 
L 224.47811 135.129074 
L 224.58111 135.193305 
L 225.018864 135.257536 
L 225.021439 135.321767 
L 225.060064 135.129074 
L 225.12444 135.129074 
L 225.18624 135.193305 
L 225.188815 135.064843 
L 225.232591 135.129074 
L 225.335592 135.064843 
L 225.299541 135.193305 
L 225.345892 135.096958 
L 225.616269 135.161189 
L 225.626569 135.129074 
L 225.72957 135.225421 
L 226.35015 135.321767 
L 226.368175 135.289652 
L 226.463451 135.418114 
L 226.576752 135.257536 
L 226.579327 135.289652 
L 227.629936 135.193305 
L 227.632511 135.129074 
L 227.653111 135.257536 
L 227.740661 135.193305 
L 227.745811 135.289652 
L 227.843662 135.129074 
L 227.848812 135.193305 
L 227.954388 135.161189 
L 227.879713 135.225421 
L 227.959538 135.193305 
L 228.441067 135.129074 
L 228.484843 135.064843 
L 228.546643 135.257536 
L 228.549218 135.193305 
L 228.567243 135.257536 
L 228.662519 135.129074 
L 228.757795 135.257536 
L 228.78097 135.225421 
L 228.865946 135.129074 
L 228.819595 135.257536 
L 228.894271 135.193305 
L 229.174948 135.289652 
L 229.241899 135.353883 
L 229.270224 135.225421 
L 229.280524 135.257536 
L 229.378375 135.129074 
L 229.306274 135.289652 
L 229.39125 135.225421 
L 229.393825 135.289652 
L 229.468501 135.096958 
L 229.496826 135.161189 
L 229.517426 135.064843 
L 229.604977 135.225421 
L 229.607552 135.161189 
L 229.780078 135.225421 
L 229.782653 135.289652 
L 229.883079 135.096958 
L 229.890804 135.225421 
L 229.968055 135.129074 
L 229.988655 135.257536 
L 230.00153 135.225421 
L 230.197232 135.129074 
L 230.277057 135.064843 
L 230.243582 135.193305 
L 230.307958 135.129074 
L 230.405808 135.032727 
L 230.470184 134.968496 
L 230.480484 135.096958 
L 230.516534 135.000612 
L 230.588635 135.129074 
L 230.524259 134.968496 
L 230.634985 135.096958 
L 230.691636 135.000612 
L 230.743136 135.096958 
L 230.784336 135.161189 
L 230.758586 135.032727 
L 230.851287 135.096958 
L 230.928538 135.064843 
L 230.895062 135.161189 
L 230.959438 135.129074 
L 231.070164 135.064843 
L 231.072739 135.000612 
L 231.116514 135.161189 
L 231.18089 135.064843 
L 231.283891 135.161189 
L 231.20149 135.000612 
L 231.296766 135.129074 
L 231.381741 135.193305 
L 231.386891 135.257536 
L 231.425517 135.129074 
L 231.489892 135.193305 
L 231.531093 135.129074 
L 231.577443 135.321767 
L 231.595468 135.257536 
L 231.894171 135.353883 
L 231.966271 135.450229 
L 231.925071 135.257536 
L 232.004896 135.353883 
L 232.864954 135.289652 
L 232.942204 135.193305 
L 232.893279 135.321767 
L 232.973104 135.257536 
L 233.05808 135.353883 
L 232.980829 135.193305 
L 233.081255 135.289652 
L 233.215156 134.615225 
L 233.217731 134.647341 
L 233.294982 134.679456 
L 233.248632 134.550994 
L 233.328457 134.647341 
L 233.374808 134.58311 
L 233.428883 134.518879 
L 233.397983 134.615225 
L 233.482959 134.550994 
L 233.591109 134.711572 
L 233.59626 134.679456 
L 233.64776 134.615225 
L 233.62201 134.775803 
L 233.70441 134.711572 
L 233.753336 134.807918 
L 233.763636 134.679456 
L 233.864062 134.840034 
L 233.967063 134.807918 
L 233.920712 134.904265 
L 233.974788 134.840034 
L 234.021138 134.775803 
L 234.090664 134.936381 
L 234.103539 134.840034 
L 234.185939 135.032727 
L 234.198814 134.968496 
L 234.24774 135.032727 
L 234.353316 135.096958 
L 234.25289 134.968496 
L 234.355891 135.064843 
L 234.366191 135.096958 
L 234.469192 134.968496 
L 234.567042 135.064843 
L 234.582493 135.000612 
L 235.007371 135.096958 
L 235.015096 135.129074 
L 235.040846 134.968496 
L 235.115522 135.064843 
L 235.156722 134.968496 
L 235.136122 135.096958 
L 235.223673 135.096958 
L 235.450275 135.032727 
L 235.506925 134.968496 
L 235.51465 135.096958 
L 235.558426 135.064843 
L 236.160981 135.096958 
L 236.269131 135.193305 
L 236.235656 135.032727 
L 236.271706 135.161189 
L 236.372132 135.096958 
L 236.382432 135.129074 
L 236.784136 135.225421 
L 236.892287 135.289652 
L 236.838211 135.161189 
L 236.897437 135.257536 
L 237.129189 135.321767 
L 237.131764 135.385998 
L 237.147214 135.257536 
L 237.239914 135.321767 
L 237.265665 135.225421 
L 237.35579 135.257536 
L 237.415016 135.353883 
L 237.451066 135.225421 
L 237.466516 135.289652 
L 237.492266 135.257536 
L 237.582392 135.385998 
L 237.675093 135.257536 
L 237.626168 135.418114 
L 237.700843 135.289652 
L 237.806419 135.450229 
L 237.819294 135.385998 
L 237.821869 135.353883 
L 237.86307 135.482345 
L 237.927445 135.385998 
L 238.022721 135.353883 
L 238.045896 135.482345 
L 238.130872 135.385998 
L 238.136022 135.51446 
L 238.156622 135.482345 
L 238.4991 135.578692 
L 238.506825 135.642923 
L 238.57635 135.482345 
L 238.607251 135.546576 
L 239.657859 135.450229 
L 239.660434 135.418114 
L 239.701635 135.578692 
L 239.76086 135.51446 
L 239.799485 135.578692 
L 239.789185 135.418114 
L 239.874161 135.546576 
L 240.067288 135.482345 
L 240.069863 135.385998 
L 240.157413 135.642923 
L 240.175439 135.578692 
L 240.247539 135.482345 
L 240.183164 135.642923 
L 240.288739 135.51446 
L 240.34024 135.578692 
L 240.36599 135.642923 
L 240.440666 135.450229 
L 240.445816 135.482345 
L 240.538517 135.546576 
L 240.608042 135.642923 
L 240.587442 135.482345 
L 240.649242 135.546576 
L 240.705893 135.610807 
L 240.708468 135.675038 
L 240.718768 135.546576 
L 240.814044 135.546576 
L 240.94022 135.578692 
L 240.98657 135.675038 
L 240.96597 135.546576 
L 241.050946 135.610807 
L 241.099871 135.675038 
L 241.125621 135.578692 
L 241.164247 135.642923 
L 241.192572 135.546576 
L 241.236347 135.675038 
L 241.274973 135.578692 
L 241.326473 135.675038 
L 241.377973 135.51446 
L 241.385698 135.610807 
L 241.470674 135.450229 
L 241.408874 135.642923 
L 241.504149 135.51446 
L 241.51445 135.578692 
L 241.589125 135.289652 
L 241.599425 135.385998 
L 241.710151 135.225421 
L 241.712726 135.257536 
L 241.826027 135.385998 
L 241.841477 135.289652 
L 241.885253 135.450229 
L 241.931603 135.385998 
L 242.014004 135.51446 
L 242.044904 135.450229 
L 242.819985 135.418114 
L 242.82256 135.321767 
L 242.835435 135.450229 
L 242.930711 135.353883 
L 242.987362 135.257536 
L 243.056887 135.353883 
L 243.098088 135.225421 
L 243.139288 135.418114 
L 243.211388 135.321767 
L 243.316964 135.225421 
L 243.255164 135.353883 
L 243.324689 135.257536 
L 243.618242 135.321767 
L 243.620817 135.385998 
L 243.646567 135.257536 
L 243.726393 135.257536 
L 244.025095 135.161189 
L 244.128096 135.129074 
L 244.061145 135.257536 
L 244.133246 135.193305 
L 244.761551 135.096958 
L 244.774426 135.161189 
L 244.872277 135.064843 
L 244.944378 135.129074 
L 244.928928 135.000612 
L 244.977853 135.032727 
L 245.026778 134.936381 
L 245.037078 135.064843 
L 245.086004 135.032727 
L 245.163254 135.161189 
L 245.20188 135.096958 
L 245.302306 135.161189 
L 245.340931 135.225421 
L 245.374406 135.064843 
L 245.413032 135.161189 
L 245.418182 135.193305 
L 245.526332 135.096958 
L 245.621608 135.193305 
L 245.582983 135.064843 
L 245.639633 135.129074 
L 245.740059 135.064843 
L 245.742634 135.000612 
L 245.773534 135.161189 
L 245.84821 135.129074 
L 245.925461 135.000612 
L 245.876535 135.161189 
L 245.961511 135.096958 
L 246.061937 135.129074 
L 246.036187 134.968496 
L 246.072237 135.096958 
L 246.113437 135.064843 
L 246.167513 135.225421 
L 246.177813 135.161189 
L 246.275664 135.257536 
L 246.182963 135.129074 
L 246.288539 135.193305 
L 246.39154 135.161189 
L 246.342614 135.257536 
L 246.39669 135.225421 
L 247.05847 135.321767 
L 247.061045 135.353883 
L 247.09967 135.193305 
L 247.158896 135.193305 
L 247.166621 135.161189 
L 247.228421 135.289652 
L 247.267047 135.193305 
L 247.359748 135.289652 
L 247.279922 135.161189 
L 247.377773 135.225421 
L 247.436998 135.161189 
L 247.413823 135.289652 
L 247.485924 135.193305 
L 247.509099 135.289652 
L 247.514249 135.161189 
L 247.596649 135.193305 
L 247.68935 135.161189 
L 247.61725 135.289652 
L 247.707375 135.193305 
L 247.766601 135.129074 
L 247.818101 135.289652 
L 247.859302 135.161189 
L 247.928827 135.257536 
L 248.250705 135.161189 
L 248.340831 135.032727 
L 248.271305 135.257536 
L 248.364006 135.129074 
L 248.423231 135.193305 
L 248.456707 135.032727 
L 248.474732 135.129074 
L 248.515932 135.064843 
L 248.518507 135.000612 
L 248.570007 135.193305 
L 248.624083 135.096958 
L 249.656666 135.064843 
L 249.659241 134.968496 
L 249.674692 135.129074 
L 249.764817 135.129074 
L 249.831768 135.064843 
L 249.865243 135.193305 
L 249.875543 135.096958 
L 249.934769 135.161189 
L 249.942494 135.032727 
L 249.983694 135.096958 
L 250.001719 135.129074 
L 250.112445 134.87215 
L 250.161371 134.775803 
L 250.189696 134.840034 
L 250.277246 134.679456 
L 250.315872 134.775803 
L 250.339047 134.647341 
L 250.390547 134.743687 
L 250.442048 134.615225 
L 250.462648 134.775803 
L 250.503848 134.711572 
L 250.565649 134.775803 
L 250.601699 134.647341 
L 250.611999 134.711572 
L 250.64805 134.647341 
L 250.627449 134.743687 
L 250.722725 134.679456 
L 250.830876 134.743687 
L 250.774226 134.647341 
L 250.833451 134.711572 
L 250.897827 134.775803 
L 250.951902 134.550994 
L 251.065203 134.743687 
L 251.067778 134.679456 
L 251.232579 134.743687 
L 251.237729 134.679456 
L 251.34588 134.807918 
L 251.423131 134.679456 
L 251.459181 134.775803 
L 251.508107 134.711572 
L 251.572482 134.840034 
L 251.675483 134.775803 
L 251.577632 134.87215 
L 251.685783 134.807918 
L 252.095211 134.904265 
L 252.200787 134.968496 
L 252.118387 134.840034 
L 252.208512 134.936381 
L 253.040244 135.000612 
L 253.153545 135.161189 
L 253.223071 135.032727 
L 253.264271 135.129074 
L 253.390447 135.032727 
L 253.480573 135.000612 
L 253.408472 135.129074 
L 253.498598 135.032727 
L 253.611899 135.129074 
L 253.637649 134.968496 
L 253.622199 135.161189 
L 253.72005 135.129074 
L 253.830776 135.225421 
L 253.738075 135.064843 
L 253.835926 135.193305 
L 253.851376 135.129074 
L 253.871976 135.257536 
L 253.941502 135.225421 
L 253.951802 135.193305 
L 254.052227 135.289652 
L 254.106303 135.225421 
L 254.067678 135.321767 
L 254.160378 135.257536 
L 254.206729 135.353883 
L 254.255654 135.193305 
L 254.273679 135.321767 
L 254.384405 135.193305 
L 254.286554 135.353883 
L 254.38698 135.225421 
L 254.677958 135.321767 
L 254.688258 135.353883 
L 254.690833 135.257536 
L 254.721733 135.289652 
" clip-path="url(#p2f201dee6c)" style="fill: none; stroke: #000000; stroke-opacity: 0.5; stroke-width: 1.5; stroke-linecap: square"/>
   </g>
   <g id="patch_3">
    <path d="M 41.667188 173.52 
L 41.667188 7.2 
" style="fill: none; stroke: #000000; stroke-width: 0.8; stroke-linejoin: miter; stroke-linecap: square"/>
   </g>
   <g id="patch_4">
    <path d="M 41.667188 173.52 
L 264.867187 173.52 
" style="fill: none; stroke: #000000; stroke-width: 0.8; stroke-linejoin: miter; stroke-linecap: square"/>
   </g>
  </g>
 </g>
 <defs>
  <clipPath id="p2f201dee6c">
   <rect x="41.667188" y="7.2" width="223.2" height="166.32"/>
  </clipPath>
 </defs>
</svg>
