<?xml version="1.0" encoding="utf-8" standalone="no"?>
<!DOCTYPE svg PUBLIC "-//W3C//DTD SVG 1.1//EN"
  "http://www.w3.org/Graphics/SVG/1.1/DTD/svg11.dtd">
<svg xmlns:xlink="http://www.w3.org/1999/xlink" width="265.704687pt" height="197.398125pt" viewBox="0 0 265.704687 197.398125" xmlns="http://www.w3.org/2000/svg" version="1.1">
 <metadata>
  <rdf:RDF xmlns:dc="http://purl.org/dc/elements/1.1/" xmlns:cc="http://creativecommons.org/ns#" xmlns:rdf="http://www.w3.org/1999/02/22-rdf-syntax-ns#">
   <cc:Work>
    <dc:type rdf:resource="http://purl.org/dc/dcmitype/StillImage"/>
    <dc:date>2025-12-19T12:26:07.383837</dc:date>
    <dc:format>image/svg+xml</dc:format>
    <dc:creator>
     <cc:Agent>
      <dc:title>Matplotlib v3.10.7, https://matplotlib.org/</dc:title>
     </cc:Agent>
    </dc:creator>
   </cc:Work>
  </rdf:RDF>
 </metadata>
 <defs>
  <style type="text/css">*{stroke-linejoin: round; stroke-linecap: butt}</style>
 </defs>
 <g id="figure_1">
  <g id="patch_1">
   <path d="M 0 197.398125 
L 265.704687 197.398125 
L 265.704687 0 
L 0 0 
z
" style="fill: #ffffff"/>
  </g>
  <g id="axes_1">
   <g id="patch_2">
    <path d="M 35.304688 173.52 
L 258.504687 173.52 
L 258.504687 7.2 
L 35.304688 7.2 
z
" style="fill: #ffffff"/>
   </g>
   <g id="matplotlib.axis_1">
    <g id="xtick_1">
     <g id="line2d_1">
      <defs>
       <path id="m5fbbd44ae4" d="M 0 0 
L 0 3.5 
" style="stroke: #000000; stroke-width: 0.8"/>
      </defs>
      <g>
       <use xlink:href="#m5fbbd44ae4" x="76.350396" y="173.52" style="stroke: #000000; stroke-width: 0.8"/>
      </g>
     </g>
     <g id="text_1">
      <!-- 1 -->
      <g transform="translate(73.169146 188.118438) scale(0.1 -0.1)">
       <defs>
        <path id="DejaVuSans-31" d="M 794 531 
L 1825 531 
L 1825 4091 
L 703 3866 
L 703 4441 
L 1819 4666 
L 2450 4666 
L 2450 531 
L 3481 531 
L 3481 0 
L 794 0 
L 794 531 
z
" transform="scale(0.015625)"/>
       </defs>
       <use xlink:href="#DejaVuSans-31"/>
      </g>
     </g>
    </g>
    <g id="xtick_2">
     <g id="line2d_2">
      <g>
       <use xlink:href="#m5fbbd44ae4" x="127.850819" y="173.52" style="stroke: #000000; stroke-width: 0.8"/>
      </g>
     </g>
     <g id="text_2">
      <!-- 2 -->
      <g transform="translate(124.669569 188.118438) scale(0.1 -0.1)">
       <defs>
        <path id="DejaVuSans-32" d="M 1228 531 
L 3431 531 
L 3431 0 
L 469 0 
L 469 531 
Q 828 903 1448 1529 
Q 2069 2156 2228 2338 
Q 2531 2678 2651 2914 
Q 2772 3150 2772 3378 
Q 2772 3750 2511 3984 
Q 2250 4219 1831 4219 
Q 1534 4219 1204 4116 
Q 875 4013 500 3803 
L 500 4441 
Q 881 4594 1212 4672 
Q 1544 4750 1819 4750 
Q 2544 4750 2975 4387 
Q 3406 4025 3406 3419 
Q 3406 3131 3298 2873 
Q 3191 2616 2906 2266 
Q 2828 2175 2409 1742 
Q 1991 1309 1228 531 
z
" transform="scale(0.015625)"/>
       </defs>
       <use xlink:href="#DejaVuSans-32"/>
      </g>
     </g>
    </g>
    <g id="xtick_3">
     <g id="line2d_3">
      <g>
       <use xlink:href="#m5fbbd44ae4" x="179.351241" y="173.52" style="stroke: #000000; stroke-width: 0.8"/>
      </g>
     </g>
     <g id="text_3">
      <!-- 3 -->
      <g transform="translate(176.169991 188.118438) scale(0.1 -0.1)">
       <defs>
        <path id="DejaVuSans-33" d="M 2597 2516 
Q 3050 2419 3304 2112 
Q 3559 1806 3559 1356 
Q 3559 666 3084 287 
Q 2609 -91 1734 -91 
Q 1441 -91 1130 -33 
Q 819 25 488 141 
L 488 750 
Q 750 597 1062 519 
Q 1375 441 1716 441 
Q 2309 441 2620 675 
Q 2931 909 2931 1356 
Q 2931 1769 2642 2001 
Q 2353 2234 1838 2234 
L 1294 2234 
L 1294 2753 
L 1863 2753 
Q 2328 2753 2575 2939 
Q 2822 3125 2822 3475 
Q 2822 3834 2567 4026 
Q 2313 4219 1838 4219 
Q 1578 4219 1281 4162 
Q 984 4106 628 3988 
L 628 4550 
Q 988 4650 1302 4700 
Q 1616 4750 1894 4750 
Q 2613 4750 3031 4423 
Q 3450 4097 3450 3541 
Q 3450 3153 3228 2886 
Q 3006 2619 2597 2516 
z
" transform="scale(0.015625)"/>
       </defs>
       <use xlink:href="#DejaVuSans-33"/>
      </g>
     </g>
    </g>
    <g id="xtick_4">
     <g id="line2d_4">
      <g>
       <use xlink:href="#m5fbbd44ae4" x="230.851664" y="173.52" style="stroke: #000000; stroke-width: 0.8"/>
      </g>
     </g>
     <g id="text_4">
      <!-- 4 -->
      <g transform="translate(227.670414 188.118438) scale(0.1 -0.1)">
       <defs>
        <path id="DejaVuSans-34" d="M 2419 4116 
L 825 1625 
L 2419 1625 
L 2419 4116 
z
M 2253 4666 
L 3047 4666 
L 3047 1625 
L 3713 1625 
L 3713 1100 
L 3047 1100 
L 3047 0 
L 2419 0 
L 2419 1100 
L 313 1100 
L 313 1709 
L 2253 4666 
z
" transform="scale(0.015625)"/>
       </defs>
       <use xlink:href="#DejaVuSans-34"/>
      </g>
     </g>
    </g>
   </g>
   <g id="matplotlib.axis_2">
    <g id="ytick_1">
     <g id="line2d_5">
      <defs>
       <path id="m55267baa94" d="M 0 0 
L -3.5 0 
" style="stroke: #000000; stroke-width: 0.8"/>
      </defs>
      <g>
       <use xlink:href="#m55267baa94" x="35.304688" y="158.152457" style="stroke: #000000; stroke-width: 0.8"/>
      </g>
     </g>
     <g id="text_5">
      <!-- −80 -->
      <g transform="translate(7.2 161.951675) scale(0.1 -0.1)">
       <defs>
        <path id="DejaVuSans-2212" d="M 678 2272 
L 4684 2272 
L 4684 1741 
L 678 1741 
L 678 2272 
z
" transform="scale(0.015625)"/>
        <path id="DejaVuSans-38" d="M 2034 2216 
Q 1584 2216 1326 1975 
Q 1069 1734 1069 1313 
Q 1069 891 1326 650 
Q 1584 409 2034 409 
Q 2484 409 2743 651 
Q 3003 894 3003 1313 
Q 3003 1734 2745 1975 
Q 2488 2216 2034 2216 
z
M 1403 2484 
Q 997 2584 770 2862 
Q 544 3141 544 3541 
Q 544 4100 942 4425 
Q 1341 4750 2034 4750 
Q 2731 4750 3128 4425 
Q 3525 4100 3525 3541 
Q 3525 3141 3298 2862 
Q 3072 2584 2669 2484 
Q 3125 2378 3379 2068 
Q 3634 1759 3634 1313 
Q 3634 634 3220 271 
Q 2806 -91 2034 -91 
Q 1263 -91 848 271 
Q 434 634 434 1313 
Q 434 1759 690 2068 
Q 947 2378 1403 2484 
z
M 1172 3481 
Q 1172 3119 1398 2916 
Q 1625 2713 2034 2713 
Q 2441 2713 2670 2916 
Q 2900 3119 2900 3481 
Q 2900 3844 2670 4047 
Q 2441 4250 2034 4250 
Q 1625 4250 1398 4047 
Q 1172 3844 1172 3481 
z
" transform="scale(0.015625)"/>
        <path id="DejaVuSans-30" d="M 2034 4250 
Q 1547 4250 1301 3770 
Q 1056 3291 1056 2328 
Q 1056 1369 1301 889 
Q 1547 409 2034 409 
Q 2525 409 2770 889 
Q 3016 1369 3016 2328 
Q 3016 3291 2770 3770 
Q 2525 4250 2034 4250 
z
M 2034 4750 
Q 2819 4750 3233 4129 
Q 3647 3509 3647 2328 
Q 3647 1150 3233 529 
Q 2819 -91 2034 -91 
Q 1250 -91 836 529 
Q 422 1150 422 2328 
Q 422 3509 836 4129 
Q 1250 4750 2034 4750 
z
" transform="scale(0.015625)"/>
       </defs>
       <use xlink:href="#DejaVuSans-2212"/>
       <use xlink:href="#DejaVuSans-38" transform="translate(83.789062 0)"/>
       <use xlink:href="#DejaVuSans-30" transform="translate(147.412109 0)"/>
      </g>
     </g>
    </g>
    <g id="ytick_2">
     <g id="line2d_6">
      <g>
       <use xlink:href="#m55267baa94" x="35.304688" y="135.959751" style="stroke: #000000; stroke-width: 0.8"/>
      </g>
     </g>
     <g id="text_6">
      <!-- −60 -->
      <g transform="translate(7.2 139.75897) scale(0.1 -0.1)">
       <defs>
        <path id="DejaVuSans-36" d="M 2113 2584 
Q 1688 2584 1439 2293 
Q 1191 2003 1191 1497 
Q 1191 994 1439 701 
Q 1688 409 2113 409 
Q 2538 409 2786 701 
Q 3034 994 3034 1497 
Q 3034 2003 2786 2293 
Q 2538 2584 2113 2584 
z
M 3366 4563 
L 3366 3988 
Q 3128 4100 2886 4159 
Q 2644 4219 2406 4219 
Q 1781 4219 1451 3797 
Q 1122 3375 1075 2522 
Q 1259 2794 1537 2939 
Q 1816 3084 2150 3084 
Q 2853 3084 3261 2657 
Q 3669 2231 3669 1497 
Q 3669 778 3244 343 
Q 2819 -91 2113 -91 
Q 1303 -91 875 529 
Q 447 1150 447 2328 
Q 447 3434 972 4092 
Q 1497 4750 2381 4750 
Q 2619 4750 2861 4703 
Q 3103 4656 3366 4563 
z
" transform="scale(0.015625)"/>
       </defs>
       <use xlink:href="#DejaVuSans-2212"/>
       <use xlink:href="#DejaVuSans-36" transform="translate(83.789062 0)"/>
       <use xlink:href="#DejaVuSans-30" transform="translate(147.412109 0)"/>
      </g>
     </g>
    </g>
    <g id="ytick_3">
     <g id="line2d_7">
      <g>
       <use xlink:href="#m55267baa94" x="35.304688" y="113.767046" style="stroke: #000000; stroke-width: 0.8"/>
      </g>
     </g>
     <g id="text_7">
      <!-- −40 -->
      <g transform="translate(7.2 117.566265) scale(0.1 -0.1)">
       <use xlink:href="#DejaVuSans-2212"/>
       <use xlink:href="#DejaVuSans-34" transform="translate(83.789062 0)"/>
       <use xlink:href="#DejaVuSans-30" transform="translate(147.412109 0)"/>
      </g>
     </g>
    </g>
    <g id="ytick_4">
     <g id="line2d_8">
      <g>
       <use xlink:href="#m55267baa94" x="35.304688" y="91.57434" style="stroke: #000000; stroke-width: 0.8"/>
      </g>
     </g>
     <g id="text_8">
      <!-- −20 -->
      <g transform="translate(7.2 95.373559) scale(0.1 -0.1)">
       <use xlink:href="#DejaVuSans-2212"/>
       <use xlink:href="#DejaVuSans-32" transform="translate(83.789062 0)"/>
       <use xlink:href="#DejaVuSans-30" transform="translate(147.412109 0)"/>
      </g>
     </g>
    </g>
    <g id="ytick_5">
     <g id="line2d_9">
      <g>
       <use xlink:href="#m55267baa94" x="35.304688" y="69.381635" style="stroke: #000000; stroke-width: 0.8"/>
      </g>
     </g>
     <g id="text_9">
      <!-- 0 -->
      <g transform="translate(21.942187 73.180854) scale(0.1 -0.1)">
       <use xlink:href="#DejaVuSans-30"/>
      </g>
     </g>
    </g>
    <g id="ytick_6">
     <g id="line2d_10">
      <g>
       <use xlink:href="#m55267baa94" x="35.304688" y="47.188929" style="stroke: #000000; stroke-width: 0.8"/>
      </g>
     </g>
     <g id="text_10">
      <!-- 20 -->
      <g transform="translate(15.579687 50.988148) scale(0.1 -0.1)">
       <use xlink:href="#DejaVuSans-32"/>
       <use xlink:href="#DejaVuSans-30" transform="translate(63.623047 0)"/>
      </g>
     </g>
    </g>
    <g id="ytick_7">
     <g id="line2d_11">
      <g>
       <use xlink:href="#m55267baa94" x="35.304688" y="24.996224" style="stroke: #000000; stroke-width: 0.8"/>
      </g>
     </g>
     <g id="text_11">
      <!-- 40 -->
      <g transform="translate(15.579687 28.795443) scale(0.1 -0.1)">
       <use xlink:href="#DejaVuSans-34"/>
       <use xlink:href="#DejaVuSans-30" transform="translate(63.623047 0)"/>
      </g>
     </g>
    </g>
   </g>
   <g id="line2d_12">
    <path d="M 45.450142 142.052452 
L 45.826095 142.120179 
L 45.831245 142.086316 
L 45.941971 142.255633 
L 46.052697 142.187906 
L 45.962571 142.289496 
L 46.055272 142.221769 
L 46.111922 142.289496 
L 46.225223 142.42495 
L 46.307624 142.289496 
L 46.325649 142.458813 
L 46.338524 142.391086 
L 46.549676 142.289496 
L 46.608902 142.255633 
L 46.606327 142.357223 
L 46.660402 142.289496 
L 47.095581 142.221769 
L 47.152231 142.052452 
L 47.208881 142.120179 
L 47.283557 142.052452 
L 47.296432 142.086316 
L 47.399433 141.916999 
L 47.427758 141.849272 
L 47.515309 142.086316 
L 47.543634 141.950862 
L 47.595135 142.154043 
L 47.62346 142.086316 
L 47.68011 142.018589 
L 47.739336 142.154043 
L 47.842337 142.052452 
L 47.850062 142.154043 
L 47.927312 142.086316 
L 48.032888 142.018589 
L 47.945338 142.154043 
L 48.038038 142.086316 
L 48.120439 142.120179 
L 48.053488 141.984726 
L 48.143614 142.018589 
L 48.313566 142.052452 
L 48.316141 142.154043 
L 48.362491 142.018589 
L 48.424291 142.052452 
L 48.583943 142.018589 
L 48.694669 141.883135 
L 48.728144 141.815409 
L 48.80797 141.984726 
L 48.887795 141.849272 
L 48.83887 142.018589 
L 48.918696 141.984726 
L 49.013971 142.018589 
L 48.931571 141.883135 
L 49.024271 141.984726 
L 49.047447 141.916999 
L 49.078347 142.086316 
L 49.134997 141.984726 
L 49.230273 141.849272 
L 49.140147 142.018589 
L 49.248298 141.883135 
L 49.302374 142.052452 
L 49.361599 141.950862 
L 49.462025 142.052452 
L 49.4749 142.018589 
L 49.487775 141.950862 
L 49.562451 142.086316 
L 49.583051 142.052452 
L 49.758152 142.120179 
L 49.835403 142.187906 
L 49.858578 142.018589 
L 49.868878 142.120179 
L 49.982179 142.018589 
L 49.894629 142.154043 
L 49.984754 142.052452 
L 50.445683 142.120179 
L 50.448258 142.187906 
L 50.479158 142.052452 
L 50.553834 142.154043 
L 50.595034 142.086316 
L 50.613059 143.508578 
L 50.844811 148.283315 
L 50.852536 148.384905 
L 50.989013 149.908757 
L 50.991588 149.84103 
L 51.068838 150.721478 
L 51.073988 150.687615 
L 51.140939 151.229429 
L 51.377841 152.922598 
L 51.388141 152.888735 
L 51.449941 153.362822 
L 51.452516 153.362822 
L 51.578692 154.04009 
L 51.604443 154.14168 
L 51.609593 154.107816 
L 51.771819 154.954401 
L 51.774394 154.886674 
L 51.861945 155.394625 
L 51.86452 155.394625 
L 51.89542 155.496215 
L 52.029321 156.105756 
L 52.042196 156.139619 
L 52.047346 156.105756 
L 52.163222 156.54598 
L 52.230173 156.64757 
L 52.346049 157.053931 
L 52.351199 156.95234 
L 52.402699 157.020067 
L 52.441324 156.986204 
L 52.52115 157.257111 
L 52.655051 157.290974 
L 52.745177 157.561881 
L 52.770927 157.528018 
L 52.812127 157.595745 
L 52.915128 157.798925 
L 52.928003 157.731198 
L 53.046454 157.798925 
L 53.09023 157.900515 
L 53.12628 157.765062 
L 53.15718 157.832788 
L 53.16233 157.765062 
L 53.211256 157.934378 
L 53.265331 157.866652 
L 53.587209 157.968242 
L 53.69021 158.035969 
L 53.630984 157.832788 
L 53.69536 157.968242 
L 53.697935 157.934378 
L 53.793211 158.137559 
L 53.798361 158.069832 
L 53.901361 158.205286 
L 53.829261 158.035969 
L 53.914237 158.137559 
L 54.030112 158.002105 
L 54.053288 158.137559 
L 54.140838 158.002105 
L 54.254139 158.103695 
L 54.189764 157.968242 
L 54.256714 158.069832 
L 54.333965 157.968242 
L 54.434391 157.866652 
L 54.35199 158.002105 
L 54.442116 157.968242 
L 54.534817 158.103695 
L 54.488466 157.934378 
L 54.555417 158.069832 
L 54.663568 157.832788 
L 54.671293 157.900515 
L 54.707343 157.968242 
L 54.684168 157.866652 
L 54.784594 157.934378 
L 54.823219 157.832788 
L 54.939095 157.697335 
L 54.828369 157.866652 
L 54.94167 157.731198 
L 55.091021 157.629608 
L 55.212047 157.426428 
L 55.096171 157.663471 
L 55.214622 157.460291 
L 55.237797 157.494155 
L 55.242947 157.629608 
L 55.348523 157.528018 
L 55.441224 157.629608 
L 55.5056 157.663471 
L 55.4953 157.528018 
L 55.544225 157.528018 
L 55.804302 157.426428 
L 55.927903 157.223247 
L 55.979403 157.324838 
L 56.041204 157.257111 
L 56.123605 157.189384 
L 56.064379 157.290974 
L 56.15193 157.257111 
L 56.378532 157.155521 
L 56.448057 157.020067 
L 56.383682 157.189384 
L 56.494408 157.087794 
L 56.530458 156.986204 
L 56.535608 157.020067 
L 56.664359 156.681433 
L 56.865211 156.579843 
L 56.908986 156.64757 
L 56.975937 156.512116 
L 57.037737 156.681433 
L 57.089238 156.613707 
L 57.094388 156.579843 
L 57.179363 156.74916 
L 57.189663 156.715297 
L 57.297814 156.816887 
L 57.274639 156.681433 
L 57.305539 156.783024 
L 57.42914 156.681433 
L 57.43429 156.715297 
L 57.550166 156.54598 
L 57.565617 156.512116 
L 57.666042 156.681433 
L 57.676342 156.579843 
L 57.717543 156.715297 
L 57.776768 156.681433 
L 57.884919 156.74916 
L 57.841144 156.579843 
L 57.887494 156.681433 
L 58.132121 156.579843 
L 58.183622 156.478253 
L 58.232547 156.681433 
L 58.247997 156.512116 
L 58.361298 156.613707 
L 58.304648 156.44439 
L 58.363873 156.579843 
L 58.387048 156.512116 
L 58.487474 156.241209 
L 58.505499 156.308936 
L 58.63425 156.410526 
L 58.734676 156.512116 
L 58.641975 156.3428 
L 58.747551 156.478253 
L 58.804202 156.308936 
L 58.858277 156.410526 
L 58.966428 156.54598 
L 58.920078 156.376663 
L 58.971578 156.44439 
L 59.115779 156.410526 
L 59.169855 156.275073 
L 59.226505 156.410526 
L 59.344956 156.241209 
L 59.347531 156.275073 
L 59.362981 156.3428 
L 59.437657 156.105756 
L 59.447957 156.173483 
L 59.463407 156.105756 
L 59.527783 156.275073 
L 59.550958 156.241209 
L 59.556108 156.275073 
L 59.643659 156.004166 
L 59.646234 156.038029 
L 59.674559 156.105756 
L 59.677134 156.173483 
L 59.764685 155.902576 
L 59.780135 156.004166 
L 59.911461 155.665532 
L 59.914036 155.733259 
L 59.968111 155.496215 
L 60.022187 155.665532 
L 60.047937 155.699395 
L 60.135488 155.563942 
L 60.140638 155.530078 
L 60.253939 155.699395 
L 60.326039 155.530078 
L 60.369815 155.597805 
L 60.37239 155.699395 
L 60.38784 155.530078 
L 60.48054 155.631669 
L 60.586116 155.530078 
L 60.593841 155.597805 
L 60.609292 155.563942 
L 60.714867 155.326898 
L 60.725167 155.360761 
L 60.877094 155.293035 
L 60.900269 155.360761 
L 61.271072 147.843091 
L 61.273647 147.910817 
L 61.353473 147.098096 
L 61.610975 145.167884 
L 61.63415 145.066293 
L 61.835002 143.881075 
L 61.858177 143.813348 
L 61.989503 143.271534 
L 62.002378 143.305398 
L 62.079629 143.000627 
L 62.082204 143.03449 
L 62.097654 142.966764 
L 62.21868 142.560403 
L 62.22898 142.594267 
L 62.368031 142.052452 
L 62.375756 142.086316 
L 62.458157 141.781545 
L 62.478757 141.747682 
L 62.589483 141.612228 
L 62.592058 141.646092 
L 62.728534 141.239731 
L 62.731109 141.273595 
L 62.759434 141.205868 
L 62.883035 140.833371 
L 62.898485 140.934961 
L 62.929386 140.765644 
L 62.991186 140.765644 
L 63.014361 140.867234 
L 63.089037 140.63019 
L 63.094187 140.697917 
L 63.215213 140.562464 
L 63.248688 140.63019 
L 63.292464 140.731781 
L 63.333664 140.5286 
L 63.356839 140.63019 
L 63.472715 140.494737 
L 63.629791 140.42701 
L 63.735367 140.32542 
L 63.743092 140.359283 
L 63.830643 140.393147 
L 63.763692 140.291557 
L 63.853818 140.359283 
L 63.879568 140.257693 
L 63.892443 140.42701 
L 63.961969 140.42701 
L 63.985144 140.32542 
L 64.07527 140.494737 
L 64.13192 140.291557 
L 64.188571 140.393147 
L 64.389423 140.393147 
L 64.474398 140.189966 
L 64.502723 140.257693 
L 64.567099 140.257693 
L 64.569674 140.393147 
L 64.6598 140.22383 
L 64.677825 140.291557 
L 64.7216 140.156103 
L 64.793701 140.22383 
L 64.899277 140.359283 
L 64.809151 140.189966 
L 64.909577 140.32542 
L 64.914727 140.291557 
L 64.961077 140.42701 
L 65.015153 140.359283 
L 65.030603 140.42701 
L 65.110428 140.22383 
L 65.118154 140.257693 
L 65.31643 140.156103 
L 65.33703 140.12224 
L 65.401406 140.359283 
L 65.414281 140.291557 
L 65.537882 140.562464 
L 65.429731 140.22383 
L 65.540457 140.494737 
L 65.594532 140.596327 
L 65.628008 140.664054 
L 65.640883 140.494737 
L 65.705258 140.596327 
L 65.751609 140.697917 
L 65.787659 140.765644 
L 65.818559 140.596327 
L 65.85976 140.664054 
L 66.042586 140.596327 
L 66.117262 140.494737 
L 66.081211 140.63019 
L 66.153312 140.596327 
L 66.372189 140.5286 
L 66.400514 140.460873 
L 66.47004 140.697917 
L 66.477765 140.664054 
L 66.50609 140.562464 
L 66.56274 140.765644 
L 66.588491 140.664054 
L 66.627116 140.765644 
L 66.742992 140.968824 
L 66.632266 140.664054 
L 66.750717 140.934961 
L 66.977319 141.002688 
L 67.041694 141.138141 
L 67.088045 141.036551 
L 67.10607 141.002688 
L 67.144695 141.138141 
L 67.193621 141.104278 
L 67.641674 141.138141 
L 67.644249 141.239731 
L 67.72665 141.070414 
L 67.749825 141.138141 
L 67.7524 141.070414 
L 67.842526 141.239731 
L 67.857976 141.172004 
L 68.030502 141.070414 
L 68.045953 141.002688 
L 68.076853 141.172004 
L 68.136078 141.104278 
L 68.156678 141.070414 
L 68.262254 141.307458 
L 68.269979 141.239731 
L 68.360105 141.409048 
L 68.370405 141.341321 
L 68.481131 141.409048 
L 68.391005 141.307458 
L 68.483706 141.375185 
L 68.501731 141.307458 
L 68.524906 141.442912 
L 68.597007 141.341321 
L 68.769534 141.273595 
L 68.867384 141.138141 
L 68.882834 141.172004 
L 68.885409 141.273595 
L 68.99356 141.205868 
L 69.160937 141.172004 
L 69.189262 141.070414 
L 69.266513 141.307458 
L 69.269088 141.239731 
L 69.400414 141.544502 
L 69.431314 141.442912 
L 69.495689 141.646092 
L 69.50599 141.612228 
L 69.513715 141.747682 
L 69.54719 141.544502 
L 69.61929 141.646092 
L 69.691391 141.510638 
L 69.732591 141.578365 
L 69.784092 141.679955 
L 69.740316 141.544502 
L 69.845892 141.612228 
L 69.874218 141.476775 
L 69.902543 141.679955 
L 69.954043 141.646092 
L 69.974643 141.679955 
L 69.997819 141.544502 
L 70.062194 141.612228 
L 70.569473 141.679955 
L 70.672474 141.815409 
L 70.680199 141.747682 
L 70.711099 141.713819 
L 70.76775 141.916999 
L 70.780625 141.883135 
L 70.80895 141.781545 
L 70.911951 141.713819 
L 70.870751 141.916999 
L 70.922251 141.747682 
L 71.156578 141.646092 
L 71.262154 141.544502 
L 71.161728 141.713819 
L 71.272454 141.578365 
L 71.44498 141.476775 
L 71.553131 141.409048 
L 71.465581 141.510638 
L 71.558281 141.442912 
L 71.666432 141.375185 
L 71.669007 141.307458 
L 71.730808 141.476775 
L 71.777158 141.341321 
L 71.826084 141.442912 
L 71.869859 141.307458 
L 71.885309 141.341321 
L 71.923934 141.273595 
L 71.985735 141.476775 
L 71.990885 141.409048 
L 72.065561 141.341321 
L 72.104186 141.476775 
L 72.191737 141.307458 
L 72.222637 141.375185 
L 72.333363 141.442912 
L 72.245812 141.341321 
L 72.335938 141.409048 
L 72.410613 141.476775 
L 72.480139 141.578365 
L 72.415763 141.442912 
L 72.521339 141.510638 
L 72.59344 141.409048 
L 72.531639 141.544502 
L 72.63464 141.476775 
L 73.077544 141.375185 
L 73.080119 141.341321 
L 73.17282 141.510638 
L 73.185695 141.409048 
L 73.221745 141.510638 
L 73.247495 141.375185 
L 73.298996 141.476775 
L 73.381396 141.578365 
L 73.311871 141.442912 
L 73.412297 141.510638 
L 73.512722 141.375185 
L 73.530748 141.409048 
L 73.541048 141.476775 
L 73.633748 141.646092 
L 73.548773 141.442912 
L 73.651774 141.510638 
L 73.685249 141.578365 
L 73.687824 141.646092 
L 73.765075 141.442912 
L 73.795975 141.578365 
L 73.806275 141.612228 
L 73.888676 141.341321 
L 73.891251 141.375185 
L 74.115277 141.476775 
L 74.202828 141.646092 
L 74.120427 141.442912 
L 74.228578 141.510638 
L 74.285229 141.544502 
L 74.39853 141.747682 
L 74.437155 141.679955 
L 74.45003 141.815409 
L 74.509256 141.747682 
L 74.599381 141.883135 
L 74.540156 141.679955 
L 74.625132 141.815409 
L 74.643157 141.713819 
L 74.653457 141.849272 
L 74.735857 141.815409 
L 75.047435 141.883135 
L 75.155586 142.018589 
L 75.09121 141.815409 
L 75.160736 141.950862 
L 75.611365 141.883135 
L 75.64484 141.781545 
L 75.70664 141.984726 
L 75.719516 141.916999 
L 76.013068 141.950862 
L 76.121219 142.086316 
L 76.046543 141.883135 
L 76.123794 142.018589 
L 76.350396 141.984726 
L 76.479147 148.791265 
L 76.695449 153.091915 
L 76.919475 156.105756 
L 76.932351 156.173483 
L 77.089427 158.035969 
L 77.092002 158.002105 
L 77.148652 158.679373 
L 77.151227 158.679373 
L 77.161527 158.780963 
L 77.42418 160.914356 
L 77.426755 160.778903 
L 77.524605 161.45617 
L 77.542631 161.523897 
L 77.689407 162.472072 
L 77.872233 163.420246 
L 77.874808 163.35252 
L 77.962359 163.792744 
L 77.972659 163.691153 
L 78.083385 164.131377 
L 78.09626 164.063651 
L 78.13746 163.995924 
L 78.160636 164.232968 
L 78.191536 164.232968 
L 78.343462 164.774782 
L 78.371787 164.876372 
L 78.490238 165.113415 
L 78.420713 164.808645 
L 78.492813 165.045689 
L 78.495388 165.011825 
L 78.582939 165.282732 
L 78.590664 165.215006 
L 78.709115 165.452049 
L 78.606114 165.181142 
L 78.71169 165.384323 
L 78.73229 165.316596 
L 78.788941 165.553639 
L 78.812116 165.519776 
L 78.948592 165.587503 
L 79.056743 165.65523 
L 78.989792 165.452049 
L 79.059318 165.621366 
L 79.105668 165.722956 
L 79.141719 165.85841 
L 79.190644 165.689093 
L 79.218969 165.790683 
L 79.229269 165.75682 
L 79.339995 165.96 
L 79.471321 165.689093 
L 79.566597 165.824546 
L 79.489347 165.65523 
L 79.582047 165.722956 
L 79.731398 165.689093 
L 79.744274 165.722956 
L 79.842124 165.553639 
L 79.924525 165.65523 
L 79.95285 165.587503 
L 79.999201 165.65523 
L 80.071301 165.485913 
L 80.161427 165.553639 
L 80.138252 165.418186 
L 80.182027 165.485913 
L 80.370004 165.384323 
L 80.411204 165.350459 
L 80.390604 165.485913 
L 80.48073 165.384323 
L 80.52708 165.316596 
L 80.640381 165.011825 
L 80.648106 165.045689 
L 80.782007 164.740918 
L 80.784582 164.808645 
L 80.823207 164.571601 
L 80.885008 164.605465 
L 80.887583 164.537738 
L 80.890158 164.673191 
L 80.995734 164.605465 
L 81.047234 164.673191 
L 81.11676 164.436148 
L 81.139935 164.503875 
L 81.16311 164.334558 
L 81.224911 164.470011 
L 81.309886 164.300694 
L 81.338212 164.402284 
L 81.466963 164.300694 
L 81.577689 164.063651 
L 81.472113 164.334558 
L 81.585414 164.097514 
L 81.590564 164.029787 
L 81.70129 164.165241 
L 81.791415 164.063651 
L 81.72189 164.232968 
L 81.812016 164.097514 
L 81.819741 164.199104 
L 81.904716 163.96206 
L 81.915016 163.995924 
L 82.036042 163.725017 
L 81.920166 164.029787 
L 82.038617 163.826607 
L 82.198269 163.75888 
L 82.270369 163.65729 
L 82.257494 163.792744 
L 82.308995 163.725017 
L 82.31157 163.792744 
L 82.406845 163.5557 
L 82.414571 163.589563 
L 82.545897 163.250929 
L 82.548472 163.284793 
L 82.697823 163.217066 
L 82.805974 163.013886 
L 82.726148 163.250929 
L 82.813699 163.081613 
L 82.9167 163.013886 
L 82.842024 163.115476 
L 82.924425 163.081613 
L 82.9785 162.980022 
L 83.102101 162.776842 
L 83.122701 162.912296 
L 83.202527 162.573662 
L 83.310678 162.472072 
L 83.223127 162.675252 
L 83.315828 162.539798 
L 83.359603 162.438208 
L 83.485779 162.167301 
L 83.493504 162.268891 
L 83.58878 162.031848 
L 83.59393 162.099574 
L 83.709806 161.930258 
L 83.714956 161.964121 
L 83.740706 162.031848 
L 83.812807 161.828667 
L 83.820532 161.896394 
L 83.846282 161.964121 
L 83.936408 161.828667 
L 83.944133 161.896394 
L 84.026534 161.659351 
L 84.036834 161.693214 
L 84.060009 161.625487 
L 84.17331 161.45617 
L 84.093484 161.659351 
L 84.175885 161.490034 
L 84.304636 161.25299 
L 84.358711 161.185263 
L 84.477162 160.914356 
L 84.487463 161.015946 
L 84.523513 160.778903 
L 84.585313 160.846629 
L 84.649689 160.778903 
L 84.755265 160.507996 
L 84.765565 160.609586 
L 84.79904 160.541859 
L 84.917491 160.237088 
L 84.920066 160.270952 
L 84.989592 160.169362 
L 85.097743 159.864591 
L 84.997317 160.203225 
L 85.115768 159.932318 
L 85.126068 160.000045 
L 85.200743 159.796865 
L 85.218769 159.864591 
L 85.254819 159.898455 
L 85.34237 159.695274 
L 85.442795 159.796865 
L 85.375845 159.593684 
L 85.45052 159.661411 
L 85.489146 159.559821 
L 85.599872 159.458231 
L 85.517471 159.627548 
L 85.602447 159.492094 
L 85.682272 159.627548 
L 85.638497 159.458231 
L 85.718323 159.593684 
L 85.834199 159.356641 
L 85.836774 159.390504 
L 85.932049 159.119597 
L 85.96295 159.15346 
L 86.001575 159.187324 
L 86.04535 159.05187 
L 86.068526 159.085733 
L 86.186977 158.84869 
L 86.194702 158.882553 
L 86.289977 158.984143 
L 86.251352 158.814826 
L 86.308002 158.95028 
L 86.320878 159.018007 
L 86.426453 158.814826 
L 86.477954 158.916417 
L 86.532029 158.780963 
L 86.539754 158.84869 
L 86.62473 158.7471 
L 86.681381 158.814826 
L 86.743181 158.611646 
L 86.758631 158.679373 
L 86.841032 158.442329 
L 86.846182 158.510056 
L 86.949183 158.340739 
L 86.882232 158.543919 
L 86.964633 158.408466 
L 86.967208 158.442329 
L 87.026433 158.171422 
L 87.057334 158.205286 
L 87.165485 158.103695 
L 87.062484 158.273012 
L 87.17321 158.137559 
L 87.338011 158.035969 
L 87.448737 157.866652 
L 87.345736 158.069832 
L 87.459037 157.900515 
L 87.500237 157.798925 
L 87.510537 157.832788 
L 87.634138 157.460291 
L 87.662464 157.528018 
L 87.685639 157.392564 
L 87.739714 157.392564 
L 87.953441 157.324838 
L 88.069317 157.121657 
L 88.151718 157.223247 
L 88.074467 157.087794 
L 88.177468 157.087794 
L 88.293344 157.020067 
L 88.352569 156.85075 
L 88.301069 157.053931 
L 88.40407 156.986204 
L 88.452995 156.884614 
L 88.463295 156.918477 
L 88.586896 156.579843 
L 88.592046 156.613707 
L 88.658997 156.207346 
L 88.674447 156.275073 
L 88.679597 156.207346 
L 88.767148 156.44439 
L 88.777448 156.44439 
L 88.841823 156.3428 
L 88.888174 156.478253 
L 88.952549 156.308936 
L 88.970574 156.410526 
L 89.006625 156.173483 
L 89.0607 156.275073 
L 89.192026 156.173483 
L 89.292452 156.038029 
L 89.307902 156.105756 
L 89.310477 156.139619 
L 89.349102 155.970302 
L 89.410903 156.004166 
L 89.439228 156.071892 
L 89.526779 155.902576 
L 89.578279 155.800985 
L 89.637505 155.936439 
L 89.732781 155.800985 
L 89.753381 155.834849 
L 89.761106 155.902576 
L 89.817756 155.665532 
L 89.856382 155.733259 
L 89.951657 155.530078 
L 89.977408 155.597805 
L 90.028908 155.530078 
L 90.129334 155.360761 
L 90.041783 155.563942 
L 90.142209 155.394625 
L 90.242635 155.326898 
L 90.25551 155.462352 
L 90.368811 155.293035 
L 90.373961 155.326898 
L 90.407436 155.360761 
L 90.438336 155.225308 
L 90.476962 155.259171 
L 90.546487 155.157581 
L 90.494987 155.293035 
L 90.587688 155.259171 
L 90.608288 155.191445 
L 90.721589 154.954401 
L 90.726739 154.988264 
L 90.791114 154.886674 
L 90.909565 154.64963 
L 90.796264 154.920538 
L 90.914715 154.683494 
L 90.91729 154.751221 
L 91.007416 154.378723 
L 91.015141 154.44645 
L 91.131017 154.277133 
L 91.136167 154.310997 
L 91.509545 154.209406 
L 91.599671 154.073953 
L 91.52242 154.24327 
L 91.625421 154.14168 
L 91.651171 154.209406 
L 91.718122 154.04009 
L 91.728422 154.073953 
L 91.852023 153.904636 
L 92.0606 153.803046 
L 92.176476 153.599866 
L 92.184201 153.633729 
L 92.238276 153.532139 
L 92.351577 153.430549 
L 92.289777 153.599866 
L 92.354152 153.464412 
L 92.367027 153.532139 
L 92.415953 153.362822 
L 92.462303 153.396685 
L 92.475178 153.430549 
L 92.516378 153.227368 
L 92.562729 153.295095 
L 92.65543 153.091915 
L 92.585904 153.328959 
L 92.683755 153.125778 
L 92.69148 153.193505 
L 92.773881 152.922598 
L 92.779031 152.956461 
L 92.874306 152.821008 
L 92.892332 152.854871 
L 92.936107 152.787144 
L 93.046833 152.583964 
L 93.049408 152.651691 
L 93.080308 152.685554 
L 93.113783 152.448511 
L 93.147259 152.550101 
L 93.178159 152.583964 
L 93.26056 152.448511 
L 93.324935 152.414647 
L 93.360985 152.448511 
L 93.438236 152.313057 
L 93.492311 152.14374 
L 93.556687 152.211467 
L 93.664838 152.177604 
L 93.765264 151.94056 
L 93.778139 151.974423 
L 93.806464 152.04215 
L 93.850239 151.872833 
L 93.88629 151.974423 
L 93.93779 152.04215 
L 94.002166 151.906697 
L 94.107742 152.04215 
L 94.112892 151.974423 
L 94.154092 152.04215 
L 94.228768 151.872833 
L 94.233918 151.974423 
L 94.313743 151.73738 
L 94.331768 151.771243 
L 94.421894 151.703516 
L 94.499145 151.534199 
L 94.432194 151.73738 
L 94.535195 151.635789 
L 94.599571 151.669653 
L 94.645921 151.534199 
L 94.679396 151.635789 
L 94.707721 151.466473 
L 94.756647 151.534199 
L 94.846773 151.364882 
L 94.766947 151.568063 
L 94.875098 151.432609 
L 94.939473 151.466473 
L 94.972949 151.297156 
L 94.978099 151.331019 
L 95.202126 151.263292 
L 95.318001 150.958522 
L 95.323152 150.992385 
L 95.410702 150.958522 
L 95.524003 150.687615 
L 95.526578 150.721478 
L 95.670779 150.653751 
L 95.699105 150.552161 
L 95.71713 150.687615 
L 95.78408 150.586025 
L 95.966907 150.484434 
L 96.077633 150.348981 
L 95.997807 150.552161 
L 96.085358 150.382844 
L 96.118833 150.450571 
L 96.098233 150.315118 
L 96.188359 150.315118 
L 96.304235 150.078074 
L 96.31196 150.145801 
L 96.376335 150.111937 
L 96.469036 149.94262 
L 96.487061 149.976484 
L 96.512811 150.078074 
L 96.543712 149.874894 
L 96.595212 149.94262 
L 96.685338 149.671713 
L 96.713663 149.705577 
L 96.723963 149.773303 
L 96.803789 149.603987 
L 96.816664 149.671713 
L 96.93769 149.400806 
L 97.050991 149.265353 
L 96.94284 149.43467 
L 97.053566 149.33308 
L 97.115366 149.265353 
L 97.228667 149.028309 
L 97.143691 149.299216 
L 97.233817 149.062172 
L 97.365143 149.028309 
L 97.460419 148.825129 
L 97.478444 148.892856 
L 97.504194 148.926719 
L 97.57372 148.689675 
L 97.576295 148.723539 
L 97.681871 148.655812 
L 97.581445 148.757402 
L 97.687021 148.689675 
L 97.692171 148.757402 
L 97.759122 148.621948 
L 97.792597 148.621948 
L 97.911048 148.452632 
L 97.818347 148.655812 
L 97.913623 148.486495 
L 97.965123 148.384905 
L 97.980573 148.418768 
L 98.088724 148.215588 
L 98.160825 148.317178 
L 98.191725 148.181725 
L 98.2046 148.283315 
L 98.268976 148.181725 
L 98.307601 148.215588 
L 98.382277 148.113998 
L 98.464677 148.215588 
L 98.410602 148.080134 
L 98.495578 148.181725 
L 98.541928 148.012408 
L 98.606303 148.113998 
L 98.650079 148.080134 
L 98.717029 148.181725 
L 98.843205 147.910817 
L 98.84578 147.944681 
L 98.892131 147.978544 
L 98.910156 147.843091 
L 98.953931 147.910817 
L 99.028607 147.944681 
L 99.064657 147.843091 
L 99.080107 147.978544 
L 99.121308 147.775364 
L 99.175383 147.876954 
L 99.40971 147.775364 
L 99.43546 147.809227 
L 99.530736 147.606047 
L 99.564211 147.741501 
L 99.636312 147.53832 
L 99.638887 147.53832 
L 99.729013 147.43673 
L 99.803688 147.301277 
L 99.844889 147.33514 
L 99.850039 147.402867 
L 99.909264 147.267413 
L 99.95304 147.301277 
L 100.086941 147.199686 
L 100.189941 147.098096 
L 100.092091 147.23355 
L 100.202817 147.13196 
L 100.220842 147.165823 
L 100.241442 147.03037 
L 100.308392 147.098096 
L 100.377918 146.928779 
L 100.426843 146.962643 
L 100.434568 147.064233 
L 100.524694 146.793326 
L 100.65087 146.691736 
L 100.751296 146.590146 
L 100.658595 146.759462 
L 100.766746 146.624009 
L 100.849147 146.522419 
L 100.962448 146.420829 
L 100.890347 146.590146 
L 100.965023 146.454692 
L 101.042273 146.353102 
L 101.142699 146.285375 
L 101.047424 146.420829 
L 101.152999 146.353102 
L 101.155574 146.386965 
L 101.232825 146.149922 
L 101.253425 146.217648 
L 101.351276 146.116058 
L 101.410501 146.183785 
L 101.464577 146.048331 
L 101.498052 146.116058 
L 101.549553 145.980605 
L 101.572728 146.082195 
L 101.652553 145.845151 
L 101.691179 145.879015 
L 101.79418 145.946741 
L 101.791605 145.845151 
L 101.801905 145.879015 
L 101.907481 145.811288 
L 101.81478 145.946741 
L 101.912631 145.879015 
L 101.943531 145.912878 
L 102.013056 145.743561 
L 102.144383 145.709698 
L 102.260258 145.506517 
L 102.293734 145.3372 
L 102.376134 145.404927 
L 102.378709 145.438791 
L 102.468835 145.269474 
L 102.479135 145.3372 
L 102.569261 145.167884 
L 102.595011 145.201747 
L 102.597586 145.303337 
L 102.703162 145.100157 
L 102.777838 145.13402 
L 102.798438 144.998567 
L 102.803588 145.03243 
L 102.906589 144.896976 
L 102.916889 144.93084 
L 103.02504 144.863113 
L 103.135766 144.558343 
L 103.032765 144.896976 
L 103.143491 144.626069 
L 103.161516 144.659933 
L 103.233616 144.490616 
L 103.246492 144.558343 
L 103.352067 144.389026 
L 103.364943 144.422889 
L 103.385543 144.490616 
L 103.411293 144.321299 
L 103.470518 144.389026 
L 103.475668 144.456753 
L 103.591544 144.219709 
L 103.604419 144.287436 
L 103.66622 144.118119 
L 103.69712 144.118119 
L 103.810421 143.914938 
L 103.818146 143.982665 
L 103.879947 143.881075 
L 103.993248 143.610168 
L 103.887672 143.914938 
L 104.006123 143.677895 
L 104.008698 143.711758 
L 104.080798 143.508578 
L 104.106549 143.542441 
L 104.212124 143.440851 
L 104.160624 143.576305 
L 104.21985 143.474714 
L 104.237875 143.576305 
L 104.279075 143.373124 
L 104.32285 143.373124 
L 104.451601 143.305398 
L 104.567477 143.169944 
L 104.595803 143.271534 
L 104.624128 143.102217 
L 104.675628 143.169944 
L 104.799229 142.9329 
L 104.83013 143.03449 
L 104.904805 142.83131 
L 105.025831 142.72972 
L 105.139132 142.62813 
L 105.041281 142.797447 
L 105.141707 142.661993 
L 105.381184 142.560403 
L 105.48161 142.42495 
L 105.396634 142.594267 
L 105.49706 142.458813 
L 105.553711 142.52654 
L 105.525385 142.323359 
L 105.597486 142.357223 
L 105.703062 142.221769 
L 105.605211 142.391086 
L 105.715937 142.255633 
L 105.770012 142.323359 
L 105.793187 142.154043 
L 105.818938 142.187906 
L 105.921939 142.018589 
L 105.932239 142.052452 
L 105.968289 142.187906 
L 105.981164 141.984726 
L 106.040389 141.984726 
L 106.08674 142.052452 
L 106.15884 141.849272 
L 106.171716 141.950862 
L 106.246391 141.747682 
L 106.264416 141.781545 
L 106.382867 141.476775 
L 106.385442 141.510638 
L 106.493593 141.409048 
L 106.529644 141.273595 
L 106.604319 141.409048 
L 106.65582 141.307458 
L 106.779421 141.070414 
L 106.66612 141.341321 
L 106.781996 141.104278 
L 106.784571 141.138141 
L 106.836071 140.968824 
L 106.890146 141.070414 
L 106.954522 141.036551 
L 107.067823 140.799507 
L 107.070398 140.833371 
L 107.163099 140.901097 
L 107.083273 140.799507 
L 107.183699 140.867234 
L 107.232624 140.799507 
L 107.34335 140.562464 
L 107.3485 140.596327 
L 107.371675 140.63019 
L 107.410301 140.460873 
L 107.448926 140.5286 
L 107.518452 140.32542 
L 107.564802 140.359283 
L 107.685828 140.257693 
L 107.714153 140.12224 
L 107.796554 140.22383 
L 107.976805 140.156103 
L 108.090106 139.919059 
L 107.98453 140.189966 
L 108.095256 139.952923 
L 108.169932 139.919059 
L 108.280658 139.648152 
L 108.285808 139.682016 
L 108.404259 139.411109 
L 108.411984 139.444972 
L 108.466059 139.478835 
L 108.50211 139.343382 
L 108.520135 139.444972 
L 108.643736 139.275655 
L 108.684936 139.377245 
L 108.726137 139.241792 
L 108.759612 139.343382 
L 108.885788 139.106338 
L 108.896088 139.207928 
L 108.970764 138.970885 
L 108.991364 139.106338 
L 109.104665 138.937021 
L 109.10724 138.970885 
L 109.233416 138.699978 
L 109.266891 138.801568 
L 109.313241 138.598387 
L 109.341567 138.666114 
L 109.395642 138.733841 
L 109.460018 138.530661 
L 109.485768 138.666114 
L 109.552718 138.429071 
L 109.560443 138.462934 
L 109.676319 138.22589 
L 109.565593 138.496797 
L 109.678894 138.259754 
L 109.797345 138.192027 
L 109.825671 138.22589 
L 109.915796 137.988847 
L 109.941547 138.02271 
L 110.013647 137.853393 
L 110.018797 137.887256 
L 110.124373 137.785666 
L 110.232524 137.650213 
L 110.129523 137.81953 
L 110.240249 137.71794 
L 110.3484 137.650213 
L 110.459126 137.480896 
L 110.38445 137.71794 
L 110.461701 137.514759 
L 110.523501 137.548623 
L 110.510626 137.447032 
L 110.569852 137.480896 
L 110.678003 137.243852 
L 110.693453 137.311579 
L 110.752678 137.209989 
L 110.765553 137.277716 
L 110.876279 137.040672 
L 110.878854 137.142262 
L 110.961255 136.837492 
L 110.98443 136.972945 
L 111.082281 136.735901 
L 111.102881 136.769765 
L 111.105456 136.837492 
L 111.141506 136.668175 
L 111.211032 136.702038 
L 111.283133 136.735901 
L 111.301158 136.600448 
L 111.314033 136.634311 
L 111.422184 136.498858 
L 111.427334 136.532721 
L 111.520034 136.464994 
L 111.63591 136.295677 
L 111.689986 136.194087 
L 111.811012 135.990907 
L 111.702861 136.227951 
L 111.813587 136.02477 
L 111.867662 135.957044 
L 111.950063 135.787727 
L 111.978388 135.855454 
L 112.022164 135.92318 
L 111.991263 135.753863 
L 112.086539 135.82159 
L 112.19984 135.550683 
L 112.091689 135.855454 
L 112.207565 135.686137 
L 112.24619 135.61841 
L 112.351766 135.449093 
L 112.253916 135.652273 
L 112.359491 135.482956 
L 112.362066 135.550683 
L 112.457342 135.313639 
L 112.462492 135.313639 
L 112.568068 135.245913 
L 112.686519 135.008869 
L 112.78437 135.144323 
L 112.802395 135.076596 
L 112.85647 135.008869 
L 112.964621 134.941142 
L 112.861621 135.042732 
L 112.967196 135.008869 
L 113.085647 134.907279 
L 113.196373 134.805689 
L 113.095947 134.975006 
L 113.198948 134.839552 
L 113.201523 134.873415 
L 113.255599 134.636372 
L 113.299374 134.737962 
L 113.417825 134.534782 
L 113.4204 134.602508 
L 113.441 134.636372 
L 113.518251 134.433191 
L 113.520826 134.500918 
L 113.531126 134.534782 
L 113.652152 134.230011 
L 113.680477 134.365465 
L 113.739703 134.060694 
L 113.760303 134.196148 
L 113.873604 134.026831 
L 113.765453 134.230011 
L 113.881329 134.060694 
L 113.891629 134.094558 
L 113.966305 133.891377 
L 113.98433 133.959104 
L 114.04613 133.857514 
L 114.167156 133.654334 
L 114.05643 133.891377 
L 114.169731 133.688197 
L 114.288182 133.62047 
L 114.298482 133.688197 
L 114.401483 133.451153 
L 114.432383 133.51888 
L 114.507059 133.3157 
L 114.545684 133.41729 
L 114.586885 133.21411 
L 114.617785 133.349563 
L 114.749111 133.078656 
L 114.761986 133.21411 
L 114.785161 133.010929 
L 114.852112 133.044793 
L 114.862412 133.078656 
L 114.967988 132.909339 
L 114.998888 133.010929 
L 115.045238 132.841613 
L 115.076139 132.875476 
L 115.140514 132.773886 
L 115.243515 132.672296 
L 115.253815 132.706159 
L 115.351666 132.807749 
L 115.269265 132.672296 
L 115.361966 132.740022 
L 115.367116 132.773886 
L 115.475267 132.672296 
L 115.485567 132.740022 
L 115.567968 132.502979 
L 115.573118 132.536842 
L 115.681269 132.401389 
L 115.578268 132.570705 
L 115.691569 132.435252 
L 115.753369 132.333662 
L 115.82547 132.164345 
L 115.763669 132.401389 
L 115.869245 132.265935 
L 115.920746 132.198208 
L 116.031472 132.096618 
L 116.034047 132.130482 
L 116.036622 132.164345 
L 116.070097 131.995028 
L 116.137047 132.062755 
L 116.240048 131.961165 
L 116.152498 132.096618 
L 116.252923 131.995028 
L 116.340474 132.096618 
L 116.294124 131.893438 
L 116.363649 132.062755 
L 116.464075 131.961165 
L 116.389399 132.096618 
L 116.474375 132.028891 
L 116.608276 131.927301 
L 116.703552 131.757984 
L 116.726727 131.791848 
L 116.739602 131.859574 
L 116.814278 131.656394 
L 116.829728 131.724121 
L 116.925004 131.520941 
L 116.945604 131.588667 
L 117.00998 131.520941 
L 117.12328 131.31776 
L 117.125856 131.351624 
L 117.221131 131.250034 
L 117.321557 131.148443 
L 117.228856 131.283897 
L 117.334432 131.182307 
L 117.437433 131.21617 
L 117.360182 131.11458 
L 117.442583 131.148443 
L 117.553309 131.01299 
L 117.481208 131.21617 
L 117.561034 131.046853 
L 117.597084 131.080717 
L 117.638285 130.80981 
L 117.664035 130.945263 
L 117.795361 130.606629 
L 117.797936 130.640493 
L 117.877762 130.742083 
L 117.813386 130.572766 
L 117.908662 130.640493 
L 117.998788 130.572766 
L 118.034838 130.606629 
L 118.112089 130.403449 
L 118.117239 130.471176 
L 118.207364 130.234132 
L 118.220239 130.335722 
L 118.25114 130.369586 
L 118.29749 130.200269 
L 118.320665 130.234132 
L 118.410791 130.098679 
L 118.325815 130.267996 
L 118.433966 130.200269 
L 118.459716 130.166405 
L 118.575592 129.929362 
L 118.645118 129.997088 
L 118.676018 129.827772 
L 118.678593 129.827772 
L 118.794469 129.726181 
L 118.802194 129.760045 
L 118.91807 129.556865 
L 118.954121 129.658455 
L 119.018496 129.455274 
L 119.121497 129.353684 
L 119.044246 129.523001 
L 119.134372 129.387548 
L 119.157547 129.455274 
L 119.221923 129.285957 
L 119.234798 129.319821 
L 119.350674 129.150504 
L 119.4511 129.048914 
L 119.54895 128.91346 
L 119.566976 128.981187 
L 119.613326 128.947324 
L 119.729202 128.71028 
L 119.778127 128.642553 
L 119.891428 128.439373 
L 119.942929 128.540963 
L 119.986704 128.371646 
L 119.997004 128.40551 
L 120.045929 128.439373 
L 120.12833 128.134602 
L 120.251931 128.033012 
L 120.257081 128.066876 
L 120.372957 127.897559 
L 120.602134 127.897559 
L 120.699985 127.694378 
L 120.715435 127.762105 
L 120.766935 127.728242 
L 120.880236 127.558925 
L 120.970362 127.457335 
L 120.996112 127.491198 
L 121.091388 127.321881 
L 121.176364 127.220291 
L 121.253614 127.152564 
L 121.261339 127.288018 
L 121.284515 127.254155 
L 121.330865 127.152564 
L 121.346315 127.186428 
L 121.451891 127.017111 
L 121.482791 127.152564 
L 121.529142 126.949384 
L 121.557467 126.983247 
L 121.688793 126.71234 
L 121.711968 126.813931 
L 121.773769 126.543024 
L 121.784069 126.543024 
L 121.838144 126.475297 
L 121.871619 126.61075 
L 121.89737 126.50916 
L 121.899945 126.576887 
L 121.997796 126.40757 
L 122.005521 126.475297 
L 122.113671 126.272116 
L 122.121397 126.30598 
L 122.216672 126.20439 
L 122.327398 125.933483 
L 122.244998 126.238253 
L 122.335123 126.001209 
L 122.360873 125.899619 
L 122.373749 125.933483 
L 122.479324 125.764166 
L 122.57975 125.865756 
L 122.587475 125.764166 
L 122.690476 125.594849 
L 122.60035 125.831892 
L 122.705926 125.662576 
L 122.796052 125.560985 
L 122.911928 125.323942 
L 122.808927 125.662576 
L 122.919653 125.391669 
L 122.999479 125.425532 
L 122.976304 125.323942 
L 123.027804 125.357805 
L 123.14368 125.256215 
L 123.254406 125.120761 
L 123.256981 125.222352 
L 123.305906 125.120761 
L 123.372857 125.053035 
L 123.316206 125.188488 
L 123.416632 125.120761 
L 123.524783 125.053035 
L 123.640659 124.782128 
L 123.643234 124.849854 
L 123.76941 124.545084 
L 123.77456 124.578947 
L 123.846661 124.511221 
L 123.916186 124.240314 
L 123.962537 124.341904 
L 124.016612 124.240314 
L 124.135063 124.10486 
L 124.189139 124.138723 
L 124.230339 123.935543 
L 124.235489 124.00327 
L 124.34879 123.80009 
L 124.243214 124.037133 
L 124.351365 123.833953 
L 124.361665 123.969406 
L 124.40544 123.732363 
L 124.459516 123.80009 
L 124.580542 123.495319 
L 124.588267 123.529183 
L 124.660367 123.563046 
L 124.686118 123.393729 
L 124.691268 123.427592 
L 124.845769 123.326002 
L 124.96422 123.088959 
L 124.96937 123.156685 
L 125.074946 123.055095 
L 125.082671 123.122822 
L 125.203697 122.818052 
L 125.247472 122.750325 
L 125.319573 122.919642 
L 125.422574 122.682598 
L 125.438024 122.716461 
L 125.502399 122.648735 
L 125.61055 122.343964 
L 125.62085 122.445554 
L 125.855177 122.343964 
L 125.932428 122.208511 
L 125.875777 122.411691 
L 125.968478 122.310101 
L 126.094654 122.242374 
L 126.099804 122.276237 
L 126.213105 122.00533 
L 126.280056 122.140784 
L 126.323831 122.00533 
L 126.486057 121.971467 
L 126.573608 121.80215 
L 126.599358 121.869877 
L 126.648284 121.90374 
L 126.661159 121.768287 
L 126.699784 121.836013 
L 126.807935 121.59897 
L 126.813085 121.666697 
L 126.895486 121.565106 
L 126.918661 121.666697 
L 127.013937 121.429653 
L 127.031962 121.565106 
L 127.075737 121.294199 
L 127.119513 121.294199 
L 127.160713 121.260336 
L 127.276589 120.955566 
L 127.304914 121.023292 
L 127.335814 120.887839 
L 127.38474 120.887839 
L 127.469715 120.718522 
L 127.38989 120.921702 
L 127.503191 120.786249 
L 127.745243 120.684658 
L 127.760693 120.616932 
L 127.825068 120.786249 
L 127.858544 120.650795 
L 127.884294 120.853975 
L 127.956394 120.549205 
L 127.964119 120.616932 
L 128.064545 120.413751 
L 127.976995 120.650795 
L 128.079995 120.447615 
L 128.105746 120.515342 
L 128.121196 120.379888 
L 128.190721 120.481478 
L 128.301447 120.346025 
L 128.208747 120.515342 
L 128.306597 120.413751 
L 128.383848 120.447615 
L 128.407023 120.312161 
L 128.414748 120.379888 
L 128.427623 120.278298 
L 128.546074 119.939664 
L 128.556374 119.973527 
L 128.587275 120.108981 
L 128.63105 119.939664 
L 128.6671 120.007391 
L 128.685125 119.905801 
L 128.813876 119.431713 
L 128.842202 119.533303 
L 128.896277 119.262396 
L 128.916877 119.29626 
L 129.053353 118.957626 
L 129.089404 118.991489 
L 129.110004 118.788309 
L 129.153779 118.822172 
L 129.28253 118.483539 
L 129.285105 118.517402 
L 129.336606 118.585129 
L 129.352056 118.381948 
L 129.390681 118.449675 
L 129.400981 118.348085 
L 129.522007 118.144905 
L 129.406131 118.415812 
L 129.524582 118.178768 
L 129.552908 118.077178 
L 129.673934 117.840134 
L 129.586383 118.144905 
L 129.679084 117.873998 
L 129.715134 117.941725 
L 129.748609 117.704681 
L 129.779509 117.738544 
L 129.879935 117.501501 
L 129.905685 117.535364 
L 129.90826 117.569227 
L 129.954611 117.366047 
L 129.998386 117.366047 
L 130.085937 117.19673 
L 130.111687 117.264457 
L 130.114262 117.29832 
L 130.199238 117.027413 
L 130.206963 117.09514 
L 130.327989 116.722643 
L 130.330564 116.858096 
L 130.41039 116.519462 
L 130.433565 116.553326 
L 130.469615 116.688779 
L 130.554591 116.417872 
L 130.611241 116.316282 
L 130.691067 116.011512 
L 130.732267 116.045375 
L 130.863593 115.672878 
L 130.873893 115.774468 
L 130.933119 115.537424 
L 130.971744 115.605151 
L 131.02582 115.537424 
L 131.149421 115.164927 
L 131.175171 115.232654 
L 131.244696 114.927884 
L 131.252421 114.99561 
L 131.280747 114.927884 
L 131.401773 114.58925 
L 131.404348 114.623113 
L 131.481598 114.386069 
L 131.502199 114.453796 
L 131.507349 114.48766 
L 131.638675 114.081299 
L 131.6773 114.115162 
L 131.736525 113.911982 
L 131.7391 113.979709 
L 131.852401 113.336305 
L 131.860126 113.404031 
L 132.030078 112.320403 
L 132.045528 112.421993 
L 132.055828 112.48972 
L 132.127929 112.049496 
L 132.259255 111.507682 
L 132.264405 111.609272 
L 132.326205 111.067458 
L 132.33393 111.067458 
L 132.516757 110.051557 
L 132.519332 110.08542 
L 132.537357 110.017693 
L 132.720184 108.08748 
L 132.722759 108.121344 
L 132.776834 107.376349 
L 132.787134 107.308623 
L 132.94936 100.502083 
L 132.977686 76.255901 
L 133.000861 14.76 
L 133.080687 110.017693 
L 133.183687 122.716461 
L 133.212013 122.648735 
L 133.248063 122.547144 
L 133.327889 122.716461 
L 133.387114 122.784188 
L 133.490115 123.021232 
L 133.50299 122.953505 
L 133.631741 122.851915 
L 133.752767 122.648735 
L 133.639466 122.885778 
L 133.755342 122.682598 
L 133.763067 122.784188 
L 133.842893 122.445554 
L 133.850618 122.479418 
L 133.969069 122.10692 
L 133.981944 122.140784 
L 133.984519 122.208511 
L 134.07722 121.80215 
L 134.08237 121.869877 
L 134.244596 121.158746 
L 134.280646 121.226473 
L 134.339872 120.887839 
L 134.345022 120.887839 
L 134.381072 120.820112 
L 134.509823 120.244434 
L 134.512398 120.312161 
L 134.605099 119.838074 
L 134.625699 119.770347 
L 134.746725 119.160806 
L 134.7493 119.228533 
L 134.921827 118.314222 
L 134.926977 118.348085 
L 134.945002 118.280358 
L 135.076328 117.569227 
L 135.078903 117.636954 
L 135.094353 117.535364 
L 135.266879 116.722643 
L 135.269454 116.756506 
L 135.34413 116.282419 
L 135.346705 116.316282 
L 135.521807 115.435834 
L 135.526957 115.503561 
L 135.609357 114.860157 
L 135.619657 114.758567 
L 135.787034 114.013572 
L 135.807634 113.911982 
L 135.972435 113.200851 
L 135.97501 113.268578 
L 136.057411 112.896081 
L 136.072861 112.929944 
L 136.085736 112.828354 
L 136.291738 111.541545 
L 136.307188 111.609272 
L 136.366413 111.067458 
L 136.381864 111.067458 
L 136.891718 102.97411 
L 136.940643 95.693483 
L 136.976693 15.742038 
L 137.043644 96.607794 
L 137.15952 121.226473 
L 137.177545 121.158746 
L 137.249646 121.124882 
L 137.254796 121.260336 
L 137.283121 121.226473 
L 137.314021 121.294199 
L 137.388697 121.49738 
L 137.427322 121.395789 
L 137.571523 121.294199 
L 137.607574 121.395789 
L 137.692549 121.158746 
L 137.7286 121.057156 
L 137.880526 120.278298 
L 137.893401 120.346025 
L 137.911426 120.278298 
L 138.047902 119.60103 
L 138.060777 119.533303 
L 138.189528 118.754446 
L 138.197254 118.652856 
L 138.387805 117.603091 
L 138.40068 117.535364 
L 138.516556 116.99355 
L 138.524281 117.027413 
L 138.653032 116.384009 
L 138.658182 116.417872 
L 138.673632 116.316282 
L 138.812684 115.571288 
L 138.822984 115.503561 
L 138.828134 115.537424 
L 138.967185 114.58925 
L 138.982635 114.58925 
L 139.108811 113.776529 
L 139.253012 112.896081 
L 139.263312 112.828354 
L 139.412663 111.778589 
L 139.430689 111.676999 
L 139.752566 108.900202 
L 139.762866 108.832475 
L 139.768016 108.866338 
L 139.945693 106.936125 
L 139.955993 106.834535 
L 140.151695 99.079821 
L 140.18517 77.74589 
L 140.208345 17.841568 
L 140.288171 106.089541 
L 140.396322 120.075118 
L 140.419497 119.973527 
L 140.458122 120.075118 
L 140.612623 120.650795 
L 140.746524 120.752385 
L 140.749099 120.786249 
L 140.81605 120.447615 
L 140.834075 120.447615 
L 140.8727 120.379888 
L 140.978276 120.041254 
L 140.988576 120.075118 
L 140.991151 120.108981 
L 141.063252 119.634894 
L 141.068402 119.70262 
L 141.204878 118.856036 
L 141.238353 118.923763 
L 141.248654 118.856036 
L 141.39543 117.907861 
L 141.398005 117.941725 
L 141.45723 117.467637 
L 141.46753 117.467637 
L 141.611732 116.553326 
L 141.632332 116.451736 
L 141.871809 114.724703 
L 141.874384 114.758567 
L 141.938759 114.250616 
L 141.941334 114.250616 
L 142.064935 113.302441 
L 142.075235 113.336305 
L 142.080385 113.404031 
L 142.160211 112.6929 
L 142.173086 112.625174 
L 142.332737 111.304502 
L 142.343038 111.236775 
L 142.515564 109.611333 
L 142.531014 109.509742 
L 142.899242 103.211153 
L 142.981643 95.795073 
L 143.004818 51.637223 
L 143.022843 18.620426 
L 143.102669 105.107503 
L 143.22627 119.059216 
L 143.233995 118.991489 
L 143.239145 118.923763 
L 143.334421 119.262396 
L 143.342146 119.29626 
L 143.439997 119.49944 
L 143.360171 119.262396 
L 143.455447 119.465577 
L 143.491497 119.533303 
L 143.573898 119.363987 
L 143.586773 119.39785 
L 143.656298 119.160806 
L 143.669173 119.19467 
L 143.808225 118.754446 
L 143.8108 118.788309 
L 143.813375 118.822172 
L 143.87775 118.348085 
L 143.88805 118.348085 
L 143.89835 118.246495 
L 144.088902 117.129003 
L 144.091477 117.162867 
L 144.112077 117.061277 
L 144.323229 115.706741 
L 144.325804 115.740605 
L 144.397904 115.232654 
L 144.549831 114.115162 
L 144.562706 114.013572 
L 144.853683 111.643135 
L 144.869133 111.575409 
L 145.069985 109.171109 
L 145.075135 109.069518 
L 145.438213 102.87252 
L 145.520614 92.815095 
L 145.556664 20.652228 
L 145.62619 96.336887 
L 145.749791 118.009451 
L 145.760091 117.873998 
L 145.857941 118.009451 
L 145.783266 117.840134 
L 145.873392 117.975588 
L 145.940342 118.178768 
L 145.989267 118.111041 
L 146.051068 118.043315 
L 146.179819 117.569227 
L 146.372946 116.485599 
L 146.393546 116.384009 
L 146.671648 114.182889 
L 146.674223 114.250616 
L 146.748899 113.336305 
L 146.751474 113.370168 
L 146.766924 113.268578 
L 146.924 112.049496 
L 146.92915 111.981769 
L 147.075926 110.525644 
L 147.106827 110.424054 
L 147.289653 108.527704 
L 147.305103 108.459978 
L 147.464755 106.529765 
L 147.642431 102.737066 
L 147.729982 97.691422 
L 147.768607 81.843359 
L 147.796932 21.76972 
L 147.869033 95.930526 
L 148.002934 116.214692 
L 148.018384 116.180829 
L 148.07761 116.654916 
L 148.08276 116.621053 
L 148.198636 116.99355 
L 148.219236 116.959686 
L 148.268161 117.061277 
L 148.296486 117.09514 
L 148.360862 116.89196 
L 148.366012 116.925823 
L 148.484463 116.519462 
L 148.502488 116.417872 
L 148.510213 116.451736 
L 148.700765 115.164927 
L 148.70334 115.266517 
L 148.79089 114.555386 
L 148.796041 114.555386 
L 148.960842 113.133124 
L 148.968567 113.166988 
L 149.030367 112.59131 
L 149.28787 110.661097 
L 149.316195 110.559507 
L 149.321345 110.593371 
L 149.93935 100.908443 
L 150.014026 93.96645 
L 150.042351 60.949653 
L 150.062951 23.733796 
L 150.140202 98.402553 
L 150.274103 114.826293 
L 150.410579 115.571288 
L 150.415729 115.503561 
L 150.492979 115.808331 
L 150.50328 115.808331 
L 150.588255 115.909922 
L 150.593405 115.977648 
L 150.621731 115.706741 
L 150.683531 115.740605 
L 150.706706 115.774468 
L 150.871508 114.724703 
L 150.881808 114.623113 
L 151.12386 112.862217 
L 151.126435 112.929944 
L 151.20626 112.18495 
L 151.376212 110.593371 
L 151.399387 110.491781 
L 152.053442 100.468219 
L 152.153868 90.410795 
L 152.195068 25.697872 
L 152.262019 88.480582 
L 152.398495 113.674938 
L 152.40107 113.641075 
L 152.470596 114.115162 
L 152.475746 114.115162 
L 152.627672 114.724703 
L 152.630247 114.69084 
L 152.676597 114.58925 
L 152.828524 114.047436 
L 152.867149 113.945845 
L 153.0062 113.166988 
L 153.013925 113.065398 
L 153.222502 111.710862 
L 153.240527 111.778589 
L 153.310053 111.236775 
L 153.451679 110.017693 
L 153.474854 109.916103 
L 153.794157 107.139306 
L 153.796732 107.173169 
L 153.858532 106.529765 
L 154.319461 92.070101 
L 154.352936 49.063606 
L 154.370961 27.289451 
L 154.445637 94.779171 
L 154.582113 111.473819 
L 154.631038 111.338365 
L 154.677389 111.676999 
L 154.690264 111.778589 
L 154.813865 112.48972 
L 154.82674 112.455857 
L 154.834465 112.421993 
L 154.86279 112.59131 
L 154.929741 112.557447 
L 154.996691 112.48972 
L 155.115142 112.015633 
L 155.122867 112.049496 
L 155.138318 111.981769 
L 155.279944 111.135185 
L 155.292819 111.067458 
L 155.42157 110.119283 
L 155.424145 110.153147 
L 155.491095 109.611333 
L 155.493671 109.611333 
L 155.529721 109.509742 
L 156.029275 104.328645 
L 156.03185 104.362508 
L 156.034425 104.396372 
L 156.0885 103.719104 
L 156.091075 103.719104 
L 156.271327 99.892542 
L 156.420678 84.484703 
L 156.459303 29.592161 
L 156.526254 86.110146 
L 156.665305 109.577469 
L 156.66788 109.543606 
L 156.691055 109.645196 
L 156.835257 110.559507 
L 156.842982 110.491781 
L 156.920232 110.728824 
L 156.938257 110.627234 
L 157.010358 110.728824 
L 157.023233 110.559507 
L 157.046408 110.627234 
L 157.244685 109.475879 
L 157.25241 109.509742 
L 157.316785 109.069518 
L 157.321936 109.069518 
L 157.553687 107.47794 
L 157.556262 107.511803 
L 157.615488 106.868399 
L 157.620638 106.902262 
L 157.633513 106.834535 
L 157.800889 105.27682 
L 157.803464 105.310683 
L 157.86269 104.667279 
L 157.865265 104.701142 
L 158.032641 102.466159 
L 158.305594 97.420515 
L 158.413744 89.090123 
L 158.454945 47.20112 
L 158.470395 33.317133 
L 158.542496 84.55243 
L 158.686697 106.699082 
L 158.969949 108.967928 
L 158.982824 109.069518 
L 159.090975 109.306562 
L 159.024025 109.001792 
L 159.106425 109.238835 
L 159.273802 108.459978 
L 159.278952 108.561568 
L 159.333027 108.155207 
L 159.363927 108.222934 
L 159.508128 107.308623 
L 159.528729 107.207032 
L 159.842881 104.497962 
L 159.845456 104.531825 
L 159.902107 103.820694 
L 159.909832 103.752968 
L 160.087508 101.788891 
L 160.092658 101.856618 
L 160.373336 96.709384 
L 160.504662 87.227637 
L 160.548437 49.673147 
L 160.566462 36.161657 
L 160.633413 83.164031 
L 160.775039 105.209093 
L 161.058291 107.545666 
L 161.060866 107.511803 
L 161.084041 107.57953 
L 161.109792 107.748847 
L 161.176742 107.511803 
L 161.194767 107.57953 
L 161.235968 107.47794 
L 161.241118 107.511803 
L 161.369869 107.139306 
L 161.395619 107.207032 
L 161.46257 106.936125 
L 161.465145 106.936125 
L 161.47287 107.003852 
L 161.637671 106.123404 
L 161.650546 106.157268 
L 161.707197 105.68318 
L 161.712347 105.68318 
L 161.866848 104.430235 
L 161.869423 104.464099 
L 161.882298 104.430235 
L 162.018774 103.38047 
L 162.572404 94.677581 
L 162.685705 80.895185 
L 162.732055 38.769138 
L 162.799005 79.506786 
L 162.948357 103.17729 
L 162.950932 103.143427 
L 162.958657 103.109563 
L 163.007582 103.786831 
L 163.015307 103.752968 
L 163.285684 105.852497 
L 163.368085 105.920224 
L 163.419586 106.089541 
L 163.404135 105.886361 
L 163.476236 105.954087 
L 163.612712 105.27682 
L 163.625587 105.17523 
L 163.769788 104.294782 
L 164.022141 102.432296 
L 164.032441 102.364569 
L 164.197242 100.77299 
L 164.202392 100.806853 
L 164.212692 100.739127 
L 164.452169 97.352788 
L 164.634996 93.56009 
L 164.763747 81.166092 
L 164.820397 42.053886 
L 164.884773 75.578634 
L 165.049574 101.517984 
L 165.054724 101.619574 
L 165.392052 105.27682 
L 165.435827 105.17523 
L 165.461577 105.073639 
L 165.574878 104.904323 
L 165.580028 104.938186 
L 165.600628 104.972049 
L 165.667579 104.701142 
L 165.672729 104.768869 
L 165.798905 104.125465 
L 165.847831 104.023875 
L 165.981732 103.245017 
L 165.986882 103.27888 
L 166.192883 102.025935 
L 166.203183 101.924345 
L 166.816038 92.408735 
L 166.906164 84.687884 
L 166.96539 52.00972 
L 166.983415 44.356596 
L 167.04779 74.596596 
L 167.204867 99.452318 
L 167.436619 102.838656 
L 167.441769 102.804793 
L 167.452069 102.906383 
L 167.629745 103.786831 
L 167.63232 103.752968 
L 167.714721 104.023875 
L 167.727596 103.956148 
L 167.771371 104.057738 
L 167.802272 103.820694 
L 167.825447 103.854558 
L 167.956773 103.17729 
L 167.959348 103.211153 
L 167.992823 103.143427 
L 168.126724 102.229115 
L 168.139599 102.296842 
L 168.1911 101.924345 
L 168.21685 101.958208 
L 168.901806 91.56215 
L 169.033132 78.829518 
L 169.092357 46.286809 
L 169.159308 73.479104 
L 169.326684 98.334826 
L 169.329259 98.300963 
L 169.375609 99.147548 
L 169.741262 102.500022 
L 169.790188 102.601613 
L 169.870014 102.669339 
L 169.821088 102.500022 
L 169.890614 102.533886 
L 169.99619 102.025935 
L 170.009065 102.059798 
L 170.01164 102.161389 
L 170.09919 101.619574 
L 170.106915 101.619574 
L 170.127516 101.517984 
L 170.243392 100.908443 
L 170.276867 100.97617 
L 170.279442 101.010034 
L 170.330942 100.468219 
L 170.343817 100.468219 
L 170.493169 99.418455 
L 170.495744 99.452318 
L 170.557544 98.808914 
L 171.160099 89.46262 
L 171.2837 80.251781 
L 171.353226 57.224681 
L 171.376401 51.366316 
L 171.435626 68.568914 
L 171.613303 94.677581 
L 171.615878 94.643718 
L 171.819305 98.300963 
L 172.105132 100.637536 
L 172.107707 100.603673 
L 172.184958 100.97617 
L 172.192683 100.942307 
L 172.329159 101.314804 
L 172.46821 100.77299 
L 172.47336 100.87458 
L 172.50426 100.77299 
L 172.511985 100.840717 
L 172.663911 100.061859 
L 172.666487 100.129586 
L 172.746312 99.486181 
L 172.751462 99.553908 
L 172.900813 98.47028 
L 172.911114 98.504143 
L 172.967764 97.894602 
L 172.970339 97.928466 
L 173.001239 97.826876 
L 173.585769 88.683763 
L 173.70937 76.391355 
L 173.791771 54.278567 
L 173.856146 69.550952 
L 174.041548 93.492363 
L 174.368575 99.215274 
L 174.371151 99.181411 
L 174.443251 99.689362 
L 174.445826 99.655498 
L 174.458701 99.757088 
L 174.628653 100.739127 
L 174.636378 100.637536 
L 174.772854 100.739127 
L 174.803754 100.637536 
L 174.881005 100.77299 
L 175.022631 99.892542 
L 175.035506 99.926405 
L 175.105032 99.587772 
L 175.107607 99.621635 
L 175.236358 98.707324 
L 175.249233 98.741187 
L 175.251808 98.808914 
L 175.334208 98.199373 
L 175.339358 98.233236 
L 175.347084 98.16551 
L 175.537635 95.998253 
L 175.54021 96.032116 
L 175.602011 95.388712 
L 175.632911 95.287122 
L 175.761662 94.135767 
L 175.764237 94.16963 
L 176.163365 87.498544 
L 176.312716 77.407256 
L 176.415717 56.276506 
L 176.490393 68.602777 
L 176.69897 92.137828 
L 176.964197 98.233236 
L 176.966772 98.131646 
L 177.049172 99.215274 
L 177.051748 99.181411 
L 177.116123 99.790952 
L 177.118698 99.757088 
L 177.270624 100.366629 
L 177.273199 100.332766 
L 177.278349 100.366629 
L 177.399375 100.129586 
L 177.458601 100.027996 
L 177.479201 100.129586 
L 177.577052 99.723225 
L 177.579627 99.757088 
L 177.644002 99.384591 
L 177.659453 99.384591 
L 177.875754 97.996193 
L 177.901504 97.894602 
L 178.043131 96.641657 
L 178.365008 93.76327 
L 178.370158 93.797133 
L 178.403634 93.86486 
L 178.449984 93.221456 
L 178.457709 93.221456 
L 178.473159 93.153729 
L 178.746111 88.886943 
L 178.756412 88.785353 
L 179.044814 78.287704 
L 179.19674 60.340112 
L 179.276566 68.738231 
L 179.593293 93.187592 
L 179.809595 97.352788 
L 179.819895 97.454378 
L 179.994997 99.215274 
L 180.000147 99.147548 
L 180.069672 99.655498 
L 180.072247 99.621635 
L 180.172673 99.926405 
L 180.190698 99.824815 
L 180.260224 100.197312 
L 180.316874 100.095722 
L 180.430175 99.723225 
L 180.435325 99.790952 
L 180.44305 99.757088 
L 180.551201 99.215274 
L 180.566651 99.249138 
L 180.605277 99.147548 
L 180.677377 98.741187 
L 180.736603 98.808914 
L 180.754628 98.910504 
L 180.821578 98.199373 
L 180.978655 96.844838 
L 180.98123 96.878701 
L 180.999255 96.844838 
L 181.135731 95.795073 
L 181.146031 95.693483 
L 181.153756 95.761209 
L 181.424133 93.458499 
L 181.429283 93.492363 
L 181.488509 92.848959 
L 181.491084 92.882822 
L 181.509109 92.781232 
L 182.266165 81.369272 
L 182.549418 68.907548 
L 182.626668 71.515028 
L 183.077297 89.428757 
L 183.327074 93.119866 
L 183.342524 93.187592 
L 183.527926 95.185532 
L 183.543376 95.287122 
L 183.677277 96.26916 
L 183.679852 96.235297 
L 183.739077 96.540067 
L 183.769978 96.47234 
L 183.800878 96.607794 
L 183.857528 96.26916 
L 183.870403 96.336887 
L 183.893579 96.438477 
L 183.945079 96.743247 
L 184.014605 96.675521 
L 184.045505 96.573931 
L 184.10988 96.777111 
L 184.122756 96.743247 
L 184.225756 96.641657 
L 184.184556 96.844838 
L 184.238632 96.675521 
L 184.282407 96.573931 
L 184.442058 95.795073 
L 184.305582 96.675521 
L 184.449783 95.828936 
L 184.483259 95.96439 
L 184.498709 95.795073 
L 184.501284 95.828936 
L 184.62746 117.162867 
L 184.890112 127.152564 
L 184.897837 127.254155 
L 185.927845 139.343382 
L 185.945871 139.411109 
L 186.087497 140.257693 
L 186.102947 140.32542 
L 186.239423 141.002688 
L 186.280623 141.104278 
L 186.435125 141.713819 
L 186.448 141.646092 
L 186.51495 141.984726 
L 186.5201 141.984726 
L 186.643701 142.458813 
L 186.52525 141.950862 
L 186.646276 142.391086 
L 186.780177 142.797447 
L 186.785327 142.763583 
L 186.811078 142.83131 
L 186.926954 143.068354 
L 186.929529 143.03449 
L 186.968154 143.102217 
L 187.05828 143.339261 
L 187.08403 143.237671 
L 187.13038 143.339261 
L 187.241106 143.440851 
L 187.14068 143.271534 
L 187.243681 143.373124 
L 187.351832 143.440851 
L 187.467708 143.711758 
L 187.470283 143.644031 
L 187.511483 143.813348 
L 187.588734 143.745622 
L 187.753535 143.847212 
L 187.841086 143.948802 
L 187.76126 143.813348 
L 187.866836 143.881075 
L 188.114038 143.982665 
L 188.196439 144.016529 
L 188.132063 143.914938 
L 188.222189 143.948802 
L 188.778394 143.847212 
L 188.88912 143.779485 
L 188.840194 143.914938 
L 188.891695 143.813348 
L 189.043621 143.711758 
L 189.149197 143.644031 
L 189.128597 143.779485 
L 189.156922 143.677895 
L 189.159497 143.745622 
L 189.190397 143.542441 
L 189.265073 143.610168 
L 189.347473 143.508578 
L 189.375799 143.576305 
L 189.491675 143.440851 
L 189.386099 143.610168 
L 189.49425 143.474714 
L 189.635876 143.373124 
L 189.656476 143.305398 
L 189.684801 143.440851 
L 189.746602 143.373124 
L 189.818702 143.305398 
L 189.929428 143.136081 
L 189.849603 143.339261 
L 189.932003 143.169944 
L 190.042729 143.068354 
L 190.112255 142.966764 
L 190.060754 143.102217 
L 190.153455 143.03449 
L 190.17148 143.136081 
L 190.228131 143.000627 
L 190.264181 143.03449 
L 190.380057 142.899037 
L 190.274481 143.068354 
L 190.382632 142.9329 
L 190.586059 142.83131 
L 190.696785 142.661993 
L 190.707085 142.695857 
L 190.70966 142.797447 
L 190.77661 142.594267 
L 190.815236 142.661993 
L 190.889911 142.560403 
L 190.846136 142.695857 
L 190.925961 142.62813 
L 191.010937 142.661993 
L 190.972312 142.52654 
L 191.036687 142.62813 
L 191.041837 142.52654 
L 191.137113 142.695857 
L 191.147413 142.62813 
L 191.492466 142.560403 
L 191.497616 142.492676 
L 191.528516 142.62813 
L 191.603192 142.560403 
L 191.762843 142.52654 
L 191.827219 142.391086 
L 191.786018 142.560403 
L 191.876144 142.42495 
L 191.909619 142.52654 
L 191.97142 142.357223 
L 191.984295 142.357223 
L 192.084721 142.391086 
L 192.025495 142.289496 
L 192.095021 142.357223 
L 192.216047 142.255633 
L 192.321623 142.221769 
L 192.236647 142.357223 
L 192.326773 142.255633 
L 193.372232 142.154043 
L 193.449482 142.120179 
L 193.464932 142.255633 
L 193.480382 142.154043 
L 193.529308 142.289496 
L 193.593683 142.187906 
L 193.82286 142.120179 
L 193.83316 142.187906 
L 193.936161 142.052452 
L 193.974786 142.221769 
L 194.031437 142.018589 
L 194.046887 142.154043 
L 194.137013 141.916999 
L 194.160188 141.950862 
L 194.214263 141.916999 
L 194.273489 142.018589 
L 194.276064 141.950862 
L 194.348165 142.086316 
L 194.384215 142.018589 
L 194.399665 141.984726 
L 194.44344 142.187906 
L 194.489791 142.086316 
L 194.500091 142.187906 
L 194.541291 142.052452 
L 194.603092 142.120179 
L 194.706092 142.052452 
L 194.623692 142.154043 
L 194.716393 142.086316 
L 195.200497 142.018589 
L 195.288047 141.950862 
L 195.233972 142.086316 
L 195.308647 142.052452 
L 195.429673 141.950862 
L 195.442549 141.883135 
L 195.450274 142.018589 
L 195.537824 141.984726 
L 196.457107 141.883135 
L 196.521482 141.849272 
L 196.464832 141.950862 
L 196.562683 141.950862 
L 196.928336 142.018589 
L 197.036487 142.120179 
L 197.039062 142.086316 
L 197.064812 141.950862 
L 197.149788 142.052452 
L 197.162663 142.120179 
L 197.211588 141.984726 
L 197.257938 142.052452 
L 197.368664 141.950862 
L 197.309439 142.120179 
L 197.371239 142.018589 
L 197.47939 142.086316 
L 197.384114 141.950862 
L 197.481965 142.018589 
L 197.577241 141.950862 
L 197.639042 141.849272 
L 197.600416 142.018589 
L 197.687967 141.950862 
L 198.223571 141.916999 
L 198.233871 141.815409 
L 198.246747 141.950862 
L 198.334297 141.849272 
L 198.352322 141.916999 
L 198.372923 141.781545 
L 198.442448 141.815409 
L 198.6845 141.747682 
L 198.687075 141.679955 
L 198.741151 141.883135 
L 198.792651 141.781545 
L 198.823551 141.916999 
L 198.905952 141.883135 
L 199.011528 141.815409 
L 198.942002 141.916999 
L 199.016678 141.883135 
L 199.119679 141.781545 
L 199.021828 141.916999 
L 199.129979 141.849272 
L 199.148004 141.916999 
L 199.181479 141.747682 
L 199.24328 141.883135 
L 199.32568 141.747682 
L 199.297355 141.916999 
L 199.354006 141.815409 
L 199.433831 141.747682 
L 199.467307 141.916999 
L 199.567732 141.781545 
L 199.578032 141.883135 
L 199.742834 141.950862 
L 199.850985 142.052452 
L 199.85356 142.018589 
L 199.959136 141.916999 
L 199.871585 142.086316 
L 199.966861 141.984726 
L 199.974586 142.052452 
L 199.972011 141.950862 
L 200.075012 141.984726 
L 200.159987 141.883135 
L 200.090462 142.018589 
L 200.190887 141.916999 
L 200.430364 141.849272 
L 200.432939 141.781545 
L 200.507615 141.984726 
L 200.538515 141.883135 
L 200.850093 141.950862 
L 200.857818 142.018589 
L 200.945369 141.849272 
L 200.958244 141.883135 
L 200.973694 141.849272 
L 201.071545 141.950862 
L 201.189996 141.849272 
L 201.300722 141.984726 
L 201.303297 141.950862 
L 201.406297 141.849272 
L 201.408872 141.815409 
L 201.444923 141.950862 
L 201.509298 141.883135 
L 201.576249 141.984726 
L 201.522173 141.849272 
L 201.620024 141.950862 
L 201.738475 141.815409 
L 201.77195 141.916999 
L 201.828601 141.747682 
L 201.849201 141.849272 
L 201.872376 141.713819 
L 201.962502 141.781545 
L 202.943585 141.849272 
L 202.953885 141.950862 
L 202.96161 141.815409 
L 203.054311 141.849272 
L 203.100661 141.950862 
L 203.167612 141.916999 
L 203.273188 141.815409 
L 203.226837 141.984726 
L 203.280913 141.849272 
L 203.301513 141.950862 
L 203.389064 141.781545 
L 203.419964 141.916999 
L 203.481765 141.747682 
L 203.497215 141.815409 
L 203.589915 141.713819 
L 203.610516 141.747682 
L 203.669741 141.679955 
L 203.687766 141.815409 
L 203.718666 141.747682 
L 203.788192 141.713819 
L 203.826817 141.815409 
L 203.860293 141.679955 
L 203.937543 141.747682 
L 204.089469 141.815409 
L 204.158995 141.883135 
L 204.16672 141.781545 
L 204.19762 141.849272 
L 204.310921 141.679955 
L 204.313496 141.713819 
L 204.504048 141.612228 
L 204.542673 141.510638 
L 204.609624 141.679955 
L 204.612199 141.646092 
L 204.668849 141.747682 
L 204.7049 141.612228 
L 204.784725 141.815409 
L 205.168403 141.713819 
L 205.173553 141.679955 
L 205.243079 141.883135 
L 205.276554 141.713819 
L 205.389855 141.849272 
L 205.482556 141.713819 
L 205.503156 141.747682 
L 205.549506 141.713819 
L 205.619032 141.849272 
L 205.673107 141.747682 
L 205.634482 141.883135 
L 205.729758 141.815409 
L 206.03361 141.747682 
L 206.113436 141.646092 
L 206.061936 141.781545 
L 206.144336 141.747682 
L 206.579515 141.815409 
L 206.631015 141.916999 
L 206.61814 141.747682 
L 206.690241 141.849272 
L 206.795817 141.713819 
L 206.806117 141.781545 
L 207.465322 141.849272 
L 207.483347 141.747682 
L 207.578623 141.916999 
L 208.111653 141.883135 
L 208.176028 141.747682 
L 208.219803 141.883135 
L 208.240404 141.815409 
L 208.338254 142.018589 
L 208.44383 141.815409 
L 208.451555 141.916999 
L 208.492756 141.849272 
L 208.603482 141.747682 
L 208.711632 141.815409 
L 208.608632 141.679955 
L 208.714207 141.747682 
L 208.822358 141.815409 
L 208.724508 141.713819 
L 208.827508 141.781545 
L 209.185436 141.713819 
L 209.188011 141.646092 
L 209.193161 141.781545 
L 209.296162 141.713819 
L 209.811166 141.781545 
L 209.909017 141.883135 
L 209.847217 141.713819 
L 209.924467 141.849272 
L 210.045493 141.781545 
L 210.048068 141.713819 
L 210.094419 141.849272 
L 210.153644 141.815409 
L 210.315871 141.713819 
L 210.382821 141.646092 
L 210.351921 141.781545 
L 210.426597 141.713819 
L 210.573373 141.815409 
L 210.586248 141.747682 
L 210.689249 141.950862 
L 210.720149 141.849272 
L 210.751049 141.984726 
L 210.7974 141.950862 
L 210.836025 141.984726 
L 210.866925 141.849272 
L 210.902975 141.916999 
L 211.005976 141.849272 
L 210.913276 141.984726 
L 211.016276 141.883135 
L 211.41798 141.849272 
L 211.508105 141.747682 
L 211.487505 141.883135 
L 211.528706 141.849272 
L 211.814533 141.950862 
L 211.858308 141.984726 
L 211.899509 141.849272 
L 211.917534 141.883135 
L 211.948434 141.747682 
L 212.010235 141.950862 
L 212.025685 141.916999 
L 212.10036 141.849272 
L 212.141561 142.018589 
L 212.257437 141.815409 
L 212.301212 141.950862 
L 212.368162 141.849272 
L 212.589614 141.950862 
L 212.68489 142.052452 
L 212.594764 141.916999 
L 212.702915 141.984726 
L 212.775016 141.883135 
L 212.72609 142.052452 
L 212.813641 141.984726 
L 213.897725 141.916999 
L 213.9003 141.849272 
L 213.944075 141.984726 
L 214.005876 141.916999 
L 214.047076 141.984726 
L 214.067676 141.849272 
L 214.116602 141.950862 
L 214.425604 142.052452 
L 214.44363 142.086316 
L 214.51058 141.883135 
L 214.523455 141.883135 
L 214.613581 141.781545 
L 214.580106 141.916999 
L 214.634181 141.849272 
L 214.649631 141.916999 
L 214.719157 141.713819 
L 214.737182 141.747682 
L 214.948334 141.679955 
L 214.997259 141.612228 
L 215.041034 141.781545 
L 215.05391 141.781545 
L 215.128585 141.883135 
L 215.138885 141.815409 
L 215.247036 141.984726 
L 215.265061 141.883135 
L 215.293386 142.018589 
L 215.355187 141.950862 
L 215.357762 142.018589 
L 215.393812 141.849272 
L 215.460763 141.849272 
L 215.615264 141.950862 
L 215.692515 142.052452 
L 215.620414 141.916999 
L 215.73114 142.018589 
L 215.818691 142.086316 
L 215.924267 142.187906 
L 215.841866 142.018589 
L 215.929417 142.154043 
L 215.950017 142.120179 
L 216.011817 142.255633 
L 216.034993 142.221769 
L 216.143143 142.323359 
L 216.045293 142.187906 
L 216.148293 142.255633 
L 216.580897 142.357223 
L 216.637548 142.391086 
L 216.652998 142.255633 
L 216.691623 142.357223 
L 217.041826 142.458813 
L 217.152552 142.560403 
L 217.121651 142.323359 
L 217.157702 142.52654 
L 217.198902 142.391086 
L 217.276153 142.42495 
L 217.384304 142.560403 
L 217.389454 142.492676 
L 217.497605 142.42495 
L 217.492455 142.52654 
L 217.50018 142.458813 
L 217.595455 142.391086 
L 217.618631 142.560403 
L 217.672706 142.458813 
L 217.729356 142.560403 
L 217.742232 142.492676 
L 217.798882 142.62813 
L 217.840082 142.560403 
L 217.858108 142.62813 
L 217.945658 142.458813 
L 217.950808 142.560403 
L 218.051234 142.42495 
L 218.064109 142.458813 
L 218.16196 142.560403 
L 218.174835 142.492676 
L 218.226336 142.391086 
L 218.200585 142.52654 
L 218.285561 142.458813 
L 218.365387 142.52654 
L 218.293286 142.42495 
L 218.396287 142.492676 
L 218.470963 142.52654 
L 218.504438 142.458813 
L 218.581688 142.661993 
L 218.651214 142.52654 
L 218.694989 142.594267 
L 218.707865 142.52654 
L 218.81344 142.695857 
L 218.906141 142.458813 
L 218.937041 142.52654 
L 219.042617 142.594267 
L 218.960217 142.492676 
L 219.050342 142.560403 
L 219.070942 142.42495 
L 219.166218 142.492676 
L 219.253769 142.594267 
L 219.235744 142.42495 
L 219.279519 142.52654 
L 219.38767 142.42495 
L 219.34132 142.560403 
L 219.390245 142.52654 
L 219.830574 142.458813 
L 219.833149 142.357223 
L 219.861474 142.52654 
L 219.9413 142.458813 
L 220.041725 142.357223 
L 220.054601 142.391086 
L 220.142151 142.492676 
L 220.165326 142.323359 
L 220.255452 142.492676 
L 220.278627 142.42495 
L 220.538705 142.323359 
L 220.549005 142.221769 
L 220.57733 142.391086 
L 220.64943 142.289496 
L 220.675181 142.391086 
L 220.724106 142.187906 
L 220.757581 142.289496 
L 220.839982 142.221769 
L 220.785907 142.323359 
L 220.868307 142.255633 
L 220.955858 142.187906 
L 220.984183 142.323359 
L 221.002208 142.255633 
L 221.066584 142.42495 
L 221.092334 142.357223 
L 221.707764 142.255633 
L 221.774715 142.154043 
L 221.80304 142.357223 
L 221.81334 142.323359 
L 222.637347 142.42495 
L 222.696572 142.52654 
L 222.645072 142.323359 
L 222.745498 142.391086 
L 223.224452 142.289496 
L 223.324877 142.187906 
L 223.273377 142.357223 
L 223.340328 142.221769 
L 223.373803 142.289496 
L 223.440753 142.086316 
L 223.443328 142.154043 
L 223.538604 142.086316 
L 223.541179 142.187906 
L 223.551479 142.120179 
L 223.554054 142.221769 
L 223.615855 142.052452 
L 223.65963 142.052452 
L 223.801256 142.120179 
L 223.839882 142.187906 
L 223.891382 142.018589 
L 223.909407 142.052452 
L 223.917132 142.018589 
L 224.022708 142.120179 
L 224.061333 141.984726 
L 224.138584 142.052452 
L 224.20811 142.120179 
L 224.190085 141.984726 
L 224.251885 142.086316 
L 224.342011 142.018589 
L 224.447587 141.916999 
L 224.411536 142.120179 
L 224.452737 142.018589 
L 224.684489 142.086316 
L 224.751439 142.187906 
L 224.715389 142.052452 
L 224.79779 142.154043 
L 225.114517 142.052452 
L 225.147992 142.154043 
L 225.232968 141.916999 
L 225.297344 141.883135 
L 225.348844 142.018589 
L 225.41837 141.950862 
L 225.366869 142.086316 
L 225.45957 142.018589 
L 225.552271 141.984726 
L 225.48017 142.086316 
L 225.567721 142.052452 
L 225.616646 141.950862 
L 225.621796 141.883135 
L 225.686172 142.052452 
L 225.722222 142.018589 
L 225.794323 141.950862 
L 225.863848 141.815409 
L 225.907624 141.883135 
L 225.974574 141.815409 
L 226.020925 141.950862 
L 226.0235 141.849272 
L 226.0338 141.984726 
L 226.13165 141.916999 
L 226.167701 141.849272 
L 226.170276 141.781545 
L 226.193451 141.950862 
L 226.278427 141.849272 
L 226.376277 142.018589 
L 226.322202 141.815409 
L 226.391728 141.916999 
L 226.484428 141.849272 
L 226.402028 141.984726 
L 226.499878 141.916999 
L 226.502454 141.950862 
L 226.520479 141.815409 
L 226.605454 141.883135 
L 226.698155 141.713819 
L 226.72133 141.815409 
L 226.785706 141.713819 
L 226.816606 141.781545 
L 226.899007 141.578365 
L 226.929907 141.747682 
L 227.009733 141.646092 
L 227.048358 141.747682 
L 227.141059 141.815409 
L 227.084408 141.713819 
L 227.159084 141.781545 
L 227.262085 141.883135 
L 227.27496 141.713819 
L 227.375386 141.849272 
L 227.385686 141.781545 
L 227.403711 141.679955 
L 227.455211 141.883135 
L 227.496412 141.781545 
L 227.501562 141.849272 
L 227.594262 141.646092 
L 227.604563 141.747682 
L 227.625163 141.646092 
L 227.632888 141.679955 
L 227.743614 141.510638 
L 227.856915 141.646092 
L 227.898115 141.510638 
L 227.970216 141.544502 
L 228.083516 141.679955 
L 228.129867 141.713819 
L 228.196817 141.578365 
L 228.248318 141.679955 
L 228.330719 141.849272 
L 228.274068 141.612228 
L 228.364194 141.747682 
L 228.518695 141.849272 
L 228.626846 141.950862 
L 228.549595 141.781545 
L 228.634571 141.916999 
L 228.688646 141.883135 
L 228.704097 142.052452 
L 228.740147 141.984726 
L 228.977049 142.086316 
L 229.041424 142.120179 
L 229.05945 141.984726 
L 229.0852 142.052452 
L 229.123825 141.984726 
L 229.1676 142.154043 
L 229.193351 142.018589 
L 229.309227 142.154043 
L 229.618229 142.187906 
L 229.708355 142.323359 
L 229.67488 142.154043 
L 229.728955 142.221769 
L 229.73153 142.187906 
L 229.739255 142.323359 
L 229.834531 142.289496 
L 229.937532 142.323359 
L 229.911781 142.187906 
L 229.945257 142.289496 
L 229.996757 142.187906 
L 230.017357 142.357223 
L 230.058558 142.221769 
L 230.143533 142.289496 
L 230.086883 142.187906 
L 230.169284 142.255633 
L 230.269709 142.154043 
L 230.187309 142.289496 
L 230.282585 142.187906 
L 230.32121 142.289496 
L 230.385585 142.120179 
L 230.38816 142.187906 
L 230.470561 142.120179 
L 230.411336 142.255633 
L 230.496311 142.221769 
L 230.813039 142.154043 
L 230.856814 141.984726 
L 230.898015 142.187906 
L 230.923765 142.120179 
L 231.019041 142.086316 
L 231.021616 141.984726 
L 231.096291 142.187906 
L 231.127191 142.086316 
L 231.209592 142.187906 
L 231.186417 142.052452 
L 231.237917 142.086316 
L 231.294568 142.018589 
L 231.258518 142.187906 
L 231.351218 142.052452 
L 231.467094 142.221769 
L 231.786397 142.187906 
L 231.845622 142.052452 
L 231.796697 142.221769 
L 231.897123 142.187906 
L 232.012999 142.120179 
L 232.036174 142.018589 
L 232.116 142.187906 
L 232.123725 142.120179 
L 232.139175 142.255633 
L 232.190675 142.086316 
L 232.229301 142.120179 
L 232.316851 141.916999 
L 232.342601 142.052452 
L 232.406977 141.984726 
L 232.412127 142.086316 
L 232.453327 142.018589 
L 232.525428 142.086316 
L 232.515128 141.950862 
L 232.561478 141.984726 
L 232.862756 141.916999 
L 232.911681 141.849272 
L 232.927131 141.984726 
L 232.970907 141.950862 
L 233.102233 142.052452 
L 233.104808 142.120179 
L 233.115108 141.984726 
L 233.212959 142.052452 
L 234.291892 141.984726 
L 234.348543 141.849272 
L 234.405193 141.883135 
L 234.64982 141.916999 
L 234.652395 142.052452 
L 234.698746 141.883135 
L 234.760546 141.950862 
L 234.987148 142.018589 
L 235.087574 142.120179 
L 235.018048 141.950862 
L 235.097874 142.018589 
L 235.180275 142.120179 
L 235.141649 141.916999 
L 235.211175 142.052452 
L 235.311601 141.950862 
L 235.324476 142.018589 
L 235.530478 142.086316 
L 235.633478 142.154043 
L 235.556228 142.052452 
L 235.638629 142.052452 
L 235.666954 142.154043 
L 235.757079 142.221769 
L 235.700429 142.086316 
L 235.77768 142.187906 
L 235.780255 142.120179 
L 235.82403 142.255633 
L 235.885831 142.187906 
L 235.937331 142.255633 
L 235.929606 142.154043 
L 235.996556 142.187906 
L 236.099557 142.120179 
L 236.012007 142.221769 
L 236.104707 142.221769 
L 236.140758 142.154043 
L 236.218008 142.255633 
L 237.430843 142.357223 
L 237.526119 142.391086 
L 237.474619 142.255633 
L 237.541569 142.357223 
L 237.847997 142.289496 
L 237.850572 142.221769 
L 237.876322 142.391086 
L 237.953573 142.391086 
L 238.072023 142.323359 
L 238.074599 142.255633 
L 238.146699 142.458813 
L 238.180174 142.357223 
L 238.308925 142.42495 
L 238.3115 142.492676 
L 238.352701 142.323359 
L 238.417076 142.391086 
L 238.571578 142.289496 
L 238.592178 142.255633 
L 238.623078 142.458813 
L 238.674578 142.391086 
L 239.256533 142.458813 
L 239.320909 142.52654 
L 239.341509 142.391086 
L 239.367259 142.492676 
L 239.441935 142.391086 
L 239.380134 142.52654 
L 239.48056 142.458813 
L 239.514035 142.52654 
L 239.562961 142.357223 
L 239.586136 142.42495 
L 239.606736 142.323359 
L 239.604161 142.458813 
L 239.696862 142.42495 
L 239.931189 142.492676 
L 239.938914 142.458813 
L 240.041915 142.560403 
L 240.12689 142.458813 
L 240.057365 142.594267 
L 240.155216 142.492676 
L 240.206716 142.62813 
L 240.186116 142.458813 
L 240.268517 142.594267 
L 240.386968 142.458813 
L 240.500268 142.560403 
L 240.580094 142.458813 
L 240.610994 142.492676 
L 240.708845 142.62813 
L 240.724295 142.560403 
L 240.757771 142.458813 
L 240.835021 142.62813 
L 240.930297 142.560403 
L 240.863346 142.661993 
L 240.945747 142.62813 
L 241.677053 142.661993 
L 241.679628 142.763583 
L 241.756879 142.62813 
L 241.787779 142.695857 
L 241.89593 142.72972 
L 241.90623 142.594267 
L 241.970606 142.661993 
L 242.006656 142.492676 
L 242.011806 142.52654 
L 242.040131 142.62813 
L 242.058156 142.695857 
L 242.071031 142.560403 
L 242.145707 142.594267 
L 242.228108 142.52654 
L 242.225533 142.661993 
L 242.259008 142.560403 
L 242.529385 142.62813 
L 242.591186 142.72972 
L 242.539685 142.594267 
L 242.640111 142.661993 
L 242.815212 142.72972 
L 242.905338 142.797447 
L 242.866713 142.661993 
L 242.923363 142.72972 
L 243.028939 142.594267 
L 242.985164 142.797447 
L 243.039239 142.62813 
L 243.10104 142.72972 
L 243.15254 142.661993 
L 243.294166 142.72972 
L 243.392017 142.797447 
L 243.381717 142.62813 
L 243.404892 142.763583 
L 243.894146 142.695857 
L 243.955947 142.560403 
L 244.007447 142.594267 
L 244.151648 142.695857 
L 244.154223 142.72972 
L 244.187699 142.560403 
L 244.259799 142.661993 
L 244.573952 142.560403 
L 244.682103 142.492676 
L 244.622877 142.661993 
L 244.687253 142.52654 
L 245.233157 142.62813 
L 245.276933 142.661993 
L 245.238307 142.560403 
L 245.338733 142.62813 
L 245.436584 142.52654 
L 245.400534 142.695857 
L 245.452034 142.560403 
L 245.477784 142.62813 
L 245.480359 142.695857 
L 245.513835 142.458813 
L 245.585935 142.560403 
L 245.591085 142.62813 
L 245.652886 142.458813 
L 245.691511 142.52654 
L 245.799662 142.42495 
L 245.763612 142.560403 
L 245.804812 142.458813 
L 245.985063 142.52654 
L 246.031414 142.594267 
L 246.072614 142.458813 
L 246.093214 142.560403 
L 246.095789 142.458813 
L 246.100939 142.594267 
L 246.20394 142.492676 
L 246.250291 142.594267 
L 246.294066 142.458813 
L 246.312091 142.492676 
L 246.319816 142.42495 
L 246.327541 142.560403 
L 246.422817 142.492676 
L 247.233949 142.391086 
L 247.249399 142.323359 
L 247.267424 142.458813 
L 247.344675 142.391086 
L 247.875129 142.458813 
L 247.877704 142.52654 
L 247.97813 142.391086 
L 247.98328 142.458813 
L 248.02448 142.323359 
L 248.03993 142.492676 
L 248.096581 142.42495 
L 248.359233 142.492676 
L 248.359233 142.492676 
" clip-path="url(#pc0d8c1dd76)" style="fill: none; stroke: #000000; stroke-opacity: 0.5; stroke-width: 1.5; stroke-linecap: square"/>
   </g>
   <g id="patch_3">
    <path d="M 35.304688 173.52 
L 35.304688 7.2 
" style="fill: none; stroke: #000000; stroke-width: 0.8; stroke-linejoin: miter; stroke-linecap: square"/>
   </g>
   <g id="patch_4">
    <path d="M 35.304688 173.52 
L 258.504687 173.52 
" style="fill: none; stroke: #000000; stroke-width: 0.8; stroke-linejoin: miter; stroke-linecap: square"/>
   </g>
  </g>
 </g>
 <defs>
  <clipPath id="pc0d8c1dd76">
   <rect x="35.304688" y="7.2" width="223.2" height="166.32"/>
  </clipPath>
 </defs>
</svg>
