<?xml version="1.0" encoding="utf-8" standalone="no"?>
<!DOCTYPE svg PUBLIC "-//W3C//DTD SVG 1.1//EN"
  "http://www.w3.org/Graphics/SVG/1.1/DTD/svg11.dtd">
<svg xmlns:xlink="http://www.w3.org/1999/xlink" width="265.704687pt" height="197.398125pt" viewBox="0 0 265.704687 197.398125" xmlns="http://www.w3.org/2000/svg" version="1.1">
 <metadata>
  <rdf:RDF xmlns:dc="http://purl.org/dc/elements/1.1/" xmlns:cc="http://creativecommons.org/ns#" xmlns:rdf="http://www.w3.org/1999/02/22-rdf-syntax-ns#">
   <cc:Work>
    <dc:type rdf:resource="http://purl.org/dc/dcmitype/StillImage"/>
    <dc:date>2025-12-19T12:24:21.180645</dc:date>
    <dc:format>image/svg+xml</dc:format>
    <dc:creator>
     <cc:Agent>
      <dc:title>Matplotlib v3.10.7, https://matplotlib.org/</dc:title>
     </cc:Agent>
    </dc:creator>
   </cc:Work>
  </rdf:RDF>
 </metadata>
 <defs>
  <style type="text/css">*{stroke-linejoin: round; stroke-linecap: butt}</style>
 </defs>
 <g id="figure_1">
  <g id="patch_1">
   <path d="M 0 197.398125 
L 265.704687 197.398125 
L 265.704687 0 
L 0 0 
z
" style="fill: #ffffff"/>
  </g>
  <g id="axes_1">
   <g id="patch_2">
    <path d="M 35.304688 173.52 
L 258.504687 173.52 
L 258.504687 7.2 
L 35.304688 7.2 
z
" style="fill: #ffffff"/>
   </g>
   <g id="matplotlib.axis_1">
    <g id="xtick_1">
     <g id="line2d_1">
      <defs>
       <path id="m627b95b908" d="M 0 0 
L 0 3.5 
" style="stroke: #000000; stroke-width: 0.8"/>
      </defs>
      <g>
       <use xlink:href="#m627b95b908" x="76.350396" y="173.52" style="stroke: #000000; stroke-width: 0.8"/>
      </g>
     </g>
     <g id="text_1">
      <!-- 1 -->
      <g transform="translate(73.169146 188.118438) scale(0.1 -0.1)">
       <defs>
        <path id="DejaVuSans-31" d="M 794 531 
L 1825 531 
L 1825 4091 
L 703 3866 
L 703 4441 
L 1819 4666 
L 2450 4666 
L 2450 531 
L 3481 531 
L 3481 0 
L 794 0 
L 794 531 
z
" transform="scale(0.015625)"/>
       </defs>
       <use xlink:href="#DejaVuSans-31"/>
      </g>
     </g>
    </g>
    <g id="xtick_2">
     <g id="line2d_2">
      <g>
       <use xlink:href="#m627b95b908" x="127.850819" y="173.52" style="stroke: #000000; stroke-width: 0.8"/>
      </g>
     </g>
     <g id="text_2">
      <!-- 2 -->
      <g transform="translate(124.669569 188.118438) scale(0.1 -0.1)">
       <defs>
        <path id="DejaVuSans-32" d="M 1228 531 
L 3431 531 
L 3431 0 
L 469 0 
L 469 531 
Q 828 903 1448 1529 
Q 2069 2156 2228 2338 
Q 2531 2678 2651 2914 
Q 2772 3150 2772 3378 
Q 2772 3750 2511 3984 
Q 2250 4219 1831 4219 
Q 1534 4219 1204 4116 
Q 875 4013 500 3803 
L 500 4441 
Q 881 4594 1212 4672 
Q 1544 4750 1819 4750 
Q 2544 4750 2975 4387 
Q 3406 4025 3406 3419 
Q 3406 3131 3298 2873 
Q 3191 2616 2906 2266 
Q 2828 2175 2409 1742 
Q 1991 1309 1228 531 
z
" transform="scale(0.015625)"/>
       </defs>
       <use xlink:href="#DejaVuSans-32"/>
      </g>
     </g>
    </g>
    <g id="xtick_3">
     <g id="line2d_3">
      <g>
       <use xlink:href="#m627b95b908" x="179.351241" y="173.52" style="stroke: #000000; stroke-width: 0.8"/>
      </g>
     </g>
     <g id="text_3">
      <!-- 3 -->
      <g transform="translate(176.169991 188.118438) scale(0.1 -0.1)">
       <defs>
        <path id="DejaVuSans-33" d="M 2597 2516 
Q 3050 2419 3304 2112 
Q 3559 1806 3559 1356 
Q 3559 666 3084 287 
Q 2609 -91 1734 -91 
Q 1441 -91 1130 -33 
Q 819 25 488 141 
L 488 750 
Q 750 597 1062 519 
Q 1375 441 1716 441 
Q 2309 441 2620 675 
Q 2931 909 2931 1356 
Q 2931 1769 2642 2001 
Q 2353 2234 1838 2234 
L 1294 2234 
L 1294 2753 
L 1863 2753 
Q 2328 2753 2575 2939 
Q 2822 3125 2822 3475 
Q 2822 3834 2567 4026 
Q 2313 4219 1838 4219 
Q 1578 4219 1281 4162 
Q 984 4106 628 3988 
L 628 4550 
Q 988 4650 1302 4700 
Q 1616 4750 1894 4750 
Q 2613 4750 3031 4423 
Q 3450 4097 3450 3541 
Q 3450 3153 3228 2886 
Q 3006 2619 2597 2516 
z
" transform="scale(0.015625)"/>
       </defs>
       <use xlink:href="#DejaVuSans-33"/>
      </g>
     </g>
    </g>
    <g id="xtick_4">
     <g id="line2d_4">
      <g>
       <use xlink:href="#m627b95b908" x="230.851664" y="173.52" style="stroke: #000000; stroke-width: 0.8"/>
      </g>
     </g>
     <g id="text_4">
      <!-- 4 -->
      <g transform="translate(227.670414 188.118438) scale(0.1 -0.1)">
       <defs>
        <path id="DejaVuSans-34" d="M 2419 4116 
L 825 1625 
L 2419 1625 
L 2419 4116 
z
M 2253 4666 
L 3047 4666 
L 3047 1625 
L 3713 1625 
L 3713 1100 
L 3047 1100 
L 3047 0 
L 2419 0 
L 2419 1100 
L 313 1100 
L 313 1709 
L 2253 4666 
z
" transform="scale(0.015625)"/>
       </defs>
       <use xlink:href="#DejaVuSans-34"/>
      </g>
     </g>
    </g>
   </g>
   <g id="matplotlib.axis_2">
    <g id="ytick_1">
     <g id="line2d_5">
      <defs>
       <path id="m7379f09f96" d="M 0 0 
L -3.5 0 
" style="stroke: #000000; stroke-width: 0.8"/>
      </defs>
      <g>
       <use xlink:href="#m7379f09f96" x="35.304688" y="150.998129" style="stroke: #000000; stroke-width: 0.8"/>
      </g>
     </g>
     <g id="text_5">
      <!-- −80 -->
      <g transform="translate(7.2 154.797348) scale(0.1 -0.1)">
       <defs>
        <path id="DejaVuSans-2212" d="M 678 2272 
L 4684 2272 
L 4684 1741 
L 678 1741 
L 678 2272 
z
" transform="scale(0.015625)"/>
        <path id="DejaVuSans-38" d="M 2034 2216 
Q 1584 2216 1326 1975 
Q 1069 1734 1069 1313 
Q 1069 891 1326 650 
Q 1584 409 2034 409 
Q 2484 409 2743 651 
Q 3003 894 3003 1313 
Q 3003 1734 2745 1975 
Q 2488 2216 2034 2216 
z
M 1403 2484 
Q 997 2584 770 2862 
Q 544 3141 544 3541 
Q 544 4100 942 4425 
Q 1341 4750 2034 4750 
Q 2731 4750 3128 4425 
Q 3525 4100 3525 3541 
Q 3525 3141 3298 2862 
Q 3072 2584 2669 2484 
Q 3125 2378 3379 2068 
Q 3634 1759 3634 1313 
Q 3634 634 3220 271 
Q 2806 -91 2034 -91 
Q 1263 -91 848 271 
Q 434 634 434 1313 
Q 434 1759 690 2068 
Q 947 2378 1403 2484 
z
M 1172 3481 
Q 1172 3119 1398 2916 
Q 1625 2713 2034 2713 
Q 2441 2713 2670 2916 
Q 2900 3119 2900 3481 
Q 2900 3844 2670 4047 
Q 2441 4250 2034 4250 
Q 1625 4250 1398 4047 
Q 1172 3844 1172 3481 
z
" transform="scale(0.015625)"/>
        <path id="DejaVuSans-30" d="M 2034 4250 
Q 1547 4250 1301 3770 
Q 1056 3291 1056 2328 
Q 1056 1369 1301 889 
Q 1547 409 2034 409 
Q 2525 409 2770 889 
Q 3016 1369 3016 2328 
Q 3016 3291 2770 3770 
Q 2525 4250 2034 4250 
z
M 2034 4750 
Q 2819 4750 3233 4129 
Q 3647 3509 3647 2328 
Q 3647 1150 3233 529 
Q 2819 -91 2034 -91 
Q 1250 -91 836 529 
Q 422 1150 422 2328 
Q 422 3509 836 4129 
Q 1250 4750 2034 4750 
z
" transform="scale(0.015625)"/>
       </defs>
       <use xlink:href="#DejaVuSans-2212"/>
       <use xlink:href="#DejaVuSans-38" transform="translate(83.789062 0)"/>
       <use xlink:href="#DejaVuSans-30" transform="translate(147.412109 0)"/>
      </g>
     </g>
    </g>
    <g id="ytick_2">
     <g id="line2d_6">
      <g>
       <use xlink:href="#m7379f09f96" x="35.304688" y="128.171493" style="stroke: #000000; stroke-width: 0.8"/>
      </g>
     </g>
     <g id="text_6">
      <!-- −60 -->
      <g transform="translate(7.2 131.970711) scale(0.1 -0.1)">
       <defs>
        <path id="DejaVuSans-36" d="M 2113 2584 
Q 1688 2584 1439 2293 
Q 1191 2003 1191 1497 
Q 1191 994 1439 701 
Q 1688 409 2113 409 
Q 2538 409 2786 701 
Q 3034 994 3034 1497 
Q 3034 2003 2786 2293 
Q 2538 2584 2113 2584 
z
M 3366 4563 
L 3366 3988 
Q 3128 4100 2886 4159 
Q 2644 4219 2406 4219 
Q 1781 4219 1451 3797 
Q 1122 3375 1075 2522 
Q 1259 2794 1537 2939 
Q 1816 3084 2150 3084 
Q 2853 3084 3261 2657 
Q 3669 2231 3669 1497 
Q 3669 778 3244 343 
Q 2819 -91 2113 -91 
Q 1303 -91 875 529 
Q 447 1150 447 2328 
Q 447 3434 972 4092 
Q 1497 4750 2381 4750 
Q 2619 4750 2861 4703 
Q 3103 4656 3366 4563 
z
" transform="scale(0.015625)"/>
       </defs>
       <use xlink:href="#DejaVuSans-2212"/>
       <use xlink:href="#DejaVuSans-36" transform="translate(83.789062 0)"/>
       <use xlink:href="#DejaVuSans-30" transform="translate(147.412109 0)"/>
      </g>
     </g>
    </g>
    <g id="ytick_3">
     <g id="line2d_7">
      <g>
       <use xlink:href="#m7379f09f96" x="35.304688" y="105.344856" style="stroke: #000000; stroke-width: 0.8"/>
      </g>
     </g>
     <g id="text_7">
      <!-- −40 -->
      <g transform="translate(7.2 109.144075) scale(0.1 -0.1)">
       <use xlink:href="#DejaVuSans-2212"/>
       <use xlink:href="#DejaVuSans-34" transform="translate(83.789062 0)"/>
       <use xlink:href="#DejaVuSans-30" transform="translate(147.412109 0)"/>
      </g>
     </g>
    </g>
    <g id="ytick_4">
     <g id="line2d_8">
      <g>
       <use xlink:href="#m7379f09f96" x="35.304688" y="82.518219" style="stroke: #000000; stroke-width: 0.8"/>
      </g>
     </g>
     <g id="text_8">
      <!-- −20 -->
      <g transform="translate(7.2 86.317438) scale(0.1 -0.1)">
       <use xlink:href="#DejaVuSans-2212"/>
       <use xlink:href="#DejaVuSans-32" transform="translate(83.789062 0)"/>
       <use xlink:href="#DejaVuSans-30" transform="translate(147.412109 0)"/>
      </g>
     </g>
    </g>
    <g id="ytick_5">
     <g id="line2d_9">
      <g>
       <use xlink:href="#m7379f09f96" x="35.304688" y="59.691583" style="stroke: #000000; stroke-width: 0.8"/>
      </g>
     </g>
     <g id="text_9">
      <!-- 0 -->
      <g transform="translate(21.942187 63.490801) scale(0.1 -0.1)">
       <use xlink:href="#DejaVuSans-30"/>
      </g>
     </g>
    </g>
    <g id="ytick_6">
     <g id="line2d_10">
      <g>
       <use xlink:href="#m7379f09f96" x="35.304688" y="36.864946" style="stroke: #000000; stroke-width: 0.8"/>
      </g>
     </g>
     <g id="text_10">
      <!-- 20 -->
      <g transform="translate(15.579687 40.664165) scale(0.1 -0.1)">
       <use xlink:href="#DejaVuSans-32"/>
       <use xlink:href="#DejaVuSans-30" transform="translate(63.623047 0)"/>
      </g>
     </g>
    </g>
    <g id="ytick_7">
     <g id="line2d_11">
      <g>
       <use xlink:href="#m7379f09f96" x="35.304688" y="14.038309" style="stroke: #000000; stroke-width: 0.8"/>
      </g>
     </g>
     <g id="text_11">
      <!-- 40 -->
      <g transform="translate(15.579687 17.837528) scale(0.1 -0.1)">
       <use xlink:href="#DejaVuSans-34"/>
       <use xlink:href="#DejaVuSans-30" transform="translate(63.623047 0)"/>
      </g>
     </g>
    </g>
   </g>
   <g id="line2d_12">
    <path d="M 45.450142 134.229247 
L 45.710219 134.333739 
L 45.815795 134.368569 
L 45.746269 134.229247 
L 45.820945 134.333739 
L 45.877596 134.229247 
L 45.890471 134.368569 
L 45.931671 134.333739 
L 46.016647 134.4034 
L 46.050122 134.229247 
L 46.065572 134.368569 
L 46.114497 134.159585 
L 46.160848 134.264077 
L 46.163423 134.159585 
L 46.171148 134.298908 
L 46.271574 134.229247 
L 46.557401 134.298908 
L 46.650102 134.368569 
L 46.598601 134.229247 
L 46.668127 134.298908 
L 46.771128 134.4034 
L 46.673277 134.264077 
L 46.781428 134.333739 
L 46.827778 134.264077 
L 46.920479 134.194416 
L 46.835503 134.333739 
L 46.938504 134.229247 
L 47.046655 134.333739 
L 47.04923 134.298908 
L 47.082705 134.229247 
L 47.154806 134.368569 
L 47.157381 134.298908 
L 47.214032 134.368569 
L 47.201156 134.264077 
L 47.265532 134.298908 
L 47.278407 134.368569 
L 47.376258 134.229247 
L 47.430333 134.368569 
L 47.486984 134.333739 
L 47.494709 134.264077 
L 47.571959 134.438231 
L 47.59256 134.368569 
L 47.595135 134.438231 
L 47.69556 134.264077 
L 47.698136 134.264077 
L 48.086964 134.333739 
L 48.189965 134.4034 
L 48.094689 134.298908 
L 48.19769 134.368569 
L 48.262065 134.298908 
L 48.28524 134.473062 
L 48.30584 134.4034 
L 48.375366 134.298908 
L 48.413991 134.438231 
L 48.437167 134.333739 
L 48.432017 134.473062 
L 48.524717 134.4034 
L 48.576218 134.507892 
L 48.586518 134.333739 
L 48.635443 134.4034 
L 49.160748 134.507892 
L 49.227698 134.542723 
L 49.173623 134.368569 
L 49.266323 134.473062 
L 49.359024 134.4034 
L 49.284349 134.542723 
L 49.377049 134.438231 
L 49.4234 134.542723 
L 49.4749 134.368569 
L 49.487775 134.438231 
L 49.588201 134.333739 
L 49.598501 134.438231 
L 49.701502 134.298908 
L 49.709227 134.368569 
L 49.711802 134.438231 
L 49.771028 134.298908 
L 49.817378 134.333739 
L 50.417358 134.229247 
L 50.430233 134.194416 
L 50.484308 134.368569 
L 50.522934 134.264077 
L 50.535809 134.194416 
L 50.63881 137.294347 
L 50.893737 143.145902 
L 50.904037 143.215563 
L 51.061113 145.131251 
L 51.076563 145.235743 
L 51.246515 146.837954 
L 51.24909 146.768293 
L 51.33149 147.534568 
L 51.534917 148.788473 
L 51.547792 148.858134 
L 51.676543 149.624409 
L 51.681693 149.589578 
L 51.756369 150.042377 
L 51.779544 150.146869 
L 51.94692 150.982806 
L 51.954645 150.913144 
L 52.044771 151.296282 
L 52.047346 151.261451 
L 52.049921 151.226621 
L 52.124597 151.574927 
L 52.134897 151.574927 
L 52.286823 152.132218 
L 52.307423 152.23671 
L 52.446474 152.689509 
L 52.315148 152.20188 
L 52.44905 152.654679 
L 52.477375 152.759171 
L 52.590676 153.142308 
L 52.611276 153.107478 
L 52.621576 153.072647 
L 52.675651 153.351292 
L 52.703977 153.351292 
L 52.734877 153.455784 
L 52.740027 153.420954 
L 52.858478 153.664768 
L 52.871353 153.595107 
L 52.928003 153.838922 
L 52.958904 153.804091 
L 53.054179 154.082737 
L 53.077355 154.047906 
L 53.082505 153.978245 
L 53.16233 154.187229 
L 53.17778 154.187229 
L 53.298806 154.361382 
L 53.365757 154.291721 
L 53.383782 154.465874 
L 53.404382 154.431044 
L 53.484208 154.535536 
L 53.494508 154.465874 
L 53.600084 154.674858 
L 53.610384 154.605197 
L 53.69536 154.814181 
L 53.708235 154.74452 
L 53.75201 154.709689 
L 53.72111 154.814181 
L 53.816386 154.74452 
L 53.924537 154.918673 
L 53.867886 154.709689 
L 53.929687 154.849012 
L 53.952862 154.814181 
L 53.976037 154.953504 
L 54.035263 154.918673 
L 54.050713 154.883842 
L 54.148563 155.057996 
L 54.218089 155.023165 
L 54.254139 155.127657 
L 54.256714 155.092827 
L 54.370015 155.232149 
L 54.269589 155.057996 
L 54.37259 155.197319 
L 54.375165 155.092827 
L 54.457566 155.26698 
L 54.480741 155.232149 
L 54.519367 155.336641 
L 54.514216 155.197319 
L 54.591467 155.232149 
L 55.101321 155.336641 
L 55.168272 155.371472 
L 55.183722 155.26698 
L 55.212047 155.336641 
L 55.266123 155.301811 
L 55.224922 155.406303 
L 55.315048 155.371472 
L 55.333073 155.441133 
L 55.366548 155.301811 
L 55.423199 155.301811 
L 55.451524 155.406303 
L 55.533925 155.26698 
L 55.639501 155.336641 
L 55.5983 155.197319 
L 55.644651 155.301811 
L 55.933053 155.197319 
L 55.935628 155.162488 
L 55.938203 155.301811 
L 56.043779 155.197319 
L 56.082404 155.232149 
L 56.084979 155.336641 
L 56.19313 155.26698 
L 56.370807 155.162488 
L 56.383682 155.092827 
L 56.468658 155.232149 
L 56.478958 155.197319 
L 56.576808 155.092827 
L 56.646334 155.023165 
L 56.610284 155.197319 
L 56.682384 155.127657 
L 56.749335 155.197319 
L 56.77251 155.057996 
L 56.78796 155.092827 
L 56.826585 155.023165 
L 56.878086 155.162488 
L 56.896111 155.127657 
L 57.153613 155.057996 
L 57.156188 154.953504 
L 57.248889 155.127657 
L 57.264339 154.988334 
L 57.35189 155.057996 
L 57.297814 154.953504 
L 57.37764 155.023165 
L 57.444591 154.918673 
L 57.488366 154.953504 
L 57.547591 154.918673 
L 57.599092 155.023165 
L 57.650592 154.918673 
L 57.676342 155.057996 
L 57.709818 155.023165 
L 57.797368 154.918673 
L 57.725268 155.057996 
L 57.820544 155.023165 
L 57.877194 155.127657 
L 57.895219 154.953504 
L 57.93127 155.023165 
L 58.03427 154.918673 
L 58.139846 154.883842 
L 58.075471 154.988334 
L 58.144996 154.918673 
L 58.214522 155.023165 
L 58.155296 154.814181 
L 58.250572 154.849012 
L 58.966428 154.74452 
L 59.046254 154.674858 
L 58.971578 154.814181 
L 59.077154 154.74452 
L 59.126079 154.77935 
L 59.16213 154.640028 
L 59.180155 154.674858 
L 59.21878 154.74452 
L 59.290881 154.640028 
L 59.352681 154.77935 
L 59.401607 154.709689 
L 59.484007 154.570366 
L 59.406757 154.74452 
L 59.514908 154.640028 
L 59.556108 154.674858 
L 59.566408 154.570366 
L 59.623058 154.605197 
L 60.797268 154.535536 
L 60.807568 154.570366 
L 61.268497 144.748113 
L 61.276222 144.643621 
L 61.616125 141.474029 
L 61.6187 141.50886 
L 61.6393 141.404368 
L 61.855602 139.906648 
L 61.860752 139.97631 
L 61.940577 139.453849 
L 61.948302 139.453849 
L 62.128554 138.513421 
L 62.151729 138.44376 
L 62.283055 137.816807 
L 62.28563 137.886469 
L 62.375756 137.4685 
L 62.378331 137.4685 
L 62.525107 136.94604 
L 62.532832 136.980871 
L 62.594633 136.597733 
L 62.612658 136.632564 
L 62.659008 136.528072 
L 62.800634 136.110104 
L 62.857285 136.005612 
L 62.888185 136.040442 
L 62.993761 135.657305 
L 63.009211 135.726966 
L 63.086462 135.483151 
L 63.094187 135.517982 
L 63.132812 135.448321 
L 63.215213 135.204506 
L 63.248688 135.239337 
L 63.256413 135.308998 
L 63.338814 135.065183 
L 63.346539 135.134845 
L 63.436665 134.92586 
L 63.364564 135.169675 
L 63.45984 135.030352 
L 63.49074 134.92586 
L 63.50619 134.960691 
L 63.614341 134.751707 
L 63.683867 134.716876 
L 63.725067 134.856199 
L 63.828068 134.647215 
L 63.835793 134.682046 
L 63.853818 134.751707 
L 63.931069 134.577554 
L 63.943944 134.647215 
L 64.010894 134.577554 
L 64.119045 134.368569 
L 64.018619 134.612384 
L 64.12677 134.438231 
L 64.165396 134.333739 
L 64.276122 134.229247 
L 64.227196 134.4034 
L 64.278697 134.298908 
L 64.358522 134.194416 
L 64.461523 134.159585 
L 64.363672 134.264077 
L 64.464098 134.194416 
L 64.466673 134.264077 
L 64.569674 134.089924 
L 64.572249 134.124755 
L 64.682975 134.229247 
L 64.590274 134.089924 
L 64.688125 134.194416 
L 64.770526 134.124755 
L 64.822026 134.159585 
L 64.883827 134.055093 
L 64.899277 134.124755 
L 64.981677 133.915771 
L 64.986827 133.985432 
L 65.087253 133.88094 
L 65.102703 133.915771 
L 65.159354 133.88094 
L 65.272655 133.741617 
L 65.888085 133.637125 
L 65.983361 133.602294 
L 65.92156 133.741617 
L 65.996236 133.671956 
L 66.405664 133.776448 
L 66.493215 133.811279 
L 66.457165 133.706786 
L 66.513815 133.776448 
L 66.56274 133.706786 
L 66.54729 133.846109 
L 66.621966 133.811279 
L 66.779042 133.915771 
L 66.802217 133.950601 
L 66.827968 133.811279 
L 66.887193 133.88094 
L 66.951569 133.811279 
L 66.977319 133.950601 
L 66.995344 133.915771 
L 67.597899 133.811279 
L 67.6906 133.776448 
L 67.636524 133.915771 
L 67.703475 133.88094 
L 67.953252 133.811279 
L 67.966127 133.741617 
L 68.035652 133.915771 
L 68.061403 133.811279 
L 68.169554 133.88094 
L 68.156678 133.776448 
L 68.172129 133.846109 
L 68.203029 133.776448 
L 68.251954 133.915771 
L 68.282855 133.846109 
L 68.385855 133.950601 
L 68.360105 133.776448 
L 68.39358 133.846109 
L 68.419331 133.950601 
L 68.460531 133.811279 
L 68.504306 133.846109 
L 69.750617 133.915771 
L 69.843317 134.020263 
L 69.784092 133.846109 
L 69.861342 133.950601 
L 69.964343 133.846109 
L 69.977218 133.88094 
L 70.22442 133.950601 
L 70.226995 134.020263 
L 70.255321 133.88094 
L 70.335146 133.950601 
L 70.422697 134.020263 
L 70.528273 134.089924 
L 70.453597 133.950601 
L 70.530848 134.055093 
L 70.628699 133.950601 
L 70.587498 134.089924 
L 70.641574 134.020263 
L 70.693074 134.089924 
L 70.744575 133.915771 
L 70.74715 133.950601 
L 70.852726 133.88094 
L 70.760025 134.055093 
L 70.857876 133.950601 
L 70.966027 134.020263 
L 70.914526 133.915771 
L 70.968602 133.950601 
L 71.37803 134.055093 
L 71.40378 133.985432 
L 71.491331 134.089924 
L 71.586607 133.915771 
L 71.604632 134.020263 
L 71.681882 133.915771 
L 71.620082 134.089924 
L 71.717933 133.985432 
L 71.820934 134.124755 
L 71.728233 133.915771 
L 71.828659 133.985432 
L 73.190845 134.020263 
L 73.19342 134.124755 
L 73.221745 133.950601 
L 73.298996 133.950601 
L 73.337621 134.055093 
L 73.412297 133.985432 
L 74.213128 134.089924 
L 74.259479 134.124755 
L 74.231153 134.020263 
L 74.318704 134.020263 
L 74.321279 133.985432 
L 74.349604 134.124755 
L 74.42428 134.089924 
L 74.46548 134.124755 
L 74.47578 133.985432 
L 74.535006 134.089924 
L 74.625132 133.985432 
L 74.650882 134.020263 
L 74.715257 134.124755 
L 74.689507 133.985432 
L 74.761608 134.089924 
L 74.867184 134.020263 
L 74.825983 134.159585 
L 74.872334 134.089924 
L 74.923834 134.159585 
L 74.947009 134.020263 
L 74.98306 134.089924 
L 75.183911 134.159585 
L 75.186486 134.229247 
L 75.250862 134.089924 
L 75.292062 134.124755 
L 75.364163 134.055093 
L 75.371888 134.229247 
L 75.400213 134.159585 
L 75.503214 134.089924 
L 75.544414 134.020263 
L 75.523814 134.124755 
L 75.61394 134.055093 
L 75.732391 134.159585 
L 75.807066 134.089924 
L 75.760716 134.194416 
L 75.843117 134.159585 
L 76.30147 134.124755 
L 76.332371 134.020263 
L 76.360696 136.179765 
L 76.556397 145.340235 
L 76.772699 149.763732 
L 76.996726 152.828832 
L 77.44993 157.496144 
L 77.452505 157.461313 
L 77.51688 158.018604 
L 77.519455 158.018604 
L 77.753782 159.760138 
L 77.756357 159.690477 
L 77.838758 160.317429 
L 77.843908 160.317429 
L 77.869658 160.421921 
L 78.05506 161.432011 
L 78.08081 161.501672 
L 78.214711 162.163455 
L 78.217286 162.128625 
L 78.291962 162.511762 
L 78.302262 162.476932 
L 78.456763 163.138715 
L 78.459338 163.103884 
L 78.474788 163.173545 
L 78.603539 163.661175 
L 78.611264 163.626344 
L 78.69624 163.90499 
L 78.698815 163.835328 
L 78.837866 164.322958 
L 78.840441 164.288127 
L 78.848166 164.218466 
L 78.930567 164.497111 
L 78.935717 164.462281 
L 79.067043 164.775757 
L 79.077343 164.740926 
L 79.152019 164.94991 
L 79.170044 164.880249 
L 79.288495 165.193725 
L 79.401796 165.402709 
L 79.293645 165.158894 
L 79.406946 165.333048 
L 79.417246 165.298217 
L 79.476471 165.507201 
L 79.507372 165.47237 
L 79.618098 165.646524 
L 79.512522 165.43754 
L 79.628398 165.611693 
L 79.648998 165.507201 
L 79.659298 165.646524 
L 79.736549 165.646524 
L 79.94255 165.751016 
L 80.050701 165.820677 
L 79.9477 165.716185 
L 80.053276 165.785847 
L 80.102202 165.751016 
L 80.112502 165.890339 
L 80.153702 165.855508 
L 80.225803 165.96 
L 80.259278 165.785847 
L 80.261853 165.855508 
L 80.297903 165.785847 
L 80.339103 165.925169 
L 80.372579 165.820677 
L 80.426654 165.890339 
L 80.46528 165.751016 
L 80.48073 165.820677 
L 80.503905 165.716185 
L 80.52708 165.855508 
L 80.591456 165.820677 
L 80.694456 165.751016 
L 80.604331 165.855508 
L 80.702181 165.785847 
L 80.794882 165.855508 
L 80.709907 165.716185 
L 80.815482 165.820677 
L 80.895308 165.681355 
L 80.928783 165.751016 
L 81.026634 165.820677 
L 80.949383 165.716185 
L 81.039509 165.751016 
L 81.049809 165.785847 
L 81.15281 165.681355 
L 81.194011 165.751016 
L 81.230061 165.611693 
L 81.263536 165.681355 
L 81.487563 165.576862 
L 81.546788 165.47237 
L 81.500438 165.611693 
L 81.598289 165.542032 
L 81.693565 165.43754 
L 81.809441 165.298217 
L 81.709015 165.47237 
L 81.812016 165.333048 
L 81.933042 165.228556 
L 81.938192 165.263386 
L 82.056643 165.054402 
L 82.118443 164.984741 
L 82.216294 164.740926 
L 82.123593 165.019572 
L 82.234319 164.810587 
L 82.257494 164.845418 
L 82.33217 164.636434 
L 82.334745 164.706095 
L 82.455771 164.42745 
L 82.460921 164.462281 
L 82.463496 164.531942 
L 82.553622 164.322958 
L 82.566497 164.322958 
L 82.589672 164.357789 
L 82.659198 164.148804 
L 82.669498 164.218466 
L 82.780224 164.009482 
L 82.790524 164.044312 
L 82.795674 164.113974 
L 82.880649 163.870159 
L 82.896099 163.93982 
L 83.0197 163.661175 
L 83.024851 163.696006 
L 83.027426 163.765667 
L 83.109826 163.556683 
L 83.130426 163.556683 
L 83.254027 163.382529 
L 83.295228 163.312868 
L 83.408529 163.103884 
L 83.411104 163.173545 
L 83.52698 162.8949 
L 83.539855 162.92973 
L 83.555305 162.999392 
L 83.60423 162.755577 
L 83.642856 162.825238 
L 83.686631 162.720746 
L 83.769032 162.511762 
L 83.799932 162.546593 
L 83.864307 162.476932 
L 83.982758 162.267947 
L 84.026534 162.198286 
L 84.114084 161.989302 
L 84.14241 162.024133 
L 84.18361 161.919641 
L 84.191335 161.954471 
L 84.314936 161.640995 
L 84.353561 161.745487 
L 84.420512 161.501672 
L 84.487463 161.466842 
L 84.603338 161.223027 
L 84.616214 161.327519 
L 84.696039 161.048874 
L 84.703764 161.083704 
L 84.770715 161.014043 
L 84.884016 160.770228 
L 84.886591 160.805059 
L 84.896891 160.839889 
L 84.981867 160.630905 
L 84.984442 160.630905 
L 85.074567 160.561244 
L 85.187868 160.35226 
L 85.190443 160.387091 
L 85.229069 160.421921 
L 85.277994 160.212937 
L 85.293444 160.282598 
L 85.298594 160.317429 
L 85.417045 160.108445 
L 85.422195 160.178106 
L 85.502021 159.934292 
L 85.520046 159.934292 
L 85.579272 159.899461 
L 85.695147 159.655646 
L 85.700298 159.690477 
L 85.787848 159.481493 
L 85.798148 159.551154 
L 85.916599 159.307339 
L 86.00415 159.237678 
L 86.107151 158.959032 
L 86.122601 158.993863 
L 86.217877 158.924202 
L 86.326028 158.750048 
L 86.233327 158.993863 
L 86.331178 158.784879 
L 86.349203 158.81971 
L 86.423878 158.645556 
L 86.434179 158.680387 
L 86.560355 158.401742 
L 86.570655 158.471403 
L 86.66078 158.192757 
L 86.663355 158.192757 
L 86.758631 158.123096 
L 86.789531 158.227588 
L 86.871932 158.053435 
L 86.969783 157.948943 
L 87.065059 157.80962 
L 86.982658 157.983773 
L 87.085659 157.879281 
L 87.134584 157.80962 
L 87.242735 157.565805 
L 87.253035 157.600636 
L 87.27106 157.635466 
L 87.374061 157.426482 
L 87.404961 157.496144 
L 87.451312 157.217498 
L 87.474487 157.28716 
L 87.592938 157.078176 
L 87.598088 157.113006 
L 87.600663 157.147837 
L 87.680489 156.938853 
L 87.701089 157.008514 
L 87.721689 156.904022 
L 87.731989 156.973683 
L 87.837565 156.764699 
L 87.878765 156.869191 
L 87.940566 156.695038 
L 87.943141 156.695038 
L 88.053867 156.520885 
L 87.971466 156.729869 
L 88.056442 156.555715 
L 88.082192 156.590546 
L 88.146568 156.346731 
L 88.154293 156.381562 
L 88.213518 156.3119 
L 88.329394 156.137747 
L 88.38347 156.102916 
L 88.49677 155.963594 
L 88.617796 155.78944 
L 88.651272 155.859102 
L 88.697622 155.684948 
L 88.723372 155.75461 
L 88.836673 155.580456 
L 88.875299 155.510795 
L 88.991175 155.301811 
L 88.9989 155.406303 
L 89.07615 155.197319 
L 89.099325 155.232149 
L 89.148251 155.127657 
L 89.264127 154.953504 
L 89.269277 154.988334 
L 89.336227 154.953504 
L 89.446953 154.74452 
L 89.449528 154.77935 
L 89.531929 154.674858 
L 89.652955 154.500705 
L 89.70188 154.535536 
L 89.722481 154.396213 
L 89.755956 154.396213 
L 89.763681 154.431044 
L 89.876982 154.187229 
L 89.925907 154.25689 
L 89.954232 154.047906 
L 89.985133 154.187229 
L 90.116459 153.838922 
L 90.142209 153.943414 
L 90.222035 153.73443 
L 90.22461 153.769261 
L 90.330186 153.73443 
L 90.422886 153.525446 
L 90.366236 153.769261 
L 90.443486 153.595107 
L 90.572238 153.351292 
L 90.672663 153.2468 
L 90.793689 153.037816 
L 90.682963 153.316462 
L 90.796264 153.072647 
L 90.90184 152.968155 
L 90.91729 153.002985 
L 91.028016 152.759171 
L 91.118142 152.794001 
L 91.074367 152.689509 
L 91.136167 152.759171 
L 91.244318 152.585017 
L 91.252043 152.619848 
L 91.326719 152.550187 
L 91.442595 152.376033 
L 91.561046 152.306372 
L 91.676922 152.062557 
L 91.679497 152.097388 
L 91.715547 152.167049 
L 91.777347 151.958065 
L 91.782497 151.992896 
L 91.908673 151.783912 
L 92.006524 151.71425 
L 92.08635 151.749081 
L 92.1224 151.574927 
L 92.135275 151.679419 
L 92.176476 151.505266 
L 92.230551 151.540097 
L 92.338702 151.331113 
L 92.346427 151.365943 
L 92.356727 151.400774 
L 92.441703 151.19179 
L 92.446853 151.226621 
L 92.536979 151.052467 
L 92.560154 151.087298 
L 92.573029 151.122129 
L 92.65028 150.913144 
L 92.66058 150.982806 
L 92.776456 150.808652 
L 92.781606 150.843483 
L 92.784181 150.878314 
L 92.843406 150.66933 
L 92.884606 150.738991 
L 92.997907 150.460346 
L 92.915507 150.773822 
L 93.005632 150.599668 
L 93.054558 150.495176 
L 93.080308 150.599668 
L 93.178159 150.321023 
L 93.185884 150.390684 
L 93.26571 150.216531 
L 93.28116 150.251361 
L 93.399611 150.042377 
L 93.484586 149.972716 
L 93.603037 149.763732 
L 93.639088 149.833393 
L 93.675138 149.65924 
L 93.708613 149.728901 
L 93.824489 149.519917 
L 93.837364 149.554748 
L 93.919765 149.380594 
L 93.930065 149.450256 
L 94.027916 149.241272 
L 94.045941 149.310933 
L 94.172117 149.067118 
L 94.187567 149.101949 
L 94.236493 148.927795 
L 94.275118 149.032287 
L 94.378119 148.788473 
L 94.393569 148.823303 
L 94.429619 148.753642 
L 94.54807 148.544658 
L 94.550645 148.614319 
L 94.609871 148.440166 
L 94.653646 148.474997 
L 94.730897 148.266012 
L 94.661371 148.509827 
L 94.769522 148.405335 
L 94.893123 148.335674 
L 95.008999 148.12669 
L 95.112 147.882875 
L 95.037324 148.16152 
L 95.12745 148.022198 
L 95.171225 147.917706 
L 95.289676 147.708721 
L 95.1944 147.952536 
L 95.292251 147.778383 
L 95.384952 147.673891 
L 95.390102 147.708721 
L 95.503403 147.534568 
L 95.526578 147.604229 
L 95.560053 147.395245 
L 95.611554 147.499737 
L 95.663054 147.395245 
L 95.75318 147.186261 
L 95.786655 147.221092 
L 95.881931 147.186261 
L 95.982357 147.012108 
L 95.995232 147.046938 
L 96.028707 146.942446 
L 96.134283 146.733462 
L 96.152308 146.768293 
L 96.206384 146.803124 
L 96.250159 146.62897 
L 96.35316 146.454817 
L 96.260459 146.698632 
L 96.366035 146.524478 
L 96.386635 146.59414 
L 96.458736 146.350325 
L 96.471611 146.385155 
L 96.556587 146.280663 
L 96.677613 146.036849 
L 96.682763 146.071679 
L 96.705938 146.141341 
L 96.754863 145.897526 
L 96.780613 145.932357 
L 96.899064 145.723372 
L 96.901639 145.758203 
L 96.90679 145.827865 
L 96.976315 145.61888 
L 97.00464 145.688542 
L 97.135966 145.409896 
L 97.174592 145.479558 
L 97.220942 145.305404 
L 97.241542 145.340235 
L 97.341968 145.270574 
L 97.460419 145.061589 
L 97.468144 145.09642 
L 97.58917 144.817775 
L 97.632945 144.887436 
L 97.681871 144.713283 
L 97.694746 144.748113 
L 97.738521 144.643621 
L 97.743671 144.678452 
L 97.862122 144.434637 
L 97.939373 144.504299 
L 97.965123 144.364976 
L 97.972848 144.434637 
L 98.024349 144.330145 
L 98.029499 144.364976 
L 98.14795 144.155992 
L 98.15825 144.225653 
L 98.243225 144.0515 
L 98.250951 144.0515 
L 98.346226 143.947008 
L 98.359101 143.981838 
L 98.469827 143.703193 
L 98.477552 143.772854 
L 98.565103 143.529039 
L 98.575403 143.633531 
L 98.675829 143.389717 
L 98.691279 143.424547 
L 98.709304 143.494209 
L 98.765955 143.320055 
L 98.79943 143.354886 
L 98.871531 143.389717 
L 98.915306 143.215563 
L 98.917881 143.285225 
L 99.010582 143.04141 
L 99.023457 143.145902 
L 99.074957 143.04141 
L 99.177958 142.902087 
L 99.082682 143.111071 
L 99.188258 142.971748 
L 99.224309 142.867256 
L 99.340184 142.693103 
L 99.38396 142.588611 
L 99.42001 142.693103 
L 99.504986 142.449288 
L 99.618287 142.344796 
L 99.736738 142.170643 
L 99.816563 142.240304 
L 99.765063 142.100981 
L 99.844889 142.135812 
L 99.865489 142.170643 
L 99.965915 141.961659 
L 100.00454 142.03132 
L 100.02514 141.857167 
L 100.068915 141.857167 
L 100.151316 141.752674 
L 100.251742 141.50886 
L 100.161616 141.787505 
L 100.272342 141.578521 
L 100.300667 141.613352 
L 100.352168 141.404368 
L 100.372768 141.439198 
L 100.493794 141.265045 
L 100.501519 141.369537 
L 100.591645 141.125722 
L 100.601945 141.195384 
L 100.702371 141.02123 
L 100.722971 141.056061 
L 100.802796 140.986399 
L 100.916097 140.777415 
L 100.944423 140.847077 
L 100.993348 140.603262 
L 101.019098 140.672923 
L 101.140124 140.429109 
L 101.142699 140.49877 
L 101.176175 140.394278 
L 101.294626 140.220124 
L 101.297201 140.254955 
L 101.320376 140.185294 
L 101.330676 140.254955 
L 101.438827 139.97631 
L 101.536678 140.080802 
L 101.549553 139.97631 
L 101.557278 140.01114 
L 101.644828 139.802156 
L 101.652553 139.871818 
L 101.701479 139.802156 
L 101.817355 139.523511 
L 101.81993 139.593172 
L 101.902331 139.523511 
L 101.992456 139.349357 
L 102.015631 139.419019 
L 102.043957 139.314527 
L 102.054257 139.349357 
L 102.162408 139.210035 
L 102.252533 139.140373 
L 102.365834 138.931389 
L 102.463685 139.00105 
L 102.427635 138.861728 
L 102.473985 138.896558 
L 102.530636 138.826897 
L 102.646512 138.583082 
L 102.566686 138.861728 
L 102.649087 138.617913 
L 102.739212 138.513421 
L 102.862813 138.304437 
L 102.865388 138.339267 
L 102.932339 138.130283 
L 102.958089 138.130283 
L 102.968389 138.165114 
L 103.08169 137.95613 
L 103.09714 138.060622 
L 103.184691 137.781977 
L 103.187266 137.816807 
L 103.308292 137.607823 
L 103.336617 137.677484 
L 103.380393 137.503331 
L 103.413868 137.503331 
L 103.503994 137.398839 
L 103.62502 137.189855 
L 103.627595 137.259516 
L 103.689395 136.980871 
L 103.730596 137.085363 
L 103.792396 137.050532 
L 103.903122 136.841548 
L 103.905697 136.876379 
L 104.018998 136.702225 
L 103.926297 136.911209 
L 104.024148 136.771887 
L 104.026723 136.806717 
L 104.091098 136.632564 
L 104.124574 136.667395 
L 104.24045 136.458411 
L 104.248175 136.493241 
L 104.2971 136.388749 
L 104.325425 136.42358 
L 104.420701 136.179765 
L 104.451601 136.214596 
L 104.515977 135.970781 
L 104.521127 136.075273 
L 104.626703 135.796628 
L 104.634428 135.866289 
L 104.655028 135.90112 
L 104.703954 135.657305 
L 104.732279 135.692135 
L 104.794079 135.587643 
L 104.809529 135.622474 
L 104.915105 135.448321 
L 104.969181 135.483151 
L 105.005231 135.308998 
L 105.015531 135.308998 
L 105.110807 135.274167 
L 105.216383 135.030352 
L 105.224108 135.065183 
L 105.231833 135.100014 
L 105.319384 134.89103 
L 105.324534 134.92586 
L 105.424959 134.716876 
L 105.332259 134.960691 
L 105.442985 134.786538 
L 105.45071 134.856199 
L 105.53826 134.612384 
L 105.54341 134.647215 
L 105.651561 134.4034 
L 105.667011 134.438231 
L 105.677312 134.473062 
L 105.736537 134.264077 
L 105.764862 134.298908 
L 105.770012 134.368569 
L 105.885888 134.055093 
L 105.888463 134.159585 
L 105.988889 133.88094 
L 105.991464 133.985432 
L 106.099615 133.811279 
L 106.10734 133.846109 
L 106.225791 133.637125 
L 106.228366 133.671956 
L 106.238666 133.741617 
L 106.261841 133.497802 
L 106.328792 133.567464 
L 106.444668 133.35848 
L 106.454968 133.462972 
L 106.534794 133.253988 
L 106.545094 133.253988 
L 106.66612 133.045003 
L 106.689295 133.149496 
L 106.73307 132.940511 
L 106.774271 133.010173 
L 106.874696 132.905681 
L 106.990572 132.696697 
L 107.060098 132.731527 
L 107.075548 132.592205 
L 107.093573 132.592205 
L 107.160524 132.522543 
L 107.26095 132.313559 
L 107.175974 132.557374 
L 107.2764 132.34839 
L 107.28155 132.38322 
L 107.356225 132.209067 
L 107.3794 132.278728 
L 107.492701 132.104575 
L 107.500426 132.139406 
L 107.521027 132.104575 
L 107.611152 131.895591 
L 107.634328 131.930422 
L 107.636903 132.000083 
L 107.729603 131.756268 
L 107.739903 131.791099 
L 107.742478 131.82593 
L 107.822304 131.651776 
L 107.835179 131.651776 
L 107.951055 131.407961 
L 107.95363 131.442792 
L 107.96393 131.477623 
L 108.048906 131.233808 
L 108.051481 131.303469 
L 108.177657 131.024824 
L 108.180232 131.059654 
L 108.311558 130.989993 
L 108.430009 130.781009 
L 108.53816 130.676517 
L 108.661761 130.502364 
L 108.762187 130.397871 
L 108.885788 130.223718 
L 108.952738 130.119226 
L 108.960463 130.188887 
L 109.071189 129.979903 
L 109.130415 130.084395 
L 109.09694 129.945073 
L 109.181915 129.979903 
L 109.302941 129.945073 
L 109.382767 129.736088 
L 109.416242 129.840581 
L 109.485768 129.736088 
L 109.588769 129.561935 
L 109.496068 129.80575 
L 109.606794 129.596766 
L 109.609369 129.666427 
L 109.691769 129.422612 
L 109.709795 129.457443 
L 109.81022 129.28329 
L 109.725245 129.527104 
L 109.830821 129.31812 
L 109.920946 129.248459 
L 110.029097 129.109136 
L 109.931246 129.28329 
L 110.034247 129.143967 
L 110.152698 128.865321 
L 110.193899 128.969813 
L 110.240249 128.760829 
L 110.255699 128.79566 
L 110.366425 128.551845 
L 110.371575 128.621507 
L 110.448826 128.517015 
L 110.564702 128.2732 
L 110.464276 128.551845 
L 110.572427 128.30803 
L 110.600752 128.342861 
L 110.665127 128.099046 
L 110.672853 128.168708 
L 110.714053 128.133877 
L 110.827354 127.959724 
L 110.935505 127.855232 
L 110.94323 127.924893 
L 111.061681 127.646247 
L 111.077131 127.750739 
L 111.159532 127.541755 
L 111.167257 127.576586 
L 111.234207 127.472094 
L 111.257382 127.506925 
L 111.350083 127.297941 
L 111.352658 127.402433 
L 111.393858 127.228279 
L 111.460809 127.297941 
L 111.561235 127.019295 
L 111.57926 127.054126 
L 111.656511 126.984464 
L 111.777537 126.670988 
L 111.803287 126.77548 
L 111.875387 126.566496 
L 111.883112 126.601327 
L 112.011864 126.357512 
L 112.055639 126.287851 
L 112.171515 126.044036 
L 112.202415 126.25302 
L 112.266791 126.009205 
L 112.279666 126.009205 
L 112.408417 125.695729 
L 112.410992 125.73056 
L 112.506268 125.626068 
L 112.627294 125.417084 
L 112.511418 125.660898 
L 112.629869 125.451914 
L 112.673644 125.347422 
L 112.77922 125.2081 
L 112.691669 125.451914 
L 112.792095 125.24293 
L 112.80497 125.312592 
L 112.859045 125.103607 
L 112.892521 125.103607 
L 113.026422 124.999115 
L 113.134573 124.685639 
L 113.147448 124.72047 
L 113.180923 124.790131 
L 113.222123 124.615978 
L 113.253024 124.615978 
L 113.371475 124.581147 
L 113.489926 124.267671 
L 113.572326 124.372163 
L 113.592927 124.23284 
L 113.598077 124.302502 
L 113.711377 124.128348 
L 113.608377 124.372163 
L 113.713953 124.163179 
L 113.716528 124.19801 
L 113.791203 124.023856 
L 113.814378 124.023856 
L 113.943129 123.71038 
L 113.945704 123.745211 
L 113.96888 123.780041 
L 114.012655 123.640719 
L 114.048705 123.640719 
L 114.07188 123.536227 
L 114.185181 123.396904 
L 114.095056 123.571057 
L 114.190331 123.431735 
L 114.213507 123.362073 
L 114.239257 123.396904 
L 114.326808 123.257581 
L 114.337108 123.327243 
L 114.375733 123.153089 
L 114.432383 123.18792 
L 114.530234 122.978936 
L 114.553409 123.048597 
L 114.62551 122.944105 
L 114.741386 122.735121 
L 114.749111 122.769952 
L 114.803186 122.66546 
L 114.916487 122.526137 
L 114.816062 122.735121 
L 114.919062 122.560968 
L 114.947388 122.595798 
L 115.016913 122.386814 
L 115.019488 122.421645 
L 115.130214 122.317153 
L 115.037513 122.526137 
L 115.132789 122.351983 
L 115.264115 122.282322 
L 115.364541 122.108169 
L 115.379991 122.142999 
L 115.467542 122.038507 
L 115.390291 122.17783 
L 115.490717 122.073338 
L 115.493292 122.142999 
L 115.588568 121.899185 
L 115.593718 121.968846 
L 115.719894 121.516047 
L 115.78942 121.411555 
L 115.797145 121.481216 
L 115.907871 121.272232 
L 115.959371 121.307063 
L 116.003146 121.132909 
L 116.010871 121.202571 
L 116.116447 120.993587 
L 116.124172 121.028417 
L 116.170523 120.923925 
L 116.283824 120.819433 
L 116.198848 120.993587 
L 116.286399 120.854264 
L 116.288974 120.889095 
L 116.322449 120.714941 
L 116.386824 120.714941 
L 116.453775 120.610449 
L 116.48725 120.680111 
L 116.574801 120.471126 
L 116.659777 120.366634 
L 116.785953 120.15765 
L 116.847753 120.053158 
L 116.858053 120.087989 
L 116.971354 119.879005 
L 116.979079 119.983497 
L 117.033155 119.809343 
L 117.07693 119.844174 
L 117.208256 119.426206 
L 117.213406 119.495867 
L 117.288082 119.426206 
L 117.406533 119.217222 
L 117.514684 119.11273 
L 117.460608 119.321714 
L 117.517259 119.182391 
L 117.545584 119.217222 
L 117.579059 119.008238 
L 117.61511 119.008238 
L 117.664035 118.903746 
L 117.749011 118.764423 
L 117.69236 118.973407 
L 117.777336 118.868915 
L 117.821111 118.799254 
L 117.918962 118.59027 
L 117.934412 118.729592 
L 118.068313 118.381285 
L 118.070888 118.450947 
L 118.109514 118.276793 
L 118.173889 118.276793 
L 118.25629 118.172301 
L 118.264015 118.207132 
L 118.377316 117.893656 
L 118.449416 117.858825 
L 118.560142 117.61501 
L 118.565292 117.649841 
L 118.634818 117.58018 
L 118.758419 117.231873 
L 118.776444 117.301534 
L 118.858845 117.09255 
L 118.863995 117.162211 
L 118.977296 116.953227 
L 118.87687 117.197042 
L 118.979871 116.988058 
L 119.033946 116.918397 
L 119.142097 116.709413 
L 119.149822 116.744243 
L 119.154972 116.779074 
L 119.224498 116.57009 
L 119.250248 116.604921 
L 119.288873 116.57009 
L 119.404749 116.326275 
L 119.463975 116.221783 
L 119.525775 116.08246 
L 119.469125 116.256614 
L 119.577276 116.152122 
L 119.582426 116.186952 
L 119.639076 115.977968 
L 119.677701 116.012799 
L 119.744652 115.977968 
L 119.857953 115.699323 
L 119.754952 116.012799 
L 119.860528 115.734153 
L 119.896578 115.629661 
L 120.030479 115.281355 
L 120.033054 115.385847 
L 120.11803 115.03754 
L 120.13348 115.03754 
L 120.262231 114.793725 
L 120.272531 114.898217 
L 120.362657 114.619572 
L 120.365232 114.619572 
L 120.447633 114.54991 
L 120.566084 114.306095 
L 120.620159 114.201603 
L 120.756635 113.853296 
L 120.77466 113.922958 
L 120.846761 113.644312 
L 120.857061 113.644312 
L 120.952337 113.226344 
L 120.975512 113.330836 
L 121.047613 113.261175 
L 121.160914 113.087021 
L 121.163489 113.121852 
L 121.168639 113.156683 
L 121.238164 112.947699 
L 121.261339 112.982529 
L 121.37979 112.669053 
L 121.387516 112.703884 
L 121.518842 112.285916 
L 121.614117 112.181424 
L 121.735143 111.798286 
L 121.768619 111.867947 
L 121.838144 111.589302 
L 121.894795 111.519641 
L 122.002946 111.415149 
L 121.95917 111.554471 
L 122.008096 111.449979 
L 122.023546 111.519641 
L 122.100796 111.275826 
L 122.105946 111.275826 
L 122.141997 111.206164 
L 122.152297 111.240995 
L 122.257873 111.032011 
L 122.301648 110.927519 
L 122.430399 110.648874 
L 122.438124 110.718535 
L 122.510225 110.439889 
L 122.52825 110.509551 
L 122.662151 109.708445 
L 122.664726 109.812937 
L 122.685326 109.743276 
L 122.814077 109.220815 
L 122.842402 109.255646 
L 122.888753 108.977001 
L 122.901628 108.977001 
L 123.027804 108.559032 
L 123.045829 108.45454 
L 123.197755 107.897249 
L 123.213205 107.792757 
L 123.218356 107.827588 
L 123.499033 105.38944 
L 123.501608 105.424271 
L 123.563408 104.762488 
L 123.735935 100.965943 
L 123.787435 90.934706 
L 123.82091 15.038645 
L 123.893011 100.931113 
L 123.993437 118.694762 
L 124.026912 118.276793 
L 124.268964 116.395936 
L 124.274114 116.430767 
L 124.279264 116.465598 
L 124.35394 116.117291 
L 124.361665 116.117291 
L 124.516166 115.525169 
L 124.536766 115.490339 
L 124.652642 114.758894 
L 124.662942 114.793725 
L 124.683543 114.689233 
L 124.804569 114.236434 
L 124.809719 114.271265 
L 124.820019 114.201603 
L 124.925595 113.748804 
L 124.946195 113.783635 
L 125.113571 112.878037 
L 125.118721 112.912868 
L 125.121296 112.982529 
L 125.216572 112.564561 
L 125.221722 112.4949 
L 125.350473 112.00727 
L 125.517849 111.240995 
L 125.546175 111.171334 
L 125.674926 110.648874 
L 125.677501 110.718535 
L 125.772777 110.335397 
L 125.801102 110.265736 
L 125.935003 109.603953 
L 125.945303 109.638784 
L 126.012253 109.151154 
L 126.014828 109.185985 
L 126.25173 107.479281 
L 126.269756 107.40962 
L 126.395932 106.469191 
L 126.401082 106.538853 
L 126.431982 106.434361 
L 126.869736 99.050256 
L 126.916086 90.586399 
L 126.949561 14.76 
L 127.021662 97.517706 
L 127.122088 117.963317 
L 127.155563 117.61501 
L 127.163288 117.649841 
L 127.387315 115.977968 
L 127.41564 115.908307 
L 127.541816 115.246524 
L 127.544391 115.281355 
L 127.624217 114.933048 
L 127.629367 114.933048 
L 127.655117 114.828556 
L 127.848244 113.713974 
L 127.873994 113.609482 
L 128.04652 112.773545 
L 128.074845 112.669053 
L 128.211322 111.902778 
L 128.213897 111.97244 
L 128.296297 111.275826 
L 128.298872 111.310657 
L 128.510024 109.917429 
L 128.512599 109.95226 
L 128.5847 109.46463 
L 128.587275 109.46463 
L 128.873102 107.061313 
L 128.880827 107.096144 
L 128.950353 106.608514 
L 128.952928 106.643345 
L 128.973528 106.538853 
L 129.148629 104.762488 
L 129.161504 104.657996 
L 129.457632 99.154748 
L 129.516857 89.193172 
L 129.552908 14.829661 
L 129.622433 95.567187 
L 129.740884 116.883566 
L 129.756334 116.813905 
L 129.779509 116.744243 
L 129.90311 116.291444 
L 129.905685 116.326275 
L 129.949461 116.221783 
L 129.962336 116.256614 
L 130.114262 115.455508 
L 130.124562 115.490339 
L 130.196663 115.07237 
L 130.400089 113.783635 
L 130.402665 113.853296 
L 130.485065 113.156683 
L 130.490215 113.226344 
L 130.621541 112.390408 
L 130.644717 112.285916 
L 130.902219 110.265736 
L 130.904794 110.300567 
L 130.969169 109.708445 
L 130.971744 109.708445 
L 130.984619 109.638784 
L 131.146846 108.245556 
L 131.798326 97.935674 
L 131.836951 90.063939 
L 131.873002 15.491444 
L 131.942527 93.964976 
L 132.048103 116.604921 
L 132.076428 116.186952 
L 132.086728 116.08246 
L 132.295305 114.758894 
L 132.33393 114.654402 
L 132.493582 113.992619 
L 132.496157 114.02745 
L 132.578557 113.644312 
L 132.599158 113.53982 
L 132.815459 112.042101 
L 132.818034 112.111762 
L 132.90301 111.415149 
L 132.941635 111.310657 
L 133.080687 110.056752 
L 133.085837 110.091583 
L 133.145062 109.4298 
L 133.160512 109.325308 
L 133.490115 106.364699 
L 133.50299 106.260207 
L 133.884093 99.712039 
L 133.976794 87.347146 
L 134.010269 16.466704 
L 134.08237 93.581838 
L 134.182796 114.933048 
L 134.218846 114.515079 
L 134.360472 113.609482 
L 134.368197 113.644312 
L 134.440298 113.261175 
L 134.445448 113.296006 
L 134.576774 112.460069 
L 134.726125 111.415149 
L 134.741575 111.345487 
L 134.888351 110.370228 
L 135.138128 108.41971 
L 135.140703 108.489371 
L 135.223104 107.792757 
L 135.946685 96.542446 
L 135.993035 90.62123 
L 136.021361 28.622612 
L 136.036811 17.163317 
L 136.096036 81.704575 
L 136.232512 113.574651 
L 136.235087 113.50499 
L 136.250538 113.435328 
L 136.394739 112.320746 
L 136.399889 112.390408 
L 136.423064 112.355577 
L 136.54924 111.728625 
L 136.58529 111.624133 
L 136.837642 109.708445 
L 136.850517 109.638784 
L 137.007594 108.315218 
L 137.012744 108.350048 
L 137.074544 107.757927 
L 137.077119 107.757927 
L 137.453072 104.170366 
L 137.460797 104.100705 
L 137.695124 100.756959 
L 137.705424 100.652467 
L 137.903701 92.397595 
L 137.929451 78.012522 
L 137.960352 18.208238 
L 138.032452 91.909965 
L 138.140603 112.320746 
L 138.168928 112.181424 
L 138.307979 111.345487 
L 138.310554 111.415149 
L 138.39553 110.927519 
L 138.40068 110.96235 
L 138.529431 109.987091 
L 138.738008 108.559032 
L 138.534581 110.021921 
L 138.743158 108.593863 
L 138.768908 108.489371 
L 138.920834 107.200636 
L 138.925984 107.235466 
L 139.216962 104.797319 
L 139.253012 104.832149 
L 139.255587 104.936641 
L 139.348288 104.37935 
L 139.350863 104.37935 
L 139.873592 95.880663 
L 139.958568 86.406717 
L 139.999768 19.183497 
L 140.064144 86.894347 
L 140.167145 111.867947 
L 140.20062 111.554471 
L 140.208345 111.449979 
L 140.465847 109.394969 
L 140.468422 109.46463 
L 140.553398 109.011831 
L 140.558548 109.046662 
L 140.687299 108.315218 
L 141.011752 105.424271 
L 141.024627 105.319779 
L 141.619457 95.776171 
L 141.714732 82.610173 
L 141.750783 20.437402 
L 141.820308 85.884257 
L 141.956784 109.917429 
L 142.103561 108.94217 
L 142.131886 108.837678 
L 142.139611 108.872509 
L 142.291537 108.141064 
L 142.294112 108.175895 
L 142.363638 107.653435 
L 142.366213 107.653435 
L 142.381663 107.548943 
L 142.675215 105.075964 
L 142.680365 104.971472 
L 143.334421 94.626759 
L 143.403946 87.799945 
L 143.429696 59.238784 
L 143.455447 20.994692 
L 143.530122 89.994278 
L 143.625398 108.524202 
L 143.666598 108.245556 
L 143.669173 108.280387 
L 143.723249 107.827588 
L 143.743849 107.862419 
L 143.87775 107.200636 
L 143.880325 107.235466 
L 143.955001 106.817498 
L 143.960151 106.817498 
L 143.970451 106.713006 
L 144.235678 104.483842 
L 144.240828 104.518673 
L 144.243403 104.553504 
L 144.294904 103.996213 
L 144.307779 103.996213 
L 144.475155 102.394001 
L 144.47773 102.463663 
L 144.562706 101.767049 
L 144.995309 94.417775 
L 145.07256 89.541479 
L 145.10861 71.847491 
L 145.139511 22.875549 
L 145.211611 84.943829 
L 145.345512 106.88716 
L 145.350662 106.817498 
L 145.502588 106.260207 
L 145.541214 106.155715 
L 145.695715 105.493932 
L 145.69829 105.563594 
L 145.775541 104.727657 
L 146.063943 102.289509 
L 146.066518 102.32434 
L 146.128319 101.697388 
L 146.625298 93.477346 
L 146.702548 88.60105 
L 146.743749 68.399254 
L 146.774649 23.781147 
L 146.84675 83.411279 
L 146.983226 105.737747 
L 146.985801 105.702916 
L 147.019276 105.598424 
L 147.137727 105.145625 
L 147.160902 105.180456 
L 147.163477 105.215287 
L 147.238153 104.727657 
L 147.263903 104.623165 
L 147.47763 103.229938 
L 147.485355 103.125446 
L 147.49308 103.160276 
L 147.825258 100.025515 
L 147.843283 99.921023 
L 148.033834 97.72669 
L 148.041559 97.657028 
L 148.327387 87.138162 
L 148.363437 64.14991 
L 148.394337 25.069883 
L 148.463863 80.694485 
L 148.579739 105.075964 
L 148.605489 104.901811 
L 148.618364 104.971472 
L 148.752265 104.414181 
L 148.803766 104.309689 
L 148.940242 103.613075 
L 149.174569 101.941202 
L 149.184869 101.871541 
L 149.190019 101.906372 
L 149.36512 99.990684 
L 149.805449 92.606579 
L 149.92905 80.694485 
L 149.977975 26.114803 
L 150.044926 75.539544 
L 150.191702 103.055784 
L 150.194277 103.020954 
L 150.238052 102.951292 
L 150.348778 102.602985 
L 150.356503 102.742308 
L 150.467229 102.394001 
L 150.384829 102.81197 
L 150.487829 102.428832 
L 150.500705 102.463663 
L 150.58053 102.185017 
L 150.724731 101.279419 
L 151.11871 97.413214 
L 151.121285 97.448044 
L 151.183085 96.786261 
L 151.461187 91.561659 
L 151.574488 82.923649 
L 151.613114 44.958203 
L 151.636289 27.124893 
L 151.703239 74.076655 
L 151.855166 101.976033 
L 151.983917 102.463663 
L 152.037992 102.394001 
L 152.159018 101.83671 
L 152.058592 102.428832 
L 152.161593 101.871541 
L 152.177043 101.767049 
L 152.182193 101.80188 
L 152.38047 100.478314 
L 152.383045 100.513144 
L 152.439695 99.816531 
L 153.106626 89.332495 
L 153.186452 81.600083 
L 153.245677 28.796766 
L 153.315203 73.763179 
L 153.464554 100.582806 
L 153.541804 101.035605 
L 153.588155 101.000774 
L 153.603605 100.931113 
L 153.655105 101.140097 
L 153.701456 100.965943 
L 153.727206 100.896282 
L 153.845657 100.443483 
L 154.085134 98.701949 
L 154.108309 98.597457 
L 154.255085 97.030076 
L 154.25766 97.064907 
L 154.306586 96.263801 
L 154.309161 96.263801 
L 154.316886 96.22897 
L 154.484262 93.16387 
L 154.623313 89.820124 
L 154.741764 77.90803 
L 154.79584 29.493379 
L 154.865365 70.698079 
L 155.022442 99.712039 
L 155.148618 100.373822 
L 155.176943 100.30416 
L 155.200118 100.234499 
L 155.210418 100.478314 
L 155.287669 100.26933 
L 155.300544 100.30416 
L 155.37007 99.886192 
L 155.37522 99.955853 
L 155.511696 99.25924 
L 155.527146 99.154748 
L 155.972624 94.591928 
L 155.975199 94.626759 
L 156.029275 93.860484 
L 156.255877 89.297664 
L 156.356303 83.689924 
L 156.407803 66.448735 
L 156.446428 30.364147 
L 156.515954 68.886883 
L 156.675605 99.189578 
L 156.801781 100.025515 
L 156.804356 99.990684 
L 156.855857 100.095176 
L 156.858432 100.164838 
L 156.935682 99.886192 
L 156.958858 99.921023 
L 156.989758 99.816531 
L 157.118509 99.328901 
L 157.146834 99.224409 
L 157.476437 96.22897 
L 157.479012 96.263801 
L 157.538237 95.671679 
L 157.545962 95.70651 
L 157.983716 81.042792 
L 158.030066 46.83906 
L 158.053242 30.816945 
L 158.122767 66.971196 
L 158.284993 97.657028 
L 158.470395 98.980594 
L 158.485845 98.910933 
L 158.601721 98.73678 
L 158.606871 98.77161 
L 158.650646 98.73678 
L 158.779397 98.005335 
L 159.495253 86.824686 
L 159.587954 78.952951 
L 159.639455 43.181838 
L 159.66263 32.662972 
L 159.727005 64.533048 
L 159.894382 96.054817 
L 160.090083 97.657028 
L 160.120984 97.622198 
L 160.154459 97.72669 
L 160.175059 97.831182 
L 160.236859 97.448044 
L 160.244585 97.448044 
L 160.27806 97.378383 
L 160.393936 96.646938 
L 160.404236 96.751431 
L 160.666888 94.661589 
L 160.669463 94.69642 
L 160.726113 93.999806 
L 160.728688 94.034637 
L 160.88834 92.014457 
L 161.135542 87.172992 
L 161.284893 73.275549 
L 161.344119 34.892135 
L 161.416219 64.63754 
L 161.586171 95.079558 
L 161.743247 96.368293 
L 161.745822 96.333462 
L 161.802472 96.681769 
L 161.833373 96.577277 
L 161.902898 96.472785 
L 161.946673 96.681769 
L 162.183575 94.870574 
L 162.18615 94.905404 
L 162.206751 94.940235 
L 162.265976 94.487436 
L 162.768105 86.232564 
L 162.899431 73.380041 
L 162.966382 35.066289 
L 163.038482 63.453296 
L 163.218734 93.964976 
L 163.388685 95.21888 
L 163.414436 95.18405 
L 163.437611 94.940235 
L 163.422161 95.21888 
L 163.525161 95.114388 
L 163.566362 95.18405 
L 163.586962 94.975066 
L 163.628162 95.044727 
L 163.764638 94.348113 
L 163.785239 94.243621 
L 163.932015 93.198701 
L 163.962915 93.268362 
L 164.019566 92.920055 
L 164.022141 92.954886 
L 164.166342 92.049288 
L 164.184367 91.944796 
L 164.740571 82.923649 
L 164.846147 74.390131 
L 164.920823 41.858272 
L 164.936273 39.315632 
L 164.987773 55.5119 
L 165.193775 93.268362 
L 165.343126 94.17396 
L 165.363727 94.069468 
L 165.469302 93.964976 
L 165.595478 93.6515 
L 165.598053 93.68633 
L 165.613504 93.721161 
L 165.677879 93.268362 
L 165.680454 93.303193 
L 165.901906 91.735812 
L 165.904481 91.805473 
L 165.979157 90.899876 
L 166.393735 86.789855 
L 166.404035 86.755024 
L 166.568836 83.829247 
L 166.658962 81.147284 
L 166.795438 64.63754 
L 166.862389 42.624547 
L 166.924189 57.427588 
L 167.135341 90.168431 
L 167.292417 92.049288 
L 167.294992 92.014457 
L 167.361943 92.536918 
L 167.372243 92.467256 
L 167.480394 92.711071 
L 167.490694 92.67624 
L 167.516444 92.467256 
L 167.60657 92.502087 
L 167.64262 92.432426 
L 167.65292 92.327934 
L 167.730171 92.502087 
L 167.750771 92.467256 
L 167.804847 92.362764 
L 168.026298 90.865045 
L 168.039174 90.760553 
L 168.20655 89.193172 
L 168.209125 89.228003 
L 168.276075 88.810035 
L 168.296676 88.949357 
L 168.955881 78.534983 
L 169.040857 73.240719 
L 169.154158 52.272647 
L 169.190208 47.048044 
L 169.249433 56.104022 
L 169.504361 87.625791 
L 169.779888 89.889786 
L 169.785038 89.854955 
L 169.849413 90.447077 
L 169.851988 90.412246 
L 169.877739 90.516738 
L 169.908639 90.203262 
L 169.957564 90.307754 
L 169.960139 90.238093 
L 169.99104 90.447077 
L 170.065715 90.342585 
L 170.06829 90.377415 
L 170.142966 89.889786 
L 170.300042 89.262833 
L 170.336092 89.158341 
L 170.70432 85.53595 
L 170.706895 85.605612 
L 170.712045 85.675273 
L 170.781571 85.152813 
L 170.964398 83.167464 
L 170.966973 83.202294 
L 171.023623 82.47085 
L 171.031348 82.505681 
L 171.170399 80.41584 
L 171.172974 80.45067 
L 171.214175 79.510242 
L 171.391851 71.77783 
L 171.574678 50.356959 
L 171.646778 57.950048 
L 171.906855 86.371887 
L 171.917155 86.441548 
L 172.063932 87.904437 
L 172.066507 87.869606 
L 172.130882 88.392066 
L 172.136032 88.392066 
L 172.164357 88.531389 
L 172.226158 88.287574 
L 172.233883 88.287574 
L 172.275083 88.148252 
L 172.331734 88.461728 
L 172.336884 88.461728 
L 172.416709 88.56622 
L 172.429585 88.670712 
L 172.51456 88.461728 
L 172.527435 88.60105 
L 172.532585 88.531389 
L 172.596961 88.740373 
L 172.635586 88.635881 
L 172.679362 88.60105 
L 172.800388 88.008929 
L 173.12999 85.048321 
L 173.137715 84.943829 
L 173.343717 82.366358 
L 173.871596 73.763179 
L 174.113648 68.434084 
L 174.281025 66.135259 
L 174.347975 66.727381 
L 175.035506 82.366358 
L 175.061256 82.47085 
L 175.197732 83.271956 
L 175.226058 83.202294 
L 175.238933 83.271956 
L 175.267258 83.202294 
L 175.365109 83.759585 
L 175.367684 83.655093 
L 175.470685 83.898908 
L 175.47326 83.829247 
L 175.491285 83.968569 
L 175.602011 83.550601 
L 175.607161 83.620263 
L 175.656086 83.237125 
L 175.694711 83.306786 
L 175.844063 82.192205 
L 175.911013 82.296697 
L 175.926463 82.018051 
L 175.941913 82.018051 
L 176.024314 81.94839 
L 176.153065 81.46076 
L 176.508418 78.082184 
L 176.510993 78.151845 
L 176.580519 77.281078 
L 176.588244 77.315909 
L 176.817421 74.076655 
L 176.822571 73.972163 
L 177.049172 70.593587 
L 177.054323 70.628417 
L 177.134148 70.872232 
L 177.072348 70.523925 
L 177.165048 70.628417 
L 177.244874 70.210449 
L 177.280924 70.523925 
L 177.306675 70.489095 
L 177.486926 71.812661 
L 177.489501 71.742999 
L 177.561602 72.753089 
L 177.842279 75.260898 
L 177.855154 75.226068 
L 177.865454 75.33056 
L 178.099781 77.315909 
L 177.873179 75.295729 
L 178.117806 77.246247 
L 178.156432 77.002433 
L 178.187332 77.315909 
L 178.225957 77.246247 
L 178.452559 78.813628 
L 178.470584 78.778798 
L 178.509209 79.092274 
L 178.537535 79.092274 
L 178.658561 79.649565 
L 178.661136 79.614734 
L 178.671436 79.545073 
L 178.733236 80.102364 
L 178.820787 80.276517 
L 178.758987 79.997871 
L 178.843962 80.137194 
L 178.869712 79.963041 
L 178.941813 80.346178 
L 178.946963 80.311348 
L 178.970138 80.41584 
L 178.993313 80.555162 
L 179.052539 80.172025 
L 179.060264 80.241686 
L 179.173565 79.684395 
L 179.18129 79.719226 
L 179.183865 79.754057 
L 179.250816 79.161935 
L 179.261116 79.127104 
L 179.400167 77.90803 
L 179.464542 77.803538 
L 179.606168 76.967602 
L 179.79672 75.783359 
L 179.799295 75.818189 
L 179.80187 75.85302 
L 179.873971 75.400221 
L 179.884271 75.469883 
L 180.036197 74.912592 
L 180.082547 74.84293 
L 180.113448 74.494623 
L 180.167523 75.086745 
L 180.185548 75.051914 
L 180.425025 76.897941 
L 180.4276 76.86311 
L 180.556351 76.34065 
L 180.566651 76.445142 
L 180.636177 75.957512 
L 180.654202 75.992343 
L 180.664502 75.957512 
L 180.726303 76.34065 
L 180.744328 76.270988 
L 180.777803 76.166496 
L 180.780378 76.131666 
L 180.873079 76.34065 
L 180.875654 76.270988 
L 181.009555 77.246247 
L 181.01728 77.141755 
L 181.081656 77.246247 
L 181.146031 77.838369 
L 181.212982 77.559724 
L 181.220707 77.629385 
L 181.352033 77.176586 
L 181.354608 77.211417 
L 181.416408 76.688956 
L 181.424133 76.723787 
L 181.57091 75.539544 
L 181.57606 75.609205 
L 181.58121 75.609205 
L 181.59666 75.36539 
L 181.64301 75.85302 
L 181.689361 75.678867 
L 181.738286 75.400221 
L 181.694511 75.713697 
L 181.815537 75.435052 
L 181.820687 75.504713 
L 181.885062 74.877761 
L 181.998363 73.867671 
L 182.047289 74.181147 
L 182.158014 74.250809 
L 182.160589 74.32047 
L 182.24299 73.693518 
L 182.24814 73.693518 
L 182.366591 73.171057 
L 182.261015 73.728348 
L 182.369166 73.205888 
L 182.400066 73.31038 
L 182.544268 74.250809 
L 182.557143 74.355301 
L 182.580318 74.424962 
L 182.634393 74.076655 
L 182.657569 74.250809 
L 182.665294 74.181147 
L 182.721944 74.84293 
L 182.724519 74.84293 
L 182.891895 76.37548 
L 183.048972 77.141755 
L 183.051547 77.072094 
L 183.054122 77.037263 
L 183.115922 77.664216 
L 183.118497 77.594554 
L 183.244673 78.291168 
L 183.252398 78.221507 
L 183.39145 78.743967 
L 183.3966 78.604644 
L 183.4481 78.848459 
L 183.4996 78.813628 
L 183.659252 78.082184 
L 183.515051 78.848459 
L 183.661827 78.117015 
L 183.682427 78.012522 
L 183.739077 78.256337 
L 183.806028 77.629385 
L 183.813753 77.664216 
L 183.888429 77.38557 
L 183.909029 77.524893 
L 183.921904 77.559724 
L 184.08928 76.584464 
L 184.117606 76.479972 
L 184.369958 74.355301 
L 184.138206 76.549634 
L 184.377683 74.424962 
L 184.395708 74.599115 
L 184.457508 74.146317 
L 184.475533 74.181147 
L 184.501284 73.83284 
L 184.635185 103.85689 
L 184.848912 116.57009 
L 184.936462 119.217222 
L 185.150189 123.466565 
L 185.157914 123.571057 
L 185.649743 128.725999 
L 185.652318 128.691168 
L 185.719269 129.28329 
L 185.721844 129.248459 
L 185.737294 129.31812 
L 185.88922 130.432702 
L 186.074622 131.477623 
L 186.077197 131.442792 
L 186.154447 131.82593 
L 186.280623 132.278728 
L 186.298648 132.34839 
L 186.424824 132.905681 
L 186.427399 132.87085 
L 186.455725 132.940511 
L 186.581901 133.39331 
L 186.587051 133.35848 
L 186.654001 133.602294 
L 186.677177 133.602294 
L 186.702927 133.706786 
L 186.713227 133.671956 
L 186.841978 134.124755 
L 186.844553 134.055093 
L 186.914078 134.368569 
L 186.944979 134.333739 
L 187.055705 134.507892 
L 187.06343 134.473062 
L 187.066005 134.438231 
L 187.158705 134.647215 
L 187.161281 134.647215 
L 187.264281 134.751707 
L 187.377582 134.960691 
L 187.279731 134.716876 
L 187.385307 134.89103 
L 187.400757 134.856199 
L 187.423933 135.065183 
L 187.485733 135.030352 
L 187.583584 135.134845 
L 187.702035 135.274167 
L 187.75096 135.204506 
L 187.779286 135.343829 
L 187.812761 135.274167 
L 187.815336 135.239337 
L 187.879711 135.41349 
L 187.915762 135.343829 
L 187.941512 135.308998 
L 188.034213 135.448321 
L 188.077988 135.378659 
L 188.111463 135.517982 
L 188.139789 135.41349 
L 188.193864 135.552813 
L 188.253089 135.517982 
L 188.255664 135.587643 
L 188.33549 135.378659 
L 188.36124 135.448321 
L 188.399866 135.378659 
L 188.36639 135.483151 
L 188.471966 135.41349 
L 188.590417 135.517982 
L 189.074521 135.448321 
L 189.182672 135.378659 
L 189.149197 135.552813 
L 189.185247 135.41349 
L 189.476225 135.308998 
L 189.48395 135.343829 
L 189.594675 135.204506 
L 189.617851 135.343829 
L 189.697676 135.134845 
L 189.702826 135.169675 
L 189.805827 135.134845 
L 189.736302 135.204506 
L 189.810977 135.169675 
L 189.893378 135.239337 
L 189.841878 135.134845 
L 189.919128 135.204506 
L 190.022129 135.100014 
L 190.016979 135.239337 
L 190.029854 135.169675 
L 190.372332 135.065183 
L 190.447007 134.995522 
L 190.475333 135.134845 
L 190.480483 135.065183 
L 190.552583 135.100014 
L 190.539708 134.960691 
L 190.588634 135.030352 
L 190.69421 134.995522 
L 190.650434 135.100014 
L 190.69936 135.030352 
L 191.289039 134.960691 
L 191.39719 134.856199 
L 191.332815 135.030352 
L 191.399765 134.92586 
L 191.585167 134.821368 
L 191.587742 134.786538 
L 191.641817 134.960691 
L 191.688168 134.856199 
L 191.690743 134.92586 
L 191.755118 134.716876 
L 191.798894 134.856199 
L 191.863269 134.751707 
L 191.889019 134.89103 
L 191.912195 134.786538 
L 192.00232 134.856199 
L 191.93537 134.751707 
L 192.02292 134.786538 
L 192.066696 134.856199 
L 192.120771 134.682046 
L 192.125921 134.716876 
L 192.151671 134.612384 
L 192.182572 134.821368 
L 192.236647 134.682046 
L 192.241797 134.751707 
L 192.280423 134.612384 
L 192.347373 134.716876 
L 192.458099 134.577554 
L 192.460674 134.647215 
L 192.563675 134.682046 
L 192.532775 134.577554 
L 192.568825 134.647215 
L 192.640926 134.577554 
L 192.671826 134.716876 
L 192.676976 134.682046 
L 192.718176 134.612384 
L 192.821177 134.473062 
L 192.731051 134.682046 
L 192.831477 134.542723 
L 192.988553 134.438231 
L 193.009154 134.333739 
L 193.063229 134.507892 
L 193.101854 134.4034 
L 193.18168 134.473062 
L 193.13533 134.368569 
L 193.210005 134.368569 
L 193.652909 134.264077 
L 193.706984 134.159585 
L 193.660634 134.298908 
L 193.76621 134.229247 
L 194.430565 134.264077 
L 194.43314 134.368569 
L 194.502666 134.124755 
L 194.538716 134.194416 
L 194.726693 134.124755 
L 194.798793 134.020263 
L 194.755018 134.194416 
L 194.837419 134.055093 
L 194.891494 134.159585 
L 194.930119 134.020263 
L 194.948144 134.055093 
L 195.009945 134.020263 
L 194.958445 134.159585 
L 195.05372 134.124755 
L 195.056295 134.159585 
L 195.115521 134.020263 
L 195.161871 134.089924 
L 195.560999 134.020263 
L 195.671725 133.915771 
L 195.6743 133.950601 
L 197.134337 133.846109 
L 197.157513 133.915771 
L 197.245063 133.776448 
L 197.265663 133.846109 
L 197.312014 133.671956 
L 197.353214 133.706786 
L 197.530891 133.602294 
L 197.533466 133.567464 
L 197.597841 133.741617 
L 197.633891 133.637125 
L 197.690542 133.567464 
L 197.744617 133.741617 
L 197.783243 133.602294 
L 197.857918 133.637125 
L 198.123146 133.567464 
L 198.220996 133.497802 
L 198.208121 133.637125 
L 198.233871 133.532633 
L 198.594374 133.637125 
L 198.635575 133.462972 
L 198.712825 133.776448 
L 198.820976 133.706786 
L 198.723125 133.846109 
L 198.823551 133.776448 
L 198.962602 133.706786 
L 199.050153 133.637125 
L 198.967752 133.741617 
L 199.073328 133.706786 
L 199.075903 133.741617 
L 199.150579 133.567464 
L 199.176329 133.637125 
L 199.287055 133.497802 
L 199.202079 133.671956 
L 199.29478 133.532633 
L 199.30508 133.602294 
L 199.387481 133.428141 
L 199.402931 133.497802 
L 199.420956 133.462972 
L 199.467307 133.602294 
L 199.511082 133.497802 
L 199.560007 133.602294 
L 199.601208 133.462972 
L 199.621808 133.532633 
L 199.840685 133.497802 
L 199.953986 133.39331 
L 200.335089 133.428141 
L 200.430364 133.532633 
L 200.368564 133.39331 
L 200.445815 133.497802 
L 200.497315 133.39331 
L 200.456115 133.532633 
L 200.55654 133.497802 
L 200.595166 133.602294 
L 200.564266 133.462972 
L 200.667266 133.497802 
L 200.690442 133.428141 
L 200.777992 133.323649 
L 200.705892 133.497802 
L 200.801167 133.39331 
L 200.955669 133.462972 
L 200.968544 133.428141 
L 201.066395 133.532633 
L 201.153945 133.39331 
L 201.174546 133.532633 
L 201.177121 133.567464 
L 201.202871 133.39331 
L 201.277546 133.428141 
L 201.352222 133.323649 
L 201.383122 133.462972 
L 201.388272 133.428141 
L 201.594274 133.428141 
L 201.702425 133.253988 
L 201.705 133.323649 
L 203.188212 133.39331 
L 203.293788 133.497802 
L 203.198512 133.35848 
L 203.298938 133.428141 
L 203.497215 133.428141 
L 203.559015 133.288818 
L 203.50494 133.462972 
L 203.607941 133.39331 
L 204.153845 133.462972 
L 204.20792 133.532633 
L 204.164145 133.428141 
L 204.264571 133.462972 
L 204.707475 133.532633 
L 204.7152 133.602294 
L 204.774425 133.497802 
L 204.815625 133.567464 
L 204.8182 133.497802 
L 204.859401 133.637125 
L 204.923776 133.637125 
L 205.317755 133.602294 
L 205.35123 133.497802 
L 205.425905 133.567464 
L 205.482556 133.706786 
L 205.531481 133.532633 
L 205.536631 133.637125 
L 205.541781 133.671956 
L 205.652507 133.532633 
L 205.734908 133.637125 
L 205.688558 133.497802 
L 205.768383 133.602294 
L 205.969235 133.567464 
L 206.051636 133.428141 
L 206.079961 133.497802 
L 206.855042 133.39331 
L 206.857617 133.35848 
L 206.880792 133.497802 
L 206.960618 133.428141 
L 206.983793 133.39331 
L 207.079069 133.532633 
L 207.318546 133.637125 
L 207.395797 133.706786 
L 207.339146 133.602294 
L 207.429272 133.671956 
L 207.480772 133.567464 
L 207.498797 133.706786 
L 207.542573 133.602294 
L 207.599223 133.706786 
L 207.619823 133.567464 
L 207.653299 133.637125 
L 207.699649 133.567464 
L 207.715099 133.741617 
L 207.758875 133.671956 
L 207.78205 133.776448 
L 207.872176 133.706786 
L 207.995777 133.811279 
L 208.016377 133.706786 
L 208.111653 133.88094 
L 208.139978 133.811279 
L 208.147703 133.950601 
L 208.222378 133.88094 
L 208.224953 133.950601 
L 208.309929 133.811279 
L 208.333104 133.915771 
L 208.42838 133.776448 
L 208.44383 133.811279 
L 208.536531 133.915771 
L 208.46958 133.741617 
L 208.554556 133.811279 
L 208.670432 133.88094 
L 208.739958 133.706786 
L 208.783733 133.811279 
L 209.314187 133.741617 
L 209.417188 133.637125 
L 209.324487 133.776448 
L 209.424913 133.671956 
L 209.543364 133.776448 
L 210.655773 133.706786 
L 210.658348 133.637125 
L 210.712424 133.776448 
L 210.763924 133.706786 
L 210.851475 133.811279 
L 210.771649 133.671956 
L 210.8798 133.776448 
L 210.987951 133.706786 
L 210.9004 133.846109 
L 210.990526 133.776448 
L 211.734707 133.88094 
L 211.822258 133.950601 
L 211.786208 133.811279 
L 211.845433 133.88094 
L 212.319237 133.950601 
L 212.337262 134.055093 
L 212.373313 133.915771 
L 212.427388 133.915771 
L 214.186127 134.020263 
L 214.224753 134.055093 
L 214.191277 133.950601 
L 214.291703 133.950601 
L 214.423029 134.020263 
L 214.425604 134.089924 
L 214.48483 133.915771 
L 214.53118 134.020263 
L 214.629031 133.915771 
L 214.55693 134.055093 
L 214.641906 133.950601 
L 214.750057 134.055093 
L 214.755207 134.020263 
L 214.860783 133.950601 
L 214.801557 134.055093 
L 214.865933 133.985432 
L 214.925158 134.020263 
L 214.891683 133.915771 
L 214.974084 133.950601 
L 215.854741 134.055093 
L 215.857316 134.089924 
L 215.890791 133.950601 
L 215.960317 134.020263 
L 216.040143 134.089924 
L 216.076193 133.950601 
L 216.240994 134.020263 
L 216.31567 133.950601 
L 216.35172 134.089924 
L 216.462446 133.950601 
L 216.465021 133.985432 
L 217.010926 133.950601 
L 217.059851 133.811279 
L 217.093326 133.985432 
L 217.121651 133.950601 
L 217.232377 133.846109 
L 217.237527 133.88094 
L 217.502755 133.950601 
L 217.50533 134.020263 
L 217.58773 133.811279 
L 217.610906 133.915771 
L 217.685581 133.811279 
L 217.621206 133.950601 
L 217.724206 133.88094 
L 218.159385 133.985432 
L 218.164535 134.055093 
L 218.18256 133.915771 
L 218.270111 134.020263 
L 218.321611 133.88094 
L 218.357662 134.055093 
L 218.380837 133.950601 
L 218.409162 133.915771 
L 218.494138 134.055093 
L 218.607439 133.915771 
L 218.72589 134.089924 
L 218.728465 134.055093 
L 219.294969 134.124755 
L 219.343895 134.194416 
L 219.31557 134.055093 
L 219.40312 134.124755 
L 219.410845 134.159585 
L 219.518996 134.055093 
L 219.601397 134.124755 
L 219.531871 134.020263 
L 219.627147 134.020263 
L 219.884649 133.985432 
L 219.979925 133.88094 
L 219.995375 133.915771 
L 220.512954 133.811279 
L 220.59278 133.741617 
L 220.528404 133.915771 
L 220.626255 133.776448 
L 220.682906 133.846109 
L 220.788482 133.915771 
L 220.688056 133.811279 
L 220.793632 133.846109 
L 220.863157 133.950601 
L 220.798782 133.811279 
L 220.906933 133.88094 
L 221.23396 133.811279 
L 221.264861 133.741617 
L 221.251985 133.846109 
L 221.344686 133.776448 
L 221.414212 133.88094 
L 221.357561 133.741617 
L 221.457987 133.811279 
L 221.517213 133.88094 
L 221.571288 133.706786 
L 221.651114 133.846109 
L 221.576438 133.671956 
L 221.682014 133.741617 
L 221.78244 133.846109 
L 221.86484 133.950601 
L 221.83909 133.811279 
L 221.898316 133.915771 
L 222.230493 133.88094 
L 222.248519 133.950601 
L 222.341219 133.776448 
L 222.410745 133.846109 
L 222.421045 133.741617 
L 222.44937 133.811279 
L 222.518896 133.706786 
L 222.560096 133.741617 
L 222.655372 133.846109 
L 222.575546 133.706786 
L 222.670822 133.741617 
L 222.730048 133.776448 
L 222.786698 133.671956 
L 223.0854 133.602294 
L 223.180676 133.532633 
L 223.106001 133.706786 
L 223.196126 133.567464 
L 223.270802 133.637125 
L 223.273377 133.706786 
L 223.304277 133.567464 
L 223.378953 133.602294 
L 223.425303 133.637125 
L 223.515429 133.776448 
L 223.440753 133.602294 
L 223.536029 133.706786 
L 223.621005 133.637125 
L 223.577229 133.776448 
L 223.64933 133.671956 
L 223.662205 133.602294 
L 223.765206 133.741617 
L 223.847607 133.671956 
L 223.942882 133.567464 
L 223.878507 133.706786 
L 223.958333 133.671956 
L 224.069059 133.567464 
L 223.981508 133.706786 
L 224.071634 133.602294 
L 224.099959 133.567464 
L 224.190085 133.706786 
L 224.303385 133.567464 
L 224.375486 133.741617 
L 224.416686 133.602294 
L 225.305069 133.706786 
L 225.387469 133.811279 
L 225.320519 133.671956 
L 225.415795 133.741617 
L 225.41837 133.637125 
L 225.46987 133.776448 
L 225.52652 133.741617 
L 225.696472 133.811279 
L 225.699047 133.88094 
L 225.747972 133.671956 
L 225.804623 133.776448 
L 225.863848 133.671956 
L 225.889598 133.811279 
L 225.920499 133.706786 
L 226.02865 133.846109 
L 226.0338 133.776448 
L 226.103325 133.741617 
L 226.077575 133.88094 
L 226.141951 133.811279 
L 226.335077 133.846109 
L 226.412328 133.950601 
L 226.445803 133.88094 
L 226.474128 133.950601 
L 226.515329 133.811279 
L 226.556529 133.915771 
L 226.592579 133.811279 
L 226.667255 133.915771 
L 226.783131 133.846109 
L 226.844931 133.915771 
L 226.832056 133.776448 
L 226.891282 133.846109 
L 226.981407 133.811279 
L 226.932482 133.950601 
L 226.999433 133.846109 
L 227.063808 133.950601 
L 227.038058 133.776448 
L 227.112734 133.88094 
L 227.215734 133.776448 
L 227.226034 133.846109 
L 227.442336 133.776448 
L 227.483537 133.671956 
L 227.511862 133.846109 
L 227.553062 133.741617 
L 228.021716 133.637125 
L 228.052616 133.741617 
L 228.132442 133.567464 
L 228.145317 133.671956 
L 228.235443 133.497802 
L 228.240593 133.567464 
L 228.271493 133.637125 
L 228.356469 133.428141 
L 228.472345 133.567464 
L 228.54702 133.462972 
L 228.585646 133.532633 
L 228.688646 133.671956 
L 228.598521 133.497802 
L 228.698947 133.567464 
L 228.874048 133.637125 
L 228.876623 133.706786 
L 228.966749 133.567464 
L 228.984774 133.637125 
L 229.103225 133.532633 
L 229.476603 133.637125 
L 229.535828 133.706786 
L 229.492053 133.567464 
L 229.587329 133.637125 
L 229.865431 133.671956 
L 229.868006 133.776448 
L 229.945257 133.602294 
L 229.976157 133.741617 
L 230.452536 133.846109 
L 230.491161 133.915771 
L 230.552962 133.741617 
L 230.558112 133.811279 
L 230.573562 133.776448 
L 230.630212 133.915771 
L 230.666263 133.846109 
L 231.049941 133.776448 
L 231.067966 133.846109 
L 231.163242 133.706786 
L 231.191567 133.88094 
L 231.279118 133.776448 
L 231.479969 133.88094 
L 231.482544 133.915771 
L 231.56752 133.706786 
L 231.58297 133.776448 
L 231.680821 133.671956 
L 231.634471 133.811279 
L 231.696271 133.741617 
L 231.719446 133.811279 
L 231.760647 133.671956 
L 231.806997 133.776448 
L 231.899698 133.741617 
L 231.835322 133.846109 
L 231.915148 133.776448 
L 232.018149 133.846109 
L 231.946048 133.706786 
L 232.028449 133.811279 
L 232.952881 133.915771 
L 232.970907 133.846109 
L 233.066182 133.950601 
L 233.166608 133.846109 
L 233.246434 133.811279 
L 233.210384 133.915771 
L 233.277334 133.846109 
L 233.359735 133.950601 
L 233.390635 133.88094 
L 233.483336 133.846109 
L 233.421535 133.950601 
L 233.498786 133.915771 
L 233.640412 133.811279 
L 233.658437 133.776448 
L 233.673887 133.915771 
L 233.748563 133.846109 
L 233.815514 133.950601 
L 233.823239 133.846109 
L 233.928814 133.985432 
L 234.04469 133.88094 
L 234.150266 133.950601 
L 234.052415 133.846109 
L 234.157991 133.915771 
L 234.242967 133.741617 
L 234.163141 133.950601 
L 234.273867 133.846109 
L 234.345968 133.811279 
L 234.348543 133.706786 
L 234.374293 133.846109 
L 234.456694 133.811279 
L 234.564845 133.741617 
L 234.469569 133.846109 
L 234.569995 133.776448 
L 234.647245 133.706786 
L 234.680721 133.846109 
L 234.757971 133.88094 
L 234.794022 133.776448 
L 234.881572 133.88094 
L 234.809472 133.741617 
L 234.907323 133.846109 
L 234.987148 133.811279 
L 234.974273 133.950601 
L 235.012898 133.846109 
L 235.061824 133.915771 
L 235.092724 133.776448 
L 235.123624 133.88094 
L 235.424902 133.846109 
L 235.427477 133.741617 
L 235.468677 133.950601 
L 235.533053 133.88094 
L 235.932181 133.950601 
L 235.950206 134.020263 
L 235.960506 133.846109 
L 236.042907 133.950601 
L 236.395685 134.055093 
L 236.457485 134.124755 
L 236.421435 133.985432 
L 236.508986 134.089924 
L 236.539886 133.985432 
L 236.596536 134.124755 
L 236.617137 134.089924 
L 236.622287 134.159585 
L 236.712412 133.985432 
L 236.725287 134.055093 
L 236.941589 133.950601 
L 237.02399 133.915771 
L 237.011115 134.020263 
L 237.04974 133.985432 
L 237.116691 134.124755 
L 237.078065 133.950601 
L 237.165616 134.089924 
L 237.183641 133.985432 
L 237.173341 134.124755 
L 237.276342 134.020263 
L 237.394793 134.159585 
L 237.492644 134.020263 
L 237.505519 134.124755 
L 237.641995 134.055093 
L 237.688345 133.950601 
L 237.737271 134.124755 
L 237.750146 134.089924 
L 238.012798 134.089924 
L 238.115799 134.229247 
L 238.123524 134.194416 
L 238.26515 134.124755 
L 238.375876 134.055093 
L 238.471152 134.124755 
L 238.381026 134.020263 
L 238.489177 134.089924 
L 238.540677 133.985432 
L 238.563853 134.124755 
L 238.597328 134.089924 
L 238.687454 134.159585 
L 238.615353 134.020263 
L 238.708054 134.089924 
L 238.731229 134.055093 
L 238.821355 134.159585 
L 238.857405 134.089924 
L 238.914055 134.264077 
L 238.929506 134.229247 
L 239.024781 134.333739 
L 239.042806 134.298908 
L 239.215333 134.229247 
L 239.284858 134.089924 
L 239.243658 134.298908 
L 239.326059 134.159585 
L 239.42391 134.194416 
L 239.336359 134.124755 
L 239.436785 134.159585 
L 239.50116 134.055093 
L 239.447085 134.194416 
L 239.550086 134.124755 
L 240.804121 134.159585 
L 240.827296 134.264077 
L 240.835021 134.124755 
L 240.914847 134.194416 
L 241.004973 134.089924 
L 241.028148 134.229247 
L 241.118274 134.124755 
L 241.205824 134.089924 
L 241.146599 134.229247 
L 241.228999 134.124755 
L 241.25475 134.194416 
L 241.319125 134.055093 
L 241.33715 134.089924 
L 241.344875 134.020263 
L 241.435001 134.159585 
L 241.447876 134.089924 
L 242.799762 133.985432 
L 242.848688 133.950601 
L 242.884738 134.089924 
L 242.907913 134.020263 
L 243.211766 134.124755 
L 243.240091 134.020263 
L 243.325067 134.159585 
L 243.381717 134.055093 
L 243.379142 134.229247 
L 243.433218 134.124755 
L 243.438368 134.089924 
L 243.543943 134.194416 
L 243.574844 134.089924 
L 243.657244 134.159585 
L 243.667544 134.229247 
L 243.682995 134.089924 
L 243.765395 134.124755 
L 243.775695 134.194416 
L 243.873546 134.055093 
L 243.981697 134.229247 
L 243.986847 134.159585 
L 244.200574 134.194416 
L 244.28555 134.298908 
L 244.239199 134.159585 
L 244.3113 134.264077 
L 244.532752 134.194416 
L 244.545627 134.124755 
L 244.571377 134.298908 
L 244.643477 134.159585 
L 245.815112 134.089924 
L 245.817687 134.020263 
L 245.843437 134.229247 
L 245.923263 134.159585 
L 245.972188 134.229247 
L 246.018539 134.089924 
L 246.036564 134.194416 
L 246.054589 134.089924 
L 246.149865 134.159585 
L 246.306941 134.229247 
L 246.309516 134.298908 
L 246.379042 134.124755 
L 246.415092 134.159585 
L 246.518093 134.229247 
L 246.422817 134.124755 
L 246.525818 134.159585 
L 246.685469 134.264077 
L 246.78332 134.333739 
L 246.713794 134.194416 
L 246.796195 134.298908 
L 246.896621 134.159585 
L 246.912071 134.229247 
L 247.009922 134.159585 
L 247.012497 134.089924 
L 247.033097 134.229247 
L 247.120648 134.124755 
L 247.476001 134.055093 
L 247.486301 133.985432 
L 247.558401 134.159585 
L 247.584152 134.089924 
L 247.828779 134.089924 
L 247.882854 133.950601 
L 247.939505 134.055093 
L 247.94208 134.089924 
L 247.980705 133.915771 
L 248.042505 133.985432 
L 248.073406 133.88094 
L 248.130056 134.089924 
L 248.150656 133.985432 
L 248.194432 134.055093 
L 248.171256 133.915771 
L 248.258807 133.950601 
L 248.359233 133.915771 
L 248.359233 133.915771 
" clip-path="url(#p50f2bfdd35)" style="fill: none; stroke: #000000; stroke-opacity: 0.5; stroke-width: 1.5; stroke-linecap: square"/>
   </g>
   <g id="patch_3">
    <path d="M 35.304688 173.52 
L 35.304688 7.2 
" style="fill: none; stroke: #000000; stroke-width: 0.8; stroke-linejoin: miter; stroke-linecap: square"/>
   </g>
   <g id="patch_4">
    <path d="M 35.304688 173.52 
L 258.504687 173.52 
" style="fill: none; stroke: #000000; stroke-width: 0.8; stroke-linejoin: miter; stroke-linecap: square"/>
   </g>
  </g>
 </g>
 <defs>
  <clipPath id="p50f2bfdd35">
   <rect x="35.304688" y="7.2" width="223.2" height="166.32"/>
  </clipPath>
 </defs>
</svg>
