<?xml version="1.0" encoding="utf-8" standalone="no"?>
<!DOCTYPE svg PUBLIC "-//W3C//DTD SVG 1.1//EN"
  "http://www.w3.org/Graphics/SVG/1.1/DTD/svg11.dtd">
<svg xmlns:xlink="http://www.w3.org/1999/xlink" width="265.704687pt" height="201.048526pt" viewBox="0 0 265.704687 201.048526" xmlns="http://www.w3.org/2000/svg" version="1.1">
 <metadata>
  <rdf:RDF xmlns:dc="http://purl.org/dc/elements/1.1/" xmlns:cc="http://creativecommons.org/ns#" xmlns:rdf="http://www.w3.org/1999/02/22-rdf-syntax-ns#">
   <cc:Work>
    <dc:type rdf:resource="http://purl.org/dc/dcmitype/StillImage"/>
    <dc:date>2025-12-19T12:23:42.794752</dc:date>
    <dc:format>image/svg+xml</dc:format>
    <dc:creator>
     <cc:Agent>
      <dc:title>Matplotlib v3.10.7, https://matplotlib.org/</dc:title>
     </cc:Agent>
    </dc:creator>
   </cc:Work>
  </rdf:RDF>
 </metadata>
 <defs>
  <style type="text/css">*{stroke-linejoin: round; stroke-linecap: butt}</style>
 </defs>
 <g id="figure_1">
  <g id="patch_1">
   <path d="M 0 201.048526 
L 265.704687 201.048526 
L 265.704687 0 
L 0 0 
z
" style="fill: #ffffff"/>
  </g>
  <g id="axes_1">
   <g id="patch_2">
    <path d="M 35.304688 177.170401 
L 258.504687 177.170401 
L 258.504687 10.850401 
L 35.304688 10.850401 
z
" style="fill: #ffffff"/>
   </g>
   <g id="matplotlib.axis_1">
    <g id="xtick_1">
     <g id="line2d_1">
      <defs>
       <path id="mbdddefb23a" d="M 0 0 
L 0 3.5 
" style="stroke: #000000; stroke-width: 0.8"/>
      </defs>
      <g>
       <use xlink:href="#mbdddefb23a" x="76.350396" y="177.170401" style="stroke: #000000; stroke-width: 0.8"/>
      </g>
     </g>
     <g id="text_1">
      <!-- 1 -->
      <g transform="translate(73.169146 191.768838) scale(0.1 -0.1)">
       <defs>
        <path id="DejaVuSans-31" d="M 794 531 
L 1825 531 
L 1825 4091 
L 703 3866 
L 703 4441 
L 1819 4666 
L 2450 4666 
L 2450 531 
L 3481 531 
L 3481 0 
L 794 0 
L 794 531 
z
" transform="scale(0.015625)"/>
       </defs>
       <use xlink:href="#DejaVuSans-31"/>
      </g>
     </g>
    </g>
    <g id="xtick_2">
     <g id="line2d_2">
      <g>
       <use xlink:href="#mbdddefb23a" x="127.850819" y="177.170401" style="stroke: #000000; stroke-width: 0.8"/>
      </g>
     </g>
     <g id="text_2">
      <!-- 2 -->
      <g transform="translate(124.669569 191.768838) scale(0.1 -0.1)">
       <defs>
        <path id="DejaVuSans-32" d="M 1228 531 
L 3431 531 
L 3431 0 
L 469 0 
L 469 531 
Q 828 903 1448 1529 
Q 2069 2156 2228 2338 
Q 2531 2678 2651 2914 
Q 2772 3150 2772 3378 
Q 2772 3750 2511 3984 
Q 2250 4219 1831 4219 
Q 1534 4219 1204 4116 
Q 875 4013 500 3803 
L 500 4441 
Q 881 4594 1212 4672 
Q 1544 4750 1819 4750 
Q 2544 4750 2975 4387 
Q 3406 4025 3406 3419 
Q 3406 3131 3298 2873 
Q 3191 2616 2906 2266 
Q 2828 2175 2409 1742 
Q 1991 1309 1228 531 
z
" transform="scale(0.015625)"/>
       </defs>
       <use xlink:href="#DejaVuSans-32"/>
      </g>
     </g>
    </g>
    <g id="xtick_3">
     <g id="line2d_3">
      <g>
       <use xlink:href="#mbdddefb23a" x="179.351241" y="177.170401" style="stroke: #000000; stroke-width: 0.8"/>
      </g>
     </g>
     <g id="text_3">
      <!-- 3 -->
      <g transform="translate(176.169991 191.768838) scale(0.1 -0.1)">
       <defs>
        <path id="DejaVuSans-33" d="M 2597 2516 
Q 3050 2419 3304 2112 
Q 3559 1806 3559 1356 
Q 3559 666 3084 287 
Q 2609 -91 1734 -91 
Q 1441 -91 1130 -33 
Q 819 25 488 141 
L 488 750 
Q 750 597 1062 519 
Q 1375 441 1716 441 
Q 2309 441 2620 675 
Q 2931 909 2931 1356 
Q 2931 1769 2642 2001 
Q 2353 2234 1838 2234 
L 1294 2234 
L 1294 2753 
L 1863 2753 
Q 2328 2753 2575 2939 
Q 2822 3125 2822 3475 
Q 2822 3834 2567 4026 
Q 2313 4219 1838 4219 
Q 1578 4219 1281 4162 
Q 984 4106 628 3988 
L 628 4550 
Q 988 4650 1302 4700 
Q 1616 4750 1894 4750 
Q 2613 4750 3031 4423 
Q 3450 4097 3450 3541 
Q 3450 3153 3228 2886 
Q 3006 2619 2597 2516 
z
" transform="scale(0.015625)"/>
       </defs>
       <use xlink:href="#DejaVuSans-33"/>
      </g>
     </g>
    </g>
    <g id="xtick_4">
     <g id="line2d_4">
      <g>
       <use xlink:href="#mbdddefb23a" x="230.851664" y="177.170401" style="stroke: #000000; stroke-width: 0.8"/>
      </g>
     </g>
     <g id="text_4">
      <!-- 4 -->
      <g transform="translate(227.670414 191.768838) scale(0.1 -0.1)">
       <defs>
        <path id="DejaVuSans-34" d="M 2419 4116 
L 825 1625 
L 2419 1625 
L 2419 4116 
z
M 2253 4666 
L 3047 4666 
L 3047 1625 
L 3713 1625 
L 3713 1100 
L 3047 1100 
L 3047 0 
L 2419 0 
L 2419 1100 
L 313 1100 
L 313 1709 
L 2253 4666 
z
" transform="scale(0.015625)"/>
       </defs>
       <use xlink:href="#DejaVuSans-34"/>
      </g>
     </g>
    </g>
   </g>
   <g id="matplotlib.axis_2">
    <g id="ytick_1">
     <g id="line2d_5">
      <defs>
       <path id="mfd1bd1cfdc" d="M 0 0 
L -3.5 0 
" style="stroke: #000000; stroke-width: 0.8"/>
      </defs>
      <g>
       <use xlink:href="#mfd1bd1cfdc" x="35.304688" y="158.769353" style="stroke: #000000; stroke-width: 0.8"/>
      </g>
     </g>
     <g id="text_5">
      <!-- −80 -->
      <g transform="translate(7.2 162.568571) scale(0.1 -0.1)">
       <defs>
        <path id="DejaVuSans-2212" d="M 678 2272 
L 4684 2272 
L 4684 1741 
L 678 1741 
L 678 2272 
z
" transform="scale(0.015625)"/>
        <path id="DejaVuSans-38" d="M 2034 2216 
Q 1584 2216 1326 1975 
Q 1069 1734 1069 1313 
Q 1069 891 1326 650 
Q 1584 409 2034 409 
Q 2484 409 2743 651 
Q 3003 894 3003 1313 
Q 3003 1734 2745 1975 
Q 2488 2216 2034 2216 
z
M 1403 2484 
Q 997 2584 770 2862 
Q 544 3141 544 3541 
Q 544 4100 942 4425 
Q 1341 4750 2034 4750 
Q 2731 4750 3128 4425 
Q 3525 4100 3525 3541 
Q 3525 3141 3298 2862 
Q 3072 2584 2669 2484 
Q 3125 2378 3379 2068 
Q 3634 1759 3634 1313 
Q 3634 634 3220 271 
Q 2806 -91 2034 -91 
Q 1263 -91 848 271 
Q 434 634 434 1313 
Q 434 1759 690 2068 
Q 947 2378 1403 2484 
z
M 1172 3481 
Q 1172 3119 1398 2916 
Q 1625 2713 2034 2713 
Q 2441 2713 2670 2916 
Q 2900 3119 2900 3481 
Q 2900 3844 2670 4047 
Q 2441 4250 2034 4250 
Q 1625 4250 1398 4047 
Q 1172 3844 1172 3481 
z
" transform="scale(0.015625)"/>
        <path id="DejaVuSans-30" d="M 2034 4250 
Q 1547 4250 1301 3770 
Q 1056 3291 1056 2328 
Q 1056 1369 1301 889 
Q 1547 409 2034 409 
Q 2525 409 2770 889 
Q 3016 1369 3016 2328 
Q 3016 3291 2770 3770 
Q 2525 4250 2034 4250 
z
M 2034 4750 
Q 2819 4750 3233 4129 
Q 3647 3509 3647 2328 
Q 3647 1150 3233 529 
Q 2819 -91 2034 -91 
Q 1250 -91 836 529 
Q 422 1150 422 2328 
Q 422 3509 836 4129 
Q 1250 4750 2034 4750 
z
" transform="scale(0.015625)"/>
       </defs>
       <use xlink:href="#DejaVuSans-2212"/>
       <use xlink:href="#DejaVuSans-38" transform="translate(83.789062 0)"/>
       <use xlink:href="#DejaVuSans-30" transform="translate(147.412109 0)"/>
      </g>
     </g>
    </g>
    <g id="ytick_2">
     <g id="line2d_6">
      <g>
       <use xlink:href="#mfd1bd1cfdc" x="35.304688" y="137.659334" style="stroke: #000000; stroke-width: 0.8"/>
      </g>
     </g>
     <g id="text_6">
      <!-- −60 -->
      <g transform="translate(7.2 141.458552) scale(0.1 -0.1)">
       <defs>
        <path id="DejaVuSans-36" d="M 2113 2584 
Q 1688 2584 1439 2293 
Q 1191 2003 1191 1497 
Q 1191 994 1439 701 
Q 1688 409 2113 409 
Q 2538 409 2786 701 
Q 3034 994 3034 1497 
Q 3034 2003 2786 2293 
Q 2538 2584 2113 2584 
z
M 3366 4563 
L 3366 3988 
Q 3128 4100 2886 4159 
Q 2644 4219 2406 4219 
Q 1781 4219 1451 3797 
Q 1122 3375 1075 2522 
Q 1259 2794 1537 2939 
Q 1816 3084 2150 3084 
Q 2853 3084 3261 2657 
Q 3669 2231 3669 1497 
Q 3669 778 3244 343 
Q 2819 -91 2113 -91 
Q 1303 -91 875 529 
Q 447 1150 447 2328 
Q 447 3434 972 4092 
Q 1497 4750 2381 4750 
Q 2619 4750 2861 4703 
Q 3103 4656 3366 4563 
z
" transform="scale(0.015625)"/>
       </defs>
       <use xlink:href="#DejaVuSans-2212"/>
       <use xlink:href="#DejaVuSans-36" transform="translate(83.789062 0)"/>
       <use xlink:href="#DejaVuSans-30" transform="translate(147.412109 0)"/>
      </g>
     </g>
    </g>
    <g id="ytick_3">
     <g id="line2d_7">
      <g>
       <use xlink:href="#mfd1bd1cfdc" x="35.304688" y="116.549314" style="stroke: #000000; stroke-width: 0.8"/>
      </g>
     </g>
     <g id="text_7">
      <!-- −40 -->
      <g transform="translate(7.2 120.348533) scale(0.1 -0.1)">
       <use xlink:href="#DejaVuSans-2212"/>
       <use xlink:href="#DejaVuSans-34" transform="translate(83.789062 0)"/>
       <use xlink:href="#DejaVuSans-30" transform="translate(147.412109 0)"/>
      </g>
     </g>
    </g>
    <g id="ytick_4">
     <g id="line2d_8">
      <g>
       <use xlink:href="#mfd1bd1cfdc" x="35.304688" y="95.439295" style="stroke: #000000; stroke-width: 0.8"/>
      </g>
     </g>
     <g id="text_8">
      <!-- −20 -->
      <g transform="translate(7.2 99.238514) scale(0.1 -0.1)">
       <use xlink:href="#DejaVuSans-2212"/>
       <use xlink:href="#DejaVuSans-32" transform="translate(83.789062 0)"/>
       <use xlink:href="#DejaVuSans-30" transform="translate(147.412109 0)"/>
      </g>
     </g>
    </g>
    <g id="ytick_5">
     <g id="line2d_9">
      <g>
       <use xlink:href="#mfd1bd1cfdc" x="35.304688" y="74.329276" style="stroke: #000000; stroke-width: 0.8"/>
      </g>
     </g>
     <g id="text_9">
      <!-- 0 -->
      <g transform="translate(21.942187 78.128495) scale(0.1 -0.1)">
       <use xlink:href="#DejaVuSans-30"/>
      </g>
     </g>
    </g>
    <g id="ytick_6">
     <g id="line2d_10">
      <g>
       <use xlink:href="#mfd1bd1cfdc" x="35.304688" y="53.219257" style="stroke: #000000; stroke-width: 0.8"/>
      </g>
     </g>
     <g id="text_10">
      <!-- 20 -->
      <g transform="translate(15.579687 57.018476) scale(0.1 -0.1)">
       <use xlink:href="#DejaVuSans-32"/>
       <use xlink:href="#DejaVuSans-30" transform="translate(63.623047 0)"/>
      </g>
     </g>
    </g>
    <g id="ytick_7">
     <g id="line2d_11">
      <g>
       <use xlink:href="#mfd1bd1cfdc" x="35.304688" y="32.109238" style="stroke: #000000; stroke-width: 0.8"/>
      </g>
     </g>
     <g id="text_11">
      <!-- 40 -->
      <g transform="translate(15.579687 35.908457) scale(0.1 -0.1)">
       <use xlink:href="#DejaVuSans-34"/>
       <use xlink:href="#DejaVuSans-30" transform="translate(63.623047 0)"/>
      </g>
     </g>
    </g>
    <g id="ytick_8">
     <g id="line2d_12">
      <g>
       <use xlink:href="#mfd1bd1cfdc" x="35.304688" y="10.999219" style="stroke: #000000; stroke-width: 0.8"/>
      </g>
     </g>
     <g id="text_12">
      <!-- 60 -->
      <g transform="translate(15.579687 14.798438) scale(0.1 -0.1)">
       <use xlink:href="#DejaVuSans-36"/>
       <use xlink:href="#DejaVuSans-30" transform="translate(63.623047 0)"/>
      </g>
     </g>
    </g>
   </g>
   <g id="line2d_13">
    <path d="M 45.450142 141.457695 
L 45.452717 141.489907 
L 45.535118 141.296639 
L 45.550568 141.32885 
L 45.558293 141.361061 
L 45.669019 141.232216 
L 46.104197 141.296639 
L 46.204623 141.425484 
L 46.217498 141.361061 
L 46.245824 141.425484 
L 46.279299 141.264427 
L 46.317924 141.264427 
L 46.346249 141.361061 
L 46.431225 141.232216 
L 47.07498 141.32885 
L 47.170256 141.361061 
L 47.103306 141.264427 
L 47.183131 141.296639 
L 47.427758 141.393273 
L 47.523034 141.425484 
L 47.443208 141.32885 
L 47.535909 141.361061 
L 47.61316 141.425484 
L 47.646635 141.393273 
L 47.723886 141.522118 
L 47.795986 141.457695 
L 47.819161 141.618752 
L 47.834612 141.522118 
L 47.865512 141.489907 
L 47.950488 141.586541 
L 47.996838 141.554329 
L 48.020013 141.683175 
L 48.056063 141.650963 
L 48.151339 141.715386 
L 48.153914 141.779809 
L 48.256915 141.618752 
L 48.25949 141.683175 
L 48.480942 141.586541 
L 48.589093 141.457695 
L 48.486092 141.618752 
L 48.599393 141.489907 
L 48.697244 141.522118 
L 48.80797 141.650963 
L 48.81312 141.554329 
L 48.916121 141.618752 
L 49.024271 141.683175 
L 48.923846 141.586541 
L 49.026846 141.650963 
L 49.129847 141.522118 
L 49.050022 141.683175 
L 49.142722 141.554329 
L 49.232848 141.650963 
L 49.207098 141.489907 
L 49.253448 141.554329 
L 49.274048 141.522118 
L 49.325549 141.650963 
L 49.359024 141.618752 
L 49.616526 141.715386 
L 49.714377 141.747597 
L 49.647427 141.618752 
L 49.724677 141.715386 
L 49.740127 141.650963 
L 49.781328 141.779809 
L 49.835403 141.715386 
L 50.092905 141.650963 
L 50.113505 141.554329 
L 50.203631 141.618752 
L 50.229381 141.618752 
L 50.340107 141.747597 
L 50.383883 141.683175 
L 50.396758 141.844231 
L 50.448258 141.747597 
L 50.546109 141.908654 
L 50.561559 141.779809 
L 50.600184 141.876443 
L 50.73666 148.254287 
L 51.012188 152.409549 
L 51.025063 152.506183 
L 51.202739 154.181172 
L 51.457666 156.017218 
L 51.460241 155.985007 
L 51.527192 156.468177 
L 51.534917 156.435966 
L 51.555517 156.5326 
L 51.728044 157.305672 
L 51.758944 157.402306 
L 51.91602 157.98211 
L 51.944345 158.046532 
L 52.065371 158.433068 
L 52.067946 158.400857 
L 52.109147 158.497491 
L 52.250773 158.884027 
L 52.299698 158.980661 
L 52.418149 159.173929 
L 52.420724 159.141718 
L 52.436174 159.109506 
L 52.513425 159.302774 
L 52.523725 159.238352 
L 52.644751 159.496042 
L 52.54175 159.20614 
L 52.649901 159.43162 
L 52.727152 159.496042 
L 52.806977 159.592676 
L 52.837878 159.528254 
L 52.912553 159.592676 
L 53.033579 159.882578 
L 53.051604 159.785944 
L 53.14173 159.947001 
L 53.342582 160.043635 
L 53.422407 160.140269 
L 53.386357 159.979212 
L 53.453308 160.075846 
L 53.522833 159.979212 
L 53.556309 160.108058 
L 53.561459 160.075846 
L 53.672185 160.236903 
L 53.67991 160.17248 
L 54.122813 160.108058 
L 54.166589 160.011424 
L 54.225814 160.140269 
L 54.233539 160.108058 
L 54.339115 160.204692 
L 54.251564 160.043635 
L 54.34684 160.17248 
L 54.364865 160.140269 
L 54.429241 160.269114 
L 54.452416 160.236903 
L 54.565717 160.333537 
L 54.679018 160.462382 
L 54.681593 160.365748 
L 54.774294 160.526805 
L 54.787169 160.526805 
L 54.995745 160.462382 
L 55.106471 160.333537 
L 55.109046 160.365748 
L 55.219772 160.430171 
L 55.165697 160.301326 
L 55.222347 160.39796 
L 55.330498 160.301326 
L 55.232647 160.430171 
L 55.335648 160.365748 
L 55.631776 160.430171 
L 55.737352 160.559016 
L 55.745077 160.494594 
L 55.956228 160.39796 
L 56.074679 160.236903 
L 55.969103 160.430171 
L 56.077254 160.269114 
L 56.18798 160.333537 
L 56.275531 160.39796 
L 56.221455 160.301326 
L 56.298706 160.333537 
L 56.314156 160.301326 
L 56.363082 160.462382 
L 56.399132 160.462382 
L 56.502133 160.39796 
L 56.504708 160.333537 
L 56.545908 160.494594 
L 56.612859 160.39796 
L 57.030012 160.365748 
L 57.122713 160.269114 
L 57.140738 160.333537 
L 57.199964 160.430171 
L 57.220564 160.365748 
L 57.318414 160.559016 
L 57.43429 160.462382 
L 57.516691 160.623439 
L 57.547591 160.526805 
L 57.588792 160.462382 
L 57.573342 160.591228 
L 57.658317 160.526805 
L 57.663467 160.623439 
L 57.712393 160.39796 
L 57.766468 160.494594 
L 57.877194 160.591228 
L 57.918394 160.65565 
L 57.959595 160.494594 
L 57.980195 160.559016 
L 57.98277 160.462382 
L 58.01367 160.591228 
L 58.090921 160.526805 
L 58.144996 160.494594 
L 58.211947 160.687862 
L 58.332973 160.559016 
L 58.441124 160.65565 
L 58.340698 160.526805 
L 58.443699 160.623439 
L 58.557 160.526805 
L 58.559575 160.559016 
L 58.755276 160.65565 
L 58.775876 160.720073 
L 58.765576 160.623439 
L 58.866002 160.65565 
L 58.976728 160.816707 
L 58.884027 160.623439 
L 58.981878 160.784496 
L 59.012778 160.687862 
L 59.092604 160.752284 
L 59.342381 160.720073 
L 59.344956 160.623439 
L 59.442807 160.816707 
L 59.450532 160.752284 
L 59.471132 160.816707 
L 59.496882 160.687862 
L 59.561258 160.752284 
L 59.563833 160.720073 
L 59.664259 160.848918 
L 60.081412 160.945552 
L 60.186988 161.009975 
L 60.112312 160.88113 
L 60.192138 160.945552 
L 60.552641 160.848918 
L 60.668517 160.687862 
L 60.565516 160.913341 
L 60.673667 160.720073 
L 60.725167 160.623439 
L 60.789543 160.591228 
L 60.817868 160.752284 
L 60.833318 160.65565 
L 60.882244 160.720073 
L 60.905419 159.721522 
L 61.132021 152.345126 
L 61.134596 152.377337 
L 61.183521 151.604265 
L 61.186096 151.636477 
L 61.348323 149.671585 
L 61.358623 149.574951 
L 61.64445 147.384581 
L 61.667625 147.287947 
L 61.868477 146.128339 
L 61.881352 146.16055 
L 61.940577 145.741803 
L 61.950878 145.774014 
L 62.115679 145.097576 
L 62.118254 145.129787 
L 62.20323 144.839885 
L 62.20838 144.872097 
L 62.352581 144.453349 
L 62.375756 144.356715 
L 62.380906 144.421138 
L 62.504507 144.131236 
L 62.556007 144.034602 
L 62.687334 143.7447 
L 62.707934 143.776911 
L 62.762009 143.615855 
L 62.787759 143.615855 
L 62.872735 143.519221 
L 62.877885 143.551432 
L 62.996336 143.325953 
L 62.998911 143.390375 
L 63.089037 143.132685 
L 63.101912 143.197107 
L 63.168863 143.068262 
L 63.217788 143.132685 
L 63.390314 143.036051 
L 63.49589 142.971628 
L 63.400614 143.100473 
L 63.503615 143.003839 
L 63.683867 142.907205 
L 63.781718 142.810571 
L 63.722492 142.939417 
L 63.794593 142.907205 
L 63.843518 142.810571 
L 63.848668 142.907205 
L 63.959394 142.746149 
L 64.010894 142.713937 
L 64.07527 142.842783 
L 64.08042 142.874994 
L 64.191146 142.681726 
L 64.273547 142.842783 
L 64.304447 142.77836 
L 64.407448 142.649515 
L 64.335347 142.842783 
L 64.417748 142.746149 
L 64.513024 142.649515 
L 64.518174 142.681726 
L 64.63405 142.520669 
L 64.657225 142.617303 
L 64.713875 142.456247 
L 64.744775 142.520669 
L 64.801426 142.424035 
L 64.907002 142.29519 
L 64.914727 142.327401 
L 64.984252 142.424035 
L 65.022878 142.29519 
L 65.025453 142.359613 
L 65.058928 142.424035 
L 65.100128 142.29519 
L 65.136179 142.359613 
L 65.151629 142.262979 
L 65.228879 142.391824 
L 65.246905 142.29519 
L 65.29583 142.391824 
L 65.33188 142.262979 
L 65.35763 142.29519 
L 65.465781 142.391824 
L 65.406556 142.262979 
L 65.468356 142.359613 
L 65.581657 142.230767 
L 65.635733 142.29519 
L 65.612558 142.198556 
L 65.692383 142.230767 
L 65.888085 142.166345 
L 65.960185 142.069711 
L 65.90611 142.262979 
L 65.996236 142.166345 
L 65.998811 142.198556 
L 66.027136 142.069711 
L 66.101812 142.101922 
L 66.457165 142.005288 
L 66.56789 141.940865 
L 66.47519 142.069711 
L 66.570465 141.973077 
L 66.619391 141.908654 
L 66.691491 142.134133 
L 66.732692 142.005288 
L 66.758442 142.166345 
L 66.802217 142.101922 
L 66.905218 142.134133 
L 66.864018 142.037499 
L 66.912943 142.101922 
L 67.170445 142.198556 
L 67.278596 142.230767 
L 67.227096 142.101922 
L 67.281171 142.198556 
L 67.420222 142.101922 
L 67.427947 142.069711 
L 67.507773 142.230767 
L 67.525798 142.166345 
L 67.636524 142.262979 
L 67.603049 142.134133 
L 67.641674 142.230767 
L 68.105178 142.327401 
L 68.179854 142.391824 
L 68.161829 142.262979 
L 68.215904 142.327401 
L 68.872534 142.424035 
L 68.875109 142.456247 
L 68.918885 142.262979 
L 68.975535 142.327401 
L 69.230462 142.391824 
L 69.310288 142.327401 
L 69.343763 142.488458 
L 69.454489 142.391824 
L 69.392689 142.520669 
L 69.459639 142.424035 
L 69.480239 142.488458 
L 69.490539 142.359613 
L 69.56779 142.391824 
L 69.647616 142.29519 
L 69.57809 142.424035 
L 69.681091 142.327401 
L 69.750617 142.359613 
L 69.760917 142.230767 
L 69.791817 142.327401 
L 69.902543 142.262979 
L 69.907693 142.29519 
L 70.015844 142.166345 
L 70.123995 142.327401 
L 70.13172 142.29519 
L 70.239871 142.166345 
L 70.14202 142.327401 
L 70.245021 142.230767 
L 70.250171 142.29519 
L 70.288796 142.166345 
L 70.348021 142.166345 
L 70.448447 142.069711 
L 70.355747 142.198556 
L 70.461322 142.101922 
L 70.546298 142.037499 
L 70.577198 142.166345 
L 70.584923 142.037499 
L 70.672474 142.230767 
L 70.687924 142.101922 
L 70.7317 142.198556 
L 70.7729 142.069711 
L 70.79865 142.101922 
L 70.924826 142.134133 
L 70.999502 142.101922 
L 71.038127 142.230767 
L 71.079327 142.134133 
L 71.138553 142.29519 
L 71.148853 142.230767 
L 71.40893 142.198556 
L 71.411505 142.069711 
L 71.447555 142.262979 
L 71.517081 142.198556 
L 71.573732 142.134133 
L 71.630382 142.29519 
L 71.746258 142.166345 
L 71.787458 142.134133 
L 71.841534 142.359613 
L 71.844109 142.29519 
L 71.954835 142.391824 
L 71.856984 142.262979 
L 71.95741 142.359613 
L 71.98831 142.327401 
L 72.032085 142.456247 
L 72.065561 142.359613 
L 72.096461 142.456247 
L 72.181437 142.424035 
L 72.402888 142.359613 
L 72.482714 142.262979 
L 72.446664 142.424035 
L 72.513614 142.359613 
L 72.56769 142.262979 
L 72.590865 142.391824 
L 72.62434 142.29519 
L 72.714466 142.391824 
L 72.735066 142.29519 
L 72.928193 142.359613 
L 72.984843 142.424035 
L 73.018318 142.29519 
L 73.036344 142.29519 
L 73.064669 142.359613 
L 73.131619 142.198556 
L 73.141919 142.262979 
L 73.144494 142.230767 
L 73.180545 142.424035 
L 73.24492 142.359613 
L 73.525598 142.262979 
L 73.654349 141.876443 
L 73.543623 142.29519 
L 73.664649 141.908654 
L 73.79855 141.876443 
L 73.801125 141.779809 
L 73.852625 141.940865 
L 73.909276 141.844231 
L 74.030302 141.940865 
L 74.032877 142.005288 
L 74.130728 141.747597 
L 74.135878 141.844231 
L 74.148753 141.747597 
L 74.223428 141.908654 
L 74.244028 141.81202 
L 74.362479 142.037499 
L 74.37278 141.940865 
L 74.38308 142.069711 
L 74.47063 142.005288 
L 74.568481 142.166345 
L 74.583931 142.134133 
L 74.619982 142.069711 
L 74.650882 142.166345 
L 74.692082 142.166345 
L 74.923834 142.166345 
L 75.00881 142.005288 
L 75.03456 142.069711 
L 75.263737 142.005288 
L 75.322962 141.940865 
L 75.268887 142.069711 
L 75.371888 142.005288 
L 75.446563 142.069711 
L 75.449138 141.940865 
L 75.485189 142.037499 
L 76.010493 142.134133 
L 76.090319 142.198556 
L 76.031093 142.101922 
L 76.121219 142.166345 
L 76.188169 142.101922 
L 76.131519 142.230767 
L 76.231945 142.166345 
L 76.350396 142.198556 
L 76.486872 151.733111 
L 76.777849 158.529702 
L 76.785574 158.594125 
L 77.037926 162.137372 
L 77.393279 165.22966 
L 77.401004 165.197448 
L 77.46538 165.71283 
L 77.467955 165.616196 
L 77.596706 166.357056 
L 77.604431 166.324845 
L 77.666232 166.67917 
L 77.679107 166.646958 
L 77.810433 167.16234 
L 77.825883 167.258974 
L 77.959784 167.742144 
L 77.831033 167.226762 
L 77.970084 167.677721 
L 77.990684 167.774355 
L 78.10656 168.096468 
L 78.11171 168.032046 
L 78.240461 168.257525 
L 78.250761 168.225314 
L 78.309987 168.450793 
L 78.335737 168.450793 
L 78.441313 168.547427 
L 78.570064 168.805118 
L 78.580364 168.708484 
L 78.64474 168.933963 
L 78.667915 168.933963 
L 78.673065 168.901752 
L 78.794091 169.127231 
L 78.897092 169.062808 
L 78.814691 169.191654 
L 78.904817 169.127231 
L 79.007818 169.159442 
L 78.909967 169.062808 
L 79.015543 169.127231 
L 79.023268 169.09502 
L 79.072193 169.256076 
L 79.118543 169.191654 
L 79.170044 169.288288 
L 79.146869 169.159442 
L 79.231844 169.223865 
L 79.24987 169.127231 
L 79.314245 169.320499 
L 79.34257 169.223865 
L 79.656723 169.320499 
L 79.770024 169.417133 
L 79.661873 169.288288 
L 79.772599 169.384922 
L 79.878175 169.481556 
L 79.9374 169.545978 
L 79.970875 169.384922 
L 79.986326 169.449344 
L 80.367429 169.513767 
L 80.444679 169.610401 
L 80.47043 169.417133 
L 80.478155 169.545978 
L 80.588881 169.384922 
L 80.596606 169.449344 
L 80.699606 169.545978 
L 80.604331 169.417133 
L 80.712482 169.513767 
L 80.792307 169.417133 
L 80.720207 169.545978 
L 80.820632 169.481556 
L 80.877283 169.545978 
L 80.926208 169.384922 
L 80.931358 169.481556 
L 80.998309 169.384922 
L 81.013759 169.513767 
L 81.042084 169.449344 
L 81.11161 169.545978 
L 81.13221 169.384922 
L 81.150235 169.513767 
L 81.263536 169.35271 
L 81.379412 169.545978 
L 81.495288 169.417133 
L 81.70129 169.35271 
L 81.812016 169.256076 
L 81.750215 169.449344 
L 81.814591 169.288288 
L 82.028317 169.223865 
L 82.118443 169.09502 
L 82.141618 169.159442 
L 82.172519 169.062808 
L 82.190544 169.030597 
L 82.272944 169.159442 
L 82.275519 169.127231 
L 82.278094 169.223865 
L 82.370795 168.933963 
L 82.38367 169.030597 
L 82.476371 168.966174 
L 82.484096 168.998386 
L 82.592247 168.805118 
L 82.697823 168.805118 
L 82.787949 168.547427 
L 82.811124 168.61185 
L 82.813699 168.644061 
L 82.844599 168.515216 
L 82.914125 168.547427 
L 83.030001 168.418582 
L 82.991375 168.579638 
L 83.032576 168.450793 
L 83.161327 168.354159 
L 83.274628 168.160891 
L 83.284928 168.193102 
L 83.421404 168.12868 
L 83.524405 167.935412 
L 83.465179 168.160891 
L 83.53728 167.999834 
L 83.54758 168.064257 
L 83.632556 167.838778 
L 83.640281 167.9032 
L 83.738131 167.742144 
L 83.761307 167.774355 
L 83.776757 167.838778 
L 83.825682 167.709932 
L 83.869457 167.742144 
L 83.985333 167.613298 
L 83.987908 167.64551 
L 84.021384 167.581087 
L 84.139835 167.291185 
L 84.14241 167.323396 
L 84.19391 167.226762 
L 84.291761 167.001283 
L 84.201635 167.258974 
L 84.320086 167.033494 
L 84.325236 167.130128 
L 84.423087 166.93686 
L 84.430812 167.033494 
L 84.508063 166.969072 
L 84.513213 167.001283 
L 84.626514 166.743592 
L 84.675439 166.743592 
L 84.78874 166.582536 
L 84.80419 166.614747 
L 84.863416 166.45369 
L 84.889166 166.485902 
L 84.997317 166.292634 
L 85.002467 166.357056 
L 85.005042 166.389268 
L 85.090017 166.196 
L 85.105468 166.292634 
L 85.200743 166.034943 
L 85.221344 166.099366 
L 85.231644 166.131577 
L 85.303744 165.97052 
L 85.324344 166.034943 
L 85.422195 165.906098 
L 85.380995 166.067154 
L 85.437645 165.97052 
L 85.44022 166.002732 
L 85.502021 165.841675 
L 85.538071 165.938309 
L 85.545796 165.809464 
L 85.576696 165.97052 
L 85.648797 165.938309 
L 85.664247 165.873886 
L 85.756948 165.71283 
L 85.669397 165.906098 
L 85.774973 165.809464 
L 85.777548 165.841675 
L 85.857374 165.616196 
L 85.870249 165.648407 
L 85.996425 165.358505 
L 86.032475 165.48735 
L 86.102001 165.261871 
L 86.104576 165.326294 
L 86.197277 165.22966 
L 86.271952 165.100814 
L 86.202427 165.294082 
L 86.315728 165.133026 
L 86.323453 165.197448 
L 86.369803 165.068603 
L 86.423878 165.068603 
L 86.488254 165.100814 
L 86.521729 164.939758 
L 86.526879 165.00418 
L 86.617005 164.843124 
L 86.642755 164.875335 
L 86.65563 164.907546 
L 86.740606 164.714278 
L 86.920858 164.617644 
L 87.026433 164.488799 
L 86.926008 164.649856 
L 87.039308 164.52101 
L 87.075359 164.488799 
L 87.18866 164.327742 
L 87.312261 164.26332 
L 87.417837 164.102263 
L 87.425562 164.166686 
L 87.466762 164.070052 
L 87.585213 163.844572 
L 87.479637 164.134474 
L 87.590363 163.908995 
L 87.592938 163.941206 
L 87.685639 163.747938 
L 87.688214 163.78015 
L 87.791215 163.586882 
L 87.695939 163.812361 
L 87.806665 163.619093 
L 87.80924 163.683516 
L 87.912241 163.490248 
L 87.919966 163.55467 
L 87.986916 163.425825 
L 88.017817 163.490248 
L 88.100217 163.29698 
L 88.133692 163.329191 
L 88.180043 163.232557 
L 88.285619 163.135923 
L 88.200643 163.264768 
L 88.293344 163.168134 
L 88.295919 163.200346 
L 88.370594 163.007078 
L 88.391195 163.039289 
L 88.509646 162.878232 
L 88.558571 162.942655 
L 88.581746 162.81381 
L 88.617796 162.910444 
L 88.738822 162.652753 
L 88.955124 162.556119 
L 89.063275 162.491696 
L 88.960274 162.620542 
L 89.06585 162.556119 
L 89.155976 162.459485 
L 89.264127 162.234006 
L 89.279577 162.266217 
L 89.297602 162.33064 
L 89.372278 162.10516 
L 89.382578 162.169583 
L 89.498454 161.976315 
L 89.506179 162.008526 
L 89.570554 161.879681 
L 89.60403 161.911892 
L 89.65553 161.815258 
L 89.750806 161.686413 
L 89.768831 161.718624 
L 89.771406 161.783047 
L 89.807456 161.589779 
L 89.876982 161.686413 
L 89.969683 161.493145 
L 89.992858 161.589779 
L 89.995433 161.62199 
L 90.080408 161.396511 
L 90.090709 161.428722 
L 90.193709 161.332088 
L 90.113884 161.493145 
L 90.204009 161.3643 
L 90.24521 161.396511 
L 90.28641 161.203243 
L 90.309585 161.299877 
L 90.397136 161.106609 
L 90.325035 161.332088 
L 90.425461 161.13882 
L 90.428036 161.171032 
L 90.515587 160.977764 
L 90.523312 161.009975 
L 90.641763 160.816707 
L 90.677813 160.848918 
L 90.693263 160.687862 
L 90.739614 160.687862 
L 90.801414 160.526805 
L 90.858065 160.559016 
L 90.883815 160.591228 
L 90.93274 160.430171 
L 90.961066 160.462382 
L 91.071792 160.301326 
L 90.973941 160.494594 
L 91.082092 160.333537 
L 91.141317 160.236903 
L 91.177367 160.301326 
L 91.257193 160.108058 
L 91.259768 160.17248 
L 91.360194 159.947001 
L 91.362769 159.979212 
L 91.463195 159.91479 
L 91.579071 159.785944 
L 91.586796 159.818156 
L 91.666621 159.592676 
L 91.676922 159.624888 
L 91.787647 159.528254 
L 91.682072 159.657099 
L 91.792798 159.560465 
L 91.877773 159.463831 
L 92.104375 157.75663 
L 92.119825 157.788842 
L 92.1224 157.821053 
L 92.168751 157.692208 
L 92.227976 157.75663 
L 92.421103 157.853264 
L 92.521529 157.917687 
L 92.428828 157.788842 
L 92.531829 157.853264 
L 92.864006 157.75663 
L 92.961857 157.692208 
L 92.902632 157.885476 
L 92.972157 157.788842 
L 93.010783 157.75663 
L 93.121508 157.627785 
L 93.124083 157.659996 
L 93.126658 157.692208 
L 93.227084 157.563362 
L 93.29146 157.466728 
L 93.381586 157.402306 
L 93.299185 157.49894 
L 93.402186 157.434517 
L 93.430511 157.49894 
L 93.492311 157.337883 
L 93.510337 157.402306 
L 93.623638 157.27346 
L 93.628788 157.305672 
L 93.711188 157.209038 
L 93.821914 157.144615 
L 93.754964 157.27346 
L 93.824489 157.176826 
L 93.87084 157.112404 
L 93.986716 156.919136 
L 94.048516 156.951347 
L 94.069116 156.822502 
L 94.089716 156.854713 
L 94.192717 156.661445 
L 94.210742 156.725868 
L 94.233918 156.661445 
L 94.349794 156.274909 
L 94.383269 156.30712 
L 94.447644 156.146064 
L 94.452794 156.210486 
L 94.57897 155.920584 
L 94.581545 155.952796 
L 94.591846 156.017218 
L 94.648496 155.791739 
L 94.676821 155.791739 
L 94.759222 155.727316 
L 94.728322 155.856162 
L 94.787547 155.791739 
L 94.821022 155.727316 
L 94.929173 155.598471 
L 94.934323 155.630682 
L 94.978099 155.56626 
L 95.08625 155.405203 
L 95.093975 155.437414 
L 95.207276 155.276358 
L 95.215001 155.308569 
L 95.266501 155.211935 
L 95.333452 155.115301 
L 95.361777 155.276358 
L 95.379802 155.179724 
L 95.518853 155.08309 
L 95.642454 154.85761 
L 95.526578 155.147512 
L 95.645029 154.889822 
L 95.686229 154.793188 
L 95.69138 154.825399 
L 95.807255 154.59992 
L 95.853606 154.664342 
L 95.907681 154.503286 
L 95.912831 154.503286 
L 96.036432 154.438863 
L 96.149733 154.245595 
L 96.152308 154.277806 
L 96.162608 154.342229 
L 96.247584 154.11675 
L 96.252734 154.181172 
L 96.257884 154.213384 
L 96.37376 154.020116 
L 96.376335 154.084538 
L 96.476761 153.859059 
L 96.541137 153.794636 
L 96.651862 153.633579 
L 96.690488 153.730213 
L 96.749713 153.472523 
L 96.760013 153.536945 
L 96.863014 153.279255 
L 96.886189 153.343677 
L 96.919665 153.247043 
L 97.032966 153.053775 
L 96.929965 153.279255 
L 97.038116 153.085987 
L 97.048416 153.150409 
L 97.084466 153.021564 
L 97.143691 153.021564 
L 97.169442 153.053775 
L 97.267292 152.828296 
L 97.272443 152.860507 
L 97.347118 152.570605 
L 97.359993 152.602817 
L 97.462994 152.538394 
L 97.367718 152.667239 
L 97.473294 152.570605 
L 97.481019 152.602817 
L 97.56857 152.409549 
L 97.571145 152.409549 
L 97.648396 152.345126 
L 97.735946 152.119647 
L 97.764272 152.216281 
L 97.890448 151.990801 
L 97.988298 152.023013 
L 97.908473 151.894167 
L 97.998598 151.990801 
L 98.106749 151.765322 
L 98.124775 151.797533 
L 98.135075 151.861956 
L 98.16855 151.733111 
L 98.232925 151.829745 
L 98.341076 151.668688 
L 98.346226 151.733111 
L 98.472402 151.47542 
L 98.474977 151.507631 
L 98.598578 151.47542 
L 98.711879 151.378786 
L 98.82518 151.282152 
L 98.838055 151.346575 
L 98.938481 151.121095 
L 98.964231 151.217729 
L 99.026032 151.024461 
L 99.046632 151.056673 
L 99.062082 151.088884 
L 99.170233 150.895616 
L 99.234609 150.798982 
L 99.247484 150.895616 
L 99.35821 150.637925 
L 99.386535 150.702348 
L 99.45606 150.573503 
L 99.466361 150.637925 
L 99.569361 150.476869 
L 99.579661 150.541291 
L 99.597687 150.50908 
L 99.713563 150.283601 
L 99.754763 150.315812 
L 99.798538 150.122544 
L 99.813988 150.186967 
L 99.945314 149.929276 
L 99.99424 149.864853 
L 100.104966 149.639374 
L 100.00969 149.897065 
L 100.107541 149.703797 
L 100.110116 149.768219 
L 100.202817 149.478317 
L 100.210542 149.510529 
L 100.264617 149.413895 
L 100.370193 149.123993 
L 100.385643 149.156204 
L 100.437143 149.05957 
L 100.560745 148.866302 
L 100.565895 148.930725 
L 100.65602 148.673034 
L 100.782196 148.286498 
L 100.795071 148.350921 
L 100.869747 148.125441 
L 100.880047 148.125441 
L 100.962448 148.028807 
L 101.047424 147.932173 
L 101.006223 148.061019 
L 101.078324 147.964385 
L 101.109224 148.028807 
L 101.168449 147.771117 
L 101.1736 147.771117 
L 101.2766 147.674483 
L 101.343551 147.481215 
L 101.28175 147.706694 
L 101.400201 147.513426 
L 101.485177 147.449003 
L 101.603628 147.223524 
L 101.619078 147.255735 
L 101.670579 147.094679 
L 101.709204 147.223524 
L 101.832805 146.901411 
L 101.89203 146.998045 
L 101.933231 146.869199 
L 101.940956 146.869199 
L 102.059407 146.708143 
L 101.948681 146.901411 
L 102.061982 146.740354 
L 102.221633 146.64372 
L 102.342659 146.482663 
L 102.350384 146.514875 
L 102.432785 146.224973 
L 102.589861 146.16055 
L 102.705737 145.999493 
L 102.734062 146.096127 
L 102.782988 145.935071 
L 102.813888 145.999493 
L 102.916889 145.806225 
L 102.937489 145.838437 
L 102.940064 145.870648 
L 102.955514 145.741803 
L 103.037915 145.741803 
L 103.164091 145.516323 
L 103.200141 145.580746 
L 103.256792 145.419689 
L 103.264517 145.419689 
L 103.388118 145.161999 
L 103.390693 145.19421 
L 103.408718 145.226421 
L 103.426743 145.097576 
L 103.491119 145.161999 
L 103.606995 144.936519 
L 103.622445 144.872097 
L 103.70742 144.743251 
L 103.648195 144.936519 
L 103.733171 144.807674 
L 103.735746 144.839885 
L 103.776946 144.646617 
L 103.828446 144.646617 
L 103.944322 144.485561 
L 103.841321 144.678829 
L 103.949472 144.517772 
L 104.018998 144.421138 
L 104.026723 144.453349 
L 104.140024 144.260081 
L 104.160624 144.292293 
L 104.232725 144.131236 
L 104.243025 144.163447 
L 104.33315 144.066813 
L 104.446451 143.937968 
L 104.526277 143.970179 
L 104.495377 143.841334 
L 104.552027 143.873545 
L 104.582928 143.809123 
L 104.698803 143.583643 
L 104.701379 143.648066 
L 104.794079 143.390375 
L 104.801804 143.487009 
L 104.90223 143.26153 
L 104.920255 143.293741 
L 105.028406 143.100473 
L 105.043856 143.132685 
L 105.131407 143.197107 
L 105.059306 143.100473 
L 105.154582 143.132685 
L 105.278183 142.874994 
L 105.283333 142.907205 
L 105.363159 142.971628 
L 105.381184 142.842783 
L 105.391484 142.874994 
L 105.473885 142.810571 
L 105.592336 142.617303 
L 105.628386 142.649515 
L 105.674736 142.520669 
L 105.700487 142.617303 
L 105.824088 142.391824 
L 105.826663 142.424035 
L 105.937389 142.391824 
L 106.040389 142.262979 
L 106.05069 142.29519 
L 106.176866 142.101922 
L 106.184591 142.166345 
L 106.266991 142.005288 
L 106.279866 142.069711 
L 106.380292 141.779809 
L 106.400892 141.81202 
L 106.491018 141.522118 
L 106.527068 141.618752 
L 106.594019 141.554329 
L 106.614619 141.586541 
L 106.70732 141.425484 
L 106.802596 141.361061 
L 106.910747 141.071159 
L 106.921047 141.103371 
L 106.954522 141.135582 
L 106.987997 140.974525 
L 107.026623 141.038948 
L 107.054948 140.974525 
L 107.088423 141.038948 
L 107.170824 140.84568 
L 107.173399 140.910103 
L 107.2661 140.684623 
L 107.2764 140.716835 
L 107.32275 140.620201 
L 107.361375 140.652412 
L 107.454076 140.36251 
L 107.539052 140.330299 
L 107.657503 140.008185 
L 107.796554 139.621649 
L 107.873805 139.718283 
L 107.801704 139.589438 
L 107.91243 139.686072 
L 108.030881 139.428381 
L 108.115857 139.460593 
L 108.054056 139.363959 
L 108.139032 139.39617 
L 108.247183 139.170691 
L 108.254908 139.267325 
L 108.283233 139.170691 
L 108.414559 138.913 
L 108.422284 138.977423 
L 108.49181 138.784155 
L 108.520135 138.848577 
L 108.666911 138.397619 
L 108.679786 138.462041 
L 108.739012 138.139928 
L 108.759612 138.172139 
L 108.878063 137.850026 
L 108.880638 137.882237 
L 108.890938 137.914449 
L 108.968189 137.656758 
L 108.975914 137.688969 
L 109.053164 137.431279 
L 109.10209 137.495701 
L 109.161315 137.399067 
L 109.272041 137.205799 
L 109.17419 137.431279 
L 109.282341 137.238011 
L 109.346717 137.270222 
L 109.328691 137.141377 
L 109.387917 137.173588 
L 109.516668 137.076954 
L 109.565593 136.98032 
L 109.606794 137.173588 
L 109.629969 137.044743 
L 109.676319 137.109165 
L 109.720095 136.948109 
L 109.73812 137.044743 
L 109.866871 136.787052 
L 109.890046 136.883686 
L 109.954422 136.690418 
L 109.972447 136.690418 
L 110.049697 136.625995 
L 110.054847 136.658207 
L 110.170723 136.368305 
L 110.214499 136.271671 
L 110.330375 136.078403 
L 110.229949 136.303882 
L 110.335525 136.142825 
L 110.423075 136.110614 
L 110.502901 135.949557 
L 110.430801 136.142825 
L 110.536376 135.981769 
L 110.631652 135.820712 
L 110.554402 136.01398 
L 110.657402 135.852923 
L 110.667702 135.885135 
L 110.750103 135.659655 
L 110.752678 135.691867 
L 110.873704 135.401965 
L 110.907179 135.466387 
L 110.96383 135.273119 
L 110.97413 135.337542 
L 111.087431 135.112063 
L 111.090006 135.144274 
L 111.092581 135.176485 
L 111.154381 134.983217 
L 111.190432 135.015429 
L 111.314033 134.983217 
L 111.326908 135.015429 
L 111.429909 134.757738 
L 111.481409 134.661104 
L 111.494284 134.693315 
L 111.59986 134.467836 
L 111.646211 134.435625 
L 111.746636 134.274568 
L 111.669386 134.467836 
L 111.759511 134.306779 
L 111.787837 134.338991 
L 111.854787 134.145723 
L 111.859937 134.177934 
L 111.885687 134.113511 
L 111.983538 133.920243 
L 112.001563 133.984666 
L 112.083964 133.888032 
L 112.16894 133.952455 
L 112.197265 133.791398 
L 112.19984 133.855821 
L 112.261641 133.694764 
L 112.305416 133.759187 
L 112.359491 133.694764 
L 112.483092 133.372651 
L 112.495968 133.404862 
L 112.578368 133.211594 
L 112.580943 133.211594 
L 112.694244 132.953903 
L 112.699394 133.018326 
L 112.82557 132.760635 
L 112.828145 132.825058 
L 112.85132 132.728424 
L 112.933721 132.728424 
L 112.974921 132.664001 
L 113.090797 132.406311 
L 113.093372 132.438522 
L 113.196373 132.341888 
L 113.268474 132.084197 
L 113.314824 132.116409 
L 113.3689 132.019775 
L 113.471901 131.955352 
L 113.397225 132.051986 
L 113.482201 131.987563 
L 113.515676 131.955352 
L 113.631552 131.66545 
L 113.634127 131.697661 
L 113.711377 131.472182 
L 113.724253 131.472182 
L 113.796353 131.278914 
L 113.842704 131.375548 
L 113.855579 131.407759 
L 113.927679 131.214491 
L 113.950854 131.343337 
L 114.079606 131.085646 
L 114.089906 131.150069 
L 114.169731 130.892378 
L 114.177456 130.924589 
L 114.298482 130.827955 
L 114.383458 130.634687 
L 114.316507 130.860167 
L 114.414358 130.69911 
L 114.416933 130.731321 
L 114.471009 130.602476 
L 114.522509 130.666899 
L 114.64611 130.409208 
L 114.548259 130.69911 
L 114.65126 130.441419 
L 114.653835 130.473631 
L 114.751686 130.312574 
L 114.754261 130.409208 
L 114.875287 130.151517 
L 114.893312 130.312574 
L 114.980863 130.087095 
L 114.983438 130.119306 
L 115.065839 130.022672 
L 115.17914 129.829404 
L 115.081289 130.054883 
L 115.18944 129.861615 
L 115.202315 129.926038 
L 115.24609 129.73277 
L 115.295015 129.797193 
L 115.416041 129.539502 
L 115.539642 129.281811 
L 115.431492 129.571713 
L 115.542218 129.346234 
L 115.549943 129.378445 
L 115.637493 129.217389 
L 115.640068 129.217389 
L 115.743069 129.185177 
L 115.658093 129.281811 
L 115.750794 129.217389 
L 115.755944 129.2496 
L 115.81002 128.991909 
L 115.843495 128.991909 
L 115.853795 129.056332 
L 115.977396 128.702007 
L 115.982546 128.798641 
L 115.990271 128.605373 
L 116.085547 128.637585 
L 116.119022 128.540951 
L 116.229748 128.347683 
L 116.124172 128.573162 
L 116.240048 128.379894 
L 116.242623 128.412105 
L 116.301849 128.251049 
L 116.343049 128.28326 
L 116.361074 128.315471 
L 116.469225 128.089992 
L 116.484675 128.057781 
L 116.595401 127.703456 
L 116.603126 127.735667 
L 116.739602 127.413554 
L 116.809128 127.31692 
L 116.891529 127.220286 
L 116.816853 127.349131 
L 116.922429 127.252497 
L 116.968779 127.349131 
L 117.02028 127.188075 
L 117.03058 127.220286 
L 117.100105 127.155863 
L 117.223706 126.769327 
L 117.236581 126.865961 
L 117.300957 126.576059 
L 117.316407 126.608271 
L 117.360182 126.35058 
L 117.432283 126.479425 
L 117.543009 126.318369 
L 117.447733 126.543848 
L 117.550734 126.35058 
L 117.568759 126.382791 
L 117.638285 126.060678 
L 117.643435 126.189523 
L 117.764461 125.931833 
L 117.795361 125.996255 
L 117.823686 125.770776 
L 117.862312 125.770776 
L 117.944712 125.738565 
L 118.063163 125.416451 
L 118.212514 124.933281 
L 118.258865 124.997704 
L 118.28719 124.868859 
L 118.31809 124.868859 
L 118.346416 124.804436 
L 118.418516 124.611168 
L 118.462291 124.643379 
L 118.464867 124.740013 
L 118.567867 124.514534 
L 118.570442 124.546745 
L 118.588468 124.450111 
L 118.632243 124.482323 
L 118.727519 124.063575 
L 118.730094 124.095787 
L 118.815069 123.838096 
L 118.822794 123.870307 
L 118.853695 123.773673 
L 119.018496 123.097235 
L 119.021071 123.129447 
L 119.095747 122.936179 
L 119.111197 122.96839 
L 119.229648 122.48522 
L 119.232223 122.517431 
L 119.237373 122.549643 
L 119.324924 122.324163 
L 119.327499 122.324163 
L 119.363549 122.259741 
L 119.482 121.808782 
L 119.484575 121.873205 
L 119.626201 121.422246 
L 119.628776 121.454457 
L 119.662251 121.357823 
L 119.785852 121.003499 
L 119.669976 121.390035 
L 119.796152 121.067921 
L 119.824478 120.971287 
L 119.978979 120.101581 
L 119.994429 120.230427 
L 119.997004 120.262638 
L 120.079405 119.972736 
L 120.08713 120.037159 
L 120.267381 119.135241 
L 120.272531 119.199664 
L 120.354932 118.845339 
L 120.519733 118.104479 
L 120.383257 118.941973 
L 120.522308 118.13669 
L 120.537759 118.040056 
L 120.68196 117.17035 
L 120.689685 117.073716 
L 120.851911 116.365067 
L 120.854486 116.397278 
L 120.882811 116.365067 
L 121.052763 114.110273 
L 121.093963 112.209804 
L 121.109413 53.134219 
L 121.124863 18.410401 
L 121.209839 106.154074 
L 121.274215 119.070819 
L 121.336015 117.105927 
L 121.547167 113.208356 
L 121.549742 113.240567 
L 121.696518 112.33865 
L 121.699093 112.370861 
L 121.768619 111.887691 
L 121.776344 111.984325 
L 121.871619 111.597789 
L 121.91282 111.662212 
L 122.008096 111.758846 
L 122.121397 112.306438 
L 122.136847 112.209804 
L 122.157447 112.306438 
L 122.306798 112.918454 
L 122.167747 112.274227 
L 122.314523 112.886242 
L 122.417524 112.531918 
L 122.366024 112.950665 
L 122.430399 112.757397 
L 122.484475 113.111722 
L 122.54885 112.950665 
L 122.582325 112.757397 
L 122.60035 112.982876 
L 122.651851 112.982876 
L 122.662151 112.886242 
L 122.796052 113.820371 
L 122.801202 113.78816 
L 122.878453 114.013639 
L 122.888753 114.013639 
L 122.899053 114.078062 
L 122.971154 113.820371 
L 122.989179 113.884794 
L 123.038104 113.78816 
L 123.066429 113.949216 
L 123.09733 113.917005 
L 123.161705 113.820371 
L 123.336807 112.982876 
L 123.354832 113.07951 
L 123.406332 112.499706 
L 123.411482 112.531918 
L 123.555683 112.11317 
L 123.584009 112.016536 
L 123.594309 112.048748 
L 123.808035 110.567026 
L 123.81061 110.599238 
L 123.856961 109.793954 
L 123.880136 104.962254 
L 123.911036 21.406055 
L 123.996012 95.717602 
L 124.086138 115.753051 
L 124.129913 115.205458 
L 124.140213 115.108824 
L 124.310164 113.369412 
L 124.31789 113.433835 
L 124.37969 113.337201 
L 124.441491 113.143933 
L 124.397715 113.401624 
L 124.498141 113.240567 
L 124.518741 113.337201 
L 124.544491 113.272778 
L 124.657792 113.723737 
L 124.776243 113.433835 
L 124.783968 113.498258 
L 124.915294 113.78816 
L 124.951345 113.594892 
L 125.00027 113.917005 
L 125.018295 113.917005 
L 125.03117 114.078062 
L 125.110996 113.852582 
L 125.131596 113.981428 
L 125.242322 113.917005 
L 125.170222 114.206907 
L 125.244897 113.949216 
L 125.275797 113.852582 
L 125.422574 113.111722 
L 125.443174 113.143933 
L 125.445749 113.208356 
L 125.525574 112.531918 
L 125.721276 110.341547 
L 125.723851 110.373758 
L 125.759901 109.504052 
L 125.790802 107.184836 
L 125.829427 22.98441 
L 125.916978 98.133452 
L 126.004528 114.367964 
L 126.050879 113.755948 
L 126.23113 112.370861 
L 126.264606 112.435284 
L 126.380481 112.564129 
L 126.339281 112.33865 
L 126.383057 112.531918 
L 126.413957 112.435284 
L 126.462882 112.403072 
L 126.496357 112.59634 
L 126.514383 112.564129 
L 126.560733 112.499706 
L 126.635409 112.274227 
L 126.594208 112.564129 
L 126.674034 112.370861 
L 126.692059 112.242016 
L 126.80021 112.59634 
L 126.81051 112.531918 
L 126.85171 112.757397 
L 126.900636 112.725186 
L 126.944411 112.789608 
L 126.952136 112.854031 
L 127.029387 112.531918 
L 127.047412 112.628552 
L 127.122088 112.59634 
L 127.086037 112.789608 
L 127.155563 112.660763 
L 127.222513 112.725186 
L 127.183888 112.531918 
L 127.258564 112.564129 
L 127.371865 112.499706 
L 127.37959 112.435284 
L 127.459415 112.757397 
L 127.47229 112.725186 
L 127.546966 112.789608 
L 127.508341 112.59634 
L 127.580441 112.725186 
L 127.734943 112.177593 
L 127.817343 112.306438 
L 127.840518 112.145382 
L 127.845669 112.177593 
L 127.886869 112.242016 
L 127.98472 111.823268 
L 128.038795 111.952114 
L 128.07742 111.662212 
L 128.079995 111.694423 
L 128.226772 110.244913 
L 128.234497 110.277124 
L 128.283422 109.665109 
L 128.285997 109.665109 
L 128.437923 100.291611 
L 128.471399 24.43392 
L 128.553799 91.07917 
L 128.649075 112.950665 
L 128.69285 112.660763 
L 128.842202 111.050196 
L 128.844777 111.082408 
L 128.875677 110.985774 
L 128.952928 110.760294 
L 128.986403 110.953562 
L 129.107429 111.340098 
L 129.120304 111.243464 
L 129.146054 111.179042 
L 129.182104 111.243464 
L 129.26708 110.88914 
L 129.27223 110.953562 
L 129.30313 110.695872 
L 129.367506 110.760294 
L 129.491107 110.341547 
L 129.493682 110.373758 
L 129.681659 109.342996 
L 129.684234 109.375207 
L 129.707409 109.278573 
L 129.972636 104.704564 
L 129.998386 95.041164 
L 130.034436 28.363703 
L 130.116837 86.376315 
L 130.248163 111.017985 
L 130.263613 110.88914 
L 130.266188 110.953562 
L 130.312539 110.66366 
L 130.366614 110.728083 
L 130.45674 110.824717 
L 130.46189 110.856928 
L 130.510815 110.599238 
L 130.554591 110.66366 
L 130.613816 110.567026 
L 130.616391 110.534815 
L 130.665317 110.856928 
L 130.706517 110.792506 
L 130.721967 110.88914 
L 130.848143 111.114619 
L 130.976894 110.631449 
L 130.979469 110.66366 
L 131.02582 110.438181 
L 131.074745 110.470392 
L 131.11852 110.373758 
L 131.236971 110.083856 
L 131.468723 108.505501 
L 131.471298 108.537712 
L 131.502199 108.505501 
L 131.623225 107.99012 
L 131.522799 108.569924 
L 131.6258 108.022331 
L 131.785451 104.672352 
L 131.821501 95.878658 
L 131.860126 29.458888 
L 131.939952 86.923908 
L 132.086728 109.342996 
L 132.220629 108.827614 
L 132.233505 108.892037 
L 132.24638 108.827614 
L 132.326205 108.441078 
L 132.357106 108.73098 
L 132.380281 108.859826 
L 132.454956 108.505501 
L 132.457531 108.537712 
L 132.581132 108.215599 
L 132.588857 108.280022 
L 132.642933 108.183388 
L 132.743359 107.378104 
L 132.763959 107.474738 
L 132.766534 107.50695 
L 132.828334 107.055991 
L 132.84121 107.088202 
L 132.995711 106.54061 
L 133.016311 106.605032 
L 133.031761 106.669455 
L 133.101287 106.154074 
L 133.106437 106.154074 
L 133.423164 96.522885 
L 133.474665 34.548279 
L 133.557065 83.960465 
L 133.698692 108.054542 
L 133.708992 107.957908 
L 133.737317 108.086754 
L 133.788817 107.76464 
L 133.806842 107.796852 
L 133.853193 107.700218 
L 133.958769 107.345893 
L 133.971644 107.50695 
L 134.041169 107.571372 
L 134.069495 107.345893 
L 134.07207 107.410316 
L 134.180221 107.249259 
L 134.115845 107.539161 
L 134.185371 107.313682 
L 134.247171 107.28147 
L 134.283221 106.959357 
L 134.363047 107.055991 
L 134.419697 107.28147 
L 134.460898 106.959357 
L 134.473773 107.055991 
L 134.517548 106.959357 
L 134.530423 106.7983 
L 134.594799 107.120414 
L 134.635999 106.830512 
L 134.641149 106.862723 
L 134.72355 106.572821 
L 134.726125 106.572821 
L 134.7596 106.476187 
L 134.914102 105.316579 
L 134.945002 105.477636 
L 134.968177 105.57427 
L 135.040278 104.930043 
L 135.048003 104.86562 
L 135.184479 104.060337 
L 135.187054 104.12476 
L 135.199929 104.156971 
L 135.233404 103.319476 
L 135.336405 98.004606 
L 135.36988 65.857695 
L 135.395631 35.031449 
L 135.472881 79.193188 
L 135.629957 107.442527 
L 135.686608 107.345893 
L 135.792184 106.959357 
L 135.805059 107.120414 
L 135.833384 107.02378 
L 135.905485 106.7983 
L 135.946685 106.991568 
L 136.023936 106.894934 
L 136.070286 107.02378 
L 136.142387 106.733878 
L 136.255688 106.927146 
L 136.175862 106.701666 
L 136.258263 106.894934 
L 136.425639 105.993017 
L 136.438514 106.025228 
L 136.459114 106.154074 
L 136.520915 105.735326 
L 136.526065 105.735326 
L 136.688291 104.38245 
L 136.690866 104.414662 
L 136.752667 103.834858 
L 136.953518 93.076272 
L 137.005019 37.608356 
L 137.087419 79.869626 
L 137.247071 105.735326 
L 137.249646 105.638692 
L 137.360372 105.767538 
L 137.290846 105.606481 
L 137.368097 105.735326 
L 137.378397 105.83196 
L 137.411872 105.896383 
L 137.476248 105.542058 
L 137.478823 105.57427 
L 137.556073 105.896383 
L 137.494273 105.542058 
L 137.586974 105.606481 
L 137.646199 105.799749 
L 137.700274 105.542058 
L 137.705424 105.57427 
L 137.772375 105.34879 
L 137.792975 105.381002 
L 137.929451 104.414662 
L 138.199829 102.353136 
L 138.202404 102.385348 
L 138.223004 102.320925 
L 138.452181 93.97819 
L 138.493381 71.398045 
L 138.526856 42.375633 
L 138.598957 74.297065 
L 138.771483 103.995914 
L 138.774058 103.963703 
L 138.851309 103.867069 
L 138.877059 104.12476 
L 138.918259 104.446873 
L 138.99551 104.221394 
L 139.00066 104.156971 
L 139.070186 104.479084 
L 139.108811 104.189182 
L 139.175762 104.092548 
L 139.286487 103.544956 
L 139.304513 103.609378 
L 139.314813 103.544956 
L 139.440989 103.126208 
L 139.459014 103.061786 
L 139.582615 102.256502 
L 139.598065 102.320925 
L 139.618665 102.224291 
L 139.791192 101.354585 
L 139.796342 101.386796 
L 139.804067 101.290162 
L 139.961143 100.130554 
L 140.069294 97.489225 
L 140.182595 84.250367 
L 140.23667 45.178019 
L 140.313921 72.49323 
L 140.501897 103.061786 
L 140.671849 103.802646 
L 140.710474 103.609378 
L 140.772275 103.867069 
L 140.77485 103.867069 
L 140.877851 104.028126 
L 140.890726 103.963703 
L 140.960251 104.028126 
L 141.029777 103.577167 
L 141.037502 103.64159 
L 141.094152 103.093997 
L 141.099302 103.093997 
L 141.256379 102.481982 
L 141.282129 102.514193 
L 141.320754 102.031023 
L 141.333629 102.063234 
L 141.779108 95.170009 
L 141.848633 84.540269 
L 141.907859 46.659741 
L 141.98511 72.622075 
L 142.178236 101.869966 
L 142.180811 101.837755 
L 142.240037 102.385348 
L 142.245187 102.385348 
L 142.368788 102.900729 
L 142.386813 102.804095 
L 142.512989 101.9666 
L 142.528439 102.031023 
L 142.533589 102.063234 
L 142.729291 100.903626 
L 142.737016 100.806992 
L 142.909542 98.938735 
L 142.744741 100.839204 
L 142.917267 99.035369 
L 142.922417 99.099792 
L 142.984218 98.616622 
L 142.989368 98.616622 
L 143.264895 84.185944 
L 143.347296 52.973162 
L 143.419396 71.140354 
L 143.620248 99.582962 
L 143.8829 101.547853 
L 143.885475 101.451219 
L 143.983326 101.837755 
L 143.985901 101.805544 
L 143.998776 101.902178 
L 144.065727 102.127657 
L 144.122377 102.063234 
L 144.251128 101.419008 
L 144.282028 101.451219 
L 144.297479 101.354585 
L 144.624506 95.878658 
L 144.701757 91.401283 
L 144.773858 67.081726 
L 144.812483 51.394807 
L 144.882008 67.468262 
L 145.090585 99.647384 
L 145.100885 99.744018 
L 145.257961 100.968049 
L 145.268262 100.935838 
L 145.337787 101.322374 
L 145.345512 101.257951 
L 145.368687 101.161317 
L 145.528339 100.51709 
L 145.556664 100.678147 
L 145.608164 100.162766 
L 145.610739 100.162766 
L 145.69314 99.389694 
L 145.73949 99.486328 
L 146.233894 91.916664 
L 146.31372 80.030682 
L 146.388396 55.646703 
L 146.463071 68.788927 
L 146.697398 98.487776 
L 146.787524 99.615173 
L 146.839024 99.29306 
L 146.92915 98.874312 
L 146.952325 99.164214 
L 147.045026 99.454116 
L 146.990951 99.035369 
L 147.068201 99.29306 
L 147.119702 99.486328 
L 147.173777 99.260848 
L 147.392654 97.61807 
L 147.408104 97.714704 
L 147.420979 97.779127 
L 147.50338 97.553648 
L 147.505955 97.553648 
L 147.51368 97.457014 
L 147.804657 92.947427 
L 147.807232 92.947427 
L 148.147135 70.496127 
L 148.203786 64.247129 
L 148.260436 69.336519 
L 148.566864 96.426251 
L 148.721365 96.973844 
L 148.747115 97.231534 
L 148.875866 96.426251 
L 148.881016 96.490674 
L 148.963417 96.136349 
L 148.965992 96.200772 
L 149.110193 94.912318 
L 149.112768 94.94453 
L 149.171994 94.332514 
L 149.251819 94.203669 
L 149.272419 94.493571 
L 149.277569 94.46136 
L 149.403746 94.783473 
L 149.408896 94.751262 
L 149.524772 94.525782 
L 149.442371 94.912318 
L 149.529922 94.590205 
L 149.553097 94.71905 
L 149.609747 94.203669 
L 149.614897 94.139246 
L 149.650948 94.203669 
L 149.769399 93.044061 
L 149.774549 92.979638 
L 149.779699 93.01185 
L 149.9342 91.755608 
L 149.936775 91.82003 
L 150.008875 90.885902 
L 150.016601 90.821479 
L 150.426029 71.816792 
L 150.516155 76.100899 
L 150.843182 92.335412 
L 151.010559 94.493571 
L 151.013134 94.46136 
L 151.080084 94.880107 
L 151.087809 94.880107 
L 151.17021 95.298854 
L 151.203685 95.234432 
L 151.22686 95.298854 
L 151.309261 95.814236 
L 151.345311 95.524334 
L 151.355612 95.4277 
L 151.401962 95.68539 
L 151.456037 95.492122 
L 151.927266 88.244572 
L 152.195068 82.349898 
L 152.210519 82.253264 
L 152.231119 82.124419 
L 152.285194 82.6398 
L 152.290344 82.6398 
L 152.295494 82.736434 
L 152.903199 89.468603 
L 152.308369 82.672012 
L 152.93925 89.40418 
L 153.024225 89.339758 
L 152.998475 89.597448 
L 153.044825 89.436392 
L 153.191602 90.37052 
L 153.194177 90.338309 
L 153.271427 90.724845 
L 153.276577 90.660422 
L 153.310053 90.885902 
L 153.387303 90.692634 
L 153.505754 90.531577 
L 153.415628 91.014747 
L 153.508329 90.563788 
L 153.518629 90.628211 
L 153.523779 90.692634 
L 153.608755 90.11283 
L 153.832782 87.117176 
L 153.837932 87.149387 
L 153.843082 87.246021 
L 153.876557 86.923908 
L 153.946083 87.149387 
L 153.948658 87.117176 
L 154.007883 87.761402 
L 154.015608 87.793614 
L 154.072259 87.246021 
L 154.074834 87.246021 
L 154.116034 87.342655 
L 154.27311 85.05565 
L 154.278261 85.023439 
L 154.324611 84.508058 
L 154.401862 84.540269 
L 154.409587 84.475846 
L 154.440487 84.862382 
L 154.484262 84.830171 
L 154.677389 86.923908 
L 154.682539 86.891696 
L 154.734039 87.600346 
L 154.744339 87.664768 
L 154.896266 89.210912 
L 154.970941 89.533026 
L 154.903991 89.14649 
L 155.006992 89.339758 
L 155.130593 88.083516 
L 155.140893 88.18015 
L 155.300544 89.114278 
L 155.166643 88.147938 
L 155.318569 89.017644 
L 155.323719 88.953222 
L 155.37522 89.62966 
L 155.41127 89.468603 
L 155.48852 88.792165 
L 155.568346 88.888799 
L 155.679072 88.953222 
L 155.622422 88.598897 
L 155.681647 88.92101 
L 155.730572 88.985433 
L 155.818123 88.212361 
L 155.872199 88.43784 
L 155.900524 87.95467 
L 155.928849 88.212361 
L 156.181201 86.440738 
L 156.199226 86.537372 
L 156.245577 85.957568 
L 156.397503 83.34845 
L 156.405228 83.380661 
L 156.526254 84.991228 
L 156.443853 83.316238 
L 156.62153 84.733537 
L 156.649855 84.604692 
L 156.714231 85.442186 
L 156.842982 87.052753 
L 156.855857 86.98833 
L 156.861007 86.956119 
L 157.077309 88.43784 
L 157.21636 87.69698 
L 157.218935 87.729191 
L 157.270435 87.020542 
L 157.27301 87.020542 
L 157.29361 86.98833 
L 157.460987 84.862382 
L 157.471287 84.79796 
L 157.574288 83.284027 
L 157.628363 83.60614 
L 158.089292 88.083516 
L 158.091867 88.051304 
L 158.220618 87.149387 
L 158.223193 87.246021 
L 158.228343 87.21381 
L 158.362244 86.279681 
L 158.369969 86.215258 
L 158.44722 85.699877 
L 158.48842 85.957568 
L 158.619746 86.98833 
L 158.660947 86.73064 
L 158.717597 86.118624 
L 158.781973 86.569583 
L 158.872098 86.956119 
L 158.905574 86.73064 
L 159.07295 85.667666 
L 159.0884 85.828722 
L 159.11415 85.796511 
L 159.237751 84.024888 
L 159.268652 84.08931 
L 159.430878 86.183047 
L 159.433453 86.150836 
L 159.443753 86.24747 
L 159.572504 87.181598 
L 159.639455 87.535923 
L 159.670355 87.020542 
L 159.706405 86.698428 
L 159.747605 87.310444 
L 159.783656 86.891696 
L 159.814556 87.020542 
L 159.860906 86.569583 
L 159.866056 86.569583 
L 159.943307 86.279681 
L 159.871206 86.601794 
L 159.984507 86.344104 
L 160.007683 86.24747 
L 160.066908 86.408526 
L 160.172484 85.571032 
L 160.175059 85.635454 
L 160.25746 84.991228 
L 160.260035 84.991228 
L 160.29351 85.28113 
L 160.383636 84.830171 
L 160.445436 84.894594 
L 160.553587 85.248918 
L 160.561312 85.120073 
L 160.563887 85.087862 
L 160.625688 85.635454 
L 160.723538 86.73064 
L 160.754439 86.601794 
L 160.775039 86.440738 
L 160.831689 86.956119 
L 160.834264 86.956119 
L 160.993916 87.761402 
L 161.004216 87.69698 
L 161.014516 87.729191 
L 161.066016 87.922459 
L 161.107217 87.117176 
L 161.112367 87.149387 
L 161.212792 87.664768 
L 161.120092 87.084964 
L 161.243693 87.407078 
L 161.261718 87.310444 
L 161.382744 86.472949 
L 161.431669 86.537372 
L 161.57072 87.568134 
L 161.599046 87.342655 
L 161.756122 85.506609 
L 161.761272 85.53882 
L 161.823072 84.959016 
L 161.964699 84.185944 
L 161.985299 84.31479 
L 162.034224 83.670563 
L 162.08315 83.12297 
L 162.173275 83.316238 
L 162.273701 83.83162 
L 162.222201 83.155182 
L 162.317477 83.767197 
L 162.353527 83.638352 
L 162.399877 84.31479 
L 162.505453 85.828722 
L 162.536353 85.667666 
L 162.549228 85.7643 
L 162.608454 85.216707 
L 162.616179 85.28113 
L 162.685705 85.184496 
L 162.690855 85.120073 
L 162.77583 85.442186 
L 162.79128 85.53882 
L 162.855656 85.087862 
L 162.922607 84.379212 
L 162.984407 84.604692 
L 163.005007 84.508058 
L 163.030757 84.540269 
L 163.131183 84.121522 
L 163.326885 85.474398 
L 163.34491 85.442186 
L 163.362935 85.28113 
L 163.429886 86.02199 
L 163.432461 86.02199 
L 163.445336 85.957568 
L 163.661638 87.568134 
L 163.664213 87.4715 
L 163.746613 88.373418 
L 163.749188 88.341206 
L 163.847039 88.502263 
L 163.780089 88.308995 
L 163.857339 88.405629 
L 163.872789 88.43784 
L 163.978365 87.890248 
L 163.98094 87.986882 
L 164.050466 87.4715 
L 164.078791 87.535923 
L 164.328568 85.796511 
L 164.408394 86.24747 
L 164.447019 86.02199 
L 164.658171 83.445084 
L 164.756022 83.477295 
L 164.683921 83.284027 
L 164.766322 83.412872 
L 164.774047 83.34845 
L 164.784347 83.251816 
L 164.859022 83.896042 
L 164.864172 83.863831 
L 164.866747 83.83162 
L 164.943998 84.250367 
L 164.946573 84.218156 
L 165.070174 85.023439 
L 164.990348 84.08931 
L 165.085624 84.959016 
L 165.15515 84.894594 
L 165.209225 84.475846 
L 165.162875 84.926805 
L 165.273601 84.701326 
L 165.335401 84.540269 
L 165.289051 84.79796 
L 165.379177 84.765748 
L 165.417802 84.701326 
L 165.430677 84.79796 
L 165.577453 83.412872 
L 165.582603 83.445084 
L 165.654704 82.994125 
L 165.662429 83.090759 
L 165.667579 83.026336 
L 165.719079 83.702774 
L 165.914781 86.537372 
L 165.937956 86.408526 
L 165.940531 86.440738 
L 166.020357 86.054202 
L 166.244384 84.153733 
L 166.272709 84.250367 
L 166.311334 84.347001 
L 166.342235 83.863831 
L 166.36541 84.024888 
L 166.504461 82.768646 
L 166.383435 84.08931 
L 166.522486 82.86528 
L 166.573986 82.800857 
L 166.589437 83.380661 
L 166.687287 83.896042 
L 166.705313 83.573929 
L 166.715613 83.477295 
L 166.787713 82.897491 
L 166.834064 83.284027 
L 166.844364 83.34845 
L 166.978265 85.120073 
L 167.019465 84.959016 
L 167.04264 84.830171 
L 167.086416 85.409975 
L 167.091566 85.409975 
L 167.235767 86.666217 
L 167.256367 86.73064 
L 167.331043 87.664768 
L 167.387693 87.246021 
L 167.418593 87.149387 
L 167.511294 86.472949 
L 167.544769 86.762851 
L 167.56022 86.698428 
L 167.696696 85.957568 
L 167.699271 85.989779 
L 167.817722 85.248918 
L 167.709571 86.118624 
L 167.856347 85.409975 
L 167.866647 85.474398 
L 167.912997 84.765748 
L 167.915573 84.765748 
L 167.954198 84.669114 
L 168.113849 83.058548 
L 168.162775 83.445084 
L 168.2117 83.380661 
L 168.286376 82.768646 
L 168.325001 83.251816 
L 168.482077 84.443635 
L 168.484652 84.411424 
L 168.536153 84.894594 
L 168.561903 84.79796 
L 168.605678 85.442186 
L 168.706104 85.216707 
L 168.742154 85.184496 
L 168.876055 83.992676 
L 168.88893 83.896042 
L 169.012532 83.477295 
L 169.022832 83.573929 
L 169.033132 83.638352 
L 169.110382 83.090759 
L 169.130982 82.800857 
L 169.208233 83.412872 
L 169.210808 83.412872 
L 169.241708 83.734986 
L 169.290634 83.058548 
L 169.293209 83.058548 
L 169.434835 81.67346 
L 169.481185 82.059996 
L 169.566161 82.446532 
L 169.607361 82.253264 
L 169.625387 82.15663 
L 169.728387 81.383558 
L 169.754138 81.641249 
L 169.916364 82.961914 
L 169.993615 82.414321 
L 169.929239 83.058548 
L 170.050265 82.672012 
L 170.065715 82.833068 
L 170.091465 82.607589 
L 170.166141 82.768646 
L 170.209916 82.575378 
L 170.238242 83.155182 
L 170.315492 84.218156 
L 170.374718 84.121522 
L 170.385018 84.024888 
L 170.423643 83.670563 
L 170.472568 84.218156 
L 170.475144 84.218156 
L 170.59617 84.862382 
L 170.539519 84.185944 
L 170.603895 84.765748 
L 170.639945 84.830171 
L 170.727496 84.218156 
L 170.755821 84.121522 
L 170.884572 83.670563 
L 170.889722 83.734986 
L 170.936072 83.090759 
L 170.974698 83.445084 
L 171.124049 82.446532 
L 171.021048 83.60614 
L 171.144649 82.704223 
L 171.162674 82.800857 
L 171.296575 83.219604 
L 171.209025 82.607589 
L 171.301725 83.155182 
L 171.30945 83.090759 
L 171.386701 83.477295 
L 171.389276 83.445084 
L 171.458802 83.992676 
L 171.512877 83.670563 
L 171.695704 81.834517 
L 171.721454 81.770094 
L 171.82703 80.70712 
L 171.85793 80.997022 
L 172.022731 83.026336 
L 172.030456 83.090759 
L 172.282808 86.73064 
L 172.290533 86.762851 
L 172.460485 85.023439 
L 172.51971 84.991228 
L 172.591811 84.540269 
L 172.633011 84.862382 
L 172.666487 84.894594 
L 172.815838 86.344104 
L 172.898238 85.925356 
L 172.828713 86.440738 
L 172.949739 86.054202 
L 172.980639 85.957568 
L 173.132565 85.28113 
L 173.14029 85.313341 
L 173.142865 85.345552 
L 173.212391 84.894594 
L 173.214966 84.926805 
L 173.372042 83.767197 
L 173.472468 83.12297 
L 173.516243 83.251816 
L 173.64757 84.218156 
L 173.650145 84.153733 
L 173.68877 84.250367 
L 173.742845 84.347001 
L 173.771171 84.08931 
L 173.786621 84.121522 
L 173.809796 84.057099 
L 173.856146 84.636903 
L 173.858721 84.604692 
L 173.897347 84.701326 
L 173.902497 84.79796 
L 173.992622 84.540269 
L 173.995197 84.540269 
L 174.090473 82.994125 
L 174.147124 83.445084 
L 174.250125 83.734986 
L 174.26815 83.638352 
L 174.394326 82.736434 
L 174.399476 82.86528 
L 174.402051 82.833068 
L 174.461276 83.412872 
L 174.463851 83.380661 
L 174.497327 83.638352 
L 174.566852 83.316238 
L 174.572002 83.380661 
L 174.852679 81.125868 
L 174.577152 83.412872 
L 174.855254 81.222502 
L 174.870705 81.125868 
L 175.022631 79.772992 
L 175.079281 79.901837 
L 175.123057 79.837414 
L 175.323908 81.609038 
L 175.390859 81.286924 
L 175.434634 81.609038 
L 175.51446 82.38211 
L 175.56081 82.059996 
L 175.666386 81.609038 
L 175.692136 81.737883 
L 175.856938 83.767197 
L 175.993414 84.540269 
L 175.995989 84.508058 
L 176.006289 84.411424 
L 176.055214 84.153733 
L 176.080965 84.508058 
L 176.111865 84.475846 
L 176.142765 84.57248 
L 176.15564 84.669114 
L 176.217441 84.121522 
L 176.222591 84.024888 
L 176.464643 82.38211 
L 176.480093 82.510955 
L 176.541893 81.995574 
L 176.727295 80.095105 
L 176.863771 80.964811 
L 176.899821 80.868177 
L 176.907546 80.803754 
L 176.920421 80.674909 
L 176.995097 81.125868 
L 177.007972 81.061445 
L 177.123848 80.739332 
L 177.136723 80.803754 
L 177.291224 82.15663 
L 177.147023 80.771543 
L 177.335 81.963362 
L 177.342725 81.770094 
L 177.394225 82.027785 
L 177.448301 81.89894 
L 177.484351 81.866728 
L 177.587352 82.607589 
L 177.607952 82.704223 
L 177.625977 82.833068 
L 177.703228 82.543166 
L 177.788204 82.15663 
L 177.808804 82.607589 
L 177.811379 82.607589 
L 177.824254 82.704223 
L 177.888629 82.961914 
L 177.91953 82.672012 
L 177.93498 82.768646 
L 178.040556 82.543166 
L 177.97103 82.86528 
L 178.053431 82.672012 
L 178.068881 82.6398 
L 178.202782 81.705672 
L 178.215657 81.609038 
L 178.225957 81.544615 
L 178.287758 82.092208 
L 178.292908 82.124419 
L 178.341833 81.480192 
L 178.354708 81.544615 
L 178.362433 81.447981 
L 178.447409 81.931151 
L 178.583885 82.704223 
L 178.491184 81.89894 
L 178.58646 82.672012 
L 178.60191 82.736434 
L 178.746111 84.057099 
L 178.764137 84.153733 
L 178.903188 84.894594 
L 178.944388 84.830171 
L 179.073139 83.12297 
L 179.086014 83.155182 
L 179.12464 83.380661 
L 179.16069 83.058548 
L 179.19674 83.155182 
L 179.199315 83.187393 
L 179.235365 82.575378 
L 179.261116 82.575378 
L 179.575268 79.322033 
L 179.613894 79.515301 
L 179.83792 81.319136 
L 179.850795 81.125868 
L 179.879121 80.739332 
L 179.951221 81.286924 
L 179.956371 81.254713 
L 179.984697 81.158079 
L 180.028472 81.609038 
L 180.038772 81.544615 
L 180.061947 81.609038 
L 180.118598 81.19029 
L 180.134048 81.19029 
L 180.141773 81.093656 
L 180.324599 80.127316 
L 180.352925 80.481641 
L 180.4276 79.901837 
L 180.525451 79.25761 
L 180.553776 79.515301 
L 180.770078 81.802306 
L 180.808703 81.383558 
L 180.922004 81.093656 
L 180.860204 81.544615 
L 180.927154 81.125868 
L 181.055905 81.576826 
L 181.153756 81.41577 
L 181.084231 81.866728 
L 181.171781 81.480192 
L 181.200107 81.512404 
L 181.251607 81.093656 
L 181.256757 81.158079 
L 181.426708 80.095105 
L 181.439584 80.256162 
L 181.542584 81.029234 
L 181.563185 80.964811 
L 181.61726 81.029234 
L 181.661035 81.254713 
L 181.715111 80.739332 
L 181.717686 80.803754 
L 181.836137 80.062894 
L 181.856737 80.417218 
L 182.062739 81.609038 
L 182.098789 81.705672 
L 182.119389 81.89894 
L 182.19149 81.609038 
L 182.214665 81.834517 
L 182.22239 81.931151 
L 182.338266 82.833068 
L 182.361441 82.672012 
L 182.495342 82.027785 
L 182.497917 82.059996 
L 182.533968 81.512404 
L 182.575168 81.641249 
L 182.652418 81.093656 
L 182.716794 81.254713 
L 182.809495 81.319136 
L 182.830095 81.286924 
L 182.976871 82.736434 
L 182.982021 82.768646 
L 183.043822 82.961914 
L 183.085022 82.510955 
L 183.087597 82.510955 
L 183.267849 81.125868 
L 183.291024 81.286924 
L 183.293599 81.351347 
L 183.347674 80.835966 
L 183.388875 80.964811 
L 183.41205 80.900388 
L 183.450675 80.997022 
L 183.553676 80.062894 
L 183.638652 79.901837 
L 183.682427 80.352796 
L 183.736502 80.610486 
L 183.798303 80.191739 
L 183.888429 80.030682 
L 183.939929 80.578275 
L 184.194856 78.065791 
L 184.233481 78.29127 
L 184.279832 78.355693 
L 184.287557 78.323482 
L 184.418883 79.064342 
L 184.496134 79.386456 
L 184.454933 78.903286 
L 184.501284 79.354244 
L 184.63776 110.470392 
L 184.887537 122.710699 
L 185.173364 129.314023 
L 185.974196 137.94666 
L 185.979346 137.914449 
L 186.048871 138.333196 
L 186.054021 138.300985 
L 186.185347 138.816366 
L 186.334699 139.525015 
L 186.350149 139.492804 
L 186.393924 139.557227 
L 186.522675 140.008185 
L 186.53555 139.943763 
L 186.602501 140.201453 
L 186.623101 140.201453 
L 186.744127 140.491355 
L 186.630826 140.169242 
L 186.754427 140.459144 
L 186.805928 140.555778 
L 186.921804 140.749046 
L 186.836828 140.459144 
L 186.929529 140.716835 
L 186.934679 140.652412 
L 187.004204 140.84568 
L 187.032529 140.781257 
L 187.10978 140.910103 
L 187.148405 140.84568 
L 187.179306 140.942314 
L 187.272006 141.135582 
L 187.199906 140.910103 
L 187.300332 141.071159 
L 187.349257 140.974525 
L 187.331232 141.103371 
L 187.416208 141.006737 
L 187.557834 141.071159 
L 187.67371 141.200005 
L 187.702035 141.103371 
L 187.732935 141.296639 
L 187.784436 141.200005 
L 187.846236 141.296639 
L 187.900312 141.264427 
L 188.196439 141.32885 
L 188.250514 141.264427 
L 188.30974 141.393273 
L 188.32004 141.296639 
L 188.36124 141.489907 
L 188.415316 141.457695 
L 188.698568 141.554329 
L 188.806719 141.618752 
L 188.708868 141.457695 
L 188.811869 141.586541 
L 188.876245 141.522118 
L 188.829894 141.618752 
L 188.922595 141.554329 
L 188.994696 141.650963 
L 188.953495 141.489907 
L 189.030746 141.554329 
L 189.095121 141.522118 
L 189.120872 141.650963 
L 189.138897 141.586541 
L 189.229022 141.489907 
L 189.244473 141.457695 
L 189.283098 141.618752 
L 189.334598 141.554329 
L 189.453049 141.683175 
L 189.468499 141.715386 
L 189.5715 141.586541 
L 189.625576 141.747597 
L 189.684801 141.683175 
L 189.764627 141.618752 
L 189.780077 141.747597 
L 189.795527 141.650963 
L 189.839302 141.683175 
L 189.859903 141.586541 
L 189.903678 141.650963 
L 189.947453 141.618752 
L 189.950028 141.715386 
L 190.009254 141.715386 
L 190.019554 141.747597 
L 190.065904 141.618752 
L 190.11483 141.683175 
L 190.163755 141.618752 
L 190.18178 141.747597 
L 190.222981 141.747597 
L 190.225556 141.715386 
L 190.279631 141.844231 
L 190.328557 141.81202 
L 190.331132 141.844231 
L 190.410957 141.715386 
L 190.436707 141.779809 
L 190.542283 141.715386 
L 190.537133 141.844231 
L 190.547433 141.747597 
L 190.591209 141.81202 
L 190.645284 141.683175 
L 190.655584 141.715386 
L 190.815236 141.650963 
L 190.817811 141.586541 
L 190.900211 141.779809 
L 190.923386 141.683175 
L 191.010937 141.81202 
L 191.039262 141.747597 
L 191.520791 141.683175 
L 191.636667 141.554329 
L 191.749968 141.715386 
L 191.752543 141.683175 
L 191.827219 141.586541 
L 191.865844 141.618752 
L 191.870994 141.715386 
L 191.932795 141.554329 
L 191.97657 141.683175 
L 192.043521 141.586541 
L 192.00747 141.715386 
L 192.087296 141.650963 
L 192.169697 141.747597 
L 192.092446 141.618752 
L 192.203172 141.715386 
L 192.277848 141.650963 
L 192.378273 141.586541 
L 192.326773 141.715386 
L 192.388573 141.618752 
L 192.393723 141.715386 
L 192.476124 141.457695 
L 192.499299 141.618752 
L 192.54565 141.522118 
L 192.579125 141.650963 
L 192.60745 141.618752 
L 192.705301 141.715386 
L 192.720751 141.650963 
L 192.782552 141.715386 
L 192.785127 141.779809 
L 192.831477 141.618752 
L 192.890703 141.683175 
L 193.094129 141.618752 
L 193.117304 141.554329 
L 193.173955 141.747597 
L 193.19713 141.650963 
L 193.292406 141.844231 
L 193.310431 141.779809 
L 193.81256 141.844231 
L 193.923286 141.940865 
L 193.925861 141.908654 
L 194.049462 142.005288 
L 194.052037 142.037499 
L 194.106113 141.779809 
L 194.147313 141.844231 
L 194.152463 141.908654 
L 194.268339 141.683175 
L 194.363615 141.81202 
L 194.322414 141.618752 
L 194.384215 141.747597 
L 194.659742 141.779809 
L 194.734418 141.876443 
L 194.672617 141.747597 
L 194.770468 141.779809 
L 194.870894 141.908654 
L 194.888919 141.876443 
L 195.213372 141.779809 
L 195.313797 141.683175 
L 195.221097 141.81202 
L 195.329248 141.715386 
L 195.406498 141.81202 
L 195.409073 141.844231 
L 195.445124 141.715386 
L 195.514649 141.779809 
L 195.743826 141.876443 
L 195.751551 141.908654 
L 195.810777 141.715386 
L 195.846827 141.81202 
L 195.916352 141.844231 
L 195.965278 141.715386 
L 196.18673 141.650963 
L 196.29488 141.554329 
L 196.300031 141.586541 
L 196.348956 141.650963 
L 196.377281 141.522118 
L 196.405606 141.586541 
L 196.493157 141.489907 
L 196.498307 141.618752 
L 196.513757 141.586541 
L 196.536932 141.522118 
L 196.621908 141.618752 
L 196.694009 141.457695 
L 196.737784 141.489907 
L 196.771259 141.554329 
L 196.82791 141.393273 
L 196.840785 141.425484 
L 196.84336 141.393273 
L 196.943786 141.522118 
L 197.093137 141.618752 
L 197.183263 141.715386 
L 197.142062 141.554329 
L 197.209013 141.683175 
L 197.317164 141.554329 
L 197.260513 141.715386 
L 197.327464 141.586541 
L 197.348064 141.650963 
L 197.366089 141.489907 
L 197.43819 141.586541 
L 197.530891 141.522118 
L 197.613291 141.457695 
L 197.546341 141.586541 
L 197.641617 141.522118 
L 197.960919 141.618752 
L 198.071645 141.747597 
L 197.978944 141.586541 
L 198.07422 141.715386 
L 198.164346 141.650963 
L 198.11542 141.747597 
L 198.182371 141.715386 
L 198.223571 141.779809 
L 198.275072 141.618752 
L 198.290522 141.715386 
L 198.396098 141.618752 
L 198.311122 141.747597 
L 198.401248 141.715386 
L 198.568624 141.81202 
L 198.625275 141.844231 
L 198.635575 141.683175 
L 198.671625 141.715386 
L 198.759176 141.650963 
L 198.774626 141.779809 
L 198.784926 141.683175 
L 198.813251 141.779809 
L 198.862177 141.618752 
L 198.895652 141.683175 
L 198.949727 141.554329 
L 198.903377 141.715386 
L 199.011528 141.618752 
L 199.500782 141.554329 
L 199.619233 141.361061 
L 199.822659 141.425484 
L 199.87416 141.393273 
L 199.933385 141.522118 
L 199.938535 141.457695 
L 200.036386 141.650963 
L 200.041536 141.586541 
L 200.190887 141.489907 
L 200.306763 141.425484 
L 200.342814 141.489907 
L 200.381439 141.361061 
L 200.414914 141.393273 
L 200.620916 141.489907 
L 200.726492 141.586541 
L 200.656966 141.393273 
L 200.734217 141.522118 
L 201.274971 141.554329 
L 201.326472 141.522118 
L 201.388272 141.683175 
L 201.442348 141.489907 
L 201.501573 141.618752 
L 201.6947 141.650963 
L 201.7153 141.586541 
L 201.805426 141.747597 
L 201.849201 141.779809 
L 201.921302 141.650963 
L 202.026878 141.715386 
L 201.970227 141.618752 
L 202.032028 141.683175 
L 202.109278 141.586541 
L 202.124728 141.747597 
L 202.140178 141.715386 
L 202.212279 141.779809 
L 202.168504 141.650963 
L 202.248329 141.715386 
L 202.30498 141.618752 
L 202.364205 141.650963 
L 202.474931 141.715386 
L 202.441456 141.618752 
L 202.477506 141.683175 
L 202.500681 141.747597 
L 202.590807 141.650963 
L 203.002811 141.586541 
L 203.005386 141.522118 
L 203.056886 141.683175 
L 203.108386 141.683175 
L 203.497215 141.586541 
L 203.49979 141.522118 
L 203.56674 141.683175 
L 203.607941 141.554329 
L 203.662016 141.650963 
L 203.718666 141.586541 
L 203.744417 141.554329 
L 203.759867 141.683175 
L 203.821667 141.650963 
L 203.932393 141.747597 
L 203.829392 141.586541 
L 203.937543 141.715386 
L 204.321221 141.715386 
L 204.349547 141.522118 
L 204.431947 141.618752 
L 204.444822 141.586541 
L 204.545248 141.747597 
L 204.625074 141.683175 
L 204.570998 141.779809 
L 204.655974 141.747597 
L 205.122053 141.715386 
L 205.232779 141.586541 
L 205.235354 141.618752 
L 205.292004 141.554329 
L 205.40273 141.264427 
L 205.302304 141.618752 
L 205.410455 141.32885 
L 205.523756 141.457695 
L 205.446506 141.296639 
L 205.526331 141.393273 
L 205.637057 141.425484 
L 205.750358 141.554329 
L 206.141761 141.650963 
L 206.249912 141.683175 
L 206.221587 141.554329 
L 206.252487 141.650963 
L 206.365788 141.425484 
L 206.368363 141.457695 
L 206.486814 141.586541 
L 206.499689 141.522118 
L 206.53574 141.650963 
L 206.594965 141.618752 
L 207.24387 141.683175 
L 207.323696 141.81202 
L 207.264471 141.650963 
L 207.357171 141.779809 
L 207.385497 141.683175 
L 207.408672 141.876443 
L 207.465322 141.779809 
L 207.467897 141.844231 
L 207.485922 141.715386 
L 207.573473 141.747597 
L 207.825825 141.650963 
L 207.8284 141.618752 
L 207.867026 141.779809 
L 207.928826 141.715386 
L 207.957151 141.779809 
L 207.985476 141.650963 
L 208.039552 141.715386 
L 208.116803 141.81202 
L 208.214653 141.876443 
L 208.163153 141.715386 
L 208.224953 141.779809 
L 208.335679 141.844231 
L 208.343404 141.81202 
L 208.44898 141.908654 
L 208.513356 141.779809 
L 208.564856 141.844231 
L 208.662707 141.779809 
L 208.773433 141.586541 
L 208.727083 141.81202 
L 208.776008 141.650963 
L 208.804333 141.779809 
L 208.886734 141.650963 
L 208.951109 141.747597 
L 209.000035 141.683175 
L 209.066985 141.779809 
L 209.085011 141.715386 
L 209.177711 141.844231 
L 209.265262 141.908654 
L 209.291012 141.779809 
L 209.401738 141.876443 
L 209.334788 141.747597 
L 209.406888 141.844231 
L 209.507314 141.715386 
L 209.430063 141.876443 
L 209.522764 141.747597 
L 209.584565 141.844231 
L 209.553664 141.683175 
L 209.630915 141.715386 
L 209.872967 141.650963 
L 209.960518 141.554329 
L 209.924467 141.683175 
L 209.986268 141.586541 
L 210.089269 141.715386 
L 210.102144 141.683175 
L 210.184545 141.586541 
L 210.135619 141.779809 
L 210.21287 141.683175 
L 210.753624 141.618752 
L 210.799975 141.650963 
L 210.8695 141.489907 
L 210.913276 141.618752 
L 210.87465 141.457695 
L 210.987951 141.586541 
L 211.384504 141.522118 
L 211.387079 141.457695 
L 211.42313 141.586541 
L 211.492655 141.554329 
L 211.678057 141.650963 
L 211.693507 141.683175 
L 211.729557 141.554329 
L 211.783633 141.650963 
L 211.799083 141.554329 
L 211.822258 141.683175 
L 211.894359 141.650963 
L 212.005084 141.747597 
L 211.904659 141.586541 
L 212.00766 141.683175 
L 212.041135 141.650963 
L 212.09006 141.81202 
L 212.11581 141.715386 
L 212.231686 141.81202 
L 212.270312 141.683175 
L 212.344987 141.779809 
L 212.599914 141.715386 
L 212.68489 141.650963 
L 212.65399 141.779809 
L 212.708065 141.683175 
L 212.738966 141.618752 
L 212.821366 141.779809 
L 212.914067 141.81202 
L 212.934667 141.715386 
L 213.027368 141.876443 
L 212.965567 141.650963 
L 213.053118 141.844231 
L 213.143244 141.747597 
L 213.166419 141.81202 
L 213.364696 141.908654 
L 213.472847 142.069711 
L 213.377571 141.779809 
L 213.483147 142.005288 
L 213.485722 141.973077 
L 213.506322 142.069711 
L 213.593873 142.005288 
L 213.792149 141.940865 
L 213.823049 141.876443 
L 213.88485 142.134133 
L 213.897725 142.069711 
L 214.000726 141.940865 
L 214.013601 142.005288 
L 214.029051 142.069711 
L 214.047076 141.940865 
L 214.121752 141.973077 
L 214.289128 141.940865 
L 214.291703 141.844231 
L 214.397279 142.005288 
L 214.659931 141.940865 
L 214.770657 141.779809 
L 214.747482 141.973077 
L 214.775807 141.81202 
L 214.994684 141.747597 
L 215.05391 141.683175 
L 215.025584 141.779809 
L 215.10541 141.747597 
L 215.182661 141.844231 
L 215.203261 141.908654 
L 215.221286 141.779809 
L 215.293386 141.844231 
L 215.334587 141.81202 
L 215.362912 141.908654 
L 215.401537 141.844231 
L 215.491663 141.940865 
L 215.514838 141.876443 
L 215.625564 141.81202 
L 215.67964 141.683175 
L 215.73629 141.715386 
L 215.790366 141.844231 
L 215.849591 141.81202 
L 215.939717 141.715386 
L 215.883066 141.844231 
L 215.960317 141.779809 
L 216.009242 141.747597 
L 216.076193 141.940865 
L 216.078768 141.844231 
L 216.137993 142.005288 
L 216.184344 142.005288 
L 216.385195 141.940865 
L 216.405796 141.876443 
L 216.439271 142.037499 
L 216.495921 141.940865 
L 216.583472 142.037499 
L 216.570597 141.908654 
L 216.606647 141.973077 
L 216.609222 141.940865 
L 216.671023 142.069711 
L 216.712223 142.037499 
L 216.938825 142.101922 
L 217.039251 142.230767 
L 217.049551 142.134133 
L 217.263278 142.069711 
L 217.289028 141.973077 
L 217.319928 142.101922 
L 217.374004 142.069711 
L 217.410054 141.940865 
L 217.479579 142.134133 
L 217.482154 142.101922 
L 217.878708 142.069711 
L 217.886433 142.101922 
L 217.989434 141.973077 
L 218.089859 142.069711 
L 218.056384 141.940865 
L 218.102735 142.037499 
L 218.246936 141.489907 
L 218.254661 141.522118 
L 218.272686 141.554329 
L 218.321611 141.425484 
L 218.360237 141.457695 
L 218.398862 141.393273 
L 218.434912 141.554329 
L 218.468388 141.489907 
L 218.581688 141.618752 
L 218.525038 141.425484 
L 218.584263 141.586541 
L 218.604864 141.522118 
L 218.658939 141.715386 
L 218.689839 141.650963 
L 218.707865 141.618752 
L 218.80829 141.747597 
L 218.81859 141.650963 
L 218.846916 141.779809 
L 218.916441 141.715386 
L 219.029742 141.81202 
L 219.683798 141.876443 
L 219.763623 141.973077 
L 219.717273 141.844231 
L 219.794523 141.908654 
L 220.090651 141.81202 
L 220.093226 141.779809 
L 220.142151 141.940865 
L 220.196227 141.844231 
L 220.211677 141.81202 
L 220.317253 142.037499 
L 220.319828 141.940865 
L 220.422829 142.069711 
L 220.425404 142.037499 
L 220.523254 142.101922 
L 220.474329 141.940865 
L 220.538705 142.069711 
L 220.716381 142.005288 
L 220.775606 141.876443 
L 220.726681 142.069711 
L 220.827107 141.973077 
L 221.015083 142.069711 
L 221.030534 142.005288 
L 221.128384 142.198556 
L 221.226235 142.069711 
L 221.241685 142.134133 
L 221.25971 142.230767 
L 221.298336 142.037499 
L 221.349836 142.134133 
L 221.452837 142.069711 
L 221.419362 142.198556 
L 221.460562 142.134133 
L 221.524938 142.198556 
L 221.563563 141.973077 
L 221.568713 142.069711 
L 221.573863 142.005288 
L 221.645964 142.166345 
L 221.676864 142.134133 
L 221.952391 142.198556 
L 222.014192 142.29519 
L 221.957541 142.166345 
L 222.063117 142.262979 
L 222.086292 142.198556 
L 222.119768 142.327401 
L 222.173843 142.262979 
L 222.186718 142.230767 
L 222.284569 142.391824 
L 222.39272 142.230767 
L 222.39787 142.262979 
L 223.260502 142.166345 
L 223.281102 142.101922 
L 223.306852 142.262979 
L 223.373803 142.134133 
L 223.394403 142.101922 
L 223.494829 142.262979 
L 223.507704 142.166345 
L 223.556629 142.29519 
L 223.605555 142.230767 
L 224.120559 142.166345 
L 224.123134 142.101922 
L 224.164334 142.230767 
L 224.22871 142.230767 
L 224.28536 142.166345 
L 224.30081 142.327401 
L 224.336861 142.262979 
L 224.455312 142.359613 
L 224.553163 142.456247 
L 224.658738 142.520669 
L 224.589213 142.391824 
L 224.661313 142.456247 
L 224.733414 142.359613 
L 224.692214 142.520669 
L 224.769464 142.456247 
L 224.857015 142.520669 
L 224.877615 142.488458 
L 224.923966 142.391824 
L 224.89049 142.520669 
L 224.990916 142.424035 
L 225.299919 142.520669 
L 225.415795 142.746149 
L 225.307644 142.488458 
L 225.42352 142.681726 
L 225.585746 142.585092 
L 225.614071 142.520669 
L 225.675872 142.681726 
L 225.693897 142.617303 
L 226.237226 142.713937 
L 226.296452 142.746149 
L 226.242376 142.649515 
L 226.345377 142.681726 
L 226.788281 142.585092 
L 226.790856 142.520669 
L 226.798581 142.649515 
L 226.899007 142.552881 
L 226.989133 142.585092 
L 226.955657 142.456247 
L 227.004583 142.552881 
L 227.009733 142.488458 
L 227.084408 142.649515 
L 227.112734 142.552881 
L 227.135909 142.649515 
L 227.215734 142.262979 
L 227.527312 142.359613 
L 227.638038 142.456247 
L 227.535037 142.327401 
L 227.643188 142.424035 
L 228.098967 142.359613 
L 228.101542 142.29519 
L 228.181367 142.488458 
L 228.204542 142.456247 
L 228.279218 142.520669 
L 228.219993 142.424035 
L 228.312693 142.456247 
L 228.384794 142.391824 
L 228.330719 142.488458 
L 228.423419 142.424035 
L 228.46977 142.585092 
L 228.54187 142.520669 
L 228.755597 142.617303 
L 228.840573 142.713937 
L 228.773622 142.552881 
L 228.868898 142.649515 
L 229.002799 142.713937 
L 229.005374 142.77836 
L 229.015674 142.649515 
L 229.11095 142.649515 
L 229.476603 142.617303 
L 229.569304 142.520669 
L 229.587329 142.585092 
L 229.790756 142.681726 
L 229.793331 142.713937 
L 229.886031 142.552881 
L 229.898906 142.649515 
L 230.012207 142.520669 
L 230.014782 142.552881 
L 230.094608 142.681726 
L 230.022507 142.520669 
L 230.128083 142.585092 
L 230.455111 142.617303 
L 230.457686 142.713937 
L 230.537512 142.488458 
L 230.565837 142.617303 
L 230.607037 142.488458 
L 230.684288 142.520669 
L 230.722913 142.585092 
L 230.774414 142.456247 
L 230.789864 142.456247 
L 230.851664 142.520669 
L 230.854239 142.585092 
L 230.898015 142.424035 
L 230.96239 142.520669 
L 230.99329 142.456247 
L 230.995865 142.391824 
L 231.006165 142.552881 
L 231.101441 142.488458 
L 231.188992 142.585092 
L 231.250792 142.617303 
L 231.281693 142.488458 
L 231.297143 142.552881 
L 231.490269 142.649515 
L 231.59842 142.713937 
L 231.49542 142.585092 
L 231.60357 142.681726 
L 231.709146 142.585092 
L 231.629321 142.713937 
L 231.716871 142.649515 
L 231.915148 142.585092 
L 231.982098 142.488458 
L 232.020724 142.649515 
L 232.023299 142.649515 
L 232.108275 142.585092 
L 232.043899 142.681726 
L 232.134025 142.649515 
L 232.334876 142.713937 
L 232.337451 142.810571 
L 232.440452 142.617303 
L 232.443027 142.681726 
L 232.450752 142.617303 
L 232.530578 142.520669 
L 232.561478 142.585092 
L 232.566628 142.649515 
L 232.612979 142.520669 
L 232.667054 142.617303 
L 232.780355 142.488458 
L 232.896231 142.585092 
L 232.940006 142.520669 
L 232.968332 142.649515 
L 233.004382 142.585092 
L 233.130558 142.77836 
L 233.594062 142.842783 
L 233.624962 142.939417 
L 233.697063 142.746149 
L 233.702213 142.77836 
L 234.497894 142.681726 
L 234.57257 142.649515 
L 234.508194 142.746149 
L 234.606045 142.713937 
L 234.675571 142.649515 
L 234.783721 142.552881 
L 234.737371 142.713937 
L 234.786297 142.617303 
L 234.930498 142.681726 
L 234.974273 142.77836 
L 235.036074 142.617303 
L 235.041224 142.681726 
L 235.074699 142.617303 
L 235.136499 142.77836 
L 235.146799 142.713937 
L 235.242075 142.810571 
L 235.164825 142.681726 
L 235.257525 142.77836 
L 235.2704 142.713937 
L 235.345076 142.939417 
L 235.363101 142.842783 
L 235.473827 142.939417 
L 235.579403 143.003839 
L 235.481552 142.907205 
L 235.584553 142.971628 
L 235.932181 142.874994 
L 235.975956 142.842783 
L 236.001706 142.939417 
L 236.037757 142.939417 
L 236.120157 142.907205 
L 236.218008 142.746149 
L 236.233458 142.77836 
L 236.545036 142.746149 
L 236.617137 142.585092 
L 236.573361 142.77836 
L 236.658337 142.617303 
L 237.412818 142.681726 
L 237.446293 142.77836 
L 237.448868 142.617303 
L 237.526119 142.746149 
L 237.636845 142.649515 
L 237.572469 142.77836 
L 237.63942 142.681726 
L 237.876322 142.585092 
L 237.891772 142.681726 
L 237.994773 142.424035 
L 238.084899 142.617303 
L 238.108074 142.552881 
L 238.20335 142.520669 
L 238.167299 142.649515 
L 238.216225 142.585092 
L 238.2291 142.552881 
L 238.339826 142.746149 
L 238.386176 142.649515 
L 238.450552 142.746149 
L 238.540677 142.842783 
L 238.458277 142.713937 
L 238.561278 142.77836 
L 238.674578 142.649515 
L 238.677153 142.713937 
L 238.83423 142.617303 
L 238.937231 142.585092 
L 238.84453 142.681726 
L 238.942381 142.649515 
L 238.952681 142.681726 
L 238.988731 142.585092 
L 239.047957 142.585092 
L 239.114907 142.681726 
L 239.230783 142.842783 
L 239.122632 142.649515 
L 239.235933 142.810571 
L 239.320909 142.713937 
L 239.426485 142.681726 
L 239.336359 142.77836 
L 239.42906 142.746149 
L 239.990414 142.810571 
L 240.047065 142.746149 
L 240.103715 142.907205 
L 240.168091 142.77836 
L 240.217016 142.810571 
L 240.641895 142.874994 
L 240.757771 143.003839 
L 240.811846 142.842783 
L 240.871071 142.939417 
L 240.932872 143.003839 
L 241.004973 143.132685 
L 241.046173 143.068262 
L 241.203249 142.971628 
L 241.29595 142.907205 
L 241.210974 143.036051 
L 241.308825 142.971628 
L 241.332 143.068262 
L 241.334575 142.907205 
L 241.419551 143.003839 
L 241.442726 142.874994 
L 241.532852 142.939417 
L 241.602377 143.036051 
L 241.617828 142.971628 
L 241.718253 143.100473 
L 241.723403 143.003839 
L 241.733704 143.132685 
L 241.828979 143.100473 
L 241.90623 143.164896 
L 241.836704 143.068262 
L 241.93713 143.100473 
L 242.032406 143.036051 
L 241.970606 143.164896 
L 242.047856 143.100473 
L 242.145707 143.003839 
L 242.253858 142.907205 
L 242.163732 143.068262 
L 242.261583 142.939417 
L 242.369734 143.068262 
L 242.284758 142.874994 
L 242.380034 143.036051 
L 242.524235 143.132685 
L 242.56801 143.197107 
L 242.619511 143.036051 
L 242.632386 143.132685 
L 242.663286 143.164896 
L 242.745687 143.068262 
L 242.848688 143.132685 
L 242.763712 143.036051 
L 242.858988 143.100473 
L 242.913063 143.003839 
L 242.946539 143.164896 
L 242.964564 143.164896 
L 243.415192 143.26153 
L 243.461543 143.197107 
L 243.525918 143.325953 
L 243.549093 143.26153 
L 243.546518 143.358164 
L 243.634069 143.325953 
L 243.664969 143.390375 
L 243.724195 143.26153 
L 243.74222 143.325953 
L 243.840071 143.164896 
L 243.855521 143.26153 
L 243.922472 143.164896 
L 243.888996 143.293741 
L 243.968822 143.229319 
L 244.038347 143.325953 
L 244.040923 143.164896 
L 244.079548 143.293741 
L 244.113023 143.164896 
L 244.125898 143.325953 
L 244.190274 143.293741 
L 244.303575 143.422587 
L 244.308725 143.390375 
L 244.406576 143.325953 
L 244.355075 143.454798 
L 244.422026 143.358164 
L 244.463226 143.325953 
L 244.535327 143.422587 
L 244.615152 143.293741 
L 244.648627 143.325953 
L 245.428859 143.422587 
L 245.457184 143.487009 
L 245.500959 143.325953 
L 245.534435 143.358164 
L 245.60396 143.325953 
L 245.555035 143.454798 
L 245.640011 143.422587 
L 245.820262 143.487009 
L 245.848587 143.454798 
L 245.930988 143.583643 
L 245.982488 143.454798 
L 246.044289 143.487009 
L 246.085489 143.519221 
L 246.095789 143.422587 
L 246.149865 143.422587 
L 246.497493 143.422587 
L 246.572168 143.229319 
L 246.610794 143.293741 
L 246.718944 143.390375 
L 246.72667 143.358164 
L 246.785895 143.293741 
L 246.734395 143.422587 
L 246.837395 143.358164 
L 247.571276 143.454798 
L 247.651102 143.487009 
L 247.674277 143.358164 
L 247.676852 143.422587 
L 247.759253 143.325953 
L 247.730928 143.519221 
L 247.792728 143.358164 
L 247.821054 143.454798 
L 247.831354 143.325953 
L 247.903454 143.358164 
L 247.99873 143.390375 
L 247.954955 143.26153 
L 248.011605 143.358164 
L 248.130056 143.229319 
L 248.209882 143.26153 
L 248.173831 143.100473 
L 248.240782 143.229319 
L 248.338633 143.100473 
L 248.354083 143.164896 
L 248.356658 143.197107 
L 248.359233 143.164896 
" clip-path="url(#pc11ad707e1)" style="fill: none; stroke: #000000; stroke-opacity: 0.5; stroke-width: 1.5; stroke-linecap: square"/>
   </g>
   <g id="patch_3">
    <path d="M 35.304688 177.170401 
L 35.304688 10.850401 
" style="fill: none; stroke: #000000; stroke-width: 0.8; stroke-linejoin: miter; stroke-linecap: square"/>
   </g>
   <g id="patch_4">
    <path d="M 35.304688 177.170401 
L 258.504687 177.170401 
" style="fill: none; stroke: #000000; stroke-width: 0.8; stroke-linejoin: miter; stroke-linecap: square"/>
   </g>
  </g>
 </g>
 <defs>
  <clipPath id="pc11ad707e1">
   <rect x="35.304688" y="10.850401" width="223.2" height="166.32"/>
  </clipPath>
 </defs>
</svg>
