<?xml version="1.0" encoding="utf-8" standalone="no"?>
<!DOCTYPE svg PUBLIC "-//W3C//DTD SVG 1.1//EN"
  "http://www.w3.org/Graphics/SVG/1.1/DTD/svg11.dtd">
<svg xmlns:xlink="http://www.w3.org/1999/xlink" width="272.067187pt" height="197.398125pt" viewBox="0 0 272.067187 197.398125" xmlns="http://www.w3.org/2000/svg" version="1.1">
 <metadata>
  <rdf:RDF xmlns:dc="http://purl.org/dc/elements/1.1/" xmlns:cc="http://creativecommons.org/ns#" xmlns:rdf="http://www.w3.org/1999/02/22-rdf-syntax-ns#">
   <cc:Work>
    <dc:type rdf:resource="http://purl.org/dc/dcmitype/StillImage"/>
    <dc:date>2025-12-19T12:25:43.302926</dc:date>
    <dc:format>image/svg+xml</dc:format>
    <dc:creator>
     <cc:Agent>
      <dc:title>Matplotlib v3.10.7, https://matplotlib.org/</dc:title>
     </cc:Agent>
    </dc:creator>
   </cc:Work>
  </rdf:RDF>
 </metadata>
 <defs>
  <style type="text/css">*{stroke-linejoin: round; stroke-linecap: butt}</style>
 </defs>
 <g id="figure_1">
  <g id="patch_1">
   <path d="M 0 197.398125 
L 272.067187 197.398125 
L 272.067187 0 
L 0 0 
z
" style="fill: #ffffff"/>
  </g>
  <g id="axes_1">
   <g id="patch_2">
    <path d="M 41.667188 173.52 
L 264.867188 173.52 
L 264.867188 7.2 
L 41.667188 7.2 
z
" style="fill: #ffffff"/>
   </g>
   <g id="matplotlib.axis_1">
    <g id="xtick_1">
     <g id="line2d_1">
      <defs>
       <path id="mb455fa2d36" d="M 0 0 
L 0 3.5 
" style="stroke: #000000; stroke-width: 0.8"/>
      </defs>
      <g>
       <use xlink:href="#mb455fa2d36" x="82.712896" y="173.52" style="stroke: #000000; stroke-width: 0.8"/>
      </g>
     </g>
     <g id="text_1">
      <!-- 1 -->
      <g transform="translate(79.531646 188.118438) scale(0.1 -0.1)">
       <defs>
        <path id="DejaVuSans-31" d="M 794 531 
L 1825 531 
L 1825 4091 
L 703 3866 
L 703 4441 
L 1819 4666 
L 2450 4666 
L 2450 531 
L 3481 531 
L 3481 0 
L 794 0 
L 794 531 
z
" transform="scale(0.015625)"/>
       </defs>
       <use xlink:href="#DejaVuSans-31"/>
      </g>
     </g>
    </g>
    <g id="xtick_2">
     <g id="line2d_2">
      <g>
       <use xlink:href="#mb455fa2d36" x="134.213319" y="173.52" style="stroke: #000000; stroke-width: 0.8"/>
      </g>
     </g>
     <g id="text_2">
      <!-- 2 -->
      <g transform="translate(131.032069 188.118438) scale(0.1 -0.1)">
       <defs>
        <path id="DejaVuSans-32" d="M 1228 531 
L 3431 531 
L 3431 0 
L 469 0 
L 469 531 
Q 828 903 1448 1529 
Q 2069 2156 2228 2338 
Q 2531 2678 2651 2914 
Q 2772 3150 2772 3378 
Q 2772 3750 2511 3984 
Q 2250 4219 1831 4219 
Q 1534 4219 1204 4116 
Q 875 4013 500 3803 
L 500 4441 
Q 881 4594 1212 4672 
Q 1544 4750 1819 4750 
Q 2544 4750 2975 4387 
Q 3406 4025 3406 3419 
Q 3406 3131 3298 2873 
Q 3191 2616 2906 2266 
Q 2828 2175 2409 1742 
Q 1991 1309 1228 531 
z
" transform="scale(0.015625)"/>
       </defs>
       <use xlink:href="#DejaVuSans-32"/>
      </g>
     </g>
    </g>
    <g id="xtick_3">
     <g id="line2d_3">
      <g>
       <use xlink:href="#mb455fa2d36" x="185.713741" y="173.52" style="stroke: #000000; stroke-width: 0.8"/>
      </g>
     </g>
     <g id="text_3">
      <!-- 3 -->
      <g transform="translate(182.532491 188.118438) scale(0.1 -0.1)">
       <defs>
        <path id="DejaVuSans-33" d="M 2597 2516 
Q 3050 2419 3304 2112 
Q 3559 1806 3559 1356 
Q 3559 666 3084 287 
Q 2609 -91 1734 -91 
Q 1441 -91 1130 -33 
Q 819 25 488 141 
L 488 750 
Q 750 597 1062 519 
Q 1375 441 1716 441 
Q 2309 441 2620 675 
Q 2931 909 2931 1356 
Q 2931 1769 2642 2001 
Q 2353 2234 1838 2234 
L 1294 2234 
L 1294 2753 
L 1863 2753 
Q 2328 2753 2575 2939 
Q 2822 3125 2822 3475 
Q 2822 3834 2567 4026 
Q 2313 4219 1838 4219 
Q 1578 4219 1281 4162 
Q 984 4106 628 3988 
L 628 4550 
Q 988 4650 1302 4700 
Q 1616 4750 1894 4750 
Q 2613 4750 3031 4423 
Q 3450 4097 3450 3541 
Q 3450 3153 3228 2886 
Q 3006 2619 2597 2516 
z
" transform="scale(0.015625)"/>
       </defs>
       <use xlink:href="#DejaVuSans-33"/>
      </g>
     </g>
    </g>
    <g id="xtick_4">
     <g id="line2d_4">
      <g>
       <use xlink:href="#mb455fa2d36" x="237.214164" y="173.52" style="stroke: #000000; stroke-width: 0.8"/>
      </g>
     </g>
     <g id="text_4">
      <!-- 4 -->
      <g transform="translate(234.032914 188.118438) scale(0.1 -0.1)">
       <defs>
        <path id="DejaVuSans-34" d="M 2419 4116 
L 825 1625 
L 2419 1625 
L 2419 4116 
z
M 2253 4666 
L 3047 4666 
L 3047 1625 
L 3713 1625 
L 3713 1100 
L 3047 1100 
L 3047 0 
L 2419 0 
L 2419 1100 
L 313 1100 
L 313 1709 
L 2253 4666 
z
" transform="scale(0.015625)"/>
       </defs>
       <use xlink:href="#DejaVuSans-34"/>
      </g>
     </g>
    </g>
   </g>
   <g id="matplotlib.axis_2">
    <g id="ytick_1">
     <g id="line2d_5">
      <defs>
       <path id="mdb47807417" d="M 0 0 
L -3.5 0 
" style="stroke: #000000; stroke-width: 0.8"/>
      </defs>
      <g>
       <use xlink:href="#mdb47807417" x="41.667188" y="169.64212" style="stroke: #000000; stroke-width: 0.8"/>
      </g>
     </g>
     <g id="text_5">
      <!-- −100 -->
      <g transform="translate(7.2 173.441339) scale(0.1 -0.1)">
       <defs>
        <path id="DejaVuSans-2212" d="M 678 2272 
L 4684 2272 
L 4684 1741 
L 678 1741 
L 678 2272 
z
" transform="scale(0.015625)"/>
        <path id="DejaVuSans-30" d="M 2034 4250 
Q 1547 4250 1301 3770 
Q 1056 3291 1056 2328 
Q 1056 1369 1301 889 
Q 1547 409 2034 409 
Q 2525 409 2770 889 
Q 3016 1369 3016 2328 
Q 3016 3291 2770 3770 
Q 2525 4250 2034 4250 
z
M 2034 4750 
Q 2819 4750 3233 4129 
Q 3647 3509 3647 2328 
Q 3647 1150 3233 529 
Q 2819 -91 2034 -91 
Q 1250 -91 836 529 
Q 422 1150 422 2328 
Q 422 3509 836 4129 
Q 1250 4750 2034 4750 
z
" transform="scale(0.015625)"/>
       </defs>
       <use xlink:href="#DejaVuSans-2212"/>
       <use xlink:href="#DejaVuSans-31" transform="translate(83.789062 0)"/>
       <use xlink:href="#DejaVuSans-30" transform="translate(147.412109 0)"/>
       <use xlink:href="#DejaVuSans-30" transform="translate(211.035156 0)"/>
      </g>
     </g>
    </g>
    <g id="ytick_2">
     <g id="line2d_6">
      <g>
       <use xlink:href="#mdb47807417" x="41.667188" y="148.437235" style="stroke: #000000; stroke-width: 0.8"/>
      </g>
     </g>
     <g id="text_6">
      <!-- −80 -->
      <g transform="translate(13.5625 152.236454) scale(0.1 -0.1)">
       <defs>
        <path id="DejaVuSans-38" d="M 2034 2216 
Q 1584 2216 1326 1975 
Q 1069 1734 1069 1313 
Q 1069 891 1326 650 
Q 1584 409 2034 409 
Q 2484 409 2743 651 
Q 3003 894 3003 1313 
Q 3003 1734 2745 1975 
Q 2488 2216 2034 2216 
z
M 1403 2484 
Q 997 2584 770 2862 
Q 544 3141 544 3541 
Q 544 4100 942 4425 
Q 1341 4750 2034 4750 
Q 2731 4750 3128 4425 
Q 3525 4100 3525 3541 
Q 3525 3141 3298 2862 
Q 3072 2584 2669 2484 
Q 3125 2378 3379 2068 
Q 3634 1759 3634 1313 
Q 3634 634 3220 271 
Q 2806 -91 2034 -91 
Q 1263 -91 848 271 
Q 434 634 434 1313 
Q 434 1759 690 2068 
Q 947 2378 1403 2484 
z
M 1172 3481 
Q 1172 3119 1398 2916 
Q 1625 2713 2034 2713 
Q 2441 2713 2670 2916 
Q 2900 3119 2900 3481 
Q 2900 3844 2670 4047 
Q 2441 4250 2034 4250 
Q 1625 4250 1398 4047 
Q 1172 3844 1172 3481 
z
" transform="scale(0.015625)"/>
       </defs>
       <use xlink:href="#DejaVuSans-2212"/>
       <use xlink:href="#DejaVuSans-38" transform="translate(83.789062 0)"/>
       <use xlink:href="#DejaVuSans-30" transform="translate(147.412109 0)"/>
      </g>
     </g>
    </g>
    <g id="ytick_3">
     <g id="line2d_7">
      <g>
       <use xlink:href="#mdb47807417" x="41.667188" y="127.23235" style="stroke: #000000; stroke-width: 0.8"/>
      </g>
     </g>
     <g id="text_7">
      <!-- −60 -->
      <g transform="translate(13.5625 131.031568) scale(0.1 -0.1)">
       <defs>
        <path id="DejaVuSans-36" d="M 2113 2584 
Q 1688 2584 1439 2293 
Q 1191 2003 1191 1497 
Q 1191 994 1439 701 
Q 1688 409 2113 409 
Q 2538 409 2786 701 
Q 3034 994 3034 1497 
Q 3034 2003 2786 2293 
Q 2538 2584 2113 2584 
z
M 3366 4563 
L 3366 3988 
Q 3128 4100 2886 4159 
Q 2644 4219 2406 4219 
Q 1781 4219 1451 3797 
Q 1122 3375 1075 2522 
Q 1259 2794 1537 2939 
Q 1816 3084 2150 3084 
Q 2853 3084 3261 2657 
Q 3669 2231 3669 1497 
Q 3669 778 3244 343 
Q 2819 -91 2113 -91 
Q 1303 -91 875 529 
Q 447 1150 447 2328 
Q 447 3434 972 4092 
Q 1497 4750 2381 4750 
Q 2619 4750 2861 4703 
Q 3103 4656 3366 4563 
z
" transform="scale(0.015625)"/>
       </defs>
       <use xlink:href="#DejaVuSans-2212"/>
       <use xlink:href="#DejaVuSans-36" transform="translate(83.789062 0)"/>
       <use xlink:href="#DejaVuSans-30" transform="translate(147.412109 0)"/>
      </g>
     </g>
    </g>
    <g id="ytick_4">
     <g id="line2d_8">
      <g>
       <use xlink:href="#mdb47807417" x="41.667188" y="106.027464" style="stroke: #000000; stroke-width: 0.8"/>
      </g>
     </g>
     <g id="text_8">
      <!-- −40 -->
      <g transform="translate(13.5625 109.826683) scale(0.1 -0.1)">
       <use xlink:href="#DejaVuSans-2212"/>
       <use xlink:href="#DejaVuSans-34" transform="translate(83.789062 0)"/>
       <use xlink:href="#DejaVuSans-30" transform="translate(147.412109 0)"/>
      </g>
     </g>
    </g>
    <g id="ytick_5">
     <g id="line2d_9">
      <g>
       <use xlink:href="#mdb47807417" x="41.667188" y="84.822579" style="stroke: #000000; stroke-width: 0.8"/>
      </g>
     </g>
     <g id="text_9">
      <!-- −20 -->
      <g transform="translate(13.5625 88.621797) scale(0.1 -0.1)">
       <use xlink:href="#DejaVuSans-2212"/>
       <use xlink:href="#DejaVuSans-32" transform="translate(83.789062 0)"/>
       <use xlink:href="#DejaVuSans-30" transform="translate(147.412109 0)"/>
      </g>
     </g>
    </g>
    <g id="ytick_6">
     <g id="line2d_10">
      <g>
       <use xlink:href="#mdb47807417" x="41.667188" y="63.617693" style="stroke: #000000; stroke-width: 0.8"/>
      </g>
     </g>
     <g id="text_10">
      <!-- 0 -->
      <g transform="translate(28.304688 67.416912) scale(0.1 -0.1)">
       <use xlink:href="#DejaVuSans-30"/>
      </g>
     </g>
    </g>
    <g id="ytick_7">
     <g id="line2d_11">
      <g>
       <use xlink:href="#mdb47807417" x="41.667188" y="42.412808" style="stroke: #000000; stroke-width: 0.8"/>
      </g>
     </g>
     <g id="text_11">
      <!-- 20 -->
      <g transform="translate(21.942188 46.212026) scale(0.1 -0.1)">
       <use xlink:href="#DejaVuSans-32"/>
       <use xlink:href="#DejaVuSans-30" transform="translate(63.623047 0)"/>
      </g>
     </g>
    </g>
    <g id="ytick_8">
     <g id="line2d_12">
      <g>
       <use xlink:href="#mdb47807417" x="41.667188" y="21.207922" style="stroke: #000000; stroke-width: 0.8"/>
      </g>
     </g>
     <g id="text_12">
      <!-- 40 -->
      <g transform="translate(21.942188 25.007141) scale(0.1 -0.1)">
       <use xlink:href="#DejaVuSans-34"/>
       <use xlink:href="#DejaVuSans-30" transform="translate(63.623047 0)"/>
      </g>
     </g>
    </g>
   </g>
   <g id="line2d_13">
    <path d="M 51.812642 132.95679 
L 51.882168 133.021502 
L 51.877018 132.892078 
L 51.923368 132.95679 
L 51.933668 132.892078 
L 51.980018 133.021502 
L 52.034094 132.95679 
L 52.19117 133.053858 
L 52.198895 133.021502 
L 52.304471 133.118571 
L 52.371422 133.053858 
L 52.397172 133.215639 
L 52.415197 133.118571 
L 52.551673 133.150927 
L 52.649524 133.280351 
L 52.595448 133.118571 
L 52.662399 133.247995 
L 52.762825 133.183283 
L 52.701024 133.312707 
L 52.773125 133.247995 
L 52.889001 133.183283 
L 52.986852 133.118571 
L 52.901876 133.247995 
L 52.999727 133.150927 
L 53.012602 133.215639 
L 53.051227 133.086214 
L 53.107878 133.118571 
L 53.190278 132.989146 
L 53.113028 133.150927 
L 53.223754 133.021502 
L 53.298429 133.150927 
L 53.267529 132.989146 
L 53.33963 133.086214 
L 53.398855 133.021502 
L 53.440055 133.150927 
L 53.450355 133.053858 
L 53.507006 133.150927 
L 53.561081 133.086214 
L 53.671807 133.021502 
L 53.568806 133.118571 
L 53.674382 133.053858 
L 53.872659 133.021502 
L 53.983385 132.892078 
L 53.98596 132.924434 
L 54.099261 133.021502 
L 54.199687 133.053858 
L 54.168786 132.924434 
L 54.207412 133.021502 
L 54.276937 132.924434 
L 54.323288 132.95679 
L 54.413413 133.053858 
L 54.428864 132.924434 
L 54.434014 132.989146 
L 54.55504 132.859722 
L 54.56534 132.95679 
L 54.63744 132.79501 
L 54.66319 132.827366 
L 54.691516 132.892078 
L 54.779066 132.730297 
L 54.807392 132.859722 
L 54.892367 132.827366 
L 54.987643 132.730297 
L 55.008243 132.762654 
L 55.22712 132.697941 
L 55.229695 132.633229 
L 55.294071 132.827366 
L 55.335271 132.697941 
L 55.422822 132.79501 
L 55.448572 132.730297 
L 55.618523 132.665585 
L 55.726674 132.600873 
L 55.651999 132.697941 
L 55.729249 132.633229 
L 56.185028 132.730297 
L 56.259704 132.762654 
L 56.231378 132.633229 
L 56.293179 132.697941 
L 56.37558 132.665585 
L 56.331804 132.827366 
L 56.398755 132.730297 
L 56.409055 132.79501 
L 56.47343 132.665585 
L 56.506906 132.730297 
L 56.612481 132.633229 
L 56.535231 132.762654 
L 56.620207 132.665585 
L 56.627932 132.633229 
L 56.738657 132.762654 
L 56.841658 132.633229 
L 56.805608 132.79501 
L 56.849383 132.665585 
L 57.01161 136.062975 
L 57.225336 141.272305 
L 57.230487 141.337017 
L 57.482839 144.896187 
L 57.485414 144.863831 
L 57.542064 145.543308 
L 57.964368 149.458395 
L 57.966943 149.426039 
L 58.036468 149.943736 
L 58.057068 150.040805 
L 58.26307 151.23798 
L 58.286245 151.302692 
L 58.412421 151.949814 
L 58.427871 152.046882 
L 58.595248 152.791072 
L 58.597823 152.758716 
L 58.669923 153.049921 
L 58.680223 153.049921 
L 58.803824 153.502906 
L 58.806399 153.47055 
L 58.829575 153.567618 
L 58.971201 153.988247 
L 58.973776 153.955891 
L 59.043301 154.182384 
L 59.071627 154.117672 
L 59.208103 154.505945 
L 59.308529 154.344164 
L 59.213253 154.538301 
L 59.321404 154.408877 
L 59.434705 154.505945 
L 59.334279 154.37652 
L 59.43728 154.473589 
L 59.517105 154.408877 
L 59.455305 154.538301 
L 59.545431 154.505945 
L 59.614956 154.700081 
L 59.658731 154.603013 
L 59.743707 154.700081 
L 59.846708 154.894218 
L 59.751432 154.667725 
L 59.864733 154.861862 
L 59.926534 154.829506 
L 59.939409 154.991286 
L 59.962584 154.95893 
L 59.972884 154.926574 
L 60.075885 155.055998 
L 60.081035 154.991286 
L 60.178886 155.153067 
L 60.382312 155.185423 
L 60.485313 155.282491 
L 60.493038 155.217779 
L 60.549689 155.314847 
L 60.608914 155.282491 
L 60.65784 155.185423 
L 60.626939 155.314847 
L 60.71964 155.250135 
L 60.768566 155.314847 
L 60.809766 155.185423 
L 60.830366 155.250135 
L 60.946242 155.185423 
L 61.046668 155.12071 
L 60.992592 155.217779 
L 61.054393 155.153067 
L 61.116193 155.250135 
L 61.100743 155.088354 
L 61.167694 155.217779 
L 61.237219 155.153067 
L 61.30932 155.088354 
L 61.311895 155.185423 
L 61.347945 155.12071 
L 61.453521 155.055998 
L 61.556522 154.95893 
L 61.466396 155.12071 
L 61.566822 154.991286 
L 61.592572 155.023642 
L 61.685273 154.894218 
L 61.703298 154.991286 
L 61.744499 154.861862 
L 61.795999 154.894218 
L 61.91445 154.79715 
L 62.197702 154.732437 
L 62.311003 154.603013 
L 62.326453 154.667725 
L 62.365079 154.538301 
L 62.416579 154.603013 
L 62.50413 154.473589 
L 62.52988 154.538301 
L 62.653481 154.37652 
L 62.746182 154.473589 
L 62.694681 154.344164 
L 62.769357 154.441233 
L 62.820857 154.37652 
L 62.921283 154.311808 
L 62.929008 154.37652 
L 62.949608 154.408877 
L 62.939308 154.279452 
L 63.032009 154.344164 
L 63.14531 154.247096 
L 63.163335 154.279452 
L 63.194235 154.150028 
L 63.250886 154.21474 
L 63.371912 154.05296 
L 63.454313 154.150028 
L 63.474913 154.020603 
L 63.480063 154.020603 
L 63.516113 154.085316 
L 63.593364 153.923535 
L 63.606239 154.05296 
L 63.70409 153.923535 
L 63.716965 154.020603 
L 63.742715 153.891179 
L 63.809666 153.891179 
L 63.892066 153.858823 
L 63.850866 153.955891 
L 63.915241 153.923535 
L 63.917816 153.988247 
L 63.997642 153.826467 
L 64.023392 153.858823 
L 64.141843 153.761755 
L 64.157293 153.826467 
L 64.208794 153.664686 
L 64.247419 153.729399 
L 64.342695 153.599974 
L 64.363295 153.664686 
L 64.422521 153.567618 
L 64.443121 153.502906 
L 64.461146 153.599974 
L 64.533246 153.535262 
L 64.638822 153.63233 
L 64.582172 153.502906 
L 64.646547 153.599974 
L 64.710923 153.535262 
L 64.803624 153.47055 
L 64.723798 153.599974 
L 64.821649 153.502906 
L 65.025076 153.405838 
L 65.192452 152.532223 
L 65.202752 152.564579 
L 65.254252 152.467511 
L 65.367553 152.273375 
L 65.375278 152.305731 
L 65.393304 152.338087 
L 65.444804 152.208663 
L 65.478279 152.241019 
L 65.506604 152.305731 
L 65.594155 152.111594 
L 65.60703 152.208663 
L 65.676556 152.079238 
L 65.702306 152.079238 
L 65.823332 152.046882 
L 65.936633 151.949814 
L 66.732315 152.014526 
L 66.81214 152.079238 
L 66.778665 151.949814 
L 66.84304 152.046882 
L 66.935741 151.917458 
L 66.956341 151.949814 
L 67.195818 152.046882 
L 67.218994 152.111594 
L 67.200968 152.014526 
L 67.262769 152.046882 
L 67.399245 145.996294 
L 67.615547 142.016495 
L 68.176901 136.289467 
L 68.179476 136.354179 
L 68.259302 135.77177 
L 68.264452 135.77177 
L 68.449854 134.671663 
L 68.457579 134.704019 
L 68.460154 134.736375 
L 68.524529 134.28339 
L 68.537404 134.348102 
L 68.720231 133.442131 
L 68.764006 133.345063 
L 68.915932 132.730297 
L 68.921083 132.762654 
L 68.946833 132.665585 
L 68.954558 132.697941 
L 69.085884 132.277312 
L 69.088459 132.309668 
L 69.17601 132.018464 
L 69.21721 131.921395 
L 69.235235 131.953751 
L 69.353686 131.597834 
L 69.430937 131.500766 
L 69.546813 131.241917 
L 69.557113 131.30663 
L 69.603463 131.209561 
L 69.662689 131.080137 
L 69.613763 131.241917 
L 69.716764 131.112493 
L 69.778565 131.144849 
L 69.78114 130.983069 
L 69.82234 131.047781 
L 69.907316 130.853644 
L 69.945941 130.886 
L 70.023192 130.821288 
L 70.136492 130.691864 
L 70.159668 130.821288 
L 70.221468 130.627152 
L 70.247218 130.72422 
L 70.357944 130.465371 
L 70.252368 130.756576 
L 70.370819 130.56244 
L 70.643772 130.627152 
L 70.751923 130.691864 
L 70.672097 130.594796 
L 70.754498 130.627152 
L 71.189676 130.56244 
L 71.302977 130.465371 
L 71.408553 130.594796 
L 71.416278 130.530083 
L 71.516704 130.691864 
L 71.529579 130.594796 
L 71.596529 130.56244 
L 71.62743 130.691864 
L 71.635155 130.659508 
L 71.70468 130.756576 
L 71.815406 130.821288 
L 71.735581 130.72422 
L 71.817981 130.788932 
L 71.838581 130.72422 
L 71.910682 130.853644 
L 71.928707 130.756576 
L 72.039433 130.853644 
L 71.939007 130.72422 
L 72.044583 130.821288 
L 72.250585 130.821288 
L 72.25316 130.691864 
L 72.358736 130.821288 
L 72.466887 130.853644 
L 72.407661 130.756576 
L 72.469462 130.821288 
L 72.557012 130.918357 
L 72.667738 131.015425 
L 72.567312 130.853644 
L 72.672888 130.983069 
L 72.747564 130.918357 
L 72.703789 131.015425 
L 72.778464 131.015425 
L 72.793914 130.950713 
L 72.89434 131.080137 
L 72.907215 131.112493 
L 73.015366 130.950713 
L 73.123517 131.080137 
L 73.069442 130.918357 
L 73.133817 131.047781 
L 73.231668 131.144849 
L 73.262568 131.080137 
L 73.347544 131.209561 
L 73.355269 131.144849 
L 73.386169 131.241917 
L 73.45827 131.209561 
L 73.571571 131.338986 
L 73.47887 131.177205 
L 73.574146 131.274273 
L 74.153525 131.371342 
L 74.228201 131.500766 
L 74.171551 131.338986 
L 74.266826 131.436054 
L 74.310602 131.371342 
L 74.341502 131.500766 
L 74.377552 131.403698 
L 74.454803 131.500766 
L 74.395577 131.371342 
L 74.490853 131.436054 
L 74.799856 131.533122 
L 74.913157 131.662547 
L 74.805006 131.46841 
L 74.918307 131.63019 
L 75.021308 131.727259 
L 75.059933 131.824327 
L 75.029033 131.662547 
L 75.132034 131.727259 
L 75.466786 131.791971 
L 75.577512 131.889039 
L 75.477086 131.759615 
L 75.580087 131.856683 
L 75.742314 131.921395 
L 75.822139 132.05082 
L 75.855614 131.986107 
L 76.038441 132.083176 
L 76.118267 132.147888 
L 76.066766 132.018464 
L 76.149167 132.115532 
L 76.313968 132.180244 
L 76.316543 132.244956 
L 76.365469 132.083176 
L 76.424694 132.180244 
L 76.612671 132.115532 
L 76.615246 132.05082 
L 76.659021 132.2126 
L 76.720822 132.083176 
L 76.749147 132.244956 
L 76.834122 132.147888 
L 76.854723 132.2126 
L 76.937123 132.277312 
L 76.895923 132.147888 
L 76.962874 132.2126 
L 77.040124 132.147888 
L 77.029824 132.277312 
L 77.073599 132.2126 
L 77.516503 132.277312 
L 77.519078 132.342024 
L 77.534528 132.180244 
L 77.627229 132.277312 
L 77.73023 132.147888 
L 77.634954 132.309668 
L 77.74053 132.244956 
L 77.861556 132.180244 
L 77.951682 132.05082 
L 77.972282 132.147888 
L 78.095883 132.05082 
L 78.124208 132.115532 
L 78.209184 132.018464 
L 78.747363 131.953751 
L 78.749938 131.856683 
L 78.834914 131.986107 
L 78.858089 131.953751 
L 79.223742 132.018464 
L 79.295843 132.083176 
L 79.277818 131.953751 
L 79.334468 132.05082 
L 79.56107 131.986107 
L 79.563645 131.889039 
L 79.57137 132.018464 
L 79.671796 131.921395 
L 79.859772 132.018464 
L 79.931873 132.05082 
L 79.913848 131.953751 
L 79.967923 131.986107 
L 80.457177 131.889039 
L 80.537003 131.791971 
L 80.490652 131.921395 
L 80.567903 131.889039 
L 80.77133 131.986107 
L 80.874331 132.018464 
L 80.794505 131.921395 
L 80.882056 131.986107 
L 81.023682 132.05082 
L 81.108658 132.115532 
L 81.031407 132.018464 
L 81.131833 132.05082 
L 81.147283 131.986107 
L 81.201358 132.147888 
L 81.237409 132.083176 
L 81.330109 132.180244 
L 81.353285 132.147888 
L 81.461435 132.083176 
L 81.42796 132.2126 
L 81.46401 132.147888 
L 81.749838 132.05082 
L 81.796188 131.986107 
L 81.809063 132.147888 
L 81.860564 132.018464 
L 81.948114 132.147888 
L 81.973865 132.115532 
L 82.056265 131.986107 
L 82.084591 132.05082 
L 82.138666 131.986107 
L 82.148966 132.018464 
L 82.249392 131.921395 
L 82.298317 132.115532 
L 82.365268 132.05082 
L 82.429643 131.986107 
L 82.468269 132.115532 
L 82.475994 132.018464 
L 82.553244 132.115532 
L 82.512044 131.986107 
L 82.58672 132.05082 
L 82.676845 132.115532 
L 82.694871 132.05082 
L 82.756671 136.904233 
L 83.011598 145.996294 
L 83.016748 146.061006 
L 83.444202 154.117672 
L 83.446777 154.05296 
L 83.516302 155.088354 
L 83.732604 157.741554 
L 83.745479 157.806266 
L 83.928306 159.618207 
L 83.938606 159.715275 
L 84.203833 161.721352 
L 84.206408 161.688996 
L 84.216708 161.786065 
L 84.41241 162.853816 
L 84.414985 162.821459 
L 84.48451 163.274445 
L 84.487085 163.274445 
L 84.659612 164.050991 
L 84.667337 164.018635 
L 84.729137 164.277483 
L 84.747162 164.277483 
L 84.875913 164.762825 
L 84.881064 164.698113 
L 84.963464 164.924605 
L 84.971189 164.924605 
L 85.10509 165.248166 
L 85.107665 165.183454 
L 85.200366 165.474659 
L 85.208091 165.37759 
L 85.213241 165.345234 
L 85.329117 165.539371 
L 85.334267 165.507015 
L 85.403793 165.668795 
L 85.432118 165.571727 
L 85.547994 165.765863 
L 85.645845 165.733507 
L 85.630395 165.830576 
L 85.656145 165.79822 
L 85.723095 165.927644 
L 85.66387 165.765863 
L 85.764296 165.895288 
L 85.766871 165.765863 
L 85.867297 165.96 
L 85.875022 165.895288 
L 86.3205 165.79822 
L 86.343676 165.862932 
L 86.433801 165.765863 
L 86.588303 165.733507 
L 86.662978 165.507015 
L 86.701603 165.604083 
L 86.822629 165.474659 
L 86.917905 165.442303 
L 87.031206 165.248166 
L 87.059531 165.345234 
L 87.098157 165.183454 
L 87.139357 165.21581 
L 87.257808 165.05403 
L 87.260383 165.118742 
L 87.340209 164.892249 
L 87.363384 164.956961 
L 87.481835 164.762825 
L 87.579686 164.665756 
L 87.698137 164.503976 
L 87.700712 164.536332 
L 87.785687 164.439264 
L 87.896413 164.342196 
L 87.816588 164.503976 
L 87.898988 164.406908 
L 87.950489 164.342196 
L 88.066365 164.148059 
L 88.07409 164.212771 
L 88.143615 163.986279 
L 88.164215 164.018635 
L 88.272366 163.759786 
L 88.287817 163.856854 
L 88.323867 163.759786 
L 88.439743 163.500937 
L 88.447468 163.533293 
L 88.450043 163.598006 
L 88.545319 163.339157 
L 88.547894 163.371513 
L 88.66377 163.112664 
L 88.558194 163.403869 
L 88.666345 163.14502 
L 88.671495 163.209733 
L 88.733295 162.950884 
L 88.764195 162.98324 
L 88.828571 162.918528 
L 88.947022 162.659679 
L 88.949597 162.724391 
L 89.047448 162.433186 
L 89.109248 162.336118 
L 89.243149 161.980201 
L 89.250874 162.077269 
L 89.333275 161.850777 
L 89.348725 161.883133 
L 89.3822 161.786065 
L 89.389926 161.818421 
L 89.500651 161.591928 
L 89.554727 161.49486 
L 89.668028 161.300723 
L 89.670603 161.365435 
L 89.801929 161.074231 
L 89.809654 161.171299 
L 89.902355 160.880094 
L 89.90493 160.944806 
L 90.025956 160.621245 
L 90.033681 160.718314 
L 90.123807 160.459465 
L 90.206207 160.362397 
L 90.213932 160.394753 
L 90.332383 160.16826 
L 90.334958 160.232972 
L 90.435384 159.974124 
L 90.51006 159.909412 
L 90.625936 159.650563 
L 90.51521 159.941768 
L 90.628511 159.715275 
L 90.749537 159.456426 
L 90.752112 159.521138 
L 90.754687 159.553495 
L 90.826787 159.26229 
L 90.844813 159.327002 
L 90.973564 159.003441 
L 90.849963 159.359358 
L 90.976139 159.035797 
L 91.009614 159.068153 
L 91.071414 158.906373 
L 91.073989 158.906373 
L 91.084289 158.971085 
L 91.200165 158.712236 
L 91.20789 158.744592 
L 91.274841 158.550456 
L 91.295441 158.582812 
L 91.408742 158.388675 
L 91.321191 158.615168 
L 91.411317 158.421031 
L 91.462818 158.323963 
L 91.588994 158.097471 
L 91.612169 158.129827 
L 91.673969 157.903334 
L 91.684269 157.968046 
L 91.80272 157.741554 
L 91.80787 157.806266 
L 91.879971 157.644485 
L 91.905721 157.676841 
L 92.024172 157.450349 
L 92.080823 157.385637 
L 92.088548 157.417993 
L 92.196699 157.1915 
L 92.212149 157.256212 
L 92.291974 157.062076 
L 92.302274 157.062076 
L 92.33575 156.997364 
L 92.438751 156.835583 
L 92.451626 156.867939 
L 92.552052 156.641447 
L 92.575227 156.673803 
L 92.577802 156.738515 
L 92.670502 156.512022 
L 92.678228 156.512022 
L 92.791528 156.317886 
L 92.685953 156.544378 
L 92.796679 156.350242 
L 92.799254 156.414954 
L 92.899679 156.188461 
L 93.000105 156.091393 
L 93.115981 155.897257 
L 93.121131 155.929613 
L 93.195807 155.735476 
L 93.216407 155.767832 
L 93.347733 155.476627 
L 93.350308 155.54134 
L 93.414684 155.347203 
L 93.455884 155.411915 
L 93.589785 155.12071 
L 93.708236 155.023642 
L 93.795787 154.829506 
L 93.824112 154.894218 
L 93.865312 154.79715 
L 93.981188 154.635369 
L 93.873037 154.861862 
L 93.986338 154.667725 
L 94.032689 154.603013 
L 94.15114 154.408877 
L 94.25414 154.182384 
L 94.169165 154.441233 
L 94.274741 154.247096 
L 94.295341 154.279452 
L 94.359716 154.085316 
L 94.372591 154.117672 
L 94.485892 153.891179 
L 94.496192 153.923535 
L 94.498768 153.988247 
L 94.560568 153.794111 
L 94.599193 153.794111 
L 94.604343 153.826467 
L 94.725369 153.567618 
L 94.779445 153.599974 
L 94.80777 153.47055 
L 94.83352 153.535262 
L 94.954546 153.30877 
L 94.957121 153.341126 
L 94.959696 153.373482 
L 95.052397 153.146989 
L 95.054972 153.179345 
L 95.127073 153.114633 
L 95.242949 152.88814 
L 95.245524 152.920496 
L 95.299599 152.823428 
L 95.410325 152.629292 
L 95.322774 152.855784 
L 95.4232 152.661648 
L 95.461825 152.694004 
L 95.513326 152.532223 
L 95.526201 152.564579 
L 95.569976 152.467511 
L 95.654952 152.305731 
L 95.588001 152.499867 
L 95.691002 152.338087 
L 95.709027 152.370443 
L 95.768253 152.176306 
L 95.791428 152.208663 
L 95.845504 152.111594 
L 95.850654 152.14395 
L 95.97168 151.885102 
L 96.020605 151.949814 
L 96.06438 151.788033 
L 96.07468 151.820389 
L 96.190556 151.593897 
L 96.200856 151.626253 
L 96.221457 151.690965 
L 96.296132 151.496829 
L 96.306432 151.496829 
L 96.345058 151.529185 
L 96.386258 151.367404 
L 96.409433 151.432116 
L 96.533034 151.205624 
L 96.535609 151.302692 
L 96.630885 151.076199 
L 96.641185 151.140912 
L 96.751911 150.914419 
L 96.754486 150.946775 
L 96.762211 150.979131 
L 96.880662 150.752639 
L 96.890962 150.784995 
L 96.973363 150.558502 
L 96.981088 150.65557 
L 97.125289 150.234941 
L 97.18709 150.137873 
L 97.315841 149.91138 
L 97.364766 149.879024 
L 97.483217 149.587819 
L 97.545018 149.490751 
L 97.658318 149.296615 
L 97.555318 149.555463 
L 97.668619 149.328971 
L 97.709819 149.231902 
L 97.717544 149.296615 
L 97.835995 149.037766 
L 97.87977 148.940698 
L 97.88492 149.00541 
L 97.995646 148.811273 
L 98.016246 148.875985 
L 98.093497 148.681849 
L 98.101222 148.714205 
L 98.155298 148.649493 
L 98.260873 148.455356 
L 98.271173 148.487712 
L 98.374174 148.390644 
L 98.482325 148.293576 
L 98.40765 148.455356 
L 98.4849 148.325932 
L 98.487475 148.358288 
L 98.549276 148.164152 
L 98.585326 148.196508 
L 98.618801 148.131795 
L 98.724377 147.937659 
L 98.732102 148.002371 
L 98.786178 147.905303 
L 98.896904 147.775878 
L 98.899479 147.872947 
L 98.989604 147.646454 
L 99.005055 147.711166 
L 99.12093 147.646454 
L 99.241956 147.387605 
L 99.293457 147.322893 
L 99.393883 147.064045 
L 99.411908 147.096401 
L 99.489158 146.999332 
L 99.594734 146.837552 
L 99.610184 146.869908 
L 99.677135 146.77284 
L 99.790436 146.578703 
L 99.68486 146.805196 
L 99.798161 146.643415 
L 99.867687 146.546347 
L 99.944937 146.416923 
L 99.908887 146.578703 
L 99.983563 146.481635 
L 100.076263 146.384567 
L 100.194714 146.158074 
L 100.212739 146.19043 
L 100.266815 145.996294 
L 100.29514 146.02865 
L 100.33634 145.963938 
L 100.447066 145.802157 
L 100.449641 145.834513 
L 100.452216 145.866869 
L 100.537192 145.640377 
L 100.547492 145.705089 
L 100.668518 145.510952 
L 100.671093 145.543308 
L 100.727744 145.44624 
L 100.732894 145.478596 
L 100.851345 145.28446 
L 100.86937 145.316816 
L 100.93117 145.155035 
L 100.95177 145.155035 
L 100.964646 145.219747 
L 101.077947 144.928543 
L 101.080522 144.960899 
L 101.113997 144.766762 
L 101.183522 144.863831 
L 101.253048 144.799118 
L 101.361199 144.669694 
L 101.366349 144.70205 
L 101.368924 144.734406 
L 101.394674 144.54027 
L 101.461625 144.572626 
L 101.567201 144.378489 
L 101.577501 144.410845 
L 101.665051 144.313777 
L 101.778352 144.151997 
L 101.786077 144.184353 
L 101.837578 144.11964 
L 101.850453 144.151997 
L 101.956029 143.925504 
L 102.051305 143.828436 
L 102.174906 143.666655 
L 102.306232 143.634299 
L 102.419533 143.472519 
L 102.429833 143.537231 
L 102.504508 143.343094 
L 102.522533 143.37545 
L 102.566309 143.278382 
L 102.682185 143.116602 
L 102.576609 143.310738 
L 102.68476 143.148958 
L 102.70536 143.181314 
L 102.77746 143.019533 
L 102.790336 143.084246 
L 102.834111 143.019533 
L 102.949987 142.890109 
L 103.071013 142.63126 
L 103.073588 142.695973 
L 103.076163 142.728329 
L 103.135388 142.534192 
L 103.174014 142.598904 
L 103.28989 142.372412 
L 103.29504 142.437124 
L 103.33624 142.3077 
L 103.398041 142.372412 
L 103.511341 142.113563 
L 103.516492 142.178275 
L 103.544817 142.210631 
L 103.596317 142.016495 
L 103.616917 142.081207 
L 103.696743 141.854714 
L 103.735368 141.88707 
L 103.820344 141.790002 
L 103.913045 141.628222 
L 103.825494 141.822358 
L 103.94137 141.660578 
L 103.98257 141.692934 
L 104.023771 141.531153 
L 104.041796 141.531153 
L 104.059821 141.595866 
L 104.165397 141.369373 
L 104.209172 141.434085 
L 104.260673 141.272305 
L 104.268398 141.304661 
L 104.283848 141.337017 
L 104.389424 141.175236 
L 104.440924 141.110524 
L 104.559375 140.884032 
L 104.626326 140.786963 
L 104.641776 140.819319 
L 104.747352 140.625183 
L 104.757652 140.722251 
L 104.847777 140.528115 
L 104.855503 140.560471 
L 104.881253 140.592827 
L 104.904428 140.431046 
L 104.958503 140.463403 
L 105.048629 140.301622 
L 104.968803 140.495759 
L 105.076954 140.366334 
L 105.159355 140.269266 
L 105.282956 140.042773 
L 105.285531 140.075129 
L 105.375657 139.978061 
L 105.380807 140.042773 
L 105.504408 139.751569 
L 105.568783 139.6545 
L 105.687234 139.49272 
L 105.576508 139.686856 
L 105.689809 139.525076 
L 105.743885 139.460364 
L 105.78766 139.525076 
L 105.857186 139.363296 
L 105.880361 139.395652 
L 105.888086 139.266227 
L 105.957612 139.330939 
L 106.063187 139.072091 
L 106.073488 139.136803 
L 106.145588 139.039735 
L 106.266614 138.845598 
L 106.269189 138.91031 
L 106.36189 138.716174 
L 106.37219 138.780886 
L 106.498366 138.554393 
L 106.518966 138.651462 
L 106.585917 138.457325 
L 106.606517 138.489681 
L 106.668317 138.392613 
L 106.745568 138.230832 
L 106.678618 138.457325 
L 106.781618 138.360257 
L 106.825394 138.295545 
L 106.94127 138.133764 
L 107.00307 138.036696 
L 107.121521 137.777847 
L 107.129246 137.810203 
L 107.183322 137.874915 
L 107.216797 137.713135 
L 107.232247 137.777847 
L 107.348123 137.583711 
L 107.363573 137.648423 
L 107.445974 137.454286 
L 107.453699 137.454286 
L 107.58245 137.357218 
L 107.703476 137.130725 
L 107.706051 137.195438 
L 107.762701 137.098369 
L 107.878577 136.936589 
L 107.767851 137.163082 
L 107.883727 136.968945 
L 107.904328 137.033657 
L 107.973853 136.807165 
L 107.981578 136.807165 
L 108.048529 136.710096 
L 108.169555 136.548316 
L 108.174705 136.580672 
L 108.25968 136.354179 
L 108.267406 136.386535 
L 108.349806 136.289467 
L 108.362681 136.321823 
L 108.465682 136.095331 
L 108.499157 136.160043 
L 108.535208 135.998262 
L 108.568683 135.998262 
L 108.594433 136.030618 
L 108.689709 135.804126 
L 108.692284 135.901194 
L 108.746359 135.739414 
L 108.795285 135.739414 
L 108.895711 135.545277 
L 108.908586 135.577633 
L 108.980686 135.480565 
L 109.091412 135.351141 
L 109.001287 135.545277 
L 109.099137 135.383497 
L 109.217588 135.286428 
L 109.333464 135.124648 
L 109.225313 135.318785 
L 109.336039 135.157004 
L 109.341189 135.18936 
L 109.369515 135.02758 
L 109.43904 135.059936 
L 109.554916 134.898155 
L 109.557491 134.930511 
L 109.560066 134.962868 
L 109.634742 134.768731 
L 109.655342 134.801087 
L 109.701692 134.639307 
L 109.768643 134.704019 
L 109.773793 134.736375 
L 109.853619 134.574594 
L 109.869069 134.574594 
L 109.98237 134.477526 
L 109.990095 134.542238 
L 110.098246 134.348102 
L 110.167771 134.28339 
L 110.273347 134.121609 
L 110.281072 134.153965 
L 110.283647 134.186321 
L 110.363473 133.992185 
L 110.378923 133.992185 
L 110.499949 133.798048 
L 110.502524 133.830404 
L 110.505099 133.862761 
L 110.5875 133.636268 
L 110.600375 133.668624 
L 110.6493 133.603912 
L 110.6699 133.636268 
L 110.765176 133.409775 
L 110.788351 133.474487 
L 110.845002 133.280351 
L 110.868177 133.312707 
L 110.924827 133.247995 
L 111.027828 133.086214 
L 111.040703 133.118571 
L 111.21838 133.021502 
L 111.339406 132.79501 
L 111.341981 132.827366 
L 111.365156 132.892078 
L 111.437257 132.633229 
L 111.442407 132.697941 
L 111.532532 132.600873 
L 111.656133 132.406737 
L 111.687034 132.471449 
L 111.738534 132.309668 
L 111.761709 132.342024 
L 111.820935 132.244956 
L 111.931661 132.05082 
L 111.936811 132.083176 
L 112.003761 132.018464 
L 112.122212 131.824327 
L 112.132512 131.856683 
L 112.217488 131.662547 
L 112.220063 131.662547 
L 112.279288 131.565478 
L 112.307614 131.597834 
L 112.392589 131.371342 
L 112.395164 131.46841 
L 112.47499 131.30663 
L 112.50074 131.338986 
L 112.616616 131.177205 
L 112.768543 131.112493 
L 112.874118 130.886 
L 112.796868 131.177205 
L 112.884418 130.918357 
L 112.912744 130.983069 
L 112.946219 130.821288 
L 112.992569 130.853644 
L 113.03892 130.756576 
L 113.144496 130.594796 
L 113.04922 130.788932 
L 113.154796 130.627152 
L 113.165096 130.691864 
L 113.224321 130.465371 
L 113.257797 130.465371 
L 113.381398 130.271235 
L 113.450923 130.303591 
L 113.479248 130.14181 
L 113.484398 130.174166 
L 113.587399 130.109454 
L 113.698125 129.915318 
L 113.7007 130.012386 
L 113.744476 129.915318 
L 113.868077 129.753537 
L 113.929877 129.656469 
L 114.040603 129.494689 
L 113.942752 129.721181 
L 114.048328 129.559401 
L 114.063778 129.527045 
L 114.166779 129.365264 
L 114.110129 129.559401 
L 114.177079 129.39762 
L 114.241455 129.300552 
L 114.362481 129.074059 
L 114.367631 129.106416 
L 114.401106 129.009347 
L 114.424281 129.106416 
L 114.516982 128.879923 
L 114.604533 128.815211 
L 114.720409 128.65343 
L 114.774484 128.685786 
L 114.807959 128.49165 
L 114.818259 128.49165 
L 114.90066 128.394582 
L 115.011386 128.103377 
L 114.91611 128.426938 
L 115.029411 128.168089 
L 115.122112 128.071021 
L 115.142712 128.103377 
L 115.243138 127.90924 
L 115.258588 127.973952 
L 115.343564 127.779816 
L 115.518665 127.715104 
L 115.629391 127.553323 
L 115.634541 127.585679 
L 115.696342 127.488611 
L 115.791617 127.326831 
L 115.758142 127.520967 
L 115.812217 127.391543 
L 115.817368 127.423899 
L 115.907493 127.197406 
L 115.912643 127.262119 
L 115.997619 127.100338 
L 116.031094 127.132694 
L 116.09547 127.197406 
L 116.10062 127.067982 
L 116.13667 127.100338 
L 116.255121 126.841489 
L 116.149545 127.132694 
L 116.262846 126.906202 
L 116.329797 126.809133 
L 116.409622 126.614997 
L 116.453398 126.647353 
L 116.455973 126.712065 
L 116.546099 126.485572 
L 116.556399 126.517929 
L 116.664549 126.291436 
L 116.682575 126.323792 
L 116.70575 126.356148 
L 116.739225 126.226724 
L 116.783 126.226724 
L 116.911752 125.967875 
L 116.924627 126.064943 
L 116.968402 125.870807 
L 117.019902 125.903163 
L 117.148653 125.67667 
L 117.156379 125.741382 
L 117.236204 125.579602 
L 117.251654 125.611958 
L 117.261954 125.644314 
L 117.380405 125.353109 
L 117.406156 125.385465 
L 117.426756 125.256041 
L 117.485981 125.288397 
L 117.491131 125.320753 
L 117.614732 125.061905 
L 117.735758 125.029548 
L 117.849059 124.7707 
L 117.851634 124.867768 
L 117.89541 124.608919 
L 117.95721 124.673632 
L 117.97781 124.738344 
L 118.073086 124.576563 
L 118.098836 124.641275 
L 118.165787 124.479495 
L 118.173512 124.479495 
L 118.276513 124.155934 
L 118.302263 124.18829 
L 118.309988 124.285358 
L 118.382089 124.058866 
L 118.410414 124.155934 
L 118.518565 123.994154 
L 118.53144 124.02651 
L 118.585515 123.961798 
L 118.685941 123.767661 
L 118.701391 123.832373 
L 118.732291 123.735305 
L 118.848167 123.476456 
L 118.858468 123.541168 
L 118.943443 123.4441 
L 119.064469 123.28232 
L 119.097944 123.347032 
L 119.154595 123.152895 
L 119.164895 123.152895 
L 119.17262 123.185251 
L 119.298796 122.861691 
L 119.394072 122.764622 
L 119.520248 122.570486 
L 119.612949 122.505774 
L 119.728825 122.311637 
L 119.8138 122.343993 
L 119.775175 122.246925 
L 119.839551 122.311637 
L 119.960577 122.020432 
L 119.852426 122.343993 
L 119.968302 122.085144 
L 119.981177 122.117501 
L 120.063577 121.891008 
L 120.192328 121.79394 
L 120.207779 121.826296 
L 120.310779 121.664515 
L 120.315929 121.729227 
L 120.395755 121.470379 
L 120.406055 121.502735 
L 120.509056 121.405667 
L 120.431805 121.567447 
L 120.519356 121.438023 
L 120.521931 121.470379 
L 120.576007 121.276242 
L 120.617207 121.340954 
L 120.738233 121.082106 
L 120.756258 121.146818 
L 120.823209 120.952681 
L 120.841234 120.985037 
L 120.949385 120.726189 
L 120.846384 121.017394 
L 120.96741 120.758545 
L 120.97256 120.790901 
L 121.011185 120.661477 
L 121.067836 120.661477 
L 121.178562 120.46734 
L 121.088436 120.693833 
L 121.188862 120.532052 
L 121.237787 120.46734 
L 121.250662 120.499696 
L 121.353663 120.273204 
L 121.379413 120.30556 
L 121.443789 120.143779 
L 121.454089 120.143779 
L 121.490139 120.046711 
L 121.626615 119.72315 
L 121.657515 119.755506 
L 121.714166 119.56137 
L 121.727041 119.593726 
L 121.809442 119.496657 
L 121.922743 119.399589 
L 121.925318 119.431945 
L 121.969093 119.367233 
L 122.074669 119.043672 
L 122.090119 119.076028 
L 122.15707 118.97896 
L 122.24977 118.81718 
L 122.270371 118.914248 
L 122.272946 118.946604 
L 122.355346 118.784823 
L 122.368221 118.784823 
L 122.468647 118.623043 
L 122.484097 118.720111 
L 122.512422 118.623043 
L 122.643749 118.331838 
L 122.646324 118.364194 
L 122.726149 118.105346 
L 122.736449 118.105346 
L 122.76735 118.137702 
L 122.857475 117.975921 
L 122.878076 118.040633 
L 122.921851 117.846497 
L 122.957901 117.846497 
L 123.037727 117.717073 
L 122.965626 117.878853 
L 123.073777 117.781785 
L 123.138153 117.684716 
L 123.174203 117.781785 
L 123.254029 117.587648 
L 123.261754 117.65236 
L 123.333854 117.425868 
L 123.351879 117.425868 
L 123.550156 117.328799 
L 123.666032 117.199375 
L 123.668607 117.264087 
L 123.763883 117.005239 
L 123.769033 117.037595 
L 123.890059 116.843458 
L 123.892634 116.875814 
L 123.928684 116.778746 
L 124.016235 116.616966 
L 123.944134 116.811102 
L 124.04971 116.649322 
L 124.124386 116.552253 
L 124.204211 116.422829 
L 124.139836 116.616966 
L 124.240262 116.455185 
L 124.250562 116.519897 
L 124.330387 116.293405 
L 124.338112 116.293405 
L 124.371588 116.196336 
L 124.490039 115.905132 
L 124.500339 115.969844 
L 124.546689 115.905132 
L 124.65999 115.613927 
L 124.66514 115.646283 
L 124.747541 115.743351 
L 124.672865 115.581571 
L 124.773291 115.678639 
L 124.775866 115.613927 
L 124.822216 115.808063 
L 124.884017 115.678639 
L 124.891742 115.743351 
L 124.971568 115.452146 
L 124.976718 115.484502 
L 125.120919 115.063873 
L 125.151819 115.031517 
L 125.257395 114.740312 
L 125.267695 114.805025 
L 125.334646 114.707956 
L 125.339796 114.740312 
L 125.478847 114.254971 
L 125.525197 114.352039 
L 125.558673 114.190259 
L 125.589573 114.254971 
L 125.687424 113.93141 
L 125.710599 113.996122 
L 125.726049 113.93141 
L 125.759524 113.996122 
L 125.847075 113.672562 
L 125.872825 113.737274 
L 125.939776 113.543137 
L 125.952651 113.543137 
L 125.968101 113.510781 
L 126.078827 113.122508 
L 126.086552 113.154864 
L 126.148352 113.219576 
L 126.096852 113.090152 
L 126.194703 113.122508 
L 126.333754 112.766591 
L 126.344054 112.863659 
L 126.398129 112.637167 
L 126.441905 112.734235 
L 126.555206 112.44303 
L 126.562931 112.475386 
L 126.678807 112.087113 
L 126.701982 112.119469 
L 126.786958 112.054757 
L 126.913134 111.53706 
L 126.915709 111.569416 
L 126.941459 111.504704 
L 127.036735 111.375279 
L 127.05476 111.439991 
L 127.224711 110.695801 
L 127.253036 110.631089 
L 127.356037 110.339884 
L 127.260761 110.695801 
L 127.371487 110.436953 
L 127.379212 110.469309 
L 127.515689 109.983967 
L 127.528564 110.016324 
L 127.582639 109.725119 
L 127.605814 109.725119 
L 127.757741 109.207421 
L 127.760316 109.239777 
L 127.840141 108.916217 
L 127.842716 108.948573 
L 127.979192 108.301451 
L 128.012668 108.204383 
L 128.017818 108.236739 
L 128.195494 107.266056 
L 128.210944 107.330768 
L 128.28047 106.942495 
L 128.283045 106.974851 
L 128.458146 105.357047 
L 128.476171 105.389403 
L 128.808349 99.565307 
L 128.846975 91.864558 
L 128.877875 14.76 
L 128.95255 95.32666 
L 129.089026 119.173097 
L 129.091602 119.237809 
L 129.179152 118.849536 
L 129.186877 118.849536 
L 129.202327 118.784823 
L 129.351679 117.814141 
L 129.369704 117.781785 
L 129.493305 117.296443 
L 129.498455 117.361156 
L 129.663256 116.519897 
L 129.686431 116.584609 
L 129.755957 116.325761 
L 129.758532 116.325761 
L 129.781707 116.228692 
L 129.933633 115.581571 
L 129.938783 115.613927 
L 129.946509 115.646283 
L 130.010884 115.225654 
L 130.021184 115.25801 
L 130.139635 114.578532 
L 130.14736 114.610888 
L 130.175685 114.51382 
L 130.325037 113.963766 
L 130.327612 113.996122 
L 130.353362 113.899054 
L 130.487263 113.251932 
L 130.489838 113.284288 
L 130.559364 112.863659 
L 130.569664 112.928371 
L 130.74219 112.151825 
L 130.755065 112.184181 
L 130.78854 111.860621 
L 130.827166 111.860621 
L 130.999692 111.084074 
L 131.058918 110.987006 
L 131.218569 110.307528 
L 131.221144 110.339884 
L 131.234019 110.242816 
L 131.406546 109.433914 
L 131.414271 109.498626 
L 131.483796 109.045641 
L 131.486371 109.077997 
L 131.648598 108.430875 
L 131.651173 108.463231 
L 131.725848 108.010246 
L 131.730998 107.913178 
L 131.736148 107.945534 
L 131.95245 106.457154 
L 131.955025 106.521866 
L 132.021976 105.939456 
L 132.042576 105.939456 
L 132.052876 105.842388 
L 132.202227 104.321652 
L 132.217677 104.224584 
L 132.482904 95.067811 
L 132.503505 61.643972 
L 132.524105 16.313092 
L 132.606505 101.086043 
L 132.742981 117.167019 
L 132.845982 117.102307 
L 132.820232 117.231731 
L 132.853707 117.134663 
L 132.861432 117.167019 
L 132.938683 116.811102 
L 132.956708 116.714034 
L 133.124085 116.0022 
L 133.12666 116.099268 
L 133.216785 115.549215 
L 133.221935 115.581571 
L 133.250261 115.484502 
L 133.445962 114.384395 
L 133.448537 114.416752 
L 133.523213 113.963766 
L 133.749815 112.507742 
L 133.78844 112.410674 
L 133.999592 111.116431 
L 134.002167 111.148787 
L 134.063967 110.760514 
L 134.081992 110.79287 
L 134.300869 109.336846 
L 134.306019 109.369202 
L 134.311169 109.401558 
L 134.375545 108.88386 
L 134.380695 108.980929 
L 134.596997 107.460193 
L 134.599572 107.492549 
L 134.658797 106.974851 
L 134.663947 106.974851 
L 134.818449 105.874744 
L 134.846774 105.810032 
L 134.985825 104.742281 
L 134.9884 104.774637 
L 135.042475 104.25694 
L 135.057925 104.289296 
L 135.395253 93.482363 
L 135.415853 61.514547 
L 135.436454 17.898541 
L 135.518854 99.274102 
L 135.65533 115.290366 
L 135.781506 115.355078 
L 135.784081 115.41979 
L 135.881932 115.160942 
L 135.887082 115.225654 
L 135.889657 115.25801 
L 135.977208 114.966805 
L 135.979783 114.999161 
L 136.149734 114.222615 
L 136.15746 114.254971 
L 136.226985 113.801986 
L 136.252735 113.704918 
L 136.471612 112.345962 
L 136.502512 112.248894 
L 136.654439 111.181143 
L 136.687914 111.148787 
L 136.81924 110.21046 
L 136.821815 110.242816 
L 136.82954 110.145748 
L 137.125667 107.81611 
L 137.138543 107.751397 
L 137.277594 106.683646 
L 137.282744 106.716003 
L 137.341969 106.165949 
L 137.347119 106.165949 
L 137.483595 104.839349 
L 137.882724 98.4652 
L 137.936799 92.867597 
L 137.959974 54.525632 
L 137.980574 18.739799 
L 138.0604 97.235669 
L 138.194301 113.76963 
L 138.317902 113.996122 
L 138.320477 113.963766 
L 138.467253 113.866698 
L 138.474979 113.899054 
L 138.63463 113.154864 
L 138.65523 113.057796 
L 138.845782 111.990045 
L 138.848357 112.022401 
L 138.853507 111.990045 
L 138.992558 110.857582 
L 138.995133 110.889938 
L 139.062083 110.436953 
L 139.069808 110.436953 
L 139.26036 109.433914 
L 139.262935 109.46627 
L 139.327311 108.916217 
L 139.332461 108.948573 
L 139.466362 108.010246 
L 139.479237 107.913178 
L 139.759914 105.777676 
L 139.772789 105.777676 
L 139.919565 103.965735 
L 140.282643 92.382256 
L 140.305819 61.838108 
L 140.328994 20.260535 
L 140.408819 95.941425 
L 140.542721 111.601772 
L 140.545296 111.569416 
L 140.617396 112.022401 
L 140.625121 111.925333 
L 140.743572 112.345962 
L 140.746147 112.313606 
L 140.784773 112.378318 
L 140.846573 112.184181 
L 140.869748 112.119469 
L 141.003649 111.53706 
L 141.145275 111.019362 
L 141.150426 111.051718 
L 141.153001 111.084074 
L 141.219951 110.598733 
L 141.225101 110.663445 
L 141.359002 109.498626 
L 141.361577 109.563338 
L 141.436253 108.819148 
L 141.438828 108.819148 
L 141.588179 107.719041 
L 141.590754 107.751397 
L 141.606204 107.654329 
L 142.298885 97.623942 
L 142.376136 88.79073 
L 142.414761 21.45771 
L 142.486861 88.434813 
L 142.625913 111.504704 
L 142.749514 112.119469 
L 142.757239 112.054757 
L 142.795864 112.151825 
L 142.798439 112.184181 
L 142.883415 112.022401 
L 142.89629 112.022401 
L 142.924615 111.957689 
L 143.058516 111.375279 
L 143.359794 108.980929 
L 143.362369 109.013285 
L 143.421594 108.366163 
L 143.431894 108.301451 
L 143.599271 106.813071 
L 143.609571 106.877783 
L 143.668796 106.295373 
L 143.859348 104.289296 
L 143.861923 104.354008 
L 143.941748 103.577462 
L 143.952049 103.480394 
L 144.322852 91.638065 
L 144.351177 58.473075 
L 144.374352 22.525461 
L 144.451603 91.702778 
L 144.590654 110.501665 
L 144.76318 111.439991 
L 144.76833 111.407635 
L 144.881631 111.213499 
L 144.79923 111.472348 
L 144.884206 111.245855 
L 144.927982 111.181143 
L 145.079908 110.145748 
L 145.092783 110.113392 
L 145.229259 109.110353 
L 145.231834 109.142709 
L 145.285909 108.592656 
L 145.293635 108.625012 
L 145.442986 107.168988 
L 145.450711 107.104276 
L 145.651562 104.806993 
L 145.667013 104.709925 
L 146.042966 98.594624 
L 146.169142 90.052617 
L 146.197467 55.463959 
L 146.218067 24.27269 
L 146.295318 88.402457 
L 146.429219 109.110353 
L 146.431794 109.077997 
L 146.442094 109.175065 
L 146.581145 110.113392 
L 146.58887 110.081036 
L 146.650671 110.21046 
L 146.704746 110.016324 
L 146.725346 109.919255 
L 146.946798 108.527944 
L 146.959673 108.430875 
L 147.11675 107.104276 
L 147.1219 107.136632 
L 147.1322 107.07192 
L 147.322751 105.065842 
L 147.827455 97.332737 
L 147.971657 84.584438 
L 148.010282 26.149343 
L 148.082382 84.066741 
L 148.224009 107.557261 
L 148.234309 107.621973 
L 148.365635 108.366163 
L 148.37336 108.333807 
L 148.375935 108.301451 
L 148.427435 108.527944 
L 148.476361 108.398519 
L 148.486661 108.430875 
L 148.556186 108.107314 
L 148.563911 108.107314 
L 148.592237 108.010246 
L 148.867764 105.9071 
L 148.870339 105.939456 
L 148.929564 105.389403 
L 148.932139 105.421759 
L 149.078916 104.062803 
L 149.272042 101.959658 
L 149.282342 101.862589 
L 149.62997 96.103206 
L 149.717521 91.282149 
L 149.761296 76.430704 
L 149.794771 27.022957 
L 149.866872 82.966634 
L 150.011073 107.330768 
L 150.013648 107.298412 
L 150.075449 107.848466 
L 150.083174 107.81611 
L 150.132099 107.880822 
L 150.134674 107.945534 
L 150.2248 107.686685 
L 150.2351 107.719041 
L 150.407627 106.910139 
L 150.412777 106.974851 
L 150.482302 106.554222 
L 150.484877 106.554222 
L 150.659979 104.936418 
L 150.662554 104.936418 
L 150.79903 103.577462 
L 150.811905 103.480394 
L 151.012756 101.183111 
L 151.020482 101.086043 
L 151.303734 96.167918 
L 151.47111 85.878682 
L 151.504586 46.080693 
L 151.522611 29.643801 
L 151.594711 78.986835 
L 151.741487 105.227623 
L 151.911439 106.295373 
L 151.929464 106.230661 
L 152.05049 105.810032 
L 152.068515 105.842388 
L 152.07109 105.874744 
L 152.130316 105.421759 
L 152.140616 105.421759 
L 152.318292 103.642174 
L 152.320867 103.67453 
L 152.336317 103.577462 
L 153.052173 93.223514 
L 153.150024 83.484331 
L 153.201524 31.326317 
L 153.27105 78.922123 
L 153.417826 104.030447 
L 153.585203 105.454115 
L 153.608378 105.357047 
L 153.634128 105.486471 
L 153.695929 105.421759 
L 153.698504 105.454115 
L 153.778329 105.065842 
L 153.986906 103.836311 
L 153.999781 103.739242 
L 154.713062 93.385294 
L 154.810913 85.81397 
L 154.846963 55.366891 
L 154.872713 32.102863 
L 154.944814 78.630918 
L 155.09159 102.671492 
L 155.222916 103.448038 
L 155.287292 103.67453 
L 155.233216 103.415682 
L 155.338792 103.577462 
L 155.457243 103.221545 
L 155.356817 103.609818 
L 155.462393 103.253901 
L 155.464968 103.286257 
L 155.529344 102.703848 
L 155.537069 102.606779 
L 156.350775 90.990944 
L 156.446051 83.387263 
L 156.487251 57.049407 
L 156.513002 35.791457 
L 156.585102 74.942324 
L 156.739604 100.309497 
L 156.95848 102.121438 
L 156.981655 101.992014 
L 157.100106 101.603741 
L 157.120707 101.636097 
L 157.133582 101.571385 
L 157.267483 100.827195 
L 157.272633 100.859551 
L 157.282933 100.827195 
L 157.427134 99.532951 
L 157.434859 99.468239 
L 157.581635 98.109283 
L 158.047714 90.861519 
L 158.13269 86.040462 
L 158.19449 68.827023 
L 158.233116 37.862247 
L 158.300066 71.544935 
L 158.459718 98.432844 
L 158.639969 100.180073 
L 158.642544 100.147717 
L 158.699195 100.438921 
L 158.730095 100.438921 
L 158.75842 100.471278 
L 158.786745 100.277141 
L 158.833096 100.341853 
L 158.851121 100.374209 
L 158.966997 100.050648 
L 158.969572 100.083004 
L 159.033947 99.597663 
L 159.041672 99.630019 
L 159.930055 87.108213 
L 160.022755 79.763381 
L 160.081981 48.410332 
L 160.102581 41.130212 
L 160.164382 66.20618 
L 160.342058 96.750327 
L 160.586685 99.20939 
L 160.643336 99.144678 
L 160.718011 99.015254 
L 160.663936 99.20939 
L 160.751486 99.112322 
L 160.754061 99.177034 
L 160.851912 98.853473 
L 160.869937 98.756405 
L 161.021864 97.688654 
L 161.042464 97.591586 
L 161.817545 86.461091 
L 161.933421 75.330597 
L 162.002947 42.456811 
L 162.067322 67.047438 
L 162.247574 95.294303 
L 162.572026 98.756405 
L 162.610652 98.497556 
L 162.780603 97.753366 
L 162.783178 97.818078 
L 162.868154 97.203313 
L 163.143681 95.132523 
L 163.151406 95.100167 
L 163.300757 93.644143 
L 163.316208 93.676499 
L 163.362558 93.126446 
L 163.365133 93.126446 
L 163.679285 87.981828 
L 163.681861 88.014184 
L 163.715336 87.075857 
L 163.854387 77.78966 
L 163.916187 52.260706 
L 163.941938 44.818806 
L 164.003738 63.002927 
L 164.196865 94.355977 
L 164.423467 97.365093 
L 164.426042 97.332737 
L 164.531617 97.850434 
L 164.565093 97.688654 
L 164.572818 97.623942 
L 164.688694 97.332737 
L 164.691269 97.397449 
L 164.709294 97.300381 
L 164.717019 97.332737 
L 164.894695 96.362054 
L 164.925596 96.264986 
L 165.726427 84.810931 
L 165.947879 68.374038 
L 166.012255 50.125204 
L 166.07663 61.708684 
L 166.310957 92.867597 
L 166.504084 96.006137 
L 166.519534 96.103206 
L 166.65601 96.426767 
L 166.704935 96.523835 
L 166.725535 96.588547 
L 166.777036 96.297342 
L 166.795061 96.362054 
L 166.921237 95.779645 
L 166.926387 95.747289 
L 167.052563 94.841318 
L 167.057713 94.938386 
L 168.010471 81.575322 
L 168.139222 75.55709 
L 168.224198 63.294132 
L 168.288573 53.490238 
L 168.342649 61.288055 
L 168.587276 90.084973 
L 168.873103 94.58247 
L 168.875678 94.550113 
L 168.885978 94.517757 
L 168.942629 94.90603 
L 168.955504 94.873674 
L 169.058505 95.32666 
L 169.073955 95.164879 
L 169.09713 95.261947 
L 169.164081 94.74425 
L 169.166656 94.776606 
L 169.318582 93.741211 
L 169.550334 92.026339 
L 169.555484 92.091051 
L 169.558059 92.155763 
L 169.627584 91.282149 
L 169.632734 91.314505 
L 169.900537 89.340783 
L 169.905687 89.405495 
L 169.970062 88.823086 
L 169.980362 88.855442 
L 170.685918 78.469138 
L 170.97432 62.032245 
L 171.051571 65.591415 
L 171.448124 87.205281 
L 171.875578 91.605709 
L 171.901328 91.540997 
L 171.906478 91.476285 
L 171.986304 91.799846 
L 171.991454 91.799846 
L 172.08673 92.058695 
L 172.040379 91.638065 
L 172.109905 91.92927 
L 172.238656 91.443929 
L 172.336507 91.346861 
L 172.563108 89.890837 
L 172.575984 89.793768 
L 172.830911 87.981828 
L 172.841211 87.884759 
L 173.075538 86.331667 
L 173.093563 86.234599 
L 173.109013 86.266955 
L 173.397415 83.74318 
L 173.39999 83.807892 
L 173.479816 83.096058 
L 173.482391 83.128414 
L 173.605992 82.351868 
L 173.616292 82.481293 
L 173.631742 82.675429 
L 173.688393 82.060663 
L 174.02057 76.495416 
L 174.072071 76.560128 
L 174.203397 77.142538 
L 174.272922 77.110182 
L 174.296098 77.304318 
L 174.303823 77.271962 
L 174.453174 79.019191 
L 174.478924 78.922123 
L 174.545875 79.019191 
L 174.785352 80.636996 
L 174.795652 80.539927 
L 174.862602 81.025269 
L 174.867752 80.992912 
L 174.885777 81.057625 
L 175.078904 83.128414 
L 175.102079 83.225483 
L 175.387907 85.425697 
L 175.418807 85.166848 
L 175.470307 85.652189 
L 175.480607 85.619833 
L 175.514083 85.652189 
L 175.542408 85.425697 
L 175.581033 85.522765 
L 175.663434 85.005067 
L 175.702059 85.102136 
L 175.738109 85.06978 
L 175.79991 84.584438 
L 175.853985 84.778575 
L 175.993037 83.516687 
L 176.044537 83.775536 
L 176.129513 83.678468 
L 176.281439 82.99899 
L 176.291739 83.031346 
L 176.302039 83.096058 
L 176.37929 82.772497 
L 176.381865 82.772497 
L 176.513191 82.319512 
L 176.523491 82.351868 
L 176.544091 82.481293 
L 176.608467 82.157732 
L 176.618767 82.157732 
L 176.675417 82.2548 
L 176.762968 81.737103 
L 176.778418 81.67239 
L 176.940644 80.378147 
L 176.956094 80.281079 
L 177.272822 77.563167 
L 177.275397 77.627879 
L 177.319172 77.692591 
L 177.347498 77.336675 
L 177.386123 77.660235 
L 177.388698 77.627879 
L 177.424748 78.210289 
L 177.447924 78.177933 
L 177.566374 78.53385 
L 177.571525 78.53385 
L 177.679675 78.372069 
L 177.6153 78.663274 
L 177.684825 78.404425 
L 177.710576 78.339713 
L 177.823877 79.180972 
L 177.826452 79.148615 
L 177.877952 79.601601 
L 177.893402 79.601601 
L 178.019578 80.669352 
L 178.029878 80.572283 
L 178.197255 81.316473 
L 178.238455 81.187049 
L 178.22043 81.381186 
L 178.307981 81.284117 
L 178.418706 81.834171 
L 178.459907 81.801815 
L 178.532007 81.898883 
L 178.655608 82.41658 
L 178.668484 82.319512 
L 178.681359 82.351868 
L 178.812685 81.898883 
L 178.89766 81.931239 
L 178.931136 82.060663 
L 178.982636 81.834171 
L 179.010961 82.028307 
L 179.150013 82.675429 
L 179.165463 82.610717 
L 179.191213 82.448936 
L 179.253013 82.83721 
L 179.276189 82.610717 
L 179.319964 82.513649 
L 179.337989 82.384224 
L 179.41524 82.643073 
L 179.422965 82.610717 
L 179.479615 82.546005 
L 179.580041 81.898883 
L 179.608366 82.028307 
L 179.623816 82.125376 
L 179.690767 81.67239 
L 179.701067 81.640034 
L 179.832393 80.831132 
L 180.022945 79.828093 
L 180.038395 79.763381 
L 180.182596 78.339713 
L 180.185171 78.404425 
L 180.216071 78.501494 
L 180.316497 77.822016 
L 180.468423 78.436782 
L 180.362847 77.78966 
L 180.473573 78.404425 
L 180.483873 78.501494 
L 180.6461 79.892805 
L 180.669275 79.828093 
L 180.733651 80.378147 
L 180.736226 80.378147 
L 180.749101 80.475215 
L 180.813476 80.831132 
L 180.857252 80.507571 
L 180.867552 80.410503 
L 180.949952 80.76642 
L 180.960252 80.734064 
L 180.967977 80.636996 
L 180.980853 80.539927 
L 181.042653 80.798776 
L 181.070978 80.701708 
L 181.192004 81.445898 
L 181.083853 80.636996 
L 181.207454 81.381186 
L 181.25638 81.122337 
L 181.30273 81.413542 
L 181.315605 81.413542 
L 181.367106 81.478254 
L 181.488132 82.157732 
L 181.490707 82.125376 
L 181.521607 82.060663 
L 181.650358 81.51061 
L 181.660658 81.575322 
L 181.743059 81.219405 
L 181.748209 81.251761 
L 181.87181 80.992912 
L 181.87696 81.025269 
L 181.894985 80.960556 
L 181.915585 80.798776 
L 181.990261 81.478254 
L 181.992836 81.413542 
L 182.046911 81.737103 
L 182.098412 81.381186 
L 182.407414 78.825055 
L 182.409989 78.857411 
L 182.44089 78.922123 
L 182.453765 79.083903 
L 182.541315 78.727986 
L 182.54389 78.727986 
L 182.623716 78.372069 
L 182.662341 78.53385 
L 182.829718 79.375108 
L 182.837443 79.342752 
L 182.886368 79.407464 
L 183.004819 79.698669 
L 183.058895 79.601601 
L 183.027994 79.860449 
L 183.10782 79.795737 
L 183.11812 79.860449 
L 183.203096 79.43982 
L 183.226271 79.342752 
L 183.257171 79.27804 
L 183.290646 79.601601 
L 183.324122 79.504532 
L 183.342147 79.569245 
L 183.403947 79.116259 
L 183.406522 79.148615 
L 183.537849 78.598562 
L 183.414248 79.180972 
L 183.550724 78.727986 
L 183.571324 78.954479 
L 183.633124 78.501494 
L 183.651149 78.501494 
L 183.6666 78.404425 
L 183.7078 78.792698 
L 183.751575 78.727986 
L 183.893201 79.180972 
L 183.895776 79.148615 
L 183.998777 78.954479 
L 183.949852 79.213328 
L 184.006502 79.051547 
L 184.052853 79.148615 
L 184.197054 79.569245 
L 184.31808 79.180972 
L 184.220229 79.698669 
L 184.320655 79.213328 
L 184.33353 79.27804 
L 184.462281 79.989874 
L 184.596182 79.569245 
L 184.485456 80.02223 
L 184.601332 79.601601 
L 184.681158 79.666313 
L 184.632233 79.472176 
L 184.706908 79.536889 
L 184.925785 78.177933 
L 184.951535 78.080865 
L 185.093161 76.851333 
L 185.108611 76.786621 
L 185.147237 76.430704 
L 185.229637 76.527772 
L 185.242513 76.46306 
L 185.278563 76.398348 
L 185.345513 76.592484 
L 185.407314 76.818977 
L 185.458814 76.624841 
L 185.55924 75.783582 
L 185.615891 76.010075 
L 185.780692 77.466099 
L 185.783267 77.433743 
L 185.984119 78.922123 
L 186.002144 78.825055 
L 186.017594 78.69563 
L 186.081969 79.083903 
L 186.105145 79.019191 
L 186.223596 79.536889 
L 186.231321 79.43982 
L 186.264796 79.342752 
L 186.277671 79.245684 
L 186.347197 79.698669 
L 186.349772 79.666313 
L 186.501698 80.701708 
L 186.530023 80.76642 
L 186.651049 81.219405 
L 186.671649 81.316473 
L 186.72315 81.154693 
L 186.787525 81.381186 
L 186.821 81.445898 
L 186.864776 81.640034 
L 186.916276 81.089981 
L 186.918851 81.154693 
L 186.954902 80.701708 
L 187.042452 80.831132 
L 187.132578 81.122337 
L 187.070778 80.734064 
L 187.153178 80.863488 
L 187.155753 80.798776 
L 187.222704 81.478254 
L 187.245879 81.284117 
L 187.271629 81.381186 
L 187.402955 82.319512 
L 187.41583 82.222444 
L 187.544581 81.478254 
L 187.549731 81.51061 
L 187.614107 80.960556 
L 187.616682 81.025269 
L 187.742858 80.410503 
L 187.753158 80.313435 
L 187.894784 79.828093 
L 187.899934 79.860449 
L 187.917959 79.763381 
L 188.03126 79.472176 
L 187.941135 79.795737 
L 188.038985 79.504532 
L 188.080186 79.601601 
L 188.170312 79.763381 
L 188.190912 79.633957 
L 188.327388 78.501494 
L 188.329963 78.53385 
L 188.412364 77.78966 
L 188.489614 77.919084 
L 188.502489 77.822016 
L 188.716216 75.589446 
L 188.772867 75.783582 
L 188.788317 75.71887 
L 188.917068 76.657197 
L 188.932518 76.721909 
L 189.061269 77.239606 
L 189.066419 77.20725 
L 189.112769 77.78966 
L 189.130794 77.757304 
L 189.24667 78.598562 
L 189.269846 78.501494 
L 189.282721 78.598562 
L 189.424347 79.148615 
L 189.293021 78.469138 
L 189.432072 79.116259 
L 189.452672 79.180972 
L 189.550523 78.825055 
L 189.650949 79.43982 
L 189.676699 79.27804 
L 189.705024 79.116259 
L 189.738499 79.342752 
L 189.79 79.213328 
L 189.833775 79.245684 
L 189.874976 78.889767 
L 189.877551 78.922123 
L 189.918751 78.792698 
L 189.967676 79.180972 
L 189.970251 79.148615 
L 190.137628 80.151654 
L 190.158228 80.119298 
L 190.186553 79.957518 
L 190.266379 80.18401 
L 190.387405 79.731025 
L 190.276679 80.248722 
L 190.397705 79.828093 
L 190.516156 80.119298 
L 190.608857 80.475215 
L 190.637182 80.378147 
L 190.660357 80.248722 
L 190.675807 80.539927 
L 190.750483 80.345791 
L 190.863784 80.960556 
L 190.997685 108.88386 
L 191.239737 120.532052 
L 191.62599 127.456255 
L 191.63629 127.553323 
L 192.007093 130.821288 
L 192.025118 130.886 
L 192.171894 131.824327 
L 192.179619 131.759615 
L 192.25687 132.309668 
L 192.26202 132.309668 
L 192.28262 132.37438 
L 192.413946 133.150927 
L 192.419096 133.118571 
L 192.496347 133.442131 
L 192.501497 133.442131 
L 192.522097 133.5392 
L 192.671449 134.056897 
L 192.684324 133.959829 
L 192.764149 134.218678 
L 192.769299 134.218678 
L 192.807925 134.315746 
L 192.934101 134.606951 
L 192.939251 134.574594 
L 192.990751 134.671663 
L 193.111777 134.930511 
L 193.119502 134.898155 
L 193.134952 134.833443 
L 193.209628 135.092292 
L 193.219928 135.02758 
L 193.335804 135.254072 
L 193.343529 135.221716 
L 193.45683 135.415853 
L 193.49803 135.351141 
L 193.557256 135.480565 
L 193.562406 135.448209 
L 193.660257 135.480565 
L 193.580431 135.383497 
L 193.670557 135.415853 
L 193.969259 135.351141 
L 193.971834 135.286428 
L 193.997584 135.415853 
L 194.07741 135.383497 
L 194.468813 135.318785 
L 194.479113 135.351141 
L 194.579539 135.221716 
L 194.633615 135.286428 
L 194.64134 135.157004 
L 194.68769 135.157004 
L 194.741766 135.221716 
L 194.775241 135.059936 
L 194.795841 135.157004 
L 194.916867 134.995224 
L 194.991543 135.059936 
L 194.965792 134.962868 
L 195.027593 135.02758 
L 195.146044 134.898155 
L 195.192394 135.02758 
L 195.25677 134.898155 
L 195.370071 134.704019 
L 195.26707 134.930511 
L 195.377796 134.736375 
L 195.382946 134.801087 
L 195.439596 134.639307 
L 195.485947 134.704019 
L 195.529722 134.639307 
L 195.578647 134.671663 
L 195.643023 134.509882 
L 195.666198 134.574594 
L 195.740874 134.44517 
L 195.751174 134.477526 
L 195.869625 134.380458 
L 195.977776 134.44517 
L 195.910825 134.315746 
L 195.980351 134.412814 
L 196.091077 134.28339 
L 196.093652 134.315746 
L 196.248153 134.218678 
L 196.348579 134.121609 
L 196.266178 134.28339 
L 196.358879 134.186321 
L 196.47733 134.089253 
L 196.495355 134.121609 
L 196.593206 133.992185 
L 196.598356 134.056897 
L 196.629256 133.959829 
L 196.703932 134.024541 
L 196.739982 133.927473 
L 196.768307 133.992185 
L 196.855858 133.798048 
L 196.858433 133.895117 
L 196.953709 133.70098 
L 196.964009 133.733336 
L 197.074735 133.636268 
L 196.974309 133.798048 
L 197.07731 133.70098 
L 197.141685 133.636268 
L 197.252411 133.442131 
L 197.254986 133.474487 
L 197.314212 133.571556 
L 197.337387 133.409775 
L 197.365712 133.474487 
L 197.450688 133.377419 
L 197.515063 133.442131 
L 197.558839 133.312707 
L 197.615489 133.442131 
L 197.636089 133.280351 
L 197.669565 133.345063 
L 197.72879 133.312707 
L 197.76484 133.442131 
L 197.772565 133.442131 
L 197.865266 133.345063 
L 197.909042 133.280351 
L 197.934792 133.409775 
L 197.975992 133.312707 
L 197.994017 133.377419 
L 198.071268 133.183283 
L 198.078993 133.215639 
L 198.197444 133.053858 
L 198.089293 133.247995 
L 198.200019 133.086214 
L 198.248944 133.150927 
L 198.254094 133.053858 
L 198.30817 133.053858 
L 198.472971 133.021502 
L 198.475546 132.924434 
L 198.534772 133.086214 
L 198.583697 133.021502 
L 198.678973 132.95679 
L 198.606872 133.053858 
L 198.696998 132.989146 
L 198.797424 133.086214 
L 198.735623 132.95679 
L 198.805149 132.989146 
L 198.8927 132.859722 
L 198.833474 133.021502 
L 198.921025 132.924434 
L 199.062651 132.859722 
L 199.134752 132.762654 
L 199.098701 132.924434 
L 199.173377 132.859722 
L 199.631731 132.762654 
L 199.642031 132.827366 
L 199.747607 132.633229 
L 199.775932 132.79501 
L 199.832582 132.600873 
L 199.858333 132.665585 
L 199.963908 132.730297 
L 199.889233 132.633229 
L 199.971633 132.697941 
L 200.610239 132.600873 
L 200.708089 132.568517 
L 200.620539 132.665585 
L 200.71839 132.633229 
L 200.813665 132.665585 
L 200.741565 132.568517 
L 200.82654 132.633229 
L 200.857441 132.536161 
L 200.831691 132.665585 
L 200.934691 132.665585 
L 201.109793 132.762654 
L 201.125243 132.827366 
L 201.166443 132.665585 
L 201.220519 132.762654 
L 201.472871 132.697941 
L 201.539821 132.600873 
L 201.503771 132.730297 
L 201.583597 132.665585 
L 202.150101 132.762654 
L 202.250527 132.827366 
L 202.162976 132.697941 
L 202.260827 132.762654 
L 202.770681 132.827366 
L 202.804157 132.892078 
L 202.775831 132.762654 
L 202.881407 132.827366 
L 202.883982 132.730297 
L 202.912308 132.859722 
L 202.992133 132.79501 
L 203.259935 132.730297 
L 203.267661 132.762654 
L 203.380961 132.406737 
L 203.383536 132.439093 
L 203.473662 132.2126 
L 203.478812 132.244956 
L 203.890816 132.342024 
L 203.950041 132.503805 
L 204.009267 132.439093 
L 204.027292 132.536161 
L 204.122568 132.37438 
L 204.215268 132.503805 
L 204.130293 132.342024 
L 204.238443 132.439093 
L 204.418695 132.471449 
L 204.47792 132.633229 
L 204.531996 132.568517 
L 204.550021 132.697941 
L 204.645297 132.665585 
L 204.833273 132.600873 
L 204.913099 132.536161 
L 204.838423 132.633229 
L 204.943999 132.568517 
L 204.946574 132.633229 
L 204.9749 132.471449 
L 205.05215 132.503805 
L 205.137126 132.37438 
L 205.108801 132.536161 
L 205.168026 132.439093 
L 205.196351 132.37438 
L 205.283902 132.536161 
L 205.363728 132.439093 
L 205.394628 132.471449 
L 205.428103 132.568517 
L 205.505354 132.503805 
L 205.912207 132.439093 
L 206.010058 132.342024 
L 206.022933 132.37438 
L 206.069284 132.471449 
L 206.033233 132.309668 
L 206.138809 132.439093 
L 206.313911 132.342024 
L 206.316486 132.277312 
L 206.396311 132.439093 
L 206.422061 132.342024 
L 206.434937 132.471449 
L 206.501887 132.277312 
L 206.535362 132.406737 
L 206.695014 132.309668 
L 206.798014 132.277312 
L 206.723339 132.439093 
L 206.80574 132.309668 
L 207.47782 132.2126 
L 207.555071 132.115532 
L 207.495845 132.277312 
L 207.591121 132.180244 
L 207.691547 132.244956 
L 207.637471 132.115532 
L 207.699272 132.147888 
L 207.758497 132.244956 
L 207.802273 132.309668 
L 207.789398 132.180244 
L 207.864073 132.2126 
L 207.866648 132.147888 
L 207.936174 132.277312 
L 207.972224 132.277312 
L 208.582504 132.37438 
L 208.659755 132.439093 
L 208.590229 132.309668 
L 208.69323 132.37438 
L 208.976482 132.471449 
L 209.035708 132.536161 
L 209.004808 132.406737 
L 209.087208 132.471449 
L 209.192784 132.406737 
L 209.112959 132.503805 
L 209.197934 132.471449 
L 209.28291 132.342024 
L 209.31381 132.406737 
L 209.32926 132.439093 
L 209.342135 132.309668 
L 209.416811 132.342024 
L 209.527537 132.277312 
L 209.450286 132.439093 
L 209.530112 132.309668 
L 209.676888 132.2126 
L 209.694913 132.180244 
L 209.761864 132.342024 
L 209.779889 132.277312 
L 209.833964 132.406737 
L 209.890615 132.309668 
L 210.063141 132.342024 
L 210.065716 132.439093 
L 210.132667 132.277312 
L 210.173867 132.342024 
L 210.266568 132.244956 
L 210.186742 132.37438 
L 210.284593 132.277312 
L 210.364419 132.439093 
L 210.397894 132.37438 
L 210.400469 132.309668 
L 210.485445 132.471449 
L 210.506045 132.406737 
L 210.578146 132.503805 
L 210.678571 132.536161 
L 210.665696 132.406737 
L 210.683721 132.503805 
L 210.789297 132.342024 
L 210.714622 132.536161 
L 210.797022 132.439093 
L 210.887148 132.342024 
L 210.812472 132.471449 
L 210.907748 132.439093 
L 211.0674 132.37438 
L 211.121475 132.309668 
L 211.090575 132.406737 
L 211.17555 132.342024 
L 211.188426 132.406737 
L 211.260526 132.244956 
L 211.283701 132.277312 
L 211.463953 132.342024 
L 211.566954 132.406737 
L 211.471678 132.277312 
L 211.574679 132.342024 
L 211.615879 132.309668 
L 211.690555 132.406737 
L 211.806431 132.277312 
L 211.906856 132.37438 
L 211.839906 132.2126 
L 211.917157 132.309668 
L 212.172084 132.2126 
L 212.244184 132.180244 
L 212.210709 132.309668 
L 212.280235 132.244956 
L 212.442461 132.309668 
L 212.540312 132.439093 
L 212.450186 132.277312 
L 212.553187 132.342024 
L 213.081066 132.406737 
L 213.155742 132.503805 
L 213.088791 132.37438 
L 213.194367 132.471449 
L 213.222692 132.406737 
L 213.289643 132.536161 
L 213.302518 132.471449 
L 213.408094 132.600873 
L 213.323118 132.439093 
L 213.418394 132.568517 
L 213.52397 132.471449 
L 213.475044 132.600873 
L 213.53427 132.503805 
L 213.603795 132.600873 
L 213.547145 132.439093 
L 213.642421 132.471449 
L 213.655296 132.406737 
L 213.727396 132.600873 
L 213.750572 132.503805 
L 213.786622 132.568517 
L 213.802072 132.471449 
L 213.858722 132.536161 
L 213.959148 132.406737 
L 213.972023 132.471449 
L 214.1085 132.536161 
L 214.14455 132.600873 
L 214.172875 132.471449 
L 214.219225 132.568517 
L 214.499903 132.471449 
L 214.517928 132.536161 
L 214.615779 132.406737 
L 214.636379 132.439093 
L 214.638954 132.536161 
L 214.672429 132.37438 
L 214.747105 132.439093 
L 214.793455 132.37438 
L 214.896456 132.309668 
L 214.850106 132.439093 
L 214.904181 132.342024 
L 214.935081 132.439093 
L 215.007182 132.277312 
L 215.017482 132.37438 
L 215.128208 132.244956 
L 215.130783 132.277312 
L 215.444935 132.244956 
L 215.555661 132.147888 
L 215.609737 132.244956 
L 215.630337 132.115532 
L 215.666387 132.147888 
L 216.065516 132.083176 
L 216.140191 132.018464 
L 216.070666 132.115532 
L 216.173666 132.115532 
L 216.650045 132.2126 
L 216.680946 132.244956 
L 216.691246 132.115532 
L 216.755621 132.147888 
L 216.961623 132.083176 
L 217.059474 131.953751 
L 216.966773 132.115532 
L 217.074924 132.018464 
L 217.2423 132.115532 
L 217.347876 132.244956 
L 217.250025 132.083176 
L 217.355601 132.180244 
L 217.450877 132.147888 
L 217.386501 132.244956 
L 217.463752 132.180244 
L 217.582203 132.309668 
L 217.674904 132.244956 
L 217.607953 132.37438 
L 217.692929 132.309668 
L 218.359859 132.37438 
L 218.439685 132.439093 
L 218.377885 132.309668 
L 218.470585 132.406737 
L 218.710062 132.309668 
L 218.782163 132.277312 
L 218.761563 132.406737 
L 218.818213 132.309668 
L 218.923789 132.37438 
L 218.854263 132.244956 
L 218.928939 132.342024 
L 219.008765 132.309668 
L 219.03194 132.406737 
L 219.03709 132.37438 
L 219.116916 132.342024 
L 219.183866 132.244956 
L 219.134941 132.37438 
L 219.227642 132.342024 
L 219.230217 132.406737 
L 219.310042 132.244956 
L 219.335792 132.277312 
L 219.418193 132.309668 
L 219.405318 132.2126 
L 219.446518 132.277312 
L 219.554669 132.2126 
L 219.523769 132.342024 
L 219.557244 132.277312 
L 219.752946 132.37438 
L 219.755521 132.406737 
L 219.778696 132.277312 
L 219.858522 132.342024 
L 219.964098 132.2126 
L 219.974398 132.277312 
L 220.085124 132.342024 
L 220.054223 132.2126 
L 220.087699 132.309668 
L 220.2731 132.37438 
L 220.275675 132.439093 
L 220.301425 132.277312 
L 220.383826 132.37438 
L 220.494552 132.439093 
L 220.394126 132.342024 
L 220.497127 132.406737 
L 220.584678 132.244956 
L 220.613003 132.309668 
L 220.664503 132.37438 
L 220.649053 132.244956 
L 220.721154 132.309668 
L 220.819005 132.180244 
L 220.759779 132.342024 
L 220.834455 132.277312 
L 221.066207 132.277312 
L 221.158907 132.115532 
L 221.179508 132.147888 
L 221.285083 132.115532 
L 221.233583 132.244956 
L 221.290233 132.147888 
L 221.303109 132.115532 
L 221.408684 132.277312 
L 221.527135 132.180244 
L 221.53486 132.277312 
L 221.596661 132.115532 
L 221.637861 132.180244 
L 221.686787 132.277312 
L 221.643011 132.147888 
L 221.746012 132.180244 
L 221.766612 132.115532 
L 221.784638 132.2126 
L 221.856738 132.147888 
L 221.890213 132.244956 
L 221.874763 132.115532 
L 221.970039 132.180244 
L 222.05759 132.244956 
L 222.08334 132.083176 
L 222.11424 132.180244 
L 222.142565 132.05082 
L 222.196641 132.147888 
L 222.307367 131.986107 
L 222.312517 132.05082 
L 222.343417 132.115532 
L 222.320242 131.986107 
L 222.420668 132.05082 
L 222.443843 131.986107 
L 222.451568 132.115532 
L 222.531394 132.05082 
L 222.711645 132.147888 
L 222.71422 132.180244 
L 222.75027 132.018464 
L 222.817221 132.083176 
L 223.383726 132.180244 
L 223.489302 132.244956 
L 223.388876 132.115532 
L 223.494452 132.180244 
L 223.535652 132.244956 
L 223.630928 132.342024 
L 223.540802 132.2126 
L 223.648953 132.309668 
L 223.847229 132.277312 
L 223.870405 132.180244 
L 223.906455 132.342024 
L 223.957955 132.2126 
L 224.411159 132.309668 
L 224.470385 132.342024 
L 224.444634 132.244956 
L 224.51931 132.309668 
L 224.557935 132.244956 
L 224.586261 132.37438 
L 224.627461 132.309668 
L 224.717587 132.342024 
L 224.730462 132.244956 
L 224.735612 132.277312 
L 225.245466 132.342024 
L 225.248041 132.406737 
L 225.273791 132.244956 
L 225.353617 132.342024 
L 225.392242 132.244956 
L 225.464343 132.342024 
L 225.510693 132.277312 
L 225.585369 132.2126 
L 225.608544 132.37438 
L 225.618844 132.342024 
L 225.657469 132.37438 
L 225.73987 132.2126 
L 225.848021 132.309668 
L 225.853171 132.244956 
L 225.912396 132.180244 
L 225.863471 132.309668 
L 225.961322 132.277312 
L 226.870304 132.37438 
L 226.883179 132.406737 
L 226.916655 132.244956 
L 226.978455 132.342024 
L 227.694311 132.277312 
L 227.696886 132.2126 
L 227.763837 132.439093 
L 227.799887 132.406737 
L 228.11919 132.471449 
L 228.224765 132.536161 
L 228.15524 132.37438 
L 228.229915 132.503805 
L 228.235065 132.406737 
L 228.335491 132.536161 
L 228.343216 132.439093 
L 228.410167 132.406737 
L 228.456517 132.503805 
L 228.549218 132.471449 
L 228.489993 132.536161 
L 228.567243 132.503805 
L 228.647069 132.600873 
L 228.74492 132.633229 
L 228.654794 132.503805 
L 228.757795 132.600873 
L 228.81702 132.503805 
L 228.860796 132.633229 
L 228.871096 132.536161 
L 228.894271 132.633229 
L 228.956071 132.471449 
L 228.976672 132.536161 
L 229.051347 132.568517 
L 229.087397 132.439093 
L 229.198123 132.536161 
L 229.092548 132.406737 
L 229.203273 132.503805 
L 229.303699 132.406737 
L 229.316574 132.439093 
L 229.373225 132.37438 
L 229.414425 132.536161 
L 229.42215 132.503805 
L 229.530301 132.568517 
L 229.486526 132.439093 
L 229.535451 132.536161 
L 229.561201 132.406737 
L 229.653902 132.439093 
L 229.674502 132.503805 
L 229.689952 132.406737 
L 229.767203 132.471449 
L 229.847029 132.342024 
L 229.777503 132.503805 
L 229.880504 132.406737 
L 229.883079 132.37438 
L 229.926854 132.536161 
L 229.988655 132.439093 
L 230.55001 132.439093 
L 230.552585 132.568517 
L 230.660735 132.471449 
L 230.696786 132.503805 
L 230.776611 132.406737 
L 230.792061 132.471449 
L 230.835837 132.309668 
L 230.884762 132.37438 
L 230.887337 132.342024 
L 230.967163 132.471449 
L 230.990338 132.439093 
L 231.093339 132.342024 
L 231.183465 132.309668 
L 231.193765 132.439093 
L 231.198915 132.406737 
L 231.502767 132.342024 
L 231.605768 132.277312 
L 231.510492 132.37438 
L 231.613493 132.342024 
L 231.616068 132.406737 
L 231.680444 132.244956 
L 231.724219 132.342024 
L 231.824645 132.277312 
L 231.78602 132.406737 
L 231.834945 132.309668 
L 231.940521 132.37438 
L 231.860695 132.244956 
L 231.945671 132.342024 
L 231.994596 132.244956 
L 231.992021 132.37438 
L 232.058972 132.277312 
L 232.156823 132.406737 
L 232.064122 132.244956 
L 232.174848 132.342024 
L 232.275274 132.309668 
L 232.221198 132.406737 
L 232.285574 132.342024 
L 232.514751 132.244956 
L 232.604876 132.2126 
L 232.530201 132.342024 
L 232.625477 132.244956 
L 232.669252 132.309668 
L 232.643502 132.2126 
L 232.736202 132.277312 
L 232.947354 132.342024 
L 233.02203 132.439093 
L 233.05808 132.342024 
L 233.096705 132.471449 
L 233.06323 132.309668 
L 233.171381 132.406737 
L 233.243482 132.309668 
L 233.264082 132.439093 
L 233.282107 132.37438 
L 233.284682 132.439093 
L 233.300132 132.342024 
L 233.392833 132.406737 
L 233.503559 132.277312 
L 233.506134 132.309668 
L 233.964488 132.244956 
L 233.967063 132.147888 
L 234.005688 132.342024 
L 234.072638 132.309668 
L 234.149889 132.244956 
L 234.152464 132.180244 
L 234.224565 132.342024 
L 234.25804 132.244956 
L 234.26834 132.342024 
L 234.29409 132.180244 
L 234.371341 132.277312 
L 234.376491 132.180244 
L 234.435716 132.309668 
L 234.482067 132.277312 
L 234.670043 132.37438 
L 234.747294 132.277312 
L 234.783344 132.406737 
L 234.82712 132.244956 
L 234.798794 132.439093 
L 234.896645 132.342024 
L 235.864853 132.309668 
L 235.888028 132.2126 
L 235.877728 132.342024 
L 235.973004 132.277312 
L 236.076005 132.37438 
L 236.021929 132.244956 
L 236.08373 132.309668 
L 236.168706 132.244956 
L 236.122355 132.342024 
L 236.191881 132.277312 
L 236.300032 132.342024 
L 236.258831 132.244956 
L 236.302607 132.309668 
L 236.889712 132.244956 
L 236.990137 132.180244 
L 236.961812 132.277312 
L 236.997862 132.244956 
L 237.069963 132.342024 
L 237.080263 132.2126 
L 237.111163 132.277312 
L 237.124038 132.2126 
L 237.167814 132.37438 
L 237.221889 132.277312 
L 237.845044 132.2126 
L 237.906845 132.147888 
L 237.932595 132.277312 
L 237.953195 132.277312 
L 238.071646 132.180244 
L 238.112847 132.277312 
L 238.128297 132.147888 
L 238.184947 132.2126 
L 238.293098 132.115532 
L 238.190097 132.244956 
L 238.298248 132.180244 
L 239.75056 132.277312 
L 239.758285 132.342024 
L 239.809786 132.180244 
L 239.861286 132.277312 
L 239.884461 132.244956 
L 239.899911 132.342024 
L 239.966862 132.309668 
L 240.038962 132.37438 
L 240.026087 132.2126 
L 240.075013 132.277312 
L 240.170288 132.2126 
L 240.147113 132.342024 
L 240.183164 132.309668 
L 241.043221 132.244956 
L 241.053521 132.277312 
L 241.156522 132.115532 
L 241.177122 132.277312 
L 241.169397 132.05082 
L 241.264672 132.115532 
L 241.375398 132.05082 
L 241.277548 132.147888 
L 241.377973 132.083176 
L 241.715301 132.180244 
L 241.782252 132.244956 
L 241.723026 132.115532 
L 241.826027 132.180244 
L 241.995978 132.083176 
L 242.050054 131.986107 
L 242.075804 132.147888 
L 242.106704 132.083176 
L 242.946161 132.018464 
L 242.987362 131.953751 
L 242.984787 132.083176 
L 243.056887 131.986107 
L 243.445715 132.018464 
L 243.556441 132.115532 
L 243.659442 132.147888 
L 243.674892 132.018464 
L 243.829394 132.115532 
L 243.911794 132.147888 
L 243.891194 132.05082 
L 243.940119 132.115532 
L 244.135821 132.147888 
L 244.166721 132.244956 
L 244.220797 132.115532 
L 244.246547 132.2126 
L 244.6122 132.115532 
L 244.614775 132.083176 
L 244.650825 132.180244 
L 244.720351 132.147888 
L 244.818202 132.2126 
L 244.738376 132.115532 
L 244.831077 132.180244 
L 244.838802 132.083176 
L 244.903177 132.277312 
L 244.936653 132.2126 
L 245.029353 132.309668 
L 244.941803 132.180244 
L 245.049954 132.277312 
L 245.086004 132.147888 
L 245.160679 132.244956 
L 245.433632 132.147888 
L 245.436207 132.115532 
L 245.487707 132.244956 
L 245.539208 132.147888 
L 245.552083 132.244956 
L 245.577833 132.115532 
L 245.649933 132.180244 
L 245.719459 132.083176 
L 245.742634 132.244956 
L 245.760659 132.147888 
L 245.835335 132.244956 
L 245.79671 132.083176 
L 245.87396 132.2126 
L 245.979536 132.05082 
L 245.886835 132.244956 
L 245.989836 132.115532 
L 245.997561 132.05082 
L 246.105712 132.2126 
L 246.185538 132.115532 
L 246.146913 132.244956 
L 246.216438 132.147888 
L 246.316864 132.2126 
L 246.255063 132.083176 
L 246.327164 132.147888 
L 246.352914 132.277312 
L 246.445615 132.244956 
L 246.718567 132.309668 
L 246.721142 132.37438 
L 246.808693 132.2126 
L 246.826718 132.277312 
L 246.878219 132.2126 
L 246.921994 132.342024 
L 246.937444 132.277312 
L 247.009545 132.342024 
L 246.986369 132.2126 
L 247.045595 132.244956 
L 247.534849 132.342024 
L 247.62755 132.406737 
L 247.539999 132.277312 
L 247.643 132.37438 
L 247.655875 132.277312 
L 247.756301 132.309668 
L 248.155429 132.244956 
L 248.276455 131.727259 
L 248.28418 131.759615 
L 248.405206 131.889039 
L 248.585458 131.986107 
L 248.680733 132.05082 
L 248.613783 131.921395 
L 248.696183 131.986107 
L 248.734809 131.953751 
L 248.778584 132.083176 
L 248.804334 132.018464 
L 248.88416 132.083176 
L 248.835235 131.953751 
L 248.91506 132.018464 
L 249.077287 132.115532 
L 249.190588 132.244956 
L 249.118487 132.083176 
L 249.193163 132.2126 
L 249.221488 132.05082 
L 249.247238 132.244956 
L 249.303888 132.2126 
L 249.749367 132.277312 
L 249.860093 132.37438 
L 249.862668 132.342024 
L 249.911593 132.309668 
L 249.934769 132.439093 
L 249.968244 132.406737 
L 250.390547 132.503805 
L 250.403423 132.439093 
L 250.506423 132.568517 
L 250.627449 132.406737 
L 250.70985 132.536161 
L 250.74075 132.471449 
L 250.75105 132.503805 
L 250.856626 132.406737 
L 250.931302 132.471449 
L 250.864351 132.342024 
L 250.967352 132.406737 
L 252.046286 132.439093 
L 252.048861 132.536161 
L 252.056586 132.406737 
L 252.157012 132.471449 
L 252.205937 132.37438 
L 252.267738 132.342024 
L 252.301213 132.471449 
L 252.314088 132.37438 
L 252.399064 132.439093 
L 252.344988 132.342024 
L 252.427389 132.406737 
L 253.313196 132.503805 
L 253.416197 132.568517 
L 253.369847 132.439093 
L 253.423922 132.503805 
L 253.498598 132.471449 
L 253.472848 132.600873 
L 253.529498 132.503805 
L 253.532073 132.600873 
L 253.586149 132.439093 
L 253.637649 132.503805 
L 253.722625 132.406737 
L 253.75095 132.471449 
L 253.753525 132.503805 
L 253.805025 132.37438 
L 253.856526 132.406737 
L 253.993002 132.342024 
L 254.052227 132.244956 
L 254.065103 132.406737 
L 254.103728 132.309668 
L 254.150078 132.406737 
L 254.157803 132.277312 
L 254.214454 132.342024 
L 254.30973 132.244956 
L 254.283979 132.37438 
L 254.327755 132.309668 
L 254.34063 132.406737 
L 254.358655 132.277312 
L 254.435906 132.309668 
L 254.541481 132.277312 
L 254.456506 132.406737 
L 254.544056 132.342024 
L 254.721733 132.342024 
L 254.721733 132.342024 
" clip-path="url(#p010a932815)" style="fill: none; stroke: #000000; stroke-opacity: 0.5; stroke-width: 1.5; stroke-linecap: square"/>
   </g>
   <g id="patch_3">
    <path d="M 41.667188 173.52 
L 41.667188 7.2 
" style="fill: none; stroke: #000000; stroke-width: 0.8; stroke-linejoin: miter; stroke-linecap: square"/>
   </g>
   <g id="patch_4">
    <path d="M 41.667188 173.52 
L 264.867187 173.52 
" style="fill: none; stroke: #000000; stroke-width: 0.8; stroke-linejoin: miter; stroke-linecap: square"/>
   </g>
  </g>
 </g>
 <defs>
  <clipPath id="p010a932815">
   <rect x="41.667188" y="7.2" width="223.2" height="166.32"/>
  </clipPath>
 </defs>
</svg>
