<?xml version="1.0" encoding="utf-8" standalone="no"?>
<!DOCTYPE svg PUBLIC "-//W3C//DTD SVG 1.1//EN"
  "http://www.w3.org/Graphics/SVG/1.1/DTD/svg11.dtd">
<svg xmlns:xlink="http://www.w3.org/1999/xlink" width="460.8pt" height="345.6pt" viewBox="0 0 460.8 345.6" xmlns="http://www.w3.org/2000/svg" version="1.1">
 <metadata>
  <rdf:RDF xmlns:dc="http://purl.org/dc/elements/1.1/" xmlns:cc="http://creativecommons.org/ns#" xmlns:rdf="http://www.w3.org/1999/02/22-rdf-syntax-ns#">
   <cc:Work>
    <dc:type rdf:resource="http://purl.org/dc/dcmitype/StillImage"/>
    <dc:date>2024-02-29T19:37:45.514070</dc:date>
    <dc:format>image/svg+xml</dc:format>
    <dc:creator>
     <cc:Agent>
      <dc:title>Matplotlib v3.6.2, https://matplotlib.org/</dc:title>
     </cc:Agent>
    </dc:creator>
   </cc:Work>
  </rdf:RDF>
 </metadata>
 <defs>
  <style type="text/css">*{stroke-linejoin: round; stroke-linecap: butt}</style>
 </defs>
 <g id="figure_1">
  <g id="patch_1">
   <path d="M 0 345.6 
L 460.8 345.6 
L 460.8 0 
L 0 0 
z
" style="fill: #ffffff"/>
  </g>
  <g id="axes_1">
   <g id="patch_2">
    <path d="M 57.6 307.584 
L 414.72 307.584 
L 414.72 41.472 
L 57.6 41.472 
z
" style="fill: #ffffff"/>
   </g>
   <g id="matplotlib.axis_1">
    <g id="xtick_1">
     <g id="line2d_1">
      <defs>
       <path id="m61ee91da7e" d="M 0 0 
L 0 3.5 
" style="stroke: #000000; stroke-width: 0.8"/>
      </defs>
      <g>
       <use xlink:href="#m61ee91da7e" x="121.347784" y="307.584" style="stroke: #000000; stroke-width: 0.8"/>
      </g>
     </g>
     <g id="text_1">
      <!-- 0.2 -->
      <g transform="translate(113.396222 322.182437) scale(0.1 -0.1)">
       <defs>
        <path id="DejaVuSans-30" d="M 2034 4250 
Q 1547 4250 1301 3770 
Q 1056 3291 1056 2328 
Q 1056 1369 1301 889 
Q 1547 409 2034 409 
Q 2525 409 2770 889 
Q 3016 1369 3016 2328 
Q 3016 3291 2770 3770 
Q 2525 4250 2034 4250 
z
M 2034 4750 
Q 2819 4750 3233 4129 
Q 3647 3509 3647 2328 
Q 3647 1150 3233 529 
Q 2819 -91 2034 -91 
Q 1250 -91 836 529 
Q 422 1150 422 2328 
Q 422 3509 836 4129 
Q 1250 4750 2034 4750 
z
" transform="scale(0.015625)"/>
        <path id="DejaVuSans-2e" d="M 684 794 
L 1344 794 
L 1344 0 
L 684 0 
L 684 794 
z
" transform="scale(0.015625)"/>
        <path id="DejaVuSans-32" d="M 1228 531 
L 3431 531 
L 3431 0 
L 469 0 
L 469 531 
Q 828 903 1448 1529 
Q 2069 2156 2228 2338 
Q 2531 2678 2651 2914 
Q 2772 3150 2772 3378 
Q 2772 3750 2511 3984 
Q 2250 4219 1831 4219 
Q 1534 4219 1204 4116 
Q 875 4013 500 3803 
L 500 4441 
Q 881 4594 1212 4672 
Q 1544 4750 1819 4750 
Q 2544 4750 2975 4387 
Q 3406 4025 3406 3419 
Q 3406 3131 3298 2873 
Q 3191 2616 2906 2266 
Q 2828 2175 2409 1742 
Q 1991 1309 1228 531 
z
" transform="scale(0.015625)"/>
       </defs>
       <use xlink:href="#DejaVuSans-30"/>
       <use xlink:href="#DejaVuSans-2e" x="63.623047"/>
       <use xlink:href="#DejaVuSans-32" x="95.410156"/>
      </g>
     </g>
    </g>
    <g id="xtick_2">
     <g id="line2d_2">
      <g>
       <use xlink:href="#m61ee91da7e" x="200.539546" y="307.584" style="stroke: #000000; stroke-width: 0.8"/>
      </g>
     </g>
     <g id="text_2">
      <!-- 0.4 -->
      <g transform="translate(192.587983 322.182437) scale(0.1 -0.1)">
       <defs>
        <path id="DejaVuSans-34" d="M 2419 4116 
L 825 1625 
L 2419 1625 
L 2419 4116 
z
M 2253 4666 
L 3047 4666 
L 3047 1625 
L 3713 1625 
L 3713 1100 
L 3047 1100 
L 3047 0 
L 2419 0 
L 2419 1100 
L 313 1100 
L 313 1709 
L 2253 4666 
z
" transform="scale(0.015625)"/>
       </defs>
       <use xlink:href="#DejaVuSans-30"/>
       <use xlink:href="#DejaVuSans-2e" x="63.623047"/>
       <use xlink:href="#DejaVuSans-34" x="95.410156"/>
      </g>
     </g>
    </g>
    <g id="xtick_3">
     <g id="line2d_3">
      <g>
       <use xlink:href="#m61ee91da7e" x="279.731307" y="307.584" style="stroke: #000000; stroke-width: 0.8"/>
      </g>
     </g>
     <g id="text_3">
      <!-- 0.6 -->
      <g transform="translate(271.779745 322.182437) scale(0.1 -0.1)">
       <defs>
        <path id="DejaVuSans-36" d="M 2113 2584 
Q 1688 2584 1439 2293 
Q 1191 2003 1191 1497 
Q 1191 994 1439 701 
Q 1688 409 2113 409 
Q 2538 409 2786 701 
Q 3034 994 3034 1497 
Q 3034 2003 2786 2293 
Q 2538 2584 2113 2584 
z
M 3366 4563 
L 3366 3988 
Q 3128 4100 2886 4159 
Q 2644 4219 2406 4219 
Q 1781 4219 1451 3797 
Q 1122 3375 1075 2522 
Q 1259 2794 1537 2939 
Q 1816 3084 2150 3084 
Q 2853 3084 3261 2657 
Q 3669 2231 3669 1497 
Q 3669 778 3244 343 
Q 2819 -91 2113 -91 
Q 1303 -91 875 529 
Q 447 1150 447 2328 
Q 447 3434 972 4092 
Q 1497 4750 2381 4750 
Q 2619 4750 2861 4703 
Q 3103 4656 3366 4563 
z
" transform="scale(0.015625)"/>
       </defs>
       <use xlink:href="#DejaVuSans-30"/>
       <use xlink:href="#DejaVuSans-2e" x="63.623047"/>
       <use xlink:href="#DejaVuSans-36" x="95.410156"/>
      </g>
     </g>
    </g>
    <g id="xtick_4">
     <g id="line2d_4">
      <g>
       <use xlink:href="#m61ee91da7e" x="358.923069" y="307.584" style="stroke: #000000; stroke-width: 0.8"/>
      </g>
     </g>
     <g id="text_4">
      <!-- 0.8 -->
      <g transform="translate(350.971506 322.182437) scale(0.1 -0.1)">
       <defs>
        <path id="DejaVuSans-38" d="M 2034 2216 
Q 1584 2216 1326 1975 
Q 1069 1734 1069 1313 
Q 1069 891 1326 650 
Q 1584 409 2034 409 
Q 2484 409 2743 651 
Q 3003 894 3003 1313 
Q 3003 1734 2745 1975 
Q 2488 2216 2034 2216 
z
M 1403 2484 
Q 997 2584 770 2862 
Q 544 3141 544 3541 
Q 544 4100 942 4425 
Q 1341 4750 2034 4750 
Q 2731 4750 3128 4425 
Q 3525 4100 3525 3541 
Q 3525 3141 3298 2862 
Q 3072 2584 2669 2484 
Q 3125 2378 3379 2068 
Q 3634 1759 3634 1313 
Q 3634 634 3220 271 
Q 2806 -91 2034 -91 
Q 1263 -91 848 271 
Q 434 634 434 1313 
Q 434 1759 690 2068 
Q 947 2378 1403 2484 
z
M 1172 3481 
Q 1172 3119 1398 2916 
Q 1625 2713 2034 2713 
Q 2441 2713 2670 2916 
Q 2900 3119 2900 3481 
Q 2900 3844 2670 4047 
Q 2441 4250 2034 4250 
Q 1625 4250 1398 4047 
Q 1172 3844 1172 3481 
z
" transform="scale(0.015625)"/>
       </defs>
       <use xlink:href="#DejaVuSans-30"/>
       <use xlink:href="#DejaVuSans-2e" x="63.623047"/>
       <use xlink:href="#DejaVuSans-38" x="95.410156"/>
      </g>
     </g>
    </g>
   </g>
   <g id="matplotlib.axis_2">
    <g id="ytick_1">
     <g id="line2d_5">
      <defs>
       <path id="mf8e1a1315a" d="M 0 0 
L -3.5 0 
" style="stroke: #000000; stroke-width: 0.8"/>
      </defs>
      <g>
       <use xlink:href="#mf8e1a1315a" x="57.6" y="274.733554" style="stroke: #000000; stroke-width: 0.8"/>
      </g>
     </g>
     <g id="text_5">
      <!-- −60 -->
      <g transform="translate(29.495313 278.532773) scale(0.1 -0.1)">
       <defs>
        <path id="DejaVuSans-2212" d="M 678 2272 
L 4684 2272 
L 4684 1741 
L 678 1741 
L 678 2272 
z
" transform="scale(0.015625)"/>
       </defs>
       <use xlink:href="#DejaVuSans-2212"/>
       <use xlink:href="#DejaVuSans-36" x="83.789062"/>
       <use xlink:href="#DejaVuSans-30" x="147.412109"/>
      </g>
     </g>
    </g>
    <g id="ytick_2">
     <g id="line2d_6">
      <g>
       <use xlink:href="#mf8e1a1315a" x="57.6" y="234.529098" style="stroke: #000000; stroke-width: 0.8"/>
      </g>
     </g>
     <g id="text_6">
      <!-- −40 -->
      <g transform="translate(29.495313 238.328317) scale(0.1 -0.1)">
       <use xlink:href="#DejaVuSans-2212"/>
       <use xlink:href="#DejaVuSans-34" x="83.789062"/>
       <use xlink:href="#DejaVuSans-30" x="147.412109"/>
      </g>
     </g>
    </g>
    <g id="ytick_3">
     <g id="line2d_7">
      <g>
       <use xlink:href="#mf8e1a1315a" x="57.6" y="194.324642" style="stroke: #000000; stroke-width: 0.8"/>
      </g>
     </g>
     <g id="text_7">
      <!-- −20 -->
      <g transform="translate(29.495313 198.123861) scale(0.1 -0.1)">
       <use xlink:href="#DejaVuSans-2212"/>
       <use xlink:href="#DejaVuSans-32" x="83.789062"/>
       <use xlink:href="#DejaVuSans-30" x="147.412109"/>
      </g>
     </g>
    </g>
    <g id="ytick_4">
     <g id="line2d_8">
      <g>
       <use xlink:href="#mf8e1a1315a" x="57.6" y="154.120186" style="stroke: #000000; stroke-width: 0.8"/>
      </g>
     </g>
     <g id="text_8">
      <!-- 0 -->
      <g transform="translate(44.2375 157.919405) scale(0.1 -0.1)">
       <use xlink:href="#DejaVuSans-30"/>
      </g>
     </g>
    </g>
    <g id="ytick_5">
     <g id="line2d_9">
      <g>
       <use xlink:href="#mf8e1a1315a" x="57.6" y="113.915731" style="stroke: #000000; stroke-width: 0.8"/>
      </g>
     </g>
     <g id="text_9">
      <!-- 20 -->
      <g transform="translate(37.875 117.714949) scale(0.1 -0.1)">
       <use xlink:href="#DejaVuSans-32"/>
       <use xlink:href="#DejaVuSans-30" x="63.623047"/>
      </g>
     </g>
    </g>
    <g id="ytick_6">
     <g id="line2d_10">
      <g>
       <use xlink:href="#mf8e1a1315a" x="57.6" y="73.711275" style="stroke: #000000; stroke-width: 0.8"/>
      </g>
     </g>
     <g id="text_10">
      <!-- 40 -->
      <g transform="translate(37.875 77.510494) scale(0.1 -0.1)">
       <use xlink:href="#DejaVuSans-34"/>
       <use xlink:href="#DejaVuSans-30" x="63.623047"/>
      </g>
     </g>
    </g>
   </g>
   <g id="line2d_11">
    <path d="M 73.832727 263.918783 
L 75.384886 263.838766 
L 75.669976 263.917465 
L 76.160965 264.020187 
L 76.857853 263.811043 
L 77.45971 263.822464 
L 77.83983 263.775173 
L 78.061567 263.902495 
L 78.410011 264.018929 
L 78.631748 264.028529 
L 78.901 263.994501 
L 79.28112 263.865471 
L 80.168068 263.800132 
L 80.421482 263.786301 
L 80.706572 263.95896 
L 80.991663 264.01147 
L 81.371783 264.076142 
L 81.561843 264.191969 
L 81.656873 264.78946 
L 82.258731 270.437297 
L 83.145678 273.340458 
L 84.317716 276.359565 
L 84.982927 277.741852 
L 86.329187 280.590697 
L 88.499042 283.990071 
L 89.243444 285.133081 
L 90.843118 286.901753 
L 91.555843 287.84522 
L 92.363599 288.337285 
L 92.55366 288.447952 
L 94.359232 290.195881 
L 95.43624 290.746508 
L 96.259834 291.520596 
L 97.447711 292.061592 
L 97.986215 292.281384 
L 98.873162 292.817977 
L 99.174091 293.01421 
L 99.411666 293.087254 
L 99.775948 293.116595 
L 101.153885 293.755947 
L 101.438975 293.960238 
L 101.898288 294.100321 
L 102.310085 294.046133 
L 103.735536 294.309973 
L 104.226525 294.414036 
L 104.559131 294.420431 
L 106.269673 294.813256 
L 106.523086 294.940743 
L 107.06159 294.996055 
L 107.441711 294.93646 
L 107.83767 295.009579 
L 108.392012 294.883904 
L 108.582072 294.95295 
L 108.851324 295.157675 
L 109.136415 295.347797 
L 109.389828 295.387547 
L 109.722434 295.300978 
L 110.007524 295.223366 
L 110.435159 295.272911 
L 110.72025 295.239152 
L 112.193217 295.436388 
L 112.478307 295.363314 
L 113.254386 295.298567 
L 113.476123 295.275382 
L 113.777052 295.235662 
L 113.967112 295.363913 
L 114.188849 295.421231 
L 115.028282 295.246191 
L 115.297534 295.149363 
L 115.772684 295.111964 
L 116.453733 295.039714 
L 116.818015 295.314383 
L 117.213974 295.354148 
L 118.686941 295.192767 
L 118.940355 295.123557 
L 119.304637 295.192048 
L 119.65308 295.386948 
L 119.858979 295.290449 
L 120.555867 295.115694 
L 120.80928 295.136168 
L 121.395299 294.92635 
L 121.854611 295.156058 
L 122.408954 295.21408 
L 123.12168 294.92975 
L 123.660184 294.855103 
L 123.913597 294.834015 
L 124.357071 294.862307 
L 124.816383 295.027477 
L 125.386564 294.897534 
L 125.592463 294.793217 
L 125.782523 294.784545 
L 126.00426 294.715065 
L 126.558602 294.529811 
L 126.875369 294.661881 
L 127.44555 294.847914 
L 128.031569 294.650438 
L 129.0769 294.436532 
L 129.377829 294.487245 
L 129.583727 294.496531 
L 130.04304 294.595681 
L 130.312292 294.521723 
L 132.608853 294.435738 
L 132.862266 294.41426 
L 133.11568 294.338475 
L 133.4958 294.285545 
L 134.55697 294.251816 
L 134.84206 294.323064 
L 135.523109 294.276319 
L 136.885208 293.971321 
L 137.518742 294.101219 
L 138.104761 293.818447 
L 138.801648 293.65804 
L 139.0709 293.571951 
L 139.387667 293.611685 
L 139.720273 293.704395 
L 139.957848 293.794154 
L 140.448837 293.748803 
L 141.335785 293.498367 
L 142.032672 293.414958 
L 142.523661 293.587871 
L 142.72956 293.55943 
L 143.679861 293.352203 
L 144.756869 293.299603 
L 144.962767 293.298719 
L 145.168666 293.342273 
L 145.580463 293.323312 
L 145.8022 293.306238 
L 146.942561 293.120294 
L 147.544419 293.197607 
L 147.797833 293.2024 
L 148.035408 293.217677 
L 148.463043 293.098308 
L 149.904333 292.730899 
L 150.522029 292.862325 
L 151.440654 292.624395 
L 151.868289 292.609223 
L 152.62853 292.653301 
L 153.151196 292.79611 
L 153.943113 292.56468 
L 154.196527 292.540552 
L 154.893414 292.492729 
L 155.637817 292.68044 
L 156.730663 292.356436 
L 157.14246 292.249318 
L 158.029408 292.291404 
L 158.29866 292.345188 
L 158.884679 292.155036 
L 160.151747 292.155305 
L 160.880312 292.201315 
L 161.719744 291.925867 
L 161.941481 291.961364 
L 162.274087 291.837097 
L 162.559177 291.893696 
L 162.780914 291.916477 
L 163.556993 291.997294 
L 164.016305 291.813927 
L 166.867209 291.61019 
L 167.896702 291.524969 
L 168.498559 291.638333 
L 168.799488 291.559822 
L 169.559729 291.160586 
L 169.987364 291.116912 
L 172.283925 291.018047 
L 172.901621 290.982476 
L 173.48764 291.110801 
L 173.6777 291.165678 
L 173.899437 291.189942 
L 174.168689 291.066184 
L 174.453779 290.938712 
L 174.865577 290.914344 
L 175.594141 290.997243 
L 175.784201 290.952686 
L 176.037615 290.981083 
L 176.671149 290.996614 
L 177.478905 290.798644 
L 178.350014 290.865233 
L 178.698458 290.920155 
L 179.268639 290.869876 
L 179.553729 290.828104 
L 179.918011 290.836671 
L 180.266455 290.774396 
L 180.551545 290.857011 
L 181.280109 290.933545 
L 181.501846 290.923944 
L 182.863945 290.619904 
L 183.244065 290.700602 
L 184.131013 290.78771 
L 184.35275 290.762009 
L 185.303051 290.541768 
L 186.760179 290.715055 
L 187.599612 290.508713 
L 190.054556 290.437046 
L 190.735606 290.411405 
L 191.020696 290.439293 
L 191.321625 290.460096 
L 191.622553 290.466492 
L 191.875967 290.408574 
L 192.541178 290.341701 
L 192.794591 290.357816 
L 193.998306 290.334976 
L 194.44178 290.284862 
L 194.695194 290.303943 
L 195.233698 290.310683 
L 195.677172 290.318576 
L 195.930585 290.303598 
L 196.215675 290.294013 
L 197.261007 290.25591 
L 198.052924 290.080226 
L 198.607267 290.134984 
L 200.080233 290.028645 
L 200.618737 289.875486 
L 201.204756 289.947632 
L 202.012512 289.895376 
L 202.250088 289.871173 
L 202.487663 289.869076 
L 203.073682 289.747969 
L 203.263742 289.792722 
L 203.548833 289.779317 
L 204.134852 289.758498 
L 204.673356 289.827379 
L 205.750364 289.596938 
L 206.019616 289.645075 
L 206.827372 289.64169 
L 207.017432 289.655634 
L 207.270845 289.654346 
L 207.841026 289.587053 
L 208.126116 289.602989 
L 210.074234 289.673442 
L 210.311809 289.621096 
L 211.388817 289.567553 
L 212.054028 289.55244 
L 212.402472 289.607692 
L 213.067682 289.62237 
L 214.017983 289.692419 
L 214.23972 289.645794 
L 214.619841 289.465093 
L 215.11083 289.558896 
L 215.443435 289.443301 
L 216.203676 289.500394 
L 216.472928 289.680751 
L 216.694665 289.548651 
L 216.93224 289.43403 
L 218.230985 289.491243 
L 218.579429 289.378584 
L 218.848681 289.481673 
L 219.24464 289.552905 
L 219.735629 289.455867 
L 219.957366 289.431244 
L 220.939343 289.294007 
L 221.414494 289.469181 
L 221.762938 289.587532 
L 222.000513 289.513245 
L 222.206412 289.439451 
L 222.934976 289.389832 
L 223.109198 289.364505 
L 223.489318 289.258166 
L 223.869439 289.368699 
L 224.423781 289.397425 
L 229.286155 289.448453 
L 229.539569 289.443286 
L 229.808821 289.34818 
L 230.046396 289.386596 
L 230.648253 289.391539 
L 231.408494 289.363307 
L 231.946998 289.501023 
L 233.08736 289.459207 
L 233.293258 289.452152 
L 233.926792 289.364715 
L 234.512811 289.21927 
L 236.492605 288.564191 
L 236.904403 288.683905 
L 237.379553 288.708663 
L 238.234824 288.553872 
L 238.424884 288.478626 
L 239.375186 287.989736 
L 239.850336 288.066315 
L 240.420517 287.889463 
L 242.827946 288.10921 
L 243.002168 288.151596 
L 243.255582 288.21203 
L 244.490973 288.260017 
L 245.330406 288.292862 
L 245.552143 288.302073 
L 246.264869 288.496913 
L 246.518282 288.449705 
L 247.02511 288.604286 
L 247.278523 288.6315 
L 248.086279 288.577746 
L 248.703975 288.590926 
L 251.744939 288.546159 
L 251.919161 288.613931 
L 252.251766 288.733405 
L 252.916977 288.666172 
L 253.629703 288.449345 
L 254.0415 288.500373 
L 254.42162 288.572908 
L 254.770064 288.729706 
L 255.435275 288.517897 
L 255.657012 288.53521 
L 255.926264 288.560013 
L 256.543959 288.676881 
L 256.82905 288.657365 
L 257.225009 288.662353 
L 258.713814 288.610831 
L 258.951389 288.665543 
L 259.331509 288.62485 
L 259.505731 288.709561 
L 259.743307 288.762192 
L 260.392679 288.688428 
L 260.661931 288.56187 
L 260.978698 288.480932 
L 261.279627 288.442441 
L 261.818131 288.383071 
L 262.166574 288.445047 
L 262.78427 288.505885 
L 263.243582 288.437438 
L 264.336429 288.58483 
L 264.764064 288.547656 
L 265.223376 288.6541 
L 265.47679 288.64089 
L 265.76188 288.474223 
L 266.078647 288.493948 
L 266.490445 288.537667 
L 267.424907 288.635274 
L 267.741674 288.670935 
L 267.963411 288.592693 
L 268.406885 288.522525 
L 268.834521 288.435716 
L 269.008743 288.480528 
L 269.277995 288.617466 
L 270.291649 288.599673 
L 270.481709 288.581326 
L 271.036052 288.445826 
L 271.289465 288.473833 
L 271.685424 288.5551 
L 272.01803 288.520263 
L 272.619887 288.592738 
L 272.984169 288.671833 
L 273.316774 288.475406 
L 273.981985 288.380809 
L 274.552166 288.592454 
L 274.948125 288.564611 
L 277.308039 288.602623 
L 277.703998 288.662353 
L 278.305855 288.638015 
L 279.018581 288.077713 
L 279.208642 288.126374 
L 279.446217 288.098591 
L 280.634093 288.253202 
L 281.885323 287.959497 
L 283.659219 288.066675 
L 284.324429 288.015901 
L 284.688711 288.201081 
L 285.290569 288.176339 
L 285.892426 288.305458 
L 286.082486 288.184906 
L 286.351738 287.810113 
L 286.541799 287.69007 
L 286.953596 287.730269 
L 287.476261 287.757003 
L 287.666322 287.730209 
L 288.268179 287.548863 
L 288.458239 287.616022 
L 288.6483 287.585543 
L 289.044258 287.484341 
L 290.18462 287.697139 
L 290.358842 287.777942 
L 290.580579 287.828999 
L 291.451688 287.713165 
L 291.736778 287.674329 
L 292.354474 287.714378 
L 293.463159 288.019466 
L 293.827441 287.929303 
L 294.460975 287.862159 
L 294.730227 287.928883 
L 295.015317 287.99721 
L 295.252892 288.012741 
L 295.427114 288.051128 
L 295.680528 288.134417 
L 296.314062 288.182854 
L 296.963434 287.978578 
L 297.422747 288.11622 
L 297.755352 288.184217 
L 298.594785 288.276043 
L 298.864037 288.130867 
L 299.830176 287.987355 
L 300.08359 288.043864 
L 300.289488 288.060279 
L 300.891346 288.239753 
L 301.081406 287.974519 
L 301.42985 287.740169 
L 302.126737 287.49842 
L 302.601888 287.701917 
L 302.982008 287.770348 
L 303.425482 287.881974 
L 303.758088 287.840502 
L 304.059016 287.799749 
L 305.278569 287.794177 
L 306.022972 288.012906 
L 306.339739 288.024828 
L 306.640668 287.964739 
L 307.163333 287.760074 
L 307.733514 287.615842 
L 307.971089 287.529992 
L 308.16115 287.705886 
L 308.430402 287.867132 
L 308.953067 287.903751 
L 309.570763 287.765181 
L 309.903368 287.742475 
L 310.647771 287.896652 
L 310.885346 288.022387 
L 311.32882 288.067903 
L 312.58005 287.925064 
L 314.290592 288.112236 
L 314.670712 287.969202 
L 315.130025 287.936567 
L 315.937781 288.172265 
L 316.539638 288.224251 
L 316.99895 288.115081 
L 317.220687 287.9871 
L 317.410747 288.024663 
L 318.424402 288.206398 
L 319.042098 288.232713 
L 319.152966 287.963915 
L 319.279673 286.749479 
L 319.675632 282.425824 
L 320.119106 280.517458 
L 321.085245 277.804255 
L 321.592072 276.669565 
L 322.209768 275.140485 
L 323.017524 273.502025 
L 323.651058 272.566047 
L 325.694206 269.389499 
L 326.010973 269.150745 
L 326.343578 268.866947 
L 327.721515 267.034426 
L 328.751008 266.234502 
L 328.972744 265.966723 
L 330.730802 264.012256 
L 331.506881 263.647581 
L 332.425505 262.945781 
L 333.090716 262.28218 
L 333.550028 262.130146 
L 333.945987 262.127846 
L 334.405299 261.814686 
L 335.767398 260.860001 
L 336.210871 260.854422 
L 336.60683 260.72489 
L 338.713331 259.703489 
L 339.251835 259.663986 
L 339.536925 259.502044 
L 340.851509 258.762007 
L 342.292799 258.621153 
L 342.704596 258.375794 
L 343.258938 258.255856 
L 343.52819 258.198447 
L 344.066694 258.301589 
L 344.272593 258.359896 
L 344.953642 258.014144 
L 345.793075 257.607023 
L 346.03065 257.585201 
L 347.18685 257.701268 
L 347.899575 257.335596 
L 348.91323 257.252494 
L 349.119129 257.358908 
L 349.340866 257.459384 
L 350.006076 257.309026 
L 350.402035 257.127816 
L 350.655449 257.136136 
L 351.60575 257.10514 
L 352.350152 257.173796 
L 353.854796 256.667106 
L 354.219078 256.897053 
L 354.424977 256.963088 
L 356.547316 256.652548 
L 357.260042 256.906249 
L 357.545132 256.907963 
L 357.972768 256.693024 
L 359.192321 256.638027 
L 359.762501 256.775841 
L 359.952562 256.82955 
L 360.142622 256.834635 
L 361.02957 256.528887 
L 361.298822 256.3836 
L 361.583912 256.363897 
L 362.56589 256.707994 
L 363.357807 256.497502 
L 364.181402 256.726805 
L 364.466492 256.793432 
L 364.830774 256.967476 
L 365.242571 257.010551 
L 365.622692 256.779248 
L 365.907782 256.74537 
L 366.161196 256.681559 
L 366.398771 256.610244 
L 366.668023 256.793409 
L 366.98479 256.969386 
L 367.428264 257.099479 
L 368.996261 256.943527 
L 369.202159 256.944074 
L 369.930724 257.227527 
L 370.231652 257.196292 
L 370.564258 257.24744 
L 371.039408 257.091308 
L 371.324499 257.117841 
L 371.593751 257.209382 
L 372.100578 257.459736 
L 374.222917 257.425812 
L 374.698068 257.424936 
L 375.15738 257.352693 
L 375.489985 257.448345 
L 375.822591 257.617207 
L 376.012651 257.566254 
L 376.186873 257.553059 
L 376.424448 257.615515 
L 376.867922 257.584407 
L 377.248042 257.709138 
L 377.517294 257.726145 
L 377.786546 257.705326 
L 378.182505 257.773511 
L 378.705171 257.828545 
L 379.338705 257.725591 
L 380.130622 257.972926 
L 383.773443 258.399398 
L 383.979342 258.388322 
L 384.992997 258.400447 
L 385.230572 258.438886 
L 385.563177 258.414982 
L 385.800753 258.479797 
L 386.751054 258.716326 
L 387.432103 258.621991 
L 387.717193 258.750497 
L 388.477434 258.700787 
L 388.968423 258.915202 
L 389.696987 258.892242 
L 390.061269 258.895545 
L 390.298845 258.878074 
L 390.710642 258.729543 
L 391.328337 259.056147 
L 391.898518 259.189377 
L 392.389507 259.055959 
L 393.023041 258.865493 
L 393.260616 258.899828 
L 393.577384 259.066219 
L 394.195079 259.334388 
L 395.382956 259.236646 
L 395.794753 259.200094 
L 396.966791 259.767375 
L 397.331073 259.709959 
L 397.64784 259.667626 
L 398.328889 259.58212 
L 398.487273 259.514236 
L 398.487273 259.514236 
" clip-path="url(#p968821bac3)" style="fill: none; stroke: #1f77b4; stroke-width: 1.5; stroke-linecap: square"/>
   </g>
   <g id="line2d_12">
    <path d="M 73.832727 264.0924 
L 74.418746 264.202236 
L 74.783028 264.190756 
L 75.669976 264.162763 
L 75.970905 264.154466 
L 76.335187 264.132569 
L 76.541086 264.170207 
L 77.000398 264.294594 
L 77.808154 264.194755 
L 78.109082 264.210526 
L 78.71094 264.168822 
L 79.882978 264.443566 
L 80.088876 264.348325 
L 80.278937 264.287892 
L 80.484835 264.249767 
L 81.007501 264.170836 
L 81.59352 264.273955 
L 81.751903 264.848253 
L 82.06867 265.856138 
L 82.65469 266.437415 
L 83.050648 266.652789 
L 83.478284 267.012297 
L 83.937596 267.309799 
L 84.428585 267.781039 
L 84.840382 268.04431 
L 85.046281 268.155921 
L 85.347209 268.343033 
L 86.249995 268.640879 
L 87.295327 269.424111 
L 88.103083 269.637905 
L 88.277305 269.719352 
L 88.625748 269.858858 
L 88.958354 269.923156 
L 90.352129 270.577545 
L 91.30243 270.68521 
L 91.524167 270.794949 
L 91.77758 270.967502 
L 92.347761 271.316751 
L 92.696205 271.416313 
L 93.076325 271.433829 
L 93.503961 271.342782 
L 94.216687 271.479045 
L 95.024443 271.913111 
L 95.832199 271.939755 
L 96.101451 271.887829 
L 96.529086 271.977528 
L 97.954538 272.343964 
L 98.271305 272.329555 
L 99.284959 272.315147 
L 99.981847 272.717595 
L 100.441159 272.788393 
L 101.549844 272.761442 
L 101.819096 272.760573 
L 102.26257 272.81065 
L 102.405115 272.746704 
L 102.611013 272.276116 
L 103.102002 270.96429 
L 103.418769 270.593339 
L 104.068142 270.625136 
L 104.353232 270.719732 
L 104.622484 270.859074 
L 105.303533 271.399306 
L 105.6203 271.414171 
L 105.968744 271.36178 
L 106.507248 271.461192 
L 106.728985 271.536117 
L 108.265305 272.005761 
L 108.803809 271.923797 
L 109.041384 271.942579 
L 109.801625 271.971492 
L 110.435159 272.41739 
L 111.876449 272.290427 
L 113.254386 272.72599 
L 113.666183 272.696987 
L 114.378909 272.57084 
L 114.838221 272.645757 
L 115.614301 273.035542 
L 115.820199 273.007077 
L 116.216158 272.965695 
L 116.422057 272.944749 
L 116.7705 272.931037 
L 116.976399 272.865399 
L 117.166459 272.832232 
L 118.481042 273.182499 
L 119.225445 273.014828 
L 119.700596 272.996016 
L 120.888472 273.076752 
L 121.221077 273.077014 
L 121.506168 273.095646 
L 121.933803 272.981279 
L 122.218894 272.97215 
L 122.773236 273.076063 
L 123.169195 273.245756 
L 123.59683 273.237294 
L 125.13315 273.088412 
L 126.28935 273.335028 
L 126.938723 273.151721 
L 127.239651 273.083896 
L 127.588095 273.106617 
L 128.079084 273.401805 
L 128.459204 273.438866 
L 130.534029 273.38655 
L 130.787442 273.495196 
L 131.135886 273.515587 
L 132.006995 273.132198 
L 132.418792 273.117662 
L 133.289902 273.287835 
L 133.606669 273.372389 
L 133.955113 273.24962 
L 134.351071 273.110234 
L 134.74703 272.993103 
L 134.921252 272.99067 
L 135.095474 272.971102 
L 135.396403 272.916404 
L 135.554786 272.992639 
L 135.824038 273.109485 
L 136.362542 273.315108 
L 136.869369 273.209601 
L 137.05943 273.188146 
L 137.455388 273.087101 
L 137.772156 273.126154 
L 138.120599 273.192182 
L 138.421528 273.34346 
L 138.78581 273.376725 
L 139.260961 273.289123 
L 139.577728 273.16857 
L 140.005363 273.199895 
L 140.892311 273.319684 
L 141.47833 273.384513 
L 141.715905 273.284135 
L 141.969319 273.201356 
L 143.188872 273.205459 
L 143.505639 273.351518 
L 143.695699 273.316164 
L 143.901598 273.347729 
L 144.186688 273.337432 
L 144.772707 273.140241 
L 145.770523 273.178994 
L 146.198159 273.370412 
L 147.386035 273.165635 
L 147.702802 273.130363 
L 148.003731 273.080743 
L 148.288821 273.001813 
L 149.017386 273.383308 
L 149.793465 273.16186 
L 150.062717 273.110511 
L 150.506191 273.011353 
L 151.583199 273.21637 
L 151.852451 273.241405 
L 153.262064 272.96043 
L 153.610508 273.062965 
L 154.133173 273.141349 
L 154.608324 273.046625 
L 154.909253 273.043008 
L 155.099313 272.992931 
L 155.653655 272.737328 
L 155.891231 272.894395 
L 156.128806 273.020407 
L 156.999915 273.051425 
L 158.552074 272.831917 
L 158.757972 272.942001 
L 158.948033 272.946344 
L 159.296476 272.991186 
L 159.54989 272.971259 
L 159.993364 272.886832 
L 160.262616 272.818078 
L 160.864473 272.633618 
L 161.957319 272.829813 
L 162.765075 272.67333 
L 163.271903 272.550606 
L 163.794568 272.701046 
L 164.047982 272.753414 
L 164.649839 272.748082 
L 165.02996 272.651426 
L 165.425919 272.725204 
L 165.647656 272.705898 
L 166.233675 272.714465 
L 166.708825 272.809017 
L 167.025592 272.850354 
L 167.453228 272.888052 
L 167.72248 272.850879 
L 168.023408 272.709747 
L 168.371852 272.717798 
L 168.894518 272.655462 
L 169.337992 272.945236 
L 170.715928 272.877321 
L 171.175241 272.723961 
L 171.634553 272.80206 
L 171.998835 272.92459 
L 172.505662 272.969686 
L 172.901621 272.940803 
L 173.313418 272.864905 
L 173.598508 272.764145 
L 173.836084 272.73291 
L 174.010306 272.822654 
L 174.279558 272.996593 
L 175.087314 273.019126 
L 175.372404 272.870087 
L 175.942585 272.901974 
L 176.956239 272.932969 
L 177.383875 273.007504 
L 178.524236 272.745521 
L 178.825165 272.786731 
L 179.458699 272.841368 
L 179.680436 272.862022 
L 180.092233 272.86492 
L 180.298131 272.824556 
L 180.662414 272.710511 
L 181.264271 272.750096 
L 181.992835 272.743349 
L 182.436309 272.936938 
L 182.800591 272.801154 
L 183.10152 272.614477 
L 183.893437 271.852715 
L 184.273558 272.040485 
L 184.511133 272.037969 
L 184.764547 272.146195 
L 185.01796 272.157376 
L 185.239697 272.173185 
L 185.445596 272.161075 
L 185.857393 272.069414 
L 186.094968 272.048296 
L 186.570119 271.986612 
L 186.950239 272.076154 
L 187.362037 272.221966 
L 187.853025 272.330611 
L 188.945872 271.979131 
L 189.626921 272.101174 
L 191.084049 271.981295 
L 191.480008 271.903593 
L 191.685907 271.986807 
L 192.002674 271.994041 
L 193.697377 271.868111 
L 193.903276 271.884407 
L 194.172528 271.865528 
L 194.505133 271.874761 
L 195.011961 272.078378 
L 195.471273 272.093782 
L 195.677172 272.128874 
L 196.199837 271.990461 
L 196.500766 271.945619 
L 196.94424 271.99804 
L 197.197653 272.032435 
L 197.577774 271.979625 
L 198.749812 272.003956 
L 199.003226 271.979775 
L 199.256639 271.979266 
L 199.573406 271.9514 
L 199.858497 272.048805 
L 200.428677 272.102746 
L 201.236433 272.119064 
L 201.616554 271.977783 
L 201.917482 271.957601 
L 202.155058 272.001949 
L 202.503501 272.065992 
L 202.772753 272.002136 
L 203.327096 271.911598 
L 203.596348 271.952831 
L 203.8656 271.93992 
L 204.229882 271.858219 
L 204.451619 271.818439 
L 204.974284 271.85118 
L 205.196021 271.873653 
L 205.433597 271.895078 
L 206.098807 271.877719 
L 206.589796 271.73354 
L 206.827372 271.693109 
L 207.619289 271.75823 
L 207.951895 271.751895 
L 208.66462 271.611804 
L 209.456538 271.615766 
L 209.662437 271.649465 
L 209.900012 271.681412 
L 210.406839 271.667206 
L 214.23972 271.615721 
L 215.237537 271.538266 
L 216.298706 271.713006 
L 216.773857 271.625119 
L 216.979755 271.566071 
L 217.328199 271.637738 
L 217.755835 271.670718 
L 218.199308 271.685066 
L 218.737812 271.797418 
L 219.909851 271.726231 
L 220.480031 271.851644 
L 221.414494 271.74717 
L 221.857968 271.70381 
L 222.554855 271.747087 
L 222.919137 271.779565 
L 224.170367 271.804323 
L 224.407943 271.795329 
L 225.073153 271.803731 
L 225.595819 271.848281 
L 226.324383 271.887417 
L 226.577797 271.869519 
L 226.926241 271.76664 
L 227.955734 271.815706 
L 228.620944 271.862023 
L 229.222802 271.839999 
L 229.634599 271.889888 
L 229.856336 271.896561 
L 230.062234 271.866876 
L 230.505708 271.815841 
L 230.854152 271.85392 
L 231.440171 271.909711 
L 231.64607 271.93649 
L 232.010352 271.939493 
L 232.232089 271.94168 
L 232.501341 271.90384 
L 232.786431 271.9186 
L 233.641702 271.927946 
L 234.481135 271.898927 
L 234.845417 271.858249 
L 235.447274 271.911104 
L 235.906586 271.896965 
L 236.16 271.842523 
L 237.268685 271.837363 
L 237.50626 271.808651 
L 238.234824 271.801852 
L 238.456561 271.787533 
L 238.900035 271.841976 
L 239.185125 271.843197 
L 240.024558 271.810269 
L 240.436355 271.931817 
L 240.943182 271.914743 
L 241.133243 271.868793 
L 241.35498 271.817039 
L 242.099382 271.887327 
L 242.352796 271.863371 
L 242.843785 271.887372 
L 243.128875 271.978464 
L 243.413965 271.891102 
L 243.699056 271.855785 
L 244.886932 271.959473 
L 245.314568 271.91839 
L 247.50026 271.850371 
L 247.706159 271.809602 
L 248.102118 271.925894 
L 248.719813 271.881359 
L 249.052419 271.863371 
L 253.328774 271.957429 
L 253.550511 271.931488 
L 253.898955 271.781363 
L 254.199883 271.710093 
L 254.643357 271.740609 
L 255.023478 271.889993 
L 255.48279 271.820963 
L 256.005455 271.844395 
L 257.177494 271.826347 
L 257.415069 271.824408 
L 258.143633 271.743672 
L 258.587107 271.860623 
L 259.679953 271.624558 
L 260.487709 271.054461 
L 260.709446 271.100089 
L 260.994536 271.16539 
L 261.200435 271.0547 
L 261.43801 270.999539 
L 262.055706 271.065679 
L 262.388311 271.035597 
L 266.870565 271.288279 
L 267.440746 271.182412 
L 268.739491 271.38361 
L 269.32551 271.249915 
L 273.538511 271.641415 
L 273.823602 271.630833 
L 275.011478 271.407648 
L 275.454952 271.61787 
L 275.850911 271.545852 
L 277.086302 271.577671 
L 277.276363 271.600781 
L 277.719836 271.61495 
L 278.147472 271.674597 
L 278.511754 271.678259 
L 279.256157 271.644358 
L 279.889691 271.541531 
L 281.552718 271.687582 
L 282.613887 271.577154 
L 283.120715 271.674949 
L 283.722572 271.666299 
L 284.086854 271.693281 
L 284.308591 271.641991 
L 284.577843 271.619203 
L 285.068832 271.59187 
L 286.446769 271.872125 
L 286.668505 271.861117 
L 287.159494 271.549394 
L 287.523777 271.581678 
L 288.204826 271.817376 
L 288.489916 271.806839 
L 288.901713 271.759743 
L 289.155127 271.644477 
L 289.677792 271.663559 
L 290.216296 271.75668 
L 291.182436 271.820513 
L 291.72094 271.657725 
L 292.243605 271.571965 
L 293.051361 271.751573 
L 293.684896 271.750659 
L 294.207561 271.690001 
L 294.587682 271.523154 
L 294.809419 271.479315 
L 295.395438 271.734858 
L 295.633013 271.825336 
L 296.23487 271.690435 
L 296.488284 271.587609 
L 297.660322 271.501721 
L 297.977089 271.508191 
L 298.563108 271.557145 
L 299.370864 271.429972 
L 299.592601 271.377499 
L 299.877691 271.3899 
L 301.651587 271.423307 
L 302.380151 271.272141 
L 303.789764 271.544931 
L 305.136024 271.438846 
L 305.389438 271.582374 
L 305.769558 271.589428 
L 306.007134 271.533862 
L 306.228871 271.522248 
L 306.846566 271.447923 
L 307.575131 271.49066 
L 308.763007 271.542107 
L 309.174804 271.486384 
L 309.665793 271.63263 
L 310.014237 271.605267 
L 310.964538 271.686204 
L 312.073223 271.587653 
L 312.48502 271.698808 
L 312.722595 271.712834 
L 313.039362 271.747469 
L 313.435321 271.695161 
L 314.100532 271.522203 
L 314.417299 271.542467 
L 316.001134 271.741598 
L 316.476285 271.574399 
L 316.682183 271.51079 
L 316.872243 271.508401 
L 318.361048 271.76819 
L 318.709492 271.745537 
L 318.915391 271.687215 
L 319.263835 271.329167 
L 319.723147 270.083129 
L 321.021892 269.143683 
L 321.623749 268.659938 
L 322.368152 268.20927 
L 323.983664 267.465129 
L 324.458814 267.167185 
L 325.947619 266.733794 
L 326.438608 266.586462 
L 327.167172 266.15838 
L 327.373071 266.07098 
L 327.737353 266.045863 
L 328.624301 265.944084 
L 328.830199 265.759661 
L 329.21032 265.61367 
L 330.271489 265.368963 
L 330.794155 265.288924 
L 331.03173 265.289575 
L 331.300982 265.246208 
L 331.855325 265.031935 
L 332.678919 264.795196 
L 333.613382 264.748609 
L 334.373623 264.60112 
L 334.611198 264.473483 
L 334.991318 264.360022 
L 335.339762 264.39635 
L 336.670184 264.262655 
L 337.208688 263.916604 
L 337.826383 263.897141 
L 338.04812 263.863277 
L 338.349049 263.953321 
L 338.840038 264.010938 
L 339.932884 263.67427 
L 340.17046 263.587642 
L 341.770133 263.720865 
L 342.166092 263.550565 
L 342.514536 263.402462 
L 342.704596 263.349105 
L 343.512352 263.560143 
L 343.924149 263.535086 
L 344.209239 263.461151 
L 345.428793 263.110337 
L 345.761398 263.209292 
L 346.014812 263.243216 
L 346.790891 263.269845 
L 347.361072 262.973354 
L 347.725354 262.96472 
L 348.279696 263.053288 
L 349.039937 263.244975 
L 349.404219 263.057953 
L 349.720986 262.921862 
L 350.512904 262.894161 
L 350.734641 262.894049 
L 350.893024 262.898378 
L 351.273145 263.114425 
L 351.637427 263.069142 
L 351.906679 263.04854 
L 352.223446 262.965446 
L 352.540213 262.860552 
L 352.920333 262.787223 
L 353.205424 262.773789 
L 354.535845 262.926003 
L 355.248571 262.682914 
L 355.581176 262.697906 
L 355.83459 262.72491 
L 356.278064 262.826314 
L 356.816568 262.911041 
L 357.481779 262.713213 
L 358.051959 262.649889 
L 358.733008 262.678158 
L 358.954745 262.727142 
L 359.841693 262.84043 
L 360.997893 262.551353 
L 362.043224 262.841778 
L 362.280799 262.696363 
L 362.676758 262.612176 
L 364.038856 262.889474 
L 364.339785 262.962645 
L 364.846612 262.795693 
L 365.321763 262.654929 
L 365.527662 262.616235 
L 365.955297 262.623469 
L 366.161196 262.682959 
L 366.636346 262.888096 
L 367.36491 262.92467 
L 368.362727 262.790518 
L 368.822039 262.894094 
L 369.107129 262.93815 
L 369.930724 262.960399 
L 370.279167 262.877559 
L 370.785995 262.739745 
L 371.451205 262.874272 
L 372.2748 263.16946 
L 372.74995 262.954265 
L 373.71609 262.747855 
L 374.048695 262.987156 
L 374.365462 263.131342 
L 374.777259 263.191708 
L 375.980974 262.894641 
L 376.345256 262.900774 
L 376.551155 262.983726 
L 376.820407 263.145151 
L 377.121335 263.098797 
L 378.404242 262.900145 
L 378.736847 262.823963 
L 379.829694 263.322947 
L 380.684965 262.987949 
L 381.666943 263.064491 
L 382.094578 263.295891 
L 383.013203 263.164809 
L 383.266616 263.07818 
L 383.472515 263.042107 
L 383.947665 262.938322 
L 385.24641 263.271897 
L 386.022489 262.992787 
L 386.49764 263.0687 
L 387.051982 263.416683 
L 387.400426 263.5886 
L 387.606325 263.502795 
L 388.255697 263.289817 
L 388.572464 263.287983 
L 389.0001 263.194629 
L 390.172138 263.601893 
L 390.425551 263.478682 
L 390.82151 263.39901 
L 391.043247 263.303065 
L 391.280822 263.21401 
L 391.69262 263.272803 
L 391.961872 263.385268 
L 392.627082 263.759903 
L 393.561545 263.087332 
L 394.290109 262.84744 
L 394.717745 263.095996 
L 395.208734 263.156152 
L 396.475802 262.852307 
L 396.745054 262.775039 
L 396.935114 262.762473 
L 397.869577 263.111378 
L 398.313051 262.938854 
L 398.487273 262.732945 
L 398.487273 262.732945 
" clip-path="url(#p968821bac3)" style="fill: none; stroke: #ff7f0e; stroke-width: 1.5; stroke-linecap: square"/>
   </g>
   <g id="line2d_13">
    <path d="M 73.832727 264.533872 
L 74.735513 264.625316 
L 75.163149 264.337339 
L 75.384886 264.324556 
L 76.224318 264.747703 
L 76.952883 264.62399 
L 77.17462 264.608519 
L 77.538902 264.466998 
L 77.728962 264.434115 
L 77.998214 264.469656 
L 78.378334 264.539346 
L 78.726778 264.574191 
L 79.011868 264.645805 
L 79.360312 264.695866 
L 79.803786 264.601262 
L 80.690734 264.436699 
L 81.736065 264.806691 
L 82.036994 265.143104 
L 82.781396 265.183393 
L 84.586968 265.882318 
L 85.711491 265.980696 
L 87.390357 266.379805 
L 87.881346 266.24405 
L 88.245628 266.245383 
L 88.51488 266.34985 
L 88.831647 266.520899 
L 90.478836 266.536969 
L 90.811441 266.519715 
L 92.902103 266.848011 
L 93.567314 266.776607 
L 93.963273 267.003288 
L 94.264202 267.056975 
L 94.881897 267.164482 
L 95.056119 267.104984 
L 95.262018 267.06832 
L 95.657977 267.049014 
L 96.117289 267.135388 
L 96.544924 267.380732 
L 97.051752 267.328109 
L 97.780316 267.307433 
L 98.112921 267.251867 
L 98.635587 267.341566 
L 99.110738 267.445397 
L 99.490858 267.548575 
L 99.839302 267.511626 
L 100.219422 267.458315 
L 100.615381 267.510174 
L 101.043017 267.384424 
L 101.470652 267.589291 
L 101.882449 267.695308 
L 102.674367 267.658269 
L 103.117841 267.656068 
L 105.351048 267.817134 
L 105.52527 267.781136 
L 105.984582 267.64476 
L 106.475571 267.664036 
L 106.744823 267.794331 
L 107.631771 267.846954 
L 108.106922 267.757127 
L 108.978031 267.697038 
L 110.245099 267.705321 
L 110.435159 267.71048 
L 110.672735 267.724649 
L 110.989502 267.601618 
L 111.211239 267.642633 
L 112.145701 267.765297 
L 112.335762 267.810828 
L 112.684205 267.958595 
L 113.064326 267.925637 
L 113.571153 267.799026 
L 114.141334 267.899457 
L 114.901575 268.029235 
L 115.345049 267.884786 
L 115.535109 267.849852 
L 115.946906 267.921833 
L 116.453733 267.865593 
L 116.833854 267.944733 
L 117.372358 268.003137 
L 117.578256 267.97638 
L 117.958377 267.908361 
L 123.850244 267.965439 
L 124.119496 267.962579 
L 124.56297 268.025521 
L 125.307372 267.956296 
L 125.8142 267.937978 
L 126.621955 267.76216 
L 127.223813 267.915917 
L 127.714802 267.850391 
L 128.079084 267.858524 
L 128.570073 267.813539 
L 129.156092 267.757367 
L 129.504536 267.878436 
L 129.948009 267.892155 
L 130.264777 267.847223 
L 130.692412 267.905702 
L 130.914149 267.848429 
L 131.611036 267.745782 
L 131.943642 267.854135 
L 132.371277 267.965275 
L 132.703883 267.93696 
L 133.21071 267.838454 
L 133.638346 267.914816 
L 134.050143 267.861429 
L 134.572808 267.847268 
L 135.697331 267.868828 
L 135.982422 267.838941 
L 136.774339 267.661737 
L 136.996076 267.679148 
L 137.312843 267.760677 
L 137.597934 267.798188 
L 138.960032 267.734002 
L 140.638897 267.663684 
L 140.908149 267.64443 
L 141.605037 267.600569 
L 141.890127 267.4959 
L 144.250042 267.407407 
L 144.424263 267.378777 
L 144.709354 267.3819 
L 144.962767 267.53258 
L 145.152828 267.573498 
L 145.374565 267.552118 
L 145.738847 267.51415 
L 145.976422 267.52933 
L 146.198159 267.496432 
L 146.594118 267.562107 
L 146.784178 267.572487 
L 147.132622 267.488412 
L 147.639449 267.545033 
L 147.845348 267.565455 
L 148.447205 267.524342 
L 148.922356 267.620542 
L 152.359278 267.52766 
L 152.660207 267.564976 
L 154.719192 267.265077 
L 154.909253 267.266223 
L 155.400242 267.355023 
L 156.223836 267.262366 
L 156.9524 267.204426 
L 157.205814 267.228854 
L 157.902701 267.357802 
L 158.156115 267.325121 
L 160.595221 267.287888 
L 160.848635 267.26292 
L 161.545522 267.258817 
L 161.957319 267.350635 
L 162.575015 267.277508 
L 163.319418 267.215435 
L 163.58867 267.252024 
L 164.127174 267.228839 
L 164.475617 267.256106 
L 164.776546 267.144839 
L 165.330889 267.146434 
L 165.885231 267.197881 
L 166.18616 267.122044 
L 167.057269 267.178561 
L 168.260984 267.151384 
L 169.306315 267.118554 
L 169.987364 267.033812 
L 170.209101 267.086195 
L 170.620898 267.112129 
L 170.874312 267.054002 
L 171.301947 267.016551 
L 171.523684 267.026002 
L 174.089497 266.994137 
L 174.64384 267.002352 
L 176.08513 267.012687 
L 176.766179 266.952508 
L 177.003754 266.944907 
L 177.52642 266.947932 
L 178.239146 267.047726 
L 178.587589 267.005475 
L 179.363669 267.045629 
L 179.569567 267.049306 
L 179.902173 267.099735 
L 181.264271 267.137852 
L 181.786937 267.084391 
L 182.990651 267.152455 
L 183.19655 267.19234 
L 183.449964 267.246303 
L 183.703377 267.213301 
L 184.162689 267.10306 
L 184.479456 267.208425 
L 184.92293 267.246715 
L 185.112991 267.271457 
L 185.334727 267.270521 
L 186.126645 267.213533 
L 186.316705 267.160341 
L 186.585957 267.147797 
L 187.42539 267.135516 
L 187.647127 267.105284 
L 187.900541 267.151878 
L 188.739973 267.220565 
L 189.104255 267.165373 
L 189.801143 267.094942 
L 190.054556 267.120875 
L 190.276293 267.123332 
L 190.925666 267.181212 
L 191.147403 267.138354 
L 191.353301 267.106684 
L 192.03435 267.101779 
L 192.256087 267.133651 
L 192.509501 267.073757 
L 193.269742 267.222938 
L 193.586509 267.267653 
L 193.919114 267.245637 
L 194.44178 267.196458 
L 194.63184 267.165747 
L 194.869416 267.168189 
L 195.312889 267.183848 
L 196.484927 267.208777 
L 197.245168 267.149227 
L 198.908195 267.215959 
L 199.335831 267.122957 
L 199.668436 267.065789 
L 200.001042 267.099623 
L 200.254455 267.177812 
L 201.26811 267.187098 
L 201.537362 267.177198 
L 202.170896 267.059708 
L 202.867783 267.063265 
L 203.913115 267.252017 
L 204.198205 267.085724 
L 204.514972 267.073614 
L 204.720871 267.079104 
L 205.053476 267.086323 
L 205.30689 267.151751 
L 205.702849 267.146442 
L 205.987939 267.157061 
L 206.621473 267.160513 
L 207.302522 267.063714 
L 207.761834 267.145423 
L 208.347853 267.065122 
L 208.949711 267.344959 
L 209.092256 267.274296 
L 209.393185 267.144233 
L 210.470193 267.033273 
L 211.293787 267.282144 
L 212.41831 267.006344 
L 212.861784 267.021231 
L 213.099359 267.07661 
L 213.447803 267.201663 
L 214.825739 267.052309 
L 215.221698 266.964752 
L 216.520443 267.143484 
L 216.789695 267.197956 
L 217.344037 267.006673 
L 217.565774 266.954387 
L 219.323832 267.263422 
L 219.608922 267.175827 
L 220.321648 267.029064 
L 220.812637 267.11976 
L 221.335302 267.09814 
L 221.873806 267.273966 
L 222.333118 267.175168 
L 222.681562 267.083013 
L 223.220066 267.146771 
L 223.410126 267.17415 
L 224.170367 266.743162 
L 224.360428 266.687169 
L 224.740548 266.546383 
L 225.247375 266.506146 
L 225.722526 266.475031 
L 226.704504 266.676154 
L 226.973756 266.701331 
L 227.543936 266.617165 
L 228.003249 266.518824 
L 228.715974 266.674147 
L 229.127772 266.778936 
L 229.365347 266.761345 
L 229.998881 266.708879 
L 230.379001 266.573566 
L 230.743284 266.599709 
L 232.02619 266.768976 
L 232.374634 266.7989 
L 232.770593 266.709089 
L 233.673379 266.73783 
L 233.942631 266.774502 
L 234.243559 266.794549 
L 234.702872 266.994774 
L 236.334222 266.727159 
L 236.54012 266.870267 
L 236.793534 267.020385 
L 237.062786 266.956851 
L 238.139794 266.833715 
L 238.361531 266.822295 
L 238.709975 266.861056 
L 239.216802 267.087746 
L 240.594739 266.893961 
L 240.911506 266.800922 
L 241.164919 266.758769 
L 241.35498 266.762603 
L 242.241927 267.024242 
L 242.764593 266.970204 
L 243.049683 266.865737 
L 243.936631 266.906205 
L 244.633518 267.227259 
L 245.267053 267.151429 
L 245.67885 266.986738 
L 245.948102 267.043727 
L 246.454929 266.994182 
L 246.787534 267.160408 
L 247.785351 267.323287 
L 248.228824 267.232808 
L 249.495893 267.384768 
L 249.876013 267.477433 
L 250.066073 267.419553 
L 250.398679 267.328948 
L 250.826314 267.268679 
L 251.34898 267.309358 
L 251.776615 267.426458 
L 252.457665 267.644183 
L 253.898955 267.148261 
L 254.120692 267.151055 
L 254.374105 267.316944 
L 254.754226 267.450549 
L 255.419436 267.430801 
L 255.657012 267.36383 
L 256.417253 267.201057 
L 256.718181 267.233467 
L 257.763513 267.426945 
L 258.238663 267.420976 
L 258.618784 267.260112 
L 259.141449 267.117992 
L 259.379024 267.182462 
L 259.71163 267.36398 
L 260.139265 267.566024 
L 260.503547 267.362587 
L 260.741123 267.294949 
L 261.121243 267.153241 
L 261.564717 266.987967 
L 262.119059 267.165358 
L 262.40415 267.313574 
L 262.673402 267.399034 
L 262.910977 267.375999 
L 263.085199 267.363426 
L 263.496996 267.203063 
L 263.829601 267.219082 
L 264.051338 267.202614 
L 264.415621 267.097443 
L 265.239215 267.455357 
L 266.411253 267.167215 
L 266.838888 267.204816 
L 267.852543 267.264748 
L 268.042603 267.286697 
L 268.296017 267.279216 
L 268.755329 267.300341 
L 269.499732 267.248804 
L 270.164942 267.298641 
L 270.592578 267.299338 
L 272.192251 267.463489 
L 272.49318 267.529517 
L 273.015846 267.499996 
L 273.269259 267.479111 
L 273.93447 267.348081 
L 274.425459 267.413952 
L 274.99564 267.577242 
L 275.1857 267.553975 
L 275.486629 267.524911 
L 275.803396 267.516711 
L 276.136001 267.382844 
L 276.547798 267.387966 
L 276.753697 267.378703 
L 276.91208 267.404658 
L 277.197171 267.506339 
L 278.020765 267.588498 
L 278.369209 267.535643 
L 278.955228 267.408006 
L 279.31951 267.288082 
L 279.493732 267.439361 
L 279.794661 267.546494 
L 280.586578 267.587277 
L 281.014214 267.583368 
L 281.521041 267.4351 
L 281.774455 267.464051 
L 282.122898 267.507687 
L 282.344635 267.527592 
L 282.835624 267.618505 
L 284.498651 267.375962 
L 284.910448 267.475494 
L 285.623174 267.506235 
L 285.892426 267.410604 
L 286.225032 267.365904 
L 286.43093 267.322785 
L 286.684344 267.395852 
L 287.222848 267.450976 
L 287.903897 267.557727 
L 288.220664 267.459693 
L 289.440217 267.191838 
L 289.661954 267.320164 
L 289.915368 267.373768 
L 290.438033 267.48606 
L 290.913184 267.325735 
L 291.404173 267.28642 
L 291.641748 267.284001 
L 292.069384 267.344427 
L 293.209745 267.591358 
L 293.795764 267.505426 
L 294.524328 267.480788 
L 295.728043 267.610065 
L 296.23487 267.450833 
L 297.216848 267.461437 
L 297.517777 267.576441 
L 297.929574 267.575467 
L 299.513409 267.309275 
L 301.477365 267.319505 
L 301.794132 267.21676 
L 302.96617 267.356678 
L 303.203745 267.386633 
L 303.789764 267.271225 
L 304.059016 267.254848 
L 304.423298 267.128866 
L 304.740065 267.009422 
L 306.181356 267.337567 
L 307.337555 267.175573 
L 308.113635 267.309784 
L 308.477917 267.36258 
L 308.92139 267.18387 
L 309.491571 267.168698 
L 309.69747 267.112316 
L 311.107083 267.280609 
L 311.32882 267.245667 
L 311.994031 267.231221 
L 312.247444 267.252384 
L 313.641219 267.400637 
L 313.910471 267.336541 
L 314.100532 267.438155 
L 314.290592 267.433093 
L 314.797419 267.369948 
L 315.27257 267.384491 
L 315.700205 267.571993 
L 315.921942 267.588378 
L 316.428769 267.486083 
L 316.80889 267.329951 
L 317.062304 267.328686 
L 317.553292 267.396046 
L 318.297695 267.650743 
L 318.6303 267.624076 
L 319.152966 267.568952 
L 319.31135 267.422676 
L 319.612278 267.123901 
L 319.897369 267.029214 
L 320.705125 266.953953 
L 321.243629 266.890958 
L 323.175908 266.051037 
L 324.173724 265.86135 
L 324.474652 265.694742 
L 324.648874 265.719859 
L 324.823096 265.673534 
L 325.187378 265.600355 
L 326.296063 265.727759 
L 327.499778 265.279391 
L 328.180827 265.397771 
L 328.497594 265.350713 
L 330.445711 265.120122 
L 331.823648 265.140266 
L 332.203768 265.038286 
L 332.599727 264.967218 
L 332.900656 264.952892 
L 333.2491 265.03723 
L 333.565867 265.041543 
L 333.930149 265.07471 
L 334.69039 264.863702 
L 335.118025 264.770364 
L 335.403116 264.719868 
L 335.862428 264.853952 
L 336.369255 264.879691 
L 336.796891 264.829756 
L 337.272041 264.735923 
L 337.462101 264.661306 
L 337.699677 264.567765 
L 338.269857 264.622605 
L 338.634139 264.697334 
L 339.156805 264.676695 
L 339.584441 264.629682 
L 339.790339 264.563894 
L 340.186298 264.525215 
L 340.392196 264.488221 
L 340.819832 264.546131 
L 341.310821 264.478733 
L 341.500881 264.537773 
L 341.817648 264.612989 
L 342.229445 264.306179 
L 342.688758 263.92562 
L 343.132231 264.002266 
L 343.908311 264.202423 
L 345.998973 264.126017 
L 346.284064 264.110186 
L 346.537477 264.039305 
L 346.980951 264.167751 
L 347.408587 264.064737 
L 347.804545 264.087562 
L 348.358888 264.024695 
L 349.277512 264.128435 
L 349.530926 264.156645 
L 349.847693 264.13501 
L 350.243652 263.981643 
L 350.702964 264.064527 
L 351.447366 264.185746 
L 351.843325 264.139099 
L 352.413506 264.110036 
L 353.2371 263.993752 
L 354.646714 264.211005 
L 355.676206 263.908823 
L 356.11968 264.05966 
L 356.452286 264.162734 
L 356.99079 264.16346 
L 357.291718 264.135834 
L 358.194504 263.96999 
L 358.938907 264.031322 
L 359.144806 264.056664 
L 360.665287 263.992344 
L 360.902863 263.971323 
L 362.249123 264.182968 
L 362.803465 264.067747 
L 363.120232 264.020397 
L 363.452837 264.017963 
L 364.244755 264.183702 
L 364.498169 264.194133 
L 364.862451 264.163422 
L 365.796914 264.132255 
L 366.177034 264.102008 
L 367.349072 264.122871 
L 368.378565 264.015918 
L 368.631979 264.011507 
L 368.837877 264.017528 
L 369.804017 264.22775 
L 370.611773 264.09762 
L 370.881025 264.019026 
L 371.150277 264.046098 
L 371.878841 264.079797 
L 373.320131 264.085188 
L 373.573545 264.012563 
L 374.539684 264.163587 
L 374.935643 264.124174 
L 375.885944 264.054687 
L 376.107681 264.032865 
L 377.216366 264.178984 
L 377.580648 264.183597 
L 378.119152 264.195886 
L 378.689332 264.049557 
L 379.259513 264.266841 
L 379.449573 264.256132 
L 379.956401 264.108942 
L 380.938378 264.13367 
L 381.239307 263.988128 
L 381.698619 263.97381 
L 383.203263 264.173495 
L 383.583383 264.017513 
L 384.137726 264.056282 
L 385.167218 264.118311 
L 385.579016 264.132352 
L 385.848268 264.133932 
L 388.699171 264.092872 
L 389.031776 263.991228 
L 390.314683 264.146363 
L 391.407529 264.10701 
L 391.629266 264.115121 
L 391.866841 264.131528 
L 392.421184 264.147629 
L 392.801304 264.023175 
L 393.577384 264.179186 
L 393.79912 264.210698 
L 394.986997 264.048105 
L 395.794753 264.017019 
L 396.064005 264.081242 
L 396.238227 264.067583 
L 396.634186 263.918356 
L 397.901254 263.982654 
L 398.107152 264.016398 
L 398.376404 264.045566 
L 398.487273 263.748932 
L 398.487273 263.748932 
" clip-path="url(#p968821bac3)" style="fill: none; stroke: #2ca02c; stroke-width: 1.5; stroke-linecap: square"/>
   </g>
   <g id="line2d_14">
    <path d="M 73.832727 265.363795 
L 74.181171 265.374534 
L 74.497938 265.311457 
L 75.274017 265.166012 
L 77.016236 265.333683 
L 77.17462 265.185692 
L 77.348841 265.133526 
L 77.55474 265.104912 
L 77.982376 265.14127 
L 79.043545 265.213453 
L 79.312797 265.174946 
L 79.487019 265.101819 
L 79.851301 264.976894 
L 80.168068 264.971891 
L 80.912471 265.06824 
L 81.419298 265.103781 
L 81.561843 265.003516 
L 81.672712 264.430026 
L 82.132024 261.436134 
L 82.781396 259.758636 
L 83.763374 258.18538 
L 84.111818 257.720004 
L 85.663976 255.233573 
L 86.20248 254.756268 
L 88.483203 252.07511 
L 88.720778 251.962278 
L 91.365783 249.377753 
L 91.920126 248.980794 
L 92.807073 248.057606 
L 93.108002 247.735676 
L 93.488122 247.505924 
L 93.963273 247.228866 
L 94.216687 247.058417 
L 94.818544 246.496572 
L 95.309533 246.022195 
L 95.879714 245.574455 
L 96.402379 245.301179 
L 97.115105 244.872476 
L 97.35268 244.728723 
L 97.764478 244.386042 
L 98.002053 244.09006 
L 98.429688 243.620154 
L 98.683102 243.57165 
L 99.126576 243.565936 
L 101.01134 241.864137 
L 101.438975 241.753447 
L 101.660712 241.76832 
L 101.834934 241.698069 
L 102.199216 241.259203 
L 102.975296 240.452562 
L 104.717514 239.181473 
L 105.002605 238.982911 
L 105.446078 238.655537 
L 106.538925 237.887275 
L 107.774316 237.022986 
L 108.233628 236.412592 
L 109.65908 235.581261 
L 109.864979 235.454171 
L 110.926148 234.493143 
L 111.1954 234.342396 
L 111.464652 234.257992 
L 111.781419 234.114426 
L 112.462469 233.641832 
L 112.874266 233.383638 
L 114.204687 232.130612 
L 115.598462 230.874359 
L 116.659632 229.369063 
L 117.150621 228.781435 
L 117.514903 228.465743 
L 117.815832 227.958393 
L 118.275144 227.007513 
L 118.781971 225.932582 
L 119.035385 225.804691 
L 119.890656 224.526391 
L 120.254938 222.912869 
L 120.555867 220.190425 
L 120.650897 215.130927 
L 120.745927 194.339851 
L 121.046855 53.568 
L 121.157724 68.385983 
L 121.807096 204.122165 
L 122.044672 212.842882 
L 122.266409 214.797243 
L 122.44063 215.085568 
L 122.456469 215.076903 
L 122.599014 214.79181 
L 123.248386 213.398095 
L 123.612669 213.032405 
L 123.976951 212.32801 
L 124.547131 211.119871 
L 124.784707 210.716884 
L 124.974767 210.5525 
L 125.244019 210.775872 
L 125.529109 211.551233 
L 125.893391 212.381951 
L 126.162643 212.636037 
L 127.097106 214.504668 
L 127.73064 216.135988 
L 128.079084 216.889381 
L 128.69678 217.65203 
L 129.013547 218.082883 
L 129.36199 218.462948 
L 129.884656 219.306523 
L 130.04304 219.433531 
L 131.088371 220.524225 
L 131.262593 220.635918 
L 131.595198 220.933046 
L 132.133702 221.560738 
L 132.418792 221.864643 
L 132.656368 221.895511 
L 133.384932 222.681192 
L 133.670022 222.943932 
L 133.986789 223.044197 
L 134.192688 222.968412 
L 134.382748 223.285265 
L 134.93709 224.274517 
L 135.206342 224.403105 
L 135.554786 224.387379 
L 135.744846 224.416195 
L 136.124967 224.529956 
L 136.362542 224.650486 
L 136.631794 224.79453 
L 136.885208 224.833673 
L 137.043591 224.915262 
L 137.423712 225.206107 
L 137.645449 225.162605 
L 138.120599 225.486348 
L 138.611588 225.69439 
L 138.97587 225.719612 
L 139.181769 225.765158 
L 139.355991 225.763032 
L 139.498536 225.794431 
L 140.32213 226.607086 
L 140.607221 226.708206 
L 140.828958 226.697033 
L 142.016834 227.117311 
L 142.412793 227.293407 
L 142.792913 227.60206 
L 143.01465 227.668649 
L 143.426447 227.95366 
L 143.838244 228.002127 
L 144.234203 228.066073 
L 144.772707 228.427041 
L 144.994444 228.37999 
L 145.216181 228.568382 
L 145.406241 228.646422 
L 145.770523 228.510952 
L 146.277351 228.481626 
L 146.483249 228.470842 
L 146.76834 228.528595 
L 147.005915 228.513633 
L 147.291005 228.513168 
L 147.655287 228.596083 
L 147.892863 228.59606 
L 148.130438 228.529029 
L 148.431367 228.373789 
L 149.096577 228.066133 
L 149.302476 228.131823 
L 149.714273 228.118194 
L 150.442837 228.353772 
L 150.696251 228.301486 
L 151.504007 228.298214 
L 152.105864 228.259984 
L 152.422631 228.450908 
L 152.755237 228.42117 
L 153.578831 228.570494 
L 154.339072 228.49888 
L 154.719192 228.688995 
L 155.194343 228.472595 
L 155.400242 228.426023 
L 155.574463 228.36818 
L 155.938746 228.243831 
L 156.192159 228.348006 
L 156.429735 228.424375 
L 156.66731 228.355442 
L 156.968238 228.457063 
L 157.316682 228.417209 
L 157.522581 228.510225 
L 157.791833 228.640288 
L 158.171953 228.693742 
L 158.377852 228.757538 
L 158.631265 228.720043 
L 158.995548 228.615741 
L 159.217285 228.582101 
L 160.294292 229.002066 
L 160.737766 229.095277 
L 160.927827 228.867577 
L 161.102048 228.797326 
L 161.529684 228.930497 
L 162.020673 228.668783 
L 162.575015 228.689758 
L 162.844267 228.650143 
L 163.161034 228.57799 
L 163.39861 228.452578 
L 163.77873 228.311836 
L 164.000467 228.178515 
L 164.760708 228.170547 
L 164.982445 228.262328 
L 165.394242 228.321054 
L 165.774362 228.180432 
L 166.154483 228.106706 
L 166.407896 228.077643 
L 166.740502 227.96058 
L 167.120622 228.21321 
L 167.342359 228.208642 
L 168.150115 227.997027 
L 168.783649 227.719954 
L 168.97371 227.832074 
L 169.16377 227.871307 
L 169.337992 227.8925 
L 169.480537 227.874685 
L 169.892334 227.567597 
L 170.383323 227.747587 
L 171.444493 227.190116 
L 171.682068 227.171417 
L 171.919643 227.295579 
L 172.078027 227.250422 
L 172.600692 227.00454 
L 173.060004 226.872777 
L 173.360933 226.64942 
L 173.646023 226.602997 
L 173.946952 226.349873 
L 174.121174 226.477398 
L 174.311234 226.520832 
L 174.707193 226.287201 
L 175.02396 226.227973 
L 176.354382 225.781866 
L 176.607795 225.751102 
L 176.797856 225.696817 
L 177.320521 225.271955 
L 177.668965 225.091785 
L 178.0966 224.744573 
L 178.587589 224.244428 
L 178.951871 224.164674 
L 179.094417 223.939662 
L 179.44286 223.298932 
L 179.696274 223.215298 
L 180.21894 222.592474 
L 180.583222 222.074273 
L 180.899989 221.54651 
L 181.327624 220.740565 
L 181.549361 220.102935 
L 182.182895 216.606897 
L 182.277925 211.916852 
L 182.372956 193.035812 
L 182.578854 80.936998 
L 182.689723 53.833578 
L 182.737238 56.617975 
L 182.91146 94.485099 
L 183.418287 194.792458 
L 183.6717 207.949377 
L 183.909276 210.90489 
L 184.115174 211.575156 
L 184.25772 211.456266 
L 184.526972 211.311162 
L 185.540626 212.505046 
L 185.936585 212.982373 
L 186.142483 213.352642 
L 186.680987 214.725644 
L 187.061108 215.277854 
L 188.660781 219.269746 
L 188.803327 219.334658 
L 189.009225 219.856588 
L 189.421022 220.781041 
L 190.798959 223.040326 
L 190.973181 223.207383 
L 191.638392 224.405928 
L 191.84429 224.597316 
L 192.145219 224.999532 
L 192.62037 225.703392 
L 192.984652 226.236165 
L 193.760731 226.819405 
L 194.473457 227.628181 
L 196.247352 229.194262 
L 196.421574 229.314081 
L 196.975916 229.977659 
L 197.767834 230.696698 
L 198.037086 230.783911 
L 199.114094 231.200078 
L 199.256639 231.33435 
L 199.795143 232.061117 
L 201.188918 232.712309 
L 202.376795 233.698311 
L 202.61437 233.843382 
L 203.374611 233.912248 
L 204.641679 234.97939 
L 204.847578 235.139063 
L 205.322728 235.218959 
L 206.526443 235.774618 
L 207.571774 236.480185 
L 207.793511 236.521066 
L 208.015248 236.611035 
L 208.553752 236.667873 
L 209.013064 236.959362 
L 209.709952 237.207005 
L 210.470193 237.493753 
L 211.325464 237.36879 
L 212.212411 237.675585 
L 212.655885 238.12689 
L 213.083521 238.264389 
L 213.986307 238.140332 
L 214.445619 238.400286 
L 214.857416 238.657162 
L 215.348405 238.688023 
L 215.791879 238.392992 
L 216.124484 238.328028 
L 216.64715 238.270927 
L 217.660805 238.856892 
L 217.850865 238.816678 
L 218.262662 238.796736 
L 218.785328 238.663333 
L 218.975388 238.689618 
L 219.371347 238.740698 
L 219.577245 238.770525 
L 220.099911 238.991381 
L 220.860152 239.232628 
L 221.652069 239.093691 
L 222.000513 239.178088 
L 222.31728 239.32587 
L 222.839946 239.767454 
L 223.188389 239.723683 
L 223.726893 239.714629 
L 224.645518 239.660089 
L 225.770041 240.242669 
L 226.799534 240.024352 
L 227.100462 240.024599 
L 227.306361 240.168539 
L 227.60729 240.281116 
L 227.781512 240.324498 
L 228.003249 240.397265 
L 229.016903 240.259249 
L 229.381185 240.151435 
L 230.030558 240.444624 
L 230.29981 240.631661 
L 231.044212 240.662027 
L 231.424333 240.690117 
L 231.661908 241.010542 
L 231.867807 241.085796 
L 232.263765 241.265995 
L 232.485502 241.393003 
L 232.913138 241.554676 
L 233.18239 241.719074 
L 233.483318 241.727948 
L 234.924609 241.524354 
L 235.146345 241.740979 
L 235.447274 241.903558 
L 235.700688 241.932179 
L 235.922425 241.850995 
L 236.144162 241.795002 
L 237.680482 241.70015 
L 237.918057 241.797578 
L 238.488238 241.864474 
L 239.13761 241.687315 
L 239.501892 241.559708 
L 239.961205 241.499739 
L 240.499709 241.726144 
L 240.753122 241.798155 
L 241.940999 241.382526 
L 242.131059 241.325058 
L 242.368634 241.291547 
L 242.701239 241.364029 
L 243.065522 241.493823 
L 243.952469 241.503551 
L 244.981962 241.231757 
L 245.504628 241.37181 
L 246.090647 241.541645 
L 246.470767 241.457405 
L 247.516099 240.962225 
L 248.007088 241.12407 
L 248.212986 241.165026 
L 248.862359 241.258312 
L 249.638438 240.827474 
L 250.034397 240.703477 
L 250.699607 241.067973 
L 250.937183 241.100563 
L 251.697424 240.908876 
L 251.966676 240.761514 
L 252.235928 240.805712 
L 252.489341 240.614092 
L 252.758593 240.52962 
L 252.948653 240.575121 
L 253.407966 240.737895 
L 253.629703 240.803855 
L 254.025661 240.872736 
L 254.627519 240.742283 
L 254.975963 240.643904 
L 255.197699 240.646623 
L 255.498628 240.823355 
L 255.894587 241.143054 
L 256.258869 241.196059 
L 256.73402 240.952033 
L 258.001088 240.854418 
L 258.302017 240.954399 
L 258.713814 240.968838 
L 259.790822 240.783343 
L 259.99672 240.77396 
L 261.913161 241.032079 
L 262.831785 240.589477 
L 263.449481 240.807592 
L 263.687056 240.814653 
L 264.494812 240.693734 
L 264.795741 240.524318 
L 265.793557 240.309543 
L 265.983617 240.369393 
L 266.284546 240.48328 
L 266.680505 240.509153 
L 267.187332 240.342725 
L 267.868381 240.037023 
L 268.470239 240.099329 
L 268.691976 240.165761 
L 268.961228 240.237959 
L 269.277995 240.145025 
L 269.594762 239.941311 
L 269.784822 239.954798 
L 270.006559 239.988257 
L 270.481709 239.792249 
L 271.384496 239.854172 
L 271.748778 239.861556 
L 272.192251 239.735103 
L 272.477342 239.629513 
L 273.126714 239.466529 
L 273.316774 239.510113 
L 273.712733 239.62308 
L 274.457136 239.60617 
L 275.233215 239.194998 
L 275.518305 239.260224 
L 275.755881 239.364324 
L 276.15184 239.640364 
L 276.357738 239.740337 
L 277.228848 239.586565 
L 277.482261 239.501778 
L 277.957412 239.445209 
L 278.543431 239.31934 
L 279.002743 239.652847 
L 279.22448 239.656681 
L 279.762984 239.384281 
L 280.000559 239.304347 
L 280.222296 239.268319 
L 280.95086 239.213338 
L 281.72694 239.522799 
L 281.964515 239.439877 
L 282.344635 239.207556 
L 282.693079 238.958963 
L 283.675057 238.971619 
L 284.118531 239.130273 
L 285.258892 238.890898 
L 285.591498 238.731008 
L 285.892426 238.628323 
L 286.161678 238.517102 
L 286.351738 238.638515 
L 286.716021 238.7276 
L 287.080303 238.750456 
L 287.444585 238.642993 
L 288.505754 238.419337 
L 289.31351 238.631281 
L 291.261628 237.874469 
L 291.736778 238.073398 
L 291.926838 238.066434 
L 293.383967 237.5421 
L 293.684896 237.577012 
L 294.50849 237.882617 
L 294.951964 237.766865 
L 296.060648 237.190492 
L 296.361577 237.200542 
L 296.757536 237.42008 
L 297.454423 237.303249 
L 297.961251 236.972363 
L 298.151311 236.939869 
L 298.563108 236.911704 
L 298.83236 236.830984 
L 299.101612 236.951836 
L 299.545086 236.98382 
L 299.830176 236.929288 
L 300.162782 236.787235 
L 300.400357 236.799629 
L 301.873324 237.608217 
L 302.142576 237.737614 
L 302.411828 237.736341 
L 302.791948 237.544519 
L 303.077038 237.429141 
L 303.536351 237.23514 
L 303.900633 237.248073 
L 304.2174 237.323289 
L 305.167701 237.715732 
L 306.339739 237.200864 
L 307.00495 237.487171 
L 307.622646 237.638562 
L 308.002766 237.406398 
L 308.889714 237.119942 
L 309.206481 237.121672 
L 309.760823 237.393877 
L 310.441872 237.122375 
L 311.677264 236.758951 
L 312.231606 237.012187 
L 312.48502 236.996678 
L 312.86514 236.809829 
L 313.73625 236.332164 
L 314.338107 236.20974 
L 314.718227 236.372318 
L 314.924126 236.387962 
L 315.098348 236.359303 
L 316.001134 235.822104 
L 317.220687 236.2143 
L 317.695838 236.250403 
L 318.091796 236.260295 
L 318.25018 236.254305 
L 318.53527 236.15991 
L 319.168804 236.205703 
L 319.279673 236.875894 
L 319.69147 239.764578 
L 320.182459 241.433973 
L 322.57405 246.039382 
L 323.017524 246.842758 
L 323.44516 247.467627 
L 324.728066 249.376315 
L 325.329923 250.612686 
L 325.710044 251.058494 
L 326.882082 252.505086 
L 327.515616 253.51682 
L 328.038282 254.141853 
L 328.465917 254.534334 
L 329.02026 254.995396 
L 329.49541 255.333944 
L 330.144783 256.294934 
L 330.619933 256.919975 
L 331.332659 257.371864 
L 332.647242 258.645655 
L 333.407483 259.403051 
L 333.740089 259.60857 
L 334.072694 259.779095 
L 334.278593 259.837132 
L 335.244732 260.843571 
L 335.640691 261.274783 
L 336.084165 261.517131 
L 337.161173 262.078406 
L 338.095635 263.068318 
L 338.301534 263.191499 
L 338.729169 263.180146 
L 340.138783 264.039627 
L 341.120761 264.758674 
L 341.532558 264.696758 
L 342.27696 264.976616 
L 342.704596 265.339906 
L 343.14807 265.67811 
L 343.544029 265.946301 
L 343.765766 265.971605 
L 344.826935 266.146361 
L 345.539661 266.648483 
L 346.537477 266.940953 
L 347.075981 266.909673 
L 348.422241 267.563755 
L 349.087452 267.737881 
L 349.610118 267.592916 
L 349.942723 267.607586 
L 351.384013 268.116972 
L 352.556051 268.094012 
L 353.379645 268.541782 
L 353.601382 268.588369 
L 354.58336 268.494476 
L 354.805097 268.461945 
L 355.327763 268.536098 
L 356.420609 268.94614 
L 356.89576 268.88158 
L 357.751031 268.753037 
L 358.796362 269.134517 
L 359.176482 269.106277 
L 360.221814 268.943406 
L 360.459389 269.052524 
L 360.855348 269.172005 
L 361.061246 269.262588 
L 361.282983 269.279977 
L 362.090739 269.374851 
L 362.835142 269.189978 
L 363.04104 269.320543 
L 363.373646 269.451003 
L 363.627059 269.559072 
L 364.023018 269.656492 
L 365.274248 269.443866 
L 366.968952 269.79021 
L 367.317395 269.699544 
L 367.539132 269.68757 
L 367.776708 269.621864 
L 368.394403 269.741451 
L 368.584464 269.727769 
L 368.853716 269.802513 
L 369.471411 269.787469 
L 370.548419 269.602738 
L 371.641266 269.889741 
L 372.068901 269.723328 
L 372.290638 269.702525 
L 373.367646 269.624074 
L 374.634714 269.817798 
L 375.141541 269.681616 
L 375.363278 269.607905 
L 375.806752 269.623235 
L 376.171034 269.682485 
L 377.263881 269.788989 
L 378.293374 269.605202 
L 379.57628 269.833224 
L 380.653288 269.441028 
L 381.682781 269.572814 
L 381.952033 269.627032 
L 382.284638 269.638714 
L 383.551707 269.338134 
L 383.99518 269.499634 
L 384.612876 269.549666 
L 384.850451 269.514222 
L 385.040512 269.468601 
L 385.547339 269.263756 
L 386.149196 269.342365 
L 386.386772 269.377899 
L 386.640185 269.268624 
L 387.051982 269.29908 
L 387.46378 269.385545 
L 388.651656 269.175937 
L 388.841716 269.238902 
L 389.158483 269.203428 
L 390.409713 269.250576 
L 390.805672 269.10606 
L 391.154116 269.149472 
L 391.613428 269.236648 
L 392.025225 269.198792 
L 393.213101 269.038228 
L 393.656575 269.052861 
L 394.100049 269.034656 
L 394.432655 269.033061 
L 394.86029 269.070062 
L 395.129542 269.059189 
L 395.573016 268.953651 
L 395.937298 268.794547 
L 396.49164 268.848914 
L 396.840084 268.828156 
L 397.141013 268.846488 
L 397.315235 268.880943 
L 397.632002 268.923374 
L 398.360566 268.675312 
L 398.487273 268.82677 
L 398.487273 268.82677 
" clip-path="url(#p968821bac3)" style="fill: none; stroke: #d62728; stroke-width: 1.5; stroke-linecap: square"/>
   </g>
   <g id="patch_3">
    <path d="M 57.6 307.584 
L 57.6 41.472 
" style="fill: none; stroke: #000000; stroke-width: 0.8; stroke-linejoin: miter; stroke-linecap: square"/>
   </g>
   <g id="patch_4">
    <path d="M 414.72 307.584 
L 414.72 41.472 
" style="fill: none; stroke: #000000; stroke-width: 0.8; stroke-linejoin: miter; stroke-linecap: square"/>
   </g>
   <g id="patch_5">
    <path d="M 57.6 307.584 
L 414.72 307.584 
" style="fill: none; stroke: #000000; stroke-width: 0.8; stroke-linejoin: miter; stroke-linecap: square"/>
   </g>
   <g id="patch_6">
    <path d="M 57.6 41.472 
L 414.72 41.472 
" style="fill: none; stroke: #000000; stroke-width: 0.8; stroke-linejoin: miter; stroke-linecap: square"/>
   </g>
  </g>
 </g>
 <defs>
  <clipPath id="p968821bac3">
   <rect x="57.6" y="41.472" width="357.12" height="266.112"/>
  </clipPath>
 </defs>
</svg>
