<?xml version="1.0" encoding="utf-8" standalone="no"?>
<!DOCTYPE svg PUBLIC "-//W3C//DTD SVG 1.1//EN"
  "http://www.w3.org/Graphics/SVG/1.1/DTD/svg11.dtd">
<svg xmlns:xlink="http://www.w3.org/1999/xlink" width="272.067187pt" height="197.398125pt" viewBox="0 0 272.067187 197.398125" xmlns="http://www.w3.org/2000/svg" version="1.1">
 <metadata>
  <rdf:RDF xmlns:dc="http://purl.org/dc/elements/1.1/" xmlns:cc="http://creativecommons.org/ns#" xmlns:rdf="http://www.w3.org/1999/02/22-rdf-syntax-ns#">
   <cc:Work>
    <dc:type rdf:resource="http://purl.org/dc/dcmitype/StillImage"/>
    <dc:date>2025-12-19T12:12:51.473085</dc:date>
    <dc:format>image/svg+xml</dc:format>
    <dc:creator>
     <cc:Agent>
      <dc:title>Matplotlib v3.10.7, https://matplotlib.org/</dc:title>
     </cc:Agent>
    </dc:creator>
   </cc:Work>
  </rdf:RDF>
 </metadata>
 <defs>
  <style type="text/css">*{stroke-linejoin: round; stroke-linecap: butt}</style>
 </defs>
 <g id="figure_1">
  <g id="patch_1">
   <path d="M 0 197.398125 
L 272.067187 197.398125 
L 272.067187 0 
L 0 0 
z
" style="fill: #ffffff"/>
  </g>
  <g id="axes_1">
   <g id="patch_2">
    <path d="M 41.667188 173.52 
L 264.867188 173.52 
L 264.867188 7.2 
L 41.667188 7.2 
z
" style="fill: #ffffff"/>
   </g>
   <g id="matplotlib.axis_1">
    <g id="xtick_1">
     <g id="line2d_1">
      <defs>
       <path id="m3d1422f936" d="M 0 0 
L 0 3.5 
" style="stroke: #000000; stroke-width: 0.8"/>
      </defs>
      <g>
       <use xlink:href="#m3d1422f936" x="82.712896" y="173.52" style="stroke: #000000; stroke-width: 0.8"/>
      </g>
     </g>
     <g id="text_1">
      <!-- 1 -->
      <g transform="translate(79.531646 188.118438) scale(0.1 -0.1)">
       <defs>
        <path id="DejaVuSans-31" d="M 794 531 
L 1825 531 
L 1825 4091 
L 703 3866 
L 703 4441 
L 1819 4666 
L 2450 4666 
L 2450 531 
L 3481 531 
L 3481 0 
L 794 0 
L 794 531 
z
" transform="scale(0.015625)"/>
       </defs>
       <use xlink:href="#DejaVuSans-31"/>
      </g>
     </g>
    </g>
    <g id="xtick_2">
     <g id="line2d_2">
      <g>
       <use xlink:href="#m3d1422f936" x="134.213319" y="173.52" style="stroke: #000000; stroke-width: 0.8"/>
      </g>
     </g>
     <g id="text_2">
      <!-- 2 -->
      <g transform="translate(131.032069 188.118438) scale(0.1 -0.1)">
       <defs>
        <path id="DejaVuSans-32" d="M 1228 531 
L 3431 531 
L 3431 0 
L 469 0 
L 469 531 
Q 828 903 1448 1529 
Q 2069 2156 2228 2338 
Q 2531 2678 2651 2914 
Q 2772 3150 2772 3378 
Q 2772 3750 2511 3984 
Q 2250 4219 1831 4219 
Q 1534 4219 1204 4116 
Q 875 4013 500 3803 
L 500 4441 
Q 881 4594 1212 4672 
Q 1544 4750 1819 4750 
Q 2544 4750 2975 4387 
Q 3406 4025 3406 3419 
Q 3406 3131 3298 2873 
Q 3191 2616 2906 2266 
Q 2828 2175 2409 1742 
Q 1991 1309 1228 531 
z
" transform="scale(0.015625)"/>
       </defs>
       <use xlink:href="#DejaVuSans-32"/>
      </g>
     </g>
    </g>
    <g id="xtick_3">
     <g id="line2d_3">
      <g>
       <use xlink:href="#m3d1422f936" x="185.713741" y="173.52" style="stroke: #000000; stroke-width: 0.8"/>
      </g>
     </g>
     <g id="text_3">
      <!-- 3 -->
      <g transform="translate(182.532491 188.118438) scale(0.1 -0.1)">
       <defs>
        <path id="DejaVuSans-33" d="M 2597 2516 
Q 3050 2419 3304 2112 
Q 3559 1806 3559 1356 
Q 3559 666 3084 287 
Q 2609 -91 1734 -91 
Q 1441 -91 1130 -33 
Q 819 25 488 141 
L 488 750 
Q 750 597 1062 519 
Q 1375 441 1716 441 
Q 2309 441 2620 675 
Q 2931 909 2931 1356 
Q 2931 1769 2642 2001 
Q 2353 2234 1838 2234 
L 1294 2234 
L 1294 2753 
L 1863 2753 
Q 2328 2753 2575 2939 
Q 2822 3125 2822 3475 
Q 2822 3834 2567 4026 
Q 2313 4219 1838 4219 
Q 1578 4219 1281 4162 
Q 984 4106 628 3988 
L 628 4550 
Q 988 4650 1302 4700 
Q 1616 4750 1894 4750 
Q 2613 4750 3031 4423 
Q 3450 4097 3450 3541 
Q 3450 3153 3228 2886 
Q 3006 2619 2597 2516 
z
" transform="scale(0.015625)"/>
       </defs>
       <use xlink:href="#DejaVuSans-33"/>
      </g>
     </g>
    </g>
    <g id="xtick_4">
     <g id="line2d_4">
      <g>
       <use xlink:href="#m3d1422f936" x="237.214164" y="173.52" style="stroke: #000000; stroke-width: 0.8"/>
      </g>
     </g>
     <g id="text_4">
      <!-- 4 -->
      <g transform="translate(234.032914 188.118438) scale(0.1 -0.1)">
       <defs>
        <path id="DejaVuSans-34" d="M 2419 4116 
L 825 1625 
L 2419 1625 
L 2419 4116 
z
M 2253 4666 
L 3047 4666 
L 3047 1625 
L 3713 1625 
L 3713 1100 
L 3047 1100 
L 3047 0 
L 2419 0 
L 2419 1100 
L 313 1100 
L 313 1709 
L 2253 4666 
z
" transform="scale(0.015625)"/>
       </defs>
       <use xlink:href="#DejaVuSans-34"/>
      </g>
     </g>
    </g>
   </g>
   <g id="matplotlib.axis_2">
    <g id="ytick_1">
     <g id="line2d_5">
      <defs>
       <path id="m2056b301a5" d="M 0 0 
L -3.5 0 
" style="stroke: #000000; stroke-width: 0.8"/>
      </defs>
      <g>
       <use xlink:href="#m2056b301a5" x="41.667188" y="168.248286" style="stroke: #000000; stroke-width: 0.8"/>
      </g>
     </g>
     <g id="text_5">
      <!-- −100 -->
      <g transform="translate(7.2 172.047505) scale(0.1 -0.1)">
       <defs>
        <path id="DejaVuSans-2212" d="M 678 2272 
L 4684 2272 
L 4684 1741 
L 678 1741 
L 678 2272 
z
" transform="scale(0.015625)"/>
        <path id="DejaVuSans-30" d="M 2034 4250 
Q 1547 4250 1301 3770 
Q 1056 3291 1056 2328 
Q 1056 1369 1301 889 
Q 1547 409 2034 409 
Q 2525 409 2770 889 
Q 3016 1369 3016 2328 
Q 3016 3291 2770 3770 
Q 2525 4250 2034 4250 
z
M 2034 4750 
Q 2819 4750 3233 4129 
Q 3647 3509 3647 2328 
Q 3647 1150 3233 529 
Q 2819 -91 2034 -91 
Q 1250 -91 836 529 
Q 422 1150 422 2328 
Q 422 3509 836 4129 
Q 1250 4750 2034 4750 
z
" transform="scale(0.015625)"/>
       </defs>
       <use xlink:href="#DejaVuSans-2212"/>
       <use xlink:href="#DejaVuSans-31" transform="translate(83.789062 0)"/>
       <use xlink:href="#DejaVuSans-30" transform="translate(147.412109 0)"/>
       <use xlink:href="#DejaVuSans-30" transform="translate(211.035156 0)"/>
      </g>
     </g>
    </g>
    <g id="ytick_2">
     <g id="line2d_6">
      <g>
       <use xlink:href="#m2056b301a5" x="41.667188" y="146.451007" style="stroke: #000000; stroke-width: 0.8"/>
      </g>
     </g>
     <g id="text_6">
      <!-- −80 -->
      <g transform="translate(13.5625 150.250226) scale(0.1 -0.1)">
       <defs>
        <path id="DejaVuSans-38" d="M 2034 2216 
Q 1584 2216 1326 1975 
Q 1069 1734 1069 1313 
Q 1069 891 1326 650 
Q 1584 409 2034 409 
Q 2484 409 2743 651 
Q 3003 894 3003 1313 
Q 3003 1734 2745 1975 
Q 2488 2216 2034 2216 
z
M 1403 2484 
Q 997 2584 770 2862 
Q 544 3141 544 3541 
Q 544 4100 942 4425 
Q 1341 4750 2034 4750 
Q 2731 4750 3128 4425 
Q 3525 4100 3525 3541 
Q 3525 3141 3298 2862 
Q 3072 2584 2669 2484 
Q 3125 2378 3379 2068 
Q 3634 1759 3634 1313 
Q 3634 634 3220 271 
Q 2806 -91 2034 -91 
Q 1263 -91 848 271 
Q 434 634 434 1313 
Q 434 1759 690 2068 
Q 947 2378 1403 2484 
z
M 1172 3481 
Q 1172 3119 1398 2916 
Q 1625 2713 2034 2713 
Q 2441 2713 2670 2916 
Q 2900 3119 2900 3481 
Q 2900 3844 2670 4047 
Q 2441 4250 2034 4250 
Q 1625 4250 1398 4047 
Q 1172 3844 1172 3481 
z
" transform="scale(0.015625)"/>
       </defs>
       <use xlink:href="#DejaVuSans-2212"/>
       <use xlink:href="#DejaVuSans-38" transform="translate(83.789062 0)"/>
       <use xlink:href="#DejaVuSans-30" transform="translate(147.412109 0)"/>
      </g>
     </g>
    </g>
    <g id="ytick_3">
     <g id="line2d_7">
      <g>
       <use xlink:href="#m2056b301a5" x="41.667188" y="124.653728" style="stroke: #000000; stroke-width: 0.8"/>
      </g>
     </g>
     <g id="text_7">
      <!-- −60 -->
      <g transform="translate(13.5625 128.452947) scale(0.1 -0.1)">
       <defs>
        <path id="DejaVuSans-36" d="M 2113 2584 
Q 1688 2584 1439 2293 
Q 1191 2003 1191 1497 
Q 1191 994 1439 701 
Q 1688 409 2113 409 
Q 2538 409 2786 701 
Q 3034 994 3034 1497 
Q 3034 2003 2786 2293 
Q 2538 2584 2113 2584 
z
M 3366 4563 
L 3366 3988 
Q 3128 4100 2886 4159 
Q 2644 4219 2406 4219 
Q 1781 4219 1451 3797 
Q 1122 3375 1075 2522 
Q 1259 2794 1537 2939 
Q 1816 3084 2150 3084 
Q 2853 3084 3261 2657 
Q 3669 2231 3669 1497 
Q 3669 778 3244 343 
Q 2819 -91 2113 -91 
Q 1303 -91 875 529 
Q 447 1150 447 2328 
Q 447 3434 972 4092 
Q 1497 4750 2381 4750 
Q 2619 4750 2861 4703 
Q 3103 4656 3366 4563 
z
" transform="scale(0.015625)"/>
       </defs>
       <use xlink:href="#DejaVuSans-2212"/>
       <use xlink:href="#DejaVuSans-36" transform="translate(83.789062 0)"/>
       <use xlink:href="#DejaVuSans-30" transform="translate(147.412109 0)"/>
      </g>
     </g>
    </g>
    <g id="ytick_4">
     <g id="line2d_8">
      <g>
       <use xlink:href="#m2056b301a5" x="41.667188" y="102.85645" style="stroke: #000000; stroke-width: 0.8"/>
      </g>
     </g>
     <g id="text_8">
      <!-- −40 -->
      <g transform="translate(13.5625 106.655668) scale(0.1 -0.1)">
       <use xlink:href="#DejaVuSans-2212"/>
       <use xlink:href="#DejaVuSans-34" transform="translate(83.789062 0)"/>
       <use xlink:href="#DejaVuSans-30" transform="translate(147.412109 0)"/>
      </g>
     </g>
    </g>
    <g id="ytick_5">
     <g id="line2d_9">
      <g>
       <use xlink:href="#m2056b301a5" x="41.667188" y="81.059171" style="stroke: #000000; stroke-width: 0.8"/>
      </g>
     </g>
     <g id="text_9">
      <!-- −20 -->
      <g transform="translate(13.5625 84.858389) scale(0.1 -0.1)">
       <use xlink:href="#DejaVuSans-2212"/>
       <use xlink:href="#DejaVuSans-32" transform="translate(83.789062 0)"/>
       <use xlink:href="#DejaVuSans-30" transform="translate(147.412109 0)"/>
      </g>
     </g>
    </g>
    <g id="ytick_6">
     <g id="line2d_10">
      <g>
       <use xlink:href="#m2056b301a5" x="41.667188" y="59.261892" style="stroke: #000000; stroke-width: 0.8"/>
      </g>
     </g>
     <g id="text_10">
      <!-- 0 -->
      <g transform="translate(28.304688 63.061111) scale(0.1 -0.1)">
       <use xlink:href="#DejaVuSans-30"/>
      </g>
     </g>
    </g>
    <g id="ytick_7">
     <g id="line2d_11">
      <g>
       <use xlink:href="#m2056b301a5" x="41.667188" y="37.464613" style="stroke: #000000; stroke-width: 0.8"/>
      </g>
     </g>
     <g id="text_11">
      <!-- 20 -->
      <g transform="translate(21.942188 41.263832) scale(0.1 -0.1)">
       <use xlink:href="#DejaVuSans-32"/>
       <use xlink:href="#DejaVuSans-30" transform="translate(63.623047 0)"/>
      </g>
     </g>
    </g>
    <g id="ytick_8">
     <g id="line2d_12">
      <g>
       <use xlink:href="#m2056b301a5" x="41.667188" y="15.667334" style="stroke: #000000; stroke-width: 0.8"/>
      </g>
     </g>
     <g id="text_12">
      <!-- 40 -->
      <g transform="translate(21.942188 19.466553) scale(0.1 -0.1)">
       <use xlink:href="#DejaVuSans-34"/>
       <use xlink:href="#DejaVuSans-30" transform="translate(63.623047 0)"/>
      </g>
     </g>
    </g>
   </g>
   <g id="line2d_13">
    <path d="M 51.812642 129.83963 
L 51.851267 129.73985 
L 51.877018 129.90615 
L 51.923368 129.83963 
L 51.980018 129.97267 
L 52.039244 129.93941 
L 52.147395 129.73985 
L 52.095894 129.97267 
L 52.157695 129.83963 
L 52.428072 129.73985 
L 52.533648 129.67333 
L 52.443522 129.80637 
L 52.541373 129.70659 
L 52.786 129.64007 
L 52.899301 129.50703 
L 52.922476 129.57355 
L 52.976552 129.44051 
L 53.012602 129.54029 
L 53.082127 129.40725 
L 53.033202 129.57355 
L 53.125903 129.47377 
L 53.236629 129.57355 
L 53.136203 129.44051 
L 53.239204 129.54029 
L 53.257229 129.57355 
L 53.357655 129.44051 
L 53.545631 129.50703 
L 53.597132 129.57355 
L 53.581682 129.47377 
L 53.653782 129.50703 
L 53.764508 129.37399 
L 53.684682 129.54029 
L 53.769658 129.44051 
L 53.862359 129.37399 
L 53.867509 129.30747 
L 53.893259 129.47377 
L 53.97051 129.44051 
L 54.166211 129.54029 
L 54.176511 129.47377 
L 54.287237 129.67333 
L 54.312988 129.50703 
L 54.397963 129.60681 
L 55.394496 129.70659 
L 55.412522 129.77311 
L 55.399646 129.67333 
L 55.505222 129.70659 
L 55.651999 129.77311 
L 55.724099 129.93941 
L 55.765299 129.90615 
L 55.876025 129.97267 
L 55.845125 129.83963 
L 55.8786 129.93941 
L 55.994476 129.97267 
L 56.097477 130.072451 
L 56.105202 129.97267 
L 56.218503 130.105711 
L 56.326654 130.00593 
L 56.331804 130.03919 
L 56.43223 129.97267 
L 56.445105 130.105711 
L 56.535231 129.97267 
L 56.491455 130.138971 
L 56.563556 130.00593 
L 56.612481 130.138971 
L 56.674282 130.03919 
L 56.761833 129.90615 
L 56.790158 129.97267 
L 56.805608 130.00593 
L 56.885434 129.87289 
L 56.895734 129.90615 
L 56.898309 129.83963 
L 56.967834 130.837431 
L 57.168686 136.757712 
L 57.171261 136.691192 
L 57.233062 137.822033 
L 57.413313 140.516093 
L 58.041618 147.201355 
L 58.044193 147.168095 
L 58.108569 147.733515 
L 58.111144 147.666995 
L 58.265645 148.797835 
L 58.281095 148.897615 
L 58.474222 149.995196 
L 58.476797 149.961936 
L 58.548897 150.427576 
L 58.551472 150.427576 
L 58.574648 150.494096 
L 58.703399 151.192556 
L 58.723999 151.259076 
L 58.855325 151.791236 
L 58.88365 151.891016 
L 59.038151 152.456436 
L 59.043301 152.389916 
L 59.123127 152.722516 
L 59.130852 152.689256 
L 59.277628 153.154897 
L 59.280203 153.088377 
L 59.375479 153.321197 
L 59.380629 153.321197 
L 59.393504 153.254677 
L 59.517105 153.653797 
L 59.586631 153.753577 
L 59.596931 153.720317 
L 59.715382 153.986397 
L 59.751432 153.919877 
L 59.800358 154.052917 
L 59.826108 153.986397 
L 59.885333 154.052917 
L 59.893058 154.019657 
L 60.001209 154.219217 
L 60.006359 154.152697 
L 60.070735 154.285737 
L 60.106785 154.285737 
L 60.186611 154.352257 
L 60.297337 154.485297 
L 60.222661 154.318997 
L 60.299912 154.452037 
L 60.65269 154.551817 
L 60.655265 154.585077 
L 60.717065 154.418777 
L 60.763416 154.551817 
L 60.796891 154.418777 
L 60.874141 154.551817 
L 60.881867 154.418777 
L 60.897317 154.585077 
L 60.987442 154.518557 
L 61.36597 154.418777 
L 61.368546 154.385517 
L 61.373696 154.518557 
L 61.471546 154.452037 
L 61.538497 154.485297 
L 61.541072 154.352257 
L 61.574547 154.352257 
L 61.605447 154.452037 
L 61.608022 154.485297 
L 61.644073 154.352257 
L 61.711023 154.418777 
L 61.829474 154.285737 
L 61.89385 154.352257 
L 61.9299 154.252477 
L 61.9402 154.285737 
L 61.958225 154.318997 
L 62.056076 154.219217 
L 62.156502 154.318997 
L 62.166802 154.252477 
L 62.174527 154.318997 
L 62.282678 154.185957 
L 62.383104 154.252477 
L 62.334178 154.119437 
L 62.393404 154.185957 
L 62.527305 154.185957 
L 62.635456 154.019657 
L 62.640606 154.052917 
L 62.771932 153.953137 
L 62.774507 153.886617 
L 62.854333 154.052917 
L 62.882658 153.953137 
L 63.008834 153.853357 
L 63.10411 153.786837 
L 63.042309 153.919877 
L 63.122135 153.820097 
L 63.14016 153.886617 
L 63.189085 153.753577 
L 63.230286 153.820097 
L 63.320412 153.720317 
L 63.328137 153.886617 
L 63.343587 153.753577 
L 63.361612 153.786837 
L 63.433712 153.587277 
L 63.449163 153.720317 
L 63.549588 153.587277 
L 63.562464 153.653797 
L 63.629414 153.554017 
L 63.580489 153.687057 
L 63.675764 153.587277 
L 63.737565 153.620537 
L 63.758165 153.487497 
L 63.78134 153.554017 
L 63.876616 153.487497 
L 63.79679 153.620537 
L 63.892066 153.554017 
L 64.020817 153.454237 
L 64.139268 153.287937 
L 64.141843 153.321197 
L 64.211369 153.354457 
L 64.177894 153.254677 
L 64.249994 153.287937 
L 64.342695 153.121637 
L 64.36587 153.221417 
L 64.417371 153.121637 
L 64.422521 153.088377 
L 64.481746 153.221417 
L 64.525521 153.154897 
L 64.754698 153.088377 
L 64.837099 152.922077 
L 64.867999 152.988597 
L 64.958125 153.021857 
L 64.875724 152.922077 
L 64.973575 152.922077 
L 65.851657 152.822297 
L 65.946933 152.722516 
L 65.864532 152.855557 
L 65.962383 152.822297 
L 65.988133 152.755777 
L 65.998434 152.655996 
L 66.047359 152.789037 
L 66.098859 152.755777 
L 66.20701 152.655996 
L 66.17611 152.789037 
L 66.214735 152.689256 
L 66.286836 152.789037 
L 66.289411 152.855557 
L 66.333186 152.589476 
L 66.392412 152.689256 
L 66.706564 152.622736 
L 66.75034 152.689256 
L 66.819865 152.556216 
L 66.904841 152.622736 
L 66.83274 152.522956 
L 66.928016 152.522956 
L 67.262769 152.522956 
L 67.394095 147.201355 
L 67.721123 141.580414 
L 67.726273 141.480634 
L 68.277327 135.759912 
L 68.279902 135.793172 
L 68.344278 135.194492 
L 68.58118 133.564751 
L 68.58633 133.598011 
L 68.650705 133.099111 
L 68.65843 133.132371 
L 68.676455 133.032591 
L 68.854132 132.101311 
L 68.856707 132.167831 
L 68.931383 131.668931 
L 68.946833 131.702191 
L 69.080734 131.103511 
L 69.109059 131.003731 
L 69.250685 130.538091 
L 69.119359 131.036991 
L 69.25326 130.571351 
L 69.28416 130.504831 
L 69.402611 130.172231 
L 69.407762 130.238751 
L 69.492737 129.90615 
L 69.505612 129.97267 
L 69.639513 129.57355 
L 69.644663 129.60681 
L 69.693589 129.57355 
L 69.809465 129.27421 
L 69.85839 129.24095 
L 69.971691 129.00813 
L 69.974266 129.04139 
L 70.097867 128.74205 
L 70.105592 128.77531 
L 70.108167 128.77531 
L 70.218893 128.57575 
L 70.221468 128.64227 
L 70.342494 128.37619 
L 70.368244 128.40945 
L 70.440345 128.24315 
L 70.44807 128.30967 
L 70.466095 128.37619 
L 70.569096 128.17663 
L 70.739047 128.11011 
L 70.790548 128.04359 
L 70.824023 128.17663 
L 70.849773 128.07685 
L 70.921874 128.14337 
L 70.934749 127.97707 
L 70.952774 128.04359 
L 71.012 127.84403 
L 71.06865 127.87729 
L 71.07895 127.91055 
L 71.08925 127.77751 
L 71.176801 127.84403 
L 71.264352 127.77751 
L 71.212851 127.87729 
L 71.290102 127.81077 
L 71.421428 127.87729 
L 71.521854 127.94381 
L 71.467778 127.84403 
L 71.532154 127.87729 
L 71.61713 127.97707 
L 71.545029 127.84403 
L 71.640305 127.87729 
L 71.740731 127.84403 
L 71.655755 127.94381 
L 71.748456 127.87729 
L 71.758756 127.94381 
L 71.807681 127.77751 
L 71.856607 127.84403 
L 72.000808 127.74425 
L 72.005958 127.71099 
L 72.039433 127.81077 
L 72.108959 127.74425 
L 72.139859 127.81077 
L 72.175909 127.67773 
L 72.21196 127.74425 
L 72.214535 127.64447 
L 72.31496 127.87729 
L 72.32011 127.77751 
L 72.739839 127.67773 
L 72.755289 127.81077 
L 72.84799 127.61121 
L 72.90979 127.74425 
L 72.958716 127.64447 
L 72.984466 127.74425 
L 73.023091 127.57795 
L 73.066867 127.61121 
L 74.199876 127.67773 
L 74.292577 127.74425 
L 74.297727 127.64447 
L 74.310602 127.71099 
L 74.320902 127.64447 
L 74.411028 127.81077 
L 74.416178 127.77751 
L 74.506303 127.97707 
L 74.537204 127.94381 
L 74.578404 127.84403 
L 74.550079 128.01033 
L 74.64793 127.91055 
L 74.75608 128.11011 
L 74.655655 127.87729 
L 74.768956 128.07685 
L 74.802431 128.01033 
L 74.874531 128.17663 
L 74.877106 128.11011 
L 74.998132 128.24315 
L 75.137184 128.30967 
L 75.242759 128.47597 
L 75.250484 128.40945 
L 75.296835 128.34293 
L 75.33031 128.57575 
L 75.353485 128.50923 
L 75.474511 128.64227 
L 75.708838 128.70879 
L 75.816989 128.80857 
L 75.729438 128.67553 
L 75.819564 128.74205 
L 75.860764 128.77531 
L 75.95604 128.74205 
L 75.974065 128.87509 
L 76.077066 128.77531 
L 75.992091 128.90835 
L 76.084791 128.84183 
L 76.267618 128.80857 
L 76.375769 128.70879 
L 76.344868 128.84183 
L 76.378344 128.74205 
L 76.468469 128.84183 
L 76.491645 128.80857 
L 76.527695 128.70879 
L 76.52512 128.84183 
L 76.599796 128.77531 
L 76.700221 128.84183 
L 76.617821 128.67553 
L 76.710521 128.80857 
L 76.862448 128.84183 
L 76.968024 128.94161 
L 76.867598 128.77531 
L 76.973174 128.87509 
L 77.024674 129.00813 
L 77.086475 128.90835 
L 77.15085 128.77531 
L 77.1972 128.84183 
L 77.264151 128.94161 
L 77.305351 128.80857 
L 77.325952 128.90835 
L 77.418652 128.77531 
L 77.444402 128.94161 
L 77.472728 128.74205 
L 77.534528 128.84183 
L 77.77658 128.74205 
L 77.879581 128.67553 
L 77.78688 128.80857 
L 77.889881 128.70879 
L 78.003182 128.64227 
L 78.041807 128.67553 
L 78.116483 128.54249 
L 78.206609 128.44271 
L 78.211759 128.50923 
L 78.322485 128.30967 
L 78.425486 128.44271 
L 78.35596 128.27641 
L 78.433211 128.40945 
L 78.440936 128.44271 
L 78.543937 128.34293 
L 78.652087 128.44271 
L 78.657237 128.40945 
L 78.834914 128.50923 
L 78.845214 128.44271 
L 78.953365 128.60901 
L 79.102716 128.70879 
L 79.216017 128.80857 
L 79.143916 128.67553 
L 79.218592 128.77531 
L 79.334468 128.84183 
L 79.337043 128.90835 
L 79.406569 128.74205 
L 79.442619 128.77531 
L 80.753305 128.67553 
L 80.78163 128.74205 
L 80.869181 128.57575 
L 80.894931 128.70879 
L 80.982482 128.67553 
L 81.077757 128.70879 
L 80.987632 128.60901 
L 81.088057 128.60901 
L 82.089741 128.67553 
L 82.110341 128.64227 
L 82.203042 128.80857 
L 82.264842 128.70879 
L 82.272567 128.84183 
L 82.311192 128.84183 
L 82.481144 128.90835 
L 82.58672 129.04139 
L 82.535219 128.87509 
L 82.594445 129.00813 
L 82.712896 129.04139 
L 82.844222 137.057052 
L 83.544628 152.290136 
L 83.549778 152.389916 
L 84.252758 160.039718 
L 84.265633 160.139498 
L 84.420135 161.303599 
L 84.42271 161.270339 
L 84.49481 161.769239 
L 84.690512 162.866819 
L 84.711112 162.966599 
L 84.842438 163.532019 
L 84.857888 163.498759 
L 84.924839 163.831359 
L 84.929989 163.831359 
L 84.960889 163.931139 
L 85.08964 164.39678 
L 85.125691 164.4633 
L 85.231266 164.7959 
L 85.244142 164.76264 
L 85.370318 165.1285 
L 85.380618 165.09524 
L 85.432118 165.16176 
L 85.545419 165.42784 
L 85.547994 165.39458 
L 85.550569 165.32806 
L 85.63812 165.59414 
L 85.650995 165.52762 
L 85.766871 165.76044 
L 85.774596 165.66066 
L 85.800346 165.7937 
L 85.880172 165.69392 
L 86.003773 165.86022 
L 86.449251 165.76044 
L 86.554827 165.69392 
L 86.469852 165.82696 
L 86.557402 165.7937 
L 86.668128 165.69392 
L 86.686153 165.72718 
L 86.789154 165.56088 
L 86.802029 165.6274 
L 86.85353 165.49436 
L 86.897305 165.56088 
L 87.010606 165.4611 
L 87.036356 165.52762 
L 87.051806 165.39458 
L 87.113607 165.42784 
L 87.229483 165.26154 
L 87.286133 165.32806 
L 87.329909 165.09524 
L 87.335059 165.19502 
L 87.46896 164.89568 
L 87.561661 164.86242 
L 87.667236 164.69612 
L 87.674961 164.72938 
L 87.777962 164.56308 
L 87.795987 164.59634 
L 87.826888 164.69612 
L 87.891263 164.43004 
L 87.896413 164.4633 
L 87.919588 164.36352 
L 87.927314 164.39678 
L 88.038039 164.23048 
L 88.071515 164.297 
L 88.133315 164.09744 
L 88.14104 164.1307 
L 88.16164 164.064179 
L 88.280091 163.864619 
L 88.349617 163.798099 
L 88.470643 163.498759 
L 88.483518 163.631799 
L 88.545319 163.365719 
L 88.576219 163.365719 
L 88.645744 163.265939 
L 88.65347 163.299199 
L 88.76677 162.999859 
L 88.792521 163.066379 
L 88.836296 162.833559 
L 88.869771 162.866819 
L 88.990797 162.567479 
L 89.011397 162.467699 
L 89.114398 162.201619 
L 89.016547 162.500959 
L 89.137573 162.268139 
L 89.140149 162.301399 
L 89.214824 162.035319 
L 89.230274 162.035319 
L 89.281775 161.935539 
L 89.400226 161.636199 
L 89.402801 161.669459 
L 89.405376 161.735979 
L 89.503226 161.436639 
L 89.505802 161.469899 
L 89.634553 161.203819 
L 89.637128 161.237079 
L 89.722103 160.937739 
L 89.729828 161.037519 
L 89.848279 160.671659 
L 89.850854 160.704919 
L 89.88433 160.738179 
L 89.943555 160.505359 
L 89.94613 160.538619 
L 90.074881 160.239278 
L 89.95128 160.571879 
L 90.077456 160.272538 
L 90.098056 160.206018 
L 90.216507 159.973198 
L 90.286033 159.873418 
L 90.301483 159.906678 
L 90.419934 159.574078 
L 90.492035 159.474298 
L 90.605336 159.208218 
L 90.502335 159.507558 
L 90.610486 159.241478 
L 90.638811 159.274738 
L 90.700611 159.075178 
L 90.710911 159.108438 
L 90.829362 158.775838 
L 90.842237 158.842358 
L 90.878288 158.742578 
L 91.004464 158.543018 
L 91.025064 158.476498 
L 91.037939 158.576278 
L 91.143515 158.276938 
L 91.158965 158.310198 
L 91.272266 158.044118 
L 91.303166 158.077378 
L 91.279991 157.944338 
L 91.375267 157.977598 
L 91.506593 157.611738 
L 91.509168 157.644998 
L 91.534918 157.711518 
L 91.599294 157.445438 
L 91.601869 157.445438 
L 91.70487 157.212618 
L 91.609594 157.478698 
L 91.72547 157.279138 
L 91.753795 157.179358 
L 91.885121 156.913278 
L 91.916021 156.979798 
L 91.972672 156.813498 
L 91.988122 156.813498 
L 92.026747 156.880018 
L 92.109148 156.680458 
L 92.147773 156.713718 
L 92.194124 156.547418 
L 92.212149 156.580678 
L 92.243049 156.480897 
L 92.35635 156.281337 
L 92.284249 156.514158 
L 92.364075 156.314597 
L 92.36665 156.347857 
L 92.428451 156.115037 
L 92.456776 156.115037 
L 92.575227 155.948737 
L 92.461926 156.148297 
L 92.577802 155.981997 
L 92.629302 155.882217 
L 92.647327 155.915477 
L 92.745178 155.715917 
L 92.763203 155.815697 
L 92.832729 155.549617 
L 92.850754 155.582877 
L 92.894529 155.616137 
L 92.94603 155.449837 
L 92.953755 155.483097 
L 93.010405 155.383317 
L 93.123706 155.217017 
L 93.02328 155.416577 
L 93.128856 155.250277 
L 93.131431 155.283537 
L 93.218982 155.083977 
L 93.229282 155.117237 
L 93.340008 154.884417 
L 93.355458 154.917677 
L 93.360608 154.950937 
L 93.437859 154.684857 
L 93.448159 154.718117 
L 93.56146 154.551817 
L 93.564035 154.618337 
L 93.656736 154.418777 
L 93.667036 154.418777 
L 93.674761 154.452037 
L 93.733986 154.285737 
L 93.772612 154.352257 
L 93.893638 154.119437 
L 93.896213 154.152697 
L 93.914238 154.185957 
L 93.952863 154.019657 
L 93.996638 154.019657 
L 94.107364 153.786837 
L 94.112514 153.820097 
L 94.117664 153.853357 
L 94.230965 153.620537 
L 94.23354 153.720317 
L 94.336541 153.420977 
L 94.434392 153.321197 
L 94.547693 153.188157 
L 94.442117 153.387717 
L 94.552843 153.221417 
L 94.627519 153.154897 
L 94.738244 152.922077 
L 94.740819 152.955337 
L 94.74597 153.021857 
L 94.83867 152.789037 
L 94.846395 152.822297 
L 94.967421 152.622736 
L 94.969996 152.655996 
L 94.998322 152.589476 
L 95.116773 152.389916 
L 95.212048 152.290136 
L 95.333074 152.057316 
L 95.222348 152.323396 
L 95.338224 152.090576 
L 95.40775 151.990796 
L 95.485001 151.824496 
L 95.425775 152.024056 
L 95.528776 151.857756 
L 95.531351 151.891016 
L 95.611177 151.691456 
L 95.629202 151.724716 
L 95.672977 151.624936 
L 95.709027 151.658196 
L 95.796578 151.458636 
L 95.871254 151.392116 
L 95.984555 151.159296 
L 95.98713 151.192556 
L 96.115881 150.959736 
L 96.149356 150.992996 
L 96.211157 150.793436 
L 96.216307 150.826696 
L 96.270382 150.760176 
L 96.381108 150.560616 
L 96.275532 150.793436 
L 96.386258 150.593876 
L 96.499559 150.494096 
L 96.625735 150.294536 
L 96.641185 150.327796 
L 96.718436 150.128236 
L 96.721011 150.161496 
L 96.834312 149.895416 
L 96.839462 149.928676 
L 96.914137 149.828896 
L 97.045463 149.562816 
L 97.120139 149.496296 
L 97.135589 149.562816 
L 97.236015 149.296736 
L 97.339016 149.196956 
L 97.447167 148.997396 
L 97.351891 149.230216 
L 97.462617 149.030656 
L 97.503817 148.930875 
L 97.617118 148.731315 
L 97.537292 148.997396 
L 97.622268 148.797835 
L 97.624843 148.831095 
L 97.712394 148.598275 
L 97.720119 148.631535 
L 97.80767 148.531755 
L 97.918396 148.332195 
L 97.931271 148.365455 
L 97.990496 148.265675 
L 98.108947 148.099375 
L 97.995646 148.298935 
L 98.111522 148.132635 
L 98.183623 148.032855 
L 98.188773 148.066115 
L 98.307224 147.866555 
L 98.309799 147.899815 
L 98.371599 147.700255 
L 98.405075 147.700255 
L 98.520951 147.567215 
L 98.523526 147.600475 
L 98.600776 147.367655 
L 98.616226 147.367655 
L 98.685752 147.301135 
L 98.804203 147.101575 
L 98.866003 147.001795 
L 98.876303 147.035055 
L 98.987029 146.835495 
L 98.992179 146.902015 
L 99.072005 146.735715 
L 99.092605 146.802235 
L 99.216206 146.602675 
L 99.231656 146.635935 
L 99.280582 146.469635 
L 99.314057 146.502895 
L 99.427358 146.236815 
L 99.432508 146.270075 
L 99.455683 146.303335 
L 99.514909 146.137035 
L 99.532934 146.203555 
L 99.646235 145.970735 
L 99.64881 146.003995 
L 99.66941 146.070515 
L 99.741511 145.904215 
L 99.756961 145.937475 
L 99.877987 145.737915 
L 99.885712 145.837695 
L 99.950087 145.638135 
L 99.986138 145.704655 
L 100.083988 145.505095 
L 100.109739 145.538355 
L 100.130339 145.571615 
L 100.197289 145.372055 
L 100.210164 145.405315 
L 100.256515 145.305535 
L 100.26939 145.372055 
L 100.380116 145.105974 
L 100.382691 145.172495 
L 100.462516 144.972934 
L 100.485692 144.972934 
L 100.501142 145.039454 
L 100.562942 144.806634 
L 100.583542 144.806634 
L 100.704568 144.706854 
L 100.812719 144.507294 
L 100.712294 144.740114 
L 100.828169 144.540554 
L 100.83332 144.573814 
L 100.90542 144.374254 
L 100.92602 144.440774 
L 101.041896 144.141434 
L 101.070221 144.207954 
L 101.103697 144.041654 
L 101.147472 144.074914 
L 101.170647 144.008394 
L 101.283948 143.842094 
L 101.291673 143.908614 
L 101.386949 143.709054 
L 101.389524 143.808834 
L 101.50025 143.576014 
L 101.5054 143.609274 
L 101.626426 143.442974 
L 101.647026 143.476234 
L 101.713977 143.276674 
L 101.729427 143.343194 
L 101.855603 143.077114 
L 101.858178 143.143634 
L 101.950879 142.910814 
L 101.961179 142.944074 
L 102.092505 142.677994 
L 102.118255 142.744514 
L 102.182631 142.544954 
L 102.198081 142.544954 
L 102.326832 142.478434 
L 102.401507 142.245614 
L 102.331982 142.511694 
L 102.442708 142.312134 
L 102.458158 142.345394 
L 102.530258 142.145834 
L 102.543134 142.212354 
L 102.656434 142.012794 
L 102.65901 142.079314 
L 102.774885 141.846494 
L 102.782611 141.913014 
L 102.841836 141.813234 
L 102.862436 141.879754 
L 102.960287 141.713454 
L 103.050413 141.613674 
L 103.153414 141.447374 
L 103.068438 141.680194 
L 103.166289 141.480634 
L 103.258989 141.380853 
L 103.27444 141.447374 
L 103.38259 141.214553 
L 103.398041 141.281073 
L 103.483016 141.114773 
L 103.485591 141.114773 
L 103.544817 141.048253 
L 103.660693 140.848693 
L 103.670993 140.915213 
L 103.750818 140.649133 
L 103.758544 140.682393 
L 103.794594 140.582613 
L 103.91562 140.283273 
L 103.94652 140.316533 
L 103.979995 140.183493 
L 104.018621 140.183493 
L 104.070121 140.083713 
L 104.183422 139.983933 
L 104.250373 139.917413 
L 104.366249 139.684593 
L 104.371399 139.751113 
L 104.469249 139.518293 
L 104.471824 139.551553 
L 104.590275 139.252213 
L 104.600575 139.318733 
L 104.634051 139.218953 
L 104.641776 139.252213 
L 104.757652 139.019393 
L 104.775677 139.052653 
L 104.811727 138.919613 
L 104.863228 138.952873 
L 104.955928 138.720053 
L 104.881253 138.986133 
L 104.986829 138.786573 
L 105.053779 138.720053 
L 105.15163 138.487233 
L 105.169655 138.553753 
L 105.239181 138.487233 
L 105.357632 138.254413 
L 105.375657 138.354193 
L 105.450332 138.121373 
L 105.460633 138.154633 
L 105.532733 138.088113 
L 105.651184 137.855293 
L 105.671784 137.921813 
L 105.733585 137.722253 
L 105.75161 137.755513 
L 105.76706 137.788773 
L 105.877786 137.522692 
L 105.900961 137.589212 
L 105.978212 137.356392 
L 105.983362 137.422912 
L 106.094088 137.223352 
L 105.991087 137.456172 
L 106.106963 137.256612 
L 106.122413 137.323132 
L 106.186788 137.123572 
L 106.207389 137.123572 
L 106.276914 137.023792 
L 106.390215 136.857492 
L 106.289789 137.057052 
L 106.39279 136.890752 
L 106.524116 136.790972 
L 106.637417 136.657932 
L 106.542141 136.824232 
L 106.639992 136.724452 
L 106.712093 136.691192 
L 106.825394 136.458372 
L 106.827969 136.491632 
L 106.95672 136.258812 
L 106.97217 136.325332 
L 107.044271 136.092512 
L 107.062296 136.125772 
L 107.100921 136.092512 
L 107.201347 135.826432 
L 107.214222 135.926212 
L 107.332673 135.693392 
L 107.381598 135.626872 
L 107.497474 135.460572 
L 107.500049 135.527092 
L 107.5979 135.261012 
L 107.60305 135.327532 
L 107.708626 135.127972 
L 107.726651 135.161232 
L 107.796177 135.061452 
L 107.924928 134.828632 
L 107.948103 134.895152 
L 108.020204 134.695592 
L 108.027929 134.762112 
L 108.138654 134.595812 
L 108.058829 134.795372 
L 108.14638 134.629072 
L 108.148955 134.662332 
L 108.23393 134.462772 
L 108.246805 134.496032 
L 108.311181 134.396252 
L 108.334356 134.462772 
L 108.437357 134.196692 
L 108.445082 134.263212 
L 108.535208 134.096912 
L 108.537783 134.096912 
L 108.553233 134.130172 
L 108.661384 133.897352 
L 108.671684 133.963872 
L 108.75666 133.697791 
L 108.84421 133.631271 
L 108.960086 133.365191 
L 108.962661 133.398451 
L 109.045062 133.298671 
L 109.168663 133.065851 
L 109.171238 133.099111 
L 109.191838 133.165631 
L 109.261364 132.999331 
L 109.276814 133.032591 
L 109.405565 132.799771 
L 109.495691 132.733251 
L 109.603842 132.500431 
L 109.614142 132.533691 
L 109.699117 132.433911 
L 109.827868 132.068051 
L 109.835593 132.101311 
L 109.840743 132.167831 
L 109.881944 132.001531 
L 109.941169 132.034791 
L 110.06992 131.801971 
L 110.183221 131.702191 
L 110.190946 131.735451 
L 110.304247 131.535891 
L 110.309397 131.602411 
L 110.384073 131.336331 
L 110.404673 131.402851 
L 110.443298 131.303071 
L 110.569474 131.003731 
L 110.453598 131.336331 
L 110.574624 131.036991 
L 110.615825 131.003731 
L 110.723976 130.737651 
L 110.731701 130.770911 
L 110.734276 130.837431 
L 110.821827 130.504831 
L 110.834702 130.571351 
L 110.968603 130.272011 
L 111.038128 130.172231 
L 111.156579 129.97267 
L 111.053578 130.205491 
L 111.161729 130.00593 
L 111.210655 129.90615 
L 111.344556 129.54029 
L 111.365156 129.60681 
L 111.439832 129.34073 
L 111.447557 129.37399 
L 111.493907 129.27421 
L 111.604633 129.04139 
L 111.501632 129.30747 
L 111.612358 129.07465 
L 111.751409 128.70879 
L 111.795185 128.64227 
L 111.89046 128.37619 
L 111.91106 128.40945 
L 112.037236 128.17663 
L 112.039812 128.20989 
L 112.124787 127.97707 
L 112.135087 128.01033 
L 112.163413 127.94381 
L 112.287014 127.57795 
L 112.289589 127.64447 
L 112.374564 127.41165 
L 112.392589 127.44491 
L 112.42864 127.47817 
L 112.48014 127.24535 
L 112.49044 127.27861 
L 112.570266 127.17883 
L 112.722192 126.64667 
L 112.724767 126.71319 
L 112.814893 126.48037 
L 112.825193 126.48037 
L 112.843218 126.41385 
L 112.853518 126.48037 
L 112.959094 126.28081 
L 112.974544 126.31407 
L 113.051795 126.047989 
L 113.05437 126.114509 
L 113.190846 125.781909 
L 113.247496 125.682129 
L 113.286122 125.715389 
L 113.373672 125.449309 
L 113.376247 125.482569 
L 113.466373 125.216489 
L 113.592549 124.850629 
L 113.602849 124.883889 
L 113.6389 124.784109 
L 113.749626 124.418249 
L 113.759926 124.484769 
L 113.795976 124.384989 
L 113.924727 124.019129 
L 113.932452 124.052389 
L 113.958202 123.952609 
L 114.074078 123.686529 
L 114.076653 123.753049 
L 114.084378 123.786309 
L 114.125579 123.620009 
L 114.174504 123.620009 
L 114.30068 123.387189 
L 114.344455 123.453709 
L 114.385656 123.220889 
L 114.406256 123.287409 
L 114.437156 123.187629 
L 114.576207 122.788509 
L 114.578782 122.821769 
L 114.663758 122.555689 
L 114.666333 122.555689 
L 114.771909 122.189828 
L 114.800234 122.256348 
L 114.828559 122.156568 
L 114.959885 121.624408 
L 114.995936 121.557888 
L 115.001086 121.591148 
L 115.116962 121.258548 
L 115.119537 121.291808 
L 115.207088 120.992468 
L 115.230263 120.925948 
L 115.359014 120.427048 
L 115.361589 120.460308 
L 115.438839 120.160968 
L 115.446564 120.160968 
L 115.570166 119.562288 
L 115.577891 119.628808 
L 115.606216 119.562288 
L 115.701492 119.063388 
L 115.732392 119.163168 
L 115.747842 119.063388 
L 115.948694 117.899287 
L 115.964144 117.866027 
L 116.09032 117.234087 
L 116.10062 117.134307 
L 116.288596 114.007866 
L 116.298896 85.104919 
L 116.319497 14.76 
L 116.404472 108.553225 
L 116.543523 123.220889 
L 116.551249 123.320669 
L 116.7521 125.648869 
L 116.909176 126.31407 
L 116.911752 126.247549 
L 116.922052 126.38059 
L 117.017327 126.38059 
L 117.153804 126.31407 
L 117.272254 126.114509 
L 117.30573 126.014729 
L 117.455081 125.515829 
L 117.465381 125.416049 
L 117.473106 125.449309 
L 117.614732 124.883889 
L 117.617307 124.917149 
L 117.691983 124.518029 
L 117.699708 124.551289 
L 117.712583 124.451509 
L 117.872234 123.786309 
L 117.874809 123.819569 
L 117.94176 123.453709 
L 117.95721 123.453709 
L 117.97266 123.353929 
L 118.134887 122.622209 
L 118.137462 122.655469 
L 118.145187 122.622209 
L 118.271363 122.023528 
L 118.276513 122.056788 
L 118.346038 121.624408 
L 118.351188 121.657668 
L 118.554615 120.460308 
L 118.58294 120.393788 
L 118.714266 119.662068 
L 118.716841 119.695328 
L 118.719416 119.761848 
L 118.796667 119.229688 
L 118.806967 119.262948 
L 118.953743 118.298407 
L 118.956318 118.331667 
L 119.025844 117.832767 
L 119.414672 112.411386 
L 119.445572 16.02388 
L 119.530548 104.096384 
L 119.672174 121.724188 
L 120.037827 125.016929 
L 120.058427 124.950409 
L 120.109928 125.149969 
L 120.145978 125.016929 
L 120.169153 125.083449 
L 120.223229 124.850629 
L 120.241254 124.850629 
L 120.395755 124.218689 
L 120.39833 124.285209 
L 120.485881 123.719789 
L 120.488456 123.753049 
L 120.509056 123.653269 
L 120.704758 122.489168 
L 120.715058 122.555689 
L 120.787158 121.957008 
L 120.792308 121.957008 
L 121.021485 120.427048 
L 121.03436 120.327268 
L 121.284137 118.464707 
L 121.286712 118.497967 
L 121.291862 118.431447 
L 121.451514 117.167567 
L 121.472114 117.067787 
L 121.65494 115.171967 
L 121.662666 115.138707 
L 121.809442 106.158504 
L 121.837767 17.321021 
L 121.920168 101.701663 
L 122.061794 120.094448 
L 122.216295 122.356128 
L 122.375946 123.154369 
L 122.386246 123.121109 
L 122.435172 123.220889 
L 122.499547 123.054589 
L 122.502122 123.154369 
L 122.597398 122.921549 
L 122.605123 122.988069 
L 122.739024 122.389388 
L 122.914126 121.557888 
L 122.939876 121.458108 
L 123.176778 119.795108 
L 123.184503 119.861628 
L 123.238578 119.262948 
L 123.246304 119.296208 
L 123.411105 117.866027 
L 123.41883 117.799507 
L 123.573331 116.003467 
L 123.575906 116.036727 
L 123.627407 115.338267 
L 123.799933 110.316005 
L 123.830833 18.751201 
L 123.915809 99.672802 
L 124.057435 118.797308 
L 124.237687 121.491368 
L 124.255712 121.591148 
L 124.405063 122.189828 
L 124.407638 122.156568 
L 124.515789 122.023528 
L 124.443688 122.256348 
L 124.520939 122.056788 
L 124.567289 121.957008 
L 124.739816 121.158768 
L 124.742391 121.225288 
L 124.824791 120.626608 
L 124.829942 120.626608 
L 124.850542 120.526828 
L 124.855692 120.560088 
L 125.074569 119.063388 
L 125.087444 118.963608 
L 125.445372 115.770647 
L 125.460822 115.670867 
L 125.764674 110.382525 
L 125.774974 101.102983 
L 125.8033 19.749001 
L 125.8857 98.575222 
L 126.027326 117.666467 
L 126.032476 117.766247 
L 126.354354 120.526828 
L 126.477955 120.260748 
L 126.483105 120.294008 
L 126.514005 120.194228 
L 126.691682 119.329468 
L 126.709707 119.229688 
L 127.093385 115.704127 
L 127.103685 115.604347 
L 127.392088 108.486705 
L 127.425563 20.979622 
L 127.507964 97.211562 
L 127.652165 117.067787 
L 127.827266 119.628808 
L 127.832416 119.728588 
L 127.953442 120.127708 
L 127.966317 120.061188 
L 128.082193 119.828368 
L 128.087343 119.861628 
L 128.089918 119.928148 
L 128.169744 119.462508 
L 128.180044 119.462508 
L 128.378321 118.331667 
L 128.398921 118.265147 
L 128.540547 117.067787 
L 129.019501 109.584285 
L 129.029801 101.867963 
L 129.058126 22.043942 
L 129.143102 96.047462 
L 129.287303 115.770647 
L 129.601456 118.863828 
L 129.632356 118.797308 
L 129.776557 118.364927 
L 129.807457 118.265147 
L 130.005734 117.134307 
L 130.016034 117.067787 
L 130.18341 115.571087 
L 130.193711 115.471307 
L 130.628889 108.519965 
L 130.641764 100.504303 
L 130.672664 22.509582 
L 130.755065 94.584021 
L 130.899266 114.972407 
L 131.131018 118.098847 
L 131.185094 118.198627 
L 131.270069 118.265147 
L 131.221144 118.132107 
L 131.29067 118.165367 
L 131.442596 117.566687 
L 131.445171 117.599947 
L 131.450321 117.533427 
L 131.599672 116.502367 
L 131.607397 116.469107 
L 131.746448 115.271747 
L 131.749023 115.305007 
L 131.808249 114.673066 
L 131.810824 114.673066 
L 132.207377 108.154105 
L 132.222827 99.074122 
L 132.253727 23.341082 
L 132.336128 93.120581 
L 132.482904 114.007866 
L 132.670881 117.067787 
L 132.676031 117.001267 
L 132.737831 117.367127 
L 132.755857 117.333867 
L 132.869158 117.533427 
L 132.871733 117.500167 
L 132.884608 117.533427 
L 133.018509 117.034527 
L 133.028809 117.067787 
L 133.080309 116.568887 
L 133.090609 116.568887 
L 133.373862 114.307206 
L 133.376437 114.340466 
L 133.430512 113.708526 
L 133.435662 113.708526 
L 133.775565 107.954545 
L 133.801315 101.435583 
L 133.83479 23.773462 
L 133.914616 90.62608 
L 134.058817 113.375926 
L 134.35752 116.701927 
L 134.416745 116.568887 
L 134.427045 116.469107 
L 134.437345 116.502367 
L 134.573822 116.003467 
L 134.586697 115.903687 
L 134.828749 114.140906 
L 134.831324 114.240686 
L 134.921449 113.575486 
L 134.924024 113.575486 
L 135.333453 106.956744 
L 135.348903 98.774782 
L 135.379803 24.671483 
L 135.462204 89.62828 
L 135.606405 112.311606 
L 135.835582 115.438047 
L 135.838157 115.371527 
L 135.892232 115.571087 
L 135.943733 115.504567 
L 135.961758 115.537827 
L 136.087934 115.072187 
L 136.098234 114.972407 
L 136.105959 115.005667 
L 136.826965 104.695064 
L 136.84499 68.874034 
L 136.868165 25.170383 
L 136.950566 90.29348 
L 137.097342 112.178566 
L 137.099917 112.178566 
L 137.256994 114.606546 
L 137.259569 114.540026 
L 137.347119 115.072187 
L 137.349694 115.038927 
L 137.442395 114.939147 
L 137.504196 115.005667 
L 137.563421 114.673066 
L 137.596896 114.573286 
L 137.962549 111.280546 
L 137.967699 111.313806 
L 138.016625 110.582085 
L 138.297302 101.601883 
L 138.333352 26.101663 
L 138.415753 88.264619 
L 138.562529 111.546626 
L 138.565104 111.513366 
L 138.727331 114.240686 
L 138.747931 114.307206 
L 138.866382 114.639806 
L 138.992558 114.207426 
L 138.995133 114.240686 
L 139.064658 113.708526 
L 139.074958 113.608746 
L 139.432886 110.415785 
L 139.440611 110.316005 
L 139.723864 105.227224 
L 139.762489 100.471043 
L 139.798539 26.334483 
L 139.88094 87.000739 
L 140.030291 111.080985 
L 140.213118 113.941346 
L 140.251743 113.974606 
L 140.303244 114.074386 
L 140.316119 113.841566 
L 140.359894 113.908086 
L 140.372769 113.941346 
L 140.52212 113.209626 
L 140.53242 113.242886 
L 140.589071 112.743986 
L 140.591646 112.743986 
L 140.774472 110.881425 
L 140.782197 110.814905 
L 141.114375 102.100783 
L 141.153001 26.600563 
L 141.237976 86.634879 
L 141.389902 110.648605 
L 141.598479 113.475706 
L 141.608779 113.442446 
L 141.621654 113.542226 
L 141.704055 113.708526 
L 141.634529 113.508966 
L 141.729805 113.542226 
L 141.879157 112.877026 
L 141.884307 112.943546 
L 141.889457 113.010066 
L 141.956407 112.577686 
L 141.961557 112.577686 
L 142.136659 110.914685 
L 142.144384 110.814905 
L 142.569262 103.896824 
L 142.589862 99.573022 
L 142.628488 27.032943 
L 142.710888 85.537299 
L 142.857665 109.617545 
L 142.86024 109.617545 
L 143.022466 112.378126 
L 143.032766 112.411386 
L 143.138342 112.877026 
L 143.151217 112.777246 
L 143.156367 112.810506 
L 143.295418 112.311606 
L 143.297993 112.378126 
L 143.382969 111.746186 
L 144.006124 102.333603 
L 144.021574 92.488641 
L 144.057624 27.897703 
L 144.13745 83.342138 
L 144.289376 108.985605 
L 144.469628 111.812706 
L 144.472203 111.779446 
L 144.598379 112.178566 
L 144.611254 112.145306 
L 144.660179 112.078786 
L 144.801805 111.247286 
L 144.840431 111.147505 
L 145.345135 103.298143 
L 145.36316 81.945218 
L 145.39406 28.596164 
L 145.473886 81.213498 
L 145.630962 107.987805 
L 145.93224 111.380326 
L 145.981165 111.080985 
L 145.99404 111.014465 
L 146.127941 110.116445 
L 146.292743 108.519965 
L 146.297893 108.553225 
L 146.308193 108.486705 
L 146.514195 104.794844 
L 146.581145 100.404523 
L 146.62492 30.192644 
L 146.712471 83.807778 
L 146.864397 107.389125 
L 147.044649 110.116445 
L 147.124475 110.415785 
L 147.1734 110.349265 
L 147.345926 109.517765 
L 147.348501 109.551025 
L 147.418027 109.052125 
L 147.420602 109.085385 
L 147.925306 101.136243 
L 147.951056 97.910022 
L 147.997407 30.192644 
L 148.079807 81.080458 
L 148.236884 106.657404 
L 148.468636 109.783845 
L 148.481511 109.750585 
L 148.553611 109.983405 
L 148.566486 109.916885 
L 148.587087 110.049925 
L 148.661762 109.717325 
L 148.666912 109.717325 
L 148.842014 108.852565 
L 148.844589 108.885825 
L 148.906389 108.253885 
L 148.916689 108.187365 
L 149.109816 106.025464 
L 149.125266 105.958944 
L 149.413668 97.111782 
L 149.457444 30.392204 
L 149.539844 79.550497 
L 149.691771 106.391324 
L 149.926098 109.584285 
L 149.990473 109.717325 
L 150.039398 109.451245 
L 150.059999 109.551025 
L 150.142399 109.185165 
L 150.150124 109.251685 
L 150.217075 108.752785 
L 150.760404 100.304743 
L 150.796455 95.049661 
L 150.842805 30.658284 
L 150.922631 78.585957 
L 151.079707 105.626344 
L 151.247083 108.553225 
L 151.249658 108.519965 
L 151.321759 108.952345 
L 151.324334 108.952345 
L 151.401585 109.052125 
L 151.350084 108.885825 
L 151.432485 108.885825 
L 151.605011 108.087585 
L 151.607586 108.120845 
L 151.671962 107.555425 
L 151.674537 107.588685 
L 152.153491 99.972143 
L 152.181816 91.15824 
L 152.223016 32.088465 
L 152.302842 76.756656 
L 152.462493 105.060924 
L 152.683945 108.054325 
L 152.68652 108.021065 
L 152.797246 108.120845 
L 152.822996 108.154105 
L 152.879647 107.788245 
L 152.884797 107.854765 
L 153.574903 97.510902 
L 153.608378 84.040598 
L 153.649578 32.986485 
L 153.724254 73.696736 
L 153.889055 103.597484 
L 154.125957 106.856964 
L 154.146557 106.956744 
L 154.265008 107.123044 
L 154.267583 107.089784 
L 154.275308 107.189564 
L 154.288183 107.222824 
L 154.347409 106.856964 
L 154.362859 106.890224 
L 154.555986 105.825904 
L 154.571436 105.759384 
L 154.785162 103.098583 
L 154.795463 102.998803 
L 154.983439 99.173902 
L 155.014339 94.584021 
L 155.06584 32.853445 
L 155.14824 73.996076 
L 155.315617 104.063124 
L 155.503593 107.089784 
L 155.506168 107.056524 
L 155.578269 107.522165 
L 155.580844 107.488905 
L 155.619469 107.621945 
L 155.647795 107.389125 
L 155.678695 107.389125 
L 155.810021 106.823704 
L 155.812596 106.890224 
L 155.892422 106.191764 
L 155.894997 106.191764 
L 156.402276 98.209362 
L 156.438326 93.253621 
L 156.489826 33.086265 
L 156.572227 74.162376 
L 156.739604 102.799243 
L 157.087231 106.557624 
L 157.128432 106.391324 
L 157.159332 106.358064 
L 157.293233 105.426784 
L 157.787637 97.710462 
L 157.864888 85.770119 
L 157.913813 34.050805 
L 157.988489 71.701135 
L 158.155865 102.666203 
L 158.390192 105.859164 
L 158.470018 106.025464 
L 158.498343 105.825904 
L 158.521518 105.726124 
L 158.815071 103.298143 
L 158.817646 103.331403 
L 158.822796 103.364663 
L 158.876871 102.699463 
L 158.879446 102.699463 
L 159.041672 100.703863 
L 159.211624 97.078522 
L 159.270849 92.821241 
L 159.33265 35.979886 
L 159.422776 76.390796 
L 159.590152 101.535363 
L 159.788429 104.927884 
L 159.821904 105.027664 
L 159.842504 105.094184 
L 159.868254 104.961144 
L 159.92748 104.961144 
L 159.981555 104.861364 
L 160.208157 103.298143 
L 160.210732 103.331403 
L 160.221032 103.231623 
L 160.671661 96.047462 
L 160.720586 89.12938 
L 160.782387 36.312486 
L 160.862212 70.836375 
L 161.034739 101.003203 
L 161.374642 104.961144 
L 161.441592 104.828104 
L 161.454467 104.728324 
L 161.598668 103.830304 
L 161.601243 103.863564 
L 161.655319 103.298143 
L 161.668194 103.298143 
L 161.683644 103.198363 
L 162.123973 96.113982 
L 162.211523 84.838839 
L 162.268174 36.944426 
L 162.34285 67.909494 
L 162.520526 100.005403 
L 162.523101 99.972143 
L 162.554001 100.969943 
L 162.772878 103.797044 
L 162.775453 103.763784 
L 162.850129 104.029864 
L 162.868154 103.963344 
L 162.875879 103.996604 
L 162.947979 103.630744 
L 162.950555 103.630744 
L 163.094756 102.765983 
L 163.107631 102.699463 
L 163.249257 101.502103 
L 163.264707 101.402323 
L 163.60976 90.22696 
L 163.679285 37.775926 
L 163.766836 71.302015 
L 163.949663 100.071923 
L 164.122189 103.464443 
L 164.124764 103.431183 
L 164.163389 103.530963 
L 164.28699 103.863564 
L 164.297291 103.830304 
L 164.451792 102.699463 
L 164.984821 97.244822 
L 165.020871 97.311342 
L 165.069797 96.646142 
L 165.309274 83.175838 
L 165.376224 39.372407 
L 165.453475 67.676674 
L 165.641452 98.941082 
L 165.850028 102.765983 
L 165.870628 102.732723 
L 165.906679 102.932283 
L 165.953029 102.865763 
L 165.991654 102.765983 
L 166.274907 100.537563 
L 166.285207 100.504303 
L 166.444858 98.575222 
L 166.586484 95.315741 
L 166.66631 85.836639 
L 166.738411 39.638487 
L 166.813086 64.483713 
L 167.003638 98.309142 
L 167.26629 102.200563 
L 167.405341 102.067523 
L 167.544392 101.635143 
L 167.546967 101.668403 
L 167.559842 101.568623 
L 168.219048 91.62388 
L 168.283423 80.581557 
L 168.350374 41.002147 
L 168.427624 65.514773 
L 168.618176 97.045262 
L 168.790702 100.338003 
L 168.798428 100.371263 
L 168.929754 101.202763 
L 168.940054 101.302543 
L 169.06623 100.870163 
L 169.068805 100.936683 
L 169.14863 100.238223 
L 169.151205 100.271483 
L 169.653335 92.388861 
L 169.812986 81.911958 
L 169.910837 45.192908 
L 169.990662 65.182173 
L 170.199239 95.847901 
L 170.505667 100.936683 
L 170.518542 100.969943 
L 170.644718 100.537563 
L 170.647293 100.570823 
L 170.711668 99.972143 
L 170.714243 100.005403 
L 170.992346 97.843502 
L 171.000071 97.776982 
L 171.170022 96.247022 
L 171.177747 96.147242 
L 171.386324 92.023 
L 171.545975 81.679138 
L 171.643826 44.993348 
L 171.726227 65.548033 
L 171.934803 95.116181 
L 172.120205 99.240422 
L 172.12278 99.173902 
L 172.297881 100.071923 
L 172.300456 100.038663 
L 172.326206 99.972143 
L 172.439507 99.772582 
L 172.462683 99.872363 
L 172.542508 99.573022 
L 172.545083 99.573022 
L 173.611142 84.406458 
L 173.788818 80.914158 
L 173.791394 80.980678 
L 173.863494 80.282217 
L 173.871219 80.282217 
L 174.02572 78.452917 
L 174.046321 78.552697 
L 174.303823 84.240158 
L 174.581925 88.56396 
L 174.58965 88.66374 
L 174.821402 90.36 
L 174.826552 90.32674 
L 174.842002 90.1937 
L 174.906378 90.62608 
L 174.916678 90.55956 
L 175.009379 90.62608 
L 174.957878 90.39326 
L 175.027404 90.55956 
L 175.256581 89.0296 
L 175.287481 89.09612 
L 175.302931 89.16264 
L 175.367306 88.397659 
L 175.372456 88.430919 
L 175.508933 87.333339 
L 175.511508 87.366599 
L 175.593908 87.033999 
L 175.596483 87.067259 
L 175.673734 86.335539 
L 175.740685 86.634879 
L 175.74841 86.568359 
L 175.78961 86.235759 
L 175.75356 86.601619 
L 175.864286 86.368799 
L 175.866861 86.402059 
L 175.954411 86.102719 
L 176.013637 86.002939 
L 176.165563 84.905359 
L 176.183588 84.872099 
L 176.325214 83.209098 
L 176.559541 80.415257 
L 176.623917 80.747857 
L 176.97412 83.974078 
L 176.97927 83.940818 
L 176.98442 83.874298 
L 177.048795 84.373198 
L 177.167246 85.104919 
L 177.174971 85.005139 
L 177.200721 85.104919 
L 177.360373 86.169239 
L 177.383548 86.036199 
L 177.386123 85.936419 
L 177.458224 86.468579 
L 177.483974 86.402059 
L 177.5947 85.969679 
L 177.504574 86.435319 
L 177.612725 86.169239 
L 177.6153 86.169239 
L 177.705426 86.535099 
L 177.728601 86.402059 
L 177.774951 86.302279 
L 177.777526 86.235759 
L 177.841902 86.601619 
L 177.872802 86.568359 
L 177.926877 86.834439 
L 177.970653 86.468579 
L 177.978378 86.535099 
L 178.145754 85.803379 
L 178.163779 85.703599 
L 178.300256 85.071659 
L 178.318281 85.104919 
L 178.331156 85.171439 
L 178.392956 84.672538 
L 178.395531 84.672538 
L 178.544883 83.674738 
L 178.689084 83.142578 
L 178.812685 83.641478 
L 178.88221 83.242358 
L 178.941436 83.375398 
L 179.023836 83.641478 
L 178.998086 83.308878 
L 179.054737 83.408658 
L 179.072762 83.508438 
L 179.075337 83.574958 
L 179.157738 82.976278 
L 179.180913 82.743458 
L 179.245288 83.142578 
L 179.263313 83.109318 
L 179.381764 83.209098 
L 179.47189 83.475178 
L 179.500215 83.342138 
L 179.505365 83.308878 
L 179.582616 83.541698 
L 179.600641 83.475178 
L 179.616091 83.408658 
L 179.703642 82.876498 
L 179.628966 83.475178 
L 179.739692 83.009538 
L 179.742267 83.042798 
L 179.816943 82.577158 
L 179.876168 82.344338 
L 179.935394 82.410858 
L 180.043545 82.876498 
L 180.058995 82.743458 
L 180.138821 82.577158 
L 180.167146 82.743458 
L 180.169721 82.776718 
L 180.246972 82.410858 
L 180.249547 82.410858 
L 180.275297 82.344338 
L 180.342247 82.743458 
L 180.344822 82.743458 
L 180.349972 82.809978 
L 180.434948 82.477378 
L 180.447823 82.444118 
L 180.522499 82.710198 
L 180.527649 82.676938 
L 180.568849 82.943018 
L 180.610049 82.577158 
L 180.633225 82.643678 
L 180.65125 82.610418 
L 180.710475 82.909758 
L 180.7182 82.909758 
L 180.844376 83.674738 
L 180.854676 83.608218 
L 180.864977 83.541698 
L 180.952527 83.940818 
L 180.967977 83.907558 
L 181.070978 83.674738 
L 181.019478 83.974078 
L 181.081278 83.741258 
L 181.243505 84.472978 
L 181.101879 83.707998 
L 181.24608 84.439718 
L 181.26153 84.539498 
L 181.408306 85.038399 
L 181.449506 84.971879 
L 181.493282 85.271219 
L 181.495857 85.271219 
L 181.557657 85.637079 
L 181.611733 85.437519 
L 181.681258 85.171439 
L 181.712159 85.470779 
L 181.719884 85.437519 
L 181.791984 85.504039 
L 181.820309 85.337739 
L 181.83061 85.437519 
L 181.93876 85.171439 
L 181.94906 85.204699 
L 181.956786 85.138179 
L 182.111287 84.007338 
L 182.119012 83.907558 
L 182.312138 82.809978 
L 182.335314 83.042798 
L 182.404839 82.510638 
L 182.409989 82.510638 
L 182.700967 80.049397 
L 182.706117 80.115917 
L 182.729292 80.182437 
L 182.770492 80.515037 
L 182.840018 80.248957 
L 182.852893 80.182437 
L 182.906968 80.515037 
L 182.943019 80.381997 
L 182.989369 80.448517 
L 183.025419 80.049397 
L 183.027994 80.082657 
L 183.038294 80.016137 
L 183.11812 80.348737 
L 183.13357 80.215697 
L 183.187646 80.515037 
L 183.262321 80.448517 
L 183.285496 80.548297 
L 183.303522 80.448517 
L 183.439998 81.113718 
L 183.463173 81.047198 
L 183.561024 80.980678 
L 183.524973 81.246758 
L 183.571324 81.047198 
L 183.645999 81.146978 
L 183.664025 80.880897 
L 183.67175 80.914158 
L 183.6975 80.847637 
L 183.772175 80.381997 
L 183.810801 80.714597 
L 183.846851 80.947418 
L 183.924102 80.781117 
L 183.934402 80.880897 
L 184.225379 83.242358 
L 184.233104 83.175838 
L 184.305205 83.475178 
L 184.320655 83.408658 
L 184.395331 83.608218 
L 184.421081 83.375398 
L 184.428806 83.375398 
L 184.516357 83.475178 
L 184.591032 83.841038 
L 184.639958 83.641478 
L 184.768709 83.209098 
L 184.657983 83.707998 
L 184.779009 83.242358 
L 184.781584 83.275618 
L 184.861409 82.976278 
L 184.879435 83.109318 
L 184.93351 83.275618 
L 184.99531 82.976278 
L 185.008186 82.909758 
L 185.046811 82.444118 
L 185.131787 82.577158 
L 185.142087 82.543898 
L 185.183287 83.076058 
L 185.206462 82.976278 
L 185.239938 83.242358 
L 185.319763 83.109318 
L 185.440789 83.009538 
L 185.445939 82.943018 
L 185.494865 83.242358 
L 185.536065 83.209098 
L 185.685416 83.874298 
L 185.693141 83.807778 
L 185.801292 83.508438 
L 185.752367 83.874298 
L 185.816742 83.641478 
L 185.906868 83.974078 
L 185.930043 83.674738 
L 185.958368 83.574958 
L 185.984119 83.707998 
L 186.081969 83.142578 
L 186.084544 83.209098 
L 186.146345 82.843238 
L 186.18497 82.943018 
L 186.192695 82.843238 
L 186.226171 82.510638 
L 186.308571 82.776718 
L 186.408997 83.275618 
L 186.445047 83.109318 
L 186.468223 83.042798 
L 186.604699 81.878698 
L 186.607274 81.911958 
L 186.772075 81.213498 
L 186.79525 81.146978 
L 186.944601 80.149177 
L 186.996102 80.182437 
L 187.117128 81.146978 
L 187.127428 81.013938 
L 187.150603 81.113718 
L 187.207254 81.612618 
L 187.297379 81.579358 
L 187.305104 81.512838 
L 187.307679 81.446318 
L 187.39523 81.945218 
L 187.40038 81.911958 
L 187.413255 81.978478 
L 187.523981 81.745658 
L 187.562607 81.911958 
L 187.608957 81.446318 
L 187.750583 80.980678 
L 187.619257 81.479578 
L 187.753158 81.013938 
L 187.840709 81.379798 
L 187.887059 81.346538 
L 187.95916 81.479578 
L 188.00551 81.213498 
L 188.023535 81.047198 
L 188.129111 81.413058 
L 188.131686 81.379798 
L 188.190912 81.712398 
L 188.219237 81.612618 
L 188.260437 81.911958 
L 188.332538 81.712398 
L 188.350563 81.812178 
L 188.489614 82.244558 
L 188.507639 82.111518 
L 188.56944 82.444118 
L 188.592615 82.444118 
L 188.711066 82.976278 
L 188.713641 82.909758 
L 188.721366 83.009538 
L 188.765141 83.342138 
L 188.832092 83.009538 
L 188.929943 82.410858 
L 188.973718 82.610418 
L 188.996893 82.543898 
L 189.141095 81.679138 
L 189.23637 81.213498 
L 189.274996 81.313278 
L 189.321346 81.579358 
L 189.385722 81.313278 
L 189.529923 80.781117 
L 189.532498 80.814377 
L 189.542798 80.880897 
L 189.604598 80.448517 
L 189.622623 80.548297 
L 189.692149 80.448517 
L 189.84665 79.816577 
L 189.859525 79.716797 
L 189.965101 80.115917 
L 190.057802 80.182437 
L 190.189128 81.113718 
L 190.202003 81.080458 
L 190.302429 80.747857 
L 190.320454 80.880897 
L 190.37968 80.781117 
L 190.518731 80.049397 
L 190.521306 80.082657 
L 190.580531 79.417457 
L 190.776233 78.319877 
L 190.832883 78.419657 
L 190.866359 81.679138 
L 191.018285 107.089784 
L 191.268062 119.728588 
L 191.517839 125.149969 
L 191.522989 125.249749 
L 192.017393 130.205491 
L 192.035418 130.305271 
L 192.218245 131.236551 
L 192.22597 131.170031 
L 192.30322 131.535891 
L 192.316096 131.535891 
L 192.331546 131.502631 
L 192.452572 131.868491 
L 192.473172 131.835231 
L 192.545272 132.101311 
L 192.594198 132.201091 
L 192.612223 132.167831 
L 192.720374 132.433911 
L 192.722949 132.334131 
L 192.797625 132.500431 
L 192.828525 132.433911 
L 192.913501 132.600211 
L 192.944401 132.500431 
L 193.078302 132.566951 
L 193.186453 132.666731 
L 193.189028 132.600211 
L 193.286879 132.666731 
L 193.289454 132.733251 
L 193.322929 132.600211 
L 193.395029 132.633471 
L 193.45168 132.699991 
L 193.544381 132.799771 
L 193.464555 132.666731 
L 193.564981 132.766511 
L 193.624206 132.733251 
L 193.626781 132.633471 
L 193.634506 132.799771 
L 193.732357 132.699991 
L 193.778708 132.799771 
L 193.835358 132.666731 
L 193.845658 132.766511 
L 193.848233 132.799771 
L 193.876558 132.666731 
L 193.943509 132.666731 
L 193.946084 132.600211 
L 193.958959 132.733251 
L 194.05166 132.633471 
L 194.144361 132.733251 
L 194.136636 132.566951 
L 194.162386 132.666731 
L 194.242211 132.566951 
L 194.247361 132.533691 
L 194.316887 132.733251 
L 194.342637 132.666731 
L 194.347787 132.733251 
L 194.394138 132.566951 
L 194.448213 132.600211 
L 194.522889 132.566951 
L 194.63619 132.400651 
L 194.64649 132.533691 
L 194.669665 132.334131 
L 194.746916 132.400651 
L 194.806141 132.433911 
L 194.780391 132.334131 
L 194.852491 132.367391 
L 194.952917 132.267611 
L 194.862792 132.433911 
L 194.965792 132.334131 
L 195.29282 132.234351 
L 195.346895 132.201091 
L 195.31857 132.334131 
L 195.398396 132.300871 
L 195.524572 132.367391 
L 195.529722 132.433911 
L 195.568347 132.300871 
L 195.635298 132.400651 
L 195.676498 132.300871 
L 195.686798 132.433911 
L 195.746024 132.367391 
L 195.895375 132.267611 
L 195.988076 132.167831 
L 195.900525 132.300871 
L 196.008676 132.201091 
L 196.026701 132.267611 
L 196.106527 132.101311 
L 196.114252 132.134571 
L 196.304803 132.034791 
L 196.307378 132.001531 
L 196.338279 132.167831 
L 196.410379 132.101311 
L 196.616381 132.034791 
L 196.693632 131.968271 
L 196.714232 132.101311 
L 196.727107 132.001531 
L 196.804357 132.068051 
L 196.768307 131.935011 
L 196.840408 132.034791 
L 196.873883 132.068051 
L 196.953709 131.968271 
L 197.048984 132.068051 
L 197.059285 131.935011 
L 197.06701 132.001531 
L 198.488421 131.935011 
L 198.490996 131.835231 
L 198.516747 132.001531 
L 198.599147 131.935011 
L 198.874674 131.901751 
L 198.9854 131.768711 
L 198.987975 131.801971 
L 199.093551 131.935011 
L 199.003426 131.768711 
L 199.106426 131.901751 
L 199.124451 131.835231 
L 199.178527 131.968271 
L 199.217152 131.901751 
L 199.312428 132.034791 
L 199.327878 131.935011 
L 199.407704 131.901751 
L 199.353628 132.034791 
L 199.433454 132.001531 
L 199.721856 131.901751 
L 199.729581 131.868491 
L 199.763057 132.034791 
L 199.827432 131.968271 
L 199.971633 131.868491 
L 200.007684 131.835231 
L 200.012834 131.935011 
L 200.077209 131.935011 
L 200.888341 131.835231 
L 200.890916 131.801971 
L 200.960442 131.968271 
L 200.993917 131.835231 
L 201.009367 131.935011 
L 201.042842 131.735451 
L 201.104643 131.868491 
L 201.92865 131.768711 
L 201.951825 131.702191 
L 202.02135 131.835231 
L 202.0368 131.768711 
L 202.101176 131.835231 
L 202.119201 131.702191 
L 202.142376 131.702191 
L 202.379278 131.602411 
L 202.446229 131.535891 
L 202.405028 131.668931 
L 202.487429 131.635671 
L 202.63678 131.535891 
L 202.696006 131.469371 
L 202.64193 131.569151 
L 202.747506 131.535891 
L 203.14921 131.436111 
L 203.239335 131.303071 
L 203.15951 131.469371 
L 203.26251 131.336331 
L 203.362936 131.469371 
L 203.375811 131.402851 
L 203.481387 131.303071 
L 203.388687 131.436111 
L 203.489112 131.369591 
L 203.556063 131.269811 
L 203.558638 131.236551 
L 203.586963 131.402851 
L 203.659064 131.336331 
L 203.762065 131.436111 
L 203.689964 131.303071 
L 203.76979 131.336331 
L 203.84189 131.436111 
L 203.957766 131.569151 
L 203.960341 131.535891 
L 204.024717 131.502631 
L 204.047892 131.635671 
L 204.068492 131.569151 
L 204.078792 131.668931 
L 204.117417 131.535891 
L 204.176643 131.569151 
L 204.233293 131.502631 
L 204.256469 131.668931 
L 204.287369 131.569151 
L 204.513971 131.635671 
L 204.606672 131.735451 
L 204.555171 131.569151 
L 204.624697 131.702191 
L 204.714822 131.635671 
L 204.719972 131.768711 
L 204.732848 131.735451 
L 205.242702 131.801971 
L 205.312227 131.901751 
L 205.322527 131.768711 
L 205.353428 131.801971 
L 205.466729 132.001531 
L 205.412653 131.768711 
L 205.477029 131.968271 
L 205.507929 132.001531 
L 205.59548 131.868491 
L 205.65213 131.968271 
L 205.618655 131.835231 
L 205.708781 131.901751 
L 205.731956 131.801971 
L 205.760281 131.968271 
L 205.814356 131.935011 
L 205.899332 131.968271 
L 205.907057 131.835231 
L 205.922507 131.935011 
L 205.935382 131.868491 
L 205.968858 132.068051 
L 206.030658 131.935011 
L 206.141384 132.101311 
L 206.035808 131.901751 
L 206.146534 132.068051 
L 206.25211 132.134571 
L 206.23666 131.968271 
L 206.25726 132.068051 
L 206.316486 132.034791 
L 206.321636 132.134571 
L 206.362836 132.134571 
L 206.465837 132.167831 
L 206.434937 132.068051 
L 206.468412 132.101311 
L 206.507037 132.034791 
L 206.563688 132.167831 
L 206.576563 132.101311 
L 206.640938 132.201091 
L 206.676989 132.034791 
L 206.689864 132.134571 
L 206.731064 131.968271 
L 206.777414 132.167831 
L 206.80059 132.101311 
L 206.87269 132.068051 
L 206.91389 132.201091 
L 206.949941 132.134571 
L 206.985991 132.300871 
L 207.022041 132.201091 
L 207.137917 132.533691 
L 207.140492 132.500431 
L 207.253793 132.666731 
L 207.153367 132.467171 
L 207.261518 132.633471 
L 207.377394 132.566951 
L 207.48297 132.666731 
L 207.552496 132.733251 
L 207.49327 132.633471 
L 207.593696 132.666731 
L 207.776523 132.766511 
L 207.892398 132.932811 
L 207.897549 132.899551 
L 207.907849 132.833031 
L 207.979949 133.032591 
L 208.005699 132.932811 
L 208.013424 132.899551 
L 208.116425 132.999331 
L 208.219426 132.932811 
L 208.13445 133.065851 
L 208.227151 132.966071 
L 208.255476 133.065851 
L 208.294102 132.899551 
L 208.337877 132.966071 
L 208.518129 132.866291 
L 208.603104 132.766511 
L 208.523279 132.899551 
L 208.628855 132.833031 
L 208.649455 132.866291 
L 208.70868 132.699991 
L 208.73443 132.766511 
L 209.092358 132.699991 
L 209.169609 132.600211 
L 209.200509 132.766511 
L 209.203084 132.699991 
L 209.311235 132.733251 
L 209.249435 132.633471 
L 209.31381 132.699991 
L 209.424536 132.633471 
L 209.32926 132.733251 
L 209.427111 132.666731 
L 209.530112 132.633471 
L 209.548137 132.699991 
L 209.643413 132.533691 
L 209.697488 132.500431 
L 209.756714 132.633471 
L 209.86744 132.533691 
L 209.870015 132.566951 
L 209.87259 132.633471 
L 209.91379 132.467171 
L 209.975591 132.467171 
L 210.104342 132.367391 
L 210.212493 132.267611 
L 210.112067 132.400651 
L 210.220218 132.300871 
L 210.233093 132.400651 
L 210.245968 132.267611 
L 210.330944 132.334131 
L 210.421069 132.201091 
L 210.446819 132.267611 
L 210.55497 132.334131 
L 210.46742 132.201091 
L 210.557545 132.267611 
L 211.391852 132.367391 
L 211.474253 132.400651 
L 211.458803 132.300871 
L 211.500003 132.334131 
L 211.579829 132.234351 
L 211.507728 132.400651 
L 211.610729 132.300871 
L 211.633904 132.267611 
L 211.72918 132.433911 
L 211.742055 132.334131 
L 211.78583 132.500431 
L 211.834756 132.433911 
L 211.837331 132.500431 
L 211.878531 132.334131 
L 211.942907 132.433911 
L 211.958357 132.367391 
L 212.035607 132.533691 
L 212.045908 132.533691 
L 212.558337 132.467171 
L 212.663913 132.267611 
L 212.674213 132.300871 
L 212.805539 132.201091 
L 212.846739 132.300871 
L 212.91884 132.167831 
L 213.026991 132.300871 
L 212.93429 132.101311 
L 213.032141 132.267611 
L 213.073341 132.167831 
L 213.114541 132.334131 
L 213.142867 132.234351 
L 213.189217 132.334131 
L 213.271618 132.367391 
L 213.207242 132.267611 
L 213.297368 132.300871 
L 213.552295 132.367391 
L 213.637271 132.500431 
L 213.567745 132.334131 
L 213.665596 132.467171 
L 213.758297 132.400651 
L 213.704221 132.533691 
L 213.771172 132.533691 
L 214.064724 132.633471 
L 214.167725 132.666731 
L 214.126525 132.533691 
L 214.17545 132.633471 
L 214.291326 132.500431 
L 214.363427 132.600211 
L 214.311926 132.467171 
L 214.402052 132.533691 
L 214.520503 132.433911 
L 214.595179 132.367391 
L 214.538528 132.500431 
L 214.631229 132.400651 
L 214.747105 132.533691 
L 214.74968 132.500431 
L 215.032932 132.433911 
L 215.135933 132.334131 
L 215.133358 132.467171 
L 215.143658 132.400651 
L 215.200308 132.467171 
L 215.148808 132.367391 
L 215.249234 132.400651 
L 215.300734 132.334131 
L 215.264684 132.467171 
L 215.357385 132.433911 
L 215.643212 132.367391 
L 215.658662 132.300871 
L 215.686987 132.433911 
L 215.751363 132.400651 
L 215.764238 132.467171 
L 215.756513 132.367391 
L 215.862089 132.400651 
L 215.929039 132.267611 
L 215.880114 132.433911 
L 215.97539 132.367391 
L 216.583095 132.300871 
L 216.59082 132.201091 
L 216.61657 132.367391 
L 216.696396 132.234351 
L 216.737596 132.334131 
L 216.786522 132.167831 
L 216.807122 132.234351 
L 216.982223 132.134571 
L 217.041449 132.201091 
L 217.092949 132.101311 
L 217.19595 132.234351 
L 217.105824 132.068051 
L 217.208825 132.201091 
L 217.288651 132.134571 
L 217.239725 132.267611 
L 217.316976 132.234351 
L 217.329851 132.267611 
L 217.358176 132.134571 
L 217.425127 132.234351 
L 217.543578 132.134571 
L 217.641429 132.201091 
L 217.607953 132.068051 
L 217.651729 132.101311 
L 218.094632 132.201091 
L 218.184758 132.234351 
L 218.107507 132.134571 
L 218.200208 132.134571 
L 218.455135 132.201091 
L 218.45771 132.267611 
L 218.511786 132.101311 
L 218.563286 132.134571 
L 218.576161 132.234351 
L 218.604486 132.068051 
L 218.671437 132.134571 
L 218.740963 132.068051 
L 218.681737 132.167831 
L 218.782163 132.134571 
L 219.04739 132.101311 
L 219.06799 132.001531 
L 219.109191 132.134571 
L 219.155541 132.134571 
L 219.217341 132.034791 
L 219.255967 131.968271 
L 219.232792 132.101311 
L 219.325492 132.068051 
L 219.356393 132.134571 
L 219.392443 132.001531 
L 219.436218 132.068051 
L 219.516044 131.968271 
L 219.503169 132.101311 
L 219.552094 132.001531 
L 219.59072 132.101311 
L 219.585569 131.968271 
L 219.660245 132.001531 
L 219.665395 131.935011 
L 219.711746 132.068051 
L 219.770971 132.001531 
L 219.984698 132.101311 
L 220.077399 132.167831 
L 219.997573 132.034791 
L 220.095424 132.101311 
L 220.203575 132.001531 
L 220.162374 132.134571 
L 220.208725 132.034791 
L 220.291125 132.101311 
L 220.224175 132.001531 
L 220.316875 132.034791 
L 220.322026 131.968271 
L 220.360651 132.167831 
L 220.419876 132.101311 
L 220.422451 132.167831 
L 220.445627 132.034791 
L 220.530602 132.134571 
L 220.574378 132.034791 
L 220.569228 132.167831 
L 220.646478 132.068051 
L 220.664503 132.034791 
L 220.764929 132.167831 
L 220.85763 132.068051 
L 220.819005 132.201091 
L 220.880805 132.101311 
L 221.205258 132.167831 
L 221.207833 132.234351 
L 221.259333 132.068051 
L 221.315984 132.167831 
L 221.323709 132.068051 
L 221.42671 132.134571 
L 221.851588 132.234351 
L 221.946864 132.267611 
L 221.944289 132.167831 
L 221.959739 132.234351 
L 222.05759 132.034791 
L 222.07819 132.134571 
L 222.080765 132.201091 
L 222.181191 132.034791 
L 222.186341 132.167831 
L 222.294492 132.034791 
L 222.299642 132.101311 
L 222.402643 132.001531 
L 222.345992 132.167831 
L 222.410368 132.101311 
L 222.68847 132.167831 
L 222.691045 132.234351 
L 222.71422 132.101311 
L 222.796621 132.134571 
L 222.902197 131.968271 
L 222.801771 132.167831 
L 222.907347 132.034791 
L 223.005198 132.068051 
L 223.010348 131.935011 
L 223.115923 131.835231 
L 223.118498 131.801971 
L 223.128799 131.968271 
L 223.224074 131.868491 
L 223.623203 131.768711 
L 223.628353 131.835231 
L 223.739079 131.702191 
L 223.88843 131.602411 
L 223.891005 131.569151 
L 223.921905 131.735451 
L 223.996581 131.635671 
L 224.212882 131.535891 
L 224.248933 131.635671 
L 224.323608 131.469371 
L 224.364809 131.635671 
L 224.431759 131.502631 
L 224.516735 131.402851 
L 224.54506 131.436111 
L 224.604286 131.336331 
L 224.696986 131.269811 
L 224.637761 131.402851 
L 224.715012 131.336331 
L 224.810287 131.402851 
L 224.787112 131.269811 
L 224.825738 131.336331 
L 224.846338 131.236551 
L 224.856638 131.369591 
L 224.936463 131.336331 
L 225.425717 131.269811 
L 225.466918 131.136771 
L 225.539018 131.203291 
L 225.585369 131.269811 
L 225.626569 131.136771 
L 225.647169 131.203291 
L 225.685795 131.070251 
L 225.76047 131.170031 
L 225.842871 131.170031 
L 225.943297 131.303071 
L 225.848021 131.136771 
L 225.953597 131.236551 
L 226.072048 131.402851 
L 226.126123 131.303071 
L 226.090073 131.436111 
L 226.185349 131.336331 
L 227.081456 131.269811 
L 227.114931 131.336331 
L 227.192182 131.203291 
L 227.220507 131.369591 
L 227.302908 131.236551 
L 227.632511 131.303071 
L 227.709761 131.436111 
L 227.637661 131.269811 
L 227.740661 131.303071 
L 227.748387 131.402851 
L 227.853962 131.269811 
L 227.915763 131.336331 
L 227.987863 131.402851 
L 227.972413 131.269811 
L 228.023914 131.336331 
L 228.083139 131.402851 
L 228.13464 131.269811 
L 228.173265 131.336331 
L 228.229915 131.203291 
L 228.242791 131.303071 
L 228.356091 131.136771 
L 228.358667 131.170031 
L 228.379267 131.269811 
L 228.471967 131.136771 
L 228.502868 131.103511 
L 228.590418 131.303071 
L 228.631619 131.136771 
L 228.703719 131.170031 
L 228.81187 131.303071 
L 228.721744 131.136771 
L 228.81702 131.203291 
L 229.015297 131.136771 
L 229.017872 131.070251 
L 229.066797 131.203291 
L 229.126023 131.136771 
L 229.308849 131.103511 
L 229.404125 131.003731 
L 229.324299 131.136771 
L 229.419575 131.103511 
L 229.527726 131.203291 
L 229.424725 131.036991 
L 229.532876 131.170031 
L 229.638452 131.136771 
L 229.589527 131.236551 
L 229.641027 131.203291 
L 229.746603 131.269811 
L 229.671927 131.136771 
L 229.751753 131.236551 
L 229.772353 131.170031 
L 229.803253 131.303071 
L 229.865054 131.203291 
L 229.957755 131.336331 
L 229.978355 131.269811 
L 230.073631 131.236551 
L 229.99638 131.336331 
L 230.086506 131.269811 
L 230.166331 131.436111 
L 230.199807 131.336331 
L 230.253882 131.269811 
L 230.207532 131.369591 
L 230.310533 131.303071 
L 230.416108 131.402851 
L 230.423833 131.336331 
L 230.516534 131.402851 
L 230.619535 131.469371 
L 230.534559 131.369591 
L 230.624685 131.402851 
L 230.704511 131.303071 
L 230.650435 131.469371 
L 230.735411 131.369591 
L 230.789486 131.469371 
L 230.810087 131.336331 
L 230.848712 131.436111 
L 231.008363 131.402851 
L 231.108789 131.303071 
L 231.044414 131.436111 
L 231.119089 131.402851 
L 231.209215 131.269811 
L 231.234965 131.336331 
L 231.466717 131.236551 
L 231.577443 131.136771 
L 231.657269 131.269811 
L 231.688169 131.170031 
L 232.146523 131.269811 
L 232.254673 131.303071 
L 232.218623 131.170031 
L 232.257249 131.269811 
L 232.713027 131.369591 
L 232.772253 131.436111 
L 232.738777 131.303071 
L 232.821178 131.369591 
L 232.885554 131.336331 
L 232.919029 131.502631 
L 232.929329 131.402851 
L 233.03748 131.502631 
L 233.040055 131.469371 
L 233.076105 131.436111 
L 233.114731 131.569151 
L 233.148206 131.502631 
L 234.077788 131.569151 
L 234.113839 131.668931 
L 234.088089 131.502631 
L 234.188514 131.602411 
L 234.24774 131.702191 
L 234.276065 131.801971 
L 234.255465 131.668931 
L 234.358466 131.735451 
L 234.422841 131.668931 
L 234.415116 131.768711 
L 234.469192 131.735451 
L 234.487217 131.835231 
L 234.520692 131.668931 
L 234.574768 131.668931 
L 234.644293 131.768711 
L 234.752444 131.801971 
L 234.649443 131.702191 
L 234.755019 131.768711 
L 235.548126 131.868491 
L 235.612501 132.001531 
L 235.661426 131.935011 
L 235.761852 131.901751 
L 235.733527 132.034791 
L 235.772152 131.935011 
L 235.890603 132.034791 
L 235.908628 131.968271 
L 236.001329 132.068051 
L 236.10948 131.968271 
L 236.11463 132.001531 
L 236.14553 131.968271 
L 236.227931 132.101311 
L 236.323207 132.034791 
L 236.269131 132.167831 
L 236.336082 132.134571 
L 236.508608 132.068051 
L 236.619334 131.968271 
L 236.554959 132.134571 
L 236.621909 132.001531 
L 236.70946 131.935011 
L 236.634784 132.068051 
L 236.73006 132.034791 
L 236.786711 131.968271 
L 236.900012 131.835231 
L 236.938637 131.901751 
L 236.969537 131.768711 
L 237.008163 131.835231 
L 237.118888 131.768711 
L 237.051938 131.868491 
L 237.121463 131.801971 
L 237.31974 131.702191 
L 237.425316 131.635671 
L 237.348065 131.768711 
L 237.433041 131.668931 
L 237.489691 131.569151 
L 237.548917 131.735451 
L 237.659643 131.569151 
L 237.664793 131.602411 
L 237.754919 131.535891 
L 237.677668 131.635671 
L 237.775519 131.602411 
L 237.855344 131.569151 
L 237.87852 131.469371 
L 237.90427 131.668931 
L 237.96607 131.569151 
L 238.087096 131.702191 
L 238.154047 131.569151 
L 238.200397 131.668931 
L 238.908528 131.768711 
L 238.929128 131.801971 
L 238.939428 131.702191 
L 239.016679 131.768711 
L 239.10938 131.635671 
L 239.021829 131.801971 
L 239.12998 131.702191 
L 239.17118 131.768711 
L 239.199506 131.635671 
L 239.235556 131.668931 
L 239.330832 131.602411 
L 239.240706 131.702191 
L 239.348857 131.635671 
L 239.953987 131.535891 
L 240.056988 131.402851 
L 239.966862 131.569151 
L 240.069863 131.436111 
L 240.157413 131.535891 
L 240.162563 131.402851 
L 240.183164 131.469371 
L 240.685293 131.569151 
L 240.747093 131.635671 
L 240.736793 131.502631 
L 240.793444 131.535891 
L 240.911895 131.469371 
L 241.009745 131.402851 
L 240.932495 131.502631 
L 241.02262 131.469371 
L 241.174547 131.369591 
L 241.228622 131.336331 
L 241.236347 131.436111 
L 241.282698 131.402851 
L 241.347073 131.469371 
L 241.370248 131.303071 
L 241.385698 131.303071 
L 241.414024 131.336331 
L 241.478399 131.436111 
L 241.517025 131.269811 
L 241.52475 131.336331 
L 241.874952 131.236551 
L 241.877528 131.203291 
L 241.926453 131.336331 
L 241.980528 131.303071 
L 242.088679 131.402851 
L 241.998553 131.269811 
L 242.096404 131.369591 
L 242.147905 131.336331 
L 242.119579 131.436111 
L 242.20198 131.402851 
L 242.248331 131.336331 
L 242.317856 131.502631 
L 242.356481 131.436111 
L 242.348756 131.569151 
L 242.423432 131.569151 
L 242.433732 131.535891 
L 242.541883 131.702191 
L 242.626859 131.535891 
L 242.657759 131.602411 
L 242.670634 131.702191 
L 242.73501 131.502631 
L 242.763335 131.569151 
L 242.77106 131.502631 
L 242.80711 131.602411 
L 242.871486 131.602411 
L 242.933286 131.635671 
L 242.886936 131.535891 
L 242.982212 131.602411 
L 243.41224 131.569151 
L 243.512666 131.436111 
L 243.522966 131.535891 
L 243.574466 131.369591 
L 243.643992 131.402851 
L 243.736693 131.469371 
L 243.685192 131.369591 
L 243.754718 131.436111 
L 243.831969 131.369591 
L 243.762443 131.469371 
L 243.868019 131.402851 
L 243.932394 131.502631 
L 243.978745 131.436111 
L 244.019945 131.502631 
L 244.04827 131.469371 
L 244.133246 131.602411 
L 244.261997 131.336331 
L 244.274872 131.402851 
L 244.346973 131.170031 
L 244.367573 131.203291 
L 244.419073 131.269811 
L 244.467999 131.070251 
L 244.470574 131.103511 
L 244.475724 131.136771 
L 244.5813 131.036991 
L 244.6122 131.003731 
L 244.702326 131.303071 
L 244.751251 131.203291 
L 244.784726 131.336331 
L 244.813052 131.303071 
L 244.882577 131.336331 
L 244.990728 131.436111 
L 244.993303 131.402851 
L 245.124629 131.469371 
L 245.129779 131.402851 
L 245.235355 131.569151 
L 245.289431 131.502631 
L 245.26883 131.602411 
L 245.346081 131.569151 
L 245.407881 131.535891 
L 245.369256 131.635671 
L 245.454232 131.569151 
L 245.467107 131.635671 
L 245.536633 131.469371 
L 245.564958 131.569151 
L 245.616458 131.535891 
L 245.644783 131.702191 
L 245.673109 131.602411 
L 245.714309 131.668931 
L 245.814735 131.801971 
L 245.82761 131.768711 
L 246.092837 131.868491 
L 246.097987 131.901751 
L 246.136612 131.735451 
L 246.198413 131.801971 
L 246.234463 131.702191 
L 246.247338 131.835231 
L 246.309139 131.768711 
L 246.414715 131.835231 
L 246.319439 131.735451 
L 246.42244 131.801971 
L 246.435315 131.868491 
L 246.535741 131.735451 
L 246.610416 131.868491 
L 246.649042 131.768711 
L 246.880794 131.702191 
L 246.991519 131.569151 
L 246.888519 131.735451 
L 246.994095 131.635671 
L 247.05332 131.535891 
L 247.143446 131.402851 
L 247.07907 131.602411 
L 247.166621 131.436111 
L 247.210396 131.402851 
L 247.277347 131.502631 
L 247.349447 131.535891 
L 247.393223 131.402851 
L 247.511674 131.502631 
L 247.604375 131.369591 
L 247.624975 131.402851 
L 247.697075 131.469371 
L 247.66875 131.336331 
L 247.733126 131.402851 
L 247.800076 131.303071 
L 247.746001 131.436111 
L 247.843851 131.369591 
L 247.885052 131.436111 
L 247.867027 131.269811 
L 247.952002 131.369591 
L 247.967453 131.402851 
L 248.067878 131.203291 
L 248.636958 131.136771 
L 248.737384 131.036991 
L 248.683308 131.170031 
L 248.747684 131.103511 
L 248.830085 131.003731 
L 248.912485 130.937211 
L 248.83781 131.036991 
L 248.94081 130.970471 
L 248.966561 131.003731 
L 249.041236 130.870691 
L 249.046386 130.903951 
L 249.239513 130.804171 
L 249.339939 130.704391 
L 249.350239 130.737651 
L 249.44809 130.804171 
L 249.360539 130.704391 
L 249.460965 130.737651 
L 249.502165 130.671131 
L 249.52534 130.804171 
L 249.569116 130.770911 
L 249.715892 130.671131 
L 249.772542 130.604611 
L 249.785417 130.737651 
L 249.826618 130.637871 
L 249.911593 130.737651 
L 249.937344 130.637871 
L 249.981119 130.538091 
L 249.983694 130.504831 
L 249.993994 130.637871 
L 250.08927 130.571351 
L 250.10987 130.637871 
L 250.153645 130.504831 
L 250.202571 130.604611 
L 250.261796 130.504831 
L 250.241196 130.637871 
L 250.313297 130.538091 
L 250.403423 130.604611 
L 250.354497 130.471571 
L 250.424023 130.538091 
L 250.508998 130.471571 
L 250.493548 130.604611 
L 250.529599 130.604611 
L 250.552774 130.571351 
L 250.645474 130.671131 
L 250.715 130.538091 
L 250.76135 130.604611 
L 250.890101 130.538091 
L 250.977652 130.471571 
L 250.895252 130.604611 
L 251.000827 130.504831 
L 251.090953 130.671131 
L 251.114128 130.637871 
L 251.168204 130.671131 
L 251.211979 130.538091 
L 251.222279 130.604611 
L 251.307255 130.538091 
L 251.322705 130.704391 
L 251.327855 130.671131 
L 251.711533 130.770911 
L 251.809384 130.837431 
L 251.721833 130.704391 
L 251.822259 130.804171 
L 251.853159 130.737651 
L 251.858309 130.870691 
L 251.932985 130.804171 
L 252.048861 130.671131 
L 252.051436 130.704391 
L 252.424814 130.804171 
L 252.442839 130.870691 
L 252.450564 130.737651 
L 252.532965 130.804171 
L 252.538115 130.737651 
L 252.57159 130.870691 
L 252.643691 130.804171 
L 253.673699 130.704391 
L 253.779275 130.671131 
L 253.7561 130.804171 
L 253.78185 130.704391 
L 253.861676 130.804171 
L 253.890001 130.671131 
L 253.892576 130.704391 
L 254.047077 130.604611 
L 254.049652 130.571351 
L 254.103728 130.704391 
L 254.152653 130.637871 
L 254.227329 130.770911 
L 254.165528 130.604611 
L 254.265954 130.704391 
L 254.399855 130.804171 
L 254.40243 130.870691 
L 254.438481 130.671131 
L 254.508006 130.770911 
L 254.603282 130.704391 
L 254.528606 130.804171 
L 254.621307 130.737651 
L 254.685683 130.903951 
L 254.721733 130.804171 
" clip-path="url(#pd948154ff6)" style="fill: none; stroke: #000000; stroke-opacity: 0.5; stroke-width: 1.5; stroke-linecap: square"/>
   </g>
   <g id="patch_3">
    <path d="M 41.667188 173.52 
L 41.667188 7.2 
" style="fill: none; stroke: #000000; stroke-width: 0.8; stroke-linejoin: miter; stroke-linecap: square"/>
   </g>
   <g id="patch_4">
    <path d="M 41.667188 173.52 
L 264.867187 173.52 
" style="fill: none; stroke: #000000; stroke-width: 0.8; stroke-linejoin: miter; stroke-linecap: square"/>
   </g>
  </g>
 </g>
 <defs>
  <clipPath id="pd948154ff6">
   <rect x="41.667188" y="7.2" width="223.2" height="166.32"/>
  </clipPath>
 </defs>
</svg>
