<?xml version="1.0" encoding="utf-8" standalone="no"?>
<!DOCTYPE svg PUBLIC "-//W3C//DTD SVG 1.1//EN"
  "http://www.w3.org/Graphics/SVG/1.1/DTD/svg11.dtd">
<svg xmlns:xlink="http://www.w3.org/1999/xlink" width="272.067187pt" height="197.398125pt" viewBox="0 0 272.067187 197.398125" xmlns="http://www.w3.org/2000/svg" version="1.1">
 <metadata>
  <rdf:RDF xmlns:dc="http://purl.org/dc/elements/1.1/" xmlns:cc="http://creativecommons.org/ns#" xmlns:rdf="http://www.w3.org/1999/02/22-rdf-syntax-ns#">
   <cc:Work>
    <dc:type rdf:resource="http://purl.org/dc/dcmitype/StillImage"/>
    <dc:date>2025-12-19T12:08:45.726219</dc:date>
    <dc:format>image/svg+xml</dc:format>
    <dc:creator>
     <cc:Agent>
      <dc:title>Matplotlib v3.10.7, https://matplotlib.org/</dc:title>
     </cc:Agent>
    </dc:creator>
   </cc:Work>
  </rdf:RDF>
 </metadata>
 <defs>
  <style type="text/css">*{stroke-linejoin: round; stroke-linecap: butt}</style>
 </defs>
 <g id="figure_1">
  <g id="patch_1">
   <path d="M 0 197.398125 
L 272.067187 197.398125 
L 272.067187 0 
L 0 0 
z
" style="fill: #ffffff"/>
  </g>
  <g id="axes_1">
   <g id="patch_2">
    <path d="M 41.667188 173.52 
L 264.867188 173.52 
L 264.867188 7.2 
L 41.667188 7.2 
z
" style="fill: #ffffff"/>
   </g>
   <g id="matplotlib.axis_1">
    <g id="xtick_1">
     <g id="line2d_1">
      <defs>
       <path id="m28a55d926d" d="M 0 0 
L 0 3.5 
" style="stroke: #000000; stroke-width: 0.8"/>
      </defs>
      <g>
       <use xlink:href="#m28a55d926d" x="87.83254" y="173.52" style="stroke: #000000; stroke-width: 0.8"/>
      </g>
     </g>
     <g id="text_1">
      <!-- 1 -->
      <g transform="translate(84.65129 188.118438) scale(0.1 -0.1)">
       <defs>
        <path id="DejaVuSans-31" d="M 794 531 
L 1825 531 
L 1825 4091 
L 703 3866 
L 703 4441 
L 1819 4666 
L 2450 4666 
L 2450 531 
L 3481 531 
L 3481 0 
L 794 0 
L 794 531 
z
" transform="scale(0.015625)"/>
       </defs>
       <use xlink:href="#DejaVuSans-31"/>
      </g>
     </g>
    </g>
    <g id="xtick_2">
     <g id="line2d_2">
      <g>
       <use xlink:href="#m28a55d926d" x="147.865704" y="173.52" style="stroke: #000000; stroke-width: 0.8"/>
      </g>
     </g>
     <g id="text_2">
      <!-- 2 -->
      <g transform="translate(144.684454 188.118438) scale(0.1 -0.1)">
       <defs>
        <path id="DejaVuSans-32" d="M 1228 531 
L 3431 531 
L 3431 0 
L 469 0 
L 469 531 
Q 828 903 1448 1529 
Q 2069 2156 2228 2338 
Q 2531 2678 2651 2914 
Q 2772 3150 2772 3378 
Q 2772 3750 2511 3984 
Q 2250 4219 1831 4219 
Q 1534 4219 1204 4116 
Q 875 4013 500 3803 
L 500 4441 
Q 881 4594 1212 4672 
Q 1544 4750 1819 4750 
Q 2544 4750 2975 4387 
Q 3406 4025 3406 3419 
Q 3406 3131 3298 2873 
Q 3191 2616 2906 2266 
Q 2828 2175 2409 1742 
Q 1991 1309 1228 531 
z
" transform="scale(0.015625)"/>
       </defs>
       <use xlink:href="#DejaVuSans-32"/>
      </g>
     </g>
    </g>
    <g id="xtick_3">
     <g id="line2d_3">
      <g>
       <use xlink:href="#m28a55d926d" x="207.898867" y="173.52" style="stroke: #000000; stroke-width: 0.8"/>
      </g>
     </g>
     <g id="text_3">
      <!-- 3 -->
      <g transform="translate(204.717617 188.118438) scale(0.1 -0.1)">
       <defs>
        <path id="DejaVuSans-33" d="M 2597 2516 
Q 3050 2419 3304 2112 
Q 3559 1806 3559 1356 
Q 3559 666 3084 287 
Q 2609 -91 1734 -91 
Q 1441 -91 1130 -33 
Q 819 25 488 141 
L 488 750 
Q 750 597 1062 519 
Q 1375 441 1716 441 
Q 2309 441 2620 675 
Q 2931 909 2931 1356 
Q 2931 1769 2642 2001 
Q 2353 2234 1838 2234 
L 1294 2234 
L 1294 2753 
L 1863 2753 
Q 2328 2753 2575 2939 
Q 2822 3125 2822 3475 
Q 2822 3834 2567 4026 
Q 2313 4219 1838 4219 
Q 1578 4219 1281 4162 
Q 984 4106 628 3988 
L 628 4550 
Q 988 4650 1302 4700 
Q 1616 4750 1894 4750 
Q 2613 4750 3031 4423 
Q 3450 4097 3450 3541 
Q 3450 3153 3228 2886 
Q 3006 2619 2597 2516 
z
" transform="scale(0.015625)"/>
       </defs>
       <use xlink:href="#DejaVuSans-33"/>
      </g>
     </g>
    </g>
   </g>
   <g id="matplotlib.axis_2">
    <g id="ytick_1">
     <g id="line2d_4">
      <defs>
       <path id="mf1897964e5" d="M 0 0 
L -3.5 0 
" style="stroke: #000000; stroke-width: 0.8"/>
      </defs>
      <g>
       <use xlink:href="#mf1897964e5" x="41.667188" y="173.303996" style="stroke: #000000; stroke-width: 0.8"/>
      </g>
     </g>
     <g id="text_4">
      <!-- −120 -->
      <g transform="translate(7.2 177.103215) scale(0.1 -0.1)">
       <defs>
        <path id="DejaVuSans-2212" d="M 678 2272 
L 4684 2272 
L 4684 1741 
L 678 1741 
L 678 2272 
z
" transform="scale(0.015625)"/>
        <path id="DejaVuSans-30" d="M 2034 4250 
Q 1547 4250 1301 3770 
Q 1056 3291 1056 2328 
Q 1056 1369 1301 889 
Q 1547 409 2034 409 
Q 2525 409 2770 889 
Q 3016 1369 3016 2328 
Q 3016 3291 2770 3770 
Q 2525 4250 2034 4250 
z
M 2034 4750 
Q 2819 4750 3233 4129 
Q 3647 3509 3647 2328 
Q 3647 1150 3233 529 
Q 2819 -91 2034 -91 
Q 1250 -91 836 529 
Q 422 1150 422 2328 
Q 422 3509 836 4129 
Q 1250 4750 2034 4750 
z
" transform="scale(0.015625)"/>
       </defs>
       <use xlink:href="#DejaVuSans-2212"/>
       <use xlink:href="#DejaVuSans-31" transform="translate(83.789062 0)"/>
       <use xlink:href="#DejaVuSans-32" transform="translate(147.412109 0)"/>
       <use xlink:href="#DejaVuSans-30" transform="translate(211.035156 0)"/>
      </g>
     </g>
    </g>
    <g id="ytick_2">
     <g id="line2d_5">
      <g>
       <use xlink:href="#mf1897964e5" x="41.667188" y="146.289157" style="stroke: #000000; stroke-width: 0.8"/>
      </g>
     </g>
     <g id="text_5">
      <!-- −100 -->
      <g transform="translate(7.2 150.088376) scale(0.1 -0.1)">
       <use xlink:href="#DejaVuSans-2212"/>
       <use xlink:href="#DejaVuSans-31" transform="translate(83.789062 0)"/>
       <use xlink:href="#DejaVuSans-30" transform="translate(147.412109 0)"/>
       <use xlink:href="#DejaVuSans-30" transform="translate(211.035156 0)"/>
      </g>
     </g>
    </g>
    <g id="ytick_3">
     <g id="line2d_6">
      <g>
       <use xlink:href="#mf1897964e5" x="41.667188" y="119.274318" style="stroke: #000000; stroke-width: 0.8"/>
      </g>
     </g>
     <g id="text_6">
      <!-- −80 -->
      <g transform="translate(13.5625 123.073537) scale(0.1 -0.1)">
       <defs>
        <path id="DejaVuSans-38" d="M 2034 2216 
Q 1584 2216 1326 1975 
Q 1069 1734 1069 1313 
Q 1069 891 1326 650 
Q 1584 409 2034 409 
Q 2484 409 2743 651 
Q 3003 894 3003 1313 
Q 3003 1734 2745 1975 
Q 2488 2216 2034 2216 
z
M 1403 2484 
Q 997 2584 770 2862 
Q 544 3141 544 3541 
Q 544 4100 942 4425 
Q 1341 4750 2034 4750 
Q 2731 4750 3128 4425 
Q 3525 4100 3525 3541 
Q 3525 3141 3298 2862 
Q 3072 2584 2669 2484 
Q 3125 2378 3379 2068 
Q 3634 1759 3634 1313 
Q 3634 634 3220 271 
Q 2806 -91 2034 -91 
Q 1263 -91 848 271 
Q 434 634 434 1313 
Q 434 1759 690 2068 
Q 947 2378 1403 2484 
z
M 1172 3481 
Q 1172 3119 1398 2916 
Q 1625 2713 2034 2713 
Q 2441 2713 2670 2916 
Q 2900 3119 2900 3481 
Q 2900 3844 2670 4047 
Q 2441 4250 2034 4250 
Q 1625 4250 1398 4047 
Q 1172 3844 1172 3481 
z
" transform="scale(0.015625)"/>
       </defs>
       <use xlink:href="#DejaVuSans-2212"/>
       <use xlink:href="#DejaVuSans-38" transform="translate(83.789062 0)"/>
       <use xlink:href="#DejaVuSans-30" transform="translate(147.412109 0)"/>
      </g>
     </g>
    </g>
    <g id="ytick_4">
     <g id="line2d_7">
      <g>
       <use xlink:href="#mf1897964e5" x="41.667188" y="92.259479" style="stroke: #000000; stroke-width: 0.8"/>
      </g>
     </g>
     <g id="text_7">
      <!-- −60 -->
      <g transform="translate(13.5625 96.058698) scale(0.1 -0.1)">
       <defs>
        <path id="DejaVuSans-36" d="M 2113 2584 
Q 1688 2584 1439 2293 
Q 1191 2003 1191 1497 
Q 1191 994 1439 701 
Q 1688 409 2113 409 
Q 2538 409 2786 701 
Q 3034 994 3034 1497 
Q 3034 2003 2786 2293 
Q 2538 2584 2113 2584 
z
M 3366 4563 
L 3366 3988 
Q 3128 4100 2886 4159 
Q 2644 4219 2406 4219 
Q 1781 4219 1451 3797 
Q 1122 3375 1075 2522 
Q 1259 2794 1537 2939 
Q 1816 3084 2150 3084 
Q 2853 3084 3261 2657 
Q 3669 2231 3669 1497 
Q 3669 778 3244 343 
Q 2819 -91 2113 -91 
Q 1303 -91 875 529 
Q 447 1150 447 2328 
Q 447 3434 972 4092 
Q 1497 4750 2381 4750 
Q 2619 4750 2861 4703 
Q 3103 4656 3366 4563 
z
" transform="scale(0.015625)"/>
       </defs>
       <use xlink:href="#DejaVuSans-2212"/>
       <use xlink:href="#DejaVuSans-36" transform="translate(83.789062 0)"/>
       <use xlink:href="#DejaVuSans-30" transform="translate(147.412109 0)"/>
      </g>
     </g>
    </g>
    <g id="ytick_5">
     <g id="line2d_8">
      <g>
       <use xlink:href="#mf1897964e5" x="41.667188" y="65.24464" style="stroke: #000000; stroke-width: 0.8"/>
      </g>
     </g>
     <g id="text_8">
      <!-- −40 -->
      <g transform="translate(13.5625 69.043859) scale(0.1 -0.1)">
       <defs>
        <path id="DejaVuSans-34" d="M 2419 4116 
L 825 1625 
L 2419 1625 
L 2419 4116 
z
M 2253 4666 
L 3047 4666 
L 3047 1625 
L 3713 1625 
L 3713 1100 
L 3047 1100 
L 3047 0 
L 2419 0 
L 2419 1100 
L 313 1100 
L 313 1709 
L 2253 4666 
z
" transform="scale(0.015625)"/>
       </defs>
       <use xlink:href="#DejaVuSans-2212"/>
       <use xlink:href="#DejaVuSans-34" transform="translate(83.789062 0)"/>
       <use xlink:href="#DejaVuSans-30" transform="translate(147.412109 0)"/>
      </g>
     </g>
    </g>
    <g id="ytick_6">
     <g id="line2d_9">
      <g>
       <use xlink:href="#mf1897964e5" x="41.667188" y="38.229801" style="stroke: #000000; stroke-width: 0.8"/>
      </g>
     </g>
     <g id="text_9">
      <!-- −20 -->
      <g transform="translate(13.5625 42.02902) scale(0.1 -0.1)">
       <use xlink:href="#DejaVuSans-2212"/>
       <use xlink:href="#DejaVuSans-32" transform="translate(83.789062 0)"/>
       <use xlink:href="#DejaVuSans-30" transform="translate(147.412109 0)"/>
      </g>
     </g>
    </g>
    <g id="ytick_7">
     <g id="line2d_10">
      <g>
       <use xlink:href="#mf1897964e5" x="41.667188" y="11.214962" style="stroke: #000000; stroke-width: 0.8"/>
      </g>
     </g>
     <g id="text_10">
      <!-- 0 -->
      <g transform="translate(28.304688 15.014181) scale(0.1 -0.1)">
       <use xlink:href="#DejaVuSans-30"/>
      </g>
     </g>
    </g>
   </g>
   <g id="line2d_11">
    <path d="M 51.812642 98.356947 
L 51.815644 98.398168 
L 51.908695 98.233282 
L 51.914698 98.233282 
L 51.920702 98.274504 
L 51.923703 98.356947 
L 52.010751 98.109618 
L 52.02576 98.192061 
L 52.058778 98.109618 
L 52.106805 98.274504 
L 52.130818 98.233282 
L 52.193853 98.398168 
L 52.139823 98.192061 
L 52.244881 98.315725 
L 52.361945 98.109618 
L 52.430984 98.027176 
L 52.476009 98.15084 
L 52.599076 97.985954 
L 52.689126 98.068397 
L 52.794184 98.233282 
L 52.701133 98.027176 
L 52.806191 98.15084 
L 52.842211 98.233282 
L 52.959275 98.398168 
L 52.860221 98.192061 
L 52.962277 98.356947 
L 53.127368 98.274504 
L 53.205411 98.027176 
L 53.247435 98.109618 
L 53.250436 98.192061 
L 53.289458 97.985954 
L 53.355494 98.027176 
L 53.361498 98.068397 
L 53.469557 97.944733 
L 53.571614 98.027176 
L 53.541597 97.86229 
L 53.580619 97.944733 
L 53.60163 98.027176 
L 53.661663 98.068397 
L 53.670668 97.944733 
L 53.706688 97.944733 
L 53.925809 97.985954 
L 54.018861 98.109618 
L 53.940818 97.944733 
L 54.039872 98.068397 
L 54.129922 98.15084 
L 54.057882 97.985954 
L 54.150934 98.109618 
L 54.249988 97.944733 
L 54.174947 98.15084 
L 54.267998 98.027176 
L 54.697236 97.985954 
L 54.808297 98.192061 
L 54.811299 98.15084 
L 54.835312 98.027176 
L 54.925362 98.068397 
L 55.045428 98.233282 
L 55.147484 98.15084 
L 55.081448 98.274504 
L 55.156489 98.192061 
L 55.267551 98.439389 
L 55.279557 98.356947 
L 55.306572 98.315725 
L 55.327584 98.521832 
L 55.381614 98.480611 
L 55.666771 98.563053 
L 55.735809 98.645496 
L 55.687783 98.439389 
L 55.777832 98.563053 
L 55.97294 98.521832 
L 56.041978 98.604275 
L 56.087003 98.439389 
L 56.132028 98.563053 
L 56.198065 98.439389 
L 56.228081 98.480611 
L 56.333139 98.604275 
L 56.237086 98.439389 
L 56.342144 98.563053 
L 56.390171 98.480611 
L 56.351149 98.645496 
L 56.447202 98.645496 
L 56.462211 98.563053 
L 56.528247 98.521832 
L 56.474217 98.686718 
L 56.567269 98.645496 
L 56.630303 98.686718 
L 56.741365 98.851603 
L 56.744366 98.810382 
L 56.798396 98.727939 
L 56.906456 98.645496 
L 56.8044 98.76916 
L 56.912459 98.686718 
L 56.999507 98.76916 
L 57.002509 98.810382 
L 57.005511 98.645496 
L 57.101564 98.727939 
L 57.212625 98.604275 
L 57.116572 98.76916 
L 57.215627 98.645496 
L 57.29367 98.563053 
L 57.305677 98.686718 
L 57.323686 98.645496 
L 57.332691 98.727939 
L 57.413736 98.563053 
L 57.437749 98.686718 
L 57.446754 98.604275 
L 57.500784 98.76916 
L 57.545809 98.727939 
L 57.611846 98.686718 
L 57.659872 98.810382 
L 57.722907 98.604275 
L 57.752924 98.521832 
L 57.90901 106.724885 
L 58.161149 118.349313 
L 58.491331 127.376794 
L 58.860535 134.508092 
L 58.866539 134.590534 
L 59.679988 144.236336 
L 59.68299 144.195115 
L 59.743023 144.813435 
L 59.749026 144.772214 
L 59.968147 146.297405 
L 59.980154 146.214962 
L 60.061199 146.75084 
L 60.196273 147.410382 
L 60.217285 147.492824 
L 60.373371 148.111145 
L 60.379374 148.069924 
L 60.454416 148.399695 
L 60.466423 148.358473 
L 60.484433 148.440916 
L 60.619507 148.770687 
L 60.667534 148.811908 
L 60.784598 149.100458 
L 60.80561 149.059237 
L 60.910668 149.389008 
L 60.934681 149.265344 
L 60.946688 149.430229 
L 61.018728 149.430229 
L 61.027733 149.347786 
L 61.033736 149.306565 
L 61.123786 149.512672 
L 61.132791 149.430229 
L 61.246854 149.553893 
L 61.291879 149.47145 
L 61.345908 149.636336 
L 61.357915 149.553893 
L 61.441961 149.677557 
L 61.450966 149.512672 
L 61.468976 149.553893 
L 61.477981 149.636336 
L 61.526008 149.677557 
L 61.514001 149.553893 
L 61.586041 149.595115 
L 61.80216 149.636336 
L 61.805162 149.718779 
L 61.808164 149.47145 
L 61.91022 149.595115 
L 61.919225 149.512672 
L 61.925228 149.677557 
L 62.01828 149.595115 
L 62.12634 149.636336 
L 62.099325 149.512672 
L 62.129341 149.595115 
L 62.246406 149.389008 
L 62.252409 149.430229 
L 62.345461 149.47145 
L 62.276422 149.306565 
L 62.360469 149.430229 
L 62.408495 149.47145 
L 62.474532 149.306565 
L 62.56158 149.389008 
L 62.585593 149.306565 
L 62.648628 149.430229 
L 62.61561 149.265344 
L 62.699656 149.389008 
L 62.711663 149.430229 
L 62.816721 149.265344 
L 62.915776 149.430229 
L 62.930784 149.347786 
L 62.981812 149.430229 
L 62.945792 149.306565 
L 63.041845 149.347786 
L 63.065859 149.306565 
L 63.179922 149.100458 
L 63.182923 149.182901 
L 63.260966 148.894351 
L 63.281978 148.935573 
L 63.387036 148.894351 
L 63.333006 149.059237 
L 63.393039 148.935573 
L 63.402044 148.85313 
L 63.465079 148.729466 
L 63.411049 148.894351 
L 63.513106 148.770687 
L 63.561132 148.85313 
L 63.61216 148.688244 
L 63.624167 148.770687 
L 63.627169 148.811908 
L 63.711215 148.56458 
L 63.726223 148.647023 
L 63.843288 148.399695 
L 63.885311 148.523359 
L 63.945344 148.358473 
L 63.957351 148.440916 
L 63.984366 148.399695 
L 64.095427 148.276031 
L 64.098429 148.317252 
L 64.20949 148.111145 
L 64.110436 148.399695 
L 64.221497 148.152366 
L 64.236505 148.111145 
L 64.254515 148.152366 
L 64.35357 147.94626 
L 64.398595 147.863817 
L 64.416605 147.94626 
L 64.518661 147.740153 
L 64.575693 147.822595 
L 64.569689 147.698931 
L 64.626721 147.781374 
L 64.746787 147.451603 
L 64.779805 147.575267 
L 64.830834 147.36916 
L 64.851845 147.451603 
L 64.902873 147.286718 
L 64.962907 147.327939 
L 64.971911 147.451603 
L 65.064963 147.286718 
L 65.070966 147.327939 
L 65.091978 147.36916 
L 65.188031 147.245496 
L 65.236057 147.327939 
L 65.281082 147.121832 
L 65.287086 147.163053 
L 65.317102 147.245496 
L 65.40415 146.998168 
L 65.42216 147.121832 
L 65.524217 146.833282 
L 65.551232 146.956947 
L 65.608263 146.75084 
L 65.635278 146.833282 
L 65.716323 146.75084 
L 65.722326 146.792061 
L 65.839391 146.503511 
L 65.842392 146.627176 
L 65.94745 146.421069 
L 66.025493 146.379847 
L 66.133553 146.17374 
L 66.139557 146.214962 
L 66.172575 146.256183 
L 66.19959 146.091298 
L 66.244615 146.132519 
L 66.250618 146.091298 
L 66.364681 145.843969 
L 66.271629 146.132519 
L 66.367683 145.926412 
L 66.499755 145.637863 
L 66.511762 145.596641 
L 66.622823 145.472977 
L 66.589805 145.637863 
L 66.625825 145.514198 
L 66.898976 145.596641 
L 66.986024 145.637863 
L 66.971016 145.514198 
L 67.004034 145.55542 
L 67.127102 145.390534 
L 67.17813 145.431756 
L 67.199142 145.308092 
L 67.23216 145.308092 
L 67.298197 145.308092 
L 67.39425 145.101985 
L 67.41226 145.184427 
L 67.496306 144.978321 
L 67.526323 145.060763 
L 67.619374 145.019542 
L 67.637384 145.060763 
L 67.730435 144.937099 
L 67.808478 145.060763 
L 67.736439 144.895878 
L 67.844498 145.019542 
L 67.949556 144.895878 
L 67.95556 144.978321 
L 68.00959 144.895878 
L 68.066621 145.019542 
L 68.174681 144.854656 
L 68.084631 145.060763 
L 68.186687 144.895878 
L 68.48085 144.937099 
L 68.55289 145.019542 
L 68.51687 144.895878 
L 68.591911 144.978321 
L 68.823039 144.978321 
L 68.937102 144.813435 
L 68.982127 144.978321 
L 69.036157 144.730992 
L 69.045162 144.813435 
L 69.063172 144.730992 
L 69.13221 144.895878 
L 69.156223 144.813435 
L 69.201248 144.730992 
L 69.303304 144.607328 
L 69.252276 144.813435 
L 69.318313 144.64855 
L 69.468395 144.566107 
L 69.573453 144.524885 
L 69.4774 144.64855 
L 69.579457 144.566107 
L 69.822591 144.566107 
L 69.969672 133.230229 
L 70.206803 123.66687 
L 70.494963 116.329466 
L 71.665609 101.654656 
L 71.668611 101.819542 
L 71.761662 101.036336 
L 71.764664 101.118779 
L 71.90274 100.335573 
L 71.935758 100.294351 
L 72.085841 99.140153 
L 72.088843 99.181374 
L 72.163884 98.76916 
L 72.292956 98.027176 
L 72.298959 98.109618 
L 72.313967 98.027176 
L 72.476057 97.326412 
L 72.48206 97.243969 
L 72.488064 97.285191 
L 72.614133 96.95542 
L 72.623138 97.079084 
L 72.695178 96.872977 
L 72.722193 96.872977 
L 72.737201 96.914198 
L 72.809241 96.708092 
L 72.821248 96.749313 
L 72.938312 96.460763 
L 72.941314 96.501985 
L 73.067384 96.089771 
L 73.07939 96.130992 
L 73.11541 96.04855 
L 73.232475 95.76 
L 73.235476 95.801221 
L 73.268495 95.636336 
L 73.355543 95.677557 
L 73.367549 95.718779 
L 73.436588 95.47145 
L 73.451596 95.47145 
L 73.544647 95.306565 
L 73.571662 95.347786 
L 73.673719 95.265344 
L 73.775775 95.141679 
L 73.688727 95.306565 
L 73.78478 95.265344 
L 73.847815 95.141679 
L 73.898843 95.224122 
L 73.913851 95.182901 
L 74.012906 95.347786 
L 74.132972 95.059237 
L 74.135974 95.141679 
L 74.214017 94.894351 
L 74.241032 94.976794 
L 74.319075 94.935573 
L 74.43614 94.729466 
L 74.631247 94.729466 
L 74.634249 94.85313 
L 74.736306 94.56458 
L 74.739307 94.605802 
L 74.820352 94.440916 
L 74.772325 94.688244 
L 74.859374 94.482137 
L 74.895393 94.440916 
L 74.97944 94.647023 
L 75.078495 94.56458 
L 75.060485 94.688244 
L 75.093503 94.605802 
L 75.204564 94.56458 
L 75.312624 94.317252 
L 75.219572 94.605802 
L 75.321629 94.358473 
L 75.330634 94.399695 
L 75.39667 94.234809 
L 75.426687 94.276031 
L 75.459705 94.234809 
L 75.462707 94.358473 
L 75.534747 94.276031 
L 75.543752 94.234809 
L 75.660816 94.482137 
L 75.732856 94.152366 
L 75.777881 94.193588 
L 75.804896 94.358473 
L 75.891944 94.276031 
L 75.994 94.358473 
L 76.024017 94.317252 
L 76.108063 94.440916 
L 76.129075 94.358473 
L 76.15609 94.482137 
L 76.219125 94.399695 
L 76.321181 94.317252 
L 76.336189 94.482137 
L 76.444249 94.440916 
L 76.504282 94.358473 
L 76.5373 94.523359 
L 76.55531 94.440916 
L 76.585327 94.399695 
L 76.669373 94.523359 
L 76.726405 94.399695 
L 76.774431 94.56458 
L 76.777433 94.56458 
L 76.801446 94.647023 
L 76.909506 94.770687 
L 76.82546 94.56458 
L 76.912508 94.729466 
L 76.915509 94.647023 
L 76.930518 94.770687 
L 77.020567 94.770687 
L 77.083602 94.85313 
L 77.197665 94.976794 
L 77.092607 94.811908 
L 77.200667 94.935573 
L 77.374763 94.85313 
L 77.461811 94.770687 
L 77.40478 94.935573 
L 77.482823 94.894351 
L 77.605891 95.100458 
L 77.656919 95.018015 
L 77.707947 95.265344 
L 77.710949 95.224122 
L 77.76798 95.182901 
L 77.861032 95.100458 
L 77.779987 95.265344 
L 77.87604 95.182901 
L 77.975095 95.224122 
L 77.945078 95.100458 
L 77.981098 95.141679 
L 78.080153 95.100458 
L 77.996106 95.182901 
L 78.086156 95.182901 
L 78.143188 95.224122 
L 78.173204 95.059237 
L 78.194216 95.182901 
L 78.233237 95.224122 
L 78.314282 95.059237 
L 78.338295 95.182901 
L 78.410335 94.894351 
L 78.416338 94.935573 
L 78.494382 94.894351 
L 78.587433 94.770687 
L 78.608445 94.811908 
L 78.659473 94.729466 
L 78.722508 94.894351 
L 78.734514 94.85313 
L 78.782541 95.018015 
L 78.830567 94.894351 
L 78.950634 95.182901 
L 78.959639 95.141679 
L 78.99866 95.018015 
L 79.061695 95.182901 
L 79.0707 95.100458 
L 79.184763 95.265344 
L 79.187765 95.224122 
L 79.208776 95.306565 
L 79.298826 95.141679 
L 79.361861 95.306565 
L 79.412889 95.265344 
L 79.54196 95.018015 
L 79.659025 95.141679 
L 79.698046 95.018015 
L 79.755078 95.182901 
L 79.764083 95.141679 
L 79.827118 95.306565 
L 79.875144 95.224122 
L 79.932176 95.100458 
L 79.884149 95.265344 
L 79.983204 95.265344 
L 80.04924 95.347786 
L 80.058245 95.306565 
L 80.169307 95.512672 
L 80.172308 95.430229 
L 80.26536 95.636336 
L 80.277367 95.553893 
L 80.35541 95.553893 
L 80.367416 95.718779 
L 80.442458 95.512672 
L 80.466471 95.595115 
L 80.586537 95.389008 
L 80.529506 95.636336 
L 80.589539 95.430229 
L 80.670584 95.347786 
L 80.715609 95.265344 
L 80.766637 95.47145 
L 80.778643 95.389008 
L 80.886703 95.553893 
L 80.835675 95.347786 
L 80.895708 95.512672 
L 80.931728 95.595115 
L 81.009771 95.430229 
L 81.087814 95.595115 
L 81.123834 95.512672 
L 81.198876 95.512672 
L 81.201877 95.636336 
L 81.246902 95.389008 
L 81.309937 95.512672 
L 81.505045 95.595115 
L 81.508046 95.636336 
L 81.565078 95.430229 
L 81.607101 95.47145 
L 81.637118 95.430229 
L 81.667134 95.595115 
L 81.715161 95.512672 
L 81.745177 95.595115 
L 81.847234 95.718779 
L 81.85924 95.677557 
L 82.036338 95.76 
L 82.063353 95.718779 
L 82.159406 95.924885 
L 82.363519 95.924885 
L 82.471579 96.130992 
L 82.477582 96.04855 
L 82.543618 96.089771 
L 82.615658 96.172214 
L 82.558627 96.04855 
L 82.65468 96.130992 
L 82.693701 96.007328 
L 82.762739 96.089771 
L 82.765741 96.172214 
L 82.813768 95.966107 
L 82.870799 96.04855 
L 82.894812 96.089771 
L 82.912822 96.172214 
L 82.975857 96.007328 
L 83.002872 96.04855 
L 83.113933 95.924885 
L 83.011877 96.089771 
L 83.116935 95.966107 
L 83.119937 96.007328 
L 83.191977 95.801221 
L 83.221993 95.924885 
L 83.32405 95.842443 
L 83.249008 95.966107 
L 83.333055 95.883664 
L 83.420103 95.924885 
L 83.360069 95.801221 
L 83.444116 95.883664 
L 83.480136 95.924885 
L 83.549174 96.007328 
L 83.552176 95.883664 
L 83.591197 95.966107 
L 83.624215 96.007328 
L 83.711263 95.842443 
L 83.81332 95.966107 
L 83.735277 95.801221 
L 83.822325 95.924885 
L 83.933386 95.801221 
L 84.002424 95.924885 
L 84.035443 95.76 
L 84.044448 95.842443 
L 84.086471 95.842443 
L 84.197532 95.966107 
L 84.296587 95.883664 
L 84.254564 96.04855 
L 84.311595 95.924885 
L 84.332607 96.007328 
L 84.437665 96.130992 
L 84.449671 96.089771 
L 84.491695 96.04855 
L 84.557731 95.966107 
L 84.596753 96.172214 
L 84.599754 96.04855 
L 84.722822 96.254656 
L 84.752839 96.172214 
L 84.782855 96.337099 
L 84.830882 96.295878 
L 84.944945 96.460763 
L 84.947947 96.378321 
L 85.074016 96.460763 
L 85.089025 96.543206 
L 85.146056 96.337099 
L 85.182076 96.419542 
L 85.260119 96.337099 
L 85.296139 96.295878 
L 85.350169 96.501985 
L 85.368179 96.378321 
L 85.452225 96.501985 
L 85.38919 96.337099 
L 85.47924 96.378321 
L 85.5873 96.295878 
L 85.629323 96.213435 
L 85.683353 96.419542 
L 85.689356 96.419542 
L 85.716371 96.337099 
L 85.758394 96.254656 
L 85.803419 96.419542 
L 85.827432 96.295878 
L 85.926487 96.378321 
L 85.854447 96.254656 
L 85.938494 96.295878 
L 86.049555 96.130992 
L 85.956504 96.337099 
L 86.05856 96.172214 
L 86.127598 96.337099 
L 86.169622 96.213435 
L 86.244663 96.130992 
L 86.319704 96.04855 
L 86.343718 96.213435 
L 86.355724 96.130992 
L 86.382739 96.04855 
L 86.493801 95.883664 
L 86.394746 96.089771 
L 86.502806 95.924885 
L 86.595857 96.04855 
L 86.616869 96.007328 
L 86.634879 96.130992 
L 86.730932 95.966107 
L 86.829986 96.089771 
L 86.739937 95.924885 
L 86.844995 96.04855 
L 86.878013 95.883664 
L 86.850998 96.089771 
L 86.956056 96.04855 
L 86.974066 96.04855 
L 87.022092 95.883664 
L 87.085127 95.966107 
L 87.121147 96.089771 
L 87.196189 96.007328 
L 87.250218 95.924885 
L 87.298245 95.883664 
L 87.27123 96.04855 
L 87.358278 95.966107 
L 87.382291 95.883664 
L 87.466338 95.842443 
L 87.478344 95.966107 
L 87.490351 95.924885 
L 87.736487 96.007328 
L 87.748494 95.966107 
L 87.844547 99.016489 
L 88.102689 121.358473 
L 88.567946 140.856183 
L 89.198295 155.16 
L 89.2073 155.242443 
L 89.429422 158.334046 
L 89.438427 158.375267 
L 89.627532 160.518779 
L 89.900683 162.744733 
L 89.918693 162.785954 
L 90.044762 163.610382 
L 90.047764 163.56916 
L 90.074779 163.651603 
L 90.23987 164.434809 
L 90.254878 164.393588 
L 90.320915 164.805802 
L 90.323916 164.76458 
L 90.443983 165.135573 
L 90.446984 165.094351 
L 90.528029 165.424122 
L 90.537034 165.382901 
L 90.606072 165.465344 
L 90.72914 165.795115 
L 90.735144 165.753893 
L 90.76516 165.712672 
L 90.822192 165.96 
L 90.8372 165.877557 
L 90.900235 165.96 
L 90.85521 165.795115 
L 90.951263 165.918779 
L 91.047316 165.795115 
L 91.026304 165.96 
L 91.062324 165.877557 
L 91.122357 165.918779 
L 91.128361 165.753893 
L 91.170384 165.836336 
L 91.341479 165.918779 
L 91.371495 165.96 
L 91.392507 165.753893 
L 91.443535 165.836336 
L 91.5606 165.67145 
L 91.572606 165.753893 
L 91.659654 165.465344 
L 91.668659 165.589008 
L 91.761711 165.382901 
L 91.788726 165.465344 
L 91.893784 165.630229 
L 91.827747 165.424122 
L 91.908792 165.589008 
L 92.03186 165.506565 
L 92.100898 165.547786 
L 92.151926 165.382901 
L 92.15793 165.424122 
L 92.160931 165.506565 
L 92.229969 165.300458 
L 92.265989 165.341679 
L 92.283999 165.218015 
L 92.274994 165.382901 
L 92.377051 165.300458 
L 92.380052 165.341679 
L 92.446089 165.135573 
L 92.479107 165.176794 
L 92.602175 165.135573 
L 92.653203 165.218015 
L 92.716238 165.011908 
L 92.809289 165.176794 
L 92.743253 164.970687 
L 92.824298 165.05313 
L 92.929356 164.929466 
L 92.887332 165.135573 
L 92.935359 165.05313 
L 92.974381 165.05313 
L 93.088444 164.847023 
L 93.15448 164.76458 
L 93.274546 164.640916 
L 93.310566 164.723359 
L 93.319571 164.558473 
L 93.379604 164.558473 
L 93.415624 164.599695 
L 93.505674 164.311145 
L 93.523684 164.434809 
L 93.601727 164.187481 
L 93.60773 164.187481 
L 93.673767 164.105038 
L 93.742805 163.85771 
L 93.67977 164.14626 
L 93.796835 163.940153 
L 93.826852 163.85771 
L 93.889886 163.734046 
L 93.838858 163.898931 
L 93.940915 163.816489 
L 94.012954 163.775267 
L 94.106006 163.527939 
L 94.130019 163.56916 
L 94.154032 163.486718 
L 94.274099 163.239389 
L 94.163037 163.527939 
L 94.280102 163.280611 
L 94.301113 163.198168 
L 94.307117 163.239389 
L 94.433186 162.909618 
L 94.454198 162.827176 
L 94.592274 162.37374 
L 94.595276 162.497405 
L 94.673319 162.167634 
L 94.697332 162.167634 
L 94.730351 162.085191 
L 94.841412 161.672977 
L 94.868427 161.714198 
L 94.916453 161.631756 
L 95.063535 161.095878 
L 95.078543 161.137099 
L 95.129571 160.84855 
L 95.159588 160.889771 
L 95.177598 160.807328 
L 95.312672 160.477557 
L 95.360699 160.395115 
L 95.486768 160.106565 
L 95.366702 160.436336 
L 95.48977 160.147786 
L 95.516785 160.065344 
L 95.5438 160.106565 
L 95.65186 159.735573 
L 95.663866 159.818015 
L 95.744911 159.529466 
L 95.747913 159.529466 
L 95.813949 159.447023 
L 95.949024 159.076031 
L 95.952025 159.158473 
L 96.042075 158.74626 
L 96.048079 158.828702 
L 96.189156 158.416489 
L 96.234181 158.334046 
L 96.342241 157.963053 
L 96.351246 158.045496 
L 96.498327 157.427176 
L 96.504331 157.468397 
L 96.537349 157.385954 
L 96.672423 156.97374 
L 96.675425 157.014962 
L 96.70244 156.932519 
L 96.837515 156.520305 
L 96.726453 156.97374 
L 96.840516 156.561527 
L 96.873535 156.479084 
L 97.020616 155.984427 
L 97.032622 156.06687 
L 97.086652 155.695878 
L 97.110666 155.695878 
L 97.125674 155.654656 
L 97.248742 155.201221 
L 97.251743 155.242443 
L 97.40783 154.582901 
L 97.410831 154.624122 
L 97.470865 154.376794 
L 97.503883 154.376794 
L 97.626951 154.047023 
L 97.641959 153.96458 
L 97.765027 153.593588 
L 97.774032 153.676031 
L 97.810052 153.593588 
L 97.924115 153.181374 
L 97.819057 153.634809 
L 97.948128 153.222595 
L 97.960135 153.263817 
L 98.032175 152.975267 
L 98.04118 152.975267 
L 98.050185 152.892824 
L 98.200267 152.274504 
L 98.221279 152.398168 
L 98.302324 152.068397 
L 98.359355 152.027176 
L 98.485425 151.614962 
L 98.6205 151.243969 
L 98.650516 151.285191 
L 98.704546 150.996641 
L 98.716553 151.037863 
L 98.845624 150.625649 
L 98.854629 150.66687 
L 98.887647 150.625649 
L 99.016718 150.089771 
L 99.07375 150.04855 
L 99.19982 149.636336 
L 99.202821 149.718779 
L 99.295873 149.347786 
L 99.298874 149.347786 
L 99.436951 148.935573 
L 99.442954 148.976794 
L 99.520997 148.688244 
L 99.530002 148.688244 
L 99.566022 148.647023 
L 99.68909 148.234809 
L 99.692092 148.276031 
L 99.770135 147.94626 
L 99.782141 147.987481 
L 99.923219 147.575267 
L 99.953236 147.534046 
L 100.076304 147.039389 
L 100.079305 147.080611 
L 100.082307 147.121832 
L 100.154347 146.792061 
L 100.163352 146.792061 
L 100.289422 146.338626 
L 100.319438 146.256183 
L 100.439504 145.802748 
L 100.334446 146.297405 
L 100.442506 145.843969 
L 100.445508 145.885191 
L 100.523551 145.596641 
L 100.535558 145.637863 
L 100.688642 145.060763 
L 100.697647 145.143206 
L 100.769687 144.813435 
L 100.787697 144.895878 
L 100.898758 144.483664 
L 100.910765 144.566107 
L 101.060848 144.030229 
L 101.063849 144.07145 
L 101.144894 143.782901 
L 101.153899 143.782901 
L 101.303982 143.205802 
L 101.315989 143.329466 
L 101.400035 142.917252 
L 101.406038 142.958473 
L 101.529106 142.628702 
L 101.679189 141.927939 
L 101.682191 142.010382 
L 101.697199 142.051603 
L 101.766237 141.763053 
L 101.778244 141.804275 
L 101.892307 141.392061 
L 101.901312 141.433282 
L 101.91632 141.35084 
L 102.051395 140.856183 
L 102.0604 140.897405 
L 102.108426 140.814962 
L 102.258509 140.279084 
L 102.264513 140.320305 
L 102.333551 140.031756 
L 102.348559 140.031756 
L 102.49564 139.454656 
L 102.354562 140.072977 
L 102.498642 139.495878 
L 102.522655 139.413435 
L 102.672738 138.877557 
L 102.696751 138.795115 
L 102.867846 137.970687 
L 102.888858 137.929466 
L 103.023932 137.269924 
L 103.059952 137.187481 
L 103.225043 136.445496 
L 103.264065 136.363053 
L 103.408144 135.909618 
L 103.414148 135.992061 
L 103.495192 135.66229 
L 103.510201 135.703511 
L 103.633269 135.37374 
L 103.519206 135.785954 
L 103.639272 135.456183 
L 103.645275 135.414962 
L 103.76234 135.126412 
L 103.813368 135.085191 
L 103.933435 134.714198 
L 103.936436 134.75542 
L 104.080516 134.178321 
L 104.083517 134.260763 
L 104.119537 134.178321 
L 104.263617 133.642443 
L 104.266619 133.683664 
L 104.293634 133.601221 
L 104.30564 133.642443 
L 104.440715 133.106565 
L 104.452721 133.189008 
L 104.530765 132.859237 
L 104.53977 132.859237 
L 104.680847 132.447023 
L 104.698857 132.488244 
L 104.746884 132.199695 
L 104.773899 132.240916 
L 104.923982 131.705038 
L 104.969007 131.622595 
L 105.113086 131.127939 
L 105.116088 131.210382 
L 105.215143 130.921832 
L 105.239156 130.839389 
L 105.398244 130.179847 
L 105.434264 130.097405 
L 105.575342 129.685191 
L 105.581345 129.726412 
L 105.659388 129.437863 
L 105.674396 129.520305 
L 105.824479 128.984427 
L 105.842489 128.901985 
L 105.983567 128.44855 
L 105.98957 128.530992 
L 106.073617 128.16 
L 106.082622 128.16 
L 106.226701 127.582901 
L 106.09763 128.201221 
L 106.232705 127.624122 
L 106.244711 127.665344 
L 106.307746 127.211908 
L 106.319753 127.294351 
L 106.469836 126.676031 
L 106.472837 126.758473 
L 106.56889 126.34626 
L 106.571892 126.428702 
L 106.592904 126.387481 
L 106.721975 125.892824 
L 106.724977 125.934046 
L 106.794015 125.686718 
L 106.82103 125.727939 
L 106.944098 125.192061 
L 106.995126 125.15084 
L 107.121196 124.656183 
L 107.124197 124.697405 
L 107.181229 124.408855 
L 107.214247 124.408855 
L 107.235259 124.367634 
L 107.355325 123.914198 
L 107.367332 123.95542 
L 107.43637 123.543206 
L 107.439371 123.584427 
L 107.595458 122.924885 
L 107.601461 123.007328 
L 107.691511 122.677557 
L 107.697514 122.718779 
L 107.718526 122.677557 
L 107.83559 122.265344 
L 107.838592 122.306565 
L 107.844595 122.224122 
L 107.958658 121.811908 
L 107.967663 121.894351 
L 108.123749 121.276031 
L 108.150764 121.193588 
L 108.297846 120.575267 
L 108.300847 120.698931 
L 108.399902 120.245496 
L 108.402904 120.327939 
L 108.528973 119.75084 
L 108.531975 119.792061 
L 108.546983 119.709618 
L 108.691063 119.214962 
L 108.694064 119.256183 
L 108.775109 118.885191 
L 108.781113 118.926412 
L 108.919189 118.349313 
L 108.937199 118.431756 
L 109.015242 118.101985 
L 109.024247 118.184427 
L 109.033252 118.143206 
L 109.153318 117.689771 
L 109.159321 117.730992 
L 109.19234 117.64855 
L 109.351428 116.947786 
L 109.372439 116.989008 
L 109.429471 116.618015 
L 109.438476 116.618015 
L 109.471494 116.576794 
L 109.597564 115.999695 
L 109.600565 116.082137 
L 109.603567 116.123359 
L 109.68161 115.669924 
L 109.687613 115.752366 
L 109.702622 115.711145 
L 109.828691 115.298931 
L 109.975772 114.804275 
L 109.999786 114.763053 
L 110.119852 114.185954 
L 110.122854 114.227176 
L 110.137862 114.144733 
L 110.287945 113.567634 
L 110.290947 113.608855 
L 110.36899 113.237863 
L 110.374993 113.237863 
L 110.537083 112.537099 
L 110.540084 112.578321 
L 110.606121 112.207328 
L 110.621129 112.207328 
L 110.744197 111.67145 
L 110.7502 111.712672 
L 110.777215 111.67145 
L 110.89428 111.135573 
L 110.900283 111.176794 
L 110.91229 111.259237 
L 111.044363 110.723359 
L 111.047364 110.805802 
L 111.143418 110.393588 
L 111.176436 110.352366 
L 111.308509 109.775267 
L 111.443583 109.198168 
L 111.452588 109.280611 
L 111.45559 109.321832 
L 111.536635 108.909618 
L 111.539636 108.992061 
L 111.656701 108.538626 
L 111.665706 108.579847 
L 111.683716 108.538626 
L 111.800781 108.208855 
L 111.695723 108.621069 
L 111.803782 108.250076 
L 111.809786 108.291298 
L 111.89083 107.920305 
L 111.893832 107.961527 
L 111.905839 107.879084 
L 111.914844 107.920305 
L 112.064927 107.219542 
L 112.07093 107.260763 
L 112.139968 106.889771 
L 112.154976 106.930992 
L 112.184993 106.84855 
L 112.311063 106.395115 
L 112.335076 106.395115 
L 112.458144 105.776794 
L 112.467149 105.900458 
L 112.557199 105.447023 
L 112.5602 105.447023 
L 112.587215 105.36458 
L 112.728293 104.911145 
L 112.743301 104.952366 
L 112.815341 104.663817 
L 112.824346 104.705038 
L 112.977431 104.086718 
L 112.983434 104.16916 
L 113.064479 103.756947 
L 113.226568 103.056183 
L 113.232572 103.097405 
L 113.30161 102.726412 
L 113.313616 102.767634 
L 113.475706 102.06687 
L 113.514727 101.984427 
L 113.66481 101.44855 
L 113.697829 101.366107 
L 113.835905 100.995115 
L 113.853915 101.036336 
L 113.904943 100.789008 
L 113.931958 100.789008 
L 114.079039 100.294351 
L 114.100051 100.335573 
L 114.154081 100.005802 
L 114.169089 100.005802 
L 114.190101 99.96458 
L 114.319172 99.428702 
L 114.343185 99.469924 
L 114.409222 99.140153 
L 114.427232 99.05771 
L 114.433235 99.098931 
L 114.580316 98.480611 
L 114.592323 98.398168 
L 114.745407 97.614962 
L 114.604329 98.439389 
L 114.754412 97.656183 
L 114.757414 97.697405 
L 114.829454 97.326412 
L 114.84146 97.326412 
L 114.868475 97.243969 
L 114.98554 97.037863 
L 114.886485 97.326412 
L 114.991543 97.079084 
L 115.015557 96.996641 
L 115.156634 96.543206 
L 115.159636 96.584427 
L 115.237679 96.254656 
L 115.246684 96.295878 
L 115.396767 95.718779 
L 115.40277 95.842443 
L 115.4568 95.512672 
L 115.49282 95.553893 
L 115.621892 95.306565 
L 115.660913 95.265344 
L 115.771974 94.894351 
L 115.780979 94.935573 
L 115.786983 94.976794 
L 115.871029 94.729466 
L 115.877032 94.729466 
L 115.889039 94.770687 
L 116.009105 94.358473 
L 116.021112 94.440916 
L 116.087149 94.111145 
L 116.111162 94.193588 
L 116.267248 93.534046 
L 116.273251 93.575267 
L 116.321278 93.286718 
L 116.363301 93.327939 
L 116.486369 92.833282 
L 116.609437 92.421069 
L 116.510382 92.874504 
L 116.624445 92.46229 
L 116.648459 92.421069 
L 116.750515 92.17374 
L 116.765523 92.256183 
L 116.783533 92.214962 
L 116.873583 91.885191 
L 116.900598 91.926412 
L 116.939619 92.008855 
L 116.993649 91.761527 
L 117.005656 91.843969 
L 117.146734 91.390534 
L 117.155739 91.472977 
L 117.245789 91.101985 
L 117.386867 90.689771 
L 117.422886 90.730992 
L 117.455905 90.566107 
L 117.491925 90.607328 
L 117.506933 90.524885 
L 117.626999 90.277557 
L 117.527944 90.607328 
L 117.633002 90.318779 
L 117.708044 90.277557 
L 117.82811 89.906565 
L 117.86413 89.824122 
L 117.975192 89.535573 
L 117.981195 89.618015 
L 118.014213 89.535573 
L 118.137281 89.205802 
L 118.146286 89.247023 
L 118.185308 89.205802 
L 118.311377 88.752366 
L 118.33539 88.793588 
L 118.398425 88.505038 
L 118.404429 88.54626 
L 118.536502 87.96916 
L 118.566518 87.927939 
L 118.692588 87.515725 
L 118.698591 87.556947 
L 118.779636 87.185954 
L 118.782638 87.227176 
L 118.917712 86.897405 
L 118.95073 86.814962 
L 119.091808 86.279084 
L 119.09481 86.320305 
L 119.100813 86.361527 
L 119.172853 85.908092 
L 119.175855 85.908092 
L 119.205871 85.825649 
L 119.346949 85.24855 
L 119.217878 85.86687 
L 119.349951 85.372214 
L 119.391974 85.289771 
L 119.515042 84.795115 
L 119.557065 84.753893 
L 119.665125 84.382901 
L 119.677132 84.424122 
L 119.683135 84.465344 
L 119.752173 84.135573 
L 119.767181 84.176794 
L 119.899254 83.888244 
L 119.917264 83.805802 
L 119.944279 83.888244 
L 120.049337 83.517252 
L 120.106369 83.434809 
L 120.208425 82.981374 
L 120.232438 83.022595 
L 120.265457 82.981374 
L 120.385523 82.445496 
L 120.394528 82.486718 
L 120.39753 82.56916 
L 120.487579 82.239389 
L 120.496584 82.239389 
L 120.637662 81.827176 
L 120.685689 81.744733 
L 120.802754 81.497405 
L 120.691692 81.785954 
L 120.808757 81.579847 
L 120.841775 81.497405 
L 120.961841 81.291298 
L 120.865788 81.538626 
L 120.964843 81.332519 
L 121.009868 81.291298 
L 121.144943 80.631756 
L 121.153948 80.672977 
L 121.201974 80.343206 
L 121.234992 80.425649 
L 121.361062 79.84855 
L 121.364064 79.889771 
L 121.367065 79.930992 
L 121.4301 79.642443 
L 121.460117 79.683664 
L 121.598193 78.941679 
L 121.619205 78.900458 
L 121.748276 78.323359 
L 121.757281 78.405802 
L 121.841327 77.869924 
L 121.844329 77.911145 
L 121.93738 77.705038 
L 121.958392 77.74626 
L 121.961394 77.828702 
L 122.054445 77.334046 
L 122.069453 77.45771 
L 122.1535 77.16916 
L 122.156501 77.210382 
L 122.282571 76.55084 
L 122.303583 76.509618 
L 122.432654 75.97374 
L 122.540714 75.891298 
L 122.687795 75.396641 
L 122.699801 75.396641 
L 122.702803 75.520305 
L 122.798856 75.149313 
L 122.80486 75.190534 
L 122.930929 74.530992 
L 122.936932 74.613435 
L 122.939934 74.654656 
L 123.008972 74.16 
L 123.017977 74.242443 
L 123.144047 73.789008 
L 123.156054 73.830229 
L 123.159055 73.87145 
L 123.246103 73.582901 
L 123.249105 73.624122 
L 123.375175 73.129466 
L 123.390183 73.211908 
L 123.399188 73.129466 
L 123.561277 72.387481 
L 123.564279 72.428702 
L 123.636319 71.934046 
L 123.63932 71.934046 
L 123.76539 71.439389 
L 123.795407 71.521832 
L 123.852438 71.192061 
L 123.85544 71.233282 
L 123.984511 70.697405 
L 124.047546 70.656183 
L 124.182621 69.95542 
L 124.203632 69.996641 
L 124.25466 69.584427 
L 124.266667 69.584427 
L 124.275672 69.543206 
L 124.410747 68.883664 
L 124.413748 68.966107 
L 124.494793 68.306565 
L 124.503798 68.389008 
L 124.632869 67.894351 
L 124.692903 67.811908 
L 124.830979 67.028702 
L 124.85199 66.94626 
L 125.137148 61.834809 
L 125.176169 14.76 
L 125.248209 59.402748 
L 125.398292 74.860763 
L 125.515357 75.520305 
L 125.527363 75.437863 
L 125.668441 74.613435 
L 126.019635 71.315725 
L 126.025639 71.233282 
L 126.211742 69.130992 
L 126.217745 69.04855 
L 126.535921 63.524885 
L 126.556932 41.966107 
L 126.580946 15.04855 
L 126.658989 58.701985 
L 126.815075 71.851603 
L 126.872106 71.76916 
L 127.235307 68.224122 
L 127.238309 68.265344 
L 127.253317 68.182901 
L 127.697562 60.598168 
L 127.742587 16.944733 
L 127.817629 53.796641 
L 127.976717 69.66687 
L 127.98272 69.708092 
L 128.033748 69.914198 
L 128.084776 69.460763 
L 128.880216 60.06229 
L 128.883217 60.103511 
L 128.937247 59.361527 
L 128.940249 59.361527 
L 129.000282 57.094351 
L 129.048309 17.480611 
L 129.12335 49.839389 
L 129.279436 65.544733 
L 129.315456 65.585954 
L 129.327463 65.668397 
L 129.405506 65.050076 
L 130.032852 55.033282 
L 130.059867 37.26687 
L 130.092886 20.118779 
L 130.161924 45.840916 
L 130.327015 63.030229 
L 130.33602 63.112672 
L 130.360033 63.277557 
L 130.423068 62.906565 
L 130.432073 62.906565 
L 130.78927 59.443969 
L 130.792272 59.485191 
L 130.804279 59.402748 
L 131.170481 53.178321 
L 131.212504 26.508092 
L 131.230514 22.592061 
L 131.290547 38.792061 
L 131.470647 59.279084 
L 131.596716 60.556947 
L 131.60272 60.474504 
L 131.755804 59.320305 
L 132.149021 52.84855 
L 132.215058 23.127939 
L 132.293101 43.285191 
L 132.464196 57.589008 
L 132.52723 57.96 
L 132.578259 57.712672 
L 132.623283 57.630229 
L 132.845406 56.105038 
L 132.863416 56.022595 
L 133.325671 48.561527 
L 133.385705 26.920305 
L 133.463748 40.688244 
L 133.637844 53.961527 
L 133.760912 54.66229 
L 133.769917 54.538626 
L 133.77592 54.538626 
L 133.910995 53.508092 
L 133.923001 53.46687 
L 134.115108 51.199695 
L 134.127114 51.158473 
L 134.349237 48.06687 
L 134.379253 47.984427 
L 134.415273 47.860763 
L 134.460298 48.314198 
L 134.583366 49.097405 
L 134.595373 48.97374 
L 134.622388 49.014962 
L 134.682421 48.643969 
L 134.823499 47.654656 
L 134.826501 47.778321 
L 134.904544 47.16 
L 134.925555 47.324885 
L 134.946567 47.366107 
L 135.081641 48.149313 
L 135.084643 48.108092 
L 135.126666 48.35542 
L 135.165688 47.695878 
L 135.264743 42.708092 
L 135.321774 27.66229 
L 135.387811 37.720305 
L 135.570912 50.993588 
L 135.573913 50.993588 
L 135.696981 51.941679 
L 135.699983 51.859237 
L 135.708988 51.941679 
L 135.769021 51.36458 
L 135.775024 51.447023 
L 135.919104 50.498931 
L 135.922106 50.540153 
L 135.982139 49.880611 
L 136.396368 42.790534 
L 136.459403 27.332519 
L 136.522437 37.101985 
L 136.702537 50.375267 
L 136.705539 50.334046 
L 136.810597 51.199695 
L 136.840613 51.034809 
L 137.48597 43.614962 
L 137.488971 43.656183 
L 137.500978 43.738626 
L 137.52199 43.779847 
L 137.570016 43.202748 
L 137.576019 43.243969 
L 137.594029 43.326412 
L 137.747114 44.315725 
L 137.765124 44.274504 
L 137.783134 43.944733 
L 137.879187 44.15084 
L 138.008258 44.892824 
L 138.04728 44.934046 
L 138.116318 44.810382 
L 138.164344 45.140153 
L 138.203366 45.05771 
L 138.359452 44.398168 
L 138.362454 44.439389 
L 138.41048 43.697405 
L 138.479519 43.285191 
L 138.521542 43.57374 
L 138.55456 43.697405 
L 138.617595 43.450076 
L 138.6266 43.491298 
L 138.650613 43.367634 
L 138.707645 43.86229 
L 138.719651 43.821069 
L 138.839717 44.233282 
L 138.869734 44.274504 
L 138.968789 43.202748 
L 139.11587 41.059237 
L 139.142885 41.389008 
L 139.395024 43.408855 
L 139.398026 43.367634 
L 139.482072 42.95542 
L 139.515091 43.120305 
L 139.65917 44.068397 
L 139.698192 44.192061 
L 139.797246 43.656183 
L 139.806251 43.738626 
L 139.830265 43.57374 
L 139.911309 43.697405 
L 140.031376 42.95542 
L 140.043382 43.079084 
L 140.046384 43.079084 
L 140.169452 42.584427 
L 140.229485 42.66687 
L 140.241492 42.708092 
L 140.301525 42.337099 
L 140.322537 42.419542 
L 140.337545 42.501985 
L 140.505638 44.068397 
L 140.517644 44.109618 
L 140.583681 44.356947 
L 140.622702 43.944733 
L 140.628706 43.86229 
L 140.667727 43.326412 
L 140.74577 43.57374 
L 140.7998 43.738626 
L 140.868838 43.367634 
L 140.877843 43.450076 
L 140.955886 42.708092 
L 140.958888 42.790534 
L 140.9799 42.872977 
L 140.982901 42.914198 
L 141.027926 42.584427 
L 141.066948 42.625649 
L 141.187014 36.895878 
L 141.238042 27.579847 
L 141.301077 35.659237 
L 141.496185 47.201221 
L 141.544212 47.283664 
L 141.583233 46.953893 
L 141.586235 46.995115 
L 141.754328 44.604275 
L 141.895406 42.996641 
L 141.952437 43.367634 
L 142.054493 44.027176 
L 142.087512 43.779847 
L 142.213581 43.367634 
L 142.225588 43.450076 
L 142.309634 42.95542 
L 142.321641 42.872977 
L 142.417694 42.04855 
L 142.480729 42.172214 
L 142.483731 42.213435 
L 142.549767 41.595115 
L 142.657827 40.482137 
L 142.690845 40.770687 
L 142.819916 42.04855 
L 142.831923 42.007328 
L 142.840928 41.924885 
L 142.994012 40.770687 
L 143.024029 40.605802 
L 143.078059 40.935573 
L 143.087064 40.935573 
L 143.240148 42.66687 
L 143.27917 42.749313 
L 143.411243 43.120305 
L 143.414245 43.037863 
L 143.483283 43.532519 
L 143.510298 43.408855 
L 143.543316 43.491298 
L 143.585339 42.914198 
L 143.717412 42.089771 
L 143.723415 42.172214 
L 143.729419 42.130992 
L 143.73242 42.04855 
L 143.831475 42.337099 
L 143.861492 42.419542 
L 143.915521 42.089771 
L 143.921525 42.089771 
L 143.987561 41.966107 
L 143.945538 42.213435 
L 144.023581 42.172214 
L 144.026583 42.254656 
L 144.113631 41.76 
L 144.119634 41.76 
L 144.143647 41.677557 
L 144.362769 39.822595 
L 144.377777 39.94626 
L 144.497843 40.811908 
L 144.503846 40.770687 
L 144.689949 41.801221 
L 144.695953 41.883664 
L 144.795007 42.295878 
L 144.828026 42.172214 
L 144.864045 42.089771 
L 144.990115 41.553893 
L 144.993117 41.595115 
L 145.005123 41.512672 
L 145.146201 40.605802 
L 145.248258 40.935573 
L 145.272271 40.85313 
L 145.299286 40.688244 
L 145.371326 41.141679 
L 145.374327 41.059237 
L 145.446367 40.976794 
L 145.476384 40.770687 
L 145.521409 41.389008 
L 145.653482 42.501985 
L 145.66849 42.419542 
L 146.019684 39.080611 
L 146.022685 39.121832 
L 146.064709 38.709618 
L 146.106732 38.792061 
L 146.187777 38.668397 
L 146.130745 38.874504 
L 146.217793 38.792061 
L 146.235803 38.874504 
L 146.487943 40.85313 
L 146.550977 41.100458 
L 146.62902 40.440916 
L 146.674045 40.399695 
L 146.698059 40.317252 
L 146.75509 40.85313 
L 146.7731 40.729466 
L 146.776102 40.770687 
L 146.84514 40.234809 
L 146.851143 40.276031 
L 146.857146 40.152366 
L 146.93519 40.482137 
L 146.962205 40.276031 
L 147.019236 40.193588 
L 147.097279 39.94626 
L 147.028241 40.234809 
L 147.127296 40.193588 
L 147.199336 40.688244 
L 147.247362 40.358473 
L 147.253365 40.276031 
L 147.325405 40.770687 
L 147.328407 40.770687 
L 147.469485 41.347786 
L 147.47849 41.306565 
L 147.499501 41.306565 
L 147.646583 39.245496 
L 147.649584 39.286718 
L 147.703614 38.585954 
L 147.706616 38.585954 
L 147.799667 30.712672 
L 147.838689 24.859237 
L 147.904725 32.114198 
L 148.09383 42.831756 
L 148.183879 43.57374 
L 148.234908 43.243969 
L 148.613117 38.544733 
L 148.658141 38.915725 
L 148.721176 39.286718 
L 148.763199 38.874504 
L 148.766201 38.956947 
L 148.781209 38.709618 
L 148.844244 39.163053 
L 148.871259 39.121832 
L 148.880264 39.080611 
L 149.033349 39.863817 
L 149.153415 39.65771 
L 149.051359 39.94626 
L 149.156417 39.698931 
L 149.18043 39.616489 
L 149.3065 38.75084 
L 149.330513 39.039389 
L 149.411558 39.863817 
L 149.459584 39.534046 
L 149.477594 39.575267 
L 149.543631 39.163053 
L 149.558639 39.080611 
L 149.639684 38.421069 
L 149.684708 38.668397 
L 149.690712 38.709618 
L 149.819783 39.740153 
L 149.834791 39.616489 
L 149.855803 39.65771 
L 149.909833 39.410382 
L 149.936848 39.492824 
L 149.972868 39.575267 
L 149.975869 39.616489 
L 150.032901 38.915725 
L 150.240015 37.55542 
L 150.258025 37.679084 
L 150.315057 37.26687 
L 150.342072 37.308092 
L 150.570198 38.956947 
L 150.612221 38.792061 
L 150.657246 39.080611 
L 150.672254 39.039389 
L 150.732287 38.792061 
L 150.822337 39.575267 
L 150.825339 39.534046 
L 150.88237 40.193588 
L 150.903382 40.276031 
L 150.981425 39.94626 
L 150.984426 39.94626 
L 151.254576 37.308092 
L 151.278589 37.431756 
L 151.296599 37.472977 
L 151.383647 37.720305 
L 151.40766 37.514198 
L 151.416665 37.55542 
L 151.440679 37.720305 
L 151.51572 37.349313 
L 151.518722 37.431756 
L 151.614775 37.472977 
L 151.635786 37.225649 
L 151.686814 37.596641 
L 151.752851 37.308092 
L 151.833896 36.895878 
L 151.866914 37.143206 
L 151.890927 37.019542 
L 151.995985 37.472977 
L 152.05902 37.308092 
L 152.104045 37.55542 
L 152.122055 37.596641 
L 152.23912 37.802748 
L 152.245123 37.720305 
L 152.269136 37.637863 
L 152.341176 37.885191 
L 152.344178 37.885191 
L 152.350181 37.926412 
L 152.404211 37.843969 
L 152.464244 38.17374 
L 152.500264 38.338626 
L 152.69237 34.051603 
L 152.7464 24.117252 
L 152.809435 31.784427 
L 152.995537 42.419542 
L 153.067577 42.749313 
L 153.100595 42.419542 
L 153.340728 38.874504 
L 153.346731 38.792061 
L 153.490811 37.596641 
L 153.523829 37.885191 
L 153.529833 37.967634 
L 153.667909 38.421069 
L 153.670911 38.379847 
L 153.715935 38.297405 
L 153.736947 38.46229 
L 153.884028 34.793588 
L 153.944061 23.210382 
L 154.007096 31.413435 
L 154.193199 43.86229 
L 154.208207 43.944733 
L 154.265239 43.408855 
L 154.271242 43.408855 
L 154.517378 39.65771 
L 154.523381 39.616489 
L 154.724493 36.937099 
L 154.730496 36.978321 
L 154.745504 36.772214 
L 154.805537 37.431756 
L 154.808539 37.390534 
L 154.841557 37.596641 
L 154.913597 37.308092 
L 154.916599 37.308092 
L 154.9196 37.308092 
L 155.036665 36.112672 
L 155.054675 36.236336 
L 155.219766 38.050076 
L 155.279799 37.802748 
L 155.342834 37.802748 
L 155.405869 38.338626 
L 155.453895 37.926412 
L 155.591972 37.143206 
L 155.600977 37.101985 
L 155.781076 29.352366 
L 155.823099 22.427176 
L 155.889136 29.14626 
L 156.108257 41.224122 
L 156.141275 41.512672 
L 156.189302 40.935573 
L 156.195305 40.935573 
L 156.63955 35.824122 
L 156.660562 36.030229 
L 156.795637 37.143206 
L 156.666565 35.989008 
L 156.828655 36.813435 
L 156.834658 36.772214 
L 156.966731 35.824122 
L 156.987743 35.741679 
L 157.050778 35.205802 
L 157.104807 35.370687 
L 157.164841 35.082137 
L 157.212867 35.411908 
L 157.36295 36.483664 
L 157.513033 37.349313 
L 157.52504 37.225649 
L 157.642104 36.36 
L 157.681126 36.566107 
L 157.732154 36.937099 
L 157.774177 36.36 
L 157.92426 35.16458 
L 157.927262 35.205802 
L 158.020313 34.298931 
L 158.062336 34.793588 
L 158.206416 35.741679 
L 158.215421 35.659237 
L 158.290462 35.989008 
L 158.293464 35.989008 
L 158.356499 36.607328 
L 158.419534 36.524885 
L 158.542602 36.07145 
L 158.545603 36.112672 
L 158.548605 36.153893 
L 158.617643 35.618015 
L 158.797743 34.505038 
L 158.803746 34.587481 
L 158.911806 34.793588 
L 158.884791 34.505038 
L 158.917809 34.752366 
L 159.043879 33.886718 
L 159.070894 34.134046 
L 159.148937 34.463817 
L 159.196963 34.381374 
L 159.220976 34.298931 
L 159.266001 34.669924 
L 159.305023 34.422595 
L 159.320031 34.340153 
L 159.323033 34.25771 
L 159.395073 34.876031 
L 159.416084 34.752366 
L 159.587179 35.576794 
L 159.623199 35.659237 
L 159.746267 36.07145 
L 159.91436 34.463817 
L 159.923365 34.381374 
L 160.082452 33.721832 
L 160.232535 34.381374 
L 160.139484 33.474504 
L 160.235537 34.340153 
L 160.238539 34.298931 
L 160.298572 34.958473 
L 160.3496 35.45313 
L 160.418638 35.082137 
L 160.436648 35.040916 
L 160.529699 34.669924 
L 160.553713 34.876031 
L 160.622751 35.082137 
L 160.649766 34.834809 
L 160.658771 34.876031 
L 160.742817 34.54626 
L 160.775835 34.711145 
L 160.952933 33.763053 
L 161.05499 33.927939 
L 160.973945 33.680611 
L 161.069998 33.845496 
L 161.082005 33.763053 
L 161.160048 33.433282 
L 161.193066 33.763053 
L 161.226084 34.010382 
L 161.292121 33.433282 
L 161.298124 33.433282 
L 161.481225 30.424122 
L 161.892452 35.205802 
L 161.499235 30.341679 
L 161.919467 34.917252 
L 162.150595 31.619542 
L 162.186615 31.166107 
L 162.240645 31.86687 
L 162.396731 33.474504 
L 162.459766 33.392061 
L 162.63086 32.485191 
L 162.780943 33.556947 
L 162.795951 33.639389 
L 162.852983 34.010382 
L 162.898008 33.598168 
L 162.907013 33.680611 
L 163.039086 32.526412 
L 163.141142 31.372214 
L 163.219185 31.578321 
L 163.243198 31.660763 
L 163.414293 33.309618 
L 163.4263 33.392061 
L 163.492336 33.845496 
L 163.549368 33.680611 
L 163.684442 32.526412 
L 163.687444 32.567634 
L 163.738472 32.608855 
L 163.750479 32.732519 
L 163.828522 32.031756 
L 163.906565 31.454656 
L 163.948588 31.743206 
L 163.954591 31.784427 
L 164.074658 32.15542 
L 164.128688 31.990534 
L 164.176714 32.320305 
L 164.179716 32.320305 
L 164.356814 33.227176 
L 164.371822 33.144733 
L 164.485885 32.485191 
L 164.49489 32.567634 
L 164.581938 32.77374 
L 164.539915 32.526412 
L 164.605951 32.567634 
L 164.699003 32.031756 
L 164.735023 32.320305 
L 164.885105 33.598168 
L 164.927129 33.433282 
L 165.089218 31.660763 
L 165.131241 32.072977 
L 165.263314 33.886718 
L 165.281324 33.763053 
L 165.287328 33.763053 
L 165.470429 30.712672 
L 165.47343 30.753893 
L 165.533464 30.382901 
L 165.560479 30.424122 
L 165.572485 30.506565 
L 165.74358 31.413435 
L 165.638522 30.341679 
L 165.746581 31.372214 
L 165.767593 31.454656 
L 165.863646 32.237863 
L 165.917676 31.990534 
L 165.968704 32.072977 
L 166.085769 31.207328 
L 166.184823 31.289771 
L 166.211838 31.454656 
L 166.265868 31.207328 
L 166.298886 31.372214 
L 166.403944 30.589008 
L 166.319898 31.454656 
L 166.433961 31.042443 
L 166.521009 31.413435 
L 166.551026 31.24855 
L 166.569036 31.207328 
L 166.683099 30.918779 
L 166.629069 31.24855 
L 166.689102 30.96 
L 166.70411 31.001221 
L 166.845188 32.402748 
L 166.84819 32.361527 
L 166.986266 31.330992 
L 166.99227 31.413435 
L 167.001274 31.454656 
L 167.046299 31.743206 
L 167.010279 31.413435 
L 167.112336 31.495878 
L 167.262419 30.836336 
L 167.26542 30.918779 
L 167.358472 31.24855 
L 167.394492 31.166107 
L 167.565586 23.581374 
L 167.598604 19.665344 
L 167.661639 26.672977 
L 167.841739 36.483664 
L 168.493099 28.816489 
L 167.847742 36.524885 
L 168.502104 28.940153 
L 168.643181 30.465344 
L 168.646183 30.424122 
L 168.790263 29.847023 
L 168.652186 30.506565 
L 168.796266 29.888244 
L 168.811274 29.847023 
L 168.922336 30.176794 
L 168.952352 30.259237 
L 169.036399 30.011908 
L 169.195487 30.918779 
L 169.051407 29.805802 
L 169.210495 30.877557 
L 169.249516 30.96 
L 169.351573 30.465344 
L 169.366581 30.382901 
L 169.456631 29.929466 
L 169.492651 30.135573 
L 169.507659 30.094351 
L 169.651739 30.795115 
L 169.822833 29.640916 
L 169.660744 30.836336 
L 169.83484 29.76458 
L 169.948903 30.67145 
L 169.999931 30.547786 
L 170.101987 30.382901 
L 170.110992 30.506565 
L 170.132004 30.547786 
L 170.228057 31.743206 
L 170.258074 31.495878 
L 170.573248 28.321832 
L 170.27008 31.578321 
L 170.594259 28.404275 
L 170.618273 28.486718 
L 170.792369 29.393588 
L 170.858405 29.352366 
L 170.88542 29.558473 
L 170.888422 29.558473 
L 170.984475 30.176794 
L 171.020495 29.847023 
L 171.191589 29.022595 
L 171.194591 29.022595 
L 171.317659 28.445496 
L 171.362684 28.651603 
L 171.407709 28.239389 
L 171.530777 27.868397 
L 171.55479 27.868397 
L 171.629831 28.651603 
L 171.683861 28.610382 
L 171.695868 28.692824 
L 171.845951 29.228702 
L 171.851954 29.187481 
L 171.914989 29.723359 
L 171.917991 29.723359 
L 171.920992 29.76458 
L 171.960014 29.269924 
L 171.999035 29.311145 
L 172.176133 27.827176 
L 172.200146 28.033282 
L 172.281191 28.56916 
L 172.323214 28.363053 
L 172.452286 28.940153 
L 172.467294 28.816489 
L 172.479301 28.85771 
L 172.56935 29.269924 
L 172.599367 29.105038 
L 172.608372 29.14626 
L 172.686415 28.775267 
L 172.800478 27.744733 
L 172.842501 28.115725 
L 173.001589 29.022595 
L 172.851506 28.074504 
L 173.010594 28.898931 
L 173.163679 27.744733 
L 173.187692 27.827176 
L 173.307758 28.775267 
L 173.355785 28.651603 
L 173.406813 28.445496 
L 173.445835 28.734046 
L 173.466846 28.651603 
L 173.535884 28.940153 
L 173.478853 28.610382 
L 173.589914 28.816489 
L 173.604922 28.898931 
L 173.688969 29.063817 
L 173.613927 28.816489 
L 173.718985 28.940153 
L 173.721987 28.940153 
L 173.851058 28.074504 
L 173.85406 28.156947 
L 173.9261 27.085191 
L 174.073181 26.425649 
L 174.082186 26.46687 
L 174.109201 26.508092 
L 174.271291 28.280611 
L 174.283297 28.239389 
L 174.34333 28.816489 
L 174.406365 28.527939 
L 174.556448 26.879084 
L 174.586465 26.508092 
L 174.646498 26.920305 
L 174.658504 26.920305 
L 174.757559 27.621069 
L 174.667509 26.879084 
L 174.787576 27.456183 
L 174.859616 26.714198 
L 174.907642 27.167634 
L 174.910644 27.167634 
L 175.024707 28.321832 
L 175.04872 28.280611 
L 175.243828 26.672977 
L 175.057725 28.321832 
L 175.264839 26.837863 
L 175.294856 26.75542 
L 175.327874 26.508092 
L 175.381904 27.043969 
L 175.384906 27.043969 
L 175.456946 26.961527 
L 175.507974 27.208855 
L 175.513977 27.208855 
L 175.546995 27.414962 
L 175.619035 27.002748 
L 175.622037 27.085191 
L 175.667062 27.002748 
L 175.709085 26.837863 
L 175.766116 27.167634 
L 175.769118 27.126412 
L 175.77212 27.126412 
L 175.823148 27.332519 
L 175.880179 27.085191 
L 175.886183 27.043969 
L 176.015254 25.972214 
L 176.018256 25.930992 
L 176.102302 26.260763 
L 176.258388 27.95084 
L 176.270395 27.868397 
L 176.288405 27.868397 
L 176.414475 27.167634 
L 176.435486 27.085191 
L 176.582567 25.601221 
L 176.588571 25.518779 
L 176.630594 25.27145 
L 176.67862 25.724885 
L 176.684624 25.724885 
L 176.690627 25.766107 
L 176.846713 28.074504 
L 176.855718 28.033282 
L 176.924756 28.651603 
L 176.975785 28.198168 
L 177.167891 27.085191 
L 177.173894 27.085191 
L 177.263944 25.84855 
L 177.302965 26.343206 
L 177.32998 26.384427 
L 177.453048 26.837863 
L 177.486066 27.043969 
L 177.567111 26.672977 
L 177.579118 26.590534 
L 177.705188 26.137099 
L 177.708189 26.178321 
L 177.768222 25.56 
L 177.774226 25.601221 
L 177.852269 25.27145 
L 177.882285 25.56 
L 178.03537 26.837863 
L 178.038372 26.796641 
L 178.134425 27.002748 
L 178.155436 26.879084 
L 178.185453 26.714198 
L 178.239483 27.085191 
L 178.248488 27.085191 
L 178.260494 27.167634 
L 178.326531 26.260763 
L 178.329532 26.301985 
L 178.356547 26.384427 
L 178.386564 26.75542 
L 178.428587 26.178321 
L 178.449599 26.178321 
L 178.530644 25.518779 
L 178.599682 25.642443 
L 178.698736 25.683664 
L 178.620693 25.477557 
L 178.70474 25.601221 
L 178.716746 25.56 
L 178.779781 25.972214 
L 178.788786 25.972214 
L 178.956879 26.796641 
L 179.03192 26.095878 
L 179.088952 26.219542 
L 179.100959 26.301985 
L 179.233032 26.879084 
L 179.251041 26.837863 
L 179.263048 26.75542 
L 179.509184 24.323359 
L 179.287061 26.879084 
L 179.539201 24.488244 
L 179.62925 25.106565 
L 179.668272 25.024122 
L 179.68328 25.024122 
L 179.686282 24.900458 
L 179.770328 25.84855 
L 179.77333 25.84855 
L 179.91741 26.343206 
L 180.076497 25.683664 
L 180.097509 25.601221 
L 180.130527 25.395115 
L 180.187559 25.84855 
L 180.277609 26.549313 
L 180.325635 26.219542 
L 180.505735 24.117252 
L 180.508736 24.158473 
L 180.562766 24.034809 
L 180.718852 25.518779 
L 180.748869 25.601221 
L 180.754872 25.683664 
L 180.802899 25.312672 
L 180.850925 25.353893 
L 180.856929 25.230229 
L 180.910958 25.518779 
L 180.958985 25.395115 
L 180.961987 25.477557 
L 181.028023 24.65313 
L 181.049035 24.818015 
L 181.193114 25.972214 
L 181.226133 25.724885 
L 181.274159 25.395115 
L 181.334192 25.683664 
L 181.38522 26.260763 
L 181.448255 25.807328 
L 181.460262 25.724885 
L 181.640361 24.36458 
L 181.65537 24.529466 
L 181.838471 25.601221 
L 181.841472 25.56 
L 181.904507 25.642443 
L 181.988554 26.137099 
L 182.021572 25.889771 
L 182.129632 25.518779 
L 182.057592 25.972214 
L 182.150643 25.601221 
L 182.213678 25.84855 
L 182.168653 25.56 
L 182.255701 25.56 
L 182.291721 25.353893 
L 182.357758 25.889771 
L 182.360759 25.84855 
L 182.363761 25.889771 
L 182.408786 25.477557 
L 182.447807 25.601221 
L 182.534856 25.065344 
L 182.570875 25.27145 
L 182.627907 25.312672 
L 182.681937 25.766107 
L 182.744972 25.518779 
L 182.910063 24.735573 
L 182.913064 24.818015 
L 182.985104 24.282137 
L 183.006116 24.36458 
L 183.045137 24.158473 
L 183.105171 24.529466 
L 183.144192 24.941679 
L 183.234242 24.818015 
L 183.237244 24.776794 
L 183.300278 25.353893 
L 183.360312 25.477557 
L 183.396331 25.024122 
L 183.510394 24.282137 
L 183.558421 24.323359 
L 183.621456 24.694351 
L 183.672484 24.447023 
L 183.690494 24.36458 
L 183.768537 24.117252 
L 183.711506 24.447023 
L 183.816564 24.158473 
L 183.82857 24.240916 
L 183.8826 23.663817 
L 183.894607 23.705038 
L 183.897608 23.663817 
L 183.95464 24.076031 
L 183.981655 23.993588 
L 183.984656 24.076031 
L 184.065701 23.375267 
L 184.068703 23.375267 
L 184.083711 23.292824 
L 184.170759 22.138626 
L 184.227791 22.798168 
L 184.449913 25.230229 
L 184.488935 24.941679 
L 184.627011 23.787481 
L 184.64202 23.828702 
L 184.696049 23.251603 
L 184.699051 23.251603 
L 184.771091 22.674504 
L 184.819117 23.127939 
L 184.825121 23.210382 
L 185.00522 24.941679 
L 185.038238 24.694351 
L 185.206331 23.045496 
L 185.251356 23.004275 
L 185.329399 23.292824 
L 185.332401 23.16916 
L 185.374424 23.622595 
L 185.434457 23.45771 
L 185.452467 23.540153 
L 185.611555 24.859237 
L 185.641572 25.147786 
L 185.704607 24.694351 
L 185.707608 24.694351 
L 185.899714 23.16916 
L 185.914723 23.334046 
L 185.935734 23.416489 
L 185.962749 23.251603 
L 186.022782 23.292824 
L 186.031787 23.251603 
L 186.061804 23.086718 
L 186.115834 23.952366 
L 186.118835 23.911145 
L 186.232898 24.36458 
L 186.244905 24.323359 
L 186.256912 24.447023 
L 186.32595 23.952366 
L 186.328951 23.993588 
L 186.485038 21.767634 
L 186.509051 22.014962 
L 186.557077 22.509618 
L 186.629117 22.427176 
L 186.749184 23.416489 
L 186.791207 23.210382 
L 186.914275 22.55084 
L 186.917276 22.592061 
L 187.028338 23.416489 
L 186.938288 22.468397 
L 187.067359 23.16916 
L 187.202434 21.891298 
L 187.208437 21.932519 
L 187.262467 21.726412 
L 187.295485 22.509618 
L 187.39454 24.076031 
L 187.433562 23.705038 
L 187.55663 23.127939 
L 187.565635 23.045496 
L 187.670693 22.509618 
L 187.691704 22.798168 
L 187.808769 23.498931 
L 187.823777 23.45771 
L 187.8658 23.375267 
L 187.898819 23.581374 
L 187.931837 23.498931 
L 187.934839 23.498931 
L 188.003877 22.963053 
L 188.0459 23.375267 
L 188.09993 23.787481 
L 188.147956 23.292824 
L 188.15396 23.292824 
L 188.156961 23.251603 
L 188.17197 23.416489 
L 188.259018 23.375267 
L 188.277028 23.292824 
L 188.472135 22.014962 
L 188.475137 22.056183 
L 188.616215 22.715725 
L 188.49915 21.932519 
L 188.631223 22.674504 
L 188.640228 22.633282 
L 188.766298 22.221069 
L 188.895369 23.127939 
L 188.898371 23.086718 
L 188.925386 23.292824 
L 188.994424 22.921832 
L 188.997426 22.921832 
L 189.156513 21.396641 
L 189.195535 21.726412 
L 189.201538 21.767634 
L 189.309598 22.715725 
L 189.342616 22.592061 
L 189.390643 22.55084 
L 189.462683 21.767634 
L 189.504706 22.468397 
L 189.618769 23.416489 
L 189.63978 23.210382 
L 189.774855 22.056183 
L 189.786862 22.179847 
L 189.840892 22.097405 
L 189.852898 21.97374 
L 189.879913 22.344733 
L 189.888918 22.344733 
L 190.029996 66.534046 
L 190.276132 85.24855 
L 190.939498 100.418015 
L 190.954507 100.500458 
L 191.131605 102.437863 
L 191.134606 102.396641 
L 191.14061 102.479084 
L 191.380742 104.292824 
L 191.383744 104.251603 
L 191.458785 104.663817 
L 191.464789 104.663817 
L 191.644888 105.65313 
L 191.650891 105.611908 
L 191.725933 106.065344 
L 191.903031 106.972214 
L 191.921041 107.054656 
L 192.086132 107.796641 
L 192.116148 107.837863 
L 192.24522 108.37374 
L 192.254225 108.332519 
L 192.311256 108.621069 
L 192.332268 108.579847 
L 192.452334 109.156947 
L 192.455336 109.115725 
L 192.464341 109.074504 
L 192.539382 109.363053 
L 192.548387 109.363053 
L 192.623429 109.404275 
L 192.743495 109.692824 
L 192.755502 109.610382 
L 192.815535 109.816489 
L 192.851555 109.775267 
L 192.950609 110.022595 
L 192.869565 109.734046 
L 192.968619 109.940153 
L 192.998636 110.022595 
L 193.127707 110.269924 
L 193.208752 110.187481 
L 193.172732 110.352366 
L 193.232765 110.311145 
L 193.328818 110.393588 
L 193.298802 110.269924 
L 193.346828 110.352366 
L 193.42187 110.311145 
L 193.391853 110.517252 
L 193.451886 110.434809 
L 193.523926 110.723359 
L 193.568951 110.682137 
L 193.622981 110.599695 
L 193.662002 110.76458 
L 193.674009 110.723359 
L 193.734042 110.847023 
L 193.773064 110.682137 
L 193.782069 110.805802 
L 193.887127 110.682137 
L 193.851107 110.847023 
L 193.89313 110.805802 
L 193.974175 111.011908 
L 193.908138 110.723359 
L 194.010195 110.888244 
L 194.163279 110.970687 
L 194.166281 111.011908 
L 194.208304 110.805802 
L 194.268337 110.970687 
L 194.331372 110.805802 
L 194.358387 111.011908 
L 194.3824 110.888244 
L 194.403412 110.929466 
L 194.47245 110.76458 
L 194.487458 110.847023 
L 194.50847 110.805802 
L 194.538487 110.929466 
L 194.592516 110.847023 
L 194.676563 110.970687 
L 194.706579 110.929466 
L 194.712583 110.888244 
L 194.829647 111.094351 
L 194.838652 110.970687 
L 194.934705 111.218015 
L 194.937707 111.05313 
L 195.048768 111.218015 
L 195.05177 111.176794 
L 195.12381 111.259237 
L 195.207856 111.300458 
L 195.174838 111.135573 
L 195.23187 111.218015 
L 195.700128 111.259237 
L 195.751156 111.341679 
L 195.718138 111.176794 
L 195.81119 111.259237 
L 195.862218 111.218015 
L 195.883229 111.05313 
L 195.970278 111.300458 
L 195.973279 111.218015 
L 196.048321 111.300458 
L 196.057326 111.176794 
L 196.084341 111.218015 
L 196.28245 111.135573 
L 196.342483 111.05313 
L 196.294457 111.259237 
L 196.39051 111.176794 
L 196.453544 111.218015 
L 196.474556 111.011908 
L 196.495568 111.094351 
L 196.684672 111.011908 
L 196.696679 111.05313 
L 196.792732 110.970687 
L 196.891787 111.135573 
L 196.804738 110.929466 
L 196.906795 111.094351 
L 196.993843 111.011908 
L 197.014855 111.05313 
L 197.116911 110.805802 
L 197.131919 110.970687 
L 197.188951 110.682137 
L 197.221969 110.682137 
L 197.266994 110.76458 
L 197.272997 110.805802 
L 197.336032 110.558473 
L 197.372052 110.76458 
L 197.47711 110.558473 
L 197.489117 110.599695 
L 197.525136 110.640916 
L 197.609183 110.476031 
L 197.615186 110.476031 
L 197.720244 110.352366 
L 197.726248 110.434809 
L 197.756264 110.434809 
L 197.759266 110.311145 
L 197.816297 110.517252 
L 197.867325 110.393588 
L 197.94837 110.434809 
L 198.008403 110.599695 
L 198.062433 110.558473 
L 198.101455 110.558473 
L 198.1825 110.434809 
L 198.14648 110.599695 
L 198.212516 110.558473 
L 198.251538 110.558473 
L 198.347591 110.393588 
L 198.260543 110.599695 
L 198.365601 110.434809 
L 198.386612 110.517252 
L 198.413627 110.352366 
L 198.47366 110.393588 
L 198.530692 110.476031 
L 198.63575 110.517252 
L 198.560709 110.393588 
L 198.638752 110.476031 
L 198.728801 110.434809 
L 198.704788 110.558473 
L 198.746811 110.476031 
L 198.839863 110.599695 
L 198.758818 110.393588 
L 198.857873 110.476031 
L 198.899896 110.434809 
L 198.902898 110.352366 
L 198.959929 110.599695 
L 199.007956 110.517252 
L 199.022964 110.558473 
L 199.122019 110.393588 
L 199.19706 110.517252 
L 199.164042 110.311145 
L 199.23308 110.476031 
L 199.356148 110.269924 
L 199.386165 110.352366 
L 199.425186 110.14626 
L 199.464208 110.228702 
L 199.566264 110.14626 
L 199.494224 110.311145 
L 199.575269 110.228702 
L 199.620294 110.187481 
L 199.626297 110.105038 
L 199.66832 110.269924 
L 199.728354 110.187481 
L 199.737359 110.311145 
L 199.74036 110.105038 
L 199.833412 110.14626 
L 199.93847 110.063817 
L 199.860427 110.228702 
L 199.944473 110.14626 
L 200.127574 110.063817 
L 200.217624 109.981374 
L 200.160592 110.14626 
L 200.238635 110.022595 
L 200.313677 110.14626 
L 200.352698 110.105038 
L 200.40973 110.022595 
L 200.376712 110.187481 
L 200.460758 110.063817 
L 200.490775 110.187481 
L 200.559813 109.981374 
L 200.568818 110.022595 
L 200.784937 110.063817 
L 200.895999 110.187481 
L 200.793942 110.022595 
L 200.899 110.14626 
L 200.992052 110.269924 
L 200.947027 110.105038 
L 201.010062 110.228702 
L 201.052085 110.14626 
L 201.082101 110.311145 
L 201.118121 110.311145 
L 201.190161 110.187481 
L 201.232184 110.269924 
L 201.274208 110.269924 
L 201.358254 110.105038 
L 201.385269 110.228702 
L 201.502334 110.063817 
L 201.505335 110.105038 
L 201.592383 110.105038 
L 201.706446 109.940153 
L 201.802499 109.85771 
L 201.910559 109.775267 
L 201.814506 109.940153 
L 201.913561 109.816489 
L 202.018619 109.940153 
L 201.922566 109.775267 
L 202.030625 109.898931 
L 202.138685 109.692824 
L 202.14769 109.816489 
L 202.1657 109.734046 
L 202.20172 109.610382 
L 202.189713 109.775267 
L 202.282765 109.651603 
L 202.372814 109.775267 
L 202.30978 109.610382 
L 202.393826 109.692824 
L 202.444854 109.56916 
L 202.507889 109.651603 
L 202.579929 109.56916 
L 202.639962 109.445496 
L 202.597939 109.610382 
L 202.69099 109.527939 
L 202.718005 109.56916 
L 202.760028 109.404275 
L 202.790045 109.445496 
L 202.901106 109.239389 
L 202.802052 109.486718 
L 202.90711 109.280611 
L 203.000161 109.363053 
L 203.003163 109.404275 
L 203.051189 109.156947 
L 203.096214 109.198168 
L 203.102217 109.239389 
L 203.219282 109.033282 
L 203.303328 108.95084 
L 203.309332 109.033282 
L 203.429398 108.744733 
L 203.45041 108.868397 
L 203.540459 108.785954 
L 203.618503 108.703511 
L 203.621504 108.66229 
L 203.663527 108.827176 
L 203.729564 108.703511 
L 203.807607 108.703511 
L 203.88565 108.579847 
L 203.837624 108.744733 
L 203.918668 108.66229 
L 204.02973 108.785954 
L 203.954688 108.579847 
L 204.035733 108.744733 
L 204.155799 108.703511 
L 204.260857 108.497405 
L 204.269862 108.538626 
L 204.275866 108.621069 
L 204.317889 108.456183 
L 204.383925 108.579847 
L 204.401935 108.497405 
L 204.404937 108.414962 
L 204.452964 108.579847 
L 204.512997 108.497405 
L 204.585036 108.414962 
L 204.558022 108.579847 
L 204.62706 108.456183 
L 204.651073 108.538626 
L 204.720111 108.291298 
L 204.735119 108.414962 
L 204.774141 108.37374 
L 204.834174 108.456183 
L 204.888204 108.291298 
L 204.921222 108.37374 
L 204.975252 108.456183 
L 204.930227 108.291298 
L 205.029282 108.37374 
L 205.119332 108.208855 
L 205.143345 108.291298 
L 205.248403 108.250076 
L 205.293428 108.332519 
L 205.362466 108.167634 
L 205.554572 108.085191 
L 205.626612 108.043969 
L 205.650625 108.167634 
L 205.665633 108.085191 
L 205.704655 108.043969 
L 205.779696 108.208855 
L 205.887756 108.002748 
L 205.818718 108.291298 
L 205.890758 108.126412 
L 205.968801 108.208855 
L 205.950791 108.085191 
L 206.001819 108.126412 
L 206.052847 108.043969 
L 206.154904 107.920305 
L 206.106877 108.085191 
L 206.16691 107.961527 
L 206.229945 108.085191 
L 206.205932 107.920305 
L 206.27497 107.920305 
L 206.313992 107.837863 
L 206.353013 107.75542 
L 206.410045 107.920305 
L 206.425053 107.796641 
L 206.458071 107.837863 
L 206.518104 107.631756 
L 206.524108 107.631756 
L 206.752234 107.672977 
L 206.860293 107.75542 
L 206.848287 107.549313 
L 206.863295 107.714198 
L 206.974356 107.590534 
L 206.94434 107.75542 
L 206.98036 107.631756 
L 207.03439 107.672977 
L 207.037391 107.75542 
L 207.118436 107.590534 
L 207.145451 107.672977 
L 207.229497 107.75542 
L 207.172466 107.631756 
L 207.259514 107.714198 
L 207.32555 107.508092 
L 207.265517 107.75542 
L 207.373577 107.590534 
L 207.37958 107.672977 
L 207.424605 107.508092 
L 207.484638 107.590534 
L 207.529663 107.672977 
L 207.589696 107.714198 
L 207.544671 107.590534 
L 207.634721 107.590534 
L 207.715766 107.631756 
L 207.718768 107.714198 
L 207.751786 107.549313 
L 207.826827 107.631756 
L 207.92288 107.714198 
L 207.997922 107.879084 
L 207.949895 107.672977 
L 208.036943 107.75542 
L 208.090973 107.75542 
L 208.208038 107.508092 
L 208.286081 107.590534 
L 208.295086 107.46687 
L 208.316098 107.508092 
L 208.418154 107.343206 
L 208.376131 107.590534 
L 208.433162 107.384427 
L 208.445169 107.425649 
L 208.511205 107.219542 
L 208.529215 107.301985 
L 208.604257 107.178321 
L 208.640277 107.260763 
L 208.832383 107.301985 
L 208.931438 107.425649 
L 208.862399 107.260763 
L 208.946446 107.384427 
L 209.051504 107.425649 
L 208.988469 107.260763 
L 209.057507 107.384427 
L 209.11754 107.301985 
L 209.126545 107.425649 
L 209.168569 107.384427 
L 209.300641 107.343206 
L 209.339663 107.219542 
L 209.399696 107.425649 
L 209.411703 107.343206 
L 209.426711 107.260763 
L 209.510758 107.219542 
L 209.522764 107.343206 
L 209.534771 107.301985 
L 209.540774 107.343206 
L 209.576794 107.178321 
L 209.636827 107.178321 
L 209.723875 107.260763 
L 209.726877 107.343206 
L 209.747889 107.178321 
L 209.831935 107.219542 
L 209.927988 107.219542 
L 209.96701 107.384427 
L 210.039049 107.260763 
L 210.144107 107.343206 
L 210.147109 107.384427 
L 210.228154 107.095878 
L 210.243162 107.178321 
L 210.303195 107.178321 
L 210.417258 107.013435 
L 210.42026 107.054656 
L 210.489298 106.84855 
L 210.519315 106.889771 
L 210.618369 106.84855 
L 210.732432 106.683664 
L 210.825484 106.807328 
L 210.813477 106.56 
L 210.843494 106.683664 
L 210.894522 106.56 
L 210.921537 106.766107 
L 210.954555 106.683664 
L 211.002582 106.724885 
L 211.07162 106.889771 
L 211.086628 106.683664 
L 211.113643 106.724885 
L 211.155666 106.807328 
L 211.203693 106.642443 
L 211.224704 106.724885 
L 211.326761 106.642443 
L 211.365782 106.807328 
L 211.440824 106.56 
L 211.458834 106.642443 
L 211.527872 106.436336 
L 211.548883 106.56 
L 211.65094 106.353893 
L 211.662946 106.436336 
L 211.891072 106.477557 
L 211.933096 106.56 
L 211.984124 106.395115 
L 211.999132 106.436336 
L 212.044157 106.395115 
L 212.15822 106.27145 
L 212.179232 106.230229 
L 212.275285 106.395115 
L 212.329315 106.27145 
L 212.359331 106.477557 
L 212.386346 106.395115 
L 212.395351 106.477557 
L 212.434373 106.27145 
L 212.500409 106.436336 
L 212.512416 106.395115 
L 212.527424 106.56 
L 212.602465 106.518779 
L 212.716528 106.724885 
L 212.61147 106.477557 
L 212.71953 106.642443 
L 212.779563 106.601221 
L 212.800575 106.766107 
L 212.824588 106.724885 
L 212.860608 106.683664 
L 212.953659 106.477557 
L 212.974671 106.56 
L 213.148767 106.642443 
L 213.259829 106.84855 
L 213.271835 106.807328 
L 213.355882 106.724885 
L 213.469945 106.518779 
L 213.364887 106.807328 
L 213.47895 106.56 
L 213.593013 106.683664 
L 213.698071 106.601221 
L 213.617026 106.766107 
L 213.707076 106.642443 
L 213.743096 106.601221 
L 213.827142 106.766107 
L 213.854157 106.724885 
L 213.875169 106.642443 
L 213.923195 106.807328 
L 213.962217 106.766107 
L 214.115301 106.683664 
L 214.118303 106.642443 
L 214.127308 106.766107 
L 214.223361 106.683664 
L 214.319414 106.766107 
L 214.241371 106.642443 
L 214.334422 106.683664 
L 214.436479 106.642443 
L 214.364439 106.807328 
L 214.445484 106.683664 
L 214.463494 106.766107 
L 214.517523 106.56 
L 214.550542 106.642443 
L 214.649596 106.477557 
L 214.58356 106.724885 
L 214.670608 106.518779 
L 214.766661 106.56 
L 214.724638 106.436336 
L 214.775666 106.477557 
L 214.883726 106.436336 
L 214.832697 106.601221 
L 214.886727 106.477557 
L 214.98278 106.56 
L 215.096843 106.683664 
L 215.099845 106.642443 
L 215.147872 106.724885 
L 215.213908 106.56 
L 215.300956 106.642443 
L 215.285948 106.518779 
L 215.318966 106.56 
L 215.424024 106.395115 
L 215.430027 106.477557 
L 215.457042 106.518779 
L 215.466047 106.395115 
L 215.538087 106.436336 
L 215.631139 106.353893 
L 215.54409 106.477557 
L 215.646147 106.436336 
L 215.679165 106.395115 
L 215.766213 106.642443 
L 215.829248 106.683664 
L 215.880276 106.56 
L 215.892283 106.56 
L 215.994339 106.683664 
L 216.003344 106.56 
L 216.192449 106.477557 
L 216.222465 106.518779 
L 216.309513 106.395115 
L 216.372548 106.353893 
L 216.486611 106.189008 
L 216.489613 106.27145 
L 216.540641 106.106565 
L 216.594671 106.106565 
L 216.714737 106.27145 
L 216.79278 106.106565 
L 216.831802 106.189008 
L 216.834803 106.189008 
L 216.837805 106.312672 
L 216.879828 106.147786 
L 216.945865 106.189008 
L 217.056926 106.230229 
L 217.155981 106.353893 
L 217.167988 106.27145 
L 217.231022 106.189008 
L 217.33608 106.024122 
L 217.258037 106.230229 
L 217.348087 106.106565 
L 217.411122 106.230229 
L 217.414124 106.024122 
L 217.456147 106.106565 
L 217.549198 106.024122 
L 217.57021 106.065344 
L 217.591221 106.024122 
L 217.684273 106.147786 
L 217.717291 106.189008 
L 217.798336 105.982901 
L 217.912399 106.147786 
L 217.942415 106.106565 
L 217.945417 106.024122 
L 218.029463 106.27145 
L 218.047473 106.27145 
L 218.080492 106.230229 
L 218.083493 106.147786 
L 218.155533 106.395115 
L 218.188551 106.27145 
L 218.299613 106.477557 
L 218.308618 106.436336 
L 218.422681 106.230229 
L 218.329629 106.477557 
L 218.431686 106.27145 
L 218.518734 106.230229 
L 218.56676 106.106565 
L 218.632797 106.147786 
L 218.671818 106.230229 
L 218.683825 106.147786 
L 218.78288 106.312672 
L 218.80089 106.230229 
L 218.824903 106.395115 
L 218.890939 106.27145 
L 219.008004 106.436336 
L 219.047026 106.353893 
L 219.116064 106.312672 
L 219.056031 106.436336 
L 219.158087 106.353893 
L 219.20011 106.395115 
L 219.203112 106.477557 
L 219.287158 106.27145 
L 219.305168 106.27145 
L 219.422233 106.106565 
L 219.428236 106.27145 
L 219.536296 106.189008 
L 219.74341 106.147786 
L 219.860475 105.982901 
L 219.962531 106.106565 
L 219.88749 105.900458 
L 219.971536 106.065344 
L 220.061586 105.941679 
L 220.082598 105.982901 
L 220.106611 106.065344 
L 220.121619 105.900458 
L 220.196661 106.024122 
L 220.289712 105.941679 
L 220.226677 106.106565 
L 220.307722 105.982901 
L 220.397772 106.065344 
L 220.331735 105.900458 
L 220.418783 106.024122 
L 220.523841 105.900458 
L 220.439795 106.065344 
L 220.535848 105.941679 
L 220.694936 106.024122 
L 220.796992 106.065344 
L 220.709944 105.900458 
L 220.799994 106.024122 
L 220.808999 105.941679 
L 220.878037 106.106565 
L 220.911055 106.024122 
L 221.031122 106.230229 
L 221.034123 106.147786 
L 221.06414 106.312672 
L 221.142183 106.230229 
L 221.151188 106.27145 
L 221.256246 106.106565 
L 221.364306 106.312672 
L 221.367307 106.27145 
L 221.388319 106.312672 
L 221.487374 106.024122 
L 221.5354 105.982901 
L 221.55341 106.024122 
L 221.649463 105.818015 
L 221.670475 105.982901 
L 221.766528 105.900458 
L 221.910607 105.818015 
L 221.934621 105.941679 
L 222.021669 105.776794 
L 222.02467 105.859237 
L 222.117722 105.611908 
L 222.129729 105.735573 
L 222.141735 105.65313 
L 222.237788 105.488244 
L 222.177755 105.694351 
L 222.261801 105.529466 
L 222.264803 105.65313 
L 222.318833 105.447023 
L 222.369861 105.488244 
L 222.468916 105.447023 
L 222.471918 105.36458 
L 222.525947 105.570687 
L 222.576976 105.529466 
L 222.664024 105.611908 
L 222.69404 105.694351 
L 222.688037 105.529466 
L 222.775085 105.611908 
L 222.790093 105.694351 
L 222.886146 105.529466 
L 222.982199 105.694351 
L 222.997208 105.529466 
L 223.018219 105.611908 
L 223.072249 105.405802 
L 223.102266 105.447023 
L 223.153294 105.529466 
L 223.222332 105.282137 
L 223.282365 105.240916 
L 223.336395 105.36458 
L 223.447456 105.199695 
L 223.387423 105.405802 
L 223.450458 105.240916 
L 223.480475 105.199695 
L 223.576528 105.076031 
L 223.498485 105.240916 
L 223.594538 105.117252 
L 223.621553 105.199695 
L 223.723609 105.240916 
L 223.633559 105.076031 
L 223.732614 105.199695 
L 223.801652 105.034809 
L 223.813659 105.240916 
L 223.846677 105.158473 
L 223.951735 105.282137 
L 223.858684 105.117252 
L 223.96074 105.240916 
L 223.984753 105.158473 
L 223.975748 105.282137 
L 224.0688 105.282137 
L 224.143841 105.199695 
L 224.173858 105.076031 
L 224.242896 105.240916 
L 224.251901 105.199695 
L 224.311934 105.323359 
L 224.257904 105.158473 
L 224.362962 105.199695 
L 224.564073 105.158473 
L 224.588087 105.034809 
L 224.57608 105.199695 
L 224.675135 105.158473 
L 224.714156 105.034809 
L 224.774189 105.240916 
L 224.786196 105.158473 
L 224.840226 105.199695 
L 224.816213 105.034809 
L 224.888252 105.076031 
L 224.891254 105.034809 
L 224.978302 105.282137 
L 224.984305 105.240916 
L 225.050342 105.36458 
L 224.990309 105.199695 
L 225.10137 105.323359 
L 225.161403 105.240916 
L 225.224438 105.076031 
L 225.275466 105.117252 
L 225.278468 105.199695 
L 225.338501 104.993588 
L 225.386528 105.117252 
L 225.494587 104.869924 
L 225.509596 104.911145 
L 225.518601 104.952366 
L 225.593642 104.787481 
L 225.611652 104.828702 
L 225.671685 104.869924 
L 225.722713 104.705038 
L 225.77074 104.787481 
L 225.767738 104.663817 
L 225.830773 104.663817 
L 225.836776 104.705038 
L 225.938833 104.869924 
L 225.854786 104.663817 
L 225.947838 104.705038 
L 225.965848 104.74626 
L 226.037887 104.911145 
L 226.076909 104.828702 
L 226.109927 104.869924 
L 226.199977 105.034809 
L 226.22399 104.952366 
L 226.29603 105.034809 
L 226.33205 104.993588 
L 226.428103 104.869924 
L 226.383078 105.034809 
L 226.446113 104.911145 
L 226.449115 104.952366 
L 226.494139 104.787481 
L 226.557174 104.911145 
L 226.584189 104.828702 
L 226.599198 104.993588 
L 226.665234 104.952366 
L 226.734272 104.993588 
L 226.716262 104.869924 
L 226.776295 104.952366 
L 226.80331 104.828702 
L 226.866345 105.076031 
L 226.884355 104.993588 
L 226.980408 105.158473 
L 226.962398 104.952366 
L 227.004421 105.117252 
L 227.115483 104.993588 
L 227.118484 105.034809 
L 227.232547 104.911145 
L 227.208534 105.076031 
L 227.235549 104.952366 
L 227.301586 104.952366 
L 227.304587 104.828702 
L 227.361619 104.993588 
L 227.409645 104.952366 
L 227.412647 104.993588 
L 227.484687 104.787481 
L 227.514703 104.869924 
L 227.643775 104.911145 
L 227.742829 104.869924 
L 227.754836 105.034809 
L 227.769844 104.911145 
L 227.790856 105.076031 
L 227.868899 104.952366 
L 227.895914 105.076031 
L 227.946942 104.828702 
L 227.97996 104.952366 
L 228.045997 104.869924 
L 228.145051 104.828702 
L 228.136047 104.952366 
L 228.154056 104.911145 
L 228.169065 104.993588 
L 228.172066 104.869924 
L 228.262116 104.869924 
L 228.307141 104.952366 
L 228.364173 104.993588 
L 228.343161 104.828702 
L 228.415201 104.911145 
L 228.439214 104.911145 
L 228.508252 104.663817 
L 228.553277 104.787481 
L 228.661337 104.540153 
L 228.670342 104.581374 
L 228.730375 104.663817 
L 228.679347 104.540153 
L 228.781403 104.581374 
L 228.81142 104.663817 
L 228.892464 104.540153 
L 229.012531 104.828702 
L 229.018534 104.74626 
L 229.129595 104.787481 
L 229.132597 104.622595 
L 229.189629 104.828702 
L 229.240657 104.705038 
L 229.423758 104.622595 
L 229.462779 104.663817 
L 229.540823 104.416489 
L 229.615864 104.334046 
L 229.633874 104.251603 
L 229.621867 104.416489 
L 229.726925 104.334046 
L 229.777954 104.416489 
L 229.865002 104.581374 
L 229.783957 104.334046 
L 229.895018 104.540153 
L 229.907025 104.45771 
L 229.985068 104.663817 
L 230.000076 104.622595 
L 230.090126 104.74626 
L 230.009081 104.581374 
L 230.111138 104.622595 
L 230.267224 104.622595 
L 230.309247 104.787481 
L 230.381287 104.74626 
L 230.483343 104.828702 
L 230.408302 104.705038 
L 230.492348 104.74626 
L 230.60341 104.622595 
L 230.498351 104.787481 
L 230.606411 104.663817 
L 230.621419 104.787481 
L 230.690458 104.622595 
L 230.717473 104.663817 
L 230.834537 104.74626 
L 230.864554 104.787481 
L 230.927589 104.581374 
L 230.939595 104.705038 
L 230.993625 104.622595 
L 231.02064 104.74626 
L 231.044653 104.705038 
L 231.047655 104.787481 
L 231.113691 104.622595 
L 231.152713 104.663817 
L 231.254769 104.540153 
L 231.221751 104.705038 
L 231.263774 104.622595 
L 231.371834 104.74626 
L 231.296793 104.581374 
L 231.377837 104.705038 
L 231.383841 104.663817 
L 231.494902 104.787481 
L 231.59996 104.540153 
L 231.61797 104.581374 
L 231.623973 104.540153 
L 231.741038 104.74626 
L 231.768053 104.622595 
L 231.834089 104.869924 
L 231.846096 104.828702 
L 231.945151 104.993588 
L 231.963161 104.911145 
L 231.966162 104.911145 
L 231.969164 104.787481 
L 232.011187 104.993588 
L 232.077224 104.911145 
L 232.155267 104.74626 
L 232.086229 104.952366 
L 232.191287 104.869924 
L 232.206295 104.911145 
L 232.263326 104.705038 
L 232.28734 104.705038 
L 232.30535 104.74626 
L 232.407406 104.581374 
L 232.707572 104.663817 
L 232.806627 104.705038 
L 232.72258 104.581374 
L 232.815632 104.663817 
L 232.863658 104.540153 
L 232.83064 104.705038 
L 232.929695 104.622595 
L 233.031751 104.911145 
L 233.046759 104.869924 
L 233.112796 104.74626 
L 233.052763 104.911145 
L 233.160822 104.828702 
L 233.325913 104.828702 
L 233.433973 104.622595 
L 233.37394 104.869924 
L 233.436975 104.663817 
L 233.491005 104.74626 
L 233.497008 104.581374 
L 233.548036 104.705038 
L 233.626079 104.622595 
L 233.686112 104.663817 
L 233.740142 104.540153 
L 233.842199 104.622595 
L 233.770159 104.498931 
L 233.848202 104.581374 
L 233.896229 104.498931 
L 233.86321 104.622595 
L 233.959263 104.540153 
L 234.067323 104.622595 
L 234.001287 104.498931 
L 234.070325 104.581374 
L 234.175383 104.498931 
L 234.253426 104.416489 
L 234.190391 104.581374 
L 234.286444 104.498931 
L 234.319462 104.45771 
L 234.355482 104.540153 
L 234.433525 104.375267 
L 234.499562 104.292824 
L 234.502563 104.251603 
L 234.541585 104.416489 
L 234.60462 104.334046 
L 234.703675 104.416489 
L 234.646643 104.292824 
L 234.71268 104.334046 
L 234.781718 104.16916 
L 234.724686 104.375267 
L 234.823741 104.251603 
L 234.919794 104.375267 
L 234.937804 104.334046 
L 235.060872 104.16916 
L 235.472099 104.251603 
L 235.577157 104.334046 
L 235.481104 104.210382 
L 235.586162 104.292824 
L 235.610175 104.375267 
L 235.712232 104.45771 
L 235.61918 104.292824 
L 235.721237 104.416489 
L 235.802281 104.292824 
L 235.733243 104.540153 
L 235.826295 104.416489 
L 235.856311 104.334046 
L 235.937356 104.498931 
L 236.015399 104.375267 
L 236.051419 104.45771 
L 236.201502 104.498931 
L 236.213509 104.581374 
L 236.279545 104.416489 
L 236.30656 104.45771 
L 236.32457 104.334046 
L 236.393608 104.540153 
L 236.417621 104.45771 
L 236.75981 104.416489 
L 236.765814 104.292824 
L 236.858865 104.581374 
L 236.864868 104.540153 
L 236.88588 104.498931 
L 236.981933 104.705038 
L 236.987936 104.622595 
L 237.008948 104.74626 
L 237.092994 104.705038 
L 237.228069 104.663817 
L 237.243077 104.705038 
L 237.342132 104.581374 
L 237.369147 104.663817 
L 237.372149 104.705038 
L 237.423177 104.498931 
L 237.4652 104.540153 
L 237.525233 104.416489 
L 237.558252 104.581374 
L 237.576261 104.498931 
L 237.624288 104.540153 
L 237.708334 104.622595 
L 237.633293 104.498931 
L 237.735349 104.540153 
L 237.837406 104.74626 
L 237.849412 104.705038 
L 237.963475 104.45771 
L 237.984487 104.540153 
L 237.99049 104.375267 
L 238.071535 104.375267 
L 238.083542 104.45771 
L 238.11656 104.251603 
L 238.176593 104.292824 
L 238.287654 104.127939 
L 238.1886 104.334046 
L 238.296659 104.16916 
L 238.323674 104.086718 
L 238.434736 103.839389 
L 238.350689 104.127939 
L 238.443741 103.880611 
L 238.446742 104.004275 
L 238.470756 103.839389 
L 238.554802 103.921832 
L 238.638848 103.839389 
L 238.653857 104.045496 
L 238.662862 103.963053 
L 238.71389 104.127939 
L 238.674868 103.921832 
L 238.776925 104.045496 
L 238.854968 104.127939 
L 238.960026 104.210382 
L 238.866974 104.045496 
L 238.963028 104.16916 
L 238.999047 104.086718 
L 238.996046 104.292824 
L 239.074089 104.16916 
L 239.206162 104.127939 
L 239.314222 103.963053 
L 239.233177 104.16916 
L 239.320225 104.045496 
L 239.335233 103.963053 
L 239.431286 103.839389 
L 239.350241 104.045496 
L 239.446295 103.921832 
L 239.560358 104.086718 
L 239.563359 104.045496 
L 239.635399 103.880611 
L 239.572364 104.086718 
L 239.677422 104.004275 
L 239.770474 103.921832 
L 239.83651 104.045496 
L 239.881535 103.880611 
L 239.974586 104.086718 
L 239.893542 103.798168 
L 240.004603 104.045496 
L 240.076643 104.004275 
L 240.091651 104.127939 
L 240.115664 104.045496 
L 240.208716 104.045496 
L 240.319777 104.292824 
L 240.322779 104.210382 
L 240.391817 104.375267 
L 240.436842 104.292824 
L 240.439843 104.210382 
L 240.490872 104.375267 
L 240.547903 104.251603 
L 240.553906 104.334046 
L 240.61394 104.416489 
L 240.655963 104.127939 
L 240.658964 104.251603 
L 240.773027 104.086718 
L 240.875084 104.334046 
L 240.890092 104.292824 
L 240.893094 104.251603 
L 240.956129 104.45771 
L 240.992148 104.334046 
L 241.097207 104.622595 
L 241.112215 104.581374 
L 241.118218 104.540153 
L 241.205266 104.74626 
L 241.217273 104.663817 
L 241.325333 104.787481 
L 241.331336 104.74626 
L 241.358351 104.622595 
L 241.385366 104.787481 
L 241.439396 104.74626 
L 241.541452 104.828702 
L 241.490424 104.705038 
L 241.553459 104.787481 
L 241.652513 104.828702 
L 241.670523 104.705038 
L 241.724553 104.828702 
L 241.766576 104.663817 
L 241.781585 104.705038 
L 241.880639 104.663817 
L 241.883641 104.581374 
L 241.952679 104.828702 
L 241.985697 104.787481 
L 242.018716 104.705038 
L 242.096759 104.828702 
L 242.144785 104.869924 
L 242.210822 104.74626 
L 242.234835 104.828702 
L 242.267853 104.581374 
L 242.312878 104.622595 
L 242.408931 104.416489 
L 242.432944 104.498931 
L 242.453956 104.416489 
L 242.547007 104.581374 
L 242.562016 104.498931 
L 242.631054 104.663817 
L 242.655067 104.581374 
L 242.7151 104.705038 
L 242.772132 104.663817 
L 242.87719 104.540153 
L 242.886195 104.581374 
L 242.907206 104.540153 
L 243.003259 104.74626 
L 243.006261 104.663817 
L 243.099313 104.869924 
L 243.114321 104.74626 
L 243.138334 104.952366 
L 243.231385 104.911145 
L 243.354453 104.705038 
L 243.396477 104.787481 
L 243.429495 104.581374 
L 243.459511 104.663817 
L 243.54656 104.45771 
L 243.576576 104.581374 
L 243.636609 104.498931 
L 243.696642 104.705038 
L 243.813707 104.74626 
L 243.816709 104.828702 
L 243.888749 104.581374 
L 243.921767 104.663817 
L 243.957787 104.74626 
L 244.03583 104.540153 
L 244.044835 104.622595 
L 244.128881 104.334046 
L 244.140888 104.375267 
L 244.263956 104.045496 
L 244.305979 104.16916 
L 244.338997 103.963053 
L 244.372016 104.045496 
L 244.486079 103.880611 
L 244.396029 104.086718 
L 244.492082 103.921832 
L 244.5251 104.086718 
L 244.603143 103.963053 
L 244.681186 103.839389 
L 244.61515 104.004275 
L 244.717206 103.880611 
L 244.720208 103.963053 
L 244.777239 103.756947 
L 244.825266 103.839389 
L 244.921319 103.921832 
L 245.023375 104.086718 
L 245.041385 104.045496 
L 245.15845 103.880611 
L 245.047389 104.086718 
L 245.161452 103.921832 
L 245.26651 104.045496 
L 245.191468 103.880611 
L 245.278516 104.004275 
L 245.386576 103.798168 
L 245.28452 104.045496 
L 245.392579 103.880611 
L 245.410589 103.839389 
L 245.509644 103.963053 
L 245.689744 104.045496 
L 245.707753 104.16916 
L 245.746775 104.004275 
L 245.803807 104.086718 
L 245.902861 103.963053 
L 245.851833 104.16916 
L 245.91787 104.045496 
L 245.938881 104.127939 
L 246.046941 104.210382 
L 245.971899 104.045496 
L 246.052944 104.16916 
L 246.103972 104.045496 
L 246.118981 104.210382 
L 246.161004 104.16916 
L 246.260059 104.251603 
L 246.179014 104.086718 
L 246.272065 104.16916 
L 246.368118 104.086718 
L 246.314088 104.210382 
L 246.383127 104.127939 
L 246.42515 104.045496 
L 246.491186 104.16916 
L 246.500191 104.086718 
L 246.569229 104.292824 
L 246.599246 104.210382 
L 246.716311 104.45771 
L 246.725316 104.416489 
L 246.815365 104.45771 
L 246.854387 104.581374 
L 246.908417 104.334046 
L 246.920423 104.334046 
L 247.04049 104.045496 
L 247.154553 104.210382 
L 247.430705 104.16916 
L 247.496742 104.004275 
L 247.541767 104.127939 
L 247.63782 103.963053 
L 247.658831 104.045496 
L 247.760888 104.210382 
L 247.667836 104.004275 
L 247.775896 104.127939 
L 247.859942 104.045496 
L 247.811916 104.210382 
L 247.886957 104.127939 
L 247.989014 104.251603 
L 247.998019 104.16916 
L 248.007024 104.251603 
L 248.112082 104.045496 
L 248.21714 104.16916 
L 248.226145 104.127939 
L 248.337206 104.004275 
L 248.277173 104.210382 
L 248.340208 104.045496 
L 248.439262 104.004275 
L 248.457272 104.16916 
L 248.577339 104.004275 
L 248.589345 104.086718 
L 248.655382 103.880611 
L 248.682397 103.921832 
L 248.790456 103.674504 
L 248.808466 103.715725 
L 249.384785 103.798168 
L 249.387786 103.880611 
L 249.462828 103.674504 
L 249.492844 103.756947 
L 249.501849 103.715725 
L 249.540871 103.839389 
L 249.600904 103.798168 
L 249.684951 103.880611 
L 249.666941 103.715725 
L 249.708964 103.798168 
L 249.744984 103.674504 
L 249.817023 103.839389 
L 250.000125 103.921832 
L 250.093176 104.086718 
L 250.012131 103.839389 
L 250.114188 104.004275 
L 250.204237 103.921832 
L 250.123193 104.086718 
L 250.225249 103.963053 
L 250.273276 104.086718 
L 250.234254 103.921832 
L 250.333309 104.045496 
L 250.447372 103.880611 
L 250.48039 103.963053 
L 250.513408 103.798168 
L 250.555431 103.880611 
L 250.642479 103.756947 
L 250.657488 103.921832 
L 250.666493 103.880611 
L 250.699511 103.798168 
L 250.780556 103.715725 
L 250.708516 103.839389 
L 250.810572 103.798168 
L 250.89762 103.715725 
L 250.861601 103.880611 
L 250.921634 103.798168 
L 250.98767 103.839389 
L 251.086725 103.963053 
L 251.014685 103.798168 
L 251.101733 103.921832 
L 251.128748 103.880611 
L 251.230804 103.756947 
L 251.239809 103.839389 
L 251.275829 103.839389 
L 251.392894 103.55084 
L 251.491949 103.633282 
L 251.479942 103.468397 
L 251.503955 103.592061 
L 251.669047 103.55084 
L 251.69306 103.468397 
L 251.72908 103.633282 
L 251.780108 103.55084 
L 251.876161 103.592061 
L 251.80112 103.468397 
L 251.891169 103.55084 
L 252.191335 103.592061 
L 252.23636 103.715725 
L 252.275382 103.55084 
L 252.302396 103.592061 
L 252.323408 103.55084 
L 252.422463 103.756947 
L 252.518516 103.633282 
L 252.488499 103.839389 
L 252.536526 103.715725 
L 252.635581 103.633282 
L 252.719627 103.592061 
L 252.677604 103.715725 
L 252.74364 103.674504 
L 252.884718 103.592061 
L 252.974768 103.509618 
L 252.94175 103.674504 
L 252.99578 103.592061 
L 253.046808 103.509618 
L 253.097836 103.385954 
L 253.061816 103.55084 
L 253.160871 103.427176 
L 253.262927 103.468397 
L 253.226907 103.344733 
L 253.26893 103.385954 
L 253.292944 103.303511 
L 253.295945 103.221069 
L 253.355978 103.427176 
L 253.398002 103.385954 
L 253.416012 103.468397 
L 253.43102 103.221069 
L 253.506061 103.427176 
L 253.509063 103.344733 
L 253.55709 103.509618 
L 253.617123 103.427176 
L 253.632131 103.509618 
L 253.629129 103.385954 
L 253.728184 103.427176 
L 253.770207 103.344733 
L 253.776211 103.509618 
L 253.836244 103.468397 
L 253.854254 103.509618 
L 253.875265 103.385954 
L 253.971318 103.715725 
L 253.983325 103.633282 
L 254.037355 103.880611 
L 254.079378 103.798168 
L 254.17243 104.004275 
L 254.088383 103.756947 
L 254.199444 103.963053 
L 254.253474 104.045496 
L 254.313507 103.880611 
L 254.325514 104.004275 
L 254.337521 103.839389 
L 254.424569 103.921832 
L 254.514619 103.592061 
L 254.550638 103.633282 
L 254.577653 103.715725 
L 254.649693 103.427176 
L 254.655696 103.468397 
L 254.71573 103.344733 
L 254.721733 103.427176 
" clip-path="url(#p633b41a3e2)" style="fill: none; stroke: #000000; stroke-opacity: 0.5; stroke-width: 1.5; stroke-linecap: square"/>
   </g>
   <g id="patch_3">
    <path d="M 41.667188 173.52 
L 41.667188 7.2 
" style="fill: none; stroke: #000000; stroke-width: 0.8; stroke-linejoin: miter; stroke-linecap: square"/>
   </g>
   <g id="patch_4">
    <path d="M 41.667188 173.52 
L 264.867188 173.52 
" style="fill: none; stroke: #000000; stroke-width: 0.8; stroke-linejoin: miter; stroke-linecap: square"/>
   </g>
  </g>
 </g>
 <defs>
  <clipPath id="p633b41a3e2">
   <rect x="41.667188" y="7.2" width="223.2" height="166.32"/>
  </clipPath>
 </defs>
</svg>
