<?xml version="1.0" encoding="utf-8" standalone="no"?>
<!DOCTYPE svg PUBLIC "-//W3C//DTD SVG 1.1//EN"
  "http://www.w3.org/Graphics/SVG/1.1/DTD/svg11.dtd">
<svg xmlns:xlink="http://www.w3.org/1999/xlink" width="272.067187pt" height="197.398125pt" viewBox="0 0 272.067187 197.398125" xmlns="http://www.w3.org/2000/svg" version="1.1">
 <metadata>
  <rdf:RDF xmlns:dc="http://purl.org/dc/elements/1.1/" xmlns:cc="http://creativecommons.org/ns#" xmlns:rdf="http://www.w3.org/1999/02/22-rdf-syntax-ns#">
   <cc:Work>
    <dc:type rdf:resource="http://purl.org/dc/dcmitype/StillImage"/>
    <dc:date>2025-12-19T12:07:22.892795</dc:date>
    <dc:format>image/svg+xml</dc:format>
    <dc:creator>
     <cc:Agent>
      <dc:title>Matplotlib v3.10.7, https://matplotlib.org/</dc:title>
     </cc:Agent>
    </dc:creator>
   </cc:Work>
  </rdf:RDF>
 </metadata>
 <defs>
  <style type="text/css">*{stroke-linejoin: round; stroke-linecap: butt}</style>
 </defs>
 <g id="figure_1">
  <g id="patch_1">
   <path d="M 0 197.398125 
L 272.067187 197.398125 
L 272.067187 0 
L 0 0 
z
" style="fill: #ffffff"/>
  </g>
  <g id="axes_1">
   <g id="patch_2">
    <path d="M 41.667188 173.52 
L 264.867188 173.52 
L 264.867188 7.2 
L 41.667188 7.2 
z
" style="fill: #ffffff"/>
   </g>
   <g id="matplotlib.axis_1">
    <g id="xtick_1">
     <g id="line2d_1">
      <defs>
       <path id="mef9c7210c2" d="M 0 0 
L 0 3.5 
" style="stroke: #000000; stroke-width: 0.8"/>
      </defs>
      <g>
       <use xlink:href="#mef9c7210c2" x="87.83254" y="173.52" style="stroke: #000000; stroke-width: 0.8"/>
      </g>
     </g>
     <g id="text_1">
      <!-- 1 -->
      <g transform="translate(84.65129 188.118438) scale(0.1 -0.1)">
       <defs>
        <path id="DejaVuSans-31" d="M 794 531 
L 1825 531 
L 1825 4091 
L 703 3866 
L 703 4441 
L 1819 4666 
L 2450 4666 
L 2450 531 
L 3481 531 
L 3481 0 
L 794 0 
L 794 531 
z
" transform="scale(0.015625)"/>
       </defs>
       <use xlink:href="#DejaVuSans-31"/>
      </g>
     </g>
    </g>
    <g id="xtick_2">
     <g id="line2d_2">
      <g>
       <use xlink:href="#mef9c7210c2" x="147.865704" y="173.52" style="stroke: #000000; stroke-width: 0.8"/>
      </g>
     </g>
     <g id="text_2">
      <!-- 2 -->
      <g transform="translate(144.684454 188.118438) scale(0.1 -0.1)">
       <defs>
        <path id="DejaVuSans-32" d="M 1228 531 
L 3431 531 
L 3431 0 
L 469 0 
L 469 531 
Q 828 903 1448 1529 
Q 2069 2156 2228 2338 
Q 2531 2678 2651 2914 
Q 2772 3150 2772 3378 
Q 2772 3750 2511 3984 
Q 2250 4219 1831 4219 
Q 1534 4219 1204 4116 
Q 875 4013 500 3803 
L 500 4441 
Q 881 4594 1212 4672 
Q 1544 4750 1819 4750 
Q 2544 4750 2975 4387 
Q 3406 4025 3406 3419 
Q 3406 3131 3298 2873 
Q 3191 2616 2906 2266 
Q 2828 2175 2409 1742 
Q 1991 1309 1228 531 
z
" transform="scale(0.015625)"/>
       </defs>
       <use xlink:href="#DejaVuSans-32"/>
      </g>
     </g>
    </g>
    <g id="xtick_3">
     <g id="line2d_3">
      <g>
       <use xlink:href="#mef9c7210c2" x="207.898867" y="173.52" style="stroke: #000000; stroke-width: 0.8"/>
      </g>
     </g>
     <g id="text_3">
      <!-- 3 -->
      <g transform="translate(204.717617 188.118438) scale(0.1 -0.1)">
       <defs>
        <path id="DejaVuSans-33" d="M 2597 2516 
Q 3050 2419 3304 2112 
Q 3559 1806 3559 1356 
Q 3559 666 3084 287 
Q 2609 -91 1734 -91 
Q 1441 -91 1130 -33 
Q 819 25 488 141 
L 488 750 
Q 750 597 1062 519 
Q 1375 441 1716 441 
Q 2309 441 2620 675 
Q 2931 909 2931 1356 
Q 2931 1769 2642 2001 
Q 2353 2234 1838 2234 
L 1294 2234 
L 1294 2753 
L 1863 2753 
Q 2328 2753 2575 2939 
Q 2822 3125 2822 3475 
Q 2822 3834 2567 4026 
Q 2313 4219 1838 4219 
Q 1578 4219 1281 4162 
Q 984 4106 628 3988 
L 628 4550 
Q 988 4650 1302 4700 
Q 1616 4750 1894 4750 
Q 2613 4750 3031 4423 
Q 3450 4097 3450 3541 
Q 3450 3153 3228 2886 
Q 3006 2619 2597 2516 
z
" transform="scale(0.015625)"/>
       </defs>
       <use xlink:href="#DejaVuSans-33"/>
      </g>
     </g>
    </g>
   </g>
   <g id="matplotlib.axis_2">
    <g id="ytick_1">
     <g id="line2d_4">
      <defs>
       <path id="m548b0e46fd" d="M 0 0 
L -3.5 0 
" style="stroke: #000000; stroke-width: 0.8"/>
      </defs>
      <g>
       <use xlink:href="#m548b0e46fd" x="41.667188" y="168.817262" style="stroke: #000000; stroke-width: 0.8"/>
      </g>
     </g>
     <g id="text_4">
      <!-- −100 -->
      <g transform="translate(7.2 172.616481) scale(0.1 -0.1)">
       <defs>
        <path id="DejaVuSans-2212" d="M 678 2272 
L 4684 2272 
L 4684 1741 
L 678 1741 
L 678 2272 
z
" transform="scale(0.015625)"/>
        <path id="DejaVuSans-30" d="M 2034 4250 
Q 1547 4250 1301 3770 
Q 1056 3291 1056 2328 
Q 1056 1369 1301 889 
Q 1547 409 2034 409 
Q 2525 409 2770 889 
Q 3016 1369 3016 2328 
Q 3016 3291 2770 3770 
Q 2525 4250 2034 4250 
z
M 2034 4750 
Q 2819 4750 3233 4129 
Q 3647 3509 3647 2328 
Q 3647 1150 3233 529 
Q 2819 -91 2034 -91 
Q 1250 -91 836 529 
Q 422 1150 422 2328 
Q 422 3509 836 4129 
Q 1250 4750 2034 4750 
z
" transform="scale(0.015625)"/>
       </defs>
       <use xlink:href="#DejaVuSans-2212"/>
       <use xlink:href="#DejaVuSans-31" transform="translate(83.789062 0)"/>
       <use xlink:href="#DejaVuSans-30" transform="translate(147.412109 0)"/>
       <use xlink:href="#DejaVuSans-30" transform="translate(211.035156 0)"/>
      </g>
     </g>
    </g>
    <g id="ytick_2">
     <g id="line2d_5">
      <g>
       <use xlink:href="#m548b0e46fd" x="41.667188" y="144.748661" style="stroke: #000000; stroke-width: 0.8"/>
      </g>
     </g>
     <g id="text_5">
      <!-- −80 -->
      <g transform="translate(13.5625 148.54788) scale(0.1 -0.1)">
       <defs>
        <path id="DejaVuSans-38" d="M 2034 2216 
Q 1584 2216 1326 1975 
Q 1069 1734 1069 1313 
Q 1069 891 1326 650 
Q 1584 409 2034 409 
Q 2484 409 2743 651 
Q 3003 894 3003 1313 
Q 3003 1734 2745 1975 
Q 2488 2216 2034 2216 
z
M 1403 2484 
Q 997 2584 770 2862 
Q 544 3141 544 3541 
Q 544 4100 942 4425 
Q 1341 4750 2034 4750 
Q 2731 4750 3128 4425 
Q 3525 4100 3525 3541 
Q 3525 3141 3298 2862 
Q 3072 2584 2669 2484 
Q 3125 2378 3379 2068 
Q 3634 1759 3634 1313 
Q 3634 634 3220 271 
Q 2806 -91 2034 -91 
Q 1263 -91 848 271 
Q 434 634 434 1313 
Q 434 1759 690 2068 
Q 947 2378 1403 2484 
z
M 1172 3481 
Q 1172 3119 1398 2916 
Q 1625 2713 2034 2713 
Q 2441 2713 2670 2916 
Q 2900 3119 2900 3481 
Q 2900 3844 2670 4047 
Q 2441 4250 2034 4250 
Q 1625 4250 1398 4047 
Q 1172 3844 1172 3481 
z
" transform="scale(0.015625)"/>
       </defs>
       <use xlink:href="#DejaVuSans-2212"/>
       <use xlink:href="#DejaVuSans-38" transform="translate(83.789062 0)"/>
       <use xlink:href="#DejaVuSans-30" transform="translate(147.412109 0)"/>
      </g>
     </g>
    </g>
    <g id="ytick_3">
     <g id="line2d_6">
      <g>
       <use xlink:href="#m548b0e46fd" x="41.667188" y="120.680061" style="stroke: #000000; stroke-width: 0.8"/>
      </g>
     </g>
     <g id="text_6">
      <!-- −60 -->
      <g transform="translate(13.5625 124.479279) scale(0.1 -0.1)">
       <defs>
        <path id="DejaVuSans-36" d="M 2113 2584 
Q 1688 2584 1439 2293 
Q 1191 2003 1191 1497 
Q 1191 994 1439 701 
Q 1688 409 2113 409 
Q 2538 409 2786 701 
Q 3034 994 3034 1497 
Q 3034 2003 2786 2293 
Q 2538 2584 2113 2584 
z
M 3366 4563 
L 3366 3988 
Q 3128 4100 2886 4159 
Q 2644 4219 2406 4219 
Q 1781 4219 1451 3797 
Q 1122 3375 1075 2522 
Q 1259 2794 1537 2939 
Q 1816 3084 2150 3084 
Q 2853 3084 3261 2657 
Q 3669 2231 3669 1497 
Q 3669 778 3244 343 
Q 2819 -91 2113 -91 
Q 1303 -91 875 529 
Q 447 1150 447 2328 
Q 447 3434 972 4092 
Q 1497 4750 2381 4750 
Q 2619 4750 2861 4703 
Q 3103 4656 3366 4563 
z
" transform="scale(0.015625)"/>
       </defs>
       <use xlink:href="#DejaVuSans-2212"/>
       <use xlink:href="#DejaVuSans-36" transform="translate(83.789062 0)"/>
       <use xlink:href="#DejaVuSans-30" transform="translate(147.412109 0)"/>
      </g>
     </g>
    </g>
    <g id="ytick_4">
     <g id="line2d_7">
      <g>
       <use xlink:href="#m548b0e46fd" x="41.667188" y="96.61146" style="stroke: #000000; stroke-width: 0.8"/>
      </g>
     </g>
     <g id="text_7">
      <!-- −40 -->
      <g transform="translate(13.5625 100.410678) scale(0.1 -0.1)">
       <defs>
        <path id="DejaVuSans-34" d="M 2419 4116 
L 825 1625 
L 2419 1625 
L 2419 4116 
z
M 2253 4666 
L 3047 4666 
L 3047 1625 
L 3713 1625 
L 3713 1100 
L 3047 1100 
L 3047 0 
L 2419 0 
L 2419 1100 
L 313 1100 
L 313 1709 
L 2253 4666 
z
" transform="scale(0.015625)"/>
       </defs>
       <use xlink:href="#DejaVuSans-2212"/>
       <use xlink:href="#DejaVuSans-34" transform="translate(83.789062 0)"/>
       <use xlink:href="#DejaVuSans-30" transform="translate(147.412109 0)"/>
      </g>
     </g>
    </g>
    <g id="ytick_5">
     <g id="line2d_8">
      <g>
       <use xlink:href="#m548b0e46fd" x="41.667188" y="72.542859" style="stroke: #000000; stroke-width: 0.8"/>
      </g>
     </g>
     <g id="text_8">
      <!-- −20 -->
      <g transform="translate(13.5625 76.342078) scale(0.1 -0.1)">
       <use xlink:href="#DejaVuSans-2212"/>
       <use xlink:href="#DejaVuSans-32" transform="translate(83.789062 0)"/>
       <use xlink:href="#DejaVuSans-30" transform="translate(147.412109 0)"/>
      </g>
     </g>
    </g>
    <g id="ytick_6">
     <g id="line2d_9">
      <g>
       <use xlink:href="#m548b0e46fd" x="41.667188" y="48.474258" style="stroke: #000000; stroke-width: 0.8"/>
      </g>
     </g>
     <g id="text_9">
      <!-- 0 -->
      <g transform="translate(28.304688 52.273477) scale(0.1 -0.1)">
       <use xlink:href="#DejaVuSans-30"/>
      </g>
     </g>
    </g>
    <g id="ytick_7">
     <g id="line2d_10">
      <g>
       <use xlink:href="#m548b0e46fd" x="41.667188" y="24.405657" style="stroke: #000000; stroke-width: 0.8"/>
      </g>
     </g>
     <g id="text_10">
      <!-- 20 -->
      <g transform="translate(21.942188 28.204876) scale(0.1 -0.1)">
       <use xlink:href="#DejaVuSans-32"/>
       <use xlink:href="#DejaVuSans-30" transform="translate(63.623047 0)"/>
      </g>
     </g>
    </g>
   </g>
   <g id="line2d_11">
    <path d="M 51.812642 128.940423 
L 51.836655 128.977148 
L 51.911697 128.79352 
L 51.914698 128.866971 
L 52.046771 128.573165 
L 52.112808 128.609891 
L 52.142824 128.462988 
L 52.151829 128.499713 
L 52.205859 128.389536 
L 52.283902 128.462988 
L 52.322924 128.316085 
L 52.584068 128.316085 
L 52.58707 128.169181 
L 52.599076 128.35281 
L 52.69513 128.279359 
L 52.779176 128.205907 
L 52.785179 128.316085 
L 52.803189 128.279359 
L 52.917252 128.389536 
L 52.989292 128.242633 
L 53.031315 128.279359 
L 53.13037 128.389536 
L 53.145378 128.35281 
L 53.247435 128.09573 
L 53.268446 128.169181 
L 53.271448 128.205907 
L 53.352493 127.948827 
L 53.364499 127.985553 
L 53.577617 128.09573 
L 53.643654 128.132456 
L 53.610635 128.022278 
L 53.688678 128.09573 
L 53.697683 128.059004 
L 53.787733 128.242633 
L 53.790735 128.205907 
L 53.823753 128.35281 
L 53.796738 128.169181 
L 53.904798 128.242633 
L 54.093902 128.132456 
L 54.099906 128.169181 
L 54.204964 128.059004 
L 54.298015 128.132456 
L 54.21697 128.022278 
L 54.313023 128.059004 
L 54.337037 127.948827 
L 54.403073 128.09573 
L 54.424085 128.059004 
L 54.712244 128.169181 
L 54.751265 128.205907 
L 54.77828 128.022278 
L 54.820304 128.132456 
L 54.92236 128.022278 
L 54.895345 128.169181 
L 54.937368 128.059004 
L 55.051431 128.205907 
L 55.105461 128.132456 
L 55.129474 128.279359 
L 55.156489 128.279359 
L 55.297567 128.242633 
L 55.336589 128.132456 
L 55.399624 128.316085 
L 55.405627 128.316085 
L 55.459657 128.35281 
L 55.516688 128.242633 
L 55.618745 128.35281 
L 55.534698 128.205907 
L 55.62775 128.279359 
L 55.690784 128.35281 
L 55.723803 128.499713 
L 55.750818 128.316085 
L 55.804847 128.426262 
L 56.141033 128.316085 
L 56.246091 128.205907 
L 56.156041 128.389536 
L 56.255096 128.279359 
L 56.366157 128.389536 
L 56.303123 128.205907 
L 56.372161 128.35281 
L 56.462211 128.279359 
L 56.393172 128.389536 
L 56.486224 128.316085 
L 56.549259 128.426262 
L 56.615295 128.499713 
L 56.648313 128.35281 
L 56.66032 128.426262 
L 56.771381 128.242633 
L 56.723355 128.462988 
L 56.780386 128.316085 
L 56.969491 128.205907 
L 56.972492 128.169181 
L 57.017517 128.279359 
L 57.080552 128.205907 
L 57.110569 128.279359 
L 57.170602 128.09573 
L 57.191613 128.205907 
L 57.233637 128.09573 
L 57.200618 128.242633 
L 57.305677 128.169181 
L 57.461763 128.09573 
L 57.575826 127.985553 
L 57.650867 128.09573 
L 57.581829 127.912101 
L 57.686887 128.022278 
L 57.803952 127.83865 
L 57.704897 128.059004 
L 57.809955 127.875375 
L 57.815958 127.875375 
L 57.954035 135.514336 
L 58.062094 138.195317 
L 58.389275 143.483828 
L 58.39828 143.594005 
L 58.620403 146.311712 
L 59.037633 150.167918 
L 59.043637 150.131193 
L 59.046638 150.094467 
L 59.112675 150.571902 
L 59.118678 150.535176 
L 59.307783 151.563498 
L 59.310784 151.526772 
L 59.352807 151.600223 
L 59.481879 152.15111 
L 59.48488 152.114384 
L 59.670983 153.069254 
L 59.673985 152.995803 
L 59.758031 153.399786 
L 59.770038 153.326335 
L 59.905112 153.950673 
L 59.917119 153.913947 
L 59.983156 154.134302 
L 59.998164 154.134302 
L 60.145245 154.611737 
L 60.151248 154.575011 
L 60.223288 154.795366 
L 60.241298 154.75864 
L 60.358363 155.052446 
L 60.361365 155.01572 
L 60.364366 154.978994 
L 60.436406 155.199349 
L 60.457418 155.162623 
L 60.463421 155.089172 
L 60.586489 155.419704 
L 60.637517 155.382978 
L 60.676539 155.603333 
L 60.688545 155.529881 
L 60.817617 155.750236 
L 60.928678 155.860413 
L 61.021729 155.933864 
L 60.943686 155.786961 
L 61.036738 155.897139 
L 61.132791 155.823687 
L 61.063753 155.933864 
L 61.144797 155.897139 
L 61.228844 156.044042 
L 61.183819 155.823687 
L 61.25886 155.933864 
L 61.940237 155.823687 
L 62.03629 155.493155 
L 62.07231 155.566607 
L 62.081315 155.529881 
L 62.189374 155.71351 
L 62.252409 155.566607 
L 62.303437 155.603333 
L 62.312442 155.566607 
L 62.414499 155.676784 
L 62.50755 155.566607 
L 62.423504 155.71351 
L 62.52556 155.676784 
L 62.612608 155.566607 
L 62.639623 155.603333 
L 62.66964 155.529881 
L 62.750684 155.71351 
L 62.861746 155.640058 
L 62.933786 155.750236 
L 62.972807 155.640058 
L 63.299988 155.529881 
L 63.411049 155.382978 
L 63.308993 155.566607 
L 63.414051 155.456429 
L 63.492094 155.529881 
L 63.450071 155.419704 
L 63.525112 155.493155 
L 63.561132 155.529881 
L 63.636174 155.419704 
L 63.732227 155.603333 
L 63.651182 155.382978 
L 63.750237 155.493155 
L 63.969358 155.382978 
L 63.978363 155.456429 
L 64.089424 155.272801 
L 64.197484 155.162623 
L 64.230502 155.052446 
L 64.278528 155.236075 
L 64.305543 155.089172 
L 64.419606 155.199349 
L 64.470635 155.052446 
L 64.533669 155.125897 
L 64.536671 155.162623 
L 64.620717 154.868817 
L 64.629722 154.942269 
L 64.779805 154.868817 
L 64.848843 154.721914 
L 64.893868 154.795366 
L 64.9509 154.685188 
L 65.073968 154.428108 
L 64.971911 154.721914 
L 65.079971 154.464834 
L 65.155013 154.391382 
L 65.278081 154.06085 
L 65.293089 154.097576 
L 65.344117 153.840496 
L 65.377135 153.913947 
L 65.506207 153.693592 
L 65.758346 153.583415 
L 65.782359 153.509964 
L 65.815377 153.693592 
L 65.866406 153.656867 
L 65.98347 153.509964 
L 65.884416 153.693592 
L 65.986472 153.546689 
L 66.022492 153.656867 
L 66.064515 153.509964 
L 66.097533 153.583415 
L 66.193586 153.473238 
L 66.133553 153.620141 
L 66.205593 153.583415 
L 66.298644 153.620141 
L 66.226605 153.473238 
L 66.310651 153.509964 
L 66.412707 153.620141 
L 66.415709 153.693592 
L 66.418711 153.546689 
L 66.520767 153.546689 
L 66.847948 153.436512 
L 66.968014 153.252883 
L 66.971016 153.289609 
L 66.977019 153.326335 
L 67.043056 153.142706 
L 67.067069 153.142706 
L 67.139109 152.995803 
L 67.085079 153.179432 
L 67.181132 153.10598 
L 67.220153 153.032529 
L 67.313205 152.959077 
L 67.259175 153.069254 
L 67.331215 153.032529 
L 67.349225 152.995803 
L 67.424266 153.142706 
L 67.433271 153.142706 
L 67.565344 153.252883 
L 67.676405 153.326335 
L 67.598362 153.216157 
L 67.679407 153.289609 
L 67.718429 153.36306 
L 67.751447 153.436512 
L 67.787467 153.216157 
L 67.826488 153.289609 
L 67.916538 153.179432 
L 68.018595 153.10598 
L 67.928545 153.216157 
L 68.0276 153.179432 
L 68.225709 153.10598 
L 68.324764 152.959077 
L 68.339772 153.032529 
L 68.772011 152.922351 
L 68.844051 152.8489 
L 68.793022 152.959077 
L 68.88007 152.959077 
L 69.09619 152.8489 
L 69.141215 152.922351 
L 69.213254 152.701997 
L 69.264283 152.775448 
L 69.315311 152.628545 
L 69.318313 152.628545 
L 69.363337 152.701997 
L 69.366339 152.775448 
L 69.45939 152.591819 
L 69.468395 152.628545 
L 69.492409 152.591819 
L 69.534432 152.775448 
L 69.570452 152.738722 
L 69.600468 152.665271 
L 69.60347 152.591819 
L 69.687516 152.812174 
L 69.705526 152.701997 
L 69.762558 152.885625 
L 69.819589 152.8489 
L 69.822591 152.8489 
L 69.963669 145.283391 
L 70.16478 140.839573 
L 70.909191 133.090435 
L 70.9242 132.980257 
L 71.140319 131.694855 
L 71.164332 131.621404 
L 71.30541 130.813437 
L 71.308412 130.850163 
L 71.37745 130.446179 
L 71.386455 130.446179 
L 71.410468 130.446179 
L 71.530535 129.858567 
L 71.533536 129.895293 
L 71.599573 129.601487 
L 71.620584 129.601487 
L 71.764664 129.197503 
L 71.794681 129.270955 
L 71.860717 129.013874 
L 71.863719 129.087326 
L 71.989788 128.646616 
L 71.99279 128.683342 
L 72.06483 128.35281 
L 72.076836 128.35281 
L 72.121861 128.279359 
L 72.232923 127.948827 
L 72.244929 127.985553 
L 72.364996 127.801924 
L 72.256936 128.022278 
L 72.367997 127.83865 
L 72.39201 127.728472 
L 72.509075 127.544843 
L 72.515078 127.581569 
L 72.545095 127.471392 
L 72.66216 127.287763 
L 72.557102 127.508118 
L 72.665161 127.324489 
L 72.689175 127.361214 
L 72.740203 127.214311 
L 72.764216 127.251037 
L 72.860269 127.030683 
L 72.881281 127.104134 
L 73.235476 126.993957 
L 73.244481 127.067408 
L 73.349539 126.957231 
L 73.394564 126.993957 
L 73.442591 126.810328 
L 73.454597 126.883779 
L 73.517632 126.993957 
L 73.56866 126.773602 
L 73.655709 126.920505 
L 73.682724 126.847054 
L 74.018909 126.736876 
L 74.108959 126.663425 
L 74.033918 126.810328 
L 74.126969 126.736876 
L 74.129971 126.773602 
L 74.187002 126.589973 
L 74.226024 126.589973 
L 74.307068 126.516522 
L 74.325078 126.369619 
L 74.421131 126.44307 
L 74.823354 126.516522 
L 74.928412 126.663425 
L 74.937417 126.589973 
L 75.05148 126.700151 
L 75.003453 126.553248 
L 75.054481 126.663425 
L 75.060485 126.700151 
L 75.171546 126.589973 
L 75.285609 126.700151 
L 75.231579 126.516522 
L 75.288611 126.663425 
L 75.528743 126.736876 
L 75.636803 126.847054 
L 75.534747 126.663425 
L 75.642806 126.810328 
L 75.690833 126.736876 
L 75.738859 126.957231 
L 75.747864 126.883779 
L 75.762873 126.847054 
L 75.870932 127.067408 
L 75.879937 127.030683 
L 75.933967 127.251037 
L 75.972989 127.177586 
L 76.057035 127.361214 
L 76.087052 127.324489 
L 76.141082 127.251037 
L 76.177101 127.39794 
L 76.195111 127.324489 
L 76.270153 127.471392 
L 76.306173 127.39794 
L 76.309174 127.287763 
L 76.366206 127.471392 
L 76.414232 127.39794 
L 76.504282 127.508118 
L 76.486272 127.361214 
L 76.522292 127.471392 
L 76.621347 127.324489 
L 76.597334 127.544843 
L 76.636355 127.361214 
L 77.023569 127.471392 
L 77.029572 127.434666 
L 77.140634 127.544843 
L 77.230683 127.434666 
L 77.257698 127.471392 
L 77.362756 127.544843 
L 77.27871 127.434666 
L 77.365758 127.508118 
L 77.392773 127.544843 
L 77.479821 127.39794 
L 77.554863 127.471392 
L 77.557864 127.581569 
L 77.626902 127.39794 
L 77.665924 127.544843 
L 77.668926 127.434666 
L 77.74997 127.655021 
L 77.776985 127.471392 
L 77.816007 127.655021 
L 77.897052 127.618295 
L 78.011115 127.508118 
L 78.014116 127.544843 
L 78.122176 127.581569 
L 78.086156 127.471392 
L 78.125178 127.544843 
L 78.233237 127.471392 
L 78.242242 127.361214 
L 78.275261 127.544843 
L 78.341297 127.508118 
L 78.371314 127.434666 
L 78.374315 127.361214 
L 78.386322 127.471392 
L 78.482375 127.434666 
L 79.046687 127.544843 
L 79.112723 127.581569 
L 79.082707 127.434666 
L 79.157748 127.544843 
L 79.190766 127.434666 
L 79.250799 127.581569 
L 79.268809 127.544843 
L 79.409887 127.434666 
L 79.412889 127.39794 
L 79.493934 127.581569 
L 79.511944 127.544843 
L 79.881148 127.508118 
L 79.920169 127.361214 
L 79.992209 127.434666 
L 80.568527 127.508118 
L 80.583536 127.434666 
L 80.679589 127.581569 
L 80.787648 127.434666 
L 80.793652 127.471392 
L 80.850683 127.581569 
L 80.877698 127.434666 
L 80.907715 127.544843 
L 81.006769 127.434666 
L 81.021778 127.471392 
L 81.027781 127.544843 
L 81.033784 127.434666 
L 81.135841 127.508118 
L 81.165857 127.434666 
L 81.207881 127.618295 
L 81.249904 127.471392 
L 81.36997 127.655021 
L 81.372972 127.618295 
L 81.375973 127.544843 
L 81.433005 127.728472 
L 81.481031 127.691746 
L 81.709157 127.765198 
L 81.736172 127.728472 
L 81.826222 127.912101 
L 81.880252 127.728472 
L 81.940285 127.801924 
L 82.045343 127.83865 
L 81.997317 127.728472 
L 82.051346 127.801924 
L 82.087366 127.728472 
L 82.192424 127.581569 
L 82.198428 127.691746 
L 82.315492 127.618295 
L 82.426554 127.508118 
L 82.429555 127.544843 
L 82.477582 127.655021 
L 82.540617 127.691746 
L 82.501595 127.581569 
L 82.579638 127.581569 
L 82.597648 127.655021 
L 82.696703 127.508118 
L 82.756736 127.618295 
L 82.771744 127.471392 
L 82.807764 127.508118 
L 82.909821 127.618295 
L 82.837781 127.471392 
L 82.924829 127.581569 
L 83.212988 127.508118 
L 83.276023 127.581569 
L 83.32405 127.434666 
L 83.435111 127.618295 
L 83.444116 127.544843 
L 83.74128 127.655021 
L 83.84934 127.765198 
L 83.768295 127.581569 
L 83.852341 127.728472 
L 83.945393 127.618295 
L 83.897366 127.83865 
L 83.966404 127.691746 
L 84.182524 127.581569 
L 84.203535 127.655021 
L 84.293585 127.508118 
L 84.296587 127.544843 
L 84.335608 127.39794 
L 84.401645 127.471392 
L 84.671794 127.361214 
L 84.797864 127.067408 
L 84.800865 127.14086 
L 84.857897 127.251037 
L 84.905923 127.067408 
L 85.034995 126.993957 
L 85.119041 126.773602 
L 85.050003 127.030683 
L 85.149058 126.883779 
L 85.230102 126.810328 
L 85.344166 126.626699 
L 85.347167 126.663425 
L 85.584298 126.773602 
L 85.629323 126.847054 
L 85.632325 126.700151 
L 85.69536 126.773602 
L 85.779406 126.663425 
L 85.728378 126.847054 
L 85.812424 126.700151 
L 85.923486 126.810328 
L 85.929489 126.773602 
L 86.025542 126.810328 
L 86.142607 127.030683 
L 86.157615 126.993957 
L 86.205641 127.214311 
L 86.244663 127.14086 
L 86.361728 127.361214 
L 86.397748 127.287763 
L 86.466786 127.434666 
L 87.049107 127.324489 
L 87.055111 127.39794 
L 87.16317 127.177586 
L 87.166172 127.324489 
L 87.19919 127.14086 
L 87.274232 127.251037 
L 87.385293 127.030683 
L 87.3973 127.067408 
L 87.523369 127.251037 
L 87.607416 127.361214 
L 87.610417 127.434666 
L 87.703469 127.177586 
L 87.709472 127.251037 
L 87.784514 127.067408 
L 87.721479 127.287763 
L 87.820534 127.177586 
L 87.835542 128.389536 
L 87.985625 139.407267 
L 88.853104 157.917056 
L 89.351379 162.691406 
L 89.357382 162.654681 
L 89.420417 162.985213 
L 89.432424 162.985213 
L 89.5705 163.683002 
L 89.582507 163.756454 
L 89.71458 164.380792 
L 89.58851 163.719728 
L 89.717581 164.344066 
L 89.723585 164.30734 
L 89.792623 164.711324 
L 89.80463 164.637872 
L 89.930699 165.041856 
L 89.936703 165.00513 
L 90.017747 165.298936 
L 90.020749 165.26221 
L 90.125807 165.592742 
L 90.143817 165.556017 
L 90.158825 165.519291 
L 90.182838 165.666194 
L 90.242872 165.666194 
L 90.320915 165.813097 
L 90.25788 165.629468 
L 90.353933 165.739645 
L 90.368941 165.666194 
L 90.443983 165.849823 
L 90.461993 165.813097 
L 90.467996 165.739645 
L 90.558046 165.923274 
L 90.564049 165.923274 
L 90.654099 165.849823 
L 90.669107 165.739645 
L 90.687117 165.886548 
L 90.768162 165.776371 
L 90.918245 165.849823 
L 90.92725 165.923274 
L 91.014298 165.776371 
L 91.026304 165.776371 
L 91.149372 165.556017 
L 91.152374 165.592742 
L 91.170384 165.666194 
L 91.173386 165.739645 
L 91.200401 165.556017 
L 91.278444 165.592742 
L 91.386503 165.482565 
L 91.368493 165.666194 
L 91.395508 165.519291 
L 91.443535 165.556017 
L 91.48856 165.372388 
L 91.497565 165.409113 
L 91.779721 165.335662 
L 91.824746 165.372388 
L 91.893784 165.225485 
L 92.025857 165.115307 
L 92.088891 165.00513 
L 92.03186 165.152033 
L 92.13992 165.078581 
L 92.154928 165.152033 
L 92.214961 165.298936 
L 92.160931 165.115307 
L 92.268991 165.225485 
L 92.280998 165.298936 
L 92.389057 165.115307 
L 92.59317 165.225485 
L 92.716238 165.445839 
L 92.71924 165.409113 
L 92.830301 165.298936 
L 92.734248 165.445839 
L 92.833303 165.372388 
L 92.995392 165.26221 
L 93.121462 165.078581 
L 93.232523 165.00513 
L 93.35259 164.74805 
L 93.361594 164.858227 
L 93.418626 164.674598 
L 93.463651 164.74805 
L 93.601727 164.380792 
L 93.616735 164.454243 
L 93.670765 164.233889 
L 93.706785 164.270615 
L 93.772822 164.160437 
L 93.87788 163.719728 
L 93.907896 163.829905 
L 93.910898 163.866631 
L 93.997946 163.646276 
L 94.006951 163.683002 
L 94.033966 163.829905 
L 94.133021 163.499373 
L 94.160036 163.536099 
L 94.175044 163.389196 
L 94.24108 163.499373 
L 94.334132 163.462648 
L 94.274099 163.609551 
L 94.352142 163.499373 
L 94.373153 163.536099 
L 94.442191 163.35247 
L 94.451196 163.35247 
L 94.52924 163.279019 
L 94.649306 162.985213 
L 94.709339 163.168841 
L 94.751362 162.948487 
L 94.760367 163.058664 
L 94.880434 162.728132 
L 94.883435 162.764858 
L 94.967482 162.875035 
L 94.979488 162.911761 
L 95.051528 162.617955 
L 95.060533 162.691406 
L 95.192606 162.360874 
L 95.198609 162.434326 
L 95.288659 162.067068 
L 95.291661 162.103794 
L 95.348692 162.030342 
L 95.468759 161.736536 
L 95.474762 161.809988 
L 95.558808 161.589633 
L 95.573817 161.663085 
L 95.636851 161.552907 
L 95.657863 161.589633 
L 95.771926 161.222376 
L 95.777929 161.295827 
L 95.849969 161.112198 
L 95.873982 161.148924 
L 95.982042 161.002021 
L 95.894994 161.259101 
L 95.994049 161.038747 
L 96.045077 160.928569 
L 96.162142 160.708215 
L 96.171147 160.74494 
L 96.210168 160.708215 
L 96.330234 160.267505 
L 96.360251 160.377683 
L 96.423286 160.157328 
L 96.432291 160.157328 
L 96.537349 160.047151 
L 96.549355 160.083877 
L 96.606387 159.973699 
L 96.72045 159.826796 
L 96.61239 160.010425 
L 96.723452 159.900248 
L 96.79249 159.826796 
L 96.909554 159.569716 
L 96.798493 159.863522 
L 96.912556 159.606442 
L 97.017614 159.386087 
L 97.035624 159.422813 
L 97.062639 159.496264 
L 97.122672 159.202458 
L 97.128675 159.239184 
L 97.308775 158.394491 
L 97.374811 158.284314 
L 97.512888 157.953782 
L 97.554911 157.843605 
L 97.656967 157.806879 
L 97.569919 157.88033 
L 97.665972 157.843605 
L 97.674977 157.917056 
L 97.759024 157.62325 
L 97.765027 157.659976 
L 97.891097 157.329444 
L 97.8971 157.439621 
L 97.960135 157.182541 
L 97.999156 157.255992 
L 98.122224 156.92546 
L 98.155243 156.962186 
L 98.200267 156.741831 
L 98.221279 156.815283 
L 98.33234 156.594928 
L 98.335342 156.631654 
L 98.413385 156.741831 
L 98.416387 156.778557 
L 98.500433 156.484751 
L 98.506437 156.558203 
L 98.599488 156.631654 
L 98.617498 156.484751 
L 98.644513 156.594928 
L 98.713551 156.374574 
L 98.722556 156.374574 
L 98.806602 156.264396 
L 98.914662 156.190945 
L 98.857631 156.301122 
L 98.917664 156.227671 
L 98.956685 156.264396 
L 99.010715 156.117493 
L 99.022722 156.154219 
L 99.034728 156.190945 
L 99.151793 155.933864 
L 99.226835 155.860413 
L 99.340898 155.676784 
L 99.343899 155.750236 
L 99.397929 155.493155 
L 99.442954 155.529881 
L 99.560019 155.309526 
L 99.457962 155.566607 
L 99.566022 155.346252 
L 99.569024 155.382978 
L 99.638062 155.089172 
L 99.65307 155.125897 
L 99.76113 154.905543 
L 99.770135 154.942269 
L 99.836171 154.868817 
L 99.863186 154.75864 
L 99.890201 154.905543 
L 99.947233 154.868817 
L 100.013269 154.75864 
L 100.136337 154.501559 
L 100.037282 154.795366 
L 100.139339 154.575011 
L 100.157349 154.464834 
L 100.298427 154.024124 
L 100.301428 154.097576 
L 100.39448 153.767044 
L 100.397481 153.80377 
L 100.547564 153.326335 
L 100.670632 153.252883 
L 100.787697 153.10598 
L 100.802705 153.179432 
L 100.88375 152.959077 
L 100.886752 152.959077 
L 101.027829 152.518368 
L 100.895757 152.995803 
L 101.030831 152.555094 
L 101.066851 152.481642 
L 101.075856 152.518368 
L 101.186917 152.261287 
L 101.189919 152.298013 
L 101.270964 151.967481 
L 101.276967 152.004207 
L 101.327995 151.930755 
L 101.358012 151.967481 
L 101.44506 151.710401 
L 101.448062 151.747127 
L 101.526105 151.45332 
L 101.53511 151.490046 
L 101.541113 151.526772 
L 101.694198 150.902434 
L 101.763236 150.828982 
L 101.8803 150.571902 
L 101.805259 150.865708 
L 101.883302 150.608628 
L 101.910317 150.49845 
L 102.051395 150.094467 
L 102.057398 150.167918 
L 102.135441 149.910838 
L 102.144446 149.910838 
L 102.243501 149.653758 
L 102.267514 149.727209 
L 102.318542 149.763935 
L 102.360566 149.580306 
L 102.369571 149.617032 
L 102.399587 149.506855 
L 102.435607 149.323226 
L 102.51365 149.470129 
L 102.528659 149.506855 
L 102.6037 149.2865 
L 102.609703 149.2865 
L 102.645723 149.176323 
L 102.726768 148.992694 
L 102.654728 149.249774 
L 102.768791 149.029419 
L 102.771793 149.102871 
L 102.822821 148.882516 
L 102.873849 148.955968 
L 103.002921 148.735613 
L 103.014927 148.662162 
L 103.026934 148.698888 
L 103.134994 148.441807 
L 103.137995 148.515259 
L 103.192025 148.294904 
L 103.240052 148.405081 
L 103.34511 148.294904 
L 103.306088 148.441807 
L 103.351113 148.33163 
L 103.354115 148.368356 
L 103.405143 148.111275 
L 103.450168 148.184727 
L 103.534214 148.074549 
L 103.65428 147.964372 
L 103.750333 147.854195 
L 103.882406 147.450211 
L 103.891411 147.486937 
L 103.921428 147.37676 
L 104.038493 147.119679 
L 104.050499 147.156405 
L 104.113534 147.303308 
L 104.164562 147.266582 
L 104.248609 147.193131 
L 104.332655 147.009502 
L 104.260615 147.229857 
L 104.362672 147.082954 
L 104.365673 147.119679 
L 104.434711 146.862599 
L 104.455723 146.899325 
L 104.578791 146.532067 
L 104.644828 146.568793 
L 104.674844 146.385164 
L 104.680847 146.42189 
L 104.908973 146.348438 
L 105.038045 145.907729 
L 105.059056 145.98118 
L 105.128095 145.797552 
L 105.140101 145.797552 
L 105.191129 145.687374 
L 105.320201 145.393568 
L 105.323202 145.430294 
L 105.383235 145.356842 
L 105.488294 145.136488 
L 105.5003 145.209939 
L 105.635375 144.916133 
L 105.668393 144.879407 
L 105.782456 144.585601 
L 105.785458 144.622327 
L 105.908526 144.401972 
L 105.812473 144.659053 
L 105.911527 144.438698 
L 105.914529 144.475424 
L 105.980565 144.291795 
L 106.013584 144.328521 
L 106.058609 144.218343 
L 106.082622 144.255069 
L 106.178675 144.034715 
L 106.181677 144.108166 
L 106.247713 143.924537 
L 106.286735 143.997989 
L 106.439819 143.447102 
L 106.472837 143.55728 
L 106.538874 143.336925 
L 106.547879 143.447102 
L 106.667945 143.226748 
L 106.709968 143.11657 
L 106.809023 143.006393 
L 106.739985 143.226748 
L 106.827033 143.043119 
L 107.082174 142.932941 
L 107.160217 142.786038 
L 107.103186 142.969667 
L 107.193235 142.896216 
L 107.196237 142.932941 
L 107.250267 142.675861 
L 107.286287 142.712587 
L 107.41836 142.308603 
L 107.421361 142.345329 
L 107.460383 142.418781 
L 107.508409 142.198426 
L 107.526419 142.198426 
L 107.619471 142.235152 
L 107.574446 142.088249 
L 107.637481 142.198426 
L 107.694512 142.088249 
L 107.700516 142.124974 
L 107.820582 141.90462 
L 108.0337 141.794443 
L 108.165773 141.537362 
L 108.195789 141.500636 
L 108.318857 141.059927 
L 108.45093 140.766121 
L 108.453932 140.802847 
L 108.54098 140.545766 
L 108.543982 140.545766 
L 108.658045 140.288686 
L 108.552987 140.619218 
L 108.66705 140.325412 
L 108.682058 140.398863 
L 108.763103 140.105057 
L 108.769106 140.141783 
L 108.871162 140.031606 
L 108.877166 140.068331 
L 109.01224 139.627622 
L 109.063268 139.664348 
L 109.10229 139.443993 
L 109.105292 139.480719 
L 109.111295 139.517445 
L 109.225358 139.260364 
L 109.22836 139.370542 
L 109.330416 139.113461 
L 109.375441 139.04001 
L 109.498509 138.746204 
L 109.513517 138.782929 
L 109.582555 138.525849 
L 109.59156 138.525849 
L 109.729637 138.452397 
L 109.8437 138.08514 
L 109.852704 138.158591 
L 109.885723 138.048414 
L 109.900731 138.121865 
L 110.008791 137.901511 
L 110.107845 137.791333 
L 110.209902 137.570979 
L 110.113849 137.828059 
L 110.230913 137.607705 
L 110.233915 137.64443 
L 110.311958 137.424076 
L 110.329968 137.460802 
L 110.468044 137.093544 
L 110.471046 137.13027 
L 110.549089 136.873189 
L 110.561096 136.873189 
L 110.594114 136.799738 
L 110.600117 136.836463 
L 110.720184 136.43248 
L 110.78622 136.322303 
L 110.837248 136.212125 
L 110.864263 136.395754 
L 110.891278 136.359028 
L 110.89428 136.395754 
L 110.975325 136.1754 
L 110.98433 136.248851 
L 111.077381 136.101948 
L 111.095391 136.1754 
L 111.179437 136.138674 
L 111.263484 135.881593 
L 111.2935 135.918319 
L 111.320515 135.955045 
L 111.362539 135.771416 
L 111.392555 135.844868 
L 111.512621 135.624513 
L 111.641693 135.514336 
L 111.650698 135.551061 
L 111.767762 135.293981 
L 111.770764 135.330707 
L 111.827796 135.000175 
L 111.854811 135.000175 
L 111.905839 134.889998 
L 112.028907 134.559466 
L 111.920847 134.926723 
L 112.037912 134.596191 
L 112.040913 134.632917 
L 112.12496 134.412563 
L 112.133965 134.449288 
L 112.263036 134.228934 
L 112.269039 134.375837 
L 112.332074 134.192208 
L 112.371096 134.192208 
L 112.482157 134.045305 
L 112.48816 134.082031 
L 112.551195 134.118756 
L 112.54219 134.008579 
L 112.593218 134.008579 
L 112.683268 133.935128 
L 112.797331 133.678047 
L 112.689271 133.971853 
L 112.803334 133.714773 
L 112.932406 133.494418 
L 112.992439 133.384241 
L 113.001444 133.420967 
L 113.142522 132.906806 
L 113.184545 132.833354 
L 113.30161 132.613 
L 113.325623 132.649726 
L 113.391659 132.429371 
L 113.397663 132.429371 
L 113.565756 132.319194 
L 113.685822 132.098839 
L 113.691825 132.135565 
L 113.757862 132.025387 
L 113.883931 131.805033 
L 113.892936 131.878484 
L 113.961975 131.65813 
L 113.979984 131.65813 
L 114.100051 131.401049 
L 114.106054 131.437775 
L 114.109056 131.474501 
L 114.175092 131.143969 
L 114.196104 131.21742 
L 114.313169 130.70326 
L 114.325175 130.739985 
L 114.355192 130.629808 
L 114.367198 130.666534 
L 114.490266 130.299276 
L 114.517281 130.336002 
L 114.562306 130.042196 
L 114.583318 130.115647 
L 114.730399 129.674938 
L 114.796436 129.564761 
L 114.937513 129.197503 
L 114.988542 129.087326 
L 114.994545 129.124051 
L 115.117613 128.830245 
L 115.120615 128.903697 
L 115.201659 128.609891 
L 115.219669 128.609891 
L 115.351742 128.09573 
L 115.417779 127.985553 
L 115.543848 127.544843 
L 115.426784 128.059004 
L 115.552853 127.655021 
L 115.56486 127.691746 
L 115.639901 127.39794 
L 115.642903 127.434666 
L 115.732953 127.14086 
L 115.759968 127.251037 
L 115.780979 127.14086 
L 115.943069 126.516522 
L 115.964081 126.406344 
L 115.979089 126.44307 
L 116.099155 126.075812 
L 116.114163 126.112538 
L 116.174197 125.892184 
L 116.195208 125.928909 
L 116.318276 125.635103 
L 116.321278 125.671829 
L 116.381311 125.414749 
L 116.414329 125.451474 
L 116.444346 125.341297 
L 116.57942 125.010765 
L 116.582422 125.084217 
L 116.654462 124.827136 
L 116.684479 124.863862 
L 116.696485 124.79041 
L 116.81355 124.459879 
L 116.819553 124.496604 
L 117.002654 124.386427 
L 117.140731 124.055895 
L 117.143732 124.092621 
L 117.215772 123.798815 
L 117.233782 123.83554 
L 117.362853 123.57846 
L 117.368857 123.688637 
L 117.461908 123.468283 
L 117.470913 123.505009 
L 117.587978 123.32138 
L 117.605988 123.394831 
L 117.636004 123.284654 
L 117.702041 123.358105 
L 117.804097 123.064299 
L 117.82811 123.174477 
L 117.966187 123.064299 
L 118.119271 122.550138 
L 118.146286 122.439961 
L 118.254346 122.182881 
L 118.164296 122.476687 
L 118.272356 122.219607 
L 118.326386 122.256332 
L 118.356402 122.109429 
L 118.374412 122.109429 
L 118.440449 122.035978 
L 118.557513 121.852349 
L 118.638558 121.742171 
L 118.647563 121.778897 
L 118.770631 121.485091 
L 118.809652 121.41164 
L 118.923716 121.301462 
L 118.938724 121.374914 
L 119.019769 121.154559 
L 119.02277 121.154559 
L 119.043782 121.228011 
L 119.154843 120.897479 
L 119.187861 120.934205 
L 119.253898 120.750576 
L 119.370963 120.493495 
L 119.373964 120.530221 
L 119.503036 120.199689 
L 119.506037 120.273141 
L 119.509039 120.309866 
L 119.542057 120.162963 
L 119.608094 120.162963 
L 119.6201 120.199689 
L 119.734163 119.942609 
L 119.755175 120.01606 
L 119.827215 119.722254 
L 119.878243 119.648803 
L 119.995307 119.391722 
L 120.040332 119.318271 
L 120.172405 118.80411 
L 120.196419 118.877561 
L 120.259453 118.510304 
L 120.274462 118.583755 
L 120.334495 118.473578 
L 120.385523 118.179772 
L 120.454561 118.253223 
L 120.574627 117.996143 
L 120.463566 118.289949 
L 120.583632 118.032869 
L 120.628657 117.922691 
L 120.634661 117.959417 
L 120.763732 117.628885 
L 120.811758 117.555434 
L 120.919818 117.40853 
L 120.83277 117.592159 
L 120.925822 117.481982 
L 120.964843 117.371805 
L 121.108923 116.967821 
L 121.129934 117.004547 
L 121.171957 116.820918 
L 121.213981 116.89437 
L 121.313035 116.674015 
L 121.334047 116.784192 
L 121.346054 116.710741 
L 121.35806 116.747467 
L 121.46612 116.490386 
L 121.493135 116.527112 
L 121.53816 116.343483 
L 121.565175 116.343483 
L 121.616203 116.233306 
L 121.748276 115.902774 
L 121.760282 115.976225 
L 121.838326 115.682419 
L 121.850332 115.682419 
L 121.91937 115.572242 
L 122.048442 115.351887 
L 122.126485 115.462065 
L 122.138491 115.278436 
L 122.156501 115.315162 
L 122.279569 114.911178 
L 122.282571 114.947904 
L 122.324594 114.837726 
L 122.453666 114.580646 
L 122.456667 114.617372 
L 122.546717 114.397017 
L 122.555722 114.470469 
L 122.684793 114.02976 
L 122.756833 113.919582 
L 122.912919 113.368696 
L 122.963947 113.295244 
L 123.07801 113.038164 
L 123.084014 113.074889 
L 123.099022 113.111615 
L 123.22209 112.707632 
L 123.234097 112.781083 
L 123.315141 112.487277 
L 123.321145 112.560729 
L 123.456219 112.230197 
L 123.459221 112.266923 
L 123.522256 111.826213 
L 123.534262 111.862939 
L 123.678342 111.385504 
L 123.681344 111.42223 
L 123.717364 111.312052 
L 123.723367 111.385504 
L 123.843433 111.091698 
L 123.849437 111.201875 
L 123.933483 110.908069 
L 123.936485 110.908069 
L 124.161609 109.51249 
L 124.176617 109.402312 
L 124.323699 108.447442 
L 124.3267 108.484168 
L 124.401742 108.11691 
L 124.410747 108.153636 
L 124.596849 101.028837 
L 124.641874 19.424173 
L 124.716916 76.569473 
L 124.87 112.524003 
L 125.056103 116.233306 
L 125.230199 117.298353 
L 125.248209 117.224902 
L 125.314246 117.298353 
L 125.320249 117.371805 
L 125.395291 117.077999 
L 125.416302 117.077999 
L 125.419304 117.114724 
L 125.500349 116.747467 
L 125.50335 116.784192 
L 125.674445 116.049677 
L 125.692455 115.976225 
L 125.833533 115.24171 
L 126.043649 114.02976 
L 126.052654 114.103211 
L 126.112687 113.515599 
L 126.133698 113.405421 
L 126.385838 111.605859 
L 126.388839 111.67931 
L 126.466882 110.981521 
L 126.469884 111.054972 
L 126.631974 109.76957 
L 126.649984 109.659393 
L 127.004179 106.64788 
L 127.007181 106.684605 
L 127.055207 105.986816 
L 127.115241 101.17574 
L 127.163267 19.754705 
L 127.24131 78.111955 
L 127.394395 111.054972 
L 127.562488 114.54392 
L 127.736584 115.315162 
L 127.871659 115.204984 
L 128.012736 114.727549 
L 128.01874 114.764275 
L 128.033748 114.690823 
L 128.168823 114.103211 
L 128.183831 114.066485 
L 128.318906 113.148341 
L 128.339917 113.038164 
L 128.586053 111.385504 
L 128.604063 111.275327 
L 128.748143 110.063376 
L 128.766153 109.953199 
L 129.138358 106.611154 
L 129.14136 106.684605 
L 129.144362 106.758057 
L 129.2134 105.839913 
L 129.216401 105.876638 
L 129.315456 103.452737 
L 129.333466 71.170785 
L 129.369486 19.864882 
L 129.441526 70.546446 
L 129.597612 108.594345 
L 129.819735 112.781083 
L 129.822736 112.744358 
L 129.891774 113.074889 
L 129.906783 113.074889 
L 129.909784 113.111615 
L 129.999834 112.854535 
L 130.002836 112.964712 
L 130.122902 112.524003 
L 130.131907 112.597454 
L 130.197944 112.156745 
L 130.206949 112.193471 
L 130.381045 111.348778 
L 130.384046 111.385504 
L 130.393051 111.312052 
L 130.558143 109.953199 
L 130.576153 109.843022 
L 130.867313 107.639475 
L 130.885323 107.566024 
L 131.056418 106.096993 
L 131.31456 101.800078 
L 131.33257 72.419461 
L 131.36859 19.938334 
L 131.443632 70.803527 
L 131.599718 107.308943 
L 131.767811 110.908069 
L 131.782819 111.018246 
L 131.932902 111.642584 
L 131.941907 111.605859 
L 132.031957 111.532407 
L 132.167031 110.944795 
L 132.404162 109.365587 
L 132.407164 109.402312 
L 132.476202 108.924877 
L 133.169585 99.449628 
L 133.220613 19.864882 
L 133.307661 77.891601 
L 133.463748 106.574428 
L 133.643847 109.989925 
L 133.679867 110.100102 
L 133.787927 110.46736 
L 133.799933 110.357182 
L 133.889983 110.283731 
L 134.040066 109.255409 
L 134.043068 109.292135 
L 134.103101 108.8147 
L 134.112106 108.8147 
L 134.274195 107.566024 
L 134.277197 107.60275 
L 134.334229 107.125315 
L 134.346235 107.16204 
L 134.520331 105.509381 
L 134.523333 105.546106 
L 134.529336 105.472655 
L 134.724444 103.34256 
L 134.730447 103.379286 
L 134.781476 102.718222 
L 134.955572 99.339451 
L 134.967578 93.206247 
L 135.015605 19.53435 
L 135.090646 69.150867 
L 135.249734 104.701414 
L 135.429834 108.300539 
L 135.432835 108.263813 
L 135.558905 108.667797 
L 135.60393 108.704523 
L 135.681973 108.484168 
L 135.699983 108.55762 
L 135.769021 108.227088 
L 135.775024 108.263813 
L 136.03917 106.390799 
L 136.048175 106.317348 
L 136.21927 104.848317 
L 136.222272 104.885043 
L 136.276301 104.223979 
L 136.711542 97.539888 
L 136.74456 33.196337 
L 136.765572 19.717979 
L 136.831608 59.895973 
L 136.993698 103.599641 
L 137.245837 107.492572 
L 137.260845 107.419121 
L 137.281857 107.492572 
L 137.302869 107.676201 
L 137.383913 107.345669 
L 137.386915 107.345669 
L 137.428938 107.235492 
L 137.437943 107.272218 
L 137.585024 106.684605 
L 137.588026 106.721331 
L 137.663067 106.280622 
L 137.672072 106.243896 
L 137.81315 105.142123 
L 137.816152 105.178849 
L 137.882189 104.664688 
L 138.416484 97.025727 
L 138.437495 62.944212 
L 138.473515 19.607802 
L 138.545555 65.551742 
L 138.701641 102.314239 
L 138.863731 105.876638 
L 138.869734 105.839913 
L 138.974792 106.317348 
L 139.013814 106.243896 
L 139.058839 106.133719 
L 139.193913 105.546106 
L 139.425041 104.04035 
L 139.437047 104.077076 
L 139.497081 103.562915 
L 140.130431 95.00581 
L 140.187462 19.240544 
L 140.277512 75.72478 
L 140.4366 102.314239 
L 140.673731 105.399203 
L 140.706749 105.509381 
L 140.787794 105.362478 
L 140.85383 105.289026 
L 140.994908 104.554511 
L 141.43315 100.551402 
L 141.442155 100.441224 
L 141.790347 94.895633 
L 141.808357 79.250454 
L 141.850381 19.313996 
L 141.92242 62.356599 
L 142.081508 100.661579 
L 142.321641 103.819995 
L 142.324643 103.856721 
L 142.348656 103.746544 
L 142.426699 103.746544 
L 142.492735 103.636366 
L 142.813913 100.992111 
L 142.816915 101.065562 
L 142.894958 100.294321 
L 143.288175 94.124392 
L 143.312188 89.53367 
L 143.363216 19.056915 
L 143.444261 66.800418 
L 143.600347 99.963789 
L 143.789452 102.865125 
L 143.861492 103.08548 
L 143.91252 103.012028 
L 143.94854 102.938577 
L 144.095621 102.057158 
L 144.110629 101.946981 
L 144.813017 92.214651 
L 144.843034 40.284411 
L 144.870049 19.093641 
L 144.942089 57.949507 
L 145.10718 98.494758 
L 145.278274 101.469546 
L 145.389336 101.763352 
L 145.401342 101.653175 
L 145.54242 100.881933 
L 145.545422 100.918659 
L 145.620463 100.47795 
L 145.629468 100.404498 
L 145.794559 99.008919 
L 145.797561 99.045645 
L 145.851591 98.531484 
L 145.866599 98.531484 
L 146.013681 96.768647 
L 146.307843 91.920845 
L 146.325853 79.654438 
L 146.370878 18.432577 
L 146.445919 61.438455 
L 146.608009 97.980598 
L 146.836135 101.065562 
L 146.842138 100.992111 
L 146.86315 101.102288 
L 146.93519 100.845208 
L 146.938191 100.845208 
L 147.202337 98.898742 
L 147.205339 98.972193 
L 147.277379 98.200952 
L 147.28038 98.200952 
L 147.538523 94.565101 
L 147.547528 94.454923 
L 147.80567 83.547369 
L 147.856699 18.065319 
L 147.934742 61.805713 
L 148.096831 97.246082 
L 148.270927 99.963789 
L 148.279932 99.927063 
L 148.351972 100.037241 
L 148.357976 100.073966 
L 148.436019 99.78016 
L 148.43902 99.78016 
L 148.592105 98.751839 
L 148.604112 98.641661 
L 148.610115 98.678387 
L 149.228456 89.864202 
L 149.249468 67.865465 
L 149.291491 18.3224 
L 149.363531 56.223396 
L 149.528622 96.217761 
L 149.72373 99.449628 
L 149.726732 99.412903 
L 149.762752 99.52308 
L 149.819783 99.339451 
L 149.834791 99.412903 
L 149.963863 98.898742 
L 149.966864 98.935468 
L 150.029899 98.458033 
L 150.035902 98.458033 
L 150.642237 89.717299 
L 150.681259 85.089852 
L 150.735289 17.808239 
L 150.816334 61.107923 
L 150.978423 95.152713 
L 151.200546 98.127501 
L 151.296599 97.686791 
L 151.317611 97.576614 
L 151.458688 96.842099 
L 151.46169 96.878824 
L 151.521723 96.364664 
L 151.527727 96.364664 
L 151.719833 94.381472 
L 152.125057 88.174817 
L 152.152071 80.021695 
L 152.2031 17.698062 
L 152.278141 56.957911 
L 152.440231 93.79386 
L 152.539285 96.364664 
L 152.671358 97.246082 
L 152.680363 97.209356 
L 152.806433 96.805373 
L 152.830446 96.695196 
L 153.076582 95.042536 
L 153.079584 95.079262 
L 153.139617 94.491649 
L 153.550844 88.101365 
L 153.580861 83.327015 
L 153.634891 17.587884 
L 153.715935 59.602167 
L 153.881027 93.573505 
L 154.124161 96.805373 
L 154.316267 95.777051 
L 154.32227 95.813777 
L 154.382304 95.226165 
L 154.88358 87.734107 
L 154.913597 83.730998 
L 154.970629 17.036998 
L 155.054675 61.107923 
L 155.219766 93.426602 
L 155.414874 96.107583 
L 155.435886 96.034132 
L 155.576963 95.630148 
L 155.58897 95.666874 
L 155.649003 95.189439 
L 155.655007 95.226165 
L 156.300363 86.081448 
L 156.339385 76.936731 
L 156.390413 17.183901 
L 156.465454 53.652592 
L 156.633547 92.067748 
L 156.810645 94.74873 
L 156.816648 94.712004 
L 156.897693 94.932359 
L 156.930711 94.74873 
L 156.94572 94.638552 
L 157.224874 92.581909 
L 157.239882 92.471732 
L 157.443995 90.194734 
L 157.699136 85.71419 
L 157.747162 80.131873 
L 157.804194 17.110449 
L 157.885239 56.921185 
L 158.05033 90.965975 
L 158.332486 93.977488 
L 158.392519 93.79386 
L 158.809749 90.047831 
L 158.818754 90.047831 
L 158.968837 88.027914 
L 158.971839 88.064639 
L 159.016864 87.256672 
L 159.088904 80.93984 
L 159.145935 17.110449 
L 159.22698 56.627379 
L 159.392071 90.598718 
L 159.605189 93.316425 
L 159.611192 93.279699 
L 159.722253 92.985893 
L 159.620197 93.316425 
L 159.731258 93.059344 
L 159.782287 92.949167 
L 159.956383 91.406684 
L 159.971391 91.296507 
L 160.226532 87.734107 
L 160.229534 87.770833 
L 160.274559 86.999592 
L 160.38562 84.281885 
L 160.424641 77.450891 
L 160.481673 16.522837 
L 160.559716 53.432237 
L 160.727809 89.680573 
L 160.8929 92.361555 
L 161.030976 92.288103 
L 161.175056 91.480136 
L 161.832419 82.15179 
L 161.856432 63.164566 
L 161.901457 16.265757 
L 161.973497 47.078679 
L 162.150595 88.615526 
L 162.309683 91.480136 
L 162.318688 91.406684 
L 162.357709 91.516862 
L 162.384724 91.369959 
L 162.429749 91.406684 
L 162.468771 91.296507 
L 162.627859 89.974379 
L 162.63086 90.011105 
L 162.64887 89.900928 
L 163.054094 83.584095 
L 163.105122 80.425679 
L 163.171159 16.559563 
L 163.26421 59.05128 
L 163.432303 88.505349 
L 163.576382 91.039427 
L 163.591391 90.929249 
L 163.618406 90.965975 
L 163.657427 91.112878 
L 163.714459 90.819072 
L 163.726465 90.855798 
L 164.017626 88.615526 
L 164.020628 88.652252 
L 164.074658 87.954462 
L 164.095669 87.844285 
L 164.416847 82.665951 
L 164.467875 73.998669 
L 164.524906 16.082128 
L 164.60295 50.45745 
L 164.777046 87.550479 
L 164.936134 90.011105 
L 164.939135 89.974379 
L 164.990163 90.268186 
L 165.029185 90.23146 
L 165.035188 90.158008 
L 165.047195 90.23146 
L 165.170263 89.53367 
L 165.179268 89.423493 
L 165.791606 80.572582 
L 165.824624 72.382735 
L 165.881656 15.97195 
L 165.959699 49.245499 
L 166.130794 86.558883 
L 166.319898 89.643847 
L 166.3229 89.607122 
L 166.433961 89.496944 
L 166.400943 89.680573 
L 166.436963 89.53367 
L 166.469981 89.423493 
L 166.626067 88.32172 
L 166.647079 88.248268 
L 166.809168 86.375254 
L 166.81217 86.41198 
L 166.863198 85.71419 
L 166.8662 85.71419 
L 167.148356 76.900005 
L 167.211391 16.192305 
L 167.295437 51.485771 
L 167.466531 85.604013 
L 167.637626 88.615526 
L 167.652634 88.725703 
L 167.727676 88.982784 
L 167.658638 88.688977 
L 167.769699 88.946058 
L 168.427062 79.580986 
L 168.463082 70.619898 
L 168.520114 15.97195 
L 168.595155 46.527792 
L 168.772253 85.45711 
L 168.952352 87.991188 
L 169.069417 87.770833 
L 169.000379 88.101365 
L 169.07542 87.844285 
L 169.09343 87.734107 
L 169.30955 86.448705 
L 169.324558 86.338528 
L 169.774807 79.470809 
L 169.825835 75.541151 
L 169.891871 15.935225 
L 169.981921 52.110109 
L 170.153016 84.245159 
L 170.156017 84.208433 
L 170.183032 85.200029 
L 170.333115 87.073043 
L 170.363132 86.92614 
L 170.441175 86.852689 
L 170.579251 86.118173 
L 170.582253 86.191625 
L 170.663297 85.530561 
L 170.666299 85.530561 
L 170.681307 85.45711 
L 170.864409 83.657547 
L 170.873414 83.547369 
L 171.164574 78.626116 
L 171.218604 72.60309 
L 171.281639 14.796726 
L 171.362684 45.756551 
L 171.542783 83.290289 
L 171.710876 86.301802 
L 171.713878 86.228351 
L 171.800926 86.558883 
L 171.836946 86.41198 
L 172.353231 78.846471 
L 172.488306 64.009259 
L 172.542335 15.45779 
L 172.617377 42.928667 
L 172.797476 82.776128 
L 173.010594 85.383658 
L 173.013596 85.346932 
L 173.136664 85.420384 
L 173.142667 85.493835 
L 173.214707 85.053126 
L 173.229715 85.126578 
L 173.370793 83.988079 
L 173.788024 77.524343 
L 173.845055 73.521234 
L 173.914093 15.053806 
L 174.004143 49.612757 
L 174.178239 81.747807 
L 174.355337 84.428788 
L 174.394359 84.318611 
L 174.550445 83.620821 
L 174.400362 84.355336 
L 174.556448 83.657547 
L 174.55945 83.694273 
L 174.625486 83.180112 
L 175.105752 76.055312 
L 175.141771 67.902191 
L 175.204806 15.531241 
L 175.282849 43.479553 
L 175.465951 80.792937 
L 175.649052 83.473918 
L 175.673065 83.620821 
L 175.760113 83.510644 
L 175.766116 83.547369 
L 175.907194 82.629225 
L 175.910196 82.665951 
L 175.967227 82.115064 
L 175.970229 82.115064 
L 176.17134 79.874792 
L 176.177344 79.801341 
L 176.363446 77.046908 
L 176.489516 74.145572 
L 176.543546 68.673432 
L 176.615586 15.01708 
L 176.699632 43.553005 
L 176.885735 80.535856 
L 177.041821 83.143386 
L 177.101854 83.10666 
L 177.25794 82.482322 
L 177.260942 82.519048 
L 177.29396 82.445596 
L 177.51008 79.874792 
L 177.816249 74.843362 
L 177.885287 67.167675 
L 177.954325 15.531241 
L 178.03537 41.569813 
L 178.227476 79.470809 
L 178.383562 81.857984 
L 178.386564 81.821258 
L 178.389566 81.784532 
L 178.47061 82.078339 
L 178.473612 82.15179 
L 178.56066 81.747807 
L 178.566663 81.784532 
L 179.182003 73.043799 
L 179.221025 63.715453 
L 179.287061 14.796726 
L 179.365104 38.81538 
L 179.566216 79.103551 
L 179.758322 81.674355 
L 179.776332 81.564178 
L 179.839366 81.454 
L 179.995453 80.352227 
L 180.013463 80.24205 
L 180.637808 71.427865 
L 180.670826 56.003041 
L 180.727857 14.833452 
L 180.799897 36.097673 
L 181.007012 77.671246 
L 181.205121 79.911518 
L 181.208123 79.874792 
L 181.247144 79.911518 
L 181.295171 79.691163 
L 181.307177 79.727889 
L 181.463264 78.626116 
L 182.078603 69.811931 
L 182.138637 59.418538 
L 182.207675 15.127258 
L 182.279715 35.620238 
L 182.483827 76.606199 
L 182.663927 79.360632 
L 182.666928 79.323906 
L 182.696945 79.213728 
L 182.928073 77.63452 
L 182.931074 77.671246 
L 182.955088 77.781423 
L 183.000113 77.414166 
L 183.024126 77.561069 
L 183.174209 76.092038 
L 183.180212 76.165489 
L 183.255253 75.430974 
L 183.552418 65.73537 
L 183.633462 14.76 
L 183.720511 41.386184 
L 183.912617 75.908409 
L 184.077708 79.066825 
L 184.086713 79.0301 
L 184.146746 79.250454 
L 184.185768 78.993374 
L 184.191771 79.0301 
L 184.374872 77.267263 
L 184.867144 69.922108 
L 184.98721 56.811008 
L 185.05925 15.310887 
L 185.128288 33.526869 
L 185.347409 74.880087 
L 185.521505 77.487617 
L 185.527509 77.450891 
L 185.614557 77.340714 
L 185.740626 76.973456 
L 186.434009 67.167675 
L 186.473031 60.153053 
L 186.551074 15.274161 
L 186.629117 36.428205 
L 186.836232 74.07212 
L 187.007326 76.312393 
L 187.127393 76.128764 
L 187.148404 76.202215 
L 187.223446 75.834957 
L 187.226447 75.834957 
L 187.817774 69.958834 
L 187.826779 69.848657 
L 187.970858 66.800418 
L 188.054905 58.316765 
L 188.138951 15.163983 
L 188.213993 33.930853 
L 188.439117 73.043799 
L 188.655237 75.651329 
L 188.766298 75.394248 
L 188.706265 75.761506 
L 188.772301 75.4677 
L 188.799316 75.394248 
L 188.931389 74.586281 
L 189.63978 64.633597 
L 189.741837 55.048171 
L 189.822882 16.66974 
L 189.89192 36.171125 
L 190.054009 101.910255 
L 190.270129 116.159854 
L 190.480245 121.081108 
L 190.972517 125.745281 
L 190.987525 125.782006 
L 191.1226 126.663425 
L 191.314706 127.655021 
L 191.350726 127.765198 
L 191.365734 127.728472 
L 191.46779 127.948827 
L 191.533827 128.022278 
L 191.650891 128.316085 
L 191.70192 128.426262 
L 191.806978 128.683342 
L 191.707923 128.389536 
L 191.824988 128.573165 
L 191.870012 128.646616 
L 191.900029 128.573165 
L 191.984075 128.756794 
L 192.185187 128.866971 
L 192.305253 129.013874 
L 192.308255 128.977148 
L 192.341273 129.160777 
L 192.401306 129.160777 
L 192.503362 129.270955 
L 192.416314 129.124051 
L 192.515369 129.234229 
L 192.647442 128.940423 
L 192.656447 129.0506 
L 192.728487 128.830245 
L 192.755502 128.940423 
L 192.827541 128.866971 
L 192.77051 129.013874 
L 192.863561 128.940423 
L 192.950609 129.124051 
L 192.986629 129.087326 
L 193.049664 129.0506 
L 193.088686 129.197503 
L 193.091687 129.124051 
L 193.145717 129.197503 
L 193.109697 129.087326 
L 193.202749 129.124051 
L 193.373843 129.0506 
L 193.487906 128.940423 
L 193.517923 128.977148 
L 193.583959 128.79352 
L 193.586961 128.830245 
L 193.604971 128.756794 
L 193.671007 128.940423 
L 193.692019 128.866971 
L 193.78507 129.013874 
L 193.722036 128.79352 
L 193.809084 128.940423 
L 193.848105 128.866971 
L 193.818089 129.013874 
L 193.917143 128.940423 
L 194.013196 129.087326 
L 194.034208 129.013874 
L 194.331372 129.087326 
L 194.397409 129.197503 
L 194.376397 129.0506 
L 194.442434 129.124051 
L 194.781621 129.197503 
L 194.841654 129.160777 
L 194.895684 129.270955 
L 195.138818 129.160777 
L 195.261886 129.013874 
L 195.285899 128.940423 
L 195.396961 128.79352 
L 195.318918 128.977148 
L 195.399962 128.830245 
L 195.63109 128.720068 
L 195.736148 128.683342 
L 195.691123 128.79352 
L 195.742151 128.720068 
L 196.330476 128.756794 
L 196.399515 128.866971 
L 196.40852 128.683342 
L 196.441538 128.79352 
L 196.618636 128.903697 
L 196.666662 128.977148 
L 196.630642 128.830245 
L 196.729697 128.940423 
L 196.75371 128.866971 
L 196.780725 129.013874 
L 196.837757 128.977148 
L 196.948818 128.940423 
L 196.981836 128.977148 
L 197.062881 128.79352 
L 197.089896 128.940423 
L 197.149929 128.683342 
L 197.167939 128.720068 
L 197.417077 128.609891 
L 197.432085 128.646616 
L 197.540145 128.426262 
L 197.552151 128.462988 
L 197.564158 128.35281 
L 197.648204 128.389536 
L 197.873329 128.316085 
L 197.882334 128.35281 
L 197.987392 128.205907 
L 198.07444 128.132456 
L 198.176496 127.948827 
L 198.188503 128.022278 
L 198.773826 128.132456 
L 198.806844 128.242633 
L 198.77983 128.059004 
L 198.887889 128.169181 
L 198.989946 128.059004 
L 198.902898 128.205907 
L 199.001952 128.132456 
L 199.152035 128.059004 
L 199.155037 127.985553 
L 199.164042 128.132456 
L 199.263097 128.059004 
L 199.617292 128.169181 
L 199.674324 128.389536 
L 199.743362 128.35281 
L 199.893445 128.462988 
L 199.97449 128.683342 
L 200.010509 128.646616 
L 200.043528 128.573165 
L 200.085551 128.720068 
L 200.121571 128.646616 
L 200.436745 128.536439 
L 200.454755 128.462988 
L 200.502781 128.609891 
L 200.547806 128.499713 
L 200.550808 128.573165 
L 200.643859 128.389536 
L 200.652864 128.389536 
L 200.757922 128.279359 
L 200.664871 128.426262 
L 200.769929 128.316085 
L 200.799946 128.426262 
L 200.841969 128.242633 
L 200.886994 128.389536 
L 201.016065 128.169181 
L 201.253196 128.059004 
L 201.352251 127.985553 
L 201.268204 128.09573 
L 201.367259 128.022278 
L 201.499332 127.912101 
L 201.58638 127.83865 
L 201.508337 127.948827 
L 201.610393 127.912101 
L 201.613395 127.985553 
L 201.655418 127.83865 
L 201.721455 127.912101 
L 201.826513 127.83865 
L 201.760476 127.985553 
L 201.832516 127.912101 
L 201.940576 127.801924 
L 202.078652 127.361214 
L 201.952582 127.83865 
L 202.081654 127.434666 
L 202.084655 127.544843 
L 202.177707 127.251037 
L 202.186712 127.287763 
L 202.213727 127.251037 
L 202.204722 127.361214 
L 202.29177 127.324489 
L 202.402831 127.471392 
L 202.297773 127.287763 
L 202.408834 127.434666 
L 202.450858 127.287763 
L 202.471869 127.471392 
L 202.519896 127.434666 
L 202.63696 127.655021 
L 202.552914 127.39794 
L 202.642964 127.618295 
L 202.696993 127.544843 
L 202.709 127.691746 
L 202.754025 127.618295 
L 202.805053 127.728472 
L 202.814058 127.691746 
L 202.937126 128.022278 
L 203.012168 127.875375 
L 203.048187 127.985553 
L 203.177259 128.205907 
L 203.27031 128.132456 
L 203.375368 127.985553 
L 203.309332 128.169181 
L 203.384373 128.022278 
L 203.558469 127.948827 
L 203.606496 127.83865 
L 203.594489 127.985553 
L 203.669531 127.948827 
L 203.675534 127.875375 
L 203.750576 128.09573 
L 203.774589 128.022278 
L 203.83162 127.912101 
L 203.891653 127.801924 
L 203.945683 127.875375 
L 204.056745 128.022278 
L 203.954688 127.83865 
L 204.06575 127.985553 
L 204.134788 127.912101 
L 204.155799 128.059004 
L 204.176811 127.985553 
L 204.236844 127.875375 
L 204.344904 127.691746 
L 204.248851 127.912101 
L 204.353909 127.728472 
L 204.470973 127.948827 
L 204.543013 127.801924 
L 204.485982 127.985553 
L 204.59104 127.83865 
L 204.597043 127.875375 
L 204.684091 127.691746 
L 204.696098 127.801924 
L 204.816164 127.581569 
L 204.819166 127.655021 
L 204.903212 127.39794 
L 204.921222 127.471392 
L 204.939232 127.39794 
L 204.951239 127.434666 
L 205.059298 127.177586 
L 205.131338 127.067408 
L 205.119332 127.251037 
L 205.173361 127.14086 
L 205.27842 127.030683 
L 205.389481 126.920505 
L 205.392483 126.993957 
L 205.788701 127.104134 
L 205.809713 127.030683 
L 205.908768 127.251037 
L 206.022831 127.104134 
L 206.11288 127.177586 
L 206.139895 127.287763 
L 206.208934 127.14086 
L 206.223942 127.177586 
L 206.289978 127.104134 
L 206.253958 127.251037 
L 206.335003 127.177586 
L 206.440061 127.287763 
L 206.395036 127.14086 
L 206.452068 127.251037 
L 206.539116 127.361214 
L 206.659182 127.544843 
L 206.719215 127.471392 
L 206.731222 127.618295 
L 206.767242 127.618295 
L 206.797259 127.655021 
L 206.81827 127.618295 
L 206.914323 127.875375 
L 207.01638 127.801924 
L 206.99837 127.912101 
L 207.025385 127.83865 
L 207.124439 127.985553 
L 207.145451 127.948827 
L 207.184472 127.912101 
L 207.217491 128.09573 
L 207.241504 128.059004 
L 207.349564 128.242633 
L 207.358569 128.205907 
L 207.424605 128.09573 
L 207.391587 128.279359 
L 207.472632 128.169181 
L 207.57769 128.279359 
L 207.589696 128.242633 
L 207.691753 128.389536 
L 207.703759 128.279359 
L 207.784804 128.536439 
L 207.796811 128.499713 
L 207.862847 128.462988 
L 207.910874 128.609891 
L 207.919879 128.536439 
L 207.946894 128.720068 
L 208.01293 128.683342 
L 208.078967 128.79352 
L 208.018933 128.646616 
L 208.129995 128.756794 
L 208.382134 128.756794 
L 208.385136 128.573165 
L 208.46618 128.79352 
L 208.493195 128.720068 
L 208.57424 128.866971 
L 208.604257 128.79352 
L 208.634273 128.830245 
L 208.71832 128.720068 
L 208.733328 128.830245 
L 208.826379 128.940423 
L 208.739331 128.79352 
L 208.850393 128.903697 
L 208.862399 128.866971 
L 208.880409 129.013874 
L 208.958452 128.940423 
L 209.033494 128.830245 
L 209.141554 128.756794 
L 209.069514 128.866971 
L 209.144555 128.830245 
L 209.780907 128.940423 
L 209.891968 129.013874 
L 209.813925 128.903697 
L 209.89497 128.977148 
L 210.012034 128.903697 
L 210.015036 128.79352 
L 210.090078 129.013874 
L 210.117092 128.977148 
L 210.135102 129.0506 
L 210.186131 128.866971 
L 210.225152 128.940423 
L 210.450277 128.903697 
L 210.56434 128.756794 
L 210.888519 128.866971 
L 210.90953 128.903697 
L 210.918535 128.79352 
L 210.993577 128.79352 
L 211.050608 128.756794 
L 211.092631 128.903697 
L 211.098635 128.866971 
L 211.656943 128.977148 
L 211.768004 129.124051 
L 211.66895 128.903697 
L 211.777009 129.087326 
L 211.924091 129.160777 
L 211.945102 129.270955 
L 212.005135 129.124051 
L 212.03215 129.124051 
L 212.035152 129.087326 
L 212.110194 129.234229 
L 212.137208 129.197503 
L 212.401354 129.124051 
L 212.428369 129.0506 
L 212.422366 129.197503 
L 212.512416 129.124051 
L 212.551437 129.013874 
L 212.605467 129.197503 
L 212.623477 129.124051 
L 212.797573 129.197503 
L 212.800575 129.30768 
L 212.833593 129.087326 
L 212.908635 129.197503 
L 212.929646 129.30768 
L 212.953659 129.160777 
L 213.019696 129.234229 
L 213.118751 129.197503 
L 213.127756 129.270955 
L 213.22681 129.197503 
L 213.229812 129.124051 
L 213.277839 129.234229 
L 213.337872 129.197503 
L 213.349878 129.30768 
L 213.391902 129.087326 
L 213.448933 129.197503 
L 213.487955 129.160777 
L 213.529978 129.344406 
L 213.556993 129.234229 
L 213.632034 129.344406 
L 213.635036 129.381132 
L 213.665052 129.234229 
L 213.731089 129.234229 
L 213.839149 129.124051 
L 213.749099 129.270955 
L 213.845152 129.197503 
L 213.959215 129.270955 
L 214.073278 129.417858 
L 214.088286 129.454583 
L 214.187341 129.344406 
L 214.211354 129.30768 
L 214.301404 129.454583 
L 214.313411 129.417858 
L 214.337424 129.564761 
L 214.409464 129.491309 
L 214.625583 129.528035 
L 214.721636 129.674938 
L 214.736644 129.601487 
L 215.727192 129.711664 
L 215.805235 129.74839 
L 215.769215 129.601487 
L 215.83225 129.711664 
L 215.871271 129.638212 
L 215.931304 129.821841 
L 215.940309 129.711664 
L 215.979331 129.785115 
L 216.021354 129.638212 
L 216.048369 129.74839 
L 216.069381 129.601487 
L 216.162432 129.674938 
L 216.360541 129.711664 
L 216.363543 129.821841 
L 216.432581 129.564761 
L 216.468601 129.638212 
L 216.489613 129.528035 
L 216.576661 129.674938 
L 216.585666 129.564761 
L 216.747755 129.674938 
L 216.795782 129.785115 
L 216.753759 129.638212 
L 216.861818 129.711664 
L 217.131968 129.601487 
L 217.134969 129.528035 
L 217.228021 129.711664 
L 217.240027 129.674938 
L 217.342084 129.601487 
L 217.258037 129.711664 
L 217.348087 129.638212 
L 217.3721 129.74839 
L 217.453145 129.564761 
L 217.459148 129.638212 
L 217.519182 129.601487 
L 217.543195 129.711664 
L 217.564206 129.638212 
L 217.669264 129.74839 
L 217.62424 129.601487 
L 217.675268 129.638212 
L 217.792332 129.821841 
L 217.795334 129.785115 
L 217.855367 129.674938 
L 217.801337 129.821841 
L 217.909397 129.74839 
L 218.053477 129.821841 
L 218.07749 129.74839 
L 218.164538 129.895293 
L 218.170541 129.785115 
L 218.233576 129.968744 
L 218.275599 129.858567 
L 218.323626 129.895293 
L 218.374654 129.74839 
L 218.377656 129.74839 
L 218.572764 129.674938 
L 218.596777 129.601487 
L 218.65681 129.74839 
L 218.680823 129.711664 
L 218.78288 129.601487 
L 218.785881 129.564761 
L 218.881934 129.74839 
L 219.16409 129.674938 
L 219.230127 129.74839 
L 219.275152 129.601487 
L 219.287158 129.674938 
L 219.32618 129.491309 
L 219.386213 129.601487 
L 219.443244 129.491309 
L 219.485268 129.638212 
L 219.497274 129.601487 
L 219.596329 129.528035 
L 219.572316 129.638212 
L 219.611337 129.564761 
L 219.722399 129.711664 
L 219.7254 129.638212 
L 220.175649 129.528035 
L 220.205666 129.601487 
L 220.295715 129.381132 
L 220.373758 129.491309 
L 220.409778 129.454583 
L 220.514836 129.491309 
L 220.424787 129.381132 
L 220.52084 129.454583 
L 220.622896 129.528035 
L 220.703941 129.638212 
L 220.637904 129.491309 
L 220.736959 129.601487 
L 220.799994 129.528035 
L 220.748966 129.638212 
L 220.845019 129.638212 
L 220.860027 129.601487 
L 220.965085 129.74839 
L 221.145185 129.638212 
L 221.148186 129.601487 
L 221.214223 129.74839 
L 221.250243 129.711664 
L 221.346296 129.674938 
L 221.460359 129.528035 
L 221.574422 129.674938 
L 221.577423 129.638212 
L 221.595433 129.564761 
L 221.637457 129.711664 
L 221.688485 129.638212 
L 221.7155 129.564761 
L 221.799546 129.674938 
L 221.832564 129.528035 
L 221.829563 129.74839 
L 221.910607 129.638212 
L 221.925616 129.528035 
L 222.021669 129.711664 
L 222.111719 129.564761 
L 222.135732 129.638212 
L 222.18676 129.528035 
L 222.249795 129.564761 
L 222.27681 129.674938 
L 222.345848 129.454583 
L 222.357855 129.528035 
L 222.468916 129.381132 
L 222.477921 129.417858 
L 222.82011 129.491309 
L 222.832117 129.454583 
L 222.934173 129.564761 
L 222.961188 129.638212 
L 222.994206 129.454583 
L 223.042233 129.528035 
L 223.147291 129.454583 
L 223.096262 129.601487 
L 223.156296 129.491309 
L 223.519496 129.601487 
L 223.528501 129.564761 
L 223.642564 129.74839 
L 223.753626 129.601487 
L 223.762631 129.638212 
L 223.819662 129.74839 
L 223.822664 129.785115 
L 223.861685 129.601487 
L 223.92472 129.674938 
L 224.044786 129.601487 
L 224.137838 129.491309 
L 224.056793 129.638212 
L 224.158849 129.528035 
L 224.621105 129.417858 
L 224.714156 129.381132 
L 224.657125 129.528035 
L 224.729164 129.454583 
L 224.903261 129.381132 
L 224.906262 129.30768 
L 225.008319 129.454583 
L 225.01132 129.454583 
L 225.437556 129.344406 
L 225.458567 129.30768 
L 225.524604 129.454583 
L 225.542614 129.344406 
L 225.551619 129.417858 
L 225.575632 129.30768 
L 225.653675 129.344406 
L 225.848783 129.234229 
L 225.851785 129.160777 
L 225.863791 129.381132 
L 225.959844 129.234229 
L 226.064902 129.270955 
L 225.977854 129.197503 
L 226.070906 129.234229 
L 226.248004 129.197503 
L 226.344057 129.013874 
L 226.359065 129.087326 
L 226.365068 129.124051 
L 226.374073 128.977148 
L 226.467125 129.087326 
L 226.494139 128.977148 
L 226.560176 129.160777 
L 226.572183 129.124051 
L 226.695251 129.270955 
L 226.890358 129.381132 
L 226.953393 129.454583 
L 226.94739 129.344406 
L 227.004421 129.417858 
L 227.208534 129.30768 
L 227.298584 129.124051 
L 227.244554 129.344406 
L 227.325599 129.234229 
L 228.226096 129.124051 
L 228.313144 128.977148 
L 228.253111 129.197503 
L 228.337158 129.087326 
L 228.385184 129.0506 
L 228.454222 129.197503 
L 228.469231 129.087326 
L 228.547274 129.30768 
L 228.55928 129.270955 
L 228.571287 129.197503 
L 228.673343 129.30768 
L 228.72137 129.197503 
L 228.724372 129.160777 
L 228.79341 129.30768 
L 228.823426 129.270955 
L 228.925483 129.417858 
L 228.82943 129.234229 
L 228.940491 129.344406 
L 228.949496 129.270955 
L 228.952498 129.417858 
L 229.048551 129.344406 
L 229.153609 129.417858 
L 229.072564 129.30768 
L 229.159612 129.344406 
L 229.297688 129.270955 
L 229.366726 129.381132 
L 229.40875 129.197503 
L 229.42676 129.30768 
L 229.480789 129.160777 
L 229.519811 129.197503 
L 229.603857 129.270955 
L 229.606859 129.344406 
L 229.672895 129.197503 
L 229.714919 129.270955 
L 229.80797 129.491309 
L 229.834985 129.417858 
L 229.89802 129.491309 
L 229.949048 129.344406 
L 229.98807 129.454583 
L 230.063111 129.417858 
L 230.183177 129.344406 
L 230.192182 129.381132 
L 230.29724 129.234229 
L 230.396295 129.124051 
L 230.411303 129.160777 
L 230.519363 128.977148 
L 230.540375 129.013874 
L 230.570391 128.866971 
L 230.621419 128.866971 
L 230.699463 128.756794 
L 230.684454 128.903697 
L 230.735482 128.79352 
L 230.759496 128.866971 
L 230.831536 128.646616 
L 230.843542 128.756794 
L 230.993625 128.720068 
L 231.09268 128.609891 
L 231.104686 128.646616 
L 231.389844 128.573165 
L 231.50991 128.35281 
L 231.518915 128.426262 
L 231.560938 128.279359 
L 231.623973 128.389536 
L 231.717025 128.279359 
L 231.72603 128.205907 
L 231.819081 128.35281 
L 231.825084 128.316085 
L 231.828086 128.35281 
L 231.861104 128.205907 
L 231.927141 128.242633 
L 232.0352 128.205907 
L 231.936146 128.316085 
L 232.038202 128.242633 
L 232.296345 128.132456 
L 232.386394 128.059004 
L 232.332365 128.205907 
L 232.401403 128.169181 
L 232.404404 128.205907 
L 232.461436 128.022278 
L 232.503459 128.09573 
L 232.590507 127.912101 
L 232.515466 128.132456 
L 232.623525 127.948827 
L 232.647539 127.912101 
L 232.743592 128.09573 
L 232.773608 128.022278 
L 232.836643 128.205907 
L 232.851651 128.132456 
L 232.971718 128.316085 
L 232.983724 128.169181 
L 233.079778 128.316085 
L 233.142812 128.279359 
L 233.193841 128.389536 
L 233.3019 128.316085 
L 233.223857 128.426262 
L 233.304902 128.35281 
L 233.33792 128.462988 
L 233.35593 128.499713 
L 233.412962 128.316085 
L 233.439977 128.35281 
L 233.491005 128.242633 
L 233.494006 128.205907 
L 233.575051 128.389536 
L 233.590059 128.389536 
L 233.803177 128.462988 
L 233.911237 128.609891 
L 233.91724 128.573165 
L 234.160374 128.683342 
L 234.166378 128.646616 
L 234.280441 128.79352 
L 234.62263 128.683342 
L 234.646643 128.646616 
L 234.679661 128.756794 
L 234.727688 128.720068 
L 234.838749 128.866971 
L 234.856759 128.756794 
L 234.931801 128.940423 
L 234.946809 128.903697 
L 235.042862 128.79352 
L 235.09389 128.720068 
L 235.060872 128.866971 
L 235.153923 128.79352 
L 235.195947 128.866971 
L 235.246975 128.720068 
L 235.261983 128.79352 
L 235.27399 128.683342 
L 235.276991 128.830245 
L 235.373044 128.756794 
L 235.469097 128.903697 
L 235.487107 128.866971 
L 235.56515 128.720068 
L 235.502116 128.903697 
L 235.60117 128.79352 
L 235.712232 128.977148 
L 235.721237 128.940423 
L 235.74525 128.830245 
L 235.8353 128.903697 
L 235.928351 128.977148 
L 235.850308 128.866971 
L 235.946361 128.903697 
L 236.030408 128.830245 
L 235.952364 128.940423 
L 236.057422 128.903697 
L 236.120457 129.013874 
L 236.063426 128.866971 
L 236.168484 128.903697 
L 236.462646 128.79352 
L 236.546693 128.683342 
L 236.48666 128.866971 
L 236.570706 128.79352 
L 236.678766 128.903697 
L 236.591718 128.720068 
L 236.687771 128.866971 
L 236.906892 128.756794 
L 237.008948 128.646616 
L 236.933907 128.830245 
L 237.023956 128.683342 
L 237.04797 128.720068 
L 237.071983 128.573165 
L 237.132016 128.646616 
L 237.225067 128.426262 
L 237.258086 128.462988 
L 237.381154 128.35281 
L 237.486212 128.205907 
L 237.390159 128.462988 
L 237.498218 128.279359 
L 237.738351 128.169181 
L 237.774371 128.279359 
L 237.858417 128.059004 
L 238.02651 127.948827 
L 238.032514 127.985553 
L 238.146577 127.83865 
L 238.257638 127.948827 
L 238.263641 127.912101 
L 238.356693 127.985553 
L 238.359694 128.059004 
L 238.389711 127.875375 
L 238.467754 128.022278 
L 238.680872 128.132456 
L 238.689877 128.059004 
L 238.797936 128.205907 
L 238.911999 128.279359 
L 238.936013 128.35281 
L 238.924006 128.242633 
L 239.020059 128.279359 
L 239.041071 128.242633 
L 239.032066 128.35281 
L 239.122115 128.279359 
L 239.134122 128.426262 
L 239.230175 128.169181 
L 239.350241 128.35281 
L 239.446295 128.242633 
L 239.464304 128.279359 
L 239.635399 128.389536 
L 239.737455 128.462988 
L 239.659412 128.35281 
L 239.74646 128.426262 
L 239.767472 128.499713 
L 239.863525 128.316085 
L 239.929561 128.389536 
L 239.902547 128.242633 
L 239.968583 128.242633 
L 240.553906 128.316085 
L 240.661966 128.499713 
L 240.667969 128.462988 
L 240.673973 128.426262 
L 240.718998 128.536439 
L 240.776029 128.499713 
L 241.037173 128.573165 
L 241.040175 128.646616 
L 241.043177 128.462988 
L 241.145233 128.499713 
L 241.208268 128.536439 
L 241.247289 128.426262 
L 241.250291 128.426262 
L 241.277306 128.499713 
L 241.280308 128.573165 
L 241.319329 128.389536 
L 241.388367 128.499713 
L 241.613492 128.536439 
L 241.703541 128.720068 
L 241.6285 128.499713 
L 241.724553 128.573165 
L 241.808599 128.756794 
L 241.847621 128.720068 
L 241.997704 128.79352 
L 242.015714 128.756794 
L 242.108765 128.903697 
L 242.22583 128.720068 
L 242.228832 128.756794 
L 242.26185 128.609891 
L 242.327886 128.683342 
L 242.411933 128.573165 
L 242.384918 128.756794 
L 242.438948 128.609891 
L 242.577024 128.609891 
L 242.64306 128.389536 
L 242.691087 128.426262 
L 242.793143 128.499713 
L 242.766128 128.389536 
L 242.802148 128.462988 
L 242.898201 128.389536 
L 242.808152 128.499713 
L 242.91321 128.462988 
L 243.249395 128.35281 
L 243.252397 128.316085 
L 243.327439 128.499713 
L 243.34845 128.499713 
L 243.408483 128.389536 
L 243.45651 128.536439 
L 243.573574 128.279359 
L 243.576576 128.316085 
L 243.594586 128.389536 
L 243.678633 128.205907 
L 243.684636 128.316085 
L 243.756676 128.205907 
L 243.729661 128.389536 
L 243.795697 128.279359 
L 243.798699 128.316085 
L 243.852729 128.132456 
L 243.897754 128.205907 
L 243.969793 128.059004 
L 244.014818 128.132456 
L 244.450059 128.09573 
L 244.519097 127.912101 
L 244.564122 127.948827 
L 244.774238 127.83865 
L 244.861286 127.728472 
L 244.789246 127.875375 
L 244.885299 127.801924 
L 244.903309 127.912101 
L 244.963342 127.765198 
L 244.999362 127.83865 
L 245.89986 127.728472 
L 245.974901 127.83865 
L 246.013923 127.691746 
L 246.115979 127.765198 
L 246.031933 127.655021 
L 246.124984 127.728472 
L 246.80636 127.801924 
L 246.911418 127.875375 
L 246.830374 127.728472 
L 246.917422 127.83865 
L 247.07651 127.948827 
L 247.079511 127.985553 
L 247.091518 127.83865 
L 247.181568 127.912101 
L 247.292629 127.801924 
L 247.295631 127.83865 
L 247.379677 127.875375 
L 247.400689 127.765198 
L 247.40369 127.801924 
L 247.925979 127.912101 
L 248.007024 127.948827 
L 247.958997 127.801924 
L 248.028035 127.875375 
L 248.130092 127.728472 
L 248.142098 127.765198 
L 248.601352 127.875375 
L 248.628367 127.801924 
L 248.712413 127.912101 
L 248.733425 127.83865 
L 248.787455 128.022278 
L 248.811468 128.022278 
L 248.907521 128.09573 
L 248.838483 127.912101 
L 248.925531 128.059004 
L 249.048599 128.132456 
L 249.111634 128.205907 
L 249.153657 128.022278 
L 249.156659 128.059004 
L 249.171667 127.985553 
L 249.273723 128.169181 
L 249.315747 128.059004 
L 249.366775 128.316085 
L 249.378781 128.279359 
L 249.489843 128.35281 
L 249.495846 128.279359 
L 249.606907 128.536439 
L 249.627919 128.462988 
L 249.70296 128.683342 
L 249.714967 128.609891 
L 249.835033 128.756794 
L 249.895067 128.646616 
L 249.931087 128.79352 
L 249.943093 128.720068 
L 249.958101 128.683342 
L 250.060158 128.866971 
L 250.333309 128.977148 
L 250.366327 129.124051 
L 250.447372 129.013874 
L 250.450373 128.977148 
L 250.531418 129.124051 
L 250.549428 129.0506 
L 250.585448 129.124051 
L 250.597455 129.013874 
L 250.660489 129.0506 
L 251.053707 128.940423 
L 251.128748 128.866971 
L 251.068715 129.013874 
L 251.16777 128.903697 
L 251.314851 128.830245 
L 251.410904 128.720068 
L 251.359876 128.903697 
L 251.425912 128.79352 
L 251.437919 128.830245 
L 251.515962 128.573165 
L 251.527969 128.683342 
L 251.780108 128.79352 
L 251.867156 128.940423 
L 251.786111 128.756794 
L 251.894171 128.866971 
L 251.993226 128.79352 
L 251.933193 129.013874 
L 252.008234 128.830245 
L 252.332413 128.720068 
L 252.419461 128.646616 
L 252.374436 128.830245 
L 252.440473 128.756794 
L 252.545531 128.79352 
L 252.470489 128.683342 
L 252.551534 128.756794 
L 252.608566 128.683342 
L 252.611567 128.609891 
L 252.626576 128.79352 
L 252.719627 128.683342 
L 252.803673 128.609891 
L 252.806675 128.536439 
L 252.818682 128.683342 
L 252.914735 128.609891 
L 253.082828 128.536439 
L 253.196891 128.35281 
L 253.199892 128.389536 
L 253.41301 128.316085 
L 253.494055 128.205907 
L 253.422015 128.35281 
L 253.524071 128.242633 
L 253.545083 128.316085 
L 253.593109 128.169181 
L 253.632131 128.242633 
L 253.665149 128.132456 
L 253.725182 128.279359 
L 253.743192 128.205907 
L 253.824237 128.242633 
L 253.845249 128.09573 
L 253.84825 128.132456 
L 253.935299 127.985553 
L 253.968317 128.022278 
L 254.322512 127.948827 
L 254.325514 127.875375 
L 254.358532 128.022278 
L 254.430572 127.948827 
L 254.4816 128.09573 
L 254.544635 128.022278 
L 254.640688 127.948827 
L 254.652695 128.022278 
L 254.71573 128.09573 
L 254.721733 128.059004 
" clip-path="url(#p551584836d)" style="fill: none; stroke: #000000; stroke-opacity: 0.5; stroke-width: 1.5; stroke-linecap: square"/>
   </g>
   <g id="patch_3">
    <path d="M 41.667188 173.52 
L 41.667188 7.2 
" style="fill: none; stroke: #000000; stroke-width: 0.8; stroke-linejoin: miter; stroke-linecap: square"/>
   </g>
   <g id="patch_4">
    <path d="M 41.667188 173.52 
L 264.867188 173.52 
" style="fill: none; stroke: #000000; stroke-width: 0.8; stroke-linejoin: miter; stroke-linecap: square"/>
   </g>
  </g>
 </g>
 <defs>
  <clipPath id="p551584836d">
   <rect x="41.667188" y="7.2" width="223.2" height="166.32"/>
  </clipPath>
 </defs>
</svg>
