<?xml version="1.0" encoding="utf-8" standalone="no"?>
<!DOCTYPE svg PUBLIC "-//W3C//DTD SVG 1.1//EN"
  "http://www.w3.org/Graphics/SVG/1.1/DTD/svg11.dtd">
<svg xmlns:xlink="http://www.w3.org/1999/xlink" width="265.704687pt" height="197.398125pt" viewBox="0 0 265.704687 197.398125" xmlns="http://www.w3.org/2000/svg" version="1.1">
 <metadata>
  <rdf:RDF xmlns:dc="http://purl.org/dc/elements/1.1/" xmlns:cc="http://creativecommons.org/ns#" xmlns:rdf="http://www.w3.org/1999/02/22-rdf-syntax-ns#">
   <cc:Work>
    <dc:type rdf:resource="http://purl.org/dc/dcmitype/StillImage"/>
    <dc:date>2025-12-19T12:08:00.738154</dc:date>
    <dc:format>image/svg+xml</dc:format>
    <dc:creator>
     <cc:Agent>
      <dc:title>Matplotlib v3.10.7, https://matplotlib.org/</dc:title>
     </cc:Agent>
    </dc:creator>
   </cc:Work>
  </rdf:RDF>
 </metadata>
 <defs>
  <style type="text/css">*{stroke-linejoin: round; stroke-linecap: butt}</style>
 </defs>
 <g id="figure_1">
  <g id="patch_1">
   <path d="M 0 197.398125 
L 265.704687 197.398125 
L 265.704687 0 
L 0 0 
z
" style="fill: #ffffff"/>
  </g>
  <g id="axes_1">
   <g id="patch_2">
    <path d="M 35.304688 173.52 
L 258.504687 173.52 
L 258.504687 7.2 
L 35.304688 7.2 
z
" style="fill: #ffffff"/>
   </g>
   <g id="matplotlib.axis_1">
    <g id="xtick_1">
     <g id="line2d_1">
      <defs>
       <path id="m088467b337" d="M 0 0 
L 0 3.5 
" style="stroke: #000000; stroke-width: 0.8"/>
      </defs>
      <g>
       <use xlink:href="#m088467b337" x="81.47004" y="173.52" style="stroke: #000000; stroke-width: 0.8"/>
      </g>
     </g>
     <g id="text_1">
      <!-- 1 -->
      <g transform="translate(78.28879 188.118438) scale(0.1 -0.1)">
       <defs>
        <path id="DejaVuSans-31" d="M 794 531 
L 1825 531 
L 1825 4091 
L 703 3866 
L 703 4441 
L 1819 4666 
L 2450 4666 
L 2450 531 
L 3481 531 
L 3481 0 
L 794 0 
L 794 531 
z
" transform="scale(0.015625)"/>
       </defs>
       <use xlink:href="#DejaVuSans-31"/>
      </g>
     </g>
    </g>
    <g id="xtick_2">
     <g id="line2d_2">
      <g>
       <use xlink:href="#m088467b337" x="141.503204" y="173.52" style="stroke: #000000; stroke-width: 0.8"/>
      </g>
     </g>
     <g id="text_2">
      <!-- 2 -->
      <g transform="translate(138.321954 188.118438) scale(0.1 -0.1)">
       <defs>
        <path id="DejaVuSans-32" d="M 1228 531 
L 3431 531 
L 3431 0 
L 469 0 
L 469 531 
Q 828 903 1448 1529 
Q 2069 2156 2228 2338 
Q 2531 2678 2651 2914 
Q 2772 3150 2772 3378 
Q 2772 3750 2511 3984 
Q 2250 4219 1831 4219 
Q 1534 4219 1204 4116 
Q 875 4013 500 3803 
L 500 4441 
Q 881 4594 1212 4672 
Q 1544 4750 1819 4750 
Q 2544 4750 2975 4387 
Q 3406 4025 3406 3419 
Q 3406 3131 3298 2873 
Q 3191 2616 2906 2266 
Q 2828 2175 2409 1742 
Q 1991 1309 1228 531 
z
" transform="scale(0.015625)"/>
       </defs>
       <use xlink:href="#DejaVuSans-32"/>
      </g>
     </g>
    </g>
    <g id="xtick_3">
     <g id="line2d_3">
      <g>
       <use xlink:href="#m088467b337" x="201.536367" y="173.52" style="stroke: #000000; stroke-width: 0.8"/>
      </g>
     </g>
     <g id="text_3">
      <!-- 3 -->
      <g transform="translate(198.355117 188.118438) scale(0.1 -0.1)">
       <defs>
        <path id="DejaVuSans-33" d="M 2597 2516 
Q 3050 2419 3304 2112 
Q 3559 1806 3559 1356 
Q 3559 666 3084 287 
Q 2609 -91 1734 -91 
Q 1441 -91 1130 -33 
Q 819 25 488 141 
L 488 750 
Q 750 597 1062 519 
Q 1375 441 1716 441 
Q 2309 441 2620 675 
Q 2931 909 2931 1356 
Q 2931 1769 2642 2001 
Q 2353 2234 1838 2234 
L 1294 2234 
L 1294 2753 
L 1863 2753 
Q 2328 2753 2575 2939 
Q 2822 3125 2822 3475 
Q 2822 3834 2567 4026 
Q 2313 4219 1838 4219 
Q 1578 4219 1281 4162 
Q 984 4106 628 3988 
L 628 4550 
Q 988 4650 1302 4700 
Q 1616 4750 1894 4750 
Q 2613 4750 3031 4423 
Q 3450 4097 3450 3541 
Q 3450 3153 3228 2886 
Q 3006 2619 2597 2516 
z
" transform="scale(0.015625)"/>
       </defs>
       <use xlink:href="#DejaVuSans-33"/>
      </g>
     </g>
    </g>
   </g>
   <g id="matplotlib.axis_2">
    <g id="ytick_1">
     <g id="line2d_4">
      <defs>
       <path id="mdf06f35bb0" d="M 0 0 
L -3.5 0 
" style="stroke: #000000; stroke-width: 0.8"/>
      </defs>
      <g>
       <use xlink:href="#mdf06f35bb0" x="35.304688" y="152.94264" style="stroke: #000000; stroke-width: 0.8"/>
      </g>
     </g>
     <g id="text_4">
      <!-- −80 -->
      <g transform="translate(7.2 156.741859) scale(0.1 -0.1)">
       <defs>
        <path id="DejaVuSans-2212" d="M 678 2272 
L 4684 2272 
L 4684 1741 
L 678 1741 
L 678 2272 
z
" transform="scale(0.015625)"/>
        <path id="DejaVuSans-38" d="M 2034 2216 
Q 1584 2216 1326 1975 
Q 1069 1734 1069 1313 
Q 1069 891 1326 650 
Q 1584 409 2034 409 
Q 2484 409 2743 651 
Q 3003 894 3003 1313 
Q 3003 1734 2745 1975 
Q 2488 2216 2034 2216 
z
M 1403 2484 
Q 997 2584 770 2862 
Q 544 3141 544 3541 
Q 544 4100 942 4425 
Q 1341 4750 2034 4750 
Q 2731 4750 3128 4425 
Q 3525 4100 3525 3541 
Q 3525 3141 3298 2862 
Q 3072 2584 2669 2484 
Q 3125 2378 3379 2068 
Q 3634 1759 3634 1313 
Q 3634 634 3220 271 
Q 2806 -91 2034 -91 
Q 1263 -91 848 271 
Q 434 634 434 1313 
Q 434 1759 690 2068 
Q 947 2378 1403 2484 
z
M 1172 3481 
Q 1172 3119 1398 2916 
Q 1625 2713 2034 2713 
Q 2441 2713 2670 2916 
Q 2900 3119 2900 3481 
Q 2900 3844 2670 4047 
Q 2441 4250 2034 4250 
Q 1625 4250 1398 4047 
Q 1172 3844 1172 3481 
z
" transform="scale(0.015625)"/>
        <path id="DejaVuSans-30" d="M 2034 4250 
Q 1547 4250 1301 3770 
Q 1056 3291 1056 2328 
Q 1056 1369 1301 889 
Q 1547 409 2034 409 
Q 2525 409 2770 889 
Q 3016 1369 3016 2328 
Q 3016 3291 2770 3770 
Q 2525 4250 2034 4250 
z
M 2034 4750 
Q 2819 4750 3233 4129 
Q 3647 3509 3647 2328 
Q 3647 1150 3233 529 
Q 2819 -91 2034 -91 
Q 1250 -91 836 529 
Q 422 1150 422 2328 
Q 422 3509 836 4129 
Q 1250 4750 2034 4750 
z
" transform="scale(0.015625)"/>
       </defs>
       <use xlink:href="#DejaVuSans-2212"/>
       <use xlink:href="#DejaVuSans-38" transform="translate(83.789062 0)"/>
       <use xlink:href="#DejaVuSans-30" transform="translate(147.412109 0)"/>
      </g>
     </g>
    </g>
    <g id="ytick_2">
     <g id="line2d_5">
      <g>
       <use xlink:href="#mdf06f35bb0" x="35.304688" y="128.397079" style="stroke: #000000; stroke-width: 0.8"/>
      </g>
     </g>
     <g id="text_5">
      <!-- −60 -->
      <g transform="translate(7.2 132.196298) scale(0.1 -0.1)">
       <defs>
        <path id="DejaVuSans-36" d="M 2113 2584 
Q 1688 2584 1439 2293 
Q 1191 2003 1191 1497 
Q 1191 994 1439 701 
Q 1688 409 2113 409 
Q 2538 409 2786 701 
Q 3034 994 3034 1497 
Q 3034 2003 2786 2293 
Q 2538 2584 2113 2584 
z
M 3366 4563 
L 3366 3988 
Q 3128 4100 2886 4159 
Q 2644 4219 2406 4219 
Q 1781 4219 1451 3797 
Q 1122 3375 1075 2522 
Q 1259 2794 1537 2939 
Q 1816 3084 2150 3084 
Q 2853 3084 3261 2657 
Q 3669 2231 3669 1497 
Q 3669 778 3244 343 
Q 2819 -91 2113 -91 
Q 1303 -91 875 529 
Q 447 1150 447 2328 
Q 447 3434 972 4092 
Q 1497 4750 2381 4750 
Q 2619 4750 2861 4703 
Q 3103 4656 3366 4563 
z
" transform="scale(0.015625)"/>
       </defs>
       <use xlink:href="#DejaVuSans-2212"/>
       <use xlink:href="#DejaVuSans-36" transform="translate(83.789062 0)"/>
       <use xlink:href="#DejaVuSans-30" transform="translate(147.412109 0)"/>
      </g>
     </g>
    </g>
    <g id="ytick_3">
     <g id="line2d_6">
      <g>
       <use xlink:href="#mdf06f35bb0" x="35.304688" y="103.851518" style="stroke: #000000; stroke-width: 0.8"/>
      </g>
     </g>
     <g id="text_6">
      <!-- −40 -->
      <g transform="translate(7.2 107.650737) scale(0.1 -0.1)">
       <defs>
        <path id="DejaVuSans-34" d="M 2419 4116 
L 825 1625 
L 2419 1625 
L 2419 4116 
z
M 2253 4666 
L 3047 4666 
L 3047 1625 
L 3713 1625 
L 3713 1100 
L 3047 1100 
L 3047 0 
L 2419 0 
L 2419 1100 
L 313 1100 
L 313 1709 
L 2253 4666 
z
" transform="scale(0.015625)"/>
       </defs>
       <use xlink:href="#DejaVuSans-2212"/>
       <use xlink:href="#DejaVuSans-34" transform="translate(83.789062 0)"/>
       <use xlink:href="#DejaVuSans-30" transform="translate(147.412109 0)"/>
      </g>
     </g>
    </g>
    <g id="ytick_4">
     <g id="line2d_7">
      <g>
       <use xlink:href="#mdf06f35bb0" x="35.304688" y="79.305957" style="stroke: #000000; stroke-width: 0.8"/>
      </g>
     </g>
     <g id="text_7">
      <!-- −20 -->
      <g transform="translate(7.2 83.105176) scale(0.1 -0.1)">
       <use xlink:href="#DejaVuSans-2212"/>
       <use xlink:href="#DejaVuSans-32" transform="translate(83.789062 0)"/>
       <use xlink:href="#DejaVuSans-30" transform="translate(147.412109 0)"/>
      </g>
     </g>
    </g>
    <g id="ytick_5">
     <g id="line2d_8">
      <g>
       <use xlink:href="#mdf06f35bb0" x="35.304688" y="54.760396" style="stroke: #000000; stroke-width: 0.8"/>
      </g>
     </g>
     <g id="text_8">
      <!-- 0 -->
      <g transform="translate(21.942187 58.559615) scale(0.1 -0.1)">
       <use xlink:href="#DejaVuSans-30"/>
      </g>
     </g>
    </g>
    <g id="ytick_6">
     <g id="line2d_9">
      <g>
       <use xlink:href="#mdf06f35bb0" x="35.304688" y="30.214835" style="stroke: #000000; stroke-width: 0.8"/>
      </g>
     </g>
     <g id="text_9">
      <!-- 20 -->
      <g transform="translate(15.579687 34.014054) scale(0.1 -0.1)">
       <use xlink:href="#DejaVuSans-32"/>
       <use xlink:href="#DejaVuSans-30" transform="translate(63.623047 0)"/>
      </g>
     </g>
    </g>
   </g>
   <g id="line2d_10">
    <path d="M 45.450142 134.836096 
L 45.525183 134.911003 
L 45.456145 134.798643 
L 45.558202 134.798643 
L 45.819346 134.723735 
L 45.900391 134.686282 
L 45.834354 134.798643 
L 45.924404 134.798643 
L 46.251585 134.836096 
L 46.356643 134.911003 
L 46.311618 134.761189 
L 46.362646 134.87355 
L 46.398666 134.798643 
L 46.479711 134.686282 
L 46.416676 134.87355 
L 46.509727 134.723735 
L 46.617787 134.836096 
L 46.530739 134.686282 
L 46.620789 134.761189 
L 46.674819 134.911003 
L 46.737853 134.836096 
L 46.854918 134.836096 
L 46.85792 134.723735 
L 46.950971 134.911003 
L 46.962978 134.911003 
L 46.977986 134.87355 
L 47.032016 134.761189 
L 47.059031 134.948457 
L 47.089047 134.87355 
L 47.122066 134.948457 
L 47.113061 134.798643 
L 47.200109 134.87355 
L 47.266145 134.723735 
L 47.209114 134.911003 
L 47.31117 134.87355 
L 47.317173 134.911003 
L 47.389213 134.761189 
L 47.41923 134.836096 
L 47.452248 134.686282 
L 47.518285 134.87355 
L 47.530291 134.798643 
L 47.878484 134.836096 
L 47.986543 134.911003 
L 47.899495 134.798643 
L 47.989545 134.836096 
L 48.046576 134.87355 
L 48.163641 135.023364 
L 48.211668 134.948457 
L 48.247687 134.911003 
L 48.256692 135.023364 
L 48.319727 134.948457 
L 48.352745 135.023364 
L 48.409777 134.87355 
L 48.427787 134.948457 
L 48.472812 134.87355 
L 48.520838 135.023364 
L 48.532845 134.948457 
L 48.535847 135.023364 
L 48.574868 134.836096 
L 48.640905 134.87355 
L 48.866029 134.798643 
L 48.920059 134.761189 
L 48.917057 134.911003 
L 48.971087 134.836096 
L 49.06714 134.911003 
L 48.989097 134.761189 
L 49.082148 134.87355 
L 49.190208 134.798643 
L 49.26525 134.686282 
L 49.205216 134.87355 
L 49.304271 134.761189 
L 49.409329 134.723735 
L 49.523392 134.573921 
L 49.727505 134.499014 
L 49.820556 134.424107 
L 49.733508 134.536468 
L 49.835565 134.499014 
L 49.937621 134.573921 
L 49.856576 134.461561 
L 49.943624 134.536468 
L 50.006659 134.424107 
L 50.048682 134.573921 
L 50.051684 134.536468 
L 50.126725 134.499014 
L 50.162745 134.611375 
L 50.198765 134.499014 
L 50.273807 134.611375 
L 50.342845 134.573921 
L 50.354852 134.611375 
L 50.456908 134.461561 
L 50.498931 134.499014 
L 50.501933 134.573921 
L 50.525946 134.424107 
L 50.609992 134.499014 
L 50.643011 134.461561 
L 50.721054 134.386653 
L 50.676029 134.499014 
L 50.754072 134.461561 
L 50.781087 134.386653 
L 50.832115 134.536468 
L 50.85913 134.499014 
L 50.964188 134.611375 
L 50.865133 134.424107 
L 50.973193 134.536468 
L 51.183309 134.461561 
L 51.261352 134.424107 
L 51.219329 134.536468 
L 51.291369 134.499014 
L 51.309379 134.461561 
L 51.408434 134.611375 
L 51.453458 134.461561 
L 51.471468 136.371692 
L 51.705598 142.551528 
L 51.711601 142.588982 
L 51.933724 145.360545 
L 51.948732 145.435452 
L 52.119827 146.971048 
L 52.122828 146.933594 
L 52.185863 147.532851 
L 52.203873 147.607758 
L 52.356958 148.693911 
L 52.359959 148.656458 
L 52.425996 149.143354 
L 52.428997 149.143354 
L 52.618102 150.192054 
L 52.621103 150.117146 
L 52.696145 150.641496 
L 52.711153 150.641496 
L 52.726161 150.67895 
L 52.867239 151.428021 
L 52.897256 151.502928 
L 53.014321 152.064731 
L 53.029329 152.027278 
L 53.035332 152.102185 
L 53.041336 152.064731 
L 53.185415 152.589081 
L 53.21243 152.663988 
L 53.365515 153.225791 
L 53.37452 153.150884 
L 53.467571 153.450513 
L 53.470573 153.413059 
L 53.551617 153.712688 
L 53.554619 153.637781 
L 53.668682 154.012316 
L 53.674685 153.974863 
L 53.677687 153.937409 
L 53.73772 154.16213 
L 53.770739 154.16213 
L 53.905813 154.611573 
L 53.914818 154.574119 
L 53.91782 154.536666 
L 53.98986 154.798841 
L 54.007869 154.798841 
L 54.136941 155.098469 
L 54.013873 154.761387 
L 54.139942 155.061016 
L 54.193972 155.098469 
L 54.314039 155.360644 
L 54.329047 155.248283 
L 54.410092 155.473005 
L 54.419097 155.435551 
L 54.464122 155.510458 
L 54.56918 155.697726 
L 54.473127 155.473005 
L 54.584188 155.622819 
L 54.596195 155.547912 
L 54.650224 155.697726 
L 54.689246 155.697726 
L 54.719262 155.772633 
L 54.731269 155.73518 
L 54.84233 155.922447 
L 54.857339 155.84754 
L 54.866344 155.997354 
L 54.944387 155.959901 
L 54.953392 155.922447 
L 55.061452 156.147169 
L 55.079461 155.997354 
L 55.163508 156.184622 
L 55.169511 156.147169 
L 55.181518 156.072262 
L 55.283574 156.222076 
L 55.328599 156.259529 
L 55.400639 156.109715 
L 55.43966 156.259529 
L 55.514702 156.184622 
L 55.553723 156.184622 
L 55.63777 156.072262 
L 55.562728 156.222076 
L 55.664785 156.184622 
L 55.757836 156.109715 
L 55.682795 156.259529 
L 55.775846 156.147169 
L 55.871899 156.296983 
L 55.781849 156.109715 
L 55.895912 156.259529 
L 56.003972 156.184622 
L 55.976957 156.334436 
L 56.006974 156.259529 
L 56.106029 156.222076 
L 56.094022 156.334436 
L 56.118035 156.259529 
L 56.226095 156.37189 
L 56.184072 156.222076 
L 56.232098 156.296983 
L 56.352165 156.222076 
L 56.358168 156.259529 
L 56.466228 156.147169 
L 56.535266 156.222076 
L 56.559279 156.072262 
L 56.577289 156.147169 
L 56.595299 156.184622 
L 56.697355 156.034808 
L 56.826427 155.997354 
L 56.829428 155.922447 
L 56.856443 156.109715 
L 56.937488 155.997354 
L 56.994519 155.959901 
L 57.030539 155.884994 
L 57.054553 156.034808 
L 57.105581 155.959901 
L 57.111584 156.034808 
L 57.222645 155.884994 
L 57.225647 155.959901 
L 57.3217 155.772633 
L 57.330705 155.810087 
L 57.390738 155.884994 
L 57.426758 155.697726 
L 57.435763 155.772633 
L 57.441766 155.810087 
L 57.558831 155.622819 
L 57.609859 155.660272 
L 57.648881 155.510458 
L 57.663889 155.547912 
L 57.898018 155.510458 
L 57.964055 155.547912 
L 58.012082 155.435551 
L 58.249212 155.398098 
L 58.342264 155.285737 
L 58.363276 155.32319 
L 58.477339 155.135923 
L 58.486343 155.173376 
L 58.501352 155.21083 
L 58.504353 155.285737 
L 58.561385 155.098469 
L 58.60641 155.135923 
L 58.723474 155.061016 
L 58.873557 155.023562 
L 58.915581 154.911201 
L 58.939594 155.061016 
L 58.981617 155.061016 
L 58.98762 155.061016 
L 59.080672 154.873748 
L 59.101683 154.948655 
L 59.218748 154.836294 
L 59.23976 154.911201 
L 59.230755 154.761387 
L 59.329809 154.836294 
L 59.347819 154.873748 
L 59.446874 154.723934 
L 59.476891 154.798841 
L 59.467886 154.649027 
L 59.554934 154.649027 
L 59.744038 154.649027 
L 59.76505 154.536666 
L 59.8551 154.611573 
L 59.885116 154.611573 
L 59.993176 154.461759 
L 59.999179 154.499212 
L 60.332363 154.424305 
L 60.440423 154.274491 
L 60.350373 154.499212 
L 60.449428 154.311945 
L 60.45243 154.386852 
L 60.473441 154.237037 
L 60.557488 154.274491 
L 60.656542 154.124677 
L 60.563491 154.311945 
L 60.674552 154.199584 
L 60.716576 154.124677 
L 60.824635 154.04977 
L 60.728582 154.199584 
L 60.827637 154.124677 
L 60.86966 154.274491 
L 60.917687 154.04977 
L 60.944702 154.199584 
L 61.037753 154.124677 
L 60.980721 154.237037 
L 61.052761 154.199584 
L 61.064768 154.274491 
L 61.151816 154.087223 
L 61.154818 154.087223 
L 61.34092 154.012316 
L 61.442977 153.899955 
L 61.355929 154.04977 
L 61.457985 153.937409 
L 61.52102 154.04977 
L 61.46699 153.899955 
L 61.563043 153.899955 
L 61.626078 153.825048 
L 61.572048 153.974863 
L 61.674104 153.862502 
L 61.752148 153.825048 
L 61.782164 153.937409 
L 61.884221 153.787595 
L 61.893226 153.862502 
L 61.998284 153.825048 
L 62.037305 153.712688 
L 62.091335 153.899955 
L 62.109345 153.787595 
L 62.181385 153.862502 
L 62.205398 153.750141 
L 62.220406 153.787595 
L 62.277438 153.712688 
L 62.283441 153.862502 
L 62.334469 153.750141 
L 62.391501 153.825048 
L 62.430522 153.675234 
L 62.442529 153.675234 
L 62.523574 153.712688 
L 62.526575 153.787595 
L 62.601617 153.562873 
L 62.631633 153.637781 
L 62.646642 153.637781 
L 62.649643 153.750141 
L 62.700672 153.600327 
L 62.757703 153.637781 
L 62.847753 153.675234 
L 62.871766 153.750141 
L 62.892778 153.637781 
L 62.958814 153.675234 
L 63.012844 153.750141 
L 63.030854 153.600327 
L 63.069876 153.675234 
L 63.237968 153.637781 
L 63.322015 153.562873 
L 63.246973 153.675234 
L 63.34903 153.600327 
L 63.460091 153.637781 
L 63.595166 147.645212 
L 64.300555 140.191954 
L 64.303557 140.229408 
L 64.372595 139.705058 
L 64.504668 138.918534 
L 64.516675 138.993441 
L 64.57971 138.543998 
L 64.582711 138.581452 
L 64.717786 137.907288 
L 64.720788 137.944741 
L 64.789826 137.570206 
L 64.804834 137.607659 
L 64.951915 136.970949 
L 64.963922 137.008402 
L 64.97893 136.933495 
L 65.138018 136.334238 
L 65.168035 136.296785 
L 65.288101 135.959703 
L 65.291103 135.997156 
L 65.444187 135.472807 
L 65.45019 135.435353 
L 65.570257 135.023364 
L 65.61228 135.098271 
L 65.636293 134.836096 
L 65.669312 134.87355 
L 65.798383 134.499014 
L 65.675315 134.911003 
L 65.804386 134.536468 
L 65.867421 134.573921 
L 65.906443 134.424107 
L 65.966476 134.386653 
L 66.053524 134.124479 
L 66.08354 134.161932 
L 66.13757 134.199386 
L 66.140572 134.087025 
L 66.188598 134.087025 
L 66.320671 133.82485 
L 66.3717 133.937211 
L 66.422728 133.712489 
L 66.479759 133.562675 
L 66.428731 133.749943 
L 66.542794 133.600129 
L 66.617835 133.525222 
L 66.707885 133.412861 
L 66.623839 133.562675 
L 66.731898 133.487768 
L 66.836957 133.412861 
L 66.939013 133.18814 
L 66.95102 133.3005 
L 67.119112 133.225593 
L 67.128117 133.3005 
L 67.236177 133.075779 
L 67.29621 133.225593 
L 67.257189 133.038325 
L 67.347238 133.075779 
L 67.374253 133.150686 
L 67.449295 132.963418 
L 67.485315 133.000872 
L 67.515331 133.075779 
L 67.563358 132.888511 
L 67.593374 132.963418 
L 67.638399 132.925965 
L 67.731451 132.851058 
L 67.647404 132.963418 
L 67.746459 132.963418 
L 67.764469 132.925965 
L 67.866525 132.738697 
L 67.878532 132.851058 
L 67.887537 132.738697 
L 67.92956 132.925965 
L 67.98359 132.925965 
L 68.214718 132.851058 
L 68.244734 132.776151 
L 68.232728 132.925965 
L 68.325779 132.851058 
L 68.358797 132.888511 
L 68.385812 132.776151 
L 68.433839 132.813604 
L 68.56291 132.738697 
L 68.601932 132.701243 
L 68.574917 132.813604 
L 68.67097 132.776151 
L 68.697985 132.813604 
L 68.700986 132.66379 
L 68.791036 132.925965 
L 68.806044 132.888511 
L 68.908101 132.925965 
L 68.956127 133.075779 
L 69.007155 132.888511 
L 69.019162 132.925965 
L 69.05218 132.963418 
L 69.0882 132.925965 
L 69.166243 133.113233 
L 69.262296 132.925965 
L 69.283308 133.000872 
L 69.352346 132.888511 
L 69.394369 133.075779 
L 69.484419 132.925965 
L 69.505431 133.038325 
L 69.655514 133.038325 
L 69.760572 133.150686 
L 69.766575 133.113233 
L 69.84762 133.18814 
L 69.853623 133.113233 
L 69.967686 133.3005 
L 70.072744 133.375407 
L 70.177802 133.412861 
L 70.111766 133.3005 
L 70.183805 133.375407 
L 70.252844 133.337954 
L 70.234834 133.450315 
L 70.291865 133.412861 
L 70.465961 133.375407 
L 70.468963 133.3005 
L 70.547006 133.525222 
L 70.571019 133.487768 
L 70.616044 133.600129 
L 70.685082 133.562675 
L 70.709096 133.525222 
L 70.727106 133.675036 
L 70.793142 133.562675 
L 70.871185 133.712489 
L 70.907205 133.600129 
L 70.964237 133.675036 
L 71.018266 133.562675 
L 71.048283 133.712489 
L 71.135331 133.637582 
L 71.195364 133.600129 
L 71.213374 133.487768 
L 71.294419 133.675036 
L 71.306426 133.600129 
L 71.33344 133.675036 
L 71.35145 133.525222 
L 71.417487 133.637582 
L 71.480522 133.525222 
L 71.438499 133.675036 
L 71.525547 133.637582 
L 71.54956 133.675036 
L 71.600588 133.487768 
L 71.624601 133.562675 
L 71.627603 133.487768 
L 71.687636 133.675036 
L 71.732661 133.637582 
L 71.918764 133.675036 
L 71.978797 133.82485 
L 72.029825 133.712489 
L 72.071848 133.787397 
L 72.18291 133.899757 
L 72.11087 133.749943 
L 72.185911 133.82485 
L 72.203921 133.899757 
L 72.206923 133.937211 
L 72.239941 133.787397 
L 72.308979 133.862304 
L 72.351003 133.749943 
L 72.387022 133.937211 
L 72.420041 133.862304 
L 72.444054 133.787397 
L 72.447056 133.749943 
L 72.51009 133.937211 
L 72.543109 133.899757 
L 72.648167 134.012118 
L 72.56412 133.862304 
L 72.657172 133.974664 
L 72.921318 134.049571 
L 72.993357 134.124479 
L 72.939328 133.937211 
L 73.029377 134.012118 
L 73.032379 133.974664 
L 73.086409 134.124479 
L 73.134435 134.087025 
L 73.374568 134.161932 
L 73.37757 134.199386 
L 73.455613 133.974664 
L 73.476624 134.049571 
L 73.485629 133.974664 
L 73.509643 134.161932 
L 73.581682 134.087025 
L 73.680737 134.199386 
L 73.587686 134.049571 
L 73.698747 134.161932 
L 73.872843 134.161932 
L 73.875845 134.049571 
L 73.959891 134.274293 
L 73.980903 134.274293 
L 73.998913 134.199386 
L 74.049941 134.161932 
L 74.064949 134.311746 
L 74.103971 134.274293 
L 74.139991 134.386653 
L 74.109974 134.236839 
L 74.221036 134.3492 
L 74.317089 134.236839 
L 74.269062 134.424107 
L 74.3381 134.274293 
L 74.461168 134.311746 
L 74.548216 134.3492 
L 74.575231 134.124479 
L 74.677288 134.236839 
L 74.689294 134.199386 
L 74.719311 134.274293 
L 74.755331 134.311746 
L 74.767337 134.124479 
L 74.824369 134.199386 
L 74.848382 134.161932 
L 74.86339 134.274293 
L 74.929427 134.274293 
L 75.049493 134.236839 
L 75.052495 134.161932 
L 75.130538 134.386653 
L 75.157553 134.311746 
L 75.265613 134.199386 
L 75.172561 134.3492 
L 75.271616 134.274293 
L 75.283623 134.199386 
L 75.286624 134.161932 
L 75.295629 134.311746 
L 75.391682 134.236839 
L 75.421699 134.3492 
L 75.403689 134.199386 
L 75.505745 134.311746 
L 75.511749 134.424107 
L 75.619808 134.236839 
L 75.715861 134.3492 
L 75.733871 134.274293 
L 75.865944 134.311746 
L 75.974004 134.424107 
L 75.901964 134.236839 
L 75.980007 134.386653 
L 76.016027 134.311746 
L 76.019029 134.274293 
L 76.07606 134.424107 
L 76.118084 134.424107 
L 76.334203 134.461561 
L 76.340206 134.536468 
L 76.397238 134.386653 
L 76.445264 134.461561 
L 76.463274 134.3492 
L 76.511301 134.573921 
L 76.550322 134.573921 
L 76.562329 134.573921 
L 76.658382 134.461561 
L 76.67339 134.573921 
L 76.868498 134.499014 
L 76.94354 134.424107 
L 76.916525 134.573921 
L 76.976558 134.499014 
L 76.985563 134.611375 
L 77.093623 134.573921 
L 77.204684 134.499014 
L 77.138647 134.648828 
L 77.207686 134.536468 
L 77.477835 134.461561 
L 77.483838 134.386653 
L 77.510853 134.573921 
L 77.588896 134.461561 
L 77.663938 134.573921 
L 77.609908 134.424107 
L 77.702959 134.536468 
L 77.796011 134.386653 
L 77.820024 134.461561 
L 78.105181 134.536468 
L 78.108183 134.611375 
L 78.126193 134.499014 
L 78.213241 134.573921 
L 78.225248 134.461561 
L 78.303291 134.648828 
L 78.327304 134.499014 
L 78.348316 134.573921 
L 78.336309 134.461561 
L 78.438365 134.536468 
L 78.489394 134.424107 
L 78.513407 134.573921 
L 78.549427 134.499014 
L 78.624468 134.573921 
L 78.60946 134.461561 
L 78.660488 134.499014 
L 78.897619 134.536468 
L 79.00868 134.723735 
L 78.924634 134.499014 
L 79.011682 134.611375 
L 79.101732 134.723735 
L 79.032694 134.573921 
L 79.128747 134.686282 
L 79.648034 134.686282 
L 79.651035 134.573921 
L 79.657039 134.723735 
L 79.759095 134.686282 
L 80.023241 134.611375 
L 80.032246 134.573921 
L 80.113291 134.798643 
L 80.131301 134.648828 
L 80.158316 134.686282 
L 80.263374 134.761189 
L 80.173324 134.648828 
L 80.269377 134.686282 
L 80.296392 134.798643 
L 80.332412 134.648828 
L 80.377437 134.686282 
L 80.476491 134.536468 
L 80.392445 134.723735 
L 80.4915 134.611375 
L 80.533523 134.761189 
L 80.608564 134.723735 
L 80.689609 134.573921 
L 80.722627 134.648828 
L 81.073821 134.723735 
L 81.142859 134.836096 
L 81.082826 134.686282 
L 81.184883 134.798643 
L 81.250919 134.723735 
L 81.199891 134.836096 
L 81.295944 134.798643 
L 81.304949 134.836096 
L 81.352975 134.686282 
L 81.401002 134.761189 
L 81.467038 134.648828 
L 81.407005 134.798643 
L 81.47004 134.761189 
L 81.605115 143.525321 
L 82.088382 152.813802 
L 82.094385 152.888709 
L 82.589659 157.682764 
L 82.59266 157.682764 
L 82.733738 158.806371 
L 82.748747 158.843825 
L 82.907834 160.042338 
L 82.910836 159.967431 
L 82.994882 160.529235 
L 82.997884 160.529235 
L 83.012892 160.491781 
L 83.192992 161.615388 
L 83.198995 161.577934 
L 83.271035 161.989923 
L 83.274037 161.989923 
L 83.28004 161.95247 
L 83.445131 162.738994 
L 83.487154 162.776448 
L 83.604219 163.300798 
L 83.493158 162.738994 
L 83.610222 163.225891 
L 83.730289 163.712787 
L 83.736292 163.675333 
L 83.739294 163.63788 
L 83.814335 163.974962 
L 83.826342 163.937508 
L 83.856358 164.012415 
L 83.98543 164.461858 
L 84.045463 164.536765 
L 84.177536 164.836393 
L 84.189542 164.79894 
L 84.243572 165.061115 
L 84.273589 165.023661 
L 84.2946 165.098568 
L 84.306607 165.061115 
L 84.414667 165.210929 
L 84.417668 165.136022 
L 84.516723 165.360743 
L 84.519725 165.360743 
L 84.630786 165.43565 
L 84.651798 165.398197 
L 84.744849 165.548011 
L 84.747851 165.473104 
L 84.834899 165.697825 
L 84.849907 165.697825 
L 84.942959 165.622918 
L 84.951964 165.772732 
L 84.96397 165.660372 
L 85.081035 165.810186 
L 85.165081 165.922546 
L 85.192096 165.847639 
L 85.258133 165.772732 
L 85.219111 165.922546 
L 85.303158 165.847639 
L 85.369194 165.96 
L 85.339178 165.772732 
L 85.417221 165.885093 
L 85.492262 165.810186 
L 85.537287 165.772732 
L 85.528282 165.885093 
L 85.600322 165.810186 
L 85.68737 165.847639 
L 85.660355 165.735279 
L 85.708381 165.810186 
L 85.792428 165.697825 
L 85.7414 165.885093 
L 85.822444 165.772732 
L 86.029559 165.735279 
L 86.131615 165.622918 
L 86.06858 165.772732 
L 86.14062 165.697825 
L 86.179642 165.697825 
L 86.182643 165.585464 
L 86.19465 165.735279 
L 86.290703 165.660372 
L 86.371748 165.697825 
L 86.32072 165.585464 
L 86.395761 165.660372 
L 86.512826 165.398197 
L 86.515828 165.43565 
L 86.563854 165.548011 
L 86.611881 165.32329 
L 86.623887 165.398197 
L 86.70193 165.32329 
L 86.749957 165.360743 
L 86.821997 165.210929 
L 86.906043 165.173475 
L 87.008099 165.061115 
L 86.948066 165.248382 
L 87.020106 165.098568 
L 87.131167 164.986208 
L 87.035114 165.136022 
L 87.134169 165.023661 
L 87.155181 165.098568 
L 87.143174 164.9113 
L 87.239227 164.948754 
L 87.362295 164.79894 
L 87.419327 164.836393 
L 87.434335 164.724033 
L 87.464352 164.761486 
L 87.542395 164.79894 
L 87.578415 164.611672 
L 87.707486 164.349497 
L 87.719492 164.424404 
L 87.800537 164.199683 
L 87.809542 164.237136 
L 87.86057 164.162229 
L 87.890587 164.237136 
L 87.983638 164.012415 
L 88.037668 163.937508 
L 88.154733 163.787694 
L 88.085695 163.974962 
L 88.157735 163.825147 
L 88.181748 163.787694 
L 88.298812 163.562973 
L 88.310819 163.63788 
L 88.379857 163.375705 
L 88.394866 163.375705 
L 88.4579 163.300798 
L 88.568962 163.038623 
L 88.577967 163.076076 
L 88.641002 163.001169 
L 88.758066 162.776448 
L 88.767071 162.813901 
L 88.773074 162.776448 
L 88.893141 162.514273 
L 88.902146 162.58918 
L 88.965181 162.327005 
L 88.992196 162.439366 
L 89.103257 162.06483 
L 89.115264 162.102284 
L 89.175297 162.139737 
L 89.214318 161.95247 
L 89.220322 162.027377 
L 89.34339 161.727748 
L 89.376408 161.652841 
L 89.382411 161.690295 
L 89.502477 161.390666 
L 89.505479 161.465573 
L 89.601532 161.203399 
L 89.607535 161.240852 
L 89.622544 161.203399 
L 89.721598 160.941224 
L 89.631549 161.240852 
L 89.739608 160.978677 
L 89.865678 160.716502 
L 89.86868 160.753956 
L 89.892693 160.791409 
L 89.949724 160.566688 
L 89.967734 160.641595 
L 90.099807 160.37942 
L 90.120819 160.416874 
L 90.186855 160.229606 
L 90.198862 160.229606 
L 90.32193 160.004885 
L 90.216872 160.26706 
L 90.324932 160.042338 
L 90.360952 159.967431 
L 90.493025 159.592896 
L 90.496026 159.667803 
L 90.508033 159.705256 
L 90.583074 159.480535 
L 90.592079 159.480535 
L 90.625098 159.443081 
L 90.745164 159.21836 
L 90.757171 159.255814 
L 90.832212 158.993639 
L 90.841217 159.068546 
L 90.970288 158.768918 
L 90.988298 158.881278 
L 91.039326 158.619103 
L 91.075346 158.69401 
L 91.192411 158.431836 
L 91.204418 158.469289 
L 91.237436 158.394382 
L 91.348497 158.169661 
L 91.267452 158.431836 
L 91.360504 158.244568 
L 91.369509 158.169661 
L 91.492577 157.832579 
L 91.381515 158.207114 
L 91.49858 157.907486 
L 91.525595 157.944939 
L 91.582627 157.720218 
L 91.597635 157.757672 
L 91.633655 157.720218 
L 91.753721 157.458043 
L 91.771731 157.53295 
L 91.804749 157.345682 
L 91.858779 157.383136 
L 91.867784 157.345682 
L 91.960835 157.158415 
L 91.981847 157.195868 
L 91.984849 157.233322 
L 92.05989 156.971147 
L 92.080902 157.083508 
L 92.197966 156.89624 
L 92.200968 156.933693 
L 92.288016 156.634065 
L 92.29402 156.708972 
L 92.327038 156.708972 
L 92.423091 156.446797 
L 92.441101 156.484251 
L 92.447104 156.559158 
L 92.480122 156.334436 
L 92.540155 156.334436 
L 92.546159 156.37189 
L 92.65722 156.109715 
L 92.690238 156.147169 
L 92.723257 155.959901 
L 92.759277 155.997354 
L 92.87334 155.84754 
L 92.885346 155.884994 
L 92.969393 155.660272 
L 92.978398 155.772633 
L 93.098464 155.510458 
L 93.116474 155.622819 
L 93.194517 155.398098 
L 93.203522 155.435551 
L 93.27256 155.360644 
L 93.404633 155.061016 
L 93.428646 155.135923 
L 93.488679 154.873748 
L 93.506689 154.911201 
L 93.515694 154.948655 
L 93.629757 154.723934 
L 93.665777 154.761387 
L 93.698796 154.536666 
L 93.728812 154.574119 
L 93.749824 154.499212 
L 93.755827 154.536666 
L 93.872892 154.349398 
L 93.938928 154.274491 
L 94.043986 154.04977 
L 93.944932 154.311945 
L 94.064998 154.087223 
L 94.095014 154.04977 
L 94.212079 153.825048 
L 94.230089 153.899955 
L 94.299127 153.675234 
L 94.314135 153.712688 
L 94.35916 153.675234 
L 94.473223 153.450513 
L 94.476225 153.487966 
L 94.482228 153.413059 
L 94.596291 153.225791 
L 94.599293 153.263245 
L 94.608298 153.225791 
L 94.635313 153.300699 
L 94.725363 153.075977 
L 94.776391 153.00107 
L 94.893455 152.738895 
L 94.905462 152.776349 
L 94.950487 152.701442 
L 95.061548 152.514174 
L 95.067552 152.551627 
L 95.103572 152.551627 
L 95.214633 152.214545 
L 95.220636 152.326906 
L 95.349708 152.027278 
L 95.352709 152.064731 
L 95.415744 151.989824 
L 95.532809 151.84001 
L 95.53581 151.877463 
L 95.547817 151.914917 
L 95.586839 151.727649 
L 95.631863 151.765103 
L 95.745926 151.540381 
L 95.748928 151.615289 
L 95.766938 151.577835 
L 95.775943 151.615289 
L 95.881001 151.428021 
L 95.944036 151.465474 
L 95.965047 151.31566 
L 95.983057 151.390567 
L 96.067104 151.203299 
L 96.100122 151.240753 
L 96.127137 151.31566 
L 96.172162 151.090939 
L 96.202178 151.165846 
L 96.33125 150.903671 
L 96.364268 151.016032 
L 96.418298 150.79131 
L 96.436308 150.79131 
L 96.460321 150.716403 
L 96.466324 150.753857 
L 96.586391 150.529135 
L 96.71246 150.454228 
L 96.814517 150.229507 
L 96.832527 150.304414 
L 96.844533 150.379321 
L 96.889558 150.1546 
L 96.92858 150.192054 
L 97.045644 149.967332 
L 97.102676 150.079693 
L 97.135694 149.929879 
L 97.156706 150.004786 
L 97.276772 149.742611 
L 97.282775 149.817518 
L 97.285777 149.892425 
L 97.360819 149.63025 
L 97.387833 149.667704 
L 97.501896 149.330622 
L 97.393837 149.705157 
L 97.522908 149.368075 
L 97.576938 149.293168 
L 97.694003 149.1059 
L 97.700006 149.218261 
L 97.799061 148.956086 
L 97.8711 148.956086 
L 97.97916 148.806272 
L 97.982162 148.843726 
L 97.99717 148.956086 
L 98.078215 148.656458 
L 98.081216 148.693911 
L 98.17727 148.693911 
L 98.294334 148.46919 
L 98.348364 148.431736 
L 98.46843 148.207015 
L 98.471432 148.244469 
L 98.552477 148.019747 
L 98.564483 148.094654 
L 98.681548 147.757572 
L 98.68455 147.795026 
L 98.693555 147.869933 
L 98.783604 147.645212 
L 98.786606 147.682665 
L 98.801614 147.720119 
L 98.903671 147.570305 
L 98.921681 147.607758 
L 98.975711 147.457944 
L 99.005727 147.457944 
L 99.125794 147.345583 
L 99.134798 147.30813 
L 99.143803 147.383037 
L 99.251863 147.120862 
L 99.314898 147.195769 
L 99.356921 147.008501 
L 99.359923 147.045955 
L 99.398944 147.045955 
L 99.501001 146.78378 
L 99.513007 146.821234 
L 99.543024 146.896141 
L 99.591051 146.746326 
L 99.621067 146.78378 
L 99.708115 146.708873 
L 99.834185 146.521605 
L 99.873206 146.633966 
L 99.91523 146.409244 
L 99.936241 146.409244 
L 100.011283 146.409244 
L 100.122344 146.184523 
L 100.125346 146.221977 
L 100.170371 146.25943 
L 100.218397 146.034709 
L 100.2244 146.072162 
L 100.299442 146.034709 
L 100.410503 145.772534 
L 100.419508 145.809988 
L 100.431515 145.847441 
L 100.51256 145.585266 
L 100.545578 145.697627 
L 100.629624 145.472906 
L 100.656639 145.547813 
L 100.704666 145.360545 
L 100.734682 145.397999 
L 100.80372 145.323091 
L 100.815727 145.360545 
L 100.92979 145.135824 
L 100.989823 145.060917 
L 101.121896 144.761288 
L 101.163919 144.798742 
L 101.202941 144.57402 
L 101.217949 144.648927 
L 101.329011 144.424206 
L 101.335014 144.46166 
L 101.359027 144.386753 
L 101.470089 144.236938 
L 101.47309 144.274392 
L 101.476092 144.311845 
L 101.560138 144.087124 
L 101.575147 144.162031 
L 101.698215 143.974763 
L 101.725229 144.049671 
L 101.788264 143.824949 
L 101.800271 143.862403 
L 101.899326 143.824949 
L 101.929342 143.862403 
L 102.013389 143.712589 
L 102.031399 143.637681 
L 102.127452 143.787496 
L 102.247518 143.375507 
L 102.256523 143.450414 
L 102.316556 143.188239 
L 102.349574 143.188239 
L 102.379591 143.113332 
L 102.391598 143.150785 
L 102.505661 142.88861 
L 102.508662 142.963517 
L 102.604715 142.663889 
L 102.607717 142.738796 
L 102.736788 142.476621 
L 102.73979 142.514075 
L 102.814831 142.289353 
L 102.835843 142.326807 
L 102.937899 142.289353 
L 102.970918 142.326807 
L 103.054964 142.064632 
L 103.099989 142.139539 
L 103.13901 141.952271 
L 103.15702 141.952271 
L 103.226059 141.914818 
L 103.346125 141.690097 
L 103.46319 141.502829 
L 103.466191 141.540282 
L 103.469193 141.577736 
L 103.511216 141.353015 
L 103.568248 141.465375 
L 103.667302 141.315561 
L 103.685312 141.390468 
L 103.721332 141.315561 
L 103.86241 140.828665 
L 103.865412 140.903572 
L 103.871415 141.053386 
L 103.949458 140.641397 
L 103.955462 140.678851 
L 104.081531 140.304315 
L 104.102543 140.266862 
L 104.195594 140.416676 
L 104.234616 140.304315 
L 104.297651 140.454129 
L 104.306656 140.379222 
L 104.321664 140.304315 
L 104.465743 139.892326 
L 104.47775 139.854872 
L 104.582808 139.480337 
L 104.597816 139.592698 
L 104.654848 139.51779 
L 104.666855 139.555244 
L 104.786921 139.255616 
L 104.813936 139.180708 
L 104.822941 139.218162 
L 104.946009 138.918534 
L 104.973024 138.993441 
L 105.045063 138.768719 
L 105.048065 138.843626 
L 105.156125 138.731266 
L 105.054068 138.88108 
L 105.16513 138.768719 
L 105.207153 138.693812 
L 105.330221 138.394184 
L 105.222161 138.731266 
L 105.336224 138.431637 
L 105.348231 138.469091 
L 105.393256 138.319277 
L 105.441282 138.35673 
L 105.480304 138.281823 
L 105.58236 138.169462 
L 105.495312 138.319277 
L 105.594367 138.24437 
L 105.639392 138.24437 
L 105.738446 138.019648 
L 105.753455 138.057102 
L 105.756456 138.132009 
L 105.804483 137.982195 
L 105.861514 138.094555 
L 105.891531 137.982195 
L 105.975577 138.019648 
L 106.005594 138.057102 
L 106.008596 138.132009 
L 106.104649 137.794927 
L 106.212708 137.72002 
L 106.332775 137.382938 
L 106.335776 137.420391 
L 106.41382 137.495298 
L 106.344781 137.382938 
L 106.443836 137.420391 
L 106.560901 137.19567 
L 106.563902 137.270577 
L 106.647949 137.045856 
L 106.665959 137.120763 
L 106.792028 136.858588 
L 106.801033 136.933495 
L 106.897087 136.708774 
L 106.9211 136.821135 
L 106.978131 136.521506 
L 107.005146 136.67132 
L 107.032161 136.596413 
L 107.128214 136.484053 
L 107.071183 136.67132 
L 107.143222 136.521506 
L 107.197252 136.55896 
L 107.242277 136.371692 
L 107.245279 136.446599 
L 107.251282 136.484053 
L 107.371349 136.259331 
L 107.37435 136.334238 
L 107.4644 136.146971 
L 107.479408 136.221878 
L 107.593471 135.997156 
L 107.605478 136.03461 
L 107.644499 135.959703 
L 107.761564 135.697528 
L 107.803587 135.622621 
L 107.905644 135.360446 
L 107.929657 135.435353 
L 108.034715 135.360446 
L 108.073737 135.435353 
L 108.145776 135.285539 
L 108.148778 135.360446 
L 108.211813 135.135725 
L 108.253836 135.210632 
L 108.370901 134.98591 
L 108.388911 135.060817 
L 108.451945 134.87355 
L 108.475959 134.911003 
L 108.51498 134.87355 
L 108.629043 134.611375 
L 108.541995 134.948457 
L 108.632045 134.686282 
L 108.656058 134.648828 
L 108.755113 134.499014 
L 108.665063 134.686282 
L 108.770121 134.536468 
L 108.773123 134.573921 
L 108.845163 134.3492 
L 108.866174 134.386653 
L 108.884184 134.499014 
L 108.980237 134.274293 
L 108.998247 134.386653 
L 109.043272 134.199386 
L 109.091299 134.274293 
L 109.133322 134.311746 
L 109.217368 134.087025 
L 109.29241 134.012118 
L 109.316423 134.049571 
L 109.412476 133.862304 
L 109.436489 133.899757 
L 109.496523 133.562675 
L 109.502526 133.637582 
L 109.529541 133.675036 
L 109.61959 133.487768 
L 109.640602 133.562675 
L 109.685627 133.3005 
L 109.724649 133.337954 
L 109.784682 133.412861 
L 109.820702 133.263047 
L 109.832708 133.337954 
L 109.838712 133.412861 
L 109.96178 133.113233 
L 110.018811 133.225593 
L 110.075843 133.150686 
L 110.090851 133.225593 
L 110.207915 132.851058 
L 110.219922 133.000872 
L 110.273952 132.738697 
L 110.315975 132.776151 
L 110.333985 132.701243 
L 110.45105 132.439069 
L 110.472061 132.513976 
L 110.526091 132.289254 
L 110.556108 132.364162 
L 110.694184 131.989626 
L 110.709192 132.02708 
L 110.790237 131.802358 
L 110.793239 131.764905 
L 110.865279 131.952172 
L 110.898297 131.802358 
L 110.997352 131.914719 
L 110.937318 131.727451 
L 111.01236 131.839812 
L 111.03037 131.764905 
L 111.075395 131.540183 
L 111.147435 131.577637 
L 111.213471 131.50273 
L 111.330536 131.165648 
L 111.333537 131.240555 
L 111.366556 131.203101 
L 111.405577 131.240555 
L 111.480619 131.090741 
L 111.48362 131.165648 
L 111.57367 130.940926 
L 111.585677 130.97838 
L 111.696738 130.753659 
L 111.702741 130.828566 
L 111.816804 130.641298 
L 111.825809 130.678752 
L 111.885842 130.753659 
L 111.882841 130.641298 
L 111.930867 130.678752 
L 112.047932 130.416577 
L 112.050934 130.45403 
L 112.089955 130.528937 
L 112.171 130.304216 
L 112.18901 130.416577 
L 112.240038 130.154402 
L 112.270055 130.154402 
L 112.405129 129.854773 
L 112.408131 129.892227 
L 112.489176 129.592598 
L 112.498181 129.704959 
L 112.612244 129.517691 
L 112.64226 129.630052 
L 112.711298 129.405331 
L 112.720303 129.442784 
L 112.801348 129.367877 
L 112.828363 129.480238 
L 112.882393 129.442784 
L 112.999458 129.180609 
L 113.002459 129.29297 
L 113.104516 129.068249 
L 113.107517 129.068249 
L 113.110519 129.105702 
L 113.191564 128.880981 
L 113.206572 128.918434 
L 113.326638 128.76862 
L 113.338645 128.843527 
L 113.410685 128.581352 
L 113.428695 128.65626 
L 113.536754 128.394085 
L 113.557766 128.431538 
L 113.599789 128.356631 
L 113.707849 128.206817 
L 113.617799 128.394085 
L 113.719856 128.24427 
L 113.74687 128.356631 
L 113.821912 128.169363 
L 113.824914 128.206817 
L 113.935975 128.057003 
L 113.833919 128.24427 
L 113.94498 128.094456 
L 113.965992 128.019549 
L 114.077053 127.907189 
L 113.993006 128.094456 
L 114.083056 127.944642 
L 114.131083 127.869735 
L 114.257152 127.495199 
L 114.263156 127.60756 
L 114.284167 127.532653 
L 114.41624 127.270478 
L 114.440254 127.307932 
L 114.473272 127.08321 
L 114.512293 127.120664 
L 114.623355 126.895943 
L 114.638363 126.933396 
L 114.671381 126.858489 
L 114.797451 126.596314 
L 114.800452 126.633768 
L 114.803454 126.708675 
L 114.899507 126.409046 
L 114.902509 126.4465 
L 115.01357 126.371593 
L 115.124632 126.221779 
L 115.019574 126.4465 
L 115.130635 126.296686 
L 115.163653 126.221779 
L 115.283719 125.997057 
L 115.334748 125.959604 
L 115.454814 125.697429 
L 115.493836 125.659975 
L 115.598894 125.435254 
L 115.535859 125.697429 
L 115.6109 125.472707 
L 115.691945 125.585068 
L 115.631912 125.435254 
L 115.721962 125.472707 
L 115.763985 125.435254 
L 115.878048 125.210533 
L 115.884051 125.28544 
L 115.974101 125.060718 
L 115.983106 125.173079 
L 116.094167 124.985811 
L 116.106174 125.023265 
L 116.166207 124.985811 
L 116.286273 124.76109 
L 116.295278 124.798543 
L 116.427351 124.386554 
L 116.451364 124.424008 
L 116.511398 124.199287 
L 116.529408 124.274194 
L 116.535411 124.311647 
L 116.670486 123.899658 
L 116.700502 124.012019 
L 116.754532 123.749844 
L 116.775544 123.787297 
L 116.790552 123.749844 
L 116.901613 123.60003 
L 116.814565 123.787297 
L 116.904615 123.637483 
L 116.919623 123.562576 
L 116.96765 123.487669 
L 116.982658 123.637483 
L 117.024681 123.60003 
L 117.081713 123.637483 
L 117.123736 123.450216 
L 117.144748 123.375308 
L 117.150751 123.450216 
L 117.261812 123.262948 
L 117.270817 123.300401 
L 117.339855 123.038226 
L 117.351862 123.038226 
L 117.486937 122.663691 
L 117.489938 122.701144 
L 117.49294 122.738598 
L 117.56498 122.513877 
L 117.58299 122.513877 
L 117.697053 122.251702 
L 117.706058 122.289155 
L 117.715063 122.364062 
L 117.796107 122.139341 
L 117.814117 122.214248 
L 117.877152 122.251702 
L 117.880154 122.326609 
L 117.919175 122.176795 
L 117.985212 122.214248 
L 118.045245 122.139341 
L 118.159308 121.952073 
L 118.060253 122.176795 
L 118.168313 121.989527 
L 118.171315 122.02698 
L 118.249358 121.764806 
L 118.267368 121.877166 
L 118.399441 121.614991 
L 118.444466 121.727352 
L 118.498495 121.540084 
L 118.5075 121.540084 
L 118.516505 121.465177 
L 118.549524 121.577538 
L 118.63357 121.39027 
L 118.72362 121.502631 
L 118.708611 121.352816 
L 118.744631 121.39027 
L 118.849689 121.315363 
L 118.774648 121.465177 
L 118.855693 121.39027 
L 118.936737 121.465177 
L 118.954747 121.315363 
L 118.966754 121.39027 
L 118.972757 121.352816 
L 118.975759 121.502631 
L 119.074814 121.165549 
L 119.080817 121.203002 
L 119.095825 121.240456 
L 119.206887 120.940827 
L 119.215892 121.015734 
L 119.308943 120.75356 
L 119.311945 120.828467 
L 119.407998 120.716106 
L 119.35697 120.86592 
L 119.426008 120.791013 
L 119.459026 120.716106 
L 119.585096 120.34157 
L 119.468031 120.75356 
L 119.594101 120.379024 
L 119.606107 120.453931 
L 119.675145 120.22921 
L 119.693155 120.304117 
L 119.801215 120.191756 
L 119.753188 120.34157 
L 119.807218 120.22921 
L 119.90027 120.154303 
L 120.023338 120.004488 
L 120.041348 119.929581 
L 120.119391 119.70486 
L 120.167417 119.742314 
L 120.230452 119.667406 
L 120.278479 119.555046 
L 120.323504 119.742314 
L 120.338512 119.70486 
L 120.341513 119.779767 
L 120.440568 119.555046 
L 120.44357 119.629953 
L 120.578644 119.292871 
L 120.611663 119.367778 
L 120.674698 119.143057 
L 120.683703 119.18051 
L 120.800767 118.843428 
L 120.815775 118.880882 
L 120.854797 118.955789 
L 120.872807 118.805975 
L 120.926837 118.918335 
L 120.992873 118.955789 
L 121.049905 118.768521 
L 121.061911 118.843428 
L 121.14896 118.618707 
L 121.154963 118.656161 
L 121.293039 118.319079 
L 121.299042 118.356532 
L 121.371082 118.056904 
L 121.383089 118.094357 
L 121.503155 117.869636 
L 121.599208 117.719822 
L 121.617218 117.832182 
L 121.713271 117.907089 
L 121.632227 117.794729 
L 121.725278 117.832182 
L 121.845344 117.607461 
L 121.848346 117.644915 
L 121.851348 117.682368 
L 121.926389 117.38274 
L 121.935394 117.420193 
L 122.016439 117.232925 
L 122.052459 117.270379 
L 122.058462 117.307833 
L 122.172525 117.083111 
L 122.18153 117.120565 
L 122.250568 116.85839 
L 122.265576 116.895843 
L 122.400651 116.596215 
L 122.403653 116.633669 
L 122.478694 116.184226 
L 122.610767 115.922051 
L 122.625775 115.959505 
L 122.682807 115.659876 
L 122.700817 115.734783 
L 122.799872 115.510062 
L 122.817881 115.547515 
L 122.83289 115.510062 
L 122.874913 115.547515 
L 122.955958 115.210433 
L 122.958959 115.247887 
L 123.043006 114.985712 
L 123.058014 115.098073 
L 123.070021 115.060619 
L 123.187085 114.873351 
L 123.253122 114.910805 
L 123.223105 114.723537 
L 123.289142 114.798444 
L 123.427218 114.461362 
L 123.454233 114.386455 
L 123.595311 114.01192 
L 123.619324 113.974466 
L 123.742392 113.674838 
L 123.772409 113.599931 
L 123.895477 113.337756 
L 123.90148 113.375209 
L 123.964515 113.450116 
L 123.988528 113.262849 
L 124.00954 113.337756 
L 124.018545 113.300302 
L 124.09959 112.925767 
L 124.138611 113.000674 
L 124.162624 113.038127 
L 124.222658 112.775952 
L 124.234664 112.813406 
L 124.366737 112.214149 
L 124.39075 112.289056 
L 124.453785 112.026881 
L 124.465792 112.101788 
L 124.4808 112.139242 
L 124.735941 107.607362 
L 124.777964 14.76 
L 124.856007 91.202705 
L 124.997085 119.330324 
L 125.129158 119.629953 
L 125.288246 119.030696 
L 125.303254 118.955789 
L 125.444332 118.169264 
L 125.447334 118.206718 
L 125.504366 117.719822 
L 125.513371 117.719822 
L 125.636439 116.970751 
L 125.642442 117.045658 
L 125.654448 116.970751 
L 125.840551 116.034412 
L 125.846555 115.959505 
L 126.056671 114.723537 
L 126.059672 114.760991 
L 126.134714 114.311548 
L 126.14672 114.274095 
L 126.275792 113.712291 
L 126.278793 113.749745 
L 126.284797 113.824652 
L 126.368843 113.262849 
L 126.371845 113.300302 
L 126.518926 112.738499 
L 126.524929 112.775952 
L 126.542939 112.813406 
L 126.672011 111.914521 
L 126.984183 108.206619 
L 127.011198 34.647838 
L 127.029208 15.8087 
L 127.101248 80.490988 
L 127.245327 116.783483 
L 127.335377 117.607461 
L 127.374399 117.4951 
L 127.39541 117.532554 
L 127.452442 117.345286 
L 127.470452 117.345286 
L 127.644548 116.521308 
L 127.659556 116.558761 
L 127.710584 116.184226 
L 127.728594 116.184226 
L 127.923702 115.135526 
L 127.935709 115.060619 
L 128.106803 113.562477 
L 128.346936 111.877067 
L 128.349937 111.951974 
L 128.433984 111.390171 
L 128.439987 111.427624 
L 128.59007 110.378925 
L 128.593072 110.416378 
L 128.653105 109.817122 
L 128.863221 102.775853 
L 128.905244 16.108328 
L 128.986289 84.947961 
L 129.130369 115.922051 
L 129.136372 115.996958 
L 129.280452 116.970751 
L 129.283453 116.895843 
L 129.301463 116.970751 
L 129.304465 117.008204 
L 129.373503 116.596215 
L 129.508578 115.584969 
L 129.514581 115.622423 
L 129.583619 115.135526 
L 129.586621 115.210433 
L 129.739705 114.01192 
L 129.742707 114.049373 
L 129.751712 114.01192 
L 129.94682 111.877067 
L 129.949821 111.914521 
L 130.012856 111.352717 
L 130.015858 111.352717 
L 130.34604 106.483755 
L 130.370053 53.337161 
L 130.394067 17.269388 
L 130.47211 80.490988 
L 130.619191 113.300302 
L 130.748262 114.01192 
L 130.751264 113.862106 
L 130.763271 113.787198 
L 131.093453 111.053089 
L 131.099456 111.015635 
L 131.273553 109.367679 
L 131.276554 109.405133 
L 131.333586 108.730969 
L 131.52269 106.783384 
L 131.528694 106.820837 
L 131.585725 106.184127 
L 131.660766 102.663493 
L 131.708793 17.643924 
L 131.792839 81.914223 
L 131.939921 111.727253 
L 131.942922 111.727253 
L 132.062989 112.925767 
L 132.074995 112.813406 
L 132.093005 112.925767 
L 132.171048 112.513778 
L 132.17405 112.588685 
L 132.369158 110.491286 
L 132.714348 104.798345 
L 132.801397 101.352618 
L 132.849423 18.879891 
L 132.939473 80.078999 
L 133.092557 108.95569 
L 133.143586 109.292772 
L 133.197615 108.880783 
L 133.812955 100.266465 
L 133.836969 65.771741 
L 133.869987 20.827476 
L 133.94803 65.659381 
L 134.11012 106.633569 
L 134.347251 109.817122 
L 134.371264 109.892029 
L 134.533353 110.603646 
L 134.536355 110.566193 
L 134.54536 110.603646 
L 134.629406 110.903275 
L 134.665426 110.828368 
L 134.68944 110.865821 
L 134.797499 110.528739 
L 134.800501 110.603646 
L 134.893552 110.229111 
L 134.896554 110.304018 
L 135.025625 109.742215 
L 135.028627 109.779668 
L 135.049639 109.704761 
L 135.169705 109.217865 
L 135.175708 109.292772 
L 135.181712 109.255318 
L 135.325791 108.356433 
L 135.328793 108.468794 
L 135.421844 107.832083 
L 135.430849 107.832083 
L 135.562922 107.008105 
L 135.965144 100.715908 
L 136.016172 17.943552 
L 136.103221 80.341174 
L 136.253303 110.528739 
L 136.412391 112.476324 
L 136.415393 112.43887 
L 136.454415 112.626138 
L 136.526454 112.476324 
L 136.565476 112.551231 
L 136.664531 112.101788 
L 136.667532 112.139242 
L 136.742574 111.727253 
L 136.745575 111.727253 
L 136.757582 111.689799 
L 136.913668 110.566193 
L 136.919672 110.566193 
L 137.051745 109.742215 
L 137.318892 107.79463 
L 137.339904 107.757176 
L 137.486985 106.858291 
L 137.736123 105.023067 
L 137.739124 105.06052 
L 137.742126 105.097974 
L 137.805161 104.53617 
L 138.078312 100.303919 
L 138.105327 52.06374 
L 138.132341 17.868645 
L 138.207383 73.524627 
L 138.360468 110.079297 
L 138.558577 112.401417 
L 138.561579 112.32651 
L 138.585592 112.401417 
L 138.624613 112.214149 
L 138.666637 112.251603 
L 138.69065 112.176696 
L 138.819721 111.689799 
L 138.828726 111.764706 
L 138.900766 111.352717 
L 138.918776 111.390171 
L 139.050849 110.603646 
L 139.263967 109.330225 
L 139.272972 109.292772 
L 139.420053 107.944444 
L 139.774249 104.873252 
L 139.77725 104.910706 
L 139.834282 104.273996 
L 139.837283 104.273996 
L 139.846288 104.199088 
L 140.035393 100.453733 
L 140.059406 65.02267 
L 140.089423 18.430448 
L 140.164464 72.026485 
L 140.314547 109.5924 
L 140.584696 111.652346 
L 140.587698 111.614892 
L 140.608709 111.539985 
L 140.764796 110.940728 
L 140.767797 110.978182 
L 140.842839 110.566193 
L 140.851844 110.603646 
L 141.06196 109.217865 
L 141.07997 109.142958 
L 141.392142 106.633569 
L 141.404149 106.558662 
L 141.773353 103.300203 
L 141.779356 103.337657 
L 141.839389 102.775853 
L 142.085525 98.84323 
L 142.109539 65.434659 
L 142.142557 18.168273 
L 142.217598 70.827971 
L 142.370683 109.217865 
L 142.523767 111.053089 
L 142.529771 111.015635 
L 142.625824 111.16545 
L 142.550782 110.978182 
L 142.646835 111.090542 
L 142.784912 110.416378 
L 142.790915 110.491286 
L 142.859953 110.079297 
L 142.868958 110.079297 
L 143.016039 109.180411 
L 143.019041 109.217865 
L 143.079074 108.656061 
L 143.085077 108.656061 
L 143.103087 108.581154 
L 143.331213 107.008105 
L 143.337217 107.045559 
L 143.34322 107.008105 
L 143.466288 106.259034 
L 143.478295 106.296487 
L 143.532325 105.734684 
L 143.535326 105.734684 
L 143.544331 105.697231 
L 143.715426 104.161635 
L 143.727432 104.124181 
L 143.883519 102.963121 
L 143.90453 102.888214 
L 144.198693 98.281427 
L 144.240716 24.34811 
L 144.255724 18.168273 
L 144.312756 55.659282 
L 144.48385 108.506247 
L 144.633933 110.304018 
L 144.639936 110.229111 
L 144.71798 110.453832 
L 144.753999 110.266564 
L 144.772009 110.229111 
L 144.904082 109.629854 
L 144.907084 109.667307 
L 144.967117 109.217865 
L 144.982125 109.217865 
L 144.99113 109.180411 
L 145.132208 108.393887 
L 145.138212 108.318979 
L 145.327316 107.27028 
L 145.330318 107.307733 
L 145.351329 107.232826 
L 145.489406 106.184127 
L 145.849605 103.075482 
L 145.867615 103.000575 
L 146.008693 102.21405 
L 146.020699 102.139143 
L 146.245824 98.281427 
L 146.284845 29.853783 
L 146.302855 18.430448 
L 146.368892 61.614397 
L 146.530981 107.569908 
L 146.723087 109.5924 
L 146.753104 109.667307 
L 146.852158 109.330225 
L 146.85516 109.367679 
L 146.936205 109.105504 
L 146.94521 109.105504 
L 147.119306 108.244072 
L 146.957217 109.142958 
L 147.122308 108.281526 
L 147.125309 108.318979 
L 147.200351 107.869537 
L 147.203352 107.90699 
L 147.473502 105.809591 
L 147.476503 105.884498 
L 147.491512 105.809591 
L 147.737648 104.124181 
L 147.740649 104.161635 
L 147.812689 103.674739 
L 147.983784 102.176596 
L 148.343983 96.558563 
L 148.370998 59.105009 
L 148.404016 18.280634 
L 148.476056 66.970255 
L 148.635143 107.607362 
L 148.863269 109.48004 
L 148.890284 109.442586 
L 149.076387 108.506247 
L 149.088394 108.468794 
L 149.22647 107.79463 
L 149.24448 107.757176 
L 149.403568 106.558662 
L 149.412573 106.521209 
L 149.586669 104.910706 
L 149.589671 104.910706 
L 149.718742 104.161635 
L 149.727747 104.086728 
L 150.027913 101.652247 
L 150.030914 101.6897 
L 150.033916 101.6897 
L 150.190002 100.00429 
L 150.301064 95.809492 
L 150.358095 18.65517 
L 150.43914 75.472212 
L 150.589223 106.333941 
L 150.733303 107.869537 
L 150.739306 107.832083 
L 150.814347 107.90699 
L 150.844364 107.757176 
L 150.87438 107.832083 
L 150.979438 107.420094 
L 151.027465 107.495001 
L 151.060483 107.157919 
L 151.066487 107.157919 
L 151.258593 106.146673 
L 151.276603 106.071766 
L 151.591777 103.524924 
L 151.59778 103.487471 
L 151.786885 101.539886 
L 152.192108 97.794531 
L 152.19511 97.831984 
L 152.201113 97.757077 
L 152.306171 95.322596 
L 152.324181 82.888016 
L 152.372208 18.355541 
L 152.444248 65.472113 
L 152.603336 105.921952 
L 152.765425 107.981897 
L 152.795442 108.094258 
L 152.879488 107.90699 
L 153.038576 107.27028 
L 153.041578 107.307733 
L 153.101611 106.858291 
L 153.110616 106.858291 
L 153.119621 106.895744 
L 153.251694 106.034313 
L 153.272705 106.146673 
L 153.332738 105.659777 
L 153.807 101.05299 
L 153.810002 101.090443 
L 153.819007 101.015536 
L 154.242241 94.610978 
L 154.278261 37.868843 
L 154.302274 18.617716 
L 154.371312 62.513282 
L 154.533402 104.685985 
L 154.7105 106.558662 
L 154.716503 106.521209 
L 154.758526 106.596116 
L 154.761528 106.633569 
L 154.767531 106.483755 
L 154.854579 106.483755 
L 154.992655 105.58487 
L 154.998659 105.659777 
L 155.010665 105.622324 
L 155.169753 104.42381 
L 155.529952 101.277711 
L 155.532954 101.315165 
L 155.586984 100.641001 
L 155.7971 98.169066 
L 155.806105 98.131613 
L 156.004214 91.839415 
L 156.061246 18.842437 
L 156.142291 67.344791 
L 156.301378 104.648531 
L 156.451461 106.783384 
L 156.457465 106.708477 
L 156.541511 106.970651 
L 156.556519 106.933198 
L 156.583534 107.008105 
L 156.640566 106.708477 
L 156.646569 106.708477 
L 156.850682 105.509963 
L 156.856685 105.547416 
L 156.907713 105.06052 
L 156.91972 105.06052 
L 157.090815 103.562378 
L 157.093816 103.637285 
L 157.177863 103.075482 
L 157.180864 103.075482 
L 157.357962 101.427525 
L 157.808211 97.045459 
L 157.814214 97.120367 
L 157.823219 97.045459 
L 157.958294 96.408749 
L 157.9703 96.333842 
L 158.189421 89.479841 
L 158.246453 18.879891 
L 158.324496 67.344791 
L 158.480582 103.150389 
L 158.669687 105.135427 
L 158.681693 105.06052 
L 158.741727 105.360149 
L 158.762738 105.360149 
L 158.774745 105.435056 
L 158.822771 105.247788 
L 158.864794 105.247788 
L 159.11093 103.37511 
L 159.119935 103.412564 
L 159.122937 103.450017 
L 159.18297 102.85076 
L 159.185972 102.85076 
L 159.194977 102.85076 
L 159.342058 101.390072 
L 159.348061 101.427525 
L 159.405093 100.865722 
L 159.408095 100.865722 
L 159.573186 99.405033 
L 159.576187 99.442487 
L 160.059454 92.438672 
L 160.086469 61.65185 
L 160.125491 18.205727 
L 160.197531 60.003894 
L 160.362622 103.038028 
L 160.509703 105.247788 
L 160.515706 105.210334 
L 160.536718 105.172881 
L 160.581743 105.435056 
L 160.623766 105.247788 
L 160.668791 105.172881 
L 160.833882 104.386356 
L 160.839886 104.42381 
L 160.845889 104.348903 
L 161.040997 103.300203 
L 161.053003 103.225296 
L 161.380184 100.52864 
L 161.395192 100.491187 
L 161.581295 98.468695 
L 161.584297 98.543602 
L 161.599305 98.543602 
L 161.746386 96.745831 
L 161.755391 96.708378 
L 161.986519 88.243874 
L 162.043551 18.205727 
L 162.121594 64.236146 
L 162.283683 102.513678 
L 162.439769 104.348903 
L 162.442771 104.311449 
L 162.520814 104.461263 
L 162.556834 104.386356 
L 162.571842 104.42381 
L 162.700914 103.974367 
L 162.718924 103.89946 
L 162.992074 101.876968 
L 163.016088 101.802061 
L 163.157166 100.641001 
L 163.163169 100.678454 
L 163.220201 100.116651 
L 163.226204 100.116651 
L 163.235209 100.041744 
L 163.571395 97.120367 
L 163.577398 97.15782 
L 163.592406 97.082913 
L 164.018642 90.378727 
L 164.045657 62.438375 
L 164.084678 18.280634 
L 164.156718 57.943948 
L 164.330814 101.914422 
L 164.564943 103.974367 
L 164.597962 103.862006 
L 164.799073 102.663493 
L 164.802074 102.700946 
L 164.808078 102.7384 
L 164.877116 102.288957 
L 164.880117 102.326411 
L 165.108243 100.865722 
L 165.126253 100.903176 
L 165.189288 100.491187 
L 165.201295 100.453733 
L 165.375391 98.84323 
L 165.384396 98.805777 
L 165.570499 96.933099 
L 165.573501 96.970552 
L 165.624529 96.333842 
L 165.62753 96.371296 
L 165.759603 94.8357 
L 165.777613 94.910607 
L 165.816635 95.022968 
L 165.993733 90.94053 
L 166.014744 75.921655 
L 166.062771 18.505355 
L 166.137812 58.917741 
L 166.305905 100.978083 
L 166.480001 103.075482 
L 166.573053 102.925668 
L 166.714131 102.101689 
L 166.750151 102.139143 
L 166.795175 101.802061 
L 166.80418 101.839514 
L 166.819189 101.802061 
L 166.981278 100.491187 
L 166.98428 100.566094 
L 167.068326 100.041744 
L 167.07433 100.079197 
L 167.251427 98.393787 
L 167.260432 98.356334 
L 167.443534 96.408749 
L 167.446535 96.483656 
L 167.794728 90.790716 
L 167.812738 82.288759 
L 167.869769 18.617716 
L 167.94481 57.719227 
L 168.115905 101.090443 
L 168.302008 102.963121 
L 168.410067 102.663493 
L 168.422074 102.700946 
L 168.449089 102.775853 
L 168.512124 102.476225 
L 168.518127 102.513678 
L 168.530134 102.476225 
L 168.66821 101.390072 
L 168.674213 101.352618 
L 168.860316 99.442487 
L 168.869321 99.36758 
L 169.022406 98.31888 
L 169.043417 98.243973 
L 169.505673 93.861907 
L 169.517679 93.787 
L 169.676767 91.951776 
L 169.757812 89.592202 
L 169.778824 80.19136 
L 169.832853 18.467902 
L 169.910897 56.033817 
L 170.090996 99.667208 
L 170.244081 101.839514 
L 170.35214 101.914422 
L 170.355142 101.951875 
L 170.433185 101.652247 
L 170.445192 101.727154 
L 170.583268 101.015536 
L 170.58627 101.05299 
L 170.646303 100.491187 
L 170.652306 100.491187 
L 170.958475 98.019252 
L 170.961477 98.056705 
L 171.018508 97.532356 
L 171.030515 97.569809 
L 171.21962 95.584771 
L 171.225623 95.547317 
L 171.390714 94.198989 
L 171.396717 94.236443 
L 171.456751 93.67464 
L 171.771925 88.393688 
L 171.792936 80.977885 
L 171.849968 19.142066 
L 171.928011 56.108724 
L 172.105109 98.169066 
L 172.243185 100.641001 
L 172.246187 100.52864 
L 172.327231 100.978083 
L 172.345241 100.978083 
L 172.39627 100.903176 
L 172.537347 100.416279 
L 172.402273 100.940629 
L 172.540349 100.491187 
L 172.555357 100.416279 
L 172.750465 99.36758 
L 172.768475 99.330126 
L 172.918558 98.094159 
L 172.927563 98.131613 
L 172.945573 98.056705 
L 173.353799 94.348804 
L 173.362803 94.273896 
L 173.713997 88.506049 
L 173.744014 82.738202 
L 173.804047 18.318088 
L 173.88209 55.696735 
L 174.056187 99.142859 
L 174.287314 100.790815 
L 174.296319 100.753361 
L 174.353351 100.678454 
L 174.55146 99.592301 
L 174.566468 99.517394 
L 174.722555 98.393787 
L 174.728558 98.31888 
L 175.448956 90.678355 
L 175.451958 90.715809 
L 175.502986 89.966738 
L 175.72811 83.262551 
L 175.794147 18.65517 
L 175.875191 55.359653 
L 176.058293 98.20652 
L 176.211377 100.191558 
L 176.220382 100.116651 
L 176.337447 100.341372 
L 176.346452 100.303919 
L 176.514545 99.554848 
L 176.517546 99.592301 
L 176.592588 99.180312 
L 176.874744 97.045459 
L 176.883749 97.008006 
L 177.039835 95.697132 
L 177.042836 95.734585 
L 177.045838 95.772039 
L 177.111875 95.247689 
L 177.586137 87.944246 
L 177.616153 83.861808 
L 177.68219 18.392995 
L 177.760233 55.209839 
L 177.940332 97.195274 
L 178.09942 99.067951 
L 178.102422 98.955591 
L 178.156452 99.217766 
L 178.210481 99.067951 
L 178.393583 98.131613 
L 178.399586 98.169066 
L 178.462621 97.68217 
L 178.465622 97.68217 
L 178.675738 96.408749 
L 178.67874 96.483656 
L 178.765788 95.884399 
L 179.044942 93.749547 
L 179.047944 93.787 
L 179.110979 93.187743 
L 179.645274 85.24759 
L 179.675291 60.415883 
L 179.720315 18.65517 
L 179.792355 49.329631 
L 179.98146 97.082913 
L 180.182571 99.36758 
L 180.266617 99.330126 
L 180.39869 98.693416 
L 180.401692 98.730869 
L 180.641825 97.120367 
L 180.644826 97.195274 
L 180.719868 96.558563 
L 180.725871 96.558563 
L 180.875954 95.584771 
L 181.344213 91.127798 
L 181.353218 91.052891 
L 181.431261 90.341273 
L 181.506302 90.491087 
L 181.509304 90.528541 
L 181.584345 90.228913 
L 181.599354 90.266366 
L 181.608358 90.30382 
L 181.824478 88.768224 
L 181.82748 88.843131 
L 181.902521 88.09406 
L 181.908524 88.09406 
L 181.920531 88.056606 
L 182.115639 81.614595 
L 182.184677 18.692623 
L 182.265722 56.333446 
L 182.439818 94.723339 
L 182.643931 97.082913 
L 182.685954 97.045459 
L 182.71597 97.232727 
L 182.739984 97.232727 
L 182.760995 97.345088 
L 182.827032 97.008006 
L 182.833035 97.008006 
L 183.058159 95.547317 
L 183.061161 95.584771 
L 183.115191 95.022968 
L 183.124196 95.022968 
L 183.484395 91.914323 
L 183.496401 91.839415 
L 183.526418 91.427426 
L 183.655489 115.884597 
L 183.919635 125.435254 
L 184.093731 127.794828 
L 184.111741 127.869735 
L 184.408906 130.304216 
L 184.414909 130.266762 
L 184.43592 130.34167 
L 184.610017 131.390369 
L 184.628027 131.352916 
L 184.643035 131.427823 
L 184.775108 132.02708 
L 184.77811 131.989626 
L 184.853151 132.289254 
L 184.865158 132.289254 
L 185.030249 132.963418 
L 185.05126 133.038325 
L 185.06927 132.963418 
L 185.17733 133.263047 
L 185.198342 133.18814 
L 185.23136 133.450315 
L 185.273383 133.450315 
L 185.312405 133.525222 
L 185.420464 133.787397 
L 185.327413 133.487768 
L 185.441476 133.749943 
L 185.483499 133.787397 
L 185.600564 134.012118 
L 185.642587 133.974664 
L 185.690614 134.199386 
L 185.699619 134.087025 
L 185.816683 134.424107 
L 185.822687 134.386653 
L 185.876716 134.461561 
L 185.999784 134.648828 
L 186.008789 134.573921 
L 186.065821 134.798643 
L 186.107844 134.648828 
L 186.22791 134.836096 
L 186.230912 134.798643 
L 186.233914 134.686282 
L 186.320962 134.87355 
L 186.341973 134.798643 
L 186.417015 134.836096 
L 186.486053 134.948457 
L 186.528076 134.911003 
L 186.555091 134.836096 
L 186.552089 134.948457 
L 186.636136 134.911003 
L 186.744196 135.060817 
L 186.753201 135.023364 
L 186.82524 134.948457 
L 186.768209 135.060817 
L 186.86126 135.023364 
L 186.885274 134.948457 
L 186.975323 135.173178 
L 186.993333 135.060817 
L 187.050365 135.248085 
L 187.089386 135.135725 
L 187.146418 135.173178 
L 187.257479 135.285539 
L 187.260481 135.248085 
L 187.350531 135.285539 
L 187.272487 135.173178 
L 187.368541 135.210632 
L 187.569652 135.285539 
L 187.614676 135.173178 
L 187.686716 135.360446 
L 187.746749 135.435353 
L 187.854809 135.547714 
L 187.785771 135.397899 
L 187.860812 135.472807 
L 188.013897 135.472807 
L 188.082935 135.697528 
L 188.12796 135.622621 
L 188.157977 135.734981 
L 188.172985 135.585167 
L 188.239021 135.622621 
L 188.335074 135.547714 
L 188.30806 135.734981 
L 188.347081 135.622621 
L 188.398109 135.660074 
L 188.434129 135.51026 
L 188.452139 135.547714 
L 188.68927 135.51026 
L 188.800331 135.397899 
L 188.803333 135.435353 
L 188.88738 135.285539 
L 188.821343 135.472807 
L 188.923399 135.322992 
L 188.980431 135.435353 
L 188.938408 135.285539 
L 189.034461 135.322992 
L 189.049469 135.397899 
L 189.148524 135.547714 
L 189.079486 135.322992 
L 189.166534 135.472807 
L 189.271592 135.397899 
L 189.235572 135.585167 
L 189.280597 135.435353 
L 189.337628 135.472807 
L 189.400663 135.585167 
L 189.44869 135.51026 
L 189.571758 135.435353 
L 189.682819 135.285539 
L 189.604776 135.51026 
L 189.685821 135.322992 
L 189.697827 135.435353 
L 189.73985 135.285539 
L 189.79388 135.322992 
L 189.880928 135.285539 
L 189.886932 135.397899 
L 189.90194 135.360446 
L 189.928955 135.397899 
L 189.93796 135.322992 
L 190.043018 135.472807 
L 190.118059 135.397899 
L 190.145074 135.585167 
L 190.148076 135.51026 
L 190.184096 135.585167 
L 190.208109 135.435353 
L 190.262139 135.547714 
L 190.379204 135.435353 
L 190.400215 135.51026 
L 190.460248 135.322992 
L 190.487263 135.397899 
L 190.511277 135.472807 
L 190.529287 135.397899 
L 190.631343 135.622621 
L 190.739403 135.472807 
L 190.748408 135.51026 
L 190.862471 135.622621 
L 190.766418 135.472807 
L 190.865472 135.585167 
L 190.943515 135.547714 
L 191.030563 135.435353 
L 191.054577 135.547714 
L 191.072587 135.585167 
L 191.18665 135.360446 
L 191.228673 135.472807 
L 191.264693 135.322992 
L 191.297711 135.435353 
L 191.312719 135.285539 
L 191.414776 135.360446 
L 191.465804 135.51026 
L 191.492819 135.322992 
L 191.525837 135.397899 
L 191.543847 135.248085 
L 191.642902 135.322992 
L 191.696932 135.397899 
L 191.699933 135.435353 
L 191.738955 135.285539 
L 191.798988 135.322992 
L 191.871028 135.248085 
L 191.898043 135.397899 
L 191.907048 135.360446 
L 192.303267 135.435353 
L 192.30927 135.51026 
L 192.318275 135.397899 
L 192.414328 135.472807 
L 192.41733 135.360446 
L 192.450348 135.51026 
L 192.525389 135.397899 
L 192.606434 135.472807 
L 192.549403 135.322992 
L 192.636451 135.397899 
L 192.702487 135.248085 
L 192.747512 135.322992 
L 192.79854 135.360446 
L 192.837562 135.210632 
L 192.855572 135.285539 
L 192.936616 135.098271 
L 192.972636 135.210632 
L 193.023665 135.210632 
L 193.095704 135.098271 
L 193.044676 135.248085 
L 193.134726 135.210632 
L 193.167744 135.135725 
L 193.203764 135.285539 
L 193.248789 135.173178 
L 193.344842 135.248085 
L 193.347844 135.285539 
L 193.350845 135.135725 
L 193.452902 135.210632 
L 193.551956 135.135725 
L 193.494925 135.285539 
L 193.560961 135.210632 
L 193.660016 135.285539 
L 193.608988 135.173178 
L 193.672023 135.248085 
L 193.750066 135.210632 
L 193.759071 135.248085 
L 193.864129 135.135725 
L 193.954179 135.173178 
L 193.95718 135.023364 
L 194.06524 135.135725 
L 194.248341 135.060817 
L 194.326384 134.98591 
L 194.272354 135.173178 
L 194.362404 135.023364 
L 194.425439 134.98591 
L 194.530497 135.023364 
L 194.539502 134.911003 
L 194.665572 134.911003 
L 194.722603 134.798643 
L 194.731608 134.948457 
L 194.776633 134.911003 
L 194.911708 134.98591 
L 194.980746 135.023364 
L 194.917711 134.911003 
L 195.016766 134.948457 
L 195.040779 134.87355 
L 195.103814 135.060817 
L 195.130829 134.911003 
L 195.238888 135.023364 
L 195.145837 134.87355 
L 195.244892 134.98591 
L 195.27791 135.023364 
L 195.307926 134.911003 
L 195.34995 134.911003 
L 195.421989 134.836096 
L 195.506036 134.761189 
L 195.455008 134.948457 
L 195.533051 134.836096 
L 195.608092 134.87355 
L 195.566069 134.723735 
L 195.635107 134.723735 
L 195.686135 134.648828 
L 195.710149 134.798643 
L 195.746168 134.723735 
L 195.800198 134.798643 
L 195.87524 134.836096 
L 195.812205 134.723735 
L 195.908258 134.761189 
L 196.262454 134.686282 
L 196.358507 134.573921 
L 196.280464 134.761189 
L 196.379518 134.611375 
L 196.41854 134.573921 
L 196.493581 134.723735 
L 196.598639 134.536468 
L 196.607644 134.611375 
L 196.622653 134.611375 
L 196.700696 134.723735 
L 196.643664 134.536468 
L 196.733714 134.686282 
L 196.757727 134.611375 
L 196.847777 134.536468 
L 196.763731 134.648828 
L 196.868789 134.611375 
L 197.144941 134.686282 
L 197.183963 134.798643 
L 197.246998 134.611375 
L 197.256003 134.723735 
L 197.310032 134.573921 
L 197.370066 134.686282 
L 197.457114 134.723735 
L 197.376069 134.648828 
L 197.478125 134.648828 
L 197.637213 134.573921 
L 197.646218 134.648828 
L 197.766284 134.3492 
L 197.892354 134.536468 
L 197.99441 134.461561 
L 197.925372 134.611375 
L 198.003415 134.499014 
L 198.06645 134.573921 
L 198.090464 134.424107 
L 198.111475 134.461561 
L 198.180513 134.424107 
L 198.186517 134.573921 
L 198.222536 134.461561 
L 198.31859 134.536468 
L 198.336599 134.499014 
L 198.369618 134.536468 
L 198.456666 134.386653 
L 198.594742 134.461561 
L 198.597744 134.499014 
L 198.672785 134.311746 
L 198.693797 134.3492 
L 198.801857 134.274293 
L 198.75383 134.424107 
L 198.804858 134.311746 
L 198.822868 134.274293 
L 198.918921 134.3492 
L 199.020978 134.311746 
L 198.957943 134.461561 
L 199.026981 134.386653 
L 199.120032 134.311746 
L 199.144046 134.274293 
L 199.213084 134.461561 
L 199.222089 134.424107 
L 199.678341 134.461561 
L 199.681342 134.536468 
L 199.76839 134.3492 
L 199.7864 134.386653 
L 199.909468 134.424107 
L 199.933482 134.573921 
L 199.9665 134.386653 
L 200.02053 134.461561 
L 200.158606 134.499014 
L 200.161608 134.573921 
L 200.167611 134.386653 
L 200.263664 134.386653 
L 200.359717 134.3492 
L 200.434759 134.236839 
L 200.377727 134.424107 
L 200.47378 134.274293 
L 200.500795 134.311746 
L 200.530812 134.236839 
L 200.614858 134.386653 
L 200.67189 134.274293 
L 200.725919 134.386653 
L 200.740928 134.311746 
L 200.755936 134.461561 
L 200.839982 134.3492 
L 200.866997 134.386653 
L 200.951044 134.199386 
L 200.897014 134.424107 
L 200.978059 134.311746 
L 201.077113 134.236839 
L 201.038092 134.3492 
L 201.086118 134.274293 
L 201.149153 134.424107 
L 201.098125 134.236839 
L 201.200181 134.3492 
L 201.275223 134.536468 
L 201.320248 134.461561 
L 201.368274 134.386653 
L 201.335256 134.499014 
L 201.431309 134.424107 
L 201.440314 134.386653 
L 201.545372 134.499014 
L 201.644427 134.424107 
L 201.581392 134.536468 
L 201.656433 134.499014 
L 201.701458 134.461561 
L 201.70446 134.386653 
L 201.782503 134.573921 
L 201.806516 134.499014 
L 201.917578 134.611375 
L 201.920579 134.573921 
L 202.19373 134.573921 
L 202.196732 134.461561 
L 202.259767 134.648828 
L 202.30179 134.611375 
L 202.400845 134.611375 
L 202.502901 134.723735 
L 202.511906 134.686282 
L 202.556931 134.536468 
L 202.619966 134.686282 
L 202.628971 134.761189 
L 202.698009 134.536468 
L 202.731027 134.723735 
L 202.842088 134.648828 
L 202.950148 134.723735 
L 202.851093 134.611375 
L 202.95315 134.648828 
L 203.187279 134.573921 
L 203.199286 134.648828 
L 203.304344 134.499014 
L 203.4064 134.573921 
L 203.328357 134.461561 
L 203.418407 134.536468 
L 203.610513 134.461561 
L 203.712569 134.3492 
L 203.619518 134.499014 
L 203.727578 134.386653 
L 203.823631 134.424107 
L 203.934692 134.536468 
L 203.991723 134.461561 
L 203.96771 134.573921 
L 204.042752 134.499014 
L 204.135803 134.686282 
L 204.156815 134.611375 
L 204.61907 134.686282 
L 204.715123 134.723735 
L 204.63708 134.573921 
L 204.724128 134.611375 
L 204.748141 134.648828 
L 204.751143 134.723735 
L 204.817179 134.499014 
L 204.853199 134.573921 
L 204.865206 134.611375 
L 204.970264 134.461561 
L 205.084327 134.761189 
L 205.093332 134.686282 
L 205.177378 134.611375 
L 205.105339 134.723735 
L 205.204393 134.686282 
L 205.312453 134.573921 
L 205.318456 134.611375 
L 205.333465 134.573921 
L 205.432519 134.686282 
L 205.531574 134.536468 
L 205.546582 134.611375 
L 205.86776 134.686282 
L 205.900778 134.648828 
L 205.978821 134.723735 
L 205.990828 134.761189 
L 206.095886 134.611375 
L 206.152917 134.723735 
L 206.176931 134.573921 
L 206.209949 134.686282 
L 206.24897 134.499014 
L 206.327014 134.573921 
L 206.390048 134.686282 
L 206.351027 134.536468 
L 206.441077 134.648828 
L 206.552138 134.499014 
L 206.55514 134.573921 
L 206.567146 134.536468 
L 206.570148 134.461561 
L 206.588158 134.611375 
L 206.678208 134.536468 
L 206.723232 134.424107 
L 206.792271 134.573921 
L 206.855305 134.536468 
L 206.888324 134.461561 
L 206.924344 134.611375 
L 206.963365 134.611375 
L 207.020397 134.536468 
L 207.050413 134.723735 
L 207.06242 134.723735 
L 207.170479 134.836096 
L 207.095438 134.611375 
L 207.176483 134.798643 
L 207.224509 134.686282 
L 207.188489 134.836096 
L 207.287544 134.798643 
L 207.338572 134.87355 
L 207.398606 134.761189 
L 207.518672 134.87355 
L 207.554692 134.798643 
L 207.668755 134.686282 
L 207.590712 134.87355 
L 207.671756 134.723735 
L 207.767809 134.798643 
L 207.770811 134.836096 
L 207.860861 134.648828 
L 207.872868 134.723735 
L 207.884874 134.648828 
L 207.911889 134.611375 
L 207.899882 134.723735 
L 207.992934 134.648828 
L 208.064974 134.798643 
L 208.103995 134.723735 
L 208.122005 134.611375 
L 208.158025 134.836096 
L 208.209053 134.798643 
L 208.266085 134.87355 
L 208.371143 134.948457 
L 208.377146 134.87355 
L 208.641292 134.798643 
L 208.725338 134.761189 
L 208.704327 134.911003 
L 208.74635 134.798643 
L 208.76436 134.948457 
L 208.8364 134.686282 
L 208.85441 134.798643 
L 208.956466 134.723735 
L 208.920446 134.87355 
L 208.962469 134.798643 
L 209.055521 134.98591 
L 209.079534 134.87355 
L 209.439733 134.87355 
L 209.475753 134.911003 
L 209.553796 134.761189 
L 209.655852 134.686282 
L 209.658854 134.648828 
L 209.718887 134.836096 
L 209.76091 134.761189 
L 209.895985 134.798643 
L 209.998041 134.911003 
L 210.007046 134.798643 
L 210.037063 134.87355 
L 210.145123 134.98591 
L 210.091093 134.761189 
L 210.151126 134.911003 
L 210.202154 134.98591 
L 210.307212 135.023364 
L 210.274194 134.87355 
L 210.313216 134.98591 
L 210.343232 134.911003 
L 210.400264 135.060817 
L 210.421275 134.948457 
L 210.481308 135.023364 
L 210.454294 134.87355 
L 210.532337 134.98591 
L 210.565355 134.948457 
L 210.661408 134.87355 
L 210.619385 135.060817 
L 210.676416 134.948457 
L 211.012602 134.948457 
L 211.072635 135.060817 
L 211.105653 134.911003 
L 211.120662 134.98591 
L 211.201706 134.87355 
L 211.147677 135.023364 
L 211.231723 134.948457 
L 211.264741 135.098271 
L 211.327776 134.87355 
L 211.342784 134.948457 
L 211.435836 134.836096 
L 211.378804 134.98591 
L 211.456847 134.911003 
L 211.546897 134.948457 
L 211.555902 134.836096 
L 211.561905 134.836096 
L 211.669965 134.761189 
L 211.705985 134.723735 
L 211.772021 134.87355 
L 211.775023 134.798643 
L 211.802038 134.87355 
L 211.82305 134.761189 
L 211.883083 134.798643 
L 211.982138 134.723735 
L 211.904094 134.836096 
L 211.997146 134.761189 
L 212.057179 134.836096 
L 212.108207 134.87355 
L 212.141225 134.686282 
L 212.165239 134.836096 
L 212.20426 134.686282 
L 212.18625 134.87355 
L 212.273298 134.836096 
L 212.360346 134.911003 
L 212.29431 134.798643 
L 212.38436 134.836096 
L 212.582469 134.87355 
L 212.627494 134.948457 
L 212.669517 134.761189 
L 212.693531 134.911003 
L 212.777577 134.723735 
L 212.813597 134.798643 
L 212.885637 134.836096 
L 212.888638 134.948457 
L 212.996698 134.87355 
L 213.026715 134.836096 
L 213.059733 134.948457 
L 213.140778 134.761189 
L 213.248837 134.948457 
L 213.257842 134.911003 
L 213.359899 134.98591 
L 213.299865 134.836096 
L 213.368904 134.911003 
L 213.449948 134.723735 
L 213.392917 134.948457 
L 213.485968 134.798643 
L 213.509982 134.836096 
L 213.570015 134.648828 
L 213.585023 134.723735 
L 213.684078 134.611375 
L 213.609036 134.798643 
L 213.699086 134.648828 
L 213.756118 134.836096 
L 213.813149 134.798643 
L 213.918207 134.648828 
L 213.843166 134.836096 
L 213.927212 134.761189 
L 213.957229 134.686282 
L 214.026267 134.611375 
L 214.053282 134.798643 
L 214.065288 134.723735 
L 214.101308 134.648828 
L 214.218373 134.499014 
L 214.326433 134.611375 
L 214.257394 134.461561 
L 214.329434 134.573921 
L 214.410479 134.424107 
L 214.443497 134.499014 
L 214.560562 134.424107 
L 214.668622 134.386653 
L 214.632602 134.536468 
L 214.671623 134.424107 
L 214.79169 134.536468 
L 214.827709 134.573921 
L 214.872734 134.686282 
L 214.836714 134.536468 
L 214.938771 134.611375 
L 215.013812 134.461561 
L 214.947776 134.648828 
L 215.052834 134.536468 
L 215.070844 134.461561 
L 215.169899 134.611375 
L 215.202917 134.573921 
L 215.268953 134.723735 
L 215.277958 134.611375 
L 215.295968 134.686282 
L 215.319981 134.499014 
L 215.392021 134.648828 
L 215.428041 134.573921 
L 215.461059 134.499014 
L 215.521093 134.723735 
L 215.533099 134.648828 
L 215.629152 134.836096 
L 215.560114 134.611375 
L 215.650164 134.761189 
L 215.656167 134.686282 
L 215.674177 134.836096 
L 215.755222 134.761189 
L 215.758224 134.87355 
L 215.863282 134.723735 
L 215.938323 134.798643 
L 215.95033 134.87355 
L 216.037378 134.686282 
L 216.043381 134.723735 
L 216.076399 134.723735 
L 216.184459 134.87355 
L 216.190462 134.836096 
L 216.304525 134.911003 
L 216.409583 135.023364 
L 216.319534 134.87355 
L 216.415587 134.98591 
L 216.478621 134.87355 
L 216.427593 135.023364 
L 216.526648 134.98591 
L 216.589683 134.911003 
L 216.532651 135.023364 
L 216.640711 134.948457 
L 216.781789 134.98591 
L 216.784791 135.060817 
L 216.787792 134.948457 
L 216.889849 134.948457 
L 216.907859 134.836096 
L 216.916864 134.98591 
L 217.00091 134.948457 
L 217.193016 135.023364 
L 217.196018 135.060817 
L 217.283066 134.87355 
L 217.298074 135.023364 
L 217.41814 134.798643 
L 217.517195 134.98591 
L 217.535205 134.948457 
L 217.718306 134.911003 
L 217.769335 134.836096 
L 217.76033 134.98591 
L 217.829368 134.911003 
L 217.835371 134.98591 
L 217.880396 134.836096 
L 217.937427 134.87355 
L 217.988456 134.87355 
L 217.991457 134.98591 
L 218.009467 134.836096 
L 218.096515 134.911003 
L 218.111524 134.798643 
L 218.138538 134.948457 
L 218.207577 134.911003 
L 218.291623 134.836096 
L 218.387676 134.723735 
L 218.327643 134.911003 
L 218.408688 134.761189 
L 218.447709 134.836096 
L 218.489732 134.686282 
L 218.516747 134.761189 
L 218.555769 134.611375 
L 218.522751 134.798643 
L 218.627809 134.761189 
L 218.63081 134.798643 
L 218.633812 134.648828 
L 218.735868 134.723735 
L 218.921971 134.761189 
L 219.024028 134.911003 
L 218.93698 134.723735 
L 219.036034 134.836096 
L 219.105072 134.948457 
L 219.150097 134.87355 
L 219.159102 134.948457 
L 219.276167 135.135725 
L 219.177112 134.87355 
L 219.279169 135.098271 
L 219.288174 135.060817 
L 219.369218 135.210632 
L 219.381225 135.135725 
L 219.432253 135.285539 
L 219.405238 135.098271 
L 219.492286 135.135725 
L 219.5163 135.173178 
L 219.558323 135.023364 
L 219.600346 135.098271 
L 219.948538 135.135725 
L 219.95154 135.210632 
L 219.993563 135.060817 
L 220.0596 135.135725 
L 220.07761 135.248085 
L 220.149649 135.060817 
L 220.167659 135.098271 
L 220.572883 135.023364 
L 220.686946 134.911003 
L 220.581888 135.060817 
L 220.689948 134.948457 
L 220.701955 134.911003 
L 220.807013 135.098271 
L 220.819019 134.98591 
L 220.909069 135.173178 
L 220.915072 135.135725 
L 221.035139 135.210632 
L 221.068157 135.285539 
L 221.113182 135.135725 
L 221.1462 135.210632 
L 221.149202 135.173178 
L 221.167212 135.322992 
L 221.251258 135.285539 
L 221.341308 135.248085 
L 221.425354 135.173178 
L 221.365321 135.322992 
L 221.452369 135.248085 
L 221.569434 135.173178 
L 221.572435 135.135725 
L 221.602452 135.285539 
L 221.677493 135.210632 
L 221.770545 135.248085 
L 221.728522 135.135725 
L 221.785553 135.210632 
L 221.875603 135.098271 
L 221.899616 135.173178 
L 222.082717 135.248085 
L 222.163762 135.322992 
L 222.130744 135.098271 
L 222.190777 135.248085 
L 222.298837 135.135725 
L 222.30484 135.173178 
L 222.4129 135.248085 
L 222.328853 135.060817 
L 222.418903 135.210632 
L 222.517958 135.023364 
L 222.532966 135.098271 
L 222.550976 135.135725 
L 222.577991 134.948457 
L 222.638024 135.023364 
L 222.767095 134.98591 
L 222.845138 134.911003 
L 222.875155 135.060817 
L 222.968206 134.87355 
L 222.995221 134.948457 
L 223.067261 135.023364 
L 223.166316 135.060817 
L 223.094276 134.948457 
L 223.172319 134.98591 
L 223.187328 135.060817 
L 223.286382 134.911003 
L 223.397444 134.98591 
L 223.340412 134.798643 
L 223.400445 134.948457 
L 223.439467 134.98591 
L 223.53552 135.098271 
L 223.4995 134.948457 
L 223.550528 135.060817 
L 223.631573 134.98591 
L 223.649583 135.173178 
L 223.658588 135.098271 
L 223.679599 134.98591 
L 223.772651 135.135725 
L 223.883712 135.023364 
L 223.886714 135.098271 
L 223.89872 135.060817 
L 223.976764 134.948457 
L 223.919732 135.098271 
L 224.00678 135.060817 
L 224.090827 135.248085 
L 224.015785 135.023364 
L 224.120843 135.135725 
L 224.20489 135.060817 
L 224.276929 134.948457 
L 224.213895 135.098271 
L 224.315951 135.060817 
L 224.526067 134.98591 
L 224.592104 134.836096 
L 224.53207 135.060817 
L 224.637128 134.948457 
L 224.649135 135.023364 
L 224.685155 134.87355 
L 224.745188 134.948457 
L 224.826233 134.87355 
L 224.787211 134.98591 
L 224.856249 134.948457 
L 224.859251 135.023364 
L 224.868256 134.836096 
L 224.964309 134.911003 
L 225.048356 134.723735 
L 225.078372 134.836096 
L 225.16542 134.98591 
L 225.192435 134.911003 
L 225.261473 134.948457 
L 225.264475 135.023364 
L 225.297493 134.836096 
L 225.369533 134.948457 
L 225.384541 134.98591 
L 225.489599 134.836096 
L 225.606664 134.98591 
L 225.648687 135.023364 
L 225.720727 134.911003 
L 225.795768 135.023364 
L 225.83479 134.948457 
L 225.840793 134.98591 
L 225.843795 134.836096 
L 225.879815 135.023364 
L 225.951855 134.948457 
L 225.954856 134.911003 
L 226.041904 135.098271 
L 226.053911 135.023364 
L 226.173977 135.135725 
L 226.279035 135.098271 
L 226.203994 135.248085 
L 226.285039 135.135725 
L 226.375088 135.210632 
L 226.37809 135.248085 
L 226.471142 135.023364 
L 226.477145 135.098271 
L 226.564193 134.98591 
L 226.483148 135.135725 
L 226.591208 135.023364 
L 226.627228 135.173178 
L 226.597211 134.98591 
L 226.702269 135.060817 
L 226.723281 135.135725 
L 226.816332 134.98591 
L 226.918389 135.060817 
L 226.831341 134.911003 
L 226.927394 134.98591 
L 227.008438 134.911003 
L 226.942402 135.023364 
L 227.032452 134.98591 
L 227.095486 135.098271 
L 227.122501 134.948457 
L 227.143513 135.023364 
L 227.290594 134.98591 
L 227.380644 134.87355 
L 227.323612 135.023364 
L 227.401656 134.911003 
L 227.431672 134.98591 
L 227.50071 134.798643 
L 227.509715 134.87355 
L 227.743845 134.948457 
L 227.764856 134.836096 
L 227.860909 135.023364 
L 228.071025 135.060817 
L 228.182087 135.248085 
L 228.128057 135.023364 
L 228.185088 135.210632 
L 228.227112 135.098271 
L 228.26013 135.248085 
L 228.293148 135.248085 
L 228.380196 135.360446 
L 228.320163 135.135725 
L 228.407211 135.322992 
L 228.434226 135.248085 
L 228.494259 135.435353 
L 228.506266 135.435353 
L 228.515271 135.472807 
L 228.533281 135.322992 
L 228.617327 135.435353 
L 228.725387 135.285539 
L 228.73139 135.360446 
L 228.818438 135.285539 
L 228.764408 135.435353 
L 228.842452 135.322992 
L 228.953513 135.585167 
L 228.968521 135.547714 
L 229.004541 135.472807 
L 229.013546 135.622621 
L 229.076581 135.585167 
L 229.190644 135.697528 
L 229.109599 135.51026 
L 229.193646 135.660074 
L 229.298704 135.660074 
L 229.32872 135.547714 
L 229.409765 135.660074 
L 229.484806 135.585167 
L 229.49081 135.697528 
L 229.595868 135.547714 
L 229.643894 135.660074 
L 229.661904 135.51026 
L 229.700926 135.547714 
L 229.784972 135.585167 
L 229.814989 135.435353 
L 230.157178 135.472807 
L 230.259234 135.585167 
L 230.217211 135.435353 
L 230.268239 135.472807 
L 230.286249 135.547714 
L 230.346282 135.360446 
L 230.376299 135.472807 
L 230.385304 135.322992 
L 230.493364 135.397899 
L 230.502368 135.360446 
L 230.61343 135.51026 
L 230.673463 135.360446 
L 230.724491 135.397899 
L 230.841556 135.51026 
L 230.928604 135.435353 
L 230.853562 135.547714 
L 230.952617 135.472807 
L 231.069682 135.697528 
L 231.117708 135.622621 
L 231.123712 135.472807 
L 231.150727 135.697528 
L 231.22877 135.585167 
L 231.315818 135.51026 
L 231.342833 135.622621 
L 231.414873 135.585167 
L 231.516929 135.472807 
L 231.447891 135.622621 
L 231.528936 135.51026 
L 231.579964 135.397899 
L 231.62799 135.585167 
L 231.642999 135.472807 
L 231.796083 135.51026 
L 231.799085 135.322992 
L 231.907145 135.51026 
L 231.976183 135.585167 
L 232.024209 135.397899 
L 232.129267 135.547714 
L 232.138272 135.51026 
L 232.1893 135.585167 
L 232.252335 135.472807 
L 232.270345 135.585167 
L 232.300362 135.435353 
L 232.366398 135.547714 
L 232.42343 135.472807 
L 232.471456 135.51026 
L 232.540494 135.360446 
L 232.636547 135.435353 
L 232.573513 135.322992 
L 232.651556 135.397899 
L 232.759615 135.248085 
L 232.76862 135.322992 
L 232.864673 135.360446 
L 232.828654 135.248085 
L 232.873678 135.248085 
L 232.882683 135.322992 
L 232.94872 135.360446 
L 232.924707 135.248085 
L 232.990743 135.285539 
L 233.008753 135.210632 
L 233.071788 135.397899 
L 233.089798 135.397899 
L 233.176846 135.435353 
L 233.119814 135.285539 
L 233.197858 135.360446 
L 233.206862 135.397899 
L 233.209864 135.472807 
L 233.242882 135.360446 
L 233.317924 135.397899 
L 233.413977 135.322992 
L 233.480013 135.248085 
L 233.425984 135.360446 
L 233.522037 135.322992 
L 233.525038 135.397899 
L 233.52804 135.210632 
L 233.630096 135.322992 
L 233.741158 135.173178 
L 233.750163 135.210632 
L 233.852219 135.285539 
L 233.843214 135.173178 
L 233.864226 135.248085 
L 234.083347 135.322992 
L 234.176398 135.360446 
L 234.098355 135.210632 
L 234.194408 135.322992 
L 234.296464 135.210632 
L 234.227426 135.360446 
L 234.305469 135.322992 
L 234.311473 135.360446 
L 234.341489 135.173178 
L 234.407526 135.248085 
L 234.512584 135.098271 
L 234.485569 135.285539 
L 234.52459 135.173178 
L 234.63265 135.248085 
L 234.551605 135.098271 
L 234.635652 135.210632 
L 234.728703 135.098271 
L 234.653662 135.248085 
L 234.746713 135.210632 
L 234.773728 135.173178 
L 234.764723 135.322992 
L 234.854773 135.248085 
L 234.869781 135.397899 
L 234.899798 135.210632 
L 234.971837 135.360446 
L 235.064889 135.173178 
L 235.085901 135.285539 
L 235.109914 135.248085 
L 235.13993 135.173178 
L 235.17595 135.360446 
L 235.220975 135.248085 
L 235.626199 135.285539 
L 235.638206 135.360446 
L 235.656216 135.173178 
L 235.731257 135.248085 
L 235.836315 135.173178 
L 235.770279 135.285539 
L 235.842318 135.248085 
L 235.872335 135.173178 
L 235.974391 135.060817 
L 235.905353 135.248085 
L 235.9894 135.098271 
L 236.070444 135.210632 
L 236.037426 135.060817 
L 236.103463 135.173178 
L 236.214524 135.322992 
L 236.121473 135.060817 
L 236.220527 135.248085 
L 236.33459 135.135725 
L 236.337592 135.173178 
L 236.340594 135.210632 
L 236.361605 135.023364 
L 236.436647 135.098271 
L 236.5327 134.911003 
L 236.55071 134.948457 
L 236.556713 135.023364 
L 236.589731 134.87355 
L 236.658769 134.948457 
L 236.694789 134.798643 
L 236.775834 134.87355 
L 236.790842 134.87355 
L 236.904905 134.98591 
L 236.937924 135.023364 
L 237.027973 135.135725 
L 237.000958 134.98591 
L 237.048985 135.060817 
L 237.139035 134.948457 
L 237.069997 135.098271 
L 237.163048 135.023364 
L 237.310129 135.098271 
L 237.415187 135.135725 
L 237.370162 134.98591 
L 237.418189 135.098271 
L 237.484225 135.173178 
L 237.52925 135.060817 
L 237.550262 135.248085 
L 237.643313 135.135725 
L 237.748371 135.098271 
L 237.685336 135.248085 
L 237.751373 135.135725 
L 237.853429 135.248085 
L 237.865436 135.210632 
L 238.057542 135.285539 
L 238.07255 135.248085 
L 238.174607 135.435353 
L 238.231638 135.360446 
L 238.249648 135.51026 
L 238.282666 135.51026 
L 238.315685 135.547714 
L 238.387725 135.360446 
L 238.426746 135.397899 
L 238.519797 135.472807 
L 238.435751 135.360446 
L 238.537807 135.397899 
L 238.582832 135.360446 
L 238.585834 135.285539 
L 238.657874 135.435353 
L 238.690892 135.322992 
L 238.77794 135.397899 
L 238.744922 135.210632 
L 238.801953 135.360446 
L 238.931025 135.435353 
L 239.039084 135.51026 
L 238.943031 135.360446 
L 239.042086 135.435353 
L 239.096116 135.585167 
L 239.120129 135.397899 
L 239.156149 135.472807 
L 239.28522 135.51026 
L 239.288222 135.622621 
L 239.327244 135.397899 
L 239.39328 135.51026 
L 239.48333 135.360446 
L 239.507343 135.397899 
L 239.591389 135.472807 
L 239.609399 135.322992 
L 239.618404 135.397899 
L 239.651423 135.360446 
L 239.771489 135.098271 
L 239.86454 135.322992 
L 239.894557 135.285539 
L 239.948587 135.135725 
L 239.969598 135.322992 
L 240.002617 135.322992 
L 240.056646 135.435353 
L 240.00862 135.285539 
L 240.113678 135.322992 
L 240.209731 135.248085 
L 240.179714 135.397899 
L 240.227741 135.285539 
L 240.254756 135.210632 
L 240.266763 135.322992 
L 240.365817 135.173178 
L 240.440859 135.248085 
L 240.44386 135.060817 
L 240.47988 135.210632 
L 240.488885 135.135725 
L 240.5159 135.285539 
L 240.58794 135.248085 
L 240.653976 135.435353 
L 240.699001 135.322992 
L 240.73202 135.248085 
L 240.795054 135.435353 
L 240.804059 135.360446 
L 240.840079 135.472807 
L 240.918122 135.397899 
L 241.020179 135.248085 
L 240.936132 135.435353 
L 241.029184 135.322992 
L 241.038189 135.248085 
L 241.065204 135.210632 
L 241.080212 135.360446 
L 241.140245 135.322992 
L 241.245303 135.397899 
L 241.251306 135.360446 
L 241.27532 135.285539 
L 241.269316 135.435353 
L 241.362368 135.360446 
L 241.398388 135.435353 
L 241.401389 135.472807 
L 241.479432 135.285539 
L 241.506447 135.397899 
L 241.608504 135.248085 
L 241.518454 135.51026 
L 241.626514 135.285539 
L 241.680544 135.248085 
L 241.74658 135.397899 
L 241.770593 135.360446 
L 241.884656 135.173178 
L 241.887658 135.210632 
L 241.995718 135.360446 
L 241.905668 135.135725 
L 242.001721 135.322992 
L 242.391937 135.248085 
L 242.409946 135.322992 
L 242.506 135.210632 
L 242.530013 135.285539 
L 242.590046 135.135725 
L 242.614059 135.210632 
L 242.617061 135.135725 
L 242.701107 135.285539 
L 242.725121 135.210632 
L 242.800162 135.248085 
L 242.749134 135.098271 
L 242.83318 135.210632 
L 242.872202 135.285539 
L 242.94124 135.173178 
L 243.043296 135.285539 
L 243.055303 135.248085 
L 243.088321 135.322992 
L 243.178371 135.360446 
L 243.139349 135.173178 
L 243.193379 135.285539 
L 243.208388 135.210632 
L 243.247409 135.360446 
L 243.301439 135.285539 
L 243.406497 135.360446 
L 243.325452 135.248085 
L 243.409499 135.322992 
L 243.457525 135.210632 
L 243.517558 135.360446 
L 243.547575 135.397899 
L 243.649631 135.622621 
L 243.5926 135.360446 
L 243.658636 135.472807 
L 243.739681 135.397899 
L 243.66464 135.547714 
L 243.772699 135.435353 
L 244.319001 135.360446 
L 244.334009 135.322992 
L 244.382036 135.472807 
L 244.424059 135.435353 
L 244.436066 135.435353 
L 244.544125 135.322992 
L 244.451074 135.472807 
L 244.547127 135.360446 
L 244.622169 135.435353 
L 244.556132 135.322992 
L 244.655187 135.397899 
L 244.682202 135.248085 
L 244.766248 135.397899 
L 244.790261 135.435353 
L 244.880311 135.322992 
L 244.979366 135.397899 
L 244.994374 135.360446 
L 245.036397 135.322992 
L 245.093429 135.472807 
L 245.099432 135.397899 
L 245.180477 135.322992 
L 245.213495 135.435353 
L 245.318553 135.397899 
L 245.321555 135.322992 
L 245.381588 135.472807 
L 245.426613 135.472807 
L 246.204042 135.51026 
L 246.300095 135.285539 
L 246.318105 135.322992 
L 246.402152 135.435353 
L 246.39915 135.285539 
L 246.426165 135.322992 
L 246.441173 135.360446 
L 246.54323 135.210632 
L 246.654291 135.322992 
L 246.57925 135.173178 
L 246.657293 135.248085 
L 246.762351 135.248085 
L 246.789366 135.435353 
L 246.876414 135.360446 
L 246.993478 135.248085 
L 247.008487 135.210632 
L 247.113545 135.397899 
L 247.131555 135.285539 
L 247.152566 135.435353 
L 247.221605 135.397899 
L 247.296646 135.51026 
L 247.317658 135.322992 
L 247.332666 135.397899 
L 247.374689 135.360446 
L 247.479747 135.285539 
L 247.380692 135.397899 
L 247.48575 135.360446 
L 247.548785 135.397899 
L 247.659847 135.173178 
L 247.662848 135.248085 
L 247.713876 135.322992 
L 247.770908 135.397899 
L 247.722881 135.248085 
L 247.824938 135.360446 
L 247.935999 135.248085 
L 247.939001 135.322992 
L 247.972019 135.285539 
L 247.975021 135.210632 
L 248.053064 135.435353 
L 248.080079 135.360446 
L 248.200145 135.472807 
L 248.326215 135.285539 
L 248.33522 135.248085 
L 248.338221 135.173178 
L 248.359233 135.210632 
" clip-path="url(#p78e2b846c8)" style="fill: none; stroke: #000000; stroke-opacity: 0.5; stroke-width: 1.5; stroke-linecap: square"/>
   </g>
   <g id="patch_3">
    <path d="M 35.304688 173.52 
L 35.304688 7.2 
" style="fill: none; stroke: #000000; stroke-width: 0.8; stroke-linejoin: miter; stroke-linecap: square"/>
   </g>
   <g id="patch_4">
    <path d="M 35.304688 173.52 
L 258.504687 173.52 
" style="fill: none; stroke: #000000; stroke-width: 0.8; stroke-linejoin: miter; stroke-linecap: square"/>
   </g>
  </g>
 </g>
 <defs>
  <clipPath id="p78e2b846c8">
   <rect x="35.304688" y="7.2" width="223.2" height="166.32"/>
  </clipPath>
 </defs>
</svg>
