<?xml version="1.0" encoding="utf-8" standalone="no"?>
<!DOCTYPE svg PUBLIC "-//W3C//DTD SVG 1.1//EN"
  "http://www.w3.org/Graphics/SVG/1.1/DTD/svg11.dtd">
<svg xmlns:xlink="http://www.w3.org/1999/xlink" width="272.067187pt" height="197.398125pt" viewBox="0 0 272.067187 197.398125" xmlns="http://www.w3.org/2000/svg" version="1.1">
 <metadata>
  <rdf:RDF xmlns:dc="http://purl.org/dc/elements/1.1/" xmlns:cc="http://creativecommons.org/ns#" xmlns:rdf="http://www.w3.org/1999/02/22-rdf-syntax-ns#">
   <cc:Work>
    <dc:type rdf:resource="http://purl.org/dc/dcmitype/StillImage"/>
    <dc:date>2025-12-19T12:10:50.793537</dc:date>
    <dc:format>image/svg+xml</dc:format>
    <dc:creator>
     <cc:Agent>
      <dc:title>Matplotlib v3.10.7, https://matplotlib.org/</dc:title>
     </cc:Agent>
    </dc:creator>
   </cc:Work>
  </rdf:RDF>
 </metadata>
 <defs>
  <style type="text/css">*{stroke-linejoin: round; stroke-linecap: butt}</style>
 </defs>
 <g id="figure_1">
  <g id="patch_1">
   <path d="M 0 197.398125 
L 272.067187 197.398125 
L 272.067187 0 
L 0 0 
z
" style="fill: #ffffff"/>
  </g>
  <g id="axes_1">
   <g id="patch_2">
    <path d="M 41.667188 173.52 
L 264.867188 173.52 
L 264.867188 7.2 
L 41.667188 7.2 
z
" style="fill: #ffffff"/>
   </g>
   <g id="matplotlib.axis_1">
    <g id="xtick_1">
     <g id="line2d_1">
      <defs>
       <path id="ma22c810abc" d="M 0 0 
L 0 3.5 
" style="stroke: #000000; stroke-width: 0.8"/>
      </defs>
      <g>
       <use xlink:href="#ma22c810abc" x="87.83254" y="173.52" style="stroke: #000000; stroke-width: 0.8"/>
      </g>
     </g>
     <g id="text_1">
      <!-- 1 -->
      <g transform="translate(84.65129 188.118438) scale(0.1 -0.1)">
       <defs>
        <path id="DejaVuSans-31" d="M 794 531 
L 1825 531 
L 1825 4091 
L 703 3866 
L 703 4441 
L 1819 4666 
L 2450 4666 
L 2450 531 
L 3481 531 
L 3481 0 
L 794 0 
L 794 531 
z
" transform="scale(0.015625)"/>
       </defs>
       <use xlink:href="#DejaVuSans-31"/>
      </g>
     </g>
    </g>
    <g id="xtick_2">
     <g id="line2d_2">
      <g>
       <use xlink:href="#ma22c810abc" x="147.865704" y="173.52" style="stroke: #000000; stroke-width: 0.8"/>
      </g>
     </g>
     <g id="text_2">
      <!-- 2 -->
      <g transform="translate(144.684454 188.118438) scale(0.1 -0.1)">
       <defs>
        <path id="DejaVuSans-32" d="M 1228 531 
L 3431 531 
L 3431 0 
L 469 0 
L 469 531 
Q 828 903 1448 1529 
Q 2069 2156 2228 2338 
Q 2531 2678 2651 2914 
Q 2772 3150 2772 3378 
Q 2772 3750 2511 3984 
Q 2250 4219 1831 4219 
Q 1534 4219 1204 4116 
Q 875 4013 500 3803 
L 500 4441 
Q 881 4594 1212 4672 
Q 1544 4750 1819 4750 
Q 2544 4750 2975 4387 
Q 3406 4025 3406 3419 
Q 3406 3131 3298 2873 
Q 3191 2616 2906 2266 
Q 2828 2175 2409 1742 
Q 1991 1309 1228 531 
z
" transform="scale(0.015625)"/>
       </defs>
       <use xlink:href="#DejaVuSans-32"/>
      </g>
     </g>
    </g>
    <g id="xtick_3">
     <g id="line2d_3">
      <g>
       <use xlink:href="#ma22c810abc" x="207.898867" y="173.52" style="stroke: #000000; stroke-width: 0.8"/>
      </g>
     </g>
     <g id="text_3">
      <!-- 3 -->
      <g transform="translate(204.717617 188.118438) scale(0.1 -0.1)">
       <defs>
        <path id="DejaVuSans-33" d="M 2597 2516 
Q 3050 2419 3304 2112 
Q 3559 1806 3559 1356 
Q 3559 666 3084 287 
Q 2609 -91 1734 -91 
Q 1441 -91 1130 -33 
Q 819 25 488 141 
L 488 750 
Q 750 597 1062 519 
Q 1375 441 1716 441 
Q 2309 441 2620 675 
Q 2931 909 2931 1356 
Q 2931 1769 2642 2001 
Q 2353 2234 1838 2234 
L 1294 2234 
L 1294 2753 
L 1863 2753 
Q 2328 2753 2575 2939 
Q 2822 3125 2822 3475 
Q 2822 3834 2567 4026 
Q 2313 4219 1838 4219 
Q 1578 4219 1281 4162 
Q 984 4106 628 3988 
L 628 4550 
Q 988 4650 1302 4700 
Q 1616 4750 1894 4750 
Q 2613 4750 3031 4423 
Q 3450 4097 3450 3541 
Q 3450 3153 3228 2886 
Q 3006 2619 2597 2516 
z
" transform="scale(0.015625)"/>
       </defs>
       <use xlink:href="#DejaVuSans-33"/>
      </g>
     </g>
    </g>
   </g>
   <g id="matplotlib.axis_2">
    <g id="ytick_1">
     <g id="line2d_4">
      <defs>
       <path id="mfffb0745b4" d="M 0 0 
L -3.5 0 
" style="stroke: #000000; stroke-width: 0.8"/>
      </defs>
      <g>
       <use xlink:href="#mfffb0745b4" x="41.667188" y="168.665253" style="stroke: #000000; stroke-width: 0.8"/>
      </g>
     </g>
     <g id="text_4">
      <!-- −120 -->
      <g transform="translate(7.2 172.464472) scale(0.1 -0.1)">
       <defs>
        <path id="DejaVuSans-2212" d="M 678 2272 
L 4684 2272 
L 4684 1741 
L 678 1741 
L 678 2272 
z
" transform="scale(0.015625)"/>
        <path id="DejaVuSans-30" d="M 2034 4250 
Q 1547 4250 1301 3770 
Q 1056 3291 1056 2328 
Q 1056 1369 1301 889 
Q 1547 409 2034 409 
Q 2525 409 2770 889 
Q 3016 1369 3016 2328 
Q 3016 3291 2770 3770 
Q 2525 4250 2034 4250 
z
M 2034 4750 
Q 2819 4750 3233 4129 
Q 3647 3509 3647 2328 
Q 3647 1150 3233 529 
Q 2819 -91 2034 -91 
Q 1250 -91 836 529 
Q 422 1150 422 2328 
Q 422 3509 836 4129 
Q 1250 4750 2034 4750 
z
" transform="scale(0.015625)"/>
       </defs>
       <use xlink:href="#DejaVuSans-2212"/>
       <use xlink:href="#DejaVuSans-31" transform="translate(83.789062 0)"/>
       <use xlink:href="#DejaVuSans-32" transform="translate(147.412109 0)"/>
       <use xlink:href="#DejaVuSans-30" transform="translate(211.035156 0)"/>
      </g>
     </g>
    </g>
    <g id="ytick_2">
     <g id="line2d_5">
      <g>
       <use xlink:href="#mfffb0745b4" x="41.667188" y="144.431839" style="stroke: #000000; stroke-width: 0.8"/>
      </g>
     </g>
     <g id="text_5">
      <!-- −100 -->
      <g transform="translate(7.2 148.231058) scale(0.1 -0.1)">
       <use xlink:href="#DejaVuSans-2212"/>
       <use xlink:href="#DejaVuSans-31" transform="translate(83.789062 0)"/>
       <use xlink:href="#DejaVuSans-30" transform="translate(147.412109 0)"/>
       <use xlink:href="#DejaVuSans-30" transform="translate(211.035156 0)"/>
      </g>
     </g>
    </g>
    <g id="ytick_3">
     <g id="line2d_6">
      <g>
       <use xlink:href="#mfffb0745b4" x="41.667188" y="120.198425" style="stroke: #000000; stroke-width: 0.8"/>
      </g>
     </g>
     <g id="text_6">
      <!-- −80 -->
      <g transform="translate(13.5625 123.997644) scale(0.1 -0.1)">
       <defs>
        <path id="DejaVuSans-38" d="M 2034 2216 
Q 1584 2216 1326 1975 
Q 1069 1734 1069 1313 
Q 1069 891 1326 650 
Q 1584 409 2034 409 
Q 2484 409 2743 651 
Q 3003 894 3003 1313 
Q 3003 1734 2745 1975 
Q 2488 2216 2034 2216 
z
M 1403 2484 
Q 997 2584 770 2862 
Q 544 3141 544 3541 
Q 544 4100 942 4425 
Q 1341 4750 2034 4750 
Q 2731 4750 3128 4425 
Q 3525 4100 3525 3541 
Q 3525 3141 3298 2862 
Q 3072 2584 2669 2484 
Q 3125 2378 3379 2068 
Q 3634 1759 3634 1313 
Q 3634 634 3220 271 
Q 2806 -91 2034 -91 
Q 1263 -91 848 271 
Q 434 634 434 1313 
Q 434 1759 690 2068 
Q 947 2378 1403 2484 
z
M 1172 3481 
Q 1172 3119 1398 2916 
Q 1625 2713 2034 2713 
Q 2441 2713 2670 2916 
Q 2900 3119 2900 3481 
Q 2900 3844 2670 4047 
Q 2441 4250 2034 4250 
Q 1625 4250 1398 4047 
Q 1172 3844 1172 3481 
z
" transform="scale(0.015625)"/>
       </defs>
       <use xlink:href="#DejaVuSans-2212"/>
       <use xlink:href="#DejaVuSans-38" transform="translate(83.789062 0)"/>
       <use xlink:href="#DejaVuSans-30" transform="translate(147.412109 0)"/>
      </g>
     </g>
    </g>
    <g id="ytick_4">
     <g id="line2d_7">
      <g>
       <use xlink:href="#mfffb0745b4" x="41.667188" y="95.965011" style="stroke: #000000; stroke-width: 0.8"/>
      </g>
     </g>
     <g id="text_7">
      <!-- −60 -->
      <g transform="translate(13.5625 99.76423) scale(0.1 -0.1)">
       <defs>
        <path id="DejaVuSans-36" d="M 2113 2584 
Q 1688 2584 1439 2293 
Q 1191 2003 1191 1497 
Q 1191 994 1439 701 
Q 1688 409 2113 409 
Q 2538 409 2786 701 
Q 3034 994 3034 1497 
Q 3034 2003 2786 2293 
Q 2538 2584 2113 2584 
z
M 3366 4563 
L 3366 3988 
Q 3128 4100 2886 4159 
Q 2644 4219 2406 4219 
Q 1781 4219 1451 3797 
Q 1122 3375 1075 2522 
Q 1259 2794 1537 2939 
Q 1816 3084 2150 3084 
Q 2853 3084 3261 2657 
Q 3669 2231 3669 1497 
Q 3669 778 3244 343 
Q 2819 -91 2113 -91 
Q 1303 -91 875 529 
Q 447 1150 447 2328 
Q 447 3434 972 4092 
Q 1497 4750 2381 4750 
Q 2619 4750 2861 4703 
Q 3103 4656 3366 4563 
z
" transform="scale(0.015625)"/>
       </defs>
       <use xlink:href="#DejaVuSans-2212"/>
       <use xlink:href="#DejaVuSans-36" transform="translate(83.789062 0)"/>
       <use xlink:href="#DejaVuSans-30" transform="translate(147.412109 0)"/>
      </g>
     </g>
    </g>
    <g id="ytick_5">
     <g id="line2d_8">
      <g>
       <use xlink:href="#mfffb0745b4" x="41.667188" y="71.731597" style="stroke: #000000; stroke-width: 0.8"/>
      </g>
     </g>
     <g id="text_8">
      <!-- −40 -->
      <g transform="translate(13.5625 75.530816) scale(0.1 -0.1)">
       <defs>
        <path id="DejaVuSans-34" d="M 2419 4116 
L 825 1625 
L 2419 1625 
L 2419 4116 
z
M 2253 4666 
L 3047 4666 
L 3047 1625 
L 3713 1625 
L 3713 1100 
L 3047 1100 
L 3047 0 
L 2419 0 
L 2419 1100 
L 313 1100 
L 313 1709 
L 2253 4666 
z
" transform="scale(0.015625)"/>
       </defs>
       <use xlink:href="#DejaVuSans-2212"/>
       <use xlink:href="#DejaVuSans-34" transform="translate(83.789062 0)"/>
       <use xlink:href="#DejaVuSans-30" transform="translate(147.412109 0)"/>
      </g>
     </g>
    </g>
    <g id="ytick_6">
     <g id="line2d_9">
      <g>
       <use xlink:href="#mfffb0745b4" x="41.667188" y="47.498183" style="stroke: #000000; stroke-width: 0.8"/>
      </g>
     </g>
     <g id="text_9">
      <!-- −20 -->
      <g transform="translate(13.5625 51.297402) scale(0.1 -0.1)">
       <use xlink:href="#DejaVuSans-2212"/>
       <use xlink:href="#DejaVuSans-32" transform="translate(83.789062 0)"/>
       <use xlink:href="#DejaVuSans-30" transform="translate(147.412109 0)"/>
      </g>
     </g>
    </g>
    <g id="ytick_7">
     <g id="line2d_10">
      <g>
       <use xlink:href="#mfffb0745b4" x="41.667188" y="23.264769" style="stroke: #000000; stroke-width: 0.8"/>
      </g>
     </g>
     <g id="text_10">
      <!-- 0 -->
      <g transform="translate(28.304688 27.063988) scale(0.1 -0.1)">
       <use xlink:href="#DejaVuSans-30"/>
      </g>
     </g>
    </g>
   </g>
   <g id="line2d_11">
    <path d="M 51.812642 101.730506 
L 51.830652 101.656552 
L 51.878679 101.804461 
L 51.923703 101.730506 
L 52.037766 101.878415 
L 51.95372 101.619574 
L 52.040768 101.841438 
L 52.052775 101.767483 
L 52.076788 101.915393 
L 52.148828 101.915393 
L 52.157833 101.878415 
L 52.166838 102.026324 
L 52.256887 101.95237 
L 52.313919 101.878415 
L 52.430984 101.656552 
L 52.548048 101.878415 
L 52.557053 101.841438 
L 52.812194 101.878415 
L 52.917252 102.137256 
L 52.926257 102.063302 
L 53.010304 102.174233 
L 53.115362 102.35912 
L 53.13037 102.322142 
L 53.235428 102.174233 
L 53.244433 102.211211 
L 53.283455 102.100279 
L 53.400519 101.95237 
L 53.406523 102.063302 
L 53.496572 101.878415 
L 53.508579 101.915393 
L 53.592625 101.804461 
L 53.700685 101.730506 
L 53.604632 101.841438 
L 53.703687 101.804461 
L 53.826755 101.878415 
L 53.928811 102.026324 
L 53.832758 101.841438 
L 53.940818 101.989347 
L 54.042874 101.915393 
L 54.147932 101.804461 
L 54.156937 101.841438 
L 54.231979 101.730506 
L 54.28901 101.582597 
L 54.349043 101.619574 
L 54.358048 101.730506 
L 54.421083 101.508643 
L 54.457103 101.582597 
L 54.505129 101.508643 
L 54.622194 101.249802 
L 54.625196 101.286779 
L 54.640204 101.323756 
L 54.745262 101.175847 
L 54.865328 101.323756 
L 54.913355 101.360734 
L 54.985395 101.13887 
L 55.045428 101.286779 
L 55.084449 101.101893 
L 55.096456 101.175847 
L 55.210519 101.027938 
L 55.102459 101.249802 
L 55.216522 101.064916 
L 55.327584 101.249802 
L 55.330585 101.175847 
L 55.360602 101.286779 
L 55.477667 101.471665 
L 55.480668 101.397711 
L 55.531697 101.323756 
L 55.576721 101.582597 
L 55.585726 101.508643 
L 55.684781 101.582597 
L 55.768828 101.730506 
L 55.720801 101.54562 
L 55.798844 101.693529 
L 55.855876 101.54562 
L 55.915909 101.582597 
L 55.930917 101.693529 
L 55.960934 101.54562 
L 56.02697 101.582597 
L 56.138031 101.434688 
L 56.144035 101.508643 
L 56.309126 101.619574 
L 56.393172 101.730506 
L 56.324134 101.582597 
L 56.417186 101.619574 
L 56.426191 101.656552 
L 56.543255 101.397711 
L 56.576274 101.508643 
L 56.621298 101.360734 
L 56.651315 101.360734 
L 56.699342 101.434688 
L 56.762376 101.323756 
L 56.867434 101.508643 
L 56.876439 101.397711 
L 56.984499 101.175847 
L 56.882443 101.434688 
L 56.999507 101.249802 
L 57.110569 101.323756 
L 57.11357 101.286779 
L 57.248645 100.990961 
L 57.338695 100.880029 
L 57.434748 100.843052 
L 57.359706 100.953984 
L 57.446754 100.880029 
L 57.479773 100.953984 
L 57.512791 100.769098 
L 57.551812 100.806075 
L 57.665875 100.621189 
L 57.67488 100.658166 
L 57.770934 100.73212 
L 57.680884 100.621189 
L 57.788943 100.695143 
L 57.815958 100.658166 
L 57.960038 110.457139 
L 58.221182 119.73843 
L 58.914565 134.085605 
L 59.59294 141.074307 
L 59.595942 141.037329 
L 59.655975 141.591988 
L 59.658977 141.591988 
L 59.926124 143.514806 
L 59.938131 143.625737 
L 59.947136 143.58876 
L 60.193272 145.400646 
L 60.256306 145.511577 
L 60.403388 145.992282 
L 60.406389 145.955304 
L 60.460419 146.214145 
L 60.499441 146.177168 
L 60.592492 146.2881 
L 60.763587 147.027645 
L 60.853636 147.138577 
L 60.937683 147.397417 
L 60.970701 147.286486 
L 61.045743 147.36044 
L 61.096771 147.508349 
L 61.156804 147.397417 
L 61.231845 147.249508 
L 61.195825 147.434395 
L 61.267865 147.397417 
L 61.38493 147.471372 
L 61.444963 147.582304 
L 61.405942 147.434395 
L 61.495991 147.471372 
L 61.520005 147.434395 
L 61.574034 147.76719 
L 61.586041 147.730213 
L 61.595046 147.693236 
L 61.718114 147.989054 
L 61.733122 147.915099 
L 61.80216 148.136963 
L 61.814167 148.136963 
L 61.943238 148.469758 
L 61.82017 148.099985 
L 61.94624 148.395803 
L 62.024283 148.469758 
L 62.132343 148.543712 
L 62.03629 148.432781 
L 62.135345 148.506735 
L 62.351464 148.617667 
L 62.438512 148.691621 
L 62.39949 148.506735 
L 62.459524 148.58069 
L 62.492542 148.691621 
L 62.501547 148.654644 
L 62.618611 148.876508 
L 62.729673 148.543712 
L 62.753686 148.58069 
L 62.777699 148.691621 
L 62.831729 148.210917 
L 62.837733 148.247894 
L 62.960801 147.76719 
L 62.963802 147.878122 
L 62.984814 147.730213 
L 63.065859 147.989054 
L 63.074864 147.878122 
L 63.203935 148.17394 
L 63.107882 147.804167 
L 63.206936 148.136963 
L 63.209938 148.099985 
L 63.269971 148.469758 
L 63.290983 148.469758 
L 63.435062 148.913485 
L 63.528114 148.765576 
L 63.456074 148.987439 
L 63.546124 148.802553 
L 63.660187 148.913485 
L 63.696207 148.802553 
L 63.726223 148.987439 
L 63.771248 148.876508 
L 63.840286 149.024417 
L 63.885311 148.950462 
L 63.918329 148.876508 
L 63.981364 149.098371 
L 63.984366 149.061394 
L 64.110436 149.431167 
L 64.164465 149.542098 
L 64.170469 149.505121 
L 64.28153 149.690007 
L 64.395593 149.837916 
L 64.4076 149.726985 
L 64.494648 150.05978 
L 64.500651 149.985825 
L 64.515659 149.948848 
L 64.620717 150.207689 
L 64.683752 150.318621 
L 64.797815 150.614439 
L 64.689756 150.281643 
L 64.803819 150.577461 
L 64.911878 150.651416 
L 65.02294 150.836302 
L 64.923885 150.614439 
L 65.025941 150.762348 
L 65.043951 150.651416 
L 65.118993 151.058166 
L 65.127998 150.984211 
L 65.149009 151.058166 
L 65.263072 151.280029 
L 65.308097 151.13212 
L 65.374134 151.206075 
L 65.413155 151.13212 
L 65.45818 151.021189 
L 65.515212 151.169098 
L 65.527218 151.058166 
L 65.593255 151.095143 
L 65.617268 150.984211 
L 65.629275 150.984211 
L 65.650286 150.87328 
L 65.698313 151.095143 
L 65.737334 150.984211 
L 65.827384 151.13212 
L 65.848396 151.021189 
L 66.05551 150.910257 
L 66.058512 150.87328 
L 66.094532 151.021189 
L 66.16357 150.947234 
L 66.256621 151.169098 
L 66.277633 151.021189 
L 66.280634 150.984211 
L 66.334664 151.13212 
L 66.379689 151.13212 
L 66.397699 151.021189 
L 66.415709 151.058166 
L 66.517765 150.799325 
L 66.550784 150.688393 
L 66.646837 150.503507 
L 66.667848 150.540484 
L 66.682857 150.651416 
L 66.757898 150.429552 
L 66.775908 150.540484 
L 66.874963 150.355598 
L 66.808926 150.577461 
L 66.886969 150.503507 
L 67.025046 150.614439 
L 67.133105 150.725371 
L 67.046057 150.577461 
L 67.139109 150.688393 
L 67.187135 150.46653 
L 67.145112 150.725371 
L 67.262177 150.540484 
L 67.319208 150.651416 
L 67.331215 150.577461 
L 67.442276 150.836302 
L 67.544333 150.577461 
L 67.484299 150.910257 
L 67.559341 150.651416 
L 67.595361 150.577461 
L 67.718429 150.207689 
L 67.724432 150.170712 
L 67.844498 150.392575 
L 67.967566 150.281643 
L 67.994581 150.244666 
L 68.003586 150.355598 
L 68.072624 150.318621 
L 68.189689 150.46653 
L 68.192691 150.429552 
L 68.246721 150.651416 
L 68.288744 150.614439 
L 68.399805 150.947234 
L 68.423818 150.910257 
L 68.438827 150.836302 
L 68.510866 151.095143 
L 68.525875 151.021189 
L 68.654946 151.280029 
L 68.672956 151.243052 
L 68.723984 151.501893 
L 68.757002 151.390961 
L 68.778014 151.427938 
L 68.817036 151.280029 
L 68.859059 151.317007 
L 68.994133 151.021189 
L 69.090186 150.910257 
L 69.156223 150.87328 
L 69.105195 151.021189 
L 69.189241 151.021189 
L 69.195245 151.095143 
L 69.270286 150.910257 
L 69.297301 151.021189 
L 69.360336 150.87328 
L 69.408362 151.021189 
L 69.441381 150.87328 
L 69.522425 151.095143 
L 69.606472 150.799325 
L 69.642492 150.87328 
L 69.738545 150.762348 
L 69.648495 150.910257 
L 69.753553 150.87328 
L 69.786571 150.947234 
L 69.795576 151.021189 
L 69.831596 149.431167 
L 70.098744 135.860514 
L 70.461944 126.542245 
L 70.470949 126.431313 
L 70.67206 123.10336 
L 71.686621 111.973206 
L 71.710634 111.899252 
L 71.86672 110.789934 
L 71.872724 110.826911 
L 72.037815 110.013412 
L 72.040816 110.050389 
L 72.103851 109.643639 
L 72.112856 109.643639 
L 72.253934 108.867117 
L 72.274946 108.756185 
L 72.42803 108.238503 
L 72.44604 108.164549 
L 72.57211 107.757799 
L 72.599125 107.683844 
L 72.719191 107.092208 
L 72.731198 107.166163 
L 72.737201 107.092208 
L 72.872276 106.500572 
L 72.896289 106.38964 
L 73.04337 105.761027 
L 73.052375 105.834982 
L 73.088395 105.72405 
L 73.24148 105.206368 
L 73.268495 105.095437 
L 73.409573 104.577755 
L 73.418578 104.614732 
L 73.427583 104.540778 
L 73.547649 104.24496 
L 73.56866 104.281937 
L 73.62269 104.023096 
L 73.6407 104.023096 
L 73.682724 103.912164 
L 73.814796 103.653324 
L 73.862823 103.579369 
L 73.985891 103.246574 
L 74.030916 103.283551 
L 74.072939 103.061687 
L 74.087947 103.135642 
L 74.211015 102.913778 
L 74.093951 103.172619 
L 74.214017 102.950756 
L 74.268047 102.839824 
L 74.397118 102.580983 
L 74.424133 102.691915 
L 74.493171 102.470051 
L 74.502176 102.507029 
L 74.553204 102.433074 
L 74.667267 102.137256 
L 74.673271 102.174233 
L 74.676272 102.248188 
L 74.742309 102.100279 
L 74.78133 102.137256 
L 74.994448 102.026324 
L 75.078495 101.989347 
L 75.0875 102.137256 
L 75.105509 102.026324 
L 75.117516 102.100279 
L 75.192558 101.915393 
L 75.210568 101.915393 
L 75.456703 101.841438 
L 75.555758 101.767483 
L 75.510733 101.95237 
L 75.567765 101.804461 
L 75.942972 101.915393 
L 75.960982 101.95237 
L 76.000004 101.730506 
L 76.045028 101.841438 
L 76.10206 101.767483 
L 76.054033 101.878415 
L 76.15609 101.841438 
L 76.213121 101.804461 
L 76.309174 101.693529 
L 76.324183 101.767483 
L 76.345194 101.841438 
L 76.390219 101.619574 
L 76.426239 101.693529 
L 76.543304 101.471665 
L 76.657367 101.582597 
L 76.615344 101.397711 
L 76.660368 101.54562 
L 76.741413 101.434688 
L 76.855476 101.249802 
L 76.75342 101.471665 
L 76.864481 101.286779 
L 76.936521 101.434688 
L 76.873486 101.249802 
L 76.975543 101.286779 
L 77.15264 101.323756 
L 77.158644 101.434688 
L 77.197665 101.249802 
L 77.263702 101.397711 
L 77.362756 101.323756 
L 77.464813 101.027938 
L 77.479821 101.101893 
L 77.572872 101.286779 
L 77.593884 101.212825 
L 77.707947 101.101893 
L 77.779987 100.990961 
L 77.837018 101.027938 
L 77.900053 100.880029 
L 77.957085 101.064916 
L 78.011115 100.953984 
L 78.014116 100.880029 
L 78.056139 101.027938 
L 78.122176 100.953984 
L 78.299274 100.843052 
L 78.305277 100.880029 
L 78.41934 100.73212 
L 79.277814 100.658166 
L 79.313834 100.584211 
L 79.325841 100.73212 
L 79.388876 100.658166 
L 79.424896 100.73212 
L 79.481927 100.547234 
L 79.496935 100.621189 
L 79.746073 100.73212 
L 79.866139 100.953984 
L 79.767085 100.695143 
L 79.869141 100.917007 
L 79.872143 100.806075 
L 79.956189 100.990961 
L 79.977201 100.917007 
L 80.091264 101.13887 
L 80.004216 100.843052 
L 80.10327 101.101893 
L 80.178312 101.13887 
L 80.202325 101.249802 
L 80.235343 101.027938 
L 80.286371 101.064916 
L 80.325393 101.13887 
L 80.3374 100.990961 
L 80.39143 101.027938 
L 80.394431 100.953984 
L 80.493486 101.212825 
L 80.496488 101.175847 
L 80.733619 101.13887 
L 80.82667 100.990961 
L 80.847682 101.027938 
L 80.949738 101.101893 
L 81.015774 101.212825 
L 81.003768 101.027938 
L 81.057798 101.027938 
L 81.114829 101.101893 
L 81.087814 100.953984 
L 81.168859 101.027938 
L 81.213884 100.917007 
L 81.246902 101.064916 
L 81.282922 100.990961 
L 81.586089 100.917007 
L 81.589091 100.843052 
L 81.658129 101.064916 
L 81.691148 101.064916 
L 81.745177 101.13887 
L 81.814215 101.286779 
L 81.85924 101.249802 
L 82.159406 101.360734 
L 82.189423 101.323756 
L 82.273469 101.434688 
L 82.321496 101.360734 
L 82.342507 101.508643 
L 82.384531 101.397711 
L 82.417549 101.508643 
L 82.459572 101.323756 
L 82.498594 101.471665 
L 82.567632 101.360734 
L 82.612657 101.397711 
L 82.72672 101.471665 
L 82.768743 101.434688 
L 82.843784 101.619574 
L 83.041894 101.693529 
L 83.158958 101.841438 
L 83.372076 101.95237 
L 83.378079 101.915393 
L 83.492142 102.063302 
L 83.552176 102.174233 
L 83.654232 102.285165 
L 83.666239 102.211211 
L 83.72327 102.322142 
L 83.747283 102.396097 
L 83.753287 102.211211 
L 83.828328 102.322142 
L 83.894365 102.35912 
L 83.939389 102.248188 
L 84.059456 102.544006 
L 84.065459 102.470051 
L 84.125492 102.433074 
L 84.164514 102.61796 
L 84.167516 102.544006 
L 84.287582 102.691915 
L 84.323602 102.61796 
L 84.386637 102.839824 
L 84.39264 102.765869 
L 84.512706 102.913778 
L 84.575741 102.691915 
L 84.626769 102.802847 
L 84.656786 102.876801 
L 84.731827 102.728892 
L 84.734829 102.765869 
L 84.857897 102.691915 
L 84.93594 102.61796 
L 84.896918 102.765869 
L 84.968958 102.691915 
L 85.089025 102.950756 
L 85.092026 102.876801 
L 85.113038 102.950756 
L 85.215094 102.728892 
L 85.269124 102.839824 
L 85.275127 102.876801 
L 85.296139 102.765869 
L 85.377184 102.802847 
L 85.422209 102.691915 
L 85.434215 102.839824 
L 85.491247 102.765869 
L 85.581297 102.913778 
L 85.548278 102.728892 
L 85.611313 102.876801 
L 85.722374 102.728892 
L 85.725376 102.765869 
L 85.764398 102.802847 
L 85.782408 102.654938 
L 85.833436 102.728892 
L 85.857449 102.61796 
L 85.911479 102.580983 
L 85.953502 102.728892 
L 85.962507 102.691915 
L 86.04055 102.765869 
L 85.992524 102.61796 
L 86.073568 102.691915 
L 86.18463 102.61796 
L 86.115592 102.728892 
L 86.187631 102.654938 
L 86.199638 102.580983 
L 86.23866 102.61796 
L 86.313701 102.470051 
L 86.406753 102.580983 
L 86.409754 102.61796 
L 86.472789 102.35912 
L 86.508809 102.544006 
L 86.628875 102.322142 
L 86.739937 102.211211 
L 86.775956 102.248188 
L 86.863005 102.026324 
L 86.974066 102.174233 
L 86.977068 102.137256 
L 87.12715 102.174233 
L 87.160169 102.285165 
L 87.187184 102.137256 
L 87.238212 102.174233 
L 87.274232 102.211211 
L 87.298245 102.063302 
L 87.34327 102.174233 
L 87.45133 101.95237 
L 87.457333 101.989347 
L 87.72448 102.100279 
L 87.754497 102.026324 
L 87.874563 108.460367 
L 88.159721 127.947381 
L 88.976172 154.090301 
L 88.988179 154.201233 
L 89.17128 157.788026 
L 89.390401 160.450389 
L 89.645542 162.225297 
L 89.672557 162.336229 
L 89.828643 162.890888 
L 89.882673 162.964842 
L 89.993734 163.334615 
L 90.005741 163.26066 
L 90.13181 163.556478 
L 90.134812 163.519501 
L 90.143817 163.482524 
L 90.224862 163.704387 
L 90.233867 163.66741 
L 90.356935 164.111137 
L 90.359936 164.07416 
L 90.504016 164.185092 
L 90.648096 164.591842 
L 90.72914 164.48091 
L 90.789173 164.406955 
L 90.813187 164.628819 
L 90.8372 164.48091 
L 90.960268 164.813705 
L 90.993286 164.702773 
L 91.050318 164.998591 
L 91.059323 164.924637 
L 91.176387 165.257432 
L 91.182391 165.220455 
L 91.218411 165.331387 
L 91.296454 165.183478 
L 91.329472 165.109523 
L 91.431528 165.516273 
L 91.449538 165.442318 
L 91.527581 165.664182 
L 91.536586 165.664182 
L 91.596619 165.55325 
L 91.54259 165.738136 
L 91.644646 165.664182 
L 91.668659 165.812091 
L 91.743701 165.590227 
L 91.755707 165.664182 
L 91.761711 165.590227 
L 91.791727 165.775114 
L 91.866769 165.664182 
L 91.971827 165.775114 
L 92.010848 165.664182 
L 92.088891 165.849068 
L 92.136918 165.738136 
L 92.214961 165.886045 
L 92.253983 165.664182 
L 92.353037 165.775114 
L 92.365044 165.664182 
L 92.413071 165.55325 
L 92.416072 165.516273 
L 92.500119 165.738136 
L 92.518129 165.627205 
L 92.524132 165.664182 
L 92.596172 165.294409 
L 92.602175 165.294409 
L 92.644198 165.220455 
L 92.770268 164.702773 
L 92.773269 164.739751 
L 92.944364 164.813705 
L 93.070434 165.257432 
L 93.073435 165.220455 
L 93.139472 165.664182 
L 93.145475 165.664182 
L 93.256536 165.96 
L 93.265541 165.923023 
L 93.388609 165.331387 
L 93.397614 165.368364 
L 93.436636 165.405341 
L 93.496669 165.220455 
L 93.62574 165.331387 
L 93.75181 165.590227 
L 93.754812 165.55325 
L 93.76982 165.590227 
L 93.874878 165.405341 
L 93.87788 165.479296 
L 93.970931 165.072546 
L 93.973933 165.109523 
L 94.121014 164.665796 
L 94.196055 164.739751 
L 94.169041 164.628819 
L 94.232075 164.665796 
L 94.235077 164.702773 
L 94.31312 164.443933 
L 94.322125 164.443933 
L 94.478211 163.889274 
L 94.487216 163.963228 
L 94.550251 163.704387 
L 94.580268 163.704387 
L 94.619289 163.630433 
L 94.745359 163.223683 
L 94.793385 163.149729 
L 94.907448 162.890888 
L 94.913452 162.927865 
L 94.991495 162.816933 
L 95.141578 162.336229 
L 95.252639 162.447161 
L 95.255641 162.410183 
L 95.261644 162.447161 
L 95.342689 162.151343 
L 95.345691 162.151343 
L 95.456752 162.040411 
L 95.576818 161.78157 
L 95.582822 161.855525 
L 95.612838 161.744593 
L 95.693883 161.596684 
L 95.726901 161.707616 
L 95.753916 161.596684 
L 95.876984 161.337843 
L 95.882987 161.37482 
L 95.949024 161.411798 
L 95.976039 161.263888 
L 95.982042 161.263888 
L 96.117117 160.857139 
L 96.120118 160.931093 
L 96.180152 160.857139 
L 96.306221 160.413412 
L 96.336238 160.450389 
L 96.390268 160.080616 
L 96.393269 160.117594 
L 96.55836 159.415026 
L 96.57637 159.48898 
L 96.64841 159.193162 
L 96.657415 159.267117 
L 96.798493 158.897344 
L 96.870533 158.786412 
L 96.876536 158.82339 
L 97.002606 158.527572 
L 97.020616 158.453617 
L 97.032622 158.490594 
L 97.146685 158.083844 
L 97.257747 157.825004 
L 97.272755 157.861981 
L 97.290765 157.898958 
L 97.332788 157.714072 
L 97.374811 157.751049 
L 97.503883 157.492208 
L 97.506884 157.60314 
L 97.602937 157.233368 
L 97.605939 157.233368 
L 97.732009 156.974527 
L 97.73501 157.011504 
L 97.80705 156.900572 
L 97.870085 156.715686 
L 97.819057 156.93755 
L 97.927117 156.78964 
L 98.020168 156.678709 
L 98.029173 156.715686 
L 98.152241 156.419868 
L 98.191262 156.308936 
L 98.323335 155.939164 
L 98.326337 155.976141 
L 98.329339 156.013118 
L 98.416387 155.7173 
L 98.443402 155.606368 
L 98.581478 155.273573 
L 98.647515 155.162641 
L 98.665524 155.199618 
L 98.770583 154.977755 
L 98.809604 155.014732 
L 98.860632 154.755891 
L 98.998709 154.386119 
L 99.007714 154.423096 
L 99.079753 154.201233 
L 99.094762 154.23821 
L 99.211826 154.016346 
L 99.21783 154.053324 
L 99.295873 153.720528 
L 99.418941 153.461687 
L 99.301876 153.794483 
L 99.421942 153.498665 
L 99.433949 153.535642 
L 99.505989 153.165869 
L 99.50899 153.202847 
L 99.584032 153.091915 
L 99.701097 152.796097 
L 99.593037 153.128892 
L 99.713103 152.833074 
L 99.719107 152.870051 
L 99.788145 152.574233 
L 99.803153 152.611211 
L 99.929223 152.315393 
L 99.935226 152.35237 
L 100.013269 152.278415 
L 100.034281 152.315393 
L 100.136337 151.94562 
L 100.166354 151.982597 
L 100.226387 151.760734 
L 100.23239 151.797711 
L 100.367465 151.464916 
L 100.370466 151.53887 
L 100.463518 151.243052 
L 100.466519 151.280029 
L 100.589587 150.836302 
L 100.592589 150.87328 
L 100.607597 150.947234 
L 100.676635 150.540484 
L 100.778692 150.429552 
L 100.907763 150.096757 
L 100.910765 150.133734 
L 100.913766 150.170712 
L 101.000815 149.874894 
L 101.120881 149.579076 
L 101.126884 149.690007 
L 101.165906 149.579076 
L 101.309985 149.172326 
L 101.382025 149.061394 
L 101.526105 148.58069 
L 101.39103 149.098371 
L 101.529106 148.617667 
L 101.550118 148.506735 
L 101.694198 148.099985 
L 101.715209 148.026031 
L 101.835276 147.656258 
L 101.850284 147.804167 
L 101.943335 147.545326 
L 101.97035 147.619281 
L 102.02438 147.397417 
L 102.048393 147.471372 
L 102.13244 147.434395 
L 102.237498 147.064622 
L 102.252506 147.101599 
L 102.255508 147.138577 
L 102.333551 146.768804 
L 102.342556 146.842759 
L 102.462622 146.546941 
L 102.465624 146.583918 
L 102.54967 146.2881 
L 102.555673 146.325077 
L 102.684745 145.844373 
L 102.723766 145.770418 
L 102.72977 145.807395 
L 102.852838 145.289714 
L 102.885856 145.252737 
L 103.005922 144.919941 
L 103.008924 144.956919 
L 103.09297 144.772032 
L 103.101975 144.772032 
L 103.252058 144.291328 
L 103.29108 144.217373 
L 103.417149 143.847601 
L 103.420151 143.921555 
L 103.477183 143.662715 
L 103.519206 143.699692 
L 103.645275 143.329919 
L 103.648277 143.366897 
L 103.70831 143.18201 
L 103.747332 143.255965 
L 103.756337 143.329919 
L 103.873401 142.997124 
L 103.876403 143.071079 
L 103.972456 142.77526 
L 103.975458 142.849215 
L 104.146552 142.072693 
L 104.149554 142.146647 
L 104.242605 141.739897 
L 104.245607 141.776875 
L 104.275624 141.665943 
L 104.4137 141.29617 
L 104.416702 141.370125 
L 104.494745 141.148261 
L 104.518758 141.185238 
L 104.545773 141.111284 
L 104.659836 140.815466 
L 104.665839 140.852443 
L 104.710864 140.741511 
L 104.88496 139.964989 
L 104.893965 140.038944 
L 104.972008 139.669171 
L 104.978012 139.743125 
L 105.005027 139.632194 
L 105.098078 139.373353 
L 105.131096 139.447307 
L 105.134098 139.484285 
L 105.212141 139.225444 
L 105.224148 139.262421 
L 105.371229 138.818694 
L 105.398244 138.74474 
L 105.53632 138.042172 
L 105.560333 137.968217 
L 105.689405 137.450536 
L 105.692406 137.487513 
L 105.776453 137.154718 
L 105.782456 137.228672 
L 105.914529 136.784945 
L 105.926536 136.821922 
L 106.004579 136.526104 
L 106.00758 136.563081 
L 106.118642 136.415172 
L 106.070615 136.674013 
L 106.127647 136.45215 
L 106.160665 136.378195 
L 106.29574 135.786559 
L 106.325756 135.712605 
L 106.472837 134.788173 
L 106.538874 134.714219 
L 106.670947 134.15956 
L 106.673948 134.196537 
L 106.74899 133.826764 
L 106.754993 133.863742 
L 106.920084 133.161174 
L 106.923086 133.235128 
L 107.004131 132.976288 
L 107.022141 133.013265 
L 107.163219 132.421629 
L 107.178227 132.458606 
L 107.214247 132.347674 
L 107.36433 131.86697 
L 107.403351 131.756038 
L 107.559438 131.164402 
L 107.562439 131.238357 
L 107.646486 130.868584 
L 107.658492 130.905561 
L 107.805574 130.424857 
L 107.811577 130.461834 
L 107.880615 130.129039 
L 107.88962 130.129039 
L 108.054711 129.463448 
L 108.06972 129.500426 
L 108.141759 129.16763 
L 108.147763 129.241585 
L 108.285839 128.871812 
L 108.297846 128.908789 
L 108.36088 128.649949 
L 108.37889 128.686926 
L 108.489952 128.354131 
L 108.507962 128.465062 
L 108.604015 128.50204 
L 108.577 128.354131 
L 108.61302 128.391108 
L 108.739089 128.021335 
L 108.745093 128.09529 
L 108.781113 128.132267 
L 108.817132 127.910404 
L 108.847149 128.021335 
L 108.967215 127.799472 
L 108.973219 127.836449 
L 109.018244 127.725517 
L 109.06627 127.762494 
L 109.13831 127.540631 
L 109.153318 127.614585 
L 109.237365 127.28179 
L 109.327414 127.170858 
L 109.468492 126.801086 
L 109.483501 126.727131 
L 109.498509 126.764109 
L 109.606569 126.357359 
L 109.612572 126.431313 
L 109.68161 126.024563 
L 109.690615 126.024563 
L 109.849703 125.39595 
L 109.852704 125.432927 
L 109.927746 125.100132 
L 109.933749 125.137109 
L 110.050814 124.841291 
L 110.053816 124.915246 
L 110.149869 124.58245 
L 110.15287 124.619428 
L 110.290947 124.286632 
L 110.29695 124.32361 
L 110.36899 123.91686 
L 110.371991 123.953837 
L 110.501063 123.473133 
L 110.522074 123.584065 
L 110.585109 123.177315 
L 110.588111 123.214292 
L 110.726187 122.807542 
L 110.729189 122.881497 
L 110.801228 122.585679 
L 110.828243 122.585679 
L 110.89428 122.474747 
L 111.044363 121.883111 
L 111.050366 121.920088 
L 111.095391 121.809156 
L 111.230466 121.180543 
L 111.269487 121.106588 
L 111.392555 120.625884 
L 111.395557 120.662861 
L 111.404562 120.699839 
L 111.476602 120.367043 
L 111.482605 120.367043 
L 111.518625 120.256112 
L 111.686718 119.553544 
L 111.734744 119.442612 
L 111.860814 119.072839 
L 111.869819 119.109817 
L 111.950864 118.850976 
L 111.953865 118.850976 
L 111.968874 118.777021 
L 112.100946 118.185385 
L 112.115955 118.222362 
L 112.175988 117.926544 
L 112.184993 117.926544 
L 112.323069 117.260954 
L 112.347082 117.150022 
L 112.497165 116.447454 
L 112.353086 117.186999 
L 112.512174 116.484431 
L 112.545192 116.3735 
L 112.695275 115.892795 
L 112.713285 115.929773 
L 112.77632 115.633955 
L 112.782323 115.633955 
L 112.932406 115.116273 
L 112.941411 115.15325 
L 113.025457 114.894409 
L 113.031461 114.968364 
L 113.151527 114.598591 
L 113.163533 114.635569 
L 113.298608 114.154864 
L 113.307613 114.191842 
L 113.37365 113.785092 
L 113.379653 113.785092 
L 113.511726 113.230433 
L 113.550747 113.26741 
L 113.598774 113.045547 
L 113.610781 113.082524 
L 113.62879 113.082524 
L 113.745855 112.675774 
L 113.748857 112.712751 
L 113.829902 112.379956 
L 113.835905 112.416933 
L 113.86292 112.306001 
L 114.013003 111.78832 
L 114.016004 111.825297 
L 114.100051 111.529479 
L 114.103052 111.529479 
L 114.259139 110.900866 
L 114.26214 110.937843 
L 114.295159 110.826911 
L 114.433235 110.161321 
L 114.580316 109.606662 
L 114.586319 109.643639 
L 114.607331 109.569685 
L 114.736402 109.08898 
L 114.784429 108.978048 
L 114.946518 108.349435 
L 114.991543 108.312458 
L 115.114611 107.794776 
L 115.141626 107.720822 
L 115.270698 107.055231 
L 115.276701 107.129186 
L 115.288707 107.018254 
L 115.453799 106.352663 
L 115.4568 106.38964 
L 115.52884 106.019868 
L 115.534843 106.019868 
L 115.693931 105.391255 
L 115.705938 105.428232 
L 115.780979 105.095437 
L 115.783981 105.132414 
L 115.913052 104.466823 
L 115.919056 104.540778 
L 115.931062 104.466823 
L 116.069139 103.764255 
L 116.081145 103.83821 
L 116.147182 103.468437 
L 116.156187 103.468437 
L 116.267248 102.950756 
L 116.285258 102.987733 
L 116.30627 102.876801 
L 116.480366 102.100279 
L 116.513384 102.026324 
L 116.65146 101.323756 
L 116.660465 101.397711 
L 116.753517 101.101893 
L 116.891593 100.769098 
L 116.894595 100.806075 
L 116.963633 100.510257 
L 116.981643 100.547234 
L 117.116717 99.918621 
L 117.131726 99.881643 
L 117.257795 99.326985 
L 117.260797 99.363962 
L 117.335838 98.957212 
L 117.33884 98.957212 
L 117.35685 98.84628 
L 117.524943 98.143712 
L 117.539951 98.18069 
L 117.602986 97.810917 
L 117.608989 97.847894 
L 117.747065 97.182304 
L 117.798094 97.071372 
L 117.91816 96.738577 
L 117.921162 96.775554 
L 117.924163 96.812531 
L 118.005208 96.590668 
L 118.017215 96.590668 
L 118.152289 96.257872 
L 118.158293 96.331827 
L 118.239337 96.036009 
L 118.242339 96.036009 
L 118.38942 95.592282 
L 118.452455 95.48135 
L 118.626551 94.66785 
L 118.635556 94.741805 
L 118.716601 94.445987 
L 118.725606 94.519941 
L 118.734611 94.40901 
L 118.863682 94.00226 
L 118.875689 94.039237 
L 118.908707 93.965282 
L 119.034777 93.447601 
L 119.037779 93.521555 
L 119.178856 93.151783 
L 119.208873 93.040851 
L 119.373964 92.301306 
L 119.376966 92.37526 
L 119.470017 91.968511 
L 119.473019 92.005488 
L 119.623102 91.524784 
L 119.647115 91.487806 
L 119.76418 91.118034 
L 119.767181 91.155011 
L 119.887248 90.859193 
L 119.896253 90.933147 
L 119.962289 90.600352 
L 119.977298 90.637329 
L 120.136385 90.045693 
L 120.139387 90.082671 
L 120.226435 89.786853 
L 120.25345 89.675921 
L 120.403533 89.195216 
L 120.409536 89.306148 
L 120.493583 88.788467 
L 120.496584 88.825444 
L 120.676684 87.974967 
L 120.679686 88.011944 
L 120.74272 87.568217 
L 120.751725 87.568217 
L 120.889802 86.865649 
L 120.895805 86.902627 
L 120.970846 86.532854 
L 120.97685 86.569831 
L 121.009868 86.495877 
L 121.135938 86.089127 
L 121.141941 86.163081 
L 121.216982 85.867263 
L 121.237994 85.904241 
L 121.364064 85.497491 
L 121.418093 85.386559 
L 121.571178 84.868877 
L 121.637214 84.794923 
L 121.664229 84.8319 
L 121.760282 84.499105 
L 121.766286 84.536082 
L 121.892355 84.203287 
L 121.904362 84.277241 
L 121.961394 83.870492 
L 121.976402 83.944446 
L 122.114478 83.167924 
L 122.11748 83.241878 
L 122.18952 82.94606 
L 122.216535 82.94606 
L 122.345606 82.502333 
L 122.357612 82.576288 
L 122.390631 82.502333 
L 122.513699 81.762788 
L 122.528707 81.799765 
L 122.53471 81.87372 
L 122.618757 81.393015 
L 122.621758 81.429993 
L 122.831874 80.209743 
L 122.855888 80.098811 
L 123.002969 79.470198 
L 123.011974 79.544153 
L 123.014976 79.58113 
L 123.090017 79.248335 
L 123.102024 79.285312 
L 123.25811 78.619721 
L 123.11403 79.322289 
L 123.264113 78.656698 
L 123.333151 78.545767 
L 123.390183 78.656698 
L 123.462223 78.286926 
L 123.477231 78.397858 
L 123.501244 78.10204 
L 123.558276 78.175994 
L 123.687347 77.510404 
L 123.708359 77.399472 
L 123.714362 77.436449 
L 123.936485 75.957359 
L 123.948491 75.883404 
L 124.086568 75.217814 
L 124.089569 75.254791 
L 124.164611 74.921996 
L 124.170614 74.921996 
L 124.404743 73.331974 
L 124.410747 73.405928 
L 124.458773 72.481497 
L 124.482786 48.298371 
L 124.503798 14.76 
L 124.57884 76.512018 
L 124.716916 88.566603 
L 124.719917 88.492649 
L 124.722919 88.529626 
L 124.773947 87.864035 
L 125.01408 84.647014 
L 125.020083 84.573059 
L 125.188176 82.465356 
L 125.395291 80.061834 
L 125.398292 80.098811 
L 125.458325 79.507175 
L 125.461327 79.507175 
L 125.470332 79.544153 
L 125.980614 72.074747 
L 126.02864 15.055818 
L 126.091675 70.669611 
L 126.205738 86.347968 
L 126.229751 86.163081 
L 126.451874 82.058606 
L 126.454876 82.095583 
L 126.499901 81.319061 
L 126.797065 76.733881 
L 127.061211 72.111724 
L 127.079221 66.602113 
L 127.121244 15.943272 
L 127.18728 67.600499 
L 127.29534 84.16631 
L 127.328358 83.870492 
L 127.829635 74.256405 
L 128.00073 70.854497 
L 128.033748 64.272546 
L 128.081775 17.496317 
L 128.144809 63.163228 
L 128.273881 82.391401 
L 128.291891 82.28047 
L 128.303897 82.169538 
L 128.468988 78.76763 
L 128.763151 74.256405 
L 129.0333 69.597271 
L 129.063317 65.16 
L 129.114345 18.272839 
L 129.180381 60.944593 
L 129.315456 81.134175 
L 129.324461 81.023243 
L 129.327463 81.06022 
L 129.369486 80.283698 
L 129.960813 63.754864 
L 130.017844 19.640998 
L 130.080879 57.061981 
L 130.230962 79.211357 
L 130.438076 75.291768 
L 130.699221 69.74518 
L 130.77126 65.455818 
L 130.837297 20.232634 
L 130.900332 56.507322 
L 131.053416 78.028085 
L 131.710779 59.835275 
L 131.773814 23.11686 
L 131.833847 50.258166 
L 131.989934 75.328745 
L 131.992935 75.439677 
L 132.07398 74.404314 
L 132.602272 59.132707 
L 132.674312 25.224563 
L 132.734345 48.298371 
L 132.893433 73.147087 
L 132.899436 73.11011 
L 132.914444 73.184065 
L 132.974477 72.777315 
L 132.977479 72.814292 
L 133.139569 69.486339 
L 133.14257 69.523316 
L 133.17859 68.746794 
L 133.181592 68.746794 
L 133.433731 63.496023 
L 133.481758 61.573206 
L 133.523781 48.668144 
L 133.580812 29.033221 
L 133.640846 45.89485 
L 133.81194 70.373793 
L 133.841957 70.558679 
L 133.895986 70.077975 
L 133.898988 70.114952 
L 134.532338 52.365869 
L 134.613383 33.988173 
L 134.667413 42.936669 
L 134.868524 67.896317 
L 134.889535 67.933294 
L 134.949568 67.600499 
L 134.95257 67.600499 
L 135.282753 62.164842 
L 135.291758 62.05391 
L 135.396816 59.465503 
L 135.501874 57.061981 
L 135.543897 57.135935 
L 135.591923 56.840117 
L 135.660961 57.283844 
L 135.811044 57.838503 
L 135.726998 57.20989 
L 135.814046 57.801526 
L 135.949121 57.098958 
L 135.847064 57.875481 
L 135.952122 57.135935 
L 136.087197 56.655231 
L 136.096202 56.729186 
L 136.25529 57.61664 
L 136.2733 57.579663 
L 136.279303 57.542685 
L 136.342338 57.801526 
L 136.372354 57.653617 
L 136.375356 57.764549 
L 136.471409 57.394776 
L 136.474411 57.468731 
L 136.585472 57.061981 
L 136.60048 57.098958 
L 136.603482 57.135935 
L 136.678524 56.692208 
L 136.825605 56.174527 
L 136.828607 56.211504 
L 136.912653 56.322436 
L 136.951674 56.544299 
L 136.993698 56.285459 
L 137.035721 56.470345 
L 137.056733 56.39639 
L 137.110762 56.544299 
L 137.173797 56.174527 
L 137.200812 56.359413 
L 137.248839 56.063595 
L 137.281857 56.13755 
L 137.299867 56.248481 
L 137.34189 56.359413 
L 137.383913 56.026618 
L 137.509983 54.991255 
L 137.518988 55.065209 
L 137.576019 54.954277 
L 137.756119 53.660073 
L 137.783134 53.771005 
L 137.933217 54.991255 
L 137.93922 54.880323 
L 137.981243 54.769391 
L 138.134328 54.177755 
L 138.137329 54.214732 
L 138.212371 54.325664 
L 138.449502 56.988026 
L 138.50053 56.581277 
L 138.641608 55.841731 
L 138.68063 55.7308 
L 138.722653 55.434982 
L 138.779684 55.767777 
L 138.785688 55.767777 
L 138.788689 55.841731 
L 138.872736 55.176141 
L 139.13388 52.994483 
L 139.15189 53.068437 
L 139.268955 53.475187 
L 139.289966 53.401233 
L 139.307976 53.364255 
L 139.377014 53.697051 
L 139.398026 53.807982 
L 139.401028 53.84496 
L 139.473067 53.401233 
L 139.479071 53.475187 
L 139.515091 53.364255 
L 139.557114 53.734028 
L 139.566119 53.734028 
L 139.644162 53.84496 
L 139.596135 53.586119 
L 139.671177 53.697051 
L 139.899303 52.180983 
L 139.680182 53.734028 
L 139.902304 52.21796 
L 139.953333 51.95912 
L 140.127429 53.623096 
L 140.133432 53.734028 
L 140.286517 54.362641 
L 140.29252 54.325664 
L 140.349552 54.140778 
L 140.397578 54.362641 
L 140.40058 54.325664 
L 140.41859 54.436596 
L 140.45461 54.177755 
L 140.502636 54.251709 
L 140.643714 53.734028 
L 140.649717 53.807982 
L 140.652719 53.84496 
L 140.709751 53.253324 
L 140.841823 52.439824 
L 140.928872 51.293529 
L 140.991906 51.95912 
L 141.024925 52.070051 
L 141.214029 53.142392 
L 141.048938 52.033074 
L 141.220032 53.105415 
L 141.232039 52.957506 
L 141.301077 53.43821 
L 141.385124 53.290301 
L 141.466168 54.1038 
L 141.673283 52.809596 
L 141.679286 52.846574 
L 141.766334 52.735642 
L 141.802354 53.03146 
L 141.805356 52.957506 
L 141.856384 53.253324 
L 141.910414 53.03146 
L 141.913415 53.179369 
L 141.973449 52.513778 
L 142.01247 52.62471 
L 142.240596 54.066823 
L 142.306633 53.992869 
L 142.450712 52.809596 
L 142.462719 52.846574 
L 142.597794 52.957506 
L 142.68184 53.43821 
L 142.723863 53.142392 
L 142.765886 52.920528 
L 142.819916 53.290301 
L 142.879949 53.401233 
L 142.906964 53.105415 
L 142.912968 53.105415 
L 143.036036 52.513778 
L 143.039037 52.550756 
L 143.057047 52.402847 
L 143.129087 52.772619 
L 143.138092 52.661687 
L 143.237147 52.883551 
L 143.252155 52.772619 
L 143.294178 52.661687 
L 143.342205 52.846574 
L 143.354211 52.809596 
L 143.375223 52.957506 
L 143.432254 52.587733 
L 143.456268 52.661687 
L 143.600347 51.737256 
L 143.603349 51.774233 
L 143.633366 51.885165 
L 143.720414 52.107029 
L 143.744427 51.885165 
L 143.774444 51.663302 
L 143.861492 51.811211 
L 143.885505 51.737256 
L 143.94854 51.515393 
L 143.981558 51.848188 
L 143.993565 51.811211 
L 144.113631 52.291915 
L 144.119634 52.21796 
L 144.284725 50.849802 
L 144.287727 50.886779 
L 144.344759 50.221189 
L 144.422802 49.814439 
L 144.479833 49.925371 
L 144.512851 50.036302 
L 144.761989 52.254938 
L 144.783001 52.033074 
L 144.975107 50.886779 
L 144.984112 50.923756 
L 144.99912 50.775847 
L 145.12519 51.663302 
L 145.128191 51.626324 
L 145.197229 52.107029 
L 145.203233 52.070051 
L 145.251259 51.95912 
L 145.368324 51.293529 
L 145.389336 51.589347 
L 145.446367 52.033074 
L 145.521409 51.848188 
L 145.584443 51.737256 
L 145.647478 51.071665 
L 145.701508 51.478415 
L 145.818573 51.256552 
L 145.743531 51.589347 
L 145.827578 51.293529 
L 145.839584 51.182597 
L 145.974659 50.369098 
L 146.004676 50.517007 
L 146.043697 50.590961 
L 146.148755 51.108643 
L 146.166765 51.034688 
L 146.262818 51.367483 
L 146.286831 51.182597 
L 146.424908 50.184211 
L 146.433913 50.221189 
L 146.478938 50.369098 
L 146.514957 49.888393 
L 146.517959 49.925371 
L 146.599004 49.66653 
L 146.523962 49.962348 
L 146.632022 49.777461 
L 146.749087 50.07328 
L 146.7731 50.036302 
L 146.815123 50.553984 
L 146.893166 50.775847 
L 146.920181 50.443052 
L 147.079269 49.629552 
L 147.091276 49.66653 
L 147.100281 49.740484 
L 147.148307 49.407689 
L 147.187329 49.481643 
L 147.250364 49.370712 
L 147.28038 49.814439 
L 147.283382 49.814439 
L 147.433465 50.775847 
L 147.529518 50.33212 
L 147.451475 50.886779 
L 147.568539 50.480029 
L 147.583548 50.553984 
L 147.628573 50.627938 
L 147.670596 50.33212 
L 147.682602 50.33212 
L 147.772652 50.258166 
L 147.742636 50.406075 
L 147.790662 50.33212 
L 147.802669 50.369098 
L 147.856699 50.110257 
L 147.886715 50.147234 
L 147.925737 49.814439 
L 147.973763 50.258166 
L 147.98577 50.258166 
L 148.102835 50.553984 
L 148.117843 50.517007 
L 148.165869 50.627938 
L 148.177876 50.664916 
L 148.237909 50.147234 
L 148.276931 50.110257 
L 148.403 49.370712 
L 148.526068 49.925371 
L 148.52907 49.888393 
L 148.586102 50.480029 
L 148.595107 50.443052 
L 148.613117 50.480029 
L 148.664145 50.110257 
L 148.679153 50.110257 
L 148.706168 50.036302 
L 148.868257 48.557212 
L 148.874261 48.594189 
L 149.024344 49.222803 
L 149.027345 49.148848 
L 149.030347 49.074894 
L 149.093382 49.629552 
L 149.120397 49.481643 
L 149.21645 50.221189 
L 149.25247 50.036302 
L 149.447577 48.816053 
L 149.456582 48.85303 
L 149.612669 49.740484 
L 149.627677 49.592575 
L 149.840795 47.004167 
L 149.843796 47.041145 
L 149.90383 46.56044 
L 149.918838 46.597417 
L 149.939849 46.708349 
L 150.246019 49.296757 
L 150.255024 49.222803 
L 150.258025 49.185825 
L 150.336068 49.555598 
L 150.342072 49.518621 
L 150.351077 49.592575 
L 150.432121 50.33212 
L 150.471143 49.925371 
L 150.645239 48.150462 
L 150.651242 48.187439 
L 150.678257 48.261394 
L 150.711276 48.372326 
L 150.732287 48.150462 
L 150.786317 48.187439 
L 150.822337 48.298371 
L 150.825339 48.335348 
L 150.885372 47.743712 
L 150.888373 47.743712 
L 150.963415 46.96719 
L 151.014443 47.484872 
L 151.161524 48.816053 
L 151.290596 49.777461 
L 151.308606 49.740484 
L 151.344625 49.851416 
L 151.347627 49.888393 
L 151.419667 49.444666 
L 151.521723 48.150462 
L 151.575753 48.261394 
L 151.584758 48.298371 
L 151.650795 47.817667 
L 151.662801 47.78069 
L 151.752851 47.004167 
L 151.791873 47.078122 
L 151.818887 46.96719 
L 151.866914 47.521849 
L 151.983979 47.410917 
L 152.00499 47.37394 
L 152.056018 47.521849 
L 152.092038 47.447894 
L 152.098042 47.37394 
L 152.260131 48.150462 
L 152.263133 48.113485 
L 152.317163 48.668144 
L 152.329169 48.668144 
L 152.482254 49.370712 
L 152.347179 48.594189 
L 152.491259 49.333734 
L 152.749401 47.226031 
L 152.770413 47.263008 
L 152.944509 48.187439 
L 152.950513 48.150462 
L 153.151624 46.96719 
L 153.013547 48.261394 
L 153.154625 47.004167 
L 153.196649 47.115099 
L 153.370745 47.928599 
L 153.409766 47.817667 
L 153.445786 48.076508 
L 153.475803 48.03953 
L 153.478804 48.076508 
L 153.538838 47.595803 
L 153.574857 47.891621 
L 153.682917 47.336963 
L 153.589866 48.002553 
L 153.700927 47.410917 
L 153.709932 47.521849 
L 153.799982 47.041145 
L 153.802983 47.078122 
L 153.811988 46.893236 
L 153.860015 47.299985 
L 153.902038 47.189054 
L 153.911043 47.263008 
L 153.989086 46.671372 
L 154.070131 46.15369 
L 154.112154 46.523463 
L 154.187196 47.37394 
L 154.250231 47.189054 
L 154.352287 46.930213 
L 154.28625 47.226031 
L 154.367295 47.078122 
L 154.493365 47.410917 
L 154.499368 47.336963 
L 154.535388 47.226031 
L 154.541391 47.115099 
L 154.619435 47.558826 
L 154.625438 47.484872 
L 154.787527 48.224417 
L 154.790529 48.150462 
L 154.811541 48.03953 
L 155.006648 45.968804 
L 155.015653 46.042759 
L 155.08169 45.266236 
L 155.093696 45.377168 
L 155.13572 45.229259 
L 155.180745 45.672986 
L 155.426881 47.37394 
L 155.429882 47.336963 
L 155.492917 47.669758 
L 155.531939 47.447894 
L 155.667013 47.928599 
L 155.676018 47.891621 
L 155.949169 44.822509 
L 156.006201 45.192282 
L 156.024211 45.266236 
L 156.216317 47.299985 
L 156.219318 47.263008 
L 156.27635 47.817667 
L 156.279351 47.817667 
L 156.324376 48.076508 
L 156.381408 47.595803 
L 156.399418 47.521849 
L 156.459451 47.041145 
L 156.528489 47.078122 
L 156.531491 47.115099 
L 156.591524 46.523463 
L 156.597527 46.597417 
L 156.774625 45.044373 
L 156.804642 45.340191 
L 156.948721 46.15369 
L 156.969733 46.338577 
L 157.044774 45.968804 
L 157.092801 45.562054 
L 157.152834 46.005781 
L 157.179849 46.116713 
L 157.230877 46.264622 
L 157.278904 46.079736 
L 157.287909 46.079736 
L 157.323929 46.005781 
L 157.335935 45.89485 
L 157.407975 46.671372 
L 157.410977 46.634395 
L 157.449998 46.96719 
L 157.495023 46.930213 
L 157.50703 46.96719 
L 157.558058 46.449508 
L 157.56106 46.449508 
L 157.687129 45.118327 
L 157.714144 45.414145 
L 157.726151 45.525077 
L 157.915255 46.597417 
L 157.918257 46.56044 
L 158.083348 45.89485 
L 158.089351 45.783918 
L 158.245438 44.6746 
L 158.284459 44.748555 
L 158.353497 44.859486 
L 158.59363 46.449508 
L 158.617643 46.375554 
L 158.66567 46.671372 
L 158.698688 46.523463 
L 158.713696 46.597417 
L 158.716698 46.671372 
L 158.794741 45.857872 
L 158.887792 44.970418 
L 158.950827 45.266236 
L 159.016864 45.451123 
L 159.043879 45.229259 
L 159.06489 45.303213 
L 159.091905 45.192282 
L 159.13693 44.822509 
L 159.202967 45.08135 
L 159.211972 45.007395 
L 159.347046 45.89485 
L 159.401076 45.783918 
L 159.611192 44.563668 
L 159.647212 44.489714 
L 159.66222 44.230873 
L 159.740263 44.859486 
L 159.890346 45.857872 
L 159.911358 45.746941 
L 160.061441 44.785532 
L 160.181507 44.415759 
L 160.073447 44.822509 
L 160.199517 44.452737 
L 160.355603 45.414145 
L 160.376615 45.266236 
L 160.400628 45.192282 
L 160.514691 44.600646 
L 160.529699 44.748555 
L 160.604741 45.229259 
L 160.649766 44.970418 
L 160.688787 44.748555 
L 160.757825 45.08135 
L 160.799849 45.562054 
L 160.859882 44.970418 
L 160.949932 44.082964 
L 160.991955 44.452737 
L 160.994956 44.415759 
L 161.05499 45.044373 
L 161.057991 45.007395 
L 161.130031 46.042759 
L 161.184061 45.377168 
L 161.193066 45.303213 
L 161.337146 44.378782 
L 161.340147 44.415759 
L 161.367162 44.341805 
L 161.460213 43.972032 
L 161.484227 44.045987 
L 161.595288 44.452737 
L 161.514243 44.00901 
L 161.613298 44.26785 
L 161.63431 44.156919 
L 161.793398 43.380396 
L 161.799401 43.454351 
L 161.805404 43.417373 
L 162.05154 45.229259 
L 162.243646 44.156919 
L 162.246648 44.193896 
L 162.273663 44.304828 
L 162.333696 44.230873 
L 162.414741 45.08135 
L 162.423746 45.192282 
L 162.549815 45.783918 
L 162.570827 45.636009 
L 162.759931 44.526691 
L 162.765935 44.600646 
L 162.795951 44.489714 
L 162.81096 44.378782 
L 162.876996 44.711577 
L 162.907013 44.489714 
L 162.910014 44.526691 
L 162.955039 43.787146 
L 162.958041 43.787146 
L 162.997062 43.491328 
L 163.048091 44.156919 
L 163.054094 44.156919 
L 163.216184 45.414145 
L 163.243198 45.303213 
L 163.369268 44.822509 
L 163.37227 44.859486 
L 163.393281 44.748555 
L 163.684442 42.418988 
L 163.840528 44.156919 
L 163.849533 44.230873 
L 163.930578 45.044373 
L 163.98761 45.007395 
L 164.137693 43.676214 
L 164.149699 43.713191 
L 164.179716 43.60226 
L 164.36882 42.640851 
L 164.626963 44.600646 
L 164.632966 44.526691 
L 164.828074 43.19551 
L 164.641971 44.563668 
L 164.843082 43.306442 
L 164.861092 43.380396 
L 164.900114 43.639237 
L 164.96615 43.306442 
L 164.996167 42.862715 
L 165.077212 43.269464 
L 165.095222 43.380396 
L 165.155255 43.898078 
L 165.212286 43.565282 
L 165.230296 43.454351 
L 165.314343 42.862715 
L 165.257311 43.491328 
L 165.365371 43.084578 
L 165.506449 44.082964 
L 165.512452 44.00901 
L 165.515454 44.00901 
L 165.647527 42.899692 
L 165.68955 42.936669 
L 165.794608 43.750169 
L 165.815619 43.491328 
L 165.830628 43.343419 
L 165.905669 43.750169 
L 165.926681 43.861101 
L 166.037742 44.341805 
L 166.061755 44.193896 
L 166.154807 43.380396 
L 166.19683 43.60226 
L 166.211838 43.676214 
L 166.21484 43.750169 
L 166.28688 43.19551 
L 166.30489 43.232487 
L 166.334906 42.862715 
L 166.397941 43.306442 
L 166.406946 43.306442 
L 166.463978 43.417373 
L 166.509003 43.269464 
L 166.632071 42.825737 
L 166.641075 42.862715 
L 166.6861 42.234101 
L 166.695105 42.271079 
L 166.764143 41.97526 
L 166.800163 42.345033 
L 166.803165 42.345033 
L 166.917228 42.640851 
L 166.860197 42.160147 
L 166.932236 42.566897 
L 166.947245 42.677828 
L 166.998273 43.084578 
L 167.064309 42.751783 
L 167.091324 42.566897 
L 167.166366 42.862715 
L 167.172369 42.825737 
L 167.178372 42.78876 
L 167.253414 43.158533 
L 167.313447 43.713191 
L 167.370478 43.306442 
L 167.436515 43.084578 
L 167.520561 43.787146 
L 167.628621 43.676214 
L 167.766697 42.492942 
L 167.769699 42.566897 
L 167.904774 41.383624 
L 167.919782 41.605488 
L 168.069865 42.566897 
L 168.111888 42.529919 
L 168.303994 44.082964 
L 168.309997 44.045987 
L 168.382037 44.341805 
L 168.400047 44.26785 
L 168.42406 44.193896 
L 168.619168 41.864329 
L 168.62217 41.97526 
L 168.847294 43.454351 
L 168.850296 43.417373 
L 168.874309 43.306442 
L 168.976366 42.751783 
L 169.009384 42.973646 
L 169.048405 43.306442 
L 169.108439 42.825737 
L 169.300545 41.568511 
L 169.312551 41.642465 
L 169.321556 41.71642 
L 169.387593 41.346647 
L 169.399599 41.383624 
L 169.447626 41.013852 
L 169.510661 41.383624 
L 169.645735 42.123169 
L 169.648737 42.049215 
L 169.822833 43.047601 
L 169.693762 41.938283 
L 169.837841 43.010624 
L 169.864856 42.825737 
L 169.936896 43.454351 
L 169.969914 43.306442 
L 170.068969 43.750169 
L 170.32411 41.864329 
L 170.327112 41.938283 
L 170.384143 41.827351 
L 170.43217 41.161761 
L 170.50421 41.494556 
L 170.717327 42.899692 
L 170.726332 42.862715 
L 170.774359 42.78876 
L 170.924442 41.30967 
L 170.942452 41.346647 
L 170.945453 41.420602 
L 171.017493 40.939897 
L 171.035503 40.976875 
L 171.050511 40.865943 
L 171.116548 41.272693 
L 171.125553 41.235715 
L 171.338671 43.19551 
L 171.131556 41.198738 
L 171.371689 42.936669 
L 171.521772 41.457579 
L 171.620826 40.939897 
L 171.647841 41.198738 
L 171.659848 41.383624 
L 171.749898 41.050829 
L 171.752899 41.050829 
L 171.758903 40.976875 
L 171.824939 41.531533 
L 171.960014 42.197124 
L 171.97202 42.123169 
L 172.101092 40.939897 
L 172.104093 40.976875 
L 172.227161 41.827351 
L 172.275188 41.71642 
L 172.314209 41.605488 
L 172.386249 40.828966 
L 172.461291 41.013852 
L 172.515321 40.828966 
L 172.575354 41.198738 
L 172.725437 42.197124 
L 172.617377 41.161761 
L 172.746448 41.97526 
L 172.87552 41.124784 
L 172.890528 41.161761 
L 172.971573 41.124784 
L 172.974574 41.013852 
L 173.067626 41.605488 
L 173.100644 41.71642 
L 173.175685 42.345033 
L 173.250727 42.197124 
L 173.45484 39.904534 
L 173.466846 39.793602 
L 173.532883 40.200352 
L 173.538886 40.163375 
L 173.679964 41.087806 
L 173.685967 41.050829 
L 173.785022 41.568511 
L 173.706979 40.976875 
L 173.81804 41.383624 
L 173.884077 40.976875 
L 173.935105 41.124784 
L 174.088189 41.827351 
L 174.100196 41.790374 
L 174.133214 41.753397 
L 174.274292 40.533147 
L 174.39736 40.865943 
L 174.412369 40.939897 
L 174.520428 42.123169 
L 174.565453 41.97526 
L 174.760561 38.832194 
L 174.769566 38.721262 
L 174.838604 39.201966 
L 174.841606 39.201966 
L 174.982684 40.828966 
L 175.10275 40.570125 
L 175.003695 40.939897 
L 175.105752 40.607102 
L 175.285851 42.38201 
L 175.435934 40.718034 
L 175.504972 40.976875 
L 175.522982 41.087806 
L 175.571009 40.90292 
L 175.616033 40.976875 
L 175.62804 40.865943 
L 175.781125 39.275921 
L 175.796133 39.460807 
L 175.820146 39.571739 
L 175.898189 40.237329 
L 175.961224 39.978489 
L 176.060279 39.608716 
L 176.084292 39.83058 
L 176.201357 41.30967 
L 176.258388 40.607102 
L 176.38746 39.867557 
L 176.396465 39.941511 
L 176.480511 39.682671 
L 176.510528 39.978489 
L 176.564557 40.08942 
L 176.657609 40.681056 
L 176.684624 40.422216 
L 176.780677 39.497784 
L 176.80469 39.867557 
L 176.816697 39.941511 
L 176.849715 40.163375 
L 176.888737 39.904534 
L 176.927758 39.941511 
L 177.095851 39.238944 
L 177.119864 39.238944 
L 177.25794 40.607102 
L 177.362998 41.013852 
L 177.281954 40.49617 
L 177.387012 40.828966 
L 177.396017 40.718034 
L 177.609134 39.054057 
L 177.627144 39.201966 
L 177.729201 40.052443 
L 177.786232 39.83058 
L 177.789234 39.793602 
L 177.849267 40.163375 
L 177.876282 40.052443 
L 177.882285 40.08942 
L 177.915304 39.571739 
L 177.966332 39.83058 
L 178.023363 39.682671 
L 178.05338 40.015466 
L 178.062385 40.015466 
L 178.182451 40.533147 
L 178.083396 39.978489 
L 178.203463 40.459193 
L 178.392567 38.499398 
L 178.419582 38.61033 
L 178.590677 40.755011 
L 178.671721 40.385238 
L 178.689731 40.422216 
L 178.920859 38.684285 
L 178.938869 38.573353 
L 178.941871 38.536376 
L 179.001904 38.869171 
L 179.028919 38.832194 
L 179.160992 39.608716 
L 179.06794 38.61033 
L 179.197012 39.534762 
L 179.28406 39.608716 
L 179.377111 39.867557 
L 179.398123 39.682671 
L 179.437144 39.571739 
L 179.446149 39.42383 
L 179.503181 40.052443 
L 179.533197 39.941511 
L 179.596232 40.052443 
L 179.743313 40.718034 
L 179.752318 40.681056 
L 179.8994 39.312898 
L 179.914408 39.386853 
L 179.965436 39.497784 
L 180.040478 40.08942 
L 180.082501 39.756625 
L 180.196564 39.682671 
L 180.319632 38.758239 
L 180.331638 38.795216 
L 180.340643 38.869171 
L 180.385668 39.164989 
L 180.457708 39.01708 
L 180.46071 38.943125 
L 180.544756 39.312898 
L 180.553761 39.238944 
L 180.556763 39.349875 
L 180.622799 38.758239 
L 180.652816 38.832194 
L 180.715851 38.943125 
L 180.766879 39.238944 
L 180.832915 39.128012 
L 180.865934 38.980103 
L 180.910958 39.534762 
L 180.91396 39.497784 
L 181.001008 40.681056 
L 181.04003 40.311284 
L 181.208123 38.499398 
L 181.223131 38.536376 
L 181.304176 38.425444 
L 181.394225 37.685899 
L 181.427244 38.240558 
L 181.556315 39.497784 
L 181.562318 39.42383 
L 181.586332 39.534762 
L 181.628355 38.906148 
L 181.751423 37.464035 
L 181.775436 37.501012 
L 181.799449 37.611944 
L 181.949532 38.573353 
L 181.970544 38.462421 
L 182.033579 38.20358 
L 182.078603 38.573353 
L 182.09061 38.684285 
L 182.138637 39.238944 
L 182.201671 38.684285 
L 182.261705 38.573353 
L 182.336746 38.499398 
L 182.363761 38.647307 
L 182.369764 38.61033 
L 182.447807 39.386853 
L 182.486829 38.684285 
L 182.639914 37.648921 
L 182.65192 37.574967 
L 182.681937 37.279149 
L 182.732965 37.907762 
L 182.747973 37.907762 
L 182.780991 37.870785 
L 182.829018 37.685899 
L 182.880046 38.166603 
L 183.009118 38.61033 
L 183.054142 38.758239 
L 183.19522 37.685899 
L 183.225237 37.611944 
L 183.270262 37.870785 
L 183.342302 37.427058 
L 183.519399 38.240558 
L 183.522401 38.20358 
L 183.600444 38.61033 
L 183.705502 38.980103 
L 183.729515 38.832194 
L 183.984656 36.576581 
L 184.011671 36.72449 
L 184.035685 36.835422 
L 184.182766 38.20358 
L 184.248802 38.129626 
L 184.287824 37.981717 
L 184.314839 38.277535 
L 184.356862 38.166603 
L 184.446912 38.684285 
L 184.491937 38.536376 
L 184.599996 37.870785 
L 184.627011 37.94474 
L 184.633015 37.981717 
L 184.753081 38.573353 
L 184.756083 38.499398 
L 184.906165 37.870785 
L 184.912169 37.907762 
L 185.014225 38.166603 
L 185.032235 38.092649 
L 185.146298 37.722876 
L 185.044242 38.129626 
L 185.152301 37.796831 
L 185.254358 38.277535 
L 185.284374 38.055671 
L 185.332401 37.648921 
L 185.410444 37.870785 
L 185.431456 37.907762 
L 185.482484 37.53799 
L 185.491489 37.53799 
L 185.515502 37.427058 
L 185.58454 37.722876 
L 185.596547 37.685899 
L 185.608553 37.611944 
L 185.716613 37.057285 
L 185.737625 37.13124 
L 185.749631 37.205194 
L 185.893711 38.018694 
L 185.911721 38.129626 
L 186.010776 38.573353 
L 186.034789 38.425444 
L 186.250908 37.13124 
L 186.27192 37.057285 
L 186.39799 36.687513 
L 186.476033 36.650536 
L 186.419001 36.835422 
L 186.503048 36.761467 
L 186.518056 36.835422 
L 186.638122 37.242172 
L 186.644126 37.205194 
L 186.752185 37.316126 
L 186.710162 36.835422 
L 186.758189 37.279149 
L 186.929283 36.465649 
L 186.956298 36.354718 
L 187.049349 36.798445 
L 187.058354 36.909376 
L 187.187426 37.390081 
L 187.208437 37.501012 
L 187.325502 36.72449 
L 187.334507 36.650536 
L 187.43056 36.465649 
L 187.367525 36.72449 
L 187.44857 36.576581 
L 187.472583 36.465649 
L 187.526613 36.909376 
L 187.532616 36.909376 
L 187.568636 36.983331 
L 187.604656 36.872399 
L 187.712716 37.870785 
L 187.835784 37.611944 
L 187.742732 38.018694 
L 187.838786 37.685899 
L 187.898819 37.574967 
L 188.048902 36.613558 
L 188.114938 36.280763 
L 188.219996 37.390081 
L 188.274026 37.168217 
L 188.316049 37.574967 
L 188.403097 37.796831 
L 188.430112 37.648921 
L 188.472135 37.907762 
L 188.529167 37.574967 
L 188.652235 36.391695 
L 188.682251 36.539604 
L 188.685253 36.502627 
L 188.712268 36.687513 
L 188.784308 36.613558 
L 188.820328 36.798445 
L 188.856348 36.280763 
L 188.874358 36.391695 
L 188.988421 36.243786 
L 188.943396 36.502627 
L 188.991422 36.31774 
L 189.021439 36.206809 
L 189.075469 35.91099 
L 189.126497 36.280763 
L 189.135502 36.391695 
L 189.246563 37.13124 
L 189.282583 36.835422 
L 189.300593 36.761467 
L 189.453678 35.578195 
L 189.456679 35.615172 
L 189.666795 37.094263 
L 189.678802 36.983331 
L 189.849896 36.095877 
L 189.8559 36.132854 
L 189.867906 36.206809 
L 189.888918 36.169831 
L 190.026994 73.886632 
L 190.27313 85.571445 
L 190.633329 91.746647 
L 190.642334 91.857579 
L 190.822434 93.669464 
L 190.825435 93.632487 
L 191.236663 97.330213 
L 191.251671 97.441145 
L 191.497807 99.142098 
L 191.50381 99.068144 
L 191.581853 99.474894 
L 191.584855 99.400939 
L 191.779963 100.436302 
L 191.852002 100.547234 
L 191.987077 101.13887 
L 191.99308 101.064916 
L 192.059117 101.471665 
L 192.071124 101.471665 
L 192.203197 102.100279 
L 192.206198 102.063302 
L 192.374291 102.765869 
L 192.383296 102.691915 
L 192.461339 102.876801 
L 192.476347 102.839824 
L 192.614424 103.209596 
L 192.632434 103.172619 
L 192.689465 103.616346 
L 192.848553 104.207982 
L 192.944606 104.023096 
L 192.965618 104.060073 
L 192.983628 104.023096 
L 193.085684 104.355891 
L 193.124706 104.24496 
L 193.175734 104.392869 
L 193.196745 104.355891 
L 193.298802 104.5038 
L 193.202749 104.318914 
L 193.316812 104.466823 
L 193.460891 104.540778 
L 193.481903 104.688687 
L 193.571953 104.577755 
L 193.710029 104.688687 
L 193.764059 104.799618 
L 193.82109 104.725664 
L 193.917143 104.5038 
L 193.833097 104.762641 
L 193.941157 104.577755 
L 194.067226 104.762641 
L 194.109249 104.577755 
L 194.136264 104.836596 
L 194.178288 104.762641 
L 194.235319 104.873573 
L 194.358387 105.169391 
L 194.241322 104.836596 
L 194.36439 105.095437 
L 194.412417 104.984505 
L 194.499465 104.762641 
L 194.532483 104.873573 
L 194.601521 104.984505 
L 194.643545 104.873573 
L 194.646546 104.836596 
L 194.658553 104.947528 
L 194.751604 104.91055 
L 194.832649 105.021482 
L 194.940709 105.169391 
L 194.949714 105.095437 
L 195.021754 105.058459 
L 195.045767 105.206368 
L 195.05177 105.206368 
L 195.060775 105.280323 
L 195.132815 105.021482 
L 195.150825 105.095437 
L 195.204855 105.021482 
L 195.240875 105.169391 
L 195.255883 105.169391 
L 195.318918 105.280323 
L 195.366944 105.243346 
L 195.484009 105.095437 
L 195.52303 105.206368 
L 195.574059 104.947528 
L 195.592069 105.058459 
L 195.634092 104.984505 
L 195.652102 104.836596 
L 195.745153 104.91055 
L 195.862218 105.095437 
L 195.868221 105.058459 
L 195.892234 105.132414 
L 195.895236 105.206368 
L 195.898238 105.058459 
L 196.000294 105.095437 
L 196.003296 105.058459 
L 196.087342 105.391255 
L 196.090344 105.354277 
L 196.15638 105.465209 
L 196.291455 105.871959 
L 196.294457 105.834982 
L 196.309465 105.798004 
L 196.357491 105.982891 
L 196.396513 105.945913 
L 196.40852 105.908936 
L 196.513578 106.167777 
L 196.567607 106.019868 
L 196.618636 106.352663 
L 196.645651 106.278709 
L 196.705684 106.53755 
L 196.71769 106.500572 
L 196.864772 106.944299 
L 196.882782 106.907322 
L 196.954821 107.166163 
L 196.963826 107.092208 
L 197.056878 107.20314 
L 197.038868 107.055231 
L 197.074888 107.166163 
L 197.107906 107.092208 
L 197.152931 107.314072 
L 197.173942 107.314072 
L 197.251986 107.425004 
L 197.266994 107.388026 
L 197.378055 107.60989 
L 197.393063 107.535935 
L 197.462102 107.683844 
L 197.486115 107.646867 
L 197.546148 107.757799 
L 197.639199 108.053617 
L 197.669216 107.905708 
L 197.819299 107.314072 
L 197.825302 107.351049 
L 197.909349 107.314072 
L 198.02041 107.092208 
L 198.023412 107.129186 
L 198.12847 106.944299 
L 198.047425 107.20314 
L 198.137475 107.055231 
L 198.278553 106.685459 
L 198.377607 106.79639 
L 198.296563 106.648481 
L 198.392616 106.722436 
L 198.434639 106.833368 
L 198.47366 106.981277 
L 198.440642 106.79639 
L 198.548702 106.944299 
L 198.662765 106.722436 
L 198.692781 106.833368 
L 198.74381 106.648481 
L 198.770825 106.648481 
L 198.881886 106.500572 
L 198.782831 106.685459 
L 198.887889 106.53755 
L 198.896894 106.463595 
L 199.007956 106.648481 
L 199.116015 106.38964 
L 199.134025 106.463595 
L 199.239083 106.574527 
L 199.2691 106.611504 
L 199.332135 106.426618 
L 199.34114 106.463595 
L 199.506231 106.352663 
L 199.560261 106.315686 
L 199.542251 106.463595 
L 199.614291 106.38964 
L 199.647309 106.278709 
L 199.659315 106.315686 
L 199.770377 106.056845 
L 199.773378 106.1308 
L 199.860427 105.908936 
L 199.875435 105.945913 
L 199.947475 105.834982 
L 199.95648 105.72405 
L 199.953478 105.871959 
L 200.055534 105.871959 
L 200.058536 105.908936 
L 200.112566 105.72405 
L 200.163594 105.871959 
L 200.190609 105.761027 
L 200.244639 105.945913 
L 200.274655 105.871959 
L 201.100111 105.761027 
L 201.214174 105.539164 
L 201.223179 105.613118 
L 201.457309 105.72405 
L 201.529348 105.798004 
L 201.562367 105.650095 
L 201.64041 105.539164 
L 201.652416 105.502186 
L 201.691438 105.687073 
L 201.739465 105.613118 
L 201.790493 105.687073 
L 201.754473 105.576141 
L 201.850526 105.613118 
L 201.871537 105.650095 
L 201.964589 105.502186 
L 201.988602 105.539164 
L 202.09366 105.761027 
L 202.102665 105.72405 
L 202.108668 105.761027 
L 202.225733 105.539164 
L 202.258751 105.613118 
L 202.294771 105.502186 
L 202.336795 105.576141 
L 202.447856 105.428232 
L 202.456861 105.465209 
L 202.492881 105.539164 
L 202.540907 105.354277 
L 202.561919 105.354277 
L 202.65497 105.243346 
L 202.603942 105.428232 
L 202.675982 105.3173 
L 202.778038 105.206368 
L 202.820061 105.095437 
L 202.850078 105.243346 
L 202.8891 105.206368 
L 203.003163 105.539164 
L 202.898105 105.169391 
L 203.021173 105.502186 
L 203.075202 105.613118 
L 203.144241 105.354277 
L 203.195269 105.465209 
L 203.159249 105.3173 
L 203.255302 105.354277 
L 203.300327 105.243346 
L 203.363362 105.280323 
L 203.423395 105.095437 
L 203.462416 105.132414 
L 203.474423 105.021482 
L 203.534456 105.095437 
L 203.549464 105.206368 
L 203.648519 104.91055 
L 203.699547 104.984505 
L 203.726562 104.836596 
L 203.756579 104.873573 
L 203.75958 104.836596 
L 203.837624 105.095437 
L 203.852632 105.058459 
L 203.86764 105.132414 
L 203.963693 105.3173 
L 203.981703 105.243346 
L 204.002715 105.3173 
L 204.107773 105.502186 
L 204.008718 105.280323 
L 204.119779 105.465209 
L 204.164804 105.576141 
L 204.299879 105.908936 
L 204.35691 105.871959 
L 204.368917 105.982891 
L 204.407939 105.908936 
L 204.416944 105.834982 
L 204.531007 106.056845 
L 204.57303 106.019868 
L 204.576031 105.908936 
L 204.678088 106.241731 
L 204.735119 106.167777 
L 204.777143 106.352663 
L 204.786148 106.241731 
L 204.873196 106.315686 
L 204.897209 106.278709 
L 205.005269 106.167777 
L 205.02628 106.093822 
L 205.107325 106.38964 
L 205.164357 106.500572 
L 205.173361 106.426618 
L 205.275418 106.53755 
L 205.353461 106.426618 
L 205.389481 106.463595 
L 205.485534 106.574527 
L 205.503544 106.53755 
L 205.617607 106.870345 
L 205.69565 106.722436 
L 205.728668 106.79639 
L 205.734672 106.870345 
L 205.779696 106.722436 
L 205.836728 106.759413 
L 205.887756 106.648481 
L 205.932781 106.870345 
L 205.938784 106.870345 
L 206.082864 107.314072 
L 206.100874 107.240117 
L 206.175915 107.498958 
L 206.18492 107.388026 
L 206.268967 107.535935 
L 206.217939 107.351049 
L 206.301985 107.461981 
L 206.425053 107.166163 
L 206.506098 107.535935 
L 206.554124 107.498958 
L 206.572134 107.388026 
L 206.611156 107.535935 
L 206.665186 107.498958 
L 206.71021 107.572913 
L 206.827275 107.720822 
L 206.950343 107.905708 
L 206.953345 107.868731 
L 206.971355 107.979663 
L 207.058403 107.905708 
L 207.115434 107.831753 
L 207.169464 107.979663 
L 207.274522 107.831753 
L 207.283527 107.905708 
L 207.385584 107.831753 
L 207.364572 107.942685 
L 207.39759 107.868731 
L 207.50565 107.905708 
L 207.4156 107.831753 
L 207.508652 107.868731 
L 207.526661 107.979663 
L 207.538668 108.01664 
L 207.589696 107.905708 
L 207.63172 107.905708 
L 207.808817 107.979663 
L 207.928884 108.349435 
L 207.931885 108.312458 
L 208.006927 108.238503 
L 208.036943 108.164549 
L 208.054953 108.275481 
L 208.117988 108.238503 
L 208.135998 108.164549 
L 208.190028 108.386412 
L 208.229049 108.238503 
L 208.262068 108.312458 
L 208.301089 108.386412 
L 208.340111 108.238503 
L 208.370127 108.312458 
L 208.487192 108.127572 
L 208.541222 108.053617 
L 208.661288 107.794776 
L 208.733328 107.720822 
L 208.871404 107.055231 
L 208.880409 107.092208 
L 209.006479 106.759413 
L 209.078519 106.685459 
L 209.15356 106.53755 
L 209.087524 106.722436 
L 209.18958 106.611504 
L 209.294638 106.870345 
L 209.306645 106.833368 
L 209.396695 106.944299 
L 209.522764 107.166163 
L 209.663842 106.722436 
L 209.531769 107.20314 
L 209.666844 106.759413 
L 209.720874 106.648481 
L 209.82293 106.426618 
L 209.837938 106.463595 
L 209.84094 106.500572 
L 209.906976 106.278709 
L 209.939995 106.352663 
L 209.964008 106.426618 
L 210.060061 106.241731 
L 210.228154 106.1308 
L 210.306197 105.982891 
L 210.342217 106.056845 
L 210.354223 105.982891 
L 210.45628 106.1308 
L 210.573345 105.871959 
L 210.621371 106.056845 
L 210.678403 105.798004 
L 210.681404 105.798004 
L 210.777457 105.871959 
L 210.744439 105.687073 
L 210.789464 105.761027 
L 210.996578 105.650095 
L 211.113643 105.391255 
L 211.119646 105.465209 
L 211.146661 105.613118 
L 211.191686 105.428232 
L 211.233709 105.502186 
L 211.263726 105.502186 
L 211.377789 105.3173 
L 211.527872 104.799618 
L 211.54288 104.836596 
L 211.599912 104.614732 
L 211.629928 104.688687 
L 211.647938 104.725664 
L 211.743991 104.577755 
L 211.858054 104.91055 
L 211.861056 104.836596 
L 212.10419 104.725664 
L 212.110194 104.762641 
L 212.227258 104.577755 
L 212.28429 104.651709 
L 212.389348 104.762641 
L 212.353328 104.577755 
L 212.395351 104.725664 
L 212.500409 104.577755 
L 212.512416 104.651709 
L 212.563444 104.540778 
L 212.6655 104.5038 
L 212.608469 104.614732 
L 212.671504 104.577755 
L 212.821587 104.466823 
L 212.950658 104.24496 
L 213.166777 104.134028 
L 213.217805 103.986119 
L 213.184787 104.207982 
L 213.283842 104.060073 
L 213.376893 104.207982 
L 213.304853 104.023096 
L 213.400907 104.171005 
L 213.403908 104.097051 
L 213.49696 104.318914 
L 213.505965 104.281937 
L 213.635036 104.5038 
L 213.755102 104.355891 
L 213.80613 104.281937 
L 213.872167 104.429846 
L 213.87817 104.355891 
L 213.905185 104.5038 
L 213.980227 104.466823 
L 214.02225 104.392869 
L 214.097291 104.540778 
L 214.193344 104.651709 
L 214.202349 104.577755 
L 214.304406 104.725664 
L 214.340426 104.614732 
L 214.394455 104.799618 
L 214.412465 104.762641 
L 214.505517 104.799618 
L 214.445484 104.651709 
L 214.520525 104.725664 
L 214.556545 104.651709 
L 214.60157 104.466823 
L 214.670608 104.577755 
L 214.69162 104.5038 
L 214.766661 104.725664 
L 214.769663 104.688687 
L 214.793676 104.651709 
L 214.886727 104.799618 
L 214.994787 104.577755 
L 215.009795 104.614732 
L 215.07283 104.762641 
L 215.015799 104.577755 
L 215.12686 104.688687 
L 215.460044 104.799618 
L 215.592117 105.058459 
L 215.685168 104.947528 
L 215.622134 105.132414 
L 215.703178 105.058459 
L 215.730193 104.947528 
L 215.772216 105.132414 
L 215.811238 105.095437 
L 215.841255 105.169391 
L 215.86827 105.243346 
L 215.934306 105.095437 
L 215.949314 105.169391 
L 216.015351 105.058459 
L 216.048369 105.243346 
L 216.057374 105.132414 
L 216.081387 105.206368 
L 216.12341 105.021482 
L 216.168435 105.132414 
L 216.2855 105.243346 
L 216.381553 105.132414 
L 216.399563 105.206368 
L 216.507623 105.095437 
L 216.603676 104.984505 
L 216.513626 105.169391 
L 216.621686 105.058459 
L 216.717739 105.132414 
L 216.633692 105.021482 
L 216.729745 105.021482 
L 216.759762 105.132414 
L 216.888833 105.391255 
L 216.903842 105.280323 
L 216.987888 105.428232 
L 216.996893 105.391255 
L 217.119961 105.761027 
L 217.134969 105.72405 
L 217.140973 105.687073 
L 217.219016 105.945913 
L 217.228021 105.908936 
L 217.279049 106.056845 
L 217.339082 105.945913 
L 217.44414 105.834982 
L 217.396114 106.019868 
L 217.450143 105.908936 
L 217.546196 106.056845 
L 217.459148 105.834982 
L 217.564206 105.982891 
L 217.657258 105.908936 
L 217.603228 106.019868 
L 217.675268 105.945913 
L 218.017457 106.056845 
L 218.11351 106.167777 
L 218.02346 106.019868 
L 218.128518 106.093822 
L 218.227573 105.945913 
L 218.164538 106.1308 
L 218.23958 106.056845 
L 218.302614 105.982891 
L 218.356644 106.1308 
L 218.53074 106.056845 
L 218.590774 105.908936 
L 218.641802 106.056845 
L 218.665815 106.093822 
L 218.731851 105.798004 
L 218.986992 105.687073 
L 219.056031 105.539164 
L 219.104057 105.576141 
L 219.134074 105.428232 
L 219.21812 105.613118 
L 219.428236 105.687073 
L 219.458253 105.761027 
L 219.527291 105.576141 
L 219.536296 105.687073 
L 219.578319 105.539164 
L 219.638352 105.72405 
L 219.644356 105.650095 
L 219.728402 105.798004 
L 219.656362 105.613118 
L 219.755417 105.687073 
L 219.875483 105.798004 
L 219.992548 106.019868 
L 219.998551 105.945913 
L 220.145632 105.834982 
L 220.244687 105.798004 
L 220.187656 105.982891 
L 220.25069 105.834982 
L 220.35875 106.056845 
L 220.367755 106.019868 
L 220.454803 105.945913 
L 220.382763 106.093822 
L 220.478817 105.982891 
L 220.48482 106.056845 
L 220.565865 105.834982 
L 220.583875 105.908936 
L 220.703941 105.650095 
L 220.709944 105.72405 
L 220.851022 105.650095 
L 220.959082 105.576141 
L 220.890044 105.687073 
L 220.962083 105.613118 
L 221.034123 105.502186 
L 221.13618 105.354277 
L 221.15419 105.391255 
L 221.220226 105.539164 
L 221.265251 105.391255 
L 221.592432 105.280323 
L 221.685483 105.206368 
L 221.613443 105.391255 
L 221.703493 105.243346 
L 221.718501 105.169391 
L 221.826561 105.428232 
L 221.832564 105.280323 
L 221.940624 105.391255 
L 222.021669 105.539164 
L 222.054687 105.465209 
L 222.069695 105.539164 
L 222.16875 105.391255 
L 222.195765 105.502186 
L 222.249795 105.3173 
L 222.279811 105.391255 
L 222.345848 105.280323 
L 222.453908 105.169391 
L 222.402879 105.3173 
L 222.456909 105.280323 
L 222.519944 105.169391 
L 222.579977 105.021482 
L 222.534952 105.243346 
L 222.625002 105.169391 
L 222.655019 105.280323 
L 222.715052 105.095437 
L 222.736063 105.206368 
L 222.808103 105.3173 
L 222.92817 105.428232 
L 223.054239 105.3173 
L 223.189314 104.984505 
L 223.294372 105.243346 
L 223.315383 105.169391 
L 223.38142 105.206368 
L 223.486478 105.3173 
L 223.492481 105.243346 
L 223.504488 105.354277 
L 223.591536 105.095437 
L 223.693592 105.206368 
L 223.810657 105.391255 
L 223.705599 105.169391 
L 223.81666 105.354277 
L 223.882697 105.243346 
L 223.993758 105.095437 
L 223.891702 105.354277 
L 223.99676 105.169391 
L 224.089811 105.243346 
L 224.01477 105.058459 
L 224.107821 105.206368 
L 224.110823 105.169391 
L 224.188866 105.465209 
L 224.197871 105.391255 
L 224.287921 105.539164 
L 224.308932 105.465209 
L 224.422995 105.243346 
L 224.317937 105.502186 
L 224.425997 105.3173 
L 224.54006 104.947528 
L 224.561072 104.984505 
L 224.567075 105.021482 
L 224.651121 104.799618 
L 224.657125 104.836596 
L 224.774189 104.540778 
L 224.786196 104.577755 
L 224.903261 104.725664 
L 224.906262 104.688687 
L 224.981304 104.799618 
L 225.044339 104.651709 
L 225.095367 104.873573 
L 225.167407 104.725664 
L 225.20943 104.762641 
L 225.335499 104.651709 
L 225.434554 104.466823 
L 225.458567 104.5038 
L 225.953841 104.614732 
L 226.028882 104.725664 
L 226.016876 104.577755 
L 226.067904 104.651709 
L 226.127937 104.577755 
L 226.154952 104.762641 
L 226.172962 104.725664 
L 226.229994 104.799618 
L 226.199977 104.651709 
L 226.281022 104.762641 
L 226.401088 104.5038 
L 226.503144 104.577755 
L 226.431105 104.466823 
L 226.512149 104.540778 
L 226.515151 104.5038 
L 226.563178 104.688687 
L 226.611204 104.688687 
L 226.734272 104.947528 
L 226.737274 104.91055 
L 226.827324 104.799618 
L 226.758285 104.947528 
L 226.854338 104.836596 
L 227.016428 104.799618 
L 227.022431 104.688687 
L 227.106478 104.91055 
L 227.127489 104.799618 
L 227.202531 104.91055 
L 227.223542 104.984505 
L 227.295582 104.836596 
L 227.310591 104.873573 
L 227.478683 104.762641 
L 227.499695 104.836596 
L 227.589745 104.688687 
L 227.625765 104.799618 
L 227.685798 104.540778 
L 227.697804 104.614732 
L 228.361171 104.688687 
L 228.364173 104.762641 
L 228.460226 104.614732 
L 228.469231 104.651709 
L 228.475234 104.614732 
L 228.514255 104.762641 
L 228.580292 104.651709 
L 228.637323 104.688687 
L 228.676345 104.5038 
L 228.682348 104.540778 
L 228.706362 104.429846 
L 228.769396 104.614732 
L 228.784405 104.614732 
L 228.880458 104.651709 
L 228.868451 104.540778 
L 228.889463 104.577755 
L 228.988517 104.392869 
L 229.009529 104.466823 
L 229.096577 104.540778 
L 229.180624 104.725664 
L 229.207638 104.577755 
L 229.405748 104.688687 
L 229.432763 104.762641 
L 229.417755 104.651709 
L 229.513808 104.725664 
L 229.609861 104.614732 
L 229.624869 104.688687 
L 229.636876 104.762641 
L 229.696909 104.577755 
L 229.732929 104.651709 
L 229.913028 104.540778 
L 230.027091 104.392869 
L 229.922033 104.614732 
L 230.030093 104.429846 
L 230.153161 104.688687 
L 230.26122 104.540778 
L 230.174172 104.762641 
L 230.267224 104.577755 
L 230.270225 104.614732 
L 230.342265 104.466823 
L 230.375284 104.540778 
L 230.38729 104.614732 
L 230.49535 104.355891 
L 230.507356 104.466823 
L 230.561386 104.318914 
L 230.606411 104.355891 
L 230.699463 104.5038 
L 230.726478 104.466823 
L 230.762497 104.355891 
L 230.735482 104.5038 
L 230.843542 104.392869 
L 230.891569 104.429846 
L 230.89457 104.577755 
L 230.954604 104.392869 
L 231.00263 104.5038 
L 231.143708 104.429846 
L 231.18273 104.5038 
L 231.257771 104.355891 
L 231.353824 104.466823 
L 231.356826 104.5038 
L 231.392846 104.355891 
L 231.45588 104.355891 
L 231.542929 104.24496 
L 231.590955 104.207982 
L 231.626975 104.392869 
L 231.644985 104.355891 
L 231.720026 104.429846 
L 231.665997 104.281937 
L 231.759048 104.392869 
L 231.804073 104.5038 
L 231.936146 104.762641 
L 231.966162 104.873573 
L 232.074222 105.021482 
L 232.017191 104.836596 
L 232.080225 104.984505 
L 232.200292 104.873573 
L 232.311353 104.984505 
L 232.242315 104.799618 
L 232.314355 104.947528 
L 232.395399 105.058459 
L 232.347373 104.873573 
L 232.425416 104.947528 
L 232.494454 104.873573 
L 232.590507 104.688687 
L 232.503459 104.91055 
L 232.608517 104.799618 
L 232.767605 104.688687 
L 232.782613 104.725664 
L 232.893675 104.5038 
L 232.9387 104.577755 
L 232.986726 104.651709 
L 232.953708 104.540778 
L 233.046759 104.577755 
L 233.136809 104.466823 
L 233.052763 104.614732 
L 233.163824 104.5038 
L 233.166826 104.614732 
L 233.235864 104.429846 
L 233.274885 104.5038 
L 233.851204 104.392869 
L 233.887224 104.429846 
L 233.968268 104.281937 
L 234.091336 104.5038 
L 234.124355 104.577755 
L 234.205399 104.429846 
L 234.316461 104.651709 
L 234.220408 104.392869 
L 234.328467 104.577755 
L 234.400507 104.5038 
L 234.391502 104.651709 
L 234.436527 104.577755 
L 234.481552 104.725664 
L 234.547588 104.688687 
L 234.60462 104.540778 
L 234.65865 104.688687 
L 234.799728 104.762641 
L 234.910789 104.91055 
L 234.874769 104.725664 
L 234.913791 104.836596 
L 234.940806 104.947528 
L 235.000839 104.984505 
L 235.030855 104.836596 
L 235.045864 104.947528 
L 235.099893 105.021482 
L 235.162928 104.799618 
L 235.16593 104.91055 
L 235.228965 104.725664 
L 235.270988 104.799618 
L 235.304006 104.651709 
L 235.388053 104.725664 
L 235.514122 104.947528 
L 235.61918 104.799618 
L 235.625184 104.91055 
L 235.661204 104.984505 
L 235.724238 104.799618 
L 235.820291 104.725664 
L 235.733243 104.873573 
L 235.8353 104.762641 
L 235.952364 104.91055 
L 235.955366 104.836596 
L 236.048417 105.058459 
L 236.060424 104.947528 
L 236.174487 105.058459 
L 236.300557 104.947528 
L 236.333575 104.799618 
L 236.420623 104.836596 
L 236.429628 104.91055 
L 236.498666 104.762641 
L 236.528683 104.836596 
L 236.615731 104.688687 
L 236.543691 104.873573 
L 236.639744 104.836596 
L 236.681767 104.725664 
L 236.702779 104.762641 
L 236.79583 104.651709 
L 236.906892 104.836596 
L 236.918898 104.799618 
L 237.390159 104.762641 
L 237.39316 104.651709 
L 237.399164 104.799618 
L 237.50122 104.688687 
L 237.62729 104.873573 
L 237.630291 104.799618 
L 237.717339 104.947528 
L 237.738351 104.873573 
L 237.795383 105.021482 
L 237.750358 104.836596 
L 237.846411 104.873573 
L 237.897439 104.614732 
L 237.963475 104.688687 
L 238.071535 104.799618 
L 237.987489 104.651709 
L 238.08054 104.762641 
L 238.209611 104.355891 
L 238.218616 104.392869 
L 238.326676 104.651709 
L 238.341684 104.614732 
L 238.353691 104.5038 
L 238.419727 104.651709 
L 238.449744 104.614732 
L 238.581817 104.947528 
L 238.584819 104.91055 
L 238.689877 104.873573 
L 238.62384 104.984505 
L 238.69588 104.91055 
L 238.764918 104.947528 
L 238.755913 104.836596 
L 238.800938 104.836596 
L 238.921004 104.688687 
L 239.005051 104.836596 
L 239.035067 104.725664 
L 239.269197 104.836596 
L 239.284205 104.91055 
L 239.338235 104.725664 
L 239.374255 104.762641 
L 239.557356 104.651709 
L 239.671419 104.5038 
L 239.713442 104.577755 
L 239.731452 104.392869 
L 239.773475 104.429846 
L 239.785482 104.355891 
L 239.845515 104.577755 
L 239.875532 104.540778 
L 239.98059 104.429846 
L 240.082646 104.24496 
L 239.992596 104.466823 
L 240.097654 104.318914 
L 240.184702 104.392869 
L 240.136676 104.207982 
L 240.205714 104.355891 
L 240.292762 104.24496 
L 240.253741 104.392869 
L 240.313774 104.392869 
L 240.655963 104.318914 
L 240.761021 104.207982 
L 240.667969 104.355891 
L 240.770026 104.24496 
L 240.872082 104.134028 
L 240.989147 103.986119 
L 241.10321 104.171005 
L 241.118218 104.097051 
L 241.136228 104.24496 
L 241.21127 104.207982 
L 241.310324 104.134028 
L 241.412381 103.83821 
L 241.427389 103.949142 
L 241.457405 103.83821 
L 241.55646 103.764255 
L 241.499429 103.875187 
L 241.568467 103.83821 
L 241.688533 103.727278 
L 241.760573 103.579369 
L 241.802596 103.690301 
L 242.285863 103.616346 
L 242.372911 103.357506 
L 242.402928 103.43146 
L 242.480971 103.357506 
L 242.598036 103.172619 
L 242.727107 103.246574 
L 242.730109 103.320528 
L 242.832165 103.135642 
L 242.838168 103.246574 
L 242.961236 103.02471 
L 243.078301 103.246574 
L 243.195366 103.394483 
L 243.198367 103.357506 
L 243.414487 103.246574 
L 243.525548 103.098665 
L 243.42049 103.283551 
L 243.52855 103.135642 
L 243.540556 102.987733 
L 243.642613 103.172619 
L 243.699644 103.02471 
L 243.744669 103.209596 
L 243.753674 103.135642 
L 243.840722 103.283551 
L 243.85573 103.098665 
L 243.870739 103.209596 
L 243.996808 102.876801 
L 243.89175 103.246574 
L 244.002812 102.913778 
L 244.011817 102.950756 
L 244.077853 102.802847 
L 244.104868 102.839824 
L 244.161899 102.691915 
L 244.113873 102.876801 
L 244.212928 102.839824 
L 244.326991 102.950756 
L 244.233939 102.765869 
L 244.329992 102.913778 
L 244.63316 103.02471 
L 244.636161 103.061687 
L 244.7052 102.876801 
L 244.732215 102.950756 
L 244.813259 102.987733 
L 244.843276 102.876801 
L 244.945332 102.950756 
L 244.855283 102.839824 
L 244.951336 102.913778 
L 244.993359 102.987733 
L 245.065399 102.839824 
L 245.074404 102.950756 
L 245.134437 102.765869 
L 245.182463 102.913778 
L 245.188467 102.839824 
L 245.278516 103.061687 
L 245.287521 102.987733 
L 245.341551 103.098665 
L 245.443608 103.135642 
L 245.413591 102.950756 
L 245.449611 103.098665 
L 245.461617 103.02471 
L 245.530656 103.246574 
L 245.551667 103.209596 
L 245.677737 103.505415 
L 245.68374 103.468437 
L 245.75578 103.579369 
L 245.84583 103.764255 
L 245.77379 103.505415 
L 245.875846 103.690301 
L 245.88185 103.616346 
L 245.890855 103.764255 
L 245.989909 103.653324 
L 245.992911 103.690301 
L 246.067952 103.394483 
L 246.079959 103.43146 
L 246.185017 103.320528 
L 246.103972 103.468437 
L 246.194022 103.357506 
L 246.215034 103.283551 
L 246.308085 103.43146 
L 246.347107 103.468437 
L 246.422148 103.357506 
L 246.458168 103.468437 
L 246.527206 103.320528 
L 246.536211 103.43146 
L 246.599246 103.246574 
L 246.650274 103.357506 
L 246.662281 103.43146 
L 246.725316 103.246574 
L 246.752331 103.283551 
L 246.839379 103.246574 
L 246.776344 103.357506 
L 246.857389 103.320528 
L 246.91442 103.468437 
L 246.962447 103.283551 
L 246.96845 103.320528 
L 247.07651 103.43146 
L 247.142546 103.320528 
L 247.190573 103.468437 
L 247.193574 103.43146 
L 247.271617 103.653324 
L 247.289627 103.579369 
L 247.292629 103.616346 
L 247.373674 103.357506 
L 247.379677 103.43146 
L 247.49374 103.246574 
L 247.613806 103.061687 
L 247.616808 103.098665 
L 247.868947 102.987733 
L 247.949992 102.913778 
L 247.916974 103.02471 
L 247.977007 102.950756 
L 248.064055 103.209596 
L 248.097073 103.172619 
L 248.18112 103.283551 
L 248.205133 103.468437 
L 248.295183 103.394483 
L 248.424254 103.135642 
L 248.436261 103.209596 
L 248.475282 102.987733 
L 248.532314 103.098665 
L 248.682397 102.987733 
L 248.793458 102.839824 
L 248.6884 103.02471 
L 248.799461 102.876801 
L 248.823475 102.950756 
L 248.865498 102.765869 
L 248.904519 102.839824 
L 248.925531 102.765869 
L 248.943541 102.913778 
L 249.012579 102.876801 
L 249.120639 102.765869 
L 249.192679 102.728892 
L 249.129644 102.839824 
L 249.228698 102.802847 
L 249.315747 102.691915 
L 249.420805 102.544006 
L 249.435813 102.580983 
L 249.495846 102.470051 
L 249.507853 102.507029 
L 249.615912 102.322142 
L 249.645929 102.433074 
L 249.693956 102.248188 
L 249.726974 102.322142 
L 249.844038 102.100279 
L 249.850042 102.137256 
L 249.967106 102.35912 
L 249.976111 102.322142 
L 250.039146 102.248188 
L 250.000125 102.396097 
L 250.084171 102.322142 
L 250.204237 102.654938 
L 250.207239 102.61796 
L 250.30029 102.839824 
L 250.333309 102.950756 
L 250.351319 102.876801 
L 250.453375 103.061687 
L 250.474387 102.987733 
L 250.540423 103.135642 
L 250.561435 103.061687 
L 250.666493 103.209596 
L 250.675498 103.172619 
L 250.759544 103.061687 
L 250.804569 103.02471 
L 250.831584 103.209596 
L 250.864602 103.135642 
L 250.990672 103.357506 
L 251.008682 103.283551 
L 251.083723 103.579369 
L 251.197786 103.690301 
L 251.290838 103.912164 
L 251.206791 103.653324 
L 251.320854 103.875187 
L 251.419909 103.690301 
L 251.437919 103.727278 
L 251.618018 103.616346 
L 251.654038 103.727278 
L 251.732081 103.542392 
L 251.738085 103.616346 
L 251.825133 103.320528 
L 251.834138 103.394483 
L 251.927189 103.246574 
L 251.948201 103.320528 
L 251.990224 103.43146 
L 252.029246 103.283551 
L 252.062264 103.394483 
L 252.089279 103.320528 
L 252.134304 103.505415 
L 252.16432 103.468437 
L 252.23636 103.579369 
L 252.275382 103.468437 
L 252.302396 103.579369 
L 252.371435 103.357506 
L 252.38044 103.43146 
L 252.383441 103.357506 
L 252.428466 103.505415 
L 252.491501 103.43146 
L 252.578549 103.542392 
L 252.695614 103.764255 
L 252.701617 103.690301 
L 252.746642 103.801233 
L 252.758649 103.912164 
L 252.755647 103.764255 
L 252.854702 103.801233 
L 252.908731 103.764255 
L 252.875713 103.875187 
L 252.95976 103.875187 
L 253.070821 104.134028 
L 253.082828 104.060073 
L 253.085829 104.023096 
L 253.178881 104.24496 
L 253.181882 104.171005 
L 253.310954 104.429846 
L 253.434022 104.24496 
L 253.563093 104.614732 
L 253.569096 104.577755 
L 253.617123 104.5038 
L 253.656144 104.651709 
L 253.677156 104.577755 
L 253.800224 104.725664 
L 254.061368 104.614732 
L 254.08238 104.688687 
L 254.178433 104.5038 
L 254.211451 104.614732 
L 254.256476 104.429846 
L 254.286493 104.466823 
L 254.550638 104.577755 
L 254.658698 104.688687 
L 254.559643 104.540778 
L 254.664701 104.651709 
L 254.709726 104.540778 
L 254.718731 104.5038 
L 254.721733 104.540778 
" clip-path="url(#p00c1365acf)" style="fill: none; stroke: #000000; stroke-opacity: 0.5; stroke-width: 1.5; stroke-linecap: square"/>
   </g>
   <g id="patch_3">
    <path d="M 41.667188 173.52 
L 41.667188 7.2 
" style="fill: none; stroke: #000000; stroke-width: 0.8; stroke-linejoin: miter; stroke-linecap: square"/>
   </g>
   <g id="patch_4">
    <path d="M 41.667188 173.52 
L 264.867188 173.52 
" style="fill: none; stroke: #000000; stroke-width: 0.8; stroke-linejoin: miter; stroke-linecap: square"/>
   </g>
  </g>
 </g>
 <defs>
  <clipPath id="p00c1365acf">
   <rect x="41.667188" y="7.2" width="223.2" height="166.32"/>
  </clipPath>
 </defs>
</svg>
