<?xml version="1.0" encoding="utf-8" standalone="no"?>
<!DOCTYPE svg PUBLIC "-//W3C//DTD SVG 1.1//EN"
  "http://www.w3.org/Graphics/SVG/1.1/DTD/svg11.dtd">
<svg xmlns:xlink="http://www.w3.org/1999/xlink" width="265.704687pt" height="197.398125pt" viewBox="0 0 265.704687 197.398125" xmlns="http://www.w3.org/2000/svg" version="1.1">
 <metadata>
  <rdf:RDF xmlns:dc="http://purl.org/dc/elements/1.1/" xmlns:cc="http://creativecommons.org/ns#" xmlns:rdf="http://www.w3.org/1999/02/22-rdf-syntax-ns#">
   <cc:Work>
    <dc:type rdf:resource="http://purl.org/dc/dcmitype/StillImage"/>
    <dc:date>2025-12-19T12:11:31.802872</dc:date>
    <dc:format>image/svg+xml</dc:format>
    <dc:creator>
     <cc:Agent>
      <dc:title>Matplotlib v3.10.7, https://matplotlib.org/</dc:title>
     </cc:Agent>
    </dc:creator>
   </cc:Work>
  </rdf:RDF>
 </metadata>
 <defs>
  <style type="text/css">*{stroke-linejoin: round; stroke-linecap: butt}</style>
 </defs>
 <g id="figure_1">
  <g id="patch_1">
   <path d="M 0 197.398125 
L 265.704687 197.398125 
L 265.704687 0 
L 0 0 
z
" style="fill: #ffffff"/>
  </g>
  <g id="axes_1">
   <g id="patch_2">
    <path d="M 35.304688 173.52 
L 258.504687 173.52 
L 258.504687 7.2 
L 35.304688 7.2 
z
" style="fill: #ffffff"/>
   </g>
   <g id="matplotlib.axis_1">
    <g id="xtick_1">
     <g id="line2d_1">
      <defs>
       <path id="m79ec6d2c8b" d="M 0 0 
L 0 3.5 
" style="stroke: #000000; stroke-width: 0.8"/>
      </defs>
      <g>
       <use xlink:href="#m79ec6d2c8b" x="81.47004" y="173.52" style="stroke: #000000; stroke-width: 0.8"/>
      </g>
     </g>
     <g id="text_1">
      <!-- 1 -->
      <g transform="translate(78.28879 188.118438) scale(0.1 -0.1)">
       <defs>
        <path id="DejaVuSans-31" d="M 794 531 
L 1825 531 
L 1825 4091 
L 703 3866 
L 703 4441 
L 1819 4666 
L 2450 4666 
L 2450 531 
L 3481 531 
L 3481 0 
L 794 0 
L 794 531 
z
" transform="scale(0.015625)"/>
       </defs>
       <use xlink:href="#DejaVuSans-31"/>
      </g>
     </g>
    </g>
    <g id="xtick_2">
     <g id="line2d_2">
      <g>
       <use xlink:href="#m79ec6d2c8b" x="141.503204" y="173.52" style="stroke: #000000; stroke-width: 0.8"/>
      </g>
     </g>
     <g id="text_2">
      <!-- 2 -->
      <g transform="translate(138.321954 188.118438) scale(0.1 -0.1)">
       <defs>
        <path id="DejaVuSans-32" d="M 1228 531 
L 3431 531 
L 3431 0 
L 469 0 
L 469 531 
Q 828 903 1448 1529 
Q 2069 2156 2228 2338 
Q 2531 2678 2651 2914 
Q 2772 3150 2772 3378 
Q 2772 3750 2511 3984 
Q 2250 4219 1831 4219 
Q 1534 4219 1204 4116 
Q 875 4013 500 3803 
L 500 4441 
Q 881 4594 1212 4672 
Q 1544 4750 1819 4750 
Q 2544 4750 2975 4387 
Q 3406 4025 3406 3419 
Q 3406 3131 3298 2873 
Q 3191 2616 2906 2266 
Q 2828 2175 2409 1742 
Q 1991 1309 1228 531 
z
" transform="scale(0.015625)"/>
       </defs>
       <use xlink:href="#DejaVuSans-32"/>
      </g>
     </g>
    </g>
    <g id="xtick_3">
     <g id="line2d_3">
      <g>
       <use xlink:href="#m79ec6d2c8b" x="201.536367" y="173.52" style="stroke: #000000; stroke-width: 0.8"/>
      </g>
     </g>
     <g id="text_3">
      <!-- 3 -->
      <g transform="translate(198.355117 188.118438) scale(0.1 -0.1)">
       <defs>
        <path id="DejaVuSans-33" d="M 2597 2516 
Q 3050 2419 3304 2112 
Q 3559 1806 3559 1356 
Q 3559 666 3084 287 
Q 2609 -91 1734 -91 
Q 1441 -91 1130 -33 
Q 819 25 488 141 
L 488 750 
Q 750 597 1062 519 
Q 1375 441 1716 441 
Q 2309 441 2620 675 
Q 2931 909 2931 1356 
Q 2931 1769 2642 2001 
Q 2353 2234 1838 2234 
L 1294 2234 
L 1294 2753 
L 1863 2753 
Q 2328 2753 2575 2939 
Q 2822 3125 2822 3475 
Q 2822 3834 2567 4026 
Q 2313 4219 1838 4219 
Q 1578 4219 1281 4162 
Q 984 4106 628 3988 
L 628 4550 
Q 988 4650 1302 4700 
Q 1616 4750 1894 4750 
Q 2613 4750 3031 4423 
Q 3450 4097 3450 3541 
Q 3450 3153 3228 2886 
Q 3006 2619 2597 2516 
z
" transform="scale(0.015625)"/>
       </defs>
       <use xlink:href="#DejaVuSans-33"/>
      </g>
     </g>
    </g>
   </g>
   <g id="matplotlib.axis_2">
    <g id="ytick_1">
     <g id="line2d_4">
      <defs>
       <path id="m2cbec86349" d="M 0 0 
L -3.5 0 
" style="stroke: #000000; stroke-width: 0.8"/>
      </defs>
      <g>
       <use xlink:href="#m2cbec86349" x="35.304688" y="145.720586" style="stroke: #000000; stroke-width: 0.8"/>
      </g>
     </g>
     <g id="text_4">
      <!-- −80 -->
      <g transform="translate(7.2 149.519805) scale(0.1 -0.1)">
       <defs>
        <path id="DejaVuSans-2212" d="M 678 2272 
L 4684 2272 
L 4684 1741 
L 678 1741 
L 678 2272 
z
" transform="scale(0.015625)"/>
        <path id="DejaVuSans-38" d="M 2034 2216 
Q 1584 2216 1326 1975 
Q 1069 1734 1069 1313 
Q 1069 891 1326 650 
Q 1584 409 2034 409 
Q 2484 409 2743 651 
Q 3003 894 3003 1313 
Q 3003 1734 2745 1975 
Q 2488 2216 2034 2216 
z
M 1403 2484 
Q 997 2584 770 2862 
Q 544 3141 544 3541 
Q 544 4100 942 4425 
Q 1341 4750 2034 4750 
Q 2731 4750 3128 4425 
Q 3525 4100 3525 3541 
Q 3525 3141 3298 2862 
Q 3072 2584 2669 2484 
Q 3125 2378 3379 2068 
Q 3634 1759 3634 1313 
Q 3634 634 3220 271 
Q 2806 -91 2034 -91 
Q 1263 -91 848 271 
Q 434 634 434 1313 
Q 434 1759 690 2068 
Q 947 2378 1403 2484 
z
M 1172 3481 
Q 1172 3119 1398 2916 
Q 1625 2713 2034 2713 
Q 2441 2713 2670 2916 
Q 2900 3119 2900 3481 
Q 2900 3844 2670 4047 
Q 2441 4250 2034 4250 
Q 1625 4250 1398 4047 
Q 1172 3844 1172 3481 
z
" transform="scale(0.015625)"/>
        <path id="DejaVuSans-30" d="M 2034 4250 
Q 1547 4250 1301 3770 
Q 1056 3291 1056 2328 
Q 1056 1369 1301 889 
Q 1547 409 2034 409 
Q 2525 409 2770 889 
Q 3016 1369 3016 2328 
Q 3016 3291 2770 3770 
Q 2525 4250 2034 4250 
z
M 2034 4750 
Q 2819 4750 3233 4129 
Q 3647 3509 3647 2328 
Q 3647 1150 3233 529 
Q 2819 -91 2034 -91 
Q 1250 -91 836 529 
Q 422 1150 422 2328 
Q 422 3509 836 4129 
Q 1250 4750 2034 4750 
z
" transform="scale(0.015625)"/>
       </defs>
       <use xlink:href="#DejaVuSans-2212"/>
       <use xlink:href="#DejaVuSans-38" transform="translate(83.789062 0)"/>
       <use xlink:href="#DejaVuSans-30" transform="translate(147.412109 0)"/>
      </g>
     </g>
    </g>
    <g id="ytick_2">
     <g id="line2d_5">
      <g>
       <use xlink:href="#m2cbec86349" x="35.304688" y="117.229951" style="stroke: #000000; stroke-width: 0.8"/>
      </g>
     </g>
     <g id="text_5">
      <!-- −60 -->
      <g transform="translate(7.2 121.02917) scale(0.1 -0.1)">
       <defs>
        <path id="DejaVuSans-36" d="M 2113 2584 
Q 1688 2584 1439 2293 
Q 1191 2003 1191 1497 
Q 1191 994 1439 701 
Q 1688 409 2113 409 
Q 2538 409 2786 701 
Q 3034 994 3034 1497 
Q 3034 2003 2786 2293 
Q 2538 2584 2113 2584 
z
M 3366 4563 
L 3366 3988 
Q 3128 4100 2886 4159 
Q 2644 4219 2406 4219 
Q 1781 4219 1451 3797 
Q 1122 3375 1075 2522 
Q 1259 2794 1537 2939 
Q 1816 3084 2150 3084 
Q 2853 3084 3261 2657 
Q 3669 2231 3669 1497 
Q 3669 778 3244 343 
Q 2819 -91 2113 -91 
Q 1303 -91 875 529 
Q 447 1150 447 2328 
Q 447 3434 972 4092 
Q 1497 4750 2381 4750 
Q 2619 4750 2861 4703 
Q 3103 4656 3366 4563 
z
" transform="scale(0.015625)"/>
       </defs>
       <use xlink:href="#DejaVuSans-2212"/>
       <use xlink:href="#DejaVuSans-36" transform="translate(83.789062 0)"/>
       <use xlink:href="#DejaVuSans-30" transform="translate(147.412109 0)"/>
      </g>
     </g>
    </g>
    <g id="ytick_3">
     <g id="line2d_6">
      <g>
       <use xlink:href="#m2cbec86349" x="35.304688" y="88.739316" style="stroke: #000000; stroke-width: 0.8"/>
      </g>
     </g>
     <g id="text_6">
      <!-- −40 -->
      <g transform="translate(7.2 92.538534) scale(0.1 -0.1)">
       <defs>
        <path id="DejaVuSans-34" d="M 2419 4116 
L 825 1625 
L 2419 1625 
L 2419 4116 
z
M 2253 4666 
L 3047 4666 
L 3047 1625 
L 3713 1625 
L 3713 1100 
L 3047 1100 
L 3047 0 
L 2419 0 
L 2419 1100 
L 313 1100 
L 313 1709 
L 2253 4666 
z
" transform="scale(0.015625)"/>
       </defs>
       <use xlink:href="#DejaVuSans-2212"/>
       <use xlink:href="#DejaVuSans-34" transform="translate(83.789062 0)"/>
       <use xlink:href="#DejaVuSans-30" transform="translate(147.412109 0)"/>
      </g>
     </g>
    </g>
    <g id="ytick_4">
     <g id="line2d_7">
      <g>
       <use xlink:href="#m2cbec86349" x="35.304688" y="60.24868" style="stroke: #000000; stroke-width: 0.8"/>
      </g>
     </g>
     <g id="text_7">
      <!-- −20 -->
      <g transform="translate(7.2 64.047899) scale(0.1 -0.1)">
       <use xlink:href="#DejaVuSans-2212"/>
       <use xlink:href="#DejaVuSans-32" transform="translate(83.789062 0)"/>
       <use xlink:href="#DejaVuSans-30" transform="translate(147.412109 0)"/>
      </g>
     </g>
    </g>
    <g id="ytick_5">
     <g id="line2d_8">
      <g>
       <use xlink:href="#m2cbec86349" x="35.304688" y="31.758045" style="stroke: #000000; stroke-width: 0.8"/>
      </g>
     </g>
     <g id="text_8">
      <!-- 0 -->
      <g transform="translate(21.942187 35.557264) scale(0.1 -0.1)">
       <use xlink:href="#DejaVuSans-30"/>
      </g>
     </g>
    </g>
   </g>
   <g id="line2d_9">
    <path d="M 45.450142 125.095135 
L 45.564205 125.312501 
L 45.612232 125.182082 
L 45.648251 125.399448 
L 45.672265 125.312501 
L 45.777323 125.442921 
L 45.756311 125.269028 
L 45.783326 125.399448 
L 45.843359 125.486394 
L 45.903392 125.269028 
L 45.990441 125.182082 
L 46.065482 125.008189 
L 45.996444 125.269028 
L 46.101502 125.182082 
L 46.104504 125.225555 
L 46.125515 125.051662 
L 46.209562 125.138608 
L 46.275598 125.008189 
L 46.326626 125.051662 
L 46.419678 125.225555 
L 46.443691 125.138608 
L 46.524736 125.182082 
L 46.638799 125.312501 
L 46.689827 125.225555 
L 46.707837 125.399448 
L 46.74986 125.312501 
L 46.83991 125.355975 
L 46.848915 125.225555 
L 46.860921 125.312501 
L 46.902945 125.225555 
L 46.983989 125.095135 
L 46.926958 125.269028 
L 47.014006 125.182082 
L 47.038019 125.095135 
L 47.128069 125.269028 
L 47.236129 125.051662 
L 47.242132 125.182082 
L 47.371203 125.225555 
L 47.416228 125.355975 
L 47.452248 125.138608 
L 47.479263 125.182082 
L 47.566311 125.225555 
L 47.578318 125.355975 
L 47.596328 125.182082 
L 47.677372 125.269028 
L 47.791435 125.095135 
L 47.722397 125.355975 
L 47.797439 125.138608 
L 47.863475 125.182082 
L 47.83646 125.008189 
L 47.902497 125.095135 
L 47.965532 125.008189 
L 47.92651 125.138608 
L 48.01656 125.051662 
L 48.079595 124.964715 
L 48.130623 125.095135 
L 48.214669 124.964715 
L 48.241684 125.095135 
L 48.268699 125.051662 
L 48.349744 124.921242 
L 48.340739 125.095135 
L 48.376759 125.051662 
L 48.37976 125.095135 
L 48.445797 124.877769 
L 48.478815 124.921242 
L 48.52384 124.964715 
L 48.550855 125.095135 
L 48.610888 124.790822 
L 48.6319 124.921242 
L 48.661916 124.834296 
L 48.709943 125.051662 
L 48.736958 125.008189 
L 48.974089 124.921242 
L 49.061137 124.747349 
L 48.989097 125.008189 
L 49.08515 124.877769 
L 49.10316 124.921242 
L 49.181203 124.660403 
L 49.184205 124.703876 
L 49.187206 124.703876 
L 49.277256 124.834296 
L 49.199213 124.660403 
L 49.298268 124.703876 
L 49.391319 124.616929 
L 49.499379 124.486509 
L 49.403326 124.660403 
L 49.505382 124.529983 
L 49.553409 124.616929 
L 49.604437 124.443036 
L 49.613442 124.486509 
L 49.634454 124.529983 
L 49.637455 124.616929 
L 49.658467 124.486509 
L 49.745515 124.529983 
L 49.86258 124.616929 
L 49.871585 124.660403 
L 49.874586 124.529983 
L 49.970639 124.573456 
L 50.063691 124.660403 
L 50.075697 124.616929 
L 50.183757 124.790822 
L 50.2618 124.877769 
L 50.357853 124.964715 
L 50.276808 124.790822 
L 50.372861 124.877769 
L 50.444901 124.921242 
L 50.549959 125.138608 
L 50.45991 124.834296 
L 50.558964 125.095135 
L 50.600987 125.008189 
L 50.640009 125.269028 
L 50.667024 125.138608 
L 50.745067 125.269028 
L 50.688036 125.051662 
L 50.775084 125.095135 
L 50.829113 125.138608 
L 50.832115 125.225555 
L 50.928168 124.964715 
L 50.937173 125.051662 
L 50.988201 125.008189 
L 51.093259 124.834296 
L 51.012215 125.051662 
L 51.099263 124.877769 
L 51.102264 125.008189 
L 51.198317 124.660403 
L 51.204321 124.703876 
L 51.213326 124.747349 
L 51.216327 124.834296 
L 51.228334 124.660403 
L 51.324387 124.747349 
L 51.423442 124.660403 
L 51.426443 124.616929 
L 51.45646 125.703761 
L 51.603541 134.050627 
L 51.774636 138.484899 
L 52.513044 147.614284 
L 52.516045 147.570811 
L 52.57908 148.135963 
L 52.582082 148.135963 
L 52.711153 148.961955 
L 52.717156 148.918482 
L 52.720158 148.875009 
L 52.789196 149.353214 
L 52.801203 149.309741 
L 52.930274 150.09226 
L 52.957289 150.09226 
L 53.080357 150.613939 
L 53.116377 150.700886 
L 53.236443 151.092145 
L 53.239445 151.048672 
L 53.368516 151.439931 
L 53.37452 151.396458 
L 53.380523 151.439931 
L 53.491584 151.874664 
L 53.503591 151.83119 
L 53.509594 151.874664 
L 53.515598 151.787717 
L 53.629661 152.135503 
L 53.680689 152.22245 
L 53.797753 152.439816 
L 53.803757 152.396343 
L 53.806758 152.352869 
L 53.869793 152.570236 
L 53.905813 152.483289 
L 54.019876 152.700656 
L 54.028881 152.657182 
L 54.031883 152.526763 
L 54.121933 152.874549 
L 54.136941 152.787602 
L 54.160954 152.744129 
L 54.190971 152.918022 
L 54.238997 152.874549 
L 54.293027 153.048442 
L 54.350059 152.874549 
L 54.35306 152.831075 
L 54.410092 153.048442 
L 54.452115 152.961495 
L 54.55117 153.091915 
L 54.485133 152.874549 
L 54.566178 153.004968 
L 54.596195 153.048442 
L 54.707256 153.222335 
L 54.617206 153.004968 
L 54.710258 153.135388 
L 54.743276 153.265808 
L 54.770291 153.091915 
L 54.827322 153.222335 
L 54.920374 153.135388 
L 54.86034 153.309281 
L 54.941385 153.178861 
L 55.016427 153.265808 
L 54.962397 153.091915 
L 55.049445 153.135388 
L 55.052447 153.135388 
L 55.100473 153.265808 
L 55.157505 153.091915 
L 55.160506 153.135388 
L 55.235548 153.091915 
L 55.169511 153.222335 
L 55.265564 153.222335 
L 55.388632 153.135388 
L 55.445664 153.091915 
L 55.45767 153.222335 
L 55.49369 153.178861 
L 55.580738 153.265808 
L 55.592745 153.091915 
L 55.604752 153.222335 
L 55.616758 153.091915 
L 55.679793 153.309281 
L 55.712811 153.265808 
L 55.736825 153.178861 
L 55.793856 153.135388 
L 55.76384 153.265808 
L 55.844884 153.178861 
L 55.958947 153.352754 
L 55.964951 153.309281 
L 56.006974 153.222335 
L 56.082015 153.091915 
L 56.024984 153.309281 
L 56.115034 153.222335 
L 56.124039 153.309281 
L 56.136045 153.135388 
L 56.220092 153.178861 
L 56.32515 153.091915 
L 56.226095 153.222335 
L 56.331153 153.178861 
L 56.502247 153.265808 
L 56.550274 153.396228 
L 56.520257 153.222335 
L 56.613309 153.265808 
L 56.691352 153.222335 
L 56.63432 153.352754 
L 56.72437 153.265808 
L 56.790407 153.439701 
L 56.838433 153.309281 
L 56.976509 153.265808 
L 57.060556 153.048442 
L 57.090572 153.178861 
L 57.165614 153.135388 
L 57.21364 153.004968 
L 57.174619 153.178861 
L 57.279677 153.048442 
L 57.35772 152.961495 
L 57.39374 153.135388 
L 57.507803 152.961495 
L 57.564834 153.178861 
L 57.618864 153.004968 
L 57.744934 152.961495 
L 57.747936 153.135388 
L 57.825979 152.918022 
L 57.855995 152.961495 
L 57.949047 152.787602 
L 57.861999 153.004968 
L 57.97306 152.831075 
L 57.997073 152.961495 
L 58.054105 152.744129 
L 58.08112 152.787602 
L 58.087123 152.918022 
L 58.198184 152.700656 
L 58.348267 152.613709 
L 58.378284 152.526763 
L 58.417305 152.700656 
L 58.453325 152.613709 
L 58.558383 152.787602 
L 58.477339 152.526763 
L 58.567388 152.700656 
L 58.579395 152.744129 
L 58.684453 152.526763 
L 58.738483 152.700656 
L 58.798516 152.570236 
L 58.888566 152.483289 
L 58.981617 152.396343 
L 58.942596 152.570236 
L 59.002629 152.439816 
L 59.044652 152.570236 
L 59.047654 152.396343 
L 59.116692 152.483289 
L 59.170722 152.396343 
L 59.188732 152.526763 
L 59.287786 152.265923 
L 59.368831 152.439816 
L 59.401849 152.396343 
L 59.491899 152.309396 
L 59.593955 152.22245 
L 59.506907 152.396343 
L 59.60296 152.309396 
L 59.681003 152.22245 
L 59.684005 152.178976 
L 59.762048 152.352869 
L 59.789063 152.265923 
L 59.876111 152.352869 
L 59.81908 152.22245 
L 59.900124 152.309396 
L 60.011186 152.22245 
L 59.918134 152.352869 
L 60.014188 152.265923 
L 60.092231 152.309396 
L 60.035199 152.135503 
L 60.125249 152.265923 
L 60.131252 152.22245 
L 60.2183 152.09203 
L 60.137255 152.265923 
L 60.242314 152.22245 
L 60.350373 152.265923 
L 60.257322 152.135503 
L 60.353375 152.22245 
L 60.43442 152.22245 
L 60.533474 152.396343 
L 60.455431 152.178976 
L 60.545481 152.265923 
L 60.641534 152.439816 
L 60.611517 152.178976 
L 60.659544 152.309396 
L 60.842645 152.265923 
L 60.947703 152.178976 
L 60.881667 152.352869 
L 60.953707 152.22245 
L 60.965713 152.309396 
L 61.052761 152.09203 
L 61.058765 152.22245 
L 61.115796 152.265923 
L 61.175829 152.048557 
L 61.202844 152.09203 
L 61.220854 152.178976 
L 61.208847 152.005083 
L 61.313905 152.09203 
L 61.400954 152.005083 
L 61.424967 152.135503 
L 61.533027 152.005083 
L 61.433972 152.178976 
L 61.536028 152.09203 
L 61.614071 152.178976 
L 61.632081 152.005083 
L 61.650091 152.135503 
L 61.842197 152.048557 
L 61.848201 152.005083 
L 61.932247 152.265923 
L 61.944254 152.135503 
L 62.0283 152.22245 
L 62.040307 152.09203 
L 62.058317 152.178976 
L 62.169378 152.005083 
L 62.106343 152.309396 
L 62.17238 152.09203 
L 62.256426 152.178976 
L 62.292446 151.96161 
L 62.394502 152.135503 
L 62.409511 152.048557 
L 62.508565 152.135503 
L 62.580605 152.22245 
L 62.532579 152.048557 
L 62.619627 152.178976 
L 62.631633 152.09203 
L 62.721683 152.309396 
L 62.781716 152.265923 
L 62.895779 152.09203 
L 62.919793 152.265923 
L 63.006841 152.178976 
L 63.033856 152.005083 
L 63.120904 152.09203 
L 63.126907 152.178976 
L 63.20495 151.96161 
L 63.228963 152.048557 
L 63.288997 152.005083 
L 63.304005 151.918137 
L 63.295 152.048557 
L 63.400058 152.005083 
L 63.430075 152.048557 
L 63.475099 149.483634 
L 63.667206 141.093295 
L 63.98238 135.093985 
L 63.985381 135.137458 
L 64.036409 134.35494 
L 64.039411 134.35494 
L 64.414618 130.529293 
L 64.426625 130.485819 
L 64.570705 129.529408 
L 64.759809 128.399103 
L 64.780821 128.35563 
L 64.912894 127.573111 
L 64.915895 127.616584 
L 64.933905 127.529638 
L 65.062977 126.964485 
L 65.077985 126.877539 
L 65.083988 126.921012 
L 65.231069 126.268913 
L 65.243076 126.35586 
L 65.279096 126.09502 
L 65.327122 126.138493 
L 65.447189 125.660288 
L 65.54024 125.616814 
L 65.660307 125.312501 
L 65.66631 125.442921 
L 65.735348 125.182082 
L 65.75636 125.269028 
L 65.867421 124.921242 
L 65.870423 124.964715 
L 65.912446 124.877769 
L 66.041517 124.573456 
L 66.107554 124.660403 
L 66.134569 124.486509 
L 66.152578 124.573456 
L 66.275646 124.182197 
L 66.848963 124.09525 
L 66.869975 124.182197 
L 66.963026 124.008304 
L 66.999046 124.09525 
L 67.059079 123.834411 
L 67.062081 123.877884 
L 67.065083 123.790937 
L 67.092097 124.008304 
L 67.170141 123.921357 
L 67.293209 123.834411 
L 67.365248 123.703991 
L 67.353242 123.877884 
L 67.407272 123.790937 
L 67.533341 123.834411 
L 67.539345 123.790937 
L 67.650406 124.008304 
L 67.731451 123.790937 
L 67.767471 123.921357 
L 67.905547 123.834411 
L 67.968582 123.790937 
L 67.953573 123.96483 
L 68.013607 123.834411 
L 68.118665 124.138723 
L 68.136675 124.008304 
L 68.205713 123.877884 
L 68.238731 124.051777 
L 68.247736 124.008304 
L 68.358797 124.008304 
L 68.469859 123.790937 
L 68.367802 124.051777 
L 68.47286 123.834411 
L 68.481865 123.921357 
L 68.583922 123.96483 
L 68.532893 123.790937 
L 68.586923 123.877884 
L 68.613938 123.790937 
L 68.667968 124.008304 
L 68.694983 123.877884 
L 68.728001 124.008304 
L 68.806044 123.96483 
L 69.331334 123.877884 
L 69.430389 123.747464 
L 69.403374 123.921357 
L 69.445397 123.834411 
L 69.502429 123.877884 
L 69.460406 123.747464 
L 69.550456 123.790937 
L 69.553457 123.747464 
L 69.55946 123.877884 
L 69.652512 123.877884 
L 69.727553 123.96483 
L 69.664519 123.834411 
L 69.760572 123.877884 
L 69.874635 123.747464 
L 69.778582 123.921357 
L 69.877636 123.790937 
L 70.108764 123.834411 
L 70.111766 123.921357 
L 70.186807 123.660518 
L 70.213822 123.747464 
L 70.22883 123.790937 
L 70.330887 123.660518 
L 70.348897 123.790937 
L 70.366907 123.617044 
L 70.44495 123.703991 
L 70.538001 123.790937 
L 70.577023 123.834411 
L 70.619046 123.617044 
L 70.646061 123.747464 
L 70.697089 123.660518 
L 70.727106 123.834411 
L 70.757122 123.747464 
L 70.838167 123.790937 
L 70.814154 123.660518 
L 70.865182 123.703991 
L 70.967238 123.660518 
L 70.910207 123.790937 
L 70.973241 123.747464 
L 71.066293 123.660518 
L 71.069295 123.617044 
L 71.120323 123.834411 
L 71.174353 123.703991 
L 71.192363 123.703991 
L 71.195364 123.834411 
L 71.303424 123.790937 
L 71.390472 123.660518 
L 71.339444 123.834411 
L 71.420489 123.703991 
L 71.510538 123.834411 
L 71.534552 123.790937 
L 71.6216 123.703991 
L 71.579576 123.96483 
L 71.642611 123.834411 
L 71.744668 123.921357 
L 71.651616 123.747464 
L 71.753673 123.834411 
L 71.858731 123.747464 
L 71.765679 123.877884 
L 71.864734 123.834411 
L 71.975795 123.96483 
L 71.903756 123.790937 
L 71.981799 123.921357 
L 72.14689 123.96483 
L 72.20092 124.09525 
L 72.161898 123.921357 
L 72.257951 123.96483 
L 72.348001 123.921357 
L 72.453059 123.790937 
L 72.459062 123.834411 
L 72.567122 124.008304 
L 72.483076 123.747464 
L 72.576127 123.921357 
L 72.58213 123.96483 
L 72.693192 123.790937 
L 72.729212 123.96483 
L 72.804253 123.834411 
L 72.840273 123.790937 
L 72.876293 123.96483 
L 72.906309 123.921357 
L 72.981351 124.008304 
L 73.017371 123.96483 
L 73.071401 123.747464 
L 73.128432 123.96483 
L 73.149444 123.921357 
L 73.21548 123.790937 
L 73.155447 123.96483 
L 73.263507 123.834411 
L 73.311533 123.703991 
L 73.335546 123.921357 
L 73.374568 123.834411 
L 73.4316 123.877884 
L 73.542661 124.008304 
L 73.443606 123.834411 
L 73.545663 123.96483 
L 73.557669 124.051777 
L 73.572677 124.138723 
L 73.599692 123.96483 
L 73.668731 124.051777 
L 73.728764 124.051777 
L 73.821815 124.312616 
L 73.842827 124.182197 
L 73.863838 124.269143 
L 73.947885 124.399563 
L 73.878847 124.182197 
L 73.980903 124.35609 
L 74.212031 124.399563 
L 74.323092 124.529983 
L 74.227039 124.35609 
L 74.326094 124.486509 
L 74.389129 124.399563 
L 74.404137 124.35609 
L 74.48218 124.616929 
L 74.488183 124.573456 
L 74.659278 124.660403 
L 74.719311 124.703876 
L 74.692296 124.573456 
L 74.767337 124.616929 
L 74.776342 124.660403 
L 74.788349 124.573456 
L 74.890405 124.747349 
L 74.932429 124.660403 
L 74.923424 124.790822 
L 75.001467 124.703876 
L 75.103523 124.834296 
L 75.11553 124.747349 
L 75.13354 124.790822 
L 75.136541 124.877769 
L 75.232594 124.616929 
L 75.235596 124.616929 
L 75.307636 124.573456 
L 75.247603 124.747349 
L 75.337652 124.703876 
L 75.340654 124.747349 
L 75.397686 124.529983 
L 75.445712 124.660403 
L 75.469725 124.573456 
L 75.592793 124.399563 
L 75.616807 124.312616 
L 75.718863 124.616929 
L 75.808913 124.486509 
L 75.814916 124.660403 
L 75.826923 124.660403 
L 75.931981 124.616929 
L 75.971002 124.703876 
L 76.046044 124.529983 
L 76.091069 124.529983 
L 76.09407 124.399563 
L 76.124087 124.616929 
L 76.199128 124.573456 
L 76.223142 124.573456 
L 76.226143 124.399563 
L 76.334203 124.573456 
L 76.400239 124.486509 
L 76.415248 124.616929 
L 76.517304 124.35609 
L 76.601351 124.486509 
L 76.544319 124.312616 
L 76.628365 124.35609 
L 76.646375 124.312616 
L 76.664385 124.486509 
L 76.736425 124.399563 
L 76.751433 124.35609 
L 76.85349 124.486509 
L 76.913523 124.529983 
L 76.919526 124.616929 
L 76.931533 124.443036 
L 77.021583 124.529983 
L 77.078614 124.443036 
L 77.108631 124.616929 
L 77.129642 124.529983 
L 77.156657 124.616929 
L 77.183672 124.399563 
L 77.237702 124.486509 
L 77.315745 124.573456 
L 77.417802 124.616929 
L 77.369775 124.443036 
L 77.426807 124.573456 
L 77.438813 124.616929 
L 77.534866 124.790822 
L 77.465828 124.573456 
L 77.552876 124.747349 
L 77.636923 124.703876 
L 77.585894 124.834296 
L 77.654933 124.790822 
L 77.660936 124.877769 
L 77.684949 124.703876 
L 77.759991 124.747349 
L 77.762992 124.660403 
L 77.778001 124.877769 
L 77.86805 124.834296 
L 78.081168 124.747349 
L 78.168216 124.660403 
L 78.135198 124.921242 
L 78.192229 124.703876 
L 78.207238 124.660403 
L 78.303291 124.790822 
L 78.408349 124.703876 
L 78.414352 124.790822 
L 78.729526 124.834296 
L 78.825579 124.921242 
L 78.840588 124.877769 
L 78.882611 124.921242 
L 78.885612 125.008189 
L 78.975662 124.790822 
L 78.993672 124.921242 
L 79.032694 124.790822 
L 79.107735 124.964715 
L 79.236806 124.703876 
L 79.341864 124.877769 
L 79.353871 124.790822 
L 79.365878 124.834296 
L 79.464932 124.703876 
L 79.479941 124.660403 
L 79.578995 124.834296 
L 79.588 124.790822 
L 79.645032 124.616929 
L 79.600007 124.834296 
L 79.702063 124.660403 
L 79.759095 124.790822 
L 79.819128 124.747349 
L 79.861151 124.790822 
L 79.936193 124.573456 
L 79.954203 124.703876 
L 79.999228 124.486509 
L 80.047254 124.573456 
L 80.095281 124.443036 
L 80.104286 124.616929 
L 80.164319 124.486509 
L 80.284385 124.660403 
L 80.359427 124.703876 
L 80.398448 124.573456 
L 80.497503 124.486509 
L 80.434468 124.703876 
L 80.512511 124.529983 
L 80.608564 124.703876 
L 80.632578 124.660403 
L 80.701616 124.660403 
L 80.815679 124.834296 
L 80.914733 124.703876 
L 80.839692 124.877769 
L 80.929742 124.790822 
L 80.986773 124.877769 
L 81.019791 124.964715 
L 81.085828 124.747349 
L 81.097835 124.877769 
L 81.208896 124.747349 
L 81.211898 124.790822 
L 81.322959 124.877769 
L 81.241914 124.703876 
L 81.325961 124.834296 
L 81.34397 124.877769 
L 81.443025 125.008189 
L 81.352975 124.834296 
L 81.455032 124.921242 
L 81.47004 124.921242 
L 81.605115 138.180587 
L 82.010339 151.005198 
L 82.01334 150.918252 
L 82.076375 152.22245 
L 82.838796 161.656147 
L 82.850803 161.743094 
L 83.033904 162.829925 
L 83.045911 162.786452 
L 83.105944 163.221185 
L 83.114949 163.221185 
L 83.277038 163.96023 
L 83.283042 164.047177 
L 83.427121 164.525382 
L 83.463141 164.612329 
L 83.589211 165.047062 
L 83.469144 164.568856 
L 83.598216 164.960115 
L 83.658249 165.003588 
L 83.775314 165.351374 
L 83.778315 165.264428 
L 83.802329 165.220955 
L 83.901383 165.438321 
L 83.970421 165.351374 
L 83.997436 165.568741 
L 84.009443 165.481794 
L 84.066474 165.438321 
L 84.126508 165.69916 
L 84.213556 165.568741 
L 84.231566 165.742634 
L 84.240571 165.612214 
L 84.345629 165.786107 
L 84.285596 165.568741 
L 84.351632 165.69916 
L 84.426673 165.568741 
L 84.462693 165.612214 
L 84.591765 165.873053 
L 84.61878 165.742634 
L 84.666806 165.916527 
L 84.702826 165.82958 
L 84.798879 165.916527 
L 84.717834 165.786107 
L 84.813887 165.82958 
L 85.234119 165.873053 
L 85.237121 165.96 
L 85.315164 165.742634 
L 85.342179 165.82958 
L 85.501267 165.742634 
L 85.540289 165.873053 
L 85.612328 165.655687 
L 85.714385 165.873053 
L 85.729393 165.786107 
L 85.834451 165.69916 
L 85.750405 165.82958 
L 85.843456 165.742634 
L 85.900488 165.742634 
L 85.903489 165.873053 
L 85.909493 165.655687 
L 86.008547 165.69916 
L 86.062577 165.655687 
L 86.167635 165.481794 
L 86.17664 165.525267 
L 86.209658 165.612214 
L 86.188647 165.438321 
L 86.287702 165.568741 
L 86.344733 165.394848 
L 86.401765 165.481794 
L 86.515828 165.264428 
L 86.524832 165.307901 
L 86.599874 165.525267 
L 86.644899 165.438321 
L 86.788978 165.394848 
L 86.84601 165.264428 
L 86.90004 165.351374 
L 86.91805 165.264428 
L 86.939061 165.351374 
L 87.032113 165.220955 
L 87.077138 165.134008 
L 87.173191 164.960115 
L 87.098149 165.177481 
L 87.194202 165.047062 
L 87.233224 164.960115 
L 87.260239 165.003588 
L 87.35329 164.829695 
L 87.374302 164.916642 
L 87.410322 164.742749 
L 87.46135 164.786222 
L 87.509376 164.742749 
L 87.521383 164.786222 
L 87.620438 164.612329 
L 87.716491 164.655802 
L 87.659459 164.525382 
L 87.725496 164.612329 
L 87.839559 164.394963 
L 87.755512 164.655802 
L 87.84256 164.438436 
L 87.908597 164.481909 
L 87.929609 164.264543 
L 87.941615 164.308016 
L 88.070686 164.047177 
L 88.100703 164.047177 
L 88.202759 163.742864 
L 88.217768 163.786337 
L 88.244783 163.742864 
L 88.265794 163.786337 
L 88.358846 163.612444 
L 88.409874 163.525497 
L 88.427884 163.568971 
L 88.52994 163.351604 
L 88.54795 163.482024 
L 88.613987 163.221185 
L 88.631997 163.264658 
L 88.671018 163.308131 
L 88.752063 162.960345 
L 88.755065 163.047292 
L 88.830106 162.829925 
L 88.860123 162.873399 
L 88.980189 162.525612 
L 89.007204 162.569086 
L 89.070239 162.308246 
L 89.079244 162.351719 
L 89.124268 162.264773 
L 89.130272 162.308246 
L 89.250338 162.003933 
L 89.25334 162.047407 
L 89.322378 161.743094 
L 89.346391 161.786567 
L 89.457453 161.569201 
L 89.469459 161.612674 
L 89.511482 161.525727 
L 89.520487 161.612674 
L 89.63455 161.264888 
L 89.637552 161.395308 
L 89.655562 161.177941 
L 89.74261 161.264888 
L 89.853671 160.960575 
L 89.871681 161.004048 
L 89.889691 160.917102 
L 89.907701 160.960575 
L 90.015761 160.656262 
L 90.018763 160.743209 
L 90.087801 160.395423 
L 90.117817 160.438896 
L 90.159841 160.351949 
L 90.171847 160.438896 
L 90.291914 160.004163 
L 90.294915 160.09111 
L 90.384965 159.873744 
L 90.396972 159.873744 
L 90.423986 159.786797 
L 90.544053 159.482484 
L 90.553058 159.525957 
L 90.619094 159.482484 
L 90.727154 159.265118 
L 90.736159 159.308591 
L 90.868232 158.960805 
L 90.88324 159.091225 
L 90.952278 158.786912 
L 90.970288 158.830385 
L 91.105363 158.482599 
L 91.144384 158.569546 
L 91.186408 158.352179 
L 91.204418 158.395653 
L 91.315479 158.134813 
L 91.321482 158.178286 
L 91.351499 158.09134 
L 91.477568 157.8305 
L 91.48057 157.917447 
L 91.561615 157.656607 
L 91.582627 157.743554 
L 91.58863 157.787027 
L 91.717701 157.395768 
L 91.723704 157.482714 
L 91.789741 157.221875 
L 91.813754 157.221875 
L 91.939824 156.961035 
L 91.942826 157.047982 
L 92.032875 156.743669 
L 92.04188 156.743669 
L 92.0779 156.700196 
L 92.182958 156.439356 
L 92.194965 156.482829 
L 92.197966 156.569776 
L 92.267005 156.265463 
L 92.300023 156.308936 
L 92.423091 156.004623 
L 92.426092 156.048097 
L 92.507137 156.135043 
L 92.495131 155.917677 
L 92.534152 155.96115 
L 92.600189 155.917677 
L 92.714252 155.613364 
L 92.717253 155.700311 
L 92.741267 155.613364 
L 92.753273 155.656837 
L 92.87334 155.265578 
L 92.912361 155.352524 
L 92.951383 155.135158 
L 92.975396 155.178631 
L 93.092461 154.830845 
L 93.131482 154.917792 
L 93.185512 154.700426 
L 93.197519 154.743899 
L 93.320587 154.526532 
L 93.323588 154.570006 
L 93.413638 154.309166 
L 93.41664 154.309166 
L 93.482676 154.22222 
L 93.596739 154.004853 
L 93.671781 154.004853 
L 93.788845 153.744014 
L 93.863887 153.700541 
L 93.989956 152.918022 
L 93.992958 152.961495 
L 94.046988 152.526763 
L 94.074003 152.526763 
L 94.176059 152.22245 
L 94.203074 152.265923 
L 94.206076 152.396343 
L 94.30513 152.135503 
L 94.311134 152.135503 
L 94.350155 152.178976 
L 94.386175 152.005083 
L 94.410189 152.005083 
L 94.419193 152.048557 
L 94.524252 151.918137 
L 94.548265 151.96161 
L 94.614301 151.787717 
L 94.623306 151.83119 
L 94.731366 151.657297 
L 94.632311 151.874664 
L 94.737369 151.744244 
L 94.866441 151.483404 
L 94.95649 151.396458 
L 95.043538 151.135618 
L 95.073555 151.222565 
L 95.085562 151.135618 
L 95.175611 150.744359 
L 95.214633 150.874779 
L 95.223638 150.787832 
L 95.346706 150.570466 
L 95.400736 150.657412 
L 95.445761 150.396573 
L 95.448762 150.440046 
L 95.562825 150.135733 
L 95.574832 150.179206 
L 95.613853 150.266153 
L 95.664882 149.918367 
L 95.673887 150.005313 
L 95.67989 150.048787 
L 95.799956 149.701001 
L 95.850984 149.787947 
L 95.902013 149.483634 
L 95.905014 149.527108 
L 95.926026 149.614054 
L 95.995064 149.353214 
L 96.004069 149.396688 
L 96.127137 149.092375 
L 96.010072 149.440161 
L 96.130139 149.135848 
L 96.13314 149.179321 
L 96.214185 148.875009 
L 96.226192 148.918482 
L 96.355263 148.657642 
L 96.391283 148.570696 
L 96.400288 148.614169 
L 96.520354 148.266383 
L 96.547369 148.396803 
L 96.586391 148.179436 
L 96.628414 148.179436 
L 96.688447 148.135963 
L 96.799508 147.918597 
L 96.805512 147.96207 
L 96.83853 147.918597 
L 96.961598 147.570811 
L 97.042643 147.483864 
L 97.132692 147.179551 
L 97.159707 147.266498 
L 97.177717 147.223025 
L 97.300785 146.875239 
L 97.348812 146.788292 
L 97.462875 146.614399 
L 97.354815 146.831765 
L 97.468878 146.657872 
L 97.5079 146.570926 
L 97.615959 146.35356 
L 97.52591 146.701346 
L 97.627966 146.440506 
L 97.697004 146.35356 
L 97.832079 145.9623 
L 97.898115 146.005773 
L 97.883107 145.875354 
L 97.937137 145.875354 
L 97.955147 145.918827 
L 98.060205 145.657987 
L 98.081216 145.701461 
L 98.111233 145.527568 
L 98.162261 145.614514 
L 98.285329 145.223255 
L 98.324351 145.353675 
L 98.354367 145.179781 
L 98.393389 145.179781 
L 98.513455 144.962415 
L 98.516457 145.005888 
L 98.561482 144.918942 
L 98.57649 145.005888 
L 98.681548 144.701576 
L 98.687551 144.831995 
L 98.762593 144.527683 
L 98.789608 144.614629 
L 98.906672 144.179896 
L 98.927684 144.22337 
L 98.972709 144.22337 
L 99.092775 143.83211 
L 99.128795 143.83211 
L 99.236855 143.571271 
L 99.242858 143.658217 
L 99.377933 143.266958 
L 99.398944 143.353905 
L 99.452974 143.136538 
L 99.473986 143.136538 
L 99.579044 143.006118 
L 99.479989 143.180012 
L 99.588049 143.049592 
L 99.615064 142.962645 
L 99.723123 142.745279 
L 99.62707 143.093065 
L 99.73513 142.832225 
L 99.768148 142.745279 
L 99.774152 142.788752 
L 99.906225 142.35402 
L 99.924235 142.440966 
L 99.996274 142.136653 
L 100.011283 142.2236 
L 100.119342 141.83234 
L 100.128347 141.875814 
L 100.185379 141.83234 
L 100.299442 141.571501 
L 100.302444 141.614974 
L 100.38649 141.571501 
L 100.509558 141.223715 
L 100.572593 141.136768 
L 100.686656 140.919402 
L 100.599608 141.180242 
L 100.695661 140.962875 
L 100.782709 140.875929 
L 100.788712 140.919402 
L 100.908778 140.571616 
L 100.926788 140.702036 
L 100.956805 140.528143 
L 101.016838 140.571616 
L 101.142908 140.310776 
L 101.175926 140.35425 
L 101.232958 140.09341 
L 101.241963 140.180357 
L 101.359027 139.83257 
L 101.362029 139.919517 
L 101.470089 139.658677 
L 101.374035 139.96299 
L 101.488098 139.702151 
L 101.515113 139.658677 
L 101.632178 139.441311 
L 101.63518 139.484784 
L 101.692211 139.267418 
L 101.734234 139.310891 
L 101.767253 139.223945 
L 101.890321 138.919632 
L 101.893322 138.963105 
L 101.920337 139.050052 
L 101.986374 138.789212 
L 101.989375 138.789212 
L 102.112443 138.484899 
L 101.995379 138.832685 
L 102.115445 138.571846 
L 102.151465 138.615319 
L 102.17848 138.441426 
L 102.217501 138.484899 
L 102.340569 138.09364 
L 102.394599 138.006694 
L 102.523671 137.745854 
L 102.61372 137.702381 
L 102.724782 137.528488 
L 102.628729 137.745854 
L 102.727783 137.571961 
L 102.781813 137.528488 
L 102.895876 137.267648 
L 102.898878 137.354595 
L 103.015943 137.006809 
L 103.027949 137.093755 
L 103.051962 137.006809 
L 103.172029 136.745969 
L 103.184035 136.702496 
L 103.274085 136.441656 
L 103.298098 136.528603 
L 103.430171 136.22429 
L 103.493206 136.267763 
L 103.526224 136.006924 
L 103.532228 136.09387 
L 103.643289 135.83303 
L 103.649292 135.876504 
L 103.673306 135.83303 
L 103.796374 135.441771 
L 103.856407 135.485244 
L 103.892427 135.311351 
L 103.901432 135.398298 
L 104.015495 135.093985 
L 104.021498 135.137458 
L 104.039508 135.224405 
L 104.111548 134.920092 
L 104.123554 135.050512 
L 104.150569 135.093985 
L 104.246622 134.789672 
L 104.255627 134.876619 
L 104.309657 134.659252 
L 104.35168 134.659252 
L 104.417717 134.572306 
L 104.546788 134.311466 
L 104.54979 134.35494 
L 104.636838 134.137573 
L 104.648845 134.181047 
L 104.747899 133.920207 
L 104.768911 134.007154 
L 104.771913 134.050627 
L 104.825942 133.702841 
L 104.864964 133.789787 
L 104.997037 133.442001 
L 105.000039 133.485474 
L 105.090088 133.224635 
L 105.09309 133.224635 
L 105.21916 132.963795 
L 105.252178 133.007269 
L 105.294201 132.746429 
L 105.318214 132.789902 
L 105.405262 132.702956 
L 105.531332 132.485589 
L 105.576357 132.485589 
L 105.678413 132.35517 
L 105.591365 132.529063 
L 105.687418 132.398643 
L 105.69042 132.485589 
L 105.783471 132.181277 
L 105.792476 132.22475 
L 105.870519 131.920437 
L 105.79848 132.268223 
L 105.918546 132.007384 
L 105.927551 132.050857 
L 105.996589 131.746544 
L 106.011597 131.746544 
L 106.050619 131.659597 
L 106.056622 131.703071 
L 106.182692 131.311811 
L 106.221713 131.398758 
L 106.26974 131.181392 
L 106.28775 131.268338 
L 106.404815 131.007499 
L 106.410818 131.050972 
L 106.497866 130.790132 
L 106.503869 130.877079 
L 106.629939 130.659712 
L 106.632941 130.703186 
L 106.725992 130.442346 
L 106.728994 130.485819 
L 106.81304 130.442346 
L 106.930105 130.007614 
L 106.936108 130.051087 
L 106.966125 129.96414 
L 107.005146 130.007614 
L 107.083189 129.790247 
L 107.209259 129.529408 
L 107.221266 129.572881 
L 107.293305 129.312041 
L 107.311315 129.398988 
L 107.42838 129.007729 
L 107.530436 128.920782 
L 107.665511 128.442576 
L 107.671514 128.486049 
L 107.746556 128.399103 
L 107.761564 128.486049 
L 107.878629 128.09479 
L 107.923654 128.138263 
L 107.962675 127.96437 
L 107.980685 128.007844 
L 108.124765 127.529638 
L 108.136771 127.616584 
L 108.202808 127.268798 
L 108.229823 127.399218 
L 108.256838 127.312271 
L 108.367899 127.007959 
L 108.385909 127.051432 
L 108.469955 126.964485 
L 108.529989 126.790592 
L 108.584018 126.877539 
L 108.656058 126.834066 
L 108.755113 126.486279 
L 108.671067 126.877539 
L 108.770121 126.573226 
L 108.836158 126.486279 
L 108.944217 126.312386 
L 108.848164 126.529753 
L 108.953222 126.399333 
L 108.968231 126.312386 
L 109.103305 125.9646 
L 109.175345 126.008074 
L 109.136324 125.877654 
L 109.208363 125.921127 
L 109.322426 125.616814 
L 109.325428 125.703761 
L 109.34644 125.616814 
L 109.436489 125.399448 
L 109.469508 125.442921 
L 109.535544 125.355975 
L 109.65561 125.138608 
L 109.544549 125.442921 
L 109.658612 125.182082 
L 109.751663 125.095135 
L 109.87173 124.790822 
L 109.775677 125.138608 
L 109.880735 124.834296 
L 109.940768 124.747349 
L 110.081846 124.312616 
L 110.099856 124.35609 
L 110.156887 124.182197 
L 110.183902 124.182197 
L 110.30697 123.790937 
L 110.32498 123.877884 
L 110.403023 123.573571 
L 110.46906 123.486624 
L 110.586124 123.095365 
L 110.592128 123.138838 
L 110.601133 123.182312 
L 110.730204 122.747579 
L 110.766224 122.791052 
L 110.769226 122.877999 
L 110.862277 122.443266 
L 110.865279 122.443266 
L 110.874284 122.573686 
L 110.955328 122.312846 
L 110.967335 122.312846 
L 111.027368 122.269373 
L 111.141431 121.96506 
L 111.147435 122.008534 
L 111.183454 121.921587 
L 111.219474 121.96506 
L 111.309524 121.704221 
L 111.321531 121.660748 
L 111.339541 121.704221 
L 111.450602 121.139068 
L 111.456605 121.269488 
L 111.525643 120.921702 
L 111.552658 120.965175 
L 111.672725 120.660863 
L 111.69974 120.747809 
L 111.762774 120.48697 
L 111.771779 120.48697 
L 111.801796 120.400023 
L 111.948877 119.878344 
L 111.960884 119.791397 
L 112.074947 119.617504 
L 112.041929 119.834871 
L 112.077949 119.660978 
L 112.08095 119.704451 
L 112.110967 119.487085 
L 112.183007 119.574031 
L 112.20702 119.487085 
L 112.219026 119.530558 
L 112.348098 119.008879 
L 112.351099 119.052352 
L 112.426141 118.878459 
L 112.453156 118.921932 
L 112.465162 118.965405 
L 112.573222 118.704566 
L 112.621249 118.878459 
L 112.666274 118.617619 
L 112.684283 118.748039 
L 112.801348 118.313306 
L 112.807351 118.35678 
L 112.810353 118.400253 
L 112.885395 118.09594 
L 112.900403 118.09594 
L 112.906406 118.139413 
L 113.026473 117.791627 
L 113.038479 117.878574 
L 113.113521 117.661208 
L 113.134532 117.704681 
L 113.269607 117.226475 
L 113.272608 117.269948 
L 113.27561 117.313422 
L 113.32964 117.009109 
L 113.359657 117.009109 
L 113.49173 116.400483 
L 113.500735 116.443956 
L 113.578778 116.139643 
L 113.584781 116.139643 
L 113.635809 116.052697 
L 113.758877 115.704911 
L 113.770884 115.791857 
L 113.851929 115.444071 
L 113.987003 115.096285 
L 113.990005 115.139758 
L 114.074051 114.791972 
L 114.080055 114.922392 
L 114.188114 114.531133 
L 114.197119 114.618079 
L 114.341199 114.139873 
L 114.395229 114.052927 
L 114.536307 113.400828 
L 114.401232 114.0964 
L 114.545312 113.444301 
L 114.611348 113.487775 
L 114.638363 113.226935 
L 114.641365 113.270408 
L 114.794449 112.661783 
L 114.803454 112.705256 
L 114.884499 112.48789 
L 114.896506 112.531363 
L 114.983554 112.48789 
L 115.106622 112.009684 
L 115.109623 112.053157 
L 115.118628 112.09663 
L 115.205676 111.879264 
L 115.208678 111.922737 
L 115.331746 111.748844 
L 115.349756 111.792317 
L 115.412791 111.488005 
L 115.427799 111.531478 
L 115.448811 111.618424 
L 115.57488 110.966325 
L 115.604897 111.053272 
L 115.652923 110.662013 
L 115.661928 110.662013 
L 115.667932 110.575066 
L 115.733968 110.792432 
L 115.763985 110.748959 
L 115.781995 110.792432 
L 115.851033 110.444646 
L 115.854035 110.444646 
L 115.905063 110.3577 
L 116.007119 110.09686 
L 116.022127 110.140334 
L 116.028131 110.22728 
L 116.127185 110.009914 
L 116.130187 110.053387 
L 116.17221 110.140334 
L 116.259258 109.705601 
L 116.343305 109.792547 
L 116.28027 109.618654 
L 116.367318 109.662128 
L 116.436356 109.401288 
L 116.481381 109.531708 
L 116.502393 109.444761 
L 116.589441 109.401288 
L 116.532409 109.531708 
L 116.610452 109.444761 
L 116.679491 109.488235 
L 116.649474 109.357815 
L 116.712509 109.357815 
L 116.832575 109.183922 
L 116.835577 109.227395 
L 116.901613 109.010029 
L 116.940635 109.140449 
L 117.045693 109.096975 
L 117.048694 109.010029 
L 117.108728 109.270868 
L 117.156754 109.053502 
L 117.177766 109.183922 
L 117.237799 108.879609 
L 117.258811 108.923082 
L 117.300834 108.966555 
L 117.387882 109.096975 
L 117.339855 108.923082 
L 117.411895 108.966555 
L 117.49294 109.053502 
L 117.432907 108.923082 
L 117.519955 108.923082 
L 117.588993 108.531823 
L 117.649026 108.662243 
L 117.652028 108.749189 
L 117.742078 108.270983 
L 117.745079 108.314457 
L 117.898164 107.705831 
L 117.949192 107.618884 
L 117.955195 107.662358 
L 118.081265 107.314572 
L 118.084267 107.358045 
L 118.165311 107.010259 
L 118.168313 107.053732 
L 118.210336 106.879839 
L 118.279374 106.966786 
L 118.324399 107.097205 
L 118.360419 106.836366 
L 118.384432 106.966786 
L 118.492492 106.705946 
L 118.501497 106.749419 
L 118.5075 106.792892 
L 118.549524 106.48858 
L 118.594548 106.532053 
L 118.72362 106.09732 
L 118.729623 106.140794 
L 118.738628 106.184267 
L 118.810668 105.749534 
L 118.813669 105.749534 
L 118.882708 105.836481 
L 118.912724 106.053847 
L 118.993769 105.923427 
L 119.029789 106.010374 
L 119.110834 105.662588 
L 119.170867 105.793007 
L 119.206887 105.575641 
L 119.218893 105.662588 
L 119.24891 105.575641 
L 119.293935 105.923427 
L 119.323951 105.706061 
L 119.329955 105.793007 
L 119.389988 105.445221 
L 119.414001 105.445221 
L 119.552077 104.575756 
L 119.594101 104.749649 
L 119.636124 104.314917 
L 119.654134 104.314917 
L 119.72017 104.445336 
L 119.768197 104.141024 
L 119.786207 104.271443 
L 119.867251 103.706291 
L 119.978313 103.271558 
L 119.987318 103.315032 
L 120.080369 103.401978 
L 119.993321 103.228085 
L 120.098379 103.315032 
L 120.107384 103.271558 
L 120.119391 103.315032 
L 120.230452 102.880299 
L 120.365527 102.923772 
L 120.374532 103.054192 
L 120.428562 102.749879 
L 120.470585 102.793353 
L 120.596654 102.402093 
L 120.605659 102.445566 
L 120.689706 102.402093 
L 120.770751 101.576101 
L 120.821779 101.749994 
L 120.920834 101.880414 
L 120.854797 101.663048 
L 120.93284 101.749994 
L 121.016887 101.749994 
L 121.139955 100.924002 
L 121.142956 100.967476 
L 121.233006 101.141369 
L 121.154963 100.880529 
L 121.254018 100.967476 
L 121.380087 100.402323 
L 121.269026 101.010949 
L 121.383089 100.445796 
L 121.398097 100.35885 
L 121.53017 99.402438 
L 121.407102 100.402323 
L 121.536173 99.576331 
L 121.5842 99.272018 
L 121.659241 99.402438 
L 121.668246 99.445911 
L 121.72828 99.663278 
L 121.767301 99.402438 
L 121.776306 99.402438 
L 121.890369 98.402553 
L 121.782309 99.445911 
L 121.944399 98.576446 
L 121.983421 98.619919 
L 122.022442 98.750339 
L 122.079474 98.35908 
L 122.085477 98.35908 
L 122.274581 97.054882 
L 122.280585 97.098355 
L 122.403653 97.489615 
L 122.286588 97.054882 
L 122.412658 97.446141 
L 122.529722 96.837516 
L 122.559739 96.880989 
L 122.565742 96.967936 
L 122.583752 96.707096 
L 122.661795 96.750569 
L 122.68881 96.837516 
L 122.829888 97.272248 
L 122.8509 97.359195 
L 122.853901 97.402668 
L 122.940949 97.098355 
L 123.049009 96.272363 
L 123.097036 96.446256 
L 123.100037 96.533203 
L 123.17808 95.968051 
L 123.190087 96.011524 
L 123.2141 95.924577 
L 123.277135 96.272363 
L 123.280137 96.272363 
L 123.439225 96.967936 
L 123.499258 97.272248 
L 123.7574 91.055572 
L 123.787417 22.367821 
L 123.853454 99.924117 
L 123.913487 106.879839 
L 123.976522 105.097435 
L 124.216654 101.358735 
L 124.525825 98.402553 
L 124.528827 98.446026 
L 124.543835 98.402553 
L 124.723934 96.22889 
L 124.726936 96.272363 
L 124.735941 96.272363 
L 124.756953 96.35931 
L 124.865012 95.402898 
L 124.871016 95.359425 
L 125.027102 94.011754 
L 125.111148 94.316067 
L 125.04211 93.924807 
L 125.153172 94.22912 
L 125.198196 94.316067 
L 125.309258 90.707786 
L 125.330269 55.016239 
L 125.345278 21.237516 
L 125.426322 103.706291 
L 125.468346 106.053847 
L 125.540385 104.401863 
L 126.185742 93.663968 
L 126.215759 31.844991 
L 126.224764 19.629005 
L 126.293802 100.967476 
L 126.34483 105.836481 
L 126.413868 104.445336 
L 127.029208 97.141829 
L 127.03221 97.185302 
L 127.089241 96.402783 
L 127.152276 94.316067 
L 127.173287 71.188292 
L 127.191297 20.802783 
L 127.272342 103.358505 
L 127.311364 105.575641 
L 127.383404 104.010604 
L 127.530485 101.836941 
L 127.554498 101.749994 
L 127.716588 100.271903 
L 128.244879 94.22912 
L 128.247881 94.272593 
L 128.286903 93.272708 
L 128.316919 91.403358 
L 128.337931 60.146084 
L 128.355941 21.541829 
L 128.436986 103.054192 
L 128.470004 104.749649 
L 128.545045 102.880299 
L 128.551049 102.836826 
L 128.722143 100.22843 
L 129.24143 91.707671 
L 129.265443 43.974031 
L 129.27745 20.541944 
L 129.358495 102.141254 
L 129.394515 104.271443 
L 129.469556 102.575986 
L 129.670667 98.663393 
L 129.976836 92.794503 
L 129.997848 62.971846 
L 130.015858 20.324577 
L 130.096903 102.315147 
L 130.126919 104.575756 
L 130.210966 102.880299 
L 130.394067 99.750224 
L 130.712242 93.533548 
L 130.736256 64.710776 
L 130.754266 19.107326 
L 130.83531 101.663048 
L 130.868329 104.141024 
L 130.946372 102.141254 
L 130.952375 102.141254 
L 131.126471 99.315492 
L 131.132475 99.272018 
L 131.285559 97.446141 
L 131.483669 89.794848 
L 131.519689 18.75954 
L 131.585725 97.576561 
L 131.639755 103.749764 
L 131.708793 101.967361 
L 132.216073 93.098815 
L 132.240086 68.058217 
L 132.261098 19.498585 
L 132.339141 100.619689 
L 132.378163 103.054192 
L 132.453204 101.358735 
L 132.687334 97.750454 
L 132.69934 97.663508 
L 133.029523 91.533778 
L 133.053536 68.884209 
L 133.074547 18.542174 
L 133.152591 100.706636 
L 133.191612 103.445451 
L 133.263652 101.184842 
L 133.269655 101.097895 
L 133.479771 96.794043 
L 133.725907 91.620725 
L 133.746919 76.49203 
L 133.770932 19.281219 
L 133.842972 98.011294 
L 133.887997 103.141139 
L 133.963038 100.924002 
L 134.407284 92.881449 
L 134.431297 85.664888 
L 134.464315 18.976906 
L 134.530352 96.576676 
L 134.590385 102.575986 
L 134.65342 100.663163 
L 134.884547 96.967936 
L 134.890551 97.011409 
L 135.21473 91.099045 
L 135.238743 70.318827 
L 135.259755 19.498585 
L 135.340799 100.22843 
L 135.376819 102.184727 
L 135.451861 100.271903 
L 135.607947 97.011409 
L 135.821065 92.35977 
L 135.845078 87.490765 
L 135.881098 18.933433 
L 135.944133 93.968281 
L 136.007167 101.880414 
L 136.067201 100.22843 
L 136.349357 95.229005 
L 136.35536 95.142059 
L 136.610501 84.838896 
L 136.640517 18.62912 
L 136.709556 95.968051 
L 136.760584 101.663048 
L 136.829622 99.837171 
L 137.240849 85.534468 
L 137.270866 19.368166 
L 137.339904 95.533318 
L 137.393934 101.271788 
L 137.462972 99.532858 
L 137.718113 95.229005 
L 137.721114 95.359425 
L 137.796156 94.0987 
L 137.799157 94.0987 
L 137.93123 86.143094 
L 137.964249 18.585647 
L 138.030285 95.620265 
L 138.081313 101.489155 
L 138.150351 99.358965 
L 138.52856 92.35977 
L 138.612607 83.186912 
L 138.642623 19.194273 
L 138.711662 95.402898 
L 138.765691 100.271903 
L 138.831728 98.185187 
L 139.173917 91.490305 
L 139.36002 87.186452 
L 139.384033 66.971386 
L 139.405045 18.237861 
L 139.483088 96.62015 
L 139.528113 99.837171 
L 139.600152 97.880874 
L 139.79526 94.22912 
L 139.798262 94.272593 
L 139.855293 93.490075 
L 140.047399 89.229695 
L 140.071413 71.449132 
L 140.095426 17.542289 
L 140.167466 95.750684 
L 140.224497 100.271903 
L 140.28453 98.22866 
L 140.491645 94.055227 
L 140.668743 86.708246 
L 140.710766 17.890075 
L 140.770799 91.838091 
L 140.827831 100.184957 
L 140.893867 98.272133 
L 141.218046 86.49088 
L 141.257068 17.803128 
L 141.320102 91.142519 
L 141.377134 99.706751 
L 141.446172 97.750454 
L 141.662291 93.185762 
L 141.938444 83.143439 
L 141.974464 17.498815 
L 142.037499 91.055572 
L 142.100534 99.185072 
L 142.160567 97.446141 
L 142.343668 93.229235 
L 142.616819 87.882024 
L 142.643834 67.971271 
L 142.667847 18.063968 
L 142.739887 94.794273 
L 142.78191 99.054652 
L 142.859953 96.880989 
L 143.202142 83.839011 
L 143.241164 17.890075 
L 143.301197 89.968741 
L 143.367233 99.315492 
L 143.427267 97.750454 
L 143.790467 84.404163 
L 143.829489 16.933663 
L 143.892524 91.055572 
L 143.949555 98.837286 
L 144.015592 97.315722 
L 144.243718 92.142404 
L 144.246719 92.185877 
L 144.279737 91.142519 
L 144.282739 91.142519 
L 144.48385 79.795998 
L 144.513867 18.324807 
L 144.582905 92.924922 
L 144.630931 98.706866 
L 144.705973 96.707096 
L 145.000135 90.881679 
L 145.132208 82.534813 
L 145.162225 17.933548 
L 145.231263 92.316297 
L 145.276288 98.315607 
L 145.351329 96.402783 
L 145.687515 85.012789 
L 145.729538 17.281449 
L 145.789571 88.316757 
L 145.852606 98.09824 
L 145.918643 96.533203 
L 146.272838 89.794848 
L 146.380898 84.317217 
L 146.416918 17.455342 
L 146.479953 90.49042 
L 146.536984 98.402553 
L 146.603021 96.22889 
L 146.822142 91.533778 
L 147.044265 86.708246 
L 147.07128 82.926072 
L 147.110301 17.064083 
L 147.170334 87.664658 
L 147.230367 97.402668 
L 147.296404 95.185532 
L 147.500517 89.794848 
L 147.50652 89.751374 
L 147.746653 81.274089 
L 147.779671 17.455342 
L 147.845707 89.925267 
L 147.908742 96.837516 
L 147.968775 95.011639 
L 148.148875 89.881794 
L 148.271943 86.534353 
L 148.310964 80.49157 
L 148.349986 17.585762 
L 148.410019 87.664658 
L 148.479057 96.533203 
L 148.536089 95.011639 
L 148.872274 82.534813 
L 148.914298 16.020725 
L 148.974331 86.882139 
L 149.043369 96.837516 
L 149.1004 94.794273 
L 149.385558 89.055802 
L 149.478609 83.534698 
L 149.523634 16.107671 
L 149.580666 85.795308 
L 149.649704 96.663623 
L 149.706735 94.968166 
L 149.907847 89.620955 
L 149.910848 89.664428 
L 149.952871 88.664543 
L 150.123966 80.795883 
L 150.162987 16.542404 
L 150.226022 87.273399 
L 150.283054 96.576676 
L 150.352092 94.837746 
L 150.481163 91.359885 
L 150.754314 81.274089 
L 150.790334 16.716297 
L 150.853369 88.22981 
L 150.907399 96.48973 
L 150.976437 94.403013 
L 151.300616 83.317332 
L 151.345641 16.194618 
L 151.405674 85.577941 
L 151.468709 96.185417 
L 151.531744 94.055227 
L 151.915956 79.926417 
L 151.957979 16.542404 
L 152.018012 85.317102 
L 152.084049 94.968166 
L 152.144082 93.185762 
L 152.312175 88.968856 
L 152.318178 88.925382 
L 152.570317 78.752639 
L 152.609339 16.281564 
L 152.669372 85.317102 
L 152.732407 95.489845 
L 152.795442 93.403128 
L 153.200666 79.361265 
L 153.242689 15.759885 
L 153.302722 84.925842 
L 153.362755 94.968166 
L 153.428792 93.142289 
L 153.629903 87.925497 
L 153.743966 84.751949 
L 153.767979 77.274549 
L 153.807 16.368511 
L 153.867034 84.882369 
L 153.936072 94.837746 
L 153.993103 93.142289 
L 154.197216 87.708131 
L 154.323286 80.839356 
L 154.368311 16.064198 
L 154.428344 84.317217 
L 154.49438 94.35954 
L 154.554413 92.62061 
L 154.782539 87.447292 
L 154.788543 87.403818 
L 155.007664 79.056952 
L 155.049687 16.107671 
L 155.10972 84.447637 
L 155.172755 94.011754 
L 155.23579 92.35977 
L 155.565972 74.014054 
L 155.601992 16.455457 
L 155.662025 82.708706 
L 155.734065 93.881334 
L 155.791097 92.011984 
L 155.902158 88.838436 
L 156.115276 76.405083 
L 156.154297 16.368511 
L 156.21433 82.404393 
L 156.28637 93.446601 
L 156.343402 91.968511 
L 156.346403 91.968511 
L 156.625557 75.492145 
L 156.664579 15.977251 
L 156.724612 82.795653 
L 156.790649 93.577021 
L 156.850682 91.751144 
L 157.261909 77.404968 
L 157.303932 15.672938 
L 157.363965 82.969546 
L 157.427 93.663968 
L 157.490035 91.968511 
L 157.925275 76.187717 
L 157.967299 15.542519 
L 158.02433 80.404623 
L 158.087365 93.620495 
L 158.1504 91.664198 
L 158.501594 84.708476 
L 158.60365 81.752294 
L 158.627663 71.883864 
L 158.660682 15.194733 
L 158.723717 83.882484 
L 158.789753 93.316182 
L 158.849786 91.316412 
L 159.035889 85.882254 
L 159.12894 77.100656 
L 159.170964 15.890305 
L 159.230997 80.969776 
L 159.300035 92.22935 
L 159.360068 90.664313 
L 159.366071 90.577366 
L 159.750284 77.318022 
L 159.792307 15.716412 
L 159.85234 81.274089 
L 159.921378 92.35977 
L 159.97841 90.707786 
L 160.089471 87.490765 
L 160.368625 77.187602 
L 160.416652 15.629465 
L 160.473683 79.839471 
L 160.53972 91.925037 
L 160.602755 90.055687 
L 160.752837 86.273514 
L 161.016983 76.318137 
L 161.059007 15.455572 
L 161.11904 79.926417 
L 161.185076 91.925037 
L 161.245109 90.012214 
L 161.584297 70.927453 
L 161.620317 15.846832 
L 161.68035 80.056837 
L 161.743385 91.446832 
L 161.80642 89.577481 
L 162.163617 76.057297 
L 162.211643 16.194618 
L 162.268675 78.404853 
L 162.334711 91.055572 
L 162.397746 89.316642 
L 162.619869 84.49111 
L 162.73093 78.535273 
L 162.778957 15.759885 
L 162.83899 78.317907 
L 162.91103 90.881679 
L 162.971063 89.273168 
L 163.253219 81.795768 
L 163.25622 81.795768 
L 163.34627 73.535848 
L 163.385292 15.325152 
L 163.445325 79.056952 
L 163.50836 91.185992 
L 163.574396 89.273168 
L 163.85355 78.709166 
L 163.904579 15.629465 
L 163.964612 78.535273 
L 164.03365 90.22958 
L 164.093683 88.664543 
L 164.375839 81.230615 
L 164.390847 81.143669 
L 164.507912 75.057412 
L 164.555938 15.672938 
L 164.61297 75.796458 
L 164.676005 89.707901 
L 164.742041 88.055917 
L 164.949156 79.361265 
L 164.991179 41.843841 
L 165.009189 16.455457 
L 165.08423 83.447752 
L 165.144263 89.229695 
L 165.207298 87.621185 
L 165.462439 81.143669 
L 165.465441 81.187142 
L 165.669554 76.665923 
L 165.702572 60.23303 
L 165.729587 15.585992 
L 165.795623 80.317677 
L 165.855656 89.229695 
L 165.921693 87.186452 
L 166.191842 71.709971 
L 166.233865 16.49893 
L 166.293898 76.057297 
L 166.371942 88.664543 
L 166.42297 87.316872 
L 166.425971 87.316872 
L 166.699122 80.274204 
L 166.756154 78.013594 
L 166.789172 59.493985 
L 166.816187 15.977251 
L 166.882223 80.36115 
L 166.951262 88.968856 
L 167.008293 87.447292 
L 167.311461 69.492835 
L 167.353484 15.846832 
L 167.410515 76.405083 
L 167.479553 89.229695 
L 167.539587 87.577711 
L 167.839752 76.013824 
L 167.890781 15.499045 
L 167.947812 75.057412 
L 168.01685 89.229695 
L 168.076883 87.621185 
L 168.079885 87.621185 
L 168.401063 70.449247 
L 168.437082 15.542519 
L 168.500117 78.100541 
L 168.569155 89.142749 
L 168.629189 87.577711 
L 168.899338 77.057182 
L 168.953368 15.455572 
L 169.010399 74.057527 
L 169.094446 88.664543 
L 169.142472 87.447292 
L 169.148475 87.360345 
L 169.259537 84.143324 
L 169.475656 66.667073 
L 169.511676 15.107786 
L 169.571709 76.318137 
L 169.646751 88.316757 
L 169.700781 86.925612 
L 170.054976 73.448902 
L 170.103003 14.76 
L 170.160034 75.100886 
L 170.235076 87.838551 
L 170.289106 86.403933 
L 170.559255 69.840621 
L 170.60428 15.499045 
L 170.661311 73.101116 
L 170.742356 87.882024 
L 170.793384 86.186567 
L 171.09355 68.797263 
L 171.135573 15.194733 
L 171.192605 73.101116 
L 171.267646 87.534238 
L 171.321676 86.273514 
L 171.612837 69.318942 
L 171.657862 15.499045 
L 171.714893 73.231535 
L 171.79894 87.534238 
L 171.843964 86.056147 
L 172.153135 68.275584 
L 172.19816 15.977251 
L 172.255192 71.753445 
L 172.336236 86.6213 
L 172.387265 85.230155 
L 172.756469 77.665808 
L 172.75947 77.709281 
L 172.834512 77.231075 
L 172.837513 77.231075 
L 172.90355 74.666153 
L 172.936568 63.189212 
L 172.972588 15.716412 
L 173.029619 72.144704 
L 173.104661 86.838666 
L 173.161692 85.708361 
L 173.269752 82.534813 
L 173.41083 72.36207 
L 173.461858 16.107671 
L 173.51889 71.014399 
L 173.602936 86.143094 
L 173.650963 84.969316 
L 174.065191 69.797148 
L 174.11622 15.585992 
L 174.17025 69.884094 
L 174.248293 86.751719 
L 174.302322 85.447522 
L 174.572472 68.927683 
L 174.617497 16.325037 
L 174.674528 71.101346 
L 174.764578 86.09962 
L 174.806601 84.969316 
L 174.917662 81.752294 
L 175.115772 68.406003 
L 175.160797 15.368626 
L 175.217828 70.101461 
L 175.298873 86.012674 
L 175.349901 84.882369 
L 175.599039 74.448787 
L 175.65607 16.151144 
L 175.713102 70.840506 
L 175.791145 85.838781 
L 175.845175 84.751949 
L 176.124329 68.36253 
L 176.172356 15.803358 
L 176.226385 69.753675 
L 176.310432 85.404048 
L 176.358458 84.056377 
L 176.649619 72.579436 
L 176.703649 16.49893 
L 176.763682 70.449247 
L 176.841725 85.230155 
L 176.898757 83.925957 
L 177.177911 76.62245 
L 177.228939 74.448787 
L 177.261957 63.754365 
L 177.297977 16.194618 
L 177.358011 71.666498 
L 177.436054 84.925842 
L 177.490083 83.621645 
L 177.727214 78.057067 
L 177.730216 78.057067 
L 177.817264 69.884094 
L 177.868292 15.716412 
L 177.925324 68.449477 
L 178.006369 85.186682 
L 178.057397 83.839011 
L 178.141443 81.100196 
L 178.369569 63.145739 
L 178.405589 16.194618 
L 178.465622 70.840506 
L 178.543665 84.665003 
L 178.597695 83.360805 
L 179.041941 67.623485 
L 179.083964 16.281564 
L 179.143997 69.449362 
L 179.22204 83.752064 
L 179.27607 82.447867 
L 179.552223 71.449132 
L 179.618259 16.846717 
L 179.672289 66.667073 
L 179.756335 83.882484 
L 179.807364 82.752179 
L 180.077513 71.709971 
L 180.140548 16.716297 
L 180.197579 66.49318 
L 180.284627 83.621645 
L 180.332654 82.534813 
L 180.52476 76.665923 
L 180.698856 68.710316 
L 180.737878 24.324117 
L 180.749884 17.194503 
L 180.809917 69.449362 
L 180.881957 83.056492 
L 180.94199 81.839241 
L 181.233151 64.449937 
L 181.278176 17.368396 
L 181.338209 66.927913 
L 181.428259 82.187027 
L 181.473284 80.839356 
L 181.893516 65.884554 
L 181.938541 16.281564 
L 181.998574 67.710431 
L 182.085622 82.447867 
L 182.133649 81.578401 
L 182.373781 74.101001 
L 182.427811 69.405888 
L 182.472836 26.280414 
L 182.484843 17.064083 
L 182.547877 70.057987 
L 182.625921 82.404393 
L 182.67995 81.143669 
L 182.794013 77.883174 
L 182.971111 66.23234 
L 183.019138 16.977136 
L 183.079171 67.406118 
L 183.163217 82.100081 
L 183.211244 80.795883 
L 183.454378 70.883979 
L 183.508408 31.627625 
L 183.523416 18.62912 
L 183.58345 87.186452 
L 183.733532 113.96598 
L 184.003682 123.225785 
L 184.267828 127.660058 
L 184.564992 130.398873 
L 184.567993 130.311926 
L 184.658043 130.877079 
L 184.661045 130.833606 
L 184.817131 131.529178 
L 184.826136 131.485704 
L 184.895174 131.833491 
L 184.910182 131.790017 
L 185.048259 132.181277 
L 185.150315 132.268223 
L 185.264378 132.442116 
L 185.15932 132.22475 
L 185.26738 132.398643 
L 185.270381 132.35517 
L 185.363433 132.616009 
L 185.369436 132.485589 
L 185.492504 132.789902 
L 185.498507 132.746429 
L 185.510514 132.659482 
L 185.591559 132.833376 
L 185.606567 132.789902 
L 185.639585 132.876849 
L 185.717629 132.920322 
L 185.744643 132.789902 
L 185.750647 132.876849 
L 185.8467 132.963795 
L 185.945755 133.094215 
L 185.867711 132.876849 
L 185.960763 133.050742 
L 186.032803 133.007269 
L 186.020796 133.181162 
L 186.071824 133.050742 
L 186.083831 133.007269 
L 186.185887 133.224635 
L 186.269934 133.050742 
L 186.224909 133.268108 
L 186.29995 133.181162 
L 186.302952 133.268108 
L 186.383997 133.050742 
L 186.40801 133.137688 
L 186.417015 133.181162 
L 186.522073 133.398528 
L 186.429022 133.094215 
L 186.531078 133.268108 
L 186.543085 133.355055 
L 186.555091 133.268108 
L 186.651144 133.485474 
L 186.738192 133.224635 
L 186.762206 133.355055 
L 187.737744 133.268108 
L 187.764759 133.224635 
L 187.803781 133.442001 
L 187.839801 133.398528 
L 188.088938 133.311581 
L 188.121957 133.355055 
L 188.2 133.224635 
L 188.30806 133.355055 
L 188.314063 133.311581 
L 188.404113 133.355055 
L 188.329071 133.224635 
L 188.419121 133.224635 
L 188.437131 133.311581 
L 188.497164 133.355055 
L 188.479154 133.224635 
L 188.545191 133.268108 
L 188.611227 133.224635 
L 188.710282 133.094215 
L 188.626235 133.268108 
L 188.722288 133.137688 
L 188.836351 133.268108 
L 188.734295 133.094215 
L 188.839353 133.224635 
L 189.256584 133.311581 
L 189.292603 133.355055 
L 189.343632 133.137688 
L 189.361642 133.224635 
L 189.44869 133.137688 
L 189.469701 133.224635 
L 189.532736 133.268108 
L 189.48471 133.137688 
L 189.580763 133.224635 
L 189.586766 133.094215 
L 189.667811 133.311581 
L 189.685821 133.224635 
L 189.688822 133.311581 
L 189.718839 133.094215 
L 189.796882 133.224635 
L 189.90194 133.007269 
L 189.913947 133.050742 
L 189.91995 133.137688 
L 189.964975 132.920322 
L 190.019005 133.007269 
L 190.043018 132.920322 
L 190.118059 133.094215 
L 190.121061 133.094215 
L 190.154079 133.137688 
L 190.145074 133.007269 
L 190.226119 133.007269 
L 190.268142 132.920322 
L 190.376202 132.833376 
L 190.295157 132.963795 
L 190.379204 132.876849 
L 190.388209 133.007269 
L 190.418225 132.833376 
L 190.493267 132.963795 
L 190.586318 133.094215 
L 190.60733 132.920322 
L 190.613333 132.963795 
L 190.652355 133.094215 
L 190.679369 132.833376 
L 190.721393 132.876849 
L 190.844461 133.094215 
L 190.946517 132.833376 
L 190.961525 132.876849 
L 190.98854 133.007269 
L 191.075588 132.920322 
L 191.102603 132.876849 
L 191.126617 133.050742 
L 191.183648 132.920322 
L 191.261691 133.050742 
L 191.279701 132.833376 
L 191.294709 132.920322 
L 191.672918 132.876849 
L 191.756965 132.789902 
L 191.69393 132.963795 
L 191.780978 132.876849 
L 191.889038 132.963795 
L 191.83801 132.789902 
L 191.892039 132.876849 
L 191.976086 132.833376 
L 192.084146 132.659482 
L 192.009104 132.876849 
L 192.087147 132.702956 
L 192.090149 132.789902 
L 192.16519 132.572536 
L 192.192205 132.616009 
L 192.222222 132.746429 
L 192.30927 132.529063 
L 192.312272 132.572536 
L 192.318275 132.398643 
L 192.414328 132.485589 
L 192.450348 132.529063 
L 192.534394 132.35517 
L 192.564411 132.485589 
L 192.624444 132.311696 
L 192.645456 132.35517 
L 192.663466 132.398643 
L 192.729502 132.616009 
L 192.777529 132.529063 
L 192.81655 132.442116 
L 192.927611 132.35517 
L 192.825555 132.485589 
L 192.930613 132.398643 
L 193.182752 132.442116 
L 193.200762 132.22475 
L 193.293814 132.311696 
L 193.353847 132.311696 
L 193.437893 132.181277 
L 193.464908 132.268223 
L 193.578971 132.268223 
L 193.681028 132.137803 
L 193.690033 132.268223 
L 193.753067 132.050857 
L 193.810099 132.09433 
L 193.861127 132.22475 
L 193.819104 132.050857 
L 193.924162 132.137803 
L 193.951177 132.137803 
L 194.04723 131.96391 
L 194.06524 132.007384 
L 194.170298 132.007384 
L 194.263349 131.790017 
L 194.281359 131.920437 
L 194.284361 131.920437 
L 194.395422 131.703071 
L 194.398424 131.790017 
L 194.410431 131.876964 
L 194.437446 131.703071 
L 194.509485 131.790017 
L 194.527495 131.876964 
L 194.623548 131.703071 
L 194.722603 131.833491 
L 194.638557 131.659597 
L 194.73461 131.746544 
L 194.755621 131.616124 
L 194.779635 131.790017 
L 194.848673 131.703071 
L 194.974742 131.659597 
L 195.082802 131.572651 
L 194.992752 131.703071 
L 195.085804 131.616124 
L 195.127827 131.616124 
L 195.175853 131.485704 
L 195.238888 131.529178 
L 195.265903 131.703071 
L 195.283913 131.485704 
L 195.346948 131.572651 
L 195.406981 131.485704 
L 195.415986 131.616124 
L 195.458009 131.529178 
L 195.488026 131.616124 
L 195.494029 131.485704 
L 195.569071 131.529178 
L 195.656119 131.485704 
L 195.674129 131.355285 
L 195.76718 131.485704 
L 195.87524 131.224865 
L 195.776185 131.529178 
L 195.890248 131.311811 
L 195.998308 131.268338 
L 196.067346 131.007499 
L 196.115372 131.094445 
L 196.160397 131.137918 
L 196.259452 131.268338 
L 196.208424 131.050972 
L 196.271459 131.137918 
L 196.313482 131.007499 
L 196.38252 131.181392 
L 196.424543 131.224865 
L 196.50859 130.964025 
L 196.523598 130.877079 
L 196.640663 130.616239 
L 196.529601 130.920552 
L 196.646666 130.703186 
L 196.793747 130.746659 
L 196.796749 130.833606 
L 196.844775 130.659712 
L 196.904809 130.746659 
L 196.955837 130.659712 
L 197.006865 130.833606 
L 197.01587 130.746659 
L 197.05189 130.877079 
L 197.027877 130.703186 
L 197.12393 130.746659 
L 197.210978 130.659712 
L 197.129933 130.833606 
L 197.237993 130.703186 
L 197.418092 130.790132 
L 197.511143 130.920552 
L 197.442105 130.746659 
L 197.535157 130.877079 
L 197.646218 130.877079 
L 197.742271 130.833606 
L 197.760281 131.007499 
L 197.796301 130.920552 
L 197.838324 131.137918 
L 197.856334 131.094445 
L 197.859336 131.224865 
L 197.943382 130.920552 
L 197.964394 131.007499 
L 197.997412 131.094445 
L 198.051442 130.920552 
L 198.072454 130.964025 
L 198.189518 130.790132 
L 198.24655 130.877079 
L 198.249551 130.964025 
L 198.336599 130.746659 
L 198.354609 130.790132 
L 198.453664 130.659712 
L 198.375621 130.877079 
L 198.465671 130.746659 
L 198.564726 130.833606 
L 198.528706 130.703186 
L 198.579734 130.790132 
L 198.723813 130.790132 
L 198.765837 130.659712 
L 198.828871 130.877079 
L 198.831873 130.790132 
L 198.855886 130.703186 
L 198.945936 130.877079 
L 199.053996 130.746659 
L 198.996964 130.964025 
L 199.056997 130.790132 
L 199.144046 130.877079 
L 199.072006 130.746659 
L 199.168059 130.790132 
L 199.303133 130.703186 
L 199.35116 130.572766 
L 199.324145 130.790132 
L 199.411193 130.746659 
L 199.522254 130.790132 
L 199.525256 130.616239 
L 199.633316 130.746659 
L 199.636317 130.790132 
L 199.699352 130.572766 
L 199.738374 130.659712 
L 199.831425 130.529293 
L 199.855439 130.572766 
L 199.945488 130.659712 
L 199.879452 130.529293 
L 199.963498 130.616239 
L 200.03854 130.485819 
L 199.987511 130.659712 
L 200.07456 130.572766 
L 200.098573 130.572766 
L 200.101574 130.703186 
L 200.119584 130.485819 
L 200.206633 130.529293 
L 200.284676 130.442346 
L 200.362719 130.268453 
L 200.290679 130.529293 
L 200.40174 130.311926 
L 200.413747 130.398873 
L 200.497793 130.22498 
L 200.506798 130.22498 
L 200.596848 130.181507 
L 200.713913 130.007614 
L 200.725919 129.920667 
L 200.818971 129.746774 
L 200.734924 129.96414 
L 200.845986 129.790247 
L 200.866997 129.920667 
L 200.939037 129.529408 
L 200.94504 129.659827 
L 201.062105 129.529408 
L 201.167163 129.703301 
L 201.17917 129.616354 
L 201.19718 129.659827 
L 201.281226 129.442461 
L 201.308241 129.572881 
L 201.329253 129.659827 
L 201.347263 129.442461 
L 201.416301 129.572881 
L 201.521359 129.268568 
L 201.54237 129.312041 
L 201.587395 129.442461 
L 201.638423 129.225095 
L 201.656433 129.355515 
L 201.7765 129.355515 
L 201.779501 129.485934 
L 201.83053 129.312041 
L 201.887561 129.355515 
L 201.896566 129.355515 
L 202.007627 129.138148 
L 202.010629 129.181622 
L 202.076666 129.051202 
L 202.022636 129.225095 
L 202.127694 129.094675 
L 202.166715 129.051202 
L 202.214742 128.964255 
L 202.235753 129.181622 
L 202.277777 129.007729 
L 202.292785 129.051202 
L 202.331807 128.920782 
L 202.385836 128.964255 
L 202.649982 129.007729 
L 202.713017 129.094675 
L 202.722022 128.920782 
L 202.761044 129.007729 
L 203.172271 129.007729 
L 203.226301 128.877309 
L 203.244311 129.051202 
L 203.283332 128.920782 
L 203.322354 129.007729 
L 203.343365 129.094675 
L 203.367379 128.877309 
L 203.433415 129.007729 
L 203.502453 128.877309 
L 203.46043 129.051202 
L 203.547478 128.964255 
L 203.610513 129.007729 
L 203.628523 128.877309 
L 203.655538 128.920782 
L 203.751591 128.877309 
L 203.697561 129.051202 
L 203.763597 128.964255 
L 203.790612 129.051202 
L 203.871657 129.138148 
L 203.841641 128.920782 
L 203.901674 129.051202 
L 203.904675 128.964255 
L 203.937694 129.094675 
L 204.009733 129.094675 
L 204.1298 129.051202 
L 204.132801 129.225095 
L 204.135803 129.007729 
L 204.240861 129.051202 
L 204.282884 129.225095 
L 204.297893 129.007729 
L 204.351922 129.138148 
L 204.423962 129.007729 
L 204.450977 129.181622 
L 204.465985 129.051202 
L 204.486997 129.094675 
L 204.526019 128.920782 
L 204.574045 129.007729 
L 204.679103 128.833836 
L 204.685107 128.920782 
L 204.697113 129.051202 
L 204.754145 128.877309 
L 204.796168 129.007729 
L 204.892221 128.833836 
L 204.910231 128.920782 
L 204.943249 128.790362 
L 205.027296 129.051202 
L 205.099335 128.964255 
L 205.117345 129.138148 
L 205.138357 129.051202 
L 205.25242 129.225095 
L 205.156367 129.007729 
L 205.255422 129.181622 
L 205.336466 129.051202 
L 205.273432 129.225095 
L 205.369485 129.094675 
L 205.474543 129.398988 
L 205.483548 129.312041 
L 205.516566 129.225095 
L 205.567594 129.442461 
L 205.588606 129.398988 
L 205.609617 129.312041 
L 205.711674 129.616354 
L 205.744692 129.398988 
L 205.828738 129.529408 
L 206.281989 129.485934 
L 206.28499 129.398988 
L 206.351027 129.659827 
L 206.387047 129.572881 
L 206.486101 129.703301 
L 206.471093 129.529408 
L 206.50111 129.616354 
L 206.612171 129.485934 
L 206.540131 129.659827 
L 206.615173 129.529408 
L 206.717229 129.616354 
L 206.672204 129.442461 
L 206.723232 129.529408 
L 206.822287 129.398988 
L 206.729236 129.572881 
L 206.840297 129.442461 
L 206.909335 129.572881 
L 206.933348 129.398988 
L 206.95436 129.529408 
L 207.06242 129.398988 
L 206.978373 129.572881 
L 207.068423 129.442461 
L 207.113448 129.529408 
L 207.08043 129.398988 
L 207.176483 129.442461 
L 207.197494 129.312041 
L 207.257528 129.529408 
L 207.284543 129.485934 
L 207.332569 129.529408 
L 207.362586 129.355515 
L 207.386599 129.398988 
L 207.47965 129.268568 
L 207.392602 129.442461 
L 207.503664 129.312041 
L 207.617727 129.268568 
L 207.686765 129.181622 
L 207.698771 129.355515 
L 207.728788 129.268568 
L 207.923896 129.225095 
L 208.037959 129.138148 
L 208.085985 129.225095 
L 208.140015 129.051202 
L 208.146018 129.138148 
L 208.25708 128.964255 
L 208.158025 129.181622 
L 208.266085 129.007729 
L 208.281093 129.094675 
L 208.320115 128.833836 
L 208.371143 128.833836 
L 208.374144 128.790362 
L 208.386151 129.007729 
L 208.473199 128.920782 
L 208.482204 129.007729 
L 208.530231 128.746889 
L 208.578257 128.877309 
L 208.608274 128.833836 
L 208.650297 129.007729 
L 208.683315 128.964255 
L 208.704327 128.833836 
L 208.80038 129.094675 
L 208.914443 128.920782 
L 208.920446 128.964255 
L 208.923448 129.051202 
L 208.983481 128.833836 
L 209.028506 128.920782 
L 209.034509 128.833836 
L 209.037511 128.790362 
L 209.055521 128.920782 
L 209.145571 128.833836 
L 209.172585 128.790362 
L 209.283647 128.659942 
L 209.18159 128.877309 
L 209.286649 128.703416 
L 209.367693 128.486049 
L 209.304658 128.746889 
L 209.403713 128.529523 
L 209.475753 128.616469 
L 209.502768 128.399103 
L 209.511773 128.572996 
L 209.601823 128.442576 
L 209.622834 128.486049 
L 209.736897 128.399103 
L 209.745902 128.312156 
L 209.757909 128.529523 
L 209.841955 128.442576 
L 209.85096 128.529523 
L 209.898987 128.35563 
L 209.950015 128.442576 
L 210.058075 128.181737 
L 210.06708 128.22521 
L 210.142121 128.312156 
L 210.100098 128.181737 
L 210.175139 128.22521 
L 210.229169 128.09479 
L 210.277196 128.312156 
L 210.292204 128.138263 
L 210.328224 128.181737 
L 210.421275 128.312156 
L 210.343232 128.138263 
L 210.439285 128.22521 
L 210.532337 128.09479 
L 210.472303 128.268683 
L 210.553348 128.181737 
L 210.601375 128.09479 
L 210.712436 127.920897 
L 210.715438 128.007844 
L 210.751458 127.920897 
L 210.775471 127.790477 
L 210.805488 128.007844 
L 210.865521 127.877424 
L 210.99159 127.96437 
L 211.057627 128.09479 
L 211.024609 127.833951 
L 211.102652 127.96437 
L 211.177693 127.877424 
L 211.183696 127.833951 
L 211.22572 128.007844 
L 211.285753 127.920897 
L 211.375803 127.833951 
L 211.393813 127.96437 
L 211.489866 127.790477 
L 211.513879 127.790477 
L 211.516881 127.920897 
L 211.615935 127.660058 
L 211.62494 127.790477 
L 211.699982 127.616584 
L 211.745007 127.660058 
L 211.80504 127.747004 
L 211.78703 127.616584 
L 211.856068 127.660058 
L 211.952121 127.486164 
L 211.976134 127.529638 
L 212.015156 127.442691 
L 212.141225 127.181852 
L 212.213265 127.094905 
L 212.255288 127.355745 
L 212.34834 127.225325 
L 212.372353 127.268798 
L 212.513431 127.355745 
L 212.519434 127.312271 
L 212.636499 127.529638 
L 212.732552 127.616584 
L 212.750562 127.442691 
L 212.80159 127.747004 
L 212.876632 127.703531 
L 212.978688 127.573111 
L 212.903647 127.747004 
L 212.993696 127.616584 
L 213.03572 127.703531 
L 213.077743 127.573111 
L 213.104758 127.616584 
L 213.110761 127.660058 
L 213.227826 127.442691 
L 213.284857 127.616584 
L 213.242834 127.399218 
L 213.341889 127.486164 
L 213.34489 127.399218 
L 213.38091 127.660058 
L 213.449948 127.529638 
L 213.546001 127.573111 
L 213.621043 127.660058 
L 213.603033 127.486164 
L 213.657063 127.573111 
L 213.729103 127.703531 
L 213.768124 127.486164 
L 213.840164 127.660058 
L 213.882187 127.573111 
L 213.885189 127.529638 
L 213.936217 127.703531 
L 213.987245 127.660058 
L 214.03227 127.573111 
L 214.035272 127.529638 
L 214.065288 127.703531 
L 214.137328 127.660058 
L 214.203365 127.616584 
L 214.317428 127.399218 
L 214.320429 127.442691 
L 214.335438 127.529638 
L 214.437494 127.355745 
L 214.464509 127.399218 
L 214.530545 127.181852 
L 214.542552 127.268798 
L 214.806698 127.312271 
L 214.8097 127.399218 
L 214.836714 127.181852 
L 214.917759 127.312271 
L 215.031822 127.225325 
L 215.037826 127.355745 
L 215.124874 127.051432 
L 215.13688 127.138378 
L 215.205918 127.094905 
L 215.319981 126.790592 
L 215.322983 126.877539 
L 215.392021 126.834066 
L 215.458058 126.747119 
L 215.470064 126.964485 
L 215.500081 126.790592 
L 215.596134 126.921012 
L 215.536101 126.747119 
L 215.611142 126.877539 
L 215.665172 126.790592 
L 215.710197 127.007959 
L 215.7162 126.964485 
L 215.830263 127.138378 
L 215.833265 127.094905 
L 215.899301 126.964485 
L 215.854277 127.138378 
L 215.944326 127.051432 
L 216.013364 127.138378 
L 216.109418 127.312271 
L 216.028373 127.094905 
L 216.130429 127.225325 
L 216.142436 127.268798 
L 216.238489 127.138378 
L 216.2595 127.312271 
L 216.307527 127.094905 
L 216.346549 127.138378 
L 216.355554 127.181852 
L 216.466615 127.007959 
L 216.487626 127.094905 
L 216.538655 126.834066 
L 216.574675 126.964485 
L 216.766781 127.007959 
L 216.772784 126.964485 
L 216.883845 127.181852 
L 216.916864 127.094905 
L 216.952883 127.268798 
L 216.994907 127.181852 
L 217.006913 127.094905 
L 217.027925 127.225325 
L 217.102966 127.225325 
L 217.45416 127.138378 
L 217.484177 127.051432 
L 217.529202 127.225325 
L 217.56222 127.181852 
L 217.583232 127.138378 
L 217.679285 127.312271 
L 217.682286 127.225325 
L 217.74232 127.399218 
L 217.787344 127.312271 
L 217.814359 127.486164 
L 217.901407 127.442691 
L 218.009467 127.312271 
L 218.012469 127.399218 
L 218.096515 127.312271 
L 218.099517 127.268798 
L 218.156548 127.442691 
L 218.204575 127.355745 
L 218.606797 127.399218 
L 218.657825 127.486164 
L 218.618804 127.355745 
L 218.717858 127.399218 
L 218.813912 127.268798 
L 218.726863 127.442691 
L 218.834923 127.312271 
L 218.867941 127.355745 
L 218.972999 127.486164 
L 218.982004 127.442691 
L 219.048041 127.399218 
L 219.120081 127.181852 
L 219.069052 127.442691 
L 219.162104 127.312271 
L 219.171109 127.312271 
L 219.285172 127.051432 
L 219.378223 126.964485 
L 219.294177 127.094905 
L 219.396233 127.051432 
L 219.441258 126.964485 
L 219.459268 126.921012 
L 219.492286 127.094905 
L 219.549318 127.007959 
L 219.651374 127.051432 
L 219.582336 126.964485 
L 219.657377 126.964485 
L 219.723414 127.051432 
L 219.834475 127.138378 
L 219.732419 126.964485 
L 219.837477 127.094905 
L 219.960545 127.007959 
L 219.98756 126.964485 
L 220.020578 127.138378 
L 220.068605 127.051432 
L 220.296731 127.007959 
L 220.40479 126.877539 
L 220.329749 127.051432 
L 220.407792 126.964485 
L 220.590893 126.877539 
L 220.608903 126.790592 
L 220.686946 127.007959 
L 220.698953 126.921012 
L 220.752983 126.921012 
L 220.767991 126.877539 
L 220.870047 127.225325 
L 220.990114 127.094905 
L 221.023132 127.225325 
L 221.077162 127.051432 
L 221.104177 127.138378 
L 221.224243 126.921012 
L 221.227245 126.964485 
L 221.27227 127.051432 
L 221.326299 126.790592 
L 221.329301 126.921012 
L 221.341308 126.747119 
L 221.440362 126.877539 
L 221.56343 126.921012 
L 221.578439 126.877539 
L 221.677493 127.051432 
L 221.70751 127.051432 
L 221.77955 127.007959 
L 221.821573 127.181852 
L 221.860595 127.268798 
L 221.863596 127.312271 
L 221.932634 127.138378 
L 221.968654 127.225325 
L 222.202784 127.138378 
L 222.21479 127.225325 
L 222.32285 127.007959 
L 222.451921 127.094905 
L 222.469931 127.138378 
L 222.514956 126.964485 
L 222.559981 127.051432 
L 222.683049 127.051432 
L 222.779102 126.834066 
L 222.74008 127.094905 
L 222.79411 126.964485 
L 222.986216 126.877539 
L 223.094276 126.790592 
L 223.049251 126.964485 
L 223.100279 126.834066 
L 223.490495 126.834066 
L 223.601556 126.964485 
L 223.634575 126.834066 
L 223.667593 127.094905 
L 223.712618 126.964485 
L 223.742634 127.007959 
L 223.748638 127.094905 
L 223.781656 126.921012 
L 223.850694 126.964485 
L 223.865702 127.007959 
L 223.868704 127.094905 
L 223.940744 126.877539 
L 223.973762 126.964485 
L 224.0428 127.007959 
L 224.045802 127.094905 
L 224.108837 126.834066 
L 224.15086 126.964485 
L 224.225901 126.877539 
L 224.285934 127.051432 
L 224.339964 126.790592 
L 224.357974 126.921012 
L 224.378986 126.747119 
L 224.451026 126.790592 
L 224.724176 126.834066 
L 224.73018 126.921012 
L 224.778206 126.703646 
L 224.835238 126.877539 
L 224.877261 126.747119 
L 224.889268 126.921012 
L 224.952303 126.790592 
L 225.051357 126.921012 
L 225.036349 126.747119 
L 225.063364 126.790592 
L 225.159417 126.703646 
L 225.243463 126.616699 
L 225.174425 126.747119 
L 225.270478 126.703646 
L 225.288488 126.616699 
L 225.408555 126.486279 
L 225.426565 126.616699 
L 225.483596 126.442806 
L 225.519616 126.486279 
L 225.72673 126.573226 
L 225.741739 126.660173 
L 225.792767 126.486279 
L 225.83479 126.529753 
L 225.894823 126.660173 
L 225.948853 126.399333 
L 226.035901 126.616699 
L 226.062916 126.573226 
L 226.179981 126.399333 
L 226.083928 126.616699 
L 226.182982 126.442806 
L 226.225006 126.399333 
L 226.258024 126.268913 
L 226.267029 126.442806 
L 226.336067 126.399333 
L 226.393098 126.442806 
L 226.480147 126.573226 
L 226.507161 126.529753 
L 226.579201 126.616699 
L 226.684259 126.703646 
L 226.600213 126.573226 
L 226.687261 126.616699 
L 226.780312 126.529753 
L 226.708273 126.660173 
L 226.798322 126.616699 
L 226.819334 126.703646 
L 226.92139 126.790592 
L 226.834342 126.616699 
L 226.930395 126.747119 
L 227.038455 126.660173 
L 226.942402 126.790592 
L 227.041457 126.703646 
L 227.110495 126.877539 
L 227.15552 126.747119 
L 227.236564 126.486279 
L 227.272584 126.660173 
L 227.296598 126.660173 
L 227.383646 126.399333 
L 227.410661 126.529753 
L 227.44668 126.616699 
L 227.51872 126.703646 
L 227.497709 126.486279 
L 227.55474 126.573226 
L 227.635785 126.660173 
L 227.719831 126.747119 
L 227.68081 126.529753 
L 227.746846 126.660173 
L 227.749848 126.660173 
L 227.75285 126.790592 
L 227.791871 126.573226 
L 227.857908 126.573226 
L 227.974972 126.703646 
L 228.086034 126.573226 
L 228.053015 126.747119 
L 228.089035 126.660173 
L 228.146067 126.660173 
L 228.24212 126.529753 
L 228.161075 126.703646 
L 228.257128 126.616699 
L 228.263131 126.616699 
L 228.272136 126.660173 
L 228.377194 126.442806 
L 228.479251 126.573226 
L 228.488256 126.486279 
L 228.578306 126.442806 
L 228.497261 126.573226 
L 228.596316 126.529753 
L 228.620329 126.573226 
L 228.653347 126.399333 
L 228.704375 126.529753 
L 228.815437 126.35586 
L 228.818438 126.399333 
L 229.016548 126.486279 
L 229.106597 126.616699 
L 229.022551 126.442806 
L 229.127609 126.486279 
L 229.244674 126.399333 
L 229.319715 126.35586 
L 229.289699 126.573226 
L 229.355735 126.399333 
L 229.40076 126.486279 
L 229.445785 126.312386 
L 229.466796 126.399333 
L 229.583861 126.22544 
L 229.592866 126.442806 
L 229.694922 126.268913 
L 229.703927 126.312386 
L 229.745951 126.442806 
L 229.754956 126.268913 
L 229.814989 126.399333 
L 229.899035 126.35586 
L 229.896034 126.486279 
L 229.923048 126.442806 
L 229.92605 126.486279 
L 230.0161 126.22544 
L 230.028106 126.399333 
L 230.085138 126.22544 
L 230.142169 126.268913 
L 230.178189 126.399333 
L 230.235221 126.22544 
L 230.253231 126.268913 
L 230.277244 126.312386 
L 230.346282 126.442806 
L 230.334276 126.268913 
L 230.388305 126.35586 
L 230.403314 126.312386 
L 230.43333 126.442806 
L 230.493364 126.35586 
L 230.50537 126.486279 
L 230.538388 126.312386 
L 230.604425 126.35586 
L 230.706481 126.22544 
L 230.637443 126.399333 
L 230.72149 126.268913 
L 230.739499 126.35586 
L 230.745503 126.22544 
L 230.829549 126.22544 
L 230.928604 126.138493 
L 231.01265 126.09502 
L 230.940611 126.22544 
L 231.036664 126.138493 
L 231.147725 126.268913 
L 231.153728 126.22544 
L 231.252783 126.09502 
L 231.171738 126.312386 
L 231.261788 126.22544 
L 231.26479 126.268913 
L 231.309815 126.051547 
L 231.363844 126.138493 
L 231.441887 126.09502 
L 231.435884 126.268913 
L 231.465901 126.268913 
L 231.468902 126.312386 
L 231.486912 126.09502 
L 231.570959 126.181967 
L 231.646 126.09502 
L 231.594972 126.22544 
L 231.68202 126.181967 
L 231.694027 126.181967 
L 231.697028 126.051547 
L 231.727045 126.268913 
L 231.805088 126.138493 
L 231.928156 126.138493 
L 232.039217 125.9646 
L 232.042219 126.008074 
L 232.147277 125.921127 
L 232.150279 125.834181 
L 232.162285 126.051547 
L 232.255337 126.008074 
L 232.270345 126.051547 
L 232.3694 125.877654 
L 232.429433 126.051547 
L 232.483463 126.008074 
L 232.564508 125.9646 
L 232.567509 125.877654 
L 232.630544 126.09502 
L 232.675569 125.9646 
L 232.687576 126.09502 
L 232.780627 125.921127 
L 232.78663 125.9646 
L 232.825652 126.051547 
L 232.843662 125.9646 
L 232.933712 126.09502 
L 232.957725 126.008074 
L 233.032766 126.268913 
L 233.041771 126.181967 
L 233.062783 126.268913 
L 233.164839 126.312386 
L 233.077791 126.181967 
L 233.173844 126.268913 
L 233.368952 126.22544 
L 233.428985 126.138493 
L 233.389964 126.312386 
L 233.480013 126.181967 
L 233.717144 126.268913 
L 233.720146 126.35586 
L 233.813197 126.138493 
L 233.828206 126.268913 
L 233.882236 126.35586 
L 233.94527 126.181967 
L 234.05333 126.268913 
L 234.062335 126.312386 
L 234.092352 126.181967 
L 234.16139 126.268913 
L 234.23343 126.09502 
L 234.185403 126.312386 
L 234.275453 126.181967 
L 234.293463 126.138493 
L 234.380511 125.9646 
L 234.299466 126.181967 
L 234.404524 126.051547 
L 234.512584 126.22544 
L 234.518587 126.181967 
L 234.61464 125.921127 
L 234.635652 125.9646 
L 234.638653 125.9646 
L 234.680677 126.09502 
L 234.749715 126.008074 
L 234.782733 125.9646 
L 234.800743 125.877654 
L 234.81275 126.051547 
L 234.890793 126.008074 
L 234.944823 126.09502 
L 235.055884 126.22544 
L 234.953828 126.051547 
L 235.061887 126.181967 
L 235.124922 126.268913 
L 235.220975 126.35586 
L 235.154939 126.138493 
L 235.232982 126.268913 
L 235.235983 126.22544 
L 235.253993 126.442806 
L 235.33804 126.268913 
L 235.440096 126.486279 
L 235.455104 126.442806 
L 235.503131 126.529753 
L 235.518139 126.486279 
L 235.632202 126.790592 
L 235.671224 126.660173 
L 235.722252 126.877539 
L 235.73726 126.877539 
L 235.806298 126.921012 
L 235.8093 127.007959 
L 235.851323 126.834066 
L 235.91736 126.964485 
L 235.941373 127.007959 
L 236.028421 126.877539 
L 236.133479 127.007959 
L 236.139483 126.964485 
L 236.244541 126.877539 
L 236.145486 127.007959 
L 236.253546 126.921012 
L 236.361605 127.094905 
L 236.367609 126.964485 
L 236.379615 127.051432 
L 236.382617 127.138378 
L 236.385618 127.007959 
L 236.490677 127.051432 
L 236.56872 126.964485 
L 236.505685 127.138378 
L 236.60474 127.007959 
L 236.670776 126.964485 
L 236.715801 127.051432 
L 236.781837 126.877539 
L 236.844872 126.964485 
L 236.883894 126.747119 
L 236.964939 126.529753 
L 236.892899 126.834066 
L 237.00396 126.616699 
L 237.072998 126.529753 
L 237.076 126.486279 
L 237.139035 126.616699 
L 237.178056 126.529753 
L 237.277111 126.616699 
L 237.20207 126.442806 
L 237.289118 126.573226 
L 237.388172 126.529753 
L 237.481224 126.442806 
L 237.421191 126.616699 
L 237.499234 126.529753 
L 237.577277 126.442806 
L 237.65532 126.312386 
L 237.595287 126.529753 
L 237.682335 126.529753 
L 237.694341 126.573226 
L 237.721356 126.35586 
L 237.784391 126.399333 
L 238.03653 126.35586 
L 238.138587 126.22544 
L 238.147592 126.268913 
L 238.255652 126.312386 
L 238.18061 126.181967 
L 238.258653 126.268913 
L 238.327691 126.268913 
L 238.441754 126.09502 
L 238.480776 126.268913 
L 238.552816 126.138493 
L 238.561821 126.051547 
L 238.576829 126.22544 
L 238.663877 126.138493 
L 238.690892 126.181967 
L 238.693894 126.268913 
L 238.699897 126.138493 
L 238.801953 126.181967 
L 238.892003 126.442806 
L 238.928023 126.399333 
L 238.994059 126.268913 
L 239.039084 126.399333 
L 239.147144 126.442806 
L 239.099117 126.22544 
L 239.150146 126.399333 
L 239.252202 126.268913 
L 239.26721 126.312386 
L 239.348255 126.486279 
L 239.291224 126.268913 
L 239.378272 126.399333 
L 239.474325 126.35586 
L 239.426298 126.486279 
L 239.48333 126.442806 
L 239.594391 126.616699 
L 239.492335 126.399333 
L 239.603396 126.573226 
L 239.612401 126.442806 
L 239.693446 126.660173 
L 239.711456 126.573226 
L 239.765486 126.703646 
L 239.798504 126.486279 
L 239.822517 126.573226 
L 239.86454 126.529753 
L 239.867542 126.399333 
L 239.969598 126.616699 
L 239.975602 126.529753 
L 240.128686 126.442806 
L 240.131688 126.35586 
L 240.200726 126.573226 
L 240.236746 126.486279 
L 240.458869 126.573226 
L 240.527907 126.703646 
L 240.575933 126.660173 
L 240.647973 126.442806 
L 240.696 126.529753 
L 240.798056 126.486279 
L 240.801058 126.399333 
L 240.858089 126.616699 
L 240.906116 126.442806 
L 240.924126 126.573226 
L 240.996165 126.399333 
L 241.017177 126.486279 
L 241.13124 126.22544 
L 241.218288 126.35586 
L 241.236298 126.181967 
L 241.242301 126.268913 
L 241.344358 126.138493 
L 241.356364 126.22544 
L 241.533462 126.268913 
L 241.557476 126.399333 
L 241.62051 126.138493 
L 241.644524 126.268913 
L 241.719565 126.181967 
L 241.74658 126.35586 
L 241.752583 126.312386 
L 241.785602 126.22544 
L 241.794607 126.181967 
L 241.842633 126.399333 
L 241.89066 126.312386 
L 241.947691 126.399333 
L 241.980709 126.22544 
L 242.001721 126.312386 
L 242.112782 126.181967 
L 242.040742 126.399333 
L 242.115784 126.22544 
L 242.19983 126.442806 
L 242.232849 126.35586 
L 242.3259 126.268913 
L 242.295883 126.442806 
L 242.34391 126.35586 
L 242.388935 126.442806 
L 242.463976 126.22544 
L 242.545021 126.399333 
L 242.575038 126.312386 
L 242.653081 126.181967 
L 242.665087 126.399333 
L 242.683097 126.268913 
L 242.794159 126.399333 
L 242.893213 126.138493 
L 242.911223 126.22544 
L 242.986265 126.22544 
L 242.989266 126.09502 
L 243.004275 126.35586 
L 243.097326 126.181967 
L 243.400494 126.138493 
L 243.418504 126.051547 
L 243.451522 126.268913 
L 243.508553 126.22544 
L 243.568587 126.138493 
L 243.52056 126.268913 
L 243.619615 126.22544 
L 243.640626 126.268913 
L 243.688653 126.051547 
L 243.724673 126.138493 
L 244.090875 126.138493 
L 244.195933 125.921127 
L 244.204938 126.008074 
L 244.309996 126.138493 
L 244.228951 125.9646 
L 244.315999 126.008074 
L 244.319001 126.051547 
L 244.379034 125.877654 
L 244.427061 126.008074 
L 244.478089 125.877654 
L 244.487094 126.051547 
L 244.53512 126.051547 
L 244.667193 126.051547 
L 244.670195 125.921127 
L 244.745237 126.181967 
L 244.778255 125.9646 
L 244.889316 126.09502 
L 244.862301 125.921127 
L 244.895319 126.051547 
L 244.988371 126.008074 
L 244.922334 126.138493 
L 245.006381 126.051547 
L 245.231505 126.008074 
L 245.339565 125.834181 
L 245.246513 126.051547 
L 245.345568 125.877654 
L 245.375585 125.9646 
L 245.38459 126.051547 
L 245.43862 125.877654 
L 245.483644 125.921127 
L 245.582699 126.008074 
L 245.657741 126.09502 
L 245.591704 125.9646 
L 245.69376 126.008074 
L 245.789814 125.9646 
L 245.807824 125.834181 
L 245.846845 126.008074 
L 245.897873 125.9646 
L 245.915883 125.877654 
L 246.011936 126.051547 
L 246.023943 125.921127 
L 246.041953 126.09502 
L 246.122998 126.051547 
L 246.261074 126.09502 
L 246.366132 126.22544 
L 246.336115 126.008074 
L 246.375137 126.181967 
L 246.492202 126.008074 
L 246.56124 126.138493 
L 246.567243 125.921127 
L 246.603263 126.008074 
L 246.819382 126.051547 
L 246.885419 126.268913 
L 246.930444 126.138493 
L 247.029498 126.008074 
L 246.94245 126.22544 
L 247.041505 126.09502 
L 247.143561 126.181967 
L 247.077525 126.008074 
L 247.152566 126.09502 
L 247.203595 126.181967 
L 247.287641 126.22544 
L 247.260626 125.9646 
L 247.308653 126.138493 
L 247.359681 126.008074 
L 247.329664 126.181967 
L 247.419714 126.138493 
L 247.470742 126.312386 
L 247.440726 126.09502 
L 247.53978 126.268913 
L 247.635833 126.051547 
L 247.656845 126.181967 
L 247.839946 126.268913 
L 247.948006 126.35586 
L 247.845949 126.22544 
L 247.954009 126.312386 
L 248.029051 126.399333 
L 248.056065 126.573226 
L 248.146115 126.486279 
L 248.242168 126.399333 
L 248.188138 126.573226 
L 248.251173 126.486279 
L 248.35323 126.616699 
L 248.290195 126.399333 
L 248.359233 126.529753 
" clip-path="url(#pf474d1668b)" style="fill: none; stroke: #000000; stroke-opacity: 0.5; stroke-width: 1.5; stroke-linecap: square"/>
   </g>
   <g id="patch_3">
    <path d="M 35.304688 173.52 
L 35.304688 7.2 
" style="fill: none; stroke: #000000; stroke-width: 0.8; stroke-linejoin: miter; stroke-linecap: square"/>
   </g>
   <g id="patch_4">
    <path d="M 35.304688 173.52 
L 258.504687 173.52 
" style="fill: none; stroke: #000000; stroke-width: 0.8; stroke-linejoin: miter; stroke-linecap: square"/>
   </g>
  </g>
 </g>
 <defs>
  <clipPath id="pf474d1668b">
   <rect x="35.304688" y="7.2" width="223.2" height="166.32"/>
  </clipPath>
 </defs>
</svg>
