<?xml version="1.0" encoding="utf-8" standalone="no"?>
<!DOCTYPE svg PUBLIC "-//W3C//DTD SVG 1.1//EN"
  "http://www.w3.org/Graphics/SVG/1.1/DTD/svg11.dtd">
<svg xmlns:xlink="http://www.w3.org/1999/xlink" width="272.067187pt" height="200.273804pt" viewBox="0 0 272.067187 200.273804" xmlns="http://www.w3.org/2000/svg" version="1.1">
 <metadata>
  <rdf:RDF xmlns:dc="http://purl.org/dc/elements/1.1/" xmlns:cc="http://creativecommons.org/ns#" xmlns:rdf="http://www.w3.org/1999/02/22-rdf-syntax-ns#">
   <cc:Work>
    <dc:type rdf:resource="http://purl.org/dc/dcmitype/StillImage"/>
    <dc:date>2025-12-19T12:12:04.363765</dc:date>
    <dc:format>image/svg+xml</dc:format>
    <dc:creator>
     <cc:Agent>
      <dc:title>Matplotlib v3.10.7, https://matplotlib.org/</dc:title>
     </cc:Agent>
    </dc:creator>
   </cc:Work>
  </rdf:RDF>
 </metadata>
 <defs>
  <style type="text/css">*{stroke-linejoin: round; stroke-linecap: butt}</style>
 </defs>
 <g id="figure_1">
  <g id="patch_1">
   <path d="M 0 200.273804 
L 272.067187 200.273804 
L 272.067187 0 
L 0 0 
z
" style="fill: #ffffff"/>
  </g>
  <g id="axes_1">
   <g id="patch_2">
    <path d="M 41.667188 176.395679 
L 264.867188 176.395679 
L 264.867188 10.075679 
L 41.667188 10.075679 
z
" style="fill: #ffffff"/>
   </g>
   <g id="matplotlib.axis_1">
    <g id="xtick_1">
     <g id="line2d_1">
      <defs>
       <path id="m37ef2dd5ad" d="M 0 0 
L 0 3.5 
" style="stroke: #000000; stroke-width: 0.8"/>
      </defs>
      <g>
       <use xlink:href="#m37ef2dd5ad" x="87.83254" y="176.395679" style="stroke: #000000; stroke-width: 0.8"/>
      </g>
     </g>
     <g id="text_1">
      <!-- 1 -->
      <g transform="translate(84.65129 190.994116) scale(0.1 -0.1)">
       <defs>
        <path id="DejaVuSans-31" d="M 794 531 
L 1825 531 
L 1825 4091 
L 703 3866 
L 703 4441 
L 1819 4666 
L 2450 4666 
L 2450 531 
L 3481 531 
L 3481 0 
L 794 0 
L 794 531 
z
" transform="scale(0.015625)"/>
       </defs>
       <use xlink:href="#DejaVuSans-31"/>
      </g>
     </g>
    </g>
    <g id="xtick_2">
     <g id="line2d_2">
      <g>
       <use xlink:href="#m37ef2dd5ad" x="147.865704" y="176.395679" style="stroke: #000000; stroke-width: 0.8"/>
      </g>
     </g>
     <g id="text_2">
      <!-- 2 -->
      <g transform="translate(144.684454 190.994116) scale(0.1 -0.1)">
       <defs>
        <path id="DejaVuSans-32" d="M 1228 531 
L 3431 531 
L 3431 0 
L 469 0 
L 469 531 
Q 828 903 1448 1529 
Q 2069 2156 2228 2338 
Q 2531 2678 2651 2914 
Q 2772 3150 2772 3378 
Q 2772 3750 2511 3984 
Q 2250 4219 1831 4219 
Q 1534 4219 1204 4116 
Q 875 4013 500 3803 
L 500 4441 
Q 881 4594 1212 4672 
Q 1544 4750 1819 4750 
Q 2544 4750 2975 4387 
Q 3406 4025 3406 3419 
Q 3406 3131 3298 2873 
Q 3191 2616 2906 2266 
Q 2828 2175 2409 1742 
Q 1991 1309 1228 531 
z
" transform="scale(0.015625)"/>
       </defs>
       <use xlink:href="#DejaVuSans-32"/>
      </g>
     </g>
    </g>
    <g id="xtick_3">
     <g id="line2d_3">
      <g>
       <use xlink:href="#m37ef2dd5ad" x="207.898867" y="176.395679" style="stroke: #000000; stroke-width: 0.8"/>
      </g>
     </g>
     <g id="text_3">
      <!-- 3 -->
      <g transform="translate(204.717617 190.994116) scale(0.1 -0.1)">
       <defs>
        <path id="DejaVuSans-33" d="M 2597 2516 
Q 3050 2419 3304 2112 
Q 3559 1806 3559 1356 
Q 3559 666 3084 287 
Q 2609 -91 1734 -91 
Q 1441 -91 1130 -33 
Q 819 25 488 141 
L 488 750 
Q 750 597 1062 519 
Q 1375 441 1716 441 
Q 2309 441 2620 675 
Q 2931 909 2931 1356 
Q 2931 1769 2642 2001 
Q 2353 2234 1838 2234 
L 1294 2234 
L 1294 2753 
L 1863 2753 
Q 2328 2753 2575 2939 
Q 2822 3125 2822 3475 
Q 2822 3834 2567 4026 
Q 2313 4219 1838 4219 
Q 1578 4219 1281 4162 
Q 984 4106 628 3988 
L 628 4550 
Q 988 4650 1302 4700 
Q 1616 4750 1894 4750 
Q 2613 4750 3031 4423 
Q 3450 4097 3450 3541 
Q 3450 3153 3228 2886 
Q 3006 2619 2597 2516 
z
" transform="scale(0.015625)"/>
       </defs>
       <use xlink:href="#DejaVuSans-33"/>
      </g>
     </g>
    </g>
   </g>
   <g id="matplotlib.axis_2">
    <g id="ytick_1">
     <g id="line2d_4">
      <defs>
       <path id="m187074e69e" d="M 0 0 
L -3.5 0 
" style="stroke: #000000; stroke-width: 0.8"/>
      </defs>
      <g>
       <use xlink:href="#m187074e69e" x="41.667188" y="156.492215" style="stroke: #000000; stroke-width: 0.8"/>
      </g>
     </g>
     <g id="text_4">
      <!-- −125 -->
      <g transform="translate(7.2 160.291433) scale(0.1 -0.1)">
       <defs>
        <path id="DejaVuSans-2212" d="M 678 2272 
L 4684 2272 
L 4684 1741 
L 678 1741 
L 678 2272 
z
" transform="scale(0.015625)"/>
        <path id="DejaVuSans-35" d="M 691 4666 
L 3169 4666 
L 3169 4134 
L 1269 4134 
L 1269 2991 
Q 1406 3038 1543 3061 
Q 1681 3084 1819 3084 
Q 2600 3084 3056 2656 
Q 3513 2228 3513 1497 
Q 3513 744 3044 326 
Q 2575 -91 1722 -91 
Q 1428 -91 1123 -41 
Q 819 9 494 109 
L 494 744 
Q 775 591 1075 516 
Q 1375 441 1709 441 
Q 2250 441 2565 725 
Q 2881 1009 2881 1497 
Q 2881 1984 2565 2268 
Q 2250 2553 1709 2553 
Q 1456 2553 1204 2497 
Q 953 2441 691 2322 
L 691 4666 
z
" transform="scale(0.015625)"/>
       </defs>
       <use xlink:href="#DejaVuSans-2212"/>
       <use xlink:href="#DejaVuSans-31" transform="translate(83.789062 0)"/>
       <use xlink:href="#DejaVuSans-32" transform="translate(147.412109 0)"/>
       <use xlink:href="#DejaVuSans-35" transform="translate(211.035156 0)"/>
      </g>
     </g>
    </g>
    <g id="ytick_2">
     <g id="line2d_5">
      <g>
       <use xlink:href="#m187074e69e" x="41.667188" y="132.243382" style="stroke: #000000; stroke-width: 0.8"/>
      </g>
     </g>
     <g id="text_5">
      <!-- −100 -->
      <g transform="translate(7.2 136.042601) scale(0.1 -0.1)">
       <defs>
        <path id="DejaVuSans-30" d="M 2034 4250 
Q 1547 4250 1301 3770 
Q 1056 3291 1056 2328 
Q 1056 1369 1301 889 
Q 1547 409 2034 409 
Q 2525 409 2770 889 
Q 3016 1369 3016 2328 
Q 3016 3291 2770 3770 
Q 2525 4250 2034 4250 
z
M 2034 4750 
Q 2819 4750 3233 4129 
Q 3647 3509 3647 2328 
Q 3647 1150 3233 529 
Q 2819 -91 2034 -91 
Q 1250 -91 836 529 
Q 422 1150 422 2328 
Q 422 3509 836 4129 
Q 1250 4750 2034 4750 
z
" transform="scale(0.015625)"/>
       </defs>
       <use xlink:href="#DejaVuSans-2212"/>
       <use xlink:href="#DejaVuSans-31" transform="translate(83.789062 0)"/>
       <use xlink:href="#DejaVuSans-30" transform="translate(147.412109 0)"/>
       <use xlink:href="#DejaVuSans-30" transform="translate(211.035156 0)"/>
      </g>
     </g>
    </g>
    <g id="ytick_3">
     <g id="line2d_6">
      <g>
       <use xlink:href="#m187074e69e" x="41.667188" y="107.994549" style="stroke: #000000; stroke-width: 0.8"/>
      </g>
     </g>
     <g id="text_6">
      <!-- −75 -->
      <g transform="translate(13.5625 111.793768) scale(0.1 -0.1)">
       <defs>
        <path id="DejaVuSans-37" d="M 525 4666 
L 3525 4666 
L 3525 4397 
L 1831 0 
L 1172 0 
L 2766 4134 
L 525 4134 
L 525 4666 
z
" transform="scale(0.015625)"/>
       </defs>
       <use xlink:href="#DejaVuSans-2212"/>
       <use xlink:href="#DejaVuSans-37" transform="translate(83.789062 0)"/>
       <use xlink:href="#DejaVuSans-35" transform="translate(147.412109 0)"/>
      </g>
     </g>
    </g>
    <g id="ytick_4">
     <g id="line2d_7">
      <g>
       <use xlink:href="#m187074e69e" x="41.667188" y="83.745717" style="stroke: #000000; stroke-width: 0.8"/>
      </g>
     </g>
     <g id="text_7">
      <!-- −50 -->
      <g transform="translate(13.5625 87.544935) scale(0.1 -0.1)">
       <use xlink:href="#DejaVuSans-2212"/>
       <use xlink:href="#DejaVuSans-35" transform="translate(83.789062 0)"/>
       <use xlink:href="#DejaVuSans-30" transform="translate(147.412109 0)"/>
      </g>
     </g>
    </g>
    <g id="ytick_5">
     <g id="line2d_8">
      <g>
       <use xlink:href="#m187074e69e" x="41.667188" y="59.496884" style="stroke: #000000; stroke-width: 0.8"/>
      </g>
     </g>
     <g id="text_8">
      <!-- −25 -->
      <g transform="translate(13.5625 63.296103) scale(0.1 -0.1)">
       <use xlink:href="#DejaVuSans-2212"/>
       <use xlink:href="#DejaVuSans-32" transform="translate(83.789062 0)"/>
       <use xlink:href="#DejaVuSans-35" transform="translate(147.412109 0)"/>
      </g>
     </g>
    </g>
    <g id="ytick_6">
     <g id="line2d_9">
      <g>
       <use xlink:href="#m187074e69e" x="41.667188" y="35.248051" style="stroke: #000000; stroke-width: 0.8"/>
      </g>
     </g>
     <g id="text_9">
      <!-- 0 -->
      <g transform="translate(28.304688 39.04727) scale(0.1 -0.1)">
       <use xlink:href="#DejaVuSans-30"/>
      </g>
     </g>
    </g>
    <g id="ytick_7">
     <g id="line2d_10">
      <g>
       <use xlink:href="#m187074e69e" x="41.667188" y="10.999219" style="stroke: #000000; stroke-width: 0.8"/>
      </g>
     </g>
     <g id="text_10">
      <!-- 25 -->
      <g transform="translate(21.942188 14.798438) scale(0.1 -0.1)">
       <use xlink:href="#DejaVuSans-32"/>
       <use xlink:href="#DejaVuSans-35" transform="translate(63.623047 0)"/>
      </g>
     </g>
    </g>
   </g>
   <g id="line2d_11">
    <path d="M 51.812642 98.386188 
L 51.815644 98.297386 
L 51.857667 98.415788 
L 51.923703 98.386188 
L 51.97173 98.326986 
L 51.93571 98.415788 
L 52.037766 98.356587 
L 52.103803 98.415788 
L 52.049773 98.326986 
L 52.148828 98.386188 
L 52.238878 98.267785 
L 52.199856 98.415788 
L 52.268894 98.297386 
L 52.301912 98.386188 
L 52.334931 98.238185 
L 52.376954 98.238185 
L 52.38896 98.297386 
L 52.467004 98.149383 
L 52.47901 98.149383 
L 52.584068 98.119782 
L 52.58707 98.03098 
L 52.689126 98.178983 
L 52.69513 98.119782 
L 52.791183 98.208584 
L 52.701133 98.090181 
L 52.809193 98.178983 
L 52.824201 98.119782 
L 52.902244 98.267785 
L 52.914251 98.238185 
L 52.932261 98.297386 
L 52.971282 98.149383 
L 53.02231 98.208584 
L 53.151382 98.297386 
L 53.175395 98.356587 
L 53.223421 98.208584 
L 53.250436 98.208584 
L 53.358496 98.03098 
L 53.364499 98.060581 
L 53.418529 98.00138 
L 53.481564 98.149383 
L 53.517584 98.119782 
L 53.553604 98.267785 
L 53.580619 98.238185 
L 53.688678 98.386188 
L 53.703687 98.356587 
L 53.739707 98.445389 
L 53.826755 98.563791 
L 53.751713 98.415788 
L 53.85377 98.534191 
L 54.000851 98.622993 
L 54.129922 98.889398 
L 54.132924 98.830197 
L 54.168944 98.918999 
L 54.298015 99.126203 
L 54.301017 99.067002 
L 54.385063 99.274206 
L 54.403073 99.215005 
L 54.460105 99.274206 
L 54.508131 99.155804 
L 54.517136 99.244606 
L 54.625196 99.303807 
L 54.640204 99.244606 
L 54.745262 99.481411 
L 54.83231 99.392609 
L 54.913355 99.363008 
L 54.841315 99.45181 
L 54.94037 99.42221 
L 55.024416 99.511011 
L 55.051431 99.45181 
L 55.093454 99.363008 
L 55.060436 99.481411 
L 55.162493 99.42221 
L 55.219524 99.333408 
L 55.276556 99.45181 
L 55.345594 99.392609 
L 55.369607 99.303807 
L 55.387617 99.42221 
L 55.456655 99.392609 
L 55.540701 99.540612 
L 55.579723 99.511011 
L 55.672774 99.42221 
L 55.639756 99.540612 
L 55.693786 99.481411 
L 55.822857 99.540612 
L 55.903902 99.629414 
L 55.831862 99.511011 
L 55.933919 99.570213 
L 55.939922 99.511011 
L 56.00896 99.659015 
L 56.035975 99.629414 
L 56.096008 99.718216 
L 56.04498 99.599813 
L 56.150038 99.659015 
L 56.15304 99.599813 
L 56.246091 99.747816 
L 56.258098 99.629414 
L 56.297119 99.807018 
L 56.372161 99.688615 
L 56.426191 99.629414 
L 56.522244 99.570213 
L 56.462211 99.718216 
L 56.53425 99.599813 
L 56.537252 99.659015 
L 56.636307 99.481411 
L 56.639308 99.511011 
L 56.71435 99.363008 
L 56.759375 99.42221 
L 56.978496 99.511011 
L 56.993504 99.570213 
L 57.074549 99.45181 
L 57.086555 99.511011 
L 57.089557 99.45181 
L 57.161597 99.599813 
L 57.194615 99.570213 
L 57.215627 99.540612 
L 57.308678 99.629414 
L 57.362708 99.540612 
L 57.317683 99.659015 
L 57.41974 99.629414 
L 57.476771 99.570213 
L 57.542807 99.363008 
L 57.590834 99.45181 
L 57.704897 99.659015 
L 57.719905 99.629414 
L 57.815958 99.629414 
L 57.972045 109.072014 
L 58.38027 123.813126 
L 58.443305 125.500362 
L 58.665428 131.035679 
L 59.196721 139.323854 
L 59.725013 143.467942 
L 59.728015 143.438341 
L 59.791049 143.823149 
L 59.800054 143.823149 
L 59.815063 143.911951 
L 60.001166 144.888772 
L 60.022177 144.859171 
L 60.043189 144.947973 
L 60.214283 145.569586 
L 60.223288 145.539986 
L 60.295328 145.865593 
L 60.301331 145.806391 
L 60.442409 146.131998 
L 60.553471 146.043196 
L 60.502442 146.161599 
L 60.559474 146.072797 
L 60.604499 146.131998 
L 60.703554 146.280001 
L 60.721564 146.250401 
L 60.754582 146.339203 
L 60.844631 146.428004 
L 60.868645 146.398404 
L 60.940685 146.280001 
L 60.889656 146.457605 
L 60.988711 146.309602 
L 61.042741 146.368803 
L 61.162807 146.576008 
L 61.219839 146.398404 
L 61.27687 146.457605 
L 61.363918 146.546407 
L 61.282874 146.428004 
L 61.393935 146.516806 
L 61.42095 146.487206 
L 61.526008 146.280001 
L 61.538015 146.309602 
L 61.703106 146.280001 
L 61.82017 146.072797 
L 61.934233 146.161599 
L 62.07231 145.895193 
L 62.111331 145.806391 
L 62.222393 145.510385 
L 62.246406 145.539986 
L 62.321447 145.599187 
L 62.288429 145.480784 
L 62.354466 145.510385 
L 62.444515 145.451184 
L 62.558578 145.332781 
L 62.56158 145.362382 
L 62.624615 145.184778 
L 62.657633 145.243979 
L 62.678645 145.155177 
L 62.708661 145.27358 
L 62.771696 145.214379 
L 62.774698 145.243979 
L 62.816721 145.125577 
L 62.873752 145.125577 
L 62.879756 145.155177 
L 63.011829 144.859171 
L 63.017832 144.918372 
L 63.077865 144.740769 
L 63.116887 144.829571 
L 63.200933 144.592766 
L 63.233951 144.681567 
L 63.254963 144.592766 
L 63.381033 144.415162 
L 63.492094 144.474363 
L 63.474084 144.355961 
L 63.495096 144.444762 
L 63.726223 144.385561 
L 63.822276 144.178357 
L 63.840286 144.267159 
L 63.849291 144.178357 
L 63.906323 144.32636 
L 63.954349 144.237558 
L 64.46163 144.207957 
L 64.491646 144.119156 
L 64.557683 144.32636 
L 64.569689 144.237558 
L 64.75279 144.296759 
L 64.779805 144.355961 
L 64.812824 144.207957 
L 64.857848 144.207957 
L 64.881862 144.207957 
L 64.995925 144.000753 
L 65.013935 144.030354 
L 65.052956 143.941552 
L 65.106986 144.000753 
L 65.191033 143.911951 
L 65.155013 144.030354 
L 65.224051 143.941552 
L 65.320104 144.059954 
L 65.338114 144.030354 
L 65.42216 143.911951 
L 65.344117 144.059954 
L 65.452177 143.971152 
L 65.47619 143.911951 
L 65.575245 144.089555 
L 65.698313 144.000753 
L 65.815377 143.85275 
L 65.704316 144.030354 
L 65.821381 143.882351 
L 65.935444 144.059954 
L 65.938445 144.000753 
L 66.010485 144.089555 
L 66.103537 144.178357 
L 66.016489 144.059954 
L 66.124548 144.119156 
L 66.226605 144.059954 
L 66.340668 143.911951 
L 66.394697 144.000753 
L 66.442724 143.793549 
L 66.448727 143.882351 
L 66.574797 143.675146 
L 66.628827 143.615945 
L 66.68886 143.763948 
L 66.697865 143.704747 
L 66.7609 143.882351 
L 66.790916 143.85275 
L 66.913984 144.148756 
L 66.928993 144.119156 
L 67.028047 144.089555 
L 66.971016 144.148756 
L 67.037052 144.119156 
L 67.043056 144.178357 
L 67.055062 144.059954 
L 67.145112 144.089555 
L 67.226157 144.000753 
L 67.289192 143.882351 
L 67.23216 144.030354 
L 67.34022 143.941552 
L 67.39425 143.85275 
L 67.508313 143.763948 
L 67.415261 143.882351 
L 67.511314 143.793549 
L 67.634382 143.971152 
L 67.742442 143.882351 
L 67.661397 144.000753 
L 67.745444 143.941552 
L 67.868512 144.148756 
L 67.871513 144.089555 
L 67.880518 144.148756 
L 67.940551 144.32636 
L 67.994581 144.207957 
L 68.144664 144.296759 
L 68.171679 144.385561 
L 68.249722 144.237558 
L 68.252724 144.296759 
L 68.270734 144.207957 
L 68.30075 144.385561 
L 68.360784 144.296759 
L 68.489855 144.533564 
L 68.492857 144.503964 
L 68.603918 144.592766 
L 68.612923 144.563165 
L 68.723984 144.79997 
L 68.835046 144.681567 
L 68.738992 144.829571 
L 68.838047 144.711168 
L 69.237268 144.622366 
L 69.300303 144.503964 
L 69.258279 144.681567 
L 69.351331 144.592766 
L 69.60347 144.681567 
L 69.705526 144.79997 
L 69.618478 144.651967 
L 69.720535 144.770369 
L 69.846604 142.491121 
L 70.395908 120.882664 
L 70.792127 112.446485 
L 71.044266 108.89441 
L 71.227367 106.733564 
L 71.230369 106.763165 
L 71.281397 106.200753 
L 71.434482 104.513517 
L 71.506521 103.418294 
L 71.548545 64.46387 
L 71.584564 22.075773 
L 71.647599 72.604042 
L 71.791679 85.569116 
L 71.887732 87.61156 
L 72.049821 90.127613 
L 72.650153 95.011716 
L 72.653155 94.982116 
L 72.677168 95.070918 
L 72.866272 95.840534 
L 72.896289 95.929336 
L 73.049374 96.462147 
L 73.058379 96.432546 
L 73.109407 96.521348 
L 73.238478 96.787754 
L 73.244481 96.758153 
L 73.271496 96.728553 
L 73.310518 96.846955 
L 73.346538 96.846955 
L 73.403569 96.906156 
L 73.496621 97.113361 
L 73.523636 97.08376 
L 73.580667 97.172562 
L 73.688727 97.290964 
L 73.589672 97.142961 
L 73.700733 97.261364 
L 73.787782 97.350166 
L 73.80279 97.290964 
L 73.904846 97.409367 
L 73.985891 97.350166 
L 74.015908 97.290964 
L 74.054929 97.409367 
L 74.096952 97.350166 
L 74.180999 97.409367 
L 74.29206 97.55737 
L 74.298063 97.52777 
L 74.367102 97.438968 
L 74.319075 97.586971 
L 74.412126 97.468568 
L 74.469158 97.438968 
L 74.529191 97.55737 
L 74.535194 97.52777 
L 74.601231 97.675773 
L 74.628246 97.646172 
L 74.631247 97.705373 
L 74.715294 97.586971 
L 74.739307 97.646172 
L 74.832359 97.734974 
L 74.94342 97.853376 
L 74.856372 97.705373 
L 74.946422 97.823776 
L 75.012458 97.882977 
L 75.117516 98.00138 
L 75.126521 97.971779 
L 75.204564 98.00138 
L 75.222574 97.971779 
L 75.318627 98.119782 
L 75.402674 97.971779 
L 75.438694 98.00138 
L 75.498727 98.03098 
L 75.534747 97.912578 
L 75.537748 97.912578 
L 75.54075 97.882977 
L 75.627798 98.03098 
L 75.639805 97.942178 
L 75.642806 98.03098 
L 75.729854 97.853376 
L 75.747864 97.912578 
L 75.795891 97.882977 
L 75.834912 98.00138 
L 75.852922 97.942178 
L 75.954979 98.00138 
L 75.897947 97.882977 
L 75.960982 97.971779 
L 75.963984 97.912578 
L 76.006007 98.090181 
L 76.069042 97.971779 
L 76.093055 98.03098 
L 76.081048 97.942178 
L 76.180103 97.971779 
L 76.234133 98.060581 
L 76.294166 98.119782 
L 76.333188 98.00138 
L 76.342193 98.03098 
L 76.468262 97.853376 
L 76.471264 97.912578 
L 76.513287 97.764575 
L 76.576322 97.794175 
L 76.600335 97.764575 
L 76.678378 97.882977 
L 76.68138 97.853376 
L 76.780435 98.178983 
L 76.804448 98.119782 
L 76.82546 98.060581 
L 76.885493 98.238185 
L 76.912508 98.149383 
L 76.933519 98.238185 
L 76.966538 98.178983 
L 77.056587 98.386188 
L 77.059589 98.326986 
L 77.119622 98.50459 
L 77.161645 98.47499 
L 77.209672 98.563791 
L 77.323735 98.800596 
L 77.227682 98.534191 
L 77.338743 98.770996 
L 77.428793 98.741395 
L 77.40478 98.859798 
L 77.443801 98.830197 
L 77.542856 98.741395 
L 77.620899 98.711795 
L 77.557864 98.800596 
L 77.647914 98.770996 
L 77.692939 98.800596 
L 77.743967 98.652593 
L 77.752972 98.741395 
L 77.813005 98.593392 
L 77.846023 98.770996 
L 77.864033 98.741395 
L 77.906057 98.800596 
L 77.939075 98.652593 
L 77.972093 98.711795 
L 78.095161 98.534191 
L 78.098163 98.563791 
L 78.113171 98.534191 
L 78.221231 98.297386 
L 78.230236 98.356587 
L 78.287267 98.267785 
L 78.314282 98.415788 
L 78.341297 98.356587 
L 78.833569 98.267785 
L 78.863586 98.326986 
L 78.956637 98.119782 
L 79.073702 98.238185 
L 78.99866 98.060581 
L 79.076703 98.208584 
L 79.169755 98.03098 
L 79.199771 98.090181 
L 79.346852 98.149383 
L 79.451911 98.267785 
L 79.367864 98.119782 
L 79.460915 98.238185 
L 79.607997 98.297386 
L 79.725061 98.47499 
L 79.818113 98.326986 
L 79.779091 98.50459 
L 79.842126 98.415788 
L 79.890153 98.445389 
L 80.010219 98.770996 
L 80.019224 98.682194 
L 80.082259 98.859798 
L 80.12128 98.770996 
L 80.124282 98.800596 
L 80.1573 98.652593 
L 80.22934 98.770996 
L 80.31939 98.830197 
L 80.343403 98.711795 
L 80.436454 98.770996 
L 80.364415 98.682194 
L 80.457466 98.741395 
L 80.460468 98.682194 
L 80.556521 98.9486 
L 80.610551 99.007801 
L 80.640567 99.096603 
L 80.68259 98.9782 
L 80.724614 99.067002 
L 80.73662 99.007801 
L 80.823668 99.155804 
L 80.829672 99.126203 
L 80.955741 99.274206 
L 80.988759 99.185405 
L 81.036786 99.303807 
L 81.063801 99.244606 
L 81.189871 99.570213 
L 81.198876 99.540612 
L 81.234895 99.688615 
L 81.285924 99.659015 
L 81.390982 99.866219 
L 81.399987 99.807018 
L 81.40599 99.866219 
L 81.51405 99.747816 
L 81.619108 99.836618 
L 81.622109 99.866219 
L 81.628113 99.777417 
L 81.724166 99.807018 
L 81.832225 99.570213 
L 81.844232 99.629414 
L 81.952292 99.747816 
L 81.853237 99.599813 
L 81.958295 99.688615 
L 82.066355 99.570213 
L 82.000318 99.747816 
L 82.07536 99.599813 
L 82.09337 99.629414 
L 82.16541 99.45181 
L 82.174414 99.481411 
L 82.255459 99.42221 
L 82.363519 99.244606 
L 82.372524 99.303807 
L 82.489589 99.155804 
L 82.49259 99.185405 
L 82.495592 99.215005 
L 82.588643 99.037401 
L 82.591645 99.067002 
L 82.702706 98.9486 
L 82.627665 99.126203 
L 82.711711 98.9782 
L 82.780749 99.067002 
L 82.717715 98.9486 
L 82.828776 99.037401 
L 82.873801 98.9486 
L 83.008875 98.682194 
L 83.095924 98.741395 
L 83.10793 98.652593 
L 83.116935 98.652593 
L 83.345061 98.593392 
L 83.459124 98.415788 
L 83.462126 98.445389 
L 83.468129 98.50459 
L 83.471131 98.563791 
L 83.480136 98.47499 
L 83.579191 98.50459 
L 83.61521 98.593392 
L 83.66924 98.741395 
L 83.729273 98.682194 
L 84.24856 98.593392 
L 84.311595 98.682194 
L 84.362623 98.563791 
L 84.476686 98.741395 
L 84.479688 98.711795 
L 84.497698 98.652593 
L 84.533718 98.770996 
L 84.584746 98.711795 
L 84.665791 98.800596 
L 84.668792 98.682194 
L 84.695807 98.741395 
L 85.179074 98.800596 
L 85.242109 98.889398 
L 85.260119 98.741395 
L 85.287134 98.770996 
L 85.299141 98.830197 
L 85.356172 98.918999 
L 85.350169 98.800596 
L 85.410202 98.830197 
L 85.857449 98.918999 
L 85.881462 99.007801 
L 85.9505 98.859798 
L 85.96851 98.918999 
L 85.980517 98.889398 
L 86.043552 99.067002 
L 86.067565 99.037401 
L 86.142607 99.126203 
L 86.082573 99.007801 
L 86.175625 99.067002 
L 86.27468 98.9486 
L 86.286686 99.037401 
L 86.325708 99.096603 
L 86.448776 99.333408 
L 86.778958 99.363008 
L 86.875011 99.540612 
L 86.790965 99.333408 
L 86.893021 99.481411 
L 87.010086 99.629414 
L 87.016089 99.599813 
L 87.193187 99.688615 
L 87.310252 99.866219 
L 87.211197 99.659015 
L 87.316255 99.836618 
L 87.358278 99.688615 
L 87.436321 99.747816 
L 87.81453 99.659015 
L 87.83254 99.599813 
L 87.835542 100.458232 
L 88.01264 115.228944 
L 88.59196 142.994332 
L 89.192291 157.469038 
L 89.537482 162.116336 
L 89.549489 162.205138 
L 89.771611 164.395585 
L 90.089787 166.438028 
L 90.104795 166.497229 
L 90.224862 166.941239 
L 90.233867 166.911638 
L 90.296901 166.852437 
L 90.317913 166.970839 
L 90.338925 166.970839 
L 90.389953 167.03004 
L 90.519024 167.385248 
L 90.648096 167.592452 
L 90.654099 167.50365 
L 90.72914 167.710855 
L 90.750152 167.681254 
L 90.774165 167.770056 
L 90.8372 167.888459 
L 90.810185 167.740455 
L 90.888228 167.829257 
L 90.89123 167.740455 
L 90.951263 167.918059 
L 90.996288 167.858858 
L 91.095343 167.94766 
L 91.110351 167.97726 
L 91.173386 167.858858 
L 91.203402 167.94766 
L 91.305459 167.799657 
L 91.317465 167.829257 
L 91.383502 167.918059 
L 91.518576 168.243666 
L 91.521578 168.184465 
L 91.584613 168.154864 
L 91.548593 168.273267 
L 91.626636 168.243666 
L 91.731694 168.302867 
L 91.737697 168.273267 
L 91.788726 168.184465 
L 91.932805 167.829257 
L 91.992838 167.888459 
L 92.025857 167.710855 
L 92.034862 167.740455 
L 92.094895 167.799657 
L 92.205956 168.006861 
L 92.214961 167.97726 
L 92.290003 168.036462 
L 92.404066 168.332468 
L 92.413071 168.273267 
L 92.446089 168.243666 
L 92.482109 168.42127 
L 92.515127 168.362069 
L 92.617183 168.42127 
L 92.61118 168.302867 
L 92.62919 168.391669 
L 92.977382 168.450871 
L 92.980384 168.510072 
L 93.067432 168.184465 
L 93.073435 168.184465 
L 93.151478 167.799657 
L 93.193502 167.94766 
L 93.310566 168.095663 
L 93.31657 168.066062 
L 93.376603 168.154864 
L 93.394613 168.243666 
L 93.448643 168.095663 
L 93.487664 168.154864 
L 93.583717 168.214066 
L 93.712788 168.598874 
L 93.75181 168.687676 
L 93.862871 168.835679 
L 93.811843 168.658075 
L 93.871876 168.806078 
L 94.000948 168.628474 
L 94.003949 168.687676 
L 94.081992 168.125264 
L 94.087996 168.154864 
L 94.127017 168.095663 
L 94.262092 167.533251 
L 94.265094 167.562852 
L 94.319123 167.651654 
L 94.328128 167.740455 
L 94.415177 167.533251 
L 94.418178 167.533251 
L 94.694331 165.905217 
L 94.697332 165.934817 
L 94.772374 165.727613 
L 94.787382 165.757214 
L 94.955475 165.194802 
L 94.991495 165.283603 
L 95.087548 165.490808 
L 95.117565 165.461207 
L 95.276652 164.869195 
L 95.282656 164.928396 
L 95.285657 164.987597 
L 95.369704 164.66199 
L 95.38171 164.691591 
L 95.429737 164.602789 
L 95.45375 164.63239 
L 95.5438 164.543588 
L 95.552805 164.573188 
L 95.63385 164.365984 
L 95.642855 164.425185 
L 95.771926 164.18838 
L 95.780931 164.277182 
L 95.867979 163.803572 
L 96.075093 162.856352 
L 96.102108 162.76755 
L 96.294215 161.968333 
L 96.30322 162.027535 
L 96.381263 161.642726 
L 96.384264 161.642726 
L 96.525342 161.021113 
L 96.534347 161.050714 
L 96.582374 160.695506 
L 96.600384 160.695506 
L 96.741462 160.251497 
L 96.606387 160.725107 
L 96.750467 160.310698 
L 96.768477 160.340299 
L 96.82851 160.103494 
L 96.840516 160.133094 
L 96.987598 159.777887 
L 97.059637 159.837088 
L 97.089654 159.718686 
L 97.095657 159.748286 
L 97.221727 159.689085 
L 97.341793 159.45228 
L 97.3538 159.481881 
L 97.416835 159.215475 
L 97.428841 159.215475 
L 97.545906 159.008271 
L 97.548908 159.037871 
L 97.596934 158.949069 
L 97.747017 158.475459 
L 97.75302 158.50506 
L 97.837067 158.534661 
L 97.82506 158.386658 
L 97.858078 158.445859 
L 97.900102 158.357057 
L 97.909107 158.386658 
L 98.053186 157.942648 
L 98.092208 157.853846 
L 98.248294 157.409837 
L 98.251296 157.439437 
L 98.320334 157.025029 
L 98.323335 157.054629 
L 98.347349 156.965827 
L 98.54846 156.077809 
L 98.551461 156.107409 
L 98.614496 155.811403 
L 98.626503 155.811403 
L 98.737564 155.485796 
L 98.746569 155.544997 
L 98.749571 155.604199 
L 98.845624 155.337793 
L 98.953684 155.071387 
L 98.857631 155.396994 
L 98.968692 155.100988 
L 99.010715 155.071387 
L 99.133783 154.656979 
L 99.148791 154.568177 
L 99.418941 152.969743 
L 99.421942 153.028944 
L 99.502987 152.555334 
L 99.505989 152.555334 
L 99.728111 151.460111 
L 99.740118 151.40091 
L 99.890201 150.512891 
L 99.893203 150.542492 
L 99.920218 150.48329 
L 100.046287 150.039281 
L 100.049289 150.098482 
L 100.064297 150.00968 
L 100.229388 149.328866 
L 100.073302 150.068881 
L 100.238393 149.388067 
L 100.241395 149.417668 
L 100.283418 149.210463 
L 100.334446 149.240064 
L 100.385475 149.03286 
L 100.454513 149.151262 
L 100.523551 149.180863 
L 100.541561 149.06246 
L 100.553567 149.092061 
L 100.688642 148.55925 
L 100.697647 148.58885 
L 100.751677 148.263243 
L 100.769687 148.292844 
L 100.928775 147.789633 
L 100.958791 147.908036 
L 101.015823 147.671231 
L 101.030831 147.730432 
L 101.150897 147.552828 
L 101.177912 147.493627 
L 101.26496 147.256822 
L 101.297979 147.316023 
L 101.448062 147.227221 
L 101.679189 145.954394 
L 101.685193 145.983995 
L 101.706204 145.924794 
L 101.84428 145.391982 
L 102.02438 144.711168 
L 102.183468 144.681567 
L 102.300533 144.089555 
L 102.312539 144.148756 
L 102.327547 144.089555 
L 102.450615 143.615945 
L 102.45962 143.645546 
L 102.53166 143.704747 
L 102.558675 143.556744 
L 102.56768 143.615945 
L 102.582688 143.527143 
L 102.756785 142.875929 
L 102.759786 142.935131 
L 102.834828 142.550322 
L 102.849836 142.550322 
L 102.918874 142.43192 
L 102.864844 142.579923 
L 102.969902 142.46152 
L 102.999919 142.372719 
L 103.171013 141.721505 
L 103.174015 141.751105 
L 103.198028 141.662304 
L 103.378128 140.892687 
L 103.213037 141.691904 
L 103.381129 140.951889 
L 103.408144 140.892687 
L 103.543219 140.419077 
L 103.561229 140.359876 
L 103.699305 139.797464 
L 103.72632 139.708662 
L 103.846386 139.294253 
L 103.732323 139.738263 
L 103.873401 139.323854 
L 103.876403 139.353455 
L 103.957448 139.11665 
L 103.963451 139.11665 
L 104.005474 139.027848 
L 104.155557 138.613439 
L 104.158559 138.64304 
L 104.2336 138.317433 
L 104.242605 138.376634 
L 104.272622 138.287832 
L 104.446718 137.636618 
L 104.464728 137.666219 
L 104.536768 137.429414 
L 104.53977 137.459015 
L 104.710864 136.807801 
L 104.713866 136.896603 
L 104.81292 136.541395 
L 104.950997 136.097386 
L 104.963003 136.126986 
L 104.966005 136.156587 
L 105.041046 135.80138 
L 105.044048 135.83098 
L 105.230151 135.090964 
L 105.269172 135.031763 
L 105.407249 134.41015 
L 105.41025 134.439751 
L 105.434264 134.350949 
L 105.57234 133.788537 
L 105.599355 133.699735 
L 105.722423 133.314927 
L 105.884512 132.811716 
L 105.902522 132.722914 
L 106.100632 131.834896 
L 106.103633 131.864496 
L 106.178675 131.509289 
L 106.181677 131.538889 
L 106.199687 131.450087 
L 106.391793 130.650871 
L 106.418808 130.591669 
L 106.553882 130.088459 
L 106.565889 130.029257 
L 106.703965 129.496446 
L 106.727978 129.437245 
L 106.854048 128.904434 
L 106.863053 128.963635 
L 107.028144 128.371622 
L 107.031146 128.401223 
L 107.037149 128.460424 
L 107.130201 128.28282 
L 107.133202 128.312421 
L 107.14821 128.342022 
L 107.298293 127.77961 
L 107.334313 127.720408 
L 107.457381 127.306 
L 107.4904 127.217198 
L 107.631477 126.921192 
L 107.667497 126.86199 
L 107.802572 126.269978 
L 107.805574 126.35878 
L 107.901627 125.973972 
L 107.910632 126.033173 
L 108.036701 125.500362 
L 108.057713 125.41156 
L 108.198791 124.789946 
L 108.201793 124.819547 
L 108.267829 124.434739 
L 108.270831 124.46434 
L 108.3969 123.813126 
L 108.402904 123.842726 
L 108.420914 123.753925 
L 108.610018 122.954708 
L 108.61302 122.984308 
L 108.682058 122.629101 
L 108.688061 122.658701 
L 108.868161 121.977887 
L 108.871162 122.007488 
L 108.952207 121.711481 
L 108.99423 121.622679 
L 109.153318 121.149069 
L 109.165325 121.089868 
L 109.17433 121.119469 
L 109.291394 120.764261 
L 109.330416 120.675459 
L 109.50151 120.024246 
L 109.507514 120.083447 
L 109.594562 119.75784 
L 109.597564 119.75784 
L 109.633583 119.669038 
L 109.80768 119.047425 
L 109.8437 118.958623 
L 109.990781 118.603416 
L 109.993782 118.633016 
L 110.062821 118.307409 
L 110.071826 118.307409 
L 110.22491 117.774598 
L 110.233915 117.804199 
L 110.236917 117.833799 
L 110.311958 117.567394 
L 110.323965 117.596994 
L 110.507066 116.886579 
L 110.534081 116.827378 
L 110.633136 116.620174 
L 110.654147 116.649774 
L 110.693169 116.560972 
L 110.816237 116.324167 
L 110.843252 116.353768 
L 110.91229 116.205765 
L 110.915291 116.235365 
L 111.068376 115.791356 
L 111.074379 115.820957 
L 111.152422 115.52495 
L 111.314512 114.992139 
L 111.353534 115.02174 
L 111.386552 114.814535 
L 111.407563 114.844136 
L 111.539636 114.429727 
L 111.572655 114.340925 
L 111.776767 113.423306 
L 111.806784 113.334504 
L 111.932854 112.860894 
L 111.94486 112.860894 
L 112.055922 112.446485 
L 112.064927 112.476086 
L 112.103948 112.416885 
L 112.239023 111.943275 
L 112.242024 111.972875 
L 112.317066 111.647268 
L 112.320068 111.647268 
L 112.533185 110.640847 
L 112.536187 110.670448 
L 112.605225 110.374441 
L 112.61423 110.374441 
L 112.743301 109.989633 
L 112.761311 110.048834 
L 112.821344 109.752828 
L 112.827348 109.782429 
L 112.947414 109.427221 
L 112.953417 109.456822 
L 112.977431 109.36802 
L 113.148525 108.746407 
L 113.15753 108.776008 
L 113.235573 108.509602 
L 113.262588 108.480001 
L 113.385656 108.006391 
L 113.394661 108.065593 
L 113.481709 107.799187 
L 113.610781 107.207174 
L 113.634794 107.118372 
L 113.799885 106.585561 
L 113.817895 106.496759 
L 113.949968 105.993549 
L 113.95297 106.023149 
L 113.967978 106.023149 
L 114.091046 105.519939 
L 114.229122 105.046329 
L 114.24413 105.075929 
L 114.247132 105.10553 
L 114.319172 104.779923 
L 114.328177 104.839124 
L 114.481261 104.395115 
L 114.484263 104.424715 
L 114.565308 104.15831 
L 114.574313 104.217511 
L 114.733401 103.6847 
L 114.736402 103.7143 
L 114.766419 103.655099 
L 114.889487 103.21109 
L 114.898492 103.24069 
L 115.072588 102.619077 
L 115.11161 102.589477 
L 115.231676 102.145467 
L 115.234678 102.175068 
L 115.252688 102.145467 
L 115.378757 101.701458 
L 115.396767 101.671857 
L 115.525838 101.139046 
L 115.531842 101.168647 
L 115.606883 100.87264 
L 115.609885 100.902241 
L 115.747961 100.36943 
L 115.750963 100.39903 
L 115.820001 100.073423 
L 115.829006 100.073423 
L 115.868027 100.014222 
L 115.98209 99.629414 
L 115.997099 99.659015 
L 116.1802 98.9486 
L 116.183202 98.9782 
L 116.255241 98.652593 
L 116.261245 98.682194 
L 116.435341 97.853376 
L 116.450349 97.882977 
L 116.453351 97.912578 
L 116.534396 97.675773 
L 116.543401 97.705373 
L 116.666469 97.468568 
L 116.837563 96.876556 
L 116.84957 96.935757 
L 116.924611 96.698952 
L 116.927613 96.698952 
L 116.939619 96.728553 
L 117.101709 96.077339 
L 117.122721 95.988537 
L 117.260797 95.455726 
L 117.263799 95.544528 
L 117.35685 95.011716 
L 117.365855 95.041317 
L 117.437895 94.71571 
L 117.581974 93.975694 
L 117.584976 94.034896 
L 117.675026 93.76849 
L 117.681029 93.798091 
L 117.840117 93.324481 
L 117.861129 93.235679 
L 118.047231 92.466062 
L 118.113268 92.525264 
L 118.095258 92.406861 
L 118.152289 92.436462 
L 118.323384 91.844449 
L 118.326386 91.87405 
L 118.40743 91.607644 
L 118.413434 91.637245 
L 118.422439 91.607644 
L 118.563517 90.660424 
L 118.575523 90.571622 
L 118.737613 88.825185 
L 118.779636 31.518372 
L 118.791643 19.885326 
L 118.863682 73.847268 
L 119.00476 85.302711 
L 119.265905 88.262773 
L 119.280913 88.351575 
L 119.415987 89.091591 
L 119.545059 89.357997 
L 119.551062 89.328396 
L 119.554064 89.298795 
L 119.632107 89.565201 
L 119.641112 89.5356 
L 119.701145 89.624402 
L 119.743168 89.476399 
L 119.74617 89.476399 
L 119.866236 89.239594 
L 119.875241 89.269195 
L 119.881244 89.328396 
L 119.941278 89.209993 
L 119.977298 89.209993 
L 119.980299 89.150792 
L 120.082356 89.328396 
L 120.085357 89.269195 
L 120.21743 88.973188 
L 120.100366 89.298795 
L 120.220432 89.03239 
L 120.241443 88.943588 
L 120.391526 88.469978 
L 120.394528 88.529179 
L 120.39753 88.55878 
L 120.472571 88.233173 
L 120.475573 88.233173 
L 120.553616 88.173972 
L 120.700697 87.404355 
L 120.703699 87.433956 
L 120.757729 86.871544 
L 120.769735 83.082664 
L 120.817762 18.849304 
L 120.889802 71.56802 
L 121.033881 85.894723 
L 121.28602 88.706783 
L 121.292024 88.677182 
L 121.349055 89.121192 
L 121.355059 89.121192 
L 121.514147 89.624402 
L 121.52015 89.5356 
L 121.580183 89.683603 
L 121.622206 89.683603 
L 121.808309 89.594802 
L 121.93738 89.269195 
L 121.946385 89.298795 
L 121.958392 89.328396 
L 122.018425 89.03239 
L 122.030432 89.03239 
L 122.228541 88.173972 
L 122.240548 88.08517 
L 122.363616 85.805921 
L 122.417646 18.553298 
L 122.49869 73.255256 
L 122.645772 85.361912 
L 123.147049 89.239594 
L 123.156054 89.180393 
L 123.210083 89.328396 
L 123.249105 89.298795 
L 123.279122 89.357997 
L 123.342156 89.180393 
L 123.354163 89.239594 
L 123.471228 88.854786 
L 123.477231 88.884387 
L 123.645324 88.321975 
L 123.678342 88.262773 
L 123.828425 87.493157 
L 123.831427 87.552358 
L 123.915473 87.078748 
L 123.918475 87.078748 
L 123.936485 86.989946 
L 124.053549 83.970683 
L 124.107579 18.316493 
L 124.182621 70.709602 
L 124.329702 85.095506 
L 124.521808 86.812343 
L 124.52481 86.753141 
L 124.722919 87.61156 
L 124.761941 87.64116 
L 124.866999 87.877965 
L 124.879005 87.848365 
L 124.909022 87.789163 
L 125.011078 87.522758 
L 124.921029 87.818764 
L 125.029088 87.581959 
L 125.047098 87.493157 
L 125.224196 86.812343 
L 125.227198 86.841943 
L 125.281228 86.338733 
L 125.371277 82.372249 
L 125.422305 18.16849 
L 125.497347 67.30553 
L 125.64743 84.858701 
L 125.884561 87.433956 
L 125.887562 87.404355 
L 125.905572 87.493157 
L 125.989619 87.670761 
L 125.911576 87.463557 
L 126.02864 87.64116 
L 126.151708 87.463557 
L 126.15471 87.522758 
L 126.24476 87.226751 
L 126.247761 87.285953 
L 126.376833 86.753141 
L 126.409851 86.66434 
L 126.568939 86.161129 
L 126.574942 86.19073 
L 126.640979 85.894723 
L 126.655987 85.924324 
L 126.893118 83.349069 
L 126.950149 17.842883 
L 127.031194 70.117589 
L 127.181277 84.533094 
L 127.45743 86.457135 
L 127.484445 86.427535 
L 127.505456 86.486736 
L 127.622521 86.101928 
L 127.625523 86.161129 
L 127.721576 85.953925 
L 127.724577 85.983525 
L 127.904677 85.27311 
L 127.907678 85.302711 
L 127.955705 84.740299 
L 127.970713 83.023463 
L 128.027745 17.635679 
L 128.10879 69.022366 
L 128.258872 84.296289 
L 128.420962 85.865123 
L 128.456982 85.924324 
L 128.568043 86.101928 
L 128.571045 86.013126 
L 128.658093 85.953925 
L 128.787164 85.421113 
L 128.793168 85.450714 
L 128.802173 85.361912 
L 128.96126 82.786658 
L 129.021294 17.635679 
L 129.102338 68.223149 
L 129.252421 84.148286 
L 129.468541 86.249931 
L 129.504561 86.161129 
L 129.555589 86.397934 
L 129.570597 86.338733 
L 129.579602 86.397934 
L 129.645638 86.19073 
L 129.66665 86.22033 
L 129.795721 85.865123 
L 129.801725 85.776321 
L 129.918789 83.881881 
L 129.972819 21.01015 
L 129.981824 17.665279 
L 130.035854 52.002006 
L 130.188939 83.082664 
L 130.537131 85.598717 
L 130.549138 85.539516 
L 130.561144 85.598717 
L 130.681211 85.302711 
L 130.696219 85.361912 
L 130.765257 85.095506 
L 130.777264 85.154708 
L 130.813284 85.065906 
L 130.876318 83.763478 
L 130.924345 29.357527 
L 130.939353 17.69488 
L 131.011393 62.658232 
L 131.161476 83.230667 
L 131.326567 84.829101 
L 131.413615 85.065906 
L 131.455638 85.006705 
L 131.47665 84.977104 
L 131.533681 85.095506 
L 131.560696 85.065906 
L 131.608723 84.977104 
L 131.734793 84.681098 
L 131.740796 84.710698 
L 131.800829 84.237088 
L 131.818839 84.148286 
L 131.860862 82.697856 
L 131.923897 17.754081 
L 132.007943 66.891121 
L 132.161028 83.141865 
L 132.353134 84.888302 
L 132.359137 84.858701 
L 132.500215 84.858701 
L 132.650298 76.955334 
L 132.70733 18.227691 
L 132.776368 57.981333 
L 132.929453 82.313047 
L 133.172587 85.036305 
L 133.175589 85.006705 
L 133.352686 84.917903 
L 133.520779 79.767394 
L 133.580812 18.227691 
L 133.655854 62.09582 
L 133.808938 82.520252 
L 134.022056 84.562695 
L 134.100099 84.473893 
L 134.262189 83.941082 
L 134.26519 83.970683 
L 134.331227 83.556274 
L 134.403267 82.342648 
L 134.44529 46.111481 
L 134.472305 18.050087 
L 134.544345 60.23098 
L 134.697429 81.839437 
L 134.859519 83.37867 
L 134.973582 83.526673 
L 134.865522 83.349069 
L 134.979585 83.467472 
L 135.039618 83.37867 
L 135.045622 83.408271 
L 135.204709 81.188224 
L 135.273748 18.671701 
L 135.354792 63.398247 
L 135.510879 81.632233 
L 135.720995 83.585874 
L 135.74801 83.674676 
L 135.751011 83.704277 
L 135.832056 83.467472 
L 135.838059 83.497073 
L 136.099204 80.211403 
L 136.16524 18.227691 
L 136.249286 63.99026 
L 136.405373 81.454629 
L 136.411376 81.543431 
L 136.630497 82.757057 
L 136.639502 82.697856 
L 136.699535 82.609054 
L 136.828607 80.685013 
L 136.900646 19.204512 
L 136.984693 63.309445 
L 137.140779 81.247425 
L 137.317877 82.668255 
L 137.320878 82.609054 
L 137.34189 82.727456 
L 137.43194 82.668255 
L 137.549004 82.224246 
L 137.561011 82.283447 
L 137.588026 82.194645 
L 137.657064 79.234582 
L 137.726102 18.997307 
L 137.804145 60.882194 
L 137.963233 80.833016 
L 138.161343 82.697856 
L 138.164344 82.638654 
L 138.203366 82.697856 
L 138.227379 82.816258 
L 138.299419 82.43145 
L 138.467512 80.241004 
L 138.524543 26.19026 
L 138.539552 18.671701 
L 138.605588 53.60044 
L 138.764676 80.448208 
L 138.929767 82.046642 
L 138.998805 82.194645 
L 139.04383 82.076242 
L 139.190911 80.270604 
L 139.265953 19.322914 
L 139.353001 61.030197 
L 139.512089 80.093001 
L 139.791243 81.780236 
L 139.869286 80.359406 
L 139.929319 34.626438 
L 139.950331 20.418138 
L 140.022371 56.353298 
L 140.18446 80.033799 
L 140.187462 80.033799 
L 140.334543 81.513831 
L 140.367561 81.602632 
L 140.373565 81.661834 
L 140.451608 81.336227 
L 140.655721 78.938576 
L 140.730762 19.352515 
L 140.811807 60.378983 
L 140.967893 79.264183 
L 141.217031 80.773815 
L 141.223034 80.685013 
L 141.247047 80.625812 
L 141.36111 74.38008 
L 141.43315 20.684543 
L 141.502188 54.458858 
L 141.664278 78.908975 
L 141.853382 80.477809 
L 142.051492 77.576947 
L 142.132537 20.802946 
L 142.213581 58.277339 
L 142.369667 78.553768 
L 142.57378 80.53701 
L 142.579784 80.507409 
L 142.741873 79.944997 
L 142.744875 80.004199 
L 142.82592 79.441787 
L 142.834925 79.412186 
L 142.867943 76.096916 
L 142.939983 19.766924 
L 143.018026 58.247738 
L 143.177114 78.287362 
L 143.420248 79.767394 
L 143.426251 79.678592 
L 143.507296 78.287362 
L 143.579336 32.080784 
L 143.597346 21.92777 
L 143.669385 52.712421 
L 143.831475 77.576947 
L 143.981558 79.204982 
L 143.993565 79.175381 
L 144.089618 79.234582 
L 144.143647 76.836932 
L 144.245704 24.503024 
L 144.320745 52.712421 
L 144.488838 76.836932 
L 144.656931 79.086579 
L 144.710961 79.293784 
L 144.773996 79.14578 
L 144.779999 79.175381 
L 144.933084 77.014535 
L 145.01713 22.105373 
L 145.098175 56.945311 
L 145.260264 76.836932 
L 145.494394 78.494567 
L 145.518407 78.287362 
L 145.54242 78.19856 
L 145.641475 76.27452 
L 145.737528 22.993392 
L 145.812569 53.393235 
L 145.977661 76.570526 
L 146.130745 78.228161 
L 146.196782 78.139359 
L 146.262818 76.629727 
L 146.37388 25.805452 
L 146.451923 53.363635 
L 146.626019 75.682507 
L 146.797113 78.050557 
L 146.914178 77.961755 
L 147.013233 74.557683 
L 147.103282 23.082194 
L 147.178324 52.268412 
L 147.346417 76.008114 
L 147.508506 77.576947 
L 147.580546 77.517746 
L 147.715621 72.781646 
L 147.811674 25.24304 
L 147.883714 50.936383 
L 148.05781 75.948913 
L 148.234908 77.458545 
L 148.243913 77.428944 
L 148.258921 77.458545 
L 148.336964 75.83051 
L 148.466035 25.598247 
L 148.538075 50.344371 
L 148.712171 75.623306 
L 148.829236 77.162538 
L 148.868257 77.044136 
L 149.048357 74.202476 
L 149.177428 26.989477 
L 149.243465 47.502711 
L 149.420563 74.85369 
L 149.59766 77.014535 
L 149.603664 76.984935 
L 149.666699 75.593705 
L 149.720728 66.86152 
L 149.792768 71.272014 
L 149.966864 75.149696 
L 150.071922 75.090495 
L 150.008888 75.386501 
L 150.074924 75.179297 
L 150.149965 75.090495 
L 150.252022 73.225655 
L 150.33907 21.95737 
L 150.423116 55.850087 
L 150.582204 74.85369 
L 150.699269 75.682507 
L 150.717279 75.652907 
L 150.90038 72.840847 
L 151.023448 26.427065 
L 151.086483 46.111481 
L 151.266582 73.817668 
L 151.398655 75.208897 
L 151.473697 74.794488 
L 151.503713 73.728866 
L 151.557743 65.203885 
L 151.632785 69.466376 
L 151.836897 73.196055 
L 151.890927 73.344058 
L 151.920944 72.98885 
L 151.95096 67.690338 
L 151.989982 61.059798 
L 152.065023 66.180706 
L 152.272138 71.035209 
L 152.287146 71.153611 
L 152.374194 69.495976 
L 152.422221 61.355804 
L 152.500264 65.44069 
L 152.71038 69.762382 
L 152.719385 69.732781 
L 152.734393 69.67358 
L 152.767411 65.707096 
L 152.809435 61.829414 
L 152.878473 65.203885 
L 153.082586 69.347973 
L 153.09159 69.288772 
L 153.097594 69.347973 
L 153.175637 69.022366 
L 153.214658 63.161442 
L 153.262685 57.744528 
L 153.331723 61.385405 
L 153.589866 67.216728 
L 153.628887 66.121505 
L 153.673912 61.030197 
L 153.751955 64.108662 
L 154.016101 67.127926 
L 154.106151 67.423932 
L 154.022105 67.068725 
L 154.133166 67.216728 
L 154.172187 63.102241 
L 154.217212 59.490964 
L 154.28625 62.56943 
L 154.550396 66.83192 
L 154.601425 66.624715 
L 154.634443 63.931058 
L 154.691474 58.277339 
L 154.760512 60.941395 
L 154.982635 65.381489 
L 155.024658 65.499892 
L 155.072685 65.233486 
L 155.096698 62.747033 
L 155.144725 58.81015 
L 155.213763 61.355804 
L 155.369849 64.404668 
L 155.396864 63.694253 
L 155.456897 58.691748 
L 155.53494 61.267002 
L 155.754061 64.49347 
L 155.799086 64.700675 
L 155.853116 60.526986 
L 155.883133 59.520565 
L 155.946167 61.888615 
L 156.120264 64.996681 
L 156.129269 65.026282 
L 156.201308 63.220643 
L 156.255338 59.550166 
L 156.321375 61.859015 
L 156.516482 64.167863 
L 156.543497 64.079062 
L 156.576516 61.296603 
L 156.621541 58.277339 
L 156.690579 60.556587 
L 156.756615 62.303024 
L 156.92771 64.108662 
L 156.936715 64.167863 
L 156.984741 64.256665 
L 157.029766 63.871857 
L 157.107809 58.484543 
L 157.203862 61.237401 
L 157.353945 62.895037 
L 157.365952 62.776634 
L 157.39897 61.563008 
L 157.43499 58.632546 
L 157.513033 60.822993 
L 157.741159 63.279845 
L 157.747162 63.250244 
L 157.756167 63.309445 
L 157.789186 62.658232 
L 157.85222 57.448521 
L 157.948273 60.290181 
L 158.074343 61.859015 
L 158.083348 61.770213 
L 158.089351 61.829414 
L 158.131375 60.793392 
L 158.194409 57.152515 
L 158.260446 59.106156 
L 158.458555 62.658232 
L 158.509584 62.362225 
L 158.572618 62.628631 
L 158.605637 62.539829 
L 158.641656 61.118999 
L 158.698688 57.270918 
L 158.764724 59.106156 
L 158.965836 61.770213 
L 158.968837 61.711011 
L 159.04688 62.303024 
L 159.049882 62.273423 
L 159.139932 62.539829 
L 159.06489 62.243823 
L 159.160943 62.273423 
L 159.241988 56.886109 
L 159.341043 60.053376 
L 159.488124 61.829414 
L 159.491126 61.829414 
L 159.566167 62.391826 
L 159.599185 61.829414 
L 159.629202 59.076556 
L 159.659219 57.655726 
L 159.731258 59.609367 
L 159.944376 61.740612 
L 160.001408 61.1782 
L 160.058439 58.158936 
L 160.133481 60.319782 
L 160.286565 61.918216 
L 160.316582 61.740612 
L 160.322585 61.711011 
L 160.394625 57.86293 
L 160.484675 60.171779 
L 160.607743 61.030197 
L 160.631756 60.941395 
L 160.634757 60.852593 
L 160.715802 61.740612 
L 160.757825 61.977417 
L 160.808854 59.846172 
L 160.85688 57.448521 
L 160.925918 59.017354 
L 160.934923 59.106156 
L 161.136034 60.911795 
L 161.181059 61.000596 
L 161.208074 61.237401 
L 161.238091 60.526986 
L 161.286117 57.566924 
L 161.367162 59.342961 
L 161.376167 59.402163 
L 161.475222 60.67499 
L 161.511242 60.349383 
L 161.583281 57.034112 
L 161.667328 58.898952 
L 161.808406 60.763791 
L 161.832419 60.112578 
L 161.895454 57.063713 
L 161.964492 58.573345 
L 162.030529 59.579766 
L 162.078555 58.691748 
L 162.120578 57.359719 
L 162.189616 58.662147 
L 162.291673 59.609367 
L 162.333696 59.342961 
L 162.411739 58.395741 
L 162.477776 59.017354 
L 162.534807 59.520565 
L 162.603845 59.194958 
L 162.663878 56.382899 
L 162.73892 58.484543 
L 162.882999 59.786971 
L 162.886001 59.786971 
L 162.949036 60.142178 
L 163.000064 59.905373 
L 163.123132 60.349383 
L 163.012071 59.875773 
L 163.141142 60.20138 
L 163.162154 60.142178 
L 163.237195 56.590103 
L 163.270213 55.524481 
L 163.339252 57.093314 
L 163.528356 59.816571 
L 163.540363 59.75737 
L 163.549368 59.846172 
L 163.591391 58.691748 
L 163.633414 57.211716 
L 163.708455 58.366141 
L 163.71746 58.425342 
L 163.852535 59.106156 
L 163.858538 59.076556 
L 163.957593 56.234896 
L 164.035636 57.774128 
L 164.200727 59.698169 
L 164.230744 59.550166 
L 164.341805 56.471701 
L 164.416847 57.241317 
L 164.732021 59.402163 
L 164.738024 59.342961 
L 164.783049 57.922131 
L 164.822071 55.938889 
L 164.897112 57.507723 
L 165.029185 59.254159 
L 165.047195 59.076556 
L 165.059202 59.017354 
L 165.07421 58.928553 
L 165.149251 59.372562 
L 165.152253 59.372562 
L 165.167261 59.402163 
L 165.203281 59.638968 
L 165.254309 59.28376 
L 165.275321 59.342961 
L 165.284326 59.254159 
L 165.374376 55.850087 
L 165.482435 57.448521 
L 165.506449 57.626125 
L 165.530462 57.418921 
L 165.593497 57.448521 
L 165.61751 57.359719 
L 165.701556 56.974911 
L 165.749583 57.122914 
L 165.815619 57.448521 
L 165.851639 57.034112 
L 165.899666 55.820487 
L 165.962701 57.034112 
L 166.082767 58.81015 
L 166.229848 58.632546 
L 166.34091 58.158936 
L 166.35892 58.218138 
L 166.412949 58.425342 
L 166.448969 58.010933 
L 166.542021 56.945311 
L 166.656084 57.034112 
L 166.665089 57.004512 
L 166.860197 57.951732 
L 166.989268 55.642883 
L 166.878206 57.981333 
L 167.085321 56.797307 
L 167.199384 57.004512 
L 167.100329 56.738106 
L 167.211391 56.974911 
L 167.226399 56.945311 
L 167.26542 57.300518 
L 167.292435 57.270918 
L 167.325454 57.359719 
L 167.364475 57.507723 
L 167.400495 57.004512 
L 167.472535 56.264496 
L 167.526565 56.678905 
L 167.655636 57.803729 
L 167.718671 57.507723 
L 167.883762 54.932468 
L 167.976813 56.057292 
L 168.045852 56.619704 
L 168.07887 56.027691 
L 168.138903 54.962069 
L 168.210943 55.583682 
L 168.222949 55.672484 
L 168.288986 56.057292 
L 168.343016 55.850087 
L 168.511109 57.300518 
L 168.55013 56.856509 
L 168.62217 54.962069 
L 168.691208 55.96849 
L 168.766249 56.678905 
L 168.850296 56.4421 
L 168.868306 56.530902 
L 168.967361 57.626125 
L 169.027394 57.507723 
L 169.0394 57.418921 
L 169.2195 56.234896 
L 169.252518 56.382899 
L 169.318555 56.826908 
L 169.366581 56.471701 
L 169.396598 55.96849 
L 169.495652 56.057292 
L 169.528671 56.146094 
L 169.555686 55.642883 
L 169.609715 53.689242 
L 169.696764 54.695663 
L 169.831838 55.850087 
L 169.843845 55.790886 
L 169.960909 56.590103 
L 169.855851 55.731685 
L 170.020943 56.4421 
L 170.089981 56.382899 
L 170.291092 54.606861 
L 170.438173 55.258075 
L 170.300097 54.54766 
L 170.459185 55.169273 
L 170.516216 55.613282 
L 170.615271 54.281254 
L 170.630279 54.162852 
L 170.678306 54.725264 
L 170.825387 56.471701 
L 170.843397 56.323697 
L 170.864409 56.234896 
L 171.095536 54.666062 
L 170.870412 56.264496 
L 171.119549 54.814066 
L 171.131556 54.843666 
L 171.188588 54.399657 
L 171.191589 54.429257 
L 171.209599 54.340455 
L 171.245619 54.962069 
L 171.332667 55.49488 
L 171.368687 55.198874 
L 171.37469 55.110072 
L 171.41071 54.754864 
L 171.494757 54.991669 
L 171.530777 55.050871 
L 171.560793 54.606861 
L 171.563795 54.606861 
L 171.593811 54.458858 
L 171.641838 55.198874 
L 171.734889 55.820487 
L 171.770909 55.642883 
L 171.845951 55.02127 
L 171.905984 55.110072 
L 171.929997 55.198874 
L 171.981025 54.784465 
L 171.984027 54.814066 
L 172.053065 54.10365 
L 172.1161 54.54766 
L 172.173132 54.932468 
L 172.212153 54.340455 
L 172.275188 53.422836 
L 172.338223 53.866845 
L 172.488306 55.139672 
L 172.491307 55.110072 
L 172.626382 54.281254 
L 172.509317 55.139672 
L 172.665403 54.488459 
L 172.69542 54.57726 
L 172.788471 55.317276 
L 172.830495 54.814066 
L 172.884524 54.399657 
L 172.920544 55.02127 
L 172.923546 54.932468 
L 173.046614 55.554081 
L 173.058621 55.465279 
L 173.235719 53.807644 
L 173.247725 53.926047 
L 173.451838 54.902867 
L 173.45484 54.873267 
L 173.475851 54.814066 
L 173.481854 54.695663 
L 173.559898 55.346877 
L 173.595917 55.258075 
L 173.640942 54.991669 
L 173.691971 55.406078 
L 173.700976 55.376477 
L 173.902087 54.340455 
L 173.788024 55.554081 
L 173.914093 54.370056 
L 173.986133 54.725264 
L 174.043165 54.54766 
L 174.127211 54.695663 
L 174.163231 54.281254 
L 174.178239 54.222053 
L 174.199251 53.926047 
L 174.268289 54.310855 
L 174.289301 54.222053 
L 174.310312 54.162852 
L 174.382352 53.807644 
L 174.421373 54.10365 
L 174.54144 54.991669 
L 174.586465 54.636462 
L 174.640495 54.725264 
L 174.805586 55.287676 
L 174.92265 53.807644 
L 174.97668 54.10365 
L 175.018703 54.014849 
L 175.08474 53.689242 
L 175.126763 54.044449 
L 175.129765 54.014849 
L 175.201805 54.429257 
L 175.255834 54.192452 
L 175.354889 53.511638 
L 175.387907 53.778044 
L 175.480959 54.251654 
L 175.513977 53.985248 
L 175.543994 53.689242 
L 175.59202 54.133251 
L 175.616033 54.133251 
L 175.658057 54.281254 
L 175.697078 54.044449 
L 175.724093 54.162852 
L 175.757111 54.07405 
L 175.820146 54.399657 
L 175.823148 54.370056 
L 175.832153 54.488459 
L 175.904193 53.896446 
L 176.033264 53.334034 
L 176.132319 53.245232 
L 176.141324 53.186031 
L 176.198355 53.541239 
L 176.231373 53.363635 
L 176.24338 53.274833 
L 176.306415 52.919625 
L 176.360445 53.097229 
L 176.486514 52.298012 
L 176.504524 52.416415 
L 176.663612 53.63004 
L 176.672617 53.541239 
L 176.675619 53.570839 
L 176.705635 53.334034 
L 176.765669 53.363635 
L 176.798687 53.422836 
L 176.879732 53.985248 
L 176.921755 53.866845 
L 177.053828 53.452437 
L 177.149881 53.926047 
L 177.179897 53.659641 
L 177.338985 52.712421 
L 177.38401 52.031607 
L 177.498073 52.238811 
L 177.513081 52.150009 
L 177.537095 52.031607 
L 177.603131 52.534817 
L 177.807244 53.452437 
L 177.810246 53.393235 
L 177.867277 53.955647 
L 177.903297 53.748443 
L 177.930312 53.63004 
L 178.005353 53.837245 
L 178.03537 53.778044 
L 178.206464 52.505217 
L 178.209466 52.534817 
L 178.248488 52.268412 
L 178.296514 52.68282 
L 178.305519 52.68282 
L 178.386564 52.594019 
L 178.392567 52.564418 
L 178.455602 53.008427 
L 178.461605 52.919625 
L 178.491622 53.097229 
L 178.548653 52.68282 
L 178.566663 52.594019 
L 178.57867 52.475616 
L 178.6327 52.919625 
L 178.644707 52.919625 
L 178.794789 53.482037 
L 178.806796 53.422836 
L 178.953877 52.68282 
L 179.037924 52.771622 
L 179.061937 52.860424 
L 179.127973 52.623619 
L 179.130975 52.623619 
L 179.172998 52.446015 
L 179.200013 52.68282 
L 179.233032 52.65322 
L 179.245038 52.712421 
L 179.32008 52.327613 
L 179.326083 52.357214 
L 179.434143 52.298012 
L 179.33809 52.416415 
L 179.437144 52.327613 
L 179.482169 52.623619 
L 179.542202 52.268412 
L 179.599234 52.623619 
L 179.66527 51.972405 
L 179.677277 52.002006 
L 179.725303 51.498795 
L 179.73731 51.587597 
L 179.770328 51.557997 
L 179.821357 51.854003 
L 179.839366 51.942805 
L 180.004458 53.186031 
L 180.010461 53.15643 
L 180.031473 53.067629 
L 180.181556 52.68282 
L 180.265602 52.594019 
L 180.31663 52.150009 
L 180.373662 52.623619 
L 180.385668 52.65322 
L 180.505735 52.978827 
L 180.577774 52.298012 
L 180.652816 52.564418 
L 180.730859 52.830824 
L 180.757874 52.446015 
L 180.868935 52.061207 
L 180.892949 52.20921 
L 180.910958 52.357214 
L 180.964988 51.883603 
L 180.970992 51.913204 
L 181.007012 51.765201 
L 181.04003 51.942805 
L 181.082053 51.913204 
L 181.127078 52.002006 
L 181.139084 52.090808 
L 181.187111 51.557997 
L 181.235138 51.587597 
L 181.337194 50.78838 
L 181.358206 50.729179 
L 181.412235 50.551575 
L 181.460262 50.817981 
L 181.463264 50.817981 
L 181.595337 51.646798 
L 181.610345 51.557997 
L 181.694391 51.469195 
L 181.736414 51.26199 
L 181.784441 51.646798 
L 181.904507 52.68282 
L 181.955535 52.238811 
L 181.96454 52.150009 
L 182.159648 50.75878 
L 182.183662 50.995585 
L 182.285718 51.409993 
L 182.303728 51.321192 
L 182.318736 51.409993 
L 182.465817 52.002006 
L 182.483827 51.942805 
L 182.594889 51.439594 
L 182.63391 51.528396 
L 182.68794 51.765201 
L 182.717957 51.439594 
L 182.747973 51.587597 
L 182.829018 50.965984 
L 182.86804 51.350792 
L 183.045137 52.20921 
L 183.057144 52.120408 
L 183.162202 51.469195 
L 183.201224 51.794802 
L 183.21323 51.883603 
L 183.333297 52.268412 
L 183.492384 51.587597 
L 183.37532 52.357214 
L 183.501389 51.646798 
L 183.570428 51.854003 
L 183.612451 51.765201 
L 183.73852 51.291591 
L 183.753529 51.23239 
L 183.861588 51.557997 
L 183.870593 51.646798 
L 183.891605 51.972405 
L 183.978653 51.587597 
L 183.984656 51.557997 
L 184.095718 50.581176 
L 184.125734 50.610777 
L 184.299831 50.699578 
L 184.413894 51.646798 
L 184.440908 51.587597 
L 184.491937 51.676399 
L 184.545967 51.972405 
L 184.590991 51.587597 
L 184.723064 51.143588 
L 184.738073 51.084387 
L 184.807111 50.729179 
L 184.858139 50.906783 
L 184.984209 51.173188 
L 184.888156 50.847582 
L 184.990212 51.113987 
L 185.02323 51.202789 
L 185.1493 51.587597 
L 185.161306 51.498795 
L 185.356414 50.31477 
L 185.389432 50.344371 
L 185.473479 50.462773 
L 185.419449 50.166767 
L 185.49449 50.344371 
L 185.542517 49.989163 
L 185.596547 50.403572 
L 185.599549 50.403572 
L 185.74663 51.469195 
L 185.770643 51.380393 
L 185.779648 51.439594 
L 185.911721 50.75878 
L 185.974756 50.817981 
L 186.007774 50.521975 
L 186.010776 50.551575 
L 186.160859 49.663557 
L 186.025784 50.581176 
L 186.184872 49.900362 
L 186.358968 50.936383 
L 186.382981 50.78838 
L 186.485038 50.403572 
L 186.509051 50.492374 
L 186.533064 50.551575 
L 186.590096 50.817981 
L 186.635121 50.403572 
L 186.647127 50.31477 
L 186.782202 50.018764 
L 186.674142 50.344371 
L 186.785204 50.048365 
L 186.911273 50.492374 
L 187.025336 51.054786 
L 187.049349 50.847582 
L 187.115386 50.403572 
L 187.163412 50.729179 
L 187.178421 50.78838 
L 187.232451 51.291591 
L 187.295485 51.054786 
L 187.415552 50.581176 
L 187.421555 50.610777 
L 187.616663 49.604355 
L 187.625668 49.663557 
L 187.766746 50.28517 
L 187.784756 50.166767 
L 187.835784 50.640377 
L 187.838786 50.640377 
L 187.88381 51.084387 
L 187.958852 50.729179 
L 187.988868 50.78838 
L 188.018885 50.936383 
L 188.078918 50.403572 
L 188.09993 50.31477 
L 188.138951 50.877182 
L 188.141953 50.847582 
L 188.159963 50.936383 
L 188.232003 50.640377 
L 188.244009 50.729179 
L 188.397094 49.071544 
L 188.448122 48.89394 
L 188.502152 49.071544 
L 188.595203 49.752358 
L 188.640228 49.633956 
L 188.691256 49.33795 
L 188.745286 49.633956 
L 188.904374 50.610777 
L 189.02444 50.196368 
L 189.033445 50.255569 
L 189.051455 50.196368 
L 189.15051 49.663557 
L 189.183528 49.752358 
L 189.18653 49.781959 
L 189.25857 49.456352 
L 189.333611 48.982742 
L 189.375635 49.33795 
L 189.378636 49.308349 
L 189.435668 49.545154 
L 189.465684 49.545154 
L 189.477691 49.633956 
L 189.633777 50.521975 
L 189.678802 50.699578 
L 189.714822 50.344371 
L 189.717824 50.344371 
L 189.83789 49.870761 
L 189.885916 50.077965 
L 189.843893 49.81156 
L 189.888918 50.048365 
L 190.032998 81.750636 
L 190.321157 95.751732 
L 190.693362 100.902241 
L 190.705369 100.961442 
L 190.867459 102.027065 
L 190.87046 101.997464 
L 190.936497 102.411873 
L 190.939498 102.382272 
L 191.06857 102.915084 
L 191.101588 103.003885 
L 191.254673 103.447895 
L 191.287691 103.359093 
L 191.347724 103.595898 
L 191.356729 103.536697 
L 191.374739 103.625499 
L 191.464789 103.477495 
L 191.596862 103.536697 
L 191.707923 103.6847 
L 191.632881 103.477495 
L 191.713926 103.655099 
L 191.864009 103.566297 
L 191.957061 103.536697 
L 191.879017 103.655099 
L 191.972069 103.566297 
L 192.053114 103.595898 
L 192.020095 103.477495 
L 192.077127 103.536697 
L 192.179183 103.507096 
L 192.11915 103.595898 
L 192.188188 103.536697 
L 192.356281 103.477495 
L 192.395303 103.388694 
L 192.362284 103.536697 
L 192.464341 103.477495 
L 192.560394 103.595898 
L 192.476347 103.447895 
L 192.584407 103.566297 
L 192.641439 103.447895 
L 192.593412 103.595898 
L 192.695468 103.566297 
L 192.701472 103.536697 
L 192.815535 103.773502 
L 192.893578 103.7143 
L 192.82454 103.803102 
L 192.926596 103.743901 
L 193.043661 103.862304 
L 193.046662 103.832703 
L 193.148719 103.891904 
L 193.253777 104.010307 
L 193.262782 103.951105 
L 193.583959 104.010307 
L 193.704026 104.18791 
L 193.761057 104.276712 
L 193.869117 104.454316 
L 193.878122 104.424715 
L 194.187293 104.513517 
L 194.193296 104.543118 
L 194.283346 104.424715 
L 194.289349 104.454316 
L 194.358387 104.513517 
L 194.412417 104.335914 
L 194.601521 104.276712 
L 194.646546 104.217511 
L 194.703578 104.335914 
L 194.709581 104.335914 
L 194.805634 104.395115 
L 194.910692 104.513517 
L 194.838652 104.365514 
L 194.919697 104.483917 
L 195.027757 104.454316 
L 195.12381 104.276712 
L 195.14182 104.306313 
L 195.198851 104.395115 
L 195.252881 104.335914 
L 195.333926 104.217511 
L 195.369946 104.276712 
L 195.453992 104.18791 
L 195.571057 104.010307 
L 195.601074 104.069508 
L 195.634092 103.951105 
L 195.679117 103.980706 
L 195.724142 103.921505 
L 195.769166 104.099109 
L 195.784175 104.010307 
L 195.895236 104.276712 
L 195.904241 104.217511 
L 196.060327 104.276712 
L 196.165385 104.395115 
L 196.171389 104.365514 
L 196.177392 104.276712 
L 196.252433 104.483917 
L 196.276447 104.454316 
L 196.35449 104.513517 
L 196.303462 104.395115 
L 196.384506 104.424715 
L 196.522583 104.513517 
L 196.603627 104.572719 
L 196.579614 104.483917 
L 196.633644 104.543118 
L 196.663661 104.572719 
L 196.759714 104.365514 
L 196.855767 104.572719 
L 196.873777 104.454316 
L 196.921803 104.424715 
L 196.990841 104.513517 
L 197.098901 104.424715 
L 197.113909 104.454316 
L 197.212964 104.335914 
L 197.239979 104.513517 
L 197.330029 104.454316 
L 197.38706 104.395115 
L 197.492118 104.247112 
L 197.504125 104.276712 
L 197.606181 104.15831 
L 197.62119 104.217511 
L 197.729249 104.306313 
L 197.633196 104.18791 
L 197.735253 104.276712 
L 197.846314 104.15831 
L 197.750261 104.306313 
L 197.852317 104.217511 
L 197.94837 104.306313 
L 197.957375 104.276712 
L 198.068437 104.424715 
L 198.125468 104.335914 
L 198.155485 104.454316 
L 198.1825 104.365514 
L 198.227524 104.454316 
L 198.266546 104.306313 
L 198.293561 104.365514 
L 198.371604 104.424715 
L 198.374606 104.483917 
L 198.47366 104.247112 
L 198.575717 104.276712 
L 198.515684 104.15831 
L 198.584722 104.247112 
L 198.590725 104.18791 
L 198.686778 104.365514 
L 198.68978 104.306313 
L 198.794838 104.424715 
L 198.70779 104.276712 
L 198.809846 104.395115 
L 198.857873 104.335914 
L 198.884888 104.454316 
L 198.920907 104.395115 
L 199.128022 104.306313 
L 199.23308 104.247112 
L 199.134025 104.395115 
L 199.239083 104.276712 
L 199.311123 104.365514 
L 199.248088 104.247112 
L 199.350145 104.306313 
L 199.467209 104.217511 
L 199.503229 104.247112 
L 199.584274 104.15831 
L 199.701339 104.306313 
L 199.707342 104.276712 
L 199.836413 104.365514 
L 199.959481 104.602319 
L 200.010509 104.513517 
L 200.124572 104.306313 
L 200.019514 104.572719 
L 200.139581 104.335914 
L 200.211621 104.276712 
L 200.304672 104.18791 
L 200.322682 104.217511 
L 200.430742 104.395115 
L 200.44575 104.335914 
L 200.529796 104.306313 
L 200.51779 104.395115 
L 200.55381 104.365514 
L 200.601836 104.335914 
L 200.667873 104.424715 
L 200.676878 104.335914 
L 200.739912 104.513517 
L 200.775932 104.483917 
L 200.811952 104.543118 
L 200.859979 104.483917 
L 200.926015 104.66152 
L 200.965037 104.602319 
L 200.977043 104.691121 
L 201.037077 104.66152 
L 201.127126 104.750322 
L 201.190161 104.809524 
L 201.214174 104.691121 
L 201.238188 104.750322 
L 201.316231 104.572719 
L 201.274208 104.779923 
L 201.355252 104.63192 
L 201.427292 104.691121 
L 201.445302 104.572719 
L 201.466314 104.66152 
L 201.562367 104.513517 
L 201.580377 104.572719 
L 202.084655 104.483917 
L 202.102665 104.543118 
L 202.204722 104.395115 
L 202.207723 104.483917 
L 202.300775 104.276712 
L 202.312781 104.306313 
L 202.432848 104.069508 
L 202.441853 104.128709 
L 202.462864 104.099109 
L 202.564921 104.247112 
L 202.715003 104.276712 
L 202.823063 104.395115 
L 202.826065 104.365514 
L 202.940128 104.276712 
L 202.83507 104.395115 
L 202.943129 104.306313 
L 202.949133 104.335914 
L 203.006164 104.18791 
L 203.042184 104.18791 
L 203.096214 104.099109 
L 203.210277 103.980706 
L 203.243295 104.010307 
L 203.309332 103.862304 
L 203.315335 103.921505 
L 203.537458 104.010307 
L 203.627508 104.099109 
L 203.651521 104.039907 
L 203.654522 104.010307 
L 203.747574 104.18791 
L 203.756579 104.099109 
L 203.822615 104.039907 
L 203.933677 103.891904 
L 203.936678 103.951105 
L 204.020725 103.891904 
L 204.116778 103.803102 
L 204.131786 103.891904 
L 204.39293 103.980706 
L 204.503992 104.15831 
L 204.519 104.128709 
L 204.693096 104.18791 
L 204.804158 104.365514 
L 204.810161 104.306313 
L 204.894207 104.276712 
L 204.924224 104.365514 
L 205.02628 104.217511 
L 205.041289 104.247112 
L 205.050293 104.306313 
L 205.092317 104.128709 
L 205.143345 104.15831 
L 205.20638 104.069508 
L 205.257408 104.128709 
L 205.284423 104.039907 
L 205.299431 104.069508 
L 205.413494 103.862304 
L 205.425501 103.951105 
L 205.464522 103.803102 
L 205.524555 103.862304 
L 205.704655 103.951105 
L 205.824721 104.128709 
L 205.719663 103.891904 
L 205.830725 104.099109 
L 205.887756 104.010307 
L 205.884754 104.128709 
L 205.941786 104.099109 
L 206.043842 104.18791 
L 206.055849 104.15831 
L 206.067856 104.18791 
L 206.172914 104.069508 
L 206.20293 104.128709 
L 206.277972 103.951105 
L 206.280973 104.010307 
L 206.407043 103.803102 
L 206.410045 103.832703 
L 206.536114 103.980706 
L 206.674191 104.069508 
L 206.701205 104.010307 
L 206.791255 104.18791 
L 206.848287 104.069508 
L 206.905318 104.128709 
L 207.004373 104.247112 
L 207.019381 104.217511 
L 207.085418 104.128709 
L 207.196479 104.039907 
L 207.091421 104.18791 
L 207.202482 104.069508 
L 207.28953 103.980706 
L 207.409597 103.862304 
L 207.502648 104.039907 
L 207.529663 103.980706 
L 207.54167 104.010307 
L 207.646728 103.862304 
L 207.673743 103.951105 
L 207.745783 103.832703 
L 207.757789 103.862304 
L 207.763792 103.891904 
L 207.883859 103.7143 
L 207.916877 103.773502 
L 207.985915 103.655099 
L 207.991919 103.6847 
L 208.105982 103.566297 
L 208.108983 103.595898 
L 208.142001 103.655099 
L 208.148005 103.536697 
L 208.214041 103.566297 
L 208.235053 103.595898 
L 208.334108 103.477495 
L 208.46618 103.566297 
L 208.562234 103.595898 
L 208.478187 103.507096 
L 208.571239 103.566297 
L 208.57424 103.507096 
L 208.619265 103.625499 
L 208.679298 103.625499 
L 208.814373 103.7143 
L 208.919431 103.803102 
L 208.862399 103.6847 
L 208.925434 103.7143 
L 209.042499 103.803102 
L 209.15356 103.891904 
L 209.048502 103.773502 
L 209.159564 103.862304 
L 209.417706 103.951105 
L 209.537772 104.128709 
L 209.579796 104.099109 
L 209.606811 104.217511 
L 209.64283 104.18791 
L 209.717872 104.335914 
L 209.756894 104.276712 
L 209.780907 104.335914 
L 209.852947 104.395115 
L 209.795915 104.276712 
L 209.888966 104.335914 
L 209.903975 104.276712 
L 209.915981 104.395115 
L 209.991023 104.395115 
L 210.066064 104.454316 
L 210.015036 104.335914 
L 210.105086 104.424715 
L 210.108088 104.365514 
L 210.189132 104.602319 
L 210.207142 104.543118 
L 210.255169 104.602319 
L 210.285185 104.454316 
L 210.3122 104.483917 
L 210.447275 104.217511 
L 210.561338 104.306313 
L 210.762449 104.217511 
L 210.822482 104.306313 
L 210.876512 104.18791 
L 210.90953 104.306313 
L 210.882515 104.15831 
L 210.987573 104.217511 
L 211.074621 104.010307 
L 211.104638 104.099109 
L 211.299746 104.039907 
L 211.41681 103.832703 
L 211.530873 103.921505 
L 211.765003 103.862304 
L 211.768004 103.803102 
L 211.816031 103.951105 
L 211.876064 103.862304 
L 212.038154 103.921505 
L 212.146213 104.039907 
L 212.059165 103.891904 
L 212.152217 103.980706 
L 212.245268 104.039907 
L 212.182233 103.921505 
L 212.260276 103.980706 
L 212.323311 103.891904 
L 212.341321 104.039907 
L 212.365334 104.010307 
L 212.368336 104.039907 
L 212.440376 103.832703 
L 212.461388 103.862304 
L 212.566446 103.7143 
L 212.467391 103.891904 
L 212.584456 103.743901 
L 212.680509 103.832703 
L 212.689514 103.803102 
L 212.806578 104.010307 
L 212.890625 103.951105 
L 212.908635 104.039907 
L 212.920641 103.980706 
L 212.93565 103.951105 
L 213.037706 104.128709 
L 213.043709 104.069508 
L 213.115749 104.276712 
L 213.142764 104.247112 
L 213.277839 104.15831 
L 213.343875 104.039907 
L 213.295848 104.217511 
L 213.397905 104.069508 
L 213.403908 104.099109 
L 213.493958 103.921505 
L 213.809132 103.980706 
L 213.818137 104.069508 
L 213.863162 103.921505 
L 213.923195 104.039907 
L 214.043261 103.832703 
L 214.145318 103.891904 
L 214.1123 103.803102 
L 214.151321 103.862304 
L 214.190343 103.773502 
L 214.202349 103.891904 
L 214.259381 103.862304 
L 214.262382 103.921505 
L 214.319414 103.743901 
L 214.370442 103.862304 
L 214.418469 103.980706 
L 214.38545 103.832703 
L 214.490508 103.951105 
L 214.532532 103.862304 
L 214.595566 103.980706 
L 214.607573 103.891904 
L 214.63759 103.862304 
L 214.721636 104.010307 
L 214.799679 103.921505 
L 214.751653 104.069508 
L 214.832697 104.010307 
L 214.943759 104.069508 
L 215.057822 104.18791 
L 215.10885 104.15831 
L 215.117855 104.276712 
L 215.16288 104.247112 
L 215.165882 104.276712 
L 215.219911 104.128709 
L 215.267938 104.18791 
L 215.348983 104.128709 
L 215.366993 104.247112 
L 215.378999 104.18791 
L 215.412018 104.276712 
L 215.475052 104.128709 
L 215.487059 104.18791 
L 215.556097 104.128709 
L 215.502067 104.217511 
L 215.59812 104.18791 
L 215.721188 104.395115 
L 215.727192 104.365514 
L 215.763212 104.424715 
L 215.85026 104.513517 
L 215.77822 104.365514 
L 215.874273 104.424715 
L 215.985334 104.483917 
L 216.099397 104.306313 
L 216.102399 104.335914 
L 216.105401 104.365514 
L 216.189447 104.217511 
L 216.201454 104.217511 
L 216.345533 104.128709 
L 216.402565 104.18791 
L 216.462598 104.039907 
L 216.510624 104.15831 
L 216.576661 104.069508 
L 216.639696 104.15831 
L 216.741752 104.276712 
L 216.645699 104.099109 
L 216.75676 104.247112 
L 216.870823 104.15831 
L 216.765765 104.276712 
L 216.873825 104.18791 
L 217.023908 104.217511 
L 217.071934 104.335914 
L 217.029911 104.18791 
L 217.131968 104.217511 
L 217.146976 104.276712 
L 217.261039 104.039907 
L 217.387109 104.247112 
L 217.39011 104.18791 
L 217.456147 104.395115 
L 217.492167 104.365514 
L 217.525185 104.424715 
L 217.537191 104.395115 
L 217.639248 104.513517 
L 217.810342 104.543118 
L 217.921404 104.691121 
L 217.924405 104.63192 
L 217.981437 104.691121 
L 218.017457 104.572719 
L 218.032465 104.602319 
L 218.152531 104.543118 
L 218.245583 104.365514 
L 218.269596 104.395115 
L 218.272598 104.454316 
L 218.320624 104.335914 
L 218.380657 104.395115 
L 218.488717 104.247112 
L 218.497722 104.276712 
L 218.614787 104.217511 
L 218.644803 104.099109 
L 218.725848 104.15831 
L 218.72885 104.18791 
L 218.785881 104.039907 
L 218.830906 104.128709 
L 218.956976 103.891904 
L 218.959977 103.951105 
L 219.020011 103.891904 
L 219.137075 103.7143 
L 219.143079 103.773502 
L 219.221122 103.536697 
L 219.239132 103.536697 
L 219.242133 103.566297 
L 219.317175 103.299892 
L 219.332183 103.359093 
L 219.440243 103.270291 
L 219.389215 103.388694 
L 219.443244 103.299892 
L 219.524289 103.388694 
L 219.482266 103.270291 
L 219.551304 103.270291 
L 219.713394 103.24069 
L 219.7254 103.151889 
L 219.818452 103.329492 
L 219.821453 103.299892 
L 219.917506 103.24069 
L 219.884488 103.329492 
L 219.932515 103.299892 
L 220.004555 103.329492 
L 220.007556 103.418294 
L 220.046578 103.24069 
L 220.109613 103.270291 
L 220.187656 103.122288 
L 220.223676 103.181489 
L 220.493825 103.092687 
L 220.50283 103.122288 
L 220.622896 102.915084 
L 220.869032 102.855882 
L 220.893045 102.885483 
L 220.983095 102.707879 
L 220.986097 102.76708 
L 221.085151 102.559876 
L 221.088153 102.589477 
L 221.127175 102.530275 
L 221.256246 102.145467 
L 221.265251 102.175068 
L 221.343294 101.908662 
L 221.409331 101.879062 
L 221.526395 101.612656 
L 221.529397 101.671857 
L 221.622448 101.494253 
L 221.631453 101.494253 
L 221.69749 101.435052 
L 221.805549 101.31665 
L 221.811553 101.375851 
L 221.910607 101.31665 
L 221.817556 101.435052 
L 221.922614 101.375851 
L 222.051685 101.405452 
L 222.159745 101.553455 
L 222.165748 101.523854 
L 222.16875 101.553455 
L 222.195765 101.405452 
L 222.264803 101.435052 
L 222.267805 101.405452 
L 222.357855 101.612656 
L 222.360856 101.583055 
L 222.516942 101.612656 
L 222.519944 101.701458 
L 222.531951 101.583055 
L 222.628004 101.642257 
L 222.646014 101.612656 
L 222.718054 101.760659 
L 222.721055 101.760659 
L 222.811105 101.908662 
L 222.736063 101.731058 
L 222.83812 101.879062 
L 222.904156 101.849461 
L 222.85613 101.908662 
L 222.949181 101.879062 
L 223.057241 101.967863 
L 223.168302 102.204668 
L 223.189314 102.175068 
L 223.29137 102.086266 
L 223.330392 101.967863 
L 223.38142 102.115867 
L 223.402432 102.056665 
L 223.618551 101.967863 
L 223.627556 101.938263 
L 223.714604 102.086266 
L 223.720607 102.056665 
L 224.152846 101.967863 
L 224.266909 101.760659 
L 224.272912 101.79026 
L 224.335947 101.701458 
L 224.338949 101.671857 
L 224.419994 101.79026 
L 224.441005 101.731058 
L 224.453012 101.671857 
L 224.573078 101.938263 
L 224.690143 101.79026 
L 224.696146 101.81986 
L 224.717158 101.79026 
L 224.837224 102.145467 
L 224.858236 102.056665 
L 224.915267 102.204668 
L 224.951287 102.115867 
L 225.086362 102.382272 
L 225.203426 102.26387 
L 225.506594 102.204668 
L 225.524604 102.115867 
L 225.542614 102.26387 
L 225.614654 102.234269 
L 225.851785 102.323071 
L 225.980856 102.530275 
L 226.043891 102.411873 
L 226.091917 102.530275 
L 226.178965 102.589477 
L 226.287025 102.73748 
L 226.293028 102.678279 
L 226.305035 102.73748 
L 226.410093 102.589477 
L 226.467125 102.648678 
L 226.479131 102.500675 
L 226.521154 102.589477 
L 226.569181 102.441473 
L 226.638219 102.471074 
L 226.659231 102.500675 
L 226.737274 102.382272 
L 226.740275 102.411873 
L 226.788302 102.323071 
L 226.827324 102.500675 
L 226.845333 102.471074 
L 226.950392 102.619077 
L 226.968401 102.589477 
L 226.989413 102.648678 
L 227.082464 102.500675 
L 227.145499 102.589477 
L 227.187523 102.471074 
L 227.190524 102.500675 
L 227.304587 102.29347 
L 227.316594 102.352672 
L 227.45467 102.323071 
L 227.571735 102.086266 
L 227.59875 101.997464 
L 227.721818 101.81986 
L 227.724819 101.849461 
L 227.808866 101.908662 
L 227.820872 101.967863 
L 227.856892 101.79026 
L 227.919927 101.908662 
L 228.045997 101.731058 
L 228.097025 101.879062 
L 228.157058 101.760659 
L 228.277124 101.494253 
L 228.310143 101.435052 
L 228.430209 101.168647 
L 228.361171 101.464653 
L 228.433211 101.198247 
L 228.66734 101.287049 
L 228.787406 101.435052 
L 228.718368 101.257448 
L 228.790408 101.405452 
L 228.895466 101.34625 
L 228.820425 101.494253 
L 228.898468 101.375851 
L 228.901469 101.435052 
L 228.949496 101.257448 
L 229.003526 101.31665 
L 229.015532 101.287049 
L 229.045549 101.405452 
L 229.108584 101.375851 
L 229.315698 101.31665 
L 229.3187 101.257448 
L 229.363725 101.405452 
L 229.423758 101.287049 
L 229.537821 101.435052 
L 229.540823 101.405452 
L 229.660889 101.31665 
L 229.723924 101.168647 
L 229.783957 101.198247 
L 229.831983 101.227848 
L 229.849993 101.050244 
L 229.88001 101.109445 
L 229.892017 101.020643 
L 229.979065 101.227848 
L 229.982066 101.227848 
L 229.985068 101.257448 
L 230.018086 101.139046 
L 230.084123 101.139046 
L 230.204189 101.168647 
L 230.291237 101.287049 
L 230.31525 101.168647 
L 230.438318 101.435052 
L 230.450325 101.405452 
L 230.660441 101.494253 
L 230.672448 101.464653 
L 230.792514 101.701458 
L 230.795516 101.671857 
L 230.879562 101.879062 
L 230.888567 101.849461 
L 230.924587 101.879062 
L 231.011635 101.967863 
L 231.023642 101.849461 
L 231.035648 101.879062 
L 231.221751 101.79026 
L 231.242763 101.81986 
L 231.338816 101.731058 
L 231.410856 101.849461 
L 231.45588 101.79026 
L 231.58195 101.612656 
L 231.629977 101.671857 
L 231.623973 101.553455 
L 231.69001 101.612656 
L 231.756046 101.435052 
L 231.810076 101.523854 
L 231.852099 101.464653 
L 231.891121 101.34625 
L 231.945151 101.553455 
L 231.957157 101.494253 
L 232.065217 101.642257 
L 232.07122 101.583055 
L 232.155267 101.494253 
L 232.2153 101.31665 
L 232.164272 101.523854 
L 232.266328 101.435052 
L 232.383393 101.583055 
L 232.515466 101.523854 
L 232.518467 101.464653 
L 232.566494 101.583055 
L 232.623525 101.553455 
L 232.719579 101.464653 
L 232.767605 101.405452 
L 232.815632 101.523854 
L 232.824637 101.523854 
L 232.827638 101.553455 
L 232.863658 101.34625 
L 232.92069 101.405452 
L 232.9387 101.435052 
L 233.037754 101.287049 
L 233.061768 101.31665 
L 233.124802 101.139046 
L 233.136809 101.168647 
L 233.163824 101.227848 
L 233.253874 101.079845 
L 233.289894 101.168647 
L 233.352928 101.020643 
L 233.361933 101.050244 
L 233.418965 100.961442 
L 233.482 100.813439 
L 233.430972 100.991043 
L 233.533028 100.84304 
L 233.542033 100.931842 
L 233.581054 100.813439 
L 233.644089 100.87264 
L 233.653094 100.813439 
L 233.686112 100.931842 
L 233.749147 100.931842 
L 233.830192 101.109445 
L 233.770159 100.87264 
L 233.869214 101.050244 
L 233.93525 100.902241 
L 233.89923 101.079845 
L 233.980275 100.991043 
L 234.100341 101.079845 
L 234.109346 101.050244 
L 234.127356 101.198247 
L 234.211403 101.079845 
L 234.223409 101.168647 
L 234.304454 100.931842 
L 234.313459 100.931842 
L 234.352481 100.991043 
L 234.361486 101.079845 
L 234.463542 100.991043 
L 234.574603 101.079845 
L 234.490557 100.902241 
L 234.577605 101.020643 
L 234.607622 101.109445 
L 234.718683 101.227848 
L 234.724686 101.198247 
L 234.805731 101.109445 
L 234.742696 101.227848 
L 234.832746 101.198247 
L 234.865764 101.139046 
L 234.961817 101.375851 
L 235.144918 101.405452 
L 235.23797 101.553455 
L 235.258981 101.523854 
L 235.376046 101.375851 
L 235.388053 101.405452 
L 235.466096 101.168647 
L 235.469097 101.227848 
L 235.58316 100.902241 
L 235.595167 100.931842 
L 235.679213 100.724637 
L 235.721237 100.754238 
L 235.832298 100.902241 
L 235.766262 100.695037 
L 235.838301 100.87264 
L 235.940358 100.961442 
L 236.045416 101.079845 
L 235.946361 100.902241 
L 236.054421 101.020643 
L 236.138467 100.961442 
L 236.084437 101.079845 
L 236.16248 101.020643 
L 236.23452 101.109445 
L 236.246527 100.991043 
L 236.276543 101.050244 
L 236.327572 100.931842 
L 236.372597 101.109445 
L 236.384603 101.079845 
L 236.531684 101.139046 
L 236.546693 101.198247 
L 236.624736 101.079845 
L 236.642746 101.139046 
L 236.75981 100.991043 
L 236.88588 101.139046 
L 236.969927 101.227848 
L 237.08399 101.34625 
L 237.201054 101.227848 
L 237.276096 101.405452 
L 237.315117 101.287049 
L 237.384155 101.464653 
L 237.435184 101.405452 
L 237.44719 101.34625 
L 237.525233 101.494253 
L 237.53724 101.464653 
L 237.546245 101.435052 
L 237.654305 101.523854 
L 237.657306 101.464653 
L 237.672315 101.553455 
L 237.765366 101.523854 
L 237.885432 101.731058 
L 237.894437 101.671857 
L 237.91845 101.79026 
L 237.993492 101.760659 
L 238.023509 101.731058 
L 238.110557 101.849461 
L 238.212613 101.731058 
L 238.221618 101.760659 
L 238.245631 101.849461 
L 238.320673 101.612656 
L 238.326676 101.671857 
L 238.425731 101.435052 
L 238.458749 101.464653 
L 238.806941 101.464653 
L 238.918003 101.583055 
L 238.921004 101.553455 
L 239.014056 101.701458 
L 239.023061 101.612656 
L 239.14913 101.760659 
L 239.323227 101.671857 
L 239.416278 101.642257 
L 239.332231 101.731058 
L 239.428285 101.671857 
L 239.536344 101.731058 
L 239.473309 101.642257 
L 239.539346 101.671857 
L 239.659412 101.81986 
L 239.662414 101.79026 
L 239.767472 101.731058 
L 239.671419 101.81986 
L 239.770474 101.760659 
L 239.842513 101.879062 
L 239.812497 101.731058 
L 239.884537 101.81986 
L 240.013608 101.997464 
L 240.139678 101.81986 
L 240.232729 101.879062 
L 240.160689 101.760659 
L 240.250739 101.849461 
L 240.3618 101.938263 
L 240.367804 101.997464 
L 240.436842 101.849461 
L 240.466858 101.879062 
L 240.746012 101.79026 
L 240.863077 101.671857 
L 240.92311 101.731058 
L 240.953127 101.642257 
L 240.971137 101.642257 
L 241.094205 101.701458 
L 241.163243 101.849461 
L 241.21127 101.81986 
L 241.319329 101.731058 
L 241.226278 101.849461 
L 241.328334 101.760659 
L 241.376361 101.879062 
L 241.427389 101.731058 
L 241.439396 101.81986 
L 241.487422 101.731058 
L 241.445399 101.849461 
L 241.550457 101.81986 
L 241.55646 101.79026 
L 241.670523 101.938263 
L 241.778583 101.81986 
L 241.688533 101.967863 
L 241.784586 101.908662 
L 241.829611 101.81986 
L 241.952679 101.612656 
L 241.955681 101.642257 
L 242.003707 101.671857 
L 241.973691 101.583055 
L 242.06374 101.612656 
L 242.162795 101.464653 
L 242.180805 101.494253 
L 242.522994 101.583055 
L 242.550009 101.523854 
L 242.640059 101.642257 
L 242.862182 101.583055 
L 242.892198 101.523854 
L 242.952231 101.701458 
L 242.970241 101.642257 
L 243.039279 101.553455 
L 243.144337 101.435052 
L 243.054288 101.583055 
L 243.153342 101.494253 
L 243.156344 101.523854 
L 243.249395 101.375851 
L 243.252397 101.405452 
L 243.38447 101.109445 
L 243.387472 101.139046 
L 243.40248 101.198247 
L 243.465515 100.961442 
L 243.480523 100.961442 
L 243.525548 100.902241 
L 243.648616 100.576634 
L 243.651618 100.606235 
L 243.720656 100.576634 
L 243.801701 100.458232 
L 243.834719 100.487832 
L 243.92777 100.517433 
L 243.87374 100.428631 
L 243.94578 100.487832 
L 244.005813 100.310228 
L 244.07185 100.339829 
L 244.149893 100.39903 
L 244.164901 100.251027 
L 244.176908 100.280628 
L 244.185913 100.251027 
L 244.188914 100.162225 
L 244.272961 100.339829 
L 244.293972 100.280628 
L 244.360009 100.310228 
L 244.378019 100.191826 
L 244.396029 100.191826 
L 244.522098 100.043823 
L 244.627157 99.955021 
L 244.720208 99.747816 
L 244.744221 99.836618 
L 244.753226 99.807018 
L 244.873292 100.014222 
L 244.918317 100.073423 
L 245.035382 100.280628 
L 245.038384 100.221427 
L 245.113425 100.39903 
L 245.14044 100.39903 
L 245.146443 100.36943 
L 245.224486 100.517433 
L 245.242496 100.458232 
L 245.287521 100.635835 
L 245.356559 100.576634 
L 245.485631 100.36943 
L 245.506642 100.458232 
L 245.584685 100.310228 
L 245.596692 100.36943 
L 245.650722 100.310228 
L 245.6117 100.428631 
L 245.698748 100.428631 
L 245.830821 100.724637 
L 245.713757 100.39903 
L 245.836825 100.695037 
L 246.079959 100.635835 
L 246.142994 100.724637 
L 246.19102 100.576634 
L 246.28107 100.665436 
L 246.305083 100.606235 
L 246.338102 100.547033 
L 246.374122 100.695037 
L 246.40714 100.606235 
L 246.413143 100.695037 
L 246.494188 100.458232 
L 246.509196 100.487832 
L 246.629263 100.221427 
L 247.07651 100.280628 
L 247.136543 100.339829 
L 247.109528 100.251027 
L 247.187571 100.280628 
L 247.241601 100.221427 
L 247.274619 100.36943 
L 247.292629 100.339829 
L 247.322646 100.36943 
L 247.382679 100.191826 
L 247.391684 100.221427 
L 247.43971 100.132625 
L 247.45772 100.251027 
L 247.496742 100.221427 
L 247.6018 100.339829 
L 247.610805 100.280628 
L 247.733873 100.132625 
L 247.742878 100.191826 
L 247.817919 100.043823 
L 247.835929 100.073423 
L 247.889959 99.92542 
L 247.949992 100.043823 
L 248.03704 100.132625 
L 248.067057 100.103024 
L 248.085067 100.132625 
L 248.193126 99.955021 
L 248.268168 99.866219 
L 248.301186 99.89582 
L 248.400241 99.659015 
L 248.403242 99.688615 
L 248.487289 99.481411 
L 248.499296 99.540612 
L 248.628367 99.244606 
L 248.63437 99.274206 
L 248.721418 99.363008 
L 248.655382 99.215005 
L 248.751435 99.333408 
L 248.81447 99.392609 
L 248.928533 99.45181 
L 249.048599 99.599813 
L 249.051601 99.540612 
L 249.147654 99.777417 
L 249.150655 99.747816 
L 249.19568 99.659015 
L 249.318748 99.42221 
L 249.4118 99.333408 
L 249.474834 99.363008 
L 249.549876 99.067002 
L 249.675946 99.215005 
L 249.732977 99.155804 
L 249.765995 99.096603 
L 249.835033 99.303807 
L 249.877057 99.244606 
L 249.880058 99.185405 
L 249.910075 99.303807 
L 249.985116 99.244606 
L 250.003126 99.303807 
L 250.072164 99.155804 
L 250.093176 99.215005 
L 250.132198 99.126203 
L 250.231252 99.037401 
L 250.150208 99.155804 
L 250.246261 99.067002 
L 250.306294 99.126203 
L 250.3183 99.007801 
L 250.357322 99.067002 
L 250.369329 99.007801 
L 250.42636 99.185405 
L 250.459378 99.155804 
L 250.58845 99.363008 
L 250.594453 99.333408 
L 250.669494 99.570213 
L 250.681501 99.540612 
L 250.768549 99.629414 
L 250.789561 99.599813 
L 250.891617 99.807018 
L 250.894619 99.747816 
L 250.975664 99.955021 
L 250.993674 99.955021 
L 251.026692 99.984621 
L 251.029693 100.073423 
L 251.071717 99.92542 
L 251.137753 100.043823 
L 251.278831 99.599813 
L 251.284834 99.629414 
L 251.287836 99.688615 
L 251.323856 99.481411 
L 251.386891 99.481411 
L 251.600008 99.42221 
L 251.687057 99.333408 
L 251.63903 99.481411 
L 251.71107 99.363008 
L 251.81913 99.45181 
L 251.744088 99.333408 
L 251.828134 99.42221 
L 251.849146 99.363008 
L 251.924188 99.570213 
L 251.930191 99.511011 
L 252.008234 99.629414 
L 252.044254 99.570213 
L 252.284387 99.511011 
L 252.383441 99.333408 
L 252.29039 99.540612 
L 252.39845 99.42221 
L 252.497504 99.363008 
L 252.611567 99.185405 
L 252.620572 99.274206 
L 252.677604 99.096603 
L 252.713624 99.155804 
L 252.755647 99.007801 
L 252.821683 99.215005 
L 252.827687 99.244606 
L 252.965763 98.889398 
L 252.97777 98.9486 
L 253.046808 98.652593 
L 253.064818 98.652593 
L 253.079826 98.682194 
L 253.187886 98.415788 
L 253.214901 98.356587 
L 253.34097 98.00138 
L 253.385995 98.060581 
L 253.446028 97.882977 
L 253.548085 97.794175 
L 253.55709 97.853376 
L 253.650141 97.882977 
L 253.608118 97.764575 
L 253.665149 97.853376 
L 253.773209 97.823776 
L 253.692164 97.912578 
L 253.776211 97.853376 
L 253.881269 97.764575 
L 253.932297 97.734974 
L 253.968317 97.912578 
L 253.986327 97.823776 
L 254.094386 97.912578 
L 254.043358 97.794175 
L 254.097388 97.853376 
L 254.169428 97.912578 
L 254.280489 98.03098 
L 254.193441 97.882977 
L 254.283491 98.00138 
L 254.334519 97.912578 
L 254.412562 97.971779 
L 254.442579 97.882977 
L 254.4816 97.942178 
L 254.541633 97.734974 
L 254.547637 97.794175 
L 254.595663 97.734974 
L 254.71573 97.52777 
L 254.721733 97.586971 
L 254.721733 97.586971 
" clip-path="url(#p665aefde7a)" style="fill: none; stroke: #000000; stroke-opacity: 0.5; stroke-width: 1.5; stroke-linecap: square"/>
   </g>
   <g id="patch_3">
    <path d="M 41.667188 176.395679 
L 41.667188 10.075679 
" style="fill: none; stroke: #000000; stroke-width: 0.8; stroke-linejoin: miter; stroke-linecap: square"/>
   </g>
   <g id="patch_4">
    <path d="M 41.667188 176.395679 
L 264.867188 176.395679 
" style="fill: none; stroke: #000000; stroke-width: 0.8; stroke-linejoin: miter; stroke-linecap: square"/>
   </g>
  </g>
 </g>
 <defs>
  <clipPath id="p665aefde7a">
   <rect x="41.667188" y="10.075679" width="223.2" height="166.32"/>
  </clipPath>
 </defs>
</svg>
