<?xml version="1.0" encoding="utf-8" standalone="no"?>
<!DOCTYPE svg PUBLIC "-//W3C//DTD SVG 1.1//EN"
  "http://www.w3.org/Graphics/SVG/1.1/DTD/svg11.dtd">
<svg xmlns:xlink="http://www.w3.org/1999/xlink" width="272.067187pt" height="197.398125pt" viewBox="0 0 272.067187 197.398125" xmlns="http://www.w3.org/2000/svg" version="1.1">
 <metadata>
  <rdf:RDF xmlns:dc="http://purl.org/dc/elements/1.1/" xmlns:cc="http://creativecommons.org/ns#" xmlns:rdf="http://www.w3.org/1999/02/22-rdf-syntax-ns#">
   <cc:Work>
    <dc:type rdf:resource="http://purl.org/dc/dcmitype/StillImage"/>
    <dc:date>2025-12-19T12:09:58.886240</dc:date>
    <dc:format>image/svg+xml</dc:format>
    <dc:creator>
     <cc:Agent>
      <dc:title>Matplotlib v3.10.7, https://matplotlib.org/</dc:title>
     </cc:Agent>
    </dc:creator>
   </cc:Work>
  </rdf:RDF>
 </metadata>
 <defs>
  <style type="text/css">*{stroke-linejoin: round; stroke-linecap: butt}</style>
 </defs>
 <g id="figure_1">
  <g id="patch_1">
   <path d="M 0 197.398125 
L 272.067187 197.398125 
L 272.067187 0 
L 0 0 
z
" style="fill: #ffffff"/>
  </g>
  <g id="axes_1">
   <g id="patch_2">
    <path d="M 41.667188 173.52 
L 264.867188 173.52 
L 264.867188 7.2 
L 41.667188 7.2 
z
" style="fill: #ffffff"/>
   </g>
   <g id="matplotlib.axis_1">
    <g id="xtick_1">
     <g id="line2d_1">
      <defs>
       <path id="m29af0394ee" d="M 0 0 
L 0 3.5 
" style="stroke: #000000; stroke-width: 0.8"/>
      </defs>
      <g>
       <use xlink:href="#m29af0394ee" x="87.83254" y="173.52" style="stroke: #000000; stroke-width: 0.8"/>
      </g>
     </g>
     <g id="text_1">
      <!-- 1 -->
      <g transform="translate(84.65129 188.118438) scale(0.1 -0.1)">
       <defs>
        <path id="DejaVuSans-31" d="M 794 531 
L 1825 531 
L 1825 4091 
L 703 3866 
L 703 4441 
L 1819 4666 
L 2450 4666 
L 2450 531 
L 3481 531 
L 3481 0 
L 794 0 
L 794 531 
z
" transform="scale(0.015625)"/>
       </defs>
       <use xlink:href="#DejaVuSans-31"/>
      </g>
     </g>
    </g>
    <g id="xtick_2">
     <g id="line2d_2">
      <g>
       <use xlink:href="#m29af0394ee" x="147.865704" y="173.52" style="stroke: #000000; stroke-width: 0.8"/>
      </g>
     </g>
     <g id="text_2">
      <!-- 2 -->
      <g transform="translate(144.684454 188.118438) scale(0.1 -0.1)">
       <defs>
        <path id="DejaVuSans-32" d="M 1228 531 
L 3431 531 
L 3431 0 
L 469 0 
L 469 531 
Q 828 903 1448 1529 
Q 2069 2156 2228 2338 
Q 2531 2678 2651 2914 
Q 2772 3150 2772 3378 
Q 2772 3750 2511 3984 
Q 2250 4219 1831 4219 
Q 1534 4219 1204 4116 
Q 875 4013 500 3803 
L 500 4441 
Q 881 4594 1212 4672 
Q 1544 4750 1819 4750 
Q 2544 4750 2975 4387 
Q 3406 4025 3406 3419 
Q 3406 3131 3298 2873 
Q 3191 2616 2906 2266 
Q 2828 2175 2409 1742 
Q 1991 1309 1228 531 
z
" transform="scale(0.015625)"/>
       </defs>
       <use xlink:href="#DejaVuSans-32"/>
      </g>
     </g>
    </g>
    <g id="xtick_3">
     <g id="line2d_3">
      <g>
       <use xlink:href="#m29af0394ee" x="207.898867" y="173.52" style="stroke: #000000; stroke-width: 0.8"/>
      </g>
     </g>
     <g id="text_3">
      <!-- 3 -->
      <g transform="translate(204.717617 188.118438) scale(0.1 -0.1)">
       <defs>
        <path id="DejaVuSans-33" d="M 2597 2516 
Q 3050 2419 3304 2112 
Q 3559 1806 3559 1356 
Q 3559 666 3084 287 
Q 2609 -91 1734 -91 
Q 1441 -91 1130 -33 
Q 819 25 488 141 
L 488 750 
Q 750 597 1062 519 
Q 1375 441 1716 441 
Q 2309 441 2620 675 
Q 2931 909 2931 1356 
Q 2931 1769 2642 2001 
Q 2353 2234 1838 2234 
L 1294 2234 
L 1294 2753 
L 1863 2753 
Q 2328 2753 2575 2939 
Q 2822 3125 2822 3475 
Q 2822 3834 2567 4026 
Q 2313 4219 1838 4219 
Q 1578 4219 1281 4162 
Q 984 4106 628 3988 
L 628 4550 
Q 988 4650 1302 4700 
Q 1616 4750 1894 4750 
Q 2613 4750 3031 4423 
Q 3450 4097 3450 3541 
Q 3450 3153 3228 2886 
Q 3006 2619 2597 2516 
z
" transform="scale(0.015625)"/>
       </defs>
       <use xlink:href="#DejaVuSans-33"/>
      </g>
     </g>
    </g>
   </g>
   <g id="matplotlib.axis_2">
    <g id="ytick_1">
     <g id="line2d_4">
      <defs>
       <path id="m6eb19ad37a" d="M 0 0 
L -3.5 0 
" style="stroke: #000000; stroke-width: 0.8"/>
      </defs>
      <g>
       <use xlink:href="#m6eb19ad37a" x="41.667188" y="164.396098" style="stroke: #000000; stroke-width: 0.8"/>
      </g>
     </g>
     <g id="text_4">
      <!-- −100 -->
      <g transform="translate(7.2 168.195317) scale(0.1 -0.1)">
       <defs>
        <path id="DejaVuSans-2212" d="M 678 2272 
L 4684 2272 
L 4684 1741 
L 678 1741 
L 678 2272 
z
" transform="scale(0.015625)"/>
        <path id="DejaVuSans-30" d="M 2034 4250 
Q 1547 4250 1301 3770 
Q 1056 3291 1056 2328 
Q 1056 1369 1301 889 
Q 1547 409 2034 409 
Q 2525 409 2770 889 
Q 3016 1369 3016 2328 
Q 3016 3291 2770 3770 
Q 2525 4250 2034 4250 
z
M 2034 4750 
Q 2819 4750 3233 4129 
Q 3647 3509 3647 2328 
Q 3647 1150 3233 529 
Q 2819 -91 2034 -91 
Q 1250 -91 836 529 
Q 422 1150 422 2328 
Q 422 3509 836 4129 
Q 1250 4750 2034 4750 
z
" transform="scale(0.015625)"/>
       </defs>
       <use xlink:href="#DejaVuSans-2212"/>
       <use xlink:href="#DejaVuSans-31" transform="translate(83.789062 0)"/>
       <use xlink:href="#DejaVuSans-30" transform="translate(147.412109 0)"/>
       <use xlink:href="#DejaVuSans-30" transform="translate(211.035156 0)"/>
      </g>
     </g>
    </g>
    <g id="ytick_2">
     <g id="line2d_5">
      <g>
       <use xlink:href="#m6eb19ad37a" x="41.667188" y="141.720943" style="stroke: #000000; stroke-width: 0.8"/>
      </g>
     </g>
     <g id="text_5">
      <!-- −80 -->
      <g transform="translate(13.5625 145.520161) scale(0.1 -0.1)">
       <defs>
        <path id="DejaVuSans-38" d="M 2034 2216 
Q 1584 2216 1326 1975 
Q 1069 1734 1069 1313 
Q 1069 891 1326 650 
Q 1584 409 2034 409 
Q 2484 409 2743 651 
Q 3003 894 3003 1313 
Q 3003 1734 2745 1975 
Q 2488 2216 2034 2216 
z
M 1403 2484 
Q 997 2584 770 2862 
Q 544 3141 544 3541 
Q 544 4100 942 4425 
Q 1341 4750 2034 4750 
Q 2731 4750 3128 4425 
Q 3525 4100 3525 3541 
Q 3525 3141 3298 2862 
Q 3072 2584 2669 2484 
Q 3125 2378 3379 2068 
Q 3634 1759 3634 1313 
Q 3634 634 3220 271 
Q 2806 -91 2034 -91 
Q 1263 -91 848 271 
Q 434 634 434 1313 
Q 434 1759 690 2068 
Q 947 2378 1403 2484 
z
M 1172 3481 
Q 1172 3119 1398 2916 
Q 1625 2713 2034 2713 
Q 2441 2713 2670 2916 
Q 2900 3119 2900 3481 
Q 2900 3844 2670 4047 
Q 2441 4250 2034 4250 
Q 1625 4250 1398 4047 
Q 1172 3844 1172 3481 
z
" transform="scale(0.015625)"/>
       </defs>
       <use xlink:href="#DejaVuSans-2212"/>
       <use xlink:href="#DejaVuSans-38" transform="translate(83.789062 0)"/>
       <use xlink:href="#DejaVuSans-30" transform="translate(147.412109 0)"/>
      </g>
     </g>
    </g>
    <g id="ytick_3">
     <g id="line2d_6">
      <g>
       <use xlink:href="#m6eb19ad37a" x="41.667188" y="119.045787" style="stroke: #000000; stroke-width: 0.8"/>
      </g>
     </g>
     <g id="text_6">
      <!-- −60 -->
      <g transform="translate(13.5625 122.845006) scale(0.1 -0.1)">
       <defs>
        <path id="DejaVuSans-36" d="M 2113 2584 
Q 1688 2584 1439 2293 
Q 1191 2003 1191 1497 
Q 1191 994 1439 701 
Q 1688 409 2113 409 
Q 2538 409 2786 701 
Q 3034 994 3034 1497 
Q 3034 2003 2786 2293 
Q 2538 2584 2113 2584 
z
M 3366 4563 
L 3366 3988 
Q 3128 4100 2886 4159 
Q 2644 4219 2406 4219 
Q 1781 4219 1451 3797 
Q 1122 3375 1075 2522 
Q 1259 2794 1537 2939 
Q 1816 3084 2150 3084 
Q 2853 3084 3261 2657 
Q 3669 2231 3669 1497 
Q 3669 778 3244 343 
Q 2819 -91 2113 -91 
Q 1303 -91 875 529 
Q 447 1150 447 2328 
Q 447 3434 972 4092 
Q 1497 4750 2381 4750 
Q 2619 4750 2861 4703 
Q 3103 4656 3366 4563 
z
" transform="scale(0.015625)"/>
       </defs>
       <use xlink:href="#DejaVuSans-2212"/>
       <use xlink:href="#DejaVuSans-36" transform="translate(83.789062 0)"/>
       <use xlink:href="#DejaVuSans-30" transform="translate(147.412109 0)"/>
      </g>
     </g>
    </g>
    <g id="ytick_4">
     <g id="line2d_7">
      <g>
       <use xlink:href="#m6eb19ad37a" x="41.667188" y="96.370631" style="stroke: #000000; stroke-width: 0.8"/>
      </g>
     </g>
     <g id="text_7">
      <!-- −40 -->
      <g transform="translate(13.5625 100.16985) scale(0.1 -0.1)">
       <defs>
        <path id="DejaVuSans-34" d="M 2419 4116 
L 825 1625 
L 2419 1625 
L 2419 4116 
z
M 2253 4666 
L 3047 4666 
L 3047 1625 
L 3713 1625 
L 3713 1100 
L 3047 1100 
L 3047 0 
L 2419 0 
L 2419 1100 
L 313 1100 
L 313 1709 
L 2253 4666 
z
" transform="scale(0.015625)"/>
       </defs>
       <use xlink:href="#DejaVuSans-2212"/>
       <use xlink:href="#DejaVuSans-34" transform="translate(83.789062 0)"/>
       <use xlink:href="#DejaVuSans-30" transform="translate(147.412109 0)"/>
      </g>
     </g>
    </g>
    <g id="ytick_5">
     <g id="line2d_8">
      <g>
       <use xlink:href="#m6eb19ad37a" x="41.667188" y="73.695476" style="stroke: #000000; stroke-width: 0.8"/>
      </g>
     </g>
     <g id="text_8">
      <!-- −20 -->
      <g transform="translate(13.5625 77.494695) scale(0.1 -0.1)">
       <use xlink:href="#DejaVuSans-2212"/>
       <use xlink:href="#DejaVuSans-32" transform="translate(83.789062 0)"/>
       <use xlink:href="#DejaVuSans-30" transform="translate(147.412109 0)"/>
      </g>
     </g>
    </g>
    <g id="ytick_6">
     <g id="line2d_9">
      <g>
       <use xlink:href="#m6eb19ad37a" x="41.667188" y="51.02032" style="stroke: #000000; stroke-width: 0.8"/>
      </g>
     </g>
     <g id="text_9">
      <!-- 0 -->
      <g transform="translate(28.304688 54.819539) scale(0.1 -0.1)">
       <use xlink:href="#DejaVuSans-30"/>
      </g>
     </g>
    </g>
    <g id="ytick_7">
     <g id="line2d_10">
      <g>
       <use xlink:href="#m6eb19ad37a" x="41.667188" y="28.345165" style="stroke: #000000; stroke-width: 0.8"/>
      </g>
     </g>
     <g id="text_10">
      <!-- 20 -->
      <g transform="translate(21.942188 32.144384) scale(0.1 -0.1)">
       <use xlink:href="#DejaVuSans-32"/>
       <use xlink:href="#DejaVuSans-30" transform="translate(63.623047 0)"/>
      </g>
     </g>
    </g>
   </g>
   <g id="line2d_11">
    <path d="M 51.812642 125.236339 
L 51.929707 125.374737 
L 51.821647 125.201739 
L 51.932708 125.340137 
L 51.944715 125.374737 
L 52.04377 125.270938 
L 52.067783 125.340137 
L 52.118811 125.201739 
L 52.154831 125.270938 
L 52.271896 125.13254 
L 52.172841 125.305538 
L 52.274897 125.16714 
L 52.536042 125.063341 
L 52.62309 124.959542 
L 52.548048 125.13254 
L 52.650105 125.028741 
L 52.710138 125.063341 
L 52.749159 124.924943 
L 52.758164 124.994142 
L 52.893239 124.890343 
L 52.995295 124.959542 
L 53.007302 124.786545 
L 53.109358 124.959542 
L 53.121365 124.924943 
L 53.217418 124.855744 
L 53.145378 124.959542 
L 53.229425 124.959542 
L 53.340486 125.063341 
L 53.355494 125.028741 
L 53.454549 125.16714 
L 53.475561 125.201739 
L 53.568612 125.097941 
L 53.577617 125.16714 
L 53.640652 125.028741 
L 53.676672 125.063341 
L 53.787733 124.924943 
L 53.760718 125.13254 
L 53.793736 124.994142 
L 53.823753 124.959542 
L 53.85377 125.028741 
L 53.937816 124.855744 
L 54.042874 124.959542 
L 54.003853 124.786545 
L 54.048877 124.890343 
L 54.150934 124.682746 
L 54.174947 124.717346 
L 54.189955 124.821144 
L 54.255992 124.682746 
L 54.283007 124.751945 
L 54.295013 124.682746 
L 54.32503 124.821144 
L 54.391066 124.751945 
L 54.46911 124.959542 
L 54.409076 124.717346 
L 54.511133 124.890343 
L 54.613189 124.751945 
L 54.553156 124.924943 
L 54.628197 124.786545 
L 54.634201 124.855744 
L 54.670221 124.717346 
L 54.736257 124.751945 
L 54.823305 124.717346 
L 54.826307 124.613547 
L 54.862327 124.751945 
L 54.934367 124.682746 
L 55.37561 124.613547 
L 55.468662 124.544348 
L 55.432642 124.648146 
L 55.48367 124.613547 
L 55.570718 124.717346 
L 55.516688 124.544348 
L 55.597733 124.648146 
L 56.02697 124.751945 
L 56.120022 124.890343 
L 56.035975 124.717346 
L 56.141033 124.821144 
L 56.222078 124.648146 
L 56.261099 124.682746 
L 56.342144 124.821144 
L 56.318131 124.648146 
L 56.372161 124.751945 
L 56.387169 124.786545 
L 56.486224 124.682746 
L 56.71435 124.751945 
L 56.753371 124.924943 
L 56.825411 124.786545 
L 56.828413 124.751945 
L 56.870436 124.924943 
L 56.927468 124.821144 
L 57.047534 125.028741 
L 57.13158 124.924943 
L 57.158595 124.959542 
L 57.272658 125.097941 
L 57.305677 125.028741 
L 57.323686 125.201739 
L 57.380718 125.097941 
L 57.500784 125.270938 
L 57.389723 125.063341 
L 57.503786 125.236339 
L 57.599839 125.13254 
L 57.698894 125.028741 
L 57.7109 125.097941 
L 57.773935 125.028741 
L 57.85498 128.038902 
L 58.062094 134.716613 
L 58.296224 139.006957 
L 58.932575 145.096476 
L 58.935577 145.061876 
L 59.001613 145.58087 
L 59.223736 146.895652 
L 59.226738 146.861053 
L 59.301779 147.241648 
L 59.304781 147.207048 
L 59.478877 147.933638 
L 59.496887 148.002838 
L 59.62896 148.487231 
L 59.649972 148.59103 
L 59.800054 149.144622 
L 59.806058 149.110023 
L 59.818064 149.075423 
L 59.884101 149.386819 
L 59.893106 149.386819 
L 59.899109 149.35222 
L 60.04619 149.905812 
L 60.0642 149.871213 
L 60.124234 150.148009 
L 60.13624 150.07881 
L 60.250303 150.355606 
L 60.148247 150.044211 
L 60.256306 150.321007 
L 60.26231 150.286407 
L 60.340353 150.528604 
L 60.349358 150.494005 
L 60.499441 151.012998 
L 60.502442 150.978398 
L 60.586489 151.082197 
L 60.682542 151.289794 
L 60.709557 151.255195 
L 60.718562 151.220595 
L 60.799607 151.393593 
L 60.811613 151.358993 
L 60.844631 151.497391 
L 60.832625 151.324394 
L 60.925676 151.428192 
L 61.006721 151.531991 
L 61.096771 151.774188 
L 61.126787 151.739588 
L 61.225842 151.843387 
L 61.231845 151.808787 
L 61.34891 152.016384 
L 61.396937 151.947185 
L 61.450966 152.154783 
L 61.453968 152.154783 
L 61.523006 152.258581 
L 61.634068 152.36238 
L 61.535013 152.223982 
L 61.640071 152.32778 
L 61.775146 152.36238 
L 61.778147 152.466178 
L 61.841182 152.293181 
L 61.886207 152.396979 
L 62.309441 152.466178 
L 62.411497 152.673776 
L 62.426505 152.639176 
L 62.984814 152.535378 
L 63.008827 152.466178 
L 62.990817 152.604577 
L 63.095875 152.500778 
L 63.21294 152.639176 
L 63.311995 152.535378 
L 63.324001 152.639176 
L 63.435062 152.846773 
L 63.444067 152.812174 
L 63.55813 152.673776 
L 63.591149 152.812174 
L 63.564134 152.639176 
L 63.678197 152.777574 
L 63.942343 152.742975 
L 63.945344 152.639176 
L 64.026389 152.812174 
L 64.053404 152.742975 
L 64.056406 152.812174 
L 64.146455 152.604577 
L 64.161464 152.673776 
L 64.26352 152.708375 
L 64.362575 152.812174 
L 64.374582 152.742975 
L 64.47964 152.812174 
L 64.383586 152.708375 
L 64.485643 152.777574 
L 64.509656 152.673776 
L 64.494648 152.812174 
L 64.596704 152.708375 
L 64.704764 152.812174 
L 64.614714 152.673776 
L 64.707766 152.777574 
L 64.797815 152.673776 
L 64.821829 152.708375 
L 64.905875 152.777574 
L 64.926887 152.569977 
L 64.956903 152.742975 
L 65.046953 152.673776 
L 65.185029 152.569977 
L 65.215046 152.639176 
L 65.296091 152.535378 
L 65.344117 152.708375 
L 65.410154 152.604577 
L 65.455178 152.708375 
L 65.434167 152.569977 
L 65.524217 152.639176 
L 65.557235 152.535378 
L 65.650286 152.223982 
L 65.689308 152.293181 
L 65.827384 152.189382 
L 65.863404 152.223982 
L 65.941447 152.120183 
L 65.944449 152.189382 
L 65.98347 152.050984 
L 66.049507 152.085584 
L 66.058512 152.120183 
L 66.172575 151.912586 
L 66.289639 152.016384 
L 66.301646 151.912586 
L 66.334664 152.085584 
L 66.397699 152.050984 
L 66.493752 152.154783 
L 66.514764 152.120183 
L 66.610817 152.016384 
L 66.5808 152.154783 
L 66.628827 152.050984 
L 66.712873 151.947185 
L 66.736886 152.085584 
L 66.829938 151.843387 
L 66.850949 151.877986 
L 66.959009 151.981785 
L 66.947003 151.843387 
L 66.962011 151.912586 
L 67.1241 151.981785 
L 67.220153 152.120183 
L 67.238163 152.085584 
L 67.463288 152.154783 
L 67.514316 152.258581 
L 67.565344 152.120183 
L 67.574349 152.154783 
L 67.661397 152.050984 
L 67.763454 151.947185 
L 67.676405 152.085584 
L 67.772459 151.981785 
L 67.88352 152.085584 
L 67.850502 151.877986 
L 67.889523 152.050984 
L 68.198694 152.154783 
L 68.291745 152.223982 
L 68.222707 152.120183 
L 68.309755 152.189382 
L 68.3908 152.120183 
L 68.33677 152.32778 
L 68.417815 152.223982 
L 68.486853 152.258581 
L 68.501861 152.120183 
L 68.528876 152.223982 
L 68.651944 152.085584 
L 68.817036 152.085584 
L 68.910087 152.293181 
L 68.928097 152.154783 
L 69.04216 152.258581 
L 69.054167 152.223982 
L 69.165228 152.396979 
L 69.171231 152.32778 
L 69.258279 152.500778 
L 69.270286 152.466178 
L 69.375344 152.604577 
L 69.285294 152.431579 
L 69.387351 152.535378 
L 69.822591 152.431579 
L 69.963669 145.477071 
L 70.25483 139.249153 
L 70.257832 139.318352 
L 70.323868 138.314966 
L 70.332873 138.245767 
L 70.557997 135.616201 
L 70.567002 135.512403 
L 70.969225 132.121648 
L 70.972226 132.156247 
L 71.035261 131.706453 
L 71.041264 131.741053 
L 71.182342 131.014462 
L 71.212359 130.910664 
L 71.37745 130.114874 
L 71.386455 130.149474 
L 71.389457 130.184073 
L 71.473503 129.872677 
L 71.479506 129.941876 
L 71.629589 129.492082 
L 71.632591 129.526682 
L 71.704631 129.319085 
L 71.725642 129.319085 
L 71.731646 129.353684 
L 71.863719 128.973089 
L 71.86672 129.111487 
L 71.965775 128.730892 
L 71.968777 128.730892 
L 72.019805 128.661693 
L 72.145875 128.281098 
L 72.148876 128.350297 
L 72.235924 128.038902 
L 72.244929 128.038902 
L 72.325974 127.935103 
L 72.461049 127.623707 
L 72.46405 127.658307 
L 72.530087 127.485309 
L 72.563105 127.519908 
L 72.695178 127.277712 
L 72.704183 127.312311 
L 72.767218 127.139314 
L 72.794233 127.173913 
L 72.869274 127.035515 
L 72.908296 127.070114 
L 72.926306 126.966316 
L 73.001347 126.897117 
L 72.959324 127.070114 
L 73.031364 127.000915 
L 73.055377 127.035515 
L 73.067384 126.931716 
L 73.13342 126.931716 
L 73.235476 126.827918 
L 73.166438 126.966316 
L 73.247483 126.897117 
L 73.331529 126.931716 
L 73.322525 126.827918 
L 73.355543 126.897117 
L 73.439589 126.689519 
L 73.475609 126.758719 
L 73.550651 126.827918 
L 73.496621 126.689519 
L 73.580667 126.689519 
L 73.682724 126.585721 
L 73.790783 126.378124 
L 73.805791 126.412723 
L 73.907848 126.447323 
L 73.835808 126.308924 
L 73.913851 126.378124 
L 73.958876 126.412723 
L 74.027914 126.308924 
L 74.111961 126.378124 
L 74.120966 126.239725 
L 74.138976 126.308924 
L 74.168992 126.239725 
L 74.20201 126.412723 
L 74.23803 126.378124 
L 74.32808 126.481922 
L 74.271049 126.343524 
L 74.349092 126.412723 
L 74.619241 126.343524 
L 74.724299 126.239725 
L 74.676272 126.378124 
L 74.733304 126.274325 
L 74.859374 126.101327 
L 74.883387 126.239725 
L 74.955427 126.066728 
L 74.967433 126.066728 
L 75.213569 126.170526 
L 75.249589 126.239725 
L 75.255592 126.066728 
L 75.324631 126.205126 
L 75.39667 126.066728 
L 75.345642 126.239725 
L 75.43269 126.205126 
L 75.531745 126.239725 
L 75.447699 126.135927 
L 75.537748 126.135927 
L 75.549755 126.205126 
L 75.651811 126.101327 
L 75.753868 126.135927 
L 75.732856 125.997529 
L 75.762873 126.101327 
L 75.786886 126.066728 
L 75.858926 126.239725 
L 75.861927 126.205126 
L 75.960982 126.274325 
L 75.92196 126.135927 
L 75.972989 126.205126 
L 76.021015 126.239725 
L 76.099058 126.032128 
L 76.177101 125.92833 
L 76.219125 125.824531 
L 76.291164 125.89373 
L 76.405227 126.066728 
L 76.315178 125.85913 
L 76.411231 125.997529 
L 76.531297 125.89373 
L 76.534299 125.85913 
L 76.621347 126.066728 
L 76.62735 126.032128 
L 76.68138 126.101327 
L 76.654365 125.997529 
L 76.738412 126.066728 
L 76.783436 125.962929 
L 76.792441 125.89373 
L 76.858478 126.066728 
L 76.888494 126.032128 
L 76.891496 126.066728 
L 76.918511 125.92833 
L 76.993552 125.997529 
L 77.047582 125.85913 
L 77.110617 125.92833 
L 77.140634 125.997529 
L 77.221678 126.101327 
L 77.233685 125.92833 
L 77.251695 125.997529 
L 77.36876 125.720732 
L 77.434796 125.85913 
L 77.452806 125.686133 
L 77.479821 125.720732 
L 77.533851 125.755332 
L 77.560866 125.582334 
L 77.578876 125.582334 
L 77.740965 125.478535 
L 77.846023 125.374737 
L 77.74997 125.547735 
L 77.855028 125.409336 
L 77.882043 125.478535 
L 77.945078 125.305538 
L 77.963088 125.374737 
L 78.02012 125.270938 
L 78.026123 125.305538 
L 78.131181 125.201739 
L 78.194216 125.305538 
L 78.206222 125.16714 
L 78.242242 125.270938 
L 78.323287 125.270938 
L 78.41934 125.409336 
L 78.434348 125.374737 
L 78.479373 125.340137 
L 78.518395 125.513135 
L 78.536405 125.478535 
L 78.629456 125.582334 
L 78.614448 125.409336 
L 78.650468 125.513135 
L 78.887599 125.582334 
L 78.992657 125.686133 
L 78.941629 125.513135 
L 78.995658 125.616934 
L 78.99866 125.547735 
L 79.067698 125.755332 
L 79.100717 125.651533 
L 79.12473 125.720732 
L 79.14274 125.616934 
L 79.211778 125.686133 
L 79.319838 125.547735 
L 79.217781 125.720732 
L 79.328843 125.616934 
L 79.472922 125.720732 
L 79.54196 125.824531 
L 79.481927 125.686133 
L 79.583983 125.720732 
L 79.851131 125.789931 
L 79.893154 125.89373 
L 79.923171 125.686133 
L 79.959191 125.720732 
L 79.983204 125.651533 
L 80.079257 125.85913 
L 80.172308 125.789931 
L 80.12128 125.89373 
L 80.190318 125.85913 
L 80.250352 125.92833 
L 80.298378 125.824531 
L 80.358411 125.962929 
L 80.409439 125.85913 
L 80.628561 125.92833 
L 80.742624 126.032128 
L 81.162856 125.92833 
L 81.22589 125.89373 
L 81.237897 125.997529 
L 81.267914 125.962929 
L 81.381977 126.066728 
L 81.27992 125.92833 
L 81.384978 126.032128 
L 81.420998 126.101327 
L 81.53206 126.205126 
L 81.535061 126.135927 
L 81.622109 126.308924 
L 81.640119 126.239725 
L 81.745177 126.135927 
L 81.832225 125.997529 
L 81.760186 126.205126 
L 81.862242 126.032128 
L 81.871247 126.101327 
L 81.916272 125.962929 
L 81.970302 125.997529 
L 82.156405 126.066728 
L 82.195426 125.962929 
L 82.267466 126.135927 
L 82.360517 126.205126 
L 82.384531 126.032128 
L 82.501595 126.308924 
L 82.513602 126.239725 
L 82.591645 126.205126 
L 82.552623 126.308924 
L 82.61866 126.239725 
L 82.723718 126.308924 
L 82.693701 126.205126 
L 82.729721 126.274325 
L 83.065907 126.378124 
L 83.16196 126.447323 
L 83.07191 126.343524 
L 83.176968 126.378124 
L 83.249008 126.308924 
L 83.291031 126.447323 
L 83.378079 126.343524 
L 83.402093 126.378124 
L 83.429108 126.481922 
L 83.477134 126.274325 
L 83.513154 126.378124 
L 83.624215 126.170526 
L 83.630219 126.239725 
L 83.765293 126.308924 
L 83.768295 126.378124 
L 83.828328 126.239725 
L 83.873353 126.308924 
L 83.882358 126.343524 
L 83.999423 126.101327 
L 84.080467 126.170526 
L 84.011429 126.066728 
L 84.110484 126.101327 
L 84.122491 126.032128 
L 84.170517 126.205126 
L 84.215542 126.101327 
L 84.323602 126.308924 
L 84.332607 126.274325 
L 84.377632 126.170526 
L 84.437665 126.378124 
L 84.440666 126.308924 
L 84.548726 126.447323 
L 84.476686 126.274325 
L 84.560733 126.412723 
L 84.701811 126.343524 
L 84.818875 126.205126 
L 85.146056 126.308924 
L 85.221098 126.343524 
L 85.170069 126.239725 
L 85.257117 126.308924 
L 85.302142 126.343524 
L 85.37118 126.170526 
L 85.434215 126.412723 
L 85.494248 126.343524 
L 85.590301 126.170526 
L 85.614315 126.239725 
L 85.680351 126.135927 
L 85.716371 126.101327 
L 85.719373 126.205126 
L 85.791413 126.135927 
L 85.890467 126.343524 
L 85.908477 126.274325 
L 85.926487 126.378124 
L 85.992524 126.205126 
L 86.016537 126.239725 
L 86.295691 126.135927 
L 86.400749 126.032128 
L 86.307698 126.205126 
L 86.409754 126.101327 
L 86.679903 125.997529 
L 86.78196 125.92833 
L 86.778958 126.101327 
L 86.790965 125.962929 
L 86.905028 126.066728 
L 87.013087 125.85913 
L 87.022092 125.92833 
L 87.100136 125.824531 
L 87.211197 125.720732 
L 87.112142 125.85913 
L 87.214199 125.755332 
L 87.439323 125.824531 
L 87.508361 125.962929 
L 87.553386 125.89373 
L 87.625426 125.720732 
L 87.667449 125.824531 
L 87.799522 125.92833 
L 87.817532 125.89373 
L 87.838543 127.589108 
L 88.066669 139.768146 
L 88.276786 145.54627 
L 88.691014 152.535378 
L 88.697018 152.604577 
L 88.916139 155.095744 
L 88.928145 155.130343 
L 89.078228 156.514325 
L 89.093237 156.618124 
L 89.411412 159.005492 
L 89.426421 159.109291 
L 89.432424 159.074691 
L 89.573502 159.93968 
L 89.579505 159.90508 
L 89.645542 160.320275 
L 89.651545 160.320275 
L 89.777615 160.977666 
L 89.780616 160.943066 
L 89.945707 161.565858 
L 89.948709 161.531259 
L 90.029754 161.877254 
L 90.035757 161.842654 
L 90.194845 162.534645 
L 90.20385 162.500046 
L 90.272888 162.880641 
L 90.27589 162.846041 
L 90.443983 163.538032 
L 90.449986 163.468833 
L 90.531031 163.780229 
L 90.6571 164.022426 
L 90.537034 163.745629 
L 90.660102 163.987826 
L 90.687117 164.091625 
L 90.744149 164.022426 
L 90.807183 164.195423 
L 90.849207 164.264622 
L 90.972275 164.576018 
L 91.011296 164.679817 
L 91.143369 164.922014 
L 91.425525 165.025812 
L 91.455542 164.956613 
L 91.539588 165.095011 
L 91.584613 165.060412 
L 91.575608 165.164211 
L 91.647648 165.129611 
L 91.875774 165.23341 
L 92.001843 165.510206 
L 92.007847 165.475606 
L 92.12191 165.544805 
L 92.130915 165.510206 
L 92.238974 165.752403 
L 92.280998 165.648604 
L 92.335027 165.787002 
L 92.350036 165.752403 
L 92.452092 165.821602 
L 92.383054 165.683204 
L 92.464099 165.787002 
L 92.560152 165.890801 
L 92.584165 165.9254 
L 92.608178 165.787002 
L 92.66521 165.821602 
L 92.788278 165.579405 
L 92.794281 165.614005 
L 92.857316 165.717803 
L 92.917349 165.821602 
L 92.929356 165.648604 
L 92.965376 165.717803 
L 93.022407 165.614005 
L 93.04642 165.787002 
L 93.076437 165.717803 
L 93.157482 165.787002 
L 93.166487 165.752403 
L 93.271545 165.9254 
L 93.319571 165.856201 
L 93.292556 165.96 
L 93.385608 165.890801 
L 93.439638 165.96 
L 93.478659 165.787002 
L 93.490666 165.856201 
L 93.613734 165.614005 
L 93.511677 165.890801 
L 93.616735 165.648604 
L 93.619737 165.683204 
L 93.712788 165.475606 
L 93.844861 165.371808 
L 93.967929 165.23341 
L 93.997946 165.164211 
L 94.118012 164.852815 
L 94.24108 164.645217 
L 94.130019 164.887414 
L 94.244082 164.679817 
L 94.2771 164.679817 
L 94.310118 164.47222 
L 94.391163 164.541419 
L 94.502225 164.403021 
L 94.433186 164.645217 
L 94.508228 164.47222 
L 94.520235 164.43762 
L 94.637299 164.160824 
L 94.778377 163.745629 
L 94.781379 163.814828 
L 94.865425 163.538032 
L 94.880434 163.538032 
L 94.955475 163.434233 
L 95.084546 163.226636 
L 95.132573 163.122838 
L 95.147581 163.192037 
L 95.255641 162.94984 
L 95.267647 163.019039 
L 95.357697 162.846041 
L 95.360699 162.880641 
L 95.483767 162.534645 
L 95.576818 162.569245 
L 95.498775 162.465446 
L 95.591827 162.500046 
L 95.738908 162.084851 
L 95.765923 161.981053 
L 95.931014 161.323661 
L 95.949024 161.39286 
L 96.003054 161.150664 
L 96.030069 161.219863 
L 96.144132 160.977666 
L 96.156138 161.012265 
L 96.15914 161.046865 
L 96.234181 160.804668 
L 96.252191 160.839268 
L 96.297216 160.735469 
L 96.417283 160.424073 
L 96.432291 160.458673 
L 96.462307 160.354874 
L 96.585375 160.147277 
L 96.468311 160.389474 
L 96.588377 160.181876 
L 96.621395 160.112677 
L 96.741462 159.766682 
L 96.744463 159.801281 
L 96.831511 159.697483 
L 96.930566 159.420686 
L 96.951578 159.455286 
L 96.960583 159.524485 
L 97.029621 159.282288 
L 97.047631 159.282288 
L 97.071644 159.17849 
L 97.20972 158.867094 
L 97.24574 158.763295 
L 97.254745 158.797895 
L 97.380815 158.486499 
L 97.536901 158.3827 
L 97.647962 158.140503 
L 97.662971 158.175103 
L 97.680981 158.209703 
L 97.744015 157.932906 
L 97.75302 157.967506 
L 97.882092 157.517712 
L 97.894098 157.552311 
L 97.96914 157.275515 
L 97.975143 157.344714 
L 98.146238 156.652723 
L 98.182258 156.548924 
L 98.329339 156.064531 
L 98.335342 156.13373 
L 98.407382 155.891533 
L 98.431395 155.926133 
L 98.563468 155.683936 
L 98.578476 155.753135 
L 98.629505 155.545538 
L 98.665524 155.580137 
L 98.689538 155.510938 
L 98.815607 155.164943 
L 98.917664 155.061144 
L 99.040732 154.749748 
L 99.067747 154.784348 
L 99.100765 154.61135 
L 99.139786 154.64595 
L 99.277863 154.334554 
L 99.349903 154.265355 
L 99.466967 153.953959 
L 99.472971 153.988558 
L 99.602042 153.780961 
L 99.683087 153.711762 
L 99.812158 153.227368 
L 99.821163 153.331167 
L 99.884198 153.054371 
L 99.917216 153.08897 
L 100.049289 152.846773 
L 100.073302 152.881373 
L 100.130334 152.569977 
L 100.136337 152.569977 
L 100.151345 152.466178 
L 100.361461 151.324394 
L 100.364463 151.358993 
L 100.427498 151.047597 
L 100.454513 151.116796 
L 100.571577 150.736201 
L 100.649621 150.632403 
L 100.772689 150.424805 
L 100.77569 150.494005 
L 100.862738 150.182609 
L 100.877747 150.286407 
L 100.994811 150.009611 
L 101.00982 150.044211 
L 101.093866 149.940412 
L 101.099869 149.975011 
L 101.228941 149.663616 
L 101.246951 149.698215 
L 101.327995 149.559817 
L 101.333999 149.629016 
L 101.454065 149.31762 
L 101.469073 149.35222 
L 101.574131 149.283021 
L 101.613153 149.179222 
L 101.652174 149.35222 
L 101.682191 149.35222 
L 101.796254 149.248421 
L 101.850284 149.144622 
L 101.811262 149.283021 
L 101.913319 149.179222 
L 101.928327 149.075423 
L 101.940334 149.144622 
L 102.048393 148.937025 
L 102.147448 149.040824 
L 102.159455 148.971625 
L 102.288526 148.867826 
L 102.294529 148.902426 
L 102.414596 148.660229 
L 102.486635 148.764027 
L 102.528659 148.729428 
L 102.642722 148.59103 
L 102.672738 148.625629 
L 102.726768 148.418032 
L 102.744778 148.487231 
L 102.816818 148.383432 
L 102.924877 148.141236 
L 102.933882 148.175835 
L 102.948891 148.210435 
L 103.011926 147.968238 
L 103.032937 148.037437 
L 103.047945 148.072037 
L 103.168012 147.726041 
L 103.195027 147.82984 
L 103.261063 147.622243 
L 103.264065 147.622243 
L 103.276071 147.656842 
L 103.384131 147.380046 
L 103.393136 147.449245 
L 103.420151 147.310847 
L 103.492191 147.345446 
L 103.606254 147.103249 
L 103.612257 147.137849 
L 103.711312 146.930252 
L 103.738327 146.964851 
L 103.819372 146.861053 
L 103.936436 146.688055 
L 103.939438 146.722654 
L 104.002473 146.549657 
L 104.035491 146.549657 
L 104.158559 146.30746 
L 104.050499 146.584256 
L 104.161561 146.376659 
L 104.206585 146.30746 
L 104.317647 146.134462 
L 104.320648 146.203661 
L 104.365673 146.134462 
L 104.470731 146.065263 
L 104.4137 146.169062 
L 104.476735 146.134462 
L 104.548775 146.169062 
L 104.560781 146.030664 
L 104.578791 146.065263 
L 104.587796 146.099863 
L 104.695856 145.996064 
L 104.698857 146.065263 
L 104.761892 145.823066 
L 104.797912 145.857666 
L 104.932987 145.58087 
L 104.935988 145.650069 
L 105.020035 145.477071 
L 105.038045 145.477071 
L 105.146104 145.200275 
L 105.170118 145.234874 
L 105.209139 145.165675 
L 105.329206 144.81968 
L 105.335209 144.888879 
L 105.473285 144.439085 
L 105.476287 144.473684 
L 105.548327 144.196888 
L 105.566337 144.266087 
L 105.692406 143.850892 
L 105.69841 143.885492 
L 105.773451 143.608696 
L 105.779454 143.608696 
L 105.842489 143.331899 
L 105.911527 143.366499 
L 105.938542 143.2973 
L 106.046602 143.124302 
L 105.959554 143.366499 
L 106.055607 143.158902 
L 106.112638 143.055103 
L 106.250715 142.709108 
L 106.25972 142.778307 
L 106.316751 142.639908 
L 106.361776 142.709108 
L 106.397796 142.605309 
L 106.511859 142.397712 
L 106.520864 142.432311 
L 106.523866 142.466911 
L 106.541876 142.328513 
L 106.625922 142.432311 
L 106.745988 142.155515 
L 106.754993 142.190114 
L 106.830035 141.982517 
L 106.842041 142.017117 
L 106.884065 142.086316 
L 106.965109 141.878719 
L 107.043152 141.844119 
L 107.160217 141.532723 
L 107.16622 141.601922 
L 107.226254 141.428924 
L 107.265275 141.463524 
L 107.340317 141.498124 
L 107.38234 141.290526 
L 107.448376 141.394325 
L 107.424363 141.255927 
L 107.493401 141.359725 
L 107.622472 140.875332 
L 107.637481 140.944531 
L 107.697514 140.806133 
L 107.730532 140.875332 
L 107.850598 140.633135 
L 107.859603 140.667735 
L 107.973666 140.563936 
L 108.108741 140.25254 
L 108.129753 140.28714 
L 108.195789 140.079542 
L 108.204794 140.114142 
L 108.330864 139.698947 
L 108.333865 139.733547 
L 108.390897 139.49135 
L 108.43292 139.595149 
L 108.453932 139.49135 
L 108.583003 139.076156 
L 108.59501 139.145355 
L 108.598011 139.179954 
L 108.688061 139.006957 
L 108.700068 139.076156 
L 108.835142 138.76476 
L 108.862157 138.833959 
L 108.928194 138.626362 
L 108.931195 138.626362 
L 108.9402 138.73016 
L 109.054263 138.487963 
L 109.111295 138.384165 
L 109.240366 138.141968 
L 109.279388 138.176568 
L 109.324413 137.934371 
L 109.339421 138.038169 
L 109.450482 137.865172 
L 109.459487 137.899771 
L 109.462489 137.934371 
L 109.543534 137.692174 
L 109.552539 137.692174 
L 109.68161 137.380778 
L 109.684612 137.415378 
L 109.69962 137.449977 
L 109.774661 137.276979 
L 109.786668 137.311579 
L 109.936751 136.792586 
L 109.963766 136.896384 
L 110.017796 136.723387 
L 110.044811 136.757986 
L 110.083832 136.688787 
L 110.215905 136.204394 
L 110.326966 136.065995 
L 110.233915 136.238993 
L 110.329968 136.100595 
L 110.33297 136.169794 
L 110.429023 135.962197 
L 110.435026 136.065995 
L 110.561096 135.6854 
L 110.657149 135.581602 
L 110.792224 135.201007 
L 110.798227 135.235606 
L 110.801228 135.270206 
L 110.885275 134.99341 
L 110.888277 134.99341 
L 110.927298 134.889611 
L 111.050366 134.543616 
L 111.053368 134.578215 
L 111.134413 134.301419 
L 111.143418 134.336018 
L 111.260482 133.920824 
L 111.263484 133.990023 
L 111.34753 133.713227 
L 111.36554 133.817025 
L 111.389553 133.713227 
L 111.512621 133.574828 
L 111.61768 133.47103 
L 111.737746 133.263432 
L 111.635689 133.505629 
L 111.740747 133.332632 
L 111.788774 133.228833 
L 111.797779 133.263432 
L 111.911842 133.021236 
L 111.917845 133.090435 
L 111.995888 132.848238 
L 112.013898 132.882838 
L 112.019902 132.917437 
L 112.133965 132.779039 
L 112.145971 132.848238 
L 112.206005 132.67524 
L 112.242024 132.744439 
L 112.383102 132.640641 
L 112.515175 132.363844 
L 112.527182 132.398444 
L 112.611228 132.225446 
L 112.617232 132.260046 
L 112.680266 132.190847 
L 112.79433 132.052449 
L 112.809338 132.087048 
L 112.839354 131.879451 
L 112.887381 131.879451 
L 113.022456 131.602654 
L 113.082489 131.498856 
L 113.217563 131.083661 
L 113.223567 131.118261 
L 113.226568 131.15286 
L 113.316618 130.945263 
L 113.328625 131.049062 
L 113.508724 130.253272 
L 113.541742 130.357071 
L 113.574761 130.149474 
L 113.616784 130.184073 
L 113.706834 130.114874 
L 113.820897 129.768879 
L 113.829902 129.803478 
L 113.871925 129.69968 
L 113.988989 129.526682 
L 113.991991 129.595881 
L 114.049023 129.492082 
L 114.160084 129.249886 
L 114.178094 129.284485 
L 114.205109 129.215286 
L 114.214114 129.284485 
L 114.322174 129.007689 
L 114.325175 129.042288 
L 114.400217 128.730892 
L 114.412223 128.834691 
L 114.544296 128.315698 
L 114.604329 128.211899 
L 114.739404 127.727506 
L 114.754412 127.762105 
L 114.922505 127.692906 
L 115.02156 127.41611 
L 115.042571 127.485309 
L 115.081593 127.554508 
L 115.132621 127.41611 
L 115.153633 127.485309 
L 115.270698 127.277712 
L 115.279702 127.312311 
L 115.312721 127.208513 
L 115.327729 127.277712 
L 115.43879 127.035515 
L 115.594877 126.966316 
L 115.702936 126.724119 
L 115.60088 127.000915 
L 115.714943 126.758719 
L 115.807994 126.689519 
L 115.928061 126.481922 
L 115.979089 126.447323 
L 116.084147 126.170526 
L 116.096154 126.205126 
L 116.14418 126.101327 
L 116.28826 125.686133 
L 116.32428 125.755332 
L 116.372306 125.582334 
L 116.387314 125.582334 
L 116.519387 125.270938 
L 116.393318 125.616934 
L 116.522389 125.305538 
L 116.57942 125.201739 
L 116.70549 124.924943 
L 116.708492 124.959542 
L 116.714495 124.994142 
L 116.792538 124.648146 
L 116.79554 124.682746 
L 116.924611 124.475149 
L 116.948624 124.40595 
L 117.065689 124.163753 
L 117.140731 124.059954 
L 117.149736 124.129153 
L 117.2668 123.852357 
L 117.299818 123.886957 
L 117.35685 123.679359 
L 117.470913 123.506362 
L 117.473915 123.540961 
L 117.50093 123.61016 
L 117.575971 123.437162 
L 117.578973 123.471762 
L 117.705042 123.298764 
L 117.708044 123.333364 
L 117.789089 123.021968 
L 117.79209 123.056568 
L 117.91816 122.675973 
L 117.95418 122.710572 
L 118.014213 122.502975 
L 118.04423 122.572174 
L 118.140283 122.260778 
L 118.143284 122.329977 
L 118.233334 121.983982 
L 118.239337 122.018581 
L 118.398425 121.464989 
L 118.476468 121.36119 
L 118.593533 121.118993 
L 118.485473 121.395789 
L 118.602538 121.188192 
L 118.686585 121.084394 
L 118.797646 120.945995 
L 118.731609 121.118993 
L 118.803649 121.015195 
L 118.806651 121.049794 
L 118.896701 120.807597 
L 118.899702 120.842197 
L 119.016767 120.5654 
L 119.019769 120.6 
L 119.04078 120.6346 
L 119.097812 120.427002 
L 119.118823 120.496201 
L 119.235888 120.115606 
L 119.244893 120.150206 
L 119.313931 119.87341 
L 119.376966 119.908009 
L 119.388973 119.942609 
L 119.458011 119.631213 
L 119.467016 119.665812 
L 119.500034 119.596613 
L 119.626104 119.216018 
L 119.629105 119.285217 
L 119.716153 119.008421 
L 119.731162 119.11222 
L 119.76418 119.043021 
L 119.869238 118.800824 
L 119.881244 118.835423 
L 119.908259 118.870023 
L 119.977298 118.662426 
L 120.037331 118.697025 
L 120.121377 118.281831 
L 120.133384 118.35103 
L 120.211427 118.143432 
L 120.223433 118.178032 
L 120.277463 118.074233 
L 120.298475 118.108833 
L 120.427546 117.58984 
L 120.43355 117.659039 
L 120.511593 117.347643 
L 120.517596 117.382243 
L 120.643666 116.967048 
L 120.646667 117.036247 
L 120.736717 116.621053 
L 120.883798 116.205858 
L 120.973848 116.102059 
L 121.117928 115.34087 
L 121.30403 114.302883 
L 121.313035 114.337483 
L 121.316037 114.372082 
L 121.373069 113.922288 
L 121.388077 113.922288 
L 121.601195 112.745904 
L 121.625208 112.642105 
L 121.868342 109.562746 
L 121.874345 109.458947 
L 121.913367 107.625172 
L 121.95539 14.76 
L 122.042438 91.640183 
L 122.18952 118.558627 
L 122.438657 121.741785 
L 122.49869 121.810984 
L 122.513699 121.949382 
L 122.603748 121.707185 
L 122.60675 121.741785 
L 122.741825 121.32659 
L 122.75083 121.36119 
L 122.753831 121.395789 
L 122.831874 121.049794 
L 122.837878 121.084394 
L 122.972952 120.496201 
L 122.996966 120.392403 
L 123.198077 119.354416 
L 123.201078 119.389016 
L 123.273118 119.008421 
L 123.282123 119.043021 
L 123.402189 118.489428 
L 123.414196 118.524027 
L 123.432206 118.420229 
L 123.618309 117.520641 
L 123.621311 117.55524 
L 123.699354 117.174645 
L 123.89146 116.205858 
L 123.894461 116.240458 
L 123.957496 115.756064 
L 123.960498 115.790664 
L 124.128591 114.475881 
L 124.134594 114.441281 
L 124.266667 113.714691 
L 124.311692 113.610892 
L 124.515805 112.538307 
L 124.518806 112.572906 
L 124.587844 112.088513 
L 124.927032 106.96778 
L 124.945042 64.237346 
L 124.972057 15.832586 
L 125.0501 79.357346 
L 125.203184 115.686865 
L 125.4133 119.181419 
L 125.416302 119.146819 
L 125.48534 119.527414 
L 125.494345 119.492815 
L 125.61141 119.665812 
L 125.614412 119.631213 
L 125.740481 119.285217 
L 125.932587 118.281831 
L 125.935589 118.35103 
L 126.016634 117.866636 
L 126.025639 117.866636 
L 126.292786 116.06746 
L 126.310796 115.998261 
L 126.463881 115.029474 
L 126.484892 114.925675 
L 126.686004 113.887689 
L 126.713018 113.78389 
L 126.935141 112.469108 
L 126.938143 112.503707 
L 127.001178 111.950114 
L 127.022189 111.880915 
L 127.190282 110.531533 
L 127.220299 110.427735 
L 127.571493 105.307002 
L 127.598508 34.689336 
L 127.616518 17.181968 
L 127.688557 73.959817 
L 127.844644 113.749291 
L 128.01874 116.655652 
L 128.171824 117.209245 
L 128.288889 117.001648 
L 128.297894 117.105446 
L 128.390945 116.690252 
L 128.405954 116.655652 
L 128.532023 116.102059 
L 128.796169 114.337483 
L 128.799171 114.372082 
L 128.871211 113.956888 
L 129.138358 112.053913 
L 129.14136 112.123112 
L 129.144362 112.157712 
L 129.210398 111.673318 
L 129.2134 111.673318 
L 129.789718 104.269016 
L 129.807728 75.170801 
L 129.840746 18.081556 
L 129.915788 75.689794 
L 130.068872 112.123112 
L 130.272985 115.410069 
L 130.275987 115.30627 
L 130.342023 115.686865 
L 130.378043 115.583066 
L 130.387048 115.721465 
L 130.447081 115.479268 
L 130.486103 115.548467 
L 130.543134 115.444668 
L 130.738242 114.475881 
L 130.756252 114.372082 
L 131.002388 112.815103 
L 131.008391 112.745904 
L 131.173483 111.465721 
L 131.191492 111.396522 
L 131.359585 109.908741 
L 131.365589 109.943341 
L 131.806832 103.680824 
L 131.821841 97.660503 
L 131.863864 19.32714 
L 131.944909 77.281373 
L 132.103997 111.154325 
L 132.275091 114.026087 
L 132.284096 114.095286 
L 132.413167 114.54508 
L 132.470199 114.475881 
L 132.614278 113.680092 
L 132.644295 113.576293 
L 132.851409 112.434508 
L 132.857413 112.469108 
L 132.923449 112.019314 
L 133.115555 110.150938 
L 133.127562 110.081739 
L 133.337678 107.798169 
L 133.571807 103.95762 
L 133.592819 97.729703 
L 133.637844 20.01913 
L 133.718889 74.651808 
L 133.880978 109.735744 
L 134.058076 112.815103 
L 134.181144 113.091899 
L 134.187147 113.0573 
L 134.325224 112.711304 
L 134.331227 112.745904 
L 134.412272 112.434508 
L 134.442288 112.330709 
L 134.607379 111.085126 
L 135.402819 100.809062 
L 135.42383 72.160641 
L 135.456849 21.160915 
L 135.534892 70.880458 
L 135.699983 107.901968 
L 135.925107 111.846316 
L 135.952122 111.915515 
L 136.015157 112.226911 
L 136.069187 112.088513 
L 136.261293 111.119725 
L 136.267296 111.154325 
L 136.324328 110.635332 
L 136.32733 110.704531 
L 136.465406 109.493547 
L 136.471409 109.562746 
L 137.155787 100.393867 
L 137.173797 91.951579 
L 137.218822 21.160915 
L 137.296865 70.915057 
L 137.458955 106.794783 
L 137.672072 110.462334 
L 137.675074 110.427735 
L 137.744112 110.496934 
L 137.768126 110.566133 
L 137.822155 110.323936 
L 137.846169 110.358535 
L 138.008258 109.770343 
L 138.032271 109.666545 
L 138.206368 108.213364 
L 138.209369 108.247963 
L 138.266401 107.659771 
L 138.269402 107.694371 
L 138.497528 104.995606 
L 138.506533 104.891808 
L 138.758673 100.705263 
L 138.782686 96.276522 
L 138.836716 22.268101 
L 138.914759 72.160641 
L 139.076848 105.756796 
L 139.337993 109.493547 
L 139.346998 109.458947 
L 139.349999 109.424348 
L 139.431044 109.666545 
L 139.446052 109.562746 
L 139.473067 109.597346 
L 139.536102 109.320549 
L 139.539104 109.355149 
L 139.869286 106.829382 
L 139.881293 106.725584 
L 140.41859 99.286682 
L 140.451608 94.684943 
L 140.505638 23.06389 
L 140.586683 71.780046 
L 140.748772 104.788009 
L 141.000911 108.213364 
L 141.006915 108.178764 
L 141.03393 108.213364 
L 141.129983 108.351762 
L 141.138988 108.178764 
L 141.144991 108.213364 
L 141.376119 106.794783 
L 141.37912 106.863982 
L 141.457163 106.137391 
L 141.92242 99.494279 
L 141.970447 94.754142 
L 142.027478 24.447872 
L 142.108523 70.396064 
L 142.279618 103.438627 
L 142.546765 107.279176 
L 142.552769 107.209977 
L 142.567777 107.279176 
L 142.696848 106.829382 
L 142.69985 106.863982 
L 142.777893 106.517986 
L 142.783896 106.587185 
L 143.420248 97.971899 
L 143.456268 91.84778 
L 143.510298 25.174462 
L 143.588341 66.417117 
L 143.759435 102.020046 
L 143.954543 105.964394 
L 143.972553 106.068192 
L 144.092619 106.517986 
L 144.116633 106.448787 
L 144.188672 106.344989 
L 144.506848 103.923021 
L 144.50985 103.95762 
L 144.560878 103.300229 
L 144.966102 97.349108 
L 145.008125 94.338947 
L 145.07116 25.831854 
L 145.16121 74.375011 
L 145.326301 101.743249 
L 145.5064 104.926407 
L 145.653482 105.376201 
L 145.797561 104.580412 
L 145.812569 104.476613 
L 146.352868 97.003112 
L 146.436914 89.529611 
L 146.499949 27.285034 
L 146.574991 65.102334 
L 146.749087 100.94746 
L 146.965206 104.615011 
L 147.148307 104.511213 
L 147.8597 95.065538 
L 147.889717 88.595423 
L 147.94975 27.838627 
L 148.024791 63.718352 
L 148.201889 98.940686 
L 148.403 103.161831 
L 148.406002 103.127231 
L 148.454029 103.542426 
L 148.47504 103.542426 
L 148.553083 103.750023 
L 148.586102 103.646224 
L 148.751193 102.400641 
L 148.754194 102.43524 
L 148.808224 101.812449 
L 148.811226 101.812449 
L 149.096383 97.798902 
L 149.246466 94.823341 
L 149.342519 85.446865 
L 149.405554 31.609977 
L 149.480596 63.510755 
L 149.654692 97.591304 
L 149.921839 103.023432 
L 149.996881 102.954233 
L 150.044907 103.058032 
L 150.110944 102.850435 
L 150.152967 102.746636 
L 150.42912 100.809062 
L 150.432121 100.843661 
L 150.486151 100.255469 
L 150.489153 100.255469 
L 150.888373 89.045217 
L 150.957412 29.464805 
L 151.035455 64.133547 
L 151.212552 97.625904 
L 151.476698 102.020046 
L 151.512718 101.985446 
L 151.518722 102.020046 
L 151.578755 101.812449 
L 151.611773 101.847048 
L 151.740844 101.085858 
L 151.743846 101.120458 
L 151.779866 101.016659 
L 151.923945 99.874874 
L 152.287146 89.252815 
L 152.356184 31.298581 
L 152.434227 63.960549 
L 152.614327 95.930526 
L 152.80043 100.324668 
L 152.809435 100.255469 
L 152.887478 100.774462 
L 153.010546 101.120458 
L 153.241673 99.667277 
L 153.244675 99.701876 
L 153.25368 99.598078 
L 153.721939 92.954966 
L 153.769965 87.938032 
L 153.842005 32.094371 
L 153.917046 62.472769 
L 154.106151 95.134737 
L 154.28625 99.148284 
L 154.427328 99.944073 
L 154.43033 99.909474 
L 154.436333 99.944073 
L 154.550396 99.667277 
L 154.5564 99.632677 
L 154.697478 98.594691 
L 154.700479 98.629291 
L 154.760512 98.075698 
L 155.252784 91.259588 
L 155.327826 79.634142 
L 155.399866 34.44714 
L 155.468904 57.87103 
L 155.664012 93.40476 
L 155.928157 98.802288 
L 155.949169 98.871487 
L 156.069235 98.456293 
L 156.093249 98.352494 
L 156.360396 96.553318 
L 156.381408 96.449519 
L 156.717594 91.294188 
L 156.846665 80.914325 
L 156.924708 37.215103 
L 156.996748 58.563021 
L 157.188854 91.259588 
L 157.410977 96.449519 
L 157.504028 97.003112 
L 157.558058 96.899314 
L 157.780181 95.61913 
L 157.786184 95.549931 
L 157.975288 93.681556 
L 157.97829 93.716156 
L 158.020313 93.024165 
L 158.029318 93.058764 
L 158.284459 88.83762 
L 158.347494 83.613089 
L 158.446549 39.67167 
L 158.527593 60.915789 
L 158.73771 90.809794 
L 158.974841 95.65373 
L 158.983845 95.549931 
L 158.995852 95.65373 
L 159.04688 95.722929 
L 159.088904 95.480732 
L 159.091905 95.480732 
L 159.365056 93.577757 
L 159.368058 93.646957 
L 159.437096 92.747368 
L 159.440098 92.747368 
L 159.647212 89.425812 
L 159.821308 82.851899 
L 159.881341 62.022975 
L 159.941374 44.308009 
L 160.001408 55.518261 
L 160.211524 87.592037 
L 160.418638 93.162563 
L 160.556714 94.027551 
L 160.562718 93.958352 
L 160.601739 94.062151 
L 160.616748 94.096751 
L 160.679782 93.750755 
L 160.685786 93.785355 
L 160.859882 92.228375 
L 160.862884 92.297574 
L 160.934923 91.501785 
L 160.937925 91.501785 
L 161.175056 88.595423 
L 161.376167 84.997071 
L 161.520247 79.149748 
L 161.664326 50.29373 
L 161.721358 58.320824 
L 161.982502 87.868833 
L 162.216631 92.124577 
L 162.228638 92.089977 
L 162.297676 92.401373 
L 162.309683 92.332174 
L 162.381723 92.401373 
L 162.405736 92.159176 
L 162.417742 92.089977 
L 162.585835 90.740595 
L 162.609849 90.671396 
L 162.783945 88.422426 
L 162.79295 88.318627 
L 163.222187 76.035789 
L 163.366266 55.483661 
L 163.438306 60.84659 
L 163.756482 87.211442 
L 163.957593 90.3254 
L 163.960595 90.256201 
L 164.038638 90.567597 
L 164.056648 90.498398 
L 164.077659 90.567597 
L 164.152701 90.187002 
L 164.167709 90.083204 
L 164.326797 88.803021 
L 164.329799 88.906819 
L 164.35081 88.803021 
L 164.909119 81.087323 
L 165.188273 77.212174 
L 165.209285 77.281373 
L 165.272319 76.935378 
L 165.299334 77.246773 
L 165.302336 77.212174 
L 165.341358 77.696568 
L 165.368372 77.661968 
L 165.54547 79.980137 
L 165.878654 83.301693 
L 165.923679 83.094096 
L 165.929683 83.024897 
L 165.950694 83.232494 
L 166.022734 83.128696 
L 166.130794 83.682288 
L 166.145802 83.54389 
L 166.190827 83.440092 
L 166.23285 83.682288 
L 166.25086 83.647689 
L 166.292883 83.716888 
L 166.343911 83.959085 
L 166.39494 83.509291 
L 166.430959 83.440092 
L 166.614061 81.779314 
L 166.635072 81.675515 
L 166.995271 78.596156 
L 167.007278 78.630755 
L 167.082319 78.526957 
L 167.175371 79.288146 
L 167.304442 79.218947 
L 167.367477 79.115149 
L 167.406498 79.426545 
L 167.532568 80.083936 
L 167.562585 79.980137 
L 167.676648 79.599542 
L 167.679649 79.634142 
L 167.751689 79.391945 
L 167.787709 79.668741 
L 167.811722 79.841739 
L 167.874757 79.461144 
L 167.889765 79.564943 
L 167.904774 79.495744 
L 168.030843 79.080549 
L 168.072866 79.218947 
L 168.04285 79.01135 
L 168.135901 79.04595 
L 168.159915 79.080549 
L 168.312999 77.52357 
L 168.361026 77.973364 
L 168.427062 77.661968 
L 168.580147 78.28476 
L 168.457079 77.627368 
L 168.589152 78.25016 
L 168.601158 78.353959 
L 168.724226 79.01135 
L 168.757245 78.872952 
L 168.907327 77.973364 
L 168.919334 77.904165 
L 168.931341 77.696568 
L 169.012385 78.180961 
L 169.018389 78.180961 
L 169.066415 78.007963 
L 169.108439 78.423158 
L 169.12945 78.526957 
L 169.25552 79.322746 
L 169.267526 79.218947 
L 169.29154 79.080549 
L 169.357576 79.668741 
L 169.441623 79.980137 
L 169.474641 79.737941 
L 169.516664 79.841739 
L 169.606714 80.049336 
L 169.642734 80.014737 
L 169.65474 79.945538 
L 169.813828 78.838352 
L 169.936896 78.25016 
L 169.960909 78.423158 
L 169.987924 78.526957 
L 170.119997 78.907551 
L 170.062966 78.388558 
L 170.126001 78.838352 
L 170.156017 78.734554 
L 170.25207 78.423158 
L 170.177029 78.872952 
L 170.282087 78.561556 
L 170.321108 78.872952 
L 170.387145 78.492357 
L 170.390147 78.492357 
L 170.405155 78.596156 
L 170.462186 78.734554 
L 170.507211 78.492357 
L 170.510213 78.526957 
L 170.654292 77.661968 
L 170.657294 77.731167 
L 170.726332 77.142975 
L 170.741341 77.177574 
L 170.786365 77.004577 
L 170.822385 77.419771 
L 170.846399 77.315973 
L 170.97547 77.904165 
L 170.981473 77.869565 
L 171.032501 77.834966 
L 171.194591 79.04595 
L 171.254624 78.699954 
L 171.308654 78.942151 
L 171.347676 79.149748 
L 171.401705 78.769153 
L 171.413712 78.872952 
L 171.560793 78.042563 
L 171.587808 78.146362 
L 171.68086 77.938764 
L 171.710876 78.042563 
L 171.773911 78.111762 
L 171.734889 77.904165 
L 171.812933 77.938764 
L 171.848952 77.973364 
L 171.881971 78.111762 
L 171.905984 77.731167 
L 171.957012 77.834966 
L 171.97202 77.938764 
L 172.029052 77.627368 
L 172.053065 77.661968 
L 172.107095 77.592769 
L 172.137112 77.419771 
L 172.197145 77.904165 
L 172.203148 77.904165 
L 172.248173 77.800366 
L 172.353231 77.454371 
L 172.368239 77.558169 
L 172.413264 77.800366 
L 172.488306 77.765767 
L 172.581357 78.25016 
L 172.632385 78.146362 
L 172.716432 78.042563 
L 172.76746 77.938764 
L 172.812485 78.28476 
L 172.815486 78.25016 
L 172.836498 78.353959 
L 172.887526 78.042563 
L 172.911539 78.077162 
L 172.923546 78.007963 
L 173.061622 77.315973 
L 173.076631 77.350572 
L 173.142667 77.073776 
L 173.151672 77.108375 
L 173.349782 76.104989 
L 173.355785 76.139588 
L 173.427825 75.724394 
L 173.433828 75.793593 
L 173.532883 74.928604 
L 173.583911 75.343799 
L 173.598919 75.412998 
L 173.761009 76.589382 
L 173.776017 76.658581 
L 173.875072 77.212174 
L 173.902087 77.039176 
L 174.010146 76.174188 
L 174.061175 76.485584 
L 174.097194 76.658581 
L 174.154226 76.312586 
L 174.253281 76.00119 
L 174.202252 76.450984 
L 174.274292 76.035789 
L 174.472402 77.177574 
L 174.478405 77.108375 
L 174.48741 77.177574 
L 174.553446 77.039176 
L 174.604475 77.350572 
L 174.610478 77.246773 
L 174.709533 77.52357 
L 174.736548 77.627368 
L 174.901639 78.423158 
L 174.910644 78.353959 
L 174.928654 78.25016 
L 174.952667 78.111762 
L 175.018703 78.492357 
L 175.021705 78.457757 
L 175.129765 78.976751 
L 175.165785 78.838352 
L 175.231821 78.734554 
L 175.303861 78.28476 
L 175.369897 78.423158 
L 175.384906 78.319359 
L 175.453944 77.869565 
L 175.513977 78.111762 
L 175.57401 78.007963 
L 175.715088 76.900778 
L 175.7361 76.935378 
L 175.79013 76.520183 
L 175.793131 76.554783 
L 175.916199 76.381785 
L 175.919201 76.450984 
L 176.009251 76.035789 
L 176.012252 76.035789 
L 176.015254 76.00119 
L 176.066282 76.347185 
L 176.114309 76.139588 
L 176.204358 76.243387 
L 176.330428 76.76238 
L 176.573562 78.28476 
L 176.633596 78.180961 
L 176.741655 77.800366 
L 176.645602 78.25016 
L 176.765669 77.938764 
L 176.795685 77.869565 
L 176.936763 76.554783 
L 176.942766 76.589382 
L 177.251937 74.063616 
L 177.266945 74.132815 
L 177.290959 74.375011 
L 177.369002 74.029016 
L 177.435038 74.132815 
L 177.591125 74.755606 
L 177.594126 74.686407 
L 177.603131 74.617208 
L 177.642153 74.409611 
L 177.705188 74.790206 
L 177.888289 75.828192 
L 177.732202 74.755606 
L 177.900295 75.793593 
L 178.011357 75.585995 
L 177.936315 75.862792 
L 178.026365 75.620595 
L 178.062385 75.516796 
L 178.176448 74.963204 
L 178.191456 75.101602 
L 178.218471 75.2054 
L 178.221473 75.2746 
L 178.308521 74.721007 
L 178.359549 74.894005 
L 178.398571 74.582609 
L 178.407576 74.651808 
L 178.563662 73.510023 
L 178.566663 73.544622 
L 178.581672 73.475423 
L 178.608687 73.233227 
L 178.680726 73.856018 
L 178.728753 73.959817 
L 178.746763 74.132815 
L 178.809798 73.613822 
L 178.812799 73.613822 
L 178.935867 72.818032 
L 179.025917 73.060229 
L 179.052932 72.887231 
L 179.145983 72.99103 
L 179.305071 74.375011 
L 179.314076 74.305812 
L 179.33809 74.132815 
L 179.389118 74.651808 
L 179.410129 74.651808 
L 179.428139 74.582609 
L 179.479168 74.963204 
L 179.494176 74.928604 
L 179.548206 75.101602 
L 179.596232 74.859405 
L 179.602235 74.894005 
L 179.659267 74.790206 
L 179.740312 74.47881 
L 179.79134 74.548009 
L 179.818355 74.651808 
L 179.977443 75.309199 
L 179.860378 74.548009 
L 179.980444 75.2746 
L 179.986448 75.2054 
L 180.052484 75.724394 
L 180.064491 75.758993 
L 180.100511 75.516796 
L 180.157542 75.689794 
L 180.373662 74.444211 
L 180.376663 74.47881 
L 180.4427 74.029016 
L 180.451705 74.063616 
L 180.490726 74.132815 
L 180.511738 74.202014 
L 180.571771 73.613822 
L 180.577774 73.613822 
L 180.715851 72.99103 
L 180.736862 73.094828 
L 180.862932 73.510023 
L 180.874939 73.440824 
L 180.946978 73.856018 
L 180.961987 73.786819 
L 180.989002 73.683021 
L 181.007012 73.648421 
L 181.05804 74.167414 
L 181.307177 76.208787 
L 181.331191 76.070389 
L 181.514292 75.067002 
L 181.340196 76.104989 
L 181.520295 75.170801 
L 181.544308 75.24 
L 181.649366 75.551396 
L 181.58333 75.136201 
L 181.661373 75.412998 
L 181.946531 71.295652 
L 181.949532 71.364851 
L 182.012567 70.569062 
L 182.024574 70.603661 
L 182.0726 70.257666 
L 182.138637 70.534462 
L 182.183662 70.638261 
L 182.372766 72.264439 
L 182.414789 72.056842 
L 182.429797 71.987643 
L 182.483827 72.506636 
L 182.654922 73.994416 
L 182.657924 73.959817 
L 182.663927 73.994416 
L 182.796 74.790206 
L 182.838023 74.755606 
L 182.919068 74.444211 
L 182.952086 74.617208 
L 182.958089 74.686407 
L 183.027127 74.236613 
L 183.036132 74.305812 
L 183.063147 74.409611 
L 183.126182 74.651808 
L 183.165204 74.375011 
L 183.291273 73.856018 
L 183.522401 72.437437 
L 183.531406 72.541236 
L 183.606447 72.022243 
L 183.609449 72.022243 
L 183.684491 71.088055 
L 183.735519 71.295652 
L 183.855585 71.710847 
L 183.879598 71.676247 
L 183.978653 71.607048 
L 183.906613 71.849245 
L 183.981655 71.710847 
L 184.083711 71.883844 
L 184.095718 71.849245 
L 184.113728 71.883844 
L 184.146746 71.641648 
L 184.194772 71.780046 
L 184.218786 71.676247 
L 184.281821 72.22984 
L 184.287824 72.19524 
L 184.446912 73.337025 
L 184.455917 73.440824 
L 184.575983 73.959817 
L 184.602998 73.890618 
L 184.672036 73.821419 
L 184.705054 73.994416 
L 184.723064 74.098215 
L 184.738073 74.202014 
L 184.810112 73.925217 
L 184.813114 73.925217 
L 184.852136 73.613822 
L 184.930179 73.648421 
L 184.948189 73.683021 
L 184.95119 73.786819 
L 185.035237 73.164027 
L 185.044242 73.198627 
L 185.074258 73.164027 
L 185.218338 71.987643 
L 185.281373 72.126041 
L 185.320394 71.814645 
L 185.416447 71.191854 
L 185.476481 71.295652 
L 185.485486 71.364851 
L 185.509499 71.537849 
L 185.542517 71.295652 
L 185.593545 71.399451 
L 185.683595 71.018856 
L 185.707608 71.295652 
L 185.72862 71.364851 
L 185.896713 72.679634 
L 185.911721 72.714233 
L 185.962749 72.402838 
L 185.983761 72.402838 
L 186.040792 72.264439 
L 186.079814 72.575835 
L 186.136845 72.472037 
L 186.295933 71.537849 
L 186.322948 71.607048 
L 186.400991 71.503249 
L 186.464026 71.987643 
L 186.512053 71.607048 
L 186.578089 71.953043 
L 186.74318 73.440824 
L 186.809217 73.371625 
L 186.839233 73.302426 
L 186.893263 73.648421 
L 186.896265 73.613822 
L 186.917276 73.579222 
L 187.016331 73.821419 
L 187.289482 71.883844 
L 187.031339 73.856018 
L 187.292484 71.918444 
L 187.325502 71.814645 
L 187.400543 71.43405 
L 187.44857 71.503249 
L 187.472583 71.399451 
L 187.598653 70.949657 
L 187.601655 70.984256 
L 187.622666 71.053455 
L 187.637674 70.880458 
L 187.766746 71.814645 
L 187.775751 71.883844 
L 187.925834 72.818032 
L 187.958852 72.921831 
L 188.072915 73.094828 
L 188.08192 73.060229 
L 188.225999 72.299039 
L 188.280029 72.160641 
L 188.331057 72.333638 
L 188.334059 72.333638 
L 188.385087 72.575835 
L 188.451124 72.506636 
L 188.577193 71.849245 
L 188.586198 71.918444 
L 188.637227 72.19524 
L 188.682251 71.780046 
L 188.685253 71.780046 
L 188.820328 71.053455 
L 188.850344 71.122654 
L 188.871356 71.226453 
L 188.940394 70.949657 
L 188.946397 70.984256 
L 188.970411 71.053455 
L 189.099482 70.499863 
L 189.303595 71.710847 
L 189.3126 71.676247 
L 189.345618 71.745446 
L 189.492699 72.575835 
L 189.507707 72.714233 
L 189.564739 72.472037 
L 189.594756 72.506636 
L 189.756845 71.503249 
L 189.786862 71.537849 
L 189.792865 71.607048 
L 189.870908 71.226453 
L 189.888918 71.157254 
L 190.023993 101.362654 
L 190.261124 115.894462 
L 190.516265 120.911396 
L 190.819432 123.160366 
L 190.822434 123.091167 
L 190.912483 123.506362 
L 190.915485 123.471762 
L 191.047558 123.852357 
L 191.053561 123.783158 
L 191.149614 123.886957 
L 191.173628 123.817757 
L 191.278686 124.094554 
L 191.425767 124.129153 
L 191.434772 124.267551 
L 191.530825 124.094554 
L 191.536828 124.163753 
L 191.725933 124.059954 
L 191.803976 124.129153 
L 191.842998 123.990755 
L 191.918039 124.059954 
L 191.849001 123.956156 
L 191.951057 123.956156 
L 192.26323 124.059954 
L 192.341273 124.129153 
L 192.269233 123.990755 
L 192.374291 124.094554 
L 192.401306 124.198352 
L 192.512367 124.336751 
L 192.407309 124.129153 
L 192.521372 124.302151 
L 192.722483 124.267551 
L 192.830543 124.094554 
L 192.836546 124.129153 
L 192.935601 123.956156 
L 192.845551 124.163753 
L 192.959614 123.990755 
L 193.076679 123.886957 
L 193.193744 123.748558 
L 193.208752 123.852357 
L 193.280792 123.61016 
L 193.301803 123.679359 
L 193.418868 123.506362 
L 193.307807 123.713959 
L 193.42187 123.540961 
L 193.427873 123.61016 
L 193.487906 123.402563 
L 193.526928 123.471762 
L 193.613976 123.264165 
L 193.643992 123.333364 
L 193.689017 123.402563 
L 193.704026 123.298764 
L 193.752052 123.333364 
L 193.854109 123.125767 
L 193.87512 123.194966 
L 193.887127 123.333364 
L 193.935153 123.125767 
L 193.98318 123.160366 
L 194.268337 123.056568 
L 194.319366 123.021968 
L 194.358387 123.160366 
L 194.376397 123.056568 
L 194.439432 123.091167 
L 194.457442 122.952769 
L 194.481455 123.021968 
L 194.607525 122.779771 
L 194.610526 122.814371 
L 194.871671 122.88357 
L 194.949714 123.021968 
L 194.985734 122.987368 
L 195.03376 123.056568 
L 195.129813 123.125767 
L 195.144822 123.056568 
L 195.255883 122.952769 
L 195.294904 122.918169 
L 195.276894 123.056568 
L 195.366944 122.952769 
L 195.435982 123.021968 
L 195.520029 123.091167 
L 195.487011 122.952769 
L 195.544042 123.021968 
L 195.661107 122.745172 
L 195.664108 122.779771 
L 195.787176 122.745172 
L 195.898238 122.572174 
L 195.901239 122.641373 
L 196.024307 122.502975 
L 196.090344 122.537574 
L 196.114357 122.433776 
L 196.126364 122.433776 
L 196.240427 122.260778 
L 196.13837 122.468375 
L 196.24643 122.329977 
L 196.267442 122.226178 
L 196.360493 122.364577 
L 196.477558 122.156979 
L 196.546596 122.295378 
L 196.591621 122.260778 
L 196.651654 122.329977 
L 196.756712 122.502975 
L 196.768719 122.468375 
L 196.80774 122.433776 
L 196.849763 122.572174 
L 196.873777 122.537574 
L 196.978835 122.468375 
L 196.981836 122.399176 
L 197.056878 122.641373 
L 197.083893 122.606773 
L 197.93036 122.502975 
L 197.945369 122.364577 
L 197.999398 122.572174 
L 198.041422 122.502975 
L 198.050427 122.537574 
L 198.131471 122.364577 
L 198.143478 122.399176 
L 198.356596 122.502975 
L 198.398619 122.433776 
L 198.470659 122.572174 
L 198.47366 122.502975 
L 198.506679 122.675973 
L 198.58172 122.572174 
L 198.674772 122.710572 
L 198.605733 122.537574 
L 198.695783 122.606773 
L 198.749813 122.710572 
L 198.755816 122.745172 
L 198.833859 122.572174 
L 198.848868 122.606773 
L 198.917906 122.468375 
L 198.854871 122.641373 
L 198.965932 122.502975 
L 199.079995 122.606773 
L 198.977939 122.468375 
L 199.082997 122.572174 
L 199.200062 122.675973 
L 199.227077 122.745172 
L 199.239083 122.606773 
L 199.308121 122.710572 
L 199.368155 122.641373 
L 199.34114 122.745172 
L 199.419183 122.710572 
L 199.437193 122.745172 
L 199.533246 122.641373 
L 199.563262 122.606773 
L 199.653312 122.779771 
L 199.755368 122.606773 
L 199.77638 122.641373 
L 199.986496 122.675973 
L 200.079548 122.779771 
L 200.097558 122.745172 
L 200.532798 122.84897 
L 200.628851 123.021968 
L 200.655866 122.987368 
L 200.86298 122.88357 
L 200.877989 122.952769 
L 200.983047 122.779771 
L 201.088105 122.918169 
L 201.100111 122.88357 
L 201.166148 122.779771 
L 201.190161 122.918169 
L 201.208171 122.918169 
L 201.289216 122.987368 
L 201.403279 123.194966 
L 201.40628 123.160366 
L 201.463312 123.194966 
L 201.502334 123.298764 
L 201.472317 123.160366 
L 201.571372 123.194966 
L 201.619398 123.160366 
L 201.667425 123.298764 
L 201.673428 123.264165 
L 201.733461 123.402563 
L 201.697441 123.229565 
L 201.790493 123.333364 
L 201.967591 123.264165 
L 201.970592 123.160366 
L 202.00361 123.333364 
L 202.07565 123.333364 
L 202.261753 123.437162 
L 202.267756 123.402563 
L 202.378818 123.506362 
L 202.384821 123.437162 
L 202.435849 123.64476 
L 202.480874 123.61016 
L 202.486877 123.64476 
L 202.489879 123.540961 
L 202.588934 123.575561 
L 202.796048 123.471762 
L 202.823063 123.367963 
L 202.87109 123.540961 
L 202.90711 123.437162 
L 202.991156 123.367963 
L 203.021173 123.540961 
L 203.099216 123.471762 
L 203.114224 123.61016 
L 203.129232 123.575561 
L 203.477425 123.679359 
L 203.585484 123.748558 
L 203.483428 123.61016 
L 203.588486 123.713959 
L 203.696546 123.783158 
L 203.708552 123.748558 
L 203.81361 123.956156 
L 203.930675 123.783158 
L 204.200824 123.852357 
L 204.293876 123.921556 
L 204.245849 123.783158 
L 204.311886 123.886957 
L 204.561023 123.783158 
L 204.639066 123.679359 
L 204.57303 123.886957 
L 204.672085 123.748558 
L 204.675086 123.783158 
L 204.765136 123.61016 
L 204.768138 123.61016 
L 204.846181 123.437162 
L 204.783146 123.679359 
L 204.885202 123.540961 
L 204.912217 123.575561 
L 204.927226 123.402563 
L 204.987259 123.506362 
L 205.095318 123.367963 
L 205.09832 123.402563 
L 205.110327 123.471762 
L 205.143345 123.333364 
L 205.20638 123.402563 
L 205.233395 123.333364 
L 205.299431 123.506362 
L 205.311438 123.471762 
L 205.419497 123.540961 
L 205.479531 123.61016 
L 205.464522 123.506362 
L 205.527557 123.506362 
L 205.632615 123.61016 
L 205.680642 123.679359 
L 205.728668 123.540961 
L 205.743677 123.61016 
L 205.995816 123.506362 
L 206.013826 123.437162 
L 206.091869 123.61016 
L 206.103876 123.575561 
L 206.18492 123.471762 
L 206.283975 123.367963 
L 206.211935 123.506362 
L 206.298983 123.437162 
L 206.31099 123.437162 
L 206.392035 123.264165 
L 206.425053 123.298764 
L 206.515103 123.367963 
L 206.533113 123.229565 
L 206.536114 123.298764 
L 206.698204 123.194966 
L 206.707209 123.264165 
L 206.81827 123.091167 
L 206.923328 123.264165 
L 206.935335 123.160366 
L 206.983361 123.021968 
L 207.046396 123.091167 
L 207.073411 123.125767 
L 207.133444 122.987368 
L 207.151454 123.021968 
L 207.262516 122.952769 
L 207.280526 122.84897 
L 207.30754 122.987368 
L 207.376579 122.88357 
L 207.385584 122.952769 
L 207.466628 122.745172 
L 207.481637 122.779771 
L 207.54167 122.88357 
L 207.607706 122.779771 
L 207.649729 122.918169 
L 207.652731 122.84897 
L 207.730774 123.056568 
L 207.757789 122.987368 
L 207.808817 123.056568 
L 207.814821 123.125767 
L 207.883859 122.952769 
L 207.919879 123.056568 
L 207.934887 122.987368 
L 208.018933 122.918169 
L 207.967905 123.056568 
L 208.045948 122.987368 
L 208.06696 122.918169 
L 208.10298 123.056568 
L 208.154008 123.021968 
L 208.331106 123.056568 
L 208.388137 123.021968 
L 208.442167 123.160366 
L 208.547225 123.125767 
L 208.460177 123.229565 
L 208.553229 123.160366 
L 209.102532 123.091167 
L 209.174572 122.987368 
L 209.13555 123.125767 
L 209.216595 123.021968 
L 209.264622 123.056568 
L 209.29764 122.918169 
L 209.318651 122.918169 
L 209.408701 122.779771 
L 209.324655 122.952769 
L 209.432714 122.88357 
L 209.576794 122.779771 
L 209.669845 122.641373 
L 209.582797 122.814371 
L 209.690857 122.745172 
L 209.693859 122.779771 
L 209.702864 122.675973 
L 209.798917 122.745172 
L 209.810923 122.710572 
L 209.888966 122.88357 
L 209.906976 122.745172 
L 210.009033 122.918169 
L 209.921985 122.710572 
L 210.024041 122.88357 
L 210.171122 122.987368 
L 210.183129 122.952769 
L 210.288187 123.091167 
L 210.291189 123.056568 
L 210.34822 123.229565 
L 210.393245 123.125767 
L 210.52832 123.402563 
L 210.573345 123.333364 
L 210.561338 123.437162 
L 210.639381 123.402563 
L 210.672399 123.298764 
L 210.699414 123.402563 
L 210.783461 123.194966 
L 210.795467 123.298764 
L 210.864505 123.091167 
L 210.894522 123.229565 
L 211.011587 123.091167 
L 211.098635 123.160366 
L 211.032598 123.056568 
L 211.122648 123.091167 
L 211.206694 123.056568 
L 211.131653 123.160366 
L 211.227706 123.125767 
L 211.350774 123.264165 
L 211.440824 123.125767 
L 211.365782 123.333364 
L 211.461835 123.229565 
L 211.518867 123.333364 
L 211.473842 123.194966 
L 211.572897 123.229565 
L 211.66895 123.160366 
L 211.68696 123.194966 
L 211.780011 123.091167 
L 211.798021 123.160366 
L 211.855053 122.88357 
L 211.873063 122.918169 
L 211.879066 122.952769 
L 212.011139 122.606773 
L 212.125202 122.502975 
L 212.152217 122.399176 
L 212.167225 122.572174 
L 212.236263 122.468375 
L 212.329315 122.572174 
L 212.3023 122.364577 
L 212.350326 122.537574 
L 212.401354 122.364577 
L 212.368336 122.572174 
L 212.461388 122.502975 
L 212.527424 122.606773 
L 212.548436 122.675973 
L 212.59346 122.537574 
L 212.635484 122.572174 
L 212.86361 122.468375 
L 212.866611 122.433776 
L 212.91764 122.641373 
L 212.959663 122.606773 
L 213.004688 122.502975 
L 213.073726 122.641373 
L 213.271835 122.710572 
L 213.373892 122.814371 
L 213.322863 122.675973 
L 213.385898 122.779771 
L 213.391902 122.710572 
L 213.430923 122.918169 
L 213.487955 122.88357 
L 213.821139 122.814371 
L 213.947208 122.433776 
L 214.00424 122.537574 
L 214.05827 122.433776 
L 214.160326 122.502975 
L 214.148319 122.364577 
L 214.172333 122.468375 
L 214.361437 122.537574 
L 214.40346 122.641373 
L 214.397457 122.502975 
L 214.472498 122.537574 
L 214.52953 122.641373 
L 214.577557 122.502975 
L 214.580558 122.502975 
L 215.078833 122.433776 
L 215.192896 122.260778 
L 215.282946 122.364577 
L 215.204903 122.226178 
L 215.306959 122.329977 
L 215.463046 122.399176 
L 215.577109 122.641373 
L 215.58011 122.572174 
L 215.664157 122.675973 
L 215.769215 122.84897 
L 215.685168 122.641373 
L 215.787225 122.814371 
L 215.871271 122.779771 
L 215.877275 122.952769 
L 215.895284 122.814371 
L 215.907291 122.88357 
L 215.979331 122.641373 
L 215.994339 122.675973 
L 216.000343 122.606773 
L 216.081387 122.779771 
L 216.102399 122.745172 
L 216.564654 122.641373 
L 216.567656 122.606773 
L 216.648701 122.745172 
L 216.672714 122.675973 
L 216.675716 122.710572 
L 216.702731 122.606773 
L 216.780774 122.641373 
L 216.840807 122.572174 
L 216.951868 122.468375 
L 216.861818 122.641373 
L 216.95487 122.502975 
L 217.158983 122.606773 
L 217.198004 122.641373 
L 217.255036 122.468375 
L 217.264041 122.572174 
L 217.30006 122.606773 
L 217.375102 122.502975 
L 217.40812 122.433776 
L 217.492167 122.710572 
L 217.600226 122.641373 
L 217.558203 122.779771 
L 217.603228 122.675973 
L 217.639248 122.745172 
L 217.753311 122.88357 
L 217.858369 122.745172 
L 217.867374 122.84897 
L 217.954422 122.779771 
L 218.071487 122.641373 
L 218.176545 122.745172 
L 218.18555 122.710572 
L 218.287606 122.745172 
L 218.251586 122.572174 
L 218.296611 122.710572 
L 218.569762 122.606773 
L 218.608783 122.572174 
L 218.647805 122.710572 
L 218.671818 122.710572 
L 218.752863 122.814371 
L 218.794886 122.88357 
L 218.851918 122.675973 
L 218.863924 122.84897 
L 218.866926 122.779771 
L 218.917954 122.918169 
L 218.971984 122.84897 
L 219.050027 123.091167 
L 219.09205 123.056568 
L 219.101055 123.021968 
L 219.152084 123.160366 
L 219.194107 123.160366 
L 219.335185 123.229565 
L 219.341188 123.194966 
L 219.455251 123.471762 
L 220.571868 123.367963 
L 220.637904 123.298764 
L 220.586876 123.471762 
L 220.682929 123.333364 
L 220.742962 123.402563 
L 220.784986 123.264165 
L 220.787987 123.298764 
L 220.88404 123.160366 
L 220.796992 123.333364 
L 220.908054 123.194966 
L 220.929065 123.298764 
L 220.995102 123.091167 
L 221.016113 123.160366 
L 221.043128 123.125767 
L 221.073145 123.229565 
L 221.124173 123.160366 
L 221.139181 123.264165 
L 221.175201 123.125767 
L 221.232233 123.160366 
L 221.289264 123.091167 
L 221.292266 123.229565 
L 221.337291 123.194966 
L 221.352299 123.229565 
L 221.406329 123.056568 
L 221.44535 123.160366 
L 221.487374 123.091167 
L 221.457357 123.194966 
L 221.55341 123.194966 
L 221.568418 123.160366 
L 221.673476 123.298764 
L 222.357855 123.367963 
L 222.360856 123.437162 
L 222.402879 123.264165 
L 222.468916 123.367963 
L 222.78409 123.333364 
L 222.862133 123.229565 
L 222.799098 123.402563 
L 222.895151 123.333364 
L 223.054239 123.437162 
L 223.159297 123.575561 
L 223.093261 123.402563 
L 223.174306 123.540961 
L 223.195317 123.471762 
L 223.252349 123.64476 
L 223.282365 123.61016 
L 223.29137 123.575561 
L 223.405433 123.783158 
L 223.423443 123.713959 
L 223.465466 123.956156 
L 223.510491 123.852357 
L 223.579529 123.956156 
L 223.618551 123.817757 
L 223.621553 123.852357 
L 224.029778 123.956156 
L 224.134836 124.129153 
L 224.035781 123.921556 
L 224.146843 124.025355 
L 224.230889 124.129153 
L 224.233891 124.163753 
L 224.293924 124.025355 
L 224.338949 124.094554 
L 224.410989 123.990755 
L 224.438004 124.163753 
L 224.447009 124.129153 
L 224.765184 124.232952 
L 224.813211 124.267551 
L 224.843227 124.129153 
L 224.870242 124.163753 
L 225.023327 124.232952 
L 225.026329 124.302151 
L 225.107373 124.129153 
L 225.128385 124.163753 
L 225.215433 124.198352 
L 225.248451 124.059954 
L 225.332498 124.129153 
L 225.437556 124.302151 
L 225.374521 124.059954 
L 225.449562 124.267551 
L 225.452564 124.302151 
L 225.509596 124.163753 
L 225.557622 124.232952 
L 225.57263 124.198352 
L 225.674687 124.025355 
L 225.686693 124.094554 
L 225.737722 123.956156 
L 225.764737 124.129153 
L 225.800756 123.990755 
L 225.902813 124.094554 
L 225.911818 124.025355 
L 226.073907 124.129153 
L 226.139944 124.267551 
L 226.190972 124.232952 
L 226.251005 124.129153 
L 226.245002 124.302151 
L 226.305035 124.198352 
L 226.380076 124.302151 
L 226.317042 124.129153 
L 226.416096 124.198352 
L 226.632216 124.129153 
L 226.728269 123.990755 
L 226.644222 124.198352 
L 226.746279 124.025355 
L 227.253559 123.956156 
L 227.34661 123.886957 
L 227.292581 124.025355 
L 227.361619 123.921556 
L 227.469678 123.990755 
L 227.403642 123.852357 
L 227.47268 123.921556 
L 227.478683 123.886957 
L 227.538717 124.129153 
L 227.571735 124.059954 
L 227.592746 124.094554 
L 227.655781 123.886957 
L 227.670789 123.921556 
L 227.787854 123.783158 
L 227.790856 123.817757 
L 227.883907 123.886957 
L 227.850889 123.748558 
L 227.904919 123.852357 
L 227.97996 123.713959 
L 228.021983 123.783158 
L 228.118037 123.852357 
L 228.229098 123.990755 
L 228.2321 123.921556 
L 228.271121 123.956156 
L 228.355168 124.094554 
L 228.307141 123.921556 
L 228.382182 123.990755 
L 228.397191 123.956156 
L 228.445217 124.129153 
L 228.484239 124.025355 
L 228.511254 124.129153 
L 228.493244 123.990755 
L 228.5953 124.025355 
L 228.619313 123.921556 
L 228.63132 123.886957 
L 228.664338 124.025355 
L 228.727373 123.921556 
L 228.772398 124.059954 
L 228.838435 123.956156 
L 228.916478 123.921556 
L 228.898468 124.025355 
L 228.946494 123.956156 
L 229.048551 124.059954 
L 228.958501 123.921556 
L 229.057556 123.990755 
L 229.060557 123.956156 
L 229.10258 124.129153 
L 229.159612 124.059954 
L 229.168617 124.129153 
L 229.213642 123.956156 
L 229.267672 124.025355 
L 229.321701 124.025355 
L 229.417755 123.817757 
L 229.357721 124.059954 
L 229.435764 123.852357 
L 229.489794 123.990755 
L 229.549828 123.956156 
L 229.606859 123.817757 
L 229.660889 123.886957 
L 229.780955 124.129153 
L 229.849993 124.025355 
L 229.892017 124.129153 
L 230.648434 124.059954 
L 230.699463 123.990755 
L 230.711469 124.129153 
L 230.756494 124.129153 
L 230.786511 124.163753 
L 230.813526 124.025355 
L 230.85855 124.059954 
L 230.861552 123.990755 
L 230.897572 124.163753 
L 230.963609 124.129153 
L 230.96661 124.198352 
L 230.972613 124.059954 
L 231.071668 124.094554 
L 231.158716 124.025355 
L 231.16472 124.129153 
L 231.185731 124.059954 
L 231.284786 124.232952 
L 231.299794 124.198352 
L 231.416859 124.094554 
L 231.443874 124.232952 
L 231.52792 124.129153 
L 231.629977 124.025355 
L 231.644985 124.059954 
L 231.702016 124.163753 
L 231.723028 124.025355 
L 231.756046 124.059954 
L 232.167273 123.956156 
L 232.275333 123.886957 
L 232.203293 124.059954 
L 232.281336 123.921556 
L 232.749595 123.817757 
L 232.857655 123.783158 
L 232.764603 123.886957 
L 232.860656 123.817757 
L 232.974719 123.748558 
L 232.977721 123.64476 
L 232.995731 123.783158 
L 233.085781 123.679359 
L 233.136809 123.783158 
L 233.103791 123.64476 
L 233.199844 123.713959 
L 233.310905 123.61016 
L 233.406958 123.506362 
L 233.35593 123.713959 
L 233.42797 123.540961 
L 233.548036 123.679359 
L 233.578053 123.575561 
L 233.650093 123.713959 
L 233.659098 123.679359 
L 233.800175 123.61016 
L 233.836195 123.471762 
L 233.914238 123.540961 
L 234.340474 123.64476 
L 234.44253 123.783158 
L 234.376494 123.61016 
L 234.457539 123.748558 
L 234.46054 123.713959 
L 234.538583 123.852357 
L 234.559595 123.783158 
L 234.670656 123.886957 
L 234.673658 123.852357 
L 234.73069 123.921556 
L 234.808733 123.990755 
L 234.778716 123.886957 
L 234.841751 123.921556 
L 235.276991 123.886957 
L 235.279993 123.748558 
L 235.358036 123.956156 
L 235.385051 123.921556 
L 235.409064 123.886957 
L 235.511121 124.129153 
L 235.628185 123.990755 
L 235.736245 124.094554 
L 235.643194 123.956156 
L 235.739247 124.059954 
L 235.760258 124.129153 
L 235.850308 124.025355 
L 235.85331 124.094554 
L 235.943359 123.783158 
L 235.952364 123.817757 
L 235.973376 123.921556 
L 235.964371 123.783158 
L 236.066427 123.852357 
L 236.351585 123.956156 
L 236.441635 124.094554 
L 236.390606 123.921556 
L 236.46865 124.025355 
L 236.744802 123.956156 
L 236.747804 123.886957 
L 236.819844 124.059954 
L 236.852862 123.956156 
L 236.912895 124.025355 
L 236.93991 123.886957 
L 236.960922 123.956156 
L 237.002945 123.886957 
L 237.005946 123.990755 
L 237.068981 123.990755 
L 237.198053 123.990755 
L 237.228069 123.817757 
L 237.309114 123.956156 
L 237.384155 123.886957 
L 237.33913 124.059954 
L 237.414172 123.990755 
L 237.510225 124.094554 
L 237.531237 124.059954 
L 237.846411 123.956156 
L 237.873426 123.921556 
L 237.903442 124.025355 
L 237.95447 123.990755 
L 237.966477 123.956156 
L 238.08054 123.817757 
L 238.194603 123.956156 
L 238.266643 123.990755 
L 238.299661 123.886957 
L 238.362696 124.059954 
L 238.410722 123.990755 
L 238.437737 124.094554 
L 238.557804 124.302151 
L 238.647853 124.37135 
L 238.665863 124.267551 
L 238.746908 124.37135 
L 238.737903 124.232952 
L 238.779926 124.336751 
L 238.836958 124.198352 
L 238.884984 124.40595 
L 238.890988 124.336751 
L 238.966029 124.440549 
L 238.993044 124.302151 
L 239.005051 124.37135 
L 239.023061 124.40595 
L 239.11311 124.336751 
L 239.119114 124.475149 
L 239.191154 124.232952 
L 239.22117 124.267551 
L 239.404271 124.198352 
L 239.407273 124.129153 
L 239.443293 124.302151 
L 239.509329 124.302151 
L 239.788484 124.232952 
L 239.791485 124.163753 
L 239.89054 124.302151 
L 239.896543 124.267551 
L 240.004603 124.336751 
L 240.109661 124.509748 
L 240.010606 124.302151 
L 240.118666 124.440549 
L 240.34379 124.544348 
L 240.373807 124.613547 
L 240.41583 124.440549 
L 240.454852 124.544348 
L 240.463857 124.578947 
L 240.574918 124.440549 
L 240.749014 124.336751 
L 240.761021 124.40595 
L 240.86908 124.198352 
L 240.974139 124.336751 
L 240.989147 124.302151 
L 241.01316 124.232952 
L 241.040175 124.37135 
L 241.097207 124.336751 
L 241.154238 124.475149 
L 241.109213 124.302151 
L 241.21127 124.40595 
L 241.292314 124.302151 
L 241.232281 124.440549 
L 241.322331 124.37135 
L 241.442397 124.544348 
L 241.328334 124.336751 
L 241.445399 124.509748 
L 241.448401 124.40595 
L 241.514437 124.613547 
L 241.553459 124.578947 
L 241.673525 124.751945 
L 241.727555 124.786545 
L 241.787588 124.682746 
L 241.805598 124.648146 
L 241.862629 124.786545 
L 241.889644 124.751945 
L 241.919661 124.821144 
L 241.973691 124.682746 
L 242.000706 124.751945 
L 242.057737 124.578947 
L 242.111767 124.717346 
L 242.159793 124.821144 
L 242.210822 124.648146 
L 242.219827 124.717346 
L 242.31588 124.578947 
L 242.336891 124.613547 
L 242.441949 124.751945 
L 242.450954 124.682746 
L 242.754122 124.578947 
L 242.856178 124.544348 
L 242.772132 124.648146 
L 242.862182 124.578947 
L 242.994254 124.821144 
L 243.309429 124.924943 
L 243.360457 125.028741 
L 243.339445 124.890343 
L 243.423492 124.994142 
L 243.477521 124.959542 
L 243.537555 125.097941 
L 243.603591 124.994142 
L 243.645614 125.097941 
L 243.747671 125.16714 
L 243.690639 124.994142 
L 243.753674 125.063341 
L 243.774686 125.097941 
L 243.777687 125.201739 
L 243.861734 124.994142 
L 243.882745 125.028741 
L 244.200921 125.13254 
L 244.218931 125.097941 
L 244.314984 125.236339 
L 244.420042 125.13254 
L 244.426045 125.16714 
L 244.549113 125.063341 
L 244.582132 125.028741 
L 244.594138 125.16714 
L 244.657173 125.097941 
L 244.843276 124.994142 
L 244.930324 124.959542 
L 244.912314 125.097941 
L 244.954337 124.994142 
L 245.03238 125.028741 
L 245.005365 124.924943 
L 245.062397 124.959542 
L 245.15845 124.855744 
L 245.254503 124.751945 
L 245.173458 124.890343 
L 245.269511 124.786545 
L 245.281518 124.855744 
L 245.290523 124.751945 
L 245.377571 124.786545 
L 245.413591 124.682746 
L 245.488632 124.717346 
L 245.512646 124.786545 
L 245.554669 124.648146 
L 245.599694 124.751945 
L 245.620705 124.786545 
L 245.725763 124.578947 
L 245.935879 124.509748 
L 246.019926 124.37135 
L 245.950888 124.544348 
L 246.049942 124.40595 
L 246.064951 124.475149 
L 246.148997 124.302151 
L 246.155001 124.336751 
L 246.302082 124.440549 
L 246.356112 124.544348 
L 246.386128 124.336751 
L 246.413143 124.475149 
L 246.527206 124.37135 
L 246.608251 124.509748 
L 246.641269 124.440549 
L 246.686294 124.544348 
L 246.656277 124.40595 
L 246.752331 124.440549 
L 247.259611 124.544348 
L 247.358665 124.648146 
L 247.295631 124.475149 
L 247.373674 124.578947 
L 247.40369 124.613547 
L 247.49374 124.475149 
L 247.829926 124.37135 
L 247.853939 124.302151 
L 247.892961 124.440549 
L 247.940987 124.336751 
L 248.031037 124.440549 
L 247.94699 124.302151 
L 248.052048 124.336751 
L 248.142098 124.163753 
L 248.169113 124.267551 
L 248.358218 124.37135 
L 248.430257 124.544348 
L 248.475282 124.509748 
L 248.931534 124.440549 
L 249.012579 124.37135 
L 248.976559 124.509748 
L 249.039594 124.475149 
L 249.297737 124.544348 
L 249.37578 124.648146 
L 249.309743 124.475149 
L 249.408798 124.578947 
L 249.552878 124.648146 
L 249.585896 124.751945 
L 249.576891 124.578947 
L 249.666941 124.717346 
L 249.72097 124.613547 
L 249.684951 124.751945 
L 249.781004 124.682746 
L 249.814022 124.648146 
L 249.898068 124.751945 
L 249.943093 124.648146 
L 249.988118 124.821144 
L 250.00913 124.751945 
L 250.132198 124.855744 
L 250.147206 124.821144 
L 250.246261 124.959542 
L 250.315299 124.821144 
L 250.357322 124.890343 
L 250.459378 124.959542 
L 250.402347 124.786545 
L 250.471385 124.924943 
L 250.567438 124.821144 
L 250.663491 124.717346 
L 250.585448 124.855744 
L 250.684503 124.751945 
L 250.822579 124.648146 
L 250.942645 124.475149 
L 250.828582 124.682746 
L 250.945647 124.509748 
L 250.957654 124.578947 
L 251.017687 124.40595 
L 251.050705 124.40595 
L 251.176775 124.129153 
L 251.179776 124.163753 
L 251.224801 124.094554 
L 251.293839 124.232952 
L 251.663043 124.129153 
L 251.684055 124.163753 
L 251.786111 123.990755 
L 252.038251 123.886957 
L 252.104287 123.852357 
L 252.07427 123.956156 
L 252.14631 123.921556 
L 252.323408 124.025355 
L 252.377438 124.129153 
L 252.332413 123.990755 
L 252.434469 124.059954 
L 252.737637 124.163753 
L 252.839693 124.302151 
L 252.749644 124.094554 
L 252.857703 124.267551 
L 252.938748 124.198352 
L 252.914735 124.336751 
L 252.971766 124.232952 
L 253.079826 124.336751 
L 252.986775 124.198352 
L 253.085829 124.267551 
L 253.097836 124.302151 
L 253.202894 124.163753 
L 253.307952 124.267551 
L 253.316957 124.232952 
L 253.391998 124.094554 
L 253.349975 124.267551 
L 253.434022 124.163753 
L 253.482048 124.129153 
L 253.554088 124.267551 
L 253.605116 124.163753 
L 253.665149 124.267551 
L 253.767206 124.302151 
L 253.722181 124.163753 
L 253.776211 124.267551 
L 253.857255 124.198352 
L 253.860257 124.129153 
L 253.944303 124.302151 
L 253.965315 124.232952 
L 254.067371 124.302151 
L 254.043358 124.163753 
L 254.079378 124.267551 
L 254.175431 124.198352 
L 254.199444 124.129153 
L 254.241468 124.267551 
L 254.286493 124.163753 
L 254.352529 124.267551 
L 254.442579 124.336751 
L 254.394552 124.129153 
L 254.457587 124.198352 
L 254.721733 124.163753 
L 254.721733 124.163753 
" clip-path="url(#pab3e4507fe)" style="fill: none; stroke: #000000; stroke-opacity: 0.5; stroke-width: 1.5; stroke-linecap: square"/>
   </g>
   <g id="patch_3">
    <path d="M 41.667188 173.52 
L 41.667188 7.2 
" style="fill: none; stroke: #000000; stroke-width: 0.8; stroke-linejoin: miter; stroke-linecap: square"/>
   </g>
   <g id="patch_4">
    <path d="M 41.667188 173.52 
L 264.867188 173.52 
" style="fill: none; stroke: #000000; stroke-width: 0.8; stroke-linejoin: miter; stroke-linecap: square"/>
   </g>
  </g>
 </g>
 <defs>
  <clipPath id="pab3e4507fe">
   <rect x="41.667188" y="7.2" width="223.2" height="166.32"/>
  </clipPath>
 </defs>
</svg>
