<?xml version="1.0" encoding="utf-8" standalone="no"?>
<!DOCTYPE svg PUBLIC "-//W3C//DTD SVG 1.1//EN"
  "http://www.w3.org/Graphics/SVG/1.1/DTD/svg11.dtd">
<svg height="345.6pt" version="1.1" viewBox="0 0 460.8 345.6" width="460.8pt" xmlns="http://www.w3.org/2000/svg" xmlns:xlink="http://www.w3.org/1999/xlink">
 <metadata>
  <rdf:RDF xmlns:cc="http://creativecommons.org/ns#" xmlns:dc="http://purl.org/dc/elements/1.1/" xmlns:rdf="http://www.w3.org/1999/02/22-rdf-syntax-ns#">
   <cc:Work>
    <dc:type rdf:resource="http://purl.org/dc/dcmitype/StillImage"/>
    <dc:date>2024-08-06T14:44:46.893476</dc:date>
    <dc:format>image/svg+xml</dc:format>
    <dc:creator>
     <cc:Agent>
      <dc:title>Matplotlib v3.4.2, https://matplotlib.org/</dc:title>
     </cc:Agent>
    </dc:creator>
   </cc:Work>
  </rdf:RDF>
 </metadata>
 <defs>
  <style type="text/css">*{stroke-linecap:butt;stroke-linejoin:round;}</style>
 </defs>
 <g id="figure_1">
  <g id="patch_1">
   <path d="M 0 345.6 
L 460.8 345.6 
L 460.8 0 
L 0 0 
z
" style="fill:#ffffff;"/>
  </g>
  <g id="axes_1">
   <g id="patch_2">
    <path d="M 57.6 307.584 
L 414.72 307.584 
L 414.72 41.472 
L 57.6 41.472 
z
" style="fill:#ffffff;"/>
   </g>
   <g id="matplotlib.axis_1">
    <g id="xtick_1">
     <g id="line2d_1">
      <defs>
       <path d="M 0 0 
L 0 3.5 
" id="m34b48efc08" style="stroke:#000000;stroke-width:0.8;"/>
      </defs>
      <g>
       <use style="stroke:#000000;stroke-width:0.8;" x="95.211629" xlink:href="#m34b48efc08" y="307.584"/>
      </g>
     </g>
     <g id="text_1">
      <!-- 0.2 -->
      <g transform="translate(87.260067 322.182437)scale(0.1 -0.1)">
       <defs>
        <path d="M 2034 4250 
Q 1547 4250 1301 3770 
Q 1056 3291 1056 2328 
Q 1056 1369 1301 889 
Q 1547 409 2034 409 
Q 2525 409 2770 889 
Q 3016 1369 3016 2328 
Q 3016 3291 2770 3770 
Q 2525 4250 2034 4250 
z
M 2034 4750 
Q 2819 4750 3233 4129 
Q 3647 3509 3647 2328 
Q 3647 1150 3233 529 
Q 2819 -91 2034 -91 
Q 1250 -91 836 529 
Q 422 1150 422 2328 
Q 422 3509 836 4129 
Q 1250 4750 2034 4750 
z
" id="DejaVuSans-30" transform="scale(0.015625)"/>
        <path d="M 684 794 
L 1344 794 
L 1344 0 
L 684 0 
L 684 794 
z
" id="DejaVuSans-2e" transform="scale(0.015625)"/>
        <path d="M 1228 531 
L 3431 531 
L 3431 0 
L 469 0 
L 469 531 
Q 828 903 1448 1529 
Q 2069 2156 2228 2338 
Q 2531 2678 2651 2914 
Q 2772 3150 2772 3378 
Q 2772 3750 2511 3984 
Q 2250 4219 1831 4219 
Q 1534 4219 1204 4116 
Q 875 4013 500 3803 
L 500 4441 
Q 881 4594 1212 4672 
Q 1544 4750 1819 4750 
Q 2544 4750 2975 4387 
Q 3406 4025 3406 3419 
Q 3406 3131 3298 2873 
Q 3191 2616 2906 2266 
Q 2828 2175 2409 1742 
Q 1991 1309 1228 531 
z
" id="DejaVuSans-32" transform="scale(0.015625)"/>
       </defs>
       <use xlink:href="#DejaVuSans-30"/>
       <use x="63.623047" xlink:href="#DejaVuSans-2e"/>
       <use x="95.410156" xlink:href="#DejaVuSans-32"/>
      </g>
     </g>
    </g>
    <g id="xtick_2">
     <g id="line2d_2">
      <g>
       <use style="stroke:#000000;stroke-width:0.8;" x="139.20545" xlink:href="#m34b48efc08" y="307.584"/>
      </g>
     </g>
     <g id="text_2">
      <!-- 0.4 -->
      <g transform="translate(131.253887 322.182437)scale(0.1 -0.1)">
       <defs>
        <path d="M 2419 4116 
L 825 1625 
L 2419 1625 
L 2419 4116 
z
M 2253 4666 
L 3047 4666 
L 3047 1625 
L 3713 1625 
L 3713 1100 
L 3047 1100 
L 3047 0 
L 2419 0 
L 2419 1100 
L 313 1100 
L 313 1709 
L 2253 4666 
z
" id="DejaVuSans-34" transform="scale(0.015625)"/>
       </defs>
       <use xlink:href="#DejaVuSans-30"/>
       <use x="63.623047" xlink:href="#DejaVuSans-2e"/>
       <use x="95.410156" xlink:href="#DejaVuSans-34"/>
      </g>
     </g>
    </g>
    <g id="xtick_3">
     <g id="line2d_3">
      <g>
       <use style="stroke:#000000;stroke-width:0.8;" x="183.19927" xlink:href="#m34b48efc08" y="307.584"/>
      </g>
     </g>
     <g id="text_3">
      <!-- 0.6 -->
      <g transform="translate(175.247707 322.182437)scale(0.1 -0.1)">
       <defs>
        <path d="M 2113 2584 
Q 1688 2584 1439 2293 
Q 1191 2003 1191 1497 
Q 1191 994 1439 701 
Q 1688 409 2113 409 
Q 2538 409 2786 701 
Q 3034 994 3034 1497 
Q 3034 2003 2786 2293 
Q 2538 2584 2113 2584 
z
M 3366 4563 
L 3366 3988 
Q 3128 4100 2886 4159 
Q 2644 4219 2406 4219 
Q 1781 4219 1451 3797 
Q 1122 3375 1075 2522 
Q 1259 2794 1537 2939 
Q 1816 3084 2150 3084 
Q 2853 3084 3261 2657 
Q 3669 2231 3669 1497 
Q 3669 778 3244 343 
Q 2819 -91 2113 -91 
Q 1303 -91 875 529 
Q 447 1150 447 2328 
Q 447 3434 972 4092 
Q 1497 4750 2381 4750 
Q 2619 4750 2861 4703 
Q 3103 4656 3366 4563 
z
" id="DejaVuSans-36" transform="scale(0.015625)"/>
       </defs>
       <use xlink:href="#DejaVuSans-30"/>
       <use x="63.623047" xlink:href="#DejaVuSans-2e"/>
       <use x="95.410156" xlink:href="#DejaVuSans-36"/>
      </g>
     </g>
    </g>
    <g id="xtick_4">
     <g id="line2d_4">
      <g>
       <use style="stroke:#000000;stroke-width:0.8;" x="227.19309" xlink:href="#m34b48efc08" y="307.584"/>
      </g>
     </g>
     <g id="text_4">
      <!-- 0.8 -->
      <g transform="translate(219.241528 322.182437)scale(0.1 -0.1)">
       <defs>
        <path d="M 2034 2216 
Q 1584 2216 1326 1975 
Q 1069 1734 1069 1313 
Q 1069 891 1326 650 
Q 1584 409 2034 409 
Q 2484 409 2743 651 
Q 3003 894 3003 1313 
Q 3003 1734 2745 1975 
Q 2488 2216 2034 2216 
z
M 1403 2484 
Q 997 2584 770 2862 
Q 544 3141 544 3541 
Q 544 4100 942 4425 
Q 1341 4750 2034 4750 
Q 2731 4750 3128 4425 
Q 3525 4100 3525 3541 
Q 3525 3141 3298 2862 
Q 3072 2584 2669 2484 
Q 3125 2378 3379 2068 
Q 3634 1759 3634 1313 
Q 3634 634 3220 271 
Q 2806 -91 2034 -91 
Q 1263 -91 848 271 
Q 434 634 434 1313 
Q 434 1759 690 2068 
Q 947 2378 1403 2484 
z
M 1172 3481 
Q 1172 3119 1398 2916 
Q 1625 2713 2034 2713 
Q 2441 2713 2670 2916 
Q 2900 3119 2900 3481 
Q 2900 3844 2670 4047 
Q 2441 4250 2034 4250 
Q 1625 4250 1398 4047 
Q 1172 3844 1172 3481 
z
" id="DejaVuSans-38" transform="scale(0.015625)"/>
       </defs>
       <use xlink:href="#DejaVuSans-30"/>
       <use x="63.623047" xlink:href="#DejaVuSans-2e"/>
       <use x="95.410156" xlink:href="#DejaVuSans-38"/>
      </g>
     </g>
    </g>
    <g id="xtick_5">
     <g id="line2d_5">
      <g>
       <use style="stroke:#000000;stroke-width:0.8;" x="271.18691" xlink:href="#m34b48efc08" y="307.584"/>
      </g>
     </g>
     <g id="text_5">
      <!-- 1.0 -->
      <g transform="translate(263.235348 322.182437)scale(0.1 -0.1)">
       <defs>
        <path d="M 794 531 
L 1825 531 
L 1825 4091 
L 703 3866 
L 703 4441 
L 1819 4666 
L 2450 4666 
L 2450 531 
L 3481 531 
L 3481 0 
L 794 0 
L 794 531 
z
" id="DejaVuSans-31" transform="scale(0.015625)"/>
       </defs>
       <use xlink:href="#DejaVuSans-31"/>
       <use x="63.623047" xlink:href="#DejaVuSans-2e"/>
       <use x="95.410156" xlink:href="#DejaVuSans-30"/>
      </g>
     </g>
    </g>
    <g id="xtick_6">
     <g id="line2d_6">
      <g>
       <use style="stroke:#000000;stroke-width:0.8;" x="315.18073" xlink:href="#m34b48efc08" y="307.584"/>
      </g>
     </g>
     <g id="text_6">
      <!-- 1.2 -->
      <g transform="translate(307.229168 322.182437)scale(0.1 -0.1)">
       <use xlink:href="#DejaVuSans-31"/>
       <use x="63.623047" xlink:href="#DejaVuSans-2e"/>
       <use x="95.410156" xlink:href="#DejaVuSans-32"/>
      </g>
     </g>
    </g>
    <g id="xtick_7">
     <g id="line2d_7">
      <g>
       <use style="stroke:#000000;stroke-width:0.8;" x="359.174551" xlink:href="#m34b48efc08" y="307.584"/>
      </g>
     </g>
     <g id="text_7">
      <!-- 1.4 -->
      <g transform="translate(351.222988 322.182437)scale(0.1 -0.1)">
       <use xlink:href="#DejaVuSans-31"/>
       <use x="63.623047" xlink:href="#DejaVuSans-2e"/>
       <use x="95.410156" xlink:href="#DejaVuSans-34"/>
      </g>
     </g>
    </g>
    <g id="xtick_8">
     <g id="line2d_8">
      <g>
       <use style="stroke:#000000;stroke-width:0.8;" x="403.168371" xlink:href="#m34b48efc08" y="307.584"/>
      </g>
     </g>
     <g id="text_8">
      <!-- 1.6 -->
      <g transform="translate(395.216808 322.182437)scale(0.1 -0.1)">
       <use xlink:href="#DejaVuSans-31"/>
       <use x="63.623047" xlink:href="#DejaVuSans-2e"/>
       <use x="95.410156" xlink:href="#DejaVuSans-36"/>
      </g>
     </g>
    </g>
   </g>
   <g id="matplotlib.axis_2">
    <g id="ytick_1">
     <g id="line2d_9">
      <defs>
       <path d="M 0 0 
L -3.5 0 
" id="m0cd2f7bd58" style="stroke:#000000;stroke-width:0.8;"/>
      </defs>
      <g>
       <use style="stroke:#000000;stroke-width:0.8;" x="57.6" xlink:href="#m0cd2f7bd58" y="301.560859"/>
      </g>
     </g>
     <g id="text_9">
      <!-- −140 -->
      <g transform="translate(23.132812 305.360078)scale(0.1 -0.1)">
       <defs>
        <path d="M 678 2272 
L 4684 2272 
L 4684 1741 
L 678 1741 
L 678 2272 
z
" id="DejaVuSans-2212" transform="scale(0.015625)"/>
       </defs>
       <use xlink:href="#DejaVuSans-2212"/>
       <use x="83.789062" xlink:href="#DejaVuSans-31"/>
       <use x="147.412109" xlink:href="#DejaVuSans-34"/>
       <use x="211.035156" xlink:href="#DejaVuSans-30"/>
      </g>
     </g>
    </g>
    <g id="ytick_2">
     <g id="line2d_10">
      <g>
       <use style="stroke:#000000;stroke-width:0.8;" x="57.6" xlink:href="#m0cd2f7bd58" y="264.925118"/>
      </g>
     </g>
     <g id="text_10">
      <!-- −120 -->
      <g transform="translate(23.132812 268.724337)scale(0.1 -0.1)">
       <use xlink:href="#DejaVuSans-2212"/>
       <use x="83.789062" xlink:href="#DejaVuSans-31"/>
       <use x="147.412109" xlink:href="#DejaVuSans-32"/>
       <use x="211.035156" xlink:href="#DejaVuSans-30"/>
      </g>
     </g>
    </g>
    <g id="ytick_3">
     <g id="line2d_11">
      <g>
       <use style="stroke:#000000;stroke-width:0.8;" x="57.6" xlink:href="#m0cd2f7bd58" y="228.289377"/>
      </g>
     </g>
     <g id="text_11">
      <!-- −100 -->
      <g transform="translate(23.132812 232.088595)scale(0.1 -0.1)">
       <use xlink:href="#DejaVuSans-2212"/>
       <use x="83.789062" xlink:href="#DejaVuSans-31"/>
       <use x="147.412109" xlink:href="#DejaVuSans-30"/>
       <use x="211.035156" xlink:href="#DejaVuSans-30"/>
      </g>
     </g>
    </g>
    <g id="ytick_4">
     <g id="line2d_12">
      <g>
       <use style="stroke:#000000;stroke-width:0.8;" x="57.6" xlink:href="#m0cd2f7bd58" y="191.653635"/>
      </g>
     </g>
     <g id="text_12">
      <!-- −80 -->
      <g transform="translate(29.495313 195.452854)scale(0.1 -0.1)">
       <use xlink:href="#DejaVuSans-2212"/>
       <use x="83.789062" xlink:href="#DejaVuSans-38"/>
       <use x="147.412109" xlink:href="#DejaVuSans-30"/>
      </g>
     </g>
    </g>
    <g id="ytick_5">
     <g id="line2d_13">
      <g>
       <use style="stroke:#000000;stroke-width:0.8;" x="57.6" xlink:href="#m0cd2f7bd58" y="155.017894"/>
      </g>
     </g>
     <g id="text_13">
      <!-- −60 -->
      <g transform="translate(29.495313 158.817113)scale(0.1 -0.1)">
       <use xlink:href="#DejaVuSans-2212"/>
       <use x="83.789062" xlink:href="#DejaVuSans-36"/>
       <use x="147.412109" xlink:href="#DejaVuSans-30"/>
      </g>
     </g>
    </g>
    <g id="ytick_6">
     <g id="line2d_14">
      <g>
       <use style="stroke:#000000;stroke-width:0.8;" x="57.6" xlink:href="#m0cd2f7bd58" y="118.382152"/>
      </g>
     </g>
     <g id="text_14">
      <!-- −40 -->
      <g transform="translate(29.495313 122.181371)scale(0.1 -0.1)">
       <use xlink:href="#DejaVuSans-2212"/>
       <use x="83.789062" xlink:href="#DejaVuSans-34"/>
       <use x="147.412109" xlink:href="#DejaVuSans-30"/>
      </g>
     </g>
    </g>
    <g id="ytick_7">
     <g id="line2d_15">
      <g>
       <use style="stroke:#000000;stroke-width:0.8;" x="57.6" xlink:href="#m0cd2f7bd58" y="81.746411"/>
      </g>
     </g>
     <g id="text_15">
      <!-- −20 -->
      <g transform="translate(29.495313 85.54563)scale(0.1 -0.1)">
       <use xlink:href="#DejaVuSans-2212"/>
       <use x="83.789062" xlink:href="#DejaVuSans-32"/>
       <use x="147.412109" xlink:href="#DejaVuSans-30"/>
      </g>
     </g>
    </g>
    <g id="ytick_8">
     <g id="line2d_16">
      <g>
       <use style="stroke:#000000;stroke-width:0.8;" x="57.6" xlink:href="#m0cd2f7bd58" y="45.11067"/>
      </g>
     </g>
     <g id="text_16">
      <!-- 0 -->
      <g transform="translate(44.2375 48.909888)scale(0.1 -0.1)">
       <use xlink:href="#DejaVuSans-30"/>
      </g>
     </g>
    </g>
   </g>
   <g id="line2d_17">
    <path clip-path="url(#pf6b64b5435)" d="M 73.832727 158.608625 
L 74.702532 158.627774 
L 75.789787 158.86155 
L 78.834103 158.957357 
L 79.051555 159.217254 
L 80.791164 175.609226 
L 82.530773 190.030291 
L 85.575089 212.114021 
L 87.532149 224.560309 
L 89.70666 236.39703 
L 91.446269 244.256327 
L 93.620781 252.406036 
L 95.795292 258.939307 
L 97.752352 263.771436 
L 101.666473 271.134068 
L 103.406082 273.766272 
L 105.580593 276.601173 
L 106.8853 278.023422 
L 107.320202 278.533203 
L 109.494714 280.293639 
L 110.581969 281.023742 
L 111.886676 281.852165 
L 113.408834 282.676659 
L 116.670601 284.667999 
L 117.975308 285.33684 
L 119.062563 285.318132 
L 120.802173 286.120881 
L 121.889428 286.434113 
L 123.629037 287.025353 
L 124.06394 287.136697 
L 124.716293 287.259408 
L 125.151195 287.437495 
L 125.803549 287.656626 
L 127.97806 288.160394 
L 128.412962 288.294571 
L 129.282767 288.588769 
L 133.196887 289.873293 
L 136.676105 290.138758 
L 137.328459 290.356577 
L 138.415715 290.698294 
L 138.850617 290.734994 
L 140.372775 291.211021 
L 141.025128 291.516631 
L 142.112384 291.855725 
L 144.939249 292.273243 
L 146.026504 292.257733 
L 148.201016 292.397249 
L 150.375527 292.266139 
L 151.897685 292.305163 
L 152.767489 292.224192 
L 153.419843 292.054913 
L 154.289647 292.024517 
L 154.72455 291.870088 
L 155.594354 291.994897 
L 157.333963 291.997126 
L 158.63867 292.274789 
L 159.943377 292.248559 
L 161.248084 292.129773 
L 162.335339 292.276908 
L 163.205144 292.304794 
L 163.640046 292.387854 
L 164.074949 292.350903 
L 167.989069 292.768664 
L 168.423971 292.731401 
L 168.858874 292.801813 
L 170.598483 292.712445 
L 172.338092 293.165322 
L 173.207896 293.20718 
L 173.642799 293.307208 
L 174.512603 293.521091 
L 174.947505 293.599088 
L 178.209272 294.190311 
L 180.383784 293.887301 
L 181.688491 293.596799 
L 182.558295 293.409717 
L 183.210648 293.419261 
L 185.602611 293.227788 
L 186.037513 293.084083 
L 186.907318 293.015529 
L 187.34222 293.033166 
L 188.429476 293.118631 
L 188.864378 293.145662 
L 190.169085 293.220383 
L 190.603987 293.189066 
L 192.99595 293.452818 
L 193.430852 293.504842 
L 195.605363 293.900149 
L 197.127521 293.941837 
L 198.86713 294.070948 
L 200.606739 294.041372 
L 201.041642 294.032788 
L 201.693995 293.955714 
L 204.955762 294.500727 
L 209.087334 294.634347 
L 210.39204 293.722662 
L 211.479296 293.539733 
L 212.13165 293.534258 
L 212.566552 293.402747 
L 214.306161 293.183969 
L 215.175965 293.082625 
L 216.915574 293.197584 
L 218.220281 293.109524 
L 221.482048 293.067673 
L 223.004206 293.009299 
L 225.178718 293.212386 
L 228.223034 293.297125 
L 228.875387 293.193976 
L 229.310289 293.207359 
L 229.745191 293.226067 
L 230.614996 293.258312 
L 233.22441 293.400274 
L 233.659312 293.400499 
L 233.876763 292.876734 
L 234.311665 291.374708 
L 234.746568 290.962623 
L 235.833823 291.027036 
L 236.486177 291.147272 
L 237.355981 291.25768 
L 237.790884 291.39363 
L 239.747944 291.707937 
L 240.182846 290.720744 
L 240.400297 290.529074 
L 240.835199 290.522772 
L 241.705004 290.795645 
L 242.139906 290.863456 
L 242.574809 290.723677 
L 245.184222 291.383923 
L 245.619124 291.640699 
L 246.923831 291.8018 
L 247.576185 291.86558 
L 248.445989 292.155446 
L 251.925207 293.225016 
L 252.36011 293.386045 
L 252.795012 293.540743 
L 253.447365 293.678868 
L 253.882268 293.716526 
L 254.534621 293.773149 
L 254.969523 293.800214 
L 255.839328 294.064245 
L 256.926583 294.354895 
L 257.578937 294.414305 
L 258.23129 294.37057 
L 258.666193 294.315081 
L 259.318546 294.319085 
L 259.970899 294.231195 
L 260.623253 294.185438 
L 262.145411 293.912791 
L 263.015215 293.824829 
L 263.450118 293.738519 
L 265.624629 293.641416 
L 266.276982 293.610897 
L 269.103847 294.263666 
L 269.973652 294.280777 
L 271.278358 294.528851 
L 273.45287 294.272211 
L 274.105223 294.256916 
L 275.192479 294.269854 
L 282.803269 295.065726 
L 284.542878 295.015059 
L 284.97778 294.975016 
L 285.412682 294.741908 
L 286.065036 294.694659 
L 287.804645 294.744608 
L 288.674449 294.915463 
L 291.283863 295.092882 
L 292.153667 295.234922 
L 295.850337 295.411084 
L 296.067788 295.354311 
L 296.285239 295.488 
L 296.50269 295.285966 
L 298.45975 276.149304 
L 299.981908 264.802755 
L 301.721517 253.874627 
L 303.026224 246.581504 
L 305.418187 235.522035 
L 306.722894 230.479391 
L 309.114856 222.629008 
L 310.637014 218.628725 
L 314.551134 210.34741 
L 317.160548 205.613 
L 321.29212 199.234207 
L 324.336435 195.22143 
L 324.553887 194.982858 
L 325.423691 191.867443 
L 325.858593 191.178141 
L 327.380751 189.424119 
L 329.772714 186.960494 
L 330.85997 185.765459 
L 331.729774 184.976029 
L 333.686834 183.307005 
L 334.556639 182.553282 
L 335.208992 182.023991 
L 336.73115 180.945945 
L 339.340564 179.001488 
L 340.42782 178.23044 
L 342.167429 176.965421 
L 343.254684 176.173717 
L 344.994293 175.182322 
L 345.646647 174.672761 
L 346.299 174.116371 
L 347.168805 173.458513 
L 350.430572 171.790235 
L 351.300376 171.401227 
L 351.735279 171.077998 
L 352.170181 170.873465 
L 352.822534 170.306636 
L 353.692339 169.802769 
L 354.127241 169.537687 
L 355.431948 168.986779 
L 356.954106 168.307708 
L 357.606459 167.958759 
L 360.650775 166.340767 
L 361.085677 166.139475 
L 364.564896 164.177168 
L 365.217249 163.844453 
L 367.174309 162.863699 
L 368.044114 162.656227 
L 368.913918 162.284815 
L 370.653527 161.578323 
L 371.08843 161.352376 
L 375.654903 160.041941 
L 376.95961 159.99071 
L 379.569024 159.31429 
L 380.873731 158.792379 
L 383.265693 157.960746 
L 384.135498 157.828533 
L 385.875107 157.350397 
L 386.52746 157.229449 
L 391.311385 155.974393 
L 396.965115 154.204056 
L 398.487273 153.98626 
L 398.487273 153.98626 
" style="fill:none;stroke:#000000;stroke-linecap:square;stroke-width:1.5;"/>
   </g>
   <g id="line2d_18">
    <path clip-path="url(#pf6b64b5435)" d="M 73.832727 148.400477 
L 75.789787 148.141147 
L 76.007239 148.183561 
L 76.442141 148.075282 
L 77.746848 148.121636 
L 78.18175 148.062903 
L 79.051555 148.323654 
L 80.573712 154.851069 
L 82.965675 162.863448 
L 84.270382 166.969153 
L 86.009991 171.850737 
L 89.271758 180.171477 
L 95.577841 194.316077 
L 97.534901 197.933605 
L 98.622157 200.023284 
L 101.014119 203.901497 
L 105.363142 210.503241 
L 106.450398 211.97662 
L 111.451774 217.611322 
L 112.539029 218.495648 
L 113.191383 218.751707 
L 117.322954 221.663729 
L 117.757857 221.899511 
L 118.845112 222.609827 
L 119.280015 222.824982 
L 120.36727 223.52036 
L 122.541782 224.616983 
L 123.194135 224.943404 
L 124.281391 225.442807 
L 126.238451 225.993165 
L 126.673353 226.095955 
L 127.543158 226.355277 
L 129.065316 226.650514 
L 129.282767 226.459234 
L 129.717669 225.626623 
L 130.152571 225.434764 
L 130.587474 225.521233 
L 134.936496 226.91564 
L 135.371399 227.038897 
L 137.111008 227.3746 
L 137.763361 227.490767 
L 139.285519 227.710994 
L 140.155324 227.703509 
L 141.894933 227.927241 
L 146.026504 228.385758 
L 148.201016 228.554492 
L 148.635918 228.730546 
L 154.072196 228.915567 
L 155.376903 228.890328 
L 156.464159 228.884914 
L 159.291024 228.686005 
L 160.378279 228.60503 
L 161.682986 228.342477 
L 162.552791 228.272216 
L 163.640046 228.241641 
L 167.336716 228.273435 
L 168.423971 228.31861 
L 170.16358 228.354613 
L 171.033385 228.392272 
L 172.555543 228.217175 
L 182.993197 228.462245 
L 184.732806 228.418629 
L 185.602611 228.422191 
L 186.907318 228.282597 
L 187.559671 228.286399 
L 189.516731 228.265007 
L 196.475168 227.958372 
L 197.562423 227.988716 
L 199.302033 228.191076 
L 199.736935 228.223222 
L 200.606739 228.234723 
L 200.82419 227.732929 
L 201.259093 226.280528 
L 201.693995 226.025931 
L 202.781251 226.031186 
L 206.695371 226.663538 
L 208.652431 226.847127 
L 210.826943 227.151918 
L 211.479296 227.244462 
L 212.349101 227.369768 
L 214.08871 227.597816 
L 214.958514 227.553237 
L 217.350477 227.646459 
L 217.785379 227.74732 
L 218.220281 227.747143 
L 219.090086 227.912301 
L 219.95989 227.941762 
L 221.482048 228.06699 
L 221.699499 228.000457 
L 222.134402 227.370166 
L 223.004206 227.190653 
L 224.526364 227.357466 
L 225.178718 227.463411 
L 225.831071 227.424195 
L 226.265973 227.479984 
L 226.700876 227.376072 
L 227.135778 227.423809 
L 228.005582 227.485546 
L 228.875387 227.502055 
L 229.52774 227.561993 
L 229.962643 227.610705 
L 230.397545 227.453008 
L 231.484801 227.411887 
L 231.702252 227.051556 
L 232.137154 225.671343 
L 232.354605 225.317681 
L 233.006959 225.140851 
L 233.659312 225.205091 
L 234.529116 225.336663 
L 236.051274 225.574363 
L 237.790884 225.736082 
L 238.225786 225.749607 
L 238.878139 225.25069 
L 239.313041 225.265143 
L 240.617748 225.363732 
L 241.270102 225.208755 
L 242.139906 225.21219 
L 242.574809 225.266746 
L 243.662064 225.427542 
L 243.879515 225.395688 
L 244.314418 225.594116 
L 244.966771 225.601076 
L 246.054027 225.797508 
L 249.750696 226.366085 
L 250.837952 226.612312 
L 254.534621 226.95188 
L 255.404426 226.949748 
L 256.056779 226.909638 
L 256.926583 226.760516 
L 258.013839 226.852054 
L 258.883644 226.766198 
L 259.970899 226.812975 
L 261.493057 226.872136 
L 266.059531 226.847199 
L 266.929336 226.863659 
L 269.103847 227.103585 
L 270.626005 227.123949 
L 272.583065 227.211378 
L 273.017967 227.176385 
L 273.670321 227.086326 
L 275.40993 227.130037 
L 277.149539 227.15418 
L 277.584441 227.184721 
L 278.236795 227.248404 
L 278.671697 227.130426 
L 280.628757 227.226298 
L 281.716013 227.163874 
L 282.150915 227.221576 
L 282.803269 227.146554 
L 283.455622 227.195639 
L 284.542878 227.195001 
L 285.630133 227.105488 
L 286.065036 227.113346 
L 286.717389 227.214578 
L 287.587194 227.264354 
L 288.022096 227.30359 
L 288.456998 227.317288 
L 288.8919 227.318079 
L 290.414058 227.364931 
L 290.848961 227.411715 
L 291.936216 227.32903 
L 293.023472 227.328836 
L 293.458374 227.229926 
L 293.893277 227.298553 
L 294.54563 227.286432 
L 295.850337 227.361412 
L 296.285239 227.272398 
L 296.50269 226.982618 
L 297.589946 221.811551 
L 298.45975 218.727373 
L 300.634262 212.538145 
L 302.808773 207.372926 
L 304.548382 203.668216 
L 305.200736 202.464518 
L 306.07054 200.42287 
L 307.810149 197.360626 
L 308.897405 195.789308 
L 310.637014 193.013367 
L 313.898781 188.534914 
L 317.377999 184.204391 
L 318.247804 183.273525 
L 320.857217 180.360279 
L 324.553887 176.818081 
L 326.293496 175.236021 
L 326.945849 174.720451 
L 328.685458 173.172231 
L 330.642518 171.610823 
L 331.947225 170.321914 
L 333.251932 169.299527 
L 334.339188 168.541242 
L 334.77409 168.108153 
L 335.208992 167.753326 
L 336.948601 166.357815 
L 337.600955 165.92358 
L 339.558015 164.498285 
L 340.645271 163.806849 
L 342.167429 162.588072 
L 343.037233 161.848997 
L 343.472135 161.555572 
L 344.124489 160.985183 
L 344.994293 160.200238 
L 345.646647 159.592439 
L 346.516451 159.083459 
L 347.603707 158.645426 
L 350.648023 157.385533 
L 358.258813 152.806026 
L 358.693715 152.535114 
L 359.128617 152.26535 
L 359.998422 151.604409 
L 360.650775 151.181912 
L 362.172933 150.422022 
L 363.260189 150.165056 
L 364.999798 149.141752 
L 366.087054 148.438178 
L 367.826663 147.669096 
L 370.870979 146.251644 
L 371.305881 146.092423 
L 372.610588 145.2375 
L 373.04549 145.099426 
L 374.350197 144.497923 
L 375.437452 143.899448 
L 378.046866 142.079757 
L 378.481768 141.895239 
L 378.916671 141.542959 
L 379.351573 141.242342 
L 379.786475 140.905769 
L 380.873731 140.638919 
L 381.743535 140.211314 
L 382.178438 139.957815 
L 383.700596 139.071073 
L 384.135498 138.648575 
L 384.352949 138.461329 
L 384.787851 137.896795 
L 385.440205 137.349636 
L 387.179814 135.162444 
L 388.48452 134.178701 
L 388.701972 134.09022 
L 388.919423 133.472556 
L 389.136874 133.525889 
L 389.354325 132.874542 
L 389.571776 132.654434 
L 389.789227 132.150461 
L 390.006678 131.261121 
L 390.22413 131.514823 
L 390.441581 130.014209 
L 390.659032 130.489981 
L 390.876483 129.443421 
L 391.093934 129.165276 
L 391.311385 129.258541 
L 391.528836 126.688993 
L 391.746288 128.778665 
L 391.963739 123.362711 
L 392.18119 127.542032 
L 392.398641 113.702669 
L 392.616092 75.111811 
L 392.833543 95.266249 
L 393.050994 129.365215 
L 393.485897 144.281192 
L 393.703348 144.810065 
L 394.13825 147.354015 
L 394.355701 146.733089 
L 394.573152 147.907746 
L 394.790603 147.106728 
L 395.008055 148.02255 
L 395.225506 147.789577 
L 395.442957 147.904074 
L 395.660408 148.244446 
L 395.877859 147.980794 
L 396.09531 148.484324 
L 396.312761 148.39027 
L 396.530213 148.66016 
L 398.269822 149.275015 
L 398.487273 149.30373 
L 398.487273 149.30373 
" style="fill:none;stroke:#000000;stroke-linecap:square;stroke-width:1.5;"/>
   </g>
   <g id="line2d_19">
    <path clip-path="url(#pf6b64b5435)" d="M 73.832727 150.530047 
L 74.919983 150.6336 
L 75.354885 150.594068 
L 76.007239 150.349427 
L 79.051555 150.559333 
L 82.09587 138.855145 
L 82.313322 138.259148 
L 82.530773 137.049748 
L 82.748224 136.858006 
L 83.183126 134.967384 
L 83.400577 134.277018 
L 83.618028 132.705056 
L 83.83548 132.923081 
L 84.052931 130.613972 
L 84.270382 131.403363 
L 84.487833 129.049846 
L 84.705284 128.13266 
L 84.922735 127.981005 
L 85.140186 122.916051 
L 85.357637 128.573176 
L 85.79254 70.248589 
L 86.227442 133.584409 
L 86.662344 145.996431 
L 86.879795 144.755554 
L 87.097247 147.226159 
L 87.314698 146.038028 
L 87.532149 145.981404 
L 87.7496 145.729302 
L 87.967051 144.686483 
L 88.184502 145.048952 
L 88.401953 143.931081 
L 88.619404 144.150289 
L 89.054307 143.313723 
L 89.271758 143.185068 
L 89.489209 142.544728 
L 89.70666 142.281814 
L 90.141562 141.386245 
L 90.793916 140.144791 
L 91.011367 139.842664 
L 91.228818 139.744187 
L 92.316074 138.324543 
L 93.185878 136.719004 
L 93.838232 135.212007 
L 94.273134 134.298147 
L 94.490585 133.556187 
L 94.708036 133.323297 
L 94.925487 132.481507 
L 95.142939 132.371978 
L 95.577841 130.841787 
L 95.795292 130.836023 
L 96.012743 129.400022 
L 96.230194 129.843184 
L 96.447645 128.082891 
L 96.665097 128.354051 
L 97.099999 124.959723 
L 97.31745 125.812361 
L 97.534901 119.577613 
L 97.752352 124.812831 
L 98.187254 67.173257 
L 98.622157 129.546802 
L 99.057059 143.434738 
L 99.27451 142.903572 
L 99.491961 145.121537 
L 99.926864 144.420634 
L 100.144315 144.781427 
L 100.361766 143.669171 
L 100.579217 144.287562 
L 100.796668 143.427321 
L 101.014119 143.518787 
L 101.666473 142.794473 
L 101.883924 142.1048 
L 102.101375 142.07146 
L 104.058435 139.240693 
L 105.145691 137.045141 
L 107.755104 132.095781 
L 107.972556 131.260087 
L 108.190007 131.001156 
L 108.407458 130.117403 
L 108.624909 129.82138 
L 108.84236 129.272989 
L 109.059811 128.295728 
L 109.277262 128.470787 
L 109.494714 127.111503 
L 109.712165 127.47136 
L 109.929616 126.064855 
L 110.364518 125.394276 
L 110.581969 122.757695 
L 110.79942 124.43923 
L 111.016871 118.761498 
L 111.234323 122.736098 
L 111.451774 107.008469 
L 111.669225 68.309006 
L 111.886676 90.387222 
L 112.104127 125.373379 
L 112.539029 140.902079 
L 112.756481 141.095995 
L 112.973932 142.333931 
L 113.191383 142.872866 
L 113.408834 141.861079 
L 113.626285 142.555064 
L 113.843736 141.421739 
L 114.061187 141.975544 
L 114.278638 141.428536 
L 114.713541 141.162435 
L 114.930992 140.577273 
L 115.148443 140.599069 
L 115.365894 140.053972 
L 115.583345 139.948661 
L 117.322954 137.416545 
L 119.280015 133.378268 
L 119.932368 131.991382 
L 120.36727 131.148353 
L 120.584721 130.930666 
L 121.671977 128.551933 
L 121.889428 127.675083 
L 122.106879 127.493028 
L 122.324331 126.043978 
L 122.541782 125.878982 
L 122.976684 124.34494 
L 123.194135 124.518672 
L 123.411586 122.720224 
L 123.629037 123.641171 
L 123.846488 120.947164 
L 124.06394 121.172636 
L 124.281391 119.482746 
L 124.498842 116.887918 
L 124.716293 119.212686 
L 124.933744 83.145 
L 125.151195 68.988354 
L 125.368646 109.762871 
L 125.586098 129.001 
L 126.021 141.746441 
L 126.238451 141.225719 
L 126.455902 143.569147 
L 126.673353 142.348675 
L 126.890804 142.991869 
L 127.325707 142.099413 
L 127.543158 142.386386 
L 127.760609 141.533918 
L 127.97806 141.819239 
L 128.195511 141.311887 
L 128.630413 140.994932 
L 128.847865 140.589612 
L 129.065316 140.532233 
L 129.500218 139.785217 
L 130.370023 138.502347 
L 130.804925 137.712829 
L 132.761985 134.037475 
L 133.63179 132.116431 
L 134.501594 130.354467 
L 134.719045 129.692153 
L 134.936496 129.425323 
L 135.153948 128.509963 
L 135.371399 128.273129 
L 135.806301 126.808394 
L 136.023752 126.419722 
L 136.241203 124.815866 
L 136.458654 124.875038 
L 136.676105 122.973243 
L 136.893557 123.390769 
L 137.328459 120.363054 
L 137.54591 120.746846 
L 137.763361 115.40306 
L 137.980812 120.029762 
L 138.415715 65.497275 
L 138.850617 126.541756 
L 139.285519 141.083717 
L 139.50297 140.494479 
L 139.720421 142.571069 
L 140.155324 141.688575 
L 140.372775 141.823028 
L 140.590226 140.838196 
L 140.807677 141.303993 
L 141.025128 140.344643 
L 141.242579 140.37293 
L 141.46003 140.083472 
L 141.677482 139.608709 
L 141.894933 139.506631 
L 142.112384 138.930152 
L 142.329835 138.901537 
L 143.634542 136.781258 
L 146.461407 132.04709 
L 148.201016 127.960589 
L 148.418467 127.036063 
L 148.635918 126.877871 
L 148.853369 125.307067 
L 149.07082 125.443194 
L 149.288271 123.917204 
L 149.505722 123.577401 
L 149.723174 122.925556 
L 149.940625 120.439127 
L 150.158076 121.853045 
L 150.375527 116.010238 
L 150.592978 119.355857 
L 150.810429 102.574938 
L 151.02788 66.042471 
L 151.245332 87.898991 
L 151.462783 121.447278 
L 151.897685 138.325651 
L 152.115136 139.076052 
L 152.332587 140.774692 
L 152.550038 141.292906 
L 152.767489 140.653664 
L 152.984941 141.16081 
L 153.202392 139.963649 
L 153.419843 140.346859 
L 153.637294 139.534773 
L 154.072196 139.061267 
L 154.289647 138.400999 
L 154.507099 138.431263 
L 154.72455 137.956078 
L 154.942001 137.795358 
L 155.376903 137.073645 
L 155.594354 136.852072 
L 156.029257 136.184908 
L 156.899061 135.137925 
L 157.551414 134.191202 
L 159.725926 129.873579 
L 160.378279 127.919062 
L 160.59573 127.778768 
L 161.030633 126.157773 
L 161.248084 125.695033 
L 161.465535 124.26607 
L 161.682986 124.531134 
L 161.900437 122.72206 
L 162.117888 123.237226 
L 162.552791 120.24809 
L 162.770242 120.146432 
L 162.987693 115.441885 
L 163.205144 119.820819 
L 163.640046 64.464764 
L 164.074949 124.825244 
L 164.509851 140.027374 
L 164.727302 140.059555 
L 164.944753 142.385478 
L 165.162204 141.908312 
L 165.379655 142.007452 
L 165.597106 142.253001 
L 165.814558 141.515409 
L 166.032009 142.14269 
L 166.24946 141.502985 
L 166.466911 141.784012 
L 167.771618 140.620993 
L 168.20652 140.071929 
L 172.555543 131.451842 
L 172.990445 130.485297 
L 173.86025 128.173028 
L 174.077701 128.044801 
L 174.295152 126.853867 
L 174.512603 126.589733 
L 174.730054 126.091445 
L 174.947505 124.950642 
L 175.164956 125.251826 
L 175.382408 123.285871 
L 175.599859 123.851743 
L 175.81731 121.618731 
L 176.034761 121.104334 
L 176.252212 120.196721 
L 176.469663 116.294278 
L 176.687114 119.288865 
L 177.122017 65.854531 
L 177.556919 125.877037 
L 177.991821 139.645339 
L 178.209272 139.272122 
L 178.426723 141.591357 
L 178.644175 140.705566 
L 178.861626 141.040374 
L 179.079077 140.980413 
L 179.296528 140.435795 
L 179.513979 140.866109 
L 179.73143 139.997872 
L 179.948881 140.139046 
L 180.383784 139.311413 
L 180.601235 139.232694 
L 180.818686 138.765735 
L 181.036137 138.627336 
L 181.471039 137.78764 
L 182.993197 135.528146 
L 184.515355 132.739429 
L 186.472416 128.419433 
L 186.689867 127.507418 
L 186.907318 127.283268 
L 187.559671 125.70126 
L 187.777122 124.239984 
L 187.994573 124.4624 
L 188.212025 122.866109 
L 188.429476 122.721007 
L 188.646927 121.868503 
L 188.864378 119.576473 
L 189.081829 120.493192 
L 189.29928 115.002814 
L 189.516731 118.859263 
L 189.734183 99.247573 
L 189.951634 64.440065 
L 190.603987 130.261083 
L 190.821438 139.090983 
L 191.038889 140.096093 
L 191.25634 142.127145 
L 191.473792 142.566302 
L 191.691243 142.054477 
L 191.908694 142.576352 
L 192.126145 141.649036 
L 192.343596 142.074517 
L 192.561047 141.369521 
L 192.778498 141.322299 
L 192.99595 141.138004 
L 193.213401 140.636262 
L 193.430852 140.61053 
L 193.648303 139.967333 
L 193.865754 139.817067 
L 194.735559 138.306676 
L 194.95301 138.124893 
L 196.257717 135.880761 
L 197.997326 132.412181 
L 198.432228 131.253903 
L 198.649679 130.913015 
L 199.519484 128.907347 
L 200.171837 127.695779 
L 200.389288 126.809604 
L 200.606739 126.614532 
L 201.259093 124.983917 
L 201.476544 123.440858 
L 201.693995 123.448993 
L 201.911446 121.695487 
L 202.128897 121.477316 
L 202.346348 120.331068 
L 202.5638 118.252494 
L 202.781251 119.057129 
L 202.998702 113.917108 
L 203.216153 117.915281 
L 203.433604 97.231849 
L 203.651055 64.080748 
L 204.303409 130.736448 
L 204.52086 139.108565 
L 204.738311 139.618253 
L 204.955762 141.535145 
L 205.173213 141.759054 
L 205.390664 141.263518 
L 205.608115 141.591619 
L 205.825567 140.513911 
L 206.043018 140.944726 
L 206.260469 140.166375 
L 206.695371 139.606763 
L 206.912822 138.975122 
L 207.130273 138.829063 
L 207.347725 138.272606 
L 207.565176 138.179171 
L 208.652431 136.312697 
L 211.696747 130.999816 
L 212.566552 128.735712 
L 212.784003 128.415918 
L 213.001454 127.40153 
L 213.218905 127.038574 
L 213.653807 125.529477 
L 213.871259 125.478573 
L 214.08871 123.999484 
L 214.306161 124.079538 
L 214.523612 122.56195 
L 214.741063 122.670159 
L 214.958514 121.960363 
L 215.175965 119.853674 
L 215.393417 120.883175 
L 215.610868 115.862061 
L 215.828319 119.756925 
L 216.04577 99.338019 
L 216.263221 64.473829 
L 216.915574 129.311573 
L 217.133026 137.646295 
L 217.350477 138.694726 
L 217.567928 140.862939 
L 217.785379 141.099471 
L 218.00283 140.538161 
L 218.220281 141.036434 
L 218.437732 139.98005 
L 218.655184 140.254261 
L 218.872635 139.443638 
L 219.307537 138.921512 
L 219.524988 138.387212 
L 219.742439 138.315153 
L 219.95989 137.728073 
L 220.177342 137.531123 
L 221.047146 136.013503 
L 221.699499 134.990721 
L 223.221657 132.45755 
L 225.831071 126.770129 
L 226.048522 125.587099 
L 226.265973 125.557621 
L 226.700876 124.092758 
L 226.918327 123.933157 
L 227.135778 122.4389 
L 227.353229 123.005862 
L 227.57068 120.09694 
L 227.788131 120.746668 
L 228.223034 115.865665 
L 228.440485 114.101422 
L 228.657936 76.787569 
L 228.875387 69.867762 
L 229.092838 109.206223 
L 229.52774 134.511025 
L 229.745191 139.217447 
L 229.962643 139.274983 
L 230.180094 141.303331 
L 230.397545 140.340102 
L 230.614996 141.155241 
L 230.832447 140.601849 
L 231.049898 140.369808 
L 231.267349 140.442501 
L 231.484801 139.820155 
L 231.702252 140.039019 
L 231.919703 139.473206 
L 232.137154 139.4369 
L 233.22441 137.916313 
L 237.573432 129.615825 
L 237.790884 128.81494 
L 238.008335 128.508847 
L 238.443237 127.281506 
L 238.660688 126.922393 
L 238.878139 125.821838 
L 239.09559 125.781727 
L 239.313041 124.351283 
L 239.530493 124.157574 
L 239.965395 122.358836 
L 240.182846 122.412929 
L 240.400297 119.411148 
L 240.617748 120.64467 
L 240.835199 115.84572 
L 241.052651 118.044986 
L 241.270102 107.302662 
L 241.487553 67.762941 
L 241.705004 79.503905 
L 241.922455 116.80476 
L 242.357357 136.586968 
L 242.79226 140.03748 
L 243.009711 141.542212 
L 243.227162 140.72411 
L 243.444613 141.692813 
L 243.662064 140.806673 
L 243.879515 141.171256 
L 244.314418 140.430525 
L 244.531869 140.529376 
L 244.74932 139.87167 
L 244.966771 139.982494 
L 245.401673 139.161092 
L 246.488929 137.965887 
L 248.228538 134.71181 
L 248.66344 133.923528 
L 250.620501 129.890897 
L 250.837952 128.988352 
L 251.055403 128.706137 
L 251.272854 127.768356 
L 251.707756 126.659974 
L 251.925207 125.642843 
L 252.142658 125.459827 
L 252.36011 123.877552 
L 252.577561 123.863576 
L 252.795012 122.293572 
L 253.229914 120.956339 
L 253.447365 118.748858 
L 253.664816 119.982058 
L 253.882268 114.703338 
L 254.099719 117.850123 
L 254.31717 100.18985 
L 254.534621 64.693014 
L 254.752072 86.583129 
L 254.969523 119.8893 
L 255.404426 137.46131 
L 255.621877 138.197395 
L 255.839328 139.949896 
L 256.056779 140.497453 
L 256.27423 139.93112 
L 256.491681 140.644555 
L 256.709132 139.746487 
L 256.926583 140.277749 
L 257.144035 139.771618 
L 257.578937 139.655196 
L 257.796388 139.169133 
L 258.013839 139.229727 
L 258.23129 138.844116 
L 258.448741 138.761898 
L 259.753448 136.58306 
L 260.623253 135.044041 
L 263.88502 128.274311 
L 264.102471 127.349159 
L 264.319922 126.965835 
L 264.754824 125.483038 
L 264.972275 125.261159 
L 265.189727 123.829933 
L 265.407178 124.063497 
L 265.624629 122.395827 
L 265.84208 122.204354 
L 266.059531 121.088115 
L 266.276982 119.069715 
L 266.494433 119.913172 
L 266.711885 114.731331 
L 266.929336 118.794821 
L 267.146787 97.881668 
L 267.364238 63.649848 
L 268.016591 129.437448 
L 268.234043 137.805743 
L 268.451494 138.48502 
L 268.668945 140.515857 
L 268.886396 140.980685 
L 269.103847 140.729438 
L 269.321298 141.318269 
L 269.538749 140.485593 
L 269.7562 140.998947 
L 269.973652 140.297806 
L 270.191103 140.287216 
L 270.408554 140.153945 
L 270.626005 139.66808 
L 270.843456 139.661076 
L 271.060907 139.064371 
L 271.278358 138.91364 
L 271.713261 138.30903 
L 271.930712 138.134543 
L 272.365614 137.299654 
L 273.670321 135.346004 
L 274.322674 134.317838 
L 275.192479 132.887833 
L 275.627381 132.026544 
L 276.062283 131.078628 
L 276.714637 129.947369 
L 277.149539 129.210376 
L 277.36699 128.414304 
L 277.584441 128.283149 
L 278.236795 126.695303 
L 278.454246 125.465391 
L 278.671697 125.374165 
L 278.889148 123.914022 
L 279.106599 123.707752 
L 279.541502 121.912463 
L 279.758953 122.139414 
L 279.976404 119.459081 
L 280.193855 120.533824 
L 280.411306 115.568773 
L 280.628757 117.766456 
L 280.846208 106.647356 
L 281.06366 67.556013 
L 281.281111 79.682666 
L 281.498562 116.600905 
L 281.933464 136.082724 
L 282.368366 139.244324 
L 282.585817 140.585872 
L 282.803269 139.75029 
L 283.02072 140.60705 
L 283.238171 139.709636 
L 283.455622 140.067111 
L 283.890524 139.487494 
L 284.107975 139.551531 
L 284.325427 139.035773 
L 284.542878 139.087459 
L 284.760329 138.71368 
L 284.97778 138.576621 
L 285.630133 137.598554 
L 286.282487 136.534989 
L 286.93484 135.472001 
L 288.8919 132.210926 
L 289.979156 130.216351 
L 290.631509 128.580431 
L 292.58857 124.210566 
L 292.806021 122.873708 
L 293.023472 122.91365 
L 293.458374 120.865492 
L 293.675825 120.545189 
L 293.893277 117.853006 
L 294.110728 118.966606 
L 294.328179 113.921722 
L 294.54563 116.804524 
L 294.763081 103.663108 
L 294.980532 65.859696 
L 295.197983 81.413293 
L 295.415434 116.991661 
L 295.850337 136.327797 
L 296.50269 140.708998 
L 296.720141 140.791612 
L 296.937592 142.592687 
L 297.155044 142.440502 
L 297.372495 143.697864 
L 297.807397 144.49947 
L 298.024848 145.117901 
L 298.242299 145.129263 
L 298.45975 145.763422 
L 298.677201 145.930115 
L 299.112104 146.702075 
L 300.634262 148.59444 
L 302.15642 150.125191 
L 303.243675 150.80241 
L 303.678578 151.007241 
L 304.11348 151.242266 
L 304.983284 151.470689 
L 308.245051 152.952005 
L 308.679954 153.112311 
L 309.332307 153.322698 
L 310.854465 153.521312 
L 311.506818 153.654347 
L 312.594074 153.845172 
L 314.551134 153.898726 
L 314.986037 154.037899 
L 317.812901 154.111849 
L 318.247804 154.054474 
L 319.117608 153.934948 
L 319.552511 153.939592 
L 319.987413 154.073927 
L 323.901533 153.597409 
L 324.553887 153.472302 
L 324.988789 153.446317 
L 325.423691 153.360605 
L 328.468007 153.366455 
L 330.85997 153.1535 
L 331.512323 152.972281 
L 331.947225 152.929632 
L 333.251932 152.942653 
L 335.861346 152.87924 
L 336.73115 152.707929 
L 337.166052 152.705764 
L 337.818406 152.741382 
L 338.470759 152.656683 
L 340.210368 152.4549 
L 347.168805 152.461146 
L 347.603707 152.534293 
L 348.690963 152.56191 
L 349.125865 152.634684 
L 352.170181 152.675967 
L 352.605083 152.719079 
L 352.822534 152.628925 
L 353.90979 152.755123 
L 355.214497 152.55955 
L 355.86685 152.515134 
L 356.301752 152.509754 
L 357.171557 152.386675 
L 357.606459 152.420983 
L 358.476264 152.283198 
L 360.868226 152.120419 
L 361.303129 152.166762 
L 361.738031 152.118858 
L 362.607835 152.186598 
L 363.042738 152.221669 
L 364.129993 152.533 
L 366.739407 153.1134 
L 367.826663 153.378908 
L 369.783723 153.691703 
L 370.218625 153.746971 
L 370.653527 153.905796 
L 371.523332 154.111347 
L 372.393136 154.220666 
L 372.828039 154.213403 
L 374.132746 154.417648 
L 374.350197 154.492997 
L 374.567648 154.423398 
L 375.00255 154.572941 
L 375.437452 154.503103 
L 375.872355 154.586034 
L 376.307257 154.619123 
L 377.177061 154.734524 
L 378.264317 154.885879 
L 379.134122 155.083571 
L 380.003926 155.161018 
L 380.65628 155.303288 
L 381.091182 155.302764 
L 381.526084 155.42791 
L 382.178438 155.263865 
L 383.700596 155.080839 
L 386.310009 155.36796 
L 389.571776 155.118071 
L 390.441581 155.087497 
L 391.093934 155.092972 
L 392.616092 155.044371 
L 393.920799 154.815123 
L 394.355701 154.742204 
L 395.225506 154.84077 
L 395.660408 154.803933 
L 396.09531 154.850072 
L 398.05237 154.435449 
L 398.487273 154.426184 
L 398.487273 154.426184 
" style="fill:none;stroke:#000000;stroke-linecap:square;stroke-width:1.5;"/>
   </g>
   <g id="line2d_20">
    <path clip-path="url(#pf6b64b5435)" d="M 73.832727 155.157856 
L 75.137434 155.208114 
L 75.354885 155.302013 
L 75.572336 155.270792 
L 75.789787 155.362951 
L 76.22469 155.223987 
L 76.442141 155.094745 
L 76.659592 154.436172 
L 76.877043 154.437423 
L 77.094494 154.158024 
L 77.311945 154.167386 
L 77.529397 154.444701 
L 77.746848 153.977993 
L 77.964299 154.638671 
L 78.18175 154.02337 
L 78.399201 154.539683 
L 78.616652 154.401027 
L 78.834103 154.040178 
L 79.051555 154.685637 
L 79.703908 139.194432 
L 80.13881 131.430716 
L 80.356261 124.142581 
L 80.573712 125.924694 
L 81.008615 63.119968 
L 81.443517 126.314949 
L 81.878419 135.318918 
L 82.09587 131.672907 
L 82.313322 131.070538 
L 82.530773 128.516204 
L 82.748224 124.009333 
L 82.965675 123.564276 
L 83.183126 117.148007 
L 83.400577 116.838162 
L 83.618028 108.820183 
L 83.83548 67.282118 
L 84.052931 68.246399 
L 84.270382 106.732083 
L 84.705284 125.561 
L 84.922735 128.180114 
L 85.140186 126.760516 
L 85.357637 127.529936 
L 85.79254 123.495019 
L 86.009991 122.254475 
L 86.227442 118.61494 
L 86.444893 118.32053 
L 86.662344 113.452218 
L 86.879795 112.750552 
L 87.097247 107.443774 
L 87.314698 67.803752 
L 87.532149 62.612271 
L 87.7496 100.151493 
L 87.967051 116.346709 
L 88.184502 124.055374 
L 88.401953 127.631933 
L 88.619404 126.614924 
L 88.836856 127.258253 
L 89.271758 123.461748 
L 89.489209 122.049439 
L 89.70666 119.580334 
L 89.924111 119.239486 
L 90.141562 116.18701 
L 90.576465 113.222596 
L 90.793916 108.506009 
L 91.011367 110.068564 
L 91.446269 55.403424 
L 91.881172 110.891795 
L 92.316074 126.001875 
L 92.533525 125.888787 
L 92.750976 126.718766 
L 93.403329 123.231537 
L 93.838232 120.055803 
L 94.055683 118.733614 
L 94.273134 116.710156 
L 94.490585 116.208522 
L 94.708036 113.341941 
L 94.925487 112.848605 
L 95.577841 106.187068 
L 96.012743 56.323162 
L 96.447645 111.056027 
L 96.882548 125.149851 
L 97.099999 124.694969 
L 97.31745 125.922882 
L 97.534901 124.031297 
L 97.752352 123.852381 
L 98.187254 120.484105 
L 98.404706 119.249018 
L 98.622157 116.812184 
L 98.839608 116.357227 
L 99.057059 112.789758 
L 99.27451 112.689058 
L 99.491961 108.37227 
L 99.709412 107.722938 
L 99.926864 99.941628 
L 100.144315 63.109854 
L 100.361766 62.926552 
L 100.579217 97.137111 
L 101.014119 120.589365 
L 101.23157 124.001036 
L 101.449021 124.050183 
L 101.666473 125.008819 
L 101.883924 123.379573 
L 102.101375 122.993132 
L 102.971179 116.350233 
L 103.188631 115.755888 
L 103.623533 111.675152 
L 103.840984 110.751212 
L 104.058435 105.849175 
L 104.275886 107.392529 
L 104.710789 55.224011 
L 105.363142 114.233903 
L 105.580593 120.96321 
L 106.015495 123.095037 
L 106.450398 121.333607 
L 107.972556 110.957654 
L 108.190007 106.912 
L 108.407458 107.658867 
L 108.624909 88.288205 
L 108.84236 55.813367 
L 109.059811 70.924418 
L 109.277262 100.726122 
L 109.712165 120.113791 
L 109.929616 121.794735 
L 110.147067 122.56135 
L 110.364518 122.627572 
L 110.581969 121.036067 
L 110.79942 120.453952 
L 111.234323 117.303404 
L 111.451774 116.170607 
L 111.669225 113.717016 
L 111.886676 112.960234 
L 112.321578 108.892562 
L 112.539029 106.806201 
L 112.756481 103.191294 
L 112.973932 102.386043 
L 113.408834 53.568 
L 113.843736 103.787111 
L 114.278638 119.849538 
L 114.713541 122.599852 
L 115.148443 121.575681 
L 116.670601 112.629494 
L 116.888052 109.879757 
L 117.105503 109.196871 
L 117.322954 104.811635 
L 117.540406 104.529341 
L 117.757857 92.344512 
L 117.975308 58.753908 
L 118.192759 63.716988 
L 118.41021 94.7214 
L 118.845112 117.034756 
L 119.062563 119.833591 
L 119.497466 121.580314 
L 119.714917 119.998271 
L 119.932368 119.695573 
L 120.36727 117.139365 
L 120.584721 116.121216 
L 120.802173 113.977682 
L 121.019624 113.590273 
L 121.237075 111.106047 
L 121.454526 109.932557 
L 121.671977 107.688674 
L 121.889428 104.239231 
L 122.106879 103.095935 
L 122.541782 54.756151 
L 122.976684 102.181687 
L 123.411586 119.1472 
L 123.846488 121.780107 
L 124.06394 120.66417 
L 124.281391 120.164498 
L 124.933744 115.966998 
L 125.151195 113.79585 
L 125.368646 112.887656 
L 125.586098 110.005993 
L 125.803549 109.214162 
L 126.021 105.002596 
L 126.238451 103.85802 
L 126.455902 92.44068 
L 126.673353 59.694112 
L 126.890804 61.374171 
L 127.325707 105.612289 
L 127.543158 114.56538 
L 127.760609 118.480309 
L 128.195511 120.821302 
L 128.412962 119.468124 
L 128.630413 118.98608 
L 129.282767 115.402954 
L 129.93512 109.743576 
L 130.370023 106.475503 
L 130.587474 102.360978 
L 130.804925 101.356115 
L 131.239827 54.692103 
L 131.89218 109.805461 
L 132.109632 117.131113 
L 132.544534 120.755625 
L 132.761985 120.434843 
L 132.979436 119.797122 
L 134.066692 113.656468 
L 135.371399 101.086725 
L 135.58885 95.858467 
L 135.806301 66.887262 
L 136.023752 57.134418 
L 136.458654 103.066499 
L 136.893557 118.237838 
L 137.328459 120.721583 
L 137.54591 119.922575 
L 137.763361 119.591626 
L 138.633166 113.601859 
L 138.850617 112.740091 
L 139.068068 110.544817 
L 139.285519 109.888143 
L 139.937872 105.35429 
L 140.155324 101.479589 
L 140.372775 101.632696 
L 140.807677 54.732265 
L 141.025128 70.732081 
L 141.242579 96.790562 
L 141.677482 116.937307 
L 142.112384 120.365194 
L 142.329835 120.033379 
L 142.982188 116.862771 
L 143.634542 112.283401 
L 144.504346 105.137627 
L 144.721797 101.000767 
L 144.939249 100.177915 
L 145.1567 87.872276 
L 145.374151 58.362203 
L 145.591602 63.10648 
L 146.026504 104.631011 
L 146.243955 113.339975 
L 146.461407 116.969124 
L 146.678858 118.473179 
L 146.896309 119.141386 
L 147.331211 117.818602 
L 148.201016 113.074522 
L 148.853369 107.612629 
L 149.07082 106.311588 
L 149.505722 101.396797 
L 149.723174 97.761031 
L 150.158076 55.373244 
L 150.592978 99.726885 
L 151.02788 116.239406 
L 151.462783 119.221424 
L 152.115136 117.485618 
L 153.637294 106.623224 
L 153.854745 102.602551 
L 154.072196 101.968203 
L 154.289647 92.123681 
L 154.507099 61.856539 
L 154.72455 60.692787 
L 155.159452 102.760662 
L 155.376903 112.013564 
L 155.594354 116.288974 
L 155.811805 117.865066 
L 156.029257 118.436014 
L 156.68161 115.164863 
L 157.333963 111.266969 
L 158.421219 102.769488 
L 158.63867 99.41297 
L 158.856121 98.12018 
L 159.291024 55.280985 
L 159.508475 69.458819 
L 159.943377 105.21844 
L 160.160828 112.813808 
L 160.59573 116.949169 
L 160.813182 117.066896 
L 161.465535 114.374315 
L 162.335339 108.368773 
L 162.987693 103.016363 
L 163.205144 99.316935 
L 163.422595 98.355892 
L 163.640046 83.041339 
L 163.857497 56.812972 
L 164.074949 63.943209 
L 164.509851 103.484531 
L 164.727302 112.220384 
L 165.162204 117.645667 
L 165.379655 118.350276 
L 165.814558 117.390505 
L 167.554167 106.126471 
L 168.423971 97.980845 
L 168.641422 81.377161 
L 168.858874 56.07849 
L 169.076325 65.541954 
L 169.511227 102.927548 
L 169.728678 111.695747 
L 170.16358 116.699293 
L 170.381031 117.284569 
L 171.250836 113.135855 
L 171.903189 108.598044 
L 172.120641 105.957358 
L 172.338092 104.691603 
L 172.772994 98.867978 
L 172.990445 92.424934 
L 173.207896 66.617506 
L 173.425347 56.840742 
L 173.86025 97.300038 
L 174.295152 113.2973 
L 174.730054 116.750143 
L 174.947505 116.255968 
L 175.164956 116.195666 
L 176.252212 110.396616 
L 177.122017 103.38347 
L 177.339468 101.817505 
L 177.77437 96.990534 
L 178.209272 56.539164 
L 178.426723 68.368667 
L 178.861626 102.473044 
L 179.079077 110.553137 
L 179.513979 115.921444 
L 179.73143 116.151361 
L 180.166333 114.668049 
L 181.471039 106.756807 
L 181.905942 103.029131 
L 182.123393 99.905817 
L 182.340844 98.788465 
L 182.558295 85.165338 
L 182.775746 59.539056 
L 182.993197 62.06468 
L 183.4281 99.482912 
L 183.645551 108.677368 
L 184.080453 115.088973 
L 184.297904 115.845147 
L 184.732806 114.589863 
L 186.037513 107.025266 
L 186.689867 101.217685 
L 187.124769 95.372531 
L 187.559671 56.429275 
L 187.777122 67.438818 
L 188.212025 102.391819 
L 188.429476 110.261158 
L 188.864378 115.931839 
L 189.081829 116.252575 
L 189.29928 116.060754 
L 189.516731 115.569945 
L 191.038889 106.435974 
L 191.691243 99.877903 
L 191.908694 98.651023 
L 192.126145 88.566353 
L 192.343596 62.550409 
L 192.561047 59.074976 
L 192.99595 97.32843 
L 193.430852 111.697969 
L 193.865754 115.10191 
L 194.083205 114.914282 
L 194.300656 114.501668 
L 194.735559 112.417588 
L 195.387912 108.272498 
L 196.040265 103.794888 
L 196.91007 95.549167 
L 197.127521 90.32587 
L 197.562423 56.808004 
L 198.214777 103.33302 
L 198.432228 109.873137 
L 198.86713 114.241085 
L 199.084581 114.228927 
L 199.302033 114.050882 
L 200.389288 108.670507 
L 201.476544 100.081653 
L 201.911446 94.190446 
L 202.346348 57.760279 
L 202.5638 64.617459 
L 202.998702 98.932634 
L 203.216153 107.392709 
L 203.651055 113.632557 
L 203.868506 114.367254 
L 204.085957 114.243884 
L 204.303409 113.968947 
L 205.173213 109.947117 
L 206.260469 103.039379 
L 207.130273 94.388796 
L 207.347725 86.108476 
L 207.565176 63.494448 
L 207.782627 58.66407 
L 208.217529 95.237891 
L 208.652431 111.159175 
L 209.087334 114.744103 
L 209.522236 114.27702 
L 210.174589 111.775242 
L 210.826943 107.747968 
L 211.044394 106.860246 
L 211.696747 101.877239 
L 212.13165 95.694843 
L 212.566552 57.621945 
L 212.784003 68.055322 
L 213.218905 100.847223 
L 213.436356 108.311034 
L 213.871259 112.826817 
L 214.08871 113.02282 
L 214.523612 112.443316 
L 215.610868 107.692943 
L 216.480672 101.239882 
L 216.915574 96.247606 
L 217.133026 93.289685 
L 217.567928 58.163124 
L 217.785379 66.968403 
L 218.220281 99.268042 
L 218.437732 106.906977 
L 218.655184 110.259652 
L 218.872635 111.813004 
L 219.090086 111.725925 
L 219.524988 110.444098 
L 220.177342 107.279453 
L 220.612244 105.109235 
L 221.482048 100.141475 
L 221.916951 95.719799 
L 222.134402 88.495678 
L 222.351853 68.18569 
L 222.569304 58.667543 
L 223.221657 98.529378 
L 223.65656 107.597454 
L 223.874011 109.399869 
L 224.091462 110.127283 
L 224.308913 110.374228 
L 224.743815 109.369189 
L 225.396169 106.16333 
L 226.700876 98.612345 
L 227.135778 93.820644 
L 227.353229 90.335373 
L 227.788131 59.900308 
L 228.005582 64.51273 
L 228.440485 94.722175 
L 228.875387 106.953889 
L 229.092838 109.634604 
L 229.310289 110.781284 
L 229.52774 110.620756 
L 229.745191 110.225881 
L 230.397545 107.914481 
L 231.267349 103.335065 
L 231.919703 97.488311 
L 232.354605 91.345898 
L 232.789507 61.589702 
L 233.006959 61.853993 
L 233.441861 92.037006 
L 233.876763 106.463769 
L 234.094214 109.405418 
L 234.311665 110.606008 
L 234.529116 110.661923 
L 234.746568 110.300201 
L 235.398921 108.064163 
L 235.833823 105.753133 
L 236.268726 102.800649 
L 236.703628 98.855553 
L 237.13853 92.700903 
L 237.573432 61.224696 
L 237.790884 63.879335 
L 238.225786 93.916893 
L 238.660688 106.812551 
L 238.878139 109.223706 
L 239.09559 110.143152 
L 239.313041 110.234629 
L 239.530493 109.688311 
L 240.182846 106.657649 
L 240.617748 103.919971 
L 241.052651 100.435261 
L 241.705004 93.111678 
L 241.922455 86.497528 
L 242.357357 60.365511 
L 242.79226 85.130039 
L 243.227162 103.23361 
L 243.662064 109.940487 
L 243.879515 110.717304 
L 244.096966 110.978544 
L 244.314418 110.664722 
L 244.966771 108.112313 
L 245.836576 102.867856 
L 246.70638 94.502843 
L 246.923831 89.047513 
L 247.358733 59.443697 
L 247.576185 67.19532 
L 248.011087 94.520767 
L 248.445989 106.151777 
L 248.66344 108.679329 
L 248.880891 109.589937 
L 249.098343 109.638609 
L 249.533245 108.541221 
L 250.185598 105.428498 
L 251.272854 99.92976 
L 252.142658 92.213928 
L 252.36011 86.257105 
L 252.795012 60.607193 
L 253.012463 69.241155 
L 253.447365 94.400721 
L 253.882268 104.698794 
L 254.099719 106.558548 
L 254.31717 107.324831 
L 254.534621 107.513209 
L 254.969523 106.281432 
L 256.491681 98.066786 
L 257.144035 93.67273 
L 257.578937 88.034258 
L 258.013839 64.597193 
L 258.23129 63.668028 
L 258.883644 95.846782 
L 259.318546 104.211145 
L 259.535997 105.416759 
L 259.753448 105.648602 
L 259.970899 105.424306 
L 260.623253 103.402349 
L 261.058155 101.434228 
L 261.710508 97.394688 
L 262.580313 89.805434 
L 262.797764 87.27959 
L 263.015215 79.94249 
L 263.232666 68.316039 
L 263.450118 65.460942 
L 264.319922 99.151568 
L 264.754824 104.465216 
L 264.972275 105.484637 
L 265.189727 105.702357 
L 265.407178 105.327125 
L 266.276982 101.12226 
L 268.016591 90.665996 
L 269.103847 82.039089 
L 269.538749 75.033035 
L 269.7562 75.117533 
L 270.843456 94.086463 
L 271.278358 97.244876 
L 271.49581 97.953167 
L 271.930712 98.495117 
L 272.148163 98.489812 
L 272.800516 97.612118 
L 273.235419 96.542984 
L 273.670321 94.540612 
L 274.105223 92.031235 
L 274.540125 89.109941 
L 274.975028 86.756245 
L 275.192479 85.293504 
L 275.844832 83.552712 
L 276.062283 83.165561 
L 276.279735 83.124968 
L 276.932088 86.115029 
L 277.584441 89.414714 
L 278.019344 91.219977 
L 278.671697 93.282843 
L 279.106599 94.559288 
L 279.32405 94.712147 
L 279.976404 94.446431 
L 280.411306 94.140997 
L 280.628757 93.531736 
L 281.498562 89.675581 
L 282.368366 93.45187 
L 282.585817 93.888926 
L 282.803269 94.021545 
L 283.02072 93.85315 
L 283.238171 94.047843 
L 283.455622 94.091811 
L 284.107975 93.307888 
L 284.542878 92.343237 
L 285.195231 90.353534 
L 285.630133 90.256057 
L 285.847584 89.979561 
L 286.282487 89.758463 
L 286.499938 89.470119 
L 286.717389 89.409563 
L 287.369742 88.846538 
L 287.804645 89.343291 
L 288.239547 89.352556 
L 288.8919 87.763911 
L 289.109352 87.927341 
L 289.544254 88.780124 
L 289.979156 89.998471 
L 290.196607 90.13885 
L 290.848961 91.395175 
L 291.066412 91.559248 
L 291.718765 91.395634 
L 292.153667 90.396769 
L 292.58857 90.215164 
L 292.806021 90.210257 
L 293.240923 89.487332 
L 293.458374 89.130977 
L 294.110728 87.541946 
L 294.328179 87.305629 
L 294.54563 87.32324 
L 294.980532 88.039407 
L 295.197983 88.154639 
L 295.632886 88.804943 
L 295.850337 88.65825 
L 296.067788 88.887564 
L 296.285239 88.814368 
L 296.50269 89.320854 
L 297.807397 114.617061 
L 298.45975 121.873544 
L 298.894653 124.887625 
L 299.764457 128.70366 
L 300.851713 132.563412 
L 301.721517 135.208184 
L 302.591322 136.989012 
L 303.461126 138.760767 
L 303.896029 139.556714 
L 305.418187 141.648048 
L 305.853089 142.197088 
L 306.940345 143.542784 
L 308.245051 144.800602 
L 309.767209 145.884028 
L 312.159172 147.179274 
L 312.811525 147.440654 
L 313.898781 148.549218 
L 314.768586 148.840969 
L 315.420939 149.216119 
L 317.377999 149.979518 
L 318.030353 150.218003 
L 319.552511 150.693112 
L 320.204864 151.042071 
L 320.639766 151.10025 
L 321.509571 151.493557 
L 321.944473 151.734215 
L 322.596826 152.011984 
L 323.901533 152.688005 
L 325.641142 153.487889 
L 326.728398 153.713229 
L 328.033105 154.076786 
L 328.685458 154.334296 
L 329.337812 154.508049 
L 329.990165 154.786518 
L 331.512323 154.929833 
L 332.599579 155.292336 
L 333.034481 155.280662 
L 333.469383 155.356877 
L 334.339188 155.335246 
L 334.991541 155.479076 
L 335.426443 155.669251 
L 336.948601 156.357567 
L 338.68821 156.6885 
L 339.775466 156.519522 
L 342.602331 156.909433 
L 343.689587 157.152249 
L 348.908414 157.63705 
L 350.213121 157.461309 
L 351.735279 157.43933 
L 352.170181 157.384388 
L 353.257437 157.442122 
L 354.127241 157.492317 
L 355.649399 157.557778 
L 356.736655 157.414011 
L 357.171557 157.398466 
L 357.606459 157.459039 
L 358.476264 157.398887 
L 358.911166 157.516705 
L 359.563519 157.508027 
L 360.650775 157.602479 
L 361.738031 157.794415 
L 362.390384 157.89634 
L 363.260189 157.930848 
L 363.695091 157.9922 
L 365.652151 158.080814 
L 366.087054 158.137068 
L 366.521956 158.124628 
L 367.39176 158.368941 
L 368.044114 158.533827 
L 368.696467 158.719951 
L 369.131369 158.766965 
L 370.218625 158.984598 
L 371.08843 159.157981 
L 374.350197 159.264498 
L 375.437452 159.429073 
L 378.264317 159.496943 
L 378.699219 159.454272 
L 379.134122 159.574646 
L 380.438828 159.439521 
L 381.743535 159.469062 
L 382.178438 159.36963 
L 382.61334 159.297414 
L 385.222753 159.330084 
L 386.092558 159.257664 
L 386.52746 159.354219 
L 387.179814 159.339766 
L 388.267069 159.436747 
L 388.701972 159.498941 
L 389.136874 159.549714 
L 390.22413 159.695207 
L 390.659032 159.790461 
L 391.528836 159.843236 
L 392.18119 159.565717 
L 392.616092 159.13755 
L 393.268445 158.984144 
L 393.920799 159.056139 
L 398.05237 159.392884 
L 398.487273 159.383804 
L 398.487273 159.383804 
" style="fill:none;stroke:#000000;stroke-linecap:square;stroke-width:1.5;"/>
   </g>
   <g id="patch_3">
    <path d="M 57.6 307.584 
L 57.6 41.472 
" style="fill:none;stroke:#000000;stroke-linecap:square;stroke-linejoin:miter;stroke-width:0.8;"/>
   </g>
   <g id="patch_4">
    <path d="M 414.72 307.584 
L 414.72 41.472 
" style="fill:none;stroke:#000000;stroke-linecap:square;stroke-linejoin:miter;stroke-width:0.8;"/>
   </g>
   <g id="patch_5">
    <path d="M 57.6 307.584 
L 414.72 307.584 
" style="fill:none;stroke:#000000;stroke-linecap:square;stroke-linejoin:miter;stroke-width:0.8;"/>
   </g>
   <g id="patch_6">
    <path d="M 57.6 41.472 
L 414.72 41.472 
" style="fill:none;stroke:#000000;stroke-linecap:square;stroke-linejoin:miter;stroke-width:0.8;"/>
   </g>
  </g>
 </g>
 <defs>
  <clipPath id="pf6b64b5435">
   <rect height="266.112" width="357.12" x="57.6" y="41.472"/>
  </clipPath>
 </defs>
</svg>
