<?xml version="1.0" encoding="utf-8" standalone="no"?>
<!DOCTYPE svg PUBLIC "-//W3C//DTD SVG 1.1//EN"
  "http://www.w3.org/Graphics/SVG/1.1/DTD/svg11.dtd">
<svg height="345.6pt" version="1.1" viewBox="0 0 460.8 345.6" width="460.8pt" xmlns="http://www.w3.org/2000/svg" xmlns:xlink="http://www.w3.org/1999/xlink">
 <metadata>
  <rdf:RDF xmlns:cc="http://creativecommons.org/ns#" xmlns:dc="http://purl.org/dc/elements/1.1/" xmlns:rdf="http://www.w3.org/1999/02/22-rdf-syntax-ns#">
   <cc:Work>
    <dc:type rdf:resource="http://purl.org/dc/dcmitype/StillImage"/>
    <dc:date>2024-08-06T14:44:51.631129</dc:date>
    <dc:format>image/svg+xml</dc:format>
    <dc:creator>
     <cc:Agent>
      <dc:title>Matplotlib v3.4.2, https://matplotlib.org/</dc:title>
     </cc:Agent>
    </dc:creator>
   </cc:Work>
  </rdf:RDF>
 </metadata>
 <defs>
  <style type="text/css">*{stroke-linecap:butt;stroke-linejoin:round;}</style>
 </defs>
 <g id="figure_1">
  <g id="patch_1">
   <path d="M 0 345.6 
L 460.8 345.6 
L 460.8 0 
L 0 0 
z
" style="fill:#ffffff;"/>
  </g>
  <g id="axes_1">
   <g id="patch_2">
    <path d="M 57.6 307.584 
L 414.72 307.584 
L 414.72 41.472 
L 57.6 41.472 
z
" style="fill:#ffffff;"/>
   </g>
   <g id="matplotlib.axis_1">
    <g id="xtick_1">
     <g id="line2d_1">
      <defs>
       <path d="M 0 0 
L 0 3.5 
" id="mf9c3c284eb" style="stroke:#000000;stroke-width:0.8;"/>
      </defs>
      <g>
       <use style="stroke:#000000;stroke-width:0.8;" x="95.211629" xlink:href="#mf9c3c284eb" y="307.584"/>
      </g>
     </g>
     <g id="text_1">
      <!-- 0.2 -->
      <g transform="translate(87.260067 322.182437)scale(0.1 -0.1)">
       <defs>
        <path d="M 2034 4250 
Q 1547 4250 1301 3770 
Q 1056 3291 1056 2328 
Q 1056 1369 1301 889 
Q 1547 409 2034 409 
Q 2525 409 2770 889 
Q 3016 1369 3016 2328 
Q 3016 3291 2770 3770 
Q 2525 4250 2034 4250 
z
M 2034 4750 
Q 2819 4750 3233 4129 
Q 3647 3509 3647 2328 
Q 3647 1150 3233 529 
Q 2819 -91 2034 -91 
Q 1250 -91 836 529 
Q 422 1150 422 2328 
Q 422 3509 836 4129 
Q 1250 4750 2034 4750 
z
" id="DejaVuSans-30" transform="scale(0.015625)"/>
        <path d="M 684 794 
L 1344 794 
L 1344 0 
L 684 0 
L 684 794 
z
" id="DejaVuSans-2e" transform="scale(0.015625)"/>
        <path d="M 1228 531 
L 3431 531 
L 3431 0 
L 469 0 
L 469 531 
Q 828 903 1448 1529 
Q 2069 2156 2228 2338 
Q 2531 2678 2651 2914 
Q 2772 3150 2772 3378 
Q 2772 3750 2511 3984 
Q 2250 4219 1831 4219 
Q 1534 4219 1204 4116 
Q 875 4013 500 3803 
L 500 4441 
Q 881 4594 1212 4672 
Q 1544 4750 1819 4750 
Q 2544 4750 2975 4387 
Q 3406 4025 3406 3419 
Q 3406 3131 3298 2873 
Q 3191 2616 2906 2266 
Q 2828 2175 2409 1742 
Q 1991 1309 1228 531 
z
" id="DejaVuSans-32" transform="scale(0.015625)"/>
       </defs>
       <use xlink:href="#DejaVuSans-30"/>
       <use x="63.623047" xlink:href="#DejaVuSans-2e"/>
       <use x="95.410156" xlink:href="#DejaVuSans-32"/>
      </g>
     </g>
    </g>
    <g id="xtick_2">
     <g id="line2d_2">
      <g>
       <use style="stroke:#000000;stroke-width:0.8;" x="139.20545" xlink:href="#mf9c3c284eb" y="307.584"/>
      </g>
     </g>
     <g id="text_2">
      <!-- 0.4 -->
      <g transform="translate(131.253887 322.182437)scale(0.1 -0.1)">
       <defs>
        <path d="M 2419 4116 
L 825 1625 
L 2419 1625 
L 2419 4116 
z
M 2253 4666 
L 3047 4666 
L 3047 1625 
L 3713 1625 
L 3713 1100 
L 3047 1100 
L 3047 0 
L 2419 0 
L 2419 1100 
L 313 1100 
L 313 1709 
L 2253 4666 
z
" id="DejaVuSans-34" transform="scale(0.015625)"/>
       </defs>
       <use xlink:href="#DejaVuSans-30"/>
       <use x="63.623047" xlink:href="#DejaVuSans-2e"/>
       <use x="95.410156" xlink:href="#DejaVuSans-34"/>
      </g>
     </g>
    </g>
    <g id="xtick_3">
     <g id="line2d_3">
      <g>
       <use style="stroke:#000000;stroke-width:0.8;" x="183.19927" xlink:href="#mf9c3c284eb" y="307.584"/>
      </g>
     </g>
     <g id="text_3">
      <!-- 0.6 -->
      <g transform="translate(175.247707 322.182437)scale(0.1 -0.1)">
       <defs>
        <path d="M 2113 2584 
Q 1688 2584 1439 2293 
Q 1191 2003 1191 1497 
Q 1191 994 1439 701 
Q 1688 409 2113 409 
Q 2538 409 2786 701 
Q 3034 994 3034 1497 
Q 3034 2003 2786 2293 
Q 2538 2584 2113 2584 
z
M 3366 4563 
L 3366 3988 
Q 3128 4100 2886 4159 
Q 2644 4219 2406 4219 
Q 1781 4219 1451 3797 
Q 1122 3375 1075 2522 
Q 1259 2794 1537 2939 
Q 1816 3084 2150 3084 
Q 2853 3084 3261 2657 
Q 3669 2231 3669 1497 
Q 3669 778 3244 343 
Q 2819 -91 2113 -91 
Q 1303 -91 875 529 
Q 447 1150 447 2328 
Q 447 3434 972 4092 
Q 1497 4750 2381 4750 
Q 2619 4750 2861 4703 
Q 3103 4656 3366 4563 
z
" id="DejaVuSans-36" transform="scale(0.015625)"/>
       </defs>
       <use xlink:href="#DejaVuSans-30"/>
       <use x="63.623047" xlink:href="#DejaVuSans-2e"/>
       <use x="95.410156" xlink:href="#DejaVuSans-36"/>
      </g>
     </g>
    </g>
    <g id="xtick_4">
     <g id="line2d_4">
      <g>
       <use style="stroke:#000000;stroke-width:0.8;" x="227.19309" xlink:href="#mf9c3c284eb" y="307.584"/>
      </g>
     </g>
     <g id="text_4">
      <!-- 0.8 -->
      <g transform="translate(219.241528 322.182437)scale(0.1 -0.1)">
       <defs>
        <path d="M 2034 2216 
Q 1584 2216 1326 1975 
Q 1069 1734 1069 1313 
Q 1069 891 1326 650 
Q 1584 409 2034 409 
Q 2484 409 2743 651 
Q 3003 894 3003 1313 
Q 3003 1734 2745 1975 
Q 2488 2216 2034 2216 
z
M 1403 2484 
Q 997 2584 770 2862 
Q 544 3141 544 3541 
Q 544 4100 942 4425 
Q 1341 4750 2034 4750 
Q 2731 4750 3128 4425 
Q 3525 4100 3525 3541 
Q 3525 3141 3298 2862 
Q 3072 2584 2669 2484 
Q 3125 2378 3379 2068 
Q 3634 1759 3634 1313 
Q 3634 634 3220 271 
Q 2806 -91 2034 -91 
Q 1263 -91 848 271 
Q 434 634 434 1313 
Q 434 1759 690 2068 
Q 947 2378 1403 2484 
z
M 1172 3481 
Q 1172 3119 1398 2916 
Q 1625 2713 2034 2713 
Q 2441 2713 2670 2916 
Q 2900 3119 2900 3481 
Q 2900 3844 2670 4047 
Q 2441 4250 2034 4250 
Q 1625 4250 1398 4047 
Q 1172 3844 1172 3481 
z
" id="DejaVuSans-38" transform="scale(0.015625)"/>
       </defs>
       <use xlink:href="#DejaVuSans-30"/>
       <use x="63.623047" xlink:href="#DejaVuSans-2e"/>
       <use x="95.410156" xlink:href="#DejaVuSans-38"/>
      </g>
     </g>
    </g>
    <g id="xtick_5">
     <g id="line2d_5">
      <g>
       <use style="stroke:#000000;stroke-width:0.8;" x="271.18691" xlink:href="#mf9c3c284eb" y="307.584"/>
      </g>
     </g>
     <g id="text_5">
      <!-- 1.0 -->
      <g transform="translate(263.235348 322.182437)scale(0.1 -0.1)">
       <defs>
        <path d="M 794 531 
L 1825 531 
L 1825 4091 
L 703 3866 
L 703 4441 
L 1819 4666 
L 2450 4666 
L 2450 531 
L 3481 531 
L 3481 0 
L 794 0 
L 794 531 
z
" id="DejaVuSans-31" transform="scale(0.015625)"/>
       </defs>
       <use xlink:href="#DejaVuSans-31"/>
       <use x="63.623047" xlink:href="#DejaVuSans-2e"/>
       <use x="95.410156" xlink:href="#DejaVuSans-30"/>
      </g>
     </g>
    </g>
    <g id="xtick_6">
     <g id="line2d_6">
      <g>
       <use style="stroke:#000000;stroke-width:0.8;" x="315.18073" xlink:href="#mf9c3c284eb" y="307.584"/>
      </g>
     </g>
     <g id="text_6">
      <!-- 1.2 -->
      <g transform="translate(307.229168 322.182437)scale(0.1 -0.1)">
       <use xlink:href="#DejaVuSans-31"/>
       <use x="63.623047" xlink:href="#DejaVuSans-2e"/>
       <use x="95.410156" xlink:href="#DejaVuSans-32"/>
      </g>
     </g>
    </g>
    <g id="xtick_7">
     <g id="line2d_7">
      <g>
       <use style="stroke:#000000;stroke-width:0.8;" x="359.174551" xlink:href="#mf9c3c284eb" y="307.584"/>
      </g>
     </g>
     <g id="text_7">
      <!-- 1.4 -->
      <g transform="translate(351.222988 322.182437)scale(0.1 -0.1)">
       <use xlink:href="#DejaVuSans-31"/>
       <use x="63.623047" xlink:href="#DejaVuSans-2e"/>
       <use x="95.410156" xlink:href="#DejaVuSans-34"/>
      </g>
     </g>
    </g>
    <g id="xtick_8">
     <g id="line2d_8">
      <g>
       <use style="stroke:#000000;stroke-width:0.8;" x="403.168371" xlink:href="#mf9c3c284eb" y="307.584"/>
      </g>
     </g>
     <g id="text_8">
      <!-- 1.6 -->
      <g transform="translate(395.216808 322.182437)scale(0.1 -0.1)">
       <use xlink:href="#DejaVuSans-31"/>
       <use x="63.623047" xlink:href="#DejaVuSans-2e"/>
       <use x="95.410156" xlink:href="#DejaVuSans-36"/>
      </g>
     </g>
    </g>
   </g>
   <g id="matplotlib.axis_2">
    <g id="ytick_1">
     <g id="line2d_9">
      <defs>
       <path d="M 0 0 
L -3.5 0 
" id="m945dd0292a" style="stroke:#000000;stroke-width:0.8;"/>
      </defs>
      <g>
       <use style="stroke:#000000;stroke-width:0.8;" x="57.6" xlink:href="#m945dd0292a" y="273.286107"/>
      </g>
     </g>
     <g id="text_9">
      <!-- −200 -->
      <g transform="translate(23.132812 277.085326)scale(0.1 -0.1)">
       <defs>
        <path d="M 678 2272 
L 4684 2272 
L 4684 1741 
L 678 1741 
L 678 2272 
z
" id="DejaVuSans-2212" transform="scale(0.015625)"/>
       </defs>
       <use xlink:href="#DejaVuSans-2212"/>
       <use x="83.789062" xlink:href="#DejaVuSans-32"/>
       <use x="147.412109" xlink:href="#DejaVuSans-30"/>
       <use x="211.035156" xlink:href="#DejaVuSans-30"/>
      </g>
     </g>
    </g>
    <g id="ytick_2">
     <g id="line2d_10">
      <g>
       <use style="stroke:#000000;stroke-width:0.8;" x="57.6" xlink:href="#m945dd0292a" y="219.684693"/>
      </g>
     </g>
     <g id="text_10">
      <!-- −150 -->
      <g transform="translate(23.132812 223.483912)scale(0.1 -0.1)">
       <defs>
        <path d="M 691 4666 
L 3169 4666 
L 3169 4134 
L 1269 4134 
L 1269 2991 
Q 1406 3038 1543 3061 
Q 1681 3084 1819 3084 
Q 2600 3084 3056 2656 
Q 3513 2228 3513 1497 
Q 3513 744 3044 326 
Q 2575 -91 1722 -91 
Q 1428 -91 1123 -41 
Q 819 9 494 109 
L 494 744 
Q 775 591 1075 516 
Q 1375 441 1709 441 
Q 2250 441 2565 725 
Q 2881 1009 2881 1497 
Q 2881 1984 2565 2268 
Q 2250 2553 1709 2553 
Q 1456 2553 1204 2497 
Q 953 2441 691 2322 
L 691 4666 
z
" id="DejaVuSans-35" transform="scale(0.015625)"/>
       </defs>
       <use xlink:href="#DejaVuSans-2212"/>
       <use x="83.789062" xlink:href="#DejaVuSans-31"/>
       <use x="147.412109" xlink:href="#DejaVuSans-35"/>
       <use x="211.035156" xlink:href="#DejaVuSans-30"/>
      </g>
     </g>
    </g>
    <g id="ytick_3">
     <g id="line2d_11">
      <g>
       <use style="stroke:#000000;stroke-width:0.8;" x="57.6" xlink:href="#m945dd0292a" y="166.083279"/>
      </g>
     </g>
     <g id="text_11">
      <!-- −100 -->
      <g transform="translate(23.132812 169.882497)scale(0.1 -0.1)">
       <use xlink:href="#DejaVuSans-2212"/>
       <use x="83.789062" xlink:href="#DejaVuSans-31"/>
       <use x="147.412109" xlink:href="#DejaVuSans-30"/>
       <use x="211.035156" xlink:href="#DejaVuSans-30"/>
      </g>
     </g>
    </g>
    <g id="ytick_4">
     <g id="line2d_12">
      <g>
       <use style="stroke:#000000;stroke-width:0.8;" x="57.6" xlink:href="#m945dd0292a" y="112.481865"/>
      </g>
     </g>
     <g id="text_12">
      <!-- −50 -->
      <g transform="translate(29.495313 116.281083)scale(0.1 -0.1)">
       <use xlink:href="#DejaVuSans-2212"/>
       <use x="83.789062" xlink:href="#DejaVuSans-35"/>
       <use x="147.412109" xlink:href="#DejaVuSans-30"/>
      </g>
     </g>
    </g>
    <g id="ytick_5">
     <g id="line2d_13">
      <g>
       <use style="stroke:#000000;stroke-width:0.8;" x="57.6" xlink:href="#m945dd0292a" y="58.880451"/>
      </g>
     </g>
     <g id="text_13">
      <!-- 0 -->
      <g transform="translate(44.2375 62.679669)scale(0.1 -0.1)">
       <use xlink:href="#DejaVuSans-30"/>
      </g>
     </g>
    </g>
   </g>
   <g id="line2d_14">
    <path clip-path="url(#p3fe2b6fe6d)" d="M 73.832727 118.573071 
L 75.572336 118.701685 
L 79.051555 118.925636 
L 79.703908 124.013906 
L 81.008615 133.542643 
L 83.400577 149.157071 
L 85.79254 163.152566 
L 89.054307 180.274198 
L 92.533525 196.764335 
L 96.665097 214.552932 
L 99.491961 226.202075 
L 104.710789 246.286438 
L 108.407458 259.363018 
L 112.756481 272.698405 
L 115.148443 279.102265 
L 117.757857 285.142876 
L 119.497466 288.4851 
L 119.932368 289.076119 
L 120.584721 289.591351 
L 123.411586 292.081082 
L 125.151195 293.122059 
L 126.021 293.837413 
L 127.97806 294.792155 
L 128.412962 294.901328 
L 130.152571 295.273448 
L 131.239827 295.488 
L 134.501594 294.917114 
L 134.936496 294.833111 
L 135.806301 294.906031 
L 136.458654 294.509596 
L 136.676105 294.472357 
L 137.111008 294.606324 
L 137.54591 294.373377 
L 138.198263 294.437292 
L 139.068068 293.652985 
L 139.50297 293.650442 
L 141.894933 292.984543 
L 142.329835 292.813095 
L 142.764737 292.671061 
L 144.504346 291.851204 
L 144.939249 291.491763 
L 145.591602 290.832466 
L 146.243955 290.61473 
L 146.678858 290.258346 
L 147.11376 289.96041 
L 147.766113 289.868742 
L 148.853369 288.677389 
L 149.07082 288.187215 
L 149.505722 285.44504 
L 150.158076 279.080485 
L 150.375527 279.037955 
L 150.592978 279.135207 
L 151.245332 279.816252 
L 151.680234 280.113126 
L 152.550038 280.379161 
L 152.984941 280.479742 
L 153.854745 280.434929 
L 154.507099 280.511727 
L 155.376903 280.358857 
L 157.333963 280.758167 
L 158.63867 280.873668 
L 159.073572 281.075439 
L 160.378279 281.280584 
L 161.465535 281.728781 
L 161.900437 281.480638 
L 162.770242 281.313882 
L 163.422595 280.812093 
L 164.074949 280.706395 
L 164.509851 280.447178 
L 164.944753 280.471022 
L 165.162204 280.180842 
L 165.597106 278.586507 
L 166.032009 278.410901 
L 166.466911 278.51637 
L 166.901813 278.745573 
L 167.336716 278.641088 
L 168.423971 279.031603 
L 169.946129 278.959211 
L 170.381031 279.108423 
L 170.598483 279.085624 
L 171.250836 279.609147 
L 171.903189 280.106661 
L 172.772994 280.347006 
L 175.164956 280.281471 
L 175.382408 280.234932 
L 176.034761 279.733845 
L 176.687114 279.558785 
L 177.339468 279.744638 
L 178.209272 279.401389 
L 179.513979 278.786404 
L 180.601235 278.964167 
L 181.253588 278.952213 
L 181.688491 278.727888 
L 182.558295 278.564532 
L 182.775746 278.37531 
L 183.210648 277.669109 
L 183.645551 277.603581 
L 184.732806 277.763333 
L 184.950258 277.851215 
L 185.38516 277.702863 
L 186.254964 277.628629 
L 186.472416 277.315785 
L 186.907318 276.050362 
L 187.994573 268.781303 
L 188.212025 268.554426 
L 189.081829 267.072201 
L 189.516731 266.383259 
L 190.386536 266.216818 
L 190.821438 266.070117 
L 191.473792 265.180362 
L 192.126145 265.091427 
L 192.343596 264.926452 
L 192.561047 264.964559 
L 194.083205 266.285035 
L 194.95301 266.48307 
L 195.387912 266.439113 
L 195.822814 266.478553 
L 196.257717 266.830878 
L 197.344972 267.673639 
L 197.779875 267.850559 
L 198.432228 268.320732 
L 198.86713 268.335474 
L 199.519484 268.503348 
L 200.171837 268.378627 
L 200.606739 268.557554 
L 201.041642 268.723218 
L 201.476544 268.741328 
L 201.911446 269.074479 
L 203.651055 270.41909 
L 203.868506 270.538041 
L 204.303409 270.953755 
L 204.738311 271.121762 
L 205.173213 271.465405 
L 205.608115 271.459708 
L 206.043018 271.084941 
L 206.47792 271.238428 
L 207.130273 271.7613 
L 207.782627 272.035327 
L 208.000078 272.008496 
L 208.652431 272.305725 
L 208.869882 272.218877 
L 209.304785 271.666009 
L 210.174589 268.785835 
L 210.609492 267.959892 
L 211.044394 265.999163 
L 211.479296 264.488056 
L 211.696747 264.092224 
L 211.914198 264.014873 
L 212.349101 264.266768 
L 212.566552 264.440799 
L 213.001454 263.760914 
L 213.218905 263.819272 
L 213.871259 263.279622 
L 214.08871 262.693189 
L 214.306161 262.554522 
L 214.741063 263.050099 
L 214.958514 262.972127 
L 215.175965 262.574733 
L 215.393417 262.703437 
L 215.828319 263.165375 
L 216.263221 263.593814 
L 216.480672 263.526866 
L 216.698123 263.312287 
L 216.915574 263.406491 
L 218.00283 264.595519 
L 218.220281 264.751706 
L 218.437732 264.585521 
L 218.872635 264.639934 
L 219.307537 263.706097 
L 219.742439 262.162565 
L 220.177342 261.670987 
L 221.264597 262.223714 
L 222.134402 262.285468 
L 223.004206 261.594526 
L 223.65656 259.972697 
L 224.526364 255.430339 
L 224.961267 255.12713 
L 225.61362 253.778153 
L 226.265973 253.093647 
L 226.483424 253.234078 
L 226.918327 253.006647 
L 227.57068 251.223284 
L 228.005582 249.930437 
L 228.657936 244.794781 
L 229.092838 238.971349 
L 229.745191 235.373484 
L 230.180094 233.87363 
L 230.832447 232.245711 
L 231.267349 230.607047 
L 231.702252 228.272205 
L 231.919703 227.342498 
L 232.354605 225.035751 
L 232.789507 224.566571 
L 233.22441 223.924854 
L 233.441861 223.68567 
L 233.876763 222.963297 
L 234.094214 222.631821 
L 234.964019 219.831354 
L 235.398921 220.102889 
L 236.051274 220.942794 
L 236.703628 222.103955 
L 237.13853 221.329798 
L 238.008335 221.7201 
L 238.225786 221.736052 
L 238.443237 222.062619 
L 238.660688 221.885479 
L 238.878139 220.835911 
L 239.530493 215.398675 
L 240.182846 212.202646 
L 240.617748 212.294978 
L 241.270102 211.199605 
L 241.487553 211.188206 
L 241.705004 210.988049 
L 242.79226 207.445623 
L 243.879515 199.000394 
L 244.314418 197.537597 
L 245.401673 194.533194 
L 245.836576 193.636152 
L 246.271478 193.134442 
L 246.70638 193.157838 
L 246.923831 193.022004 
L 247.141282 192.0129 
L 247.793636 187.559118 
L 248.228538 186.689521 
L 248.66344 186.552533 
L 248.880891 186.530312 
L 249.098343 186.822367 
L 250.403049 189.636446 
L 250.837952 190.432268 
L 252.795012 196.521645 
L 253.664816 197.712889 
L 253.882268 197.713286 
L 254.099719 197.91045 
L 255.839328 202.560897 
L 257.796388 208.239181 
L 259.318546 211.173518 
L 259.535997 211.184495 
L 259.753448 211.339804 
L 259.970899 211.640238 
L 260.405802 211.636867 
L 260.623253 211.830348 
L 260.840704 211.089468 
L 261.275606 208.442343 
L 261.493057 207.635719 
L 261.92796 207.33259 
L 262.580313 205.574089 
L 263.015215 203.530074 
L 263.232666 203.555973 
L 264.102471 205.355068 
L 264.319922 205.284022 
L 264.537373 205.40211 
L 264.972275 206.62088 
L 266.059531 209.70574 
L 266.494433 210.52268 
L 266.929336 210.724045 
L 267.364238 211.397711 
L 267.581689 211.487245 
L 268.234043 212.150865 
L 269.321298 210.254706 
L 269.538749 209.358395 
L 269.973652 206.633409 
L 270.408554 205.244753 
L 270.843456 204.37582 
L 271.278358 204.10213 
L 271.49581 204.293116 
L 272.800516 206.443713 
L 273.017967 206.669295 
L 273.235419 206.506366 
L 273.45287 206.104607 
L 273.670321 206.249262 
L 274.540125 208.547107 
L 274.975028 209.542992 
L 275.192479 209.727071 
L 275.844832 210.982045 
L 276.062283 211.251932 
L 276.279735 211.341364 
L 276.497186 211.629729 
L 278.454246 216.557272 
L 278.671697 216.751087 
L 279.541502 218.630925 
L 280.193855 220.478379 
L 282.150915 225.841653 
L 283.238171 227.264256 
L 283.890524 228.818104 
L 284.107975 228.93596 
L 284.542878 229.703822 
L 284.760329 229.945721 
L 285.195231 230.707476 
L 285.630133 230.699937 
L 286.499938 231.487322 
L 286.717389 231.397766 
L 286.93484 231.072295 
L 287.152291 231.325595 
L 288.022096 233.395421 
L 288.239547 233.407835 
L 288.8919 232.495727 
L 289.109352 232.609255 
L 289.979156 233.94766 
L 290.631509 232.891522 
L 291.066412 232.989563 
L 291.283863 233.180445 
L 291.936216 233.092128 
L 292.371119 233.511564 
L 292.58857 233.308802 
L 292.806021 233.416247 
L 293.240923 234.331546 
L 293.675825 234.489515 
L 294.110728 234.082618 
L 294.328179 234.100826 
L 296.285239 236.536109 
L 296.50269 236.733131 
L 296.937592 234.020664 
L 297.807397 228.515316 
L 298.677201 222.956539 
L 301.504066 209.799209 
L 303.026224 203.848947 
L 308.0276 186.252904 
L 310.854465 178.334372 
L 312.376623 174.387772 
L 313.028976 172.589517 
L 315.203488 167.876119 
L 317.377999 163.472719 
L 318.247804 161.087258 
L 319.987413 158.002334 
L 321.29212 155.864847 
L 321.944473 154.755278 
L 324.336435 151.172951 
L 326.728398 147.801432 
L 328.250556 145.810981 
L 329.555263 144.158938 
L 335.426443 137.387462 
L 337.600955 135.020782 
L 340.210368 131.975452 
L 341.949977 129.743471 
L 343.472135 126.949198 
L 344.559391 123.976831 
L 345.646647 118.662656 
L 346.516451 110.671733 
L 346.733902 103.822728 
L 346.951354 88.114601 
L 347.168805 81.517855 
L 348.038609 91.532863 
L 348.25606 92.243342 
L 348.473512 92.397948 
L 348.908414 91.770479 
L 349.995669 87.958207 
L 350.430572 86.294945 
L 351.082925 81.867913 
L 351.300376 81.535766 
L 351.517827 81.757979 
L 352.387632 83.436787 
L 352.605083 83.541187 
L 352.822534 83.486927 
L 353.039985 83.258118 
L 354.562143 80.260674 
L 356.954106 76.753379 
L 357.389008 76.492562 
L 357.606459 76.549604 
L 358.041362 77.09584 
L 358.476264 77.618194 
L 358.911166 77.823764 
L 359.128617 78.027125 
L 359.780971 78.208535 
L 359.998422 78.423147 
L 361.52058 81.097581 
L 362.172933 81.263648 
L 362.825286 81.637726 
L 363.042738 81.724555 
L 363.912542 82.609038 
L 364.347444 83.533518 
L 364.782347 84.510288 
L 366.739407 87.855815 
L 368.913918 91.497744 
L 374.350197 98.795384 
L 376.742159 101.286886 
L 378.481768 102.641672 
L 380.003926 103.660034 
L 382.830791 105.698365 
L 383.265693 105.912459 
L 385.875107 107.461639 
L 386.962363 107.797492 
L 388.267069 108.142126 
L 389.354325 108.584949 
L 390.22413 108.711405 
L 391.746288 109.114851 
L 394.790603 110.202536 
L 396.09531 110.42557 
L 396.965115 110.502372 
L 398.05237 110.686419 
L 398.487273 110.752018 
L 398.487273 110.752018 
" style="fill:none;stroke:#000000;stroke-linecap:square;stroke-width:1.5;"/>
   </g>
   <g id="line2d_15">
    <path clip-path="url(#p3fe2b6fe6d)" d="M 73.832727 116.721261 
L 75.572336 117.037475 
L 76.659592 117.206533 
L 79.051555 117.305014 
L 82.965675 128.450791 
L 85.79254 135.322761 
L 88.836856 141.830794 
L 94.490585 151.770937 
L 96.447645 154.793356 
L 101.883924 162.008653 
L 107.320202 168.184237 
L 108.624909 169.581933 
L 110.581969 171.599628 
L 116.670601 177.156887 
L 117.975308 178.280109 
L 120.802173 180.591165 
L 123.629037 182.334909 
L 126.238451 184.343648 
L 127.543158 185.357354 
L 128.847865 186.408326 
L 130.587474 187.531514 
L 131.457278 188.096241 
L 134.284143 189.848323 
L 135.371399 190.385892 
L 135.806301 190.578216 
L 138.850617 192.2752 
L 140.590226 193.060065 
L 141.46003 193.54964 
L 142.764737 194.138312 
L 153.419843 199.53837 
L 154.072196 199.681757 
L 158.63867 201.274224 
L 159.943377 201.682844 
L 162.335339 202.616311 
L 163.205144 202.90494 
L 164.509851 203.413632 
L 165.814558 203.859309 
L 172.338092 206.398834 
L 173.207896 206.414615 
L 173.86025 206.600788 
L 174.730054 206.81407 
L 175.81731 206.935788 
L 176.687114 206.770257 
L 177.339468 206.644657 
L 177.991821 206.75113 
L 179.079077 207.111383 
L 181.036137 207.721085 
L 181.905942 207.907483 
L 182.558295 207.998477 
L 183.210648 208.071382 
L 184.515355 208.397398 
L 186.689867 209.015108 
L 188.212025 209.120182 
L 189.951634 209.375508 
L 194.95301 210.540414 
L 195.822814 210.51948 
L 196.475168 210.677731 
L 197.779875 210.948631 
L 198.649679 211.170006 
L 199.519484 211.401316 
L 200.389288 211.508495 
L 202.346348 211.541382 
L 203.433604 211.545432 
L 205.390664 211.533023 
L 206.260469 211.503013 
L 206.695371 211.444643 
L 207.130273 211.449129 
L 208.869882 211.187733 
L 209.304785 211.063841 
L 210.826943 211.131525 
L 211.696747 210.950271 
L 212.349101 210.877198 
L 213.436356 210.527031 
L 217.133026 210.845749 
L 218.872635 210.751729 
L 219.307537 210.815264 
L 224.091462 210.464369 
L 229.310289 211.289243 
L 229.962643 211.132391 
L 230.614996 210.748355 
L 232.789507 210.699917 
L 233.441861 210.588332 
L 235.18147 210.375052 
L 235.616372 210.163891 
L 236.486177 210.106577 
L 238.008335 210.200799 
L 238.878139 210.278673 
L 240.182846 210.017123 
L 241.052651 209.675369 
L 241.487553 209.489207 
L 242.79226 209.423832 
L 243.879515 209.391898 
L 244.531869 209.216073 
L 245.401673 209.212057 
L 246.271478 209.350452 
L 247.576185 209.391028 
L 248.445989 209.145157 
L 251.055403 208.181201 
L 252.142658 208.167703 
L 252.577561 208.227761 
L 254.099719 207.807097 
L 254.969523 207.336118 
L 255.621877 207.327227 
L 256.491681 207.326974 
L 257.361486 207.407047 
L 258.883644 207.255147 
L 259.318546 207.259962 
L 261.058155 206.709248 
L 261.92796 206.344818 
L 262.797764 206.141904 
L 263.450118 206.168974 
L 264.319922 206.129501 
L 265.624629 206.098061 
L 266.059531 206.078003 
L 266.494433 205.914425 
L 266.929336 205.615154 
L 267.581689 205.585963 
L 270.191103 206.073672 
L 271.49581 206.318199 
L 272.148163 206.516321 
L 273.017967 206.789136 
L 276.062283 207.384521 
L 277.584441 207.626218 
L 278.454246 207.613533 
L 281.06366 207.883636 
L 281.498562 207.817863 
L 283.890524 207.976973 
L 284.542878 207.81085 
L 284.97778 207.60557 
L 285.847584 207.590425 
L 286.717389 207.643214 
L 287.804645 207.378145 
L 288.674449 207.153937 
L 289.979156 207.257444 
L 290.848961 207.432228 
L 292.806021 207.232698 
L 293.458374 207.088157 
L 294.54563 207.065293 
L 295.415434 206.822781 
L 296.50269 206.482049 
L 297.155044 204.062009 
L 298.024848 201.236165 
L 300.416811 194.566937 
L 305.418187 182.968167 
L 306.505442 180.446675 
L 307.592698 177.731652 
L 310.637014 171.687547 
L 313.898781 166.056486 
L 321.29212 154.659386 
L 323.466631 152.002325 
L 325.423691 149.827443 
L 329.337812 145.438165 
L 331.512323 143.249174 
L 333.686834 141.160004 
L 339.340564 136.416062 
L 340.645271 135.091586 
L 343.472135 132.003654 
L 344.559391 130.489123 
L 345.211745 129.430889 
L 346.516451 126.838196 
L 347.386256 124.526747 
L 348.25606 120.690038 
L 348.690963 117.625487 
L 348.908414 116.17033 
L 349.343316 111.645732 
L 349.560767 104.668408 
L 349.778218 89.379259 
L 349.995669 83.015516 
L 350.865474 92.410186 
L 351.082925 93.32217 
L 351.300376 93.581635 
L 352.387632 91.795599 
L 353.474888 88.877161 
L 353.692339 87.651765 
L 354.344692 81.698156 
L 354.562143 80.950964 
L 354.779594 81.011279 
L 355.214497 82.302116 
L 356.084301 84.840972 
L 356.519204 85.446608 
L 356.954106 85.616396 
L 357.171557 85.579709 
L 357.606459 84.952745 
L 358.258813 83.796285 
L 359.346068 81.181023 
L 359.998422 77.70172 
L 360.215873 76.976692 
L 360.433324 76.674898 
L 360.868226 76.70537 
L 361.085677 77.021809 
L 362.825286 82.207124 
L 363.695091 84.625641 
L 365.217249 87.259189 
L 367.174309 89.582986 
L 367.609211 89.799004 
L 368.913918 90.755028 
L 369.348821 91.161516 
L 370.653527 93.162359 
L 372.393136 95.841935 
L 372.828039 96.414519 
L 373.480392 97.295714 
L 374.567648 98.498672 
L 377.829415 101.596135 
L 378.481768 101.955091 
L 379.786475 102.799546 
L 381.526084 103.752321 
L 382.178438 104.050752 
L 385.222753 105.670399 
L 386.52746 106.064543 
L 388.049618 106.621598 
L 388.48452 106.830581 
L 389.354325 107.091363 
L 390.006678 107.351589 
L 392.833543 108.040252 
L 393.268445 108.050263 
L 394.355701 108.394919 
L 395.660408 108.828136 
L 396.312761 108.958397 
L 398.487273 109.648485 
L 398.487273 109.648485 
" style="fill:none;stroke:#000000;stroke-linecap:square;stroke-width:1.5;"/>
   </g>
   <g id="line2d_16">
    <path clip-path="url(#p3fe2b6fe6d)" d="M 73.832727 122.033248 
L 75.137434 121.874491 
L 79.051555 121.762628 
L 79.703908 119.653868 
L 81.008615 115.74686 
L 86.227442 102.068777 
L 86.444893 101.586371 
L 86.662344 100.744741 
L 86.879795 100.461828 
L 87.097247 99.230549 
L 87.314698 99.278781 
L 87.532149 94.498236 
L 87.7496 81.089584 
L 87.967051 74.939745 
L 88.401953 81.57127 
L 88.836856 88.81233 
L 89.271758 92.683342 
L 89.70666 94.601617 
L 90.359014 95.907189 
L 91.446269 95.859887 
L 91.881172 95.467872 
L 94.490585 91.774352 
L 94.925487 90.75856 
L 95.142939 90.106563 
L 95.36039 89.087174 
L 95.577841 85.574819 
L 96.012743 75.002368 
L 96.447645 69.760686 
L 96.665097 69.405874 
L 96.882548 70.085647 
L 97.31745 73.308826 
L 97.969803 78.172597 
L 98.622157 81.29455 
L 99.27451 83.302304 
L 100.579217 86.443618 
L 101.23157 87.429554 
L 101.666473 87.844883 
L 102.101375 88.105314 
L 102.536277 88.297672 
L 102.971179 88.511221 
L 103.623533 88.618091 
L 104.710789 88.561005 
L 106.232946 88.971936 
L 106.8853 89.05028 
L 108.407458 89.705357 
L 108.84236 89.923778 
L 109.277262 90.008439 
L 109.712165 90.154176 
L 110.581969 90.271144 
L 111.451774 90.346942 
L 112.104127 90.209468 
L 112.539029 89.99649 
L 113.843736 89.883224 
L 115.583345 90.537025 
L 116.45315 90.738309 
L 117.105503 90.825344 
L 117.975308 90.840629 
L 118.41021 90.730804 
L 118.845112 90.667513 
L 120.149819 90.952694 
L 121.019624 91.288044 
L 122.541782 91.639283 
L 123.194135 91.511893 
L 123.629037 91.307282 
L 124.06394 91.155602 
L 124.498842 90.969227 
L 126.455902 90.660393 
L 127.325707 90.704167 
L 127.760609 90.660435 
L 128.412962 90.515307 
L 129.500218 90.396845 
L 131.457278 89.204226 
L 132.109632 88.624918 
L 134.936496 87.251917 
L 135.371399 86.40769 
L 135.806301 86.193536 
L 136.458654 86.156934 
L 137.111008 86.554587 
L 137.763361 87.376429 
L 138.633166 88.643465 
L 139.068068 89.128311 
L 139.50297 89.551286 
L 140.372775 90.357537 
L 140.807677 90.640732 
L 141.46003 90.951196 
L 143.19964 92.336762 
L 143.634542 92.704485 
L 144.069444 92.958398 
L 144.939249 93.536073 
L 147.548662 94.475252 
L 149.07082 95.124294 
L 150.592978 95.923977 
L 152.550038 96.426551 
L 153.854745 96.576908 
L 155.376903 97.072541 
L 156.246708 97.321405 
L 157.116512 97.285729 
L 158.203768 97.36909 
L 159.073572 97.252811 
L 159.508475 97.226354 
L 160.59573 97.198865 
L 161.248084 97.319169 
L 161.682986 97.400467 
L 163.857497 97.337315 
L 164.509851 97.362464 
L 165.597106 97.136058 
L 166.24946 96.951741 
L 166.901813 96.82241 
L 167.336716 96.688498 
L 169.076325 96.538485 
L 169.511227 96.41189 
L 170.16358 96.439498 
L 170.815934 96.295189 
L 171.468287 96.237626 
L 172.990445 95.743115 
L 173.86025 95.560771 
L 179.296528 94.498567 
L 179.73143 94.416237 
L 180.166333 94.304975 
L 182.993197 94.682665 
L 183.645551 94.888931 
L 184.297904 95.000799 
L 184.732806 95.013694 
L 187.994573 95.424972 
L 188.429476 95.611983 
L 190.821438 95.957358 
L 191.691243 95.903286 
L 194.300656 96.116407 
L 194.95301 96.376513 
L 196.257717 97.11786 
L 197.997326 97.592871 
L 198.86713 97.670884 
L 199.736935 97.971279 
L 200.389288 98.270481 
L 201.693995 98.600749 
L 202.346348 98.505648 
L 207.782627 99.188055 
L 209.087334 99.112273 
L 210.174589 98.942447 
L 216.04577 97.779261 
L 216.915574 97.171726 
L 219.524988 97.076198 
L 220.394793 96.861973 
L 221.482048 96.876887 
L 222.569304 96.829693 
L 223.65656 96.460083 
L 224.308913 96.536991 
L 225.396169 96.52963 
L 226.048522 96.590869 
L 226.700876 96.614765 
L 228.005582 96.831984 
L 232.572056 96.908181 
L 233.441861 96.770637 
L 233.876763 96.68672 
L 235.18147 96.629943 
L 235.833823 96.51869 
L 236.268726 96.477845 
L 236.921079 96.370166 
L 238.225786 96.207009 
L 238.660688 96.266723 
L 239.09559 96.42432 
L 240.182846 96.434683 
L 242.139906 96.778579 
L 243.444613 97.008564 
L 245.184222 97.315437 
L 245.836576 97.412658 
L 246.923831 97.778477 
L 249.750696 98.717081 
L 251.925207 99.68581 
L 252.36011 99.783888 
L 253.012463 100.075309 
L 254.099719 100.281002 
L 254.969523 100.383487 
L 255.839328 100.452812 
L 257.144035 100.556248 
L 258.448741 100.63934 
L 259.535997 100.760149 
L 260.18835 100.851993 
L 260.840704 100.996715 
L 262.362862 100.931472 
L 263.88502 100.726281 
L 264.319922 100.606497 
L 266.059531 100.494322 
L 267.79914 100.288645 
L 268.234043 100.356656 
L 268.668945 100.380091 
L 269.103847 100.48122 
L 272.365614 100.5882 
L 273.235419 100.741188 
L 274.105223 100.88662 
L 276.932088 101.06086 
L 277.801892 100.939538 
L 279.32405 100.592606 
L 279.976404 100.549353 
L 281.06366 100.436701 
L 284.325427 99.612748 
L 285.847584 99.462848 
L 288.022096 99.516613 
L 291.501314 99.791655 
L 294.110728 100.289822 
L 295.415434 100.218023 
L 296.285239 100.071984 
L 296.50269 100.118715 
L 296.937592 101.45005 
L 299.329555 108.375606 
L 301.504066 113.480554 
L 303.026224 116.597632 
L 304.983284 119.681132 
L 306.722894 121.93771 
L 309.767209 125.403886 
L 310.854465 126.34118 
L 312.159172 127.272579 
L 313.68133 128.161454 
L 315.855841 129.399416 
L 316.508195 129.844281 
L 317.377999 130.277942 
L 318.900157 130.765809 
L 320.639766 131.171234 
L 321.509571 131.450892 
L 323.24918 131.989012 
L 323.901533 132.208334 
L 326.076045 132.419118 
L 326.510947 132.411984 
L 327.598203 132.636186 
L 333.034481 133.107165 
L 334.339188 133.238717 
L 336.73115 133.161213 
L 337.600955 133.071874 
L 338.470759 133.015363 
L 339.123113 132.916225 
L 340.645271 132.849749 
L 341.080173 132.83848 
L 341.949977 132.903427 
L 343.037233 132.971249 
L 344.34194 132.943246 
L 346.081549 132.883467 
L 346.733902 132.883098 
L 347.603707 132.722112 
L 348.690963 132.631145 
L 351.95273 132.328188 
L 352.605083 132.297869 
L 353.90979 132.163165 
L 356.519204 131.943372 
L 357.82391 131.841364 
L 360.215873 131.566471 
L 361.52058 131.48733 
L 363.260189 131.590121 
L 364.782347 131.574637 
L 371.08843 131.407457 
L 379.786475 130.103709 
L 382.178438 129.947129 
L 385.440205 129.56963 
L 386.310009 129.533068 
L 387.614716 129.359243 
L 389.789227 129.138509 
L 392.398641 128.723353 
L 395.660408 128.63015 
L 397.400017 128.651026 
L 398.487273 128.661351 
L 398.487273 128.661351 
" style="fill:none;stroke:#000000;stroke-linecap:square;stroke-width:1.5;"/>
   </g>
   <g id="line2d_17">
    <path clip-path="url(#p3fe2b6fe6d)" d="M 73.832727 123.35809 
L 78.834103 123.201259 
L 79.051555 122.995022 
L 79.703908 112.553672 
L 80.573712 99.536616 
L 81.226066 90.235931 
L 81.660968 69.328571 
L 81.878419 68.944518 
L 82.530773 74.804351 
L 82.965675 75.555245 
L 83.400577 74.801225 
L 83.618028 74.227541 
L 84.487833 70.718082 
L 84.705284 68.857393 
L 85.357637 61.047578 
L 85.575089 60.188172 
L 85.79254 59.901299 
L 86.444893 59.90099 
L 86.879795 59.531693 
L 87.314698 58.391734 
L 88.401953 54.574077 
L 88.836856 53.730634 
L 89.054307 53.568 
L 89.271758 53.586181 
L 89.489209 53.770173 
L 89.924111 54.562851 
L 91.011367 57.409814 
L 91.66372 58.966999 
L 92.098623 59.381081 
L 92.533525 59.376011 
L 92.968427 59.198926 
L 93.185878 59.109748 
L 93.403329 58.870099 
L 93.838232 57.92121 
L 94.273134 57.445086 
L 94.708036 57.282462 
L 95.142939 57.335394 
L 95.36039 57.192288 
L 95.577841 57.188931 
L 96.447645 57.724741 
L 97.099999 58.34219 
L 97.969803 58.551118 
L 98.187254 58.482469 
L 99.27451 58.9626 
L 99.709412 59.075078 
L 100.796668 59.591393 
L 101.23157 60.119248 
L 101.883924 60.787363 
L 102.753728 61.35721 
L 103.623533 61.434994 
L 103.840984 61.322532 
L 105.580593 61.562532 
L 106.015495 61.773224 
L 107.320202 62.032414 
L 107.972556 62.318805 
L 108.407458 62.483175 
L 109.277262 62.843515 
L 110.79942 63.929402 
L 111.451774 64.117275 
L 112.321578 64.101271 
L 112.973932 63.753141 
L 113.626285 63.911917 
L 114.061187 63.855895 
L 115.148443 64.346256 
L 116.018248 64.370865 
L 116.45315 64.122652 
L 116.670601 63.981736 
L 117.105503 64.035488 
L 117.975308 63.968141 
L 118.41021 63.650963 
L 119.280015 63.154866 
L 120.149819 62.962437 
L 122.324331 63.87068 
L 122.541782 64.033215 
L 123.411586 64.068542 
L 123.629037 64.286356 
L 126.673353 65.086276 
L 127.108255 65.273799 
L 129.065316 65.234166 
L 129.500218 65.078596 
L 129.93512 64.683927 
L 130.804925 63.618122 
L 131.239827 63.54184 
L 131.457278 63.49517 
L 132.109632 62.968963 
L 132.979436 63.277125 
L 134.284143 64.279855 
L 134.719045 64.357797 
L 135.153948 64.472082 
L 135.58885 64.504327 
L 136.023752 64.187511 
L 136.241203 64.178438 
L 137.328459 64.73783 
L 137.763361 64.619175 
L 138.198263 64.832505 
L 138.415715 65.036435 
L 139.720421 65.350299 
L 140.590226 65.935236 
L 141.242579 66.43586 
L 141.677482 66.497019 
L 142.112384 66.324181 
L 144.504346 64.763643 
L 146.026504 65.041045 
L 146.461407 65.327791 
L 146.896309 65.288498 
L 147.983565 65.013365 
L 148.418467 64.991395 
L 148.853369 64.876719 
L 149.505722 64.748397 
L 150.375527 65.046558 
L 150.810429 65.360903 
L 151.245332 65.547491 
L 151.897685 66.064983 
L 152.332587 66.22595 
L 153.202392 66.976367 
L 153.637294 67.502083 
L 155.376903 67.661477 
L 156.246708 67.249083 
L 156.464159 67.263351 
L 157.333963 66.72181 
L 157.986317 66.783606 
L 158.63867 66.570151 
L 159.073572 66.614626 
L 159.291024 66.693234 
L 160.160828 66.514284 
L 160.813182 66.577838 
L 161.465535 66.290654 
L 161.900437 66.135107 
L 162.335339 65.9564 
L 163.205144 65.688685 
L 163.640046 65.449308 
L 164.509851 65.191184 
L 165.162204 64.684819 
L 165.379655 64.642895 
L 166.466911 65.07869 
L 167.119264 64.754222 
L 167.989069 64.406124 
L 168.423971 64.495952 
L 169.076325 64.130642 
L 169.293776 64.095573 
L 171.033385 62.948239 
L 171.250836 62.997859 
L 171.685738 62.93564 
L 172.120641 62.930088 
L 172.772994 62.838724 
L 173.207896 63.012227 
L 173.425347 63.0073 
L 174.077701 63.419182 
L 174.512603 63.936383 
L 175.164956 64.493045 
L 175.81731 65.107126 
L 176.252212 65.562277 
L 176.687114 65.863697 
L 178.644175 66.491146 
L 179.296528 66.859412 
L 179.73143 66.843351 
L 181.036137 66.255831 
L 181.471039 66.199088 
L 182.123393 65.708877 
L 182.775746 65.464196 
L 182.993197 65.294789 
L 183.4281 65.343711 
L 184.080453 65.022309 
L 184.732806 64.979545 
L 186.037513 64.178421 
L 186.689867 64.103491 
L 187.777122 63.387557 
L 188.212025 63.288671 
L 188.864378 63.654971 
L 191.25634 65.623242 
L 191.691243 65.796586 
L 192.126145 65.749521 
L 192.561047 65.729622 
L 192.99595 65.668496 
L 194.083205 65.415305 
L 194.95301 65.515855 
L 195.605363 65.500791 
L 196.257717 65.596312 
L 196.692619 65.82673 
L 197.127521 65.839082 
L 198.214777 66.297478 
L 198.86713 66.697151 
L 200.389288 67.098354 
L 204.303409 67.267064 
L 205.173213 67.004091 
L 206.043018 66.881224 
L 206.695371 66.543931 
L 207.130273 66.106538 
L 207.782627 65.447178 
L 209.304785 64.531792 
L 209.522236 64.572324 
L 210.39204 64.322115 
L 210.826943 64.273619 
L 212.13165 64.534429 
L 212.349101 64.42684 
L 212.784003 64.013229 
L 213.871259 63.899108 
L 214.306161 63.935561 
L 214.958514 63.713018 
L 215.610868 63.874419 
L 217.133026 63.854595 
L 217.567928 64.008603 
L 218.00283 63.961762 
L 218.437732 64.181343 
L 220.177342 64.221413 
L 221.047146 64.369266 
L 222.786755 63.554373 
L 223.004206 63.477005 
L 223.65656 63.593486 
L 223.874011 63.450616 
L 224.091462 63.449126 
L 224.961267 63.90147 
L 225.178718 63.929186 
L 225.396169 63.833767 
L 225.831071 63.489454 
L 226.700876 63.315103 
L 227.135778 63.331846 
L 227.57068 63.418346 
L 228.005582 63.469247 
L 230.180094 64.258143 
L 231.049898 64.888472 
L 231.484801 65.019292 
L 232.137154 65.065982 
L 232.572056 65.123005 
L 233.441861 65.444441 
L 234.094214 65.360324 
L 234.746568 65.401467 
L 235.18147 65.479536 
L 235.616372 65.806181 
L 236.486177 65.969948 
L 237.13853 66.408413 
L 237.790884 66.854231 
L 238.225786 66.812567 
L 240.400297 65.729309 
L 240.835199 65.741046 
L 241.270102 65.601542 
L 242.139906 65.551389 
L 242.574809 65.581443 
L 243.227162 65.266619 
L 244.966771 64.031302 
L 245.401673 63.694818 
L 245.619124 63.478538 
L 246.488929 63.338515 
L 247.141282 62.770294 
L 247.793636 63.225305 
L 248.66344 63.378054 
L 249.750696 63.832796 
L 249.968147 63.729105 
L 250.620501 64.013493 
L 251.055403 63.943056 
L 251.707756 63.820767 
L 253.229914 64.065156 
L 254.31717 65.027964 
L 254.534621 65.273558 
L 254.969523 65.466233 
L 255.839328 66.113894 
L 256.491681 66.226007 
L 257.144035 66.117048 
L 257.796388 65.808528 
L 258.666193 65.657777 
L 258.883644 65.655382 
L 259.970899 66.264663 
L 260.405802 66.173334 
L 260.840704 66.151097 
L 261.493057 65.859916 
L 262.145411 65.993682 
L 263.232666 65.770444 
L 264.102471 66.062858 
L 264.537373 66.089532 
L 264.972275 65.893429 
L 265.84208 65.692823 
L 266.711885 65.391771 
L 268.668945 65.421446 
L 269.103847 65.481224 
L 271.278358 65.365607 
L 271.713261 65.500603 
L 273.235419 65.045472 
L 274.322674 65.374331 
L 274.975028 65.686541 
L 275.192479 65.631856 
L 275.844832 66.102777 
L 276.497186 66.480494 
L 277.149539 66.669954 
L 278.019344 66.694133 
L 279.976404 66.754489 
L 280.628757 66.834348 
L 281.498562 67.30402 
L 281.716013 67.317803 
L 283.02072 66.774938 
L 283.890524 66.928784 
L 284.542878 67.148724 
L 284.97778 67.133008 
L 286.93484 66.606236 
L 287.369742 66.649575 
L 287.587194 66.638416 
L 288.022096 66.480001 
L 288.8919 66.715595 
L 290.414058 66.838069 
L 290.848961 67.022509 
L 291.936216 66.620533 
L 292.58857 66.069562 
L 293.023472 65.839689 
L 293.458374 65.668996 
L 294.763081 65.372783 
L 295.632886 64.95797 
L 295.850337 64.90379 
L 296.067788 65.062329 
L 296.285239 64.988514 
L 296.50269 65.189444 
L 298.45975 91.608298 
L 299.547006 101.506809 
L 300.634262 109.176535 
L 301.721517 115.329225 
L 302.808773 119.987086 
L 303.896029 123.760645 
L 305.200736 127.273582 
L 306.505442 130.14101 
L 308.0276 132.704692 
L 309.332307 134.4686 
L 310.419563 135.614717 
L 311.72427 136.756708 
L 314.116232 138.144439 
L 316.508195 139.040287 
L 318.030353 139.33699 
L 320.204864 139.685247 
L 323.031729 139.915247 
L 324.771338 140.01546 
L 330.207616 139.719104 
L 333.034481 139.46285 
L 334.339188 139.318904 
L 335.208992 139.259755 
L 335.643895 139.244422 
L 336.296248 139.131805 
L 338.68821 138.896426 
L 343.907038 138.281874 
L 350.430572 137.555113 
L 351.300376 137.437496 
L 357.389008 137.006018 
L 358.693715 136.815226 
L 363.47764 136.254881 
L 366.739407 135.877232 
L 367.826663 135.731206 
L 368.479016 135.633923 
L 369.566272 135.511161 
L 372.175685 135.287613 
L 373.04549 135.184971 
L 384.5704 134.060473 
L 385.440205 134.012449 
L 389.354325 133.598394 
L 390.441581 133.489583 
L 393.050994 133.249567 
L 393.920799 133.169909 
L 398.487273 132.926689 
L 398.487273 132.926689 
" style="fill:none;stroke:#000000;stroke-linecap:square;stroke-width:1.5;"/>
   </g>
   <g id="patch_3">
    <path d="M 57.6 307.584 
L 57.6 41.472 
" style="fill:none;stroke:#000000;stroke-linecap:square;stroke-linejoin:miter;stroke-width:0.8;"/>
   </g>
   <g id="patch_4">
    <path d="M 414.72 307.584 
L 414.72 41.472 
" style="fill:none;stroke:#000000;stroke-linecap:square;stroke-linejoin:miter;stroke-width:0.8;"/>
   </g>
   <g id="patch_5">
    <path d="M 57.6 307.584 
L 414.72 307.584 
" style="fill:none;stroke:#000000;stroke-linecap:square;stroke-linejoin:miter;stroke-width:0.8;"/>
   </g>
   <g id="patch_6">
    <path d="M 57.6 41.472 
L 414.72 41.472 
" style="fill:none;stroke:#000000;stroke-linecap:square;stroke-linejoin:miter;stroke-width:0.8;"/>
   </g>
  </g>
 </g>
 <defs>
  <clipPath id="p3fe2b6fe6d">
   <rect height="266.112" width="357.12" x="57.6" y="41.472"/>
  </clipPath>
 </defs>
</svg>
