<?xml version="1.0" encoding="utf-8" standalone="no"?>
<!DOCTYPE svg PUBLIC "-//W3C//DTD SVG 1.1//EN"
  "http://www.w3.org/Graphics/SVG/1.1/DTD/svg11.dtd">
<svg xmlns:xlink="http://www.w3.org/1999/xlink" width="460.8pt" height="345.6pt" viewBox="0 0 460.8 345.6" xmlns="http://www.w3.org/2000/svg" version="1.1">
 <metadata>
  <rdf:RDF xmlns:dc="http://purl.org/dc/elements/1.1/" xmlns:cc="http://creativecommons.org/ns#" xmlns:rdf="http://www.w3.org/1999/02/22-rdf-syntax-ns#">
   <cc:Work>
    <dc:type rdf:resource="http://purl.org/dc/dcmitype/StillImage"/>
    <dc:date>2024-02-29T19:29:18.862211</dc:date>
    <dc:format>image/svg+xml</dc:format>
    <dc:creator>
     <cc:Agent>
      <dc:title>Matplotlib v3.6.2, https://matplotlib.org/</dc:title>
     </cc:Agent>
    </dc:creator>
   </cc:Work>
  </rdf:RDF>
 </metadata>
 <defs>
  <style type="text/css">*{stroke-linejoin: round; stroke-linecap: butt}</style>
 </defs>
 <g id="figure_1">
  <g id="patch_1">
   <path d="M 0 345.6 
L 460.8 345.6 
L 460.8 0 
L 0 0 
z
" style="fill: #ffffff"/>
  </g>
  <g id="axes_1">
   <g id="patch_2">
    <path d="M 57.6 307.584 
L 414.72 307.584 
L 414.72 41.472 
L 57.6 41.472 
z
" style="fill: #ffffff"/>
   </g>
   <g id="matplotlib.axis_1">
    <g id="xtick_1">
     <g id="line2d_1">
      <defs>
       <path id="m903bd4a107" d="M 0 0 
L 0 3.5 
" style="stroke: #000000; stroke-width: 0.8"/>
      </defs>
      <g>
       <use xlink:href="#m903bd4a107" x="121.347784" y="307.584" style="stroke: #000000; stroke-width: 0.8"/>
      </g>
     </g>
     <g id="text_1">
      <!-- 0.2 -->
      <g transform="translate(113.396222 322.182437) scale(0.1 -0.1)">
       <defs>
        <path id="DejaVuSans-30" d="M 2034 4250 
Q 1547 4250 1301 3770 
Q 1056 3291 1056 2328 
Q 1056 1369 1301 889 
Q 1547 409 2034 409 
Q 2525 409 2770 889 
Q 3016 1369 3016 2328 
Q 3016 3291 2770 3770 
Q 2525 4250 2034 4250 
z
M 2034 4750 
Q 2819 4750 3233 4129 
Q 3647 3509 3647 2328 
Q 3647 1150 3233 529 
Q 2819 -91 2034 -91 
Q 1250 -91 836 529 
Q 422 1150 422 2328 
Q 422 3509 836 4129 
Q 1250 4750 2034 4750 
z
" transform="scale(0.015625)"/>
        <path id="DejaVuSans-2e" d="M 684 794 
L 1344 794 
L 1344 0 
L 684 0 
L 684 794 
z
" transform="scale(0.015625)"/>
        <path id="DejaVuSans-32" d="M 1228 531 
L 3431 531 
L 3431 0 
L 469 0 
L 469 531 
Q 828 903 1448 1529 
Q 2069 2156 2228 2338 
Q 2531 2678 2651 2914 
Q 2772 3150 2772 3378 
Q 2772 3750 2511 3984 
Q 2250 4219 1831 4219 
Q 1534 4219 1204 4116 
Q 875 4013 500 3803 
L 500 4441 
Q 881 4594 1212 4672 
Q 1544 4750 1819 4750 
Q 2544 4750 2975 4387 
Q 3406 4025 3406 3419 
Q 3406 3131 3298 2873 
Q 3191 2616 2906 2266 
Q 2828 2175 2409 1742 
Q 1991 1309 1228 531 
z
" transform="scale(0.015625)"/>
       </defs>
       <use xlink:href="#DejaVuSans-30"/>
       <use xlink:href="#DejaVuSans-2e" x="63.623047"/>
       <use xlink:href="#DejaVuSans-32" x="95.410156"/>
      </g>
     </g>
    </g>
    <g id="xtick_2">
     <g id="line2d_2">
      <g>
       <use xlink:href="#m903bd4a107" x="200.539546" y="307.584" style="stroke: #000000; stroke-width: 0.8"/>
      </g>
     </g>
     <g id="text_2">
      <!-- 0.4 -->
      <g transform="translate(192.587983 322.182437) scale(0.1 -0.1)">
       <defs>
        <path id="DejaVuSans-34" d="M 2419 4116 
L 825 1625 
L 2419 1625 
L 2419 4116 
z
M 2253 4666 
L 3047 4666 
L 3047 1625 
L 3713 1625 
L 3713 1100 
L 3047 1100 
L 3047 0 
L 2419 0 
L 2419 1100 
L 313 1100 
L 313 1709 
L 2253 4666 
z
" transform="scale(0.015625)"/>
       </defs>
       <use xlink:href="#DejaVuSans-30"/>
       <use xlink:href="#DejaVuSans-2e" x="63.623047"/>
       <use xlink:href="#DejaVuSans-34" x="95.410156"/>
      </g>
     </g>
    </g>
    <g id="xtick_3">
     <g id="line2d_3">
      <g>
       <use xlink:href="#m903bd4a107" x="279.731307" y="307.584" style="stroke: #000000; stroke-width: 0.8"/>
      </g>
     </g>
     <g id="text_3">
      <!-- 0.6 -->
      <g transform="translate(271.779745 322.182437) scale(0.1 -0.1)">
       <defs>
        <path id="DejaVuSans-36" d="M 2113 2584 
Q 1688 2584 1439 2293 
Q 1191 2003 1191 1497 
Q 1191 994 1439 701 
Q 1688 409 2113 409 
Q 2538 409 2786 701 
Q 3034 994 3034 1497 
Q 3034 2003 2786 2293 
Q 2538 2584 2113 2584 
z
M 3366 4563 
L 3366 3988 
Q 3128 4100 2886 4159 
Q 2644 4219 2406 4219 
Q 1781 4219 1451 3797 
Q 1122 3375 1075 2522 
Q 1259 2794 1537 2939 
Q 1816 3084 2150 3084 
Q 2853 3084 3261 2657 
Q 3669 2231 3669 1497 
Q 3669 778 3244 343 
Q 2819 -91 2113 -91 
Q 1303 -91 875 529 
Q 447 1150 447 2328 
Q 447 3434 972 4092 
Q 1497 4750 2381 4750 
Q 2619 4750 2861 4703 
Q 3103 4656 3366 4563 
z
" transform="scale(0.015625)"/>
       </defs>
       <use xlink:href="#DejaVuSans-30"/>
       <use xlink:href="#DejaVuSans-2e" x="63.623047"/>
       <use xlink:href="#DejaVuSans-36" x="95.410156"/>
      </g>
     </g>
    </g>
    <g id="xtick_4">
     <g id="line2d_4">
      <g>
       <use xlink:href="#m903bd4a107" x="358.923069" y="307.584" style="stroke: #000000; stroke-width: 0.8"/>
      </g>
     </g>
     <g id="text_4">
      <!-- 0.8 -->
      <g transform="translate(350.971506 322.182437) scale(0.1 -0.1)">
       <defs>
        <path id="DejaVuSans-38" d="M 2034 2216 
Q 1584 2216 1326 1975 
Q 1069 1734 1069 1313 
Q 1069 891 1326 650 
Q 1584 409 2034 409 
Q 2484 409 2743 651 
Q 3003 894 3003 1313 
Q 3003 1734 2745 1975 
Q 2488 2216 2034 2216 
z
M 1403 2484 
Q 997 2584 770 2862 
Q 544 3141 544 3541 
Q 544 4100 942 4425 
Q 1341 4750 2034 4750 
Q 2731 4750 3128 4425 
Q 3525 4100 3525 3541 
Q 3525 3141 3298 2862 
Q 3072 2584 2669 2484 
Q 3125 2378 3379 2068 
Q 3634 1759 3634 1313 
Q 3634 634 3220 271 
Q 2806 -91 2034 -91 
Q 1263 -91 848 271 
Q 434 634 434 1313 
Q 434 1759 690 2068 
Q 947 2378 1403 2484 
z
M 1172 3481 
Q 1172 3119 1398 2916 
Q 1625 2713 2034 2713 
Q 2441 2713 2670 2916 
Q 2900 3119 2900 3481 
Q 2900 3844 2670 4047 
Q 2441 4250 2034 4250 
Q 1625 4250 1398 4047 
Q 1172 3844 1172 3481 
z
" transform="scale(0.015625)"/>
       </defs>
       <use xlink:href="#DejaVuSans-30"/>
       <use xlink:href="#DejaVuSans-2e" x="63.623047"/>
       <use xlink:href="#DejaVuSans-38" x="95.410156"/>
      </g>
     </g>
    </g>
   </g>
   <g id="matplotlib.axis_2">
    <g id="ytick_1">
     <g id="line2d_5">
      <defs>
       <path id="m8a92f7ba28" d="M 0 0 
L -3.5 0 
" style="stroke: #000000; stroke-width: 0.8"/>
      </defs>
      <g>
       <use xlink:href="#m8a92f7ba28" x="57.6" y="275.172114" style="stroke: #000000; stroke-width: 0.8"/>
      </g>
     </g>
     <g id="text_5">
      <!-- −60 -->
      <g transform="translate(29.495313 278.971332) scale(0.1 -0.1)">
       <defs>
        <path id="DejaVuSans-2212" d="M 678 2272 
L 4684 2272 
L 4684 1741 
L 678 1741 
L 678 2272 
z
" transform="scale(0.015625)"/>
       </defs>
       <use xlink:href="#DejaVuSans-2212"/>
       <use xlink:href="#DejaVuSans-36" x="83.789062"/>
       <use xlink:href="#DejaVuSans-30" x="147.412109"/>
      </g>
     </g>
    </g>
    <g id="ytick_2">
     <g id="line2d_6">
      <g>
       <use xlink:href="#m8a92f7ba28" x="57.6" y="234.99673" style="stroke: #000000; stroke-width: 0.8"/>
      </g>
     </g>
     <g id="text_6">
      <!-- −40 -->
      <g transform="translate(29.495313 238.795949) scale(0.1 -0.1)">
       <use xlink:href="#DejaVuSans-2212"/>
       <use xlink:href="#DejaVuSans-34" x="83.789062"/>
       <use xlink:href="#DejaVuSans-30" x="147.412109"/>
      </g>
     </g>
    </g>
    <g id="ytick_3">
     <g id="line2d_7">
      <g>
       <use xlink:href="#m8a92f7ba28" x="57.6" y="194.821347" style="stroke: #000000; stroke-width: 0.8"/>
      </g>
     </g>
     <g id="text_7">
      <!-- −20 -->
      <g transform="translate(29.495313 198.620566) scale(0.1 -0.1)">
       <use xlink:href="#DejaVuSans-2212"/>
       <use xlink:href="#DejaVuSans-32" x="83.789062"/>
       <use xlink:href="#DejaVuSans-30" x="147.412109"/>
      </g>
     </g>
    </g>
    <g id="ytick_4">
     <g id="line2d_8">
      <g>
       <use xlink:href="#m8a92f7ba28" x="57.6" y="154.645963" style="stroke: #000000; stroke-width: 0.8"/>
      </g>
     </g>
     <g id="text_8">
      <!-- 0 -->
      <g transform="translate(44.2375 158.445182) scale(0.1 -0.1)">
       <use xlink:href="#DejaVuSans-30"/>
      </g>
     </g>
    </g>
    <g id="ytick_5">
     <g id="line2d_9">
      <g>
       <use xlink:href="#m8a92f7ba28" x="57.6" y="114.47058" style="stroke: #000000; stroke-width: 0.8"/>
      </g>
     </g>
     <g id="text_9">
      <!-- 20 -->
      <g transform="translate(37.875 118.269799) scale(0.1 -0.1)">
       <use xlink:href="#DejaVuSans-32"/>
       <use xlink:href="#DejaVuSans-30" x="63.623047"/>
      </g>
     </g>
    </g>
    <g id="ytick_6">
     <g id="line2d_10">
      <g>
       <use xlink:href="#m8a92f7ba28" x="57.6" y="74.295197" style="stroke: #000000; stroke-width: 0.8"/>
      </g>
     </g>
     <g id="text_10">
      <!-- 40 -->
      <g transform="translate(37.875 78.094415) scale(0.1 -0.1)">
       <use xlink:href="#DejaVuSans-34"/>
       <use xlink:href="#DejaVuSans-30" x="63.623047"/>
      </g>
     </g>
    </g>
   </g>
   <g id="line2d_11">
    <path d="M 73.832727 249.324343 
L 74.608807 249.048278 
L 74.86222 248.888114 
L 75.226502 249.12802 
L 75.511593 249.268824 
L 77.538902 249.073347 
L 77.776477 249.09784 
L 78.156597 249.133916 
L 78.80597 249.18799 
L 79.534534 248.988884 
L 79.708756 248.892402 
L 80.025523 248.759066 
L 80.199745 248.895485 
L 80.484835 249.089578 
L 81.245076 249.19031 
L 81.577682 249.493112 
L 81.68855 251.01076 
L 82.179539 259.731064 
L 82.686366 263.102477 
L 83.478284 267.782044 
L 84.887897 273.766345 
L 85.299694 275.226911 
L 86.028259 278.074983 
L 86.851853 280.409344 
L 88.657425 284.91637 
L 88.863324 285.295053 
L 89.481019 286.567848 
L 91.159885 289.212323 
L 91.935964 289.950591 
L 92.680367 290.816178 
L 92.870427 290.863562 
L 93.282224 291.462372 
L 93.598991 291.835965 
L 93.89992 291.860585 
L 94.216687 292.008394 
L 94.485939 292.217386 
L 95.071958 292.832734 
L 95.293695 292.821045 
L 95.483755 292.830324 
L 95.753007 293.143887 
L 96.038097 293.437261 
L 96.97256 293.658331 
L 97.225974 293.842075 
L 97.416034 293.934268 
L 97.669447 294.086073 
L 98.176275 293.993116 
L 98.667264 294.368521 
L 99.142414 294.315106 
L 100.0452 294.610095 
L 100.235261 294.598631 
L 100.742088 294.466282 
L 101.280592 294.841687 
L 102.120024 294.796368 
L 102.595175 294.949221 
L 102.943619 294.812442 
L 103.529638 295.1306 
L 103.783051 295.320734 
L 104.749191 295.070091 
L 105.43024 295.119899 
L 105.731169 295.02543 
L 105.921229 295.127697 
L 106.237996 295.324371 
L 106.602278 295.205956 
L 106.887369 295.045366 
L 107.710963 295.293316 
L 107.901023 295.31159 
L 108.233628 295.124793 
L 108.898839 295.415532 
L 109.421505 295.126634 
L 109.84914 295.180019 
L 110.118392 295.213335 
L 110.466836 295.317053 
L 110.862795 295.127113 
L 111.147885 295.178119 
L 111.337946 295.254927 
L 111.528006 295.300859 
L 112.018995 294.953487 
L 112.430792 295.069866 
L 112.874266 295.15082 
L 113.032649 295.140209 
L 113.460285 294.852208 
L 113.903759 295.121545 
L 114.204687 295.022467 
L 114.616484 294.84016 
L 115.107473 294.945779 
L 115.32921 294.978451 
L 115.535109 295.028723 
L 116.041936 294.675274 
L 116.263673 294.938296 
L 116.48541 295.00334 
L 117.895023 294.880959 
L 118.164275 294.854947 
L 118.607749 294.569746 
L 118.813648 294.844022 
L 119.051223 295.03691 
L 120.191584 294.653094 
L 120.42916 294.756288 
L 120.698412 294.846326 
L 121.205239 294.531371 
L 121.791258 294.824371 
L 122.662367 294.658497 
L 123.375093 294.696078 
L 123.78689 294.589816 
L 124.246203 294.770596 
L 125.164827 294.554255 
L 125.386564 294.61686 
L 125.671654 294.797266 
L 126.257673 294.598451 
L 126.590279 294.69039 
L 127.398035 294.477687 
L 127.619772 294.387079 
L 128.047407 294.419916 
L 128.332498 294.559329 
L 129.124415 294.506707 
L 129.457021 294.505719 
L 129.742111 294.43608 
L 129.948009 294.261989 
L 130.185585 294.136944 
L 130.739927 294.324071 
L 131.48433 294.327707 
L 131.721905 294.38461 
L 131.943642 294.390552 
L 132.482146 294.236741 
L 132.688044 294.294003 
L 133.163195 294.02519 
L 133.464124 294.063609 
L 134.414425 294.431036 
L 134.588647 294.299705 
L 134.778707 294.274696 
L 134.984606 294.193114 
L 135.142989 294.253653 
L 135.317211 294.259984 
L 135.71317 294.017317 
L 136.204159 294.181664 
L 136.505087 294.287268 
L 136.758501 294.298792 
L 136.996076 294.364615 
L 137.692964 294.144562 
L 137.883024 294.092269 
L 138.389851 293.809014 
L 139.134254 294.093512 
L 139.894495 293.857894 
L 140.179585 293.787731 
L 140.575544 293.882918 
L 140.876473 293.796023 
L 141.240755 294.000315 
L 141.462492 294.046008 
L 141.905965 294.172176 
L 142.286086 293.924959 
L 142.666206 293.86409 
L 143.315579 293.85547 
L 143.521477 293.903467 
L 143.854083 293.96025 
L 144.471779 293.945313 
L 144.883576 293.823501 
L 145.136989 293.815823 
L 145.469595 293.861217 
L 145.675493 293.887692 
L 146.134806 293.727626 
L 146.467411 293.91984 
L 147.069268 293.945134 
L 147.386035 293.908107 
L 148.051246 293.940359 
L 148.241306 293.93349 
L 148.668942 293.711612 
L 149.159931 293.849692 
L 149.476698 293.841401 
L 149.983525 293.895385 
L 150.442837 293.866485 
L 150.727928 293.866814 
L 151.361462 293.616574 
L 152.232571 293.898513 
L 152.62853 293.762198 
L 154.022305 293.668957 
L 154.830061 293.898887 
L 155.083475 293.726548 
L 155.305212 293.684373 
L 155.685332 293.68786 
L 155.986261 293.589335 
L 156.176321 293.543388 
L 156.794017 293.849139 
L 157.554258 293.706538 
L 157.902701 293.559208 
L 158.552074 293.581628 
L 158.900517 293.495435 
L 159.343991 293.671576 
L 159.692435 293.705595 
L 160.579383 293.537087 
L 160.816958 293.678072 
L 160.99118 293.706224 
L 161.387139 293.507693 
L 162.05235 293.634609 
L 162.321602 293.611501 
L 162.606692 293.585055 
L 163.034327 293.54026 
L 163.335256 293.563488 
L 163.572831 293.564715 
L 163.952952 293.435659 
L 164.222204 293.463721 
L 164.443941 293.509145 
L 164.665678 293.501886 
L 165.093313 293.534678 
L 165.378404 293.548417 
L 165.916908 293.48454 
L 166.091129 293.440853 
L 166.518765 293.177682 
L 166.962239 293.40628 
L 167.358198 293.601533 
L 168.1026 293.461177 
L 168.419367 293.521283 
L 168.656942 293.53577 
L 169.052901 293.310869 
L 169.35383 293.403137 
L 169.73395 293.635806 
L 170.272454 293.564192 
L 170.874312 293.434716 
L 171.333624 293.405816 
L 171.571199 293.274769 
L 171.998835 293.476114 
L 172.268087 293.536758 
L 172.964974 293.46459 
L 173.376771 293.290125 
L 173.883599 293.348509 
L 174.263719 293.289272 
L 175.087314 293.531969 
L 176.100968 293.382932 
L 176.417735 293.335204 
L 176.750341 293.287985 
L 177.209653 293.433848 
L 177.874864 293.319893 
L 178.619266 293.309866 
L 179.046902 293.450117 
L 179.44286 293.096055 
L 180.060556 293.448156 
L 180.266455 293.504011 
L 180.979181 293.317035 
L 181.549361 293.337255 
L 182.262087 293.224123 
L 183.054005 293.367023 
L 183.608347 293.156878 
L 184.210204 293.129684 
L 184.479456 293.086117 
L 184.73287 293.13817 
L 185.097152 293.305885 
L 185.350566 293.316945 
L 186.427574 293.224452 
L 186.665149 293.18057 
L 187.076946 292.905112 
L 187.251168 293.017989 
L 187.662965 293.298162 
L 187.963894 293.339993 
L 188.549913 293.162461 
L 188.898357 293.025772 
L 189.120094 293.164077 
L 189.294316 293.166846 
L 189.706113 292.96833 
L 190.165425 293.237338 
L 190.482192 293.328424 
L 190.893989 293.006076 
L 191.179079 292.872695 
L 191.84429 293.112592 
L 192.224411 293.000972 
L 193.222227 293.124371 
L 193.570671 293.152164 
L 194.394265 293.218121 
L 194.790224 292.972431 
L 195.281213 293.222222 
L 195.534626 293.312201 
L 196.564119 293.045034 
L 196.94424 293.069594 
L 197.292683 292.902313 
L 197.672804 293.068052 
L 198.100439 293.333288 
L 198.38553 293.184402 
L 198.95571 292.972955 
L 199.63676 292.971084 
L 199.842658 292.969363 
L 200.254455 293.090697 
L 200.492031 293.18964 
L 200.713768 293.217508 
L 201.331463 292.94618 
L 201.854129 293.109674 
L 202.075866 293.140789 
L 202.535178 292.97068 
L 203.422126 293.189161 
L 205.021799 293.000808 
L 205.87707 293.08263 
L 206.225514 292.88127 
L 206.510604 292.902208 
L 207.096624 293.139891 
L 207.429229 292.918282 
L 207.714319 292.885416 
L 208.09444 293.084216 
L 208.37953 293.196106 
L 209.092256 292.839828 
L 209.662437 293.044749 
L 210.802798 292.979645 
L 211.119565 292.938397 
L 211.658069 292.872455 
L 212.244088 292.87247 
L 212.545017 292.671844 
L 212.719239 292.687739 
L 213.463641 293.087374 
L 214.524811 293.006839 
L 214.841578 293.017421 
L 215.459274 292.766597 
L 215.728526 293.006405 
L 215.966101 293.128397 
L 216.900564 292.776146 
L 217.217331 292.916636 
L 217.502421 292.902193 
L 217.882541 292.738505 
L 218.753651 292.959006 
L 219.371347 292.715546 
L 219.703952 292.739657 
L 220.274133 292.839514 
L 220.49587 292.785754 
L 221.034374 292.968525 
L 222.111382 292.775367 
L 222.333118 292.871722 
L 222.554855 292.931543 
L 222.998329 292.743594 
L 223.457641 292.929956 
L 224.407943 292.646311 
L 224.693033 292.755597 
L 224.883093 292.767061 
L 225.088992 292.796934 
L 225.611657 292.541127 
L 226.134323 292.758545 
L 227.084624 292.731336 
L 227.290523 292.754339 
L 227.543936 292.778166 
L 227.70232 292.738056 
L 228.098279 292.460098 
L 228.890196 292.821913 
L 229.903851 292.498382 
L 230.347325 292.58902 
L 230.648253 292.272598 
L 230.86999 292.351127 
L 231.456009 292.761927 
L 231.83613 292.53529 
L 232.152897 292.409422 
L 232.548856 292.492246 
L 232.754754 292.630956 
L 232.770593 292.616992 
L 233.214066 292.306482 
L 233.404127 292.356814 
L 233.958469 292.683174 
L 234.877093 292.417459 
L 235.621496 292.438606 
L 235.859071 292.453199 
L 236.175838 292.577301 
L 236.587636 292.588301 
L 237.300361 292.303773 
L 237.918057 292.506434 
L 238.424884 292.294524 
L 239.010903 292.488924 
L 239.264317 292.342057 
L 239.581084 292.213585 
L 239.897851 292.346592 
L 240.48387 292.535933 
L 240.990697 292.136867 
L 241.228273 292.225813 
L 241.608393 292.547727 
L 241.798453 292.350439 
L 242.02019 292.219377 
L 243.033845 292.513095 
L 243.588187 292.064923 
L 243.746571 292.224121 
L 244.079176 292.64251 
L 244.23756 292.562125 
L 244.633518 292.251316 
L 245.900587 292.216713 
L 246.138162 292.1599 
L 246.644989 292.466953 
L 248.355531 292.33661 
L 248.608945 292.292384 
L 249.274156 292.545377 
L 250.224457 292.321179 
L 250.604577 292.487771 
L 250.842153 292.553953 
L 251.428172 292.444159 
L 252.140897 292.579471 
L 252.932815 292.458811 
L 253.091199 292.446793 
L 253.360451 292.605363 
L 253.914793 292.274109 
L 254.595842 292.304267 
L 255.261053 292.102938 
L 255.451113 292.139665 
L 255.641173 292.138169 
L 255.942102 292.337792 
L 255.95794 292.322691 
L 256.338061 292.063142 
L 256.892403 292.193635 
L 258.191148 292.090426 
L 258.507915 292.302291 
L 258.539592 292.251226 
L 258.856359 291.869011 
L 259.030581 291.997903 
L 259.474055 292.380641 
L 259.695792 292.327974 
L 259.99672 292.220619 
L 260.883668 292.355722 
L 261.105405 292.407087 
L 261.580555 292.142479 
L 262.182413 292.436047 
L 262.641725 292.187693 
L 262.926815 292.147343 
L 263.639541 292.247783 
L 263.892955 292.067033 
L 264.162207 292.243024 
L 264.605681 292.523302 
L 265.429275 292.161232 
L 266.142001 292.43027 
L 266.617151 292.268467 
L 267.123979 292.561002 
L 267.630806 292.354195 
L 268.137633 292.477669 
L 268.660299 292.614927 
L 269.214641 292.358072 
L 269.658115 292.626481 
L 269.911529 292.407775 
L 270.133266 292.295616 
L 271.273627 292.569862 
L 271.732939 292.400786 
L 272.49318 292.478911 
L 272.794109 292.452316 
L 273.110876 292.543551 
L 273.776087 292.602699 
L 273.950309 292.564669 
L 274.346267 292.348149 
L 274.552166 292.502558 
L 274.773903 292.604899 
L 275.249053 292.581506 
L 275.502467 292.553564 
L 275.850911 292.544255 
L 276.183516 292.613954 
L 276.452768 292.685224 
L 276.706182 292.380342 
L 276.896242 292.352429 
L 277.814867 292.659976 
L 278.781006 292.59978 
L 279.03442 292.61566 
L 279.572924 292.516612 
L 280.253973 292.762466 
L 280.808315 292.520593 
L 281.251789 292.776849 
L 281.521041 292.82992 
L 282.122898 292.536278 
L 282.613887 292.780606 
L 283.215745 292.454501 
L 283.706734 292.63368 
L 284.102692 292.857234 
L 284.625358 292.386044 
L 285.068832 292.641372 
L 285.369761 292.55774 
L 285.639013 292.557784 
L 285.892426 292.550496 
L 286.304223 292.491438 
L 286.462607 292.643123 
L 286.652667 292.721997 
L 287.159494 292.572781 
L 287.888059 292.637436 
L 288.268179 292.661712 
L 289.21848 292.749775 
L 289.566924 292.466773 
L 290.596417 292.727175 
L 290.992376 292.536667 
L 291.245789 292.627678 
L 291.641748 292.717881 
L 291.895162 292.578094 
L 292.227767 292.410993 
L 292.782109 292.733132 
L 293.003846 292.743564 
L 293.463159 292.582614 
L 294.175884 292.589409 
L 294.397621 292.650247 
L 294.809419 292.427172 
L 295.411276 292.623891 
L 295.918103 292.453094 
L 296.504122 292.397643 
L 296.741698 292.400546 
L 296.995111 292.48813 
L 297.359393 292.399379 
L 297.802867 292.611634 
L 298.673977 292.360137 
L 299.529248 292.414121 
L 299.877691 292.320146 
L 300.622094 292.492261 
L 301.033891 292.253471 
L 301.699102 292.550241 
L 301.936677 292.666172 
L 302.665241 292.361978 
L 303.108715 292.518093 
L 303.298775 292.376525 
L 303.536351 292.256299 
L 304.69255 292.426124 
L 305.056833 292.105692 
L 305.389438 292.398586 
L 305.611175 292.491483 
L 306.593153 292.385101 
L 307.29004 292.459619 
L 307.654322 292.184086 
L 308.367048 292.437005 
L 308.858037 292.336505 
L 309.127289 292.230886 
L 309.380703 292.245568 
L 309.88753 292.279453 
L 310.140944 292.147448 
L 310.695286 292.312214 
L 311.122921 292.162085 
L 311.471365 292.275187 
L 312.009869 292.299747 
L 312.310798 292.192078 
L 312.564211 292.129608 
L 312.833463 292.290169 
L 313.166069 292.504504 
L 313.371967 292.443889 
L 313.783765 292.060029 
L 314.433137 292.385909 
L 314.971641 292.351845 
L 315.304246 292.194413 
L 315.858589 292.29174 
L 316.143679 292.117919 
L 316.444608 292.034556 
L 316.793052 292.195969 
L 317.078142 292.311017 
L 317.474101 292.277776 
L 317.901736 291.876674 
L 318.646139 292.154961 
L 318.994583 292.022957 
L 319.089613 291.927096 
L 319.184643 291.359372 
L 319.327188 288.577579 
L 319.659793 282.581776 
L 320.277489 277.834089 
L 320.768478 275.351073 
L 322.19393 269.557407 
L 324.332107 263.488942 
L 325.599175 260.731552 
L 325.852589 260.486618 
L 326.70786 258.829467 
L 327.309717 257.98053 
L 328.101635 256.930795 
L 328.418402 256.600095 
L 329.036098 255.77604 
L 329.416218 255.432028 
L 329.986399 254.78344 
L 331.095084 253.705762 
L 331.665264 253.11707 
L 332.077062 253.041137 
L 332.488859 252.816595 
L 333.027363 252.37191 
L 333.391645 252.057928 
L 333.708412 251.957698 
L 334.611198 251.478381 
L 335.513984 251.003696 
L 335.846589 250.736364 
L 336.13168 250.759637 
L 336.527639 250.452091 
L 336.876082 250.195834 
L 337.113658 250.164711 
L 338.063959 249.80342 
L 338.444079 249.570594 
L 338.792523 249.60798 
L 339.410219 249.255991 
L 339.822016 249.180163 
L 340.36052 248.96829 
L 340.534742 248.834085 
L 340.851509 248.574424 
L 341.104922 248.830882 
L 341.342498 248.959886 
L 341.580073 248.736189 
L 341.928517 248.476999 
L 342.577889 248.497114 
L 342.926333 248.58517 
L 343.084716 248.417403 
L 343.353968 248.196026 
L 343.575705 248.282517 
L 343.829119 248.358412 
L 344.145886 248.288706 
L 344.636875 248.024211 
L 345.698045 247.89038 
L 345.951458 247.742159 
L 346.12568 247.915935 
L 346.331579 248.003549 
L 347.456102 247.533654 
L 347.883737 247.654156 
L 348.216343 247.537096 
L 348.580625 247.211051 
L 348.834038 247.436903 
L 349.10329 247.486801 
L 349.800178 247.202078 
L 350.54458 247.290014 
L 351.193953 246.988641 
L 351.60575 247.259894 
L 352.144254 246.941699 
L 352.888656 247.230156 
L 353.363807 247.045536 
L 353.569706 246.956314 
L 354.29827 247.225995 
L 354.646714 247.045342 
L 355.692045 247.09533 
L 355.897943 247.100216 
L 356.278064 246.934141 
L 356.753214 246.9827 
L 357.054143 247.037844 
L 357.925252 246.933594 
L 358.146989 247.01832 
L 358.606302 246.957488 
L 358.859715 246.801867 
L 359.097291 246.957795 
L 359.477411 247.162619 
L 359.714986 246.939798 
L 359.984238 246.856973 
L 360.807833 247.001662 
L 361.045408 247.063361 
L 361.583912 246.82297 
L 362.043224 246.881137 
L 362.47086 246.680077 
L 362.898495 246.755254 
L 363.262777 246.973316 
L 363.848796 246.892332 
L 364.371462 246.661571 
L 364.767421 246.756032 
L 365.004996 246.696039 
L 365.400955 246.837816 
L 366.208711 246.904462 
L 366.462124 246.773124 
L 367.048143 246.780023 
L 367.539132 246.893103 
L 368.014283 246.862107 
L 368.267697 246.862541 
L 368.806201 247.023476 
L 369.138806 246.876624 
L 369.883208 247.102506 
L 370.089107 247.060129 
L 370.421712 247.035105 
L 370.580096 246.987272 
L 370.817671 246.874417 
L 371.324499 247.059044 
L 371.657104 246.962644 
L 371.863003 247.089867 
L 372.211446 247.212697 
L 372.480698 247.23029 
L 373.288454 247.167042 
L 373.763605 247.32333 
L 374.302109 247.094544 
L 374.476331 247.177391 
L 374.777259 247.283376 
L 376.044328 247.206202 
L 376.471963 247.188302 
L 376.741215 247.080483 
L 377.279719 247.179404 
L 377.644001 247.058071 
L 378.23002 247.16024 
L 378.610141 247.324362 
L 379.085291 247.324684 
L 379.512927 247.11662 
L 380.035592 247.215077 
L 380.399874 247.196174 
L 380.73248 247.299907 
L 381.065085 247.311671 
L 381.556074 247.367069 
L 382.047063 247.113522 
L 382.997364 247.256414 
L 383.219101 247.192814 
L 383.488353 247.176411 
L 384.121887 247.224506 
L 384.406978 247.091641 
L 385.721561 247.08409 
L 386.133358 247.096587 
L 386.735215 247.214126 
L 386.956952 247.15899 
L 387.55881 247.361958 
L 388.794201 247.135111 
L 389.47525 247.045851 
L 389.681149 247.058677 
L 390.283006 247.26844 
L 390.552258 247.115086 
L 390.884864 247.056492 
L 391.78765 247.268088 
L 392.136093 247.030353 
L 392.611244 247.221378 
L 393.181425 247.163031 
L 393.450677 247.153198 
L 393.719929 247.172856 
L 394.147564 247.348668 
L 394.400978 247.323629 
L 394.812775 247.090354 
L 395.984813 247.27183 
L 396.222388 247.326682 
L 396.776731 247.296809 
L 397.030144 247.265723 
L 397.521133 246.947334 
L 397.74287 246.965518 
L 398.122991 247.178065 
L 398.423919 247.240767 
L 398.487273 247.289617 
L 398.487273 247.289617 
" clip-path="url(#p5e8689860b)" style="fill: none; stroke: #1f77b4; stroke-width: 1.5; stroke-linecap: square"/>
   </g>
   <g id="line2d_12">
    <path d="M 73.832727 249.703324 
L 74.545453 249.671962 
L 74.687998 249.611422 
L 75.020604 249.415122 
L 75.178987 249.56567 
L 75.511593 249.860787 
L 75.82836 249.979718 
L 76.30351 249.890682 
L 76.49357 249.874272 
L 76.731146 249.858557 
L 77.507225 249.726687 
L 77.713124 249.668026 
L 78.235789 249.921281 
L 78.821808 249.792884 
L 79.344474 249.825526 
L 80.215583 249.594151 
L 80.944147 249.814952 
L 81.260915 249.814069 
L 81.672712 250.27693 
L 82.242892 252.113798 
L 82.559659 252.385994 
L 82.923941 252.723803 
L 83.969273 254.164874 
L 85.062119 254.845109 
L 85.315533 254.855735 
L 85.553108 255.074209 
L 86.075774 255.68565 
L 86.281672 255.75588 
L 87.026075 256.261613 
L 87.913022 256.569721 
L 88.673263 257.300902 
L 88.879162 257.32752 
L 89.195929 257.679666 
L 89.417666 257.753474 
L 89.76611 257.741515 
L 90.14623 257.93266 
L 90.43132 257.916055 
L 90.748088 258.045919 
L 91.318268 258.44952 
L 91.619197 258.504949 
L 91.872611 258.561245 
L 92.442791 258.628856 
L 92.712043 258.746463 
L 93.060487 258.66417 
L 93.440607 258.862895 
L 93.757374 259.009275 
L 94.739352 259.216142 
L 94.992766 259.232964 
L 95.262018 259.340424 
L 95.6263 259.140067 
L 96.069774 259.428853 
L 96.465733 259.545315 
L 96.655793 259.628342 
L 97.130944 259.828189 
L 97.606094 259.662794 
L 97.764478 259.624847 
L 98.207951 259.380639 
L 99.601726 259.640479 
L 99.997685 259.504554 
L 100.678734 259.360052 
L 101.787419 259.904017 
L 102.579337 259.741346 
L 103.086164 259.694493 
L 103.371254 259.6191 
L 103.862243 259.935731 
L 104.242364 259.866646 
L 104.527454 259.920218 
L 104.812544 259.919066 
L 105.176826 260.015151 
L 105.398563 260.011708 
L 105.794522 259.849659 
L 105.984582 260.016782 
L 106.269673 260.205891 
L 107.109105 260.247184 
L 107.663448 260.181256 
L 108.011892 260.210703 
L 108.344497 260.066067 
L 108.550396 260.169433 
L 108.898839 260.368203 
L 111.1954 260.019738 
L 111.654713 260.200376 
L 112.129863 260.313351 
L 112.319923 260.279594 
L 112.63669 260.280641 
L 113.111841 260.340163 
L 113.634507 260.1841 
L 114.109657 260.451686 
L 114.299717 260.490247 
L 114.505616 260.477705 
L 114.806545 260.652559 
L 115.550947 260.450092 
L 115.709331 260.421102 
L 116.089451 260.159959 
L 116.39038 260.322166 
L 116.944722 260.568634 
L 118.433527 260.335643 
L 118.686941 260.307723 
L 118.940355 260.607839 
L 119.209607 260.758499 
L 120.492513 260.576417 
L 120.951825 260.63733 
L 121.252754 260.431975 
L 121.426976 260.57388 
L 121.727905 260.744895 
L 122.06051 260.807582 
L 122.313924 260.791717 
L 122.630691 260.779677 
L 123.200871 260.827061 
L 123.359255 260.850506 
L 123.723537 260.59386 
L 123.976951 260.695812 
L 124.388748 260.910461 
L 126.051775 260.819345 
L 126.495249 260.562782 
L 126.748662 260.772291 
L 126.954561 260.865622 
L 127.398035 260.777761 
L 127.619772 260.818545 
L 127.889024 260.874602 
L 128.079084 260.855938 
L 128.316659 260.789091 
L 128.60175 260.858707 
L 129.045223 260.643055 
L 129.868818 260.977496 
L 130.13807 260.920601 
L 130.534029 260.756703 
L 130.787442 260.661531 
L 130.977502 260.742223 
L 131.151724 260.738601 
L 131.611036 260.498808 
L 131.801097 260.638954 
L 132.117864 260.806497 
L 132.656368 260.915393 
L 133.4958 260.663896 
L 133.670022 260.716698 
L 134.145173 260.537481 
L 134.303556 260.636275 
L 134.652 260.862569 
L 135.380564 260.806347 
L 135.982422 260.674597 
L 136.251674 260.662242 
L 136.726824 260.613481 
L 137.265328 260.733049 
L 137.62961 260.626307 
L 137.867186 260.575863 
L 138.152276 260.479187 
L 138.342336 260.459162 
L 138.516558 260.452943 
L 138.801648 260.584109 
L 139.197607 260.401668 
L 139.514374 260.492904 
L 139.831141 260.548123 
L 140.068717 260.504944 
L 140.51219 260.591959 
L 140.749766 260.463981 
L 141.446653 260.623935 
L 141.715905 260.45334 
L 142.032672 260.534346 
L 142.286086 260.735555 
L 142.507823 260.787624 
L 143.759053 260.650396 
L 143.933275 260.601568 
L 144.281718 260.323535 
L 145.70717 260.517935 
L 146.198159 260.453923 
L 146.483249 260.456086 
L 146.800016 260.368951 
L 147.164298 260.612733 
L 147.465227 260.684116 
L 148.225468 260.691629 
L 148.763972 260.533837 
L 148.938194 260.709401 
L 149.096577 260.721412 
L 149.524213 260.483565 
L 149.983525 260.769866 
L 150.822958 260.725969 
L 151.18724 260.536224 
L 151.393138 260.557896 
L 151.694067 260.675443 
L 152.216733 260.606903 
L 153.277902 260.522702 
L 153.531316 260.474016 
L 154.149012 260.536441 
L 154.481617 260.369101 
L 155.194343 260.498187 
L 155.447757 260.551258 
L 155.717009 260.518055 
L 156.081291 260.349989 
L 156.698987 260.429902 
L 156.841532 260.388265 
L 157.14246 260.231731 
L 157.871025 260.434542 
L 158.472882 260.402289 
L 158.694619 260.320056 
L 159.502375 260.251516 
L 159.83498 260.227555 
L 160.880312 260.536381 
L 162.353278 260.364394 
L 163.066004 260.720537 
L 163.382771 260.55015 
L 164.190527 260.363511 
L 164.523133 260.441658 
L 164.903253 260.350699 
L 165.378404 260.725707 
L 165.536787 260.742694 
L 165.996099 260.471225 
L 166.613795 260.396467 
L 167.057269 260.494737 
L 167.389874 260.316434 
L 168.229307 260.63507 
L 169.179608 260.466091 
L 169.401345 260.552328 
L 169.607244 260.533583 
L 170.082394 260.375042 
L 170.351646 260.481342 
L 171.191079 260.5134 
L 171.602876 260.436615 
L 172.173057 260.538753 
L 172.537339 260.321462 
L 173.107519 260.371413 
L 173.48764 260.568006 
L 173.661862 260.425173 
L 173.899437 260.311031 
L 174.723031 260.286373 
L 175.087314 260.058456 
L 176.18016 260.36042 
L 176.481089 260.201049 
L 176.671149 260.173219 
L 177.114623 260.252519 
L 177.320521 260.09118 
L 177.62145 259.970034 
L 177.843187 260.104111 
L 178.207469 260.28775 
L 178.698458 260.389291 
L 179.268639 260.156262 
L 179.807143 260.198341 
L 180.234778 260.08565 
L 181.169241 260.542263 
L 181.501846 260.389807 
L 181.818613 260.225175 
L 182.499662 260.257159 
L 182.863945 260.179722 
L 183.133196 260.311929 
L 183.48164 260.441411 
L 183.766731 260.402401 
L 184.131013 260.354449 
L 184.574487 260.394798 
L 185.065475 260.364177 
L 185.413919 260.215335 
L 185.88907 260.441411 
L 186.221675 260.429925 
L 186.744341 260.196769 
L 187.029431 260.23667 
L 187.726319 260.25867 
L 188.074762 260.161283 
L 188.48656 260.331288 
L 188.914195 260.520816 
L 189.83282 260.233317 
L 190.133748 260.306436 
L 190.513869 260.095176 
L 191.084049 260.369677 
L 191.321625 260.420862 
L 192.113542 260.223948 
L 192.683723 260.300854 
L 193.127197 260.158807 
L 194.25172 260.383319 
L 194.853577 260.263535 
L 195.9781 260.467019 
L 196.469089 260.682611 
L 196.643311 260.589355 
L 196.896725 260.522986 
L 197.498582 260.368517 
L 197.815349 260.461257 
L 198.274661 260.476934 
L 198.543913 260.531173 
L 199.193286 260.376195 
L 199.684275 260.239611 
L 200.032718 260.325675 
L 200.191102 260.388542 
L 200.428677 260.524438 
L 200.967181 260.30131 
L 201.204756 260.384247 
L 201.822452 260.431803 
L 202.091704 260.429131 
L 202.51934 260.386118 
L 202.99449 260.444218 
L 203.374611 260.31478 
L 203.802246 260.381807 
L 204.356589 260.430621 
L 204.610002 260.321754 
L 204.895093 260.318574 
L 205.291051 260.516259 
L 205.512788 260.520427 
L 206.019616 260.291672 
L 207.159977 260.544059 
L 207.571774 260.551355 
L 207.967733 260.600535 
L 208.300338 260.390278 
L 208.823004 260.521153 
L 209.108094 260.737374 
L 209.741628 260.61274 
L 210.88199 260.581805 
L 211.151242 260.473724 
L 211.420494 260.607884 
L 211.800614 260.909017 
L 212.845945 260.610301 
L 213.146874 260.620545 
L 213.57451 260.408298 
L 213.827923 260.411486 
L 214.350589 260.611176 
L 214.968285 260.300337 
L 215.39592 260.318776 
L 215.776041 260.478109 
L 216.219514 260.174499 
L 216.520443 260.258708 
L 217.153977 260.223971 
L 217.581613 260.092198 
L 218.294339 260.339123 
L 218.658621 260.083533 
L 219.260478 260.266109 
L 219.577245 260.28356 
L 219.957366 260.204814 
L 220.606738 260.294171 
L 220.891828 260.338936 
L 221.335302 260.008498 
L 222.190573 260.266146 
L 223.774409 259.862403 
L 223.996145 259.886633 
L 224.772225 260.198827 
L 225.690849 260.028471 
L 226.055131 260.106416 
L 226.340222 259.901929 
L 226.64115 260.001898 
L 226.910402 260.128589 
L 227.258846 260.066575 
L 227.718158 259.893323 
L 228.17747 259.917374 
L 228.636783 260.006335 
L 229.001065 259.782511 
L 229.23864 259.949612 
L 229.587084 260.086458 
L 230.474032 259.652415 
L 230.901667 259.760122 
L 231.376818 259.819494 
L 231.7411 259.738368 
L 232.105382 259.936412 
L 232.501341 259.841315 
L 232.865623 259.798466 
L 233.229905 259.862171 
L 233.800086 259.964474 
L 234.053499 259.852831 
L 234.52865 260.009673 
L 234.797902 259.99202 
L 235.732364 259.906838 
L 236.302545 260.010496 
L 236.698504 259.730203 
L 236.967756 259.873672 
L 237.3162 260.096 
L 237.69632 259.982 
L 238.187309 259.941411 
L 238.805005 260.082006 
L 239.074257 259.846336 
L 239.311832 259.824313 
L 240.072073 260.114498 
L 240.404678 259.966165 
L 241.117404 259.828945 
L 241.465848 259.873979 
L 241.92516 259.831257 
L 242.352796 260.086728 
L 242.685401 260.031359 
L 243.018007 259.802813 
L 243.27142 259.741915 
L 243.714894 259.714212 
L 244.063338 259.799147 
L 244.364266 259.673802 
L 245.187861 259.978857 
L 245.805557 259.558418 
L 246.644989 259.789957 
L 247.104301 259.675336 
L 247.737836 259.776263 
L 248.434723 259.614445 
L 249.258317 259.727599 
L 249.638438 259.624645 
L 250.161103 259.76432 
L 250.683769 259.683441 
L 251.760777 259.736437 
L 251.982514 259.617177 
L 252.330958 259.730997 
L 252.742755 259.906644 
L 253.312936 259.632323 
L 253.629703 259.697786 
L 253.85144 259.739086 
L 254.849256 259.614632 
L 255.229376 259.872505 
L 255.688688 259.710799 
L 256.05297 259.555784 
L 256.448929 259.539081 
L 256.813211 259.56555 
L 257.129978 259.307071 
L 257.351715 259.354821 
L 257.747674 259.576722 
L 258.333693 259.424558 
L 258.65046 259.320294 
L 258.903874 259.38453 
L 259.42654 259.442398 
L 259.743307 259.350384 
L 260.424356 259.618149 
L 260.804476 259.335604 
L 261.406334 259.233982 
L 262.039868 259.411215 
L 262.340796 259.246329 
L 263.006007 259.545502 
L 263.211906 259.347046 
L 263.433643 259.246352 
L 263.987985 259.320526 
L 264.209722 259.374891 
L 264.494812 259.495476 
L 264.985801 259.251904 
L 265.809396 259.527856 
L 266.347899 259.423914 
L 267.076464 259.752047 
L 267.298201 259.495619 
L 267.519938 259.372684 
L 267.725836 259.567495 
L 268.058442 259.87005 
L 268.296017 259.77107 
L 268.691976 259.639514 
L 269.721469 259.803659 
L 270.022397 259.64131 
L 270.212457 259.816298 
L 270.497548 260.011042 
L 270.830153 259.849307 
L 271.115244 259.814906 
L 271.732939 259.930261 
L 272.01803 259.934429 
L 272.20809 259.942578 
L 272.604049 259.796049 
L 272.920816 260.081572 
L 273.190068 260.150942 
L 273.696895 259.941658 
L 274.013662 259.902483 
L 274.932286 260.029384 
L 275.328245 260.028635 
L 275.692527 260.216689 
L 276.563637 259.791559 
L 277.276363 260.001778 
L 277.799028 259.780371 
L 278.020765 259.926893 
L 278.305855 260.039531 
L 279.271995 259.90704 
L 280.079751 260.019895 
L 280.396518 259.885541 
L 280.554901 260.049386 
L 280.85583 260.310043 
L 281.061729 260.220162 
L 281.330981 260.086863 
L 282.312959 260.344675 
L 282.471342 260.249474 
L 282.788109 260.08039 
L 282.994008 260.102705 
L 283.54835 260.408814 
L 284.862933 260.370972 
L 285.068832 260.322016 
L 285.385599 260.209827 
L 285.686528 260.428293 
L 285.939941 260.489544 
L 286.3359 260.259539 
L 286.605152 260.230504 
L 287.729675 260.229403 
L 287.998927 260.109372 
L 288.569108 260.372461 
L 288.917552 260.126629 
L 289.139288 260.008229 
L 289.614439 260.056952 
L 289.852014 260.076857 
L 290.247973 260.106768 
L 290.580579 259.985465 
L 291.150759 260.231282 
L 291.404173 260.048556 
L 291.657586 259.924229 
L 292.97217 259.988054 
L 293.146392 260.036306 
L 293.494835 260.210853 
L 293.985824 260.100228 
L 294.460975 260.021347 
L 295.252892 260.260302 
L 295.775558 259.954229 
L 296.3299 260.199321 
L 296.694182 259.95271 
L 297.406908 259.994736 
L 297.628645 260.059811 
L 297.818706 260.116893 
L 298.278018 259.83993 
L 299.307511 259.812474 
L 299.703469 259.986759 
L 300.004398 259.959984 
L 300.511225 259.744983 
L 301.002214 259.680605 
L 301.841647 259.972451 
L 302.110899 259.95179 
L 302.411828 259.862739 
L 303.583866 259.685319 
L 304.138208 259.810177 
L 304.518329 259.791461 
L 304.771742 259.791746 
L 305.246893 259.585769 
L 305.452791 259.561741 
L 305.991295 259.202156 
L 306.260547 259.382188 
L 306.498123 259.472323 
L 306.846566 259.233129 
L 307.052465 259.187137 
L 307.448424 259.231101 
L 307.654322 259.05743 
L 307.876059 258.9701 
L 308.176988 258.983832 
L 308.588785 258.828502 
L 308.92139 258.850832 
L 309.190642 258.835454 
L 309.665793 258.719658 
L 310.093429 258.805641 
L 310.426034 258.675776 
L 310.695286 258.586928 
L 311.107083 258.435796 
L 312.611727 258.677797 
L 312.928494 258.615057 
L 313.181907 258.545448 
L 313.609543 258.337174 
L 313.989663 258.613052 
L 314.30643 258.710716 
L 314.686551 258.681277 
L 314.987479 258.756573 
L 315.446792 258.68525 
L 316.001134 258.321377 
L 316.365416 258.483786 
L 317.09398 258.670785 
L 317.537454 258.758294 
L 317.775029 258.771001 
L 318.25018 258.687091 
L 318.471917 258.67981 
L 318.804522 258.610732 
L 319.216319 258.635082 
L 319.40638 257.726362 
L 319.7865 256.366094 
L 320.293327 255.450893 
L 321.702941 253.867101 
L 321.877163 253.781313 
L 322.510697 253.127951 
L 322.684919 253.020192 
L 323.065039 252.73276 
L 323.793603 252.21343 
L 324.062855 252.114397 
L 324.617198 252.040822 
L 324.870611 251.909221 
L 325.314085 251.899463 
L 325.678367 251.773468 
L 326.581153 251.242262 
L 327.151334 251.232661 
L 327.721515 251.052225 
L 327.879898 251.010371 
L 329.067775 250.175427 
L 330.825832 250.04602 
L 331.586073 249.627803 
L 332.37799 249.677642 
L 332.599727 249.660954 
L 333.011524 249.690752 
L 333.43916 249.499039 
L 333.740089 249.440011 
L 334.104371 249.092968 
L 334.341946 249.390652 
L 334.579521 249.488862 
L 335.149702 249.300703 
L 336.923597 248.78513 
L 337.509616 248.722151 
L 338.301534 248.467354 
L 338.554948 248.369562 
L 338.998421 248.511662 
L 339.20432 248.523455 
L 339.726986 248.705964 
L 339.948723 248.496815 
L 340.297166 248.244892 
L 340.518903 248.410668 
L 340.819832 248.537928 
L 341.231629 248.379568 
L 341.500881 248.543832 
L 341.849325 248.650124 
L 342.102739 248.662958 
L 342.387829 248.487117 
L 343.2431 248.69905 
L 343.62322 248.731722 
L 343.987502 248.664066 
L 344.256754 248.641878 
L 344.731905 248.795771 
L 344.906127 248.789462 
L 345.254571 248.656732 
L 346.109842 249.05184 
L 346.838406 248.855974 
L 347.139335 248.968582 
L 347.392748 249.065347 
L 347.598647 249.110382 
L 347.978767 248.888675 
L 348.311373 248.973199 
L 348.548948 248.908573 
L 348.976583 248.78483 
L 349.150805 248.842369 
L 349.435896 248.912532 
L 349.720986 249.023112 
L 350.116945 249.185843 
L 350.465389 248.905311 
L 350.607934 249.035018 
L 350.845509 249.206818 
L 351.684942 249.048735 
L 352.049224 249.29967 
L 352.286799 249.368868 
L 352.508536 249.351357 
L 352.730273 249.390637 
L 353.33213 249.265913 
L 353.617221 249.280558 
L 353.854796 249.268832 
L 354.741744 249.309855 
L 355.201056 249.368262 
L 355.391116 249.215155 
L 355.64453 249.076153 
L 356.499801 249.26726 
L 356.864083 249.142343 
L 357.133335 249.246098 
L 357.624324 249.471179 
L 358.083636 249.246247 
L 358.289535 249.249929 
L 358.938907 249.47528 
L 359.414058 249.29774 
L 359.746663 249.296168 
L 360.174299 249.533731 
L 360.617772 249.475377 
L 360.902863 249.386663 
L 361.140438 249.53867 
L 361.346337 249.563717 
L 361.964032 249.319636 
L 362.233284 249.316635 
L 362.407506 249.394446 
L 362.629243 249.445152 
L 363.025202 249.430717 
L 363.310292 249.301945 
L 363.516191 249.295772 
L 363.959665 249.243621 
L 364.466492 249.00287 
L 365.511823 249.276061 
L 366.208711 249.162413 
L 366.652185 249.125917 
L 366.88976 249.101746 
L 367.380749 249.150806 
L 367.713354 249.246554 
L 368.948746 248.791977 
L 369.360543 248.788318 
L 370.073269 248.968926 
L 370.295006 248.986579 
L 370.580096 248.930858 
L 370.817671 248.965506 
L 371.150277 248.853991 
L 371.894679 248.974591 
L 372.211446 248.983705 
L 372.829142 249.097353 
L 373.050879 249.113337 
L 373.304293 249.211645 
L 373.652736 249.101013 
L 373.921988 249.189038 
L 374.159564 249.238285 
L 374.634714 249.129262 
L 375.173218 249.053913 
L 375.759237 249.106311 
L 376.250226 249.091322 
L 376.630347 249.201026 
L 376.915437 249.116922 
L 377.707355 248.975354 
L 378.404242 249.154959 
L 378.752686 249.034906 
L 379.544603 248.978856 
L 379.924724 248.895784 
L 381.01757 248.982336 
L 381.30266 248.945428 
L 381.777811 248.897259 
L 382.094578 248.843087 
L 382.522214 248.895508 
L 383.029041 249.017866 
L 383.567545 248.79747 
L 383.915989 248.64074 
L 384.137726 248.694523 
L 384.391139 248.733046 
L 384.818775 248.652541 
L 385.832429 248.770627 
L 386.576832 248.677079 
L 387.067821 248.660092 
L 387.337073 248.617819 
L 387.606325 248.686194 
L 387.986445 248.555132 
L 388.366566 248.603885 
L 389.205998 248.353279 
L 389.601957 248.412763 
L 389.934562 248.35482 
L 392.278639 248.428695 
L 392.500376 248.427408 
L 392.880496 248.306793 
L 393.32397 248.32934 
L 393.561545 248.284313 
L 393.941666 248.329512 
L 394.226756 248.260943 
L 394.432655 248.310003 
L 394.638553 248.262769 
L 395.272087 247.957355 
L 395.82643 248.126761 
L 396.064005 248.22227 
L 396.887599 248.043697 
L 397.315235 248.064201 
L 398.281374 248.036902 
L 398.487273 248.013255 
L 398.487273 248.013255 
" clip-path="url(#p5e8689860b)" style="fill: none; stroke: #ff7f0e; stroke-width: 1.5; stroke-linecap: square"/>
   </g>
   <g id="line2d_13">
    <path d="M 73.832727 249.566059 
L 74.117818 249.755797 
L 74.38707 249.77803 
L 75.242341 249.823348 
L 75.812521 249.971516 
L 76.366864 249.596927 
L 76.842014 249.820594 
L 77.063751 249.793894 
L 77.26965 249.808359 
L 77.728962 249.925517 
L 78.362496 250.095544 
L 78.536718 249.857509 
L 78.774293 249.624698 
L 79.96217 249.994797 
L 80.263098 250.06612 
L 80.516512 250.127497 
L 80.864956 250.185986 
L 81.561843 249.825503 
L 82.65469 250.140623 
L 83.494122 250.292271 
L 84.064303 249.745709 
L 84.76119 250.118413 
L 85.172988 250.111408 
L 85.711491 250.221015 
L 86.075774 250.221614 
L 86.408379 249.938598 
L 86.614278 249.99663 
L 87.279488 250.281443 
L 87.564579 250.190514 
L 87.944699 250.15407 
L 88.198113 250.199284 
L 88.41985 250.22329 
L 88.657425 250.312281 
L 89.180091 249.915212 
L 89.845301 250.125185 
L 90.748088 250.145375 
L 91.11237 250.338106 
L 91.286592 250.122364 
L 91.619197 249.725901 
L 91.872611 249.73747 
L 92.236893 249.773719 
L 92.537821 249.860308 
L 93.931596 249.926318 
L 94.216687 249.556967 
L 94.248363 249.580419 
L 94.755191 249.912055 
L 94.992766 249.915527 
L 95.388725 250.05384 
L 95.705492 249.97903 
L 96.291511 250.182806 
L 96.434056 250.068769 
L 96.814176 249.693312 
L 97.004237 249.725617 
L 97.463549 249.993427 
L 98.12876 249.998636 
L 98.857324 250.058756 
L 99.205768 249.765353 
L 99.443343 249.714167 
L 99.997685 250.036321 
L 100.298614 250.111289 
L 100.520351 250.111483 
L 101.027178 250.099487 
L 101.534005 250.102002 
L 101.834934 249.784405 
L 102.16754 249.941733 
L 102.769397 250.063807 
L 103.006972 250.068896 
L 103.212871 250.01917 
L 103.450446 249.981843 
L 103.98895 250.16528 
L 104.242364 249.900972 
L 104.511616 249.770202 
L 104.733353 249.841428 
L 105.129311 250.074426 
L 105.477755 250.146101 
L 106.58644 250.489552 
L 107.219974 250.117911 
L 107.457549 250.190566 
L 107.980215 250.400838 
L 108.487042 250.498569 
L 108.740456 250.623928 
L 109.136415 250.649873 
L 109.785787 250.154804 
L 110.245099 250.483109 
L 110.736088 250.58616 
L 111.052855 250.6748 
L 111.623036 250.639 
L 111.781419 250.384794 
L 112.06651 250.010122 
L 112.383277 249.994101 
L 112.620852 250.154235 
L 112.890104 250.239866 
L 114.299717 250.428788 
L 114.917413 250.047434 
L 115.598462 250.316734 
L 115.994421 250.265698 
L 116.453733 250.300772 
L 116.849692 250.26914 
L 117.467388 249.968785 
L 118.100922 250.240666 
L 118.797809 250.14524 
L 119.304637 250.299155 
L 119.447182 250.195946 
L 119.748111 249.94439 
L 119.969848 250.116355 
L 120.191584 250.167226 
L 121.727905 250.276017 
L 122.012995 250.30042 
L 122.519822 249.884905 
L 123.12168 250.100221 
L 123.390932 250.100595 
L 123.644345 250.102376 
L 123.850244 250.1654 
L 124.293718 250.379862 
L 124.673838 250.182364 
L 125.101474 249.872101 
L 125.655816 250.136694 
L 125.940906 250.221831 
L 126.368542 250.231881 
L 126.653632 250.300989 
L 126.970399 250.380775 
L 127.128783 250.220432 
L 127.461388 249.853274 
L 128.744295 250.404347 
L 129.029385 250.395383 
L 129.346152 250.535185 
L 130.312292 249.996675 
L 130.787442 250.19983 
L 132.102025 250.225109 
L 132.371277 250.078684 
L 132.735559 249.888467 
L 132.973135 250.104606 
L 133.274063 250.303309 
L 134.17685 250.222153 
L 134.430263 250.300899 
L 134.699515 250.336691 
L 134.921252 250.21434 
L 135.459756 249.951416 
L 136.029937 250.173392 
L 136.267512 250.209791 
L 136.520926 250.208144 
L 136.758501 250.218621 
L 137.15446 250.426326 
L 137.376197 250.270061 
L 137.661287 250.070093 
L 138.136438 250.202704 
L 138.389851 250.334925 
L 138.706618 250.265526 
L 139.910333 250.485286 
L 140.401322 250.097676 
L 140.718089 250.225805 
L 141.161563 250.373464 
L 141.510007 250.50478 
L 142.396954 250.655111 
L 142.618691 250.273525 
L 142.840428 250.157348 
L 143.173034 250.199568 
L 143.790729 250.516851 
L 144.028305 250.512825 
L 144.820222 250.609329 
L 145.311211 250.334776 
L 145.532948 250.227256 
L 146.879208 250.586632 
L 147.069268 250.595709 
L 147.306844 250.624654 
L 147.528581 250.634121 
L 147.671126 250.558959 
L 148.051246 250.169441 
L 148.859002 250.52961 
L 149.144092 250.46461 
L 149.413344 250.489686 
L 149.65092 250.484269 
L 150.300292 250.419179 
L 150.648736 250.140413 
L 151.361462 250.40639 
L 151.789097 250.246129 
L 152.185056 250.444989 
L 152.406793 250.448005 
L 152.644368 250.40529 
L 152.866105 250.366392 
L 153.230387 250.18208 
L 153.895598 250.449367 
L 154.481617 250.464595 
L 154.719192 250.508484 
L 154.988444 250.534953 
L 155.495272 250.229419 
L 155.748685 250.096487 
L 156.556441 250.258028 
L 156.746502 250.318163 
L 156.9524 250.350603 
L 157.23749 250.296259 
L 157.554258 250.417136 
L 157.807671 250.376592 
L 157.966055 250.314197 
L 158.536235 249.727952 
L 159.169769 249.710306 
L 159.502375 249.718201 
L 160.151747 249.689039 
L 160.405161 249.655536 
L 160.61106 249.531404 
L 161.007018 249.273576 
L 161.323785 249.53983 
L 161.593037 249.668819 
L 161.941481 249.711945 
L 162.891782 249.770224 
L 163.161034 249.554699 
L 163.414448 249.457732 
L 164.079659 249.764642 
L 164.713193 249.688799 
L 164.966606 249.816261 
L 165.267535 249.928031 
L 165.663494 249.789816 
L 166.059453 249.632593 
L 166.344543 249.761978 
L 166.898885 250.02705 
L 167.294844 250.013325 
L 167.785833 250.014148 
L 168.213469 249.948887 
L 168.577751 249.773697 
L 169.417183 249.953534 
L 169.63892 249.852899 
L 170.304131 250.108146 
L 171.064372 249.802492 
L 171.301947 249.773637 
L 172.109703 250.064256 
L 172.442309 250.048122 
L 172.632369 250.09963 
L 172.917459 250.21119 
L 173.234226 250.140121 
L 173.39261 250.092221 
L 173.804407 249.820602 
L 174.279558 250.149214 
L 174.517133 250.270592 
L 174.944768 250.215568 
L 175.388242 250.290901 
L 175.689171 250.231941 
L 175.895069 250.161988 
L 176.322705 249.892621 
L 176.512765 249.985218 
L 176.956239 250.264852 
L 178.619266 250.053106 
L 178.888518 249.908507 
L 179.632921 250.270158 
L 180.108071 250.231282 
L 180.915827 250.236775 
L 181.422654 249.900463 
L 181.976997 250.217423 
L 182.341279 250.14411 
L 182.626369 250.075526 
L 183.228227 250.300884 
L 183.782569 250.115367 
L 184.004306 250.137989 
L 184.35275 250.16986 
L 184.653678 250.248501 
L 184.954607 250.21886 
L 185.350566 250.21134 
L 185.88907 250.278764 
L 186.205837 250.155253 
L 186.522604 250.042944 
L 186.712664 250.072465 
L 187.108623 250.298841 
L 188.692458 250.158979 
L 189.05674 249.921693 
L 189.325992 249.947031 
L 189.753628 250.1362 
L 190.197102 250.164457 
L 190.893989 250.128201 
L 191.115726 250.100775 
L 191.27411 250.02259 
L 191.622553 249.783754 
L 191.955159 249.878732 
L 192.557016 250.027416 
L 192.90546 249.976418 
L 193.127197 249.890211 
L 193.491479 249.844129 
L 193.919114 249.800487 
L 194.15669 249.654721 
L 194.837739 249.993225 
L 196.120645 249.903823 
L 196.453251 249.888595 
L 196.801695 249.860487 
L 197.181815 249.993135 
L 197.593612 250.015398 
L 197.862864 249.913469 
L 198.57559 249.874489 
L 198.908195 249.788835 
L 199.193286 249.740419 
L 199.557568 249.738742 
L 199.858497 249.881725 
L 201.030535 250.047067 
L 201.315625 250.029534 
L 201.537362 250.032729 
L 202.091704 249.799791 
L 203.564671 250.061368 
L 203.849761 249.960127 
L 204.071498 249.976298 
L 204.594164 249.569052 
L 205.164345 249.869101 
L 206.162161 249.823939 
L 206.510604 249.660745 
L 206.668988 249.593261 
L 207.017432 249.346493 
L 207.31836 249.481902 
L 207.793511 249.627631 
L 208.141955 249.708114 
L 208.553752 249.722661 
L 208.727974 249.658754 
L 209.028903 249.497954 
L 209.789143 249.400051 
L 210.264294 249.514731 
L 210.581061 249.495342 
L 211.008697 249.517672 
L 211.246272 249.53778 
L 211.499685 249.550471 
L 211.927321 249.39607 
L 212.196573 249.337932 
L 212.529178 249.587012 
L 212.735077 249.66632 
L 213.336934 249.551227 
L 213.701216 249.55996 
L 213.986307 249.502773 
L 214.398104 249.503514 
L 214.714871 249.298877 
L 215.570142 249.461226 
L 215.902747 249.599524 
L 216.377898 249.578549 
L 216.805533 249.62053 
L 217.011432 249.542307 
L 217.470744 249.289912 
L 218.104278 249.589152 
L 218.37353 249.579978 
L 218.927873 249.808868 
L 219.292155 249.851118 
L 219.466377 249.748343 
L 219.783144 249.480294 
L 220.464193 249.772282 
L 220.828475 249.797935 
L 221.25611 249.901234 
L 222.048028 249.636895 
L 222.348957 249.427035 
L 222.554855 249.548548 
L 222.919137 249.777408 
L 223.410126 249.702127 
L 223.647702 249.747977 
L 224.027822 249.737089 
L 224.407943 249.60697 
L 224.62968 249.686696 
L 224.978123 249.473177 
L 225.19986 249.620589 
L 225.548304 249.840709 
L 225.849233 249.801198 
L 226.118485 249.804603 
L 226.45109 249.840679 
L 226.752019 249.765824 
L 227.290523 249.664351 
L 227.844865 249.604313 
L 228.193309 249.737665 
L 230.410678 249.679542 
L 230.711607 249.861183 
L 231.250111 249.804206 
L 231.614393 249.907093 
L 232.437987 249.814316 
L 232.691401 249.700817 
L 232.928976 249.809916 
L 233.324935 249.988361 
L 233.75257 250.070782 
L 234.005984 250.218351 
L 234.671195 250.088173 
L 234.877093 250.145899 
L 235.352244 249.863047 
L 235.890748 250.120837 
L 236.666827 250.079417 
L 237.141978 249.929258 
L 237.474583 249.874556 
L 237.854704 249.642628 
L 238.314016 249.989843 
L 238.900035 250.05375 
L 239.121772 250.136268 
L 239.786983 249.939855 
L 240.00872 249.928061 
L 240.38884 249.698715 
L 241.196596 249.852623 
L 242.210251 249.781816 
L 242.463664 249.766363 
L 242.938815 249.62389 
L 243.36645 249.781996 
L 244.174206 249.803615 
L 244.411782 249.794897 
L 244.918609 249.75011 
L 245.124507 249.695414 
L 245.520466 249.492409 
L 246.011455 249.681802 
L 246.264869 249.694038 
L 247.21517 249.835733 
L 247.611129 249.726799 
L 247.943734 249.493868 
L 248.165471 249.643286 
L 248.482238 249.780798 
L 249.115772 249.803817 
L 249.369186 249.883034 
L 250.367002 249.600579 
L 250.667931 249.505946 
L 251.25395 249.851283 
L 252.156736 249.919695 
L 252.916977 249.817332 
L 253.217905 249.721718 
L 254.057338 250.06615 
L 254.405782 249.87279 
L 255.134346 250.022732 
L 255.340245 249.966705 
L 255.752042 249.791522 
L 256.116324 250.112433 
L 256.353899 249.998172 
L 256.844888 249.83934 
L 257.715997 249.846741 
L 257.969411 249.901368 
L 258.317855 249.743524 
L 258.492077 249.846 
L 258.856359 250.128328 
L 259.90169 249.839153 
L 260.281811 250.069629 
L 260.471871 250.055658 
L 261.05789 249.724659 
L 261.422172 249.948692 
L 261.770616 249.731357 
L 262.039868 249.635938 
L 262.530857 249.730608 
L 263.085199 249.836578 
L 263.512834 249.569688 
L 263.718733 249.605578 
L 264.019662 249.751741 
L 264.748226 249.672231 
L 265.318407 249.752384 
L 265.682689 249.749907 
L 265.983617 249.571821 
L 266.284546 249.694127 
L 266.664667 249.751322 
L 267.678321 249.559683 
L 268.058442 249.638063 
L 268.216825 249.535714 
L 268.565269 249.268428 
L 268.771167 249.324088 
L 269.32551 249.618352 
L 269.689792 249.400051 
L 270.038236 249.430478 
L 270.972698 249.416806 
L 271.14692 249.422508 
L 271.717101 249.722272 
L 272.049706 249.559781 
L 272.366473 249.464264 
L 273.36429 249.492222 
L 273.601865 249.291955 
L 274.362106 249.525418 
L 275.217377 249.216921 
L 275.629174 249.350549 
L 275.850911 249.416821 
L 276.3419 249.151824 
L 276.516122 249.241675 
L 276.753697 249.362642 
L 277.276363 249.214002 
L 277.814867 249.262269 
L 278.321694 249.492117 
L 278.464239 249.486467 
L 278.955228 249.155528 
L 279.12945 249.354575 
L 279.382863 249.556256 
L 279.69963 249.372123 
L 280.000559 249.294859 
L 280.317326 249.317383 
L 280.618255 249.293167 
L 280.871669 249.321641 
L 281.140921 249.389192 
L 281.663586 249.266078 
L 282.01203 249.337887 
L 282.978169 249.287143 
L 283.184068 249.279069 
L 283.389967 249.323954 
L 283.54835 249.301474 
L 283.912632 248.987297 
L 284.166046 249.234731 
L 284.435298 249.414067 
L 285.227215 249.182977 
L 286.367577 249.191388 
L 286.557637 249.194082 
L 287.096141 249.46835 
L 288.204826 249.264275 
L 288.790845 249.356812 
L 289.060097 249.228811 
L 289.265995 249.416125 
L 289.598601 249.604785 
L 289.883691 249.521152 
L 290.27965 249.227562 
L 291.071567 249.625603 
L 291.245789 249.669141 
L 291.578395 249.508767 
L 291.974354 249.771257 
L 292.908816 249.512247 
L 293.288937 249.673765 
L 293.922471 249.723701 
L 294.635197 249.835082 
L 295.284569 249.65038 
L 295.474629 249.61345 
L 295.75972 249.490179 
L 296.092325 249.686711 
L 296.361577 249.784862 
L 296.836728 249.707081 
L 297.074303 249.858542 
L 297.375232 249.903142 
L 297.77119 249.761641 
L 298.056281 249.558576 
L 298.879875 249.910461 
L 299.323349 249.81918 
L 299.545086 250.004749 
L 299.750984 250.094032 
L 300.289488 249.866699 
L 300.55874 249.753492 
L 300.812154 249.883117 
L 301.144759 250.035693 
L 301.540718 250.068148 
L 301.905 250.014829 
L 302.316798 250.183786 
L 302.570211 250.131598 
L 302.823625 250.085314 
L 303.219584 249.821597 
L 303.710573 250.057634 
L 303.979825 250.130954 
L 305.278569 250.0883 
L 305.706205 249.728431 
L 305.991295 249.920907 
L 306.260547 250.03475 
L 307.701837 249.992791 
L 307.939413 249.631822 
L 308.240341 249.340536 
L 308.398725 249.427821 
L 308.747169 249.700279 
L 309.285673 249.665579 
L 309.50741 249.593635 
L 310.315165 249.747281 
L 310.489387 249.483856 
L 310.695286 249.313507 
L 310.980376 249.554333 
L 311.360497 249.796401 
L 311.851486 249.841323 
L 312.184091 249.803966 
L 312.738433 249.968995 
L 312.896817 249.874257 
L 313.197746 249.709805 
L 314.338107 249.862979 
L 314.544006 249.860854 
L 315.415115 249.948565 
L 315.937781 249.676175 
L 316.476285 249.777034 
L 316.698021 249.574732 
L 317.173172 248.98286 
L 318.044281 248.483951 
L 318.519432 248.038421 
L 318.978744 248.230643 
L 319.343026 248.422289 
L 319.564763 248.333329 
L 320.087429 248.566117 
L 320.75264 248.248274 
L 320.958538 248.169842 
L 321.702941 248.744294 
L 321.893001 248.764274 
L 322.304798 248.724687 
L 322.716595 248.971463 
L 323.746088 248.621479 
L 324.062855 248.841396 
L 324.316269 248.99829 
L 324.680551 249.027916 
L 324.918126 249.046879 
L 325.26657 249.272633 
L 325.504145 249.294282 
L 325.662529 249.192914 
L 326.042649 248.845692 
L 326.882082 249.191253 
L 327.816545 249.201587 
L 327.974928 249.152714 
L 328.766846 248.777579 
L 329.701309 249.078937 
L 329.907207 249.123163 
L 330.319004 249.210829 
L 330.699125 249.184361 
L 330.873347 249.121143 
L 331.205952 248.931412 
L 331.586073 249.33449 
L 331.823648 249.520037 
L 332.298798 249.429669 
L 333.169908 249.736834 
L 333.454998 249.531449 
L 333.72425 249.342714 
L 335.513984 249.87517 
L 336.5118 249.596172 
L 337.161173 249.969758 
L 337.398748 249.938366 
L 338.269857 250.153172 
L 338.618301 250.002684 
L 338.887553 249.793842 
L 339.251835 250.000551 
L 339.600279 250.213824 
L 339.790339 250.129989 
L 340.059591 250.035087 
L 340.408035 250.010108 
L 340.9307 249.818469 
L 341.152437 249.7777 
L 341.453366 249.587461 
L 341.643426 249.78097 
L 341.89684 249.925726 
L 343.749927 249.855683 
L 344.066694 249.746233 
L 344.256754 249.913334 
L 344.58936 250.147964 
L 345.397116 250.097796 
L 345.618853 250.110525 
L 346.347417 249.922531 
L 346.854244 249.908837 
L 347.535293 249.972908 
L 348.026282 249.988818 
L 348.564786 250.074134 
L 348.770685 249.983744 
L 349.214159 249.809916 
L 349.958561 250.1307 
L 350.402035 250.089437 
L 351.352336 250.119789 
L 351.669103 249.883401 
L 352.144254 250.080847 
L 352.461021 250.279317 
L 353.14207 250.285521 
L 353.585544 250.283927 
L 353.870634 250.271018 
L 354.044856 250.148338 
L 354.377462 249.959573 
L 354.567522 250.037242 
L 355.169379 250.381546 
L 355.866267 250.324367 
L 356.151357 250.274663 
L 356.357256 250.238571 
L 356.563154 250.231043 
L 356.911598 250.066382 
L 357.18085 250.204133 
L 357.703516 250.463592 
L 357.988606 250.359762 
L 358.495433 250.479883 
L 358.685493 250.407565 
L 358.938907 250.339475 
L 359.128967 250.279968 
L 359.445734 250.160917 
L 359.920885 250.281405 
L 360.205975 250.340822 
L 361.31466 250.144821 
L 361.726457 250.131201 
L 362.154093 249.912556 
L 362.66092 250.159009 
L 363.009364 250.14967 
L 364.308108 250.185178 
L 364.561522 250.026443 
L 364.814936 250.17854 
L 365.147541 250.382152 
L 365.844429 250.476456 
L 366.319579 250.56306 
L 366.636346 250.46812 
L 366.842245 250.426505 
L 367.349072 250.231088 
L 367.824223 250.566846 
L 368.996261 250.45902 
L 369.835693 250.264089 
L 370.485066 250.649319 
L 370.722641 250.579972 
L 371.007731 250.667698 
L 371.292822 250.593412 
L 372.401506 250.342289 
L 372.781627 250.60424 
L 373.652736 250.684041 
L 374.539684 250.400269 
L 374.808936 250.287347 
L 375.648369 250.633223 
L 376.709538 250.527185 
L 376.994629 250.591915 
L 377.485618 250.359171 
L 377.929091 250.589588 
L 378.198343 250.617852 
L 378.578464 250.595036 
L 378.847716 250.532633 
L 379.718825 250.404288 
L 379.988077 250.327644 
L 380.764157 250.446134 
L 381.270984 250.458781 
L 381.571912 250.367732 
L 381.904518 250.241968 
L 382.110416 250.206176 
L 382.585567 249.828444 
L 382.743951 249.978655 
L 382.997364 250.15853 
L 384.628714 250.121511 
L 384.850451 249.932716 
L 385.088027 249.843538 
L 385.357279 249.944681 
L 385.784914 250.219032 
L 386.165035 250.247267 
L 386.481802 250.274738 
L 387.083659 250.063508 
L 387.257881 249.961354 
L 387.527133 249.832335 
L 387.796385 250.019215 
L 388.303212 250.381202 
L 389.712826 250.228544 
L 389.934562 250.263857 
L 390.330521 250.139149 
L 390.72648 250.386193 
L 391.866841 250.312805 
L 392.215285 250.289135 
L 392.468699 250.352653 
L 392.975526 250.130737 
L 393.450677 250.386822 
L 393.957504 250.360473 
L 394.147564 250.286299 
L 394.305948 250.33271 
L 394.511846 250.357667 
L 395.430471 250.055486 
L 396.11152 250.271669 
L 396.380772 250.277701 
L 396.697539 250.404205 
L 397.679517 250.071455 
L 397.901254 249.970708 
L 398.202182 250.154265 
L 398.487273 250.442737 
L 398.487273 250.442737 
" clip-path="url(#p5e8689860b)" style="fill: none; stroke: #2ca02c; stroke-width: 1.5; stroke-linecap: square"/>
   </g>
   <g id="line2d_14">
    <path d="M 73.832727 251.708663 
L 74.339555 251.867293 
L 74.57713 251.790919 
L 74.798867 251.819669 
L 75.068119 252.077699 
L 75.305694 252.204293 
L 75.543269 251.943839 
L 75.812521 251.830647 
L 76.129288 251.866088 
L 76.588601 251.904829 
L 76.857853 251.906108 
L 77.64977 252.107759 
L 77.792315 252.147046 
L 77.808154 252.132469 
L 78.330819 251.742809 
L 78.600071 251.735789 
L 79.122737 251.92662 
L 79.471181 251.886315 
L 79.898816 251.935061 
L 80.120553 251.964515 
L 80.453159 252.065374 
L 80.944147 251.594408 
L 81.435136 251.793306 
L 81.530166 251.719468 
L 81.625197 251.199764 
L 81.78358 248.490739 
L 82.084509 244.40603 
L 82.575498 241.297676 
L 83.747536 235.960009 
L 84.66616 232.470945 
L 85.521431 229.429319 
L 85.869875 227.965057 
L 86.297511 226.627493 
L 88.277305 220.381555 
L 88.720778 218.791679 
L 90.969824 212.715372 
L 91.619197 209.792486 
L 92.221054 206.710102 
L 92.537821 203.856178 
L 92.632851 199.596493 
L 92.727882 183.307955 
L 92.917942 91.351227 
L 93.060487 54.661101 
L 93.092164 55.914253 
L 93.203032 75.945943 
L 93.773213 193.976861 
L 94.042465 207.22501 
L 94.343394 212.145189 
L 94.644322 213.967992 
L 94.945251 214.500119 
L 95.198665 214.721301 
L 95.753007 214.695959 
L 96.196481 213.770356 
L 96.481571 213.451918 
L 98.683102 212.435326 
L 98.968192 212.365369 
L 99.459181 212.656871 
L 100.995501 213.085534 
L 101.233077 212.792228 
L 101.454814 212.665956 
L 101.613197 212.887071 
L 101.945803 213.374197 
L 102.468468 213.675809 
L 102.658528 213.68507 
L 102.896104 213.631231 
L 103.149517 213.62349 
L 103.371254 213.735106 
L 103.513799 213.689107 
L 103.814728 213.38822 
L 103.846405 213.415976 
L 104.242364 213.715268 
L 104.638322 213.582964 
L 104.828383 213.515716 
L 105.14515 213.348166 
L 105.683654 213.230066 
L 105.921229 213.334689 
L 106.792338 213.156011 
L 107.109105 213.344275 
L 107.330842 213.401402 
L 107.679286 213.37713 
L 108.487042 213.497124 
L 108.740456 213.213715 
L 109.104738 212.907848 
L 109.294798 212.995503 
L 109.500697 213.134295 
L 109.516535 213.11934 
L 109.833302 212.928476 
L 110.514351 212.637086 
L 110.862795 212.858829 
L 111.068694 212.747501 
L 111.828934 212.273946 
L 112.050671 212.361893 
L 112.383277 212.440935 
L 112.953457 211.960843 
L 113.396931 212.117172 
L 113.634507 211.777567 
L 113.903759 211.603926 
L 114.473939 211.604319 
L 114.679838 211.555928 
L 115.202503 211.27427 
L 115.535109 210.964093 
L 115.946906 210.976433 
L 116.406218 210.592692 
L 116.722985 210.527988 
L 117.055591 210.449653 
L 117.245651 210.530791 
L 117.419873 210.537986 
L 118.037569 210.011588 
L 118.449366 210.119365 
L 119.700596 208.975667 
L 119.954009 208.876693 
L 120.793442 208.473945 
L 121.062694 208.555572 
L 121.300269 208.327719 
L 121.585359 208.123549 
L 121.87045 208.137869 
L 122.139702 208.241684 
L 123.090003 207.435401 
L 123.739375 207.226439 
L 123.976951 207.156792 
L 124.895575 206.650203 
L 125.117312 206.479801 
L 125.608301 205.722542 
L 125.798361 205.686472 
L 126.210158 205.399437 
L 126.400219 205.358912 
L 126.938723 205.059275 
L 127.176298 205.149186 
L 127.477227 205.006881 
L 127.493065 205.030768 
L 127.82567 205.384138 
L 128.047407 205.472328 
L 128.284982 205.562625 
L 128.554234 205.513512 
L 128.823486 205.525695 
L 129.36199 205.302496 
L 129.789626 205.417364 
L 130.011363 205.41302 
L 130.312292 205.558977 
L 130.724089 205.474812 
L 131.215078 205.901694 
L 131.595198 205.815671 
L 131.86445 205.629072 
L 132.086187 205.544317 
L 132.608853 205.605556 
L 133.432447 205.28546 
L 133.606669 205.531236 
L 133.812567 205.669785 
L 134.034304 205.526645 
L 134.303556 204.995525 
L 134.525293 204.828787 
L 135.206342 204.25147 
L 135.61814 204.006449 
L 137.233652 202.96535 
L 137.597934 203.165894 
L 137.819671 203.179898 
L 138.025569 202.927178 
L 138.310659 202.649347 
L 139.039224 202.650713 
L 139.451021 202.334093 
L 139.799465 202.467385 
L 140.242938 202.198785 
L 140.41716 202.122991 
L 140.432999 202.136771 
L 140.670574 202.353033 
L 140.718089 202.285231 
L 140.955664 201.989639 
L 140.971503 201.997882 
L 141.367461 202.403152 
L 141.684229 202.754427 
L 141.700067 202.743726 
L 141.890127 202.437456 
L 142.428631 201.627906 
L 142.713721 201.58462 
L 142.887943 201.671695 
L 143.078004 201.735991 
L 144.26588 200.387169 
L 144.55097 200.095128 
L 144.756869 199.842965 
L 144.899414 199.772611 
L 144.915252 199.78488 
L 145.089474 200.114487 
L 145.342888 200.396632 
L 145.548786 200.364409 
L 145.881392 200.128155 
L 146.134806 199.903774 
L 146.277351 200.118734 
L 146.625794 200.914214 
L 146.67331 200.880891 
L 147.43355 200.265196 
L 147.607772 200.35645 
L 147.781994 200.370062 
L 147.972054 200.354078 
L 148.20963 200.462233 
L 148.763972 200.089257 
L 148.954032 200.379038 
L 149.128254 200.615909 
L 149.159931 200.594346 
L 149.365829 200.183872 
L 149.682596 199.805376 
L 150.078555 200.011843 
L 150.094394 199.990052 
L 150.569544 199.448657 
L 150.870473 199.400772 
L 151.599037 199.319699 
L 151.820774 199.343061 
L 152.34344 199.032495 
L 152.612692 199.136961 
L 153.056165 199.105438 
L 153.246226 199.14831 
L 153.372933 198.878254 
L 153.673861 198.205151 
L 153.911437 198.204219 
L 154.244042 198.499658 
L 154.560809 198.727007 
L 154.592486 198.687589 
L 154.956768 198.32724 
L 155.13099 198.409489 
L 155.463595 198.720586 
L 155.685332 198.456061 
L 155.907069 198.001446 
L 156.318866 196.805155 
L 156.698987 196.439628 
L 157.158299 195.974013 
L 157.633449 194.939263 
L 157.760156 194.967423 
L 158.045246 195.255191 
L 158.092762 195.197132 
L 159.090578 193.305996 
L 159.819142 190.951556 
L 160.009202 188.93955 
L 160.120071 185.377576 
L 160.230939 171.584496 
L 160.405161 104.942138 
L 160.595221 56.009043 
L 160.61106 56.148224 
L 160.690251 63.593547 
L 161.054533 137.709636 
L 161.402977 182.228513 
L 161.672229 193.26776 
L 161.941481 196.627282 
L 162.369117 199.014266 
L 162.638369 200.508409 
L 163.271903 204.043783 
L 163.715377 205.747162 
L 165.093313 208.226878 
L 165.473434 208.88671 
L 165.901069 209.703016 
L 167.421551 211.849964 
L 167.611611 212.009267 
L 168.308499 213.107449 
L 168.561912 213.32954 
L 168.831164 213.544134 
L 169.100416 213.523095 
L 169.480537 214.106077 
L 169.765627 214.593405 
L 170.019041 214.645631 
L 170.430838 214.563075 
L 170.779282 214.772793 
L 171.048534 214.705238 
L 171.381139 214.986945 
L 171.396977 214.972967 
L 171.713744 214.815998 
L 171.919643 215.061149 
L 172.299764 215.561662 
L 172.632369 215.65991 
L 172.980813 215.648419 
L 174.152851 215.80009 
L 174.311234 215.749335 
L 174.327073 215.763695 
L 174.802223 216.126378 
L 175.02396 216.006164 
L 175.499111 215.551519 
L 175.673333 215.739835 
L 175.910908 215.87154 
L 176.18016 215.983931 
L 176.481089 216.147021 
L 177.114623 216.203186 
L 177.399713 216.408411 
L 177.589773 216.242934 
L 177.81151 216.129918 
L 178.049085 216.150182 
L 178.429206 216.097998 
L 178.698458 216.241661 
L 178.936033 216.310032 
L 179.236962 216.202266 
L 179.553729 215.920338 
L 179.870496 216.2034 
L 180.044718 216.262094 
L 180.393162 216.100744 
L 181.422654 216.08558 
L 181.628553 215.781528 
L 181.94532 215.477382 
L 182.198734 215.464586 
L 182.547177 215.662761 
L 182.848106 215.45124 
L 183.085681 215.3812 
L 183.449964 215.569501 
L 184.035983 215.783724 
L 184.178528 215.666596 
L 184.511133 215.363079 
L 184.748708 215.461537 
L 185.002122 215.624742 
L 186.36422 215.365493 
L 186.633472 215.458596 
L 187.23533 214.95204 
L 187.504582 214.968323 
L 189.278477 213.926034 
L 189.721951 213.367537 
L 189.896173 213.54654 
L 190.149587 213.674597 
L 190.355485 213.579294 
L 191.163241 212.818352 
L 191.527523 212.736912 
L 191.923482 212.829805 
L 192.113542 212.721762 
L 192.287764 212.683403 
L 192.62037 212.8867 
L 193.158874 212.821031 
L 193.523156 212.885297 
L 194.06166 212.559301 
L 194.600164 212.370768 
L 194.8219 212.314311 
L 195.281213 212.43414 
L 195.835555 212.085076 
L 196.025615 212.054717 
L 196.294867 212.02942 
L 197.577774 211.661749 
L 197.783672 211.738834 
L 198.242985 211.589872 
L 198.559752 211.688112 
L 198.829004 211.612793 
L 199.145771 211.648541 
L 199.620921 211.861847 
L 200.080233 211.401564 
L 200.713768 211.601284 
L 200.935504 211.491946 
L 201.36314 211.653016 
L 201.838291 211.45572 
L 202.155058 211.491834 
L 202.582693 211.137854 
L 202.836107 211.174627 
L 203.073682 211.105152 
L 204.134852 210.604134 
L 204.324912 210.587083 
L 205.053476 210.053569 
L 205.275213 210.181031 
L 205.481112 210.28387 
L 205.718687 209.94624 
L 205.924585 209.823594 
L 206.114646 209.745547 
L 206.510604 209.426312 
L 206.969917 209.538362 
L 207.239169 209.708658 
L 207.445067 209.571651 
L 207.682643 209.402287 
L 208.2845 209.669607 
L 208.838842 209.659583 
L 209.028903 209.682591 
L 210.200941 208.894466 
L 210.375162 208.986731 
L 210.834475 209.391511 
L 211.214595 209.334878 
L 211.45217 209.446243 
L 212.054028 209.276026 
L 212.244088 209.190215 
L 212.89346 208.621466 
L 213.463641 208.621313 
L 213.812085 208.325279 
L 214.477296 208.293423 
L 214.683194 208.663342 
L 214.857416 208.902922 
L 214.889093 208.872447 
L 215.094991 208.340055 
L 215.348405 208.050984 
L 215.522627 208.078208 
L 215.902747 208.252613 
L 216.108646 208.203542 
L 216.45709 207.687497 
L 216.805533 207.290387 
L 217.201492 207.132453 
L 217.470744 207.051226 
L 217.866703 206.57858 
L 217.89838 206.607092 
L 218.37353 207.002113 
L 218.595267 206.817618 
L 219.212963 205.96996 
L 219.466377 206.257923 
L 219.703952 206.294666 
L 220.004881 206.198749 
L 220.147426 206.056324 
L 220.416678 205.812299 
L 220.670091 205.674589 
L 220.939343 205.628444 
L 221.129404 205.524786 
L 221.683746 204.879569 
L 221.873806 204.806364 
L 222.22225 204.580538 
L 222.539017 204.744028 
L 222.570694 204.6934 
L 223.045844 204.022883 
L 223.315096 204.007445 
L 223.695217 203.624542 
L 224.011984 203.198872 
L 224.170367 202.983478 
L 224.455458 202.591135 
L 224.677195 202.54023 
L 224.962285 202.388328 
L 225.215699 202.56002 
L 225.231537 202.542876 
L 225.405759 202.144864 
L 225.722526 201.484049 
L 226.023455 201.403708 
L 226.54612 200.058826 
L 226.862887 199.58373 
L 227.813188 199.05725 
L 228.383369 198.044014 
L 228.684298 197.374065 
L 228.937711 196.129238 
L 229.397024 192.738066 
L 229.539569 190.577693 
L 229.634599 184.961758 
L 229.745467 161.788904 
L 230.062234 53.568 
L 230.141426 58.606321 
L 230.363163 104.144375 
L 230.77496 175.866734 
L 231.044212 191.56131 
L 231.329303 196.914826 
L 231.83613 200.838345 
L 232.374634 204.362731 
L 233.071521 207.162566 
L 233.340773 208.342835 
L 233.705055 209.66811 
L 234.766225 212.022681 
L 235.035477 212.419229 
L 235.922425 214.07336 
L 236.365899 214.777931 
L 237.078624 215.482703 
L 237.743835 216.202034 
L 238.092279 216.554783 
L 238.329854 216.624381 
L 238.900035 217.192041 
L 239.470216 217.07705 
L 239.786983 217.370465 
L 240.658092 218.194112 
L 240.974859 218.173571 
L 241.45001 218.476477 
L 242.162736 218.486161 
L 242.463664 218.663155 
L 242.780431 218.664487 
L 243.049683 218.793139 
L 243.477319 218.643414 
L 244.079176 218.882474 
L 244.649357 218.959828 
L 244.823579 218.954777 
L 245.140346 218.90437 
L 245.472951 218.960359 
L 245.742203 219.066075 
L 246.201515 218.721786 
L 246.518282 218.851583 
L 246.945918 218.887854 
L 247.278523 218.695475 
L 248.212986 218.806608 
L 248.799005 218.343882 
L 248.957389 218.42857 
L 249.194964 218.469129 
L 249.685953 218.345872 
L 250.19278 218.081265 
L 250.462032 218.179931 
L 250.921344 218.260586 
L 251.317303 218.084939 
L 251.82413 218.219899 
L 252.441826 217.768263 
L 252.679401 217.861878 
L 252.916977 217.879898 
L 253.186229 217.823759 
L 253.360451 217.80743 
L 253.756409 217.467571 
L 254.0415 217.323668 
L 254.32659 217.290349 
L 254.51665 217.225402 
L 254.975963 216.95214 
L 255.371921 216.842267 
L 255.688688 216.94722 
L 255.910425 216.875429 
L 256.338061 216.568062 
L 256.623151 216.579755 
L 256.876565 216.557915 
L 257.225009 216.509584 
L 258.206986 216.358913 
L 258.4604 216.416358 
L 258.903874 216.193948 
L 259.204803 216.225045 
L 259.695792 215.899804 
L 260.09175 215.746933 
L 260.408517 215.844772 
L 260.978698 215.615561 
L 261.168758 215.534124 
L 261.517202 215.381447 
L 261.897322 215.285519 
L 262.21409 215.269385 
L 262.831785 214.846391 
L 263.069361 214.713515 
L 263.306936 214.723692 
L 263.813763 214.115996 
L 264.019662 213.957647 
L 264.415621 213.872443 
L 264.637357 213.873962 
L 265.09667 213.805606 
L 265.302568 213.758039 
L 265.66685 213.903034 
L 266.031132 213.817306 
L 266.427091 213.231068 
L 266.791373 212.949949 
L 267.234847 212.856247 
L 267.488261 212.76051 
L 267.868381 212.6436 
L 268.517754 212.680702 
L 268.755329 212.865568 
L 268.929551 212.61144 
L 269.182965 212.324697 
L 269.404701 212.26354 
L 270.006559 211.879306 
L 270.545063 211.931748 
L 270.703446 211.97331 
L 270.972698 212.143337 
L 271.257789 211.904756 
L 271.637909 211.618413 
L 272.081383 211.724799 
L 272.334797 211.561694 
L 272.857462 211.06658 
L 273.142553 211.257324 
L 273.285098 211.207594 
L 273.728572 210.80571 
L 273.93447 210.718115 
L 274.694711 209.871052 
L 274.963963 209.768191 
L 275.233215 209.640684 
L 275.47079 209.647352 
L 276.278546 209.258043 
L 276.563637 209.375156 
L 276.864565 209.216526 
L 277.339716 209.064519 
L 277.68816 208.642808 
L 278.115795 208.105724 
L 278.765168 208.231338 
L 279.002743 208.342449 
L 279.382863 208.126161 
L 279.652115 208.151885 
L 279.858014 207.975201 
L 280.491548 207.386752 
L 280.649932 207.29035 
L 281.077567 206.889554 
L 281.283466 206.819204 
L 281.790293 207.079969 
L 281.980353 206.861582 
L 282.48718 206.462467 
L 283.817602 206.944025 
L 284.150207 206.796904 
L 284.593681 206.34978 
L 284.942125 206.310542 
L 285.27473 206.116797 
L 285.464791 206.054558 
L 285.844911 206.26098 
L 286.114163 206.192097 
L 286.478445 206.467839 
L 286.668505 206.400258 
L 287.650483 204.897985 
L 287.888059 204.523201 
L 288.141472 204.510611 
L 288.521593 204.740702 
L 288.775006 204.693786 
L 288.965067 204.638185 
L 289.170965 204.745458 
L 289.186804 204.728972 
L 289.741146 204.074798 
L 289.788661 204.117336 
L 290.152943 204.331623 
L 290.406357 204.370162 
L 290.881507 204.650843 
L 291.150759 204.689165 
L 291.340819 204.663273 
L 291.53088 204.680488 
L 291.705102 204.648898 
L 292.401989 204.288392 
L 292.908816 204.234516 
L 293.716572 203.68678 
L 293.938309 203.610137 
L 294.144208 203.677688 
L 294.809419 204.184644 
L 295.142024 204.33444 
L 295.458791 204.372519 
L 295.838911 204.575259 
L 296.076487 204.579569 
L 296.3299 204.807636 
L 296.678344 205.156075 
L 296.915919 205.129434 
L 297.185171 205.065722 
L 297.897897 205.516569 
L 298.087957 205.225706 
L 298.499755 204.651543 
L 300.447872 205.550524 
L 300.907184 205.311966 
L 302.395989 205.474524 
L 302.665241 205.420787 
L 303.409644 205.46758 
L 303.631381 205.432326 
L 303.995663 205.49596 
L 304.59752 205.198673 
L 304.787581 205.054265 
L 304.977641 205.03638 
L 305.215216 204.988566 
L 305.3736 205.061086 
L 305.690367 205.443315 
L 305.737882 205.401806 
L 305.927942 205.347504 
L 306.339739 205.569872 
L 306.640668 205.429614 
L 307.955251 204.560801 
L 308.382886 204.880358 
L 308.509593 204.788947 
L 308.82636 204.443277 
L 309.206481 204.416606 
L 309.428218 204.354424 
L 309.824177 204.337123 
L 310.552741 203.593247 
L 311.075406 203.71076 
L 311.471365 204.188509 
L 311.803971 204.468506 
L 312.009869 204.423397 
L 312.29496 204.247545 
L 312.67508 204.472566 
L 312.912655 204.520118 
L 313.166069 204.625991 
L 313.356129 204.596601 
L 313.577866 204.664702 
L 313.862956 204.567723 
L 314.243077 204.590562 
L 315.130025 205.191777 
L 315.494307 204.930604 
L 315.858589 204.557415 
L 316.096164 204.623776 
L 316.571315 204.797926 
L 317.062304 204.695357 
L 317.363232 205.049667 
L 317.616646 205.300602 
L 317.87006 205.241316 
L 318.091796 205.272615 
L 319.105451 206.255166 
L 319.216319 207.035672 
L 319.453895 211.461527 
L 319.770662 214.967444 
L 320.182459 217.401382 
L 322.003869 225.767451 
L 322.526535 227.609198 
L 324.807258 234.62529 
L 325.535822 236.239771 
L 325.931781 237.11353 
L 326.406931 238.219299 
L 328.260019 241.625599 
L 328.513432 242.043269 
L 328.909391 242.755353 
L 329.162805 243.073578 
L 330.255651 244.949097 
L 332.663081 248.021359 
L 332.979848 248.35518 
L 333.233261 248.494151 
L 333.581705 248.720392 
L 334.341946 249.484013 
L 334.97548 250.088053 
L 337.937252 252.293928 
L 338.634139 252.507155 
L 339.29935 252.91809 
L 339.822016 253.17829 
L 340.122945 253.286393 
L 340.36052 253.317509 
L 340.64561 253.528499 
L 340.661448 253.513652 
L 340.899024 253.412613 
L 341.184114 253.636056 
L 341.51672 253.864639 
L 341.89684 253.945682 
L 342.371991 254.07616 
L 342.894656 254.237709 
L 343.306453 254.368838 
L 343.71825 254.393151 
L 344.272593 254.518765 
L 344.557683 254.580718 
L 345.112025 254.865785 
L 345.998973 254.962469 
L 346.299902 254.871031 
L 346.980951 255.004622 
L 347.18685 255.055935 
L 347.519455 255.20869 
L 347.709515 255.308255 
L 347.899575 255.315109 
L 348.089636 255.325219 
L 348.327211 255.386402 
L 348.691493 255.230773 
L 349.087452 255.215043 
L 349.958561 255.383851 
L 351.114761 255.527544 
L 351.463205 255.444637 
L 353.506352 255.703924 
L 353.807281 255.508604 
L 354.155725 255.484912 
L 355.802913 255.678578 
L 356.008812 255.70471 
L 356.626508 255.374197 
L 356.879921 255.567011 
L 357.133335 255.666792 
L 357.608485 255.703213 
L 357.846061 255.730071 
L 358.33705 255.69231 
L 358.637978 255.777372 
L 359.319027 255.62642 
L 360.15846 255.685815 
L 360.522742 255.669344 
L 361.013731 255.794441 
L 361.187953 255.75029 
L 361.631427 255.486985 
L 362.233284 255.577719 
L 362.486698 255.506269 
L 363.848796 255.684191 
L 364.228917 255.481013 
L 364.57736 255.508566 
L 366.335418 255.677927 
L 366.731376 255.397365 
L 366.905598 255.490794 
L 367.159012 255.566389 
L 367.950929 255.598986 
L 368.932907 255.637136 
L 369.297189 255.41537 
L 369.518926 255.527821 
L 369.883208 255.675772 
L 371.514559 255.547786 
L 371.958033 255.377924 
L 372.591567 255.569248 
L 372.892495 255.515833 
L 373.209262 255.550024 
L 373.636898 255.418281 
L 373.842797 255.462612 
L 374.032857 255.428907 
L 374.523846 255.186929 
L 375.030673 255.413133 
L 375.680045 255.285304 
L 376.59867 255.367215 
L 376.994629 255.184527 
L 377.343072 255.342333 
L 377.612324 255.32697 
L 377.992445 255.244842 
L 378.198343 255.317287 
L 378.451757 255.367552 
L 378.689332 255.413177 
L 378.895231 255.485727 
L 379.085291 255.490554 
L 379.623795 255.139971 
L 380.035592 255.239416 
L 380.289006 255.190296 
L 380.605773 255.251255 
L 380.938378 255.323506 
L 381.334337 255.376951 
L 381.571912 255.447204 
L 382.252962 254.994624 
L 382.538052 255.098671 
L 382.743951 255.094907 
L 382.965687 255.062078 
L 383.314131 255.182993 
L 384.264432 255.319532 
L 384.739583 254.974464 
L 385.008835 255.108968 
L 385.43647 255.141101 
L 385.705722 255.100677 
L 386.766892 255.085299 
L 387.273719 254.707769 
L 387.511295 254.909914 
L 387.733032 254.935275 
L 389.443574 254.820272 
L 389.776179 254.558224 
L 389.950401 254.725444 
L 390.203814 254.866474 
L 390.504743 254.779406 
L 390.694803 254.762576 
L 391.01157 254.893047 
L 391.233307 254.867476 
L 391.407529 254.814069 
L 391.581751 254.799484 
L 391.930195 255.060133 
L 391.961872 255.023532 
L 392.35783 254.643084 
L 392.674597 254.679512 
L 393.419 254.62576 
L 394.464331 254.737657 
L 394.986997 254.482553 
L 396.760892 254.587169 
L 397.093498 254.592939 
L 397.632002 254.319875 
L 398.186344 254.60893 
L 398.392243 254.655484 
L 398.487273 254.812123 
L 398.487273 254.812123 
" clip-path="url(#p5e8689860b)" style="fill: none; stroke: #d62728; stroke-width: 1.5; stroke-linecap: square"/>
   </g>
   <g id="patch_3">
    <path d="M 57.6 307.584 
L 57.6 41.472 
" style="fill: none; stroke: #000000; stroke-width: 0.8; stroke-linejoin: miter; stroke-linecap: square"/>
   </g>
   <g id="patch_4">
    <path d="M 414.72 307.584 
L 414.72 41.472 
" style="fill: none; stroke: #000000; stroke-width: 0.8; stroke-linejoin: miter; stroke-linecap: square"/>
   </g>
   <g id="patch_5">
    <path d="M 57.6 307.584 
L 414.72 307.584 
" style="fill: none; stroke: #000000; stroke-width: 0.8; stroke-linejoin: miter; stroke-linecap: square"/>
   </g>
   <g id="patch_6">
    <path d="M 57.6 41.472 
L 414.72 41.472 
" style="fill: none; stroke: #000000; stroke-width: 0.8; stroke-linejoin: miter; stroke-linecap: square"/>
   </g>
  </g>
 </g>
 <defs>
  <clipPath id="p5e8689860b">
   <rect x="57.6" y="41.472" width="357.12" height="266.112"/>
  </clipPath>
 </defs>
</svg>
