<?xml version="1.0" encoding="utf-8" standalone="no"?>
<!DOCTYPE svg PUBLIC "-//W3C//DTD SVG 1.1//EN"
  "http://www.w3.org/Graphics/SVG/1.1/DTD/svg11.dtd">
<svg height="345.6pt" version="1.1" viewBox="0 0 460.8 345.6" width="460.8pt" xmlns="http://www.w3.org/2000/svg" xmlns:xlink="http://www.w3.org/1999/xlink">
 <metadata>
  <rdf:RDF xmlns:cc="http://creativecommons.org/ns#" xmlns:dc="http://purl.org/dc/elements/1.1/" xmlns:rdf="http://www.w3.org/1999/02/22-rdf-syntax-ns#">
   <cc:Work>
    <dc:type rdf:resource="http://purl.org/dc/dcmitype/StillImage"/>
    <dc:date>2024-08-06T14:45:05.856306</dc:date>
    <dc:format>image/svg+xml</dc:format>
    <dc:creator>
     <cc:Agent>
      <dc:title>Matplotlib v3.4.2, https://matplotlib.org/</dc:title>
     </cc:Agent>
    </dc:creator>
   </cc:Work>
  </rdf:RDF>
 </metadata>
 <defs>
  <style type="text/css">*{stroke-linecap:butt;stroke-linejoin:round;}</style>
 </defs>
 <g id="figure_1">
  <g id="patch_1">
   <path d="M 0 345.6 
L 460.8 345.6 
L 460.8 0 
L 0 0 
z
" style="fill:#ffffff;"/>
  </g>
  <g id="axes_1">
   <g id="patch_2">
    <path d="M 57.6 307.584 
L 414.72 307.584 
L 414.72 41.472 
L 57.6 41.472 
z
" style="fill:#ffffff;"/>
   </g>
   <g id="matplotlib.axis_1">
    <g id="xtick_1">
     <g id="line2d_1">
      <defs>
       <path d="M 0 0 
L 0 3.5 
" id="m23436f31fd" style="stroke:#000000;stroke-width:0.8;"/>
      </defs>
      <g>
       <use style="stroke:#000000;stroke-width:0.8;" x="59.701804" xlink:href="#m23436f31fd" y="307.584"/>
      </g>
     </g>
     <g id="text_1">
      <!-- 0.75 -->
      <g transform="translate(48.568992 322.182437)scale(0.1 -0.1)">
       <defs>
        <path d="M 2034 4250 
Q 1547 4250 1301 3770 
Q 1056 3291 1056 2328 
Q 1056 1369 1301 889 
Q 1547 409 2034 409 
Q 2525 409 2770 889 
Q 3016 1369 3016 2328 
Q 3016 3291 2770 3770 
Q 2525 4250 2034 4250 
z
M 2034 4750 
Q 2819 4750 3233 4129 
Q 3647 3509 3647 2328 
Q 3647 1150 3233 529 
Q 2819 -91 2034 -91 
Q 1250 -91 836 529 
Q 422 1150 422 2328 
Q 422 3509 836 4129 
Q 1250 4750 2034 4750 
z
" id="DejaVuSans-30" transform="scale(0.015625)"/>
        <path d="M 684 794 
L 1344 794 
L 1344 0 
L 684 0 
L 684 794 
z
" id="DejaVuSans-2e" transform="scale(0.015625)"/>
        <path d="M 525 4666 
L 3525 4666 
L 3525 4397 
L 1831 0 
L 1172 0 
L 2766 4134 
L 525 4134 
L 525 4666 
z
" id="DejaVuSans-37" transform="scale(0.015625)"/>
        <path d="M 691 4666 
L 3169 4666 
L 3169 4134 
L 1269 4134 
L 1269 2991 
Q 1406 3038 1543 3061 
Q 1681 3084 1819 3084 
Q 2600 3084 3056 2656 
Q 3513 2228 3513 1497 
Q 3513 744 3044 326 
Q 2575 -91 1722 -91 
Q 1428 -91 1123 -41 
Q 819 9 494 109 
L 494 744 
Q 775 591 1075 516 
Q 1375 441 1709 441 
Q 2250 441 2565 725 
Q 2881 1009 2881 1497 
Q 2881 1984 2565 2268 
Q 2250 2553 1709 2553 
Q 1456 2553 1204 2497 
Q 953 2441 691 2322 
L 691 4666 
z
" id="DejaVuSans-35" transform="scale(0.015625)"/>
       </defs>
       <use xlink:href="#DejaVuSans-30"/>
       <use x="63.623047" xlink:href="#DejaVuSans-2e"/>
       <use x="95.410156" xlink:href="#DejaVuSans-37"/>
       <use x="159.033203" xlink:href="#DejaVuSans-35"/>
      </g>
     </g>
    </g>
    <g id="xtick_2">
     <g id="line2d_2">
      <g>
       <use style="stroke:#000000;stroke-width:0.8;" x="99.713241" xlink:href="#m23436f31fd" y="307.584"/>
      </g>
     </g>
     <g id="text_2">
      <!-- 1.00 -->
      <g transform="translate(88.580428 322.182437)scale(0.1 -0.1)">
       <defs>
        <path d="M 794 531 
L 1825 531 
L 1825 4091 
L 703 3866 
L 703 4441 
L 1819 4666 
L 2450 4666 
L 2450 531 
L 3481 531 
L 3481 0 
L 794 0 
L 794 531 
z
" id="DejaVuSans-31" transform="scale(0.015625)"/>
       </defs>
       <use xlink:href="#DejaVuSans-31"/>
       <use x="63.623047" xlink:href="#DejaVuSans-2e"/>
       <use x="95.410156" xlink:href="#DejaVuSans-30"/>
       <use x="159.033203" xlink:href="#DejaVuSans-30"/>
      </g>
     </g>
    </g>
    <g id="xtick_3">
     <g id="line2d_3">
      <g>
       <use style="stroke:#000000;stroke-width:0.8;" x="139.724677" xlink:href="#m23436f31fd" y="307.584"/>
      </g>
     </g>
     <g id="text_3">
      <!-- 1.25 -->
      <g transform="translate(128.591864 322.182437)scale(0.1 -0.1)">
       <defs>
        <path d="M 1228 531 
L 3431 531 
L 3431 0 
L 469 0 
L 469 531 
Q 828 903 1448 1529 
Q 2069 2156 2228 2338 
Q 2531 2678 2651 2914 
Q 2772 3150 2772 3378 
Q 2772 3750 2511 3984 
Q 2250 4219 1831 4219 
Q 1534 4219 1204 4116 
Q 875 4013 500 3803 
L 500 4441 
Q 881 4594 1212 4672 
Q 1544 4750 1819 4750 
Q 2544 4750 2975 4387 
Q 3406 4025 3406 3419 
Q 3406 3131 3298 2873 
Q 3191 2616 2906 2266 
Q 2828 2175 2409 1742 
Q 1991 1309 1228 531 
z
" id="DejaVuSans-32" transform="scale(0.015625)"/>
       </defs>
       <use xlink:href="#DejaVuSans-31"/>
       <use x="63.623047" xlink:href="#DejaVuSans-2e"/>
       <use x="95.410156" xlink:href="#DejaVuSans-32"/>
       <use x="159.033203" xlink:href="#DejaVuSans-35"/>
      </g>
     </g>
    </g>
    <g id="xtick_4">
     <g id="line2d_4">
      <g>
       <use style="stroke:#000000;stroke-width:0.8;" x="179.736113" xlink:href="#m23436f31fd" y="307.584"/>
      </g>
     </g>
     <g id="text_4">
      <!-- 1.50 -->
      <g transform="translate(168.6033 322.182437)scale(0.1 -0.1)">
       <use xlink:href="#DejaVuSans-31"/>
       <use x="63.623047" xlink:href="#DejaVuSans-2e"/>
       <use x="95.410156" xlink:href="#DejaVuSans-35"/>
       <use x="159.033203" xlink:href="#DejaVuSans-30"/>
      </g>
     </g>
    </g>
    <g id="xtick_5">
     <g id="line2d_5">
      <g>
       <use style="stroke:#000000;stroke-width:0.8;" x="219.747549" xlink:href="#m23436f31fd" y="307.584"/>
      </g>
     </g>
     <g id="text_5">
      <!-- 1.75 -->
      <g transform="translate(208.614737 322.182437)scale(0.1 -0.1)">
       <use xlink:href="#DejaVuSans-31"/>
       <use x="63.623047" xlink:href="#DejaVuSans-2e"/>
       <use x="95.410156" xlink:href="#DejaVuSans-37"/>
       <use x="159.033203" xlink:href="#DejaVuSans-35"/>
      </g>
     </g>
    </g>
    <g id="xtick_6">
     <g id="line2d_6">
      <g>
       <use style="stroke:#000000;stroke-width:0.8;" x="259.758985" xlink:href="#m23436f31fd" y="307.584"/>
      </g>
     </g>
     <g id="text_6">
      <!-- 2.00 -->
      <g transform="translate(248.626173 322.182437)scale(0.1 -0.1)">
       <use xlink:href="#DejaVuSans-32"/>
       <use x="63.623047" xlink:href="#DejaVuSans-2e"/>
       <use x="95.410156" xlink:href="#DejaVuSans-30"/>
       <use x="159.033203" xlink:href="#DejaVuSans-30"/>
      </g>
     </g>
    </g>
    <g id="xtick_7">
     <g id="line2d_7">
      <g>
       <use style="stroke:#000000;stroke-width:0.8;" x="299.770421" xlink:href="#m23436f31fd" y="307.584"/>
      </g>
     </g>
     <g id="text_7">
      <!-- 2.25 -->
      <g transform="translate(288.637609 322.182437)scale(0.1 -0.1)">
       <use xlink:href="#DejaVuSans-32"/>
       <use x="63.623047" xlink:href="#DejaVuSans-2e"/>
       <use x="95.410156" xlink:href="#DejaVuSans-32"/>
       <use x="159.033203" xlink:href="#DejaVuSans-35"/>
      </g>
     </g>
    </g>
    <g id="xtick_8">
     <g id="line2d_8">
      <g>
       <use style="stroke:#000000;stroke-width:0.8;" x="339.781858" xlink:href="#m23436f31fd" y="307.584"/>
      </g>
     </g>
     <g id="text_8">
      <!-- 2.50 -->
      <g transform="translate(328.649045 322.182437)scale(0.1 -0.1)">
       <use xlink:href="#DejaVuSans-32"/>
       <use x="63.623047" xlink:href="#DejaVuSans-2e"/>
       <use x="95.410156" xlink:href="#DejaVuSans-35"/>
       <use x="159.033203" xlink:href="#DejaVuSans-30"/>
      </g>
     </g>
    </g>
    <g id="xtick_9">
     <g id="line2d_9">
      <g>
       <use style="stroke:#000000;stroke-width:0.8;" x="379.793294" xlink:href="#m23436f31fd" y="307.584"/>
      </g>
     </g>
     <g id="text_9">
      <!-- 2.75 -->
      <g transform="translate(368.660481 322.182437)scale(0.1 -0.1)">
       <use xlink:href="#DejaVuSans-32"/>
       <use x="63.623047" xlink:href="#DejaVuSans-2e"/>
       <use x="95.410156" xlink:href="#DejaVuSans-37"/>
       <use x="159.033203" xlink:href="#DejaVuSans-35"/>
      </g>
     </g>
    </g>
   </g>
   <g id="matplotlib.axis_2">
    <g id="ytick_1">
     <g id="line2d_10">
      <defs>
       <path d="M 0 0 
L -3.5 0 
" id="m9300d5f5f0" style="stroke:#000000;stroke-width:0.8;"/>
      </defs>
      <g>
       <use style="stroke:#000000;stroke-width:0.8;" x="57.6" xlink:href="#m9300d5f5f0" y="262.613225"/>
      </g>
     </g>
     <g id="text_10">
      <!-- −80 -->
      <g transform="translate(29.495313 266.412444)scale(0.1 -0.1)">
       <defs>
        <path d="M 678 2272 
L 4684 2272 
L 4684 1741 
L 678 1741 
L 678 2272 
z
" id="DejaVuSans-2212" transform="scale(0.015625)"/>
        <path d="M 2034 2216 
Q 1584 2216 1326 1975 
Q 1069 1734 1069 1313 
Q 1069 891 1326 650 
Q 1584 409 2034 409 
Q 2484 409 2743 651 
Q 3003 894 3003 1313 
Q 3003 1734 2745 1975 
Q 2488 2216 2034 2216 
z
M 1403 2484 
Q 997 2584 770 2862 
Q 544 3141 544 3541 
Q 544 4100 942 4425 
Q 1341 4750 2034 4750 
Q 2731 4750 3128 4425 
Q 3525 4100 3525 3541 
Q 3525 3141 3298 2862 
Q 3072 2584 2669 2484 
Q 3125 2378 3379 2068 
Q 3634 1759 3634 1313 
Q 3634 634 3220 271 
Q 2806 -91 2034 -91 
Q 1263 -91 848 271 
Q 434 634 434 1313 
Q 434 1759 690 2068 
Q 947 2378 1403 2484 
z
M 1172 3481 
Q 1172 3119 1398 2916 
Q 1625 2713 2034 2713 
Q 2441 2713 2670 2916 
Q 2900 3119 2900 3481 
Q 2900 3844 2670 4047 
Q 2441 4250 2034 4250 
Q 1625 4250 1398 4047 
Q 1172 3844 1172 3481 
z
" id="DejaVuSans-38" transform="scale(0.015625)"/>
       </defs>
       <use xlink:href="#DejaVuSans-2212"/>
       <use x="83.789062" xlink:href="#DejaVuSans-38"/>
       <use x="147.412109" xlink:href="#DejaVuSans-30"/>
      </g>
     </g>
    </g>
    <g id="ytick_2">
     <g id="line2d_11">
      <g>
       <use style="stroke:#000000;stroke-width:0.8;" x="57.6" xlink:href="#m9300d5f5f0" y="217.024947"/>
      </g>
     </g>
     <g id="text_11">
      <!-- −60 -->
      <g transform="translate(29.495313 220.824166)scale(0.1 -0.1)">
       <defs>
        <path d="M 2113 2584 
Q 1688 2584 1439 2293 
Q 1191 2003 1191 1497 
Q 1191 994 1439 701 
Q 1688 409 2113 409 
Q 2538 409 2786 701 
Q 3034 994 3034 1497 
Q 3034 2003 2786 2293 
Q 2538 2584 2113 2584 
z
M 3366 4563 
L 3366 3988 
Q 3128 4100 2886 4159 
Q 2644 4219 2406 4219 
Q 1781 4219 1451 3797 
Q 1122 3375 1075 2522 
Q 1259 2794 1537 2939 
Q 1816 3084 2150 3084 
Q 2853 3084 3261 2657 
Q 3669 2231 3669 1497 
Q 3669 778 3244 343 
Q 2819 -91 2113 -91 
Q 1303 -91 875 529 
Q 447 1150 447 2328 
Q 447 3434 972 4092 
Q 1497 4750 2381 4750 
Q 2619 4750 2861 4703 
Q 3103 4656 3366 4563 
z
" id="DejaVuSans-36" transform="scale(0.015625)"/>
       </defs>
       <use xlink:href="#DejaVuSans-2212"/>
       <use x="83.789062" xlink:href="#DejaVuSans-36"/>
       <use x="147.412109" xlink:href="#DejaVuSans-30"/>
      </g>
     </g>
    </g>
    <g id="ytick_3">
     <g id="line2d_12">
      <g>
       <use style="stroke:#000000;stroke-width:0.8;" x="57.6" xlink:href="#m9300d5f5f0" y="171.436669"/>
      </g>
     </g>
     <g id="text_12">
      <!-- −40 -->
      <g transform="translate(29.495313 175.235888)scale(0.1 -0.1)">
       <defs>
        <path d="M 2419 4116 
L 825 1625 
L 2419 1625 
L 2419 4116 
z
M 2253 4666 
L 3047 4666 
L 3047 1625 
L 3713 1625 
L 3713 1100 
L 3047 1100 
L 3047 0 
L 2419 0 
L 2419 1100 
L 313 1100 
L 313 1709 
L 2253 4666 
z
" id="DejaVuSans-34" transform="scale(0.015625)"/>
       </defs>
       <use xlink:href="#DejaVuSans-2212"/>
       <use x="83.789062" xlink:href="#DejaVuSans-34"/>
       <use x="147.412109" xlink:href="#DejaVuSans-30"/>
      </g>
     </g>
    </g>
    <g id="ytick_4">
     <g id="line2d_13">
      <g>
       <use style="stroke:#000000;stroke-width:0.8;" x="57.6" xlink:href="#m9300d5f5f0" y="125.848391"/>
      </g>
     </g>
     <g id="text_13">
      <!-- −20 -->
      <g transform="translate(29.495313 129.647609)scale(0.1 -0.1)">
       <use xlink:href="#DejaVuSans-2212"/>
       <use x="83.789062" xlink:href="#DejaVuSans-32"/>
       <use x="147.412109" xlink:href="#DejaVuSans-30"/>
      </g>
     </g>
    </g>
    <g id="ytick_5">
     <g id="line2d_14">
      <g>
       <use style="stroke:#000000;stroke-width:0.8;" x="57.6" xlink:href="#m9300d5f5f0" y="80.260112"/>
      </g>
     </g>
     <g id="text_14">
      <!-- 0 -->
      <g transform="translate(44.2375 84.059331)scale(0.1 -0.1)">
       <use xlink:href="#DejaVuSans-30"/>
      </g>
     </g>
    </g>
   </g>
   <g id="line2d_15">
    <path clip-path="url(#p9e569f017d)" d="M 73.832727 219.90054 
L 74.149155 220.004785 
L 74.623796 219.924731 
L 74.940223 219.967755 
L 75.256651 220.044367 
L 75.573078 220.195133 
L 75.889506 220.278067 
L 76.364147 220.263563 
L 76.680574 220.088585 
L 77.313429 219.763042 
L 77.629856 219.832987 
L 77.946284 219.740723 
L 78.262711 219.782564 
L 78.579139 219.614714 
L 79.05378 219.607084 
L 79.370207 219.779346 
L 79.686635 219.657752 
L 80.161276 219.526435 
L 80.952344 219.616187 
L 81.110558 219.566399 
L 81.426986 219.61407 
L 82.218054 219.533389 
L 83.32555 219.904418 
L 84.907687 219.947123 
L 85.224115 219.808511 
L 85.698756 219.917359 
L 86.173397 219.793977 
L 87.755534 219.642855 
L 88.071962 219.451336 
L 88.546603 219.58651 
L 89.337671 219.872708 
L 90.286954 219.696475 
L 90.603381 219.810998 
L 91.236236 219.56363 
L 91.710877 219.623197 
L 92.343732 219.872346 
L 93.134801 219.773057 
L 93.451228 219.54904 
L 94.40051 219.393817 
L 94.558724 219.39441 
L 95.033365 219.006965 
L 96.140861 218.995525 
L 96.457289 218.950869 
L 96.93193 219.138334 
L 98.514067 218.98817 
L 99.93799 219.098056 
L 100.254418 219.128704 
L 100.412632 219.182258 
L 100.729059 218.97992 
L 101.520128 219.213193 
L 101.678341 219.172634 
L 102.46941 219.527685 
L 102.785837 219.47506 
L 103.102265 219.542527 
L 103.418692 219.52816 
L 105.159043 219.829762 
L 105.47547 219.753996 
L 105.791898 224.734459 
L 106.424753 232.573285 
L 107.374035 240.741161 
L 108.639745 249.04906 
L 109.747241 255.353001 
L 110.696523 259.976105 
L 111.171164 261.978786 
L 111.962233 264.914855 
L 113.069729 269.671434 
L 114.651866 274.957191 
L 114.968293 275.684422 
L 116.234003 279.654219 
L 118.290781 284.762324 
L 120.505774 288.879915 
L 120.663987 288.981187 
L 122.087911 291.046307 
L 123.986475 293.03906 
L 124.302903 293.380978 
L 124.461116 293.444266 
L 124.777544 293.852768 
L 125.093971 294.016575 
L 125.410399 293.835425 
L 126.043254 294.309465 
L 126.359681 294.419454 
L 126.676108 294.581573 
L 126.992536 294.46213 
L 127.625391 294.870267 
L 128.258246 295.010569 
L 128.8911 295.377164 
L 129.207528 295.394507 
L 129.523955 295.488 
L 130.947879 295.418928 
L 131.42252 295.449936 
L 131.738947 295.374895 
L 132.213589 295.34937 
L 132.371802 295.229764 
L 132.68823 295.215365 
L 133.162871 295.15762 
L 133.795726 295.2258 
L 134.112153 295.052707 
L 134.428581 294.973928 
L 134.745008 294.883013 
L 135.377863 294.906335 
L 136.010718 294.667886 
L 136.96 294.715912 
L 137.118214 294.651357 
L 137.592855 294.021651 
L 137.909282 293.870482 
L 138.22571 293.799753 
L 138.700351 293.396308 
L 139.174992 293.377539 
L 139.333206 293.336537 
L 140.124274 292.156384 
L 140.440702 292.077975 
L 141.548198 291.525424 
L 142.022839 291.294005 
L 142.339266 291.09159 
L 142.655694 291.101536 
L 145.345327 289.63306 
L 145.661754 289.264808 
L 145.819968 289.282102 
L 146.136396 289.087244 
L 146.452823 289.045264 
L 146.76925 289.089317 
L 147.085678 289.001219 
L 147.402105 288.680474 
L 148.03496 287.970527 
L 149.775311 287.162632 
L 150.091738 286.893693 
L 151.199234 286.337429 
L 151.673876 286.323931 
L 151.990303 286.090934 
L 152.148517 286.052661 
L 152.464944 285.774479 
L 153.097799 285.409257 
L 153.256013 285.339637 
L 153.57244 285.019878 
L 153.888868 284.958885 
L 154.205295 284.699712 
L 154.521722 284.388318 
L 154.679936 284.375522 
L 154.996364 284.253775 
L 155.154577 284.302875 
L 156.262073 283.933446 
L 156.736715 283.967374 
L 157.369569 283.843315 
L 157.685997 283.574393 
L 161.008485 282.6191 
L 161.324912 282.435013 
L 161.799553 282.472935 
L 162.432408 282.220657 
L 162.748836 282.369366 
L 163.065263 282.020285 
L 163.223477 281.973933 
L 163.539904 281.689207 
L 163.856332 281.668101 
L 164.172759 281.407074 
L 164.489187 281.328529 
L 165.91311 280.767732 
L 166.229537 280.687189 
L 167.020606 280.199311 
L 168.760957 279.268078 
L 169.393812 278.985814 
L 169.710239 278.8201 
L 170.026667 278.789503 
L 170.343094 278.790067 
L 170.659522 278.850378 
L 172.083445 278.470004 
L 172.558086 278.416598 
L 172.874514 278.295516 
L 173.190941 278.285846 
L 173.349155 278.346857 
L 173.823796 278.228291 
L 174.298437 278.229965 
L 174.614864 278.147809 
L 175.247719 278.224702 
L 175.72236 278.006474 
L 175.880574 278.05519 
L 176.513429 277.530478 
L 177.304498 277.329419 
L 177.462711 277.368433 
L 178.095566 277.03257 
L 178.886635 277.095375 
L 179.203062 276.921628 
L 179.677703 276.733409 
L 179.994131 276.525005 
L 181.101627 276.170151 
L 181.576268 276.196354 
L 182.683764 275.891288 
L 183.316619 275.659275 
L 184.107687 275.687338 
L 184.424115 275.681492 
L 184.582329 275.68773 
L 184.898756 275.802135 
L 185.215183 275.691276 
L 185.848038 275.531258 
L 186.006252 275.382591 
L 186.480893 275.509029 
L 187.588389 275.676588 
L 187.904817 275.662571 
L 189.486954 275.594856 
L 189.645167 275.450191 
L 189.961595 275.468472 
L 191.543732 275.365082 
L 191.701946 275.397768 
L 192.176587 275.272232 
L 192.809442 275.172812 
L 193.125869 274.94907 
L 193.442297 274.781936 
L 193.758724 274.649564 
L 195.182648 274.407329 
L 195.657289 274.288966 
L 196.13193 273.98197 
L 196.448357 274.052622 
L 196.606571 274.030257 
L 196.922998 274.185388 
L 197.714067 273.958721 
L 198.030494 274.139629 
L 198.346922 273.906666 
L 198.663349 273.680264 
L 199.296204 273.481529 
L 200.245486 273.531608 
L 200.561914 273.776272 
L 201.985837 273.878007 
L 202.302265 273.915854 
L 202.776906 273.899372 
L 203.093333 273.960845 
L 203.409761 273.99147 
L 203.726188 273.914409 
L 208.630813 273.567384 
L 208.947241 273.43883 
L 210.212951 273.399139 
L 210.529378 273.259524 
L 210.845805 273.027982 
L 211.320447 273.138345 
L 211.795088 273.0428 
L 212.586156 273.053384 
L 213.060797 272.907178 
L 213.535439 273.026687 
L 213.851866 273.11147 
L 214.326507 273.163483 
L 215.275789 273.195467 
L 215.592217 273.331733 
L 216.541499 273.176463 
L 216.857927 272.953915 
L 217.174354 272.926153 
L 217.490781 272.86489 
L 217.807209 272.935847 
L 218.123636 273.054475 
L 218.598278 272.892226 
L 218.914705 272.931245 
L 219.231132 273.047689 
L 219.54756 273.043492 
L 220.180415 272.944945 
L 220.655056 272.758843 
L 222.078979 272.177559 
L 222.395407 272.164726 
L 222.870048 272.250319 
L 223.186475 272.11912 
L 223.344689 272.14459 
L 223.661116 272.051158 
L 224.610399 271.884469 
L 224.926826 271.839549 
L 225.401467 271.490489 
L 226.192536 271.391998 
L 226.825391 271.556997 
L 228.0911 271.538688 
L 228.882169 271.823324 
L 229.198596 271.681348 
L 229.515024 271.778388 
L 230.464306 271.488349 
L 230.780734 271.422891 
L 230.938947 271.34428 
L 231.413589 271.482447 
L 231.88823 271.450142 
L 232.679298 271.415916 
L 232.837512 271.496366 
L 233.153939 271.444805 
L 234.419649 271.764069 
L 234.577863 271.687795 
L 234.89429 271.76059 
L 235.368931 271.674239 
L 235.843573 271.671895 
L 236.16 271.638847 
L 236.951069 271.381127 
L 237.42571 271.455745 
L 237.583923 271.48386 
L 237.900351 271.291214 
L 238.058565 271.26685 
L 238.374992 271.133929 
L 238.533206 271.253386 
L 239.007847 271.223599 
L 239.482488 271.314199 
L 239.640702 271.316358 
L 239.957129 271.012871 
L 240.273557 270.935996 
L 240.589984 270.802104 
L 240.906411 270.784906 
L 241.381053 270.577778 
L 242.330335 270.68113 
L 242.488549 270.501582 
L 244.070686 270.432954 
L 246.127464 270.40278 
L 246.443892 270.560597 
L 247.076746 270.547855 
L 247.393174 270.694922 
L 247.709601 270.793432 
L 247.867815 270.844837 
L 248.342456 270.573593 
L 248.817097 270.591523 
L 249.133525 270.859167 
L 249.449952 270.880525 
L 249.76638 271.110315 
L 250.399234 271.102773 
L 250.715662 271.325706 
L 251.190303 271.056169 
L 253.563509 271.504386 
L 254.03815 271.313466 
L 254.354577 271.435775 
L 256.094928 271.42625 
L 256.569569 271.325237 
L 257.044211 271.216007 
L 257.518852 271.147538 
L 257.835279 270.863089 
L 258.626348 270.936874 
L 258.942775 270.905577 
L 259.417416 270.954967 
L 259.733844 271.047443 
L 261.790622 271.03337 
L 262.423477 271.071665 
L 262.739904 271.061565 
L 263.056332 271.243998 
L 263.214545 271.332609 
L 263.689187 271.199808 
L 264.005614 266.054058 
L 264.638469 258.23172 
L 265.271324 252.733009 
L 266.853461 242.565503 
L 267.802743 237.669094 
L 269.701308 228.86352 
L 270.65059 225.013411 
L 271.283445 222.396148 
L 273.18201 213.419333 
L 273.340223 211.724793 
L 273.498437 211.542613 
L 273.814864 208.826292 
L 273.973078 208.234439 
L 274.131292 205.693543 
L 274.289506 206.196922 
L 274.447719 202.721373 
L 274.605933 203.372861 
L 274.92236 197.821585 
L 275.080574 197.925568 
L 275.238788 188.91303 
L 275.397002 198.214047 
L 275.713429 65.522944 
L 276.18807 169.285473 
L 276.346284 181.91645 
L 276.504498 181.525667 
L 276.662711 183.99544 
L 276.820925 182.727729 
L 276.979139 180.52667 
L 277.137352 179.884217 
L 277.45378 173.986411 
L 277.611994 171.586063 
L 277.770207 165.422691 
L 277.928421 165.912383 
L 278.086635 132.552919 
L 278.244848 74.109342 
L 278.403062 79.372597 
L 278.71949 137.76414 
L 279.035917 162.824159 
L 279.352344 170.625823 
L 279.668772 171.483577 
L 280.459841 164.554688 
L 281.092695 151.786186 
L 281.250909 145.121406 
L 281.567337 77.773673 
L 281.72555 75.887793 
L 282.516619 158.954124 
L 282.833046 168.700119 
L 283.149474 172.168547 
L 283.307687 173.019699 
L 283.624115 173.095194 
L 284.098756 171.45005 
L 284.573397 168.120555 
L 285.206252 160.82304 
L 285.522679 154.241012 
L 285.680893 145.64633 
L 285.997321 73.629707 
L 286.155534 73.061351 
L 286.788389 155.645349 
L 287.104817 168.755839 
L 287.421244 173.910816 
L 287.737671 176.486499 
L 288.054099 177.31126 
L 288.212313 177.177169 
L 288.845167 175.439588 
L 289.636236 170.27826 
L 290.585518 157.931985 
L 290.743732 150.209529 
L 291.060159 66.083601 
L 291.218373 76.019948 
L 291.693014 151.732526 
L 292.009442 169.848133 
L 292.325869 176.927289 
L 292.642297 179.732533 
L 292.80051 180.749644 
L 292.958724 180.727168 
L 293.116938 180.942302 
L 293.591579 180.542323 
L 294.224434 178.482927 
L 294.699075 176.707225 
L 295.806571 169.15527 
L 296.59764 154.883948 
L 296.914067 62.258024 
L 297.072281 79.762912 
L 297.388708 142.564754 
L 297.705136 170.308933 
L 298.021563 180.310611 
L 298.33799 183.650587 
L 298.496204 183.975486 
L 298.654418 184.647716 
L 298.812632 184.48419 
L 298.970845 184.763954 
L 300.236555 181.618336 
L 300.711196 179.855932 
L 300.86941 179.523313 
L 301.502265 175.917572 
L 301.660478 175.456831 
L 301.818692 173.946948 
L 301.976906 173.65243 
L 302.293333 171.45476 
L 302.451547 170.306626 
L 302.609761 167.961592 
L 302.767974 168.26734 
L 302.926188 163.261674 
L 303.084402 164.490653 
L 303.242616 133.272874 
L 303.400829 69.992309 
L 303.559043 69.462119 
L 303.87547 139.45277 
L 304.191898 170.427844 
L 304.508325 180.385521 
L 304.824753 183.904246 
L 304.982967 183.981668 
L 305.14118 185.033064 
L 305.299394 185.198116 
L 305.615821 186.026734 
L 305.774035 185.910512 
L 305.932249 186.183007 
L 306.090463 186.009048 
L 306.248676 186.01431 
L 307.039745 185.058547 
L 308.463668 181.610558 
L 308.938309 179.781879 
L 310.520447 172.764348 
L 310.67866 170.748391 
L 310.836874 171.393101 
L 310.995088 168.452374 
L 311.153301 168.712926 
L 311.627943 159.890247 
L 311.94437 58.618812 
L 312.419011 155.25551 
L 312.735439 176.576247 
L 312.893652 182.183555 
L 313.368293 185.748088 
L 313.526507 185.989925 
L 313.684721 186.712728 
L 313.842935 186.716038 
L 314.001148 187.418086 
L 314.159362 187.173658 
L 314.792217 187.325528 
L 314.950431 187.082934 
L 315.108644 187.105456 
L 315.583285 186.447432 
L 317.48185 183.792584 
L 318.589346 180.932844 
L 319.696842 176.821604 
L 319.855056 175.702297 
L 320.01327 175.74226 
L 320.171483 174.268508 
L 320.329697 174.091293 
L 320.646124 171.997385 
L 320.804338 172.101855 
L 320.962552 169.318014 
L 321.120766 170.612243 
L 321.278979 164.878565 
L 321.437193 168.067844 
L 321.595407 146.648927 
L 321.75362 76.207131 
L 321.911834 67.293536 
L 322.228262 143.613758 
L 322.544689 175.185292 
L 322.861116 184.397855 
L 323.01933 184.949029 
L 323.177544 186.579651 
L 323.335758 186.166171 
L 323.493971 186.851523 
L 323.810399 186.925653 
L 323.968612 187.41269 
L 324.126826 187.171814 
L 324.28504 187.553315 
L 324.443254 187.382941 
L 324.601467 187.41071 
L 324.917895 187.231023 
L 325.076108 187.472169 
L 325.392536 187.3128 
L 325.708963 187.148461 
L 326.025391 186.780845 
L 326.341818 186.722819 
L 326.500032 186.575716 
L 326.816459 185.956734 
L 327.132887 185.660115 
L 328.873238 182.707845 
L 329.506093 181.018222 
L 329.980734 179.908294 
L 330.930016 176.405993 
L 331.08823 176.222185 
L 331.246443 175.311894 
L 331.404657 175.371873 
L 331.562871 173.904632 
L 331.721085 173.654118 
L 332.037512 171.352363 
L 332.195726 171.587096 
L 332.353939 168.546564 
L 332.512153 169.905131 
L 332.670367 164.555687 
L 332.828581 166.717715 
L 332.986794 148.789783 
L 333.145008 79.152719 
L 333.303222 64.88299 
L 333.619649 141.690378 
L 333.936077 174.603854 
L 334.252504 184.646509 
L 334.410718 185.455248 
L 334.568931 187.222283 
L 334.727145 186.745802 
L 335.043573 187.792326 
L 335.201786 187.975731 
L 335.36 188.525133 
L 335.518214 188.438986 
L 335.676427 188.92042 
L 335.834641 188.908081 
L 336.151069 189.149893 
L 336.309282 189.100049 
L 336.62571 189.443622 
L 336.783923 189.644851 
L 337.100351 189.610919 
L 337.416778 189.688147 
L 337.733206 189.640079 
L 338.207847 189.498574 
L 338.524274 189.536316 
L 338.840702 189.453896 
L 341.372121 186.876878 
L 341.688549 186.525899 
L 341.846762 186.489461 
L 343.112472 185.153584 
L 343.587113 184.173197 
L 344.061754 183.8456 
L 345.960319 181.470281 
L 346.276746 180.816693 
L 346.43496 180.665682 
L 347.067815 179.065459 
L 347.384242 178.433623 
L 347.542456 178.308377 
L 347.70067 177.964416 
L 347.858884 178.043106 
L 348.175311 177.163272 
L 348.333525 176.948589 
L 348.491738 176.069631 
L 348.649952 175.892213 
L 348.808166 174.809526 
L 348.96638 174.777666 
L 349.282807 173.076165 
L 349.441021 173.032435 
L 349.599234 171.350543 
L 349.757448 172.753409 
L 349.915662 170.171892 
L 350.073876 171.405359 
L 350.548517 164.419634 
L 350.864944 59.500303 
L 351.339585 162.421437 
L 351.656013 180.936199 
L 351.814226 185.991262 
L 351.97244 186.258654 
L 352.288868 188.272265 
L 352.921722 190.802387 
L 353.079936 190.812539 
L 353.396364 191.476164 
L 353.554577 191.490614 
L 353.712791 191.833674 
L 353.871005 191.800749 
L 354.187432 192.071457 
L 354.50386 192.293594 
L 355.136715 192.195822 
L 355.769569 192.037056 
L 356.718852 191.518333 
L 356.877065 191.492282 
L 357.826348 190.692319 
L 358.142775 190.538713 
L 358.77563 189.858216 
L 359.883126 188.39298 
L 360.199553 187.853034 
L 360.674195 187.527262 
L 360.990622 187.244685 
L 361.781691 186.626295 
L 362.414545 185.963844 
L 362.572759 185.940985 
L 364.31311 183.762926 
L 366.211675 179.940976 
L 366.369888 179.299883 
L 366.528102 179.199326 
L 367.002743 178.03276 
L 367.160957 177.037194 
L 367.319171 177.074027 
L 367.477384 175.985558 
L 367.635598 176.018717 
L 367.952026 174.631871 
L 368.110239 174.606223 
L 368.268453 172.991836 
L 368.426667 174.106695 
L 368.58488 171.192536 
L 368.743094 172.417206 
L 368.901308 169.295245 
L 369.059522 168.711089 
L 369.217735 164.034614 
L 369.534163 59.511386 
L 370.008804 163.290771 
L 370.325231 180.952126 
L 370.483445 185.730348 
L 370.641659 186.018189 
L 370.799872 187.692108 
L 370.958086 187.96183 
L 371.590941 190.389232 
L 371.749155 190.28831 
L 372.065582 190.998505 
L 372.223796 191.025792 
L 372.856651 191.883374 
L 373.173078 192.182485 
L 373.331292 192.149677 
L 373.647719 192.408795 
L 373.964147 192.424522 
L 374.438788 192.351345 
L 375.071643 192.078646 
L 375.38807 191.99882 
L 376.65378 191.280111 
L 377.128421 191.259957 
L 377.444848 191.21875 
L 378.394131 190.744443 
L 380.450909 190.094417 
L 380.609123 190.100345 
L 380.92555 189.88486 
L 382.033046 189.431113 
L 383.773397 188.055098 
L 384.406252 187.824808 
L 385.671962 186.618134 
L 385.988389 186.373763 
L 386.779458 186.1106 
L 388.203381 184.90861 
L 388.678022 184.232368 
L 388.836236 184.123565 
L 389.310877 183.540338 
L 389.943732 183.03892 
L 390.101946 183.017712 
L 391.209442 181.587332 
L 391.684083 180.765546 
L 391.842297 180.516768 
L 392.00051 180.500442 
L 392.316938 180.13816 
L 392.475152 180.081615 
L 393.424434 177.177964 
L 393.582648 177.298752 
L 393.740861 176.44983 
L 393.899075 176.801371 
L 394.215502 175.372674 
L 394.373716 174.81058 
L 394.53193 173.406347 
L 394.690144 174.600269 
L 394.848357 171.249952 
L 395.006571 173.092156 
L 395.164785 168.9019 
L 395.322998 169.701855 
L 395.481212 160.871059 
L 395.79764 61.513682 
L 396.114067 143.955307 
L 396.430494 177.758674 
L 396.746922 186.536742 
L 396.905136 186.672159 
L 397.063349 188.466479 
L 397.221563 188.499411 
L 397.53799 189.522156 
L 397.696204 189.316257 
L 397.854418 190.164823 
L 398.012632 190.051361 
L 398.329059 190.834479 
L 398.487273 190.959962 
L 398.487273 190.959962 
" style="fill:none;stroke:#000000;stroke-linecap:square;stroke-width:1.5;"/>
   </g>
   <g id="line2d_16">
    <path clip-path="url(#p9e569f017d)" d="M 73.832727 216.499084 
L 74.149155 216.554255 
L 74.465582 216.572312 
L 74.78201 216.637632 
L 75.256651 216.481418 
L 75.731292 216.626849 
L 76.205933 216.64441 
L 76.52236 216.655872 
L 76.680574 216.681529 
L 76.997002 216.58672 
L 77.629856 216.666458 
L 77.946284 216.464611 
L 78.262711 216.534282 
L 78.420925 216.453511 
L 78.895566 216.621967 
L 79.211994 216.626949 
L 80.003062 216.954901 
L 80.31949 216.907251 
L 80.635917 217.035837 
L 81.110558 217.084414 
L 82.534482 217.264954 
L 82.850909 217.104574 
L 83.32555 217.211659 
L 84.116619 217.378617 
L 85.540542 217.320198 
L 86.015183 217.291425 
L 86.331611 217.361108 
L 86.648038 217.301698 
L 86.806252 217.357218 
L 87.439107 217.144874 
L 87.913748 217.341167 
L 88.071962 217.209388 
L 89.812313 217.349437 
L 90.12874 217.205813 
L 91.236236 217.459857 
L 91.552663 217.575893 
L 92.501946 217.573445 
L 92.660159 217.484365 
L 92.976587 217.64082 
L 93.451228 217.424865 
L 94.084083 217.596376 
L 94.40051 217.500842 
L 95.191579 217.512405 
L 95.349793 217.434188 
L 95.66622 217.561851 
L 95.982648 217.483459 
L 96.140861 217.561627 
L 97.090144 217.262727 
L 97.406571 217.228399 
L 98.988708 216.99388 
L 99.305136 216.913298 
L 100.570845 217.214788 
L 101.994769 217.130353 
L 102.311196 217.074078 
L 102.627624 217.133859 
L 102.785837 217.058459 
L 103.102265 217.101845 
L 104.367974 216.71968 
L 105.317257 216.811405 
L 105.47547 216.736508 
L 106.899394 224.138927 
L 108.323317 228.010167 
L 108.639745 228.779318 
L 109.2726 230.588464 
L 109.747241 231.725623 
L 110.380096 233.012162 
L 111.329378 234.95091 
L 112.753301 237.62895 
L 113.54437 239.117246 
L 116.866858 243.689983 
L 117.341499 244.160434 
L 120.031132 246.832698 
L 120.34756 246.990506 
L 121.61327 247.79281 
L 121.771483 247.734703 
L 123.037193 248.448383 
L 123.35362 248.665114 
L 123.670048 248.87491 
L 123.986475 249.010263 
L 124.61933 249.315985 
L 125.093971 249.374616 
L 125.410399 249.619409 
L 126.043254 249.660634 
L 126.676108 249.976528 
L 127.15075 250.056051 
L 127.308963 250.223852 
L 127.783604 250.161063 
L 128.100032 250.28689 
L 128.416459 250.307812 
L 128.574673 250.29079 
L 129.049314 250.547402 
L 129.523955 250.599361 
L 129.840383 250.498205 
L 129.998596 250.37669 
L 130.631451 250.57121 
L 130.947879 250.777076 
L 131.264306 250.761402 
L 131.580734 250.95624 
L 133.479298 250.854442 
L 133.795726 250.96915 
L 134.428581 251.158525 
L 134.745008 251.158352 
L 134.903222 251.055842 
L 135.69429 251.15312 
L 136.801786 251.144601 
L 137.118214 251.264494 
L 137.434641 251.276596 
L 137.592855 251.289148 
L 137.909282 251.17392 
L 138.383923 250.989831 
L 138.700351 250.870383 
L 139.016778 250.754011 
L 139.333206 250.597275 
L 140.282488 250.054157 
L 141.23177 250.396141 
L 141.389984 250.471556 
L 142.49748 250.033664 
L 142.655694 250.10926 
L 142.972121 249.945516 
L 143.288549 249.978199 
L 143.446762 249.880985 
L 144.237831 250.036207 
L 145.0289 250.098786 
L 145.345327 249.987449 
L 145.661754 249.897718 
L 146.136396 249.750452 
L 146.452823 249.530799 
L 146.927464 249.68424 
L 147.243892 249.223013 
L 147.876746 249.136771 
L 148.03496 249.042453 
L 148.351388 249.086356 
L 148.826029 248.77854 
L 149.458884 248.735368 
L 150.724593 248.836132 
L 151.199234 248.94472 
L 151.357448 248.857415 
L 152.148517 249.015377 
L 152.939585 248.974065 
L 155.312791 248.514317 
L 155.629219 248.209123 
L 155.787432 248.251409 
L 156.10386 248.073642 
L 156.420287 248.126265 
L 157.844211 247.856544 
L 158.477065 247.859536 
L 158.793493 247.799159 
L 158.951707 247.787014 
L 159.268134 247.573773 
L 159.742775 247.584234 
L 160.692057 247.864962 
L 161.166699 247.888408 
L 161.799553 247.841684 
L 161.957767 247.747746 
L 162.748836 247.886553 
L 163.065263 247.875587 
L 163.856332 247.957997 
L 164.172759 247.933938 
L 164.805614 248.030092 
L 165.754896 248.149979 
L 165.91311 248.219879 
L 166.387751 248.085669 
L 167.020606 247.907735 
L 167.337033 247.806304 
L 170.817735 246.93998 
L 171.767018 246.837037 
L 172.241659 246.746936 
L 173.190941 246.711677 
L 173.507368 246.737623 
L 174.456651 246.370071 
L 175.72236 246.277057 
L 176.197002 246.006649 
L 176.355215 245.979882 
L 176.671643 246.128197 
L 176.98807 246.179153 
L 177.462711 246.002156 
L 177.779139 245.798861 
L 178.570207 245.409273 
L 178.886635 245.340966 
L 179.203062 245.380017 
L 179.835917 245.304033 
L 180.152344 245.286685 
L 180.468772 245.059425 
L 180.943413 245.106182 
L 181.259841 245.043928 
L 181.892695 244.914524 
L 182.367337 244.701767 
L 182.683764 244.708531 
L 183.158405 244.526453 
L 184.898756 244.614648 
L 185.531611 244.16642 
L 185.848038 243.914166 
L 186.639107 243.703992 
L 187.113748 243.736521 
L 187.430175 243.680047 
L 187.746603 243.652142 
L 188.06303 243.613698 
L 188.695885 243.324766 
L 189.170526 243.298237 
L 189.803381 243.241616 
L 190.59445 243.413884 
L 191.069091 243.180213 
L 191.543732 243.049666 
L 192.176587 242.722292 
L 192.651228 242.827864 
L 193.125869 242.65539 
L 193.60051 242.641286 
L 193.916938 242.731017 
L 194.391579 242.8951 
L 196.13193 242.826196 
L 196.764785 242.684727 
L 197.239426 242.513652 
L 197.555853 242.587203 
L 199.296204 242.190607 
L 199.612632 242.233827 
L 199.929059 242.183751 
L 200.245486 242.353607 
L 201.352982 242.077863 
L 201.66941 241.968842 
L 202.302265 241.91331 
L 202.618692 241.709159 
L 202.776906 241.795484 
L 203.093333 241.643879 
L 203.409761 241.69181 
L 203.726188 241.680514 
L 204.517257 241.463194 
L 204.991898 241.444941 
L 205.308325 241.486091 
L 205.466539 241.589125 
L 205.782967 241.522384 
L 205.94118 241.571901 
L 206.257608 241.440269 
L 207.365104 241.56451 
L 208.156172 241.630964 
L 208.314386 241.500952 
L 209.738309 241.615514 
L 210.371164 241.456538 
L 211.004019 241.629665 
L 211.953301 241.576067 
L 212.269729 241.426657 
L 213.060797 241.277487 
L 213.535439 241.26717 
L 214.168293 241.039111 
L 214.326507 241.20669 
L 214.801148 241.197167 
L 215.275789 241.519913 
L 216.225072 241.463313 
L 216.699713 241.447606 
L 217.174354 241.480116 
L 217.648995 241.481907 
L 217.965423 241.522349 
L 218.28185 241.400385 
L 218.598278 241.505835 
L 219.389346 241.005573 
L 219.863987 241.044395 
L 220.338628 240.867928 
L 221.604338 241.123115 
L 222.395407 241.004516 
L 222.711834 240.891523 
L 223.186475 240.856913 
L 223.502903 240.74223 
L 223.661116 240.672649 
L 223.977544 240.713502 
L 224.610399 240.59298 
L 225.08504 240.822095 
L 225.717895 240.838215 
L 226.034322 240.803249 
L 226.35075 240.761767 
L 226.667177 240.885465 
L 226.983604 240.821459 
L 227.616459 240.965218 
L 227.932887 240.857383 
L 228.0911 240.941916 
L 228.407528 240.744519 
L 229.35681 240.880547 
L 229.831451 240.7904 
L 230.306093 241.020816 
L 230.62252 240.968346 
L 231.255375 241.06543 
L 232.362871 241.148032 
L 232.679298 241.151342 
L 233.628581 241.13616 
L 233.945008 241.227055 
L 234.103222 241.196277 
L 234.419649 241.360728 
L 234.577863 241.17487 
L 234.736077 241.161668 
L 234.89429 241.272703 
L 235.210718 241.22554 
L 235.527145 241.23901 
L 235.843573 241.157107 
L 236.318214 241.184366 
L 236.951069 240.918369 
L 238.058565 241.033865 
L 238.374992 240.757126 
L 239.007847 240.736029 
L 239.324274 240.811767 
L 239.482488 240.800689 
L 239.798915 240.935677 
L 240.115343 241.012452 
L 240.589984 241.164146 
L 241.064625 241.089007 
L 241.381053 241.127409 
L 241.69748 241.109893 
L 241.855694 241.136818 
L 242.172121 241.030631 
L 242.646762 241.17317 
L 242.804976 241.178799 
L 243.121404 240.983104 
L 243.596045 240.974204 
L 244.2289 240.845296 
L 244.545327 240.870579 
L 245.019968 241.148916 
L 245.336396 241.062936 
L 245.96925 241.228949 
L 246.918533 241.056153 
L 247.393174 241.13599 
L 248.658884 240.961958 
L 248.975311 240.872437 
L 249.291738 240.981571 
L 250.082807 240.965244 
L 250.399234 241.026588 
L 250.715662 241.021224 
L 251.664944 241.156032 
L 252.456013 241.31232 
L 253.405295 241.353756 
L 253.721722 241.35333 
L 253.879936 241.406167 
L 254.354577 241.175302 
L 254.987432 241.230645 
L 255.462073 241.178204 
L 255.778501 241.272581 
L 256.253142 241.195839 
L 256.569569 241.117512 
L 256.885997 241.05625 
L 257.360638 240.939163 
L 257.677065 240.921557 
L 257.993493 240.876522 
L 258.784561 241.088373 
L 259.57563 241.132919 
L 260.999553 241.240108 
L 261.948836 241.095057 
L 263.056332 240.951607 
L 263.372759 240.993789 
L 263.689187 241.120121 
L 264.005614 238.901031 
L 264.638469 235.5356 
L 265.271324 233.298846 
L 266.37882 230.303746 
L 267.169888 228.38207 
L 268.435598 225.314167 
L 269.068453 224.000415 
L 269.859522 222.615151 
L 270.492376 221.51651 
L 274.764147 215.000885 
L 275.080574 214.661598 
L 275.713429 213.813535 
L 276.346284 213.185849 
L 277.137352 212.269323 
L 280.143413 208.150944 
L 280.459841 207.642206 
L 282.99126 203.956 
L 283.465901 203.125167 
L 287.104817 196.208735 
L 288.370526 193.093871 
L 288.845167 191.528371 
L 289.003381 191.590925 
L 289.161595 190.703317 
L 289.319809 190.533809 
L 289.636236 188.956342 
L 289.79445 189.476098 
L 289.952663 187.407896 
L 290.110877 187.979572 
L 290.269091 186.345485 
L 290.585518 186.277891 
L 290.743732 183.021086 
L 290.901946 186.047233 
L 291.060159 178.524444 
L 291.218373 186.334174 
L 291.376587 157.370762 
L 291.534801 80.086034 
L 291.693014 93.551268 
L 292.009442 163.487066 
L 292.167656 179.432689 
L 292.642297 189.482414 
L 292.80051 189.297329 
L 292.958724 190.943865 
L 293.116938 189.760077 
L 293.275152 190.663919 
L 293.591579 189.89158 
L 293.749793 189.943988 
L 293.908006 189.06904 
L 294.06622 189.216112 
L 294.382648 188.064141 
L 294.540861 187.671854 
L 294.857289 186.207365 
L 295.173716 184.530601 
L 295.33193 184.165756 
L 295.490144 182.651707 
L 295.648357 182.603272 
L 295.964785 180.238431 
L 296.122998 179.498918 
L 296.281212 177.523531 
L 296.439426 178.218765 
L 296.59764 174.374396 
L 296.755853 175.712544 
L 296.914067 171.318199 
L 297.072281 171.533185 
L 297.230494 164.548814 
L 297.546922 71.97515 
L 297.863349 146.492708 
L 298.179777 174.194844 
L 298.496204 181.287437 
L 298.654418 181.158438 
L 298.812632 182.961795 
L 298.970845 182.846147 
L 299.287273 183.930735 
L 299.445486 183.69315 
L 299.6037 184.47305 
L 299.761914 184.291639 
L 299.920128 184.588667 
L 300.236555 184.288815 
L 300.394769 184.402894 
L 300.552982 183.910422 
L 300.711196 183.863508 
L 300.86941 183.562132 
L 301.344051 182.134343 
L 302.451547 178.311483 
L 303.717257 171.402652 
L 303.87547 171.850589 
L 304.033684 168.684718 
L 304.191898 170.165172 
L 304.350112 165.21376 
L 304.508325 166.31443 
L 304.666539 153.9863 
L 304.824753 89.029818 
L 304.982967 70.405403 
L 305.299394 142.245436 
L 305.615821 171.647359 
L 305.932249 180.423692 
L 306.090463 181.132434 
L 306.248676 183.140294 
L 306.40689 183.15601 
L 306.723317 184.642858 
L 306.881531 184.833507 
L 307.039745 185.556142 
L 307.197959 185.620396 
L 307.356172 186.175788 
L 307.6726 186.463623 
L 307.830813 186.638141 
L 307.989027 186.573665 
L 308.147241 186.640364 
L 309.412951 185.050638 
L 309.729378 184.153715 
L 310.045805 183.475036 
L 310.67866 182.567172 
L 310.836874 182.373064 
L 311.627943 180.171306 
L 312.893652 176.580183 
L 313.051866 175.759088 
L 313.21008 175.717635 
L 313.368293 174.568601 
L 313.526507 174.389806 
L 314.159362 170.287112 
L 314.317576 171.1695 
L 314.475789 168.147825 
L 314.634003 168.829413 
L 314.950431 164.008001 
L 315.108644 162.088858 
L 315.425072 65.135892 
L 315.899713 159.157683 
L 316.21614 176.632468 
L 316.374354 181.658113 
L 316.532568 182.434359 
L 316.848995 185.020606 
L 317.48185 188.27423 
L 317.640064 188.624898 
L 317.956491 189.740201 
L 318.114705 189.916281 
L 318.272919 190.389392 
L 318.431132 190.361586 
L 318.74756 190.734275 
L 319.063987 190.814211 
L 319.380415 190.577478 
L 319.696842 190.499435 
L 320.01327 190.379153 
L 320.646124 190.146581 
L 320.804338 190.160327 
L 321.437193 189.558376 
L 322.544689 188.249118 
L 322.861116 188.047089 
L 323.177544 188.109783 
L 323.493971 187.927082 
L 323.968612 187.840731 
L 324.601467 187.392451 
L 325.867177 186.392167 
L 326.183604 186.058076 
L 326.500032 185.644989 
L 327.2911 185.037737 
L 327.607528 184.515683 
L 328.398596 183.654844 
L 330.455375 179.946033 
L 331.08823 178.940232 
L 332.195726 177.028286 
L 333.303222 174.686393 
L 333.461435 173.596523 
L 333.619649 173.910165 
L 333.777863 172.42076 
L 333.936077 172.107874 
L 334.252504 170.363593 
L 334.410718 171.36959 
L 334.568931 168.573316 
L 334.727145 170.988707 
L 334.885359 166.416303 
L 335.043573 169.06232 
L 335.201786 156.327219 
L 335.36 87.573568 
L 335.518214 71.520785 
L 335.834641 147.340771 
L 336.151069 175.962604 
L 336.467496 184.408887 
L 336.62571 184.887315 
L 336.783923 186.782931 
L 336.942137 186.711283 
L 337.258565 188.423358 
L 337.416778 188.840766 
L 337.574992 189.804679 
L 337.733206 189.866714 
L 337.891419 190.538398 
L 338.049633 190.722426 
L 338.524274 191.700285 
L 338.840702 192.157751 
L 339.315343 192.65143 
L 339.789984 193.049285 
L 340.422839 193.253419 
L 340.739266 193.325623 
L 341.213907 193.58529 
L 342.004976 193.716557 
L 342.321404 193.539546 
L 342.954258 193.646953 
L 343.270686 193.837511 
L 344.061754 193.857735 
L 344.536396 193.965963 
L 345.011037 193.957694 
L 345.327464 194.212267 
L 345.643892 194.27835 
L 346.276746 194.453205 
L 346.751388 194.634419 
L 347.384242 195.017028 
L 347.70067 195.005915 
L 348.333525 194.845049 
L 348.96638 194.811832 
L 349.757448 194.824475 
L 350.073876 194.791034 
L 351.339585 194.690543 
L 351.497799 194.733664 
L 351.97244 194.517838 
L 352.605295 194.794938 
L 353.079936 195.011478 
L 354.187432 195.36012 
L 354.50386 195.278473 
L 355.136715 195.202069 
L 355.453142 195.129386 
L 355.769569 195.233697 
L 356.085997 195.165426 
L 356.402424 195.244298 
L 356.718852 195.196846 
L 357.035279 195.164842 
L 357.351707 195.000974 
L 358.459203 195.087194 
L 358.77563 194.978625 
L 359.092057 194.994185 
L 360.832408 195.498885 
L 361.148836 195.679979 
L 361.307049 195.667415 
L 361.623477 195.75354 
L 361.781691 195.648255 
L 363.0474 195.943012 
L 363.363828 195.977086 
L 363.680255 196.093952 
L 364.471324 196.125186 
L 366.053461 196.473336 
L 366.686316 196.908354 
L 367.477384 197.183607 
L 367.793812 197.215192 
L 368.426667 197.653665 
L 368.743094 197.657321 
L 369.059522 197.928123 
L 369.692376 197.886024 
L 370.008804 198.220464 
L 370.325231 198.240287 
L 370.641659 198.392034 
L 371.1163 198.48053 
L 371.274514 198.483407 
L 371.907368 198.905018 
L 372.540223 199.031562 
L 373.173078 199.359437 
L 374.597002 200.110505 
L 375.229856 200.197004 
L 375.704498 200.363337 
L 376.337352 200.476515 
L 376.495566 200.391248 
L 376.970207 200.540331 
L 377.286635 200.485436 
L 378.077703 200.666015 
L 379.343413 200.835895 
L 379.501627 200.956719 
L 379.818054 200.914056 
L 380.292695 201.224562 
L 380.450909 201.413104 
L 380.767337 201.337545 
L 381.083764 201.287177 
L 382.19126 201.723084 
L 382.665901 202.079458 
L 383.140542 202.165883 
L 383.773397 202.514149 
L 384.248038 202.64459 
L 384.406252 202.586664 
L 384.722679 202.703963 
L 385.197321 202.716534 
L 385.513748 202.850596 
L 385.830175 203.150185 
L 386.146603 203.236765 
L 386.779458 203.550187 
L 387.570526 203.779726 
L 387.886954 203.970481 
L 388.519809 204.273912 
L 388.836236 204.318 
L 388.99445 204.407817 
L 389.310877 204.371311 
L 389.785518 204.566826 
L 390.418373 204.677737 
L 391.842297 205.038058 
L 392.158724 205.061098 
L 392.475152 205.024421 
L 393.26622 205.049697 
L 393.899075 204.464846 
L 394.057289 204.465001 
L 394.53193 204.777989 
L 395.322998 204.946856 
L 396.272281 205.371404 
L 396.588708 205.343349 
L 396.905136 205.476225 
L 397.379777 205.788983 
L 397.696204 205.68959 
L 398.012632 205.90776 
L 398.487273 206.289998 
L 398.487273 206.289998 
" style="fill:none;stroke:#000000;stroke-linecap:square;stroke-width:1.5;"/>
   </g>
   <g id="line2d_17">
    <path clip-path="url(#p9e569f017d)" d="M 73.832727 209.027521 
L 73.990941 209.062442 
L 74.307368 208.906143 
L 74.78201 209.016136 
L 75.098437 208.99913 
L 76.047719 208.765079 
L 76.364147 208.716361 
L 76.680574 208.794289 
L 76.997002 208.671945 
L 78.895566 208.877684 
L 79.528421 208.842563 
L 79.844848 208.939922 
L 80.794131 208.811959 
L 82.534482 208.961296 
L 82.850909 208.84037 
L 83.32555 208.965933 
L 83.641978 209.096255 
L 84.116619 209.042414 
L 84.907687 209.139063 
L 85.224115 209.285071 
L 85.540542 209.315519 
L 85.85697 209.339042 
L 86.331611 209.749646 
L 86.964466 209.671549 
L 87.280893 209.751293 
L 87.597321 209.793156 
L 88.546603 210.235211 
L 89.179458 210.399789 
L 91.39445 210.770172 
L 91.869091 210.64433 
L 92.343732 210.692323 
L 92.660159 210.637351 
L 92.976587 210.799819 
L 93.293014 210.948367 
L 94.558724 210.862294 
L 95.033365 211.029101 
L 95.508006 211.059088 
L 96.140861 211.496788 
L 96.773716 211.474101 
L 97.248357 211.368591 
L 97.564785 211.377857 
L 97.881212 211.47046 
L 98.19764 211.436172 
L 98.514067 211.432658 
L 98.988708 211.348617 
L 99.93799 211.411305 
L 100.254418 211.282471 
L 100.412632 211.350303 
L 100.729059 211.220894 
L 101.045486 211.328368 
L 101.678341 211.079593 
L 102.152982 211.06873 
L 102.46941 210.951461 
L 103.102265 210.920308 
L 103.576906 211.032867 
L 103.73512 211.136687 
L 104.367974 211.045105 
L 104.842616 211.15086 
L 105.159043 211.169145 
L 105.47547 211.148031 
L 105.633684 210.314211 
L 105.950112 207.865219 
L 106.74118 204.825954 
L 108.165104 200.627272 
L 109.2726 197.909263 
L 109.589027 197.390771 
L 115.601148 184.682033 
L 115.917576 184.104945 
L 116.708644 182.257443 
L 117.025072 181.766638 
L 117.183285 181.175387 
L 117.341499 181.072284 
L 117.499713 180.286362 
L 117.657927 180.248536 
L 117.974354 179.303387 
L 118.132568 179.161208 
L 118.290781 177.936514 
L 118.448995 178.504104 
L 118.607209 176.987662 
L 118.765423 177.231697 
L 119.08185 175.310733 
L 119.240064 176.110418 
L 119.398278 172.470191 
L 119.556491 175.653714 
L 119.714705 169.682381 
L 119.872919 174.444971 
L 120.031132 160.791051 
L 120.189346 89.120436 
L 120.34756 85.941872 
L 120.663987 158.996699 
L 120.980415 180.694267 
L 121.296842 187.452926 
L 121.455056 187.22779 
L 121.61327 189.380072 
L 121.771483 188.933313 
L 121.929697 190.08065 
L 122.087911 190.251665 
L 122.246124 190.22367 
L 122.404338 190.930642 
L 122.562552 190.526738 
L 122.720766 190.935559 
L 122.878979 190.626513 
L 123.037193 190.677294 
L 123.195407 190.608643 
L 123.35362 190.177926 
L 123.511834 190.162303 
L 124.144689 189.184399 
L 125.252185 187.761044 
L 126.201467 186.296388 
L 127.15075 184.276095 
L 127.467177 183.794436 
L 130.789665 178.135514 
L 131.106093 177.737177 
L 131.580734 176.887402 
L 131.738947 176.826329 
L 132.530016 175.778052 
L 132.68823 175.287271 
L 132.846443 175.25647 
L 133.479298 173.376495 
L 133.637512 173.446144 
L 133.795726 172.145988 
L 133.953939 172.321735 
L 134.270367 170.808614 
L 134.428581 170.870227 
L 134.586794 169.190888 
L 134.745008 170.758037 
L 134.903222 167.366035 
L 135.061435 168.982343 
L 135.219649 165.894581 
L 135.536077 164.537176 
L 135.852504 73.33348 
L 136.168931 149.838945 
L 136.485359 175.946937 
L 136.643573 178.455629 
L 136.801786 183.332223 
L 136.96 183.77721 
L 137.118214 186.136048 
L 137.434641 187.489818 
L 137.592855 188.573566 
L 137.751069 188.507384 
L 137.909282 189.476407 
L 138.067496 189.205213 
L 138.22571 189.561738 
L 138.383923 189.640805 
L 138.542137 189.530584 
L 138.700351 189.687265 
L 138.858565 189.434605 
L 139.016778 189.56223 
L 139.333206 189.258419 
L 139.491419 189.244497 
L 141.389984 186.671113 
L 142.49748 185.342699 
L 142.972121 184.39309 
L 143.130335 184.300409 
L 146.294609 179.249453 
L 146.76925 178.764906 
L 147.243892 178.022849 
L 147.560319 177.620336 
L 148.193174 176.604686 
L 148.509601 176.290141 
L 148.826029 175.865972 
L 150.408166 173.010035 
L 150.56638 172.157734 
L 150.724593 172.161458 
L 150.882807 171.152412 
L 151.041021 171.248944 
L 151.199234 170.921022 
L 151.357448 169.786563 
L 151.515662 170.363374 
L 151.673876 168.530945 
L 151.832089 169.926188 
L 151.990303 167.522192 
L 152.148517 167.483894 
L 152.30673 166.327031 
L 152.464944 162.275902 
L 152.623158 166.397538 
L 152.939585 68.773715 
L 153.414226 160.749998 
L 153.57244 173.664619 
L 154.205295 184.58772 
L 154.679936 187.228332 
L 154.83815 187.103034 
L 154.996364 188.145959 
L 155.154577 188.17164 
L 155.787432 189.047961 
L 155.945646 188.916177 
L 156.262073 188.95284 
L 156.894928 188.582951 
L 157.211356 188.175788 
L 157.527783 187.917044 
L 158.002424 187.579415 
L 159.742775 185.478262 
L 160.059203 185.135008 
L 160.533844 184.481417 
L 161.957767 183.170256 
L 162.274195 182.8103 
L 162.748836 182.111593 
L 163.698118 180.947594 
L 164.330973 180.217578 
L 164.805614 179.585301 
L 165.438469 178.601473 
L 166.545965 176.770442 
L 167.811675 175.145522 
L 168.44453 173.561926 
L 168.602743 173.339011 
L 168.919171 172.526434 
L 170.18488 169.065956 
L 170.343094 167.785003 
L 170.501308 168.428007 
L 170.659522 166.528074 
L 170.817735 167.40459 
L 171.134163 164.958627 
L 171.292376 165.702098 
L 171.45059 160.573654 
L 171.608804 166.519665 
L 171.925231 69.524714 
L 172.558086 170.968249 
L 173.032727 181.609892 
L 173.349155 184.532111 
L 173.507368 184.539008 
L 173.665582 186.140753 
L 173.823796 186.215351 
L 174.140223 187.392761 
L 174.298437 187.635375 
L 174.456651 188.149115 
L 174.614864 188.064864 
L 174.773078 188.561297 
L 175.405933 188.748917 
L 175.880574 188.589236 
L 176.197002 188.168207 
L 177.304498 187.221705 
L 177.779139 187.050644 
L 178.728421 186.209355 
L 179.361276 185.567167 
L 179.51949 185.494883 
L 179.994131 184.946309 
L 181.734482 183.472769 
L 182.209123 182.865131 
L 182.52555 182.663916 
L 182.841978 182.754399 
L 183.158405 182.412755 
L 183.949474 181.901367 
L 185.05697 180.345858 
L 185.531611 180.209636 
L 186.164466 179.617961 
L 189.170526 176.585137 
L 189.486954 176.082942 
L 190.119809 175.478165 
L 190.436236 175.081203 
L 190.752663 174.923181 
L 191.069091 174.640899 
L 191.385518 174.143068 
L 191.860159 173.573829 
L 192.334801 172.777359 
L 192.967656 172.097721 
L 193.284083 171.951984 
L 195.182648 169.365752 
L 195.499075 168.614527 
L 195.815502 168.076219 
L 195.973716 168.077781 
L 196.13193 167.346565 
L 196.290144 167.407929 
L 196.448357 166.605145 
L 196.606571 166.593437 
L 196.764785 166.205321 
L 196.922998 165.384211 
L 197.081212 165.837821 
L 197.239426 163.796392 
L 197.39764 165.019907 
L 197.555853 162.817637 
L 197.714067 162.876009 
L 197.872281 162.309807 
L 198.030494 158.519611 
L 198.188708 161.652207 
L 198.505136 67.72459 
L 198.979777 157.668604 
L 199.13799 170.727371 
L 199.770845 182.535956 
L 200.245486 186.105601 
L 200.4037 186.271014 
L 200.561914 187.306519 
L 200.878341 187.874944 
L 201.194769 188.573975 
L 201.352982 188.973435 
L 201.511196 188.823386 
L 201.66941 188.971853 
L 202.618692 188.365926 
L 203.884402 187.386871 
L 204.359043 187.060175 
L 204.67547 186.804313 
L 204.991898 186.548397 
L 205.624753 185.92268 
L 206.257608 185.275685 
L 206.732249 184.885057 
L 207.839745 183.762054 
L 208.314386 183.460616 
L 209.105455 182.842072 
L 209.896523 182.217682 
L 211.004019 181.548349 
L 211.320447 181.498633 
L 211.795088 181.188392 
L 212.269729 180.713972 
L 212.74437 180.397739 
L 213.693652 179.551846 
L 214.326507 179.037394 
L 214.642935 178.82019 
L 215.750431 178.064924 
L 216.225072 177.364552 
L 217.648995 175.712313 
L 217.965423 175.086329 
L 218.28185 174.700847 
L 218.598278 174.112951 
L 219.072919 173.772916 
L 219.54756 173.121991 
L 219.705774 173.103516 
L 220.022201 172.75013 
L 220.180415 172.701904 
L 220.496842 172.416661 
L 221.129697 171.921672 
L 221.762552 171.304506 
L 222.870048 169.973406 
L 223.028262 169.964896 
L 223.81933 169.026294 
L 223.977544 168.343096 
L 224.135758 168.352741 
L 224.452185 166.912993 
L 224.768612 165.3236 
L 224.926826 165.948771 
L 225.08504 164.276151 
L 225.243254 165.213715 
L 225.401467 163.000776 
L 225.559681 162.971905 
L 225.717895 161.91345 
L 225.876108 158.481842 
L 226.034322 161.411873 
L 226.35075 66.869422 
L 226.825391 155.804642 
L 227.141818 173.622154 
L 227.300032 178.842708 
L 228.0911 185.523415 
L 228.249314 185.706509 
L 228.407528 186.822911 
L 228.723955 187.485355 
L 228.882169 187.967311 
L 229.040383 187.954319 
L 229.198596 188.319665 
L 229.35681 188.337396 
L 229.673238 188.61906 
L 230.938947 188.768253 
L 231.413589 188.585513 
L 231.730016 188.298224 
L 231.88823 188.257045 
L 232.679298 187.454101 
L 233.945008 186.697619 
L 234.261435 186.414268 
L 236.476427 184.185687 
L 236.792855 184.093094 
L 237.900351 183.217547 
L 238.216778 183.236693 
L 239.640702 182.021931 
L 240.273557 181.663811 
L 240.589984 181.38668 
L 240.748198 181.373386 
L 242.96319 179.674137 
L 243.596045 179.370852 
L 243.912472 179.366541 
L 244.2289 179.254689 
L 244.545327 179.126871 
L 244.861754 178.771444 
L 245.336396 178.714461 
L 246.285678 178.361661 
L 248.184242 176.926843 
L 248.50067 176.849757 
L 249.924593 176.193716 
L 250.241021 176.086461 
L 250.399234 176.038168 
L 250.715662 176.296947 
L 252.297799 175.424547 
L 253.088868 175.153671 
L 253.721722 174.675996 
L 254.354577 174.871847 
L 254.512791 174.787993 
L 255.30386 173.705144 
L 256.094928 172.987714 
L 256.569569 172.406793 
L 256.727783 172.333922 
L 257.044211 171.924947 
L 257.360638 171.801712 
L 257.677065 171.74353 
L 258.151707 171.392775 
L 258.468134 171.309185 
L 258.942775 170.870674 
L 259.417416 170.939002 
L 259.733844 170.730917 
L 260.050271 170.412563 
L 260.208485 170.344431 
L 260.366699 170.131056 
L 260.683126 169.461803 
L 260.84134 169.465374 
L 260.999553 169.301236 
L 261.315981 169.235734 
L 261.632408 168.924679 
L 262.423477 168.008479 
L 263.372759 166.058677 
L 263.689187 165.173109 
L 263.8474 165.644803 
L 264.322041 168.184998 
L 265.429537 172.300124 
L 268.752026 183.968359 
L 269.701308 186.401478 
L 270.492376 188.643999 
L 271.283445 190.574465 
L 273.023796 194.693729 
L 273.340223 195.31462 
L 273.973078 196.606873 
L 275.871643 199.821979 
L 276.662711 200.799532 
L 276.979139 201.120352 
L 277.770207 202.159106 
L 278.086635 202.505363 
L 278.71949 203.532102 
L 280.301627 205.276699 
L 280.776268 205.907128 
L 281.250909 206.271829 
L 281.72555 206.690485 
L 282.200191 207.107494 
L 283.307687 207.941309 
L 283.940542 208.236621 
L 284.573397 208.712911 
L 285.048038 208.880305 
L 286.946603 209.858523 
L 287.421244 209.804953 
L 289.161595 210.605647 
L 290.110877 210.885243 
L 290.743732 211.04998 
L 291.534801 211.564749 
L 291.851228 211.655517 
L 294.224434 212.198939 
L 294.699075 212.418958 
L 295.015502 212.315672 
L 296.122998 212.519234 
L 296.59764 212.601077 
L 297.072281 212.728821 
L 297.705136 212.947153 
L 298.021563 212.876539 
L 298.33799 212.819846 
L 298.812632 213.05788 
L 299.287273 213.271298 
L 300.394769 213.212894 
L 300.711196 213.190024 
L 301.027624 213.202466 
L 301.818692 213.174888 
L 302.451547 213.196461 
L 303.084402 212.952693 
L 303.400829 212.967048 
L 303.717257 212.627955 
L 304.350112 212.565697 
L 304.982967 212.457281 
L 305.457608 212.522713 
L 307.6726 212.945552 
L 308.621882 212.878921 
L 308.938309 212.705189 
L 309.887592 212.956508 
L 310.836874 212.708761 
L 311.469729 212.706801 
L 312.102584 212.675838 
L 312.577225 212.743732 
L 312.735439 212.675279 
L 313.051866 212.850105 
L 313.684721 212.74381 
L 314.475789 212.581472 
L 315.741499 212.596644 
L 316.057927 212.510555 
L 316.690781 212.643637 
L 317.007209 212.688396 
L 317.323636 212.778073 
L 317.798278 212.855622 
L 318.431132 212.81503 
L 318.905774 212.660841 
L 319.222201 212.633805 
L 320.01327 212.727739 
L 320.646124 212.666761 
L 321.278979 212.510116 
L 321.75362 212.127972 
L 322.386475 212.059968 
L 322.702903 212.092013 
L 323.01933 212.156178 
L 323.335758 212.236778 
L 323.652185 212.452502 
L 324.28504 212.396414 
L 324.601467 212.472409 
L 325.076108 212.336469 
L 325.55075 212.355664 
L 326.183604 212.555275 
L 326.658246 212.312024 
L 330.297161 213.00165 
L 330.613589 213.14504 
L 330.930016 213.110859 
L 331.246443 212.98311 
L 331.562871 213.058915 
L 331.879298 212.996301 
L 333.145008 213.347589 
L 333.619649 213.230594 
L 334.252504 213.34194 
L 334.568931 213.240924 
L 334.885359 213.189601 
L 335.676427 213.036491 
L 336.151069 212.983029 
L 336.62571 212.876035 
L 336.942137 212.77899 
L 337.891419 212.497448 
L 338.207847 212.602137 
L 338.524274 212.741941 
L 339.948198 212.18002 
L 340.89748 212.192856 
L 342.004976 212.080996 
L 342.637831 211.951169 
L 343.745327 211.926638 
L 344.061754 211.795041 
L 344.536396 211.557508 
L 345.16925 211.45462 
L 346.118533 211.244081 
L 346.43496 211.309701 
L 348.017097 210.88384 
L 348.333525 210.703426 
L 350.864944 210.368247 
L 351.339585 210.193427 
L 351.97244 210.406888 
L 352.605295 210.524288 
L 354.345646 211.210523 
L 354.662073 211.171022 
L 359.250271 211.217808 
L 359.566699 211.410999 
L 360.674195 211.423028 
L 360.990622 211.215187 
L 361.465263 211.430087 
L 361.781691 211.254533 
L 362.730973 211.555633 
L 363.838469 211.768766 
L 364.31311 211.43968 
L 364.471324 211.387549 
L 364.787751 211.513034 
L 365.420606 211.426694 
L 366.528102 211.640127 
L 366.84453 211.720129 
L 367.319171 211.875438 
L 367.635598 212.03347 
L 367.952026 212.037654 
L 369.217735 211.812883 
L 370.008804 211.919134 
L 370.641659 211.854079 
L 370.958086 211.836482 
L 371.432727 211.812122 
L 371.590941 211.854988 
L 371.907368 211.747566 
L 372.698437 212.154135 
L 373.014864 212.212263 
L 373.331292 212.402487 
L 374.12236 212.565682 
L 374.438788 212.472991 
L 375.229856 212.744847 
L 375.546284 212.783597 
L 376.020925 212.729648 
L 376.495566 212.737765 
L 377.128421 212.385051 
L 377.91949 212.645206 
L 378.077703 212.665836 
L 378.394131 212.539275 
L 379.185199 212.596919 
L 379.976268 212.369615 
L 380.450909 212.395985 
L 380.767337 212.517578 
L 381.400191 212.318537 
L 382.19126 212.363781 
L 382.665901 212.200062 
L 382.982329 212.090261 
L 383.298756 212.259894 
L 383.615183 212.094891 
L 384.722679 212.080202 
L 385.039107 212.06908 
L 385.355534 212.090471 
L 385.671962 212.083562 
L 386.46303 212.119965 
L 388.203381 211.720298 
L 388.519809 211.955426 
L 388.99445 212.022893 
L 389.310877 211.994528 
L 390.260159 211.94671 
L 390.418373 212.064174 
L 391.051228 211.803334 
L 391.367656 211.700591 
L 391.684083 211.587004 
L 394.373716 211.690278 
L 394.848357 211.79137 
L 395.322998 211.748246 
L 395.955853 211.998386 
L 396.272281 211.88039 
L 396.588708 211.878654 
L 397.221563 211.601487 
L 397.696204 211.603084 
L 398.487273 211.421093 
L 398.487273 211.421093 
" style="fill:none;stroke:#000000;stroke-linecap:square;stroke-width:1.5;"/>
   </g>
   <g id="line2d_18">
    <path clip-path="url(#p9e569f017d)" d="M 73.832727 196.500919 
L 73.990941 196.482673 
L 74.465582 196.190116 
L 74.940223 195.99697 
L 75.256651 195.979436 
L 75.889506 195.752239 
L 76.52236 195.674069 
L 76.838788 195.47744 
L 77.155215 195.307123 
L 77.629856 194.776349 
L 78.104498 194.966919 
L 78.262711 194.853409 
L 78.579139 194.996446 
L 78.895566 195.254642 
L 79.05378 195.210688 
L 79.370207 195.367393 
L 79.844848 195.113192 
L 80.31949 194.999995 
L 80.635917 194.994246 
L 81.110558 194.848533 
L 81.585199 195.003118 
L 82.059841 194.878043 
L 82.376268 194.75446 
L 82.534482 194.749415 
L 83.009123 194.399767 
L 83.483764 194.430763 
L 83.641978 194.466848 
L 84.274833 194.181108 
L 84.59126 194.20226 
L 85.065901 194.038091 
L 85.382329 194.082518 
L 86.489825 194.402921 
L 86.806252 194.621687 
L 87.280893 194.638508 
L 87.755534 194.792254 
L 88.230175 194.952229 
L 88.546603 195.107155 
L 88.704817 195.084638 
L 89.179458 194.759793 
L 89.970526 194.477977 
L 90.445167 194.604071 
L 90.761595 194.452766 
L 91.869091 194.536426 
L 92.185518 194.721103 
L 92.660159 194.473704 
L 93.925869 194.964114 
L 94.242297 194.82148 
L 94.558724 194.66222 
L 94.875152 194.918175 
L 95.349793 194.762405 
L 95.824434 194.873231 
L 96.140861 194.94599 
L 96.457289 195.084358 
L 96.93193 194.957247 
L 97.248357 195.052603 
L 97.564785 195.03779 
L 98.039426 195.010287 
L 98.355853 195.187969 
L 98.672281 195.058257 
L 98.988708 194.990755 
L 99.463349 195.100872 
L 99.779777 195.022696 
L 100.254418 194.654786 
L 100.412632 194.614255 
L 100.729059 194.804486 
L 101.2037 194.680149 
L 101.994769 195.018762 
L 102.944051 195.107233 
L 103.102265 194.999941 
L 103.893333 195.286253 
L 104.051547 195.122889 
L 104.209761 195.164561 
L 104.367974 195.42248 
L 104.526188 195.052208 
L 104.684402 195.561523 
L 104.842616 195.047489 
L 105.000829 195.466422 
L 105.159043 195.523085 
L 105.317257 195.099877 
L 105.47547 196.206059 
L 106.424753 167.118074 
L 106.582967 167.092544 
L 106.74118 158.087872 
L 106.899394 162.342234 
L 107.057608 136.729181 
L 107.215821 69.69095 
L 107.374035 82.730376 
L 107.690463 144.544903 
L 107.848676 158.291715 
L 108.323317 164.752505 
L 108.481531 163.534872 
L 108.639745 164.474474 
L 108.797959 162.268282 
L 108.956172 162.524805 
L 109.2726 159.440626 
L 109.430813 158.761695 
L 109.589027 156.357981 
L 109.747241 156.15613 
L 109.905455 153.158325 
L 110.063668 152.443955 
L 110.380096 147.959528 
L 110.538309 147.226407 
L 110.696523 141.93706 
L 110.854737 144.296259 
L 111.171164 58.459532 
L 111.329378 78.493203 
L 111.645805 133.140349 
L 111.962233 151.989344 
L 112.27866 157.536486 
L 112.436874 158.286084 
L 112.595088 158.361147 
L 112.753301 157.478285 
L 112.911515 157.33834 
L 114.651866 144.114272 
L 114.81008 141.005719 
L 114.968293 140.260684 
L 115.442935 126.399679 
L 115.759362 54.238145 
L 116.234003 129.5518 
L 116.550431 147.15204 
L 116.866858 153.202303 
L 117.025072 154.78846 
L 117.341499 155.492387 
L 117.499713 155.364132 
L 118.290781 151.745936 
L 119.08185 145.83838 
L 119.872919 137.956917 
L 120.031132 133.722863 
L 120.189346 132.952335 
L 120.34756 113.913199 
L 120.505774 66.887265 
L 120.663987 57.155596 
L 121.138628 129.652375 
L 121.455056 146.547888 
L 121.771483 153.071853 
L 121.929697 155.071999 
L 122.087911 155.414759 
L 122.246124 156.03833 
L 122.404338 155.900037 
L 122.720766 155.202228 
L 123.195407 152.971284 
L 123.828262 149.178 
L 124.461116 144.326116 
L 125.093971 137.987453 
L 125.252185 136.594395 
L 125.568612 131.402948 
L 125.88504 59.138854 
L 126.043254 62.416361 
L 126.517895 130.378389 
L 126.834322 146.478217 
L 127.15075 152.459589 
L 127.308963 153.963304 
L 127.625391 154.885669 
L 128.100032 154.055542 
L 128.574673 152.072645 
L 129.682169 145.143086 
L 130.15681 141.505434 
L 131.106093 130.3457 
L 131.264306 123.866843 
L 131.580734 54.048392 
L 131.738947 67.189361 
L 132.213589 132.593008 
L 132.530016 147.242518 
L 132.846443 152.087117 
L 133.162871 153.937609 
L 133.321085 154.441195 
L 133.479298 154.322829 
L 133.637512 154.35111 
L 133.953939 153.595354 
L 134.270367 152.160997 
L 134.586794 150.527011 
L 135.536077 143.966092 
L 136.010718 139.400198 
L 136.485359 134.236416 
L 136.801786 130.788301 
L 137.118214 122.810449 
L 137.434641 54.439395 
L 137.592855 63.771029 
L 138.067496 131.220474 
L 138.383923 145.959707 
L 138.700351 151.128957 
L 139.016778 152.873691 
L 139.174992 153.487887 
L 139.649633 153.24507 
L 139.966061 152.401346 
L 140.757129 148.902065 
L 141.389984 145.150422 
L 142.49748 136.550877 
L 143.130335 126.271832 
L 143.288549 103.157084 
L 143.446762 61.709544 
L 143.604976 57.081306 
L 144.079617 124.866152 
L 144.396045 142.35616 
L 144.712472 149.172812 
L 145.0289 151.824449 
L 145.187113 152.788665 
L 145.503541 152.853966 
L 145.661754 152.613448 
L 146.294609 150.199479 
L 147.718533 141.099193 
L 148.509601 135.296037 
L 148.984242 129.519395 
L 149.142456 126.097468 
L 149.30067 119.857246 
L 149.617097 54.890899 
L 149.775311 62.490715 
L 150.249952 127.621421 
L 150.56638 144.291148 
L 150.882807 150.715986 
L 151.199234 152.976141 
L 151.357448 153.626162 
L 151.673876 153.70945 
L 152.148517 152.535472 
L 152.939585 148.719717 
L 154.521722 136.242763 
L 154.996364 128.61566 
L 155.154577 126.274416 
L 155.312791 104.063528 
L 155.471005 63.374063 
L 155.629219 55.127402 
L 156.262073 134.918066 
L 156.578501 147.242052 
L 156.894928 151.921121 
L 157.211356 153.826138 
L 157.527783 154.159838 
L 157.685997 154.09956 
L 158.002424 153.241042 
L 158.635279 149.995026 
L 159.742775 143.469991 
L 160.533844 137.918674 
L 161.324912 129.368464 
L 161.483126 126.087092 
L 161.64134 119.704633 
L 161.957767 55.662009 
L 162.115981 62.356333 
L 162.590622 128.050999 
L 162.907049 145.377034 
L 163.223477 151.816485 
L 163.539904 154.348128 
L 163.698118 154.989496 
L 164.014545 155.070048 
L 164.330973 154.258667 
L 164.805614 151.904199 
L 165.754896 145.889169 
L 167.020606 136.689763 
L 167.337033 134.162874 
L 167.969888 124.493726 
L 168.128102 105.400784 
L 168.286316 65.66554 
L 168.44453 55.009832 
L 169.077384 133.240126 
L 169.393812 146.396319 
L 169.710239 151.379429 
L 170.18488 153.565638 
L 170.501308 153.85523 
L 171.925231 148.035283 
L 172.399872 145.537094 
L 173.98201 134.457383 
L 174.614864 124.517173 
L 174.773078 109.999991 
L 175.089506 53.568 
L 176.038788 142.969968 
L 176.355215 148.312628 
L 176.829856 151.575181 
L 177.146284 152.162074 
L 177.462711 151.760267 
L 178.25378 149.59329 
L 179.044848 145.813664 
L 180.785199 134.093872 
L 181.259841 128.703551 
L 181.576268 122.748195 
L 181.734482 111.337996 
L 182.050909 54.193488 
L 182.209123 66.411953 
L 182.683764 125.797777 
L 183.000191 141.06894 
L 183.316619 148.35075 
L 183.633046 151.058339 
L 183.79126 151.598178 
L 184.265901 151.916062 
L 184.582329 151.458866 
L 185.05697 150.058835 
L 185.373397 148.792263 
L 187.430175 138.089026 
L 188.06303 133.769915 
L 188.695885 124.1478 
L 188.854099 114.400238 
L 189.170526 54.36597 
L 189.32874 62.135819 
L 189.803381 125.559942 
L 190.119809 143.570513 
L 190.436236 150.64511 
L 190.752663 153.102166 
L 190.910877 153.546902 
L 191.227305 153.641651 
L 191.860159 151.710594 
L 192.334801 149.76086 
L 193.442297 143.84926 
L 194.549793 136.25583 
L 195.340861 128.436041 
L 195.657289 121.307513 
L 196.13193 57.290625 
L 196.764785 133.246426 
L 197.081212 145.63465 
L 197.39764 150.829563 
L 197.714067 152.716232 
L 198.030494 153.204367 
L 198.188708 153.21322 
L 198.505136 152.769459 
L 199.454418 149.413355 
L 200.245486 145.227299 
L 201.194769 139.055212 
L 202.302265 128.812284 
L 202.460478 125.356703 
L 202.618692 119.066117 
L 202.93512 56.858388 
L 203.093333 59.801128 
L 203.567974 124.733704 
L 203.884402 143.021393 
L 204.200829 150.860638 
L 204.517257 153.817975 
L 204.67547 154.534189 
L 204.991898 154.58417 
L 205.150112 154.327814 
L 206.099394 150.577417 
L 207.523317 143.204211 
L 208.314386 137.625747 
L 209.105455 131.539614 
L 209.263668 130.311756 
L 209.580096 124.328892 
L 209.738309 116.781815 
L 210.054737 54.874348 
L 210.212951 61.044728 
L 210.687592 123.50193 
L 211.004019 142.049442 
L 211.320447 149.724436 
L 211.636874 152.428887 
L 211.795088 153.193994 
L 212.111515 153.258332 
L 212.427943 152.655299 
L 212.902584 151.299704 
L 213.377225 149.249427 
L 215.117576 139.645657 
L 216.225072 130.171463 
L 216.541499 124.548235 
L 216.699713 113.408072 
L 217.01614 54.488937 
L 217.174354 63.814248 
L 217.648995 125.117788 
L 217.965423 142.132887 
L 218.28185 149.177119 
L 218.598278 152.07325 
L 218.756491 152.719371 
L 219.072919 152.953907 
L 219.389346 152.487443 
L 219.705774 151.485278 
L 220.655056 147.099513 
L 221.129697 144.615694 
L 221.762552 140.955348 
L 222.237193 138.028824 
L 222.711834 134.054138 
L 223.186475 129.207989 
L 223.344689 127.361639 
L 223.661116 119.678465 
L 223.81933 99.622484 
L 223.977544 65.166964 
L 224.135758 55.163925 
L 224.926826 137.863566 
L 225.243254 146.784665 
L 225.559681 150.42615 
L 225.876108 152.030172 
L 226.192536 152.499636 
L 226.508963 152.056449 
L 226.983604 150.390114 
L 227.774673 146.65382 
L 229.515024 135.324037 
L 229.989665 131.705151 
L 230.464306 126.513579 
L 230.780734 119.35797 
L 231.255375 55.187424 
L 232.046443 136.84834 
L 232.362871 147.0653 
L 232.679298 151.239605 
L 232.995726 152.738815 
L 233.312153 152.974326 
L 233.628581 152.387417 
L 234.419649 149.329827 
L 235.052504 146.287101 
L 235.368931 144.722679 
L 237.109282 134.25638 
L 237.742137 128.230676 
L 238.058565 121.571625 
L 238.216778 114.012079 
L 238.533206 56.93253 
L 238.691419 57.772021 
L 239.324274 131.879346 
L 239.640702 145.103096 
L 239.957129 150.74316 
L 240.273557 152.948073 
L 240.589984 153.577965 
L 240.748198 153.564187 
L 241.064625 153.108687 
L 241.69748 150.943171 
L 244.2289 137.60365 
L 244.861754 133.726055 
L 245.019968 133.149101 
L 245.811037 126.189739 
L 245.96925 123.104734 
L 246.127464 117.699848 
L 246.602105 57.62048 
L 247.23496 131.497882 
L 247.551388 145.041989 
L 247.867815 150.850985 
L 248.184242 152.962046 
L 248.50067 153.376124 
L 248.817097 152.795159 
L 249.449952 150.82257 
L 250.241021 147.454493 
L 252.297799 134.981868 
L 252.930654 128.783136 
L 253.247081 122.978537 
L 253.405295 117.012363 
L 253.721722 58.586805 
L 253.879936 58.950684 
L 254.512791 132.875963 
L 254.829219 145.974748 
L 255.145646 151.140239 
L 255.462073 153.090953 
L 255.778501 153.452604 
L 255.936715 153.347208 
L 257.044211 149.764757 
L 258.626348 141.955704 
L 259.892057 134.853202 
L 260.683126 128.6287 
L 260.84134 127.030822 
L 261.157767 119.294974 
L 261.632408 56.604062 
L 262.265263 127.205867 
L 262.581691 141.424699 
L 262.898118 147.743249 
L 263.214545 150.262696 
L 263.530973 151.384829 
L 263.689187 151.349474 
L 264.796683 177.543733 
L 265.587751 185.567898 
L 266.537033 191.401953 
L 268.435598 198.366837 
L 269.859522 201.316991 
L 271.441659 203.36988 
L 271.758086 203.676545 
L 272.232727 204.106858 
L 272.549155 204.025586 
L 272.707368 203.924649 
L 273.973078 205.233308 
L 274.289506 205.581284 
L 274.764147 205.735836 
L 275.080574 205.964206 
L 275.397002 206.016369 
L 275.713429 206.192876 
L 276.029856 206.365154 
L 276.346284 206.126722 
L 276.662711 206.362477 
L 276.979139 206.577475 
L 277.295566 206.577149 
L 277.611994 206.901112 
L 278.244848 206.757616 
L 278.561276 206.680686 
L 279.035917 206.920636 
L 279.194131 207.076059 
L 279.668772 206.874172 
L 279.985199 206.868019 
L 280.776268 207.006216 
L 281.409123 206.963704 
L 281.72555 207.121298 
L 282.200191 207.318414 
L 283.307687 207.142401 
L 283.624115 207.049525 
L 284.25697 207.064613 
L 284.889825 206.960647 
L 285.206252 207.121538 
L 286.155534 207.198496 
L 286.313748 207.131085 
L 286.471962 207.184812 
L 287.26303 206.86769 
L 287.737671 206.683354 
L 288.054099 206.519796 
L 288.370526 206.369585 
L 288.686954 206.247737 
L 289.636236 206.871734 
L 289.952663 206.986316 
L 290.427305 207.068341 
L 291.060159 207.240966 
L 291.376587 207.113188 
L 291.693014 207.354258 
L 292.009442 207.570595 
L 293.116938 207.855388 
L 293.433365 207.649358 
L 293.908006 207.118278 
L 294.382648 207.038811 
L 294.857289 206.78415 
L 295.173716 206.786738 
L 295.33193 206.640576 
L 295.964785 206.826682 
L 297.388708 206.217945 
L 297.705136 206.548895 
L 298.496204 206.699514 
L 299.129059 206.371214 
L 300.236555 206.986861 
L 300.86941 207.0962 
L 301.027624 206.937986 
L 301.502265 207.077348 
L 301.818692 206.924065 
L 302.451547 206.614865 
L 302.609761 206.58805 
L 302.926188 206.725537 
L 303.242616 206.625115 
L 303.400829 206.708093 
L 303.717257 206.636578 
L 304.033684 206.616607 
L 304.350112 206.471701 
L 305.457608 206.112845 
L 306.40689 206.07955 
L 306.565104 206.103771 
L 307.197959 205.693496 
L 307.830813 205.973957 
L 308.463668 205.848093 
L 308.938309 205.652152 
L 309.887592 205.400015 
L 310.204019 205.137083 
L 310.67866 204.945529 
L 311.469729 205.187692 
L 311.94437 204.997299 
L 312.419011 205.026071 
L 313.051866 204.729345 
L 313.842935 204.983269 
L 314.950431 205.235868 
L 315.266858 205.201169 
L 315.741499 205.317084 
L 315.899713 205.059412 
L 316.21614 203.979243 
L 316.532568 203.866679 
L 317.48185 204.084686 
L 318.272919 204.580857 
L 318.905774 204.834832 
L 319.855056 204.640272 
L 320.804338 204.653745 
L 321.120766 204.626543 
L 321.911834 204.930786 
L 322.228262 204.875454 
L 322.386475 204.932626 
L 323.177544 204.586104 
L 324.917895 204.64235 
L 325.234322 204.836134 
L 325.392536 204.834298 
L 325.708963 205.035402 
L 326.341818 204.988747 
L 326.658246 205.041617 
L 327.2911 204.643858 
L 327.607528 204.566479 
L 327.923955 204.481614 
L 328.240383 204.590528 
L 328.55681 204.526266 
L 329.031451 204.695159 
L 329.189665 204.752291 
L 329.82252 204.564966 
L 330.297161 204.440557 
L 330.771802 204.388363 
L 331.404657 204.505559 
L 331.879298 204.463434 
L 332.828581 204.692285 
L 333.303222 204.951143 
L 333.461435 204.970715 
L 333.777863 204.823306 
L 334.410718 205.085012 
L 334.727145 205.139877 
L 335.36 205.287971 
L 335.834641 205.437189 
L 336.467496 205.402305 
L 336.783923 205.444787 
L 337.258565 205.262434 
L 337.891419 205.450139 
L 338.524274 205.248407 
L 338.840702 205.4046 
L 339.315343 205.255325 
L 340.106411 205.516941 
L 340.581053 205.397496 
L 341.846762 205.328028 
L 342.954258 205.599429 
L 343.270686 205.464867 
L 343.4289 205.552149 
L 343.903541 205.274304 
L 345.327464 205.358415 
L 346.43496 205.23925 
L 346.751388 205.058968 
L 348.017097 204.854259 
L 348.333525 204.814403 
L 348.649952 204.764437 
L 348.96638 204.679882 
L 349.282807 204.534673 
L 349.915662 204.93848 
L 350.232089 204.918275 
L 350.548517 205.114904 
L 351.023158 205.179888 
L 351.339585 205.167146 
L 352.921722 205.168923 
L 353.079936 205.300027 
L 353.871005 205.134043 
L 354.187432 205.328134 
L 354.662073 205.161394 
L 355.927783 205.228994 
L 356.244211 205.103139 
L 356.560638 205.110273 
L 357.50992 204.80886 
L 357.826348 204.969351 
L 358.142775 205.009347 
L 358.459203 205.140736 
L 358.77563 205.096243 
L 359.092057 205.176765 
L 359.408485 205.351331 
L 360.990622 205.253995 
L 361.307049 205.140008 
L 361.465263 205.263094 
L 361.781691 205.312399 
L 362.098118 205.39567 
L 362.256332 205.361599 
L 362.572759 205.188443 
L 362.889187 205.214405 
L 363.363828 205.16254 
L 363.680255 205.25951 
L 364.154896 205.101041 
L 364.471324 204.944594 
L 364.787751 204.900317 
L 365.420606 204.851457 
L 366.053461 204.85906 
L 366.369888 204.704185 
L 366.686316 204.447075 
L 367.477384 204.091533 
L 367.635598 203.94289 
L 368.110239 204.134252 
L 368.426667 204.095331 
L 368.901308 203.995927 
L 369.217735 203.816862 
L 369.692376 203.85464 
L 370.008804 203.689356 
L 370.325231 203.445919 
L 371.749155 203.374676 
L 372.223796 203.510732 
L 372.698437 203.483401 
L 373.014864 203.446765 
L 373.489506 203.549253 
L 373.805933 203.376326 
L 374.12236 203.414871 
L 374.597002 203.091619 
L 374.913429 203.051089 
L 375.229856 203.236123 
L 375.546284 203.277951 
L 375.862711 203.345932 
L 376.970207 203.485647 
L 377.286635 203.621556 
L 377.761276 203.503188 
L 378.235917 203.632756 
L 378.868772 204.139916 
L 380.134482 204.491717 
L 380.450909 204.708789 
L 380.92555 204.409774 
L 381.558405 204.242965 
L 381.716619 204.154124 
L 382.19126 204.203299 
L 382.507687 204.09074 
L 383.140542 204.355396 
L 383.45697 204.203491 
L 384.089825 203.985491 
L 384.406252 203.933707 
L 384.880893 203.832958 
L 385.197321 203.872944 
L 385.355534 203.859365 
L 385.988389 203.346567 
L 386.304817 203.385932 
L 386.46303 203.424339 
L 387.095885 203.020487 
L 387.570526 203.224618 
L 387.886954 203.321698 
L 388.678022 203.19895 
L 389.310877 203.411034 
L 389.785518 203.428093 
L 390.101946 203.452556 
L 390.576587 203.318131 
L 391.051228 203.393673 
L 391.842297 202.960854 
L 392.949793 202.919004 
L 393.899075 203.286262 
L 394.373716 203.2556 
L 394.690144 203.337643 
L 394.848357 203.307136 
L 396.272281 204.035109 
L 396.588708 203.847061 
L 398.487273 204.817822 
L 398.487273 204.817822 
" style="fill:none;stroke:#000000;stroke-linecap:square;stroke-width:1.5;"/>
   </g>
   <g id="patch_3">
    <path d="M 57.6 307.584 
L 57.6 41.472 
" style="fill:none;stroke:#000000;stroke-linecap:square;stroke-linejoin:miter;stroke-width:0.8;"/>
   </g>
   <g id="patch_4">
    <path d="M 414.72 307.584 
L 414.72 41.472 
" style="fill:none;stroke:#000000;stroke-linecap:square;stroke-linejoin:miter;stroke-width:0.8;"/>
   </g>
   <g id="patch_5">
    <path d="M 57.6 307.584 
L 414.72 307.584 
" style="fill:none;stroke:#000000;stroke-linecap:square;stroke-linejoin:miter;stroke-width:0.8;"/>
   </g>
   <g id="patch_6">
    <path d="M 57.6 41.472 
L 414.72 41.472 
" style="fill:none;stroke:#000000;stroke-linecap:square;stroke-linejoin:miter;stroke-width:0.8;"/>
   </g>
  </g>
 </g>
 <defs>
  <clipPath id="p9e569f017d">
   <rect height="266.112" width="357.12" x="57.6" y="41.472"/>
  </clipPath>
 </defs>
</svg>
