<?xml version="1.0" encoding="utf-8" standalone="no"?>
<!DOCTYPE svg PUBLIC "-//W3C//DTD SVG 1.1//EN"
  "http://www.w3.org/Graphics/SVG/1.1/DTD/svg11.dtd">
<svg xmlns:xlink="http://www.w3.org/1999/xlink" width="265.704687pt" height="197.398125pt" viewBox="0 0 265.704687 197.398125" xmlns="http://www.w3.org/2000/svg" version="1.1">
 <metadata>
  <rdf:RDF xmlns:dc="http://purl.org/dc/elements/1.1/" xmlns:cc="http://creativecommons.org/ns#" xmlns:rdf="http://www.w3.org/1999/02/22-rdf-syntax-ns#">
   <cc:Work>
    <dc:type rdf:resource="http://purl.org/dc/dcmitype/StillImage"/>
    <dc:date>2025-12-17T21:03:37.355079</dc:date>
    <dc:format>image/svg+xml</dc:format>
    <dc:creator>
     <cc:Agent>
      <dc:title>Matplotlib v3.10.7, https://matplotlib.org/</dc:title>
     </cc:Agent>
    </dc:creator>
   </cc:Work>
  </rdf:RDF>
 </metadata>
 <defs>
  <style type="text/css">*{stroke-linejoin: round; stroke-linecap: butt}</style>
 </defs>
 <g id="figure_1">
  <g id="patch_1">
   <path d="M 0 197.398125 
L 265.704687 197.398125 
L 265.704687 0 
L 0 0 
z
" style="fill: #ffffff"/>
  </g>
  <g id="axes_1">
   <g id="patch_2">
    <path d="M 35.304688 173.52 
L 258.504687 173.52 
L 258.504687 7.2 
L 35.304688 7.2 
z
" style="fill: #ffffff"/>
   </g>
   <g id="matplotlib.axis_1">
    <g id="xtick_1">
     <g id="line2d_1">
      <defs>
       <path id="m5de95dffcc" d="M 0 0 
L 0 3.5 
" style="stroke: #000000; stroke-width: 0.8"/>
      </defs>
      <g>
       <use xlink:href="#m5de95dffcc" x="65.409722" y="173.52" style="stroke: #000000; stroke-width: 0.8"/>
      </g>
     </g>
     <g id="text_1">
      <!-- 0.1 -->
      <g transform="translate(57.45816 188.118438) scale(0.1 -0.1)">
       <defs>
        <path id="DejaVuSans-30" d="M 2034 4250 
Q 1547 4250 1301 3770 
Q 1056 3291 1056 2328 
Q 1056 1369 1301 889 
Q 1547 409 2034 409 
Q 2525 409 2770 889 
Q 3016 1369 3016 2328 
Q 3016 3291 2770 3770 
Q 2525 4250 2034 4250 
z
M 2034 4750 
Q 2819 4750 3233 4129 
Q 3647 3509 3647 2328 
Q 3647 1150 3233 529 
Q 2819 -91 2034 -91 
Q 1250 -91 836 529 
Q 422 1150 422 2328 
Q 422 3509 836 4129 
Q 1250 4750 2034 4750 
z
" transform="scale(0.015625)"/>
        <path id="DejaVuSans-2e" d="M 684 794 
L 1344 794 
L 1344 0 
L 684 0 
L 684 794 
z
" transform="scale(0.015625)"/>
        <path id="DejaVuSans-31" d="M 794 531 
L 1825 531 
L 1825 4091 
L 703 3866 
L 703 4441 
L 1819 4666 
L 2450 4666 
L 2450 531 
L 3481 531 
L 3481 0 
L 794 0 
L 794 531 
z
" transform="scale(0.015625)"/>
       </defs>
       <use xlink:href="#DejaVuSans-30"/>
       <use xlink:href="#DejaVuSans-2e" transform="translate(63.623047 0)"/>
       <use xlink:href="#DejaVuSans-31" transform="translate(95.410156 0)"/>
      </g>
     </g>
    </g>
    <g id="xtick_2">
     <g id="line2d_2">
      <g>
       <use xlink:href="#m5de95dffcc" x="98.675689" y="173.52" style="stroke: #000000; stroke-width: 0.8"/>
      </g>
     </g>
     <g id="text_2">
      <!-- 0.2 -->
      <g transform="translate(90.724126 188.118438) scale(0.1 -0.1)">
       <defs>
        <path id="DejaVuSans-32" d="M 1228 531 
L 3431 531 
L 3431 0 
L 469 0 
L 469 531 
Q 828 903 1448 1529 
Q 2069 2156 2228 2338 
Q 2531 2678 2651 2914 
Q 2772 3150 2772 3378 
Q 2772 3750 2511 3984 
Q 2250 4219 1831 4219 
Q 1534 4219 1204 4116 
Q 875 4013 500 3803 
L 500 4441 
Q 881 4594 1212 4672 
Q 1544 4750 1819 4750 
Q 2544 4750 2975 4387 
Q 3406 4025 3406 3419 
Q 3406 3131 3298 2873 
Q 3191 2616 2906 2266 
Q 2828 2175 2409 1742 
Q 1991 1309 1228 531 
z
" transform="scale(0.015625)"/>
       </defs>
       <use xlink:href="#DejaVuSans-30"/>
       <use xlink:href="#DejaVuSans-2e" transform="translate(63.623047 0)"/>
       <use xlink:href="#DejaVuSans-32" transform="translate(95.410156 0)"/>
      </g>
     </g>
    </g>
    <g id="xtick_3">
     <g id="line2d_3">
      <g>
       <use xlink:href="#m5de95dffcc" x="131.941656" y="173.52" style="stroke: #000000; stroke-width: 0.8"/>
      </g>
     </g>
     <g id="text_3">
      <!-- 0.3 -->
      <g transform="translate(123.990093 188.118438) scale(0.1 -0.1)">
       <defs>
        <path id="DejaVuSans-33" d="M 2597 2516 
Q 3050 2419 3304 2112 
Q 3559 1806 3559 1356 
Q 3559 666 3084 287 
Q 2609 -91 1734 -91 
Q 1441 -91 1130 -33 
Q 819 25 488 141 
L 488 750 
Q 750 597 1062 519 
Q 1375 441 1716 441 
Q 2309 441 2620 675 
Q 2931 909 2931 1356 
Q 2931 1769 2642 2001 
Q 2353 2234 1838 2234 
L 1294 2234 
L 1294 2753 
L 1863 2753 
Q 2328 2753 2575 2939 
Q 2822 3125 2822 3475 
Q 2822 3834 2567 4026 
Q 2313 4219 1838 4219 
Q 1578 4219 1281 4162 
Q 984 4106 628 3988 
L 628 4550 
Q 988 4650 1302 4700 
Q 1616 4750 1894 4750 
Q 2613 4750 3031 4423 
Q 3450 4097 3450 3541 
Q 3450 3153 3228 2886 
Q 3006 2619 2597 2516 
z
" transform="scale(0.015625)"/>
       </defs>
       <use xlink:href="#DejaVuSans-30"/>
       <use xlink:href="#DejaVuSans-2e" transform="translate(63.623047 0)"/>
       <use xlink:href="#DejaVuSans-33" transform="translate(95.410156 0)"/>
      </g>
     </g>
    </g>
    <g id="xtick_4">
     <g id="line2d_4">
      <g>
       <use xlink:href="#m5de95dffcc" x="165.207622" y="173.52" style="stroke: #000000; stroke-width: 0.8"/>
      </g>
     </g>
     <g id="text_4">
      <!-- 0.4 -->
      <g transform="translate(157.25606 188.118438) scale(0.1 -0.1)">
       <defs>
        <path id="DejaVuSans-34" d="M 2419 4116 
L 825 1625 
L 2419 1625 
L 2419 4116 
z
M 2253 4666 
L 3047 4666 
L 3047 1625 
L 3713 1625 
L 3713 1100 
L 3047 1100 
L 3047 0 
L 2419 0 
L 2419 1100 
L 313 1100 
L 313 1709 
L 2253 4666 
z
" transform="scale(0.015625)"/>
       </defs>
       <use xlink:href="#DejaVuSans-30"/>
       <use xlink:href="#DejaVuSans-2e" transform="translate(63.623047 0)"/>
       <use xlink:href="#DejaVuSans-34" transform="translate(95.410156 0)"/>
      </g>
     </g>
    </g>
    <g id="xtick_5">
     <g id="line2d_5">
      <g>
       <use xlink:href="#m5de95dffcc" x="198.473589" y="173.52" style="stroke: #000000; stroke-width: 0.8"/>
      </g>
     </g>
     <g id="text_5">
      <!-- 0.5 -->
      <g transform="translate(190.522027 188.118438) scale(0.1 -0.1)">
       <defs>
        <path id="DejaVuSans-35" d="M 691 4666 
L 3169 4666 
L 3169 4134 
L 1269 4134 
L 1269 2991 
Q 1406 3038 1543 3061 
Q 1681 3084 1819 3084 
Q 2600 3084 3056 2656 
Q 3513 2228 3513 1497 
Q 3513 744 3044 326 
Q 2575 -91 1722 -91 
Q 1428 -91 1123 -41 
Q 819 9 494 109 
L 494 744 
Q 775 591 1075 516 
Q 1375 441 1709 441 
Q 2250 441 2565 725 
Q 2881 1009 2881 1497 
Q 2881 1984 2565 2268 
Q 2250 2553 1709 2553 
Q 1456 2553 1204 2497 
Q 953 2441 691 2322 
L 691 4666 
z
" transform="scale(0.015625)"/>
       </defs>
       <use xlink:href="#DejaVuSans-30"/>
       <use xlink:href="#DejaVuSans-2e" transform="translate(63.623047 0)"/>
       <use xlink:href="#DejaVuSans-35" transform="translate(95.410156 0)"/>
      </g>
     </g>
    </g>
    <g id="xtick_6">
     <g id="line2d_6">
      <g>
       <use xlink:href="#m5de95dffcc" x="231.739556" y="173.52" style="stroke: #000000; stroke-width: 0.8"/>
      </g>
     </g>
     <g id="text_6">
      <!-- 0.6 -->
      <g transform="translate(223.787993 188.118438) scale(0.1 -0.1)">
       <defs>
        <path id="DejaVuSans-36" d="M 2113 2584 
Q 1688 2584 1439 2293 
Q 1191 2003 1191 1497 
Q 1191 994 1439 701 
Q 1688 409 2113 409 
Q 2538 409 2786 701 
Q 3034 994 3034 1497 
Q 3034 2003 2786 2293 
Q 2538 2584 2113 2584 
z
M 3366 4563 
L 3366 3988 
Q 3128 4100 2886 4159 
Q 2644 4219 2406 4219 
Q 1781 4219 1451 3797 
Q 1122 3375 1075 2522 
Q 1259 2794 1537 2939 
Q 1816 3084 2150 3084 
Q 2853 3084 3261 2657 
Q 3669 2231 3669 1497 
Q 3669 778 3244 343 
Q 2819 -91 2113 -91 
Q 1303 -91 875 529 
Q 447 1150 447 2328 
Q 447 3434 972 4092 
Q 1497 4750 2381 4750 
Q 2619 4750 2861 4703 
Q 3103 4656 3366 4563 
z
" transform="scale(0.015625)"/>
       </defs>
       <use xlink:href="#DejaVuSans-30"/>
       <use xlink:href="#DejaVuSans-2e" transform="translate(63.623047 0)"/>
       <use xlink:href="#DejaVuSans-36" transform="translate(95.410156 0)"/>
      </g>
     </g>
    </g>
   </g>
   <g id="matplotlib.axis_2">
    <g id="ytick_1">
     <g id="line2d_7">
      <defs>
       <path id="mc5f913aa39" d="M 0 0 
L -3.5 0 
" style="stroke: #000000; stroke-width: 0.8"/>
      </defs>
      <g>
       <use xlink:href="#mc5f913aa39" x="35.304688" y="164.72426" style="stroke: #000000; stroke-width: 0.8"/>
      </g>
     </g>
     <g id="text_7">
      <!-- −60 -->
      <g transform="translate(7.2 168.523478) scale(0.1 -0.1)">
       <defs>
        <path id="DejaVuSans-2212" d="M 678 2272 
L 4684 2272 
L 4684 1741 
L 678 1741 
L 678 2272 
z
" transform="scale(0.015625)"/>
       </defs>
       <use xlink:href="#DejaVuSans-2212"/>
       <use xlink:href="#DejaVuSans-36" transform="translate(83.789062 0)"/>
       <use xlink:href="#DejaVuSans-30" transform="translate(147.412109 0)"/>
      </g>
     </g>
    </g>
    <g id="ytick_2">
     <g id="line2d_8">
      <g>
       <use xlink:href="#mc5f913aa39" x="35.304688" y="140.009545" style="stroke: #000000; stroke-width: 0.8"/>
      </g>
     </g>
     <g id="text_8">
      <!-- −40 -->
      <g transform="translate(7.2 143.808764) scale(0.1 -0.1)">
       <use xlink:href="#DejaVuSans-2212"/>
       <use xlink:href="#DejaVuSans-34" transform="translate(83.789062 0)"/>
       <use xlink:href="#DejaVuSans-30" transform="translate(147.412109 0)"/>
      </g>
     </g>
    </g>
    <g id="ytick_3">
     <g id="line2d_9">
      <g>
       <use xlink:href="#mc5f913aa39" x="35.304688" y="115.29483" style="stroke: #000000; stroke-width: 0.8"/>
      </g>
     </g>
     <g id="text_9">
      <!-- −20 -->
      <g transform="translate(7.2 119.094049) scale(0.1 -0.1)">
       <use xlink:href="#DejaVuSans-2212"/>
       <use xlink:href="#DejaVuSans-32" transform="translate(83.789062 0)"/>
       <use xlink:href="#DejaVuSans-30" transform="translate(147.412109 0)"/>
      </g>
     </g>
    </g>
    <g id="ytick_4">
     <g id="line2d_10">
      <g>
       <use xlink:href="#mc5f913aa39" x="35.304688" y="90.580116" style="stroke: #000000; stroke-width: 0.8"/>
      </g>
     </g>
     <g id="text_10">
      <!-- 0 -->
      <g transform="translate(21.942187 94.379335) scale(0.1 -0.1)">
       <use xlink:href="#DejaVuSans-30"/>
      </g>
     </g>
    </g>
    <g id="ytick_5">
     <g id="line2d_11">
      <g>
       <use xlink:href="#mc5f913aa39" x="35.304688" y="65.865401" style="stroke: #000000; stroke-width: 0.8"/>
      </g>
     </g>
     <g id="text_11">
      <!-- 20 -->
      <g transform="translate(15.579687 69.66462) scale(0.1 -0.1)">
       <use xlink:href="#DejaVuSans-32"/>
       <use xlink:href="#DejaVuSans-30" transform="translate(63.623047 0)"/>
      </g>
     </g>
    </g>
    <g id="ytick_6">
     <g id="line2d_12">
      <g>
       <use xlink:href="#mc5f913aa39" x="35.304688" y="41.150687" style="stroke: #000000; stroke-width: 0.8"/>
      </g>
     </g>
     <g id="text_12">
      <!-- 40 -->
      <g transform="translate(15.579687 44.949906) scale(0.1 -0.1)">
       <use xlink:href="#DejaVuSans-34"/>
       <use xlink:href="#DejaVuSans-30" transform="translate(63.623047 0)"/>
      </g>
     </g>
    </g>
    <g id="ytick_7">
     <g id="line2d_13">
      <g>
       <use xlink:href="#mc5f913aa39" x="35.304688" y="16.435972" style="stroke: #000000; stroke-width: 0.8"/>
      </g>
     </g>
     <g id="text_13">
      <!-- 60 -->
      <g transform="translate(15.579687 20.235191) scale(0.1 -0.1)">
       <use xlink:href="#DejaVuSans-36"/>
       <use xlink:href="#DejaVuSans-30" transform="translate(63.623047 0)"/>
      </g>
     </g>
    </g>
   </g>
   <g id="line2d_14">
    <path d="M 45.450142 158.136249 
L 45.490061 158.151687 
L 45.510021 158.105349 
L 45.556593 158.113075 
L 45.663044 158.051285 
L 45.69631 158.113075 
L 45.722923 158.089906 
L 45.86264 158.143971 
L 46.048929 158.097632 
L 46.155381 158.159418 
L 46.181993 158.128518 
L 46.335017 158.08218 
L 46.228566 158.174861 
L 46.348323 158.105349 
L 46.401549 158.159418 
L 46.454774 158.089906 
L 46.474734 158.120801 
L 46.594491 158.089906 
L 46.720902 158.136249 
L 46.727555 158.120801 
L 46.853966 158.08218 
L 46.973723 158.120801 
L 46.980377 158.105349 
L 47.000336 158.120801 
L 47.106787 158.074459 
L 47.226545 158.143971 
L 47.233198 158.128518 
L 48.803351 158.066737 
L 48.909803 157.958604 
L 48.923109 157.981777 
L 49.089439 157.873653 
L 49.308994 157.76552 
L 49.621694 157.572436 
L 49.874516 157.487486 
L 49.96766 157.4257 
L 49.907782 157.502929 
L 49.994273 157.441148 
L 50.160603 157.333014 
L 50.353546 157.271233 
L 50.366852 157.286676 
L 50.440037 157.209447 
L 50.44669 157.209447 
L 50.77935 157.124488 
L 50.865841 157.070419 
L 50.899107 157.078149 
L 51.038824 157.000911 
L 51.105356 157.039533 
L 51.078744 156.954573 
L 51.158582 157.02408 
L 51.284993 156.970021 
L 51.610999 156.861897 
L 51.730757 156.82328 
L 51.744063 156.830997 
L 51.897086 156.82328 
L 51.963618 156.815554 
L 51.943659 156.776937 
L 51.996884 156.776937 
L 52.05011 156.738316 
L 52.103335 156.784658 
L 52.189827 156.784658 
L 52.143255 156.761485 
L 52.203133 156.738316 
L 52.316238 156.707425 
L 52.515833 156.599301 
L 52.52914 156.62247 
L 52.662204 156.62247 
L 52.668857 156.614744 
L 52.82188 156.552963 
L 52.84184 156.583853 
L 52.954944 156.576132 
L 52.868453 156.560684 
L 52.961597 156.552963 
L 53.520466 156.444829 
L 53.700102 156.39077 
L 53.759981 156.398491 
L 53.77994 156.344431 
L 53.806553 156.359879 
L 53.932964 156.282646 
L 54.006149 156.359879 
L 54.059374 156.328979 
L 54.378728 156.244029 
L 54.451913 156.189964 
L 54.491832 156.236303 
L 54.664815 156.189964 
L 54.711387 156.267198 
L 54.771266 156.189964 
L 54.917636 156.143621 
L 54.937596 156.166795 
L 54.950902 156.151348 
L 55.064006 156.143621 
L 55.54969 156.035493 
L 55.576302 156.058662 
L 55.689407 156.043219 
L 56.660773 155.935095 
L 56.720652 155.958264 
L 56.78053 155.9042 
L 56.880328 155.950538 
L 56.900288 155.919642 
L 56.94686 155.865583 
L 57.013392 155.911921 
L 57.166416 155.935095 
L 57.173069 155.927369 
L 57.778509 155.834688 
L 57.838388 155.803797 
L 57.811775 155.850135 
L 57.878307 155.865583 
L 57.911573 155.834688 
L 58.018024 155.8733 
L 58.151088 155.81924 
L 58.157741 155.826966 
L 58.297458 155.834688 
L 59.907531 155.742011 
L 60.027289 155.680216 
L 60.13374 155.726559 
L 60.073861 155.657047 
L 60.147046 155.70339 
L 61.683934 155.595266 
L 61.763772 155.579813 
L 61.7172 155.64933 
L 61.790385 155.641604 
L 61.876876 155.633882 
L 61.903489 155.602982 
L 63.367192 155.518032 
L 63.460336 155.502585 
L 63.42707 155.556644 
L 63.473643 155.533475 
L 71.743562 155.641604 
L 71.850013 155.641604 
L 71.810094 155.595266 
L 71.856666 155.633882 
L 72.016343 155.64933 
L 72.042956 155.602982 
L 72.122794 155.64933 
L 72.162713 155.672499 
L 72.215939 155.602982 
L 72.235898 155.633882 
L 74.471371 155.718837 
L 74.53125 155.788349 
L 74.591129 155.76518 
L 74.684274 155.718837 
L 74.704233 155.749728 
L 74.724193 155.742011 
L 74.817338 155.757454 
L 74.830644 155.772897 
L 74.977014 155.742011 
L 76.061485 155.834688 
L 76.094751 155.811518 
L 76.174589 155.834688 
L 76.301 155.834688 
L 76.201202 155.796066 
L 76.307653 155.826966 
L 76.414104 155.788349 
L 76.42741 155.811518 
L 76.533861 155.834688 
L 76.454023 155.780628 
L 76.540515 155.826966 
L 76.640312 155.76518 
L 76.553821 155.834688 
L 76.653619 155.788349 
L 76.766723 155.842409 
L 76.773376 155.834688 
L 76.846561 155.788349 
L 76.806642 155.842409 
L 76.873174 155.834688 
L 76.879827 155.8733 
L 76.972972 155.803797 
L 76.979625 155.803797 
L 77.179221 155.865583 
L 77.312285 155.780628 
L 77.365511 155.834688 
L 77.432042 155.811518 
L 80.09332 155.9042 
L 80.159852 155.942812 
L 80.119933 155.888752 
L 80.206424 155.9042 
L 80.352794 155.865583 
L 80.23969 155.942812 
L 80.366101 155.888752 
L 82.488469 155.788349 
L 82.581614 155.803797 
L 82.515082 155.834688 
L 82.588267 155.834688 
L 86.061234 155.935095 
L 86.174339 155.942812 
L 86.347322 155.896473 
L 86.480385 155.958264 
L 86.566877 155.919642 
L 86.500345 155.965981 
L 86.59349 155.950538 
L 88.722512 156.035493 
L 88.755778 155.981433 
L 88.842269 156.066388 
L 88.915454 155.965981 
L 88.975333 156.027771 
L 89.015252 156.050945 
L 89.048518 155.958264 
L 89.068478 155.973712 
L 89.075131 155.950538 
L 89.121703 156.043219 
L 89.161622 156.02005 
L 89.194888 156.050945 
L 89.234808 155.981433 
L 89.274727 156.012324 
L 89.381178 156.012324 
L 89.321299 155.965981 
L 89.387831 156.004602 
L 91.277338 156.105005 
L 91.403749 156.143621 
L 91.32391 156.066388 
L 91.410402 156.135895 
L 91.503546 156.058662 
L 91.530159 156.097283 
L 91.649917 156.074114 
L 91.65657 156.081836 
L 92.461606 156.189964 
L 92.474913 156.174517 
L 92.574711 156.174517 
L 92.661202 156.128179 
L 92.694468 156.159064 
L 92.794266 156.197686 
L 92.707774 156.120452 
L 92.814226 156.166795 
L 92.953943 156.166795 
L 93.0737 156.205407 
L 93.193458 156.159064 
L 93.326521 156.189964 
L 93.446279 156.213134 
L 93.459585 156.189964 
L 93.486198 156.159064 
L 93.546077 156.228576 
L 93.566036 156.197686 
L 93.592649 156.182234 
L 93.672487 156.205407 
L 93.712407 156.189964 
L 93.778939 156.213134 
L 93.918656 156.220855 
L 93.985188 156.189964 
L 93.951922 156.251746 
L 94.03176 156.236303 
L 94.171477 156.290367 
L 94.17813 156.244029 
L 94.317847 156.213134 
L 94.19809 156.274915 
L 94.331154 156.228576 
L 94.450911 156.282646 
L 94.570669 156.228576 
L 94.577322 156.259472 
L 94.597281 156.313536 
L 94.623894 156.236303 
L 94.690426 156.267198 
L 94.816837 156.290367 
L 94.830143 156.298088 
L 94.956554 156.244029 
L 95.076311 156.321262 
L 95.082964 156.30581 
L 95.209375 156.298088 
L 95.289213 156.290367 
L 95.242641 156.328979 
L 95.315826 156.321262 
L 95.442237 156.313536 
L 95.329133 156.30581 
L 95.44889 156.30581 
L 95.475503 156.336705 
L 95.548688 156.30581 
L 95.561994 156.344431 
L 95.655139 156.30581 
L 95.728324 156.398491 
L 95.734977 156.42166 
L 95.808163 156.313536 
L 95.814816 156.321262 
L 95.941226 156.328979 
L 95.841429 156.359879 
L 95.94788 156.336705 
L 96.021065 156.359879 
L 95.981146 156.328979 
L 96.060984 156.344431 
L 96.174088 156.328979 
L 96.280539 156.398491 
L 96.293846 156.375317 
L 96.400297 156.328979 
L 96.413603 156.359879 
L 96.433563 156.336705 
L 96.57328 156.398491 
L 96.646465 156.336705 
L 96.69969 156.352148 
L 97.584565 156.452555 
L 97.684363 156.460282 
L 97.631138 156.413939 
L 97.697669 156.437112 
L 97.797467 156.406217 
L 97.830733 156.452555 
L 100.378906 156.3676 
L 100.38556 156.336705 
L 100.438785 156.413939 
L 100.485357 156.39077 
L 100.625075 156.359879 
L 100.631728 156.375317 
L 100.718219 156.437112 
L 100.645034 156.3676 
L 100.751485 156.375317 
L 100.764792 156.406217 
L 100.884549 156.375317 
L 101.004307 156.406217 
L 100.897855 156.3676 
L 101.01096 156.398491 
L 103.851873 156.498898 
L 103.86518 156.529789 
L 103.945018 156.444829 
L 103.984937 156.475729 
L 104.064775 156.444829 
L 111.037322 156.545232 
L 111.043975 156.560684 
L 111.11716 156.452555 
L 111.130467 156.491167 
L 124.756207 156.406217 
L 124.769513 156.3676 
L 124.862658 156.413939 
L 125.015681 156.42166 
L 125.208624 156.352148 
L 125.361647 156.429386 
L 125.488058 156.344431 
L 125.494711 156.352148 
L 125.567896 156.375317 
L 125.614469 156.321262 
L 125.72092 156.344431 
L 125.727573 156.359879 
L 127.643693 156.259472 
L 127.683612 156.236303 
L 127.710225 156.290367 
L 127.750144 156.282646 
L 130.431381 156.383048 
L 130.531179 156.383048 
L 130.464647 156.344431 
L 130.537832 156.359879 
L 137.776506 156.467998 
L 137.816425 156.42166 
L 137.90957 156.460282 
L 138.082553 156.413939 
L 138.182351 156.491167 
L 138.215617 156.444829 
L 141.801688 156.537515 
L 141.914792 156.568401 
L 141.841607 156.522063 
L 141.921446 156.552963 
L 142.041203 156.50662 
L 141.968018 156.583853 
L 142.047856 156.529789 
L 142.067816 156.498898 
L 142.167614 156.552963 
L 142.260759 156.50662 
L 142.280718 156.522063 
L 142.400476 156.545232 
L 142.294025 156.491167 
L 142.420435 156.522063 
L 142.526886 156.50662 
L 142.447048 156.545232 
L 142.533539 156.522063 
L 142.706522 156.568401 
L 142.793014 156.498898 
L 142.839586 156.537515 
L 143.005916 156.576132 
L 143.012569 156.568401 
L 143.172246 156.522063 
L 143.178899 156.529789 
L 143.205512 156.498898 
L 143.298657 156.560684 
L 143.365189 156.498898 
L 143.418414 156.529789 
L 143.47164 156.545232 
L 143.458333 156.50662 
L 143.524865 156.522063 
L 143.624663 156.50662 
L 143.63797 156.545232 
L 143.751074 156.545232 
L 143.897444 156.483451 
L 143.904097 156.514341 
L 143.977282 156.483451 
L 144.030508 156.560684 
L 144.176878 156.552963 
L 144.289983 156.545232 
L 144.303289 156.529789 
L 146.851462 156.614744 
L 146.878075 156.676534 
L 146.957913 156.607022 
L 155.933071 156.522063 
L 156.019562 156.467998 
L 155.986296 156.560684 
L 156.046175 156.514341 
L 205.639078 156.413939 
L 205.72557 156.39077 
L 205.698957 156.437112 
L 205.74553 156.413939 
L 205.87194 156.452555 
L 205.878593 156.444829 
L 205.918513 156.467998 
L 206.005004 156.429386 
L 206.164681 156.444829 
L 213.915651 156.545232 
L 213.962223 156.552963 
L 213.988836 156.491167 
L 214.015449 156.514341 
L 214.095287 156.50662 
L 214.055368 156.545232 
L 214.128553 156.522063 
L 215.139839 156.607022 
L 215.20637 156.591575 
L 215.259596 156.637913 
L 215.439232 156.746046 
L 215.565643 156.838723 
L 215.592256 156.82328 
L 215.771892 156.915956 
L 215.904956 156.99319 
L 215.964835 156.99319 
L 215.984794 157.062702 
L 215.9981 157.047249 
L 216.230962 157.124488 
L 216.264228 157.10904 
L 216.35072 157.193995 
L 216.357373 157.155383 
L 216.390639 157.209447 
L 216.457171 157.201721 
L 216.530356 157.22489 
L 216.49709 157.240333 
L 216.556969 157.248064 
L 216.670073 157.333014 
L 216.683379 157.309845 
L 216.80979 157.302124 
L 216.823096 157.317571 
L 216.942854 157.417974 
L 216.95616 157.410248 
L 217.016039 157.394805 
L 217.069265 157.448869 
L 217.488416 157.556998 
L 217.634786 157.64967 
L 217.641439 157.634231 
L 217.654746 157.611058 
L 217.841035 157.726908 
L 217.887607 157.68057 
L 217.907567 157.742351 
L 217.954139 157.711465 
L 218.067244 157.811863 
L 218.087203 157.788694 
L 218.419863 157.889096 
L 218.499701 157.919992 
L 218.439822 157.873653 
L 218.532967 157.881375 
L 218.672684 157.966335 
L 218.679337 157.943165 
L 219.005344 158.043568 
L 219.151714 158.105349 
L 219.231552 158.113075 
L 219.264818 158.143971 
L 219.291431 158.174861 
L 219.364616 158.097632 
L 219.630744 158.259821 
L 219.637397 158.244368 
L 219.763808 158.244368 
L 219.770461 158.259821 
L 219.876912 158.321602 
L 219.890219 158.306159 
L 219.970057 158.298433 
L 219.923485 158.329333 
L 219.99667 158.337054 
L 220.089814 158.383392 
L 220.016629 158.313885 
L 220.136387 158.329333 
L 220.502312 158.437452 
L 220.515619 158.429735 
L 220.635376 158.468352 
L 221.24747 158.561029 
L 221.314002 158.630536 
L 221.367228 158.615093 
L 222.132345 158.707774 
L 222.178917 158.754112 
L 222.232143 158.676879 
L 222.252102 158.723222 
L 222.265409 158.707774 
L 222.418432 158.746391 
L 222.511577 158.738669 
L 222.431738 158.785008 
L 222.53819 158.76956 
L 222.724479 158.83135 
L 222.737785 158.839072 
L 222.857543 158.777281 
L 222.870849 158.76956 
L 222.9773 158.808177 
L 223.403105 158.908584 
L 223.416411 158.947201 
L 223.462983 158.862241 
L 223.509556 158.900858 
L 223.549475 158.83135 
L 223.629313 158.88541 
L 223.729111 158.931753 
L 223.749071 158.924027 
L 223.895441 158.908584 
L 223.988586 158.939475 
L 224.015198 158.924027 
L 224.041811 158.954922 
L 224.174875 158.893132 
L 224.281326 158.970365 
L 224.307939 158.954922 
L 225.126282 159.047603 
L 225.232733 159.063046 
L 225.192814 159.016703 
L 225.239386 159.055325 
L 227.74764 159.163453 
L 227.880704 159.178901 
L 227.89401 159.163453 
L 228.04038 159.132554 
L 228.053687 159.148006 
L 228.213363 159.163453 
L 230.981092 159.263856 
L 231.007705 159.271578 
L 231.067583 159.209787 
L 231.08089 159.217518 
L 234.647001 159.140284 
L 234.733493 159.101668 
L 234.753453 159.140284 
L 237.374811 159.047603 
L 237.408077 159.016703 
L 237.487915 159.055325 
L 237.601019 159.093941 
L 237.534487 159.039872 
L 237.607672 159.070772 
L 241.054027 158.962644 
L 241.153825 158.978091 
L 241.073986 158.985817 
L 241.160478 159.00126 
L 241.260276 159.016703 
L 241.246969 158.962644 
L 241.266929 158.985817 
L 241.386686 158.970365 
L 241.506444 158.947201 
L 241.53971 158.985817 
L 241.659467 158.924027 
L 241.759265 158.978091 
L 241.772572 158.931753 
L 241.872369 158.970365 
L 241.898982 158.947201 
L 242.032046 158.970365 
L 241.918942 158.924027 
L 242.045352 158.954922 
L 242.085272 158.931753 
L 242.098578 158.985817 
L 242.151804 158.985817 
L 242.191723 158.924027 
L 242.258255 158.954922 
L 242.338093 158.908584 
L 242.371359 158.954922 
L 242.431238 158.993534 
L 242.397972 158.939475 
L 242.47781 158.924027 
L 242.524382 158.88541 
L 242.597568 158.962644 
L 242.770551 158.893132 
L 242.783857 158.916301 
L 242.883655 158.900858 
L 242.896961 158.877689 
L 245.990696 158.777281 
L 246.070534 158.815903 
L 246.1038 158.777281 
L 246.216905 158.82362 
L 246.223558 158.815903 
L 246.356622 158.80045 
L 246.389888 158.839072 
L 246.463073 158.808177 
L 246.576177 158.777281 
L 246.589484 158.83135 
L 246.682628 158.808177 
L 246.702588 158.815903 
L 246.802386 158.76956 
L 246.91549 158.80045 
L 246.842305 158.754112 
L 246.922143 158.785008 
L 246.942103 158.80045 
L 247.035247 158.76956 
L 247.115086 158.785008 
L 247.068513 158.746391 
L 247.148352 158.761838 
L 247.274762 158.730938 
L 247.294722 158.761838 
L 247.407826 158.76956 
L 247.421133 158.754112 
L 247.434439 158.761838 
L 247.520931 158.761838 
L 247.527584 158.80045 
L 247.600769 158.707774 
L 247.620728 158.7155 
L 248.359233 158.676879 
L 248.359233 158.676879 
" clip-path="url(#pd466d3d9b7)" style="fill: none; stroke: #000000; stroke-opacity: 0.5; stroke-width: 1.5; stroke-linecap: square"/>
   </g>
   <g id="line2d_15">
    <path d="M 45.450142 158.290716 
L 45.556593 158.344771 
L 45.516674 158.267542 
L 45.5699 158.321602 
L 45.616472 158.337054 
L 45.69631 158.275268 
L 45.836027 158.267542 
L 45.722923 158.306159 
L 45.84268 158.275268 
L 47.878558 158.383392 
L 47.911824 158.352502 
L 47.985009 158.360223 
L 48.084807 158.329333 
L 48.011621 158.367945 
L 48.098113 158.337054 
L 48.191258 158.391114 
L 48.21787 158.367945 
L 48.324322 158.39884 
L 48.25779 158.344771 
L 48.337628 158.375671 
L 48.483998 158.352502 
L 48.557183 158.391114 
L 48.597103 158.344771 
L 48.610409 158.329333 
L 48.730166 158.375671 
L 48.743473 158.391114 
L 48.783392 158.313885 
L 48.803351 158.298433 
L 48.929762 157.904549 
L 49.169277 157.456586 
L 49.368873 157.1631 
L 49.375526 157.170831 
L 49.408792 157.101319 
L 49.435405 157.101319 
L 49.575122 156.892787 
L 51.644265 154.622121 
L 51.650918 154.629847 
L 51.657571 154.653016 
L 51.73741 154.529445 
L 51.750716 154.583509 
L 51.930352 154.359525 
L 52.435995 153.934746 
L 52.535793 153.934746 
L 52.475914 153.903846 
L 52.542446 153.92702 
L 52.67551 153.764831 
L 52.702123 153.772557 
L 52.775308 153.749384 
L 52.755348 153.726214 
L 52.801921 153.718493 
L 52.994863 153.533131 
L 53.001517 153.548578 
L 53.054742 153.47134 
L 53.081355 153.463623 
L 53.201112 153.355495 
L 53.507159 153.162411 
L 53.580344 153.18558 
L 53.626917 153.131511 
L 53.793247 153.031113 
L 53.913004 152.961601 
L 54.059374 152.830308 
L 54.079334 152.845751 
L 54.125906 152.845751 
L 54.099293 152.822577 
L 54.159172 152.791686 
L 54.245664 152.737627 
L 54.192438 152.81486 
L 54.27893 152.753074 
L 54.438606 152.652667 
L 54.59163 152.55226 
L 54.724694 152.490479 
L 54.771266 152.490479 
L 54.797879 152.41324 
L 54.891023 152.359181 
L 54.917636 152.366902 
L 55.210377 152.181545 
L 55.21703 152.204714 
L 55.250296 152.150649 
L 55.310175 152.150649 
L 55.323481 152.158376 
L 55.489811 152.003904 
L 55.82247 151.918954 
L 55.908962 151.818546 
L 55.942228 151.857158 
L 56.042026 151.764482 
L 56.068639 151.77993 
L 56.228315 151.671801 
L 56.421258 151.579125 
L 56.427911 151.602294 
L 56.507749 151.617737 
L 56.534362 151.571398 
L 56.687386 151.470996 
L 56.733958 151.440105 
L 56.80049 151.478717 
L 56.953513 151.401484 
L 57.020045 151.393762 
L 56.96682 151.386041 
L 57.046658 151.347424 
L 57.086577 151.378315 
L 57.166416 151.29336 
L 57.226294 151.270191 
L 57.272867 151.308803 
L 57.399277 151.177509 
L 57.519035 151.231569 
L 57.532341 151.223852 
L 57.645445 151.131171 
L 57.652099 151.146619 
L 58.117822 151.046207 
L 58.23758 151.007595 
L 58.503707 150.914918 
L 58.623465 150.860854 
L 58.630118 150.868576 
L 59.089188 150.760451 
L 59.215599 150.698661 
L 59.255518 150.737278 
L 59.741201 150.63687 
L 59.854306 150.55192 
L 59.867612 150.567363 
L 60.007329 150.582806 
L 60.013982 150.575089 
L 60.226884 150.482408 
L 60.320029 150.513299 
L 60.306723 150.459239 
L 60.346642 150.497856 
L 60.745834 150.389727 
L 60.852285 150.366553 
L 60.805712 150.428344 
L 60.865591 150.374279 
L 61.018614 150.405175 
L 60.878897 150.358836 
L 61.025268 150.397448 
L 61.138372 150.366553 
L 61.145025 150.374279 
L 61.251476 150.366553 
L 61.351274 150.297046 
L 61.364581 150.320215 
L 61.371234 150.358836 
L 61.38454 150.312494 
L 61.471032 150.320215 
L 61.604096 150.281603 
L 61.624055 150.304772 
L 61.7172 150.273872 
L 61.723853 150.258434 
L 61.88353 150.23526 
L 61.890183 150.273872 
L 61.916796 150.204365 
L 61.989981 150.242986 
L 62.143004 150.158022 
L 62.269415 150.242986 
L 62.282721 150.212091 
L 62.761751 150.111688 
L 62.814977 150.158022 
L 62.874855 150.11941 
L 68.915955 150.227534 
L 68.995793 150.219817 
L 69.022406 150.196643 
L 69.13551 150.173474 
L 69.049019 150.219817 
L 69.142164 150.181196 
L 69.255268 150.227534 
L 69.15547 150.173474 
L 69.268574 150.212091 
L 69.308493 150.173474 
L 69.355066 150.242986 
L 69.381679 150.204365 
L 69.494783 150.181196 
L 69.434904 150.242986 
L 69.501436 150.188922 
L 69.554662 150.242986 
L 69.621194 150.219817 
L 69.807483 150.273872 
L 69.913934 150.266155 
L 69.847402 150.289324 
L 69.920587 150.281603 
L 71.184694 150.389727 
L 71.304451 150.443787 
L 71.211307 150.374279 
L 71.317758 150.428344 
L 71.38429 150.327941 
L 71.450822 150.389727 
L 72.648396 150.497856 
L 72.808073 150.513299 
L 72.961097 150.497856 
L 73.09416 150.590532 
L 73.240531 150.528751 
L 74.191937 150.63687 
L 74.311695 150.629154 
L 74.318348 150.613701 
L 74.344961 150.582806 
L 74.411493 150.660039 
L 74.424799 150.63687 
L 74.53125 150.683213 
L 74.544557 150.66777 
L 74.651008 150.629154 
L 74.67762 150.675492 
L 74.790725 150.690939 
L 74.730846 150.63687 
L 74.797378 150.683213 
L 74.84395 150.660039 
L 74.883869 150.721835 
L 74.903829 150.714109 
L 74.910482 150.729551 
L 74.923789 150.66777 
L 75.003627 150.683213 
L 75.15665 150.652323 
L 75.263101 150.706382 
L 75.183263 150.63687 
L 75.276408 150.690939 
L 75.336287 150.63687 
L 75.389512 150.698661 
L 77.019545 150.806785 
L 77.125996 150.837685 
L 77.05281 150.783616 
L 77.132649 150.806785 
L 77.185874 150.768173 
L 77.2391 150.829954 
L 77.352204 150.822237 
L 77.358857 150.799064 
L 77.392123 150.837685 
L 77.485268 150.783616 
L 77.605026 150.845406 
L 77.678211 150.822237 
L 77.711477 150.860854 
L 77.797968 150.876297 
L 77.824581 150.829954 
L 77.917726 150.806785 
L 77.937685 150.853123 
L 77.984258 150.837685 
L 78.057443 150.868576 
L 79.002196 150.968973 
L 79.068728 150.999869 
L 79.108647 150.953535 
L 79.121954 150.968973 
L 79.221752 150.968973 
L 79.334856 150.968973 
L 79.241711 150.992147 
L 79.348162 150.992147 
L 80.080013 151.09255 
L 80.133239 151.146619 
L 80.193118 151.100276 
L 80.312875 151.084828 
L 80.326182 151.108002 
L 80.485858 151.162057 
L 80.492511 151.146619 
L 80.519124 151.162057 
L 80.612269 151.146619 
L 80.725373 151.216121 
L 80.745333 151.200679 
L 80.811865 151.231569 
L 80.878397 151.169788 
L 80.991501 151.192957 
L 80.998154 151.185231 
L 81.004807 151.15434 
L 81.05138 151.2084 
L 81.104605 151.200679 
L 81.244322 151.254743 
L 82.175769 151.362872 
L 82.328793 151.378315 
L 82.395325 151.331972 
L 82.441897 151.362872 
L 82.461857 151.331972 
L 82.628187 151.40921 
L 82.747944 151.378315 
L 82.654799 151.424653 
L 82.754597 151.386041 
L 82.887661 151.424653 
L 83.047338 151.393762 
L 83.133829 151.447822 
L 83.167095 151.40921 
L 83.253587 151.416936 
L 83.180402 151.424653 
L 83.273546 151.447822 
L 83.360038 151.440105 
L 83.373344 151.416936 
L 83.446529 151.401484 
L 83.42657 151.440105 
L 83.479795 151.432374 
L 84.417896 151.532786 
L 84.437855 151.509613 
L 84.531 151.525055 
L 84.604185 151.501886 
L 84.650757 151.525055 
L 84.757208 151.532786 
L 84.69733 151.509613 
L 84.763862 151.517339 
L 84.857006 151.548225 
L 84.777168 151.509613 
L 84.883619 151.525055 
L 85.63543 151.625463 
L 85.708615 151.586846 
L 85.755187 151.625463 
L 85.901558 151.61002 
L 86.034622 151.656358 
L 86.147726 151.579125 
L 86.167685 151.625463 
L 87.318688 151.72587 
L 87.345301 151.679527 
L 87.431792 151.718139 
L 88.695899 151.81082 
L 88.749124 151.826273 
L 88.722512 151.787651 
L 88.809003 151.803104 
L 88.908801 151.803104 
L 88.862229 151.749039 
L 88.915454 151.787651 
L 88.928761 151.803104 
L 89.028559 151.81082 
L 89.154969 151.857158 
L 89.294686 151.81082 
L 89.321299 151.833989 
L 89.480976 151.849442 
L 89.640652 151.795377 
L 89.653959 151.81082 
L 89.747103 151.89578 
L 89.787023 151.872611 
L 89.860208 151.926675 
L 89.900127 151.84172 
L 90.006578 151.888054 
L 89.940046 151.826273 
L 90.013231 151.872611 
L 90.132989 151.872611 
L 90.226133 151.918954 
L 90.266052 151.864889 
L 90.305972 151.903501 
L 90.372504 151.872611 
L 90.432382 151.934392 
L 90.498914 151.911223 
L 90.618672 151.888054 
L 90.631978 151.918954 
L 90.738429 151.934392 
L 90.691857 151.872611 
L 90.745082 151.926675 
L 90.86484 151.926675 
L 91.024517 151.973013 
L 91.037823 151.957566 
L 93.446279 152.050242 
L 93.55273 152.057973 
L 93.519464 152.019356 
L 93.559383 152.042525 
L 93.712407 152.034804 
L 93.812205 152.065695 
L 93.852124 152.027073 
L 93.88539 152.050242 
L 93.958575 152.050242 
L 94.051719 152.065695 
L 94.084985 152.027073 
L 95.122884 152.135207 
L 95.242641 152.166097 
L 95.342439 152.119754 
L 95.362399 152.150649 
L 95.522075 152.189271 
L 95.389011 152.119754 
L 95.528728 152.173819 
L 97.05231 152.281947 
L 97.125495 152.343733 
L 97.172067 152.305121 
L 97.325091 152.258778 
L 97.331744 152.274226 
L 97.424889 152.343733 
L 97.458154 152.312838 
L 97.571259 152.351459 
L 97.584565 152.32829 
L 98.76218 152.41324 
L 98.842019 152.366902 
L 98.875285 152.43641 
L 99.015002 152.459583 
L 98.901897 152.405524 
L 99.028308 152.44414 
L 99.161372 152.382355 
L 99.321049 152.482753 
L 99.334355 152.44414 
L 99.434153 152.41324 
L 99.374274 152.459583 
L 99.447459 152.428693 
L 99.607136 152.459583 
L 99.613789 152.451862 
L 99.633749 152.505922 
L 99.733547 152.43641 
L 99.773466 152.41324 
L 99.853304 152.490479 
L 99.899876 152.451862 
L 99.966408 152.46731 
L 100.166004 152.529091 
L 100.285762 152.451862 
L 100.34564 152.529091 
L 100.405519 152.482753 
L 100.472051 152.544543 
L 100.505317 152.521374 
L 100.571849 152.536822 
L 100.611768 152.490479 
L 100.718219 152.490479 
L 100.65834 152.55226 
L 100.731526 152.521374 
L 101.96902 152.621777 
L 102.028898 152.55226 
L 102.082124 152.660393 
L 102.135349 152.675836 
L 102.201881 152.629493 
L 102.235147 152.575438 
L 102.314986 152.614055 
L 102.348252 152.660393 
L 102.421437 152.606324 
L 108.256287 152.706731 
L 108.382698 152.745344 
L 108.389351 152.737627 
L 108.535721 152.722174 
L 108.542375 152.745344 
L 108.568987 152.706731 
L 108.642173 152.706731 
L 108.76193 152.706731 
L 108.855075 152.760796 
L 108.775236 152.699005 
L 108.875034 152.722174 
L 108.994792 152.768517 
L 109.021405 152.737627 
L 109.034711 152.722174 
L 109.054671 152.799408 
L 109.114549 152.783965 
L 109.174428 152.753074 
L 109.234307 152.807139 
L 112.414533 152.915258 
L 112.494371 152.93071 
L 112.42784 152.899815 
L 112.514331 152.892089 
L 112.520984 152.861198 
L 112.540944 152.915258 
L 112.627435 152.892089 
L 112.667355 152.95388 
L 112.74054 152.899815 
L 115.634679 152.992492 
L 115.667945 153.031113 
L 115.701211 152.977049 
L 115.747783 153.007944 
L 115.867541 152.977049 
L 115.987298 152.977049 
L 115.993951 152.969327 
L 116.100402 152.93071 
L 116.047177 152.98477 
L 116.107055 152.946158 
L 116.133668 152.892089 
L 116.273385 152.977049 
L 116.353224 152.938427 
L 116.38649 152.969327 
L 116.479634 153.015661 
L 116.499594 152.969327 
L 116.639311 152.977049 
L 119.84615 152.907541 
L 119.879416 152.853477 
L 119.932642 152.938427 
L 119.952601 152.922989 
L 120.065706 152.915258 
L 119.985867 152.946158 
L 120.072359 152.922989 
L 123.917904 152.845751 
L 123.924558 152.807139 
L 124.011049 152.907541 
L 124.017702 152.899815 
L 124.044315 152.86892 
L 124.177379 152.922989 
L 124.210645 152.861198 
L 124.297136 152.907541 
L 124.343709 152.861198 
L 124.403588 152.93071 
L 124.4302 152.899815 
L 124.503385 152.892089 
L 124.523345 152.907541 
L 124.629796 152.853477 
L 124.683022 152.838029 
L 124.7429 152.876646 
L 124.849352 152.861198 
L 124.816086 152.915258 
L 124.856005 152.876646 
L 124.942496 152.899815 
L 124.869311 152.861198 
L 124.975762 152.876646 
L 124.995722 152.892089 
L 125.102173 152.861198 
L 126.106805 152.961601 
L 126.133418 152.969327 
L 126.173337 152.884372 
L 126.19995 152.899815 
L 126.313054 152.892089 
L 126.32636 152.915258 
L 126.36628 152.892089 
L 126.459424 152.946158 
L 126.572529 152.899815 
L 126.585835 152.922989 
L 126.625754 152.977049 
L 126.692286 152.899815 
L 126.758818 152.853477 
L 126.725552 152.922989 
L 126.792084 152.922989 
L 126.905188 152.93071 
L 126.951761 152.961601 
L 127.031599 152.876646 
L 127.144703 152.93071 
L 127.151356 152.922989 
L 135.494461 153.015661 
L 135.560993 153.023392 
L 135.574299 152.977049 
L 135.600912 152.98477 
L 135.607565 152.95388 
L 135.694057 153.038835 
L 135.707363 153.007944 
L 135.84708 153.023392 
L 135.900306 152.992492 
L 135.920265 153.054282 
L 135.953531 153.046561 
L 135.99345 152.98477 
L 136.093248 153.046561 
L 136.226312 153.007944 
L 147.150856 153.108342 
L 147.26396 153.131511 
L 147.184122 153.092899 
L 147.270613 153.108342 
L 163.657428 153.216475 
L 163.757226 153.201023 
L 163.717307 153.154685 
L 163.770533 153.177854 
L 167.216887 153.085173 
L 167.230193 153.054282 
L 167.323338 153.092899 
L 167.349951 153.108342 
L 167.396523 153.054282 
L 167.423136 153.054282 
L 167.602772 153.000222 
L 167.616078 152.992492 
L 167.742489 153.062004 
L 167.888859 152.992492 
L 168.021923 153.038835 
L 168.148334 153.000222 
L 168.288051 153.046561 
L 168.294704 153.023392 
L 168.387849 152.98477 
L 168.407808 153.007944 
L 168.574138 153.031113 
L 169.685222 152.922989 
L 169.731794 152.969327 
L 169.804979 152.922989 
L 169.938043 152.977049 
L 169.944696 152.969327 
L 170.064454 152.98477 
L 170.071107 152.969327 
L 170.124332 152.907541 
L 170.190864 152.93071 
L 170.277356 152.977049 
L 170.303969 152.938427 
L 171.967267 152.861198 
L 172.027146 152.822577 
L 172.080371 152.838029 
L 173.011818 152.753074 
L 173.104963 152.722174 
L 173.124923 152.729905 
L 173.277946 152.737627 
L 173.351131 152.699005 
L 173.39105 152.722174 
L 173.550727 152.737627 
L 174.528746 152.629493 
L 174.608585 152.614055 
L 174.641851 152.637224 
L 176.710994 152.575438 
L 176.737606 152.513648 
L 176.777526 152.590881 
L 176.817445 152.567712 
L 178.899894 152.475031 
L 178.906548 152.451862 
L 178.979733 152.55226 
L 178.993039 152.55226 
L 179.172675 152.513648 
L 179.332352 152.590881 
L 179.339005 152.559986 
L 179.378924 152.598607 
L 179.452109 152.559986 
L 180.769442 152.660393 
L 180.776095 152.675836 
L 180.796054 152.614055 
L 180.86924 152.614055 
L 180.955731 152.614055 
L 180.902506 152.637224 
L 180.975691 152.644946 
L 183.191204 152.753074 
L 183.20451 152.737627 
L 183.364187 152.791686 
L 183.490598 152.722174 
L 183.497251 152.729905 
L 183.643621 152.760796 
L 183.656928 152.745344 
L 183.796645 152.722174 
L 183.803298 152.745344 
L 185.439983 152.838029 
L 185.506515 152.845751 
L 185.479903 152.81486 
L 185.546434 152.807139 
L 185.652886 152.838029 
L 185.593007 152.783965 
L 185.666192 152.81486 
L 185.76599 152.830308 
L 185.779296 152.845751 
L 185.93232 152.892089 
L 185.938973 152.861198 
L 186.025464 152.830308 
L 186.05873 152.861198 
L 188.746621 152.961601 
L 188.846418 152.95388 
L 188.813152 152.907541 
L 188.853072 152.946158 
L 188.906297 152.899815 
L 188.966176 152.95388 
L 189.052667 152.977049 
L 188.999442 152.93071 
L 189.07928 152.95388 
L 189.179078 152.938427 
L 189.09924 152.93071 
L 189.192384 152.922989 
L 189.285529 152.861198 
L 189.218997 152.938427 
L 189.312142 152.915258 
L 189.451859 152.938427 
L 189.325448 152.899815 
L 189.458512 152.93071 
L 189.55831 152.907541 
L 189.518391 152.969327 
L 189.571616 152.93071 
L 189.711334 152.922989 
L 191.467777 153.031113 
L 191.507696 152.992492 
L 191.614147 153.054282 
L 191.747211 152.98477 
L 191.893581 152.98477 
L 196.717146 153.092899 
L 196.83025 153.108342 
L 196.763718 153.062004 
L 196.836904 153.100625 
L 196.963314 153.046561 
L 196.969967 153.06973 
L 197.083072 153.085173 
L 196.989927 153.092899 
L 197.089725 153.092899 
L 197.149604 153.123794 
L 197.196176 153.062004 
L 197.382465 153.108342 
L 197.515529 153.062004 
L 197.701819 153.108342 
L 197.841536 153.06973 
L 197.854842 153.085173 
L 197.914721 153.162411 
L 197.981253 153.108342 
L 206.657017 153.208744 
L 206.743509 153.231918 
L 206.716896 153.18558 
L 206.770121 153.224192 
L 206.889879 153.193306 
L 206.983023 153.231918 
L 206.956411 153.162411 
L 207.009636 153.216475 
L 207.129394 153.208744 
L 207.029596 153.18558 
L 207.136047 153.193306 
L 207.195926 153.255087 
L 207.249151 153.224192 
L 207.375562 153.278256 
L 207.382215 153.262814 
L 207.488666 153.231918 
L 207.408828 153.285983 
L 207.495319 153.247366 
L 207.654996 153.316878 
L 207.668302 153.293709 
L 207.808019 153.231918 
L 208.007615 153.293709 
L 209.66426 153.394107 
L 209.670914 153.417276 
L 209.737446 153.332326 
L 209.757405 153.340047 
L 209.784018 153.355495 
L 209.897122 153.293709 
L 209.983614 153.340047 
L 210.01688 153.324595 
L 210.116678 153.262814 
L 210.056799 153.347768 
L 210.136637 153.309156 
L 210.283007 153.355495 
L 210.296314 153.332326 
L 210.402765 153.309156 
L 210.416071 153.316878 
L 213.935611 153.394107 
L 213.948917 153.44045 
L 214.022102 153.340047 
L 214.042062 153.363216 
L 215.133185 153.448171 
L 215.259596 153.826612 
L 215.492458 154.274575 
L 215.499111 154.24368 
L 215.578949 154.390425 
L 215.778545 154.683911 
L 216.01806 154.985115 
L 216.024713 154.977393 
L 216.044673 154.977393 
L 216.071286 155.04691 
L 216.091245 155.062353 
L 218.014018 157.170831 
L 218.027324 157.147657 
L 218.127122 157.240333 
L 218.260186 157.410248 
L 218.280146 157.379352 
L 218.293452 157.371636 
L 218.306759 157.417974 
L 218.346678 157.448869 
L 218.486395 157.556998 
L 218.499701 157.54155 
L 218.566233 157.641953 
L 218.712603 157.76552 
L 218.799095 157.780972 
L 218.739216 157.79642 
L 218.812401 157.811863 
L 218.972078 157.981777 
L 219.098489 158.08218 
L 219.251512 158.213483 
L 219.437801 158.321602 
L 219.936791 158.738669 
L 219.963404 158.723222 
L 220.009976 158.80045 
L 220.029936 158.80045 
L 220.196265 158.931753 
L 220.269451 158.924027 
L 220.222878 158.954922 
L 220.296063 158.970365 
L 220.655336 159.225239 
L 220.661989 159.209787 
L 220.735174 159.279299 
L 220.748481 159.263856 
L 220.908157 159.356537 
L 221.141019 159.464661 
L 221.300696 159.57279 
L 221.373881 159.595959 
L 221.333962 159.626854 
L 221.380534 159.619124 
L 221.506945 159.704088 
L 221.606742 159.688636 
L 221.613396 159.734974 
L 221.739806 159.819938 
L 221.753113 159.796769 
L 221.759766 159.773595 
L 221.826298 159.897172 
L 221.832951 159.897172 
L 222.01924 159.951231 
L 222.085772 159.935788 
L 222.045853 159.982127 
L 222.112385 159.997569 
L 222.245449 160.067086 
L 222.478311 160.167484 
L 222.604721 160.236991 
L 222.504924 160.144315 
L 222.611375 160.229275 
L 222.624681 160.244722 
L 222.724479 160.252444 
L 222.890809 160.383737 
L 222.957341 160.345125 
L 223.003913 160.391463 
L 223.123671 160.430075 
L 223.130324 160.414637 
L 223.136977 160.383737 
L 223.183549 160.460975 
L 223.230122 160.468697 
L 223.343226 160.522761 
L 223.363186 160.499592 
L 223.582741 160.59999 
L 223.589394 160.584547 
L 223.62266 160.66178 
L 223.675886 160.66178 
L 223.842215 160.715845 
L 223.862175 160.66178 
L 223.942013 160.754461 
L 223.981933 160.723566 
L 224.088384 160.816242 
L 224.208141 160.785357 
L 224.214794 160.800804 
L 224.401084 160.908928 
L 224.447656 160.962988 
L 224.507535 160.916655 
L 224.58072 160.901207 
L 224.540801 160.970714 
L 224.613986 160.947545 
L 224.820235 161.0325 
L 224.627292 160.932097 
L 224.826888 161.024779 
L 224.966605 161.017057 
L 225.093016 161.102007 
L 225.099669 161.086564 
L 225.578699 161.186972 
L 225.711763 161.256479 
L 225.884746 161.310543 
L 225.738376 161.23331 
L 225.891399 161.302822 
L 226.044422 161.287374 
L 226.170833 161.310543 
L 226.736355 161.410946 
L 226.862765 161.426394 
L 227.002482 161.441837 
L 227.009135 161.426394 
L 227.12224 161.418667 
L 227.135546 161.434115 
L 227.275263 161.511344 
L 227.281916 161.495906 
L 227.308529 161.472732 
L 227.328489 161.511344 
L 227.388368 161.526796 
L 227.468206 161.542244 
L 227.488165 161.488175 
L 227.494819 161.495906 
L 227.58131 161.511344 
L 227.554697 161.573139 
L 227.594616 161.526796 
L 227.7676 161.573139 
L 227.774253 161.565413 
L 229.071625 161.665816 
L 229.104891 161.627199 
L 229.18473 161.688989 
L 229.244608 161.650373 
L 229.291181 161.712158 
L 229.430898 161.665816 
L 229.457511 161.688989 
L 229.537349 161.704428 
L 229.510736 161.650373 
L 229.563962 161.665816 
L 229.637147 161.681258 
L 229.657106 161.727601 
L 229.683719 161.696711 
L 229.803477 161.727601 
L 233.535918 161.658089 
L 233.615756 161.60403 
L 233.649022 161.63492 
L 235.159297 161.526796 
L 235.305668 161.511344 
L 235.3722 161.534518 
L 235.418772 161.511344 
L 235.511917 161.511344 
L 235.538529 161.480458 
L 236.762717 161.387777 
L 236.862515 161.372329 
L 236.782677 161.395494 
L 236.869168 161.395494 
L 237.008885 161.387777 
L 237.155255 161.364608 
L 237.161909 161.372329 
L 237.208481 161.380055 
L 237.2484 161.31826 
L 237.261706 161.325991 
L 237.294972 161.380055 
L 237.374811 161.295091 
L 237.514528 161.341434 
L 237.527834 161.325991 
L 237.640938 161.271922 
L 237.5611 161.341434 
L 237.647592 161.295091 
L 237.767349 161.264205 
L 238.8119 161.179241 
L 238.918352 161.140629 
L 238.931658 161.148355 
L 239.058069 161.148355 
L 239.064722 161.132907 
L 239.996169 161.0325 
L 240.08266 161.063395 
L 240.109273 161.017057 
L 240.24899 161.017057 
L 240.395361 161.017057 
L 240.987495 160.924376 
L 241.093946 160.901207 
L 241.020761 160.955271 
L 241.100599 160.916655 
L 241.752612 160.816242 
L 241.812491 160.800804 
L 241.772572 160.839416 
L 241.839103 160.862585 
L 241.872369 160.885755 
L 241.932248 160.808526 
L 241.938901 160.816242 
L 241.958861 160.823973 
L 242.058659 160.785357 
L 242.151804 160.816242 
L 242.171763 160.808526 
L 242.271561 160.754461 
L 242.224989 160.823973 
L 242.284867 160.769904 
L 242.397972 160.762188 
L 242.511076 160.715845 
L 242.424584 160.77763 
L 242.517729 160.723566 
L 242.557648 160.785357 
L 242.630833 160.731292 
L 242.750591 160.708123 
L 242.757244 160.715845 
L 242.79051 160.754461 
L 242.950187 160.646333 
L 243.036678 160.700397 
L 243.063291 160.66178 
L 243.229621 160.59999 
L 243.242927 160.615442 
L 243.302806 160.684954 
L 243.369338 160.63089 
L 243.495749 160.623159 
L 243.382644 160.646333 
L 243.502402 160.638611 
L 243.608853 160.646333 
L 243.529015 160.59999 
L 243.615506 160.623159 
L 243.701998 160.538209 
L 243.72861 160.584547 
L 243.801796 160.592273 
L 243.761876 160.569104 
L 243.828408 160.54593 
L 243.841715 160.576821 
L 243.948166 160.561378 
L 243.994738 160.54593 
L 244.067923 160.576821 
L 244.214293 160.49187 
L 244.220947 160.499592 
L 244.307438 160.553651 
L 244.347357 160.530482 
L 244.433849 160.484144 
L 244.467115 160.515039 
L 244.473768 160.538209 
L 244.5403 160.468697 
L 244.573566 160.49187 
L 244.666711 160.476423 
L 244.68667 160.507309 
L 244.866306 160.445527 
L 244.87296 160.460975 
L 244.879613 160.484144 
L 244.912879 160.422358 
L 244.972758 160.422358 
L 245.125781 160.406906 
L 245.152394 160.430075 
L 245.192313 160.37602 
L 245.232232 160.37602 
L 246.522952 160.267891 
L 246.649362 160.236991 
L 246.656015 160.267891 
L 246.709241 160.229275 
L 246.762467 160.252444 
L 246.875571 160.221553 
L 246.888877 160.229275 
L 247.753792 160.144315 
L 247.760446 160.113424 
L 247.787058 160.182936 
L 247.860243 160.159763 
L 248.01992 160.128872 
L 248.033226 160.152041 
L 248.093105 160.043912 
L 248.106412 160.051639 
L 248.359233 160.136593 
L 248.359233 160.136593 
" clip-path="url(#pd466d3d9b7)" style="fill: none; stroke: #000000; stroke-opacity: 0.5; stroke-width: 1.5; stroke-linecap: square"/>
   </g>
   <g id="line2d_16">
    <path d="M 45.450142 158.584198 
L 45.476755 158.545586 
L 45.576553 158.615093 
L 45.71627 158.561029 
L 45.8826 158.591924 
L 45.995704 158.584198 
L 46.00901 158.615093 
L 46.115461 158.615093 
L 46.035623 158.584198 
L 46.122115 158.607367 
L 46.188647 158.545586 
L 46.235219 158.568755 
L 46.34167 158.59965 
L 46.348323 158.584198 
L 46.461427 158.561029 
L 48.803351 158.460621 
L 48.929762 157.827315 
L 49.235809 156.915956 
L 49.402139 156.568401 
L 49.615041 156.081836 
L 49.67492 155.973712 
L 49.861209 155.587544 
L 50.473303 154.444485 
L 50.519875 154.344082 
L 50.699512 154.004258 
L 50.726124 153.996527 
L 50.746084 153.934746 
L 50.766044 153.919298 
L 51.052131 153.425007 
L 51.205154 153.18558 
L 51.245073 153.108342 
L 51.391444 152.876646 
L 51.398097 152.884372 
L 51.431363 152.799408 
L 51.451322 152.783965 
L 51.790635 152.258778 
L 51.850514 152.227888 
L 51.823901 152.204714 
L 51.870474 152.189271 
L 52.043457 151.911223 
L 52.615631 151.09255 
L 52.775308 150.876297 
L 52.981557 150.55192 
L 52.98821 150.559637 
L 53.014823 150.497856 
L 53.048089 150.474687 
L 53.194459 150.304772 
L 54.658162 148.744655 
L 54.664815 148.767824 
L 54.731347 148.651974 
L 54.751306 148.675147 
L 54.844451 148.582466 
L 54.970862 148.412552 
L 54.984168 148.435721 
L 55.143845 148.327592 
L 55.755939 147.771515 
L 55.762592 147.786962 
L 55.802511 147.694281 
L 55.849083 147.71745 
L 55.955534 147.617048 
L 56.088598 147.485745 
L 56.095251 147.493467 
L 56.115211 147.501198 
L 56.241622 147.377621 
L 56.567628 147.099583 
L 56.587588 147.145921 
L 56.607547 147.161368 
L 56.65412 147.030066 
L 56.660773 147.045518 
L 56.793837 146.937389 
L 56.96682 146.813813 
L 57.226294 146.636182 
L 57.246254 146.659351 
L 57.252907 146.68252 
L 57.326092 146.558948 
L 57.332745 146.558948 
L 57.352705 146.59756 
L 57.366011 146.535779 
L 57.42589 146.535779 
L 57.558954 146.39676 
L 57.565607 146.404476 
L 57.785163 146.319526 
L 57.911573 146.234567 
L 58.05129 146.103269 
L 58.171048 146.072373 
L 58.350684 145.971971 
L 58.370644 145.979692 
L 58.477095 145.91018 
L 58.523667 145.94108 
L 58.570239 145.87929 
L 58.583546 145.87929 
L 58.736569 145.778892 
L 58.849673 145.717097 
L 58.763182 145.802061 
L 58.869633 145.747997 
L 59.162374 145.562634 
L 58.882939 145.763439 
L 59.169027 145.570356 
L 59.222252 145.578082 
L 59.182333 145.554913 
L 59.268825 145.524013 
L 59.295437 145.547187 
L 59.408542 145.446779 
L 59.428501 145.493122 
L 59.521646 145.446779 
L 59.687976 145.330929 
L 59.754508 145.354103 
L 59.787774 145.284591 
L 59.834346 145.315491 
L 59.920838 145.238257 
L 59.94745 145.199641 
L 60.027289 145.230527 
L 60.180312 145.137845 
L 60.200272 145.099233 
L 60.286763 145.130129 
L 60.42648 145.029726 
L 60.493012 145.006557 
L 60.44644 145.006557 
L 60.506319 144.975662 
L 60.599463 144.944762 
L 60.61277 144.991105 
L 60.799059 144.890702 
L 60.945429 144.828912 
L 61.264783 144.751678 
L 61.351274 144.659002 
L 61.38454 144.682171 
L 61.783732 144.581768 
L 61.810345 144.612659 
L 61.916796 144.535425 
L 62.00994 144.558594 
L 61.963368 144.481366 
L 62.023247 144.527708 
L 62.109738 144.473644 
L 62.136351 144.496813 
L 62.143004 144.535425 
L 62.209536 144.450475 
L 62.236149 144.450475 
L 62.375866 144.388684 
L 62.462357 144.435023 
L 62.389172 144.380963 
L 62.48897 144.373237 
L 63.067798 144.265113 
L 63.240781 144.234222 
L 63.294007 144.265113 
L 63.307313 144.211048 
L 63.347232 144.234222 
L 63.44703 144.211048 
L 63.360539 144.241944 
L 63.460336 144.234222 
L 63.480296 144.203322 
L 63.580094 144.211048 
L 63.746424 144.110646 
L 63.77969 144.149258 
L 63.899447 144.149258 
L 63.9061 144.133815 
L 63.939366 144.16471 
L 64.032511 144.079751 
L 64.917386 143.971626 
L 65.010531 143.956174 
L 64.930692 143.987069 
L 65.03049 143.979343 
L 65.123635 144.025691 
L 65.05045 143.9639 
L 65.150248 144.010238 
L 65.250045 143.933005 
L 65.276658 143.956174 
L 65.389763 143.956174 
L 65.316577 143.917562 
L 65.396416 143.948457 
L 65.442988 143.9639 
L 65.516173 143.909836 
L 65.65589 143.917562 
L 65.682503 143.871224 
L 65.768995 143.917562 
L 65.908712 143.894393 
L 65.922018 143.909836 
L 66.00851 143.894393 
L 66.015163 143.863493 
L 66.114961 143.878945 
L 66.055082 143.902114 
L 66.121614 143.886667 
L 66.261331 143.878945 
L 68.430272 143.786264 
L 68.490151 143.755374 
L 68.543376 143.793986 
L 70.938526 143.886667 
L 71.011711 143.948457 
L 71.05163 143.917562 
L 71.138122 143.878945 
L 71.164734 143.886667 
L 71.237919 143.855776 
L 71.277839 143.894393 
L 71.337717 143.863493 
L 71.304451 143.902114 
L 71.38429 143.909836 
L 71.484088 143.878945 
L 71.504047 143.917562 
L 71.570579 143.948457 
L 71.610498 143.894393 
L 71.763522 143.871224 
L 71.86332 143.925288 
L 71.876626 143.894393 
L 72.016343 143.940726 
L 72.036303 143.917562 
L 72.089528 143.979343 
L 72.149407 143.933005 
L 72.235898 143.933005 
L 72.249205 143.956174 
L 72.309084 144.002517 
L 72.335696 143.925288 
L 72.355656 143.948457 
L 72.388922 143.9639 
L 72.475413 143.948457 
L 74.078833 144.033408 
L 74.191937 144.072029 
L 74.291735 144.04886 
L 74.305042 144.095198 
L 74.331654 144.110646 
L 74.371574 144.033408 
L 74.411493 144.064308 
L 75.748785 144.16471 
L 75.762091 144.156984 
L 75.868542 144.211048 
L 75.994953 144.16471 
L 76.161283 144.226491 
L 76.174589 144.211048 
L 76.181242 144.187879 
L 76.267734 144.241944 
L 76.287693 144.21877 
L 77.145955 144.319172 
L 77.172568 144.350072 
L 77.259059 144.303729 
L 78.03083 144.411854 
L 78.117321 144.419575 
L 78.137281 144.365511 
L 78.210466 144.365511 
L 78.190507 144.427306 
L 78.237079 144.380963 
L 78.36349 144.450475 
L 78.503207 144.496813 
L 78.516513 144.512256 
L 78.63627 144.512256 
L 78.769334 144.558594 
L 78.782641 144.527708 
L 78.902398 144.496813 
L 78.809254 144.543156 
L 78.909051 144.512256 
L 79.082034 144.589494 
L 79.088688 144.550878 
L 80.139892 144.651275 
L 80.199771 144.689897 
L 80.252996 144.643559 
L 80.279609 144.666728 
L 80.372754 144.612659 
L 80.459245 144.70534 
L 80.492511 144.666728 
L 80.579003 144.635828 
L 80.612269 144.682171 
L 80.625575 144.674449 
L 80.745333 144.713066 
L 80.851784 144.713066 
L 80.765292 144.728509 
L 80.858437 144.728509 
L 81.703393 144.828912 
L 81.809844 144.859812 
L 81.743312 144.798021 
L 81.82315 144.828912 
L 81.929601 144.852085 
L 82.049359 144.890702 
L 82.169116 144.852085 
L 82.175769 144.859812 
L 82.368712 144.929324 
L 82.475163 144.90615 
L 82.428591 144.944762 
L 82.481816 144.913876 
L 82.63484 145.014274 
L 82.654799 144.967936 
L 82.714678 144.921593 
L 82.767904 144.975662 
L 83.220321 145.076064 
L 83.226974 145.106955 
L 83.306812 145.006557 
L 83.326772 145.060612 
L 83.333425 145.029726 
L 83.393304 145.083786 
L 83.433223 145.068338 
L 83.612859 145.114676 
L 83.725963 145.091507 
L 83.732617 145.122407 
L 83.839068 145.184188 
L 83.859027 145.161019 
L 83.985438 145.161019 
L 84.005398 145.099233 
L 84.098542 145.161019 
L 84.118502 145.137845 
L 84.171727 145.199641 
L 84.19834 145.199641 
L 84.903579 145.300039 
L 84.963457 145.346382 
L 85.016683 145.292317 
L 85.076562 145.276869 
L 85.123134 145.33866 
L 85.242891 145.431341 
L 85.149747 145.323208 
L 85.256198 145.415894 
L 85.382609 145.369551 
L 85.509019 145.45451 
L 85.515672 145.446779 
L 86.320709 145.554913 
L 86.360628 145.524013 
L 86.440466 145.570356 
L 86.533611 145.547187 
L 86.560224 145.570356 
L 86.640062 145.616694 
L 86.586837 145.539461 
L 86.693288 145.554913 
L 87.152358 145.663037 
L 87.331994 145.709375 
L 87.451752 145.693927 
L 87.598122 145.717097 
L 87.604775 145.709375 
L 87.717879 145.724827 
L 87.631388 145.732544 
L 87.724533 145.732544 
L 87.86425 145.778892 
L 87.950741 145.724827 
L 87.977354 145.786609 
L 88.130377 145.809778 
L 88.236829 145.786609 
L 88.243482 145.794335 
L 88.296707 145.832947 
L 88.356586 145.809778 
L 88.363239 145.786609 
L 88.376546 145.832947 
L 88.463037 145.82523 
L 88.556182 145.856121 
L 88.576141 145.832947 
L 88.582795 145.817509 
L 88.649326 145.887016 
L 88.669286 145.863847 
L 88.78239 145.87929 
L 88.908801 145.871568 
L 88.828963 145.933354 
L 88.915454 145.894742 
L 89.035212 145.902459 
L 89.11505 145.91018 
L 89.061824 145.94108 
L 89.148316 145.94108 
L 90.006578 146.041483 
L 90.132989 146.072373 
L 90.286012 146.041483 
L 90.412423 146.103269 
L 90.53218 146.103269 
L 90.538833 146.110995 
L 90.645284 146.172776 
L 90.55214 146.103269 
L 90.665244 146.134164 
L 90.771695 146.110995 
L 90.67855 146.141881 
L 90.778348 146.126443 
L 90.911412 146.203676 
L 91.017863 146.203676 
L 91.037823 146.226845 
L 91.204153 146.273183 
L 91.297297 146.188224 
L 91.32391 146.234567 
L 91.456974 146.250014 
L 91.47028 146.234567 
L 92.26201 146.342695 
L 92.421687 146.358138 
L 92.561404 146.358138 
L 92.707774 146.404476 
L 92.727734 146.381307 
L 93.393053 146.48171 
L 93.506158 146.489436 
L 93.512811 146.48171 
L 93.53277 146.504879 
L 93.625915 146.51261 
L 93.752326 146.558948 
L 93.758979 146.551222 
L 93.86543 146.535779 
L 93.825511 146.574391 
L 93.872083 146.5435 
L 93.991841 146.558948 
L 93.898696 146.59756 
L 93.998494 146.56667 
L 94.144864 146.589843 
L 94.151517 146.574391 
L 94.650507 146.674794 
L 94.683773 146.721132 
L 94.750305 146.628455 
L 94.96986 146.744306 
L 94.976513 146.721132 
L 95.269254 146.806096 
L 95.275907 146.836982 
L 95.329133 146.775201 
L 95.375705 146.806096 
L 95.382358 146.775201 
L 95.462196 146.844708 
L 95.482156 146.821539 
L 95.994452 146.921946 
L 96.021065 146.952837 
L 96.060984 146.898777 
L 96.100903 146.914216 
L 96.659771 147.022349 
L 96.779529 147.05324 
L 96.679731 146.976011 
L 96.786182 147.037792 
L 96.879327 147.014628 
L 96.899286 147.045518 
L 98.030329 147.145921 
L 98.163393 147.176811 
L 98.835366 147.277214 
L 98.842019 147.300383 
L 98.875285 147.246323 
L 98.941817 147.246323 
L 99.061574 147.223149 
L 99.194638 147.292662 
L 99.207944 147.284945 
L 99.367621 147.308114 
L 99.474072 147.300383 
L 99.387581 147.346726 
L 99.487378 147.308114 
L 99.620442 147.269492 
L 99.640402 147.292662 
L 99.846651 147.377621 
L 99.946449 147.315835 
L 99.959755 147.339004 
L 100.079513 147.369895 
L 100.106125 147.400795 
L 100.185964 147.393064 
L 100.279108 147.423964 
L 100.305721 147.416233 
L 100.412172 147.400795 
L 100.425479 147.416233 
L 100.558543 147.423964 
L 100.565196 147.416233 
L 100.605115 147.393064 
L 100.638381 147.454855 
L 100.671647 147.423964 
L 100.731526 147.447133 
L 100.704913 147.408516 
L 100.784751 147.423964 
L 100.891202 147.423964 
L 100.82467 147.478028 
L 100.897855 147.431686 
L 100.984347 147.462576 
L 100.944428 147.408516 
L 101.004307 147.423964 
L 103.146635 147.51664 
L 103.253086 147.532088 
L 103.259739 147.524367 
L 103.266392 147.485745 
L 103.319618 147.570705 
L 103.36619 147.524367 
L 104.184533 147.624769 
L 104.290984 147.640217 
L 104.297637 147.617048 
L 104.410742 147.640217 
L 104.417395 147.647938 
L 105.441987 147.756062 
L 105.528478 147.786962 
L 105.488559 147.725167 
L 105.548438 147.740619 
L 105.581704 147.678829 
L 105.668195 147.725167 
L 105.801259 147.779232 
L 105.807912 147.771515 
L 106.732706 147.871913 
L 106.765972 147.910534 
L 106.752666 147.848744 
L 106.839157 147.848744 
L 108.236328 147.956872 
L 108.256287 147.941425 
L 108.349432 147.956872 
L 108.389351 147.925977 
L 108.462536 147.956872 
L 108.608907 147.995484 
L 108.622213 147.980046 
L 108.728664 147.949146 
L 108.74197 147.980046 
L 109.806481 148.072723 
L 109.912932 148.103618 
L 109.86636 148.041827 
L 109.919586 148.072723 
L 109.986118 148.041827 
L 109.939545 148.088165 
L 110.03269 148.088165 
L 110.132488 148.034106 
L 110.172407 148.072723 
L 110.205673 148.119065 
L 110.292164 148.088165 
L 112.141752 148.165399 
L 112.228244 148.219468 
L 112.254857 148.188568 
L 112.294776 148.149956 
L 112.348001 148.157677 
L 112.361308 148.119065 
L 112.42784 148.211742 
L 112.454452 148.180851 
L 112.587516 148.14223 
L 112.600823 148.165399 
L 112.654048 148.234911 
L 112.727233 148.20402 
L 112.840338 148.17313 
L 112.800418 148.234911 
L 112.846991 148.180851 
L 112.973401 148.25808 
L 113.019974 148.211742 
L 113.153038 148.196299 
L 113.166344 148.211742 
L 116.805641 148.312149 
L 116.898785 148.366214 
L 116.925398 148.335318 
L 116.965317 148.350761 
L 117.045156 148.304418 
L 121.09695 148.412552 
L 121.223361 148.412552 
L 121.303199 148.443447 
L 121.343119 148.397099 
L 121.436263 148.412552 
L 121.456223 148.397099 
L 121.57598 148.389383 
L 126.692286 148.466616 
L 126.705592 148.512954 
L 126.745512 148.443447 
L 126.798737 148.466616 
L 133.365439 148.574735 
L 133.398705 148.559297 
L 133.498503 148.605635 
L 133.61826 148.559297 
L 133.744671 148.582466 
L 133.851122 148.528402 
L 133.864429 148.551571 
L 133.924307 148.528402 
L 133.977533 148.597909 
L 134.057371 148.536123 
L 134.090637 148.567014 
L 134.143863 148.582466 
L 134.123903 148.543845 
L 134.197088 148.559297 
L 134.223701 148.582466 
L 134.350112 148.551571 
L 134.503135 148.582466 
L 134.509788 148.567014 
L 134.682771 148.536123 
L 138.747872 148.628805 
L 138.761179 148.651974 
L 138.767832 148.605635 
L 138.860977 148.621078 
L 138.947468 148.651974 
L 138.894243 148.567014 
L 138.994041 148.605635 
L 139.147064 148.582466 
L 139.260168 148.644247 
L 139.273475 148.628805 
L 139.340007 148.651974 
L 139.393232 148.567014 
L 139.519643 148.6597 
L 139.6394 148.621078 
L 139.759158 148.6597 
L 144.72244 148.760098 
L 144.842198 148.783267 
L 144.7424 148.744655 
L 144.848851 148.77555 
L 145.574049 148.690586 
L 145.613968 148.729207 
L 145.687153 148.675147 
L 148.973831 148.767824 
L 148.980484 148.790998 
L 148.99379 148.752381 
L 149.080282 148.744655 
L 149.200039 148.736929 
L 149.206692 148.690586 
L 149.293184 148.752381 
L 149.30649 148.736929 
L 155.793354 148.82961 
L 155.800007 148.852784 
L 155.886499 148.760098 
L 161.268932 148.845057 
L 161.275585 148.875953 
L 161.328811 148.790998 
L 161.36873 148.790998 
L 161.435262 148.783267 
L 161.408649 148.82961 
L 161.468528 148.821888 
L 161.481834 148.868231 
L 161.581632 148.814162 
L 161.747962 148.837331 
L 165.95278 148.937738 
L 165.986046 148.906843 
L 166.059231 148.930012 
L 166.145723 148.906843 
L 166.172335 148.930012 
L 166.351972 148.868231 
L 166.358625 148.883669 
L 166.511648 148.906843 
L 166.518302 148.899122 
L 166.638059 148.914569 
L 166.737857 148.97635 
L 166.757816 148.930012 
L 166.771123 148.899122 
L 166.804389 148.953181 
L 166.864268 148.937738 
L 166.970719 148.945465 
L 166.91084 148.8914 
L 166.984025 148.914569 
L 167.110436 148.930012 
L 167.20358 148.937738 
L 167.150355 148.906843 
L 167.216887 148.906843 
L 167.256806 148.97635 
L 167.36991 148.8914 
L 167.383217 148.868231 
L 167.502974 148.8914 
L 167.589466 148.883669 
L 167.5562 148.922291 
L 167.616078 148.899122 
L 167.729183 148.899122 
L 167.636038 148.868231 
L 167.735836 148.868231 
L 167.789061 148.922291 
L 167.862247 148.845057 
L 167.988657 148.930012 
L 168.001964 148.906843 
L 168.081802 148.852784 
L 168.121721 148.875953 
L 171.082392 148.77555 
L 171.175537 148.783267 
L 171.122311 148.837331 
L 171.188843 148.798719 
L 171.341867 148.837331 
L 171.34852 148.82961 
L 171.481584 148.767824 
L 171.51485 148.783267 
L 171.588035 148.783267 
L 171.701139 148.814162 
L 171.634607 148.760098 
L 171.707792 148.806436 
L 171.834203 148.752381 
L 175.500113 148.852784 
L 175.540032 148.821888 
L 175.613217 148.845057 
L 178.693645 148.945465 
L 178.780137 148.968634 
L 178.800096 148.922291 
L 178.93316 148.960908 
L 178.946467 148.937738 
L 179.032958 148.899122 
L 179.012999 148.953181 
L 179.059571 148.930012 
L 184.315594 149.030415 
L 184.415392 149.022693 
L 184.402085 148.984081 
L 184.422045 149.014972 
L 184.548455 149.022693 
L 184.555109 149.030415 
L 184.674866 149.030415 
L 184.681519 149.014972 
L 184.814583 149.022693 
L 184.9543 149.022693 
L 185.074058 148.984081 
L 185.080711 149.00725 
L 185.220428 149.061315 
L 186.524454 148.968634 
L 186.630905 148.937738 
L 186.597639 148.984081 
L 186.637558 148.960908 
L 186.690784 148.937738 
L 186.650865 148.984081 
L 186.750662 148.97635 
L 186.863767 149.00725 
L 186.87042 148.984081 
L 187.01679 148.937738 
L 187.023443 148.953181 
L 187.123241 148.984081 
L 187.136548 148.953181 
L 193.743169 149.030415 
L 193.84962 149.069036 
L 193.856273 149.045863 
L 196.131665 149.153991 
L 196.278035 149.169434 
L 196.411099 149.138548 
L 196.497591 149.115375 
L 196.530857 149.192603 
L 196.617348 149.107653 
L 196.650614 149.153991 
L 196.723799 149.208056 
L 196.750412 149.177165 
L 196.777025 149.200334 
L 196.85021 149.138548 
L 196.983274 149.138548 
L 196.863516 149.153991 
L 196.989927 149.146265 
L 197.003233 149.130822 
L 197.116338 149.153991 
L 197.149604 149.115375 
L 197.229442 149.146265 
L 197.402425 149.115375 
L 197.535489 149.153991 
L 197.608674 149.130822 
L 197.588714 149.177165 
L 197.655246 149.153991 
L 204.541302 149.254399 
L 204.661059 149.285289 
L 204.581221 149.231225 
L 204.667712 149.277568 
L 212.984204 149.200334 
L 213.044083 149.153991 
L 213.090655 149.184887 
L 213.137227 149.238946 
L 213.210412 149.215777 
L 213.296904 149.146265 
L 213.336823 149.177165 
L 213.47654 149.200334 
L 213.483193 149.184887 
L 213.582991 149.184887 
L 213.602951 149.208056 
L 213.62291 149.254399 
L 213.716055 149.208056 
L 215.133185 149.31618 
L 215.259596 149.9495 
L 217.255554 154.313192 
L 217.275514 154.305461 
L 217.315433 154.390425 
L 217.495069 154.714797 
L 217.701318 155.124139 
L 218.087203 155.757454 
L 218.093856 155.749728 
L 218.133776 155.842409 
L 218.140429 155.842409 
L 218.313412 156.120452 
L 218.340025 156.120452 
L 218.379944 156.205407 
L 218.599499 156.568401 
L 218.659378 156.676534 
L 218.938812 157.070419 
L 218.945465 157.05498 
L 218.992037 157.178552 
L 219.011997 157.178552 
L 219.178327 157.502929 
L 222.511577 161.248753 
L 222.524883 161.23331 
L 222.531536 161.225584 
L 222.571456 161.333712 
L 222.731132 161.449563 
L 222.604721 161.31826 
L 222.737785 161.441837 
L 222.824277 161.519075 
L 222.950688 161.673542 
L 222.857543 161.511344 
L 222.957341 161.665816 
L 222.963994 161.642646 
L 223.003913 161.712158 
L 223.057139 161.688989 
L 223.176896 161.828004 
L 223.203509 161.80484 
L 223.210162 161.797113 
L 223.270041 161.897511 
L 223.276694 161.882073 
L 223.403105 161.990192 
L 223.496249 162.082878 
L 223.62266 162.167833 
L 223.78899 162.275962 
L 223.948667 162.37636 
L 224.035158 162.469046 
L 224.154916 162.523105 
L 224.194835 162.507662 
L 224.24806 162.584896 
L 224.407737 162.677577 
L 224.554107 162.762527 
L 224.687171 162.924725 
L 224.700477 162.916999 
L 224.713784 162.870661 
L 224.786969 162.947894 
L 224.806928 162.947894 
L 224.939992 162.994232 
L 224.953299 162.963342 
L 225.033137 163.048292 
L 225.03979 163.048292 
L 225.186161 163.156426 
L 225.478901 163.256828 
L 225.598658 163.3804 
L 225.625271 163.364947 
L 225.878093 163.457629 
L 226.01781 163.596653 
L 226.117608 163.534867 
L 226.137567 163.565762 
L 226.303897 163.673881 
L 226.337163 163.642996 
L 226.343816 163.627543 
L 226.397042 163.75112 
L 226.430308 163.704781 
L 226.576678 163.766567 
L 226.603291 163.81291 
L 226.703089 163.789736 
L 226.822846 163.905587 
L 226.829499 163.897865 
L 226.876072 163.866965 
L 226.942604 163.913308 
L 227.095627 163.98282 
L 227.12224 163.951929 
L 227.388368 164.052332 
L 227.488165 164.075501 
L 227.428287 164.029163 
L 227.501472 164.03688 
L 227.541391 164.052332 
L 227.534738 164.090949 
L 227.594616 164.09867 
L 227.800865 164.191351 
L 227.847438 164.129561 
L 227.91397 164.160461 
L 228.047034 164.276306 
L 228.100259 164.222247 
L 228.153485 164.260863 
L 228.180098 164.299475 
L 228.253283 164.245416 
L 228.259936 164.21452 
L 228.333121 164.299475 
L 228.353081 164.291754 
L 228.938562 164.399883 
L 229.078279 164.469395 
L 228.951868 164.376714 
L 229.104891 164.430778 
L 229.18473 164.376714 
L 229.224649 164.415326 
L 229.404285 164.477116 
L 229.410938 164.461669 
L 229.517389 164.438499 
L 229.530696 164.484838 
L 229.650453 164.515728 
L 229.670413 164.477116 
L 234.161318 164.368983 
L 234.307689 164.353544 
L 234.187931 164.407604 
L 234.314342 164.361266 
L 234.420793 164.338097 
L 234.367567 164.314928 
L 234.427446 164.330371 
L 234.527244 164.299475 
L 234.547204 164.314928 
L 234.666961 164.284032 
L 234.693574 164.314928 
L 234.70688 164.299475 
L 234.786719 164.276306 
L 234.906476 164.222247 
L 234.913129 164.229968 
L 235.01958 164.199073 
L 234.939742 164.268585 
L 235.046193 164.245416 
L 235.152644 164.222247 
L 235.159297 164.206799 
L 235.81131 164.106392 
L 235.917761 164.106392 
L 235.864536 164.129561 
L 235.924415 164.114118 
L 235.970987 164.106392 
L 235.951027 164.083223 
L 236.010906 164.060049 
L 236.130664 164.021437 
L 236.057478 164.106392 
L 236.137317 164.044611 
L 236.283687 164.052332 
L 236.296993 164.06778 
L 236.423404 163.990546 
L 236.556468 163.98282 
L 236.649613 163.959646 
L 236.669572 163.98282 
L 236.676225 163.998268 
L 236.749411 163.92876 
L 236.76937 163.936477 
L 236.909087 163.936477 
L 236.982272 163.975099 
L 237.008885 163.905587 
L 237.155255 163.874696 
L 237.028845 163.92876 
L 237.161909 163.890139 
L 237.181868 163.859248 
L 237.288319 163.882417 
L 237.441343 163.782015 
L 237.467955 163.820627 
L 237.547794 163.774293 
L 237.567753 163.782015 
L 237.667551 163.75112 
L 237.807268 163.75112 
L 237.840534 163.774293 
L 237.89376 163.712503 
L 237.913719 163.75112 
L 238.033477 163.697055 
L 238.146581 163.697055 
L 238.153234 163.666165 
L 238.1865 163.6121 
L 238.266339 163.650712 
L 238.678837 163.550314 
L 238.765328 163.542593 
L 238.692143 163.565762 
L 238.785288 163.58121 
L 238.984884 163.488529 
L 238.991537 163.511698 
L 239.011496 163.534867 
L 239.031456 163.473081 
L 239.097988 163.480798 
L 239.16452 163.488529 
L 239.197786 163.426743 
L 239.869758 163.341783 
L 239.962903 163.233659 
L 239.996169 163.249102 
L 240.455239 163.171864 
L 240.461892 163.117809 
L 240.495158 163.179595 
L 240.568344 163.140978 
L 240.688101 163.171864 
L 240.594956 163.102361 
L 240.701407 163.12553 
L 240.854431 163.110083 
L 240.967535 163.102361 
L 240.87439 163.086913 
L 240.974188 163.086913 
L 241.067333 163.017401 
L 241.093946 163.086913 
L 241.313501 162.994232 
L 241.439912 162.986511 
L 241.572976 162.955611 
L 241.626201 162.947894 
L 241.659467 162.886108 
L 241.765918 162.89383 
L 241.692733 162.924725 
L 241.779225 162.916999 
L 241.805838 162.940168 
L 241.825797 162.878377 
L 241.885676 162.89383 
L 241.965514 162.847492 
L 242.005433 162.878377 
L 242.125191 162.801149 
L 242.138497 162.816596 
L 242.18507 162.832039 
L 242.158457 162.80887 
L 242.244948 162.785696 
L 242.258255 162.770258 
L 242.358053 162.77798 
L 242.830429 162.685298 
L 242.930227 162.654408 
L 242.950187 162.669851 
L 243.163089 162.569443 
L 243.276193 162.608065 
L 243.282846 162.584896 
L 243.555627 162.476767 
L 243.615506 162.523105 
L 243.675385 162.476767 
L 243.741917 162.422703 
L 243.801796 162.499936 
L 244.147762 162.414981 
L 244.167721 162.422703 
L 244.267519 162.368643 
L 244.919532 162.26824 
L 245.025983 162.214176 
L 245.032636 162.221898 
L 245.139087 162.26051 
L 245.099168 162.198728 
L 245.152394 162.237345 
L 245.232232 162.229624 
L 245.252192 162.198728 
L 245.378602 162.15239 
L 245.431828 162.191007 
L 245.391909 162.144664 
L 245.485053 162.15239 
L 245.66469 162.082878 
L 245.671343 162.098326 
L 245.7911 162.090595 
L 245.724568 162.051983 
L 245.797754 162.075157 
L 245.944124 162.005645 
L 246.043922 162.03654 
L 246.057228 162.028814 
L 246.183639 161.967023 
L 246.196945 161.982476 
L 246.702588 161.882073 
L 246.842305 161.83573 
L 246.975369 161.851173 
L 246.982022 161.828004 
L 247.614075 161.71988 
L 247.780405 161.696711 
L 247.886856 161.688989 
L 247.833631 161.642646 
L 247.893509 161.681258 
L 247.999961 161.596308 
L 248.01992 161.642646 
L 248.192903 161.580861 
L 248.199556 161.596308 
L 248.325967 161.627199 
L 248.33262 161.596308 
L 248.345927 161.565413 
L 248.359233 161.573139 
" clip-path="url(#pd466d3d9b7)" style="fill: none; stroke: #000000; stroke-opacity: 0.5; stroke-width: 1.5; stroke-linecap: square"/>
   </g>
   <g id="line2d_17">
    <path d="M 45.450142 158.970365 
L 48.803351 158.893132 
L 48.929762 158.120801 
L 49.348913 156.691982 
L 51.704144 151.463274 
L 51.71745 151.470996 
L 51.970272 151.007595 
L 52.482567 150.096241 
L 52.555753 150.011281 
L 52.708776 149.748685 
L 52.795268 149.640566 
L 53.141234 149.092205 
L 53.147887 149.107653 
L 53.187806 148.984081 
L 53.221072 149.022693 
L 53.540425 148.551571 
L 53.580344 148.466616 
L 53.726715 148.28898 
L 53.806553 148.20402 
L 53.96623 147.980046 
L 54.019455 147.871913 
L 54.205744 147.570705 
L 54.212398 147.6016 
L 54.23901 147.609317 
L 54.272276 147.51664 
L 54.40534 147.346726 
L 54.411993 147.362178 
L 54.418647 147.369895 
L 54.471872 147.269492 
L 54.658162 147.022349 
L 54.698081 147.05324 
L 54.731347 146.945116 
L 54.738 146.945116 
L 54.844451 146.836982 
L 56.700692 144.813473 
L 56.707345 144.828912 
L 56.733958 144.859812 
L 56.793837 144.774852 
L 56.80049 144.774852 
L 56.886981 144.682171 
L 56.906941 144.689897 
L 57.020045 144.581768 
L 57.505728 144.16471 
L 57.512382 144.203322 
L 57.59222 144.118372 
L 57.605526 144.126089 
L 57.751897 143.9639 
L 57.918226 143.863493 
L 58.064597 143.724474 
L 58.07125 143.732205 
L 58.131129 143.716752 
L 58.151088 143.654971 
L 58.157741 143.662693 
L 58.304112 143.546838 
L 58.310765 143.577733 
L 58.38395 143.554559 
L 58.36399 143.523668 
L 58.40391 143.523668 
L 58.736569 143.253356 
L 58.749876 143.268804 
L 58.756529 143.291968 
L 58.823061 143.183844 
L 58.84302 143.199292 
L 58.976084 143.091158 
L 58.996044 143.114332 
L 59.169027 143.013929 
L 59.188986 143.021651 
L 59.315397 142.898074 
L 59.475074 142.805398 
L 59.614791 142.681822 
L 59.621444 142.697274 
L 59.65471 142.650936 
L 59.721242 142.658653 
L 59.874265 142.527359 
L 59.900878 142.550528 
L 59.94745 142.465569 
L 59.974063 142.488743 
L 60.233538 142.326549 
L 60.246844 142.342002 
L 60.266804 142.357445 
L 60.326682 142.249316 
L 60.42648 142.233868 
L 60.339989 142.233868 
L 60.439787 142.210699 
L 60.712568 142.056237 
L 60.772446 142.063954 
L 60.792406 141.98672 
L 60.799059 141.994446 
L 60.819019 142.009889 
L 60.932123 141.924939 
L 60.945429 141.948104 
L 60.978695 141.886322 
L 61.025268 141.894039 
L 61.151678 141.809089 
L 61.397847 141.700955 
L 61.55087 141.538767 
L 61.663974 141.546493 
L 61.564176 141.531046 
L 61.670627 141.538767 
L 61.783732 141.46926 
L 61.797038 141.476986 
L 61.876876 141.453817 
L 61.810345 141.453817 
L 61.890183 141.415195 
L 62.076472 141.322514 
L 62.216189 141.1835 
L 62.355906 141.191221 
L 62.528889 141.036754 
L 62.555502 141.083088 
L 62.588768 141.013585 
L 62.63534 141.013585 
L 62.914775 140.859113 
L 62.961347 140.913178 
L 63.007919 140.835944 
L 63.021226 140.859113 
L 63.234128 140.758715 
L 63.240781 140.774158 
L 63.333926 140.720094 
L 63.453683 140.650582 
L 63.46699 140.658308 
L 63.500256 140.681482 
L 63.546828 140.604248 
L 63.566788 140.627413 
L 63.75973 140.557906 
L 63.859528 140.557906 
L 63.806303 140.52701 
L 63.866181 140.534736 
L 63.9061 140.557906 
L 64.012552 140.457498 
L 64.019205 140.496115 
L 64.079083 140.418886 
L 64.119003 140.442055 
L 64.338558 140.357096 
L 64.40509 140.380265 
L 64.458315 140.326205 
L 64.544807 140.272141 
L 64.57142 140.318484 
L 64.917386 140.21035 
L 65.170207 140.079057 
L 65.270005 140.032719 
L 65.409722 139.947759 
L 65.615971 139.855078 
L 65.622624 139.862804 
L 65.67585 139.885973 
L 65.729075 139.839635 
L 65.922018 139.762397 
L 65.995203 139.777845 
L 65.955284 139.739228 
L 66.021816 139.746954 
L 66.15488 139.654273 
L 66.334516 139.592482 
L 66.341169 139.600213 
L 66.414354 139.592482 
L 66.421007 139.55387 
L 66.440967 139.55387 
L 66.527459 139.522975 
L 66.460927 139.515249 
L 66.540765 139.507532 
L 66.640563 139.445742 
L 66.647216 139.49208 
L 66.673829 139.538418 
L 66.747014 139.43802 
L 66.773627 139.468911 
L 66.813546 139.391677 
L 66.846812 139.407129 
L 66.959916 139.37623 
L 66.880078 139.422568 
L 66.966569 139.391677 
L 67.146206 139.35306 
L 67.352455 139.260384 
L 67.472212 139.167703 
L 67.485518 139.183146 
L 67.585316 139.198598 
L 67.518784 139.136808 
L 67.598623 139.175424 
L 67.698421 139.159977 
L 67.71838 139.190872 
L 67.725033 139.206315 
L 67.764953 139.113634 
L 67.818178 139.144534 
L 68.024427 139.044131 
L 68.097612 139.098196 
L 68.130878 139.059574 
L 68.210717 139.0673 
L 68.164144 139.028684 
L 68.230676 139.020962 
L 68.330474 138.959172 
L 68.277248 139.0364 
L 68.350434 138.990062 
L 68.483497 138.997788 
L 68.503457 139.005514 
L 68.603255 138.966893 
L 68.636521 138.92055 
L 68.709706 138.943724 
L 68.949221 138.773809 
L 68.962527 138.820147 
L 69.241961 138.712028 
L 69.381679 138.665685 
L 69.528049 138.642516 
L 69.414945 138.696576 
L 69.534702 138.650233 
L 69.627847 138.619347 
L 69.641153 138.603895 
L 69.734298 138.526666 
L 69.667766 138.611621 
L 69.760911 138.565283 
L 70.233287 138.464875 
L 70.299819 138.464875 
L 70.253247 138.480323 
L 70.333085 138.511214 
L 70.599213 138.34903 
L 70.619173 138.395368 
L 70.672398 138.302687 
L 70.712317 138.356751 
L 71.111509 138.271792 
L 71.211307 138.194558 
L 71.231266 138.240896 
L 71.53066 138.140498 
L 71.543966 138.148215 
L 71.67703 138.032365 
L 71.823401 138.032365 
L 72.262511 137.931962 
L 72.375616 137.854729 
L 72.402228 137.885624 
L 72.621784 137.800669 
L 72.741541 137.785222 
L 72.861299 137.707993 
L 72.867952 137.71571 
L 72.954443 137.723436 
L 72.921177 137.677098 
L 72.974403 137.684819 
L 73.100814 137.615307 
L 73.200612 137.653928 
L 73.240531 137.607586 
L 73.366941 137.538078 
L 73.373595 137.568964 
L 73.480046 137.607586 
L 73.493352 137.584416 
L 73.639722 137.484014 
L 73.73952 137.453114 
L 73.75948 137.460845 
L 73.812705 137.391333 
L 73.859278 137.414502 
L 73.959076 137.306373 
L 73.985688 137.368164 
L 73.992342 137.406776 
L 74.078833 137.306373 
L 74.092139 137.337264 
L 74.198591 137.414502 
L 74.118752 137.314095 
L 74.225203 137.329542 
L 74.38488 137.244592 
L 74.411493 137.275483 
L 74.517944 137.252313 
L 74.471371 137.205971 
L 74.524597 137.236861 
L 74.651008 137.136458 
L 74.670967 137.167354 
L 74.790725 137.213692 
L 74.69758 137.136458 
L 74.817338 137.167354 
L 74.857257 137.190523 
L 74.957055 137.113289 
L 74.983667 137.14418 
L 75.036893 137.082399 
L 75.063506 137.09012 
L 75.269755 136.981996 
L 75.283061 136.997439 
L 75.476004 136.912484 
L 75.589108 136.943375 
L 75.602414 136.904758 
L 75.688906 136.904758 
L 75.65564 136.943375 
L 75.708865 136.920206 
L 75.715519 136.943375 
L 75.795357 136.827525 
L 75.881848 136.835251 
L 75.915114 136.796634 
L 76.13467 136.688505 
L 76.287693 136.588103 
L 76.340919 136.673062 
L 76.400798 136.642162 
L 76.533861 136.57266 
L 76.540515 136.595829 
L 76.580434 136.557212 
L 76.653619 136.57266 
L 76.786683 136.472252 
L 76.833255 136.479979 
L 76.853215 136.410467 
L 76.879827 136.410467 
L 77.139302 136.248273 
L 76.893134 136.42591 
L 77.145955 136.263726 
L 77.199181 136.225104 
L 77.259059 136.263726 
L 77.525187 136.109254 
L 77.558453 136.163323 
L 77.618332 136.05519 
L 77.624985 136.070642 
L 77.784662 135.97024 
L 77.937685 135.893001 
L 78.050789 135.900727 
L 78.064096 135.869827 
L 78.077402 135.893001 
L 78.396756 135.653575 
L 78.423368 135.684475 
L 78.476594 135.576341 
L 78.4899 135.576341 
L 78.649577 135.475943 
L 78.795947 135.329198 
L 78.835866 135.352372 
L 78.895745 135.290576 
L 79.022156 135.128388 
L 79.055422 135.167005 
L 79.088688 135.190174 
L 79.161873 135.143836 
L 79.288283 135.020264 
L 79.308243 135.035712 
L 79.408041 134.989373 
L 79.800579 134.618649 
L 79.820539 134.641818 
L 79.827192 134.672709 
L 79.900377 134.525968 
L 80.119933 134.294272 
L 80.805212 133.62234 
L 80.811865 133.65323 
L 80.818518 133.660952 
L 80.86509 133.583718 
L 80.88505 133.583718 
L 81.05138 133.390635 
L 81.058033 133.398356 
L 81.111258 133.290237 
L 81.277588 133.027636 
L 81.503797 132.595131 
L 81.736659 132.185799 
L 81.756618 132.116282 
L 81.956214 131.482971 
L 82.122544 131.119968 
L 82.342099 130.332195 
L 82.401978 129.667987 
L 82.428591 125.427864 
L 82.488469 49.769942 
L 82.548348 14.76 
L 82.608227 32.253389 
L 82.974153 139.368508 
L 83.153789 142.890358 
L 83.346731 143.160675 
L 83.379997 143.137501 
L 83.473142 143.152953 
L 83.493102 143.106611 
L 83.672738 143.052541 
L 83.706004 143.091158 
L 83.765883 142.998482 
L 83.878987 142.952139 
L 83.792495 143.021651 
L 83.898946 142.967591 
L 83.992091 142.99076 
L 83.912253 142.95987 
L 84.018704 142.975308 
L 85.668696 143.067989 
L 85.788453 143.114332 
L 85.688655 143.04482 
L 85.795107 143.106611 
L 86.347322 143.199292 
L 86.387241 143.176123 
L 86.460426 143.222461 
L 86.526958 143.214735 
L 86.560224 143.253356 
L 86.679981 143.261073 
L 87.292075 143.361475 
L 87.425139 143.415544 
L 87.431792 143.407818 
L 87.791065 143.508221 
L 87.824331 143.492778 
L 87.924128 143.546838 
L 88.050539 143.554559 
L 88.150337 143.570007 
L 88.077152 143.53139 
L 88.15699 143.554559 
L 88.203563 143.523668 
L 88.170297 143.56229 
L 88.270094 143.546838 
L 88.423118 143.624071 
L 88.536222 143.624071 
L 88.63602 143.701309 
L 88.65598 143.67814 
L 89.161622 143.778543 
L 89.181582 143.755374 
L 89.28138 143.832607 
L 89.401137 143.801712 
L 90.099723 143.902114 
L 90.126335 143.948457 
L 90.179561 143.863493 
L 90.206174 143.909836 
L 90.212827 143.886667 
L 90.286012 143.9639 
L 90.305972 143.956174 
L 90.319278 143.940726 
L 90.492261 144.010238 
L 90.558793 144.064308 
L 90.598712 144.025691 
L 90.731776 144.072029 
L 90.851533 144.041138 
L 91.064436 144.141541 
L 90.871493 144.002517 
L 91.071089 144.133815 
L 91.17754 144.118372 
L 91.204153 144.141541 
L 91.330563 144.211048 
L 91.443668 144.180153 
L 91.456974 144.195601 
L 91.570078 144.226491 
L 91.47028 144.187879 
L 91.576732 144.211048 
L 91.955964 144.303729 
L 92.035802 144.334625 
L 92.069068 144.311456 
L 92.255357 144.357794 
L 92.28197 144.334625 
L 92.308583 144.380963 
L 92.361808 144.365511 
L 92.381768 144.342342 
L 92.488219 144.388684 
L 92.59467 144.380963 
L 92.601323 144.396406 
L 92.707774 144.458196 
L 92.734387 144.427306 
L 92.840838 144.404132 
L 92.854145 144.427306 
L 92.874104 144.481366 
L 92.940636 144.404132 
L 92.967249 144.427306 
L 93.526117 144.527708 
L 93.659181 144.597216 
L 93.792245 144.535425 
L 93.798898 144.550878 
L 94.637201 144.628106 
L 94.750305 144.666728 
L 94.770264 144.62039 
L 94.850103 144.697623 
L 94.96986 144.689897 
L 94.976513 144.674449 
L 95.009779 144.70534 
L 95.109577 144.666728 
L 95.182762 144.73624 
L 95.222682 144.713066 
L 95.355745 144.720792 
L 95.382358 144.759409 
L 95.46885 144.720792 
L 95.522075 144.743961 
L 95.588607 144.713066 
L 96.194048 144.805747 
L 96.313805 144.852085 
L 96.320458 144.844359 
L 96.347071 144.805747 
L 96.440216 144.852085 
L 97.318437 144.952493 
L 97.411582 145.022 
L 97.438195 144.998831 
L 97.591218 144.967936 
L 97.611178 144.991105 
L 97.637791 144.937045 
L 97.697669 144.944762 
L 97.870652 145.006557 
L 97.883959 144.991105 
L 98.309763 145.083786 
L 98.369642 145.106955 
L 98.343029 145.068338 
L 98.422868 145.091507 
L 99.547257 145.199641 
L 99.57387 145.168745 
L 99.667015 145.215084 
L 99.760159 145.168745 
L 99.706934 145.230527 
L 99.773466 145.230527 
L 99.90653 145.261422 
L 99.919836 145.230527 
L 99.986368 145.215084 
L 99.946449 145.253696 
L 100.026287 145.261422 
L 100.039594 145.292317 
L 100.0529 145.215084 
L 100.132738 145.230527 
L 100.272455 145.276869 
L 100.292415 145.253696 
L 100.392213 145.276869 
L 100.312374 145.276869 
L 100.398866 145.292317 
L 100.505317 145.276869 
L 100.412172 145.276869 
L 100.51197 145.253696 
L 101.702892 145.33866 
L 101.809343 145.384998 
L 101.736158 145.330929 
L 101.815996 145.377272 
L 101.94906 145.315491 
L 101.835956 145.392724 
L 101.955713 145.323208 
L 102.74079 145.415894 
L 102.767403 145.485401 
L 102.860547 145.439063 
L 102.920426 145.42361 
L 102.973652 145.446779 
L 103.99159 145.547187 
L 104.104695 145.554913 
L 104.004897 145.524013 
L 104.111348 145.547187 
L 104.191186 145.531744 
L 104.137961 145.562634 
L 104.224452 145.562634 
L 104.251065 145.531744 
L 104.357516 145.570356 
L 104.450661 145.570356 
L 104.417395 145.608977 
L 104.47062 145.578082 
L 104.623644 145.547187 
L 104.730095 145.616694 
L 104.750054 145.585808 
L 106.173838 145.686206 
L 106.213757 145.717097 
L 106.286942 145.670763 
L 108.223021 145.778892 
L 108.242981 145.732544 
L 108.356085 145.763439 
L 108.396004 145.709375 
L 108.469189 145.778892 
L 108.608907 145.794335 
L 108.675438 145.755713 
L 108.635519 145.802061 
L 108.715358 145.802061 
L 115.847581 145.902459 
L 115.973992 145.917911 
L 118.209465 145.971971 
L 118.295956 146.033761 
L 118.322569 146.026031 
L 118.44898 145.987418 
L 118.57539 146.041483 
L 118.582043 146.033761 
L 118.701801 145.964249 
L 118.74172 146.010592 
L 118.781639 146.072373 
L 118.854824 146.018314 
L 118.928009 145.987418 
L 118.90805 146.041483 
L 118.974582 146.002861 
L 119.107646 146.049204 
L 119.247363 146.049204 
L 119.373773 146.0801 
L 119.473571 146.064652 
L 119.493531 146.0801 
L 119.599982 146.026031 
L 119.639901 146.072373 
L 119.733046 146.072373 
L 119.653208 146.05693 
L 119.739699 146.049204 
L 119.753005 146.05693 
L 119.86611 146.033761 
L 119.912682 146.064652 
L 119.972561 146.033761 
L 120.065706 146.018314 
L 120.005827 146.05693 
L 120.079012 146.041483 
L 120.225382 146.064652 
L 120.232035 146.05693 
L 120.34514 146.026031 
L 120.245342 146.064652 
L 120.351793 146.049204 
L 120.478203 146.064652 
L 124.323749 146.165055 
L 124.4302 146.180502 
L 124.376975 146.118712 
L 124.436854 146.172776 
L 126.639061 146.273183 
L 126.732205 146.288626 
L 126.685633 146.226845 
L 126.745512 146.257736 
L 126.832003 146.188224 
L 126.878576 146.226845 
L 127.004986 146.265457 
L 127.124744 146.219114 
L 127.237848 146.257736 
L 127.244501 146.234567 
L 127.364259 146.288626 
L 127.271114 146.219114 
L 127.377565 146.273183 
L 127.543895 146.242288 
L 127.670306 146.280909 
L 127.683612 146.250014 
L 127.803369 146.234567 
L 127.94974 146.311795 
L 128.136029 146.257736 
L 128.189255 146.280909 
L 128.235827 146.226845 
L 128.24248 146.234567 
L 128.269093 146.195945 
L 128.368891 146.273183 
L 128.468689 146.226845 
L 128.488648 146.257736 
L 130.411421 146.358138 
L 130.464647 146.358138 
L 130.504566 146.296352 
L 133.298907 146.195945 
L 133.398705 146.188224 
L 133.312213 146.203676 
L 133.412011 146.211397 
L 133.551728 146.211397 
L 133.651526 146.180502 
L 133.578341 146.226845 
L 133.664833 146.195945 
L 133.684792 146.242288 
L 133.724711 146.180502 
L 133.777937 146.203676 
L 133.891041 146.211397 
L 133.897694 146.188224 
L 134.017452 146.180502 
L 134.163822 146.203676 
L 134.223701 146.242288 
L 134.276927 146.172776 
L 134.396684 146.211397 
L 134.403337 146.203676 
L 134.57632 146.165055 
L 134.72269 146.195945 
L 134.589627 146.141881 
L 134.735997 146.180502 
L 134.895673 146.157333 
L 135.022084 146.234567 
L 135.042044 146.219114 
L 135.161801 146.180502 
L 135.268252 146.211397 
L 135.281559 146.180502 
L 135.447889 146.141881 
L 135.474501 146.195945 
L 135.507767 146.126443 
L 135.560993 146.157333 
L 138.162391 146.05693 
L 138.182351 146.026031 
L 138.208964 146.072373 
L 138.268843 146.072373 
L 138.3886 146.087826 
L 138.501704 146.087826 
L 138.588196 146.064652 
L 138.561583 146.033761 
L 138.594849 146.05693 
L 138.614809 146.010592 
L 138.707953 146.033761 
L 140.058552 146.126443 
L 140.105124 146.149607 
L 140.13839 146.087826 
L 140.165003 146.095543 
L 140.324679 146.126443 
L 140.457743 146.05693 
L 140.630726 146.118712 
L 140.637379 146.110995 
L 140.757137 146.064652 
L 140.76379 146.072373 
L 140.830322 146.126443 
L 140.876894 146.064652 
L 145.028487 145.979692 
L 145.03514 145.94108 
L 145.081713 146.041483 
L 145.134938 146.002861 
L 145.174857 145.979692 
L 145.254696 146.041483 
L 145.3678 145.979692 
L 145.374453 146.018314 
L 145.494211 146.018314 
L 145.500864 146.010592 
L 145.607315 145.987418 
L 145.613968 145.995145 
L 145.760338 146.041483 
L 145.773645 146.010592 
L 145.82687 146.026031 
L 145.900055 145.94108 
L 145.946628 146.018314 
L 146.01316 145.964249 
L 160.184461 145.863847 
L 160.290913 145.871568 
L 160.217727 145.894742 
L 160.297566 145.87929 
L 160.463896 145.925628 
L 160.577 145.840678 
L 160.603613 145.91018 
L 160.690104 145.863847 
L 161.774575 145.771166 
L 161.867719 145.74027 
L 161.814494 145.817509 
L 161.881026 145.786609 
L 178.993039 145.863847 
L 178.999692 145.902459 
L 179.086184 145.794335 
L 179.092837 145.809778 
L 184.149264 145.709375 
L 184.229102 145.709375 
L 184.189183 145.771166 
L 184.249062 145.74027 
L 184.375472 145.763439 
L 184.448658 145.670763 
L 184.508536 145.717097 
L 184.6416 145.724827 
L 184.648253 145.709375 
L 191.860315 145.817509 
L 192.000032 145.817509 
L 192.126443 145.802061 
L 192.286119 145.840678 
L 192.326039 145.856121 
L 192.405877 145.794335 
L 192.485715 145.863847 
L 192.525634 145.82523 
L 192.552247 145.817509 
L 192.638739 145.848399 
L 192.765149 145.832947 
L 195.26675 145.94108 
L 195.386507 145.94108 
L 198.965925 146.041483 
L 199.052417 146.041483 
L 199.012498 146.002861 
L 199.065723 146.010592 
L 199.072377 145.987418 
L 199.118949 146.064652 
L 199.165521 146.05693 
L 199.24536 146.049204 
L 199.20544 145.995145 
L 199.265319 146.002861 
L 214.035408 146.095543 
L 214.148513 146.126443 
L 214.068674 146.0801 
L 214.155166 146.110995 
L 215.133185 146.195945 
L 215.259596 146.921946 
L 215.499111 147.833301 
L 216.257575 149.872266 
L 216.616847 150.737278 
L 216.623501 150.729551 
L 216.670073 150.829954 
L 216.882975 151.339703 
L 216.889628 151.331972 
L 218.799095 155.510306 
L 218.805748 155.502585 
L 218.878933 155.610713 
L 219.145061 156.135895 
L 219.68397 157.116761 
L 219.757155 157.209447 
L 219.983363 157.59561 
L 220.422474 158.352502 
L 220.429127 158.337054 
L 220.495659 158.460621 
L 220.655336 158.707774 
L 220.661989 158.676879 
L 220.735174 158.83135 
L 220.888198 159.086215 
L 220.894851 159.078494 
L 220.901504 159.070772 
L 220.961383 159.155727 
L 220.974689 159.148006 
L 221.513598 159.912619 
L 221.646662 160.128872 
L 221.653315 160.121141 
L 221.713194 160.198379 
L 221.859564 160.422358 
L 221.952709 160.530482 
L 222.198877 160.862585 
L 222.212183 160.854864 
L 224.201488 162.994232 
L 224.334552 163.102361 
L 224.474269 163.195038 
L 224.886767 163.511698 
L 224.926686 163.527141 
L 224.900073 163.542593 
L 224.959952 163.58121 
L 225.066403 163.681612 
L 225.086363 163.650712 
L 225.312571 163.905587 
L 225.332531 163.874696 
L 225.392409 163.967377 
L 225.412369 163.951929 
L 225.492207 163.98282 
L 225.432329 163.975099 
L 225.505514 164.013715 
L 225.651884 164.09867 
L 225.658537 164.083223 
L 225.738376 164.175899 
L 225.891399 164.268585 
L 225.898052 164.229968 
L 225.984544 164.314928 
L 225.991197 164.307202 
L 226.137567 164.438499 
L 226.230712 164.438499 
L 226.244018 164.469395 
L 226.383735 164.569797 
L 226.570025 164.677921 
L 226.842806 164.824662 
L 226.909338 164.816945 
L 226.95591 164.863284 
L 227.082321 164.971408 
L 227.088974 164.963686 
L 227.428287 165.064084 
L 227.528085 165.172218 
L 227.568004 165.118153 
L 227.800865 165.226282 
L 227.940583 165.303515 
L 227.947236 165.295789 
L 228.06034 165.280342 
L 228.0803 165.311237 
L 228.093606 165.303515 
L 228.20671 165.365301 
L 228.213363 165.318963 
L 228.273242 165.442535 
L 228.306508 165.427082 
L 228.466185 165.457982 
L 228.472838 165.450251 
L 228.565983 165.442535 
L 228.592595 165.481151 
L 228.758925 165.504321 
L 228.785538 165.519768 
L 228.87203 165.519768 
L 229.078279 165.58928 
L 229.544002 165.689678 
L 229.577268 165.666509 
L 229.670413 165.736021 
L 229.716985 165.689678 
L 229.770211 165.766916 
L 229.776864 165.751469 
L 229.79017 165.7283 
L 229.929887 165.75919 
L 230.428877 165.859593 
L 230.502062 165.890488 
L 230.535328 165.859593 
L 230.60186 165.84415 
L 230.568594 165.882762 
L 230.648432 165.859593 
L 230.754883 165.890488 
L 230.76819 165.859593 
L 230.828068 165.836419 
L 230.801456 165.890488 
L 230.881294 165.859593 
L 230.967786 165.944552 
L 231.021011 165.905931 
L 231.167381 165.921383 
L 231.280486 165.87504 
L 231.220607 165.96 
L 231.293792 165.905931 
L 231.413549 165.890488 
L 231.333711 165.952274 
L 231.426856 165.905931 
L 231.520001 165.96 
L 231.440162 165.898214 
L 231.546613 165.921383 
L 231.55992 165.936831 
L 231.712943 165.890488 
L 231.772822 165.96 
L 231.839354 165.921383 
L 231.939152 165.905931 
L 231.892579 165.96 
L 231.945805 165.921383 
L 232.012337 165.9291 
L 231.99903 165.898214 
L 232.052256 165.898214 
L 232.178667 165.859593 
L 232.092175 165.9291 
L 232.18532 165.867319 
L 232.311731 165.936831 
L 232.950437 165.851871 
L 232.95709 165.805533 
L 232.990356 165.87504 
L 233.063541 165.836419 
L 233.901844 165.7283 
L 234.028254 165.712847 
L 234.493978 165.604723 
L 234.573816 165.612449 
L 234.600429 165.635618 
L 234.613735 165.674235 
L 234.660308 165.58928 
L 234.700227 165.58928 
L 234.813331 165.596997 
L 234.819984 165.604723 
L 234.919782 165.581554 
L 234.899823 165.550663 
L 234.926436 165.573833 
L 235.03954 165.52749 
L 235.059499 165.542937 
L 235.625021 165.442535 
L 235.751432 165.396197 
L 236.230461 165.295789 
L 236.283687 165.326684 
L 236.343566 165.295789 
L 236.483283 165.318963 
L 236.383485 165.249451 
L 236.489936 165.295789 
L 236.809289 165.203113 
L 236.909087 165.125879 
L 236.842555 165.21083 
L 236.922394 165.164491 
L 237.08207 165.118153 
L 236.9357 165.179939 
L 237.088723 165.141318 
L 237.161909 165.071815 
L 237.181868 165.094984 
L 237.241747 165.071815 
L 237.288319 165.110432 
L 237.294972 165.149048 
L 237.388117 165.079536 
L 237.554447 165.033198 
L 237.5611 165.040915 
L 237.601019 165.064084 
L 237.634285 164.971408 
L 237.667551 164.994577 
L 238.080049 164.886453 
L 238.193154 164.840114 
L 238.199807 164.847831 
L 238.299605 164.816945 
L 238.239726 164.871005 
L 238.319564 164.847831 
L 238.465934 164.762881 
L 238.4992 164.801493 
L 238.53912 164.75515 
L 238.612305 164.793772 
L 238.738715 164.716538 
L 239.091335 164.647031 
L 239.204439 164.569797 
L 239.211092 164.577519 
L 239.344156 164.523454 
L 239.350809 164.531181 
L 239.397382 164.538897 
L 239.364116 164.500285 
L 239.450607 164.500285 
L 239.616937 164.430778 
L 239.630243 164.461669 
L 239.929637 164.353544 
L 240.076007 164.353544 
L 240.402014 164.253132 
L 240.515118 164.206799 
L 240.528424 164.237694 
L 240.881044 164.129561 
L 240.954229 164.052332 
L 241.000801 164.075501 
L 241.04072 164.090949 
L 241.073986 164.03688 
L 241.107252 164.060049 
L 241.280235 163.951929 
L 241.313501 163.98282 
L 241.39334 163.990546 
L 241.426605 163.975099 
L 241.626201 163.905587 
L 241.66612 163.944203 
L 241.725999 163.859248 
L 241.865716 163.789736 
L 241.885676 163.766567 
L 241.985474 163.820627 
L 242.098578 163.758846 
L 242.105231 163.774293 
L 242.138497 163.72795 
L 242.218335 163.743393 
L 242.338093 163.697055 
L 242.231642 163.75112 
L 242.344746 163.72795 
L 242.511076 163.635269 
L 242.630833 163.588931 
L 242.544342 163.666165 
L 242.637487 163.596653 
L 242.664099 163.573483 
L 242.743938 163.604374 
L 242.863695 163.488529 
L 243.2895 163.3804 
L 243.455829 163.334062 
L 243.302806 163.395847 
L 243.462483 163.341783 
L 243.535668 163.334062 
L 243.502402 163.287714 
L 243.562281 163.295445 
L 243.642119 163.326335 
L 243.682038 163.279997 
L 243.775183 163.210485 
L 243.695344 163.287714 
L 243.801796 163.241376 
L 243.815102 163.218207 
L 243.934859 163.225933 
L 244.014698 163.179595 
L 243.961472 163.249102 
L 244.054617 163.210485 
L 244.06127 163.225933 
L 244.141108 163.148695 
L 244.294132 163.086913 
L 244.154415 163.164147 
L 244.307438 163.12553 
L 244.646751 163.017401 
L 244.786468 162.971063 
L 244.926185 162.97878 
L 244.932838 162.971063 
L 245.052596 162.886108 
L 245.065902 162.89383 
L 245.205619 162.901551 
L 245.31207 162.847492 
L 245.338683 162.862935 
L 245.638077 162.75481 
L 245.744528 162.723915 
L 245.757834 162.75481 
L 245.817713 162.693025 
L 245.877592 162.75481 
L 245.990696 162.685298 
L 246.004003 162.693025 
L 246.030615 162.731641 
L 246.083841 162.623513 
L 246.1038 162.646682 
L 246.596137 162.538558 
L 246.735854 162.461324 
L 246.76912 162.492215 
L 246.842305 162.499936 
L 246.822345 162.461324 
L 246.875571 162.461324 
L 247.24815 162.384091 
L 247.281416 162.399529 
L 247.367907 162.330022 
L 247.500971 162.3223 
L 247.520931 162.345474 
L 247.68726 162.26824 
L 247.780405 162.299131 
L 247.800365 162.275962 
L 247.926775 162.229624 
L 248.359233 162.15239 
L 248.359233 162.15239 
" clip-path="url(#pd466d3d9b7)" style="fill: none; stroke: #000000; stroke-opacity: 0.5; stroke-width: 1.5; stroke-linecap: square"/>
   </g>
   <g id="patch_3">
    <path d="M 35.304688 173.52 
L 35.304688 7.2 
" style="fill: none; stroke: #000000; stroke-width: 0.8; stroke-linejoin: miter; stroke-linecap: square"/>
   </g>
   <g id="patch_4">
    <path d="M 35.304688 173.52 
L 258.504687 173.52 
" style="fill: none; stroke: #000000; stroke-width: 0.8; stroke-linejoin: miter; stroke-linecap: square"/>
   </g>
  </g>
 </g>
 <defs>
  <clipPath id="pd466d3d9b7">
   <rect x="35.304688" y="7.2" width="223.2" height="166.32"/>
  </clipPath>
 </defs>
</svg>
