<?xml version="1.0" encoding="utf-8" standalone="no"?>
<!DOCTYPE svg PUBLIC "-//W3C//DTD SVG 1.1//EN"
  "http://www.w3.org/Graphics/SVG/1.1/DTD/svg11.dtd">
<svg xmlns:xlink="http://www.w3.org/1999/xlink" width="460.8pt" height="345.6pt" viewBox="0 0 460.8 345.6" xmlns="http://www.w3.org/2000/svg" version="1.1">
 <metadata>
  <rdf:RDF xmlns:dc="http://purl.org/dc/elements/1.1/" xmlns:cc="http://creativecommons.org/ns#" xmlns:rdf="http://www.w3.org/1999/02/22-rdf-syntax-ns#">
   <cc:Work>
    <dc:type rdf:resource="http://purl.org/dc/dcmitype/StillImage"/>
    <dc:date>2024-02-29T19:28:49.924255</dc:date>
    <dc:format>image/svg+xml</dc:format>
    <dc:creator>
     <cc:Agent>
      <dc:title>Matplotlib v3.6.2, https://matplotlib.org/</dc:title>
     </cc:Agent>
    </dc:creator>
   </cc:Work>
  </rdf:RDF>
 </metadata>
 <defs>
  <style type="text/css">*{stroke-linejoin: round; stroke-linecap: butt}</style>
 </defs>
 <g id="figure_1">
  <g id="patch_1">
   <path d="M 0 345.6 
L 460.8 345.6 
L 460.8 0 
L 0 0 
z
" style="fill: #ffffff"/>
  </g>
  <g id="axes_1">
   <g id="patch_2">
    <path d="M 57.6 307.584 
L 414.72 307.584 
L 414.72 41.472 
L 57.6 41.472 
z
" style="fill: #ffffff"/>
   </g>
   <g id="matplotlib.axis_1">
    <g id="xtick_1">
     <g id="line2d_1">
      <defs>
       <path id="m8e36896b77" d="M 0 0 
L 0 3.5 
" style="stroke: #000000; stroke-width: 0.8"/>
      </defs>
      <g>
       <use xlink:href="#m8e36896b77" x="117.121924" y="307.584" style="stroke: #000000; stroke-width: 0.8"/>
      </g>
     </g>
     <g id="text_1">
      <!-- 0.2 -->
      <g transform="translate(109.170361 322.182437) scale(0.1 -0.1)">
       <defs>
        <path id="DejaVuSans-30" d="M 2034 4250 
Q 1547 4250 1301 3770 
Q 1056 3291 1056 2328 
Q 1056 1369 1301 889 
Q 1547 409 2034 409 
Q 2525 409 2770 889 
Q 3016 1369 3016 2328 
Q 3016 3291 2770 3770 
Q 2525 4250 2034 4250 
z
M 2034 4750 
Q 2819 4750 3233 4129 
Q 3647 3509 3647 2328 
Q 3647 1150 3233 529 
Q 2819 -91 2034 -91 
Q 1250 -91 836 529 
Q 422 1150 422 2328 
Q 422 3509 836 4129 
Q 1250 4750 2034 4750 
z
" transform="scale(0.015625)"/>
        <path id="DejaVuSans-2e" d="M 684 794 
L 1344 794 
L 1344 0 
L 684 0 
L 684 794 
z
" transform="scale(0.015625)"/>
        <path id="DejaVuSans-32" d="M 1228 531 
L 3431 531 
L 3431 0 
L 469 0 
L 469 531 
Q 828 903 1448 1529 
Q 2069 2156 2228 2338 
Q 2531 2678 2651 2914 
Q 2772 3150 2772 3378 
Q 2772 3750 2511 3984 
Q 2250 4219 1831 4219 
Q 1534 4219 1204 4116 
Q 875 4013 500 3803 
L 500 4441 
Q 881 4594 1212 4672 
Q 1544 4750 1819 4750 
Q 2544 4750 2975 4387 
Q 3406 4025 3406 3419 
Q 3406 3131 3298 2873 
Q 3191 2616 2906 2266 
Q 2828 2175 2409 1742 
Q 1991 1309 1228 531 
z
" transform="scale(0.015625)"/>
       </defs>
       <use xlink:href="#DejaVuSans-30"/>
       <use xlink:href="#DejaVuSans-2e" x="63.623047"/>
       <use xlink:href="#DejaVuSans-32" x="95.410156"/>
      </g>
     </g>
    </g>
    <g id="xtick_2">
     <g id="line2d_2">
      <g>
       <use xlink:href="#m8e36896b77" x="189.270585" y="307.584" style="stroke: #000000; stroke-width: 0.8"/>
      </g>
     </g>
     <g id="text_2">
      <!-- 0.4 -->
      <g transform="translate(181.319023 322.182437) scale(0.1 -0.1)">
       <defs>
        <path id="DejaVuSans-34" d="M 2419 4116 
L 825 1625 
L 2419 1625 
L 2419 4116 
z
M 2253 4666 
L 3047 4666 
L 3047 1625 
L 3713 1625 
L 3713 1100 
L 3047 1100 
L 3047 0 
L 2419 0 
L 2419 1100 
L 313 1100 
L 313 1709 
L 2253 4666 
z
" transform="scale(0.015625)"/>
       </defs>
       <use xlink:href="#DejaVuSans-30"/>
       <use xlink:href="#DejaVuSans-2e" x="63.623047"/>
       <use xlink:href="#DejaVuSans-34" x="95.410156"/>
      </g>
     </g>
    </g>
    <g id="xtick_3">
     <g id="line2d_3">
      <g>
       <use xlink:href="#m8e36896b77" x="261.419246" y="307.584" style="stroke: #000000; stroke-width: 0.8"/>
      </g>
     </g>
     <g id="text_3">
      <!-- 0.6 -->
      <g transform="translate(253.467684 322.182437) scale(0.1 -0.1)">
       <defs>
        <path id="DejaVuSans-36" d="M 2113 2584 
Q 1688 2584 1439 2293 
Q 1191 2003 1191 1497 
Q 1191 994 1439 701 
Q 1688 409 2113 409 
Q 2538 409 2786 701 
Q 3034 994 3034 1497 
Q 3034 2003 2786 2293 
Q 2538 2584 2113 2584 
z
M 3366 4563 
L 3366 3988 
Q 3128 4100 2886 4159 
Q 2644 4219 2406 4219 
Q 1781 4219 1451 3797 
Q 1122 3375 1075 2522 
Q 1259 2794 1537 2939 
Q 1816 3084 2150 3084 
Q 2853 3084 3261 2657 
Q 3669 2231 3669 1497 
Q 3669 778 3244 343 
Q 2819 -91 2113 -91 
Q 1303 -91 875 529 
Q 447 1150 447 2328 
Q 447 3434 972 4092 
Q 1497 4750 2381 4750 
Q 2619 4750 2861 4703 
Q 3103 4656 3366 4563 
z
" transform="scale(0.015625)"/>
       </defs>
       <use xlink:href="#DejaVuSans-30"/>
       <use xlink:href="#DejaVuSans-2e" x="63.623047"/>
       <use xlink:href="#DejaVuSans-36" x="95.410156"/>
      </g>
     </g>
    </g>
    <g id="xtick_4">
     <g id="line2d_4">
      <g>
       <use xlink:href="#m8e36896b77" x="333.567907" y="307.584" style="stroke: #000000; stroke-width: 0.8"/>
      </g>
     </g>
     <g id="text_4">
      <!-- 0.8 -->
      <g transform="translate(325.616345 322.182437) scale(0.1 -0.1)">
       <defs>
        <path id="DejaVuSans-38" d="M 2034 2216 
Q 1584 2216 1326 1975 
Q 1069 1734 1069 1313 
Q 1069 891 1326 650 
Q 1584 409 2034 409 
Q 2484 409 2743 651 
Q 3003 894 3003 1313 
Q 3003 1734 2745 1975 
Q 2488 2216 2034 2216 
z
M 1403 2484 
Q 997 2584 770 2862 
Q 544 3141 544 3541 
Q 544 4100 942 4425 
Q 1341 4750 2034 4750 
Q 2731 4750 3128 4425 
Q 3525 4100 3525 3541 
Q 3525 3141 3298 2862 
Q 3072 2584 2669 2484 
Q 3125 2378 3379 2068 
Q 3634 1759 3634 1313 
Q 3634 634 3220 271 
Q 2806 -91 2034 -91 
Q 1263 -91 848 271 
Q 434 634 434 1313 
Q 434 1759 690 2068 
Q 947 2378 1403 2484 
z
M 1172 3481 
Q 1172 3119 1398 2916 
Q 1625 2713 2034 2713 
Q 2441 2713 2670 2916 
Q 2900 3119 2900 3481 
Q 2900 3844 2670 4047 
Q 2441 4250 2034 4250 
Q 1625 4250 1398 4047 
Q 1172 3844 1172 3481 
z
" transform="scale(0.015625)"/>
       </defs>
       <use xlink:href="#DejaVuSans-30"/>
       <use xlink:href="#DejaVuSans-2e" x="63.623047"/>
       <use xlink:href="#DejaVuSans-38" x="95.410156"/>
      </g>
     </g>
    </g>
    <g id="xtick_5">
     <g id="line2d_5">
      <g>
       <use xlink:href="#m8e36896b77" x="405.716569" y="307.584" style="stroke: #000000; stroke-width: 0.8"/>
      </g>
     </g>
     <g id="text_5">
      <!-- 1.0 -->
      <g transform="translate(397.765006 322.182437) scale(0.1 -0.1)">
       <defs>
        <path id="DejaVuSans-31" d="M 794 531 
L 1825 531 
L 1825 4091 
L 703 3866 
L 703 4441 
L 1819 4666 
L 2450 4666 
L 2450 531 
L 3481 531 
L 3481 0 
L 794 0 
L 794 531 
z
" transform="scale(0.015625)"/>
       </defs>
       <use xlink:href="#DejaVuSans-31"/>
       <use xlink:href="#DejaVuSans-2e" x="63.623047"/>
       <use xlink:href="#DejaVuSans-30" x="95.410156"/>
      </g>
     </g>
    </g>
   </g>
   <g id="matplotlib.axis_2">
    <g id="ytick_1">
     <g id="line2d_6">
      <defs>
       <path id="md28126e1a1" d="M 0 0 
L -3.5 0 
" style="stroke: #000000; stroke-width: 0.8"/>
      </defs>
      <g>
       <use xlink:href="#md28126e1a1" x="57.6" y="282.50336" style="stroke: #000000; stroke-width: 0.8"/>
      </g>
     </g>
     <g id="text_6">
      <!-- −100 -->
      <g transform="translate(23.132812 286.302578) scale(0.1 -0.1)">
       <defs>
        <path id="DejaVuSans-2212" d="M 678 2272 
L 4684 2272 
L 4684 1741 
L 678 1741 
L 678 2272 
z
" transform="scale(0.015625)"/>
       </defs>
       <use xlink:href="#DejaVuSans-2212"/>
       <use xlink:href="#DejaVuSans-31" x="83.789062"/>
       <use xlink:href="#DejaVuSans-30" x="147.412109"/>
       <use xlink:href="#DejaVuSans-30" x="211.035156"/>
      </g>
     </g>
    </g>
    <g id="ytick_2">
     <g id="line2d_7">
      <g>
       <use xlink:href="#md28126e1a1" x="57.6" y="249.386271" style="stroke: #000000; stroke-width: 0.8"/>
      </g>
     </g>
     <g id="text_7">
      <!-- −80 -->
      <g transform="translate(29.495313 253.18549) scale(0.1 -0.1)">
       <use xlink:href="#DejaVuSans-2212"/>
       <use xlink:href="#DejaVuSans-38" x="83.789062"/>
       <use xlink:href="#DejaVuSans-30" x="147.412109"/>
      </g>
     </g>
    </g>
    <g id="ytick_3">
     <g id="line2d_8">
      <g>
       <use xlink:href="#md28126e1a1" x="57.6" y="216.269182" style="stroke: #000000; stroke-width: 0.8"/>
      </g>
     </g>
     <g id="text_8">
      <!-- −60 -->
      <g transform="translate(29.495313 220.068401) scale(0.1 -0.1)">
       <use xlink:href="#DejaVuSans-2212"/>
       <use xlink:href="#DejaVuSans-36" x="83.789062"/>
       <use xlink:href="#DejaVuSans-30" x="147.412109"/>
      </g>
     </g>
    </g>
    <g id="ytick_4">
     <g id="line2d_9">
      <g>
       <use xlink:href="#md28126e1a1" x="57.6" y="183.152093" style="stroke: #000000; stroke-width: 0.8"/>
      </g>
     </g>
     <g id="text_9">
      <!-- −40 -->
      <g transform="translate(29.495313 186.951312) scale(0.1 -0.1)">
       <use xlink:href="#DejaVuSans-2212"/>
       <use xlink:href="#DejaVuSans-34" x="83.789062"/>
       <use xlink:href="#DejaVuSans-30" x="147.412109"/>
      </g>
     </g>
    </g>
    <g id="ytick_5">
     <g id="line2d_10">
      <g>
       <use xlink:href="#md28126e1a1" x="57.6" y="150.035004" style="stroke: #000000; stroke-width: 0.8"/>
      </g>
     </g>
     <g id="text_10">
      <!-- −20 -->
      <g transform="translate(29.495313 153.834223) scale(0.1 -0.1)">
       <use xlink:href="#DejaVuSans-2212"/>
       <use xlink:href="#DejaVuSans-32" x="83.789062"/>
       <use xlink:href="#DejaVuSans-30" x="147.412109"/>
      </g>
     </g>
    </g>
    <g id="ytick_6">
     <g id="line2d_11">
      <g>
       <use xlink:href="#md28126e1a1" x="57.6" y="116.917916" style="stroke: #000000; stroke-width: 0.8"/>
      </g>
     </g>
     <g id="text_11">
      <!-- 0 -->
      <g transform="translate(44.2375 120.717134) scale(0.1 -0.1)">
       <use xlink:href="#DejaVuSans-30"/>
      </g>
     </g>
    </g>
    <g id="ytick_7">
     <g id="line2d_12">
      <g>
       <use xlink:href="#md28126e1a1" x="57.6" y="83.800827" style="stroke: #000000; stroke-width: 0.8"/>
      </g>
     </g>
     <g id="text_12">
      <!-- 20 -->
      <g transform="translate(37.875 87.600046) scale(0.1 -0.1)">
       <use xlink:href="#DejaVuSans-32"/>
       <use xlink:href="#DejaVuSans-30" x="63.623047"/>
      </g>
     </g>
    </g>
    <g id="ytick_8">
     <g id="line2d_13">
      <g>
       <use xlink:href="#md28126e1a1" x="57.6" y="50.683738" style="stroke: #000000; stroke-width: 0.8"/>
      </g>
     </g>
     <g id="text_13">
      <!-- 40 -->
      <g transform="translate(37.875 54.482957) scale(0.1 -0.1)">
       <use xlink:href="#DejaVuSans-34"/>
       <use xlink:href="#DejaVuSans-30" x="63.623047"/>
      </g>
     </g>
    </g>
   </g>
   <g id="line2d_14">
    <path d="M 73.832727 224.812476 
L 75.001536 224.755022 
L 75.419998 224.646481 
L 75.665303 224.703503 
L 76.040476 224.754529 
L 76.660955 224.466668 
L 77.223714 224.55035 
L 77.368012 224.536113 
L 77.598887 224.517102 
L 77.916341 224.605744 
L 78.103928 224.570534 
L 78.334804 224.44984 
L 78.53682 224.454713 
L 78.969712 224.467285 
L 79.359315 224.54602 
L 80.744569 224.646826 
L 80.989874 224.733358 
L 81.062023 225.429059 
L 81.509345 231.71111 
L 82.100964 236.08648 
L 83.125475 241.508625 
L 85.01577 248.523832 
L 85.838264 251.308804 
L 86.300016 252.633276 
L 86.732908 254.136511 
L 89.056095 260.715591 
L 89.792011 262.399947 
L 90.484638 264.12092 
L 91.639017 266.810489 
L 92.086339 267.637407 
L 92.461512 268.349034 
L 93.255147 269.985522 
L 94.077642 271.600495 
L 94.784698 272.874027 
L 95.116582 273.320567 
L 101.047202 281.342085 
L 101.71097 281.908296 
L 101.999565 282.107798 
L 102.432457 282.558965 
L 102.937497 282.922823 
L 103.211662 283.144569 
L 103.29824 283.213386 
L 103.500257 283.376741 
L 104.164024 283.634697 
L 104.467049 283.890679 
L 104.741214 284.139838 
L 105.347262 284.549146 
L 105.924452 284.752313 
L 106.068749 284.745589 
L 107.09326 285.61592 
L 107.381855 285.729458 
L 108.69496 286.224878 
L 108.954696 286.404494 
L 110.657404 287.478585 
L 110.816131 287.52227 
L 111.220163 287.742253 
L 111.523188 287.807466 
L 111.696345 287.875666 
L 112.244674 288.16196 
L 112.47555 288.187399 
L 112.648707 288.162873 
L 113.124888 288.256351 
L 113.384623 288.310819 
L 113.673218 288.369038 
L 114.784307 288.939048 
L 115.000753 288.89102 
L 115.347067 289.060815 
L 115.592372 289.152566 
L 116.573594 289.515128 
L 117.006486 289.82506 
L 117.828981 290.22678 
L 118.204154 290.256993 
L 118.449459 290.389543 
L 118.579327 290.435498 
L 119.127657 290.711984 
L 119.647127 290.741396 
L 119.950151 290.870096 
L 120.455192 290.842042 
L 120.642779 290.928759 
L 120.931373 290.893327 
L 121.147819 290.864853 
L 121.465273 290.963599 
L 121.768298 291.009616 
L 122.085752 291.043975 
L 122.215619 291.103304 
L 122.475355 291.106166 
L 122.850528 291.139686 
L 123.110263 291.146829 
L 123.759601 291.115839 
L 123.932758 291.122242 
L 124.380079 291.037992 
L 124.87069 290.931695 
L 125.346871 290.958701 
L 125.505598 290.955716 
L 125.851912 290.852701 
L 126.198226 291.094495 
L 126.674407 291.111311 
L 127.55462 290.984301 
L 127.727777 290.990148 
L 128.146239 291.056337 
L 128.391545 291.151579 
L 128.607991 291.226552 
L 128.867726 291.201692 
L 129.820088 291.199015 
L 130.094253 291.188627 
L 130.28184 291.197029 
L 130.685872 291.138132 
L 131.104334 291.201729 
L 131.263062 291.235903 
L 131.421789 291.100911 
L 131.667094 290.952052 
L 132.157705 291.090264 
L 132.374151 291.06464 
L 132.662746 291.07652 
L 132.850332 291.127423 
L 133.081208 291.158833 
L 133.283224 291.120835 
L 133.629538 290.96091 
L 133.802694 290.902333 
L 134.235586 290.893117 
L 134.928214 291.289643 
L 135.245668 291.36828 
L 135.519833 291.430533 
L 136.529914 291.637586 
L 137.511136 291.776588 
L 137.756441 291.891434 
L 138.275911 292.011621 
L 138.492357 291.975906 
L 138.86753 291.931147 
L 139.141695 292.220402 
L 139.300422 292.226657 
L 139.762174 291.991019 
L 139.776604 292.012238 
L 140.021909 292.210767 
L 140.310504 292.30538 
L 140.656817 292.491373 
L 140.916552 292.506141 
L 141.277296 292.581261 
L 141.537031 292.642231 
L 141.941063 292.654124 
L 143.008864 292.887073 
L 143.297458 292.80893 
L 144.307539 292.685312 
L 144.82701 292.529051 
L 145.072315 292.598792 
L 145.274332 292.632448 
L 145.534067 292.598953 
L 145.736083 292.652915 
L 147.193486 292.841808 
L 147.280064 292.881028 
L 147.294494 292.903308 
L 147.49651 293.011949 
L 148.521021 293.239888 
L 149.098211 293.431557 
L 149.329086 293.509009 
L 149.704259 293.661064 
L 150.570043 293.828318 
L 150.959646 293.839236 
L 151.233811 293.924189 
L 151.479116 293.946248 
L 151.666703 293.979188 
L 152.200603 294.080426 
L 152.619065 294.007946 
L 152.92209 294.05474 
L 153.556998 294.233603 
L 153.730155 294.208213 
L 154.076468 294.06551 
L 154.321774 294.015484 
L 154.985541 294.117733 
L 155.173128 294.207868 
L 155.317425 294.228076 
L 155.447293 294.213383 
L 155.678168 294.219934 
L 156.183209 294.29873 
L 156.702679 294.068952 
L 156.962415 294.136732 
L 157.554034 294.246582 
L 157.712761 294.241708 
L 158.087934 294.187043 
L 158.564115 294.268838 
L 158.910429 294.199158 
L 159.170164 294.251085 
L 159.34332 294.272995 
L 159.487618 294.188153 
L 159.862791 294.09354 
L 160.209104 294.218848 
L 160.598707 294.375455 
L 160.98831 294.519996 
L 161.392342 294.565384 
L 161.579929 294.556329 
L 161.983961 294.646858 
L 162.416853 294.690124 
L 162.676589 294.676257 
L 162.979613 294.677762 
L 163.325927 294.756843 
L 164.624602 294.918113 
L 164.841048 294.994813 
L 165.605824 295.186963 
L 166.774633 295.121169 
L 166.991079 295.237422 
L 167.568268 295.207418 
L 169.285406 295.060508 
L 171.406577 295.080284 
L 171.637452 295.115408 
L 172.777401 295.293272 
L 173.022707 295.306028 
L 173.311301 295.294678 
L 173.643185 295.303203 
L 173.960639 295.206764 
L 174.393531 295.326779 
L 174.609977 295.28983 
L 174.941861 295.293025 
L 175.172737 295.401591 
L 175.288175 295.317168 
L 175.446902 295.270029 
L 175.966372 295.404688 
L 176.182818 295.332861 
L 176.399264 295.37123 
L 176.658999 295.296047 
L 177.192899 295.38274 
L 177.366056 295.384628 
L 178.174121 295.305485 
L 178.563724 295.396064 
L 178.679162 295.372081 
L 178.809029 295.396422 
L 178.996616 295.433421 
L 179.227491 295.404207 
L 179.689243 295.318378 
L 180.035556 295.219052 
L 180.3963 295.256322 
L 180.858051 295.273705 
L 181.247654 295.25573 
L 181.507389 295.344347 
L 181.709405 295.343903 
L 182.02686 295.332553 
L 183.123519 295.442896 
L 183.686279 295.456972 
L 183.888295 295.430053 
L 184.494344 295.260948 
L 184.811798 295.453629 
L 185.057103 295.382974 
L 185.24469 295.267771 
L 186.124903 295.133605 
L 186.269201 295.067207 
L 186.29806 295.100751 
L 186.471217 295.166052 
L 186.918539 295.000957 
L 188.664536 294.707273 
L 189.054139 294.81447 
L 189.313874 294.69649 
L 189.588039 294.749527 
L 190.222947 294.697218 
L 190.453823 294.69913 
L 190.857856 294.641319 
L 191.622631 294.500417 
L 191.795788 294.502687 
L 192.012234 294.620518 
L 192.185391 294.645661 
L 192.445126 294.573107 
L 192.964597 294.718944 
L 193.426348 294.536996 
L 194.046826 294.513322 
L 194.191124 294.45778 
L 194.681735 294.443506 
L 195.432081 294.301284 
L 197.293516 294.685658 
L 197.481103 294.737795 
L 197.697549 294.744309 
L 198.101581 294.701228 
L 198.419035 294.690618 
L 198.981795 294.658455 
L 199.587844 294.720239 
L 199.761 294.704016 
L 200.092884 294.7317 
L 200.32376 294.736043 
L 200.900949 294.842388 
L 201.030817 294.784046 
L 201.189544 294.802108 
L 201.838882 294.665758 
L 202.026468 294.576783 
L 202.834533 294.718055 
L 202.99326 294.72225 
L 203.195277 294.734488 
L 203.397293 294.703966 
L 204.046631 294.643848 
L 204.190928 294.615325 
L 204.291936 294.655519 
L 204.537242 294.758089 
L 204.926845 294.778655 
L 205.980215 294.628278 
L 206.22552 294.496481 
L 206.485256 294.429997 
L 206.687272 294.363414 
L 207.177883 294.355493 
L 207.639634 294.36139 
L 207.971518 294.203636 
L 208.144675 294.223511 
L 208.693005 294.177765 
L 209.48664 294.175101 
L 209.919532 294.185131 
L 210.843035 294.286344 
L 211.1172 294.403731 
L 211.275927 294.407827 
L 211.434654 294.353902 
L 212.026273 294.423742 
L 212.15614 294.481381 
L 212.286008 294.448749 
L 212.560173 294.449514 
L 212.747759 294.42922 
L 213.180651 294.362957 
L 213.80113 294.430614 
L 214.003146 294.394084 
L 214.421608 294.555564 
L 214.796781 294.592735 
L 215.287392 294.71127 
L 216.196465 294.63024 
L 216.658217 294.48201 
L 216.816944 294.516492 
L 217.04782 294.426913 
L 217.58172 294.371569 
L 217.855885 294.439299 
L 218.043471 294.443333 
L 218.461933 294.383597 
L 218.966974 294.320308 
L 219.486444 294.42067 
L 219.890477 294.465873 
L 220.106923 294.410097 
L 220.900558 294.525215 
L 221.145864 294.530828 
L 221.679764 294.390148 
L 222.170375 294.535837 
L 222.487829 294.565396 
L 222.689845 294.572503 
L 224.320405 294.51722 
L 224.450272 294.452734 
L 224.59457 294.444049 
L 224.955313 294.495161 
L 225.12847 294.472757 
L 225.287197 294.490547 
L 225.503643 294.451784 
L 225.849956 294.548396 
L 226.109692 294.540957 
L 226.311708 294.535837 
L 226.499294 294.467736 
L 226.888897 294.614301 
L 227.466086 294.926947 
L 228.303011 294.917311 
L 228.533887 294.958332 
L 228.735903 294.998304 
L 229.111076 295.042101 
L 229.39967 295.101479 
L 229.890281 295.032268 
L 230.106727 295.011073 
L 230.337603 295.079112 
L 231.0158 295.107636 
L 231.145668 295.067565 
L 231.405403 295.044174 
L 232.444344 295.110757 
L 232.588641 295.159673 
L 232.833947 295.188777 
L 233.20912 295.053291 
L 233.411136 294.983377 
L 233.656441 295.080025 
L 233.916177 295.120429 
L 234.190342 295.118418 
L 234.320209 295.17433 
L 234.536655 295.252498 
L 235.113844 295.187999 
L 235.287001 295.24269 
L 235.647745 295.201669 
L 235.921909 295.140144 
L 236.239364 295.079384 
L 236.369231 294.967301 
L 236.600107 294.816888 
L 237.783345 294.946649 
L 238.014221 294.951966 
L 238.216237 295.010925 
L 239.745788 294.81479 
L 240.077672 294.773412 
L 240.409556 294.816826 
L 240.568283 294.906159 
L 240.75587 294.906751 
L 241.405208 294.934176 
L 241.592794 295.024817 
L 241.881389 295.059706 
L 242.126694 295.062371 
L 242.588446 294.959751 
L 242.804892 294.862646 
L 243.050197 294.82371 
L 243.353222 294.782961 
L 243.526378 294.816875 
L 244.016989 294.684844 
L 244.853914 294.399598 
L 245.084789 294.368028 
L 245.503252 294.404731 
L 245.777417 294.444283 
L 246.051581 294.273242 
L 246.412325 294.28479 
L 247.162671 294.293006 
L 247.480125 294.218539 
L 247.682141 294.164145 
L 248.793231 294.182614 
L 248.951958 294.148218 
L 249.990898 294.130194 
L 250.265063 294.165021 
L 250.510369 294.099573 
L 250.770104 294.089358 
L 251.477161 294.215517 
L 251.751326 294.176421 
L 252.213077 294.166724 
L 252.429523 294.097932 
L 252.732547 294.0133 
L 252.920134 294.015422 
L 253.454034 294.104668 
L 253.728199 294.075886 
L 255.921518 294.1619 
L 257.162475 294.319666 
L 258.331284 294.418203 
L 258.461151 294.392011 
L 258.663167 294.417228 
L 258.879613 294.48602 
L 259.298076 294.466959 
L 259.904124 294.63515 
L 261.678981 294.622801 
L 262.443757 294.765615 
L 263.814582 294.743383 
L 264.204185 294.548544 
L 265.661588 294.488549 
L 265.849174 294.477618 
L 266.007901 294.456633 
L 266.267636 294.552788 
L 267.16228 294.425889 
L 267.349866 294.396021 
L 267.869337 294.358911 
L 268.24451 294.321357 
L 268.533104 294.37358 
L 269.110294 294.257117 
L 269.29788 294.3266 
L 269.918359 294.287837 
L 270.149234 294.255477 
L 270.755283 294.296473 
L 271.015018 294.368077 
L 272.227116 294.453956 
L 272.775446 294.351805 
L 272.948602 294.248358 
L 273.136189 294.221809 
L 274.001973 294.291402 
L 274.333857 294.295054 
L 275.77683 294.056603 
L 276.267441 293.730879 
L 277.061076 293.779265 
L 277.205373 293.808739 
L 277.450679 293.900194 
L 278.792644 294.038319 
L 279.153387 294.224918 
L 279.485271 294.259449 
L 280.711798 294.349362 
L 280.928244 294.349214 
L 281.072542 294.32243 
L 281.288988 294.290428 
L 281.418855 294.351484 
L 281.577582 294.345969 
L 282.674242 294.106593 
L 282.832969 294.20355 
L 282.861828 294.173423 
L 282.962836 294.143333 
L 282.991696 294.171005 
L 283.193712 294.190966 
L 283.33801 294.11624 
L 283.467877 294.117264 
L 283.684323 294.110689 
L 283.87191 294.141001 
L 284.088356 294.123741 
L 285.47361 294.090888 
L 285.791064 294.079612 
L 285.920932 293.944348 
L 286.065229 293.924929 
L 286.339394 294.005947 
L 286.584699 293.927261 
L 286.801145 293.841839 
L 287.825656 293.789135 
L 288.042102 293.808603 
L 288.258548 293.852757 
L 288.763589 293.971958 
L 289.196481 293.989859 
L 289.961257 294.195235 
L 290.350859 294.055604 
L 290.581735 294.048794 
L 290.884759 293.971477 
L 291.115635 294.051027 
L 291.274362 293.95249 
L 291.519668 293.946013 
L 291.894841 294.10151 
L 292.443171 294.204031 
L 293.03479 294.163763 
L 293.337814 294.222672 
L 293.842855 294.098574 
L 294.059301 294.061291 
L 295.372406 293.989428 
L 295.834158 294.055086 
L 295.992885 294.117523 
L 296.194901 294.130724 
L 297.32042 294.097056 
L 297.421428 294.048596 
L 297.493577 293.515289 
L 298.142915 285.313884 
L 299.124137 278.922526 
L 300.826845 271.21981 
L 302.471834 265.345116 
L 303.539635 261.869317 
L 304.737302 258.566003 
L 305.155765 257.551057 
L 306.295714 254.830891 
L 306.512159 254.286839 
L 307.291365 252.57233 
L 307.637679 251.852277 
L 308.546752 250.01858 
L 310.81222 246.166908 
L 310.970947 246.012435 
L 312.183044 244.211469 
L 313.193126 242.810297 
L 314.866974 240.646275 
L 315.169999 240.491112 
L 315.501883 240.041339 
L 315.790477 239.770824 
L 316.079072 239.490427 
L 316.526394 238.983706 
L 317.406607 237.944246 
L 317.78178 237.584966 
L 318.301251 237.146876 
L 318.560986 236.990652 
L 318.907299 236.805201 
L 319.138175 236.681238 
L 319.4412 236.415028 
L 320.509 235.486836 
L 321.230486 234.86955 
L 321.54794 234.6235 
L 321.692238 234.500561 
L 321.966403 234.221619 
L 322.341576 233.96734 
L 322.687889 233.736402 
L 323.481525 233.460557 
L 324.549325 232.888524 
L 324.722482 232.799278 
L 325.140944 232.51423 
L 325.443968 232.39546 
L 325.992298 232.016836 
L 326.367471 231.794756 
L 326.930231 231.494225 
L 327.276544 231.578795 
L 329.931615 230.483843 
L 330.22021 230.374438 
L 330.436656 230.319599 
L 331.316869 230.098877 
L 332.052786 229.843314 
L 332.153794 229.860709 
L 332.182653 229.819639 
L 332.35581 229.725803 
L 332.658834 229.667572 
L 332.90414 229.558957 
L 333.250453 229.340553 
L 333.741064 229.114896 
L 333.856502 229.167514 
L 333.899791 229.11761 
L 334.116237 229.024774 
L 334.823294 228.844295 
L 335.0686 228.874792 
L 335.414913 228.77501 
L 335.790086 228.770198 
L 336.309557 228.689279 
L 336.958894 228.60746 
L 337.319638 228.608817 
L 337.463935 228.578973 
L 337.911257 228.324916 
L 338.30086 228.313541 
L 338.589454 228.22084 
L 338.690462 228.165607 
L 338.83476 228.161326 
L 339.007916 228.282563 
L 339.152214 228.297577 
L 339.469668 228.194994 
L 339.657254 228.156725 
L 339.945849 228.088353 
L 340.263303 228.084158 
L 341.186806 227.908244 
L 341.417682 227.861091 
L 341.706276 227.733501 
L 342.254606 227.624626 
L 342.932804 227.435326 
L 343.14925 227.410677 
L 343.495563 227.230765 
L 343.957315 227.169721 
L 345.255991 226.844701 
L 345.458007 226.913295 
L 345.645593 226.898207 
L 346.179493 226.805852 
L 346.35265 226.792651 
L 346.771112 226.515425 
L 347.795623 226.692511 
L 348.069788 226.497807 
L 348.329523 226.383492 
L 348.646978 226.362186 
L 348.906713 226.262922 
L 349.094299 226.285622 
L 349.209737 226.258715 
L 349.440613 226.230858 
L 350.306397 225.98493 
L 350.493983 225.933719 
L 350.68157 225.923504 
L 350.840297 225.914967 
L 351.18661 225.872836 
L 351.633932 225.706581 
L 351.778229 225.681191 
L 352.023535 225.676984 
L 352.615154 225.696761 
L 352.730592 225.666436 
L 352.932608 225.572625 
L 353.610805 225.728307 
L 355.51553 225.467032 
L 355.674257 225.47288 
L 355.861844 225.501983 
L 356.06386 225.575524 
L 356.59776 225.416105 
L 356.770917 225.341169 
L 357.059511 225.375109 
L 357.651131 225.394071 
L 358.026304 225.371444 
L 358.156171 225.341021 
L 358.300468 225.307637 
L 358.314898 225.32164 
L 358.473625 225.32159 
L 358.690071 225.271637 
L 359.29612 225.208829 
L 359.772301 225.110725 
L 360.089755 225.063511 
L 360.219623 224.998371 
L 360.248482 225.023527 
L 360.421639 225.027413 
L 360.565936 225.089567 
L 360.753523 225.124715 
L 361.258564 225.11466 
L 361.44615 225.116388 
L 361.691456 225.169844 
L 361.850183 225.181811 
L 362.124348 225.19305 
L 362.816975 225.020763 
L 363.322015 225.118645 
L 363.59618 225.067891 
L 364.101221 225.139347 
L 364.591832 225.128712 
L 365.010294 225.079216 
L 365.140162 225.111441 
L 365.385467 225.205646 
L 365.558624 225.21696 
L 365.890508 225.123136 
L 366.193532 225.030102 
L 366.409978 224.93011 
L 366.626424 224.789455 
L 366.799581 224.70961 
L 366.958308 224.707858 
L 367.174754 224.655586 
L 368.127116 224.768087 
L 368.357992 224.757058 
L 368.776454 224.869325 
L 369.050619 224.824295 
L 369.238205 224.870793 
L 371.359376 225.038417 
L 372.643622 224.78167 
L 372.845639 224.772516 
L 373.033225 224.75121 
L 373.191952 224.718172 
L 373.379539 224.636808 
L 373.639274 224.690339 
L 373.956728 224.731508 
L 374.548347 224.843529 
L 374.678215 224.822741 
L 374.981239 224.725746 
L 375.240974 224.754282 
L 375.572858 224.585807 
L 376.207766 224.681691 
L 377.289996 224.774046 
L 377.448723 224.742389 
L 377.63631 224.770197 
L 378.17021 224.814709 
L 378.458804 224.867894 
L 378.68968 224.8192 
L 378.963845 224.835041 
L 379.093713 224.811119 
L 379.194721 224.868783 
L 379.310159 224.824628 
L 379.396737 224.805518 
L 379.425596 224.840938 
L 379.627613 224.932664 
L 379.77191 224.939449 
L 380.435678 224.793021 
L 380.666553 224.929308 
L 380.767562 224.871262 
L 380.955148 224.792576 
L 381.37361 224.612245 
L 381.763213 224.52955 
L 384.259557 224.669329 
L 384.519292 224.685392 
L 384.793457 224.746633 
L 385.615952 224.745264 
L 385.832398 224.795648 
L 386.943487 224.805148 
L 387.145503 224.883575 
L 387.462957 224.794378 
L 387.751552 224.8476 
L 388.675055 224.983838 
L 389.151236 224.915256 
L 389.45426 225.017876 
L 389.815004 225.011597 
L 390.074739 224.948616 
L 390.175747 224.895603 
L 390.219036 224.943582 
L 390.464342 225.065041 
L 391.63315 224.85916 
L 391.936174 225.00565 
L 392.383496 225.000469 
L 392.527793 225.021947 
L 392.758669 225.082744 
L 393.061693 225.022873 
L 393.379148 225.093552 
L 393.581164 225.029473 
L 393.855329 225.07417 
L 394.273791 225.002541 
L 395.283872 225.014446 
L 395.644615 224.979372 
L 396.034218 224.914319 
L 396.236234 224.946198 
L 396.669126 224.720997 
L 397.01544 224.772393 
L 397.246316 224.771862 
L 398.487273 224.601487 
L 398.487273 224.601487 
" clip-path="url(#p3a0725d6f0)" style="fill: none; stroke: #1f77b4; stroke-width: 1.5; stroke-linecap: square"/>
   </g>
   <g id="line2d_15">
    <path d="M 73.832727 223.128391 
L 74.22233 223.080536 
L 74.395487 223.069 
L 74.525354 223.120002 
L 74.712941 223.110256 
L 75.044825 223.051075 
L 78.219366 222.910802 
L 78.392523 222.919142 
L 78.796555 222.976707 
L 79.575761 222.999604 
L 79.864355 222.964567 
L 81.033164 223.093181 
L 81.78351 224.971427 
L 82.606004 226.012837 
L 83.067756 226.399234 
L 83.500648 226.873952 
L 84.265424 227.579275 
L 85.01577 228.127658 
L 85.174497 228.151432 
L 85.477521 228.293617 
L 86.328875 228.784188 
L 86.660759 229.031423 
L 87.252378 229.447491 
L 87.540973 229.6844 
L 87.786278 229.81579 
L 88.363468 230.139466 
L 88.493335 230.180536 
L 88.897368 230.466028 
L 89.214822 230.62525 
L 89.474557 230.841384 
L 89.734292 230.97835 
L 90.600076 231.188031 
L 90.758803 231.191115 
L 91.220555 231.356543 
L 92.649098 231.797334 
L 92.793395 231.863918 
L 93.370585 232.179401 
L 94.366236 232.249636 
L 94.640401 232.435741 
L 94.900136 232.504138 
L 95.881358 232.782376 
L 96.256531 232.787089 
L 96.703853 232.983988 
L 97.050166 233.1327 
L 97.497488 233.14764 
L 97.829372 233.285963 
L 99.243486 233.654755 
L 99.416643 233.672878 
L 99.734097 233.584804 
L 100.210278 233.740609 
L 100.527732 233.703943 
L 101.032773 234.04605 
L 101.321367 234.059202 
L 101.566673 234.151532 
L 103.052935 234.263504 
L 103.283811 234.352059 
L 103.861 234.523002 
L 104.135165 234.649309 
L 104.308322 234.714165 
L 104.42376 234.690872 
L 104.654635 234.635096 
L 105.289544 234.562604 
L 105.4627 234.582824 
L 106.472782 234.83191 
L 106.703657 234.995166 
L 108.911406 235.261894 
L 109.185571 235.358481 
L 109.892628 235.419068 
L 110.094644 235.433737 
L 110.397669 235.498852 
L 112.230245 235.627479 
L 113.096029 235.62622 
L 113.269185 235.651844 
L 113.58664 235.677209 
L 113.788656 235.730505 
L 114.481283 235.588839 
L 114.755448 235.565756 
L 115.087332 235.628034 
L 115.260489 235.665822 
L 115.520224 235.609935 
L 115.866537 235.561426 
L 116.284999 235.656643 
L 116.443727 235.683958 
L 116.616883 235.720562 
L 117.396089 235.715726 
L 117.800121 235.789612 
L 118.233013 235.824452 
L 118.449459 235.86134 
L 118.680335 235.865128 
L 118.92564 235.880845 
L 119.892433 235.988215 
L 120.03673 236.005018 
L 120.859225 235.983255 
L 121.0901 235.999861 
L 121.248827 235.944011 
L 121.421984 235.98159 
L 121.566281 235.957717 
L 122.287768 235.98101 
L 122.590792 235.985192 
L 122.879387 235.903582 
L 123.153552 235.868261 
L 123.471006 235.900979 
L 123.615303 235.887433 
L 124.105914 235.959013 
L 124.32236 236.00941 
L 124.726393 236.119049 
L 125.866342 236.035836 
L 126.198226 235.95224 
L 126.602258 236.036157 
L 128.016372 236.146376 
L 128.333826 236.201313 
L 128.535842 236.27441 
L 128.810007 236.383273 
L 129.069742 236.328348 
L 129.315048 236.390268 
L 130.498286 236.486719 
L 130.714732 236.593496 
L 132.172135 236.47569 
L 132.561737 236.474407 
L 132.763754 236.486003 
L 132.879192 236.546344 
L 132.96577 236.584577 
L 133.009059 236.54949 
L 133.095638 236.619454 
L 133.268794 236.692736 
L 133.831554 236.810481 
L 134.06243 236.842705 
L 134.495322 236.972245 
L 134.783916 236.976328 
L 135.274527 236.996956 
L 135.534262 237.006381 
L 138.694374 236.828986 
L 138.925249 236.854894 
L 139.055117 236.927523 
L 139.300422 237.047599 
L 140.252785 236.982102 
L 140.49809 236.933235 
L 140.902123 236.737297 
L 141.306155 236.713659 
L 141.652469 236.809864 
L 141.998782 236.777948 
L 142.157509 236.791321 
L 142.373955 236.801166 
L 142.66255 236.876595 
L 142.980004 236.891906 
L 143.326318 236.971184 
L 143.528334 236.930348 
L 143.74478 237.007035 
L 144.062234 236.893176 
L 144.206531 236.91811 
L 144.581704 236.909412 
L 144.884729 236.825544 
L 146.544148 237.072237 
L 147.280064 237.043479 
L 147.453221 237.018484 
L 147.770675 237.072853 
L 149.487813 236.998239 
L 149.805267 237.002507 
L 150.137151 237.006048 
L 150.339168 236.968013 
L 150.7432 236.869267 
L 150.974076 236.918825 
L 151.493546 236.774975 
L 151.940868 236.861976 
L 152.532487 236.834094 
L 153.946601 236.881135 
L 154.365063 236.753817 
L 154.581509 236.793542 
L 155.880185 236.948249 
L 156.096631 237.012636 
L 159.617485 237.095887 
L 159.89165 237.056988 
L 160.151385 236.998251 
L 160.540988 236.987974 
L 160.757434 236.98853 
L 161.089318 237.071274 
L 161.363483 237.182382 
L 161.652078 237.175905 
L 161.911813 237.309466 
L 162.04168 237.305963 
L 162.402424 237.206809 
L 162.979613 237.169786 
L 163.224918 237.050647 
L 163.600091 236.977833 
L 163.931975 236.795183 
L 167.063227 236.696881 
L 167.409541 236.777405 
L 167.698135 236.799982 
L 167.885722 236.784672 
L 168.232036 236.828148 
L 168.636068 236.782821 
L 169.126679 236.726305 
L 169.343125 236.757037 
L 169.58843 236.779564 
L 169.833736 236.858805 
L 170.107901 236.892498 
L 171.305568 237.19446 
L 171.550874 237.340654 
L 171.839469 237.376136 
L 172.791831 237.4233 
L 173.657615 237.678456 
L 173.989499 237.667488 
L 174.306953 237.65298 
L 174.566688 237.715702 
L 174.797564 237.729211 
L 174.941861 237.651154 
L 175.172737 237.654991 
L 175.54791 237.937769 
L 176.197248 237.921879 
L 176.58685 237.909073 
L 176.962024 237.909418 
L 177.322767 237.849559 
L 178.549294 237.86899 
L 178.881178 237.874751 
L 179.241921 237.874307 
L 179.429508 237.926036 
L 179.746962 237.863167 
L 180.338581 237.791612 
L 180.540597 237.713876 
L 180.90134 237.799113 
L 181.161076 237.769035 
L 181.492959 237.850274 
L 181.723835 237.926098 
L 181.853703 237.86672 
L 182.02686 237.89507 
L 182.834925 238.1427 
L 182.993652 238.12338 
L 184.378906 238.161995 
L 184.494344 238.206026 
L 184.624211 238.178971 
L 185.013814 238.105973 
L 185.735301 238.135397 
L 186.110474 238.315839 
L 186.990687 238.262185 
L 187.134985 238.170039 
L 187.163844 238.201906 
L 187.279282 238.275003 
L 187.322571 238.240842 
L 187.539017 238.26158 
L 187.971909 238.228887 
L 188.289363 238.340254 
L 188.621247 238.424713 
L 188.938701 238.336294 
L 189.169577 238.298628 
L 189.371593 238.329372 
L 189.674618 238.373391 
L 189.977642 238.395647 
L 190.121939 238.419359 
L 190.396104 238.39603 
L 190.511542 238.448709 
L 190.699129 238.48366 
L 191.088731 238.464611 
L 191.507194 238.452089 
L 191.882367 238.422517 
L 192.21425 238.347742 
L 192.502845 238.34947 
L 192.863588 238.466314 
L 193.137753 238.465105 
L 193.570645 238.552057 
L 193.84481 238.5781 
L 194.061256 238.514453 
L 194.191124 238.539473 
L 194.479718 238.599937 
L 194.898181 238.450819 
L 195.258924 238.437532 
L 195.749535 238.577434 
L 196.081419 238.488447 
L 196.240146 238.505978 
L 196.644178 238.543667 
L 197.033781 238.579803 
L 197.365665 238.563468 
L 197.538822 238.482179 
L 197.697549 238.545321 
L 198.043862 238.529492 
L 198.303597 238.456346 
L 198.765349 238.508334 
L 199.284819 238.585391 
L 199.587844 238.617073 
L 201.40599 238.15178 
L 201.622436 238.027262 
L 202.055328 238.108613 
L 202.300633 238.118519 
L 202.531509 238.144711 
L 205.605042 238.188569 
L 205.73491 238.163574 
L 206.384248 238.005685 
L 206.730561 237.99257 
L 207.206742 237.957767 
L 207.495337 238.071071 
L 207.812791 238.036762 
L 208.245683 238.10881 
L 208.534278 237.978777 
L 208.866161 237.991497 
L 211.146059 238.071602 
L 211.463513 238.183005 
L 213.079643 237.946133 
L 213.382668 237.867546 
L 213.844419 237.910738 
L 214.666914 237.821418 
L 214.88336 237.797904 
L 215.330682 237.711273 
L 216.687076 237.806108 
L 218.187769 238.008843 
L 218.490793 238.084321 
L 218.736098 238.105183 
L 218.966974 238.059413 
L 219.154561 238.080238 
L 219.284428 238.124046 
L 219.399866 238.182068 
L 219.428725 238.159849 
L 219.601882 238.147314 
L 220.207931 238.124515 
L 220.453236 238.070109 
L 220.698542 238.058512 
L 221.044855 238.083063 
L 221.36231 238.017898 
L 221.492177 238.009966 
L 221.650904 238.033036 
L 222.155945 238.039883 
L 222.314672 238.153544 
L 222.473399 238.17379 
L 223.209315 238.107564 
L 223.974091 238.15727 
L 224.103959 238.175332 
L 224.738867 238.243013 
L 224.998602 238.200832 
L 225.619081 238.110611 
L 225.763378 238.073847 
L 226.571443 237.885571 
L 226.831178 237.883103 
L 227.509376 237.782248 
L 227.769111 237.70424 
L 228.043276 237.785714 
L 228.461738 237.756377 
L 229.745984 237.792302 
L 230.294314 237.893146 
L 230.49633 237.928368 
L 231.362114 238.046533 
L 231.520841 238.097929 
L 231.751717 238.143823 
L 232.429914 238.036799 
L 232.704079 237.999097 
L 232.934955 238.131214 
L 233.396706 238.20763 
L 233.988325 238.174456 
L 234.089333 238.215143 
L 234.118193 238.190753 
L 234.320209 238.156037 
L 234.623234 238.127328 
L 234.81082 238.131313 
L 235.027266 238.086233 
L 235.388009 238.141405 
L 235.590026 238.146364 
L 235.763182 238.161255 
L 236.095066 238.235278 
L 236.311512 238.242162 
L 236.931991 238.391502 
L 237.249445 238.307832 
L 238.216237 238.484005 
L 238.346104 238.485819 
L 238.706848 238.377635 
L 239.067591 238.309053 
L 239.385045 238.364533 
L 240.322978 238.537647 
L 241.246481 238.205052 
L 241.563935 238.24421 
L 241.722662 238.114683 
L 241.996827 238.098731 
L 242.285421 238.2383 
L 242.458578 238.257225 
L 243.006908 238.225679 
L 243.180065 238.072835 
L 243.194494 238.08215 
L 243.41094 238.113289 
L 243.915981 238.060116 
L 244.117997 238.055736 
L 244.392162 237.886138 
L 244.550889 237.871482 
L 245.416673 237.919683 
L 245.560971 237.895527 
L 246.080441 237.819382 
L 246.599911 237.812745 
L 247.032803 237.813325 
L 247.292538 237.79989 
L 248.331479 237.786319 
L 248.721082 237.880969 
L 249.153974 237.904817 
L 249.38485 238.037243 
L 249.529147 238.01585 
L 251.938912 238.232884 
L 252.400664 238.227184 
L 252.847985 238.00603 
L 253.064431 237.869557 
L 253.309737 237.901461 
L 253.454034 237.84344 
L 253.800348 237.652277 
L 254.045653 237.553099 
L 254.262099 237.629502 
L 254.781569 237.676371 
L 255.041305 237.751862 
L 255.762791 237.572406 
L 255.907089 237.56567 
L 256.455418 237.506452 
L 256.744013 237.450664 
L 256.90274 237.502356 
L 257.350062 237.508204 
L 257.941681 237.420895 
L 258.143697 237.420525 
L 258.475581 237.328305 
L 258.749746 237.302644 
L 258.951762 237.342172 
L 259.774257 237.457968 
L 259.961843 237.477226 
L 260.135 237.498125 
L 260.510173 237.513361 
L 261.390387 237.482432 
L 263.511557 237.671251 
L 263.93002 237.502603 
L 264.247474 237.263757 
L 264.752514 237.213274 
L 265.488431 237.1214 
L 265.690447 237.153908 
L 266.758247 237.207537 
L 266.902545 237.174338 
L 267.219999 237.110852 
L 267.551882 237.065242 
L 267.68175 237.102117 
L 267.883766 237.183863 
L 268.374377 237.117723 
L 268.677402 237.14278 
L 268.937137 237.24255 
L 269.225731 237.208043 
L 269.471037 237.203577 
L 269.687483 237.193572 
L 270.120375 237.309873 
L 270.351251 237.444557 
L 270.957299 237.235209 
L 271.202605 237.256725 
L 271.635497 237.0712 
L 272.284835 236.857806 
L 272.51571 236.854315 
L 273.655659 236.924352 
L 274.17513 236.984384 
L 274.362716 236.967223 
L 274.535873 236.956243 
L 274.752319 236.908289 
L 275.141922 236.975378 
L 275.444946 236.944313 
L 275.632533 236.897457 
L 275.79126 236.891264 
L 275.964416 236.880654 
L 276.166433 236.832441 
L 276.498316 236.708293 
L 276.916779 236.78672 
L 277.508398 236.624549 
L 277.768133 236.606882 
L 278.287603 236.588549 
L 279.571849 236.4768 
L 279.687287 236.511183 
L 279.874874 236.558681 
L 280.004741 236.627066 
L 280.192328 236.687752 
L 280.423204 236.67465 
L 280.682939 236.779416 
L 281.014823 236.890228 
L 281.303417 236.843705 
L 281.635301 236.989541 
L 281.880607 237.053891 
L 282.77525 237.04702 
L 282.962836 237.041949 
L 283.467877 237.128247 
L 283.583315 237.020914 
L 283.756472 236.955207 
L 284.059496 236.952604 
L 284.232653 236.934876 
L 284.535677 236.935604 
L 284.766553 237.033856 
L 285.026288 237.021223 
L 285.617907 237.044318 
L 285.805494 237.032511 
L 286.079659 237.09073 
L 286.353824 237.159916 
L 286.858864 237.089743 
L 286.974302 237.091507 
L 286.988732 237.075568 
L 287.161889 237.054052 
L 289.23977 236.960154 
L 289.456216 236.913804 
L 290.119984 236.804485 
L 290.451868 236.647705 
L 290.754892 236.715769 
L 290.985768 236.636577 
L 291.3898 236.559076 
L 291.707254 236.627707 
L 292.298873 236.641056 
L 293.164657 236.519684 
L 293.424392 236.352553 
L 293.871714 236.356958 
L 294.593201 236.379016 
L 294.824076 236.554079 
L 295.011663 236.534772 
L 295.559993 236.764291 
L 295.747579 236.770978 
L 295.978455 236.70379 
L 296.23819 236.638058 
L 297.031825 236.713413 
L 297.450288 236.730746 
L 297.551296 236.42016 
L 297.86875 235.594946 
L 299.066418 233.858021 
L 300.00435 232.854881 
L 301.07215 231.930612 
L 301.288596 231.823637 
L 302.572843 231.095552 
L 302.875867 231.013202 
L 303.510775 230.650517 
L 304.001386 230.421763 
L 305.199054 229.701216 
L 306.339003 229.266543 
L 306.714176 229.074973 
L 307.089349 228.969146 
L 307.233646 228.90693 
L 307.608819 228.723835 
L 307.810835 228.653428 
L 308.402454 228.276308 
L 308.604471 228.18109 
L 309.095082 228.09404 
L 309.325957 228.106389 
L 312.341771 227.446331 
L 312.471639 227.423384 
L 312.817952 227.2196 
L 313.813604 227.031213 
L 314.01562 226.953995 
L 314.217637 226.953699 
L 314.679388 226.924399 
L 314.895834 226.920858 
L 315.025702 226.813229 
L 315.429734 226.575839 
L 315.761618 226.621807 
L 316.093502 226.520446 
L 316.814988 226.347344 
L 317.074723 226.154762 
L 317.853929 225.918692 
L 318.806291 225.846767 
L 319.022737 225.847754 
L 319.325762 225.75815 
L 319.917381 225.550665 
L 320.566719 225.549061 
L 320.725446 225.578966 
L 320.999611 225.504278 
L 321.172767 225.521303 
L 321.446932 225.485229 
L 321.620089 225.372172 
L 321.980832 225.285147 
L 322.572451 225.303553 
L 323.077492 225.312745 
L 323.236219 225.285985 
L 323.568103 225.167624 
L 323.928846 225.263433 
L 324.087573 225.158075 
L 324.28959 225.116511 
L 324.736911 224.943348 
L 324.953357 224.896664 
L 325.126514 224.878245 
L 325.631555 224.795426 
L 325.790282 224.754763 
L 327.103387 224.693362 
L 327.305404 224.655931 
L 327.651717 224.610901 
L 327.853733 224.628802 
L 328.57522 224.472503 
L 328.719517 224.434443 
L 329.426574 224.251583 
L 329.570872 224.273913 
L 329.686309 224.206837 
L 329.989334 224.063542 
L 330.552093 224.106721 
L 331.158142 223.979353 
L 331.316869 223.906725 
L 331.504456 223.811507 
L 334.938732 223.620246 
L 335.083029 223.615052 
L 335.414913 223.567702 
L 335.732367 223.653025 
L 335.891094 223.547963 
L 336.020962 223.562718 
L 336.165259 223.513345 
L 336.886746 223.355085 
L 337.031043 223.329745 
L 337.492795 223.36034 
L 337.795819 223.313521 
L 338.459587 223.343414 
L 339.498527 223.22272 
L 339.758263 223.30512 
L 339.945849 223.17352 
L 340.090146 223.176345 
L 340.494179 223.1552 
L 341.085798 223.2233 
L 341.287814 223.222005 
L 342.153598 223.295201 
L 342.398904 223.278151 
L 342.60092 223.301184 
L 342.889514 223.162084 
L 343.452274 222.955129 
L 343.942885 223.023008 
L 344.289198 222.901488 
L 344.72209 222.862527 
L 344.938536 222.85098 
L 345.631164 222.929974 
L 345.775461 222.957831 
L 346.064056 223.012497 
L 346.208353 222.996409 
L 346.756683 222.949405 
L 346.91541 222.885782 
L 347.867772 222.852731 
L 348.040929 222.880539 
L 348.228515 222.87252 
L 348.935572 222.73152 
L 349.180878 222.72698 
L 349.556051 222.687526 
L 350.003372 222.772923 
L 350.537273 222.909568 
L 351.244329 222.811538 
L 352.586295 222.941534 
L 352.990327 222.980963 
L 353.278922 223.034494 
L 353.466508 223.046288 
L 354.043697 223.111946 
L 354.346722 223.296558 
L 354.620887 223.241905 
L 354.923911 223.234576 
L 357.780998 223.155459 
L 357.910866 223.123123 
L 358.069593 223.099251 
L 358.415906 223.111576 
L 359.425988 223.066533 
L 359.743442 223.09043 
L 359.988747 223.022218 
L 360.840101 223.196541 
L 361.013258 223.190422 
L 361.244134 223.184068 
L 361.720315 223.07512 
L 362.052199 223.098289 
L 362.225356 223.140666 
L 362.52838 222.954414 
L 362.788115 222.995323 
L 363.119999 223.030028 
L 363.538461 222.946715 
L 363.827056 223.121396 
L 363.971353 223.090529 
L 364.288807 223.054073 
L 364.534113 223.059205 
L 364.736129 223.088666 
L 364.952575 223.065953 
L 365.154591 223.085051 
L 365.616343 223.077032 
L 366.020375 222.953155 
L 366.193532 222.958522 
L 366.741862 222.839741 
L 367.319051 222.834596 
L 367.477778 222.808713 
L 367.852951 222.888188 
L 368.877462 222.813931 
L 369.267065 222.675213 
L 369.5268 222.700948 
L 369.930833 222.70766 
L 370.363725 222.71352 
L 370.62346 222.694138 
L 370.868765 222.568732 
L 371.1285 222.484753 
L 372.701341 222.788838 
L 373.105374 222.745744 
L 373.653704 222.679025 
L 374.000017 222.769641 
L 374.562777 222.811661 
L 374.865801 222.781806 
L 375.154396 222.810107 
L 375.356412 222.818212 
L 375.630577 222.924089 
L 375.832593 223.021022 
L 376.034609 223.040243 
L 376.323204 223.029546 
L 376.568509 223.087494 
L 376.727237 223.095439 
L 376.958112 223.109947 
L 377.477583 223.107307 
L 377.63631 223.108319 
L 377.795037 223.104334 
L 378.314507 223.080005 
L 378.646391 223.045535 
L 379.180291 223.013299 
L 379.324588 223.033581 
L 379.569894 223.034987 
L 379.75748 223.038997 
L 380.031645 222.990166 
L 380.680983 223.022045 
L 381.200454 223.015939 
L 381.359181 222.981333 
L 382.527989 223.136472 
L 382.859873 223.060624 
L 383.321624 223.27614 
L 383.639078 223.158457 
L 383.869954 223.196183 
L 384.05754 223.127096 
L 384.07197 223.141296 
L 384.201838 223.11809 
L 384.331705 223.160134 
L 384.591441 223.209372 
L 384.851176 223.088271 
L 384.865606 223.106246 
L 385.067622 223.210877 
L 385.327357 223.203635 
L 387.448528 223.214529 
L 387.607255 223.225151 
L 387.809271 223.296003 
L 388.790493 223.189447 
L 389.093517 223.171719 
L 389.223385 223.139815 
L 389.771714 222.952995 
L 390.291185 222.984528 
L 390.478771 222.952995 
L 391.849596 222.943224 
L 391.993893 222.978163 
L 393.76875 223.126726 
L 393.927477 223.178985 
L 396.063078 223.337431 
L 396.539259 223.489695 
L 397.02987 223.39745 
L 397.650348 223.127071 
L 398.184248 223.180182 
L 398.328546 223.263593 
L 398.487273 223.31114 
L 398.487273 223.31114 
" clip-path="url(#p3a0725d6f0)" style="fill: none; stroke: #ff7f0e; stroke-width: 1.5; stroke-linecap: square"/>
   </g>
   <g id="line2d_16">
    <path d="M 73.832727 223.160788 
L 74.020314 223.20171 
L 74.179041 223.160221 
L 74.381057 223.212912 
L 74.525354 223.209618 
L 74.712941 223.146169 
L 75.116973 223.278533 
L 75.217982 223.320726 
L 75.246841 223.291487 
L 75.419998 223.260965 
L 75.665303 223.22198 
L 76.271352 223.349953 
L 77.887482 223.253304 
L 78.132787 223.290747 
L 78.637828 223.357108 
L 79.157298 223.330867 
L 79.359315 223.418029 
L 79.705628 223.379266 
L 80.311677 223.329313 
L 80.484834 223.315335 
L 80.773428 223.308673 
L 80.932156 223.40426 
L 81.062023 223.337825 
L 81.278469 223.266554 
L 81.437196 223.388642 
L 81.624783 223.370654 
L 82.230831 223.405482 
L 82.447277 223.389579 
L 83.284202 223.251824 
L 83.500648 223.221943 
L 83.688234 223.189558 
L 84.279853 223.236192 
L 84.525159 223.370642 
L 84.770464 223.424937 
L 85.376513 223.408196 
L 85.766116 223.463071 
L 85.968132 223.486253 
L 86.256727 223.555784 
L 87.988295 223.588835 
L 88.175881 223.590402 
L 88.349038 223.608772 
L 88.78193 223.565617 
L 89.28697 223.41355 
L 89.445698 223.459259 
L 89.662144 223.464934 
L 90.152754 223.30185 
L 90.325911 223.262076 
L 90.484638 223.213492 
L 90.499068 223.230049 
L 90.672225 223.280149 
L 90.845382 223.265592 
L 91.076257 223.280038 
L 91.422571 223.225681 
L 91.740025 223.268935 
L 92.043049 223.235822 
L 92.273925 223.188053 
L 93.962204 222.924965 
L 94.496104 223.129353 
L 95.015574 223.066299 
L 95.419607 223.062215 
L 95.78035 222.970773 
L 96.083374 223.034358 
L 96.516266 222.961359 
L 97.180034 222.886276 
L 97.497488 222.892013 
L 98.406561 223.011991 
L 98.709586 223.044252 
L 99.661948 222.869498 
L 99.907253 222.816806 
L 100.253567 222.87706 
L 100.542162 222.735307 
L 101.076062 222.931948 
L 101.609962 222.993016 
L 102.475746 222.93597 
L 102.894208 222.934057 
L 103.096224 222.837693 
L 103.442538 222.806221 
L 103.861 222.737121 
L 104.495908 222.797313 
L 105.000949 222.798744 
L 105.982171 222.849832 
L 106.198617 222.926038 
L 106.415063 222.937364 
L 106.862384 223.023588 
L 107.049971 223.016062 
L 107.973474 222.870164 
L 108.088912 222.919179 
L 108.492944 222.987909 
L 108.666101 223.033272 
L 108.795968 222.967355 
L 108.954696 222.943865 
L 109.834909 222.906756 
L 110.181223 223.063782 
L 110.368809 223.106752 
L 110.498677 223.071949 
L 110.715123 223.074071 
L 110.902709 223.060364 
L 111.047007 223.089739 
L 111.436609 223.030065 
L 112.100377 223.016247 
L 112.634277 223.112328 
L 113.341334 223.019171 
L 113.947383 223.025537 
L 114.221548 222.988291 
L 116.111843 223.040391 
L 116.588024 222.929086 
L 117.540386 222.941941 
L 118.160865 222.833843 
L 119.878003 222.737923 
L 120.541771 222.750852 
L 120.772646 222.811464 
L 121.017952 222.835497 
L 121.320976 222.795882 
L 121.566281 222.813487 
L 121.797157 222.841011 
L 122.215619 222.820408 
L 122.879387 222.831351 
L 123.297849 222.883155 
L 123.557585 222.877751 
L 123.759601 222.83958 
L 124.033766 222.861997 
L 124.452228 223.061117 
L 124.639814 223.064325 
L 124.827401 223.082349 
L 125.029417 223.031533 
L 125.664325 222.914355 
L 125.924061 222.866179 
L 126.51568 222.68169 
L 127.006291 222.681209 
L 127.179447 222.717036 
L 127.55462 222.766088 
L 128.059661 222.802655 
L 128.449264 222.838445 
L 128.607991 222.855458 
L 128.997594 223.035579 
L 129.242899 223.09381 
L 129.430486 223.104124 
L 131.003326 223.059266 
L 131.277491 223.111847 
L 131.840251 223.300555 
L 132.172135 223.428182 
L 132.460729 223.393799 
L 133.110067 223.549221 
L 134.250016 223.41455 
L 134.452032 223.445935 
L 136.097022 223.370346 
L 136.284608 223.361858 
L 136.501054 223.351643 
L 136.630922 223.389444 
L 136.905087 223.456927 
L 137.208111 223.315532 
L 137.438987 223.318542 
L 137.713152 223.30776 
L 138.506787 223.308944 
L 138.809812 223.303541 
L 138.982968 223.282037 
L 139.156125 223.243496 
L 139.43029 223.25059 
L 139.574587 223.262298 
L 140.339363 223.33484 
L 140.642388 223.243595 
L 140.801115 223.172052 
L 141.147428 223.130229 
L 142.777988 223.133215 
L 143.124301 223.028485 
L 143.614912 223.130599 
L 143.788069 223.150869 
L 143.961226 223.244039 
L 144.29311 223.257758 
L 144.552845 223.165341 
L 144.928018 223.201501 
L 145.303191 223.125504 
L 145.461918 223.082522 
L 145.591786 223.102496 
L 145.88038 223.106184 
L 146.111256 223.054998 
L 147.049189 223.002244 
L 147.52537 222.937993 
L 148.376724 222.857234 
L 149.1415 222.826145 
L 149.473384 222.846082 
L 152.532487 222.893913 
L 152.806652 222.887744 
L 152.936519 222.820322 
L 153.095246 222.853077 
L 153.44156 222.844601 
L 153.802303 222.720355 
L 153.98989 222.662321 
L 154.336203 222.664418 
L 155.490582 222.34057 
L 155.865755 222.392682 
L 156.168779 222.303398 
L 156.846977 222.151751 
L 157.020134 222.172749 
L 157.337588 222.217927 
L 157.900347 222.186961 
L 158.419818 222.315711 
L 158.564115 222.3544 
L 158.867139 222.492884 
L 159.271172 222.478449 
L 159.473188 222.469505 
L 159.617485 222.540505 
L 159.776212 222.523072 
L 160.641996 222.452073 
L 160.858442 222.465791 
L 161.392342 222.448581 
L 161.579929 222.499965 
L 162.734308 222.366034 
L 163.080621 222.298797 
L 163.585662 222.277959 
L 163.802108 222.290346 
L 164.061843 222.273481 
L 164.364867 222.284005 
L 165.576965 222.162867 
L 165.793411 222.137144 
L 166.038716 222.168949 
L 166.3706 222.232053 
L 166.659195 222.152405 
L 166.789062 222.153417 
L 166.803492 222.135873 
L 167.034368 222.003028 
L 167.423971 221.997772 
L 167.553838 222.028812 
L 167.828003 222.075829 
L 168.765936 222.278083 
L 168.982382 222.074324 
L 169.198828 221.985768 
L 169.732728 221.901925 
L 169.920314 221.88226 
L 170.093471 221.988309 
L 170.266628 222.046306 
L 170.858247 221.877535 
L 171.464296 221.930609 
L 172.83512 221.977305 
L 173.686474 222.076606 
L 174.379101 222.28245 
L 177.120751 222.442536 
L 177.265048 222.375385 
L 177.293907 222.418257 
L 177.467064 222.498435 
L 177.66908 222.579934 
L 178.693591 222.700763 
L 179.357359 222.487468 
L 179.617094 222.360581 
L 179.934548 222.263402 
L 180.973489 222.191143 
L 181.117786 222.160362 
L 181.44967 222.194363 
L 181.882562 222.164631 
L 182.02686 222.187479 
L 182.156727 222.209575 
L 182.171157 222.196337 
L 182.387603 222.15597 
L 182.964792 222.313058 
L 183.354395 222.389153 
L 183.64299 222.377877 
L 183.830576 222.409177 
L 183.960444 222.375916 
L 184.378906 222.279859 
L 185.388987 222.474267 
L 185.605433 222.591013 
L 185.850739 222.631158 
L 186.211482 222.701121 
L 186.471217 222.779165 
L 186.759812 222.815745 
L 187.134985 222.824159 
L 187.524588 222.666047 
L 187.654455 222.686415 
L 187.92862 222.703885 
L 188.188355 222.601326 
L 188.390371 222.582216 
L 188.577958 222.568374 
L 188.938701 222.577837 
L 189.256155 222.485728 
L 189.602469 222.530092 
L 189.891064 222.388216 
L 190.035361 222.468728 
L 190.222947 222.504184 
L 190.699129 222.372659 
L 190.886715 222.261341 
L 191.088731 222.323347 
L 191.247458 222.275122 
L 191.420615 222.232139 
L 192.041094 222.180065 
L 192.820299 222.323014 
L 193.080034 222.325383 
L 193.282051 222.353401 
L 194.234413 222.381233 
L 194.450859 222.437885 
L 194.9559 222.384613 
L 195.446511 222.375866 
L 195.605238 222.232213 
L 195.735105 222.171959 
L 195.763965 222.19688 
L 195.965981 222.228192 
L 196.52874 222.202654 
L 196.918343 222.261724 
L 202.300633 221.922183 
L 202.762385 222.023334 
L 202.935542 222.008814 
L 203.180847 222.042 
L 204.465093 222.09526 
L 204.667109 222.123277 
L 205.114431 222.30161 
L 206.398677 222.199804 
L 206.586264 222.221912 
L 207.033585 222.134936 
L 207.235602 222.170725 
L 207.88494 221.973419 
L 208.086956 222.022323 
L 208.346691 222.069796 
L 209.024889 222.18701 
L 209.284624 222.121204 
L 209.544359 222.129742 
L 210.352424 222.140944 
L 210.525581 222.13211 
L 210.987332 221.821599 
L 211.521232 221.762109 
L 211.766538 221.723815 
L 212.112851 221.761233 
L 212.877627 221.676342 
L 213.065214 221.706531 
L 213.339378 221.660402 
L 213.526965 221.725024 
L 214.060865 221.720829 
L 214.551476 221.882013 
L 215.330682 221.902764 
L 215.648136 221.8773 
L 215.907871 221.903147 
L 216.037738 221.956122 
L 216.326333 221.979081 
L 216.586068 221.938369 
L 216.759225 221.929795 
L 217.062249 221.887084 
L 217.480712 221.856475 
L 218.303206 222.064429 
L 218.505223 222.139377 
L 218.736098 222.218877 
L 218.909255 222.163508 
L 219.16899 222.223726 
L 219.645171 222.424006 
L 219.789469 222.484864 
L 220.539815 222.624039 
L 220.78512 222.645234 
L 220.987137 222.718307 
L 221.405599 222.670809 
L 222.127085 222.694619 
L 222.43011 222.625297 
L 222.920721 222.715432 
L 223.411332 222.75158 
L 223.959661 222.898095 
L 224.103959 222.913566 
L 224.305975 222.977805 
L 225.243908 222.924842 
L 226.18184 222.656979 
L 226.629162 222.729274 
L 227.711392 222.596577 
L 228.115424 222.342087 
L 229.500679 221.917001 
L 230.207735 221.859005 
L 230.669487 221.938209 
L 230.986941 221.857882 
L 232.67522 221.952631 
L 233.642012 221.946474 
L 233.872887 221.984695 
L 234.089333 221.993824 
L 235.056125 221.941318 
L 235.35915 221.815825 
L 236.224934 221.902308 
L 236.484669 221.925884 
L 238.447113 221.928931 
L 238.807856 221.890896 
L 239.428334 221.833529 
L 239.630351 221.805536 
L 240.582713 221.890291 
L 241.030035 221.924206 
L 241.203191 221.873957 
L 241.390778 221.869158 
L 241.650513 221.932077 
L 242.314281 221.962784 
L 242.487438 222.030194 
L 242.718313 221.965708 
L 242.978048 221.866691 
L 243.555238 221.934507 
L 244.103568 221.930572 
L 244.839484 222.08634 
L 245.330095 221.976737 
L 247.133811 222.15982 
L 247.407976 222.207712 
L 248.057314 222.139451 
L 248.403628 222.233965 
L 248.908668 222.18759 
L 249.788882 222.364381 
L 249.962039 222.381949 
L 250.106336 222.483606 
L 250.351642 222.56814 
L 250.582517 222.580526 
L 251.130847 222.50849 
L 252.934564 222.229956 
L 253.15101 222.282006 
L 253.511753 222.157512 
L 253.771488 222.20179 
L 253.973504 222.200137 
L 254.276529 222.216151 
L 254.853718 222.296255 
L 256.657435 222.187381 
L 256.787302 222.160301 
L 256.960459 222.122512 
L 257.321202 222.073781 
L 257.566508 222.1187 
L 258.922903 222.143942 
L 259.124919 222.155107 
L 259.283646 222.066181 
L 259.471232 222.02405 
L 260.019562 222.120156 
L 260.207149 222.093298 
L 260.394735 222.115838 
L 260.596752 222.155539 
L 260.6689 222.183593 
L 260.712189 222.137687 
L 260.899776 222.092323 
L 261.808849 222.038484 
L 262.386038 222.085254 
L 262.573625 222.061851 
L 262.963228 222.047626 
L 263.150814 222.026838 
L 263.482698 221.913214 
L 264.261904 221.679167 
L 264.492779 221.750833 
L 264.781374 221.846371 
L 265.01225 221.90707 
L 265.199836 222.015957 
L 265.416282 222.061098 
L 265.661588 222.073028 
L 266.036761 222.025814 
L 266.224347 222.1064 
L 266.484082 222.098529 
L 266.873685 221.993232 
L 267.465304 222.092829 
L 267.68175 222.142696 
L 267.811618 222.053388 
L 268.056923 222.016056 
L 268.475385 222.060296 
L 268.720691 222.014711 
L 268.922707 222.03619 
L 270.553267 221.91504 
L 270.711994 221.915225 
L 270.986159 221.87793 
L 271.404621 221.908168 
L 272.241545 221.745442 
L 273.381494 221.73419 
L 274.102981 221.77188 
L 274.232848 221.762109 
L 274.247278 221.778221 
L 274.449294 221.84494 
L 275.993276 221.928203 
L 276.137573 221.983893 
L 276.31073 221.971469 
L 276.945638 222.029984 
L 277.566117 222.098665 
L 278.431901 221.929733 
L 278.662776 221.955308 
L 278.951371 221.953001 
L 279.326544 221.997353 
L 279.831585 222.060247 
L 280.019171 222.072954 
L 280.322195 222.141857 
L 280.971533 222.171145 
L 281.433285 222.152183 
L 281.649731 222.160066 
L 281.938326 222.138304 
L 282.125912 222.253483 
L 282.356788 222.2219 
L 282.78968 222.11817 
L 283.092704 222.190181 
L 283.32358 222.159955 
L 283.742042 222.044307 
L 284.247083 222.050106 
L 284.91085 222.128471 
L 285.084007 222.143843 
L 285.286023 222.131642 
L 286.310534 222.100737 
L 286.52698 222.131136 
L 286.844434 222.084144 
L 286.959872 222.130815 
L 287.161889 222.168357 
L 287.695789 222.262427 
L 287.955524 222.300832 
L 288.345127 222.184851 
L 288.7203 222.192352 
L 289.037754 222.307704 
L 289.210911 222.359372 
L 289.412927 222.344506 
L 289.600513 222.278848 
L 289.932397 222.352599 
L 290.682743 222.392595 
L 290.827041 222.358002 
L 291.101205 222.398789 
L 291.259933 222.350082 
L 291.606246 222.316685 
L 291.894841 222.405796 
L 292.356592 222.188417 
L 292.587468 222.249769 
L 293.092509 222.102477 
L 293.438822 222.044036 
L 294.347895 221.978761 
L 294.521052 221.938825 
L 294.694209 221.990024 
L 295.083812 222.098035 
L 296.180471 221.777814 
L 296.512355 221.901062 
L 296.743231 221.859239 
L 296.945247 221.819205 
L 297.378139 221.846458 
L 297.623444 221.834318 
L 297.825461 221.790299 
L 298.41708 221.720311 
L 298.633526 221.824979 
L 299.008699 221.90121 
L 299.383872 221.77151 
L 299.686896 221.667792 
L 299.975491 221.541337 
L 300.278515 221.464884 
L 300.639258 221.452424 
L 301.000002 221.1826 
L 301.245307 221.253674 
L 301.461753 221.232195 
L 302.313107 221.16914 
L 303.178891 221.396056 
L 303.395337 221.38003 
L 303.712791 221.402755 
L 304.217832 221.31584 
L 304.434278 221.300357 
L 304.636294 221.279483 
L 305.011467 221.174297 
L 305.213484 221.13219 
L 306.180276 221.239597 
L 306.454441 221.18545 
L 306.685316 221.163576 
L 307.175927 221.324834 
L 307.435662 221.341279 
L 307.709827 221.427799 
L 307.882984 221.408936 
L 308.474603 221.602838 
L 308.676619 221.687828 
L 308.979644 221.713452 
L 309.354817 221.87049 
L 310.24946 221.839611 
L 310.552485 221.880039 
L 312.183044 222.219395 
L 312.356201 222.247351 
L 313.063258 222.330996 
L 313.337423 222.399751 
L 313.539439 222.306236 
L 315.732758 222.530018 
L 315.963634 222.532362 
L 316.266658 222.48442 
L 316.382096 222.521777 
L 316.627402 222.56054 
L 316.973715 222.497263 
L 317.146872 222.523035 
L 317.334459 222.413272 
L 317.608624 222.348367 
L 318.229102 222.322459 
L 318.402259 222.30003 
L 318.89287 222.152405 
L 319.037167 222.200137 
L 319.239183 222.19123 
L 319.542208 222.109176 
L 320.509 222.311516 
L 320.725446 222.397691 
L 321.418073 222.339065 
L 321.807676 222.357311 
L 323.337227 222.217754 
L 323.495954 222.2976 
L 323.798979 222.361395 
L 324.563755 222.324581 
L 324.837919 222.321139 
L 325.068795 222.338633 
L 325.285241 222.334624 
L 326.064447 222.391251 
L 326.151025 222.42176 
L 326.194314 222.380986 
L 326.454049 222.289384 
L 326.656066 222.315254 
L 327.406412 222.377421 
L 327.49299 222.406647 
L 327.536279 222.370327 
L 327.767155 222.375065 
L 328.156758 222.269533 
L 328.344344 222.25537 
L 328.777236 222.401565 
L 329.383285 222.467901 
L 329.556442 222.41004 
L 329.772888 222.415345 
L 329.974904 222.547611 
L 330.22021 222.552176 
L 330.465515 222.442598 
L 330.667531 222.491452 
L 331.27358 222.585523 
L 331.749761 222.416085 
L 331.966207 222.480053 
L 332.240372 222.297785 
L 332.413529 222.362777 
L 332.803132 222.455502 
L 333.048437 222.289248 
L 333.279313 222.37504 
L 333.495759 222.403489 
L 334.231675 222.343136 
L 334.765575 222.490305 
L 335.241756 222.579527 
L 335.371624 222.458796 
L 335.414913 222.502642 
L 335.57364 222.524022 
L 339.152214 222.984072 
L 339.296511 222.968268 
L 339.498527 223.003589 
L 339.772692 223.040872 
L 340.551898 223.084064 
L 340.811633 223.085261 
L 341.028079 223.028288 
L 341.460971 223.015359 
L 341.850574 223.011719 
L 342.398904 223.096216 
L 342.57206 223.119003 
L 342.961663 223.125924 
L 343.726439 222.949923 
L 344.130471 222.874815 
L 344.664372 222.955586 
L 345.154982 222.941127 
L 345.371428 222.949109 
L 345.688882 222.947073 
L 346.309361 222.919389 
L 346.540237 222.924718 
L 346.814402 222.991672 
L 347.160715 223.025438 
L 348.877853 222.936562 
L 349.527191 223.039157 
L 349.801356 223.008968 
L 350.162099 223.085952 
L 350.436264 223.027634 
L 350.898016 223.167228 
L 352.31213 223.278028 
L 352.644013 223.314212 
L 354.46216 223.353086 
L 354.664176 223.302566 
L 354.837333 223.333051 
L 355.703117 223.27345 
L 355.933992 223.301974 
L 358.055163 223.26669 
L 358.589063 223.135374 
L 358.964236 223.206954 
L 359.252831 223.166488 
L 359.425988 223.164687 
L 359.902169 223.165822 
L 360.421639 223.157297 
L 360.724663 223.008882 
L 360.89782 223.083126 
L 361.042118 223.096623 
L 361.330712 223.14971 
L 361.547158 223.242756 
L 361.98005 223.209557 
L 362.196496 223.248258 
L 362.614958 223.219648 
L 362.903553 223.244347 
L 363.206577 223.089591 
L 363.913634 223.037553 
L 364.404245 223.009301 
L 364.649551 223.067199 
L 365.270029 223.183563 
L 365.443186 223.148908 
L 365.616343 223.12807 
L 366.078094 223.227655 
L 366.366689 223.097228 
L 366.640854 223.127231 
L 366.799581 223.10991 
L 367.3912 223.123247 
L 368.357992 222.970291 
L 368.516719 222.962346 
L 370.825476 223.315927 
L 371.056352 223.335481 
L 371.604682 223.184994 
L 371.950995 223.098141 
L 372.888928 223.035073 
L 373.235241 223.047053 
L 373.639274 223.102693 
L 374.014447 223.177394 
L 374.620496 223.143122 
L 374.779223 223.26495 
L 375.197685 223.255722 
L 375.45742 223.199687 
L 376.063469 223.316063 
L 376.395353 223.116683 
L 376.626228 223.229864 
L 376.756096 223.203154 
L 376.929253 223.187239 
L 377.275566 223.300987 
L 377.492012 223.225965 
L 379.468886 222.984405 
L 379.670902 222.978927 
L 379.872918 222.986687 
L 380.089364 222.96342 
L 380.392389 222.956252 
L 380.608834 222.939807 
L 380.85414 222.946061 
L 381.027297 222.921375 
L 381.647775 222.774786 
L 382.109527 222.776735 
L 383.56693 222.678507 
L 383.768946 222.685083 
L 384.317276 222.668884 
L 385.428365 222.854015 
L 385.774679 222.826133 
L 387.390809 222.706266 
L 387.650544 222.705081 
L 387.967998 222.643852 
L 388.646195 222.632046 
L 390.781796 222.637178 
L 390.926093 222.650416 
L 391.041531 222.616106 
L 391.128109 222.594492 
L 391.171398 222.632786 
L 391.416704 222.66564 
L 391.561001 222.676324 
L 391.662009 222.573963 
L 391.907315 222.418368 
L 392.888537 222.128052 
L 393.566734 222.058544 
L 393.869758 222.10888 
L 394.34594 222.031082 
L 394.562386 222.025678 
L 394.822121 221.956677 
L 395.052996 222.005483 
L 396.813424 221.906169 
L 397.332894 221.983794 
L 397.491621 221.945537 
L 397.679208 221.920394 
L 397.996662 221.758519 
L 398.328546 221.593486 
L 398.487273 221.592265 
L 398.487273 221.592265 
" clip-path="url(#p3a0725d6f0)" style="fill: none; stroke: #2ca02c; stroke-width: 1.5; stroke-linecap: square"/>
   </g>
   <g id="line2d_17">
    <path d="M 73.832727 223.878584 
L 75.636444 223.737682 
L 75.982757 223.821858 
L 76.213633 223.812692 
L 76.862971 223.934644 
L 78.190506 224.083046 
L 78.637828 224.177721 
L 78.911993 224.073325 
L 79.186158 224.157624 
L 79.388174 224.201273 
L 79.691199 224.108177 
L 79.965363 224.004311 
L 80.758999 223.956505 
L 80.917726 223.93399 
L 81.004304 223.860769 
L 81.090883 222.911986 
L 81.437196 218.945135 
L 82.057675 215.176652 
L 82.663723 212.328816 
L 85.160067 204.077933 
L 85.477521 203.17906 
L 85.924843 201.989673 
L 86.906065 199.848129 
L 87.064792 199.620985 
L 88.464476 197.259694 
L 88.955087 196.287088 
L 89.748722 194.951118 
L 90.93196 193.585743 
L 91.408141 193.126693 
L 92.403793 192.058073 
L 92.706817 191.841003 
L 93.06756 191.518783 
L 93.356155 191.28452 
L 93.962204 190.601108 
L 95.361888 189.455524 
L 95.549474 189.314567 
L 96.256531 188.802041 
L 96.472977 188.741226 
L 97.526348 187.974692 
L 97.91595 187.821355 
L 98.897172 187.446215 
L 99.070329 187.308644 
L 99.272345 187.285154 
L 99.56094 187.142692 
L 102.620043 184.648444 
L 102.721051 184.580793 
L 103.254951 183.855336 
L 103.947578 183.29361 
L 104.106305 183.258184 
L 104.351611 183.253429 
L 104.770073 183.038153 
L 105.058668 182.811317 
L 106.977822 181.258782 
L 107.12212 181.096698 
L 107.396284 180.709165 
L 107.569441 180.51345 
L 108.031193 180.120015 
L 108.204349 180.183316 
L 108.319787 180.149013 
L 109.156712 178.807189 
L 109.907058 177.407832 
L 110.094644 176.994213 
L 110.787272 174.393384 
L 110.960428 171.959075 
L 111.047007 165.139287 
L 111.162445 131.735618 
L 111.436609 53.568 
L 111.479899 54.780346 
L 111.609766 69.487055 
L 112.388972 172.284651 
L 112.677566 185.370878 
L 112.951731 189.668468 
L 113.153748 190.469397 
L 113.269185 190.5463 
L 113.312475 190.494688 
L 113.500061 190.401704 
L 113.932953 190.651036 
L 114.134969 190.880179 
L 114.149399 190.872178 
L 115.17391 190.167706 
L 115.318207 190.100722 
L 115.953116 189.353373 
L 116.386008 188.923642 
L 117.295081 188.116451 
L 117.410519 187.985851 
L 118.175294 186.994826 
L 119.185376 186.03787 
L 119.762565 185.271299 
L 120.729357 184.553177 
L 121.191108 184.330338 
L 121.320976 184.369922 
L 121.335406 184.35648 
L 121.624 184.205542 
L 121.768298 184.148311 
L 122.302198 183.97793 
L 122.489784 183.966734 
L 122.864957 183.634422 
L 123.081403 183.477815 
L 123.26899 183.460537 
L 123.456576 183.334668 
L 124.33679 182.514987 
L 125.202574 181.857568 
L 125.909631 181.508053 
L 127.381464 180.110015 
L 128.045231 179.353888 
L 128.824437 178.769549 
L 129.358337 178.309351 
L 129.574783 178.246586 
L 130.411707 177.073892 
L 130.700302 176.791416 
L 130.945607 176.218815 
L 131.32078 175.51789 
L 131.681524 175.075797 
L 132.085556 174.445829 
L 132.590597 172.42071 
L 133.066778 169.61239 
L 133.196646 167.920656 
L 133.283224 162.887123 
L 133.398662 138.873914 
L 133.716116 58.634831 
L 133.744975 59.097811 
L 133.845984 66.899109 
L 134.928214 181.381246 
L 135.202378 186.411683 
L 135.433254 187.546867 
L 135.563122 187.564213 
L 135.577551 187.543098 
L 135.837287 186.819818 
L 136.659781 184.534381 
L 137.208111 184.199065 
L 137.381268 184.430996 
L 138.708803 187.357579 
L 139.401431 188.774863 
L 139.96419 189.484504 
L 140.267214 189.676117 
L 140.555809 189.719803 
L 140.786685 189.730129 
L 141.450453 189.900035 
L 144.062234 188.390927 
L 144.509556 187.835666 
L 145.245472 187.167928 
L 146.140115 186.787063 
L 146.327702 186.627064 
L 148.131419 185.338117 
L 148.275716 185.285974 
L 148.477732 185.189344 
L 148.723038 185.008063 
L 148.939484 184.770988 
L 149.15593 184.643638 
L 149.314657 184.564434 
L 149.516673 184.451229 
L 149.776408 184.335989 
L 150.122722 184.116746 
L 150.353597 183.971058 
L 150.72877 183.787877 
L 151.161662 183.397532 
L 151.551265 183.263496 
L 151.652273 183.195228 
L 151.695562 183.233399 
L 151.811 183.176846 
L 152.114025 183.0521 
L 152.474768 182.764418 
L 152.806652 182.607539 
L 152.950949 182.552794 
L 153.225114 182.318759 
L 153.585857 181.942108 
L 154.148617 181.337314 
L 154.437212 181.201131 
L 154.797955 181.07496 
L 155.04326 180.879695 
L 155.981193 180.119385 
L 156.255358 179.986571 
L 156.529523 179.766674 
L 156.789258 179.61747 
L 157.784909 178.751241 
L 157.929207 178.695323 
L 158.448677 178.332829 
L 158.693983 178.263624 
L 159.011437 177.841079 
L 159.242312 177.834898 
L 159.429899 177.768494 
L 159.862791 177.249942 
L 160.180245 176.864198 
L 160.483269 176.502574 
L 160.844013 176.367711 
L 161.305764 176.415869 
L 161.652078 176.311368 
L 161.753086 176.318067 
L 161.781945 176.273684 
L 162.402424 175.400583 
L 163.282637 175.186152 
L 163.398075 175.112216 
L 163.816537 174.680178 
L 164.480305 174.478534 
L 164.711181 174.402186 
L 164.855478 174.321144 
L 165.230651 173.836723 
L 165.548105 173.716183 
L 165.677973 173.625814 
L 166.024286 173.173734 
L 166.168584 173.020249 
L 166.413889 172.72559 
L 166.702484 172.316548 
L 167.366252 171.827988 
L 167.611557 171.535654 
L 168.203176 170.473654 
L 168.910233 167.861608 
L 169.198828 165.511882 
L 169.299836 162.780481 
L 169.400844 151.26179 
L 169.58843 93.837879 
L 169.790447 61.609387 
L 169.819306 61.952105 
L 169.920314 68.825621 
L 170.439785 136.629889 
L 170.872677 174.438766 
L 171.161271 183.413292 
L 171.406577 185.876421 
L 171.565304 186.326952 
L 171.594163 186.311574 
L 171.73846 186.031757 
L 172.272361 184.971817 
L 172.474377 184.767854 
L 172.488807 184.777286 
L 172.676393 184.789826 
L 173.138144 184.863183 
L 173.585466 185.613807 
L 174.205945 187.450255 
L 174.811993 188.707496 
L 175.143877 189.054131 
L 175.51905 189.396695 
L 175.980802 189.773327 
L 178.000964 190.146493 
L 180.165424 189.031801 
L 181.189935 188.575366 
L 181.47853 188.344404 
L 181.723835 188.231013 
L 182.705057 187.747295 
L 183.152379 187.658265 
L 183.484262 187.457682 
L 184.061452 187.180974 
L 184.364476 186.934831 
L 184.624211 187.007564 
L 184.811798 187.012616 
L 186.485647 185.812953 
L 186.84639 185.494736 
L 188.404801 184.143475 
L 188.549099 184.030708 
L 189.01085 183.785471 
L 189.169577 183.72056 
L 189.53032 183.491664 
L 190.006501 183.158211 
L 190.237377 183.09618 
L 190.424964 183.022923 
L 191.593772 182.092547 
L 192.012234 182.044364 
L 192.315259 181.984529 
L 192.531705 181.950886 
L 194.205554 180.963229 
L 194.320991 180.891304 
L 194.580727 180.700684 
L 195.287783 180.363919 
L 195.605238 180.06496 
L 195.619667 180.074855 
L 195.807254 180.070117 
L 196.297865 179.720947 
L 196.514311 179.691492 
L 196.759616 179.613096 
L 197.567681 179.236723 
L 197.856276 179.009406 
L 198.14487 178.978829 
L 198.303597 178.979958 
L 198.678771 178.695588 
L 198.924076 178.596848 
L 199.501265 178.466951 
L 200.251611 178.126645 
L 200.424768 178.158105 
L 200.641214 178.156112 
L 200.742222 178.098591 
L 201.175114 177.587867 
L 201.434849 177.467833 
L 201.593576 177.413519 
L 201.781163 177.341625 
L 201.911031 177.302368 
L 202.156336 177.125393 
L 202.48822 177.075791 
L 202.805674 177.250583 
L 203.483871 177.486949 
L 203.801325 177.299962 
L 204.017771 177.075286 
L 204.320796 176.96585 
L 204.566101 177.000147 
L 204.984564 176.751493 
L 205.330877 176.936136 
L 205.547323 176.982832 
L 206.023504 176.920869 
L 206.528545 176.748211 
L 206.730561 176.724802 
L 207.004726 176.577324 
L 207.163453 176.547771 
L 207.827221 176.890729 
L 208.332261 176.715068 
L 208.490988 176.55389 
L 208.519848 176.573284 
L 208.678575 176.563278 
L 208.95274 176.459585 
L 209.226905 176.464933 
L 209.948391 176.684132 
L 210.193697 176.756847 
L 211.174919 176.305341 
L 211.463513 176.401071 
L 211.766538 176.299629 
L 212.141711 176.040032 
L 212.343727 175.904115 
L 212.502454 175.839036 
L 213.382668 175.362134 
L 213.671262 175.127372 
L 213.81556 174.983769 
L 214.594765 173.855944 
L 215.027657 173.644215 
L 215.345111 173.445076 
L 215.547128 173.436545 
L 215.720284 173.326887 
L 216.066598 173.178059 
L 216.210895 173.237819 
L 216.297474 173.128137 
L 216.51392 172.890012 
L 216.687076 172.82433 
L 216.845803 172.81034 
L 216.990101 172.783186 
L 217.206547 172.473889 
L 217.264266 172.523558 
L 217.394133 172.502752 
L 217.971323 171.836074 
L 218.057901 171.811986 
L 218.072331 171.784826 
L 218.404214 171.291541 
L 218.750528 171.062151 
L 219.760609 169.185305 
L 220.020345 168.574133 
L 220.366658 168.286738 
L 220.987137 166.445635 
L 221.535466 163.182278 
L 221.665334 160.250242 
L 221.766342 150.621215 
L 221.939499 104.098019 
L 222.170375 64.388036 
L 222.184804 64.340637 
L 222.199234 64.488361 
L 222.285812 68.805089 
L 222.531118 97.885257 
L 223.151596 166.956918 
L 223.469051 181.123395 
L 223.743215 185.305578 
L 224.002951 186.484854 
L 224.132818 186.384153 
L 224.363694 185.773782 
L 224.753297 184.722028 
L 224.912024 184.467625 
L 225.186189 184.147213 
L 225.561362 184.321024 
L 225.748948 184.708593 
L 227.696962 189.039209 
L 228.721473 189.990355 
L 229.197654 190.038062 
L 229.558398 190.188556 
L 229.644976 190.115101 
L 229.846992 189.96816 
L 230.092298 189.808636 
L 230.424181 189.74344 
L 230.611768 189.720148 
L 230.828214 189.573997 
L 231.477552 189.245158 
L 231.679568 189.176182 
L 232.069171 188.973551 
L 232.415484 188.8596 
L 232.906095 188.67368 
L 233.324558 188.508795 
L 233.468855 188.466911 
L 234.074904 187.997072 
L 234.27692 187.93588 
L 234.478936 187.807549 
L 235.142704 187.347617 
L 235.287001 187.255151 
L 235.517877 187.122175 
L 236.138355 186.686584 
L 236.484669 186.405206 
L 237.913212 185.504538 
L 238.317245 185.193076 
L 238.620269 185.079544 
L 238.966583 184.708359 
L 240.972316 183.082616 
L 241.174332 182.883014 
L 241.491786 182.705514 
L 243.382081 181.571305 
L 243.742824 181.52023 
L 244.464311 181.287034 
L 244.594178 181.208336 
L 244.926062 181.028406 
L 245.07036 180.900507 
L 245.257946 180.801268 
L 245.705268 180.623299 
L 247.797579 179.462165 
L 248.923098 179.487085 
L 249.283841 179.178844 
L 249.586866 179.244415 
L 249.861031 179.063646 
L 250.293923 178.886708 
L 250.45265 178.813376 
L 250.813393 178.515578 
L 251.376153 178.141357 
L 252.328515 177.481416 
L 252.631539 177.364973 
L 252.847985 177.262877 
L 253.555042 176.863106 
L 253.728199 176.917599 
L 253.742629 176.902745 
L 253.901356 176.868837 
L 254.579553 176.922744 
L 255.200032 176.574129 
L 255.445337 176.583024 
L 255.589634 176.481841 
L 255.762791 176.431229 
L 256.008097 176.543774 
L 256.671864 176.418528 
L 257.696375 176.534669 
L 257.97054 176.508921 
L 258.287994 176.658471 
L 258.821894 176.596212 
L 259.03834 176.530098 
L 259.370224 176.335592 
L 259.716538 176.355584 
L 260.019562 176.31642 
L 260.192719 176.243329 
L 260.481314 176.176968 
L 260.68333 176.203332 
L 261.520254 175.86521 
L 262.083014 176.198335 
L 262.386038 176.121759 
L 262.919938 175.498737 
L 263.222963 175.359827 
L 263.338401 175.273061 
L 263.38169 175.302059 
L 263.540417 175.256887 
L 263.958879 174.932453 
L 264.074317 174.855519 
L 264.305193 174.766439 
L 264.651506 174.811099 
L 264.925671 174.691812 
L 265.661588 174.792118 
L 265.820315 174.783088 
L 265.993471 174.855901 
L 266.195488 174.81459 
L 266.58509 174.874536 
L 267.494164 174.77468 
L 267.68175 174.937085 
L 268.20122 175.494715 
L 268.21565 175.481175 
L 268.417666 175.385717 
L 268.619683 175.351691 
L 268.792839 175.410397 
L 268.937137 175.386038 
L 269.153583 175.324747 
L 269.499896 175.335554 
L 269.716342 175.239479 
L 269.875069 175.179743 
L 269.903929 175.23064 
L 270.134805 175.463261 
L 270.336821 175.528648 
L 270.582126 175.686606 
L 270.755283 175.75148 
L 271.909662 175.792464 
L 272.140537 176.010559 
L 273.006321 176.262161 
L 273.323775 176.199076 
L 273.61237 176.260397 
L 273.799957 176.306316 
L 274.088551 176.382682 
L 274.362716 176.377581 
L 274.997624 176.234958 
L 275.170781 176.352333 
L 275.199641 176.326956 
L 275.401657 176.295107 
L 275.603673 176.453515 
L 275.7624 176.471454 
L 276.988927 176.188879 
L 277.219803 175.970871 
L 277.320811 176.02313 
L 277.493968 176.072152 
L 278.316463 176.009529 
L 278.547338 176.084489 
L 278.792644 176.007851 
L 279.788295 175.55112 
L 280.10575 175.400996 
L 280.293336 175.36462 
L 280.524212 175.482532 
L 280.668509 175.42192 
L 280.798377 175.288692 
L 280.841666 175.318757 
L 281.404425 175.464865 
L 281.923896 175.203714 
L 282.385647 175.178411 
L 282.630953 175.003058 
L 282.645382 175.016715 
L 282.890688 175.167696 
L 283.29472 174.743782 
L 283.453447 174.702582 
L 283.626604 174.689838 
L 284.593396 173.942933 
L 285.45918 173.573394 
L 285.733345 173.589889 
L 285.892072 173.60795 
L 286.454832 173.907902 
L 286.642418 173.806811 
L 286.786716 173.692971 
L 286.830005 173.732333 
L 287.464913 174.194239 
L 287.739078 174.214373 
L 288.229689 174.072441 
L 289.109902 173.806127 
L 289.456216 173.927234 
L 289.701521 173.909018 
L 290.163273 173.979444 
L 290.812611 173.316585 
L 290.985768 173.214348 
L 291.259933 173.07096 
L 291.490808 173.019435 
L 292.082427 173.00711 
L 292.47203 172.938633 
L 292.587468 172.847826 
L 292.919352 172.373687 
L 293.078079 172.383637 
L 293.294525 172.319441 
L 293.482111 172.317535 
L 293.886144 172.381164 
L 294.521052 172.24548 
L 294.766357 172.46769 
L 295.473414 172.549373 
L 295.70429 172.724862 
L 295.920736 172.767715 
L 296.166041 172.88393 
L 296.570074 173.18002 
L 296.584504 173.161262 
L 296.815379 172.995704 
L 297.32042 172.849177 
L 297.450288 172.92859 
L 297.536866 173.922114 
L 297.897609 178.394088 
L 298.41708 182.27334 
L 299.45602 188.235554 
L 300.58154 192.772094 
L 300.870134 193.637873 
L 301.880215 196.718744 
L 302.486264 198.020959 
L 305.747384 204.8661 
L 306.353432 205.73999 
L 307.507811 207.653194 
L 307.911844 208.33565 
L 308.171579 208.694184 
L 308.994073 209.950536 
L 311.706863 213.031265 
L 311.86559 213.076702 
L 312.615936 213.817667 
L 313.019969 214.103622 
L 313.294134 214.279746 
L 313.46729 214.412715 
L 313.871323 214.864382 
L 314.59281 215.476116 
L 314.794826 215.652382 
L 315.169999 215.817791 
L 315.343156 215.901794 
L 315.64618 216.098336 
L 316.050212 216.391292 
L 316.338807 216.563172 
L 317.175732 217.198729 
L 317.680772 217.601788 
L 317.954937 217.787158 
L 318.517697 217.904355 
L 318.907299 218.033006 
L 319.181464 218.187015 
L 319.801943 218.482285 
L 320.162686 218.546506 
L 321.706668 219.003915 
L 322.139559 219.212936 
L 322.558022 219.314384 
L 322.774468 219.359729 
L 323.106352 219.371517 
L 323.322798 219.396246 
L 323.669111 219.45119 
L 324.203011 219.70022 
L 324.996646 220.076994 
L 325.198663 220.147377 
L 325.588265 220.310905 
L 325.90572 220.464434 
L 326.136595 220.512191 
L 326.612776 220.790453 
L 326.930231 220.964764 
L 327.276544 221.013668 
L 327.449701 221.159813 
L 327.709436 221.279803 
L 328.661798 221.273993 
L 328.820526 221.262137 
L 329.224558 221.438088 
L 329.441004 221.529333 
L 329.888326 221.741741 
L 330.20578 221.717683 
L 330.364507 221.789991 
L 330.653102 221.842016 
L 331.504456 221.886183 
L 331.778621 222.109126 
L 332.052786 222.234582 
L 332.774272 222.527403 
L 333.553478 222.586016 
L 334.188386 222.924644 
L 334.967591 223.020281 
L 335.184037 223.039737 
L 335.530351 223.084681 
L 335.862235 223.225175 
L 336.497143 223.307377 
L 336.756878 223.254525 
L 337.319638 223.324193 
L 337.781389 223.34297 
L 338.084414 223.45388 
L 339.729403 223.782922 
L 340.017998 223.838279 
L 340.95593 223.888614 
L 341.100228 223.943366 
L 341.258955 224.021867 
L 341.273384 224.008456 
L 341.576409 223.872897 
L 341.792855 223.884851 
L 342.211317 224.127485 
L 342.283466 224.15132 
L 342.312325 224.11606 
L 342.471052 224.076878 
L 343.048241 224.280008 
L 343.394555 224.187492 
L 343.524423 224.276171 
L 343.769728 224.390931 
L 344.043893 224.336142 
L 345.789891 224.437244 
L 346.150634 224.532807 
L 348.372813 224.698173 
L 348.51711 224.691696 
L 349.397324 224.644075 
L 350.493983 224.957696 
L 350.811437 225.052371 
L 351.18661 225.109516 
L 353.856111 225.127022 
L 354.000408 225.15731 
L 354.187995 225.150228 
L 354.346722 225.167167 
L 354.909481 225.304454 
L 355.154787 225.327352 
L 355.616538 225.270404 
L 355.847414 225.213752 
L 356.525611 225.094354 
L 358.185031 225.238747 
L 358.718931 225.183366 
L 358.892087 225.173003 
L 359.122963 225.122963 
L 359.353839 225.104927 
L 359.931028 225.100016 
L 360.34949 225.045215 
L 362.283075 225.165613 
L 362.470661 225.154793 
L 362.629388 225.235848 
L 362.802545 225.230666 
L 363.379734 225.180528 
L 363.827056 225.19896 
L 366.265681 225.494359 
L 366.496556 225.606651 
L 366.770721 225.492743 
L 367.001597 225.452733 
L 368.343562 225.509422 
L 368.588868 225.543756 
L 368.9929 225.601593 
L 369.584519 225.597558 
L 370.320435 225.755473 
L 370.63789 225.659281 
L 370.839906 225.57434 
L 370.998633 225.590489 
L 371.287227 225.602394 
L 371.67683 225.469783 
L 372.311738 225.687681 
L 373.177522 225.717179 
L 373.595985 225.74511 
L 374.317471 225.888171 
L 374.836942 225.868727 
L 375.096677 225.848235 
L 375.558428 225.84546 
L 375.832593 225.873156 
L 376.049039 225.822044 
L 376.222196 225.928451 
L 376.366493 225.884593 
L 379.613183 225.727357 
L 379.930637 225.78602 
L 380.33467 225.685707 
L 380.955148 225.616582 
L 381.200454 225.601198 
L 381.93637 225.526336 
L 382.253824 225.648572 
L 382.556848 225.451265 
L 382.730005 225.409825 
L 382.903162 225.420805 
L 383.105178 225.459864 
L 383.682367 225.537452 
L 383.841095 225.520933 
L 384.07197 225.552207 
L 384.836746 225.513 
L 385.067622 225.58062 
L 385.385076 225.635939 
L 385.644811 225.60839 
L 385.976695 225.726481 
L 386.135422 225.707025 
L 386.568314 225.727566 
L 386.813619 225.760186 
L 387.044495 225.661921 
L 387.246511 225.666054 
L 388.357601 225.825029 
L 388.574047 225.839451 
L 388.905931 225.77594 
L 389.151236 225.750847 
L 389.410971 225.736375 
L 389.670706 225.684621 
L 389.944871 225.70214 
L 390.161317 225.787401 
L 390.695217 225.872786 
L 390.926093 225.942836 
L 391.286836 226.027209 
L 392.470074 226.220753 
L 393.191561 226.131976 
L 393.393577 226.136417 
L 393.711031 226.049231 
L 393.970767 226.16784 
L 395.168434 225.929241 
L 395.615756 226.003288 
L 395.803343 226.020338 
L 396.265094 226.010727 
L 396.524829 226.012504 
L 396.741275 226.022497 
L 397.02987 226.006915 
L 397.823505 226.003966 
L 398.039951 225.994294 
L 398.241967 225.998834 
L 398.487273 225.988878 
L 398.487273 225.988878 
" clip-path="url(#p3a0725d6f0)" style="fill: none; stroke: #d62728; stroke-width: 1.5; stroke-linecap: square"/>
   </g>
   <g id="patch_3">
    <path d="M 57.6 307.584 
L 57.6 41.472 
" style="fill: none; stroke: #000000; stroke-width: 0.8; stroke-linejoin: miter; stroke-linecap: square"/>
   </g>
   <g id="patch_4">
    <path d="M 414.72 307.584 
L 414.72 41.472 
" style="fill: none; stroke: #000000; stroke-width: 0.8; stroke-linejoin: miter; stroke-linecap: square"/>
   </g>
   <g id="patch_5">
    <path d="M 57.6 307.584 
L 414.72 307.584 
" style="fill: none; stroke: #000000; stroke-width: 0.8; stroke-linejoin: miter; stroke-linecap: square"/>
   </g>
   <g id="patch_6">
    <path d="M 57.6 41.472 
L 414.72 41.472 
" style="fill: none; stroke: #000000; stroke-width: 0.8; stroke-linejoin: miter; stroke-linecap: square"/>
   </g>
  </g>
 </g>
 <defs>
  <clipPath id="p3a0725d6f0">
   <rect x="57.6" y="41.472" width="357.12" height="266.112"/>
  </clipPath>
 </defs>
</svg>
