<?xml version="1.0" encoding="utf-8" standalone="no"?>
<!DOCTYPE svg PUBLIC "-//W3C//DTD SVG 1.1//EN"
  "http://www.w3.org/Graphics/SVG/1.1/DTD/svg11.dtd">
<svg height="345.6pt" version="1.1" viewBox="0 0 460.8 345.6" width="460.8pt" xmlns="http://www.w3.org/2000/svg" xmlns:xlink="http://www.w3.org/1999/xlink">
 <metadata>
  <rdf:RDF xmlns:cc="http://creativecommons.org/ns#" xmlns:dc="http://purl.org/dc/elements/1.1/" xmlns:rdf="http://www.w3.org/1999/02/22-rdf-syntax-ns#">
   <cc:Work>
    <dc:type rdf:resource="http://purl.org/dc/dcmitype/StillImage"/>
    <dc:date>2024-08-06T14:44:55.135633</dc:date>
    <dc:format>image/svg+xml</dc:format>
    <dc:creator>
     <cc:Agent>
      <dc:title>Matplotlib v3.4.2, https://matplotlib.org/</dc:title>
     </cc:Agent>
    </dc:creator>
   </cc:Work>
  </rdf:RDF>
 </metadata>
 <defs>
  <style type="text/css">*{stroke-linecap:butt;stroke-linejoin:round;}</style>
 </defs>
 <g id="figure_1">
  <g id="patch_1">
   <path d="M 0 345.6 
L 460.8 345.6 
L 460.8 0 
L 0 0 
z
" style="fill:#ffffff;"/>
  </g>
  <g id="axes_1">
   <g id="patch_2">
    <path d="M 57.6 307.584 
L 414.72 307.584 
L 414.72 41.472 
L 57.6 41.472 
z
" style="fill:#ffffff;"/>
   </g>
   <g id="matplotlib.axis_1">
    <g id="xtick_1">
     <g id="line2d_1">
      <defs>
       <path d="M 0 0 
L 0 3.5 
" id="m9c67405f08" style="stroke:#000000;stroke-width:0.8;"/>
      </defs>
      <g>
       <use style="stroke:#000000;stroke-width:0.8;" x="59.701804" xlink:href="#m9c67405f08" y="307.584"/>
      </g>
     </g>
     <g id="text_1">
      <!-- 0.75 -->
      <g transform="translate(48.568992 322.182437)scale(0.1 -0.1)">
       <defs>
        <path d="M 2034 4250 
Q 1547 4250 1301 3770 
Q 1056 3291 1056 2328 
Q 1056 1369 1301 889 
Q 1547 409 2034 409 
Q 2525 409 2770 889 
Q 3016 1369 3016 2328 
Q 3016 3291 2770 3770 
Q 2525 4250 2034 4250 
z
M 2034 4750 
Q 2819 4750 3233 4129 
Q 3647 3509 3647 2328 
Q 3647 1150 3233 529 
Q 2819 -91 2034 -91 
Q 1250 -91 836 529 
Q 422 1150 422 2328 
Q 422 3509 836 4129 
Q 1250 4750 2034 4750 
z
" id="DejaVuSans-30" transform="scale(0.015625)"/>
        <path d="M 684 794 
L 1344 794 
L 1344 0 
L 684 0 
L 684 794 
z
" id="DejaVuSans-2e" transform="scale(0.015625)"/>
        <path d="M 525 4666 
L 3525 4666 
L 3525 4397 
L 1831 0 
L 1172 0 
L 2766 4134 
L 525 4134 
L 525 4666 
z
" id="DejaVuSans-37" transform="scale(0.015625)"/>
        <path d="M 691 4666 
L 3169 4666 
L 3169 4134 
L 1269 4134 
L 1269 2991 
Q 1406 3038 1543 3061 
Q 1681 3084 1819 3084 
Q 2600 3084 3056 2656 
Q 3513 2228 3513 1497 
Q 3513 744 3044 326 
Q 2575 -91 1722 -91 
Q 1428 -91 1123 -41 
Q 819 9 494 109 
L 494 744 
Q 775 591 1075 516 
Q 1375 441 1709 441 
Q 2250 441 2565 725 
Q 2881 1009 2881 1497 
Q 2881 1984 2565 2268 
Q 2250 2553 1709 2553 
Q 1456 2553 1204 2497 
Q 953 2441 691 2322 
L 691 4666 
z
" id="DejaVuSans-35" transform="scale(0.015625)"/>
       </defs>
       <use xlink:href="#DejaVuSans-30"/>
       <use x="63.623047" xlink:href="#DejaVuSans-2e"/>
       <use x="95.410156" xlink:href="#DejaVuSans-37"/>
       <use x="159.033203" xlink:href="#DejaVuSans-35"/>
      </g>
     </g>
    </g>
    <g id="xtick_2">
     <g id="line2d_2">
      <g>
       <use style="stroke:#000000;stroke-width:0.8;" x="99.713241" xlink:href="#m9c67405f08" y="307.584"/>
      </g>
     </g>
     <g id="text_2">
      <!-- 1.00 -->
      <g transform="translate(88.580428 322.182437)scale(0.1 -0.1)">
       <defs>
        <path d="M 794 531 
L 1825 531 
L 1825 4091 
L 703 3866 
L 703 4441 
L 1819 4666 
L 2450 4666 
L 2450 531 
L 3481 531 
L 3481 0 
L 794 0 
L 794 531 
z
" id="DejaVuSans-31" transform="scale(0.015625)"/>
       </defs>
       <use xlink:href="#DejaVuSans-31"/>
       <use x="63.623047" xlink:href="#DejaVuSans-2e"/>
       <use x="95.410156" xlink:href="#DejaVuSans-30"/>
       <use x="159.033203" xlink:href="#DejaVuSans-30"/>
      </g>
     </g>
    </g>
    <g id="xtick_3">
     <g id="line2d_3">
      <g>
       <use style="stroke:#000000;stroke-width:0.8;" x="139.724677" xlink:href="#m9c67405f08" y="307.584"/>
      </g>
     </g>
     <g id="text_3">
      <!-- 1.25 -->
      <g transform="translate(128.591864 322.182437)scale(0.1 -0.1)">
       <defs>
        <path d="M 1228 531 
L 3431 531 
L 3431 0 
L 469 0 
L 469 531 
Q 828 903 1448 1529 
Q 2069 2156 2228 2338 
Q 2531 2678 2651 2914 
Q 2772 3150 2772 3378 
Q 2772 3750 2511 3984 
Q 2250 4219 1831 4219 
Q 1534 4219 1204 4116 
Q 875 4013 500 3803 
L 500 4441 
Q 881 4594 1212 4672 
Q 1544 4750 1819 4750 
Q 2544 4750 2975 4387 
Q 3406 4025 3406 3419 
Q 3406 3131 3298 2873 
Q 3191 2616 2906 2266 
Q 2828 2175 2409 1742 
Q 1991 1309 1228 531 
z
" id="DejaVuSans-32" transform="scale(0.015625)"/>
       </defs>
       <use xlink:href="#DejaVuSans-31"/>
       <use x="63.623047" xlink:href="#DejaVuSans-2e"/>
       <use x="95.410156" xlink:href="#DejaVuSans-32"/>
       <use x="159.033203" xlink:href="#DejaVuSans-35"/>
      </g>
     </g>
    </g>
    <g id="xtick_4">
     <g id="line2d_4">
      <g>
       <use style="stroke:#000000;stroke-width:0.8;" x="179.736113" xlink:href="#m9c67405f08" y="307.584"/>
      </g>
     </g>
     <g id="text_4">
      <!-- 1.50 -->
      <g transform="translate(168.6033 322.182437)scale(0.1 -0.1)">
       <use xlink:href="#DejaVuSans-31"/>
       <use x="63.623047" xlink:href="#DejaVuSans-2e"/>
       <use x="95.410156" xlink:href="#DejaVuSans-35"/>
       <use x="159.033203" xlink:href="#DejaVuSans-30"/>
      </g>
     </g>
    </g>
    <g id="xtick_5">
     <g id="line2d_5">
      <g>
       <use style="stroke:#000000;stroke-width:0.8;" x="219.747549" xlink:href="#m9c67405f08" y="307.584"/>
      </g>
     </g>
     <g id="text_5">
      <!-- 1.75 -->
      <g transform="translate(208.614737 322.182437)scale(0.1 -0.1)">
       <use xlink:href="#DejaVuSans-31"/>
       <use x="63.623047" xlink:href="#DejaVuSans-2e"/>
       <use x="95.410156" xlink:href="#DejaVuSans-37"/>
       <use x="159.033203" xlink:href="#DejaVuSans-35"/>
      </g>
     </g>
    </g>
    <g id="xtick_6">
     <g id="line2d_6">
      <g>
       <use style="stroke:#000000;stroke-width:0.8;" x="259.758985" xlink:href="#m9c67405f08" y="307.584"/>
      </g>
     </g>
     <g id="text_6">
      <!-- 2.00 -->
      <g transform="translate(248.626173 322.182437)scale(0.1 -0.1)">
       <use xlink:href="#DejaVuSans-32"/>
       <use x="63.623047" xlink:href="#DejaVuSans-2e"/>
       <use x="95.410156" xlink:href="#DejaVuSans-30"/>
       <use x="159.033203" xlink:href="#DejaVuSans-30"/>
      </g>
     </g>
    </g>
    <g id="xtick_7">
     <g id="line2d_7">
      <g>
       <use style="stroke:#000000;stroke-width:0.8;" x="299.770421" xlink:href="#m9c67405f08" y="307.584"/>
      </g>
     </g>
     <g id="text_7">
      <!-- 2.25 -->
      <g transform="translate(288.637609 322.182437)scale(0.1 -0.1)">
       <use xlink:href="#DejaVuSans-32"/>
       <use x="63.623047" xlink:href="#DejaVuSans-2e"/>
       <use x="95.410156" xlink:href="#DejaVuSans-32"/>
       <use x="159.033203" xlink:href="#DejaVuSans-35"/>
      </g>
     </g>
    </g>
    <g id="xtick_8">
     <g id="line2d_8">
      <g>
       <use style="stroke:#000000;stroke-width:0.8;" x="339.781858" xlink:href="#m9c67405f08" y="307.584"/>
      </g>
     </g>
     <g id="text_8">
      <!-- 2.50 -->
      <g transform="translate(328.649045 322.182437)scale(0.1 -0.1)">
       <use xlink:href="#DejaVuSans-32"/>
       <use x="63.623047" xlink:href="#DejaVuSans-2e"/>
       <use x="95.410156" xlink:href="#DejaVuSans-35"/>
       <use x="159.033203" xlink:href="#DejaVuSans-30"/>
      </g>
     </g>
    </g>
    <g id="xtick_9">
     <g id="line2d_9">
      <g>
       <use style="stroke:#000000;stroke-width:0.8;" x="379.793294" xlink:href="#m9c67405f08" y="307.584"/>
      </g>
     </g>
     <g id="text_9">
      <!-- 2.75 -->
      <g transform="translate(368.660481 322.182437)scale(0.1 -0.1)">
       <use xlink:href="#DejaVuSans-32"/>
       <use x="63.623047" xlink:href="#DejaVuSans-2e"/>
       <use x="95.410156" xlink:href="#DejaVuSans-37"/>
       <use x="159.033203" xlink:href="#DejaVuSans-35"/>
      </g>
     </g>
    </g>
   </g>
   <g id="matplotlib.axis_2">
    <g id="ytick_1">
     <g id="line2d_10">
      <defs>
       <path d="M 0 0 
L -3.5 0 
" id="md9f1d04533" style="stroke:#000000;stroke-width:0.8;"/>
      </defs>
      <g>
       <use style="stroke:#000000;stroke-width:0.8;" x="57.6" xlink:href="#md9f1d04533" y="290.861258"/>
      </g>
     </g>
     <g id="text_10">
      <!-- −120 -->
      <g transform="translate(23.132812 294.660477)scale(0.1 -0.1)">
       <defs>
        <path d="M 678 2272 
L 4684 2272 
L 4684 1741 
L 678 1741 
L 678 2272 
z
" id="DejaVuSans-2212" transform="scale(0.015625)"/>
       </defs>
       <use xlink:href="#DejaVuSans-2212"/>
       <use x="83.789062" xlink:href="#DejaVuSans-31"/>
       <use x="147.412109" xlink:href="#DejaVuSans-32"/>
       <use x="211.035156" xlink:href="#DejaVuSans-30"/>
      </g>
     </g>
    </g>
    <g id="ytick_2">
     <g id="line2d_11">
      <g>
       <use style="stroke:#000000;stroke-width:0.8;" x="57.6" xlink:href="#md9f1d04533" y="256.717439"/>
      </g>
     </g>
     <g id="text_11">
      <!-- −100 -->
      <g transform="translate(23.132812 260.516658)scale(0.1 -0.1)">
       <use xlink:href="#DejaVuSans-2212"/>
       <use x="83.789062" xlink:href="#DejaVuSans-31"/>
       <use x="147.412109" xlink:href="#DejaVuSans-30"/>
       <use x="211.035156" xlink:href="#DejaVuSans-30"/>
      </g>
     </g>
    </g>
    <g id="ytick_3">
     <g id="line2d_12">
      <g>
       <use style="stroke:#000000;stroke-width:0.8;" x="57.6" xlink:href="#md9f1d04533" y="222.573619"/>
      </g>
     </g>
     <g id="text_12">
      <!-- −80 -->
      <g transform="translate(29.495313 226.372838)scale(0.1 -0.1)">
       <defs>
        <path d="M 2034 2216 
Q 1584 2216 1326 1975 
Q 1069 1734 1069 1313 
Q 1069 891 1326 650 
Q 1584 409 2034 409 
Q 2484 409 2743 651 
Q 3003 894 3003 1313 
Q 3003 1734 2745 1975 
Q 2488 2216 2034 2216 
z
M 1403 2484 
Q 997 2584 770 2862 
Q 544 3141 544 3541 
Q 544 4100 942 4425 
Q 1341 4750 2034 4750 
Q 2731 4750 3128 4425 
Q 3525 4100 3525 3541 
Q 3525 3141 3298 2862 
Q 3072 2584 2669 2484 
Q 3125 2378 3379 2068 
Q 3634 1759 3634 1313 
Q 3634 634 3220 271 
Q 2806 -91 2034 -91 
Q 1263 -91 848 271 
Q 434 634 434 1313 
Q 434 1759 690 2068 
Q 947 2378 1403 2484 
z
M 1172 3481 
Q 1172 3119 1398 2916 
Q 1625 2713 2034 2713 
Q 2441 2713 2670 2916 
Q 2900 3119 2900 3481 
Q 2900 3844 2670 4047 
Q 2441 4250 2034 4250 
Q 1625 4250 1398 4047 
Q 1172 3844 1172 3481 
z
" id="DejaVuSans-38" transform="scale(0.015625)"/>
       </defs>
       <use xlink:href="#DejaVuSans-2212"/>
       <use x="83.789062" xlink:href="#DejaVuSans-38"/>
       <use x="147.412109" xlink:href="#DejaVuSans-30"/>
      </g>
     </g>
    </g>
    <g id="ytick_4">
     <g id="line2d_13">
      <g>
       <use style="stroke:#000000;stroke-width:0.8;" x="57.6" xlink:href="#md9f1d04533" y="188.4298"/>
      </g>
     </g>
     <g id="text_13">
      <!-- −60 -->
      <g transform="translate(29.495313 192.229019)scale(0.1 -0.1)">
       <defs>
        <path d="M 2113 2584 
Q 1688 2584 1439 2293 
Q 1191 2003 1191 1497 
Q 1191 994 1439 701 
Q 1688 409 2113 409 
Q 2538 409 2786 701 
Q 3034 994 3034 1497 
Q 3034 2003 2786 2293 
Q 2538 2584 2113 2584 
z
M 3366 4563 
L 3366 3988 
Q 3128 4100 2886 4159 
Q 2644 4219 2406 4219 
Q 1781 4219 1451 3797 
Q 1122 3375 1075 2522 
Q 1259 2794 1537 2939 
Q 1816 3084 2150 3084 
Q 2853 3084 3261 2657 
Q 3669 2231 3669 1497 
Q 3669 778 3244 343 
Q 2819 -91 2113 -91 
Q 1303 -91 875 529 
Q 447 1150 447 2328 
Q 447 3434 972 4092 
Q 1497 4750 2381 4750 
Q 2619 4750 2861 4703 
Q 3103 4656 3366 4563 
z
" id="DejaVuSans-36" transform="scale(0.015625)"/>
       </defs>
       <use xlink:href="#DejaVuSans-2212"/>
       <use x="83.789062" xlink:href="#DejaVuSans-36"/>
       <use x="147.412109" xlink:href="#DejaVuSans-30"/>
      </g>
     </g>
    </g>
    <g id="ytick_5">
     <g id="line2d_14">
      <g>
       <use style="stroke:#000000;stroke-width:0.8;" x="57.6" xlink:href="#md9f1d04533" y="154.28598"/>
      </g>
     </g>
     <g id="text_14">
      <!-- −40 -->
      <g transform="translate(29.495313 158.085199)scale(0.1 -0.1)">
       <defs>
        <path d="M 2419 4116 
L 825 1625 
L 2419 1625 
L 2419 4116 
z
M 2253 4666 
L 3047 4666 
L 3047 1625 
L 3713 1625 
L 3713 1100 
L 3047 1100 
L 3047 0 
L 2419 0 
L 2419 1100 
L 313 1100 
L 313 1709 
L 2253 4666 
z
" id="DejaVuSans-34" transform="scale(0.015625)"/>
       </defs>
       <use xlink:href="#DejaVuSans-2212"/>
       <use x="83.789062" xlink:href="#DejaVuSans-34"/>
       <use x="147.412109" xlink:href="#DejaVuSans-30"/>
      </g>
     </g>
    </g>
    <g id="ytick_6">
     <g id="line2d_15">
      <g>
       <use style="stroke:#000000;stroke-width:0.8;" x="57.6" xlink:href="#md9f1d04533" y="120.142161"/>
      </g>
     </g>
     <g id="text_15">
      <!-- −20 -->
      <g transform="translate(29.495313 123.94138)scale(0.1 -0.1)">
       <use xlink:href="#DejaVuSans-2212"/>
       <use x="83.789062" xlink:href="#DejaVuSans-32"/>
       <use x="147.412109" xlink:href="#DejaVuSans-30"/>
      </g>
     </g>
    </g>
    <g id="ytick_7">
     <g id="line2d_16">
      <g>
       <use style="stroke:#000000;stroke-width:0.8;" x="57.6" xlink:href="#md9f1d04533" y="85.998341"/>
      </g>
     </g>
     <g id="text_16">
      <!-- 0 -->
      <g transform="translate(44.2375 89.79756)scale(0.1 -0.1)">
       <use xlink:href="#DejaVuSans-30"/>
      </g>
     </g>
    </g>
    <g id="ytick_8">
     <g id="line2d_17">
      <g>
       <use style="stroke:#000000;stroke-width:0.8;" x="57.6" xlink:href="#md9f1d04533" y="51.854522"/>
      </g>
     </g>
     <g id="text_17">
      <!-- 20 -->
      <g transform="translate(37.875 55.653741)scale(0.1 -0.1)">
       <use xlink:href="#DejaVuSans-32"/>
       <use x="63.623047" xlink:href="#DejaVuSans-30"/>
      </g>
     </g>
    </g>
   </g>
   <g id="line2d_18">
    <path clip-path="url(#p07818dd10a)" d="M 73.832727 183.753138 
L 74.465582 183.749965 
L 74.940223 183.924391 
L 76.205933 184.412227 
L 76.838788 184.405121 
L 77.629856 184.539121 
L 78.262711 184.263945 
L 78.579139 184.431823 
L 79.370207 184.603854 
L 80.477703 185.057913 
L 80.794131 185.073104 
L 81.110558 185.150661 
L 82.692695 185.272825 
L 83.32555 185.211047 
L 84.433046 185.45597 
L 84.749474 185.546799 
L 85.065901 185.463049 
L 85.698756 185.480694 
L 86.173397 185.417923 
L 86.648038 185.403322 
L 87.122679 185.405881 
L 88.704817 185.085906 
L 89.337671 184.547039 
L 90.761595 184.605624 
L 91.078022 184.640767 
L 91.39445 184.444489 
L 92.818373 184.170441 
L 94.084083 184.337025 
L 94.716938 184.235206 
L 95.033365 184.129995 
L 95.982648 184.370595 
L 96.93193 184.714286 
L 97.564785 184.766095 
L 98.355853 184.382415 
L 98.988708 184.158076 
L 99.621563 183.969357 
L 100.254418 183.73038 
L 100.570845 183.72312 
L 100.887273 183.581603 
L 101.994769 183.377853 
L 102.311196 183.505406 
L 102.627624 183.445899 
L 103.576906 183.637284 
L 103.893333 183.756117 
L 104.367974 183.924478 
L 105.317257 184.251856 
L 105.47547 184.235252 
L 105.633684 185.992317 
L 106.108325 194.170478 
L 106.899394 204.353037 
L 107.848676 213.603149 
L 109.2726 224.767054 
L 110.063668 230.342561 
L 111.645805 240.929661 
L 114.81008 258.883962 
L 116.392217 265.827468 
L 118.448995 273.405491 
L 118.607209 273.815363 
L 118.923636 273.777135 
L 119.08185 274.012172 
L 119.398278 274.004866 
L 119.872919 274.67165 
L 120.34756 276.077284 
L 120.980415 278.373741 
L 121.929697 280.676616 
L 122.878979 282.537132 
L 123.195407 282.69176 
L 124.461116 284.099423 
L 124.777544 284.779943 
L 125.88504 287.762476 
L 126.834322 290.160936 
L 128.100032 291.715655 
L 128.8911 292.948228 
L 129.049314 293.081728 
L 129.207528 292.881377 
L 129.998596 293.507984 
L 130.315024 293.444466 
L 130.631451 293.514087 
L 132.371802 292.880374 
L 132.68823 292.535373 
L 133.004657 292.700988 
L 133.162871 292.729555 
L 133.479298 292.127118 
L 133.795726 291.448852 
L 134.270367 291.379534 
L 135.061435 292.208924 
L 135.69429 292.335378 
L 136.801786 292.375511 
L 136.96 292.363977 
L 137.276427 292.610039 
L 138.067496 292.231056 
L 138.383923 292.244136 
L 138.858565 292.02478 
L 139.333206 292.22343 
L 140.124274 292.532819 
L 140.282488 292.487559 
L 140.440702 292.609821 
L 140.757129 292.636345 
L 142.181053 293.86776 
L 142.339266 293.97517 
L 142.655694 293.703288 
L 143.604976 294.213099 
L 143.921404 294.340128 
L 144.237831 294.266788 
L 144.554258 294.314123 
L 145.0289 293.895876 
L 145.345327 294.026125 
L 145.503541 294.216061 
L 145.819968 294.15786 
L 146.136396 294.346195 
L 146.927464 294.32568 
L 147.402105 294.486777 
L 147.718533 294.429722 
L 148.03496 294.464444 
L 148.509601 294.261932 
L 148.826029 294.350055 
L 150.408166 294.256328 
L 151.357448 294.356677 
L 151.673876 294.321075 
L 152.781372 294.93334 
L 153.097799 294.926108 
L 154.205295 295.328312 
L 154.679936 295.258551 
L 155.471005 295.380214 
L 156.10386 295.352224 
L 156.420287 295.170951 
L 157.369569 295.192048 
L 157.685997 295.345946 
L 158.635279 295.171247 
L 159.742775 295.417292 
L 160.059203 295.098947 
L 160.692057 294.082859 
L 161.008485 293.92015 
L 161.166699 293.891976 
L 161.483126 293.436269 
L 161.799553 293.465675 
L 162.432408 293.709999 
L 162.907049 293.310675 
L 163.065263 293.176085 
L 164.172759 291.329635 
L 164.805614 290.876177 
L 165.280255 290.795048 
L 165.596683 290.174254 
L 166.071324 289.182125 
L 166.545965 289.35402 
L 166.862392 289.368338 
L 167.17882 289.181086 
L 167.495247 288.691846 
L 167.811675 288.55445 
L 168.286316 288.629718 
L 168.44453 288.289147 
L 168.760957 288.329611 
L 169.077384 287.907909 
L 169.235598 287.826573 
L 169.393812 287.907879 
L 169.552026 287.835613 
L 170.026667 286.965245 
L 170.343094 287.144518 
L 170.659522 286.705957 
L 171.292376 287.315663 
L 171.608804 287.530822 
L 171.925231 287.408458 
L 173.665582 285.364295 
L 173.98201 285.320801 
L 174.456651 285.875936 
L 175.405933 285.722194 
L 176.513429 286.379384 
L 176.671643 286.352699 
L 176.98807 286.097442 
L 177.304498 285.906581 
L 177.620925 286.017729 
L 178.411994 285.740845 
L 178.728421 285.841509 
L 179.203062 285.530884 
L 180.943413 285.364806 
L 181.259841 285.134231 
L 181.576268 285.078583 
L 182.367337 285.015992 
L 182.52555 285.082006 
L 183.000191 284.646865 
L 183.158405 284.559233 
L 183.474833 284.780494 
L 183.79126 284.671668 
L 184.107687 285.000812 
L 184.265901 284.937948 
L 184.898756 284.102637 
L 185.215183 284.060124 
L 185.689825 284.393421 
L 186.006252 284.345445 
L 186.797321 283.73123 
L 187.271962 283.97037 
L 187.588389 284.049317 
L 187.746603 284.138435 
L 188.537671 283.844887 
L 189.012313 283.95875 
L 189.645167 284.106911 
L 190.119809 283.865647 
L 190.278022 283.851527 
L 191.069091 283.272102 
L 191.385518 283.259042 
L 191.860159 283.024417 
L 192.334801 283.21007 
L 192.651228 283.269826 
L 193.284083 282.988461 
L 193.442297 283.108907 
L 193.916938 283.019806 
L 194.233365 283.135986 
L 194.549793 283.349213 
L 195.024434 283.475634 
L 195.340861 283.621034 
L 195.499075 283.570875 
L 196.13193 283.820493 
L 196.764785 283.555302 
L 197.081212 283.763416 
L 197.39764 283.781717 
L 197.872281 283.913073 
L 198.188708 283.85488 
L 198.505136 284.03743 
L 199.13799 284.527145 
L 200.245486 284.835986 
L 200.561914 284.477125 
L 201.511196 284.719416 
L 201.985837 284.625294 
L 203.409761 285.771463 
L 203.726188 285.888838 
L 204.042616 285.966866 
L 204.359043 285.980628 
L 204.67547 285.822519 
L 204.991898 286.07613 
L 205.308325 285.927987 
L 205.94118 285.310251 
L 206.574035 285.58051 
L 207.048676 285.874198 
L 208.4726 286.825026 
L 209.105455 286.935061 
L 209.421882 287.092051 
L 211.162233 285.954891 
L 211.636874 285.181514 
L 212.269729 284.185001 
L 213.060797 283.742255 
L 213.219011 283.738731 
L 213.535439 283.922026 
L 213.693652 283.861872 
L 213.851866 283.645813 
L 214.168293 282.940975 
L 214.326507 282.955251 
L 214.484721 282.831803 
L 214.801148 282.125742 
L 215.750431 282.81818 
L 216.541499 283.406358 
L 217.01614 282.86888 
L 217.490781 282.868719 
L 217.965423 283.177003 
L 218.28185 283.250505 
L 220.022201 283.100355 
L 220.180415 283.086148 
L 220.496842 283.321959 
L 220.971483 282.429616 
L 221.446124 280.708871 
L 221.762552 280.173983 
L 222.078979 280.291817 
L 222.237193 280.143674 
L 222.395407 280.158627 
L 222.711834 279.830852 
L 222.870048 280.051885 
L 223.186475 279.77308 
L 223.502903 280.019727 
L 223.977544 279.53957 
L 224.293971 279.22189 
L 224.452185 279.313001 
L 224.768612 279.116517 
L 224.926826 278.97779 
L 225.243254 278.570355 
L 225.559681 278.30572 
L 225.876108 278.673616 
L 226.192536 278.677371 
L 226.35075 278.676605 
L 226.825391 278.203161 
L 226.983604 277.994249 
L 227.300032 278.406244 
L 227.616459 278.379853 
L 227.774673 278.439893 
L 228.0911 278.043447 
L 228.723955 278.154842 
L 228.882169 278.12882 
L 229.35681 278.651609 
L 229.673238 278.98864 
L 229.831451 278.894401 
L 229.989665 278.648513 
L 230.306093 278.614892 
L 230.62252 278.467345 
L 231.097161 278.06086 
L 231.413589 277.921389 
L 231.571802 277.675341 
L 231.88823 276.545302 
L 232.362871 276.206905 
L 232.995726 276.365704 
L 233.153939 276.285888 
L 233.786794 276.657218 
L 234.419649 277.052647 
L 234.577863 277.058096 
L 235.210718 276.485771 
L 235.527145 276.594325 
L 236.16 277.267743 
L 236.476427 277.329422 
L 236.634641 277.258065 
L 237.42571 276.091999 
L 237.583923 276.045443 
L 237.900351 276.320652 
L 238.691419 277.182788 
L 238.849633 277.221531 
L 239.324274 277.0942 
L 239.798915 276.930524 
L 240.273557 277.291661 
L 240.906411 276.914369 
L 241.222839 277.02916 
L 241.539266 276.609022 
L 241.69748 276.535201 
L 242.013907 276.174456 
L 242.330335 276.428909 
L 242.804976 276.816724 
L 242.96319 276.870136 
L 243.279617 277.120238 
L 243.437831 277.218764 
L 244.070686 277.056346 
L 244.2289 277.216633 
L 244.545327 277.037647 
L 245.494609 277.881854 
L 246.127464 277.233459 
L 246.443892 277.042155 
L 246.760319 276.629593 
L 246.918533 276.8026 
L 247.23496 276.295772 
L 247.393174 276.349257 
L 247.867815 275.932101 
L 248.026029 275.699114 
L 248.342456 275.954809 
L 248.658884 275.901458 
L 248.975311 275.951123 
L 249.133525 275.950657 
L 249.924593 276.445071 
L 250.557448 276.380047 
L 250.873876 276.662146 
L 251.032089 276.538563 
L 251.50673 276.723038 
L 251.664944 276.642902 
L 251.981372 276.207941 
L 252.139585 276.351123 
L 252.614226 276.177742 
L 253.247081 275.561026 
L 253.405295 275.530897 
L 253.879936 275.061829 
L 254.03815 275.05815 
L 254.196364 274.867969 
L 254.512791 274.952252 
L 254.671005 274.836506 
L 255.462073 275.101577 
L 255.778501 275.374927 
L 256.253142 275.064915 
L 256.885997 275.635658 
L 258.151707 276.135807 
L 258.468134 276.535001 
L 258.784561 276.844549 
L 259.100989 277.076403 
L 260.999553 278.624891 
L 261.632408 278.699943 
L 261.948836 278.764407 
L 262.423477 278.945763 
L 262.739904 278.850461 
L 263.372759 279.17981 
L 263.689187 279.243472 
L 263.8474 277.537281 
L 264.322041 269.657443 
L 265.429537 256.951081 
L 266.853461 244.129614 
L 267.486316 239.537129 
L 269.068453 229.444149 
L 270.334163 222.913448 
L 270.967018 220.337921 
L 271.599872 217.500373 
L 272.865582 212.322424 
L 274.289506 207.465315 
L 275.080574 204.693127 
L 276.029856 201.77817 
L 276.820925 198.914275 
L 277.45378 195.892456 
L 278.086635 191.483027 
L 278.561276 186.207736 
L 279.035917 178.195631 
L 279.510558 166.619763 
L 279.826986 151.120469 
L 279.985199 136.329041 
L 280.301627 66.00421 
L 280.459841 58.556072 
L 281.567337 126.043064 
L 281.883764 130.651881 
L 282.041978 131.788997 
L 282.358405 131.909361 
L 282.99126 130.919602 
L 283.307687 130.13526 
L 283.624115 130.159661 
L 283.940542 130.223555 
L 284.415183 130.019905 
L 284.731611 130.033263 
L 284.889825 130.01678 
L 285.364466 131.006671 
L 286.313748 134.388551 
L 287.737671 140.667063 
L 288.686954 145.021392 
L 289.161595 146.841691 
L 291.060159 153.107523 
L 291.693014 154.754938 
L 292.167656 155.9744 
L 293.433365 159.005981 
L 295.490144 164.597641 
L 296.281212 166.759541 
L 296.914067 168.258427 
L 297.230494 168.942703 
L 297.546922 169.401125 
L 298.654418 171.370818 
L 301.185837 175.216902 
L 301.660478 175.526645 
L 302.609761 176.241203 
L 303.717257 177.268565 
L 306.881531 179.61338 
L 307.197959 179.786645 
L 307.989027 180.723633 
L 308.621882 181.135029 
L 309.412951 181.845739 
L 310.836874 182.697775 
L 310.995088 182.83318 
L 311.311515 182.82384 
L 312.260797 183.33911 
L 313.526507 183.933965 
L 315.266858 183.829219 
L 315.741499 183.823873 
L 316.532568 183.971988 
L 319.538628 185.729065 
L 319.855056 185.71356 
L 320.487911 185.941733 
L 321.120766 185.954127 
L 323.335758 186.18012 
L 326.816459 186.425782 
L 327.449314 186.55061 
L 328.240383 186.562642 
L 328.873238 186.541543 
L 329.347879 186.513856 
L 330.138947 186.71751 
L 330.771802 186.625643 
L 332.828581 187.053152 
L 333.619649 187.169992 
L 334.09429 187.159466 
L 335.043573 187.271374 
L 335.834641 187.580179 
L 336.467496 187.538696 
L 336.783923 187.595979 
L 337.258565 187.764295 
L 337.574992 187.712421 
L 338.207847 188.086379 
L 338.682488 188.273451 
L 339.63177 188.355612 
L 339.948198 188.280125 
L 343.903541 188.802973 
L 344.536396 188.70597 
L 348.017097 189.692438 
L 348.808166 189.684254 
L 349.599234 189.839933 
L 350.70673 190.004245 
L 353.396364 189.963813 
L 353.871005 190.042599 
L 355.927783 189.821959 
L 357.984561 189.362642 
L 358.77563 189.486139 
L 359.250271 189.429783 
L 359.566699 189.384118 
L 359.883126 189.344982 
L 360.199553 189.382618 
L 360.674195 189.405641 
L 361.623477 189.137126 
L 362.889187 189.225619 
L 363.205614 189.160771 
L 364.787751 189.319478 
L 365.737033 189.221904 
L 366.686316 188.986054 
L 367.477384 188.88121 
L 368.901308 188.743292 
L 370.325231 188.416906 
L 371.1163 188.645345 
L 371.590941 188.548044 
L 372.065582 188.494762 
L 373.173078 188.391367 
L 373.647719 188.279017 
L 373.964147 188.33299 
L 374.597002 188.320869 
L 374.913429 188.33307 
L 376.020925 188.128148 
L 376.337352 188.149923 
L 376.495566 188.130614 
L 377.128421 187.664713 
L 377.444848 187.784606 
L 377.761276 187.664147 
L 378.077703 187.636428 
L 378.868772 187.622745 
L 379.818054 187.90684 
L 380.134482 188.069217 
L 380.450909 188.034221 
L 380.767337 188.038486 
L 381.083764 188.083483 
L 382.665901 188.296743 
L 382.982329 188.409997 
L 383.298756 188.291791 
L 383.615183 188.331943 
L 384.089825 188.084324 
L 384.406252 188.082606 
L 385.513748 187.873884 
L 385.830175 187.80204 
L 388.836236 187.757801 
L 389.785518 188.107948 
L 390.576587 187.783341 
L 391.209442 187.580754 
L 391.684083 187.661949 
L 392.316938 187.701597 
L 392.633365 187.743694 
L 393.26622 187.873605 
L 394.057289 187.651509 
L 394.53193 187.742006 
L 395.322998 187.74805 
L 395.639426 187.734392 
L 395.955853 187.795068 
L 397.063349 187.724478 
L 398.012632 187.96356 
L 398.329059 187.797314 
L 398.487273 187.781069 
L 398.487273 187.781069 
" style="fill:none;stroke:#000000;stroke-linecap:square;stroke-width:1.5;"/>
   </g>
   <g id="line2d_19">
    <path clip-path="url(#p07818dd10a)" d="M 73.832727 180.332012 
L 74.465582 180.51814 
L 75.098437 180.703351 
L 76.364147 180.372409 
L 76.52236 180.22211 
L 77.155215 179.081603 
L 77.471643 178.932982 
L 77.78807 179.020608 
L 78.104498 179.207763 
L 78.579139 179.385994 
L 78.895566 179.401151 
L 79.686635 179.233136 
L 80.003062 179.291467 
L 81.110558 179.68989 
L 83.009123 179.515299 
L 83.32555 179.405138 
L 83.958405 179.470376 
L 84.59126 179.596725 
L 85.382329 179.840149 
L 85.698756 179.954531 
L 87.280893 180.275112 
L 90.761595 180.179145 
L 91.236236 180.349451 
L 91.869091 180.392017 
L 92.501946 180.313466 
L 93.451228 180.125355 
L 94.242297 180.189968 
L 94.716938 180.296662 
L 95.349793 180.425974 
L 96.457289 180.484111 
L 97.090144 180.289121 
L 97.564785 180.213334 
L 97.881212 180.149066 
L 98.355853 179.926819 
L 99.146922 179.786764 
L 99.463349 179.62562 
L 99.779777 179.672764 
L 100.254418 179.65808 
L 100.887273 179.649383 
L 101.2037 179.506668 
L 101.520128 179.538733 
L 101.678341 179.631319 
L 102.627624 179.455846 
L 104.684402 179.477587 
L 105.000829 179.555555 
L 105.47547 179.595107 
L 105.633684 180.334704 
L 106.266539 184.638284 
L 107.215821 189.248876 
L 108.481531 194.27737 
L 109.430813 197.339563 
L 110.538309 200.214836 
L 111.804019 203.352419 
L 112.27866 204.460657 
L 114.177225 207.843611 
L 114.651866 208.4966 
L 115.284721 209.529733 
L 115.917576 210.203666 
L 116.708644 211.56299 
L 117.974354 213.425862 
L 120.663987 216.141957 
L 121.138628 216.36919 
L 121.61327 216.551318 
L 122.087911 216.841704 
L 122.562552 217.162763 
L 122.878979 217.306457 
L 123.195407 217.266759 
L 123.35362 217.165042 
L 123.511834 217.196161 
L 124.935758 218.347758 
L 125.568612 218.108105 
L 125.88504 218.12931 
L 126.359681 218.312423 
L 126.676108 218.346474 
L 127.15075 218.090006 
L 127.467177 218.3039 
L 127.941818 218.863279 
L 128.732887 219.540668 
L 129.049314 219.676958 
L 129.523955 220.006766 
L 129.998596 220.083222 
L 130.315024 220.154071 
L 130.789665 220.253766 
L 130.947879 220.281251 
L 131.42252 220.611125 
L 132.371802 220.738432 
L 132.68823 220.777402 
L 134.903222 221.798012 
L 135.219649 221.787281 
L 135.536077 221.800891 
L 135.852504 221.67103 
L 137.118214 222.098257 
L 138.700351 222.517584 
L 139.016778 222.518533 
L 139.491419 222.551985 
L 139.807847 222.466916 
L 141.23177 222.692529 
L 141.548198 222.606074 
L 142.49748 222.892669 
L 144.079617 223.006604 
L 144.396045 223.140544 
L 144.712472 223.287759 
L 145.187113 223.490378 
L 145.661754 223.336337 
L 145.819968 223.376823 
L 146.294609 223.813727 
L 147.718533 224.270202 
L 148.351388 224.32044 
L 148.984242 223.504371 
L 149.142456 223.173371 
L 149.458884 223.160114 
L 149.617097 223.300404 
L 149.775311 223.291009 
L 150.091738 222.895798 
L 150.882807 221.83141 
L 151.199234 221.938624 
L 152.148517 221.450261 
L 152.30673 221.445822 
L 152.781372 220.962672 
L 152.939585 220.8826 
L 153.414226 220.346824 
L 153.730654 220.314232 
L 154.047081 219.975395 
L 154.205295 220.001907 
L 154.83815 218.486276 
L 155.629219 217.599761 
L 156.420287 216.920931 
L 157.369569 214.744987 
L 157.685997 212.69443 
L 158.160638 209.823614 
L 158.477065 208.362593 
L 158.793493 207.929642 
L 158.951707 208.11965 
L 159.426348 209.834378 
L 160.37563 211.542416 
L 160.533844 211.744676 
L 161.166699 213.046804 
L 161.483126 213.439903 
L 162.115981 214.568818 
L 162.432408 214.514511 
L 162.590622 214.563518 
L 162.748836 214.37459 
L 162.907049 214.557363 
L 163.381691 214.300169 
L 163.539904 213.825825 
L 163.698118 213.845148 
L 163.856332 213.729871 
L 164.172759 212.136172 
L 165.596683 206.051947 
L 165.754896 205.869045 
L 166.387751 207.752231 
L 166.545965 207.988 
L 167.020606 209.30057 
L 167.653461 210.574515 
L 168.286316 211.855774 
L 168.44453 211.86195 
L 170.026667 213.585134 
L 170.501308 214.365393 
L 170.659522 214.076943 
L 171.608804 208.968216 
L 172.241659 210.674498 
L 173.823796 213.161077 
L 173.98201 213.283663 
L 174.298437 213.019589 
L 174.773078 213.609303 
L 174.931292 213.687014 
L 175.247719 214.073139 
L 175.405933 214.110633 
L 175.880574 214.633204 
L 176.355215 214.917823 
L 176.671643 214.089085 
L 177.937352 215.585503 
L 178.25378 216.009589 
L 178.570207 216.16278 
L 178.728421 216.427025 
L 178.886635 216.400421 
L 179.044848 216.161199 
L 179.994131 216.82623 
L 180.310558 215.384552 
L 180.943413 212.292794 
L 181.259841 211.330424 
L 181.576268 211.946348 
L 181.734482 212.075136 
L 182.209123 213.593104 
L 182.841978 214.923622 
L 184.107687 217.089187 
L 185.531611 218.643979 
L 186.164466 219.012324 
L 186.480893 219.208153 
L 186.797321 219.332915 
L 187.113748 219.471823 
L 187.904817 220.152791 
L 188.379458 220.263915 
L 188.537671 220.413101 
L 188.695885 220.373939 
L 188.854099 220.095251 
L 189.170526 220.249755 
L 189.486954 220.592376 
L 190.119809 221.165821 
L 190.436236 220.941785 
L 190.59445 221.052008 
L 190.910877 220.552009 
L 191.543732 221.227635 
L 191.701946 221.127792 
L 192.493014 217.099837 
L 192.651228 216.582185 
L 193.758724 210.745072 
L 194.391579 208.171958 
L 195.657289 204.389153 
L 196.290144 202.97005 
L 197.239426 200.964809 
L 197.872281 199.394708 
L 198.505136 198.145464 
L 198.979777 197.592736 
L 199.13799 197.225246 
L 199.454418 197.114412 
L 199.770845 196.35828 
L 200.087273 195.432466 
L 200.245486 195.302771 
L 200.720128 194.644317 
L 201.036555 194.256964 
L 201.352982 193.645834 
L 201.511196 193.550956 
L 202.302265 192.266784 
L 202.618692 191.682393 
L 202.776906 191.62863 
L 204.042616 188.3476 
L 204.67547 187.799075 
L 204.991898 187.878277 
L 205.782967 186.789781 
L 206.099394 186.321953 
L 206.574035 185.862856 
L 207.048676 185.443923 
L 207.523317 185.007658 
L 207.681531 184.992519 
L 208.4726 184.192371 
L 208.630813 184.235805 
L 209.263668 183.988695 
L 210.054737 184.09587 
L 210.529378 184.17153 
L 210.845805 184.132228 
L 211.162233 184.123011 
L 211.47866 183.881937 
L 212.586156 183.01268 
L 213.060797 183.125771 
L 213.377225 183.278506 
L 213.851866 182.988555 
L 214.484721 182.416381 
L 214.801148 182.377962 
L 215.275789 182.525326 
L 215.592217 181.967177 
L 216.066858 181.083244 
L 216.383285 180.842672 
L 216.699713 180.713607 
L 217.648995 180.638834 
L 218.598278 180.535913 
L 219.072919 180.519727 
L 219.705774 180.673248 
L 220.180415 180.455148 
L 220.81327 180.179495 
L 221.604338 180.184568 
L 222.078979 180.058232 
L 222.711834 180.082639 
L 222.870048 180.077679 
L 223.186475 179.875736 
L 223.502903 179.934747 
L 223.81933 179.754193 
L 224.768612 179.630474 
L 225.08504 179.413651 
L 225.401467 179.336686 
L 226.508963 178.716396 
L 226.825391 178.560268 
L 227.616459 177.642955 
L 228.249314 176.832464 
L 228.723955 176.603497 
L 229.673238 176.519731 
L 229.831451 176.628282 
L 230.62252 176.09858 
L 230.938947 176.141792 
L 231.730016 176.322054 
L 232.521085 176.012925 
L 232.837512 176.061773 
L 233.153939 176.303943 
L 233.470367 176.323448 
L 233.786794 176.203583 
L 234.103222 176.263148 
L 234.89429 175.994867 
L 235.368931 175.893923 
L 236.476427 176.361534 
L 236.951069 176.537906 
L 238.374992 177.735684 
L 239.007847 177.430551 
L 239.482488 177.359123 
L 240.115343 177.031744 
L 241.539266 177.522983 
L 242.172121 177.938952 
L 242.646762 177.815049 
L 242.96319 177.894394 
L 243.437831 178.301726 
L 243.754258 178.577919 
L 244.070686 178.672975 
L 244.387113 179.018443 
L 244.861754 179.791985 
L 245.178182 179.797293 
L 245.494609 179.771354 
L 245.811037 179.857897 
L 246.285678 179.829135 
L 246.760319 179.817108 
L 246.918533 179.715713 
L 247.551388 179.904 
L 247.867815 179.74704 
L 248.50067 179.903 
L 249.133525 180.021031 
L 249.76638 180.146008 
L 249.924593 180.149514 
L 250.399234 180.405161 
L 251.50673 181.115958 
L 252.456013 180.943512 
L 252.77244 181.018796 
L 253.247081 180.790751 
L 253.405295 180.824763 
L 253.721722 180.638529 
L 254.354577 181.111436 
L 254.671005 181.242517 
L 254.829219 181.343984 
L 255.30386 181.278287 
L 256.411356 181.615181 
L 256.727783 181.743238 
L 257.044211 181.619645 
L 257.518852 181.852717 
L 258.30992 181.429579 
L 258.626348 181.446053 
L 258.942775 181.343339 
L 259.259203 181.382191 
L 259.417416 181.234105 
L 260.050271 181.467327 
L 260.524912 181.655389 
L 260.84134 181.732681 
L 261.474195 181.993646 
L 261.790622 182.109208 
L 262.265263 182.225731 
L 262.898118 182.689029 
L 263.214545 182.817554 
L 263.689187 183.276265 
L 263.8474 182.715238 
L 264.480255 178.761643 
L 265.271324 175.032046 
L 268.752026 162.975488 
L 269.068453 162.041673 
L 269.38488 160.974669 
L 270.334163 158.27926 
L 270.967018 155.423853 
L 271.599872 152.641744 
L 272.074514 151.072968 
L 272.549155 148.51931 
L 273.023796 146.19559 
L 273.18201 145.847123 
L 273.340223 143.262902 
L 273.814864 122.929959 
L 273.973078 117.140531 
L 274.131292 105.111638 
L 274.447719 60.196584 
L 274.605933 59.383283 
L 275.080574 90.33185 
L 275.555215 123.60009 
L 275.871643 134.290197 
L 276.18807 137.953272 
L 276.504498 138.788496 
L 276.820925 138.575122 
L 276.979139 138.304256 
L 277.45378 136.556454 
L 278.403062 133.76544 
L 278.71949 131.980372 
L 279.668772 113.507491 
L 279.985199 108.880104 
L 280.618054 94.054312 
L 281.250909 73.181876 
L 281.409123 72.127346 
L 281.567337 73.844622 
L 281.883764 84.667492 
L 283.149474 133.688695 
L 283.465901 137.750292 
L 284.098756 141.531119 
L 284.573397 142.916144 
L 284.889825 143.276049 
L 285.048038 143.365586 
L 285.522679 143.959955 
L 285.997321 144.340631 
L 286.313748 144.254719 
L 286.630175 144.166216 
L 287.737671 144.555952 
L 288.370526 144.059142 
L 288.845167 144.164216 
L 289.003381 144.109562 
L 289.161595 143.927063 
L 289.79445 143.978293 
L 289.952663 144.115652 
L 290.427305 144.767376 
L 291.218373 145.654444 
L 291.693014 146.443779 
L 292.167656 146.715851 
L 292.484083 147.083548 
L 293.433365 147.691302 
L 293.749793 148.030993 
L 294.382648 148.57965 
L 294.857289 149.158034 
L 295.173716 149.525416 
L 295.648357 150.06007 
L 296.122998 150.782835 
L 296.59764 151.544984 
L 297.546922 152.266265 
L 298.654418 152.885094 
L 298.970845 152.96453 
L 299.287273 153.003996 
L 299.6037 153.121798 
L 299.920128 153.250932 
L 300.552982 153.257016 
L 301.660478 153.520653 
L 301.976906 153.523982 
L 302.293333 153.579143 
L 302.609761 153.722071 
L 303.400829 153.890445 
L 304.191898 153.469045 
L 304.350112 153.509284 
L 304.666539 153.133811 
L 304.982967 153.247948 
L 305.299394 153.582055 
L 306.248676 153.781092 
L 306.723317 154.0881 
L 307.356172 154.02164 
L 307.6726 154.156154 
L 308.305455 155.010343 
L 308.463668 155.143492 
L 308.780096 155.672078 
L 310.204019 156.599242 
L 310.995088 157.429855 
L 311.627943 158.151505 
L 312.577225 158.517845 
L 312.893652 158.400872 
L 313.684721 158.63406 
L 313.842935 158.748452 
L 314.634003 158.54268 
L 315.108644 158.28746 
L 315.266858 158.300835 
L 315.741499 158.658512 
L 316.374354 158.739871 
L 316.848995 158.619356 
L 317.48185 158.10148 
L 317.798278 158.137085 
L 317.956491 158.020045 
L 318.431132 158.148028 
L 320.171483 156.367162 
L 320.646124 156.213536 
L 321.120766 156.029321 
L 321.278979 156.167094 
L 321.75362 157.050723 
L 322.070048 157.400183 
L 323.01933 158.981073 
L 323.335758 159.073883 
L 324.601467 159.002079 
L 324.917895 159.0501 
L 327.923955 159.498896 
L 328.873238 159.002634 
L 329.189665 158.605225 
L 329.347879 158.487816 
L 329.664306 158.694113 
L 329.980734 158.673 
L 330.613589 158.575144 
L 330.930016 158.619589 
L 331.404657 158.45331 
L 332.670367 158.286261 
L 333.145008 157.78199 
L 333.461435 158.007372 
L 333.619649 158.081007 
L 334.09429 157.887183 
L 334.410718 157.994412 
L 334.727145 157.791438 
L 335.043573 158.076931 
L 335.518214 158.11657 
L 335.834641 158.229166 
L 336.151069 158.212298 
L 336.783923 158.52007 
L 337.416778 158.545438 
L 338.207847 158.903941 
L 338.682488 158.823847 
L 339.157129 158.861013 
L 339.473557 158.954622 
L 339.948198 159.419446 
L 340.581053 159.950003 
L 341.213907 159.933582 
L 341.688549 159.595657 
L 342.004976 159.503706 
L 342.321404 159.126253 
L 342.954258 159.168737 
L 343.270686 159.02111 
L 343.587113 158.770007 
L 344.061754 158.575037 
L 344.378182 158.328056 
L 344.694609 158.130743 
L 345.011037 157.790046 
L 345.485678 157.583015 
L 346.751388 155.998024 
L 347.067815 156.055995 
L 347.384242 155.83404 
L 347.70067 155.758899 
L 348.649952 154.884292 
L 348.808166 154.937436 
L 349.124593 154.754688 
L 349.441021 154.793294 
L 350.232089 154.841236 
L 350.864944 155.542595 
L 351.339585 155.586612 
L 351.656013 155.576049 
L 352.130654 155.755139 
L 352.447081 155.960897 
L 352.921722 156.325086 
L 353.079936 156.49701 
L 353.712791 156.472958 
L 354.345646 156.758817 
L 354.820287 157.148415 
L 355.453142 157.595416 
L 355.927783 157.797078 
L 356.244211 158.110804 
L 356.560638 158.441316 
L 357.50992 158.931925 
L 357.668134 158.985452 
L 357.984561 158.796895 
L 358.300989 158.88528 
L 358.933844 158.736489 
L 359.408485 158.597132 
L 360.04134 159.049168 
L 360.832408 158.954759 
L 361.781691 158.981483 
L 362.098118 159.112793 
L 362.730973 158.896965 
L 363.0474 159.036997 
L 363.363828 159.147038 
L 363.680255 159.318286 
L 364.154896 159.615046 
L 364.629537 159.852835 
L 364.945965 160.01158 
L 365.262392 160.201921 
L 365.420606 160.18495 
L 365.737033 160.491095 
L 366.053461 160.858773 
L 366.211675 160.880722 
L 366.528102 160.684751 
L 366.84453 160.746097 
L 367.635598 161.250473 
L 367.793812 161.277696 
L 368.110239 161.527099 
L 369.217735 161.697234 
L 369.692376 161.980389 
L 370.167018 162.161147 
L 370.799872 162.461942 
L 371.432727 162.520892 
L 371.907368 162.390188 
L 372.065582 162.386482 
L 372.38201 162.638479 
L 373.014864 162.315817 
L 373.331292 162.18965 
L 373.805933 162.175327 
L 374.597002 161.398511 
L 374.913429 161.260943 
L 375.071643 161.17151 
L 375.38807 161.264467 
L 375.546284 161.195243 
L 375.862711 161.292204 
L 376.179139 160.927331 
L 376.495566 160.65903 
L 377.286635 160.11133 
L 378.077703 159.735162 
L 378.235917 159.771052 
L 379.026986 159.477355 
L 379.659841 159.849327 
L 380.609123 159.40893 
L 381.241978 158.877717 
L 382.824115 158.808665 
L 383.298756 158.727676 
L 383.931611 158.293057 
L 384.248038 158.246911 
L 384.722679 158.298079 
L 384.880893 158.196907 
L 385.197321 158.431599 
L 385.513748 158.65829 
L 386.146603 158.398238 
L 387.254099 158.790164 
L 387.72874 158.51158 
L 388.836236 158.938376 
L 389.310877 158.809992 
L 390.101946 158.639698 
L 390.260159 158.589967 
L 390.576587 158.638995 
L 391.051228 158.446026 
L 391.684083 158.301145 
L 391.842297 158.199194 
L 392.949793 158.460291 
L 393.582648 158.017079 
L 393.899075 157.904067 
L 394.215502 157.777429 
L 394.53193 157.830293 
L 394.848357 157.735833 
L 395.322998 157.297802 
L 395.639426 157.52679 
L 396.114067 157.247883 
L 396.588708 157.40478 
L 397.063349 157.382966 
L 397.379777 157.727081 
L 398.170845 158.359105 
L 398.487273 158.287435 
L 398.487273 158.287435 
" style="fill:none;stroke:#000000;stroke-linecap:square;stroke-width:1.5;"/>
   </g>
   <g id="line2d_20">
    <path clip-path="url(#p07818dd10a)" d="M 73.832727 178.790528 
L 74.465582 178.915146 
L 75.098437 179.39502 
L 75.889506 179.205343 
L 76.680574 179.784379 
L 76.838788 179.780312 
L 77.471643 179.102357 
L 77.78807 179.259505 
L 78.104498 179.051449 
L 78.579139 179.179135 
L 79.05378 179.123078 
L 79.528421 178.551045 
L 79.844848 178.15883 
L 80.794131 178.612527 
L 81.268772 178.624129 
L 81.585199 178.665167 
L 82.059841 178.394311 
L 82.218054 178.409042 
L 82.534482 178.20402 
L 83.009123 178.567051 
L 83.32555 178.074496 
L 83.483764 178.023154 
L 83.958405 177.316793 
L 84.274833 177.168714 
L 84.749474 177.415943 
L 85.065901 177.00974 
L 85.224115 176.920981 
L 85.382329 176.546316 
L 85.698756 176.506478 
L 86.648038 176.249831 
L 86.964466 175.611713 
L 87.597321 175.338649 
L 87.755534 175.45307 
L 88.230175 175.290429 
L 88.704817 174.7929 
L 88.86303 174.810065 
L 89.021244 174.9732 
L 89.337671 174.839645 
L 89.654099 175.248245 
L 89.970526 175.617877 
L 90.603381 175.088943 
L 91.236236 175.087051 
L 91.869091 174.626964 
L 92.185518 174.432157 
L 92.343732 174.366562 
L 92.501946 174.135662 
L 92.818373 174.003517 
L 92.976587 173.929109 
L 93.293014 174.246382 
L 93.451228 174.298458 
L 93.767656 174.20915 
L 94.40051 174.89704 
L 95.033365 175.553997 
L 95.982648 176.257923 
L 97.248357 177.091893 
L 98.19764 178.279185 
L 98.672281 178.702128 
L 99.146922 178.704153 
L 99.463349 178.838657 
L 99.621563 178.802922 
L 100.729059 179.44859 
L 101.045486 179.497121 
L 101.361914 179.290544 
L 101.678341 179.432258 
L 102.152982 179.426876 
L 102.46941 179.448816 
L 102.785837 178.991678 
L 103.576906 178.774938 
L 103.893333 178.188064 
L 104.209761 178.159453 
L 104.684402 178.715163 
L 105.317257 178.552854 
L 105.47547 178.65315 
L 105.633684 178.097302 
L 106.74118 170.1448 
L 107.532249 166.46714 
L 108.481531 162.923857 
L 111.012951 157.42905 
L 111.645805 156.750773 
L 111.962233 156.298434 
L 112.753301 154.769627 
L 113.069729 154.189732 
L 113.386156 154.002243 
L 114.019011 153.68148 
L 114.651866 153.072103 
L 115.601148 151.785811 
L 115.917576 151.486575 
L 116.392217 150.894675 
L 117.025072 150.465697 
L 117.341499 150.297281 
L 117.81614 150.316052 
L 118.448995 150.075778 
L 119.08185 150.461214 
L 119.398278 150.468253 
L 119.714705 150.721544 
L 120.34756 150.856814 
L 120.822201 150.605855 
L 121.296842 150.355635 
L 121.771483 150.290247 
L 121.929697 150.254042 
L 122.246124 150.065003 
L 122.562552 150.031346 
L 123.511834 149.813488 
L 123.828262 149.871461 
L 124.777544 149.512048 
L 125.252185 149.5012 
L 126.043254 149.06057 
L 126.517895 148.985154 
L 127.467177 148.335419 
L 128.258246 148.723597 
L 128.8911 149.18592 
L 130.631451 149.51814 
L 131.106093 149.857119 
L 131.42252 149.987642 
L 132.213589 150.569001 
L 132.68823 151.082796 
L 134.428581 152.183613 
L 135.219649 152.492023 
L 135.69429 152.853432 
L 136.010718 153.00808 
L 136.96 153.755504 
L 137.276427 153.888686 
L 137.751069 154.015703 
L 138.22571 153.895877 
L 138.700351 153.489066 
L 139.491419 153.543486 
L 139.807847 153.59619 
L 140.124274 153.588369 
L 141.706411 154.073212 
L 142.022839 154.169675 
L 142.339266 154.181495 
L 142.813907 154.004633 
L 143.288549 154.186545 
L 144.237831 154.588114 
L 144.554258 154.360541 
L 145.0289 154.501469 
L 145.503541 154.776352 
L 145.978182 154.946536 
L 146.611037 155.211108 
L 147.876746 155.218656 
L 148.351388 155.049598 
L 149.142456 154.975447 
L 149.458884 154.903313 
L 150.249952 154.993307 
L 150.56638 154.868741 
L 151.990303 154.780939 
L 152.30673 154.896381 
L 152.939585 154.907271 
L 153.097799 154.926466 
L 153.730654 154.60387 
L 154.047081 154.527068 
L 154.521722 154.662913 
L 155.154577 154.537177 
L 155.471005 154.333081 
L 156.578501 154.317553 
L 157.211356 154.518849 
L 158.477065 154.45847 
L 158.951707 154.447436 
L 159.584561 154.728758 
L 159.900989 154.808474 
L 160.850271 154.617557 
L 161.166699 154.654585 
L 161.483126 154.707852 
L 162.907049 155.309678 
L 163.223477 155.40901 
L 163.381691 155.428729 
L 163.698118 155.650929 
L 164.014545 155.733653 
L 164.6474 155.923791 
L 164.963828 155.891151 
L 165.280255 155.84435 
L 165.91311 155.948146 
L 166.862392 155.667674 
L 167.495247 155.342596 
L 168.602743 155.614569 
L 170.343094 154.996162 
L 171.608804 154.787621 
L 171.767018 154.694251 
L 172.399872 154.751436 
L 173.190941 154.896956 
L 173.507368 155.105976 
L 173.98201 155.084648 
L 174.614864 155.193286 
L 175.089506 155.284363 
L 176.355215 155.747721 
L 176.671643 155.905135 
L 177.779139 156.157576 
L 178.25378 156.420566 
L 178.570207 156.499639 
L 178.728421 156.56183 
L 179.203062 156.39609 
L 179.51949 156.425812 
L 180.152344 156.457852 
L 180.943413 156.517132 
L 182.209123 156.767309 
L 182.52555 156.825789 
L 182.841978 156.874734 
L 183.158405 156.891816 
L 183.474833 157.044008 
L 184.265901 157.085239 
L 186.480893 155.905306 
L 186.797321 155.877214 
L 187.113748 155.700838 
L 187.430175 155.666462 
L 189.170526 154.090994 
L 189.486954 154.030669 
L 190.119809 153.860881 
L 190.278022 153.782597 
L 190.910877 153.089834 
L 191.227305 152.924117 
L 191.860159 152.328728 
L 192.493014 152.489109 
L 192.809442 152.596457 
L 193.125869 152.367329 
L 194.549793 152.534099 
L 195.024434 152.283206 
L 195.340861 152.437533 
L 195.815502 152.312211 
L 197.239426 152.643097 
L 197.555853 152.783577 
L 197.872281 152.487064 
L 198.188708 152.600315 
L 198.505136 152.417788 
L 198.821563 152.402304 
L 199.454418 151.880764 
L 199.770845 151.918944 
L 199.929059 151.911447 
L 200.245486 152.002355 
L 200.4037 152.029207 
L 200.720128 152.266646 
L 201.511196 152.234242 
L 202.144051 151.811878 
L 203.726188 151.153242 
L 204.359043 151.515572 
L 204.833684 151.719783 
L 207.048676 152.374377 
L 207.365104 152.313036 
L 207.681531 152.392832 
L 208.314386 152.175613 
L 208.630813 152.271309 
L 209.105455 152.738491 
L 209.896523 152.953435 
L 210.212951 153.191564 
L 211.320447 153.280557 
L 212.111515 153.383785 
L 212.74437 153.344612 
L 213.060797 153.320331 
L 213.693652 153.084615 
L 214.168293 153.2321 
L 214.326507 153.175561 
L 214.642935 153.250604 
L 214.801148 153.188469 
L 215.117576 153.327558 
L 215.592217 153.143693 
L 216.066858 152.472598 
L 216.225072 152.191375 
L 216.541499 152.300515 
L 216.857927 152.025799 
L 217.332568 152.067314 
L 217.648995 152.075178 
L 217.965423 152.066752 
L 218.28185 151.938929 
L 218.598278 151.809406 
L 218.914705 151.88322 
L 219.389346 151.705534 
L 219.54756 151.679925 
L 220.180415 152.098605 
L 220.81327 152.776348 
L 221.446124 153.096736 
L 221.762552 153.29693 
L 222.078979 153.357523 
L 222.395407 153.380724 
L 222.711834 153.340028 
L 223.028262 153.216956 
L 223.502903 153.101101 
L 224.452185 153.649147 
L 224.610399 153.530266 
L 224.926826 153.661778 
L 225.559681 153.030935 
L 225.876108 152.935014 
L 226.35075 153.122732 
L 226.825391 153.173622 
L 227.141818 153.38705 
L 227.458246 153.610049 
L 228.249314 153.595861 
L 228.723955 153.686549 
L 228.882169 153.680945 
L 229.198596 153.835897 
L 229.515024 153.91383 
L 229.831451 154.011209 
L 230.780734 153.676179 
L 231.097161 153.57798 
L 231.413589 153.655185 
L 231.88823 153.37775 
L 232.204657 153.505165 
L 233.628581 154.435834 
L 234.419649 154.738855 
L 234.736077 154.902438 
L 235.052504 154.833177 
L 236.476427 153.957455 
L 237.42571 153.805667 
L 237.742137 153.743552 
L 237.900351 153.665376 
L 238.058565 153.366165 
L 238.533206 151.893749 
L 238.849633 151.285676 
L 239.166061 151.346645 
L 239.324274 151.434093 
L 239.957129 151.254666 
L 240.115343 151.345467 
L 240.589984 151.899464 
L 240.906411 152.143733 
L 241.222839 152.380871 
L 242.488549 152.731959 
L 243.121404 152.537511 
L 243.912472 152.802564 
L 244.2289 152.868298 
L 245.019968 153.508832 
L 245.96925 153.428651 
L 246.285678 153.146475 
L 246.602105 153.139897 
L 246.918533 152.87375 
L 247.23496 152.970139 
L 248.026029 152.508637 
L 248.975311 152.71425 
L 249.449952 152.578456 
L 249.76638 152.606487 
L 250.082807 152.828405 
L 251.50673 153.037472 
L 252.77244 152.199088 
L 253.247081 151.978702 
L 253.563509 152.158302 
L 253.879936 152.039513 
L 254.196364 151.944374 
L 254.512791 151.854718 
L 255.778501 150.727035 
L 256.094928 150.742836 
L 257.202424 149.339595 
L 257.360638 149.370841 
L 257.835279 148.934787 
L 258.151707 148.873814 
L 258.626348 148.95514 
L 258.942775 148.967364 
L 259.57563 149.038662 
L 260.683126 149.813639 
L 261.157767 149.849388 
L 261.632408 150.019118 
L 261.948836 150.025045 
L 262.265263 150.029612 
L 262.581691 150.249874 
L 263.689187 151.424521 
L 264.005614 153.583908 
L 264.638469 157.947709 
L 265.429537 161.997422 
L 266.537033 166.349648 
L 267.169888 168.58568 
L 267.802743 169.940079 
L 268.593812 171.46073 
L 270.175949 173.589857 
L 271.125231 175.295428 
L 271.9163 175.930347 
L 272.549155 177.093207 
L 272.865582 177.449554 
L 273.18201 177.817751 
L 275.238788 179.56524 
L 275.713429 179.793185 
L 276.029856 180.220327 
L 276.662711 180.512324 
L 276.820925 180.396382 
L 277.295566 180.651145 
L 277.928421 180.880056 
L 279.352344 180.913666 
L 279.668772 180.561091 
L 280.143413 180.439269 
L 280.301627 180.530569 
L 280.618054 180.466233 
L 280.934482 180.674925 
L 281.72555 180.703813 
L 282.041978 181.080881 
L 282.200191 181.139386 
L 282.833046 181.725253 
L 283.149474 181.828636 
L 283.782329 182.220951 
L 284.415183 182.464006 
L 284.731611 182.579555 
L 285.206252 182.43973 
L 285.522679 182.571366 
L 286.155534 182.621758 
L 286.471962 182.753247 
L 286.946603 183.097058 
L 288.370526 182.72174 
L 288.845167 182.784061 
L 289.161595 182.509722 
L 290.269091 182.887028 
L 290.901946 182.231787 
L 291.218373 182.292567 
L 291.534801 181.933918 
L 291.851228 181.408317 
L 292.80051 181.367444 
L 293.116938 181.162853 
L 293.433365 181.058294 
L 293.591579 181.052566 
L 293.749793 180.895478 
L 294.06622 180.995902 
L 294.540861 180.735445 
L 294.857289 180.754752 
L 295.173716 181.017245 
L 295.490144 180.921395 
L 296.281212 181.157966 
L 296.755853 180.937802 
L 297.072281 181.100816 
L 297.388708 181.006242 
L 297.705136 180.844216 
L 298.021563 180.860235 
L 298.812632 181.121798 
L 299.287273 181.171443 
L 300.078341 181.655998 
L 300.711196 181.415095 
L 301.976906 182.33369 
L 302.293333 182.466392 
L 302.609761 182.465123 
L 302.926188 182.461686 
L 303.400829 182.379266 
L 303.717257 181.925464 
L 304.191898 181.871878 
L 304.824753 182.267698 
L 304.982967 182.221982 
L 305.299394 182.331614 
L 305.615821 182.439217 
L 305.932249 182.569062 
L 306.248676 182.812767 
L 306.565104 182.659502 
L 306.723317 182.81097 
L 307.356172 182.761879 
L 307.6726 183.011562 
L 309.096523 182.366612 
L 310.520447 182.315908 
L 310.67866 182.188161 
L 311.153301 182.140518 
L 311.469729 181.846103 
L 311.786156 181.45234 
L 312.102584 181.338864 
L 312.735439 180.876652 
L 313.21008 181.141398 
L 313.842935 181.308521 
L 314.159362 181.247478 
L 315.425072 181.097904 
L 315.899713 181.33534 
L 316.374354 181.38535 
L 316.690781 181.264752 
L 317.798278 181.568499 
L 318.114705 181.371014 
L 319.063987 180.740382 
L 319.538628 181.043628 
L 319.855056 181.209268 
L 321.595407 181.055754 
L 321.911834 181.152334 
L 322.070048 181.06439 
L 323.01933 179.810756 
L 323.493971 179.781178 
L 324.126826 180.089913 
L 324.601467 180.429961 
L 324.759681 180.457932 
L 324.917895 180.349056 
L 325.708963 179.292572 
L 326.500032 179.341679 
L 326.816459 179.439728 
L 327.607528 178.837355 
L 327.765742 178.799184 
L 328.398596 179.371607 
L 328.55681 179.557959 
L 328.715024 179.564642 
L 329.031451 179.425907 
L 329.506093 179.372933 
L 330.138947 179.504922 
L 330.455375 179.498822 
L 330.613589 179.663888 
L 332.828581 179.568313 
L 332.986794 179.672795 
L 333.303222 179.606079 
L 333.619649 179.684768 
L 333.936077 179.561989 
L 335.043573 179.577099 
L 335.676427 179.482696 
L 335.992855 179.736175 
L 336.62571 178.974572 
L 337.416778 178.66992 
L 337.733206 178.388917 
L 338.049633 178.487309 
L 338.207847 178.492646 
L 338.682488 178.784028 
L 339.157129 178.899482 
L 340.106411 179.270202 
L 340.422839 178.967491 
L 340.739266 179.050486 
L 341.055694 179.204915 
L 341.372121 179.122749 
L 342.479617 179.42961 
L 342.796045 179.320123 
L 343.112472 179.318534 
L 343.587113 179.213044 
L 344.219968 179.746177 
L 344.378182 179.673341 
L 344.852823 179.808071 
L 345.16925 179.828298 
L 345.485678 180.190577 
L 346.118533 180.721228 
L 347.542456 181.854242 
L 347.858884 181.98785 
L 348.491738 182.301797 
L 348.96638 182.254519 
L 349.441021 182.05797 
L 350.073876 182.262727 
L 350.390303 182.20122 
L 351.023158 182.4895 
L 351.97244 182.756869 
L 352.288868 182.896228 
L 352.605295 182.971437 
L 353.079936 182.791463 
L 353.396364 182.805183 
L 353.871005 183.040444 
L 354.029219 183.00326 
L 354.50386 182.388141 
L 354.662073 182.466336 
L 355.136715 181.645153 
L 355.611356 181.374035 
L 356.560638 181.630686 
L 356.877065 181.481003 
L 357.193493 181.197915 
L 357.351707 181.199776 
L 357.668134 180.966802 
L 358.142775 180.928084 
L 359.408485 179.940725 
L 359.883126 179.821409 
L 360.674195 179.4391 
L 360.832408 179.394689 
L 361.307049 178.955035 
L 361.781691 178.854344 
L 362.256332 179.05919 
L 362.730973 179.30541 
L 363.0474 179.618606 
L 363.363828 179.524892 
L 364.31311 179.878368 
L 364.787751 179.941252 
L 365.57882 179.857039 
L 366.053461 180.11236 
L 366.686316 180.309925 
L 367.002743 180.442182 
L 367.160957 180.37199 
L 367.635598 179.916334 
L 368.58488 179.055349 
L 369.217735 178.641895 
L 369.534163 178.417931 
L 370.325231 177.364219 
L 370.799872 177.261471 
L 371.1163 177.730117 
L 371.274514 177.871082 
L 371.432727 177.844551 
L 371.749155 177.640008 
L 372.065582 177.606485 
L 372.38201 177.375193 
L 372.540223 177.472793 
L 373.014864 177.318273 
L 373.489506 177.667872 
L 373.805933 177.376138 
L 373.964147 177.370235 
L 374.280574 177.159208 
L 374.913429 177.431875 
L 375.38807 177.395093 
L 376.495566 177.474549 
L 376.970207 177.583436 
L 377.761276 177.960742 
L 378.394131 178.497757 
L 379.026986 179.081865 
L 379.659841 179.895809 
L 380.609123 180.580009 
L 381.241978 181.029592 
L 381.874833 180.86836 
L 382.349474 181.100574 
L 382.507687 181.130997 
L 382.824115 181.414399 
L 382.982329 181.338532 
L 383.298756 181.405769 
L 383.931611 181.184139 
L 384.406252 181.530517 
L 384.722679 181.595627 
L 385.039107 181.370974 
L 385.513748 180.899934 
L 385.988389 181.009989 
L 386.146603 181.072653 
L 386.621244 180.836798 
L 386.937671 180.811385 
L 387.254099 180.818712 
L 388.519809 181.177961 
L 389.152663 181.238113 
L 389.469091 181.135507 
L 390.101946 181.478443 
L 390.418373 181.517778 
L 391.051228 181.684996 
L 393.582648 181.347767 
L 393.899075 181.114846 
L 394.848357 180.760584 
L 395.164785 180.771353 
L 395.79764 180.782757 
L 396.430494 180.180751 
L 398.487273 181.449682 
L 398.487273 181.449682 
" style="fill:none;stroke:#000000;stroke-linecap:square;stroke-width:1.5;"/>
   </g>
   <g id="line2d_21">
    <path clip-path="url(#p07818dd10a)" d="M 73.832727 181.996184 
L 74.307368 181.74055 
L 74.78201 181.818579 
L 75.256651 182.037023 
L 75.573078 182.227629 
L 76.680574 181.997622 
L 76.997002 181.993023 
L 77.155215 181.953626 
L 77.471643 182.093607 
L 77.946284 182.082165 
L 78.420925 182.283338 
L 78.737352 182.18031 
L 79.05378 182.308256 
L 79.686635 182.301279 
L 80.794131 182.755859 
L 81.426986 183.018495 
L 81.743413 183.208278 
L 82.218054 183.54699 
L 82.534482 183.719621 
L 83.009123 183.87646 
L 83.32555 183.869557 
L 85.382329 183.71621 
L 85.85697 183.70043 
L 86.173397 183.680224 
L 87.913748 182.836102 
L 88.230175 182.554138 
L 88.388389 182.60668 
L 88.704817 182.462622 
L 89.021244 182.58716 
L 89.179458 182.577329 
L 89.337671 182.687008 
L 89.654099 183.079672 
L 90.12874 183.32394 
L 90.603381 183.437811 
L 91.39445 183.269419 
L 92.501946 183.313146 
L 92.818373 183.105649 
L 92.976587 182.982266 
L 93.451228 183.19608 
L 93.925869 183.377358 
L 94.084083 183.493296 
L 94.716938 183.433377 
L 95.191579 183.425563 
L 95.66622 183.25127 
L 95.982648 183.259649 
L 96.299075 183.260088 
L 97.722998 182.598517 
L 98.039426 182.572419 
L 98.514067 182.566035 
L 100.254418 182.862326 
L 101.836555 183.498585 
L 102.311196 183.440583 
L 102.627624 183.43503 
L 103.418692 183.114992 
L 103.576906 183.210185 
L 104.051547 183.869478 
L 104.684402 184.060889 
L 104.842616 183.760041 
L 105.317257 183.584575 
L 105.47547 183.936595 
L 105.633684 180.490346 
L 106.266539 159.5535 
L 106.899394 143.245262 
L 107.374035 109.04786 
L 107.848676 53.568 
L 108.956172 120.131527 
L 109.2726 124.300561 
L 109.430813 124.017739 
L 109.747241 121.452091 
L 110.221882 115.381966 
L 110.538309 108.527204 
L 111.012951 91.594724 
L 111.645805 63.934015 
L 111.804019 67.320468 
L 113.069729 120.365225 
L 113.386156 122.898964 
L 113.54437 122.458744 
L 114.019011 118.33634 
L 114.651866 110.192758 
L 115.284721 99.081371 
L 115.759362 85.108136 
L 116.234003 70.761651 
L 116.392217 69.815624 
L 116.550431 70.506707 
L 116.708644 73.375869 
L 117.183285 91.713437 
L 117.81614 117.262707 
L 118.132568 122.293996 
L 118.448995 123.803658 
L 118.607209 123.586636 
L 118.923636 121.882476 
L 119.872919 113.21878 
L 120.34756 107.540216 
L 120.822201 95.504801 
L 121.296842 79.000004 
L 121.61327 68.087852 
L 121.771483 67.98236 
L 122.087911 75.862175 
L 122.562552 99.226602 
L 123.037193 129.423678 
L 123.35362 136.433201 
L 123.670048 137.636409 
L 123.986475 137.080972 
L 124.302903 135.646306 
L 126.201467 122.26458 
L 126.517895 119.348978 
L 128.732887 72.92512 
L 128.8911 73.570539 
L 129.207528 82.795457 
L 130.15681 118.255523 
L 130.473238 123.306976 
L 130.631451 124.131688 
L 130.789665 124.244901 
L 131.264306 122.475494 
L 132.213589 117.105017 
L 132.846443 112.71103 
L 133.637512 105.618693 
L 134.270367 96.296855 
L 135.377863 74.562954 
L 135.536077 74.812081 
L 135.69429 76.805823 
L 136.168931 90.967042 
L 136.96 118.851465 
L 137.276427 124.342197 
L 137.592855 125.955103 
L 137.751069 126.120603 
L 137.909282 125.962022 
L 138.22571 124.778412 
L 138.858565 120.933584 
L 140.282488 111.296019 
L 141.073557 97.981684 
L 141.864625 84.046598 
L 142.339266 76.209554 
L 142.49748 76.409801 
L 142.813907 81.910678 
L 143.288549 93.25398 
L 144.079617 117.435439 
L 144.396045 121.718162 
L 144.712472 122.799316 
L 144.870686 122.777911 
L 145.503541 120.508304 
L 146.452823 115.573565 
L 147.402105 108.797831 
L 147.718533 105.066094 
L 148.509601 93.38804 
L 149.617097 79.675612 
L 149.775311 78.652937 
L 149.933525 79.134115 
L 150.249952 83.402002 
L 150.56638 91.611848 
L 151.515662 118.62886 
L 151.832089 121.987139 
L 151.990303 122.613881 
L 152.148517 122.643287 
L 152.464944 121.829376 
L 153.097799 118.833192 
L 154.521722 110.833255 
L 155.787432 101.55327 
L 155.945646 100.883561 
L 156.420287 95.714659 
L 156.894928 88.052892 
L 157.369569 77.885963 
L 157.527783 75.765625 
L 157.685997 75.487204 
L 158.002424 79.040896 
L 158.318852 86.737244 
L 159.426348 121.999377 
L 159.742775 124.264832 
L 159.900989 124.630316 
L 160.059203 124.58245 
L 160.217416 124.324862 
L 160.533844 122.920011 
L 161.324912 118.494681 
L 161.64134 117.04499 
L 162.274195 113.44482 
L 164.330973 98.327192 
L 165.122041 89.693972 
L 165.596683 86.607654 
L 165.91311 85.367084 
L 166.071324 85.128309 
L 166.229537 86.036121 
L 166.545965 90.458933 
L 167.020606 101.044444 
L 167.653461 114.287631 
L 167.969888 118.441705 
L 168.286316 120.160441 
L 168.44453 120.57347 
L 168.602743 120.651885 
L 168.760957 120.378078 
L 169.077384 119.065234 
L 170.659522 110.588452 
L 171.292376 106.795514 
L 171.925231 103.838386 
L 172.874514 97.466788 
L 173.98201 87.576371 
L 174.456651 82.136277 
L 174.773078 81.301333 
L 174.931292 81.617607 
L 175.247719 84.87073 
L 175.564147 91.137358 
L 176.671643 116.991062 
L 176.98807 118.972264 
L 177.146284 119.40281 
L 177.462711 119.462957 
L 178.095566 118.149536 
L 178.411994 117.099574 
L 179.51949 115.497867 
L 180.468772 111.807411 
L 180.785199 109.982287 
L 180.943413 109.689968 
L 181.576268 107.453635 
L 182.52555 105.017417 
L 182.683764 105.130792 
L 183.000191 105.676486 
L 183.633046 106.73673 
L 184.107687 105.664268 
L 184.898756 102.074016 
L 185.215183 101.448858 
L 185.689825 101.355306 
L 186.164466 100.224816 
L 186.322679 100.070886 
L 186.797321 100.975857 
L 187.271962 101.519175 
L 187.588389 101.62607 
L 189.012313 96.764114 
L 189.32874 96.073181 
L 189.803381 94.445741 
L 190.119809 94.190944 
L 190.910877 96.160261 
L 192.018373 102.734471 
L 192.334801 105.618228 
L 193.60051 112.307257 
L 194.075152 113.110659 
L 194.233365 113.310009 
L 194.86622 114.896262 
L 195.499075 115.211457 
L 195.973716 114.024447 
L 197.239426 108.654874 
L 197.872281 104.380086 
L 198.188708 102.098559 
L 198.505136 100.594421 
L 199.296204 95.247885 
L 199.770845 94.14591 
L 200.245486 91.225044 
L 200.4037 91.002726 
L 200.561914 91.083036 
L 200.720128 91.377322 
L 200.878341 91.395811 
L 201.036555 91.707197 
L 201.352982 93.317285 
L 201.66941 98.12293 
L 202.460478 111.153888 
L 202.93512 114.098891 
L 203.251547 115.432372 
L 204.042616 116.44686 
L 204.67547 115.468183 
L 204.833684 115.281228 
L 205.150112 114.11016 
L 205.94118 111.163008 
L 206.415821 110.208832 
L 207.20689 109.594815 
L 207.365104 109.742374 
L 207.681531 109.594098 
L 208.156172 108.778852 
L 208.314386 108.897678 
L 208.4726 108.805035 
L 208.789027 107.5827 
L 209.105455 107.301385 
L 209.421882 106.509861 
L 210.054737 104.730863 
L 210.212951 104.481803 
L 210.687592 102.276636 
L 210.845805 101.956244 
L 211.162233 100.244025 
L 212.74437 84.462175 
L 212.902584 84.358898 
L 213.219011 84.989454 
L 213.377225 85.952169 
L 213.851866 91.78245 
L 215.117576 116.202657 
L 215.592217 120.509594 
L 215.908644 121.897488 
L 216.066858 121.850372 
L 216.225072 121.649272 
L 218.28185 115.673732 
L 218.756491 112.848924 
L 219.389346 109.737456 
L 219.705774 109.045681 
L 220.022201 108.725224 
L 220.338628 107.773079 
L 220.655056 106.074567 
L 222.395407 94.522006 
L 223.344689 85.365739 
L 223.502903 84.27354 
L 223.661116 83.972002 
L 223.977544 86.401419 
L 224.293971 90.574956 
L 224.768612 100.487668 
L 225.243254 110.71665 
L 225.717895 116.910785 
L 226.034322 119.42152 
L 226.192536 119.981552 
L 226.35075 119.843459 
L 226.667177 119.385149 
L 226.825391 119.337632 
L 227.141818 118.435738 
L 227.616459 116.743983 
L 228.407528 114.090341 
L 228.565742 114.048267 
L 229.040383 112.806377 
L 229.35681 111.849377 
L 229.673238 111.247969 
L 231.413589 104.277664 
L 232.046443 100.170586 
L 233.312153 90.746032 
L 233.628581 89.461327 
L 233.945008 88.020356 
L 234.261435 86.791971 
L 234.577863 87.017694 
L 234.89429 89.721381 
L 235.210718 93.158754 
L 235.685359 100.529601 
L 236.318214 112.000291 
L 236.792855 116.712946 
L 237.109282 118.158259 
L 237.583923 118.520124 
L 238.058565 118.092345 
L 238.533206 117.490798 
L 239.324274 115.411563 
L 240.115343 111.323673 
L 240.589984 108.837672 
L 241.064625 106.272128 
L 241.539266 102.218362 
L 242.488549 93.110795 
L 243.437831 87.133682 
L 243.596045 87.079045 
L 243.754258 87.822445 
L 244.070686 91.661172 
L 245.494609 116.35565 
L 245.652823 117.067401 
L 245.96925 117.350376 
L 246.285678 118.120044 
L 246.443892 118.113897 
L 246.760319 117.632096 
L 247.23496 116.122358 
L 247.709601 113.876162 
L 248.184242 111.708993 
L 248.342456 111.350914 
L 248.658884 109.751027 
L 249.133525 107.698681 
L 249.291738 107.365652 
L 250.557448 101.814113 
L 251.664944 91.978223 
L 252.456013 83.439674 
L 252.614226 83.519512 
L 252.77244 84.455806 
L 253.088868 88.518945 
L 253.405295 94.982037 
L 254.196364 113.351717 
L 254.671005 118.802464 
L 254.987432 120.308438 
L 255.620287 120.906283 
L 255.936715 120.52896 
L 256.569569 118.716407 
L 257.044211 116.835872 
L 258.151707 112.583031 
L 259.892057 105.096687 
L 260.84134 97.548243 
L 261.157767 95.238889 
L 261.948836 88.266652 
L 262.107049 87.558842 
L 262.739904 88.668355 
L 262.898118 89.479219 
L 263.372759 94.198784 
L 263.689187 100.125888 
L 264.796683 144.272895 
L 265.429537 154.238204 
L 266.220606 162.476847 
L 267.169888 168.786675 
L 268.119171 173.013369 
L 269.068453 176.235162 
L 270.808804 180.894394 
L 271.125231 181.358798 
L 271.599872 182.052965 
L 272.074514 182.596584 
L 272.390941 183.028058 
L 272.865582 183.604343 
L 274.764147 185.242134 
L 274.92236 185.284222 
L 275.238788 185.537846 
L 275.713429 185.860116 
L 276.18807 186.254752 
L 279.826986 189.241415 
L 280.301627 189.451608 
L 281.409123 190.15135 
L 281.883764 190.323524 
L 282.041978 190.467131 
L 286.313748 190.274227 
L 287.26303 190.360181 
L 289.003381 190.218437 
L 289.952663 189.907862 
L 290.427305 189.866874 
L 291.534801 189.502998 
L 292.484083 188.873757 
L 292.958724 188.549208 
L 293.749793 188.233759 
L 294.857289 187.84294 
L 295.490144 187.832788 
L 295.964785 187.851249 
L 296.281212 187.806572 
L 298.33799 188.137374 
L 298.970845 187.865172 
L 299.287273 188.033473 
L 299.6037 188.098879 
L 299.920128 188.182768 
L 300.86941 188.163999 
L 301.344051 188.119199 
L 301.976906 188.284375 
L 302.451547 188.234297 
L 303.87547 188.448616 
L 304.191898 188.686967 
L 305.14118 188.649321 
L 305.615821 188.544609 
L 307.356172 188.218473 
L 307.6726 188.040734 
L 307.989027 187.953669 
L 308.305455 187.747015 
L 309.096523 187.571726 
L 310.045805 187.546471 
L 310.520447 187.751325 
L 310.995088 187.522089 
L 311.311515 187.395517 
L 312.260797 187.35558 
L 312.735439 187.148405 
L 313.526507 187.47976 
L 314.317576 187.870548 
L 314.950431 188.059515 
L 315.425072 187.927779 
L 316.374354 187.999836 
L 317.165423 187.643239 
L 317.798278 187.478935 
L 318.431132 186.965131 
L 318.74756 186.837454 
L 320.171483 186.864727 
L 320.487911 186.942853 
L 321.75362 186.727054 
L 322.070048 186.774573 
L 322.861116 186.752944 
L 323.335758 186.843665 
L 324.28504 186.768317 
L 325.076108 187.247393 
L 326.183604 187.707766 
L 326.658246 187.759824 
L 329.664306 187.137026 
L 329.980734 187.204747 
L 330.297161 187.211125 
L 331.562871 187.358936 
L 332.037512 187.195847 
L 332.670367 187.211182 
L 332.986794 187.162314 
L 333.303222 187.134699 
L 333.619649 187.083327 
L 334.410718 187.22669 
L 334.885359 187.37855 
L 335.36 187.19831 
L 335.676427 187.104956 
L 335.992855 187.117045 
L 336.467496 186.846497 
L 336.942137 186.65604 
L 337.416778 186.455917 
L 337.733206 186.489008 
L 338.682488 186.683695 
L 339.315343 186.846025 
L 339.63177 186.833132 
L 340.264625 186.602002 
L 340.422839 186.685535 
L 341.055694 186.48805 
L 341.530335 186.573911 
L 342.004976 186.711175 
L 342.479617 186.49123 
L 342.954258 186.320315 
L 343.112472 186.356697 
L 343.587113 186.195731 
L 345.16925 186.486066 
L 345.485678 186.402094 
L 345.802105 186.47511 
L 346.276746 186.426077 
L 346.751388 186.435519 
L 347.226029 186.460896 
L 347.542456 186.519552 
L 347.858884 186.505221 
L 348.333525 186.630123 
L 348.649952 186.550525 
L 349.124593 186.612213 
L 349.757448 186.584941 
L 350.232089 186.470251 
L 350.548517 186.53416 
L 350.864944 186.543764 
L 351.181372 186.661117 
L 352.288868 186.673328 
L 352.763509 186.737021 
L 353.079936 186.634979 
L 353.396364 186.643838 
L 354.029219 186.53274 
L 355.453142 186.868865 
L 355.927783 186.811538 
L 357.193493 186.707116 
L 357.50992 186.81687 
L 358.300989 186.766839 
L 360.674195 186.674175 
L 361.623477 186.735779 
L 364.471324 186.623911 
L 365.262392 186.584976 
L 365.895247 186.438321 
L 366.84453 186.067127 
L 368.268453 185.788004 
L 369.059522 185.531682 
L 369.375949 185.709964 
L 369.692376 185.749136 
L 369.85059 185.852079 
L 370.958086 185.663142 
L 371.432727 185.619742 
L 371.749155 185.615536 
L 372.223796 185.591369 
L 373.014864 185.791408 
L 373.489506 185.774465 
L 373.964147 185.910474 
L 374.755215 186.108225 
L 375.071643 186.333537 
L 375.704498 186.349926 
L 376.811994 186.347241 
L 377.444848 186.398909 
L 378.077703 186.576958 
L 378.394131 186.603206 
L 378.868772 186.795392 
L 379.659841 186.827779 
L 380.292695 186.784069 
L 380.767337 186.870512 
L 381.400191 186.857318 
L 381.716619 186.810655 
L 382.19126 186.646855 
L 382.824115 186.587655 
L 383.615183 186.276435 
L 383.931611 186.194994 
L 384.089825 186.282192 
L 385.513748 185.957431 
L 385.988389 185.948198 
L 386.779458 185.656659 
L 387.412313 185.787895 
L 387.886954 185.848555 
L 388.519809 185.660927 
L 390.418373 185.570739 
L 391.209442 185.573985 
L 392.791579 185.69777 
L 393.424434 185.568786 
L 395.006571 185.758533 
L 395.79764 185.496703 
L 396.114067 185.493073 
L 396.905136 185.732892 
L 398.487273 185.451876 
L 398.487273 185.451876 
" style="fill:none;stroke:#000000;stroke-linecap:square;stroke-width:1.5;"/>
   </g>
   <g id="patch_3">
    <path d="M 57.6 307.584 
L 57.6 41.472 
" style="fill:none;stroke:#000000;stroke-linecap:square;stroke-linejoin:miter;stroke-width:0.8;"/>
   </g>
   <g id="patch_4">
    <path d="M 414.72 307.584 
L 414.72 41.472 
" style="fill:none;stroke:#000000;stroke-linecap:square;stroke-linejoin:miter;stroke-width:0.8;"/>
   </g>
   <g id="patch_5">
    <path d="M 57.6 307.584 
L 414.72 307.584 
" style="fill:none;stroke:#000000;stroke-linecap:square;stroke-linejoin:miter;stroke-width:0.8;"/>
   </g>
   <g id="patch_6">
    <path d="M 57.6 41.472 
L 414.72 41.472 
" style="fill:none;stroke:#000000;stroke-linecap:square;stroke-linejoin:miter;stroke-width:0.8;"/>
   </g>
  </g>
 </g>
 <defs>
  <clipPath id="p07818dd10a">
   <rect height="266.112" width="357.12" x="57.6" y="41.472"/>
  </clipPath>
 </defs>
</svg>
