<?xml version="1.0" encoding="utf-8" standalone="no"?>
<!DOCTYPE svg PUBLIC "-//W3C//DTD SVG 1.1//EN"
  "http://www.w3.org/Graphics/SVG/1.1/DTD/svg11.dtd">
<svg height="345.6pt" version="1.1" viewBox="0 0 460.8 345.6" width="460.8pt" xmlns="http://www.w3.org/2000/svg" xmlns:xlink="http://www.w3.org/1999/xlink">
 <metadata>
  <rdf:RDF xmlns:cc="http://creativecommons.org/ns#" xmlns:dc="http://purl.org/dc/elements/1.1/" xmlns:rdf="http://www.w3.org/1999/02/22-rdf-syntax-ns#">
   <cc:Work>
    <dc:type rdf:resource="http://purl.org/dc/dcmitype/StillImage"/>
    <dc:date>2024-08-06T14:41:06.882116</dc:date>
    <dc:format>image/svg+xml</dc:format>
    <dc:creator>
     <cc:Agent>
      <dc:title>Matplotlib v3.4.2, https://matplotlib.org/</dc:title>
     </cc:Agent>
    </dc:creator>
   </cc:Work>
  </rdf:RDF>
 </metadata>
 <defs>
  <style type="text/css">*{stroke-linecap:butt;stroke-linejoin:round;}</style>
 </defs>
 <g id="figure_1">
  <g id="patch_1">
   <path d="M 0 345.6 
L 460.8 345.6 
L 460.8 0 
L 0 0 
z
" style="fill:#ffffff;"/>
  </g>
  <g id="axes_1">
   <g id="patch_2">
    <path d="M 57.6 307.584 
L 414.72 307.584 
L 414.72 41.472 
L 57.6 41.472 
z
" style="fill:#ffffff;"/>
   </g>
   <g id="matplotlib.axis_1">
    <g id="xtick_1">
     <g id="line2d_1">
      <defs>
       <path d="M 0 0 
L 0 3.5 
" id="madeb201b61" style="stroke:#000000;stroke-width:0.8;"/>
      </defs>
      <g>
       <use style="stroke:#000000;stroke-width:0.8;" x="95.211629" xlink:href="#madeb201b61" y="307.584"/>
      </g>
     </g>
     <g id="text_1">
      <!-- 0.2 -->
      <g transform="translate(87.260067 322.182437)scale(0.1 -0.1)">
       <defs>
        <path d="M 2034 4250 
Q 1547 4250 1301 3770 
Q 1056 3291 1056 2328 
Q 1056 1369 1301 889 
Q 1547 409 2034 409 
Q 2525 409 2770 889 
Q 3016 1369 3016 2328 
Q 3016 3291 2770 3770 
Q 2525 4250 2034 4250 
z
M 2034 4750 
Q 2819 4750 3233 4129 
Q 3647 3509 3647 2328 
Q 3647 1150 3233 529 
Q 2819 -91 2034 -91 
Q 1250 -91 836 529 
Q 422 1150 422 2328 
Q 422 3509 836 4129 
Q 1250 4750 2034 4750 
z
" id="DejaVuSans-30" transform="scale(0.015625)"/>
        <path d="M 684 794 
L 1344 794 
L 1344 0 
L 684 0 
L 684 794 
z
" id="DejaVuSans-2e" transform="scale(0.015625)"/>
        <path d="M 1228 531 
L 3431 531 
L 3431 0 
L 469 0 
L 469 531 
Q 828 903 1448 1529 
Q 2069 2156 2228 2338 
Q 2531 2678 2651 2914 
Q 2772 3150 2772 3378 
Q 2772 3750 2511 3984 
Q 2250 4219 1831 4219 
Q 1534 4219 1204 4116 
Q 875 4013 500 3803 
L 500 4441 
Q 881 4594 1212 4672 
Q 1544 4750 1819 4750 
Q 2544 4750 2975 4387 
Q 3406 4025 3406 3419 
Q 3406 3131 3298 2873 
Q 3191 2616 2906 2266 
Q 2828 2175 2409 1742 
Q 1991 1309 1228 531 
z
" id="DejaVuSans-32" transform="scale(0.015625)"/>
       </defs>
       <use xlink:href="#DejaVuSans-30"/>
       <use x="63.623047" xlink:href="#DejaVuSans-2e"/>
       <use x="95.410156" xlink:href="#DejaVuSans-32"/>
      </g>
     </g>
    </g>
    <g id="xtick_2">
     <g id="line2d_2">
      <g>
       <use style="stroke:#000000;stroke-width:0.8;" x="139.20545" xlink:href="#madeb201b61" y="307.584"/>
      </g>
     </g>
     <g id="text_2">
      <!-- 0.4 -->
      <g transform="translate(131.253887 322.182437)scale(0.1 -0.1)">
       <defs>
        <path d="M 2419 4116 
L 825 1625 
L 2419 1625 
L 2419 4116 
z
M 2253 4666 
L 3047 4666 
L 3047 1625 
L 3713 1625 
L 3713 1100 
L 3047 1100 
L 3047 0 
L 2419 0 
L 2419 1100 
L 313 1100 
L 313 1709 
L 2253 4666 
z
" id="DejaVuSans-34" transform="scale(0.015625)"/>
       </defs>
       <use xlink:href="#DejaVuSans-30"/>
       <use x="63.623047" xlink:href="#DejaVuSans-2e"/>
       <use x="95.410156" xlink:href="#DejaVuSans-34"/>
      </g>
     </g>
    </g>
    <g id="xtick_3">
     <g id="line2d_3">
      <g>
       <use style="stroke:#000000;stroke-width:0.8;" x="183.19927" xlink:href="#madeb201b61" y="307.584"/>
      </g>
     </g>
     <g id="text_3">
      <!-- 0.6 -->
      <g transform="translate(175.247707 322.182437)scale(0.1 -0.1)">
       <defs>
        <path d="M 2113 2584 
Q 1688 2584 1439 2293 
Q 1191 2003 1191 1497 
Q 1191 994 1439 701 
Q 1688 409 2113 409 
Q 2538 409 2786 701 
Q 3034 994 3034 1497 
Q 3034 2003 2786 2293 
Q 2538 2584 2113 2584 
z
M 3366 4563 
L 3366 3988 
Q 3128 4100 2886 4159 
Q 2644 4219 2406 4219 
Q 1781 4219 1451 3797 
Q 1122 3375 1075 2522 
Q 1259 2794 1537 2939 
Q 1816 3084 2150 3084 
Q 2853 3084 3261 2657 
Q 3669 2231 3669 1497 
Q 3669 778 3244 343 
Q 2819 -91 2113 -91 
Q 1303 -91 875 529 
Q 447 1150 447 2328 
Q 447 3434 972 4092 
Q 1497 4750 2381 4750 
Q 2619 4750 2861 4703 
Q 3103 4656 3366 4563 
z
" id="DejaVuSans-36" transform="scale(0.015625)"/>
       </defs>
       <use xlink:href="#DejaVuSans-30"/>
       <use x="63.623047" xlink:href="#DejaVuSans-2e"/>
       <use x="95.410156" xlink:href="#DejaVuSans-36"/>
      </g>
     </g>
    </g>
    <g id="xtick_4">
     <g id="line2d_4">
      <g>
       <use style="stroke:#000000;stroke-width:0.8;" x="227.19309" xlink:href="#madeb201b61" y="307.584"/>
      </g>
     </g>
     <g id="text_4">
      <!-- 0.8 -->
      <g transform="translate(219.241528 322.182437)scale(0.1 -0.1)">
       <defs>
        <path d="M 2034 2216 
Q 1584 2216 1326 1975 
Q 1069 1734 1069 1313 
Q 1069 891 1326 650 
Q 1584 409 2034 409 
Q 2484 409 2743 651 
Q 3003 894 3003 1313 
Q 3003 1734 2745 1975 
Q 2488 2216 2034 2216 
z
M 1403 2484 
Q 997 2584 770 2862 
Q 544 3141 544 3541 
Q 544 4100 942 4425 
Q 1341 4750 2034 4750 
Q 2731 4750 3128 4425 
Q 3525 4100 3525 3541 
Q 3525 3141 3298 2862 
Q 3072 2584 2669 2484 
Q 3125 2378 3379 2068 
Q 3634 1759 3634 1313 
Q 3634 634 3220 271 
Q 2806 -91 2034 -91 
Q 1263 -91 848 271 
Q 434 634 434 1313 
Q 434 1759 690 2068 
Q 947 2378 1403 2484 
z
M 1172 3481 
Q 1172 3119 1398 2916 
Q 1625 2713 2034 2713 
Q 2441 2713 2670 2916 
Q 2900 3119 2900 3481 
Q 2900 3844 2670 4047 
Q 2441 4250 2034 4250 
Q 1625 4250 1398 4047 
Q 1172 3844 1172 3481 
z
" id="DejaVuSans-38" transform="scale(0.015625)"/>
       </defs>
       <use xlink:href="#DejaVuSans-30"/>
       <use x="63.623047" xlink:href="#DejaVuSans-2e"/>
       <use x="95.410156" xlink:href="#DejaVuSans-38"/>
      </g>
     </g>
    </g>
    <g id="xtick_5">
     <g id="line2d_5">
      <g>
       <use style="stroke:#000000;stroke-width:0.8;" x="271.18691" xlink:href="#madeb201b61" y="307.584"/>
      </g>
     </g>
     <g id="text_5">
      <!-- 1.0 -->
      <g transform="translate(263.235348 322.182437)scale(0.1 -0.1)">
       <defs>
        <path d="M 794 531 
L 1825 531 
L 1825 4091 
L 703 3866 
L 703 4441 
L 1819 4666 
L 2450 4666 
L 2450 531 
L 3481 531 
L 3481 0 
L 794 0 
L 794 531 
z
" id="DejaVuSans-31" transform="scale(0.015625)"/>
       </defs>
       <use xlink:href="#DejaVuSans-31"/>
       <use x="63.623047" xlink:href="#DejaVuSans-2e"/>
       <use x="95.410156" xlink:href="#DejaVuSans-30"/>
      </g>
     </g>
    </g>
    <g id="xtick_6">
     <g id="line2d_6">
      <g>
       <use style="stroke:#000000;stroke-width:0.8;" x="315.18073" xlink:href="#madeb201b61" y="307.584"/>
      </g>
     </g>
     <g id="text_6">
      <!-- 1.2 -->
      <g transform="translate(307.229168 322.182437)scale(0.1 -0.1)">
       <use xlink:href="#DejaVuSans-31"/>
       <use x="63.623047" xlink:href="#DejaVuSans-2e"/>
       <use x="95.410156" xlink:href="#DejaVuSans-32"/>
      </g>
     </g>
    </g>
    <g id="xtick_7">
     <g id="line2d_7">
      <g>
       <use style="stroke:#000000;stroke-width:0.8;" x="359.174551" xlink:href="#madeb201b61" y="307.584"/>
      </g>
     </g>
     <g id="text_7">
      <!-- 1.4 -->
      <g transform="translate(351.222988 322.182437)scale(0.1 -0.1)">
       <use xlink:href="#DejaVuSans-31"/>
       <use x="63.623047" xlink:href="#DejaVuSans-2e"/>
       <use x="95.410156" xlink:href="#DejaVuSans-34"/>
      </g>
     </g>
    </g>
    <g id="xtick_8">
     <g id="line2d_8">
      <g>
       <use style="stroke:#000000;stroke-width:0.8;" x="403.168371" xlink:href="#madeb201b61" y="307.584"/>
      </g>
     </g>
     <g id="text_8">
      <!-- 1.6 -->
      <g transform="translate(395.216808 322.182437)scale(0.1 -0.1)">
       <use xlink:href="#DejaVuSans-31"/>
       <use x="63.623047" xlink:href="#DejaVuSans-2e"/>
       <use x="95.410156" xlink:href="#DejaVuSans-36"/>
      </g>
     </g>
    </g>
   </g>
   <g id="matplotlib.axis_2">
    <g id="ytick_1">
     <g id="line2d_9">
      <defs>
       <path d="M 0 0 
L -3.5 0 
" id="m91e73a74f1" style="stroke:#000000;stroke-width:0.8;"/>
      </defs>
      <g>
       <use style="stroke:#000000;stroke-width:0.8;" x="57.6" xlink:href="#m91e73a74f1" y="297.176213"/>
      </g>
     </g>
     <g id="text_9">
      <!-- −100 -->
      <g transform="translate(23.132812 300.975432)scale(0.1 -0.1)">
       <defs>
        <path d="M 678 2272 
L 4684 2272 
L 4684 1741 
L 678 1741 
L 678 2272 
z
" id="DejaVuSans-2212" transform="scale(0.015625)"/>
       </defs>
       <use xlink:href="#DejaVuSans-2212"/>
       <use x="83.789062" xlink:href="#DejaVuSans-31"/>
       <use x="147.412109" xlink:href="#DejaVuSans-30"/>
       <use x="211.035156" xlink:href="#DejaVuSans-30"/>
      </g>
     </g>
    </g>
    <g id="ytick_2">
     <g id="line2d_10">
      <g>
       <use style="stroke:#000000;stroke-width:0.8;" x="57.6" xlink:href="#m91e73a74f1" y="249.314862"/>
      </g>
     </g>
     <g id="text_10">
      <!-- −80 -->
      <g transform="translate(29.495313 253.11408)scale(0.1 -0.1)">
       <use xlink:href="#DejaVuSans-2212"/>
       <use x="83.789062" xlink:href="#DejaVuSans-38"/>
       <use x="147.412109" xlink:href="#DejaVuSans-30"/>
      </g>
     </g>
    </g>
    <g id="ytick_3">
     <g id="line2d_11">
      <g>
       <use style="stroke:#000000;stroke-width:0.8;" x="57.6" xlink:href="#m91e73a74f1" y="201.45351"/>
      </g>
     </g>
     <g id="text_11">
      <!-- −60 -->
      <g transform="translate(29.495313 205.252729)scale(0.1 -0.1)">
       <use xlink:href="#DejaVuSans-2212"/>
       <use x="83.789062" xlink:href="#DejaVuSans-36"/>
       <use x="147.412109" xlink:href="#DejaVuSans-30"/>
      </g>
     </g>
    </g>
    <g id="ytick_4">
     <g id="line2d_12">
      <g>
       <use style="stroke:#000000;stroke-width:0.8;" x="57.6" xlink:href="#m91e73a74f1" y="153.592159"/>
      </g>
     </g>
     <g id="text_12">
      <!-- −40 -->
      <g transform="translate(29.495313 157.391377)scale(0.1 -0.1)">
       <use xlink:href="#DejaVuSans-2212"/>
       <use x="83.789062" xlink:href="#DejaVuSans-34"/>
       <use x="147.412109" xlink:href="#DejaVuSans-30"/>
      </g>
     </g>
    </g>
    <g id="ytick_5">
     <g id="line2d_13">
      <g>
       <use style="stroke:#000000;stroke-width:0.8;" x="57.6" xlink:href="#m91e73a74f1" y="105.730807"/>
      </g>
     </g>
     <g id="text_13">
      <!-- −20 -->
      <g transform="translate(29.495313 109.530026)scale(0.1 -0.1)">
       <use xlink:href="#DejaVuSans-2212"/>
       <use x="83.789062" xlink:href="#DejaVuSans-32"/>
       <use x="147.412109" xlink:href="#DejaVuSans-30"/>
      </g>
     </g>
    </g>
    <g id="ytick_6">
     <g id="line2d_14">
      <g>
       <use style="stroke:#000000;stroke-width:0.8;" x="57.6" xlink:href="#m91e73a74f1" y="57.869456"/>
      </g>
     </g>
     <g id="text_14">
      <!-- 0 -->
      <g transform="translate(44.2375 61.668675)scale(0.1 -0.1)">
       <use xlink:href="#DejaVuSans-30"/>
      </g>
     </g>
    </g>
   </g>
   <g id="line2d_15">
    <path clip-path="url(#p1a2ba5ed95)" d="M 73.832727 155.357565 
L 74.050178 155.119857 
L 74.26763 154.308757 
L 74.485081 154.386901 
L 74.702532 152.604508 
L 74.919983 152.631318 
L 75.137434 151.324545 
L 75.572336 150.619479 
L 75.789787 146.096098 
L 76.007239 146.38963 
L 76.442141 62.966409 
L 77.311945 171.353621 
L 77.746848 177.586435 
L 77.964299 178.578999 
L 78.399201 179.413236 
L 78.616652 179.024667 
L 78.834103 179.366416 
L 79.051555 179.368489 
L 80.573712 200.454465 
L 81.443517 209.391861 
L 82.530773 218.734844 
L 83.83548 227.729078 
L 85.575089 237.602749 
L 86.879795 244.011754 
L 88.619404 251.313546 
L 89.489209 254.65594 
L 90.359014 257.676111 
L 94.925487 271.078621 
L 96.012743 273.667361 
L 96.447645 274.761238 
L 97.752352 277.065672 
L 100.796668 282.085665 
L 101.666473 283.036494 
L 101.883924 283.082213 
L 102.318826 283.664509 
L 102.971179 284.591412 
L 103.406082 285.078609 
L 104.058435 285.981346 
L 104.710789 286.676461 
L 105.145691 286.789509 
L 106.232946 287.538008 
L 107.102751 287.967757 
L 107.537653 288.229953 
L 108.190007 288.370705 
L 108.407458 288.524278 
L 108.84236 288.592278 
L 109.277262 288.95521 
L 109.712165 289.195125 
L 110.581969 289.911793 
L 111.886676 290.251578 
L 112.321578 290.511665 
L 112.539029 290.465231 
L 114.49609 291.71072 
L 114.930992 291.903057 
L 116.235699 292.576676 
L 117.322954 292.982606 
L 117.540406 292.978221 
L 117.975308 293.201939 
L 118.41021 293.455708 
L 118.845112 293.737151 
L 119.280015 293.844231 
L 119.714917 293.862813 
L 120.149819 294.187401 
L 120.584721 294.286235 
L 120.802173 294.422224 
L 121.237075 294.451796 
L 121.671977 294.487248 
L 122.324331 294.390381 
L 122.541782 294.40039 
L 122.976684 294.655748 
L 123.411586 294.552295 
L 123.846488 294.699358 
L 124.281391 294.664424 
L 126.021 295.0253 
L 126.673353 294.982551 
L 126.890804 294.847918 
L 127.543158 294.899709 
L 127.97806 294.925533 
L 129.717669 295.488 
L 131.89218 295.067116 
L 132.761985 294.46389 
L 133.414338 294.187879 
L 134.284143 293.559768 
L 134.936496 293.153808 
L 135.371399 293.114056 
L 137.111008 293.412588 
L 137.54591 293.25265 
L 137.980812 292.844889 
L 138.850617 292.825328 
L 139.068068 292.686144 
L 139.285519 292.687491 
L 139.937872 293.024554 
L 140.590226 292.707203 
L 141.242579 292.634694 
L 142.112384 292.746956 
L 142.982188 293.124616 
L 143.851993 293.033833 
L 144.069444 293.115779 
L 145.1567 292.90153 
L 145.591602 292.818699 
L 145.809053 292.655621 
L 146.243955 292.712495 
L 147.766113 291.865576 
L 148.201016 291.89727 
L 148.635918 291.885577 
L 148.853369 291.849214 
L 149.723174 291.138293 
L 149.940625 290.933574 
L 150.592978 291.017958 
L 151.02788 291.103658 
L 151.680234 290.830534 
L 151.897685 290.820751 
L 152.332587 290.528908 
L 152.984941 290.813354 
L 153.637294 290.844148 
L 155.376903 290.497172 
L 155.594354 290.61308 
L 156.029257 290.574502 
L 157.333963 290.831737 
L 157.768866 291.063076 
L 159.291024 290.598388 
L 160.378279 290.053116 
L 160.813182 290.132244 
L 161.682986 289.6638 
L 162.117888 289.622606 
L 162.987693 289.85237 
L 163.422595 289.687081 
L 163.857497 289.688067 
L 164.2924 289.793818 
L 164.727302 289.922941 
L 165.379655 290.366664 
L 166.24946 290.732673 
L 166.684362 290.857931 
L 167.119264 290.897503 
L 167.336716 290.989262 
L 167.554167 290.933826 
L 167.989069 290.496541 
L 168.423971 290.315768 
L 169.511227 290.459489 
L 169.946129 290.262139 
L 172.555543 291.153597 
L 173.642799 290.894254 
L 174.295152 290.869747 
L 174.730054 290.927805 
L 175.81731 290.520589 
L 176.252212 290.68677 
L 176.469663 290.575053 
L 177.339468 289.601888 
L 177.991821 289.506139 
L 178.426723 289.448373 
L 179.079077 289.464045 
L 179.948881 289.939829 
L 180.383784 289.993204 
L 181.471039 289.72831 
L 181.905942 289.811487 
L 183.210648 290.297944 
L 183.4281 290.304521 
L 183.645551 290.162818 
L 185.602611 290.262674 
L 186.037513 290.073111 
L 186.472416 289.812995 
L 186.907318 289.77776 
L 187.124769 289.43239 
L 187.34222 289.372441 
L 187.559671 289.475749 
L 187.777122 289.411323 
L 188.212025 289.52863 
L 188.646927 289.343617 
L 189.081829 289.477369 
L 190.169085 289.115396 
L 190.386536 289.07043 
L 190.821438 289.231983 
L 191.473792 289.154261 
L 192.343596 289.297402 
L 192.778498 289.386123 
L 193.213401 289.470375 
L 193.648303 289.431453 
L 194.083205 289.622949 
L 194.518108 289.404703 
L 195.170461 288.977159 
L 196.257717 288.887121 
L 196.91007 289.092778 
L 197.127521 288.971621 
L 198.214777 288.995057 
L 199.084581 288.745639 
L 199.519484 288.277651 
L 200.82419 288.482357 
L 201.259093 288.740577 
L 201.693995 289.003361 
L 202.128897 288.896169 
L 202.781251 289.189516 
L 204.085957 289.500982 
L 204.52086 289.257829 
L 205.390664 289.195323 
L 205.825567 289.475849 
L 207.565176 289.611981 
L 208.43498 289.530752 
L 208.869882 289.608026 
L 209.304785 289.714733 
L 209.739687 289.655181 
L 211.914198 289.903317 
L 212.349101 290.069119 
L 213.218905 290.145094 
L 213.871259 290.0245 
L 214.306161 289.639882 
L 214.741063 288.931699 
L 215.175965 288.527788 
L 217.785379 288.031583 
L 218.220281 288.116369 
L 219.95989 288.274862 
L 221.482048 288.613969 
L 222.351853 289.183336 
L 222.786755 289.156769 
L 224.091462 289.559619 
L 224.526364 289.703985 
L 224.961267 289.785689 
L 225.396169 289.993711 
L 226.048522 289.877156 
L 226.265973 289.684008 
L 227.353229 289.601337 
L 228.005582 289.720403 
L 228.657936 289.833738 
L 229.310289 289.978715 
L 229.745191 289.785478 
L 231.919703 290.061694 
L 232.354605 290.338995 
L 233.659312 290.590102 
L 234.094214 290.673497 
L 234.964019 290.802237 
L 235.398921 291.024734 
L 235.833823 291.018522 
L 236.268726 291.129616 
L 236.703628 291.114255 
L 236.921079 291.243041 
L 237.355981 291.322446 
L 237.573432 291.403901 
L 238.008335 291.181941 
L 238.878139 291.080511 
L 239.530493 290.831801 
L 239.965395 290.735513 
L 240.617748 290.587623 
L 241.705004 290.795961 
L 242.79226 290.823165 
L 243.009711 290.427052 
L 243.662064 287.205897 
L 244.314418 286.090222 
L 244.74932 285.8769 
L 245.184222 285.861823 
L 245.836576 286.109502 
L 246.271478 286.30038 
L 246.923831 286.419434 
L 247.141282 286.576973 
L 248.011087 286.634823 
L 248.445989 286.763176 
L 248.66344 286.766777 
L 249.098343 286.981837 
L 249.533245 286.879685 
L 250.185598 287.209769 
L 250.403049 287.22873 
L 250.837952 287.019334 
L 251.272854 287.164118 
L 251.707756 287.092903 
L 252.36011 287.173315 
L 252.795012 287.267704 
L 253.229914 287.337582 
L 253.882268 287.393032 
L 254.31717 287.243633 
L 255.186974 287.435202 
L 255.621877 287.777865 
L 256.27423 287.807202 
L 256.709132 287.642402 
L 257.796388 288.036796 
L 259.101095 288.019446 
L 259.535997 288.218137 
L 260.405802 288.281022 
L 260.840704 288.491578 
L 261.493057 288.387634 
L 261.92796 288.359854 
L 262.580313 288.612396 
L 263.015215 288.792323 
L 263.450118 288.749235 
L 263.667569 288.836637 
L 264.102471 288.656725 
L 266.059531 289.026623 
L 266.711885 288.890801 
L 266.929336 288.650802 
L 267.581689 288.535293 
L 270.408554 288.284422 
L 270.843456 288.328812 
L 271.278358 288.198505 
L 272.583065 287.72541 
L 274.322674 288.25798 
L 274.540125 288.196955 
L 275.627381 288.458186 
L 276.279735 288.27051 
L 276.497186 288.312376 
L 276.714637 288.194444 
L 277.149539 288.228743 
L 277.36699 288.210188 
L 278.236795 288.616413 
L 278.671697 288.653981 
L 279.541502 289.035084 
L 280.411306 289.02728 
L 280.628757 289.006582 
L 280.846208 289.145066 
L 283.02072 288.908424 
L 283.455622 289.049614 
L 283.890524 288.846852 
L 284.325427 288.667663 
L 284.760329 288.817142 
L 285.195231 288.802552 
L 286.065036 289.278625 
L 286.499938 289.25946 
L 288.239547 289.589028 
L 288.674449 289.556908 
L 289.109352 289.638311 
L 289.544254 289.652763 
L 290.631509 289.68431 
L 291.936216 289.79817 
L 293.675825 290.142659 
L 294.110728 290.146008 
L 295.197983 289.818998 
L 296.067788 289.801454 
L 296.285239 289.992776 
L 296.50269 289.589026 
L 297.807397 271.6296 
L 299.547006 254.213604 
L 300.634262 245.635981 
L 301.721517 238.567868 
L 302.591322 233.640306 
L 307.592698 209.182651 
L 307.810149 207.056505 
L 308.0276 206.870665 
L 308.245051 204.749267 
L 308.679954 202.978783 
L 308.897405 199.998243 
L 309.114856 200.535094 
L 309.332307 195.92867 
L 309.549758 196.614011 
L 309.984661 190.343554 
L 310.202112 190.158768 
L 310.419563 179.380486 
L 310.637014 188.821951 
L 311.071916 75.617525 
L 311.506818 172.124352 
L 311.941721 181.738579 
L 312.159172 176.616687 
L 312.376623 175.164789 
L 313.028976 159.976693 
L 313.246428 159.25109 
L 313.68133 70.834533 
L 314.116232 156.59516 
L 314.551134 176.680394 
L 314.768586 174.528483 
L 314.986037 177.123747 
L 315.420939 172.033425 
L 315.63839 170.914456 
L 315.855841 167.062627 
L 316.073292 167.723318 
L 316.290743 162.360627 
L 316.508195 161.973794 
L 316.943097 152.911591 
L 317.160548 150.885415 
L 317.377999 96.294515 
L 317.59545 69.900561 
L 318.030353 153.218122 
L 318.465255 175.738242 
L 318.682706 176.72188 
L 318.900157 179.4312 
L 319.117608 178.750049 
L 319.335059 179.101735 
L 319.552511 178.182897 
L 319.769962 177.828941 
L 319.987413 177.874608 
L 320.204864 177.028956 
L 320.422315 176.90061 
L 320.639766 175.913106 
L 320.857217 175.62117 
L 321.074668 174.269281 
L 321.29212 173.960532 
L 321.944473 171.345812 
L 322.161924 169.048272 
L 322.379375 169.187981 
L 322.596826 166.503331 
L 322.814278 166.629147 
L 323.24918 162.572553 
L 323.466631 162.670725 
L 323.684082 156.515456 
L 323.901533 161.174538 
L 324.336435 66.647102 
L 324.771338 156.386578 
L 325.20624 181.24945 
L 325.423691 181.39103 
L 325.641142 184.162081 
L 326.076045 182.938899 
L 326.293496 182.876945 
L 326.510947 181.404269 
L 326.728398 181.559999 
L 326.945849 179.942467 
L 327.1633 179.472832 
L 327.598203 177.736349 
L 327.815654 177.264526 
L 328.033105 176.268017 
L 328.250556 175.982178 
L 329.12036 172.948946 
L 329.772714 170.9011 
L 329.990165 169.47032 
L 330.207616 169.201214 
L 330.425067 167.419791 
L 330.642518 166.774309 
L 330.85997 165.751339 
L 331.077421 163.599996 
L 331.294872 163.499604 
L 331.512323 161.202657 
L 331.729774 162.501963 
L 331.947225 159.881545 
L 332.164676 160.064889 
L 332.382128 158.519498 
L 332.599579 153.663632 
L 332.81703 156.532119 
L 333.251932 66.291663 
L 333.686834 159.49604 
L 334.121737 181.868784 
L 334.339188 182.469479 
L 334.556639 185.799711 
L 334.77409 184.919752 
L 334.991541 185.213842 
L 335.208992 184.967577 
L 335.426443 184.233532 
L 335.643895 184.597429 
L 335.861346 183.294323 
L 336.078797 183.446764 
L 336.513699 182.050137 
L 336.73115 181.738553 
L 336.948601 181.029608 
L 337.166052 180.864875 
L 337.600955 179.520908 
L 338.035857 178.734881 
L 338.253308 178.357541 
L 338.68821 177.013748 
L 339.558015 174.087723 
L 339.775466 173.827404 
L 339.992917 172.63508 
L 340.210368 172.396865 
L 340.42782 171.742847 
L 340.645271 170.427091 
L 340.862722 170.108138 
L 341.080173 168.01127 
L 341.297624 168.379035 
L 341.515075 166.608175 
L 341.732526 166.550353 
L 341.949977 165.863319 
L 342.167429 163.169759 
L 342.38488 165.141696 
L 342.602331 157.52238 
L 342.819782 162.762572 
L 343.037233 130.685655 
L 343.254684 67.97426 
L 343.472135 99.386263 
L 343.689587 153.895291 
L 344.124489 181.082335 
L 344.34194 182.305335 
L 344.559391 184.356153 
L 344.776842 185.193496 
L 344.994293 184.127973 
L 345.211745 184.798837 
L 345.429196 183.067045 
L 345.646647 183.314028 
L 345.864098 182.249978 
L 346.299 181.684243 
L 346.516451 180.742604 
L 346.733902 180.634129 
L 347.168805 179.329986 
L 347.603707 178.225006 
L 347.821158 177.794522 
L 348.038609 177.058345 
L 348.25606 176.868651 
L 349.343316 175.067212 
L 349.995669 174.219188 
L 350.430572 173.424649 
L 350.865474 172.614314 
L 351.300376 172.166447 
L 351.735279 171.410884 
L 352.387632 170.567555 
L 353.039985 169.102774 
L 353.474888 168.571395 
L 353.692339 167.987578 
L 353.90979 167.937783 
L 354.562143 166.75168 
L 355.214497 164.721213 
L 355.431948 164.800846 
L 355.649399 163.879475 
L 356.084301 163.066209 
L 356.301752 161.631146 
L 356.519204 162.018157 
L 356.736655 160.091632 
L 356.954106 161.098417 
L 357.171557 158.320676 
L 357.389008 157.730047 
L 357.606459 156.578203 
L 357.82391 151.816597 
L 358.041362 154.489247 
L 358.476264 66.328273 
L 358.911166 159.110711 
L 359.346068 182.500557 
L 359.563519 182.874539 
L 359.780971 186.113243 
L 359.998422 185.36102 
L 360.215873 185.495409 
L 360.433324 185.384758 
L 360.650775 184.657532 
L 360.868226 185.238712 
L 361.085677 184.031529 
L 361.303129 184.136795 
L 361.738031 182.684915 
L 361.955482 182.604642 
L 362.390384 181.54205 
L 362.825286 180.538297 
L 363.042738 180.267005 
L 363.47764 179.414572 
L 364.347444 178.217477 
L 364.564896 178.031922 
L 365.652151 176.37748 
L 365.869602 176.162643 
L 366.521956 175.091841 
L 366.956858 174.704094 
L 368.044114 174.153772 
L 368.479016 173.268207 
L 369.566272 172.108912 
L 370.218625 171.185899 
L 370.653527 170.184702 
L 370.870979 170.048818 
L 371.08843 169.615356 
L 371.523332 169.447447 
L 371.740783 169.096097 
L 371.958234 169.048706 
L 372.175685 168.586735 
L 372.393136 168.577766 
L 372.828039 167.746752 
L 373.04549 167.772771 
L 373.262941 166.293587 
L 373.480392 165.946108 
L 373.697843 165.118717 
L 374.132746 164.310376 
L 374.350197 162.939741 
L 374.567648 163.398534 
L 374.785099 160.775135 
L 375.00255 161.517316 
L 375.220001 159.662881 
L 375.654903 158.389302 
L 375.872355 153.137105 
L 376.089806 157.745707 
L 376.524708 64.9331 
L 376.95961 158.665947 
L 377.394513 183.57599 
L 377.611964 184.217453 
L 377.829415 187.451989 
L 378.046866 187.172642 
L 378.481768 187.022135 
L 378.699219 185.839668 
L 378.916671 186.28908 
L 379.134122 185.288408 
L 379.351573 185.549455 
L 379.786475 184.482435 
L 380.003926 184.449415 
L 380.221377 183.692562 
L 380.438828 183.4318 
L 380.873731 182.550579 
L 381.091182 182.289323 
L 381.526084 181.338672 
L 382.830791 179.284916 
L 383.483144 178.615314 
L 383.700596 178.526089 
L 384.135498 177.846691 
L 384.352949 177.523351 
L 384.787851 177.502193 
L 386.744911 175.340326 
L 386.962363 174.980815 
L 388.049618 174.293199 
L 389.354325 172.489543 
L 390.22413 172.046926 
L 390.659032 171.255373 
L 391.093934 170.531151 
L 391.528836 170.336831 
L 393.050994 169.517284 
L 393.268445 169.61783 
L 393.703348 170.276608 
L 394.790603 170.997411 
L 395.008055 170.894499 
L 395.442957 171.038914 
L 395.877859 171.002746 
L 396.312761 171.021776 
L 397.400017 170.401205 
L 398.487273 169.182555 
L 398.487273 169.182555 
" style="fill:none;stroke:#000000;stroke-linecap:square;stroke-width:1.5;"/>
   </g>
   <g id="line2d_16">
    <path clip-path="url(#p1a2ba5ed95)" d="M 73.832727 181.96838 
L 74.919983 182.126274 
L 75.137434 182.270445 
L 75.572336 182.072223 
L 75.789787 182.064929 
L 76.007239 181.642671 
L 76.22469 182.149369 
L 76.442141 181.974638 
L 76.877043 182.493039 
L 77.094494 182.098371 
L 77.311945 183.001977 
L 77.529397 181.811157 
L 77.746848 182.733787 
L 77.964299 182.075411 
L 78.18175 181.899753 
L 78.399201 183.06878 
L 78.616652 181.05866 
L 78.834103 184.265371 
L 79.269006 177.216396 
L 79.703908 161.275128 
L 79.921359 156.12665 
L 80.13881 83.350832 
L 80.356261 72.737617 
L 80.573712 141.206242 
L 81.008615 166.067653 
L 81.226066 167.087967 
L 81.443517 162.181762 
L 81.660968 162.840181 
L 81.878419 154.071671 
L 82.09587 155.169029 
L 82.313322 144.203151 
L 82.530773 146.280686 
L 82.748224 121.433023 
L 82.965675 59.138133 
L 83.183126 82.328207 
L 83.400577 133.92842 
L 83.83548 158.644269 
L 84.052931 158.612358 
L 84.270382 158.425311 
L 84.705284 153.451492 
L 85.575089 136.963715 
L 85.79254 124.889504 
L 86.009991 69.179259 
L 86.227442 61.216019 
L 86.444893 112.252625 
L 86.879795 149.949027 
L 87.097247 154.642432 
L 87.314698 153.881658 
L 87.532149 155.015862 
L 87.7496 150.918255 
L 87.967051 150.241767 
L 88.401953 142.786491 
L 88.619404 139.574184 
L 88.836856 133.458049 
L 89.054307 131.484015 
L 89.489209 53.568 
L 90.141562 141.579895 
L 90.359014 151.236152 
L 90.793916 152.232374 
L 91.446269 145.295292 
L 91.66372 140.348062 
L 91.881172 138.964766 
L 92.316074 129.444022 
L 92.533525 118.354148 
L 92.750976 72.680626 
L 92.968427 57.37176 
L 93.403329 125.329139 
L 93.620781 139.355723 
L 93.838232 145.921642 
L 94.273134 149.180812 
L 94.708036 146.875334 
L 95.795292 130.576855 
L 96.012743 125.801235 
L 96.230194 115.542545 
L 96.447645 74.651319 
L 96.665097 55.328703 
L 97.31745 137.21306 
L 97.534901 145.931366 
L 97.752352 148.929318 
L 97.969803 150.254099 
L 98.187254 149.812579 
L 98.622157 146.909778 
L 99.057059 142.902438 
L 99.27451 140.644664 
L 99.491961 136.720882 
L 99.709412 134.807511 
L 100.144315 126.962875 
L 100.361766 114.412888 
L 100.579217 70.022986 
L 100.796668 56.571212 
L 101.23157 122.89553 
L 101.666473 144.848964 
L 102.101375 148.067961 
L 102.753728 142.042035 
L 103.623533 130.507828 
L 104.058435 121.023753 
L 104.275886 108.668637 
L 104.493337 72.855899 
L 104.710789 55.997665 
L 105.363142 131.440021 
L 105.580593 140.286489 
L 106.015495 146.041294 
L 106.232946 145.806073 
L 106.450398 145.259854 
L 107.537653 136.534149 
L 108.407458 122.818639 
L 108.624909 106.578378 
L 108.84236 69.395093 
L 109.059811 58.362912 
L 109.712165 131.039296 
L 109.929616 138.578602 
L 110.147067 141.32783 
L 110.364518 142.471459 
L 110.79942 140.609818 
L 111.451774 135.543544 
L 112.539029 121.666165 
L 112.756481 117.091426 
L 112.973932 106.255611 
L 113.408834 58.471754 
L 113.626285 71.043047 
L 114.061187 119.469714 
L 114.49609 137.997867 
L 114.713541 141.278777 
L 114.930992 142.751197 
L 115.148443 142.612813 
L 115.583345 140.277925 
L 117.105503 126.284764 
L 117.540406 116.26425 
L 117.757857 100.308533 
L 117.975308 70.329768 
L 118.192759 61.42083 
L 118.845112 124.650376 
L 119.280015 139.167914 
L 119.497466 140.987836 
L 119.714917 140.833768 
L 119.932368 140.099761 
L 120.584721 134.57182 
L 121.454526 124.157543 
L 121.889428 114.487366 
L 122.106879 102.169882 
L 122.541782 61.134236 
L 122.759233 75.033221 
L 123.194135 118.750853 
L 123.629037 135.865684 
L 123.846488 138.600784 
L 124.06394 139.582187 
L 124.281391 139.552322 
L 124.716293 136.790203 
L 125.151195 133.297878 
L 126.238451 119.947366 
L 126.673353 110.050616 
L 126.890804 96.338972 
L 127.108255 74.627282 
L 127.325707 65.326364 
L 127.543158 77.344557 
L 127.97806 114.548923 
L 128.412962 130.853063 
L 128.630413 134.39761 
L 128.847865 136.038469 
L 129.065316 136.398734 
L 129.282767 135.930794 
L 129.93512 131.753872 
L 130.804925 124.041402 
L 131.239827 117.407118 
L 131.457278 113.348492 
L 131.674729 106.889525 
L 132.327083 67.881903 
L 133.196887 126.847445 
L 133.63179 134.770727 
L 133.849241 135.889056 
L 134.066692 135.871583 
L 134.284143 135.679066 
L 134.501594 135.281912 
L 134.936496 133.229536 
L 136.023752 125.88049 
L 136.458654 120.189807 
L 136.893557 111.49911 
L 137.111008 100.998201 
L 137.54591 65.729309 
L 137.763361 71.460875 
L 138.415715 124.315857 
L 138.850617 135.281193 
L 139.068068 136.854346 
L 139.285519 137.256565 
L 139.50297 136.680302 
L 139.937872 133.966701 
L 141.025128 125.351545 
L 141.677482 114.937416 
L 141.894933 109.812194 
L 142.112384 101.564506 
L 142.547286 72.056587 
L 142.764737 71.654305 
L 143.634542 124.719735 
L 143.851993 129.919357 
L 144.286895 133.480016 
L 144.504346 133.884621 
L 144.721797 133.556187 
L 145.1567 131.872547 
L 145.374151 130.735626 
L 146.026504 125.030609 
L 146.461407 118.330182 
L 146.896309 106.86681 
L 147.548662 67.247948 
L 147.766113 73.009312 
L 148.418467 117.892941 
L 148.853369 129.502886 
L 149.07082 131.79053 
L 149.288271 132.845842 
L 149.505722 132.938126 
L 149.940625 131.490431 
L 150.375527 129.114435 
L 151.245332 120.938326 
L 151.897685 111.090917 
L 152.115136 104.945607 
L 152.767489 71.422122 
L 152.984941 75.428353 
L 153.637294 116.052026 
L 154.072196 128.860746 
L 154.289647 131.435857 
L 154.507099 132.625186 
L 154.72455 132.869102 
L 154.942001 132.275739 
L 155.376903 129.753791 
L 155.811805 125.675781 
L 156.464159 117.725467 
L 156.899061 107.891682 
L 157.333963 87.23383 
L 157.551414 75.780499 
L 157.768866 72.412258 
L 157.986317 79.492651 
L 158.63867 114.614345 
L 159.073572 124.490136 
L 159.508475 128.312622 
L 159.725926 128.923798 
L 159.943377 128.536211 
L 160.59573 125.563503 
L 161.248084 119.604934 
L 162.117888 105.565122 
L 162.987693 85.638927 
L 163.205144 87.423309 
L 163.640046 98.95227 
L 164.2924 115.116476 
L 164.727302 121.351949 
L 165.162204 123.862771 
L 165.379655 124.312847 
L 165.597106 124.293014 
L 165.814558 123.950753 
L 166.24946 121.645439 
L 166.684362 117.768786 
L 167.336716 109.712021 
L 167.771618 99.592256 
L 168.423971 85.664128 
L 168.641422 85.143721 
L 168.858874 88.488715 
L 169.728678 111.583691 
L 170.16358 117.028478 
L 170.598483 120.031851 
L 170.815934 120.6756 
L 171.033385 120.962058 
L 171.250836 120.919275 
L 171.685738 118.556476 
L 172.338092 113.75547 
L 173.207896 103.492715 
L 173.86025 94.656168 
L 174.077701 93.679182 
L 174.295152 93.60675 
L 174.512603 95.01849 
L 176.034761 114.843321 
L 176.469663 116.854067 
L 176.687114 117.112878 
L 178.426723 112.059751 
L 178.861626 111.025098 
L 179.513979 107.869341 
L 179.948881 104.40187 
L 180.383784 102.990947 
L 180.818686 102.27196 
L 181.036137 102.358834 
L 181.471039 104.36385 
L 182.123393 106.057267 
L 183.645551 111.819204 
L 184.080453 111.698257 
L 184.297904 111.521521 
L 184.950258 109.284511 
L 185.602611 105.520287 
L 185.820062 104.880926 
L 186.254964 106.92208 
L 187.124769 111.073593 
L 187.777122 113.005777 
L 188.212025 113.688518 
L 188.429476 113.656686 
L 188.864378 111.553567 
L 189.29928 110.652541 
L 189.516731 110.619183 
L 189.951634 109.697197 
L 190.386536 109.188642 
L 190.603987 108.7284 
L 191.691243 105.270268 
L 192.561047 103.769259 
L 192.99595 102.52109 
L 193.213401 102.37498 
L 193.430852 102.695429 
L 193.865754 104.348314 
L 194.735559 108.898706 
L 195.387912 110.075878 
L 195.605363 110.147827 
L 195.822814 110.366199 
L 196.040265 110.866202 
L 196.257717 110.827256 
L 196.692619 109.908049 
L 197.127521 108.144821 
L 197.562423 106.122684 
L 197.997326 104.990435 
L 198.214777 105.431407 
L 198.432228 105.504171 
L 198.86713 104.706429 
L 199.084581 104.798386 
L 199.302033 105.34312 
L 199.736935 107.008 
L 200.171837 107.704257 
L 200.389288 107.848728 
L 200.606739 107.4391 
L 201.041642 106.334705 
L 201.259093 106.353685 
L 201.476544 105.867788 
L 202.346348 99.236604 
L 202.5638 98.228725 
L 202.781251 97.754394 
L 202.998702 98.890559 
L 204.085957 109.710515 
L 204.52086 112.336044 
L 205.390664 115.748955 
L 205.825567 116.573134 
L 206.043018 117.218164 
L 206.260469 117.395293 
L 206.912822 116.822507 
L 207.130273 116.441655 
L 207.347725 115.744299 
L 208.217529 110.073176 
L 209.304785 101.19132 
L 209.957138 93.127903 
L 210.174589 91.264568 
L 210.39204 91.245214 
L 210.609492 92.381683 
L 211.044394 98.660026 
L 212.13165 114.64585 
L 212.566552 117.070057 
L 212.784003 117.461868 
L 213.001454 117.428697 
L 213.436356 116.952469 
L 213.871259 115.316231 
L 214.958514 109.476898 
L 216.04577 99.569412 
L 216.480672 95.303629 
L 216.698123 94.638093 
L 216.915574 94.507889 
L 217.133026 94.68269 
L 217.350477 95.688818 
L 218.872635 111.384137 
L 219.307537 113.549662 
L 219.524988 113.893135 
L 220.177342 114.150828 
L 220.394793 113.814722 
L 221.264597 110.106194 
L 221.699499 108.882582 
L 222.134402 106.720578 
L 222.569304 104.344998 
L 223.004206 102.549492 
L 223.439109 102.05713 
L 223.65656 101.635554 
L 223.874011 101.518096 
L 224.091462 102.110625 
L 224.743815 106.625012 
L 224.961267 106.743645 
L 225.178718 107.164261 
L 226.265973 110.442898 
L 226.700876 111.38205 
L 226.918327 112.016869 
L 227.135778 112.084047 
L 227.788131 111.173775 
L 228.440485 109.362885 
L 228.657936 109.513846 
L 228.875387 109.503987 
L 229.745191 106.829176 
L 230.180094 105.535941 
L 230.397545 105.191675 
L 231.049898 103.201302 
L 231.267349 103.219649 
L 232.354605 106.92968 
L 232.789507 107.363633 
L 233.441861 108.173428 
L 233.659312 108.15331 
L 234.094214 108.375105 
L 234.311665 108.185076 
L 234.964019 109.282189 
L 235.18147 109.92035 
L 235.616372 109.598961 
L 236.051274 109.016694 
L 236.268726 109.329581 
L 236.703628 109.420305 
L 237.13853 109.728882 
L 237.790884 111.202852 
L 238.008335 111.071183 
L 238.443237 110.229836 
L 238.878139 109.63023 
L 239.530493 106.983597 
L 240.182846 102.278924 
L 240.617748 100.10072 
L 240.835199 100.214445 
L 241.270102 101.403106 
L 241.922455 104.280302 
L 243.009711 110.858373 
L 243.227162 111.382964 
L 243.879515 111.209062 
L 244.096966 110.915154 
L 244.531869 110.009649 
L 244.74932 109.913939 
L 245.184222 107.831023 
L 245.401673 106.684663 
L 245.619124 106.155501 
L 245.836576 105.962795 
L 246.054027 105.367419 
L 246.488929 105.640515 
L 246.923831 104.823543 
L 247.793636 100.221994 
L 248.011087 100.108399 
L 248.445989 101.439535 
L 249.968147 106.632195 
L 250.620501 107.460884 
L 251.055403 106.890054 
L 251.490305 106.395713 
L 251.707756 106.286569 
L 251.925207 105.961683 
L 252.36011 104.376058 
L 252.577561 104.367396 
L 253.229914 105.003028 
L 253.664816 104.45333 
L 253.882268 104.090495 
L 254.31717 103.951895 
L 254.534621 103.579141 
L 254.752072 103.612133 
L 255.186974 103.176985 
L 255.839328 103.880675 
L 256.056779 104.549396 
L 256.27423 105.716298 
L 256.709132 109.159844 
L 257.361486 112.052568 
L 257.796388 113.304719 
L 258.23129 113.736091 
L 258.666193 114.665291 
L 259.318546 113.597608 
L 259.970899 111.460432 
L 260.840704 106.951334 
L 262.362862 95.10467 
L 262.580313 95.966588 
L 264.102471 106.147294 
L 264.537373 107.694628 
L 264.972275 110.236494 
L 265.407178 111.359518 
L 265.624629 111.346107 
L 265.84208 111.148559 
L 266.059531 110.54899 
L 266.494433 108.196581 
L 267.146787 106.448781 
L 267.581689 105.514056 
L 268.234043 106.554519 
L 268.451494 106.551783 
L 268.886396 105.590665 
L 269.103847 105.690247 
L 269.321298 105.97093 
L 269.538749 105.985825 
L 270.408554 107.584442 
L 270.626005 106.989157 
L 271.713261 102.332853 
L 271.930712 102.000982 
L 272.148163 101.41171 
L 272.583065 101.195642 
L 272.800516 101.292406 
L 273.235419 101.97142 
L 273.670321 102.668814 
L 274.105223 103.923121 
L 274.757577 106.634861 
L 275.627381 111.086155 
L 276.497186 112.182077 
L 276.714637 112.138198 
L 277.149539 111.251866 
L 277.36699 111.191088 
L 277.584441 110.504031 
L 278.671697 105.491633 
L 279.32405 103.361082 
L 279.541502 103.465879 
L 279.758953 103.787642 
L 280.193855 104.810927 
L 280.628757 105.741532 
L 281.06366 106.125676 
L 281.281111 106.919637 
L 282.150915 113.498612 
L 282.585817 114.597437 
L 283.02072 113.920808 
L 283.238171 113.912735 
L 283.455622 113.332165 
L 284.325427 109.883206 
L 284.542878 109.729836 
L 284.760329 109.913621 
L 284.97778 109.830721 
L 285.412682 108.777051 
L 285.630133 108.577395 
L 285.847584 108.166025 
L 286.065036 107.479584 
L 287.152291 102.332425 
L 287.369742 101.787189 
L 287.804645 99.525202 
L 288.239547 98.501342 
L 288.456998 98.656356 
L 288.8919 100.518801 
L 289.544254 105.487688 
L 289.979156 108.594941 
L 290.196607 109.710252 
L 290.414058 110.126415 
L 290.848961 111.280246 
L 291.283863 111.356282 
L 291.718765 111.952327 
L 292.153667 111.845653 
L 292.371119 111.604847 
L 292.806021 110.92637 
L 293.023472 110.817366 
L 293.240923 110.433771 
L 293.675825 110.468924 
L 294.110728 109.325142 
L 294.763081 106.685425 
L 295.197983 105.667837 
L 295.850337 101.826096 
L 296.50269 99.690994 
L 297.155044 119.834422 
L 297.807397 138.360131 
L 298.45975 151.095802 
L 299.112104 159.831599 
L 299.981908 168.129127 
L 301.069164 174.685594 
L 302.591322 181.587196 
L 304.11348 186.523515 
L 306.287991 191.067384 
L 306.722894 191.846341 
L 307.157796 192.622338 
L 308.462503 194.241556 
L 308.897405 194.442037 
L 310.854465 195.491038 
L 311.071916 195.471212 
L 311.506818 195.633279 
L 311.72427 195.592355 
L 312.159172 195.805077 
L 312.376623 195.80355 
L 313.028976 196.104079 
L 313.68133 196.21345 
L 313.898781 196.220929 
L 314.333683 196.380402 
L 314.551134 196.270026 
L 315.63839 196.583458 
L 316.508195 196.833471 
L 317.160548 196.620274 
L 317.59545 196.567343 
L 318.030353 196.591395 
L 318.682706 196.245441 
L 319.117608 196.284482 
L 319.987413 195.926531 
L 320.857217 195.787447 
L 322.161924 195.419645 
L 322.596826 195.484004 
L 323.031729 195.372307 
L 323.466631 195.132591 
L 325.423691 194.793048 
L 326.293496 194.544598 
L 326.728398 194.498518 
L 327.1633 194.464652 
L 327.815654 194.352304 
L 328.250556 194.068533 
L 328.902909 193.845165 
L 329.990165 193.269185 
L 331.512323 193.036269 
L 331.947225 192.596395 
L 332.81703 192.464407 
L 335.208992 192.442617 
L 335.861346 192.249366 
L 336.078797 192.24202 
L 336.73115 191.853873 
L 337.818406 191.796328 
L 338.253308 191.767238 
L 338.470759 191.721073 
L 338.905662 191.794332 
L 339.775466 191.970991 
L 341.515075 192.455865 
L 341.949977 192.637125 
L 343.254684 192.979161 
L 343.472135 192.851034 
L 343.907038 192.883668 
L 345.429196 192.453438 
L 346.733902 192.258752 
L 347.168805 192.385826 
L 348.25606 192.024586 
L 348.690963 191.730962 
L 349.125865 191.767883 
L 350.213121 191.55025 
L 350.648023 191.483883 
L 351.95273 190.981875 
L 354.127241 190.058013 
L 354.562143 190.021634 
L 355.649399 189.729608 
L 356.084301 189.417237 
L 356.519204 189.410523 
L 356.954106 189.381555 
L 357.606459 189.345731 
L 358.258813 189.285143 
L 359.780971 188.967467 
L 360.215873 188.750338 
L 360.433324 188.745302 
L 360.650775 188.516275 
L 360.868226 188.450366 
L 361.085677 188.507346 
L 362.825286 188.080634 
L 363.912542 188.003702 
L 365.4347 188.061174 
L 365.869602 187.862277 
L 368.261565 187.579474 
L 371.305881 186.922471 
L 372.175685 186.920008 
L 372.610588 186.772666 
L 373.04549 187.019954 
L 375.00255 187.213572 
L 375.220001 187.153964 
L 375.872355 187.273306 
L 376.307257 187.330529 
L 376.95961 187.294932 
L 377.829415 186.940341 
L 378.046866 186.890184 
L 378.481768 187.022482 
L 378.916671 186.649235 
L 380.003926 187.047449 
L 380.873731 187.122229 
L 381.308633 187.023108 
L 382.61334 187.527904 
L 383.700596 187.453107 
L 384.135498 187.206891 
L 384.352949 187.24914 
L 384.787851 187.173226 
L 385.875107 187.371634 
L 386.310009 187.32989 
L 386.52746 187.42652 
L 387.614716 187.000502 
L 388.267069 187.251409 
L 388.701972 187.175142 
L 388.919423 187.125308 
L 389.136874 187.224612 
L 389.789227 187.061642 
L 390.22413 186.962613 
L 390.659032 187.062886 
L 390.876483 187.081709 
L 391.311385 186.78046 
L 391.746288 186.618124 
L 392.833543 186.418078 
L 393.920799 186.694077 
L 395.008055 186.586114 
L 395.877859 186.025908 
L 396.965115 186.083811 
L 397.834919 186.767476 
L 398.269822 186.787783 
L 398.487273 186.785616 
L 398.487273 186.785616 
" style="fill:none;stroke:#000000;stroke-linecap:square;stroke-width:1.5;"/>
   </g>
   <g id="line2d_17">
    <path clip-path="url(#p1a2ba5ed95)" d="M 73.832727 187.489236 
L 74.26763 187.607416 
L 74.919983 187.970794 
L 75.354885 188.043836 
L 75.572336 188.127256 
L 76.007239 187.834798 
L 76.877043 187.780765 
L 77.094494 187.897421 
L 77.311945 187.851924 
L 77.964299 187.242322 
L 78.399201 187.145905 
L 78.616652 187.211288 
L 78.834103 187.132188 
L 79.051555 187.217024 
L 81.008615 197.465396 
L 81.878419 201.039099 
L 82.530773 203.27177 
L 83.618028 207.480865 
L 85.140186 212.773096 
L 86.444893 216.451179 
L 87.532149 219.057829 
L 87.967051 219.947506 
L 89.054307 222.140106 
L 90.141562 224.670219 
L 92.968427 230.68015 
L 96.012743 235.311018 
L 96.447645 235.336218 
L 97.752352 237.23903 
L 98.187254 238.074116 
L 98.839608 238.766112 
L 99.27451 239.474726 
L 100.579217 240.535238 
L 100.796668 240.509536 
L 101.014119 240.610479 
L 101.883924 241.706833 
L 102.318826 242.231575 
L 102.753728 242.327067 
L 102.971179 242.572625 
L 103.188631 242.528129 
L 103.840984 241.579695 
L 104.493337 241.359179 
L 104.92824 241.482261 
L 105.363142 241.884955 
L 105.580593 241.953673 
L 106.015495 242.238068 
L 106.450398 242.380645 
L 107.102751 242.873316 
L 107.320202 242.970918 
L 107.755104 243.432423 
L 108.190007 243.631632 
L 109.277262 244.936794 
L 109.929616 245.236871 
L 110.79942 245.466757 
L 111.234323 245.789678 
L 111.451774 246.020832 
L 111.886676 246.132353 
L 112.539029 246.584769 
L 112.756481 246.677593 
L 113.191383 246.705366 
L 113.843736 247.198954 
L 114.278638 247.201334 
L 115.148443 247.743778 
L 116.235699 248.066413 
L 116.670601 247.854965 
L 117.105503 247.999031 
L 117.540406 248.249836 
L 118.192759 248.326788 
L 120.149819 249.510202 
L 120.584721 249.805743 
L 121.454526 250.149829 
L 121.671977 250.035865 
L 122.106879 250.049601 
L 122.324331 249.854938 
L 122.541782 249.868771 
L 122.976684 249.638855 
L 123.629037 250.026209 
L 124.06394 249.762175 
L 125.803549 249.969535 
L 126.455902 250.431243 
L 126.673353 250.349836 
L 126.890804 250.419128 
L 127.108255 249.819859 
L 127.543158 245.530253 
L 127.97806 243.982678 
L 128.630413 243.481219 
L 130.152571 244.257314 
L 130.370023 244.144931 
L 130.804925 244.298519 
L 131.89218 244.633279 
L 132.327083 244.579429 
L 133.414338 245.066201 
L 134.719045 246.192268 
L 135.153948 246.440558 
L 135.58885 246.863829 
L 136.241203 246.856451 
L 137.111008 247.238268 
L 137.980812 247.067539 
L 138.198263 247.039976 
L 138.415715 247.128697 
L 138.633166 247.092755 
L 139.068068 247.378243 
L 139.285519 247.532285 
L 139.937872 247.469153 
L 140.590226 247.727379 
L 141.025128 247.633656 
L 141.46003 247.757914 
L 141.677482 247.611559 
L 142.112384 247.075685 
L 142.329835 247.179164 
L 142.764737 247.53554 
L 143.417091 247.527248 
L 143.634542 247.32132 
L 144.286895 247.300897 
L 144.939249 247.562036 
L 145.1567 247.606653 
L 145.374151 247.461273 
L 146.243955 247.616489 
L 146.896309 246.017638 
L 147.548662 246.203705 
L 148.201016 246.622014 
L 149.288271 247.46629 
L 150.158076 247.828296 
L 150.592978 247.623847 
L 151.245332 247.891876 
L 152.115136 248.538374 
L 152.550038 248.712547 
L 152.984941 248.170945 
L 153.419843 248.114156 
L 153.637294 248.245234 
L 153.854745 248.174673 
L 154.289647 247.855415 
L 154.72455 247.744939 
L 155.376903 247.98707 
L 155.811805 247.990632 
L 156.246708 247.809754 
L 156.68161 247.451882 
L 157.551414 247.663031 
L 157.986317 247.611148 
L 158.203768 247.691101 
L 158.63867 247.976014 
L 159.073572 247.427004 
L 159.291024 247.550366 
L 159.725926 247.978167 
L 160.378279 248.152813 
L 160.59573 248.02584 
L 161.248084 248.523871 
L 162.770242 249.165788 
L 163.422595 249.334826 
L 164.074949 249.510423 
L 164.509851 249.492809 
L 165.379655 249.758905 
L 165.814558 249.77137 
L 166.24946 249.292205 
L 166.901813 248.681026 
L 167.119264 248.319095 
L 167.336716 248.230292 
L 167.771618 248.42191 
L 168.20652 248.848338 
L 168.423971 248.891087 
L 168.641422 248.804623 
L 169.076325 248.480446 
L 171.033385 248.566626 
L 171.468287 248.657568 
L 172.555543 248.860349 
L 172.772994 248.970192 
L 173.207896 248.758508 
L 173.642799 248.848063 
L 173.86025 249.021391 
L 175.164956 249.022194 
L 175.382408 249.089962 
L 176.252212 248.305863 
L 176.687114 248.097504 
L 177.122017 248.142303 
L 177.556919 248.129619 
L 177.991821 248.140702 
L 178.426723 248.134121 
L 178.861626 248.313471 
L 179.73143 248.875388 
L 180.383784 249.011044 
L 180.601235 248.69827 
L 180.818686 248.582248 
L 181.036137 248.714334 
L 181.688491 248.598584 
L 182.123393 248.576078 
L 182.340844 248.583438 
L 182.775746 248.851294 
L 182.993197 248.883053 
L 183.210648 249.20333 
L 183.4281 247.557998 
L 183.645551 244.654295 
L 183.863002 243.436326 
L 184.297904 242.74604 
L 184.732806 242.99781 
L 185.167709 242.928004 
L 185.602611 243.345411 
L 185.820062 243.413945 
L 186.689867 244.390776 
L 187.559671 245.180545 
L 187.994573 245.227584 
L 188.864378 245.874161 
L 189.29928 245.871396 
L 189.734183 245.851278 
L 190.386536 245.989488 
L 191.691243 245.188247 
L 191.908694 244.968442 
L 192.126145 244.974876 
L 192.561047 244.768501 
L 192.99595 245.235174 
L 193.865754 245.880466 
L 194.518108 245.49442 
L 194.95301 245.418237 
L 195.170461 245.227414 
L 196.257717 245.677435 
L 196.692619 245.979147 
L 197.779875 246.237697 
L 198.432228 246.702183 
L 199.084581 247.228407 
L 200.82419 247.839832 
L 201.259093 247.733355 
L 201.911446 248.110312 
L 202.128897 248.27142 
L 203.216153 248.165829 
L 204.303409 247.747575 
L 204.738311 247.74637 
L 206.043018 247.942779 
L 206.260469 247.813147 
L 206.912822 247.891808 
L 207.347725 248.011563 
L 208.217529 248.093605 
L 208.652431 248.061374 
L 209.957138 248.682166 
L 210.174589 248.832871 
L 211.261845 248.831435 
L 211.914198 249.317478 
L 213.001454 250.293137 
L 213.653807 249.925518 
L 214.08871 250.072027 
L 214.741063 249.833107 
L 214.958514 249.909941 
L 215.610868 249.663284 
L 216.04577 249.794663 
L 216.480672 249.401593 
L 216.698123 249.335835 
L 217.133026 249.009255 
L 217.567928 248.948375 
L 218.00283 248.811327 
L 218.437732 248.972141 
L 219.090086 248.842415 
L 219.524988 248.64695 
L 220.177342 248.790757 
L 220.394793 248.890331 
L 220.612244 248.853392 
L 221.047146 248.601266 
L 221.264597 248.562632 
L 221.699499 248.753889 
L 222.351853 248.385212 
L 222.786755 248.592188 
L 223.004206 248.58327 
L 223.439109 248.898131 
L 223.874011 248.92517 
L 224.091462 249.003856 
L 224.308913 248.946829 
L 224.526364 248.752441 
L 226.048522 248.636407 
L 226.265973 248.49943 
L 226.700876 247.595172 
L 227.135778 247.457352 
L 227.57068 247.521526 
L 228.440485 247.493302 
L 229.52774 247.75173 
L 229.962643 247.997182 
L 232.789507 248.641723 
L 233.659312 248.478476 
L 234.094214 248.619063 
L 235.18147 248.151795 
L 235.616372 248.037091 
L 236.051274 247.992759 
L 236.268726 248.040308 
L 236.703628 247.870881 
L 238.225786 248.502064 
L 238.878139 248.299607 
L 239.530493 248.529816 
L 239.747944 248.708426 
L 239.965395 248.640145 
L 240.400297 248.171875 
L 240.835199 247.866705 
L 241.270102 247.292157 
L 241.705004 247.039226 
L 242.139906 247.386271 
L 242.357357 247.369866 
L 243.009711 247.646421 
L 243.662064 247.644378 
L 244.74932 246.802091 
L 245.184222 246.864614 
L 246.271478 246.604803 
L 246.488929 246.582257 
L 247.576185 245.139396 
L 247.793636 245.216649 
L 248.228538 244.961532 
L 248.66344 245.14532 
L 248.880891 244.507158 
L 249.098343 243.203049 
L 249.315794 242.72158 
L 249.750696 242.655555 
L 250.403049 242.996254 
L 251.272854 242.975356 
L 252.795012 244.369546 
L 254.31717 245.328297 
L 254.534621 245.275034 
L 254.969523 245.549246 
L 255.404426 245.614376 
L 256.056779 245.754379 
L 256.27423 245.582657 
L 257.361486 246.144693 
L 257.796388 246.351952 
L 258.23129 246.230671 
L 258.448741 246.269817 
L 258.883644 246.126678 
L 259.318546 246.214197 
L 259.535997 246.232308 
L 260.18835 245.853041 
L 260.405802 245.497837 
L 262.797764 245.714006 
L 263.232666 246.051642 
L 263.450118 246.118256 
L 263.88502 246.514399 
L 264.102471 246.492374 
L 264.537373 246.724799 
L 264.754824 246.724317 
L 265.189727 247.048388 
L 266.929336 247.337492 
L 267.364238 247.583965 
L 267.581689 247.560562 
L 268.451494 248.074164 
L 268.668945 247.972178 
L 269.103847 248.135602 
L 269.321298 248.081115 
L 270.191103 248.492415 
L 271.060907 248.943723 
L 271.278358 248.888047 
L 272.365614 249.727252 
L 273.235419 250.009362 
L 273.670321 249.970451 
L 274.540125 250.273528 
L 277.36699 249.137102 
L 277.801892 248.925302 
L 278.454246 248.932943 
L 279.541502 248.188598 
L 279.758953 248.153432 
L 281.06366 247.072377 
L 281.933464 247.117891 
L 282.368366 246.701635 
L 282.803269 246.759282 
L 283.673073 246.424818 
L 283.890524 246.471416 
L 284.107975 246.66622 
L 284.760329 246.717932 
L 285.195231 246.576959 
L 285.630133 246.322382 
L 285.847584 246.110644 
L 286.065036 246.054615 
L 286.499938 246.373861 
L 286.93484 245.949578 
L 287.152291 245.953853 
L 287.587194 245.728847 
L 287.804645 245.358921 
L 288.239547 244.026674 
L 289.326803 243.715724 
L 290.631509 244.322007 
L 290.848961 244.271672 
L 291.283863 244.506549 
L 292.153667 244.049399 
L 292.58857 244.002581 
L 293.458374 244.590676 
L 293.675825 244.400038 
L 294.110728 243.729864 
L 294.763081 243.817369 
L 295.197983 244.01341 
L 295.632886 243.974225 
L 296.067788 243.593292 
L 296.285239 243.710846 
L 296.50269 243.576845 
L 297.372495 239.05774 
L 299.112104 231.768651 
L 301.721517 222.904362 
L 302.15642 221.81607 
L 303.026224 220.09585 
L 303.896029 218.123517 
L 305.418187 215.106537 
L 306.940345 211.257359 
L 307.375247 210.288352 
L 308.897405 206.858959 
L 309.332307 206.08331 
L 309.984661 204.506865 
L 310.854465 202.567799 
L 313.68133 196.018114 
L 314.768586 193.5554 
L 315.203488 192.63978 
L 315.63839 191.609934 
L 318.247804 184.084451 
L 319.335059 180.789915 
L 319.552511 180.501137 
L 319.769962 179.266501 
L 319.987413 179.169946 
L 320.204864 177.88605 
L 320.639766 176.704024 
L 320.857217 175.041933 
L 321.074668 175.810255 
L 321.29212 173.358989 
L 321.509571 173.865159 
L 321.944473 170.749196 
L 322.161924 170.975167 
L 322.379375 165.842185 
L 322.596826 170.243227 
L 322.814278 160.876939 
L 323.031729 167.809814 
L 323.24918 148.740008 
L 323.466631 81.888232 
L 323.684082 117.280447 
L 323.901533 176.394317 
L 324.118984 180.478018 
L 324.336435 190.876253 
L 324.553887 189.335537 
L 324.988789 190.738115 
L 325.20624 187.991738 
L 325.423691 189.454822 
L 325.641142 187.158408 
L 325.858593 188.052999 
L 326.076045 187.177197 
L 326.293496 186.785155 
L 326.510947 186.981582 
L 326.728398 185.851407 
L 326.945849 186.197917 
L 327.1633 185.550216 
L 327.380751 185.517644 
L 327.815654 183.35366 
L 328.033105 183.179177 
L 328.250556 182.853691 
L 328.468007 183.097801 
L 329.337812 182.628491 
L 329.990165 182.443219 
L 330.425067 182.294895 
L 330.642518 182.079903 
L 331.077421 181.375268 
L 332.382128 180.158246 
L 332.599579 180.211934 
L 332.81703 180.012836 
L 333.251932 179.30761 
L 333.686834 179.109279 
L 334.121737 179.126429 
L 334.556639 178.508438 
L 334.991541 178.305484 
L 335.426443 177.994444 
L 336.296248 177.901039 
L 336.513699 177.73015 
L 336.73115 177.708237 
L 337.166052 177.940481 
L 337.383504 177.937647 
L 337.818406 178.097975 
L 338.253308 178.062523 
L 338.68821 177.663577 
L 339.123113 177.621114 
L 339.558015 177.624642 
L 339.992917 177.355072 
L 340.862722 178.288132 
L 341.297624 178.194611 
L 342.167429 178.410356 
L 342.38488 178.571521 
L 342.819782 178.423166 
L 343.037233 178.20681 
L 343.689587 178.153719 
L 343.907038 178.038705 
L 344.559391 178.24164 
L 344.776842 178.43328 
L 345.646647 178.395533 
L 345.864098 178.134633 
L 346.299 177.31043 
L 346.733902 177.162443 
L 347.386256 177.241413 
L 348.473512 177.792512 
L 349.125865 177.594112 
L 349.343316 177.739736 
L 349.560767 177.721213 
L 349.778218 177.441868 
L 350.213121 177.507224 
L 350.648023 177.063736 
L 352.170181 176.107613 
L 352.605083 176.158118 
L 353.692339 177.203373 
L 354.779594 177.280074 
L 355.214497 177.564513 
L 355.431948 177.395737 
L 355.649399 177.436263 
L 355.86685 177.331745 
L 356.084301 177.064534 
L 356.736655 177.076352 
L 357.389008 178.427006 
L 357.82391 178.843501 
L 358.258813 178.989832 
L 359.128617 180.297096 
L 359.563519 180.740178 
L 359.780971 180.871371 
L 360.433324 181.755321 
L 360.868226 182.034103 
L 361.085677 182.151154 
L 361.52058 181.769195 
L 362.390384 181.658721 
L 362.825286 181.852014 
L 363.47764 181.917127 
L 363.695091 182.093397 
L 363.912542 182.057522 
L 364.129993 182.150655 
L 364.564896 182.559504 
L 366.087054 183.100951 
L 366.739407 182.922724 
L 367.174309 182.243277 
L 367.826663 181.959867 
L 368.261565 182.152318 
L 368.913918 181.997058 
L 369.348821 182.451421 
L 369.783723 182.491973 
L 370.653527 182.168499 
L 370.870979 182.142466 
L 371.740783 181.540151 
L 371.958234 181.008184 
L 372.175685 180.80268 
L 372.610588 180.648067 
L 373.04549 180.626134 
L 373.697843 180.702866 
L 375.437452 180.473096 
L 375.872355 180.131556 
L 376.742159 179.900877 
L 377.829415 180.444991 
L 378.699219 180.66332 
L 378.916671 180.626643 
L 379.351573 180.828794 
L 379.786475 180.845595 
L 380.003926 180.684549 
L 380.873731 180.740608 
L 381.743535 181.318456 
L 382.178438 181.599931 
L 382.395889 181.689151 
L 382.830791 182.028827 
L 383.483144 182.209384 
L 383.918047 182.015295 
L 384.352949 182.111323 
L 384.787851 181.847245 
L 385.222753 181.856432 
L 386.310009 181.274597 
L 386.744911 180.741086 
L 388.049618 180.883604 
L 389.136874 180.432493 
L 389.571776 179.94564 
L 389.789227 180.073576 
L 391.093934 179.84713 
L 391.528836 179.848408 
L 391.963739 179.665997 
L 392.18119 179.771889 
L 392.616092 179.526646 
L 393.050994 179.662533 
L 393.703348 179.51206 
L 394.13825 179.584797 
L 394.573152 179.441578 
L 395.225506 179.630788 
L 396.09531 179.373578 
L 396.965115 179.239316 
L 397.182566 179.170845 
L 397.617468 178.57915 
L 398.269822 178.471673 
L 398.487273 178.481724 
L 398.487273 178.481724 
" style="fill:none;stroke:#000000;stroke-linecap:square;stroke-width:1.5;"/>
   </g>
   <g id="line2d_18">
    <path clip-path="url(#p1a2ba5ed95)" d="M 73.832727 186.379345 
L 74.050178 186.480501 
L 75.354885 186.239567 
L 75.572336 185.590684 
L 76.007239 183.106343 
L 76.442141 181.984551 
L 76.877043 181.096334 
L 77.094494 180.986362 
L 77.311945 180.633451 
L 77.964299 180.744651 
L 78.18175 181.032262 
L 78.399201 180.840521 
L 78.616652 181.143795 
L 78.834103 180.909599 
L 79.051555 181.194172 
L 79.269006 179.88717 
L 79.486457 177.810564 
L 79.703908 177.489893 
L 79.921359 175.20032 
L 80.13881 175.180944 
L 80.356261 173.241345 
L 80.791164 171.839743 
L 81.008615 168.640127 
L 81.226066 170.489915 
L 81.443517 164.843002 
L 81.660968 167.29821 
L 81.878419 161.577525 
L 82.09587 159.775145 
L 82.313322 159.838759 
L 82.530773 92.124608 
L 82.748224 89.326481 
L 82.965675 160.64066 
L 83.400577 185.018631 
L 83.618028 188.758262 
L 83.83548 186.366417 
L 84.052931 189.159774 
L 84.270382 185.582295 
L 84.487833 186.699618 
L 84.705284 184.819891 
L 85.140186 184.057792 
L 85.357637 182.431275 
L 85.575089 182.690979 
L 85.79254 181.06669 
L 86.009991 180.820355 
L 86.662344 178.534931 
L 87.097247 176.853132 
L 87.967051 173.797179 
L 88.184502 173.344117 
L 89.924111 167.660104 
L 90.141562 166.200407 
L 90.359014 166.017261 
L 90.793916 164.100133 
L 91.011367 164.254029 
L 91.228818 162.212557 
L 91.446269 163.249107 
L 91.66372 160.042298 
L 91.881172 160.489214 
L 92.098623 158.81428 
L 92.316074 156.265615 
L 92.533525 158.566542 
L 92.750976 149.53983 
L 92.968427 158.068064 
L 93.403329 68.800641 
L 93.838232 170.296682 
L 94.055683 176.673571 
L 94.273134 186.807997 
L 94.490585 183.795887 
L 94.708036 186.18252 
L 95.142939 183.601994 
L 95.36039 183.678967 
L 95.577841 181.587867 
L 95.795292 182.363068 
L 96.012743 180.74633 
L 96.230194 180.608594 
L 96.882548 178.460464 
L 97.099999 177.148393 
L 97.31745 176.695488 
L 97.752352 175.177758 
L 97.969803 174.665311 
L 98.404706 173.406505 
L 99.709412 169.109049 
L 100.361766 167.163461 
L 101.666473 161.587682 
L 101.883924 161.70608 
L 102.101375 159.989232 
L 102.318826 159.907011 
L 102.753728 157.282936 
L 102.971179 157.253944 
L 103.188631 154.489695 
L 103.406082 156.504371 
L 103.623533 152.570589 
L 103.840984 154.807973 
L 104.275886 149.518997 
L 104.493337 150.457813 
L 104.710789 89.302186 
L 104.92824 78.853957 
L 105.145691 147.533846 
L 105.363142 170.534096 
L 105.798044 184.636736 
L 106.015495 182.650067 
L 106.232946 185.463757 
L 106.450398 182.586574 
L 106.667849 183.196232 
L 107.102751 180.785916 
L 107.320202 180.553191 
L 107.537653 178.951227 
L 107.755104 179.194853 
L 107.972556 177.83909 
L 108.190007 177.53427 
L 109.059811 174.947342 
L 109.277262 174.712362 
L 109.929616 173.1949 
L 111.234323 169.994311 
L 111.451774 169.759726 
L 114.061187 163.54159 
L 114.278638 162.93313 
L 114.49609 162.892825 
L 116.018248 160.245924 
L 116.670601 158.965434 
L 116.888052 158.018613 
L 117.105503 158.305103 
L 117.322954 157.364144 
L 117.540406 157.020123 
L 117.757857 157.122395 
L 117.975308 155.601765 
L 118.192759 156.570443 
L 118.41021 153.69428 
L 118.627661 154.508264 
L 119.062563 149.998981 
L 119.280015 150.696758 
L 119.497466 143.488949 
L 119.714917 151.139679 
L 120.149819 66.441645 
L 120.584721 166.430021 
L 121.019624 184.503161 
L 121.237075 182.319759 
L 121.454526 185.022104 
L 121.889428 182.840741 
L 122.106879 182.601235 
L 122.324331 180.710341 
L 122.541782 181.204165 
L 122.759233 179.513992 
L 122.976684 179.311919 
L 123.411586 177.613769 
L 123.629037 177.399933 
L 123.846488 176.430847 
L 124.06394 176.154077 
L 124.933744 173.597336 
L 125.151195 173.273622 
L 126.455902 169.117498 
L 126.890804 168.279435 
L 127.760609 166.002898 
L 128.630413 161.541428 
L 128.847865 160.930362 
L 129.065316 158.82478 
L 129.282767 158.86099 
L 129.500218 157.142581 
L 129.717669 156.860275 
L 129.93512 156.284607 
L 130.152571 154.357505 
L 130.370023 155.67342 
L 130.587474 150.848141 
L 130.804925 153.333809 
L 131.022376 147.294324 
L 131.239827 147.566202 
L 131.457278 140.425487 
L 131.674729 77.859884 
L 131.89218 85.37431 
L 132.109632 151.455771 
L 132.544534 178.595923 
L 132.761985 181.520695 
L 132.979436 180.927008 
L 133.196887 183.448735 
L 133.414338 181.071023 
L 133.63179 182.101968 
L 133.849241 180.364438 
L 134.066692 180.273777 
L 134.284143 179.861694 
L 134.501594 178.695008 
L 134.719045 178.78143 
L 134.936496 177.473365 
L 135.153948 177.34539 
L 135.58885 175.694023 
L 135.806301 175.124918 
L 136.023752 174.00362 
L 136.241203 173.642159 
L 137.111008 171.260836 
L 138.850617 166.545667 
L 139.285519 165.313073 
L 140.372775 161.712688 
L 140.807677 159.680494 
L 141.025128 158.949837 
L 141.242579 157.824458 
L 141.46003 157.628061 
L 141.677482 156.143894 
L 141.894933 156.732039 
L 142.329835 154.387238 
L 142.547286 154.043171 
L 142.764737 152.017709 
L 142.982188 153.721159 
L 143.19964 149.192921 
L 143.417091 151.172753 
L 143.634542 146.396078 
L 143.851993 146.123955 
L 144.069444 142.44717 
L 144.286895 81.123144 
L 144.504346 80.819887 
L 144.721797 147.152931 
L 144.939249 167.62367 
L 145.1567 177.227301 
L 145.374151 181.528013 
L 145.591602 180.750726 
L 145.809053 183.234207 
L 146.026504 180.524979 
L 146.243955 181.46175 
L 146.461407 180.056131 
L 146.896309 179.614271 
L 147.11376 178.430674 
L 147.331211 178.584817 
L 147.548662 177.362114 
L 147.766113 177.234069 
L 148.635918 174.403619 
L 148.853369 173.973488 
L 149.288271 172.812745 
L 151.02788 168.752027 
L 151.462783 167.403351 
L 152.550038 164.303645 
L 152.984941 162.512942 
L 153.202392 162.127448 
L 153.419843 160.756119 
L 153.637294 160.665849 
L 153.854745 159.255664 
L 154.289647 158.585109 
L 154.507099 156.954417 
L 154.72455 157.707404 
L 154.942001 154.735259 
L 155.159452 155.796914 
L 155.376903 152.723906 
L 155.594354 151.848626 
L 155.811805 151.802919 
L 156.029257 145.224689 
L 156.246708 151.730346 
L 156.68161 68.144076 
L 157.116512 165.322695 
L 157.551414 182.114841 
L 157.768866 179.821074 
L 157.986317 182.74128 
L 158.203768 180.780217 
L 158.63867 179.714382 
L 158.856121 178.150296 
L 159.073572 178.561977 
L 159.291024 176.805004 
L 159.508475 176.862629 
L 159.943377 175.14576 
L 160.160828 174.839713 
L 160.378279 173.788064 
L 160.59573 173.524779 
L 161.030633 172.093536 
L 163.857497 164.059816 
L 164.2924 162.730553 
L 164.727302 161.972855 
L 164.944753 161.215761 
L 165.162204 160.989197 
L 166.24946 158.48054 
L 166.466911 157.187048 
L 166.901813 155.835123 
L 167.119264 154.919277 
L 167.336716 154.713972 
L 167.554167 153.378499 
L 167.771618 153.656212 
L 167.989069 152.192612 
L 168.20652 152.094056 
L 168.423971 151.298182 
L 168.641422 149.463925 
L 168.858874 150.528127 
L 169.076325 146.536013 
L 169.293776 149.25621 
L 169.511227 143.726964 
L 169.728678 144.286556 
L 169.946129 134.187008 
L 170.16358 73.883848 
L 170.381031 83.480822 
L 170.598483 147.48888 
L 171.033385 177.527465 
L 171.250836 180.844695 
L 171.468287 180.501027 
L 171.685738 182.256946 
L 171.903189 179.647574 
L 172.120641 180.253028 
L 172.338092 178.253092 
L 172.555543 177.907416 
L 172.772994 177.284631 
L 172.990445 175.948647 
L 173.207896 175.81837 
L 173.425347 174.47176 
L 173.642799 174.229746 
L 174.077701 172.811361 
L 174.295152 172.453041 
L 174.730054 170.939756 
L 174.947505 170.253482 
L 175.382408 169.74043 
L 176.252212 167.629675 
L 179.73143 156.737579 
L 179.948881 155.585867 
L 180.166333 155.411707 
L 180.383784 154.533153 
L 180.601235 154.792289 
L 180.818686 153.836065 
L 181.253588 153.216189 
L 181.471039 151.489568 
L 181.688491 152.16948 
L 181.905942 149.719789 
L 182.123393 150.804502 
L 182.558295 146.775365 
L 182.775746 147.184669 
L 182.993197 140.735074 
L 183.210648 145.741074 
L 183.645551 64.009888 
L 184.080453 162.637733 
L 184.515355 181.955866 
L 184.732806 180.526645 
L 184.950258 183.054028 
L 185.167709 181.657451 
L 185.602611 181.217687 
L 185.820062 179.758587 
L 186.037513 180.150703 
L 186.254964 178.430088 
L 186.472416 178.120552 
L 186.907318 176.706084 
L 187.124769 176.348716 
L 187.34222 175.25477 
L 187.559671 174.935343 
L 187.994573 173.37584 
L 188.864378 171.166078 
L 189.29928 170.704104 
L 190.169085 168.828943 
L 191.25634 165.857937 
L 192.99595 159.354554 
L 193.213401 159.021261 
L 193.430852 157.636413 
L 193.648303 157.079229 
L 194.083205 155.36769 
L 194.300656 155.698055 
L 194.518108 153.923162 
L 194.735559 154.479027 
L 194.95301 152.518006 
L 195.170461 153.156779 
L 195.387912 152.05064 
L 195.605363 148.908574 
L 195.822814 150.5499 
L 196.040265 142.502501 
L 196.257717 148.640721 
L 196.475168 116.339988 
L 196.692619 64.318896 
L 197.127521 158.004176 
L 197.562423 180.206549 
L 197.779875 179.690692 
L 197.997326 181.551107 
L 198.214777 181.099741 
L 198.432228 179.958029 
L 198.649679 180.497238 
L 198.86713 178.684452 
L 199.084581 179.230242 
L 199.302033 177.814939 
L 199.736935 176.932369 
L 199.954386 175.975225 
L 200.171837 175.676881 
L 200.389288 174.563448 
L 200.606739 174.273978 
L 203.216153 166.460201 
L 203.651055 164.889272 
L 204.085957 163.577534 
L 204.738311 161.904525 
L 204.955762 161.644256 
L 205.825567 159.566442 
L 206.043018 159.149567 
L 206.260469 158.277908 
L 206.47792 157.889112 
L 206.695371 157.060251 
L 206.912822 156.81503 
L 207.130273 156.376366 
L 207.347725 155.673219 
L 207.565176 155.356704 
L 207.782627 153.665404 
L 208.000078 153.612707 
L 208.217529 151.972292 
L 208.43498 151.853124 
L 208.652431 151.581186 
L 208.869882 149.882937 
L 209.087334 150.831111 
L 209.304785 146.629391 
L 209.522236 148.913928 
L 209.739687 143.629547 
L 209.957138 144.774159 
L 210.174589 136.999882 
L 210.39204 75.957078 
L 210.609492 80.410567 
L 210.826943 144.035455 
L 211.261845 175.576859 
L 211.479296 179.500921 
L 211.696747 179.294817 
L 211.914198 181.411676 
L 212.13165 179.373456 
L 212.349101 180.401968 
L 212.566552 178.841053 
L 212.784003 178.593758 
L 213.001454 178.148347 
L 213.218905 177.020699 
L 213.436356 177.104302 
L 213.653807 175.953891 
L 213.871259 175.793515 
L 214.741063 173.053573 
L 215.393417 171.636269 
L 215.828319 170.322372 
L 216.04577 169.984049 
L 217.785379 164.817707 
L 218.00283 164.592743 
L 218.437732 163.66525 
L 218.655184 163.441887 
L 219.307537 161.818094 
L 219.742439 161.454515 
L 219.95989 160.815798 
L 220.177342 160.69784 
L 220.394793 159.595582 
L 220.612244 159.663907 
L 220.829695 158.652605 
L 221.047146 158.178703 
L 221.264597 158.171799 
L 221.482048 156.309776 
L 221.699499 156.881519 
L 221.916951 154.244723 
L 222.134402 154.486161 
L 222.569304 150.088579 
L 222.786755 150.952389 
L 223.004206 144.210076 
L 223.221657 150.832816 
L 223.65656 64.291339 
L 224.091462 160.512977 
L 224.526364 180.505808 
L 224.743815 179.423221 
L 224.961267 181.817398 
L 225.396169 180.46919 
L 225.61362 180.524133 
L 225.831071 178.878826 
L 226.048522 179.278457 
L 226.265973 177.877201 
L 226.483424 177.84518 
L 227.353229 175.719107 
L 227.57068 175.809668 
L 228.005582 174.734065 
L 229.745191 171.91537 
L 230.614996 169.236915 
L 231.484801 167.461988 
L 232.354605 166.448341 
L 232.572056 166.285878 
L 233.441861 164.903597 
L 233.659312 164.641035 
L 234.094214 163.56424 
L 234.311665 163.224252 
L 236.051274 158.954627 
L 236.268726 159.180372 
L 236.486177 158.523664 
L 236.921079 157.861797 
L 237.13853 156.805458 
L 237.355981 156.907719 
L 237.573432 154.913787 
L 237.790884 155.143132 
L 238.008335 153.195298 
L 238.225786 152.482782 
L 238.443237 152.296179 
L 238.660688 148.369843 
L 238.878139 150.345741 
L 239.09559 142.010052 
L 239.313041 146.314718 
L 239.530493 123.907635 
L 239.747944 66.053594 
L 239.965395 97.02958 
L 240.182846 154.104265 
L 240.617748 178.120043 
L 240.835199 178.708784 
L 241.270102 180.784392 
L 241.487553 179.133738 
L 241.705004 180.027079 
L 241.922455 178.254005 
L 242.139906 178.630299 
L 242.574809 176.810066 
L 242.79226 176.534071 
L 243.009711 175.46416 
L 243.227162 175.45415 
L 243.662064 174.239797 
L 244.096966 173.151357 
L 244.314418 172.894996 
L 245.184222 170.104241 
L 246.488929 166.365238 
L 247.576185 163.76077 
L 248.880891 161.675779 
L 249.098343 161.499009 
L 249.750696 159.9695 
L 251.490305 155.341581 
L 251.707756 155.120471 
L 251.925207 154.322447 
L 252.142658 154.097278 
L 252.36011 153.27563 
L 252.795012 152.869994 
L 253.012463 151.65432 
L 253.229914 152.363219 
L 253.447365 150.977268 
L 253.664816 151.593094 
L 253.882268 150.961258 
L 254.099719 149.802531 
L 254.31717 150.39272 
L 254.534621 146.08809 
L 254.752072 148.167861 
L 254.969523 141.466996 
L 255.186974 143.965462 
L 255.404426 129.770329 
L 255.621877 70.152821 
L 255.839328 86.587728 
L 256.056779 147.096798 
L 256.491681 175.56917 
L 256.709132 177.516713 
L 256.926583 177.618769 
L 257.144035 179.202077 
L 257.361486 177.100188 
L 257.578937 177.88232 
L 257.796388 176.18659 
L 258.013839 176.248309 
L 258.448741 174.420091 
L 258.666193 174.595366 
L 258.883644 173.522903 
L 259.101095 173.325246 
L 259.535997 172.258107 
L 259.753448 171.921492 
L 259.970899 171.135371 
L 260.18835 170.800761 
L 260.623253 169.672789 
L 261.275606 168.442815 
L 261.92796 166.44126 
L 262.362862 165.734649 
L 265.189727 159.302129 
L 265.407178 159.112404 
L 265.624629 158.665568 
L 265.84208 158.675513 
L 266.059531 157.817756 
L 266.276982 157.943036 
L 266.711885 156.446617 
L 266.929336 156.216597 
L 267.146787 154.431242 
L 267.364238 154.818608 
L 267.581689 152.280723 
L 267.79914 152.846448 
L 268.234043 148.192741 
L 268.451494 148.796754 
L 268.668945 141.490762 
L 268.886396 147.781675 
L 269.321298 63.418032 
L 269.7562 157.400403 
L 270.191103 178.590546 
L 270.408554 177.537 
L 270.626005 179.886965 
L 271.060907 178.692952 
L 271.278358 178.723523 
L 271.49581 177.137441 
L 271.713261 177.522567 
L 271.930712 175.985899 
L 272.148163 175.832849 
L 273.45287 172.703471 
L 275.192479 169.432158 
L 275.627381 168.613037 
L 276.932088 166.015197 
L 278.454246 162.565485 
L 279.32405 159.999337 
L 279.976404 158.380695 
L 280.193855 157.841803 
L 280.411306 157.69744 
L 281.06366 156.048683 
L 281.281111 155.185165 
L 281.498562 154.988604 
L 281.716013 153.947894 
L 281.933464 153.952956 
L 282.368366 152.18045 
L 282.585817 152.302795 
L 282.803269 150.587637 
L 283.02072 151.248968 
L 283.238171 149.304868 
L 283.455622 149.580838 
L 283.673073 148.837298 
L 283.890524 146.602565 
L 284.107975 148.262285 
L 284.325427 140.437941 
L 284.542878 145.533281 
L 284.760329 113.724114 
L 284.97778 62.713865 
L 285.630133 165.015187 
L 285.847584 175.602043 
L 286.065036 175.573828 
L 286.282487 177.45976 
L 286.499938 177.505187 
L 286.717389 176.782145 
L 286.93484 177.507346 
L 287.152291 176.072085 
L 287.369742 176.669103 
L 287.587194 175.631431 
L 287.804645 175.504746 
L 288.022096 175.047338 
L 288.239547 174.040874 
L 288.456998 173.969067 
L 288.674449 173.049325 
L 288.8919 172.717334 
L 293.240923 161.806675 
L 294.110728 158.203991 
L 294.328179 156.826753 
L 294.54563 156.369849 
L 294.980532 154.146796 
L 295.197983 153.755841 
L 295.415434 151.876722 
L 295.632886 152.501403 
L 295.850337 150.232369 
L 296.067788 150.25074 
L 296.50269 145.918932 
L 296.720141 147.603487 
L 296.937592 140.56342 
L 297.155044 146.758584 
L 297.589946 63.590027 
L 298.024848 157.431822 
L 298.45975 180.339818 
L 298.677201 180.711282 
L 298.894653 183.968683 
L 299.112104 184.760468 
L 299.329555 185.087173 
L 299.547006 186.324496 
L 299.764457 185.721313 
L 299.981908 187.231203 
L 300.199359 186.8065 
L 300.634262 187.820398 
L 300.851713 187.802462 
L 301.069164 188.321025 
L 301.286615 188.100342 
L 301.504066 188.498621 
L 301.721517 188.343743 
L 301.938969 188.412427 
L 302.15642 188.659371 
L 302.373871 188.673044 
L 302.591322 188.920776 
L 302.808773 188.993013 
L 303.243675 189.406698 
L 305.853089 190.291954 
L 306.722894 190.034632 
L 307.157796 190.148493 
L 308.0276 190.960251 
L 308.245051 191.088255 
L 309.549758 190.87672 
L 309.767209 190.589047 
L 310.637014 190.522899 
L 310.854465 190.56787 
L 311.506818 190.391833 
L 312.811525 190.952559 
L 313.246428 190.829518 
L 313.463879 190.754073 
L 314.551134 190.96074 
L 314.768586 190.933059 
L 315.63839 190.037395 
L 318.465255 188.699625 
L 319.117608 188.05378 
L 319.987413 187.772809 
L 320.857217 188.068416 
L 321.29212 187.837833 
L 321.509571 187.970232 
L 321.727022 187.969766 
L 322.161924 187.518709 
L 322.814278 187.383715 
L 323.684082 187.25637 
L 323.901533 187.403046 
L 324.771338 187.15581 
L 325.20624 186.906043 
L 325.641142 186.827509 
L 326.293496 186.868685 
L 326.728398 187.116369 
L 327.1633 187.065002 
L 327.380751 187.127266 
L 328.685458 186.589077 
L 329.12036 186.103529 
L 329.337812 185.800735 
L 329.772714 185.742345 
L 330.207616 185.679764 
L 330.642518 185.503301 
L 331.512323 185.879796 
L 332.164676 185.54682 
L 333.034481 185.127538 
L 333.251932 185.208083 
L 335.861346 184.763699 
L 336.296248 184.868363 
L 336.513699 185.086411 
L 336.948601 185.082074 
L 337.383504 185.287628 
L 337.600955 185.226785 
L 338.68821 185.512437 
L 339.123113 185.64516 
L 339.558015 185.456005 
L 339.992917 185.579532 
L 341.515075 184.868859 
L 341.949977 185.116842 
L 342.819782 185.861523 
L 343.037233 185.877204 
L 343.689587 186.198431 
L 344.124489 186.301333 
L 344.559391 186.405706 
L 345.211745 186.205478 
L 345.646647 185.959569 
L 346.733902 186.277969 
L 347.386256 186.057971 
L 347.821158 186.141959 
L 348.25606 185.889655 
L 348.473512 185.858293 
L 348.908414 185.558188 
L 349.125865 185.479663 
L 349.560767 185.010821 
L 349.995669 184.366182 
L 351.300376 183.509782 
L 351.517827 183.471676 
L 351.95273 183.559077 
L 352.387632 183.571008 
L 352.822534 183.763655 
L 353.474888 184.024448 
L 353.90979 184.141298 
L 354.562143 184.329856 
L 354.779594 184.146391 
L 355.214497 184.128426 
L 355.431948 184.208795 
L 355.86685 184.647122 
L 356.519204 184.936919 
L 356.736655 184.878125 
L 356.954106 184.985005 
L 357.389008 184.671421 
L 358.258813 185.149597 
L 359.563519 185.943393 
L 359.780971 185.898661 
L 360.433324 186.31161 
L 361.085677 186.153673 
L 361.52058 185.7356 
L 361.738031 185.780229 
L 362.172933 185.649746 
L 362.607835 185.710677 
L 363.042738 185.683224 
L 363.260189 185.558719 
L 363.47764 185.57637 
L 363.912542 185.773807 
L 364.129993 185.713885 
L 364.999798 185.850074 
L 365.217249 185.75541 
L 365.652151 185.35244 
L 366.521956 185.113093 
L 366.956858 185.169512 
L 367.826663 185.045618 
L 368.261565 185.224859 
L 368.479016 185.229217 
L 369.348821 185.602797 
L 369.783723 185.6437 
L 370.001174 185.602581 
L 370.436076 185.942619 
L 371.523332 185.912881 
L 371.740783 185.965062 
L 373.262941 185.21131 
L 374.132746 185.526749 
L 375.00255 186.231158 
L 375.437452 186.305062 
L 375.872355 186.160257 
L 376.307257 186.189336 
L 378.264317 186.546189 
L 378.916671 186.513021 
L 379.569024 186.474147 
L 380.438828 186.447679 
L 381.091182 186.734235 
L 381.526084 186.818574 
L 381.960986 186.805329 
L 382.395889 186.808239 
L 383.700596 187.354722 
L 384.5704 187.060856 
L 385.005302 187.051999 
L 385.875107 186.409511 
L 386.310009 185.836019 
L 386.744911 185.815815 
L 388.049618 185.716866 
L 388.48452 185.959256 
L 388.701972 185.984951 
L 388.919423 186.153527 
L 389.571776 185.824016 
L 390.006678 185.760059 
L 390.441581 185.499774 
L 390.876483 185.586766 
L 391.746288 185.403799 
L 391.963739 185.424827 
L 392.398641 185.155918 
L 393.485897 185.533781 
L 393.920799 185.738597 
L 394.355701 185.559176 
L 394.573152 185.39612 
L 395.660408 185.444782 
L 396.965115 185.593333 
L 397.617468 185.508833 
L 398.05237 185.772033 
L 398.487273 185.743854 
L 398.487273 185.743854 
" style="fill:none;stroke:#000000;stroke-linecap:square;stroke-width:1.5;"/>
   </g>
   <g id="patch_3">
    <path d="M 57.6 307.584 
L 57.6 41.472 
" style="fill:none;stroke:#000000;stroke-linecap:square;stroke-linejoin:miter;stroke-width:0.8;"/>
   </g>
   <g id="patch_4">
    <path d="M 414.72 307.584 
L 414.72 41.472 
" style="fill:none;stroke:#000000;stroke-linecap:square;stroke-linejoin:miter;stroke-width:0.8;"/>
   </g>
   <g id="patch_5">
    <path d="M 57.6 307.584 
L 414.72 307.584 
" style="fill:none;stroke:#000000;stroke-linecap:square;stroke-linejoin:miter;stroke-width:0.8;"/>
   </g>
   <g id="patch_6">
    <path d="M 57.6 41.472 
L 414.72 41.472 
" style="fill:none;stroke:#000000;stroke-linecap:square;stroke-linejoin:miter;stroke-width:0.8;"/>
   </g>
  </g>
 </g>
 <defs>
  <clipPath id="p1a2ba5ed95">
   <rect height="266.112" width="357.12" x="57.6" y="41.472"/>
  </clipPath>
 </defs>
</svg>
