<?xml version="1.0" encoding="utf-8" standalone="no"?>
<!DOCTYPE svg PUBLIC "-//W3C//DTD SVG 1.1//EN"
  "http://www.w3.org/Graphics/SVG/1.1/DTD/svg11.dtd">
<svg height="345.6pt" version="1.1" viewBox="0 0 460.8 345.6" width="460.8pt" xmlns="http://www.w3.org/2000/svg" xmlns:xlink="http://www.w3.org/1999/xlink">
 <metadata>
  <rdf:RDF xmlns:cc="http://creativecommons.org/ns#" xmlns:dc="http://purl.org/dc/elements/1.1/" xmlns:rdf="http://www.w3.org/1999/02/22-rdf-syntax-ns#">
   <cc:Work>
    <dc:type rdf:resource="http://purl.org/dc/dcmitype/StillImage"/>
    <dc:date>2024-08-06T14:44:39.560766</dc:date>
    <dc:format>image/svg+xml</dc:format>
    <dc:creator>
     <cc:Agent>
      <dc:title>Matplotlib v3.4.2, https://matplotlib.org/</dc:title>
     </cc:Agent>
    </dc:creator>
   </cc:Work>
  </rdf:RDF>
 </metadata>
 <defs>
  <style type="text/css">*{stroke-linecap:butt;stroke-linejoin:round;}</style>
 </defs>
 <g id="figure_1">
  <g id="patch_1">
   <path d="M 0 345.6 
L 460.8 345.6 
L 460.8 0 
L 0 0 
z
" style="fill:#ffffff;"/>
  </g>
  <g id="axes_1">
   <g id="patch_2">
    <path d="M 57.6 307.584 
L 414.72 307.584 
L 414.72 41.472 
L 57.6 41.472 
z
" style="fill:#ffffff;"/>
   </g>
   <g id="matplotlib.axis_1">
    <g id="xtick_1">
     <g id="line2d_1">
      <defs>
       <path d="M 0 0 
L 0 3.5 
" id="m1454426d57" style="stroke:#000000;stroke-width:0.8;"/>
      </defs>
      <g>
       <use style="stroke:#000000;stroke-width:0.8;" x="95.211629" xlink:href="#m1454426d57" y="307.584"/>
      </g>
     </g>
     <g id="text_1">
      <!-- 0.2 -->
      <g transform="translate(87.260067 322.182437)scale(0.1 -0.1)">
       <defs>
        <path d="M 2034 4250 
Q 1547 4250 1301 3770 
Q 1056 3291 1056 2328 
Q 1056 1369 1301 889 
Q 1547 409 2034 409 
Q 2525 409 2770 889 
Q 3016 1369 3016 2328 
Q 3016 3291 2770 3770 
Q 2525 4250 2034 4250 
z
M 2034 4750 
Q 2819 4750 3233 4129 
Q 3647 3509 3647 2328 
Q 3647 1150 3233 529 
Q 2819 -91 2034 -91 
Q 1250 -91 836 529 
Q 422 1150 422 2328 
Q 422 3509 836 4129 
Q 1250 4750 2034 4750 
z
" id="DejaVuSans-30" transform="scale(0.015625)"/>
        <path d="M 684 794 
L 1344 794 
L 1344 0 
L 684 0 
L 684 794 
z
" id="DejaVuSans-2e" transform="scale(0.015625)"/>
        <path d="M 1228 531 
L 3431 531 
L 3431 0 
L 469 0 
L 469 531 
Q 828 903 1448 1529 
Q 2069 2156 2228 2338 
Q 2531 2678 2651 2914 
Q 2772 3150 2772 3378 
Q 2772 3750 2511 3984 
Q 2250 4219 1831 4219 
Q 1534 4219 1204 4116 
Q 875 4013 500 3803 
L 500 4441 
Q 881 4594 1212 4672 
Q 1544 4750 1819 4750 
Q 2544 4750 2975 4387 
Q 3406 4025 3406 3419 
Q 3406 3131 3298 2873 
Q 3191 2616 2906 2266 
Q 2828 2175 2409 1742 
Q 1991 1309 1228 531 
z
" id="DejaVuSans-32" transform="scale(0.015625)"/>
       </defs>
       <use xlink:href="#DejaVuSans-30"/>
       <use x="63.623047" xlink:href="#DejaVuSans-2e"/>
       <use x="95.410156" xlink:href="#DejaVuSans-32"/>
      </g>
     </g>
    </g>
    <g id="xtick_2">
     <g id="line2d_2">
      <g>
       <use style="stroke:#000000;stroke-width:0.8;" x="139.20545" xlink:href="#m1454426d57" y="307.584"/>
      </g>
     </g>
     <g id="text_2">
      <!-- 0.4 -->
      <g transform="translate(131.253887 322.182437)scale(0.1 -0.1)">
       <defs>
        <path d="M 2419 4116 
L 825 1625 
L 2419 1625 
L 2419 4116 
z
M 2253 4666 
L 3047 4666 
L 3047 1625 
L 3713 1625 
L 3713 1100 
L 3047 1100 
L 3047 0 
L 2419 0 
L 2419 1100 
L 313 1100 
L 313 1709 
L 2253 4666 
z
" id="DejaVuSans-34" transform="scale(0.015625)"/>
       </defs>
       <use xlink:href="#DejaVuSans-30"/>
       <use x="63.623047" xlink:href="#DejaVuSans-2e"/>
       <use x="95.410156" xlink:href="#DejaVuSans-34"/>
      </g>
     </g>
    </g>
    <g id="xtick_3">
     <g id="line2d_3">
      <g>
       <use style="stroke:#000000;stroke-width:0.8;" x="183.19927" xlink:href="#m1454426d57" y="307.584"/>
      </g>
     </g>
     <g id="text_3">
      <!-- 0.6 -->
      <g transform="translate(175.247707 322.182437)scale(0.1 -0.1)">
       <defs>
        <path d="M 2113 2584 
Q 1688 2584 1439 2293 
Q 1191 2003 1191 1497 
Q 1191 994 1439 701 
Q 1688 409 2113 409 
Q 2538 409 2786 701 
Q 3034 994 3034 1497 
Q 3034 2003 2786 2293 
Q 2538 2584 2113 2584 
z
M 3366 4563 
L 3366 3988 
Q 3128 4100 2886 4159 
Q 2644 4219 2406 4219 
Q 1781 4219 1451 3797 
Q 1122 3375 1075 2522 
Q 1259 2794 1537 2939 
Q 1816 3084 2150 3084 
Q 2853 3084 3261 2657 
Q 3669 2231 3669 1497 
Q 3669 778 3244 343 
Q 2819 -91 2113 -91 
Q 1303 -91 875 529 
Q 447 1150 447 2328 
Q 447 3434 972 4092 
Q 1497 4750 2381 4750 
Q 2619 4750 2861 4703 
Q 3103 4656 3366 4563 
z
" id="DejaVuSans-36" transform="scale(0.015625)"/>
       </defs>
       <use xlink:href="#DejaVuSans-30"/>
       <use x="63.623047" xlink:href="#DejaVuSans-2e"/>
       <use x="95.410156" xlink:href="#DejaVuSans-36"/>
      </g>
     </g>
    </g>
    <g id="xtick_4">
     <g id="line2d_4">
      <g>
       <use style="stroke:#000000;stroke-width:0.8;" x="227.19309" xlink:href="#m1454426d57" y="307.584"/>
      </g>
     </g>
     <g id="text_4">
      <!-- 0.8 -->
      <g transform="translate(219.241528 322.182437)scale(0.1 -0.1)">
       <defs>
        <path d="M 2034 2216 
Q 1584 2216 1326 1975 
Q 1069 1734 1069 1313 
Q 1069 891 1326 650 
Q 1584 409 2034 409 
Q 2484 409 2743 651 
Q 3003 894 3003 1313 
Q 3003 1734 2745 1975 
Q 2488 2216 2034 2216 
z
M 1403 2484 
Q 997 2584 770 2862 
Q 544 3141 544 3541 
Q 544 4100 942 4425 
Q 1341 4750 2034 4750 
Q 2731 4750 3128 4425 
Q 3525 4100 3525 3541 
Q 3525 3141 3298 2862 
Q 3072 2584 2669 2484 
Q 3125 2378 3379 2068 
Q 3634 1759 3634 1313 
Q 3634 634 3220 271 
Q 2806 -91 2034 -91 
Q 1263 -91 848 271 
Q 434 634 434 1313 
Q 434 1759 690 2068 
Q 947 2378 1403 2484 
z
M 1172 3481 
Q 1172 3119 1398 2916 
Q 1625 2713 2034 2713 
Q 2441 2713 2670 2916 
Q 2900 3119 2900 3481 
Q 2900 3844 2670 4047 
Q 2441 4250 2034 4250 
Q 1625 4250 1398 4047 
Q 1172 3844 1172 3481 
z
" id="DejaVuSans-38" transform="scale(0.015625)"/>
       </defs>
       <use xlink:href="#DejaVuSans-30"/>
       <use x="63.623047" xlink:href="#DejaVuSans-2e"/>
       <use x="95.410156" xlink:href="#DejaVuSans-38"/>
      </g>
     </g>
    </g>
    <g id="xtick_5">
     <g id="line2d_5">
      <g>
       <use style="stroke:#000000;stroke-width:0.8;" x="271.18691" xlink:href="#m1454426d57" y="307.584"/>
      </g>
     </g>
     <g id="text_5">
      <!-- 1.0 -->
      <g transform="translate(263.235348 322.182437)scale(0.1 -0.1)">
       <defs>
        <path d="M 794 531 
L 1825 531 
L 1825 4091 
L 703 3866 
L 703 4441 
L 1819 4666 
L 2450 4666 
L 2450 531 
L 3481 531 
L 3481 0 
L 794 0 
L 794 531 
z
" id="DejaVuSans-31" transform="scale(0.015625)"/>
       </defs>
       <use xlink:href="#DejaVuSans-31"/>
       <use x="63.623047" xlink:href="#DejaVuSans-2e"/>
       <use x="95.410156" xlink:href="#DejaVuSans-30"/>
      </g>
     </g>
    </g>
    <g id="xtick_6">
     <g id="line2d_6">
      <g>
       <use style="stroke:#000000;stroke-width:0.8;" x="315.18073" xlink:href="#m1454426d57" y="307.584"/>
      </g>
     </g>
     <g id="text_6">
      <!-- 1.2 -->
      <g transform="translate(307.229168 322.182437)scale(0.1 -0.1)">
       <use xlink:href="#DejaVuSans-31"/>
       <use x="63.623047" xlink:href="#DejaVuSans-2e"/>
       <use x="95.410156" xlink:href="#DejaVuSans-32"/>
      </g>
     </g>
    </g>
    <g id="xtick_7">
     <g id="line2d_7">
      <g>
       <use style="stroke:#000000;stroke-width:0.8;" x="359.174551" xlink:href="#m1454426d57" y="307.584"/>
      </g>
     </g>
     <g id="text_7">
      <!-- 1.4 -->
      <g transform="translate(351.222988 322.182437)scale(0.1 -0.1)">
       <use xlink:href="#DejaVuSans-31"/>
       <use x="63.623047" xlink:href="#DejaVuSans-2e"/>
       <use x="95.410156" xlink:href="#DejaVuSans-34"/>
      </g>
     </g>
    </g>
    <g id="xtick_8">
     <g id="line2d_8">
      <g>
       <use style="stroke:#000000;stroke-width:0.8;" x="403.168371" xlink:href="#m1454426d57" y="307.584"/>
      </g>
     </g>
     <g id="text_8">
      <!-- 1.6 -->
      <g transform="translate(395.216808 322.182437)scale(0.1 -0.1)">
       <use xlink:href="#DejaVuSans-31"/>
       <use x="63.623047" xlink:href="#DejaVuSans-2e"/>
       <use x="95.410156" xlink:href="#DejaVuSans-36"/>
      </g>
     </g>
    </g>
   </g>
   <g id="matplotlib.axis_2">
    <g id="ytick_1">
     <g id="line2d_9">
      <defs>
       <path d="M 0 0 
L -3.5 0 
" id="mc1a613322c" style="stroke:#000000;stroke-width:0.8;"/>
      </defs>
      <g>
       <use style="stroke:#000000;stroke-width:0.8;" x="57.6" xlink:href="#mc1a613322c" y="261.678317"/>
      </g>
     </g>
     <g id="text_9">
      <!-- −80 -->
      <g transform="translate(29.495313 265.477536)scale(0.1 -0.1)">
       <defs>
        <path d="M 678 2272 
L 4684 2272 
L 4684 1741 
L 678 1741 
L 678 2272 
z
" id="DejaVuSans-2212" transform="scale(0.015625)"/>
       </defs>
       <use xlink:href="#DejaVuSans-2212"/>
       <use x="83.789062" xlink:href="#DejaVuSans-38"/>
       <use x="147.412109" xlink:href="#DejaVuSans-30"/>
      </g>
     </g>
    </g>
    <g id="ytick_2">
     <g id="line2d_10">
      <g>
       <use style="stroke:#000000;stroke-width:0.8;" x="57.6" xlink:href="#mc1a613322c" y="212.448721"/>
      </g>
     </g>
     <g id="text_10">
      <!-- −60 -->
      <g transform="translate(29.495313 216.24794)scale(0.1 -0.1)">
       <use xlink:href="#DejaVuSans-2212"/>
       <use x="83.789062" xlink:href="#DejaVuSans-36"/>
       <use x="147.412109" xlink:href="#DejaVuSans-30"/>
      </g>
     </g>
    </g>
    <g id="ytick_3">
     <g id="line2d_11">
      <g>
       <use style="stroke:#000000;stroke-width:0.8;" x="57.6" xlink:href="#mc1a613322c" y="163.219125"/>
      </g>
     </g>
     <g id="text_11">
      <!-- −40 -->
      <g transform="translate(29.495313 167.018344)scale(0.1 -0.1)">
       <use xlink:href="#DejaVuSans-2212"/>
       <use x="83.789062" xlink:href="#DejaVuSans-34"/>
       <use x="147.412109" xlink:href="#DejaVuSans-30"/>
      </g>
     </g>
    </g>
    <g id="ytick_4">
     <g id="line2d_12">
      <g>
       <use style="stroke:#000000;stroke-width:0.8;" x="57.6" xlink:href="#mc1a613322c" y="113.989529"/>
      </g>
     </g>
     <g id="text_12">
      <!-- −20 -->
      <g transform="translate(29.495313 117.788748)scale(0.1 -0.1)">
       <use xlink:href="#DejaVuSans-2212"/>
       <use x="83.789062" xlink:href="#DejaVuSans-32"/>
       <use x="147.412109" xlink:href="#DejaVuSans-30"/>
      </g>
     </g>
    </g>
    <g id="ytick_5">
     <g id="line2d_13">
      <g>
       <use style="stroke:#000000;stroke-width:0.8;" x="57.6" xlink:href="#mc1a613322c" y="64.759933"/>
      </g>
     </g>
     <g id="text_13">
      <!-- 0 -->
      <g transform="translate(44.2375 68.559152)scale(0.1 -0.1)">
       <use xlink:href="#DejaVuSans-30"/>
      </g>
     </g>
    </g>
   </g>
   <g id="line2d_14">
    <path clip-path="url(#p714cf1dd32)" d="M 73.832727 180.34068 
L 74.702532 180.73817 
L 75.572336 181.355908 
L 76.007239 181.904858 
L 76.22469 181.92931 
L 76.659592 182.192176 
L 76.877043 182.136574 
L 78.834103 182.986667 
L 79.051555 183.334306 
L 79.486457 189.953563 
L 80.791164 208.32999 
L 81.660968 217.791164 
L 83.183126 231.570286 
L 84.705284 242.771608 
L 85.357637 246.415183 
L 88.619404 260.832481 
L 89.924111 265.167341 
L 92.098623 270.749701 
L 92.968427 272.130085 
L 94.708036 275.222878 
L 95.577841 276.650756 
L 96.665097 278.215606 
L 97.099999 278.701588 
L 97.534901 279.215512 
L 98.839608 280.677021 
L 99.709412 281.492689 
L 101.449021 282.788723 
L 104.058435 284.505969 
L 104.275886 284.549283 
L 106.450398 286.057751 
L 107.102751 286.376674 
L 107.755104 286.664787 
L 107.972556 286.74657 
L 108.407458 286.65345 
L 108.84236 286.811894 
L 110.147067 286.881313 
L 110.79942 286.691114 
L 111.234323 286.627507 
L 111.886676 286.69189 
L 112.756481 286.659595 
L 113.191383 286.740308 
L 113.626285 286.745687 
L 116.018248 287.187863 
L 117.975308 287.761938 
L 118.41021 287.910646 
L 118.627661 288.028822 
L 119.062563 288.03591 
L 119.932368 288.214414 
L 120.36727 288.263845 
L 120.802173 288.139363 
L 121.454526 288.131481 
L 121.889428 288.136583 
L 122.976684 288.417866 
L 123.411586 288.482222 
L 124.281391 288.799916 
L 126.238451 289.209786 
L 126.673353 289.317318 
L 127.108255 289.351265 
L 127.543158 289.323242 
L 127.97806 289.408029 
L 128.412962 289.513031 
L 128.847865 289.526861 
L 129.500218 289.672163 
L 130.152571 289.688857 
L 130.804925 289.741444 
L 131.457278 289.730747 
L 131.674729 289.662521 
L 132.544534 289.944981 
L 133.196887 290.024371 
L 133.849241 290.170566 
L 134.936496 290.190356 
L 135.371399 290.289012 
L 135.806301 290.279401 
L 136.458654 290.425541 
L 138.415715 290.643405 
L 140.372775 290.747159 
L 141.242579 290.871411 
L 141.894933 291.122744 
L 142.764737 291.194649 
L 145.591602 291.743085 
L 146.026504 291.927474 
L 146.678858 291.976164 
L 148.201016 292.305155 
L 149.505722 292.390777 
L 151.02788 292.642538 
L 151.462783 292.675887 
L 151.897685 292.681894 
L 152.332587 292.71333 
L 152.767489 292.797754 
L 154.942001 293.046129 
L 155.376903 293.075208 
L 155.594354 293.167355 
L 156.246708 292.901749 
L 156.464159 292.541575 
L 157.333963 292.687715 
L 157.768866 292.601033 
L 158.421219 292.763882 
L 158.856121 290.918397 
L 159.508475 288.120726 
L 160.378279 288.690852 
L 161.682986 289.264177 
L 163.640046 289.947985 
L 164.074949 290.035105 
L 164.727302 290.054611 
L 165.814558 290.192566 
L 166.24946 290.332131 
L 166.901813 290.552375 
L 167.119264 290.562721 
L 167.554167 289.952731 
L 167.989069 290.144738 
L 168.423971 290.27308 
L 168.641422 290.237139 
L 169.511227 290.483719 
L 172.120641 291.050813 
L 173.642799 291.130805 
L 174.077701 290.991398 
L 174.512603 291.07529 
L 175.382408 291.273351 
L 176.469663 291.42937 
L 177.556919 291.43 
L 177.991821 291.55967 
L 178.426723 291.58072 
L 179.73143 291.82277 
L 180.818686 291.913138 
L 181.253588 292.005855 
L 184.732806 292.449214 
L 185.167709 292.406456 
L 185.820062 292.507517 
L 187.34222 292.659594 
L 187.777122 292.674167 
L 188.864378 292.783017 
L 189.516731 292.743212 
L 190.386536 292.76898 
L 190.821438 292.766341 
L 191.473792 292.854248 
L 194.083205 292.785982 
L 195.387912 293.015353 
L 196.475168 293.020626 
L 197.127521 293.100824 
L 197.562423 293.074876 
L 197.997326 293.167901 
L 200.389288 293.476115 
L 201.476544 293.489966 
L 204.52086 294.050406 
L 204.955762 294.079551 
L 205.608115 294.114958 
L 206.47792 294.132698 
L 206.912822 294.216164 
L 207.347725 294.258631 
L 207.782627 294.418532 
L 208.43498 294.312232 
L 208.652431 294.044336 
L 209.522236 294.127407 
L 210.609492 294.229409 
L 211.044394 294.296202 
L 211.479296 294.315105 
L 213.436356 294.588895 
L 214.306161 294.554745 
L 216.480672 294.894778 
L 217.567928 295.048853 
L 218.220281 295.004761 
L 219.090086 295.077511 
L 219.742439 295.032729 
L 220.177342 295.167104 
L 221.047146 295.180895 
L 221.699499 295.277909 
L 222.351853 295.192841 
L 222.786755 295.251382 
L 229.092838 295.45658 
L 229.52774 295.325583 
L 231.049898 295.356549 
L 231.267349 295.359339 
L 231.484801 295.488 
L 231.919703 294.744903 
L 232.354605 294.933275 
L 233.441861 294.962084 
L 234.311665 295.07413 
L 234.746568 294.876831 
L 234.964019 294.871318 
L 236.051274 293.616585 
L 236.486177 293.406084 
L 236.921079 293.412788 
L 237.355981 293.393161 
L 239.530493 293.898947 
L 239.747944 293.964285 
L 240.182846 293.782637 
L 240.617748 293.985446 
L 241.052651 293.782395 
L 241.270102 293.600974 
L 242.79226 293.502211 
L 244.966771 294.07309 
L 245.184222 294.022728 
L 246.054027 294.199869 
L 246.70638 294.208228 
L 247.576185 294.254192 
L 248.445989 294.33375 
L 249.098343 294.526992 
L 249.533245 294.496831 
L 250.620501 294.664657 
L 250.837952 294.594866 
L 251.490305 294.675539 
L 252.577561 294.784968 
L 253.012463 294.952746 
L 258.883644 295.318367 
L 259.535997 295.256694 
L 261.92796 295.339631 
L 262.145411 294.972674 
L 262.580313 292.648917 
L 262.797764 292.560195 
L 263.450118 292.731362 
L 264.319922 292.896273 
L 264.754824 292.899709 
L 265.624629 293.290294 
L 269.7562 293.916409 
L 270.191103 293.904186 
L 270.843456 293.997663 
L 271.278358 294.090242 
L 271.713261 294.073339 
L 272.148163 294.19877 
L 273.017967 294.244664 
L 273.45287 294.40841 
L 273.887772 294.382887 
L 274.322674 293.33935 
L 274.540125 293.437454 
L 274.757577 293.352868 
L 275.192479 293.382074 
L 275.844832 293.08216 
L 276.497186 293.188788 
L 278.454246 293.515504 
L 280.628757 293.348998 
L 281.06366 293.409121 
L 281.498562 293.455803 
L 282.150915 293.542783 
L 283.238171 293.103763 
L 283.673073 293.115212 
L 284.325427 293.095652 
L 286.499938 293.330321 
L 286.93484 293.391706 
L 288.239547 293.435218 
L 288.456998 293.581126 
L 288.674449 293.541204 
L 288.8919 292.682094 
L 289.544254 288.973913 
L 290.196607 286.877246 
L 291.283863 287.790628 
L 291.501314 287.892984 
L 291.936216 287.567178 
L 292.371119 287.859356 
L 292.806021 288.226439 
L 293.893277 288.831749 
L 294.110728 288.445476 
L 294.328179 288.294635 
L 294.980532 288.776183 
L 295.415434 288.940653 
L 295.850337 289.283678 
L 296.067788 289.245549 
L 296.285239 289.433593 
L 296.50269 289.392176 
L 296.937592 283.096002 
L 298.45975 261.970607 
L 300.416811 239.242085 
L 303.678578 205.188097 
L 304.330931 196.173277 
L 305.200736 180.502936 
L 305.418187 173.844712 
L 306.287991 112.875933 
L 306.505442 102.529962 
L 306.722894 99.150026 
L 306.940345 100.47024 
L 308.462503 125.544229 
L 308.897405 128.794012 
L 309.332307 130.777378 
L 309.767209 131.104064 
L 309.984661 130.835289 
L 310.637014 129.162245 
L 311.289367 126.409195 
L 311.506818 125.735424 
L 311.72427 125.426585 
L 312.376623 125.215492 
L 312.594074 125.351335 
L 313.246428 126.140745 
L 313.68133 125.812382 
L 313.898781 125.788033 
L 314.551134 125.01874 
L 315.203488 123.716298 
L 316.508195 121.893519 
L 316.943097 120.711903 
L 317.160548 120.560581 
L 317.377999 120.545962 
L 317.59545 120.309736 
L 317.812901 120.325974 
L 318.900157 122.202107 
L 319.987413 123.987709 
L 320.422315 124.588011 
L 322.596826 130.988236 
L 322.814278 130.927348 
L 323.24918 131.863662 
L 323.684082 132.227981 
L 325.641142 135.329325 
L 326.076045 135.628063 
L 326.728398 135.579241 
L 328.250556 136.007241 
L 328.468007 135.914314 
L 328.902909 136.029037 
L 329.12036 135.911682 
L 329.772714 136.837778 
L 329.990165 136.926304 
L 330.425067 137.686758 
L 330.642518 137.663695 
L 331.294872 137.220077 
L 331.512323 137.296961 
L 331.947225 137.228642 
L 332.382128 137.366092 
L 332.81703 137.678981 
L 333.251932 137.859339 
L 333.686834 138.232004 
L 335.426443 141.482118 
L 335.861346 141.836024 
L 336.078797 142.137325 
L 336.948601 142.336675 
L 337.383504 142.754405 
L 337.600955 142.797563 
L 339.123113 144.119401 
L 340.645271 145.983858 
L 341.297624 147.572614 
L 341.732526 148.090107 
L 341.949977 148.327353 
L 342.167429 148.343194 
L 343.037233 149.764037 
L 344.34194 151.773641 
L 345.646647 154.15468 
L 346.081549 154.570901 
L 346.951354 155.810431 
L 347.168805 155.740023 
L 347.603707 155.400168 
L 347.821158 155.513043 
L 348.25606 156.033039 
L 348.690963 156.367725 
L 348.908414 156.134641 
L 349.125865 156.190252 
L 349.778218 156.937737 
L 350.648023 157.694127 
L 351.517827 158.37875 
L 352.605083 159.917563 
L 353.692339 160.8125 
L 354.127241 161.057189 
L 354.562143 161.449687 
L 355.649399 162.081998 
L 356.084301 162.54915 
L 356.301752 162.643963 
L 356.954106 163.228027 
L 357.171557 163.284037 
L 358.041362 163.89764 
L 358.476264 164.00985 
L 358.911166 164.195258 
L 359.346068 164.464969 
L 359.780971 164.668061 
L 360.215873 164.853775 
L 360.650775 164.837153 
L 361.955482 165.360752 
L 362.390384 165.31784 
L 363.042738 165.667728 
L 363.260189 165.899774 
L 363.912542 166.10299 
L 364.129993 165.862246 
L 364.782347 165.873964 
L 365.217249 165.352304 
L 365.652151 165.665919 
L 366.087054 165.971346 
L 366.521956 166.131229 
L 367.609211 166.799722 
L 368.044114 166.902475 
L 368.696467 165.465214 
L 369.348821 164.08355 
L 369.783723 163.804135 
L 370.001174 163.851329 
L 370.436076 163.446466 
L 371.740783 164.496394 
L 373.04549 165.369086 
L 375.220001 166.10187 
L 375.437452 166.09436 
L 375.872355 166.230516 
L 376.307257 166.081473 
L 377.611964 165.949904 
L 378.046866 166.267282 
L 378.264317 166.317016 
L 378.481768 166.107786 
L 379.134122 164.608676 
L 380.003926 164.570626 
L 380.438828 163.99998 
L 380.873731 163.208108 
L 381.091182 162.990299 
L 381.308633 162.939186 
L 381.743535 163.131628 
L 383.048242 163.751081 
L 383.700596 164.02709 
L 383.918047 164.126172 
L 385.657656 163.957868 
L 385.875107 164.030394 
L 386.310009 164.396743 
L 386.744911 164.477302 
L 387.179814 164.315971 
L 387.397265 164.267481 
L 387.832167 164.3669 
L 388.049618 164.279263 
L 389.354325 165.24919 
L 389.789227 165.02188 
L 390.22413 165.280542 
L 390.441581 165.22844 
L 390.876483 164.404379 
L 391.093934 163.925026 
L 391.311385 163.929803 
L 391.746288 164.341295 
L 391.963739 164.424826 
L 392.616092 163.323588 
L 392.833543 163.011634 
L 393.050994 163.069827 
L 393.268445 163.307944 
L 393.485897 163.370921 
L 394.355701 163.982087 
L 394.573152 164.033094 
L 395.008055 163.46813 
L 395.225506 163.574889 
L 396.312761 164.700834 
L 396.530213 164.75769 
L 397.182566 165.394267 
L 397.617468 165.522312 
L 397.834919 165.388359 
L 398.269822 165.449466 
L 398.487273 165.556507 
L 398.487273 165.556507 
" style="fill:none;stroke:#000000;stroke-linecap:square;stroke-width:1.5;"/>
   </g>
   <g id="line2d_15">
    <path clip-path="url(#p714cf1dd32)" d="M 73.832727 182.451858 
L 74.26763 182.43343 
L 74.919983 182.487862 
L 75.572336 182.354527 
L 76.22469 182.257321 
L 76.877043 182.320357 
L 77.529397 182.235433 
L 77.964299 182.36433 
L 79.051555 182.750901 
L 79.486457 185.384559 
L 81.008615 194.094774 
L 82.313322 200.301207 
L 83.618028 204.854925 
L 84.705284 207.757564 
L 87.097247 212.738814 
L 88.184502 214.783367 
L 89.924111 217.195707 
L 91.011367 218.206263 
L 91.881172 218.87958 
L 92.968427 219.97512 
L 93.838232 220.694392 
L 94.490585 221.013058 
L 95.142939 221.030304 
L 96.012743 221.48619 
L 96.882548 221.736824 
L 97.31745 222.039886 
L 98.187254 222.30269 
L 100.361766 223.181512 
L 100.796668 223.107321 
L 101.23157 223.218985 
L 102.101375 223.289859 
L 106.015495 223.962354 
L 106.232946 223.657056 
L 106.8853 221.749301 
L 107.102751 221.646124 
L 107.755104 221.883513 
L 108.407458 222.13953 
L 110.364518 222.293753 
L 111.234323 222.148396 
L 112.104127 222.11257 
L 112.539029 222.157988 
L 115.365894 222.224889 
L 115.800796 222.133153 
L 117.105503 222.258445 
L 117.975308 222.30441 
L 118.845112 221.81996 
L 119.280015 221.834762 
L 120.36727 221.499032 
L 120.802173 221.499789 
L 121.889428 221.51082 
L 122.324331 221.176336 
L 123.411586 221.137142 
L 124.281391 220.979493 
L 124.498842 221.024797 
L 125.151195 220.838714 
L 125.368646 220.797545 
L 126.021 220.951523 
L 126.890804 220.922446 
L 127.760609 220.780443 
L 129.93512 220.987744 
L 130.804925 221.071397 
L 133.196887 220.732777 
L 133.63179 220.429534 
L 136.023752 219.781548 
L 136.676105 219.676624 
L 137.763361 219.497184 
L 138.415715 219.559802 
L 139.068068 219.316332 
L 139.720421 219.077301 
L 140.807677 218.829117 
L 141.46003 218.730081 
L 142.112384 218.491106 
L 142.329835 218.565988 
L 144.939249 218.152247 
L 145.374151 218.221907 
L 145.809053 218.168107 
L 146.243955 217.778693 
L 147.331211 217.170644 
L 147.766113 217.202875 
L 148.635918 216.868864 
L 149.723174 216.869491 
L 150.158076 216.859369 
L 152.550038 217.085087 
L 152.984941 217.050192 
L 153.202392 217.137051 
L 153.637294 217.098388 
L 153.854745 217.200084 
L 154.289647 217.180919 
L 155.594354 217.594479 
L 156.029257 217.549991 
L 156.246708 217.686808 
L 156.464159 217.559745 
L 156.899061 217.007798 
L 157.333963 217.237124 
L 159.508475 217.294898 
L 159.943377 217.229429 
L 160.378279 217.235874 
L 164.2924 217.006886 
L 164.727302 217.046235 
L 165.379655 216.968052 
L 166.684362 217.093108 
L 167.119264 217.329979 
L 167.989069 217.413838 
L 168.423971 217.3821 
L 168.858874 217.432809 
L 169.076325 217.258887 
L 169.293776 216.540714 
L 169.511227 216.257314 
L 169.728678 216.388723 
L 169.946129 216.356007 
L 170.381031 216.437193 
L 170.815934 216.455453 
L 171.468287 216.557015 
L 171.903189 216.521121 
L 172.555543 216.476931 
L 172.990445 216.372751 
L 173.425347 216.239407 
L 173.86025 216.225854 
L 174.295152 216.183934 
L 175.164956 216.156187 
L 175.599859 216.290685 
L 176.034761 216.376727 
L 176.469663 216.437855 
L 177.339468 216.50127 
L 177.77437 216.521514 
L 179.079077 216.469511 
L 179.73143 216.315465 
L 179.948881 215.885455 
L 180.601235 215.70949 
L 181.253588 215.694795 
L 182.775746 215.652509 
L 183.645551 215.215965 
L 184.297904 215.0366 
L 185.38516 214.5642 
L 185.602611 214.136411 
L 186.254964 212.049515 
L 186.472416 211.95317 
L 186.689867 212.118623 
L 187.34222 212.154882 
L 187.994573 212.426102 
L 188.429476 212.497912 
L 188.864378 212.274184 
L 189.516731 212.424375 
L 189.951634 212.438755 
L 190.169085 212.565654 
L 190.386536 212.343588 
L 190.821438 211.402778 
L 191.038889 211.040012 
L 191.25634 210.459209 
L 191.691243 210.129594 
L 192.126145 209.387847 
L 192.561047 208.965511 
L 192.99595 209.318558 
L 193.648303 208.615329 
L 193.865754 208.735305 
L 194.300656 208.423368 
L 194.518108 208.448494 
L 194.95301 208.792214 
L 195.170461 208.37808 
L 195.387912 208.379311 
L 195.605363 208.693237 
L 195.822814 208.658266 
L 196.475168 208.09627 
L 197.562423 209.353247 
L 200.389288 211.448011 
L 200.82419 211.706357 
L 201.693995 212.376167 
L 202.781251 212.962483 
L 203.651055 213.533526 
L 204.303409 213.964461 
L 204.738311 214.091584 
L 205.173213 214.332366 
L 205.825567 214.38868 
L 208.000078 214.11579 
L 208.217529 214.21754 
L 209.087334 214.202347 
L 209.739687 214.283366 
L 211.261845 214.543133 
L 212.566552 214.519816 
L 213.436356 214.351089 
L 214.523612 214.270954 
L 216.04577 214.128147 
L 217.567928 214.372103 
L 219.090086 214.421621 
L 220.177342 214.188981 
L 220.829695 214.36856 
L 221.916951 214.208336 
L 222.351853 214.236472 
L 222.786755 214.006837 
L 224.961267 213.848646 
L 226.483424 214.138322 
L 227.353229 214.062955 
L 228.223034 213.777057 
L 228.657936 213.746496 
L 228.875387 213.863139 
L 229.52774 213.780342 
L 230.832447 213.824665 
L 232.137154 213.759977 
L 232.572056 213.699914 
L 233.22441 213.808967 
L 234.094214 213.550595 
L 236.268726 212.969138 
L 236.703628 212.78073 
L 237.355981 212.934882 
L 237.790884 212.811304 
L 238.878139 213.02706 
L 239.530493 212.911544 
L 240.835199 212.710814 
L 241.487553 212.732454 
L 242.357357 212.525844 
L 245.401673 212.517318 
L 246.488929 212.345873 
L 247.358733 212.346424 
L 247.793636 212.2581 
L 248.445989 212.316456 
L 249.315794 212.187865 
L 249.750696 212.263206 
L 251.925207 211.438783 
L 252.577561 211.379942 
L 253.229914 211.313001 
L 254.099719 211.366673 
L 254.969523 211.264786 
L 257.578937 211.166111 
L 257.796388 211.245058 
L 259.101095 211.075133 
L 259.535997 211.03004 
L 260.18835 210.845467 
L 264.537373 211.044059 
L 265.407178 211.334183 
L 265.84208 211.54429 
L 267.581689 211.492949 
L 268.234043 211.346666 
L 269.103847 211.318148 
L 269.7562 211.191837 
L 270.408554 211.027647 
L 271.278358 210.840074 
L 272.148163 210.702217 
L 272.583065 210.544255 
L 273.887772 210.62899 
L 274.757577 210.518192 
L 275.40993 210.480598 
L 276.932088 210.598787 
L 277.36699 210.497944 
L 277.801892 210.310973 
L 279.976404 210.510138 
L 281.716013 210.678363 
L 282.150915 210.718834 
L 282.585817 210.850911 
L 285.630133 210.120179 
L 286.065036 209.6272 
L 286.499938 209.743968 
L 286.93484 209.926635 
L 287.587194 209.769582 
L 288.8919 206.647345 
L 289.109352 206.395616 
L 290.631509 207.112306 
L 290.848961 206.877679 
L 291.501314 205.333034 
L 294.980532 207.08301 
L 296.067788 207.307948 
L 296.285239 207.489727 
L 296.50269 207.356469 
L 297.372495 202.414856 
L 298.45975 196.69007 
L 299.981908 190.08648 
L 301.721517 183.465272 
L 303.461126 178.011924 
L 304.330931 175.849267 
L 305.418187 172.589947 
L 306.07054 170.791461 
L 306.287991 170.156488 
L 306.505442 168.422359 
L 307.157796 144.890264 
L 307.592698 141.73241 
L 308.0276 139.869531 
L 308.245051 139.829466 
L 308.462503 139.658693 
L 308.679954 139.683331 
L 308.897405 139.546965 
L 309.549758 137.484665 
L 309.984661 135.666402 
L 311.071916 132.33093 
L 311.506818 130.769664 
L 311.941721 128.744272 
L 312.811525 127.966086 
L 313.028976 127.95909 
L 313.246428 127.831842 
L 313.463879 127.905332 
L 314.116232 129.124628 
L 314.768586 130.814844 
L 314.986037 131.155736 
L 315.855841 131.622036 
L 316.725646 132.541676 
L 317.160548 133.59258 
L 318.465255 139.337828 
L 319.769962 144.58323 
L 320.204864 145.909 
L 321.074668 149.240281 
L 324.118984 158.012426 
L 325.423691 160.455996 
L 327.598203 163.19797 
L 328.033105 163.821124 
L 328.250556 164.006836 
L 328.902909 165.189912 
L 329.555263 166.464041 
L 330.85997 167.804834 
L 331.294872 167.932174 
L 332.164676 168.665354 
L 332.81703 169.387596 
L 333.469383 169.669387 
L 333.686834 169.688842 
L 335.861346 171.250369 
L 336.513699 172.002883 
L 337.166052 172.655271 
L 337.600955 173.013048 
L 339.123113 173.379344 
L 339.558015 173.428529 
L 340.210368 173.861805 
L 340.645271 173.902448 
L 340.862722 173.818806 
L 341.297624 174.071045 
L 341.732526 174.414261 
L 342.38488 174.652065 
L 343.254684 175.207891 
L 343.907038 175.392609 
L 344.559391 176.039201 
L 344.776842 176.11439 
L 344.994293 176.005428 
L 345.211745 175.70433 
L 345.429196 175.610611 
L 346.081549 175.899424 
L 346.951354 176.000162 
L 347.821158 175.988287 
L 348.25606 176.212437 
L 348.908414 176.517552 
L 349.343316 176.721972 
L 349.778218 176.94415 
L 349.995669 176.949027 
L 350.430572 176.744868 
L 350.648023 176.783863 
L 351.082925 177.064973 
L 351.517827 177.06026 
L 351.95273 177.036788 
L 353.039985 177.043999 
L 355.649399 177.911271 
L 356.084301 178.138839 
L 356.954106 178.778755 
L 357.82391 179.273182 
L 358.258813 179.487044 
L 358.693715 179.567373 
L 359.563519 179.544852 
L 359.998422 179.612081 
L 360.433324 179.61178 
L 360.868226 179.648323 
L 361.52058 179.458808 
L 362.825286 179.369644 
L 363.912542 179.47819 
L 364.564896 179.288764 
L 365.869602 179.43339 
L 366.521956 179.695827 
L 366.956858 179.601946 
L 367.609211 179.741165 
L 368.044114 179.695315 
L 368.479016 179.753165 
L 368.913918 179.93275 
L 369.783723 179.92126 
L 371.08843 179.630761 
L 371.740783 179.555266 
L 372.610588 179.17511 
L 375.654903 179.588888 
L 376.089806 179.595837 
L 376.307257 179.643707 
L 376.742159 179.543375 
L 377.177061 179.617848 
L 377.829415 179.08258 
L 378.699219 179.055473 
L 378.916671 178.790783 
L 379.134122 178.222703 
L 379.351573 177.989134 
L 380.438828 178.204872 
L 381.091182 178.240106 
L 381.308633 178.289782 
L 382.830791 177.893456 
L 384.135498 178.035188 
L 384.787851 178.145126 
L 385.875107 178.578969 
L 386.52746 178.576968 
L 386.962363 178.630112 
L 388.701972 178.014562 
L 388.919423 178.022068 
L 390.006678 178.556422 
L 390.441581 178.669391 
L 390.659032 178.60514 
L 391.311385 178.741622 
L 391.963739 178.647265 
L 392.398641 178.686343 
L 393.050994 178.51851 
L 395.442957 178.169585 
L 395.877859 178.265274 
L 397.400017 177.720684 
L 398.487273 177.881349 
L 398.487273 177.881349 
" style="fill:none;stroke:#000000;stroke-linecap:square;stroke-width:1.5;"/>
   </g>
   <g id="line2d_16">
    <path clip-path="url(#p714cf1dd32)" d="M 73.832727 190.807687 
L 74.26763 190.699357 
L 74.702532 190.706248 
L 75.137434 190.553544 
L 75.572336 190.793875 
L 76.442141 190.750467 
L 77.529397 190.905224 
L 77.964299 190.802285 
L 78.399201 190.82151 
L 79.051555 190.808877 
L 79.921359 185.619488 
L 80.791164 180.686309 
L 83.618028 167.826648 
L 84.705284 163.369842 
L 85.575089 159.10926 
L 85.79254 157.20822 
L 86.662344 129.569406 
L 87.532149 117.051174 
L 87.967051 114.03759 
L 88.401953 112.66586 
L 88.619404 112.248389 
L 88.836856 112.584716 
L 89.271758 114.904908 
L 91.881172 132.462362 
L 92.750976 137.705317 
L 93.620781 141.389893 
L 96.665097 149.07759 
L 97.099999 149.681281 
L 98.404706 152.583135 
L 98.839608 153.27754 
L 99.709412 154.29228 
L 100.144315 154.459666 
L 100.579217 154.742566 
L 101.014119 155.054243 
L 102.318826 155.600045 
L 103.623533 155.78847 
L 104.058435 155.760418 
L 104.275886 155.881532 
L 104.710789 155.86148 
L 104.92824 155.959314 
L 105.580593 155.846093 
L 106.015495 155.95461 
L 106.8853 154.95099 
L 107.320202 154.679477 
L 107.537653 154.37524 
L 107.755104 154.262676 
L 109.494714 154.386708 
L 109.712165 154.343516 
L 109.929616 154.433376 
L 111.016871 154.285968 
L 111.451774 154.367115 
L 112.104127 153.90472 
L 112.539029 153.871792 
L 113.191383 153.535869 
L 113.626285 153.053103 
L 114.278638 152.743944 
L 115.365894 151.126638 
L 115.800796 151.017809 
L 116.45315 150.204368 
L 116.888052 150.183201 
L 117.540406 150.40817 
L 117.757857 150.403803 
L 118.41021 149.947906 
L 118.845112 149.89141 
L 119.280015 149.176828 
L 119.932368 149.438452 
L 120.36727 149.433355 
L 121.454526 149.794722 
L 121.889428 149.854219 
L 122.976684 150.54573 
L 123.411586 150.497465 
L 123.846488 150.741185 
L 124.281391 150.790449 
L 124.716293 151.306716 
L 125.151195 151.912453 
L 125.586098 152.162308 
L 126.021 152.501915 
L 126.238451 152.574712 
L 127.108255 153.5285 
L 127.543158 154.210932 
L 128.412962 154.74558 
L 129.065316 154.829274 
L 129.717669 154.984955 
L 129.93512 154.999219 
L 130.370023 154.856028 
L 130.587474 154.953532 
L 131.022376 154.917661 
L 131.457278 155.045911 
L 131.674729 155.044782 
L 133.196887 155.78902 
L 133.849241 155.982959 
L 134.284143 156.05923 
L 134.501594 156.042044 
L 135.58885 156.592626 
L 136.241203 157.196513 
L 136.676105 157.425244 
L 136.893557 157.427455 
L 137.328459 157.065663 
L 137.980812 157.294351 
L 138.415715 157.118183 
L 139.720421 157.677403 
L 140.372775 157.294749 
L 140.807677 157.257266 
L 141.242579 157.181807 
L 142.112384 157.302514 
L 142.982188 156.687702 
L 143.19964 156.671753 
L 143.417091 156.445204 
L 144.286895 154.006994 
L 144.721797 153.973801 
L 145.1567 154.021034 
L 145.591602 154.367789 
L 146.243955 155.102854 
L 147.11376 156.148368 
L 147.331211 156.093654 
L 147.548662 156.159702 
L 148.201016 157.018771 
L 148.418467 157.101696 
L 148.853369 157.5682 
L 149.723174 158.109215 
L 150.375527 157.474897 
L 151.02788 157.918348 
L 152.115136 158.504374 
L 152.332587 158.553318 
L 152.767489 157.83561 
L 153.854745 157.9182 
L 154.507099 158.325534 
L 154.72455 158.363641 
L 155.159452 158.588744 
L 155.594354 158.529274 
L 155.811805 158.351496 
L 156.464159 158.292933 
L 157.116512 157.896094 
L 157.551414 157.595664 
L 158.63867 157.940055 
L 159.291024 158.317348 
L 159.725926 158.425724 
L 160.160828 158.411422 
L 160.378279 158.522496 
L 161.030633 158.349514 
L 161.682986 158.224087 
L 162.552791 157.875411 
L 162.987693 157.792246 
L 163.422595 157.835351 
L 164.2924 157.618567 
L 164.727302 157.417444 
L 165.162204 157.490249 
L 165.814558 156.810597 
L 166.032009 156.805971 
L 166.466911 156.915974 
L 166.901813 156.90546 
L 167.336716 156.37072 
L 167.989069 156.228882 
L 168.858874 155.515765 
L 169.076325 155.43681 
L 169.728678 154.827034 
L 170.815934 153.804553 
L 171.250836 153.319318 
L 171.685738 153.145318 
L 171.903189 153.183652 
L 172.772994 152.648745 
L 174.730054 152.094749 
L 175.164956 152.081295 
L 176.034761 152.223247 
L 176.687114 152.029892 
L 177.122017 152.105177 
L 178.426723 152.475954 
L 178.861626 152.75034 
L 179.948881 153.295614 
L 180.383784 153.692289 
L 181.253588 154.000056 
L 182.775746 154.821463 
L 183.210648 155.193874 
L 183.645551 155.231582 
L 184.297904 155.459023 
L 184.515355 155.434116 
L 185.167709 155.837049 
L 185.820062 156.328235 
L 186.472416 156.376832 
L 186.907318 156.715471 
L 187.559671 156.998949 
L 187.994573 157.241558 
L 188.429476 157.423445 
L 189.29928 157.048566 
L 189.951634 157.241702 
L 190.603987 156.858977 
L 190.821438 156.885289 
L 191.25634 156.601839 
L 191.473792 156.586494 
L 192.778498 155.556459 
L 193.648303 155.460654 
L 194.518108 155.357592 
L 194.735559 155.295339 
L 195.387912 155.548119 
L 195.822814 155.834896 
L 196.257717 155.775843 
L 196.692619 155.760588 
L 197.127521 155.69341 
L 198.432228 155.817257 
L 198.86713 156.039742 
L 199.519484 156.092582 
L 199.736935 156.231175 
L 200.171837 156.27874 
L 200.389288 156.399494 
L 201.041642 156.323237 
L 201.476544 156.520401 
L 202.781251 156.97918 
L 203.216153 157.28708 
L 203.651055 157.370356 
L 204.085957 157.514235 
L 205.825567 158.271857 
L 206.47792 158.699342 
L 206.912822 158.742969 
L 207.565176 159.152441 
L 208.869882 159.141065 
L 209.522236 159.303302 
L 210.39204 160.018254 
L 210.609492 160.047166 
L 211.261845 160.430825 
L 211.914198 160.664347 
L 212.349101 160.554639 
L 212.784003 160.788778 
L 213.218905 161.004978 
L 213.436356 161.048969 
L 214.523612 161.742953 
L 217.350477 163.138439 
L 217.785379 162.982335 
L 218.00283 163.035102 
L 218.872635 162.345233 
L 219.307537 162.01734 
L 220.829695 161.741142 
L 221.264597 161.845661 
L 221.916951 161.41108 
L 222.351853 161.098044 
L 222.786755 160.990518 
L 223.439109 160.402944 
L 224.308913 160.208345 
L 224.743815 160.049269 
L 225.178718 160.377738 
L 225.396169 160.58262 
L 226.918327 160.787655 
L 227.57068 160.262457 
L 228.657936 160.138501 
L 229.310289 160.518847 
L 229.52774 160.778113 
L 231.049898 161.055436 
L 231.702252 161.022534 
L 232.137154 161.156962 
L 232.789507 160.978165 
L 233.006959 160.835917 
L 234.094214 161.329492 
L 234.964019 162.003487 
L 235.616372 162.005971 
L 236.051274 162.032553 
L 236.921079 162.410586 
L 239.09559 161.771049 
L 239.530493 161.720002 
L 239.965395 161.647279 
L 240.835199 162.173839 
L 241.270102 162.115073 
L 242.357357 161.622435 
L 242.79226 161.759572 
L 243.227162 161.763401 
L 243.879515 161.718971 
L 244.966771 161.543541 
L 245.619124 161.421387 
L 246.70638 161.48379 
L 247.358733 161.61883 
L 248.011087 161.17638 
L 248.445989 161.314149 
L 248.880891 161.515325 
L 249.315794 161.755893 
L 250.403049 162.053721 
L 250.837952 161.890281 
L 252.142658 161.631998 
L 252.795012 161.617843 
L 253.664816 161.383155 
L 254.969523 161.482298 
L 255.621877 161.744939 
L 256.056779 161.614049 
L 258.013839 161.85849 
L 258.23129 162.047611 
L 258.448741 161.922925 
L 259.753448 159.95589 
L 260.405802 159.480927 
L 260.840704 160.222251 
L 261.710508 160.281045 
L 261.92796 160.168553 
L 263.015215 160.56827 
L 263.450118 160.925956 
L 263.667569 161.031692 
L 264.102471 161.485451 
L 264.537373 161.5374 
L 265.189727 161.872526 
L 267.364238 164.028991 
L 268.016591 164.195874 
L 268.668945 164.024355 
L 269.321298 164.151578 
L 271.060907 164.615611 
L 271.49581 164.777618 
L 274.975028 164.860633 
L 275.192479 164.807977 
L 275.627381 164.992571 
L 278.236795 164.391987 
L 278.889148 164.644433 
L 281.498562 163.856564 
L 282.150915 163.825804 
L 282.585817 163.536187 
L 283.238171 162.495552 
L 283.455622 162.245508 
L 284.107975 160.973299 
L 284.542878 160.617922 
L 284.760329 160.525716 
L 286.065036 161.178545 
L 286.499938 161.205948 
L 286.93484 161.189126 
L 287.152291 161.294543 
L 288.674449 161.102654 
L 289.761705 160.677189 
L 290.631509 160.580591 
L 292.153667 161.254391 
L 294.328179 162.97932 
L 294.763081 162.974965 
L 295.632886 163.389712 
L 295.850337 163.338162 
L 296.50269 163.537497 
L 297.155044 167.350941 
L 298.242299 172.857348 
L 300.851713 183.992027 
L 301.938969 187.690115 
L 302.591322 189.48752 
L 303.678578 191.831996 
L 305.418187 194.52531 
L 307.592698 196.713414 
L 308.897405 198.167024 
L 310.637014 199.408044 
L 311.071916 199.170593 
L 311.506818 199.495364 
L 312.159172 200.203457 
L 312.811525 200.626411 
L 313.246428 200.794013 
L 313.68133 201.044342 
L 314.116232 201.137899 
L 315.203488 201.560868 
L 316.725646 201.646978 
L 319.552511 202.43365 
L 319.987413 202.535405 
L 320.422315 202.521675 
L 321.074668 202.344129 
L 321.509571 202.16488 
L 321.944473 202.131971 
L 322.161924 201.982079 
L 323.466631 202.093183 
L 323.901533 202.14862 
L 324.988789 202.351762 
L 325.423691 202.341909 
L 325.858593 202.424235 
L 326.293496 202.365139 
L 326.510947 202.308234 
L 326.945849 202.399045 
L 328.033105 202.237761 
L 328.468007 202.250951 
L 329.772714 202.018987 
L 330.85997 202.300745 
L 331.729774 202.321469 
L 333.034481 202.127811 
L 333.469383 202.022798 
L 334.991541 201.262997 
L 335.426443 201.153891 
L 337.166052 201.276234 
L 338.035857 201.257066 
L 339.558015 201.125705 
L 339.992917 201.148063 
L 340.42782 201.211965 
L 341.297624 201.3879 
L 344.124489 201.163703 
L 344.559391 201.130609 
L 344.994293 201.209132 
L 345.429196 201.101876 
L 345.646647 201.208008 
L 345.864098 200.935613 
L 346.516451 198.983444 
L 346.733902 198.632001 
L 347.168805 198.792387 
L 347.821158 199.217913 
L 348.690963 199.489318 
L 349.125865 199.690809 
L 350.213121 199.782499 
L 352.605083 200.443309 
L 353.257437 200.609546 
L 355.214497 200.261194 
L 356.736655 200.427792 
L 358.041362 200.278659 
L 360.215873 199.810493 
L 360.650775 199.766869 
L 361.085677 199.714498 
L 363.260189 199.480228 
L 365.652151 199.56629 
L 366.304505 199.381536 
L 367.609211 199.042191 
L 368.696467 198.91274 
L 369.348821 198.825469 
L 370.870979 198.575211 
L 371.523332 198.348692 
L 372.175685 198.308121 
L 372.610588 198.327695 
L 373.480392 198.658937 
L 374.350197 198.89033 
L 376.524708 198.942428 
L 376.95961 198.78905 
L 377.177061 198.65626 
L 377.829415 198.716797 
L 379.569024 198.399197 
L 380.003926 198.218872 
L 380.438828 198.24735 
L 381.091182 198.085358 
L 381.308633 198.027336 
L 381.526084 197.706536 
L 381.743535 197.12865 
L 384.135498 196.350424 
L 385.005302 196.428107 
L 385.657656 196.216146 
L 387.179814 196.552797 
L 388.48452 196.749547 
L 389.136874 196.93588 
L 389.789227 196.971934 
L 390.441581 197.232228 
L 392.398641 197.415772 
L 392.833543 197.512664 
L 393.485897 197.520902 
L 394.13825 197.665177 
L 394.573152 197.712929 
L 395.877859 197.886444 
L 396.312761 197.69746 
L 398.487273 197.717409 
L 398.487273 197.717409 
" style="fill:none;stroke:#000000;stroke-linecap:square;stroke-width:1.5;"/>
   </g>
   <g id="line2d_17">
    <path clip-path="url(#p714cf1dd32)" d="M 73.832727 181.945729 
L 74.050178 181.892327 
L 74.26763 181.711063 
L 75.137434 181.701457 
L 75.354885 181.587539 
L 75.789787 181.633573 
L 76.659592 181.570793 
L 76.877043 181.497488 
L 77.964299 181.827874 
L 78.18175 181.613919 
L 78.834103 181.91759 
L 79.051555 181.640387 
L 79.486457 168.887303 
L 80.573712 137.402255 
L 80.791164 127.248301 
L 81.443517 79.288293 
L 81.878419 59.555545 
L 82.09587 54.69276 
L 82.313322 53.568 
L 82.530773 54.584214 
L 82.965675 60.415805 
L 83.618028 72.906615 
L 84.487833 92.431693 
L 85.357637 104.284907 
L 85.79254 107.29157 
L 86.227442 109.586963 
L 86.662344 110.572061 
L 86.879795 110.805502 
L 87.314698 110.942777 
L 87.7496 110.609976 
L 87.967051 110.323956 
L 88.619404 107.550575 
L 89.924111 99.43764 
L 90.576465 95.772054 
L 91.011367 94.304679 
L 92.098623 92.470658 
L 92.750976 91.877272 
L 93.185878 91.554325 
L 93.620781 91.634775 
L 94.055683 91.79659 
L 94.490585 92.063563 
L 94.925487 92.963242 
L 95.577841 94.863501 
L 95.795292 95.217181 
L 96.230194 95.47627 
L 96.665097 95.828301 
L 97.099999 96.409713 
L 97.534901 96.698614 
L 97.969803 96.516103 
L 98.404706 96.995615 
L 98.839608 98.128537 
L 99.491961 100.170708 
L 100.144315 101.057572 
L 100.361766 101.164355 
L 100.796668 101.184499 
L 101.449021 101.393581 
L 101.883924 102.035684 
L 102.318826 102.501439 
L 102.753728 102.811236 
L 103.188631 102.570264 
L 103.406082 102.582913 
L 104.058435 101.985121 
L 104.493337 102.354399 
L 104.710789 102.208706 
L 104.92824 102.387819 
L 105.363142 103.133869 
L 105.798044 103.702245 
L 106.015495 104.074659 
L 106.450398 104.218504 
L 106.8853 104.230804 
L 107.102751 104.195935 
L 107.755104 104.433165 
L 107.972556 104.422859 
L 108.190007 104.534614 
L 108.624909 105.16367 
L 109.059811 105.377193 
L 109.494714 105.167405 
L 110.147067 104.01569 
L 110.581969 104.027617 
L 111.016871 104.003265 
L 111.451774 104.118372 
L 111.886676 104.543335 
L 112.104127 104.551678 
L 112.756481 104.945315 
L 113.191383 104.698005 
L 113.626285 104.302257 
L 114.061187 103.32104 
L 114.713541 102.979611 
L 114.930992 102.862087 
L 115.148443 102.899801 
L 115.365894 102.712516 
L 116.235699 101.21165 
L 117.540406 101.855668 
L 117.757857 101.767259 
L 118.192759 101.409867 
L 118.627661 101.476278 
L 118.845112 101.805341 
L 119.280015 102.786573 
L 119.932368 103.216371 
L 120.149819 103.130448 
L 120.36727 102.882915 
L 120.802173 102.925802 
L 121.019624 102.940608 
L 122.324331 103.886826 
L 122.976684 103.695786 
L 123.411586 103.158257 
L 123.846488 103.21308 
L 124.06394 103.255428 
L 124.498842 102.971915 
L 124.716293 103.188148 
L 125.586098 104.60702 
L 125.803549 104.632304 
L 126.238451 103.914995 
L 126.455902 103.828228 
L 127.108255 103.171777 
L 127.325707 103.114214 
L 127.543158 102.903344 
L 127.97806 102.309104 
L 128.847865 102.541073 
L 129.282767 102.419705 
L 129.93512 101.9013 
L 130.370023 101.333553 
L 130.804925 101.244247 
L 131.239827 100.864235 
L 131.89218 100.006847 
L 132.327083 99.502797 
L 132.544534 99.598456 
L 132.761985 99.563836 
L 132.979436 99.375301 
L 133.196887 99.423858 
L 133.63179 99.858423 
L 133.849241 100.151278 
L 134.066692 100.230011 
L 134.501594 99.887796 
L 135.153948 99.091709 
L 135.371399 99.176168 
L 135.806301 99.723734 
L 136.458654 99.943576 
L 136.676105 99.912767 
L 136.893557 99.741697 
L 137.328459 99.208558 
L 137.54591 99.212822 
L 138.415715 98.437484 
L 139.068068 98.399015 
L 139.285519 98.152714 
L 139.720421 98.176604 
L 139.937872 97.931865 
L 140.155324 97.85906 
L 140.590226 98.249443 
L 140.807677 98.121776 
L 141.025128 97.864611 
L 141.46003 97.871374 
L 142.764737 98.608075 
L 143.19964 99.245915 
L 143.417091 99.409827 
L 144.721797 101.631757 
L 145.1567 102.467929 
L 145.591602 102.985511 
L 146.026504 104.091356 
L 146.243955 104.796284 
L 146.461407 105.055486 
L 146.678858 105.124026 
L 147.11376 105.652048 
L 147.766113 106.890859 
L 147.983565 107.179397 
L 148.635918 107.024705 
L 149.940625 105.976743 
L 150.158076 106.011843 
L 150.592978 105.634578 
L 150.810429 105.602101 
L 151.245332 105.306175 
L 151.897685 105.645503 
L 152.332587 105.903042 
L 152.767489 105.547114 
L 153.202392 104.891015 
L 154.507099 102.738976 
L 154.942001 102.026654 
L 155.594354 101.440039 
L 156.246708 101.215772 
L 156.464159 101.043808 
L 156.68161 100.691286 
L 156.899061 100.597261 
L 157.333963 100.704922 
L 157.768866 101.172853 
L 157.986317 101.283806 
L 158.421219 101.808659 
L 158.856121 102.588475 
L 159.291024 102.888174 
L 159.508475 102.942417 
L 159.725926 103.164342 
L 160.378279 103.004444 
L 161.030633 102.480984 
L 161.465535 102.542575 
L 161.682986 102.326423 
L 162.117888 102.53359 
L 162.770242 101.950928 
L 162.987693 101.901804 
L 163.640046 102.372344 
L 164.074949 102.085988 
L 164.509851 102.138014 
L 164.944753 102.284817 
L 165.597106 102.359616 
L 167.336716 101.85712 
L 167.554167 101.860773 
L 168.423971 102.662004 
L 168.858874 102.56356 
L 169.076325 102.50373 
L 169.728678 101.697693 
L 170.16358 101.060402 
L 170.381031 101.044265 
L 170.598483 100.76167 
L 171.250836 99.29095 
L 171.468287 99.120142 
L 171.685738 99.123142 
L 172.120641 99.827726 
L 172.555543 100.037142 
L 172.990445 99.982921 
L 173.207896 100.276834 
L 173.86025 101.813933 
L 174.077701 101.713975 
L 174.295152 101.739039 
L 174.730054 102.156356 
L 176.252212 103.151937 
L 176.687114 103.449161 
L 176.904566 103.718883 
L 177.991821 104.115527 
L 178.209272 104.103677 
L 178.644175 103.826055 
L 178.861626 103.848346 
L 179.079077 103.698336 
L 179.296528 103.390942 
L 179.73143 103.490945 
L 179.948881 103.578755 
L 180.818686 104.881275 
L 181.905942 107.244083 
L 182.123393 107.545509 
L 182.340844 107.535379 
L 182.775746 107.290232 
L 182.993197 107.340662 
L 183.645551 107.83938 
L 183.863002 107.794525 
L 184.080453 107.615757 
L 184.515355 107.542345 
L 184.950258 107.32388 
L 186.037513 106.820989 
L 186.689867 106.967075 
L 187.124769 107.088712 
L 188.212025 106.535413 
L 188.646927 105.826049 
L 190.821438 99.999564 
L 191.691243 97.854796 
L 192.343596 97.303868 
L 193.213401 97.210398 
L 194.083205 98.23728 
L 194.735559 98.661817 
L 195.170461 98.953455 
L 196.475168 100.493347 
L 197.127521 100.678789 
L 197.344972 101.033535 
L 197.562423 101.135749 
L 197.997326 101.019826 
L 199.084581 101.237603 
L 199.519484 100.989404 
L 201.259093 101.583843 
L 201.693995 102.345726 
L 201.911446 102.41007 
L 202.781251 103.59929 
L 202.998702 103.741923 
L 203.433604 104.504392 
L 204.085957 105.079801 
L 204.52086 105.355958 
L 205.390664 105.925968 
L 205.608115 105.993713 
L 206.043018 106.396544 
L 206.260469 106.470824 
L 206.695371 107.212269 
L 207.130273 107.753065 
L 207.565176 108.11897 
L 207.782627 108.007775 
L 208.43498 108.222725 
L 208.652431 108.188033 
L 208.869882 107.991598 
L 209.304785 107.8569 
L 209.522236 107.715558 
L 209.957138 107.7762 
L 211.696747 107.142281 
L 211.914198 107.100664 
L 212.13165 107.233197 
L 212.349101 107.230301 
L 213.218905 106.529344 
L 213.653807 105.849577 
L 213.871259 105.796723 
L 214.523612 105.221554 
L 214.741063 104.997904 
L 214.958514 105.003283 
L 215.610868 105.379621 
L 216.263221 105.284804 
L 216.480672 105.428412 
L 216.698123 105.413725 
L 216.915574 105.519446 
L 217.350477 105.907512 
L 217.785379 106.225126 
L 218.872635 107.498271 
L 219.307537 107.377673 
L 219.95989 106.833932 
L 220.394793 106.224427 
L 220.829695 106.245035 
L 221.264597 105.960551 
L 221.916951 105.456219 
L 223.439109 105.099216 
L 224.091462 105.387857 
L 224.961267 106.15377 
L 225.396169 106.778331 
L 225.831071 106.562134 
L 227.353229 108.268931 
L 228.657936 108.462109 
L 228.875387 108.38289 
L 231.049898 104.266274 
L 231.484801 103.81414 
L 231.919703 103.452847 
L 232.572056 102.600549 
L 233.006959 102.423464 
L 233.876763 101.550429 
L 235.18147 99.867585 
L 235.616372 99.276525 
L 236.051274 98.470677 
L 236.268726 98.450122 
L 236.703628 98.034832 
L 237.13853 97.934795 
L 237.355981 97.811286 
L 237.790884 97.195118 
L 238.225786 97.106852 
L 238.878139 96.98965 
L 239.09559 97.30694 
L 239.313041 97.378037 
L 239.965395 97.273687 
L 240.835199 97.39144 
L 241.270102 98.069297 
L 241.705004 98.486678 
L 242.357357 100.160442 
L 242.79226 101.168771 
L 244.096966 103.304709 
L 244.74932 103.610236 
L 245.184222 104.177688 
L 245.619124 104.417858 
L 246.271478 104.83316 
L 246.488929 104.750841 
L 246.70638 104.919853 
L 246.923831 104.829495 
L 247.358733 104.503138 
L 247.576185 104.466193 
L 248.228538 105.063124 
L 249.098343 105.144934 
L 249.533245 105.514474 
L 249.968147 105.381538 
L 250.185598 105.171823 
L 250.620501 104.380936 
L 251.055403 104.166986 
L 251.272854 104.204894 
L 251.925207 104.776034 
L 252.36011 105.597389 
L 253.012463 105.507285 
L 253.447365 105.793248 
L 253.882268 106.280188 
L 254.31717 106.314635 
L 254.534621 106.230763 
L 255.621877 105.144895 
L 256.27423 105.015682 
L 256.491681 104.906384 
L 256.926583 104.499438 
L 257.361486 104.263805 
L 257.796388 103.996995 
L 258.23129 103.946426 
L 258.666193 103.418643 
L 259.318546 102.428164 
L 259.535997 102.184239 
L 259.753448 101.747035 
L 259.970899 101.560176 
L 260.405802 101.696612 
L 261.275606 101.449719 
L 261.710508 101.781698 
L 262.145411 101.70698 
L 262.362862 101.683117 
L 263.015215 102.831841 
L 263.450118 103.757673 
L 264.319922 104.821784 
L 264.972275 105.103581 
L 265.407178 105.092204 
L 265.624629 105.219316 
L 266.276982 105.018034 
L 268.234043 104.609358 
L 268.668945 104.707554 
L 268.886396 104.655984 
L 269.538749 103.862786 
L 269.7562 103.945865 
L 270.191103 104.357082 
L 270.626005 104.455205 
L 270.843456 104.556 
L 271.278358 104.235681 
L 271.713261 104.133246 
L 272.148163 103.857804 
L 272.583065 103.801725 
L 273.235419 103.361844 
L 273.887772 103.332204 
L 274.105223 103.284126 
L 274.322674 103.066774 
L 274.757577 102.505524 
L 274.975028 102.308686 
L 275.40993 101.671794 
L 275.844832 101.400087 
L 276.714637 101.909763 
L 276.932088 101.835673 
L 277.36699 101.504259 
L 278.671697 100.684826 
L 279.32405 101.026871 
L 279.541502 101.07331 
L 280.193855 101.947272 
L 280.846208 103.096993 
L 281.06366 103.316675 
L 281.933464 103.360216 
L 282.585817 104.629246 
L 283.455622 105.412495 
L 283.890524 105.289903 
L 284.325427 104.99732 
L 284.97778 105.360416 
L 285.847584 105.142602 
L 286.065036 104.926261 
L 286.499938 104.876673 
L 288.239547 102.851556 
L 289.109352 102.233382 
L 289.544254 102.508476 
L 289.979156 102.300021 
L 290.848961 100.973742 
L 291.501314 100.529408 
L 291.936216 99.89499 
L 292.58857 98.253822 
L 292.806021 98.11763 
L 293.023472 98.159256 
L 293.675825 97.852518 
L 293.893277 97.772764 
L 294.328179 97.963893 
L 294.54563 98.24551 
L 294.980532 99.49222 
L 295.197983 99.751752 
L 295.415434 99.820257 
L 295.632886 100.25776 
L 295.850337 100.3102 
L 296.067788 100.692631 
L 296.285239 100.753909 
L 296.50269 101.165749 
L 296.937592 113.71138 
L 298.024848 141.92985 
L 298.894653 157.671387 
L 299.981908 172.335955 
L 300.634262 178.85677 
L 301.938969 188.372419 
L 302.808773 193.003396 
L 304.548382 199.669652 
L 305.200736 201.443496 
L 306.07054 202.891503 
L 307.157796 204.427917 
L 308.679954 205.842297 
L 309.114856 206.331066 
L 309.767209 207.306254 
L 311.506818 208.780981 
L 311.941721 208.991797 
L 312.594074 209.2872 
L 313.028976 209.406829 
L 314.116232 209.433484 
L 314.551134 209.647341 
L 315.203488 209.58424 
L 316.508195 209.069325 
L 316.943097 208.956353 
L 317.377999 208.806422 
L 317.812901 208.74461 
L 318.465255 208.472891 
L 321.074668 207.849603 
L 321.509571 207.481714 
L 322.379375 207.035003 
L 323.466631 206.561853 
L 324.336435 206.491798 
L 325.20624 206.507347 
L 325.423691 206.466274 
L 326.510947 206.723623 
L 327.598203 206.353402 
L 328.250556 205.917068 
L 329.772714 205.356945 
L 330.425067 205.359845 
L 331.729774 204.796202 
L 333.034481 203.86645 
L 333.469383 203.564245 
L 334.121737 203.090312 
L 334.556639 202.76066 
L 334.991541 202.363099 
L 335.861346 201.841653 
L 337.166052 201.190445 
L 337.818406 201.027608 
L 338.68821 200.873421 
L 339.123113 200.711382 
L 339.775466 200.56217 
L 340.210368 200.325145 
L 340.645271 200.001785 
L 341.080173 199.884757 
L 342.167429 199.324647 
L 342.602331 199.259773 
L 343.037233 198.877369 
L 346.081549 197.586137 
L 346.733902 197.670793 
L 348.038609 197.419777 
L 348.25606 197.414971 
L 349.778218 196.604312 
L 354.344692 195.931554 
L 355.214497 196.082577 
L 356.084301 195.883777 
L 356.519204 195.911254 
L 357.171557 195.667172 
L 357.606459 195.670217 
L 358.693715 195.548109 
L 358.911166 195.622738 
L 359.998422 195.454543 
L 361.085677 195.499672 
L 361.303129 195.448283 
L 361.52058 195.540831 
L 363.042738 195.252602 
L 363.47764 195.253427 
L 364.129993 194.962317 
L 364.999798 194.939286 
L 365.4347 194.768074 
L 365.652151 194.73904 
L 366.087054 194.557827 
L 367.609211 194.672487 
L 368.044114 194.552579 
L 368.913918 194.499489 
L 369.348821 194.211864 
L 370.436076 194.472437 
L 370.870979 194.327651 
L 371.523332 194.314567 
L 372.175685 194.117835 
L 373.697843 194.054988 
L 374.567648 193.962157 
L 375.00255 193.844436 
L 375.437452 193.929666 
L 376.524708 193.397491 
L 377.611964 192.873244 
L 378.916671 192.442109 
L 379.351573 192.526704 
L 380.221377 192.830844 
L 381.091182 192.988141 
L 381.526084 192.788483 
L 382.395889 192.466881 
L 382.830791 192.387001 
L 383.265693 192.269386 
L 384.5704 192.374975 
L 385.222753 192.361031 
L 385.657656 192.174313 
L 386.092558 192.103317 
L 388.049618 191.943947 
L 388.48452 191.737072 
L 390.22413 191.569905 
L 392.18119 191.971248 
L 392.833543 191.761956 
L 395.008055 191.642348 
L 397.834919 191.99214 
L 398.487273 191.82814 
L 398.487273 191.82814 
" style="fill:none;stroke:#000000;stroke-linecap:square;stroke-width:1.5;"/>
   </g>
   <g id="patch_3">
    <path d="M 57.6 307.584 
L 57.6 41.472 
" style="fill:none;stroke:#000000;stroke-linecap:square;stroke-linejoin:miter;stroke-width:0.8;"/>
   </g>
   <g id="patch_4">
    <path d="M 414.72 307.584 
L 414.72 41.472 
" style="fill:none;stroke:#000000;stroke-linecap:square;stroke-linejoin:miter;stroke-width:0.8;"/>
   </g>
   <g id="patch_5">
    <path d="M 57.6 307.584 
L 414.72 307.584 
" style="fill:none;stroke:#000000;stroke-linecap:square;stroke-linejoin:miter;stroke-width:0.8;"/>
   </g>
   <g id="patch_6">
    <path d="M 57.6 41.472 
L 414.72 41.472 
" style="fill:none;stroke:#000000;stroke-linecap:square;stroke-linejoin:miter;stroke-width:0.8;"/>
   </g>
  </g>
 </g>
 <defs>
  <clipPath id="p714cf1dd32">
   <rect height="266.112" width="357.12" x="57.6" y="41.472"/>
  </clipPath>
 </defs>
</svg>
